0, 0, Header, 1, 17, 120
1, 0, Start_track
1, 0, Text_t, "\015\012\015\012Mass in B Minor          Johann Sebastion Bach\015\012No. 6 Chor:   Gratias agimus tibi\015\012\015\012seq by David Siu  dss@po.cwru.edu\015\012\015\012\015\012"
1, 0, Time_signature, 4, 1, 48, 8
1, 0, Key_signature, 2, "major"
1, 0, Tempo, 625000
1, 960, Tempo, 428571
1, 41280, Tempo, 461538
1, 43200, Tempo, 526316
1, 43710, Tempo, 600000
1, 44051, Tempo, 1500000
1, 44165, Tempo, 882352
1, 44173, Tempo, 659340
1, 44181, Tempo, 750000
1, 46080, End_track
2, 0, Start_track
2, 0, MIDI_port, 0
2, 0, Title_t, "Instrument  1"
2, 0, Program_c, 2, 73
2, 46080, End_track
3, 0, Start_track
3, 0, MIDI_port, 0
3, 0, Title_t, "Trumpet"
3, 0, Program_c, 0, 56
3, 14880, Note_on_c, 0, 74, 80
3, 15360, Note_on_c, 0, 74, 0
3, 15360, Note_on_c, 0, 76, 81
3, 15600, Note_on_c, 0, 76, 0
3, 15600, Note_on_c, 0, 78, 82
3, 15840, Note_on_c, 0, 78, 0
3, 15840, Note_on_c, 0, 79, 83
3, 16080, Note_on_c, 0, 79, 0
3, 16080, Note_on_c, 0, 78, 84
3, 16200, Note_on_c, 0, 78, 0
3, 16200, Note_on_c, 0, 76, 85
3, 16320, Note_on_c, 0, 76, 0
3, 16320, Note_on_c, 0, 78, 85
3, 16440, Note_on_c, 0, 78, 0
3, 16440, Note_on_c, 0, 74, 85
3, 16560, Note_on_c, 0, 74, 0
3, 16560, Note_on_c, 0, 79, 85
3, 17040, Note_on_c, 0, 79, 0
3, 17040, Note_on_c, 0, 78, 85
3, 17280, Note_on_c, 0, 78, 0
3, 17280, Note_on_c, 0, 76, 80
3, 17760, Note_on_c, 0, 76, 0
3, 17760, Note_on_c, 0, 74, 72
3, 18240, Note_on_c, 0, 74, 0
3, 25680, Note_on_c, 0, 74, 64
3, 25920, Note_on_c, 0, 74, 0
3, 25920, Note_on_c, 0, 76, 64
3, 26160, Note_on_c, 0, 76, 0
3, 26160, Note_on_c, 0, 78, 64
3, 26400, Note_on_c, 0, 78, 0
3, 26400, Note_on_c, 0, 79, 64
3, 26640, Note_on_c, 0, 79, 0
3, 26640, Note_on_c, 0, 78, 64
3, 26760, Note_on_c, 0, 78, 0
3, 26760, Note_on_c, 0, 76, 64
3, 26880, Note_on_c, 0, 76, 0
3, 26880, Note_on_c, 0, 78, 64
3, 27000, Note_on_c, 0, 78, 0
3, 27000, Note_on_c, 0, 74, 64
3, 27120, Note_on_c, 0, 74, 0
3, 27120, Note_on_c, 0, 79, 64
3, 27600, Note_on_c, 0, 79, 0
3, 27600, Note_on_c, 0, 78, 64
3, 27840, Note_on_c, 0, 78, 0
3, 27840, Note_on_c, 0, 76, 64
3, 28080, Note_on_c, 0, 76, 0
3, 28080, Note_on_c, 0, 74, 64
3, 28560, Note_on_c, 0, 74, 0
3, 30480, Note_on_c, 0, 74, 64
3, 30720, Note_on_c, 0, 74, 0
3, 30720, Note_on_c, 0, 76, 64
3, 30960, Note_on_c, 0, 76, 0
3, 30960, Note_on_c, 0, 81, 64
3, 30960, Note_on_c, 0, 78, 64
3, 31200, Note_on_c, 0, 78, 0
3, 31200, Note_on_c, 0, 81, 0
3, 31200, Note_on_c, 0, 83, 64
3, 31200, Note_on_c, 0, 79, 64
3, 31440, Note_on_c, 0, 79, 0
3, 31440, Note_on_c, 0, 83, 0
3, 31440, Note_on_c, 0, 85, 64
3, 31440, Note_on_c, 0, 78, 64
3, 31560, Note_on_c, 0, 78, 0
3, 31560, Note_on_c, 0, 76, 64
3, 31680, Note_on_c, 0, 76, 0
3, 31680, Note_on_c, 0, 85, 0
3, 31680, Note_on_c, 0, 86, 64
3, 31680, Note_on_c, 0, 78, 64
3, 31800, Note_on_c, 0, 78, 0
3, 31800, Note_on_c, 0, 74, 64
3, 31920, Note_on_c, 0, 74, 0
3, 31920, Note_on_c, 0, 86, 0
3, 31920, Note_on_c, 0, 85, 64
3, 31920, Note_on_c, 0, 79, 64
3, 32040, Note_on_c, 0, 85, 0
3, 32040, Note_on_c, 0, 83, 64
3, 32160, Note_on_c, 0, 83, 0
3, 32160, Note_on_c, 0, 85, 64
3, 32280, Note_on_c, 0, 85, 0
3, 32280, Note_on_c, 0, 81, 64
3, 32400, Note_on_c, 0, 81, 0
3, 32400, Note_on_c, 0, 79, 0
3, 32400, Note_on_c, 0, 86, 64
3, 32400, Note_on_c, 0, 78, 64
3, 32640, Note_on_c, 0, 78, 0
3, 32640, Note_on_c, 0, 76, 64
3, 32880, Note_on_c, 0, 86, 0
3, 32880, Note_on_c, 0, 85, 64
3, 33120, Note_on_c, 0, 85, 0
3, 33120, Note_on_c, 0, 76, 0
3, 33120, Note_on_c, 0, 83, 64
3, 33120, Note_on_c, 0, 74, 64
3, 33360, Note_on_c, 0, 74, 0
3, 33600, Note_on_c, 0, 83, 0
3, 33600, Note_on_c, 0, 81, 64
3, 33600, Note_on_c, 0, 74, 64
3, 33720, Note_on_c, 0, 81, 0
3, 33720, Note_on_c, 0, 79, 64
3, 33780, Note_on_c, 0, 79, 0
3, 33780, Note_on_c, 0, 78, 64
3, 33840, Note_on_c, 0, 78, 0
3, 33840, Note_on_c, 0, 79, 64
3, 34080, Note_on_c, 0, 74, 0
3, 34080, Note_on_c, 0, 76, 64
3, 34080, Note_on_c, 0, 69, 64
3, 34320, Note_on_c, 0, 76, 0
3, 34320, Note_on_c, 0, 79, 0
3, 34320, Note_on_c, 0, 78, 64
3, 34320, Note_on_c, 0, 78, 64
3, 34560, Note_on_c, 0, 78, 0
3, 34560, Note_on_c, 0, 69, 0
3, 34560, Note_on_c, 0, 79, 64
3, 34560, Note_on_c, 0, 62, 64
3, 34680, Note_on_c, 0, 78, 0
3, 34680, Note_on_c, 0, 76, 90
3, 34740, Note_on_c, 0, 76, 0
3, 34740, Note_on_c, 0, 74, 90
3, 34800, Note_on_c, 0, 74, 0
3, 34800, Note_on_c, 0, 62, 0
3, 34800, Note_on_c, 0, 79, 0
3, 34800, Note_on_c, 0, 81, 90
3, 34800, Note_on_c, 0, 78, 64
3, 34920, Note_on_c, 0, 78, 0
3, 34920, Note_on_c, 0, 76, 64
3, 34920, Note_on_c, 0, 69, 64
3, 35040, Note_on_c, 0, 69, 0
3, 35040, Note_on_c, 0, 76, 0
3, 35040, Note_on_c, 0, 78, 64
3, 35040, Note_on_c, 0, 69, 64
3, 35160, Note_on_c, 0, 78, 0
3, 35160, Note_on_c, 0, 81, 0
3, 35160, Note_on_c, 0, 79, 90
3, 35160, Note_on_c, 0, 74, 64
3, 35220, Note_on_c, 0, 79, 0
3, 35220, Note_on_c, 0, 78, 90
3, 35280, Note_on_c, 0, 78, 0
3, 35280, Note_on_c, 0, 74, 0
3, 35280, Note_on_c, 0, 69, 0
3, 35280, Note_on_c, 0, 83, 90
3, 35280, Note_on_c, 0, 79, 64
3, 35280, Note_on_c, 0, 74, 64
3, 35520, Note_on_c, 0, 74, 0
3, 35520, Note_on_c, 0, 83, 0
3, 35520, Note_on_c, 0, 81, 90
3, 35520, Note_on_c, 0, 76, 64
3, 35760, Note_on_c, 0, 76, 0
3, 35760, Note_on_c, 0, 79, 0
3, 35760, Note_on_c, 0, 78, 64
3, 35760, Note_on_c, 0, 74, 64
3, 36000, Note_on_c, 0, 74, 0
3, 36000, Note_on_c, 0, 78, 0
3, 36000, Note_on_c, 0, 81, 0
3, 36000, Note_on_c, 0, 80, 90
3, 36000, Note_on_c, 0, 76, 64
3, 36000, Note_on_c, 0, 76, 64
3, 36240, Note_on_c, 0, 80, 0
3, 36240, Note_on_c, 0, 81, 116
3, 36480, Note_on_c, 0, 76, 0
3, 36480, Note_on_c, 0, 76, 0
3, 36480, Note_on_c, 0, 74, 64
3, 36480, Note_on_c, 0, 78, 64
3, 36720, Note_on_c, 0, 78, 0
3, 36720, Note_on_c, 0, 81, 0
3, 36720, Note_on_c, 0, 80, 64
3, 36720, Note_on_c, 0, 62, 64
3, 36960, Note_on_c, 0, 62, 0
3, 36960, Note_on_c, 0, 80, 0
3, 36960, Note_on_c, 0, 74, 0
3, 36960, Note_on_c, 0, 81, 64
3, 36960, Note_on_c, 0, 76, 64
3, 36960, Note_on_c, 0, 69, 64
3, 37440, Note_on_c, 0, 69, 0
3, 37440, Note_on_c, 0, 76, 0
3, 37440, Note_on_c, 0, 81, 0
3, 40080, Note_on_c, 0, 74, 64
3, 40080, Note_on_c, 0, 66, 64
3, 40320, Note_on_c, 0, 66, 0
3, 40320, Note_on_c, 0, 74, 0
3, 40320, Note_on_c, 0, 76, 64
3, 40320, Note_on_c, 0, 69, 64
3, 40560, Note_on_c, 0, 76, 0
3, 40560, Note_on_c, 0, 81, 64
3, 40560, Note_on_c, 0, 78, 64
3, 40800, Note_on_c, 0, 78, 0
3, 40800, Note_on_c, 0, 81, 0
3, 40800, Note_on_c, 0, 69, 0
3, 40800, Note_on_c, 0, 83, 64
3, 40800, Note_on_c, 0, 79, 64
3, 40800, Note_on_c, 0, 76, 64
3, 40920, Note_on_c, 0, 76, 0
3, 40920, Note_on_c, 0, 78, 64
3, 41040, Note_on_c, 0, 78, 0
3, 41040, Note_on_c, 0, 79, 0
3, 41040, Note_on_c, 0, 83, 0
3, 41040, Note_on_c, 0, 85, 64
3, 41040, Note_on_c, 0, 78, 64
3, 41040, Note_on_c, 0, 79, 64
3, 41160, Note_on_c, 0, 79, 0
3, 41160, Note_on_c, 0, 78, 0
3, 41160, Note_on_c, 0, 76, 64
3, 41160, Note_on_c, 0, 81, 64
3, 41280, Note_on_c, 0, 81, 0
3, 41280, Note_on_c, 0, 76, 0
3, 41280, Note_on_c, 0, 85, 0
3, 41280, Note_on_c, 0, 86, 64
3, 41280, Note_on_c, 0, 78, 64
3, 41280, Note_on_c, 0, 83, 64
3, 41400, Note_on_c, 0, 83, 0
3, 41400, Note_on_c, 0, 78, 0
3, 41400, Note_on_c, 0, 83, 64
3, 41400, Note_on_c, 0, 78, 64
3, 41520, Note_on_c, 0, 78, 0
3, 41520, Note_on_c, 0, 76, 64
3, 41580, Note_on_c, 0, 83, 0
3, 41580, Note_on_c, 0, 81, 64
3, 41640, Note_on_c, 0, 81, 0
3, 41640, Note_on_c, 0, 76, 0
3, 41640, Note_on_c, 0, 80, 64
3, 41640, Note_on_c, 0, 74, 64
3, 41700, Note_on_c, 0, 80, 0
3, 41700, Note_on_c, 0, 78, 64
3, 41760, Note_on_c, 0, 78, 0
3, 41760, Note_on_c, 0, 74, 0
3, 41760, Note_on_c, 0, 76, 64
3, 41760, Note_on_c, 0, 83, 64
3, 41820, Note_on_c, 0, 86, 0
3, 41820, Note_on_c, 0, 85, 64
3, 41880, Note_on_c, 0, 85, 0
3, 41880, Note_on_c, 0, 83, 64
3, 41940, Note_on_c, 0, 83, 0
3, 41940, Note_on_c, 0, 81, 64
3, 42000, Note_on_c, 0, 81, 0
3, 42000, Note_on_c, 0, 83, 0
3, 42000, Note_on_c, 0, 83, 64
3, 42000, Note_on_c, 0, 80, 64
3, 42240, Note_on_c, 0, 80, 0
3, 42240, Note_on_c, 0, 85, 64
3, 42360, Note_on_c, 0, 85, 0
3, 42360, Note_on_c, 0, 83, 0
3, 42360, Note_on_c, 0, 76, 0
3, 42360, Note_on_c, 0, 76, 64
3, 42360, Note_on_c, 0, 81, 64
3, 42420, Note_on_c, 0, 81, 0
3, 42420, Note_on_c, 0, 79, 64
3, 42480, Note_on_c, 0, 79, 0
3, 42480, Note_on_c, 0, 76, 0
3, 42480, Note_on_c, 0, 81, 64
3, 42480, Note_on_c, 0, 78, 64
3, 42600, Note_on_c, 0, 74, 64
3, 42720, Note_on_c, 0, 74, 0
3, 42720, Note_on_c, 0, 74, 64
3, 42840, Note_on_c, 0, 74, 0
3, 42960, Note_on_c, 0, 78, 0
3, 42960, Note_on_c, 0, 81, 0
3, 42960, Note_on_c, 0, 79, 64
3, 42960, Note_on_c, 0, 76, 64
3, 43200, Note_on_c, 0, 69, 64
3, 43320, Note_on_c, 0, 69, 0
3, 43320, Note_on_c, 0, 76, 0
3, 43320, Note_on_c, 0, 79, 0
3, 43320, Note_on_c, 0, 78, 64
3, 43320, Note_on_c, 0, 69, 64
3, 43380, Note_on_c, 0, 78, 0
3, 43380, Note_on_c, 0, 76, 64
3, 43440, Note_on_c, 0, 76, 0
3, 43440, Note_on_c, 0, 69, 0
3, 43440, Note_on_c, 0, 78, 64
3, 43440, Note_on_c, 0, 74, 64
3, 43560, Note_on_c, 0, 78, 0
3, 43560, Note_on_c, 0, 83, 64
3, 43560, Note_on_c, 0, 62, 64
3, 43680, Note_on_c, 0, 62, 0
3, 43680, Note_on_c, 0, 83, 0
3, 43680, Note_on_c, 0, 78, 64
3, 43680, Note_on_c, 0, 69, 64
3, 43800, Note_on_c, 0, 69, 0
3, 43800, Note_on_c, 0, 74, 0
3, 43800, Note_on_c, 0, 69, 64
3, 43800, Note_on_c, 0, 69, 64
3, 43860, Note_on_c, 0, 69, 0
3, 43860, Note_on_c, 0, 69, 0
3, 43860, Note_on_c, 0, 69, 64
3, 43860, Note_on_c, 0, 69, 64
3, 43920, Note_on_c, 0, 69, 0
3, 43920, Note_on_c, 0, 69, 0
3, 43920, Note_on_c, 0, 78, 0
3, 43920, Note_on_c, 0, 76, 64
3, 43920, Note_on_c, 0, 69, 64
3, 43920, Note_on_c, 0, 69, 64
3, 44040, Note_on_c, 0, 69, 0
3, 44040, Note_on_c, 0, 69, 0
3, 44040, Note_on_c, 0, 69, 64
3, 44040, Note_on_c, 0, 69, 64
3, 44160, Note_on_c, 0, 69, 0
3, 44160, Note_on_c, 0, 69, 0
3, 44160, Note_on_c, 0, 76, 0
3, 44160, Note_on_c, 0, 74, 64
3, 44160, Note_on_c, 0, 69, 64
3, 44160, Note_on_c, 0, 66, 64
3, 45120, Note_on_c, 0, 66, 0
3, 45120, Note_on_c, 0, 69, 0
3, 45120, Note_on_c, 0, 74, 0
3, 46080, End_track
4, 0, Start_track
4, 0, MIDI_port, 0
4, 0, Title_t, "Timpani"
4, 0, Program_c, 1, 47
4, 34080, Note_on_c, 1, 45, 64
4, 34560, Note_on_c, 1, 45, 0
4, 34560, Note_on_c, 1, 50, 64
4, 34800, Note_on_c, 1, 50, 0
4, 34800, Note_on_c, 1, 45, 64
4, 35040, Note_on_c, 1, 45, 0
4, 35040, Note_on_c, 1, 50, 64
4, 35280, Note_on_c, 1, 50, 0
4, 35280, Note_on_c, 1, 50, 64
4, 35520, Note_on_c, 1, 50, 0
4, 35520, Note_on_c, 1, 45, 64
4, 35760, Note_on_c, 1, 45, 0
4, 35760, Note_on_c, 1, 50, 64
4, 36240, Note_on_c, 1, 50, 0
4, 36240, Note_on_c, 1, 45, 64
4, 36480, Note_on_c, 1, 45, 0
4, 36480, Note_on_c, 1, 50, 64
4, 36960, Note_on_c, 1, 50, 0
4, 36960, Note_on_c, 1, 45, 64
4, 37440, Note_on_c, 1, 45, 0
4, 40080, Note_on_c, 1, 50, 64
4, 40560, Note_on_c, 1, 50, 0
4, 40560, Note_on_c, 1, 45, 64
4, 40800, Note_on_c, 1, 45, 0
4, 41400, Note_on_c, 1, 50, 64
4, 41460, Note_on_c, 1, 50, 0
4, 41460, Note_on_c, 1, 50, 64
4, 41520, Note_on_c, 1, 50, 0
4, 41520, Note_on_c, 1, 50, 64
4, 41640, Note_on_c, 1, 50, 0
4, 41640, Note_on_c, 1, 50, 64
4, 41760, Note_on_c, 1, 50, 0
4, 41760, Note_on_c, 1, 50, 64
4, 41880, Note_on_c, 1, 50, 0
4, 42120, Note_on_c, 1, 50, 64
4, 42240, Note_on_c, 1, 50, 0
4, 42240, Note_on_c, 1, 45, 64
4, 42360, Note_on_c, 1, 45, 0
4, 42600, Note_on_c, 1, 50, 64
4, 42720, Note_on_c, 1, 50, 0
4, 42720, Note_on_c, 1, 50, 64
4, 42840, Note_on_c, 1, 50, 0
4, 43200, Note_on_c, 1, 45, 64
4, 43320, Note_on_c, 1, 45, 0
4, 43560, Note_on_c, 1, 50, 64
4, 43680, Note_on_c, 1, 50, 0
4, 43680, Note_on_c, 1, 45, 64
4, 43800, Note_on_c, 1, 45, 0
4, 43800, Note_on_c, 1, 45, 64
4, 43860, Note_on_c, 1, 45, 0
4, 43860, Note_on_c, 1, 45, 64
4, 43920, Note_on_c, 1, 45, 0
4, 43920, Note_on_c, 1, 45, 64
4, 44040, Note_on_c, 1, 45, 0
4, 44040, Note_on_c, 1, 45, 64
4, 44160, Note_on_c, 1, 45, 0
4, 44160, Note_on_c, 1, 50, 64
4, 45120, Note_on_c, 1, 50, 0
4, 46080, End_track
5, 0, Start_track
5, 0, MIDI_port, 0
5, 0, Title_t, "Flute"
5, 0, Program_c, 3, 68
5, 2640, Note_on_c, 3, 62, 40
5, 2880, Note_on_c, 3, 62, 0
5, 2880, Note_on_c, 3, 64, 40
5, 3120, Note_on_c, 3, 64, 0
5, 3120, Note_on_c, 3, 66, 40
5, 3360, Note_on_c, 3, 66, 0
5, 3360, Note_on_c, 3, 67, 40
5, 3600, Note_on_c, 3, 67, 0
5, 3600, Note_on_c, 3, 66, 40
5, 3720, Note_on_c, 3, 66, 0
5, 3720, Note_on_c, 3, 64, 40
5, 3840, Note_on_c, 3, 64, 0
5, 3840, Note_on_c, 3, 66, 40
5, 3960, Note_on_c, 3, 66, 0
5, 3960, Note_on_c, 3, 62, 40
5, 4080, Note_on_c, 3, 62, 0
5, 4080, Note_on_c, 3, 67, 40
5, 4560, Note_on_c, 3, 67, 0
5, 4560, Note_on_c, 3, 66, 40
5, 4800, Note_on_c, 3, 66, 0
5, 4800, Note_on_c, 3, 64, 40
5, 5280, Note_on_c, 3, 64, 0
5, 5280, Note_on_c, 3, 62, 40
5, 5760, Note_on_c, 3, 62, 0
5, 6480, Note_on_c, 3, 69, 66
5, 6840, Note_on_c, 3, 69, 0
5, 6840, Note_on_c, 3, 69, 40
5, 6960, Note_on_c, 3, 69, 0
5, 6960, Note_on_c, 3, 68, 47
5, 7080, Note_on_c, 3, 68, 0
5, 7080, Note_on_c, 3, 68, 40
5, 7200, Note_on_c, 3, 68, 0
5, 7200, Note_on_c, 3, 69, 40
5, 7320, Note_on_c, 3, 69, 0
5, 7320, Note_on_c, 3, 67, 40
5, 7380, Note_on_c, 3, 67, 0
5, 7380, Note_on_c, 3, 66, 40
5, 7440, Note_on_c, 3, 66, 0
5, 7440, Note_on_c, 3, 64, 40
5, 7500, Note_on_c, 3, 64, 0
5, 7500, Note_on_c, 3, 66, 40
5, 7560, Note_on_c, 3, 66, 0
5, 7560, Note_on_c, 3, 62, 40
5, 7620, Note_on_c, 3, 62, 0
5, 7620, Note_on_c, 3, 64, 40
5, 7680, Note_on_c, 3, 64, 0
5, 7680, Note_on_c, 3, 66, 40
5, 7740, Note_on_c, 3, 66, 0
5, 7740, Note_on_c, 3, 64, 40
5, 7800, Note_on_c, 3, 64, 0
5, 7800, Note_on_c, 3, 66, 40
5, 7860, Note_on_c, 3, 66, 0
5, 7860, Note_on_c, 3, 67, 40
5, 7920, Note_on_c, 3, 67, 0
5, 7920, Note_on_c, 3, 66, 40
5, 7980, Note_on_c, 3, 66, 0
5, 7980, Note_on_c, 3, 67, 40
5, 8040, Note_on_c, 3, 67, 0
5, 8040, Note_on_c, 3, 66, 40
5, 8100, Note_on_c, 3, 66, 0
5, 8100, Note_on_c, 3, 64, 40
5, 8160, Note_on_c, 3, 64, 0
5, 8160, Note_on_c, 3, 62, 40
5, 8220, Note_on_c, 3, 62, 0
5, 8220, Note_on_c, 3, 64, 40
5, 8280, Note_on_c, 3, 64, 0
5, 8280, Note_on_c, 3, 62, 40
5, 8340, Note_on_c, 3, 62, 0
5, 8340, Note_on_c, 3, 64, 40
5, 8400, Note_on_c, 3, 64, 0
5, 8400, Note_on_c, 3, 66, 40
5, 8640, Note_on_c, 3, 66, 0
5, 8640, Note_on_c, 3, 64, 40
5, 8760, Note_on_c, 3, 64, 0
5, 9840, Note_on_c, 3, 62, 65
5, 10080, Note_on_c, 3, 62, 0
5, 10080, Note_on_c, 3, 64, 67
5, 10320, Note_on_c, 3, 64, 0
5, 10320, Note_on_c, 3, 66, 68
5, 10560, Note_on_c, 3, 66, 0
5, 10560, Note_on_c, 3, 67, 70
5, 10800, Note_on_c, 3, 67, 0
5, 10800, Note_on_c, 3, 66, 71
5, 10920, Note_on_c, 3, 66, 0
5, 10920, Note_on_c, 3, 64, 72
5, 11040, Note_on_c, 3, 64, 0
5, 11040, Note_on_c, 3, 66, 72
5, 11280, Note_on_c, 3, 66, 0
5, 11280, Note_on_c, 3, 71, 74
5, 11640, Note_on_c, 3, 71, 0
5, 11640, Note_on_c, 3, 69, 74
5, 11880, Note_on_c, 3, 69, 0
5, 11880, Note_on_c, 3, 74, 74
5, 12000, Note_on_c, 3, 74, 0
5, 12000, Note_on_c, 3, 67, 74
5, 12120, Note_on_c, 3, 67, 0
5, 12120, Note_on_c, 3, 71, 74
5, 12240, Note_on_c, 3, 71, 0
5, 12240, Note_on_c, 3, 69, 74
5, 12360, Note_on_c, 3, 69, 0
5, 12360, Note_on_c, 3, 67, 74
5, 12480, Note_on_c, 3, 67, 0
5, 12480, Note_on_c, 3, 66, 74
5, 12960, Note_on_c, 3, 66, 0
5, 13920, Note_on_c, 3, 69, 76
5, 14400, Note_on_c, 3, 69, 0
5, 14400, Note_on_c, 3, 71, 78
5, 14640, Note_on_c, 3, 71, 0
5, 14640, Note_on_c, 3, 73, 79
5, 14880, Note_on_c, 3, 73, 0
5, 14880, Note_on_c, 3, 74, 80
5, 15120, Note_on_c, 3, 74, 0
5, 15120, Note_on_c, 3, 73, 80
5, 15240, Note_on_c, 3, 73, 0
5, 15240, Note_on_c, 3, 71, 81
5, 15360, Note_on_c, 3, 71, 0
5, 15360, Note_on_c, 3, 73, 81
5, 15480, Note_on_c, 3, 73, 0
5, 15480, Note_on_c, 3, 69, 82
5, 15600, Note_on_c, 3, 69, 0
5, 15600, Note_on_c, 3, 74, 82
5, 16080, Note_on_c, 3, 74, 0
5, 16080, Note_on_c, 3, 73, 84
5, 16320, Note_on_c, 3, 73, 0
5, 16320, Note_on_c, 3, 71, 85
5, 16800, Note_on_c, 3, 71, 0
5, 16800, Note_on_c, 3, 69, 85
5, 17040, Note_on_c, 3, 69, 0
5, 17040, Note_on_c, 3, 62, 85
5, 17280, Note_on_c, 3, 62, 0
5, 17280, Note_on_c, 3, 64, 80
5, 17520, Note_on_c, 3, 64, 0
5, 17520, Note_on_c, 3, 66, 76
5, 17760, Note_on_c, 3, 66, 0
5, 17760, Note_on_c, 3, 67, 72
5, 18000, Note_on_c, 3, 67, 0
5, 18000, Note_on_c, 3, 66, 68
5, 18120, Note_on_c, 3, 66, 0
5, 18120, Note_on_c, 3, 64, 66
5, 18240, Note_on_c, 3, 64, 0
5, 18240, Note_on_c, 3, 66, 64
5, 18360, Note_on_c, 3, 66, 0
5, 18360, Note_on_c, 3, 62, 63
5, 18480, Note_on_c, 3, 62, 0
5, 18480, Note_on_c, 3, 69, 62
5, 18960, Note_on_c, 3, 69, 0
5, 18960, Note_on_c, 3, 67, 57
5, 19200, Note_on_c, 3, 67, 0
5, 19200, Note_on_c, 3, 66, 55
5, 19680, Note_on_c, 3, 66, 0
5, 19680, Note_on_c, 3, 64, 52
5, 19920, Note_on_c, 3, 64, 0
5, 19920, Note_on_c, 3, 67, 90
5, 20280, Note_on_c, 3, 67, 0
5, 20280, Note_on_c, 3, 67, 64
5, 20400, Note_on_c, 3, 67, 0
5, 20400, Note_on_c, 3, 66, 64
5, 20520, Note_on_c, 3, 66, 0
5, 20520, Note_on_c, 3, 66, 64
5, 20640, Note_on_c, 3, 66, 0
5, 20640, Note_on_c, 3, 67, 64
5, 20760, Note_on_c, 3, 67, 0
5, 20760, Note_on_c, 3, 66, 64
5, 20820, Note_on_c, 3, 66, 0
5, 20820, Note_on_c, 3, 64, 64
5, 20880, Note_on_c, 3, 64, 0
5, 20880, Note_on_c, 3, 62, 64
5, 20940, Note_on_c, 3, 62, 0
5, 20940, Note_on_c, 3, 64, 64
5, 21000, Note_on_c, 3, 64, 0
5, 21000, Note_on_c, 3, 66, 64
5, 21060, Note_on_c, 3, 66, 0
5, 21060, Note_on_c, 3, 62, 64
5, 21120, Note_on_c, 3, 62, 0
5, 21120, Note_on_c, 3, 64, 64
5, 21180, Note_on_c, 3, 64, 0
5, 21180, Note_on_c, 3, 62, 64
5, 21240, Note_on_c, 3, 62, 0
5, 21240, Note_on_c, 3, 64, 64
5, 21300, Note_on_c, 3, 64, 0
5, 21300, Note_on_c, 3, 66, 64
5, 21360, Note_on_c, 3, 66, 0
5, 21360, Note_on_c, 3, 64, 64
5, 21420, Note_on_c, 3, 64, 0
5, 21420, Note_on_c, 3, 67, 64
5, 21480, Note_on_c, 3, 67, 0
5, 21480, Note_on_c, 3, 66, 64
5, 21540, Note_on_c, 3, 66, 0
5, 21540, Note_on_c, 3, 64, 64
5, 21600, Note_on_c, 3, 64, 0
5, 21600, Note_on_c, 3, 62, 64
5, 21720, Note_on_c, 3, 62, 0
5, 21720, Note_on_c, 3, 64, 64
5, 21840, Note_on_c, 3, 64, 0
5, 21840, Note_on_c, 3, 66, 64
5, 22080, Note_on_c, 3, 66, 0
5, 22080, Note_on_c, 3, 64, 64
5, 22680, Note_on_c, 3, 64, 0
5, 22680, Note_on_c, 3, 62, 64
5, 22800, Note_on_c, 3, 62, 0
5, 22800, Note_on_c, 3, 64, 64
5, 22920, Note_on_c, 3, 64, 0
5, 22920, Note_on_c, 3, 69, 64
5, 23040, Note_on_c, 3, 69, 0
5, 23040, Note_on_c, 3, 68, 64
5, 23520, Note_on_c, 3, 68, 0
5, 23520, Note_on_c, 3, 66, 64
5, 23760, Note_on_c, 3, 66, 0
5, 24240, Note_on_c, 3, 62, 64
5, 24480, Note_on_c, 3, 62, 0
5, 24480, Note_on_c, 3, 64, 64
5, 24720, Note_on_c, 3, 64, 0
5, 24720, Note_on_c, 3, 66, 64
5, 24960, Note_on_c, 3, 66, 0
5, 24960, Note_on_c, 3, 67, 64
5, 25200, Note_on_c, 3, 67, 0
5, 25200, Note_on_c, 3, 66, 64
5, 25320, Note_on_c, 3, 66, 0
5, 25320, Note_on_c, 3, 64, 64
5, 25440, Note_on_c, 3, 64, 0
5, 25440, Note_on_c, 3, 66, 64
5, 25560, Note_on_c, 3, 66, 0
5, 25560, Note_on_c, 3, 62, 64
5, 25680, Note_on_c, 3, 62, 0
5, 25680, Note_on_c, 3, 67, 64
5, 26160, Note_on_c, 3, 67, 0
5, 26160, Note_on_c, 3, 66, 64
5, 26400, Note_on_c, 3, 66, 0
5, 26400, Note_on_c, 3, 64, 64
5, 26880, Note_on_c, 3, 64, 0
5, 26880, Note_on_c, 3, 62, 64
5, 27120, Note_on_c, 3, 62, 0
5, 27480, Note_on_c, 3, 74, 90
5, 27720, Note_on_c, 3, 74, 0
5, 27720, Note_on_c, 3, 74, 64
5, 27840, Note_on_c, 3, 74, 0
5, 27840, Note_on_c, 3, 73, 64
5, 27960, Note_on_c, 3, 73, 0
5, 27960, Note_on_c, 3, 73, 64
5, 28080, Note_on_c, 3, 73, 0
5, 28080, Note_on_c, 3, 74, 64
5, 28140, Note_on_c, 3, 74, 0
5, 28140, Note_on_c, 3, 73, 64
5, 28200, Note_on_c, 3, 73, 0
5, 28200, Note_on_c, 3, 71, 64
5, 28260, Note_on_c, 3, 71, 0
5, 28260, Note_on_c, 3, 69, 64
5, 28320, Note_on_c, 3, 69, 0
5, 28320, Note_on_c, 3, 67, 64
5, 28440, Note_on_c, 3, 67, 0
5, 28440, Note_on_c, 3, 62, 64
5, 28560, Note_on_c, 3, 62, 0
5, 28560, Note_on_c, 3, 67, 64
5, 28920, Note_on_c, 3, 67, 0
5, 28920, Note_on_c, 3, 66, 65
5, 29040, Note_on_c, 3, 66, 0
5, 29040, Note_on_c, 3, 62, 65
5, 29280, Note_on_c, 3, 62, 0
5, 29280, Note_on_c, 3, 64, 67
5, 29520, Note_on_c, 3, 64, 0
5, 29520, Note_on_c, 3, 66, 68
5, 29760, Note_on_c, 3, 66, 0
5, 29760, Note_on_c, 3, 67, 70
5, 30000, Note_on_c, 3, 67, 0
5, 30000, Note_on_c, 3, 66, 71
5, 30120, Note_on_c, 3, 66, 0
5, 30120, Note_on_c, 3, 64, 72
5, 30240, Note_on_c, 3, 64, 0
5, 30240, Note_on_c, 3, 66, 72
5, 30360, Note_on_c, 3, 66, 0
5, 30360, Note_on_c, 3, 62, 73
5, 30480, Note_on_c, 3, 62, 0
5, 30480, Note_on_c, 3, 67, 74
5, 30960, Note_on_c, 3, 67, 0
5, 30960, Note_on_c, 3, 66, 76
5, 31200, Note_on_c, 3, 66, 0
5, 31200, Note_on_c, 3, 64, 76
5, 31680, Note_on_c, 3, 64, 0
5, 31680, Note_on_c, 3, 62, 78
5, 32160, Note_on_c, 3, 62, 0
5, 32400, Note_on_c, 3, 62, 79
5, 32640, Note_on_c, 3, 62, 0
5, 32640, Note_on_c, 3, 64, 80
5, 32880, Note_on_c, 3, 64, 0
5, 32880, Note_on_c, 3, 66, 81
5, 33120, Note_on_c, 3, 66, 0
5, 33120, Note_on_c, 3, 67, 83
5, 33360, Note_on_c, 3, 67, 0
5, 33360, Note_on_c, 3, 66, 84
5, 33480, Note_on_c, 3, 66, 0
5, 33480, Note_on_c, 3, 64, 84
5, 33600, Note_on_c, 3, 64, 0
5, 33600, Note_on_c, 3, 66, 85
5, 33720, Note_on_c, 3, 66, 0
5, 33720, Note_on_c, 3, 62, 86
5, 33840, Note_on_c, 3, 62, 0
5, 33840, Note_on_c, 3, 67, 86
5, 34320, Note_on_c, 3, 67, 0
5, 34320, Note_on_c, 3, 66, 89
5, 34680, Note_on_c, 3, 66, 0
5, 34680, Note_on_c, 3, 64, 90
5, 34740, Note_on_c, 3, 64, 0
5, 34740, Note_on_c, 3, 62, 90
5, 34800, Note_on_c, 3, 62, 0
5, 34800, Note_on_c, 3, 69, 90
5, 35160, Note_on_c, 3, 69, 0
5, 35160, Note_on_c, 3, 67, 90
5, 35220, Note_on_c, 3, 67, 0
5, 35220, Note_on_c, 3, 66, 90
5, 35280, Note_on_c, 3, 66, 0
5, 35280, Note_on_c, 3, 71, 90
5, 35520, Note_on_c, 3, 71, 0
5, 35520, Note_on_c, 3, 69, 90
5, 36000, Note_on_c, 3, 69, 0
5, 36000, Note_on_c, 3, 68, 90
5, 36240, Note_on_c, 3, 68, 0
5, 36240, Note_on_c, 3, 69, 116
5, 36600, Note_on_c, 3, 69, 0
5, 36600, Note_on_c, 3, 69, 85
5, 36720, Note_on_c, 3, 69, 0
5, 36720, Note_on_c, 3, 68, 83
5, 36840, Note_on_c, 3, 68, 0
5, 36840, Note_on_c, 3, 68, 82
5, 36960, Note_on_c, 3, 68, 0
5, 36960, Note_on_c, 3, 69, 80
5, 37020, Note_on_c, 3, 69, 0
5, 37020, Note_on_c, 3, 64, 80
5, 37080, Note_on_c, 3, 64, 0
5, 37080, Note_on_c, 3, 66, 79
5, 37140, Note_on_c, 3, 66, 0
5, 37140, Note_on_c, 3, 68, 78
5, 37200, Note_on_c, 3, 68, 0
5, 37200, Note_on_c, 3, 69, 78
5, 37260, Note_on_c, 3, 69, 0
5, 37260, Note_on_c, 3, 71, 77
5, 37320, Note_on_c, 3, 71, 0
5, 37320, Note_on_c, 3, 68, 76
5, 37380, Note_on_c, 3, 68, 0
5, 37380, Note_on_c, 3, 69, 76
5, 37440, Note_on_c, 3, 69, 0
5, 37440, Note_on_c, 3, 71, 75
5, 37560, Note_on_c, 3, 71, 0
5, 37560, Note_on_c, 3, 66, 75
5, 37680, Note_on_c, 3, 66, 0
5, 37680, Note_on_c, 3, 71, 75
5, 38040, Note_on_c, 3, 71, 0
5, 38040, Note_on_c, 3, 64, 75
5, 38160, Note_on_c, 3, 64, 0
5, 38160, Note_on_c, 3, 69, 75
5, 38220, Note_on_c, 3, 69, 0
5, 38220, Note_on_c, 3, 71, 75
5, 38280, Note_on_c, 3, 71, 0
5, 38280, Note_on_c, 3, 68, 75
5, 38340, Note_on_c, 3, 68, 0
5, 38340, Note_on_c, 3, 69, 75
5, 38400, Note_on_c, 3, 69, 0
5, 38400, Note_on_c, 3, 71, 76
5, 38460, Note_on_c, 3, 71, 0
5, 38460, Note_on_c, 3, 73, 80
5, 38520, Note_on_c, 3, 73, 0
5, 38520, Note_on_c, 3, 69, 80
5, 38580, Note_on_c, 3, 69, 0
5, 38580, Note_on_c, 3, 71, 80
5, 38640, Note_on_c, 3, 71, 0
5, 38640, Note_on_c, 3, 73, 77
5, 39000, Note_on_c, 3, 73, 0
5, 39000, Note_on_c, 3, 71, 79
5, 39060, Note_on_c, 3, 71, 0
5, 39060, Note_on_c, 3, 69, 80
5, 39120, Note_on_c, 3, 69, 0
5, 39120, Note_on_c, 3, 71, 80
5, 39240, Note_on_c, 3, 71, 0
5, 39240, Note_on_c, 3, 71, 80
5, 39360, Note_on_c, 3, 71, 0
5, 39360, Note_on_c, 3, 71, 81
5, 39600, Note_on_c, 3, 71, 0
5, 39600, Note_on_c, 3, 64, 82
5, 39840, Note_on_c, 3, 64, 0
5, 39840, Note_on_c, 3, 62, 84
5, 40080, Note_on_c, 3, 62, 0
5, 40080, Note_on_c, 3, 62, 85
5, 40320, Note_on_c, 3, 62, 0
5, 40320, Note_on_c, 3, 64, 85
5, 40560, Note_on_c, 3, 64, 0
5, 40560, Note_on_c, 3, 66, 86
5, 40800, Note_on_c, 3, 66, 0
5, 40800, Note_on_c, 3, 67, 87
5, 41040, Note_on_c, 3, 67, 0
5, 41040, Note_on_c, 3, 66, 87
5, 41160, Note_on_c, 3, 66, 0
5, 41160, Note_on_c, 3, 64, 88
5, 41280, Note_on_c, 3, 64, 0
5, 41280, Note_on_c, 3, 66, 88
5, 41400, Note_on_c, 3, 66, 0
5, 41400, Note_on_c, 3, 71, 88
5, 41640, Note_on_c, 3, 71, 0
5, 41640, Note_on_c, 3, 71, 89
5, 41700, Note_on_c, 3, 71, 0
5, 41700, Note_on_c, 3, 71, 89
5, 41760, Note_on_c, 3, 71, 0
5, 41760, Note_on_c, 3, 64, 90
5, 41880, Note_on_c, 3, 64, 0
5, 41880, Note_on_c, 3, 68, 90
5, 42000, Note_on_c, 3, 68, 0
5, 42000, Note_on_c, 3, 71, 90
5, 42360, Note_on_c, 3, 71, 0
5, 42360, Note_on_c, 3, 64, 91
5, 42480, Note_on_c, 3, 64, 0
5, 42480, Note_on_c, 3, 69, 92
5, 42960, Note_on_c, 3, 69, 0
5, 42960, Note_on_c, 3, 67, 93
5, 43320, Note_on_c, 3, 67, 0
5, 43320, Note_on_c, 3, 66, 94
5, 43380, Note_on_c, 3, 66, 0
5, 43380, Note_on_c, 3, 64, 95
5, 43440, Note_on_c, 3, 64, 0
5, 43440, Note_on_c, 3, 66, 95
5, 43560, Note_on_c, 3, 66, 0
5, 43560, Note_on_c, 3, 71, 95
5, 43680, Note_on_c, 3, 71, 0
5, 43680, Note_on_c, 3, 66, 96
5, 43920, Note_on_c, 3, 66, 0
5, 43920, Note_on_c, 3, 64, 96
5, 44160, Note_on_c, 3, 64, 0
5, 44160, Note_on_c, 3, 66, 97
5, 45120, Note_on_c, 3, 66, 0
5, 46080, End_track
6, 0, Start_track
6, 0, MIDI_port, 0
6, 0, Title_t, "Bassoon"
6, 0, Program_c, 4, 70
6, 1200, Note_on_c, 4, 50, 40
6, 1440, Note_on_c, 4, 50, 0
6, 1440, Note_on_c, 4, 52, 40
6, 1680, Note_on_c, 4, 52, 0
6, 1680, Note_on_c, 4, 54, 40
6, 1920, Note_on_c, 4, 54, 0
6, 1920, Note_on_c, 4, 55, 40
6, 2160, Note_on_c, 4, 55, 0
6, 2160, Note_on_c, 4, 54, 40
6, 2280, Note_on_c, 4, 54, 0
6, 2280, Note_on_c, 4, 52, 40
6, 2400, Note_on_c, 4, 52, 0
6, 2400, Note_on_c, 4, 54, 40
6, 2520, Note_on_c, 4, 54, 0
6, 2520, Note_on_c, 4, 50, 40
6, 2640, Note_on_c, 4, 50, 0
6, 2640, Note_on_c, 4, 55, 40
6, 3120, Note_on_c, 4, 55, 0
6, 3120, Note_on_c, 4, 54, 40
6, 3360, Note_on_c, 4, 54, 0
6, 3360, Note_on_c, 4, 52, 40
6, 3840, Note_on_c, 4, 52, 0
6, 3840, Note_on_c, 4, 50, 40
6, 4320, Note_on_c, 4, 50, 0
6, 5040, Note_on_c, 4, 57, 66
6, 5400, Note_on_c, 4, 57, 0
6, 5400, Note_on_c, 4, 57, 40
6, 5520, Note_on_c, 4, 57, 0
6, 5520, Note_on_c, 4, 56, 40
6, 5640, Note_on_c, 4, 56, 0
6, 5640, Note_on_c, 4, 56, 40
6, 5760, Note_on_c, 4, 56, 0
6, 5760, Note_on_c, 4, 57, 40
6, 5880, Note_on_c, 4, 57, 0
6, 5880, Note_on_c, 4, 55, 40
6, 5940, Note_on_c, 4, 55, 0
6, 5940, Note_on_c, 4, 54, 40
6, 6000, Note_on_c, 4, 54, 0
6, 6000, Note_on_c, 4, 52, 40
6, 6060, Note_on_c, 4, 52, 0
6, 6060, Note_on_c, 4, 54, 40
6, 6120, Note_on_c, 4, 54, 0
6, 6120, Note_on_c, 4, 50, 40
6, 6180, Note_on_c, 4, 50, 0
6, 6180, Note_on_c, 4, 52, 40
6, 6240, Note_on_c, 4, 52, 0
6, 6240, Note_on_c, 4, 54, 40
6, 6300, Note_on_c, 4, 54, 0
6, 6300, Note_on_c, 4, 52, 40
6, 6360, Note_on_c, 4, 52, 0
6, 6360, Note_on_c, 4, 54, 40
6, 6420, Note_on_c, 4, 54, 0
6, 6420, Note_on_c, 4, 55, 40
6, 6480, Note_on_c, 4, 55, 0
6, 6480, Note_on_c, 4, 54, 40
6, 6540, Note_on_c, 4, 54, 0
6, 6540, Note_on_c, 4, 55, 40
6, 6600, Note_on_c, 4, 55, 0
6, 6600, Note_on_c, 4, 54, 40
6, 6660, Note_on_c, 4, 54, 0
6, 6660, Note_on_c, 4, 52, 40
6, 6720, Note_on_c, 4, 52, 0
6, 6720, Note_on_c, 4, 50, 40
6, 6840, Note_on_c, 4, 50, 0
6, 6840, Note_on_c, 4, 49, 40
6, 6900, Note_on_c, 4, 49, 0
6, 6900, Note_on_c, 4, 47, 40
6, 6960, Note_on_c, 4, 47, 0
6, 6960, Note_on_c, 4, 52, 47
6, 7200, Note_on_c, 4, 52, 0
6, 7200, Note_on_c, 4, 45, 40
6, 7680, Note_on_c, 4, 45, 0
6, 8400, Note_on_c, 4, 50, 55
6, 8640, Note_on_c, 4, 50, 0
6, 8640, Note_on_c, 4, 52, 57
6, 8880, Note_on_c, 4, 52, 0
6, 8880, Note_on_c, 4, 54, 59
6, 9120, Note_on_c, 4, 54, 0
6, 9120, Note_on_c, 4, 55, 61
6, 9360, Note_on_c, 4, 55, 0
6, 9360, Note_on_c, 4, 54, 62
6, 9480, Note_on_c, 4, 54, 0
6, 9480, Note_on_c, 4, 52, 63
6, 9600, Note_on_c, 4, 52, 0
6, 9600, Note_on_c, 4, 54, 64
6, 9720, Note_on_c, 4, 54, 0
6, 9720, Note_on_c, 4, 47, 65
6, 9840, Note_on_c, 4, 47, 0
6, 9840, Note_on_c, 4, 59, 65
6, 10200, Note_on_c, 4, 59, 0
6, 10200, Note_on_c, 4, 57, 67
6, 10440, Note_on_c, 4, 57, 0
6, 10440, Note_on_c, 4, 62, 69
6, 10560, Note_on_c, 4, 62, 0
6, 10560, Note_on_c, 4, 55, 70
6, 10680, Note_on_c, 4, 55, 0
6, 10680, Note_on_c, 4, 59, 70
6, 10800, Note_on_c, 4, 59, 0
6, 10800, Note_on_c, 4, 57, 71
6, 10920, Note_on_c, 4, 57, 0
6, 10920, Note_on_c, 4, 55, 72
6, 11040, Note_on_c, 4, 55, 0
6, 11040, Note_on_c, 4, 54, 72
6, 11520, Note_on_c, 4, 54, 0
6, 12720, Note_on_c, 4, 59, 100
6, 13080, Note_on_c, 4, 59, 0
6, 13080, Note_on_c, 4, 59, 74
6, 13200, Note_on_c, 4, 59, 0
6, 13200, Note_on_c, 4, 58, 74
6, 13320, Note_on_c, 4, 58, 0
6, 13320, Note_on_c, 4, 58, 74
6, 13440, Note_on_c, 4, 58, 0
6, 13440, Note_on_c, 4, 59, 74
6, 13500, Note_on_c, 4, 59, 0
6, 13500, Note_on_c, 4, 61, 74
6, 13560, Note_on_c, 4, 61, 0
6, 13560, Note_on_c, 4, 57, 74
6, 13620, Note_on_c, 4, 57, 0
6, 13620, Note_on_c, 4, 59, 75
6, 13680, Note_on_c, 4, 59, 0
6, 13680, Note_on_c, 4, 61, 75
6, 13740, Note_on_c, 4, 61, 0
6, 13740, Note_on_c, 4, 62, 75
6, 13800, Note_on_c, 4, 62, 0
6, 13800, Note_on_c, 4, 59, 75
6, 13860, Note_on_c, 4, 59, 0
6, 13860, Note_on_c, 4, 61, 76
6, 13920, Note_on_c, 4, 61, 0
6, 13920, Note_on_c, 4, 62, 76
6, 13980, Note_on_c, 4, 62, 0
6, 13980, Note_on_c, 4, 61, 76
6, 14040, Note_on_c, 4, 61, 0
6, 14040, Note_on_c, 4, 62, 76
6, 14100, Note_on_c, 4, 62, 0
6, 14100, Note_on_c, 4, 64, 77
6, 14160, Note_on_c, 4, 64, 0
6, 14160, Note_on_c, 4, 62, 77
6, 14220, Note_on_c, 4, 62, 0
6, 14220, Note_on_c, 4, 64, 77
6, 14280, Note_on_c, 4, 64, 0
6, 14280, Note_on_c, 4, 62, 77
6, 14340, Note_on_c, 4, 62, 0
6, 14340, Note_on_c, 4, 61, 77
6, 14400, Note_on_c, 4, 61, 0
6, 14400, Note_on_c, 4, 59, 78
6, 15000, Note_on_c, 4, 59, 0
6, 15000, Note_on_c, 4, 61, 80
6, 15120, Note_on_c, 4, 61, 0
6, 15120, Note_on_c, 4, 62, 80
6, 15360, Note_on_c, 4, 62, 0
6, 15360, Note_on_c, 4, 57, 81
6, 15600, Note_on_c, 4, 57, 0
6, 15600, Note_on_c, 4, 55, 82
6, 15720, Note_on_c, 4, 55, 0
6, 15720, Note_on_c, 4, 54, 83
6, 15840, Note_on_c, 4, 54, 0
6, 15840, Note_on_c, 4, 52, 83
6, 16080, Note_on_c, 4, 52, 0
6, 16080, Note_on_c, 4, 57, 84
6, 16320, Note_on_c, 4, 57, 0
6, 16320, Note_on_c, 4, 50, 85
6, 16560, Note_on_c, 4, 50, 0
6, 16560, Note_on_c, 4, 52, 85
6, 16800, Note_on_c, 4, 52, 0
6, 16800, Note_on_c, 4, 45, 85
6, 17520, Note_on_c, 4, 45, 0
6, 17520, Note_on_c, 4, 46, 76
6, 17760, Note_on_c, 4, 46, 0
6, 17760, Note_on_c, 4, 47, 72
6, 18000, Note_on_c, 4, 47, 0
6, 18000, Note_on_c, 4, 49, 68
6, 18240, Note_on_c, 4, 49, 0
6, 18240, Note_on_c, 4, 50, 64
6, 18480, Note_on_c, 4, 50, 0
6, 18480, Note_on_c, 4, 48, 62
6, 18720, Note_on_c, 4, 48, 0
6, 18720, Note_on_c, 4, 47, 59
6, 18960, Note_on_c, 4, 47, 0
6, 18960, Note_on_c, 4, 52, 57
6, 19200, Note_on_c, 4, 52, 0
6, 19200, Note_on_c, 4, 45, 55
6, 19440, Note_on_c, 4, 45, 0
6, 19440, Note_on_c, 4, 47, 54
6, 19680, Note_on_c, 4, 47, 0
6, 19680, Note_on_c, 4, 40, 50
6, 19920, Note_on_c, 4, 40, 0
6, 21840, Note_on_c, 4, 50, 90
6, 22200, Note_on_c, 4, 50, 0
6, 22200, Note_on_c, 4, 50, 64
6, 22320, Note_on_c, 4, 50, 0
6, 22320, Note_on_c, 4, 49, 64
6, 22440, Note_on_c, 4, 49, 0
6, 22440, Note_on_c, 4, 49, 64
6, 22560, Note_on_c, 4, 49, 0
6, 22560, Note_on_c, 4, 50, 64
6, 22680, Note_on_c, 4, 50, 0
6, 22680, Note_on_c, 4, 49, 64
6, 22740, Note_on_c, 4, 49, 0
6, 22740, Note_on_c, 4, 47, 64
6, 22800, Note_on_c, 4, 47, 0
6, 22800, Note_on_c, 4, 45, 64
6, 22860, Note_on_c, 4, 45, 0
6, 22860, Note_on_c, 4, 47, 64
6, 22920, Note_on_c, 4, 47, 0
6, 22920, Note_on_c, 4, 44, 64
6, 22980, Note_on_c, 4, 44, 0
6, 22980, Note_on_c, 4, 45, 64
6, 23040, Note_on_c, 4, 45, 0
6, 23040, Note_on_c, 4, 47, 64
6, 23100, Note_on_c, 4, 47, 0
6, 23100, Note_on_c, 4, 45, 64
6, 23160, Note_on_c, 4, 45, 0
6, 23160, Note_on_c, 4, 47, 64
6, 23220, Note_on_c, 4, 47, 0
6, 23220, Note_on_c, 4, 49, 64
6, 23280, Note_on_c, 4, 49, 0
6, 23280, Note_on_c, 4, 47, 64
6, 23340, Note_on_c, 4, 47, 0
6, 23340, Note_on_c, 4, 50, 64
6, 23400, Note_on_c, 4, 50, 0
6, 23400, Note_on_c, 4, 49, 64
6, 23460, Note_on_c, 4, 49, 0
6, 23460, Note_on_c, 4, 47, 64
6, 23520, Note_on_c, 4, 47, 0
6, 23520, Note_on_c, 4, 45, 64
6, 23640, Note_on_c, 4, 45, 0
6, 23640, Note_on_c, 4, 47, 64
6, 23760, Note_on_c, 4, 47, 0
6, 23760, Note_on_c, 4, 49, 64
6, 24000, Note_on_c, 4, 49, 0
6, 24000, Note_on_c, 4, 42, 64
6, 24120, Note_on_c, 4, 42, 0
6, 24240, Note_on_c, 4, 59, 64
6, 24600, Note_on_c, 4, 59, 0
6, 24600, Note_on_c, 4, 57, 64
6, 24720, Note_on_c, 4, 57, 0
6, 24720, Note_on_c, 4, 55, 64
6, 24840, Note_on_c, 4, 55, 0
6, 24840, Note_on_c, 4, 54, 64
6, 24960, Note_on_c, 4, 54, 0
6, 24960, Note_on_c, 4, 52, 64
6, 25200, Note_on_c, 4, 52, 0
6, 25200, Note_on_c, 4, 57, 64
6, 25440, Note_on_c, 4, 57, 0
6, 25440, Note_on_c, 4, 50, 64
6, 25680, Note_on_c, 4, 50, 0
6, 27360, Note_on_c, 4, 50, 64
6, 27840, Note_on_c, 4, 50, 0
6, 27840, Note_on_c, 4, 52, 64
6, 28080, Note_on_c, 4, 52, 0
6, 28080, Note_on_c, 4, 54, 64
6, 28320, Note_on_c, 4, 54, 0
6, 28320, Note_on_c, 4, 55, 64
6, 28560, Note_on_c, 4, 55, 0
6, 28560, Note_on_c, 4, 54, 64
6, 28680, Note_on_c, 4, 54, 0
6, 28680, Note_on_c, 4, 52, 64
6, 28800, Note_on_c, 4, 52, 0
6, 28800, Note_on_c, 4, 54, 64
6, 28920, Note_on_c, 4, 54, 0
6, 28920, Note_on_c, 4, 50, 65
6, 29040, Note_on_c, 4, 50, 0
6, 29040, Note_on_c, 4, 55, 65
6, 29520, Note_on_c, 4, 55, 0
6, 29520, Note_on_c, 4, 54, 68
6, 29760, Note_on_c, 4, 54, 0
6, 29760, Note_on_c, 4, 52, 70
6, 30000, Note_on_c, 4, 52, 0
6, 30000, Note_on_c, 4, 57, 71
6, 30240, Note_on_c, 4, 57, 0
6, 30240, Note_on_c, 4, 50, 72
6, 30360, Note_on_c, 4, 50, 0
6, 30360, Note_on_c, 4, 54, 64
6, 30480, Note_on_c, 4, 54, 0
6, 30480, Note_on_c, 4, 59, 74
6, 30840, Note_on_c, 4, 59, 0
6, 30840, Note_on_c, 4, 61, 75
6, 30960, Note_on_c, 4, 61, 0
6, 30960, Note_on_c, 4, 62, 76
6, 31020, Note_on_c, 4, 62, 0
6, 31020, Note_on_c, 4, 60, 76
6, 31080, Note_on_c, 4, 60, 0
6, 31080, Note_on_c, 4, 59, 76
6, 31140, Note_on_c, 4, 59, 0
6, 31140, Note_on_c, 4, 57, 76
6, 31200, Note_on_c, 4, 57, 0
6, 31200, Note_on_c, 4, 55, 76
6, 31320, Note_on_c, 4, 55, 0
6, 31320, Note_on_c, 4, 52, 77
6, 31440, Note_on_c, 4, 52, 0
6, 31440, Note_on_c, 4, 57, 77
6, 31680, Note_on_c, 4, 57, 0
6, 31680, Note_on_c, 4, 50, 78
6, 32160, Note_on_c, 4, 50, 0
6, 34080, Note_on_c, 4, 45, 88
6, 34560, Note_on_c, 4, 45, 0
6, 34560, Note_on_c, 4, 47, 90
6, 34800, Note_on_c, 4, 47, 0
6, 34800, Note_on_c, 4, 49, 90
6, 35040, Note_on_c, 4, 49, 0
6, 35040, Note_on_c, 4, 50, 90
6, 35280, Note_on_c, 4, 50, 0
6, 35280, Note_on_c, 4, 49, 90
6, 35400, Note_on_c, 4, 49, 0
6, 35400, Note_on_c, 4, 47, 90
6, 35520, Note_on_c, 4, 47, 0
6, 35520, Note_on_c, 4, 49, 90
6, 35640, Note_on_c, 4, 49, 0
6, 35640, Note_on_c, 4, 45, 90
6, 35760, Note_on_c, 4, 45, 0
6, 35760, Note_on_c, 4, 50, 90
6, 36240, Note_on_c, 4, 50, 0
6, 36240, Note_on_c, 4, 49, 90
6, 36480, Note_on_c, 4, 49, 0
6, 36480, Note_on_c, 4, 47, 86
6, 36960, Note_on_c, 4, 47, 0
6, 36960, Note_on_c, 4, 45, 80
6, 37200, Note_on_c, 4, 45, 0
6, 37200, Note_on_c, 4, 57, 104
6, 37560, Note_on_c, 4, 57, 0
6, 37560, Note_on_c, 4, 57, 75
6, 37680, Note_on_c, 4, 57, 0
6, 37680, Note_on_c, 4, 56, 75
6, 37800, Note_on_c, 4, 56, 0
6, 37800, Note_on_c, 4, 56, 75
6, 37920, Note_on_c, 4, 56, 0
6, 37920, Note_on_c, 4, 57, 75
6, 37980, Note_on_c, 4, 57, 0
6, 37980, Note_on_c, 4, 59, 75
6, 38040, Note_on_c, 4, 59, 0
6, 38040, Note_on_c, 4, 57, 75
6, 38100, Note_on_c, 4, 57, 0
6, 38100, Note_on_c, 4, 55, 75
6, 38160, Note_on_c, 4, 55, 0
6, 38160, Note_on_c, 4, 54, 75
6, 38220, Note_on_c, 4, 54, 0
6, 38220, Note_on_c, 4, 55, 75
6, 38280, Note_on_c, 4, 55, 0
6, 38280, Note_on_c, 4, 52, 75
6, 38340, Note_on_c, 4, 52, 0
6, 38340, Note_on_c, 4, 54, 75
6, 38400, Note_on_c, 4, 54, 0
6, 38400, Note_on_c, 4, 56, 76
6, 38460, Note_on_c, 4, 56, 0
6, 38460, Note_on_c, 4, 57, 76
6, 38520, Note_on_c, 4, 57, 0
6, 38520, Note_on_c, 4, 54, 77
6, 38580, Note_on_c, 4, 54, 0
6, 38580, Note_on_c, 4, 56, 77
6, 38640, Note_on_c, 4, 56, 0
6, 38640, Note_on_c, 4, 58, 77
6, 38700, Note_on_c, 4, 58, 0
6, 38700, Note_on_c, 4, 59, 78
6, 38760, Note_on_c, 4, 59, 0
6, 38760, Note_on_c, 4, 56, 78
6, 38820, Note_on_c, 4, 56, 0
6, 38820, Note_on_c, 4, 58, 78
6, 38880, Note_on_c, 4, 58, 0
6, 38880, Note_on_c, 4, 59, 79
6, 39480, Note_on_c, 4, 59, 0
6, 39480, Note_on_c, 4, 57, 82
6, 39540, Note_on_c, 4, 57, 0
6, 39540, Note_on_c, 4, 55, 82
6, 39600, Note_on_c, 4, 55, 0
6, 39600, Note_on_c, 4, 57, 82
6, 39660, Note_on_c, 4, 57, 0
6, 39660, Note_on_c, 4, 59, 83
6, 39720, Note_on_c, 4, 59, 0
6, 39720, Note_on_c, 4, 61, 83
6, 39780, Note_on_c, 4, 61, 0
6, 39780, Note_on_c, 4, 57, 83
6, 39840, Note_on_c, 4, 57, 0
6, 39840, Note_on_c, 4, 62, 84
6, 39960, Note_on_c, 4, 62, 0
6, 39960, Note_on_c, 4, 57, 84
6, 40080, Note_on_c, 4, 57, 0
6, 40080, Note_on_c, 4, 62, 85
6, 40560, Note_on_c, 4, 62, 0
6, 40560, Note_on_c, 4, 60, 86
6, 40800, Note_on_c, 4, 60, 0
6, 40800, Note_on_c, 4, 59, 87
6, 41520, Note_on_c, 4, 59, 0
6, 41520, Note_on_c, 4, 57, 89
6, 41760, Note_on_c, 4, 57, 0
6, 41760, Note_on_c, 4, 56, 90
6, 42240, Note_on_c, 4, 56, 0
6, 42240, Note_on_c, 4, 57, 91
6, 42600, Note_on_c, 4, 57, 0
6, 42600, Note_on_c, 4, 50, 92
6, 42720, Note_on_c, 4, 50, 0
6, 42720, Note_on_c, 4, 55, 93
6, 42840, Note_on_c, 4, 55, 0
6, 42840, Note_on_c, 4, 54, 93
6, 42960, Note_on_c, 4, 54, 0
6, 42960, Note_on_c, 4, 55, 93
6, 43080, Note_on_c, 4, 55, 0
6, 43080, Note_on_c, 4, 52, 94
6, 43200, Note_on_c, 4, 52, 0
6, 43200, Note_on_c, 4, 54, 94
6, 43560, Note_on_c, 4, 54, 0
6, 43560, Note_on_c, 4, 55, 95
6, 43680, Note_on_c, 4, 55, 0
6, 43680, Note_on_c, 4, 57, 96
6, 43920, Note_on_c, 4, 57, 0
6, 43920, Note_on_c, 4, 45, 96
6, 44160, Note_on_c, 4, 45, 0
6, 44160, Note_on_c, 4, 38, 97
6, 45120, Note_on_c, 4, 38, 0
6, 46080, End_track
7, 0, Start_track
7, 0, MIDI_port, 0
7, 0, Title_t, "Violin I"
7, 0, Program_c, 5, 48
7, 3120, Note_on_c, 5, 69, 40
7, 3360, Note_on_c, 5, 69, 0
7, 3360, Note_on_c, 5, 71, 40
7, 3600, Note_on_c, 5, 71, 0
7, 3600, Note_on_c, 5, 73, 40
7, 3840, Note_on_c, 5, 73, 0
7, 3840, Note_on_c, 5, 74, 40
7, 4080, Note_on_c, 5, 74, 0
7, 4080, Note_on_c, 5, 73, 40
7, 4200, Note_on_c, 5, 73, 0
7, 4200, Note_on_c, 5, 71, 40
7, 4320, Note_on_c, 5, 71, 0
7, 4320, Note_on_c, 5, 73, 40
7, 4440, Note_on_c, 5, 73, 0
7, 4440, Note_on_c, 5, 69, 40
7, 4560, Note_on_c, 5, 69, 0
7, 4560, Note_on_c, 5, 74, 40
7, 5040, Note_on_c, 5, 74, 0
7, 5040, Note_on_c, 5, 73, 40
7, 5280, Note_on_c, 5, 73, 0
7, 5280, Note_on_c, 5, 71, 40
7, 5760, Note_on_c, 5, 71, 0
7, 5760, Note_on_c, 5, 69, 40
7, 6240, Note_on_c, 5, 69, 0
7, 6960, Note_on_c, 5, 74, 47
7, 7320, Note_on_c, 5, 74, 0
7, 7320, Note_on_c, 5, 74, 40
7, 7440, Note_on_c, 5, 74, 0
7, 7440, Note_on_c, 5, 73, 40
7, 7560, Note_on_c, 5, 73, 0
7, 7560, Note_on_c, 5, 73, 40
7, 7680, Note_on_c, 5, 73, 0
7, 7680, Note_on_c, 5, 74, 40
7, 7800, Note_on_c, 5, 74, 0
7, 7800, Note_on_c, 5, 73, 40
7, 7860, Note_on_c, 5, 73, 0
7, 7860, Note_on_c, 5, 71, 40
7, 7920, Note_on_c, 5, 71, 0
7, 7920, Note_on_c, 5, 69, 40
7, 7980, Note_on_c, 5, 69, 0
7, 7980, Note_on_c, 5, 71, 40
7, 8040, Note_on_c, 5, 71, 0
7, 8040, Note_on_c, 5, 67, 40
7, 8100, Note_on_c, 5, 67, 0
7, 8100, Note_on_c, 5, 69, 40
7, 8160, Note_on_c, 5, 69, 0
7, 8160, Note_on_c, 5, 71, 40
7, 8220, Note_on_c, 5, 71, 0
7, 8220, Note_on_c, 5, 69, 40
7, 8280, Note_on_c, 5, 69, 0
7, 8280, Note_on_c, 5, 71, 40
7, 8340, Note_on_c, 5, 71, 0
7, 8340, Note_on_c, 5, 72, 40
7, 8400, Note_on_c, 5, 72, 0
7, 8400, Note_on_c, 5, 71, 40
7, 8460, Note_on_c, 5, 71, 0
7, 8460, Note_on_c, 5, 72, 40
7, 8520, Note_on_c, 5, 72, 0
7, 8520, Note_on_c, 5, 71, 40
7, 8580, Note_on_c, 5, 71, 0
7, 8580, Note_on_c, 5, 69, 40
7, 8640, Note_on_c, 5, 69, 0
7, 8640, Note_on_c, 5, 67, 40
7, 8760, Note_on_c, 5, 67, 0
7, 8760, Note_on_c, 5, 66, 40
7, 8820, Note_on_c, 5, 66, 0
7, 8820, Note_on_c, 5, 64, 40
7, 8880, Note_on_c, 5, 64, 0
7, 8880, Note_on_c, 5, 69, 40
7, 9120, Note_on_c, 5, 69, 0
7, 9120, Note_on_c, 5, 62, 40
7, 9360, Note_on_c, 5, 62, 0
7, 10320, Note_on_c, 5, 69, 68
7, 10560, Note_on_c, 5, 69, 0
7, 10560, Note_on_c, 5, 71, 70
7, 10800, Note_on_c, 5, 71, 0
7, 10800, Note_on_c, 5, 73, 71
7, 11040, Note_on_c, 5, 73, 0
7, 11040, Note_on_c, 5, 74, 72
7, 11280, Note_on_c, 5, 74, 0
7, 11280, Note_on_c, 5, 73, 74
7, 11400, Note_on_c, 5, 73, 0
7, 11400, Note_on_c, 5, 71, 74
7, 11520, Note_on_c, 5, 71, 0
7, 11520, Note_on_c, 5, 73, 74
7, 11640, Note_on_c, 5, 73, 0
7, 11640, Note_on_c, 5, 66, 74
7, 11760, Note_on_c, 5, 66, 0
7, 11760, Note_on_c, 5, 78, 74
7, 12120, Note_on_c, 5, 78, 0
7, 12120, Note_on_c, 5, 71, 74
7, 12240, Note_on_c, 5, 71, 0
7, 12240, Note_on_c, 5, 76, 74
7, 12600, Note_on_c, 5, 76, 0
7, 12600, Note_on_c, 5, 74, 74
7, 12840, Note_on_c, 5, 74, 0
7, 12840, Note_on_c, 5, 79, 74
7, 12960, Note_on_c, 5, 79, 0
7, 12960, Note_on_c, 5, 73, 74
7, 13080, Note_on_c, 5, 73, 0
7, 13080, Note_on_c, 5, 76, 74
7, 13200, Note_on_c, 5, 76, 0
7, 13200, Note_on_c, 5, 74, 74
7, 13320, Note_on_c, 5, 74, 0
7, 13320, Note_on_c, 5, 73, 74
7, 13440, Note_on_c, 5, 73, 0
7, 13440, Note_on_c, 5, 71, 74
7, 13920, Note_on_c, 5, 71, 0
7, 14880, Note_on_c, 5, 74, 80
7, 15360, Note_on_c, 5, 74, 0
7, 15360, Note_on_c, 5, 76, 81
7, 15600, Note_on_c, 5, 76, 0
7, 15600, Note_on_c, 5, 78, 82
7, 15840, Note_on_c, 5, 78, 0
7, 15840, Note_on_c, 5, 79, 83
7, 16080, Note_on_c, 5, 79, 0
7, 16080, Note_on_c, 5, 78, 84
7, 16200, Note_on_c, 5, 78, 0
7, 16200, Note_on_c, 5, 76, 85
7, 16320, Note_on_c, 5, 76, 0
7, 16320, Note_on_c, 5, 78, 85
7, 16440, Note_on_c, 5, 78, 0
7, 16440, Note_on_c, 5, 74, 85
7, 16560, Note_on_c, 5, 74, 0
7, 16560, Note_on_c, 5, 79, 85
7, 17040, Note_on_c, 5, 79, 0
7, 17040, Note_on_c, 5, 78, 85
7, 17280, Note_on_c, 5, 78, 0
7, 17280, Note_on_c, 5, 76, 80
7, 17760, Note_on_c, 5, 76, 0
7, 17760, Note_on_c, 5, 74, 72
7, 18240, Note_on_c, 5, 74, 0
7, 18960, Note_on_c, 5, 76, 90
7, 19320, Note_on_c, 5, 76, 0
7, 19320, Note_on_c, 5, 76, 64
7, 19440, Note_on_c, 5, 76, 0
7, 19440, Note_on_c, 5, 75, 64
7, 19560, Note_on_c, 5, 75, 0
7, 19560, Note_on_c, 5, 75, 64
7, 19680, Note_on_c, 5, 75, 0
7, 19680, Note_on_c, 5, 76, 64
7, 19800, Note_on_c, 5, 76, 0
7, 19800, Note_on_c, 5, 74, 64
7, 19860, Note_on_c, 5, 74, 0
7, 19860, Note_on_c, 5, 72, 64
7, 19920, Note_on_c, 5, 72, 0
7, 19920, Note_on_c, 5, 71, 64
7, 19980, Note_on_c, 5, 71, 0
7, 19980, Note_on_c, 5, 72, 64
7, 20040, Note_on_c, 5, 72, 0
7, 20040, Note_on_c, 5, 69, 64
7, 20100, Note_on_c, 5, 69, 0
7, 20100, Note_on_c, 5, 71, 64
7, 20160, Note_on_c, 5, 71, 0
7, 20160, Note_on_c, 5, 72, 64
7, 20220, Note_on_c, 5, 72, 0
7, 20220, Note_on_c, 5, 71, 64
7, 20280, Note_on_c, 5, 71, 0
7, 20280, Note_on_c, 5, 72, 64
7, 20340, Note_on_c, 5, 72, 0
7, 20340, Note_on_c, 5, 74, 64
7, 20400, Note_on_c, 5, 74, 0
7, 20400, Note_on_c, 5, 72, 64
7, 20460, Note_on_c, 5, 72, 0
7, 20460, Note_on_c, 5, 76, 64
7, 20520, Note_on_c, 5, 76, 0
7, 20520, Note_on_c, 5, 74, 64
7, 20580, Note_on_c, 5, 74, 0
7, 20580, Note_on_c, 5, 72, 64
7, 20640, Note_on_c, 5, 72, 0
7, 20640, Note_on_c, 5, 71, 64
7, 20760, Note_on_c, 5, 71, 0
7, 20760, Note_on_c, 5, 73, 64
7, 20880, Note_on_c, 5, 73, 0
7, 20880, Note_on_c, 5, 74, 64
7, 21120, Note_on_c, 5, 74, 0
7, 21120, Note_on_c, 5, 67, 64
7, 21240, Note_on_c, 5, 67, 0
7, 21240, Note_on_c, 5, 64, 64
7, 21360, Note_on_c, 5, 64, 0
7, 21360, Note_on_c, 5, 73, 90
7, 21840, Note_on_c, 5, 73, 0
7, 21840, Note_on_c, 5, 71, 64
7, 22080, Note_on_c, 5, 71, 0
7, 22080, Note_on_c, 5, 76, 64
7, 22320, Note_on_c, 5, 76, 0
7, 22320, Note_on_c, 5, 69, 64
7, 22800, Note_on_c, 5, 69, 0
7, 22800, Note_on_c, 5, 78, 90
7, 23160, Note_on_c, 5, 78, 0
7, 23160, Note_on_c, 5, 78, 64
7, 23280, Note_on_c, 5, 78, 0
7, 23280, Note_on_c, 5, 77, 64
7, 23400, Note_on_c, 5, 77, 0
7, 23400, Note_on_c, 5, 77, 64
7, 23520, Note_on_c, 5, 77, 0
7, 23520, Note_on_c, 5, 78, 64
7, 23640, Note_on_c, 5, 78, 0
7, 23640, Note_on_c, 5, 76, 64
7, 23700, Note_on_c, 5, 76, 0
7, 23700, Note_on_c, 5, 74, 64
7, 23760, Note_on_c, 5, 74, 0
7, 23760, Note_on_c, 5, 73, 64
7, 23820, Note_on_c, 5, 73, 0
7, 23820, Note_on_c, 5, 74, 64
7, 23880, Note_on_c, 5, 74, 0
7, 23880, Note_on_c, 5, 71, 64
7, 23940, Note_on_c, 5, 71, 0
7, 23940, Note_on_c, 5, 73, 64
7, 24000, Note_on_c, 5, 73, 0
7, 24000, Note_on_c, 5, 74, 64
7, 24060, Note_on_c, 5, 74, 0
7, 24060, Note_on_c, 5, 73, 64
7, 24120, Note_on_c, 5, 73, 0
7, 24120, Note_on_c, 5, 74, 64
7, 24180, Note_on_c, 5, 74, 0
7, 24180, Note_on_c, 5, 76, 64
7, 24240, Note_on_c, 5, 76, 0
7, 24240, Note_on_c, 5, 74, 64
7, 24300, Note_on_c, 5, 74, 0
7, 24300, Note_on_c, 5, 78, 64
7, 24360, Note_on_c, 5, 78, 0
7, 24360, Note_on_c, 5, 76, 64
7, 24420, Note_on_c, 5, 76, 0
7, 24420, Note_on_c, 5, 74, 64
7, 24480, Note_on_c, 5, 74, 0
7, 24480, Note_on_c, 5, 73, 64
7, 24720, Note_on_c, 5, 73, 0
7, 24720, Note_on_c, 5, 78, 64
7, 24960, Note_on_c, 5, 78, 0
7, 24960, Note_on_c, 5, 71, 64
7, 25200, Note_on_c, 5, 71, 0
7, 25680, Note_on_c, 5, 74, 64
7, 25920, Note_on_c, 5, 74, 0
7, 25920, Note_on_c, 5, 76, 64
7, 26160, Note_on_c, 5, 76, 0
7, 26160, Note_on_c, 5, 78, 64
7, 26400, Note_on_c, 5, 78, 0
7, 26400, Note_on_c, 5, 79, 64
7, 26640, Note_on_c, 5, 79, 0
7, 26640, Note_on_c, 5, 78, 64
7, 26760, Note_on_c, 5, 78, 0
7, 26760, Note_on_c, 5, 76, 64
7, 26880, Note_on_c, 5, 76, 0
7, 26880, Note_on_c, 5, 78, 64
7, 27000, Note_on_c, 5, 78, 0
7, 27000, Note_on_c, 5, 74, 64
7, 27120, Note_on_c, 5, 74, 0
7, 27120, Note_on_c, 5, 79, 64
7, 27600, Note_on_c, 5, 79, 0
7, 27600, Note_on_c, 5, 78, 64
7, 27840, Note_on_c, 5, 78, 0
7, 27840, Note_on_c, 5, 76, 64
7, 28080, Note_on_c, 5, 76, 0
7, 28080, Note_on_c, 5, 74, 64
7, 28440, Note_on_c, 5, 74, 0
7, 28440, Note_on_c, 5, 71, 64
7, 28680, Note_on_c, 5, 71, 0
7, 28680, Note_on_c, 5, 71, 64
7, 28800, Note_on_c, 5, 71, 0
7, 28800, Note_on_c, 5, 69, 64
7, 28920, Note_on_c, 5, 69, 0
7, 28920, Note_on_c, 5, 69, 65
7, 29040, Note_on_c, 5, 69, 0
7, 29040, Note_on_c, 5, 71, 65
7, 29280, Note_on_c, 5, 71, 0
7, 29280, Note_on_c, 5, 64, 67
7, 29400, Note_on_c, 5, 64, 0
7, 29520, Note_on_c, 5, 69, 68
7, 29760, Note_on_c, 5, 69, 0
7, 29760, Note_on_c, 5, 71, 70
7, 30000, Note_on_c, 5, 71, 0
7, 30000, Note_on_c, 5, 73, 71
7, 30240, Note_on_c, 5, 73, 0
7, 30240, Note_on_c, 5, 74, 72
7, 30480, Note_on_c, 5, 74, 0
7, 30480, Note_on_c, 5, 73, 74
7, 30600, Note_on_c, 5, 73, 0
7, 30600, Note_on_c, 5, 71, 74
7, 30720, Note_on_c, 5, 71, 0
7, 30720, Note_on_c, 5, 73, 75
7, 30840, Note_on_c, 5, 73, 0
7, 30840, Note_on_c, 5, 69, 75
7, 30960, Note_on_c, 5, 69, 0
7, 30960, Note_on_c, 5, 74, 76
7, 31440, Note_on_c, 5, 74, 0
7, 31440, Note_on_c, 5, 73, 77
7, 31680, Note_on_c, 5, 73, 0
7, 31680, Note_on_c, 5, 71, 78
7, 32160, Note_on_c, 5, 71, 0
7, 32160, Note_on_c, 5, 69, 79
7, 32640, Note_on_c, 5, 69, 0
7, 33600, Note_on_c, 5, 74, 85
7, 34080, Note_on_c, 5, 74, 0
7, 34080, Note_on_c, 5, 76, 88
7, 34320, Note_on_c, 5, 76, 0
7, 34320, Note_on_c, 5, 78, 89
7, 34560, Note_on_c, 5, 78, 0
7, 34560, Note_on_c, 5, 79, 90
7, 34800, Note_on_c, 5, 79, 0
7, 34800, Note_on_c, 5, 78, 90
7, 34920, Note_on_c, 5, 78, 0
7, 34920, Note_on_c, 5, 76, 90
7, 35040, Note_on_c, 5, 76, 0
7, 35040, Note_on_c, 5, 78, 90
7, 35160, Note_on_c, 5, 78, 0
7, 35160, Note_on_c, 5, 74, 90
7, 35280, Note_on_c, 5, 74, 0
7, 35280, Note_on_c, 5, 79, 90
7, 35760, Note_on_c, 5, 79, 0
7, 35760, Note_on_c, 5, 78, 90
7, 36000, Note_on_c, 5, 78, 0
7, 36000, Note_on_c, 5, 76, 90
7, 36480, Note_on_c, 5, 76, 0
7, 36480, Note_on_c, 5, 74, 86
7, 36720, Note_on_c, 5, 74, 0
7, 36720, Note_on_c, 5, 74, 109
7, 37080, Note_on_c, 5, 74, 0
7, 37080, Note_on_c, 5, 74, 79
7, 37200, Note_on_c, 5, 74, 0
7, 37200, Note_on_c, 5, 73, 78
7, 37320, Note_on_c, 5, 73, 0
7, 37320, Note_on_c, 5, 73, 76
7, 37440, Note_on_c, 5, 73, 0
7, 37440, Note_on_c, 5, 74, 75
7, 37500, Note_on_c, 5, 74, 0
7, 37500, Note_on_c, 5, 76, 75
7, 37560, Note_on_c, 5, 76, 0
7, 37560, Note_on_c, 5, 74, 75
7, 37620, Note_on_c, 5, 74, 0
7, 37620, Note_on_c, 5, 73, 75
7, 37680, Note_on_c, 5, 73, 0
7, 37680, Note_on_c, 5, 71, 75
7, 37740, Note_on_c, 5, 71, 0
7, 37740, Note_on_c, 5, 73, 75
7, 37800, Note_on_c, 5, 73, 0
7, 37800, Note_on_c, 5, 69, 75
7, 37860, Note_on_c, 5, 69, 0
7, 37860, Note_on_c, 5, 71, 75
7, 37920, Note_on_c, 5, 71, 0
7, 37920, Note_on_c, 5, 73, 75
7, 37980, Note_on_c, 5, 73, 0
7, 37980, Note_on_c, 5, 74, 75
7, 38040, Note_on_c, 5, 74, 0
7, 38040, Note_on_c, 5, 71, 75
7, 38100, Note_on_c, 5, 71, 0
7, 38100, Note_on_c, 5, 73, 75
7, 38160, Note_on_c, 5, 73, 0
7, 38160, Note_on_c, 5, 75, 75
7, 38220, Note_on_c, 5, 75, 0
7, 38220, Note_on_c, 5, 76, 75
7, 38280, Note_on_c, 5, 76, 0
7, 38280, Note_on_c, 5, 73, 75
7, 38340, Note_on_c, 5, 73, 0
7, 38340, Note_on_c, 5, 75, 75
7, 38400, Note_on_c, 5, 75, 0
7, 38400, Note_on_c, 5, 76, 76
7, 39000, Note_on_c, 5, 76, 0
7, 39000, Note_on_c, 5, 74, 79
7, 39060, Note_on_c, 5, 74, 0
7, 39060, Note_on_c, 5, 73, 79
7, 39120, Note_on_c, 5, 73, 0
7, 39120, Note_on_c, 5, 74, 80
7, 39180, Note_on_c, 5, 74, 0
7, 39180, Note_on_c, 5, 76, 80
7, 39240, Note_on_c, 5, 76, 0
7, 39240, Note_on_c, 5, 78, 80
7, 39300, Note_on_c, 5, 78, 0
7, 39300, Note_on_c, 5, 74, 81
7, 39360, Note_on_c, 5, 74, 0
7, 39360, Note_on_c, 5, 79, 81
7, 40080, Note_on_c, 5, 79, 0
7, 40080, Note_on_c, 5, 78, 85
7, 40320, Note_on_c, 5, 78, 0
7, 40320, Note_on_c, 5, 76, 85
7, 41280, Note_on_c, 5, 76, 0
7, 41280, Note_on_c, 5, 74, 88
7, 41520, Note_on_c, 5, 74, 0
7, 41640, Note_on_c, 5, 74, 89
7, 41760, Note_on_c, 5, 74, 0
7, 41760, Note_on_c, 5, 76, 90
7, 42060, Note_on_c, 5, 76, 0
7, 42060, Note_on_c, 5, 78, 90
7, 42120, Note_on_c, 5, 78, 0
7, 42120, Note_on_c, 5, 76, 91
7, 42180, Note_on_c, 5, 76, 0
7, 42180, Note_on_c, 5, 74, 91
7, 42240, Note_on_c, 5, 74, 0
7, 42240, Note_on_c, 5, 73, 91
7, 42360, Note_on_c, 5, 73, 0
7, 42360, Note_on_c, 5, 69, 91
7, 42480, Note_on_c, 5, 69, 0
7, 42480, Note_on_c, 5, 78, 92
7, 42960, Note_on_c, 5, 78, 0
7, 42960, Note_on_c, 5, 76, 93
7, 43320, Note_on_c, 5, 76, 0
7, 43320, Note_on_c, 5, 69, 94
7, 43440, Note_on_c, 5, 69, 0
7, 43440, Note_on_c, 5, 74, 95
7, 43800, Note_on_c, 5, 74, 0
7, 43800, Note_on_c, 5, 73, 96
7, 43860, Note_on_c, 5, 73, 0
7, 43860, Note_on_c, 5, 71, 96
7, 43920, Note_on_c, 5, 71, 0
7, 43920, Note_on_c, 5, 73, 96
7, 44160, Note_on_c, 5, 73, 0
7, 44160, Note_on_c, 5, 74, 97
7, 45120, Note_on_c, 5, 74, 0
7, 46080, End_track
8, 0, Start_track
8, 0, MIDI_port, 0
8, 0, Title_t, "Violin II"
8, 0, Program_c, 6, 48
8, 2640, Note_on_c, 6, 62, 40
8, 2880, Note_on_c, 6, 62, 0
8, 2880, Note_on_c, 6, 64, 40
8, 3120, Note_on_c, 6, 64, 0
8, 3120, Note_on_c, 6, 66, 40
8, 3360, Note_on_c, 6, 66, 0
8, 3360, Note_on_c, 6, 67, 40
8, 3600, Note_on_c, 6, 67, 0
8, 3600, Note_on_c, 6, 66, 40
8, 3720, Note_on_c, 6, 66, 0
8, 3720, Note_on_c, 6, 64, 40
8, 3840, Note_on_c, 6, 64, 0
8, 3840, Note_on_c, 6, 66, 40
8, 3960, Note_on_c, 6, 66, 0
8, 3960, Note_on_c, 6, 62, 40
8, 4080, Note_on_c, 6, 62, 0
8, 4080, Note_on_c, 6, 67, 40
8, 4560, Note_on_c, 6, 67, 0
8, 4560, Note_on_c, 6, 66, 40
8, 4800, Note_on_c, 6, 66, 0
8, 4800, Note_on_c, 6, 64, 40
8, 5280, Note_on_c, 6, 64, 0
8, 5280, Note_on_c, 6, 62, 40
8, 5760, Note_on_c, 6, 62, 0
8, 6480, Note_on_c, 6, 69, 66
8, 6840, Note_on_c, 6, 69, 0
8, 6840, Note_on_c, 6, 69, 40
8, 6960, Note_on_c, 6, 69, 0
8, 6960, Note_on_c, 6, 68, 47
8, 7080, Note_on_c, 6, 68, 0
8, 7080, Note_on_c, 6, 68, 40
8, 7200, Note_on_c, 6, 68, 0
8, 7200, Note_on_c, 6, 69, 40
8, 7320, Note_on_c, 6, 69, 0
8, 7320, Note_on_c, 6, 67, 40
8, 7380, Note_on_c, 6, 67, 0
8, 7380, Note_on_c, 6, 66, 40
8, 7440, Note_on_c, 6, 66, 0
8, 7440, Note_on_c, 6, 64, 40
8, 7500, Note_on_c, 6, 64, 0
8, 7500, Note_on_c, 6, 66, 40
8, 7560, Note_on_c, 6, 66, 0
8, 7560, Note_on_c, 6, 62, 40
8, 7620, Note_on_c, 6, 62, 0
8, 7620, Note_on_c, 6, 64, 40
8, 7680, Note_on_c, 6, 64, 0
8, 7680, Note_on_c, 6, 66, 40
8, 7740, Note_on_c, 6, 66, 0
8, 7740, Note_on_c, 6, 64, 40
8, 7800, Note_on_c, 6, 64, 0
8, 7800, Note_on_c, 6, 66, 40
8, 7860, Note_on_c, 6, 66, 0
8, 7860, Note_on_c, 6, 67, 40
8, 7920, Note_on_c, 6, 67, 0
8, 7920, Note_on_c, 6, 66, 40
8, 7980, Note_on_c, 6, 66, 0
8, 7980, Note_on_c, 6, 67, 40
8, 8040, Note_on_c, 6, 67, 0
8, 8040, Note_on_c, 6, 66, 40
8, 8100, Note_on_c, 6, 66, 0
8, 8100, Note_on_c, 6, 64, 40
8, 8160, Note_on_c, 6, 64, 0
8, 8160, Note_on_c, 6, 62, 40
8, 8280, Note_on_c, 6, 62, 0
8, 8280, Note_on_c, 6, 61, 40
8, 8340, Note_on_c, 6, 61, 0
8, 8340, Note_on_c, 6, 59, 40
8, 8400, Note_on_c, 6, 59, 0
8, 8400, Note_on_c, 6, 66, 40
8, 8640, Note_on_c, 6, 66, 0
8, 8640, Note_on_c, 6, 59, 40
8, 8880, Note_on_c, 6, 59, 0
8, 9840, Note_on_c, 6, 62, 65
8, 10080, Note_on_c, 6, 62, 0
8, 10080, Note_on_c, 6, 64, 67
8, 10320, Note_on_c, 6, 64, 0
8, 10320, Note_on_c, 6, 66, 68
8, 10560, Note_on_c, 6, 66, 0
8, 10560, Note_on_c, 6, 67, 70
8, 10800, Note_on_c, 6, 67, 0
8, 10800, Note_on_c, 6, 66, 71
8, 10920, Note_on_c, 6, 66, 0
8, 10920, Note_on_c, 6, 64, 72
8, 11040, Note_on_c, 6, 64, 0
8, 11040, Note_on_c, 6, 66, 72
8, 11160, Note_on_c, 6, 66, 0
8, 11160, Note_on_c, 6, 59, 73
8, 11280, Note_on_c, 6, 59, 0
8, 11280, Note_on_c, 6, 71, 74
8, 11640, Note_on_c, 6, 71, 0
8, 11640, Note_on_c, 6, 69, 74
8, 11880, Note_on_c, 6, 69, 0
8, 11880, Note_on_c, 6, 74, 74
8, 12000, Note_on_c, 6, 74, 0
8, 12000, Note_on_c, 6, 67, 74
8, 12120, Note_on_c, 6, 67, 0
8, 12120, Note_on_c, 6, 71, 74
8, 12240, Note_on_c, 6, 71, 0
8, 12240, Note_on_c, 6, 69, 74
8, 12360, Note_on_c, 6, 69, 0
8, 12360, Note_on_c, 6, 67, 74
8, 12480, Note_on_c, 6, 67, 0
8, 12480, Note_on_c, 6, 66, 74
8, 12960, Note_on_c, 6, 66, 0
8, 13920, Note_on_c, 6, 69, 76
8, 14400, Note_on_c, 6, 69, 0
8, 14400, Note_on_c, 6, 71, 78
8, 14640, Note_on_c, 6, 71, 0
8, 14640, Note_on_c, 6, 73, 79
8, 14880, Note_on_c, 6, 73, 0
8, 14880, Note_on_c, 6, 74, 80
8, 15120, Note_on_c, 6, 74, 0
8, 15120, Note_on_c, 6, 73, 80
8, 15240, Note_on_c, 6, 73, 0
8, 15240, Note_on_c, 6, 71, 81
8, 15360, Note_on_c, 6, 71, 0
8, 15360, Note_on_c, 6, 73, 81
8, 15480, Note_on_c, 6, 73, 0
8, 15480, Note_on_c, 6, 69, 82
8, 15600, Note_on_c, 6, 69, 0
8, 15600, Note_on_c, 6, 74, 82
8, 16080, Note_on_c, 6, 74, 0
8, 16080, Note_on_c, 6, 73, 84
8, 16320, Note_on_c, 6, 73, 0
8, 16320, Note_on_c, 6, 71, 85
8, 16800, Note_on_c, 6, 71, 0
8, 16800, Note_on_c, 6, 69, 85
8, 17040, Note_on_c, 6, 69, 0
8, 17040, Note_on_c, 6, 62, 85
8, 17280, Note_on_c, 6, 62, 0
8, 17280, Note_on_c, 6, 64, 80
8, 17520, Note_on_c, 6, 64, 0
8, 17520, Note_on_c, 6, 66, 76
8, 17760, Note_on_c, 6, 66, 0
8, 17760, Note_on_c, 6, 67, 72
8, 18000, Note_on_c, 6, 67, 0
8, 18000, Note_on_c, 6, 66, 68
8, 18120, Note_on_c, 6, 66, 0
8, 18120, Note_on_c, 6, 64, 66
8, 18240, Note_on_c, 6, 64, 0
8, 18240, Note_on_c, 6, 66, 64
8, 18360, Note_on_c, 6, 66, 0
8, 18360, Note_on_c, 6, 62, 63
8, 18480, Note_on_c, 6, 62, 0
8, 18480, Note_on_c, 6, 69, 62
8, 18960, Note_on_c, 6, 69, 0
8, 18960, Note_on_c, 6, 67, 57
8, 19200, Note_on_c, 6, 67, 0
8, 19200, Note_on_c, 6, 66, 55
8, 19680, Note_on_c, 6, 66, 0
8, 19680, Note_on_c, 6, 64, 52
8, 19920, Note_on_c, 6, 64, 0
8, 19920, Note_on_c, 6, 67, 90
8, 20280, Note_on_c, 6, 67, 0
8, 20280, Note_on_c, 6, 67, 64
8, 20400, Note_on_c, 6, 67, 0
8, 20400, Note_on_c, 6, 66, 64
8, 20520, Note_on_c, 6, 66, 0
8, 20520, Note_on_c, 6, 66, 64
8, 20640, Note_on_c, 6, 66, 0
8, 20640, Note_on_c, 6, 67, 64
8, 20760, Note_on_c, 6, 67, 0
8, 20760, Note_on_c, 6, 66, 64
8, 20820, Note_on_c, 6, 66, 0
8, 20820, Note_on_c, 6, 64, 64
8, 20880, Note_on_c, 6, 64, 0
8, 20880, Note_on_c, 6, 62, 64
8, 20940, Note_on_c, 6, 62, 0
8, 20940, Note_on_c, 6, 64, 64
8, 21000, Note_on_c, 6, 64, 0
8, 21000, Note_on_c, 6, 61, 64
8, 21060, Note_on_c, 6, 61, 0
8, 21060, Note_on_c, 6, 62, 64
8, 21120, Note_on_c, 6, 62, 0
8, 21120, Note_on_c, 6, 64, 64
8, 21180, Note_on_c, 6, 64, 0
8, 21180, Note_on_c, 6, 62, 64
8, 21240, Note_on_c, 6, 62, 0
8, 21240, Note_on_c, 6, 64, 64
8, 21300, Note_on_c, 6, 64, 0
8, 21300, Note_on_c, 6, 66, 64
8, 21360, Note_on_c, 6, 66, 0
8, 21360, Note_on_c, 6, 64, 64
8, 21420, Note_on_c, 6, 64, 0
8, 21420, Note_on_c, 6, 67, 64
8, 21480, Note_on_c, 6, 67, 0
8, 21480, Note_on_c, 6, 66, 64
8, 21540, Note_on_c, 6, 66, 0
8, 21540, Note_on_c, 6, 64, 64
8, 21600, Note_on_c, 6, 64, 0
8, 21600, Note_on_c, 6, 62, 64
8, 21720, Note_on_c, 6, 62, 0
8, 21720, Note_on_c, 6, 64, 64
8, 21840, Note_on_c, 6, 64, 0
8, 21840, Note_on_c, 6, 66, 64
8, 22080, Note_on_c, 6, 66, 0
8, 22080, Note_on_c, 6, 59, 64
8, 22200, Note_on_c, 6, 59, 0
8, 22200, Note_on_c, 6, 59, 64
8, 22320, Note_on_c, 6, 59, 0
8, 22320, Note_on_c, 6, 64, 64
8, 22680, Note_on_c, 6, 64, 0
8, 22680, Note_on_c, 6, 62, 64
8, 22800, Note_on_c, 6, 62, 0
8, 22800, Note_on_c, 6, 61, 64
8, 22920, Note_on_c, 6, 61, 0
8, 22920, Note_on_c, 6, 69, 64
8, 23040, Note_on_c, 6, 69, 0
8, 23040, Note_on_c, 6, 68, 64
8, 23280, Note_on_c, 6, 68, 0
8, 23280, Note_on_c, 6, 68, 64
8, 23520, Note_on_c, 6, 68, 0
8, 23520, Note_on_c, 6, 66, 64
8, 23760, Note_on_c, 6, 66, 0
8, 24240, Note_on_c, 6, 62, 64
8, 24480, Note_on_c, 6, 62, 0
8, 24480, Note_on_c, 6, 64, 64
8, 24720, Note_on_c, 6, 64, 0
8, 24720, Note_on_c, 6, 66, 64
8, 24960, Note_on_c, 6, 66, 0
8, 24960, Note_on_c, 6, 67, 64
8, 25200, Note_on_c, 6, 67, 0
8, 25200, Note_on_c, 6, 66, 64
8, 25320, Note_on_c, 6, 66, 0
8, 25320, Note_on_c, 6, 64, 64
8, 25440, Note_on_c, 6, 64, 0
8, 25440, Note_on_c, 6, 66, 64
8, 25560, Note_on_c, 6, 66, 0
8, 25560, Note_on_c, 6, 62, 64
8, 25680, Note_on_c, 6, 62, 0
8, 25680, Note_on_c, 6, 67, 64
8, 26160, Note_on_c, 6, 67, 0
8, 26160, Note_on_c, 6, 66, 64
8, 26400, Note_on_c, 6, 66, 0
8, 26400, Note_on_c, 6, 64, 64
8, 26880, Note_on_c, 6, 64, 0
8, 26880, Note_on_c, 6, 62, 64
8, 27120, Note_on_c, 6, 62, 0
8, 27480, Note_on_c, 6, 74, 90
8, 27720, Note_on_c, 6, 74, 0
8, 27720, Note_on_c, 6, 74, 64
8, 27840, Note_on_c, 6, 74, 0
8, 27840, Note_on_c, 6, 73, 64
8, 27960, Note_on_c, 6, 73, 0
8, 27960, Note_on_c, 6, 73, 64
8, 28080, Note_on_c, 6, 73, 0
8, 28080, Note_on_c, 6, 74, 64
8, 28140, Note_on_c, 6, 74, 0
8, 28140, Note_on_c, 6, 73, 64
8, 28200, Note_on_c, 6, 73, 0
8, 28200, Note_on_c, 6, 71, 64
8, 28260, Note_on_c, 6, 71, 0
8, 28260, Note_on_c, 6, 69, 64
8, 28320, Note_on_c, 6, 69, 0
8, 28320, Note_on_c, 6, 67, 64
8, 28440, Note_on_c, 6, 67, 0
8, 28440, Note_on_c, 6, 62, 64
8, 28560, Note_on_c, 6, 62, 0
8, 28560, Note_on_c, 6, 67, 64
8, 28920, Note_on_c, 6, 67, 0
8, 28920, Note_on_c, 6, 66, 65
8, 29040, Note_on_c, 6, 66, 0
8, 29040, Note_on_c, 6, 62, 65
8, 29280, Note_on_c, 6, 62, 0
8, 29280, Note_on_c, 6, 64, 67
8, 29520, Note_on_c, 6, 64, 0
8, 29520, Note_on_c, 6, 66, 68
8, 29760, Note_on_c, 6, 66, 0
8, 29760, Note_on_c, 6, 67, 70
8, 30000, Note_on_c, 6, 67, 0
8, 30000, Note_on_c, 6, 66, 71
8, 30120, Note_on_c, 6, 66, 0
8, 30120, Note_on_c, 6, 64, 72
8, 30240, Note_on_c, 6, 64, 0
8, 30240, Note_on_c, 6, 66, 72
8, 30360, Note_on_c, 6, 66, 0
8, 30360, Note_on_c, 6, 62, 73
8, 30480, Note_on_c, 6, 62, 0
8, 30480, Note_on_c, 6, 67, 74
8, 30960, Note_on_c, 6, 67, 0
8, 30960, Note_on_c, 6, 66, 76
8, 31200, Note_on_c, 6, 66, 0
8, 31200, Note_on_c, 6, 64, 76
8, 31680, Note_on_c, 6, 64, 0
8, 31680, Note_on_c, 6, 62, 78
8, 32160, Note_on_c, 6, 62, 0
8, 32400, Note_on_c, 6, 62, 79
8, 32640, Note_on_c, 6, 62, 0
8, 32640, Note_on_c, 6, 64, 80
8, 32880, Note_on_c, 6, 64, 0
8, 32880, Note_on_c, 6, 66, 81
8, 33120, Note_on_c, 6, 66, 0
8, 33120, Note_on_c, 6, 67, 83
8, 33360, Note_on_c, 6, 67, 0
8, 33360, Note_on_c, 6, 66, 84
8, 33480, Note_on_c, 6, 66, 0
8, 33480, Note_on_c, 6, 64, 84
8, 33600, Note_on_c, 6, 64, 0
8, 33600, Note_on_c, 6, 66, 85
8, 33720, Note_on_c, 6, 66, 0
8, 33720, Note_on_c, 6, 62, 86
8, 33840, Note_on_c, 6, 62, 0
8, 33840, Note_on_c, 6, 67, 86
8, 34320, Note_on_c, 6, 67, 0
8, 34320, Note_on_c, 6, 66, 89
8, 34680, Note_on_c, 6, 66, 0
8, 34680, Note_on_c, 6, 64, 90
8, 34740, Note_on_c, 6, 64, 0
8, 34740, Note_on_c, 6, 62, 90
8, 34800, Note_on_c, 6, 62, 0
8, 34800, Note_on_c, 6, 69, 90
8, 35160, Note_on_c, 6, 69, 0
8, 35160, Note_on_c, 6, 67, 90
8, 35220, Note_on_c, 6, 67, 0
8, 35220, Note_on_c, 6, 66, 90
8, 35280, Note_on_c, 6, 66, 0
8, 35280, Note_on_c, 6, 71, 90
8, 35520, Note_on_c, 6, 71, 0
8, 35520, Note_on_c, 6, 69, 90
8, 36000, Note_on_c, 6, 69, 0
8, 36000, Note_on_c, 6, 68, 90
8, 36240, Note_on_c, 6, 68, 0
8, 36240, Note_on_c, 6, 69, 116
8, 36600, Note_on_c, 6, 69, 0
8, 36600, Note_on_c, 6, 69, 85
8, 36720, Note_on_c, 6, 69, 0
8, 36720, Note_on_c, 6, 68, 83
8, 36840, Note_on_c, 6, 68, 0
8, 36840, Note_on_c, 6, 68, 82
8, 36960, Note_on_c, 6, 68, 0
8, 36960, Note_on_c, 6, 69, 80
8, 37020, Note_on_c, 6, 69, 0
8, 37020, Note_on_c, 6, 64, 80
8, 37080, Note_on_c, 6, 64, 0
8, 37080, Note_on_c, 6, 66, 79
8, 37140, Note_on_c, 6, 66, 0
8, 37140, Note_on_c, 6, 68, 78
8, 37200, Note_on_c, 6, 68, 0
8, 37200, Note_on_c, 6, 69, 78
8, 37260, Note_on_c, 6, 69, 0
8, 37260, Note_on_c, 6, 71, 77
8, 37320, Note_on_c, 6, 71, 0
8, 37320, Note_on_c, 6, 68, 76
8, 37380, Note_on_c, 6, 68, 0
8, 37380, Note_on_c, 6, 69, 76
8, 37440, Note_on_c, 6, 69, 0
8, 37440, Note_on_c, 6, 71, 75
8, 37560, Note_on_c, 6, 71, 0
8, 37560, Note_on_c, 6, 66, 75
8, 37680, Note_on_c, 6, 66, 0
8, 37680, Note_on_c, 6, 71, 75
8, 38040, Note_on_c, 6, 71, 0
8, 38040, Note_on_c, 6, 64, 75
8, 38160, Note_on_c, 6, 64, 0
8, 38160, Note_on_c, 6, 69, 75
8, 38220, Note_on_c, 6, 69, 0
8, 38220, Note_on_c, 6, 71, 75
8, 38280, Note_on_c, 6, 71, 0
8, 38280, Note_on_c, 6, 68, 75
8, 38340, Note_on_c, 6, 68, 0
8, 38340, Note_on_c, 6, 69, 75
8, 38400, Note_on_c, 6, 69, 0
8, 38400, Note_on_c, 6, 71, 76
8, 38460, Note_on_c, 6, 71, 0
8, 38460, Note_on_c, 6, 73, 80
8, 38520, Note_on_c, 6, 73, 0
8, 38520, Note_on_c, 6, 69, 80
8, 38580, Note_on_c, 6, 69, 0
8, 38580, Note_on_c, 6, 71, 80
8, 38640, Note_on_c, 6, 71, 0
8, 38640, Note_on_c, 6, 73, 77
8, 39000, Note_on_c, 6, 73, 0
8, 39000, Note_on_c, 6, 71, 79
8, 39060, Note_on_c, 6, 71, 0
8, 39060, Note_on_c, 6, 69, 80
8, 39120, Note_on_c, 6, 69, 0
8, 39120, Note_on_c, 6, 71, 80
8, 39240, Note_on_c, 6, 71, 0
8, 39240, Note_on_c, 6, 71, 80
8, 39360, Note_on_c, 6, 71, 0
8, 39360, Note_on_c, 6, 71, 81
8, 39600, Note_on_c, 6, 71, 0
8, 39600, Note_on_c, 6, 64, 82
8, 39840, Note_on_c, 6, 64, 0
8, 39840, Note_on_c, 6, 62, 84
8, 40080, Note_on_c, 6, 62, 0
8, 40080, Note_on_c, 6, 62, 85
8, 40320, Note_on_c, 6, 62, 0
8, 40320, Note_on_c, 6, 64, 85
8, 40560, Note_on_c, 6, 64, 0
8, 40560, Note_on_c, 6, 66, 86
8, 40800, Note_on_c, 6, 66, 0
8, 40800, Note_on_c, 6, 67, 87
8, 41040, Note_on_c, 6, 67, 0
8, 41040, Note_on_c, 6, 66, 87
8, 41160, Note_on_c, 6, 66, 0
8, 41160, Note_on_c, 6, 64, 88
8, 41280, Note_on_c, 6, 64, 0
8, 41280, Note_on_c, 6, 66, 88
8, 41400, Note_on_c, 6, 66, 0
8, 41400, Note_on_c, 6, 71, 88
8, 41640, Note_on_c, 6, 71, 0
8, 41640, Note_on_c, 6, 71, 89
8, 41700, Note_on_c, 6, 71, 0
8, 41700, Note_on_c, 6, 71, 89
8, 41760, Note_on_c, 6, 71, 0
8, 41760, Note_on_c, 6, 64, 90
8, 41880, Note_on_c, 6, 64, 0
8, 41880, Note_on_c, 6, 68, 90
8, 42000, Note_on_c, 6, 68, 0
8, 42000, Note_on_c, 6, 71, 90
8, 42360, Note_on_c, 6, 71, 0
8, 42360, Note_on_c, 6, 64, 91
8, 42480, Note_on_c, 6, 64, 0
8, 42480, Note_on_c, 6, 69, 92
8, 42960, Note_on_c, 6, 69, 0
8, 42960, Note_on_c, 6, 67, 93
8, 43320, Note_on_c, 6, 67, 0
8, 43320, Note_on_c, 6, 66, 94
8, 43380, Note_on_c, 6, 66, 0
8, 43380, Note_on_c, 6, 64, 95
8, 43440, Note_on_c, 6, 64, 0
8, 43440, Note_on_c, 6, 66, 95
8, 43560, Note_on_c, 6, 66, 0
8, 43560, Note_on_c, 6, 71, 95
8, 43680, Note_on_c, 6, 71, 0
8, 43680, Note_on_c, 6, 66, 96
8, 43920, Note_on_c, 6, 66, 0
8, 43920, Note_on_c, 6, 64, 96
8, 44160, Note_on_c, 6, 64, 0
8, 44160, Note_on_c, 6, 66, 97
8, 45120, Note_on_c, 6, 66, 0
8, 46080, End_track
9, 0, Start_track
9, 0, MIDI_port, 0
9, 0, Title_t, "Viola"
9, 0, Program_c, 7, 48
9, 1680, Note_on_c, 7, 57, 40
9, 1920, Note_on_c, 7, 57, 0
9, 1920, Note_on_c, 7, 59, 40
9, 2160, Note_on_c, 7, 59, 0
9, 2160, Note_on_c, 7, 61, 40
9, 2400, Note_on_c, 7, 61, 0
9, 2400, Note_on_c, 7, 62, 40
9, 2640, Note_on_c, 7, 62, 0
9, 2640, Note_on_c, 7, 61, 40
9, 2760, Note_on_c, 7, 61, 0
9, 2760, Note_on_c, 7, 59, 40
9, 2880, Note_on_c, 7, 59, 0
9, 2880, Note_on_c, 7, 61, 40
9, 3000, Note_on_c, 7, 61, 0
9, 3000, Note_on_c, 7, 57, 40
9, 3120, Note_on_c, 7, 57, 0
9, 3120, Note_on_c, 7, 62, 40
9, 3600, Note_on_c, 7, 62, 0
9, 3600, Note_on_c, 7, 61, 40
9, 3840, Note_on_c, 7, 61, 0
9, 3840, Note_on_c, 7, 59, 40
9, 4320, Note_on_c, 7, 59, 0
9, 4320, Note_on_c, 7, 57, 40
9, 4800, Note_on_c, 7, 57, 0
9, 5520, Note_on_c, 7, 62, 66
9, 5880, Note_on_c, 7, 62, 0
9, 5880, Note_on_c, 7, 62, 40
9, 6000, Note_on_c, 7, 62, 0
9, 6000, Note_on_c, 7, 61, 40
9, 6120, Note_on_c, 7, 61, 0
9, 6120, Note_on_c, 7, 61, 40
9, 6240, Note_on_c, 7, 61, 0
9, 6240, Note_on_c, 7, 62, 40
9, 6360, Note_on_c, 7, 62, 0
9, 6360, Note_on_c, 7, 61, 40
9, 6420, Note_on_c, 7, 61, 0
9, 6420, Note_on_c, 7, 59, 40
9, 6480, Note_on_c, 7, 59, 0
9, 6480, Note_on_c, 7, 57, 40
9, 6540, Note_on_c, 7, 57, 0
9, 6540, Note_on_c, 7, 59, 40
9, 6600, Note_on_c, 7, 59, 0
9, 6600, Note_on_c, 7, 55, 40
9, 6660, Note_on_c, 7, 55, 0
9, 6660, Note_on_c, 7, 57, 40
9, 6720, Note_on_c, 7, 57, 0
9, 6720, Note_on_c, 7, 59, 40
9, 6780, Note_on_c, 7, 59, 0
9, 6780, Note_on_c, 7, 57, 40
9, 6840, Note_on_c, 7, 57, 0
9, 6840, Note_on_c, 7, 59, 40
9, 6900, Note_on_c, 7, 59, 0
9, 6900, Note_on_c, 7, 61, 40
9, 6960, Note_on_c, 7, 61, 0
9, 6960, Note_on_c, 7, 59, 47
9, 7020, Note_on_c, 7, 59, 0
9, 7020, Note_on_c, 7, 62, 40
9, 7080, Note_on_c, 7, 62, 0
9, 7080, Note_on_c, 7, 61, 40
9, 7140, Note_on_c, 7, 61, 0
9, 7140, Note_on_c, 7, 59, 40
9, 7200, Note_on_c, 7, 59, 0
9, 7200, Note_on_c, 7, 57, 40
9, 7320, Note_on_c, 7, 57, 0
9, 7320, Note_on_c, 7, 52, 40
9, 7440, Note_on_c, 7, 52, 0
9, 7440, Note_on_c, 7, 57, 40
9, 7680, Note_on_c, 7, 57, 0
9, 7680, Note_on_c, 7, 50, 40
9, 8160, Note_on_c, 7, 50, 0
9, 8880, Note_on_c, 7, 57, 54
9, 9120, Note_on_c, 7, 57, 0
9, 9120, Note_on_c, 7, 59, 57
9, 9360, Note_on_c, 7, 59, 0
9, 9360, Note_on_c, 7, 61, 61
9, 9600, Note_on_c, 7, 61, 0
9, 9600, Note_on_c, 7, 62, 64
9, 9840, Note_on_c, 7, 62, 0
9, 9840, Note_on_c, 7, 61, 65
9, 9960, Note_on_c, 7, 61, 0
9, 9960, Note_on_c, 7, 59, 66
9, 10080, Note_on_c, 7, 59, 0
9, 10080, Note_on_c, 7, 61, 67
9, 10200, Note_on_c, 7, 61, 0
9, 10200, Note_on_c, 7, 54, 67
9, 10320, Note_on_c, 7, 54, 0
9, 10320, Note_on_c, 7, 66, 68
9, 10680, Note_on_c, 7, 66, 0
9, 10680, Note_on_c, 7, 64, 70
9, 10920, Note_on_c, 7, 64, 0
9, 10920, Note_on_c, 7, 69, 72
9, 11040, Note_on_c, 7, 69, 0
9, 11040, Note_on_c, 7, 62, 72
9, 11160, Note_on_c, 7, 62, 0
9, 11160, Note_on_c, 7, 66, 73
9, 11280, Note_on_c, 7, 66, 0
9, 11280, Note_on_c, 7, 64, 74
9, 11400, Note_on_c, 7, 64, 0
9, 11400, Note_on_c, 7, 62, 74
9, 11520, Note_on_c, 7, 62, 0
9, 11520, Note_on_c, 7, 61, 74
9, 12000, Note_on_c, 7, 61, 0
9, 12480, Note_on_c, 7, 62, 74
9, 12960, Note_on_c, 7, 62, 0
9, 12960, Note_on_c, 7, 64, 74
9, 13200, Note_on_c, 7, 64, 0
9, 13200, Note_on_c, 7, 66, 74
9, 13440, Note_on_c, 7, 66, 0
9, 13440, Note_on_c, 7, 67, 74
9, 13680, Note_on_c, 7, 67, 0
9, 13680, Note_on_c, 7, 66, 75
9, 13800, Note_on_c, 7, 66, 0
9, 13800, Note_on_c, 7, 64, 75
9, 13920, Note_on_c, 7, 64, 0
9, 13920, Note_on_c, 7, 66, 76
9, 14040, Note_on_c, 7, 66, 0
9, 14040, Note_on_c, 7, 62, 76
9, 14160, Note_on_c, 7, 62, 0
9, 14160, Note_on_c, 7, 69, 77
9, 14640, Note_on_c, 7, 69, 0
9, 14640, Note_on_c, 7, 67, 79
9, 14880, Note_on_c, 7, 67, 0
9, 14880, Note_on_c, 7, 66, 80
9, 15360, Note_on_c, 7, 66, 0
9, 15360, Note_on_c, 7, 64, 81
9, 15600, Note_on_c, 7, 64, 0
9, 15600, Note_on_c, 7, 57, 82
9, 15840, Note_on_c, 7, 57, 0
9, 15840, Note_on_c, 7, 59, 83
9, 16080, Note_on_c, 7, 59, 0
9, 16080, Note_on_c, 7, 61, 84
9, 16320, Note_on_c, 7, 61, 0
9, 16320, Note_on_c, 7, 62, 85
9, 16560, Note_on_c, 7, 62, 0
9, 16560, Note_on_c, 7, 61, 85
9, 16680, Note_on_c, 7, 61, 0
9, 16680, Note_on_c, 7, 59, 85
9, 16800, Note_on_c, 7, 59, 0
9, 16800, Note_on_c, 7, 61, 85
9, 16920, Note_on_c, 7, 61, 0
9, 16920, Note_on_c, 7, 57, 85
9, 17040, Note_on_c, 7, 57, 0
9, 17040, Note_on_c, 7, 62, 85
9, 17520, Note_on_c, 7, 62, 0
9, 17520, Note_on_c, 7, 61, 76
9, 17760, Note_on_c, 7, 61, 0
9, 17760, Note_on_c, 7, 59, 72
9, 18240, Note_on_c, 7, 59, 0
9, 18240, Note_on_c, 7, 57, 64
9, 18480, Note_on_c, 7, 57, 0
9, 18480, Note_on_c, 7, 64, 64
9, 18600, Note_on_c, 7, 64, 0
9, 18600, Note_on_c, 7, 64, 62
9, 18720, Note_on_c, 7, 64, 0
9, 18720, Note_on_c, 7, 63, 59
9, 18960, Note_on_c, 7, 63, 0
9, 18960, Note_on_c, 7, 59, 57
9, 19200, Note_on_c, 7, 59, 0
9, 19200, Note_on_c, 7, 60, 55
9, 19440, Note_on_c, 7, 60, 0
9, 19440, Note_on_c, 7, 59, 54
9, 19680, Note_on_c, 7, 59, 0
9, 19680, Note_on_c, 7, 55, 52
9, 19920, Note_on_c, 7, 55, 0
9, 20880, Note_on_c, 7, 59, 90
9, 21240, Note_on_c, 7, 59, 0
9, 21240, Note_on_c, 7, 59, 64
9, 21360, Note_on_c, 7, 59, 0
9, 21360, Note_on_c, 7, 58, 64
9, 21480, Note_on_c, 7, 58, 0
9, 21480, Note_on_c, 7, 58, 64
9, 21600, Note_on_c, 7, 58, 0
9, 21600, Note_on_c, 7, 59, 64
9, 21720, Note_on_c, 7, 59, 0
9, 21720, Note_on_c, 7, 57, 64
9, 21780, Note_on_c, 7, 57, 0
9, 21780, Note_on_c, 7, 55, 64
9, 21840, Note_on_c, 7, 55, 0
9, 21840, Note_on_c, 7, 54, 64
9, 21900, Note_on_c, 7, 54, 0
9, 21900, Note_on_c, 7, 55, 64
9, 21960, Note_on_c, 7, 55, 0
9, 21960, Note_on_c, 7, 52, 64
9, 22020, Note_on_c, 7, 52, 0
9, 22020, Note_on_c, 7, 54, 64
9, 22080, Note_on_c, 7, 54, 0
9, 22080, Note_on_c, 7, 55, 64
9, 22140, Note_on_c, 7, 55, 0
9, 22140, Note_on_c, 7, 54, 64
9, 22200, Note_on_c, 7, 54, 0
9, 22200, Note_on_c, 7, 55, 64
9, 22260, Note_on_c, 7, 55, 0
9, 22260, Note_on_c, 7, 57, 64
9, 22320, Note_on_c, 7, 57, 0
9, 22320, Note_on_c, 7, 55, 64
9, 22380, Note_on_c, 7, 55, 0
9, 22380, Note_on_c, 7, 59, 64
9, 22440, Note_on_c, 7, 59, 0
9, 22440, Note_on_c, 7, 57, 64
9, 22500, Note_on_c, 7, 57, 0
9, 22500, Note_on_c, 7, 55, 64
9, 22560, Note_on_c, 7, 55, 0
9, 22560, Note_on_c, 7, 54, 64
9, 22680, Note_on_c, 7, 54, 0
9, 22680, Note_on_c, 7, 55, 64
9, 22800, Note_on_c, 7, 55, 0
9, 22800, Note_on_c, 7, 57, 64
9, 23040, Note_on_c, 7, 57, 0
9, 23040, Note_on_c, 7, 50, 64
9, 23160, Note_on_c, 7, 50, 0
9, 23160, Note_on_c, 7, 62, 64
9, 23280, Note_on_c, 7, 62, 0
9, 23280, Note_on_c, 7, 61, 64
9, 23400, Note_on_c, 7, 61, 0
9, 23400, Note_on_c, 7, 61, 64
9, 23520, Note_on_c, 7, 61, 0
9, 23520, Note_on_c, 7, 61, 64
9, 23640, Note_on_c, 7, 61, 0
9, 23640, Note_on_c, 7, 62, 64
9, 23760, Note_on_c, 7, 62, 0
9, 23760, Note_on_c, 7, 64, 64
9, 24000, Note_on_c, 7, 64, 0
9, 24000, Note_on_c, 7, 57, 64
9, 24240, Note_on_c, 7, 57, 0
9, 24720, Note_on_c, 7, 57, 64
9, 24960, Note_on_c, 7, 57, 0
9, 24960, Note_on_c, 7, 59, 64
9, 25200, Note_on_c, 7, 59, 0
9, 25200, Note_on_c, 7, 61, 64
9, 25440, Note_on_c, 7, 61, 0
9, 25440, Note_on_c, 7, 62, 64
9, 25680, Note_on_c, 7, 62, 0
9, 25680, Note_on_c, 7, 61, 64
9, 25800, Note_on_c, 7, 61, 0
9, 25800, Note_on_c, 7, 59, 64
9, 25920, Note_on_c, 7, 59, 0
9, 25920, Note_on_c, 7, 61, 64
9, 26040, Note_on_c, 7, 61, 0
9, 26040, Note_on_c, 7, 57, 64
9, 26160, Note_on_c, 7, 57, 0
9, 26160, Note_on_c, 7, 62, 64
9, 26640, Note_on_c, 7, 62, 0
9, 26640, Note_on_c, 7, 60, 64
9, 27120, Note_on_c, 7, 60, 0
9, 27120, Note_on_c, 7, 59, 64
9, 27360, Note_on_c, 7, 59, 0
9, 27360, Note_on_c, 7, 57, 64
9, 27840, Note_on_c, 7, 57, 0
9, 28080, Note_on_c, 7, 57, 64
9, 28320, Note_on_c, 7, 57, 0
9, 28320, Note_on_c, 7, 59, 64
9, 28560, Note_on_c, 7, 59, 0
9, 28560, Note_on_c, 7, 61, 64
9, 28800, Note_on_c, 7, 61, 0
9, 28800, Note_on_c, 7, 62, 64
9, 29040, Note_on_c, 7, 62, 0
9, 29040, Note_on_c, 7, 61, 65
9, 29160, Note_on_c, 7, 61, 0
9, 29160, Note_on_c, 7, 59, 66
9, 29280, Note_on_c, 7, 59, 0
9, 29280, Note_on_c, 7, 61, 67
9, 29400, Note_on_c, 7, 61, 0
9, 29400, Note_on_c, 7, 57, 67
9, 29520, Note_on_c, 7, 57, 0
9, 29520, Note_on_c, 7, 62, 68
9, 30000, Note_on_c, 7, 62, 0
9, 30000, Note_on_c, 7, 61, 71
9, 30240, Note_on_c, 7, 61, 0
9, 30240, Note_on_c, 7, 57, 72
9, 30360, Note_on_c, 7, 57, 0
9, 30360, Note_on_c, 7, 66, 73
9, 30480, Note_on_c, 7, 66, 0
9, 30480, Note_on_c, 7, 64, 74
9, 30600, Note_on_c, 7, 64, 0
9, 30600, Note_on_c, 7, 62, 74
9, 30720, Note_on_c, 7, 62, 0
9, 30720, Note_on_c, 7, 61, 75
9, 30840, Note_on_c, 7, 61, 0
9, 30840, Note_on_c, 7, 64, 75
9, 30960, Note_on_c, 7, 64, 0
9, 30960, Note_on_c, 7, 62, 76
9, 31080, Note_on_c, 7, 62, 0
9, 31080, Note_on_c, 7, 66, 76
9, 31200, Note_on_c, 7, 66, 0
9, 31200, Note_on_c, 7, 59, 76
9, 31440, Note_on_c, 7, 59, 0
9, 31440, Note_on_c, 7, 57, 77
9, 31920, Note_on_c, 7, 57, 0
9, 31920, Note_on_c, 7, 55, 78
9, 32160, Note_on_c, 7, 55, 0
9, 32160, Note_on_c, 7, 57, 79
9, 32400, Note_on_c, 7, 57, 0
9, 32400, Note_on_c, 7, 59, 79
9, 32640, Note_on_c, 7, 59, 0
9, 32640, Note_on_c, 7, 55, 80
9, 32880, Note_on_c, 7, 55, 0
9, 32880, Note_on_c, 7, 57, 81
9, 33120, Note_on_c, 7, 57, 0
9, 33120, Note_on_c, 7, 59, 83
9, 33360, Note_on_c, 7, 59, 0
9, 33360, Note_on_c, 7, 61, 84
9, 33600, Note_on_c, 7, 61, 0
9, 33600, Note_on_c, 7, 62, 85
9, 33840, Note_on_c, 7, 62, 0
9, 33840, Note_on_c, 7, 61, 86
9, 33960, Note_on_c, 7, 61, 0
9, 33960, Note_on_c, 7, 59, 87
9, 34080, Note_on_c, 7, 59, 0
9, 34080, Note_on_c, 7, 61, 88
9, 34200, Note_on_c, 7, 61, 0
9, 34200, Note_on_c, 7, 57, 88
9, 34320, Note_on_c, 7, 57, 0
9, 34320, Note_on_c, 7, 62, 89
9, 34680, Note_on_c, 7, 62, 0
9, 34680, Note_on_c, 7, 61, 90
9, 34740, Note_on_c, 7, 61, 0
9, 34740, Note_on_c, 7, 59, 90
9, 34800, Note_on_c, 7, 59, 0
9, 34800, Note_on_c, 7, 64, 90
9, 35160, Note_on_c, 7, 64, 0
9, 35160, Note_on_c, 7, 57, 90
9, 35280, Note_on_c, 7, 57, 0
9, 35280, Note_on_c, 7, 62, 90
9, 35520, Note_on_c, 7, 62, 0
9, 35520, Note_on_c, 7, 64, 90
9, 35760, Note_on_c, 7, 64, 0
9, 35760, Note_on_c, 7, 62, 90
9, 35880, Note_on_c, 7, 62, 0
9, 35880, Note_on_c, 7, 61, 90
9, 36000, Note_on_c, 7, 61, 0
9, 36000, Note_on_c, 7, 59, 90
9, 36240, Note_on_c, 7, 59, 0
9, 36240, Note_on_c, 7, 61, 90
9, 36480, Note_on_c, 7, 61, 0
9, 36480, Note_on_c, 7, 62, 86
9, 36600, Note_on_c, 7, 62, 0
9, 36600, Note_on_c, 7, 61, 85
9, 36720, Note_on_c, 7, 61, 0
9, 36720, Note_on_c, 7, 59, 83
9, 36960, Note_on_c, 7, 59, 0
9, 36960, Note_on_c, 7, 64, 80
9, 37320, Note_on_c, 7, 64, 0
9, 37320, Note_on_c, 7, 64, 76
9, 37440, Note_on_c, 7, 64, 0
9, 37440, Note_on_c, 7, 66, 75
9, 37680, Note_on_c, 7, 66, 0
9, 37680, Note_on_c, 7, 64, 75
9, 37800, Note_on_c, 7, 64, 0
9, 37800, Note_on_c, 7, 64, 75
9, 37920, Note_on_c, 7, 64, 0
9, 37920, Note_on_c, 7, 64, 64
9, 38160, Note_on_c, 7, 64, 0
9, 38160, Note_on_c, 7, 66, 75
9, 38400, Note_on_c, 7, 66, 0
9, 38400, Note_on_c, 7, 59, 76
9, 38640, Note_on_c, 7, 59, 0
9, 38640, Note_on_c, 7, 66, 77
9, 39000, Note_on_c, 7, 66, 0
9, 39000, Note_on_c, 7, 66, 79
9, 39060, Note_on_c, 7, 66, 0
9, 39060, Note_on_c, 7, 64, 79
9, 39120, Note_on_c, 7, 64, 0
9, 39120, Note_on_c, 7, 66, 80
9, 39180, Note_on_c, 7, 66, 0
9, 39180, Note_on_c, 7, 64, 75
9, 39240, Note_on_c, 7, 64, 0
9, 39240, Note_on_c, 7, 62, 78
9, 39300, Note_on_c, 7, 62, 0
9, 39300, Note_on_c, 7, 61, 80
9, 39360, Note_on_c, 7, 61, 0
9, 39360, Note_on_c, 7, 62, 81
9, 39600, Note_on_c, 7, 62, 0
9, 39600, Note_on_c, 7, 61, 82
9, 39720, Note_on_c, 7, 61, 0
9, 39720, Note_on_c, 7, 61, 83
9, 39840, Note_on_c, 7, 61, 0
9, 39840, Note_on_c, 7, 57, 84
9, 40080, Note_on_c, 7, 57, 0
9, 40080, Note_on_c, 7, 57, 85
9, 40320, Note_on_c, 7, 57, 0
9, 40560, Note_on_c, 7, 57, 86
9, 40800, Note_on_c, 7, 57, 0
9, 40800, Note_on_c, 7, 59, 87
9, 41040, Note_on_c, 7, 59, 0
9, 41040, Note_on_c, 7, 61, 87
9, 41280, Note_on_c, 7, 61, 0
9, 41280, Note_on_c, 7, 62, 88
9, 41520, Note_on_c, 7, 62, 0
9, 41520, Note_on_c, 7, 64, 89
9, 41640, Note_on_c, 7, 64, 0
9, 41640, Note_on_c, 7, 66, 89
9, 41760, Note_on_c, 7, 66, 0
9, 41760, Note_on_c, 7, 59, 90
9, 42000, Note_on_c, 7, 59, 0
9, 42000, Note_on_c, 7, 64, 90
9, 42360, Note_on_c, 7, 64, 0
9, 42360, Note_on_c, 7, 61, 91
9, 42600, Note_on_c, 7, 61, 0
9, 42600, Note_on_c, 7, 62, 92
9, 42720, Note_on_c, 7, 62, 0
9, 42720, Note_on_c, 7, 59, 93
9, 42840, Note_on_c, 7, 59, 0
9, 42840, Note_on_c, 7, 57, 93
9, 42960, Note_on_c, 7, 57, 0
9, 42960, Note_on_c, 7, 59, 93
9, 43080, Note_on_c, 7, 59, 0
9, 43080, Note_on_c, 7, 55, 94
9, 43200, Note_on_c, 7, 55, 0
9, 43200, Note_on_c, 7, 57, 94
9, 43320, Note_on_c, 7, 57, 0
9, 43320, Note_on_c, 7, 59, 94
9, 43380, Note_on_c, 7, 59, 0
9, 43380, Note_on_c, 7, 61, 95
9, 43440, Note_on_c, 7, 61, 0
9, 43440, Note_on_c, 7, 62, 95
9, 43560, Note_on_c, 7, 62, 0
9, 43560, Note_on_c, 7, 59, 95
9, 43680, Note_on_c, 7, 59, 0
9, 43680, Note_on_c, 7, 57, 96
9, 43920, Note_on_c, 7, 57, 0
9, 43920, Note_on_c, 7, 57, 100
9, 44160, Note_on_c, 7, 57, 0
9, 44160, Note_on_c, 7, 57, 97
9, 45120, Note_on_c, 7, 57, 0
9, 46080, End_track
10, 0, Start_track
10, 0, MIDI_port, 0
10, 0, Title_t, "Cello"
10, 0, Program_c, 8, 48
10, 1200, Note_on_c, 8, 50, 40
10, 1440, Note_on_c, 8, 50, 0
10, 1440, Note_on_c, 8, 52, 40
10, 1680, Note_on_c, 8, 52, 0
10, 1680, Note_on_c, 8, 54, 40
10, 1920, Note_on_c, 8, 54, 0
10, 1920, Note_on_c, 8, 55, 40
10, 2160, Note_on_c, 8, 55, 0
10, 2160, Note_on_c, 8, 54, 40
10, 2280, Note_on_c, 8, 54, 0
10, 2280, Note_on_c, 8, 52, 40
10, 2400, Note_on_c, 8, 52, 0
10, 2400, Note_on_c, 8, 54, 40
10, 2520, Note_on_c, 8, 54, 0
10, 2520, Note_on_c, 8, 50, 40
10, 2640, Note_on_c, 8, 50, 0
10, 2640, Note_on_c, 8, 55, 40
10, 3120, Note_on_c, 8, 55, 0
10, 3120, Note_on_c, 8, 54, 40
10, 3360, Note_on_c, 8, 54, 0
10, 3360, Note_on_c, 8, 52, 40
10, 3840, Note_on_c, 8, 52, 0
10, 3840, Note_on_c, 8, 50, 40
10, 4320, Note_on_c, 8, 50, 0
10, 4320, Note_on_c, 8, 57, 40
10, 4800, Note_on_c, 8, 57, 0
10, 4800, Note_on_c, 8, 64, 40
10, 5040, Note_on_c, 8, 64, 0
10, 5040, Note_on_c, 8, 57, 66
10, 5400, Note_on_c, 8, 57, 0
10, 5400, Note_on_c, 8, 57, 40
10, 5520, Note_on_c, 8, 57, 0
10, 5520, Note_on_c, 8, 56, 40
10, 5640, Note_on_c, 8, 56, 0
10, 5640, Note_on_c, 8, 56, 40
10, 5760, Note_on_c, 8, 56, 0
10, 5760, Note_on_c, 8, 57, 40
10, 5880, Note_on_c, 8, 57, 0
10, 5880, Note_on_c, 8, 55, 40
10, 5940, Note_on_c, 8, 55, 0
10, 5940, Note_on_c, 8, 54, 40
10, 6000, Note_on_c, 8, 54, 0
10, 6000, Note_on_c, 8, 52, 40
10, 6060, Note_on_c, 8, 52, 0
10, 6060, Note_on_c, 8, 54, 40
10, 6120, Note_on_c, 8, 54, 0
10, 6120, Note_on_c, 8, 50, 40
10, 6180, Note_on_c, 8, 50, 0
10, 6180, Note_on_c, 8, 52, 40
10, 6240, Note_on_c, 8, 52, 0
10, 6240, Note_on_c, 8, 54, 40
10, 6300, Note_on_c, 8, 54, 0
10, 6300, Note_on_c, 8, 52, 40
10, 6360, Note_on_c, 8, 52, 0
10, 6360, Note_on_c, 8, 54, 40
10, 6420, Note_on_c, 8, 54, 0
10, 6420, Note_on_c, 8, 55, 40
10, 6480, Note_on_c, 8, 55, 0
10, 6480, Note_on_c, 8, 54, 40
10, 6540, Note_on_c, 8, 54, 0
10, 6540, Note_on_c, 8, 55, 40
10, 6600, Note_on_c, 8, 55, 0
10, 6600, Note_on_c, 8, 54, 40
10, 6660, Note_on_c, 8, 54, 0
10, 6660, Note_on_c, 8, 52, 40
10, 6720, Note_on_c, 8, 52, 0
10, 6720, Note_on_c, 8, 50, 40
10, 6840, Note_on_c, 8, 50, 0
10, 6840, Note_on_c, 8, 49, 40
10, 6900, Note_on_c, 8, 49, 0
10, 6900, Note_on_c, 8, 47, 40
10, 6960, Note_on_c, 8, 47, 0
10, 6960, Note_on_c, 8, 52, 47
10, 7200, Note_on_c, 8, 52, 0
10, 7200, Note_on_c, 8, 45, 40
10, 7440, Note_on_c, 8, 45, 0
10, 7440, Note_on_c, 8, 57, 40
10, 7680, Note_on_c, 8, 57, 0
10, 7680, Note_on_c, 8, 62, 40
10, 7920, Note_on_c, 8, 62, 0
10, 7920, Note_on_c, 8, 50, 50
10, 8160, Note_on_c, 8, 50, 0
10, 8160, Note_on_c, 8, 55, 60
10, 8400, Note_on_c, 8, 55, 0
10, 8400, Note_on_c, 8, 50, 55
10, 8640, Note_on_c, 8, 50, 0
10, 8640, Note_on_c, 8, 52, 57
10, 8880, Note_on_c, 8, 52, 0
10, 8880, Note_on_c, 8, 54, 59
10, 9120, Note_on_c, 8, 54, 0
10, 9120, Note_on_c, 8, 55, 61
10, 9360, Note_on_c, 8, 55, 0
10, 9360, Note_on_c, 8, 54, 62
10, 9480, Note_on_c, 8, 54, 0
10, 9480, Note_on_c, 8, 52, 63
10, 9600, Note_on_c, 8, 52, 0
10, 9600, Note_on_c, 8, 54, 64
10, 9720, Note_on_c, 8, 54, 0
10, 9720, Note_on_c, 8, 47, 65
10, 9840, Note_on_c, 8, 47, 0
10, 9840, Note_on_c, 8, 59, 65
10, 10200, Note_on_c, 8, 59, 0
10, 10200, Note_on_c, 8, 57, 67
10, 10440, Note_on_c, 8, 57, 0
10, 10440, Note_on_c, 8, 62, 69
10, 10560, Note_on_c, 8, 62, 0
10, 10560, Note_on_c, 8, 55, 70
10, 10680, Note_on_c, 8, 55, 0
10, 10680, Note_on_c, 8, 59, 70
10, 10800, Note_on_c, 8, 59, 0
10, 10800, Note_on_c, 8, 57, 71
10, 10920, Note_on_c, 8, 57, 0
10, 10920, Note_on_c, 8, 55, 72
10, 11040, Note_on_c, 8, 55, 0
10, 11040, Note_on_c, 8, 54, 72
10, 11580, Note_on_c, 8, 54, 0
10, 11580, Note_on_c, 8, 52, 70
10, 11640, Note_on_c, 8, 52, 0
10, 11640, Note_on_c, 8, 54, 70
10, 11700, Note_on_c, 8, 54, 0
10, 11700, Note_on_c, 8, 55, 70
10, 11760, Note_on_c, 8, 55, 0
10, 11760, Note_on_c, 8, 54, 70
10, 11820, Note_on_c, 8, 54, 0
10, 11820, Note_on_c, 8, 52, 70
10, 11880, Note_on_c, 8, 52, 0
10, 11880, Note_on_c, 8, 50, 70
10, 11940, Note_on_c, 8, 50, 0
10, 11940, Note_on_c, 8, 49, 70
10, 12000, Note_on_c, 8, 49, 0
10, 12000, Note_on_c, 8, 47, 70
10, 12240, Note_on_c, 8, 47, 0
10, 12240, Note_on_c, 8, 49, 70
10, 12480, Note_on_c, 8, 49, 0
10, 12480, Note_on_c, 8, 50, 70
10, 12600, Note_on_c, 8, 50, 0
10, 12600, Note_on_c, 8, 54, 75
10, 12720, Note_on_c, 8, 54, 0
10, 12720, Note_on_c, 8, 59, 100
10, 13080, Note_on_c, 8, 59, 0
10, 13080, Note_on_c, 8, 59, 74
10, 13200, Note_on_c, 8, 59, 0
10, 13200, Note_on_c, 8, 58, 74
10, 13320, Note_on_c, 8, 58, 0
10, 13320, Note_on_c, 8, 58, 74
10, 13440, Note_on_c, 8, 58, 0
10, 13440, Note_on_c, 8, 59, 74
10, 13500, Note_on_c, 8, 59, 0
10, 13500, Note_on_c, 8, 61, 74
10, 13560, Note_on_c, 8, 61, 0
10, 13560, Note_on_c, 8, 57, 74
10, 13620, Note_on_c, 8, 57, 0
10, 13620, Note_on_c, 8, 59, 75
10, 13680, Note_on_c, 8, 59, 0
10, 13680, Note_on_c, 8, 61, 75
10, 13740, Note_on_c, 8, 61, 0
10, 13740, Note_on_c, 8, 62, 75
10, 13800, Note_on_c, 8, 62, 0
10, 13800, Note_on_c, 8, 59, 75
10, 13860, Note_on_c, 8, 59, 0
10, 13860, Note_on_c, 8, 61, 76
10, 13920, Note_on_c, 8, 61, 0
10, 13920, Note_on_c, 8, 62, 76
10, 13980, Note_on_c, 8, 62, 0
10, 13980, Note_on_c, 8, 61, 76
10, 14040, Note_on_c, 8, 61, 0
10, 14040, Note_on_c, 8, 62, 76
10, 14100, Note_on_c, 8, 62, 0
10, 14100, Note_on_c, 8, 64, 77
10, 14160, Note_on_c, 8, 64, 0
10, 14160, Note_on_c, 8, 62, 77
10, 14220, Note_on_c, 8, 62, 0
10, 14220, Note_on_c, 8, 64, 77
10, 14280, Note_on_c, 8, 64, 0
10, 14280, Note_on_c, 8, 62, 77
10, 14340, Note_on_c, 8, 62, 0
10, 14340, Note_on_c, 8, 61, 77
10, 14400, Note_on_c, 8, 61, 0
10, 14400, Note_on_c, 8, 59, 78
10, 15000, Note_on_c, 8, 59, 0
10, 15000, Note_on_c, 8, 61, 80
10, 15120, Note_on_c, 8, 61, 0
10, 15120, Note_on_c, 8, 62, 80
10, 15360, Note_on_c, 8, 62, 0
10, 15360, Note_on_c, 8, 57, 81
10, 15600, Note_on_c, 8, 57, 0
10, 15600, Note_on_c, 8, 55, 82
10, 15720, Note_on_c, 8, 55, 0
10, 15720, Note_on_c, 8, 54, 83
10, 15840, Note_on_c, 8, 54, 0
10, 15840, Note_on_c, 8, 52, 83
10, 16080, Note_on_c, 8, 52, 0
10, 16080, Note_on_c, 8, 57, 84
10, 16320, Note_on_c, 8, 57, 0
10, 16320, Note_on_c, 8, 50, 85
10, 16560, Note_on_c, 8, 50, 0
10, 16560, Note_on_c, 8, 52, 85
10, 16800, Note_on_c, 8, 52, 0
10, 16800, Note_on_c, 8, 45, 85
10, 17520, Note_on_c, 8, 45, 0
10, 17520, Note_on_c, 8, 46, 76
10, 17760, Note_on_c, 8, 46, 0
10, 17760, Note_on_c, 8, 47, 72
10, 18000, Note_on_c, 8, 47, 0
10, 18000, Note_on_c, 8, 49, 68
10, 18240, Note_on_c, 8, 49, 0
10, 18240, Note_on_c, 8, 50, 64
10, 18480, Note_on_c, 8, 50, 0
10, 18480, Note_on_c, 8, 48, 62
10, 18720, Note_on_c, 8, 48, 0
10, 18720, Note_on_c, 8, 47, 59
10, 18960, Note_on_c, 8, 47, 0
10, 18960, Note_on_c, 8, 52, 57
10, 19200, Note_on_c, 8, 52, 0
10, 19200, Note_on_c, 8, 45, 55
10, 19440, Note_on_c, 8, 45, 0
10, 19440, Note_on_c, 8, 47, 54
10, 19680, Note_on_c, 8, 47, 0
10, 19680, Note_on_c, 8, 40, 50
10, 19920, Note_on_c, 8, 40, 0
10, 19920, Note_on_c, 8, 67, 90
10, 20280, Note_on_c, 8, 67, 0
10, 20280, Note_on_c, 8, 67, 64
10, 20400, Note_on_c, 8, 67, 0
10, 20400, Note_on_c, 8, 66, 64
10, 20520, Note_on_c, 8, 66, 0
10, 20520, Note_on_c, 8, 66, 64
10, 20640, Note_on_c, 8, 66, 0
10, 20640, Note_on_c, 8, 67, 64
10, 20760, Note_on_c, 8, 67, 0
10, 20760, Note_on_c, 8, 66, 64
10, 20820, Note_on_c, 8, 66, 0
10, 20820, Note_on_c, 8, 64, 64
10, 20880, Note_on_c, 8, 64, 0
10, 20880, Note_on_c, 8, 59, 90
10, 21240, Note_on_c, 8, 59, 0
10, 21240, Note_on_c, 8, 59, 64
10, 21360, Note_on_c, 8, 59, 0
10, 21360, Note_on_c, 8, 58, 64
10, 21480, Note_on_c, 8, 58, 0
10, 21480, Note_on_c, 8, 58, 64
10, 21600, Note_on_c, 8, 58, 0
10, 21600, Note_on_c, 8, 59, 64
10, 21720, Note_on_c, 8, 59, 0
10, 21720, Note_on_c, 8, 57, 64
10, 21780, Note_on_c, 8, 57, 0
10, 21780, Note_on_c, 8, 55, 64
10, 21840, Note_on_c, 8, 55, 0
10, 21840, Note_on_c, 8, 50, 90
10, 22200, Note_on_c, 8, 50, 0
10, 22200, Note_on_c, 8, 50, 64
10, 22320, Note_on_c, 8, 50, 0
10, 22320, Note_on_c, 8, 49, 64
10, 22440, Note_on_c, 8, 49, 0
10, 22440, Note_on_c, 8, 49, 64
10, 22560, Note_on_c, 8, 49, 0
10, 22560, Note_on_c, 8, 50, 64
10, 22680, Note_on_c, 8, 50, 0
10, 22680, Note_on_c, 8, 49, 64
10, 22740, Note_on_c, 8, 49, 0
10, 22740, Note_on_c, 8, 47, 64
10, 22800, Note_on_c, 8, 47, 0
10, 22800, Note_on_c, 8, 45, 64
10, 22860, Note_on_c, 8, 45, 0
10, 22860, Note_on_c, 8, 47, 64
10, 22920, Note_on_c, 8, 47, 0
10, 22920, Note_on_c, 8, 44, 64
10, 22980, Note_on_c, 8, 44, 0
10, 22980, Note_on_c, 8, 45, 64
10, 23040, Note_on_c, 8, 45, 0
10, 23040, Note_on_c, 8, 47, 64
10, 23100, Note_on_c, 8, 47, 0
10, 23100, Note_on_c, 8, 45, 64
10, 23160, Note_on_c, 8, 45, 0
10, 23160, Note_on_c, 8, 47, 64
10, 23220, Note_on_c, 8, 47, 0
10, 23220, Note_on_c, 8, 49, 64
10, 23280, Note_on_c, 8, 49, 0
10, 23280, Note_on_c, 8, 47, 64
10, 23340, Note_on_c, 8, 47, 0
10, 23340, Note_on_c, 8, 50, 64
10, 23400, Note_on_c, 8, 50, 0
10, 23400, Note_on_c, 8, 49, 64
10, 23460, Note_on_c, 8, 49, 0
10, 23460, Note_on_c, 8, 47, 64
10, 23520, Note_on_c, 8, 47, 0
10, 23520, Note_on_c, 8, 45, 64
10, 23640, Note_on_c, 8, 45, 0
10, 23640, Note_on_c, 8, 47, 64
10, 23760, Note_on_c, 8, 47, 0
10, 23760, Note_on_c, 8, 49, 64
10, 24000, Note_on_c, 8, 49, 0
10, 24000, Note_on_c, 8, 42, 64
10, 24120, Note_on_c, 8, 42, 0
10, 24120, Note_on_c, 8, 54, 64
10, 24240, Note_on_c, 8, 54, 0
10, 24240, Note_on_c, 8, 59, 64
10, 24600, Note_on_c, 8, 59, 0
10, 24600, Note_on_c, 8, 57, 64
10, 24720, Note_on_c, 8, 57, 0
10, 24720, Note_on_c, 8, 55, 64
10, 24840, Note_on_c, 8, 55, 0
10, 24840, Note_on_c, 8, 54, 64
10, 24960, Note_on_c, 8, 54, 0
10, 24960, Note_on_c, 8, 52, 64
10, 25200, Note_on_c, 8, 52, 0
10, 25200, Note_on_c, 8, 57, 64
10, 25440, Note_on_c, 8, 57, 0
10, 25440, Note_on_c, 8, 50, 64
10, 25560, Note_on_c, 8, 50, 0
10, 25560, Note_on_c, 8, 62, 64
10, 25680, Note_on_c, 8, 62, 0
10, 25680, Note_on_c, 8, 61, 64
10, 25800, Note_on_c, 8, 61, 0
10, 25800, Note_on_c, 8, 59, 64
10, 25920, Note_on_c, 8, 59, 0
10, 25920, Note_on_c, 8, 61, 64
10, 26040, Note_on_c, 8, 61, 0
10, 26040, Note_on_c, 8, 57, 64
10, 26160, Note_on_c, 8, 57, 0
10, 26160, Note_on_c, 8, 62, 64
10, 26640, Note_on_c, 8, 62, 0
10, 26640, Note_on_c, 8, 60, 64
10, 27120, Note_on_c, 8, 60, 0
10, 27120, Note_on_c, 8, 59, 64
10, 27360, Note_on_c, 8, 59, 0
10, 27360, Note_on_c, 8, 50, 64
10, 27360, Note_on_c, 8, 57, 64
10, 27840, Note_on_c, 8, 57, 0
10, 27840, Note_on_c, 8, 50, 0
10, 27840, Note_on_c, 8, 52, 64
10, 28080, Note_on_c, 8, 52, 0
10, 28080, Note_on_c, 8, 54, 64
10, 28320, Note_on_c, 8, 54, 0
10, 28320, Note_on_c, 8, 55, 64
10, 28560, Note_on_c, 8, 55, 0
10, 28560, Note_on_c, 8, 54, 64
10, 28680, Note_on_c, 8, 54, 0
10, 28680, Note_on_c, 8, 52, 64
10, 28800, Note_on_c, 8, 52, 0
10, 28800, Note_on_c, 8, 54, 64
10, 28920, Note_on_c, 8, 54, 0
10, 28920, Note_on_c, 8, 50, 65
10, 29040, Note_on_c, 8, 50, 0
10, 29040, Note_on_c, 8, 55, 65
10, 29520, Note_on_c, 8, 55, 0
10, 29520, Note_on_c, 8, 54, 68
10, 29760, Note_on_c, 8, 54, 0
10, 29760, Note_on_c, 8, 52, 70
10, 30000, Note_on_c, 8, 52, 0
10, 30000, Note_on_c, 8, 57, 71
10, 30240, Note_on_c, 8, 57, 0
10, 30240, Note_on_c, 8, 50, 72
10, 30360, Note_on_c, 8, 50, 0
10, 30360, Note_on_c, 8, 54, 64
10, 30480, Note_on_c, 8, 54, 0
10, 30480, Note_on_c, 8, 59, 74
10, 30840, Note_on_c, 8, 59, 0
10, 30840, Note_on_c, 8, 61, 75
10, 30960, Note_on_c, 8, 61, 0
10, 30960, Note_on_c, 8, 62, 76
10, 31020, Note_on_c, 8, 62, 0
10, 31020, Note_on_c, 8, 60, 76
10, 31080, Note_on_c, 8, 60, 0
10, 31080, Note_on_c, 8, 59, 76
10, 31140, Note_on_c, 8, 59, 0
10, 31140, Note_on_c, 8, 57, 76
10, 31200, Note_on_c, 8, 57, 0
10, 31200, Note_on_c, 8, 55, 76
10, 31320, Note_on_c, 8, 55, 0
10, 31320, Note_on_c, 8, 52, 77
10, 31440, Note_on_c, 8, 52, 0
10, 31440, Note_on_c, 8, 57, 77
10, 31680, Note_on_c, 8, 57, 0
10, 31680, Note_on_c, 8, 50, 78
10, 32160, Note_on_c, 8, 50, 0
10, 32160, Note_on_c, 8, 57, 79
10, 32400, Note_on_c, 8, 57, 0
10, 32400, Note_on_c, 8, 59, 79
10, 32640, Note_on_c, 8, 59, 0
10, 32640, Note_on_c, 8, 55, 80
10, 32880, Note_on_c, 8, 55, 0
10, 32880, Note_on_c, 8, 57, 81
10, 33120, Note_on_c, 8, 57, 0
10, 33120, Note_on_c, 8, 59, 83
10, 33360, Note_on_c, 8, 59, 0
10, 33360, Note_on_c, 8, 61, 84
10, 33600, Note_on_c, 8, 61, 0
10, 33600, Note_on_c, 8, 62, 85
10, 33840, Note_on_c, 8, 62, 0
10, 33840, Note_on_c, 8, 61, 86
10, 33960, Note_on_c, 8, 61, 0
10, 33960, Note_on_c, 8, 59, 87
10, 34080, Note_on_c, 8, 59, 0
10, 34080, Note_on_c, 8, 45, 88
10, 34560, Note_on_c, 8, 45, 0
10, 34560, Note_on_c, 8, 47, 90
10, 34800, Note_on_c, 8, 47, 0
10, 34800, Note_on_c, 8, 49, 90
10, 35040, Note_on_c, 8, 49, 0
10, 35040, Note_on_c, 8, 50, 90
10, 35280, Note_on_c, 8, 50, 0
10, 35280, Note_on_c, 8, 49, 90
10, 35400, Note_on_c, 8, 49, 0
10, 35400, Note_on_c, 8, 47, 90
10, 35520, Note_on_c, 8, 47, 0
10, 35520, Note_on_c, 8, 49, 90
10, 35640, Note_on_c, 8, 49, 0
10, 35640, Note_on_c, 8, 45, 90
10, 35760, Note_on_c, 8, 45, 0
10, 35760, Note_on_c, 8, 50, 90
10, 36240, Note_on_c, 8, 50, 0
10, 36240, Note_on_c, 8, 49, 90
10, 36360, Note_on_c, 8, 49, 0
10, 36360, Note_on_c, 8, 49, 80
10, 36480, Note_on_c, 8, 49, 0
10, 36480, Note_on_c, 8, 47, 86
10, 36960, Note_on_c, 8, 47, 0
10, 36960, Note_on_c, 8, 45, 80
10, 37200, Note_on_c, 8, 45, 0
10, 37200, Note_on_c, 8, 57, 104
10, 37560, Note_on_c, 8, 57, 0
10, 37560, Note_on_c, 8, 57, 75
10, 37680, Note_on_c, 8, 57, 0
10, 37680, Note_on_c, 8, 56, 75
10, 37800, Note_on_c, 8, 56, 0
10, 37800, Note_on_c, 8, 56, 75
10, 37920, Note_on_c, 8, 56, 0
10, 37920, Note_on_c, 8, 57, 75
10, 37980, Note_on_c, 8, 57, 0
10, 37980, Note_on_c, 8, 59, 75
10, 38040, Note_on_c, 8, 59, 0
10, 38040, Note_on_c, 8, 57, 75
10, 38100, Note_on_c, 8, 57, 0
10, 38100, Note_on_c, 8, 55, 75
10, 38160, Note_on_c, 8, 55, 0
10, 38160, Note_on_c, 8, 54, 75
10, 38220, Note_on_c, 8, 54, 0
10, 38220, Note_on_c, 8, 55, 75
10, 38280, Note_on_c, 8, 55, 0
10, 38280, Note_on_c, 8, 52, 75
10, 38340, Note_on_c, 8, 52, 0
10, 38340, Note_on_c, 8, 54, 75
10, 38400, Note_on_c, 8, 54, 0
10, 38400, Note_on_c, 8, 56, 76
10, 38460, Note_on_c, 8, 56, 0
10, 38460, Note_on_c, 8, 57, 76
10, 38520, Note_on_c, 8, 57, 0
10, 38520, Note_on_c, 8, 54, 77
10, 38580, Note_on_c, 8, 54, 0
10, 38580, Note_on_c, 8, 56, 77
10, 38640, Note_on_c, 8, 56, 0
10, 38640, Note_on_c, 8, 58, 77
10, 38700, Note_on_c, 8, 58, 0
10, 38700, Note_on_c, 8, 59, 78
10, 38760, Note_on_c, 8, 59, 0
10, 38760, Note_on_c, 8, 56, 78
10, 38820, Note_on_c, 8, 56, 0
10, 38820, Note_on_c, 8, 58, 78
10, 38880, Note_on_c, 8, 58, 0
10, 38880, Note_on_c, 8, 59, 79
10, 39480, Note_on_c, 8, 59, 0
10, 39480, Note_on_c, 8, 57, 82
10, 39540, Note_on_c, 8, 57, 0
10, 39540, Note_on_c, 8, 55, 82
10, 39600, Note_on_c, 8, 55, 0
10, 39600, Note_on_c, 8, 57, 82
10, 39660, Note_on_c, 8, 57, 0
10, 39660, Note_on_c, 8, 59, 83
10, 39720, Note_on_c, 8, 59, 0
10, 39720, Note_on_c, 8, 61, 83
10, 39780, Note_on_c, 8, 61, 0
10, 39780, Note_on_c, 8, 57, 83
10, 39840, Note_on_c, 8, 57, 0
10, 39840, Note_on_c, 8, 62, 84
10, 39960, Note_on_c, 8, 62, 0
10, 39960, Note_on_c, 8, 57, 84
10, 40080, Note_on_c, 8, 57, 0
10, 40080, Note_on_c, 8, 62, 85
10, 40560, Note_on_c, 8, 62, 0
10, 40560, Note_on_c, 8, 60, 86
10, 40800, Note_on_c, 8, 60, 0
10, 40800, Note_on_c, 8, 59, 87
10, 41520, Note_on_c, 8, 59, 0
10, 41520, Note_on_c, 8, 57, 89
10, 41760, Note_on_c, 8, 57, 0
10, 41760, Note_on_c, 8, 56, 90
10, 42240, Note_on_c, 8, 56, 0
10, 42240, Note_on_c, 8, 57, 91
10, 42600, Note_on_c, 8, 57, 0
10, 42600, Note_on_c, 8, 50, 92
10, 42720, Note_on_c, 8, 50, 0
10, 42720, Note_on_c, 8, 55, 93
10, 42840, Note_on_c, 8, 55, 0
10, 42840, Note_on_c, 8, 54, 93
10, 42960, Note_on_c, 8, 54, 0
10, 42960, Note_on_c, 8, 55, 93
10, 43080, Note_on_c, 8, 55, 0
10, 43080, Note_on_c, 8, 52, 94
10, 43200, Note_on_c, 8, 52, 0
10, 43200, Note_on_c, 8, 54, 94
10, 43560, Note_on_c, 8, 54, 0
10, 43560, Note_on_c, 8, 55, 95
10, 43680, Note_on_c, 8, 55, 0
10, 43680, Note_on_c, 8, 57, 96
10, 43920, Note_on_c, 8, 57, 0
10, 43920, Note_on_c, 8, 45, 96
10, 44160, Note_on_c, 8, 45, 0
10, 44160, Note_on_c, 8, 38, 97
10, 45120, Note_on_c, 8, 38, 0
10, 46080, End_track
11, 0, Start_track
11, 0, MIDI_port, 0
11, 0, Title_t, "Soprano II"
11, 0, Program_c, 10, 52
11, 3120, Note_on_c, 10, 69, 40
11, 3360, Note_on_c, 10, 69, 0
11, 3360, Note_on_c, 10, 71, 40
11, 3600, Note_on_c, 10, 71, 0
11, 3600, Note_on_c, 10, 73, 40
11, 3840, Note_on_c, 10, 73, 0
11, 3840, Note_on_c, 10, 74, 40
11, 4080, Note_on_c, 10, 74, 0
11, 4080, Note_on_c, 10, 73, 40
11, 4200, Note_on_c, 10, 73, 0
11, 4200, Note_on_c, 10, 71, 40
11, 4320, Note_on_c, 10, 71, 0
11, 4320, Note_on_c, 10, 73, 40
11, 4440, Note_on_c, 10, 73, 0
11, 4440, Note_on_c, 10, 69, 40
11, 4560, Note_on_c, 10, 69, 0
11, 4560, Note_on_c, 10, 74, 40
11, 5040, Note_on_c, 10, 74, 0
11, 5040, Note_on_c, 10, 73, 40
11, 5160, Note_on_c, 10, 73, 0
11, 5160, Note_on_c, 10, 73, 40
11, 5280, Note_on_c, 10, 73, 0
11, 5280, Note_on_c, 10, 71, 40
11, 5760, Note_on_c, 10, 71, 0
11, 5760, Note_on_c, 10, 69, 40
11, 6240, Note_on_c, 10, 69, 0
11, 6960, Note_on_c, 10, 74, 47
11, 7320, Note_on_c, 10, 74, 0
11, 7320, Note_on_c, 10, 74, 40
11, 7440, Note_on_c, 10, 74, 0
11, 7440, Note_on_c, 10, 73, 40
11, 7560, Note_on_c, 10, 73, 0
11, 7560, Note_on_c, 10, 73, 40
11, 7680, Note_on_c, 10, 73, 0
11, 7680, Note_on_c, 10, 74, 40
11, 7800, Note_on_c, 10, 74, 0
11, 7800, Note_on_c, 10, 73, 40
11, 7860, Note_on_c, 10, 73, 0
11, 7860, Note_on_c, 10, 71, 40
11, 7920, Note_on_c, 10, 71, 0
11, 7920, Note_on_c, 10, 69, 40
11, 7980, Note_on_c, 10, 69, 0
11, 7980, Note_on_c, 10, 71, 40
11, 8040, Note_on_c, 10, 71, 0
11, 8040, Note_on_c, 10, 67, 40
11, 8100, Note_on_c, 10, 67, 0
11, 8100, Note_on_c, 10, 69, 40
11, 8160, Note_on_c, 10, 69, 0
11, 8160, Note_on_c, 10, 71, 40
11, 8220, Note_on_c, 10, 71, 0
11, 8220, Note_on_c, 10, 69, 40
11, 8280, Note_on_c, 10, 69, 0
11, 8280, Note_on_c, 10, 71, 40
11, 8340, Note_on_c, 10, 71, 0
11, 8340, Note_on_c, 10, 72, 40
11, 8400, Note_on_c, 10, 72, 0
11, 8400, Note_on_c, 10, 71, 40
11, 8460, Note_on_c, 10, 71, 0
11, 8460, Note_on_c, 10, 72, 40
11, 8520, Note_on_c, 10, 72, 0
11, 8520, Note_on_c, 10, 71, 40
11, 8580, Note_on_c, 10, 71, 0
11, 8580, Note_on_c, 10, 69, 40
11, 8640, Note_on_c, 10, 69, 0
11, 8640, Note_on_c, 10, 67, 40
11, 8760, Note_on_c, 10, 67, 0
11, 8760, Note_on_c, 10, 66, 40
11, 8820, Note_on_c, 10, 66, 0
11, 8820, Note_on_c, 10, 64, 40
11, 8880, Note_on_c, 10, 64, 0
11, 8880, Note_on_c, 10, 69, 40
11, 9120, Note_on_c, 10, 69, 0
11, 9120, Note_on_c, 10, 62, 40
11, 9360, Note_on_c, 10, 62, 0
11, 10320, Note_on_c, 10, 69, 68
11, 10560, Note_on_c, 10, 69, 0
11, 10560, Note_on_c, 10, 71, 70
11, 10800, Note_on_c, 10, 71, 0
11, 10800, Note_on_c, 10, 73, 71
11, 11040, Note_on_c, 10, 73, 0
11, 11040, Note_on_c, 10, 74, 72
11, 11280, Note_on_c, 10, 74, 0
11, 11280, Note_on_c, 10, 73, 74
11, 11400, Note_on_c, 10, 73, 0
11, 11400, Note_on_c, 10, 71, 74
11, 11520, Note_on_c, 10, 71, 0
11, 11520, Note_on_c, 10, 73, 74
11, 11640, Note_on_c, 10, 73, 0
11, 11640, Note_on_c, 10, 66, 74
11, 11760, Note_on_c, 10, 66, 0
11, 11760, Note_on_c, 10, 78, 74
11, 12120, Note_on_c, 10, 78, 0
11, 12120, Note_on_c, 10, 71, 74
11, 12240, Note_on_c, 10, 71, 0
11, 12240, Note_on_c, 10, 76, 74
11, 12600, Note_on_c, 10, 76, 0
11, 12600, Note_on_c, 10, 74, 74
11, 12840, Note_on_c, 10, 74, 0
11, 12840, Note_on_c, 10, 79, 74
11, 12960, Note_on_c, 10, 79, 0
11, 12960, Note_on_c, 10, 73, 74
11, 13080, Note_on_c, 10, 73, 0
11, 13080, Note_on_c, 10, 76, 74
11, 13200, Note_on_c, 10, 76, 0
11, 13200, Note_on_c, 10, 74, 74
11, 13320, Note_on_c, 10, 74, 0
11, 13320, Note_on_c, 10, 73, 74
11, 13440, Note_on_c, 10, 73, 0
11, 13440, Note_on_c, 10, 71, 74
11, 13680, Note_on_c, 10, 71, 0
11, 13680, Note_on_c, 10, 71, 75
11, 13920, Note_on_c, 10, 71, 0
11, 14880, Note_on_c, 10, 74, 80
11, 15360, Note_on_c, 10, 74, 0
11, 15360, Note_on_c, 10, 76, 81
11, 15600, Note_on_c, 10, 76, 0
11, 15600, Note_on_c, 10, 78, 82
11, 15840, Note_on_c, 10, 78, 0
11, 15840, Note_on_c, 10, 79, 83
11, 16080, Note_on_c, 10, 79, 0
11, 16080, Note_on_c, 10, 78, 84
11, 16200, Note_on_c, 10, 78, 0
11, 16200, Note_on_c, 10, 76, 85
11, 16320, Note_on_c, 10, 76, 0
11, 16320, Note_on_c, 10, 78, 85
11, 16440, Note_on_c, 10, 78, 0
11, 16440, Note_on_c, 10, 74, 85
11, 16560, Note_on_c, 10, 74, 0
11, 16560, Note_on_c, 10, 79, 85
11, 17040, Note_on_c, 10, 79, 0
11, 17040, Note_on_c, 10, 78, 85
11, 17160, Note_on_c, 10, 78, 0
11, 17160, Note_on_c, 10, 78, 85
11, 17280, Note_on_c, 10, 78, 0
11, 17280, Note_on_c, 10, 76, 80
11, 17760, Note_on_c, 10, 76, 0
11, 17760, Note_on_c, 10, 74, 72
11, 18240, Note_on_c, 10, 74, 0
11, 18960, Note_on_c, 10, 76, 90
11, 19320, Note_on_c, 10, 76, 0
11, 19320, Note_on_c, 10, 76, 64
11, 19440, Note_on_c, 10, 76, 0
11, 19440, Note_on_c, 10, 75, 64
11, 19560, Note_on_c, 10, 75, 0
11, 19560, Note_on_c, 10, 75, 64
11, 19680, Note_on_c, 10, 75, 0
11, 19680, Note_on_c, 10, 76, 64
11, 19800, Note_on_c, 10, 76, 0
11, 19800, Note_on_c, 10, 74, 64
11, 19860, Note_on_c, 10, 74, 0
11, 19860, Note_on_c, 10, 72, 64
11, 19920, Note_on_c, 10, 72, 0
11, 19920, Note_on_c, 10, 71, 64
11, 19980, Note_on_c, 10, 71, 0
11, 19980, Note_on_c, 10, 72, 64
11, 20040, Note_on_c, 10, 72, 0
11, 20040, Note_on_c, 10, 69, 64
11, 20100, Note_on_c, 10, 69, 0
11, 20100, Note_on_c, 10, 71, 64
11, 20160, Note_on_c, 10, 71, 0
11, 20160, Note_on_c, 10, 72, 64
11, 20220, Note_on_c, 10, 72, 0
11, 20220, Note_on_c, 10, 71, 64
11, 20280, Note_on_c, 10, 71, 0
11, 20280, Note_on_c, 10, 72, 64
11, 20340, Note_on_c, 10, 72, 0
11, 20340, Note_on_c, 10, 74, 64
11, 20400, Note_on_c, 10, 74, 0
11, 20400, Note_on_c, 10, 72, 64
11, 20460, Note_on_c, 10, 72, 0
11, 20460, Note_on_c, 10, 76, 64
11, 20520, Note_on_c, 10, 76, 0
11, 20520, Note_on_c, 10, 74, 64
11, 20580, Note_on_c, 10, 74, 0
11, 20580, Note_on_c, 10, 72, 64
11, 20640, Note_on_c, 10, 72, 0
11, 20640, Note_on_c, 10, 71, 64
11, 20760, Note_on_c, 10, 71, 0
11, 20760, Note_on_c, 10, 73, 64
11, 20820, Note_on_c, 10, 73, 0
11, 20820, Note_on_c, 10, 73, 64
11, 20880, Note_on_c, 10, 73, 0
11, 20880, Note_on_c, 10, 74, 64
11, 21120, Note_on_c, 10, 74, 0
11, 21120, Note_on_c, 10, 67, 64
11, 21240, Note_on_c, 10, 67, 0
11, 21360, Note_on_c, 10, 73, 90
11, 21720, Note_on_c, 10, 73, 0
11, 21720, Note_on_c, 10, 73, 64
11, 21840, Note_on_c, 10, 73, 0
11, 21840, Note_on_c, 10, 71, 64
11, 21960, Note_on_c, 10, 71, 0
11, 21960, Note_on_c, 10, 71, 64
11, 22080, Note_on_c, 10, 71, 0
11, 22080, Note_on_c, 10, 76, 64
11, 22200, Note_on_c, 10, 76, 0
11, 22200, Note_on_c, 10, 76, 64
11, 22260, Note_on_c, 10, 76, 0
11, 22260, Note_on_c, 10, 76, 64
11, 22320, Note_on_c, 10, 76, 0
11, 22320, Note_on_c, 10, 69, 64
11, 22560, Note_on_c, 10, 69, 0
11, 22560, Note_on_c, 10, 69, 64
11, 22680, Note_on_c, 10, 69, 0
11, 22800, Note_on_c, 10, 78, 90
11, 23160, Note_on_c, 10, 78, 0
11, 23160, Note_on_c, 10, 78, 64
11, 23280, Note_on_c, 10, 78, 0
11, 23280, Note_on_c, 10, 77, 64
11, 23400, Note_on_c, 10, 77, 0
11, 23400, Note_on_c, 10, 77, 64
11, 23520, Note_on_c, 10, 77, 0
11, 23520, Note_on_c, 10, 78, 64
11, 23640, Note_on_c, 10, 78, 0
11, 23640, Note_on_c, 10, 76, 64
11, 23700, Note_on_c, 10, 76, 0
11, 23700, Note_on_c, 10, 74, 64
11, 23760, Note_on_c, 10, 74, 0
11, 23760, Note_on_c, 10, 73, 64
11, 23820, Note_on_c, 10, 73, 0
11, 23820, Note_on_c, 10, 74, 64
11, 23880, Note_on_c, 10, 74, 0
11, 23880, Note_on_c, 10, 71, 64
11, 23940, Note_on_c, 10, 71, 0
11, 23940, Note_on_c, 10, 73, 64
11, 24000, Note_on_c, 10, 73, 0
11, 24000, Note_on_c, 10, 74, 64
11, 24060, Note_on_c, 10, 74, 0
11, 24060, Note_on_c, 10, 73, 64
11, 24120, Note_on_c, 10, 73, 0
11, 24120, Note_on_c, 10, 74, 64
11, 24180, Note_on_c, 10, 74, 0
11, 24180, Note_on_c, 10, 76, 64
11, 24240, Note_on_c, 10, 76, 0
11, 24240, Note_on_c, 10, 74, 64
11, 24300, Note_on_c, 10, 74, 0
11, 24300, Note_on_c, 10, 78, 64
11, 24360, Note_on_c, 10, 78, 0
11, 24360, Note_on_c, 10, 76, 64
11, 24420, Note_on_c, 10, 76, 0
11, 24420, Note_on_c, 10, 74, 64
11, 24480, Note_on_c, 10, 74, 0
11, 24480, Note_on_c, 10, 73, 64
11, 24600, Note_on_c, 10, 73, 0
11, 24600, Note_on_c, 10, 73, 64
11, 24660, Note_on_c, 10, 73, 0
11, 24660, Note_on_c, 10, 73, 64
11, 24720, Note_on_c, 10, 73, 0
11, 24720, Note_on_c, 10, 78, 64
11, 24960, Note_on_c, 10, 78, 0
11, 24960, Note_on_c, 10, 71, 64
11, 25200, Note_on_c, 10, 71, 0
11, 25680, Note_on_c, 10, 74, 64
11, 25920, Note_on_c, 10, 74, 0
11, 25920, Note_on_c, 10, 76, 64
11, 26160, Note_on_c, 10, 76, 0
11, 26160, Note_on_c, 10, 78, 64
11, 26400, Note_on_c, 10, 78, 0
11, 26400, Note_on_c, 10, 79, 64
11, 26640, Note_on_c, 10, 79, 0
11, 26640, Note_on_c, 10, 78, 64
11, 26760, Note_on_c, 10, 78, 0
11, 26760, Note_on_c, 10, 76, 64
11, 26880, Note_on_c, 10, 76, 0
11, 26880, Note_on_c, 10, 78, 64
11, 27000, Note_on_c, 10, 78, 0
11, 27000, Note_on_c, 10, 74, 64
11, 27120, Note_on_c, 10, 74, 0
11, 27120, Note_on_c, 10, 79, 64
11, 27600, Note_on_c, 10, 79, 0
11, 27600, Note_on_c, 10, 78, 64
11, 27720, Note_on_c, 10, 78, 0
11, 27720, Note_on_c, 10, 78, 64
11, 27840, Note_on_c, 10, 78, 0
11, 27840, Note_on_c, 10, 76, 64
11, 27960, Note_on_c, 10, 76, 0
11, 27960, Note_on_c, 10, 76, 64
11, 28080, Note_on_c, 10, 76, 0
11, 28080, Note_on_c, 10, 74, 64
11, 28440, Note_on_c, 10, 74, 0
11, 28440, Note_on_c, 10, 71, 64
11, 28560, Note_on_c, 10, 71, 0
11, 28560, Note_on_c, 10, 71, 64
11, 28680, Note_on_c, 10, 71, 0
11, 28680, Note_on_c, 10, 71, 64
11, 28800, Note_on_c, 10, 71, 0
11, 28800, Note_on_c, 10, 69, 64
11, 28920, Note_on_c, 10, 69, 0
11, 28920, Note_on_c, 10, 69, 65
11, 28980, Note_on_c, 10, 69, 0
11, 28980, Note_on_c, 10, 69, 65
11, 29040, Note_on_c, 10, 69, 0
11, 29040, Note_on_c, 10, 71, 65
11, 29280, Note_on_c, 10, 71, 0
11, 29280, Note_on_c, 10, 64, 67
11, 29400, Note_on_c, 10, 64, 0
11, 29520, Note_on_c, 10, 69, 68
11, 29760, Note_on_c, 10, 69, 0
11, 29760, Note_on_c, 10, 71, 70
11, 30000, Note_on_c, 10, 71, 0
11, 30000, Note_on_c, 10, 73, 71
11, 30240, Note_on_c, 10, 73, 0
11, 30240, Note_on_c, 10, 74, 72
11, 30480, Note_on_c, 10, 74, 0
11, 30480, Note_on_c, 10, 73, 74
11, 30600, Note_on_c, 10, 73, 0
11, 30600, Note_on_c, 10, 71, 74
11, 30720, Note_on_c, 10, 71, 0
11, 30720, Note_on_c, 10, 73, 75
11, 30840, Note_on_c, 10, 73, 0
11, 30840, Note_on_c, 10, 69, 75
11, 30960, Note_on_c, 10, 69, 0
11, 30960, Note_on_c, 10, 74, 76
11, 31440, Note_on_c, 10, 74, 0
11, 31440, Note_on_c, 10, 73, 77
11, 31560, Note_on_c, 10, 73, 0
11, 31560, Note_on_c, 10, 73, 77
11, 31680, Note_on_c, 10, 73, 0
11, 31680, Note_on_c, 10, 71, 78
11, 32160, Note_on_c, 10, 71, 0
11, 32160, Note_on_c, 10, 69, 79
11, 32640, Note_on_c, 10, 69, 0
11, 33600, Note_on_c, 10, 74, 85
11, 34080, Note_on_c, 10, 74, 0
11, 34080, Note_on_c, 10, 76, 88
11, 34320, Note_on_c, 10, 76, 0
11, 34320, Note_on_c, 10, 78, 89
11, 34560, Note_on_c, 10, 78, 0
11, 34560, Note_on_c, 10, 79, 90
11, 34800, Note_on_c, 10, 79, 0
11, 34800, Note_on_c, 10, 78, 90
11, 34920, Note_on_c, 10, 78, 0
11, 34920, Note_on_c, 10, 76, 90
11, 35040, Note_on_c, 10, 76, 0
11, 35040, Note_on_c, 10, 78, 90
11, 35160, Note_on_c, 10, 78, 0
11, 35160, Note_on_c, 10, 74, 90
11, 35280, Note_on_c, 10, 74, 0
11, 35280, Note_on_c, 10, 79, 90
11, 35760, Note_on_c, 10, 79, 0
11, 35760, Note_on_c, 10, 78, 90
11, 35880, Note_on_c, 10, 78, 0
11, 35880, Note_on_c, 10, 78, 90
11, 36000, Note_on_c, 10, 78, 0
11, 36000, Note_on_c, 10, 76, 90
11, 36480, Note_on_c, 10, 76, 0
11, 36480, Note_on_c, 10, 74, 86
11, 36720, Note_on_c, 10, 74, 0
11, 36720, Note_on_c, 10, 74, 109
11, 37080, Note_on_c, 10, 74, 0
11, 37080, Note_on_c, 10, 74, 79
11, 37200, Note_on_c, 10, 74, 0
11, 37200, Note_on_c, 10, 73, 78
11, 37320, Note_on_c, 10, 73, 0
11, 37320, Note_on_c, 10, 73, 76
11, 37440, Note_on_c, 10, 73, 0
11, 37440, Note_on_c, 10, 74, 75
11, 37500, Note_on_c, 10, 74, 0
11, 37500, Note_on_c, 10, 76, 75
11, 37560, Note_on_c, 10, 76, 0
11, 37560, Note_on_c, 10, 74, 75
11, 37620, Note_on_c, 10, 74, 0
11, 37620, Note_on_c, 10, 73, 75
11, 37680, Note_on_c, 10, 73, 0
11, 37680, Note_on_c, 10, 71, 75
11, 37740, Note_on_c, 10, 71, 0
11, 37740, Note_on_c, 10, 73, 75
11, 37800, Note_on_c, 10, 73, 0
11, 37800, Note_on_c, 10, 69, 75
11, 37860, Note_on_c, 10, 69, 0
11, 37860, Note_on_c, 10, 71, 75
11, 37920, Note_on_c, 10, 71, 0
11, 37920, Note_on_c, 10, 73, 75
11, 37980, Note_on_c, 10, 73, 0
11, 37980, Note_on_c, 10, 74, 75
11, 38040, Note_on_c, 10, 74, 0
11, 38040, Note_on_c, 10, 71, 75
11, 38100, Note_on_c, 10, 71, 0
11, 38100, Note_on_c, 10, 73, 75
11, 38160, Note_on_c, 10, 73, 0
11, 38160, Note_on_c, 10, 75, 75
11, 38220, Note_on_c, 10, 75, 0
11, 38220, Note_on_c, 10, 76, 75
11, 38280, Note_on_c, 10, 76, 0
11, 38280, Note_on_c, 10, 73, 75
11, 38340, Note_on_c, 10, 73, 0
11, 38340, Note_on_c, 10, 75, 75
11, 38400, Note_on_c, 10, 75, 0
11, 38400, Note_on_c, 10, 76, 76
11, 39000, Note_on_c, 10, 76, 0
11, 39000, Note_on_c, 10, 74, 79
11, 39060, Note_on_c, 10, 74, 0
11, 39060, Note_on_c, 10, 73, 79
11, 39120, Note_on_c, 10, 73, 0
11, 39120, Note_on_c, 10, 74, 80
11, 39180, Note_on_c, 10, 74, 0
11, 39180, Note_on_c, 10, 76, 80
11, 39240, Note_on_c, 10, 76, 0
11, 39240, Note_on_c, 10, 78, 80
11, 39300, Note_on_c, 10, 78, 0
11, 39300, Note_on_c, 10, 74, 81
11, 39360, Note_on_c, 10, 74, 0
11, 39360, Note_on_c, 10, 79, 81
11, 40080, Note_on_c, 10, 79, 0
11, 40080, Note_on_c, 10, 78, 85
11, 40200, Note_on_c, 10, 78, 0
11, 40200, Note_on_c, 10, 78, 85
11, 40320, Note_on_c, 10, 78, 0
11, 40320, Note_on_c, 10, 76, 85
11, 41280, Note_on_c, 10, 76, 0
11, 41280, Note_on_c, 10, 74, 88
11, 41520, Note_on_c, 10, 74, 0
11, 41640, Note_on_c, 10, 74, 89
11, 41760, Note_on_c, 10, 74, 0
11, 41760, Note_on_c, 10, 76, 90
11, 41880, Note_on_c, 10, 76, 0
11, 41880, Note_on_c, 10, 76, 90
11, 42060, Note_on_c, 10, 76, 0
11, 42060, Note_on_c, 10, 78, 90
11, 42120, Note_on_c, 10, 78, 0
11, 42120, Note_on_c, 10, 76, 91
11, 42180, Note_on_c, 10, 76, 0
11, 42180, Note_on_c, 10, 74, 91
11, 42240, Note_on_c, 10, 74, 0
11, 42240, Note_on_c, 10, 73, 91
11, 42360, Note_on_c, 10, 73, 0
11, 42360, Note_on_c, 10, 69, 91
11, 42480, Note_on_c, 10, 69, 0
11, 42480, Note_on_c, 10, 78, 92
11, 42960, Note_on_c, 10, 78, 0
11, 42960, Note_on_c, 10, 76, 93
11, 43320, Note_on_c, 10, 76, 0
11, 43320, Note_on_c, 10, 69, 94
11, 43440, Note_on_c, 10, 69, 0
11, 43440, Note_on_c, 10, 74, 95
11, 43800, Note_on_c, 10, 74, 0
11, 43800, Note_on_c, 10, 73, 96
11, 43860, Note_on_c, 10, 73, 0
11, 43860, Note_on_c, 10, 71, 96
11, 43920, Note_on_c, 10, 71, 0
11, 43920, Note_on_c, 10, 73, 96
11, 44160, Note_on_c, 10, 73, 0
11, 44160, Note_on_c, 10, 74, 97
11, 45120, Note_on_c, 10, 74, 0
11, 46080, End_track
12, 0, Start_track
12, 0, MIDI_port, 0
12, 0, Title_t, "Alto"
12, 0, Program_c, 11, 52
12, 2640, Note_on_c, 11, 62, 40
12, 2880, Note_on_c, 11, 62, 0
12, 2880, Note_on_c, 11, 64, 40
12, 3120, Note_on_c, 11, 64, 0
12, 3120, Note_on_c, 11, 66, 40
12, 3360, Note_on_c, 11, 66, 0
12, 3360, Note_on_c, 11, 67, 40
12, 3600, Note_on_c, 11, 67, 0
12, 3600, Note_on_c, 11, 66, 40
12, 3720, Note_on_c, 11, 66, 0
12, 3720, Note_on_c, 11, 64, 40
12, 3840, Note_on_c, 11, 64, 0
12, 3840, Note_on_c, 11, 66, 40
12, 3960, Note_on_c, 11, 66, 0
12, 3960, Note_on_c, 11, 62, 40
12, 4080, Note_on_c, 11, 62, 0
12, 4080, Note_on_c, 11, 67, 40
12, 4560, Note_on_c, 11, 67, 0
12, 4560, Note_on_c, 11, 66, 40
12, 4680, Note_on_c, 11, 66, 0
12, 4680, Note_on_c, 11, 66, 40
12, 4800, Note_on_c, 11, 66, 0
12, 4800, Note_on_c, 11, 64, 40
12, 5280, Note_on_c, 11, 64, 0
12, 5280, Note_on_c, 11, 62, 40
12, 5760, Note_on_c, 11, 62, 0
12, 6480, Note_on_c, 11, 69, 66
12, 6840, Note_on_c, 11, 69, 0
12, 6840, Note_on_c, 11, 69, 40
12, 6960, Note_on_c, 11, 69, 0
12, 6960, Note_on_c, 11, 68, 47
12, 7080, Note_on_c, 11, 68, 0
12, 7080, Note_on_c, 11, 68, 40
12, 7200, Note_on_c, 11, 68, 0
12, 7200, Note_on_c, 11, 69, 40
12, 7320, Note_on_c, 11, 69, 0
12, 7320, Note_on_c, 11, 67, 40
12, 7380, Note_on_c, 11, 67, 0
12, 7380, Note_on_c, 11, 66, 40
12, 7440, Note_on_c, 11, 66, 0
12, 7440, Note_on_c, 11, 64, 40
12, 7500, Note_on_c, 11, 64, 0
12, 7500, Note_on_c, 11, 66, 40
12, 7560, Note_on_c, 11, 66, 0
12, 7560, Note_on_c, 11, 62, 40
12, 7620, Note_on_c, 11, 62, 0
12, 7620, Note_on_c, 11, 64, 40
12, 7680, Note_on_c, 11, 64, 0
12, 7680, Note_on_c, 11, 66, 40
12, 7740, Note_on_c, 11, 66, 0
12, 7740, Note_on_c, 11, 64, 40
12, 7800, Note_on_c, 11, 64, 0
12, 7800, Note_on_c, 11, 66, 40
12, 7860, Note_on_c, 11, 66, 0
12, 7860, Note_on_c, 11, 67, 40
12, 7920, Note_on_c, 11, 67, 0
12, 7920, Note_on_c, 11, 66, 40
12, 7980, Note_on_c, 11, 66, 0
12, 7980, Note_on_c, 11, 67, 40
12, 8040, Note_on_c, 11, 67, 0
12, 8040, Note_on_c, 11, 66, 40
12, 8100, Note_on_c, 11, 66, 0
12, 8100, Note_on_c, 11, 64, 40
12, 8160, Note_on_c, 11, 64, 0
12, 8160, Note_on_c, 11, 62, 40
12, 8280, Note_on_c, 11, 62, 0
12, 8280, Note_on_c, 11, 61, 40
12, 8340, Note_on_c, 11, 61, 0
12, 8340, Note_on_c, 11, 59, 40
12, 8400, Note_on_c, 11, 59, 0
12, 8400, Note_on_c, 11, 66, 40
12, 8640, Note_on_c, 11, 66, 0
12, 8640, Note_on_c, 11, 59, 40
12, 8880, Note_on_c, 11, 59, 0
12, 9840, Note_on_c, 11, 62, 65
12, 10080, Note_on_c, 11, 62, 0
12, 10080, Note_on_c, 11, 64, 67
12, 10320, Note_on_c, 11, 64, 0
12, 10320, Note_on_c, 11, 66, 68
12, 10560, Note_on_c, 11, 66, 0
12, 10560, Note_on_c, 11, 67, 70
12, 10800, Note_on_c, 11, 67, 0
12, 10800, Note_on_c, 11, 66, 71
12, 10920, Note_on_c, 11, 66, 0
12, 10920, Note_on_c, 11, 64, 72
12, 11040, Note_on_c, 11, 64, 0
12, 11040, Note_on_c, 11, 66, 72
12, 11160, Note_on_c, 11, 66, 0
12, 11160, Note_on_c, 11, 59, 73
12, 11280, Note_on_c, 11, 59, 0
12, 11280, Note_on_c, 11, 71, 74
12, 11640, Note_on_c, 11, 71, 0
12, 11640, Note_on_c, 11, 69, 74
12, 11880, Note_on_c, 11, 69, 0
12, 11880, Note_on_c, 11, 74, 74
12, 12000, Note_on_c, 11, 74, 0
12, 12000, Note_on_c, 11, 67, 74
12, 12120, Note_on_c, 11, 67, 0
12, 12120, Note_on_c, 11, 71, 74
12, 12240, Note_on_c, 11, 71, 0
12, 12240, Note_on_c, 11, 69, 74
12, 12360, Note_on_c, 11, 69, 0
12, 12360, Note_on_c, 11, 67, 74
12, 12480, Note_on_c, 11, 67, 0
12, 12480, Note_on_c, 11, 66, 74
12, 12720, Note_on_c, 11, 66, 0
12, 12720, Note_on_c, 11, 66, 74
12, 12960, Note_on_c, 11, 66, 0
12, 13920, Note_on_c, 11, 69, 76
12, 14400, Note_on_c, 11, 69, 0
12, 14400, Note_on_c, 11, 71, 78
12, 14640, Note_on_c, 11, 71, 0
12, 14640, Note_on_c, 11, 73, 79
12, 14880, Note_on_c, 11, 73, 0
12, 14880, Note_on_c, 11, 74, 80
12, 15120, Note_on_c, 11, 74, 0
12, 15120, Note_on_c, 11, 73, 80
12, 15240, Note_on_c, 11, 73, 0
12, 15240, Note_on_c, 11, 71, 81
12, 15360, Note_on_c, 11, 71, 0
12, 15360, Note_on_c, 11, 73, 81
12, 15480, Note_on_c, 11, 73, 0
12, 15480, Note_on_c, 11, 69, 82
12, 15600, Note_on_c, 11, 69, 0
12, 15600, Note_on_c, 11, 74, 82
12, 16080, Note_on_c, 11, 74, 0
12, 16080, Note_on_c, 11, 73, 84
12, 16200, Note_on_c, 11, 73, 0
12, 16200, Note_on_c, 11, 73, 85
12, 16320, Note_on_c, 11, 73, 0
12, 16320, Note_on_c, 11, 71, 85
12, 16800, Note_on_c, 11, 71, 0
12, 16800, Note_on_c, 11, 69, 85
12, 17040, Note_on_c, 11, 69, 0
12, 17040, Note_on_c, 11, 62, 85
12, 17280, Note_on_c, 11, 62, 0
12, 17280, Note_on_c, 11, 64, 80
12, 17520, Note_on_c, 11, 64, 0
12, 17520, Note_on_c, 11, 66, 76
12, 17760, Note_on_c, 11, 66, 0
12, 17760, Note_on_c, 11, 67, 72
12, 18000, Note_on_c, 11, 67, 0
12, 18000, Note_on_c, 11, 66, 68
12, 18120, Note_on_c, 11, 66, 0
12, 18120, Note_on_c, 11, 64, 66
12, 18240, Note_on_c, 11, 64, 0
12, 18240, Note_on_c, 11, 66, 64
12, 18360, Note_on_c, 11, 66, 0
12, 18360, Note_on_c, 11, 62, 63
12, 18480, Note_on_c, 11, 62, 0
12, 18480, Note_on_c, 11, 69, 62
12, 18960, Note_on_c, 11, 69, 0
12, 18960, Note_on_c, 11, 67, 57
12, 19080, Note_on_c, 11, 67, 0
12, 19080, Note_on_c, 11, 67, 56
12, 19200, Note_on_c, 11, 67, 0
12, 19200, Note_on_c, 11, 66, 55
12, 19680, Note_on_c, 11, 66, 0
12, 19680, Note_on_c, 11, 64, 52
12, 19920, Note_on_c, 11, 64, 0
12, 19920, Note_on_c, 11, 67, 90
12, 20280, Note_on_c, 11, 67, 0
12, 20280, Note_on_c, 11, 67, 64
12, 20400, Note_on_c, 11, 67, 0
12, 20400, Note_on_c, 11, 66, 64
12, 20520, Note_on_c, 11, 66, 0
12, 20520, Note_on_c, 11, 66, 64
12, 20640, Note_on_c, 11, 66, 0
12, 20640, Note_on_c, 11, 67, 64
12, 20760, Note_on_c, 11, 67, 0
12, 20760, Note_on_c, 11, 66, 64
12, 20820, Note_on_c, 11, 66, 0
12, 20820, Note_on_c, 11, 64, 64
12, 20880, Note_on_c, 11, 64, 0
12, 20880, Note_on_c, 11, 62, 64
12, 20940, Note_on_c, 11, 62, 0
12, 20940, Note_on_c, 11, 64, 64
12, 21000, Note_on_c, 11, 64, 0
12, 21000, Note_on_c, 11, 61, 64
12, 21060, Note_on_c, 11, 61, 0
12, 21060, Note_on_c, 11, 62, 64
12, 21120, Note_on_c, 11, 62, 0
12, 21120, Note_on_c, 11, 64, 64
12, 21180, Note_on_c, 11, 64, 0
12, 21180, Note_on_c, 11, 62, 64
12, 21240, Note_on_c, 11, 62, 0
12, 21240, Note_on_c, 11, 64, 64
12, 21300, Note_on_c, 11, 64, 0
12, 21300, Note_on_c, 11, 66, 64
12, 21360, Note_on_c, 11, 66, 0
12, 21360, Note_on_c, 11, 64, 64
12, 21420, Note_on_c, 11, 64, 0
12, 21420, Note_on_c, 11, 67, 64
12, 21480, Note_on_c, 11, 67, 0
12, 21480, Note_on_c, 11, 66, 64
12, 21540, Note_on_c, 11, 66, 0
12, 21540, Note_on_c, 11, 64, 64
12, 21600, Note_on_c, 11, 64, 0
12, 21600, Note_on_c, 11, 62, 64
12, 21720, Note_on_c, 11, 62, 0
12, 21720, Note_on_c, 11, 64, 64
12, 21780, Note_on_c, 11, 64, 0
12, 21780, Note_on_c, 11, 64, 64
12, 21840, Note_on_c, 11, 64, 0
12, 21840, Note_on_c, 11, 66, 64
12, 22080, Note_on_c, 11, 66, 0
12, 22080, Note_on_c, 11, 59, 64
12, 22200, Note_on_c, 11, 59, 0
12, 22320, Note_on_c, 11, 64, 64
12, 22680, Note_on_c, 11, 64, 0
12, 22680, Note_on_c, 11, 62, 64
12, 22800, Note_on_c, 11, 62, 0
12, 22800, Note_on_c, 11, 61, 64
12, 22920, Note_on_c, 11, 61, 0
12, 22920, Note_on_c, 11, 69, 64
12, 23040, Note_on_c, 11, 69, 0
12, 23040, Note_on_c, 11, 68, 64
12, 23160, Note_on_c, 11, 68, 0
12, 23160, Note_on_c, 11, 68, 64
12, 23220, Note_on_c, 11, 68, 0
12, 23220, Note_on_c, 11, 68, 64
12, 23280, Note_on_c, 11, 68, 0
12, 23280, Note_on_c, 11, 68, 64
12, 23520, Note_on_c, 11, 68, 0
12, 23520, Note_on_c, 11, 66, 64
12, 23760, Note_on_c, 11, 66, 0
12, 24240, Note_on_c, 11, 62, 64
12, 24480, Note_on_c, 11, 62, 0
12, 24480, Note_on_c, 11, 64, 64
12, 24720, Note_on_c, 11, 64, 0
12, 24720, Note_on_c, 11, 66, 64
12, 24960, Note_on_c, 11, 66, 0
12, 24960, Note_on_c, 11, 67, 64
12, 25200, Note_on_c, 11, 67, 0
12, 25200, Note_on_c, 11, 66, 64
12, 25320, Note_on_c, 11, 66, 0
12, 25320, Note_on_c, 11, 64, 64
12, 25440, Note_on_c, 11, 64, 0
12, 25440, Note_on_c, 11, 66, 64
12, 25560, Note_on_c, 11, 66, 0
12, 25560, Note_on_c, 11, 62, 64
12, 25680, Note_on_c, 11, 62, 0
12, 25680, Note_on_c, 11, 67, 64
12, 26160, Note_on_c, 11, 67, 0
12, 26160, Note_on_c, 11, 66, 64
12, 26280, Note_on_c, 11, 66, 0
12, 26280, Note_on_c, 11, 66, 64
12, 26400, Note_on_c, 11, 66, 0
12, 26400, Note_on_c, 11, 64, 64
12, 26880, Note_on_c, 11, 64, 0
12, 26880, Note_on_c, 11, 62, 64
12, 27120, Note_on_c, 11, 62, 0
12, 27480, Note_on_c, 11, 74, 90
12, 27720, Note_on_c, 11, 74, 0
12, 27720, Note_on_c, 11, 74, 64
12, 27840, Note_on_c, 11, 74, 0
12, 27840, Note_on_c, 11, 73, 64
12, 27960, Note_on_c, 11, 73, 0
12, 27960, Note_on_c, 11, 73, 64
12, 28080, Note_on_c, 11, 73, 0
12, 28080, Note_on_c, 11, 74, 64
12, 28140, Note_on_c, 11, 74, 0
12, 28140, Note_on_c, 11, 73, 64
12, 28200, Note_on_c, 11, 73, 0
12, 28200, Note_on_c, 11, 71, 64
12, 28260, Note_on_c, 11, 71, 0
12, 28260, Note_on_c, 11, 69, 64
12, 28320, Note_on_c, 11, 69, 0
12, 28320, Note_on_c, 11, 67, 64
12, 28440, Note_on_c, 11, 67, 0
12, 28440, Note_on_c, 11, 62, 64
12, 28500, Note_on_c, 11, 62, 0
12, 28500, Note_on_c, 11, 62, 64
12, 28560, Note_on_c, 11, 62, 0
12, 28560, Note_on_c, 11, 67, 64
12, 28920, Note_on_c, 11, 67, 0
12, 28920, Note_on_c, 11, 66, 65
12, 29040, Note_on_c, 11, 66, 0
12, 29040, Note_on_c, 11, 62, 65
12, 29280, Note_on_c, 11, 62, 0
12, 29280, Note_on_c, 11, 64, 67
12, 29520, Note_on_c, 11, 64, 0
12, 29520, Note_on_c, 11, 66, 68
12, 29760, Note_on_c, 11, 66, 0
12, 29760, Note_on_c, 11, 67, 70
12, 30000, Note_on_c, 11, 67, 0
12, 30000, Note_on_c, 11, 66, 71
12, 30120, Note_on_c, 11, 66, 0
12, 30120, Note_on_c, 11, 64, 72
12, 30240, Note_on_c, 11, 64, 0
12, 30240, Note_on_c, 11, 66, 72
12, 30360, Note_on_c, 11, 66, 0
12, 30360, Note_on_c, 11, 62, 73
12, 30480, Note_on_c, 11, 62, 0
12, 30480, Note_on_c, 11, 67, 74
12, 30960, Note_on_c, 11, 67, 0
12, 30960, Note_on_c, 11, 66, 76
12, 31080, Note_on_c, 11, 66, 0
12, 31080, Note_on_c, 11, 66, 76
12, 31200, Note_on_c, 11, 66, 0
12, 31200, Note_on_c, 11, 64, 76
12, 31680, Note_on_c, 11, 64, 0
12, 31680, Note_on_c, 11, 62, 78
12, 32160, Note_on_c, 11, 62, 0
12, 32400, Note_on_c, 11, 62, 79
12, 32640, Note_on_c, 11, 62, 0
12, 32640, Note_on_c, 11, 64, 80
12, 32880, Note_on_c, 11, 64, 0
12, 32880, Note_on_c, 11, 66, 81
12, 33120, Note_on_c, 11, 66, 0
12, 33120, Note_on_c, 11, 67, 83
12, 33360, Note_on_c, 11, 67, 0
12, 33360, Note_on_c, 11, 66, 84
12, 33480, Note_on_c, 11, 66, 0
12, 33480, Note_on_c, 11, 64, 84
12, 33600, Note_on_c, 11, 64, 0
12, 33600, Note_on_c, 11, 66, 85
12, 33720, Note_on_c, 11, 66, 0
12, 33720, Note_on_c, 11, 62, 86
12, 33840, Note_on_c, 11, 62, 0
12, 33840, Note_on_c, 11, 67, 86
12, 34320, Note_on_c, 11, 67, 0
12, 34320, Note_on_c, 11, 66, 89
12, 34680, Note_on_c, 11, 66, 0
12, 34680, Note_on_c, 11, 64, 90
12, 34740, Note_on_c, 11, 64, 0
12, 34740, Note_on_c, 11, 62, 90
12, 34800, Note_on_c, 11, 62, 0
12, 34800, Note_on_c, 11, 69, 90
12, 35160, Note_on_c, 11, 69, 0
12, 35160, Note_on_c, 11, 67, 90
12, 35220, Note_on_c, 11, 67, 0
12, 35220, Note_on_c, 11, 66, 90
12, 35280, Note_on_c, 11, 66, 0
12, 35280, Note_on_c, 11, 71, 90
12, 35400, Note_on_c, 11, 71, 0
12, 35400, Note_on_c, 11, 71, 90
12, 35520, Note_on_c, 11, 71, 0
12, 35520, Note_on_c, 11, 69, 90
12, 36000, Note_on_c, 11, 69, 0
12, 36000, Note_on_c, 11, 68, 90
12, 36240, Note_on_c, 11, 68, 0
12, 36240, Note_on_c, 11, 69, 116
12, 36600, Note_on_c, 11, 69, 0
12, 36600, Note_on_c, 11, 69, 85
12, 36720, Note_on_c, 11, 69, 0
12, 36720, Note_on_c, 11, 68, 83
12, 36840, Note_on_c, 11, 68, 0
12, 36840, Note_on_c, 11, 68, 82
12, 36960, Note_on_c, 11, 68, 0
12, 36960, Note_on_c, 11, 69, 80
12, 37020, Note_on_c, 11, 69, 0
12, 37020, Note_on_c, 11, 64, 80
12, 37080, Note_on_c, 11, 64, 0
12, 37080, Note_on_c, 11, 66, 79
12, 37140, Note_on_c, 11, 66, 0
12, 37140, Note_on_c, 11, 68, 78
12, 37200, Note_on_c, 11, 68, 0
12, 37200, Note_on_c, 11, 69, 78
12, 37260, Note_on_c, 11, 69, 0
12, 37260, Note_on_c, 11, 71, 77
12, 37320, Note_on_c, 11, 71, 0
12, 37320, Note_on_c, 11, 68, 76
12, 37380, Note_on_c, 11, 68, 0
12, 37380, Note_on_c, 11, 69, 76
12, 37440, Note_on_c, 11, 69, 0
12, 37440, Note_on_c, 11, 71, 75
12, 37560, Note_on_c, 11, 71, 0
12, 37560, Note_on_c, 11, 66, 75
12, 37680, Note_on_c, 11, 66, 0
12, 37680, Note_on_c, 11, 71, 75
12, 38040, Note_on_c, 11, 71, 0
12, 38040, Note_on_c, 11, 64, 75
12, 38100, Note_on_c, 11, 64, 0
12, 38100, Note_on_c, 11, 64, 75
12, 38160, Note_on_c, 11, 64, 0
12, 38160, Note_on_c, 11, 69, 75
12, 38400, Note_on_c, 11, 69, 0
12, 38400, Note_on_c, 11, 64, 76
12, 38520, Note_on_c, 11, 64, 0
12, 38640, Note_on_c, 11, 73, 77
12, 39000, Note_on_c, 11, 73, 0
12, 39000, Note_on_c, 11, 71, 79
12, 39120, Note_on_c, 11, 71, 0
12, 39120, Note_on_c, 11, 71, 80
12, 39240, Note_on_c, 11, 71, 0
12, 39240, Note_on_c, 11, 71, 80
12, 39360, Note_on_c, 11, 71, 0
12, 39360, Note_on_c, 11, 71, 81
12, 39480, Note_on_c, 11, 71, 0
12, 39480, Note_on_c, 11, 71, 82
12, 39540, Note_on_c, 11, 71, 0
12, 39540, Note_on_c, 11, 71, 82
12, 39600, Note_on_c, 11, 71, 0
12, 39600, Note_on_c, 11, 64, 82
12, 39840, Note_on_c, 11, 64, 0
12, 39840, Note_on_c, 11, 62, 84
12, 40080, Note_on_c, 11, 62, 0
12, 40080, Note_on_c, 11, 62, 85
12, 40320, Note_on_c, 11, 62, 0
12, 40320, Note_on_c, 11, 64, 85
12, 40560, Note_on_c, 11, 64, 0
12, 40560, Note_on_c, 11, 66, 86
12, 40800, Note_on_c, 11, 66, 0
12, 40800, Note_on_c, 11, 67, 87
12, 41040, Note_on_c, 11, 67, 0
12, 41040, Note_on_c, 11, 66, 87
12, 41160, Note_on_c, 11, 66, 0
12, 41160, Note_on_c, 11, 64, 88
12, 41280, Note_on_c, 11, 64, 0
12, 41280, Note_on_c, 11, 66, 88
12, 41400, Note_on_c, 11, 66, 0
12, 41400, Note_on_c, 11, 71, 88
12, 41640, Note_on_c, 11, 71, 0
12, 41640, Note_on_c, 11, 71, 89
12, 41700, Note_on_c, 11, 71, 0
12, 41700, Note_on_c, 11, 71, 89
12, 41760, Note_on_c, 11, 71, 0
12, 41760, Note_on_c, 11, 64, 90
12, 41880, Note_on_c, 11, 64, 0
12, 41880, Note_on_c, 11, 68, 90
12, 42000, Note_on_c, 11, 68, 0
12, 42000, Note_on_c, 11, 71, 90
12, 42360, Note_on_c, 11, 71, 0
12, 42360, Note_on_c, 11, 64, 91
12, 42480, Note_on_c, 11, 64, 0
12, 42480, Note_on_c, 11, 69, 92
12, 42840, Note_on_c, 11, 69, 0
12, 42840, Note_on_c, 11, 62, 93
12, 42960, Note_on_c, 11, 62, 0
12, 42960, Note_on_c, 11, 67, 93
12, 43320, Note_on_c, 11, 67, 0
12, 43320, Note_on_c, 11, 66, 94
12, 43380, Note_on_c, 11, 66, 0
12, 43380, Note_on_c, 11, 64, 95
12, 43440, Note_on_c, 11, 64, 0
12, 43440, Note_on_c, 11, 66, 95
12, 43560, Note_on_c, 11, 66, 0
12, 43560, Note_on_c, 11, 71, 95
12, 43680, Note_on_c, 11, 71, 0
12, 43680, Note_on_c, 11, 66, 96
12, 43920, Note_on_c, 11, 66, 0
12, 43920, Note_on_c, 11, 64, 96
12, 44160, Note_on_c, 11, 64, 0
12, 44160, Note_on_c, 11, 66, 97
12, 45120, Note_on_c, 11, 66, 0
12, 46080, End_track
13, 0, Start_track
13, 0, MIDI_port, 0
13, 0, Title_t, "Tenor"
13, 0, Program_c, 12, 52
13, 1680, Note_on_c, 12, 57, 40
13, 1920, Note_on_c, 12, 57, 0
13, 1920, Note_on_c, 12, 59, 40
13, 2160, Note_on_c, 12, 59, 0
13, 2160, Note_on_c, 12, 61, 40
13, 2400, Note_on_c, 12, 61, 0
13, 2400, Note_on_c, 12, 62, 40
13, 2640, Note_on_c, 12, 62, 0
13, 2640, Note_on_c, 12, 61, 40
13, 2760, Note_on_c, 12, 61, 0
13, 2760, Note_on_c, 12, 59, 40
13, 2880, Note_on_c, 12, 59, 0
13, 2880, Note_on_c, 12, 61, 40
13, 3000, Note_on_c, 12, 61, 0
13, 3000, Note_on_c, 12, 57, 40
13, 3120, Note_on_c, 12, 57, 0
13, 3120, Note_on_c, 12, 62, 40
13, 3600, Note_on_c, 12, 62, 0
13, 3600, Note_on_c, 12, 61, 40
13, 3720, Note_on_c, 12, 61, 0
13, 3720, Note_on_c, 12, 61, 40
13, 3840, Note_on_c, 12, 61, 0
13, 3840, Note_on_c, 12, 59, 40
13, 4320, Note_on_c, 12, 59, 0
13, 4320, Note_on_c, 12, 57, 40
13, 4800, Note_on_c, 12, 57, 0
13, 5520, Note_on_c, 12, 62, 66
13, 5880, Note_on_c, 12, 62, 0
13, 5880, Note_on_c, 12, 62, 40
13, 6000, Note_on_c, 12, 62, 0
13, 6000, Note_on_c, 12, 61, 40
13, 6120, Note_on_c, 12, 61, 0
13, 6120, Note_on_c, 12, 61, 40
13, 6240, Note_on_c, 12, 61, 0
13, 6240, Note_on_c, 12, 62, 40
13, 6360, Note_on_c, 12, 62, 0
13, 6360, Note_on_c, 12, 61, 40
13, 6420, Note_on_c, 12, 61, 0
13, 6420, Note_on_c, 12, 59, 40
13, 6480, Note_on_c, 12, 59, 0
13, 6480, Note_on_c, 12, 57, 40
13, 6540, Note_on_c, 12, 57, 0
13, 6540, Note_on_c, 12, 59, 40
13, 6600, Note_on_c, 12, 59, 0
13, 6600, Note_on_c, 12, 55, 40
13, 6660, Note_on_c, 12, 55, 0
13, 6660, Note_on_c, 12, 57, 40
13, 6720, Note_on_c, 12, 57, 0
13, 6720, Note_on_c, 12, 59, 40
13, 6780, Note_on_c, 12, 59, 0
13, 6780, Note_on_c, 12, 57, 40
13, 6840, Note_on_c, 12, 57, 0
13, 6840, Note_on_c, 12, 59, 40
13, 6900, Note_on_c, 12, 59, 0
13, 6900, Note_on_c, 12, 61, 40
13, 6960, Note_on_c, 12, 61, 0
13, 6960, Note_on_c, 12, 59, 47
13, 7020, Note_on_c, 12, 59, 0
13, 7020, Note_on_c, 12, 62, 40
13, 7080, Note_on_c, 12, 62, 0
13, 7080, Note_on_c, 12, 61, 40
13, 7140, Note_on_c, 12, 61, 0
13, 7140, Note_on_c, 12, 59, 40
13, 7200, Note_on_c, 12, 59, 0
13, 7200, Note_on_c, 12, 57, 40
13, 7320, Note_on_c, 12, 57, 0
13, 7320, Note_on_c, 12, 52, 40
13, 7380, Note_on_c, 12, 52, 0
13, 7380, Note_on_c, 12, 52, 40
13, 7440, Note_on_c, 12, 52, 0
13, 7440, Note_on_c, 12, 57, 40
13, 7680, Note_on_c, 12, 57, 0
13, 7680, Note_on_c, 12, 50, 40
13, 8160, Note_on_c, 12, 50, 0
13, 8880, Note_on_c, 12, 57, 54
13, 9120, Note_on_c, 12, 57, 0
13, 9120, Note_on_c, 12, 59, 57
13, 9360, Note_on_c, 12, 59, 0
13, 9360, Note_on_c, 12, 61, 61
13, 9600, Note_on_c, 12, 61, 0
13, 9600, Note_on_c, 12, 62, 64
13, 9840, Note_on_c, 12, 62, 0
13, 9840, Note_on_c, 12, 61, 65
13, 9960, Note_on_c, 12, 61, 0
13, 9960, Note_on_c, 12, 59, 66
13, 10080, Note_on_c, 12, 59, 0
13, 10080, Note_on_c, 12, 61, 67
13, 10200, Note_on_c, 12, 61, 0
13, 10200, Note_on_c, 12, 54, 67
13, 10320, Note_on_c, 12, 54, 0
13, 10320, Note_on_c, 12, 66, 68
13, 10680, Note_on_c, 12, 66, 0
13, 10680, Note_on_c, 12, 64, 70
13, 10920, Note_on_c, 12, 64, 0
13, 10920, Note_on_c, 12, 69, 72
13, 11040, Note_on_c, 12, 69, 0
13, 11040, Note_on_c, 12, 62, 72
13, 11160, Note_on_c, 12, 62, 0
13, 11160, Note_on_c, 12, 66, 73
13, 11280, Note_on_c, 12, 66, 0
13, 11280, Note_on_c, 12, 64, 74
13, 11400, Note_on_c, 12, 64, 0
13, 11400, Note_on_c, 12, 62, 74
13, 11520, Note_on_c, 12, 62, 0
13, 11520, Note_on_c, 12, 61, 74
13, 11760, Note_on_c, 12, 61, 0
13, 11760, Note_on_c, 12, 61, 74
13, 12000, Note_on_c, 12, 61, 0
13, 12480, Note_on_c, 12, 62, 74
13, 12960, Note_on_c, 12, 62, 0
13, 12960, Note_on_c, 12, 64, 74
13, 13200, Note_on_c, 12, 64, 0
13, 13200, Note_on_c, 12, 66, 74
13, 13440, Note_on_c, 12, 66, 0
13, 13440, Note_on_c, 12, 67, 74
13, 13680, Note_on_c, 12, 67, 0
13, 13680, Note_on_c, 12, 66, 75
13, 13800, Note_on_c, 12, 66, 0
13, 13800, Note_on_c, 12, 64, 75
13, 13920, Note_on_c, 12, 64, 0
13, 13920, Note_on_c, 12, 66, 76
13, 14040, Note_on_c, 12, 66, 0
13, 14040, Note_on_c, 12, 62, 76
13, 14160, Note_on_c, 12, 62, 0
13, 14160, Note_on_c, 12, 69, 77
13, 14640, Note_on_c, 12, 69, 0
13, 14640, Note_on_c, 12, 67, 79
13, 14760, Note_on_c, 12, 67, 0
13, 14760, Note_on_c, 12, 67, 79
13, 14880, Note_on_c, 12, 67, 0
13, 14880, Note_on_c, 12, 66, 80
13, 15360, Note_on_c, 12, 66, 0
13, 15360, Note_on_c, 12, 64, 81
13, 15600, Note_on_c, 12, 64, 0
13, 15600, Note_on_c, 12, 57, 82
13, 15840, Note_on_c, 12, 57, 0
13, 15840, Note_on_c, 12, 59, 83
13, 16080, Note_on_c, 12, 59, 0
13, 16080, Note_on_c, 12, 61, 84
13, 16320, Note_on_c, 12, 61, 0
13, 16320, Note_on_c, 12, 62, 85
13, 16560, Note_on_c, 12, 62, 0
13, 16560, Note_on_c, 12, 61, 85
13, 16680, Note_on_c, 12, 61, 0
13, 16680, Note_on_c, 12, 59, 85
13, 16800, Note_on_c, 12, 59, 0
13, 16800, Note_on_c, 12, 61, 85
13, 16920, Note_on_c, 12, 61, 0
13, 16920, Note_on_c, 12, 57, 85
13, 17040, Note_on_c, 12, 57, 0
13, 17040, Note_on_c, 12, 62, 85
13, 17520, Note_on_c, 12, 62, 0
13, 17520, Note_on_c, 12, 61, 76
13, 17640, Note_on_c, 12, 61, 0
13, 17640, Note_on_c, 12, 61, 74
13, 17760, Note_on_c, 12, 61, 0
13, 17760, Note_on_c, 12, 59, 72
13, 18240, Note_on_c, 12, 59, 0
13, 18240, Note_on_c, 12, 57, 64
13, 18480, Note_on_c, 12, 57, 0
13, 18480, Note_on_c, 12, 64, 62
13, 18720, Note_on_c, 12, 64, 0
13, 18720, Note_on_c, 12, 63, 59
13, 18960, Note_on_c, 12, 63, 0
13, 18960, Note_on_c, 12, 59, 57
13, 19080, Note_on_c, 12, 59, 0
13, 19080, Note_on_c, 12, 59, 56
13, 19200, Note_on_c, 12, 59, 0
13, 19200, Note_on_c, 12, 60, 55
13, 19440, Note_on_c, 12, 60, 0
13, 19440, Note_on_c, 12, 59, 54
13, 19680, Note_on_c, 12, 59, 0
13, 19680, Note_on_c, 12, 55, 52
13, 19920, Note_on_c, 12, 55, 0
13, 20880, Note_on_c, 12, 59, 90
13, 21240, Note_on_c, 12, 59, 0
13, 21240, Note_on_c, 12, 59, 64
13, 21360, Note_on_c, 12, 59, 0
13, 21360, Note_on_c, 12, 58, 64
13, 21480, Note_on_c, 12, 58, 0
13, 21480, Note_on_c, 12, 58, 64
13, 21600, Note_on_c, 12, 58, 0
13, 21600, Note_on_c, 12, 59, 64
13, 21720, Note_on_c, 12, 59, 0
13, 21720, Note_on_c, 12, 57, 64
13, 21780, Note_on_c, 12, 57, 0
13, 21780, Note_on_c, 12, 55, 64
13, 21840, Note_on_c, 12, 55, 0
13, 21840, Note_on_c, 12, 54, 64
13, 21900, Note_on_c, 12, 54, 0
13, 21900, Note_on_c, 12, 55, 64
13, 21960, Note_on_c, 12, 55, 0
13, 21960, Note_on_c, 12, 52, 64
13, 22020, Note_on_c, 12, 52, 0
13, 22020, Note_on_c, 12, 54, 64
13, 22080, Note_on_c, 12, 54, 0
13, 22080, Note_on_c, 12, 55, 64
13, 22140, Note_on_c, 12, 55, 0
13, 22140, Note_on_c, 12, 54, 64
13, 22200, Note_on_c, 12, 54, 0
13, 22200, Note_on_c, 12, 55, 64
13, 22260, Note_on_c, 12, 55, 0
13, 22260, Note_on_c, 12, 57, 64
13, 22320, Note_on_c, 12, 57, 0
13, 22320, Note_on_c, 12, 55, 64
13, 22380, Note_on_c, 12, 55, 0
13, 22380, Note_on_c, 12, 59, 64
13, 22440, Note_on_c, 12, 59, 0
13, 22440, Note_on_c, 12, 57, 64
13, 22500, Note_on_c, 12, 57, 0
13, 22500, Note_on_c, 12, 55, 64
13, 22560, Note_on_c, 12, 55, 0
13, 22560, Note_on_c, 12, 54, 64
13, 22680, Note_on_c, 12, 54, 0
13, 22680, Note_on_c, 12, 55, 64
13, 22740, Note_on_c, 12, 55, 0
13, 22740, Note_on_c, 12, 55, 64
13, 22800, Note_on_c, 12, 55, 0
13, 22800, Note_on_c, 12, 57, 64
13, 23040, Note_on_c, 12, 57, 0
13, 23040, Note_on_c, 12, 50, 64
13, 23160, Note_on_c, 12, 50, 0
13, 23160, Note_on_c, 12, 62, 64
13, 23220, Note_on_c, 12, 62, 0
13, 23220, Note_on_c, 12, 62, 64
13, 23280, Note_on_c, 12, 62, 0
13, 23280, Note_on_c, 12, 61, 64
13, 23400, Note_on_c, 12, 61, 0
13, 23400, Note_on_c, 12, 61, 64
13, 23520, Note_on_c, 12, 61, 0
13, 23520, Note_on_c, 12, 61, 64
13, 23640, Note_on_c, 12, 61, 0
13, 23640, Note_on_c, 12, 62, 64
13, 23700, Note_on_c, 12, 62, 0
13, 23700, Note_on_c, 12, 62, 64
13, 23760, Note_on_c, 12, 62, 0
13, 23760, Note_on_c, 12, 64, 64
13, 24000, Note_on_c, 12, 64, 0
13, 24000, Note_on_c, 12, 57, 64
13, 24240, Note_on_c, 12, 57, 0
13, 24720, Note_on_c, 12, 57, 64
13, 24960, Note_on_c, 12, 57, 0
13, 24960, Note_on_c, 12, 59, 64
13, 25200, Note_on_c, 12, 59, 0
13, 25200, Note_on_c, 12, 61, 64
13, 25440, Note_on_c, 12, 61, 0
13, 25440, Note_on_c, 12, 62, 64
13, 25680, Note_on_c, 12, 62, 0
13, 25680, Note_on_c, 12, 61, 64
13, 25800, Note_on_c, 12, 61, 0
13, 25800, Note_on_c, 12, 59, 64
13, 25920, Note_on_c, 12, 59, 0
13, 25920, Note_on_c, 12, 61, 64
13, 26040, Note_on_c, 12, 61, 0
13, 26040, Note_on_c, 12, 57, 64
13, 26160, Note_on_c, 12, 57, 0
13, 26160, Note_on_c, 12, 62, 64
13, 26640, Note_on_c, 12, 62, 0
13, 26640, Note_on_c, 12, 60, 64
13, 26760, Note_on_c, 12, 60, 0
13, 26760, Note_on_c, 12, 60, 64
13, 26880, Note_on_c, 12, 60, 0
13, 26880, Note_on_c, 12, 60, 64
13, 27120, Note_on_c, 12, 60, 0
13, 27120, Note_on_c, 12, 59, 64
13, 27360, Note_on_c, 12, 59, 0
13, 27360, Note_on_c, 12, 57, 64
13, 27840, Note_on_c, 12, 57, 0
13, 28080, Note_on_c, 12, 57, 64
13, 28320, Note_on_c, 12, 57, 0
13, 28320, Note_on_c, 12, 59, 64
13, 28560, Note_on_c, 12, 59, 0
13, 28560, Note_on_c, 12, 61, 64
13, 28800, Note_on_c, 12, 61, 0
13, 28800, Note_on_c, 12, 62, 64
13, 29040, Note_on_c, 12, 62, 0
13, 29040, Note_on_c, 12, 61, 65
13, 29160, Note_on_c, 12, 61, 0
13, 29160, Note_on_c, 12, 59, 66
13, 29280, Note_on_c, 12, 59, 0
13, 29280, Note_on_c, 12, 61, 67
13, 29400, Note_on_c, 12, 61, 0
13, 29400, Note_on_c, 12, 57, 67
13, 29520, Note_on_c, 12, 57, 0
13, 29520, Note_on_c, 12, 62, 68
13, 30000, Note_on_c, 12, 62, 0
13, 30000, Note_on_c, 12, 61, 71
13, 30120, Note_on_c, 12, 61, 0
13, 30120, Note_on_c, 12, 61, 72
13, 30240, Note_on_c, 12, 61, 0
13, 30240, Note_on_c, 12, 57, 72
13, 30360, Note_on_c, 12, 57, 0
13, 30360, Note_on_c, 12, 66, 73
13, 30480, Note_on_c, 12, 66, 0
13, 30480, Note_on_c, 12, 64, 74
13, 30600, Note_on_c, 12, 64, 0
13, 30600, Note_on_c, 12, 62, 74
13, 30720, Note_on_c, 12, 62, 0
13, 30720, Note_on_c, 12, 61, 75
13, 30840, Note_on_c, 12, 61, 0
13, 30840, Note_on_c, 12, 64, 75
13, 30960, Note_on_c, 12, 64, 0
13, 30960, Note_on_c, 12, 62, 76
13, 31080, Note_on_c, 12, 62, 0
13, 31080, Note_on_c, 12, 66, 76
13, 31200, Note_on_c, 12, 66, 0
13, 31200, Note_on_c, 12, 59, 76
13, 31440, Note_on_c, 12, 59, 0
13, 31440, Note_on_c, 12, 57, 77
13, 31920, Note_on_c, 12, 57, 0
13, 31920, Note_on_c, 12, 55, 78
13, 32040, Note_on_c, 12, 55, 0
13, 32040, Note_on_c, 12, 55, 78
13, 32160, Note_on_c, 12, 55, 0
13, 32160, Note_on_c, 12, 57, 79
13, 32400, Note_on_c, 12, 57, 0
13, 32400, Note_on_c, 12, 59, 79
13, 32640, Note_on_c, 12, 59, 0
13, 32640, Note_on_c, 12, 55, 80
13, 32880, Note_on_c, 12, 55, 0
13, 32880, Note_on_c, 12, 57, 81
13, 33120, Note_on_c, 12, 57, 0
13, 33120, Note_on_c, 12, 59, 83
13, 33360, Note_on_c, 12, 59, 0
13, 33360, Note_on_c, 12, 61, 84
13, 33600, Note_on_c, 12, 61, 0
13, 33600, Note_on_c, 12, 62, 85
13, 33840, Note_on_c, 12, 62, 0
13, 33840, Note_on_c, 12, 61, 86
13, 33960, Note_on_c, 12, 61, 0
13, 33960, Note_on_c, 12, 59, 87
13, 34080, Note_on_c, 12, 59, 0
13, 34080, Note_on_c, 12, 61, 88
13, 34200, Note_on_c, 12, 61, 0
13, 34200, Note_on_c, 12, 57, 88
13, 34320, Note_on_c, 12, 57, 0
13, 34320, Note_on_c, 12, 62, 89
13, 34680, Note_on_c, 12, 62, 0
13, 34680, Note_on_c, 12, 61, 90
13, 34740, Note_on_c, 12, 61, 0
13, 34740, Note_on_c, 12, 59, 90
13, 34800, Note_on_c, 12, 59, 0
13, 34800, Note_on_c, 12, 64, 90
13, 35160, Note_on_c, 12, 64, 0
13, 35160, Note_on_c, 12, 57, 90
13, 35280, Note_on_c, 12, 57, 0
13, 35280, Note_on_c, 12, 62, 90
13, 35520, Note_on_c, 12, 62, 0
13, 35520, Note_on_c, 12, 64, 90
13, 35760, Note_on_c, 12, 64, 0
13, 35760, Note_on_c, 12, 62, 90
13, 35880, Note_on_c, 12, 62, 0
13, 35880, Note_on_c, 12, 61, 90
13, 36000, Note_on_c, 12, 61, 0
13, 36000, Note_on_c, 12, 59, 90
13, 36240, Note_on_c, 12, 59, 0
13, 36240, Note_on_c, 12, 61, 90
13, 36360, Note_on_c, 12, 61, 0
13, 36360, Note_on_c, 12, 61, 90
13, 36480, Note_on_c, 12, 61, 0
13, 36480, Note_on_c, 12, 62, 86
13, 36600, Note_on_c, 12, 62, 0
13, 36600, Note_on_c, 12, 61, 85
13, 36720, Note_on_c, 12, 61, 0
13, 36720, Note_on_c, 12, 59, 83
13, 36960, Note_on_c, 12, 59, 0
13, 36960, Note_on_c, 12, 64, 80
13, 37320, Note_on_c, 12, 64, 0
13, 37320, Note_on_c, 12, 64, 76
13, 37440, Note_on_c, 12, 64, 0
13, 37440, Note_on_c, 12, 66, 75
13, 37680, Note_on_c, 12, 66, 0
13, 37680, Note_on_c, 12, 64, 75
13, 37800, Note_on_c, 12, 64, 0
13, 37800, Note_on_c, 12, 64, 75
13, 38040, Note_on_c, 12, 64, 0
13, 38040, Note_on_c, 12, 64, 75
13, 38100, Note_on_c, 12, 64, 0
13, 38100, Note_on_c, 12, 64, 75
13, 38160, Note_on_c, 12, 64, 0
13, 38160, Note_on_c, 12, 66, 75
13, 38400, Note_on_c, 12, 66, 0
13, 38400, Note_on_c, 12, 59, 76
13, 38640, Note_on_c, 12, 59, 0
13, 38640, Note_on_c, 12, 66, 77
13, 39000, Note_on_c, 12, 66, 0
13, 39000, Note_on_c, 12, 66, 79
13, 39060, Note_on_c, 12, 66, 0
13, 39060, Note_on_c, 12, 64, 79
13, 39120, Note_on_c, 12, 64, 0
13, 39120, Note_on_c, 12, 66, 80
13, 39240, Note_on_c, 12, 66, 0
13, 39240, Note_on_c, 12, 62, 80
13, 39360, Note_on_c, 12, 62, 0
13, 39360, Note_on_c, 12, 62, 81
13, 39600, Note_on_c, 12, 62, 0
13, 39600, Note_on_c, 12, 61, 82
13, 39720, Note_on_c, 12, 61, 0
13, 39720, Note_on_c, 12, 61, 83
13, 39840, Note_on_c, 12, 61, 0
13, 39840, Note_on_c, 12, 57, 84
13, 40080, Note_on_c, 12, 57, 0
13, 40080, Note_on_c, 12, 57, 85
13, 40320, Note_on_c, 12, 57, 0
13, 40560, Note_on_c, 12, 57, 86
13, 40800, Note_on_c, 12, 57, 0
13, 40800, Note_on_c, 12, 59, 87
13, 41040, Note_on_c, 12, 59, 0
13, 41040, Note_on_c, 12, 61, 87
13, 41280, Note_on_c, 12, 61, 0
13, 41280, Note_on_c, 12, 62, 88
13, 41520, Note_on_c, 12, 62, 0
13, 41520, Note_on_c, 12, 64, 89
13, 41640, Note_on_c, 12, 64, 0
13, 41640, Note_on_c, 12, 66, 89
13, 41760, Note_on_c, 12, 66, 0
13, 41760, Note_on_c, 12, 59, 90
13, 42000, Note_on_c, 12, 59, 0
13, 42000, Note_on_c, 12, 64, 90
13, 42120, Note_on_c, 12, 64, 0
13, 42120, Note_on_c, 12, 64, 91
13, 42240, Note_on_c, 12, 64, 0
13, 42240, Note_on_c, 12, 64, 91
13, 42360, Note_on_c, 12, 64, 0
13, 42360, Note_on_c, 12, 61, 91
13, 42480, Note_on_c, 12, 61, 0
13, 42480, Note_on_c, 12, 61, 92
13, 42600, Note_on_c, 12, 61, 0
13, 42600, Note_on_c, 12, 62, 92
13, 42720, Note_on_c, 12, 62, 0
13, 42720, Note_on_c, 12, 59, 93
13, 42840, Note_on_c, 12, 59, 0
13, 42840, Note_on_c, 12, 57, 93
13, 42960, Note_on_c, 12, 57, 0
13, 42960, Note_on_c, 12, 59, 93
13, 43080, Note_on_c, 12, 59, 0
13, 43080, Note_on_c, 12, 55, 94
13, 43200, Note_on_c, 12, 55, 0
13, 43200, Note_on_c, 12, 57, 94
13, 43320, Note_on_c, 12, 57, 0
13, 43320, Note_on_c, 12, 59, 94
13, 43380, Note_on_c, 12, 59, 0
13, 43380, Note_on_c, 12, 61, 95
13, 43440, Note_on_c, 12, 61, 0
13, 43440, Note_on_c, 12, 62, 95
13, 43560, Note_on_c, 12, 62, 0
13, 43560, Note_on_c, 12, 59, 95
13, 43680, Note_on_c, 12, 59, 0
13, 43680, Note_on_c, 12, 57, 96
13, 44160, Note_on_c, 12, 57, 0
13, 44160, Note_on_c, 12, 57, 97
13, 45120, Note_on_c, 12, 57, 0
13, 46080, End_track
14, 0, Start_track
14, 0, MIDI_port, 0
14, 0, Title_t, "Bass"
14, 0, Program_c, 13, 52
14, 1200, Note_on_c, 13, 50, 40
14, 1440, Note_on_c, 13, 50, 0
14, 1440, Note_on_c, 13, 52, 40
14, 1680, Note_on_c, 13, 52, 0
14, 1680, Note_on_c, 13, 54, 40
14, 1920, Note_on_c, 13, 54, 0
14, 1920, Note_on_c, 13, 55, 40
14, 2160, Note_on_c, 13, 55, 0
14, 2160, Note_on_c, 13, 54, 40
14, 2280, Note_on_c, 13, 54, 0
14, 2280, Note_on_c, 13, 52, 40
14, 2400, Note_on_c, 13, 52, 0
14, 2400, Note_on_c, 13, 54, 40
14, 2520, Note_on_c, 13, 54, 0
14, 2520, Note_on_c, 13, 50, 40
14, 2640, Note_on_c, 13, 50, 0
14, 2640, Note_on_c, 13, 55, 40
14, 3120, Note_on_c, 13, 55, 0
14, 3120, Note_on_c, 13, 54, 40
14, 3240, Note_on_c, 13, 54, 0
14, 3240, Note_on_c, 13, 54, 40
14, 3360, Note_on_c, 13, 54, 0
14, 3360, Note_on_c, 13, 52, 40
14, 3840, Note_on_c, 13, 52, 0
14, 3840, Note_on_c, 13, 50, 40
14, 4320, Note_on_c, 13, 50, 0
14, 5040, Note_on_c, 13, 57, 66
14, 5400, Note_on_c, 13, 57, 0
14, 5400, Note_on_c, 13, 57, 40
14, 5520, Note_on_c, 13, 57, 0
14, 5520, Note_on_c, 13, 56, 40
14, 5640, Note_on_c, 13, 56, 0
14, 5640, Note_on_c, 13, 56, 40
14, 5760, Note_on_c, 13, 56, 0
14, 5760, Note_on_c, 13, 57, 40
14, 5880, Note_on_c, 13, 57, 0
14, 5880, Note_on_c, 13, 55, 40
14, 5940, Note_on_c, 13, 55, 0
14, 5940, Note_on_c, 13, 54, 40
14, 6000, Note_on_c, 13, 54, 0
14, 6000, Note_on_c, 13, 52, 40
14, 6060, Note_on_c, 13, 52, 0
14, 6060, Note_on_c, 13, 54, 40
14, 6120, Note_on_c, 13, 54, 0
14, 6120, Note_on_c, 13, 50, 40
14, 6180, Note_on_c, 13, 50, 0
14, 6180, Note_on_c, 13, 52, 40
14, 6240, Note_on_c, 13, 52, 0
14, 6240, Note_on_c, 13, 54, 40
14, 6300, Note_on_c, 13, 54, 0
14, 6300, Note_on_c, 13, 52, 40
14, 6360, Note_on_c, 13, 52, 0
14, 6360, Note_on_c, 13, 54, 40
14, 6420, Note_on_c, 13, 54, 0
14, 6420, Note_on_c, 13, 55, 40
14, 6480, Note_on_c, 13, 55, 0
14, 6480, Note_on_c, 13, 54, 40
14, 6540, Note_on_c, 13, 54, 0
14, 6540, Note_on_c, 13, 55, 40
14, 6600, Note_on_c, 13, 55, 0
14, 6600, Note_on_c, 13, 54, 40
14, 6660, Note_on_c, 13, 54, 0
14, 6660, Note_on_c, 13, 52, 40
14, 6720, Note_on_c, 13, 52, 0
14, 6720, Note_on_c, 13, 50, 40
14, 6840, Note_on_c, 13, 50, 0
14, 6840, Note_on_c, 13, 49, 40
14, 6900, Note_on_c, 13, 49, 0
14, 6900, Note_on_c, 13, 47, 40
14, 6960, Note_on_c, 13, 47, 0
14, 6960, Note_on_c, 13, 52, 47
14, 7200, Note_on_c, 13, 52, 0
14, 7200, Note_on_c, 13, 45, 40
14, 7680, Note_on_c, 13, 45, 0
14, 8400, Note_on_c, 13, 50, 55
14, 8640, Note_on_c, 13, 50, 0
14, 8640, Note_on_c, 13, 52, 57
14, 8880, Note_on_c, 13, 52, 0
14, 8880, Note_on_c, 13, 54, 59
14, 9120, Note_on_c, 13, 54, 0
14, 9120, Note_on_c, 13, 55, 61
14, 9360, Note_on_c, 13, 55, 0
14, 9360, Note_on_c, 13, 54, 62
14, 9480, Note_on_c, 13, 54, 0
14, 9480, Note_on_c, 13, 52, 63
14, 9600, Note_on_c, 13, 52, 0
14, 9600, Note_on_c, 13, 54, 64
14, 9720, Note_on_c, 13, 54, 0
14, 9720, Note_on_c, 13, 47, 65
14, 9840, Note_on_c, 13, 47, 0
14, 9840, Note_on_c, 13, 59, 65
14, 10200, Note_on_c, 13, 59, 0
14, 10200, Note_on_c, 13, 57, 67
14, 10440, Note_on_c, 13, 57, 0
14, 10440, Note_on_c, 13, 62, 69
14, 10560, Note_on_c, 13, 62, 0
14, 10560, Note_on_c, 13, 55, 70
14, 10680, Note_on_c, 13, 55, 0
14, 10680, Note_on_c, 13, 59, 70
14, 10800, Note_on_c, 13, 59, 0
14, 10800, Note_on_c, 13, 57, 71
14, 10920, Note_on_c, 13, 57, 0
14, 10920, Note_on_c, 13, 55, 72
14, 11040, Note_on_c, 13, 55, 0
14, 11040, Note_on_c, 13, 54, 72
14, 11280, Note_on_c, 13, 54, 0
14, 11280, Note_on_c, 13, 54, 74
14, 11520, Note_on_c, 13, 54, 0
14, 12720, Note_on_c, 13, 59, 100
14, 13080, Note_on_c, 13, 59, 0
14, 13080, Note_on_c, 13, 59, 74
14, 13200, Note_on_c, 13, 59, 0
14, 13200, Note_on_c, 13, 58, 74
14, 13320, Note_on_c, 13, 58, 0
14, 13320, Note_on_c, 13, 58, 74
14, 13440, Note_on_c, 13, 58, 0
14, 13440, Note_on_c, 13, 59, 74
14, 13500, Note_on_c, 13, 59, 0
14, 13500, Note_on_c, 13, 61, 74
14, 13560, Note_on_c, 13, 61, 0
14, 13560, Note_on_c, 13, 57, 74
14, 13620, Note_on_c, 13, 57, 0
14, 13620, Note_on_c, 13, 59, 75
14, 13680, Note_on_c, 13, 59, 0
14, 13680, Note_on_c, 13, 61, 75
14, 13740, Note_on_c, 13, 61, 0
14, 13740, Note_on_c, 13, 62, 75
14, 13800, Note_on_c, 13, 62, 0
14, 13800, Note_on_c, 13, 59, 75
14, 13860, Note_on_c, 13, 59, 0
14, 13860, Note_on_c, 13, 61, 76
14, 13920, Note_on_c, 13, 61, 0
14, 13920, Note_on_c, 13, 62, 76
14, 13980, Note_on_c, 13, 62, 0
14, 13980, Note_on_c, 13, 61, 76
14, 14040, Note_on_c, 13, 61, 0
14, 14040, Note_on_c, 13, 62, 76
14, 14100, Note_on_c, 13, 62, 0
14, 14100, Note_on_c, 13, 64, 77
14, 14160, Note_on_c, 13, 64, 0
14, 14160, Note_on_c, 13, 62, 77
14, 14220, Note_on_c, 13, 62, 0
14, 14220, Note_on_c, 13, 64, 77
14, 14280, Note_on_c, 13, 64, 0
14, 14280, Note_on_c, 13, 62, 77
14, 14340, Note_on_c, 13, 62, 0
14, 14340, Note_on_c, 13, 61, 77
14, 14400, Note_on_c, 13, 61, 0
14, 14400, Note_on_c, 13, 59, 78
14, 15000, Note_on_c, 13, 59, 0
14, 15000, Note_on_c, 13, 61, 80
14, 15120, Note_on_c, 13, 61, 0
14, 15120, Note_on_c, 13, 62, 80
14, 15360, Note_on_c, 13, 62, 0
14, 15360, Note_on_c, 13, 57, 81
14, 15480, Note_on_c, 13, 57, 0
14, 15480, Note_on_c, 13, 57, 82
14, 15600, Note_on_c, 13, 57, 0
14, 15600, Note_on_c, 13, 55, 82
14, 15720, Note_on_c, 13, 55, 0
14, 15720, Note_on_c, 13, 54, 83
14, 15840, Note_on_c, 13, 54, 0
14, 15840, Note_on_c, 13, 52, 83
14, 16080, Note_on_c, 13, 52, 0
14, 16080, Note_on_c, 13, 57, 84
14, 16200, Note_on_c, 13, 57, 0
14, 16200, Note_on_c, 13, 57, 85
14, 16320, Note_on_c, 13, 57, 0
14, 16320, Note_on_c, 13, 50, 85
14, 16560, Note_on_c, 13, 50, 0
14, 16560, Note_on_c, 13, 52, 85
14, 16800, Note_on_c, 13, 52, 0
14, 16800, Note_on_c, 13, 45, 85
14, 17520, Note_on_c, 13, 45, 0
14, 17520, Note_on_c, 13, 46, 76
14, 17760, Note_on_c, 13, 46, 0
14, 17760, Note_on_c, 13, 47, 72
14, 18000, Note_on_c, 13, 47, 0
14, 18000, Note_on_c, 13, 49, 68
14, 18240, Note_on_c, 13, 49, 0
14, 18240, Note_on_c, 13, 50, 64
14, 18480, Note_on_c, 13, 50, 0
14, 18480, Note_on_c, 13, 48, 62
14, 18600, Note_on_c, 13, 48, 0
14, 18600, Note_on_c, 13, 48, 61
14, 18720, Note_on_c, 13, 48, 0
14, 18720, Note_on_c, 13, 47, 59
14, 18960, Note_on_c, 13, 47, 0
14, 18960, Note_on_c, 13, 52, 57
14, 19080, Note_on_c, 13, 52, 0
14, 19080, Note_on_c, 13, 52, 56
14, 19200, Note_on_c, 13, 52, 0
14, 19200, Note_on_c, 13, 45, 55
14, 19440, Note_on_c, 13, 45, 0
14, 19440, Note_on_c, 13, 47, 54
14, 19680, Note_on_c, 13, 47, 0
14, 19680, Note_on_c, 13, 52, 52
14, 19920, Note_on_c, 13, 52, 0
14, 21840, Note_on_c, 13, 50, 90
14, 22200, Note_on_c, 13, 50, 0
14, 22200, Note_on_c, 13, 50, 64
14, 22320, Note_on_c, 13, 50, 0
14, 22320, Note_on_c, 13, 49, 64
14, 22440, Note_on_c, 13, 49, 0
14, 22440, Note_on_c, 13, 49, 64
14, 22560, Note_on_c, 13, 49, 0
14, 22560, Note_on_c, 13, 50, 64
14, 22680, Note_on_c, 13, 50, 0
14, 22680, Note_on_c, 13, 49, 64
14, 22740, Note_on_c, 13, 49, 0
14, 22740, Note_on_c, 13, 47, 64
14, 22800, Note_on_c, 13, 47, 0
14, 22800, Note_on_c, 13, 45, 64
14, 22860, Note_on_c, 13, 45, 0
14, 22860, Note_on_c, 13, 47, 64
14, 22920, Note_on_c, 13, 47, 0
14, 22920, Note_on_c, 13, 44, 64
14, 22980, Note_on_c, 13, 44, 0
14, 22980, Note_on_c, 13, 45, 64
14, 23040, Note_on_c, 13, 45, 0
14, 23040, Note_on_c, 13, 47, 64
14, 23100, Note_on_c, 13, 47, 0
14, 23100, Note_on_c, 13, 45, 64
14, 23160, Note_on_c, 13, 45, 0
14, 23160, Note_on_c, 13, 47, 64
14, 23220, Note_on_c, 13, 47, 0
14, 23220, Note_on_c, 13, 49, 64
14, 23280, Note_on_c, 13, 49, 0
14, 23280, Note_on_c, 13, 47, 64
14, 23340, Note_on_c, 13, 47, 0
14, 23340, Note_on_c, 13, 50, 64
14, 23400, Note_on_c, 13, 50, 0
14, 23400, Note_on_c, 13, 49, 64
14, 23460, Note_on_c, 13, 49, 0
14, 23460, Note_on_c, 13, 47, 64
14, 23520, Note_on_c, 13, 47, 0
14, 23520, Note_on_c, 13, 45, 64
14, 23640, Note_on_c, 13, 45, 0
14, 23640, Note_on_c, 13, 47, 64
14, 23700, Note_on_c, 13, 47, 0
14, 23700, Note_on_c, 13, 47, 64
14, 23760, Note_on_c, 13, 47, 0
14, 23760, Note_on_c, 13, 49, 64
14, 24000, Note_on_c, 13, 49, 0
14, 24000, Note_on_c, 13, 42, 64
14, 24120, Note_on_c, 13, 42, 0
14, 24240, Note_on_c, 13, 59, 64
14, 24600, Note_on_c, 13, 59, 0
14, 24600, Note_on_c, 13, 57, 64
14, 24720, Note_on_c, 13, 57, 0
14, 24720, Note_on_c, 13, 55, 64
14, 24840, Note_on_c, 13, 55, 0
14, 24840, Note_on_c, 13, 54, 64
14, 24960, Note_on_c, 13, 54, 0
14, 24960, Note_on_c, 13, 52, 64
14, 25080, Note_on_c, 13, 52, 0
14, 25080, Note_on_c, 13, 52, 64
14, 25140, Note_on_c, 13, 52, 0
14, 25140, Note_on_c, 13, 52, 64
14, 25200, Note_on_c, 13, 52, 0
14, 25200, Note_on_c, 13, 57, 64
14, 25440, Note_on_c, 13, 57, 0
14, 25440, Note_on_c, 13, 50, 64
14, 25680, Note_on_c, 13, 50, 0
14, 27360, Note_on_c, 13, 50, 64
14, 27840, Note_on_c, 13, 50, 0
14, 27840, Note_on_c, 13, 52, 64
14, 28080, Note_on_c, 13, 52, 0
14, 28080, Note_on_c, 13, 54, 64
14, 28320, Note_on_c, 13, 54, 0
14, 28320, Note_on_c, 13, 55, 64
14, 28560, Note_on_c, 13, 55, 0
14, 28560, Note_on_c, 13, 54, 64
14, 28680, Note_on_c, 13, 54, 0
14, 28680, Note_on_c, 13, 52, 64
14, 28800, Note_on_c, 13, 52, 0
14, 28800, Note_on_c, 13, 54, 64
14, 28920, Note_on_c, 13, 54, 0
14, 28920, Note_on_c, 13, 50, 65
14, 29040, Note_on_c, 13, 50, 0
14, 29040, Note_on_c, 13, 55, 65
14, 29520, Note_on_c, 13, 55, 0
14, 29520, Note_on_c, 13, 54, 68
14, 29640, Note_on_c, 13, 54, 0
14, 29640, Note_on_c, 13, 54, 69
14, 29760, Note_on_c, 13, 54, 0
14, 29760, Note_on_c, 13, 52, 70
14, 30000, Note_on_c, 13, 52, 0
14, 30000, Note_on_c, 13, 57, 71
14, 30240, Note_on_c, 13, 57, 0
14, 30240, Note_on_c, 13, 50, 72
14, 30360, Note_on_c, 13, 50, 0
14, 30480, Note_on_c, 13, 59, 74
14, 30840, Note_on_c, 13, 59, 0
14, 30840, Note_on_c, 13, 61, 75
14, 30960, Note_on_c, 13, 61, 0
14, 30960, Note_on_c, 13, 62, 76
14, 31020, Note_on_c, 13, 62, 0
14, 31020, Note_on_c, 13, 60, 76
14, 31080, Note_on_c, 13, 60, 0
14, 31080, Note_on_c, 13, 59, 76
14, 31140, Note_on_c, 13, 59, 0
14, 31140, Note_on_c, 13, 57, 76
14, 31200, Note_on_c, 13, 57, 0
14, 31200, Note_on_c, 13, 55, 76
14, 31320, Note_on_c, 13, 55, 0
14, 31320, Note_on_c, 13, 54, 77
14, 31380, Note_on_c, 13, 54, 0
14, 31380, Note_on_c, 13, 52, 77
14, 31440, Note_on_c, 13, 52, 0
14, 31440, Note_on_c, 13, 57, 77
14, 31680, Note_on_c, 13, 57, 0
14, 31680, Note_on_c, 13, 50, 78
14, 32160, Note_on_c, 13, 50, 0
14, 34080, Note_on_c, 13, 45, 88
14, 34560, Note_on_c, 13, 45, 0
14, 34560, Note_on_c, 13, 47, 90
14, 34800, Note_on_c, 13, 47, 0
14, 34800, Note_on_c, 13, 49, 90
14, 35040, Note_on_c, 13, 49, 0
14, 35040, Note_on_c, 13, 50, 90
14, 35280, Note_on_c, 13, 50, 0
14, 35280, Note_on_c, 13, 49, 90
14, 35400, Note_on_c, 13, 49, 0
14, 35400, Note_on_c, 13, 47, 90
14, 35520, Note_on_c, 13, 47, 0
14, 35520, Note_on_c, 13, 49, 90
14, 35640, Note_on_c, 13, 49, 0
14, 35640, Note_on_c, 13, 45, 90
14, 35760, Note_on_c, 13, 45, 0
14, 35760, Note_on_c, 13, 50, 90
14, 36240, Note_on_c, 13, 50, 0
14, 36240, Note_on_c, 13, 49, 90
14, 36360, Note_on_c, 13, 49, 0
14, 36360, Note_on_c, 13, 49, 90
14, 36480, Note_on_c, 13, 49, 0
14, 36480, Note_on_c, 13, 47, 86
14, 36960, Note_on_c, 13, 47, 0
14, 36960, Note_on_c, 13, 45, 80
14, 37200, Note_on_c, 13, 45, 0
14, 37200, Note_on_c, 13, 57, 104
14, 37560, Note_on_c, 13, 57, 0
14, 37560, Note_on_c, 13, 57, 75
14, 37680, Note_on_c, 13, 57, 0
14, 37680, Note_on_c, 13, 56, 75
14, 37800, Note_on_c, 13, 56, 0
14, 37800, Note_on_c, 13, 56, 75
14, 37920, Note_on_c, 13, 56, 0
14, 37920, Note_on_c, 13, 57, 75
14, 37980, Note_on_c, 13, 57, 0
14, 37980, Note_on_c, 13, 59, 75
14, 38040, Note_on_c, 13, 59, 0
14, 38040, Note_on_c, 13, 57, 75
14, 38100, Note_on_c, 13, 57, 0
14, 38100, Note_on_c, 13, 55, 75
14, 38160, Note_on_c, 13, 55, 0
14, 38160, Note_on_c, 13, 54, 75
14, 38220, Note_on_c, 13, 54, 0
14, 38220, Note_on_c, 13, 55, 75
14, 38280, Note_on_c, 13, 55, 0
14, 38280, Note_on_c, 13, 52, 75
14, 38340, Note_on_c, 13, 52, 0
14, 38340, Note_on_c, 13, 54, 75
14, 38400, Note_on_c, 13, 54, 0
14, 38400, Note_on_c, 13, 56, 76
14, 38460, Note_on_c, 13, 56, 0
14, 38460, Note_on_c, 13, 57, 76
14, 38520, Note_on_c, 13, 57, 0
14, 38520, Note_on_c, 13, 54, 77
14, 38580, Note_on_c, 13, 54, 0
14, 38580, Note_on_c, 13, 56, 77
14, 38640, Note_on_c, 13, 56, 0
14, 38640, Note_on_c, 13, 58, 77
14, 38700, Note_on_c, 13, 58, 0
14, 38700, Note_on_c, 13, 59, 78
14, 38760, Note_on_c, 13, 59, 0
14, 38760, Note_on_c, 13, 56, 78
14, 38820, Note_on_c, 13, 56, 0
14, 38820, Note_on_c, 13, 58, 78
14, 38880, Note_on_c, 13, 58, 0
14, 38880, Note_on_c, 13, 59, 79
14, 39480, Note_on_c, 13, 59, 0
14, 39480, Note_on_c, 13, 57, 82
14, 39540, Note_on_c, 13, 57, 0
14, 39540, Note_on_c, 13, 55, 82
14, 39600, Note_on_c, 13, 55, 0
14, 39600, Note_on_c, 13, 57, 82
14, 39660, Note_on_c, 13, 57, 0
14, 39660, Note_on_c, 13, 59, 83
14, 39720, Note_on_c, 13, 59, 0
14, 39720, Note_on_c, 13, 61, 83
14, 39780, Note_on_c, 13, 61, 0
14, 39780, Note_on_c, 13, 57, 83
14, 39840, Note_on_c, 13, 57, 0
14, 39840, Note_on_c, 13, 62, 84
14, 39960, Note_on_c, 13, 62, 0
14, 39960, Note_on_c, 13, 57, 84
14, 40080, Note_on_c, 13, 57, 0
14, 40080, Note_on_c, 13, 62, 85
14, 40560, Note_on_c, 13, 62, 0
14, 40560, Note_on_c, 13, 60, 86
14, 40680, Note_on_c, 13, 60, 0
14, 40680, Note_on_c, 13, 60, 86
14, 40800, Note_on_c, 13, 60, 0
14, 40800, Note_on_c, 13, 59, 87
14, 41520, Note_on_c, 13, 59, 0
14, 41520, Note_on_c, 13, 57, 89
14, 41760, Note_on_c, 13, 57, 0
14, 41760, Note_on_c, 13, 56, 90
14, 42240, Note_on_c, 13, 56, 0
14, 42240, Note_on_c, 13, 57, 91
14, 42480, Note_on_c, 13, 57, 0
14, 42600, Note_on_c, 13, 50, 92
14, 42720, Note_on_c, 13, 50, 0
14, 42720, Note_on_c, 13, 55, 93
14, 42840, Note_on_c, 13, 55, 0
14, 42840, Note_on_c, 13, 54, 93
14, 42960, Note_on_c, 13, 54, 0
14, 42960, Note_on_c, 13, 55, 93
14, 43080, Note_on_c, 13, 55, 0
14, 43080, Note_on_c, 13, 52, 94
14, 43200, Note_on_c, 13, 52, 0
14, 43200, Note_on_c, 13, 54, 94
14, 43440, Note_on_c, 13, 54, 0
14, 43440, Note_on_c, 13, 54, 95
14, 43560, Note_on_c, 13, 54, 0
14, 43560, Note_on_c, 13, 55, 95
14, 43680, Note_on_c, 13, 55, 0
14, 43680, Note_on_c, 13, 57, 96
14, 43920, Note_on_c, 13, 57, 0
14, 43920, Note_on_c, 13, 45, 96
14, 44160, Note_on_c, 13, 45, 0
14, 44160, Note_on_c, 13, 50, 97
14, 45120, Note_on_c, 13, 50, 0
14, 46080, End_track
15, 0, Start_track
15, 0, MIDI_port, 0
15, 0, Title_t, "Organ"
15, 0, Program_c, 14, 19
15, 1200, Note_on_c, 14, 50, 40
15, 1440, Note_on_c, 14, 50, 0
15, 1440, Note_on_c, 14, 52, 40
15, 1680, Note_on_c, 14, 52, 0
15, 1680, Note_on_c, 14, 54, 40
15, 1920, Note_on_c, 14, 54, 0
15, 1920, Note_on_c, 14, 55, 40
15, 2160, Note_on_c, 14, 55, 0
15, 2160, Note_on_c, 14, 54, 40
15, 2280, Note_on_c, 14, 54, 0
15, 2280, Note_on_c, 14, 52, 40
15, 2400, Note_on_c, 14, 52, 0
15, 2400, Note_on_c, 14, 54, 40
15, 2520, Note_on_c, 14, 54, 0
15, 2520, Note_on_c, 14, 50, 40
15, 2640, Note_on_c, 14, 50, 0
15, 2640, Note_on_c, 14, 55, 40
15, 3120, Note_on_c, 14, 55, 0
15, 3120, Note_on_c, 14, 54, 40
15, 3360, Note_on_c, 14, 54, 0
15, 3360, Note_on_c, 14, 52, 40
15, 3840, Note_on_c, 14, 52, 0
15, 3840, Note_on_c, 14, 50, 40
15, 4320, Note_on_c, 14, 50, 0
15, 4320, Note_on_c, 14, 57, 40
15, 4800, Note_on_c, 14, 57, 0
15, 4800, Note_on_c, 14, 64, 40
15, 5040, Note_on_c, 14, 64, 0
15, 5040, Note_on_c, 14, 57, 66
15, 5400, Note_on_c, 14, 57, 0
15, 5400, Note_on_c, 14, 57, 40
15, 5520, Note_on_c, 14, 57, 0
15, 5520, Note_on_c, 14, 56, 40
15, 5640, Note_on_c, 14, 56, 0
15, 5640, Note_on_c, 14, 56, 40
15, 5760, Note_on_c, 14, 56, 0
15, 5760, Note_on_c, 14, 57, 40
15, 5880, Note_on_c, 14, 57, 0
15, 5880, Note_on_c, 14, 55, 40
15, 5940, Note_on_c, 14, 55, 0
15, 5940, Note_on_c, 14, 54, 40
15, 6000, Note_on_c, 14, 54, 0
15, 6000, Note_on_c, 14, 52, 40
15, 6060, Note_on_c, 14, 52, 0
15, 6060, Note_on_c, 14, 54, 40
15, 6120, Note_on_c, 14, 54, 0
15, 6120, Note_on_c, 14, 50, 40
15, 6180, Note_on_c, 14, 50, 0
15, 6180, Note_on_c, 14, 52, 40
15, 6240, Note_on_c, 14, 52, 0
15, 6240, Note_on_c, 14, 54, 40
15, 6300, Note_on_c, 14, 54, 0
15, 6300, Note_on_c, 14, 52, 40
15, 6360, Note_on_c, 14, 52, 0
15, 6360, Note_on_c, 14, 54, 40
15, 6420, Note_on_c, 14, 54, 0
15, 6420, Note_on_c, 14, 55, 40
15, 6480, Note_on_c, 14, 55, 0
15, 6480, Note_on_c, 14, 54, 40
15, 6540, Note_on_c, 14, 54, 0
15, 6540, Note_on_c, 14, 55, 40
15, 6600, Note_on_c, 14, 55, 0
15, 6600, Note_on_c, 14, 54, 40
15, 6660, Note_on_c, 14, 54, 0
15, 6660, Note_on_c, 14, 52, 40
15, 6720, Note_on_c, 14, 52, 0
15, 6720, Note_on_c, 14, 50, 40
15, 6840, Note_on_c, 14, 50, 0
15, 6840, Note_on_c, 14, 49, 40
15, 6900, Note_on_c, 14, 49, 0
15, 6900, Note_on_c, 14, 47, 40
15, 6960, Note_on_c, 14, 47, 0
15, 6960, Note_on_c, 14, 52, 47
15, 7200, Note_on_c, 14, 52, 0
15, 7200, Note_on_c, 14, 45, 40
15, 7440, Note_on_c, 14, 45, 0
15, 7440, Note_on_c, 14, 57, 40
15, 7680, Note_on_c, 14, 57, 0
15, 7680, Note_on_c, 14, 62, 40
15, 7920, Note_on_c, 14, 62, 0
15, 7920, Note_on_c, 14, 50, 50
15, 8160, Note_on_c, 14, 50, 0
15, 8160, Note_on_c, 14, 55, 60
15, 8400, Note_on_c, 14, 55, 0
15, 8400, Note_on_c, 14, 50, 55
15, 8640, Note_on_c, 14, 50, 0
15, 8640, Note_on_c, 14, 52, 57
15, 8880, Note_on_c, 14, 52, 0
15, 8880, Note_on_c, 14, 54, 59
15, 9120, Note_on_c, 14, 54, 0
15, 9120, Note_on_c, 14, 55, 61
15, 9360, Note_on_c, 14, 55, 0
15, 9360, Note_on_c, 14, 54, 62
15, 9480, Note_on_c, 14, 54, 0
15, 9480, Note_on_c, 14, 52, 63
15, 9600, Note_on_c, 14, 52, 0
15, 9600, Note_on_c, 14, 54, 64
15, 9720, Note_on_c, 14, 54, 0
15, 9720, Note_on_c, 14, 47, 65
15, 9840, Note_on_c, 14, 47, 0
15, 9840, Note_on_c, 14, 59, 65
15, 10200, Note_on_c, 14, 59, 0
15, 10200, Note_on_c, 14, 57, 67
15, 10440, Note_on_c, 14, 57, 0
15, 10440, Note_on_c, 14, 62, 69
15, 10560, Note_on_c, 14, 62, 0
15, 10560, Note_on_c, 14, 55, 70
15, 10680, Note_on_c, 14, 55, 0
15, 10680, Note_on_c, 14, 59, 70
15, 10800, Note_on_c, 14, 59, 0
15, 10800, Note_on_c, 14, 57, 71
15, 10920, Note_on_c, 14, 57, 0
15, 10920, Note_on_c, 14, 55, 72
15, 11040, Note_on_c, 14, 55, 0
15, 11040, Note_on_c, 14, 54, 72
15, 11580, Note_on_c, 14, 54, 0
15, 11580, Note_on_c, 14, 52, 70
15, 11640, Note_on_c, 14, 52, 0
15, 11640, Note_on_c, 14, 54, 70
15, 11700, Note_on_c, 14, 54, 0
15, 11700, Note_on_c, 14, 55, 70
15, 11760, Note_on_c, 14, 55, 0
15, 11760, Note_on_c, 14, 54, 70
15, 11820, Note_on_c, 14, 54, 0
15, 11820, Note_on_c, 14, 52, 70
15, 11880, Note_on_c, 14, 52, 0
15, 11880, Note_on_c, 14, 50, 70
15, 11940, Note_on_c, 14, 50, 0
15, 11940, Note_on_c, 14, 49, 70
15, 12000, Note_on_c, 14, 49, 0
15, 12000, Note_on_c, 14, 47, 70
15, 12240, Note_on_c, 14, 47, 0
15, 12240, Note_on_c, 14, 49, 70
15, 12480, Note_on_c, 14, 49, 0
15, 12480, Note_on_c, 14, 50, 70
15, 12600, Note_on_c, 14, 50, 0
15, 12600, Note_on_c, 14, 54, 75
15, 12720, Note_on_c, 14, 54, 0
15, 12720, Note_on_c, 14, 59, 100
15, 13080, Note_on_c, 14, 59, 0
15, 13080, Note_on_c, 14, 59, 74
15, 13200, Note_on_c, 14, 59, 0
15, 13200, Note_on_c, 14, 58, 74
15, 13320, Note_on_c, 14, 58, 0
15, 13320, Note_on_c, 14, 58, 74
15, 13440, Note_on_c, 14, 58, 0
15, 13440, Note_on_c, 14, 59, 74
15, 13500, Note_on_c, 14, 59, 0
15, 13500, Note_on_c, 14, 61, 74
15, 13560, Note_on_c, 14, 61, 0
15, 13560, Note_on_c, 14, 57, 74
15, 13620, Note_on_c, 14, 57, 0
15, 13620, Note_on_c, 14, 59, 75
15, 13680, Note_on_c, 14, 59, 0
15, 13680, Note_on_c, 14, 61, 75
15, 13740, Note_on_c, 14, 61, 0
15, 13740, Note_on_c, 14, 62, 75
15, 13800, Note_on_c, 14, 62, 0
15, 13800, Note_on_c, 14, 59, 75
15, 13860, Note_on_c, 14, 59, 0
15, 13860, Note_on_c, 14, 61, 76
15, 13920, Note_on_c, 14, 61, 0
15, 13920, Note_on_c, 14, 62, 76
15, 13980, Note_on_c, 14, 62, 0
15, 13980, Note_on_c, 14, 61, 76
15, 14040, Note_on_c, 14, 61, 0
15, 14040, Note_on_c, 14, 62, 76
15, 14100, Note_on_c, 14, 62, 0
15, 14100, Note_on_c, 14, 64, 77
15, 14160, Note_on_c, 14, 64, 0
15, 14160, Note_on_c, 14, 62, 77
15, 14220, Note_on_c, 14, 62, 0
15, 14220, Note_on_c, 14, 64, 77
15, 14280, Note_on_c, 14, 64, 0
15, 14280, Note_on_c, 14, 62, 77
15, 14340, Note_on_c, 14, 62, 0
15, 14340, Note_on_c, 14, 61, 77
15, 14400, Note_on_c, 14, 61, 0
15, 14400, Note_on_c, 14, 59, 78
15, 15000, Note_on_c, 14, 59, 0
15, 15000, Note_on_c, 14, 61, 80
15, 15120, Note_on_c, 14, 61, 0
15, 15120, Note_on_c, 14, 62, 80
15, 15360, Note_on_c, 14, 62, 0
15, 15360, Note_on_c, 14, 57, 81
15, 15600, Note_on_c, 14, 57, 0
15, 15600, Note_on_c, 14, 55, 82
15, 15720, Note_on_c, 14, 55, 0
15, 15720, Note_on_c, 14, 54, 83
15, 15840, Note_on_c, 14, 54, 0
15, 15840, Note_on_c, 14, 52, 83
15, 16080, Note_on_c, 14, 52, 0
15, 16080, Note_on_c, 14, 57, 84
15, 16320, Note_on_c, 14, 57, 0
15, 16320, Note_on_c, 14, 50, 85
15, 16560, Note_on_c, 14, 50, 0
15, 16560, Note_on_c, 14, 52, 85
15, 16800, Note_on_c, 14, 52, 0
15, 16800, Note_on_c, 14, 45, 85
15, 17520, Note_on_c, 14, 45, 0
15, 17520, Note_on_c, 14, 46, 76
15, 17760, Note_on_c, 14, 46, 0
15, 17760, Note_on_c, 14, 47, 72
15, 18000, Note_on_c, 14, 47, 0
15, 18000, Note_on_c, 14, 49, 68
15, 18240, Note_on_c, 14, 49, 0
15, 18240, Note_on_c, 14, 50, 64
15, 18480, Note_on_c, 14, 50, 0
15, 18480, Note_on_c, 14, 48, 62
15, 18720, Note_on_c, 14, 48, 0
15, 18720, Note_on_c, 14, 47, 59
15, 18960, Note_on_c, 14, 47, 0
15, 18960, Note_on_c, 14, 52, 57
15, 19200, Note_on_c, 14, 52, 0
15, 19200, Note_on_c, 14, 45, 55
15, 19440, Note_on_c, 14, 45, 0
15, 19440, Note_on_c, 14, 47, 54
15, 19680, Note_on_c, 14, 47, 0
15, 19680, Note_on_c, 14, 40, 50
15, 19920, Note_on_c, 14, 40, 0
15, 19920, Note_on_c, 14, 67, 90
15, 20280, Note_on_c, 14, 67, 0
15, 20280, Note_on_c, 14, 67, 64
15, 20400, Note_on_c, 14, 67, 0
15, 20400, Note_on_c, 14, 66, 64
15, 20520, Note_on_c, 14, 66, 0
15, 20520, Note_on_c, 14, 66, 64
15, 20640, Note_on_c, 14, 66, 0
15, 20640, Note_on_c, 14, 67, 64
15, 20760, Note_on_c, 14, 67, 0
15, 20760, Note_on_c, 14, 66, 64
15, 20820, Note_on_c, 14, 66, 0
15, 20820, Note_on_c, 14, 64, 64
15, 20880, Note_on_c, 14, 64, 0
15, 20880, Note_on_c, 14, 59, 90
15, 21240, Note_on_c, 14, 59, 0
15, 21240, Note_on_c, 14, 59, 64
15, 21360, Note_on_c, 14, 59, 0
15, 21360, Note_on_c, 14, 58, 64
15, 21480, Note_on_c, 14, 58, 0
15, 21480, Note_on_c, 14, 58, 64
15, 21600, Note_on_c, 14, 58, 0
15, 21600, Note_on_c, 14, 59, 64
15, 21720, Note_on_c, 14, 59, 0
15, 21720, Note_on_c, 14, 57, 64
15, 21780, Note_on_c, 14, 57, 0
15, 21780, Note_on_c, 14, 55, 64
15, 21840, Note_on_c, 14, 55, 0
15, 21840, Note_on_c, 14, 50, 90
15, 22200, Note_on_c, 14, 50, 0
15, 22200, Note_on_c, 14, 50, 64
15, 22320, Note_on_c, 14, 50, 0
15, 22320, Note_on_c, 14, 49, 64
15, 22440, Note_on_c, 14, 49, 0
15, 22440, Note_on_c, 14, 49, 64
15, 22560, Note_on_c, 14, 49, 0
15, 22560, Note_on_c, 14, 50, 64
15, 22680, Note_on_c, 14, 50, 0
15, 22680, Note_on_c, 14, 49, 64
15, 22740, Note_on_c, 14, 49, 0
15, 22740, Note_on_c, 14, 47, 64
15, 22800, Note_on_c, 14, 47, 0
15, 22800, Note_on_c, 14, 45, 64
15, 22860, Note_on_c, 14, 45, 0
15, 22860, Note_on_c, 14, 47, 64
15, 22920, Note_on_c, 14, 47, 0
15, 22920, Note_on_c, 14, 44, 64
15, 22980, Note_on_c, 14, 44, 0
15, 22980, Note_on_c, 14, 45, 64
15, 23040, Note_on_c, 14, 45, 0
15, 23040, Note_on_c, 14, 47, 64
15, 23100, Note_on_c, 14, 47, 0
15, 23100, Note_on_c, 14, 45, 64
15, 23160, Note_on_c, 14, 45, 0
15, 23160, Note_on_c, 14, 47, 64
15, 23220, Note_on_c, 14, 47, 0
15, 23220, Note_on_c, 14, 49, 64
15, 23280, Note_on_c, 14, 49, 0
15, 23280, Note_on_c, 14, 47, 64
15, 23340, Note_on_c, 14, 47, 0
15, 23340, Note_on_c, 14, 50, 64
15, 23400, Note_on_c, 14, 50, 0
15, 23400, Note_on_c, 14, 49, 64
15, 23460, Note_on_c, 14, 49, 0
15, 23460, Note_on_c, 14, 47, 64
15, 23520, Note_on_c, 14, 47, 0
15, 23520, Note_on_c, 14, 45, 64
15, 23640, Note_on_c, 14, 45, 0
15, 23640, Note_on_c, 14, 47, 64
15, 23760, Note_on_c, 14, 47, 0
15, 23760, Note_on_c, 14, 49, 64
15, 24000, Note_on_c, 14, 49, 0
15, 24000, Note_on_c, 14, 42, 64
15, 24120, Note_on_c, 14, 42, 0
15, 24120, Note_on_c, 14, 54, 64
15, 24240, Note_on_c, 14, 54, 0
15, 24240, Note_on_c, 14, 59, 64
15, 24600, Note_on_c, 14, 59, 0
15, 24600, Note_on_c, 14, 57, 64
15, 24720, Note_on_c, 14, 57, 0
15, 24720, Note_on_c, 14, 55, 64
15, 24840, Note_on_c, 14, 55, 0
15, 24840, Note_on_c, 14, 54, 64
15, 24960, Note_on_c, 14, 54, 0
15, 24960, Note_on_c, 14, 52, 64
15, 25200, Note_on_c, 14, 52, 0
15, 25200, Note_on_c, 14, 57, 64
15, 25440, Note_on_c, 14, 57, 0
15, 25440, Note_on_c, 14, 50, 64
15, 25560, Note_on_c, 14, 50, 0
15, 25560, Note_on_c, 14, 62, 64
15, 25680, Note_on_c, 14, 62, 0
15, 25680, Note_on_c, 14, 61, 64
15, 25800, Note_on_c, 14, 61, 0
15, 25800, Note_on_c, 14, 59, 64
15, 25920, Note_on_c, 14, 59, 0
15, 25920, Note_on_c, 14, 61, 64
15, 26040, Note_on_c, 14, 61, 0
15, 26040, Note_on_c, 14, 57, 64
15, 26160, Note_on_c, 14, 57, 0
15, 26160, Note_on_c, 14, 62, 64
15, 26640, Note_on_c, 14, 62, 0
15, 26640, Note_on_c, 14, 60, 64
15, 27120, Note_on_c, 14, 60, 0
15, 27120, Note_on_c, 14, 59, 64
15, 27360, Note_on_c, 14, 59, 0
15, 27360, Note_on_c, 14, 50, 64
15, 27360, Note_on_c, 14, 57, 64
15, 27840, Note_on_c, 14, 57, 0
15, 27840, Note_on_c, 14, 50, 0
15, 27840, Note_on_c, 14, 52, 64
15, 28080, Note_on_c, 14, 52, 0
15, 28080, Note_on_c, 14, 54, 64
15, 28320, Note_on_c, 14, 54, 0
15, 28320, Note_on_c, 14, 55, 64
15, 28560, Note_on_c, 14, 55, 0
15, 28560, Note_on_c, 14, 54, 64
15, 28680, Note_on_c, 14, 54, 0
15, 28680, Note_on_c, 14, 52, 64
15, 28800, Note_on_c, 14, 52, 0
15, 28800, Note_on_c, 14, 54, 64
15, 28920, Note_on_c, 14, 54, 0
15, 28920, Note_on_c, 14, 50, 65
15, 29040, Note_on_c, 14, 50, 0
15, 29040, Note_on_c, 14, 55, 65
15, 29520, Note_on_c, 14, 55, 0
15, 29520, Note_on_c, 14, 54, 68
15, 29760, Note_on_c, 14, 54, 0
15, 29760, Note_on_c, 14, 52, 70
15, 30000, Note_on_c, 14, 52, 0
15, 30000, Note_on_c, 14, 57, 71
15, 30240, Note_on_c, 14, 57, 0
15, 30240, Note_on_c, 14, 50, 72
15, 30360, Note_on_c, 14, 50, 0
15, 30360, Note_on_c, 14, 54, 64
15, 30480, Note_on_c, 14, 54, 0
15, 30480, Note_on_c, 14, 59, 74
15, 30840, Note_on_c, 14, 59, 0
15, 30840, Note_on_c, 14, 61, 75
15, 30960, Note_on_c, 14, 61, 0
15, 30960, Note_on_c, 14, 62, 76
15, 31020, Note_on_c, 14, 62, 0
15, 31020, Note_on_c, 14, 60, 76
15, 31080, Note_on_c, 14, 60, 0
15, 31080, Note_on_c, 14, 59, 76
15, 31140, Note_on_c, 14, 59, 0
15, 31140, Note_on_c, 14, 57, 76
15, 31200, Note_on_c, 14, 57, 0
15, 31200, Note_on_c, 14, 55, 76
15, 31320, Note_on_c, 14, 55, 0
15, 31320, Note_on_c, 14, 52, 77
15, 31440, Note_on_c, 14, 52, 0
15, 31440, Note_on_c, 14, 57, 77
15, 31680, Note_on_c, 14, 57, 0
15, 31680, Note_on_c, 14, 50, 78
15, 32160, Note_on_c, 14, 50, 0
15, 32160, Note_on_c, 14, 57, 79
15, 32400, Note_on_c, 14, 57, 0
15, 32400, Note_on_c, 14, 59, 79
15, 32640, Note_on_c, 14, 59, 0
15, 32640, Note_on_c, 14, 55, 80
15, 32880, Note_on_c, 14, 55, 0
15, 32880, Note_on_c, 14, 57, 81
15, 33120, Note_on_c, 14, 57, 0
15, 33120, Note_on_c, 14, 59, 83
15, 33360, Note_on_c, 14, 59, 0
15, 33360, Note_on_c, 14, 61, 84
15, 33600, Note_on_c, 14, 61, 0
15, 33600, Note_on_c, 14, 62, 85
15, 33840, Note_on_c, 14, 62, 0
15, 33840, Note_on_c, 14, 61, 86
15, 33960, Note_on_c, 14, 61, 0
15, 33960, Note_on_c, 14, 59, 87
15, 34080, Note_on_c, 14, 59, 0
15, 34080, Note_on_c, 14, 45, 88
15, 34560, Note_on_c, 14, 45, 0
15, 34560, Note_on_c, 14, 47, 90
15, 34800, Note_on_c, 14, 47, 0
15, 34800, Note_on_c, 14, 49, 90
15, 35040, Note_on_c, 14, 49, 0
15, 35040, Note_on_c, 14, 50, 90
15, 35280, Note_on_c, 14, 50, 0
15, 35280, Note_on_c, 14, 49, 90
15, 35400, Note_on_c, 14, 49, 0
15, 35400, Note_on_c, 14, 47, 90
15, 35520, Note_on_c, 14, 47, 0
15, 35520, Note_on_c, 14, 49, 90
15, 35640, Note_on_c, 14, 49, 0
15, 35640, Note_on_c, 14, 45, 90
15, 35760, Note_on_c, 14, 45, 0
15, 35760, Note_on_c, 14, 50, 90
15, 36240, Note_on_c, 14, 50, 0
15, 36240, Note_on_c, 14, 49, 90
15, 36360, Note_on_c, 14, 49, 0
15, 36360, Note_on_c, 14, 49, 80
15, 36480, Note_on_c, 14, 49, 0
15, 36480, Note_on_c, 14, 47, 86
15, 36960, Note_on_c, 14, 47, 0
15, 36960, Note_on_c, 14, 45, 80
15, 37200, Note_on_c, 14, 45, 0
15, 37200, Note_on_c, 14, 57, 104
15, 37560, Note_on_c, 14, 57, 0
15, 37560, Note_on_c, 14, 57, 75
15, 37680, Note_on_c, 14, 57, 0
15, 37680, Note_on_c, 14, 56, 75
15, 37800, Note_on_c, 14, 56, 0
15, 37800, Note_on_c, 14, 56, 75
15, 37920, Note_on_c, 14, 56, 0
15, 37920, Note_on_c, 14, 57, 75
15, 37980, Note_on_c, 14, 57, 0
15, 37980, Note_on_c, 14, 59, 75
15, 38040, Note_on_c, 14, 59, 0
15, 38040, Note_on_c, 14, 57, 75
15, 38100, Note_on_c, 14, 57, 0
15, 38100, Note_on_c, 14, 55, 75
15, 38160, Note_on_c, 14, 55, 0
15, 38160, Note_on_c, 14, 54, 75
15, 38220, Note_on_c, 14, 54, 0
15, 38220, Note_on_c, 14, 55, 75
15, 38280, Note_on_c, 14, 55, 0
15, 38280, Note_on_c, 14, 52, 75
15, 38340, Note_on_c, 14, 52, 0
15, 38340, Note_on_c, 14, 54, 75
15, 38400, Note_on_c, 14, 54, 0
15, 38400, Note_on_c, 14, 56, 76
15, 38460, Note_on_c, 14, 56, 0
15, 38460, Note_on_c, 14, 57, 76
15, 38520, Note_on_c, 14, 57, 0
15, 38520, Note_on_c, 14, 54, 77
15, 38580, Note_on_c, 14, 54, 0
15, 38580, Note_on_c, 14, 56, 77
15, 38640, Note_on_c, 14, 56, 0
15, 38640, Note_on_c, 14, 58, 77
15, 38700, Note_on_c, 14, 58, 0
15, 38700, Note_on_c, 14, 59, 78
15, 38760, Note_on_c, 14, 59, 0
15, 38760, Note_on_c, 14, 56, 78
15, 38820, Note_on_c, 14, 56, 0
15, 38820, Note_on_c, 14, 58, 78
15, 38880, Note_on_c, 14, 58, 0
15, 38880, Note_on_c, 14, 59, 79
15, 39480, Note_on_c, 14, 59, 0
15, 39480, Note_on_c, 14, 57, 82
15, 39540, Note_on_c, 14, 57, 0
15, 39540, Note_on_c, 14, 55, 82
15, 39600, Note_on_c, 14, 55, 0
15, 39600, Note_on_c, 14, 57, 82
15, 39660, Note_on_c, 14, 57, 0
15, 39660, Note_on_c, 14, 59, 83
15, 39720, Note_on_c, 14, 59, 0
15, 39720, Note_on_c, 14, 61, 83
15, 39780, Note_on_c, 14, 61, 0
15, 39780, Note_on_c, 14, 57, 83
15, 39840, Note_on_c, 14, 57, 0
15, 39840, Note_on_c, 14, 62, 84
15, 39960, Note_on_c, 14, 62, 0
15, 39960, Note_on_c, 14, 57, 84
15, 40080, Note_on_c, 14, 57, 0
15, 40080, Note_on_c, 14, 62, 85
15, 40560, Note_on_c, 14, 62, 0
15, 40560, Note_on_c, 14, 60, 86
15, 40800, Note_on_c, 14, 60, 0
15, 40800, Note_on_c, 14, 59, 87
15, 41520, Note_on_c, 14, 59, 0
15, 41520, Note_on_c, 14, 57, 89
15, 41760, Note_on_c, 14, 57, 0
15, 41760, Note_on_c, 14, 56, 90
15, 42240, Note_on_c, 14, 56, 0
15, 42240, Note_on_c, 14, 57, 91
15, 42600, Note_on_c, 14, 57, 0
15, 42600, Note_on_c, 14, 50, 92
15, 42720, Note_on_c, 14, 50, 0
15, 42720, Note_on_c, 14, 55, 93
15, 42840, Note_on_c, 14, 55, 0
15, 42840, Note_on_c, 14, 54, 93
15, 42960, Note_on_c, 14, 54, 0
15, 42960, Note_on_c, 14, 55, 93
15, 43080, Note_on_c, 14, 55, 0
15, 43080, Note_on_c, 14, 52, 94
15, 43200, Note_on_c, 14, 52, 0
15, 43200, Note_on_c, 14, 54, 94
15, 43560, Note_on_c, 14, 54, 0
15, 43560, Note_on_c, 14, 55, 95
15, 43680, Note_on_c, 14, 55, 0
15, 43680, Note_on_c, 14, 57, 96
15, 43920, Note_on_c, 14, 57, 0
15, 43920, Note_on_c, 14, 45, 96
15, 44160, Note_on_c, 14, 45, 0
15, 44160, Note_on_c, 14, 38, 97
15, 45120, Note_on_c, 14, 38, 0
15, 46080, End_track
16, 0, Start_track
16, 0, MIDI_port, 0
16, 0, Title_t, "Flutes I & II"
16, 0, Program_c, 2, 73
16, 3120, Note_on_c, 2, 69, 40
16, 3360, Note_on_c, 2, 69, 0
16, 3360, Note_on_c, 2, 71, 40
16, 3600, Note_on_c, 2, 71, 0
16, 3600, Note_on_c, 2, 73, 40
16, 3840, Note_on_c, 2, 73, 0
16, 3840, Note_on_c, 2, 74, 40
16, 4080, Note_on_c, 2, 74, 0
16, 4080, Note_on_c, 2, 73, 40
16, 4200, Note_on_c, 2, 73, 0
16, 4200, Note_on_c, 2, 71, 40
16, 4320, Note_on_c, 2, 71, 0
16, 4320, Note_on_c, 2, 73, 40
16, 4440, Note_on_c, 2, 73, 0
16, 4440, Note_on_c, 2, 69, 40
16, 4560, Note_on_c, 2, 69, 0
16, 4560, Note_on_c, 2, 74, 40
16, 5040, Note_on_c, 2, 74, 0
16, 5040, Note_on_c, 2, 73, 40
16, 5280, Note_on_c, 2, 73, 0
16, 5280, Note_on_c, 2, 71, 40
16, 5760, Note_on_c, 2, 71, 0
16, 5760, Note_on_c, 2, 69, 40
16, 6240, Note_on_c, 2, 69, 0
16, 6960, Note_on_c, 2, 74, 47
16, 7320, Note_on_c, 2, 74, 0
16, 7320, Note_on_c, 2, 74, 40
16, 7440, Note_on_c, 2, 74, 0
16, 7440, Note_on_c, 2, 73, 40
16, 7560, Note_on_c, 2, 73, 0
16, 7560, Note_on_c, 2, 73, 40
16, 7680, Note_on_c, 2, 73, 0
16, 7680, Note_on_c, 2, 74, 40
16, 7800, Note_on_c, 2, 74, 0
16, 7800, Note_on_c, 2, 73, 40
16, 7860, Note_on_c, 2, 73, 0
16, 7860, Note_on_c, 2, 71, 40
16, 7920, Note_on_c, 2, 71, 0
16, 7920, Note_on_c, 2, 69, 40
16, 7980, Note_on_c, 2, 69, 0
16, 7980, Note_on_c, 2, 71, 40
16, 8040, Note_on_c, 2, 71, 0
16, 8040, Note_on_c, 2, 67, 40
16, 8100, Note_on_c, 2, 67, 0
16, 8100, Note_on_c, 2, 69, 40
16, 8160, Note_on_c, 2, 69, 0
16, 8160, Note_on_c, 2, 71, 40
16, 8220, Note_on_c, 2, 71, 0
16, 8220, Note_on_c, 2, 69, 40
16, 8280, Note_on_c, 2, 69, 0
16, 8280, Note_on_c, 2, 71, 40
16, 8340, Note_on_c, 2, 71, 0
16, 8340, Note_on_c, 2, 72, 40
16, 8400, Note_on_c, 2, 72, 0
16, 8400, Note_on_c, 2, 71, 40
16, 8460, Note_on_c, 2, 71, 0
16, 8460, Note_on_c, 2, 72, 40
16, 8520, Note_on_c, 2, 72, 0
16, 8520, Note_on_c, 2, 71, 40
16, 8580, Note_on_c, 2, 71, 0
16, 8580, Note_on_c, 2, 69, 40
16, 8640, Note_on_c, 2, 69, 0
16, 8640, Note_on_c, 2, 67, 40
16, 8760, Note_on_c, 2, 67, 0
16, 8760, Note_on_c, 2, 66, 40
16, 8820, Note_on_c, 2, 66, 0
16, 8820, Note_on_c, 2, 64, 40
16, 8880, Note_on_c, 2, 64, 0
16, 8880, Note_on_c, 2, 69, 40
16, 9120, Note_on_c, 2, 69, 0
16, 9120, Note_on_c, 2, 62, 40
16, 9360, Note_on_c, 2, 62, 0
16, 10320, Note_on_c, 2, 69, 68
16, 10560, Note_on_c, 2, 69, 0
16, 10560, Note_on_c, 2, 71, 70
16, 10800, Note_on_c, 2, 71, 0
16, 10800, Note_on_c, 2, 73, 71
16, 11040, Note_on_c, 2, 73, 0
16, 11040, Note_on_c, 2, 74, 72
16, 11280, Note_on_c, 2, 74, 0
16, 11280, Note_on_c, 2, 73, 74
16, 11400, Note_on_c, 2, 73, 0
16, 11400, Note_on_c, 2, 71, 74
16, 11520, Note_on_c, 2, 71, 0
16, 11520, Note_on_c, 2, 73, 74
16, 11640, Note_on_c, 2, 73, 0
16, 11640, Note_on_c, 2, 66, 74
16, 11760, Note_on_c, 2, 66, 0
16, 11760, Note_on_c, 2, 78, 74
16, 12120, Note_on_c, 2, 78, 0
16, 12120, Note_on_c, 2, 71, 74
16, 12240, Note_on_c, 2, 71, 0
16, 12240, Note_on_c, 2, 76, 74
16, 12600, Note_on_c, 2, 76, 0
16, 12600, Note_on_c, 2, 74, 74
16, 12840, Note_on_c, 2, 74, 0
16, 12840, Note_on_c, 2, 79, 74
16, 12960, Note_on_c, 2, 79, 0
16, 12960, Note_on_c, 2, 73, 74
16, 13080, Note_on_c, 2, 73, 0
16, 13080, Note_on_c, 2, 76, 74
16, 13200, Note_on_c, 2, 76, 0
16, 13200, Note_on_c, 2, 74, 74
16, 13320, Note_on_c, 2, 74, 0
16, 13320, Note_on_c, 2, 73, 74
16, 13440, Note_on_c, 2, 73, 0
16, 13440, Note_on_c, 2, 71, 74
16, 13920, Note_on_c, 2, 71, 0
16, 14880, Note_on_c, 2, 74, 80
16, 15360, Note_on_c, 2, 74, 0
16, 15360, Note_on_c, 2, 76, 81
16, 15600, Note_on_c, 2, 76, 0
16, 15600, Note_on_c, 2, 78, 82
16, 15840, Note_on_c, 2, 78, 0
16, 15840, Note_on_c, 2, 79, 83
16, 16080, Note_on_c, 2, 79, 0
16, 16080, Note_on_c, 2, 78, 84
16, 16200, Note_on_c, 2, 78, 0
16, 16200, Note_on_c, 2, 76, 85
16, 16320, Note_on_c, 2, 76, 0
16, 16320, Note_on_c, 2, 78, 85
16, 16440, Note_on_c, 2, 78, 0
16, 16440, Note_on_c, 2, 74, 85
16, 16560, Note_on_c, 2, 74, 0
16, 16560, Note_on_c, 2, 79, 85
16, 17040, Note_on_c, 2, 79, 0
16, 17040, Note_on_c, 2, 78, 85
16, 17280, Note_on_c, 2, 78, 0
16, 17280, Note_on_c, 2, 76, 80
16, 17760, Note_on_c, 2, 76, 0
16, 17760, Note_on_c, 2, 74, 72
16, 18240, Note_on_c, 2, 74, 0
16, 18960, Note_on_c, 2, 76, 90
16, 19320, Note_on_c, 2, 76, 0
16, 19320, Note_on_c, 2, 76, 64
16, 19440, Note_on_c, 2, 76, 0
16, 19440, Note_on_c, 2, 75, 64
16, 19560, Note_on_c, 2, 75, 0
16, 19560, Note_on_c, 2, 75, 64
16, 19680, Note_on_c, 2, 75, 0
16, 19680, Note_on_c, 2, 76, 64
16, 19800, Note_on_c, 2, 76, 0
16, 19800, Note_on_c, 2, 74, 64
16, 19860, Note_on_c, 2, 74, 0
16, 19860, Note_on_c, 2, 72, 64
16, 19920, Note_on_c, 2, 72, 0
16, 19920, Note_on_c, 2, 71, 64
16, 19980, Note_on_c, 2, 71, 0
16, 19980, Note_on_c, 2, 72, 64
16, 20040, Note_on_c, 2, 72, 0
16, 20040, Note_on_c, 2, 69, 64
16, 20100, Note_on_c, 2, 69, 0
16, 20100, Note_on_c, 2, 71, 64
16, 20160, Note_on_c, 2, 71, 0
16, 20160, Note_on_c, 2, 72, 64
16, 20220, Note_on_c, 2, 72, 0
16, 20220, Note_on_c, 2, 71, 64
16, 20280, Note_on_c, 2, 71, 0
16, 20280, Note_on_c, 2, 72, 64
16, 20340, Note_on_c, 2, 72, 0
16, 20340, Note_on_c, 2, 74, 64
16, 20400, Note_on_c, 2, 74, 0
16, 20400, Note_on_c, 2, 72, 64
16, 20460, Note_on_c, 2, 72, 0
16, 20460, Note_on_c, 2, 76, 64
16, 20520, Note_on_c, 2, 76, 0
16, 20520, Note_on_c, 2, 74, 64
16, 20580, Note_on_c, 2, 74, 0
16, 20580, Note_on_c, 2, 72, 64
16, 20640, Note_on_c, 2, 72, 0
16, 20640, Note_on_c, 2, 71, 64
16, 20760, Note_on_c, 2, 71, 0
16, 20760, Note_on_c, 2, 73, 64
16, 20880, Note_on_c, 2, 73, 0
16, 20880, Note_on_c, 2, 74, 64
16, 21120, Note_on_c, 2, 74, 0
16, 21120, Note_on_c, 2, 67, 64
16, 21240, Note_on_c, 2, 67, 0
16, 21240, Note_on_c, 2, 64, 64
16, 21360, Note_on_c, 2, 64, 0
16, 21360, Note_on_c, 2, 73, 90
16, 21840, Note_on_c, 2, 73, 0
16, 21840, Note_on_c, 2, 71, 64
16, 22080, Note_on_c, 2, 71, 0
16, 22080, Note_on_c, 2, 76, 64
16, 22320, Note_on_c, 2, 76, 0
16, 22320, Note_on_c, 2, 69, 64
16, 22800, Note_on_c, 2, 69, 0
16, 22800, Note_on_c, 2, 78, 90
16, 23160, Note_on_c, 2, 78, 0
16, 23160, Note_on_c, 2, 78, 64
16, 23280, Note_on_c, 2, 78, 0
16, 23280, Note_on_c, 2, 77, 64
16, 23400, Note_on_c, 2, 77, 0
16, 23400, Note_on_c, 2, 77, 64
16, 23520, Note_on_c, 2, 77, 0
16, 23520, Note_on_c, 2, 78, 64
16, 23640, Note_on_c, 2, 78, 0
16, 23640, Note_on_c, 2, 76, 64
16, 23700, Note_on_c, 2, 76, 0
16, 23700, Note_on_c, 2, 74, 64
16, 23760, Note_on_c, 2, 74, 0
16, 23760, Note_on_c, 2, 73, 64
16, 23820, Note_on_c, 2, 73, 0
16, 23820, Note_on_c, 2, 74, 64
16, 23880, Note_on_c, 2, 74, 0
16, 23880, Note_on_c, 2, 71, 64
16, 23940, Note_on_c, 2, 71, 0
16, 23940, Note_on_c, 2, 73, 64
16, 24000, Note_on_c, 2, 73, 0
16, 24000, Note_on_c, 2, 74, 64
16, 24060, Note_on_c, 2, 74, 0
16, 24060, Note_on_c, 2, 73, 64
16, 24120, Note_on_c, 2, 73, 0
16, 24120, Note_on_c, 2, 74, 64
16, 24180, Note_on_c, 2, 74, 0
16, 24180, Note_on_c, 2, 76, 64
16, 24240, Note_on_c, 2, 76, 0
16, 24240, Note_on_c, 2, 74, 64
16, 24300, Note_on_c, 2, 74, 0
16, 24300, Note_on_c, 2, 78, 64
16, 24360, Note_on_c, 2, 78, 0
16, 24360, Note_on_c, 2, 76, 64
16, 24420, Note_on_c, 2, 76, 0
16, 24420, Note_on_c, 2, 74, 64
16, 24480, Note_on_c, 2, 74, 0
16, 24480, Note_on_c, 2, 73, 64
16, 24720, Note_on_c, 2, 73, 0
16, 24720, Note_on_c, 2, 78, 64
16, 24960, Note_on_c, 2, 78, 0
16, 24960, Note_on_c, 2, 71, 64
16, 25200, Note_on_c, 2, 71, 0
16, 25680, Note_on_c, 2, 74, 64
16, 25920, Note_on_c, 2, 74, 0
16, 25920, Note_on_c, 2, 76, 64
16, 26160, Note_on_c, 2, 76, 0
16, 26160, Note_on_c, 2, 78, 64
16, 26400, Note_on_c, 2, 78, 0
16, 26400, Note_on_c, 2, 79, 64
16, 26640, Note_on_c, 2, 79, 0
16, 26640, Note_on_c, 2, 78, 64
16, 26760, Note_on_c, 2, 78, 0
16, 26760, Note_on_c, 2, 76, 64
16, 26880, Note_on_c, 2, 76, 0
16, 26880, Note_on_c, 2, 78, 64
16, 27000, Note_on_c, 2, 78, 0
16, 27000, Note_on_c, 2, 74, 64
16, 27120, Note_on_c, 2, 74, 0
16, 27120, Note_on_c, 2, 79, 64
16, 27600, Note_on_c, 2, 79, 0
16, 27600, Note_on_c, 2, 78, 64
16, 27840, Note_on_c, 2, 78, 0
16, 27840, Note_on_c, 2, 76, 64
16, 28080, Note_on_c, 2, 76, 0
16, 28080, Note_on_c, 2, 74, 64
16, 28440, Note_on_c, 2, 74, 0
16, 28440, Note_on_c, 2, 71, 64
16, 28680, Note_on_c, 2, 71, 0
16, 28680, Note_on_c, 2, 71, 64
16, 28800, Note_on_c, 2, 71, 0
16, 28800, Note_on_c, 2, 69, 64
16, 28920, Note_on_c, 2, 69, 0
16, 28920, Note_on_c, 2, 69, 65
16, 29040, Note_on_c, 2, 69, 0
16, 29040, Note_on_c, 2, 71, 65
16, 29280, Note_on_c, 2, 71, 0
16, 29280, Note_on_c, 2, 64, 67
16, 29400, Note_on_c, 2, 64, 0
16, 29520, Note_on_c, 2, 69, 68
16, 29760, Note_on_c, 2, 69, 0
16, 29760, Note_on_c, 2, 71, 70
16, 30000, Note_on_c, 2, 71, 0
16, 30000, Note_on_c, 2, 73, 71
16, 30240, Note_on_c, 2, 73, 0
16, 30240, Note_on_c, 2, 74, 72
16, 30480, Note_on_c, 2, 74, 0
16, 30480, Note_on_c, 2, 73, 74
16, 30600, Note_on_c, 2, 73, 0
16, 30600, Note_on_c, 2, 71, 74
16, 30720, Note_on_c, 2, 71, 0
16, 30720, Note_on_c, 2, 73, 75
16, 30840, Note_on_c, 2, 73, 0
16, 30840, Note_on_c, 2, 69, 75
16, 30960, Note_on_c, 2, 69, 0
16, 30960, Note_on_c, 2, 74, 76
16, 31440, Note_on_c, 2, 74, 0
16, 31440, Note_on_c, 2, 73, 77
16, 31680, Note_on_c, 2, 73, 0
16, 31680, Note_on_c, 2, 71, 78
16, 32160, Note_on_c, 2, 71, 0
16, 32160, Note_on_c, 2, 69, 79
16, 32640, Note_on_c, 2, 69, 0
16, 33600, Note_on_c, 2, 74, 85
16, 34080, Note_on_c, 2, 74, 0
16, 34080, Note_on_c, 2, 76, 88
16, 34320, Note_on_c, 2, 76, 0
16, 34320, Note_on_c, 2, 78, 89
16, 34560, Note_on_c, 2, 78, 0
16, 34560, Note_on_c, 2, 79, 90
16, 34800, Note_on_c, 2, 79, 0
16, 34800, Note_on_c, 2, 78, 90
16, 34920, Note_on_c, 2, 78, 0
16, 34920, Note_on_c, 2, 76, 90
16, 35040, Note_on_c, 2, 76, 0
16, 35040, Note_on_c, 2, 78, 90
16, 35160, Note_on_c, 2, 78, 0
16, 35160, Note_on_c, 2, 74, 90
16, 35280, Note_on_c, 2, 74, 0
16, 35280, Note_on_c, 2, 79, 90
16, 35760, Note_on_c, 2, 79, 0
16, 35760, Note_on_c, 2, 78, 90
16, 36000, Note_on_c, 2, 78, 0
16, 36000, Note_on_c, 2, 76, 90
16, 36480, Note_on_c, 2, 76, 0
16, 36480, Note_on_c, 2, 74, 86
16, 36720, Note_on_c, 2, 74, 0
16, 36720, Note_on_c, 2, 74, 109
16, 37080, Note_on_c, 2, 74, 0
16, 37080, Note_on_c, 2, 74, 79
16, 37200, Note_on_c, 2, 74, 0
16, 37200, Note_on_c, 2, 73, 78
16, 37320, Note_on_c, 2, 73, 0
16, 37320, Note_on_c, 2, 73, 76
16, 37440, Note_on_c, 2, 73, 0
16, 37440, Note_on_c, 2, 74, 75
16, 37500, Note_on_c, 2, 74, 0
16, 37500, Note_on_c, 2, 76, 75
16, 37560, Note_on_c, 2, 76, 0
16, 37560, Note_on_c, 2, 74, 75
16, 37620, Note_on_c, 2, 74, 0
16, 37620, Note_on_c, 2, 73, 75
16, 37680, Note_on_c, 2, 73, 0
16, 37680, Note_on_c, 2, 71, 75
16, 37740, Note_on_c, 2, 71, 0
16, 37740, Note_on_c, 2, 73, 75
16, 37800, Note_on_c, 2, 73, 0
16, 37800, Note_on_c, 2, 69, 75
16, 37860, Note_on_c, 2, 69, 0
16, 37860, Note_on_c, 2, 71, 75
16, 37920, Note_on_c, 2, 71, 0
16, 37920, Note_on_c, 2, 73, 75
16, 37980, Note_on_c, 2, 73, 0
16, 37980, Note_on_c, 2, 74, 75
16, 38040, Note_on_c, 2, 74, 0
16, 38040, Note_on_c, 2, 71, 75
16, 38100, Note_on_c, 2, 71, 0
16, 38100, Note_on_c, 2, 73, 75
16, 38160, Note_on_c, 2, 73, 0
16, 38160, Note_on_c, 2, 75, 75
16, 38220, Note_on_c, 2, 75, 0
16, 38220, Note_on_c, 2, 76, 75
16, 38280, Note_on_c, 2, 76, 0
16, 38280, Note_on_c, 2, 73, 75
16, 38340, Note_on_c, 2, 73, 0
16, 38340, Note_on_c, 2, 75, 75
16, 38400, Note_on_c, 2, 75, 0
16, 38400, Note_on_c, 2, 76, 76
16, 39000, Note_on_c, 2, 76, 0
16, 39000, Note_on_c, 2, 74, 79
16, 39060, Note_on_c, 2, 74, 0
16, 39060, Note_on_c, 2, 73, 79
16, 39120, Note_on_c, 2, 73, 0
16, 39120, Note_on_c, 2, 74, 80
16, 39180, Note_on_c, 2, 74, 0
16, 39180, Note_on_c, 2, 76, 80
16, 39240, Note_on_c, 2, 76, 0
16, 39240, Note_on_c, 2, 78, 80
16, 39300, Note_on_c, 2, 78, 0
16, 39300, Note_on_c, 2, 74, 81
16, 39360, Note_on_c, 2, 74, 0
16, 39360, Note_on_c, 2, 79, 81
16, 40080, Note_on_c, 2, 79, 0
16, 40080, Note_on_c, 2, 78, 85
16, 40320, Note_on_c, 2, 78, 0
16, 40320, Note_on_c, 2, 76, 85
16, 41280, Note_on_c, 2, 76, 0
16, 41280, Note_on_c, 2, 74, 88
16, 41520, Note_on_c, 2, 74, 0
16, 41640, Note_on_c, 2, 74, 89
16, 41760, Note_on_c, 2, 74, 0
16, 41760, Note_on_c, 2, 76, 90
16, 42060, Note_on_c, 2, 76, 0
16, 42060, Note_on_c, 2, 78, 90
16, 42120, Note_on_c, 2, 78, 0
16, 42120, Note_on_c, 2, 76, 91
16, 42180, Note_on_c, 2, 76, 0
16, 42180, Note_on_c, 2, 74, 91
16, 42240, Note_on_c, 2, 74, 0
16, 42240, Note_on_c, 2, 73, 91
16, 42360, Note_on_c, 2, 73, 0
16, 42360, Note_on_c, 2, 69, 91
16, 42480, Note_on_c, 2, 69, 0
16, 42480, Note_on_c, 2, 78, 92
16, 42960, Note_on_c, 2, 78, 0
16, 42960, Note_on_c, 2, 76, 93
16, 43320, Note_on_c, 2, 76, 0
16, 43320, Note_on_c, 2, 69, 94
16, 43440, Note_on_c, 2, 69, 0
16, 43440, Note_on_c, 2, 74, 95
16, 43800, Note_on_c, 2, 74, 0
16, 43800, Note_on_c, 2, 73, 96
16, 43860, Note_on_c, 2, 73, 0
16, 43860, Note_on_c, 2, 71, 96
16, 43920, Note_on_c, 2, 71, 0
16, 43920, Note_on_c, 2, 73, 96
16, 44160, Note_on_c, 2, 73, 0
16, 44160, Note_on_c, 2, 74, 97
16, 45120, Note_on_c, 2, 74, 0
16, 46080, End_track
17, 0, Start_track
17, 0, MIDI_port, 0
17, 0, Title_t, "Oboe I"
17, 0, Program_c, 3, 68
17, 3120, Note_on_c, 3, 69, 40
17, 3360, Note_on_c, 3, 69, 0
17, 3360, Note_on_c, 3, 71, 40
17, 3600, Note_on_c, 3, 71, 0
17, 3600, Note_on_c, 3, 73, 40
17, 3840, Note_on_c, 3, 73, 0
17, 3840, Note_on_c, 3, 74, 40
17, 4080, Note_on_c, 3, 74, 0
17, 4080, Note_on_c, 3, 73, 40
17, 4200, Note_on_c, 3, 73, 0
17, 4200, Note_on_c, 3, 71, 40
17, 4320, Note_on_c, 3, 71, 0
17, 4320, Note_on_c, 3, 73, 40
17, 4440, Note_on_c, 3, 73, 0
17, 4440, Note_on_c, 3, 69, 40
17, 4560, Note_on_c, 3, 69, 0
17, 4560, Note_on_c, 3, 74, 40
17, 5040, Note_on_c, 3, 74, 0
17, 5040, Note_on_c, 3, 73, 40
17, 5280, Note_on_c, 3, 73, 0
17, 5280, Note_on_c, 3, 71, 40
17, 5760, Note_on_c, 3, 71, 0
17, 5760, Note_on_c, 3, 69, 40
17, 6240, Note_on_c, 3, 69, 0
17, 6960, Note_on_c, 3, 74, 47
17, 7320, Note_on_c, 3, 74, 0
17, 7320, Note_on_c, 3, 74, 40
17, 7440, Note_on_c, 3, 74, 0
17, 7440, Note_on_c, 3, 73, 40
17, 7560, Note_on_c, 3, 73, 0
17, 7560, Note_on_c, 3, 73, 40
17, 7680, Note_on_c, 3, 73, 0
17, 7680, Note_on_c, 3, 74, 40
17, 7800, Note_on_c, 3, 74, 0
17, 7800, Note_on_c, 3, 73, 40
17, 7860, Note_on_c, 3, 73, 0
17, 7860, Note_on_c, 3, 71, 40
17, 7920, Note_on_c, 3, 71, 0
17, 7920, Note_on_c, 3, 69, 40
17, 7980, Note_on_c, 3, 69, 0
17, 7980, Note_on_c, 3, 71, 40
17, 8040, Note_on_c, 3, 71, 0
17, 8040, Note_on_c, 3, 67, 40
17, 8100, Note_on_c, 3, 67, 0
17, 8100, Note_on_c, 3, 69, 40
17, 8160, Note_on_c, 3, 69, 0
17, 8160, Note_on_c, 3, 71, 40
17, 8220, Note_on_c, 3, 71, 0
17, 8220, Note_on_c, 3, 69, 40
17, 8280, Note_on_c, 3, 69, 0
17, 8280, Note_on_c, 3, 71, 40
17, 8340, Note_on_c, 3, 71, 0
17, 8340, Note_on_c, 3, 72, 40
17, 8400, Note_on_c, 3, 72, 0
17, 8400, Note_on_c, 3, 71, 40
17, 8460, Note_on_c, 3, 71, 0
17, 8460, Note_on_c, 3, 72, 40
17, 8520, Note_on_c, 3, 72, 0
17, 8520, Note_on_c, 3, 71, 40
17, 8580, Note_on_c, 3, 71, 0
17, 8580, Note_on_c, 3, 69, 40
17, 8640, Note_on_c, 3, 69, 0
17, 8640, Note_on_c, 3, 67, 40
17, 8760, Note_on_c, 3, 67, 0
17, 8760, Note_on_c, 3, 66, 40
17, 8820, Note_on_c, 3, 66, 0
17, 8820, Note_on_c, 3, 64, 40
17, 8880, Note_on_c, 3, 64, 0
17, 8880, Note_on_c, 3, 69, 40
17, 9120, Note_on_c, 3, 69, 0
17, 9120, Note_on_c, 3, 62, 40
17, 9360, Note_on_c, 3, 62, 0
17, 10320, Note_on_c, 3, 69, 68
17, 10560, Note_on_c, 3, 69, 0
17, 10560, Note_on_c, 3, 71, 70
17, 10800, Note_on_c, 3, 71, 0
17, 10800, Note_on_c, 3, 73, 71
17, 11040, Note_on_c, 3, 73, 0
17, 11040, Note_on_c, 3, 74, 72
17, 11280, Note_on_c, 3, 74, 0
17, 11280, Note_on_c, 3, 73, 74
17, 11400, Note_on_c, 3, 73, 0
17, 11400, Note_on_c, 3, 71, 74
17, 11520, Note_on_c, 3, 71, 0
17, 11520, Note_on_c, 3, 73, 74
17, 11640, Note_on_c, 3, 73, 0
17, 11640, Note_on_c, 3, 66, 74
17, 11760, Note_on_c, 3, 66, 0
17, 11760, Note_on_c, 3, 78, 74
17, 12120, Note_on_c, 3, 78, 0
17, 12120, Note_on_c, 3, 71, 74
17, 12240, Note_on_c, 3, 71, 0
17, 12240, Note_on_c, 3, 76, 74
17, 12600, Note_on_c, 3, 76, 0
17, 12600, Note_on_c, 3, 74, 74
17, 12840, Note_on_c, 3, 74, 0
17, 12840, Note_on_c, 3, 79, 74
17, 12960, Note_on_c, 3, 79, 0
17, 12960, Note_on_c, 3, 73, 74
17, 13080, Note_on_c, 3, 73, 0
17, 13080, Note_on_c, 3, 76, 74
17, 13200, Note_on_c, 3, 76, 0
17, 13200, Note_on_c, 3, 74, 74
17, 13320, Note_on_c, 3, 74, 0
17, 13320, Note_on_c, 3, 73, 74
17, 13440, Note_on_c, 3, 73, 0
17, 13440, Note_on_c, 3, 71, 74
17, 13920, Note_on_c, 3, 71, 0
17, 14880, Note_on_c, 3, 74, 80
17, 15360, Note_on_c, 3, 74, 0
17, 15360, Note_on_c, 3, 76, 81
17, 15600, Note_on_c, 3, 76, 0
17, 15600, Note_on_c, 3, 78, 82
17, 15840, Note_on_c, 3, 78, 0
17, 15840, Note_on_c, 3, 79, 83
17, 16080, Note_on_c, 3, 79, 0
17, 16080, Note_on_c, 3, 78, 84
17, 16200, Note_on_c, 3, 78, 0
17, 16200, Note_on_c, 3, 76, 85
17, 16320, Note_on_c, 3, 76, 0
17, 16320, Note_on_c, 3, 78, 85
17, 16440, Note_on_c, 3, 78, 0
17, 16440, Note_on_c, 3, 74, 85
17, 16560, Note_on_c, 3, 74, 0
17, 16560, Note_on_c, 3, 79, 85
17, 17040, Note_on_c, 3, 79, 0
17, 17040, Note_on_c, 3, 78, 85
17, 17280, Note_on_c, 3, 78, 0
17, 17280, Note_on_c, 3, 76, 80
17, 17760, Note_on_c, 3, 76, 0
17, 17760, Note_on_c, 3, 74, 72
17, 18240, Note_on_c, 3, 74, 0
17, 18960, Note_on_c, 3, 76, 90
17, 19320, Note_on_c, 3, 76, 0
17, 19320, Note_on_c, 3, 76, 64
17, 19440, Note_on_c, 3, 76, 0
17, 19440, Note_on_c, 3, 75, 64
17, 19560, Note_on_c, 3, 75, 0
17, 19560, Note_on_c, 3, 75, 64
17, 19680, Note_on_c, 3, 75, 0
17, 19680, Note_on_c, 3, 76, 64
17, 19800, Note_on_c, 3, 76, 0
17, 19800, Note_on_c, 3, 74, 64
17, 19860, Note_on_c, 3, 74, 0
17, 19860, Note_on_c, 3, 72, 64
17, 19920, Note_on_c, 3, 72, 0
17, 19920, Note_on_c, 3, 71, 64
17, 19980, Note_on_c, 3, 71, 0
17, 19980, Note_on_c, 3, 72, 64
17, 20040, Note_on_c, 3, 72, 0
17, 20040, Note_on_c, 3, 69, 64
17, 20100, Note_on_c, 3, 69, 0
17, 20100, Note_on_c, 3, 71, 64
17, 20160, Note_on_c, 3, 71, 0
17, 20160, Note_on_c, 3, 72, 64
17, 20220, Note_on_c, 3, 72, 0
17, 20220, Note_on_c, 3, 71, 64
17, 20280, Note_on_c, 3, 71, 0
17, 20280, Note_on_c, 3, 72, 64
17, 20340, Note_on_c, 3, 72, 0
17, 20340, Note_on_c, 3, 74, 64
17, 20400, Note_on_c, 3, 74, 0
17, 20400, Note_on_c, 3, 72, 64
17, 20460, Note_on_c, 3, 72, 0
17, 20460, Note_on_c, 3, 76, 64
17, 20520, Note_on_c, 3, 76, 0
17, 20520, Note_on_c, 3, 74, 64
17, 20580, Note_on_c, 3, 74, 0
17, 20580, Note_on_c, 3, 72, 64
17, 20640, Note_on_c, 3, 72, 0
17, 20640, Note_on_c, 3, 71, 64
17, 20760, Note_on_c, 3, 71, 0
17, 20760, Note_on_c, 3, 73, 64
17, 20880, Note_on_c, 3, 73, 0
17, 20880, Note_on_c, 3, 74, 64
17, 21120, Note_on_c, 3, 74, 0
17, 21120, Note_on_c, 3, 67, 64
17, 21240, Note_on_c, 3, 67, 0
17, 21240, Note_on_c, 3, 64, 64
17, 21360, Note_on_c, 3, 64, 0
17, 21360, Note_on_c, 3, 73, 90
17, 21840, Note_on_c, 3, 73, 0
17, 21840, Note_on_c, 3, 71, 64
17, 22080, Note_on_c, 3, 71, 0
17, 22080, Note_on_c, 3, 76, 64
17, 22320, Note_on_c, 3, 76, 0
17, 22320, Note_on_c, 3, 69, 64
17, 22800, Note_on_c, 3, 69, 0
17, 22800, Note_on_c, 3, 78, 90
17, 23160, Note_on_c, 3, 78, 0
17, 23160, Note_on_c, 3, 78, 64
17, 23280, Note_on_c, 3, 78, 0
17, 23280, Note_on_c, 3, 77, 64
17, 23400, Note_on_c, 3, 77, 0
17, 23400, Note_on_c, 3, 77, 64
17, 23520, Note_on_c, 3, 77, 0
17, 23520, Note_on_c, 3, 78, 64
17, 23640, Note_on_c, 3, 78, 0
17, 23640, Note_on_c, 3, 76, 64
17, 23700, Note_on_c, 3, 76, 0
17, 23700, Note_on_c, 3, 74, 64
17, 23760, Note_on_c, 3, 74, 0
17, 23760, Note_on_c, 3, 73, 64
17, 23820, Note_on_c, 3, 73, 0
17, 23820, Note_on_c, 3, 74, 64
17, 23880, Note_on_c, 3, 74, 0
17, 23880, Note_on_c, 3, 71, 64
17, 23940, Note_on_c, 3, 71, 0
17, 23940, Note_on_c, 3, 73, 64
17, 24000, Note_on_c, 3, 73, 0
17, 24000, Note_on_c, 3, 74, 64
17, 24060, Note_on_c, 3, 74, 0
17, 24060, Note_on_c, 3, 73, 64
17, 24120, Note_on_c, 3, 73, 0
17, 24120, Note_on_c, 3, 74, 64
17, 24180, Note_on_c, 3, 74, 0
17, 24180, Note_on_c, 3, 76, 64
17, 24240, Note_on_c, 3, 76, 0
17, 24240, Note_on_c, 3, 74, 64
17, 24300, Note_on_c, 3, 74, 0
17, 24300, Note_on_c, 3, 78, 64
17, 24360, Note_on_c, 3, 78, 0
17, 24360, Note_on_c, 3, 76, 64
17, 24420, Note_on_c, 3, 76, 0
17, 24420, Note_on_c, 3, 74, 64
17, 24480, Note_on_c, 3, 74, 0
17, 24480, Note_on_c, 3, 73, 64
17, 24720, Note_on_c, 3, 73, 0
17, 24720, Note_on_c, 3, 78, 64
17, 24960, Note_on_c, 3, 78, 0
17, 24960, Note_on_c, 3, 71, 64
17, 25200, Note_on_c, 3, 71, 0
17, 25680, Note_on_c, 3, 74, 64
17, 25920, Note_on_c, 3, 74, 0
17, 25920, Note_on_c, 3, 76, 64
17, 26160, Note_on_c, 3, 76, 0
17, 26160, Note_on_c, 3, 78, 64
17, 26400, Note_on_c, 3, 78, 0
17, 26400, Note_on_c, 3, 79, 64
17, 26640, Note_on_c, 3, 79, 0
17, 26640, Note_on_c, 3, 78, 64
17, 26760, Note_on_c, 3, 78, 0
17, 26760, Note_on_c, 3, 76, 64
17, 26880, Note_on_c, 3, 76, 0
17, 26880, Note_on_c, 3, 78, 64
17, 27000, Note_on_c, 3, 78, 0
17, 27000, Note_on_c, 3, 74, 64
17, 27120, Note_on_c, 3, 74, 0
17, 27120, Note_on_c, 3, 79, 64
17, 27600, Note_on_c, 3, 79, 0
17, 27600, Note_on_c, 3, 78, 64
17, 27840, Note_on_c, 3, 78, 0
17, 27840, Note_on_c, 3, 76, 64
17, 28080, Note_on_c, 3, 76, 0
17, 28080, Note_on_c, 3, 74, 64
17, 28440, Note_on_c, 3, 74, 0
17, 28440, Note_on_c, 3, 71, 64
17, 28680, Note_on_c, 3, 71, 0
17, 28680, Note_on_c, 3, 71, 64
17, 28800, Note_on_c, 3, 71, 0
17, 28800, Note_on_c, 3, 69, 64
17, 28920, Note_on_c, 3, 69, 0
17, 28920, Note_on_c, 3, 69, 65
17, 29040, Note_on_c, 3, 69, 0
17, 29040, Note_on_c, 3, 71, 65
17, 29280, Note_on_c, 3, 71, 0
17, 29280, Note_on_c, 3, 64, 67
17, 29400, Note_on_c, 3, 64, 0
17, 29520, Note_on_c, 3, 69, 68
17, 29760, Note_on_c, 3, 69, 0
17, 29760, Note_on_c, 3, 71, 70
17, 30000, Note_on_c, 3, 71, 0
17, 30000, Note_on_c, 3, 73, 71
17, 30240, Note_on_c, 3, 73, 0
17, 30240, Note_on_c, 3, 74, 72
17, 30480, Note_on_c, 3, 74, 0
17, 30480, Note_on_c, 3, 73, 74
17, 30600, Note_on_c, 3, 73, 0
17, 30600, Note_on_c, 3, 71, 74
17, 30720, Note_on_c, 3, 71, 0
17, 30720, Note_on_c, 3, 73, 75
17, 30840, Note_on_c, 3, 73, 0
17, 30840, Note_on_c, 3, 69, 75
17, 30960, Note_on_c, 3, 69, 0
17, 30960, Note_on_c, 3, 74, 76
17, 31440, Note_on_c, 3, 74, 0
17, 31440, Note_on_c, 3, 73, 77
17, 31680, Note_on_c, 3, 73, 0
17, 31680, Note_on_c, 3, 71, 78
17, 32160, Note_on_c, 3, 71, 0
17, 32160, Note_on_c, 3, 69, 79
17, 32640, Note_on_c, 3, 69, 0
17, 33600, Note_on_c, 3, 74, 85
17, 34080, Note_on_c, 3, 74, 0
17, 34080, Note_on_c, 3, 76, 88
17, 34320, Note_on_c, 3, 76, 0
17, 34320, Note_on_c, 3, 78, 89
17, 34560, Note_on_c, 3, 78, 0
17, 34560, Note_on_c, 3, 79, 90
17, 34800, Note_on_c, 3, 79, 0
17, 34800, Note_on_c, 3, 78, 90
17, 34920, Note_on_c, 3, 78, 0
17, 34920, Note_on_c, 3, 76, 90
17, 35040, Note_on_c, 3, 76, 0
17, 35040, Note_on_c, 3, 78, 90
17, 35160, Note_on_c, 3, 78, 0
17, 35160, Note_on_c, 3, 74, 90
17, 35280, Note_on_c, 3, 74, 0
17, 35280, Note_on_c, 3, 79, 90
17, 35760, Note_on_c, 3, 79, 0
17, 35760, Note_on_c, 3, 78, 90
17, 36000, Note_on_c, 3, 78, 0
17, 36000, Note_on_c, 3, 76, 90
17, 36480, Note_on_c, 3, 76, 0
17, 36480, Note_on_c, 3, 74, 86
17, 36720, Note_on_c, 3, 74, 0
17, 36720, Note_on_c, 3, 74, 109
17, 37080, Note_on_c, 3, 74, 0
17, 37080, Note_on_c, 3, 74, 79
17, 37200, Note_on_c, 3, 74, 0
17, 37200, Note_on_c, 3, 73, 78
17, 37320, Note_on_c, 3, 73, 0
17, 37320, Note_on_c, 3, 73, 76
17, 37440, Note_on_c, 3, 73, 0
17, 37440, Note_on_c, 3, 74, 75
17, 37500, Note_on_c, 3, 74, 0
17, 37500, Note_on_c, 3, 76, 75
17, 37560, Note_on_c, 3, 76, 0
17, 37560, Note_on_c, 3, 74, 75
17, 37620, Note_on_c, 3, 74, 0
17, 37620, Note_on_c, 3, 73, 75
17, 37680, Note_on_c, 3, 73, 0
17, 37680, Note_on_c, 3, 71, 75
17, 37740, Note_on_c, 3, 71, 0
17, 37740, Note_on_c, 3, 73, 75
17, 37800, Note_on_c, 3, 73, 0
17, 37800, Note_on_c, 3, 69, 75
17, 37860, Note_on_c, 3, 69, 0
17, 37860, Note_on_c, 3, 71, 75
17, 37920, Note_on_c, 3, 71, 0
17, 37920, Note_on_c, 3, 73, 75
17, 37980, Note_on_c, 3, 73, 0
17, 37980, Note_on_c, 3, 74, 75
17, 38040, Note_on_c, 3, 74, 0
17, 38040, Note_on_c, 3, 71, 75
17, 38100, Note_on_c, 3, 71, 0
17, 38100, Note_on_c, 3, 73, 75
17, 38160, Note_on_c, 3, 73, 0
17, 38160, Note_on_c, 3, 75, 75
17, 38220, Note_on_c, 3, 75, 0
17, 38220, Note_on_c, 3, 76, 75
17, 38280, Note_on_c, 3, 76, 0
17, 38280, Note_on_c, 3, 73, 75
17, 38340, Note_on_c, 3, 73, 0
17, 38340, Note_on_c, 3, 75, 75
17, 38400, Note_on_c, 3, 75, 0
17, 38400, Note_on_c, 3, 76, 76
17, 39000, Note_on_c, 3, 76, 0
17, 39000, Note_on_c, 3, 74, 79
17, 39060, Note_on_c, 3, 74, 0
17, 39060, Note_on_c, 3, 73, 79
17, 39120, Note_on_c, 3, 73, 0
17, 39120, Note_on_c, 3, 74, 80
17, 39180, Note_on_c, 3, 74, 0
17, 39180, Note_on_c, 3, 76, 80
17, 39240, Note_on_c, 3, 76, 0
17, 39240, Note_on_c, 3, 78, 80
17, 39300, Note_on_c, 3, 78, 0
17, 39300, Note_on_c, 3, 74, 81
17, 39360, Note_on_c, 3, 74, 0
17, 39360, Note_on_c, 3, 79, 81
17, 40080, Note_on_c, 3, 79, 0
17, 40080, Note_on_c, 3, 78, 85
17, 40320, Note_on_c, 3, 78, 0
17, 40320, Note_on_c, 3, 76, 85
17, 41280, Note_on_c, 3, 76, 0
17, 41280, Note_on_c, 3, 74, 88
17, 41520, Note_on_c, 3, 74, 0
17, 41640, Note_on_c, 3, 74, 89
17, 41760, Note_on_c, 3, 74, 0
17, 41760, Note_on_c, 3, 76, 90
17, 42060, Note_on_c, 3, 76, 0
17, 42060, Note_on_c, 3, 78, 90
17, 42120, Note_on_c, 3, 78, 0
17, 42120, Note_on_c, 3, 76, 91
17, 42180, Note_on_c, 3, 76, 0
17, 42180, Note_on_c, 3, 74, 91
17, 42240, Note_on_c, 3, 74, 0
17, 42240, Note_on_c, 3, 73, 91
17, 42360, Note_on_c, 3, 73, 0
17, 42360, Note_on_c, 3, 69, 91
17, 42480, Note_on_c, 3, 69, 0
17, 42480, Note_on_c, 3, 78, 92
17, 42960, Note_on_c, 3, 78, 0
17, 42960, Note_on_c, 3, 76, 93
17, 43320, Note_on_c, 3, 76, 0
17, 43320, Note_on_c, 3, 69, 94
17, 43440, Note_on_c, 3, 69, 0
17, 43440, Note_on_c, 3, 74, 95
17, 43800, Note_on_c, 3, 74, 0
17, 43800, Note_on_c, 3, 73, 96
17, 43860, Note_on_c, 3, 73, 0
17, 43860, Note_on_c, 3, 71, 96
17, 43920, Note_on_c, 3, 71, 0
17, 43920, Note_on_c, 3, 73, 96
17, 44160, Note_on_c, 3, 73, 0
17, 44160, Note_on_c, 3, 74, 97
17, 45120, Note_on_c, 3, 74, 0
17, 46080, End_track
0, 0, End_of_file
