0, 0, Header, 1, 10, 1024
1, 0, Start_track
1, 0, Time_signature, 4, 2, 24, 8
1, 0, Key_signature, 2, "major"
1, 0, Tempo, 625000
1, 135168, End_track
2, 0, Start_track
2, 0, Title_t, "Instrument 1"
2, 3072, Note_on_c, 0, 78, 96
2, 4096, Note_off_c, 0, 78, 0
2, 4096, Note_on_c, 0, 78, 96
2, 5120, Note_off_c, 0, 78, 0
2, 5120, Note_on_c, 0, 74, 96
2, 6144, Note_off_c, 0, 74, 0
2, 6144, Note_on_c, 0, 76, 96
2, 7168, Note_off_c, 0, 76, 0
2, 7168, Note_on_c, 0, 78, 96
2, 8192, Note_off_c, 0, 78, 0
2, 8192, Note_on_c, 0, 79, 96
2, 10240, Note_off_c, 0, 79, 0
2, 10240, Note_on_c, 0, 76, 96
2, 11264, Note_off_c, 0, 76, 0
2, 11264, Note_on_c, 0, 76, 96
2, 12288, Note_off_c, 0, 76, 0
2, 12288, Note_on_c, 0, 76, 96
2, 13312, Note_off_c, 0, 76, 0
2, 13312, Note_on_c, 0, 74, 96
2, 14336, Note_off_c, 0, 74, 0
2, 14336, Note_on_c, 0, 74, 96
2, 15360, Note_off_c, 0, 74, 0
2, 15360, Note_on_c, 0, 73, 96
2, 16384, Note_off_c, 0, 73, 0
2, 16384, Note_on_c, 0, 74, 96
2, 19456, Note_off_c, 0, 74, 0
2, 19456, Note_on_c, 0, 76, 96
2, 20480, Note_off_c, 0, 76, 0
2, 20480, Note_on_c, 0, 76, 96
2, 21504, Note_off_c, 0, 76, 0
2, 21504, Note_on_c, 0, 76, 96
2, 22528, Note_off_c, 0, 76, 0
2, 22528, Note_on_c, 0, 76, 96
2, 23552, Note_off_c, 0, 76, 0
2, 23552, Note_on_c, 0, 78, 96
2, 24576, Note_off_c, 0, 78, 0
2, 24576, Note_on_c, 0, 74, 96
2, 26624, Note_off_c, 0, 74, 0
2, 26624, Note_on_c, 0, 74, 96
2, 27648, Note_off_c, 0, 74, 0
2, 27648, Note_on_c, 0, 74, 96
2, 28672, Note_off_c, 0, 74, 0
2, 28672, Note_on_c, 0, 73, 96
2, 29696, Note_off_c, 0, 73, 0
2, 29696, Note_on_c, 0, 74, 96
2, 30720, Note_off_c, 0, 74, 0
2, 30720, Note_on_c, 0, 76, 96
2, 31744, Note_off_c, 0, 76, 0
2, 31744, Note_on_c, 0, 76, 96
2, 32768, Note_off_c, 0, 76, 0
2, 32768, Note_on_c, 0, 74, 96
2, 35840, Note_off_c, 0, 74, 0
2, 35840, Note_on_c, 0, 78, 96
2, 36864, Note_off_c, 0, 78, 0
2, 36864, Note_on_c, 0, 78, 96
2, 37888, Note_off_c, 0, 78, 0
2, 37888, Note_on_c, 0, 74, 96
2, 38912, Note_off_c, 0, 74, 0
2, 38912, Note_on_c, 0, 76, 96
2, 39936, Note_off_c, 0, 76, 0
2, 39936, Note_on_c, 0, 78, 96
2, 40960, Note_off_c, 0, 78, 0
2, 40960, Note_on_c, 0, 79, 96
2, 43008, Note_off_c, 0, 79, 0
2, 43008, Note_on_c, 0, 76, 96
2, 44032, Note_off_c, 0, 76, 0
2, 44032, Note_on_c, 0, 76, 96
2, 45056, Note_off_c, 0, 76, 0
2, 45056, Note_on_c, 0, 76, 96
2, 46080, Note_off_c, 0, 76, 0
2, 46080, Note_on_c, 0, 74, 96
2, 47104, Note_off_c, 0, 74, 0
2, 47104, Note_on_c, 0, 74, 96
2, 48128, Note_off_c, 0, 74, 0
2, 48128, Note_on_c, 0, 73, 96
2, 49152, Note_off_c, 0, 73, 0
2, 49152, Note_on_c, 0, 74, 96
2, 52224, Note_off_c, 0, 74, 0
2, 52224, Note_on_c, 0, 76, 96
2, 53248, Note_off_c, 0, 76, 0
2, 53248, Note_on_c, 0, 76, 96
2, 54272, Note_off_c, 0, 76, 0
2, 54272, Note_on_c, 0, 76, 96
2, 55296, Note_off_c, 0, 76, 0
2, 55296, Note_on_c, 0, 76, 96
2, 56320, Note_off_c, 0, 76, 0
2, 56320, Note_on_c, 0, 78, 96
2, 57344, Note_off_c, 0, 78, 0
2, 57344, Note_on_c, 0, 74, 96
2, 59392, Note_off_c, 0, 74, 0
2, 59392, Note_on_c, 0, 74, 96
2, 60416, Note_off_c, 0, 74, 0
2, 60416, Note_on_c, 0, 74, 96
2, 61440, Note_off_c, 0, 74, 0
2, 61440, Note_on_c, 0, 73, 96
2, 62464, Note_off_c, 0, 73, 0
2, 62464, Note_on_c, 0, 74, 96
2, 63488, Note_off_c, 0, 74, 0
2, 63488, Note_on_c, 0, 76, 96
2, 64512, Note_off_c, 0, 76, 0
2, 64512, Note_on_c, 0, 76, 96
2, 65536, Note_off_c, 0, 76, 0
2, 65536, Note_on_c, 0, 74, 96
2, 68608, Note_off_c, 0, 74, 0
2, 68608, Note_on_c, 0, 73, 96
2, 69632, Note_off_c, 0, 73, 0
2, 69632, Note_on_c, 0, 73, 96
2, 70656, Note_off_c, 0, 73, 0
2, 70656, Note_on_c, 0, 73, 96
2, 71680, Note_off_c, 0, 73, 0
2, 71680, Note_on_c, 0, 73, 96
2, 72704, Note_off_c, 0, 73, 0
2, 72704, Note_on_c, 0, 73, 96
2, 73728, Note_off_c, 0, 73, 0
2, 73728, Note_on_c, 0, 74, 96
2, 75776, Note_off_c, 0, 74, 0
2, 75776, Note_on_c, 0, 74, 96
2, 76800, Note_off_c, 0, 74, 0
2, 76800, Note_on_c, 0, 73, 96
2, 77824, Note_off_c, 0, 73, 0
2, 77824, Note_on_c, 0, 73, 96
2, 78848, Note_off_c, 0, 73, 0
2, 78848, Note_on_c, 0, 73, 96
2, 79872, Note_off_c, 0, 73, 0
2, 79872, Note_on_c, 0, 73, 96
2, 80896, Note_off_c, 0, 73, 0
2, 80896, Note_on_c, 0, 73, 96
2, 81920, Note_off_c, 0, 73, 0
2, 81920, Note_on_c, 0, 74, 96
2, 83968, Note_off_c, 0, 74, 0
2, 83968, Note_on_c, 0, 74, 96
2, 84992, Note_off_c, 0, 74, 0
2, 84992, Note_on_c, 0, 78, 96
2, 86016, Note_off_c, 0, 78, 0
2, 86016, Note_on_c, 0, 78, 96
2, 87040, Note_off_c, 0, 78, 0
2, 87040, Note_on_c, 0, 74, 96
2, 88064, Note_off_c, 0, 74, 0
2, 88064, Note_on_c, 0, 76, 96
2, 89088, Note_off_c, 0, 76, 0
2, 89088, Note_on_c, 0, 78, 96
2, 90112, Note_off_c, 0, 78, 0
2, 90112, Note_on_c, 0, 79, 96
2, 92160, Note_off_c, 0, 79, 0
2, 92160, Note_on_c, 0, 78, 96
2, 93184, Note_off_c, 0, 78, 0
2, 93184, Note_on_c, 0, 78, 96
2, 94208, Note_off_c, 0, 78, 0
2, 94208, Note_on_c, 0, 76, 96
2, 95232, Note_off_c, 0, 76, 0
2, 95232, Note_on_c, 0, 78, 96
2, 96256, Note_off_c, 0, 78, 0
2, 96256, Note_on_c, 0, 75, 96
2, 97280, Note_off_c, 0, 75, 0
2, 97280, Note_on_c, 0, 75, 96
2, 98304, Note_off_c, 0, 75, 0
2, 98304, Note_on_c, 0, 76, 96
2, 101376, Note_off_c, 0, 76, 0
2, 101376, Note_on_c, 0, 78, 96
2, 102400, Note_off_c, 0, 78, 0
2, 102400, Note_on_c, 0, 78, 96
2, 103424, Note_off_c, 0, 78, 0
2, 103424, Note_on_c, 0, 74, 96
2, 104448, Note_off_c, 0, 74, 0
2, 104448, Note_on_c, 0, 76, 96
2, 105472, Note_off_c, 0, 76, 0
2, 105472, Note_on_c, 0, 78, 96
2, 106496, Note_off_c, 0, 78, 0
2, 106496, Note_on_c, 0, 79, 96
2, 108544, Note_off_c, 0, 79, 0
2, 108544, Note_on_c, 0, 78, 96
2, 109568, Note_off_c, 0, 78, 0
2, 109568, Note_on_c, 0, 78, 96
2, 110592, Note_off_c, 0, 78, 0
2, 110592, Note_on_c, 0, 76, 96
2, 111616, Note_off_c, 0, 76, 0
2, 111616, Note_on_c, 0, 78, 96
2, 112640, Note_off_c, 0, 78, 0
2, 112640, Note_on_c, 0, 75, 96
2, 113664, Note_off_c, 0, 75, 0
2, 113664, Note_on_c, 0, 75, 96
2, 114688, Note_off_c, 0, 75, 0
2, 114688, Note_on_c, 0, 76, 96
2, 117760, Note_off_c, 0, 76, 0
2, 117760, Note_on_c, 0, 78, 96
2, 118784, Note_off_c, 0, 78, 0
2, 118784, Note_on_c, 0, 78, 96
2, 119808, Note_off_c, 0, 78, 0
2, 119808, Note_on_c, 0, 74, 96
2, 120832, Note_off_c, 0, 74, 0
2, 120832, Note_on_c, 0, 76, 96
2, 121856, Note_off_c, 0, 76, 0
2, 121856, Note_on_c, 0, 78, 96
2, 122880, Note_off_c, 0, 78, 0
2, 122880, Note_on_c, 0, 79, 96
2, 124928, Note_off_c, 0, 79, 0
2, 124928, Note_on_c, 0, 76, 96
2, 125952, Note_off_c, 0, 76, 0
2, 125952, Note_on_c, 0, 76, 96
2, 126976, Note_off_c, 0, 76, 0
2, 126976, Note_on_c, 0, 76, 96
2, 128000, Note_off_c, 0, 76, 0
2, 128000, Note_on_c, 0, 74, 96
2, 129024, Note_off_c, 0, 74, 0
2, 129024, Note_on_c, 0, 74, 96
2, 130048, Note_off_c, 0, 74, 0
2, 130048, Note_on_c, 0, 73, 96
2, 131072, Note_off_c, 0, 73, 0
2, 131072, Note_on_c, 0, 74, 96
2, 135168, Note_off_c, 0, 74, 0
2, 135168, End_track
3, 0, Start_track
3, 0, Title_t, "Instrument 2"
3, 3072, Note_on_c, 1, 69, 96
3, 4096, Note_off_c, 1, 69, 0
3, 4096, Note_on_c, 1, 69, 96
3, 5120, Note_off_c, 1, 69, 0
3, 5120, Note_on_c, 1, 66, 96
3, 6144, Note_off_c, 1, 66, 0
3, 6144, Note_on_c, 1, 67, 96
3, 7168, Note_off_c, 1, 67, 0
3, 7168, Note_on_c, 1, 69, 96
3, 8192, Note_off_c, 1, 69, 0
3, 8192, Note_on_c, 1, 71, 96
3, 10240, Note_off_c, 1, 71, 0
3, 10240, Note_on_c, 1, 67, 96
3, 11264, Note_off_c, 1, 67, 0
3, 11264, Note_on_c, 1, 67, 96
3, 12288, Note_off_c, 1, 67, 0
3, 12288, Note_on_c, 1, 66, 96
3, 13312, Note_off_c, 1, 66, 0
3, 13312, Note_on_c, 1, 66, 96
3, 14336, Note_off_c, 1, 66, 0
3, 14336, Note_on_c, 1, 64, 96
3, 15360, Note_off_c, 1, 64, 0
3, 15360, Note_on_c, 1, 69, 96
3, 16384, Note_off_c, 1, 69, 0
3, 16384, Note_on_c, 1, 69, 96
3, 19456, Note_off_c, 1, 69, 0
3, 19456, Note_on_c, 1, 69, 96
3, 20480, Note_off_c, 1, 69, 0
3, 20480, Note_on_c, 1, 64, 96
3, 21504, Note_off_c, 1, 64, 0
3, 21504, Note_on_c, 1, 68, 96
3, 22528, Note_off_c, 1, 68, 0
3, 22528, Note_on_c, 1, 69, 96
3, 23552, Note_off_c, 1, 69, 0
3, 23552, Note_on_c, 1, 70, 96
3, 24576, Note_off_c, 1, 70, 0
3, 24576, Note_on_c, 1, 71, 96
3, 26624, Note_off_c, 1, 71, 0
3, 26624, Note_on_c, 1, 71, 96
3, 27648, Note_off_c, 1, 71, 0
3, 27648, Note_on_c, 1, 66, 96
3, 28672, Note_off_c, 1, 66, 0
3, 28672, Note_on_c, 1, 64, 96
3, 29696, Note_off_c, 1, 64, 0
3, 29696, Note_on_c, 1, 66, 96
3, 30720, Note_off_c, 1, 66, 0
3, 30720, Note_on_c, 1, 67, 96
3, 31232, Note_off_c, 1, 67, 0
3, 31232, Note_on_c, 1, 69, 96
3, 31488, Note_off_c, 1, 69, 0
3, 31488, Note_on_c, 1, 71, 96
3, 31744, Note_off_c, 1, 71, 0
3, 31744, Note_on_c, 1, 69, 96
3, 32256, Note_off_c, 1, 69, 0
3, 32256, Note_on_c, 1, 64, 96
3, 32768, Note_off_c, 1, 64, 0
3, 32768, Note_on_c, 1, 66, 96
3, 35840, Note_off_c, 1, 66, 0
3, 35840, Note_on_c, 1, 69, 96
3, 36864, Note_off_c, 1, 69, 0
3, 36864, Note_on_c, 1, 69, 96
3, 37888, Note_off_c, 1, 69, 0
3, 37888, Note_on_c, 1, 66, 96
3, 38912, Note_off_c, 1, 66, 0
3, 38912, Note_on_c, 1, 67, 96
3, 39936, Note_off_c, 1, 67, 0
3, 39936, Note_on_c, 1, 69, 96
3, 40960, Note_off_c, 1, 69, 0
3, 40960, Note_on_c, 1, 71, 96
3, 43008, Note_off_c, 1, 71, 0
3, 43008, Note_on_c, 1, 67, 96
3, 44032, Note_off_c, 1, 67, 0
3, 44032, Note_on_c, 1, 67, 96
3, 45056, Note_off_c, 1, 67, 0
3, 45056, Note_on_c, 1, 66, 96
3, 46080, Note_off_c, 1, 66, 0
3, 46080, Note_on_c, 1, 66, 96
3, 47104, Note_off_c, 1, 66, 0
3, 47104, Note_on_c, 1, 64, 96
3, 48128, Note_off_c, 1, 64, 0
3, 48128, Note_on_c, 1, 69, 96
3, 49152, Note_off_c, 1, 69, 0
3, 49152, Note_on_c, 1, 69, 96
3, 52224, Note_off_c, 1, 69, 0
3, 52224, Note_on_c, 1, 69, 96
3, 53248, Note_off_c, 1, 69, 0
3, 53248, Note_on_c, 1, 64, 96
3, 54272, Note_off_c, 1, 64, 0
3, 54272, Note_on_c, 1, 68, 96
3, 55296, Note_off_c, 1, 68, 0
3, 55296, Note_on_c, 1, 69, 96
3, 56320, Note_off_c, 1, 69, 0
3, 56320, Note_on_c, 1, 70, 96
3, 57344, Note_off_c, 1, 70, 0
3, 57344, Note_on_c, 1, 71, 96
3, 59392, Note_off_c, 1, 71, 0
3, 59392, Note_on_c, 1, 71, 96
3, 60416, Note_off_c, 1, 71, 0
3, 60416, Note_on_c, 1, 66, 96
3, 61440, Note_off_c, 1, 66, 0
3, 61440, Note_on_c, 1, 64, 96
3, 62464, Note_off_c, 1, 64, 0
3, 62464, Note_on_c, 1, 66, 96
3, 63488, Note_off_c, 1, 66, 0
3, 63488, Note_on_c, 1, 67, 96
3, 64000, Note_off_c, 1, 67, 0
3, 64000, Note_on_c, 1, 69, 96
3, 64256, Note_off_c, 1, 69, 0
3, 64256, Note_on_c, 1, 71, 96
3, 64512, Note_off_c, 1, 71, 0
3, 64512, Note_on_c, 1, 69, 96
3, 65024, Note_off_c, 1, 69, 0
3, 65024, Note_on_c, 1, 64, 96
3, 65536, Note_off_c, 1, 64, 0
3, 65536, Note_on_c, 1, 66, 96
3, 68608, Note_off_c, 1, 66, 0
3, 68608, Note_on_c, 1, 64, 96
3, 69632, Note_off_c, 1, 64, 0
3, 69632, Note_on_c, 1, 69, 96
3, 70656, Note_off_c, 1, 69, 0
3, 70656, Note_on_c, 1, 69, 96
3, 71680, Note_off_c, 1, 69, 0
3, 71680, Note_on_c, 1, 69, 96
3, 72704, Note_off_c, 1, 69, 0
3, 72704, Note_on_c, 1, 69, 96
3, 73728, Note_off_c, 1, 69, 0
3, 73728, Note_on_c, 1, 69, 96
3, 75776, Note_off_c, 1, 69, 0
3, 75776, Note_on_c, 1, 69, 96
3, 76800, Note_off_c, 1, 69, 0
3, 76800, Note_on_c, 1, 64, 96
3, 77824, Note_off_c, 1, 64, 0
3, 77824, Note_on_c, 1, 69, 96
3, 78848, Note_off_c, 1, 69, 0
3, 78848, Note_on_c, 1, 69, 96
3, 79872, Note_off_c, 1, 69, 0
3, 79872, Note_on_c, 1, 69, 96
3, 80896, Note_off_c, 1, 69, 0
3, 80896, Note_on_c, 1, 69, 96
3, 81920, Note_off_c, 1, 69, 0
3, 81920, Note_on_c, 1, 69, 96
3, 83968, Note_off_c, 1, 69, 0
3, 83968, Note_on_c, 1, 69, 96
3, 84992, Note_off_c, 1, 69, 0
3, 84992, Note_on_c, 1, 69, 96
3, 86016, Note_off_c, 1, 69, 0
3, 86016, Note_on_c, 1, 69, 96
3, 87040, Note_off_c, 1, 69, 0
3, 87040, Note_on_c, 1, 66, 96
3, 88064, Note_off_c, 1, 66, 0
3, 88064, Note_on_c, 1, 67, 96
3, 89088, Note_off_c, 1, 67, 0
3, 89088, Note_on_c, 1, 69, 96
3, 90112, Note_off_c, 1, 69, 0
3, 90112, Note_on_c, 1, 67, 96
3, 91136, Note_off_c, 1, 67, 0
3, 91136, Note_on_c, 1, 69, 96
3, 92160, Note_off_c, 1, 69, 0
3, 92160, Note_on_c, 1, 69, 96
3, 93184, Note_off_c, 1, 69, 0
3, 93184, Note_on_c, 1, 71, 96
3, 94208, Note_off_c, 1, 71, 0
3, 94208, Note_on_c, 1, 67, 96
3, 95232, Note_off_c, 1, 67, 0
3, 95232, Note_on_c, 1, 69, 96
3, 96256, Note_off_c, 1, 69, 0
3, 96256, Note_on_c, 1, 66, 96
3, 97280, Note_off_c, 1, 66, 0
3, 97280, Note_on_c, 1, 66, 96
3, 98304, Note_off_c, 1, 66, 0
3, 98304, Note_on_c, 1, 67, 96
3, 101376, Note_off_c, 1, 67, 0
3, 101376, Note_on_c, 1, 69, 96
3, 102400, Note_off_c, 1, 69, 0
3, 102400, Note_on_c, 1, 69, 96
3, 103424, Note_off_c, 1, 69, 0
3, 103424, Note_on_c, 1, 66, 96
3, 104448, Note_off_c, 1, 66, 0
3, 104448, Note_on_c, 1, 67, 96
3, 105472, Note_off_c, 1, 67, 0
3, 105472, Note_on_c, 1, 69, 96
3, 106496, Note_off_c, 1, 69, 0
3, 106496, Note_on_c, 1, 67, 96
3, 107520, Note_off_c, 1, 67, 0
3, 107520, Note_on_c, 1, 69, 96
3, 108544, Note_off_c, 1, 69, 0
3, 108544, Note_on_c, 1, 69, 96
3, 109568, Note_off_c, 1, 69, 0
3, 109568, Note_on_c, 1, 71, 96
3, 110592, Note_off_c, 1, 71, 0
3, 110592, Note_on_c, 1, 67, 96
3, 111616, Note_off_c, 1, 67, 0
3, 111616, Note_on_c, 1, 69, 96
3, 112640, Note_off_c, 1, 69, 0
3, 112640, Note_on_c, 1, 66, 96
3, 113664, Note_off_c, 1, 66, 0
3, 113664, Note_on_c, 1, 66, 96
3, 114688, Note_off_c, 1, 66, 0
3, 114688, Note_on_c, 1, 67, 96
3, 117760, Note_off_c, 1, 67, 0
3, 117760, Note_on_c, 1, 66, 96
3, 118784, Note_off_c, 1, 66, 0
3, 118784, Note_on_c, 1, 66, 96
3, 119808, Note_off_c, 1, 66, 0
3, 119808, Note_on_c, 1, 66, 96
3, 120832, Note_off_c, 1, 66, 0
3, 120832, Note_on_c, 1, 64, 96
3, 121856, Note_off_c, 1, 64, 0
3, 121856, Note_on_c, 1, 63, 96
3, 122880, Note_off_c, 1, 63, 0
3, 122880, Note_on_c, 1, 64, 96
3, 123904, Note_off_c, 1, 64, 0
3, 123904, Note_on_c, 1, 66, 96
3, 124928, Note_off_c, 1, 66, 0
3, 124928, Note_on_c, 1, 67, 96
3, 125952, Note_off_c, 1, 67, 0
3, 125952, Note_on_c, 1, 67, 96
3, 126976, Note_off_c, 1, 67, 0
3, 126976, Note_on_c, 1, 66, 96
3, 128000, Note_off_c, 1, 66, 0
3, 128000, Note_on_c, 1, 66, 96
3, 129024, Note_off_c, 1, 66, 0
3, 129024, Note_on_c, 1, 64, 96
3, 130048, Note_off_c, 1, 64, 0
3, 130048, Note_on_c, 1, 64, 96
3, 131072, Note_off_c, 1, 64, 0
3, 131072, Note_on_c, 1, 66, 96
3, 135168, Note_off_c, 1, 66, 0
3, 135168, End_track
4, 0, Start_track
4, 0, Title_t, "Instrument 3"
4, 3072, Note_on_c, 2, 62, 96
4, 4096, Note_off_c, 2, 62, 0
4, 4096, Note_on_c, 2, 62, 96
4, 5120, Note_off_c, 2, 62, 0
4, 5120, Note_on_c, 2, 57, 96
4, 6144, Note_off_c, 2, 57, 0
4, 6144, Note_on_c, 2, 59, 96
4, 7168, Note_off_c, 2, 59, 0
4, 7168, Note_on_c, 2, 60, 96
4, 8192, Note_off_c, 2, 60, 0
4, 8192, Note_on_c, 2, 62, 96
4, 10240, Note_off_c, 2, 62, 0
4, 10240, Note_on_c, 2, 60, 96
4, 11264, Note_off_c, 2, 60, 0
4, 11264, Note_on_c, 2, 60, 96
4, 12288, Note_off_c, 2, 60, 0
4, 12288, Note_on_c, 2, 61, 96
4, 13312, Note_off_c, 2, 61, 0
4, 13312, Note_on_c, 2, 62, 96
4, 14336, Note_off_c, 2, 62, 0
4, 14336, Note_on_c, 2, 59, 96
4, 15360, Note_off_c, 2, 59, 0
4, 15360, Note_on_c, 2, 64, 96
4, 16384, Note_off_c, 2, 64, 0
4, 16384, Note_on_c, 2, 66, 96
4, 19456, Note_off_c, 2, 66, 0
4, 19456, Note_on_c, 2, 61, 96
4, 20480, Note_off_c, 2, 61, 0
4, 20480, Note_on_c, 2, 59, 96
4, 20992, Note_off_c, 2, 59, 0
4, 20992, Note_on_c, 2, 61, 96
4, 21504, Note_off_c, 2, 61, 0
4, 21504, Note_on_c, 2, 62, 96
4, 22528, Note_off_c, 2, 62, 0
4, 22528, Note_on_c, 2, 61, 96
4, 23552, Note_off_c, 2, 61, 0
4, 23552, Note_on_c, 2, 61, 96
4, 24576, Note_off_c, 2, 61, 0
4, 24576, Note_on_c, 2, 62, 96
4, 25088, Note_off_c, 2, 62, 0
4, 25088, Note_on_c, 2, 64, 96
4, 25600, Note_off_c, 2, 64, 0
4, 25600, Note_on_c, 2, 66, 96
4, 26624, Note_off_c, 2, 66, 0
4, 26624, Note_on_c, 2, 66, 96
4, 27648, Note_off_c, 2, 66, 0
4, 27648, Note_on_c, 2, 59, 96
4, 28672, Note_off_c, 2, 59, 0
4, 28672, Note_on_c, 2, 55, 96
4, 29696, Note_off_c, 2, 55, 0
4, 29696, Note_on_c, 2, 57, 96
4, 30208, Note_off_c, 2, 57, 0
4, 30208, Note_on_c, 2, 62, 96
4, 30720, Note_off_c, 2, 62, 0
4, 30720, Note_on_c, 2, 62, 96
4, 31744, Note_off_c, 2, 62, 0
4, 31744, Note_on_c, 2, 61, 96
4, 32768, Note_off_c, 2, 61, 0
4, 32768, Note_on_c, 2, 57, 96
4, 35840, Note_off_c, 2, 57, 0
4, 35840, Note_on_c, 2, 62, 96
4, 36864, Note_off_c, 2, 62, 0
4, 36864, Note_on_c, 2, 62, 96
4, 37888, Note_off_c, 2, 62, 0
4, 37888, Note_on_c, 2, 57, 96
4, 38912, Note_off_c, 2, 57, 0
4, 38912, Note_on_c, 2, 59, 96
4, 39936, Note_off_c, 2, 59, 0
4, 39936, Note_on_c, 2, 60, 96
4, 40960, Note_off_c, 2, 60, 0
4, 40960, Note_on_c, 2, 62, 96
4, 43008, Note_off_c, 2, 62, 0
4, 43008, Note_on_c, 2, 60, 96
4, 44032, Note_off_c, 2, 60, 0
4, 44032, Note_on_c, 2, 60, 96
4, 45056, Note_off_c, 2, 60, 0
4, 45056, Note_on_c, 2, 61, 96
4, 46080, Note_off_c, 2, 61, 0
4, 46080, Note_on_c, 2, 62, 96
4, 47104, Note_off_c, 2, 62, 0
4, 47104, Note_on_c, 2, 59, 96
4, 48128, Note_off_c, 2, 59, 0
4, 48128, Note_on_c, 2, 64, 96
4, 49152, Note_off_c, 2, 64, 0
4, 49152, Note_on_c, 2, 66, 96
4, 52224, Note_off_c, 2, 66, 0
4, 52224, Note_on_c, 2, 61, 96
4, 53248, Note_off_c, 2, 61, 0
4, 53248, Note_on_c, 2, 59, 96
4, 53760, Note_off_c, 2, 59, 0
4, 53760, Note_on_c, 2, 61, 96
4, 54272, Note_off_c, 2, 61, 0
4, 54272, Note_on_c, 2, 62, 96
4, 55296, Note_off_c, 2, 62, 0
4, 55296, Note_on_c, 2, 61, 96
4, 56320, Note_off_c, 2, 61, 0
4, 56320, Note_on_c, 2, 61, 96
4, 57344, Note_off_c, 2, 61, 0
4, 57344, Note_on_c, 2, 62, 96
4, 57856, Note_off_c, 2, 62, 0
4, 57856, Note_on_c, 2, 64, 96
4, 58368, Note_off_c, 2, 64, 0
4, 58368, Note_on_c, 2, 66, 96
4, 59392, Note_off_c, 2, 66, 0
4, 59392, Note_on_c, 2, 66, 96
4, 60416, Note_off_c, 2, 66, 0
4, 60416, Note_on_c, 2, 59, 96
4, 61440, Note_off_c, 2, 59, 0
4, 61440, Note_on_c, 2, 55, 96
4, 62464, Note_off_c, 2, 55, 0
4, 62464, Note_on_c, 2, 57, 96
4, 62976, Note_off_c, 2, 57, 0
4, 62976, Note_on_c, 2, 62, 96
4, 63488, Note_off_c, 2, 62, 0
4, 63488, Note_on_c, 2, 62, 96
4, 64512, Note_off_c, 2, 62, 0
4, 64512, Note_on_c, 2, 61, 96
4, 65536, Note_off_c, 2, 61, 0
4, 65536, Note_on_c, 2, 57, 96
4, 68608, Note_off_c, 2, 57, 0
4, 68608, Note_on_c, 2, 57, 96
4, 69632, Note_off_c, 2, 57, 0
4, 69632, Note_on_c, 2, 64, 96
4, 70656, Note_off_c, 2, 64, 0
4, 70656, Note_on_c, 2, 64, 96
4, 71680, Note_off_c, 2, 64, 0
4, 71680, Note_on_c, 2, 66, 96
4, 72704, Note_off_c, 2, 66, 0
4, 72704, Note_on_c, 2, 67, 96
4, 73216, Note_off_c, 2, 67, 0
4, 73216, Note_on_c, 2, 64, 96
4, 73728, Note_off_c, 2, 64, 0
4, 73728, Note_on_c, 2, 66, 96
4, 75776, Note_off_c, 2, 66, 0
4, 75776, Note_on_c, 2, 66, 96
4, 76800, Note_off_c, 2, 66, 0
4, 76800, Note_on_c, 2, 57, 96
4, 77824, Note_off_c, 2, 57, 0
4, 77824, Note_on_c, 2, 64, 96
4, 78848, Note_off_c, 2, 64, 0
4, 78848, Note_on_c, 2, 64, 96
4, 79872, Note_off_c, 2, 64, 0
4, 79872, Note_on_c, 2, 66, 96
4, 80896, Note_off_c, 2, 66, 0
4, 80896, Note_on_c, 2, 67, 96
4, 81408, Note_off_c, 2, 67, 0
4, 81408, Note_on_c, 2, 64, 96
4, 81920, Note_off_c, 2, 64, 0
4, 81920, Note_on_c, 2, 66, 96
4, 83968, Note_off_c, 2, 66, 0
4, 83968, Note_on_c, 2, 66, 96
4, 84992, Note_off_c, 2, 66, 0
4, 84992, Note_on_c, 2, 62, 96
4, 86016, Note_off_c, 2, 62, 0
4, 86016, Note_on_c, 2, 62, 96
4, 87040, Note_off_c, 2, 62, 0
4, 87040, Note_on_c, 2, 57, 96
4, 88064, Note_off_c, 2, 57, 0
4, 88064, Note_on_c, 2, 59, 96
4, 89088, Note_off_c, 2, 59, 0
4, 89088, Note_on_c, 2, 60, 96
4, 90112, Note_off_c, 2, 60, 0
4, 90112, Note_on_c, 2, 62, 96
4, 91136, Note_off_c, 2, 62, 0
4, 91136, Note_on_c, 2, 57, 96
4, 92160, Note_off_c, 2, 57, 0
4, 92160, Note_on_c, 2, 62, 96
4, 93184, Note_off_c, 2, 62, 0
4, 93184, Note_on_c, 2, 66, 96
4, 94208, Note_off_c, 2, 66, 0
4, 94208, Note_on_c, 2, 59, 96
4, 95232, Note_off_c, 2, 59, 0
4, 95232, Note_on_c, 2, 60, 96
4, 96256, Note_off_c, 2, 60, 0
4, 96256, Note_on_c, 2, 59, 96
4, 97280, Note_off_c, 2, 59, 0
4, 97280, Note_on_c, 2, 59, 96
4, 98304, Note_off_c, 2, 59, 0
4, 98304, Note_on_c, 2, 59, 96
4, 101376, Note_off_c, 2, 59, 0
4, 101376, Note_on_c, 2, 62, 96
4, 102400, Note_off_c, 2, 62, 0
4, 102400, Note_on_c, 2, 62, 96
4, 103424, Note_off_c, 2, 62, 0
4, 103424, Note_on_c, 2, 57, 96
4, 104448, Note_off_c, 2, 57, 0
4, 104448, Note_on_c, 2, 59, 96
4, 105472, Note_off_c, 2, 59, 0
4, 105472, Note_on_c, 2, 60, 96
4, 106496, Note_off_c, 2, 60, 0
4, 106496, Note_on_c, 2, 62, 96
4, 107520, Note_off_c, 2, 62, 0
4, 107520, Note_on_c, 2, 57, 96
4, 108544, Note_off_c, 2, 57, 0
4, 108544, Note_on_c, 2, 62, 96
4, 109568, Note_off_c, 2, 62, 0
4, 109568, Note_on_c, 2, 66, 96
4, 110592, Note_off_c, 2, 66, 0
4, 110592, Note_on_c, 2, 59, 96
4, 111616, Note_off_c, 2, 59, 0
4, 111616, Note_on_c, 2, 60, 96
4, 112640, Note_off_c, 2, 60, 0
4, 112640, Note_on_c, 2, 59, 96
4, 113664, Note_off_c, 2, 59, 0
4, 113664, Note_on_c, 2, 59, 96
4, 114688, Note_off_c, 2, 59, 0
4, 114688, Note_on_c, 2, 59, 96
4, 117760, Note_off_c, 2, 59, 0
4, 117760, Note_on_c, 2, 61, 96
4, 118784, Note_off_c, 2, 61, 0
4, 118784, Note_on_c, 2, 62, 96
4, 119808, Note_off_c, 2, 62, 0
4, 119808, Note_on_c, 2, 66, 96
4, 120832, Note_off_c, 2, 66, 0
4, 120832, Note_on_c, 2, 59, 96
4, 121856, Note_off_c, 2, 59, 0
4, 121856, Note_on_c, 2, 57, 96
4, 122880, Note_off_c, 2, 57, 0
4, 122880, Note_on_c, 2, 59, 96
4, 124928, Note_off_c, 2, 59, 0
4, 124928, Note_on_c, 2, 58, 96
4, 125952, Note_off_c, 2, 58, 0
4, 125952, Note_on_c, 2, 59, 96
4, 126976, Note_off_c, 2, 59, 0
4, 126976, Note_on_c, 2, 61, 96
4, 128000, Note_off_c, 2, 61, 0
4, 128000, Note_on_c, 2, 59, 96
4, 129024, Note_off_c, 2, 59, 0
4, 129024, Note_on_c, 2, 59, 96
4, 130048, Note_off_c, 2, 59, 0
4, 130048, Note_on_c, 2, 57, 96
4, 131072, Note_off_c, 2, 57, 0
4, 131072, Note_on_c, 2, 57, 96
4, 135168, Note_off_c, 2, 57, 0
4, 135168, End_track
5, 0, Start_track
5, 0, Title_t, "Instrument 4"
5, 3072, Note_on_c, 3, 50, 96
5, 4096, Note_off_c, 3, 50, 0
5, 4096, Note_on_c, 3, 62, 96
5, 5120, Note_off_c, 3, 62, 0
5, 5120, Note_on_c, 3, 60, 96
5, 6144, Note_off_c, 3, 60, 0
5, 6144, Note_on_c, 3, 59, 96
5, 7168, Note_off_c, 3, 59, 0
5, 7168, Note_on_c, 3, 57, 96
5, 8192, Note_off_c, 3, 57, 0
5, 8192, Note_on_c, 3, 55, 96
5, 10240, Note_off_c, 3, 55, 0
5, 10240, Note_on_c, 3, 48, 96
5, 11264, Note_off_c, 3, 48, 0
5, 11264, Note_on_c, 3, 59, 96
5, 12288, Note_off_c, 3, 59, 0
5, 12288, Note_on_c, 3, 58, 96
5, 13312, Note_off_c, 3, 58, 0
5, 13312, Note_on_c, 3, 59, 96
5, 14336, Note_off_c, 3, 59, 0
5, 14336, Note_on_c, 3, 56, 96
5, 15360, Note_off_c, 3, 56, 0
5, 15360, Note_on_c, 3, 57, 96
5, 16384, Note_off_c, 3, 57, 0
5, 16384, Note_on_c, 3, 50, 96
5, 19456, Note_off_c, 3, 50, 0
5, 19456, Note_on_c, 3, 57, 96
5, 20480, Note_off_c, 3, 57, 0
5, 20480, Note_on_c, 3, 56, 96
5, 21504, Note_off_c, 3, 56, 0
5, 21504, Note_on_c, 3, 52, 96
5, 22528, Note_off_c, 3, 52, 0
5, 22528, Note_on_c, 3, 57, 96
5, 23552, Note_off_c, 3, 57, 0
5, 23552, Note_on_c, 3, 54, 96
5, 24576, Note_off_c, 3, 54, 0
5, 24576, Note_on_c, 3, 59, 96
5, 26624, Note_off_c, 3, 59, 0
5, 26624, Note_on_c, 3, 59, 96
5, 27648, Note_off_c, 3, 59, 0
5, 27648, Note_on_c, 3, 59, 96
5, 28672, Note_off_c, 3, 59, 0
5, 28672, Note_on_c, 3, 52, 96
5, 29696, Note_off_c, 3, 52, 0
5, 29696, Note_on_c, 3, 50, 96
5, 30720, Note_off_c, 3, 50, 0
5, 30720, Note_on_c, 3, 57, 96
5, 31744, Note_off_c, 3, 57, 0
5, 31744, Note_on_c, 3, 45, 96
5, 32768, Note_off_c, 3, 45, 0
5, 32768, Note_on_c, 3, 50, 96
5, 35840, Note_off_c, 3, 50, 0
5, 35840, Note_on_c, 3, 50, 96
5, 36864, Note_off_c, 3, 50, 0
5, 36864, Note_on_c, 3, 62, 96
5, 37888, Note_off_c, 3, 62, 0
5, 37888, Note_on_c, 3, 60, 96
5, 38912, Note_off_c, 3, 60, 0
5, 38912, Note_on_c, 3, 59, 96
5, 39936, Note_off_c, 3, 59, 0
5, 39936, Note_on_c, 3, 57, 96
5, 40960, Note_off_c, 3, 57, 0
5, 40960, Note_on_c, 3, 55, 96
5, 43008, Note_off_c, 3, 55, 0
5, 43008, Note_on_c, 3, 48, 96
5, 44032, Note_off_c, 3, 48, 0
5, 44032, Note_on_c, 3, 59, 96
5, 45056, Note_off_c, 3, 59, 0
5, 45056, Note_on_c, 3, 58, 96
5, 46080, Note_off_c, 3, 58, 0
5, 46080, Note_on_c, 3, 59, 96
5, 47104, Note_off_c, 3, 59, 0
5, 47104, Note_on_c, 3, 56, 96
5, 48128, Note_off_c, 3, 56, 0
5, 48128, Note_on_c, 3, 57, 96
5, 49152, Note_off_c, 3, 57, 0
5, 49152, Note_on_c, 3, 50, 96
5, 52224, Note_off_c, 3, 50, 0
5, 52224, Note_on_c, 3, 57, 96
5, 53248, Note_off_c, 3, 57, 0
5, 53248, Note_on_c, 3, 56, 96
5, 54272, Note_off_c, 3, 56, 0
5, 54272, Note_on_c, 3, 52, 96
5, 55296, Note_off_c, 3, 52, 0
5, 55296, Note_on_c, 3, 57, 96
5, 56320, Note_off_c, 3, 57, 0
5, 56320, Note_on_c, 3, 54, 96
5, 57344, Note_off_c, 3, 54, 0
5, 57344, Note_on_c, 3, 59, 96
5, 59392, Note_off_c, 3, 59, 0
5, 59392, Note_on_c, 3, 59, 96
5, 60416, Note_off_c, 3, 59, 0
5, 60416, Note_on_c, 3, 59, 96
5, 61440, Note_off_c, 3, 59, 0
5, 61440, Note_on_c, 3, 52, 96
5, 62464, Note_off_c, 3, 52, 0
5, 62464, Note_on_c, 3, 50, 96
5, 63488, Note_off_c, 3, 50, 0
5, 63488, Note_on_c, 3, 57, 96
5, 64512, Note_off_c, 3, 57, 0
5, 64512, Note_on_c, 3, 45, 96
5, 65536, Note_off_c, 3, 45, 0
5, 65536, Note_on_c, 3, 50, 96
5, 68608, Note_off_c, 3, 50, 0
5, 68608, Note_on_c, 3, 45, 96
5, 69632, Note_off_c, 3, 45, 0
5, 69632, Note_on_c, 3, 57, 96
5, 70656, Note_off_c, 3, 57, 0
5, 70656, Note_on_c, 3, 55, 96
5, 71680, Note_off_c, 3, 55, 0
5, 71680, Note_on_c, 3, 54, 96
5, 72704, Note_off_c, 3, 54, 0
5, 72704, Note_on_c, 3, 57, 96
5, 73728, Note_off_c, 3, 57, 0
5, 73728, Note_on_c, 3, 50, 96
5, 75776, Note_off_c, 3, 50, 0
5, 75776, Note_on_c, 3, 50, 96
5, 76800, Note_off_c, 3, 50, 0
5, 76800, Note_on_c, 3, 45, 96
5, 77824, Note_off_c, 3, 45, 0
5, 77824, Note_on_c, 3, 57, 96
5, 78848, Note_off_c, 3, 57, 0
5, 78848, Note_on_c, 3, 55, 96
5, 79872, Note_off_c, 3, 55, 0
5, 79872, Note_on_c, 3, 54, 96
5, 80896, Note_off_c, 3, 54, 0
5, 80896, Note_on_c, 3, 57, 96
5, 81920, Note_off_c, 3, 57, 0
5, 81920, Note_on_c, 3, 50, 96
5, 83968, Note_off_c, 3, 50, 0
5, 83968, Note_on_c, 3, 50, 96
5, 84992, Note_off_c, 3, 50, 0
5, 84992, Note_on_c, 3, 50, 96
5, 86016, Note_off_c, 3, 50, 0
5, 86016, Note_on_c, 3, 62, 96
5, 87040, Note_off_c, 3, 62, 0
5, 87040, Note_on_c, 3, 60, 96
5, 88064, Note_off_c, 3, 60, 0
5, 88064, Note_on_c, 3, 59, 96
5, 89088, Note_off_c, 3, 59, 0
5, 89088, Note_on_c, 3, 57, 96
5, 90112, Note_off_c, 3, 57, 0
5, 90112, Note_on_c, 3, 59, 96
5, 91136, Note_off_c, 3, 59, 0
5, 91136, Note_on_c, 3, 61, 96
5, 92160, Note_off_c, 3, 61, 0
5, 92160, Note_on_c, 3, 62, 96
5, 93184, Note_off_c, 3, 62, 0
5, 93184, Note_on_c, 3, 51, 96
5, 94208, Note_off_c, 3, 51, 0
5, 94208, Note_on_c, 3, 52, 96
5, 95232, Note_off_c, 3, 52, 0
5, 95232, Note_on_c, 3, 57, 96
5, 96256, Note_off_c, 3, 57, 0
5, 96256, Note_on_c, 3, 59, 96
5, 97280, Note_off_c, 3, 59, 0
5, 97280, Note_on_c, 3, 47, 96
5, 98304, Note_off_c, 3, 47, 0
5, 98304, Note_on_c, 3, 52, 96
5, 101376, Note_off_c, 3, 52, 0
5, 101376, Note_on_c, 3, 50, 96
5, 102400, Note_off_c, 3, 50, 0
5, 102400, Note_on_c, 3, 62, 96
5, 103424, Note_off_c, 3, 62, 0
5, 103424, Note_on_c, 3, 60, 96
5, 104448, Note_off_c, 3, 60, 0
5, 104448, Note_on_c, 3, 59, 96
5, 105472, Note_off_c, 3, 59, 0
5, 105472, Note_on_c, 3, 57, 96
5, 106496, Note_off_c, 3, 57, 0
5, 106496, Note_on_c, 3, 59, 96
5, 107520, Note_off_c, 3, 59, 0
5, 107520, Note_on_c, 3, 61, 96
5, 108544, Note_off_c, 3, 61, 0
5, 108544, Note_on_c, 3, 62, 96
5, 109568, Note_off_c, 3, 62, 0
5, 109568, Note_on_c, 3, 51, 96
5, 110592, Note_off_c, 3, 51, 0
5, 110592, Note_on_c, 3, 52, 96
5, 111616, Note_off_c, 3, 52, 0
5, 111616, Note_on_c, 3, 57, 96
5, 112640, Note_off_c, 3, 57, 0
5, 112640, Note_on_c, 3, 59, 96
5, 113664, Note_off_c, 3, 59, 0
5, 113664, Note_on_c, 3, 47, 96
5, 114688, Note_off_c, 3, 47, 0
5, 114688, Note_on_c, 3, 52, 96
5, 117760, Note_off_c, 3, 52, 0
5, 117760, Note_on_c, 3, 58, 96
5, 118784, Note_off_c, 3, 58, 0
5, 118784, Note_on_c, 3, 59, 96
5, 119808, Note_off_c, 3, 59, 0
5, 119808, Note_on_c, 3, 57, 96
5, 120832, Note_off_c, 3, 57, 0
5, 120832, Note_on_c, 3, 55, 96
5, 121856, Note_off_c, 3, 55, 0
5, 121856, Note_on_c, 3, 54, 96
5, 122880, Note_off_c, 3, 54, 0
5, 122880, Note_on_c, 3, 52, 96
5, 123904, Note_off_c, 3, 52, 0
5, 123904, Note_on_c, 3, 50, 96
5, 124928, Note_off_c, 3, 50, 0
5, 124928, Note_on_c, 3, 49, 96
5, 125952, Note_off_c, 3, 49, 0
5, 125952, Note_on_c, 3, 47, 96
5, 126976, Note_off_c, 3, 47, 0
5, 126976, Note_on_c, 3, 46, 96
5, 128000, Note_off_c, 3, 46, 0
5, 128000, Note_on_c, 3, 47, 96
5, 129024, Note_off_c, 3, 47, 0
5, 129024, Note_on_c, 3, 44, 96
5, 130048, Note_off_c, 3, 44, 0
5, 130048, Note_on_c, 3, 45, 96
5, 131072, Note_off_c, 3, 45, 0
5, 131072, Note_on_c, 3, 38, 96
5, 135168, Note_off_c, 3, 38, 0
5, 135168, End_track
6, 0, Start_track
6, 0, Title_t, "Instrument 5"
6, 3072, Note_on_c, 4, 50, 96
6, 4096, Note_off_c, 4, 50, 0
6, 4096, Note_on_c, 4, 62, 96
6, 5120, Note_off_c, 4, 62, 0
6, 5120, Note_on_c, 4, 60, 96
6, 6144, Note_off_c, 4, 60, 0
6, 6144, Note_on_c, 4, 59, 96
6, 7168, Note_off_c, 4, 59, 0
6, 7168, Note_on_c, 4, 57, 96
6, 8192, Note_off_c, 4, 57, 0
6, 8192, Note_on_c, 4, 55, 96
6, 10240, Note_off_c, 4, 55, 0
6, 10240, Note_on_c, 4, 48, 96
6, 11264, Note_off_c, 4, 48, 0
6, 11264, Note_on_c, 4, 47, 96
6, 12288, Note_off_c, 4, 47, 0
6, 12288, Note_on_c, 4, 46, 96
6, 13312, Note_off_c, 4, 46, 0
6, 13312, Note_on_c, 4, 47, 96
6, 14336, Note_off_c, 4, 47, 0
6, 14336, Note_on_c, 4, 44, 96
6, 15360, Note_off_c, 4, 44, 0
6, 15360, Note_on_c, 4, 45, 96
6, 16384, Note_off_c, 4, 45, 0
6, 16384, Note_on_c, 4, 38, 96
6, 19456, Note_off_c, 4, 38, 0
6, 19456, Note_on_c, 4, 57, 96
6, 20480, Note_off_c, 4, 57, 0
6, 20480, Note_on_c, 4, 56, 96
6, 21504, Note_off_c, 4, 56, 0
6, 21504, Note_on_c, 4, 52, 96
6, 22528, Note_off_c, 4, 52, 0
6, 22528, Note_on_c, 4, 57, 96
6, 23552, Note_off_c, 4, 57, 0
6, 23552, Note_on_c, 4, 54, 96
6, 24576, Note_off_c, 4, 54, 0
6, 24576, Note_on_c, 4, 59, 96
6, 26624, Note_off_c, 4, 59, 0
6, 26624, Note_on_c, 4, 59, 96
6, 27648, Note_off_c, 4, 59, 0
6, 27648, Note_on_c, 4, 59, 96
6, 28672, Note_off_c, 4, 59, 0
6, 28672, Note_on_c, 4, 52, 96
6, 29696, Note_off_c, 4, 52, 0
6, 29696, Note_on_c, 4, 50, 96
6, 30720, Note_off_c, 4, 50, 0
6, 30720, Note_on_c, 4, 57, 96
6, 31744, Note_off_c, 4, 57, 0
6, 31744, Note_on_c, 4, 45, 96
6, 32768, Note_off_c, 4, 45, 0
6, 32768, Note_on_c, 4, 50, 96
6, 35840, Note_off_c, 4, 50, 0
6, 35840, Note_on_c, 4, 50, 96
6, 36864, Note_off_c, 4, 50, 0
6, 36864, Note_on_c, 4, 62, 96
6, 37888, Note_off_c, 4, 62, 0
6, 37888, Note_on_c, 4, 60, 96
6, 38912, Note_off_c, 4, 60, 0
6, 38912, Note_on_c, 4, 59, 96
6, 39936, Note_off_c, 4, 59, 0
6, 39936, Note_on_c, 4, 57, 96
6, 40960, Note_off_c, 4, 57, 0
6, 40960, Note_on_c, 4, 55, 96
6, 43008, Note_off_c, 4, 55, 0
6, 43008, Note_on_c, 4, 48, 96
6, 44032, Note_off_c, 4, 48, 0
6, 44032, Note_on_c, 4, 47, 96
6, 45056, Note_off_c, 4, 47, 0
6, 45056, Note_on_c, 4, 46, 96
6, 46080, Note_off_c, 4, 46, 0
6, 46080, Note_on_c, 4, 47, 96
6, 47104, Note_off_c, 4, 47, 0
6, 47104, Note_on_c, 4, 44, 96
6, 48128, Note_off_c, 4, 44, 0
6, 48128, Note_on_c, 4, 45, 96
6, 49152, Note_off_c, 4, 45, 0
6, 49152, Note_on_c, 4, 38, 96
6, 52224, Note_off_c, 4, 38, 0
6, 52224, Note_on_c, 4, 57, 96
6, 53248, Note_off_c, 4, 57, 0
6, 53248, Note_on_c, 4, 56, 96
6, 54272, Note_off_c, 4, 56, 0
6, 54272, Note_on_c, 4, 52, 96
6, 55296, Note_off_c, 4, 52, 0
6, 55296, Note_on_c, 4, 57, 96
6, 56320, Note_off_c, 4, 57, 0
6, 56320, Note_on_c, 4, 54, 96
6, 57344, Note_off_c, 4, 54, 0
6, 57344, Note_on_c, 4, 59, 96
6, 59392, Note_off_c, 4, 59, 0
6, 59392, Note_on_c, 4, 59, 96
6, 60416, Note_off_c, 4, 59, 0
6, 60416, Note_on_c, 4, 59, 96
6, 61440, Note_off_c, 4, 59, 0
6, 61440, Note_on_c, 4, 52, 96
6, 62464, Note_off_c, 4, 52, 0
6, 62464, Note_on_c, 4, 50, 96
6, 63488, Note_off_c, 4, 50, 0
6, 63488, Note_on_c, 4, 57, 96
6, 64512, Note_off_c, 4, 57, 0
6, 64512, Note_on_c, 4, 45, 96
6, 65536, Note_off_c, 4, 45, 0
6, 65536, Note_on_c, 4, 50, 96
6, 68608, Note_off_c, 4, 50, 0
6, 68608, Note_on_c, 4, 45, 96
6, 69632, Note_off_c, 4, 45, 0
6, 69632, Note_on_c, 4, 57, 96
6, 70656, Note_off_c, 4, 57, 0
6, 70656, Note_on_c, 4, 55, 96
6, 71680, Note_off_c, 4, 55, 0
6, 71680, Note_on_c, 4, 54, 96
6, 72704, Note_off_c, 4, 54, 0
6, 72704, Note_on_c, 4, 57, 96
6, 73728, Note_off_c, 4, 57, 0
6, 73728, Note_on_c, 4, 50, 96
6, 75776, Note_off_c, 4, 50, 0
6, 75776, Note_on_c, 4, 50, 96
6, 76800, Note_off_c, 4, 50, 0
6, 76800, Note_on_c, 4, 45, 96
6, 77824, Note_off_c, 4, 45, 0
6, 77824, Note_on_c, 4, 57, 96
6, 78848, Note_off_c, 4, 57, 0
6, 78848, Note_on_c, 4, 55, 96
6, 79872, Note_off_c, 4, 55, 0
6, 79872, Note_on_c, 4, 54, 96
6, 80896, Note_off_c, 4, 54, 0
6, 80896, Note_on_c, 4, 57, 96
6, 81920, Note_off_c, 4, 57, 0
6, 81920, Note_on_c, 4, 50, 96
6, 83968, Note_off_c, 4, 50, 0
6, 83968, Note_on_c, 4, 50, 96
6, 84992, Note_off_c, 4, 50, 0
6, 84992, Note_on_c, 4, 50, 96
6, 86016, Note_off_c, 4, 50, 0
6, 86016, Note_on_c, 4, 62, 96
6, 87040, Note_off_c, 4, 62, 0
6, 87040, Note_on_c, 4, 60, 96
6, 88064, Note_off_c, 4, 60, 0
6, 88064, Note_on_c, 4, 59, 96
6, 89088, Note_off_c, 4, 59, 0
6, 89088, Note_on_c, 4, 57, 96
6, 90112, Note_off_c, 4, 57, 0
6, 90112, Note_on_c, 4, 59, 96
6, 91136, Note_off_c, 4, 59, 0
6, 91136, Note_on_c, 4, 61, 96
6, 92160, Note_off_c, 4, 61, 0
6, 92160, Note_on_c, 4, 62, 96
6, 93184, Note_off_c, 4, 62, 0
6, 93184, Note_on_c, 4, 51, 96
6, 94208, Note_off_c, 4, 51, 0
6, 94208, Note_on_c, 4, 52, 96
6, 95232, Note_off_c, 4, 52, 0
6, 95232, Note_on_c, 4, 57, 96
6, 96256, Note_off_c, 4, 57, 0
6, 96256, Note_on_c, 4, 59, 96
6, 97280, Note_off_c, 4, 59, 0
6, 97280, Note_on_c, 4, 47, 96
6, 98304, Note_off_c, 4, 47, 0
6, 98304, Note_on_c, 4, 52, 96
6, 101376, Note_off_c, 4, 52, 0
6, 101376, Note_on_c, 4, 50, 96
6, 102400, Note_off_c, 4, 50, 0
6, 102400, Note_on_c, 4, 62, 96
6, 103424, Note_off_c, 4, 62, 0
6, 103424, Note_on_c, 4, 60, 96
6, 104448, Note_off_c, 4, 60, 0
6, 104448, Note_on_c, 4, 59, 96
6, 105472, Note_off_c, 4, 59, 0
6, 105472, Note_on_c, 4, 57, 96
6, 106496, Note_off_c, 4, 57, 0
6, 106496, Note_on_c, 4, 59, 96
6, 107520, Note_off_c, 4, 59, 0
6, 107520, Note_on_c, 4, 61, 96
6, 108544, Note_off_c, 4, 61, 0
6, 108544, Note_on_c, 4, 62, 96
6, 109568, Note_off_c, 4, 62, 0
6, 109568, Note_on_c, 4, 51, 96
6, 110592, Note_off_c, 4, 51, 0
6, 110592, Note_on_c, 4, 52, 96
6, 111616, Note_off_c, 4, 52, 0
6, 111616, Note_on_c, 4, 57, 96
6, 112640, Note_off_c, 4, 57, 0
6, 112640, Note_on_c, 4, 59, 96
6, 113664, Note_off_c, 4, 59, 0
6, 113664, Note_on_c, 4, 47, 96
6, 114688, Note_off_c, 4, 47, 0
6, 114688, Note_on_c, 4, 52, 96
6, 117760, Note_off_c, 4, 52, 0
6, 117760, Note_on_c, 4, 58, 96
6, 118784, Note_off_c, 4, 58, 0
6, 118784, Note_on_c, 4, 59, 96
6, 119808, Note_off_c, 4, 59, 0
6, 119808, Note_on_c, 4, 57, 96
6, 120832, Note_off_c, 4, 57, 0
6, 120832, Note_on_c, 4, 55, 96
6, 121856, Note_off_c, 4, 55, 0
6, 121856, Note_on_c, 4, 54, 96
6, 122880, Note_off_c, 4, 54, 0
6, 122880, Note_on_c, 4, 52, 96
6, 123904, Note_off_c, 4, 52, 0
6, 123904, Note_on_c, 4, 50, 96
6, 124928, Note_off_c, 4, 50, 0
6, 124928, Note_on_c, 4, 49, 96
6, 125952, Note_off_c, 4, 49, 0
6, 125952, Note_on_c, 4, 47, 96
6, 126976, Note_off_c, 4, 47, 0
6, 126976, Note_on_c, 4, 46, 96
6, 128000, Note_off_c, 4, 46, 0
6, 128000, Note_on_c, 4, 47, 96
6, 129024, Note_off_c, 4, 47, 0
6, 129024, Note_on_c, 4, 44, 96
6, 130048, Note_off_c, 4, 44, 0
6, 130048, Note_on_c, 4, 45, 96
6, 131072, Note_off_c, 4, 45, 0
6, 131072, Note_on_c, 4, 50, 96
6, 135168, Note_off_c, 4, 50, 0
6, 135168, End_track
7, 0, Start_track
7, 0, Title_t, "Instrument 6"
7, 14848, Note_on_c, 5, 83, 96
7, 14848, Note_on_c, 5, 76, 96
7, 14848, Note_on_c, 5, 62, 96
7, 15104, Note_off_c, 5, 83, 0
7, 15104, Note_on_c, 5, 83, 96
7, 15104, Note_off_c, 5, 76, 0
7, 15104, Note_on_c, 5, 76, 96
7, 15104, Note_off_c, 5, 62, 0
7, 15104, Note_on_c, 5, 66, 96
7, 15360, Note_off_c, 5, 83, 0
7, 15360, Note_on_c, 5, 81, 96
7, 15360, Note_off_c, 5, 76, 0
7, 15360, Note_on_c, 5, 76, 96
7, 15360, Note_off_c, 5, 66, 0
7, 15360, Note_on_c, 5, 69, 96
7, 15616, Note_off_c, 5, 81, 0
7, 15616, Note_on_c, 5, 83, 96
7, 15616, Note_off_c, 5, 76, 0
7, 15616, Note_on_c, 5, 79, 96
7, 15872, Note_off_c, 5, 83, 0
7, 15872, Note_on_c, 5, 81, 96
7, 15872, Note_off_c, 5, 79, 0
7, 15872, Note_on_c, 5, 78, 96
7, 15872, Note_off_c, 5, 69, 0
7, 15872, Note_on_c, 5, 69, 96
7, 16128, Note_off_c, 5, 81, 0
7, 16128, Note_on_c, 5, 79, 96
7, 16128, Note_off_c, 5, 78, 0
7, 16128, Note_on_c, 5, 76, 96
7, 16384, Note_off_c, 5, 79, 0
7, 16384, Note_off_c, 5, 76, 0
7, 16384, Note_off_c, 5, 69, 0
7, 16384, Note_on_c, 5, 78, 96
7, 16384, Note_on_c, 5, 74, 96
7, 16384, Note_on_c, 5, 69, 96
7, 16640, Note_off_c, 5, 78, 0
7, 16640, Note_on_c, 5, 76, 96
7, 16896, Note_off_c, 5, 76, 0
7, 16896, Note_on_c, 5, 78, 96
7, 16896, Note_off_c, 5, 74, 0
7, 16896, Note_on_c, 5, 81, 96
7, 16896, Note_off_c, 5, 69, 0
7, 16896, Note_on_c, 5, 74, 96
7, 17152, Note_off_c, 5, 78, 0
7, 17152, Note_on_c, 5, 79, 96
7, 17152, Note_off_c, 5, 81, 0
7, 17152, Note_on_c, 5, 79, 96
7, 17152, Note_off_c, 5, 74, 0
7, 17152, Note_on_c, 5, 74, 96
7, 17408, Note_off_c, 5, 79, 0
7, 17408, Note_on_c, 5, 78, 96
7, 17408, Note_off_c, 5, 79, 0
7, 17408, Note_on_c, 5, 81, 96
7, 17408, Note_off_c, 5, 74, 0
7, 17408, Note_on_c, 5, 74, 96
7, 17664, Note_off_c, 5, 78, 0
7, 17664, Note_on_c, 5, 79, 96
7, 17664, Note_off_c, 5, 81, 0
7, 17664, Note_on_c, 5, 83, 96
7, 17664, Note_off_c, 5, 74, 0
7, 17664, Note_on_c, 5, 69, 96
7, 17920, Note_off_c, 5, 79, 0
7, 17920, Note_on_c, 5, 78, 96
7, 17920, Note_off_c, 5, 83, 0
7, 17920, Note_on_c, 5, 81, 96
7, 17920, Note_off_c, 5, 69, 0
7, 17920, Note_on_c, 5, 74, 96
7, 18176, Note_off_c, 5, 78, 0
7, 18176, Note_on_c, 5, 76, 96
7, 18176, Note_off_c, 5, 81, 0
7, 18176, Note_on_c, 5, 79, 96
7, 18176, Note_off_c, 5, 74, 0
7, 18176, Note_on_c, 5, 69, 96
7, 18432, Note_off_c, 5, 76, 0
7, 18432, Note_on_c, 5, 74, 96
7, 18432, Note_off_c, 5, 79, 0
7, 18432, Note_on_c, 5, 78, 96
7, 18432, Note_off_c, 5, 69, 0
7, 18432, Note_on_c, 5, 69, 96
7, 19456, Note_off_c, 5, 74, 0
7, 19456, Note_off_c, 5, 78, 0
7, 19456, Note_off_c, 5, 69, 0
7, 31232, Note_on_c, 5, 81, 96
7, 31232, Note_on_c, 5, 76, 96
7, 31232, Note_on_c, 5, 69, 96
7, 31488, Note_off_c, 5, 81, 0
7, 31488, Note_on_c, 5, 79, 96
7, 31488, Note_off_c, 5, 76, 0
7, 31488, Note_on_c, 5, 76, 96
7, 31488, Note_off_c, 5, 69, 0
7, 31488, Note_on_c, 5, 69, 96
7, 31744, Note_off_c, 5, 79, 0
7, 31744, Note_on_c, 5, 81, 96
7, 31744, Note_off_c, 5, 76, 0
7, 31744, Note_on_c, 5, 76, 96
7, 31744, Note_off_c, 5, 69, 0
7, 31744, Note_on_c, 5, 69, 96
7, 32000, Note_off_c, 5, 81, 0
7, 32000, Note_on_c, 5, 83, 96
7, 32000, Note_off_c, 5, 76, 0
7, 32000, Note_on_c, 5, 79, 96
7, 32256, Note_off_c, 5, 83, 0
7, 32256, Note_on_c, 5, 81, 96
7, 32256, Note_off_c, 5, 79, 0
7, 32256, Note_on_c, 5, 78, 96
7, 32256, Note_off_c, 5, 69, 0
7, 32256, Note_on_c, 5, 69, 96
7, 32512, Note_off_c, 5, 81, 0
7, 32512, Note_on_c, 5, 79, 96
7, 32512, Note_off_c, 5, 78, 0
7, 32512, Note_on_c, 5, 76, 96
7, 32768, Note_off_c, 5, 79, 0
7, 32768, Note_off_c, 5, 76, 0
7, 32768, Note_off_c, 5, 69, 0
7, 32768, Note_on_c, 5, 78, 96
7, 32768, Note_on_c, 5, 74, 96
7, 32768, Note_on_c, 5, 69, 96
7, 33024, Note_off_c, 5, 78, 0
7, 33024, Note_on_c, 5, 76, 96
7, 33280, Note_off_c, 5, 76, 0
7, 33280, Note_on_c, 5, 78, 96
7, 33280, Note_off_c, 5, 74, 0
7, 33280, Note_on_c, 5, 81, 96
7, 33280, Note_off_c, 5, 69, 0
7, 33280, Note_on_c, 5, 74, 96
7, 33536, Note_off_c, 5, 78, 0
7, 33536, Note_on_c, 5, 79, 96
7, 33536, Note_off_c, 5, 81, 0
7, 33536, Note_on_c, 5, 79, 96
7, 33536, Note_off_c, 5, 74, 0
7, 33536, Note_on_c, 5, 74, 96
7, 33792, Note_off_c, 5, 79, 0
7, 33792, Note_on_c, 5, 78, 96
7, 33792, Note_off_c, 5, 79, 0
7, 33792, Note_on_c, 5, 81, 96
7, 33792, Note_off_c, 5, 74, 0
7, 33792, Note_on_c, 5, 74, 96
7, 34048, Note_off_c, 5, 78, 0
7, 34048, Note_on_c, 5, 79, 96
7, 34048, Note_off_c, 5, 81, 0
7, 34048, Note_on_c, 5, 83, 96
7, 34048, Note_off_c, 5, 74, 0
7, 34048, Note_on_c, 5, 69, 96
7, 34304, Note_off_c, 5, 79, 0
7, 34304, Note_on_c, 5, 78, 96
7, 34304, Note_off_c, 5, 83, 0
7, 34304, Note_on_c, 5, 81, 96
7, 34304, Note_off_c, 5, 69, 0
7, 34304, Note_on_c, 5, 74, 96
7, 34560, Note_off_c, 5, 78, 0
7, 34560, Note_on_c, 5, 76, 96
7, 34560, Note_off_c, 5, 81, 0
7, 34560, Note_on_c, 5, 79, 96
7, 34560, Note_off_c, 5, 74, 0
7, 34560, Note_on_c, 5, 69, 96
7, 34816, Note_off_c, 5, 76, 0
7, 34816, Note_on_c, 5, 74, 96
7, 34816, Note_off_c, 5, 79, 0
7, 34816, Note_on_c, 5, 78, 96
7, 34816, Note_off_c, 5, 69, 0
7, 34816, Note_on_c, 5, 69, 96
7, 35840, Note_off_c, 5, 74, 0
7, 35840, Note_off_c, 5, 78, 0
7, 35840, Note_off_c, 5, 69, 0
7, 47616, Note_on_c, 5, 83, 96
7, 47616, Note_on_c, 5, 76, 96
7, 47616, Note_on_c, 5, 62, 96
7, 47872, Note_off_c, 5, 83, 0
7, 47872, Note_on_c, 5, 83, 96
7, 47872, Note_off_c, 5, 76, 0
7, 47872, Note_on_c, 5, 76, 96
7, 47872, Note_off_c, 5, 62, 0
7, 47872, Note_on_c, 5, 66, 96
7, 48128, Note_off_c, 5, 83, 0
7, 48128, Note_on_c, 5, 81, 96
7, 48128, Note_off_c, 5, 76, 0
7, 48128, Note_on_c, 5, 76, 96
7, 48128, Note_off_c, 5, 66, 0
7, 48128, Note_on_c, 5, 69, 96
7, 48384, Note_off_c, 5, 81, 0
7, 48384, Note_on_c, 5, 83, 96
7, 48384, Note_off_c, 5, 76, 0
7, 48384, Note_on_c, 5, 79, 96
7, 48640, Note_off_c, 5, 83, 0
7, 48640, Note_on_c, 5, 81, 96
7, 48640, Note_off_c, 5, 79, 0
7, 48640, Note_on_c, 5, 78, 96
7, 48640, Note_off_c, 5, 69, 0
7, 48640, Note_on_c, 5, 69, 96
7, 48896, Note_off_c, 5, 81, 0
7, 48896, Note_on_c, 5, 79, 96
7, 48896, Note_off_c, 5, 78, 0
7, 48896, Note_on_c, 5, 76, 96
7, 49152, Note_off_c, 5, 79, 0
7, 49152, Note_off_c, 5, 76, 0
7, 49152, Note_off_c, 5, 69, 0
7, 49152, Note_on_c, 5, 78, 96
7, 49152, Note_on_c, 5, 74, 96
7, 49152, Note_on_c, 5, 69, 96
7, 49408, Note_off_c, 5, 78, 0
7, 49408, Note_on_c, 5, 76, 96
7, 49664, Note_off_c, 5, 76, 0
7, 49664, Note_on_c, 5, 78, 96
7, 49664, Note_off_c, 5, 74, 0
7, 49664, Note_on_c, 5, 81, 96
7, 49664, Note_off_c, 5, 69, 0
7, 49664, Note_on_c, 5, 74, 96
7, 49920, Note_off_c, 5, 78, 0
7, 49920, Note_on_c, 5, 79, 96
7, 49920, Note_off_c, 5, 81, 0
7, 49920, Note_on_c, 5, 79, 96
7, 49920, Note_off_c, 5, 74, 0
7, 49920, Note_on_c, 5, 74, 96
7, 50176, Note_off_c, 5, 79, 0
7, 50176, Note_on_c, 5, 78, 96
7, 50176, Note_off_c, 5, 79, 0
7, 50176, Note_on_c, 5, 81, 96
7, 50176, Note_off_c, 5, 74, 0
7, 50176, Note_on_c, 5, 74, 96
7, 50432, Note_off_c, 5, 78, 0
7, 50432, Note_on_c, 5, 79, 96
7, 50432, Note_off_c, 5, 81, 0
7, 50432, Note_on_c, 5, 83, 96
7, 50432, Note_off_c, 5, 74, 0
7, 50432, Note_on_c, 5, 69, 96
7, 50688, Note_off_c, 5, 79, 0
7, 50688, Note_on_c, 5, 78, 96
7, 50688, Note_off_c, 5, 83, 0
7, 50688, Note_on_c, 5, 81, 96
7, 50688, Note_off_c, 5, 69, 0
7, 50688, Note_on_c, 5, 74, 96
7, 50944, Note_off_c, 5, 78, 0
7, 50944, Note_on_c, 5, 76, 96
7, 50944, Note_off_c, 5, 81, 0
7, 50944, Note_on_c, 5, 79, 96
7, 50944, Note_off_c, 5, 74, 0
7, 50944, Note_on_c, 5, 69, 96
7, 51200, Note_off_c, 5, 76, 0
7, 51200, Note_on_c, 5, 74, 96
7, 51200, Note_off_c, 5, 79, 0
7, 51200, Note_on_c, 5, 78, 96
7, 51200, Note_off_c, 5, 69, 0
7, 51200, Note_on_c, 5, 69, 96
7, 52224, Note_off_c, 5, 74, 0
7, 52224, Note_off_c, 5, 78, 0
7, 52224, Note_off_c, 5, 69, 0
7, 64000, Note_on_c, 5, 81, 96
7, 64000, Note_on_c, 5, 76, 96
7, 64000, Note_on_c, 5, 69, 96
7, 64256, Note_off_c, 5, 81, 0
7, 64256, Note_on_c, 5, 79, 96
7, 64256, Note_off_c, 5, 76, 0
7, 64256, Note_on_c, 5, 76, 96
7, 64256, Note_off_c, 5, 69, 0
7, 64256, Note_on_c, 5, 69, 96
7, 64512, Note_off_c, 5, 79, 0
7, 64512, Note_on_c, 5, 81, 96
7, 64512, Note_off_c, 5, 76, 0
7, 64512, Note_on_c, 5, 76, 96
7, 64512, Note_off_c, 5, 69, 0
7, 64512, Note_on_c, 5, 69, 96
7, 64768, Note_off_c, 5, 81, 0
7, 64768, Note_on_c, 5, 83, 96
7, 64768, Note_off_c, 5, 76, 0
7, 64768, Note_on_c, 5, 79, 96
7, 65024, Note_off_c, 5, 83, 0
7, 65024, Note_on_c, 5, 81, 96
7, 65024, Note_off_c, 5, 79, 0
7, 65024, Note_on_c, 5, 78, 96
7, 65024, Note_off_c, 5, 69, 0
7, 65024, Note_on_c, 5, 69, 96
7, 65280, Note_off_c, 5, 81, 0
7, 65280, Note_on_c, 5, 79, 96
7, 65280, Note_off_c, 5, 78, 0
7, 65280, Note_on_c, 5, 76, 96
7, 65536, Note_off_c, 5, 79, 0
7, 65536, Note_off_c, 5, 76, 0
7, 65536, Note_off_c, 5, 69, 0
7, 65536, Note_on_c, 5, 78, 96
7, 65536, Note_on_c, 5, 74, 96
7, 65536, Note_on_c, 5, 69, 96
7, 65792, Note_off_c, 5, 78, 0
7, 65792, Note_on_c, 5, 76, 96
7, 66048, Note_off_c, 5, 76, 0
7, 66048, Note_on_c, 5, 78, 96
7, 66048, Note_off_c, 5, 74, 0
7, 66048, Note_on_c, 5, 81, 96
7, 66048, Note_off_c, 5, 69, 0
7, 66048, Note_on_c, 5, 74, 96
7, 66304, Note_off_c, 5, 78, 0
7, 66304, Note_on_c, 5, 79, 96
7, 66304, Note_off_c, 5, 81, 0
7, 66304, Note_on_c, 5, 79, 96
7, 66304, Note_off_c, 5, 74, 0
7, 66304, Note_on_c, 5, 74, 96
7, 66560, Note_off_c, 5, 79, 0
7, 66560, Note_on_c, 5, 78, 96
7, 66560, Note_off_c, 5, 79, 0
7, 66560, Note_on_c, 5, 81, 96
7, 66560, Note_off_c, 5, 74, 0
7, 66560, Note_on_c, 5, 74, 96
7, 66816, Note_off_c, 5, 78, 0
7, 66816, Note_on_c, 5, 79, 96
7, 66816, Note_off_c, 5, 81, 0
7, 66816, Note_on_c, 5, 83, 96
7, 66816, Note_off_c, 5, 74, 0
7, 66816, Note_on_c, 5, 69, 96
7, 67072, Note_off_c, 5, 79, 0
7, 67072, Note_on_c, 5, 78, 96
7, 67072, Note_off_c, 5, 83, 0
7, 67072, Note_on_c, 5, 81, 96
7, 67072, Note_off_c, 5, 69, 0
7, 67072, Note_on_c, 5, 74, 96
7, 67328, Note_off_c, 5, 78, 0
7, 67328, Note_on_c, 5, 76, 96
7, 67328, Note_off_c, 5, 81, 0
7, 67328, Note_on_c, 5, 79, 96
7, 67328, Note_off_c, 5, 74, 0
7, 67328, Note_on_c, 5, 69, 96
7, 67584, Note_off_c, 5, 76, 0
7, 67584, Note_on_c, 5, 74, 96
7, 67584, Note_off_c, 5, 79, 0
7, 67584, Note_on_c, 5, 78, 96
7, 67584, Note_off_c, 5, 69, 0
7, 67584, Note_on_c, 5, 69, 96
7, 68608, Note_off_c, 5, 74, 0
7, 68608, Note_off_c, 5, 78, 0
7, 68608, Note_off_c, 5, 69, 0
7, 72192, Note_on_c, 5, 81, 96
7, 72192, Note_on_c, 5, 76, 96
7, 72192, Note_on_c, 5, 69, 96
7, 72448, Note_off_c, 5, 81, 0
7, 72448, Note_on_c, 5, 79, 96
7, 72448, Note_off_c, 5, 76, 0
7, 72448, Note_on_c, 5, 76, 96
7, 72448, Note_off_c, 5, 69, 0
7, 72448, Note_on_c, 5, 69, 96
7, 72704, Note_off_c, 5, 79, 0
7, 72704, Note_on_c, 5, 81, 96
7, 72704, Note_off_c, 5, 76, 0
7, 72704, Note_on_c, 5, 76, 96
7, 72704, Note_off_c, 5, 69, 0
7, 72704, Note_on_c, 5, 69, 96
7, 72960, Note_off_c, 5, 81, 0
7, 72960, Note_on_c, 5, 83, 96
7, 72960, Note_off_c, 5, 76, 0
7, 72960, Note_on_c, 5, 79, 96
7, 73216, Note_off_c, 5, 83, 0
7, 73216, Note_on_c, 5, 81, 96
7, 73216, Note_off_c, 5, 79, 0
7, 73216, Note_on_c, 5, 78, 96
7, 73216, Note_off_c, 5, 69, 0
7, 73216, Note_on_c, 5, 69, 96
7, 73472, Note_off_c, 5, 81, 0
7, 73472, Note_on_c, 5, 79, 96
7, 73472, Note_off_c, 5, 78, 0
7, 73472, Note_on_c, 5, 76, 96
7, 73728, Note_off_c, 5, 79, 0
7, 73728, Note_off_c, 5, 76, 0
7, 73728, Note_off_c, 5, 69, 0
7, 73728, Note_on_c, 5, 78, 96
7, 73728, Note_on_c, 5, 74, 96
7, 73728, Note_on_c, 5, 69, 96
7, 73984, Note_off_c, 5, 78, 0
7, 73984, Note_on_c, 5, 76, 96
7, 74240, Note_off_c, 5, 76, 0
7, 74240, Note_on_c, 5, 78, 96
7, 74240, Note_off_c, 5, 74, 0
7, 74240, Note_on_c, 5, 81, 96
7, 74240, Note_off_c, 5, 69, 0
7, 74240, Note_on_c, 5, 74, 96
7, 74496, Note_off_c, 5, 78, 0
7, 74496, Note_on_c, 5, 79, 96
7, 74496, Note_off_c, 5, 81, 0
7, 74496, Note_on_c, 5, 79, 96
7, 74496, Note_off_c, 5, 74, 0
7, 74496, Note_on_c, 5, 69, 96
7, 74752, Note_off_c, 5, 79, 0
7, 74752, Note_on_c, 5, 78, 96
7, 74752, Note_off_c, 5, 79, 0
7, 74752, Note_on_c, 5, 81, 96
7, 74752, Note_off_c, 5, 69, 0
7, 74752, Note_on_c, 5, 74, 96
7, 75008, Note_off_c, 5, 78, 0
7, 75008, Note_on_c, 5, 79, 96
7, 75008, Note_off_c, 5, 81, 0
7, 75008, Note_on_c, 5, 83, 96
7, 75008, Note_off_c, 5, 74, 0
7, 75008, Note_on_c, 5, 69, 96
7, 75264, Note_off_c, 5, 79, 0
7, 75264, Note_on_c, 5, 78, 96
7, 75264, Note_off_c, 5, 83, 0
7, 75264, Note_on_c, 5, 81, 96
7, 75264, Note_off_c, 5, 69, 0
7, 75264, Note_on_c, 5, 74, 96
7, 75520, Note_off_c, 5, 78, 0
7, 75520, Note_on_c, 5, 76, 96
7, 75520, Note_off_c, 5, 81, 0
7, 75520, Note_on_c, 5, 79, 96
7, 75520, Note_off_c, 5, 74, 0
7, 75520, Note_on_c, 5, 69, 96
7, 75776, Note_off_c, 5, 76, 0
7, 75776, Note_on_c, 5, 74, 96
7, 75776, Note_off_c, 5, 79, 0
7, 75776, Note_on_c, 5, 78, 96
7, 75776, Note_off_c, 5, 69, 0
7, 75776, Note_on_c, 5, 69, 96
7, 76800, Note_off_c, 5, 74, 0
7, 76800, Note_off_c, 5, 78, 0
7, 76800, Note_off_c, 5, 69, 0
7, 80384, Note_on_c, 5, 81, 96
7, 80384, Note_on_c, 5, 76, 96
7, 80384, Note_on_c, 5, 69, 96
7, 80640, Note_off_c, 5, 81, 0
7, 80640, Note_on_c, 5, 79, 96
7, 80640, Note_off_c, 5, 76, 0
7, 80640, Note_on_c, 5, 76, 96
7, 80640, Note_off_c, 5, 69, 0
7, 80640, Note_on_c, 5, 69, 96
7, 80896, Note_off_c, 5, 79, 0
7, 80896, Note_on_c, 5, 81, 96
7, 80896, Note_off_c, 5, 76, 0
7, 80896, Note_on_c, 5, 76, 96
7, 80896, Note_off_c, 5, 69, 0
7, 80896, Note_on_c, 5, 69, 96
7, 81152, Note_off_c, 5, 81, 0
7, 81152, Note_on_c, 5, 83, 96
7, 81152, Note_off_c, 5, 76, 0
7, 81152, Note_on_c, 5, 79, 96
7, 81408, Note_off_c, 5, 83, 0
7, 81408, Note_on_c, 5, 81, 96
7, 81408, Note_off_c, 5, 79, 0
7, 81408, Note_on_c, 5, 78, 96
7, 81408, Note_off_c, 5, 69, 0
7, 81408, Note_on_c, 5, 69, 96
7, 81664, Note_off_c, 5, 81, 0
7, 81664, Note_on_c, 5, 79, 96
7, 81664, Note_off_c, 5, 78, 0
7, 81664, Note_on_c, 5, 76, 96
7, 81920, Note_off_c, 5, 79, 0
7, 81920, Note_off_c, 5, 76, 0
7, 81920, Note_off_c, 5, 69, 0
7, 81920, Note_on_c, 5, 78, 96
7, 81920, Note_on_c, 5, 74, 96
7, 81920, Note_on_c, 5, 69, 96
7, 82176, Note_off_c, 5, 78, 0
7, 82176, Note_on_c, 5, 76, 96
7, 82432, Note_off_c, 5, 76, 0
7, 82432, Note_on_c, 5, 78, 96
7, 82432, Note_off_c, 5, 74, 0
7, 82432, Note_on_c, 5, 81, 96
7, 82432, Note_off_c, 5, 69, 0
7, 82432, Note_on_c, 5, 74, 96
7, 82688, Note_off_c, 5, 78, 0
7, 82688, Note_on_c, 5, 79, 96
7, 82688, Note_off_c, 5, 81, 0
7, 82688, Note_on_c, 5, 79, 96
7, 82688, Note_off_c, 5, 74, 0
7, 82688, Note_on_c, 5, 69, 96
7, 82944, Note_off_c, 5, 79, 0
7, 82944, Note_on_c, 5, 78, 96
7, 82944, Note_off_c, 5, 79, 0
7, 82944, Note_on_c, 5, 81, 96
7, 82944, Note_off_c, 5, 69, 0
7, 82944, Note_on_c, 5, 74, 96
7, 83200, Note_off_c, 5, 78, 0
7, 83200, Note_on_c, 5, 79, 96
7, 83200, Note_off_c, 5, 81, 0
7, 83200, Note_on_c, 5, 83, 96
7, 83200, Note_off_c, 5, 74, 0
7, 83200, Note_on_c, 5, 69, 96
7, 83456, Note_off_c, 5, 79, 0
7, 83456, Note_on_c, 5, 78, 96
7, 83456, Note_off_c, 5, 83, 0
7, 83456, Note_on_c, 5, 81, 96
7, 83456, Note_off_c, 5, 69, 0
7, 83456, Note_on_c, 5, 74, 96
7, 83712, Note_off_c, 5, 78, 0
7, 83712, Note_on_c, 5, 76, 96
7, 83712, Note_off_c, 5, 81, 0
7, 83712, Note_on_c, 5, 79, 96
7, 83712, Note_off_c, 5, 74, 0
7, 83712, Note_on_c, 5, 69, 96
7, 83968, Note_off_c, 5, 76, 0
7, 83968, Note_on_c, 5, 74, 96
7, 83968, Note_off_c, 5, 79, 0
7, 83968, Note_on_c, 5, 78, 96
7, 83968, Note_off_c, 5, 69, 0
7, 83968, Note_on_c, 5, 69, 96
7, 84992, Note_off_c, 5, 74, 0
7, 84992, Note_off_c, 5, 78, 0
7, 84992, Note_off_c, 5, 69, 0
7, 96768, Note_on_c, 5, 83, 96
7, 96768, Note_on_c, 5, 78, 96
7, 97024, Note_off_c, 5, 83, 0
7, 97024, Note_on_c, 5, 81, 96
7, 97024, Note_off_c, 5, 78, 0
7, 97024, Note_on_c, 5, 78, 96
7, 97280, Note_off_c, 5, 81, 0
7, 97280, Note_on_c, 5, 83, 96
7, 97280, Note_off_c, 5, 78, 0
7, 97280, Note_on_c, 5, 78, 96
7, 97536, Note_off_c, 5, 83, 0
7, 97536, Note_on_c, 5, 84, 96
7, 97536, Note_off_c, 5, 78, 0
7, 97536, Note_on_c, 5, 81, 96
7, 97792, Note_off_c, 5, 84, 0
7, 97792, Note_on_c, 5, 83, 96
7, 97792, Note_off_c, 5, 81, 0
7, 97792, Note_on_c, 5, 79, 96
7, 98048, Note_off_c, 5, 83, 0
7, 98048, Note_on_c, 5, 81, 96
7, 98048, Note_off_c, 5, 79, 0
7, 98048, Note_on_c, 5, 78, 96
7, 98304, Note_off_c, 5, 81, 0
7, 98304, Note_off_c, 5, 78, 0
7, 98304, Note_on_c, 5, 79, 96
7, 98304, Note_on_c, 5, 76, 96
7, 98560, Note_off_c, 5, 79, 0
7, 98560, Note_on_c, 5, 78, 96
7, 98816, Note_off_c, 5, 78, 0
7, 98816, Note_on_c, 5, 79, 96
7, 98816, Note_off_c, 5, 76, 0
7, 98816, Note_on_c, 5, 83, 96
7, 99072, Note_off_c, 5, 79, 0
7, 99072, Note_on_c, 5, 81, 96
7, 99072, Note_off_c, 5, 83, 0
7, 99072, Note_on_c, 5, 81, 96
7, 99328, Note_off_c, 5, 81, 0
7, 99328, Note_on_c, 5, 79, 96
7, 99328, Note_off_c, 5, 81, 0
7, 99328, Note_on_c, 5, 83, 96
7, 99584, Note_off_c, 5, 79, 0
7, 99584, Note_on_c, 5, 81, 96
7, 99584, Note_off_c, 5, 83, 0
7, 99584, Note_on_c, 5, 85, 96
7, 99840, Note_off_c, 5, 81, 0
7, 99840, Note_on_c, 5, 79, 96
7, 99840, Note_off_c, 5, 85, 0
7, 99840, Note_on_c, 5, 83, 96
7, 100096, Note_off_c, 5, 79, 0
7, 100096, Note_on_c, 5, 78, 96
7, 100096, Note_off_c, 5, 83, 0
7, 100096, Note_on_c, 5, 81, 96
7, 100352, Note_off_c, 5, 78, 0
7, 100352, Note_on_c, 5, 76, 96
7, 100352, Note_off_c, 5, 81, 0
7, 100352, Note_on_c, 5, 79, 96
7, 101376, Note_off_c, 5, 76, 0
7, 101376, Note_off_c, 5, 79, 0
7, 113152, Note_on_c, 5, 83, 96
7, 113152, Note_on_c, 5, 78, 96
7, 113408, Note_off_c, 5, 83, 0
7, 113408, Note_on_c, 5, 81, 96
7, 113408, Note_off_c, 5, 78, 0
7, 113408, Note_on_c, 5, 78, 96
7, 113664, Note_off_c, 5, 81, 0
7, 113664, Note_on_c, 5, 83, 96
7, 113664, Note_off_c, 5, 78, 0
7, 113664, Note_on_c, 5, 78, 96
7, 113920, Note_off_c, 5, 83, 0
7, 113920, Note_on_c, 5, 84, 96
7, 113920, Note_off_c, 5, 78, 0
7, 113920, Note_on_c, 5, 81, 96
7, 114176, Note_off_c, 5, 84, 0
7, 114176, Note_on_c, 5, 83, 96
7, 114176, Note_off_c, 5, 81, 0
7, 114176, Note_on_c, 5, 79, 96
7, 114432, Note_off_c, 5, 83, 0
7, 114432, Note_on_c, 5, 81, 96
7, 114432, Note_off_c, 5, 79, 0
7, 114432, Note_on_c, 5, 78, 96
7, 114688, Note_off_c, 5, 81, 0
7, 114688, Note_off_c, 5, 78, 0
7, 114688, Note_on_c, 5, 79, 96
7, 114688, Note_on_c, 5, 76, 96
7, 114944, Note_off_c, 5, 79, 0
7, 114944, Note_on_c, 5, 78, 96
7, 115200, Note_off_c, 5, 78, 0
7, 115200, Note_on_c, 5, 79, 96
7, 115200, Note_off_c, 5, 76, 0
7, 115200, Note_on_c, 5, 83, 96
7, 115456, Note_off_c, 5, 79, 0
7, 115456, Note_on_c, 5, 81, 96
7, 115456, Note_off_c, 5, 83, 0
7, 115456, Note_on_c, 5, 81, 96
7, 115712, Note_off_c, 5, 81, 0
7, 115712, Note_on_c, 5, 79, 96
7, 115712, Note_off_c, 5, 81, 0
7, 115712, Note_on_c, 5, 83, 96
7, 115968, Note_off_c, 5, 79, 0
7, 115968, Note_on_c, 5, 81, 96
7, 115968, Note_off_c, 5, 83, 0
7, 115968, Note_on_c, 5, 84, 96
7, 116224, Note_off_c, 5, 81, 0
7, 116224, Note_on_c, 5, 79, 96
7, 116224, Note_off_c, 5, 84, 0
7, 116224, Note_on_c, 5, 83, 96
7, 116480, Note_off_c, 5, 79, 0
7, 116480, Note_on_c, 5, 78, 96
7, 116480, Note_off_c, 5, 83, 0
7, 116480, Note_on_c, 5, 81, 96
7, 116736, Note_off_c, 5, 78, 0
7, 116736, Note_on_c, 5, 76, 96
7, 116736, Note_off_c, 5, 81, 0
7, 116736, Note_on_c, 5, 79, 96
7, 117760, Note_off_c, 5, 76, 0
7, 117760, Note_off_c, 5, 79, 0
7, 129536, Note_on_c, 5, 83, 96
7, 129536, Note_on_c, 5, 76, 96
7, 129536, Note_on_c, 5, 62, 96
7, 129792, Note_off_c, 5, 83, 0
7, 129792, Note_on_c, 5, 83, 96
7, 129792, Note_off_c, 5, 76, 0
7, 129792, Note_on_c, 5, 76, 96
7, 129792, Note_off_c, 5, 62, 0
7, 129792, Note_on_c, 5, 66, 96
7, 130048, Note_off_c, 5, 83, 0
7, 130048, Note_on_c, 5, 81, 96
7, 130048, Note_off_c, 5, 76, 0
7, 130048, Note_on_c, 5, 76, 96
7, 130048, Note_off_c, 5, 66, 0
7, 130048, Note_on_c, 5, 69, 96
7, 130304, Note_off_c, 5, 81, 0
7, 130304, Note_on_c, 5, 83, 96
7, 130304, Note_off_c, 5, 76, 0
7, 130304, Note_on_c, 5, 79, 96
7, 130560, Note_off_c, 5, 83, 0
7, 130560, Note_on_c, 5, 81, 96
7, 130560, Note_off_c, 5, 79, 0
7, 130560, Note_on_c, 5, 78, 96
7, 130560, Note_off_c, 5, 69, 0
7, 130560, Note_on_c, 5, 69, 96
7, 130816, Note_off_c, 5, 81, 0
7, 130816, Note_on_c, 5, 79, 96
7, 130816, Note_off_c, 5, 78, 0
7, 130816, Note_on_c, 5, 76, 96
7, 131072, Note_off_c, 5, 79, 0
7, 131072, Note_off_c, 5, 76, 0
7, 131072, Note_off_c, 5, 69, 0
7, 131072, Note_on_c, 5, 78, 96
7, 131072, Note_on_c, 5, 74, 96
7, 131072, Note_on_c, 5, 69, 96
7, 131328, Note_off_c, 5, 78, 0
7, 131328, Note_on_c, 5, 76, 96
7, 131584, Note_off_c, 5, 76, 0
7, 131584, Note_on_c, 5, 78, 96
7, 131584, Note_off_c, 5, 74, 0
7, 131584, Note_on_c, 5, 81, 96
7, 131584, Note_off_c, 5, 69, 0
7, 131584, Note_on_c, 5, 74, 96
7, 131840, Note_off_c, 5, 78, 0
7, 131840, Note_on_c, 5, 79, 96
7, 131840, Note_off_c, 5, 81, 0
7, 131840, Note_on_c, 5, 79, 96
7, 131840, Note_off_c, 5, 74, 0
7, 131840, Note_on_c, 5, 74, 96
7, 132096, Note_off_c, 5, 79, 0
7, 132096, Note_on_c, 5, 78, 96
7, 132096, Note_off_c, 5, 79, 0
7, 132096, Note_on_c, 5, 81, 96
7, 132096, Note_off_c, 5, 74, 0
7, 132096, Note_on_c, 5, 74, 96
7, 132352, Note_off_c, 5, 78, 0
7, 132352, Note_on_c, 5, 79, 96
7, 132352, Note_off_c, 5, 81, 0
7, 132352, Note_on_c, 5, 83, 96
7, 132352, Note_off_c, 5, 74, 0
7, 132352, Note_on_c, 5, 69, 96
7, 132608, Note_off_c, 5, 79, 0
7, 132608, Note_on_c, 5, 78, 96
7, 132608, Note_off_c, 5, 83, 0
7, 132608, Note_on_c, 5, 81, 96
7, 132608, Note_off_c, 5, 69, 0
7, 132608, Note_on_c, 5, 74, 96
7, 132864, Note_off_c, 5, 78, 0
7, 132864, Note_on_c, 5, 76, 96
7, 132864, Note_off_c, 5, 81, 0
7, 132864, Note_on_c, 5, 79, 96
7, 132864, Note_off_c, 5, 74, 0
7, 132864, Note_on_c, 5, 69, 96
7, 133120, Note_off_c, 5, 76, 0
7, 133120, Note_on_c, 5, 74, 96
7, 133120, Note_off_c, 5, 79, 0
7, 133120, Note_on_c, 5, 78, 96
7, 133120, Note_off_c, 5, 69, 0
7, 133120, Note_on_c, 5, 69, 96
7, 135168, Note_off_c, 5, 74, 0
7, 135168, Note_off_c, 5, 78, 0
7, 135168, Note_off_c, 5, 69, 0
7, 135168, End_track
8, 0, Start_track
8, 0, Title_t, "Instrument 7"
8, 3072, Note_on_c, 6, 78, 96
8, 3072, Note_on_c, 6, 69, 96
8, 3072, Note_on_c, 6, 62, 96
8, 4096, Note_off_c, 6, 78, 0
8, 4096, Note_off_c, 6, 69, 0
8, 4096, Note_off_c, 6, 62, 0
8, 4096, Note_on_c, 6, 78, 96
8, 4096, Note_on_c, 6, 69, 96
8, 4096, Note_on_c, 6, 62, 96
8, 5120, Note_off_c, 6, 78, 0
8, 5120, Note_on_c, 6, 74, 96
8, 5120, Note_off_c, 6, 69, 0
8, 5120, Note_on_c, 6, 69, 96
8, 5120, Note_off_c, 6, 62, 0
8, 5120, Note_on_c, 6, 66, 96
8, 6144, Note_off_c, 6, 74, 0
8, 6144, Note_on_c, 6, 76, 96
8, 6144, Note_off_c, 6, 69, 0
8, 6144, Note_on_c, 6, 71, 96
8, 6144, Note_off_c, 6, 66, 0
8, 6144, Note_on_c, 6, 67, 96
8, 7168, Note_off_c, 6, 76, 0
8, 7168, Note_on_c, 6, 78, 96
8, 7168, Note_off_c, 6, 71, 0
8, 7168, Note_on_c, 6, 72, 96
8, 7168, Note_off_c, 6, 67, 0
8, 7168, Note_on_c, 6, 69, 96
8, 8192, Note_off_c, 6, 78, 0
8, 8192, Note_off_c, 6, 72, 0
8, 8192, Note_off_c, 6, 69, 0
8, 8192, Note_on_c, 6, 79, 96
8, 8192, Note_on_c, 6, 74, 96
8, 8192, Note_on_c, 6, 71, 96
8, 10240, Note_off_c, 6, 79, 0
8, 10240, Note_on_c, 6, 76, 96
8, 10240, Note_off_c, 6, 74, 0
8, 10240, Note_on_c, 6, 72, 96
8, 10240, Note_off_c, 6, 71, 0
8, 10240, Note_on_c, 6, 67, 96
8, 11264, Note_off_c, 6, 76, 0
8, 11264, Note_on_c, 6, 76, 96
8, 11264, Note_off_c, 6, 72, 0
8, 11264, Note_on_c, 6, 72, 96
8, 11264, Note_off_c, 6, 67, 0
8, 11264, Note_on_c, 6, 67, 96
8, 12288, Note_off_c, 6, 76, 0
8, 12288, Note_off_c, 6, 72, 0
8, 12288, Note_off_c, 6, 67, 0
8, 12288, Note_on_c, 6, 76, 96
8, 12288, Note_on_c, 6, 73, 96
8, 12288, Note_on_c, 6, 66, 96
8, 13312, Note_off_c, 6, 76, 0
8, 13312, Note_on_c, 6, 74, 96
8, 13312, Note_off_c, 6, 73, 0
8, 13312, Note_on_c, 6, 71, 96
8, 13312, Note_off_c, 6, 66, 0
8, 13312, Note_on_c, 6, 66, 96
8, 14336, Note_off_c, 6, 74, 0
8, 14336, Note_on_c, 6, 74, 96
8, 14336, Note_off_c, 6, 71, 0
8, 14336, Note_on_c, 6, 71, 96
8, 14336, Note_off_c, 6, 66, 0
8, 14336, Note_on_c, 6, 64, 96
8, 14848, Note_off_c, 6, 71, 0
8, 14848, Note_on_c, 6, 64, 96
8, 15360, Note_off_c, 6, 74, 0
8, 15360, Note_on_c, 6, 73, 96
8, 15360, Note_off_c, 6, 64, 0
8, 15360, Note_on_c, 6, 69, 96
8, 15360, Note_off_c, 6, 64, 0
8, 15360, Note_on_c, 6, 64, 96
8, 16384, Note_off_c, 6, 73, 0
8, 16384, Note_off_c, 6, 69, 0
8, 16384, Note_off_c, 6, 64, 0
8, 16384, Note_on_c, 6, 74, 96
8, 16384, Note_on_c, 6, 69, 96
8, 16384, Note_on_c, 6, 66, 96
8, 19456, Note_off_c, 6, 74, 0
8, 19456, Note_on_c, 6, 76, 96
8, 19456, Note_off_c, 6, 69, 0
8, 19456, Note_on_c, 6, 73, 96
8, 19456, Note_off_c, 6, 66, 0
8, 19456, Note_on_c, 6, 69, 96
8, 20480, Note_off_c, 6, 76, 0
8, 20480, Note_off_c, 6, 73, 0
8, 20480, Note_off_c, 6, 69, 0
8, 20480, Note_on_c, 6, 76, 96
8, 20480, Note_on_c, 6, 71, 96
8, 20480, Note_on_c, 6, 64, 96
8, 21504, Note_off_c, 6, 76, 0
8, 21504, Note_on_c, 6, 76, 96
8, 21504, Note_off_c, 6, 71, 0
8, 21504, Note_on_c, 6, 71, 96
8, 21504, Note_off_c, 6, 64, 0
8, 21504, Note_on_c, 6, 68, 96
8, 22528, Note_off_c, 6, 76, 0
8, 22528, Note_on_c, 6, 76, 96
8, 22528, Note_off_c, 6, 71, 0
8, 22528, Note_on_c, 6, 73, 96
8, 22528, Note_off_c, 6, 68, 0
8, 22528, Note_on_c, 6, 69, 96
8, 23552, Note_off_c, 6, 76, 0
8, 23552, Note_on_c, 6, 78, 96
8, 23552, Note_off_c, 6, 73, 0
8, 23552, Note_on_c, 6, 73, 96
8, 23552, Note_off_c, 6, 69, 0
8, 23552, Note_on_c, 6, 70, 96
8, 24576, Note_off_c, 6, 78, 0
8, 24576, Note_off_c, 6, 73, 0
8, 24576, Note_off_c, 6, 70, 0
8, 24576, Note_on_c, 6, 74, 96
8, 24576, Note_on_c, 6, 71, 96
8, 24576, Note_on_c, 6, 66, 96
8, 26624, Note_off_c, 6, 74, 0
8, 26624, Note_on_c, 6, 74, 96
8, 26624, Note_off_c, 6, 71, 0
8, 26624, Note_on_c, 6, 71, 96
8, 26624, Note_off_c, 6, 66, 0
8, 26624, Note_on_c, 6, 66, 96
8, 27648, Note_off_c, 6, 74, 0
8, 27648, Note_on_c, 6, 74, 96
8, 27648, Note_off_c, 6, 71, 0
8, 27648, Note_on_c, 6, 71, 96
8, 27648, Note_off_c, 6, 66, 0
8, 27648, Note_on_c, 6, 66, 96
8, 28672, Note_off_c, 6, 74, 0
8, 28672, Note_off_c, 6, 71, 0
8, 28672, Note_off_c, 6, 66, 0
8, 28672, Note_on_c, 6, 73, 96
8, 28672, Note_on_c, 6, 67, 96
8, 28672, Note_on_c, 6, 64, 96
8, 29696, Note_off_c, 6, 73, 0
8, 29696, Note_on_c, 6, 74, 96
8, 29696, Note_off_c, 6, 67, 0
8, 29696, Note_on_c, 6, 69, 96
8, 29696, Note_off_c, 6, 64, 0
8, 29696, Note_on_c, 6, 66, 96
8, 30208, Note_off_c, 6, 66, 0
8, 30208, Note_on_c, 6, 74, 96
8, 30720, Note_off_c, 6, 74, 0
8, 30720, Note_on_c, 6, 76, 96
8, 30720, Note_off_c, 6, 69, 0
8, 30720, Note_on_c, 6, 69, 96
8, 30720, Note_off_c, 6, 74, 0
8, 30720, Note_on_c, 6, 74, 96
8, 31744, Note_off_c, 6, 76, 0
8, 31744, Note_on_c, 6, 76, 96
8, 31744, Note_off_c, 6, 69, 0
8, 31744, Note_on_c, 6, 69, 96
8, 31744, Note_off_c, 6, 74, 0
8, 31744, Note_on_c, 6, 73, 96
8, 32768, Note_off_c, 6, 76, 0
8, 32768, Note_off_c, 6, 69, 0
8, 32768, Note_off_c, 6, 73, 0
8, 32768, Note_on_c, 6, 74, 96
8, 32768, Note_on_c, 6, 69, 96
8, 32768, Note_on_c, 6, 66, 96
8, 35840, Note_off_c, 6, 74, 0
8, 35840, Note_on_c, 6, 78, 96
8, 35840, Note_off_c, 6, 69, 0
8, 35840, Note_on_c, 6, 69, 96
8, 35840, Note_off_c, 6, 66, 0
8, 35840, Note_on_c, 6, 62, 96
8, 36864, Note_off_c, 6, 78, 0
8, 36864, Note_off_c, 6, 69, 0
8, 36864, Note_off_c, 6, 62, 0
8, 36864, Note_on_c, 6, 78, 96
8, 36864, Note_on_c, 6, 69, 96
8, 36864, Note_on_c, 6, 62, 96
8, 37888, Note_off_c, 6, 78, 0
8, 37888, Note_on_c, 6, 74, 96
8, 37888, Note_off_c, 6, 69, 0
8, 37888, Note_on_c, 6, 69, 96
8, 37888, Note_off_c, 6, 62, 0
8, 37888, Note_on_c, 6, 66, 96
8, 38912, Note_off_c, 6, 74, 0
8, 38912, Note_on_c, 6, 76, 96
8, 38912, Note_off_c, 6, 69, 0
8, 38912, Note_on_c, 6, 71, 96
8, 38912, Note_off_c, 6, 66, 0
8, 38912, Note_on_c, 6, 67, 96
8, 39936, Note_off_c, 6, 76, 0
8, 39936, Note_on_c, 6, 78, 96
8, 39936, Note_off_c, 6, 71, 0
8, 39936, Note_on_c, 6, 72, 96
8, 39936, Note_off_c, 6, 67, 0
8, 39936, Note_on_c, 6, 69, 96
8, 40960, Note_off_c, 6, 78, 0
8, 40960, Note_off_c, 6, 72, 0
8, 40960, Note_off_c, 6, 69, 0
8, 40960, Note_on_c, 6, 79, 96
8, 40960, Note_on_c, 6, 74, 96
8, 40960, Note_on_c, 6, 71, 96
8, 43008, Note_off_c, 6, 79, 0
8, 43008, Note_on_c, 6, 76, 96
8, 43008, Note_off_c, 6, 74, 0
8, 43008, Note_on_c, 6, 72, 96
8, 43008, Note_off_c, 6, 71, 0
8, 43008, Note_on_c, 6, 67, 96
8, 44032, Note_off_c, 6, 76, 0
8, 44032, Note_on_c, 6, 76, 96
8, 44032, Note_off_c, 6, 72, 0
8, 44032, Note_on_c, 6, 72, 96
8, 44032, Note_off_c, 6, 67, 0
8, 44032, Note_on_c, 6, 67, 96
8, 45056, Note_off_c, 6, 76, 0
8, 45056, Note_off_c, 6, 72, 0
8, 45056, Note_off_c, 6, 67, 0
8, 45056, Note_on_c, 6, 76, 96
8, 45056, Note_on_c, 6, 73, 96
8, 45056, Note_on_c, 6, 66, 96
8, 46080, Note_off_c, 6, 76, 0
8, 46080, Note_on_c, 6, 74, 96
8, 46080, Note_off_c, 6, 73, 0
8, 46080, Note_on_c, 6, 71, 96
8, 46080, Note_off_c, 6, 66, 0
8, 46080, Note_on_c, 6, 66, 96
8, 47104, Note_off_c, 6, 74, 0
8, 47104, Note_on_c, 6, 74, 96
8, 47104, Note_off_c, 6, 71, 0
8, 47104, Note_on_c, 6, 71, 96
8, 47104, Note_off_c, 6, 66, 0
8, 47104, Note_on_c, 6, 64, 96
8, 47616, Note_off_c, 6, 71, 0
8, 47616, Note_on_c, 6, 64, 96
8, 48128, Note_off_c, 6, 74, 0
8, 48128, Note_on_c, 6, 73, 96
8, 48128, Note_off_c, 6, 64, 0
8, 48128, Note_on_c, 6, 69, 96
8, 48128, Note_off_c, 6, 64, 0
8, 48128, Note_on_c, 6, 64, 96
8, 49152, Note_off_c, 6, 73, 0
8, 49152, Note_off_c, 6, 69, 0
8, 49152, Note_off_c, 6, 64, 0
8, 49152, Note_on_c, 6, 74, 96
8, 49152, Note_on_c, 6, 69, 96
8, 49152, Note_on_c, 6, 66, 96
8, 52224, Note_off_c, 6, 74, 0
8, 52224, Note_on_c, 6, 76, 96
8, 52224, Note_off_c, 6, 69, 0
8, 52224, Note_on_c, 6, 73, 96
8, 52224, Note_off_c, 6, 66, 0
8, 52224, Note_on_c, 6, 69, 96
8, 53248, Note_off_c, 6, 76, 0
8, 53248, Note_off_c, 6, 73, 0
8, 53248, Note_off_c, 6, 69, 0
8, 53248, Note_on_c, 6, 76, 96
8, 53248, Note_on_c, 6, 71, 96
8, 53248, Note_on_c, 6, 64, 96
8, 54272, Note_off_c, 6, 76, 0
8, 54272, Note_on_c, 6, 76, 96
8, 54272, Note_off_c, 6, 71, 0
8, 54272, Note_on_c, 6, 71, 96
8, 54272, Note_off_c, 6, 64, 0
8, 54272, Note_on_c, 6, 68, 96
8, 55296, Note_off_c, 6, 76, 0
8, 55296, Note_on_c, 6, 76, 96
8, 55296, Note_off_c, 6, 71, 0
8, 55296, Note_on_c, 6, 73, 96
8, 55296, Note_off_c, 6, 68, 0
8, 55296, Note_on_c, 6, 69, 96
8, 56320, Note_off_c, 6, 76, 0
8, 56320, Note_on_c, 6, 78, 96
8, 56320, Note_off_c, 6, 73, 0
8, 56320, Note_on_c, 6, 73, 96
8, 56320, Note_off_c, 6, 69, 0
8, 56320, Note_on_c, 6, 70, 96
8, 57344, Note_off_c, 6, 78, 0
8, 57344, Note_off_c, 6, 73, 0
8, 57344, Note_off_c, 6, 70, 0
8, 57344, Note_on_c, 6, 74, 96
8, 57344, Note_on_c, 6, 71, 96
8, 57344, Note_on_c, 6, 66, 96
8, 59392, Note_off_c, 6, 74, 0
8, 59392, Note_on_c, 6, 74, 96
8, 59392, Note_off_c, 6, 71, 0
8, 59392, Note_on_c, 6, 71, 96
8, 59392, Note_off_c, 6, 66, 0
8, 59392, Note_on_c, 6, 66, 96
8, 60416, Note_off_c, 6, 74, 0
8, 60416, Note_on_c, 6, 74, 96
8, 60416, Note_off_c, 6, 71, 0
8, 60416, Note_on_c, 6, 71, 96
8, 60416, Note_off_c, 6, 66, 0
8, 60416, Note_on_c, 6, 66, 96
8, 61440, Note_off_c, 6, 74, 0
8, 61440, Note_off_c, 6, 71, 0
8, 61440, Note_off_c, 6, 66, 0
8, 61440, Note_on_c, 6, 73, 96
8, 61440, Note_on_c, 6, 67, 96
8, 61440, Note_on_c, 6, 64, 96
8, 62464, Note_off_c, 6, 73, 0
8, 62464, Note_on_c, 6, 74, 96
8, 62464, Note_off_c, 6, 67, 0
8, 62464, Note_on_c, 6, 69, 96
8, 62464, Note_off_c, 6, 64, 0
8, 62464, Note_on_c, 6, 66, 96
8, 62976, Note_off_c, 6, 66, 0
8, 62976, Note_on_c, 6, 74, 96
8, 63488, Note_off_c, 6, 74, 0
8, 63488, Note_on_c, 6, 76, 96
8, 63488, Note_off_c, 6, 69, 0
8, 63488, Note_on_c, 6, 69, 96
8, 63488, Note_off_c, 6, 74, 0
8, 63488, Note_on_c, 6, 74, 96
8, 64512, Note_off_c, 6, 76, 0
8, 64512, Note_on_c, 6, 76, 96
8, 64512, Note_off_c, 6, 69, 0
8, 64512, Note_on_c, 6, 69, 96
8, 64512, Note_off_c, 6, 74, 0
8, 64512, Note_on_c, 6, 73, 96
8, 65536, Note_off_c, 6, 76, 0
8, 65536, Note_off_c, 6, 69, 0
8, 65536, Note_off_c, 6, 73, 0
8, 65536, Note_on_c, 6, 74, 96
8, 65536, Note_on_c, 6, 69, 96
8, 65536, Note_on_c, 6, 66, 96
8, 68608, Note_off_c, 6, 74, 0
8, 68608, Note_on_c, 6, 73, 96
8, 68608, Note_off_c, 6, 69, 0
8, 68608, Note_on_c, 6, 69, 96
8, 68608, Note_off_c, 6, 66, 0
8, 68608, Note_on_c, 6, 64, 96
8, 69632, Note_off_c, 6, 73, 0
8, 69632, Note_off_c, 6, 69, 0
8, 69632, Note_off_c, 6, 64, 0
8, 69632, Note_on_c, 6, 73, 96
8, 69632, Note_on_c, 6, 69, 96
8, 69632, Note_on_c, 6, 64, 96
8, 70656, Note_off_c, 6, 73, 0
8, 70656, Note_on_c, 6, 73, 96
8, 70656, Note_off_c, 6, 69, 0
8, 70656, Note_on_c, 6, 69, 96
8, 70656, Note_off_c, 6, 64, 0
8, 70656, Note_on_c, 6, 64, 96
8, 71680, Note_off_c, 6, 73, 0
8, 71680, Note_on_c, 6, 73, 96
8, 71680, Note_off_c, 6, 69, 0
8, 71680, Note_on_c, 6, 69, 96
8, 71680, Note_off_c, 6, 64, 0
8, 71680, Note_on_c, 6, 66, 96
8, 72704, Note_off_c, 6, 73, 0
8, 72704, Note_on_c, 6, 73, 96
8, 72704, Note_off_c, 6, 69, 0
8, 72704, Note_on_c, 6, 69, 96
8, 72704, Note_off_c, 6, 66, 0
8, 72704, Note_on_c, 6, 67, 96
8, 73216, Note_off_c, 6, 67, 0
8, 73216, Note_on_c, 6, 64, 96
8, 73728, Note_off_c, 6, 73, 0
8, 73728, Note_off_c, 6, 69, 0
8, 73728, Note_off_c, 6, 64, 0
8, 73728, Note_on_c, 6, 74, 96
8, 73728, Note_on_c, 6, 69, 96
8, 73728, Note_on_c, 6, 66, 96
8, 75776, Note_off_c, 6, 74, 0
8, 75776, Note_on_c, 6, 74, 96
8, 75776, Note_off_c, 6, 69, 0
8, 75776, Note_on_c, 6, 69, 96
8, 75776, Note_off_c, 6, 66, 0
8, 75776, Note_on_c, 6, 66, 96
8, 76800, Note_off_c, 6, 74, 0
8, 76800, Note_on_c, 6, 73, 96
8, 76800, Note_off_c, 6, 69, 0
8, 76800, Note_on_c, 6, 69, 96
8, 76800, Note_off_c, 6, 66, 0
8, 76800, Note_on_c, 6, 64, 96
8, 77824, Note_off_c, 6, 73, 0
8, 77824, Note_off_c, 6, 69, 0
8, 77824, Note_off_c, 6, 64, 0
8, 77824, Note_on_c, 6, 73, 96
8, 77824, Note_on_c, 6, 69, 96
8, 77824, Note_on_c, 6, 64, 96
8, 78848, Note_off_c, 6, 73, 0
8, 78848, Note_on_c, 6, 73, 96
8, 78848, Note_off_c, 6, 69, 0
8, 78848, Note_on_c, 6, 69, 96
8, 78848, Note_off_c, 6, 64, 0
8, 78848, Note_on_c, 6, 64, 96
8, 79872, Note_off_c, 6, 73, 0
8, 79872, Note_on_c, 6, 73, 96
8, 79872, Note_off_c, 6, 69, 0
8, 79872, Note_on_c, 6, 69, 96
8, 79872, Note_off_c, 6, 64, 0
8, 79872, Note_on_c, 6, 66, 96
8, 80896, Note_off_c, 6, 73, 0
8, 80896, Note_on_c, 6, 73, 96
8, 80896, Note_off_c, 6, 69, 0
8, 80896, Note_on_c, 6, 69, 96
8, 80896, Note_off_c, 6, 66, 0
8, 80896, Note_on_c, 6, 67, 96
8, 81408, Note_off_c, 6, 67, 0
8, 81408, Note_on_c, 6, 64, 96
8, 81920, Note_off_c, 6, 73, 0
8, 81920, Note_off_c, 6, 69, 0
8, 81920, Note_off_c, 6, 64, 0
8, 81920, Note_on_c, 6, 74, 96
8, 81920, Note_on_c, 6, 69, 96
8, 81920, Note_on_c, 6, 66, 96
8, 83968, Note_off_c, 6, 74, 0
8, 83968, Note_on_c, 6, 74, 96
8, 83968, Note_off_c, 6, 69, 0
8, 83968, Note_on_c, 6, 69, 96
8, 83968, Note_off_c, 6, 66, 0
8, 83968, Note_on_c, 6, 66, 96
8, 84992, Note_off_c, 6, 74, 0
8, 84992, Note_on_c, 6, 78, 96
8, 84992, Note_off_c, 6, 69, 0
8, 84992, Note_on_c, 6, 74, 96
8, 84992, Note_off_c, 6, 66, 0
8, 84992, Note_on_c, 6, 69, 96
8, 86016, Note_off_c, 6, 78, 0
8, 86016, Note_off_c, 6, 74, 0
8, 86016, Note_off_c, 6, 69, 0
8, 86016, Note_on_c, 6, 78, 96
8, 86016, Note_on_c, 6, 74, 96
8, 86016, Note_on_c, 6, 69, 96
8, 87040, Note_off_c, 6, 78, 0
8, 87040, Note_on_c, 6, 74, 96
8, 87040, Note_off_c, 6, 74, 0
8, 87040, Note_on_c, 6, 69, 96
8, 87040, Note_off_c, 6, 69, 0
8, 87040, Note_on_c, 6, 66, 96
8, 88064, Note_off_c, 6, 74, 0
8, 88064, Note_on_c, 6, 76, 96
8, 88064, Note_off_c, 6, 69, 0
8, 88064, Note_on_c, 6, 71, 96
8, 88064, Note_off_c, 6, 66, 0
8, 88064, Note_on_c, 6, 67, 96
8, 89088, Note_off_c, 6, 76, 0
8, 89088, Note_on_c, 6, 78, 96
8, 89088, Note_off_c, 6, 71, 0
8, 89088, Note_on_c, 6, 72, 96
8, 89088, Note_off_c, 6, 67, 0
8, 89088, Note_on_c, 6, 69, 96
8, 90112, Note_off_c, 6, 78, 0
8, 90112, Note_off_c, 6, 72, 0
8, 90112, Note_off_c, 6, 69, 0
8, 90112, Note_on_c, 6, 79, 96
8, 90112, Note_on_c, 6, 74, 96
8, 90112, Note_on_c, 6, 67, 96
8, 91136, Note_off_c, 6, 74, 0
8, 91136, Note_on_c, 6, 69, 96
8, 91136, Note_off_c, 6, 67, 0
8, 91136, Note_on_c, 6, 64, 96
8, 92160, Note_off_c, 6, 79, 0
8, 92160, Note_on_c, 6, 78, 96
8, 92160, Note_off_c, 6, 69, 0
8, 92160, Note_on_c, 6, 69, 96
8, 92160, Note_off_c, 6, 64, 0
8, 92160, Note_on_c, 6, 62, 96
8, 93184, Note_off_c, 6, 78, 0
8, 93184, Note_on_c, 6, 78, 96
8, 93184, Note_off_c, 6, 69, 0
8, 93184, Note_on_c, 6, 71, 96
8, 93184, Note_off_c, 6, 62, 0
8, 93184, Note_on_c, 6, 66, 96
8, 94208, Note_off_c, 6, 78, 0
8, 94208, Note_off_c, 6, 71, 0
8, 94208, Note_off_c, 6, 66, 0
8, 94208, Note_on_c, 6, 76, 96
8, 94208, Note_on_c, 6, 71, 96
8, 94208, Note_on_c, 6, 67, 96
8, 95232, Note_off_c, 6, 76, 0
8, 95232, Note_on_c, 6, 78, 96
8, 95232, Note_off_c, 6, 71, 0
8, 95232, Note_on_c, 6, 72, 96
8, 95232, Note_off_c, 6, 67, 0
8, 95232, Note_on_c, 6, 69, 96
8, 96256, Note_off_c, 6, 78, 0
8, 96256, Note_on_c, 6, 75, 96
8, 96256, Note_off_c, 6, 72, 0
8, 96256, Note_on_c, 6, 71, 96
8, 96256, Note_off_c, 6, 69, 0
8, 96256, Note_on_c, 6, 66, 96
8, 97280, Note_off_c, 6, 75, 0
8, 97280, Note_on_c, 6, 75, 96
8, 97280, Note_off_c, 6, 71, 0
8, 97280, Note_on_c, 6, 71, 96
8, 97280, Note_off_c, 6, 66, 0
8, 97280, Note_on_c, 6, 66, 96
8, 98304, Note_off_c, 6, 75, 0
8, 98304, Note_off_c, 6, 71, 0
8, 98304, Note_off_c, 6, 66, 0
8, 98304, Note_on_c, 6, 76, 96
8, 98304, Note_on_c, 6, 71, 96
8, 98304, Note_on_c, 6, 67, 96
8, 101376, Note_off_c, 6, 76, 0
8, 101376, Note_on_c, 6, 78, 96
8, 101376, Note_off_c, 6, 71, 0
8, 101376, Note_on_c, 6, 74, 96
8, 101376, Note_off_c, 6, 67, 0
8, 101376, Note_on_c, 6, 69, 96
8, 102400, Note_off_c, 6, 78, 0
8, 102400, Note_off_c, 6, 74, 0
8, 102400, Note_off_c, 6, 69, 0
8, 102400, Note_on_c, 6, 78, 96
8, 102400, Note_on_c, 6, 74, 96
8, 102400, Note_on_c, 6, 69, 96
8, 103424, Note_off_c, 6, 78, 0
8, 103424, Note_on_c, 6, 74, 96
8, 103424, Note_off_c, 6, 74, 0
8, 103424, Note_on_c, 6, 69, 96
8, 103424, Note_off_c, 6, 69, 0
8, 103424, Note_on_c, 6, 66, 96
8, 104448, Note_off_c, 6, 74, 0
8, 104448, Note_on_c, 6, 76, 96
8, 104448, Note_off_c, 6, 69, 0
8, 104448, Note_on_c, 6, 71, 96
8, 104448, Note_off_c, 6, 66, 0
8, 104448, Note_on_c, 6, 67, 96
8, 105472, Note_off_c, 6, 76, 0
8, 105472, Note_on_c, 6, 78, 96
8, 105472, Note_off_c, 6, 71, 0
8, 105472, Note_on_c, 6, 72, 96
8, 105472, Note_off_c, 6, 67, 0
8, 105472, Note_on_c, 6, 69, 96
8, 106496, Note_off_c, 6, 78, 0
8, 106496, Note_off_c, 6, 72, 0
8, 106496, Note_off_c, 6, 69, 0
8, 106496, Note_on_c, 6, 79, 96
8, 106496, Note_on_c, 6, 74, 96
8, 106496, Note_on_c, 6, 67, 96
8, 107520, Note_off_c, 6, 74, 0
8, 107520, Note_on_c, 6, 69, 96
8, 107520, Note_off_c, 6, 67, 0
8, 107520, Note_on_c, 6, 64, 96
8, 108544, Note_off_c, 6, 79, 0
8, 108544, Note_on_c, 6, 78, 96
8, 108544, Note_off_c, 6, 69, 0
8, 108544, Note_on_c, 6, 69, 96
8, 108544, Note_off_c, 6, 64, 0
8, 108544, Note_on_c, 6, 62, 96
8, 109568, Note_off_c, 6, 78, 0
8, 109568, Note_on_c, 6, 78, 96
8, 109568, Note_off_c, 6, 69, 0
8, 109568, Note_on_c, 6, 71, 96
8, 109568, Note_off_c, 6, 62, 0
8, 109568, Note_on_c, 6, 66, 96
8, 110592, Note_off_c, 6, 78, 0
8, 110592, Note_off_c, 6, 71, 0
8, 110592, Note_off_c, 6, 66, 0
8, 110592, Note_on_c, 6, 76, 96
8, 110592, Note_on_c, 6, 71, 96
8, 110592, Note_on_c, 6, 67, 96
8, 111616, Note_off_c, 6, 76, 0
8, 111616, Note_on_c, 6, 78, 96
8, 111616, Note_off_c, 6, 71, 0
8, 111616, Note_on_c, 6, 72, 96
8, 111616, Note_off_c, 6, 67, 0
8, 111616, Note_on_c, 6, 69, 96
8, 112640, Note_off_c, 6, 78, 0
8, 112640, Note_on_c, 6, 75, 96
8, 112640, Note_off_c, 6, 72, 0
8, 112640, Note_on_c, 6, 71, 96
8, 112640, Note_off_c, 6, 69, 0
8, 112640, Note_on_c, 6, 66, 96
8, 113664, Note_off_c, 6, 75, 0
8, 113664, Note_on_c, 6, 75, 96
8, 113664, Note_off_c, 6, 71, 0
8, 113664, Note_on_c, 6, 71, 96
8, 113664, Note_off_c, 6, 66, 0
8, 113664, Note_on_c, 6, 66, 96
8, 114688, Note_off_c, 6, 75, 0
8, 114688, Note_off_c, 6, 71, 0
8, 114688, Note_off_c, 6, 66, 0
8, 114688, Note_on_c, 6, 76, 96
8, 114688, Note_on_c, 6, 71, 96
8, 114688, Note_on_c, 6, 67, 96
8, 117760, Note_off_c, 6, 76, 0
8, 117760, Note_on_c, 6, 78, 96
8, 117760, Note_off_c, 6, 71, 0
8, 117760, Note_on_c, 6, 73, 96
8, 117760, Note_off_c, 6, 67, 0
8, 117760, Note_on_c, 6, 66, 96
8, 118784, Note_off_c, 6, 78, 0
8, 118784, Note_off_c, 6, 73, 0
8, 118784, Note_off_c, 6, 66, 0
8, 118784, Note_on_c, 6, 78, 96
8, 118784, Note_on_c, 6, 71, 96
8, 118784, Note_on_c, 6, 62, 96
8, 119808, Note_off_c, 6, 78, 0
8, 119808, Note_on_c, 6, 74, 96
8, 119808, Note_off_c, 6, 71, 0
8, 119808, Note_on_c, 6, 71, 96
8, 119808, Note_off_c, 6, 62, 0
8, 119808, Note_on_c, 6, 66, 96
8, 120832, Note_off_c, 6, 74, 0
8, 120832, Note_on_c, 6, 76, 96
8, 120832, Note_off_c, 6, 71, 0
8, 120832, Note_on_c, 6, 71, 96
8, 120832, Note_off_c, 6, 66, 0
8, 120832, Note_on_c, 6, 67, 96
8, 121856, Note_off_c, 6, 76, 0
8, 121856, Note_on_c, 6, 78, 96
8, 121856, Note_off_c, 6, 71, 0
8, 121856, Note_on_c, 6, 75, 96
8, 121856, Note_off_c, 6, 67, 0
8, 121856, Note_on_c, 6, 69, 96
8, 122880, Note_off_c, 6, 78, 0
8, 122880, Note_off_c, 6, 75, 0
8, 122880, Note_off_c, 6, 69, 0
8, 122880, Note_on_c, 6, 79, 96
8, 122880, Note_on_c, 6, 76, 96
8, 122880, Note_on_c, 6, 71, 96
8, 124928, Note_off_c, 6, 79, 0
8, 124928, Note_on_c, 6, 76, 96
8, 124928, Note_off_c, 6, 76, 0
8, 124928, Note_on_c, 6, 70, 96
8, 124928, Note_off_c, 6, 71, 0
8, 124928, Note_on_c, 6, 64, 96
8, 125440, Note_off_c, 6, 64, 0
8, 125440, Note_on_c, 6, 66, 96
8, 125952, Note_off_c, 6, 76, 0
8, 125952, Note_on_c, 6, 76, 96
8, 125952, Note_off_c, 6, 70, 0
8, 125952, Note_on_c, 6, 71, 96
8, 125952, Note_off_c, 6, 66, 0
8, 125952, Note_on_c, 6, 67, 96
8, 126976, Note_off_c, 6, 76, 0
8, 126976, Note_off_c, 6, 71, 0
8, 126976, Note_off_c, 6, 67, 0
8, 126976, Note_on_c, 6, 76, 96
8, 126976, Note_on_c, 6, 73, 96
8, 126976, Note_on_c, 6, 66, 96
8, 128000, Note_off_c, 6, 76, 0
8, 128000, Note_on_c, 6, 74, 96
8, 128000, Note_off_c, 6, 73, 0
8, 128000, Note_on_c, 6, 71, 96
8, 128000, Note_off_c, 6, 66, 0
8, 128000, Note_on_c, 6, 66, 96
8, 129024, Note_off_c, 6, 74, 0
8, 129024, Note_on_c, 6, 74, 96
8, 129024, Note_off_c, 6, 71, 0
8, 129024, Note_on_c, 6, 71, 96
8, 129024, Note_off_c, 6, 66, 0
8, 129024, Note_on_c, 6, 64, 96
8, 130048, Note_off_c, 6, 74, 0
8, 130048, Note_on_c, 6, 73, 96
8, 130048, Note_off_c, 6, 71, 0
8, 130048, Note_on_c, 6, 69, 96
8, 130048, Note_off_c, 6, 64, 0
8, 130048, Note_on_c, 6, 64, 96
8, 131072, Note_off_c, 6, 73, 0
8, 131072, Note_off_c, 6, 69, 0
8, 131072, Note_off_c, 6, 64, 0
8, 131072, Note_on_c, 6, 74, 96
8, 131072, Note_on_c, 6, 69, 96
8, 131072, Note_on_c, 6, 66, 96
8, 135168, Note_off_c, 6, 74, 0
8, 135168, Note_off_c, 6, 69, 0
8, 135168, Note_off_c, 6, 66, 0
8, 135168, End_track
9, 0, Start_track
9, 0, Title_t, "Instrument 8"
9, 3072, Note_on_c, 7, 78, 96
9, 3072, Note_on_c, 7, 69, 96
9, 3072, Note_on_c, 7, 62, 96
9, 4096, Note_off_c, 7, 78, 0
9, 4096, Note_off_c, 7, 69, 0
9, 4096, Note_off_c, 7, 62, 0
9, 4096, Note_on_c, 7, 78, 96
9, 4096, Note_on_c, 7, 69, 96
9, 4096, Note_on_c, 7, 62, 96
9, 5120, Note_off_c, 7, 78, 0
9, 5120, Note_on_c, 7, 74, 96
9, 5120, Note_off_c, 7, 69, 0
9, 5120, Note_on_c, 7, 66, 96
9, 5120, Note_off_c, 7, 62, 0
9, 5120, Note_on_c, 7, 57, 96
9, 6144, Note_off_c, 7, 74, 0
9, 6144, Note_on_c, 7, 76, 96
9, 6144, Note_off_c, 7, 66, 0
9, 6144, Note_on_c, 7, 67, 96
9, 6144, Note_off_c, 7, 57, 0
9, 6144, Note_on_c, 7, 59, 96
9, 7168, Note_off_c, 7, 76, 0
9, 7168, Note_on_c, 7, 78, 96
9, 7168, Note_off_c, 7, 67, 0
9, 7168, Note_on_c, 7, 69, 96
9, 7168, Note_off_c, 7, 59, 0
9, 7168, Note_on_c, 7, 60, 96
9, 8192, Note_off_c, 7, 78, 0
9, 8192, Note_off_c, 7, 69, 0
9, 8192, Note_off_c, 7, 60, 0
9, 8192, Note_on_c, 7, 79, 96
9, 8192, Note_on_c, 7, 71, 96
9, 8192, Note_on_c, 7, 62, 96
9, 10240, Note_off_c, 7, 79, 0
9, 10240, Note_on_c, 7, 76, 96
9, 10240, Note_off_c, 7, 71, 0
9, 10240, Note_on_c, 7, 67, 96
9, 10240, Note_off_c, 7, 62, 0
9, 10240, Note_on_c, 7, 60, 96
9, 11264, Note_off_c, 7, 76, 0
9, 11264, Note_on_c, 7, 76, 96
9, 11264, Note_off_c, 7, 67, 0
9, 11264, Note_on_c, 7, 67, 96
9, 11264, Note_off_c, 7, 60, 0
9, 11264, Note_on_c, 7, 60, 96
9, 12288, Note_off_c, 7, 76, 0
9, 12288, Note_off_c, 7, 67, 0
9, 12288, Note_off_c, 7, 60, 0
9, 12288, Note_on_c, 7, 76, 96
9, 12288, Note_on_c, 7, 66, 96
9, 12288, Note_on_c, 7, 61, 96
9, 13312, Note_off_c, 7, 76, 0
9, 13312, Note_on_c, 7, 74, 96
9, 13312, Note_off_c, 7, 66, 0
9, 13312, Note_on_c, 7, 66, 96
9, 13312, Note_off_c, 7, 61, 0
9, 13312, Note_on_c, 7, 62, 96
9, 14336, Note_off_c, 7, 74, 0
9, 14336, Note_on_c, 7, 74, 96
9, 14336, Note_off_c, 7, 66, 0
9, 14336, Note_on_c, 7, 64, 96
9, 14336, Note_off_c, 7, 62, 0
9, 14336, Note_on_c, 7, 59, 96
9, 15360, Note_off_c, 7, 74, 0
9, 15360, Note_on_c, 7, 73, 96
9, 15360, Note_off_c, 7, 64, 0
9, 15360, Note_on_c, 7, 69, 96
9, 15360, Note_off_c, 7, 59, 0
9, 15360, Note_on_c, 7, 64, 96
9, 16384, Note_off_c, 7, 73, 0
9, 16384, Note_off_c, 7, 69, 0
9, 16384, Note_off_c, 7, 64, 0
9, 16384, Note_on_c, 7, 74, 96
9, 16384, Note_on_c, 7, 69, 96
9, 16384, Note_on_c, 7, 66, 96
9, 19456, Note_off_c, 7, 74, 0
9, 19456, Note_on_c, 7, 76, 96
9, 19456, Note_off_c, 7, 69, 0
9, 19456, Note_on_c, 7, 69, 96
9, 19456, Note_off_c, 7, 66, 0
9, 19456, Note_on_c, 7, 61, 96
9, 20480, Note_off_c, 7, 76, 0
9, 20480, Note_off_c, 7, 69, 0
9, 20480, Note_off_c, 7, 61, 0
9, 20480, Note_on_c, 7, 76, 96
9, 20480, Note_on_c, 7, 64, 96
9, 20480, Note_on_c, 7, 59, 96
9, 20992, Note_off_c, 7, 59, 0
9, 20992, Note_on_c, 7, 61, 96
9, 21504, Note_off_c, 7, 76, 0
9, 21504, Note_on_c, 7, 76, 96
9, 21504, Note_off_c, 7, 64, 0
9, 21504, Note_on_c, 7, 68, 96
9, 21504, Note_off_c, 7, 61, 0
9, 21504, Note_on_c, 7, 62, 96
9, 22528, Note_off_c, 7, 76, 0
9, 22528, Note_on_c, 7, 76, 96
9, 22528, Note_off_c, 7, 68, 0
9, 22528, Note_on_c, 7, 69, 96
9, 22528, Note_off_c, 7, 62, 0
9, 22528, Note_on_c, 7, 61, 96
9, 23552, Note_off_c, 7, 76, 0
9, 23552, Note_on_c, 7, 78, 96
9, 23552, Note_off_c, 7, 69, 0
9, 23552, Note_on_c, 7, 70, 96
9, 23552, Note_off_c, 7, 61, 0
9, 23552, Note_on_c, 7, 61, 96
9, 24576, Note_off_c, 7, 78, 0
9, 24576, Note_off_c, 7, 70, 0
9, 24576, Note_off_c, 7, 61, 0
9, 24576, Note_on_c, 7, 74, 96
9, 24576, Note_on_c, 7, 71, 96
9, 24576, Note_on_c, 7, 62, 96
9, 25088, Note_off_c, 7, 62, 0
9, 25088, Note_on_c, 7, 64, 96
9, 25600, Note_off_c, 7, 64, 0
9, 25600, Note_on_c, 7, 66, 96
9, 26624, Note_off_c, 7, 74, 0
9, 26624, Note_on_c, 7, 74, 96
9, 26624, Note_off_c, 7, 71, 0
9, 26624, Note_on_c, 7, 71, 96
9, 26624, Note_off_c, 7, 66, 0
9, 26624, Note_on_c, 7, 66, 96
9, 27648, Note_off_c, 7, 74, 0
9, 27648, Note_on_c, 7, 74, 96
9, 27648, Note_off_c, 7, 71, 0
9, 27648, Note_on_c, 7, 66, 96
9, 27648, Note_off_c, 7, 66, 0
9, 27648, Note_on_c, 7, 59, 96
9, 28672, Note_off_c, 7, 74, 0
9, 28672, Note_off_c, 7, 66, 0
9, 28672, Note_off_c, 7, 59, 0
9, 28672, Note_on_c, 7, 73, 96
9, 28672, Note_on_c, 7, 64, 96
9, 28672, Note_on_c, 7, 55, 96
9, 29696, Note_off_c, 7, 73, 0
9, 29696, Note_on_c, 7, 74, 96
9, 29696, Note_off_c, 7, 64, 0
9, 29696, Note_on_c, 7, 66, 96
9, 29696, Note_off_c, 7, 55, 0
9, 29696, Note_on_c, 7, 57, 96
9, 30208, Note_off_c, 7, 57, 0
9, 30208, Note_on_c, 7, 62, 96
9, 30720, Note_off_c, 7, 74, 0
9, 30720, Note_on_c, 7, 76, 96
9, 30720, Note_off_c, 7, 66, 0
9, 30720, Note_on_c, 7, 67, 96
9, 30720, Note_off_c, 7, 62, 0
9, 30720, Note_on_c, 7, 62, 96
9, 31232, Note_off_c, 7, 67, 0
9, 31232, Note_on_c, 7, 69, 96
9, 31488, Note_off_c, 7, 69, 0
9, 31488, Note_on_c, 7, 71, 96
9, 31744, Note_off_c, 7, 76, 0
9, 31744, Note_on_c, 7, 76, 96
9, 31744, Note_off_c, 7, 71, 0
9, 31744, Note_on_c, 7, 69, 96
9, 31744, Note_off_c, 7, 62, 0
9, 31744, Note_on_c, 7, 61, 96
9, 32256, Note_off_c, 7, 69, 0
9, 32256, Note_on_c, 7, 64, 96
9, 32768, Note_off_c, 7, 76, 0
9, 32768, Note_off_c, 7, 64, 0
9, 32768, Note_off_c, 7, 61, 0
9, 32768, Note_on_c, 7, 74, 96
9, 32768, Note_on_c, 7, 66, 96
9, 32768, Note_on_c, 7, 57, 96
9, 35840, Note_off_c, 7, 74, 0
9, 35840, Note_on_c, 7, 78, 96
9, 35840, Note_off_c, 7, 66, 0
9, 35840, Note_on_c, 7, 69, 96
9, 35840, Note_off_c, 7, 57, 0
9, 35840, Note_on_c, 7, 62, 96
9, 36864, Note_off_c, 7, 78, 0
9, 36864, Note_off_c, 7, 69, 0
9, 36864, Note_off_c, 7, 62, 0
9, 36864, Note_on_c, 7, 78, 96
9, 36864, Note_on_c, 7, 69, 96
9, 36864, Note_on_c, 7, 62, 96
9, 37888, Note_off_c, 7, 78, 0
9, 37888, Note_on_c, 7, 74, 96
9, 37888, Note_off_c, 7, 69, 0
9, 37888, Note_on_c, 7, 66, 96
9, 37888, Note_off_c, 7, 62, 0
9, 37888, Note_on_c, 7, 57, 96
9, 38912, Note_off_c, 7, 74, 0
9, 38912, Note_on_c, 7, 76, 96
9, 38912, Note_off_c, 7, 66, 0
9, 38912, Note_on_c, 7, 67, 96
9, 38912, Note_off_c, 7, 57, 0
9, 38912, Note_on_c, 7, 59, 96
9, 39936, Note_off_c, 7, 76, 0
9, 39936, Note_on_c, 7, 78, 96
9, 39936, Note_off_c, 7, 67, 0
9, 39936, Note_on_c, 7, 69, 96
9, 39936, Note_off_c, 7, 59, 0
9, 39936, Note_on_c, 7, 60, 96
9, 40960, Note_off_c, 7, 78, 0
9, 40960, Note_off_c, 7, 69, 0
9, 40960, Note_off_c, 7, 60, 0
9, 40960, Note_on_c, 7, 79, 96
9, 40960, Note_on_c, 7, 71, 96
9, 40960, Note_on_c, 7, 62, 96
9, 43008, Note_off_c, 7, 79, 0
9, 43008, Note_on_c, 7, 76, 96
9, 43008, Note_off_c, 7, 71, 0
9, 43008, Note_on_c, 7, 67, 96
9, 43008, Note_off_c, 7, 62, 0
9, 43008, Note_on_c, 7, 60, 96
9, 44032, Note_off_c, 7, 76, 0
9, 44032, Note_on_c, 7, 76, 96
9, 44032, Note_off_c, 7, 67, 0
9, 44032, Note_on_c, 7, 67, 96
9, 44032, Note_off_c, 7, 60, 0
9, 44032, Note_on_c, 7, 60, 96
9, 45056, Note_off_c, 7, 76, 0
9, 45056, Note_off_c, 7, 67, 0
9, 45056, Note_off_c, 7, 60, 0
9, 45056, Note_on_c, 7, 76, 96
9, 45056, Note_on_c, 7, 66, 96
9, 45056, Note_on_c, 7, 61, 96
9, 46080, Note_off_c, 7, 76, 0
9, 46080, Note_on_c, 7, 74, 96
9, 46080, Note_off_c, 7, 66, 0
9, 46080, Note_on_c, 7, 66, 96
9, 46080, Note_off_c, 7, 61, 0
9, 46080, Note_on_c, 7, 62, 96
9, 47104, Note_off_c, 7, 74, 0
9, 47104, Note_on_c, 7, 74, 96
9, 47104, Note_off_c, 7, 66, 0
9, 47104, Note_on_c, 7, 64, 96
9, 47104, Note_off_c, 7, 62, 0
9, 47104, Note_on_c, 7, 59, 96
9, 48128, Note_off_c, 7, 74, 0
9, 48128, Note_on_c, 7, 73, 96
9, 48128, Note_off_c, 7, 64, 0
9, 48128, Note_on_c, 7, 69, 96
9, 48128, Note_off_c, 7, 59, 0
9, 48128, Note_on_c, 7, 64, 96
9, 49152, Note_off_c, 7, 73, 0
9, 49152, Note_off_c, 7, 69, 0
9, 49152, Note_off_c, 7, 64, 0
9, 49152, Note_on_c, 7, 74, 96
9, 49152, Note_on_c, 7, 69, 96
9, 49152, Note_on_c, 7, 66, 96
9, 52224, Note_off_c, 7, 74, 0
9, 52224, Note_on_c, 7, 76, 96
9, 52224, Note_off_c, 7, 69, 0
9, 52224, Note_on_c, 7, 69, 96
9, 52224, Note_off_c, 7, 66, 0
9, 52224, Note_on_c, 7, 61, 96
9, 53248, Note_off_c, 7, 76, 0
9, 53248, Note_off_c, 7, 69, 0
9, 53248, Note_off_c, 7, 61, 0
9, 53248, Note_on_c, 7, 76, 96
9, 53248, Note_on_c, 7, 64, 96
9, 53248, Note_on_c, 7, 59, 96
9, 53760, Note_off_c, 7, 59, 0
9, 53760, Note_on_c, 7, 61, 96
9, 54272, Note_off_c, 7, 76, 0
9, 54272, Note_on_c, 7, 76, 96
9, 54272, Note_off_c, 7, 64, 0
9, 54272, Note_on_c, 7, 68, 96
9, 54272, Note_off_c, 7, 61, 0
9, 54272, Note_on_c, 7, 62, 96
9, 55296, Note_off_c, 7, 76, 0
9, 55296, Note_on_c, 7, 76, 96
9, 55296, Note_off_c, 7, 68, 0
9, 55296, Note_on_c, 7, 69, 96
9, 55296, Note_off_c, 7, 62, 0
9, 55296, Note_on_c, 7, 61, 96
9, 56320, Note_off_c, 7, 76, 0
9, 56320, Note_on_c, 7, 78, 96
9, 56320, Note_off_c, 7, 69, 0
9, 56320, Note_on_c, 7, 70, 96
9, 56320, Note_off_c, 7, 61, 0
9, 56320, Note_on_c, 7, 61, 96
9, 57344, Note_off_c, 7, 78, 0
9, 57344, Note_off_c, 7, 70, 0
9, 57344, Note_off_c, 7, 61, 0
9, 57344, Note_on_c, 7, 74, 96
9, 57344, Note_on_c, 7, 71, 96
9, 57344, Note_on_c, 7, 62, 96
9, 57856, Note_off_c, 7, 62, 0
9, 57856, Note_on_c, 7, 64, 96
9, 58368, Note_off_c, 7, 64, 0
9, 58368, Note_on_c, 7, 66, 96
9, 59392, Note_off_c, 7, 74, 0
9, 59392, Note_on_c, 7, 74, 96
9, 59392, Note_off_c, 7, 71, 0
9, 59392, Note_on_c, 7, 71, 96
9, 59392, Note_off_c, 7, 66, 0
9, 59392, Note_on_c, 7, 66, 96
9, 60416, Note_off_c, 7, 74, 0
9, 60416, Note_on_c, 7, 74, 96
9, 60416, Note_off_c, 7, 71, 0
9, 60416, Note_on_c, 7, 66, 96
9, 60416, Note_off_c, 7, 66, 0
9, 60416, Note_on_c, 7, 59, 96
9, 61440, Note_off_c, 7, 74, 0
9, 61440, Note_off_c, 7, 66, 0
9, 61440, Note_off_c, 7, 59, 0
9, 61440, Note_on_c, 7, 73, 96
9, 61440, Note_on_c, 7, 64, 96
9, 61440, Note_on_c, 7, 55, 96
9, 62464, Note_off_c, 7, 73, 0
9, 62464, Note_on_c, 7, 74, 96
9, 62464, Note_off_c, 7, 64, 0
9, 62464, Note_on_c, 7, 66, 96
9, 62464, Note_off_c, 7, 55, 0
9, 62464, Note_on_c, 7, 57, 96
9, 62976, Note_off_c, 7, 57, 0
9, 62976, Note_on_c, 7, 62, 96
9, 63488, Note_off_c, 7, 74, 0
9, 63488, Note_on_c, 7, 76, 96
9, 63488, Note_off_c, 7, 66, 0
9, 63488, Note_on_c, 7, 67, 96
9, 63488, Note_off_c, 7, 62, 0
9, 63488, Note_on_c, 7, 62, 96
9, 64000, Note_off_c, 7, 67, 0
9, 64000, Note_on_c, 7, 69, 96
9, 64256, Note_off_c, 7, 69, 0
9, 64256, Note_on_c, 7, 71, 96
9, 64512, Note_off_c, 7, 76, 0
9, 64512, Note_on_c, 7, 76, 96
9, 64512, Note_off_c, 7, 71, 0
9, 64512, Note_on_c, 7, 69, 96
9, 64512, Note_off_c, 7, 62, 0
9, 64512, Note_on_c, 7, 61, 96
9, 65024, Note_off_c, 7, 69, 0
9, 65024, Note_on_c, 7, 64, 96
9, 65536, Note_off_c, 7, 76, 0
9, 65536, Note_off_c, 7, 64, 0
9, 65536, Note_off_c, 7, 61, 0
9, 65536, Note_on_c, 7, 74, 96
9, 65536, Note_on_c, 7, 66, 96
9, 65536, Note_on_c, 7, 57, 96
9, 68608, Note_off_c, 7, 74, 0
9, 68608, Note_on_c, 7, 73, 96
9, 68608, Note_off_c, 7, 66, 0
9, 68608, Note_on_c, 7, 64, 96
9, 68608, Note_off_c, 7, 57, 0
9, 68608, Note_on_c, 7, 57, 96
9, 69632, Note_off_c, 7, 73, 0
9, 69632, Note_off_c, 7, 64, 0
9, 69632, Note_off_c, 7, 57, 0
9, 69632, Note_on_c, 7, 73, 96
9, 69632, Note_on_c, 7, 69, 96
9, 69632, Note_on_c, 7, 64, 96
9, 70656, Note_off_c, 7, 73, 0
9, 70656, Note_on_c, 7, 73, 96
9, 70656, Note_off_c, 7, 69, 0
9, 70656, Note_on_c, 7, 69, 96
9, 70656, Note_off_c, 7, 64, 0
9, 70656, Note_on_c, 7, 64, 96
9, 71680, Note_off_c, 7, 73, 0
9, 71680, Note_on_c, 7, 73, 96
9, 71680, Note_off_c, 7, 69, 0
9, 71680, Note_on_c, 7, 69, 96
9, 71680, Note_off_c, 7, 64, 0
9, 71680, Note_on_c, 7, 66, 96
9, 72704, Note_off_c, 7, 73, 0
9, 72704, Note_on_c, 7, 73, 96
9, 72704, Note_off_c, 7, 69, 0
9, 72704, Note_on_c, 7, 69, 96
9, 72704, Note_off_c, 7, 66, 0
9, 72704, Note_on_c, 7, 67, 96
9, 73216, Note_off_c, 7, 67, 0
9, 73216, Note_on_c, 7, 64, 96
9, 73728, Note_off_c, 7, 73, 0
9, 73728, Note_off_c, 7, 69, 0
9, 73728, Note_off_c, 7, 64, 0
9, 73728, Note_on_c, 7, 74, 96
9, 73728, Note_on_c, 7, 69, 96
9, 73728, Note_on_c, 7, 66, 96
9, 75776, Note_off_c, 7, 74, 0
9, 75776, Note_on_c, 7, 74, 96
9, 75776, Note_off_c, 7, 69, 0
9, 75776, Note_on_c, 7, 69, 96
9, 75776, Note_off_c, 7, 66, 0
9, 75776, Note_on_c, 7, 66, 96
9, 76800, Note_off_c, 7, 74, 0
9, 76800, Note_on_c, 7, 73, 96
9, 76800, Note_off_c, 7, 69, 0
9, 76800, Note_on_c, 7, 64, 96
9, 76800, Note_off_c, 7, 66, 0
9, 76800, Note_on_c, 7, 57, 96
9, 77824, Note_off_c, 7, 73, 0
9, 77824, Note_off_c, 7, 64, 0
9, 77824, Note_off_c, 7, 57, 0
9, 77824, Note_on_c, 7, 73, 96
9, 77824, Note_on_c, 7, 69, 96
9, 77824, Note_on_c, 7, 64, 96
9, 78848, Note_off_c, 7, 73, 0
9, 78848, Note_on_c, 7, 73, 96
9, 78848, Note_off_c, 7, 69, 0
9, 78848, Note_on_c, 7, 69, 96
9, 78848, Note_off_c, 7, 64, 0
9, 78848, Note_on_c, 7, 64, 96
9, 79872, Note_off_c, 7, 73, 0
9, 79872, Note_on_c, 7, 73, 96
9, 79872, Note_off_c, 7, 69, 0
9, 79872, Note_on_c, 7, 69, 96
9, 79872, Note_off_c, 7, 64, 0
9, 79872, Note_on_c, 7, 66, 96
9, 80896, Note_off_c, 7, 73, 0
9, 80896, Note_on_c, 7, 73, 96
9, 80896, Note_off_c, 7, 69, 0
9, 80896, Note_on_c, 7, 69, 96
9, 80896, Note_off_c, 7, 66, 0
9, 80896, Note_on_c, 7, 67, 96
9, 81408, Note_off_c, 7, 67, 0
9, 81408, Note_on_c, 7, 64, 96
9, 81920, Note_off_c, 7, 73, 0
9, 81920, Note_off_c, 7, 69, 0
9, 81920, Note_off_c, 7, 64, 0
9, 81920, Note_on_c, 7, 74, 96
9, 81920, Note_on_c, 7, 69, 96
9, 81920, Note_on_c, 7, 66, 96
9, 83968, Note_off_c, 7, 74, 0
9, 83968, Note_on_c, 7, 74, 96
9, 83968, Note_off_c, 7, 69, 0
9, 83968, Note_on_c, 7, 69, 96
9, 83968, Note_off_c, 7, 66, 0
9, 83968, Note_on_c, 7, 66, 96
9, 84992, Note_off_c, 7, 74, 0
9, 84992, Note_on_c, 7, 78, 96
9, 84992, Note_off_c, 7, 69, 0
9, 84992, Note_on_c, 7, 69, 96
9, 84992, Note_off_c, 7, 66, 0
9, 84992, Note_on_c, 7, 62, 96
9, 86016, Note_off_c, 7, 78, 0
9, 86016, Note_off_c, 7, 69, 0
9, 86016, Note_off_c, 7, 62, 0
9, 86016, Note_on_c, 7, 78, 96
9, 86016, Note_on_c, 7, 69, 96
9, 86016, Note_on_c, 7, 62, 96
9, 87040, Note_off_c, 7, 78, 0
9, 87040, Note_on_c, 7, 74, 96
9, 87040, Note_off_c, 7, 69, 0
9, 87040, Note_on_c, 7, 66, 96
9, 87040, Note_off_c, 7, 62, 0
9, 87040, Note_on_c, 7, 57, 96
9, 88064, Note_off_c, 7, 74, 0
9, 88064, Note_on_c, 7, 76, 96
9, 88064, Note_off_c, 7, 66, 0
9, 88064, Note_on_c, 7, 67, 96
9, 88064, Note_off_c, 7, 57, 0
9, 88064, Note_on_c, 7, 59, 96
9, 89088, Note_off_c, 7, 76, 0
9, 89088, Note_on_c, 7, 78, 96
9, 89088, Note_off_c, 7, 67, 0
9, 89088, Note_on_c, 7, 69, 96
9, 89088, Note_off_c, 7, 59, 0
9, 89088, Note_on_c, 7, 60, 96
9, 90112, Note_off_c, 7, 78, 0
9, 90112, Note_off_c, 7, 69, 0
9, 90112, Note_off_c, 7, 60, 0
9, 90112, Note_on_c, 7, 79, 96
9, 90112, Note_on_c, 7, 67, 96
9, 90112, Note_on_c, 7, 62, 96
9, 91136, Note_off_c, 7, 67, 0
9, 91136, Note_on_c, 7, 69, 96
9, 91136, Note_off_c, 7, 62, 0
9, 91136, Note_on_c, 7, 57, 96
9, 92160, Note_off_c, 7, 79, 0
9, 92160, Note_on_c, 7, 78, 96
9, 92160, Note_off_c, 7, 69, 0
9, 92160, Note_on_c, 7, 69, 96
9, 92160, Note_off_c, 7, 57, 0
9, 92160, Note_on_c, 7, 62, 96
9, 93184, Note_off_c, 7, 78, 0
9, 93184, Note_on_c, 7, 78, 96
9, 93184, Note_off_c, 7, 69, 0
9, 93184, Note_on_c, 7, 71, 96
9, 93184, Note_off_c, 7, 62, 0
9, 93184, Note_on_c, 7, 66, 96
9, 94208, Note_off_c, 7, 78, 0
9, 94208, Note_off_c, 7, 71, 0
9, 94208, Note_off_c, 7, 66, 0
9, 94208, Note_on_c, 7, 76, 96
9, 94208, Note_on_c, 7, 67, 96
9, 94208, Note_on_c, 7, 59, 96
9, 95232, Note_off_c, 7, 76, 0
9, 95232, Note_on_c, 7, 78, 96
9, 95232, Note_off_c, 7, 67, 0
9, 95232, Note_on_c, 7, 69, 96
9, 95232, Note_off_c, 7, 59, 0
9, 95232, Note_on_c, 7, 60, 96
9, 96256, Note_off_c, 7, 78, 0
9, 96256, Note_on_c, 7, 75, 96
9, 96256, Note_off_c, 7, 69, 0
9, 96256, Note_on_c, 7, 66, 96
9, 96256, Note_off_c, 7, 60, 0
9, 96256, Note_on_c, 7, 59, 96
9, 97280, Note_off_c, 7, 75, 0
9, 97280, Note_on_c, 7, 75, 96
9, 97280, Note_off_c, 7, 66, 0
9, 97280, Note_on_c, 7, 66, 96
9, 97280, Note_off_c, 7, 59, 0
9, 97280, Note_on_c, 7, 59, 96
9, 98304, Note_off_c, 7, 75, 0
9, 98304, Note_off_c, 7, 66, 0
9, 98304, Note_off_c, 7, 59, 0
9, 98304, Note_on_c, 7, 76, 96
9, 98304, Note_on_c, 7, 67, 96
9, 98304, Note_on_c, 7, 59, 96
9, 101376, Note_off_c, 7, 76, 0
9, 101376, Note_on_c, 7, 78, 96
9, 101376, Note_off_c, 7, 67, 0
9, 101376, Note_on_c, 7, 69, 96
9, 101376, Note_off_c, 7, 59, 0
9, 101376, Note_on_c, 7, 62, 96
9, 102400, Note_off_c, 7, 78, 0
9, 102400, Note_off_c, 7, 69, 0
9, 102400, Note_off_c, 7, 62, 0
9, 102400, Note_on_c, 7, 78, 96
9, 102400, Note_on_c, 7, 69, 96
9, 102400, Note_on_c, 7, 62, 96
9, 103424, Note_off_c, 7, 78, 0
9, 103424, Note_on_c, 7, 74, 96
9, 103424, Note_off_c, 7, 69, 0
9, 103424, Note_on_c, 7, 66, 96
9, 103424, Note_off_c, 7, 62, 0
9, 103424, Note_on_c, 7, 57, 96
9, 104448, Note_off_c, 7, 74, 0
9, 104448, Note_on_c, 7, 76, 96
9, 104448, Note_off_c, 7, 66, 0
9, 104448, Note_on_c, 7, 67, 96
9, 104448, Note_off_c, 7, 57, 0
9, 104448, Note_on_c, 7, 59, 96
9, 105472, Note_off_c, 7, 76, 0
9, 105472, Note_on_c, 7, 78, 96
9, 105472, Note_off_c, 7, 67, 0
9, 105472, Note_on_c, 7, 69, 96
9, 105472, Note_off_c, 7, 59, 0
9, 105472, Note_on_c, 7, 60, 96
9, 106496, Note_off_c, 7, 78, 0
9, 106496, Note_off_c, 7, 69, 0
9, 106496, Note_off_c, 7, 60, 0
9, 106496, Note_on_c, 7, 79, 96
9, 106496, Note_on_c, 7, 67, 96
9, 106496, Note_on_c, 7, 62, 96
9, 107520, Note_off_c, 7, 67, 0
9, 107520, Note_on_c, 7, 69, 96
9, 107520, Note_off_c, 7, 62, 0
9, 107520, Note_on_c, 7, 57, 96
9, 108544, Note_off_c, 7, 79, 0
9, 108544, Note_on_c, 7, 78, 96
9, 108544, Note_off_c, 7, 69, 0
9, 108544, Note_on_c, 7, 69, 96
9, 108544, Note_off_c, 7, 57, 0
9, 108544, Note_on_c, 7, 62, 96
9, 109568, Note_off_c, 7, 78, 0
9, 109568, Note_on_c, 7, 78, 96
9, 109568, Note_off_c, 7, 69, 0
9, 109568, Note_on_c, 7, 71, 96
9, 109568, Note_off_c, 7, 62, 0
9, 109568, Note_on_c, 7, 66, 96
9, 110592, Note_off_c, 7, 78, 0
9, 110592, Note_off_c, 7, 71, 0
9, 110592, Note_off_c, 7, 66, 0
9, 110592, Note_on_c, 7, 76, 96
9, 110592, Note_on_c, 7, 67, 96
9, 110592, Note_on_c, 7, 59, 96
9, 111616, Note_off_c, 7, 76, 0
9, 111616, Note_on_c, 7, 78, 96
9, 111616, Note_off_c, 7, 67, 0
9, 111616, Note_on_c, 7, 69, 96
9, 111616, Note_off_c, 7, 59, 0
9, 111616, Note_on_c, 7, 60, 96
9, 112640, Note_off_c, 7, 78, 0
9, 112640, Note_on_c, 7, 75, 96
9, 112640, Note_off_c, 7, 69, 0
9, 112640, Note_on_c, 7, 66, 96
9, 112640, Note_off_c, 7, 60, 0
9, 112640, Note_on_c, 7, 59, 96
9, 113664, Note_off_c, 7, 75, 0
9, 113664, Note_on_c, 7, 75, 96
9, 113664, Note_off_c, 7, 66, 0
9, 113664, Note_on_c, 7, 66, 96
9, 113664, Note_off_c, 7, 59, 0
9, 113664, Note_on_c, 7, 59, 96
9, 114688, Note_off_c, 7, 75, 0
9, 114688, Note_off_c, 7, 66, 0
9, 114688, Note_off_c, 7, 59, 0
9, 114688, Note_on_c, 7, 76, 96
9, 114688, Note_on_c, 7, 67, 96
9, 114688, Note_on_c, 7, 59, 96
9, 117760, Note_off_c, 7, 76, 0
9, 117760, Note_on_c, 7, 78, 96
9, 117760, Note_off_c, 7, 67, 0
9, 117760, Note_on_c, 7, 66, 96
9, 117760, Note_off_c, 7, 59, 0
9, 117760, Note_on_c, 7, 61, 96
9, 118784, Note_off_c, 7, 78, 0
9, 118784, Note_off_c, 7, 66, 0
9, 118784, Note_off_c, 7, 61, 0
9, 118784, Note_on_c, 7, 78, 96
9, 118784, Note_on_c, 7, 66, 96
9, 118784, Note_on_c, 7, 62, 96
9, 119808, Note_off_c, 7, 78, 0
9, 119808, Note_on_c, 7, 74, 96
9, 119808, Note_off_c, 7, 66, 0
9, 119808, Note_on_c, 7, 66, 96
9, 119808, Note_off_c, 7, 62, 0
9, 119808, Note_on_c, 7, 66, 96
9, 120832, Note_off_c, 7, 74, 0
9, 120832, Note_on_c, 7, 76, 96
9, 120832, Note_off_c, 7, 66, 0
9, 120832, Note_on_c, 7, 64, 96
9, 120832, Note_off_c, 7, 66, 0
9, 120832, Note_on_c, 7, 59, 96
9, 121856, Note_off_c, 7, 76, 0
9, 121856, Note_on_c, 7, 78, 96
9, 121856, Note_off_c, 7, 64, 0
9, 121856, Note_on_c, 7, 63, 96
9, 121856, Note_off_c, 7, 59, 0
9, 121856, Note_on_c, 7, 57, 96
9, 122880, Note_off_c, 7, 78, 0
9, 122880, Note_off_c, 7, 63, 0
9, 122880, Note_off_c, 7, 57, 0
9, 122880, Note_on_c, 7, 79, 96
9, 122880, Note_on_c, 7, 64, 96
9, 122880, Note_on_c, 7, 59, 96
9, 123904, Note_off_c, 7, 64, 0
9, 123904, Note_on_c, 7, 66, 96
9, 124928, Note_off_c, 7, 79, 0
9, 124928, Note_on_c, 7, 76, 96
9, 124928, Note_off_c, 7, 66, 0
9, 124928, Note_on_c, 7, 67, 96
9, 124928, Note_off_c, 7, 59, 0
9, 124928, Note_on_c, 7, 58, 96
9, 125952, Note_off_c, 7, 76, 0
9, 125952, Note_on_c, 7, 76, 96
9, 125952, Note_off_c, 7, 67, 0
9, 125952, Note_on_c, 7, 67, 96
9, 125952, Note_off_c, 7, 58, 0
9, 125952, Note_on_c, 7, 59, 96
9, 126976, Note_off_c, 7, 76, 0
9, 126976, Note_off_c, 7, 67, 0
9, 126976, Note_off_c, 7, 59, 0
9, 126976, Note_on_c, 7, 76, 96
9, 126976, Note_on_c, 7, 66, 96
9, 126976, Note_on_c, 7, 61, 96
9, 128000, Note_off_c, 7, 76, 0
9, 128000, Note_on_c, 7, 74, 96
9, 128000, Note_off_c, 7, 66, 0
9, 128000, Note_on_c, 7, 66, 96
9, 128000, Note_off_c, 7, 61, 0
9, 128000, Note_on_c, 7, 59, 96
9, 129024, Note_off_c, 7, 74, 0
9, 129024, Note_on_c, 7, 74, 96
9, 129024, Note_off_c, 7, 66, 0
9, 129024, Note_on_c, 7, 64, 96
9, 129024, Note_off_c, 7, 59, 0
9, 129024, Note_on_c, 7, 59, 96
9, 130048, Note_off_c, 7, 74, 0
9, 130048, Note_on_c, 7, 73, 96
9, 130048, Note_off_c, 7, 64, 0
9, 130048, Note_on_c, 7, 64, 96
9, 130048, Note_off_c, 7, 59, 0
9, 130048, Note_on_c, 7, 57, 96
9, 131072, Note_off_c, 7, 73, 0
9, 131072, Note_off_c, 7, 64, 0
9, 131072, Note_off_c, 7, 57, 0
9, 131072, Note_on_c, 7, 74, 96
9, 131072, Note_on_c, 7, 66, 96
9, 131072, Note_on_c, 7, 57, 96
9, 135168, Note_off_c, 7, 74, 0
9, 135168, Note_off_c, 7, 66, 0
9, 135168, Note_off_c, 7, 57, 0
9, 135168, End_track
10, 0, Start_track
10, 0, Title_t, "Instrument 9"
10, 14848, Note_on_c, 8, 50, 96
10, 15104, Note_off_c, 8, 50, 0
10, 15104, Note_on_c, 8, 50, 96
10, 15360, Note_off_c, 8, 50, 0
10, 15360, Note_on_c, 8, 45, 96
10, 15872, Note_off_c, 8, 45, 0
10, 15872, Note_on_c, 8, 45, 96
10, 16384, Note_off_c, 8, 45, 0
10, 16384, Note_on_c, 8, 50, 96
10, 16896, Note_off_c, 8, 50, 0
10, 16896, Note_on_c, 8, 50, 96
10, 17152, Note_off_c, 8, 50, 0
10, 17152, Note_on_c, 8, 50, 96
10, 17408, Note_off_c, 8, 50, 0
10, 17408, Note_on_c, 8, 50, 96
10, 17664, Note_off_c, 8, 50, 0
10, 17664, Note_on_c, 8, 50, 96
10, 17920, Note_off_c, 8, 50, 0
10, 17920, Note_on_c, 8, 50, 96
10, 18176, Note_off_c, 8, 50, 0
10, 18176, Note_on_c, 8, 50, 96
10, 18432, Note_off_c, 8, 50, 0
10, 18432, Note_on_c, 8, 50, 96
10, 19456, Note_off_c, 8, 50, 0
10, 31232, Note_on_c, 8, 45, 96
10, 31488, Note_off_c, 8, 45, 0
10, 31488, Note_on_c, 8, 45, 96
10, 31744, Note_off_c, 8, 45, 0
10, 31744, Note_on_c, 8, 45, 96
10, 32256, Note_off_c, 8, 45, 0
10, 32256, Note_on_c, 8, 45, 96
10, 32768, Note_off_c, 8, 45, 0
10, 32768, Note_on_c, 8, 50, 96
10, 33280, Note_off_c, 8, 50, 0
10, 33280, Note_on_c, 8, 50, 96
10, 33536, Note_off_c, 8, 50, 0
10, 33536, Note_on_c, 8, 50, 96
10, 33792, Note_off_c, 8, 50, 0
10, 33792, Note_on_c, 8, 50, 96
10, 34048, Note_off_c, 8, 50, 0
10, 34048, Note_on_c, 8, 50, 96
10, 34304, Note_off_c, 8, 50, 0
10, 34304, Note_on_c, 8, 50, 96
10, 34560, Note_off_c, 8, 50, 0
10, 34560, Note_on_c, 8, 50, 96
10, 34816, Note_off_c, 8, 50, 0
10, 34816, Note_on_c, 8, 50, 96
10, 35840, Note_off_c, 8, 50, 0
10, 47616, Note_on_c, 8, 50, 96
10, 47872, Note_off_c, 8, 50, 0
10, 47872, Note_on_c, 8, 50, 96
10, 48128, Note_off_c, 8, 50, 0
10, 48128, Note_on_c, 8, 45, 96
10, 48640, Note_off_c, 8, 45, 0
10, 48640, Note_on_c, 8, 45, 96
10, 49152, Note_off_c, 8, 45, 0
10, 49152, Note_on_c, 8, 50, 96
10, 49664, Note_off_c, 8, 50, 0
10, 49664, Note_on_c, 8, 50, 96
10, 49920, Note_off_c, 8, 50, 0
10, 49920, Note_on_c, 8, 50, 96
10, 50176, Note_off_c, 8, 50, 0
10, 50176, Note_on_c, 8, 50, 96
10, 50432, Note_off_c, 8, 50, 0
10, 50432, Note_on_c, 8, 50, 96
10, 50688, Note_off_c, 8, 50, 0
10, 50688, Note_on_c, 8, 50, 96
10, 50944, Note_off_c, 8, 50, 0
10, 50944, Note_on_c, 8, 50, 96
10, 51200, Note_off_c, 8, 50, 0
10, 51200, Note_on_c, 8, 50, 96
10, 52224, Note_off_c, 8, 50, 0
10, 64000, Note_on_c, 8, 45, 96
10, 64256, Note_off_c, 8, 45, 0
10, 64256, Note_on_c, 8, 45, 96
10, 64512, Note_off_c, 8, 45, 0
10, 64512, Note_on_c, 8, 45, 96
10, 65024, Note_off_c, 8, 45, 0
10, 65024, Note_on_c, 8, 45, 96
10, 65536, Note_off_c, 8, 45, 0
10, 65536, Note_on_c, 8, 50, 96
10, 66048, Note_off_c, 8, 50, 0
10, 66048, Note_on_c, 8, 50, 96
10, 66304, Note_off_c, 8, 50, 0
10, 66304, Note_on_c, 8, 50, 96
10, 66560, Note_off_c, 8, 50, 0
10, 66560, Note_on_c, 8, 50, 96
10, 66816, Note_off_c, 8, 50, 0
10, 66816, Note_on_c, 8, 50, 96
10, 67072, Note_off_c, 8, 50, 0
10, 67072, Note_on_c, 8, 50, 96
10, 67328, Note_off_c, 8, 50, 0
10, 67328, Note_on_c, 8, 50, 96
10, 67584, Note_off_c, 8, 50, 0
10, 67584, Note_on_c, 8, 50, 96
10, 68608, Note_off_c, 8, 50, 0
10, 72192, Note_on_c, 8, 45, 96
10, 72448, Note_off_c, 8, 45, 0
10, 72448, Note_on_c, 8, 45, 96
10, 72704, Note_off_c, 8, 45, 0
10, 72704, Note_on_c, 8, 45, 96
10, 73216, Note_off_c, 8, 45, 0
10, 73216, Note_on_c, 8, 45, 96
10, 73728, Note_off_c, 8, 45, 0
10, 73728, Note_on_c, 8, 50, 96
10, 74240, Note_off_c, 8, 50, 0
10, 74240, Note_on_c, 8, 50, 96
10, 74496, Note_off_c, 8, 50, 0
10, 74496, Note_on_c, 8, 50, 96
10, 74752, Note_off_c, 8, 50, 0
10, 74752, Note_on_c, 8, 50, 96
10, 75008, Note_off_c, 8, 50, 0
10, 75008, Note_on_c, 8, 50, 96
10, 75264, Note_off_c, 8, 50, 0
10, 75264, Note_on_c, 8, 50, 96
10, 75520, Note_off_c, 8, 50, 0
10, 75520, Note_on_c, 8, 50, 96
10, 75776, Note_off_c, 8, 50, 0
10, 75776, Note_on_c, 8, 50, 96
10, 76800, Note_off_c, 8, 50, 0
10, 80384, Note_on_c, 8, 45, 96
10, 80640, Note_off_c, 8, 45, 0
10, 80640, Note_on_c, 8, 45, 96
10, 80896, Note_off_c, 8, 45, 0
10, 80896, Note_on_c, 8, 45, 96
10, 81408, Note_off_c, 8, 45, 0
10, 81408, Note_on_c, 8, 45, 96
10, 81920, Note_off_c, 8, 45, 0
10, 81920, Note_on_c, 8, 50, 96
10, 82432, Note_off_c, 8, 50, 0
10, 82432, Note_on_c, 8, 50, 96
10, 82688, Note_off_c, 8, 50, 0
10, 82688, Note_on_c, 8, 50, 96
10, 82944, Note_off_c, 8, 50, 0
10, 82944, Note_on_c, 8, 50, 96
10, 83200, Note_off_c, 8, 50, 0
10, 83200, Note_on_c, 8, 50, 96
10, 83456, Note_off_c, 8, 50, 0
10, 83456, Note_on_c, 8, 50, 96
10, 83712, Note_off_c, 8, 50, 0
10, 83712, Note_on_c, 8, 50, 96
10, 83968, Note_off_c, 8, 50, 0
10, 83968, Note_on_c, 8, 50, 96
10, 84992, Note_off_c, 8, 50, 0
10, 129536, Note_on_c, 8, 50, 96
10, 129792, Note_off_c, 8, 50, 0
10, 129792, Note_on_c, 8, 50, 96
10, 130048, Note_off_c, 8, 50, 0
10, 130048, Note_on_c, 8, 45, 96
10, 130560, Note_off_c, 8, 45, 0
10, 130560, Note_on_c, 8, 45, 96
10, 131072, Note_off_c, 8, 45, 0
10, 131072, Note_on_c, 8, 50, 96
10, 131584, Note_off_c, 8, 50, 0
10, 131584, Note_on_c, 8, 50, 96
10, 131840, Note_off_c, 8, 50, 0
10, 131840, Note_on_c, 8, 50, 96
10, 132096, Note_off_c, 8, 50, 0
10, 132096, Note_on_c, 8, 50, 96
10, 132352, Note_off_c, 8, 50, 0
10, 132352, Note_on_c, 8, 50, 96
10, 132608, Note_off_c, 8, 50, 0
10, 132608, Note_on_c, 8, 50, 96
10, 132864, Note_off_c, 8, 50, 0
10, 132864, Note_on_c, 8, 50, 96
10, 133120, Note_off_c, 8, 50, 0
10, 133120, Note_on_c, 8, 50, 96
10, 135168, Note_off_c, 8, 50, 0
10, 135168, End_track
0, 0, End_of_file
