0, 0, Header, 1, 14, 240
1, 0, Start_track
1, 0, Sequencer_specific, 10, 0, 0, 91, 35, 1, 0, 5, 6, 42, 0
1, 0, Title_t, "J. S. Bach - Orchestral Suite No.1 in C Major"
1, 0, Instrument_name_t, "Conductor Track"
1, 0, SMPTE_offset, 96, 0, 3, 0, 0
1, 0, MIDI_port, 0
1, 0, Marker_t, "Originally Sequenced 14 Aug 1999"
1, 0, Tempo, 571428
1, 0, Key_signature, 0, "major"
1, 0, Time_signature, 3, 2, 24, 8
1, 33120, Tempo, 571428
1, 33180, Tempo, 576923
1, 33240, Tempo, 582524
1, 33300, Tempo, 594059
1, 33360, Tempo, 600000
1, 33420, Tempo, 606060
1, 33480, Tempo, 612244
1, 33540, Tempo, 625000
1, 33600, Tempo, 631578
1, 33660, Tempo, 638297
1, 33720, Tempo, 645161
1, 33780, Tempo, 659340
1, 33840, Tempo, 666666
1, 33840, Time_signature, 4, 2, 24, 8
1, 34560, Tempo, 3000000
1, 34800, Tempo, 571428
1, 34800, Time_signature, 3, 2, 24, 8
1, 67920, Tempo, 571428
1, 67980, Tempo, 576923
1, 68040, Tempo, 582524
1, 68100, Tempo, 594059
1, 68160, Tempo, 600000
1, 68220, Tempo, 606060
1, 68280, Tempo, 612244
1, 68340, Tempo, 625000
1, 68400, Tempo, 631578
1, 68460, Tempo, 638297
1, 68520, Tempo, 645161
1, 68580, Tempo, 659340
1, 68640, Time_signature, 4, 2, 24, 8
1, 68640, Tempo, 666666
1, 69360, Tempo, 3000000
1, 69600, Tempo, 571428
1, 69600, Time_signature, 3, 2, 24, 8
1, 102720, Tempo, 571428
1, 102780, Tempo, 576923
1, 102840, Tempo, 582524
1, 102900, Tempo, 594059
1, 102960, Tempo, 600000
1, 103020, Tempo, 606060
1, 103080, Tempo, 612244
1, 103140, Tempo, 625000
1, 103200, Tempo, 631578
1, 103260, Tempo, 638297
1, 103320, Tempo, 645161
1, 103380, Tempo, 659340
1, 103440, Tempo, 666666
1, 104160, Tempo, 1000000
1, 105360, Tempo, 600000
1, 105360, End_track
2, 0, Start_track
2, 0, Title_t, "5th Movement - Menuet"
2, 0, MIDI_port, 0
2, 0, End_track
3, 0, Start_track
3, 0, Title_t, "Sequenced by D. L. Viens 30 Dec 1999"
3, 0, MIDI_port, 0
3, 0, End_track
4, 0, Start_track
4, 0, Title_t, "dlviens@empire.net"
4, 0, MIDI_port, 0
4, 0, End_track
5, 0, Start_track
5, 0, MIDI_port, 0
5, 0, End_track
6, 0, Start_track
6, 0, Title_t, "Oboe I"
6, 0, MIDI_port, 0
6, 0, Program_c, 0, 68
6, 0, Control_c, 0, 10, 55
6, 0, Control_c, 0, 11, 127
6, 0, Control_c, 0, 7, 80
6, 0, Note_on_c, 0, 72, 76
6, 224, Note_on_c, 0, 72, 0
6, 240, Note_on_c, 0, 76, 76
6, 344, Note_on_c, 0, 76, 0
6, 360, Note_on_c, 0, 72, 76
6, 464, Note_on_c, 0, 72, 0
6, 480, Note_on_c, 0, 79, 76
6, 704, Note_on_c, 0, 79, 0
6, 720, Note_on_c, 0, 81, 76
6, 944, Note_on_c, 0, 81, 0
6, 960, Note_on_c, 0, 77, 76
6, 1304, Note_on_c, 0, 77, 0
6, 1320, Note_on_c, 0, 76, 76
6, 1364, Note_on_c, 0, 76, 0
6, 1380, Note_on_c, 0, 77, 76
6, 1424, Note_on_c, 0, 77, 0
6, 1440, Note_on_c, 0, 79, 76
6, 1664, Note_on_c, 0, 79, 0
6, 1680, Note_on_c, 0, 76, 76
6, 1784, Note_on_c, 0, 76, 0
6, 1800, Note_on_c, 0, 72, 76
6, 1904, Note_on_c, 0, 72, 0
6, 1920, Note_on_c, 0, 77, 76
6, 2144, Note_on_c, 0, 77, 0
6, 2160, Note_on_c, 0, 74, 76
6, 2264, Note_on_c, 0, 74, 0
6, 2280, Note_on_c, 0, 72, 76
6, 2384, Note_on_c, 0, 72, 0
6, 2400, Note_on_c, 0, 74, 76
6, 2504, Note_on_c, 0, 74, 0
6, 2520, Note_on_c, 0, 76, 76
6, 2624, Note_on_c, 0, 76, 0
6, 2640, Note_on_c, 0, 77, 76
6, 2744, Note_on_c, 0, 77, 0
6, 2760, Note_on_c, 0, 74, 76
6, 2864, Note_on_c, 0, 74, 0
6, 2880, Note_on_c, 0, 76, 76
6, 3104, Note_on_c, 0, 76, 0
6, 3120, Note_on_c, 0, 79, 76
6, 3224, Note_on_c, 0, 79, 0
6, 3240, Note_on_c, 0, 76, 76
6, 3344, Note_on_c, 0, 76, 0
6, 3360, Note_on_c, 0, 84, 76
6, 3554, Note_on_c, 0, 84, 0
6, 3570, Note_on_c, 0, 79, 76
6, 3599, Note_on_c, 0, 79, 0
6, 3600, Note_on_c, 0, 78, 76
6, 3824, Note_on_c, 0, 78, 0
6, 3840, Note_on_c, 0, 76, 76
6, 3959, Note_on_c, 0, 76, 0
6, 3960, Note_on_c, 0, 74, 76
6, 4064, Note_on_c, 0, 74, 0
6, 4080, Note_on_c, 0, 72, 76
6, 4199, Note_on_c, 0, 72, 0
6, 4200, Note_on_c, 0, 71, 76
6, 4304, Note_on_c, 0, 71, 0
6, 4320, Note_on_c, 0, 76, 76
6, 4544, Note_on_c, 0, 76, 0
6, 4560, Note_on_c, 0, 69, 76
6, 4904, Note_on_c, 0, 69, 0
6, 4920, Note_on_c, 0, 67, 76
6, 5024, Note_on_c, 0, 67, 0
6, 5040, Note_on_c, 0, 67, 76
6, 5744, Note_on_c, 0, 67, 0
6, 5760, Note_on_c, 0, 72, 76
6, 5984, Note_on_c, 0, 72, 0
6, 6000, Note_on_c, 0, 76, 76
6, 6104, Note_on_c, 0, 76, 0
6, 6120, Note_on_c, 0, 72, 76
6, 6224, Note_on_c, 0, 72, 0
6, 6240, Note_on_c, 0, 79, 76
6, 6464, Note_on_c, 0, 79, 0
6, 6480, Note_on_c, 0, 81, 76
6, 6704, Note_on_c, 0, 81, 0
6, 6720, Note_on_c, 0, 77, 76
6, 7064, Note_on_c, 0, 77, 0
6, 7080, Note_on_c, 0, 76, 76
6, 7124, Note_on_c, 0, 76, 0
6, 7140, Note_on_c, 0, 77, 76
6, 7184, Note_on_c, 0, 77, 0
6, 7200, Note_on_c, 0, 79, 76
6, 7424, Note_on_c, 0, 79, 0
6, 7440, Note_on_c, 0, 76, 76
6, 7544, Note_on_c, 0, 76, 0
6, 7560, Note_on_c, 0, 72, 76
6, 7664, Note_on_c, 0, 72, 0
6, 7680, Note_on_c, 0, 77, 76
6, 7904, Note_on_c, 0, 77, 0
6, 7920, Note_on_c, 0, 74, 76
6, 8024, Note_on_c, 0, 74, 0
6, 8040, Note_on_c, 0, 72, 76
6, 8144, Note_on_c, 0, 72, 0
6, 8160, Note_on_c, 0, 74, 76
6, 8264, Note_on_c, 0, 74, 0
6, 8280, Note_on_c, 0, 76, 76
6, 8384, Note_on_c, 0, 76, 0
6, 8400, Note_on_c, 0, 77, 76
6, 8504, Note_on_c, 0, 77, 0
6, 8520, Note_on_c, 0, 74, 76
6, 8624, Note_on_c, 0, 74, 0
6, 8640, Note_on_c, 0, 76, 76
6, 8864, Note_on_c, 0, 76, 0
6, 8880, Note_on_c, 0, 79, 76
6, 8984, Note_on_c, 0, 79, 0
6, 9000, Note_on_c, 0, 76, 76
6, 9104, Note_on_c, 0, 76, 0
6, 9120, Note_on_c, 0, 84, 76
6, 9314, Note_on_c, 0, 84, 0
6, 9330, Note_on_c, 0, 79, 76
6, 9359, Note_on_c, 0, 79, 0
6, 9360, Note_on_c, 0, 78, 76
6, 9584, Note_on_c, 0, 78, 0
6, 9600, Note_on_c, 0, 76, 76
6, 9719, Note_on_c, 0, 76, 0
6, 9720, Note_on_c, 0, 74, 76
6, 9824, Note_on_c, 0, 74, 0
6, 9840, Note_on_c, 0, 72, 76
6, 9959, Note_on_c, 0, 72, 0
6, 9960, Note_on_c, 0, 71, 76
6, 10064, Note_on_c, 0, 71, 0
6, 10080, Note_on_c, 0, 76, 76
6, 10304, Note_on_c, 0, 76, 0
6, 10320, Note_on_c, 0, 69, 76
6, 10664, Note_on_c, 0, 69, 0
6, 10680, Note_on_c, 0, 67, 76
6, 10784, Note_on_c, 0, 67, 0
6, 10800, Note_on_c, 0, 67, 76
6, 11504, Note_on_c, 0, 67, 0
6, 11520, Note_on_c, 0, 67, 76
6, 11744, Note_on_c, 0, 67, 0
6, 11760, Note_on_c, 0, 71, 76
6, 11864, Note_on_c, 0, 71, 0
6, 11880, Note_on_c, 0, 67, 76
6, 11984, Note_on_c, 0, 67, 0
6, 12000, Note_on_c, 0, 74, 76
6, 12224, Note_on_c, 0, 74, 0
6, 12240, Note_on_c, 0, 77, 76
6, 12464, Note_on_c, 0, 77, 0
6, 12480, Note_on_c, 0, 74, 76
6, 12509, Note_on_c, 0, 74, 0
6, 12510, Note_on_c, 0, 76, 76
6, 12539, Note_on_c, 0, 76, 0
6, 12540, Note_on_c, 0, 74, 76
6, 12569, Note_on_c, 0, 74, 0
6, 12570, Note_on_c, 0, 76, 76
6, 12599, Note_on_c, 0, 76, 0
6, 12600, Note_on_c, 0, 74, 76
6, 12629, Note_on_c, 0, 74, 0
6, 12630, Note_on_c, 0, 76, 76
6, 12659, Note_on_c, 0, 76, 0
6, 12660, Note_on_c, 0, 74, 76
6, 12689, Note_on_c, 0, 74, 0
6, 12690, Note_on_c, 0, 76, 76
6, 12719, Note_on_c, 0, 76, 0
6, 12720, Note_on_c, 0, 74, 76
6, 12749, Note_on_c, 0, 74, 0
6, 12750, Note_on_c, 0, 76, 76
6, 12779, Note_on_c, 0, 76, 0
6, 12780, Note_on_c, 0, 74, 76
6, 12809, Note_on_c, 0, 74, 0
6, 12810, Note_on_c, 0, 76, 76
6, 12839, Note_on_c, 0, 76, 0
6, 12840, Note_on_c, 0, 72, 76
6, 12884, Note_on_c, 0, 72, 0
6, 12900, Note_on_c, 0, 74, 76
6, 12944, Note_on_c, 0, 74, 0
6, 12960, Note_on_c, 0, 76, 76
6, 13184, Note_on_c, 0, 76, 0
6, 13200, Note_on_c, 0, 72, 76
6, 13304, Note_on_c, 0, 72, 0
6, 13320, Note_on_c, 0, 69, 76
6, 13424, Note_on_c, 0, 69, 0
6, 13440, Note_on_c, 0, 81, 76
6, 13664, Note_on_c, 0, 81, 0
6, 13680, Note_on_c, 0, 80, 76
6, 13799, Note_on_c, 0, 80, 0
6, 13800, Note_on_c, 0, 81, 76
6, 13919, Note_on_c, 0, 81, 0
6, 13920, Note_on_c, 0, 83, 76
6, 14024, Note_on_c, 0, 83, 0
6, 14040, Note_on_c, 0, 80, 76
6, 14144, Note_on_c, 0, 80, 0
6, 14160, Note_on_c, 0, 76, 76
6, 14264, Note_on_c, 0, 76, 0
6, 14280, Note_on_c, 0, 74, 76
6, 14384, Note_on_c, 0, 74, 0
6, 14400, Note_on_c, 0, 72, 76
6, 14624, Note_on_c, 0, 72, 0
6, 14640, Note_on_c, 0, 76, 76
6, 14744, Note_on_c, 0, 76, 0
6, 14760, Note_on_c, 0, 72, 76
6, 14864, Note_on_c, 0, 72, 0
6, 14880, Note_on_c, 0, 81, 76
6, 15104, Note_on_c, 0, 81, 0
6, 15120, Note_on_c, 0, 71, 76
6, 15224, Note_on_c, 0, 71, 0
6, 15240, Note_on_c, 0, 72, 76
6, 15344, Note_on_c, 0, 72, 0
6, 15360, Note_on_c, 0, 74, 76
6, 15704, Note_on_c, 0, 74, 0
6, 15720, Note_on_c, 0, 77, 76
6, 15824, Note_on_c, 0, 77, 0
6, 15840, Note_on_c, 0, 76, 76
6, 16064, Note_on_c, 0, 76, 0
6, 16080, Note_on_c, 0, 74, 76
6, 16184, Note_on_c, 0, 74, 0
6, 16200, Note_on_c, 0, 72, 76
6, 16304, Note_on_c, 0, 72, 0
6, 16320, Note_on_c, 0, 71, 76
6, 16424, Note_on_c, 0, 71, 0
6, 16440, Note_on_c, 0, 72, 76
6, 16544, Note_on_c, 0, 72, 0
6, 16560, Note_on_c, 0, 69, 76
6, 17264, Note_on_c, 0, 69, 0
6, 17280, Note_on_c, 0, 67, 76
6, 17504, Note_on_c, 0, 67, 0
6, 17520, Note_on_c, 0, 72, 76
6, 17624, Note_on_c, 0, 72, 0
6, 17640, Note_on_c, 0, 67, 76
6, 17744, Note_on_c, 0, 67, 0
6, 17760, Note_on_c, 0, 76, 76
6, 17984, Note_on_c, 0, 76, 0
6, 18000, Note_on_c, 0, 69, 76
6, 18104, Note_on_c, 0, 69, 0
6, 18120, Note_on_c, 0, 71, 76
6, 18224, Note_on_c, 0, 71, 0
6, 18240, Note_on_c, 0, 71, 76
6, 18269, Note_on_c, 0, 71, 0
6, 18270, Note_on_c, 0, 72, 76
6, 18299, Note_on_c, 0, 72, 0
6, 18300, Note_on_c, 0, 71, 76
6, 18329, Note_on_c, 0, 71, 0
6, 18330, Note_on_c, 0, 72, 76
6, 18359, Note_on_c, 0, 72, 0
6, 18360, Note_on_c, 0, 71, 76
6, 18389, Note_on_c, 0, 71, 0
6, 18390, Note_on_c, 0, 72, 76
6, 18419, Note_on_c, 0, 72, 0
6, 18420, Note_on_c, 0, 71, 76
6, 18449, Note_on_c, 0, 71, 0
6, 18450, Note_on_c, 0, 72, 76
6, 18479, Note_on_c, 0, 72, 0
6, 18480, Note_on_c, 0, 71, 76
6, 18509, Note_on_c, 0, 71, 0
6, 18510, Note_on_c, 0, 72, 76
6, 18539, Note_on_c, 0, 72, 0
6, 18540, Note_on_c, 0, 71, 76
6, 18569, Note_on_c, 0, 71, 0
6, 18570, Note_on_c, 0, 72, 76
6, 18599, Note_on_c, 0, 72, 0
6, 18600, Note_on_c, 0, 69, 76
6, 18644, Note_on_c, 0, 69, 0
6, 18660, Note_on_c, 0, 71, 76
6, 18704, Note_on_c, 0, 71, 0
6, 18720, Note_on_c, 0, 72, 76
6, 18944, Note_on_c, 0, 72, 0
6, 18960, Note_on_c, 0, 77, 76
6, 19064, Note_on_c, 0, 77, 0
6, 19080, Note_on_c, 0, 72, 76
6, 19184, Note_on_c, 0, 72, 0
6, 19200, Note_on_c, 0, 81, 76
6, 19424, Note_on_c, 0, 81, 0
6, 19440, Note_on_c, 0, 71, 76
6, 19544, Note_on_c, 0, 71, 0
6, 19560, Note_on_c, 0, 72, 76
6, 19664, Note_on_c, 0, 72, 0
6, 19680, Note_on_c, 0, 72, 76
6, 19709, Note_on_c, 0, 72, 0
6, 19710, Note_on_c, 0, 74, 76
6, 19739, Note_on_c, 0, 74, 0
6, 19740, Note_on_c, 0, 72, 76
6, 19769, Note_on_c, 0, 72, 0
6, 19770, Note_on_c, 0, 74, 76
6, 19799, Note_on_c, 0, 74, 0
6, 19800, Note_on_c, 0, 72, 76
6, 19829, Note_on_c, 0, 72, 0
6, 19830, Note_on_c, 0, 74, 76
6, 19859, Note_on_c, 0, 74, 0
6, 19860, Note_on_c, 0, 72, 76
6, 19889, Note_on_c, 0, 72, 0
6, 19890, Note_on_c, 0, 74, 76
6, 19919, Note_on_c, 0, 74, 0
6, 19920, Note_on_c, 0, 72, 76
6, 19949, Note_on_c, 0, 72, 0
6, 19950, Note_on_c, 0, 74, 76
6, 19979, Note_on_c, 0, 74, 0
6, 19980, Note_on_c, 0, 72, 76
6, 20009, Note_on_c, 0, 72, 0
6, 20010, Note_on_c, 0, 74, 76
6, 20039, Note_on_c, 0, 74, 0
6, 20040, Note_on_c, 0, 71, 76
6, 20084, Note_on_c, 0, 71, 0
6, 20100, Note_on_c, 0, 72, 76
6, 20144, Note_on_c, 0, 72, 0
6, 20160, Note_on_c, 0, 74, 76
6, 20384, Note_on_c, 0, 74, 0
6, 20400, Note_on_c, 0, 71, 76
6, 20504, Note_on_c, 0, 71, 0
6, 20520, Note_on_c, 0, 67, 76
6, 20624, Note_on_c, 0, 67, 0
6, 20640, Note_on_c, 0, 77, 76
6, 20864, Note_on_c, 0, 77, 0
6, 20880, Note_on_c, 0, 76, 76
6, 21104, Note_on_c, 0, 76, 0
6, 21120, Note_on_c, 0, 81, 76
6, 21224, Note_on_c, 0, 81, 0
6, 21240, Note_on_c, 0, 79, 76
6, 21344, Note_on_c, 0, 79, 0
6, 21360, Note_on_c, 0, 81, 76
6, 21464, Note_on_c, 0, 81, 0
6, 21480, Note_on_c, 0, 77, 76
6, 21584, Note_on_c, 0, 77, 0
6, 21600, Note_on_c, 0, 79, 76
6, 21824, Note_on_c, 0, 79, 0
6, 21840, Note_on_c, 0, 72, 76
6, 22064, Note_on_c, 0, 72, 0
6, 22080, Note_on_c, 0, 71, 76
6, 22304, Note_on_c, 0, 71, 0
6, 22320, Note_on_c, 0, 72, 76
6, 23024, Note_on_c, 0, 72, 0
6, 23040, Note_on_c, 0, 67, 76
6, 23264, Note_on_c, 0, 67, 0
6, 23280, Note_on_c, 0, 71, 76
6, 23384, Note_on_c, 0, 71, 0
6, 23400, Note_on_c, 0, 67, 76
6, 23504, Note_on_c, 0, 67, 0
6, 23520, Note_on_c, 0, 74, 76
6, 23744, Note_on_c, 0, 74, 0
6, 23760, Note_on_c, 0, 77, 76
6, 23984, Note_on_c, 0, 77, 0
6, 24000, Note_on_c, 0, 74, 76
6, 24029, Note_on_c, 0, 74, 0
6, 24030, Note_on_c, 0, 76, 76
6, 24059, Note_on_c, 0, 76, 0
6, 24060, Note_on_c, 0, 74, 76
6, 24089, Note_on_c, 0, 74, 0
6, 24090, Note_on_c, 0, 76, 76
6, 24119, Note_on_c, 0, 76, 0
6, 24120, Note_on_c, 0, 74, 76
6, 24149, Note_on_c, 0, 74, 0
6, 24150, Note_on_c, 0, 76, 76
6, 24179, Note_on_c, 0, 76, 0
6, 24180, Note_on_c, 0, 74, 76
6, 24209, Note_on_c, 0, 74, 0
6, 24210, Note_on_c, 0, 76, 76
6, 24239, Note_on_c, 0, 76, 0
6, 24240, Note_on_c, 0, 74, 76
6, 24269, Note_on_c, 0, 74, 0
6, 24270, Note_on_c, 0, 76, 76
6, 24299, Note_on_c, 0, 76, 0
6, 24300, Note_on_c, 0, 74, 76
6, 24329, Note_on_c, 0, 74, 0
6, 24330, Note_on_c, 0, 76, 76
6, 24359, Note_on_c, 0, 76, 0
6, 24360, Note_on_c, 0, 72, 76
6, 24404, Note_on_c, 0, 72, 0
6, 24420, Note_on_c, 0, 74, 76
6, 24464, Note_on_c, 0, 74, 0
6, 24480, Note_on_c, 0, 76, 76
6, 24704, Note_on_c, 0, 76, 0
6, 24720, Note_on_c, 0, 72, 76
6, 24824, Note_on_c, 0, 72, 0
6, 24840, Note_on_c, 0, 69, 76
6, 24944, Note_on_c, 0, 69, 0
6, 24960, Note_on_c, 0, 81, 76
6, 25184, Note_on_c, 0, 81, 0
6, 25200, Note_on_c, 0, 80, 76
6, 25319, Note_on_c, 0, 80, 0
6, 25320, Note_on_c, 0, 81, 76
6, 25439, Note_on_c, 0, 81, 0
6, 25440, Note_on_c, 0, 83, 76
6, 25544, Note_on_c, 0, 83, 0
6, 25560, Note_on_c, 0, 80, 76
6, 25664, Note_on_c, 0, 80, 0
6, 25680, Note_on_c, 0, 76, 76
6, 25784, Note_on_c, 0, 76, 0
6, 25800, Note_on_c, 0, 74, 76
6, 25904, Note_on_c, 0, 74, 0
6, 25920, Note_on_c, 0, 72, 76
6, 26144, Note_on_c, 0, 72, 0
6, 26160, Note_on_c, 0, 76, 76
6, 26264, Note_on_c, 0, 76, 0
6, 26280, Note_on_c, 0, 72, 76
6, 26384, Note_on_c, 0, 72, 0
6, 26400, Note_on_c, 0, 81, 76
6, 26624, Note_on_c, 0, 81, 0
6, 26640, Note_on_c, 0, 71, 76
6, 26744, Note_on_c, 0, 71, 0
6, 26760, Note_on_c, 0, 72, 76
6, 26864, Note_on_c, 0, 72, 0
6, 26880, Note_on_c, 0, 74, 76
6, 27224, Note_on_c, 0, 74, 0
6, 27240, Note_on_c, 0, 77, 76
6, 27344, Note_on_c, 0, 77, 0
6, 27360, Note_on_c, 0, 76, 76
6, 27584, Note_on_c, 0, 76, 0
6, 27600, Note_on_c, 0, 74, 76
6, 27704, Note_on_c, 0, 74, 0
6, 27720, Note_on_c, 0, 72, 76
6, 27824, Note_on_c, 0, 72, 0
6, 27840, Note_on_c, 0, 71, 76
6, 27944, Note_on_c, 0, 71, 0
6, 27960, Note_on_c, 0, 72, 76
6, 28064, Note_on_c, 0, 72, 0
6, 28080, Note_on_c, 0, 69, 76
6, 28784, Note_on_c, 0, 69, 0
6, 28800, Note_on_c, 0, 67, 76
6, 29024, Note_on_c, 0, 67, 0
6, 29040, Note_on_c, 0, 72, 76
6, 29144, Note_on_c, 0, 72, 0
6, 29160, Note_on_c, 0, 67, 76
6, 29264, Note_on_c, 0, 67, 0
6, 29280, Note_on_c, 0, 76, 76
6, 29504, Note_on_c, 0, 76, 0
6, 29520, Note_on_c, 0, 69, 76
6, 29624, Note_on_c, 0, 69, 0
6, 29640, Note_on_c, 0, 71, 76
6, 29744, Note_on_c, 0, 71, 0
6, 29760, Note_on_c, 0, 71, 76
6, 29789, Note_on_c, 0, 71, 0
6, 29790, Note_on_c, 0, 72, 76
6, 29819, Note_on_c, 0, 72, 0
6, 29820, Note_on_c, 0, 71, 76
6, 29849, Note_on_c, 0, 71, 0
6, 29850, Note_on_c, 0, 72, 76
6, 29879, Note_on_c, 0, 72, 0
6, 29880, Note_on_c, 0, 71, 76
6, 29909, Note_on_c, 0, 71, 0
6, 29910, Note_on_c, 0, 72, 76
6, 29939, Note_on_c, 0, 72, 0
6, 29940, Note_on_c, 0, 71, 76
6, 29969, Note_on_c, 0, 71, 0
6, 29970, Note_on_c, 0, 72, 76
6, 29999, Note_on_c, 0, 72, 0
6, 30000, Note_on_c, 0, 71, 76
6, 30029, Note_on_c, 0, 71, 0
6, 30030, Note_on_c, 0, 72, 76
6, 30059, Note_on_c, 0, 72, 0
6, 30060, Note_on_c, 0, 71, 76
6, 30089, Note_on_c, 0, 71, 0
6, 30090, Note_on_c, 0, 72, 76
6, 30119, Note_on_c, 0, 72, 0
6, 30120, Note_on_c, 0, 69, 76
6, 30164, Note_on_c, 0, 69, 0
6, 30180, Note_on_c, 0, 71, 76
6, 30224, Note_on_c, 0, 71, 0
6, 30240, Note_on_c, 0, 72, 76
6, 30464, Note_on_c, 0, 72, 0
6, 30480, Note_on_c, 0, 77, 76
6, 30584, Note_on_c, 0, 77, 0
6, 30600, Note_on_c, 0, 72, 76
6, 30704, Note_on_c, 0, 72, 0
6, 30720, Note_on_c, 0, 81, 76
6, 30944, Note_on_c, 0, 81, 0
6, 30960, Note_on_c, 0, 71, 76
6, 31064, Note_on_c, 0, 71, 0
6, 31080, Note_on_c, 0, 72, 76
6, 31184, Note_on_c, 0, 72, 0
6, 31200, Note_on_c, 0, 72, 76
6, 31229, Note_on_c, 0, 72, 0
6, 31230, Note_on_c, 0, 74, 76
6, 31259, Note_on_c, 0, 74, 0
6, 31260, Note_on_c, 0, 72, 76
6, 31289, Note_on_c, 0, 72, 0
6, 31290, Note_on_c, 0, 74, 76
6, 31319, Note_on_c, 0, 74, 0
6, 31320, Note_on_c, 0, 72, 76
6, 31349, Note_on_c, 0, 72, 0
6, 31350, Note_on_c, 0, 74, 76
6, 31379, Note_on_c, 0, 74, 0
6, 31380, Note_on_c, 0, 72, 76
6, 31409, Note_on_c, 0, 72, 0
6, 31410, Note_on_c, 0, 74, 76
6, 31439, Note_on_c, 0, 74, 0
6, 31440, Note_on_c, 0, 72, 76
6, 31469, Note_on_c, 0, 72, 0
6, 31470, Note_on_c, 0, 74, 76
6, 31499, Note_on_c, 0, 74, 0
6, 31500, Note_on_c, 0, 72, 76
6, 31529, Note_on_c, 0, 72, 0
6, 31530, Note_on_c, 0, 74, 76
6, 31559, Note_on_c, 0, 74, 0
6, 31560, Note_on_c, 0, 71, 76
6, 31604, Note_on_c, 0, 71, 0
6, 31620, Note_on_c, 0, 72, 76
6, 31664, Note_on_c, 0, 72, 0
6, 31680, Note_on_c, 0, 74, 76
6, 31904, Note_on_c, 0, 74, 0
6, 31920, Note_on_c, 0, 71, 76
6, 32024, Note_on_c, 0, 71, 0
6, 32040, Note_on_c, 0, 67, 76
6, 32144, Note_on_c, 0, 67, 0
6, 32160, Note_on_c, 0, 77, 76
6, 32384, Note_on_c, 0, 77, 0
6, 32400, Note_on_c, 0, 76, 76
6, 32624, Note_on_c, 0, 76, 0
6, 32640, Note_on_c, 0, 81, 76
6, 32744, Note_on_c, 0, 81, 0
6, 32760, Note_on_c, 0, 79, 76
6, 32864, Note_on_c, 0, 79, 0
6, 32880, Note_on_c, 0, 81, 76
6, 32984, Note_on_c, 0, 81, 0
6, 33000, Note_on_c, 0, 77, 76
6, 33104, Note_on_c, 0, 77, 0
6, 33120, Note_on_c, 0, 79, 76
6, 33344, Note_on_c, 0, 79, 0
6, 33360, Note_on_c, 0, 72, 76
6, 33584, Note_on_c, 0, 72, 0
6, 33600, Note_on_c, 0, 71, 76
6, 33824, Note_on_c, 0, 71, 0
6, 33840, Note_on_c, 0, 72, 76
6, 34559, Note_on_c, 0, 72, 0
6, 69600, Note_on_c, 0, 72, 76
6, 69824, Note_on_c, 0, 72, 0
6, 69840, Note_on_c, 0, 76, 76
6, 69944, Note_on_c, 0, 76, 0
6, 69960, Note_on_c, 0, 72, 76
6, 70064, Note_on_c, 0, 72, 0
6, 70080, Note_on_c, 0, 79, 76
6, 70304, Note_on_c, 0, 79, 0
6, 70320, Note_on_c, 0, 81, 76
6, 70544, Note_on_c, 0, 81, 0
6, 70560, Note_on_c, 0, 77, 76
6, 70904, Note_on_c, 0, 77, 0
6, 70920, Note_on_c, 0, 76, 76
6, 70964, Note_on_c, 0, 76, 0
6, 70980, Note_on_c, 0, 77, 76
6, 71024, Note_on_c, 0, 77, 0
6, 71040, Note_on_c, 0, 79, 76
6, 71264, Note_on_c, 0, 79, 0
6, 71280, Note_on_c, 0, 76, 76
6, 71384, Note_on_c, 0, 76, 0
6, 71400, Note_on_c, 0, 72, 76
6, 71504, Note_on_c, 0, 72, 0
6, 71520, Note_on_c, 0, 77, 76
6, 71744, Note_on_c, 0, 77, 0
6, 71760, Note_on_c, 0, 74, 76
6, 71864, Note_on_c, 0, 74, 0
6, 71880, Note_on_c, 0, 72, 76
6, 71984, Note_on_c, 0, 72, 0
6, 72000, Note_on_c, 0, 74, 76
6, 72104, Note_on_c, 0, 74, 0
6, 72120, Note_on_c, 0, 76, 76
6, 72224, Note_on_c, 0, 76, 0
6, 72240, Note_on_c, 0, 77, 76
6, 72344, Note_on_c, 0, 77, 0
6, 72360, Note_on_c, 0, 74, 76
6, 72464, Note_on_c, 0, 74, 0
6, 72480, Note_on_c, 0, 76, 76
6, 72704, Note_on_c, 0, 76, 0
6, 72720, Note_on_c, 0, 79, 76
6, 72824, Note_on_c, 0, 79, 0
6, 72840, Note_on_c, 0, 76, 76
6, 72944, Note_on_c, 0, 76, 0
6, 72960, Note_on_c, 0, 84, 76
6, 73154, Note_on_c, 0, 84, 0
6, 73170, Note_on_c, 0, 79, 76
6, 73199, Note_on_c, 0, 79, 0
6, 73200, Note_on_c, 0, 78, 76
6, 73424, Note_on_c, 0, 78, 0
6, 73440, Note_on_c, 0, 76, 76
6, 73559, Note_on_c, 0, 76, 0
6, 73560, Note_on_c, 0, 74, 76
6, 73664, Note_on_c, 0, 74, 0
6, 73680, Note_on_c, 0, 72, 76
6, 73799, Note_on_c, 0, 72, 0
6, 73800, Note_on_c, 0, 71, 76
6, 73904, Note_on_c, 0, 71, 0
6, 73920, Note_on_c, 0, 76, 76
6, 74144, Note_on_c, 0, 76, 0
6, 74160, Note_on_c, 0, 69, 76
6, 74504, Note_on_c, 0, 69, 0
6, 74520, Note_on_c, 0, 67, 76
6, 74624, Note_on_c, 0, 67, 0
6, 74640, Note_on_c, 0, 67, 76
6, 75344, Note_on_c, 0, 67, 0
6, 75360, Note_on_c, 0, 72, 76
6, 75584, Note_on_c, 0, 72, 0
6, 75600, Note_on_c, 0, 76, 76
6, 75704, Note_on_c, 0, 76, 0
6, 75720, Note_on_c, 0, 72, 76
6, 75824, Note_on_c, 0, 72, 0
6, 75840, Note_on_c, 0, 79, 76
6, 76064, Note_on_c, 0, 79, 0
6, 76080, Note_on_c, 0, 81, 76
6, 76304, Note_on_c, 0, 81, 0
6, 76320, Note_on_c, 0, 77, 76
6, 76664, Note_on_c, 0, 77, 0
6, 76680, Note_on_c, 0, 76, 76
6, 76724, Note_on_c, 0, 76, 0
6, 76740, Note_on_c, 0, 77, 76
6, 76784, Note_on_c, 0, 77, 0
6, 76800, Note_on_c, 0, 79, 76
6, 77024, Note_on_c, 0, 79, 0
6, 77040, Note_on_c, 0, 76, 76
6, 77144, Note_on_c, 0, 76, 0
6, 77160, Note_on_c, 0, 72, 76
6, 77264, Note_on_c, 0, 72, 0
6, 77280, Note_on_c, 0, 77, 76
6, 77504, Note_on_c, 0, 77, 0
6, 77520, Note_on_c, 0, 74, 76
6, 77624, Note_on_c, 0, 74, 0
6, 77640, Note_on_c, 0, 72, 76
6, 77744, Note_on_c, 0, 72, 0
6, 77760, Note_on_c, 0, 74, 76
6, 77864, Note_on_c, 0, 74, 0
6, 77880, Note_on_c, 0, 76, 76
6, 77984, Note_on_c, 0, 76, 0
6, 78000, Note_on_c, 0, 77, 76
6, 78104, Note_on_c, 0, 77, 0
6, 78120, Note_on_c, 0, 74, 76
6, 78224, Note_on_c, 0, 74, 0
6, 78240, Note_on_c, 0, 76, 76
6, 78464, Note_on_c, 0, 76, 0
6, 78480, Note_on_c, 0, 79, 76
6, 78584, Note_on_c, 0, 79, 0
6, 78600, Note_on_c, 0, 76, 76
6, 78704, Note_on_c, 0, 76, 0
6, 78720, Note_on_c, 0, 84, 76
6, 78914, Note_on_c, 0, 84, 0
6, 78930, Note_on_c, 0, 79, 76
6, 78959, Note_on_c, 0, 79, 0
6, 78960, Note_on_c, 0, 78, 76
6, 79184, Note_on_c, 0, 78, 0
6, 79200, Note_on_c, 0, 76, 76
6, 79319, Note_on_c, 0, 76, 0
6, 79320, Note_on_c, 0, 74, 76
6, 79424, Note_on_c, 0, 74, 0
6, 79440, Note_on_c, 0, 72, 76
6, 79559, Note_on_c, 0, 72, 0
6, 79560, Note_on_c, 0, 71, 76
6, 79664, Note_on_c, 0, 71, 0
6, 79680, Note_on_c, 0, 76, 76
6, 79904, Note_on_c, 0, 76, 0
6, 79920, Note_on_c, 0, 69, 76
6, 80264, Note_on_c, 0, 69, 0
6, 80280, Note_on_c, 0, 67, 76
6, 80384, Note_on_c, 0, 67, 0
6, 80400, Note_on_c, 0, 67, 76
6, 81104, Note_on_c, 0, 67, 0
6, 81120, Note_on_c, 0, 67, 76
6, 81344, Note_on_c, 0, 67, 0
6, 81360, Note_on_c, 0, 71, 76
6, 81464, Note_on_c, 0, 71, 0
6, 81480, Note_on_c, 0, 67, 76
6, 81584, Note_on_c, 0, 67, 0
6, 81600, Note_on_c, 0, 74, 76
6, 81824, Note_on_c, 0, 74, 0
6, 81840, Note_on_c, 0, 77, 76
6, 82064, Note_on_c, 0, 77, 0
6, 82080, Note_on_c, 0, 74, 76
6, 82109, Note_on_c, 0, 74, 0
6, 82110, Note_on_c, 0, 76, 76
6, 82139, Note_on_c, 0, 76, 0
6, 82140, Note_on_c, 0, 74, 76
6, 82169, Note_on_c, 0, 74, 0
6, 82170, Note_on_c, 0, 76, 76
6, 82199, Note_on_c, 0, 76, 0
6, 82200, Note_on_c, 0, 74, 76
6, 82229, Note_on_c, 0, 74, 0
6, 82230, Note_on_c, 0, 76, 76
6, 82259, Note_on_c, 0, 76, 0
6, 82260, Note_on_c, 0, 74, 76
6, 82289, Note_on_c, 0, 74, 0
6, 82290, Note_on_c, 0, 76, 76
6, 82319, Note_on_c, 0, 76, 0
6, 82320, Note_on_c, 0, 74, 76
6, 82349, Note_on_c, 0, 74, 0
6, 82350, Note_on_c, 0, 76, 76
6, 82379, Note_on_c, 0, 76, 0
6, 82380, Note_on_c, 0, 74, 76
6, 82409, Note_on_c, 0, 74, 0
6, 82410, Note_on_c, 0, 76, 76
6, 82439, Note_on_c, 0, 76, 0
6, 82440, Note_on_c, 0, 72, 76
6, 82484, Note_on_c, 0, 72, 0
6, 82500, Note_on_c, 0, 74, 76
6, 82544, Note_on_c, 0, 74, 0
6, 82560, Note_on_c, 0, 76, 76
6, 82784, Note_on_c, 0, 76, 0
6, 82800, Note_on_c, 0, 72, 76
6, 82904, Note_on_c, 0, 72, 0
6, 82920, Note_on_c, 0, 69, 76
6, 83024, Note_on_c, 0, 69, 0
6, 83040, Note_on_c, 0, 81, 76
6, 83264, Note_on_c, 0, 81, 0
6, 83280, Note_on_c, 0, 80, 76
6, 83399, Note_on_c, 0, 80, 0
6, 83400, Note_on_c, 0, 81, 76
6, 83519, Note_on_c, 0, 81, 0
6, 83520, Note_on_c, 0, 83, 76
6, 83624, Note_on_c, 0, 83, 0
6, 83640, Note_on_c, 0, 80, 76
6, 83744, Note_on_c, 0, 80, 0
6, 83760, Note_on_c, 0, 76, 76
6, 83864, Note_on_c, 0, 76, 0
6, 83880, Note_on_c, 0, 74, 76
6, 83984, Note_on_c, 0, 74, 0
6, 84000, Note_on_c, 0, 72, 76
6, 84224, Note_on_c, 0, 72, 0
6, 84240, Note_on_c, 0, 76, 76
6, 84344, Note_on_c, 0, 76, 0
6, 84360, Note_on_c, 0, 72, 76
6, 84464, Note_on_c, 0, 72, 0
6, 84480, Note_on_c, 0, 81, 76
6, 84704, Note_on_c, 0, 81, 0
6, 84720, Note_on_c, 0, 71, 76
6, 84824, Note_on_c, 0, 71, 0
6, 84840, Note_on_c, 0, 72, 76
6, 84944, Note_on_c, 0, 72, 0
6, 84960, Note_on_c, 0, 74, 76
6, 85304, Note_on_c, 0, 74, 0
6, 85320, Note_on_c, 0, 77, 76
6, 85424, Note_on_c, 0, 77, 0
6, 85440, Note_on_c, 0, 76, 76
6, 85664, Note_on_c, 0, 76, 0
6, 85680, Note_on_c, 0, 74, 76
6, 85784, Note_on_c, 0, 74, 0
6, 85800, Note_on_c, 0, 72, 76
6, 85904, Note_on_c, 0, 72, 0
6, 85920, Note_on_c, 0, 71, 76
6, 86024, Note_on_c, 0, 71, 0
6, 86040, Note_on_c, 0, 72, 76
6, 86144, Note_on_c, 0, 72, 0
6, 86160, Note_on_c, 0, 69, 76
6, 86864, Note_on_c, 0, 69, 0
6, 86880, Note_on_c, 0, 67, 76
6, 87104, Note_on_c, 0, 67, 0
6, 87120, Note_on_c, 0, 72, 76
6, 87224, Note_on_c, 0, 72, 0
6, 87240, Note_on_c, 0, 67, 76
6, 87344, Note_on_c, 0, 67, 0
6, 87360, Note_on_c, 0, 76, 76
6, 87584, Note_on_c, 0, 76, 0
6, 87600, Note_on_c, 0, 69, 76
6, 87704, Note_on_c, 0, 69, 0
6, 87720, Note_on_c, 0, 71, 76
6, 87824, Note_on_c, 0, 71, 0
6, 87840, Note_on_c, 0, 71, 76
6, 87869, Note_on_c, 0, 71, 0
6, 87870, Note_on_c, 0, 72, 76
6, 87899, Note_on_c, 0, 72, 0
6, 87900, Note_on_c, 0, 71, 76
6, 87929, Note_on_c, 0, 71, 0
6, 87930, Note_on_c, 0, 72, 76
6, 87959, Note_on_c, 0, 72, 0
6, 87960, Note_on_c, 0, 71, 76
6, 87989, Note_on_c, 0, 71, 0
6, 87990, Note_on_c, 0, 72, 76
6, 88019, Note_on_c, 0, 72, 0
6, 88020, Note_on_c, 0, 71, 76
6, 88049, Note_on_c, 0, 71, 0
6, 88050, Note_on_c, 0, 72, 76
6, 88079, Note_on_c, 0, 72, 0
6, 88080, Note_on_c, 0, 71, 76
6, 88109, Note_on_c, 0, 71, 0
6, 88110, Note_on_c, 0, 72, 76
6, 88139, Note_on_c, 0, 72, 0
6, 88140, Note_on_c, 0, 71, 76
6, 88169, Note_on_c, 0, 71, 0
6, 88170, Note_on_c, 0, 72, 76
6, 88199, Note_on_c, 0, 72, 0
6, 88200, Note_on_c, 0, 69, 76
6, 88244, Note_on_c, 0, 69, 0
6, 88260, Note_on_c, 0, 71, 76
6, 88304, Note_on_c, 0, 71, 0
6, 88320, Note_on_c, 0, 72, 76
6, 88544, Note_on_c, 0, 72, 0
6, 88560, Note_on_c, 0, 77, 76
6, 88664, Note_on_c, 0, 77, 0
6, 88680, Note_on_c, 0, 72, 76
6, 88784, Note_on_c, 0, 72, 0
6, 88800, Note_on_c, 0, 81, 76
6, 89024, Note_on_c, 0, 81, 0
6, 89040, Note_on_c, 0, 71, 76
6, 89144, Note_on_c, 0, 71, 0
6, 89160, Note_on_c, 0, 72, 76
6, 89264, Note_on_c, 0, 72, 0
6, 89280, Note_on_c, 0, 72, 76
6, 89309, Note_on_c, 0, 72, 0
6, 89310, Note_on_c, 0, 74, 76
6, 89339, Note_on_c, 0, 74, 0
6, 89340, Note_on_c, 0, 72, 76
6, 89369, Note_on_c, 0, 72, 0
6, 89370, Note_on_c, 0, 74, 76
6, 89399, Note_on_c, 0, 74, 0
6, 89400, Note_on_c, 0, 72, 76
6, 89429, Note_on_c, 0, 72, 0
6, 89430, Note_on_c, 0, 74, 76
6, 89459, Note_on_c, 0, 74, 0
6, 89460, Note_on_c, 0, 72, 76
6, 89489, Note_on_c, 0, 72, 0
6, 89490, Note_on_c, 0, 74, 76
6, 89519, Note_on_c, 0, 74, 0
6, 89520, Note_on_c, 0, 72, 76
6, 89549, Note_on_c, 0, 72, 0
6, 89550, Note_on_c, 0, 74, 76
6, 89579, Note_on_c, 0, 74, 0
6, 89580, Note_on_c, 0, 72, 76
6, 89609, Note_on_c, 0, 72, 0
6, 89610, Note_on_c, 0, 74, 76
6, 89639, Note_on_c, 0, 74, 0
6, 89640, Note_on_c, 0, 71, 76
6, 89684, Note_on_c, 0, 71, 0
6, 89700, Note_on_c, 0, 72, 76
6, 89744, Note_on_c, 0, 72, 0
6, 89760, Note_on_c, 0, 74, 76
6, 89984, Note_on_c, 0, 74, 0
6, 90000, Note_on_c, 0, 71, 76
6, 90104, Note_on_c, 0, 71, 0
6, 90120, Note_on_c, 0, 67, 76
6, 90224, Note_on_c, 0, 67, 0
6, 90240, Note_on_c, 0, 77, 76
6, 90464, Note_on_c, 0, 77, 0
6, 90480, Note_on_c, 0, 76, 76
6, 90704, Note_on_c, 0, 76, 0
6, 90720, Note_on_c, 0, 81, 76
6, 90824, Note_on_c, 0, 81, 0
6, 90840, Note_on_c, 0, 79, 76
6, 90944, Note_on_c, 0, 79, 0
6, 90960, Note_on_c, 0, 81, 76
6, 91064, Note_on_c, 0, 81, 0
6, 91080, Note_on_c, 0, 77, 76
6, 91184, Note_on_c, 0, 77, 0
6, 91200, Note_on_c, 0, 79, 76
6, 91424, Note_on_c, 0, 79, 0
6, 91440, Note_on_c, 0, 72, 76
6, 91664, Note_on_c, 0, 72, 0
6, 91680, Note_on_c, 0, 71, 76
6, 91904, Note_on_c, 0, 71, 0
6, 91920, Note_on_c, 0, 72, 76
6, 92624, Note_on_c, 0, 72, 0
6, 92640, Note_on_c, 0, 67, 76
6, 92864, Note_on_c, 0, 67, 0
6, 92880, Note_on_c, 0, 71, 76
6, 92984, Note_on_c, 0, 71, 0
6, 93000, Note_on_c, 0, 67, 76
6, 93104, Note_on_c, 0, 67, 0
6, 93120, Note_on_c, 0, 74, 76
6, 93344, Note_on_c, 0, 74, 0
6, 93360, Note_on_c, 0, 77, 76
6, 93584, Note_on_c, 0, 77, 0
6, 93600, Note_on_c, 0, 74, 76
6, 93629, Note_on_c, 0, 74, 0
6, 93630, Note_on_c, 0, 76, 76
6, 93659, Note_on_c, 0, 76, 0
6, 93660, Note_on_c, 0, 74, 76
6, 93689, Note_on_c, 0, 74, 0
6, 93690, Note_on_c, 0, 76, 76
6, 93719, Note_on_c, 0, 76, 0
6, 93720, Note_on_c, 0, 74, 76
6, 93749, Note_on_c, 0, 74, 0
6, 93750, Note_on_c, 0, 76, 76
6, 93779, Note_on_c, 0, 76, 0
6, 93780, Note_on_c, 0, 74, 76
6, 93809, Note_on_c, 0, 74, 0
6, 93810, Note_on_c, 0, 76, 76
6, 93839, Note_on_c, 0, 76, 0
6, 93840, Note_on_c, 0, 74, 76
6, 93869, Note_on_c, 0, 74, 0
6, 93870, Note_on_c, 0, 76, 76
6, 93899, Note_on_c, 0, 76, 0
6, 93900, Note_on_c, 0, 74, 76
6, 93929, Note_on_c, 0, 74, 0
6, 93930, Note_on_c, 0, 76, 76
6, 93959, Note_on_c, 0, 76, 0
6, 93960, Note_on_c, 0, 72, 76
6, 94004, Note_on_c, 0, 72, 0
6, 94020, Note_on_c, 0, 74, 76
6, 94064, Note_on_c, 0, 74, 0
6, 94080, Note_on_c, 0, 76, 76
6, 94304, Note_on_c, 0, 76, 0
6, 94320, Note_on_c, 0, 72, 76
6, 94424, Note_on_c, 0, 72, 0
6, 94440, Note_on_c, 0, 69, 76
6, 94544, Note_on_c, 0, 69, 0
6, 94560, Note_on_c, 0, 81, 76
6, 94784, Note_on_c, 0, 81, 0
6, 94800, Note_on_c, 0, 80, 76
6, 94919, Note_on_c, 0, 80, 0
6, 94920, Note_on_c, 0, 81, 76
6, 95039, Note_on_c, 0, 81, 0
6, 95040, Note_on_c, 0, 83, 76
6, 95144, Note_on_c, 0, 83, 0
6, 95160, Note_on_c, 0, 80, 76
6, 95264, Note_on_c, 0, 80, 0
6, 95280, Note_on_c, 0, 76, 76
6, 95384, Note_on_c, 0, 76, 0
6, 95400, Note_on_c, 0, 74, 76
6, 95504, Note_on_c, 0, 74, 0
6, 95520, Note_on_c, 0, 72, 76
6, 95744, Note_on_c, 0, 72, 0
6, 95760, Note_on_c, 0, 76, 76
6, 95864, Note_on_c, 0, 76, 0
6, 95880, Note_on_c, 0, 72, 76
6, 95984, Note_on_c, 0, 72, 0
6, 96000, Note_on_c, 0, 81, 76
6, 96224, Note_on_c, 0, 81, 0
6, 96240, Note_on_c, 0, 71, 76
6, 96344, Note_on_c, 0, 71, 0
6, 96360, Note_on_c, 0, 72, 76
6, 96464, Note_on_c, 0, 72, 0
6, 96480, Note_on_c, 0, 74, 76
6, 96824, Note_on_c, 0, 74, 0
6, 96840, Note_on_c, 0, 77, 76
6, 96944, Note_on_c, 0, 77, 0
6, 96960, Note_on_c, 0, 76, 76
6, 97184, Note_on_c, 0, 76, 0
6, 97200, Note_on_c, 0, 74, 76
6, 97304, Note_on_c, 0, 74, 0
6, 97320, Note_on_c, 0, 72, 76
6, 97424, Note_on_c, 0, 72, 0
6, 97440, Note_on_c, 0, 71, 76
6, 97544, Note_on_c, 0, 71, 0
6, 97560, Note_on_c, 0, 72, 76
6, 97664, Note_on_c, 0, 72, 0
6, 97680, Note_on_c, 0, 69, 76
6, 98384, Note_on_c, 0, 69, 0
6, 98400, Note_on_c, 0, 67, 76
6, 98624, Note_on_c, 0, 67, 0
6, 98640, Note_on_c, 0, 72, 76
6, 98744, Note_on_c, 0, 72, 0
6, 98760, Note_on_c, 0, 67, 76
6, 98864, Note_on_c, 0, 67, 0
6, 98880, Note_on_c, 0, 76, 76
6, 99104, Note_on_c, 0, 76, 0
6, 99120, Note_on_c, 0, 69, 76
6, 99224, Note_on_c, 0, 69, 0
6, 99240, Note_on_c, 0, 71, 76
6, 99344, Note_on_c, 0, 71, 0
6, 99360, Note_on_c, 0, 71, 76
6, 99389, Note_on_c, 0, 71, 0
6, 99390, Note_on_c, 0, 72, 76
6, 99419, Note_on_c, 0, 72, 0
6, 99420, Note_on_c, 0, 71, 76
6, 99449, Note_on_c, 0, 71, 0
6, 99450, Note_on_c, 0, 72, 76
6, 99479, Note_on_c, 0, 72, 0
6, 99480, Note_on_c, 0, 71, 76
6, 99509, Note_on_c, 0, 71, 0
6, 99510, Note_on_c, 0, 72, 76
6, 99539, Note_on_c, 0, 72, 0
6, 99540, Note_on_c, 0, 71, 76
6, 99569, Note_on_c, 0, 71, 0
6, 99570, Note_on_c, 0, 72, 76
6, 99599, Note_on_c, 0, 72, 0
6, 99600, Note_on_c, 0, 71, 76
6, 99629, Note_on_c, 0, 71, 0
6, 99630, Note_on_c, 0, 72, 76
6, 99659, Note_on_c, 0, 72, 0
6, 99660, Note_on_c, 0, 71, 76
6, 99689, Note_on_c, 0, 71, 0
6, 99690, Note_on_c, 0, 72, 76
6, 99719, Note_on_c, 0, 72, 0
6, 99720, Note_on_c, 0, 69, 76
6, 99764, Note_on_c, 0, 69, 0
6, 99780, Note_on_c, 0, 71, 76
6, 99824, Note_on_c, 0, 71, 0
6, 99840, Note_on_c, 0, 72, 76
6, 100064, Note_on_c, 0, 72, 0
6, 100080, Note_on_c, 0, 77, 76
6, 100184, Note_on_c, 0, 77, 0
6, 100200, Note_on_c, 0, 72, 76
6, 100304, Note_on_c, 0, 72, 0
6, 100320, Note_on_c, 0, 81, 76
6, 100544, Note_on_c, 0, 81, 0
6, 100560, Note_on_c, 0, 71, 76
6, 100664, Note_on_c, 0, 71, 0
6, 100680, Note_on_c, 0, 72, 76
6, 100784, Note_on_c, 0, 72, 0
6, 100800, Note_on_c, 0, 72, 76
6, 100829, Note_on_c, 0, 72, 0
6, 100830, Note_on_c, 0, 74, 76
6, 100859, Note_on_c, 0, 74, 0
6, 100860, Note_on_c, 0, 72, 76
6, 100889, Note_on_c, 0, 72, 0
6, 100890, Note_on_c, 0, 74, 76
6, 100919, Note_on_c, 0, 74, 0
6, 100920, Note_on_c, 0, 72, 76
6, 100949, Note_on_c, 0, 72, 0
6, 100950, Note_on_c, 0, 74, 76
6, 100979, Note_on_c, 0, 74, 0
6, 100980, Note_on_c, 0, 72, 76
6, 101009, Note_on_c, 0, 72, 0
6, 101010, Note_on_c, 0, 74, 76
6, 101039, Note_on_c, 0, 74, 0
6, 101040, Note_on_c, 0, 72, 76
6, 101069, Note_on_c, 0, 72, 0
6, 101070, Note_on_c, 0, 74, 76
6, 101099, Note_on_c, 0, 74, 0
6, 101100, Note_on_c, 0, 72, 76
6, 101129, Note_on_c, 0, 72, 0
6, 101130, Note_on_c, 0, 74, 76
6, 101159, Note_on_c, 0, 74, 0
6, 101160, Note_on_c, 0, 71, 76
6, 101204, Note_on_c, 0, 71, 0
6, 101220, Note_on_c, 0, 72, 76
6, 101264, Note_on_c, 0, 72, 0
6, 101280, Note_on_c, 0, 74, 76
6, 101504, Note_on_c, 0, 74, 0
6, 101520, Note_on_c, 0, 71, 76
6, 101624, Note_on_c, 0, 71, 0
6, 101640, Note_on_c, 0, 67, 76
6, 101744, Note_on_c, 0, 67, 0
6, 101760, Note_on_c, 0, 77, 76
6, 101984, Note_on_c, 0, 77, 0
6, 102000, Note_on_c, 0, 76, 76
6, 102224, Note_on_c, 0, 76, 0
6, 102240, Note_on_c, 0, 81, 76
6, 102344, Note_on_c, 0, 81, 0
6, 102360, Note_on_c, 0, 79, 76
6, 102464, Note_on_c, 0, 79, 0
6, 102480, Note_on_c, 0, 81, 76
6, 102584, Note_on_c, 0, 81, 0
6, 102600, Note_on_c, 0, 77, 76
6, 102704, Note_on_c, 0, 77, 0
6, 102720, Note_on_c, 0, 79, 76
6, 102944, Note_on_c, 0, 79, 0
6, 102960, Note_on_c, 0, 72, 76
6, 103184, Note_on_c, 0, 72, 0
6, 103200, Note_on_c, 0, 71, 76
6, 103424, Note_on_c, 0, 71, 0
6, 103440, Note_on_c, 0, 72, 76
6, 104159, Note_on_c, 0, 72, 0
6, 104159, End_track
7, 0, Start_track
7, 0, Title_t, "Oboe II"
7, 0, MIDI_port, 0
7, 0, Program_c, 1, 68
7, 0, Control_c, 1, 10, 65
7, 0, Control_c, 1, 11, 127
7, 0, Control_c, 1, 7, 80
7, 0, Note_on_c, 1, 72, 76
7, 224, Note_on_c, 1, 72, 0
7, 240, Note_on_c, 1, 76, 76
7, 344, Note_on_c, 1, 76, 0
7, 360, Note_on_c, 1, 72, 76
7, 464, Note_on_c, 1, 72, 0
7, 480, Note_on_c, 1, 79, 76
7, 704, Note_on_c, 1, 79, 0
7, 720, Note_on_c, 1, 81, 76
7, 944, Note_on_c, 1, 81, 0
7, 960, Note_on_c, 1, 77, 76
7, 1304, Note_on_c, 1, 77, 0
7, 1320, Note_on_c, 1, 76, 76
7, 1364, Note_on_c, 1, 76, 0
7, 1380, Note_on_c, 1, 77, 76
7, 1424, Note_on_c, 1, 77, 0
7, 1440, Note_on_c, 1, 79, 76
7, 1664, Note_on_c, 1, 79, 0
7, 1680, Note_on_c, 1, 76, 76
7, 1784, Note_on_c, 1, 76, 0
7, 1800, Note_on_c, 1, 72, 76
7, 1904, Note_on_c, 1, 72, 0
7, 1920, Note_on_c, 1, 77, 76
7, 2144, Note_on_c, 1, 77, 0
7, 2160, Note_on_c, 1, 74, 76
7, 2264, Note_on_c, 1, 74, 0
7, 2280, Note_on_c, 1, 72, 76
7, 2384, Note_on_c, 1, 72, 0
7, 2400, Note_on_c, 1, 74, 76
7, 2504, Note_on_c, 1, 74, 0
7, 2520, Note_on_c, 1, 76, 76
7, 2624, Note_on_c, 1, 76, 0
7, 2640, Note_on_c, 1, 77, 76
7, 2744, Note_on_c, 1, 77, 0
7, 2760, Note_on_c, 1, 74, 76
7, 2864, Note_on_c, 1, 74, 0
7, 2880, Note_on_c, 1, 76, 76
7, 3104, Note_on_c, 1, 76, 0
7, 3120, Note_on_c, 1, 79, 76
7, 3224, Note_on_c, 1, 79, 0
7, 3240, Note_on_c, 1, 76, 76
7, 3344, Note_on_c, 1, 76, 0
7, 3360, Note_on_c, 1, 84, 76
7, 3554, Note_on_c, 1, 84, 0
7, 3570, Note_on_c, 1, 79, 76
7, 3599, Note_on_c, 1, 79, 0
7, 3600, Note_on_c, 1, 78, 76
7, 3824, Note_on_c, 1, 78, 0
7, 3840, Note_on_c, 1, 76, 76
7, 3959, Note_on_c, 1, 76, 0
7, 3960, Note_on_c, 1, 74, 76
7, 4064, Note_on_c, 1, 74, 0
7, 4080, Note_on_c, 1, 72, 76
7, 4199, Note_on_c, 1, 72, 0
7, 4200, Note_on_c, 1, 71, 76
7, 4304, Note_on_c, 1, 71, 0
7, 4320, Note_on_c, 1, 76, 76
7, 4544, Note_on_c, 1, 76, 0
7, 4560, Note_on_c, 1, 69, 76
7, 4904, Note_on_c, 1, 69, 0
7, 4920, Note_on_c, 1, 67, 76
7, 5024, Note_on_c, 1, 67, 0
7, 5040, Note_on_c, 1, 67, 76
7, 5744, Note_on_c, 1, 67, 0
7, 5760, Note_on_c, 1, 72, 76
7, 5984, Note_on_c, 1, 72, 0
7, 6000, Note_on_c, 1, 76, 76
7, 6104, Note_on_c, 1, 76, 0
7, 6120, Note_on_c, 1, 72, 76
7, 6224, Note_on_c, 1, 72, 0
7, 6240, Note_on_c, 1, 79, 76
7, 6464, Note_on_c, 1, 79, 0
7, 6480, Note_on_c, 1, 81, 76
7, 6704, Note_on_c, 1, 81, 0
7, 6720, Note_on_c, 1, 77, 76
7, 7064, Note_on_c, 1, 77, 0
7, 7080, Note_on_c, 1, 76, 76
7, 7124, Note_on_c, 1, 76, 0
7, 7140, Note_on_c, 1, 77, 76
7, 7184, Note_on_c, 1, 77, 0
7, 7200, Note_on_c, 1, 79, 76
7, 7424, Note_on_c, 1, 79, 0
7, 7440, Note_on_c, 1, 76, 76
7, 7544, Note_on_c, 1, 76, 0
7, 7560, Note_on_c, 1, 72, 76
7, 7664, Note_on_c, 1, 72, 0
7, 7680, Note_on_c, 1, 77, 76
7, 7904, Note_on_c, 1, 77, 0
7, 7920, Note_on_c, 1, 74, 76
7, 8024, Note_on_c, 1, 74, 0
7, 8040, Note_on_c, 1, 72, 76
7, 8144, Note_on_c, 1, 72, 0
7, 8160, Note_on_c, 1, 74, 76
7, 8264, Note_on_c, 1, 74, 0
7, 8280, Note_on_c, 1, 76, 76
7, 8384, Note_on_c, 1, 76, 0
7, 8400, Note_on_c, 1, 77, 76
7, 8504, Note_on_c, 1, 77, 0
7, 8520, Note_on_c, 1, 74, 76
7, 8624, Note_on_c, 1, 74, 0
7, 8640, Note_on_c, 1, 76, 76
7, 8864, Note_on_c, 1, 76, 0
7, 8880, Note_on_c, 1, 79, 76
7, 8984, Note_on_c, 1, 79, 0
7, 9000, Note_on_c, 1, 76, 76
7, 9104, Note_on_c, 1, 76, 0
7, 9120, Note_on_c, 1, 84, 76
7, 9314, Note_on_c, 1, 84, 0
7, 9330, Note_on_c, 1, 79, 76
7, 9359, Note_on_c, 1, 79, 0
7, 9360, Note_on_c, 1, 78, 76
7, 9584, Note_on_c, 1, 78, 0
7, 9600, Note_on_c, 1, 76, 76
7, 9719, Note_on_c, 1, 76, 0
7, 9720, Note_on_c, 1, 74, 76
7, 9824, Note_on_c, 1, 74, 0
7, 9840, Note_on_c, 1, 72, 76
7, 9959, Note_on_c, 1, 72, 0
7, 9960, Note_on_c, 1, 71, 76
7, 10064, Note_on_c, 1, 71, 0
7, 10080, Note_on_c, 1, 76, 76
7, 10304, Note_on_c, 1, 76, 0
7, 10320, Note_on_c, 1, 69, 76
7, 10664, Note_on_c, 1, 69, 0
7, 10680, Note_on_c, 1, 67, 76
7, 10784, Note_on_c, 1, 67, 0
7, 10800, Note_on_c, 1, 67, 76
7, 11504, Note_on_c, 1, 67, 0
7, 11520, Note_on_c, 1, 67, 76
7, 11744, Note_on_c, 1, 67, 0
7, 11760, Note_on_c, 1, 71, 76
7, 11864, Note_on_c, 1, 71, 0
7, 11880, Note_on_c, 1, 67, 76
7, 11984, Note_on_c, 1, 67, 0
7, 12000, Note_on_c, 1, 74, 76
7, 12224, Note_on_c, 1, 74, 0
7, 12240, Note_on_c, 1, 77, 76
7, 12464, Note_on_c, 1, 77, 0
7, 12480, Note_on_c, 1, 74, 76
7, 12509, Note_on_c, 1, 74, 0
7, 12510, Note_on_c, 1, 76, 76
7, 12539, Note_on_c, 1, 76, 0
7, 12540, Note_on_c, 1, 74, 76
7, 12569, Note_on_c, 1, 74, 0
7, 12570, Note_on_c, 1, 76, 76
7, 12599, Note_on_c, 1, 76, 0
7, 12600, Note_on_c, 1, 74, 76
7, 12629, Note_on_c, 1, 74, 0
7, 12630, Note_on_c, 1, 76, 76
7, 12659, Note_on_c, 1, 76, 0
7, 12660, Note_on_c, 1, 74, 76
7, 12689, Note_on_c, 1, 74, 0
7, 12690, Note_on_c, 1, 76, 76
7, 12719, Note_on_c, 1, 76, 0
7, 12720, Note_on_c, 1, 74, 76
7, 12749, Note_on_c, 1, 74, 0
7, 12750, Note_on_c, 1, 76, 76
7, 12779, Note_on_c, 1, 76, 0
7, 12780, Note_on_c, 1, 74, 76
7, 12809, Note_on_c, 1, 74, 0
7, 12810, Note_on_c, 1, 76, 76
7, 12839, Note_on_c, 1, 76, 0
7, 12840, Note_on_c, 1, 72, 76
7, 12884, Note_on_c, 1, 72, 0
7, 12900, Note_on_c, 1, 74, 76
7, 12944, Note_on_c, 1, 74, 0
7, 12960, Note_on_c, 1, 76, 76
7, 13184, Note_on_c, 1, 76, 0
7, 13200, Note_on_c, 1, 72, 76
7, 13304, Note_on_c, 1, 72, 0
7, 13320, Note_on_c, 1, 69, 76
7, 13424, Note_on_c, 1, 69, 0
7, 13440, Note_on_c, 1, 81, 76
7, 13664, Note_on_c, 1, 81, 0
7, 13680, Note_on_c, 1, 80, 76
7, 13799, Note_on_c, 1, 80, 0
7, 13800, Note_on_c, 1, 81, 76
7, 13919, Note_on_c, 1, 81, 0
7, 13920, Note_on_c, 1, 83, 76
7, 14024, Note_on_c, 1, 83, 0
7, 14040, Note_on_c, 1, 80, 76
7, 14144, Note_on_c, 1, 80, 0
7, 14160, Note_on_c, 1, 76, 76
7, 14264, Note_on_c, 1, 76, 0
7, 14280, Note_on_c, 1, 74, 76
7, 14384, Note_on_c, 1, 74, 0
7, 14400, Note_on_c, 1, 72, 76
7, 14624, Note_on_c, 1, 72, 0
7, 14640, Note_on_c, 1, 76, 76
7, 14744, Note_on_c, 1, 76, 0
7, 14760, Note_on_c, 1, 72, 76
7, 14864, Note_on_c, 1, 72, 0
7, 14880, Note_on_c, 1, 81, 76
7, 15104, Note_on_c, 1, 81, 0
7, 15120, Note_on_c, 1, 71, 76
7, 15224, Note_on_c, 1, 71, 0
7, 15240, Note_on_c, 1, 72, 76
7, 15344, Note_on_c, 1, 72, 0
7, 15360, Note_on_c, 1, 74, 76
7, 15704, Note_on_c, 1, 74, 0
7, 15720, Note_on_c, 1, 77, 76
7, 15824, Note_on_c, 1, 77, 0
7, 15840, Note_on_c, 1, 76, 76
7, 16064, Note_on_c, 1, 76, 0
7, 16080, Note_on_c, 1, 74, 76
7, 16184, Note_on_c, 1, 74, 0
7, 16200, Note_on_c, 1, 72, 76
7, 16304, Note_on_c, 1, 72, 0
7, 16320, Note_on_c, 1, 71, 76
7, 16424, Note_on_c, 1, 71, 0
7, 16440, Note_on_c, 1, 72, 76
7, 16544, Note_on_c, 1, 72, 0
7, 16560, Note_on_c, 1, 69, 76
7, 17264, Note_on_c, 1, 69, 0
7, 17280, Note_on_c, 1, 67, 76
7, 17504, Note_on_c, 1, 67, 0
7, 17520, Note_on_c, 1, 72, 76
7, 17624, Note_on_c, 1, 72, 0
7, 17640, Note_on_c, 1, 67, 76
7, 17744, Note_on_c, 1, 67, 0
7, 17760, Note_on_c, 1, 76, 76
7, 17984, Note_on_c, 1, 76, 0
7, 18000, Note_on_c, 1, 69, 76
7, 18104, Note_on_c, 1, 69, 0
7, 18120, Note_on_c, 1, 71, 76
7, 18224, Note_on_c, 1, 71, 0
7, 18240, Note_on_c, 1, 71, 76
7, 18269, Note_on_c, 1, 71, 0
7, 18270, Note_on_c, 1, 72, 76
7, 18299, Note_on_c, 1, 72, 0
7, 18300, Note_on_c, 1, 71, 76
7, 18329, Note_on_c, 1, 71, 0
7, 18330, Note_on_c, 1, 72, 76
7, 18359, Note_on_c, 1, 72, 0
7, 18360, Note_on_c, 1, 71, 76
7, 18389, Note_on_c, 1, 71, 0
7, 18390, Note_on_c, 1, 72, 76
7, 18419, Note_on_c, 1, 72, 0
7, 18420, Note_on_c, 1, 71, 76
7, 18449, Note_on_c, 1, 71, 0
7, 18450, Note_on_c, 1, 72, 76
7, 18479, Note_on_c, 1, 72, 0
7, 18480, Note_on_c, 1, 71, 76
7, 18509, Note_on_c, 1, 71, 0
7, 18510, Note_on_c, 1, 72, 76
7, 18539, Note_on_c, 1, 72, 0
7, 18540, Note_on_c, 1, 71, 76
7, 18569, Note_on_c, 1, 71, 0
7, 18570, Note_on_c, 1, 72, 76
7, 18599, Note_on_c, 1, 72, 0
7, 18600, Note_on_c, 1, 69, 76
7, 18644, Note_on_c, 1, 69, 0
7, 18660, Note_on_c, 1, 71, 76
7, 18704, Note_on_c, 1, 71, 0
7, 18720, Note_on_c, 1, 72, 76
7, 18944, Note_on_c, 1, 72, 0
7, 18960, Note_on_c, 1, 77, 76
7, 19064, Note_on_c, 1, 77, 0
7, 19080, Note_on_c, 1, 72, 76
7, 19184, Note_on_c, 1, 72, 0
7, 19200, Note_on_c, 1, 81, 76
7, 19424, Note_on_c, 1, 81, 0
7, 19440, Note_on_c, 1, 71, 76
7, 19544, Note_on_c, 1, 71, 0
7, 19560, Note_on_c, 1, 72, 76
7, 19664, Note_on_c, 1, 72, 0
7, 19680, Note_on_c, 1, 72, 76
7, 19709, Note_on_c, 1, 72, 0
7, 19710, Note_on_c, 1, 74, 76
7, 19739, Note_on_c, 1, 74, 0
7, 19740, Note_on_c, 1, 72, 76
7, 19769, Note_on_c, 1, 72, 0
7, 19770, Note_on_c, 1, 74, 76
7, 19799, Note_on_c, 1, 74, 0
7, 19800, Note_on_c, 1, 72, 76
7, 19829, Note_on_c, 1, 72, 0
7, 19830, Note_on_c, 1, 74, 76
7, 19859, Note_on_c, 1, 74, 0
7, 19860, Note_on_c, 1, 72, 76
7, 19889, Note_on_c, 1, 72, 0
7, 19890, Note_on_c, 1, 74, 76
7, 19919, Note_on_c, 1, 74, 0
7, 19920, Note_on_c, 1, 72, 76
7, 19949, Note_on_c, 1, 72, 0
7, 19950, Note_on_c, 1, 74, 76
7, 19979, Note_on_c, 1, 74, 0
7, 19980, Note_on_c, 1, 72, 76
7, 20009, Note_on_c, 1, 72, 0
7, 20010, Note_on_c, 1, 74, 76
7, 20039, Note_on_c, 1, 74, 0
7, 20040, Note_on_c, 1, 71, 76
7, 20084, Note_on_c, 1, 71, 0
7, 20100, Note_on_c, 1, 72, 76
7, 20144, Note_on_c, 1, 72, 0
7, 20160, Note_on_c, 1, 74, 76
7, 20384, Note_on_c, 1, 74, 0
7, 20400, Note_on_c, 1, 71, 76
7, 20504, Note_on_c, 1, 71, 0
7, 20520, Note_on_c, 1, 67, 76
7, 20624, Note_on_c, 1, 67, 0
7, 20640, Note_on_c, 1, 77, 76
7, 20864, Note_on_c, 1, 77, 0
7, 20880, Note_on_c, 1, 76, 76
7, 21104, Note_on_c, 1, 76, 0
7, 21120, Note_on_c, 1, 81, 76
7, 21224, Note_on_c, 1, 81, 0
7, 21240, Note_on_c, 1, 79, 76
7, 21344, Note_on_c, 1, 79, 0
7, 21360, Note_on_c, 1, 81, 76
7, 21464, Note_on_c, 1, 81, 0
7, 21480, Note_on_c, 1, 77, 76
7, 21584, Note_on_c, 1, 77, 0
7, 21600, Note_on_c, 1, 79, 76
7, 21824, Note_on_c, 1, 79, 0
7, 21840, Note_on_c, 1, 72, 76
7, 22064, Note_on_c, 1, 72, 0
7, 22080, Note_on_c, 1, 71, 76
7, 22304, Note_on_c, 1, 71, 0
7, 22320, Note_on_c, 1, 72, 76
7, 23024, Note_on_c, 1, 72, 0
7, 23040, Note_on_c, 1, 67, 76
7, 23264, Note_on_c, 1, 67, 0
7, 23280, Note_on_c, 1, 71, 76
7, 23384, Note_on_c, 1, 71, 0
7, 23400, Note_on_c, 1, 67, 76
7, 23504, Note_on_c, 1, 67, 0
7, 23520, Note_on_c, 1, 74, 76
7, 23744, Note_on_c, 1, 74, 0
7, 23760, Note_on_c, 1, 77, 76
7, 23984, Note_on_c, 1, 77, 0
7, 24000, Note_on_c, 1, 74, 76
7, 24029, Note_on_c, 1, 74, 0
7, 24030, Note_on_c, 1, 76, 76
7, 24059, Note_on_c, 1, 76, 0
7, 24060, Note_on_c, 1, 74, 76
7, 24089, Note_on_c, 1, 74, 0
7, 24090, Note_on_c, 1, 76, 76
7, 24119, Note_on_c, 1, 76, 0
7, 24120, Note_on_c, 1, 74, 76
7, 24149, Note_on_c, 1, 74, 0
7, 24150, Note_on_c, 1, 76, 76
7, 24179, Note_on_c, 1, 76, 0
7, 24180, Note_on_c, 1, 74, 76
7, 24209, Note_on_c, 1, 74, 0
7, 24210, Note_on_c, 1, 76, 76
7, 24239, Note_on_c, 1, 76, 0
7, 24240, Note_on_c, 1, 74, 76
7, 24269, Note_on_c, 1, 74, 0
7, 24270, Note_on_c, 1, 76, 76
7, 24299, Note_on_c, 1, 76, 0
7, 24300, Note_on_c, 1, 74, 76
7, 24329, Note_on_c, 1, 74, 0
7, 24330, Note_on_c, 1, 76, 76
7, 24359, Note_on_c, 1, 76, 0
7, 24360, Note_on_c, 1, 72, 76
7, 24404, Note_on_c, 1, 72, 0
7, 24420, Note_on_c, 1, 74, 76
7, 24464, Note_on_c, 1, 74, 0
7, 24480, Note_on_c, 1, 76, 76
7, 24704, Note_on_c, 1, 76, 0
7, 24720, Note_on_c, 1, 72, 76
7, 24824, Note_on_c, 1, 72, 0
7, 24840, Note_on_c, 1, 69, 76
7, 24944, Note_on_c, 1, 69, 0
7, 24960, Note_on_c, 1, 81, 76
7, 25184, Note_on_c, 1, 81, 0
7, 25200, Note_on_c, 1, 80, 76
7, 25319, Note_on_c, 1, 80, 0
7, 25320, Note_on_c, 1, 81, 76
7, 25439, Note_on_c, 1, 81, 0
7, 25440, Note_on_c, 1, 83, 76
7, 25544, Note_on_c, 1, 83, 0
7, 25560, Note_on_c, 1, 80, 76
7, 25664, Note_on_c, 1, 80, 0
7, 25680, Note_on_c, 1, 76, 76
7, 25784, Note_on_c, 1, 76, 0
7, 25800, Note_on_c, 1, 74, 76
7, 25904, Note_on_c, 1, 74, 0
7, 25920, Note_on_c, 1, 72, 76
7, 26144, Note_on_c, 1, 72, 0
7, 26160, Note_on_c, 1, 76, 76
7, 26264, Note_on_c, 1, 76, 0
7, 26280, Note_on_c, 1, 72, 76
7, 26384, Note_on_c, 1, 72, 0
7, 26400, Note_on_c, 1, 81, 76
7, 26624, Note_on_c, 1, 81, 0
7, 26640, Note_on_c, 1, 71, 76
7, 26744, Note_on_c, 1, 71, 0
7, 26760, Note_on_c, 1, 72, 76
7, 26864, Note_on_c, 1, 72, 0
7, 26880, Note_on_c, 1, 74, 76
7, 27224, Note_on_c, 1, 74, 0
7, 27240, Note_on_c, 1, 77, 76
7, 27344, Note_on_c, 1, 77, 0
7, 27360, Note_on_c, 1, 76, 76
7, 27584, Note_on_c, 1, 76, 0
7, 27600, Note_on_c, 1, 74, 76
7, 27704, Note_on_c, 1, 74, 0
7, 27720, Note_on_c, 1, 72, 76
7, 27824, Note_on_c, 1, 72, 0
7, 27840, Note_on_c, 1, 71, 76
7, 27944, Note_on_c, 1, 71, 0
7, 27960, Note_on_c, 1, 72, 76
7, 28064, Note_on_c, 1, 72, 0
7, 28080, Note_on_c, 1, 69, 76
7, 28784, Note_on_c, 1, 69, 0
7, 28800, Note_on_c, 1, 67, 76
7, 29024, Note_on_c, 1, 67, 0
7, 29040, Note_on_c, 1, 72, 76
7, 29144, Note_on_c, 1, 72, 0
7, 29160, Note_on_c, 1, 67, 76
7, 29264, Note_on_c, 1, 67, 0
7, 29280, Note_on_c, 1, 76, 76
7, 29504, Note_on_c, 1, 76, 0
7, 29520, Note_on_c, 1, 69, 76
7, 29624, Note_on_c, 1, 69, 0
7, 29640, Note_on_c, 1, 71, 76
7, 29744, Note_on_c, 1, 71, 0
7, 29760, Note_on_c, 1, 71, 76
7, 29789, Note_on_c, 1, 71, 0
7, 29790, Note_on_c, 1, 72, 76
7, 29819, Note_on_c, 1, 72, 0
7, 29820, Note_on_c, 1, 71, 76
7, 29849, Note_on_c, 1, 71, 0
7, 29850, Note_on_c, 1, 72, 76
7, 29879, Note_on_c, 1, 72, 0
7, 29880, Note_on_c, 1, 71, 76
7, 29909, Note_on_c, 1, 71, 0
7, 29910, Note_on_c, 1, 72, 76
7, 29939, Note_on_c, 1, 72, 0
7, 29940, Note_on_c, 1, 71, 76
7, 29969, Note_on_c, 1, 71, 0
7, 29970, Note_on_c, 1, 72, 76
7, 29999, Note_on_c, 1, 72, 0
7, 30000, Note_on_c, 1, 71, 76
7, 30029, Note_on_c, 1, 71, 0
7, 30030, Note_on_c, 1, 72, 76
7, 30059, Note_on_c, 1, 72, 0
7, 30060, Note_on_c, 1, 71, 76
7, 30089, Note_on_c, 1, 71, 0
7, 30090, Note_on_c, 1, 72, 76
7, 30119, Note_on_c, 1, 72, 0
7, 30120, Note_on_c, 1, 69, 76
7, 30164, Note_on_c, 1, 69, 0
7, 30180, Note_on_c, 1, 71, 76
7, 30224, Note_on_c, 1, 71, 0
7, 30240, Note_on_c, 1, 72, 76
7, 30464, Note_on_c, 1, 72, 0
7, 30480, Note_on_c, 1, 77, 76
7, 30584, Note_on_c, 1, 77, 0
7, 30600, Note_on_c, 1, 72, 76
7, 30704, Note_on_c, 1, 72, 0
7, 30720, Note_on_c, 1, 81, 76
7, 30944, Note_on_c, 1, 81, 0
7, 30960, Note_on_c, 1, 71, 76
7, 31064, Note_on_c, 1, 71, 0
7, 31080, Note_on_c, 1, 72, 76
7, 31184, Note_on_c, 1, 72, 0
7, 31200, Note_on_c, 1, 72, 76
7, 31229, Note_on_c, 1, 72, 0
7, 31230, Note_on_c, 1, 74, 76
7, 31259, Note_on_c, 1, 74, 0
7, 31260, Note_on_c, 1, 72, 76
7, 31289, Note_on_c, 1, 72, 0
7, 31290, Note_on_c, 1, 74, 76
7, 31319, Note_on_c, 1, 74, 0
7, 31320, Note_on_c, 1, 72, 76
7, 31349, Note_on_c, 1, 72, 0
7, 31350, Note_on_c, 1, 74, 76
7, 31379, Note_on_c, 1, 74, 0
7, 31380, Note_on_c, 1, 72, 76
7, 31409, Note_on_c, 1, 72, 0
7, 31410, Note_on_c, 1, 74, 76
7, 31439, Note_on_c, 1, 74, 0
7, 31440, Note_on_c, 1, 72, 76
7, 31469, Note_on_c, 1, 72, 0
7, 31470, Note_on_c, 1, 74, 76
7, 31499, Note_on_c, 1, 74, 0
7, 31500, Note_on_c, 1, 72, 76
7, 31529, Note_on_c, 1, 72, 0
7, 31530, Note_on_c, 1, 74, 76
7, 31559, Note_on_c, 1, 74, 0
7, 31560, Note_on_c, 1, 71, 76
7, 31604, Note_on_c, 1, 71, 0
7, 31620, Note_on_c, 1, 72, 76
7, 31664, Note_on_c, 1, 72, 0
7, 31680, Note_on_c, 1, 74, 76
7, 31904, Note_on_c, 1, 74, 0
7, 31920, Note_on_c, 1, 71, 76
7, 32024, Note_on_c, 1, 71, 0
7, 32040, Note_on_c, 1, 67, 76
7, 32144, Note_on_c, 1, 67, 0
7, 32160, Note_on_c, 1, 77, 76
7, 32384, Note_on_c, 1, 77, 0
7, 32400, Note_on_c, 1, 76, 76
7, 32624, Note_on_c, 1, 76, 0
7, 32640, Note_on_c, 1, 81, 76
7, 32744, Note_on_c, 1, 81, 0
7, 32760, Note_on_c, 1, 79, 76
7, 32864, Note_on_c, 1, 79, 0
7, 32880, Note_on_c, 1, 81, 76
7, 32984, Note_on_c, 1, 81, 0
7, 33000, Note_on_c, 1, 77, 76
7, 33104, Note_on_c, 1, 77, 0
7, 33120, Note_on_c, 1, 79, 76
7, 33344, Note_on_c, 1, 79, 0
7, 33360, Note_on_c, 1, 72, 76
7, 33584, Note_on_c, 1, 72, 0
7, 33600, Note_on_c, 1, 71, 76
7, 33824, Note_on_c, 1, 71, 0
7, 33840, Note_on_c, 1, 72, 76
7, 34559, Note_on_c, 1, 72, 0
7, 69600, Note_on_c, 1, 72, 76
7, 69824, Note_on_c, 1, 72, 0
7, 69840, Note_on_c, 1, 76, 76
7, 69944, Note_on_c, 1, 76, 0
7, 69960, Note_on_c, 1, 72, 76
7, 70064, Note_on_c, 1, 72, 0
7, 70080, Note_on_c, 1, 79, 76
7, 70304, Note_on_c, 1, 79, 0
7, 70320, Note_on_c, 1, 81, 76
7, 70544, Note_on_c, 1, 81, 0
7, 70560, Note_on_c, 1, 77, 76
7, 70904, Note_on_c, 1, 77, 0
7, 70920, Note_on_c, 1, 76, 76
7, 70964, Note_on_c, 1, 76, 0
7, 70980, Note_on_c, 1, 77, 76
7, 71024, Note_on_c, 1, 77, 0
7, 71040, Note_on_c, 1, 79, 76
7, 71264, Note_on_c, 1, 79, 0
7, 71280, Note_on_c, 1, 76, 76
7, 71384, Note_on_c, 1, 76, 0
7, 71400, Note_on_c, 1, 72, 76
7, 71504, Note_on_c, 1, 72, 0
7, 71520, Note_on_c, 1, 77, 76
7, 71744, Note_on_c, 1, 77, 0
7, 71760, Note_on_c, 1, 74, 76
7, 71864, Note_on_c, 1, 74, 0
7, 71880, Note_on_c, 1, 72, 76
7, 71984, Note_on_c, 1, 72, 0
7, 72000, Note_on_c, 1, 74, 76
7, 72104, Note_on_c, 1, 74, 0
7, 72120, Note_on_c, 1, 76, 76
7, 72224, Note_on_c, 1, 76, 0
7, 72240, Note_on_c, 1, 77, 76
7, 72344, Note_on_c, 1, 77, 0
7, 72360, Note_on_c, 1, 74, 76
7, 72464, Note_on_c, 1, 74, 0
7, 72480, Note_on_c, 1, 76, 76
7, 72704, Note_on_c, 1, 76, 0
7, 72720, Note_on_c, 1, 79, 76
7, 72824, Note_on_c, 1, 79, 0
7, 72840, Note_on_c, 1, 76, 76
7, 72944, Note_on_c, 1, 76, 0
7, 72960, Note_on_c, 1, 84, 76
7, 73154, Note_on_c, 1, 84, 0
7, 73170, Note_on_c, 1, 79, 76
7, 73199, Note_on_c, 1, 79, 0
7, 73200, Note_on_c, 1, 78, 76
7, 73424, Note_on_c, 1, 78, 0
7, 73440, Note_on_c, 1, 76, 76
7, 73559, Note_on_c, 1, 76, 0
7, 73560, Note_on_c, 1, 74, 76
7, 73664, Note_on_c, 1, 74, 0
7, 73680, Note_on_c, 1, 72, 76
7, 73799, Note_on_c, 1, 72, 0
7, 73800, Note_on_c, 1, 71, 76
7, 73904, Note_on_c, 1, 71, 0
7, 73920, Note_on_c, 1, 76, 76
7, 74144, Note_on_c, 1, 76, 0
7, 74160, Note_on_c, 1, 69, 76
7, 74504, Note_on_c, 1, 69, 0
7, 74520, Note_on_c, 1, 67, 76
7, 74624, Note_on_c, 1, 67, 0
7, 74640, Note_on_c, 1, 67, 76
7, 75344, Note_on_c, 1, 67, 0
7, 75360, Note_on_c, 1, 72, 76
7, 75584, Note_on_c, 1, 72, 0
7, 75600, Note_on_c, 1, 76, 76
7, 75704, Note_on_c, 1, 76, 0
7, 75720, Note_on_c, 1, 72, 76
7, 75824, Note_on_c, 1, 72, 0
7, 75840, Note_on_c, 1, 79, 76
7, 76064, Note_on_c, 1, 79, 0
7, 76080, Note_on_c, 1, 81, 76
7, 76304, Note_on_c, 1, 81, 0
7, 76320, Note_on_c, 1, 77, 76
7, 76664, Note_on_c, 1, 77, 0
7, 76680, Note_on_c, 1, 76, 76
7, 76724, Note_on_c, 1, 76, 0
7, 76740, Note_on_c, 1, 77, 76
7, 76784, Note_on_c, 1, 77, 0
7, 76800, Note_on_c, 1, 79, 76
7, 77024, Note_on_c, 1, 79, 0
7, 77040, Note_on_c, 1, 76, 76
7, 77144, Note_on_c, 1, 76, 0
7, 77160, Note_on_c, 1, 72, 76
7, 77264, Note_on_c, 1, 72, 0
7, 77280, Note_on_c, 1, 77, 76
7, 77504, Note_on_c, 1, 77, 0
7, 77520, Note_on_c, 1, 74, 76
7, 77624, Note_on_c, 1, 74, 0
7, 77640, Note_on_c, 1, 72, 76
7, 77744, Note_on_c, 1, 72, 0
7, 77760, Note_on_c, 1, 74, 76
7, 77864, Note_on_c, 1, 74, 0
7, 77880, Note_on_c, 1, 76, 76
7, 77984, Note_on_c, 1, 76, 0
7, 78000, Note_on_c, 1, 77, 76
7, 78104, Note_on_c, 1, 77, 0
7, 78120, Note_on_c, 1, 74, 76
7, 78224, Note_on_c, 1, 74, 0
7, 78240, Note_on_c, 1, 76, 76
7, 78464, Note_on_c, 1, 76, 0
7, 78480, Note_on_c, 1, 79, 76
7, 78584, Note_on_c, 1, 79, 0
7, 78600, Note_on_c, 1, 76, 76
7, 78704, Note_on_c, 1, 76, 0
7, 78720, Note_on_c, 1, 84, 76
7, 78914, Note_on_c, 1, 84, 0
7, 78930, Note_on_c, 1, 79, 76
7, 78959, Note_on_c, 1, 79, 0
7, 78960, Note_on_c, 1, 78, 76
7, 79184, Note_on_c, 1, 78, 0
7, 79200, Note_on_c, 1, 76, 76
7, 79319, Note_on_c, 1, 76, 0
7, 79320, Note_on_c, 1, 74, 76
7, 79424, Note_on_c, 1, 74, 0
7, 79440, Note_on_c, 1, 72, 76
7, 79559, Note_on_c, 1, 72, 0
7, 79560, Note_on_c, 1, 71, 76
7, 79664, Note_on_c, 1, 71, 0
7, 79680, Note_on_c, 1, 76, 76
7, 79904, Note_on_c, 1, 76, 0
7, 79920, Note_on_c, 1, 69, 76
7, 80264, Note_on_c, 1, 69, 0
7, 80280, Note_on_c, 1, 67, 76
7, 80384, Note_on_c, 1, 67, 0
7, 80400, Note_on_c, 1, 67, 76
7, 81104, Note_on_c, 1, 67, 0
7, 81120, Note_on_c, 1, 67, 76
7, 81344, Note_on_c, 1, 67, 0
7, 81360, Note_on_c, 1, 71, 76
7, 81464, Note_on_c, 1, 71, 0
7, 81480, Note_on_c, 1, 67, 76
7, 81584, Note_on_c, 1, 67, 0
7, 81600, Note_on_c, 1, 74, 76
7, 81824, Note_on_c, 1, 74, 0
7, 81840, Note_on_c, 1, 77, 76
7, 82064, Note_on_c, 1, 77, 0
7, 82080, Note_on_c, 1, 74, 76
7, 82109, Note_on_c, 1, 74, 0
7, 82110, Note_on_c, 1, 76, 76
7, 82139, Note_on_c, 1, 76, 0
7, 82140, Note_on_c, 1, 74, 76
7, 82169, Note_on_c, 1, 74, 0
7, 82170, Note_on_c, 1, 76, 76
7, 82199, Note_on_c, 1, 76, 0
7, 82200, Note_on_c, 1, 74, 76
7, 82229, Note_on_c, 1, 74, 0
7, 82230, Note_on_c, 1, 76, 76
7, 82259, Note_on_c, 1, 76, 0
7, 82260, Note_on_c, 1, 74, 76
7, 82289, Note_on_c, 1, 74, 0
7, 82290, Note_on_c, 1, 76, 76
7, 82319, Note_on_c, 1, 76, 0
7, 82320, Note_on_c, 1, 74, 76
7, 82349, Note_on_c, 1, 74, 0
7, 82350, Note_on_c, 1, 76, 76
7, 82379, Note_on_c, 1, 76, 0
7, 82380, Note_on_c, 1, 74, 76
7, 82409, Note_on_c, 1, 74, 0
7, 82410, Note_on_c, 1, 76, 76
7, 82439, Note_on_c, 1, 76, 0
7, 82440, Note_on_c, 1, 72, 76
7, 82484, Note_on_c, 1, 72, 0
7, 82500, Note_on_c, 1, 74, 76
7, 82544, Note_on_c, 1, 74, 0
7, 82560, Note_on_c, 1, 76, 76
7, 82784, Note_on_c, 1, 76, 0
7, 82800, Note_on_c, 1, 72, 76
7, 82904, Note_on_c, 1, 72, 0
7, 82920, Note_on_c, 1, 69, 76
7, 83024, Note_on_c, 1, 69, 0
7, 83040, Note_on_c, 1, 81, 76
7, 83264, Note_on_c, 1, 81, 0
7, 83280, Note_on_c, 1, 80, 76
7, 83399, Note_on_c, 1, 80, 0
7, 83400, Note_on_c, 1, 81, 76
7, 83519, Note_on_c, 1, 81, 0
7, 83520, Note_on_c, 1, 83, 76
7, 83624, Note_on_c, 1, 83, 0
7, 83640, Note_on_c, 1, 80, 76
7, 83744, Note_on_c, 1, 80, 0
7, 83760, Note_on_c, 1, 76, 76
7, 83864, Note_on_c, 1, 76, 0
7, 83880, Note_on_c, 1, 74, 76
7, 83984, Note_on_c, 1, 74, 0
7, 84000, Note_on_c, 1, 72, 76
7, 84224, Note_on_c, 1, 72, 0
7, 84240, Note_on_c, 1, 76, 76
7, 84344, Note_on_c, 1, 76, 0
7, 84360, Note_on_c, 1, 72, 76
7, 84464, Note_on_c, 1, 72, 0
7, 84480, Note_on_c, 1, 81, 76
7, 84704, Note_on_c, 1, 81, 0
7, 84720, Note_on_c, 1, 71, 76
7, 84824, Note_on_c, 1, 71, 0
7, 84840, Note_on_c, 1, 72, 76
7, 84944, Note_on_c, 1, 72, 0
7, 84960, Note_on_c, 1, 74, 76
7, 85304, Note_on_c, 1, 74, 0
7, 85320, Note_on_c, 1, 77, 76
7, 85424, Note_on_c, 1, 77, 0
7, 85440, Note_on_c, 1, 76, 76
7, 85664, Note_on_c, 1, 76, 0
7, 85680, Note_on_c, 1, 74, 76
7, 85784, Note_on_c, 1, 74, 0
7, 85800, Note_on_c, 1, 72, 76
7, 85904, Note_on_c, 1, 72, 0
7, 85920, Note_on_c, 1, 71, 76
7, 86024, Note_on_c, 1, 71, 0
7, 86040, Note_on_c, 1, 72, 76
7, 86144, Note_on_c, 1, 72, 0
7, 86160, Note_on_c, 1, 69, 76
7, 86864, Note_on_c, 1, 69, 0
7, 86880, Note_on_c, 1, 67, 76
7, 87104, Note_on_c, 1, 67, 0
7, 87120, Note_on_c, 1, 72, 76
7, 87224, Note_on_c, 1, 72, 0
7, 87240, Note_on_c, 1, 67, 76
7, 87344, Note_on_c, 1, 67, 0
7, 87360, Note_on_c, 1, 76, 76
7, 87584, Note_on_c, 1, 76, 0
7, 87600, Note_on_c, 1, 69, 76
7, 87704, Note_on_c, 1, 69, 0
7, 87720, Note_on_c, 1, 71, 76
7, 87824, Note_on_c, 1, 71, 0
7, 87840, Note_on_c, 1, 71, 76
7, 87869, Note_on_c, 1, 71, 0
7, 87870, Note_on_c, 1, 72, 76
7, 87899, Note_on_c, 1, 72, 0
7, 87900, Note_on_c, 1, 71, 76
7, 87929, Note_on_c, 1, 71, 0
7, 87930, Note_on_c, 1, 72, 76
7, 87959, Note_on_c, 1, 72, 0
7, 87960, Note_on_c, 1, 71, 76
7, 87989, Note_on_c, 1, 71, 0
7, 87990, Note_on_c, 1, 72, 76
7, 88019, Note_on_c, 1, 72, 0
7, 88020, Note_on_c, 1, 71, 76
7, 88049, Note_on_c, 1, 71, 0
7, 88050, Note_on_c, 1, 72, 76
7, 88079, Note_on_c, 1, 72, 0
7, 88080, Note_on_c, 1, 71, 76
7, 88109, Note_on_c, 1, 71, 0
7, 88110, Note_on_c, 1, 72, 76
7, 88139, Note_on_c, 1, 72, 0
7, 88140, Note_on_c, 1, 71, 76
7, 88169, Note_on_c, 1, 71, 0
7, 88170, Note_on_c, 1, 72, 76
7, 88199, Note_on_c, 1, 72, 0
7, 88200, Note_on_c, 1, 69, 76
7, 88244, Note_on_c, 1, 69, 0
7, 88260, Note_on_c, 1, 71, 76
7, 88304, Note_on_c, 1, 71, 0
7, 88320, Note_on_c, 1, 72, 76
7, 88544, Note_on_c, 1, 72, 0
7, 88560, Note_on_c, 1, 77, 76
7, 88664, Note_on_c, 1, 77, 0
7, 88680, Note_on_c, 1, 72, 76
7, 88784, Note_on_c, 1, 72, 0
7, 88800, Note_on_c, 1, 81, 76
7, 89024, Note_on_c, 1, 81, 0
7, 89040, Note_on_c, 1, 71, 76
7, 89144, Note_on_c, 1, 71, 0
7, 89160, Note_on_c, 1, 72, 76
7, 89264, Note_on_c, 1, 72, 0
7, 89280, Note_on_c, 1, 72, 76
7, 89309, Note_on_c, 1, 72, 0
7, 89310, Note_on_c, 1, 74, 76
7, 89339, Note_on_c, 1, 74, 0
7, 89340, Note_on_c, 1, 72, 76
7, 89369, Note_on_c, 1, 72, 0
7, 89370, Note_on_c, 1, 74, 76
7, 89399, Note_on_c, 1, 74, 0
7, 89400, Note_on_c, 1, 72, 76
7, 89429, Note_on_c, 1, 72, 0
7, 89430, Note_on_c, 1, 74, 76
7, 89459, Note_on_c, 1, 74, 0
7, 89460, Note_on_c, 1, 72, 76
7, 89489, Note_on_c, 1, 72, 0
7, 89490, Note_on_c, 1, 74, 76
7, 89519, Note_on_c, 1, 74, 0
7, 89520, Note_on_c, 1, 72, 76
7, 89549, Note_on_c, 1, 72, 0
7, 89550, Note_on_c, 1, 74, 76
7, 89579, Note_on_c, 1, 74, 0
7, 89580, Note_on_c, 1, 72, 76
7, 89609, Note_on_c, 1, 72, 0
7, 89610, Note_on_c, 1, 74, 76
7, 89639, Note_on_c, 1, 74, 0
7, 89640, Note_on_c, 1, 71, 76
7, 89684, Note_on_c, 1, 71, 0
7, 89700, Note_on_c, 1, 72, 76
7, 89744, Note_on_c, 1, 72, 0
7, 89760, Note_on_c, 1, 74, 76
7, 89984, Note_on_c, 1, 74, 0
7, 90000, Note_on_c, 1, 71, 76
7, 90104, Note_on_c, 1, 71, 0
7, 90120, Note_on_c, 1, 67, 76
7, 90224, Note_on_c, 1, 67, 0
7, 90240, Note_on_c, 1, 77, 76
7, 90464, Note_on_c, 1, 77, 0
7, 90480, Note_on_c, 1, 76, 76
7, 90704, Note_on_c, 1, 76, 0
7, 90720, Note_on_c, 1, 81, 76
7, 90824, Note_on_c, 1, 81, 0
7, 90840, Note_on_c, 1, 79, 76
7, 90944, Note_on_c, 1, 79, 0
7, 90960, Note_on_c, 1, 81, 76
7, 91064, Note_on_c, 1, 81, 0
7, 91080, Note_on_c, 1, 77, 76
7, 91184, Note_on_c, 1, 77, 0
7, 91200, Note_on_c, 1, 79, 76
7, 91424, Note_on_c, 1, 79, 0
7, 91440, Note_on_c, 1, 72, 76
7, 91664, Note_on_c, 1, 72, 0
7, 91680, Note_on_c, 1, 71, 76
7, 91904, Note_on_c, 1, 71, 0
7, 91920, Note_on_c, 1, 72, 76
7, 92624, Note_on_c, 1, 72, 0
7, 92640, Note_on_c, 1, 67, 76
7, 92864, Note_on_c, 1, 67, 0
7, 92880, Note_on_c, 1, 71, 76
7, 92984, Note_on_c, 1, 71, 0
7, 93000, Note_on_c, 1, 67, 76
7, 93104, Note_on_c, 1, 67, 0
7, 93120, Note_on_c, 1, 74, 76
7, 93344, Note_on_c, 1, 74, 0
7, 93360, Note_on_c, 1, 77, 76
7, 93584, Note_on_c, 1, 77, 0
7, 93600, Note_on_c, 1, 74, 76
7, 93629, Note_on_c, 1, 74, 0
7, 93630, Note_on_c, 1, 76, 76
7, 93659, Note_on_c, 1, 76, 0
7, 93660, Note_on_c, 1, 74, 76
7, 93689, Note_on_c, 1, 74, 0
7, 93690, Note_on_c, 1, 76, 76
7, 93719, Note_on_c, 1, 76, 0
7, 93720, Note_on_c, 1, 74, 76
7, 93749, Note_on_c, 1, 74, 0
7, 93750, Note_on_c, 1, 76, 76
7, 93779, Note_on_c, 1, 76, 0
7, 93780, Note_on_c, 1, 74, 76
7, 93809, Note_on_c, 1, 74, 0
7, 93810, Note_on_c, 1, 76, 76
7, 93839, Note_on_c, 1, 76, 0
7, 93840, Note_on_c, 1, 74, 76
7, 93869, Note_on_c, 1, 74, 0
7, 93870, Note_on_c, 1, 76, 76
7, 93899, Note_on_c, 1, 76, 0
7, 93900, Note_on_c, 1, 74, 76
7, 93929, Note_on_c, 1, 74, 0
7, 93930, Note_on_c, 1, 76, 76
7, 93959, Note_on_c, 1, 76, 0
7, 93960, Note_on_c, 1, 72, 76
7, 94004, Note_on_c, 1, 72, 0
7, 94020, Note_on_c, 1, 74, 76
7, 94064, Note_on_c, 1, 74, 0
7, 94080, Note_on_c, 1, 76, 76
7, 94304, Note_on_c, 1, 76, 0
7, 94320, Note_on_c, 1, 72, 76
7, 94424, Note_on_c, 1, 72, 0
7, 94440, Note_on_c, 1, 69, 76
7, 94544, Note_on_c, 1, 69, 0
7, 94560, Note_on_c, 1, 81, 76
7, 94784, Note_on_c, 1, 81, 0
7, 94800, Note_on_c, 1, 80, 76
7, 94919, Note_on_c, 1, 80, 0
7, 94920, Note_on_c, 1, 81, 76
7, 95039, Note_on_c, 1, 81, 0
7, 95040, Note_on_c, 1, 83, 76
7, 95144, Note_on_c, 1, 83, 0
7, 95160, Note_on_c, 1, 80, 76
7, 95264, Note_on_c, 1, 80, 0
7, 95280, Note_on_c, 1, 76, 76
7, 95384, Note_on_c, 1, 76, 0
7, 95400, Note_on_c, 1, 74, 76
7, 95504, Note_on_c, 1, 74, 0
7, 95520, Note_on_c, 1, 72, 76
7, 95744, Note_on_c, 1, 72, 0
7, 95760, Note_on_c, 1, 76, 76
7, 95864, Note_on_c, 1, 76, 0
7, 95880, Note_on_c, 1, 72, 76
7, 95984, Note_on_c, 1, 72, 0
7, 96000, Note_on_c, 1, 81, 76
7, 96224, Note_on_c, 1, 81, 0
7, 96240, Note_on_c, 1, 71, 76
7, 96344, Note_on_c, 1, 71, 0
7, 96360, Note_on_c, 1, 72, 76
7, 96464, Note_on_c, 1, 72, 0
7, 96480, Note_on_c, 1, 74, 76
7, 96824, Note_on_c, 1, 74, 0
7, 96840, Note_on_c, 1, 77, 76
7, 96944, Note_on_c, 1, 77, 0
7, 96960, Note_on_c, 1, 76, 76
7, 97184, Note_on_c, 1, 76, 0
7, 97200, Note_on_c, 1, 74, 76
7, 97304, Note_on_c, 1, 74, 0
7, 97320, Note_on_c, 1, 72, 76
7, 97424, Note_on_c, 1, 72, 0
7, 97440, Note_on_c, 1, 71, 76
7, 97544, Note_on_c, 1, 71, 0
7, 97560, Note_on_c, 1, 72, 76
7, 97664, Note_on_c, 1, 72, 0
7, 97680, Note_on_c, 1, 69, 76
7, 98384, Note_on_c, 1, 69, 0
7, 98400, Note_on_c, 1, 67, 76
7, 98624, Note_on_c, 1, 67, 0
7, 98640, Note_on_c, 1, 72, 76
7, 98744, Note_on_c, 1, 72, 0
7, 98760, Note_on_c, 1, 67, 76
7, 98864, Note_on_c, 1, 67, 0
7, 98880, Note_on_c, 1, 76, 76
7, 99104, Note_on_c, 1, 76, 0
7, 99120, Note_on_c, 1, 69, 76
7, 99224, Note_on_c, 1, 69, 0
7, 99240, Note_on_c, 1, 71, 76
7, 99344, Note_on_c, 1, 71, 0
7, 99360, Note_on_c, 1, 71, 76
7, 99389, Note_on_c, 1, 71, 0
7, 99390, Note_on_c, 1, 72, 76
7, 99419, Note_on_c, 1, 72, 0
7, 99420, Note_on_c, 1, 71, 76
7, 99449, Note_on_c, 1, 71, 0
7, 99450, Note_on_c, 1, 72, 76
7, 99479, Note_on_c, 1, 72, 0
7, 99480, Note_on_c, 1, 71, 76
7, 99509, Note_on_c, 1, 71, 0
7, 99510, Note_on_c, 1, 72, 76
7, 99539, Note_on_c, 1, 72, 0
7, 99540, Note_on_c, 1, 71, 76
7, 99569, Note_on_c, 1, 71, 0
7, 99570, Note_on_c, 1, 72, 76
7, 99599, Note_on_c, 1, 72, 0
7, 99600, Note_on_c, 1, 71, 76
7, 99629, Note_on_c, 1, 71, 0
7, 99630, Note_on_c, 1, 72, 76
7, 99659, Note_on_c, 1, 72, 0
7, 99660, Note_on_c, 1, 71, 76
7, 99689, Note_on_c, 1, 71, 0
7, 99690, Note_on_c, 1, 72, 76
7, 99719, Note_on_c, 1, 72, 0
7, 99720, Note_on_c, 1, 69, 76
7, 99764, Note_on_c, 1, 69, 0
7, 99780, Note_on_c, 1, 71, 76
7, 99824, Note_on_c, 1, 71, 0
7, 99840, Note_on_c, 1, 72, 76
7, 100064, Note_on_c, 1, 72, 0
7, 100080, Note_on_c, 1, 77, 76
7, 100184, Note_on_c, 1, 77, 0
7, 100200, Note_on_c, 1, 72, 76
7, 100304, Note_on_c, 1, 72, 0
7, 100320, Note_on_c, 1, 81, 76
7, 100544, Note_on_c, 1, 81, 0
7, 100560, Note_on_c, 1, 71, 76
7, 100664, Note_on_c, 1, 71, 0
7, 100680, Note_on_c, 1, 72, 76
7, 100784, Note_on_c, 1, 72, 0
7, 100800, Note_on_c, 1, 72, 76
7, 100829, Note_on_c, 1, 72, 0
7, 100830, Note_on_c, 1, 74, 76
7, 100859, Note_on_c, 1, 74, 0
7, 100860, Note_on_c, 1, 72, 76
7, 100889, Note_on_c, 1, 72, 0
7, 100890, Note_on_c, 1, 74, 76
7, 100919, Note_on_c, 1, 74, 0
7, 100920, Note_on_c, 1, 72, 76
7, 100949, Note_on_c, 1, 72, 0
7, 100950, Note_on_c, 1, 74, 76
7, 100979, Note_on_c, 1, 74, 0
7, 100980, Note_on_c, 1, 72, 76
7, 101009, Note_on_c, 1, 72, 0
7, 101010, Note_on_c, 1, 74, 76
7, 101039, Note_on_c, 1, 74, 0
7, 101040, Note_on_c, 1, 72, 76
7, 101069, Note_on_c, 1, 72, 0
7, 101070, Note_on_c, 1, 74, 76
7, 101099, Note_on_c, 1, 74, 0
7, 101100, Note_on_c, 1, 72, 76
7, 101129, Note_on_c, 1, 72, 0
7, 101130, Note_on_c, 1, 74, 76
7, 101159, Note_on_c, 1, 74, 0
7, 101160, Note_on_c, 1, 71, 76
7, 101204, Note_on_c, 1, 71, 0
7, 101220, Note_on_c, 1, 72, 76
7, 101264, Note_on_c, 1, 72, 0
7, 101280, Note_on_c, 1, 74, 76
7, 101504, Note_on_c, 1, 74, 0
7, 101520, Note_on_c, 1, 71, 76
7, 101624, Note_on_c, 1, 71, 0
7, 101640, Note_on_c, 1, 67, 76
7, 101744, Note_on_c, 1, 67, 0
7, 101760, Note_on_c, 1, 77, 76
7, 101984, Note_on_c, 1, 77, 0
7, 102000, Note_on_c, 1, 76, 76
7, 102224, Note_on_c, 1, 76, 0
7, 102240, Note_on_c, 1, 81, 76
7, 102344, Note_on_c, 1, 81, 0
7, 102360, Note_on_c, 1, 79, 76
7, 102464, Note_on_c, 1, 79, 0
7, 102480, Note_on_c, 1, 81, 76
7, 102584, Note_on_c, 1, 81, 0
7, 102600, Note_on_c, 1, 77, 76
7, 102704, Note_on_c, 1, 77, 0
7, 102720, Note_on_c, 1, 79, 76
7, 102944, Note_on_c, 1, 79, 0
7, 102960, Note_on_c, 1, 72, 76
7, 103184, Note_on_c, 1, 72, 0
7, 103200, Note_on_c, 1, 71, 76
7, 103424, Note_on_c, 1, 71, 0
7, 103440, Note_on_c, 1, 72, 76
7, 104159, Note_on_c, 1, 72, 0
7, 104159, End_track
8, 0, Start_track
8, 0, Title_t, "Bassoon"
8, 0, MIDI_port, 0
8, 0, Program_c, 2, 70
8, 0, Control_c, 2, 10, 75
8, 0, Control_c, 2, 11, 127
8, 0, Control_c, 2, 7, 96
8, 0, Note_on_c, 2, 60, 76
8, 224, Note_on_c, 2, 60, 0
8, 240, Note_on_c, 2, 48, 76
8, 464, Note_on_c, 2, 48, 0
8, 480, Note_on_c, 2, 52, 76
8, 704, Note_on_c, 2, 52, 0
8, 720, Note_on_c, 2, 53, 76
8, 944, Note_on_c, 2, 53, 0
8, 960, Note_on_c, 2, 57, 76
8, 1064, Note_on_c, 2, 57, 0
8, 1080, Note_on_c, 2, 53, 76
8, 1184, Note_on_c, 2, 53, 0
8, 1200, Note_on_c, 2, 62, 76
8, 1424, Note_on_c, 2, 62, 0
8, 1440, Note_on_c, 2, 59, 76
8, 1664, Note_on_c, 2, 59, 0
8, 1680, Note_on_c, 2, 60, 76
8, 1904, Note_on_c, 2, 60, 0
8, 1920, Note_on_c, 2, 53, 76
8, 2144, Note_on_c, 2, 53, 0
8, 2160, Note_on_c, 2, 55, 76
8, 2384, Note_on_c, 2, 55, 0
8, 2400, Note_on_c, 2, 59, 76
8, 2624, Note_on_c, 2, 59, 0
8, 2640, Note_on_c, 2, 55, 76
8, 2864, Note_on_c, 2, 55, 0
8, 2880, Note_on_c, 2, 60, 76
8, 3104, Note_on_c, 2, 60, 0
8, 3120, Note_on_c, 2, 59, 76
8, 3344, Note_on_c, 2, 59, 0
8, 3360, Note_on_c, 2, 57, 76
8, 3584, Note_on_c, 2, 57, 0
8, 3600, Note_on_c, 2, 50, 76
8, 3824, Note_on_c, 2, 50, 0
8, 3840, Note_on_c, 2, 54, 76
8, 3944, Note_on_c, 2, 54, 0
8, 3960, Note_on_c, 2, 50, 76
8, 4064, Note_on_c, 2, 50, 0
8, 4080, Note_on_c, 2, 55, 76
8, 4304, Note_on_c, 2, 55, 0
8, 4320, Note_on_c, 2, 48, 76
8, 4544, Note_on_c, 2, 48, 0
8, 4560, Note_on_c, 2, 50, 76
8, 4784, Note_on_c, 2, 50, 0
8, 4800, Note_on_c, 2, 38, 76
8, 5024, Note_on_c, 2, 38, 0
8, 5040, Note_on_c, 2, 43, 76
8, 5144, Note_on_c, 2, 43, 0
8, 5160, Note_on_c, 2, 50, 76
8, 5264, Note_on_c, 2, 50, 0
8, 5280, Note_on_c, 2, 55, 76
8, 5384, Note_on_c, 2, 55, 0
8, 5400, Note_on_c, 2, 57, 76
8, 5504, Note_on_c, 2, 57, 0
8, 5520, Note_on_c, 2, 55, 76
8, 5624, Note_on_c, 2, 55, 0
8, 5640, Note_on_c, 2, 53, 76
8, 5744, Note_on_c, 2, 53, 0
8, 5760, Note_on_c, 2, 52, 76
8, 5984, Note_on_c, 2, 52, 0
8, 6000, Note_on_c, 2, 48, 76
8, 6224, Note_on_c, 2, 48, 0
8, 6240, Note_on_c, 2, 52, 76
8, 6464, Note_on_c, 2, 52, 0
8, 6480, Note_on_c, 2, 53, 76
8, 6704, Note_on_c, 2, 53, 0
8, 6720, Note_on_c, 2, 57, 76
8, 6824, Note_on_c, 2, 57, 0
8, 6840, Note_on_c, 2, 53, 76
8, 6944, Note_on_c, 2, 53, 0
8, 6960, Note_on_c, 2, 62, 76
8, 7184, Note_on_c, 2, 62, 0
8, 7200, Note_on_c, 2, 59, 76
8, 7424, Note_on_c, 2, 59, 0
8, 7440, Note_on_c, 2, 60, 76
8, 7664, Note_on_c, 2, 60, 0
8, 7680, Note_on_c, 2, 53, 76
8, 7904, Note_on_c, 2, 53, 0
8, 7920, Note_on_c, 2, 55, 76
8, 8144, Note_on_c, 2, 55, 0
8, 8160, Note_on_c, 2, 59, 76
8, 8384, Note_on_c, 2, 59, 0
8, 8400, Note_on_c, 2, 55, 76
8, 8624, Note_on_c, 2, 55, 0
8, 8640, Note_on_c, 2, 60, 76
8, 8864, Note_on_c, 2, 60, 0
8, 8880, Note_on_c, 2, 59, 76
8, 9104, Note_on_c, 2, 59, 0
8, 9120, Note_on_c, 2, 57, 76
8, 9344, Note_on_c, 2, 57, 0
8, 9360, Note_on_c, 2, 50, 76
8, 9584, Note_on_c, 2, 50, 0
8, 9600, Note_on_c, 2, 54, 76
8, 9704, Note_on_c, 2, 54, 0
8, 9720, Note_on_c, 2, 50, 76
8, 9824, Note_on_c, 2, 50, 0
8, 9840, Note_on_c, 2, 55, 76
8, 10064, Note_on_c, 2, 55, 0
8, 10080, Note_on_c, 2, 48, 76
8, 10304, Note_on_c, 2, 48, 0
8, 10320, Note_on_c, 2, 50, 76
8, 10544, Note_on_c, 2, 50, 0
8, 10560, Note_on_c, 2, 38, 76
8, 10784, Note_on_c, 2, 38, 0
8, 10800, Note_on_c, 2, 43, 76
8, 11024, Note_on_c, 2, 43, 0
8, 11040, Note_on_c, 2, 47, 76
8, 11264, Note_on_c, 2, 47, 0
8, 11280, Note_on_c, 2, 50, 76
8, 11504, Note_on_c, 2, 50, 0
8, 11520, Note_on_c, 2, 55, 76
8, 11744, Note_on_c, 2, 55, 0
8, 11760, Note_on_c, 2, 50, 76
8, 11984, Note_on_c, 2, 50, 0
8, 12000, Note_on_c, 2, 47, 76
8, 12224, Note_on_c, 2, 47, 0
8, 12240, Note_on_c, 2, 44, 76
8, 12464, Note_on_c, 2, 44, 0
8, 12480, Note_on_c, 2, 47, 76
8, 12584, Note_on_c, 2, 47, 0
8, 12600, Note_on_c, 2, 44, 76
8, 12704, Note_on_c, 2, 44, 0
8, 12720, Note_on_c, 2, 52, 76
8, 12944, Note_on_c, 2, 52, 0
8, 12960, Note_on_c, 2, 48, 76
8, 13184, Note_on_c, 2, 48, 0
8, 13200, Note_on_c, 2, 53, 76
8, 13424, Note_on_c, 2, 53, 0
8, 13440, Note_on_c, 2, 50, 76
8, 13664, Note_on_c, 2, 50, 0
8, 13680, Note_on_c, 2, 52, 76
8, 13904, Note_on_c, 2, 52, 0
8, 13920, Note_on_c, 2, 56, 76
8, 14024, Note_on_c, 2, 56, 0
8, 14040, Note_on_c, 2, 52, 76
8, 14144, Note_on_c, 2, 52, 0
8, 14160, Note_on_c, 2, 64, 76
8, 14384, Note_on_c, 2, 64, 0
8, 14400, Note_on_c, 2, 57, 76
8, 14624, Note_on_c, 2, 57, 0
8, 14640, Note_on_c, 2, 45, 76
8, 14864, Note_on_c, 2, 45, 0
8, 14880, Note_on_c, 2, 48, 76
8, 15104, Note_on_c, 2, 48, 0
8, 15120, Note_on_c, 2, 50, 76
8, 15344, Note_on_c, 2, 50, 0
8, 15360, Note_on_c, 2, 53, 76
8, 15464, Note_on_c, 2, 53, 0
8, 15480, Note_on_c, 2, 50, 76
8, 15584, Note_on_c, 2, 50, 0
8, 15600, Note_on_c, 2, 56, 76
8, 15824, Note_on_c, 2, 56, 0
8, 15840, Note_on_c, 2, 57, 76
8, 16064, Note_on_c, 2, 57, 0
8, 16080, Note_on_c, 2, 50, 76
8, 16304, Note_on_c, 2, 50, 0
8, 16320, Note_on_c, 2, 52, 76
8, 16544, Note_on_c, 2, 52, 0
8, 16560, Note_on_c, 2, 45, 76
8, 16784, Note_on_c, 2, 45, 0
8, 16800, Note_on_c, 2, 48, 76
8, 16904, Note_on_c, 2, 48, 0
8, 16920, Note_on_c, 2, 45, 76
8, 17024, Note_on_c, 2, 45, 0
8, 17040, Note_on_c, 2, 53, 76
8, 17264, Note_on_c, 2, 53, 0
8, 17280, Note_on_c, 2, 52, 76
8, 17504, Note_on_c, 2, 52, 0
8, 17520, Note_on_c, 2, 48, 76
8, 17744, Note_on_c, 2, 48, 0
8, 17760, Note_on_c, 2, 60, 76
8, 17984, Note_on_c, 2, 60, 0
8, 18000, Note_on_c, 2, 53, 76
8, 18104, Note_on_c, 2, 53, 0
8, 18120, Note_on_c, 2, 52, 76
8, 18224, Note_on_c, 2, 52, 0
8, 18240, Note_on_c, 2, 53, 76
8, 18344, Note_on_c, 2, 53, 0
8, 18360, Note_on_c, 2, 50, 76
8, 18464, Note_on_c, 2, 50, 0
8, 18480, Note_on_c, 2, 55, 76
8, 18704, Note_on_c, 2, 55, 0
8, 18720, Note_on_c, 2, 52, 76
8, 18944, Note_on_c, 2, 52, 0
8, 18960, Note_on_c, 2, 57, 76
8, 19184, Note_on_c, 2, 57, 0
8, 19200, Note_on_c, 2, 53, 76
8, 19424, Note_on_c, 2, 53, 0
8, 19440, Note_on_c, 2, 55, 76
8, 19664, Note_on_c, 2, 55, 0
8, 19680, Note_on_c, 2, 64, 76
8, 19784, Note_on_c, 2, 64, 0
8, 19800, Note_on_c, 2, 62, 76
8, 19904, Note_on_c, 2, 62, 0
8, 19920, Note_on_c, 2, 64, 76
8, 20024, Note_on_c, 2, 64, 0
8, 20040, Note_on_c, 2, 60, 76
8, 20144, Note_on_c, 2, 60, 0
8, 20160, Note_on_c, 2, 59, 76
8, 20384, Note_on_c, 2, 59, 0
8, 20400, Note_on_c, 2, 55, 76
8, 20624, Note_on_c, 2, 55, 0
8, 20640, Note_on_c, 2, 59, 76
8, 20864, Note_on_c, 2, 59, 0
8, 20880, Note_on_c, 2, 48, 76
8, 21104, Note_on_c, 2, 48, 0
8, 21120, Note_on_c, 2, 53, 76
8, 21224, Note_on_c, 2, 53, 0
8, 21240, Note_on_c, 2, 50, 76
8, 21344, Note_on_c, 2, 50, 0
8, 21360, Note_on_c, 2, 59, 76
8, 21584, Note_on_c, 2, 59, 0
8, 21600, Note_on_c, 2, 52, 76
8, 21824, Note_on_c, 2, 52, 0
8, 21840, Note_on_c, 2, 53, 76
8, 22064, Note_on_c, 2, 53, 0
8, 22080, Note_on_c, 2, 55, 76
8, 22304, Note_on_c, 2, 55, 0
8, 22320, Note_on_c, 2, 48, 76
8, 22424, Note_on_c, 2, 48, 0
8, 22440, Note_on_c, 2, 47, 76
8, 22544, Note_on_c, 2, 47, 0
8, 22560, Note_on_c, 2, 48, 76
8, 22664, Note_on_c, 2, 48, 0
8, 22680, Note_on_c, 2, 50, 76
8, 22784, Note_on_c, 2, 50, 0
8, 22800, Note_on_c, 2, 52, 76
8, 22904, Note_on_c, 2, 52, 0
8, 22920, Note_on_c, 2, 53, 76
8, 23024, Note_on_c, 2, 53, 0
8, 23040, Note_on_c, 2, 55, 76
8, 23264, Note_on_c, 2, 55, 0
8, 23280, Note_on_c, 2, 50, 76
8, 23504, Note_on_c, 2, 50, 0
8, 23520, Note_on_c, 2, 47, 76
8, 23744, Note_on_c, 2, 47, 0
8, 23760, Note_on_c, 2, 44, 76
8, 23984, Note_on_c, 2, 44, 0
8, 24000, Note_on_c, 2, 47, 76
8, 24104, Note_on_c, 2, 47, 0
8, 24120, Note_on_c, 2, 44, 76
8, 24224, Note_on_c, 2, 44, 0
8, 24240, Note_on_c, 2, 52, 76
8, 24464, Note_on_c, 2, 52, 0
8, 24480, Note_on_c, 2, 48, 76
8, 24704, Note_on_c, 2, 48, 0
8, 24720, Note_on_c, 2, 53, 76
8, 24944, Note_on_c, 2, 53, 0
8, 24960, Note_on_c, 2, 50, 76
8, 25184, Note_on_c, 2, 50, 0
8, 25200, Note_on_c, 2, 52, 76
8, 25424, Note_on_c, 2, 52, 0
8, 25440, Note_on_c, 2, 56, 76
8, 25544, Note_on_c, 2, 56, 0
8, 25560, Note_on_c, 2, 52, 76
8, 25664, Note_on_c, 2, 52, 0
8, 25680, Note_on_c, 2, 64, 76
8, 25904, Note_on_c, 2, 64, 0
8, 25920, Note_on_c, 2, 57, 76
8, 26144, Note_on_c, 2, 57, 0
8, 26160, Note_on_c, 2, 45, 76
8, 26384, Note_on_c, 2, 45, 0
8, 26400, Note_on_c, 2, 48, 76
8, 26624, Note_on_c, 2, 48, 0
8, 26640, Note_on_c, 2, 50, 76
8, 26864, Note_on_c, 2, 50, 0
8, 26880, Note_on_c, 2, 53, 76
8, 26984, Note_on_c, 2, 53, 0
8, 27000, Note_on_c, 2, 50, 76
8, 27104, Note_on_c, 2, 50, 0
8, 27120, Note_on_c, 2, 56, 76
8, 27344, Note_on_c, 2, 56, 0
8, 27360, Note_on_c, 2, 57, 76
8, 27584, Note_on_c, 2, 57, 0
8, 27600, Note_on_c, 2, 50, 76
8, 27824, Note_on_c, 2, 50, 0
8, 27840, Note_on_c, 2, 52, 76
8, 28064, Note_on_c, 2, 52, 0
8, 28080, Note_on_c, 2, 45, 76
8, 28304, Note_on_c, 2, 45, 0
8, 28320, Note_on_c, 2, 48, 76
8, 28424, Note_on_c, 2, 48, 0
8, 28440, Note_on_c, 2, 45, 76
8, 28544, Note_on_c, 2, 45, 0
8, 28560, Note_on_c, 2, 53, 76
8, 28784, Note_on_c, 2, 53, 0
8, 28800, Note_on_c, 2, 52, 76
8, 29024, Note_on_c, 2, 52, 0
8, 29040, Note_on_c, 2, 48, 76
8, 29264, Note_on_c, 2, 48, 0
8, 29280, Note_on_c, 2, 60, 76
8, 29504, Note_on_c, 2, 60, 0
8, 29520, Note_on_c, 2, 53, 76
8, 29624, Note_on_c, 2, 53, 0
8, 29640, Note_on_c, 2, 52, 76
8, 29744, Note_on_c, 2, 52, 0
8, 29760, Note_on_c, 2, 53, 76
8, 29864, Note_on_c, 2, 53, 0
8, 29880, Note_on_c, 2, 50, 76
8, 29984, Note_on_c, 2, 50, 0
8, 30000, Note_on_c, 2, 55, 76
8, 30224, Note_on_c, 2, 55, 0
8, 30240, Note_on_c, 2, 52, 76
8, 30464, Note_on_c, 2, 52, 0
8, 30480, Note_on_c, 2, 57, 76
8, 30704, Note_on_c, 2, 57, 0
8, 30720, Note_on_c, 2, 53, 76
8, 30944, Note_on_c, 2, 53, 0
8, 30960, Note_on_c, 2, 55, 76
8, 31184, Note_on_c, 2, 55, 0
8, 31200, Note_on_c, 2, 64, 76
8, 31304, Note_on_c, 2, 64, 0
8, 31320, Note_on_c, 2, 62, 76
8, 31424, Note_on_c, 2, 62, 0
8, 31440, Note_on_c, 2, 64, 76
8, 31544, Note_on_c, 2, 64, 0
8, 31560, Note_on_c, 2, 60, 76
8, 31664, Note_on_c, 2, 60, 0
8, 31680, Note_on_c, 2, 59, 76
8, 31904, Note_on_c, 2, 59, 0
8, 31920, Note_on_c, 2, 55, 76
8, 32144, Note_on_c, 2, 55, 0
8, 32160, Note_on_c, 2, 59, 76
8, 32384, Note_on_c, 2, 59, 0
8, 32400, Note_on_c, 2, 48, 76
8, 32624, Note_on_c, 2, 48, 0
8, 32640, Note_on_c, 2, 53, 76
8, 32744, Note_on_c, 2, 53, 0
8, 32760, Note_on_c, 2, 50, 76
8, 32864, Note_on_c, 2, 50, 0
8, 32880, Note_on_c, 2, 59, 76
8, 33104, Note_on_c, 2, 59, 0
8, 33120, Note_on_c, 2, 52, 76
8, 33344, Note_on_c, 2, 52, 0
8, 33360, Note_on_c, 2, 53, 76
8, 33584, Note_on_c, 2, 53, 0
8, 33600, Note_on_c, 2, 55, 76
8, 33824, Note_on_c, 2, 55, 0
8, 33840, Note_on_c, 2, 48, 76
8, 34559, Note_on_c, 2, 48, 0
8, 69600, Note_on_c, 2, 60, 76
8, 69824, Note_on_c, 2, 60, 0
8, 69840, Note_on_c, 2, 48, 76
8, 70064, Note_on_c, 2, 48, 0
8, 70080, Note_on_c, 2, 52, 76
8, 70304, Note_on_c, 2, 52, 0
8, 70320, Note_on_c, 2, 53, 76
8, 70544, Note_on_c, 2, 53, 0
8, 70560, Note_on_c, 2, 57, 76
8, 70664, Note_on_c, 2, 57, 0
8, 70680, Note_on_c, 2, 53, 76
8, 70784, Note_on_c, 2, 53, 0
8, 70800, Note_on_c, 2, 62, 76
8, 71024, Note_on_c, 2, 62, 0
8, 71040, Note_on_c, 2, 59, 76
8, 71264, Note_on_c, 2, 59, 0
8, 71280, Note_on_c, 2, 60, 76
8, 71504, Note_on_c, 2, 60, 0
8, 71520, Note_on_c, 2, 53, 76
8, 71744, Note_on_c, 2, 53, 0
8, 71760, Note_on_c, 2, 55, 76
8, 71984, Note_on_c, 2, 55, 0
8, 72000, Note_on_c, 2, 59, 76
8, 72224, Note_on_c, 2, 59, 0
8, 72240, Note_on_c, 2, 55, 76
8, 72464, Note_on_c, 2, 55, 0
8, 72480, Note_on_c, 2, 60, 76
8, 72704, Note_on_c, 2, 60, 0
8, 72720, Note_on_c, 2, 59, 76
8, 72944, Note_on_c, 2, 59, 0
8, 72960, Note_on_c, 2, 57, 76
8, 73184, Note_on_c, 2, 57, 0
8, 73200, Note_on_c, 2, 50, 76
8, 73424, Note_on_c, 2, 50, 0
8, 73440, Note_on_c, 2, 54, 76
8, 73544, Note_on_c, 2, 54, 0
8, 73560, Note_on_c, 2, 50, 76
8, 73664, Note_on_c, 2, 50, 0
8, 73680, Note_on_c, 2, 55, 76
8, 73904, Note_on_c, 2, 55, 0
8, 73920, Note_on_c, 2, 48, 76
8, 74144, Note_on_c, 2, 48, 0
8, 74160, Note_on_c, 2, 50, 76
8, 74384, Note_on_c, 2, 50, 0
8, 74400, Note_on_c, 2, 38, 76
8, 74624, Note_on_c, 2, 38, 0
8, 74640, Note_on_c, 2, 43, 76
8, 74744, Note_on_c, 2, 43, 0
8, 74760, Note_on_c, 2, 50, 76
8, 74864, Note_on_c, 2, 50, 0
8, 74880, Note_on_c, 2, 55, 76
8, 74984, Note_on_c, 2, 55, 0
8, 75000, Note_on_c, 2, 57, 76
8, 75104, Note_on_c, 2, 57, 0
8, 75120, Note_on_c, 2, 55, 76
8, 75224, Note_on_c, 2, 55, 0
8, 75240, Note_on_c, 2, 53, 76
8, 75344, Note_on_c, 2, 53, 0
8, 75360, Note_on_c, 2, 52, 76
8, 75584, Note_on_c, 2, 52, 0
8, 75600, Note_on_c, 2, 48, 76
8, 75824, Note_on_c, 2, 48, 0
8, 75840, Note_on_c, 2, 52, 76
8, 76064, Note_on_c, 2, 52, 0
8, 76080, Note_on_c, 2, 53, 76
8, 76304, Note_on_c, 2, 53, 0
8, 76320, Note_on_c, 2, 57, 76
8, 76424, Note_on_c, 2, 57, 0
8, 76440, Note_on_c, 2, 53, 76
8, 76544, Note_on_c, 2, 53, 0
8, 76560, Note_on_c, 2, 62, 76
8, 76784, Note_on_c, 2, 62, 0
8, 76800, Note_on_c, 2, 59, 76
8, 77024, Note_on_c, 2, 59, 0
8, 77040, Note_on_c, 2, 60, 76
8, 77264, Note_on_c, 2, 60, 0
8, 77280, Note_on_c, 2, 53, 76
8, 77504, Note_on_c, 2, 53, 0
8, 77520, Note_on_c, 2, 55, 76
8, 77744, Note_on_c, 2, 55, 0
8, 77760, Note_on_c, 2, 59, 76
8, 77984, Note_on_c, 2, 59, 0
8, 78000, Note_on_c, 2, 55, 76
8, 78224, Note_on_c, 2, 55, 0
8, 78240, Note_on_c, 2, 60, 76
8, 78464, Note_on_c, 2, 60, 0
8, 78480, Note_on_c, 2, 59, 76
8, 78704, Note_on_c, 2, 59, 0
8, 78720, Note_on_c, 2, 57, 76
8, 78944, Note_on_c, 2, 57, 0
8, 78960, Note_on_c, 2, 50, 76
8, 79184, Note_on_c, 2, 50, 0
8, 79200, Note_on_c, 2, 54, 76
8, 79304, Note_on_c, 2, 54, 0
8, 79320, Note_on_c, 2, 50, 76
8, 79424, Note_on_c, 2, 50, 0
8, 79440, Note_on_c, 2, 55, 76
8, 79664, Note_on_c, 2, 55, 0
8, 79680, Note_on_c, 2, 48, 76
8, 79904, Note_on_c, 2, 48, 0
8, 79920, Note_on_c, 2, 50, 76
8, 80144, Note_on_c, 2, 50, 0
8, 80160, Note_on_c, 2, 38, 76
8, 80384, Note_on_c, 2, 38, 0
8, 80400, Note_on_c, 2, 43, 76
8, 80624, Note_on_c, 2, 43, 0
8, 80640, Note_on_c, 2, 47, 76
8, 80864, Note_on_c, 2, 47, 0
8, 80880, Note_on_c, 2, 50, 76
8, 81104, Note_on_c, 2, 50, 0
8, 81120, Note_on_c, 2, 55, 76
8, 81344, Note_on_c, 2, 55, 0
8, 81360, Note_on_c, 2, 50, 76
8, 81584, Note_on_c, 2, 50, 0
8, 81600, Note_on_c, 2, 47, 76
8, 81824, Note_on_c, 2, 47, 0
8, 81840, Note_on_c, 2, 44, 76
8, 82064, Note_on_c, 2, 44, 0
8, 82080, Note_on_c, 2, 47, 76
8, 82184, Note_on_c, 2, 47, 0
8, 82200, Note_on_c, 2, 44, 76
8, 82304, Note_on_c, 2, 44, 0
8, 82320, Note_on_c, 2, 52, 76
8, 82544, Note_on_c, 2, 52, 0
8, 82560, Note_on_c, 2, 48, 76
8, 82784, Note_on_c, 2, 48, 0
8, 82800, Note_on_c, 2, 53, 76
8, 83024, Note_on_c, 2, 53, 0
8, 83040, Note_on_c, 2, 50, 76
8, 83264, Note_on_c, 2, 50, 0
8, 83280, Note_on_c, 2, 52, 76
8, 83504, Note_on_c, 2, 52, 0
8, 83520, Note_on_c, 2, 56, 76
8, 83624, Note_on_c, 2, 56, 0
8, 83640, Note_on_c, 2, 52, 76
8, 83744, Note_on_c, 2, 52, 0
8, 83760, Note_on_c, 2, 64, 76
8, 83984, Note_on_c, 2, 64, 0
8, 84000, Note_on_c, 2, 57, 76
8, 84224, Note_on_c, 2, 57, 0
8, 84240, Note_on_c, 2, 45, 76
8, 84464, Note_on_c, 2, 45, 0
8, 84480, Note_on_c, 2, 48, 76
8, 84704, Note_on_c, 2, 48, 0
8, 84720, Note_on_c, 2, 50, 76
8, 84944, Note_on_c, 2, 50, 0
8, 84960, Note_on_c, 2, 53, 76
8, 85064, Note_on_c, 2, 53, 0
8, 85080, Note_on_c, 2, 50, 76
8, 85184, Note_on_c, 2, 50, 0
8, 85200, Note_on_c, 2, 56, 76
8, 85424, Note_on_c, 2, 56, 0
8, 85440, Note_on_c, 2, 57, 76
8, 85664, Note_on_c, 2, 57, 0
8, 85680, Note_on_c, 2, 50, 76
8, 85904, Note_on_c, 2, 50, 0
8, 85920, Note_on_c, 2, 52, 76
8, 86144, Note_on_c, 2, 52, 0
8, 86160, Note_on_c, 2, 45, 76
8, 86384, Note_on_c, 2, 45, 0
8, 86400, Note_on_c, 2, 48, 76
8, 86504, Note_on_c, 2, 48, 0
8, 86520, Note_on_c, 2, 45, 76
8, 86624, Note_on_c, 2, 45, 0
8, 86640, Note_on_c, 2, 53, 76
8, 86864, Note_on_c, 2, 53, 0
8, 86880, Note_on_c, 2, 52, 76
8, 87104, Note_on_c, 2, 52, 0
8, 87120, Note_on_c, 2, 48, 76
8, 87344, Note_on_c, 2, 48, 0
8, 87360, Note_on_c, 2, 60, 76
8, 87584, Note_on_c, 2, 60, 0
8, 87600, Note_on_c, 2, 53, 76
8, 87704, Note_on_c, 2, 53, 0
8, 87720, Note_on_c, 2, 52, 76
8, 87824, Note_on_c, 2, 52, 0
8, 87840, Note_on_c, 2, 53, 76
8, 87944, Note_on_c, 2, 53, 0
8, 87960, Note_on_c, 2, 50, 76
8, 88064, Note_on_c, 2, 50, 0
8, 88080, Note_on_c, 2, 55, 76
8, 88304, Note_on_c, 2, 55, 0
8, 88320, Note_on_c, 2, 52, 76
8, 88544, Note_on_c, 2, 52, 0
8, 88560, Note_on_c, 2, 57, 76
8, 88784, Note_on_c, 2, 57, 0
8, 88800, Note_on_c, 2, 53, 76
8, 89024, Note_on_c, 2, 53, 0
8, 89040, Note_on_c, 2, 55, 76
8, 89264, Note_on_c, 2, 55, 0
8, 89280, Note_on_c, 2, 64, 76
8, 89384, Note_on_c, 2, 64, 0
8, 89400, Note_on_c, 2, 62, 76
8, 89504, Note_on_c, 2, 62, 0
8, 89520, Note_on_c, 2, 64, 76
8, 89624, Note_on_c, 2, 64, 0
8, 89640, Note_on_c, 2, 60, 76
8, 89744, Note_on_c, 2, 60, 0
8, 89760, Note_on_c, 2, 59, 76
8, 89984, Note_on_c, 2, 59, 0
8, 90000, Note_on_c, 2, 55, 76
8, 90224, Note_on_c, 2, 55, 0
8, 90240, Note_on_c, 2, 59, 76
8, 90464, Note_on_c, 2, 59, 0
8, 90480, Note_on_c, 2, 48, 76
8, 90704, Note_on_c, 2, 48, 0
8, 90720, Note_on_c, 2, 53, 76
8, 90824, Note_on_c, 2, 53, 0
8, 90840, Note_on_c, 2, 50, 76
8, 90944, Note_on_c, 2, 50, 0
8, 90960, Note_on_c, 2, 59, 76
8, 91184, Note_on_c, 2, 59, 0
8, 91200, Note_on_c, 2, 52, 76
8, 91424, Note_on_c, 2, 52, 0
8, 91440, Note_on_c, 2, 53, 76
8, 91664, Note_on_c, 2, 53, 0
8, 91680, Note_on_c, 2, 55, 76
8, 91904, Note_on_c, 2, 55, 0
8, 91920, Note_on_c, 2, 48, 76
8, 92024, Note_on_c, 2, 48, 0
8, 92040, Note_on_c, 2, 47, 76
8, 92144, Note_on_c, 2, 47, 0
8, 92160, Note_on_c, 2, 48, 76
8, 92264, Note_on_c, 2, 48, 0
8, 92280, Note_on_c, 2, 50, 76
8, 92384, Note_on_c, 2, 50, 0
8, 92400, Note_on_c, 2, 52, 76
8, 92504, Note_on_c, 2, 52, 0
8, 92520, Note_on_c, 2, 53, 76
8, 92624, Note_on_c, 2, 53, 0
8, 92640, Note_on_c, 2, 55, 76
8, 92864, Note_on_c, 2, 55, 0
8, 92880, Note_on_c, 2, 50, 76
8, 93104, Note_on_c, 2, 50, 0
8, 93120, Note_on_c, 2, 47, 76
8, 93344, Note_on_c, 2, 47, 0
8, 93360, Note_on_c, 2, 44, 76
8, 93584, Note_on_c, 2, 44, 0
8, 93600, Note_on_c, 2, 47, 76
8, 93704, Note_on_c, 2, 47, 0
8, 93720, Note_on_c, 2, 44, 76
8, 93824, Note_on_c, 2, 44, 0
8, 93840, Note_on_c, 2, 52, 76
8, 94064, Note_on_c, 2, 52, 0
8, 94080, Note_on_c, 2, 48, 76
8, 94304, Note_on_c, 2, 48, 0
8, 94320, Note_on_c, 2, 53, 76
8, 94544, Note_on_c, 2, 53, 0
8, 94560, Note_on_c, 2, 50, 76
8, 94784, Note_on_c, 2, 50, 0
8, 94800, Note_on_c, 2, 52, 76
8, 95024, Note_on_c, 2, 52, 0
8, 95040, Note_on_c, 2, 56, 76
8, 95144, Note_on_c, 2, 56, 0
8, 95160, Note_on_c, 2, 52, 76
8, 95264, Note_on_c, 2, 52, 0
8, 95280, Note_on_c, 2, 64, 76
8, 95504, Note_on_c, 2, 64, 0
8, 95520, Note_on_c, 2, 57, 76
8, 95744, Note_on_c, 2, 57, 0
8, 95760, Note_on_c, 2, 45, 76
8, 95984, Note_on_c, 2, 45, 0
8, 96000, Note_on_c, 2, 48, 76
8, 96224, Note_on_c, 2, 48, 0
8, 96240, Note_on_c, 2, 50, 76
8, 96464, Note_on_c, 2, 50, 0
8, 96480, Note_on_c, 2, 53, 76
8, 96584, Note_on_c, 2, 53, 0
8, 96600, Note_on_c, 2, 50, 76
8, 96704, Note_on_c, 2, 50, 0
8, 96720, Note_on_c, 2, 56, 76
8, 96944, Note_on_c, 2, 56, 0
8, 96960, Note_on_c, 2, 57, 76
8, 97184, Note_on_c, 2, 57, 0
8, 97200, Note_on_c, 2, 50, 76
8, 97424, Note_on_c, 2, 50, 0
8, 97440, Note_on_c, 2, 52, 76
8, 97664, Note_on_c, 2, 52, 0
8, 97680, Note_on_c, 2, 45, 76
8, 97904, Note_on_c, 2, 45, 0
8, 97920, Note_on_c, 2, 48, 76
8, 98024, Note_on_c, 2, 48, 0
8, 98040, Note_on_c, 2, 45, 76
8, 98144, Note_on_c, 2, 45, 0
8, 98160, Note_on_c, 2, 53, 76
8, 98384, Note_on_c, 2, 53, 0
8, 98400, Note_on_c, 2, 52, 76
8, 98624, Note_on_c, 2, 52, 0
8, 98640, Note_on_c, 2, 48, 76
8, 98864, Note_on_c, 2, 48, 0
8, 98880, Note_on_c, 2, 60, 76
8, 99104, Note_on_c, 2, 60, 0
8, 99120, Note_on_c, 2, 53, 76
8, 99224, Note_on_c, 2, 53, 0
8, 99240, Note_on_c, 2, 52, 76
8, 99344, Note_on_c, 2, 52, 0
8, 99360, Note_on_c, 2, 53, 76
8, 99464, Note_on_c, 2, 53, 0
8, 99480, Note_on_c, 2, 50, 76
8, 99584, Note_on_c, 2, 50, 0
8, 99600, Note_on_c, 2, 55, 76
8, 99824, Note_on_c, 2, 55, 0
8, 99840, Note_on_c, 2, 52, 76
8, 100064, Note_on_c, 2, 52, 0
8, 100080, Note_on_c, 2, 57, 76
8, 100304, Note_on_c, 2, 57, 0
8, 100320, Note_on_c, 2, 53, 76
8, 100544, Note_on_c, 2, 53, 0
8, 100560, Note_on_c, 2, 55, 76
8, 100784, Note_on_c, 2, 55, 0
8, 100800, Note_on_c, 2, 64, 76
8, 100904, Note_on_c, 2, 64, 0
8, 100920, Note_on_c, 2, 62, 76
8, 101024, Note_on_c, 2, 62, 0
8, 101040, Note_on_c, 2, 64, 76
8, 101144, Note_on_c, 2, 64, 0
8, 101160, Note_on_c, 2, 60, 76
8, 101264, Note_on_c, 2, 60, 0
8, 101280, Note_on_c, 2, 59, 76
8, 101504, Note_on_c, 2, 59, 0
8, 101520, Note_on_c, 2, 55, 76
8, 101744, Note_on_c, 2, 55, 0
8, 101760, Note_on_c, 2, 59, 76
8, 101984, Note_on_c, 2, 59, 0
8, 102000, Note_on_c, 2, 48, 76
8, 102224, Note_on_c, 2, 48, 0
8, 102240, Note_on_c, 2, 53, 76
8, 102344, Note_on_c, 2, 53, 0
8, 102360, Note_on_c, 2, 50, 76
8, 102464, Note_on_c, 2, 50, 0
8, 102480, Note_on_c, 2, 59, 76
8, 102704, Note_on_c, 2, 59, 0
8, 102720, Note_on_c, 2, 52, 76
8, 102944, Note_on_c, 2, 52, 0
8, 102960, Note_on_c, 2, 53, 76
8, 103184, Note_on_c, 2, 53, 0
8, 103200, Note_on_c, 2, 55, 76
8, 103424, Note_on_c, 2, 55, 0
8, 103440, Note_on_c, 2, 48, 76
8, 104159, Note_on_c, 2, 48, 0
8, 104159, End_track
9, 0, Start_track
9, 0, Title_t, "Violin I"
9, 0, MIDI_port, 0
9, 0, Program_c, 11, 48
9, 0, Control_c, 11, 10, 48
9, 0, Control_c, 11, 11, 127
9, 0, Control_c, 11, 7, 96
9, 0, Note_on_c, 11, 72, 76
9, 224, Note_on_c, 11, 72, 0
9, 240, Note_on_c, 11, 76, 76
9, 344, Note_on_c, 11, 76, 0
9, 360, Note_on_c, 11, 72, 76
9, 464, Note_on_c, 11, 72, 0
9, 480, Note_on_c, 11, 79, 76
9, 704, Note_on_c, 11, 79, 0
9, 720, Note_on_c, 11, 81, 76
9, 944, Note_on_c, 11, 81, 0
9, 960, Note_on_c, 11, 77, 76
9, 989, Note_on_c, 11, 77, 0
9, 990, Note_on_c, 11, 79, 76
9, 1019, Note_on_c, 11, 79, 0
9, 1020, Note_on_c, 11, 77, 76
9, 1049, Note_on_c, 11, 77, 0
9, 1050, Note_on_c, 11, 79, 76
9, 1079, Note_on_c, 11, 79, 0
9, 1080, Note_on_c, 11, 77, 76
9, 1109, Note_on_c, 11, 77, 0
9, 1110, Note_on_c, 11, 79, 76
9, 1139, Note_on_c, 11, 79, 0
9, 1140, Note_on_c, 11, 77, 76
9, 1169, Note_on_c, 11, 77, 0
9, 1170, Note_on_c, 11, 79, 76
9, 1199, Note_on_c, 11, 79, 0
9, 1200, Note_on_c, 11, 77, 76
9, 1229, Note_on_c, 11, 77, 0
9, 1230, Note_on_c, 11, 79, 76
9, 1259, Note_on_c, 11, 79, 0
9, 1260, Note_on_c, 11, 77, 76
9, 1289, Note_on_c, 11, 77, 0
9, 1290, Note_on_c, 11, 79, 76
9, 1319, Note_on_c, 11, 79, 0
9, 1320, Note_on_c, 11, 76, 76
9, 1364, Note_on_c, 11, 76, 0
9, 1380, Note_on_c, 11, 77, 76
9, 1424, Note_on_c, 11, 77, 0
9, 1440, Note_on_c, 11, 79, 76
9, 1664, Note_on_c, 11, 79, 0
9, 1680, Note_on_c, 11, 76, 76
9, 1784, Note_on_c, 11, 76, 0
9, 1800, Note_on_c, 11, 72, 76
9, 1904, Note_on_c, 11, 72, 0
9, 1920, Note_on_c, 11, 77, 76
9, 2144, Note_on_c, 11, 77, 0
9, 2160, Note_on_c, 11, 74, 76
9, 2264, Note_on_c, 11, 74, 0
9, 2280, Note_on_c, 11, 72, 76
9, 2384, Note_on_c, 11, 72, 0
9, 2400, Note_on_c, 11, 74, 76
9, 2504, Note_on_c, 11, 74, 0
9, 2520, Note_on_c, 11, 76, 76
9, 2624, Note_on_c, 11, 76, 0
9, 2640, Note_on_c, 11, 77, 76
9, 2744, Note_on_c, 11, 77, 0
9, 2760, Note_on_c, 11, 74, 76
9, 2864, Note_on_c, 11, 74, 0
9, 2880, Note_on_c, 11, 76, 76
9, 3104, Note_on_c, 11, 76, 0
9, 3120, Note_on_c, 11, 79, 76
9, 3224, Note_on_c, 11, 79, 0
9, 3240, Note_on_c, 11, 76, 76
9, 3344, Note_on_c, 11, 76, 0
9, 3360, Note_on_c, 11, 84, 76
9, 3554, Note_on_c, 11, 84, 0
9, 3570, Note_on_c, 11, 79, 76
9, 3599, Note_on_c, 11, 79, 0
9, 3600, Note_on_c, 11, 78, 76
9, 3824, Note_on_c, 11, 78, 0
9, 3840, Note_on_c, 11, 76, 76
9, 3959, Note_on_c, 11, 76, 0
9, 3960, Note_on_c, 11, 74, 76
9, 4064, Note_on_c, 11, 74, 0
9, 4080, Note_on_c, 11, 72, 76
9, 4199, Note_on_c, 11, 72, 0
9, 4200, Note_on_c, 11, 71, 76
9, 4304, Note_on_c, 11, 71, 0
9, 4320, Note_on_c, 11, 76, 76
9, 4544, Note_on_c, 11, 76, 0
9, 4560, Note_on_c, 11, 69, 76
9, 4589, Note_on_c, 11, 69, 0
9, 4590, Note_on_c, 11, 71, 76
9, 4619, Note_on_c, 11, 71, 0
9, 4620, Note_on_c, 11, 69, 76
9, 4649, Note_on_c, 11, 69, 0
9, 4650, Note_on_c, 11, 71, 76
9, 4679, Note_on_c, 11, 71, 0
9, 4680, Note_on_c, 11, 69, 76
9, 4709, Note_on_c, 11, 69, 0
9, 4710, Note_on_c, 11, 71, 76
9, 4739, Note_on_c, 11, 71, 0
9, 4740, Note_on_c, 11, 69, 76
9, 4769, Note_on_c, 11, 69, 0
9, 4770, Note_on_c, 11, 71, 76
9, 4799, Note_on_c, 11, 71, 0
9, 4800, Note_on_c, 11, 69, 76
9, 4829, Note_on_c, 11, 69, 0
9, 4830, Note_on_c, 11, 71, 76
9, 4859, Note_on_c, 11, 71, 0
9, 4860, Note_on_c, 11, 67, 76
9, 4889, Note_on_c, 11, 67, 0
9, 4890, Note_on_c, 11, 69, 76
9, 4919, Note_on_c, 11, 69, 0
9, 4920, Note_on_c, 11, 67, 76
9, 5024, Note_on_c, 11, 67, 0
9, 5040, Note_on_c, 11, 67, 76
9, 5744, Note_on_c, 11, 67, 0
9, 5760, Note_on_c, 11, 72, 76
9, 5984, Note_on_c, 11, 72, 0
9, 6000, Note_on_c, 11, 76, 76
9, 6104, Note_on_c, 11, 76, 0
9, 6120, Note_on_c, 11, 72, 76
9, 6224, Note_on_c, 11, 72, 0
9, 6240, Note_on_c, 11, 79, 76
9, 6464, Note_on_c, 11, 79, 0
9, 6480, Note_on_c, 11, 81, 76
9, 6704, Note_on_c, 11, 81, 0
9, 6720, Note_on_c, 11, 77, 76
9, 6749, Note_on_c, 11, 77, 0
9, 6750, Note_on_c, 11, 79, 76
9, 6779, Note_on_c, 11, 79, 0
9, 6780, Note_on_c, 11, 77, 76
9, 6809, Note_on_c, 11, 77, 0
9, 6810, Note_on_c, 11, 79, 76
9, 6839, Note_on_c, 11, 79, 0
9, 6840, Note_on_c, 11, 77, 76
9, 6869, Note_on_c, 11, 77, 0
9, 6870, Note_on_c, 11, 79, 76
9, 6899, Note_on_c, 11, 79, 0
9, 6900, Note_on_c, 11, 77, 76
9, 6929, Note_on_c, 11, 77, 0
9, 6930, Note_on_c, 11, 79, 76
9, 6959, Note_on_c, 11, 79, 0
9, 6960, Note_on_c, 11, 77, 76
9, 6989, Note_on_c, 11, 77, 0
9, 6990, Note_on_c, 11, 79, 76
9, 7019, Note_on_c, 11, 79, 0
9, 7020, Note_on_c, 11, 77, 76
9, 7049, Note_on_c, 11, 77, 0
9, 7050, Note_on_c, 11, 79, 76
9, 7079, Note_on_c, 11, 79, 0
9, 7080, Note_on_c, 11, 76, 76
9, 7124, Note_on_c, 11, 76, 0
9, 7140, Note_on_c, 11, 77, 76
9, 7184, Note_on_c, 11, 77, 0
9, 7200, Note_on_c, 11, 79, 76
9, 7424, Note_on_c, 11, 79, 0
9, 7440, Note_on_c, 11, 76, 76
9, 7544, Note_on_c, 11, 76, 0
9, 7560, Note_on_c, 11, 72, 76
9, 7664, Note_on_c, 11, 72, 0
9, 7680, Note_on_c, 11, 77, 76
9, 7904, Note_on_c, 11, 77, 0
9, 7920, Note_on_c, 11, 74, 76
9, 8024, Note_on_c, 11, 74, 0
9, 8040, Note_on_c, 11, 72, 76
9, 8144, Note_on_c, 11, 72, 0
9, 8160, Note_on_c, 11, 74, 76
9, 8264, Note_on_c, 11, 74, 0
9, 8280, Note_on_c, 11, 76, 76
9, 8384, Note_on_c, 11, 76, 0
9, 8400, Note_on_c, 11, 77, 76
9, 8504, Note_on_c, 11, 77, 0
9, 8520, Note_on_c, 11, 74, 76
9, 8624, Note_on_c, 11, 74, 0
9, 8640, Note_on_c, 11, 76, 76
9, 8864, Note_on_c, 11, 76, 0
9, 8880, Note_on_c, 11, 79, 76
9, 8984, Note_on_c, 11, 79, 0
9, 9000, Note_on_c, 11, 76, 76
9, 9104, Note_on_c, 11, 76, 0
9, 9120, Note_on_c, 11, 84, 76
9, 9314, Note_on_c, 11, 84, 0
9, 9330, Note_on_c, 11, 79, 76
9, 9359, Note_on_c, 11, 79, 0
9, 9360, Note_on_c, 11, 78, 76
9, 9584, Note_on_c, 11, 78, 0
9, 9600, Note_on_c, 11, 76, 76
9, 9719, Note_on_c, 11, 76, 0
9, 9720, Note_on_c, 11, 74, 76
9, 9824, Note_on_c, 11, 74, 0
9, 9840, Note_on_c, 11, 72, 76
9, 9959, Note_on_c, 11, 72, 0
9, 9960, Note_on_c, 11, 71, 76
9, 10064, Note_on_c, 11, 71, 0
9, 10080, Note_on_c, 11, 76, 76
9, 10304, Note_on_c, 11, 76, 0
9, 10320, Note_on_c, 11, 69, 76
9, 10349, Note_on_c, 11, 69, 0
9, 10350, Note_on_c, 11, 71, 76
9, 10379, Note_on_c, 11, 71, 0
9, 10380, Note_on_c, 11, 69, 76
9, 10409, Note_on_c, 11, 69, 0
9, 10410, Note_on_c, 11, 71, 76
9, 10439, Note_on_c, 11, 71, 0
9, 10440, Note_on_c, 11, 69, 76
9, 10469, Note_on_c, 11, 69, 0
9, 10470, Note_on_c, 11, 71, 76
9, 10499, Note_on_c, 11, 71, 0
9, 10500, Note_on_c, 11, 69, 76
9, 10529, Note_on_c, 11, 69, 0
9, 10530, Note_on_c, 11, 71, 76
9, 10559, Note_on_c, 11, 71, 0
9, 10560, Note_on_c, 11, 69, 76
9, 10589, Note_on_c, 11, 69, 0
9, 10590, Note_on_c, 11, 71, 76
9, 10619, Note_on_c, 11, 71, 0
9, 10620, Note_on_c, 11, 67, 76
9, 10649, Note_on_c, 11, 67, 0
9, 10650, Note_on_c, 11, 69, 76
9, 10679, Note_on_c, 11, 69, 0
9, 10680, Note_on_c, 11, 67, 76
9, 10784, Note_on_c, 11, 67, 0
9, 10800, Note_on_c, 11, 67, 76
9, 11504, Note_on_c, 11, 67, 0
9, 11520, Note_on_c, 11, 67, 76
9, 11744, Note_on_c, 11, 67, 0
9, 11760, Note_on_c, 11, 71, 76
9, 11864, Note_on_c, 11, 71, 0
9, 11880, Note_on_c, 11, 67, 76
9, 11984, Note_on_c, 11, 67, 0
9, 12000, Note_on_c, 11, 74, 76
9, 12224, Note_on_c, 11, 74, 0
9, 12240, Note_on_c, 11, 77, 76
9, 12464, Note_on_c, 11, 77, 0
9, 12480, Note_on_c, 11, 74, 76
9, 12509, Note_on_c, 11, 74, 0
9, 12510, Note_on_c, 11, 76, 76
9, 12539, Note_on_c, 11, 76, 0
9, 12540, Note_on_c, 11, 74, 76
9, 12569, Note_on_c, 11, 74, 0
9, 12570, Note_on_c, 11, 76, 76
9, 12599, Note_on_c, 11, 76, 0
9, 12600, Note_on_c, 11, 74, 76
9, 12629, Note_on_c, 11, 74, 0
9, 12630, Note_on_c, 11, 76, 76
9, 12659, Note_on_c, 11, 76, 0
9, 12660, Note_on_c, 11, 74, 76
9, 12689, Note_on_c, 11, 74, 0
9, 12690, Note_on_c, 11, 76, 76
9, 12719, Note_on_c, 11, 76, 0
9, 12720, Note_on_c, 11, 74, 76
9, 12749, Note_on_c, 11, 74, 0
9, 12750, Note_on_c, 11, 76, 76
9, 12779, Note_on_c, 11, 76, 0
9, 12780, Note_on_c, 11, 74, 76
9, 12809, Note_on_c, 11, 74, 0
9, 12810, Note_on_c, 11, 76, 76
9, 12839, Note_on_c, 11, 76, 0
9, 12840, Note_on_c, 11, 72, 76
9, 12884, Note_on_c, 11, 72, 0
9, 12900, Note_on_c, 11, 74, 76
9, 12944, Note_on_c, 11, 74, 0
9, 12960, Note_on_c, 11, 76, 76
9, 13184, Note_on_c, 11, 76, 0
9, 13200, Note_on_c, 11, 72, 76
9, 13304, Note_on_c, 11, 72, 0
9, 13320, Note_on_c, 11, 69, 76
9, 13424, Note_on_c, 11, 69, 0
9, 13440, Note_on_c, 11, 81, 76
9, 13664, Note_on_c, 11, 81, 0
9, 13680, Note_on_c, 11, 80, 76
9, 13799, Note_on_c, 11, 80, 0
9, 13800, Note_on_c, 11, 81, 76
9, 13919, Note_on_c, 11, 81, 0
9, 13920, Note_on_c, 11, 83, 76
9, 14024, Note_on_c, 11, 83, 0
9, 14040, Note_on_c, 11, 80, 76
9, 14144, Note_on_c, 11, 80, 0
9, 14160, Note_on_c, 11, 76, 76
9, 14264, Note_on_c, 11, 76, 0
9, 14280, Note_on_c, 11, 74, 76
9, 14384, Note_on_c, 11, 74, 0
9, 14400, Note_on_c, 11, 72, 76
9, 14624, Note_on_c, 11, 72, 0
9, 14640, Note_on_c, 11, 76, 76
9, 14744, Note_on_c, 11, 76, 0
9, 14760, Note_on_c, 11, 72, 76
9, 14864, Note_on_c, 11, 72, 0
9, 14880, Note_on_c, 11, 81, 76
9, 15104, Note_on_c, 11, 81, 0
9, 15120, Note_on_c, 11, 71, 76
9, 15224, Note_on_c, 11, 71, 0
9, 15240, Note_on_c, 11, 72, 76
9, 15344, Note_on_c, 11, 72, 0
9, 15360, Note_on_c, 11, 74, 76
9, 15704, Note_on_c, 11, 74, 0
9, 15720, Note_on_c, 11, 77, 76
9, 15824, Note_on_c, 11, 77, 0
9, 15840, Note_on_c, 11, 76, 76
9, 16064, Note_on_c, 11, 76, 0
9, 16080, Note_on_c, 11, 74, 76
9, 16184, Note_on_c, 11, 74, 0
9, 16200, Note_on_c, 11, 72, 76
9, 16304, Note_on_c, 11, 72, 0
9, 16320, Note_on_c, 11, 71, 76
9, 16424, Note_on_c, 11, 71, 0
9, 16440, Note_on_c, 11, 72, 76
9, 16544, Note_on_c, 11, 72, 0
9, 16560, Note_on_c, 11, 69, 76
9, 17264, Note_on_c, 11, 69, 0
9, 17280, Note_on_c, 11, 67, 76
9, 17504, Note_on_c, 11, 67, 0
9, 17520, Note_on_c, 11, 72, 76
9, 17624, Note_on_c, 11, 72, 0
9, 17640, Note_on_c, 11, 67, 76
9, 17744, Note_on_c, 11, 67, 0
9, 17760, Note_on_c, 11, 76, 76
9, 17984, Note_on_c, 11, 76, 0
9, 18000, Note_on_c, 11, 69, 76
9, 18104, Note_on_c, 11, 69, 0
9, 18120, Note_on_c, 11, 71, 76
9, 18224, Note_on_c, 11, 71, 0
9, 18240, Note_on_c, 11, 71, 76
9, 18269, Note_on_c, 11, 71, 0
9, 18270, Note_on_c, 11, 72, 76
9, 18299, Note_on_c, 11, 72, 0
9, 18300, Note_on_c, 11, 71, 76
9, 18329, Note_on_c, 11, 71, 0
9, 18330, Note_on_c, 11, 72, 76
9, 18359, Note_on_c, 11, 72, 0
9, 18360, Note_on_c, 11, 71, 76
9, 18389, Note_on_c, 11, 71, 0
9, 18390, Note_on_c, 11, 72, 76
9, 18419, Note_on_c, 11, 72, 0
9, 18420, Note_on_c, 11, 71, 76
9, 18449, Note_on_c, 11, 71, 0
9, 18450, Note_on_c, 11, 72, 76
9, 18479, Note_on_c, 11, 72, 0
9, 18480, Note_on_c, 11, 71, 76
9, 18509, Note_on_c, 11, 71, 0
9, 18510, Note_on_c, 11, 72, 76
9, 18539, Note_on_c, 11, 72, 0
9, 18540, Note_on_c, 11, 71, 76
9, 18569, Note_on_c, 11, 71, 0
9, 18570, Note_on_c, 11, 72, 76
9, 18599, Note_on_c, 11, 72, 0
9, 18600, Note_on_c, 11, 69, 76
9, 18644, Note_on_c, 11, 69, 0
9, 18660, Note_on_c, 11, 71, 76
9, 18704, Note_on_c, 11, 71, 0
9, 18720, Note_on_c, 11, 72, 76
9, 18944, Note_on_c, 11, 72, 0
9, 18960, Note_on_c, 11, 77, 76
9, 19064, Note_on_c, 11, 77, 0
9, 19080, Note_on_c, 11, 72, 76
9, 19184, Note_on_c, 11, 72, 0
9, 19200, Note_on_c, 11, 81, 76
9, 19424, Note_on_c, 11, 81, 0
9, 19440, Note_on_c, 11, 71, 76
9, 19544, Note_on_c, 11, 71, 0
9, 19560, Note_on_c, 11, 72, 76
9, 19664, Note_on_c, 11, 72, 0
9, 19680, Note_on_c, 11, 72, 76
9, 19709, Note_on_c, 11, 72, 0
9, 19710, Note_on_c, 11, 74, 76
9, 19739, Note_on_c, 11, 74, 0
9, 19740, Note_on_c, 11, 72, 76
9, 19769, Note_on_c, 11, 72, 0
9, 19770, Note_on_c, 11, 74, 76
9, 19799, Note_on_c, 11, 74, 0
9, 19800, Note_on_c, 11, 72, 76
9, 19829, Note_on_c, 11, 72, 0
9, 19830, Note_on_c, 11, 74, 76
9, 19859, Note_on_c, 11, 74, 0
9, 19860, Note_on_c, 11, 72, 76
9, 19889, Note_on_c, 11, 72, 0
9, 19890, Note_on_c, 11, 74, 76
9, 19919, Note_on_c, 11, 74, 0
9, 19920, Note_on_c, 11, 72, 76
9, 19949, Note_on_c, 11, 72, 0
9, 19950, Note_on_c, 11, 74, 76
9, 19979, Note_on_c, 11, 74, 0
9, 19980, Note_on_c, 11, 72, 76
9, 20009, Note_on_c, 11, 72, 0
9, 20010, Note_on_c, 11, 74, 76
9, 20039, Note_on_c, 11, 74, 0
9, 20040, Note_on_c, 11, 71, 76
9, 20084, Note_on_c, 11, 71, 0
9, 20100, Note_on_c, 11, 72, 76
9, 20144, Note_on_c, 11, 72, 0
9, 20160, Note_on_c, 11, 74, 76
9, 20384, Note_on_c, 11, 74, 0
9, 20400, Note_on_c, 11, 71, 76
9, 20504, Note_on_c, 11, 71, 0
9, 20520, Note_on_c, 11, 67, 76
9, 20624, Note_on_c, 11, 67, 0
9, 20640, Note_on_c, 11, 77, 76
9, 20864, Note_on_c, 11, 77, 0
9, 20880, Note_on_c, 11, 76, 76
9, 21104, Note_on_c, 11, 76, 0
9, 21120, Note_on_c, 11, 81, 76
9, 21224, Note_on_c, 11, 81, 0
9, 21240, Note_on_c, 11, 79, 76
9, 21344, Note_on_c, 11, 79, 0
9, 21360, Note_on_c, 11, 81, 76
9, 21464, Note_on_c, 11, 81, 0
9, 21480, Note_on_c, 11, 77, 76
9, 21584, Note_on_c, 11, 77, 0
9, 21600, Note_on_c, 11, 79, 76
9, 21824, Note_on_c, 11, 79, 0
9, 21840, Note_on_c, 11, 72, 76
9, 22064, Note_on_c, 11, 72, 0
9, 22080, Note_on_c, 11, 71, 76
9, 22304, Note_on_c, 11, 71, 0
9, 22320, Note_on_c, 11, 72, 76
9, 23024, Note_on_c, 11, 72, 0
9, 23040, Note_on_c, 11, 67, 76
9, 23264, Note_on_c, 11, 67, 0
9, 23280, Note_on_c, 11, 71, 76
9, 23384, Note_on_c, 11, 71, 0
9, 23400, Note_on_c, 11, 67, 76
9, 23504, Note_on_c, 11, 67, 0
9, 23520, Note_on_c, 11, 74, 76
9, 23744, Note_on_c, 11, 74, 0
9, 23760, Note_on_c, 11, 77, 76
9, 23984, Note_on_c, 11, 77, 0
9, 24000, Note_on_c, 11, 74, 76
9, 24029, Note_on_c, 11, 74, 0
9, 24030, Note_on_c, 11, 76, 76
9, 24059, Note_on_c, 11, 76, 0
9, 24060, Note_on_c, 11, 74, 76
9, 24089, Note_on_c, 11, 74, 0
9, 24090, Note_on_c, 11, 76, 76
9, 24119, Note_on_c, 11, 76, 0
9, 24120, Note_on_c, 11, 74, 76
9, 24149, Note_on_c, 11, 74, 0
9, 24150, Note_on_c, 11, 76, 76
9, 24179, Note_on_c, 11, 76, 0
9, 24180, Note_on_c, 11, 74, 76
9, 24209, Note_on_c, 11, 74, 0
9, 24210, Note_on_c, 11, 76, 76
9, 24239, Note_on_c, 11, 76, 0
9, 24240, Note_on_c, 11, 74, 76
9, 24269, Note_on_c, 11, 74, 0
9, 24270, Note_on_c, 11, 76, 76
9, 24299, Note_on_c, 11, 76, 0
9, 24300, Note_on_c, 11, 74, 76
9, 24329, Note_on_c, 11, 74, 0
9, 24330, Note_on_c, 11, 76, 76
9, 24359, Note_on_c, 11, 76, 0
9, 24360, Note_on_c, 11, 72, 76
9, 24404, Note_on_c, 11, 72, 0
9, 24420, Note_on_c, 11, 74, 76
9, 24464, Note_on_c, 11, 74, 0
9, 24480, Note_on_c, 11, 76, 76
9, 24704, Note_on_c, 11, 76, 0
9, 24720, Note_on_c, 11, 72, 76
9, 24824, Note_on_c, 11, 72, 0
9, 24840, Note_on_c, 11, 69, 76
9, 24944, Note_on_c, 11, 69, 0
9, 24960, Note_on_c, 11, 81, 76
9, 25184, Note_on_c, 11, 81, 0
9, 25200, Note_on_c, 11, 80, 76
9, 25319, Note_on_c, 11, 80, 0
9, 25320, Note_on_c, 11, 81, 76
9, 25439, Note_on_c, 11, 81, 0
9, 25440, Note_on_c, 11, 83, 76
9, 25544, Note_on_c, 11, 83, 0
9, 25560, Note_on_c, 11, 80, 76
9, 25664, Note_on_c, 11, 80, 0
9, 25680, Note_on_c, 11, 76, 76
9, 25784, Note_on_c, 11, 76, 0
9, 25800, Note_on_c, 11, 74, 76
9, 25904, Note_on_c, 11, 74, 0
9, 25920, Note_on_c, 11, 72, 76
9, 26144, Note_on_c, 11, 72, 0
9, 26160, Note_on_c, 11, 76, 76
9, 26264, Note_on_c, 11, 76, 0
9, 26280, Note_on_c, 11, 72, 76
9, 26384, Note_on_c, 11, 72, 0
9, 26400, Note_on_c, 11, 81, 76
9, 26624, Note_on_c, 11, 81, 0
9, 26640, Note_on_c, 11, 71, 76
9, 26744, Note_on_c, 11, 71, 0
9, 26760, Note_on_c, 11, 72, 76
9, 26864, Note_on_c, 11, 72, 0
9, 26880, Note_on_c, 11, 74, 76
9, 27224, Note_on_c, 11, 74, 0
9, 27240, Note_on_c, 11, 77, 76
9, 27344, Note_on_c, 11, 77, 0
9, 27360, Note_on_c, 11, 76, 76
9, 27584, Note_on_c, 11, 76, 0
9, 27600, Note_on_c, 11, 74, 76
9, 27704, Note_on_c, 11, 74, 0
9, 27720, Note_on_c, 11, 72, 76
9, 27824, Note_on_c, 11, 72, 0
9, 27840, Note_on_c, 11, 71, 76
9, 27944, Note_on_c, 11, 71, 0
9, 27960, Note_on_c, 11, 72, 76
9, 28064, Note_on_c, 11, 72, 0
9, 28080, Note_on_c, 11, 69, 76
9, 28784, Note_on_c, 11, 69, 0
9, 28800, Note_on_c, 11, 67, 76
9, 29024, Note_on_c, 11, 67, 0
9, 29040, Note_on_c, 11, 72, 76
9, 29144, Note_on_c, 11, 72, 0
9, 29160, Note_on_c, 11, 67, 76
9, 29264, Note_on_c, 11, 67, 0
9, 29280, Note_on_c, 11, 76, 76
9, 29504, Note_on_c, 11, 76, 0
9, 29520, Note_on_c, 11, 69, 76
9, 29624, Note_on_c, 11, 69, 0
9, 29640, Note_on_c, 11, 71, 76
9, 29744, Note_on_c, 11, 71, 0
9, 29760, Note_on_c, 11, 71, 76
9, 29789, Note_on_c, 11, 71, 0
9, 29790, Note_on_c, 11, 72, 76
9, 29819, Note_on_c, 11, 72, 0
9, 29820, Note_on_c, 11, 71, 76
9, 29849, Note_on_c, 11, 71, 0
9, 29850, Note_on_c, 11, 72, 76
9, 29879, Note_on_c, 11, 72, 0
9, 29880, Note_on_c, 11, 71, 76
9, 29909, Note_on_c, 11, 71, 0
9, 29910, Note_on_c, 11, 72, 76
9, 29939, Note_on_c, 11, 72, 0
9, 29940, Note_on_c, 11, 71, 76
9, 29969, Note_on_c, 11, 71, 0
9, 29970, Note_on_c, 11, 72, 76
9, 29999, Note_on_c, 11, 72, 0
9, 30000, Note_on_c, 11, 71, 76
9, 30029, Note_on_c, 11, 71, 0
9, 30030, Note_on_c, 11, 72, 76
9, 30059, Note_on_c, 11, 72, 0
9, 30060, Note_on_c, 11, 71, 76
9, 30089, Note_on_c, 11, 71, 0
9, 30090, Note_on_c, 11, 72, 76
9, 30119, Note_on_c, 11, 72, 0
9, 30120, Note_on_c, 11, 69, 76
9, 30164, Note_on_c, 11, 69, 0
9, 30180, Note_on_c, 11, 71, 76
9, 30224, Note_on_c, 11, 71, 0
9, 30240, Note_on_c, 11, 72, 76
9, 30464, Note_on_c, 11, 72, 0
9, 30480, Note_on_c, 11, 77, 76
9, 30584, Note_on_c, 11, 77, 0
9, 30600, Note_on_c, 11, 72, 76
9, 30704, Note_on_c, 11, 72, 0
9, 30720, Note_on_c, 11, 81, 76
9, 30944, Note_on_c, 11, 81, 0
9, 30960, Note_on_c, 11, 71, 76
9, 31064, Note_on_c, 11, 71, 0
9, 31080, Note_on_c, 11, 72, 76
9, 31184, Note_on_c, 11, 72, 0
9, 31200, Note_on_c, 11, 72, 76
9, 31229, Note_on_c, 11, 72, 0
9, 31230, Note_on_c, 11, 74, 76
9, 31259, Note_on_c, 11, 74, 0
9, 31260, Note_on_c, 11, 72, 76
9, 31289, Note_on_c, 11, 72, 0
9, 31290, Note_on_c, 11, 74, 76
9, 31319, Note_on_c, 11, 74, 0
9, 31320, Note_on_c, 11, 72, 76
9, 31349, Note_on_c, 11, 72, 0
9, 31350, Note_on_c, 11, 74, 76
9, 31379, Note_on_c, 11, 74, 0
9, 31380, Note_on_c, 11, 72, 76
9, 31409, Note_on_c, 11, 72, 0
9, 31410, Note_on_c, 11, 74, 76
9, 31439, Note_on_c, 11, 74, 0
9, 31440, Note_on_c, 11, 72, 76
9, 31469, Note_on_c, 11, 72, 0
9, 31470, Note_on_c, 11, 74, 76
9, 31499, Note_on_c, 11, 74, 0
9, 31500, Note_on_c, 11, 72, 76
9, 31529, Note_on_c, 11, 72, 0
9, 31530, Note_on_c, 11, 74, 76
9, 31559, Note_on_c, 11, 74, 0
9, 31560, Note_on_c, 11, 71, 76
9, 31604, Note_on_c, 11, 71, 0
9, 31620, Note_on_c, 11, 72, 76
9, 31664, Note_on_c, 11, 72, 0
9, 31680, Note_on_c, 11, 74, 76
9, 31904, Note_on_c, 11, 74, 0
9, 31920, Note_on_c, 11, 71, 76
9, 32024, Note_on_c, 11, 71, 0
9, 32040, Note_on_c, 11, 67, 76
9, 32144, Note_on_c, 11, 67, 0
9, 32160, Note_on_c, 11, 77, 76
9, 32384, Note_on_c, 11, 77, 0
9, 32400, Note_on_c, 11, 76, 76
9, 32624, Note_on_c, 11, 76, 0
9, 32640, Note_on_c, 11, 81, 76
9, 32744, Note_on_c, 11, 81, 0
9, 32760, Note_on_c, 11, 79, 76
9, 32864, Note_on_c, 11, 79, 0
9, 32880, Note_on_c, 11, 81, 76
9, 32984, Note_on_c, 11, 81, 0
9, 33000, Note_on_c, 11, 77, 76
9, 33104, Note_on_c, 11, 77, 0
9, 33120, Note_on_c, 11, 79, 76
9, 33344, Note_on_c, 11, 79, 0
9, 33360, Note_on_c, 11, 72, 76
9, 33584, Note_on_c, 11, 72, 0
9, 33600, Note_on_c, 11, 71, 76
9, 33824, Note_on_c, 11, 71, 0
9, 33840, Note_on_c, 11, 72, 76
9, 34559, Note_on_c, 11, 72, 0
9, 34800, Note_on_c, 11, 64, 52
9, 35024, Note_on_c, 11, 64, 0
9, 35040, Note_on_c, 11, 69, 52
9, 35279, Note_on_c, 11, 69, 0
9, 35280, Note_on_c, 11, 67, 52
9, 35504, Note_on_c, 11, 67, 0
9, 35520, Note_on_c, 11, 70, 52
9, 35759, Note_on_c, 11, 70, 0
9, 35760, Note_on_c, 11, 69, 52
9, 35984, Note_on_c, 11, 69, 0
9, 36000, Note_on_c, 11, 74, 52
9, 36224, Note_on_c, 11, 74, 0
9, 36240, Note_on_c, 11, 71, 52
9, 36479, Note_on_c, 11, 71, 0
9, 36480, Note_on_c, 11, 72, 52
9, 36704, Note_on_c, 11, 72, 0
9, 36720, Note_on_c, 11, 65, 52
9, 36944, Note_on_c, 11, 65, 0
9, 36960, Note_on_c, 11, 62, 52
9, 36989, Note_on_c, 11, 62, 0
9, 36990, Note_on_c, 11, 64, 52
9, 37019, Note_on_c, 11, 64, 0
9, 37020, Note_on_c, 11, 62, 52
9, 37049, Note_on_c, 11, 62, 0
9, 37050, Note_on_c, 11, 64, 52
9, 37079, Note_on_c, 11, 64, 0
9, 37080, Note_on_c, 11, 62, 52
9, 37109, Note_on_c, 11, 62, 0
9, 37110, Note_on_c, 11, 64, 52
9, 37139, Note_on_c, 11, 64, 0
9, 37140, Note_on_c, 11, 62, 52
9, 37169, Note_on_c, 11, 62, 0
9, 37170, Note_on_c, 11, 64, 52
9, 37199, Note_on_c, 11, 64, 0
9, 37200, Note_on_c, 11, 62, 52
9, 37229, Note_on_c, 11, 62, 0
9, 37230, Note_on_c, 11, 64, 52
9, 37259, Note_on_c, 11, 64, 0
9, 37260, Note_on_c, 11, 62, 52
9, 37289, Note_on_c, 11, 62, 0
9, 37290, Note_on_c, 11, 64, 52
9, 37319, Note_on_c, 11, 64, 0
9, 37320, Note_on_c, 11, 62, 52
9, 37349, Note_on_c, 11, 62, 0
9, 37350, Note_on_c, 11, 64, 52
9, 37379, Note_on_c, 11, 64, 0
9, 37380, Note_on_c, 11, 60, 52
9, 37409, Note_on_c, 11, 60, 0
9, 37410, Note_on_c, 11, 62, 52
9, 37439, Note_on_c, 11, 62, 0
9, 37440, Note_on_c, 11, 60, 52
9, 37664, Note_on_c, 11, 60, 0
9, 37680, Note_on_c, 11, 64, 52
9, 37904, Note_on_c, 11, 64, 0
9, 37920, Note_on_c, 11, 69, 52
9, 38159, Note_on_c, 11, 69, 0
9, 38160, Note_on_c, 11, 67, 52
9, 38384, Note_on_c, 11, 67, 0
9, 38400, Note_on_c, 11, 72, 52
9, 38639, Note_on_c, 11, 72, 0
9, 38640, Note_on_c, 11, 71, 52
9, 38864, Note_on_c, 11, 71, 0
9, 38880, Note_on_c, 11, 76, 52
9, 39104, Note_on_c, 11, 76, 0
9, 39120, Note_on_c, 11, 74, 52
9, 39344, Note_on_c, 11, 74, 0
9, 39360, Note_on_c, 11, 67, 52
9, 39584, Note_on_c, 11, 67, 0
9, 39600, Note_on_c, 11, 66, 52
9, 39824, Note_on_c, 11, 66, 0
9, 39840, Note_on_c, 11, 67, 52
9, 40544, Note_on_c, 11, 67, 0
9, 40560, Note_on_c, 11, 64, 52
9, 40784, Note_on_c, 11, 64, 0
9, 40800, Note_on_c, 11, 69, 52
9, 41039, Note_on_c, 11, 69, 0
9, 41040, Note_on_c, 11, 67, 52
9, 41264, Note_on_c, 11, 67, 0
9, 41280, Note_on_c, 11, 70, 52
9, 41519, Note_on_c, 11, 70, 0
9, 41520, Note_on_c, 11, 69, 52
9, 41744, Note_on_c, 11, 69, 0
9, 41760, Note_on_c, 11, 74, 52
9, 41984, Note_on_c, 11, 74, 0
9, 42000, Note_on_c, 11, 71, 52
9, 42239, Note_on_c, 11, 71, 0
9, 42240, Note_on_c, 11, 72, 52
9, 42464, Note_on_c, 11, 72, 0
9, 42480, Note_on_c, 11, 65, 52
9, 42704, Note_on_c, 11, 65, 0
9, 42720, Note_on_c, 11, 62, 52
9, 42749, Note_on_c, 11, 62, 0
9, 42750, Note_on_c, 11, 64, 52
9, 42779, Note_on_c, 11, 64, 0
9, 42780, Note_on_c, 11, 62, 52
9, 42809, Note_on_c, 11, 62, 0
9, 42810, Note_on_c, 11, 64, 52
9, 42839, Note_on_c, 11, 64, 0
9, 42840, Note_on_c, 11, 62, 52
9, 42869, Note_on_c, 11, 62, 0
9, 42870, Note_on_c, 11, 64, 52
9, 42899, Note_on_c, 11, 64, 0
9, 42900, Note_on_c, 11, 62, 52
9, 42929, Note_on_c, 11, 62, 0
9, 42930, Note_on_c, 11, 64, 52
9, 42959, Note_on_c, 11, 64, 0
9, 42960, Note_on_c, 11, 62, 52
9, 42989, Note_on_c, 11, 62, 0
9, 42990, Note_on_c, 11, 64, 52
9, 43019, Note_on_c, 11, 64, 0
9, 43020, Note_on_c, 11, 62, 52
9, 43049, Note_on_c, 11, 62, 0
9, 43050, Note_on_c, 11, 64, 52
9, 43079, Note_on_c, 11, 64, 0
9, 43080, Note_on_c, 11, 62, 52
9, 43109, Note_on_c, 11, 62, 0
9, 43110, Note_on_c, 11, 64, 52
9, 43139, Note_on_c, 11, 64, 0
9, 43140, Note_on_c, 11, 60, 52
9, 43169, Note_on_c, 11, 60, 0
9, 43170, Note_on_c, 11, 62, 52
9, 43199, Note_on_c, 11, 62, 0
9, 43200, Note_on_c, 11, 60, 52
9, 43424, Note_on_c, 11, 60, 0
9, 43440, Note_on_c, 11, 64, 52
9, 43664, Note_on_c, 11, 64, 0
9, 43680, Note_on_c, 11, 69, 52
9, 43919, Note_on_c, 11, 69, 0
9, 43920, Note_on_c, 11, 67, 52
9, 44144, Note_on_c, 11, 67, 0
9, 44160, Note_on_c, 11, 72, 52
9, 44399, Note_on_c, 11, 72, 0
9, 44400, Note_on_c, 11, 71, 52
9, 44624, Note_on_c, 11, 71, 0
9, 44640, Note_on_c, 11, 76, 52
9, 44864, Note_on_c, 11, 76, 0
9, 44880, Note_on_c, 11, 74, 52
9, 45104, Note_on_c, 11, 74, 0
9, 45120, Note_on_c, 11, 67, 52
9, 45344, Note_on_c, 11, 67, 0
9, 45360, Note_on_c, 11, 66, 52
9, 45584, Note_on_c, 11, 66, 0
9, 45600, Note_on_c, 11, 67, 52
9, 46304, Note_on_c, 11, 67, 0
9, 46320, Note_on_c, 11, 67, 52
9, 46544, Note_on_c, 11, 67, 0
9, 46560, Note_on_c, 11, 72, 52
9, 46799, Note_on_c, 11, 72, 0
9, 46800, Note_on_c, 11, 71, 52
9, 47024, Note_on_c, 11, 71, 0
9, 47040, Note_on_c, 11, 76, 52
9, 47279, Note_on_c, 11, 76, 0
9, 47280, Note_on_c, 11, 74, 52
9, 47504, Note_on_c, 11, 74, 0
9, 47520, Note_on_c, 11, 77, 52
9, 47744, Note_on_c, 11, 77, 0
9, 47760, Note_on_c, 11, 68, 52
9, 47999, Note_on_c, 11, 68, 0
9, 48000, Note_on_c, 11, 69, 52
9, 48224, Note_on_c, 11, 69, 0
9, 48240, Note_on_c, 11, 74, 52
9, 48464, Note_on_c, 11, 74, 0
9, 48480, Note_on_c, 11, 71, 52
9, 48509, Note_on_c, 11, 71, 0
9, 48510, Note_on_c, 11, 72, 52
9, 48539, Note_on_c, 11, 72, 0
9, 48540, Note_on_c, 11, 71, 52
9, 48569, Note_on_c, 11, 71, 0
9, 48570, Note_on_c, 11, 72, 52
9, 48599, Note_on_c, 11, 72, 0
9, 48600, Note_on_c, 11, 71, 52
9, 48629, Note_on_c, 11, 71, 0
9, 48630, Note_on_c, 11, 72, 52
9, 48659, Note_on_c, 11, 72, 0
9, 48660, Note_on_c, 11, 71, 52
9, 48689, Note_on_c, 11, 71, 0
9, 48690, Note_on_c, 11, 72, 52
9, 48719, Note_on_c, 11, 72, 0
9, 48720, Note_on_c, 11, 71, 52
9, 48749, Note_on_c, 11, 71, 0
9, 48750, Note_on_c, 11, 72, 52
9, 48779, Note_on_c, 11, 72, 0
9, 48780, Note_on_c, 11, 71, 52
9, 48809, Note_on_c, 11, 71, 0
9, 48810, Note_on_c, 11, 72, 52
9, 48839, Note_on_c, 11, 72, 0
9, 48840, Note_on_c, 11, 71, 52
9, 48869, Note_on_c, 11, 71, 0
9, 48870, Note_on_c, 11, 72, 52
9, 48899, Note_on_c, 11, 72, 0
9, 48900, Note_on_c, 11, 69, 52
9, 48929, Note_on_c, 11, 69, 0
9, 48930, Note_on_c, 11, 71, 52
9, 48959, Note_on_c, 11, 71, 0
9, 48960, Note_on_c, 11, 69, 52
9, 49184, Note_on_c, 11, 69, 0
9, 49200, Note_on_c, 11, 60, 52
9, 49424, Note_on_c, 11, 60, 0
9, 49440, Note_on_c, 11, 65, 52
9, 49664, Note_on_c, 11, 65, 0
9, 49680, Note_on_c, 11, 64, 52
9, 49904, Note_on_c, 11, 64, 0
9, 49920, Note_on_c, 11, 69, 52
9, 50144, Note_on_c, 11, 69, 0
9, 50160, Note_on_c, 11, 67, 52
9, 50384, Note_on_c, 11, 67, 0
9, 50400, Note_on_c, 11, 70, 52
9, 50624, Note_on_c, 11, 70, 0
9, 50640, Note_on_c, 11, 69, 52
9, 50864, Note_on_c, 11, 69, 0
9, 50880, Note_on_c, 11, 67, 52
9, 51104, Note_on_c, 11, 67, 0
9, 51120, Note_on_c, 11, 65, 52
9, 51314, Note_on_c, 11, 65, 0
9, 51330, Note_on_c, 11, 64, 52
9, 51359, Note_on_c, 11, 64, 0
9, 51360, Note_on_c, 11, 62, 52
9, 51389, Note_on_c, 11, 62, 0
9, 51390, Note_on_c, 11, 64, 52
9, 51419, Note_on_c, 11, 64, 0
9, 51420, Note_on_c, 11, 62, 52
9, 51449, Note_on_c, 11, 62, 0
9, 51450, Note_on_c, 11, 64, 52
9, 51479, Note_on_c, 11, 64, 0
9, 51480, Note_on_c, 11, 62, 52
9, 51509, Note_on_c, 11, 62, 0
9, 51510, Note_on_c, 11, 64, 52
9, 51539, Note_on_c, 11, 64, 0
9, 51540, Note_on_c, 11, 62, 52
9, 51569, Note_on_c, 11, 62, 0
9, 51570, Note_on_c, 11, 64, 52
9, 51599, Note_on_c, 11, 64, 0
9, 51600, Note_on_c, 11, 62, 52
9, 51629, Note_on_c, 11, 62, 0
9, 51630, Note_on_c, 11, 64, 52
9, 51659, Note_on_c, 11, 64, 0
9, 51660, Note_on_c, 11, 62, 52
9, 51689, Note_on_c, 11, 62, 0
9, 51690, Note_on_c, 11, 64, 52
9, 51719, Note_on_c, 11, 64, 0
9, 51720, Note_on_c, 11, 62, 52
9, 51749, Note_on_c, 11, 62, 0
9, 51750, Note_on_c, 11, 64, 52
9, 51779, Note_on_c, 11, 64, 0
9, 51780, Note_on_c, 11, 62, 52
9, 51809, Note_on_c, 11, 62, 0
9, 51810, Note_on_c, 11, 64, 52
9, 51839, Note_on_c, 11, 64, 0
9, 51840, Note_on_c, 11, 62, 52
9, 51869, Note_on_c, 11, 62, 0
9, 51870, Note_on_c, 11, 64, 52
9, 51899, Note_on_c, 11, 64, 0
9, 51900, Note_on_c, 11, 62, 52
9, 51929, Note_on_c, 11, 62, 0
9, 51930, Note_on_c, 11, 64, 52
9, 51959, Note_on_c, 11, 64, 0
9, 51960, Note_on_c, 11, 62, 52
9, 51989, Note_on_c, 11, 62, 0
9, 51990, Note_on_c, 11, 64, 52
9, 52019, Note_on_c, 11, 64, 0
9, 52020, Note_on_c, 11, 60, 52
9, 52049, Note_on_c, 11, 60, 0
9, 52050, Note_on_c, 11, 62, 52
9, 52079, Note_on_c, 11, 62, 0
9, 52080, Note_on_c, 11, 64, 52
9, 52304, Note_on_c, 11, 64, 0
9, 52320, Note_on_c, 11, 69, 52
9, 52559, Note_on_c, 11, 69, 0
9, 52560, Note_on_c, 11, 67, 52
9, 52784, Note_on_c, 11, 67, 0
9, 52800, Note_on_c, 11, 58, 52
9, 53039, Note_on_c, 11, 58, 0
9, 53040, Note_on_c, 11, 57, 52
9, 53264, Note_on_c, 11, 57, 0
9, 53280, Note_on_c, 11, 60, 52
9, 53504, Note_on_c, 11, 60, 0
9, 53520, Note_on_c, 11, 66, 52
9, 53744, Note_on_c, 11, 66, 0
9, 53760, Note_on_c, 11, 69, 52
9, 53999, Note_on_c, 11, 69, 0
9, 54000, Note_on_c, 11, 71, 52
9, 54224, Note_on_c, 11, 71, 0
9, 54240, Note_on_c, 11, 60, 52
9, 54479, Note_on_c, 11, 60, 0
9, 54480, Note_on_c, 11, 59, 52
9, 54704, Note_on_c, 11, 59, 0
9, 54720, Note_on_c, 11, 62, 52
9, 54944, Note_on_c, 11, 62, 0
9, 54960, Note_on_c, 11, 65, 52
9, 55184, Note_on_c, 11, 65, 0
9, 55200, Note_on_c, 11, 71, 52
9, 55439, Note_on_c, 11, 71, 0
9, 55440, Note_on_c, 11, 72, 52
9, 55664, Note_on_c, 11, 72, 0
9, 55680, Note_on_c, 11, 66, 52
9, 55919, Note_on_c, 11, 66, 0
9, 55920, Note_on_c, 11, 67, 52
9, 56144, Note_on_c, 11, 67, 0
9, 56160, Note_on_c, 11, 77, 52
9, 56384, Note_on_c, 11, 77, 0
9, 56400, Note_on_c, 11, 76, 52
9, 56624, Note_on_c, 11, 76, 0
9, 56640, Note_on_c, 11, 72, 52
9, 56864, Note_on_c, 11, 72, 0
9, 56880, Note_on_c, 11, 71, 52
9, 57104, Note_on_c, 11, 71, 0
9, 57120, Note_on_c, 11, 72, 52
9, 57824, Note_on_c, 11, 72, 0
9, 57840, Note_on_c, 11, 67, 52
9, 58064, Note_on_c, 11, 67, 0
9, 58080, Note_on_c, 11, 72, 52
9, 58319, Note_on_c, 11, 72, 0
9, 58320, Note_on_c, 11, 71, 52
9, 58544, Note_on_c, 11, 71, 0
9, 58560, Note_on_c, 11, 76, 52
9, 58799, Note_on_c, 11, 76, 0
9, 58800, Note_on_c, 11, 74, 52
9, 59024, Note_on_c, 11, 74, 0
9, 59040, Note_on_c, 11, 77, 52
9, 59264, Note_on_c, 11, 77, 0
9, 59280, Note_on_c, 11, 68, 52
9, 59519, Note_on_c, 11, 68, 0
9, 59520, Note_on_c, 11, 69, 52
9, 59744, Note_on_c, 11, 69, 0
9, 59760, Note_on_c, 11, 74, 52
9, 59984, Note_on_c, 11, 74, 0
9, 60000, Note_on_c, 11, 71, 52
9, 60029, Note_on_c, 11, 71, 0
9, 60030, Note_on_c, 11, 72, 52
9, 60059, Note_on_c, 11, 72, 0
9, 60060, Note_on_c, 11, 71, 52
9, 60089, Note_on_c, 11, 71, 0
9, 60090, Note_on_c, 11, 72, 52
9, 60119, Note_on_c, 11, 72, 0
9, 60120, Note_on_c, 11, 71, 52
9, 60149, Note_on_c, 11, 71, 0
9, 60150, Note_on_c, 11, 72, 52
9, 60179, Note_on_c, 11, 72, 0
9, 60180, Note_on_c, 11, 71, 52
9, 60209, Note_on_c, 11, 71, 0
9, 60210, Note_on_c, 11, 72, 52
9, 60239, Note_on_c, 11, 72, 0
9, 60240, Note_on_c, 11, 71, 52
9, 60269, Note_on_c, 11, 71, 0
9, 60270, Note_on_c, 11, 72, 52
9, 60299, Note_on_c, 11, 72, 0
9, 60300, Note_on_c, 11, 71, 52
9, 60329, Note_on_c, 11, 71, 0
9, 60330, Note_on_c, 11, 72, 52
9, 60359, Note_on_c, 11, 72, 0
9, 60360, Note_on_c, 11, 71, 52
9, 60389, Note_on_c, 11, 71, 0
9, 60390, Note_on_c, 11, 72, 52
9, 60419, Note_on_c, 11, 72, 0
9, 60420, Note_on_c, 11, 69, 52
9, 60449, Note_on_c, 11, 69, 0
9, 60450, Note_on_c, 11, 71, 52
9, 60479, Note_on_c, 11, 71, 0
9, 60480, Note_on_c, 11, 69, 52
9, 60704, Note_on_c, 11, 69, 0
9, 60720, Note_on_c, 11, 60, 52
9, 60944, Note_on_c, 11, 60, 0
9, 60960, Note_on_c, 11, 65, 52
9, 61184, Note_on_c, 11, 65, 0
9, 61200, Note_on_c, 11, 64, 52
9, 61424, Note_on_c, 11, 64, 0
9, 61440, Note_on_c, 11, 69, 52
9, 61664, Note_on_c, 11, 69, 0
9, 61680, Note_on_c, 11, 67, 52
9, 61904, Note_on_c, 11, 67, 0
9, 61920, Note_on_c, 11, 70, 52
9, 62144, Note_on_c, 11, 70, 0
9, 62160, Note_on_c, 11, 69, 52
9, 62384, Note_on_c, 11, 69, 0
9, 62400, Note_on_c, 11, 67, 52
9, 62624, Note_on_c, 11, 67, 0
9, 62640, Note_on_c, 11, 65, 52
9, 62834, Note_on_c, 11, 65, 0
9, 62850, Note_on_c, 11, 64, 52
9, 62879, Note_on_c, 11, 64, 0
9, 62880, Note_on_c, 11, 62, 52
9, 62909, Note_on_c, 11, 62, 0
9, 62910, Note_on_c, 11, 64, 52
9, 62939, Note_on_c, 11, 64, 0
9, 62940, Note_on_c, 11, 62, 52
9, 62969, Note_on_c, 11, 62, 0
9, 62970, Note_on_c, 11, 64, 52
9, 62999, Note_on_c, 11, 64, 0
9, 63000, Note_on_c, 11, 62, 52
9, 63029, Note_on_c, 11, 62, 0
9, 63030, Note_on_c, 11, 64, 52
9, 63059, Note_on_c, 11, 64, 0
9, 63060, Note_on_c, 11, 62, 52
9, 63089, Note_on_c, 11, 62, 0
9, 63090, Note_on_c, 11, 64, 52
9, 63119, Note_on_c, 11, 64, 0
9, 63120, Note_on_c, 11, 62, 52
9, 63149, Note_on_c, 11, 62, 0
9, 63150, Note_on_c, 11, 64, 52
9, 63179, Note_on_c, 11, 64, 0
9, 63180, Note_on_c, 11, 62, 52
9, 63209, Note_on_c, 11, 62, 0
9, 63210, Note_on_c, 11, 64, 52
9, 63239, Note_on_c, 11, 64, 0
9, 63240, Note_on_c, 11, 62, 52
9, 63269, Note_on_c, 11, 62, 0
9, 63270, Note_on_c, 11, 64, 52
9, 63299, Note_on_c, 11, 64, 0
9, 63300, Note_on_c, 11, 62, 52
9, 63329, Note_on_c, 11, 62, 0
9, 63330, Note_on_c, 11, 64, 52
9, 63359, Note_on_c, 11, 64, 0
9, 63360, Note_on_c, 11, 62, 52
9, 63389, Note_on_c, 11, 62, 0
9, 63390, Note_on_c, 11, 64, 52
9, 63419, Note_on_c, 11, 64, 0
9, 63420, Note_on_c, 11, 62, 52
9, 63449, Note_on_c, 11, 62, 0
9, 63450, Note_on_c, 11, 64, 52
9, 63479, Note_on_c, 11, 64, 0
9, 63480, Note_on_c, 11, 62, 52
9, 63509, Note_on_c, 11, 62, 0
9, 63510, Note_on_c, 11, 64, 52
9, 63539, Note_on_c, 11, 64, 0
9, 63540, Note_on_c, 11, 60, 52
9, 63569, Note_on_c, 11, 60, 0
9, 63570, Note_on_c, 11, 62, 52
9, 63599, Note_on_c, 11, 62, 0
9, 63600, Note_on_c, 11, 64, 52
9, 63824, Note_on_c, 11, 64, 0
9, 63840, Note_on_c, 11, 69, 52
9, 64079, Note_on_c, 11, 69, 0
9, 64080, Note_on_c, 11, 67, 52
9, 64304, Note_on_c, 11, 67, 0
9, 64320, Note_on_c, 11, 58, 52
9, 64559, Note_on_c, 11, 58, 0
9, 64560, Note_on_c, 11, 57, 52
9, 64784, Note_on_c, 11, 57, 0
9, 64800, Note_on_c, 11, 60, 52
9, 65024, Note_on_c, 11, 60, 0
9, 65040, Note_on_c, 11, 66, 52
9, 65264, Note_on_c, 11, 66, 0
9, 65280, Note_on_c, 11, 69, 52
9, 65519, Note_on_c, 11, 69, 0
9, 65520, Note_on_c, 11, 71, 52
9, 65744, Note_on_c, 11, 71, 0
9, 65760, Note_on_c, 11, 60, 52
9, 65999, Note_on_c, 11, 60, 0
9, 66000, Note_on_c, 11, 59, 52
9, 66224, Note_on_c, 11, 59, 0
9, 66240, Note_on_c, 11, 62, 52
9, 66464, Note_on_c, 11, 62, 0
9, 66480, Note_on_c, 11, 65, 52
9, 66704, Note_on_c, 11, 65, 0
9, 66720, Note_on_c, 11, 71, 52
9, 66959, Note_on_c, 11, 71, 0
9, 66960, Note_on_c, 11, 72, 52
9, 67184, Note_on_c, 11, 72, 0
9, 67200, Note_on_c, 11, 66, 52
9, 67439, Note_on_c, 11, 66, 0
9, 67440, Note_on_c, 11, 67, 52
9, 67664, Note_on_c, 11, 67, 0
9, 67680, Note_on_c, 11, 77, 52
9, 67904, Note_on_c, 11, 77, 0
9, 67920, Note_on_c, 11, 76, 52
9, 68144, Note_on_c, 11, 76, 0
9, 68160, Note_on_c, 11, 72, 52
9, 68384, Note_on_c, 11, 72, 0
9, 68400, Note_on_c, 11, 71, 52
9, 68624, Note_on_c, 11, 71, 0
9, 68640, Note_on_c, 11, 72, 52
9, 69359, Note_on_c, 11, 72, 0
9, 69600, Note_on_c, 11, 72, 76
9, 69824, Note_on_c, 11, 72, 0
9, 69840, Note_on_c, 11, 76, 76
9, 69944, Note_on_c, 11, 76, 0
9, 69960, Note_on_c, 11, 72, 76
9, 70064, Note_on_c, 11, 72, 0
9, 70080, Note_on_c, 11, 79, 76
9, 70304, Note_on_c, 11, 79, 0
9, 70320, Note_on_c, 11, 81, 76
9, 70544, Note_on_c, 11, 81, 0
9, 70560, Note_on_c, 11, 77, 76
9, 70589, Note_on_c, 11, 77, 0
9, 70590, Note_on_c, 11, 79, 76
9, 70619, Note_on_c, 11, 79, 0
9, 70620, Note_on_c, 11, 77, 76
9, 70649, Note_on_c, 11, 77, 0
9, 70650, Note_on_c, 11, 79, 76
9, 70679, Note_on_c, 11, 79, 0
9, 70680, Note_on_c, 11, 77, 76
9, 70709, Note_on_c, 11, 77, 0
9, 70710, Note_on_c, 11, 79, 76
9, 70739, Note_on_c, 11, 79, 0
9, 70740, Note_on_c, 11, 77, 76
9, 70769, Note_on_c, 11, 77, 0
9, 70770, Note_on_c, 11, 79, 76
9, 70799, Note_on_c, 11, 79, 0
9, 70800, Note_on_c, 11, 77, 76
9, 70829, Note_on_c, 11, 77, 0
9, 70830, Note_on_c, 11, 79, 76
9, 70859, Note_on_c, 11, 79, 0
9, 70860, Note_on_c, 11, 77, 76
9, 70889, Note_on_c, 11, 77, 0
9, 70890, Note_on_c, 11, 79, 76
9, 70919, Note_on_c, 11, 79, 0
9, 70920, Note_on_c, 11, 76, 76
9, 70964, Note_on_c, 11, 76, 0
9, 70980, Note_on_c, 11, 77, 76
9, 71024, Note_on_c, 11, 77, 0
9, 71040, Note_on_c, 11, 79, 76
9, 71264, Note_on_c, 11, 79, 0
9, 71280, Note_on_c, 11, 76, 76
9, 71384, Note_on_c, 11, 76, 0
9, 71400, Note_on_c, 11, 72, 76
9, 71504, Note_on_c, 11, 72, 0
9, 71520, Note_on_c, 11, 77, 76
9, 71744, Note_on_c, 11, 77, 0
9, 71760, Note_on_c, 11, 74, 76
9, 71864, Note_on_c, 11, 74, 0
9, 71880, Note_on_c, 11, 72, 76
9, 71984, Note_on_c, 11, 72, 0
9, 72000, Note_on_c, 11, 74, 76
9, 72104, Note_on_c, 11, 74, 0
9, 72120, Note_on_c, 11, 76, 76
9, 72224, Note_on_c, 11, 76, 0
9, 72240, Note_on_c, 11, 77, 76
9, 72344, Note_on_c, 11, 77, 0
9, 72360, Note_on_c, 11, 74, 76
9, 72464, Note_on_c, 11, 74, 0
9, 72480, Note_on_c, 11, 76, 76
9, 72704, Note_on_c, 11, 76, 0
9, 72720, Note_on_c, 11, 79, 76
9, 72824, Note_on_c, 11, 79, 0
9, 72840, Note_on_c, 11, 76, 76
9, 72944, Note_on_c, 11, 76, 0
9, 72960, Note_on_c, 11, 84, 76
9, 73154, Note_on_c, 11, 84, 0
9, 73170, Note_on_c, 11, 79, 76
9, 73199, Note_on_c, 11, 79, 0
9, 73200, Note_on_c, 11, 78, 76
9, 73424, Note_on_c, 11, 78, 0
9, 73440, Note_on_c, 11, 76, 76
9, 73559, Note_on_c, 11, 76, 0
9, 73560, Note_on_c, 11, 74, 76
9, 73664, Note_on_c, 11, 74, 0
9, 73680, Note_on_c, 11, 72, 76
9, 73799, Note_on_c, 11, 72, 0
9, 73800, Note_on_c, 11, 71, 76
9, 73904, Note_on_c, 11, 71, 0
9, 73920, Note_on_c, 11, 76, 76
9, 74144, Note_on_c, 11, 76, 0
9, 74160, Note_on_c, 11, 69, 76
9, 74189, Note_on_c, 11, 69, 0
9, 74190, Note_on_c, 11, 71, 76
9, 74219, Note_on_c, 11, 71, 0
9, 74220, Note_on_c, 11, 69, 76
9, 74249, Note_on_c, 11, 69, 0
9, 74250, Note_on_c, 11, 71, 76
9, 74279, Note_on_c, 11, 71, 0
9, 74280, Note_on_c, 11, 69, 76
9, 74309, Note_on_c, 11, 69, 0
9, 74310, Note_on_c, 11, 71, 76
9, 74339, Note_on_c, 11, 71, 0
9, 74340, Note_on_c, 11, 69, 76
9, 74369, Note_on_c, 11, 69, 0
9, 74370, Note_on_c, 11, 71, 76
9, 74399, Note_on_c, 11, 71, 0
9, 74400, Note_on_c, 11, 69, 76
9, 74429, Note_on_c, 11, 69, 0
9, 74430, Note_on_c, 11, 71, 76
9, 74459, Note_on_c, 11, 71, 0
9, 74460, Note_on_c, 11, 67, 76
9, 74489, Note_on_c, 11, 67, 0
9, 74490, Note_on_c, 11, 69, 76
9, 74519, Note_on_c, 11, 69, 0
9, 74520, Note_on_c, 11, 67, 76
9, 74624, Note_on_c, 11, 67, 0
9, 74640, Note_on_c, 11, 67, 76
9, 75344, Note_on_c, 11, 67, 0
9, 75360, Note_on_c, 11, 72, 76
9, 75584, Note_on_c, 11, 72, 0
9, 75600, Note_on_c, 11, 76, 76
9, 75704, Note_on_c, 11, 76, 0
9, 75720, Note_on_c, 11, 72, 76
9, 75824, Note_on_c, 11, 72, 0
9, 75840, Note_on_c, 11, 79, 76
9, 76064, Note_on_c, 11, 79, 0
9, 76080, Note_on_c, 11, 81, 76
9, 76304, Note_on_c, 11, 81, 0
9, 76320, Note_on_c, 11, 77, 76
9, 76349, Note_on_c, 11, 77, 0
9, 76350, Note_on_c, 11, 79, 76
9, 76379, Note_on_c, 11, 79, 0
9, 76380, Note_on_c, 11, 77, 76
9, 76409, Note_on_c, 11, 77, 0
9, 76410, Note_on_c, 11, 79, 76
9, 76439, Note_on_c, 11, 79, 0
9, 76440, Note_on_c, 11, 77, 76
9, 76469, Note_on_c, 11, 77, 0
9, 76470, Note_on_c, 11, 79, 76
9, 76499, Note_on_c, 11, 79, 0
9, 76500, Note_on_c, 11, 77, 76
9, 76529, Note_on_c, 11, 77, 0
9, 76530, Note_on_c, 11, 79, 76
9, 76559, Note_on_c, 11, 79, 0
9, 76560, Note_on_c, 11, 77, 76
9, 76589, Note_on_c, 11, 77, 0
9, 76590, Note_on_c, 11, 79, 76
9, 76619, Note_on_c, 11, 79, 0
9, 76620, Note_on_c, 11, 77, 76
9, 76649, Note_on_c, 11, 77, 0
9, 76650, Note_on_c, 11, 79, 76
9, 76679, Note_on_c, 11, 79, 0
9, 76680, Note_on_c, 11, 76, 76
9, 76724, Note_on_c, 11, 76, 0
9, 76740, Note_on_c, 11, 77, 76
9, 76784, Note_on_c, 11, 77, 0
9, 76800, Note_on_c, 11, 79, 76
9, 77024, Note_on_c, 11, 79, 0
9, 77040, Note_on_c, 11, 76, 76
9, 77144, Note_on_c, 11, 76, 0
9, 77160, Note_on_c, 11, 72, 76
9, 77264, Note_on_c, 11, 72, 0
9, 77280, Note_on_c, 11, 77, 76
9, 77504, Note_on_c, 11, 77, 0
9, 77520, Note_on_c, 11, 74, 76
9, 77624, Note_on_c, 11, 74, 0
9, 77640, Note_on_c, 11, 72, 76
9, 77744, Note_on_c, 11, 72, 0
9, 77760, Note_on_c, 11, 74, 76
9, 77864, Note_on_c, 11, 74, 0
9, 77880, Note_on_c, 11, 76, 76
9, 77984, Note_on_c, 11, 76, 0
9, 78000, Note_on_c, 11, 77, 76
9, 78104, Note_on_c, 11, 77, 0
9, 78120, Note_on_c, 11, 74, 76
9, 78224, Note_on_c, 11, 74, 0
9, 78240, Note_on_c, 11, 76, 76
9, 78464, Note_on_c, 11, 76, 0
9, 78480, Note_on_c, 11, 79, 76
9, 78584, Note_on_c, 11, 79, 0
9, 78600, Note_on_c, 11, 76, 76
9, 78704, Note_on_c, 11, 76, 0
9, 78720, Note_on_c, 11, 84, 76
9, 78914, Note_on_c, 11, 84, 0
9, 78930, Note_on_c, 11, 79, 76
9, 78959, Note_on_c, 11, 79, 0
9, 78960, Note_on_c, 11, 78, 76
9, 79184, Note_on_c, 11, 78, 0
9, 79200, Note_on_c, 11, 76, 76
9, 79319, Note_on_c, 11, 76, 0
9, 79320, Note_on_c, 11, 74, 76
9, 79424, Note_on_c, 11, 74, 0
9, 79440, Note_on_c, 11, 72, 76
9, 79559, Note_on_c, 11, 72, 0
9, 79560, Note_on_c, 11, 71, 76
9, 79664, Note_on_c, 11, 71, 0
9, 79680, Note_on_c, 11, 76, 76
9, 79904, Note_on_c, 11, 76, 0
9, 79920, Note_on_c, 11, 69, 76
9, 79949, Note_on_c, 11, 69, 0
9, 79950, Note_on_c, 11, 71, 76
9, 79979, Note_on_c, 11, 71, 0
9, 79980, Note_on_c, 11, 69, 76
9, 80009, Note_on_c, 11, 69, 0
9, 80010, Note_on_c, 11, 71, 76
9, 80039, Note_on_c, 11, 71, 0
9, 80040, Note_on_c, 11, 69, 76
9, 80069, Note_on_c, 11, 69, 0
9, 80070, Note_on_c, 11, 71, 76
9, 80099, Note_on_c, 11, 71, 0
9, 80100, Note_on_c, 11, 69, 76
9, 80129, Note_on_c, 11, 69, 0
9, 80130, Note_on_c, 11, 71, 76
9, 80159, Note_on_c, 11, 71, 0
9, 80160, Note_on_c, 11, 69, 76
9, 80189, Note_on_c, 11, 69, 0
9, 80190, Note_on_c, 11, 71, 76
9, 80219, Note_on_c, 11, 71, 0
9, 80220, Note_on_c, 11, 67, 76
9, 80249, Note_on_c, 11, 67, 0
9, 80250, Note_on_c, 11, 69, 76
9, 80279, Note_on_c, 11, 69, 0
9, 80280, Note_on_c, 11, 67, 76
9, 80384, Note_on_c, 11, 67, 0
9, 80400, Note_on_c, 11, 67, 76
9, 81104, Note_on_c, 11, 67, 0
9, 81120, Note_on_c, 11, 67, 76
9, 81344, Note_on_c, 11, 67, 0
9, 81360, Note_on_c, 11, 71, 76
9, 81464, Note_on_c, 11, 71, 0
9, 81480, Note_on_c, 11, 67, 76
9, 81584, Note_on_c, 11, 67, 0
9, 81600, Note_on_c, 11, 74, 76
9, 81824, Note_on_c, 11, 74, 0
9, 81840, Note_on_c, 11, 77, 76
9, 82064, Note_on_c, 11, 77, 0
9, 82080, Note_on_c, 11, 74, 76
9, 82109, Note_on_c, 11, 74, 0
9, 82110, Note_on_c, 11, 76, 76
9, 82139, Note_on_c, 11, 76, 0
9, 82140, Note_on_c, 11, 74, 76
9, 82169, Note_on_c, 11, 74, 0
9, 82170, Note_on_c, 11, 76, 76
9, 82199, Note_on_c, 11, 76, 0
9, 82200, Note_on_c, 11, 74, 76
9, 82229, Note_on_c, 11, 74, 0
9, 82230, Note_on_c, 11, 76, 76
9, 82259, Note_on_c, 11, 76, 0
9, 82260, Note_on_c, 11, 74, 76
9, 82289, Note_on_c, 11, 74, 0
9, 82290, Note_on_c, 11, 76, 76
9, 82319, Note_on_c, 11, 76, 0
9, 82320, Note_on_c, 11, 74, 76
9, 82349, Note_on_c, 11, 74, 0
9, 82350, Note_on_c, 11, 76, 76
9, 82379, Note_on_c, 11, 76, 0
9, 82380, Note_on_c, 11, 74, 76
9, 82409, Note_on_c, 11, 74, 0
9, 82410, Note_on_c, 11, 76, 76
9, 82439, Note_on_c, 11, 76, 0
9, 82440, Note_on_c, 11, 72, 76
9, 82484, Note_on_c, 11, 72, 0
9, 82500, Note_on_c, 11, 74, 76
9, 82544, Note_on_c, 11, 74, 0
9, 82560, Note_on_c, 11, 76, 76
9, 82784, Note_on_c, 11, 76, 0
9, 82800, Note_on_c, 11, 72, 76
9, 82904, Note_on_c, 11, 72, 0
9, 82920, Note_on_c, 11, 69, 76
9, 83024, Note_on_c, 11, 69, 0
9, 83040, Note_on_c, 11, 81, 76
9, 83264, Note_on_c, 11, 81, 0
9, 83280, Note_on_c, 11, 80, 76
9, 83399, Note_on_c, 11, 80, 0
9, 83400, Note_on_c, 11, 81, 76
9, 83519, Note_on_c, 11, 81, 0
9, 83520, Note_on_c, 11, 83, 76
9, 83624, Note_on_c, 11, 83, 0
9, 83640, Note_on_c, 11, 80, 76
9, 83744, Note_on_c, 11, 80, 0
9, 83760, Note_on_c, 11, 76, 76
9, 83864, Note_on_c, 11, 76, 0
9, 83880, Note_on_c, 11, 74, 76
9, 83984, Note_on_c, 11, 74, 0
9, 84000, Note_on_c, 11, 72, 76
9, 84224, Note_on_c, 11, 72, 0
9, 84240, Note_on_c, 11, 76, 76
9, 84344, Note_on_c, 11, 76, 0
9, 84360, Note_on_c, 11, 72, 76
9, 84464, Note_on_c, 11, 72, 0
9, 84480, Note_on_c, 11, 81, 76
9, 84704, Note_on_c, 11, 81, 0
9, 84720, Note_on_c, 11, 71, 76
9, 84824, Note_on_c, 11, 71, 0
9, 84840, Note_on_c, 11, 72, 76
9, 84944, Note_on_c, 11, 72, 0
9, 84960, Note_on_c, 11, 74, 76
9, 85304, Note_on_c, 11, 74, 0
9, 85320, Note_on_c, 11, 77, 76
9, 85424, Note_on_c, 11, 77, 0
9, 85440, Note_on_c, 11, 76, 76
9, 85664, Note_on_c, 11, 76, 0
9, 85680, Note_on_c, 11, 74, 76
9, 85784, Note_on_c, 11, 74, 0
9, 85800, Note_on_c, 11, 72, 76
9, 85904, Note_on_c, 11, 72, 0
9, 85920, Note_on_c, 11, 71, 76
9, 86024, Note_on_c, 11, 71, 0
9, 86040, Note_on_c, 11, 72, 76
9, 86144, Note_on_c, 11, 72, 0
9, 86160, Note_on_c, 11, 69, 76
9, 86864, Note_on_c, 11, 69, 0
9, 86880, Note_on_c, 11, 67, 76
9, 87104, Note_on_c, 11, 67, 0
9, 87120, Note_on_c, 11, 72, 76
9, 87224, Note_on_c, 11, 72, 0
9, 87240, Note_on_c, 11, 67, 76
9, 87344, Note_on_c, 11, 67, 0
9, 87360, Note_on_c, 11, 76, 76
9, 87584, Note_on_c, 11, 76, 0
9, 87600, Note_on_c, 11, 69, 76
9, 87704, Note_on_c, 11, 69, 0
9, 87720, Note_on_c, 11, 71, 76
9, 87824, Note_on_c, 11, 71, 0
9, 87840, Note_on_c, 11, 71, 76
9, 87869, Note_on_c, 11, 71, 0
9, 87870, Note_on_c, 11, 72, 76
9, 87899, Note_on_c, 11, 72, 0
9, 87900, Note_on_c, 11, 71, 76
9, 87929, Note_on_c, 11, 71, 0
9, 87930, Note_on_c, 11, 72, 76
9, 87959, Note_on_c, 11, 72, 0
9, 87960, Note_on_c, 11, 71, 76
9, 87989, Note_on_c, 11, 71, 0
9, 87990, Note_on_c, 11, 72, 76
9, 88019, Note_on_c, 11, 72, 0
9, 88020, Note_on_c, 11, 71, 76
9, 88049, Note_on_c, 11, 71, 0
9, 88050, Note_on_c, 11, 72, 76
9, 88079, Note_on_c, 11, 72, 0
9, 88080, Note_on_c, 11, 71, 76
9, 88109, Note_on_c, 11, 71, 0
9, 88110, Note_on_c, 11, 72, 76
9, 88139, Note_on_c, 11, 72, 0
9, 88140, Note_on_c, 11, 71, 76
9, 88169, Note_on_c, 11, 71, 0
9, 88170, Note_on_c, 11, 72, 76
9, 88199, Note_on_c, 11, 72, 0
9, 88200, Note_on_c, 11, 69, 76
9, 88244, Note_on_c, 11, 69, 0
9, 88260, Note_on_c, 11, 71, 76
9, 88304, Note_on_c, 11, 71, 0
9, 88320, Note_on_c, 11, 72, 76
9, 88544, Note_on_c, 11, 72, 0
9, 88560, Note_on_c, 11, 77, 76
9, 88664, Note_on_c, 11, 77, 0
9, 88680, Note_on_c, 11, 72, 76
9, 88784, Note_on_c, 11, 72, 0
9, 88800, Note_on_c, 11, 81, 76
9, 89024, Note_on_c, 11, 81, 0
9, 89040, Note_on_c, 11, 71, 76
9, 89144, Note_on_c, 11, 71, 0
9, 89160, Note_on_c, 11, 72, 76
9, 89264, Note_on_c, 11, 72, 0
9, 89280, Note_on_c, 11, 72, 76
9, 89309, Note_on_c, 11, 72, 0
9, 89310, Note_on_c, 11, 74, 76
9, 89339, Note_on_c, 11, 74, 0
9, 89340, Note_on_c, 11, 72, 76
9, 89369, Note_on_c, 11, 72, 0
9, 89370, Note_on_c, 11, 74, 76
9, 89399, Note_on_c, 11, 74, 0
9, 89400, Note_on_c, 11, 72, 76
9, 89429, Note_on_c, 11, 72, 0
9, 89430, Note_on_c, 11, 74, 76
9, 89459, Note_on_c, 11, 74, 0
9, 89460, Note_on_c, 11, 72, 76
9, 89489, Note_on_c, 11, 72, 0
9, 89490, Note_on_c, 11, 74, 76
9, 89519, Note_on_c, 11, 74, 0
9, 89520, Note_on_c, 11, 72, 76
9, 89549, Note_on_c, 11, 72, 0
9, 89550, Note_on_c, 11, 74, 76
9, 89579, Note_on_c, 11, 74, 0
9, 89580, Note_on_c, 11, 72, 76
9, 89609, Note_on_c, 11, 72, 0
9, 89610, Note_on_c, 11, 74, 76
9, 89639, Note_on_c, 11, 74, 0
9, 89640, Note_on_c, 11, 71, 76
9, 89684, Note_on_c, 11, 71, 0
9, 89700, Note_on_c, 11, 72, 76
9, 89744, Note_on_c, 11, 72, 0
9, 89760, Note_on_c, 11, 74, 76
9, 89984, Note_on_c, 11, 74, 0
9, 90000, Note_on_c, 11, 71, 76
9, 90104, Note_on_c, 11, 71, 0
9, 90120, Note_on_c, 11, 67, 76
9, 90224, Note_on_c, 11, 67, 0
9, 90240, Note_on_c, 11, 77, 76
9, 90464, Note_on_c, 11, 77, 0
9, 90480, Note_on_c, 11, 76, 76
9, 90704, Note_on_c, 11, 76, 0
9, 90720, Note_on_c, 11, 81, 76
9, 90824, Note_on_c, 11, 81, 0
9, 90840, Note_on_c, 11, 79, 76
9, 90944, Note_on_c, 11, 79, 0
9, 90960, Note_on_c, 11, 81, 76
9, 91064, Note_on_c, 11, 81, 0
9, 91080, Note_on_c, 11, 77, 76
9, 91184, Note_on_c, 11, 77, 0
9, 91200, Note_on_c, 11, 79, 76
9, 91424, Note_on_c, 11, 79, 0
9, 91440, Note_on_c, 11, 72, 76
9, 91664, Note_on_c, 11, 72, 0
9, 91680, Note_on_c, 11, 71, 76
9, 91904, Note_on_c, 11, 71, 0
9, 91920, Note_on_c, 11, 72, 76
9, 92624, Note_on_c, 11, 72, 0
9, 92640, Note_on_c, 11, 67, 76
9, 92864, Note_on_c, 11, 67, 0
9, 92880, Note_on_c, 11, 71, 76
9, 92984, Note_on_c, 11, 71, 0
9, 93000, Note_on_c, 11, 67, 76
9, 93104, Note_on_c, 11, 67, 0
9, 93120, Note_on_c, 11, 74, 76
9, 93344, Note_on_c, 11, 74, 0
9, 93360, Note_on_c, 11, 77, 76
9, 93584, Note_on_c, 11, 77, 0
9, 93600, Note_on_c, 11, 74, 76
9, 93629, Note_on_c, 11, 74, 0
9, 93630, Note_on_c, 11, 76, 76
9, 93659, Note_on_c, 11, 76, 0
9, 93660, Note_on_c, 11, 74, 76
9, 93689, Note_on_c, 11, 74, 0
9, 93690, Note_on_c, 11, 76, 76
9, 93719, Note_on_c, 11, 76, 0
9, 93720, Note_on_c, 11, 74, 76
9, 93749, Note_on_c, 11, 74, 0
9, 93750, Note_on_c, 11, 76, 76
9, 93779, Note_on_c, 11, 76, 0
9, 93780, Note_on_c, 11, 74, 76
9, 93809, Note_on_c, 11, 74, 0
9, 93810, Note_on_c, 11, 76, 76
9, 93839, Note_on_c, 11, 76, 0
9, 93840, Note_on_c, 11, 74, 76
9, 93869, Note_on_c, 11, 74, 0
9, 93870, Note_on_c, 11, 76, 76
9, 93899, Note_on_c, 11, 76, 0
9, 93900, Note_on_c, 11, 74, 76
9, 93929, Note_on_c, 11, 74, 0
9, 93930, Note_on_c, 11, 76, 76
9, 93959, Note_on_c, 11, 76, 0
9, 93960, Note_on_c, 11, 72, 76
9, 94004, Note_on_c, 11, 72, 0
9, 94020, Note_on_c, 11, 74, 76
9, 94064, Note_on_c, 11, 74, 0
9, 94080, Note_on_c, 11, 76, 76
9, 94304, Note_on_c, 11, 76, 0
9, 94320, Note_on_c, 11, 72, 76
9, 94424, Note_on_c, 11, 72, 0
9, 94440, Note_on_c, 11, 69, 76
9, 94544, Note_on_c, 11, 69, 0
9, 94560, Note_on_c, 11, 81, 76
9, 94784, Note_on_c, 11, 81, 0
9, 94800, Note_on_c, 11, 80, 76
9, 94919, Note_on_c, 11, 80, 0
9, 94920, Note_on_c, 11, 81, 76
9, 95039, Note_on_c, 11, 81, 0
9, 95040, Note_on_c, 11, 83, 76
9, 95144, Note_on_c, 11, 83, 0
9, 95160, Note_on_c, 11, 80, 76
9, 95264, Note_on_c, 11, 80, 0
9, 95280, Note_on_c, 11, 76, 76
9, 95384, Note_on_c, 11, 76, 0
9, 95400, Note_on_c, 11, 74, 76
9, 95504, Note_on_c, 11, 74, 0
9, 95520, Note_on_c, 11, 72, 76
9, 95744, Note_on_c, 11, 72, 0
9, 95760, Note_on_c, 11, 76, 76
9, 95864, Note_on_c, 11, 76, 0
9, 95880, Note_on_c, 11, 72, 76
9, 95984, Note_on_c, 11, 72, 0
9, 96000, Note_on_c, 11, 81, 76
9, 96224, Note_on_c, 11, 81, 0
9, 96240, Note_on_c, 11, 71, 76
9, 96344, Note_on_c, 11, 71, 0
9, 96360, Note_on_c, 11, 72, 76
9, 96464, Note_on_c, 11, 72, 0
9, 96480, Note_on_c, 11, 74, 76
9, 96824, Note_on_c, 11, 74, 0
9, 96840, Note_on_c, 11, 77, 76
9, 96944, Note_on_c, 11, 77, 0
9, 96960, Note_on_c, 11, 76, 76
9, 97184, Note_on_c, 11, 76, 0
9, 97200, Note_on_c, 11, 74, 76
9, 97304, Note_on_c, 11, 74, 0
9, 97320, Note_on_c, 11, 72, 76
9, 97424, Note_on_c, 11, 72, 0
9, 97440, Note_on_c, 11, 71, 76
9, 97544, Note_on_c, 11, 71, 0
9, 97560, Note_on_c, 11, 72, 76
9, 97664, Note_on_c, 11, 72, 0
9, 97680, Note_on_c, 11, 69, 76
9, 98384, Note_on_c, 11, 69, 0
9, 98400, Note_on_c, 11, 67, 76
9, 98624, Note_on_c, 11, 67, 0
9, 98640, Note_on_c, 11, 72, 76
9, 98744, Note_on_c, 11, 72, 0
9, 98760, Note_on_c, 11, 67, 76
9, 98864, Note_on_c, 11, 67, 0
9, 98880, Note_on_c, 11, 76, 76
9, 99104, Note_on_c, 11, 76, 0
9, 99120, Note_on_c, 11, 69, 76
9, 99224, Note_on_c, 11, 69, 0
9, 99240, Note_on_c, 11, 71, 76
9, 99344, Note_on_c, 11, 71, 0
9, 99360, Note_on_c, 11, 71, 76
9, 99389, Note_on_c, 11, 71, 0
9, 99390, Note_on_c, 11, 72, 76
9, 99419, Note_on_c, 11, 72, 0
9, 99420, Note_on_c, 11, 71, 76
9, 99449, Note_on_c, 11, 71, 0
9, 99450, Note_on_c, 11, 72, 76
9, 99479, Note_on_c, 11, 72, 0
9, 99480, Note_on_c, 11, 71, 76
9, 99509, Note_on_c, 11, 71, 0
9, 99510, Note_on_c, 11, 72, 76
9, 99539, Note_on_c, 11, 72, 0
9, 99540, Note_on_c, 11, 71, 76
9, 99569, Note_on_c, 11, 71, 0
9, 99570, Note_on_c, 11, 72, 76
9, 99599, Note_on_c, 11, 72, 0
9, 99600, Note_on_c, 11, 71, 76
9, 99629, Note_on_c, 11, 71, 0
9, 99630, Note_on_c, 11, 72, 76
9, 99659, Note_on_c, 11, 72, 0
9, 99660, Note_on_c, 11, 71, 76
9, 99689, Note_on_c, 11, 71, 0
9, 99690, Note_on_c, 11, 72, 76
9, 99719, Note_on_c, 11, 72, 0
9, 99720, Note_on_c, 11, 69, 76
9, 99764, Note_on_c, 11, 69, 0
9, 99780, Note_on_c, 11, 71, 76
9, 99824, Note_on_c, 11, 71, 0
9, 99840, Note_on_c, 11, 72, 76
9, 100064, Note_on_c, 11, 72, 0
9, 100080, Note_on_c, 11, 77, 76
9, 100184, Note_on_c, 11, 77, 0
9, 100200, Note_on_c, 11, 72, 76
9, 100304, Note_on_c, 11, 72, 0
9, 100320, Note_on_c, 11, 81, 76
9, 100544, Note_on_c, 11, 81, 0
9, 100560, Note_on_c, 11, 71, 76
9, 100664, Note_on_c, 11, 71, 0
9, 100680, Note_on_c, 11, 72, 76
9, 100784, Note_on_c, 11, 72, 0
9, 100800, Note_on_c, 11, 72, 76
9, 100829, Note_on_c, 11, 72, 0
9, 100830, Note_on_c, 11, 74, 76
9, 100859, Note_on_c, 11, 74, 0
9, 100860, Note_on_c, 11, 72, 76
9, 100889, Note_on_c, 11, 72, 0
9, 100890, Note_on_c, 11, 74, 76
9, 100919, Note_on_c, 11, 74, 0
9, 100920, Note_on_c, 11, 72, 76
9, 100949, Note_on_c, 11, 72, 0
9, 100950, Note_on_c, 11, 74, 76
9, 100979, Note_on_c, 11, 74, 0
9, 100980, Note_on_c, 11, 72, 76
9, 101009, Note_on_c, 11, 72, 0
9, 101010, Note_on_c, 11, 74, 76
9, 101039, Note_on_c, 11, 74, 0
9, 101040, Note_on_c, 11, 72, 76
9, 101069, Note_on_c, 11, 72, 0
9, 101070, Note_on_c, 11, 74, 76
9, 101099, Note_on_c, 11, 74, 0
9, 101100, Note_on_c, 11, 72, 76
9, 101129, Note_on_c, 11, 72, 0
9, 101130, Note_on_c, 11, 74, 76
9, 101159, Note_on_c, 11, 74, 0
9, 101160, Note_on_c, 11, 71, 76
9, 101204, Note_on_c, 11, 71, 0
9, 101220, Note_on_c, 11, 72, 76
9, 101264, Note_on_c, 11, 72, 0
9, 101280, Note_on_c, 11, 74, 76
9, 101504, Note_on_c, 11, 74, 0
9, 101520, Note_on_c, 11, 71, 76
9, 101624, Note_on_c, 11, 71, 0
9, 101640, Note_on_c, 11, 67, 76
9, 101744, Note_on_c, 11, 67, 0
9, 101760, Note_on_c, 11, 77, 76
9, 101984, Note_on_c, 11, 77, 0
9, 102000, Note_on_c, 11, 76, 76
9, 102224, Note_on_c, 11, 76, 0
9, 102240, Note_on_c, 11, 81, 76
9, 102344, Note_on_c, 11, 81, 0
9, 102360, Note_on_c, 11, 79, 76
9, 102464, Note_on_c, 11, 79, 0
9, 102480, Note_on_c, 11, 81, 76
9, 102584, Note_on_c, 11, 81, 0
9, 102600, Note_on_c, 11, 77, 76
9, 102704, Note_on_c, 11, 77, 0
9, 102720, Note_on_c, 11, 79, 76
9, 102944, Note_on_c, 11, 79, 0
9, 102960, Note_on_c, 11, 72, 76
9, 103184, Note_on_c, 11, 72, 0
9, 103200, Note_on_c, 11, 71, 76
9, 103424, Note_on_c, 11, 71, 0
9, 103440, Note_on_c, 11, 72, 76
9, 104159, Note_on_c, 11, 72, 0
9, 104159, End_track
10, 0, Start_track
10, 0, Title_t, "Violin II"
10, 0, MIDI_port, 0
10, 0, Program_c, 12, 48
10, 0, Control_c, 12, 10, 24
10, 0, Control_c, 12, 11, 127
10, 0, Control_c, 12, 7, 96
10, 0, Note_on_c, 12, 67, 76
10, 224, Note_on_c, 12, 67, 0
10, 240, Note_on_c, 12, 72, 76
10, 464, Note_on_c, 12, 72, 0
10, 480, Note_on_c, 12, 72, 76
10, 704, Note_on_c, 12, 72, 0
10, 720, Note_on_c, 12, 72, 76
10, 944, Note_on_c, 12, 72, 0
10, 960, Note_on_c, 12, 69, 76
10, 1184, Note_on_c, 12, 69, 0
10, 1200, Note_on_c, 12, 69, 76
10, 1424, Note_on_c, 12, 69, 0
10, 1440, Note_on_c, 12, 74, 76
10, 1664, Note_on_c, 12, 74, 0
10, 1680, Note_on_c, 12, 72, 76
10, 1904, Note_on_c, 12, 72, 0
10, 1920, Note_on_c, 12, 74, 76
10, 2144, Note_on_c, 12, 74, 0
10, 2160, Note_on_c, 12, 71, 76
10, 2384, Note_on_c, 12, 71, 0
10, 2400, Note_on_c, 12, 74, 76
10, 2624, Note_on_c, 12, 74, 0
10, 2640, Note_on_c, 12, 71, 76
10, 2864, Note_on_c, 12, 71, 0
10, 2880, Note_on_c, 12, 72, 76
10, 3344, Note_on_c, 12, 72, 0
10, 3360, Note_on_c, 12, 76, 76
10, 3584, Note_on_c, 12, 76, 0
10, 3600, Note_on_c, 12, 74, 76
10, 3824, Note_on_c, 12, 74, 0
10, 3840, Note_on_c, 12, 69, 76
10, 4064, Note_on_c, 12, 69, 0
10, 4080, Note_on_c, 12, 67, 76
10, 4304, Note_on_c, 12, 67, 0
10, 4320, Note_on_c, 12, 67, 76
10, 4424, Note_on_c, 12, 67, 0
10, 4440, Note_on_c, 12, 69, 76
10, 4544, Note_on_c, 12, 69, 0
10, 4560, Note_on_c, 12, 66, 76
10, 4904, Note_on_c, 12, 66, 0
10, 4920, Note_on_c, 12, 62, 76
10, 5024, Note_on_c, 12, 62, 0
10, 5040, Note_on_c, 12, 62, 76
10, 5744, Note_on_c, 12, 62, 0
10, 5760, Note_on_c, 12, 67, 76
10, 5984, Note_on_c, 12, 67, 0
10, 6000, Note_on_c, 12, 72, 76
10, 6224, Note_on_c, 12, 72, 0
10, 6240, Note_on_c, 12, 72, 76
10, 6464, Note_on_c, 12, 72, 0
10, 6480, Note_on_c, 12, 72, 76
10, 6704, Note_on_c, 12, 72, 0
10, 6720, Note_on_c, 12, 69, 76
10, 6944, Note_on_c, 12, 69, 0
10, 6960, Note_on_c, 12, 69, 76
10, 7184, Note_on_c, 12, 69, 0
10, 7200, Note_on_c, 12, 74, 76
10, 7424, Note_on_c, 12, 74, 0
10, 7440, Note_on_c, 12, 72, 76
10, 7664, Note_on_c, 12, 72, 0
10, 7680, Note_on_c, 12, 74, 76
10, 7904, Note_on_c, 12, 74, 0
10, 7920, Note_on_c, 12, 71, 76
10, 8144, Note_on_c, 12, 71, 0
10, 8160, Note_on_c, 12, 74, 76
10, 8384, Note_on_c, 12, 74, 0
10, 8400, Note_on_c, 12, 71, 76
10, 8624, Note_on_c, 12, 71, 0
10, 8640, Note_on_c, 12, 72, 76
10, 9104, Note_on_c, 12, 72, 0
10, 9120, Note_on_c, 12, 76, 76
10, 9344, Note_on_c, 12, 76, 0
10, 9360, Note_on_c, 12, 74, 76
10, 9584, Note_on_c, 12, 74, 0
10, 9600, Note_on_c, 12, 69, 76
10, 9824, Note_on_c, 12, 69, 0
10, 9840, Note_on_c, 12, 67, 76
10, 10064, Note_on_c, 12, 67, 0
10, 10080, Note_on_c, 12, 67, 76
10, 10184, Note_on_c, 12, 67, 0
10, 10200, Note_on_c, 12, 69, 76
10, 10304, Note_on_c, 12, 69, 0
10, 10320, Note_on_c, 12, 66, 76
10, 10664, Note_on_c, 12, 66, 0
10, 10680, Note_on_c, 12, 62, 76
10, 10784, Note_on_c, 12, 62, 0
10, 10800, Note_on_c, 12, 62, 76
10, 11504, Note_on_c, 12, 62, 0
10, 11520, Note_on_c, 12, 62, 76
10, 11744, Note_on_c, 12, 62, 0
10, 11760, Note_on_c, 12, 67, 76
10, 11984, Note_on_c, 12, 67, 0
10, 12000, Note_on_c, 12, 67, 76
10, 12224, Note_on_c, 12, 67, 0
10, 12240, Note_on_c, 12, 71, 76
10, 12464, Note_on_c, 12, 71, 0
10, 12480, Note_on_c, 12, 71, 76
10, 12509, Note_on_c, 12, 71, 0
10, 12510, Note_on_c, 12, 72, 76
10, 12539, Note_on_c, 12, 72, 0
10, 12540, Note_on_c, 12, 71, 76
10, 12569, Note_on_c, 12, 71, 0
10, 12570, Note_on_c, 12, 72, 76
10, 12599, Note_on_c, 12, 72, 0
10, 12600, Note_on_c, 12, 71, 76
10, 12629, Note_on_c, 12, 71, 0
10, 12630, Note_on_c, 12, 72, 76
10, 12659, Note_on_c, 12, 72, 0
10, 12660, Note_on_c, 12, 71, 76
10, 12689, Note_on_c, 12, 71, 0
10, 12690, Note_on_c, 12, 72, 76
10, 12719, Note_on_c, 12, 72, 0
10, 12720, Note_on_c, 12, 71, 76
10, 12749, Note_on_c, 12, 71, 0
10, 12750, Note_on_c, 12, 72, 76
10, 12779, Note_on_c, 12, 72, 0
10, 12780, Note_on_c, 12, 71, 76
10, 12809, Note_on_c, 12, 71, 0
10, 12810, Note_on_c, 12, 72, 76
10, 12839, Note_on_c, 12, 72, 0
10, 12840, Note_on_c, 12, 69, 76
10, 12884, Note_on_c, 12, 69, 0
10, 12900, Note_on_c, 12, 71, 76
10, 12944, Note_on_c, 12, 71, 0
10, 12960, Note_on_c, 12, 72, 76
10, 13184, Note_on_c, 12, 72, 0
10, 13200, Note_on_c, 12, 72, 76
10, 13424, Note_on_c, 12, 72, 0
10, 13440, Note_on_c, 12, 71, 76
10, 13664, Note_on_c, 12, 71, 0
10, 13680, Note_on_c, 12, 71, 76
10, 14144, Note_on_c, 12, 71, 0
10, 14160, Note_on_c, 12, 68, 76
10, 14384, Note_on_c, 12, 68, 0
10, 14400, Note_on_c, 12, 69, 76
10, 14624, Note_on_c, 12, 69, 0
10, 14640, Note_on_c, 12, 72, 76
10, 14864, Note_on_c, 12, 72, 0
10, 14880, Note_on_c, 12, 69, 76
10, 15104, Note_on_c, 12, 69, 0
10, 15120, Note_on_c, 12, 69, 76
10, 15344, Note_on_c, 12, 69, 0
10, 15360, Note_on_c, 12, 68, 76
10, 15464, Note_on_c, 12, 68, 0
10, 15480, Note_on_c, 12, 69, 76
10, 15584, Note_on_c, 12, 69, 0
10, 15600, Note_on_c, 12, 71, 76
10, 15824, Note_on_c, 12, 71, 0
10, 15840, Note_on_c, 12, 72, 76
10, 16064, Note_on_c, 12, 72, 0
10, 16080, Note_on_c, 12, 71, 76
10, 16184, Note_on_c, 12, 71, 0
10, 16200, Note_on_c, 12, 69, 76
10, 16304, Note_on_c, 12, 69, 0
10, 16320, Note_on_c, 12, 68, 76
10, 16424, Note_on_c, 12, 68, 0
10, 16440, Note_on_c, 12, 69, 76
10, 16544, Note_on_c, 12, 69, 0
10, 16560, Note_on_c, 12, 64, 76
10, 16904, Note_on_c, 12, 64, 0
10, 16920, Note_on_c, 12, 65, 76
10, 17024, Note_on_c, 12, 65, 0
10, 17040, Note_on_c, 12, 65, 76
10, 17069, Note_on_c, 12, 65, 0
10, 17070, Note_on_c, 12, 67, 76
10, 17099, Note_on_c, 12, 67, 0
10, 17100, Note_on_c, 12, 65, 76
10, 17129, Note_on_c, 12, 65, 0
10, 17130, Note_on_c, 12, 67, 76
10, 17159, Note_on_c, 12, 67, 0
10, 17160, Note_on_c, 12, 65, 76
10, 17189, Note_on_c, 12, 65, 0
10, 17190, Note_on_c, 12, 67, 76
10, 17219, Note_on_c, 12, 67, 0
10, 17220, Note_on_c, 12, 64, 76
10, 17241, Note_on_c, 12, 64, 0
10, 17250, Note_on_c, 12, 65, 76
10, 17271, Note_on_c, 12, 65, 0
10, 17280, Note_on_c, 12, 67, 76
10, 17744, Note_on_c, 12, 67, 0
10, 17760, Note_on_c, 12, 67, 76
10, 17984, Note_on_c, 12, 67, 0
10, 18000, Note_on_c, 12, 65, 76
10, 18224, Note_on_c, 12, 65, 0
10, 18240, Note_on_c, 12, 67, 76
10, 18704, Note_on_c, 12, 67, 0
10, 18720, Note_on_c, 12, 67, 76
10, 18944, Note_on_c, 12, 67, 0
10, 18960, Note_on_c, 12, 72, 76
10, 19184, Note_on_c, 12, 72, 0
10, 19200, Note_on_c, 12, 69, 76
10, 19424, Note_on_c, 12, 69, 0
10, 19440, Note_on_c, 12, 67, 76
10, 19664, Note_on_c, 12, 67, 0
10, 19680, Note_on_c, 12, 67, 76
10, 20144, Note_on_c, 12, 67, 0
10, 20160, Note_on_c, 12, 67, 76
10, 20384, Note_on_c, 12, 67, 0
10, 20400, Note_on_c, 12, 71, 76
10, 20624, Note_on_c, 12, 71, 0
10, 20640, Note_on_c, 12, 74, 76
10, 20864, Note_on_c, 12, 74, 0
10, 20880, Note_on_c, 12, 72, 76
10, 21104, Note_on_c, 12, 72, 0
10, 21120, Note_on_c, 12, 72, 76
10, 21344, Note_on_c, 12, 72, 0
10, 21360, Note_on_c, 12, 74, 76
10, 21584, Note_on_c, 12, 74, 0
10, 21600, Note_on_c, 12, 72, 76
10, 21824, Note_on_c, 12, 72, 0
10, 21840, Note_on_c, 12, 69, 76
10, 22064, Note_on_c, 12, 69, 0
10, 22080, Note_on_c, 12, 67, 76
10, 22304, Note_on_c, 12, 67, 0
10, 22320, Note_on_c, 12, 67, 76
10, 23024, Note_on_c, 12, 67, 0
10, 23040, Note_on_c, 12, 62, 76
10, 23264, Note_on_c, 12, 62, 0
10, 23280, Note_on_c, 12, 67, 76
10, 23504, Note_on_c, 12, 67, 0
10, 23520, Note_on_c, 12, 67, 76
10, 23744, Note_on_c, 12, 67, 0
10, 23760, Note_on_c, 12, 71, 76
10, 23984, Note_on_c, 12, 71, 0
10, 24000, Note_on_c, 12, 71, 76
10, 24029, Note_on_c, 12, 71, 0
10, 24030, Note_on_c, 12, 72, 76
10, 24059, Note_on_c, 12, 72, 0
10, 24060, Note_on_c, 12, 71, 76
10, 24089, Note_on_c, 12, 71, 0
10, 24090, Note_on_c, 12, 72, 76
10, 24119, Note_on_c, 12, 72, 0
10, 24120, Note_on_c, 12, 71, 76
10, 24149, Note_on_c, 12, 71, 0
10, 24150, Note_on_c, 12, 72, 76
10, 24179, Note_on_c, 12, 72, 0
10, 24180, Note_on_c, 12, 71, 76
10, 24209, Note_on_c, 12, 71, 0
10, 24210, Note_on_c, 12, 72, 76
10, 24239, Note_on_c, 12, 72, 0
10, 24240, Note_on_c, 12, 71, 76
10, 24269, Note_on_c, 12, 71, 0
10, 24270, Note_on_c, 12, 72, 76
10, 24299, Note_on_c, 12, 72, 0
10, 24300, Note_on_c, 12, 71, 76
10, 24329, Note_on_c, 12, 71, 0
10, 24330, Note_on_c, 12, 72, 76
10, 24359, Note_on_c, 12, 72, 0
10, 24360, Note_on_c, 12, 69, 76
10, 24404, Note_on_c, 12, 69, 0
10, 24420, Note_on_c, 12, 71, 76
10, 24464, Note_on_c, 12, 71, 0
10, 24480, Note_on_c, 12, 72, 76
10, 24704, Note_on_c, 12, 72, 0
10, 24720, Note_on_c, 12, 72, 76
10, 24944, Note_on_c, 12, 72, 0
10, 24960, Note_on_c, 12, 71, 76
10, 25184, Note_on_c, 12, 71, 0
10, 25200, Note_on_c, 12, 71, 76
10, 25664, Note_on_c, 12, 71, 0
10, 25680, Note_on_c, 12, 68, 76
10, 25904, Note_on_c, 12, 68, 0
10, 25920, Note_on_c, 12, 69, 76
10, 26144, Note_on_c, 12, 69, 0
10, 26160, Note_on_c, 12, 72, 76
10, 26384, Note_on_c, 12, 72, 0
10, 26400, Note_on_c, 12, 69, 76
10, 26624, Note_on_c, 12, 69, 0
10, 26640, Note_on_c, 12, 69, 76
10, 26864, Note_on_c, 12, 69, 0
10, 26880, Note_on_c, 12, 68, 76
10, 26984, Note_on_c, 12, 68, 0
10, 27000, Note_on_c, 12, 69, 76
10, 27104, Note_on_c, 12, 69, 0
10, 27120, Note_on_c, 12, 71, 76
10, 27344, Note_on_c, 12, 71, 0
10, 27360, Note_on_c, 12, 72, 76
10, 27584, Note_on_c, 12, 72, 0
10, 27600, Note_on_c, 12, 71, 76
10, 27704, Note_on_c, 12, 71, 0
10, 27720, Note_on_c, 12, 69, 76
10, 27824, Note_on_c, 12, 69, 0
10, 27840, Note_on_c, 12, 68, 76
10, 27944, Note_on_c, 12, 68, 0
10, 27960, Note_on_c, 12, 69, 76
10, 28064, Note_on_c, 12, 69, 0
10, 28080, Note_on_c, 12, 64, 76
10, 28424, Note_on_c, 12, 64, 0
10, 28440, Note_on_c, 12, 65, 76
10, 28544, Note_on_c, 12, 65, 0
10, 28560, Note_on_c, 12, 65, 76
10, 28589, Note_on_c, 12, 65, 0
10, 28590, Note_on_c, 12, 67, 76
10, 28619, Note_on_c, 12, 67, 0
10, 28620, Note_on_c, 12, 65, 76
10, 28649, Note_on_c, 12, 65, 0
10, 28650, Note_on_c, 12, 67, 76
10, 28679, Note_on_c, 12, 67, 0
10, 28680, Note_on_c, 12, 65, 76
10, 28709, Note_on_c, 12, 65, 0
10, 28710, Note_on_c, 12, 67, 76
10, 28739, Note_on_c, 12, 67, 0
10, 28740, Note_on_c, 12, 64, 76
10, 28761, Note_on_c, 12, 64, 0
10, 28770, Note_on_c, 12, 65, 76
10, 28791, Note_on_c, 12, 65, 0
10, 28800, Note_on_c, 12, 67, 76
10, 29264, Note_on_c, 12, 67, 0
10, 29280, Note_on_c, 12, 67, 76
10, 29504, Note_on_c, 12, 67, 0
10, 29520, Note_on_c, 12, 65, 76
10, 29744, Note_on_c, 12, 65, 0
10, 29760, Note_on_c, 12, 67, 76
10, 30224, Note_on_c, 12, 67, 0
10, 30240, Note_on_c, 12, 67, 76
10, 30464, Note_on_c, 12, 67, 0
10, 30480, Note_on_c, 12, 72, 76
10, 30704, Note_on_c, 12, 72, 0
10, 30720, Note_on_c, 12, 69, 76
10, 30944, Note_on_c, 12, 69, 0
10, 30960, Note_on_c, 12, 67, 76
10, 31184, Note_on_c, 12, 67, 0
10, 31200, Note_on_c, 12, 67, 76
10, 31664, Note_on_c, 12, 67, 0
10, 31680, Note_on_c, 12, 67, 76
10, 31904, Note_on_c, 12, 67, 0
10, 31920, Note_on_c, 12, 71, 76
10, 32144, Note_on_c, 12, 71, 0
10, 32160, Note_on_c, 12, 74, 76
10, 32384, Note_on_c, 12, 74, 0
10, 32400, Note_on_c, 12, 72, 76
10, 32624, Note_on_c, 12, 72, 0
10, 32640, Note_on_c, 12, 72, 76
10, 32864, Note_on_c, 12, 72, 0
10, 32880, Note_on_c, 12, 74, 76
10, 33104, Note_on_c, 12, 74, 0
10, 33120, Note_on_c, 12, 72, 76
10, 33344, Note_on_c, 12, 72, 0
10, 33360, Note_on_c, 12, 69, 76
10, 33584, Note_on_c, 12, 69, 0
10, 33600, Note_on_c, 12, 67, 76
10, 33824, Note_on_c, 12, 67, 0
10, 33840, Note_on_c, 12, 67, 76
10, 34559, Note_on_c, 12, 67, 0
10, 34800, Note_on_c, 12, 60, 52
10, 35024, Note_on_c, 12, 60, 0
10, 35040, Note_on_c, 12, 65, 52
10, 35279, Note_on_c, 12, 65, 0
10, 35280, Note_on_c, 12, 64, 52
10, 35504, Note_on_c, 12, 64, 0
10, 35520, Note_on_c, 12, 67, 52
10, 35759, Note_on_c, 12, 67, 0
10, 35760, Note_on_c, 12, 65, 52
10, 35984, Note_on_c, 12, 65, 0
10, 36000, Note_on_c, 12, 69, 52
10, 36224, Note_on_c, 12, 69, 0
10, 36240, Note_on_c, 12, 67, 52
10, 36704, Note_on_c, 12, 67, 0
10, 36720, Note_on_c, 12, 60, 52
10, 36944, Note_on_c, 12, 60, 0
10, 36960, Note_on_c, 12, 60, 52
10, 37199, Note_on_c, 12, 60, 0
10, 37200, Note_on_c, 12, 59, 52
10, 37424, Note_on_c, 12, 59, 0
10, 37440, Note_on_c, 12, 55, 52
10, 37664, Note_on_c, 12, 55, 0
10, 37680, Note_on_c, 12, 60, 52
10, 37904, Note_on_c, 12, 60, 0
10, 37920, Note_on_c, 12, 64, 52
10, 38159, Note_on_c, 12, 64, 0
10, 38160, Note_on_c, 12, 62, 52
10, 38384, Note_on_c, 12, 62, 0
10, 38400, Note_on_c, 12, 66, 52
10, 38639, Note_on_c, 12, 66, 0
10, 38640, Note_on_c, 12, 67, 52
10, 38864, Note_on_c, 12, 67, 0
10, 38880, Note_on_c, 12, 72, 52
10, 39104, Note_on_c, 12, 72, 0
10, 39120, Note_on_c, 12, 71, 52
10, 39344, Note_on_c, 12, 71, 0
10, 39360, Note_on_c, 12, 62, 52
10, 39584, Note_on_c, 12, 62, 0
10, 39600, Note_on_c, 12, 62, 52
10, 39824, Note_on_c, 12, 62, 0
10, 39840, Note_on_c, 12, 62, 52
10, 40544, Note_on_c, 12, 62, 0
10, 40560, Note_on_c, 12, 60, 52
10, 40784, Note_on_c, 12, 60, 0
10, 40800, Note_on_c, 12, 65, 52
10, 41039, Note_on_c, 12, 65, 0
10, 41040, Note_on_c, 12, 64, 52
10, 41264, Note_on_c, 12, 64, 0
10, 41280, Note_on_c, 12, 67, 52
10, 41519, Note_on_c, 12, 67, 0
10, 41520, Note_on_c, 12, 65, 52
10, 41744, Note_on_c, 12, 65, 0
10, 41760, Note_on_c, 12, 69, 52
10, 41984, Note_on_c, 12, 69, 0
10, 42000, Note_on_c, 12, 67, 52
10, 42464, Note_on_c, 12, 67, 0
10, 42480, Note_on_c, 12, 60, 52
10, 42704, Note_on_c, 12, 60, 0
10, 42720, Note_on_c, 12, 60, 52
10, 42959, Note_on_c, 12, 60, 0
10, 42960, Note_on_c, 12, 59, 52
10, 43184, Note_on_c, 12, 59, 0
10, 43200, Note_on_c, 12, 55, 52
10, 43424, Note_on_c, 12, 55, 0
10, 43440, Note_on_c, 12, 60, 52
10, 43664, Note_on_c, 12, 60, 0
10, 43680, Note_on_c, 12, 64, 52
10, 43919, Note_on_c, 12, 64, 0
10, 43920, Note_on_c, 12, 62, 52
10, 44144, Note_on_c, 12, 62, 0
10, 44160, Note_on_c, 12, 66, 52
10, 44399, Note_on_c, 12, 66, 0
10, 44400, Note_on_c, 12, 67, 52
10, 44624, Note_on_c, 12, 67, 0
10, 44640, Note_on_c, 12, 72, 52
10, 44864, Note_on_c, 12, 72, 0
10, 44880, Note_on_c, 12, 71, 52
10, 45104, Note_on_c, 12, 71, 0
10, 45120, Note_on_c, 12, 62, 52
10, 45344, Note_on_c, 12, 62, 0
10, 45360, Note_on_c, 12, 62, 52
10, 45584, Note_on_c, 12, 62, 0
10, 45600, Note_on_c, 12, 62, 52
10, 46304, Note_on_c, 12, 62, 0
10, 46320, Note_on_c, 12, 62, 52
10, 46544, Note_on_c, 12, 62, 0
10, 46560, Note_on_c, 12, 64, 52
10, 46799, Note_on_c, 12, 64, 0
10, 46800, Note_on_c, 12, 62, 52
10, 47024, Note_on_c, 12, 62, 0
10, 47040, Note_on_c, 12, 71, 52
10, 47279, Note_on_c, 12, 71, 0
10, 47280, Note_on_c, 12, 68, 52
10, 47504, Note_on_c, 12, 68, 0
10, 47520, Note_on_c, 12, 69, 52
10, 47744, Note_on_c, 12, 69, 0
10, 47760, Note_on_c, 12, 65, 52
10, 47999, Note_on_c, 12, 65, 0
10, 48000, Note_on_c, 12, 64, 52
10, 48224, Note_on_c, 12, 64, 0
10, 48240, Note_on_c, 12, 69, 52
10, 48464, Note_on_c, 12, 69, 0
10, 48480, Note_on_c, 12, 69, 52
10, 48719, Note_on_c, 12, 69, 0
10, 48720, Note_on_c, 12, 68, 52
10, 48944, Note_on_c, 12, 68, 0
10, 48960, Note_on_c, 12, 64, 52
10, 49184, Note_on_c, 12, 64, 0
10, 49200, Note_on_c, 12, 57, 52
10, 49439, Note_on_c, 12, 57, 0
10, 49440, Note_on_c, 12, 60, 52
10, 49664, Note_on_c, 12, 60, 0
10, 49680, Note_on_c, 12, 64, 52
10, 49904, Note_on_c, 12, 64, 0
10, 49920, Note_on_c, 12, 65, 52
10, 50159, Note_on_c, 12, 65, 0
10, 50160, Note_on_c, 12, 58, 52
10, 50384, Note_on_c, 12, 58, 0
10, 50400, Note_on_c, 12, 60, 52
10, 50624, Note_on_c, 12, 60, 0
10, 50640, Note_on_c, 12, 60, 52
10, 51104, Note_on_c, 12, 60, 0
10, 51120, Note_on_c, 12, 60, 52
10, 51344, Note_on_c, 12, 60, 0
10, 51360, Note_on_c, 12, 59, 52
10, 51599, Note_on_c, 12, 59, 0
10, 51600, Note_on_c, 12, 60, 52
10, 51824, Note_on_c, 12, 60, 0
10, 51840, Note_on_c, 12, 62, 52
10, 52064, Note_on_c, 12, 62, 0
10, 52080, Note_on_c, 12, 60, 52
10, 52544, Note_on_c, 12, 60, 0
10, 52560, Note_on_c, 12, 60, 52
10, 52784, Note_on_c, 12, 60, 0
10, 52800, Note_on_c, 12, 64, 52
10, 53039, Note_on_c, 12, 64, 0
10, 53040, Note_on_c, 12, 65, 52
10, 53279, Note_on_c, 12, 65, 0
10, 53520, Note_on_c, 12, 62, 52
10, 54224, Note_on_c, 12, 62, 0
10, 54240, Note_on_c, 12, 66, 52
10, 54479, Note_on_c, 12, 66, 0
10, 54480, Note_on_c, 12, 67, 52
10, 54719, Note_on_c, 12, 67, 0
10, 54960, Note_on_c, 12, 62, 52
10, 55184, Note_on_c, 12, 62, 0
10, 55200, Note_on_c, 12, 65, 52
10, 55439, Note_on_c, 12, 65, 0
10, 55440, Note_on_c, 12, 67, 52
10, 55664, Note_on_c, 12, 67, 0
10, 55680, Note_on_c, 12, 60, 52
10, 55919, Note_on_c, 12, 60, 0
10, 55920, Note_on_c, 12, 62, 52
10, 56159, Note_on_c, 12, 62, 0
10, 56400, Note_on_c, 12, 60, 52
10, 56624, Note_on_c, 12, 60, 0
10, 56640, Note_on_c, 12, 67, 52
10, 56864, Note_on_c, 12, 67, 0
10, 56880, Note_on_c, 12, 67, 52
10, 57104, Note_on_c, 12, 67, 0
10, 57120, Note_on_c, 12, 67, 52
10, 57824, Note_on_c, 12, 67, 0
10, 57840, Note_on_c, 12, 62, 52
10, 58064, Note_on_c, 12, 62, 0
10, 58080, Note_on_c, 12, 64, 52
10, 58319, Note_on_c, 12, 64, 0
10, 58320, Note_on_c, 12, 62, 52
10, 58544, Note_on_c, 12, 62, 0
10, 58560, Note_on_c, 12, 71, 52
10, 58799, Note_on_c, 12, 71, 0
10, 58800, Note_on_c, 12, 68, 52
10, 59024, Note_on_c, 12, 68, 0
10, 59040, Note_on_c, 12, 69, 52
10, 59264, Note_on_c, 12, 69, 0
10, 59280, Note_on_c, 12, 65, 52
10, 59519, Note_on_c, 12, 65, 0
10, 59520, Note_on_c, 12, 64, 52
10, 59744, Note_on_c, 12, 64, 0
10, 59760, Note_on_c, 12, 69, 52
10, 59984, Note_on_c, 12, 69, 0
10, 60000, Note_on_c, 12, 69, 52
10, 60232, Note_on_c, 12, 69, 0
10, 60240, Note_on_c, 12, 68, 52
10, 60464, Note_on_c, 12, 68, 0
10, 60480, Note_on_c, 12, 64, 52
10, 60704, Note_on_c, 12, 64, 0
10, 60720, Note_on_c, 12, 57, 52
10, 60959, Note_on_c, 12, 57, 0
10, 60960, Note_on_c, 12, 60, 52
10, 61184, Note_on_c, 12, 60, 0
10, 61200, Note_on_c, 12, 64, 52
10, 61424, Note_on_c, 12, 64, 0
10, 61440, Note_on_c, 12, 65, 52
10, 61679, Note_on_c, 12, 65, 0
10, 61680, Note_on_c, 12, 58, 52
10, 61904, Note_on_c, 12, 58, 0
10, 61920, Note_on_c, 12, 60, 52
10, 62144, Note_on_c, 12, 60, 0
10, 62160, Note_on_c, 12, 60, 52
10, 62624, Note_on_c, 12, 60, 0
10, 62640, Note_on_c, 12, 60, 52
10, 62864, Note_on_c, 12, 60, 0
10, 62880, Note_on_c, 12, 59, 52
10, 63119, Note_on_c, 12, 59, 0
10, 63120, Note_on_c, 12, 60, 52
10, 63344, Note_on_c, 12, 60, 0
10, 63360, Note_on_c, 12, 62, 52
10, 63584, Note_on_c, 12, 62, 0
10, 63600, Note_on_c, 12, 60, 52
10, 64064, Note_on_c, 12, 60, 0
10, 64080, Note_on_c, 12, 60, 52
10, 64304, Note_on_c, 12, 60, 0
10, 64320, Note_on_c, 12, 64, 52
10, 64559, Note_on_c, 12, 64, 0
10, 64560, Note_on_c, 12, 65, 52
10, 64799, Note_on_c, 12, 65, 0
10, 65040, Note_on_c, 12, 62, 52
10, 65744, Note_on_c, 12, 62, 0
10, 65760, Note_on_c, 12, 66, 52
10, 65999, Note_on_c, 12, 66, 0
10, 66000, Note_on_c, 12, 67, 52
10, 66239, Note_on_c, 12, 67, 0
10, 66480, Note_on_c, 12, 62, 52
10, 66704, Note_on_c, 12, 62, 0
10, 66720, Note_on_c, 12, 65, 52
10, 66959, Note_on_c, 12, 65, 0
10, 66960, Note_on_c, 12, 67, 52
10, 67184, Note_on_c, 12, 67, 0
10, 67200, Note_on_c, 12, 60, 52
10, 67439, Note_on_c, 12, 60, 0
10, 67440, Note_on_c, 12, 62, 52
10, 67679, Note_on_c, 12, 62, 0
10, 67920, Note_on_c, 12, 60, 52
10, 68144, Note_on_c, 12, 60, 0
10, 68160, Note_on_c, 12, 67, 52
10, 68384, Note_on_c, 12, 67, 0
10, 68400, Note_on_c, 12, 67, 52
10, 68624, Note_on_c, 12, 67, 0
10, 68640, Note_on_c, 12, 67, 52
10, 69359, Note_on_c, 12, 67, 0
10, 69600, Note_on_c, 12, 67, 76
10, 69824, Note_on_c, 12, 67, 0
10, 69840, Note_on_c, 12, 72, 76
10, 70064, Note_on_c, 12, 72, 0
10, 70080, Note_on_c, 12, 72, 76
10, 70304, Note_on_c, 12, 72, 0
10, 70320, Note_on_c, 12, 72, 76
10, 70544, Note_on_c, 12, 72, 0
10, 70560, Note_on_c, 12, 69, 76
10, 70784, Note_on_c, 12, 69, 0
10, 70800, Note_on_c, 12, 69, 76
10, 71024, Note_on_c, 12, 69, 0
10, 71040, Note_on_c, 12, 74, 76
10, 71264, Note_on_c, 12, 74, 0
10, 71280, Note_on_c, 12, 72, 76
10, 71504, Note_on_c, 12, 72, 0
10, 71520, Note_on_c, 12, 74, 76
10, 71744, Note_on_c, 12, 74, 0
10, 71760, Note_on_c, 12, 71, 76
10, 71984, Note_on_c, 12, 71, 0
10, 72000, Note_on_c, 12, 74, 76
10, 72224, Note_on_c, 12, 74, 0
10, 72240, Note_on_c, 12, 71, 76
10, 72464, Note_on_c, 12, 71, 0
10, 72480, Note_on_c, 12, 72, 76
10, 72944, Note_on_c, 12, 72, 0
10, 72960, Note_on_c, 12, 76, 76
10, 73184, Note_on_c, 12, 76, 0
10, 73200, Note_on_c, 12, 74, 76
10, 73424, Note_on_c, 12, 74, 0
10, 73440, Note_on_c, 12, 69, 76
10, 73664, Note_on_c, 12, 69, 0
10, 73680, Note_on_c, 12, 67, 76
10, 73904, Note_on_c, 12, 67, 0
10, 73920, Note_on_c, 12, 67, 76
10, 74024, Note_on_c, 12, 67, 0
10, 74040, Note_on_c, 12, 69, 76
10, 74144, Note_on_c, 12, 69, 0
10, 74160, Note_on_c, 12, 66, 76
10, 74504, Note_on_c, 12, 66, 0
10, 74520, Note_on_c, 12, 62, 76
10, 74624, Note_on_c, 12, 62, 0
10, 74640, Note_on_c, 12, 62, 76
10, 75344, Note_on_c, 12, 62, 0
10, 75360, Note_on_c, 12, 67, 76
10, 75584, Note_on_c, 12, 67, 0
10, 75600, Note_on_c, 12, 72, 76
10, 75824, Note_on_c, 12, 72, 0
10, 75840, Note_on_c, 12, 72, 76
10, 76064, Note_on_c, 12, 72, 0
10, 76080, Note_on_c, 12, 72, 76
10, 76304, Note_on_c, 12, 72, 0
10, 76320, Note_on_c, 12, 69, 76
10, 76544, Note_on_c, 12, 69, 0
10, 76560, Note_on_c, 12, 69, 76
10, 76784, Note_on_c, 12, 69, 0
10, 76800, Note_on_c, 12, 74, 76
10, 77024, Note_on_c, 12, 74, 0
10, 77040, Note_on_c, 12, 72, 76
10, 77264, Note_on_c, 12, 72, 0
10, 77280, Note_on_c, 12, 74, 76
10, 77504, Note_on_c, 12, 74, 0
10, 77520, Note_on_c, 12, 71, 76
10, 77744, Note_on_c, 12, 71, 0
10, 77760, Note_on_c, 12, 74, 76
10, 77984, Note_on_c, 12, 74, 0
10, 78000, Note_on_c, 12, 71, 76
10, 78224, Note_on_c, 12, 71, 0
10, 78240, Note_on_c, 12, 72, 76
10, 78704, Note_on_c, 12, 72, 0
10, 78720, Note_on_c, 12, 76, 76
10, 78944, Note_on_c, 12, 76, 0
10, 78960, Note_on_c, 12, 74, 76
10, 79184, Note_on_c, 12, 74, 0
10, 79200, Note_on_c, 12, 69, 76
10, 79424, Note_on_c, 12, 69, 0
10, 79440, Note_on_c, 12, 67, 76
10, 79664, Note_on_c, 12, 67, 0
10, 79680, Note_on_c, 12, 67, 76
10, 79784, Note_on_c, 12, 67, 0
10, 79800, Note_on_c, 12, 69, 76
10, 79904, Note_on_c, 12, 69, 0
10, 79920, Note_on_c, 12, 66, 76
10, 80264, Note_on_c, 12, 66, 0
10, 80280, Note_on_c, 12, 62, 76
10, 80384, Note_on_c, 12, 62, 0
10, 80400, Note_on_c, 12, 62, 76
10, 81104, Note_on_c, 12, 62, 0
10, 81120, Note_on_c, 12, 62, 76
10, 81344, Note_on_c, 12, 62, 0
10, 81360, Note_on_c, 12, 67, 76
10, 81584, Note_on_c, 12, 67, 0
10, 81600, Note_on_c, 12, 67, 76
10, 81824, Note_on_c, 12, 67, 0
10, 81840, Note_on_c, 12, 71, 76
10, 82064, Note_on_c, 12, 71, 0
10, 82080, Note_on_c, 12, 71, 76
10, 82109, Note_on_c, 12, 71, 0
10, 82110, Note_on_c, 12, 72, 76
10, 82139, Note_on_c, 12, 72, 0
10, 82140, Note_on_c, 12, 71, 76
10, 82169, Note_on_c, 12, 71, 0
10, 82170, Note_on_c, 12, 72, 76
10, 82199, Note_on_c, 12, 72, 0
10, 82200, Note_on_c, 12, 71, 76
10, 82229, Note_on_c, 12, 71, 0
10, 82230, Note_on_c, 12, 72, 76
10, 82259, Note_on_c, 12, 72, 0
10, 82260, Note_on_c, 12, 71, 76
10, 82289, Note_on_c, 12, 71, 0
10, 82290, Note_on_c, 12, 72, 76
10, 82319, Note_on_c, 12, 72, 0
10, 82320, Note_on_c, 12, 71, 76
10, 82349, Note_on_c, 12, 71, 0
10, 82350, Note_on_c, 12, 72, 76
10, 82379, Note_on_c, 12, 72, 0
10, 82380, Note_on_c, 12, 71, 76
10, 82409, Note_on_c, 12, 71, 0
10, 82410, Note_on_c, 12, 72, 76
10, 82439, Note_on_c, 12, 72, 0
10, 82440, Note_on_c, 12, 69, 76
10, 82484, Note_on_c, 12, 69, 0
10, 82500, Note_on_c, 12, 71, 76
10, 82544, Note_on_c, 12, 71, 0
10, 82560, Note_on_c, 12, 72, 76
10, 82784, Note_on_c, 12, 72, 0
10, 82800, Note_on_c, 12, 72, 76
10, 83024, Note_on_c, 12, 72, 0
10, 83040, Note_on_c, 12, 71, 76
10, 83264, Note_on_c, 12, 71, 0
10, 83280, Note_on_c, 12, 71, 76
10, 83744, Note_on_c, 12, 71, 0
10, 83760, Note_on_c, 12, 68, 76
10, 83984, Note_on_c, 12, 68, 0
10, 84000, Note_on_c, 12, 69, 76
10, 84224, Note_on_c, 12, 69, 0
10, 84240, Note_on_c, 12, 72, 76
10, 84464, Note_on_c, 12, 72, 0
10, 84480, Note_on_c, 12, 69, 76
10, 84704, Note_on_c, 12, 69, 0
10, 84720, Note_on_c, 12, 69, 76
10, 84944, Note_on_c, 12, 69, 0
10, 84960, Note_on_c, 12, 68, 76
10, 85064, Note_on_c, 12, 68, 0
10, 85080, Note_on_c, 12, 69, 76
10, 85184, Note_on_c, 12, 69, 0
10, 85200, Note_on_c, 12, 71, 76
10, 85424, Note_on_c, 12, 71, 0
10, 85440, Note_on_c, 12, 72, 76
10, 85664, Note_on_c, 12, 72, 0
10, 85680, Note_on_c, 12, 71, 76
10, 85784, Note_on_c, 12, 71, 0
10, 85800, Note_on_c, 12, 69, 76
10, 85904, Note_on_c, 12, 69, 0
10, 85920, Note_on_c, 12, 68, 76
10, 86024, Note_on_c, 12, 68, 0
10, 86040, Note_on_c, 12, 69, 76
10, 86144, Note_on_c, 12, 69, 0
10, 86160, Note_on_c, 12, 64, 76
10, 86504, Note_on_c, 12, 64, 0
10, 86520, Note_on_c, 12, 65, 76
10, 86624, Note_on_c, 12, 65, 0
10, 86640, Note_on_c, 12, 65, 76
10, 86669, Note_on_c, 12, 65, 0
10, 86670, Note_on_c, 12, 67, 76
10, 86699, Note_on_c, 12, 67, 0
10, 86700, Note_on_c, 12, 65, 76
10, 86729, Note_on_c, 12, 65, 0
10, 86730, Note_on_c, 12, 67, 76
10, 86759, Note_on_c, 12, 67, 0
10, 86760, Note_on_c, 12, 65, 76
10, 86789, Note_on_c, 12, 65, 0
10, 86790, Note_on_c, 12, 67, 76
10, 86819, Note_on_c, 12, 67, 0
10, 86820, Note_on_c, 12, 64, 76
10, 86841, Note_on_c, 12, 64, 0
10, 86850, Note_on_c, 12, 65, 76
10, 86871, Note_on_c, 12, 65, 0
10, 86880, Note_on_c, 12, 67, 76
10, 87344, Note_on_c, 12, 67, 0
10, 87360, Note_on_c, 12, 67, 76
10, 87584, Note_on_c, 12, 67, 0
10, 87600, Note_on_c, 12, 65, 76
10, 87824, Note_on_c, 12, 65, 0
10, 87840, Note_on_c, 12, 67, 76
10, 88304, Note_on_c, 12, 67, 0
10, 88320, Note_on_c, 12, 67, 76
10, 88544, Note_on_c, 12, 67, 0
10, 88560, Note_on_c, 12, 72, 76
10, 88784, Note_on_c, 12, 72, 0
10, 88800, Note_on_c, 12, 69, 76
10, 89024, Note_on_c, 12, 69, 0
10, 89040, Note_on_c, 12, 67, 76
10, 89264, Note_on_c, 12, 67, 0
10, 89280, Note_on_c, 12, 67, 76
10, 89744, Note_on_c, 12, 67, 0
10, 89760, Note_on_c, 12, 67, 76
10, 89984, Note_on_c, 12, 67, 0
10, 90000, Note_on_c, 12, 71, 76
10, 90224, Note_on_c, 12, 71, 0
10, 90240, Note_on_c, 12, 74, 76
10, 90464, Note_on_c, 12, 74, 0
10, 90480, Note_on_c, 12, 72, 76
10, 90704, Note_on_c, 12, 72, 0
10, 90720, Note_on_c, 12, 72, 76
10, 90944, Note_on_c, 12, 72, 0
10, 90960, Note_on_c, 12, 74, 76
10, 91184, Note_on_c, 12, 74, 0
10, 91200, Note_on_c, 12, 72, 76
10, 91424, Note_on_c, 12, 72, 0
10, 91440, Note_on_c, 12, 69, 76
10, 91664, Note_on_c, 12, 69, 0
10, 91680, Note_on_c, 12, 67, 76
10, 91904, Note_on_c, 12, 67, 0
10, 91920, Note_on_c, 12, 67, 76
10, 92624, Note_on_c, 12, 67, 0
10, 92640, Note_on_c, 12, 62, 76
10, 92864, Note_on_c, 12, 62, 0
10, 92880, Note_on_c, 12, 67, 76
10, 93104, Note_on_c, 12, 67, 0
10, 93120, Note_on_c, 12, 67, 76
10, 93344, Note_on_c, 12, 67, 0
10, 93360, Note_on_c, 12, 71, 76
10, 93584, Note_on_c, 12, 71, 0
10, 93600, Note_on_c, 12, 71, 76
10, 93629, Note_on_c, 12, 71, 0
10, 93630, Note_on_c, 12, 72, 76
10, 93659, Note_on_c, 12, 72, 0
10, 93660, Note_on_c, 12, 71, 76
10, 93689, Note_on_c, 12, 71, 0
10, 93690, Note_on_c, 12, 72, 76
10, 93719, Note_on_c, 12, 72, 0
10, 93720, Note_on_c, 12, 71, 76
10, 93749, Note_on_c, 12, 71, 0
10, 93750, Note_on_c, 12, 72, 76
10, 93779, Note_on_c, 12, 72, 0
10, 93780, Note_on_c, 12, 71, 76
10, 93809, Note_on_c, 12, 71, 0
10, 93810, Note_on_c, 12, 72, 76
10, 93839, Note_on_c, 12, 72, 0
10, 93840, Note_on_c, 12, 71, 76
10, 93869, Note_on_c, 12, 71, 0
10, 93870, Note_on_c, 12, 72, 76
10, 93899, Note_on_c, 12, 72, 0
10, 93900, Note_on_c, 12, 71, 76
10, 93929, Note_on_c, 12, 71, 0
10, 93930, Note_on_c, 12, 72, 76
10, 93959, Note_on_c, 12, 72, 0
10, 93960, Note_on_c, 12, 69, 76
10, 94004, Note_on_c, 12, 69, 0
10, 94020, Note_on_c, 12, 71, 76
10, 94064, Note_on_c, 12, 71, 0
10, 94080, Note_on_c, 12, 72, 76
10, 94304, Note_on_c, 12, 72, 0
10, 94320, Note_on_c, 12, 72, 76
10, 94544, Note_on_c, 12, 72, 0
10, 94560, Note_on_c, 12, 71, 76
10, 94784, Note_on_c, 12, 71, 0
10, 94800, Note_on_c, 12, 71, 76
10, 95264, Note_on_c, 12, 71, 0
10, 95280, Note_on_c, 12, 68, 76
10, 95504, Note_on_c, 12, 68, 0
10, 95520, Note_on_c, 12, 69, 76
10, 95744, Note_on_c, 12, 69, 0
10, 95760, Note_on_c, 12, 72, 76
10, 95984, Note_on_c, 12, 72, 0
10, 96000, Note_on_c, 12, 69, 76
10, 96224, Note_on_c, 12, 69, 0
10, 96240, Note_on_c, 12, 69, 76
10, 96464, Note_on_c, 12, 69, 0
10, 96480, Note_on_c, 12, 68, 76
10, 96584, Note_on_c, 12, 68, 0
10, 96600, Note_on_c, 12, 69, 76
10, 96704, Note_on_c, 12, 69, 0
10, 96720, Note_on_c, 12, 71, 76
10, 96944, Note_on_c, 12, 71, 0
10, 96960, Note_on_c, 12, 72, 76
10, 97184, Note_on_c, 12, 72, 0
10, 97200, Note_on_c, 12, 71, 76
10, 97304, Note_on_c, 12, 71, 0
10, 97320, Note_on_c, 12, 69, 76
10, 97424, Note_on_c, 12, 69, 0
10, 97440, Note_on_c, 12, 68, 76
10, 97544, Note_on_c, 12, 68, 0
10, 97560, Note_on_c, 12, 69, 76
10, 97664, Note_on_c, 12, 69, 0
10, 97680, Note_on_c, 12, 64, 76
10, 98024, Note_on_c, 12, 64, 0
10, 98040, Note_on_c, 12, 65, 76
10, 98144, Note_on_c, 12, 65, 0
10, 98160, Note_on_c, 12, 65, 76
10, 98189, Note_on_c, 12, 65, 0
10, 98190, Note_on_c, 12, 67, 76
10, 98219, Note_on_c, 12, 67, 0
10, 98220, Note_on_c, 12, 65, 76
10, 98249, Note_on_c, 12, 65, 0
10, 98250, Note_on_c, 12, 67, 76
10, 98279, Note_on_c, 12, 67, 0
10, 98280, Note_on_c, 12, 65, 76
10, 98309, Note_on_c, 12, 65, 0
10, 98310, Note_on_c, 12, 67, 76
10, 98339, Note_on_c, 12, 67, 0
10, 98340, Note_on_c, 12, 64, 76
10, 98361, Note_on_c, 12, 64, 0
10, 98370, Note_on_c, 12, 65, 76
10, 98391, Note_on_c, 12, 65, 0
10, 98400, Note_on_c, 12, 67, 76
10, 98864, Note_on_c, 12, 67, 0
10, 98880, Note_on_c, 12, 67, 76
10, 99104, Note_on_c, 12, 67, 0
10, 99120, Note_on_c, 12, 65, 76
10, 99344, Note_on_c, 12, 65, 0
10, 99360, Note_on_c, 12, 67, 76
10, 99824, Note_on_c, 12, 67, 0
10, 99840, Note_on_c, 12, 67, 76
10, 100064, Note_on_c, 12, 67, 0
10, 100080, Note_on_c, 12, 72, 76
10, 100304, Note_on_c, 12, 72, 0
10, 100320, Note_on_c, 12, 69, 76
10, 100544, Note_on_c, 12, 69, 0
10, 100560, Note_on_c, 12, 67, 76
10, 100784, Note_on_c, 12, 67, 0
10, 100800, Note_on_c, 12, 67, 76
10, 101264, Note_on_c, 12, 67, 0
10, 101280, Note_on_c, 12, 67, 76
10, 101504, Note_on_c, 12, 67, 0
10, 101520, Note_on_c, 12, 71, 76
10, 101744, Note_on_c, 12, 71, 0
10, 101760, Note_on_c, 12, 74, 76
10, 101984, Note_on_c, 12, 74, 0
10, 102000, Note_on_c, 12, 72, 76
10, 102224, Note_on_c, 12, 72, 0
10, 102240, Note_on_c, 12, 72, 76
10, 102464, Note_on_c, 12, 72, 0
10, 102480, Note_on_c, 12, 74, 76
10, 102704, Note_on_c, 12, 74, 0
10, 102720, Note_on_c, 12, 72, 76
10, 102944, Note_on_c, 12, 72, 0
10, 102960, Note_on_c, 12, 69, 76
10, 103184, Note_on_c, 12, 69, 0
10, 103200, Note_on_c, 12, 67, 76
10, 103424, Note_on_c, 12, 67, 0
10, 103440, Note_on_c, 12, 67, 76
10, 104159, Note_on_c, 12, 67, 0
10, 104159, End_track
11, 0, Start_track
11, 0, Title_t, "Viola"
11, 0, MIDI_port, 0
11, 0, Program_c, 13, 48
11, 0, Control_c, 13, 10, 70
11, 0, Control_c, 13, 11, 127
11, 0, Control_c, 13, 7, 96
11, 0, Note_on_c, 13, 64, 76
11, 224, Note_on_c, 13, 64, 0
11, 240, Note_on_c, 13, 67, 76
11, 464, Note_on_c, 13, 67, 0
11, 480, Note_on_c, 13, 67, 76
11, 704, Note_on_c, 13, 67, 0
11, 720, Note_on_c, 13, 65, 76
11, 944, Note_on_c, 13, 65, 0
11, 960, Note_on_c, 13, 60, 76
11, 1184, Note_on_c, 13, 60, 0
11, 1200, Note_on_c, 13, 65, 76
11, 1424, Note_on_c, 13, 65, 0
11, 1440, Note_on_c, 13, 62, 76
11, 1664, Note_on_c, 13, 62, 0
11, 1680, Note_on_c, 13, 67, 76
11, 1904, Note_on_c, 13, 67, 0
11, 1920, Note_on_c, 13, 69, 76
11, 2144, Note_on_c, 13, 69, 0
11, 2160, Note_on_c, 13, 67, 76
11, 2624, Note_on_c, 13, 67, 0
11, 2640, Note_on_c, 13, 67, 76
11, 2864, Note_on_c, 13, 67, 0
11, 2880, Note_on_c, 13, 67, 76
11, 3104, Note_on_c, 13, 67, 0
11, 3120, Note_on_c, 13, 64, 76
11, 3344, Note_on_c, 13, 64, 0
11, 3360, Note_on_c, 13, 69, 76
11, 3584, Note_on_c, 13, 69, 0
11, 3600, Note_on_c, 13, 69, 76
11, 3824, Note_on_c, 13, 69, 0
11, 3840, Note_on_c, 13, 66, 76
11, 4064, Note_on_c, 13, 66, 0
11, 4080, Note_on_c, 13, 62, 76
11, 4304, Note_on_c, 13, 62, 0
11, 4320, Note_on_c, 13, 60, 76
11, 4424, Note_on_c, 13, 60, 0
11, 4440, Note_on_c, 13, 59, 76
11, 4544, Note_on_c, 13, 59, 0
11, 4560, Note_on_c, 13, 60, 76
11, 4664, Note_on_c, 13, 60, 0
11, 4680, Note_on_c, 13, 57, 76
11, 4784, Note_on_c, 13, 57, 0
11, 4800, Note_on_c, 13, 62, 76
11, 5024, Note_on_c, 13, 62, 0
11, 5040, Note_on_c, 13, 59, 76
11, 5744, Note_on_c, 13, 59, 0
11, 5760, Note_on_c, 13, 64, 76
11, 5984, Note_on_c, 13, 64, 0
11, 6000, Note_on_c, 13, 67, 76
11, 6224, Note_on_c, 13, 67, 0
11, 6240, Note_on_c, 13, 67, 76
11, 6464, Note_on_c, 13, 67, 0
11, 6480, Note_on_c, 13, 65, 76
11, 6704, Note_on_c, 13, 65, 0
11, 6720, Note_on_c, 13, 60, 76
11, 6944, Note_on_c, 13, 60, 0
11, 6960, Note_on_c, 13, 65, 76
11, 7184, Note_on_c, 13, 65, 0
11, 7200, Note_on_c, 13, 62, 76
11, 7424, Note_on_c, 13, 62, 0
11, 7440, Note_on_c, 13, 67, 76
11, 7664, Note_on_c, 13, 67, 0
11, 7680, Note_on_c, 13, 69, 76
11, 7904, Note_on_c, 13, 69, 0
11, 7920, Note_on_c, 13, 67, 76
11, 8384, Note_on_c, 13, 67, 0
11, 8400, Note_on_c, 13, 67, 76
11, 8624, Note_on_c, 13, 67, 0
11, 8640, Note_on_c, 13, 67, 76
11, 8864, Note_on_c, 13, 67, 0
11, 8880, Note_on_c, 13, 64, 76
11, 9104, Note_on_c, 13, 64, 0
11, 9120, Note_on_c, 13, 69, 76
11, 9344, Note_on_c, 13, 69, 0
11, 9360, Note_on_c, 13, 69, 76
11, 9584, Note_on_c, 13, 69, 0
11, 9600, Note_on_c, 13, 66, 76
11, 9824, Note_on_c, 13, 66, 0
11, 9840, Note_on_c, 13, 62, 76
11, 10064, Note_on_c, 13, 62, 0
11, 10080, Note_on_c, 13, 60, 76
11, 10184, Note_on_c, 13, 60, 0
11, 10200, Note_on_c, 13, 59, 76
11, 10304, Note_on_c, 13, 59, 0
11, 10320, Note_on_c, 13, 60, 76
11, 10424, Note_on_c, 13, 60, 0
11, 10440, Note_on_c, 13, 57, 76
11, 10544, Note_on_c, 13, 57, 0
11, 10560, Note_on_c, 13, 62, 76
11, 10784, Note_on_c, 13, 62, 0
11, 10800, Note_on_c, 13, 59, 76
11, 11504, Note_on_c, 13, 59, 0
11, 11520, Note_on_c, 13, 59, 76
11, 11744, Note_on_c, 13, 59, 0
11, 11760, Note_on_c, 13, 62, 76
11, 11984, Note_on_c, 13, 62, 0
11, 12000, Note_on_c, 13, 62, 76
11, 12224, Note_on_c, 13, 62, 0
11, 12240, Note_on_c, 13, 62, 76
11, 12464, Note_on_c, 13, 62, 0
11, 12480, Note_on_c, 13, 68, 76
11, 12704, Note_on_c, 13, 68, 0
11, 12720, Note_on_c, 13, 71, 76
11, 12944, Note_on_c, 13, 71, 0
11, 12960, Note_on_c, 13, 69, 76
11, 13184, Note_on_c, 13, 69, 0
11, 13200, Note_on_c, 13, 69, 76
11, 13424, Note_on_c, 13, 69, 0
11, 13440, Note_on_c, 13, 65, 76
11, 13664, Note_on_c, 13, 65, 0
11, 13680, Note_on_c, 13, 64, 76
11, 14144, Note_on_c, 13, 64, 0
11, 14160, Note_on_c, 13, 64, 76
11, 14384, Note_on_c, 13, 64, 0
11, 14400, Note_on_c, 13, 64, 76
11, 14624, Note_on_c, 13, 64, 0
11, 14640, Note_on_c, 13, 69, 76
11, 14864, Note_on_c, 13, 69, 0
11, 14880, Note_on_c, 13, 64, 76
11, 15104, Note_on_c, 13, 64, 0
11, 15120, Note_on_c, 13, 65, 76
11, 15584, Note_on_c, 13, 65, 0
11, 15600, Note_on_c, 13, 64, 76
11, 15704, Note_on_c, 13, 64, 0
11, 15720, Note_on_c, 13, 62, 76
11, 15824, Note_on_c, 13, 62, 0
11, 15840, Note_on_c, 13, 69, 76
11, 16064, Note_on_c, 13, 69, 0
11, 16080, Note_on_c, 13, 65, 76
11, 16304, Note_on_c, 13, 65, 0
11, 16320, Note_on_c, 13, 59, 76
11, 16544, Note_on_c, 13, 59, 0
11, 16560, Note_on_c, 13, 60, 76
11, 17264, Note_on_c, 13, 60, 0
11, 17280, Note_on_c, 13, 60, 76
11, 17504, Note_on_c, 13, 60, 0
11, 17520, Note_on_c, 13, 64, 76
11, 17744, Note_on_c, 13, 64, 0
11, 17760, Note_on_c, 13, 60, 76
11, 17984, Note_on_c, 13, 60, 0
11, 18000, Note_on_c, 13, 60, 76
11, 18224, Note_on_c, 13, 60, 0
11, 18240, Note_on_c, 13, 62, 76
11, 18704, Note_on_c, 13, 62, 0
11, 18720, Note_on_c, 13, 64, 76
11, 18944, Note_on_c, 13, 64, 0
11, 18960, Note_on_c, 13, 60, 76
11, 19184, Note_on_c, 13, 60, 0
11, 19200, Note_on_c, 13, 62, 76
11, 19424, Note_on_c, 13, 62, 0
11, 19440, Note_on_c, 13, 62, 76
11, 19664, Note_on_c, 13, 62, 0
11, 19680, Note_on_c, 13, 60, 76
11, 19784, Note_on_c, 13, 60, 0
11, 19800, Note_on_c, 13, 59, 76
11, 19904, Note_on_c, 13, 59, 0
11, 19920, Note_on_c, 13, 60, 76
11, 20024, Note_on_c, 13, 60, 0
11, 20040, Note_on_c, 13, 57, 76
11, 20144, Note_on_c, 13, 57, 0
11, 20160, Note_on_c, 13, 59, 76
11, 20384, Note_on_c, 13, 59, 0
11, 20400, Note_on_c, 13, 62, 76
11, 20624, Note_on_c, 13, 62, 0
11, 20640, Note_on_c, 13, 67, 76
11, 20864, Note_on_c, 13, 67, 0
11, 20880, Note_on_c, 13, 67, 76
11, 21104, Note_on_c, 13, 67, 0
11, 21120, Note_on_c, 13, 65, 76
11, 21344, Note_on_c, 13, 65, 0
11, 21360, Note_on_c, 13, 65, 76
11, 21584, Note_on_c, 13, 65, 0
11, 21600, Note_on_c, 13, 64, 76
11, 21824, Note_on_c, 13, 64, 0
11, 21840, Note_on_c, 13, 64, 76
11, 22064, Note_on_c, 13, 64, 0
11, 22080, Note_on_c, 13, 62, 76
11, 22304, Note_on_c, 13, 62, 0
11, 22320, Note_on_c, 13, 64, 76
11, 23024, Note_on_c, 13, 64, 0
11, 23040, Note_on_c, 13, 59, 76
11, 23264, Note_on_c, 13, 59, 0
11, 23280, Note_on_c, 13, 62, 76
11, 23504, Note_on_c, 13, 62, 0
11, 23520, Note_on_c, 13, 62, 76
11, 23744, Note_on_c, 13, 62, 0
11, 23760, Note_on_c, 13, 62, 76
11, 23984, Note_on_c, 13, 62, 0
11, 24000, Note_on_c, 13, 68, 76
11, 24224, Note_on_c, 13, 68, 0
11, 24240, Note_on_c, 13, 71, 76
11, 24464, Note_on_c, 13, 71, 0
11, 24480, Note_on_c, 13, 69, 76
11, 24704, Note_on_c, 13, 69, 0
11, 24720, Note_on_c, 13, 69, 76
11, 24944, Note_on_c, 13, 69, 0
11, 24960, Note_on_c, 13, 65, 76
11, 25184, Note_on_c, 13, 65, 0
11, 25200, Note_on_c, 13, 64, 76
11, 25664, Note_on_c, 13, 64, 0
11, 25680, Note_on_c, 13, 64, 76
11, 25904, Note_on_c, 13, 64, 0
11, 25920, Note_on_c, 13, 64, 76
11, 26144, Note_on_c, 13, 64, 0
11, 26160, Note_on_c, 13, 69, 76
11, 26384, Note_on_c, 13, 69, 0
11, 26400, Note_on_c, 13, 64, 76
11, 26624, Note_on_c, 13, 64, 0
11, 26640, Note_on_c, 13, 65, 76
11, 27104, Note_on_c, 13, 65, 0
11, 27120, Note_on_c, 13, 64, 76
11, 27224, Note_on_c, 13, 64, 0
11, 27240, Note_on_c, 13, 62, 76
11, 27344, Note_on_c, 13, 62, 0
11, 27360, Note_on_c, 13, 69, 76
11, 27584, Note_on_c, 13, 69, 0
11, 27600, Note_on_c, 13, 65, 76
11, 27824, Note_on_c, 13, 65, 0
11, 27840, Note_on_c, 13, 59, 76
11, 28064, Note_on_c, 13, 59, 0
11, 28080, Note_on_c, 13, 60, 76
11, 28784, Note_on_c, 13, 60, 0
11, 28800, Note_on_c, 13, 60, 76
11, 29024, Note_on_c, 13, 60, 0
11, 29040, Note_on_c, 13, 64, 76
11, 29264, Note_on_c, 13, 64, 0
11, 29280, Note_on_c, 13, 60, 76
11, 29504, Note_on_c, 13, 60, 0
11, 29520, Note_on_c, 13, 60, 76
11, 29744, Note_on_c, 13, 60, 0
11, 29760, Note_on_c, 13, 62, 76
11, 30224, Note_on_c, 13, 62, 0
11, 30240, Note_on_c, 13, 64, 76
11, 30464, Note_on_c, 13, 64, 0
11, 30480, Note_on_c, 13, 60, 76
11, 30704, Note_on_c, 13, 60, 0
11, 30720, Note_on_c, 13, 62, 76
11, 30944, Note_on_c, 13, 62, 0
11, 30960, Note_on_c, 13, 62, 76
11, 31184, Note_on_c, 13, 62, 0
11, 31200, Note_on_c, 13, 60, 76
11, 31304, Note_on_c, 13, 60, 0
11, 31320, Note_on_c, 13, 59, 76
11, 31424, Note_on_c, 13, 59, 0
11, 31440, Note_on_c, 13, 60, 76
11, 31544, Note_on_c, 13, 60, 0
11, 31560, Note_on_c, 13, 57, 76
11, 31664, Note_on_c, 13, 57, 0
11, 31680, Note_on_c, 13, 59, 76
11, 31904, Note_on_c, 13, 59, 0
11, 31920, Note_on_c, 13, 62, 76
11, 32144, Note_on_c, 13, 62, 0
11, 32160, Note_on_c, 13, 67, 76
11, 32384, Note_on_c, 13, 67, 0
11, 32400, Note_on_c, 13, 67, 76
11, 32624, Note_on_c, 13, 67, 0
11, 32640, Note_on_c, 13, 65, 76
11, 32864, Note_on_c, 13, 65, 0
11, 32880, Note_on_c, 13, 65, 76
11, 33104, Note_on_c, 13, 65, 0
11, 33120, Note_on_c, 13, 64, 76
11, 33344, Note_on_c, 13, 64, 0
11, 33360, Note_on_c, 13, 64, 76
11, 33584, Note_on_c, 13, 64, 0
11, 33600, Note_on_c, 13, 62, 76
11, 33824, Note_on_c, 13, 62, 0
11, 33840, Note_on_c, 13, 64, 76
11, 34559, Note_on_c, 13, 64, 0
11, 34800, Note_on_c, 13, 55, 52
11, 35024, Note_on_c, 13, 55, 0
11, 35040, Note_on_c, 13, 60, 52
11, 35504, Note_on_c, 13, 60, 0
11, 35520, Note_on_c, 13, 64, 52
11, 35759, Note_on_c, 13, 64, 0
11, 35760, Note_on_c, 13, 60, 52
11, 35984, Note_on_c, 13, 60, 0
11, 36000, Note_on_c, 13, 65, 52
11, 36224, Note_on_c, 13, 65, 0
11, 36240, Note_on_c, 13, 62, 52
11, 36479, Note_on_c, 13, 62, 0
11, 36480, Note_on_c, 13, 64, 52
11, 36704, Note_on_c, 13, 64, 0
11, 36720, Note_on_c, 13, 65, 52
11, 36944, Note_on_c, 13, 65, 0
11, 36960, Note_on_c, 13, 57, 52
11, 37199, Note_on_c, 13, 57, 0
11, 37200, Note_on_c, 13, 55, 52
11, 37424, Note_on_c, 13, 55, 0
11, 37440, Note_on_c, 13, 52, 52
11, 37664, Note_on_c, 13, 52, 0
11, 37680, Note_on_c, 13, 55, 52
11, 37919, Note_on_c, 13, 55, 0
11, 37920, Note_on_c, 13, 57, 52
11, 38144, Note_on_c, 13, 57, 0
11, 38160, Note_on_c, 13, 59, 52
11, 38384, Note_on_c, 13, 59, 0
11, 38400, Note_on_c, 13, 60, 52
11, 38639, Note_on_c, 13, 60, 0
11, 38640, Note_on_c, 13, 62, 52
11, 38864, Note_on_c, 13, 62, 0
11, 38880, Note_on_c, 13, 57, 52
11, 39104, Note_on_c, 13, 57, 0
11, 39120, Note_on_c, 13, 59, 52
11, 39344, Note_on_c, 13, 59, 0
11, 39360, Note_on_c, 13, 59, 52
11, 39584, Note_on_c, 13, 59, 0
11, 39600, Note_on_c, 13, 57, 52
11, 39824, Note_on_c, 13, 57, 0
11, 39840, Note_on_c, 13, 59, 52
11, 40544, Note_on_c, 13, 59, 0
11, 40560, Note_on_c, 13, 55, 52
11, 40784, Note_on_c, 13, 55, 0
11, 40800, Note_on_c, 13, 60, 52
11, 41264, Note_on_c, 13, 60, 0
11, 41280, Note_on_c, 13, 64, 52
11, 41519, Note_on_c, 13, 64, 0
11, 41520, Note_on_c, 13, 60, 52
11, 41744, Note_on_c, 13, 60, 0
11, 41760, Note_on_c, 13, 65, 52
11, 41984, Note_on_c, 13, 65, 0
11, 42000, Note_on_c, 13, 62, 52
11, 42239, Note_on_c, 13, 62, 0
11, 42240, Note_on_c, 13, 64, 52
11, 42464, Note_on_c, 13, 64, 0
11, 42480, Note_on_c, 13, 65, 52
11, 42704, Note_on_c, 13, 65, 0
11, 42720, Note_on_c, 13, 57, 52
11, 42959, Note_on_c, 13, 57, 0
11, 42960, Note_on_c, 13, 55, 52
11, 43184, Note_on_c, 13, 55, 0
11, 43200, Note_on_c, 13, 52, 52
11, 43424, Note_on_c, 13, 52, 0
11, 43440, Note_on_c, 13, 55, 52
11, 43679, Note_on_c, 13, 55, 0
11, 43680, Note_on_c, 13, 57, 52
11, 43904, Note_on_c, 13, 57, 0
11, 43920, Note_on_c, 13, 59, 52
11, 44144, Note_on_c, 13, 59, 0
11, 44160, Note_on_c, 13, 60, 52
11, 44399, Note_on_c, 13, 60, 0
11, 44400, Note_on_c, 13, 62, 52
11, 44624, Note_on_c, 13, 62, 0
11, 44640, Note_on_c, 13, 57, 52
11, 44864, Note_on_c, 13, 57, 0
11, 44880, Note_on_c, 13, 59, 52
11, 45104, Note_on_c, 13, 59, 0
11, 45120, Note_on_c, 13, 59, 52
11, 45344, Note_on_c, 13, 59, 0
11, 45360, Note_on_c, 13, 57, 52
11, 45584, Note_on_c, 13, 57, 0
11, 45600, Note_on_c, 13, 59, 52
11, 46304, Note_on_c, 13, 59, 0
11, 46320, Note_on_c, 13, 59, 52
11, 46544, Note_on_c, 13, 59, 0
11, 46560, Note_on_c, 13, 55, 52
11, 47024, Note_on_c, 13, 55, 0
11, 47040, Note_on_c, 13, 59, 52
11, 47279, Note_on_c, 13, 59, 0
11, 47280, Note_on_c, 13, 62, 52
11, 47504, Note_on_c, 13, 62, 0
11, 47520, Note_on_c, 13, 60, 52
11, 47744, Note_on_c, 13, 60, 0
11, 47760, Note_on_c, 13, 59, 52
11, 47999, Note_on_c, 13, 59, 0
11, 48000, Note_on_c, 13, 60, 52
11, 48224, Note_on_c, 13, 60, 0
11, 48240, Note_on_c, 13, 57, 52
11, 48464, Note_on_c, 13, 57, 0
11, 48480, Note_on_c, 13, 65, 52
11, 48719, Note_on_c, 13, 65, 0
11, 48720, Note_on_c, 13, 64, 52
11, 48944, Note_on_c, 13, 64, 0
11, 48960, Note_on_c, 13, 60, 52
11, 49184, Note_on_c, 13, 60, 0
11, 49200, Note_on_c, 13, 60, 52
11, 49664, Note_on_c, 13, 60, 0
11, 49680, Note_on_c, 13, 58, 52
11, 49904, Note_on_c, 13, 58, 0
11, 49920, Note_on_c, 13, 60, 52
11, 50159, Note_on_c, 13, 60, 0
11, 50160, Note_on_c, 13, 62, 52
11, 50384, Note_on_c, 13, 62, 0
11, 50400, Note_on_c, 13, 67, 52
11, 50624, Note_on_c, 13, 67, 0
11, 50640, Note_on_c, 13, 65, 52
11, 50879, Note_on_c, 13, 65, 0
11, 50880, Note_on_c, 13, 55, 52
11, 51104, Note_on_c, 13, 55, 0
11, 51120, Note_on_c, 13, 57, 52
11, 51344, Note_on_c, 13, 57, 0
11, 51360, Note_on_c, 13, 55, 52
11, 52064, Note_on_c, 13, 55, 0
11, 52080, Note_on_c, 13, 55, 52
11, 52319, Note_on_c, 13, 55, 0
11, 52320, Note_on_c, 13, 52, 52
11, 52544, Note_on_c, 13, 52, 0
11, 52560, Note_on_c, 13, 58, 52
11, 52784, Note_on_c, 13, 58, 0
11, 52800, Note_on_c, 13, 55, 52
11, 53039, Note_on_c, 13, 55, 0
11, 53040, Note_on_c, 13, 57, 52
11, 53279, Note_on_c, 13, 57, 0
11, 53520, Note_on_c, 13, 60, 52
11, 53759, Note_on_c, 13, 60, 0
11, 53760, Note_on_c, 13, 54, 52
11, 53984, Note_on_c, 13, 54, 0
11, 54000, Note_on_c, 13, 55, 52
11, 54224, Note_on_c, 13, 55, 0
11, 54240, Note_on_c, 13, 57, 52
11, 54479, Note_on_c, 13, 57, 0
11, 54480, Note_on_c, 13, 59, 52
11, 54719, Note_on_c, 13, 59, 0
11, 54960, Note_on_c, 13, 59, 52
11, 55184, Note_on_c, 13, 59, 0
11, 55200, Note_on_c, 13, 62, 52
11, 55424, Note_on_c, 13, 62, 0
11, 55440, Note_on_c, 13, 55, 52
11, 55664, Note_on_c, 13, 55, 0
11, 55680, Note_on_c, 13, 57, 52
11, 55919, Note_on_c, 13, 57, 0
11, 55920, Note_on_c, 13, 55, 52
11, 56159, Note_on_c, 13, 55, 0
11, 56400, Note_on_c, 13, 55, 52
11, 56624, Note_on_c, 13, 55, 0
11, 56640, Note_on_c, 13, 64, 52
11, 56864, Note_on_c, 13, 64, 0
11, 56880, Note_on_c, 13, 62, 52
11, 57104, Note_on_c, 13, 62, 0
11, 57120, Note_on_c, 13, 64, 52
11, 57824, Note_on_c, 13, 64, 0
11, 57840, Note_on_c, 13, 59, 52
11, 58064, Note_on_c, 13, 59, 0
11, 58080, Note_on_c, 13, 55, 52
11, 58544, Note_on_c, 13, 55, 0
11, 58560, Note_on_c, 13, 59, 52
11, 58799, Note_on_c, 13, 59, 0
11, 58800, Note_on_c, 13, 62, 52
11, 59024, Note_on_c, 13, 62, 0
11, 59040, Note_on_c, 13, 60, 52
11, 59264, Note_on_c, 13, 60, 0
11, 59280, Note_on_c, 13, 59, 52
11, 59519, Note_on_c, 13, 59, 0
11, 59520, Note_on_c, 13, 60, 52
11, 59744, Note_on_c, 13, 60, 0
11, 59760, Note_on_c, 13, 57, 52
11, 59984, Note_on_c, 13, 57, 0
11, 60000, Note_on_c, 13, 65, 52
11, 60239, Note_on_c, 13, 65, 0
11, 60240, Note_on_c, 13, 64, 52
11, 60464, Note_on_c, 13, 64, 0
11, 60480, Note_on_c, 13, 60, 52
11, 60704, Note_on_c, 13, 60, 0
11, 60720, Note_on_c, 13, 60, 52
11, 61184, Note_on_c, 13, 60, 0
11, 61200, Note_on_c, 13, 58, 52
11, 61424, Note_on_c, 13, 58, 0
11, 61440, Note_on_c, 13, 60, 52
11, 61679, Note_on_c, 13, 60, 0
11, 61680, Note_on_c, 13, 62, 52
11, 61904, Note_on_c, 13, 62, 0
11, 61920, Note_on_c, 13, 67, 52
11, 62144, Note_on_c, 13, 67, 0
11, 62160, Note_on_c, 13, 65, 52
11, 62399, Note_on_c, 13, 65, 0
11, 62400, Note_on_c, 13, 55, 52
11, 62624, Note_on_c, 13, 55, 0
11, 62640, Note_on_c, 13, 57, 52
11, 62864, Note_on_c, 13, 57, 0
11, 62880, Note_on_c, 13, 55, 52
11, 63584, Note_on_c, 13, 55, 0
11, 63600, Note_on_c, 13, 55, 52
11, 63839, Note_on_c, 13, 55, 0
11, 63840, Note_on_c, 13, 52, 52
11, 64064, Note_on_c, 13, 52, 0
11, 64080, Note_on_c, 13, 58, 52
11, 64304, Note_on_c, 13, 58, 0
11, 64320, Note_on_c, 13, 55, 52
11, 64559, Note_on_c, 13, 55, 0
11, 64560, Note_on_c, 13, 57, 52
11, 64799, Note_on_c, 13, 57, 0
11, 65040, Note_on_c, 13, 60, 52
11, 65279, Note_on_c, 13, 60, 0
11, 65280, Note_on_c, 13, 54, 52
11, 65504, Note_on_c, 13, 54, 0
11, 65520, Note_on_c, 13, 55, 52
11, 65744, Note_on_c, 13, 55, 0
11, 65760, Note_on_c, 13, 57, 52
11, 65999, Note_on_c, 13, 57, 0
11, 66000, Note_on_c, 13, 59, 52
11, 66239, Note_on_c, 13, 59, 0
11, 66480, Note_on_c, 13, 59, 52
11, 66704, Note_on_c, 13, 59, 0
11, 66720, Note_on_c, 13, 62, 52
11, 66944, Note_on_c, 13, 62, 0
11, 66960, Note_on_c, 13, 55, 52
11, 67184, Note_on_c, 13, 55, 0
11, 67200, Note_on_c, 13, 57, 52
11, 67439, Note_on_c, 13, 57, 0
11, 67440, Note_on_c, 13, 55, 52
11, 67679, Note_on_c, 13, 55, 0
11, 67920, Note_on_c, 13, 55, 52
11, 68144, Note_on_c, 13, 55, 0
11, 68160, Note_on_c, 13, 64, 52
11, 68384, Note_on_c, 13, 64, 0
11, 68400, Note_on_c, 13, 62, 52
11, 68624, Note_on_c, 13, 62, 0
11, 68640, Note_on_c, 13, 64, 52
11, 69359, Note_on_c, 13, 64, 0
11, 69600, Note_on_c, 13, 64, 76
11, 69824, Note_on_c, 13, 64, 0
11, 69840, Note_on_c, 13, 67, 76
11, 70064, Note_on_c, 13, 67, 0
11, 70080, Note_on_c, 13, 67, 76
11, 70304, Note_on_c, 13, 67, 0
11, 70320, Note_on_c, 13, 65, 76
11, 70544, Note_on_c, 13, 65, 0
11, 70560, Note_on_c, 13, 60, 76
11, 70784, Note_on_c, 13, 60, 0
11, 70800, Note_on_c, 13, 65, 76
11, 71024, Note_on_c, 13, 65, 0
11, 71040, Note_on_c, 13, 62, 76
11, 71264, Note_on_c, 13, 62, 0
11, 71280, Note_on_c, 13, 67, 76
11, 71504, Note_on_c, 13, 67, 0
11, 71520, Note_on_c, 13, 69, 76
11, 71744, Note_on_c, 13, 69, 0
11, 71760, Note_on_c, 13, 67, 76
11, 72224, Note_on_c, 13, 67, 0
11, 72240, Note_on_c, 13, 67, 76
11, 72464, Note_on_c, 13, 67, 0
11, 72480, Note_on_c, 13, 67, 76
11, 72704, Note_on_c, 13, 67, 0
11, 72720, Note_on_c, 13, 64, 76
11, 72944, Note_on_c, 13, 64, 0
11, 72960, Note_on_c, 13, 69, 76
11, 73184, Note_on_c, 13, 69, 0
11, 73200, Note_on_c, 13, 69, 76
11, 73424, Note_on_c, 13, 69, 0
11, 73440, Note_on_c, 13, 66, 76
11, 73664, Note_on_c, 13, 66, 0
11, 73680, Note_on_c, 13, 62, 76
11, 73904, Note_on_c, 13, 62, 0
11, 73920, Note_on_c, 13, 60, 76
11, 74024, Note_on_c, 13, 60, 0
11, 74040, Note_on_c, 13, 59, 76
11, 74144, Note_on_c, 13, 59, 0
11, 74160, Note_on_c, 13, 60, 76
11, 74264, Note_on_c, 13, 60, 0
11, 74280, Note_on_c, 13, 57, 76
11, 74384, Note_on_c, 13, 57, 0
11, 74400, Note_on_c, 13, 62, 76
11, 74624, Note_on_c, 13, 62, 0
11, 74640, Note_on_c, 13, 59, 76
11, 75344, Note_on_c, 13, 59, 0
11, 75360, Note_on_c, 13, 64, 76
11, 75584, Note_on_c, 13, 64, 0
11, 75600, Note_on_c, 13, 67, 76
11, 75824, Note_on_c, 13, 67, 0
11, 75840, Note_on_c, 13, 67, 76
11, 76064, Note_on_c, 13, 67, 0
11, 76080, Note_on_c, 13, 65, 76
11, 76304, Note_on_c, 13, 65, 0
11, 76320, Note_on_c, 13, 60, 76
11, 76544, Note_on_c, 13, 60, 0
11, 76560, Note_on_c, 13, 65, 76
11, 76784, Note_on_c, 13, 65, 0
11, 76800, Note_on_c, 13, 62, 76
11, 77024, Note_on_c, 13, 62, 0
11, 77040, Note_on_c, 13, 67, 76
11, 77264, Note_on_c, 13, 67, 0
11, 77280, Note_on_c, 13, 69, 76
11, 77504, Note_on_c, 13, 69, 0
11, 77520, Note_on_c, 13, 67, 76
11, 77984, Note_on_c, 13, 67, 0
11, 78000, Note_on_c, 13, 67, 76
11, 78224, Note_on_c, 13, 67, 0
11, 78240, Note_on_c, 13, 67, 76
11, 78464, Note_on_c, 13, 67, 0
11, 78480, Note_on_c, 13, 64, 76
11, 78704, Note_on_c, 13, 64, 0
11, 78720, Note_on_c, 13, 69, 76
11, 78944, Note_on_c, 13, 69, 0
11, 78960, Note_on_c, 13, 69, 76
11, 79184, Note_on_c, 13, 69, 0
11, 79200, Note_on_c, 13, 66, 76
11, 79424, Note_on_c, 13, 66, 0
11, 79440, Note_on_c, 13, 62, 76
11, 79664, Note_on_c, 13, 62, 0
11, 79680, Note_on_c, 13, 60, 76
11, 79784, Note_on_c, 13, 60, 0
11, 79800, Note_on_c, 13, 59, 76
11, 79904, Note_on_c, 13, 59, 0
11, 79920, Note_on_c, 13, 60, 76
11, 80024, Note_on_c, 13, 60, 0
11, 80040, Note_on_c, 13, 57, 76
11, 80144, Note_on_c, 13, 57, 0
11, 80160, Note_on_c, 13, 62, 76
11, 80384, Note_on_c, 13, 62, 0
11, 80400, Note_on_c, 13, 59, 76
11, 81104, Note_on_c, 13, 59, 0
11, 81120, Note_on_c, 13, 59, 76
11, 81344, Note_on_c, 13, 59, 0
11, 81360, Note_on_c, 13, 62, 76
11, 81584, Note_on_c, 13, 62, 0
11, 81600, Note_on_c, 13, 62, 76
11, 81824, Note_on_c, 13, 62, 0
11, 81840, Note_on_c, 13, 62, 76
11, 82064, Note_on_c, 13, 62, 0
11, 82080, Note_on_c, 13, 68, 76
11, 82304, Note_on_c, 13, 68, 0
11, 82320, Note_on_c, 13, 71, 76
11, 82544, Note_on_c, 13, 71, 0
11, 82560, Note_on_c, 13, 69, 76
11, 82784, Note_on_c, 13, 69, 0
11, 82800, Note_on_c, 13, 69, 76
11, 83024, Note_on_c, 13, 69, 0
11, 83040, Note_on_c, 13, 65, 76
11, 83264, Note_on_c, 13, 65, 0
11, 83280, Note_on_c, 13, 64, 76
11, 83744, Note_on_c, 13, 64, 0
11, 83760, Note_on_c, 13, 64, 76
11, 83984, Note_on_c, 13, 64, 0
11, 84000, Note_on_c, 13, 64, 76
11, 84224, Note_on_c, 13, 64, 0
11, 84240, Note_on_c, 13, 69, 76
11, 84464, Note_on_c, 13, 69, 0
11, 84480, Note_on_c, 13, 64, 76
11, 84704, Note_on_c, 13, 64, 0
11, 84720, Note_on_c, 13, 65, 76
11, 85184, Note_on_c, 13, 65, 0
11, 85200, Note_on_c, 13, 64, 76
11, 85304, Note_on_c, 13, 64, 0
11, 85320, Note_on_c, 13, 62, 76
11, 85424, Note_on_c, 13, 62, 0
11, 85440, Note_on_c, 13, 69, 76
11, 85664, Note_on_c, 13, 69, 0
11, 85680, Note_on_c, 13, 65, 76
11, 85904, Note_on_c, 13, 65, 0
11, 85920, Note_on_c, 13, 59, 76
11, 86144, Note_on_c, 13, 59, 0
11, 86160, Note_on_c, 13, 60, 76
11, 86864, Note_on_c, 13, 60, 0
11, 86880, Note_on_c, 13, 60, 76
11, 87104, Note_on_c, 13, 60, 0
11, 87120, Note_on_c, 13, 64, 76
11, 87344, Note_on_c, 13, 64, 0
11, 87360, Note_on_c, 13, 60, 76
11, 87584, Note_on_c, 13, 60, 0
11, 87600, Note_on_c, 13, 60, 76
11, 87824, Note_on_c, 13, 60, 0
11, 87840, Note_on_c, 13, 62, 76
11, 88304, Note_on_c, 13, 62, 0
11, 88320, Note_on_c, 13, 64, 76
11, 88544, Note_on_c, 13, 64, 0
11, 88560, Note_on_c, 13, 60, 76
11, 88784, Note_on_c, 13, 60, 0
11, 88800, Note_on_c, 13, 62, 76
11, 89024, Note_on_c, 13, 62, 0
11, 89040, Note_on_c, 13, 62, 76
11, 89264, Note_on_c, 13, 62, 0
11, 89280, Note_on_c, 13, 60, 76
11, 89384, Note_on_c, 13, 60, 0
11, 89400, Note_on_c, 13, 59, 76
11, 89504, Note_on_c, 13, 59, 0
11, 89520, Note_on_c, 13, 60, 76
11, 89624, Note_on_c, 13, 60, 0
11, 89640, Note_on_c, 13, 57, 76
11, 89744, Note_on_c, 13, 57, 0
11, 89760, Note_on_c, 13, 59, 76
11, 89984, Note_on_c, 13, 59, 0
11, 90000, Note_on_c, 13, 62, 76
11, 90224, Note_on_c, 13, 62, 0
11, 90240, Note_on_c, 13, 67, 76
11, 90464, Note_on_c, 13, 67, 0
11, 90480, Note_on_c, 13, 67, 76
11, 90704, Note_on_c, 13, 67, 0
11, 90720, Note_on_c, 13, 65, 76
11, 90944, Note_on_c, 13, 65, 0
11, 90960, Note_on_c, 13, 65, 76
11, 91184, Note_on_c, 13, 65, 0
11, 91200, Note_on_c, 13, 64, 76
11, 91424, Note_on_c, 13, 64, 0
11, 91440, Note_on_c, 13, 64, 76
11, 91664, Note_on_c, 13, 64, 0
11, 91680, Note_on_c, 13, 62, 76
11, 91904, Note_on_c, 13, 62, 0
11, 91920, Note_on_c, 13, 64, 76
11, 92624, Note_on_c, 13, 64, 0
11, 92640, Note_on_c, 13, 59, 76
11, 92864, Note_on_c, 13, 59, 0
11, 92880, Note_on_c, 13, 62, 76
11, 93104, Note_on_c, 13, 62, 0
11, 93120, Note_on_c, 13, 62, 76
11, 93344, Note_on_c, 13, 62, 0
11, 93360, Note_on_c, 13, 62, 76
11, 93584, Note_on_c, 13, 62, 0
11, 93600, Note_on_c, 13, 68, 76
11, 93824, Note_on_c, 13, 68, 0
11, 93840, Note_on_c, 13, 71, 76
11, 94064, Note_on_c, 13, 71, 0
11, 94080, Note_on_c, 13, 69, 76
11, 94304, Note_on_c, 13, 69, 0
11, 94320, Note_on_c, 13, 69, 76
11, 94544, Note_on_c, 13, 69, 0
11, 94560, Note_on_c, 13, 65, 76
11, 94784, Note_on_c, 13, 65, 0
11, 94800, Note_on_c, 13, 64, 76
11, 95264, Note_on_c, 13, 64, 0
11, 95280, Note_on_c, 13, 64, 76
11, 95504, Note_on_c, 13, 64, 0
11, 95520, Note_on_c, 13, 64, 76
11, 95744, Note_on_c, 13, 64, 0
11, 95760, Note_on_c, 13, 69, 76
11, 95984, Note_on_c, 13, 69, 0
11, 96000, Note_on_c, 13, 64, 76
11, 96224, Note_on_c, 13, 64, 0
11, 96240, Note_on_c, 13, 65, 76
11, 96704, Note_on_c, 13, 65, 0
11, 96720, Note_on_c, 13, 64, 76
11, 96824, Note_on_c, 13, 64, 0
11, 96840, Note_on_c, 13, 62, 76
11, 96944, Note_on_c, 13, 62, 0
11, 96960, Note_on_c, 13, 69, 76
11, 97184, Note_on_c, 13, 69, 0
11, 97200, Note_on_c, 13, 65, 76
11, 97424, Note_on_c, 13, 65, 0
11, 97440, Note_on_c, 13, 59, 76
11, 97664, Note_on_c, 13, 59, 0
11, 97680, Note_on_c, 13, 60, 76
11, 98384, Note_on_c, 13, 60, 0
11, 98400, Note_on_c, 13, 60, 76
11, 98624, Note_on_c, 13, 60, 0
11, 98640, Note_on_c, 13, 64, 76
11, 98864, Note_on_c, 13, 64, 0
11, 98880, Note_on_c, 13, 60, 76
11, 99104, Note_on_c, 13, 60, 0
11, 99120, Note_on_c, 13, 60, 76
11, 99344, Note_on_c, 13, 60, 0
11, 99360, Note_on_c, 13, 62, 76
11, 99824, Note_on_c, 13, 62, 0
11, 99840, Note_on_c, 13, 64, 76
11, 100064, Note_on_c, 13, 64, 0
11, 100080, Note_on_c, 13, 60, 76
11, 100304, Note_on_c, 13, 60, 0
11, 100320, Note_on_c, 13, 62, 76
11, 100544, Note_on_c, 13, 62, 0
11, 100560, Note_on_c, 13, 62, 76
11, 100784, Note_on_c, 13, 62, 0
11, 100800, Note_on_c, 13, 60, 76
11, 100904, Note_on_c, 13, 60, 0
11, 100920, Note_on_c, 13, 59, 76
11, 101024, Note_on_c, 13, 59, 0
11, 101040, Note_on_c, 13, 60, 76
11, 101144, Note_on_c, 13, 60, 0
11, 101160, Note_on_c, 13, 57, 76
11, 101264, Note_on_c, 13, 57, 0
11, 101280, Note_on_c, 13, 59, 76
11, 101504, Note_on_c, 13, 59, 0
11, 101520, Note_on_c, 13, 62, 76
11, 101744, Note_on_c, 13, 62, 0
11, 101760, Note_on_c, 13, 67, 76
11, 101984, Note_on_c, 13, 67, 0
11, 102000, Note_on_c, 13, 67, 76
11, 102224, Note_on_c, 13, 67, 0
11, 102240, Note_on_c, 13, 65, 76
11, 102464, Note_on_c, 13, 65, 0
11, 102480, Note_on_c, 13, 65, 76
11, 102704, Note_on_c, 13, 65, 0
11, 102720, Note_on_c, 13, 64, 76
11, 102944, Note_on_c, 13, 64, 0
11, 102960, Note_on_c, 13, 64, 76
11, 103184, Note_on_c, 13, 64, 0
11, 103200, Note_on_c, 13, 62, 76
11, 103424, Note_on_c, 13, 62, 0
11, 103440, Note_on_c, 13, 64, 76
11, 104159, Note_on_c, 13, 64, 0
11, 104159, End_track
12, 0, Start_track
12, 0, Title_t, "Cello"
12, 0, MIDI_port, 0
12, 0, Program_c, 14, 48
12, 0, Control_c, 14, 10, 90
12, 0, Control_c, 14, 11, 127
12, 0, Control_c, 14, 7, 96
12, 0, Note_on_c, 14, 60, 76
12, 224, Note_on_c, 14, 60, 0
12, 240, Note_on_c, 14, 48, 76
12, 464, Note_on_c, 14, 48, 0
12, 480, Note_on_c, 14, 52, 76
12, 704, Note_on_c, 14, 52, 0
12, 720, Note_on_c, 14, 53, 76
12, 944, Note_on_c, 14, 53, 0
12, 960, Note_on_c, 14, 57, 76
12, 1064, Note_on_c, 14, 57, 0
12, 1080, Note_on_c, 14, 53, 76
12, 1184, Note_on_c, 14, 53, 0
12, 1200, Note_on_c, 14, 62, 76
12, 1424, Note_on_c, 14, 62, 0
12, 1440, Note_on_c, 14, 59, 76
12, 1664, Note_on_c, 14, 59, 0
12, 1680, Note_on_c, 14, 60, 76
12, 1904, Note_on_c, 14, 60, 0
12, 1920, Note_on_c, 14, 53, 76
12, 2144, Note_on_c, 14, 53, 0
12, 2160, Note_on_c, 14, 55, 76
12, 2384, Note_on_c, 14, 55, 0
12, 2400, Note_on_c, 14, 59, 76
12, 2624, Note_on_c, 14, 59, 0
12, 2640, Note_on_c, 14, 55, 76
12, 2864, Note_on_c, 14, 55, 0
12, 2880, Note_on_c, 14, 60, 76
12, 3104, Note_on_c, 14, 60, 0
12, 3120, Note_on_c, 14, 59, 76
12, 3344, Note_on_c, 14, 59, 0
12, 3360, Note_on_c, 14, 57, 76
12, 3584, Note_on_c, 14, 57, 0
12, 3600, Note_on_c, 14, 50, 76
12, 3824, Note_on_c, 14, 50, 0
12, 3840, Note_on_c, 14, 54, 76
12, 3944, Note_on_c, 14, 54, 0
12, 3960, Note_on_c, 14, 50, 76
12, 4064, Note_on_c, 14, 50, 0
12, 4080, Note_on_c, 14, 55, 76
12, 4304, Note_on_c, 14, 55, 0
12, 4320, Note_on_c, 14, 48, 76
12, 4544, Note_on_c, 14, 48, 0
12, 4560, Note_on_c, 14, 50, 76
12, 4784, Note_on_c, 14, 50, 0
12, 4800, Note_on_c, 14, 38, 76
12, 5024, Note_on_c, 14, 38, 0
12, 5040, Note_on_c, 14, 43, 76
12, 5144, Note_on_c, 14, 43, 0
12, 5160, Note_on_c, 14, 50, 76
12, 5264, Note_on_c, 14, 50, 0
12, 5280, Note_on_c, 14, 55, 76
12, 5384, Note_on_c, 14, 55, 0
12, 5400, Note_on_c, 14, 57, 76
12, 5504, Note_on_c, 14, 57, 0
12, 5520, Note_on_c, 14, 55, 76
12, 5624, Note_on_c, 14, 55, 0
12, 5640, Note_on_c, 14, 53, 76
12, 5744, Note_on_c, 14, 53, 0
12, 5760, Note_on_c, 14, 52, 76
12, 5984, Note_on_c, 14, 52, 0
12, 6000, Note_on_c, 14, 48, 76
12, 6224, Note_on_c, 14, 48, 0
12, 6240, Note_on_c, 14, 52, 76
12, 6464, Note_on_c, 14, 52, 0
12, 6480, Note_on_c, 14, 53, 76
12, 6704, Note_on_c, 14, 53, 0
12, 6720, Note_on_c, 14, 57, 76
12, 6824, Note_on_c, 14, 57, 0
12, 6840, Note_on_c, 14, 53, 76
12, 6944, Note_on_c, 14, 53, 0
12, 6960, Note_on_c, 14, 62, 76
12, 7184, Note_on_c, 14, 62, 0
12, 7200, Note_on_c, 14, 59, 76
12, 7424, Note_on_c, 14, 59, 0
12, 7440, Note_on_c, 14, 60, 76
12, 7664, Note_on_c, 14, 60, 0
12, 7680, Note_on_c, 14, 53, 76
12, 7904, Note_on_c, 14, 53, 0
12, 7920, Note_on_c, 14, 55, 76
12, 8144, Note_on_c, 14, 55, 0
12, 8160, Note_on_c, 14, 59, 76
12, 8384, Note_on_c, 14, 59, 0
12, 8400, Note_on_c, 14, 55, 76
12, 8624, Note_on_c, 14, 55, 0
12, 8640, Note_on_c, 14, 60, 76
12, 8864, Note_on_c, 14, 60, 0
12, 8880, Note_on_c, 14, 59, 76
12, 9104, Note_on_c, 14, 59, 0
12, 9120, Note_on_c, 14, 57, 76
12, 9344, Note_on_c, 14, 57, 0
12, 9360, Note_on_c, 14, 50, 76
12, 9584, Note_on_c, 14, 50, 0
12, 9600, Note_on_c, 14, 54, 76
12, 9704, Note_on_c, 14, 54, 0
12, 9720, Note_on_c, 14, 50, 76
12, 9824, Note_on_c, 14, 50, 0
12, 9840, Note_on_c, 14, 55, 76
12, 10064, Note_on_c, 14, 55, 0
12, 10080, Note_on_c, 14, 48, 76
12, 10304, Note_on_c, 14, 48, 0
12, 10320, Note_on_c, 14, 50, 76
12, 10544, Note_on_c, 14, 50, 0
12, 10560, Note_on_c, 14, 38, 76
12, 10784, Note_on_c, 14, 38, 0
12, 10800, Note_on_c, 14, 43, 76
12, 11024, Note_on_c, 14, 43, 0
12, 11040, Note_on_c, 14, 47, 76
12, 11264, Note_on_c, 14, 47, 0
12, 11280, Note_on_c, 14, 50, 76
12, 11504, Note_on_c, 14, 50, 0
12, 11520, Note_on_c, 14, 55, 76
12, 11744, Note_on_c, 14, 55, 0
12, 11760, Note_on_c, 14, 50, 76
12, 11984, Note_on_c, 14, 50, 0
12, 12000, Note_on_c, 14, 47, 76
12, 12224, Note_on_c, 14, 47, 0
12, 12240, Note_on_c, 14, 44, 76
12, 12464, Note_on_c, 14, 44, 0
12, 12480, Note_on_c, 14, 47, 76
12, 12584, Note_on_c, 14, 47, 0
12, 12600, Note_on_c, 14, 44, 76
12, 12704, Note_on_c, 14, 44, 0
12, 12720, Note_on_c, 14, 52, 76
12, 12944, Note_on_c, 14, 52, 0
12, 12960, Note_on_c, 14, 48, 76
12, 13184, Note_on_c, 14, 48, 0
12, 13200, Note_on_c, 14, 53, 76
12, 13424, Note_on_c, 14, 53, 0
12, 13440, Note_on_c, 14, 50, 76
12, 13664, Note_on_c, 14, 50, 0
12, 13680, Note_on_c, 14, 52, 76
12, 13904, Note_on_c, 14, 52, 0
12, 13920, Note_on_c, 14, 56, 76
12, 14024, Note_on_c, 14, 56, 0
12, 14040, Note_on_c, 14, 52, 76
12, 14144, Note_on_c, 14, 52, 0
12, 14160, Note_on_c, 14, 64, 76
12, 14384, Note_on_c, 14, 64, 0
12, 14400, Note_on_c, 14, 57, 76
12, 14624, Note_on_c, 14, 57, 0
12, 14640, Note_on_c, 14, 45, 76
12, 14864, Note_on_c, 14, 45, 0
12, 14880, Note_on_c, 14, 48, 76
12, 15104, Note_on_c, 14, 48, 0
12, 15120, Note_on_c, 14, 50, 76
12, 15344, Note_on_c, 14, 50, 0
12, 15360, Note_on_c, 14, 53, 76
12, 15464, Note_on_c, 14, 53, 0
12, 15480, Note_on_c, 14, 50, 76
12, 15584, Note_on_c, 14, 50, 0
12, 15600, Note_on_c, 14, 56, 76
12, 15824, Note_on_c, 14, 56, 0
12, 15840, Note_on_c, 14, 57, 76
12, 16064, Note_on_c, 14, 57, 0
12, 16080, Note_on_c, 14, 50, 76
12, 16304, Note_on_c, 14, 50, 0
12, 16320, Note_on_c, 14, 52, 76
12, 16544, Note_on_c, 14, 52, 0
12, 16560, Note_on_c, 14, 45, 76
12, 16784, Note_on_c, 14, 45, 0
12, 16800, Note_on_c, 14, 48, 76
12, 16904, Note_on_c, 14, 48, 0
12, 16920, Note_on_c, 14, 45, 76
12, 17024, Note_on_c, 14, 45, 0
12, 17040, Note_on_c, 14, 53, 76
12, 17264, Note_on_c, 14, 53, 0
12, 17280, Note_on_c, 14, 52, 76
12, 17504, Note_on_c, 14, 52, 0
12, 17520, Note_on_c, 14, 48, 76
12, 17744, Note_on_c, 14, 48, 0
12, 17760, Note_on_c, 14, 60, 76
12, 17984, Note_on_c, 14, 60, 0
12, 18000, Note_on_c, 14, 53, 76
12, 18104, Note_on_c, 14, 53, 0
12, 18120, Note_on_c, 14, 52, 76
12, 18224, Note_on_c, 14, 52, 0
12, 18240, Note_on_c, 14, 53, 76
12, 18344, Note_on_c, 14, 53, 0
12, 18360, Note_on_c, 14, 50, 76
12, 18464, Note_on_c, 14, 50, 0
12, 18480, Note_on_c, 14, 55, 76
12, 18704, Note_on_c, 14, 55, 0
12, 18720, Note_on_c, 14, 52, 76
12, 18944, Note_on_c, 14, 52, 0
12, 18960, Note_on_c, 14, 57, 76
12, 19184, Note_on_c, 14, 57, 0
12, 19200, Note_on_c, 14, 53, 76
12, 19424, Note_on_c, 14, 53, 0
12, 19440, Note_on_c, 14, 55, 76
12, 19664, Note_on_c, 14, 55, 0
12, 19680, Note_on_c, 14, 64, 76
12, 19784, Note_on_c, 14, 64, 0
12, 19800, Note_on_c, 14, 62, 76
12, 19904, Note_on_c, 14, 62, 0
12, 19920, Note_on_c, 14, 64, 76
12, 20024, Note_on_c, 14, 64, 0
12, 20040, Note_on_c, 14, 60, 76
12, 20144, Note_on_c, 14, 60, 0
12, 20160, Note_on_c, 14, 59, 76
12, 20384, Note_on_c, 14, 59, 0
12, 20400, Note_on_c, 14, 55, 76
12, 20624, Note_on_c, 14, 55, 0
12, 20640, Note_on_c, 14, 59, 76
12, 20864, Note_on_c, 14, 59, 0
12, 20880, Note_on_c, 14, 48, 76
12, 21104, Note_on_c, 14, 48, 0
12, 21120, Note_on_c, 14, 53, 76
12, 21224, Note_on_c, 14, 53, 0
12, 21240, Note_on_c, 14, 50, 76
12, 21344, Note_on_c, 14, 50, 0
12, 21360, Note_on_c, 14, 59, 76
12, 21584, Note_on_c, 14, 59, 0
12, 21600, Note_on_c, 14, 52, 76
12, 21824, Note_on_c, 14, 52, 0
12, 21840, Note_on_c, 14, 53, 76
12, 22064, Note_on_c, 14, 53, 0
12, 22080, Note_on_c, 14, 55, 76
12, 22304, Note_on_c, 14, 55, 0
12, 22320, Note_on_c, 14, 48, 76
12, 22424, Note_on_c, 14, 48, 0
12, 22440, Note_on_c, 14, 47, 76
12, 22544, Note_on_c, 14, 47, 0
12, 22560, Note_on_c, 14, 48, 76
12, 22664, Note_on_c, 14, 48, 0
12, 22680, Note_on_c, 14, 50, 76
12, 22784, Note_on_c, 14, 50, 0
12, 22800, Note_on_c, 14, 52, 76
12, 22904, Note_on_c, 14, 52, 0
12, 22920, Note_on_c, 14, 53, 76
12, 23024, Note_on_c, 14, 53, 0
12, 23040, Note_on_c, 14, 55, 76
12, 23264, Note_on_c, 14, 55, 0
12, 23280, Note_on_c, 14, 50, 76
12, 23504, Note_on_c, 14, 50, 0
12, 23520, Note_on_c, 14, 47, 76
12, 23744, Note_on_c, 14, 47, 0
12, 23760, Note_on_c, 14, 44, 76
12, 23984, Note_on_c, 14, 44, 0
12, 24000, Note_on_c, 14, 47, 76
12, 24104, Note_on_c, 14, 47, 0
12, 24120, Note_on_c, 14, 44, 76
12, 24224, Note_on_c, 14, 44, 0
12, 24240, Note_on_c, 14, 52, 76
12, 24464, Note_on_c, 14, 52, 0
12, 24480, Note_on_c, 14, 48, 76
12, 24704, Note_on_c, 14, 48, 0
12, 24720, Note_on_c, 14, 53, 76
12, 24944, Note_on_c, 14, 53, 0
12, 24960, Note_on_c, 14, 50, 76
12, 25184, Note_on_c, 14, 50, 0
12, 25200, Note_on_c, 14, 52, 76
12, 25424, Note_on_c, 14, 52, 0
12, 25440, Note_on_c, 14, 56, 76
12, 25544, Note_on_c, 14, 56, 0
12, 25560, Note_on_c, 14, 52, 76
12, 25664, Note_on_c, 14, 52, 0
12, 25680, Note_on_c, 14, 64, 76
12, 25904, Note_on_c, 14, 64, 0
12, 25920, Note_on_c, 14, 57, 76
12, 26144, Note_on_c, 14, 57, 0
12, 26160, Note_on_c, 14, 45, 76
12, 26384, Note_on_c, 14, 45, 0
12, 26400, Note_on_c, 14, 48, 76
12, 26624, Note_on_c, 14, 48, 0
12, 26640, Note_on_c, 14, 50, 76
12, 26864, Note_on_c, 14, 50, 0
12, 26880, Note_on_c, 14, 53, 76
12, 26984, Note_on_c, 14, 53, 0
12, 27000, Note_on_c, 14, 50, 76
12, 27104, Note_on_c, 14, 50, 0
12, 27120, Note_on_c, 14, 56, 76
12, 27344, Note_on_c, 14, 56, 0
12, 27360, Note_on_c, 14, 57, 76
12, 27584, Note_on_c, 14, 57, 0
12, 27600, Note_on_c, 14, 50, 76
12, 27824, Note_on_c, 14, 50, 0
12, 27840, Note_on_c, 14, 52, 76
12, 28064, Note_on_c, 14, 52, 0
12, 28080, Note_on_c, 14, 45, 76
12, 28304, Note_on_c, 14, 45, 0
12, 28320, Note_on_c, 14, 48, 76
12, 28424, Note_on_c, 14, 48, 0
12, 28440, Note_on_c, 14, 45, 76
12, 28544, Note_on_c, 14, 45, 0
12, 28560, Note_on_c, 14, 53, 76
12, 28784, Note_on_c, 14, 53, 0
12, 28800, Note_on_c, 14, 52, 76
12, 29024, Note_on_c, 14, 52, 0
12, 29040, Note_on_c, 14, 48, 76
12, 29264, Note_on_c, 14, 48, 0
12, 29280, Note_on_c, 14, 60, 76
12, 29504, Note_on_c, 14, 60, 0
12, 29520, Note_on_c, 14, 53, 76
12, 29624, Note_on_c, 14, 53, 0
12, 29640, Note_on_c, 14, 52, 76
12, 29744, Note_on_c, 14, 52, 0
12, 29760, Note_on_c, 14, 53, 76
12, 29864, Note_on_c, 14, 53, 0
12, 29880, Note_on_c, 14, 50, 76
12, 29984, Note_on_c, 14, 50, 0
12, 30000, Note_on_c, 14, 55, 76
12, 30224, Note_on_c, 14, 55, 0
12, 30240, Note_on_c, 14, 52, 76
12, 30464, Note_on_c, 14, 52, 0
12, 30480, Note_on_c, 14, 57, 76
12, 30704, Note_on_c, 14, 57, 0
12, 30720, Note_on_c, 14, 53, 76
12, 30944, Note_on_c, 14, 53, 0
12, 30960, Note_on_c, 14, 55, 76
12, 31184, Note_on_c, 14, 55, 0
12, 31200, Note_on_c, 14, 64, 76
12, 31304, Note_on_c, 14, 64, 0
12, 31320, Note_on_c, 14, 62, 76
12, 31424, Note_on_c, 14, 62, 0
12, 31440, Note_on_c, 14, 64, 76
12, 31544, Note_on_c, 14, 64, 0
12, 31560, Note_on_c, 14, 60, 76
12, 31664, Note_on_c, 14, 60, 0
12, 31680, Note_on_c, 14, 59, 76
12, 31904, Note_on_c, 14, 59, 0
12, 31920, Note_on_c, 14, 55, 76
12, 32144, Note_on_c, 14, 55, 0
12, 32160, Note_on_c, 14, 59, 76
12, 32384, Note_on_c, 14, 59, 0
12, 32400, Note_on_c, 14, 48, 76
12, 32624, Note_on_c, 14, 48, 0
12, 32640, Note_on_c, 14, 53, 76
12, 32744, Note_on_c, 14, 53, 0
12, 32760, Note_on_c, 14, 50, 76
12, 32864, Note_on_c, 14, 50, 0
12, 32880, Note_on_c, 14, 59, 76
12, 33104, Note_on_c, 14, 59, 0
12, 33120, Note_on_c, 14, 52, 76
12, 33344, Note_on_c, 14, 52, 0
12, 33360, Note_on_c, 14, 53, 76
12, 33584, Note_on_c, 14, 53, 0
12, 33600, Note_on_c, 14, 55, 76
12, 33824, Note_on_c, 14, 55, 0
12, 33840, Note_on_c, 14, 48, 76
12, 34559, Note_on_c, 14, 48, 0
12, 34800, Note_on_c, 14, 48, 52
12, 35279, Note_on_c, 14, 48, 0
12, 35520, Note_on_c, 14, 48, 52
12, 35744, Note_on_c, 14, 48, 0
12, 35760, Note_on_c, 14, 53, 52
12, 35984, Note_on_c, 14, 53, 0
12, 36000, Note_on_c, 14, 50, 52
12, 36224, Note_on_c, 14, 50, 0
12, 36240, Note_on_c, 14, 55, 52
12, 36464, Note_on_c, 14, 55, 0
12, 36480, Note_on_c, 14, 52, 52
12, 36704, Note_on_c, 14, 52, 0
12, 36720, Note_on_c, 14, 57, 52
12, 36944, Note_on_c, 14, 57, 0
12, 36960, Note_on_c, 14, 53, 52
12, 37184, Note_on_c, 14, 53, 0
12, 37200, Note_on_c, 14, 55, 52
12, 37424, Note_on_c, 14, 55, 0
12, 37440, Note_on_c, 14, 48, 52
12, 37664, Note_on_c, 14, 48, 0
12, 37680, Note_on_c, 14, 60, 52
12, 38144, Note_on_c, 14, 60, 0
12, 38160, Note_on_c, 14, 59, 52
12, 38384, Note_on_c, 14, 59, 0
12, 38400, Note_on_c, 14, 57, 52
12, 38639, Note_on_c, 14, 57, 0
12, 38640, Note_on_c, 14, 55, 52
12, 38864, Note_on_c, 14, 55, 0
12, 38880, Note_on_c, 14, 54, 52
12, 39104, Note_on_c, 14, 54, 0
12, 39120, Note_on_c, 14, 55, 52
12, 39344, Note_on_c, 14, 55, 0
12, 39360, Note_on_c, 14, 47, 52
12, 39584, Note_on_c, 14, 47, 0
12, 39600, Note_on_c, 14, 50, 52
12, 39824, Note_on_c, 14, 50, 0
12, 39840, Note_on_c, 14, 43, 52
12, 40544, Note_on_c, 14, 43, 0
12, 40560, Note_on_c, 14, 48, 52
12, 41039, Note_on_c, 14, 48, 0
12, 41280, Note_on_c, 14, 48, 52
12, 41504, Note_on_c, 14, 48, 0
12, 41520, Note_on_c, 14, 53, 52
12, 41744, Note_on_c, 14, 53, 0
12, 41760, Note_on_c, 14, 50, 52
12, 41984, Note_on_c, 14, 50, 0
12, 42000, Note_on_c, 14, 55, 52
12, 42224, Note_on_c, 14, 55, 0
12, 42240, Note_on_c, 14, 52, 52
12, 42464, Note_on_c, 14, 52, 0
12, 42480, Note_on_c, 14, 57, 52
12, 42704, Note_on_c, 14, 57, 0
12, 42720, Note_on_c, 14, 53, 52
12, 42944, Note_on_c, 14, 53, 0
12, 42960, Note_on_c, 14, 55, 52
12, 43184, Note_on_c, 14, 55, 0
12, 43200, Note_on_c, 14, 48, 52
12, 43424, Note_on_c, 14, 48, 0
12, 43440, Note_on_c, 14, 60, 52
12, 43904, Note_on_c, 14, 60, 0
12, 43920, Note_on_c, 14, 59, 52
12, 44144, Note_on_c, 14, 59, 0
12, 44160, Note_on_c, 14, 57, 52
12, 44399, Note_on_c, 14, 57, 0
12, 44400, Note_on_c, 14, 55, 52
12, 44624, Note_on_c, 14, 55, 0
12, 44640, Note_on_c, 14, 54, 52
12, 44864, Note_on_c, 14, 54, 0
12, 44880, Note_on_c, 14, 55, 52
12, 45104, Note_on_c, 14, 55, 0
12, 45120, Note_on_c, 14, 47, 52
12, 45344, Note_on_c, 14, 47, 0
12, 45360, Note_on_c, 14, 50, 52
12, 45584, Note_on_c, 14, 50, 0
12, 45600, Note_on_c, 14, 43, 52
12, 46304, Note_on_c, 14, 43, 0
12, 46320, Note_on_c, 14, 43, 52
12, 46799, Note_on_c, 14, 43, 0
12, 47040, Note_on_c, 14, 44, 52
12, 47264, Note_on_c, 14, 44, 0
12, 47280, Note_on_c, 14, 47, 52
12, 47519, Note_on_c, 14, 47, 0
12, 47520, Note_on_c, 14, 45, 52
12, 47744, Note_on_c, 14, 45, 0
12, 47760, Note_on_c, 14, 50, 52
12, 47999, Note_on_c, 14, 50, 0
12, 48000, Note_on_c, 14, 48, 52
12, 48224, Note_on_c, 14, 48, 0
12, 48240, Note_on_c, 14, 53, 52
12, 48464, Note_on_c, 14, 53, 0
12, 48480, Note_on_c, 14, 50, 52
12, 48719, Note_on_c, 14, 50, 0
12, 48720, Note_on_c, 14, 52, 52
12, 48944, Note_on_c, 14, 52, 0
12, 48960, Note_on_c, 14, 45, 52
12, 49184, Note_on_c, 14, 45, 0
12, 49200, Note_on_c, 14, 57, 52
12, 49664, Note_on_c, 14, 57, 0
12, 49680, Note_on_c, 14, 55, 52
12, 49904, Note_on_c, 14, 55, 0
12, 49920, Note_on_c, 14, 53, 52
12, 50384, Note_on_c, 14, 53, 0
12, 50400, Note_on_c, 14, 52, 52
12, 50624, Note_on_c, 14, 52, 0
12, 50640, Note_on_c, 14, 53, 52
12, 50879, Note_on_c, 14, 53, 0
12, 50880, Note_on_c, 14, 52, 52
12, 51104, Note_on_c, 14, 52, 0
12, 51120, Note_on_c, 14, 50, 52
12, 51344, Note_on_c, 14, 50, 0
12, 51360, Note_on_c, 14, 43, 52
12, 51599, Note_on_c, 14, 43, 0
12, 51600, Note_on_c, 14, 48, 52
12, 51824, Note_on_c, 14, 48, 0
12, 51840, Note_on_c, 14, 47, 52
12, 52064, Note_on_c, 14, 47, 0
12, 52080, Note_on_c, 14, 48, 52
12, 52319, Note_on_c, 14, 48, 0
12, 52320, Note_on_c, 14, 50, 52
12, 52544, Note_on_c, 14, 50, 0
12, 52560, Note_on_c, 14, 52, 52
12, 52784, Note_on_c, 14, 52, 0
12, 52800, Note_on_c, 14, 41, 52
12, 53279, Note_on_c, 14, 41, 0
12, 53520, Note_on_c, 14, 57, 52
12, 53744, Note_on_c, 14, 57, 0
12, 53760, Note_on_c, 14, 54, 52
12, 53984, Note_on_c, 14, 54, 0
12, 54000, Note_on_c, 14, 50, 52
12, 54224, Note_on_c, 14, 50, 0
12, 54240, Note_on_c, 14, 43, 52
12, 54719, Note_on_c, 14, 43, 0
12, 54960, Note_on_c, 14, 55, 52
12, 55184, Note_on_c, 14, 55, 0
12, 55200, Note_on_c, 14, 50, 52
12, 55439, Note_on_c, 14, 50, 0
12, 55440, Note_on_c, 14, 52, 52
12, 55664, Note_on_c, 14, 52, 0
12, 55680, Note_on_c, 14, 45, 52
12, 55919, Note_on_c, 14, 45, 0
12, 55920, Note_on_c, 14, 47, 52
12, 56159, Note_on_c, 14, 47, 0
12, 56400, Note_on_c, 14, 48, 52
12, 56624, Note_on_c, 14, 48, 0
12, 56640, Note_on_c, 14, 40, 52
12, 56864, Note_on_c, 14, 40, 0
12, 56880, Note_on_c, 14, 43, 52
12, 57104, Note_on_c, 14, 43, 0
12, 57120, Note_on_c, 14, 36, 52
12, 57824, Note_on_c, 14, 36, 0
12, 57840, Note_on_c, 14, 43, 52
12, 58319, Note_on_c, 14, 43, 0
12, 58560, Note_on_c, 14, 44, 52
12, 58784, Note_on_c, 14, 44, 0
12, 58800, Note_on_c, 14, 47, 52
12, 59039, Note_on_c, 14, 47, 0
12, 59040, Note_on_c, 14, 45, 52
12, 59264, Note_on_c, 14, 45, 0
12, 59280, Note_on_c, 14, 50, 52
12, 59519, Note_on_c, 14, 50, 0
12, 59520, Note_on_c, 14, 48, 52
12, 59744, Note_on_c, 14, 48, 0
12, 59760, Note_on_c, 14, 53, 52
12, 59984, Note_on_c, 14, 53, 0
12, 60000, Note_on_c, 14, 50, 52
12, 60239, Note_on_c, 14, 50, 0
12, 60240, Note_on_c, 14, 52, 52
12, 60464, Note_on_c, 14, 52, 0
12, 60480, Note_on_c, 14, 45, 52
12, 60704, Note_on_c, 14, 45, 0
12, 60720, Note_on_c, 14, 57, 52
12, 61184, Note_on_c, 14, 57, 0
12, 61200, Note_on_c, 14, 55, 52
12, 61424, Note_on_c, 14, 55, 0
12, 61440, Note_on_c, 14, 53, 52
12, 61904, Note_on_c, 14, 53, 0
12, 61920, Note_on_c, 14, 52, 52
12, 62144, Note_on_c, 14, 52, 0
12, 62160, Note_on_c, 14, 53, 52
12, 62399, Note_on_c, 14, 53, 0
12, 62400, Note_on_c, 14, 52, 52
12, 62624, Note_on_c, 14, 52, 0
12, 62640, Note_on_c, 14, 50, 52
12, 62864, Note_on_c, 14, 50, 0
12, 62880, Note_on_c, 14, 43, 52
12, 63119, Note_on_c, 14, 43, 0
12, 63120, Note_on_c, 14, 48, 52
12, 63344, Note_on_c, 14, 48, 0
12, 63360, Note_on_c, 14, 47, 52
12, 63584, Note_on_c, 14, 47, 0
12, 63600, Note_on_c, 14, 48, 52
12, 63839, Note_on_c, 14, 48, 0
12, 63840, Note_on_c, 14, 50, 52
12, 64064, Note_on_c, 14, 50, 0
12, 64080, Note_on_c, 14, 52, 52
12, 64304, Note_on_c, 14, 52, 0
12, 64320, Note_on_c, 14, 41, 52
12, 64799, Note_on_c, 14, 41, 0
12, 65040, Note_on_c, 14, 57, 52
12, 65264, Note_on_c, 14, 57, 0
12, 65280, Note_on_c, 14, 54, 52
12, 65504, Note_on_c, 14, 54, 0
12, 65520, Note_on_c, 14, 50, 52
12, 65744, Note_on_c, 14, 50, 0
12, 65760, Note_on_c, 14, 43, 52
12, 66239, Note_on_c, 14, 43, 0
12, 66480, Note_on_c, 14, 55, 52
12, 66704, Note_on_c, 14, 55, 0
12, 66720, Note_on_c, 14, 50, 52
12, 66959, Note_on_c, 14, 50, 0
12, 66960, Note_on_c, 14, 52, 52
12, 67184, Note_on_c, 14, 52, 0
12, 67200, Note_on_c, 14, 45, 52
12, 67439, Note_on_c, 14, 45, 0
12, 67440, Note_on_c, 14, 47, 52
12, 67679, Note_on_c, 14, 47, 0
12, 67920, Note_on_c, 14, 48, 52
12, 68144, Note_on_c, 14, 48, 0
12, 68160, Note_on_c, 14, 40, 52
12, 68384, Note_on_c, 14, 40, 0
12, 68400, Note_on_c, 14, 43, 52
12, 68624, Note_on_c, 14, 43, 0
12, 68640, Note_on_c, 14, 36, 52
12, 69359, Note_on_c, 14, 36, 0
12, 69600, Note_on_c, 14, 60, 76
12, 69824, Note_on_c, 14, 60, 0
12, 69840, Note_on_c, 14, 48, 76
12, 70064, Note_on_c, 14, 48, 0
12, 70080, Note_on_c, 14, 52, 76
12, 70304, Note_on_c, 14, 52, 0
12, 70320, Note_on_c, 14, 53, 76
12, 70544, Note_on_c, 14, 53, 0
12, 70560, Note_on_c, 14, 57, 76
12, 70664, Note_on_c, 14, 57, 0
12, 70680, Note_on_c, 14, 53, 76
12, 70784, Note_on_c, 14, 53, 0
12, 70800, Note_on_c, 14, 62, 76
12, 71024, Note_on_c, 14, 62, 0
12, 71040, Note_on_c, 14, 59, 76
12, 71264, Note_on_c, 14, 59, 0
12, 71280, Note_on_c, 14, 60, 76
12, 71504, Note_on_c, 14, 60, 0
12, 71520, Note_on_c, 14, 53, 76
12, 71744, Note_on_c, 14, 53, 0
12, 71760, Note_on_c, 14, 55, 76
12, 71984, Note_on_c, 14, 55, 0
12, 72000, Note_on_c, 14, 59, 76
12, 72224, Note_on_c, 14, 59, 0
12, 72240, Note_on_c, 14, 55, 76
12, 72464, Note_on_c, 14, 55, 0
12, 72480, Note_on_c, 14, 60, 76
12, 72704, Note_on_c, 14, 60, 0
12, 72720, Note_on_c, 14, 59, 76
12, 72944, Note_on_c, 14, 59, 0
12, 72960, Note_on_c, 14, 57, 76
12, 73184, Note_on_c, 14, 57, 0
12, 73200, Note_on_c, 14, 50, 76
12, 73424, Note_on_c, 14, 50, 0
12, 73440, Note_on_c, 14, 54, 76
12, 73544, Note_on_c, 14, 54, 0
12, 73560, Note_on_c, 14, 50, 76
12, 73664, Note_on_c, 14, 50, 0
12, 73680, Note_on_c, 14, 55, 76
12, 73904, Note_on_c, 14, 55, 0
12, 73920, Note_on_c, 14, 48, 76
12, 74144, Note_on_c, 14, 48, 0
12, 74160, Note_on_c, 14, 50, 76
12, 74384, Note_on_c, 14, 50, 0
12, 74400, Note_on_c, 14, 38, 76
12, 74624, Note_on_c, 14, 38, 0
12, 74640, Note_on_c, 14, 43, 76
12, 74744, Note_on_c, 14, 43, 0
12, 74760, Note_on_c, 14, 50, 76
12, 74864, Note_on_c, 14, 50, 0
12, 74880, Note_on_c, 14, 55, 76
12, 74984, Note_on_c, 14, 55, 0
12, 75000, Note_on_c, 14, 57, 76
12, 75104, Note_on_c, 14, 57, 0
12, 75120, Note_on_c, 14, 55, 76
12, 75224, Note_on_c, 14, 55, 0
12, 75240, Note_on_c, 14, 53, 76
12, 75344, Note_on_c, 14, 53, 0
12, 75360, Note_on_c, 14, 52, 76
12, 75584, Note_on_c, 14, 52, 0
12, 75600, Note_on_c, 14, 48, 76
12, 75824, Note_on_c, 14, 48, 0
12, 75840, Note_on_c, 14, 52, 76
12, 76064, Note_on_c, 14, 52, 0
12, 76080, Note_on_c, 14, 53, 76
12, 76304, Note_on_c, 14, 53, 0
12, 76320, Note_on_c, 14, 57, 76
12, 76424, Note_on_c, 14, 57, 0
12, 76440, Note_on_c, 14, 53, 76
12, 76544, Note_on_c, 14, 53, 0
12, 76560, Note_on_c, 14, 62, 76
12, 76784, Note_on_c, 14, 62, 0
12, 76800, Note_on_c, 14, 59, 76
12, 77024, Note_on_c, 14, 59, 0
12, 77040, Note_on_c, 14, 60, 76
12, 77264, Note_on_c, 14, 60, 0
12, 77280, Note_on_c, 14, 53, 76
12, 77504, Note_on_c, 14, 53, 0
12, 77520, Note_on_c, 14, 55, 76
12, 77744, Note_on_c, 14, 55, 0
12, 77760, Note_on_c, 14, 59, 76
12, 77984, Note_on_c, 14, 59, 0
12, 78000, Note_on_c, 14, 55, 76
12, 78224, Note_on_c, 14, 55, 0
12, 78240, Note_on_c, 14, 60, 76
12, 78464, Note_on_c, 14, 60, 0
12, 78480, Note_on_c, 14, 59, 76
12, 78704, Note_on_c, 14, 59, 0
12, 78720, Note_on_c, 14, 57, 76
12, 78944, Note_on_c, 14, 57, 0
12, 78960, Note_on_c, 14, 50, 76
12, 79184, Note_on_c, 14, 50, 0
12, 79200, Note_on_c, 14, 54, 76
12, 79304, Note_on_c, 14, 54, 0
12, 79320, Note_on_c, 14, 50, 76
12, 79424, Note_on_c, 14, 50, 0
12, 79440, Note_on_c, 14, 55, 76
12, 79664, Note_on_c, 14, 55, 0
12, 79680, Note_on_c, 14, 48, 76
12, 79904, Note_on_c, 14, 48, 0
12, 79920, Note_on_c, 14, 50, 76
12, 80144, Note_on_c, 14, 50, 0
12, 80160, Note_on_c, 14, 38, 76
12, 80384, Note_on_c, 14, 38, 0
12, 80400, Note_on_c, 14, 43, 76
12, 80624, Note_on_c, 14, 43, 0
12, 80640, Note_on_c, 14, 47, 76
12, 80864, Note_on_c, 14, 47, 0
12, 80880, Note_on_c, 14, 50, 76
12, 81104, Note_on_c, 14, 50, 0
12, 81120, Note_on_c, 14, 55, 76
12, 81344, Note_on_c, 14, 55, 0
12, 81360, Note_on_c, 14, 50, 76
12, 81584, Note_on_c, 14, 50, 0
12, 81600, Note_on_c, 14, 47, 76
12, 81824, Note_on_c, 14, 47, 0
12, 81840, Note_on_c, 14, 44, 76
12, 82064, Note_on_c, 14, 44, 0
12, 82080, Note_on_c, 14, 47, 76
12, 82184, Note_on_c, 14, 47, 0
12, 82200, Note_on_c, 14, 44, 76
12, 82304, Note_on_c, 14, 44, 0
12, 82320, Note_on_c, 14, 52, 76
12, 82544, Note_on_c, 14, 52, 0
12, 82560, Note_on_c, 14, 48, 76
12, 82784, Note_on_c, 14, 48, 0
12, 82800, Note_on_c, 14, 53, 76
12, 83024, Note_on_c, 14, 53, 0
12, 83040, Note_on_c, 14, 50, 76
12, 83264, Note_on_c, 14, 50, 0
12, 83280, Note_on_c, 14, 52, 76
12, 83504, Note_on_c, 14, 52, 0
12, 83520, Note_on_c, 14, 56, 76
12, 83624, Note_on_c, 14, 56, 0
12, 83640, Note_on_c, 14, 52, 76
12, 83744, Note_on_c, 14, 52, 0
12, 83760, Note_on_c, 14, 64, 76
12, 83984, Note_on_c, 14, 64, 0
12, 84000, Note_on_c, 14, 57, 76
12, 84224, Note_on_c, 14, 57, 0
12, 84240, Note_on_c, 14, 45, 76
12, 84464, Note_on_c, 14, 45, 0
12, 84480, Note_on_c, 14, 48, 76
12, 84704, Note_on_c, 14, 48, 0
12, 84720, Note_on_c, 14, 50, 76
12, 84944, Note_on_c, 14, 50, 0
12, 84960, Note_on_c, 14, 53, 76
12, 85064, Note_on_c, 14, 53, 0
12, 85080, Note_on_c, 14, 50, 76
12, 85184, Note_on_c, 14, 50, 0
12, 85200, Note_on_c, 14, 56, 76
12, 85424, Note_on_c, 14, 56, 0
12, 85440, Note_on_c, 14, 57, 76
12, 85664, Note_on_c, 14, 57, 0
12, 85680, Note_on_c, 14, 50, 76
12, 85904, Note_on_c, 14, 50, 0
12, 85920, Note_on_c, 14, 52, 76
12, 86144, Note_on_c, 14, 52, 0
12, 86160, Note_on_c, 14, 45, 76
12, 86384, Note_on_c, 14, 45, 0
12, 86400, Note_on_c, 14, 48, 76
12, 86504, Note_on_c, 14, 48, 0
12, 86520, Note_on_c, 14, 45, 76
12, 86624, Note_on_c, 14, 45, 0
12, 86640, Note_on_c, 14, 53, 76
12, 86864, Note_on_c, 14, 53, 0
12, 86880, Note_on_c, 14, 52, 76
12, 87104, Note_on_c, 14, 52, 0
12, 87120, Note_on_c, 14, 48, 76
12, 87344, Note_on_c, 14, 48, 0
12, 87360, Note_on_c, 14, 60, 76
12, 87584, Note_on_c, 14, 60, 0
12, 87600, Note_on_c, 14, 53, 76
12, 87704, Note_on_c, 14, 53, 0
12, 87720, Note_on_c, 14, 52, 76
12, 87824, Note_on_c, 14, 52, 0
12, 87840, Note_on_c, 14, 53, 76
12, 87944, Note_on_c, 14, 53, 0
12, 87960, Note_on_c, 14, 50, 76
12, 88064, Note_on_c, 14, 50, 0
12, 88080, Note_on_c, 14, 55, 76
12, 88304, Note_on_c, 14, 55, 0
12, 88320, Note_on_c, 14, 52, 76
12, 88544, Note_on_c, 14, 52, 0
12, 88560, Note_on_c, 14, 57, 76
12, 88784, Note_on_c, 14, 57, 0
12, 88800, Note_on_c, 14, 53, 76
12, 89024, Note_on_c, 14, 53, 0
12, 89040, Note_on_c, 14, 55, 76
12, 89264, Note_on_c, 14, 55, 0
12, 89280, Note_on_c, 14, 64, 76
12, 89384, Note_on_c, 14, 64, 0
12, 89400, Note_on_c, 14, 62, 76
12, 89504, Note_on_c, 14, 62, 0
12, 89520, Note_on_c, 14, 64, 76
12, 89624, Note_on_c, 14, 64, 0
12, 89640, Note_on_c, 14, 60, 76
12, 89744, Note_on_c, 14, 60, 0
12, 89760, Note_on_c, 14, 59, 76
12, 89984, Note_on_c, 14, 59, 0
12, 90000, Note_on_c, 14, 55, 76
12, 90224, Note_on_c, 14, 55, 0
12, 90240, Note_on_c, 14, 59, 76
12, 90464, Note_on_c, 14, 59, 0
12, 90480, Note_on_c, 14, 48, 76
12, 90704, Note_on_c, 14, 48, 0
12, 90720, Note_on_c, 14, 53, 76
12, 90824, Note_on_c, 14, 53, 0
12, 90840, Note_on_c, 14, 50, 76
12, 90944, Note_on_c, 14, 50, 0
12, 90960, Note_on_c, 14, 59, 76
12, 91184, Note_on_c, 14, 59, 0
12, 91200, Note_on_c, 14, 52, 76
12, 91424, Note_on_c, 14, 52, 0
12, 91440, Note_on_c, 14, 53, 76
12, 91664, Note_on_c, 14, 53, 0
12, 91680, Note_on_c, 14, 55, 76
12, 91904, Note_on_c, 14, 55, 0
12, 91920, Note_on_c, 14, 48, 76
12, 92024, Note_on_c, 14, 48, 0
12, 92040, Note_on_c, 14, 47, 76
12, 92144, Note_on_c, 14, 47, 0
12, 92160, Note_on_c, 14, 48, 76
12, 92264, Note_on_c, 14, 48, 0
12, 92280, Note_on_c, 14, 50, 76
12, 92384, Note_on_c, 14, 50, 0
12, 92400, Note_on_c, 14, 52, 76
12, 92504, Note_on_c, 14, 52, 0
12, 92520, Note_on_c, 14, 53, 76
12, 92624, Note_on_c, 14, 53, 0
12, 92640, Note_on_c, 14, 55, 76
12, 92864, Note_on_c, 14, 55, 0
12, 92880, Note_on_c, 14, 50, 76
12, 93104, Note_on_c, 14, 50, 0
12, 93120, Note_on_c, 14, 47, 76
12, 93344, Note_on_c, 14, 47, 0
12, 93360, Note_on_c, 14, 44, 76
12, 93584, Note_on_c, 14, 44, 0
12, 93600, Note_on_c, 14, 47, 76
12, 93704, Note_on_c, 14, 47, 0
12, 93720, Note_on_c, 14, 44, 76
12, 93824, Note_on_c, 14, 44, 0
12, 93840, Note_on_c, 14, 52, 76
12, 94064, Note_on_c, 14, 52, 0
12, 94080, Note_on_c, 14, 48, 76
12, 94304, Note_on_c, 14, 48, 0
12, 94320, Note_on_c, 14, 53, 76
12, 94544, Note_on_c, 14, 53, 0
12, 94560, Note_on_c, 14, 50, 76
12, 94784, Note_on_c, 14, 50, 0
12, 94800, Note_on_c, 14, 52, 76
12, 95024, Note_on_c, 14, 52, 0
12, 95040, Note_on_c, 14, 56, 76
12, 95144, Note_on_c, 14, 56, 0
12, 95160, Note_on_c, 14, 52, 76
12, 95264, Note_on_c, 14, 52, 0
12, 95280, Note_on_c, 14, 64, 76
12, 95504, Note_on_c, 14, 64, 0
12, 95520, Note_on_c, 14, 57, 76
12, 95744, Note_on_c, 14, 57, 0
12, 95760, Note_on_c, 14, 45, 76
12, 95984, Note_on_c, 14, 45, 0
12, 96000, Note_on_c, 14, 48, 76
12, 96224, Note_on_c, 14, 48, 0
12, 96240, Note_on_c, 14, 50, 76
12, 96464, Note_on_c, 14, 50, 0
12, 96480, Note_on_c, 14, 53, 76
12, 96584, Note_on_c, 14, 53, 0
12, 96600, Note_on_c, 14, 50, 76
12, 96704, Note_on_c, 14, 50, 0
12, 96720, Note_on_c, 14, 56, 76
12, 96944, Note_on_c, 14, 56, 0
12, 96960, Note_on_c, 14, 57, 76
12, 97184, Note_on_c, 14, 57, 0
12, 97200, Note_on_c, 14, 50, 76
12, 97424, Note_on_c, 14, 50, 0
12, 97440, Note_on_c, 14, 52, 76
12, 97664, Note_on_c, 14, 52, 0
12, 97680, Note_on_c, 14, 45, 76
12, 97904, Note_on_c, 14, 45, 0
12, 97920, Note_on_c, 14, 48, 76
12, 98024, Note_on_c, 14, 48, 0
12, 98040, Note_on_c, 14, 45, 76
12, 98144, Note_on_c, 14, 45, 0
12, 98160, Note_on_c, 14, 53, 76
12, 98384, Note_on_c, 14, 53, 0
12, 98400, Note_on_c, 14, 52, 76
12, 98624, Note_on_c, 14, 52, 0
12, 98640, Note_on_c, 14, 48, 76
12, 98864, Note_on_c, 14, 48, 0
12, 98880, Note_on_c, 14, 60, 76
12, 99104, Note_on_c, 14, 60, 0
12, 99120, Note_on_c, 14, 53, 76
12, 99224, Note_on_c, 14, 53, 0
12, 99240, Note_on_c, 14, 52, 76
12, 99344, Note_on_c, 14, 52, 0
12, 99360, Note_on_c, 14, 53, 76
12, 99464, Note_on_c, 14, 53, 0
12, 99480, Note_on_c, 14, 50, 76
12, 99584, Note_on_c, 14, 50, 0
12, 99600, Note_on_c, 14, 55, 76
12, 99824, Note_on_c, 14, 55, 0
12, 99840, Note_on_c, 14, 52, 76
12, 100064, Note_on_c, 14, 52, 0
12, 100080, Note_on_c, 14, 57, 76
12, 100304, Note_on_c, 14, 57, 0
12, 100320, Note_on_c, 14, 53, 76
12, 100544, Note_on_c, 14, 53, 0
12, 100560, Note_on_c, 14, 55, 76
12, 100784, Note_on_c, 14, 55, 0
12, 100800, Note_on_c, 14, 64, 76
12, 100904, Note_on_c, 14, 64, 0
12, 100920, Note_on_c, 14, 62, 76
12, 101024, Note_on_c, 14, 62, 0
12, 101040, Note_on_c, 14, 64, 76
12, 101144, Note_on_c, 14, 64, 0
12, 101160, Note_on_c, 14, 60, 76
12, 101264, Note_on_c, 14, 60, 0
12, 101280, Note_on_c, 14, 59, 76
12, 101504, Note_on_c, 14, 59, 0
12, 101520, Note_on_c, 14, 55, 76
12, 101744, Note_on_c, 14, 55, 0
12, 101760, Note_on_c, 14, 59, 76
12, 101984, Note_on_c, 14, 59, 0
12, 102000, Note_on_c, 14, 48, 76
12, 102224, Note_on_c, 14, 48, 0
12, 102240, Note_on_c, 14, 53, 76
12, 102344, Note_on_c, 14, 53, 0
12, 102360, Note_on_c, 14, 50, 76
12, 102464, Note_on_c, 14, 50, 0
12, 102480, Note_on_c, 14, 59, 76
12, 102704, Note_on_c, 14, 59, 0
12, 102720, Note_on_c, 14, 52, 76
12, 102944, Note_on_c, 14, 52, 0
12, 102960, Note_on_c, 14, 53, 76
12, 103184, Note_on_c, 14, 53, 0
12, 103200, Note_on_c, 14, 55, 76
12, 103424, Note_on_c, 14, 55, 0
12, 103440, Note_on_c, 14, 48, 76
12, 104159, Note_on_c, 14, 48, 0
12, 104159, End_track
13, 0, Start_track
13, 0, Title_t, "Harpsichord "
13, 0, MIDI_port, 0
13, 0, Control_c, 15, 10, 64
13, 0, Control_c, 15, 11, 127
13, 0, Control_c, 15, 7, 72
13, 0, Program_c, 15, 6
13, 0, Note_on_c, 15, 60, 72
13, 0, Note_on_c, 15, 72, 72
13, 0, Note_on_c, 15, 76, 72
13, 0, Note_on_c, 15, 79, 72
13, 239, Note_on_c, 15, 60, 0
13, 239, Note_on_c, 15, 72, 0
13, 239, Note_on_c, 15, 76, 0
13, 239, Note_on_c, 15, 79, 0
13, 240, Note_on_c, 15, 48, 72
13, 240, Note_on_c, 15, 60, 72
13, 240, Note_on_c, 15, 64, 72
13, 240, Note_on_c, 15, 67, 72
13, 479, Note_on_c, 15, 48, 0
13, 479, Note_on_c, 15, 60, 0
13, 479, Note_on_c, 15, 64, 0
13, 479, Note_on_c, 15, 67, 0
13, 480, Note_on_c, 15, 67, 72
13, 480, Note_on_c, 15, 52, 72
13, 480, Note_on_c, 15, 64, 72
13, 480, Note_on_c, 15, 72, 72
13, 719, Note_on_c, 15, 67, 0
13, 719, Note_on_c, 15, 52, 0
13, 719, Note_on_c, 15, 64, 0
13, 719, Note_on_c, 15, 72, 0
13, 720, Note_on_c, 15, 72, 72
13, 720, Note_on_c, 15, 65, 72
13, 720, Note_on_c, 15, 53, 72
13, 720, Note_on_c, 15, 69, 72
13, 959, Note_on_c, 15, 72, 0
13, 959, Note_on_c, 15, 65, 0
13, 959, Note_on_c, 15, 53, 0
13, 959, Note_on_c, 15, 69, 0
13, 960, Note_on_c, 15, 77, 72
13, 960, Note_on_c, 15, 57, 72
13, 960, Note_on_c, 15, 69, 72
13, 960, Note_on_c, 15, 72, 72
13, 1079, Note_on_c, 15, 77, 0
13, 1079, Note_on_c, 15, 57, 0
13, 1079, Note_on_c, 15, 69, 0
13, 1079, Note_on_c, 15, 72, 0
13, 1080, Note_on_c, 15, 69, 72
13, 1080, Note_on_c, 15, 53, 72
13, 1080, Note_on_c, 15, 65, 72
13, 1080, Note_on_c, 15, 72, 72
13, 1199, Note_on_c, 15, 69, 0
13, 1199, Note_on_c, 15, 53, 0
13, 1199, Note_on_c, 15, 65, 0
13, 1199, Note_on_c, 15, 72, 0
13, 1200, Note_on_c, 15, 74, 72
13, 1200, Note_on_c, 15, 81, 72
13, 1200, Note_on_c, 15, 77, 72
13, 1200, Note_on_c, 15, 62, 72
13, 1439, Note_on_c, 15, 74, 0
13, 1439, Note_on_c, 15, 81, 0
13, 1439, Note_on_c, 15, 77, 0
13, 1439, Note_on_c, 15, 62, 0
13, 1440, Note_on_c, 15, 71, 72
13, 1440, Note_on_c, 15, 59, 72
13, 1440, Note_on_c, 15, 79, 72
13, 1440, Note_on_c, 15, 74, 72
13, 1679, Note_on_c, 15, 71, 0
13, 1679, Note_on_c, 15, 59, 0
13, 1679, Note_on_c, 15, 79, 0
13, 1679, Note_on_c, 15, 74, 0
13, 1680, Note_on_c, 15, 79, 72
13, 1680, Note_on_c, 15, 76, 72
13, 1680, Note_on_c, 15, 60, 72
13, 1680, Note_on_c, 15, 72, 72
13, 1919, Note_on_c, 15, 79, 0
13, 1919, Note_on_c, 15, 76, 0
13, 1919, Note_on_c, 15, 60, 0
13, 1919, Note_on_c, 15, 72, 0
13, 1920, Note_on_c, 15, 69, 72
13, 1920, Note_on_c, 15, 53, 72
13, 1920, Note_on_c, 15, 65, 72
13, 1920, Note_on_c, 15, 74, 72
13, 2159, Note_on_c, 15, 69, 0
13, 2159, Note_on_c, 15, 53, 0
13, 2159, Note_on_c, 15, 65, 0
13, 2159, Note_on_c, 15, 74, 0
13, 2160, Note_on_c, 15, 71, 72
13, 2160, Note_on_c, 15, 67, 72
13, 2160, Note_on_c, 15, 55, 72
13, 2160, Note_on_c, 15, 74, 72
13, 2399, Note_on_c, 15, 71, 0
13, 2399, Note_on_c, 15, 67, 0
13, 2399, Note_on_c, 15, 55, 0
13, 2399, Note_on_c, 15, 74, 0
13, 2400, Note_on_c, 15, 59, 72
13, 2400, Note_on_c, 15, 71, 72
13, 2400, Note_on_c, 15, 74, 72
13, 2400, Note_on_c, 15, 77, 72
13, 2639, Note_on_c, 15, 59, 0
13, 2639, Note_on_c, 15, 71, 0
13, 2639, Note_on_c, 15, 74, 0
13, 2639, Note_on_c, 15, 77, 0
13, 2640, Note_on_c, 15, 55, 72
13, 2640, Note_on_c, 15, 67, 72
13, 2640, Note_on_c, 15, 71, 72
13, 2640, Note_on_c, 15, 74, 72
13, 2879, Note_on_c, 15, 55, 0
13, 2879, Note_on_c, 15, 67, 0
13, 2879, Note_on_c, 15, 71, 0
13, 2879, Note_on_c, 15, 74, 0
13, 2880, Note_on_c, 15, 72, 72
13, 2880, Note_on_c, 15, 60, 72
13, 2880, Note_on_c, 15, 79, 72
13, 2880, Note_on_c, 15, 76, 72
13, 3119, Note_on_c, 15, 72, 0
13, 3119, Note_on_c, 15, 60, 0
13, 3119, Note_on_c, 15, 79, 0
13, 3119, Note_on_c, 15, 76, 0
13, 3120, Note_on_c, 15, 74, 72
13, 3120, Note_on_c, 15, 77, 72
13, 3120, Note_on_c, 15, 59, 72
13, 3120, Note_on_c, 15, 71, 72
13, 3359, Note_on_c, 15, 74, 0
13, 3359, Note_on_c, 15, 77, 0
13, 3359, Note_on_c, 15, 59, 0
13, 3359, Note_on_c, 15, 71, 0
13, 3360, Note_on_c, 15, 57, 72
13, 3360, Note_on_c, 15, 69, 72
13, 3360, Note_on_c, 15, 76, 72
13, 3360, Note_on_c, 15, 72, 72
13, 3599, Note_on_c, 15, 57, 0
13, 3599, Note_on_c, 15, 69, 0
13, 3599, Note_on_c, 15, 76, 0
13, 3599, Note_on_c, 15, 72, 0
13, 3600, Note_on_c, 15, 50, 72
13, 3600, Note_on_c, 15, 66, 72
13, 3600, Note_on_c, 15, 69, 72
13, 3600, Note_on_c, 15, 62, 72
13, 3839, Note_on_c, 15, 50, 0
13, 3839, Note_on_c, 15, 66, 0
13, 3839, Note_on_c, 15, 69, 0
13, 3839, Note_on_c, 15, 62, 0
13, 3840, Note_on_c, 15, 66, 72
13, 3840, Note_on_c, 15, 69, 72
13, 3840, Note_on_c, 15, 54, 72
13, 3840, Note_on_c, 15, 74, 72
13, 3959, Note_on_c, 15, 66, 0
13, 3959, Note_on_c, 15, 69, 0
13, 3959, Note_on_c, 15, 54, 0
13, 3959, Note_on_c, 15, 74, 0
13, 3960, Note_on_c, 15, 69, 72
13, 3960, Note_on_c, 15, 66, 72
13, 3960, Note_on_c, 15, 50, 72
13, 3960, Note_on_c, 15, 62, 72
13, 4079, Note_on_c, 15, 69, 0
13, 4079, Note_on_c, 15, 66, 0
13, 4079, Note_on_c, 15, 50, 0
13, 4079, Note_on_c, 15, 62, 0
13, 4080, Note_on_c, 15, 74, 72
13, 4080, Note_on_c, 15, 67, 72
13, 4080, Note_on_c, 15, 55, 72
13, 4080, Note_on_c, 15, 71, 72
13, 4319, Note_on_c, 15, 74, 0
13, 4319, Note_on_c, 15, 67, 0
13, 4319, Note_on_c, 15, 55, 0
13, 4319, Note_on_c, 15, 71, 0
13, 4320, Note_on_c, 15, 48, 72
13, 4320, Note_on_c, 15, 64, 72
13, 4320, Note_on_c, 15, 67, 72
13, 4320, Note_on_c, 15, 60, 72
13, 4559, Note_on_c, 15, 48, 0
13, 4559, Note_on_c, 15, 64, 0
13, 4559, Note_on_c, 15, 67, 0
13, 4559, Note_on_c, 15, 60, 0
13, 4560, Note_on_c, 15, 66, 72
13, 4560, Note_on_c, 15, 62, 72
13, 4560, Note_on_c, 15, 50, 72
13, 4560, Note_on_c, 15, 69, 72
13, 4799, Note_on_c, 15, 66, 0
13, 4799, Note_on_c, 15, 62, 0
13, 4799, Note_on_c, 15, 50, 0
13, 4799, Note_on_c, 15, 69, 0
13, 4800, Note_on_c, 15, 50, 72
13, 4800, Note_on_c, 15, 57, 72
13, 4800, Note_on_c, 15, 54, 72
13, 4800, Note_on_c, 15, 38, 72
13, 5039, Note_on_c, 15, 50, 0
13, 5039, Note_on_c, 15, 57, 0
13, 5039, Note_on_c, 15, 54, 0
13, 5039, Note_on_c, 15, 38, 0
13, 5040, Note_on_c, 15, 43, 72
13, 5040, Note_on_c, 15, 59, 72
13, 5040, Note_on_c, 15, 62, 72
13, 5040, Note_on_c, 15, 55, 72
13, 5159, Note_on_c, 15, 43, 0
13, 5159, Note_on_c, 15, 59, 0
13, 5159, Note_on_c, 15, 62, 0
13, 5159, Note_on_c, 15, 55, 0
13, 5160, Note_on_c, 15, 50, 72
13, 5160, Note_on_c, 15, 69, 72
13, 5160, Note_on_c, 15, 65, 72
13, 5160, Note_on_c, 15, 62, 72
13, 5279, Note_on_c, 15, 50, 0
13, 5279, Note_on_c, 15, 69, 0
13, 5279, Note_on_c, 15, 65, 0
13, 5279, Note_on_c, 15, 62, 0
13, 5280, Note_on_c, 15, 71, 72
13, 5280, Note_on_c, 15, 74, 72
13, 5280, Note_on_c, 15, 67, 72
13, 5280, Note_on_c, 15, 55, 72
13, 5399, Note_on_c, 15, 71, 0
13, 5399, Note_on_c, 15, 74, 0
13, 5399, Note_on_c, 15, 67, 0
13, 5399, Note_on_c, 15, 55, 0
13, 5400, Note_on_c, 15, 57, 72
13, 5400, Note_on_c, 15, 69, 72
13, 5400, Note_on_c, 15, 72, 72
13, 5400, Note_on_c, 15, 76, 72
13, 5519, Note_on_c, 15, 57, 0
13, 5519, Note_on_c, 15, 69, 0
13, 5519, Note_on_c, 15, 72, 0
13, 5519, Note_on_c, 15, 76, 0
13, 5520, Note_on_c, 15, 67, 72
13, 5520, Note_on_c, 15, 55, 72
13, 5520, Note_on_c, 15, 71, 72
13, 5520, Note_on_c, 15, 74, 72
13, 5639, Note_on_c, 15, 67, 0
13, 5639, Note_on_c, 15, 55, 0
13, 5639, Note_on_c, 15, 71, 0
13, 5639, Note_on_c, 15, 74, 0
13, 5640, Note_on_c, 15, 65, 72
13, 5640, Note_on_c, 15, 53, 72
13, 5640, Note_on_c, 15, 72, 72
13, 5640, Note_on_c, 15, 69, 72
13, 5759, Note_on_c, 15, 65, 0
13, 5759, Note_on_c, 15, 53, 0
13, 5759, Note_on_c, 15, 72, 0
13, 5759, Note_on_c, 15, 69, 0
13, 5760, Note_on_c, 15, 71, 72
13, 5760, Note_on_c, 15, 52, 72
13, 5760, Note_on_c, 15, 67, 72
13, 5760, Note_on_c, 15, 64, 72
13, 5999, Note_on_c, 15, 71, 0
13, 5999, Note_on_c, 15, 52, 0
13, 5999, Note_on_c, 15, 67, 0
13, 5999, Note_on_c, 15, 64, 0
13, 6000, Note_on_c, 15, 64, 72
13, 6000, Note_on_c, 15, 48, 72
13, 6000, Note_on_c, 15, 60, 72
13, 6000, Note_on_c, 15, 67, 72
13, 6239, Note_on_c, 15, 64, 0
13, 6239, Note_on_c, 15, 48, 0
13, 6239, Note_on_c, 15, 60, 0
13, 6239, Note_on_c, 15, 67, 0
13, 6240, Note_on_c, 15, 64, 72
13, 6240, Note_on_c, 15, 72, 72
13, 6240, Note_on_c, 15, 67, 72
13, 6240, Note_on_c, 15, 52, 72
13, 6479, Note_on_c, 15, 64, 0
13, 6479, Note_on_c, 15, 72, 0
13, 6479, Note_on_c, 15, 67, 0
13, 6479, Note_on_c, 15, 52, 0
13, 6480, Note_on_c, 15, 53, 72
13, 6480, Note_on_c, 15, 65, 72
13, 6480, Note_on_c, 15, 69, 72
13, 6480, Note_on_c, 15, 72, 72
13, 6719, Note_on_c, 15, 53, 0
13, 6719, Note_on_c, 15, 65, 0
13, 6719, Note_on_c, 15, 69, 0
13, 6719, Note_on_c, 15, 72, 0
13, 6720, Note_on_c, 15, 69, 72
13, 6720, Note_on_c, 15, 72, 72
13, 6720, Note_on_c, 15, 57, 72
13, 6720, Note_on_c, 15, 77, 72
13, 6839, Note_on_c, 15, 69, 0
13, 6839, Note_on_c, 15, 72, 0
13, 6839, Note_on_c, 15, 57, 0
13, 6839, Note_on_c, 15, 77, 0
13, 6840, Note_on_c, 15, 53, 72
13, 6840, Note_on_c, 15, 69, 72
13, 6840, Note_on_c, 15, 72, 72
13, 6840, Note_on_c, 15, 65, 72
13, 6959, Note_on_c, 15, 53, 0
13, 6959, Note_on_c, 15, 69, 0
13, 6959, Note_on_c, 15, 72, 0
13, 6959, Note_on_c, 15, 65, 0
13, 6960, Note_on_c, 15, 62, 72
13, 6960, Note_on_c, 15, 74, 72
13, 6960, Note_on_c, 15, 81, 72
13, 6960, Note_on_c, 15, 77, 72
13, 7199, Note_on_c, 15, 62, 0
13, 7199, Note_on_c, 15, 74, 0
13, 7199, Note_on_c, 15, 81, 0
13, 7199, Note_on_c, 15, 77, 0
13, 7200, Note_on_c, 15, 79, 72
13, 7200, Note_on_c, 15, 59, 72
13, 7200, Note_on_c, 15, 74, 72
13, 7200, Note_on_c, 15, 71, 72
13, 7439, Note_on_c, 15, 79, 0
13, 7439, Note_on_c, 15, 59, 0
13, 7439, Note_on_c, 15, 74, 0
13, 7439, Note_on_c, 15, 71, 0
13, 7440, Note_on_c, 15, 76, 72
13, 7440, Note_on_c, 15, 79, 72
13, 7440, Note_on_c, 15, 72, 72
13, 7440, Note_on_c, 15, 60, 72
13, 7679, Note_on_c, 15, 76, 0
13, 7679, Note_on_c, 15, 79, 0
13, 7679, Note_on_c, 15, 72, 0
13, 7679, Note_on_c, 15, 60, 0
13, 7680, Note_on_c, 15, 74, 72
13, 7680, Note_on_c, 15, 65, 72
13, 7680, Note_on_c, 15, 53, 72
13, 7680, Note_on_c, 15, 69, 72
13, 7919, Note_on_c, 15, 74, 0
13, 7919, Note_on_c, 15, 65, 0
13, 7919, Note_on_c, 15, 53, 0
13, 7919, Note_on_c, 15, 69, 0
13, 7920, Note_on_c, 15, 74, 72
13, 7920, Note_on_c, 15, 67, 72
13, 7920, Note_on_c, 15, 55, 72
13, 7920, Note_on_c, 15, 71, 72
13, 8159, Note_on_c, 15, 74, 0
13, 8159, Note_on_c, 15, 67, 0
13, 8159, Note_on_c, 15, 55, 0
13, 8159, Note_on_c, 15, 71, 0
13, 8160, Note_on_c, 15, 74, 72
13, 8160, Note_on_c, 15, 59, 72
13, 8160, Note_on_c, 15, 77, 72
13, 8160, Note_on_c, 15, 71, 72
13, 8399, Note_on_c, 15, 74, 0
13, 8399, Note_on_c, 15, 59, 0
13, 8399, Note_on_c, 15, 77, 0
13, 8399, Note_on_c, 15, 71, 0
13, 8400, Note_on_c, 15, 67, 72
13, 8400, Note_on_c, 15, 71, 72
13, 8400, Note_on_c, 15, 74, 72
13, 8400, Note_on_c, 15, 55, 72
13, 8639, Note_on_c, 15, 67, 0
13, 8639, Note_on_c, 15, 71, 0
13, 8639, Note_on_c, 15, 74, 0
13, 8639, Note_on_c, 15, 55, 0
13, 8640, Note_on_c, 15, 79, 72
13, 8640, Note_on_c, 15, 60, 72
13, 8640, Note_on_c, 15, 76, 72
13, 8640, Note_on_c, 15, 72, 72
13, 8879, Note_on_c, 15, 79, 0
13, 8879, Note_on_c, 15, 60, 0
13, 8879, Note_on_c, 15, 76, 0
13, 8879, Note_on_c, 15, 72, 0
13, 8880, Note_on_c, 15, 71, 72
13, 8880, Note_on_c, 15, 74, 72
13, 8880, Note_on_c, 15, 59, 72
13, 8880, Note_on_c, 15, 77, 72
13, 9119, Note_on_c, 15, 71, 0
13, 9119, Note_on_c, 15, 74, 0
13, 9119, Note_on_c, 15, 59, 0
13, 9119, Note_on_c, 15, 77, 0
13, 9120, Note_on_c, 15, 69, 72
13, 9120, Note_on_c, 15, 72, 72
13, 9120, Note_on_c, 15, 76, 72
13, 9120, Note_on_c, 15, 57, 72
13, 9359, Note_on_c, 15, 69, 0
13, 9359, Note_on_c, 15, 72, 0
13, 9359, Note_on_c, 15, 76, 0
13, 9359, Note_on_c, 15, 57, 0
13, 9360, Note_on_c, 15, 62, 72
13, 9360, Note_on_c, 15, 50, 72
13, 9360, Note_on_c, 15, 66, 72
13, 9360, Note_on_c, 15, 69, 72
13, 9599, Note_on_c, 15, 62, 0
13, 9599, Note_on_c, 15, 50, 0
13, 9599, Note_on_c, 15, 66, 0
13, 9599, Note_on_c, 15, 69, 0
13, 9600, Note_on_c, 15, 54, 72
13, 9600, Note_on_c, 15, 66, 72
13, 9600, Note_on_c, 15, 69, 72
13, 9600, Note_on_c, 15, 74, 72
13, 9719, Note_on_c, 15, 54, 0
13, 9719, Note_on_c, 15, 66, 0
13, 9719, Note_on_c, 15, 69, 0
13, 9719, Note_on_c, 15, 74, 0
13, 9720, Note_on_c, 15, 50, 72
13, 9720, Note_on_c, 15, 66, 72
13, 9720, Note_on_c, 15, 62, 72
13, 9720, Note_on_c, 15, 69, 72
13, 9839, Note_on_c, 15, 50, 0
13, 9839, Note_on_c, 15, 66, 0
13, 9839, Note_on_c, 15, 62, 0
13, 9839, Note_on_c, 15, 69, 0
13, 9840, Note_on_c, 15, 55, 72
13, 9840, Note_on_c, 15, 74, 72
13, 9840, Note_on_c, 15, 71, 72
13, 9840, Note_on_c, 15, 67, 72
13, 10079, Note_on_c, 15, 55, 0
13, 10079, Note_on_c, 15, 74, 0
13, 10079, Note_on_c, 15, 71, 0
13, 10079, Note_on_c, 15, 67, 0
13, 10080, Note_on_c, 15, 64, 72
13, 10080, Note_on_c, 15, 48, 72
13, 10080, Note_on_c, 15, 67, 72
13, 10080, Note_on_c, 15, 60, 72
13, 10319, Note_on_c, 15, 64, 0
13, 10319, Note_on_c, 15, 48, 0
13, 10319, Note_on_c, 15, 67, 0
13, 10319, Note_on_c, 15, 60, 0
13, 10320, Note_on_c, 15, 50, 72
13, 10320, Note_on_c, 15, 66, 72
13, 10320, Note_on_c, 15, 62, 72
13, 10320, Note_on_c, 15, 69, 72
13, 10559, Note_on_c, 15, 50, 0
13, 10559, Note_on_c, 15, 66, 0
13, 10559, Note_on_c, 15, 62, 0
13, 10559, Note_on_c, 15, 69, 0
13, 10560, Note_on_c, 15, 50, 72
13, 10560, Note_on_c, 15, 54, 72
13, 10560, Note_on_c, 15, 57, 72
13, 10560, Note_on_c, 15, 38, 72
13, 10799, Note_on_c, 15, 50, 0
13, 10799, Note_on_c, 15, 54, 0
13, 10799, Note_on_c, 15, 57, 0
13, 10799, Note_on_c, 15, 38, 0
13, 10800, Note_on_c, 15, 62, 72
13, 10800, Note_on_c, 15, 59, 72
13, 10800, Note_on_c, 15, 43, 72
13, 10800, Note_on_c, 15, 55, 72
13, 11039, Note_on_c, 15, 62, 0
13, 11039, Note_on_c, 15, 59, 0
13, 11039, Note_on_c, 15, 43, 0
13, 11039, Note_on_c, 15, 55, 0
13, 11040, Note_on_c, 15, 59, 72
13, 11040, Note_on_c, 15, 62, 72
13, 11040, Note_on_c, 15, 65, 72
13, 11040, Note_on_c, 15, 47, 72
13, 11279, Note_on_c, 15, 59, 0
13, 11279, Note_on_c, 15, 62, 0
13, 11279, Note_on_c, 15, 65, 0
13, 11279, Note_on_c, 15, 47, 0
13, 11280, Note_on_c, 15, 65, 72
13, 11280, Note_on_c, 15, 50, 72
13, 11280, Note_on_c, 15, 69, 72
13, 11280, Note_on_c, 15, 62, 72
13, 11519, Note_on_c, 15, 65, 0
13, 11519, Note_on_c, 15, 50, 0
13, 11519, Note_on_c, 15, 69, 0
13, 11519, Note_on_c, 15, 62, 0
13, 11520, Note_on_c, 15, 55, 72
13, 11520, Note_on_c, 15, 71, 72
13, 11520, Note_on_c, 15, 67, 72
13, 11520, Note_on_c, 15, 74, 72
13, 11759, Note_on_c, 15, 55, 0
13, 11759, Note_on_c, 15, 71, 0
13, 11759, Note_on_c, 15, 67, 0
13, 11759, Note_on_c, 15, 74, 0
13, 11760, Note_on_c, 15, 65, 72
13, 11760, Note_on_c, 15, 69, 72
13, 11760, Note_on_c, 15, 50, 72
13, 11760, Note_on_c, 15, 62, 72
13, 11999, Note_on_c, 15, 65, 0
13, 11999, Note_on_c, 15, 69, 0
13, 11999, Note_on_c, 15, 50, 0
13, 11999, Note_on_c, 15, 62, 0
13, 12000, Note_on_c, 15, 59, 72
13, 12000, Note_on_c, 15, 62, 72
13, 12000, Note_on_c, 15, 65, 72
13, 12000, Note_on_c, 15, 47, 72
13, 12239, Note_on_c, 15, 59, 0
13, 12239, Note_on_c, 15, 62, 0
13, 12239, Note_on_c, 15, 65, 0
13, 12239, Note_on_c, 15, 47, 0
13, 12240, Note_on_c, 15, 62, 72
13, 12240, Note_on_c, 15, 44, 72
13, 12240, Note_on_c, 15, 56, 72
13, 12240, Note_on_c, 15, 65, 72
13, 12240, Note_on_c, 15, 59, 72
13, 12479, Note_on_c, 15, 62, 0
13, 12479, Note_on_c, 15, 44, 0
13, 12479, Note_on_c, 15, 56, 0
13, 12479, Note_on_c, 15, 65, 0
13, 12479, Note_on_c, 15, 59, 0
13, 12480, Note_on_c, 15, 65, 72
13, 12480, Note_on_c, 15, 62, 72
13, 12480, Note_on_c, 15, 59, 72
13, 12480, Note_on_c, 15, 47, 72
13, 12599, Note_on_c, 15, 65, 0
13, 12599, Note_on_c, 15, 62, 0
13, 12599, Note_on_c, 15, 59, 0
13, 12599, Note_on_c, 15, 47, 0
13, 12600, Note_on_c, 15, 44, 72
13, 12600, Note_on_c, 15, 59, 72
13, 12600, Note_on_c, 15, 56, 72
13, 12600, Note_on_c, 15, 62, 72
13, 12719, Note_on_c, 15, 44, 0
13, 12719, Note_on_c, 15, 59, 0
13, 12719, Note_on_c, 15, 56, 0
13, 12719, Note_on_c, 15, 62, 0
13, 12720, Note_on_c, 15, 52, 72
13, 12720, Note_on_c, 15, 74, 72
13, 12720, Note_on_c, 15, 71, 72
13, 12720, Note_on_c, 15, 68, 72
13, 12720, Note_on_c, 15, 64, 72
13, 12959, Note_on_c, 15, 52, 0
13, 12959, Note_on_c, 15, 74, 0
13, 12959, Note_on_c, 15, 71, 0
13, 12959, Note_on_c, 15, 68, 0
13, 12959, Note_on_c, 15, 64, 0
13, 12960, Note_on_c, 15, 48, 72
13, 12960, Note_on_c, 15, 60, 72
13, 12960, Note_on_c, 15, 64, 72
13, 12960, Note_on_c, 15, 69, 72
13, 13199, Note_on_c, 15, 48, 0
13, 13199, Note_on_c, 15, 60, 0
13, 13199, Note_on_c, 15, 64, 0
13, 13199, Note_on_c, 15, 69, 0
13, 13200, Note_on_c, 15, 72, 72
13, 13200, Note_on_c, 15, 69, 72
13, 13200, Note_on_c, 15, 65, 72
13, 13200, Note_on_c, 15, 53, 72
13, 13439, Note_on_c, 15, 72, 0
13, 13439, Note_on_c, 15, 69, 0
13, 13439, Note_on_c, 15, 65, 0
13, 13439, Note_on_c, 15, 53, 0
13, 13440, Note_on_c, 15, 50, 72
13, 13440, Note_on_c, 15, 65, 72
13, 13440, Note_on_c, 15, 69, 72
13, 13440, Note_on_c, 15, 62, 72
13, 13440, Note_on_c, 15, 71, 72
13, 13679, Note_on_c, 15, 50, 0
13, 13679, Note_on_c, 15, 65, 0
13, 13679, Note_on_c, 15, 69, 0
13, 13679, Note_on_c, 15, 62, 0
13, 13679, Note_on_c, 15, 71, 0
13, 13680, Note_on_c, 15, 52, 72
13, 13680, Note_on_c, 15, 68, 72
13, 13680, Note_on_c, 15, 71, 72
13, 13680, Note_on_c, 15, 64, 72
13, 13919, Note_on_c, 15, 52, 0
13, 13919, Note_on_c, 15, 68, 0
13, 13919, Note_on_c, 15, 71, 0
13, 13919, Note_on_c, 15, 64, 0
13, 13920, Note_on_c, 15, 68, 72
13, 13920, Note_on_c, 15, 56, 72
13, 13920, Note_on_c, 15, 74, 72
13, 13920, Note_on_c, 15, 71, 72
13, 14039, Note_on_c, 15, 68, 0
13, 14039, Note_on_c, 15, 56, 0
13, 14039, Note_on_c, 15, 74, 0
13, 14039, Note_on_c, 15, 71, 0
13, 14040, Note_on_c, 15, 64, 72
13, 14040, Note_on_c, 15, 71, 72
13, 14040, Note_on_c, 15, 68, 72
13, 14040, Note_on_c, 15, 52, 72
13, 14159, Note_on_c, 15, 64, 0
13, 14159, Note_on_c, 15, 71, 0
13, 14159, Note_on_c, 15, 68, 0
13, 14159, Note_on_c, 15, 52, 0
13, 14160, Note_on_c, 15, 76, 72
13, 14160, Note_on_c, 15, 80, 72
13, 14160, Note_on_c, 15, 83, 72
13, 14160, Note_on_c, 15, 64, 72
13, 14399, Note_on_c, 15, 76, 0
13, 14399, Note_on_c, 15, 80, 0
13, 14399, Note_on_c, 15, 83, 0
13, 14399, Note_on_c, 15, 64, 0
13, 14400, Note_on_c, 15, 72, 72
13, 14400, Note_on_c, 15, 76, 72
13, 14400, Note_on_c, 15, 57, 72
13, 14400, Note_on_c, 15, 69, 72
13, 14639, Note_on_c, 15, 72, 0
13, 14639, Note_on_c, 15, 76, 0
13, 14639, Note_on_c, 15, 57, 0
13, 14639, Note_on_c, 15, 69, 0
13, 14640, Note_on_c, 15, 45, 72
13, 14640, Note_on_c, 15, 60, 72
13, 14640, Note_on_c, 15, 64, 72
13, 14640, Note_on_c, 15, 57, 72
13, 14879, Note_on_c, 15, 45, 0
13, 14879, Note_on_c, 15, 60, 0
13, 14879, Note_on_c, 15, 64, 0
13, 14879, Note_on_c, 15, 57, 0
13, 14880, Note_on_c, 15, 60, 72
13, 14880, Note_on_c, 15, 64, 72
13, 14880, Note_on_c, 15, 69, 72
13, 14880, Note_on_c, 15, 48, 72
13, 15119, Note_on_c, 15, 60, 0
13, 15119, Note_on_c, 15, 64, 0
13, 15119, Note_on_c, 15, 69, 0
13, 15119, Note_on_c, 15, 48, 0
13, 15120, Note_on_c, 15, 69, 72
13, 15120, Note_on_c, 15, 65, 72
13, 15120, Note_on_c, 15, 62, 72
13, 15120, Note_on_c, 15, 50, 72
13, 15359, Note_on_c, 15, 69, 0
13, 15359, Note_on_c, 15, 65, 0
13, 15359, Note_on_c, 15, 62, 0
13, 15359, Note_on_c, 15, 50, 0
13, 15360, Note_on_c, 15, 69, 72
13, 15360, Note_on_c, 15, 65, 72
13, 15360, Note_on_c, 15, 53, 72
13, 15360, Note_on_c, 15, 72, 72
13, 15479, Note_on_c, 15, 69, 0
13, 15479, Note_on_c, 15, 65, 0
13, 15479, Note_on_c, 15, 53, 0
13, 15479, Note_on_c, 15, 72, 0
13, 15480, Note_on_c, 15, 65, 72
13, 15480, Note_on_c, 15, 69, 72
13, 15480, Note_on_c, 15, 50, 72
13, 15480, Note_on_c, 15, 62, 72
13, 15599, Note_on_c, 15, 65, 0
13, 15599, Note_on_c, 15, 69, 0
13, 15599, Note_on_c, 15, 50, 0
13, 15599, Note_on_c, 15, 62, 0
13, 15600, Note_on_c, 15, 71, 72
13, 15600, Note_on_c, 15, 76, 72
13, 15600, Note_on_c, 15, 74, 72
13, 15600, Note_on_c, 15, 68, 72
13, 15600, Note_on_c, 15, 56, 72
13, 15839, Note_on_c, 15, 71, 0
13, 15839, Note_on_c, 15, 76, 0
13, 15839, Note_on_c, 15, 74, 0
13, 15839, Note_on_c, 15, 68, 0
13, 15839, Note_on_c, 15, 56, 0
13, 15840, Note_on_c, 15, 69, 72
13, 15840, Note_on_c, 15, 72, 72
13, 15840, Note_on_c, 15, 76, 72
13, 15840, Note_on_c, 15, 57, 72
13, 16079, Note_on_c, 15, 69, 0
13, 16079, Note_on_c, 15, 72, 0
13, 16079, Note_on_c, 15, 76, 0
13, 16079, Note_on_c, 15, 57, 0
13, 16080, Note_on_c, 15, 65, 72
13, 16080, Note_on_c, 15, 50, 72
13, 16080, Note_on_c, 15, 62, 72
13, 16080, Note_on_c, 15, 69, 72
13, 16080, Note_on_c, 15, 71, 72
13, 16319, Note_on_c, 15, 65, 0
13, 16319, Note_on_c, 15, 50, 0
13, 16319, Note_on_c, 15, 62, 0
13, 16319, Note_on_c, 15, 69, 0
13, 16319, Note_on_c, 15, 71, 0
13, 16320, Note_on_c, 15, 71, 72
13, 16320, Note_on_c, 15, 64, 72
13, 16320, Note_on_c, 15, 68, 72
13, 16320, Note_on_c, 15, 52, 72
13, 16559, Note_on_c, 15, 71, 0
13, 16559, Note_on_c, 15, 64, 0
13, 16559, Note_on_c, 15, 68, 0
13, 16559, Note_on_c, 15, 52, 0
13, 16560, Note_on_c, 15, 64, 72
13, 16560, Note_on_c, 15, 60, 72
13, 16560, Note_on_c, 15, 45, 72
13, 16560, Note_on_c, 15, 57, 72
13, 16799, Note_on_c, 15, 64, 0
13, 16799, Note_on_c, 15, 60, 0
13, 16799, Note_on_c, 15, 45, 0
13, 16799, Note_on_c, 15, 57, 0
13, 16800, Note_on_c, 15, 48, 72
13, 16800, Note_on_c, 15, 60, 72
13, 16800, Note_on_c, 15, 67, 72
13, 16800, Note_on_c, 15, 64, 72
13, 16919, Note_on_c, 15, 48, 0
13, 16919, Note_on_c, 15, 60, 0
13, 16919, Note_on_c, 15, 67, 0
13, 16919, Note_on_c, 15, 64, 0
13, 16920, Note_on_c, 15, 45, 72
13, 16920, Note_on_c, 15, 64, 72
13, 16920, Note_on_c, 15, 60, 72
13, 16920, Note_on_c, 15, 57, 72
13, 17039, Note_on_c, 15, 45, 0
13, 17039, Note_on_c, 15, 64, 0
13, 17039, Note_on_c, 15, 60, 0
13, 17039, Note_on_c, 15, 57, 0
13, 17040, Note_on_c, 15, 65, 72
13, 17040, Note_on_c, 15, 72, 72
13, 17040, Note_on_c, 15, 69, 72
13, 17040, Note_on_c, 15, 53, 72
13, 17279, Note_on_c, 15, 65, 0
13, 17279, Note_on_c, 15, 72, 0
13, 17279, Note_on_c, 15, 69, 0
13, 17279, Note_on_c, 15, 53, 0
13, 17280, Note_on_c, 15, 67, 72
13, 17280, Note_on_c, 15, 64, 72
13, 17280, Note_on_c, 15, 52, 72
13, 17280, Note_on_c, 15, 72, 72
13, 17519, Note_on_c, 15, 67, 0
13, 17519, Note_on_c, 15, 64, 0
13, 17519, Note_on_c, 15, 52, 0
13, 17519, Note_on_c, 15, 72, 0
13, 17520, Note_on_c, 15, 60, 72
13, 17520, Note_on_c, 15, 67, 72
13, 17520, Note_on_c, 15, 64, 72
13, 17520, Note_on_c, 15, 48, 72
13, 17759, Note_on_c, 15, 60, 0
13, 17759, Note_on_c, 15, 67, 0
13, 17759, Note_on_c, 15, 64, 0
13, 17759, Note_on_c, 15, 48, 0
13, 17760, Note_on_c, 15, 79, 72
13, 17760, Note_on_c, 15, 76, 72
13, 17760, Note_on_c, 15, 72, 72
13, 17760, Note_on_c, 15, 60, 72
13, 17999, Note_on_c, 15, 79, 0
13, 17999, Note_on_c, 15, 76, 0
13, 17999, Note_on_c, 15, 72, 0
13, 17999, Note_on_c, 15, 60, 0
13, 18000, Note_on_c, 15, 65, 72
13, 18000, Note_on_c, 15, 53, 72
13, 18000, Note_on_c, 15, 69, 72
13, 18000, Note_on_c, 15, 72, 72
13, 18119, Note_on_c, 15, 65, 0
13, 18119, Note_on_c, 15, 53, 0
13, 18119, Note_on_c, 15, 69, 0
13, 18119, Note_on_c, 15, 72, 0
13, 18120, Note_on_c, 15, 64, 72
13, 18120, Note_on_c, 15, 52, 72
13, 18120, Note_on_c, 15, 67, 72
13, 18120, Note_on_c, 15, 71, 72
13, 18239, Note_on_c, 15, 64, 0
13, 18239, Note_on_c, 15, 52, 0
13, 18239, Note_on_c, 15, 67, 0
13, 18239, Note_on_c, 15, 71, 0
13, 18240, Note_on_c, 15, 67, 72
13, 18240, Note_on_c, 15, 71, 72
13, 18240, Note_on_c, 15, 65, 72
13, 18240, Note_on_c, 15, 53, 72
13, 18240, Note_on_c, 15, 74, 72
13, 18359, Note_on_c, 15, 67, 0
13, 18359, Note_on_c, 15, 71, 0
13, 18359, Note_on_c, 15, 65, 0
13, 18359, Note_on_c, 15, 53, 0
13, 18359, Note_on_c, 15, 74, 0
13, 18360, Note_on_c, 15, 62, 72
13, 18360, Note_on_c, 15, 50, 72
13, 18360, Note_on_c, 15, 69, 72
13, 18360, Note_on_c, 15, 65, 72
13, 18479, Note_on_c, 15, 62, 0
13, 18479, Note_on_c, 15, 50, 0
13, 18479, Note_on_c, 15, 69, 0
13, 18479, Note_on_c, 15, 65, 0
13, 18480, Note_on_c, 15, 71, 72
13, 18480, Note_on_c, 15, 74, 72
13, 18480, Note_on_c, 15, 55, 72
13, 18480, Note_on_c, 15, 67, 72
13, 18719, Note_on_c, 15, 71, 0
13, 18719, Note_on_c, 15, 74, 0
13, 18719, Note_on_c, 15, 55, 0
13, 18719, Note_on_c, 15, 67, 0
13, 18720, Note_on_c, 15, 64, 72
13, 18720, Note_on_c, 15, 72, 72
13, 18720, Note_on_c, 15, 67, 72
13, 18720, Note_on_c, 15, 52, 72
13, 18959, Note_on_c, 15, 64, 0
13, 18959, Note_on_c, 15, 72, 0
13, 18959, Note_on_c, 15, 67, 0
13, 18959, Note_on_c, 15, 52, 0
13, 18960, Note_on_c, 15, 77, 72
13, 18960, Note_on_c, 15, 72, 72
13, 18960, Note_on_c, 15, 69, 72
13, 18960, Note_on_c, 15, 57, 72
13, 19199, Note_on_c, 15, 77, 0
13, 19199, Note_on_c, 15, 72, 0
13, 19199, Note_on_c, 15, 69, 0
13, 19199, Note_on_c, 15, 57, 0
13, 19200, Note_on_c, 15, 53, 72
13, 19200, Note_on_c, 15, 65, 72
13, 19200, Note_on_c, 15, 72, 72
13, 19200, Note_on_c, 15, 69, 72
13, 19439, Note_on_c, 15, 53, 0
13, 19439, Note_on_c, 15, 65, 0
13, 19439, Note_on_c, 15, 72, 0
13, 19439, Note_on_c, 15, 69, 0
13, 19440, Note_on_c, 15, 71, 72
13, 19440, Note_on_c, 15, 67, 72
13, 19440, Note_on_c, 15, 74, 72
13, 19440, Note_on_c, 15, 55, 72
13, 19679, Note_on_c, 15, 71, 0
13, 19679, Note_on_c, 15, 67, 0
13, 19679, Note_on_c, 15, 74, 0
13, 19679, Note_on_c, 15, 55, 0
13, 19680, Note_on_c, 15, 79, 72
13, 19680, Note_on_c, 15, 64, 72
13, 19680, Note_on_c, 15, 76, 72
13, 19680, Note_on_c, 15, 84, 72
13, 19799, Note_on_c, 15, 79, 0
13, 19799, Note_on_c, 15, 64, 0
13, 19799, Note_on_c, 15, 76, 0
13, 19799, Note_on_c, 15, 84, 0
13, 19800, Note_on_c, 15, 74, 72
13, 19800, Note_on_c, 15, 81, 72
13, 19800, Note_on_c, 15, 77, 72
13, 19800, Note_on_c, 15, 62, 72
13, 19919, Note_on_c, 15, 74, 0
13, 19919, Note_on_c, 15, 81, 0
13, 19919, Note_on_c, 15, 77, 0
13, 19919, Note_on_c, 15, 62, 0
13, 19920, Note_on_c, 15, 76, 72
13, 19920, Note_on_c, 15, 84, 72
13, 19920, Note_on_c, 15, 79, 72
13, 19920, Note_on_c, 15, 64, 72
13, 20039, Note_on_c, 15, 76, 0
13, 20039, Note_on_c, 15, 84, 0
13, 20039, Note_on_c, 15, 79, 0
13, 20039, Note_on_c, 15, 64, 0
13, 20040, Note_on_c, 15, 76, 72
13, 20040, Note_on_c, 15, 72, 72
13, 20040, Note_on_c, 15, 79, 72
13, 20040, Note_on_c, 15, 60, 72
13, 20159, Note_on_c, 15, 76, 0
13, 20159, Note_on_c, 15, 72, 0
13, 20159, Note_on_c, 15, 79, 0
13, 20159, Note_on_c, 15, 60, 0
13, 20160, Note_on_c, 15, 71, 72
13, 20160, Note_on_c, 15, 59, 72
13, 20160, Note_on_c, 15, 74, 72
13, 20160, Note_on_c, 15, 79, 72
13, 20399, Note_on_c, 15, 71, 0
13, 20399, Note_on_c, 15, 59, 0
13, 20399, Note_on_c, 15, 74, 0
13, 20399, Note_on_c, 15, 79, 0
13, 20400, Note_on_c, 15, 74, 72
13, 20400, Note_on_c, 15, 55, 72
13, 20400, Note_on_c, 15, 71, 72
13, 20400, Note_on_c, 15, 67, 72
13, 20639, Note_on_c, 15, 74, 0
13, 20639, Note_on_c, 15, 55, 0
13, 20639, Note_on_c, 15, 71, 0
13, 20639, Note_on_c, 15, 67, 0
13, 20640, Note_on_c, 15, 74, 72
13, 20640, Note_on_c, 15, 59, 72
13, 20640, Note_on_c, 15, 79, 72
13, 20640, Note_on_c, 15, 77, 72
13, 20640, Note_on_c, 15, 71, 72
13, 20879, Note_on_c, 15, 74, 0
13, 20879, Note_on_c, 15, 59, 0
13, 20879, Note_on_c, 15, 79, 0
13, 20879, Note_on_c, 15, 77, 0
13, 20879, Note_on_c, 15, 71, 0
13, 20880, Note_on_c, 15, 60, 72
13, 20880, Note_on_c, 15, 48, 72
13, 20880, Note_on_c, 15, 64, 72
13, 20880, Note_on_c, 15, 67, 72
13, 21119, Note_on_c, 15, 60, 0
13, 21119, Note_on_c, 15, 48, 0
13, 21119, Note_on_c, 15, 64, 0
13, 21119, Note_on_c, 15, 67, 0
13, 21120, Note_on_c, 15, 53, 72
13, 21120, Note_on_c, 15, 65, 72
13, 21120, Note_on_c, 15, 72, 72
13, 21120, Note_on_c, 15, 69, 72
13, 21239, Note_on_c, 15, 53, 0
13, 21239, Note_on_c, 15, 65, 0
13, 21239, Note_on_c, 15, 72, 0
13, 21239, Note_on_c, 15, 69, 0
13, 21240, Note_on_c, 15, 62, 72
13, 21240, Note_on_c, 15, 69, 72
13, 21240, Note_on_c, 15, 50, 72
13, 21240, Note_on_c, 15, 65, 72
13, 21359, Note_on_c, 15, 62, 0
13, 21359, Note_on_c, 15, 69, 0
13, 21359, Note_on_c, 15, 50, 0
13, 21359, Note_on_c, 15, 65, 0
13, 21360, Note_on_c, 15, 74, 72
13, 21360, Note_on_c, 15, 81, 72
13, 21360, Note_on_c, 15, 71, 72
13, 21360, Note_on_c, 15, 59, 72
13, 21360, Note_on_c, 15, 77, 72
13, 21599, Note_on_c, 15, 74, 0
13, 21599, Note_on_c, 15, 81, 0
13, 21599, Note_on_c, 15, 71, 0
13, 21599, Note_on_c, 15, 59, 0
13, 21599, Note_on_c, 15, 77, 0
13, 21600, Note_on_c, 15, 52, 72
13, 21600, Note_on_c, 15, 67, 72
13, 21600, Note_on_c, 15, 64, 72
13, 21600, Note_on_c, 15, 72, 72
13, 21839, Note_on_c, 15, 52, 0
13, 21839, Note_on_c, 15, 67, 0
13, 21839, Note_on_c, 15, 64, 0
13, 21839, Note_on_c, 15, 72, 0
13, 21840, Note_on_c, 15, 65, 72
13, 21840, Note_on_c, 15, 69, 72
13, 21840, Note_on_c, 15, 72, 72
13, 21840, Note_on_c, 15, 53, 72
13, 21840, Note_on_c, 15, 76, 72
13, 22079, Note_on_c, 15, 65, 0
13, 22079, Note_on_c, 15, 69, 0
13, 22079, Note_on_c, 15, 72, 0
13, 22079, Note_on_c, 15, 53, 0
13, 22079, Note_on_c, 15, 76, 0
13, 22080, Note_on_c, 15, 74, 72
13, 22080, Note_on_c, 15, 67, 72
13, 22080, Note_on_c, 15, 71, 72
13, 22080, Note_on_c, 15, 55, 72
13, 22319, Note_on_c, 15, 74, 0
13, 22319, Note_on_c, 15, 67, 0
13, 22319, Note_on_c, 15, 71, 0
13, 22319, Note_on_c, 15, 55, 0
13, 22320, Note_on_c, 15, 60, 72
13, 22320, Note_on_c, 15, 48, 72
13, 22320, Note_on_c, 15, 64, 72
13, 22320, Note_on_c, 15, 67, 72
13, 22439, Note_on_c, 15, 60, 0
13, 22439, Note_on_c, 15, 48, 0
13, 22439, Note_on_c, 15, 64, 0
13, 22439, Note_on_c, 15, 67, 0
13, 22440, Note_on_c, 15, 47, 72
13, 22440, Note_on_c, 15, 62, 72
13, 22440, Note_on_c, 15, 65, 72
13, 22440, Note_on_c, 15, 59, 72
13, 22559, Note_on_c, 15, 47, 0
13, 22559, Note_on_c, 15, 62, 0
13, 22559, Note_on_c, 15, 65, 0
13, 22559, Note_on_c, 15, 59, 0
13, 22560, Note_on_c, 15, 48, 72
13, 22560, Note_on_c, 15, 60, 72
13, 22560, Note_on_c, 15, 67, 72
13, 22560, Note_on_c, 15, 64, 72
13, 22679, Note_on_c, 15, 48, 0
13, 22679, Note_on_c, 15, 60, 0
13, 22679, Note_on_c, 15, 67, 0
13, 22679, Note_on_c, 15, 64, 0
13, 22680, Note_on_c, 15, 62, 72
13, 22680, Note_on_c, 15, 69, 72
13, 22680, Note_on_c, 15, 50, 72
13, 22680, Note_on_c, 15, 65, 72
13, 22799, Note_on_c, 15, 62, 0
13, 22799, Note_on_c, 15, 69, 0
13, 22799, Note_on_c, 15, 50, 0
13, 22799, Note_on_c, 15, 65, 0
13, 22800, Note_on_c, 15, 67, 72
13, 22800, Note_on_c, 15, 64, 72
13, 22800, Note_on_c, 15, 52, 72
13, 22800, Note_on_c, 15, 71, 72
13, 22919, Note_on_c, 15, 67, 0
13, 22919, Note_on_c, 15, 64, 0
13, 22919, Note_on_c, 15, 52, 0
13, 22919, Note_on_c, 15, 71, 0
13, 22920, Note_on_c, 15, 72, 72
13, 22920, Note_on_c, 15, 53, 72
13, 22920, Note_on_c, 15, 65, 72
13, 22920, Note_on_c, 15, 69, 72
13, 23039, Note_on_c, 15, 72, 0
13, 23039, Note_on_c, 15, 53, 0
13, 23039, Note_on_c, 15, 65, 0
13, 23039, Note_on_c, 15, 69, 0
13, 23040, Note_on_c, 15, 67, 72
13, 23040, Note_on_c, 15, 55, 72
13, 23040, Note_on_c, 15, 74, 72
13, 23040, Note_on_c, 15, 71, 72
13, 23279, Note_on_c, 15, 67, 0
13, 23279, Note_on_c, 15, 55, 0
13, 23279, Note_on_c, 15, 74, 0
13, 23279, Note_on_c, 15, 71, 0
13, 23280, Note_on_c, 15, 69, 72
13, 23280, Note_on_c, 15, 65, 72
13, 23280, Note_on_c, 15, 62, 72
13, 23280, Note_on_c, 15, 50, 72
13, 23519, Note_on_c, 15, 69, 0
13, 23519, Note_on_c, 15, 65, 0
13, 23519, Note_on_c, 15, 62, 0
13, 23519, Note_on_c, 15, 50, 0
13, 23520, Note_on_c, 15, 47, 72
13, 23520, Note_on_c, 15, 62, 72
13, 23520, Note_on_c, 15, 59, 72
13, 23520, Note_on_c, 15, 65, 72
13, 23759, Note_on_c, 15, 47, 0
13, 23759, Note_on_c, 15, 62, 0
13, 23759, Note_on_c, 15, 59, 0
13, 23759, Note_on_c, 15, 65, 0
13, 23760, Note_on_c, 15, 62, 72
13, 23760, Note_on_c, 15, 56, 72
13, 23760, Note_on_c, 15, 44, 72
13, 23760, Note_on_c, 15, 65, 72
13, 23760, Note_on_c, 15, 59, 72
13, 23999, Note_on_c, 15, 62, 0
13, 23999, Note_on_c, 15, 56, 0
13, 23999, Note_on_c, 15, 44, 0
13, 23999, Note_on_c, 15, 65, 0
13, 23999, Note_on_c, 15, 59, 0
13, 24000, Note_on_c, 15, 47, 72
13, 24000, Note_on_c, 15, 65, 72
13, 24000, Note_on_c, 15, 62, 72
13, 24000, Note_on_c, 15, 59, 72
13, 24119, Note_on_c, 15, 47, 0
13, 24119, Note_on_c, 15, 65, 0
13, 24119, Note_on_c, 15, 62, 0
13, 24119, Note_on_c, 15, 59, 0
13, 24120, Note_on_c, 15, 44, 72
13, 24120, Note_on_c, 15, 56, 72
13, 24120, Note_on_c, 15, 62, 72
13, 24120, Note_on_c, 15, 59, 72
13, 24239, Note_on_c, 15, 44, 0
13, 24239, Note_on_c, 15, 56, 0
13, 24239, Note_on_c, 15, 62, 0
13, 24239, Note_on_c, 15, 59, 0
13, 24240, Note_on_c, 15, 74, 72
13, 24240, Note_on_c, 15, 71, 72
13, 24240, Note_on_c, 15, 64, 72
13, 24240, Note_on_c, 15, 52, 72
13, 24240, Note_on_c, 15, 68, 72
13, 24479, Note_on_c, 15, 74, 0
13, 24479, Note_on_c, 15, 71, 0
13, 24479, Note_on_c, 15, 64, 0
13, 24479, Note_on_c, 15, 52, 0
13, 24479, Note_on_c, 15, 68, 0
13, 24480, Note_on_c, 15, 69, 72
13, 24480, Note_on_c, 15, 48, 72
13, 24480, Note_on_c, 15, 60, 72
13, 24480, Note_on_c, 15, 64, 72
13, 24719, Note_on_c, 15, 69, 0
13, 24719, Note_on_c, 15, 48, 0
13, 24719, Note_on_c, 15, 60, 0
13, 24719, Note_on_c, 15, 64, 0
13, 24720, Note_on_c, 15, 69, 72
13, 24720, Note_on_c, 15, 53, 72
13, 24720, Note_on_c, 15, 72, 72
13, 24720, Note_on_c, 15, 65, 72
13, 24959, Note_on_c, 15, 69, 0
13, 24959, Note_on_c, 15, 53, 0
13, 24959, Note_on_c, 15, 72, 0
13, 24959, Note_on_c, 15, 65, 0
13, 24960, Note_on_c, 15, 71, 72
13, 24960, Note_on_c, 15, 50, 72
13, 24960, Note_on_c, 15, 69, 72
13, 24960, Note_on_c, 15, 65, 72
13, 24960, Note_on_c, 15, 62, 72
13, 25199, Note_on_c, 15, 71, 0
13, 25199, Note_on_c, 15, 50, 0
13, 25199, Note_on_c, 15, 69, 0
13, 25199, Note_on_c, 15, 65, 0
13, 25199, Note_on_c, 15, 62, 0
13, 25200, Note_on_c, 15, 71, 72
13, 25200, Note_on_c, 15, 68, 72
13, 25200, Note_on_c, 15, 52, 72
13, 25200, Note_on_c, 15, 64, 72
13, 25439, Note_on_c, 15, 71, 0
13, 25439, Note_on_c, 15, 68, 0
13, 25439, Note_on_c, 15, 52, 0
13, 25439, Note_on_c, 15, 64, 0
13, 25440, Note_on_c, 15, 56, 72
13, 25440, Note_on_c, 15, 71, 72
13, 25440, Note_on_c, 15, 74, 72
13, 25440, Note_on_c, 15, 68, 72
13, 25559, Note_on_c, 15, 56, 0
13, 25559, Note_on_c, 15, 71, 0
13, 25559, Note_on_c, 15, 74, 0
13, 25559, Note_on_c, 15, 68, 0
13, 25560, Note_on_c, 15, 71, 72
13, 25560, Note_on_c, 15, 68, 72
13, 25560, Note_on_c, 15, 52, 72
13, 25560, Note_on_c, 15, 64, 72
13, 25679, Note_on_c, 15, 71, 0
13, 25679, Note_on_c, 15, 68, 0
13, 25679, Note_on_c, 15, 52, 0
13, 25679, Note_on_c, 15, 64, 0
13, 25680, Note_on_c, 15, 64, 72
13, 25680, Note_on_c, 15, 80, 72
13, 25680, Note_on_c, 15, 83, 72
13, 25680, Note_on_c, 15, 76, 72
13, 25919, Note_on_c, 15, 64, 0
13, 25919, Note_on_c, 15, 80, 0
13, 25919, Note_on_c, 15, 83, 0
13, 25919, Note_on_c, 15, 76, 0
13, 25920, Note_on_c, 15, 72, 72
13, 25920, Note_on_c, 15, 57, 72
13, 25920, Note_on_c, 15, 76, 72
13, 25920, Note_on_c, 15, 69, 72
13, 26159, Note_on_c, 15, 72, 0
13, 26159, Note_on_c, 15, 57, 0
13, 26159, Note_on_c, 15, 76, 0
13, 26159, Note_on_c, 15, 69, 0
13, 26160, Note_on_c, 15, 57, 72
13, 26160, Note_on_c, 15, 64, 72
13, 26160, Note_on_c, 15, 60, 72
13, 26160, Note_on_c, 15, 45, 72
13, 26399, Note_on_c, 15, 57, 0
13, 26399, Note_on_c, 15, 64, 0
13, 26399, Note_on_c, 15, 60, 0
13, 26399, Note_on_c, 15, 45, 0
13, 26400, Note_on_c, 15, 69, 72
13, 26400, Note_on_c, 15, 60, 72
13, 26400, Note_on_c, 15, 48, 72
13, 26400, Note_on_c, 15, 64, 72
13, 26639, Note_on_c, 15, 69, 0
13, 26639, Note_on_c, 15, 60, 0
13, 26639, Note_on_c, 15, 48, 0
13, 26639, Note_on_c, 15, 64, 0
13, 26640, Note_on_c, 15, 50, 72
13, 26640, Note_on_c, 15, 65, 72
13, 26640, Note_on_c, 15, 62, 72
13, 26640, Note_on_c, 15, 69, 72
13, 26879, Note_on_c, 15, 50, 0
13, 26879, Note_on_c, 15, 65, 0
13, 26879, Note_on_c, 15, 62, 0
13, 26879, Note_on_c, 15, 69, 0
13, 26880, Note_on_c, 15, 72, 72
13, 26880, Note_on_c, 15, 53, 72
13, 26880, Note_on_c, 15, 65, 72
13, 26880, Note_on_c, 15, 69, 72
13, 26999, Note_on_c, 15, 72, 0
13, 26999, Note_on_c, 15, 53, 0
13, 26999, Note_on_c, 15, 65, 0
13, 26999, Note_on_c, 15, 69, 0
13, 27000, Note_on_c, 15, 50, 72
13, 27000, Note_on_c, 15, 69, 72
13, 27000, Note_on_c, 15, 65, 72
13, 27000, Note_on_c, 15, 62, 72
13, 27119, Note_on_c, 15, 50, 0
13, 27119, Note_on_c, 15, 69, 0
13, 27119, Note_on_c, 15, 65, 0
13, 27119, Note_on_c, 15, 62, 0
13, 27120, Note_on_c, 15, 56, 72
13, 27120, Note_on_c, 15, 76, 72
13, 27120, Note_on_c, 15, 68, 72
13, 27120, Note_on_c, 15, 74, 72
13, 27120, Note_on_c, 15, 71, 72
13, 27359, Note_on_c, 15, 56, 0
13, 27359, Note_on_c, 15, 76, 0
13, 27359, Note_on_c, 15, 68, 0
13, 27359, Note_on_c, 15, 74, 0
13, 27359, Note_on_c, 15, 71, 0
13, 27360, Note_on_c, 15, 72, 72
13, 27360, Note_on_c, 15, 76, 72
13, 27360, Note_on_c, 15, 69, 72
13, 27360, Note_on_c, 15, 57, 72
13, 27599, Note_on_c, 15, 72, 0
13, 27599, Note_on_c, 15, 76, 0
13, 27599, Note_on_c, 15, 69, 0
13, 27599, Note_on_c, 15, 57, 0
13, 27600, Note_on_c, 15, 50, 72
13, 27600, Note_on_c, 15, 62, 72
13, 27600, Note_on_c, 15, 69, 72
13, 27600, Note_on_c, 15, 65, 72
13, 27600, Note_on_c, 15, 71, 72
13, 27839, Note_on_c, 15, 50, 0
13, 27839, Note_on_c, 15, 62, 0
13, 27839, Note_on_c, 15, 69, 0
13, 27839, Note_on_c, 15, 65, 0
13, 27839, Note_on_c, 15, 71, 0
13, 27840, Note_on_c, 15, 71, 72
13, 27840, Note_on_c, 15, 68, 72
13, 27840, Note_on_c, 15, 64, 72
13, 27840, Note_on_c, 15, 52, 72
13, 28079, Note_on_c, 15, 71, 0
13, 28079, Note_on_c, 15, 68, 0
13, 28079, Note_on_c, 15, 64, 0
13, 28079, Note_on_c, 15, 52, 0
13, 28080, Note_on_c, 15, 45, 72
13, 28080, Note_on_c, 15, 57, 72
13, 28080, Note_on_c, 15, 60, 72
13, 28080, Note_on_c, 15, 64, 72
13, 28319, Note_on_c, 15, 45, 0
13, 28319, Note_on_c, 15, 57, 0
13, 28319, Note_on_c, 15, 60, 0
13, 28319, Note_on_c, 15, 64, 0
13, 28320, Note_on_c, 15, 67, 72
13, 28320, Note_on_c, 15, 64, 72
13, 28320, Note_on_c, 15, 60, 72
13, 28320, Note_on_c, 15, 48, 72
13, 28439, Note_on_c, 15, 67, 0
13, 28439, Note_on_c, 15, 64, 0
13, 28439, Note_on_c, 15, 60, 0
13, 28439, Note_on_c, 15, 48, 0
13, 28440, Note_on_c, 15, 64, 72
13, 28440, Note_on_c, 15, 45, 72
13, 28440, Note_on_c, 15, 57, 72
13, 28440, Note_on_c, 15, 60, 72
13, 28559, Note_on_c, 15, 64, 0
13, 28559, Note_on_c, 15, 45, 0
13, 28559, Note_on_c, 15, 57, 0
13, 28559, Note_on_c, 15, 60, 0
13, 28560, Note_on_c, 15, 69, 72
13, 28560, Note_on_c, 15, 72, 72
13, 28560, Note_on_c, 15, 53, 72
13, 28560, Note_on_c, 15, 65, 72
13, 28799, Note_on_c, 15, 69, 0
13, 28799, Note_on_c, 15, 72, 0
13, 28799, Note_on_c, 15, 53, 0
13, 28799, Note_on_c, 15, 65, 0
13, 28800, Note_on_c, 15, 72, 72
13, 28800, Note_on_c, 15, 64, 72
13, 28800, Note_on_c, 15, 67, 72
13, 28800, Note_on_c, 15, 52, 72
13, 29039, Note_on_c, 15, 72, 0
13, 29039, Note_on_c, 15, 64, 0
13, 29039, Note_on_c, 15, 67, 0
13, 29039, Note_on_c, 15, 52, 0
13, 29040, Note_on_c, 15, 48, 72
13, 29040, Note_on_c, 15, 67, 72
13, 29040, Note_on_c, 15, 60, 72
13, 29040, Note_on_c, 15, 64, 72
13, 29279, Note_on_c, 15, 48, 0
13, 29279, Note_on_c, 15, 67, 0
13, 29279, Note_on_c, 15, 60, 0
13, 29279, Note_on_c, 15, 64, 0
13, 29280, Note_on_c, 15, 76, 72
13, 29280, Note_on_c, 15, 79, 72
13, 29280, Note_on_c, 15, 60, 72
13, 29280, Note_on_c, 15, 72, 72
13, 29519, Note_on_c, 15, 76, 0
13, 29519, Note_on_c, 15, 79, 0
13, 29519, Note_on_c, 15, 60, 0
13, 29519, Note_on_c, 15, 72, 0
13, 29520, Note_on_c, 15, 53, 72
13, 29520, Note_on_c, 15, 69, 72
13, 29520, Note_on_c, 15, 72, 72
13, 29520, Note_on_c, 15, 65, 72
13, 29639, Note_on_c, 15, 53, 0
13, 29639, Note_on_c, 15, 69, 0
13, 29639, Note_on_c, 15, 72, 0
13, 29639, Note_on_c, 15, 65, 0
13, 29640, Note_on_c, 15, 52, 72
13, 29640, Note_on_c, 15, 64, 72
13, 29640, Note_on_c, 15, 71, 72
13, 29640, Note_on_c, 15, 67, 72
13, 29759, Note_on_c, 15, 52, 0
13, 29759, Note_on_c, 15, 64, 0
13, 29759, Note_on_c, 15, 71, 0
13, 29759, Note_on_c, 15, 67, 0
13, 29760, Note_on_c, 15, 74, 72
13, 29760, Note_on_c, 15, 65, 72
13, 29760, Note_on_c, 15, 67, 72
13, 29760, Note_on_c, 15, 53, 72
13, 29760, Note_on_c, 15, 71, 72
13, 29879, Note_on_c, 15, 74, 0
13, 29879, Note_on_c, 15, 65, 0
13, 29879, Note_on_c, 15, 67, 0
13, 29879, Note_on_c, 15, 53, 0
13, 29879, Note_on_c, 15, 71, 0
13, 29880, Note_on_c, 15, 50, 72
13, 29880, Note_on_c, 15, 65, 72
13, 29880, Note_on_c, 15, 69, 72
13, 29880, Note_on_c, 15, 62, 72
13, 29999, Note_on_c, 15, 50, 0
13, 29999, Note_on_c, 15, 65, 0
13, 29999, Note_on_c, 15, 69, 0
13, 29999, Note_on_c, 15, 62, 0
13, 30000, Note_on_c, 15, 67, 72
13, 30000, Note_on_c, 15, 55, 72
13, 30000, Note_on_c, 15, 74, 72
13, 30000, Note_on_c, 15, 71, 72
13, 30239, Note_on_c, 15, 67, 0
13, 30239, Note_on_c, 15, 55, 0
13, 30239, Note_on_c, 15, 74, 0
13, 30239, Note_on_c, 15, 71, 0
13, 30240, Note_on_c, 15, 64, 72
13, 30240, Note_on_c, 15, 52, 72
13, 30240, Note_on_c, 15, 67, 72
13, 30240, Note_on_c, 15, 72, 72
13, 30479, Note_on_c, 15, 64, 0
13, 30479, Note_on_c, 15, 52, 0
13, 30479, Note_on_c, 15, 67, 0
13, 30479, Note_on_c, 15, 72, 0
13, 30480, Note_on_c, 15, 77, 72
13, 30480, Note_on_c, 15, 57, 72
13, 30480, Note_on_c, 15, 72, 72
13, 30480, Note_on_c, 15, 69, 72
13, 30719, Note_on_c, 15, 77, 0
13, 30719, Note_on_c, 15, 57, 0
13, 30719, Note_on_c, 15, 72, 0
13, 30719, Note_on_c, 15, 69, 0
13, 30720, Note_on_c, 15, 72, 72
13, 30720, Note_on_c, 15, 69, 72
13, 30720, Note_on_c, 15, 65, 72
13, 30720, Note_on_c, 15, 53, 72
13, 30959, Note_on_c, 15, 72, 0
13, 30959, Note_on_c, 15, 69, 0
13, 30959, Note_on_c, 15, 65, 0
13, 30959, Note_on_c, 15, 53, 0
13, 30960, Note_on_c, 15, 55, 72
13, 30960, Note_on_c, 15, 71, 72
13, 30960, Note_on_c, 15, 67, 72
13, 30960, Note_on_c, 15, 74, 72
13, 31199, Note_on_c, 15, 55, 0
13, 31199, Note_on_c, 15, 71, 0
13, 31199, Note_on_c, 15, 67, 0
13, 31199, Note_on_c, 15, 74, 0
13, 31200, Note_on_c, 15, 84, 72
13, 31200, Note_on_c, 15, 64, 72
13, 31200, Note_on_c, 15, 76, 72
13, 31200, Note_on_c, 15, 79, 72
13, 31319, Note_on_c, 15, 84, 0
13, 31319, Note_on_c, 15, 64, 0
13, 31319, Note_on_c, 15, 76, 0
13, 31319, Note_on_c, 15, 79, 0
13, 31320, Note_on_c, 15, 62, 72
13, 31320, Note_on_c, 15, 81, 72
13, 31320, Note_on_c, 15, 74, 72
13, 31320, Note_on_c, 15, 77, 72
13, 31439, Note_on_c, 15, 62, 0
13, 31439, Note_on_c, 15, 81, 0
13, 31439, Note_on_c, 15, 74, 0
13, 31439, Note_on_c, 15, 77, 0
13, 31440, Note_on_c, 15, 76, 72
13, 31440, Note_on_c, 15, 79, 72
13, 31440, Note_on_c, 15, 84, 72
13, 31440, Note_on_c, 15, 64, 72
13, 31559, Note_on_c, 15, 76, 0
13, 31559, Note_on_c, 15, 79, 0
13, 31559, Note_on_c, 15, 84, 0
13, 31559, Note_on_c, 15, 64, 0
13, 31560, Note_on_c, 15, 76, 72
13, 31560, Note_on_c, 15, 60, 72
13, 31560, Note_on_c, 15, 72, 72
13, 31560, Note_on_c, 15, 79, 72
13, 31679, Note_on_c, 15, 76, 0
13, 31679, Note_on_c, 15, 60, 0
13, 31679, Note_on_c, 15, 72, 0
13, 31679, Note_on_c, 15, 79, 0
13, 31680, Note_on_c, 15, 71, 72
13, 31680, Note_on_c, 15, 59, 72
13, 31680, Note_on_c, 15, 79, 72
13, 31680, Note_on_c, 15, 74, 72
13, 31919, Note_on_c, 15, 71, 0
13, 31919, Note_on_c, 15, 59, 0
13, 31919, Note_on_c, 15, 79, 0
13, 31919, Note_on_c, 15, 74, 0
13, 31920, Note_on_c, 15, 74, 72
13, 31920, Note_on_c, 15, 67, 72
13, 31920, Note_on_c, 15, 55, 72
13, 31920, Note_on_c, 15, 71, 72
13, 32159, Note_on_c, 15, 74, 0
13, 32159, Note_on_c, 15, 67, 0
13, 32159, Note_on_c, 15, 55, 0
13, 32159, Note_on_c, 15, 71, 0
13, 32160, Note_on_c, 15, 77, 72
13, 32160, Note_on_c, 15, 79, 72
13, 32160, Note_on_c, 15, 71, 72
13, 32160, Note_on_c, 15, 59, 72
13, 32160, Note_on_c, 15, 74, 72
13, 32399, Note_on_c, 15, 77, 0
13, 32399, Note_on_c, 15, 79, 0
13, 32399, Note_on_c, 15, 71, 0
13, 32399, Note_on_c, 15, 59, 0
13, 32399, Note_on_c, 15, 74, 0
13, 32400, Note_on_c, 15, 60, 72
13, 32400, Note_on_c, 15, 48, 72
13, 32400, Note_on_c, 15, 67, 72
13, 32400, Note_on_c, 15, 64, 72
13, 32639, Note_on_c, 15, 60, 0
13, 32639, Note_on_c, 15, 48, 0
13, 32639, Note_on_c, 15, 67, 0
13, 32639, Note_on_c, 15, 64, 0
13, 32640, Note_on_c, 15, 72, 72
13, 32640, Note_on_c, 15, 65, 72
13, 32640, Note_on_c, 15, 53, 72
13, 32640, Note_on_c, 15, 69, 72
13, 32759, Note_on_c, 15, 72, 0
13, 32759, Note_on_c, 15, 65, 0
13, 32759, Note_on_c, 15, 53, 0
13, 32759, Note_on_c, 15, 69, 0
13, 32760, Note_on_c, 15, 62, 72
13, 32760, Note_on_c, 15, 50, 72
13, 32760, Note_on_c, 15, 69, 72
13, 32760, Note_on_c, 15, 65, 72
13, 32879, Note_on_c, 15, 62, 0
13, 32879, Note_on_c, 15, 50, 0
13, 32879, Note_on_c, 15, 69, 0
13, 32879, Note_on_c, 15, 65, 0
13, 32880, Note_on_c, 15, 71, 72
13, 32880, Note_on_c, 15, 59, 72
13, 32880, Note_on_c, 15, 74, 72
13, 32880, Note_on_c, 15, 81, 72
13, 32880, Note_on_c, 15, 77, 72
13, 33119, Note_on_c, 15, 71, 0
13, 33119, Note_on_c, 15, 59, 0
13, 33119, Note_on_c, 15, 74, 0
13, 33119, Note_on_c, 15, 81, 0
13, 33119, Note_on_c, 15, 77, 0
13, 33120, Note_on_c, 15, 64, 72
13, 33120, Note_on_c, 15, 67, 72
13, 33120, Note_on_c, 15, 72, 72
13, 33120, Note_on_c, 15, 52, 72
13, 33359, Note_on_c, 15, 64, 0
13, 33359, Note_on_c, 15, 67, 0
13, 33359, Note_on_c, 15, 72, 0
13, 33359, Note_on_c, 15, 52, 0
13, 33360, Note_on_c, 15, 72, 72
13, 33360, Note_on_c, 15, 65, 72
13, 33360, Note_on_c, 15, 53, 72
13, 33360, Note_on_c, 15, 76, 72
13, 33360, Note_on_c, 15, 69, 72
13, 33599, Note_on_c, 15, 72, 0
13, 33599, Note_on_c, 15, 65, 0
13, 33599, Note_on_c, 15, 53, 0
13, 33599, Note_on_c, 15, 76, 0
13, 33599, Note_on_c, 15, 69, 0
13, 33600, Note_on_c, 15, 55, 72
13, 33600, Note_on_c, 15, 67, 72
13, 33600, Note_on_c, 15, 71, 72
13, 33600, Note_on_c, 15, 74, 72
13, 33839, Note_on_c, 15, 55, 0
13, 33839, Note_on_c, 15, 67, 0
13, 33839, Note_on_c, 15, 71, 0
13, 33839, Note_on_c, 15, 74, 0
13, 33840, Note_on_c, 15, 60, 72
13, 33840, Note_on_c, 15, 48, 72
13, 33840, Note_on_c, 15, 67, 72
13, 33840, Note_on_c, 15, 64, 72
13, 34559, Note_on_c, 15, 60, 0
13, 34559, Note_on_c, 15, 48, 0
13, 34559, Note_on_c, 15, 67, 0
13, 34559, Note_on_c, 15, 64, 0
13, 34800, Note_on_c, 15, 67, 72
13, 34800, Note_on_c, 15, 60, 72
13, 34800, Note_on_c, 15, 64, 72
13, 34800, Note_on_c, 15, 48, 72
13, 35279, Note_on_c, 15, 67, 0
13, 35279, Note_on_c, 15, 60, 0
13, 35279, Note_on_c, 15, 64, 0
13, 35279, Note_on_c, 15, 48, 0
13, 35520, Note_on_c, 15, 70, 72
13, 35520, Note_on_c, 15, 67, 72
13, 35520, Note_on_c, 15, 60, 72
13, 35520, Note_on_c, 15, 48, 72
13, 35520, Note_on_c, 15, 64, 72
13, 35759, Note_on_c, 15, 70, 0
13, 35759, Note_on_c, 15, 67, 0
13, 35759, Note_on_c, 15, 60, 0
13, 35759, Note_on_c, 15, 48, 0
13, 35759, Note_on_c, 15, 64, 0
13, 35760, Note_on_c, 15, 53, 72
13, 35760, Note_on_c, 15, 69, 72
13, 35760, Note_on_c, 15, 72, 72
13, 35760, Note_on_c, 15, 65, 72
13, 35999, Note_on_c, 15, 53, 0
13, 35999, Note_on_c, 15, 69, 0
13, 35999, Note_on_c, 15, 72, 0
13, 35999, Note_on_c, 15, 65, 0
13, 36000, Note_on_c, 15, 62, 72
13, 36000, Note_on_c, 15, 69, 72
13, 36000, Note_on_c, 15, 65, 72
13, 36000, Note_on_c, 15, 50, 72
13, 36239, Note_on_c, 15, 62, 0
13, 36239, Note_on_c, 15, 69, 0
13, 36239, Note_on_c, 15, 65, 0
13, 36239, Note_on_c, 15, 50, 0
13, 36240, Note_on_c, 15, 71, 72
13, 36240, Note_on_c, 15, 74, 72
13, 36240, Note_on_c, 15, 67, 72
13, 36240, Note_on_c, 15, 55, 72
13, 36479, Note_on_c, 15, 71, 0
13, 36479, Note_on_c, 15, 74, 0
13, 36479, Note_on_c, 15, 67, 0
13, 36479, Note_on_c, 15, 55, 0
13, 36480, Note_on_c, 15, 67, 72
13, 36480, Note_on_c, 15, 72, 72
13, 36480, Note_on_c, 15, 64, 72
13, 36480, Note_on_c, 15, 52, 72
13, 36719, Note_on_c, 15, 67, 0
13, 36719, Note_on_c, 15, 72, 0
13, 36719, Note_on_c, 15, 64, 0
13, 36719, Note_on_c, 15, 52, 0
13, 36720, Note_on_c, 15, 77, 72
13, 36720, Note_on_c, 15, 57, 72
13, 36720, Note_on_c, 15, 69, 72
13, 36720, Note_on_c, 15, 72, 72
13, 36959, Note_on_c, 15, 77, 0
13, 36959, Note_on_c, 15, 57, 0
13, 36959, Note_on_c, 15, 69, 0
13, 36959, Note_on_c, 15, 72, 0
13, 36960, Note_on_c, 15, 69, 72
13, 36960, Note_on_c, 15, 53, 72
13, 36960, Note_on_c, 15, 72, 72
13, 36960, Note_on_c, 15, 65, 72
13, 36960, Note_on_c, 15, 74, 72
13, 37199, Note_on_c, 15, 69, 0
13, 37199, Note_on_c, 15, 53, 0
13, 37199, Note_on_c, 15, 72, 0
13, 37199, Note_on_c, 15, 65, 0
13, 37199, Note_on_c, 15, 74, 0
13, 37200, Note_on_c, 15, 55, 72
13, 37200, Note_on_c, 15, 67, 72
13, 37200, Note_on_c, 15, 74, 72
13, 37200, Note_on_c, 15, 71, 72
13, 37439, Note_on_c, 15, 55, 0
13, 37439, Note_on_c, 15, 67, 0
13, 37439, Note_on_c, 15, 74, 0
13, 37439, Note_on_c, 15, 71, 0
13, 37440, Note_on_c, 15, 64, 72
13, 37440, Note_on_c, 15, 67, 72
13, 37440, Note_on_c, 15, 48, 72
13, 37440, Note_on_c, 15, 60, 72
13, 37679, Note_on_c, 15, 64, 0
13, 37679, Note_on_c, 15, 67, 0
13, 37679, Note_on_c, 15, 48, 0
13, 37679, Note_on_c, 15, 60, 0
13, 37680, Note_on_c, 15, 79, 72
13, 37680, Note_on_c, 15, 76, 72
13, 37680, Note_on_c, 15, 72, 72
13, 37680, Note_on_c, 15, 60, 72
13, 38159, Note_on_c, 15, 79, 0
13, 38159, Note_on_c, 15, 76, 0
13, 38159, Note_on_c, 15, 72, 0
13, 38159, Note_on_c, 15, 60, 0
13, 38160, Note_on_c, 15, 59, 72
13, 38160, Note_on_c, 15, 71, 72
13, 38160, Note_on_c, 15, 79, 72
13, 38160, Note_on_c, 15, 74, 72
13, 38399, Note_on_c, 15, 59, 0
13, 38399, Note_on_c, 15, 71, 0
13, 38399, Note_on_c, 15, 79, 0
13, 38399, Note_on_c, 15, 74, 0
13, 38400, Note_on_c, 15, 72, 72
13, 38400, Note_on_c, 15, 78, 72
13, 38400, Note_on_c, 15, 57, 72
13, 38400, Note_on_c, 15, 69, 72
13, 38639, Note_on_c, 15, 72, 0
13, 38639, Note_on_c, 15, 78, 0
13, 38639, Note_on_c, 15, 57, 0
13, 38639, Note_on_c, 15, 69, 0
13, 38640, Note_on_c, 15, 74, 72
13, 38640, Note_on_c, 15, 55, 72
13, 38640, Note_on_c, 15, 71, 72
13, 38640, Note_on_c, 15, 67, 72
13, 38879, Note_on_c, 15, 74, 0
13, 38879, Note_on_c, 15, 55, 0
13, 38879, Note_on_c, 15, 71, 0
13, 38879, Note_on_c, 15, 67, 0
13, 38880, Note_on_c, 15, 69, 72
13, 38880, Note_on_c, 15, 76, 72
13, 38880, Note_on_c, 15, 66, 72
13, 38880, Note_on_c, 15, 54, 72
13, 38880, Note_on_c, 15, 72, 72
13, 39119, Note_on_c, 15, 69, 0
13, 39119, Note_on_c, 15, 76, 0
13, 39119, Note_on_c, 15, 66, 0
13, 39119, Note_on_c, 15, 54, 0
13, 39119, Note_on_c, 15, 72, 0
13, 39120, Note_on_c, 15, 55, 72
13, 39120, Note_on_c, 15, 74, 72
13, 39120, Note_on_c, 15, 67, 72
13, 39120, Note_on_c, 15, 71, 72
13, 39359, Note_on_c, 15, 55, 0
13, 39359, Note_on_c, 15, 74, 0
13, 39359, Note_on_c, 15, 67, 0
13, 39359, Note_on_c, 15, 71, 0
13, 39360, Note_on_c, 15, 62, 72
13, 39360, Note_on_c, 15, 47, 72
13, 39360, Note_on_c, 15, 67, 72
13, 39360, Note_on_c, 15, 59, 72
13, 39599, Note_on_c, 15, 62, 0
13, 39599, Note_on_c, 15, 47, 0
13, 39599, Note_on_c, 15, 67, 0
13, 39599, Note_on_c, 15, 59, 0
13, 39600, Note_on_c, 15, 66, 72
13, 39600, Note_on_c, 15, 69, 72
13, 39600, Note_on_c, 15, 50, 72
13, 39600, Note_on_c, 15, 62, 72
13, 39839, Note_on_c, 15, 66, 0
13, 39839, Note_on_c, 15, 69, 0
13, 39839, Note_on_c, 15, 50, 0
13, 39839, Note_on_c, 15, 62, 0
13, 39840, Note_on_c, 15, 43, 72
13, 39840, Note_on_c, 15, 62, 72
13, 39840, Note_on_c, 15, 55, 72
13, 39840, Note_on_c, 15, 59, 72
13, 40559, Note_on_c, 15, 43, 0
13, 40559, Note_on_c, 15, 62, 0
13, 40559, Note_on_c, 15, 55, 0
13, 40559, Note_on_c, 15, 59, 0
13, 40560, Note_on_c, 15, 67, 72
13, 40560, Note_on_c, 15, 60, 72
13, 40560, Note_on_c, 15, 64, 72
13, 40560, Note_on_c, 15, 48, 72
13, 41039, Note_on_c, 15, 67, 0
13, 41039, Note_on_c, 15, 60, 0
13, 41039, Note_on_c, 15, 64, 0
13, 41039, Note_on_c, 15, 48, 0
13, 41280, Note_on_c, 15, 67, 72
13, 41280, Note_on_c, 15, 64, 72
13, 41280, Note_on_c, 15, 60, 72
13, 41280, Note_on_c, 15, 70, 72
13, 41280, Note_on_c, 15, 48, 72
13, 41519, Note_on_c, 15, 67, 0
13, 41519, Note_on_c, 15, 64, 0
13, 41519, Note_on_c, 15, 60, 0
13, 41519, Note_on_c, 15, 70, 0
13, 41519, Note_on_c, 15, 48, 0
13, 41520, Note_on_c, 15, 53, 72
13, 41520, Note_on_c, 15, 69, 72
13, 41520, Note_on_c, 15, 72, 72
13, 41520, Note_on_c, 15, 65, 72
13, 41759, Note_on_c, 15, 53, 0
13, 41759, Note_on_c, 15, 69, 0
13, 41759, Note_on_c, 15, 72, 0
13, 41759, Note_on_c, 15, 65, 0
13, 41760, Note_on_c, 15, 50, 72
13, 41760, Note_on_c, 15, 62, 72
13, 41760, Note_on_c, 15, 65, 72
13, 41760, Note_on_c, 15, 69, 72
13, 41999, Note_on_c, 15, 50, 0
13, 41999, Note_on_c, 15, 62, 0
13, 41999, Note_on_c, 15, 65, 0
13, 41999, Note_on_c, 15, 69, 0
13, 42000, Note_on_c, 15, 74, 72
13, 42000, Note_on_c, 15, 71, 72
13, 42000, Note_on_c, 15, 67, 72
13, 42000, Note_on_c, 15, 55, 72
13, 42239, Note_on_c, 15, 74, 0
13, 42239, Note_on_c, 15, 71, 0
13, 42239, Note_on_c, 15, 67, 0
13, 42239, Note_on_c, 15, 55, 0
13, 42240, Note_on_c, 15, 64, 72
13, 42240, Note_on_c, 15, 67, 72
13, 42240, Note_on_c, 15, 72, 72
13, 42240, Note_on_c, 15, 52, 72
13, 42479, Note_on_c, 15, 64, 0
13, 42479, Note_on_c, 15, 67, 0
13, 42479, Note_on_c, 15, 72, 0
13, 42479, Note_on_c, 15, 52, 0
13, 42480, Note_on_c, 15, 77, 72
13, 42480, Note_on_c, 15, 57, 72
13, 42480, Note_on_c, 15, 69, 72
13, 42480, Note_on_c, 15, 72, 72
13, 42719, Note_on_c, 15, 77, 0
13, 42719, Note_on_c, 15, 57, 0
13, 42719, Note_on_c, 15, 69, 0
13, 42719, Note_on_c, 15, 72, 0
13, 42720, Note_on_c, 15, 74, 72
13, 42720, Note_on_c, 15, 69, 72
13, 42720, Note_on_c, 15, 65, 72
13, 42720, Note_on_c, 15, 72, 72
13, 42720, Note_on_c, 15, 53, 72
13, 42959, Note_on_c, 15, 74, 0
13, 42959, Note_on_c, 15, 69, 0
13, 42959, Note_on_c, 15, 65, 0
13, 42959, Note_on_c, 15, 72, 0
13, 42959, Note_on_c, 15, 53, 0
13, 42960, Note_on_c, 15, 74, 72
13, 42960, Note_on_c, 15, 67, 72
13, 42960, Note_on_c, 15, 71, 72
13, 42960, Note_on_c, 15, 55, 72
13, 43199, Note_on_c, 15, 74, 0
13, 43199, Note_on_c, 15, 67, 0
13, 43199, Note_on_c, 15, 71, 0
13, 43199, Note_on_c, 15, 55, 0
13, 43200, Note_on_c, 15, 67, 72
13, 43200, Note_on_c, 15, 48, 72
13, 43200, Note_on_c, 15, 60, 72
13, 43200, Note_on_c, 15, 64, 72
13, 43439, Note_on_c, 15, 67, 0
13, 43439, Note_on_c, 15, 48, 0
13, 43439, Note_on_c, 15, 60, 0
13, 43439, Note_on_c, 15, 64, 0
13, 43440, Note_on_c, 15, 72, 72
13, 43440, Note_on_c, 15, 60, 72
13, 43440, Note_on_c, 15, 79, 72
13, 43440, Note_on_c, 15, 76, 72
13, 43919, Note_on_c, 15, 72, 0
13, 43919, Note_on_c, 15, 60, 0
13, 43919, Note_on_c, 15, 79, 0
13, 43919, Note_on_c, 15, 76, 0
13, 43920, Note_on_c, 15, 79, 72
13, 43920, Note_on_c, 15, 74, 72
13, 43920, Note_on_c, 15, 59, 72
13, 43920, Note_on_c, 15, 71, 72
13, 44159, Note_on_c, 15, 79, 0
13, 44159, Note_on_c, 15, 74, 0
13, 44159, Note_on_c, 15, 59, 0
13, 44159, Note_on_c, 15, 71, 0
13, 44160, Note_on_c, 15, 69, 72
13, 44160, Note_on_c, 15, 72, 72
13, 44160, Note_on_c, 15, 78, 72
13, 44160, Note_on_c, 15, 57, 72
13, 44399, Note_on_c, 15, 69, 0
13, 44399, Note_on_c, 15, 72, 0
13, 44399, Note_on_c, 15, 78, 0
13, 44399, Note_on_c, 15, 57, 0
13, 44400, Note_on_c, 15, 67, 72
13, 44400, Note_on_c, 15, 74, 72
13, 44400, Note_on_c, 15, 55, 72
13, 44400, Note_on_c, 15, 71, 72
13, 44639, Note_on_c, 15, 67, 0
13, 44639, Note_on_c, 15, 74, 0
13, 44639, Note_on_c, 15, 55, 0
13, 44639, Note_on_c, 15, 71, 0
13, 44640, Note_on_c, 15, 66, 72
13, 44640, Note_on_c, 15, 76, 72
13, 44640, Note_on_c, 15, 72, 72
13, 44640, Note_on_c, 15, 54, 72
13, 44640, Note_on_c, 15, 69, 72
13, 44879, Note_on_c, 15, 66, 0
13, 44879, Note_on_c, 15, 76, 0
13, 44879, Note_on_c, 15, 72, 0
13, 44879, Note_on_c, 15, 54, 0
13, 44879, Note_on_c, 15, 69, 0
13, 44880, Note_on_c, 15, 55, 72
13, 44880, Note_on_c, 15, 74, 72
13, 44880, Note_on_c, 15, 71, 72
13, 44880, Note_on_c, 15, 67, 72
13, 45119, Note_on_c, 15, 55, 0
13, 45119, Note_on_c, 15, 74, 0
13, 45119, Note_on_c, 15, 71, 0
13, 45119, Note_on_c, 15, 67, 0
13, 45120, Note_on_c, 15, 67, 72
13, 45120, Note_on_c, 15, 47, 72
13, 45120, Note_on_c, 15, 62, 72
13, 45120, Note_on_c, 15, 59, 72
13, 45359, Note_on_c, 15, 67, 0
13, 45359, Note_on_c, 15, 47, 0
13, 45359, Note_on_c, 15, 62, 0
13, 45359, Note_on_c, 15, 59, 0
13, 45360, Note_on_c, 15, 62, 72
13, 45360, Note_on_c, 15, 50, 72
13, 45360, Note_on_c, 15, 69, 72
13, 45360, Note_on_c, 15, 66, 72
13, 45599, Note_on_c, 15, 62, 0
13, 45599, Note_on_c, 15, 50, 0
13, 45599, Note_on_c, 15, 69, 0
13, 45599, Note_on_c, 15, 66, 0
13, 45600, Note_on_c, 15, 62, 72
13, 45600, Note_on_c, 15, 43, 72
13, 45600, Note_on_c, 15, 59, 72
13, 45600, Note_on_c, 15, 55, 72
13, 46319, Note_on_c, 15, 62, 0
13, 46319, Note_on_c, 15, 43, 0
13, 46319, Note_on_c, 15, 59, 0
13, 46319, Note_on_c, 15, 55, 0
13, 46320, Note_on_c, 15, 43, 72
13, 46320, Note_on_c, 15, 62, 72
13, 46320, Note_on_c, 15, 59, 72
13, 46320, Note_on_c, 15, 55, 72
13, 46799, Note_on_c, 15, 43, 0
13, 46799, Note_on_c, 15, 62, 0
13, 46799, Note_on_c, 15, 59, 0
13, 46799, Note_on_c, 15, 55, 0
13, 47040, Note_on_c, 15, 44, 72
13, 47040, Note_on_c, 15, 64, 72
13, 47040, Note_on_c, 15, 59, 72
13, 47040, Note_on_c, 15, 56, 72
13, 47279, Note_on_c, 15, 44, 0
13, 47279, Note_on_c, 15, 64, 0
13, 47279, Note_on_c, 15, 59, 0
13, 47279, Note_on_c, 15, 56, 0
13, 47280, Note_on_c, 15, 68, 72
13, 47280, Note_on_c, 15, 47, 72
13, 47280, Note_on_c, 15, 62, 72
13, 47280, Note_on_c, 15, 59, 72
13, 47519, Note_on_c, 15, 68, 0
13, 47519, Note_on_c, 15, 47, 0
13, 47519, Note_on_c, 15, 62, 0
13, 47519, Note_on_c, 15, 59, 0
13, 47520, Note_on_c, 15, 57, 72
13, 47520, Note_on_c, 15, 65, 72
13, 47520, Note_on_c, 15, 60, 72
13, 47520, Note_on_c, 15, 45, 72
13, 47759, Note_on_c, 15, 57, 0
13, 47759, Note_on_c, 15, 65, 0
13, 47759, Note_on_c, 15, 60, 0
13, 47759, Note_on_c, 15, 45, 0
13, 47760, Note_on_c, 15, 65, 72
13, 47760, Note_on_c, 15, 71, 72
13, 47760, Note_on_c, 15, 62, 72
13, 47760, Note_on_c, 15, 68, 72
13, 47760, Note_on_c, 15, 50, 72
13, 47999, Note_on_c, 15, 65, 0
13, 47999, Note_on_c, 15, 71, 0
13, 47999, Note_on_c, 15, 62, 0
13, 47999, Note_on_c, 15, 68, 0
13, 47999, Note_on_c, 15, 50, 0
13, 48000, Note_on_c, 15, 64, 72
13, 48000, Note_on_c, 15, 69, 72
13, 48000, Note_on_c, 15, 60, 72
13, 48000, Note_on_c, 15, 48, 72
13, 48239, Note_on_c, 15, 64, 0
13, 48239, Note_on_c, 15, 69, 0
13, 48239, Note_on_c, 15, 60, 0
13, 48239, Note_on_c, 15, 48, 0
13, 48240, Note_on_c, 15, 53, 72
13, 48240, Note_on_c, 15, 65, 72
13, 48240, Note_on_c, 15, 69, 72
13, 48240, Note_on_c, 15, 74, 72
13, 48479, Note_on_c, 15, 53, 0
13, 48479, Note_on_c, 15, 65, 0
13, 48479, Note_on_c, 15, 69, 0
13, 48479, Note_on_c, 15, 74, 0
13, 48480, Note_on_c, 15, 62, 72
13, 48480, Note_on_c, 15, 71, 72
13, 48480, Note_on_c, 15, 65, 72
13, 48480, Note_on_c, 15, 50, 72
13, 48480, Note_on_c, 15, 69, 72
13, 48719, Note_on_c, 15, 62, 0
13, 48719, Note_on_c, 15, 71, 0
13, 48719, Note_on_c, 15, 65, 0
13, 48719, Note_on_c, 15, 50, 0
13, 48719, Note_on_c, 15, 69, 0
13, 48720, Note_on_c, 15, 64, 72
13, 48720, Note_on_c, 15, 71, 72
13, 48720, Note_on_c, 15, 52, 72
13, 48720, Note_on_c, 15, 68, 72
13, 48959, Note_on_c, 15, 64, 0
13, 48959, Note_on_c, 15, 71, 0
13, 48959, Note_on_c, 15, 52, 0
13, 48959, Note_on_c, 15, 68, 0
13, 48960, Note_on_c, 15, 64, 72
13, 48960, Note_on_c, 15, 60, 72
13, 48960, Note_on_c, 15, 45, 72
13, 48960, Note_on_c, 15, 57, 72
13, 49199, Note_on_c, 15, 64, 0
13, 49199, Note_on_c, 15, 60, 0
13, 49199, Note_on_c, 15, 45, 0
13, 49199, Note_on_c, 15, 57, 0
13, 49200, Note_on_c, 15, 72, 72
13, 49200, Note_on_c, 15, 57, 72
13, 49200, Note_on_c, 15, 76, 72
13, 49200, Note_on_c, 15, 69, 72
13, 49439, Note_on_c, 15, 72, 0
13, 49439, Note_on_c, 15, 76, 0
13, 49439, Note_on_c, 15, 69, 0
13, 49440, Note_on_c, 15, 72, 72
13, 49440, Note_on_c, 15, 77, 72
13, 49440, Note_on_c, 15, 69, 72
13, 49679, Note_on_c, 15, 57, 0
13, 49679, Note_on_c, 15, 72, 0
13, 49679, Note_on_c, 15, 77, 0
13, 49679, Note_on_c, 15, 69, 0
13, 49680, Note_on_c, 15, 70, 72
13, 49680, Note_on_c, 15, 76, 72
13, 49680, Note_on_c, 15, 67, 72
13, 49680, Note_on_c, 15, 55, 72
13, 49919, Note_on_c, 15, 70, 0
13, 49919, Note_on_c, 15, 76, 0
13, 49919, Note_on_c, 15, 67, 0
13, 49919, Note_on_c, 15, 55, 0
13, 49920, Note_on_c, 15, 53, 72
13, 49920, Note_on_c, 15, 65, 72
13, 49920, Note_on_c, 15, 72, 72
13, 49920, Note_on_c, 15, 69, 72
13, 50159, Note_on_c, 15, 65, 0
13, 50159, Note_on_c, 15, 72, 0
13, 50159, Note_on_c, 15, 69, 0
13, 50160, Note_on_c, 15, 74, 72
13, 50160, Note_on_c, 15, 67, 72
13, 50160, Note_on_c, 15, 70, 72
13, 50160, Note_on_c, 15, 65, 72
13, 50399, Note_on_c, 15, 53, 0
13, 50399, Note_on_c, 15, 74, 0
13, 50399, Note_on_c, 15, 67, 0
13, 50399, Note_on_c, 15, 70, 0
13, 50399, Note_on_c, 15, 65, 0
13, 50400, Note_on_c, 15, 52, 72
13, 50400, Note_on_c, 15, 70, 72
13, 50400, Note_on_c, 15, 64, 72
13, 50400, Note_on_c, 15, 72, 72
13, 50400, Note_on_c, 15, 67, 72
13, 50639, Note_on_c, 15, 52, 0
13, 50639, Note_on_c, 15, 70, 0
13, 50639, Note_on_c, 15, 64, 0
13, 50639, Note_on_c, 15, 72, 0
13, 50639, Note_on_c, 15, 67, 0
13, 50640, Note_on_c, 15, 65, 72
13, 50640, Note_on_c, 15, 72, 72
13, 50640, Note_on_c, 15, 69, 72
13, 50640, Note_on_c, 15, 53, 72
13, 50879, Note_on_c, 15, 65, 0
13, 50879, Note_on_c, 15, 72, 0
13, 50879, Note_on_c, 15, 69, 0
13, 50879, Note_on_c, 15, 53, 0
13, 50880, Note_on_c, 15, 72, 72
13, 50880, Note_on_c, 15, 52, 72
13, 50880, Note_on_c, 15, 64, 72
13, 50880, Note_on_c, 15, 67, 72
13, 51119, Note_on_c, 15, 72, 0
13, 51119, Note_on_c, 15, 52, 0
13, 51119, Note_on_c, 15, 64, 0
13, 51119, Note_on_c, 15, 67, 0
13, 51120, Note_on_c, 15, 72, 72
13, 51120, Note_on_c, 15, 62, 72
13, 51120, Note_on_c, 15, 50, 72
13, 51120, Note_on_c, 15, 69, 72
13, 51120, Note_on_c, 15, 65, 72
13, 51359, Note_on_c, 15, 72, 0
13, 51359, Note_on_c, 15, 62, 0
13, 51359, Note_on_c, 15, 50, 0
13, 51359, Note_on_c, 15, 69, 0
13, 51359, Note_on_c, 15, 65, 0
13, 51360, Note_on_c, 15, 55, 72
13, 51360, Note_on_c, 15, 62, 72
13, 51360, Note_on_c, 15, 59, 72
13, 51360, Note_on_c, 15, 43, 72
13, 51599, Note_on_c, 15, 55, 0
13, 51599, Note_on_c, 15, 62, 0
13, 51599, Note_on_c, 15, 59, 0
13, 51599, Note_on_c, 15, 43, 0
13, 51600, Note_on_c, 15, 60, 72
13, 51600, Note_on_c, 15, 62, 72
13, 51600, Note_on_c, 15, 48, 72
13, 51600, Note_on_c, 15, 67, 72
13, 51839, Note_on_c, 15, 60, 0
13, 51839, Note_on_c, 15, 62, 0
13, 51839, Note_on_c, 15, 48, 0
13, 51839, Note_on_c, 15, 67, 0
13, 51840, Note_on_c, 15, 67, 72
13, 51840, Note_on_c, 15, 62, 72
13, 51840, Note_on_c, 15, 59, 72
13, 51840, Note_on_c, 15, 47, 72
13, 52079, Note_on_c, 15, 67, 0
13, 52079, Note_on_c, 15, 62, 0
13, 52079, Note_on_c, 15, 59, 0
13, 52079, Note_on_c, 15, 47, 0
13, 52080, Note_on_c, 15, 64, 72
13, 52080, Note_on_c, 15, 60, 72
13, 52080, Note_on_c, 15, 67, 72
13, 52080, Note_on_c, 15, 48, 72
13, 52319, Note_on_c, 15, 64, 0
13, 52319, Note_on_c, 15, 60, 0
13, 52319, Note_on_c, 15, 67, 0
13, 52319, Note_on_c, 15, 48, 0
13, 52320, Note_on_c, 15, 69, 72
13, 52320, Note_on_c, 15, 72, 72
13, 52320, Note_on_c, 15, 62, 72
13, 52320, Note_on_c, 15, 65, 72
13, 52320, Note_on_c, 15, 50, 72
13, 52559, Note_on_c, 15, 69, 0
13, 52559, Note_on_c, 15, 72, 0
13, 52559, Note_on_c, 15, 62, 0
13, 52559, Note_on_c, 15, 65, 0
13, 52559, Note_on_c, 15, 50, 0
13, 52560, Note_on_c, 15, 67, 72
13, 52560, Note_on_c, 15, 52, 72
13, 52560, Note_on_c, 15, 64, 72
13, 52560, Note_on_c, 15, 70, 72
13, 52560, Note_on_c, 15, 72, 72
13, 52799, Note_on_c, 15, 67, 0
13, 52799, Note_on_c, 15, 52, 0
13, 52799, Note_on_c, 15, 64, 0
13, 52799, Note_on_c, 15, 70, 0
13, 52799, Note_on_c, 15, 72, 0
13, 52800, Note_on_c, 15, 58, 72
13, 52800, Note_on_c, 15, 53, 72
13, 52800, Note_on_c, 15, 64, 72
13, 52800, Note_on_c, 15, 41, 72
13, 53039, Note_on_c, 15, 58, 0
13, 53039, Note_on_c, 15, 53, 0
13, 53039, Note_on_c, 15, 64, 0
13, 53040, Note_on_c, 15, 65, 72
13, 53040, Note_on_c, 15, 57, 72
13, 53040, Note_on_c, 15, 53, 72
13, 53279, Note_on_c, 15, 41, 0
13, 53279, Note_on_c, 15, 65, 0
13, 53279, Note_on_c, 15, 57, 0
13, 53279, Note_on_c, 15, 53, 0
13, 53520, Note_on_c, 15, 69, 72
13, 53520, Note_on_c, 15, 72, 72
13, 53520, Note_on_c, 15, 57, 72
13, 53520, Note_on_c, 15, 74, 72
13, 53520, Note_on_c, 15, 78, 72
13, 53759, Note_on_c, 15, 69, 0
13, 53759, Note_on_c, 15, 72, 0
13, 53759, Note_on_c, 15, 57, 0
13, 53759, Note_on_c, 15, 74, 0
13, 53759, Note_on_c, 15, 78, 0
13, 53760, Note_on_c, 15, 54, 72
13, 53760, Note_on_c, 15, 69, 72
13, 53760, Note_on_c, 15, 72, 72
13, 53760, Note_on_c, 15, 66, 72
13, 53760, Note_on_c, 15, 74, 72
13, 53999, Note_on_c, 15, 54, 0
13, 53999, Note_on_c, 15, 69, 0
13, 53999, Note_on_c, 15, 72, 0
13, 53999, Note_on_c, 15, 66, 0
13, 53999, Note_on_c, 15, 74, 0
13, 54000, Note_on_c, 15, 62, 72
13, 54000, Note_on_c, 15, 50, 72
13, 54000, Note_on_c, 15, 67, 72
13, 54000, Note_on_c, 15, 71, 72
13, 54239, Note_on_c, 15, 62, 0
13, 54239, Note_on_c, 15, 50, 0
13, 54239, Note_on_c, 15, 67, 0
13, 54239, Note_on_c, 15, 71, 0
13, 54240, Note_on_c, 15, 66, 72
13, 54240, Note_on_c, 15, 55, 72
13, 54240, Note_on_c, 15, 60, 72
13, 54240, Note_on_c, 15, 43, 72
13, 54479, Note_on_c, 15, 66, 0
13, 54479, Note_on_c, 15, 55, 0
13, 54479, Note_on_c, 15, 60, 0
13, 54480, Note_on_c, 15, 67, 72
13, 54480, Note_on_c, 15, 55, 72
13, 54480, Note_on_c, 15, 59, 72
13, 54719, Note_on_c, 15, 43, 0
13, 54719, Note_on_c, 15, 67, 0
13, 54719, Note_on_c, 15, 55, 0
13, 54719, Note_on_c, 15, 59, 0
13, 54960, Note_on_c, 15, 71, 72
13, 54960, Note_on_c, 15, 74, 72
13, 54960, Note_on_c, 15, 77, 72
13, 54960, Note_on_c, 15, 55, 72
13, 54960, Note_on_c, 15, 67, 72
13, 55199, Note_on_c, 15, 71, 0
13, 55199, Note_on_c, 15, 74, 0
13, 55199, Note_on_c, 15, 77, 0
13, 55199, Note_on_c, 15, 55, 0
13, 55199, Note_on_c, 15, 67, 0
13, 55200, Note_on_c, 15, 71, 72
13, 55200, Note_on_c, 15, 62, 72
13, 55200, Note_on_c, 15, 65, 72
13, 55200, Note_on_c, 15, 50, 72
13, 55439, Note_on_c, 15, 71, 0
13, 55439, Note_on_c, 15, 62, 0
13, 55439, Note_on_c, 15, 65, 0
13, 55439, Note_on_c, 15, 50, 0
13, 55440, Note_on_c, 15, 52, 72
13, 55440, Note_on_c, 15, 67, 72
13, 55440, Note_on_c, 15, 72, 72
13, 55440, Note_on_c, 15, 64, 72
13, 55679, Note_on_c, 15, 52, 0
13, 55679, Note_on_c, 15, 67, 0
13, 55679, Note_on_c, 15, 72, 0
13, 55679, Note_on_c, 15, 64, 0
13, 55680, Note_on_c, 15, 60, 72
13, 55680, Note_on_c, 15, 66, 72
13, 55680, Note_on_c, 15, 57, 72
13, 55680, Note_on_c, 15, 45, 72
13, 55919, Note_on_c, 15, 60, 0
13, 55919, Note_on_c, 15, 66, 0
13, 55919, Note_on_c, 15, 57, 0
13, 55919, Note_on_c, 15, 45, 0
13, 55920, Note_on_c, 15, 62, 72
13, 55920, Note_on_c, 15, 59, 72
13, 55920, Note_on_c, 15, 67, 72
13, 55920, Note_on_c, 15, 47, 72
13, 56159, Note_on_c, 15, 62, 0
13, 56159, Note_on_c, 15, 59, 0
13, 56159, Note_on_c, 15, 67, 0
13, 56159, Note_on_c, 15, 47, 0
13, 56400, Note_on_c, 15, 67, 72
13, 56400, Note_on_c, 15, 60, 72
13, 56400, Note_on_c, 15, 64, 72
13, 56400, Note_on_c, 15, 48, 72
13, 56639, Note_on_c, 15, 67, 0
13, 56639, Note_on_c, 15, 60, 0
13, 56639, Note_on_c, 15, 64, 0
13, 56639, Note_on_c, 15, 48, 0
13, 56640, Note_on_c, 15, 52, 72
13, 56640, Note_on_c, 15, 60, 72
13, 56640, Note_on_c, 15, 40, 72
13, 56640, Note_on_c, 15, 55, 72
13, 56879, Note_on_c, 15, 52, 0
13, 56879, Note_on_c, 15, 60, 0
13, 56879, Note_on_c, 15, 40, 0
13, 56879, Note_on_c, 15, 55, 0
13, 56880, Note_on_c, 15, 43, 72
13, 56880, Note_on_c, 15, 62, 72
13, 56880, Note_on_c, 15, 59, 72
13, 56880, Note_on_c, 15, 55, 72
13, 57119, Note_on_c, 15, 43, 0
13, 57119, Note_on_c, 15, 62, 0
13, 57119, Note_on_c, 15, 59, 0
13, 57119, Note_on_c, 15, 55, 0
13, 57120, Note_on_c, 15, 55, 72
13, 57120, Note_on_c, 15, 36, 72
13, 57120, Note_on_c, 15, 52, 72
13, 57120, Note_on_c, 15, 48, 72
13, 57839, Note_on_c, 15, 55, 0
13, 57839, Note_on_c, 15, 36, 0
13, 57839, Note_on_c, 15, 52, 0
13, 57839, Note_on_c, 15, 48, 0
13, 57840, Note_on_c, 15, 43, 72
13, 57840, Note_on_c, 15, 62, 72
13, 57840, Note_on_c, 15, 59, 72
13, 57840, Note_on_c, 15, 55, 72
13, 58319, Note_on_c, 15, 43, 0
13, 58319, Note_on_c, 15, 62, 0
13, 58319, Note_on_c, 15, 59, 0
13, 58319, Note_on_c, 15, 55, 0
13, 58560, Note_on_c, 15, 44, 72
13, 58560, Note_on_c, 15, 56, 72
13, 58560, Note_on_c, 15, 64, 72
13, 58560, Note_on_c, 15, 59, 72
13, 58799, Note_on_c, 15, 44, 0
13, 58799, Note_on_c, 15, 56, 0
13, 58799, Note_on_c, 15, 64, 0
13, 58799, Note_on_c, 15, 59, 0
13, 58800, Note_on_c, 15, 62, 72
13, 58800, Note_on_c, 15, 68, 72
13, 58800, Note_on_c, 15, 47, 72
13, 58800, Note_on_c, 15, 59, 72
13, 59039, Note_on_c, 15, 62, 0
13, 59039, Note_on_c, 15, 68, 0
13, 59039, Note_on_c, 15, 47, 0
13, 59039, Note_on_c, 15, 59, 0
13, 59040, Note_on_c, 15, 57, 72
13, 59040, Note_on_c, 15, 65, 72
13, 59040, Note_on_c, 15, 45, 72
13, 59040, Note_on_c, 15, 60, 72
13, 59279, Note_on_c, 15, 57, 0
13, 59279, Note_on_c, 15, 65, 0
13, 59279, Note_on_c, 15, 45, 0
13, 59279, Note_on_c, 15, 60, 0
13, 59280, Note_on_c, 15, 68, 72
13, 59280, Note_on_c, 15, 50, 72
13, 59280, Note_on_c, 15, 62, 72
13, 59280, Note_on_c, 15, 71, 72
13, 59280, Note_on_c, 15, 65, 72
13, 59519, Note_on_c, 15, 68, 0
13, 59519, Note_on_c, 15, 50, 0
13, 59519, Note_on_c, 15, 62, 0
13, 59519, Note_on_c, 15, 71, 0
13, 59519, Note_on_c, 15, 65, 0
13, 59520, Note_on_c, 15, 48, 72
13, 59520, Note_on_c, 15, 60, 72
13, 59520, Note_on_c, 15, 64, 72
13, 59520, Note_on_c, 15, 69, 72
13, 59759, Note_on_c, 15, 48, 0
13, 59759, Note_on_c, 15, 60, 0
13, 59759, Note_on_c, 15, 64, 0
13, 59759, Note_on_c, 15, 69, 0
13, 59760, Note_on_c, 15, 74, 72
13, 59760, Note_on_c, 15, 65, 72
13, 59760, Note_on_c, 15, 69, 72
13, 59760, Note_on_c, 15, 53, 72
13, 59999, Note_on_c, 15, 74, 0
13, 59999, Note_on_c, 15, 65, 0
13, 59999, Note_on_c, 15, 69, 0
13, 59999, Note_on_c, 15, 53, 0
13, 60000, Note_on_c, 15, 50, 72
13, 60000, Note_on_c, 15, 65, 72
13, 60000, Note_on_c, 15, 62, 72
13, 60000, Note_on_c, 15, 69, 72
13, 60000, Note_on_c, 15, 71, 72
13, 60239, Note_on_c, 15, 50, 0
13, 60239, Note_on_c, 15, 65, 0
13, 60239, Note_on_c, 15, 62, 0
13, 60239, Note_on_c, 15, 69, 0
13, 60239, Note_on_c, 15, 71, 0
13, 60240, Note_on_c, 15, 64, 72
13, 60240, Note_on_c, 15, 52, 72
13, 60240, Note_on_c, 15, 71, 72
13, 60240, Note_on_c, 15, 68, 72
13, 60479, Note_on_c, 15, 64, 0
13, 60479, Note_on_c, 15, 52, 0
13, 60479, Note_on_c, 15, 71, 0
13, 60479, Note_on_c, 15, 68, 0
13, 60480, Note_on_c, 15, 60, 72
13, 60480, Note_on_c, 15, 45, 72
13, 60480, Note_on_c, 15, 57, 72
13, 60480, Note_on_c, 15, 64, 72
13, 60719, Note_on_c, 15, 60, 0
13, 60719, Note_on_c, 15, 45, 0
13, 60719, Note_on_c, 15, 57, 0
13, 60719, Note_on_c, 15, 64, 0
13, 60720, Note_on_c, 15, 57, 72
13, 60720, Note_on_c, 15, 72, 72
13, 60720, Note_on_c, 15, 69, 72
13, 60720, Note_on_c, 15, 76, 72
13, 60959, Note_on_c, 15, 72, 0
13, 60959, Note_on_c, 15, 69, 0
13, 60959, Note_on_c, 15, 76, 0
13, 60960, Note_on_c, 15, 69, 72
13, 60960, Note_on_c, 15, 77, 72
13, 60960, Note_on_c, 15, 72, 72
13, 61199, Note_on_c, 15, 57, 0
13, 61199, Note_on_c, 15, 69, 0
13, 61199, Note_on_c, 15, 77, 0
13, 61199, Note_on_c, 15, 72, 0
13, 61200, Note_on_c, 15, 76, 72
13, 61200, Note_on_c, 15, 67, 72
13, 61200, Note_on_c, 15, 70, 72
13, 61200, Note_on_c, 15, 55, 72
13, 61439, Note_on_c, 15, 76, 0
13, 61439, Note_on_c, 15, 67, 0
13, 61439, Note_on_c, 15, 70, 0
13, 61439, Note_on_c, 15, 55, 0
13, 61440, Note_on_c, 15, 69, 72
13, 61440, Note_on_c, 15, 65, 72
13, 61440, Note_on_c, 15, 72, 72
13, 61440, Note_on_c, 15, 53, 72
13, 61679, Note_on_c, 15, 69, 0
13, 61679, Note_on_c, 15, 65, 0
13, 61679, Note_on_c, 15, 72, 0
13, 61680, Note_on_c, 15, 65, 72
13, 61680, Note_on_c, 15, 70, 72
13, 61680, Note_on_c, 15, 74, 72
13, 61680, Note_on_c, 15, 67, 72
13, 61919, Note_on_c, 15, 53, 0
13, 61919, Note_on_c, 15, 65, 0
13, 61919, Note_on_c, 15, 70, 0
13, 61919, Note_on_c, 15, 74, 0
13, 61919, Note_on_c, 15, 67, 0
13, 61920, Note_on_c, 15, 64, 72
13, 61920, Note_on_c, 15, 72, 72
13, 61920, Note_on_c, 15, 67, 72
13, 61920, Note_on_c, 15, 52, 72
13, 61920, Note_on_c, 15, 70, 72
13, 62159, Note_on_c, 15, 64, 0
13, 62159, Note_on_c, 15, 72, 0
13, 62159, Note_on_c, 15, 67, 0
13, 62159, Note_on_c, 15, 52, 0
13, 62159, Note_on_c, 15, 70, 0
13, 62160, Note_on_c, 15, 69, 72
13, 62160, Note_on_c, 15, 72, 72
13, 62160, Note_on_c, 15, 65, 72
13, 62160, Note_on_c, 15, 53, 72
13, 62399, Note_on_c, 15, 69, 0
13, 62399, Note_on_c, 15, 72, 0
13, 62399, Note_on_c, 15, 65, 0
13, 62399, Note_on_c, 15, 53, 0
13, 62400, Note_on_c, 15, 64, 72
13, 62400, Note_on_c, 15, 67, 72
13, 62400, Note_on_c, 15, 52, 72
13, 62400, Note_on_c, 15, 72, 72
13, 62639, Note_on_c, 15, 64, 0
13, 62639, Note_on_c, 15, 67, 0
13, 62639, Note_on_c, 15, 52, 0
13, 62639, Note_on_c, 15, 72, 0
13, 62640, Note_on_c, 15, 62, 72
13, 62640, Note_on_c, 15, 65, 72
13, 62640, Note_on_c, 15, 72, 72
13, 62640, Note_on_c, 15, 69, 72
13, 62640, Note_on_c, 15, 50, 72
13, 62879, Note_on_c, 15, 62, 0
13, 62879, Note_on_c, 15, 65, 0
13, 62879, Note_on_c, 15, 72, 0
13, 62879, Note_on_c, 15, 69, 0
13, 62879, Note_on_c, 15, 50, 0
13, 62880, Note_on_c, 15, 59, 72
13, 62880, Note_on_c, 15, 55, 72
13, 62880, Note_on_c, 15, 43, 72
13, 62880, Note_on_c, 15, 62, 72
13, 63119, Note_on_c, 15, 59, 0
13, 63119, Note_on_c, 15, 55, 0
13, 63119, Note_on_c, 15, 43, 0
13, 63119, Note_on_c, 15, 62, 0
13, 63120, Note_on_c, 15, 48, 72
13, 63120, Note_on_c, 15, 60, 72
13, 63120, Note_on_c, 15, 62, 72
13, 63120, Note_on_c, 15, 67, 72
13, 63359, Note_on_c, 15, 48, 0
13, 63359, Note_on_c, 15, 60, 0
13, 63359, Note_on_c, 15, 62, 0
13, 63359, Note_on_c, 15, 67, 0
13, 63360, Note_on_c, 15, 59, 72
13, 63360, Note_on_c, 15, 47, 72
13, 63360, Note_on_c, 15, 67, 72
13, 63360, Note_on_c, 15, 62, 72
13, 63599, Note_on_c, 15, 59, 0
13, 63599, Note_on_c, 15, 47, 0
13, 63599, Note_on_c, 15, 67, 0
13, 63599, Note_on_c, 15, 62, 0
13, 63600, Note_on_c, 15, 60, 72
13, 63600, Note_on_c, 15, 48, 72
13, 63600, Note_on_c, 15, 64, 72
13, 63600, Note_on_c, 15, 67, 72
13, 63839, Note_on_c, 15, 60, 0
13, 63839, Note_on_c, 15, 48, 0
13, 63839, Note_on_c, 15, 64, 0
13, 63839, Note_on_c, 15, 67, 0
13, 63840, Note_on_c, 15, 62, 72
13, 63840, Note_on_c, 15, 72, 72
13, 63840, Note_on_c, 15, 69, 72
13, 63840, Note_on_c, 15, 50, 72
13, 63840, Note_on_c, 15, 65, 72
13, 64079, Note_on_c, 15, 62, 0
13, 64079, Note_on_c, 15, 72, 0
13, 64079, Note_on_c, 15, 69, 0
13, 64079, Note_on_c, 15, 50, 0
13, 64079, Note_on_c, 15, 65, 0
13, 64080, Note_on_c, 15, 64, 72
13, 64080, Note_on_c, 15, 67, 72
13, 64080, Note_on_c, 15, 72, 72
13, 64080, Note_on_c, 15, 70, 72
13, 64080, Note_on_c, 15, 52, 72
13, 64319, Note_on_c, 15, 64, 0
13, 64319, Note_on_c, 15, 67, 0
13, 64319, Note_on_c, 15, 72, 0
13, 64319, Note_on_c, 15, 70, 0
13, 64319, Note_on_c, 15, 52, 0
13, 64320, Note_on_c, 15, 58, 72
13, 64320, Note_on_c, 15, 41, 72
13, 64320, Note_on_c, 15, 53, 72
13, 64320, Note_on_c, 15, 64, 72
13, 64559, Note_on_c, 15, 58, 0
13, 64559, Note_on_c, 15, 53, 0
13, 64559, Note_on_c, 15, 64, 0
13, 64560, Note_on_c, 15, 53, 72
13, 64560, Note_on_c, 15, 65, 72
13, 64560, Note_on_c, 15, 57, 72
13, 64799, Note_on_c, 15, 41, 0
13, 64799, Note_on_c, 15, 53, 0
13, 64799, Note_on_c, 15, 65, 0
13, 64799, Note_on_c, 15, 57, 0
13, 65040, Note_on_c, 15, 78, 72
13, 65040, Note_on_c, 15, 72, 72
13, 65040, Note_on_c, 15, 57, 72
13, 65040, Note_on_c, 15, 69, 72
13, 65040, Note_on_c, 15, 74, 72
13, 65279, Note_on_c, 15, 78, 0
13, 65279, Note_on_c, 15, 72, 0
13, 65279, Note_on_c, 15, 57, 0
13, 65279, Note_on_c, 15, 69, 0
13, 65279, Note_on_c, 15, 74, 0
13, 65280, Note_on_c, 15, 66, 72
13, 65280, Note_on_c, 15, 54, 72
13, 65280, Note_on_c, 15, 69, 72
13, 65280, Note_on_c, 15, 74, 72
13, 65280, Note_on_c, 15, 72, 72
13, 65519, Note_on_c, 15, 66, 0
13, 65519, Note_on_c, 15, 54, 0
13, 65519, Note_on_c, 15, 69, 0
13, 65519, Note_on_c, 15, 74, 0
13, 65519, Note_on_c, 15, 72, 0
13, 65520, Note_on_c, 15, 71, 72
13, 65520, Note_on_c, 15, 62, 72
13, 65520, Note_on_c, 15, 67, 72
13, 65520, Note_on_c, 15, 50, 72
13, 65759, Note_on_c, 15, 71, 0
13, 65759, Note_on_c, 15, 62, 0
13, 65759, Note_on_c, 15, 67, 0
13, 65759, Note_on_c, 15, 50, 0
13, 65760, Note_on_c, 15, 60, 72
13, 65760, Note_on_c, 15, 55, 72
13, 65760, Note_on_c, 15, 43, 72
13, 65760, Note_on_c, 15, 66, 72
13, 65999, Note_on_c, 15, 60, 0
13, 65999, Note_on_c, 15, 55, 0
13, 65999, Note_on_c, 15, 66, 0
13, 66000, Note_on_c, 15, 55, 72
13, 66000, Note_on_c, 15, 59, 72
13, 66000, Note_on_c, 15, 67, 72
13, 66239, Note_on_c, 15, 43, 0
13, 66239, Note_on_c, 15, 55, 0
13, 66239, Note_on_c, 15, 59, 0
13, 66239, Note_on_c, 15, 67, 0
13, 66480, Note_on_c, 15, 74, 72
13, 66480, Note_on_c, 15, 55, 72
13, 66480, Note_on_c, 15, 77, 72
13, 66480, Note_on_c, 15, 71, 72
13, 66480, Note_on_c, 15, 67, 72
13, 66719, Note_on_c, 15, 74, 0
13, 66719, Note_on_c, 15, 55, 0
13, 66719, Note_on_c, 15, 77, 0
13, 66719, Note_on_c, 15, 71, 0
13, 66719, Note_on_c, 15, 67, 0
13, 66720, Note_on_c, 15, 62, 72
13, 66720, Note_on_c, 15, 50, 72
13, 66720, Note_on_c, 15, 65, 72
13, 66720, Note_on_c, 15, 71, 72
13, 66959, Note_on_c, 15, 62, 0
13, 66959, Note_on_c, 15, 50, 0
13, 66959, Note_on_c, 15, 65, 0
13, 66959, Note_on_c, 15, 71, 0
13, 66960, Note_on_c, 15, 52, 72
13, 66960, Note_on_c, 15, 67, 72
13, 66960, Note_on_c, 15, 64, 72
13, 66960, Note_on_c, 15, 72, 72
13, 67199, Note_on_c, 15, 52, 0
13, 67199, Note_on_c, 15, 67, 0
13, 67199, Note_on_c, 15, 64, 0
13, 67199, Note_on_c, 15, 72, 0
13, 67200, Note_on_c, 15, 45, 72
13, 67200, Note_on_c, 15, 66, 72
13, 67200, Note_on_c, 15, 60, 72
13, 67200, Note_on_c, 15, 57, 72
13, 67439, Note_on_c, 15, 45, 0
13, 67439, Note_on_c, 15, 66, 0
13, 67439, Note_on_c, 15, 60, 0
13, 67439, Note_on_c, 15, 57, 0
13, 67440, Note_on_c, 15, 62, 72
13, 67440, Note_on_c, 15, 67, 72
13, 67440, Note_on_c, 15, 47, 72
13, 67440, Note_on_c, 15, 59, 72
13, 67679, Note_on_c, 15, 62, 0
13, 67679, Note_on_c, 15, 67, 0
13, 67679, Note_on_c, 15, 47, 0
13, 67679, Note_on_c, 15, 59, 0
13, 67920, Note_on_c, 15, 64, 72
13, 67920, Note_on_c, 15, 48, 72
13, 67920, Note_on_c, 15, 60, 72
13, 67920, Note_on_c, 15, 67, 72
13, 68159, Note_on_c, 15, 64, 0
13, 68159, Note_on_c, 15, 48, 0
13, 68159, Note_on_c, 15, 60, 0
13, 68159, Note_on_c, 15, 67, 0
13, 68160, Note_on_c, 15, 40, 72
13, 68160, Note_on_c, 15, 60, 72
13, 68160, Note_on_c, 15, 52, 72
13, 68160, Note_on_c, 15, 55, 72
13, 68399, Note_on_c, 15, 40, 0
13, 68399, Note_on_c, 15, 60, 0
13, 68399, Note_on_c, 15, 52, 0
13, 68399, Note_on_c, 15, 55, 0
13, 68400, Note_on_c, 15, 43, 72
13, 68400, Note_on_c, 15, 55, 72
13, 68400, Note_on_c, 15, 59, 72
13, 68400, Note_on_c, 15, 62, 72
13, 68639, Note_on_c, 15, 43, 0
13, 68639, Note_on_c, 15, 55, 0
13, 68639, Note_on_c, 15, 59, 0
13, 68639, Note_on_c, 15, 62, 0
13, 68640, Note_on_c, 15, 36, 72
13, 68640, Note_on_c, 15, 48, 72
13, 68640, Note_on_c, 15, 55, 72
13, 68640, Note_on_c, 15, 52, 72
13, 69359, Note_on_c, 15, 36, 0
13, 69359, Note_on_c, 15, 48, 0
13, 69359, Note_on_c, 15, 55, 0
13, 69359, Note_on_c, 15, 52, 0
13, 69600, Note_on_c, 15, 79, 72
13, 69600, Note_on_c, 15, 60, 72
13, 69600, Note_on_c, 15, 72, 72
13, 69600, Note_on_c, 15, 76, 72
13, 69839, Note_on_c, 15, 79, 0
13, 69839, Note_on_c, 15, 60, 0
13, 69839, Note_on_c, 15, 72, 0
13, 69839, Note_on_c, 15, 76, 0
13, 69840, Note_on_c, 15, 60, 72
13, 69840, Note_on_c, 15, 64, 72
13, 69840, Note_on_c, 15, 67, 72
13, 69840, Note_on_c, 15, 48, 72
13, 70079, Note_on_c, 15, 60, 0
13, 70079, Note_on_c, 15, 64, 0
13, 70079, Note_on_c, 15, 67, 0
13, 70079, Note_on_c, 15, 48, 0
13, 70080, Note_on_c, 15, 52, 72
13, 70080, Note_on_c, 15, 64, 72
13, 70080, Note_on_c, 15, 67, 72
13, 70080, Note_on_c, 15, 72, 72
13, 70319, Note_on_c, 15, 52, 0
13, 70319, Note_on_c, 15, 64, 0
13, 70319, Note_on_c, 15, 67, 0
13, 70319, Note_on_c, 15, 72, 0
13, 70320, Note_on_c, 15, 65, 72
13, 70320, Note_on_c, 15, 72, 72
13, 70320, Note_on_c, 15, 69, 72
13, 70320, Note_on_c, 15, 53, 72
13, 70559, Note_on_c, 15, 65, 0
13, 70559, Note_on_c, 15, 72, 0
13, 70559, Note_on_c, 15, 69, 0
13, 70559, Note_on_c, 15, 53, 0
13, 70560, Note_on_c, 15, 72, 72
13, 70560, Note_on_c, 15, 69, 72
13, 70560, Note_on_c, 15, 77, 72
13, 70560, Note_on_c, 15, 57, 72
13, 70679, Note_on_c, 15, 72, 0
13, 70679, Note_on_c, 15, 69, 0
13, 70679, Note_on_c, 15, 77, 0
13, 70679, Note_on_c, 15, 57, 0
13, 70680, Note_on_c, 15, 65, 72
13, 70680, Note_on_c, 15, 69, 72
13, 70680, Note_on_c, 15, 53, 72
13, 70680, Note_on_c, 15, 72, 72
13, 70799, Note_on_c, 15, 65, 0
13, 70799, Note_on_c, 15, 69, 0
13, 70799, Note_on_c, 15, 53, 0
13, 70799, Note_on_c, 15, 72, 0
13, 70800, Note_on_c, 15, 77, 72
13, 70800, Note_on_c, 15, 81, 72
13, 70800, Note_on_c, 15, 62, 72
13, 70800, Note_on_c, 15, 74, 72
13, 71039, Note_on_c, 15, 77, 0
13, 71039, Note_on_c, 15, 81, 0
13, 71039, Note_on_c, 15, 62, 0
13, 71039, Note_on_c, 15, 74, 0
13, 71040, Note_on_c, 15, 71, 72
13, 71040, Note_on_c, 15, 59, 72
13, 71040, Note_on_c, 15, 79, 72
13, 71040, Note_on_c, 15, 74, 72
13, 71279, Note_on_c, 15, 71, 0
13, 71279, Note_on_c, 15, 59, 0
13, 71279, Note_on_c, 15, 79, 0
13, 71279, Note_on_c, 15, 74, 0
13, 71280, Note_on_c, 15, 76, 72
13, 71280, Note_on_c, 15, 79, 72
13, 71280, Note_on_c, 15, 60, 72
13, 71280, Note_on_c, 15, 72, 72
13, 71519, Note_on_c, 15, 76, 0
13, 71519, Note_on_c, 15, 79, 0
13, 71519, Note_on_c, 15, 60, 0
13, 71519, Note_on_c, 15, 72, 0
13, 71520, Note_on_c, 15, 65, 72
13, 71520, Note_on_c, 15, 74, 72
13, 71520, Note_on_c, 15, 69, 72
13, 71520, Note_on_c, 15, 53, 72
13, 71759, Note_on_c, 15, 65, 0
13, 71759, Note_on_c, 15, 74, 0
13, 71759, Note_on_c, 15, 69, 0
13, 71759, Note_on_c, 15, 53, 0
13, 71760, Note_on_c, 15, 71, 72
13, 71760, Note_on_c, 15, 67, 72
13, 71760, Note_on_c, 15, 55, 72
13, 71760, Note_on_c, 15, 74, 72
13, 71999, Note_on_c, 15, 71, 0
13, 71999, Note_on_c, 15, 67, 0
13, 71999, Note_on_c, 15, 55, 0
13, 71999, Note_on_c, 15, 74, 0
13, 72000, Note_on_c, 15, 77, 72
13, 72000, Note_on_c, 15, 59, 72
13, 72000, Note_on_c, 15, 71, 72
13, 72000, Note_on_c, 15, 74, 72
13, 72239, Note_on_c, 15, 77, 0
13, 72239, Note_on_c, 15, 59, 0
13, 72239, Note_on_c, 15, 71, 0
13, 72239, Note_on_c, 15, 74, 0
13, 72240, Note_on_c, 15, 74, 72
13, 72240, Note_on_c, 15, 71, 72
13, 72240, Note_on_c, 15, 55, 72
13, 72240, Note_on_c, 15, 67, 72
13, 72479, Note_on_c, 15, 74, 0
13, 72479, Note_on_c, 15, 71, 0
13, 72479, Note_on_c, 15, 55, 0
13, 72479, Note_on_c, 15, 67, 0
13, 72480, Note_on_c, 15, 60, 72
13, 72480, Note_on_c, 15, 72, 72
13, 72480, Note_on_c, 15, 76, 72
13, 72480, Note_on_c, 15, 79, 72
13, 72719, Note_on_c, 15, 60, 0
13, 72719, Note_on_c, 15, 72, 0
13, 72719, Note_on_c, 15, 76, 0
13, 72719, Note_on_c, 15, 79, 0
13, 72720, Note_on_c, 15, 59, 72
13, 72720, Note_on_c, 15, 71, 72
13, 72720, Note_on_c, 15, 77, 72
13, 72720, Note_on_c, 15, 74, 72
13, 72959, Note_on_c, 15, 59, 0
13, 72959, Note_on_c, 15, 71, 0
13, 72959, Note_on_c, 15, 77, 0
13, 72959, Note_on_c, 15, 74, 0
13, 72960, Note_on_c, 15, 72, 72
13, 72960, Note_on_c, 15, 76, 72
13, 72960, Note_on_c, 15, 57, 72
13, 72960, Note_on_c, 15, 69, 72
13, 73199, Note_on_c, 15, 72, 0
13, 73199, Note_on_c, 15, 76, 0
13, 73199, Note_on_c, 15, 57, 0
13, 73199, Note_on_c, 15, 69, 0
13, 73200, Note_on_c, 15, 62, 72
13, 73200, Note_on_c, 15, 50, 72
13, 73200, Note_on_c, 15, 69, 72
13, 73200, Note_on_c, 15, 66, 72
13, 73439, Note_on_c, 15, 62, 0
13, 73439, Note_on_c, 15, 50, 0
13, 73439, Note_on_c, 15, 69, 0
13, 73439, Note_on_c, 15, 66, 0
13, 73440, Note_on_c, 15, 54, 72
13, 73440, Note_on_c, 15, 69, 72
13, 73440, Note_on_c, 15, 66, 72
13, 73440, Note_on_c, 15, 74, 72
13, 73559, Note_on_c, 15, 54, 0
13, 73559, Note_on_c, 15, 69, 0
13, 73559, Note_on_c, 15, 66, 0
13, 73559, Note_on_c, 15, 74, 0
13, 73560, Note_on_c, 15, 69, 72
13, 73560, Note_on_c, 15, 66, 72
13, 73560, Note_on_c, 15, 50, 72
13, 73560, Note_on_c, 15, 62, 72
13, 73679, Note_on_c, 15, 69, 0
13, 73679, Note_on_c, 15, 66, 0
13, 73679, Note_on_c, 15, 50, 0
13, 73679, Note_on_c, 15, 62, 0
13, 73680, Note_on_c, 15, 71, 72
13, 73680, Note_on_c, 15, 55, 72
13, 73680, Note_on_c, 15, 67, 72
13, 73680, Note_on_c, 15, 74, 72
13, 73919, Note_on_c, 15, 71, 0
13, 73919, Note_on_c, 15, 55, 0
13, 73919, Note_on_c, 15, 67, 0
13, 73919, Note_on_c, 15, 74, 0
13, 73920, Note_on_c, 15, 60, 72
13, 73920, Note_on_c, 15, 67, 72
13, 73920, Note_on_c, 15, 64, 72
13, 73920, Note_on_c, 15, 48, 72
13, 74159, Note_on_c, 15, 60, 0
13, 74159, Note_on_c, 15, 67, 0
13, 74159, Note_on_c, 15, 64, 0
13, 74159, Note_on_c, 15, 48, 0
13, 74160, Note_on_c, 15, 69, 72
13, 74160, Note_on_c, 15, 50, 72
13, 74160, Note_on_c, 15, 66, 72
13, 74160, Note_on_c, 15, 62, 72
13, 74399, Note_on_c, 15, 69, 0
13, 74399, Note_on_c, 15, 50, 0
13, 74399, Note_on_c, 15, 66, 0
13, 74399, Note_on_c, 15, 62, 0
13, 74400, Note_on_c, 15, 57, 72
13, 74400, Note_on_c, 15, 38, 72
13, 74400, Note_on_c, 15, 50, 72
13, 74400, Note_on_c, 15, 54, 72
13, 74639, Note_on_c, 15, 57, 0
13, 74639, Note_on_c, 15, 38, 0
13, 74639, Note_on_c, 15, 50, 0
13, 74639, Note_on_c, 15, 54, 0
13, 74640, Note_on_c, 15, 59, 72
13, 74640, Note_on_c, 15, 55, 72
13, 74640, Note_on_c, 15, 62, 72
13, 74640, Note_on_c, 15, 43, 72
13, 74759, Note_on_c, 15, 59, 0
13, 74759, Note_on_c, 15, 55, 0
13, 74759, Note_on_c, 15, 62, 0
13, 74759, Note_on_c, 15, 43, 0
13, 74760, Note_on_c, 15, 50, 72
13, 74760, Note_on_c, 15, 65, 72
13, 74760, Note_on_c, 15, 62, 72
13, 74760, Note_on_c, 15, 69, 72
13, 74879, Note_on_c, 15, 50, 0
13, 74879, Note_on_c, 15, 65, 0
13, 74879, Note_on_c, 15, 62, 0
13, 74879, Note_on_c, 15, 69, 0
13, 74880, Note_on_c, 15, 74, 72
13, 74880, Note_on_c, 15, 67, 72
13, 74880, Note_on_c, 15, 71, 72
13, 74880, Note_on_c, 15, 55, 72
13, 74999, Note_on_c, 15, 74, 0
13, 74999, Note_on_c, 15, 67, 0
13, 74999, Note_on_c, 15, 71, 0
13, 74999, Note_on_c, 15, 55, 0
13, 75000, Note_on_c, 15, 57, 72
13, 75000, Note_on_c, 15, 69, 72
13, 75000, Note_on_c, 15, 76, 72
13, 75000, Note_on_c, 15, 72, 72
13, 75119, Note_on_c, 15, 57, 0
13, 75119, Note_on_c, 15, 69, 0
13, 75119, Note_on_c, 15, 76, 0
13, 75119, Note_on_c, 15, 72, 0
13, 75120, Note_on_c, 15, 74, 72
13, 75120, Note_on_c, 15, 55, 72
13, 75120, Note_on_c, 15, 71, 72
13, 75120, Note_on_c, 15, 67, 72
13, 75239, Note_on_c, 15, 74, 0
13, 75239, Note_on_c, 15, 55, 0
13, 75239, Note_on_c, 15, 71, 0
13, 75239, Note_on_c, 15, 67, 0
13, 75240, Note_on_c, 15, 53, 72
13, 75240, Note_on_c, 15, 72, 72
13, 75240, Note_on_c, 15, 65, 72
13, 75240, Note_on_c, 15, 69, 72
13, 75359, Note_on_c, 15, 53, 0
13, 75359, Note_on_c, 15, 72, 0
13, 75359, Note_on_c, 15, 65, 0
13, 75359, Note_on_c, 15, 69, 0
13, 75360, Note_on_c, 15, 64, 72
13, 75360, Note_on_c, 15, 67, 72
13, 75360, Note_on_c, 15, 52, 72
13, 75360, Note_on_c, 15, 71, 72
13, 75599, Note_on_c, 15, 64, 0
13, 75599, Note_on_c, 15, 67, 0
13, 75599, Note_on_c, 15, 52, 0
13, 75599, Note_on_c, 15, 71, 0
13, 75600, Note_on_c, 15, 67, 72
13, 75600, Note_on_c, 15, 64, 72
13, 75600, Note_on_c, 15, 60, 72
13, 75600, Note_on_c, 15, 48, 72
13, 75839, Note_on_c, 15, 67, 0
13, 75839, Note_on_c, 15, 64, 0
13, 75839, Note_on_c, 15, 60, 0
13, 75839, Note_on_c, 15, 48, 0
13, 75840, Note_on_c, 15, 67, 72
13, 75840, Note_on_c, 15, 64, 72
13, 75840, Note_on_c, 15, 72, 72
13, 75840, Note_on_c, 15, 52, 72
13, 76079, Note_on_c, 15, 67, 0
13, 76079, Note_on_c, 15, 64, 0
13, 76079, Note_on_c, 15, 72, 0
13, 76079, Note_on_c, 15, 52, 0
13, 76080, Note_on_c, 15, 65, 72
13, 76080, Note_on_c, 15, 53, 72
13, 76080, Note_on_c, 15, 69, 72
13, 76080, Note_on_c, 15, 72, 72
13, 76319, Note_on_c, 15, 65, 0
13, 76319, Note_on_c, 15, 53, 0
13, 76319, Note_on_c, 15, 69, 0
13, 76319, Note_on_c, 15, 72, 0
13, 76320, Note_on_c, 15, 57, 72
13, 76320, Note_on_c, 15, 77, 72
13, 76320, Note_on_c, 15, 72, 72
13, 76320, Note_on_c, 15, 69, 72
13, 76439, Note_on_c, 15, 57, 0
13, 76439, Note_on_c, 15, 77, 0
13, 76439, Note_on_c, 15, 72, 0
13, 76439, Note_on_c, 15, 69, 0
13, 76440, Note_on_c, 15, 69, 72
13, 76440, Note_on_c, 15, 65, 72
13, 76440, Note_on_c, 15, 72, 72
13, 76440, Note_on_c, 15, 53, 72
13, 76559, Note_on_c, 15, 69, 0
13, 76559, Note_on_c, 15, 65, 0
13, 76559, Note_on_c, 15, 72, 0
13, 76559, Note_on_c, 15, 53, 0
13, 76560, Note_on_c, 15, 77, 72
13, 76560, Note_on_c, 15, 74, 72
13, 76560, Note_on_c, 15, 62, 72
13, 76560, Note_on_c, 15, 81, 72
13, 76799, Note_on_c, 15, 77, 0
13, 76799, Note_on_c, 15, 74, 0
13, 76799, Note_on_c, 15, 62, 0
13, 76799, Note_on_c, 15, 81, 0
13, 76800, Note_on_c, 15, 71, 72
13, 76800, Note_on_c, 15, 74, 72
13, 76800, Note_on_c, 15, 59, 72
13, 76800, Note_on_c, 15, 79, 72
13, 77039, Note_on_c, 15, 71, 0
13, 77039, Note_on_c, 15, 74, 0
13, 77039, Note_on_c, 15, 59, 0
13, 77039, Note_on_c, 15, 79, 0
13, 77040, Note_on_c, 15, 76, 72
13, 77040, Note_on_c, 15, 72, 72
13, 77040, Note_on_c, 15, 79, 72
13, 77040, Note_on_c, 15, 60, 72
13, 77279, Note_on_c, 15, 76, 0
13, 77279, Note_on_c, 15, 72, 0
13, 77279, Note_on_c, 15, 79, 0
13, 77279, Note_on_c, 15, 60, 0
13, 77280, Note_on_c, 15, 69, 72
13, 77280, Note_on_c, 15, 74, 72
13, 77280, Note_on_c, 15, 65, 72
13, 77280, Note_on_c, 15, 53, 72
13, 77519, Note_on_c, 15, 69, 0
13, 77519, Note_on_c, 15, 74, 0
13, 77519, Note_on_c, 15, 65, 0
13, 77519, Note_on_c, 15, 53, 0
13, 77520, Note_on_c, 15, 71, 72
13, 77520, Note_on_c, 15, 55, 72
13, 77520, Note_on_c, 15, 67, 72
13, 77520, Note_on_c, 15, 74, 72
13, 77759, Note_on_c, 15, 71, 0
13, 77759, Note_on_c, 15, 55, 0
13, 77759, Note_on_c, 15, 67, 0
13, 77759, Note_on_c, 15, 74, 0
13, 77760, Note_on_c, 15, 59, 72
13, 77760, Note_on_c, 15, 71, 72
13, 77760, Note_on_c, 15, 77, 72
13, 77760, Note_on_c, 15, 74, 72
13, 77999, Note_on_c, 15, 59, 0
13, 77999, Note_on_c, 15, 71, 0
13, 77999, Note_on_c, 15, 77, 0
13, 77999, Note_on_c, 15, 74, 0
13, 78000, Note_on_c, 15, 55, 72
13, 78000, Note_on_c, 15, 67, 72
13, 78000, Note_on_c, 15, 71, 72
13, 78000, Note_on_c, 15, 74, 72
13, 78239, Note_on_c, 15, 55, 0
13, 78239, Note_on_c, 15, 67, 0
13, 78239, Note_on_c, 15, 71, 0
13, 78239, Note_on_c, 15, 74, 0
13, 78240, Note_on_c, 15, 79, 72
13, 78240, Note_on_c, 15, 76, 72
13, 78240, Note_on_c, 15, 72, 72
13, 78240, Note_on_c, 15, 60, 72
13, 78479, Note_on_c, 15, 79, 0
13, 78479, Note_on_c, 15, 76, 0
13, 78479, Note_on_c, 15, 72, 0
13, 78479, Note_on_c, 15, 60, 0
13, 78480, Note_on_c, 15, 59, 72
13, 78480, Note_on_c, 15, 77, 72
13, 78480, Note_on_c, 15, 74, 72
13, 78480, Note_on_c, 15, 71, 72
13, 78719, Note_on_c, 15, 59, 0
13, 78719, Note_on_c, 15, 77, 0
13, 78719, Note_on_c, 15, 74, 0
13, 78719, Note_on_c, 15, 71, 0
13, 78720, Note_on_c, 15, 72, 72
13, 78720, Note_on_c, 15, 69, 72
13, 78720, Note_on_c, 15, 76, 72
13, 78720, Note_on_c, 15, 57, 72
13, 78959, Note_on_c, 15, 72, 0
13, 78959, Note_on_c, 15, 69, 0
13, 78959, Note_on_c, 15, 76, 0
13, 78959, Note_on_c, 15, 57, 0
13, 78960, Note_on_c, 15, 62, 72
13, 78960, Note_on_c, 15, 66, 72
13, 78960, Note_on_c, 15, 69, 72
13, 78960, Note_on_c, 15, 50, 72
13, 79199, Note_on_c, 15, 62, 0
13, 79199, Note_on_c, 15, 66, 0
13, 79199, Note_on_c, 15, 69, 0
13, 79199, Note_on_c, 15, 50, 0
13, 79200, Note_on_c, 15, 74, 72
13, 79200, Note_on_c, 15, 69, 72
13, 79200, Note_on_c, 15, 66, 72
13, 79200, Note_on_c, 15, 54, 72
13, 79319, Note_on_c, 15, 74, 0
13, 79319, Note_on_c, 15, 69, 0
13, 79319, Note_on_c, 15, 66, 0
13, 79319, Note_on_c, 15, 54, 0
13, 79320, Note_on_c, 15, 66, 72
13, 79320, Note_on_c, 15, 62, 72
13, 79320, Note_on_c, 15, 69, 72
13, 79320, Note_on_c, 15, 50, 72
13, 79439, Note_on_c, 15, 66, 0
13, 79439, Note_on_c, 15, 62, 0
13, 79439, Note_on_c, 15, 69, 0
13, 79439, Note_on_c, 15, 50, 0
13, 79440, Note_on_c, 15, 55, 72
13, 79440, Note_on_c, 15, 74, 72
13, 79440, Note_on_c, 15, 67, 72
13, 79440, Note_on_c, 15, 71, 72
13, 79679, Note_on_c, 15, 55, 0
13, 79679, Note_on_c, 15, 74, 0
13, 79679, Note_on_c, 15, 67, 0
13, 79679, Note_on_c, 15, 71, 0
13, 79680, Note_on_c, 15, 60, 72
13, 79680, Note_on_c, 15, 48, 72
13, 79680, Note_on_c, 15, 64, 72
13, 79680, Note_on_c, 15, 67, 72
13, 79919, Note_on_c, 15, 60, 0
13, 79919, Note_on_c, 15, 48, 0
13, 79919, Note_on_c, 15, 64, 0
13, 79919, Note_on_c, 15, 67, 0
13, 79920, Note_on_c, 15, 69, 72
13, 79920, Note_on_c, 15, 66, 72
13, 79920, Note_on_c, 15, 62, 72
13, 79920, Note_on_c, 15, 50, 72
13, 80159, Note_on_c, 15, 69, 0
13, 80159, Note_on_c, 15, 66, 0
13, 80159, Note_on_c, 15, 62, 0
13, 80159, Note_on_c, 15, 50, 0
13, 80160, Note_on_c, 15, 54, 72
13, 80160, Note_on_c, 15, 50, 72
13, 80160, Note_on_c, 15, 38, 72
13, 80160, Note_on_c, 15, 57, 72
13, 80399, Note_on_c, 15, 54, 0
13, 80399, Note_on_c, 15, 50, 0
13, 80399, Note_on_c, 15, 38, 0
13, 80399, Note_on_c, 15, 57, 0
13, 80400, Note_on_c, 15, 62, 72
13, 80400, Note_on_c, 15, 59, 72
13, 80400, Note_on_c, 15, 43, 72
13, 80400, Note_on_c, 15, 55, 72
13, 80639, Note_on_c, 15, 62, 0
13, 80639, Note_on_c, 15, 59, 0
13, 80639, Note_on_c, 15, 43, 0
13, 80639, Note_on_c, 15, 55, 0
13, 80640, Note_on_c, 15, 62, 72
13, 80640, Note_on_c, 15, 65, 72
13, 80640, Note_on_c, 15, 47, 72
13, 80640, Note_on_c, 15, 59, 72
13, 80879, Note_on_c, 15, 62, 0
13, 80879, Note_on_c, 15, 65, 0
13, 80879, Note_on_c, 15, 47, 0
13, 80879, Note_on_c, 15, 59, 0
13, 80880, Note_on_c, 15, 62, 72
13, 80880, Note_on_c, 15, 65, 72
13, 80880, Note_on_c, 15, 50, 72
13, 80880, Note_on_c, 15, 69, 72
13, 81119, Note_on_c, 15, 62, 0
13, 81119, Note_on_c, 15, 65, 0
13, 81119, Note_on_c, 15, 50, 0
13, 81119, Note_on_c, 15, 69, 0
13, 81120, Note_on_c, 15, 74, 72
13, 81120, Note_on_c, 15, 67, 72
13, 81120, Note_on_c, 15, 71, 72
13, 81120, Note_on_c, 15, 55, 72
13, 81359, Note_on_c, 15, 74, 0
13, 81359, Note_on_c, 15, 67, 0
13, 81359, Note_on_c, 15, 71, 0
13, 81359, Note_on_c, 15, 55, 0
13, 81360, Note_on_c, 15, 65, 72
13, 81360, Note_on_c, 15, 62, 72
13, 81360, Note_on_c, 15, 69, 72
13, 81360, Note_on_c, 15, 50, 72
13, 81599, Note_on_c, 15, 65, 0
13, 81599, Note_on_c, 15, 62, 0
13, 81599, Note_on_c, 15, 69, 0
13, 81599, Note_on_c, 15, 50, 0
13, 81600, Note_on_c, 15, 62, 72
13, 81600, Note_on_c, 15, 65, 72
13, 81600, Note_on_c, 15, 59, 72
13, 81600, Note_on_c, 15, 47, 72
13, 81839, Note_on_c, 15, 62, 0
13, 81839, Note_on_c, 15, 65, 0
13, 81839, Note_on_c, 15, 59, 0
13, 81839, Note_on_c, 15, 47, 0
13, 81840, Note_on_c, 15, 44, 72
13, 81840, Note_on_c, 15, 65, 72
13, 81840, Note_on_c, 15, 56, 72
13, 81840, Note_on_c, 15, 59, 72
13, 81840, Note_on_c, 15, 62, 72
13, 82079, Note_on_c, 15, 44, 0
13, 82079, Note_on_c, 15, 65, 0
13, 82079, Note_on_c, 15, 56, 0
13, 82079, Note_on_c, 15, 59, 0
13, 82079, Note_on_c, 15, 62, 0
13, 82080, Note_on_c, 15, 65, 72
13, 82080, Note_on_c, 15, 59, 72
13, 82080, Note_on_c, 15, 47, 72
13, 82080, Note_on_c, 15, 62, 72
13, 82199, Note_on_c, 15, 65, 0
13, 82199, Note_on_c, 15, 59, 0
13, 82199, Note_on_c, 15, 47, 0
13, 82199, Note_on_c, 15, 62, 0
13, 82200, Note_on_c, 15, 59, 72
13, 82200, Note_on_c, 15, 44, 72
13, 82200, Note_on_c, 15, 56, 72
13, 82200, Note_on_c, 15, 62, 72
13, 82319, Note_on_c, 15, 59, 0
13, 82319, Note_on_c, 15, 44, 0
13, 82319, Note_on_c, 15, 56, 0
13, 82319, Note_on_c, 15, 62, 0
13, 82320, Note_on_c, 15, 68, 72
13, 82320, Note_on_c, 15, 71, 72
13, 82320, Note_on_c, 15, 52, 72
13, 82320, Note_on_c, 15, 64, 72
13, 82320, Note_on_c, 15, 74, 72
13, 82559, Note_on_c, 15, 68, 0
13, 82559, Note_on_c, 15, 71, 0
13, 82559, Note_on_c, 15, 52, 0
13, 82559, Note_on_c, 15, 64, 0
13, 82559, Note_on_c, 15, 74, 0
13, 82560, Note_on_c, 15, 64, 72
13, 82560, Note_on_c, 15, 48, 72
13, 82560, Note_on_c, 15, 69, 72
13, 82560, Note_on_c, 15, 60, 72
13, 82799, Note_on_c, 15, 64, 0
13, 82799, Note_on_c, 15, 48, 0
13, 82799, Note_on_c, 15, 69, 0
13, 82799, Note_on_c, 15, 60, 0
13, 82800, Note_on_c, 15, 53, 72
13, 82800, Note_on_c, 15, 65, 72
13, 82800, Note_on_c, 15, 69, 72
13, 82800, Note_on_c, 15, 72, 72
13, 83039, Note_on_c, 15, 53, 0
13, 83039, Note_on_c, 15, 65, 0
13, 83039, Note_on_c, 15, 69, 0
13, 83039, Note_on_c, 15, 72, 0
13, 83040, Note_on_c, 15, 50, 72
13, 83040, Note_on_c, 15, 62, 72
13, 83040, Note_on_c, 15, 69, 72
13, 83040, Note_on_c, 15, 71, 72
13, 83040, Note_on_c, 15, 65, 72
13, 83279, Note_on_c, 15, 50, 0
13, 83279, Note_on_c, 15, 62, 0
13, 83279, Note_on_c, 15, 69, 0
13, 83279, Note_on_c, 15, 71, 0
13, 83279, Note_on_c, 15, 65, 0
13, 83280, Note_on_c, 15, 68, 72
13, 83280, Note_on_c, 15, 71, 72
13, 83280, Note_on_c, 15, 52, 72
13, 83280, Note_on_c, 15, 64, 72
13, 83519, Note_on_c, 15, 68, 0
13, 83519, Note_on_c, 15, 71, 0
13, 83519, Note_on_c, 15, 52, 0
13, 83519, Note_on_c, 15, 64, 0
13, 83520, Note_on_c, 15, 74, 72
13, 83520, Note_on_c, 15, 68, 72
13, 83520, Note_on_c, 15, 56, 72
13, 83520, Note_on_c, 15, 71, 72
13, 83639, Note_on_c, 15, 74, 0
13, 83639, Note_on_c, 15, 68, 0
13, 83639, Note_on_c, 15, 56, 0
13, 83639, Note_on_c, 15, 71, 0
13, 83640, Note_on_c, 15, 68, 72
13, 83640, Note_on_c, 15, 71, 72
13, 83640, Note_on_c, 15, 52, 72
13, 83640, Note_on_c, 15, 64, 72
13, 83759, Note_on_c, 15, 68, 0
13, 83759, Note_on_c, 15, 71, 0
13, 83759, Note_on_c, 15, 52, 0
13, 83759, Note_on_c, 15, 64, 0
13, 83760, Note_on_c, 15, 80, 72
13, 83760, Note_on_c, 15, 83, 72
13, 83760, Note_on_c, 15, 76, 72
13, 83760, Note_on_c, 15, 64, 72
13, 83999, Note_on_c, 15, 80, 0
13, 83999, Note_on_c, 15, 83, 0
13, 83999, Note_on_c, 15, 76, 0
13, 83999, Note_on_c, 15, 64, 0
13, 84000, Note_on_c, 15, 76, 72
13, 84000, Note_on_c, 15, 69, 72
13, 84000, Note_on_c, 15, 57, 72
13, 84000, Note_on_c, 15, 72, 72
13, 84239, Note_on_c, 15, 76, 0
13, 84239, Note_on_c, 15, 69, 0
13, 84239, Note_on_c, 15, 57, 0
13, 84239, Note_on_c, 15, 72, 0
13, 84240, Note_on_c, 15, 45, 72
13, 84240, Note_on_c, 15, 57, 72
13, 84240, Note_on_c, 15, 60, 72
13, 84240, Note_on_c, 15, 64, 72
13, 84479, Note_on_c, 15, 45, 0
13, 84479, Note_on_c, 15, 57, 0
13, 84479, Note_on_c, 15, 60, 0
13, 84479, Note_on_c, 15, 64, 0
13, 84480, Note_on_c, 15, 60, 72
13, 84480, Note_on_c, 15, 69, 72
13, 84480, Note_on_c, 15, 48, 72
13, 84480, Note_on_c, 15, 64, 72
13, 84719, Note_on_c, 15, 60, 0
13, 84719, Note_on_c, 15, 69, 0
13, 84719, Note_on_c, 15, 48, 0
13, 84719, Note_on_c, 15, 64, 0
13, 84720, Note_on_c, 15, 65, 72
13, 84720, Note_on_c, 15, 62, 72
13, 84720, Note_on_c, 15, 50, 72
13, 84720, Note_on_c, 15, 69, 72
13, 84959, Note_on_c, 15, 65, 0
13, 84959, Note_on_c, 15, 62, 0
13, 84959, Note_on_c, 15, 50, 0
13, 84959, Note_on_c, 15, 69, 0
13, 84960, Note_on_c, 15, 65, 72
13, 84960, Note_on_c, 15, 53, 72
13, 84960, Note_on_c, 15, 69, 72
13, 84960, Note_on_c, 15, 72, 72
13, 85079, Note_on_c, 15, 65, 0
13, 85079, Note_on_c, 15, 53, 0
13, 85079, Note_on_c, 15, 69, 0
13, 85079, Note_on_c, 15, 72, 0
13, 85080, Note_on_c, 15, 62, 72
13, 85080, Note_on_c, 15, 69, 72
13, 85080, Note_on_c, 15, 65, 72
13, 85080, Note_on_c, 15, 50, 72
13, 85199, Note_on_c, 15, 62, 0
13, 85199, Note_on_c, 15, 69, 0
13, 85199, Note_on_c, 15, 65, 0
13, 85199, Note_on_c, 15, 50, 0
13, 85200, Note_on_c, 15, 68, 72
13, 85200, Note_on_c, 15, 56, 72
13, 85200, Note_on_c, 15, 74, 72
13, 85200, Note_on_c, 15, 76, 72
13, 85200, Note_on_c, 15, 71, 72
13, 85439, Note_on_c, 15, 68, 0
13, 85439, Note_on_c, 15, 56, 0
13, 85439, Note_on_c, 15, 74, 0
13, 85439, Note_on_c, 15, 76, 0
13, 85439, Note_on_c, 15, 71, 0
13, 85440, Note_on_c, 15, 72, 72
13, 85440, Note_on_c, 15, 76, 72
13, 85440, Note_on_c, 15, 57, 72
13, 85440, Note_on_c, 15, 69, 72
13, 85679, Note_on_c, 15, 72, 0
13, 85679, Note_on_c, 15, 76, 0
13, 85679, Note_on_c, 15, 57, 0
13, 85679, Note_on_c, 15, 69, 0
13, 85680, Note_on_c, 15, 71, 72
13, 85680, Note_on_c, 15, 69, 72
13, 85680, Note_on_c, 15, 62, 72
13, 85680, Note_on_c, 15, 50, 72
13, 85680, Note_on_c, 15, 65, 72
13, 85919, Note_on_c, 15, 71, 0
13, 85919, Note_on_c, 15, 69, 0
13, 85919, Note_on_c, 15, 62, 0
13, 85919, Note_on_c, 15, 50, 0
13, 85919, Note_on_c, 15, 65, 0
13, 85920, Note_on_c, 15, 68, 72
13, 85920, Note_on_c, 15, 71, 72
13, 85920, Note_on_c, 15, 64, 72
13, 85920, Note_on_c, 15, 52, 72
13, 86159, Note_on_c, 15, 68, 0
13, 86159, Note_on_c, 15, 71, 0
13, 86159, Note_on_c, 15, 64, 0
13, 86159, Note_on_c, 15, 52, 0
13, 86160, Note_on_c, 15, 64, 72
13, 86160, Note_on_c, 15, 57, 72
13, 86160, Note_on_c, 15, 60, 72
13, 86160, Note_on_c, 15, 45, 72
13, 86399, Note_on_c, 15, 64, 0
13, 86399, Note_on_c, 15, 57, 0
13, 86399, Note_on_c, 15, 60, 0
13, 86399, Note_on_c, 15, 45, 0
13, 86400, Note_on_c, 15, 48, 72
13, 86400, Note_on_c, 15, 64, 72
13, 86400, Note_on_c, 15, 60, 72
13, 86400, Note_on_c, 15, 67, 72
13, 86519, Note_on_c, 15, 48, 0
13, 86519, Note_on_c, 15, 64, 0
13, 86519, Note_on_c, 15, 60, 0
13, 86519, Note_on_c, 15, 67, 0
13, 86520, Note_on_c, 15, 45, 72
13, 86520, Note_on_c, 15, 64, 72
13, 86520, Note_on_c, 15, 57, 72
13, 86520, Note_on_c, 15, 60, 72
13, 86639, Note_on_c, 15, 45, 0
13, 86639, Note_on_c, 15, 64, 0
13, 86639, Note_on_c, 15, 57, 0
13, 86639, Note_on_c, 15, 60, 0
13, 86640, Note_on_c, 15, 72, 72
13, 86640, Note_on_c, 15, 69, 72
13, 86640, Note_on_c, 15, 65, 72
13, 86640, Note_on_c, 15, 53, 72
13, 86879, Note_on_c, 15, 72, 0
13, 86879, Note_on_c, 15, 69, 0
13, 86879, Note_on_c, 15, 65, 0
13, 86879, Note_on_c, 15, 53, 0
13, 86880, Note_on_c, 15, 67, 72
13, 86880, Note_on_c, 15, 64, 72
13, 86880, Note_on_c, 15, 72, 72
13, 86880, Note_on_c, 15, 52, 72
13, 87119, Note_on_c, 15, 67, 0
13, 87119, Note_on_c, 15, 64, 0
13, 87119, Note_on_c, 15, 72, 0
13, 87119, Note_on_c, 15, 52, 0
13, 87120, Note_on_c, 15, 60, 72
13, 87120, Note_on_c, 15, 48, 72
13, 87120, Note_on_c, 15, 64, 72
13, 87120, Note_on_c, 15, 67, 72
13, 87359, Note_on_c, 15, 60, 0
13, 87359, Note_on_c, 15, 48, 0
13, 87359, Note_on_c, 15, 64, 0
13, 87359, Note_on_c, 15, 67, 0
13, 87360, Note_on_c, 15, 76, 72
13, 87360, Note_on_c, 15, 79, 72
13, 87360, Note_on_c, 15, 72, 72
13, 87360, Note_on_c, 15, 60, 72
13, 87599, Note_on_c, 15, 76, 0
13, 87599, Note_on_c, 15, 79, 0
13, 87599, Note_on_c, 15, 72, 0
13, 87599, Note_on_c, 15, 60, 0
13, 87600, Note_on_c, 15, 72, 72
13, 87600, Note_on_c, 15, 65, 72
13, 87600, Note_on_c, 15, 53, 72
13, 87600, Note_on_c, 15, 69, 72
13, 87719, Note_on_c, 15, 72, 0
13, 87719, Note_on_c, 15, 65, 0
13, 87719, Note_on_c, 15, 53, 0
13, 87719, Note_on_c, 15, 69, 0
13, 87720, Note_on_c, 15, 67, 72
13, 87720, Note_on_c, 15, 64, 72
13, 87720, Note_on_c, 15, 71, 72
13, 87720, Note_on_c, 15, 52, 72
13, 87839, Note_on_c, 15, 67, 0
13, 87839, Note_on_c, 15, 64, 0
13, 87839, Note_on_c, 15, 71, 0
13, 87839, Note_on_c, 15, 52, 0
13, 87840, Note_on_c, 15, 74, 72
13, 87840, Note_on_c, 15, 53, 72
13, 87840, Note_on_c, 15, 71, 72
13, 87840, Note_on_c, 15, 65, 72
13, 87840, Note_on_c, 15, 67, 72
13, 87959, Note_on_c, 15, 74, 0
13, 87959, Note_on_c, 15, 53, 0
13, 87959, Note_on_c, 15, 71, 0
13, 87959, Note_on_c, 15, 65, 0
13, 87959, Note_on_c, 15, 67, 0
13, 87960, Note_on_c, 15, 62, 72
13, 87960, Note_on_c, 15, 69, 72
13, 87960, Note_on_c, 15, 50, 72
13, 87960, Note_on_c, 15, 65, 72
13, 88079, Note_on_c, 15, 62, 0
13, 88079, Note_on_c, 15, 69, 0
13, 88079, Note_on_c, 15, 50, 0
13, 88079, Note_on_c, 15, 65, 0
13, 88080, Note_on_c, 15, 71, 72
13, 88080, Note_on_c, 15, 74, 72
13, 88080, Note_on_c, 15, 67, 72
13, 88080, Note_on_c, 15, 55, 72
13, 88319, Note_on_c, 15, 71, 0
13, 88319, Note_on_c, 15, 74, 0
13, 88319, Note_on_c, 15, 67, 0
13, 88319, Note_on_c, 15, 55, 0
13, 88320, Note_on_c, 15, 52, 72
13, 88320, Note_on_c, 15, 64, 72
13, 88320, Note_on_c, 15, 72, 72
13, 88320, Note_on_c, 15, 67, 72
13, 88559, Note_on_c, 15, 52, 0
13, 88559, Note_on_c, 15, 64, 0
13, 88559, Note_on_c, 15, 72, 0
13, 88559, Note_on_c, 15, 67, 0
13, 88560, Note_on_c, 15, 72, 72
13, 88560, Note_on_c, 15, 69, 72
13, 88560, Note_on_c, 15, 77, 72
13, 88560, Note_on_c, 15, 57, 72
13, 88799, Note_on_c, 15, 72, 0
13, 88799, Note_on_c, 15, 69, 0
13, 88799, Note_on_c, 15, 77, 0
13, 88799, Note_on_c, 15, 57, 0
13, 88800, Note_on_c, 15, 72, 72
13, 88800, Note_on_c, 15, 53, 72
13, 88800, Note_on_c, 15, 69, 72
13, 88800, Note_on_c, 15, 65, 72
13, 89039, Note_on_c, 15, 72, 0
13, 89039, Note_on_c, 15, 53, 0
13, 89039, Note_on_c, 15, 69, 0
13, 89039, Note_on_c, 15, 65, 0
13, 89040, Note_on_c, 15, 71, 72
13, 89040, Note_on_c, 15, 67, 72
13, 89040, Note_on_c, 15, 55, 72
13, 89040, Note_on_c, 15, 74, 72
13, 89279, Note_on_c, 15, 71, 0
13, 89279, Note_on_c, 15, 67, 0
13, 89279, Note_on_c, 15, 55, 0
13, 89279, Note_on_c, 15, 74, 0
13, 89280, Note_on_c, 15, 79, 72
13, 89280, Note_on_c, 15, 76, 72
13, 89280, Note_on_c, 15, 64, 72
13, 89280, Note_on_c, 15, 84, 72
13, 89399, Note_on_c, 15, 79, 0
13, 89399, Note_on_c, 15, 76, 0
13, 89399, Note_on_c, 15, 64, 0
13, 89399, Note_on_c, 15, 84, 0
13, 89400, Note_on_c, 15, 77, 72
13, 89400, Note_on_c, 15, 62, 72
13, 89400, Note_on_c, 15, 74, 72
13, 89400, Note_on_c, 15, 81, 72
13, 89519, Note_on_c, 15, 77, 0
13, 89519, Note_on_c, 15, 62, 0
13, 89519, Note_on_c, 15, 74, 0
13, 89519, Note_on_c, 15, 81, 0
13, 89520, Note_on_c, 15, 84, 72
13, 89520, Note_on_c, 15, 79, 72
13, 89520, Note_on_c, 15, 76, 72
13, 89520, Note_on_c, 15, 64, 72
13, 89639, Note_on_c, 15, 84, 0
13, 89639, Note_on_c, 15, 79, 0
13, 89639, Note_on_c, 15, 76, 0
13, 89639, Note_on_c, 15, 64, 0
13, 89640, Note_on_c, 15, 76, 72
13, 89640, Note_on_c, 15, 72, 72
13, 89640, Note_on_c, 15, 60, 72
13, 89640, Note_on_c, 15, 79, 72
13, 89759, Note_on_c, 15, 76, 0
13, 89759, Note_on_c, 15, 72, 0
13, 89759, Note_on_c, 15, 60, 0
13, 89759, Note_on_c, 15, 79, 0
13, 89760, Note_on_c, 15, 74, 72
13, 89760, Note_on_c, 15, 79, 72
13, 89760, Note_on_c, 15, 59, 72
13, 89760, Note_on_c, 15, 71, 72
13, 89999, Note_on_c, 15, 74, 0
13, 89999, Note_on_c, 15, 79, 0
13, 89999, Note_on_c, 15, 59, 0
13, 89999, Note_on_c, 15, 71, 0
13, 90000, Note_on_c, 15, 55, 72
13, 90000, Note_on_c, 15, 74, 72
13, 90000, Note_on_c, 15, 67, 72
13, 90000, Note_on_c, 15, 71, 72
13, 90239, Note_on_c, 15, 55, 0
13, 90239, Note_on_c, 15, 74, 0
13, 90239, Note_on_c, 15, 67, 0
13, 90239, Note_on_c, 15, 71, 0
13, 90240, Note_on_c, 15, 77, 72
13, 90240, Note_on_c, 15, 71, 72
13, 90240, Note_on_c, 15, 59, 72
13, 90240, Note_on_c, 15, 74, 72
13, 90240, Note_on_c, 15, 79, 72
13, 90479, Note_on_c, 15, 77, 0
13, 90479, Note_on_c, 15, 71, 0
13, 90479, Note_on_c, 15, 59, 0
13, 90479, Note_on_c, 15, 74, 0
13, 90479, Note_on_c, 15, 79, 0
13, 90480, Note_on_c, 15, 64, 72
13, 90480, Note_on_c, 15, 60, 72
13, 90480, Note_on_c, 15, 67, 72
13, 90480, Note_on_c, 15, 48, 72
13, 90719, Note_on_c, 15, 64, 0
13, 90719, Note_on_c, 15, 60, 0
13, 90719, Note_on_c, 15, 67, 0
13, 90719, Note_on_c, 15, 48, 0
13, 90720, Note_on_c, 15, 65, 72
13, 90720, Note_on_c, 15, 69, 72
13, 90720, Note_on_c, 15, 72, 72
13, 90720, Note_on_c, 15, 53, 72
13, 90839, Note_on_c, 15, 65, 0
13, 90839, Note_on_c, 15, 69, 0
13, 90839, Note_on_c, 15, 72, 0
13, 90839, Note_on_c, 15, 53, 0
13, 90840, Note_on_c, 15, 50, 72
13, 90840, Note_on_c, 15, 62, 72
13, 90840, Note_on_c, 15, 65, 72
13, 90840, Note_on_c, 15, 69, 72
13, 90959, Note_on_c, 15, 50, 0
13, 90959, Note_on_c, 15, 62, 0
13, 90959, Note_on_c, 15, 65, 0
13, 90959, Note_on_c, 15, 69, 0
13, 90960, Note_on_c, 15, 74, 72
13, 90960, Note_on_c, 15, 71, 72
13, 90960, Note_on_c, 15, 59, 72
13, 90960, Note_on_c, 15, 81, 72
13, 90960, Note_on_c, 15, 77, 72
13, 91199, Note_on_c, 15, 74, 0
13, 91199, Note_on_c, 15, 71, 0
13, 91199, Note_on_c, 15, 59, 0
13, 91199, Note_on_c, 15, 81, 0
13, 91199, Note_on_c, 15, 77, 0
13, 91200, Note_on_c, 15, 52, 72
13, 91200, Note_on_c, 15, 72, 72
13, 91200, Note_on_c, 15, 64, 72
13, 91200, Note_on_c, 15, 67, 72
13, 91439, Note_on_c, 15, 52, 0
13, 91439, Note_on_c, 15, 72, 0
13, 91439, Note_on_c, 15, 64, 0
13, 91439, Note_on_c, 15, 67, 0
13, 91440, Note_on_c, 15, 72, 72
13, 91440, Note_on_c, 15, 65, 72
13, 91440, Note_on_c, 15, 76, 72
13, 91440, Note_on_c, 15, 69, 72
13, 91440, Note_on_c, 15, 53, 72
13, 91679, Note_on_c, 15, 72, 0
13, 91679, Note_on_c, 15, 65, 0
13, 91679, Note_on_c, 15, 76, 0
13, 91679, Note_on_c, 15, 69, 0
13, 91679, Note_on_c, 15, 53, 0
13, 91680, Note_on_c, 15, 71, 72
13, 91680, Note_on_c, 15, 55, 72
13, 91680, Note_on_c, 15, 74, 72
13, 91680, Note_on_c, 15, 67, 72
13, 91919, Note_on_c, 15, 71, 0
13, 91919, Note_on_c, 15, 55, 0
13, 91919, Note_on_c, 15, 74, 0
13, 91919, Note_on_c, 15, 67, 0
13, 91920, Note_on_c, 15, 48, 72
13, 91920, Note_on_c, 15, 64, 72
13, 91920, Note_on_c, 15, 60, 72
13, 91920, Note_on_c, 15, 67, 72
13, 92039, Note_on_c, 15, 48, 0
13, 92039, Note_on_c, 15, 64, 0
13, 92039, Note_on_c, 15, 60, 0
13, 92039, Note_on_c, 15, 67, 0
13, 92040, Note_on_c, 15, 62, 72
13, 92040, Note_on_c, 15, 65, 72
13, 92040, Note_on_c, 15, 47, 72
13, 92040, Note_on_c, 15, 59, 72
13, 92159, Note_on_c, 15, 62, 0
13, 92159, Note_on_c, 15, 65, 0
13, 92159, Note_on_c, 15, 47, 0
13, 92159, Note_on_c, 15, 59, 0
13, 92160, Note_on_c, 15, 48, 72
13, 92160, Note_on_c, 15, 60, 72
13, 92160, Note_on_c, 15, 64, 72
13, 92160, Note_on_c, 15, 67, 72
13, 92279, Note_on_c, 15, 48, 0
13, 92279, Note_on_c, 15, 60, 0
13, 92279, Note_on_c, 15, 64, 0
13, 92279, Note_on_c, 15, 67, 0
13, 92280, Note_on_c, 15, 62, 72
13, 92280, Note_on_c, 15, 69, 72
13, 92280, Note_on_c, 15, 50, 72
13, 92280, Note_on_c, 15, 65, 72
13, 92399, Note_on_c, 15, 62, 0
13, 92399, Note_on_c, 15, 69, 0
13, 92399, Note_on_c, 15, 50, 0
13, 92399, Note_on_c, 15, 65, 0
13, 92400, Note_on_c, 15, 71, 72
13, 92400, Note_on_c, 15, 64, 72
13, 92400, Note_on_c, 15, 52, 72
13, 92400, Note_on_c, 15, 67, 72
13, 92519, Note_on_c, 15, 71, 0
13, 92519, Note_on_c, 15, 64, 0
13, 92519, Note_on_c, 15, 52, 0
13, 92519, Note_on_c, 15, 67, 0
13, 92520, Note_on_c, 15, 72, 72
13, 92520, Note_on_c, 15, 69, 72
13, 92520, Note_on_c, 15, 65, 72
13, 92520, Note_on_c, 15, 53, 72
13, 92639, Note_on_c, 15, 72, 0
13, 92639, Note_on_c, 15, 69, 0
13, 92639, Note_on_c, 15, 65, 0
13, 92639, Note_on_c, 15, 53, 0
13, 92640, Note_on_c, 15, 71, 72
13, 92640, Note_on_c, 15, 74, 72
13, 92640, Note_on_c, 15, 67, 72
13, 92640, Note_on_c, 15, 55, 72
13, 92879, Note_on_c, 15, 71, 0
13, 92879, Note_on_c, 15, 74, 0
13, 92879, Note_on_c, 15, 67, 0
13, 92879, Note_on_c, 15, 55, 0
13, 92880, Note_on_c, 15, 50, 72
13, 92880, Note_on_c, 15, 65, 72
13, 92880, Note_on_c, 15, 62, 72
13, 92880, Note_on_c, 15, 69, 72
13, 93119, Note_on_c, 15, 50, 0
13, 93119, Note_on_c, 15, 65, 0
13, 93119, Note_on_c, 15, 62, 0
13, 93119, Note_on_c, 15, 69, 0
13, 93120, Note_on_c, 15, 62, 72
13, 93120, Note_on_c, 15, 59, 72
13, 93120, Note_on_c, 15, 65, 72
13, 93120, Note_on_c, 15, 47, 72
13, 93359, Note_on_c, 15, 62, 0
13, 93359, Note_on_c, 15, 59, 0
13, 93359, Note_on_c, 15, 65, 0
13, 93359, Note_on_c, 15, 47, 0
13, 93360, Note_on_c, 15, 65, 72
13, 93360, Note_on_c, 15, 56, 72
13, 93360, Note_on_c, 15, 62, 72
13, 93360, Note_on_c, 15, 44, 72
13, 93360, Note_on_c, 15, 59, 72
13, 93599, Note_on_c, 15, 65, 0
13, 93599, Note_on_c, 15, 56, 0
13, 93599, Note_on_c, 15, 62, 0
13, 93599, Note_on_c, 15, 44, 0
13, 93599, Note_on_c, 15, 59, 0
13, 93600, Note_on_c, 15, 65, 72
13, 93600, Note_on_c, 15, 47, 72
13, 93600, Note_on_c, 15, 62, 72
13, 93600, Note_on_c, 15, 59, 72
13, 93719, Note_on_c, 15, 65, 0
13, 93719, Note_on_c, 15, 47, 0
13, 93719, Note_on_c, 15, 62, 0
13, 93719, Note_on_c, 15, 59, 0
13, 93720, Note_on_c, 15, 59, 72
13, 93720, Note_on_c, 15, 62, 72
13, 93720, Note_on_c, 15, 56, 72
13, 93720, Note_on_c, 15, 44, 72
13, 93839, Note_on_c, 15, 59, 0
13, 93839, Note_on_c, 15, 62, 0
13, 93839, Note_on_c, 15, 56, 0
13, 93839, Note_on_c, 15, 44, 0
13, 93840, Note_on_c, 15, 52, 72
13, 93840, Note_on_c, 15, 68, 72
13, 93840, Note_on_c, 15, 71, 72
13, 93840, Note_on_c, 15, 74, 72
13, 93840, Note_on_c, 15, 64, 72
13, 94079, Note_on_c, 15, 52, 0
13, 94079, Note_on_c, 15, 68, 0
13, 94079, Note_on_c, 15, 71, 0
13, 94079, Note_on_c, 15, 74, 0
13, 94079, Note_on_c, 15, 64, 0
13, 94080, Note_on_c, 15, 69, 72
13, 94080, Note_on_c, 15, 60, 72
13, 94080, Note_on_c, 15, 64, 72
13, 94080, Note_on_c, 15, 48, 72
13, 94319, Note_on_c, 15, 69, 0
13, 94319, Note_on_c, 15, 60, 0
13, 94319, Note_on_c, 15, 64, 0
13, 94319, Note_on_c, 15, 48, 0
13, 94320, Note_on_c, 15, 72, 72
13, 94320, Note_on_c, 15, 65, 72
13, 94320, Note_on_c, 15, 53, 72
13, 94320, Note_on_c, 15, 69, 72
13, 94559, Note_on_c, 15, 72, 0
13, 94559, Note_on_c, 15, 65, 0
13, 94559, Note_on_c, 15, 53, 0
13, 94559, Note_on_c, 15, 69, 0
13, 94560, Note_on_c, 15, 69, 72
13, 94560, Note_on_c, 15, 62, 72
13, 94560, Note_on_c, 15, 65, 72
13, 94560, Note_on_c, 15, 71, 72
13, 94560, Note_on_c, 15, 50, 72
13, 94799, Note_on_c, 15, 69, 0
13, 94799, Note_on_c, 15, 62, 0
13, 94799, Note_on_c, 15, 65, 0
13, 94799, Note_on_c, 15, 71, 0
13, 94799, Note_on_c, 15, 50, 0
13, 94800, Note_on_c, 15, 64, 72
13, 94800, Note_on_c, 15, 71, 72
13, 94800, Note_on_c, 15, 52, 72
13, 94800, Note_on_c, 15, 68, 72
13, 95039, Note_on_c, 15, 64, 0
13, 95039, Note_on_c, 15, 71, 0
13, 95039, Note_on_c, 15, 52, 0
13, 95039, Note_on_c, 15, 68, 0
13, 95040, Note_on_c, 15, 74, 72
13, 95040, Note_on_c, 15, 56, 72
13, 95040, Note_on_c, 15, 71, 72
13, 95040, Note_on_c, 15, 68, 72
13, 95159, Note_on_c, 15, 74, 0
13, 95159, Note_on_c, 15, 56, 0
13, 95159, Note_on_c, 15, 71, 0
13, 95159, Note_on_c, 15, 68, 0
13, 95160, Note_on_c, 15, 68, 72
13, 95160, Note_on_c, 15, 64, 72
13, 95160, Note_on_c, 15, 52, 72
13, 95160, Note_on_c, 15, 71, 72
13, 95279, Note_on_c, 15, 68, 0
13, 95279, Note_on_c, 15, 64, 0
13, 95279, Note_on_c, 15, 52, 0
13, 95279, Note_on_c, 15, 71, 0
13, 95280, Note_on_c, 15, 80, 72
13, 95280, Note_on_c, 15, 83, 72
13, 95280, Note_on_c, 15, 76, 72
13, 95280, Note_on_c, 15, 64, 72
13, 95519, Note_on_c, 15, 80, 0
13, 95519, Note_on_c, 15, 83, 0
13, 95519, Note_on_c, 15, 76, 0
13, 95519, Note_on_c, 15, 64, 0
13, 95520, Note_on_c, 15, 72, 72
13, 95520, Note_on_c, 15, 76, 72
13, 95520, Note_on_c, 15, 69, 72
13, 95520, Note_on_c, 15, 57, 72
13, 95759, Note_on_c, 15, 72, 0
13, 95759, Note_on_c, 15, 76, 0
13, 95759, Note_on_c, 15, 69, 0
13, 95759, Note_on_c, 15, 57, 0
13, 95760, Note_on_c, 15, 64, 72
13, 95760, Note_on_c, 15, 45, 72
13, 95760, Note_on_c, 15, 60, 72
13, 95760, Note_on_c, 15, 57, 72
13, 95999, Note_on_c, 15, 64, 0
13, 95999, Note_on_c, 15, 45, 0
13, 95999, Note_on_c, 15, 60, 0
13, 95999, Note_on_c, 15, 57, 0
13, 96000, Note_on_c, 15, 60, 72
13, 96000, Note_on_c, 15, 64, 72
13, 96000, Note_on_c, 15, 48, 72
13, 96000, Note_on_c, 15, 69, 72
13, 96239, Note_on_c, 15, 60, 0
13, 96239, Note_on_c, 15, 64, 0
13, 96239, Note_on_c, 15, 48, 0
13, 96239, Note_on_c, 15, 69, 0
13, 96240, Note_on_c, 15, 69, 72
13, 96240, Note_on_c, 15, 50, 72
13, 96240, Note_on_c, 15, 65, 72
13, 96240, Note_on_c, 15, 62, 72
13, 96479, Note_on_c, 15, 69, 0
13, 96479, Note_on_c, 15, 50, 0
13, 96479, Note_on_c, 15, 65, 0
13, 96479, Note_on_c, 15, 62, 0
13, 96480, Note_on_c, 15, 69, 72
13, 96480, Note_on_c, 15, 72, 72
13, 96480, Note_on_c, 15, 65, 72
13, 96480, Note_on_c, 15, 53, 72
13, 96599, Note_on_c, 15, 69, 0
13, 96599, Note_on_c, 15, 72, 0
13, 96599, Note_on_c, 15, 65, 0
13, 96599, Note_on_c, 15, 53, 0
13, 96600, Note_on_c, 15, 50, 72
13, 96600, Note_on_c, 15, 62, 72
13, 96600, Note_on_c, 15, 65, 72
13, 96600, Note_on_c, 15, 69, 72
13, 96719, Note_on_c, 15, 50, 0
13, 96719, Note_on_c, 15, 62, 0
13, 96719, Note_on_c, 15, 65, 0
13, 96719, Note_on_c, 15, 69, 0
13, 96720, Note_on_c, 15, 56, 72
13, 96720, Note_on_c, 15, 68, 72
13, 96720, Note_on_c, 15, 76, 72
13, 96720, Note_on_c, 15, 71, 72
13, 96720, Note_on_c, 15, 74, 72
13, 96959, Note_on_c, 15, 56, 0
13, 96959, Note_on_c, 15, 68, 0
13, 96959, Note_on_c, 15, 76, 0
13, 96959, Note_on_c, 15, 71, 0
13, 96959, Note_on_c, 15, 74, 0
13, 96960, Note_on_c, 15, 57, 72
13, 96960, Note_on_c, 15, 69, 72
13, 96960, Note_on_c, 15, 72, 72
13, 96960, Note_on_c, 15, 76, 72
13, 97199, Note_on_c, 15, 57, 0
13, 97199, Note_on_c, 15, 69, 0
13, 97199, Note_on_c, 15, 72, 0
13, 97199, Note_on_c, 15, 76, 0
13, 97200, Note_on_c, 15, 65, 72
13, 97200, Note_on_c, 15, 62, 72
13, 97200, Note_on_c, 15, 71, 72
13, 97200, Note_on_c, 15, 69, 72
13, 97200, Note_on_c, 15, 50, 72
13, 97439, Note_on_c, 15, 65, 0
13, 97439, Note_on_c, 15, 62, 0
13, 97439, Note_on_c, 15, 71, 0
13, 97439, Note_on_c, 15, 69, 0
13, 97439, Note_on_c, 15, 50, 0
13, 97440, Note_on_c, 15, 52, 72
13, 97440, Note_on_c, 15, 71, 72
13, 97440, Note_on_c, 15, 64, 72
13, 97440, Note_on_c, 15, 68, 72
13, 97679, Note_on_c, 15, 52, 0
13, 97679, Note_on_c, 15, 71, 0
13, 97679, Note_on_c, 15, 64, 0
13, 97679, Note_on_c, 15, 68, 0
13, 97680, Note_on_c, 15, 45, 72
13, 97680, Note_on_c, 15, 60, 72
13, 97680, Note_on_c, 15, 57, 72
13, 97680, Note_on_c, 15, 64, 72
13, 97919, Note_on_c, 15, 45, 0
13, 97919, Note_on_c, 15, 60, 0
13, 97919, Note_on_c, 15, 57, 0
13, 97919, Note_on_c, 15, 64, 0
13, 97920, Note_on_c, 15, 67, 72
13, 97920, Note_on_c, 15, 48, 72
13, 97920, Note_on_c, 15, 60, 72
13, 97920, Note_on_c, 15, 64, 72
13, 98039, Note_on_c, 15, 67, 0
13, 98039, Note_on_c, 15, 48, 0
13, 98039, Note_on_c, 15, 60, 0
13, 98039, Note_on_c, 15, 64, 0
13, 98040, Note_on_c, 15, 64, 72
13, 98040, Note_on_c, 15, 45, 72
13, 98040, Note_on_c, 15, 57, 72
13, 98040, Note_on_c, 15, 60, 72
13, 98159, Note_on_c, 15, 64, 0
13, 98159, Note_on_c, 15, 45, 0
13, 98159, Note_on_c, 15, 57, 0
13, 98159, Note_on_c, 15, 60, 0
13, 98160, Note_on_c, 15, 65, 72
13, 98160, Note_on_c, 15, 53, 72
13, 98160, Note_on_c, 15, 69, 72
13, 98160, Note_on_c, 15, 72, 72
13, 98399, Note_on_c, 15, 65, 0
13, 98399, Note_on_c, 15, 53, 0
13, 98399, Note_on_c, 15, 69, 0
13, 98399, Note_on_c, 15, 72, 0
13, 98400, Note_on_c, 15, 52, 72
13, 98400, Note_on_c, 15, 67, 72
13, 98400, Note_on_c, 15, 72, 72
13, 98400, Note_on_c, 15, 64, 72
13, 98639, Note_on_c, 15, 52, 0
13, 98639, Note_on_c, 15, 67, 0
13, 98639, Note_on_c, 15, 72, 0
13, 98639, Note_on_c, 15, 64, 0
13, 98640, Note_on_c, 15, 48, 72
13, 98640, Note_on_c, 15, 60, 72
13, 98640, Note_on_c, 15, 64, 72
13, 98640, Note_on_c, 15, 67, 72
13, 98879, Note_on_c, 15, 48, 0
13, 98879, Note_on_c, 15, 60, 0
13, 98879, Note_on_c, 15, 64, 0
13, 98879, Note_on_c, 15, 67, 0
13, 98880, Note_on_c, 15, 76, 72
13, 98880, Note_on_c, 15, 60, 72
13, 98880, Note_on_c, 15, 79, 72
13, 98880, Note_on_c, 15, 72, 72
13, 99119, Note_on_c, 15, 76, 0
13, 99119, Note_on_c, 15, 60, 0
13, 99119, Note_on_c, 15, 79, 0
13, 99119, Note_on_c, 15, 72, 0
13, 99120, Note_on_c, 15, 53, 72
13, 99120, Note_on_c, 15, 69, 72
13, 99120, Note_on_c, 15, 65, 72
13, 99120, Note_on_c, 15, 72, 72
13, 99239, Note_on_c, 15, 53, 0
13, 99239, Note_on_c, 15, 69, 0
13, 99239, Note_on_c, 15, 65, 0
13, 99239, Note_on_c, 15, 72, 0
13, 99240, Note_on_c, 15, 67, 72
13, 99240, Note_on_c, 15, 64, 72
13, 99240, Note_on_c, 15, 71, 72
13, 99240, Note_on_c, 15, 52, 72
13, 99359, Note_on_c, 15, 67, 0
13, 99359, Note_on_c, 15, 64, 0
13, 99359, Note_on_c, 15, 71, 0
13, 99359, Note_on_c, 15, 52, 0
13, 99360, Note_on_c, 15, 65, 72
13, 99360, Note_on_c, 15, 71, 72
13, 99360, Note_on_c, 15, 53, 72
13, 99360, Note_on_c, 15, 67, 72
13, 99360, Note_on_c, 15, 74, 72
13, 99479, Note_on_c, 15, 65, 0
13, 99479, Note_on_c, 15, 71, 0
13, 99479, Note_on_c, 15, 53, 0
13, 99479, Note_on_c, 15, 67, 0
13, 99479, Note_on_c, 15, 74, 0
13, 99480, Note_on_c, 15, 62, 72
13, 99480, Note_on_c, 15, 65, 72
13, 99480, Note_on_c, 15, 50, 72
13, 99480, Note_on_c, 15, 69, 72
13, 99599, Note_on_c, 15, 62, 0
13, 99599, Note_on_c, 15, 65, 0
13, 99599, Note_on_c, 15, 50, 0
13, 99599, Note_on_c, 15, 69, 0
13, 99600, Note_on_c, 15, 74, 72
13, 99600, Note_on_c, 15, 71, 72
13, 99600, Note_on_c, 15, 55, 72
13, 99600, Note_on_c, 15, 67, 72
13, 99839, Note_on_c, 15, 74, 0
13, 99839, Note_on_c, 15, 71, 0
13, 99839, Note_on_c, 15, 55, 0
13, 99839, Note_on_c, 15, 67, 0
13, 99840, Note_on_c, 15, 67, 72
13, 99840, Note_on_c, 15, 72, 72
13, 99840, Note_on_c, 15, 64, 72
13, 99840, Note_on_c, 15, 52, 72
13, 100079, Note_on_c, 15, 67, 0
13, 100079, Note_on_c, 15, 72, 0
13, 100079, Note_on_c, 15, 64, 0
13, 100079, Note_on_c, 15, 52, 0
13, 100080, Note_on_c, 15, 57, 72
13, 100080, Note_on_c, 15, 69, 72
13, 100080, Note_on_c, 15, 72, 72
13, 100080, Note_on_c, 15, 77, 72
13, 100319, Note_on_c, 15, 57, 0
13, 100319, Note_on_c, 15, 69, 0
13, 100319, Note_on_c, 15, 72, 0
13, 100319, Note_on_c, 15, 77, 0
13, 100320, Note_on_c, 15, 53, 72
13, 100320, Note_on_c, 15, 72, 72
13, 100320, Note_on_c, 15, 69, 72
13, 100320, Note_on_c, 15, 65, 72
13, 100559, Note_on_c, 15, 53, 0
13, 100559, Note_on_c, 15, 72, 0
13, 100559, Note_on_c, 15, 69, 0
13, 100559, Note_on_c, 15, 65, 0
13, 100560, Note_on_c, 15, 55, 72
13, 100560, Note_on_c, 15, 71, 72
13, 100560, Note_on_c, 15, 74, 72
13, 100560, Note_on_c, 15, 67, 72
13, 100799, Note_on_c, 15, 55, 0
13, 100799, Note_on_c, 15, 71, 0
13, 100799, Note_on_c, 15, 74, 0
13, 100799, Note_on_c, 15, 67, 0
13, 100800, Note_on_c, 15, 64, 72
13, 100800, Note_on_c, 15, 79, 72
13, 100800, Note_on_c, 15, 84, 72
13, 100800, Note_on_c, 15, 76, 72
13, 100919, Note_on_c, 15, 64, 0
13, 100919, Note_on_c, 15, 79, 0
13, 100919, Note_on_c, 15, 84, 0
13, 100919, Note_on_c, 15, 76, 0
13, 100920, Note_on_c, 15, 77, 72
13, 100920, Note_on_c, 15, 74, 72
13, 100920, Note_on_c, 15, 81, 72
13, 100920, Note_on_c, 15, 62, 72
13, 101039, Note_on_c, 15, 77, 0
13, 101039, Note_on_c, 15, 74, 0
13, 101039, Note_on_c, 15, 81, 0
13, 101039, Note_on_c, 15, 62, 0
13, 101040, Note_on_c, 15, 76, 72
13, 101040, Note_on_c, 15, 64, 72
13, 101040, Note_on_c, 15, 79, 72
13, 101040, Note_on_c, 15, 84, 72
13, 101159, Note_on_c, 15, 76, 0
13, 101159, Note_on_c, 15, 64, 0
13, 101159, Note_on_c, 15, 79, 0
13, 101159, Note_on_c, 15, 84, 0
13, 101160, Note_on_c, 15, 60, 72
13, 101160, Note_on_c, 15, 72, 72
13, 101160, Note_on_c, 15, 76, 72
13, 101160, Note_on_c, 15, 79, 72
13, 101279, Note_on_c, 15, 60, 0
13, 101279, Note_on_c, 15, 72, 0
13, 101279, Note_on_c, 15, 76, 0
13, 101279, Note_on_c, 15, 79, 0
13, 101280, Note_on_c, 15, 71, 72
13, 101280, Note_on_c, 15, 59, 72
13, 101280, Note_on_c, 15, 79, 72
13, 101280, Note_on_c, 15, 74, 72
13, 101519, Note_on_c, 15, 71, 0
13, 101519, Note_on_c, 15, 59, 0
13, 101519, Note_on_c, 15, 79, 0
13, 101519, Note_on_c, 15, 74, 0
13, 101520, Note_on_c, 15, 74, 72
13, 101520, Note_on_c, 15, 71, 72
13, 101520, Note_on_c, 15, 55, 72
13, 101520, Note_on_c, 15, 67, 72
13, 101759, Note_on_c, 15, 74, 0
13, 101759, Note_on_c, 15, 71, 0
13, 101759, Note_on_c, 15, 55, 0
13, 101759, Note_on_c, 15, 67, 0
13, 101760, Note_on_c, 15, 77, 72
13, 101760, Note_on_c, 15, 79, 72
13, 101760, Note_on_c, 15, 74, 72
13, 101760, Note_on_c, 15, 71, 72
13, 101760, Note_on_c, 15, 59, 72
13, 101999, Note_on_c, 15, 77, 0
13, 101999, Note_on_c, 15, 79, 0
13, 101999, Note_on_c, 15, 74, 0
13, 101999, Note_on_c, 15, 71, 0
13, 101999, Note_on_c, 15, 59, 0
13, 102000, Note_on_c, 15, 67, 72
13, 102000, Note_on_c, 15, 64, 72
13, 102000, Note_on_c, 15, 48, 72
13, 102000, Note_on_c, 15, 60, 72
13, 102239, Note_on_c, 15, 67, 0
13, 102239, Note_on_c, 15, 64, 0
13, 102239, Note_on_c, 15, 48, 0
13, 102239, Note_on_c, 15, 60, 0
13, 102240, Note_on_c, 15, 65, 72
13, 102240, Note_on_c, 15, 72, 72
13, 102240, Note_on_c, 15, 69, 72
13, 102240, Note_on_c, 15, 53, 72
13, 102359, Note_on_c, 15, 65, 0
13, 102359, Note_on_c, 15, 72, 0
13, 102359, Note_on_c, 15, 69, 0
13, 102359, Note_on_c, 15, 53, 0
13, 102360, Note_on_c, 15, 69, 72
13, 102360, Note_on_c, 15, 65, 72
13, 102360, Note_on_c, 15, 50, 72
13, 102360, Note_on_c, 15, 62, 72
13, 102479, Note_on_c, 15, 69, 0
13, 102479, Note_on_c, 15, 65, 0
13, 102479, Note_on_c, 15, 50, 0
13, 102479, Note_on_c, 15, 62, 0
13, 102480, Note_on_c, 15, 59, 72
13, 102480, Note_on_c, 15, 81, 72
13, 102480, Note_on_c, 15, 71, 72
13, 102480, Note_on_c, 15, 77, 72
13, 102480, Note_on_c, 15, 74, 72
13, 102719, Note_on_c, 15, 59, 0
13, 102719, Note_on_c, 15, 81, 0
13, 102719, Note_on_c, 15, 71, 0
13, 102719, Note_on_c, 15, 77, 0
13, 102719, Note_on_c, 15, 74, 0
13, 102720, Note_on_c, 15, 67, 72
13, 102720, Note_on_c, 15, 64, 72
13, 102720, Note_on_c, 15, 72, 72
13, 102720, Note_on_c, 15, 52, 72
13, 102959, Note_on_c, 15, 67, 0
13, 102959, Note_on_c, 15, 64, 0
13, 102959, Note_on_c, 15, 72, 0
13, 102959, Note_on_c, 15, 52, 0
13, 102960, Note_on_c, 15, 72, 72
13, 102960, Note_on_c, 15, 76, 72
13, 102960, Note_on_c, 15, 69, 72
13, 102960, Note_on_c, 15, 53, 72
13, 102960, Note_on_c, 15, 65, 72
13, 103199, Note_on_c, 15, 72, 0
13, 103199, Note_on_c, 15, 76, 0
13, 103199, Note_on_c, 15, 69, 0
13, 103199, Note_on_c, 15, 53, 0
13, 103199, Note_on_c, 15, 65, 0
13, 103200, Note_on_c, 15, 74, 72
13, 103200, Note_on_c, 15, 55, 72
13, 103200, Note_on_c, 15, 71, 72
13, 103200, Note_on_c, 15, 67, 72
13, 103439, Note_on_c, 15, 74, 0
13, 103439, Note_on_c, 15, 55, 0
13, 103439, Note_on_c, 15, 71, 0
13, 103439, Note_on_c, 15, 67, 0
13, 103440, Note_on_c, 15, 64, 72
13, 103440, Note_on_c, 15, 48, 72
13, 103440, Note_on_c, 15, 60, 72
13, 103440, Note_on_c, 15, 67, 72
13, 104159, Note_on_c, 15, 64, 0
13, 104159, Note_on_c, 15, 48, 0
13, 104159, Note_on_c, 15, 60, 0
13, 104159, Note_on_c, 15, 67, 0
13, 104159, End_track
14, 0, Start_track
14, 0, Title_t, "Johann Sebastian Bach - Orchestral Suite No. 1 in C Major, BWV1066 - No. 5 Menuet"
14, 0, MIDI_port, 0
14, 0, End_track
0, 0, End_of_file
