0, 0, Header, 1, 13, 240
1, 0, Start_track
1, 0, Title_t, "(Ohne Titel)"
1, 0, Time_signature, 4, 2, 24, 8
1, 0, Key_signature, 0, "major"
1, 0, Tempo, 857142
1, 0, End_track
2, 0, Start_track
2, 0, Sequence_number, 65535
2, 0, MIDI_port, 0
2, 0, Title_t, "Flauto traverso"
2, 0, Control_c, 0, 0, 0
2, 0, Control_c, 0, 32, 0
2, 0, Program_c, 0, 73
2, 0, Control_c, 0, 7, 100
2, 0, Control_c, 0, 10, 54
2, 7680, Note_on_c, 0, 76, 100
2, 8544, Note_on_c, 0, 76, 0
2, 8640, Note_on_c, 0, 76, 100
2, 8694, Note_on_c, 0, 76, 0
2, 8700, Note_on_c, 0, 69, 100
2, 8754, Note_on_c, 0, 69, 0
2, 8760, Note_on_c, 0, 72, 100
2, 8814, Note_on_c, 0, 72, 0
2, 8820, Note_on_c, 0, 76, 100
2, 8874, Note_on_c, 0, 76, 0
2, 8880, Note_on_c, 0, 81, 100
2, 8916, Note_on_c, 0, 81, 0
2, 8920, Note_on_c, 0, 83, 100
2, 8956, Note_on_c, 0, 83, 0
2, 8960, Note_on_c, 0, 84, 100
2, 8996, Note_on_c, 0, 84, 0
2, 9000, Note_on_c, 0, 83, 100
2, 9036, Note_on_c, 0, 83, 0
2, 9040, Note_on_c, 0, 81, 100
2, 9076, Note_on_c, 0, 81, 0
2, 9080, Note_on_c, 0, 80, 100
2, 9116, Note_on_c, 0, 80, 0
2, 9120, Note_on_c, 0, 81, 100
2, 9156, Note_on_c, 0, 81, 0
2, 9160, Note_on_c, 0, 79, 100
2, 9196, Note_on_c, 0, 79, 0
2, 9200, Note_on_c, 0, 77, 100
2, 9236, Note_on_c, 0, 77, 0
2, 9240, Note_on_c, 0, 76, 100
2, 9276, Note_on_c, 0, 76, 0
2, 9280, Note_on_c, 0, 77, 100
2, 9316, Note_on_c, 0, 77, 0
2, 9320, Note_on_c, 0, 74, 100
2, 9356, Note_on_c, 0, 74, 0
2, 9360, Note_on_c, 0, 76, 100
2, 9441, Note_on_c, 0, 76, 0
2, 9450, Note_on_c, 0, 69, 100
2, 9477, Note_on_c, 0, 69, 0
2, 9480, Note_on_c, 0, 68, 100
2, 9561, Note_on_c, 0, 68, 0
2, 9570, Note_on_c, 0, 74, 100
2, 9597, Note_on_c, 0, 74, 0
2, 9600, Note_on_c, 0, 72, 100
2, 9708, Note_on_c, 0, 72, 0
2, 9960, Note_on_c, 0, 79, 100
2, 9996, Note_on_c, 0, 79, 0
2, 10000, Note_on_c, 0, 77, 100
2, 10036, Note_on_c, 0, 77, 0
2, 10040, Note_on_c, 0, 76, 100
2, 10076, Note_on_c, 0, 76, 0
2, 10080, Note_on_c, 0, 74, 100
2, 10188, Note_on_c, 0, 74, 0
2, 10440, Note_on_c, 0, 77, 100
2, 10476, Note_on_c, 0, 77, 0
2, 10480, Note_on_c, 0, 76, 100
2, 10516, Note_on_c, 0, 76, 0
2, 10520, Note_on_c, 0, 74, 100
2, 10556, Note_on_c, 0, 74, 0
2, 10560, Note_on_c, 0, 72, 100
2, 10668, Note_on_c, 0, 72, 0
2, 10920, Note_on_c, 0, 72, 100
2, 10956, Note_on_c, 0, 72, 0
2, 10960, Note_on_c, 0, 74, 100
2, 10996, Note_on_c, 0, 74, 0
2, 11000, Note_on_c, 0, 76, 100
2, 11036, Note_on_c, 0, 76, 0
2, 11040, Note_on_c, 0, 77, 100
2, 11148, Note_on_c, 0, 77, 0
2, 11400, Note_on_c, 0, 69, 100
2, 11436, Note_on_c, 0, 69, 0
2, 11440, Note_on_c, 0, 71, 100
2, 11476, Note_on_c, 0, 71, 0
2, 11480, Note_on_c, 0, 72, 100
2, 11516, Note_on_c, 0, 72, 0
2, 11520, Note_on_c, 0, 74, 100
2, 11628, Note_on_c, 0, 74, 0
2, 11880, Note_on_c, 0, 77, 100
2, 11988, Note_on_c, 0, 77, 0
2, 12000, Note_on_c, 0, 76, 100
2, 12036, Note_on_c, 0, 76, 0
2, 12040, Note_on_c, 0, 74, 100
2, 12076, Note_on_c, 0, 74, 0
2, 12080, Note_on_c, 0, 72, 100
2, 12116, Note_on_c, 0, 72, 0
2, 12120, Note_on_c, 0, 81, 100
2, 12276, Note_on_c, 0, 81, 0
2, 12280, Note_on_c, 0, 83, 100
2, 12316, Note_on_c, 0, 83, 0
2, 12320, Note_on_c, 0, 84, 100
2, 12356, Note_on_c, 0, 84, 0
2, 12360, Note_on_c, 0, 83, 100
2, 12396, Note_on_c, 0, 83, 0
2, 12400, Note_on_c, 0, 84, 100
2, 12436, Note_on_c, 0, 84, 0
2, 12440, Note_on_c, 0, 81, 100
2, 12476, Note_on_c, 0, 81, 0
2, 12480, Note_on_c, 0, 80, 100
2, 12516, Note_on_c, 0, 80, 0
2, 12520, Note_on_c, 0, 76, 100
2, 12556, Note_on_c, 0, 76, 0
2, 12560, Note_on_c, 0, 76, 100
2, 12596, Note_on_c, 0, 76, 0
2, 12600, Note_on_c, 0, 77, 100
2, 12636, Note_on_c, 0, 77, 0
2, 12640, Note_on_c, 0, 75, 100
2, 12676, Note_on_c, 0, 75, 0
2, 12680, Note_on_c, 0, 76, 100
2, 12716, Note_on_c, 0, 76, 0
2, 12720, Note_on_c, 0, 77, 100
2, 12756, Note_on_c, 0, 77, 0
2, 12760, Note_on_c, 0, 75, 100
2, 12796, Note_on_c, 0, 75, 0
2, 12800, Note_on_c, 0, 76, 100
2, 12836, Note_on_c, 0, 76, 0
2, 12840, Note_on_c, 0, 77, 100
2, 12876, Note_on_c, 0, 77, 0
2, 12880, Note_on_c, 0, 75, 100
2, 12916, Note_on_c, 0, 75, 0
2, 12920, Note_on_c, 0, 76, 100
2, 12956, Note_on_c, 0, 76, 0
2, 12960, Note_on_c, 0, 68, 100
2, 12996, Note_on_c, 0, 68, 0
2, 13000, Note_on_c, 0, 69, 100
2, 13036, Note_on_c, 0, 69, 0
2, 13040, Note_on_c, 0, 71, 100
2, 13076, Note_on_c, 0, 71, 0
2, 13080, Note_on_c, 0, 69, 100
2, 13116, Note_on_c, 0, 69, 0
2, 13120, Note_on_c, 0, 71, 100
2, 13156, Note_on_c, 0, 71, 0
2, 13160, Note_on_c, 0, 72, 100
2, 13196, Note_on_c, 0, 72, 0
2, 13200, Note_on_c, 0, 71, 100
2, 13236, Note_on_c, 0, 71, 0
2, 13240, Note_on_c, 0, 76, 100
2, 13276, Note_on_c, 0, 76, 0
2, 13280, Note_on_c, 0, 74, 100
2, 13316, Note_on_c, 0, 74, 0
2, 13320, Note_on_c, 0, 72, 100
2, 13356, Note_on_c, 0, 72, 0
2, 13360, Note_on_c, 0, 71, 100
2, 13396, Note_on_c, 0, 71, 0
2, 13400, Note_on_c, 0, 69, 100
2, 13436, Note_on_c, 0, 69, 0
2, 13440, Note_on_c, 0, 68, 100
2, 13548, Note_on_c, 0, 68, 0
2, 13560, Note_on_c, 0, 81, 100
2, 13596, Note_on_c, 0, 81, 0
2, 13600, Note_on_c, 0, 83, 100
2, 13636, Note_on_c, 0, 83, 0
2, 13640, Note_on_c, 0, 84, 100
2, 13676, Note_on_c, 0, 84, 0
2, 13680, Note_on_c, 0, 83, 100
2, 13788, Note_on_c, 0, 83, 0
2, 13800, Note_on_c, 0, 81, 100
2, 13836, Note_on_c, 0, 81, 0
2, 13840, Note_on_c, 0, 83, 100
2, 13876, Note_on_c, 0, 83, 0
2, 13880, Note_on_c, 0, 84, 100
2, 13916, Note_on_c, 0, 84, 0
2, 13920, Note_on_c, 0, 83, 100
2, 13956, Note_on_c, 0, 83, 0
2, 13960, Note_on_c, 0, 81, 100
2, 13996, Note_on_c, 0, 81, 0
2, 14000, Note_on_c, 0, 80, 100
2, 14036, Note_on_c, 0, 80, 0
2, 14040, Note_on_c, 0, 88, 100
2, 14364, Note_on_c, 0, 88, 0
2, 14400, Note_on_c, 0, 88, 100
2, 14508, Note_on_c, 0, 88, 0
2, 14920, Note_on_c, 0, 76, 100
2, 14956, Note_on_c, 0, 76, 0
2, 14960, Note_on_c, 0, 78, 100
2, 14996, Note_on_c, 0, 78, 0
2, 15000, Note_on_c, 0, 79, 100
2, 15036, Note_on_c, 0, 79, 0
2, 15040, Note_on_c, 0, 78, 100
2, 15076, Note_on_c, 0, 78, 0
2, 15080, Note_on_c, 0, 79, 100
2, 15116, Note_on_c, 0, 79, 0
2, 15120, Note_on_c, 0, 69, 100
2, 15156, Note_on_c, 0, 69, 0
2, 15160, Note_on_c, 0, 76, 100
2, 15196, Note_on_c, 0, 76, 0
2, 15200, Note_on_c, 0, 78, 100
2, 15236, Note_on_c, 0, 78, 0
2, 15240, Note_on_c, 0, 79, 100
2, 15276, Note_on_c, 0, 79, 0
2, 15280, Note_on_c, 0, 78, 100
2, 15316, Note_on_c, 0, 78, 0
2, 15320, Note_on_c, 0, 76, 100
2, 15356, Note_on_c, 0, 76, 0
2, 15360, Note_on_c, 0, 78, 100
2, 15468, Note_on_c, 0, 78, 0
2, 15720, Note_on_c, 0, 81, 100
2, 15756, Note_on_c, 0, 81, 0
2, 15760, Note_on_c, 0, 79, 100
2, 15796, Note_on_c, 0, 79, 0
2, 15800, Note_on_c, 0, 78, 100
2, 15836, Note_on_c, 0, 78, 0
2, 15840, Note_on_c, 0, 79, 100
2, 15948, Note_on_c, 0, 79, 0
2, 16120, Note_on_c, 0, 77, 100
2, 16156, Note_on_c, 0, 77, 0
2, 16160, Note_on_c, 0, 79, 100
2, 16196, Note_on_c, 0, 79, 0
2, 16200, Note_on_c, 0, 81, 100
2, 16236, Note_on_c, 0, 81, 0
2, 16240, Note_on_c, 0, 79, 100
2, 16276, Note_on_c, 0, 79, 0
2, 16280, Note_on_c, 0, 77, 100
2, 16316, Note_on_c, 0, 77, 0
2, 16320, Note_on_c, 0, 76, 100
2, 16428, Note_on_c, 0, 76, 0
2, 17400, Note_on_c, 0, 84, 100
2, 17436, Note_on_c, 0, 84, 0
2, 17440, Note_on_c, 0, 83, 100
2, 17476, Note_on_c, 0, 83, 0
2, 17480, Note_on_c, 0, 81, 100
2, 17516, Note_on_c, 0, 81, 0
2, 17520, Note_on_c, 0, 79, 100
2, 17556, Note_on_c, 0, 79, 0
2, 17560, Note_on_c, 0, 78, 100
2, 17596, Note_on_c, 0, 78, 0
2, 17600, Note_on_c, 0, 76, 100
2, 17636, Note_on_c, 0, 76, 0
2, 17640, Note_on_c, 0, 75, 100
2, 17676, Note_on_c, 0, 75, 0
2, 17680, Note_on_c, 0, 76, 100
2, 17716, Note_on_c, 0, 76, 0
2, 17720, Note_on_c, 0, 78, 100
2, 17756, Note_on_c, 0, 78, 0
2, 17760, Note_on_c, 0, 71, 100
2, 17922, Note_on_c, 0, 71, 0
2, 17940, Note_on_c, 0, 73, 100
2, 17967, Note_on_c, 0, 73, 0
2, 17970, Note_on_c, 0, 75, 100
2, 17997, Note_on_c, 0, 75, 0
2, 18000, Note_on_c, 0, 76, 100
2, 18036, Note_on_c, 0, 76, 0
2, 18040, Note_on_c, 0, 78, 100
2, 18076, Note_on_c, 0, 78, 0
2, 18080, Note_on_c, 0, 79, 100
2, 18116, Note_on_c, 0, 79, 0
2, 18120, Note_on_c, 0, 81, 100
2, 18156, Note_on_c, 0, 81, 0
2, 18160, Note_on_c, 0, 83, 100
2, 18196, Note_on_c, 0, 83, 0
2, 18200, Note_on_c, 0, 84, 100
2, 18236, Note_on_c, 0, 84, 0
2, 18240, Note_on_c, 0, 83, 100
2, 18276, Note_on_c, 0, 83, 0
2, 18280, Note_on_c, 0, 81, 100
2, 18316, Note_on_c, 0, 81, 0
2, 18320, Note_on_c, 0, 79, 100
2, 18356, Note_on_c, 0, 79, 0
2, 18360, Note_on_c, 0, 78, 100
2, 18396, Note_on_c, 0, 78, 0
2, 18400, Note_on_c, 0, 79, 100
2, 18436, Note_on_c, 0, 79, 0
2, 18440, Note_on_c, 0, 76, 100
2, 18476, Note_on_c, 0, 76, 0
2, 18480, Note_on_c, 0, 71, 100
2, 18561, Note_on_c, 0, 71, 0
2, 18570, Note_on_c, 0, 76, 100
2, 18597, Note_on_c, 0, 76, 0
2, 18600, Note_on_c, 0, 78, 100
2, 18681, Note_on_c, 0, 78, 0
2, 18690, Note_on_c, 0, 75, 100
2, 18717, Note_on_c, 0, 75, 0
2, 18720, Note_on_c, 0, 76, 100
2, 18801, Note_on_c, 0, 76, 0
2, 18810, Note_on_c, 0, 64, 100
2, 18837, Note_on_c, 0, 64, 0
2, 18840, Note_on_c, 0, 72, 100
2, 18876, Note_on_c, 0, 72, 0
2, 18880, Note_on_c, 0, 71, 100
2, 18916, Note_on_c, 0, 71, 0
2, 18920, Note_on_c, 0, 69, 100
2, 18956, Note_on_c, 0, 69, 0
2, 18960, Note_on_c, 0, 67, 100
2, 19068, Note_on_c, 0, 67, 0
2, 19080, Note_on_c, 0, 66, 100
2, 19188, Note_on_c, 0, 66, 0
2, 19200, Note_on_c, 0, 64, 100
2, 19308, Note_on_c, 0, 64, 0
2, 20280, Note_on_c, 0, 71, 100
2, 20388, Note_on_c, 0, 71, 0
2, 20400, Note_on_c, 0, 71, 100
2, 20694, Note_on_c, 0, 71, 0
2, 20700, Note_on_c, 0, 64, 100
2, 20754, Note_on_c, 0, 64, 0
2, 20760, Note_on_c, 0, 67, 100
2, 20814, Note_on_c, 0, 67, 0
2, 20820, Note_on_c, 0, 71, 100
2, 20874, Note_on_c, 0, 71, 0
2, 20880, Note_on_c, 0, 76, 100
2, 20916, Note_on_c, 0, 76, 0
2, 20920, Note_on_c, 0, 78, 100
2, 20956, Note_on_c, 0, 78, 0
2, 20960, Note_on_c, 0, 79, 100
2, 20996, Note_on_c, 0, 79, 0
2, 21000, Note_on_c, 0, 78, 100
2, 21036, Note_on_c, 0, 78, 0
2, 21040, Note_on_c, 0, 76, 100
2, 21076, Note_on_c, 0, 76, 0
2, 21080, Note_on_c, 0, 75, 100
2, 21116, Note_on_c, 0, 75, 0
2, 21120, Note_on_c, 0, 76, 100
2, 21228, Note_on_c, 0, 76, 0
2, 21240, Note_on_c, 0, 88, 100
2, 21276, Note_on_c, 0, 88, 0
2, 21280, Note_on_c, 0, 86, 100
2, 21316, Note_on_c, 0, 86, 0
2, 21320, Note_on_c, 0, 84, 100
2, 21356, Note_on_c, 0, 84, 0
2, 21360, Note_on_c, 0, 83, 100
2, 21468, Note_on_c, 0, 83, 0
2, 21720, Note_on_c, 0, 84, 100
2, 21756, Note_on_c, 0, 84, 0
2, 21760, Note_on_c, 0, 86, 100
2, 21796, Note_on_c, 0, 86, 0
2, 21800, Note_on_c, 0, 88, 100
2, 21836, Note_on_c, 0, 88, 0
2, 21840, Note_on_c, 0, 81, 100
2, 21948, Note_on_c, 0, 81, 0
2, 22320, Note_on_c, 0, 81, 100
2, 22536, Note_on_c, 0, 81, 0
2, 22560, Note_on_c, 0, 79, 100
2, 22776, Note_on_c, 0, 79, 0
2, 22800, Note_on_c, 0, 78, 100
2, 23016, Note_on_c, 0, 78, 0
2, 23040, Note_on_c, 0, 76, 100
2, 23148, Note_on_c, 0, 76, 0
2, 23160, Note_on_c, 0, 69, 100
2, 23268, Note_on_c, 0, 69, 0
2, 23280, Note_on_c, 0, 67, 100
2, 23388, Note_on_c, 0, 67, 0
2, 23400, Note_on_c, 0, 63, 100
2, 23508, Note_on_c, 0, 63, 0
2, 23520, Note_on_c, 0, 64, 100
2, 23628, Note_on_c, 0, 64, 0
2, 23700, Note_on_c, 0, 76, 100
2, 23754, Note_on_c, 0, 76, 0
2, 23760, Note_on_c, 0, 75, 100
2, 23841, Note_on_c, 0, 75, 0
2, 23850, Note_on_c, 0, 78, 100
2, 23877, Note_on_c, 0, 78, 0
2, 23880, Note_on_c, 0, 71, 100
2, 23961, Note_on_c, 0, 71, 0
2, 23970, Note_on_c, 0, 78, 100
2, 23997, Note_on_c, 0, 78, 0
2, 24000, Note_on_c, 0, 79, 100
2, 24108, Note_on_c, 0, 79, 0
2, 24120, Note_on_c, 0, 83, 100
2, 24228, Note_on_c, 0, 83, 0
2, 24240, Note_on_c, 0, 79, 100
2, 24348, Note_on_c, 0, 79, 0
2, 24360, Note_on_c, 0, 76, 100
2, 24468, Note_on_c, 0, 76, 0
2, 24480, Note_on_c, 0, 73, 100
2, 24912, Note_on_c, 0, 73, 0
2, 24960, Note_on_c, 0, 74, 100
2, 25068, Note_on_c, 0, 74, 0
2, 25560, Note_on_c, 0, 67, 100
2, 25668, Note_on_c, 0, 67, 0
2, 25680, Note_on_c, 0, 74, 100
2, 25788, Note_on_c, 0, 74, 0
2, 25800, Note_on_c, 0, 77, 100
2, 25908, Note_on_c, 0, 77, 0
2, 25920, Note_on_c, 0, 76, 100
2, 26028, Note_on_c, 0, 76, 0
2, 26280, Note_on_c, 0, 74, 100
2, 26316, Note_on_c, 0, 74, 0
2, 26320, Note_on_c, 0, 76, 100
2, 26356, Note_on_c, 0, 76, 0
2, 26360, Note_on_c, 0, 77, 100
2, 26396, Note_on_c, 0, 77, 0
2, 26400, Note_on_c, 0, 76, 100
2, 26508, Note_on_c, 0, 76, 0
2, 26760, Note_on_c, 0, 80, 100
2, 26796, Note_on_c, 0, 80, 0
2, 26800, Note_on_c, 0, 81, 100
2, 26836, Note_on_c, 0, 81, 0
2, 26840, Note_on_c, 0, 83, 100
2, 26876, Note_on_c, 0, 83, 0
2, 26880, Note_on_c, 0, 81, 100
2, 26988, Note_on_c, 0, 81, 0
2, 27240, Note_on_c, 0, 83, 100
2, 27276, Note_on_c, 0, 83, 0
2, 27280, Note_on_c, 0, 81, 100
2, 27316, Note_on_c, 0, 81, 0
2, 27320, Note_on_c, 0, 80, 100
2, 27356, Note_on_c, 0, 80, 0
2, 27360, Note_on_c, 0, 81, 100
2, 27468, Note_on_c, 0, 81, 0
2, 27720, Note_on_c, 0, 81, 100
2, 27756, Note_on_c, 0, 81, 0
2, 27760, Note_on_c, 0, 80, 100
2, 27796, Note_on_c, 0, 80, 0
2, 27800, Note_on_c, 0, 78, 100
2, 27836, Note_on_c, 0, 78, 0
2, 27840, Note_on_c, 0, 86, 100
2, 27948, Note_on_c, 0, 86, 0
2, 28440, Note_on_c, 0, 71, 100
2, 28548, Note_on_c, 0, 71, 0
2, 28560, Note_on_c, 0, 74, 100
2, 28668, Note_on_c, 0, 74, 0
2, 28680, Note_on_c, 0, 77, 100
2, 28788, Note_on_c, 0, 77, 0
2, 28800, Note_on_c, 0, 83, 100
2, 29388, Note_on_c, 0, 83, 0
2, 29400, Note_on_c, 0, 81, 100
2, 29616, Note_on_c, 0, 81, 0
2, 29640, Note_on_c, 0, 80, 100
2, 29748, Note_on_c, 0, 80, 0
2, 29760, Note_on_c, 0, 81, 100
2, 29868, Note_on_c, 0, 81, 0
2, 30120, Note_on_c, 0, 85, 100
2, 30156, Note_on_c, 0, 85, 0
2, 30160, Note_on_c, 0, 86, 100
2, 30196, Note_on_c, 0, 86, 0
2, 30200, Note_on_c, 0, 88, 100
2, 30236, Note_on_c, 0, 88, 0
2, 30240, Note_on_c, 0, 86, 100
2, 30348, Note_on_c, 0, 86, 0
2, 30600, Note_on_c, 0, 81, 100
2, 30636, Note_on_c, 0, 81, 0
2, 30640, Note_on_c, 0, 79, 100
2, 30676, Note_on_c, 0, 79, 0
2, 30680, Note_on_c, 0, 77, 100
2, 30716, Note_on_c, 0, 77, 0
2, 30720, Note_on_c, 0, 77, 100
2, 31956, Note_on_c, 0, 77, 0
2, 31960, Note_on_c, 0, 74, 100
2, 31996, Note_on_c, 0, 74, 0
2, 32000, Note_on_c, 0, 71, 100
2, 32036, Note_on_c, 0, 71, 0
2, 32040, Note_on_c, 0, 68, 100
2, 32121, Note_on_c, 0, 68, 0
2, 32130, Note_on_c, 0, 77, 100
2, 32157, Note_on_c, 0, 77, 0
2, 32160, Note_on_c, 0, 76, 100
2, 32268, Note_on_c, 0, 76, 0
2, 32280, Note_on_c, 0, 81, 100
2, 32388, Note_on_c, 0, 81, 0
2, 32400, Note_on_c, 0, 71, 100
2, 32508, Note_on_c, 0, 71, 0
2, 32520, Note_on_c, 0, 80, 100
2, 32628, Note_on_c, 0, 80, 0
2, 32640, Note_on_c, 0, 81, 100
2, 32748, Note_on_c, 0, 81, 0
2, 33640, Note_on_c, 0, 81, 100
2, 33676, Note_on_c, 0, 81, 0
2, 33680, Note_on_c, 0, 81, 100
2, 33716, Note_on_c, 0, 81, 0
2, 33720, Note_on_c, 0, 82, 100
2, 33756, Note_on_c, 0, 82, 0
2, 33760, Note_on_c, 0, 80, 100
2, 33796, Note_on_c, 0, 80, 0
2, 33800, Note_on_c, 0, 81, 100
2, 33836, Note_on_c, 0, 81, 0
2, 33840, Note_on_c, 0, 82, 100
2, 33876, Note_on_c, 0, 82, 0
2, 33880, Note_on_c, 0, 80, 100
2, 33916, Note_on_c, 0, 80, 0
2, 33920, Note_on_c, 0, 81, 100
2, 33956, Note_on_c, 0, 81, 0
2, 33960, Note_on_c, 0, 82, 100
2, 33996, Note_on_c, 0, 82, 0
2, 34000, Note_on_c, 0, 80, 100
2, 34036, Note_on_c, 0, 80, 0
2, 34040, Note_on_c, 0, 81, 100
2, 34076, Note_on_c, 0, 81, 0
2, 34080, Note_on_c, 0, 73, 100
2, 34116, Note_on_c, 0, 73, 0
2, 34120, Note_on_c, 0, 74, 100
2, 34156, Note_on_c, 0, 74, 0
2, 34160, Note_on_c, 0, 76, 100
2, 34196, Note_on_c, 0, 76, 0
2, 34200, Note_on_c, 0, 74, 100
2, 34236, Note_on_c, 0, 74, 0
2, 34240, Note_on_c, 0, 76, 100
2, 34276, Note_on_c, 0, 76, 0
2, 34280, Note_on_c, 0, 77, 100
2, 34316, Note_on_c, 0, 77, 0
2, 34320, Note_on_c, 0, 76, 100
2, 34356, Note_on_c, 0, 76, 0
2, 34360, Note_on_c, 0, 81, 100
2, 34396, Note_on_c, 0, 81, 0
2, 34400, Note_on_c, 0, 79, 100
2, 34436, Note_on_c, 0, 79, 0
2, 34440, Note_on_c, 0, 77, 100
2, 34476, Note_on_c, 0, 77, 0
2, 34480, Note_on_c, 0, 76, 100
2, 34516, Note_on_c, 0, 76, 0
2, 34520, Note_on_c, 0, 74, 100
2, 34556, Note_on_c, 0, 74, 0
2, 34560, Note_on_c, 0, 73, 100
2, 34596, Note_on_c, 0, 73, 0
2, 34600, Note_on_c, 0, 71, 100
2, 34636, Note_on_c, 0, 71, 0
2, 34640, Note_on_c, 0, 69, 100
2, 34676, Note_on_c, 0, 69, 0
2, 35080, Note_on_c, 0, 81, 100
2, 35116, Note_on_c, 0, 81, 0
2, 35120, Note_on_c, 0, 83, 100
2, 35156, Note_on_c, 0, 83, 0
2, 35160, Note_on_c, 0, 84, 100
2, 35196, Note_on_c, 0, 84, 0
2, 35200, Note_on_c, 0, 83, 100
2, 35236, Note_on_c, 0, 83, 0
2, 35240, Note_on_c, 0, 84, 100
2, 35276, Note_on_c, 0, 84, 0
2, 35280, Note_on_c, 0, 74, 100
2, 35316, Note_on_c, 0, 74, 0
2, 35320, Note_on_c, 0, 81, 100
2, 35356, Note_on_c, 0, 81, 0
2, 35360, Note_on_c, 0, 83, 100
2, 35396, Note_on_c, 0, 83, 0
2, 35400, Note_on_c, 0, 84, 100
2, 35436, Note_on_c, 0, 84, 0
2, 35440, Note_on_c, 0, 83, 100
2, 35476, Note_on_c, 0, 83, 0
2, 35480, Note_on_c, 0, 81, 100
2, 35516, Note_on_c, 0, 81, 0
2, 35520, Note_on_c, 0, 83, 100
2, 35556, Note_on_c, 0, 83, 0
2, 35560, Note_on_c, 0, 81, 100
2, 35596, Note_on_c, 0, 81, 0
2, 35600, Note_on_c, 0, 79, 100
2, 35636, Note_on_c, 0, 79, 0
2, 35880, Note_on_c, 0, 82, 100
2, 36036, Note_on_c, 0, 82, 0
2, 36040, Note_on_c, 0, 79, 100
2, 36076, Note_on_c, 0, 79, 0
2, 36080, Note_on_c, 0, 81, 100
2, 36116, Note_on_c, 0, 81, 0
2, 36120, Note_on_c, 0, 82, 100
2, 36156, Note_on_c, 0, 82, 0
2, 36160, Note_on_c, 0, 81, 100
2, 36196, Note_on_c, 0, 81, 0
2, 36200, Note_on_c, 0, 82, 100
2, 36236, Note_on_c, 0, 82, 0
2, 36240, Note_on_c, 0, 72, 100
2, 36276, Note_on_c, 0, 72, 0
2, 36280, Note_on_c, 0, 79, 100
2, 36316, Note_on_c, 0, 79, 0
2, 36320, Note_on_c, 0, 81, 100
2, 36356, Note_on_c, 0, 81, 0
2, 36360, Note_on_c, 0, 82, 100
2, 36396, Note_on_c, 0, 82, 0
2, 36400, Note_on_c, 0, 81, 100
2, 36436, Note_on_c, 0, 81, 0
2, 36440, Note_on_c, 0, 79, 100
2, 36476, Note_on_c, 0, 79, 0
2, 36480, Note_on_c, 0, 81, 100
2, 36912, Note_on_c, 0, 81, 0
2, 36960, Note_on_c, 0, 79, 100
2, 37392, Note_on_c, 0, 79, 0
2, 37440, Note_on_c, 0, 77, 100
2, 37476, Note_on_c, 0, 77, 0
2, 37480, Note_on_c, 0, 81, 100
2, 37516, Note_on_c, 0, 81, 0
2, 37520, Note_on_c, 0, 79, 100
2, 37556, Note_on_c, 0, 79, 0
2, 37560, Note_on_c, 0, 77, 100
2, 37596, Note_on_c, 0, 77, 0
2, 37600, Note_on_c, 0, 76, 100
2, 37636, Note_on_c, 0, 76, 0
2, 37640, Note_on_c, 0, 74, 100
2, 37676, Note_on_c, 0, 74, 0
2, 37680, Note_on_c, 0, 72, 100
2, 37716, Note_on_c, 0, 72, 0
2, 37720, Note_on_c, 0, 71, 100
2, 37756, Note_on_c, 0, 71, 0
2, 37760, Note_on_c, 0, 69, 100
2, 37796, Note_on_c, 0, 69, 0
2, 37800, Note_on_c, 0, 68, 100
2, 37836, Note_on_c, 0, 68, 0
2, 37840, Note_on_c, 0, 69, 100
2, 37876, Note_on_c, 0, 69, 0
2, 37880, Note_on_c, 0, 71, 100
2, 37916, Note_on_c, 0, 71, 0
2, 37920, Note_on_c, 0, 64, 100
2, 38082, Note_on_c, 0, 64, 0
2, 38100, Note_on_c, 0, 66, 100
2, 38127, Note_on_c, 0, 66, 0
2, 38130, Note_on_c, 0, 68, 100
2, 38157, Note_on_c, 0, 68, 0
2, 38160, Note_on_c, 0, 69, 100
2, 38196, Note_on_c, 0, 69, 0
2, 38200, Note_on_c, 0, 71, 100
2, 38236, Note_on_c, 0, 71, 0
2, 38240, Note_on_c, 0, 72, 100
2, 38276, Note_on_c, 0, 72, 0
2, 38280, Note_on_c, 0, 74, 100
2, 38316, Note_on_c, 0, 74, 0
2, 38320, Note_on_c, 0, 76, 100
2, 38356, Note_on_c, 0, 76, 0
2, 38360, Note_on_c, 0, 77, 100
2, 38396, Note_on_c, 0, 77, 0
2, 38400, Note_on_c, 0, 76, 100
2, 38436, Note_on_c, 0, 76, 0
2, 38440, Note_on_c, 0, 74, 100
2, 38476, Note_on_c, 0, 74, 0
2, 38480, Note_on_c, 0, 72, 100
2, 38516, Note_on_c, 0, 72, 0
2, 38520, Note_on_c, 0, 71, 100
2, 38556, Note_on_c, 0, 71, 0
2, 38560, Note_on_c, 0, 72, 100
2, 38596, Note_on_c, 0, 72, 0
2, 38600, Note_on_c, 0, 69, 100
2, 38636, Note_on_c, 0, 69, 0
2, 38640, Note_on_c, 0, 64, 100
2, 38721, Note_on_c, 0, 64, 0
2, 38730, Note_on_c, 0, 69, 100
2, 38757, Note_on_c, 0, 69, 0
2, 38760, Note_on_c, 0, 71, 100
2, 38841, Note_on_c, 0, 71, 0
2, 38850, Note_on_c, 0, 68, 100
2, 38877, Note_on_c, 0, 68, 0
2, 38880, Note_on_c, 0, 69, 100
2, 38988, Note_on_c, 0, 69, 0
2, 39240, Note_on_c, 0, 68, 100
2, 39348, Note_on_c, 0, 68, 0
2, 39360, Note_on_c, 0, 69, 100
2, 39468, Note_on_c, 0, 69, 0
2, 43320, Note_on_c, 0, 74, 100
2, 43536, Note_on_c, 0, 74, 0
2, 43560, Note_on_c, 0, 72, 100
2, 43776, Note_on_c, 0, 72, 0
2, 43800, Note_on_c, 0, 71, 100
2, 44016, Note_on_c, 0, 71, 0
2, 44040, Note_on_c, 0, 69, 100
2, 44268, Note_on_c, 0, 69, 0
2, 44280, Note_on_c, 0, 67, 100
2, 44496, Note_on_c, 0, 67, 0
2, 44520, Note_on_c, 0, 69, 100
2, 44628, Note_on_c, 0, 69, 0
2, 44640, Note_on_c, 0, 71, 100
2, 44676, Note_on_c, 0, 71, 0
2, 44680, Note_on_c, 0, 72, 100
2, 44716, Note_on_c, 0, 72, 0
2, 44720, Note_on_c, 0, 74, 100
2, 44756, Note_on_c, 0, 74, 0
2, 44760, Note_on_c, 0, 79, 100
2, 44868, Note_on_c, 0, 79, 0
2, 44880, Note_on_c, 0, 72, 100
2, 44916, Note_on_c, 0, 72, 0
2, 44920, Note_on_c, 0, 74, 100
2, 44956, Note_on_c, 0, 74, 0
2, 44960, Note_on_c, 0, 76, 100
2, 44996, Note_on_c, 0, 76, 0
2, 45000, Note_on_c, 0, 81, 100
2, 45108, Note_on_c, 0, 81, 0
2, 45120, Note_on_c, 0, 74, 100
2, 45156, Note_on_c, 0, 74, 0
2, 45160, Note_on_c, 0, 76, 100
2, 45196, Note_on_c, 0, 76, 0
2, 45200, Note_on_c, 0, 77, 100
2, 45236, Note_on_c, 0, 77, 0
2, 45240, Note_on_c, 0, 83, 100
2, 45348, Note_on_c, 0, 83, 0
2, 45360, Note_on_c, 0, 76, 100
2, 45396, Note_on_c, 0, 76, 0
2, 45400, Note_on_c, 0, 77, 100
2, 45436, Note_on_c, 0, 77, 0
2, 45440, Note_on_c, 0, 79, 100
2, 45476, Note_on_c, 0, 79, 0
2, 45480, Note_on_c, 0, 84, 100
2, 45588, Note_on_c, 0, 84, 0
2, 45600, Note_on_c, 0, 77, 100
2, 45636, Note_on_c, 0, 77, 0
2, 45640, Note_on_c, 0, 79, 100
2, 45676, Note_on_c, 0, 79, 0
2, 45680, Note_on_c, 0, 81, 100
2, 45716, Note_on_c, 0, 81, 0
2, 45720, Note_on_c, 0, 74, 100
2, 45876, Note_on_c, 0, 74, 0
2, 45880, Note_on_c, 0, 76, 100
2, 45916, Note_on_c, 0, 76, 0
2, 45920, Note_on_c, 0, 77, 100
2, 45956, Note_on_c, 0, 77, 0
2, 45960, Note_on_c, 0, 71, 100
2, 46068, Note_on_c, 0, 71, 0
2, 46080, Note_on_c, 0, 72, 100
2, 46188, Note_on_c, 0, 72, 0
2, 48000, Note_on_c, 0, 79, 100
2, 49014, Note_on_c, 0, 79, 0
2, 49020, Note_on_c, 0, 72, 100
2, 49074, Note_on_c, 0, 72, 0
2, 49080, Note_on_c, 0, 76, 100
2, 49134, Note_on_c, 0, 76, 0
2, 49140, Note_on_c, 0, 79, 100
2, 49194, Note_on_c, 0, 79, 0
2, 49200, Note_on_c, 0, 84, 100
2, 49236, Note_on_c, 0, 84, 0
2, 49240, Note_on_c, 0, 86, 100
2, 49276, Note_on_c, 0, 86, 0
2, 49280, Note_on_c, 0, 88, 100
2, 49316, Note_on_c, 0, 88, 0
2, 49320, Note_on_c, 0, 86, 100
2, 49356, Note_on_c, 0, 86, 0
2, 49360, Note_on_c, 0, 84, 100
2, 49396, Note_on_c, 0, 84, 0
2, 49400, Note_on_c, 0, 83, 100
2, 49436, Note_on_c, 0, 83, 0
2, 49440, Note_on_c, 0, 84, 100
2, 49476, Note_on_c, 0, 84, 0
2, 49480, Note_on_c, 0, 83, 100
2, 49516, Note_on_c, 0, 83, 0
2, 49520, Note_on_c, 0, 81, 100
2, 49556, Note_on_c, 0, 81, 0
2, 49560, Note_on_c, 0, 79, 100
2, 49596, Note_on_c, 0, 79, 0
2, 49600, Note_on_c, 0, 81, 100
2, 49636, Note_on_c, 0, 81, 0
2, 49640, Note_on_c, 0, 77, 100
2, 49676, Note_on_c, 0, 77, 0
2, 49680, Note_on_c, 0, 76, 100
2, 49716, Note_on_c, 0, 76, 0
2, 49720, Note_on_c, 0, 74, 100
2, 49756, Note_on_c, 0, 74, 0
2, 49760, Note_on_c, 0, 72, 100
2, 49796, Note_on_c, 0, 72, 0
2, 49800, Note_on_c, 0, 71, 100
2, 49836, Note_on_c, 0, 71, 0
2, 49840, Note_on_c, 0, 72, 100
2, 49876, Note_on_c, 0, 72, 0
2, 49880, Note_on_c, 0, 74, 100
2, 49916, Note_on_c, 0, 74, 0
2, 49920, Note_on_c, 0, 67, 100
2, 50028, Note_on_c, 0, 67, 0
2, 50440, Note_on_c, 0, 65, 100
2, 50476, Note_on_c, 0, 65, 0
2, 50480, Note_on_c, 0, 67, 100
2, 50516, Note_on_c, 0, 67, 0
2, 50520, Note_on_c, 0, 69, 100
2, 50556, Note_on_c, 0, 69, 0
2, 50560, Note_on_c, 0, 71, 100
2, 50596, Note_on_c, 0, 71, 0
2, 50600, Note_on_c, 0, 72, 100
2, 50636, Note_on_c, 0, 72, 0
2, 50640, Note_on_c, 0, 72, 100
2, 50676, Note_on_c, 0, 72, 0
2, 50680, Note_on_c, 0, 74, 100
2, 50716, Note_on_c, 0, 74, 0
2, 50720, Note_on_c, 0, 76, 100
2, 50756, Note_on_c, 0, 76, 0
2, 50760, Note_on_c, 0, 76, 100
2, 50796, Note_on_c, 0, 76, 0
2, 50800, Note_on_c, 0, 74, 100
2, 50836, Note_on_c, 0, 74, 0
2, 50840, Note_on_c, 0, 72, 100
2, 50876, Note_on_c, 0, 72, 0
2, 50880, Note_on_c, 0, 71, 100
2, 50988, Note_on_c, 0, 71, 0
2, 51000, Note_on_c, 0, 68, 100
2, 51108, Note_on_c, 0, 68, 0
2, 51120, Note_on_c, 0, 69, 100
2, 51228, Note_on_c, 0, 69, 0
2, 51240, Note_on_c, 0, 71, 100
2, 51348, Note_on_c, 0, 71, 0
2, 51360, Note_on_c, 0, 72, 100
2, 51468, Note_on_c, 0, 72, 0
2, 53800, Note_on_c, 0, 76, 100
2, 53836, Note_on_c, 0, 76, 0
2, 53840, Note_on_c, 0, 77, 100
2, 53876, Note_on_c, 0, 77, 0
2, 53880, Note_on_c, 0, 79, 100
2, 53916, Note_on_c, 0, 79, 0
2, 53920, Note_on_c, 0, 77, 100
2, 53956, Note_on_c, 0, 77, 0
2, 53960, Note_on_c, 0, 79, 100
2, 53996, Note_on_c, 0, 79, 0
2, 54000, Note_on_c, 0, 84, 100
2, 54036, Note_on_c, 0, 84, 0
2, 54040, Note_on_c, 0, 79, 100
2, 54076, Note_on_c, 0, 79, 0
2, 54080, Note_on_c, 0, 81, 100
2, 54116, Note_on_c, 0, 81, 0
2, 54120, Note_on_c, 0, 82, 100
2, 54156, Note_on_c, 0, 82, 0
2, 54160, Note_on_c, 0, 81, 100
2, 54196, Note_on_c, 0, 81, 0
2, 54200, Note_on_c, 0, 79, 100
2, 54236, Note_on_c, 0, 79, 0
2, 54240, Note_on_c, 0, 81, 100
2, 54756, Note_on_c, 0, 81, 0
2, 54760, Note_on_c, 0, 78, 100
2, 54796, Note_on_c, 0, 78, 0
2, 54800, Note_on_c, 0, 79, 100
2, 54836, Note_on_c, 0, 79, 0
2, 54840, Note_on_c, 0, 81, 100
2, 54876, Note_on_c, 0, 81, 0
2, 54880, Note_on_c, 0, 79, 100
2, 54916, Note_on_c, 0, 79, 0
2, 54920, Note_on_c, 0, 81, 100
2, 54956, Note_on_c, 0, 81, 0
2, 54960, Note_on_c, 0, 74, 100
2, 54996, Note_on_c, 0, 74, 0
2, 55000, Note_on_c, 0, 81, 100
2, 55036, Note_on_c, 0, 81, 0
2, 55040, Note_on_c, 0, 83, 100
2, 55076, Note_on_c, 0, 83, 0
2, 55080, Note_on_c, 0, 84, 100
2, 55116, Note_on_c, 0, 84, 0
2, 55120, Note_on_c, 0, 83, 100
2, 55156, Note_on_c, 0, 83, 0
2, 55160, Note_on_c, 0, 81, 100
2, 55196, Note_on_c, 0, 81, 0
2, 55200, Note_on_c, 0, 83, 100
2, 55788, Note_on_c, 0, 83, 0
2, 58170, Note_on_c, 0, 76, 100
2, 58197, Note_on_c, 0, 76, 0
2, 58200, Note_on_c, 0, 68, 100
2, 58281, Note_on_c, 0, 68, 0
2, 58290, Note_on_c, 0, 71, 100
2, 58317, Note_on_c, 0, 71, 0
2, 58320, Note_on_c, 0, 64, 100
2, 58428, Note_on_c, 0, 64, 0
2, 58650, Note_on_c, 0, 84, 100
2, 58677, Note_on_c, 0, 84, 0
2, 58680, Note_on_c, 0, 76, 100
2, 58761, Note_on_c, 0, 76, 0
2, 58770, Note_on_c, 0, 83, 100
2, 58797, Note_on_c, 0, 83, 0
2, 58800, Note_on_c, 0, 75, 100
2, 58908, Note_on_c, 0, 75, 0
2, 59130, Note_on_c, 0, 87, 100
2, 59157, Note_on_c, 0, 87, 0
2, 59160, Note_on_c, 0, 88, 100
2, 59241, Note_on_c, 0, 88, 0
2, 59250, Note_on_c, 0, 83, 100
2, 59277, Note_on_c, 0, 83, 0
2, 59280, Note_on_c, 0, 84, 100
2, 59388, Note_on_c, 0, 84, 0
2, 59520, Note_on_c, 0, 81, 100
2, 60696, Note_on_c, 0, 81, 0
2, 61050, Note_on_c, 0, 75, 100
2, 61077, Note_on_c, 0, 75, 0
2, 61080, Note_on_c, 0, 76, 100
2, 61161, Note_on_c, 0, 76, 0
2, 61170, Note_on_c, 0, 78, 100
2, 61197, Note_on_c, 0, 78, 0
2, 61200, Note_on_c, 0, 71, 100
2, 61308, Note_on_c, 0, 71, 0
2, 61320, Note_on_c, 0, 75, 100
2, 61428, Note_on_c, 0, 75, 0
2, 61440, Note_on_c, 0, 76, 100
2, 61548, Note_on_c, 0, 76, 0
2, 61560, Note_on_c, 0, 81, 100
2, 61668, Note_on_c, 0, 81, 0
2, 61680, Note_on_c, 0, 80, 100
2, 61788, Note_on_c, 0, 80, 0
2, 61800, Note_on_c, 0, 83, 100
2, 61908, Note_on_c, 0, 83, 0
2, 61920, Note_on_c, 0, 81, 100
2, 62028, Note_on_c, 0, 81, 0
2, 62040, Note_on_c, 0, 76, 100
2, 62121, Note_on_c, 0, 76, 0
2, 62130, Note_on_c, 0, 75, 100
2, 62157, Note_on_c, 0, 75, 0
2, 62160, Note_on_c, 0, 76, 100
2, 62268, Note_on_c, 0, 76, 0
2, 62280, Note_on_c, 0, 76, 100
2, 62388, Note_on_c, 0, 76, 0
2, 62400, Note_on_c, 0, 84, 100
2, 63264, Note_on_c, 0, 84, 0
2, 63360, Note_on_c, 0, 75, 100
2, 63468, Note_on_c, 0, 75, 0
2, 64200, Note_on_c, 0, 87, 100
2, 64308, Note_on_c, 0, 87, 0
2, 64320, Note_on_c, 0, 88, 100
2, 64752, Note_on_c, 0, 88, 0
2, 64800, Note_on_c, 0, 86, 100
2, 65361, Note_on_c, 0, 86, 0
2, 65370, Note_on_c, 0, 84, 100
2, 65397, Note_on_c, 0, 84, 0
2, 65400, Note_on_c, 0, 81, 100
2, 65481, Note_on_c, 0, 81, 0
2, 65490, Note_on_c, 0, 84, 100
2, 65517, Note_on_c, 0, 84, 0
2, 65520, Note_on_c, 0, 78, 100
2, 65601, Note_on_c, 0, 78, 0
2, 65610, Note_on_c, 0, 81, 100
2, 65637, Note_on_c, 0, 81, 0
2, 65640, Note_on_c, 0, 75, 100
2, 65721, Note_on_c, 0, 75, 0
2, 65730, Note_on_c, 0, 78, 100
2, 65757, Note_on_c, 0, 78, 0
2, 65760, Note_on_c, 0, 71, 100
2, 65841, Note_on_c, 0, 71, 0
2, 65850, Note_on_c, 0, 83, 100
2, 65877, Note_on_c, 0, 83, 0
2, 65880, Note_on_c, 0, 79, 100
2, 65961, Note_on_c, 0, 79, 0
2, 65970, Note_on_c, 0, 83, 100
2, 65997, Note_on_c, 0, 83, 0
2, 66000, Note_on_c, 0, 76, 100
2, 66081, Note_on_c, 0, 76, 0
2, 66090, Note_on_c, 0, 79, 100
2, 66117, Note_on_c, 0, 79, 0
2, 66120, Note_on_c, 0, 73, 100
2, 66201, Note_on_c, 0, 73, 0
2, 66210, Note_on_c, 0, 76, 100
2, 66237, Note_on_c, 0, 76, 0
2, 66240, Note_on_c, 0, 69, 100
2, 66348, Note_on_c, 0, 69, 0
2, 66360, Note_on_c, 0, 75, 100
2, 66468, Note_on_c, 0, 75, 0
2, 66480, Note_on_c, 0, 76, 100
2, 66516, Note_on_c, 0, 76, 0
2, 66520, Note_on_c, 0, 78, 100
2, 66556, Note_on_c, 0, 78, 0
2, 66560, Note_on_c, 0, 79, 100
2, 66596, Note_on_c, 0, 79, 0
2, 66600, Note_on_c, 0, 78, 100
2, 66756, Note_on_c, 0, 78, 0
2, 66760, Note_on_c, 0, 76, 100
2, 66796, Note_on_c, 0, 76, 0
2, 66800, Note_on_c, 0, 78, 100
2, 66836, Note_on_c, 0, 78, 0
2, 66840, Note_on_c, 0, 71, 100
2, 66876, Note_on_c, 0, 71, 0
2, 66880, Note_on_c, 0, 73, 100
2, 66916, Note_on_c, 0, 73, 0
2, 66920, Note_on_c, 0, 75, 100
2, 66956, Note_on_c, 0, 75, 0
2, 66960, Note_on_c, 0, 76, 100
2, 66996, Note_on_c, 0, 76, 0
2, 67000, Note_on_c, 0, 78, 100
2, 67036, Note_on_c, 0, 78, 0
2, 67040, Note_on_c, 0, 79, 100
2, 67076, Note_on_c, 0, 79, 0
2, 67080, Note_on_c, 0, 81, 100
2, 67116, Note_on_c, 0, 81, 0
2, 67120, Note_on_c, 0, 83, 100
2, 67156, Note_on_c, 0, 83, 0
2, 67160, Note_on_c, 0, 84, 100
2, 67196, Note_on_c, 0, 84, 0
2, 67200, Note_on_c, 0, 83, 100
2, 67236, Note_on_c, 0, 83, 0
2, 67240, Note_on_c, 0, 81, 100
2, 67276, Note_on_c, 0, 81, 0
2, 67280, Note_on_c, 0, 79, 100
2, 67316, Note_on_c, 0, 79, 0
2, 67320, Note_on_c, 0, 78, 100
2, 67356, Note_on_c, 0, 78, 0
2, 67360, Note_on_c, 0, 79, 100
2, 67396, Note_on_c, 0, 79, 0
2, 67400, Note_on_c, 0, 76, 100
2, 67436, Note_on_c, 0, 76, 0
2, 67440, Note_on_c, 0, 71, 100
2, 67521, Note_on_c, 0, 71, 0
2, 67530, Note_on_c, 0, 76, 100
2, 67557, Note_on_c, 0, 76, 0
2, 67560, Note_on_c, 0, 78, 100
2, 67641, Note_on_c, 0, 78, 0
2, 67650, Note_on_c, 0, 75, 100
2, 67677, Note_on_c, 0, 75, 0
2, 67680, Note_on_c, 0, 76, 100
2, 68196, Note_on_c, 0, 76, 0
2, 68200, Note_on_c, 0, 72, 100
2, 68236, Note_on_c, 0, 72, 0
2, 68240, Note_on_c, 0, 74, 100
2, 68276, Note_on_c, 0, 74, 0
2, 68280, Note_on_c, 0, 76, 100
2, 68316, Note_on_c, 0, 76, 0
2, 68320, Note_on_c, 0, 74, 100
2, 68356, Note_on_c, 0, 74, 0
2, 68360, Note_on_c, 0, 76, 100
2, 68396, Note_on_c, 0, 76, 0
2, 68400, Note_on_c, 0, 69, 100
2, 68436, Note_on_c, 0, 69, 0
2, 68440, Note_on_c, 0, 76, 100
2, 68476, Note_on_c, 0, 76, 0
2, 68480, Note_on_c, 0, 78, 100
2, 68516, Note_on_c, 0, 78, 0
2, 68520, Note_on_c, 0, 79, 100
2, 68556, Note_on_c, 0, 79, 0
2, 68560, Note_on_c, 0, 78, 100
2, 68596, Note_on_c, 0, 78, 0
2, 68600, Note_on_c, 0, 76, 100
2, 68636, Note_on_c, 0, 76, 0
2, 68640, Note_on_c, 0, 78, 100
2, 69156, Note_on_c, 0, 78, 0
2, 69160, Note_on_c, 0, 75, 100
2, 69196, Note_on_c, 0, 75, 0
2, 69200, Note_on_c, 0, 76, 100
2, 69236, Note_on_c, 0, 76, 0
2, 69240, Note_on_c, 0, 78, 100
2, 69276, Note_on_c, 0, 78, 0
2, 69280, Note_on_c, 0, 76, 100
2, 69316, Note_on_c, 0, 76, 0
2, 69320, Note_on_c, 0, 78, 100
2, 69356, Note_on_c, 0, 78, 0
2, 69360, Note_on_c, 0, 71, 100
2, 69396, Note_on_c, 0, 71, 0
2, 69400, Note_on_c, 0, 78, 100
2, 69436, Note_on_c, 0, 78, 0
2, 69440, Note_on_c, 0, 79, 100
2, 69476, Note_on_c, 0, 79, 0
2, 69480, Note_on_c, 0, 81, 100
2, 69516, Note_on_c, 0, 81, 0
2, 69520, Note_on_c, 0, 79, 100
2, 69556, Note_on_c, 0, 79, 0
2, 69560, Note_on_c, 0, 78, 100
2, 69596, Note_on_c, 0, 78, 0
2, 69600, Note_on_c, 0, 83, 100
2, 69636, Note_on_c, 0, 83, 0
2, 69640, Note_on_c, 0, 81, 100
2, 69676, Note_on_c, 0, 81, 0
2, 69680, Note_on_c, 0, 79, 100
2, 69716, Note_on_c, 0, 79, 0
2, 69720, Note_on_c, 0, 84, 100
2, 69756, Note_on_c, 0, 84, 0
2, 69760, Note_on_c, 0, 83, 100
2, 69796, Note_on_c, 0, 83, 0
2, 69800, Note_on_c, 0, 81, 100
2, 69836, Note_on_c, 0, 81, 0
2, 69840, Note_on_c, 0, 79, 100
2, 69948, Note_on_c, 0, 79, 0
2, 69960, Note_on_c, 0, 78, 100
2, 70068, Note_on_c, 0, 78, 0
2, 70080, Note_on_c, 0, 76, 100
2, 70188, Note_on_c, 0, 76, 0
2, 71580, Note_on_c, 0, 69, 100
2, 71634, Note_on_c, 0, 69, 0
2, 71640, Note_on_c, 0, 72, 100
2, 71694, Note_on_c, 0, 72, 0
2, 71700, Note_on_c, 0, 76, 100
2, 71754, Note_on_c, 0, 76, 0
2, 71760, Note_on_c, 0, 81, 100
2, 71796, Note_on_c, 0, 81, 0
2, 71800, Note_on_c, 0, 83, 100
2, 71836, Note_on_c, 0, 83, 0
2, 71840, Note_on_c, 0, 84, 100
2, 71876, Note_on_c, 0, 84, 0
2, 71880, Note_on_c, 0, 83, 100
2, 71916, Note_on_c, 0, 83, 0
2, 71920, Note_on_c, 0, 81, 100
2, 71956, Note_on_c, 0, 81, 0
2, 71960, Note_on_c, 0, 80, 100
2, 71996, Note_on_c, 0, 80, 0
2, 72000, Note_on_c, 0, 81, 100
2, 72108, Note_on_c, 0, 81, 0
2, 72600, Note_on_c, 0, 79, 100
2, 72681, Note_on_c, 0, 79, 0
2, 72690, Note_on_c, 0, 77, 100
2, 72717, Note_on_c, 0, 77, 0
2, 72720, Note_on_c, 0, 76, 100
2, 72756, Note_on_c, 0, 76, 0
2, 72760, Note_on_c, 0, 74, 100
2, 72796, Note_on_c, 0, 74, 0
2, 72800, Note_on_c, 0, 72, 100
2, 72836, Note_on_c, 0, 72, 0
2, 72840, Note_on_c, 0, 74, 100
2, 72876, Note_on_c, 0, 74, 0
2, 72880, Note_on_c, 0, 76, 100
2, 72916, Note_on_c, 0, 76, 0
2, 72920, Note_on_c, 0, 77, 100
2, 72956, Note_on_c, 0, 77, 0
2, 72960, Note_on_c, 0, 76, 100
2, 72996, Note_on_c, 0, 76, 0
2, 73000, Note_on_c, 0, 74, 100
2, 73036, Note_on_c, 0, 74, 0
2, 73040, Note_on_c, 0, 72, 100
2, 73076, Note_on_c, 0, 72, 0
2, 76440, Note_on_c, 0, 74, 100
2, 76494, Note_on_c, 0, 74, 0
2, 76500, Note_on_c, 0, 76, 100
2, 76554, Note_on_c, 0, 76, 0
2, 76560, Note_on_c, 0, 77, 100
2, 76614, Note_on_c, 0, 77, 0
2, 76620, Note_on_c, 0, 81, 100
2, 76674, Note_on_c, 0, 81, 0
2, 76680, Note_on_c, 0, 79, 100
2, 76734, Note_on_c, 0, 79, 0
2, 76740, Note_on_c, 0, 74, 100
2, 76794, Note_on_c, 0, 74, 0
2, 76800, Note_on_c, 0, 76, 100
2, 76836, Note_on_c, 0, 76, 0
2, 76840, Note_on_c, 0, 74, 100
2, 76876, Note_on_c, 0, 74, 0
2, 76880, Note_on_c, 0, 73, 100
2, 76916, Note_on_c, 0, 73, 0
2, 76920, Note_on_c, 0, 82, 100
2, 77076, Note_on_c, 0, 82, 0
2, 77080, Note_on_c, 0, 76, 100
2, 77116, Note_on_c, 0, 76, 0
2, 77120, Note_on_c, 0, 74, 100
2, 77156, Note_on_c, 0, 74, 0
2, 77160, Note_on_c, 0, 73, 100
2, 77196, Note_on_c, 0, 73, 0
2, 77200, Note_on_c, 0, 71, 100
2, 77236, Note_on_c, 0, 71, 0
2, 77240, Note_on_c, 0, 69, 100
2, 77276, Note_on_c, 0, 69, 0
2, 77280, Note_on_c, 0, 77, 100
2, 77316, Note_on_c, 0, 77, 0
2, 77320, Note_on_c, 0, 76, 100
2, 77356, Note_on_c, 0, 76, 0
2, 77360, Note_on_c, 0, 74, 100
2, 77396, Note_on_c, 0, 74, 0
2, 77880, Note_on_c, 0, 78, 100
2, 77988, Note_on_c, 0, 78, 0
2, 78000, Note_on_c, 0, 79, 100
2, 78108, Note_on_c, 0, 79, 0
2, 78120, Note_on_c, 0, 81, 100
2, 78228, Note_on_c, 0, 81, 0
2, 78240, Note_on_c, 0, 82, 100
2, 78348, Note_on_c, 0, 82, 0
2, 79320, Note_on_c, 0, 76, 100
2, 79428, Note_on_c, 0, 76, 0
2, 79440, Note_on_c, 0, 78, 100
2, 79548, Note_on_c, 0, 78, 0
2, 79560, Note_on_c, 0, 80, 100
2, 79668, Note_on_c, 0, 80, 0
2, 79680, Note_on_c, 0, 81, 100
2, 79788, Note_on_c, 0, 81, 0
2, 80040, Note_on_c, 0, 86, 100
2, 80148, Note_on_c, 0, 86, 0
2, 80160, Note_on_c, 0, 84, 100
2, 80268, Note_on_c, 0, 84, 0
2, 80760, Note_on_c, 0, 76, 100
2, 80814, Note_on_c, 0, 76, 0
2, 80820, Note_on_c, 0, 77, 100
2, 80874, Note_on_c, 0, 77, 0
2, 80880, Note_on_c, 0, 79, 100
2, 80934, Note_on_c, 0, 79, 0
2, 80940, Note_on_c, 0, 82, 100
2, 80994, Note_on_c, 0, 82, 0
2, 81000, Note_on_c, 0, 81, 100
2, 81054, Note_on_c, 0, 81, 0
2, 81060, Note_on_c, 0, 73, 100
2, 81114, Note_on_c, 0, 73, 0
2, 81120, Note_on_c, 0, 74, 100
2, 81228, Note_on_c, 0, 74, 0
2, 81720, Note_on_c, 0, 73, 100
2, 81828, Note_on_c, 0, 73, 0
2, 81840, Note_on_c, 0, 74, 100
2, 81948, Note_on_c, 0, 74, 0
2, 81960, Note_on_c, 0, 76, 100
2, 82068, Note_on_c, 0, 76, 0
2, 82080, Note_on_c, 0, 77, 100
2, 82188, Note_on_c, 0, 77, 0
2, 82200, Note_on_c, 0, 79, 100
2, 82308, Note_on_c, 0, 79, 0
2, 82320, Note_on_c, 0, 77, 100
2, 82428, Note_on_c, 0, 77, 0
2, 82440, Note_on_c, 0, 76, 100
2, 82548, Note_on_c, 0, 76, 0
2, 82560, Note_on_c, 0, 74, 100
2, 82668, Note_on_c, 0, 74, 0
2, 82680, Note_on_c, 0, 82, 100
2, 82788, Note_on_c, 0, 82, 0
2, 82800, Note_on_c, 0, 81, 100
2, 82908, Note_on_c, 0, 81, 0
2, 82920, Note_on_c, 0, 79, 100
2, 83028, Note_on_c, 0, 79, 0
2, 83040, Note_on_c, 0, 77, 100
2, 83148, Note_on_c, 0, 77, 0
2, 85960, Note_on_c, 0, 76, 100
2, 85996, Note_on_c, 0, 76, 0
2, 86000, Note_on_c, 0, 77, 100
2, 86036, Note_on_c, 0, 77, 0
2, 86040, Note_on_c, 0, 79, 100
2, 86076, Note_on_c, 0, 79, 0
2, 86080, Note_on_c, 0, 77, 100
2, 86116, Note_on_c, 0, 77, 0
2, 86120, Note_on_c, 0, 79, 100
2, 86156, Note_on_c, 0, 79, 0
2, 86160, Note_on_c, 0, 72, 100
2, 86196, Note_on_c, 0, 72, 0
2, 86200, Note_on_c, 0, 79, 100
2, 86236, Note_on_c, 0, 79, 0
2, 86240, Note_on_c, 0, 81, 100
2, 86276, Note_on_c, 0, 81, 0
2, 86280, Note_on_c, 0, 82, 100
2, 86316, Note_on_c, 0, 82, 0
2, 86320, Note_on_c, 0, 81, 100
2, 86356, Note_on_c, 0, 81, 0
2, 86360, Note_on_c, 0, 79, 100
2, 86396, Note_on_c, 0, 79, 0
2, 86400, Note_on_c, 0, 81, 100
2, 86616, Note_on_c, 0, 81, 0
2, 86640, Note_on_c, 0, 79, 100
2, 86856, Note_on_c, 0, 79, 0
2, 86880, Note_on_c, 0, 77, 100
2, 87096, Note_on_c, 0, 77, 0
2, 87120, Note_on_c, 0, 76, 100
2, 87336, Note_on_c, 0, 76, 0
2, 87360, Note_on_c, 0, 74, 100
2, 87468, Note_on_c, 0, 74, 0
2, 87480, Note_on_c, 0, 79, 100
2, 87588, Note_on_c, 0, 79, 0
2, 87600, Note_on_c, 0, 77, 100
2, 87708, Note_on_c, 0, 77, 0
2, 87720, Note_on_c, 0, 73, 100
2, 87828, Note_on_c, 0, 73, 0
2, 87840, Note_on_c, 0, 74, 100
2, 88002, Note_on_c, 0, 74, 0
2, 88020, Note_on_c, 0, 76, 100
2, 88074, Note_on_c, 0, 76, 0
2, 88080, Note_on_c, 0, 76, 100
2, 88242, Note_on_c, 0, 76, 0
2, 88260, Note_on_c, 0, 74, 100
2, 88314, Note_on_c, 0, 74, 0
2, 88320, Note_on_c, 0, 74, 100
2, 90144, Note_on_c, 0, 74, 0
2, 90240, Note_on_c, 0, 72, 100
2, 90348, Note_on_c, 0, 72, 0
2, 91320, Note_on_c, 0, 69, 100
2, 91374, Note_on_c, 0, 69, 0
2, 91380, Note_on_c, 0, 71, 100
2, 91434, Note_on_c, 0, 71, 0
2, 91440, Note_on_c, 0, 72, 100
2, 91494, Note_on_c, 0, 72, 0
2, 91500, Note_on_c, 0, 76, 100
2, 91554, Note_on_c, 0, 76, 0
2, 91560, Note_on_c, 0, 74, 100
2, 91614, Note_on_c, 0, 74, 0
2, 91620, Note_on_c, 0, 71, 100
2, 91674, Note_on_c, 0, 71, 0
2, 91680, Note_on_c, 0, 72, 100
2, 91734, Note_on_c, 0, 72, 0
2, 91740, Note_on_c, 0, 69, 100
2, 91794, Note_on_c, 0, 69, 0
2, 91800, Note_on_c, 0, 72, 100
2, 91854, Note_on_c, 0, 72, 0
2, 91860, Note_on_c, 0, 76, 100
2, 91914, Note_on_c, 0, 76, 0
2, 91920, Note_on_c, 0, 81, 100
2, 91956, Note_on_c, 0, 81, 0
2, 91960, Note_on_c, 0, 83, 100
2, 91996, Note_on_c, 0, 83, 0
2, 92000, Note_on_c, 0, 84, 100
2, 92036, Note_on_c, 0, 84, 0
2, 92040, Note_on_c, 0, 83, 100
2, 92076, Note_on_c, 0, 83, 0
2, 92080, Note_on_c, 0, 81, 100
2, 92116, Note_on_c, 0, 81, 0
2, 92120, Note_on_c, 0, 80, 100
2, 92156, Note_on_c, 0, 80, 0
2, 92160, Note_on_c, 0, 81, 100
2, 93984, Note_on_c, 0, 81, 0
2, 94080, Note_on_c, 0, 79, 100
2, 94188, Note_on_c, 0, 79, 0
2, 94320, Note_on_c, 0, 76, 100
2, 94428, Note_on_c, 0, 76, 0
2, 94440, Note_on_c, 0, 75, 100
2, 94548, Note_on_c, 0, 75, 0
2, 94800, Note_on_c, 0, 83, 100
2, 94908, Note_on_c, 0, 83, 0
2, 94920, Note_on_c, 0, 84, 100
2, 95028, Note_on_c, 0, 84, 0
2, 95560, Note_on_c, 0, 80, 100
2, 95596, Note_on_c, 0, 80, 0
2, 95600, Note_on_c, 0, 81, 100
2, 95636, Note_on_c, 0, 81, 0
2, 95640, Note_on_c, 0, 83, 100
2, 95676, Note_on_c, 0, 83, 0
2, 95680, Note_on_c, 0, 81, 100
2, 95716, Note_on_c, 0, 81, 0
2, 95720, Note_on_c, 0, 83, 100
2, 95756, Note_on_c, 0, 83, 0
2, 95760, Note_on_c, 0, 76, 100
2, 95796, Note_on_c, 0, 76, 0
2, 95800, Note_on_c, 0, 80, 100
2, 95836, Note_on_c, 0, 80, 0
2, 95840, Note_on_c, 0, 81, 100
2, 95876, Note_on_c, 0, 81, 0
2, 95880, Note_on_c, 0, 83, 100
2, 95916, Note_on_c, 0, 83, 0
2, 95920, Note_on_c, 0, 81, 100
2, 95956, Note_on_c, 0, 81, 0
2, 95960, Note_on_c, 0, 80, 100
2, 95996, Note_on_c, 0, 80, 0
2, 96000, Note_on_c, 0, 81, 100
2, 96108, Note_on_c, 0, 81, 0
2, 96600, Note_on_c, 0, 88, 100
2, 96681, Note_on_c, 0, 88, 0
2, 96690, Note_on_c, 0, 86, 100
2, 96717, Note_on_c, 0, 86, 0
2, 96720, Note_on_c, 0, 84, 100
2, 96756, Note_on_c, 0, 84, 0
2, 96760, Note_on_c, 0, 83, 100
2, 96796, Note_on_c, 0, 83, 0
2, 96800, Note_on_c, 0, 81, 100
2, 96836, Note_on_c, 0, 81, 0
2, 96840, Note_on_c, 0, 83, 100
2, 96876, Note_on_c, 0, 83, 0
2, 96880, Note_on_c, 0, 84, 100
2, 96916, Note_on_c, 0, 84, 0
2, 96920, Note_on_c, 0, 86, 100
2, 96956, Note_on_c, 0, 86, 0
2, 96960, Note_on_c, 0, 84, 100
2, 96996, Note_on_c, 0, 84, 0
2, 97000, Note_on_c, 0, 83, 100
2, 97036, Note_on_c, 0, 83, 0
2, 97040, Note_on_c, 0, 81, 100
2, 97076, Note_on_c, 0, 81, 0
2, 97560, Note_on_c, 0, 86, 100
2, 97641, Note_on_c, 0, 86, 0
2, 97650, Note_on_c, 0, 84, 100
2, 97677, Note_on_c, 0, 84, 0
2, 97680, Note_on_c, 0, 83, 100
2, 97716, Note_on_c, 0, 83, 0
2, 97720, Note_on_c, 0, 81, 100
2, 97756, Note_on_c, 0, 81, 0
2, 97760, Note_on_c, 0, 79, 100
2, 97796, Note_on_c, 0, 79, 0
2, 97800, Note_on_c, 0, 81, 100
2, 97836, Note_on_c, 0, 81, 0
2, 97840, Note_on_c, 0, 83, 100
2, 97876, Note_on_c, 0, 83, 0
2, 97880, Note_on_c, 0, 84, 100
2, 97916, Note_on_c, 0, 84, 0
2, 97920, Note_on_c, 0, 83, 100
2, 97956, Note_on_c, 0, 83, 0
2, 97960, Note_on_c, 0, 81, 100
2, 97996, Note_on_c, 0, 81, 0
2, 98000, Note_on_c, 0, 79, 100
2, 98036, Note_on_c, 0, 79, 0
2, 98880, Note_on_c, 0, 83, 100
2, 99744, Note_on_c, 0, 83, 0
2, 99840, Note_on_c, 0, 81, 100
2, 100704, Note_on_c, 0, 81, 0
2, 100800, Note_on_c, 0, 79, 100
2, 100854, Note_on_c, 0, 79, 0
2, 100860, Note_on_c, 0, 74, 100
2, 100914, Note_on_c, 0, 74, 0
2, 100920, Note_on_c, 0, 76, 100
2, 100974, Note_on_c, 0, 76, 0
2, 100980, Note_on_c, 0, 78, 100
2, 101034, Note_on_c, 0, 78, 0
2, 101040, Note_on_c, 0, 79, 100
2, 101076, Note_on_c, 0, 79, 0
2, 101080, Note_on_c, 0, 81, 100
2, 101116, Note_on_c, 0, 81, 0
2, 101120, Note_on_c, 0, 83, 100
2, 101156, Note_on_c, 0, 83, 0
2, 101160, Note_on_c, 0, 81, 100
2, 101196, Note_on_c, 0, 81, 0
2, 101200, Note_on_c, 0, 79, 100
2, 101236, Note_on_c, 0, 79, 0
2, 101240, Note_on_c, 0, 78, 100
2, 101276, Note_on_c, 0, 78, 0
2, 101280, Note_on_c, 0, 79, 100
2, 101388, Note_on_c, 0, 79, 0
2, 101400, Note_on_c, 0, 84, 100
2, 101508, Note_on_c, 0, 84, 0
2, 101520, Note_on_c, 0, 83, 100
2, 101628, Note_on_c, 0, 83, 0
2, 101640, Note_on_c, 0, 78, 100
2, 101748, Note_on_c, 0, 78, 0
2, 101880, Note_on_c, 0, 81, 100
2, 101988, Note_on_c, 0, 81, 0
2, 102000, Note_on_c, 0, 79, 100
2, 102108, Note_on_c, 0, 79, 0
2, 102120, Note_on_c, 0, 72, 100
2, 102228, Note_on_c, 0, 72, 0
2, 102240, Note_on_c, 0, 71, 100
2, 102348, Note_on_c, 0, 71, 0
2, 102360, Note_on_c, 0, 76, 100
2, 102468, Note_on_c, 0, 76, 0
2, 102480, Note_on_c, 0, 74, 100
2, 102588, Note_on_c, 0, 74, 0
2, 102600, Note_on_c, 0, 72, 100
2, 102708, Note_on_c, 0, 72, 0
2, 102720, Note_on_c, 0, 71, 100
2, 102828, Note_on_c, 0, 71, 0
2, 102840, Note_on_c, 0, 83, 100
2, 102876, Note_on_c, 0, 83, 0
2, 102880, Note_on_c, 0, 81, 100
2, 102916, Note_on_c, 0, 81, 0
2, 102920, Note_on_c, 0, 83, 100
2, 102956, Note_on_c, 0, 83, 0
2, 102960, Note_on_c, 0, 66, 100
2, 103068, Note_on_c, 0, 66, 0
2, 103080, Note_on_c, 0, 84, 100
2, 103116, Note_on_c, 0, 84, 0
2, 103120, Note_on_c, 0, 83, 100
2, 103156, Note_on_c, 0, 83, 0
2, 103160, Note_on_c, 0, 84, 100
2, 103196, Note_on_c, 0, 84, 0
2, 103200, Note_on_c, 0, 67, 100
2, 103308, Note_on_c, 0, 67, 0
2, 103320, Note_on_c, 0, 86, 100
2, 103356, Note_on_c, 0, 86, 0
2, 103360, Note_on_c, 0, 84, 100
2, 103396, Note_on_c, 0, 84, 0
2, 103400, Note_on_c, 0, 86, 100
2, 103436, Note_on_c, 0, 86, 0
2, 103440, Note_on_c, 0, 67, 100
2, 103548, Note_on_c, 0, 67, 0
2, 103560, Note_on_c, 0, 88, 100
2, 103596, Note_on_c, 0, 88, 0
2, 103600, Note_on_c, 0, 86, 100
2, 103636, Note_on_c, 0, 86, 0
2, 103640, Note_on_c, 0, 88, 100
2, 103676, Note_on_c, 0, 88, 0
2, 103680, Note_on_c, 0, 84, 100
2, 103788, Note_on_c, 0, 84, 0
2, 103800, Note_on_c, 0, 81, 100
2, 103836, Note_on_c, 0, 81, 0
2, 103840, Note_on_c, 0, 79, 100
2, 103876, Note_on_c, 0, 79, 0
2, 103880, Note_on_c, 0, 81, 100
2, 103916, Note_on_c, 0, 81, 0
2, 103920, Note_on_c, 0, 84, 100
2, 104028, Note_on_c, 0, 84, 0
2, 104040, Note_on_c, 0, 72, 100
2, 104076, Note_on_c, 0, 72, 0
2, 104080, Note_on_c, 0, 71, 100
2, 104116, Note_on_c, 0, 71, 0
2, 104120, Note_on_c, 0, 72, 100
2, 104156, Note_on_c, 0, 72, 0
2, 104160, Note_on_c, 0, 71, 100
2, 104268, Note_on_c, 0, 71, 0
2, 104280, Note_on_c, 0, 74, 100
2, 104388, Note_on_c, 0, 74, 0
2, 104400, Note_on_c, 0, 77, 100
2, 104508, Note_on_c, 0, 77, 0
2, 104520, Note_on_c, 0, 80, 100
2, 104628, Note_on_c, 0, 80, 0
2, 104640, Note_on_c, 0, 83, 100
2, 104856, Note_on_c, 0, 83, 0
2, 105180, Note_on_c, 0, 72, 100
2, 105234, Note_on_c, 0, 72, 0
2, 105240, Note_on_c, 0, 79, 100
2, 105294, Note_on_c, 0, 79, 0
2, 105300, Note_on_c, 0, 81, 100
2, 105354, Note_on_c, 0, 81, 0
2, 105360, Note_on_c, 0, 82, 100
2, 105414, Note_on_c, 0, 82, 0
2, 105420, Note_on_c, 0, 86, 100
2, 105474, Note_on_c, 0, 86, 0
2, 105480, Note_on_c, 0, 84, 100
2, 105534, Note_on_c, 0, 84, 0
2, 105540, Note_on_c, 0, 79, 100
2, 105594, Note_on_c, 0, 79, 0
2, 105600, Note_on_c, 0, 81, 100
2, 106464, Note_on_c, 0, 81, 0
2, 106560, Note_on_c, 0, 83, 100
2, 106992, Note_on_c, 0, 83, 0
2, 107040, Note_on_c, 0, 81, 100
2, 107148, Note_on_c, 0, 81, 0
2, 107160, Note_on_c, 0, 74, 100
2, 107196, Note_on_c, 0, 74, 0
2, 107200, Note_on_c, 0, 76, 100
2, 107236, Note_on_c, 0, 76, 0
2, 107240, Note_on_c, 0, 77, 100
2, 107276, Note_on_c, 0, 77, 0
2, 107280, Note_on_c, 0, 79, 100
2, 107388, Note_on_c, 0, 79, 0
2, 107640, Note_on_c, 0, 71, 100
2, 107676, Note_on_c, 0, 71, 0
2, 107680, Note_on_c, 0, 72, 100
2, 107716, Note_on_c, 0, 72, 0
2, 107720, Note_on_c, 0, 74, 100
2, 107756, Note_on_c, 0, 74, 0
2, 107760, Note_on_c, 0, 76, 100
2, 107868, Note_on_c, 0, 76, 0
2, 108120, Note_on_c, 0, 78, 100
2, 108156, Note_on_c, 0, 78, 0
2, 108160, Note_on_c, 0, 76, 100
2, 108196, Note_on_c, 0, 76, 0
2, 108200, Note_on_c, 0, 78, 100
2, 108236, Note_on_c, 0, 78, 0
2, 108240, Note_on_c, 0, 86, 100
2, 108348, Note_on_c, 0, 86, 0
2, 108600, Note_on_c, 0, 83, 100
2, 108636, Note_on_c, 0, 83, 0
2, 108640, Note_on_c, 0, 81, 100
2, 108676, Note_on_c, 0, 81, 0
2, 108680, Note_on_c, 0, 80, 100
2, 108716, Note_on_c, 0, 80, 0
2, 108720, Note_on_c, 0, 81, 100
2, 108828, Note_on_c, 0, 81, 0
2, 109080, Note_on_c, 0, 84, 100
2, 109116, Note_on_c, 0, 84, 0
2, 109120, Note_on_c, 0, 83, 100
2, 109156, Note_on_c, 0, 83, 0
2, 109160, Note_on_c, 0, 81, 100
2, 109196, Note_on_c, 0, 81, 0
2, 109200, Note_on_c, 0, 81, 100
2, 109308, Note_on_c, 0, 81, 0
2, 109320, Note_on_c, 0, 86, 100
2, 109356, Note_on_c, 0, 86, 0
2, 109360, Note_on_c, 0, 84, 100
2, 109396, Note_on_c, 0, 84, 0
2, 109400, Note_on_c, 0, 83, 100
2, 109436, Note_on_c, 0, 83, 0
2, 109440, Note_on_c, 0, 83, 100
2, 109548, Note_on_c, 0, 83, 0
2, 109680, Note_on_c, 0, 76, 100
2, 109896, Note_on_c, 0, 76, 0
2, 109920, Note_on_c, 0, 74, 100
2, 110136, Note_on_c, 0, 74, 0
2, 110160, Note_on_c, 0, 72, 100
2, 110376, Note_on_c, 0, 72, 0
2, 110400, Note_on_c, 0, 71, 100
2, 110508, Note_on_c, 0, 71, 0
2, 110520, Note_on_c, 0, 83, 100
2, 110556, Note_on_c, 0, 83, 0
2, 110560, Note_on_c, 0, 84, 100
2, 110596, Note_on_c, 0, 84, 0
2, 110600, Note_on_c, 0, 86, 100
2, 110636, Note_on_c, 0, 86, 0
2, 110640, Note_on_c, 0, 77, 100
2, 110748, Note_on_c, 0, 77, 0
2, 110760, Note_on_c, 0, 77, 100
2, 110976, Note_on_c, 0, 77, 0
2, 111000, Note_on_c, 0, 77, 100
2, 111156, Note_on_c, 0, 77, 0
2, 111160, Note_on_c, 0, 76, 100
2, 111196, Note_on_c, 0, 76, 0
2, 111200, Note_on_c, 0, 74, 100
2, 111236, Note_on_c, 0, 74, 0
2, 111240, Note_on_c, 0, 72, 100
2, 111276, Note_on_c, 0, 72, 0
2, 111280, Note_on_c, 0, 71, 100
2, 111316, Note_on_c, 0, 71, 0
2, 111320, Note_on_c, 0, 69, 100
2, 111356, Note_on_c, 0, 69, 0
2, 111360, Note_on_c, 0, 69, 100
2, 111468, Note_on_c, 0, 69, 0
2, 111480, Note_on_c, 0, 68, 100
2, 111588, Note_on_c, 0, 68, 0
2, 111720, Note_on_c, 0, 69, 100
2, 111828, Note_on_c, 0, 69, 0
2, 111960, Note_on_c, 0, 76, 100
2, 112068, Note_on_c, 0, 76, 0
2, 112200, Note_on_c, 0, 78, 100
2, 112308, Note_on_c, 0, 78, 0
2, 112440, Note_on_c, 0, 80, 100
2, 112548, Note_on_c, 0, 80, 0
2, 112560, Note_on_c, 0, 81, 100
2, 112668, Note_on_c, 0, 81, 0
2, 112800, Note_on_c, 0, 74, 100
2, 112908, Note_on_c, 0, 74, 0
2, 112920, Note_on_c, 0, 76, 100
2, 113028, Note_on_c, 0, 76, 0
2, 113040, Note_on_c, 0, 77, 100
2, 113256, Note_on_c, 0, 77, 0
2, 113280, Note_on_c, 0, 76, 100
2, 113496, Note_on_c, 0, 76, 0
2, 113520, Note_on_c, 0, 74, 100
2, 113736, Note_on_c, 0, 74, 0
2, 113760, Note_on_c, 0, 73, 100
2, 113841, Note_on_c, 0, 73, 0
2, 113850, Note_on_c, 0, 76, 100
2, 113877, Note_on_c, 0, 76, 0
2, 113880, Note_on_c, 0, 81, 100
2, 113961, Note_on_c, 0, 81, 0
2, 113970, Note_on_c, 0, 79, 100
2, 113997, Note_on_c, 0, 79, 0
2, 114000, Note_on_c, 0, 77, 100
2, 114081, Note_on_c, 0, 77, 0
2, 114090, Note_on_c, 0, 73, 100
2, 114117, Note_on_c, 0, 73, 0
2, 114120, Note_on_c, 0, 74, 100
2, 114348, Note_on_c, 0, 74, 0
2, 114360, Note_on_c, 0, 74, 100
2, 114576, Note_on_c, 0, 74, 0
2, 114600, Note_on_c, 0, 74, 100
2, 114828, Note_on_c, 0, 74, 0
2, 114840, Note_on_c, 0, 83, 100
2, 114948, Note_on_c, 0, 83, 0
2, 115080, Note_on_c, 0, 80, 100
2, 115188, Note_on_c, 0, 80, 0
2, 115320, Note_on_c, 0, 76, 100
2, 115428, Note_on_c, 0, 76, 0
2, 115560, Note_on_c, 0, 74, 100
2, 115668, Note_on_c, 0, 74, 0
2, 115800, Note_on_c, 0, 72, 100
2, 115908, Note_on_c, 0, 72, 0
2, 116040, Note_on_c, 0, 88, 100
2, 116148, Note_on_c, 0, 88, 0
2, 116280, Note_on_c, 0, 84, 100
2, 116388, Note_on_c, 0, 84, 0
2, 116520, Note_on_c, 0, 81, 100
2, 116628, Note_on_c, 0, 81, 0
2, 116760, Note_on_c, 0, 82, 100
2, 116868, Note_on_c, 0, 82, 0
2, 117000, Note_on_c, 0, 79, 100
2, 117108, Note_on_c, 0, 79, 0
2, 117240, Note_on_c, 0, 76, 100
2, 117348, Note_on_c, 0, 76, 0
2, 117480, Note_on_c, 0, 73, 100
2, 117588, Note_on_c, 0, 73, 0
2, 117720, Note_on_c, 0, 74, 100
2, 117828, Note_on_c, 0, 74, 0
2, 117960, Note_on_c, 0, 77, 100
2, 118068, Note_on_c, 0, 77, 0
2, 118200, Note_on_c, 0, 81, 100
2, 118308, Note_on_c, 0, 81, 0
2, 118440, Note_on_c, 0, 86, 100
2, 118548, Note_on_c, 0, 86, 0
2, 118680, Note_on_c, 0, 80, 100
2, 118788, Note_on_c, 0, 80, 0
2, 118920, Note_on_c, 0, 83, 100
2, 119028, Note_on_c, 0, 83, 0
2, 119160, Note_on_c, 0, 76, 100
2, 119268, Note_on_c, 0, 76, 0
2, 119400, Note_on_c, 0, 86, 100
2, 119508, Note_on_c, 0, 86, 0
2, 119640, Note_on_c, 0, 85, 100
2, 119748, Note_on_c, 0, 85, 0
2, 119880, Note_on_c, 0, 85, 100
2, 119988, Note_on_c, 0, 85, 0
2, 120120, Note_on_c, 0, 87, 100
2, 120228, Note_on_c, 0, 87, 0
2, 120360, Note_on_c, 0, 87, 100
2, 120468, Note_on_c, 0, 87, 0
2, 120600, Note_on_c, 0, 88, 100
2, 120708, Note_on_c, 0, 88, 0
2, 120840, Note_on_c, 0, 86, 100
2, 120948, Note_on_c, 0, 86, 0
2, 121080, Note_on_c, 0, 84, 100
2, 121188, Note_on_c, 0, 84, 0
2, 121320, Note_on_c, 0, 84, 100
2, 121428, Note_on_c, 0, 84, 0
2, 121560, Note_on_c, 0, 83, 100
2, 121668, Note_on_c, 0, 83, 0
2, 121800, Note_on_c, 0, 83, 100
2, 121908, Note_on_c, 0, 83, 0
2, 121920, Note_on_c, 0, 84, 100
2, 122028, Note_on_c, 0, 84, 0
2, 122280, Note_on_c, 0, 80, 100
2, 122388, Note_on_c, 0, 80, 0
2, 122400, Note_on_c, 0, 81, 100
2, 122508, Note_on_c, 0, 81, 0
2, 122760, Note_on_c, 0, 74, 100
2, 122868, Note_on_c, 0, 74, 0
2, 122880, Note_on_c, 0, 72, 100
2, 122988, Note_on_c, 0, 72, 0
2, 123240, Note_on_c, 0, 77, 100
2, 123348, Note_on_c, 0, 77, 0
2, 123360, Note_on_c, 0, 76, 100
2, 123414, Note_on_c, 0, 76, 0
2, 123420, Note_on_c, 0, 69, 100
2, 123474, Note_on_c, 0, 69, 0
2, 123480, Note_on_c, 0, 72, 100
2, 123534, Note_on_c, 0, 72, 0
2, 123540, Note_on_c, 0, 76, 100
2, 123594, Note_on_c, 0, 76, 0
2, 123600, Note_on_c, 0, 81, 100
2, 123636, Note_on_c, 0, 81, 0
2, 123640, Note_on_c, 0, 83, 100
2, 123676, Note_on_c, 0, 83, 0
2, 123680, Note_on_c, 0, 84, 100
2, 123716, Note_on_c, 0, 84, 0
2, 123720, Note_on_c, 0, 83, 100
2, 123756, Note_on_c, 0, 83, 0
2, 123760, Note_on_c, 0, 81, 100
2, 123796, Note_on_c, 0, 81, 0
2, 123800, Note_on_c, 0, 80, 100
2, 123836, Note_on_c, 0, 80, 0
2, 123840, Note_on_c, 0, 81, 100
2, 123948, Note_on_c, 0, 81, 0
2, 123960, Note_on_c, 0, 76, 100
2, 124068, Note_on_c, 0, 76, 0
2, 124080, Note_on_c, 0, 81, 100
2, 124188, Note_on_c, 0, 81, 0
2, 124200, Note_on_c, 0, 84, 100
2, 124308, Note_on_c, 0, 84, 0
2, 124320, Note_on_c, 0, 88, 100
2, 124752, Note_on_c, 0, 88, 0
2, 124800, Note_on_c, 0, 86, 100
2, 124908, Note_on_c, 0, 86, 0
2, 125400, Note_on_c, 0, 83, 100
2, 125436, Note_on_c, 0, 83, 0
2, 125440, Note_on_c, 0, 84, 100
2, 125476, Note_on_c, 0, 84, 0
2, 125480, Note_on_c, 0, 86, 100
2, 125516, Note_on_c, 0, 86, 0
2, 125520, Note_on_c, 0, 79, 100
2, 125628, Note_on_c, 0, 79, 0
2, 125640, Note_on_c, 0, 77, 100
2, 125748, Note_on_c, 0, 77, 0
2, 125760, Note_on_c, 0, 76, 100
2, 125868, Note_on_c, 0, 76, 0
2, 126570, Note_on_c, 0, 74, 100
2, 126597, Note_on_c, 0, 74, 0
2, 126600, Note_on_c, 0, 77, 100
2, 126681, Note_on_c, 0, 77, 0
2, 126690, Note_on_c, 0, 81, 100
2, 126717, Note_on_c, 0, 81, 0
2, 126720, Note_on_c, 0, 86, 100
2, 126828, Note_on_c, 0, 86, 0
2, 126840, Note_on_c, 0, 84, 100
2, 126876, Note_on_c, 0, 84, 0
2, 126880, Note_on_c, 0, 83, 100
2, 126916, Note_on_c, 0, 83, 0
2, 126920, Note_on_c, 0, 81, 100
2, 126956, Note_on_c, 0, 81, 0
2, 126960, Note_on_c, 0, 83, 100
2, 127068, Note_on_c, 0, 83, 0
2, 127080, Note_on_c, 0, 81, 100
2, 127188, Note_on_c, 0, 81, 0
2, 127200, Note_on_c, 0, 80, 100
2, 127308, Note_on_c, 0, 80, 0
2, 127320, Note_on_c, 0, 81, 100
2, 127356, Note_on_c, 0, 81, 0
2, 127360, Note_on_c, 0, 80, 100
2, 127396, Note_on_c, 0, 80, 0
2, 127400, Note_on_c, 0, 78, 100
2, 127436, Note_on_c, 0, 78, 0
2, 127440, Note_on_c, 0, 80, 100
2, 127548, Note_on_c, 0, 80, 0
2, 127560, Note_on_c, 0, 75, 100
2, 127668, Note_on_c, 0, 75, 0
2, 127680, Note_on_c, 0, 76, 100
2, 127788, Note_on_c, 0, 76, 0
2, 127800, Note_on_c, 0, 78, 100
2, 127836, Note_on_c, 0, 78, 0
2, 127840, Note_on_c, 0, 80, 100
2, 127876, Note_on_c, 0, 80, 0
2, 127880, Note_on_c, 0, 81, 100
2, 127916, Note_on_c, 0, 81, 0
2, 127920, Note_on_c, 0, 80, 100
2, 128028, Note_on_c, 0, 80, 0
2, 128040, Note_on_c, 0, 84, 100
2, 128148, Note_on_c, 0, 84, 0
2, 128160, Note_on_c, 0, 83, 100
2, 128268, Note_on_c, 0, 83, 0
2, 128280, Note_on_c, 0, 87, 100
2, 128388, Note_on_c, 0, 87, 0
2, 128400, Note_on_c, 0, 88, 100
2, 128508, Note_on_c, 0, 88, 0
2, 128760, Note_on_c, 0, 76, 100
2, 128868, Note_on_c, 0, 76, 0
2, 128880, Note_on_c, 0, 80, 100
2, 128988, Note_on_c, 0, 80, 0
2, 129000, Note_on_c, 0, 83, 100
2, 129108, Note_on_c, 0, 83, 0
2, 129120, Note_on_c, 0, 86, 100
2, 130188, Note_on_c, 0, 86, 0
2, 130200, Note_on_c, 0, 84, 100
2, 130281, Note_on_c, 0, 84, 0
2, 130290, Note_on_c, 0, 83, 100
2, 130317, Note_on_c, 0, 83, 0
2, 130320, Note_on_c, 0, 81, 100
2, 130428, Note_on_c, 0, 81, 0
2, 130440, Note_on_c, 0, 80, 100
2, 130521, Note_on_c, 0, 80, 0
2, 130530, Note_on_c, 0, 83, 100
2, 130557, Note_on_c, 0, 83, 0
2, 130560, Note_on_c, 0, 81, 100
2, 130668, Note_on_c, 0, 81, 0
2, 130680, Note_on_c, 0, 79, 100
2, 130716, Note_on_c, 0, 79, 0
2, 130720, Note_on_c, 0, 81, 100
2, 130756, Note_on_c, 0, 81, 0
2, 130760, Note_on_c, 0, 82, 100
2, 130796, Note_on_c, 0, 82, 0
2, 130800, Note_on_c, 0, 76, 100
2, 130908, Note_on_c, 0, 76, 0
2, 131160, Note_on_c, 0, 73, 100
2, 131196, Note_on_c, 0, 73, 0
2, 131200, Note_on_c, 0, 74, 100
2, 131236, Note_on_c, 0, 74, 0
2, 131240, Note_on_c, 0, 76, 100
2, 131276, Note_on_c, 0, 76, 0
2, 131280, Note_on_c, 0, 69, 100
2, 131388, Note_on_c, 0, 69, 0
2, 131520, Note_on_c, 0, 74, 100
2, 133548, Note_on_c, 0, 74, 0
2, 135480, Note_on_c, 0, 69, 100
2, 135534, Note_on_c, 0, 69, 0
2, 135540, Note_on_c, 0, 71, 100
2, 135594, Note_on_c, 0, 71, 0
2, 135600, Note_on_c, 0, 72, 100
2, 135654, Note_on_c, 0, 72, 0
2, 135660, Note_on_c, 0, 76, 100
2, 135714, Note_on_c, 0, 76, 0
2, 135720, Note_on_c, 0, 74, 100
2, 135774, Note_on_c, 0, 74, 0
2, 135780, Note_on_c, 0, 71, 100
2, 135834, Note_on_c, 0, 71, 0
2, 135840, Note_on_c, 0, 72, 100
2, 135894, Note_on_c, 0, 72, 0
2, 135900, Note_on_c, 0, 69, 100
2, 135954, Note_on_c, 0, 69, 0
2, 135960, Note_on_c, 0, 72, 100
2, 136014, Note_on_c, 0, 72, 0
2, 136020, Note_on_c, 0, 76, 100
2, 136074, Note_on_c, 0, 76, 0
2, 136080, Note_on_c, 0, 81, 100
2, 136116, Note_on_c, 0, 81, 0
2, 136120, Note_on_c, 0, 83, 100
2, 136156, Note_on_c, 0, 83, 0
2, 136160, Note_on_c, 0, 84, 100
2, 136196, Note_on_c, 0, 84, 0
2, 136200, Note_on_c, 0, 83, 100
2, 136236, Note_on_c, 0, 83, 0
2, 136240, Note_on_c, 0, 81, 100
2, 136276, Note_on_c, 0, 81, 0
2, 136280, Note_on_c, 0, 80, 100
2, 136316, Note_on_c, 0, 80, 0
2, 136320, Note_on_c, 0, 81, 100
2, 136356, Note_on_c, 0, 81, 0
2, 136360, Note_on_c, 0, 76, 100
2, 136396, Note_on_c, 0, 76, 0
2, 136400, Note_on_c, 0, 76, 100
2, 136436, Note_on_c, 0, 76, 0
2, 136440, Note_on_c, 0, 77, 100
2, 136476, Note_on_c, 0, 77, 0
2, 136480, Note_on_c, 0, 75, 100
2, 136516, Note_on_c, 0, 75, 0
2, 136520, Note_on_c, 0, 76, 100
2, 136556, Note_on_c, 0, 76, 0
2, 136560, Note_on_c, 0, 77, 100
2, 136596, Note_on_c, 0, 77, 0
2, 136600, Note_on_c, 0, 75, 100
2, 136636, Note_on_c, 0, 75, 0
2, 136640, Note_on_c, 0, 76, 100
2, 136676, Note_on_c, 0, 76, 0
2, 136680, Note_on_c, 0, 77, 100
2, 136716, Note_on_c, 0, 77, 0
2, 136720, Note_on_c, 0, 75, 100
2, 136756, Note_on_c, 0, 75, 0
2, 136760, Note_on_c, 0, 76, 100
2, 136796, Note_on_c, 0, 76, 0
2, 136800, Note_on_c, 0, 68, 100
2, 136836, Note_on_c, 0, 68, 0
2, 136840, Note_on_c, 0, 69, 100
2, 136876, Note_on_c, 0, 69, 0
2, 136880, Note_on_c, 0, 71, 100
2, 136916, Note_on_c, 0, 71, 0
2, 136920, Note_on_c, 0, 69, 100
2, 136956, Note_on_c, 0, 69, 0
2, 136960, Note_on_c, 0, 71, 100
2, 136996, Note_on_c, 0, 71, 0
2, 137000, Note_on_c, 0, 72, 100
2, 137036, Note_on_c, 0, 72, 0
2, 137040, Note_on_c, 0, 71, 100
2, 137076, Note_on_c, 0, 71, 0
2, 137080, Note_on_c, 0, 76, 100
2, 137116, Note_on_c, 0, 76, 0
2, 137120, Note_on_c, 0, 74, 100
2, 137156, Note_on_c, 0, 74, 0
2, 137160, Note_on_c, 0, 72, 100
2, 137196, Note_on_c, 0, 72, 0
2, 137200, Note_on_c, 0, 71, 100
2, 137236, Note_on_c, 0, 71, 0
2, 137240, Note_on_c, 0, 69, 100
2, 137276, Note_on_c, 0, 69, 0
2, 137280, Note_on_c, 0, 68, 100
2, 137388, Note_on_c, 0, 68, 0
2, 138280, Note_on_c, 0, 76, 100
2, 138316, Note_on_c, 0, 76, 0
2, 138320, Note_on_c, 0, 77, 100
2, 138356, Note_on_c, 0, 77, 0
2, 138360, Note_on_c, 0, 79, 100
2, 138396, Note_on_c, 0, 79, 0
2, 138400, Note_on_c, 0, 77, 100
2, 138436, Note_on_c, 0, 77, 0
2, 138440, Note_on_c, 0, 79, 100
2, 138476, Note_on_c, 0, 79, 0
2, 138480, Note_on_c, 0, 69, 100
2, 138516, Note_on_c, 0, 69, 0
2, 138520, Note_on_c, 0, 76, 100
2, 138556, Note_on_c, 0, 76, 0
2, 138560, Note_on_c, 0, 77, 100
2, 138596, Note_on_c, 0, 77, 0
2, 138600, Note_on_c, 0, 79, 100
2, 138636, Note_on_c, 0, 79, 0
2, 138640, Note_on_c, 0, 77, 100
2, 138676, Note_on_c, 0, 77, 0
2, 138680, Note_on_c, 0, 76, 100
2, 138716, Note_on_c, 0, 76, 0
2, 138720, Note_on_c, 0, 77, 100
2, 138756, Note_on_c, 0, 77, 0
2, 138760, Note_on_c, 0, 74, 100
2, 138796, Note_on_c, 0, 74, 0
2, 138800, Note_on_c, 0, 76, 100
2, 138836, Note_on_c, 0, 76, 0
2, 138840, Note_on_c, 0, 77, 100
2, 138876, Note_on_c, 0, 77, 0
2, 138880, Note_on_c, 0, 76, 100
2, 138916, Note_on_c, 0, 76, 0
2, 138920, Note_on_c, 0, 77, 100
2, 138956, Note_on_c, 0, 77, 0
2, 138960, Note_on_c, 0, 67, 100
2, 138996, Note_on_c, 0, 67, 0
2, 139000, Note_on_c, 0, 74, 100
2, 139036, Note_on_c, 0, 74, 0
2, 139040, Note_on_c, 0, 76, 100
2, 139076, Note_on_c, 0, 76, 0
2, 139080, Note_on_c, 0, 77, 100
2, 139116, Note_on_c, 0, 77, 0
2, 139120, Note_on_c, 0, 76, 100
2, 139156, Note_on_c, 0, 76, 0
2, 139160, Note_on_c, 0, 74, 100
2, 139196, Note_on_c, 0, 74, 0
2, 139200, Note_on_c, 0, 76, 100
2, 139308, Note_on_c, 0, 76, 0
2, 139320, Note_on_c, 0, 72, 100
2, 139401, Note_on_c, 0, 72, 0
2, 139410, Note_on_c, 0, 76, 100
2, 139437, Note_on_c, 0, 76, 0
2, 139440, Note_on_c, 0, 69, 100
2, 139521, Note_on_c, 0, 69, 0
2, 139530, Note_on_c, 0, 76, 100
2, 139557, Note_on_c, 0, 76, 0
2, 139560, Note_on_c, 0, 66, 100
2, 139641, Note_on_c, 0, 66, 0
2, 139650, Note_on_c, 0, 76, 100
2, 139677, Note_on_c, 0, 76, 0
2, 139680, Note_on_c, 0, 74, 100
2, 139716, Note_on_c, 0, 74, 0
2, 139720, Note_on_c, 0, 72, 100
2, 139756, Note_on_c, 0, 72, 0
2, 139760, Note_on_c, 0, 74, 100
2, 139796, Note_on_c, 0, 74, 0
2, 139800, Note_on_c, 0, 71, 100
2, 139881, Note_on_c, 0, 71, 0
2, 139890, Note_on_c, 0, 74, 100
2, 139917, Note_on_c, 0, 74, 0
2, 139920, Note_on_c, 0, 68, 100
2, 140001, Note_on_c, 0, 68, 0
2, 140010, Note_on_c, 0, 74, 100
2, 140037, Note_on_c, 0, 74, 0
2, 140040, Note_on_c, 0, 64, 100
2, 140121, Note_on_c, 0, 64, 0
2, 140130, Note_on_c, 0, 74, 100
2, 140157, Note_on_c, 0, 74, 0
2, 140160, Note_on_c, 0, 72, 100
2, 140196, Note_on_c, 0, 72, 0
2, 140200, Note_on_c, 0, 71, 100
2, 140236, Note_on_c, 0, 71, 0
2, 140240, Note_on_c, 0, 69, 100
2, 140276, Note_on_c, 0, 69, 0
2, 140280, Note_on_c, 0, 77, 100
2, 140316, Note_on_c, 0, 77, 0
2, 140320, Note_on_c, 0, 76, 100
2, 140356, Note_on_c, 0, 76, 0
2, 140360, Note_on_c, 0, 74, 100
2, 140396, Note_on_c, 0, 74, 0
2, 140400, Note_on_c, 0, 72, 100
2, 140436, Note_on_c, 0, 72, 0
2, 140440, Note_on_c, 0, 71, 100
2, 140476, Note_on_c, 0, 71, 0
2, 140480, Note_on_c, 0, 69, 100
2, 140516, Note_on_c, 0, 69, 0
2, 140520, Note_on_c, 0, 68, 100
2, 140556, Note_on_c, 0, 68, 0
2, 140560, Note_on_c, 0, 69, 100
2, 140596, Note_on_c, 0, 69, 0
2, 140600, Note_on_c, 0, 71, 100
2, 140636, Note_on_c, 0, 71, 0
2, 140640, Note_on_c, 0, 64, 100
2, 140802, Note_on_c, 0, 64, 0
2, 140820, Note_on_c, 0, 66, 100
2, 140847, Note_on_c, 0, 66, 0
2, 140850, Note_on_c, 0, 68, 100
2, 140877, Note_on_c, 0, 68, 0
2, 140880, Note_on_c, 0, 69, 100
2, 140916, Note_on_c, 0, 69, 0
2, 140920, Note_on_c, 0, 71, 100
2, 140956, Note_on_c, 0, 71, 0
2, 140960, Note_on_c, 0, 72, 100
2, 140996, Note_on_c, 0, 72, 0
2, 141000, Note_on_c, 0, 74, 100
2, 141036, Note_on_c, 0, 74, 0
2, 141040, Note_on_c, 0, 76, 100
2, 141076, Note_on_c, 0, 76, 0
2, 141080, Note_on_c, 0, 77, 100
2, 141116, Note_on_c, 0, 77, 0
2, 141120, Note_on_c, 0, 76, 100
2, 141156, Note_on_c, 0, 76, 0
2, 141160, Note_on_c, 0, 74, 100
2, 141196, Note_on_c, 0, 74, 0
2, 141200, Note_on_c, 0, 72, 100
2, 141236, Note_on_c, 0, 72, 0
2, 141240, Note_on_c, 0, 71, 100
2, 141276, Note_on_c, 0, 71, 0
2, 141280, Note_on_c, 0, 72, 100
2, 141316, Note_on_c, 0, 72, 0
2, 141320, Note_on_c, 0, 69, 100
2, 141356, Note_on_c, 0, 69, 0
2, 141360, Note_on_c, 0, 64, 100
2, 141441, Note_on_c, 0, 64, 0
2, 141450, Note_on_c, 0, 69, 100
2, 141477, Note_on_c, 0, 69, 0
2, 141480, Note_on_c, 0, 71, 100
2, 141561, Note_on_c, 0, 71, 0
2, 141570, Note_on_c, 0, 68, 100
2, 141597, Note_on_c, 0, 68, 0
2, 141600, Note_on_c, 0, 69, 100
2, 141708, Note_on_c, 0, 69, 0
2, 141930, Note_on_c, 0, 76, 100
2, 141957, Note_on_c, 0, 76, 0
2, 141960, Note_on_c, 0, 64, 100
2, 142041, Note_on_c, 0, 64, 0
2, 142050, Note_on_c, 0, 68, 100
2, 142077, Note_on_c, 0, 68, 0
2, 142080, Note_on_c, 0, 69, 100
2, 142296, Note_on_c, 0, 69, 0
2, 142296, End_track
3, 0, Start_track
3, 0, Sequence_number, 65535
3, 0, MIDI_port, 0
3, 0, Title_t, "Violino concertato"
3, 0, Control_c, 1, 0, 0
3, 0, Control_c, 1, 32, 0
3, 0, Program_c, 1, 40
3, 0, Control_c, 1, 7, 100
3, 0, Control_c, 1, 10, 74
3, 120, Note_on_c, 1, 57, 100
3, 174, Note_on_c, 1, 57, 0
3, 180, Note_on_c, 1, 59, 100
3, 234, Note_on_c, 1, 59, 0
3, 240, Note_on_c, 1, 60, 100
3, 294, Note_on_c, 1, 60, 0
3, 300, Note_on_c, 1, 64, 100
3, 354, Note_on_c, 1, 64, 0
3, 360, Note_on_c, 1, 62, 100
3, 414, Note_on_c, 1, 62, 0
3, 420, Note_on_c, 1, 59, 100
3, 474, Note_on_c, 1, 59, 0
3, 480, Note_on_c, 1, 60, 100
3, 534, Note_on_c, 1, 60, 0
3, 540, Note_on_c, 1, 57, 100
3, 594, Note_on_c, 1, 57, 0
3, 600, Note_on_c, 1, 60, 100
3, 654, Note_on_c, 1, 60, 0
3, 660, Note_on_c, 1, 64, 100
3, 714, Note_on_c, 1, 64, 0
3, 720, Note_on_c, 1, 69, 100
3, 756, Note_on_c, 1, 69, 0
3, 760, Note_on_c, 1, 71, 100
3, 796, Note_on_c, 1, 71, 0
3, 800, Note_on_c, 1, 72, 100
3, 836, Note_on_c, 1, 72, 0
3, 840, Note_on_c, 1, 71, 100
3, 876, Note_on_c, 1, 71, 0
3, 880, Note_on_c, 1, 69, 100
3, 916, Note_on_c, 1, 69, 0
3, 920, Note_on_c, 1, 68, 100
3, 956, Note_on_c, 1, 68, 0
3, 960, Note_on_c, 1, 69, 100
3, 1014, Note_on_c, 1, 69, 0
3, 1020, Note_on_c, 1, 64, 100
3, 1074, Note_on_c, 1, 64, 0
3, 1080, Note_on_c, 1, 69, 100
3, 1134, Note_on_c, 1, 69, 0
3, 1140, Note_on_c, 1, 71, 100
3, 1194, Note_on_c, 1, 71, 0
3, 1200, Note_on_c, 1, 72, 100
3, 1254, Note_on_c, 1, 72, 0
3, 1260, Note_on_c, 1, 76, 100
3, 1314, Note_on_c, 1, 76, 0
3, 1320, Note_on_c, 1, 74, 100
3, 1374, Note_on_c, 1, 74, 0
3, 1380, Note_on_c, 1, 71, 100
3, 1434, Note_on_c, 1, 71, 0
3, 1440, Note_on_c, 1, 72, 100
3, 1494, Note_on_c, 1, 72, 0
3, 1500, Note_on_c, 1, 69, 100
3, 1554, Note_on_c, 1, 69, 0
3, 1560, Note_on_c, 1, 72, 100
3, 1614, Note_on_c, 1, 72, 0
3, 1620, Note_on_c, 1, 76, 100
3, 1674, Note_on_c, 1, 76, 0
3, 1680, Note_on_c, 1, 81, 100
3, 1716, Note_on_c, 1, 81, 0
3, 1720, Note_on_c, 1, 83, 100
3, 1756, Note_on_c, 1, 83, 0
3, 1760, Note_on_c, 1, 84, 100
3, 1796, Note_on_c, 1, 84, 0
3, 1800, Note_on_c, 1, 83, 100
3, 1836, Note_on_c, 1, 83, 0
3, 1840, Note_on_c, 1, 81, 100
3, 1876, Note_on_c, 1, 81, 0
3, 1880, Note_on_c, 1, 80, 100
3, 1916, Note_on_c, 1, 80, 0
3, 1920, Note_on_c, 1, 81, 100
3, 1956, Note_on_c, 1, 81, 0
3, 1960, Note_on_c, 1, 76, 100
3, 1996, Note_on_c, 1, 76, 0
3, 2000, Note_on_c, 1, 76, 100
3, 2036, Note_on_c, 1, 76, 0
3, 2040, Note_on_c, 1, 77, 100
3, 2076, Note_on_c, 1, 77, 0
3, 2080, Note_on_c, 1, 75, 100
3, 2116, Note_on_c, 1, 75, 0
3, 2120, Note_on_c, 1, 76, 100
3, 2156, Note_on_c, 1, 76, 0
3, 2160, Note_on_c, 1, 77, 100
3, 2196, Note_on_c, 1, 77, 0
3, 2200, Note_on_c, 1, 75, 100
3, 2236, Note_on_c, 1, 75, 0
3, 2240, Note_on_c, 1, 76, 100
3, 2276, Note_on_c, 1, 76, 0
3, 2280, Note_on_c, 1, 77, 100
3, 2316, Note_on_c, 1, 77, 0
3, 2320, Note_on_c, 1, 75, 100
3, 2356, Note_on_c, 1, 75, 0
3, 2360, Note_on_c, 1, 76, 100
3, 2396, Note_on_c, 1, 76, 0
3, 2400, Note_on_c, 1, 68, 100
3, 2436, Note_on_c, 1, 68, 0
3, 2440, Note_on_c, 1, 69, 100
3, 2476, Note_on_c, 1, 69, 0
3, 2480, Note_on_c, 1, 71, 100
3, 2516, Note_on_c, 1, 71, 0
3, 2520, Note_on_c, 1, 69, 100
3, 2556, Note_on_c, 1, 69, 0
3, 2560, Note_on_c, 1, 71, 100
3, 2596, Note_on_c, 1, 71, 0
3, 2600, Note_on_c, 1, 72, 100
3, 2636, Note_on_c, 1, 72, 0
3, 2640, Note_on_c, 1, 71, 100
3, 2676, Note_on_c, 1, 71, 0
3, 2680, Note_on_c, 1, 76, 100
3, 2716, Note_on_c, 1, 76, 0
3, 2720, Note_on_c, 1, 74, 100
3, 2756, Note_on_c, 1, 74, 0
3, 2760, Note_on_c, 1, 72, 100
3, 2796, Note_on_c, 1, 72, 0
3, 2800, Note_on_c, 1, 71, 100
3, 2836, Note_on_c, 1, 71, 0
3, 2840, Note_on_c, 1, 69, 100
3, 2876, Note_on_c, 1, 69, 0
3, 2880, Note_on_c, 1, 68, 100
3, 2916, Note_on_c, 1, 68, 0
3, 2920, Note_on_c, 1, 64, 100
3, 2956, Note_on_c, 1, 64, 0
3, 2960, Note_on_c, 1, 64, 100
3, 2996, Note_on_c, 1, 64, 0
3, 3000, Note_on_c, 1, 65, 100
3, 3036, Note_on_c, 1, 65, 0
3, 3040, Note_on_c, 1, 63, 100
3, 3076, Note_on_c, 1, 63, 0
3, 3080, Note_on_c, 1, 64, 100
3, 3116, Note_on_c, 1, 64, 0
3, 3120, Note_on_c, 1, 65, 100
3, 3156, Note_on_c, 1, 65, 0
3, 3160, Note_on_c, 1, 63, 100
3, 3196, Note_on_c, 1, 63, 0
3, 3200, Note_on_c, 1, 64, 100
3, 3236, Note_on_c, 1, 64, 0
3, 3240, Note_on_c, 1, 65, 100
3, 3276, Note_on_c, 1, 65, 0
3, 3280, Note_on_c, 1, 63, 100
3, 3316, Note_on_c, 1, 63, 0
3, 3320, Note_on_c, 1, 64, 100
3, 3356, Note_on_c, 1, 64, 0
3, 3360, Note_on_c, 1, 56, 100
3, 3396, Note_on_c, 1, 56, 0
3, 3400, Note_on_c, 1, 57, 100
3, 3436, Note_on_c, 1, 57, 0
3, 3440, Note_on_c, 1, 59, 100
3, 3476, Note_on_c, 1, 59, 0
3, 3480, Note_on_c, 1, 57, 100
3, 3516, Note_on_c, 1, 57, 0
3, 3520, Note_on_c, 1, 59, 100
3, 3556, Note_on_c, 1, 59, 0
3, 3560, Note_on_c, 1, 60, 100
3, 3596, Note_on_c, 1, 60, 0
3, 3600, Note_on_c, 1, 59, 100
3, 3636, Note_on_c, 1, 59, 0
3, 3640, Note_on_c, 1, 64, 100
3, 3676, Note_on_c, 1, 64, 0
3, 3680, Note_on_c, 1, 62, 100
3, 3716, Note_on_c, 1, 62, 0
3, 3720, Note_on_c, 1, 60, 100
3, 3756, Note_on_c, 1, 60, 0
3, 3760, Note_on_c, 1, 59, 100
3, 3796, Note_on_c, 1, 59, 0
3, 3800, Note_on_c, 1, 57, 100
3, 3836, Note_on_c, 1, 57, 0
3, 3840, Note_on_c, 1, 56, 100
3, 3876, Note_on_c, 1, 56, 0
3, 3880, Note_on_c, 1, 76, 100
3, 3916, Note_on_c, 1, 76, 0
3, 3920, Note_on_c, 1, 77, 100
3, 3956, Note_on_c, 1, 77, 0
3, 3960, Note_on_c, 1, 79, 100
3, 3996, Note_on_c, 1, 79, 0
3, 4000, Note_on_c, 1, 77, 100
3, 4036, Note_on_c, 1, 77, 0
3, 4040, Note_on_c, 1, 79, 100
3, 4076, Note_on_c, 1, 79, 0
3, 4080, Note_on_c, 1, 69, 100
3, 4116, Note_on_c, 1, 69, 0
3, 4120, Note_on_c, 1, 76, 100
3, 4156, Note_on_c, 1, 76, 0
3, 4160, Note_on_c, 1, 77, 100
3, 4196, Note_on_c, 1, 77, 0
3, 4200, Note_on_c, 1, 79, 100
3, 4236, Note_on_c, 1, 79, 0
3, 4240, Note_on_c, 1, 77, 100
3, 4276, Note_on_c, 1, 77, 0
3, 4280, Note_on_c, 1, 76, 100
3, 4316, Note_on_c, 1, 76, 0
3, 4320, Note_on_c, 1, 77, 100
3, 4356, Note_on_c, 1, 77, 0
3, 4360, Note_on_c, 1, 74, 100
3, 4396, Note_on_c, 1, 74, 0
3, 4400, Note_on_c, 1, 76, 100
3, 4436, Note_on_c, 1, 76, 0
3, 4440, Note_on_c, 1, 77, 100
3, 4476, Note_on_c, 1, 77, 0
3, 4480, Note_on_c, 1, 76, 100
3, 4516, Note_on_c, 1, 76, 0
3, 4520, Note_on_c, 1, 77, 100
3, 4556, Note_on_c, 1, 77, 0
3, 4560, Note_on_c, 1, 67, 100
3, 4596, Note_on_c, 1, 67, 0
3, 4600, Note_on_c, 1, 74, 100
3, 4636, Note_on_c, 1, 74, 0
3, 4640, Note_on_c, 1, 76, 100
3, 4676, Note_on_c, 1, 76, 0
3, 4680, Note_on_c, 1, 77, 100
3, 4716, Note_on_c, 1, 77, 0
3, 4720, Note_on_c, 1, 76, 100
3, 4756, Note_on_c, 1, 76, 0
3, 4760, Note_on_c, 1, 74, 100
3, 4796, Note_on_c, 1, 74, 0
3, 4800, Note_on_c, 1, 76, 100
3, 4908, Note_on_c, 1, 76, 0
3, 4920, Note_on_c, 1, 72, 100
3, 5001, Note_on_c, 1, 72, 0
3, 5010, Note_on_c, 1, 76, 100
3, 5037, Note_on_c, 1, 76, 0
3, 5040, Note_on_c, 1, 69, 100
3, 5121, Note_on_c, 1, 69, 0
3, 5130, Note_on_c, 1, 76, 100
3, 5157, Note_on_c, 1, 76, 0
3, 5160, Note_on_c, 1, 66, 100
3, 5241, Note_on_c, 1, 66, 0
3, 5250, Note_on_c, 1, 76, 100
3, 5277, Note_on_c, 1, 76, 0
3, 5280, Note_on_c, 1, 74, 100
3, 5316, Note_on_c, 1, 74, 0
3, 5320, Note_on_c, 1, 72, 100
3, 5356, Note_on_c, 1, 72, 0
3, 5360, Note_on_c, 1, 74, 100
3, 5396, Note_on_c, 1, 74, 0
3, 5400, Note_on_c, 1, 71, 100
3, 5481, Note_on_c, 1, 71, 0
3, 5490, Note_on_c, 1, 74, 100
3, 5517, Note_on_c, 1, 74, 0
3, 5520, Note_on_c, 1, 68, 100
3, 5601, Note_on_c, 1, 68, 0
3, 5610, Note_on_c, 1, 74, 100
3, 5637, Note_on_c, 1, 74, 0
3, 5640, Note_on_c, 1, 64, 100
3, 5721, Note_on_c, 1, 64, 0
3, 5730, Note_on_c, 1, 74, 100
3, 5757, Note_on_c, 1, 74, 0
3, 5760, Note_on_c, 1, 72, 100
3, 5796, Note_on_c, 1, 72, 0
3, 5800, Note_on_c, 1, 71, 100
3, 5836, Note_on_c, 1, 71, 0
3, 5840, Note_on_c, 1, 69, 100
3, 5876, Note_on_c, 1, 69, 0
3, 5880, Note_on_c, 1, 77, 100
3, 5916, Note_on_c, 1, 77, 0
3, 5920, Note_on_c, 1, 76, 100
3, 5956, Note_on_c, 1, 76, 0
3, 5960, Note_on_c, 1, 74, 100
3, 5996, Note_on_c, 1, 74, 0
3, 6000, Note_on_c, 1, 72, 100
3, 6036, Note_on_c, 1, 72, 0
3, 6040, Note_on_c, 1, 71, 100
3, 6076, Note_on_c, 1, 71, 0
3, 6080, Note_on_c, 1, 69, 100
3, 6116, Note_on_c, 1, 69, 0
3, 6120, Note_on_c, 1, 68, 100
3, 6156, Note_on_c, 1, 68, 0
3, 6160, Note_on_c, 1, 69, 100
3, 6196, Note_on_c, 1, 69, 0
3, 6200, Note_on_c, 1, 71, 100
3, 6236, Note_on_c, 1, 71, 0
3, 6240, Note_on_c, 1, 64, 100
3, 6402, Note_on_c, 1, 64, 0
3, 6420, Note_on_c, 1, 66, 100
3, 6447, Note_on_c, 1, 66, 0
3, 6450, Note_on_c, 1, 68, 100
3, 6477, Note_on_c, 1, 68, 0
3, 6480, Note_on_c, 1, 69, 100
3, 6516, Note_on_c, 1, 69, 0
3, 6520, Note_on_c, 1, 71, 100
3, 6556, Note_on_c, 1, 71, 0
3, 6560, Note_on_c, 1, 72, 100
3, 6596, Note_on_c, 1, 72, 0
3, 6600, Note_on_c, 1, 74, 100
3, 6636, Note_on_c, 1, 74, 0
3, 6640, Note_on_c, 1, 76, 100
3, 6676, Note_on_c, 1, 76, 0
3, 6680, Note_on_c, 1, 77, 100
3, 6716, Note_on_c, 1, 77, 0
3, 6720, Note_on_c, 1, 76, 100
3, 6756, Note_on_c, 1, 76, 0
3, 6760, Note_on_c, 1, 74, 100
3, 6796, Note_on_c, 1, 74, 0
3, 6800, Note_on_c, 1, 72, 100
3, 6836, Note_on_c, 1, 72, 0
3, 6840, Note_on_c, 1, 71, 100
3, 6876, Note_on_c, 1, 71, 0
3, 6880, Note_on_c, 1, 72, 100
3, 6916, Note_on_c, 1, 72, 0
3, 6920, Note_on_c, 1, 69, 100
3, 6956, Note_on_c, 1, 69, 0
3, 6960, Note_on_c, 1, 64, 100
3, 7041, Note_on_c, 1, 64, 0
3, 7050, Note_on_c, 1, 69, 100
3, 7077, Note_on_c, 1, 69, 0
3, 7080, Note_on_c, 1, 71, 100
3, 7161, Note_on_c, 1, 71, 0
3, 7170, Note_on_c, 1, 68, 100
3, 7197, Note_on_c, 1, 68, 0
3, 7200, Note_on_c, 1, 69, 100
3, 7281, Note_on_c, 1, 69, 0
3, 7290, Note_on_c, 1, 57, 100
3, 7317, Note_on_c, 1, 57, 0
3, 7320, Note_on_c, 1, 65, 100
3, 7356, Note_on_c, 1, 65, 0
3, 7360, Note_on_c, 1, 64, 100
3, 7396, Note_on_c, 1, 64, 0
3, 7400, Note_on_c, 1, 62, 100
3, 7436, Note_on_c, 1, 62, 0
3, 7440, Note_on_c, 1, 60, 100
3, 7548, Note_on_c, 1, 60, 0
3, 7560, Note_on_c, 1, 59, 100
3, 7668, Note_on_c, 1, 59, 0
3, 7680, Note_on_c, 1, 57, 100
3, 7896, Note_on_c, 1, 57, 0
3, 8640, Note_on_c, 1, 76, 100
3, 9636, Note_on_c, 1, 76, 0
3, 9640, Note_on_c, 1, 72, 100
3, 9676, Note_on_c, 1, 72, 0
3, 9680, Note_on_c, 1, 69, 100
3, 9716, Note_on_c, 1, 69, 0
3, 9720, Note_on_c, 1, 81, 100
3, 9828, Note_on_c, 1, 81, 0
3, 10200, Note_on_c, 1, 65, 100
3, 10236, Note_on_c, 1, 65, 0
3, 10240, Note_on_c, 1, 67, 100
3, 10276, Note_on_c, 1, 67, 0
3, 10280, Note_on_c, 1, 69, 100
3, 10316, Note_on_c, 1, 69, 0
3, 10320, Note_on_c, 1, 67, 100
3, 10428, Note_on_c, 1, 67, 0
3, 10680, Note_on_c, 1, 74, 100
3, 10716, Note_on_c, 1, 74, 0
3, 10720, Note_on_c, 1, 76, 100
3, 10756, Note_on_c, 1, 76, 0
3, 10760, Note_on_c, 1, 77, 100
3, 10796, Note_on_c, 1, 77, 0
3, 10800, Note_on_c, 1, 79, 100
3, 10908, Note_on_c, 1, 79, 0
3, 11160, Note_on_c, 1, 71, 100
3, 11196, Note_on_c, 1, 71, 0
3, 11200, Note_on_c, 1, 72, 100
3, 11236, Note_on_c, 1, 72, 0
3, 11240, Note_on_c, 1, 74, 100
3, 11276, Note_on_c, 1, 74, 0
3, 11280, Note_on_c, 1, 76, 100
3, 11388, Note_on_c, 1, 76, 0
3, 11640, Note_on_c, 1, 77, 100
3, 11748, Note_on_c, 1, 77, 0
3, 11760, Note_on_c, 1, 76, 100
3, 11868, Note_on_c, 1, 76, 0
3, 11880, Note_on_c, 1, 74, 100
3, 11988, Note_on_c, 1, 74, 0
3, 12120, Note_on_c, 1, 60, 100
3, 12228, Note_on_c, 1, 60, 0
3, 12240, Note_on_c, 1, 65, 100
3, 12321, Note_on_c, 1, 65, 0
3, 12330, Note_on_c, 1, 64, 100
3, 12357, Note_on_c, 1, 64, 0
3, 12360, Note_on_c, 1, 65, 100
3, 12468, Note_on_c, 1, 65, 0
3, 12480, Note_on_c, 1, 59, 100
3, 12588, Note_on_c, 1, 59, 0
3, 12600, Note_on_c, 1, 72, 100
3, 12708, Note_on_c, 1, 72, 0
3, 12720, Note_on_c, 1, 71, 100
3, 12828, Note_on_c, 1, 71, 0
3, 12840, Note_on_c, 1, 72, 100
3, 12948, Note_on_c, 1, 72, 0
3, 12960, Note_on_c, 1, 71, 100
3, 13068, Note_on_c, 1, 71, 0
3, 13080, Note_on_c, 1, 69, 100
3, 13116, Note_on_c, 1, 69, 0
3, 13120, Note_on_c, 1, 71, 100
3, 13156, Note_on_c, 1, 71, 0
3, 13160, Note_on_c, 1, 72, 100
3, 13196, Note_on_c, 1, 72, 0
3, 13200, Note_on_c, 1, 71, 100
3, 13236, Note_on_c, 1, 71, 0
3, 13240, Note_on_c, 1, 76, 100
3, 13276, Note_on_c, 1, 76, 0
3, 13280, Note_on_c, 1, 74, 100
3, 13316, Note_on_c, 1, 74, 0
3, 13320, Note_on_c, 1, 72, 100
3, 13356, Note_on_c, 1, 72, 0
3, 13360, Note_on_c, 1, 71, 100
3, 13396, Note_on_c, 1, 71, 0
3, 13400, Note_on_c, 1, 69, 100
3, 13436, Note_on_c, 1, 69, 0
3, 13440, Note_on_c, 1, 68, 100
3, 13476, Note_on_c, 1, 68, 0
3, 13480, Note_on_c, 1, 64, 100
3, 13516, Note_on_c, 1, 64, 0
3, 13520, Note_on_c, 1, 64, 100
3, 13556, Note_on_c, 1, 64, 0
3, 13560, Note_on_c, 1, 65, 100
3, 13596, Note_on_c, 1, 65, 0
3, 13600, Note_on_c, 1, 63, 100
3, 13636, Note_on_c, 1, 63, 0
3, 13640, Note_on_c, 1, 64, 100
3, 13676, Note_on_c, 1, 64, 0
3, 13680, Note_on_c, 1, 65, 100
3, 13716, Note_on_c, 1, 65, 0
3, 13720, Note_on_c, 1, 63, 100
3, 13756, Note_on_c, 1, 63, 0
3, 13760, Note_on_c, 1, 64, 100
3, 13796, Note_on_c, 1, 64, 0
3, 13800, Note_on_c, 1, 65, 100
3, 13836, Note_on_c, 1, 65, 0
3, 13840, Note_on_c, 1, 63, 100
3, 13876, Note_on_c, 1, 63, 0
3, 13880, Note_on_c, 1, 64, 100
3, 13916, Note_on_c, 1, 64, 0
3, 13920, Note_on_c, 1, 56, 100
3, 13956, Note_on_c, 1, 56, 0
3, 13960, Note_on_c, 1, 57, 100
3, 13996, Note_on_c, 1, 57, 0
3, 14000, Note_on_c, 1, 59, 100
3, 14036, Note_on_c, 1, 59, 0
3, 14040, Note_on_c, 1, 57, 100
3, 14076, Note_on_c, 1, 57, 0
3, 14080, Note_on_c, 1, 59, 100
3, 14116, Note_on_c, 1, 59, 0
3, 14120, Note_on_c, 1, 60, 100
3, 14156, Note_on_c, 1, 60, 0
3, 14160, Note_on_c, 1, 59, 100
3, 14196, Note_on_c, 1, 59, 0
3, 14200, Note_on_c, 1, 64, 100
3, 14236, Note_on_c, 1, 64, 0
3, 14240, Note_on_c, 1, 62, 100
3, 14276, Note_on_c, 1, 62, 0
3, 14280, Note_on_c, 1, 60, 100
3, 14316, Note_on_c, 1, 60, 0
3, 14320, Note_on_c, 1, 59, 100
3, 14356, Note_on_c, 1, 59, 0
3, 14360, Note_on_c, 1, 57, 100
3, 14396, Note_on_c, 1, 57, 0
3, 14400, Note_on_c, 1, 56, 100
3, 14508, Note_on_c, 1, 56, 0
3, 14760, Note_on_c, 1, 83, 100
3, 14796, Note_on_c, 1, 83, 0
3, 14800, Note_on_c, 1, 81, 100
3, 14836, Note_on_c, 1, 81, 0
3, 14840, Note_on_c, 1, 80, 100
3, 14876, Note_on_c, 1, 80, 0
3, 14880, Note_on_c, 1, 81, 100
3, 14988, Note_on_c, 1, 81, 0
3, 15240, Note_on_c, 1, 76, 100
3, 15276, Note_on_c, 1, 76, 0
3, 15280, Note_on_c, 1, 74, 100
3, 15316, Note_on_c, 1, 74, 0
3, 15320, Note_on_c, 1, 73, 100
3, 15356, Note_on_c, 1, 73, 0
3, 15360, Note_on_c, 1, 74, 100
3, 15468, Note_on_c, 1, 74, 0
3, 15880, Note_on_c, 1, 74, 100
3, 15916, Note_on_c, 1, 74, 0
3, 15920, Note_on_c, 1, 76, 100
3, 15956, Note_on_c, 1, 76, 0
3, 15960, Note_on_c, 1, 77, 100
3, 15996, Note_on_c, 1, 77, 0
3, 16000, Note_on_c, 1, 76, 100
3, 16036, Note_on_c, 1, 76, 0
3, 16040, Note_on_c, 1, 77, 100
3, 16076, Note_on_c, 1, 77, 0
3, 16080, Note_on_c, 1, 67, 100
3, 16116, Note_on_c, 1, 67, 0
3, 16120, Note_on_c, 1, 74, 100
3, 16156, Note_on_c, 1, 74, 0
3, 16160, Note_on_c, 1, 76, 100
3, 16196, Note_on_c, 1, 76, 0
3, 16200, Note_on_c, 1, 77, 100
3, 16236, Note_on_c, 1, 77, 0
3, 16240, Note_on_c, 1, 76, 100
3, 16276, Note_on_c, 1, 76, 0
3, 16280, Note_on_c, 1, 74, 100
3, 16316, Note_on_c, 1, 74, 0
3, 16320, Note_on_c, 1, 76, 100
3, 16428, Note_on_c, 1, 76, 0
3, 16440, Note_on_c, 1, 72, 100
3, 16521, Note_on_c, 1, 72, 0
3, 16530, Note_on_c, 1, 76, 100
3, 16557, Note_on_c, 1, 76, 0
3, 16560, Note_on_c, 1, 69, 100
3, 16641, Note_on_c, 1, 69, 0
3, 16650, Note_on_c, 1, 76, 100
3, 16677, Note_on_c, 1, 76, 0
3, 16680, Note_on_c, 1, 66, 100
3, 16761, Note_on_c, 1, 66, 0
3, 16770, Note_on_c, 1, 76, 100
3, 16797, Note_on_c, 1, 76, 0
3, 16800, Note_on_c, 1, 74, 100
3, 16836, Note_on_c, 1, 74, 0
3, 16840, Note_on_c, 1, 72, 100
3, 16876, Note_on_c, 1, 72, 0
3, 16880, Note_on_c, 1, 74, 100
3, 16916, Note_on_c, 1, 74, 0
3, 16920, Note_on_c, 1, 71, 100
3, 17001, Note_on_c, 1, 71, 0
3, 17010, Note_on_c, 1, 74, 100
3, 17037, Note_on_c, 1, 74, 0
3, 17040, Note_on_c, 1, 68, 100
3, 17121, Note_on_c, 1, 68, 0
3, 17130, Note_on_c, 1, 74, 100
3, 17157, Note_on_c, 1, 74, 0
3, 17160, Note_on_c, 1, 64, 100
3, 17241, Note_on_c, 1, 64, 0
3, 17250, Note_on_c, 1, 74, 100
3, 17277, Note_on_c, 1, 74, 0
3, 17280, Note_on_c, 1, 72, 100
3, 17316, Note_on_c, 1, 72, 0
3, 17320, Note_on_c, 1, 71, 100
3, 17356, Note_on_c, 1, 71, 0
3, 17360, Note_on_c, 1, 69, 100
3, 17396, Note_on_c, 1, 69, 0
3, 17400, Note_on_c, 1, 84, 100
3, 17436, Note_on_c, 1, 84, 0
3, 17440, Note_on_c, 1, 83, 100
3, 17476, Note_on_c, 1, 83, 0
3, 17480, Note_on_c, 1, 81, 100
3, 17516, Note_on_c, 1, 81, 0
3, 17520, Note_on_c, 1, 79, 100
3, 17556, Note_on_c, 1, 79, 0
3, 17560, Note_on_c, 1, 78, 100
3, 17596, Note_on_c, 1, 78, 0
3, 17600, Note_on_c, 1, 76, 100
3, 17636, Note_on_c, 1, 76, 0
3, 17640, Note_on_c, 1, 75, 100
3, 17676, Note_on_c, 1, 75, 0
3, 17680, Note_on_c, 1, 76, 100
3, 17716, Note_on_c, 1, 76, 0
3, 17720, Note_on_c, 1, 78, 100
3, 17756, Note_on_c, 1, 78, 0
3, 17760, Note_on_c, 1, 71, 100
3, 17922, Note_on_c, 1, 71, 0
3, 17940, Note_on_c, 1, 73, 100
3, 17967, Note_on_c, 1, 73, 0
3, 17970, Note_on_c, 1, 75, 100
3, 17997, Note_on_c, 1, 75, 0
3, 18000, Note_on_c, 1, 76, 100
3, 18036, Note_on_c, 1, 76, 0
3, 18040, Note_on_c, 1, 78, 100
3, 18076, Note_on_c, 1, 78, 0
3, 18080, Note_on_c, 1, 79, 100
3, 18116, Note_on_c, 1, 79, 0
3, 18120, Note_on_c, 1, 81, 100
3, 18156, Note_on_c, 1, 81, 0
3, 18160, Note_on_c, 1, 83, 100
3, 18196, Note_on_c, 1, 83, 0
3, 18200, Note_on_c, 1, 84, 100
3, 18236, Note_on_c, 1, 84, 0
3, 18240, Note_on_c, 1, 83, 100
3, 18276, Note_on_c, 1, 83, 0
3, 18280, Note_on_c, 1, 81, 100
3, 18316, Note_on_c, 1, 81, 0
3, 18320, Note_on_c, 1, 79, 100
3, 18356, Note_on_c, 1, 79, 0
3, 18360, Note_on_c, 1, 78, 100
3, 18396, Note_on_c, 1, 78, 0
3, 18400, Note_on_c, 1, 79, 100
3, 18436, Note_on_c, 1, 79, 0
3, 18440, Note_on_c, 1, 76, 100
3, 18476, Note_on_c, 1, 76, 0
3, 18480, Note_on_c, 1, 71, 100
3, 18561, Note_on_c, 1, 71, 0
3, 18570, Note_on_c, 1, 76, 100
3, 18597, Note_on_c, 1, 76, 0
3, 18600, Note_on_c, 1, 78, 100
3, 18681, Note_on_c, 1, 78, 0
3, 18690, Note_on_c, 1, 75, 100
3, 18717, Note_on_c, 1, 75, 0
3, 18720, Note_on_c, 1, 76, 100
3, 18801, Note_on_c, 1, 76, 0
3, 18810, Note_on_c, 1, 64, 100
3, 18837, Note_on_c, 1, 64, 0
3, 18840, Note_on_c, 1, 72, 100
3, 18876, Note_on_c, 1, 72, 0
3, 18880, Note_on_c, 1, 71, 100
3, 18916, Note_on_c, 1, 71, 0
3, 18920, Note_on_c, 1, 69, 100
3, 18956, Note_on_c, 1, 69, 0
3, 18960, Note_on_c, 1, 67, 100
3, 19068, Note_on_c, 1, 67, 0
3, 19080, Note_on_c, 1, 66, 100
3, 19188, Note_on_c, 1, 66, 0
3, 19200, Note_on_c, 1, 64, 100
3, 19308, Note_on_c, 1, 64, 0
3, 19320, Note_on_c, 1, 59, 100
3, 19428, Note_on_c, 1, 59, 0
3, 19440, Note_on_c, 1, 59, 100
3, 20088, Note_on_c, 1, 59, 0
3, 20160, Note_on_c, 1, 59, 100
3, 20214, Note_on_c, 1, 59, 0
3, 20220, Note_on_c, 1, 64, 100
3, 20274, Note_on_c, 1, 64, 0
3, 20280, Note_on_c, 1, 67, 100
3, 20334, Note_on_c, 1, 67, 0
3, 20340, Note_on_c, 1, 71, 100
3, 20394, Note_on_c, 1, 71, 0
3, 20400, Note_on_c, 1, 76, 100
3, 20454, Note_on_c, 1, 76, 0
3, 20460, Note_on_c, 1, 79, 100
3, 20514, Note_on_c, 1, 79, 0
3, 20520, Note_on_c, 1, 78, 100
3, 20574, Note_on_c, 1, 78, 0
3, 20580, Note_on_c, 1, 75, 100
3, 20634, Note_on_c, 1, 75, 0
3, 20640, Note_on_c, 1, 76, 100
3, 20676, Note_on_c, 1, 76, 0
3, 20680, Note_on_c, 1, 74, 100
3, 20716, Note_on_c, 1, 74, 0
3, 20720, Note_on_c, 1, 72, 100
3, 20756, Note_on_c, 1, 72, 0
3, 20760, Note_on_c, 1, 71, 100
3, 20796, Note_on_c, 1, 71, 0
3, 20800, Note_on_c, 1, 72, 100
3, 20836, Note_on_c, 1, 72, 0
3, 20840, Note_on_c, 1, 69, 100
3, 20876, Note_on_c, 1, 69, 0
3, 20880, Note_on_c, 1, 67, 100
3, 20961, Note_on_c, 1, 67, 0
3, 20970, Note_on_c, 1, 64, 100
3, 20997, Note_on_c, 1, 64, 0
3, 21000, Note_on_c, 1, 59, 100
3, 21081, Note_on_c, 1, 59, 0
3, 21090, Note_on_c, 1, 69, 100
3, 21117, Note_on_c, 1, 69, 0
3, 21120, Note_on_c, 1, 68, 100
3, 21228, Note_on_c, 1, 68, 0
3, 21240, Note_on_c, 1, 71, 100
3, 21348, Note_on_c, 1, 71, 0
3, 21360, Note_on_c, 1, 76, 100
3, 21468, Note_on_c, 1, 76, 0
3, 21720, Note_on_c, 1, 69, 100
3, 21828, Note_on_c, 1, 69, 0
3, 21840, Note_on_c, 1, 74, 100
3, 21948, Note_on_c, 1, 74, 0
3, 22200, Note_on_c, 1, 72, 100
3, 22416, Note_on_c, 1, 72, 0
3, 22440, Note_on_c, 1, 71, 100
3, 22656, Note_on_c, 1, 71, 0
3, 22680, Note_on_c, 1, 69, 100
3, 22896, Note_on_c, 1, 69, 0
3, 22920, Note_on_c, 1, 67, 100
3, 23148, Note_on_c, 1, 67, 0
3, 23160, Note_on_c, 1, 66, 100
3, 23268, Note_on_c, 1, 66, 0
3, 23280, Note_on_c, 1, 64, 100
3, 23388, Note_on_c, 1, 64, 0
3, 23400, Note_on_c, 1, 57, 100
3, 23508, Note_on_c, 1, 57, 0
3, 23520, Note_on_c, 1, 55, 100
3, 23628, Note_on_c, 1, 55, 0
3, 23700, Note_on_c, 1, 76, 100
3, 23754, Note_on_c, 1, 76, 0
3, 23760, Note_on_c, 1, 75, 100
3, 23841, Note_on_c, 1, 75, 0
3, 23850, Note_on_c, 1, 78, 100
3, 23877, Note_on_c, 1, 78, 0
3, 23880, Note_on_c, 1, 71, 100
3, 23961, Note_on_c, 1, 71, 0
3, 23970, Note_on_c, 1, 78, 100
3, 23997, Note_on_c, 1, 78, 0
3, 24000, Note_on_c, 1, 79, 100
3, 24108, Note_on_c, 1, 79, 0
3, 24600, Note_on_c, 1, 69, 100
3, 24708, Note_on_c, 1, 69, 0
3, 24720, Note_on_c, 1, 76, 100
3, 24828, Note_on_c, 1, 76, 0
3, 24840, Note_on_c, 1, 79, 100
3, 24948, Note_on_c, 1, 79, 0
3, 24960, Note_on_c, 1, 77, 100
3, 25068, Note_on_c, 1, 77, 0
3, 25080, Note_on_c, 1, 81, 100
3, 25188, Note_on_c, 1, 81, 0
3, 25200, Note_on_c, 1, 77, 100
3, 25308, Note_on_c, 1, 77, 0
3, 25320, Note_on_c, 1, 74, 100
3, 25428, Note_on_c, 1, 74, 0
3, 25440, Note_on_c, 1, 71, 100
3, 25872, Note_on_c, 1, 71, 0
3, 25920, Note_on_c, 1, 72, 100
3, 26028, Note_on_c, 1, 72, 0
3, 26040, Note_on_c, 1, 79, 100
3, 26076, Note_on_c, 1, 79, 0
3, 26080, Note_on_c, 1, 81, 100
3, 26116, Note_on_c, 1, 81, 0
3, 26120, Note_on_c, 1, 83, 100
3, 26156, Note_on_c, 1, 83, 0
3, 26160, Note_on_c, 1, 84, 100
3, 26268, Note_on_c, 1, 84, 0
3, 26520, Note_on_c, 1, 83, 100
3, 26556, Note_on_c, 1, 83, 0
3, 26560, Note_on_c, 1, 84, 100
3, 26596, Note_on_c, 1, 84, 0
3, 26600, Note_on_c, 1, 86, 100
3, 26636, Note_on_c, 1, 86, 0
3, 26640, Note_on_c, 1, 84, 100
3, 26748, Note_on_c, 1, 84, 0
3, 27000, Note_on_c, 1, 77, 100
3, 27036, Note_on_c, 1, 77, 0
3, 27040, Note_on_c, 1, 76, 100
3, 27076, Note_on_c, 1, 76, 0
3, 27080, Note_on_c, 1, 74, 100
3, 27116, Note_on_c, 1, 74, 0
3, 27120, Note_on_c, 1, 76, 100
3, 27228, Note_on_c, 1, 76, 0
3, 27480, Note_on_c, 1, 74, 100
3, 27516, Note_on_c, 1, 74, 0
3, 27520, Note_on_c, 1, 72, 100
3, 27556, Note_on_c, 1, 72, 0
3, 27560, Note_on_c, 1, 71, 100
3, 27596, Note_on_c, 1, 71, 0
3, 27600, Note_on_c, 1, 72, 100
3, 27708, Note_on_c, 1, 72, 0
3, 27960, Note_on_c, 1, 64, 100
3, 28068, Note_on_c, 1, 64, 0
3, 28080, Note_on_c, 1, 68, 100
3, 28188, Note_on_c, 1, 68, 0
3, 28200, Note_on_c, 1, 71, 100
3, 28308, Note_on_c, 1, 71, 0
3, 28320, Note_on_c, 1, 74, 100
3, 29388, Note_on_c, 1, 74, 0
3, 29400, Note_on_c, 1, 72, 100
3, 29508, Note_on_c, 1, 72, 0
3, 29520, Note_on_c, 1, 71, 100
3, 29628, Note_on_c, 1, 71, 0
3, 29640, Note_on_c, 1, 76, 100
3, 29868, Note_on_c, 1, 76, 0
3, 29880, Note_on_c, 1, 74, 100
3, 29916, Note_on_c, 1, 74, 0
3, 29920, Note_on_c, 1, 72, 100
3, 29956, Note_on_c, 1, 72, 0
3, 29960, Note_on_c, 1, 71, 100
3, 29996, Note_on_c, 1, 71, 0
3, 30000, Note_on_c, 1, 69, 100
3, 30108, Note_on_c, 1, 69, 0
3, 30360, Note_on_c, 1, 61, 100
3, 30396, Note_on_c, 1, 61, 0
3, 30400, Note_on_c, 1, 62, 100
3, 30436, Note_on_c, 1, 62, 0
3, 30440, Note_on_c, 1, 64, 100
3, 30476, Note_on_c, 1, 64, 0
3, 30480, Note_on_c, 1, 57, 100
3, 30588, Note_on_c, 1, 57, 0
3, 30600, Note_on_c, 1, 64, 100
3, 30708, Note_on_c, 1, 64, 0
3, 30720, Note_on_c, 1, 68, 100
3, 30828, Note_on_c, 1, 68, 0
3, 30840, Note_on_c, 1, 74, 100
3, 30921, Note_on_c, 1, 74, 0
3, 30930, Note_on_c, 1, 76, 100
3, 30957, Note_on_c, 1, 76, 0
3, 30960, Note_on_c, 1, 74, 100
3, 31068, Note_on_c, 1, 74, 0
3, 31320, Note_on_c, 1, 71, 100
3, 31401, Note_on_c, 1, 71, 0
3, 31410, Note_on_c, 1, 72, 100
3, 31437, Note_on_c, 1, 72, 0
3, 31440, Note_on_c, 1, 74, 100
3, 31548, Note_on_c, 1, 74, 0
3, 31800, Note_on_c, 1, 80, 100
3, 31881, Note_on_c, 1, 80, 0
3, 31890, Note_on_c, 1, 81, 100
3, 31917, Note_on_c, 1, 81, 0
3, 31920, Note_on_c, 1, 83, 100
3, 32028, Note_on_c, 1, 83, 0
3, 32280, Note_on_c, 1, 81, 100
3, 32388, Note_on_c, 1, 81, 0
3, 32400, Note_on_c, 1, 71, 100
3, 32508, Note_on_c, 1, 71, 0
3, 32520, Note_on_c, 1, 80, 100
3, 32628, Note_on_c, 1, 80, 0
3, 32640, Note_on_c, 1, 81, 100
3, 32676, Note_on_c, 1, 81, 0
3, 32680, Note_on_c, 1, 69, 100
3, 32716, Note_on_c, 1, 69, 0
3, 32720, Note_on_c, 1, 69, 100
3, 32756, Note_on_c, 1, 69, 0
3, 32760, Note_on_c, 1, 70, 100
3, 32796, Note_on_c, 1, 70, 0
3, 32800, Note_on_c, 1, 68, 100
3, 32836, Note_on_c, 1, 68, 0
3, 32840, Note_on_c, 1, 69, 100
3, 32876, Note_on_c, 1, 69, 0
3, 32880, Note_on_c, 1, 70, 100
3, 32916, Note_on_c, 1, 70, 0
3, 32920, Note_on_c, 1, 68, 100
3, 32956, Note_on_c, 1, 68, 0
3, 32960, Note_on_c, 1, 69, 100
3, 32996, Note_on_c, 1, 69, 0
3, 33000, Note_on_c, 1, 70, 100
3, 33036, Note_on_c, 1, 70, 0
3, 33040, Note_on_c, 1, 68, 100
3, 33076, Note_on_c, 1, 68, 0
3, 33080, Note_on_c, 1, 69, 100
3, 33116, Note_on_c, 1, 69, 0
3, 33120, Note_on_c, 1, 61, 100
3, 33156, Note_on_c, 1, 61, 0
3, 33160, Note_on_c, 1, 62, 100
3, 33196, Note_on_c, 1, 62, 0
3, 33200, Note_on_c, 1, 64, 100
3, 33236, Note_on_c, 1, 64, 0
3, 33240, Note_on_c, 1, 62, 100
3, 33276, Note_on_c, 1, 62, 0
3, 33280, Note_on_c, 1, 64, 100
3, 33316, Note_on_c, 1, 64, 0
3, 33320, Note_on_c, 1, 65, 100
3, 33356, Note_on_c, 1, 65, 0
3, 33360, Note_on_c, 1, 64, 100
3, 33396, Note_on_c, 1, 64, 0
3, 33400, Note_on_c, 1, 69, 100
3, 33436, Note_on_c, 1, 69, 0
3, 33440, Note_on_c, 1, 67, 100
3, 33476, Note_on_c, 1, 67, 0
3, 33480, Note_on_c, 1, 65, 100
3, 33516, Note_on_c, 1, 65, 0
3, 33520, Note_on_c, 1, 64, 100
3, 33556, Note_on_c, 1, 64, 0
3, 33560, Note_on_c, 1, 62, 100
3, 33596, Note_on_c, 1, 62, 0
3, 33600, Note_on_c, 1, 61, 100
3, 33708, Note_on_c, 1, 61, 0
3, 33720, Note_on_c, 1, 77, 100
3, 33828, Note_on_c, 1, 77, 0
3, 33840, Note_on_c, 1, 76, 100
3, 33948, Note_on_c, 1, 76, 0
3, 33960, Note_on_c, 1, 77, 100
3, 34068, Note_on_c, 1, 77, 0
3, 34080, Note_on_c, 1, 76, 100
3, 34188, Note_on_c, 1, 76, 0
3, 34200, Note_on_c, 1, 81, 100
3, 34308, Note_on_c, 1, 81, 0
3, 34320, Note_on_c, 1, 81, 100
3, 34428, Note_on_c, 1, 81, 0
3, 34440, Note_on_c, 1, 69, 100
3, 34548, Note_on_c, 1, 69, 0
3, 34560, Note_on_c, 1, 69, 100
3, 34596, Note_on_c, 1, 69, 0
3, 34600, Note_on_c, 1, 76, 100
3, 34636, Note_on_c, 1, 76, 0
3, 34640, Note_on_c, 1, 77, 100
3, 34676, Note_on_c, 1, 77, 0
3, 34680, Note_on_c, 1, 79, 100
3, 34716, Note_on_c, 1, 79, 0
3, 34720, Note_on_c, 1, 77, 100
3, 34756, Note_on_c, 1, 77, 0
3, 34760, Note_on_c, 1, 79, 100
3, 34796, Note_on_c, 1, 79, 0
3, 34800, Note_on_c, 1, 69, 100
3, 34836, Note_on_c, 1, 69, 0
3, 34840, Note_on_c, 1, 76, 100
3, 34876, Note_on_c, 1, 76, 0
3, 34880, Note_on_c, 1, 77, 100
3, 34916, Note_on_c, 1, 77, 0
3, 34920, Note_on_c, 1, 79, 100
3, 34956, Note_on_c, 1, 79, 0
3, 34960, Note_on_c, 1, 78, 100
3, 34996, Note_on_c, 1, 78, 0
3, 35000, Note_on_c, 1, 76, 100
3, 35036, Note_on_c, 1, 76, 0
3, 35040, Note_on_c, 1, 78, 100
3, 35076, Note_on_c, 1, 78, 0
3, 35080, Note_on_c, 1, 76, 100
3, 35116, Note_on_c, 1, 76, 0
3, 35120, Note_on_c, 1, 74, 100
3, 35156, Note_on_c, 1, 74, 0
3, 35400, Note_on_c, 1, 77, 100
3, 35556, Note_on_c, 1, 77, 0
3, 35560, Note_on_c, 1, 74, 100
3, 35596, Note_on_c, 1, 74, 0
3, 35600, Note_on_c, 1, 76, 100
3, 35636, Note_on_c, 1, 76, 0
3, 35640, Note_on_c, 1, 77, 100
3, 35676, Note_on_c, 1, 77, 0
3, 35680, Note_on_c, 1, 76, 100
3, 35716, Note_on_c, 1, 76, 0
3, 35720, Note_on_c, 1, 77, 100
3, 35756, Note_on_c, 1, 77, 0
3, 35760, Note_on_c, 1, 67, 100
3, 35796, Note_on_c, 1, 67, 0
3, 35800, Note_on_c, 1, 74, 100
3, 35836, Note_on_c, 1, 74, 0
3, 35840, Note_on_c, 1, 76, 100
3, 35876, Note_on_c, 1, 76, 0
3, 35880, Note_on_c, 1, 77, 100
3, 35916, Note_on_c, 1, 77, 0
3, 35920, Note_on_c, 1, 76, 100
3, 35956, Note_on_c, 1, 76, 0
3, 35960, Note_on_c, 1, 74, 100
3, 35996, Note_on_c, 1, 74, 0
3, 36000, Note_on_c, 1, 76, 100
3, 36081, Note_on_c, 1, 76, 0
3, 36090, Note_on_c, 1, 72, 100
3, 36117, Note_on_c, 1, 72, 0
3, 36120, Note_on_c, 1, 67, 100
3, 36201, Note_on_c, 1, 67, 0
3, 36210, Note_on_c, 1, 65, 100
3, 36237, Note_on_c, 1, 65, 0
3, 36240, Note_on_c, 1, 67, 100
3, 36321, Note_on_c, 1, 67, 0
3, 36330, Note_on_c, 1, 72, 100
3, 36357, Note_on_c, 1, 72, 0
3, 36360, Note_on_c, 1, 76, 100
3, 36441, Note_on_c, 1, 76, 0
3, 36450, Note_on_c, 1, 79, 100
3, 36477, Note_on_c, 1, 79, 0
3, 36480, Note_on_c, 1, 81, 100
3, 36516, Note_on_c, 1, 81, 0
3, 36520, Note_on_c, 1, 79, 100
3, 36556, Note_on_c, 1, 79, 0
3, 36560, Note_on_c, 1, 81, 100
3, 36596, Note_on_c, 1, 81, 0
3, 36600, Note_on_c, 1, 77, 100
3, 36681, Note_on_c, 1, 77, 0
3, 36690, Note_on_c, 1, 81, 100
3, 36717, Note_on_c, 1, 81, 0
3, 36720, Note_on_c, 1, 74, 100
3, 36801, Note_on_c, 1, 74, 0
3, 36810, Note_on_c, 1, 81, 100
3, 36837, Note_on_c, 1, 81, 0
3, 36840, Note_on_c, 1, 71, 100
3, 36921, Note_on_c, 1, 71, 0
3, 36930, Note_on_c, 1, 81, 100
3, 36957, Note_on_c, 1, 81, 0
3, 36960, Note_on_c, 1, 79, 100
3, 36996, Note_on_c, 1, 79, 0
3, 37000, Note_on_c, 1, 77, 100
3, 37036, Note_on_c, 1, 77, 0
3, 37040, Note_on_c, 1, 79, 100
3, 37076, Note_on_c, 1, 79, 0
3, 37080, Note_on_c, 1, 76, 100
3, 37161, Note_on_c, 1, 76, 0
3, 37170, Note_on_c, 1, 79, 100
3, 37197, Note_on_c, 1, 79, 0
3, 37200, Note_on_c, 1, 73, 100
3, 37281, Note_on_c, 1, 73, 0
3, 37290, Note_on_c, 1, 79, 100
3, 37317, Note_on_c, 1, 79, 0
3, 37320, Note_on_c, 1, 69, 100
3, 37401, Note_on_c, 1, 69, 0
3, 37410, Note_on_c, 1, 79, 100
3, 37437, Note_on_c, 1, 79, 0
3, 37440, Note_on_c, 1, 77, 100
3, 37476, Note_on_c, 1, 77, 0
3, 37480, Note_on_c, 1, 81, 100
3, 37516, Note_on_c, 1, 81, 0
3, 37520, Note_on_c, 1, 79, 100
3, 37556, Note_on_c, 1, 79, 0
3, 37560, Note_on_c, 1, 77, 100
3, 37596, Note_on_c, 1, 77, 0
3, 37600, Note_on_c, 1, 76, 100
3, 37636, Note_on_c, 1, 76, 0
3, 37640, Note_on_c, 1, 74, 100
3, 37676, Note_on_c, 1, 74, 0
3, 37680, Note_on_c, 1, 72, 100
3, 37716, Note_on_c, 1, 72, 0
3, 37720, Note_on_c, 1, 71, 100
3, 37756, Note_on_c, 1, 71, 0
3, 37760, Note_on_c, 1, 69, 100
3, 37796, Note_on_c, 1, 69, 0
3, 37800, Note_on_c, 1, 68, 100
3, 37836, Note_on_c, 1, 68, 0
3, 37840, Note_on_c, 1, 69, 100
3, 37876, Note_on_c, 1, 69, 0
3, 37880, Note_on_c, 1, 71, 100
3, 37916, Note_on_c, 1, 71, 0
3, 37920, Note_on_c, 1, 64, 100
3, 38082, Note_on_c, 1, 64, 0
3, 38100, Note_on_c, 1, 66, 100
3, 38127, Note_on_c, 1, 66, 0
3, 38130, Note_on_c, 1, 68, 100
3, 38157, Note_on_c, 1, 68, 0
3, 38160, Note_on_c, 1, 69, 100
3, 38196, Note_on_c, 1, 69, 0
3, 38200, Note_on_c, 1, 71, 100
3, 38236, Note_on_c, 1, 71, 0
3, 38240, Note_on_c, 1, 72, 100
3, 38276, Note_on_c, 1, 72, 0
3, 38280, Note_on_c, 1, 74, 100
3, 38316, Note_on_c, 1, 74, 0
3, 38320, Note_on_c, 1, 76, 100
3, 38356, Note_on_c, 1, 76, 0
3, 38360, Note_on_c, 1, 77, 100
3, 38396, Note_on_c, 1, 77, 0
3, 38400, Note_on_c, 1, 76, 100
3, 38436, Note_on_c, 1, 76, 0
3, 38440, Note_on_c, 1, 74, 100
3, 38476, Note_on_c, 1, 74, 0
3, 38480, Note_on_c, 1, 72, 100
3, 38516, Note_on_c, 1, 72, 0
3, 38520, Note_on_c, 1, 71, 100
3, 38556, Note_on_c, 1, 71, 0
3, 38560, Note_on_c, 1, 72, 100
3, 38596, Note_on_c, 1, 72, 0
3, 38600, Note_on_c, 1, 69, 100
3, 38636, Note_on_c, 1, 69, 0
3, 38640, Note_on_c, 1, 64, 100
3, 38721, Note_on_c, 1, 64, 0
3, 38730, Note_on_c, 1, 69, 100
3, 38757, Note_on_c, 1, 69, 0
3, 38760, Note_on_c, 1, 71, 100
3, 38841, Note_on_c, 1, 71, 0
3, 38850, Note_on_c, 1, 68, 100
3, 38877, Note_on_c, 1, 68, 0
3, 38880, Note_on_c, 1, 69, 100
3, 38961, Note_on_c, 1, 69, 0
3, 38970, Note_on_c, 1, 57, 100
3, 38997, Note_on_c, 1, 57, 0
3, 39000, Note_on_c, 1, 65, 100
3, 39036, Note_on_c, 1, 65, 0
3, 39040, Note_on_c, 1, 64, 100
3, 39076, Note_on_c, 1, 64, 0
3, 39080, Note_on_c, 1, 62, 100
3, 39116, Note_on_c, 1, 62, 0
3, 39120, Note_on_c, 1, 60, 100
3, 39228, Note_on_c, 1, 60, 0
3, 39240, Note_on_c, 1, 59, 100
3, 39348, Note_on_c, 1, 59, 0
3, 39360, Note_on_c, 1, 57, 100
3, 39468, Note_on_c, 1, 57, 0
3, 43200, Note_on_c, 1, 72, 100
3, 43416, Note_on_c, 1, 72, 0
3, 43440, Note_on_c, 1, 71, 100
3, 43656, Note_on_c, 1, 71, 0
3, 43680, Note_on_c, 1, 69, 100
3, 43896, Note_on_c, 1, 69, 0
3, 43920, Note_on_c, 1, 67, 100
3, 44136, Note_on_c, 1, 67, 0
3, 44160, Note_on_c, 1, 65, 100
3, 44376, Note_on_c, 1, 65, 0
3, 44400, Note_on_c, 1, 64, 100
3, 44508, Note_on_c, 1, 64, 0
3, 44520, Note_on_c, 1, 60, 100
3, 44628, Note_on_c, 1, 60, 0
3, 44640, Note_on_c, 1, 67, 100
3, 44748, Note_on_c, 1, 67, 0
3, 44760, Note_on_c, 1, 74, 100
3, 44796, Note_on_c, 1, 74, 0
3, 44800, Note_on_c, 1, 72, 100
3, 44836, Note_on_c, 1, 72, 0
3, 44840, Note_on_c, 1, 74, 100
3, 44876, Note_on_c, 1, 74, 0
3, 44880, Note_on_c, 1, 69, 100
3, 44988, Note_on_c, 1, 69, 0
3, 45000, Note_on_c, 1, 76, 100
3, 45036, Note_on_c, 1, 76, 0
3, 45040, Note_on_c, 1, 74, 100
3, 45076, Note_on_c, 1, 74, 0
3, 45080, Note_on_c, 1, 76, 100
3, 45116, Note_on_c, 1, 76, 0
3, 45120, Note_on_c, 1, 71, 100
3, 45228, Note_on_c, 1, 71, 0
3, 45240, Note_on_c, 1, 77, 100
3, 45276, Note_on_c, 1, 77, 0
3, 45280, Note_on_c, 1, 76, 100
3, 45316, Note_on_c, 1, 76, 0
3, 45320, Note_on_c, 1, 77, 100
3, 45356, Note_on_c, 1, 77, 0
3, 45360, Note_on_c, 1, 72, 100
3, 45468, Note_on_c, 1, 72, 0
3, 45480, Note_on_c, 1, 79, 100
3, 45516, Note_on_c, 1, 79, 0
3, 45520, Note_on_c, 1, 77, 100
3, 45556, Note_on_c, 1, 77, 0
3, 45560, Note_on_c, 1, 79, 100
3, 45596, Note_on_c, 1, 79, 0
3, 45600, Note_on_c, 1, 74, 100
3, 45708, Note_on_c, 1, 74, 0
3, 45720, Note_on_c, 1, 81, 100
3, 45756, Note_on_c, 1, 81, 0
3, 45760, Note_on_c, 1, 79, 100
3, 45796, Note_on_c, 1, 79, 0
3, 45800, Note_on_c, 1, 81, 100
3, 45836, Note_on_c, 1, 81, 0
3, 45840, Note_on_c, 1, 77, 100
3, 45948, Note_on_c, 1, 77, 0
3, 45960, Note_on_c, 1, 74, 100
3, 46068, Note_on_c, 1, 74, 0
3, 46080, Note_on_c, 1, 76, 100
3, 46188, Note_on_c, 1, 76, 0
3, 48120, Note_on_c, 1, 60, 100
3, 48174, Note_on_c, 1, 60, 0
3, 48180, Note_on_c, 1, 62, 100
3, 48234, Note_on_c, 1, 62, 0
3, 48240, Note_on_c, 1, 64, 100
3, 48294, Note_on_c, 1, 64, 0
3, 48300, Note_on_c, 1, 67, 100
3, 48354, Note_on_c, 1, 67, 0
3, 48360, Note_on_c, 1, 65, 100
3, 48414, Note_on_c, 1, 65, 0
3, 48420, Note_on_c, 1, 62, 100
3, 48474, Note_on_c, 1, 62, 0
3, 48480, Note_on_c, 1, 64, 100
3, 48534, Note_on_c, 1, 64, 0
3, 48540, Note_on_c, 1, 60, 100
3, 48594, Note_on_c, 1, 60, 0
3, 48600, Note_on_c, 1, 64, 100
3, 48654, Note_on_c, 1, 64, 0
3, 48660, Note_on_c, 1, 67, 100
3, 48714, Note_on_c, 1, 67, 0
3, 48720, Note_on_c, 1, 72, 100
3, 48756, Note_on_c, 1, 72, 0
3, 48760, Note_on_c, 1, 74, 100
3, 48796, Note_on_c, 1, 74, 0
3, 48800, Note_on_c, 1, 76, 100
3, 48836, Note_on_c, 1, 76, 0
3, 48840, Note_on_c, 1, 74, 100
3, 48876, Note_on_c, 1, 74, 0
3, 48880, Note_on_c, 1, 72, 100
3, 48916, Note_on_c, 1, 72, 0
3, 48920, Note_on_c, 1, 71, 100
3, 48956, Note_on_c, 1, 71, 0
3, 48960, Note_on_c, 1, 72, 100
3, 49068, Note_on_c, 1, 72, 0
3, 49500, Note_on_c, 1, 60, 100
3, 49554, Note_on_c, 1, 60, 0
3, 49560, Note_on_c, 1, 64, 100
3, 49614, Note_on_c, 1, 64, 0
3, 49620, Note_on_c, 1, 67, 100
3, 49674, Note_on_c, 1, 67, 0
3, 49680, Note_on_c, 1, 72, 100
3, 49716, Note_on_c, 1, 72, 0
3, 49720, Note_on_c, 1, 74, 100
3, 49756, Note_on_c, 1, 74, 0
3, 49760, Note_on_c, 1, 76, 100
3, 49796, Note_on_c, 1, 76, 0
3, 49800, Note_on_c, 1, 74, 100
3, 49836, Note_on_c, 1, 74, 0
3, 49840, Note_on_c, 1, 72, 100
3, 49876, Note_on_c, 1, 72, 0
3, 49880, Note_on_c, 1, 71, 100
3, 49916, Note_on_c, 1, 71, 0
3, 49920, Note_on_c, 1, 72, 100
3, 49956, Note_on_c, 1, 72, 0
3, 49960, Note_on_c, 1, 64, 100
3, 49996, Note_on_c, 1, 64, 0
3, 50000, Note_on_c, 1, 65, 100
3, 50036, Note_on_c, 1, 65, 0
3, 50040, Note_on_c, 1, 67, 100
3, 50076, Note_on_c, 1, 67, 0
3, 50080, Note_on_c, 1, 69, 100
3, 50116, Note_on_c, 1, 69, 0
3, 50120, Note_on_c, 1, 70, 100
3, 50156, Note_on_c, 1, 70, 0
3, 50160, Note_on_c, 1, 70, 100
3, 50196, Note_on_c, 1, 70, 0
3, 50200, Note_on_c, 1, 72, 100
3, 50236, Note_on_c, 1, 72, 0
3, 50240, Note_on_c, 1, 74, 100
3, 50276, Note_on_c, 1, 74, 0
3, 50280, Note_on_c, 1, 74, 100
3, 50316, Note_on_c, 1, 74, 0
3, 50320, Note_on_c, 1, 72, 100
3, 50356, Note_on_c, 1, 72, 0
3, 50360, Note_on_c, 1, 70, 100
3, 50396, Note_on_c, 1, 70, 0
3, 50400, Note_on_c, 1, 69, 100
3, 50508, Note_on_c, 1, 69, 0
3, 50520, Note_on_c, 1, 65, 100
3, 50628, Note_on_c, 1, 65, 0
3, 50640, Note_on_c, 1, 67, 100
3, 50748, Note_on_c, 1, 67, 0
3, 50760, Note_on_c, 1, 69, 100
3, 50868, Note_on_c, 1, 69, 0
3, 50880, Note_on_c, 1, 71, 100
3, 50988, Note_on_c, 1, 71, 0
3, 51000, Note_on_c, 1, 74, 100
3, 51108, Note_on_c, 1, 74, 0
3, 51120, Note_on_c, 1, 72, 100
3, 51228, Note_on_c, 1, 72, 0
3, 51240, Note_on_c, 1, 71, 100
3, 51348, Note_on_c, 1, 71, 0
3, 51360, Note_on_c, 1, 69, 100
3, 51468, Note_on_c, 1, 69, 0
3, 53800, Note_on_c, 1, 67, 100
3, 53836, Note_on_c, 1, 67, 0
3, 53840, Note_on_c, 1, 69, 100
3, 53876, Note_on_c, 1, 69, 0
3, 53880, Note_on_c, 1, 70, 100
3, 53916, Note_on_c, 1, 70, 0
3, 53920, Note_on_c, 1, 69, 100
3, 53956, Note_on_c, 1, 69, 0
3, 53960, Note_on_c, 1, 70, 100
3, 53996, Note_on_c, 1, 70, 0
3, 54000, Note_on_c, 1, 64, 100
3, 54108, Note_on_c, 1, 64, 0
3, 54120, Note_on_c, 1, 79, 100
3, 54276, Note_on_c, 1, 79, 0
3, 54280, Note_on_c, 1, 73, 100
3, 54316, Note_on_c, 1, 73, 0
3, 54320, Note_on_c, 1, 74, 100
3, 54356, Note_on_c, 1, 74, 0
3, 54360, Note_on_c, 1, 76, 100
3, 54396, Note_on_c, 1, 76, 0
3, 54400, Note_on_c, 1, 74, 100
3, 54436, Note_on_c, 1, 74, 0
3, 54440, Note_on_c, 1, 76, 100
3, 54476, Note_on_c, 1, 76, 0
3, 54480, Note_on_c, 1, 69, 100
3, 54516, Note_on_c, 1, 69, 0
3, 54520, Note_on_c, 1, 76, 100
3, 54556, Note_on_c, 1, 76, 0
3, 54560, Note_on_c, 1, 78, 100
3, 54596, Note_on_c, 1, 78, 0
3, 54600, Note_on_c, 1, 79, 100
3, 54636, Note_on_c, 1, 79, 0
3, 54640, Note_on_c, 1, 78, 100
3, 54676, Note_on_c, 1, 78, 0
3, 54680, Note_on_c, 1, 76, 100
3, 54716, Note_on_c, 1, 76, 0
3, 54720, Note_on_c, 1, 74, 100
3, 54756, Note_on_c, 1, 74, 0
3, 54760, Note_on_c, 1, 69, 100
3, 54796, Note_on_c, 1, 69, 0
3, 54800, Note_on_c, 1, 71, 100
3, 54836, Note_on_c, 1, 71, 0
3, 54840, Note_on_c, 1, 72, 100
3, 54876, Note_on_c, 1, 72, 0
3, 54880, Note_on_c, 1, 71, 100
3, 54916, Note_on_c, 1, 71, 0
3, 54920, Note_on_c, 1, 72, 100
3, 54956, Note_on_c, 1, 72, 0
3, 54960, Note_on_c, 1, 66, 100
3, 55068, Note_on_c, 1, 66, 0
3, 55080, Note_on_c, 1, 81, 100
3, 55236, Note_on_c, 1, 81, 0
3, 55240, Note_on_c, 1, 75, 100
3, 55276, Note_on_c, 1, 75, 0
3, 55280, Note_on_c, 1, 76, 100
3, 55316, Note_on_c, 1, 76, 0
3, 55320, Note_on_c, 1, 78, 100
3, 55356, Note_on_c, 1, 78, 0
3, 55360, Note_on_c, 1, 76, 100
3, 55396, Note_on_c, 1, 76, 0
3, 55400, Note_on_c, 1, 78, 100
3, 55436, Note_on_c, 1, 78, 0
3, 55440, Note_on_c, 1, 71, 100
3, 55476, Note_on_c, 1, 71, 0
3, 55480, Note_on_c, 1, 78, 100
3, 55516, Note_on_c, 1, 78, 0
3, 55520, Note_on_c, 1, 79, 100
3, 55556, Note_on_c, 1, 79, 0
3, 55560, Note_on_c, 1, 81, 100
3, 55596, Note_on_c, 1, 81, 0
3, 55600, Note_on_c, 1, 79, 100
3, 55636, Note_on_c, 1, 79, 0
3, 55640, Note_on_c, 1, 78, 100
3, 55676, Note_on_c, 1, 78, 0
3, 55680, Note_on_c, 1, 76, 100
3, 55788, Note_on_c, 1, 76, 0
3, 57240, Note_on_c, 1, 72, 100
3, 57276, Note_on_c, 1, 72, 0
3, 57280, Note_on_c, 1, 71, 100
3, 57316, Note_on_c, 1, 71, 0
3, 57320, Note_on_c, 1, 69, 100
3, 57356, Note_on_c, 1, 69, 0
3, 57360, Note_on_c, 1, 69, 100
3, 57396, Note_on_c, 1, 69, 0
3, 57400, Note_on_c, 1, 67, 100
3, 57436, Note_on_c, 1, 67, 0
3, 57440, Note_on_c, 1, 66, 100
3, 57476, Note_on_c, 1, 66, 0
3, 57480, Note_on_c, 1, 66, 100
3, 57516, Note_on_c, 1, 66, 0
3, 57520, Note_on_c, 1, 67, 100
3, 57556, Note_on_c, 1, 67, 0
3, 57560, Note_on_c, 1, 69, 100
3, 57596, Note_on_c, 1, 69, 0
3, 57600, Note_on_c, 1, 59, 100
3, 57708, Note_on_c, 1, 59, 0
3, 58410, Note_on_c, 1, 76, 100
3, 58437, Note_on_c, 1, 76, 0
3, 58440, Note_on_c, 1, 64, 100
3, 58521, Note_on_c, 1, 64, 0
3, 58530, Note_on_c, 1, 74, 100
3, 58557, Note_on_c, 1, 74, 0
3, 58560, Note_on_c, 1, 72, 100
3, 58668, Note_on_c, 1, 72, 0
3, 58890, Note_on_c, 1, 78, 100
3, 58917, Note_on_c, 1, 78, 0
3, 58920, Note_on_c, 1, 76, 100
3, 59001, Note_on_c, 1, 76, 0
3, 59010, Note_on_c, 1, 79, 100
3, 59037, Note_on_c, 1, 79, 0
3, 59040, Note_on_c, 1, 72, 100
3, 59148, Note_on_c, 1, 72, 0
3, 59370, Note_on_c, 1, 69, 100
3, 59397, Note_on_c, 1, 69, 0
3, 59400, Note_on_c, 1, 76, 100
3, 59481, Note_on_c, 1, 76, 0
3, 59490, Note_on_c, 1, 81, 100
3, 59517, Note_on_c, 1, 81, 0
3, 59520, Note_on_c, 1, 75, 100
3, 60384, Note_on_c, 1, 75, 0
3, 60480, Note_on_c, 1, 78, 100
3, 60696, Note_on_c, 1, 78, 0
3, 61050, Note_on_c, 1, 75, 100
3, 61077, Note_on_c, 1, 75, 0
3, 61080, Note_on_c, 1, 76, 100
3, 61161, Note_on_c, 1, 76, 0
3, 61170, Note_on_c, 1, 78, 100
3, 61197, Note_on_c, 1, 78, 0
3, 61200, Note_on_c, 1, 71, 100
3, 61308, Note_on_c, 1, 71, 0
3, 61320, Note_on_c, 1, 75, 100
3, 61428, Note_on_c, 1, 75, 0
3, 61440, Note_on_c, 1, 76, 100
3, 61548, Note_on_c, 1, 76, 0
3, 62040, Note_on_c, 1, 80, 100
3, 62148, Note_on_c, 1, 80, 0
3, 62160, Note_on_c, 1, 81, 100
3, 62268, Note_on_c, 1, 81, 0
3, 62280, Note_on_c, 1, 84, 100
3, 62388, Note_on_c, 1, 84, 0
3, 62400, Note_on_c, 1, 75, 100
3, 62508, Note_on_c, 1, 75, 0
3, 62520, Note_on_c, 1, 78, 100
3, 62601, Note_on_c, 1, 78, 0
3, 62610, Note_on_c, 1, 76, 100
3, 62637, Note_on_c, 1, 76, 0
3, 62640, Note_on_c, 1, 78, 100
3, 62748, Note_on_c, 1, 78, 0
3, 62760, Note_on_c, 1, 81, 100
3, 62868, Note_on_c, 1, 81, 0
3, 62880, Note_on_c, 1, 66, 100
3, 63468, Note_on_c, 1, 66, 0
3, 64410, Note_on_c, 1, 76, 100
3, 64437, Note_on_c, 1, 76, 0
3, 64440, Note_on_c, 1, 72, 100
3, 64521, Note_on_c, 1, 72, 0
3, 64530, Note_on_c, 1, 76, 100
3, 64557, Note_on_c, 1, 76, 0
3, 64560, Note_on_c, 1, 69, 100
3, 64641, Note_on_c, 1, 69, 0
3, 64650, Note_on_c, 1, 72, 100
3, 64677, Note_on_c, 1, 72, 0
3, 64680, Note_on_c, 1, 66, 100
3, 64761, Note_on_c, 1, 66, 0
3, 64770, Note_on_c, 1, 69, 100
3, 64797, Note_on_c, 1, 69, 0
3, 64800, Note_on_c, 1, 59, 100
3, 64881, Note_on_c, 1, 59, 0
3, 64890, Note_on_c, 1, 74, 100
3, 64917, Note_on_c, 1, 74, 0
3, 64920, Note_on_c, 1, 71, 100
3, 65001, Note_on_c, 1, 71, 0
3, 65010, Note_on_c, 1, 74, 100
3, 65037, Note_on_c, 1, 74, 0
3, 65040, Note_on_c, 1, 68, 100
3, 65121, Note_on_c, 1, 68, 0
3, 65130, Note_on_c, 1, 71, 100
3, 65157, Note_on_c, 1, 71, 0
3, 65160, Note_on_c, 1, 64, 100
3, 65241, Note_on_c, 1, 64, 0
3, 65250, Note_on_c, 1, 68, 100
3, 65277, Note_on_c, 1, 68, 0
3, 65280, Note_on_c, 1, 57, 100
3, 65496, Note_on_c, 1, 57, 0
3, 65520, Note_on_c, 1, 84, 100
3, 65628, Note_on_c, 1, 84, 0
3, 65640, Note_on_c, 1, 83, 100
3, 65748, Note_on_c, 1, 83, 0
3, 66000, Note_on_c, 1, 83, 100
3, 66108, Note_on_c, 1, 83, 0
3, 66120, Note_on_c, 1, 81, 100
3, 66228, Note_on_c, 1, 81, 0
3, 66240, Note_on_c, 1, 75, 100
3, 66348, Note_on_c, 1, 75, 0
3, 66360, Note_on_c, 1, 78, 100
3, 66468, Note_on_c, 1, 78, 0
3, 66480, Note_on_c, 1, 79, 100
3, 66516, Note_on_c, 1, 79, 0
3, 66520, Note_on_c, 1, 81, 100
3, 66556, Note_on_c, 1, 81, 0
3, 66560, Note_on_c, 1, 83, 100
3, 66596, Note_on_c, 1, 83, 0
3, 66600, Note_on_c, 1, 81, 100
3, 66756, Note_on_c, 1, 81, 0
3, 66760, Note_on_c, 1, 79, 100
3, 66796, Note_on_c, 1, 79, 0
3, 66800, Note_on_c, 1, 81, 100
3, 66836, Note_on_c, 1, 81, 0
3, 66840, Note_on_c, 1, 75, 100
3, 66876, Note_on_c, 1, 75, 0
3, 66880, Note_on_c, 1, 76, 100
3, 66916, Note_on_c, 1, 76, 0
3, 66920, Note_on_c, 1, 78, 100
3, 66956, Note_on_c, 1, 78, 0
3, 66960, Note_on_c, 1, 79, 100
3, 66996, Note_on_c, 1, 79, 0
3, 67000, Note_on_c, 1, 81, 100
3, 67036, Note_on_c, 1, 81, 0
3, 67040, Note_on_c, 1, 83, 100
3, 67076, Note_on_c, 1, 83, 0
3, 67080, Note_on_c, 1, 84, 100
3, 67161, Note_on_c, 1, 84, 0
3, 67170, Note_on_c, 1, 75, 100
3, 67197, Note_on_c, 1, 75, 0
3, 67200, Note_on_c, 1, 76, 100
3, 67281, Note_on_c, 1, 76, 0
3, 67290, Note_on_c, 1, 71, 100
3, 67317, Note_on_c, 1, 71, 0
3, 67320, Note_on_c, 1, 72, 100
3, 67401, Note_on_c, 1, 72, 0
3, 67410, Note_on_c, 1, 69, 100
3, 67437, Note_on_c, 1, 69, 0
3, 67440, Note_on_c, 1, 67, 100
3, 67548, Note_on_c, 1, 67, 0
3, 67560, Note_on_c, 1, 66, 100
3, 67668, Note_on_c, 1, 66, 0
3, 67680, Note_on_c, 1, 59, 100
3, 67716, Note_on_c, 1, 59, 0
3, 67720, Note_on_c, 1, 60, 100
3, 67756, Note_on_c, 1, 60, 0
3, 67760, Note_on_c, 1, 62, 100
3, 67796, Note_on_c, 1, 62, 0
3, 67800, Note_on_c, 1, 64, 100
3, 67836, Note_on_c, 1, 64, 0
3, 67840, Note_on_c, 1, 66, 100
3, 67876, Note_on_c, 1, 66, 0
3, 67880, Note_on_c, 1, 68, 100
3, 67916, Note_on_c, 1, 68, 0
3, 67920, Note_on_c, 1, 69, 100
3, 67956, Note_on_c, 1, 69, 0
3, 67960, Note_on_c, 1, 71, 100
3, 67996, Note_on_c, 1, 71, 0
3, 68000, Note_on_c, 1, 72, 100
3, 68036, Note_on_c, 1, 72, 0
3, 68040, Note_on_c, 1, 74, 100
3, 68076, Note_on_c, 1, 74, 0
3, 68080, Note_on_c, 1, 72, 100
3, 68116, Note_on_c, 1, 72, 0
3, 68120, Note_on_c, 1, 71, 100
3, 68156, Note_on_c, 1, 71, 0
3, 68160, Note_on_c, 1, 72, 100
3, 68268, Note_on_c, 1, 72, 0
3, 68680, Note_on_c, 1, 70, 100
3, 68716, Note_on_c, 1, 70, 0
3, 68720, Note_on_c, 1, 71, 100
3, 68756, Note_on_c, 1, 71, 0
3, 68760, Note_on_c, 1, 73, 100
3, 68796, Note_on_c, 1, 73, 0
3, 68800, Note_on_c, 1, 71, 100
3, 68836, Note_on_c, 1, 71, 0
3, 68840, Note_on_c, 1, 73, 100
3, 68876, Note_on_c, 1, 73, 0
3, 68880, Note_on_c, 1, 66, 100
3, 68916, Note_on_c, 1, 66, 0
3, 68920, Note_on_c, 1, 73, 100
3, 68956, Note_on_c, 1, 73, 0
3, 68960, Note_on_c, 1, 74, 100
3, 68996, Note_on_c, 1, 74, 0
3, 69000, Note_on_c, 1, 76, 100
3, 69036, Note_on_c, 1, 76, 0
3, 69040, Note_on_c, 1, 75, 100
3, 69076, Note_on_c, 1, 75, 0
3, 69080, Note_on_c, 1, 73, 100
3, 69116, Note_on_c, 1, 73, 0
3, 69120, Note_on_c, 1, 75, 100
3, 69156, Note_on_c, 1, 75, 0
3, 69160, Note_on_c, 1, 78, 100
3, 69196, Note_on_c, 1, 78, 0
3, 69200, Note_on_c, 1, 79, 100
3, 69236, Note_on_c, 1, 79, 0
3, 69240, Note_on_c, 1, 81, 100
3, 69276, Note_on_c, 1, 81, 0
3, 69280, Note_on_c, 1, 79, 100
3, 69316, Note_on_c, 1, 79, 0
3, 69320, Note_on_c, 1, 81, 100
3, 69356, Note_on_c, 1, 81, 0
3, 69360, Note_on_c, 1, 75, 100
3, 69396, Note_on_c, 1, 75, 0
3, 69400, Note_on_c, 1, 81, 100
3, 69436, Note_on_c, 1, 81, 0
3, 69440, Note_on_c, 1, 83, 100
3, 69476, Note_on_c, 1, 83, 0
3, 69480, Note_on_c, 1, 84, 100
3, 69516, Note_on_c, 1, 84, 0
3, 69520, Note_on_c, 1, 83, 100
3, 69556, Note_on_c, 1, 83, 0
3, 69560, Note_on_c, 1, 81, 100
3, 69596, Note_on_c, 1, 81, 0
3, 69600, Note_on_c, 1, 79, 100
3, 69636, Note_on_c, 1, 79, 0
3, 69640, Note_on_c, 1, 78, 100
3, 69676, Note_on_c, 1, 78, 0
3, 69680, Note_on_c, 1, 76, 100
3, 69716, Note_on_c, 1, 76, 0
3, 69720, Note_on_c, 1, 84, 100
3, 69756, Note_on_c, 1, 84, 0
3, 69760, Note_on_c, 1, 83, 100
3, 69796, Note_on_c, 1, 83, 0
3, 69800, Note_on_c, 1, 81, 100
3, 69836, Note_on_c, 1, 81, 0
3, 69840, Note_on_c, 1, 79, 100
3, 69948, Note_on_c, 1, 79, 0
3, 69960, Note_on_c, 1, 78, 100
3, 70068, Note_on_c, 1, 78, 0
3, 70080, Note_on_c, 1, 76, 100
3, 70188, Note_on_c, 1, 76, 0
3, 71160, Note_on_c, 1, 69, 100
3, 71214, Note_on_c, 1, 69, 0
3, 71220, Note_on_c, 1, 71, 100
3, 71274, Note_on_c, 1, 71, 0
3, 71280, Note_on_c, 1, 72, 100
3, 71334, Note_on_c, 1, 72, 0
3, 71340, Note_on_c, 1, 76, 100
3, 71394, Note_on_c, 1, 76, 0
3, 71400, Note_on_c, 1, 74, 100
3, 71454, Note_on_c, 1, 74, 0
3, 71460, Note_on_c, 1, 71, 100
3, 71514, Note_on_c, 1, 71, 0
3, 71520, Note_on_c, 1, 72, 100
3, 71574, Note_on_c, 1, 72, 0
3, 71580, Note_on_c, 1, 69, 100
3, 71634, Note_on_c, 1, 69, 0
3, 71640, Note_on_c, 1, 72, 100
3, 71694, Note_on_c, 1, 72, 0
3, 71700, Note_on_c, 1, 76, 100
3, 71754, Note_on_c, 1, 76, 0
3, 71760, Note_on_c, 1, 81, 100
3, 71796, Note_on_c, 1, 81, 0
3, 71800, Note_on_c, 1, 83, 100
3, 71836, Note_on_c, 1, 83, 0
3, 71840, Note_on_c, 1, 84, 100
3, 71876, Note_on_c, 1, 84, 0
3, 71880, Note_on_c, 1, 83, 100
3, 71916, Note_on_c, 1, 83, 0
3, 71920, Note_on_c, 1, 81, 100
3, 71956, Note_on_c, 1, 81, 0
3, 71960, Note_on_c, 1, 80, 100
3, 71996, Note_on_c, 1, 80, 0
3, 72000, Note_on_c, 1, 81, 100
3, 72108, Note_on_c, 1, 81, 0
3, 72600, Note_on_c, 1, 79, 100
3, 72681, Note_on_c, 1, 79, 0
3, 72690, Note_on_c, 1, 77, 100
3, 72717, Note_on_c, 1, 77, 0
3, 72720, Note_on_c, 1, 76, 100
3, 72756, Note_on_c, 1, 76, 0
3, 72760, Note_on_c, 1, 74, 100
3, 72796, Note_on_c, 1, 74, 0
3, 72800, Note_on_c, 1, 72, 100
3, 72836, Note_on_c, 1, 72, 0
3, 72840, Note_on_c, 1, 74, 100
3, 72876, Note_on_c, 1, 74, 0
3, 72880, Note_on_c, 1, 76, 100
3, 72916, Note_on_c, 1, 76, 0
3, 72920, Note_on_c, 1, 77, 100
3, 72956, Note_on_c, 1, 77, 0
3, 72960, Note_on_c, 1, 76, 100
3, 72996, Note_on_c, 1, 76, 0
3, 73000, Note_on_c, 1, 74, 100
3, 73036, Note_on_c, 1, 74, 0
3, 73040, Note_on_c, 1, 72, 100
3, 73076, Note_on_c, 1, 72, 0
3, 76440, Note_on_c, 1, 74, 100
3, 76494, Note_on_c, 1, 74, 0
3, 76500, Note_on_c, 1, 76, 100
3, 76554, Note_on_c, 1, 76, 0
3, 76560, Note_on_c, 1, 77, 100
3, 76614, Note_on_c, 1, 77, 0
3, 76620, Note_on_c, 1, 81, 100
3, 76674, Note_on_c, 1, 81, 0
3, 76680, Note_on_c, 1, 79, 100
3, 76734, Note_on_c, 1, 79, 0
3, 76740, Note_on_c, 1, 74, 100
3, 76794, Note_on_c, 1, 74, 0
3, 76800, Note_on_c, 1, 76, 100
3, 76854, Note_on_c, 1, 76, 0
3, 76860, Note_on_c, 1, 69, 100
3, 76914, Note_on_c, 1, 69, 0
3, 76920, Note_on_c, 1, 73, 100
3, 76974, Note_on_c, 1, 73, 0
3, 76980, Note_on_c, 1, 74, 100
3, 77034, Note_on_c, 1, 74, 0
3, 77040, Note_on_c, 1, 76, 100
3, 77094, Note_on_c, 1, 76, 0
3, 77100, Note_on_c, 1, 79, 100
3, 77154, Note_on_c, 1, 79, 0
3, 77160, Note_on_c, 1, 77, 100
3, 77214, Note_on_c, 1, 77, 0
3, 77220, Note_on_c, 1, 76, 100
3, 77274, Note_on_c, 1, 76, 0
3, 77280, Note_on_c, 1, 74, 100
3, 77388, Note_on_c, 1, 74, 0
3, 77400, Note_on_c, 1, 66, 100
3, 77508, Note_on_c, 1, 66, 0
3, 77520, Note_on_c, 1, 67, 100
3, 77628, Note_on_c, 1, 67, 0
3, 77640, Note_on_c, 1, 69, 100
3, 77748, Note_on_c, 1, 69, 0
3, 77760, Note_on_c, 1, 62, 100
3, 77868, Note_on_c, 1, 62, 0
3, 78120, Note_on_c, 1, 72, 100
3, 78228, Note_on_c, 1, 72, 0
3, 78240, Note_on_c, 1, 70, 100
3, 78348, Note_on_c, 1, 70, 0
3, 78360, Note_on_c, 1, 67, 100
3, 78414, Note_on_c, 1, 67, 0
3, 78420, Note_on_c, 1, 69, 100
3, 78474, Note_on_c, 1, 69, 0
3, 78480, Note_on_c, 1, 70, 100
3, 78534, Note_on_c, 1, 70, 0
3, 78540, Note_on_c, 1, 74, 100
3, 78594, Note_on_c, 1, 74, 0
3, 78600, Note_on_c, 1, 72, 100
3, 78654, Note_on_c, 1, 72, 0
3, 78660, Note_on_c, 1, 69, 100
3, 78714, Note_on_c, 1, 69, 0
3, 78720, Note_on_c, 1, 71, 100
3, 78774, Note_on_c, 1, 71, 0
3, 78780, Note_on_c, 1, 67, 100
3, 78834, Note_on_c, 1, 67, 0
3, 78840, Note_on_c, 1, 71, 100
3, 78894, Note_on_c, 1, 71, 0
3, 78900, Note_on_c, 1, 72, 100
3, 78954, Note_on_c, 1, 72, 0
3, 78960, Note_on_c, 1, 74, 100
3, 78996, Note_on_c, 1, 74, 0
3, 79000, Note_on_c, 1, 76, 100
3, 79036, Note_on_c, 1, 76, 0
3, 79040, Note_on_c, 1, 77, 100
3, 79076, Note_on_c, 1, 77, 0
3, 79080, Note_on_c, 1, 76, 100
3, 79116, Note_on_c, 1, 76, 0
3, 79120, Note_on_c, 1, 74, 100
3, 79156, Note_on_c, 1, 74, 0
3, 79160, Note_on_c, 1, 72, 100
3, 79196, Note_on_c, 1, 72, 0
3, 79200, Note_on_c, 1, 74, 100
3, 79308, Note_on_c, 1, 74, 0
3, 79800, Note_on_c, 1, 64, 100
3, 79908, Note_on_c, 1, 64, 0
3, 79920, Note_on_c, 1, 66, 100
3, 80028, Note_on_c, 1, 66, 0
3, 80040, Note_on_c, 1, 68, 100
3, 80148, Note_on_c, 1, 68, 0
3, 80160, Note_on_c, 1, 69, 100
3, 80214, Note_on_c, 1, 69, 0
3, 80220, Note_on_c, 1, 64, 100
3, 80274, Note_on_c, 1, 64, 0
3, 80280, Note_on_c, 1, 69, 100
3, 80334, Note_on_c, 1, 69, 0
3, 80340, Note_on_c, 1, 71, 100
3, 80394, Note_on_c, 1, 71, 0
3, 80400, Note_on_c, 1, 72, 100
3, 80454, Note_on_c, 1, 72, 0
3, 80460, Note_on_c, 1, 76, 100
3, 80514, Note_on_c, 1, 76, 0
3, 80520, Note_on_c, 1, 74, 100
3, 80574, Note_on_c, 1, 74, 0
3, 80580, Note_on_c, 1, 71, 100
3, 80634, Note_on_c, 1, 71, 0
3, 80640, Note_on_c, 1, 73, 100
3, 80694, Note_on_c, 1, 73, 0
3, 80700, Note_on_c, 1, 69, 100
3, 80754, Note_on_c, 1, 69, 0
3, 80760, Note_on_c, 1, 73, 100
3, 80814, Note_on_c, 1, 73, 0
3, 80820, Note_on_c, 1, 74, 100
3, 80874, Note_on_c, 1, 74, 0
3, 80880, Note_on_c, 1, 76, 100
3, 80916, Note_on_c, 1, 76, 0
3, 80920, Note_on_c, 1, 79, 100
3, 80956, Note_on_c, 1, 79, 0
3, 80960, Note_on_c, 1, 77, 100
3, 80996, Note_on_c, 1, 77, 0
3, 81000, Note_on_c, 1, 76, 100
3, 81036, Note_on_c, 1, 76, 0
3, 81040, Note_on_c, 1, 74, 100
3, 81076, Note_on_c, 1, 74, 0
3, 81080, Note_on_c, 1, 73, 100
3, 81116, Note_on_c, 1, 73, 0
3, 81120, Note_on_c, 1, 81, 100
3, 81228, Note_on_c, 1, 81, 0
3, 81240, Note_on_c, 1, 73, 100
3, 81348, Note_on_c, 1, 73, 0
3, 81360, Note_on_c, 1, 74, 100
3, 81468, Note_on_c, 1, 74, 0
3, 81480, Note_on_c, 1, 76, 100
3, 81588, Note_on_c, 1, 76, 0
3, 81600, Note_on_c, 1, 69, 100
3, 81708, Note_on_c, 1, 69, 0
3, 81720, Note_on_c, 1, 70, 100
3, 81828, Note_on_c, 1, 70, 0
3, 81840, Note_on_c, 1, 69, 100
3, 81948, Note_on_c, 1, 69, 0
3, 81960, Note_on_c, 1, 67, 100
3, 82068, Note_on_c, 1, 67, 0
3, 82080, Note_on_c, 1, 65, 100
3, 82188, Note_on_c, 1, 65, 0
3, 82200, Note_on_c, 1, 76, 100
3, 82308, Note_on_c, 1, 76, 0
3, 82320, Note_on_c, 1, 74, 100
3, 82428, Note_on_c, 1, 74, 0
3, 82440, Note_on_c, 1, 73, 100
3, 82548, Note_on_c, 1, 73, 0
3, 82560, Note_on_c, 1, 74, 100
3, 82668, Note_on_c, 1, 74, 0
3, 82680, Note_on_c, 1, 79, 100
3, 82788, Note_on_c, 1, 79, 0
3, 82800, Note_on_c, 1, 77, 100
3, 82908, Note_on_c, 1, 77, 0
3, 82920, Note_on_c, 1, 76, 100
3, 83028, Note_on_c, 1, 76, 0
3, 83040, Note_on_c, 1, 74, 100
3, 83148, Note_on_c, 1, 74, 0
3, 85480, Note_on_c, 1, 70, 100
3, 85516, Note_on_c, 1, 70, 0
3, 85520, Note_on_c, 1, 72, 100
3, 85556, Note_on_c, 1, 72, 0
3, 85560, Note_on_c, 1, 74, 100
3, 85596, Note_on_c, 1, 74, 0
3, 85600, Note_on_c, 1, 72, 100
3, 85636, Note_on_c, 1, 72, 0
3, 85640, Note_on_c, 1, 74, 100
3, 85676, Note_on_c, 1, 74, 0
3, 85680, Note_on_c, 1, 67, 100
3, 85716, Note_on_c, 1, 67, 0
3, 85720, Note_on_c, 1, 74, 100
3, 85756, Note_on_c, 1, 74, 0
3, 85760, Note_on_c, 1, 76, 100
3, 85796, Note_on_c, 1, 76, 0
3, 85800, Note_on_c, 1, 77, 100
3, 85836, Note_on_c, 1, 77, 0
3, 85840, Note_on_c, 1, 76, 100
3, 85876, Note_on_c, 1, 76, 0
3, 85880, Note_on_c, 1, 74, 100
3, 85916, Note_on_c, 1, 74, 0
3, 85920, Note_on_c, 1, 76, 100
3, 85956, Note_on_c, 1, 76, 0
3, 85960, Note_on_c, 1, 76, 100
3, 85996, Note_on_c, 1, 76, 0
3, 86000, Note_on_c, 1, 77, 100
3, 86036, Note_on_c, 1, 77, 0
3, 86040, Note_on_c, 1, 79, 100
3, 86076, Note_on_c, 1, 79, 0
3, 86080, Note_on_c, 1, 77, 100
3, 86116, Note_on_c, 1, 77, 0
3, 86120, Note_on_c, 1, 79, 100
3, 86156, Note_on_c, 1, 79, 0
3, 86160, Note_on_c, 1, 72, 100
3, 86196, Note_on_c, 1, 72, 0
3, 86200, Note_on_c, 1, 79, 100
3, 86236, Note_on_c, 1, 79, 0
3, 86240, Note_on_c, 1, 81, 100
3, 86276, Note_on_c, 1, 81, 0
3, 86280, Note_on_c, 1, 82, 100
3, 86316, Note_on_c, 1, 82, 0
3, 86320, Note_on_c, 1, 81, 100
3, 86356, Note_on_c, 1, 81, 0
3, 86360, Note_on_c, 1, 79, 100
3, 86396, Note_on_c, 1, 79, 0
3, 86400, Note_on_c, 1, 81, 100
3, 86508, Note_on_c, 1, 81, 0
3, 86520, Note_on_c, 1, 70, 100
3, 86736, Note_on_c, 1, 70, 0
3, 86760, Note_on_c, 1, 69, 100
3, 86976, Note_on_c, 1, 69, 0
3, 87000, Note_on_c, 1, 67, 100
3, 87216, Note_on_c, 1, 67, 0
3, 87240, Note_on_c, 1, 65, 100
3, 87468, Note_on_c, 1, 65, 0
3, 87480, Note_on_c, 1, 64, 100
3, 87588, Note_on_c, 1, 64, 0
3, 87600, Note_on_c, 1, 62, 100
3, 87708, Note_on_c, 1, 62, 0
3, 87720, Note_on_c, 1, 70, 100
3, 87828, Note_on_c, 1, 70, 0
3, 87840, Note_on_c, 1, 69, 100
3, 87921, Note_on_c, 1, 69, 0
3, 87930, Note_on_c, 1, 81, 100
3, 87957, Note_on_c, 1, 81, 0
3, 87960, Note_on_c, 1, 79, 100
3, 88041, Note_on_c, 1, 79, 0
3, 88050, Note_on_c, 1, 82, 100
3, 88077, Note_on_c, 1, 82, 0
3, 88080, Note_on_c, 1, 76, 100
3, 88242, Note_on_c, 1, 76, 0
3, 88260, Note_on_c, 1, 74, 100
3, 88314, Note_on_c, 1, 74, 0
3, 88320, Note_on_c, 1, 74, 100
3, 88428, Note_on_c, 1, 74, 0
3, 88800, Note_on_c, 1, 77, 100
3, 89232, Note_on_c, 1, 77, 0
3, 89280, Note_on_c, 1, 71, 100
3, 90144, Note_on_c, 1, 71, 0
3, 90360, Note_on_c, 1, 57, 100
3, 90414, Note_on_c, 1, 57, 0
3, 90420, Note_on_c, 1, 59, 100
3, 90474, Note_on_c, 1, 59, 0
3, 90480, Note_on_c, 1, 60, 100
3, 90534, Note_on_c, 1, 60, 0
3, 90540, Note_on_c, 1, 64, 100
3, 90594, Note_on_c, 1, 64, 0
3, 90600, Note_on_c, 1, 62, 100
3, 90654, Note_on_c, 1, 62, 0
3, 90660, Note_on_c, 1, 59, 100
3, 90714, Note_on_c, 1, 59, 0
3, 90720, Note_on_c, 1, 60, 100
3, 90774, Note_on_c, 1, 60, 0
3, 90780, Note_on_c, 1, 57, 100
3, 90834, Note_on_c, 1, 57, 0
3, 90840, Note_on_c, 1, 60, 100
3, 90894, Note_on_c, 1, 60, 0
3, 90900, Note_on_c, 1, 64, 100
3, 90954, Note_on_c, 1, 64, 0
3, 90960, Note_on_c, 1, 69, 100
3, 90996, Note_on_c, 1, 69, 0
3, 91000, Note_on_c, 1, 71, 100
3, 91036, Note_on_c, 1, 71, 0
3, 91040, Note_on_c, 1, 72, 100
3, 91076, Note_on_c, 1, 72, 0
3, 91080, Note_on_c, 1, 71, 100
3, 91116, Note_on_c, 1, 71, 0
3, 91120, Note_on_c, 1, 69, 100
3, 91156, Note_on_c, 1, 69, 0
3, 91160, Note_on_c, 1, 68, 100
3, 91196, Note_on_c, 1, 68, 0
3, 91200, Note_on_c, 1, 69, 100
3, 91254, Note_on_c, 1, 69, 0
3, 91260, Note_on_c, 1, 64, 100
3, 91314, Note_on_c, 1, 64, 0
3, 91320, Note_on_c, 1, 69, 100
3, 91374, Note_on_c, 1, 69, 0
3, 91380, Note_on_c, 1, 71, 100
3, 91434, Note_on_c, 1, 71, 0
3, 91440, Note_on_c, 1, 72, 100
3, 91494, Note_on_c, 1, 72, 0
3, 91500, Note_on_c, 1, 76, 100
3, 91554, Note_on_c, 1, 76, 0
3, 91560, Note_on_c, 1, 74, 100
3, 91614, Note_on_c, 1, 74, 0
3, 91620, Note_on_c, 1, 71, 100
3, 91674, Note_on_c, 1, 71, 0
3, 91680, Note_on_c, 1, 72, 100
3, 91734, Note_on_c, 1, 72, 0
3, 91740, Note_on_c, 1, 69, 100
3, 91794, Note_on_c, 1, 69, 0
3, 91800, Note_on_c, 1, 72, 100
3, 91854, Note_on_c, 1, 72, 0
3, 91860, Note_on_c, 1, 76, 100
3, 91914, Note_on_c, 1, 76, 0
3, 91920, Note_on_c, 1, 81, 100
3, 91956, Note_on_c, 1, 81, 0
3, 91960, Note_on_c, 1, 83, 100
3, 91996, Note_on_c, 1, 83, 0
3, 92000, Note_on_c, 1, 84, 100
3, 92036, Note_on_c, 1, 84, 0
3, 92040, Note_on_c, 1, 83, 100
3, 92076, Note_on_c, 1, 83, 0
3, 92080, Note_on_c, 1, 81, 100
3, 92116, Note_on_c, 1, 81, 0
3, 92120, Note_on_c, 1, 80, 100
3, 92156, Note_on_c, 1, 80, 0
3, 92160, Note_on_c, 1, 81, 100
3, 92268, Note_on_c, 1, 81, 0
3, 92640, Note_on_c, 1, 84, 100
3, 93072, Note_on_c, 1, 84, 0
3, 93120, Note_on_c, 1, 78, 100
3, 93984, Note_on_c, 1, 78, 0
3, 94080, Note_on_c, 1, 76, 100
3, 94188, Note_on_c, 1, 76, 0
3, 94320, Note_on_c, 1, 83, 100
3, 94428, Note_on_c, 1, 83, 0
3, 94440, Note_on_c, 1, 84, 100
3, 94548, Note_on_c, 1, 84, 0
3, 94800, Note_on_c, 1, 76, 100
3, 94908, Note_on_c, 1, 76, 0
3, 94920, Note_on_c, 1, 75, 100
3, 95028, Note_on_c, 1, 75, 0
3, 95080, Note_on_c, 1, 68, 100
3, 95116, Note_on_c, 1, 68, 0
3, 95120, Note_on_c, 1, 69, 100
3, 95156, Note_on_c, 1, 69, 0
3, 95160, Note_on_c, 1, 71, 100
3, 95196, Note_on_c, 1, 71, 0
3, 95200, Note_on_c, 1, 69, 100
3, 95236, Note_on_c, 1, 69, 0
3, 95240, Note_on_c, 1, 71, 100
3, 95276, Note_on_c, 1, 71, 0
3, 95280, Note_on_c, 1, 64, 100
3, 95316, Note_on_c, 1, 64, 0
3, 95320, Note_on_c, 1, 71, 100
3, 95356, Note_on_c, 1, 71, 0
3, 95360, Note_on_c, 1, 72, 100
3, 95396, Note_on_c, 1, 72, 0
3, 95400, Note_on_c, 1, 74, 100
3, 95436, Note_on_c, 1, 74, 0
3, 95440, Note_on_c, 1, 72, 100
3, 95476, Note_on_c, 1, 72, 0
3, 95480, Note_on_c, 1, 71, 100
3, 95516, Note_on_c, 1, 71, 0
3, 95520, Note_on_c, 1, 76, 100
3, 95556, Note_on_c, 1, 76, 0
3, 95560, Note_on_c, 1, 71, 100
3, 95596, Note_on_c, 1, 71, 0
3, 95600, Note_on_c, 1, 72, 100
3, 95636, Note_on_c, 1, 72, 0
3, 95640, Note_on_c, 1, 74, 100
3, 95676, Note_on_c, 1, 74, 0
3, 95680, Note_on_c, 1, 72, 100
3, 95716, Note_on_c, 1, 72, 0
3, 95720, Note_on_c, 1, 74, 100
3, 95756, Note_on_c, 1, 74, 0
3, 95760, Note_on_c, 1, 68, 100
3, 95796, Note_on_c, 1, 68, 0
3, 95800, Note_on_c, 1, 71, 100
3, 95836, Note_on_c, 1, 71, 0
3, 95840, Note_on_c, 1, 72, 100
3, 95876, Note_on_c, 1, 72, 0
3, 95880, Note_on_c, 1, 74, 100
3, 95916, Note_on_c, 1, 74, 0
3, 95920, Note_on_c, 1, 72, 100
3, 95956, Note_on_c, 1, 72, 0
3, 95960, Note_on_c, 1, 71, 100
3, 95996, Note_on_c, 1, 71, 0
3, 96000, Note_on_c, 1, 76, 100
3, 96108, Note_on_c, 1, 76, 0
3, 96600, Note_on_c, 1, 80, 100
3, 96636, Note_on_c, 1, 80, 0
3, 96640, Note_on_c, 1, 81, 100
3, 96676, Note_on_c, 1, 81, 0
3, 96680, Note_on_c, 1, 83, 100
3, 96716, Note_on_c, 1, 83, 0
3, 96720, Note_on_c, 1, 81, 100
3, 96756, Note_on_c, 1, 81, 0
3, 96760, Note_on_c, 1, 83, 100
3, 96796, Note_on_c, 1, 83, 0
3, 96800, Note_on_c, 1, 84, 100
3, 96836, Note_on_c, 1, 84, 0
3, 96840, Note_on_c, 1, 80, 100
3, 96876, Note_on_c, 1, 80, 0
3, 96880, Note_on_c, 1, 81, 100
3, 96916, Note_on_c, 1, 81, 0
3, 96920, Note_on_c, 1, 83, 100
3, 96956, Note_on_c, 1, 83, 0
3, 96960, Note_on_c, 1, 81, 100
3, 96996, Note_on_c, 1, 81, 0
3, 97000, Note_on_c, 1, 83, 100
3, 97036, Note_on_c, 1, 83, 0
3, 97040, Note_on_c, 1, 84, 100
3, 97076, Note_on_c, 1, 84, 0
3, 97560, Note_on_c, 1, 78, 100
3, 97596, Note_on_c, 1, 78, 0
3, 97600, Note_on_c, 1, 79, 100
3, 97636, Note_on_c, 1, 79, 0
3, 97640, Note_on_c, 1, 81, 100
3, 97676, Note_on_c, 1, 81, 0
3, 97680, Note_on_c, 1, 79, 100
3, 97716, Note_on_c, 1, 79, 0
3, 97720, Note_on_c, 1, 81, 100
3, 97756, Note_on_c, 1, 81, 0
3, 97760, Note_on_c, 1, 83, 100
3, 97796, Note_on_c, 1, 83, 0
3, 97800, Note_on_c, 1, 78, 100
3, 97836, Note_on_c, 1, 78, 0
3, 97840, Note_on_c, 1, 79, 100
3, 97876, Note_on_c, 1, 79, 0
3, 97880, Note_on_c, 1, 81, 100
3, 97916, Note_on_c, 1, 81, 0
3, 97920, Note_on_c, 1, 79, 100
3, 97956, Note_on_c, 1, 79, 0
3, 97960, Note_on_c, 1, 81, 100
3, 97996, Note_on_c, 1, 81, 0
3, 98000, Note_on_c, 1, 83, 100
3, 98036, Note_on_c, 1, 83, 0
3, 98880, Note_on_c, 1, 79, 100
3, 99744, Note_on_c, 1, 79, 0
3, 99840, Note_on_c, 1, 78, 100
3, 100704, Note_on_c, 1, 78, 0
3, 100800, Note_on_c, 1, 62, 100
3, 100800, Note_on_c, 1, 71, 100
3, 100800, Note_on_c, 1, 79, 100
3, 100908, Note_on_c, 1, 62, 0
3, 100908, Note_on_c, 1, 71, 0
3, 100908, Note_on_c, 1, 79, 0
3, 101340, Note_on_c, 1, 62, 100
3, 101394, Note_on_c, 1, 62, 0
3, 101400, Note_on_c, 1, 64, 100
3, 101454, Note_on_c, 1, 64, 0
3, 101460, Note_on_c, 1, 66, 100
3, 101514, Note_on_c, 1, 66, 0
3, 101520, Note_on_c, 1, 67, 100
3, 101556, Note_on_c, 1, 67, 0
3, 101560, Note_on_c, 1, 69, 100
3, 101596, Note_on_c, 1, 69, 0
3, 101600, Note_on_c, 1, 71, 100
3, 101636, Note_on_c, 1, 71, 0
3, 101640, Note_on_c, 1, 69, 100
3, 101676, Note_on_c, 1, 69, 0
3, 101680, Note_on_c, 1, 67, 100
3, 101716, Note_on_c, 1, 67, 0
3, 101720, Note_on_c, 1, 66, 100
3, 101756, Note_on_c, 1, 66, 0
3, 101760, Note_on_c, 1, 67, 100
3, 101868, Note_on_c, 1, 67, 0
3, 101880, Note_on_c, 1, 60, 100
3, 101988, Note_on_c, 1, 60, 0
3, 102000, Note_on_c, 1, 59, 100
3, 102108, Note_on_c, 1, 59, 0
3, 102120, Note_on_c, 1, 57, 100
3, 102228, Note_on_c, 1, 57, 0
3, 102240, Note_on_c, 1, 55, 100
3, 102348, Note_on_c, 1, 55, 0
3, 102360, Note_on_c, 1, 76, 100
3, 102468, Note_on_c, 1, 76, 0
3, 102480, Note_on_c, 1, 74, 100
3, 102588, Note_on_c, 1, 74, 0
3, 102600, Note_on_c, 1, 72, 100
3, 102708, Note_on_c, 1, 72, 0
3, 102720, Note_on_c, 1, 71, 100
3, 102756, Note_on_c, 1, 71, 0
3, 102760, Note_on_c, 1, 69, 100
3, 102796, Note_on_c, 1, 69, 0
3, 102800, Note_on_c, 1, 67, 100
3, 102836, Note_on_c, 1, 67, 0
3, 102840, Note_on_c, 1, 74, 100
3, 102948, Note_on_c, 1, 74, 0
3, 102960, Note_on_c, 1, 69, 100
3, 102996, Note_on_c, 1, 69, 0
3, 103000, Note_on_c, 1, 71, 100
3, 103036, Note_on_c, 1, 71, 0
3, 103040, Note_on_c, 1, 72, 100
3, 103076, Note_on_c, 1, 72, 0
3, 103080, Note_on_c, 1, 78, 100
3, 103188, Note_on_c, 1, 78, 0
3, 103200, Note_on_c, 1, 71, 100
3, 103236, Note_on_c, 1, 71, 0
3, 103240, Note_on_c, 1, 72, 100
3, 103276, Note_on_c, 1, 72, 0
3, 103280, Note_on_c, 1, 74, 100
3, 103316, Note_on_c, 1, 74, 0
3, 103320, Note_on_c, 1, 79, 100
3, 103428, Note_on_c, 1, 79, 0
3, 103440, Note_on_c, 1, 72, 100
3, 103476, Note_on_c, 1, 72, 0
3, 103480, Note_on_c, 1, 74, 100
3, 103516, Note_on_c, 1, 74, 0
3, 103520, Note_on_c, 1, 76, 100
3, 103556, Note_on_c, 1, 76, 0
3, 103560, Note_on_c, 1, 67, 100
3, 103668, Note_on_c, 1, 67, 0
3, 103680, Note_on_c, 1, 69, 100
3, 103716, Note_on_c, 1, 69, 0
3, 103720, Note_on_c, 1, 71, 100
3, 103756, Note_on_c, 1, 71, 0
3, 103760, Note_on_c, 1, 72, 100
3, 103796, Note_on_c, 1, 72, 0
3, 103800, Note_on_c, 1, 66, 100
3, 103908, Note_on_c, 1, 66, 0
3, 103920, Note_on_c, 1, 57, 100
3, 103956, Note_on_c, 1, 57, 0
3, 103960, Note_on_c, 1, 60, 100
3, 103996, Note_on_c, 1, 60, 0
3, 104000, Note_on_c, 1, 66, 100
3, 104036, Note_on_c, 1, 66, 0
3, 104040, Note_on_c, 1, 69, 100
3, 104076, Note_on_c, 1, 69, 0
3, 104080, Note_on_c, 1, 67, 100
3, 104116, Note_on_c, 1, 67, 0
3, 104120, Note_on_c, 1, 66, 100
3, 104156, Note_on_c, 1, 66, 0
3, 104160, Note_on_c, 1, 67, 100
3, 104268, Note_on_c, 1, 67, 0
3, 104280, Note_on_c, 1, 79, 100
3, 104388, Note_on_c, 1, 79, 0
3, 104400, Note_on_c, 1, 74, 100
3, 104508, Note_on_c, 1, 74, 0
3, 104520, Note_on_c, 1, 71, 100
3, 104628, Note_on_c, 1, 71, 0
3, 104700, Note_on_c, 1, 67, 100
3, 104754, Note_on_c, 1, 67, 0
3, 104760, Note_on_c, 1, 74, 100
3, 104814, Note_on_c, 1, 74, 0
3, 104820, Note_on_c, 1, 76, 100
3, 104874, Note_on_c, 1, 76, 0
3, 104880, Note_on_c, 1, 77, 100
3, 104934, Note_on_c, 1, 77, 0
3, 104940, Note_on_c, 1, 81, 100
3, 104994, Note_on_c, 1, 81, 0
3, 105000, Note_on_c, 1, 79, 100
3, 105054, Note_on_c, 1, 79, 0
3, 105060, Note_on_c, 1, 74, 100
3, 105114, Note_on_c, 1, 74, 0
3, 105120, Note_on_c, 1, 76, 100
3, 106032, Note_on_c, 1, 76, 0
3, 106080, Note_on_c, 1, 74, 100
3, 106992, Note_on_c, 1, 74, 0
3, 107040, Note_on_c, 1, 72, 100
3, 107148, Note_on_c, 1, 72, 0
3, 107400, Note_on_c, 1, 72, 100
3, 107436, Note_on_c, 1, 72, 0
3, 107440, Note_on_c, 1, 74, 100
3, 107476, Note_on_c, 1, 74, 0
3, 107480, Note_on_c, 1, 76, 100
3, 107516, Note_on_c, 1, 76, 0
3, 107520, Note_on_c, 1, 77, 100
3, 107628, Note_on_c, 1, 77, 0
3, 107880, Note_on_c, 1, 69, 100
3, 107916, Note_on_c, 1, 69, 0
3, 107920, Note_on_c, 1, 71, 100
3, 107956, Note_on_c, 1, 71, 0
3, 107960, Note_on_c, 1, 72, 100
3, 107996, Note_on_c, 1, 72, 0
3, 108000, Note_on_c, 1, 74, 100
3, 108108, Note_on_c, 1, 74, 0
3, 108360, Note_on_c, 1, 77, 100
3, 108396, Note_on_c, 1, 77, 0
3, 108400, Note_on_c, 1, 76, 100
3, 108436, Note_on_c, 1, 76, 0
3, 108440, Note_on_c, 1, 77, 100
3, 108476, Note_on_c, 1, 77, 0
3, 108480, Note_on_c, 1, 86, 100
3, 108588, Note_on_c, 1, 86, 0
3, 108840, Note_on_c, 1, 78, 100
3, 108876, Note_on_c, 1, 78, 0
3, 108880, Note_on_c, 1, 79, 100
3, 108916, Note_on_c, 1, 79, 0
3, 108920, Note_on_c, 1, 81, 100
3, 108956, Note_on_c, 1, 81, 0
3, 108960, Note_on_c, 1, 75, 100
3, 109068, Note_on_c, 1, 75, 0
3, 109320, Note_on_c, 1, 77, 100
3, 109356, Note_on_c, 1, 77, 0
3, 109360, Note_on_c, 1, 76, 100
3, 109396, Note_on_c, 1, 76, 0
3, 109400, Note_on_c, 1, 74, 100
3, 109436, Note_on_c, 1, 74, 0
3, 109440, Note_on_c, 1, 74, 100
3, 109548, Note_on_c, 1, 74, 0
3, 109800, Note_on_c, 1, 72, 100
3, 110028, Note_on_c, 1, 72, 0
3, 110040, Note_on_c, 1, 71, 100
3, 110256, Note_on_c, 1, 71, 0
3, 110280, Note_on_c, 1, 69, 100
3, 110508, Note_on_c, 1, 69, 0
3, 110520, Note_on_c, 1, 68, 100
3, 110628, Note_on_c, 1, 68, 0
3, 110640, Note_on_c, 1, 74, 100
3, 110676, Note_on_c, 1, 74, 0
3, 110680, Note_on_c, 1, 76, 100
3, 110716, Note_on_c, 1, 76, 0
3, 110720, Note_on_c, 1, 77, 100
3, 110756, Note_on_c, 1, 77, 0
3, 110760, Note_on_c, 1, 71, 100
3, 110796, Note_on_c, 1, 71, 0
3, 110800, Note_on_c, 1, 72, 100
3, 110836, Note_on_c, 1, 72, 0
3, 110840, Note_on_c, 1, 74, 100
3, 110876, Note_on_c, 1, 74, 0
3, 110880, Note_on_c, 1, 68, 100
3, 110988, Note_on_c, 1, 68, 0
3, 111000, Note_on_c, 1, 74, 100
3, 111156, Note_on_c, 1, 74, 0
3, 111160, Note_on_c, 1, 72, 100
3, 111196, Note_on_c, 1, 72, 0
3, 111200, Note_on_c, 1, 71, 100
3, 111236, Note_on_c, 1, 71, 0
3, 111240, Note_on_c, 1, 69, 100
3, 111276, Note_on_c, 1, 69, 0
3, 111280, Note_on_c, 1, 68, 100
3, 111316, Note_on_c, 1, 68, 0
3, 111320, Note_on_c, 1, 66, 100
3, 111356, Note_on_c, 1, 66, 0
3, 111360, Note_on_c, 1, 64, 100
3, 111468, Note_on_c, 1, 64, 0
3, 111600, Note_on_c, 1, 66, 100
3, 111708, Note_on_c, 1, 66, 0
3, 111840, Note_on_c, 1, 68, 100
3, 111948, Note_on_c, 1, 68, 0
3, 112080, Note_on_c, 1, 69, 100
3, 112188, Note_on_c, 1, 69, 0
3, 112320, Note_on_c, 1, 71, 100
3, 112428, Note_on_c, 1, 71, 0
3, 112680, Note_on_c, 1, 77, 100
3, 112908, Note_on_c, 1, 77, 0
3, 112920, Note_on_c, 1, 76, 100
3, 113136, Note_on_c, 1, 76, 0
3, 113160, Note_on_c, 1, 74, 100
3, 113388, Note_on_c, 1, 74, 0
3, 113400, Note_on_c, 1, 72, 100
3, 113616, Note_on_c, 1, 72, 0
3, 113640, Note_on_c, 1, 70, 100
3, 113868, Note_on_c, 1, 70, 0
3, 113880, Note_on_c, 1, 69, 100
3, 114081, Note_on_c, 1, 69, 0
3, 114090, Note_on_c, 1, 69, 100
3, 114117, Note_on_c, 1, 69, 0
3, 114120, Note_on_c, 1, 68, 100
3, 114201, Note_on_c, 1, 68, 0
3, 114210, Note_on_c, 1, 69, 100
3, 114237, Note_on_c, 1, 69, 0
3, 114240, Note_on_c, 1, 71, 100
3, 114348, Note_on_c, 1, 71, 0
3, 114360, Note_on_c, 1, 71, 100
3, 114576, Note_on_c, 1, 71, 0
3, 114600, Note_on_c, 1, 71, 100
3, 114828, Note_on_c, 1, 71, 0
3, 114840, Note_on_c, 1, 80, 100
3, 114948, Note_on_c, 1, 80, 0
3, 115080, Note_on_c, 1, 71, 100
3, 115188, Note_on_c, 1, 71, 0
3, 115320, Note_on_c, 1, 68, 100
3, 115428, Note_on_c, 1, 68, 0
3, 115560, Note_on_c, 1, 71, 100
3, 115668, Note_on_c, 1, 71, 0
3, 115800, Note_on_c, 1, 69, 100
3, 115908, Note_on_c, 1, 69, 0
3, 116040, Note_on_c, 1, 84, 100
3, 116148, Note_on_c, 1, 84, 0
3, 116280, Note_on_c, 1, 81, 100
3, 116388, Note_on_c, 1, 81, 0
3, 116520, Note_on_c, 1, 72, 100
3, 116628, Note_on_c, 1, 72, 0
3, 116760, Note_on_c, 1, 73, 100
3, 116868, Note_on_c, 1, 73, 0
3, 117000, Note_on_c, 1, 76, 100
3, 117108, Note_on_c, 1, 76, 0
3, 117240, Note_on_c, 1, 73, 100
3, 117348, Note_on_c, 1, 73, 0
3, 117480, Note_on_c, 1, 69, 100
3, 117588, Note_on_c, 1, 69, 0
3, 117720, Note_on_c, 1, 69, 100
3, 117828, Note_on_c, 1, 69, 0
3, 117960, Note_on_c, 1, 69, 100
3, 118068, Note_on_c, 1, 69, 0
3, 118200, Note_on_c, 1, 74, 100
3, 118308, Note_on_c, 1, 74, 0
3, 118440, Note_on_c, 1, 77, 100
3, 118548, Note_on_c, 1, 77, 0
3, 118680, Note_on_c, 1, 71, 100
3, 118788, Note_on_c, 1, 71, 0
3, 118920, Note_on_c, 1, 74, 100
3, 119028, Note_on_c, 1, 74, 0
3, 119160, Note_on_c, 1, 68, 100
3, 119268, Note_on_c, 1, 68, 0
3, 119400, Note_on_c, 1, 80, 100
3, 119508, Note_on_c, 1, 80, 0
3, 119640, Note_on_c, 1, 81, 100
3, 119748, Note_on_c, 1, 81, 0
3, 119880, Note_on_c, 1, 81, 100
3, 119988, Note_on_c, 1, 81, 0
3, 120120, Note_on_c, 1, 81, 100
3, 120228, Note_on_c, 1, 81, 0
3, 120360, Note_on_c, 1, 81, 100
3, 120468, Note_on_c, 1, 81, 0
3, 120600, Note_on_c, 1, 80, 100
3, 120708, Note_on_c, 1, 80, 0
3, 120840, Note_on_c, 1, 83, 100
3, 120948, Note_on_c, 1, 83, 0
3, 121080, Note_on_c, 1, 81, 100
3, 121188, Note_on_c, 1, 81, 0
3, 121320, Note_on_c, 1, 81, 100
3, 121428, Note_on_c, 1, 81, 0
3, 121560, Note_on_c, 1, 80, 100
3, 121668, Note_on_c, 1, 80, 0
3, 121800, Note_on_c, 1, 80, 100
3, 121908, Note_on_c, 1, 80, 0
3, 121920, Note_on_c, 1, 81, 100
3, 122028, Note_on_c, 1, 81, 0
3, 122280, Note_on_c, 1, 71, 100
3, 122388, Note_on_c, 1, 71, 0
3, 122400, Note_on_c, 1, 69, 100
3, 122508, Note_on_c, 1, 69, 0
3, 122760, Note_on_c, 1, 65, 100
3, 122868, Note_on_c, 1, 65, 0
3, 122880, Note_on_c, 1, 64, 100
3, 122988, Note_on_c, 1, 64, 0
3, 123000, Note_on_c, 1, 69, 100
3, 123054, Note_on_c, 1, 69, 0
3, 123060, Note_on_c, 1, 71, 100
3, 123114, Note_on_c, 1, 71, 0
3, 123120, Note_on_c, 1, 72, 100
3, 123174, Note_on_c, 1, 72, 0
3, 123180, Note_on_c, 1, 76, 100
3, 123234, Note_on_c, 1, 76, 0
3, 123240, Note_on_c, 1, 74, 100
3, 123294, Note_on_c, 1, 74, 0
3, 123300, Note_on_c, 1, 71, 100
3, 123354, Note_on_c, 1, 71, 0
3, 123360, Note_on_c, 1, 72, 100
3, 123414, Note_on_c, 1, 72, 0
3, 123420, Note_on_c, 1, 69, 100
3, 123474, Note_on_c, 1, 69, 0
3, 123480, Note_on_c, 1, 72, 100
3, 123534, Note_on_c, 1, 72, 0
3, 123540, Note_on_c, 1, 76, 100
3, 123594, Note_on_c, 1, 76, 0
3, 123600, Note_on_c, 1, 81, 100
3, 123636, Note_on_c, 1, 81, 0
3, 123640, Note_on_c, 1, 83, 100
3, 123676, Note_on_c, 1, 83, 0
3, 123680, Note_on_c, 1, 84, 100
3, 123716, Note_on_c, 1, 84, 0
3, 123720, Note_on_c, 1, 83, 100
3, 123756, Note_on_c, 1, 83, 0
3, 123760, Note_on_c, 1, 81, 100
3, 123796, Note_on_c, 1, 81, 0
3, 123800, Note_on_c, 1, 80, 100
3, 123836, Note_on_c, 1, 80, 0
3, 123840, Note_on_c, 1, 81, 100
3, 123948, Note_on_c, 1, 81, 0
3, 124440, Note_on_c, 1, 79, 100
3, 124548, Note_on_c, 1, 79, 0
3, 124560, Note_on_c, 1, 76, 100
3, 124668, Note_on_c, 1, 76, 0
3, 124680, Note_on_c, 1, 73, 100
3, 124788, Note_on_c, 1, 73, 0
3, 124800, Note_on_c, 1, 69, 100
3, 124908, Note_on_c, 1, 69, 0
3, 124920, Note_on_c, 1, 74, 100
3, 125028, Note_on_c, 1, 74, 0
3, 125040, Note_on_c, 1, 77, 100
3, 125148, Note_on_c, 1, 77, 0
3, 125160, Note_on_c, 1, 83, 100
3, 125268, Note_on_c, 1, 83, 0
3, 125280, Note_on_c, 1, 86, 100
3, 125712, Note_on_c, 1, 86, 0
3, 125760, Note_on_c, 1, 84, 100
3, 125868, Note_on_c, 1, 84, 0
3, 126090, Note_on_c, 1, 69, 100
3, 126117, Note_on_c, 1, 69, 0
3, 126120, Note_on_c, 1, 72, 100
3, 126201, Note_on_c, 1, 72, 0
3, 126210, Note_on_c, 1, 76, 100
3, 126237, Note_on_c, 1, 76, 0
3, 126240, Note_on_c, 1, 81, 100
3, 126348, Note_on_c, 1, 81, 0
3, 126840, Note_on_c, 1, 69, 100
3, 126948, Note_on_c, 1, 69, 0
3, 126960, Note_on_c, 1, 68, 100
3, 127068, Note_on_c, 1, 68, 0
3, 127080, Note_on_c, 1, 69, 100
3, 127116, Note_on_c, 1, 69, 0
3, 127120, Note_on_c, 1, 71, 100
3, 127156, Note_on_c, 1, 71, 0
3, 127160, Note_on_c, 1, 72, 100
3, 127196, Note_on_c, 1, 72, 0
3, 127200, Note_on_c, 1, 71, 100
3, 127308, Note_on_c, 1, 71, 0
3, 127320, Note_on_c, 1, 75, 100
3, 127428, Note_on_c, 1, 75, 0
3, 127440, Note_on_c, 1, 76, 100
3, 127548, Note_on_c, 1, 76, 0
3, 127560, Note_on_c, 1, 69, 100
3, 127596, Note_on_c, 1, 69, 0
3, 127600, Note_on_c, 1, 68, 100
3, 127636, Note_on_c, 1, 68, 0
3, 127640, Note_on_c, 1, 66, 100
3, 127676, Note_on_c, 1, 66, 0
3, 127680, Note_on_c, 1, 68, 100
3, 127788, Note_on_c, 1, 68, 0
3, 127800, Note_on_c, 1, 75, 100
3, 127908, Note_on_c, 1, 75, 0
3, 127920, Note_on_c, 1, 76, 100
3, 128028, Note_on_c, 1, 76, 0
3, 128040, Note_on_c, 1, 66, 100
3, 128076, Note_on_c, 1, 66, 0
3, 128080, Note_on_c, 1, 64, 100
3, 128116, Note_on_c, 1, 64, 0
3, 128120, Note_on_c, 1, 63, 100
3, 128156, Note_on_c, 1, 63, 0
3, 128160, Note_on_c, 1, 64, 100
3, 128268, Note_on_c, 1, 64, 0
3, 128280, Note_on_c, 1, 60, 100
3, 128388, Note_on_c, 1, 60, 0
3, 128400, Note_on_c, 1, 59, 100
3, 128508, Note_on_c, 1, 59, 0
3, 129240, Note_on_c, 1, 71, 100
3, 129348, Note_on_c, 1, 71, 0
3, 129360, Note_on_c, 1, 74, 100
3, 129468, Note_on_c, 1, 74, 0
3, 129480, Note_on_c, 1, 77, 100
3, 129588, Note_on_c, 1, 77, 0
3, 129600, Note_on_c, 1, 83, 100
3, 130188, Note_on_c, 1, 83, 0
3, 130200, Note_on_c, 1, 81, 100
3, 130281, Note_on_c, 1, 81, 0
3, 130290, Note_on_c, 1, 77, 100
3, 130317, Note_on_c, 1, 77, 0
3, 130320, Note_on_c, 1, 76, 100
3, 130428, Note_on_c, 1, 76, 0
3, 130440, Note_on_c, 1, 80, 100
3, 130548, Note_on_c, 1, 80, 0
3, 130560, Note_on_c, 1, 81, 100
3, 130668, Note_on_c, 1, 81, 0
3, 130920, Note_on_c, 1, 73, 100
3, 130956, Note_on_c, 1, 73, 0
3, 130960, Note_on_c, 1, 74, 100
3, 130996, Note_on_c, 1, 74, 0
3, 131000, Note_on_c, 1, 76, 100
3, 131036, Note_on_c, 1, 76, 0
3, 131040, Note_on_c, 1, 74, 100
3, 131148, Note_on_c, 1, 74, 0
3, 131400, Note_on_c, 1, 81, 100
3, 131436, Note_on_c, 1, 81, 0
3, 131440, Note_on_c, 1, 83, 100
3, 131476, Note_on_c, 1, 83, 0
3, 131480, Note_on_c, 1, 84, 100
3, 131516, Note_on_c, 1, 84, 0
3, 131520, Note_on_c, 1, 83, 100
3, 133548, Note_on_c, 1, 83, 0
3, 134520, Note_on_c, 1, 57, 100
3, 134574, Note_on_c, 1, 57, 0
3, 134580, Note_on_c, 1, 59, 100
3, 134634, Note_on_c, 1, 59, 0
3, 134640, Note_on_c, 1, 60, 100
3, 134694, Note_on_c, 1, 60, 0
3, 134700, Note_on_c, 1, 64, 100
3, 134754, Note_on_c, 1, 64, 0
3, 134760, Note_on_c, 1, 62, 100
3, 134814, Note_on_c, 1, 62, 0
3, 134820, Note_on_c, 1, 59, 100
3, 134874, Note_on_c, 1, 59, 0
3, 134880, Note_on_c, 1, 60, 100
3, 134934, Note_on_c, 1, 60, 0
3, 134940, Note_on_c, 1, 57, 100
3, 134994, Note_on_c, 1, 57, 0
3, 135000, Note_on_c, 1, 60, 100
3, 135054, Note_on_c, 1, 60, 0
3, 135060, Note_on_c, 1, 64, 100
3, 135114, Note_on_c, 1, 64, 0
3, 135120, Note_on_c, 1, 69, 100
3, 135156, Note_on_c, 1, 69, 0
3, 135160, Note_on_c, 1, 71, 100
3, 135196, Note_on_c, 1, 71, 0
3, 135200, Note_on_c, 1, 72, 100
3, 135236, Note_on_c, 1, 72, 0
3, 135240, Note_on_c, 1, 71, 100
3, 135276, Note_on_c, 1, 71, 0
3, 135280, Note_on_c, 1, 69, 100
3, 135316, Note_on_c, 1, 69, 0
3, 135320, Note_on_c, 1, 68, 100
3, 135356, Note_on_c, 1, 68, 0
3, 135360, Note_on_c, 1, 69, 100
3, 135414, Note_on_c, 1, 69, 0
3, 135420, Note_on_c, 1, 64, 100
3, 135474, Note_on_c, 1, 64, 0
3, 135480, Note_on_c, 1, 69, 100
3, 135534, Note_on_c, 1, 69, 0
3, 135540, Note_on_c, 1, 71, 100
3, 135594, Note_on_c, 1, 71, 0
3, 135600, Note_on_c, 1, 72, 100
3, 135654, Note_on_c, 1, 72, 0
3, 135660, Note_on_c, 1, 76, 100
3, 135714, Note_on_c, 1, 76, 0
3, 135720, Note_on_c, 1, 74, 100
3, 135774, Note_on_c, 1, 74, 0
3, 135780, Note_on_c, 1, 71, 100
3, 135834, Note_on_c, 1, 71, 0
3, 135840, Note_on_c, 1, 72, 100
3, 135894, Note_on_c, 1, 72, 0
3, 135900, Note_on_c, 1, 69, 100
3, 135954, Note_on_c, 1, 69, 0
3, 135960, Note_on_c, 1, 72, 100
3, 136014, Note_on_c, 1, 72, 0
3, 136020, Note_on_c, 1, 76, 100
3, 136074, Note_on_c, 1, 76, 0
3, 136080, Note_on_c, 1, 81, 100
3, 136116, Note_on_c, 1, 81, 0
3, 136120, Note_on_c, 1, 83, 100
3, 136156, Note_on_c, 1, 83, 0
3, 136160, Note_on_c, 1, 84, 100
3, 136196, Note_on_c, 1, 84, 0
3, 136200, Note_on_c, 1, 83, 100
3, 136236, Note_on_c, 1, 83, 0
3, 136240, Note_on_c, 1, 81, 100
3, 136276, Note_on_c, 1, 81, 0
3, 136280, Note_on_c, 1, 80, 100
3, 136316, Note_on_c, 1, 80, 0
3, 136320, Note_on_c, 1, 81, 100
3, 136356, Note_on_c, 1, 81, 0
3, 136360, Note_on_c, 1, 76, 100
3, 136396, Note_on_c, 1, 76, 0
3, 136400, Note_on_c, 1, 76, 100
3, 136436, Note_on_c, 1, 76, 0
3, 136440, Note_on_c, 1, 77, 100
3, 136476, Note_on_c, 1, 77, 0
3, 136480, Note_on_c, 1, 75, 100
3, 136516, Note_on_c, 1, 75, 0
3, 136520, Note_on_c, 1, 76, 100
3, 136556, Note_on_c, 1, 76, 0
3, 136560, Note_on_c, 1, 77, 100
3, 136596, Note_on_c, 1, 77, 0
3, 136600, Note_on_c, 1, 75, 100
3, 136636, Note_on_c, 1, 75, 0
3, 136640, Note_on_c, 1, 76, 100
3, 136676, Note_on_c, 1, 76, 0
3, 136680, Note_on_c, 1, 77, 100
3, 136716, Note_on_c, 1, 77, 0
3, 136720, Note_on_c, 1, 75, 100
3, 136756, Note_on_c, 1, 75, 0
3, 136760, Note_on_c, 1, 76, 100
3, 136796, Note_on_c, 1, 76, 0
3, 136800, Note_on_c, 1, 68, 100
3, 136836, Note_on_c, 1, 68, 0
3, 136840, Note_on_c, 1, 69, 100
3, 136876, Note_on_c, 1, 69, 0
3, 136880, Note_on_c, 1, 71, 100
3, 136916, Note_on_c, 1, 71, 0
3, 136920, Note_on_c, 1, 69, 100
3, 136956, Note_on_c, 1, 69, 0
3, 136960, Note_on_c, 1, 71, 100
3, 136996, Note_on_c, 1, 71, 0
3, 137000, Note_on_c, 1, 72, 100
3, 137036, Note_on_c, 1, 72, 0
3, 137040, Note_on_c, 1, 71, 100
3, 137076, Note_on_c, 1, 71, 0
3, 137080, Note_on_c, 1, 76, 100
3, 137116, Note_on_c, 1, 76, 0
3, 137120, Note_on_c, 1, 74, 100
3, 137156, Note_on_c, 1, 74, 0
3, 137160, Note_on_c, 1, 72, 100
3, 137196, Note_on_c, 1, 72, 0
3, 137200, Note_on_c, 1, 71, 100
3, 137236, Note_on_c, 1, 71, 0
3, 137240, Note_on_c, 1, 69, 100
3, 137276, Note_on_c, 1, 69, 0
3, 137280, Note_on_c, 1, 68, 100
3, 137316, Note_on_c, 1, 68, 0
3, 137320, Note_on_c, 1, 64, 100
3, 137356, Note_on_c, 1, 64, 0
3, 137360, Note_on_c, 1, 64, 100
3, 137396, Note_on_c, 1, 64, 0
3, 137400, Note_on_c, 1, 65, 100
3, 137436, Note_on_c, 1, 65, 0
3, 137440, Note_on_c, 1, 63, 100
3, 137476, Note_on_c, 1, 63, 0
3, 137480, Note_on_c, 1, 64, 100
3, 137516, Note_on_c, 1, 64, 0
3, 137520, Note_on_c, 1, 65, 100
3, 137556, Note_on_c, 1, 65, 0
3, 137560, Note_on_c, 1, 63, 100
3, 137596, Note_on_c, 1, 63, 0
3, 137600, Note_on_c, 1, 64, 100
3, 137636, Note_on_c, 1, 64, 0
3, 137640, Note_on_c, 1, 65, 100
3, 137676, Note_on_c, 1, 65, 0
3, 137680, Note_on_c, 1, 63, 100
3, 137716, Note_on_c, 1, 63, 0
3, 137720, Note_on_c, 1, 64, 100
3, 137756, Note_on_c, 1, 64, 0
3, 137760, Note_on_c, 1, 56, 100
3, 137796, Note_on_c, 1, 56, 0
3, 137800, Note_on_c, 1, 57, 100
3, 137836, Note_on_c, 1, 57, 0
3, 137840, Note_on_c, 1, 59, 100
3, 137876, Note_on_c, 1, 59, 0
3, 137880, Note_on_c, 1, 57, 100
3, 137916, Note_on_c, 1, 57, 0
3, 137920, Note_on_c, 1, 59, 100
3, 137956, Note_on_c, 1, 59, 0
3, 137960, Note_on_c, 1, 60, 100
3, 137996, Note_on_c, 1, 60, 0
3, 138000, Note_on_c, 1, 59, 100
3, 138036, Note_on_c, 1, 59, 0
3, 138040, Note_on_c, 1, 64, 100
3, 138076, Note_on_c, 1, 64, 0
3, 138080, Note_on_c, 1, 62, 100
3, 138116, Note_on_c, 1, 62, 0
3, 138120, Note_on_c, 1, 60, 100
3, 138156, Note_on_c, 1, 60, 0
3, 138160, Note_on_c, 1, 59, 100
3, 138196, Note_on_c, 1, 59, 0
3, 138200, Note_on_c, 1, 57, 100
3, 138236, Note_on_c, 1, 57, 0
3, 138240, Note_on_c, 1, 56, 100
3, 138276, Note_on_c, 1, 56, 0
3, 138280, Note_on_c, 1, 76, 100
3, 138316, Note_on_c, 1, 76, 0
3, 138320, Note_on_c, 1, 77, 100
3, 138356, Note_on_c, 1, 77, 0
3, 138360, Note_on_c, 1, 79, 100
3, 138396, Note_on_c, 1, 79, 0
3, 138400, Note_on_c, 1, 77, 100
3, 138436, Note_on_c, 1, 77, 0
3, 138440, Note_on_c, 1, 79, 100
3, 138476, Note_on_c, 1, 79, 0
3, 138480, Note_on_c, 1, 69, 100
3, 138516, Note_on_c, 1, 69, 0
3, 138520, Note_on_c, 1, 76, 100
3, 138556, Note_on_c, 1, 76, 0
3, 138560, Note_on_c, 1, 77, 100
3, 138596, Note_on_c, 1, 77, 0
3, 138600, Note_on_c, 1, 79, 100
3, 138636, Note_on_c, 1, 79, 0
3, 138640, Note_on_c, 1, 77, 100
3, 138676, Note_on_c, 1, 77, 0
3, 138680, Note_on_c, 1, 76, 100
3, 138716, Note_on_c, 1, 76, 0
3, 138720, Note_on_c, 1, 77, 100
3, 138756, Note_on_c, 1, 77, 0
3, 138760, Note_on_c, 1, 74, 100
3, 138796, Note_on_c, 1, 74, 0
3, 138800, Note_on_c, 1, 76, 100
3, 138836, Note_on_c, 1, 76, 0
3, 138840, Note_on_c, 1, 77, 100
3, 138876, Note_on_c, 1, 77, 0
3, 138880, Note_on_c, 1, 76, 100
3, 138916, Note_on_c, 1, 76, 0
3, 138920, Note_on_c, 1, 77, 100
3, 138956, Note_on_c, 1, 77, 0
3, 138960, Note_on_c, 1, 67, 100
3, 138996, Note_on_c, 1, 67, 0
3, 139000, Note_on_c, 1, 74, 100
3, 139036, Note_on_c, 1, 74, 0
3, 139040, Note_on_c, 1, 76, 100
3, 139076, Note_on_c, 1, 76, 0
3, 139080, Note_on_c, 1, 77, 100
3, 139116, Note_on_c, 1, 77, 0
3, 139120, Note_on_c, 1, 76, 100
3, 139156, Note_on_c, 1, 76, 0
3, 139160, Note_on_c, 1, 74, 100
3, 139196, Note_on_c, 1, 74, 0
3, 139200, Note_on_c, 1, 76, 100
3, 139308, Note_on_c, 1, 76, 0
3, 139320, Note_on_c, 1, 72, 100
3, 139401, Note_on_c, 1, 72, 0
3, 139410, Note_on_c, 1, 76, 100
3, 139437, Note_on_c, 1, 76, 0
3, 139440, Note_on_c, 1, 69, 100
3, 139521, Note_on_c, 1, 69, 0
3, 139530, Note_on_c, 1, 76, 100
3, 139557, Note_on_c, 1, 76, 0
3, 139560, Note_on_c, 1, 66, 100
3, 139641, Note_on_c, 1, 66, 0
3, 139650, Note_on_c, 1, 76, 100
3, 139677, Note_on_c, 1, 76, 0
3, 139680, Note_on_c, 1, 74, 100
3, 139716, Note_on_c, 1, 74, 0
3, 139720, Note_on_c, 1, 72, 100
3, 139756, Note_on_c, 1, 72, 0
3, 139760, Note_on_c, 1, 74, 100
3, 139796, Note_on_c, 1, 74, 0
3, 139800, Note_on_c, 1, 71, 100
3, 139881, Note_on_c, 1, 71, 0
3, 139890, Note_on_c, 1, 74, 100
3, 139917, Note_on_c, 1, 74, 0
3, 139920, Note_on_c, 1, 68, 100
3, 140001, Note_on_c, 1, 68, 0
3, 140010, Note_on_c, 1, 74, 100
3, 140037, Note_on_c, 1, 74, 0
3, 140040, Note_on_c, 1, 64, 100
3, 140121, Note_on_c, 1, 64, 0
3, 140130, Note_on_c, 1, 74, 100
3, 140157, Note_on_c, 1, 74, 0
3, 140160, Note_on_c, 1, 72, 100
3, 140196, Note_on_c, 1, 72, 0
3, 140200, Note_on_c, 1, 71, 100
3, 140236, Note_on_c, 1, 71, 0
3, 140240, Note_on_c, 1, 69, 100
3, 140276, Note_on_c, 1, 69, 0
3, 140280, Note_on_c, 1, 77, 100
3, 140316, Note_on_c, 1, 77, 0
3, 140320, Note_on_c, 1, 76, 100
3, 140356, Note_on_c, 1, 76, 0
3, 140360, Note_on_c, 1, 74, 100
3, 140396, Note_on_c, 1, 74, 0
3, 140400, Note_on_c, 1, 72, 100
3, 140436, Note_on_c, 1, 72, 0
3, 140440, Note_on_c, 1, 71, 100
3, 140476, Note_on_c, 1, 71, 0
3, 140480, Note_on_c, 1, 69, 100
3, 140516, Note_on_c, 1, 69, 0
3, 140520, Note_on_c, 1, 68, 100
3, 140556, Note_on_c, 1, 68, 0
3, 140560, Note_on_c, 1, 69, 100
3, 140596, Note_on_c, 1, 69, 0
3, 140600, Note_on_c, 1, 71, 100
3, 140636, Note_on_c, 1, 71, 0
3, 140640, Note_on_c, 1, 64, 100
3, 140802, Note_on_c, 1, 64, 0
3, 140820, Note_on_c, 1, 66, 100
3, 140847, Note_on_c, 1, 66, 0
3, 140850, Note_on_c, 1, 68, 100
3, 140877, Note_on_c, 1, 68, 0
3, 140880, Note_on_c, 1, 69, 100
3, 140916, Note_on_c, 1, 69, 0
3, 140920, Note_on_c, 1, 71, 100
3, 140956, Note_on_c, 1, 71, 0
3, 140960, Note_on_c, 1, 72, 100
3, 140996, Note_on_c, 1, 72, 0
3, 141000, Note_on_c, 1, 74, 100
3, 141036, Note_on_c, 1, 74, 0
3, 141040, Note_on_c, 1, 76, 100
3, 141076, Note_on_c, 1, 76, 0
3, 141080, Note_on_c, 1, 77, 100
3, 141116, Note_on_c, 1, 77, 0
3, 141120, Note_on_c, 1, 76, 100
3, 141156, Note_on_c, 1, 76, 0
3, 141160, Note_on_c, 1, 74, 100
3, 141196, Note_on_c, 1, 74, 0
3, 141200, Note_on_c, 1, 72, 100
3, 141236, Note_on_c, 1, 72, 0
3, 141240, Note_on_c, 1, 71, 100
3, 141276, Note_on_c, 1, 71, 0
3, 141280, Note_on_c, 1, 72, 100
3, 141316, Note_on_c, 1, 72, 0
3, 141320, Note_on_c, 1, 69, 100
3, 141356, Note_on_c, 1, 69, 0
3, 141360, Note_on_c, 1, 64, 100
3, 141441, Note_on_c, 1, 64, 0
3, 141450, Note_on_c, 1, 69, 100
3, 141477, Note_on_c, 1, 69, 0
3, 141480, Note_on_c, 1, 71, 100
3, 141561, Note_on_c, 1, 71, 0
3, 141570, Note_on_c, 1, 68, 100
3, 141597, Note_on_c, 1, 68, 0
3, 141600, Note_on_c, 1, 69, 100
3, 141681, Note_on_c, 1, 69, 0
3, 141690, Note_on_c, 1, 57, 100
3, 141717, Note_on_c, 1, 57, 0
3, 141720, Note_on_c, 1, 65, 100
3, 141756, Note_on_c, 1, 65, 0
3, 141760, Note_on_c, 1, 64, 100
3, 141796, Note_on_c, 1, 64, 0
3, 141800, Note_on_c, 1, 62, 100
3, 141836, Note_on_c, 1, 62, 0
3, 141840, Note_on_c, 1, 60, 100
3, 141948, Note_on_c, 1, 60, 0
3, 141960, Note_on_c, 1, 59, 100
3, 142068, Note_on_c, 1, 59, 0
3, 142080, Note_on_c, 1, 57, 100
3, 142296, Note_on_c, 1, 57, 0
3, 142296, End_track
4, 0, Start_track
4, 0, Sequence_number, 65535
4, 0, MIDI_port, 0
4, 0, Title_t, "Violino I"
4, 0, Control_c, 2, 0, 0
4, 0, Control_c, 2, 32, 0
4, 0, Program_c, 2, 48
4, 0, Control_c, 2, 7, 80
4, 0, Control_c, 2, 10, 14
4, 120, Note_on_c, 2, 57, 100
4, 174, Note_on_c, 2, 57, 0
4, 180, Note_on_c, 2, 59, 100
4, 234, Note_on_c, 2, 59, 0
4, 240, Note_on_c, 2, 60, 100
4, 294, Note_on_c, 2, 60, 0
4, 300, Note_on_c, 2, 64, 100
4, 354, Note_on_c, 2, 64, 0
4, 360, Note_on_c, 2, 62, 100
4, 414, Note_on_c, 2, 62, 0
4, 420, Note_on_c, 2, 59, 100
4, 474, Note_on_c, 2, 59, 0
4, 480, Note_on_c, 2, 60, 100
4, 534, Note_on_c, 2, 60, 0
4, 540, Note_on_c, 2, 57, 100
4, 594, Note_on_c, 2, 57, 0
4, 600, Note_on_c, 2, 60, 100
4, 654, Note_on_c, 2, 60, 0
4, 660, Note_on_c, 2, 64, 100
4, 714, Note_on_c, 2, 64, 0
4, 720, Note_on_c, 2, 69, 100
4, 756, Note_on_c, 2, 69, 0
4, 760, Note_on_c, 2, 71, 100
4, 796, Note_on_c, 2, 71, 0
4, 800, Note_on_c, 2, 72, 100
4, 836, Note_on_c, 2, 72, 0
4, 840, Note_on_c, 2, 71, 100
4, 876, Note_on_c, 2, 71, 0
4, 880, Note_on_c, 2, 69, 100
4, 916, Note_on_c, 2, 69, 0
4, 920, Note_on_c, 2, 68, 100
4, 956, Note_on_c, 2, 68, 0
4, 960, Note_on_c, 2, 69, 100
4, 1014, Note_on_c, 2, 69, 0
4, 1020, Note_on_c, 2, 64, 100
4, 1074, Note_on_c, 2, 64, 0
4, 1080, Note_on_c, 2, 69, 100
4, 1134, Note_on_c, 2, 69, 0
4, 1140, Note_on_c, 2, 71, 100
4, 1194, Note_on_c, 2, 71, 0
4, 1200, Note_on_c, 2, 72, 100
4, 1254, Note_on_c, 2, 72, 0
4, 1260, Note_on_c, 2, 76, 100
4, 1314, Note_on_c, 2, 76, 0
4, 1320, Note_on_c, 2, 74, 100
4, 1374, Note_on_c, 2, 74, 0
4, 1380, Note_on_c, 2, 71, 100
4, 1434, Note_on_c, 2, 71, 0
4, 1440, Note_on_c, 2, 72, 100
4, 1494, Note_on_c, 2, 72, 0
4, 1500, Note_on_c, 2, 69, 100
4, 1554, Note_on_c, 2, 69, 0
4, 1560, Note_on_c, 2, 72, 100
4, 1614, Note_on_c, 2, 72, 0
4, 1620, Note_on_c, 2, 76, 100
4, 1674, Note_on_c, 2, 76, 0
4, 1680, Note_on_c, 2, 81, 100
4, 1716, Note_on_c, 2, 81, 0
4, 1720, Note_on_c, 2, 83, 100
4, 1756, Note_on_c, 2, 83, 0
4, 1760, Note_on_c, 2, 84, 100
4, 1796, Note_on_c, 2, 84, 0
4, 1800, Note_on_c, 2, 83, 100
4, 1836, Note_on_c, 2, 83, 0
4, 1840, Note_on_c, 2, 81, 100
4, 1876, Note_on_c, 2, 81, 0
4, 1880, Note_on_c, 2, 80, 100
4, 1916, Note_on_c, 2, 80, 0
4, 1920, Note_on_c, 2, 81, 100
4, 1956, Note_on_c, 2, 81, 0
4, 1960, Note_on_c, 2, 76, 100
4, 1996, Note_on_c, 2, 76, 0
4, 2000, Note_on_c, 2, 76, 100
4, 2036, Note_on_c, 2, 76, 0
4, 2040, Note_on_c, 2, 77, 100
4, 2076, Note_on_c, 2, 77, 0
4, 2080, Note_on_c, 2, 75, 100
4, 2116, Note_on_c, 2, 75, 0
4, 2120, Note_on_c, 2, 76, 100
4, 2156, Note_on_c, 2, 76, 0
4, 2160, Note_on_c, 2, 77, 100
4, 2196, Note_on_c, 2, 77, 0
4, 2200, Note_on_c, 2, 75, 100
4, 2236, Note_on_c, 2, 75, 0
4, 2240, Note_on_c, 2, 76, 100
4, 2276, Note_on_c, 2, 76, 0
4, 2280, Note_on_c, 2, 77, 100
4, 2316, Note_on_c, 2, 77, 0
4, 2320, Note_on_c, 2, 75, 100
4, 2356, Note_on_c, 2, 75, 0
4, 2360, Note_on_c, 2, 76, 100
4, 2396, Note_on_c, 2, 76, 0
4, 2400, Note_on_c, 2, 68, 100
4, 2436, Note_on_c, 2, 68, 0
4, 2440, Note_on_c, 2, 69, 100
4, 2476, Note_on_c, 2, 69, 0
4, 2480, Note_on_c, 2, 71, 100
4, 2516, Note_on_c, 2, 71, 0
4, 2520, Note_on_c, 2, 69, 100
4, 2556, Note_on_c, 2, 69, 0
4, 2560, Note_on_c, 2, 71, 100
4, 2596, Note_on_c, 2, 71, 0
4, 2600, Note_on_c, 2, 72, 100
4, 2636, Note_on_c, 2, 72, 0
4, 2640, Note_on_c, 2, 71, 100
4, 2676, Note_on_c, 2, 71, 0
4, 2680, Note_on_c, 2, 76, 100
4, 2716, Note_on_c, 2, 76, 0
4, 2720, Note_on_c, 2, 74, 100
4, 2756, Note_on_c, 2, 74, 0
4, 2760, Note_on_c, 2, 72, 100
4, 2796, Note_on_c, 2, 72, 0
4, 2800, Note_on_c, 2, 71, 100
4, 2836, Note_on_c, 2, 71, 0
4, 2840, Note_on_c, 2, 69, 100
4, 2876, Note_on_c, 2, 69, 0
4, 2880, Note_on_c, 2, 68, 100
4, 2916, Note_on_c, 2, 68, 0
4, 2920, Note_on_c, 2, 64, 100
4, 2956, Note_on_c, 2, 64, 0
4, 2960, Note_on_c, 2, 64, 100
4, 2996, Note_on_c, 2, 64, 0
4, 3000, Note_on_c, 2, 65, 100
4, 3036, Note_on_c, 2, 65, 0
4, 3040, Note_on_c, 2, 63, 100
4, 3076, Note_on_c, 2, 63, 0
4, 3080, Note_on_c, 2, 64, 100
4, 3116, Note_on_c, 2, 64, 0
4, 3120, Note_on_c, 2, 65, 100
4, 3156, Note_on_c, 2, 65, 0
4, 3160, Note_on_c, 2, 63, 100
4, 3196, Note_on_c, 2, 63, 0
4, 3200, Note_on_c, 2, 64, 100
4, 3236, Note_on_c, 2, 64, 0
4, 3240, Note_on_c, 2, 65, 100
4, 3276, Note_on_c, 2, 65, 0
4, 3280, Note_on_c, 2, 63, 100
4, 3316, Note_on_c, 2, 63, 0
4, 3320, Note_on_c, 2, 64, 100
4, 3356, Note_on_c, 2, 64, 0
4, 3360, Note_on_c, 2, 56, 100
4, 3396, Note_on_c, 2, 56, 0
4, 3400, Note_on_c, 2, 57, 100
4, 3436, Note_on_c, 2, 57, 0
4, 3440, Note_on_c, 2, 59, 100
4, 3476, Note_on_c, 2, 59, 0
4, 3480, Note_on_c, 2, 57, 100
4, 3516, Note_on_c, 2, 57, 0
4, 3520, Note_on_c, 2, 59, 100
4, 3556, Note_on_c, 2, 59, 0
4, 3560, Note_on_c, 2, 60, 100
4, 3596, Note_on_c, 2, 60, 0
4, 3600, Note_on_c, 2, 59, 100
4, 3636, Note_on_c, 2, 59, 0
4, 3640, Note_on_c, 2, 64, 100
4, 3676, Note_on_c, 2, 64, 0
4, 3680, Note_on_c, 2, 62, 100
4, 3716, Note_on_c, 2, 62, 0
4, 3720, Note_on_c, 2, 60, 100
4, 3756, Note_on_c, 2, 60, 0
4, 3760, Note_on_c, 2, 59, 100
4, 3796, Note_on_c, 2, 59, 0
4, 3800, Note_on_c, 2, 57, 100
4, 3836, Note_on_c, 2, 57, 0
4, 3840, Note_on_c, 2, 56, 100
4, 3876, Note_on_c, 2, 56, 0
4, 3880, Note_on_c, 2, 76, 100
4, 3916, Note_on_c, 2, 76, 0
4, 3920, Note_on_c, 2, 77, 100
4, 3956, Note_on_c, 2, 77, 0
4, 3960, Note_on_c, 2, 79, 100
4, 3996, Note_on_c, 2, 79, 0
4, 4000, Note_on_c, 2, 77, 100
4, 4036, Note_on_c, 2, 77, 0
4, 4040, Note_on_c, 2, 79, 100
4, 4076, Note_on_c, 2, 79, 0
4, 4080, Note_on_c, 2, 69, 100
4, 4116, Note_on_c, 2, 69, 0
4, 4120, Note_on_c, 2, 76, 100
4, 4156, Note_on_c, 2, 76, 0
4, 4160, Note_on_c, 2, 77, 100
4, 4196, Note_on_c, 2, 77, 0
4, 4200, Note_on_c, 2, 79, 100
4, 4236, Note_on_c, 2, 79, 0
4, 4240, Note_on_c, 2, 77, 100
4, 4276, Note_on_c, 2, 77, 0
4, 4280, Note_on_c, 2, 76, 100
4, 4316, Note_on_c, 2, 76, 0
4, 4320, Note_on_c, 2, 77, 100
4, 4356, Note_on_c, 2, 77, 0
4, 4360, Note_on_c, 2, 74, 100
4, 4396, Note_on_c, 2, 74, 0
4, 4400, Note_on_c, 2, 76, 100
4, 4436, Note_on_c, 2, 76, 0
4, 4440, Note_on_c, 2, 77, 100
4, 4476, Note_on_c, 2, 77, 0
4, 4480, Note_on_c, 2, 76, 100
4, 4516, Note_on_c, 2, 76, 0
4, 4520, Note_on_c, 2, 77, 100
4, 4556, Note_on_c, 2, 77, 0
4, 4560, Note_on_c, 2, 67, 100
4, 4596, Note_on_c, 2, 67, 0
4, 4600, Note_on_c, 2, 74, 100
4, 4636, Note_on_c, 2, 74, 0
4, 4640, Note_on_c, 2, 76, 100
4, 4676, Note_on_c, 2, 76, 0
4, 4680, Note_on_c, 2, 77, 100
4, 4716, Note_on_c, 2, 77, 0
4, 4720, Note_on_c, 2, 76, 100
4, 4756, Note_on_c, 2, 76, 0
4, 4760, Note_on_c, 2, 74, 100
4, 4796, Note_on_c, 2, 74, 0
4, 4800, Note_on_c, 2, 76, 100
4, 4908, Note_on_c, 2, 76, 0
4, 4920, Note_on_c, 2, 72, 100
4, 5001, Note_on_c, 2, 72, 0
4, 5010, Note_on_c, 2, 76, 100
4, 5037, Note_on_c, 2, 76, 0
4, 5040, Note_on_c, 2, 69, 100
4, 5121, Note_on_c, 2, 69, 0
4, 5130, Note_on_c, 2, 76, 100
4, 5157, Note_on_c, 2, 76, 0
4, 5160, Note_on_c, 2, 66, 100
4, 5241, Note_on_c, 2, 66, 0
4, 5250, Note_on_c, 2, 76, 100
4, 5277, Note_on_c, 2, 76, 0
4, 5280, Note_on_c, 2, 74, 100
4, 5316, Note_on_c, 2, 74, 0
4, 5320, Note_on_c, 2, 72, 100
4, 5356, Note_on_c, 2, 72, 0
4, 5360, Note_on_c, 2, 74, 100
4, 5396, Note_on_c, 2, 74, 0
4, 5400, Note_on_c, 2, 71, 100
4, 5481, Note_on_c, 2, 71, 0
4, 5490, Note_on_c, 2, 74, 100
4, 5517, Note_on_c, 2, 74, 0
4, 5520, Note_on_c, 2, 68, 100
4, 5601, Note_on_c, 2, 68, 0
4, 5610, Note_on_c, 2, 74, 100
4, 5637, Note_on_c, 2, 74, 0
4, 5640, Note_on_c, 2, 64, 100
4, 5721, Note_on_c, 2, 64, 0
4, 5730, Note_on_c, 2, 74, 100
4, 5757, Note_on_c, 2, 74, 0
4, 5760, Note_on_c, 2, 72, 100
4, 5796, Note_on_c, 2, 72, 0
4, 5800, Note_on_c, 2, 71, 100
4, 5836, Note_on_c, 2, 71, 0
4, 5840, Note_on_c, 2, 69, 100
4, 5876, Note_on_c, 2, 69, 0
4, 5880, Note_on_c, 2, 77, 100
4, 5916, Note_on_c, 2, 77, 0
4, 5920, Note_on_c, 2, 76, 100
4, 5956, Note_on_c, 2, 76, 0
4, 5960, Note_on_c, 2, 74, 100
4, 5996, Note_on_c, 2, 74, 0
4, 6000, Note_on_c, 2, 72, 100
4, 6036, Note_on_c, 2, 72, 0
4, 6040, Note_on_c, 2, 71, 100
4, 6076, Note_on_c, 2, 71, 0
4, 6080, Note_on_c, 2, 69, 100
4, 6116, Note_on_c, 2, 69, 0
4, 6120, Note_on_c, 2, 68, 100
4, 6156, Note_on_c, 2, 68, 0
4, 6160, Note_on_c, 2, 69, 100
4, 6196, Note_on_c, 2, 69, 0
4, 6200, Note_on_c, 2, 71, 100
4, 6236, Note_on_c, 2, 71, 0
4, 6240, Note_on_c, 2, 64, 100
4, 6402, Note_on_c, 2, 64, 0
4, 6420, Note_on_c, 2, 66, 100
4, 6447, Note_on_c, 2, 66, 0
4, 6450, Note_on_c, 2, 68, 100
4, 6477, Note_on_c, 2, 68, 0
4, 6480, Note_on_c, 2, 69, 100
4, 6516, Note_on_c, 2, 69, 0
4, 6520, Note_on_c, 2, 71, 100
4, 6556, Note_on_c, 2, 71, 0
4, 6560, Note_on_c, 2, 72, 100
4, 6596, Note_on_c, 2, 72, 0
4, 6600, Note_on_c, 2, 74, 100
4, 6636, Note_on_c, 2, 74, 0
4, 6640, Note_on_c, 2, 76, 100
4, 6676, Note_on_c, 2, 76, 0
4, 6680, Note_on_c, 2, 77, 100
4, 6716, Note_on_c, 2, 77, 0
4, 6720, Note_on_c, 2, 76, 100
4, 6756, Note_on_c, 2, 76, 0
4, 6760, Note_on_c, 2, 74, 100
4, 6796, Note_on_c, 2, 74, 0
4, 6800, Note_on_c, 2, 72, 100
4, 6836, Note_on_c, 2, 72, 0
4, 6840, Note_on_c, 2, 71, 100
4, 6876, Note_on_c, 2, 71, 0
4, 6880, Note_on_c, 2, 72, 100
4, 6916, Note_on_c, 2, 72, 0
4, 6920, Note_on_c, 2, 69, 100
4, 6956, Note_on_c, 2, 69, 0
4, 6960, Note_on_c, 2, 64, 100
4, 7041, Note_on_c, 2, 64, 0
4, 7050, Note_on_c, 2, 69, 100
4, 7077, Note_on_c, 2, 69, 0
4, 7080, Note_on_c, 2, 71, 100
4, 7161, Note_on_c, 2, 71, 0
4, 7170, Note_on_c, 2, 68, 100
4, 7197, Note_on_c, 2, 68, 0
4, 7200, Note_on_c, 2, 69, 100
4, 7281, Note_on_c, 2, 69, 0
4, 7290, Note_on_c, 2, 57, 100
4, 7317, Note_on_c, 2, 57, 0
4, 7320, Note_on_c, 2, 65, 100
4, 7356, Note_on_c, 2, 65, 0
4, 7360, Note_on_c, 2, 64, 100
4, 7396, Note_on_c, 2, 64, 0
4, 7400, Note_on_c, 2, 62, 100
4, 7436, Note_on_c, 2, 62, 0
4, 7440, Note_on_c, 2, 60, 100
4, 7548, Note_on_c, 2, 60, 0
4, 7560, Note_on_c, 2, 59, 100
4, 7668, Note_on_c, 2, 59, 0
4, 7680, Note_on_c, 2, 57, 100
4, 7896, Note_on_c, 2, 57, 0
4, 8280, Note_on_c, 2, 64, 100
4, 8388, Note_on_c, 2, 64, 0
4, 8400, Note_on_c, 2, 69, 100
4, 8436, Note_on_c, 2, 69, 0
4, 8440, Note_on_c, 2, 71, 100
4, 8476, Note_on_c, 2, 71, 0
4, 8480, Note_on_c, 2, 72, 100
4, 8516, Note_on_c, 2, 72, 0
4, 8520, Note_on_c, 2, 71, 100
4, 8556, Note_on_c, 2, 71, 0
4, 8560, Note_on_c, 2, 69, 100
4, 8596, Note_on_c, 2, 69, 0
4, 8600, Note_on_c, 2, 68, 100
4, 8636, Note_on_c, 2, 68, 0
4, 8640, Note_on_c, 2, 69, 100
4, 8748, Note_on_c, 2, 69, 0
4, 9240, Note_on_c, 2, 76, 100
4, 9348, Note_on_c, 2, 76, 0
4, 9360, Note_on_c, 2, 81, 100
4, 9468, Note_on_c, 2, 81, 0
4, 9480, Note_on_c, 2, 80, 100
4, 9588, Note_on_c, 2, 80, 0
4, 9600, Note_on_c, 2, 81, 100
4, 9708, Note_on_c, 2, 81, 0
4, 12600, Note_on_c, 2, 69, 100
4, 12708, Note_on_c, 2, 69, 0
4, 12720, Note_on_c, 2, 68, 100
4, 12828, Note_on_c, 2, 68, 0
4, 12840, Note_on_c, 2, 69, 100
4, 12948, Note_on_c, 2, 69, 0
4, 12960, Note_on_c, 2, 64, 100
4, 13068, Note_on_c, 2, 64, 0
4, 13080, Note_on_c, 2, 69, 100
4, 13116, Note_on_c, 2, 69, 0
4, 13120, Note_on_c, 2, 71, 100
4, 13156, Note_on_c, 2, 71, 0
4, 13160, Note_on_c, 2, 72, 100
4, 13196, Note_on_c, 2, 72, 0
4, 13200, Note_on_c, 2, 71, 100
4, 13236, Note_on_c, 2, 71, 0
4, 13240, Note_on_c, 2, 76, 100
4, 13276, Note_on_c, 2, 76, 0
4, 13280, Note_on_c, 2, 74, 100
4, 13316, Note_on_c, 2, 74, 0
4, 13320, Note_on_c, 2, 72, 100
4, 13356, Note_on_c, 2, 72, 0
4, 13360, Note_on_c, 2, 71, 100
4, 13396, Note_on_c, 2, 71, 0
4, 13400, Note_on_c, 2, 69, 100
4, 13436, Note_on_c, 2, 69, 0
4, 13440, Note_on_c, 2, 68, 100
4, 13548, Note_on_c, 2, 68, 0
4, 13560, Note_on_c, 2, 60, 100
4, 13668, Note_on_c, 2, 60, 0
4, 13680, Note_on_c, 2, 62, 100
4, 13788, Note_on_c, 2, 62, 0
4, 13800, Note_on_c, 2, 60, 100
4, 13908, Note_on_c, 2, 60, 0
4, 13920, Note_on_c, 2, 64, 100
4, 14028, Note_on_c, 2, 64, 0
4, 14040, Note_on_c, 2, 57, 100
4, 14076, Note_on_c, 2, 57, 0
4, 14080, Note_on_c, 2, 59, 100
4, 14116, Note_on_c, 2, 59, 0
4, 14120, Note_on_c, 2, 60, 100
4, 14156, Note_on_c, 2, 60, 0
4, 14160, Note_on_c, 2, 59, 100
4, 14196, Note_on_c, 2, 59, 0
4, 14200, Note_on_c, 2, 64, 100
4, 14236, Note_on_c, 2, 64, 0
4, 14240, Note_on_c, 2, 62, 100
4, 14276, Note_on_c, 2, 62, 0
4, 14280, Note_on_c, 2, 60, 100
4, 14316, Note_on_c, 2, 60, 0
4, 14320, Note_on_c, 2, 59, 100
4, 14356, Note_on_c, 2, 59, 0
4, 14360, Note_on_c, 2, 57, 100
4, 14396, Note_on_c, 2, 57, 0
4, 14400, Note_on_c, 2, 56, 100
4, 14508, Note_on_c, 2, 56, 0
4, 14760, Note_on_c, 2, 80, 100
4, 14868, Note_on_c, 2, 80, 0
4, 14880, Note_on_c, 2, 76, 100
4, 14988, Note_on_c, 2, 76, 0
4, 15240, Note_on_c, 2, 76, 100
4, 15348, Note_on_c, 2, 76, 0
4, 15360, Note_on_c, 2, 74, 100
4, 15468, Note_on_c, 2, 74, 0
4, 15720, Note_on_c, 2, 78, 100
4, 15828, Note_on_c, 2, 78, 0
4, 15840, Note_on_c, 2, 74, 100
4, 15948, Note_on_c, 2, 74, 0
4, 16200, Note_on_c, 2, 74, 100
4, 16308, Note_on_c, 2, 74, 0
4, 16320, Note_on_c, 2, 72, 100
4, 16401, Note_on_c, 2, 72, 0
4, 16410, Note_on_c, 2, 76, 100
4, 16437, Note_on_c, 2, 76, 0
4, 16440, Note_on_c, 2, 72, 100
4, 16521, Note_on_c, 2, 72, 0
4, 16530, Note_on_c, 2, 76, 100
4, 16557, Note_on_c, 2, 76, 0
4, 16560, Note_on_c, 2, 69, 100
4, 16641, Note_on_c, 2, 69, 0
4, 16650, Note_on_c, 2, 76, 100
4, 16677, Note_on_c, 2, 76, 0
4, 16680, Note_on_c, 2, 66, 100
4, 16761, Note_on_c, 2, 66, 0
4, 16770, Note_on_c, 2, 76, 100
4, 16797, Note_on_c, 2, 76, 0
4, 16800, Note_on_c, 2, 74, 100
4, 16836, Note_on_c, 2, 74, 0
4, 16840, Note_on_c, 2, 72, 100
4, 16876, Note_on_c, 2, 72, 0
4, 16880, Note_on_c, 2, 74, 100
4, 16916, Note_on_c, 2, 74, 0
4, 16920, Note_on_c, 2, 71, 100
4, 17001, Note_on_c, 2, 71, 0
4, 17010, Note_on_c, 2, 74, 100
4, 17037, Note_on_c, 2, 74, 0
4, 17040, Note_on_c, 2, 68, 100
4, 17121, Note_on_c, 2, 68, 0
4, 17130, Note_on_c, 2, 74, 100
4, 17157, Note_on_c, 2, 74, 0
4, 17160, Note_on_c, 2, 64, 100
4, 17241, Note_on_c, 2, 64, 0
4, 17250, Note_on_c, 2, 74, 100
4, 17277, Note_on_c, 2, 74, 0
4, 17280, Note_on_c, 2, 72, 100
4, 17316, Note_on_c, 2, 72, 0
4, 17320, Note_on_c, 2, 71, 100
4, 17356, Note_on_c, 2, 71, 0
4, 17360, Note_on_c, 2, 69, 100
4, 17396, Note_on_c, 2, 69, 0
4, 17400, Note_on_c, 2, 84, 100
4, 17436, Note_on_c, 2, 84, 0
4, 17440, Note_on_c, 2, 83, 100
4, 17476, Note_on_c, 2, 83, 0
4, 17480, Note_on_c, 2, 81, 100
4, 17516, Note_on_c, 2, 81, 0
4, 17520, Note_on_c, 2, 79, 100
4, 17556, Note_on_c, 2, 79, 0
4, 17560, Note_on_c, 2, 78, 100
4, 17596, Note_on_c, 2, 78, 0
4, 17600, Note_on_c, 2, 76, 100
4, 17636, Note_on_c, 2, 76, 0
4, 17640, Note_on_c, 2, 75, 100
4, 17676, Note_on_c, 2, 75, 0
4, 17680, Note_on_c, 2, 76, 100
4, 17716, Note_on_c, 2, 76, 0
4, 17720, Note_on_c, 2, 78, 100
4, 17756, Note_on_c, 2, 78, 0
4, 17760, Note_on_c, 2, 71, 100
4, 17922, Note_on_c, 2, 71, 0
4, 17940, Note_on_c, 2, 73, 100
4, 17967, Note_on_c, 2, 73, 0
4, 17970, Note_on_c, 2, 75, 100
4, 17997, Note_on_c, 2, 75, 0
4, 18000, Note_on_c, 2, 76, 100
4, 18036, Note_on_c, 2, 76, 0
4, 18040, Note_on_c, 2, 78, 100
4, 18076, Note_on_c, 2, 78, 0
4, 18080, Note_on_c, 2, 79, 100
4, 18116, Note_on_c, 2, 79, 0
4, 18120, Note_on_c, 2, 81, 100
4, 18156, Note_on_c, 2, 81, 0
4, 18160, Note_on_c, 2, 83, 100
4, 18196, Note_on_c, 2, 83, 0
4, 18200, Note_on_c, 2, 84, 100
4, 18236, Note_on_c, 2, 84, 0
4, 18240, Note_on_c, 2, 83, 100
4, 18276, Note_on_c, 2, 83, 0
4, 18280, Note_on_c, 2, 81, 100
4, 18316, Note_on_c, 2, 81, 0
4, 18320, Note_on_c, 2, 79, 100
4, 18356, Note_on_c, 2, 79, 0
4, 18360, Note_on_c, 2, 78, 100
4, 18396, Note_on_c, 2, 78, 0
4, 18400, Note_on_c, 2, 79, 100
4, 18436, Note_on_c, 2, 79, 0
4, 18440, Note_on_c, 2, 76, 100
4, 18476, Note_on_c, 2, 76, 0
4, 18480, Note_on_c, 2, 71, 100
4, 18561, Note_on_c, 2, 71, 0
4, 18570, Note_on_c, 2, 76, 100
4, 18597, Note_on_c, 2, 76, 0
4, 18600, Note_on_c, 2, 78, 100
4, 18681, Note_on_c, 2, 78, 0
4, 18690, Note_on_c, 2, 75, 100
4, 18717, Note_on_c, 2, 75, 0
4, 18720, Note_on_c, 2, 76, 100
4, 18801, Note_on_c, 2, 76, 0
4, 18810, Note_on_c, 2, 64, 100
4, 18837, Note_on_c, 2, 64, 0
4, 18840, Note_on_c, 2, 72, 100
4, 18876, Note_on_c, 2, 72, 0
4, 18880, Note_on_c, 2, 71, 100
4, 18916, Note_on_c, 2, 71, 0
4, 18920, Note_on_c, 2, 69, 100
4, 18956, Note_on_c, 2, 69, 0
4, 18960, Note_on_c, 2, 67, 100
4, 19068, Note_on_c, 2, 67, 0
4, 19080, Note_on_c, 2, 66, 100
4, 19188, Note_on_c, 2, 66, 0
4, 19200, Note_on_c, 2, 64, 100
4, 19308, Note_on_c, 2, 64, 0
4, 19800, Note_on_c, 2, 59, 100
4, 19908, Note_on_c, 2, 59, 0
4, 19920, Note_on_c, 2, 64, 100
4, 19956, Note_on_c, 2, 64, 0
4, 19960, Note_on_c, 2, 66, 100
4, 19996, Note_on_c, 2, 66, 0
4, 20000, Note_on_c, 2, 67, 100
4, 20036, Note_on_c, 2, 67, 0
4, 20040, Note_on_c, 2, 66, 100
4, 20076, Note_on_c, 2, 66, 0
4, 20080, Note_on_c, 2, 64, 100
4, 20116, Note_on_c, 2, 64, 0
4, 20120, Note_on_c, 2, 63, 100
4, 20156, Note_on_c, 2, 63, 0
4, 20160, Note_on_c, 2, 64, 100
4, 20268, Note_on_c, 2, 64, 0
4, 20760, Note_on_c, 2, 71, 100
4, 20868, Note_on_c, 2, 71, 0
4, 20880, Note_on_c, 2, 76, 100
4, 20988, Note_on_c, 2, 76, 0
4, 21000, Note_on_c, 2, 75, 100
4, 21108, Note_on_c, 2, 75, 0
4, 21120, Note_on_c, 2, 76, 100
4, 21228, Note_on_c, 2, 76, 0
4, 21480, Note_on_c, 2, 71, 100
4, 21588, Note_on_c, 2, 71, 0
4, 21600, Note_on_c, 2, 72, 100
4, 21708, Note_on_c, 2, 72, 0
4, 21960, Note_on_c, 2, 69, 100
4, 22068, Note_on_c, 2, 69, 0
4, 22080, Note_on_c, 2, 71, 100
4, 22188, Note_on_c, 2, 71, 0
4, 23700, Note_on_c, 2, 76, 100
4, 23754, Note_on_c, 2, 76, 0
4, 23760, Note_on_c, 2, 75, 100
4, 23841, Note_on_c, 2, 75, 0
4, 23850, Note_on_c, 2, 78, 100
4, 23877, Note_on_c, 2, 78, 0
4, 23880, Note_on_c, 2, 71, 100
4, 23961, Note_on_c, 2, 71, 0
4, 23970, Note_on_c, 2, 78, 100
4, 23997, Note_on_c, 2, 78, 0
4, 24000, Note_on_c, 2, 79, 100
4, 24864, Note_on_c, 2, 79, 0
4, 24960, Note_on_c, 2, 77, 100
4, 25824, Note_on_c, 2, 77, 0
4, 25920, Note_on_c, 2, 76, 100
4, 26028, Note_on_c, 2, 76, 0
4, 26400, Note_on_c, 2, 79, 100
4, 26508, Note_on_c, 2, 79, 0
4, 26880, Note_on_c, 2, 81, 100
4, 26988, Note_on_c, 2, 81, 0
4, 27360, Note_on_c, 2, 69, 100
4, 27468, Note_on_c, 2, 69, 0
4, 27840, Note_on_c, 2, 68, 100
4, 27948, Note_on_c, 2, 68, 0
4, 28320, Note_on_c, 2, 71, 100
4, 28428, Note_on_c, 2, 71, 0
4, 28800, Note_on_c, 2, 74, 100
4, 28908, Note_on_c, 2, 74, 0
4, 29400, Note_on_c, 2, 81, 100
4, 29508, Note_on_c, 2, 81, 0
4, 29520, Note_on_c, 2, 71, 100
4, 29628, Note_on_c, 2, 71, 0
4, 29640, Note_on_c, 2, 80, 100
4, 29748, Note_on_c, 2, 80, 0
4, 29760, Note_on_c, 2, 69, 100
4, 29868, Note_on_c, 2, 69, 0
4, 30120, Note_on_c, 2, 67, 100
4, 30228, Note_on_c, 2, 67, 0
4, 30240, Note_on_c, 2, 65, 100
4, 30348, Note_on_c, 2, 65, 0
4, 30600, Note_on_c, 2, 64, 100
4, 30708, Note_on_c, 2, 64, 0
4, 30720, Note_on_c, 2, 62, 100
4, 30828, Note_on_c, 2, 62, 0
4, 31080, Note_on_c, 2, 74, 100
4, 31161, Note_on_c, 2, 74, 0
4, 31170, Note_on_c, 2, 72, 100
4, 31197, Note_on_c, 2, 72, 0
4, 31200, Note_on_c, 2, 74, 100
4, 31308, Note_on_c, 2, 74, 0
4, 31560, Note_on_c, 2, 74, 100
4, 31641, Note_on_c, 2, 74, 0
4, 31650, Note_on_c, 2, 72, 100
4, 31677, Note_on_c, 2, 72, 0
4, 31680, Note_on_c, 2, 74, 100
4, 31788, Note_on_c, 2, 74, 0
4, 32040, Note_on_c, 2, 71, 100
4, 32076, Note_on_c, 2, 71, 0
4, 32080, Note_on_c, 2, 72, 100
4, 32116, Note_on_c, 2, 72, 0
4, 32120, Note_on_c, 2, 74, 100
4, 32156, Note_on_c, 2, 74, 0
4, 32160, Note_on_c, 2, 76, 100
4, 32196, Note_on_c, 2, 76, 0
4, 32200, Note_on_c, 2, 78, 100
4, 32236, Note_on_c, 2, 78, 0
4, 32240, Note_on_c, 2, 80, 100
4, 32276, Note_on_c, 2, 80, 0
4, 32280, Note_on_c, 2, 81, 100
4, 32316, Note_on_c, 2, 81, 0
4, 32320, Note_on_c, 2, 79, 100
4, 32356, Note_on_c, 2, 79, 0
4, 32360, Note_on_c, 2, 77, 100
4, 32396, Note_on_c, 2, 77, 0
4, 32400, Note_on_c, 2, 76, 100
4, 32436, Note_on_c, 2, 76, 0
4, 32440, Note_on_c, 2, 74, 100
4, 32476, Note_on_c, 2, 74, 0
4, 32480, Note_on_c, 2, 72, 100
4, 32516, Note_on_c, 2, 72, 0
4, 32520, Note_on_c, 2, 71, 100
4, 32556, Note_on_c, 2, 71, 0
4, 32560, Note_on_c, 2, 72, 100
4, 32596, Note_on_c, 2, 72, 0
4, 32600, Note_on_c, 2, 74, 100
4, 32636, Note_on_c, 2, 74, 0
4, 32640, Note_on_c, 2, 72, 100
4, 32676, Note_on_c, 2, 72, 0
4, 32680, Note_on_c, 2, 69, 100
4, 32716, Note_on_c, 2, 69, 0
4, 32720, Note_on_c, 2, 69, 100
4, 32756, Note_on_c, 2, 69, 0
4, 32760, Note_on_c, 2, 70, 100
4, 32796, Note_on_c, 2, 70, 0
4, 32800, Note_on_c, 2, 68, 100
4, 32836, Note_on_c, 2, 68, 0
4, 32840, Note_on_c, 2, 69, 100
4, 32876, Note_on_c, 2, 69, 0
4, 32880, Note_on_c, 2, 70, 100
4, 32916, Note_on_c, 2, 70, 0
4, 32920, Note_on_c, 2, 68, 100
4, 32956, Note_on_c, 2, 68, 0
4, 32960, Note_on_c, 2, 69, 100
4, 32996, Note_on_c, 2, 69, 0
4, 33000, Note_on_c, 2, 70, 100
4, 33036, Note_on_c, 2, 70, 0
4, 33040, Note_on_c, 2, 68, 100
4, 33076, Note_on_c, 2, 68, 0
4, 33080, Note_on_c, 2, 69, 100
4, 33116, Note_on_c, 2, 69, 0
4, 33120, Note_on_c, 2, 61, 100
4, 33156, Note_on_c, 2, 61, 0
4, 33160, Note_on_c, 2, 62, 100
4, 33196, Note_on_c, 2, 62, 0
4, 33200, Note_on_c, 2, 64, 100
4, 33236, Note_on_c, 2, 64, 0
4, 33240, Note_on_c, 2, 62, 100
4, 33276, Note_on_c, 2, 62, 0
4, 33280, Note_on_c, 2, 64, 100
4, 33316, Note_on_c, 2, 64, 0
4, 33320, Note_on_c, 2, 65, 100
4, 33356, Note_on_c, 2, 65, 0
4, 33360, Note_on_c, 2, 64, 100
4, 33396, Note_on_c, 2, 64, 0
4, 33400, Note_on_c, 2, 69, 100
4, 33436, Note_on_c, 2, 69, 0
4, 33440, Note_on_c, 2, 67, 100
4, 33476, Note_on_c, 2, 67, 0
4, 33480, Note_on_c, 2, 65, 100
4, 33516, Note_on_c, 2, 65, 0
4, 33520, Note_on_c, 2, 64, 100
4, 33556, Note_on_c, 2, 64, 0
4, 33560, Note_on_c, 2, 62, 100
4, 33596, Note_on_c, 2, 62, 0
4, 33600, Note_on_c, 2, 61, 100
4, 33708, Note_on_c, 2, 61, 0
4, 33720, Note_on_c, 2, 74, 100
4, 33828, Note_on_c, 2, 74, 0
4, 33840, Note_on_c, 2, 73, 100
4, 33948, Note_on_c, 2, 73, 0
4, 33960, Note_on_c, 2, 74, 100
4, 34068, Note_on_c, 2, 74, 0
4, 34080, Note_on_c, 2, 69, 100
4, 34188, Note_on_c, 2, 69, 0
4, 34200, Note_on_c, 2, 69, 100
4, 34308, Note_on_c, 2, 69, 0
4, 34320, Note_on_c, 2, 64, 100
4, 34428, Note_on_c, 2, 64, 0
4, 34440, Note_on_c, 2, 62, 100
4, 34548, Note_on_c, 2, 62, 0
4, 34560, Note_on_c, 2, 64, 100
4, 34668, Note_on_c, 2, 64, 0
4, 34920, Note_on_c, 2, 73, 100
4, 35028, Note_on_c, 2, 73, 0
4, 35040, Note_on_c, 2, 74, 100
4, 35148, Note_on_c, 2, 74, 0
4, 35400, Note_on_c, 2, 69, 100
4, 35508, Note_on_c, 2, 69, 0
4, 35520, Note_on_c, 2, 67, 100
4, 35628, Note_on_c, 2, 67, 0
4, 35880, Note_on_c, 2, 74, 100
4, 35988, Note_on_c, 2, 74, 0
4, 36000, Note_on_c, 2, 76, 100
4, 36108, Note_on_c, 2, 76, 0
4, 36360, Note_on_c, 2, 76, 100
4, 36468, Note_on_c, 2, 76, 0
4, 36480, Note_on_c, 2, 77, 100
4, 36642, Note_on_c, 2, 77, 0
4, 36660, Note_on_c, 2, 81, 100
4, 36714, Note_on_c, 2, 81, 0
4, 36720, Note_on_c, 2, 74, 100
4, 36801, Note_on_c, 2, 74, 0
4, 36810, Note_on_c, 2, 81, 100
4, 36837, Note_on_c, 2, 81, 0
4, 36840, Note_on_c, 2, 71, 100
4, 36921, Note_on_c, 2, 71, 0
4, 36930, Note_on_c, 2, 81, 100
4, 36957, Note_on_c, 2, 81, 0
4, 36960, Note_on_c, 2, 79, 100
4, 36996, Note_on_c, 2, 79, 0
4, 37000, Note_on_c, 2, 77, 100
4, 37036, Note_on_c, 2, 77, 0
4, 37040, Note_on_c, 2, 79, 100
4, 37076, Note_on_c, 2, 79, 0
4, 37080, Note_on_c, 2, 76, 100
4, 37161, Note_on_c, 2, 76, 0
4, 37170, Note_on_c, 2, 79, 100
4, 37197, Note_on_c, 2, 79, 0
4, 37200, Note_on_c, 2, 73, 100
4, 37281, Note_on_c, 2, 73, 0
4, 37290, Note_on_c, 2, 79, 100
4, 37317, Note_on_c, 2, 79, 0
4, 37320, Note_on_c, 2, 69, 100
4, 37401, Note_on_c, 2, 69, 0
4, 37410, Note_on_c, 2, 79, 100
4, 37437, Note_on_c, 2, 79, 0
4, 37440, Note_on_c, 2, 77, 100
4, 37476, Note_on_c, 2, 77, 0
4, 37480, Note_on_c, 2, 81, 100
4, 37516, Note_on_c, 2, 81, 0
4, 37520, Note_on_c, 2, 79, 100
4, 37556, Note_on_c, 2, 79, 0
4, 37560, Note_on_c, 2, 77, 100
4, 37596, Note_on_c, 2, 77, 0
4, 37600, Note_on_c, 2, 76, 100
4, 37636, Note_on_c, 2, 76, 0
4, 37640, Note_on_c, 2, 74, 100
4, 37676, Note_on_c, 2, 74, 0
4, 37680, Note_on_c, 2, 72, 100
4, 37716, Note_on_c, 2, 72, 0
4, 37720, Note_on_c, 2, 71, 100
4, 37756, Note_on_c, 2, 71, 0
4, 37760, Note_on_c, 2, 69, 100
4, 37796, Note_on_c, 2, 69, 0
4, 37800, Note_on_c, 2, 68, 100
4, 37836, Note_on_c, 2, 68, 0
4, 37840, Note_on_c, 2, 69, 100
4, 37876, Note_on_c, 2, 69, 0
4, 37880, Note_on_c, 2, 71, 100
4, 37916, Note_on_c, 2, 71, 0
4, 37920, Note_on_c, 2, 64, 100
4, 38082, Note_on_c, 2, 64, 0
4, 38100, Note_on_c, 2, 66, 100
4, 38127, Note_on_c, 2, 66, 0
4, 38130, Note_on_c, 2, 68, 100
4, 38157, Note_on_c, 2, 68, 0
4, 38160, Note_on_c, 2, 69, 100
4, 38196, Note_on_c, 2, 69, 0
4, 38200, Note_on_c, 2, 71, 100
4, 38236, Note_on_c, 2, 71, 0
4, 38240, Note_on_c, 2, 72, 100
4, 38276, Note_on_c, 2, 72, 0
4, 38280, Note_on_c, 2, 74, 100
4, 38316, Note_on_c, 2, 74, 0
4, 38320, Note_on_c, 2, 76, 100
4, 38356, Note_on_c, 2, 76, 0
4, 38360, Note_on_c, 2, 77, 100
4, 38396, Note_on_c, 2, 77, 0
4, 38400, Note_on_c, 2, 76, 100
4, 38436, Note_on_c, 2, 76, 0
4, 38440, Note_on_c, 2, 74, 100
4, 38476, Note_on_c, 2, 74, 0
4, 38480, Note_on_c, 2, 72, 100
4, 38516, Note_on_c, 2, 72, 0
4, 38520, Note_on_c, 2, 71, 100
4, 38556, Note_on_c, 2, 71, 0
4, 38560, Note_on_c, 2, 72, 100
4, 38596, Note_on_c, 2, 72, 0
4, 38600, Note_on_c, 2, 69, 100
4, 38636, Note_on_c, 2, 69, 0
4, 38640, Note_on_c, 2, 64, 100
4, 38721, Note_on_c, 2, 64, 0
4, 38730, Note_on_c, 2, 69, 100
4, 38757, Note_on_c, 2, 69, 0
4, 38760, Note_on_c, 2, 71, 100
4, 38841, Note_on_c, 2, 71, 0
4, 38850, Note_on_c, 2, 68, 100
4, 38877, Note_on_c, 2, 68, 0
4, 38880, Note_on_c, 2, 69, 100
4, 38961, Note_on_c, 2, 69, 0
4, 38970, Note_on_c, 2, 57, 100
4, 38997, Note_on_c, 2, 57, 0
4, 39000, Note_on_c, 2, 65, 100
4, 39036, Note_on_c, 2, 65, 0
4, 39040, Note_on_c, 2, 64, 100
4, 39076, Note_on_c, 2, 64, 0
4, 39080, Note_on_c, 2, 62, 100
4, 39116, Note_on_c, 2, 62, 0
4, 39120, Note_on_c, 2, 60, 100
4, 39228, Note_on_c, 2, 60, 0
4, 39240, Note_on_c, 2, 59, 100
4, 39348, Note_on_c, 2, 59, 0
4, 39360, Note_on_c, 2, 57, 100
4, 39468, Note_on_c, 2, 57, 0
4, 44760, Note_on_c, 2, 71, 100
4, 44868, Note_on_c, 2, 71, 0
4, 45000, Note_on_c, 2, 72, 100
4, 45108, Note_on_c, 2, 72, 0
4, 45240, Note_on_c, 2, 74, 100
4, 45348, Note_on_c, 2, 74, 0
4, 45480, Note_on_c, 2, 76, 100
4, 45588, Note_on_c, 2, 76, 0
4, 45720, Note_on_c, 2, 77, 100
4, 45828, Note_on_c, 2, 77, 0
4, 45960, Note_on_c, 2, 71, 100
4, 46068, Note_on_c, 2, 71, 0
4, 46080, Note_on_c, 2, 72, 100
4, 46188, Note_on_c, 2, 72, 0
4, 48600, Note_on_c, 2, 67, 100
4, 48708, Note_on_c, 2, 67, 0
4, 48720, Note_on_c, 2, 72, 100
4, 48828, Note_on_c, 2, 72, 0
4, 48840, Note_on_c, 2, 71, 100
4, 48948, Note_on_c, 2, 71, 0
4, 48960, Note_on_c, 2, 55, 100
4, 50028, Note_on_c, 2, 55, 0
4, 50280, Note_on_c, 2, 67, 100
4, 50388, Note_on_c, 2, 67, 0
4, 50400, Note_on_c, 2, 69, 100
4, 50508, Note_on_c, 2, 69, 0
4, 50760, Note_on_c, 2, 69, 100
4, 50868, Note_on_c, 2, 69, 0
4, 50880, Note_on_c, 2, 71, 100
4, 50988, Note_on_c, 2, 71, 0
4, 51240, Note_on_c, 2, 71, 100
4, 51348, Note_on_c, 2, 71, 0
4, 51360, Note_on_c, 2, 72, 100
4, 51468, Note_on_c, 2, 72, 0
4, 53880, Note_on_c, 2, 76, 100
4, 53988, Note_on_c, 2, 76, 0
4, 54000, Note_on_c, 2, 76, 100
4, 54108, Note_on_c, 2, 76, 0
4, 54120, Note_on_c, 2, 76, 100
4, 54228, Note_on_c, 2, 76, 0
4, 54360, Note_on_c, 2, 76, 100
4, 54468, Note_on_c, 2, 76, 0
4, 54480, Note_on_c, 2, 76, 100
4, 54588, Note_on_c, 2, 76, 0
4, 54600, Note_on_c, 2, 76, 100
4, 54708, Note_on_c, 2, 76, 0
4, 54840, Note_on_c, 2, 78, 100
4, 54948, Note_on_c, 2, 78, 0
4, 54960, Note_on_c, 2, 78, 100
4, 55068, Note_on_c, 2, 78, 0
4, 55080, Note_on_c, 2, 78, 100
4, 55188, Note_on_c, 2, 78, 0
4, 55320, Note_on_c, 2, 78, 100
4, 55428, Note_on_c, 2, 78, 0
4, 55440, Note_on_c, 2, 78, 100
4, 55548, Note_on_c, 2, 78, 0
4, 55560, Note_on_c, 2, 78, 100
4, 55668, Note_on_c, 2, 78, 0
4, 55680, Note_on_c, 2, 79, 100
4, 55788, Note_on_c, 2, 79, 0
4, 57240, Note_on_c, 2, 72, 100
4, 57276, Note_on_c, 2, 72, 0
4, 57280, Note_on_c, 2, 71, 100
4, 57316, Note_on_c, 2, 71, 0
4, 57320, Note_on_c, 2, 69, 100
4, 57356, Note_on_c, 2, 69, 0
4, 57360, Note_on_c, 2, 69, 100
4, 57396, Note_on_c, 2, 69, 0
4, 57400, Note_on_c, 2, 67, 100
4, 57436, Note_on_c, 2, 67, 0
4, 57440, Note_on_c, 2, 66, 100
4, 57476, Note_on_c, 2, 66, 0
4, 57480, Note_on_c, 2, 66, 100
4, 57516, Note_on_c, 2, 66, 0
4, 57520, Note_on_c, 2, 67, 100
4, 57556, Note_on_c, 2, 67, 0
4, 57560, Note_on_c, 2, 69, 100
4, 57596, Note_on_c, 2, 69, 0
4, 57600, Note_on_c, 2, 59, 100
4, 57708, Note_on_c, 2, 59, 0
4, 57960, Note_on_c, 2, 74, 100
4, 58068, Note_on_c, 2, 74, 0
4, 58080, Note_on_c, 2, 72, 100
4, 58188, Note_on_c, 2, 72, 0
4, 58320, Note_on_c, 2, 76, 100
4, 58428, Note_on_c, 2, 76, 0
4, 58560, Note_on_c, 2, 69, 100
4, 58668, Note_on_c, 2, 69, 0
4, 58800, Note_on_c, 2, 72, 100
4, 58908, Note_on_c, 2, 72, 0
4, 59040, Note_on_c, 2, 66, 100
4, 59148, Note_on_c, 2, 66, 0
4, 59280, Note_on_c, 2, 63, 100
4, 59388, Note_on_c, 2, 63, 0
4, 59520, Note_on_c, 2, 72, 100
4, 60384, Note_on_c, 2, 72, 0
4, 60480, Note_on_c, 2, 71, 100
4, 60696, Note_on_c, 2, 71, 0
4, 61050, Note_on_c, 2, 75, 100
4, 61077, Note_on_c, 2, 75, 0
4, 61080, Note_on_c, 2, 76, 100
4, 61161, Note_on_c, 2, 76, 0
4, 61170, Note_on_c, 2, 78, 100
4, 61197, Note_on_c, 2, 78, 0
4, 61200, Note_on_c, 2, 71, 100
4, 61308, Note_on_c, 2, 71, 0
4, 61320, Note_on_c, 2, 75, 100
4, 61428, Note_on_c, 2, 75, 0
4, 61440, Note_on_c, 2, 76, 100
4, 61548, Note_on_c, 2, 76, 0
4, 64440, Note_on_c, 2, 72, 100
4, 64548, Note_on_c, 2, 72, 0
4, 64560, Note_on_c, 2, 72, 100
4, 64668, Note_on_c, 2, 72, 0
4, 64680, Note_on_c, 2, 72, 100
4, 64788, Note_on_c, 2, 72, 0
4, 64920, Note_on_c, 2, 71, 100
4, 65028, Note_on_c, 2, 71, 0
4, 65040, Note_on_c, 2, 71, 100
4, 65148, Note_on_c, 2, 71, 0
4, 65160, Note_on_c, 2, 71, 100
4, 65268, Note_on_c, 2, 71, 0
4, 65400, Note_on_c, 2, 69, 100
4, 65508, Note_on_c, 2, 69, 0
4, 65520, Note_on_c, 2, 69, 100
4, 65628, Note_on_c, 2, 69, 0
4, 65640, Note_on_c, 2, 69, 100
4, 65748, Note_on_c, 2, 69, 0
4, 65880, Note_on_c, 2, 76, 100
4, 65988, Note_on_c, 2, 76, 0
4, 66000, Note_on_c, 2, 76, 100
4, 66108, Note_on_c, 2, 76, 0
4, 66120, Note_on_c, 2, 76, 100
4, 66228, Note_on_c, 2, 76, 0
4, 66360, Note_on_c, 2, 72, 100
4, 66396, Note_on_c, 2, 72, 0
4, 66400, Note_on_c, 2, 71, 100
4, 66436, Note_on_c, 2, 71, 0
4, 66440, Note_on_c, 2, 69, 100
4, 66476, Note_on_c, 2, 69, 0
4, 66480, Note_on_c, 2, 67, 100
4, 66516, Note_on_c, 2, 67, 0
4, 66520, Note_on_c, 2, 66, 100
4, 66556, Note_on_c, 2, 66, 0
4, 66560, Note_on_c, 2, 64, 100
4, 66596, Note_on_c, 2, 64, 0
4, 66600, Note_on_c, 2, 63, 100
4, 66636, Note_on_c, 2, 63, 0
4, 66640, Note_on_c, 2, 64, 100
4, 66676, Note_on_c, 2, 64, 0
4, 66680, Note_on_c, 2, 66, 100
4, 66716, Note_on_c, 2, 66, 0
4, 66720, Note_on_c, 2, 59, 100
4, 66828, Note_on_c, 2, 59, 0
4, 67380, Note_on_c, 2, 78, 100
4, 67434, Note_on_c, 2, 78, 0
4, 67440, Note_on_c, 2, 79, 100
4, 67521, Note_on_c, 2, 79, 0
4, 67530, Note_on_c, 2, 76, 100
4, 67557, Note_on_c, 2, 76, 0
4, 67560, Note_on_c, 2, 71, 100
4, 67641, Note_on_c, 2, 71, 0
4, 67650, Note_on_c, 2, 75, 100
4, 67677, Note_on_c, 2, 75, 0
4, 67680, Note_on_c, 2, 76, 100
4, 67788, Note_on_c, 2, 76, 0
4, 68040, Note_on_c, 2, 76, 100
4, 68148, Note_on_c, 2, 76, 0
4, 68160, Note_on_c, 2, 76, 100
4, 68268, Note_on_c, 2, 76, 0
4, 68520, Note_on_c, 2, 76, 100
4, 68628, Note_on_c, 2, 76, 0
4, 68640, Note_on_c, 2, 78, 100
4, 68748, Note_on_c, 2, 78, 0
4, 69000, Note_on_c, 2, 78, 100
4, 69108, Note_on_c, 2, 78, 0
4, 69120, Note_on_c, 2, 78, 100
4, 69228, Note_on_c, 2, 78, 0
4, 69720, Note_on_c, 2, 84, 100
4, 69756, Note_on_c, 2, 84, 0
4, 69760, Note_on_c, 2, 83, 100
4, 69796, Note_on_c, 2, 83, 0
4, 69800, Note_on_c, 2, 81, 100
4, 69836, Note_on_c, 2, 81, 0
4, 69840, Note_on_c, 2, 79, 100
4, 69948, Note_on_c, 2, 79, 0
4, 69960, Note_on_c, 2, 78, 100
4, 70068, Note_on_c, 2, 78, 0
4, 70080, Note_on_c, 2, 76, 100
4, 70188, Note_on_c, 2, 76, 0
4, 71160, Note_on_c, 2, 69, 100
4, 71214, Note_on_c, 2, 69, 0
4, 71220, Note_on_c, 2, 71, 100
4, 71274, Note_on_c, 2, 71, 0
4, 71280, Note_on_c, 2, 72, 100
4, 71334, Note_on_c, 2, 72, 0
4, 71340, Note_on_c, 2, 76, 100
4, 71394, Note_on_c, 2, 76, 0
4, 71400, Note_on_c, 2, 74, 100
4, 71454, Note_on_c, 2, 74, 0
4, 71460, Note_on_c, 2, 71, 100
4, 71514, Note_on_c, 2, 71, 0
4, 71520, Note_on_c, 2, 72, 100
4, 71556, Note_on_c, 2, 72, 0
4, 71560, Note_on_c, 2, 71, 100
4, 71596, Note_on_c, 2, 71, 0
4, 71600, Note_on_c, 2, 69, 100
4, 71636, Note_on_c, 2, 69, 0
4, 71640, Note_on_c, 2, 81, 100
4, 71868, Note_on_c, 2, 81, 0
4, 71880, Note_on_c, 2, 80, 100
4, 71988, Note_on_c, 2, 80, 0
4, 72000, Note_on_c, 2, 81, 100
4, 72108, Note_on_c, 2, 81, 0
4, 72600, Note_on_c, 2, 79, 100
4, 72681, Note_on_c, 2, 79, 0
4, 72690, Note_on_c, 2, 77, 100
4, 72717, Note_on_c, 2, 77, 0
4, 72720, Note_on_c, 2, 76, 100
4, 72756, Note_on_c, 2, 76, 0
4, 72760, Note_on_c, 2, 74, 100
4, 72796, Note_on_c, 2, 74, 0
4, 72800, Note_on_c, 2, 72, 100
4, 72836, Note_on_c, 2, 72, 0
4, 72840, Note_on_c, 2, 74, 100
4, 72876, Note_on_c, 2, 74, 0
4, 72880, Note_on_c, 2, 76, 100
4, 72916, Note_on_c, 2, 76, 0
4, 72920, Note_on_c, 2, 77, 100
4, 72956, Note_on_c, 2, 77, 0
4, 72960, Note_on_c, 2, 76, 100
4, 72996, Note_on_c, 2, 76, 0
4, 73000, Note_on_c, 2, 74, 100
4, 73036, Note_on_c, 2, 74, 0
4, 73040, Note_on_c, 2, 72, 100
4, 73076, Note_on_c, 2, 72, 0
4, 75000, Note_on_c, 2, 74, 100
4, 75054, Note_on_c, 2, 74, 0
4, 75060, Note_on_c, 2, 76, 100
4, 75114, Note_on_c, 2, 76, 0
4, 75120, Note_on_c, 2, 77, 100
4, 75174, Note_on_c, 2, 77, 0
4, 75180, Note_on_c, 2, 81, 100
4, 75234, Note_on_c, 2, 81, 0
4, 75240, Note_on_c, 2, 79, 100
4, 75294, Note_on_c, 2, 79, 0
4, 75300, Note_on_c, 2, 76, 100
4, 75354, Note_on_c, 2, 76, 0
4, 75360, Note_on_c, 2, 77, 100
4, 75396, Note_on_c, 2, 77, 0
4, 75400, Note_on_c, 2, 76, 100
4, 75436, Note_on_c, 2, 76, 0
4, 75440, Note_on_c, 2, 74, 100
4, 75476, Note_on_c, 2, 74, 0
4, 75480, Note_on_c, 2, 77, 100
4, 75588, Note_on_c, 2, 77, 0
4, 75600, Note_on_c, 2, 71, 100
4, 75708, Note_on_c, 2, 71, 0
4, 75720, Note_on_c, 2, 73, 100
4, 75828, Note_on_c, 2, 73, 0
4, 75840, Note_on_c, 2, 74, 100
4, 76056, Note_on_c, 2, 74, 0
4, 76200, Note_on_c, 2, 69, 100
4, 76308, Note_on_c, 2, 69, 0
4, 76320, Note_on_c, 2, 67, 100
4, 76374, Note_on_c, 2, 67, 0
4, 76380, Note_on_c, 2, 69, 100
4, 76434, Note_on_c, 2, 69, 0
4, 76440, Note_on_c, 2, 70, 100
4, 76494, Note_on_c, 2, 70, 0
4, 76500, Note_on_c, 2, 72, 100
4, 76554, Note_on_c, 2, 72, 0
4, 76560, Note_on_c, 2, 74, 100
4, 76614, Note_on_c, 2, 74, 0
4, 76620, Note_on_c, 2, 77, 100
4, 76674, Note_on_c, 2, 77, 0
4, 76680, Note_on_c, 2, 76, 100
4, 76734, Note_on_c, 2, 76, 0
4, 76740, Note_on_c, 2, 74, 100
4, 76794, Note_on_c, 2, 74, 0
4, 76800, Note_on_c, 2, 81, 100
4, 76962, Note_on_c, 2, 81, 0
4, 76980, Note_on_c, 2, 79, 100
4, 77007, Note_on_c, 2, 79, 0
4, 77010, Note_on_c, 2, 77, 100
4, 77037, Note_on_c, 2, 77, 0
4, 77040, Note_on_c, 2, 76, 100
4, 77148, Note_on_c, 2, 76, 0
4, 77160, Note_on_c, 2, 81, 100
4, 77268, Note_on_c, 2, 81, 0
4, 77280, Note_on_c, 2, 77, 100
4, 77388, Note_on_c, 2, 77, 0
4, 77640, Note_on_c, 2, 69, 100
4, 77748, Note_on_c, 2, 69, 0
4, 77760, Note_on_c, 2, 70, 100
4, 77868, Note_on_c, 2, 70, 0
4, 78120, Note_on_c, 2, 69, 100
4, 78228, Note_on_c, 2, 69, 0
4, 78240, Note_on_c, 2, 67, 100
4, 78348, Note_on_c, 2, 67, 0
4, 78360, Note_on_c, 2, 62, 100
4, 78468, Note_on_c, 2, 62, 0
4, 78480, Note_on_c, 2, 67, 100
4, 78588, Note_on_c, 2, 67, 0
4, 78600, Note_on_c, 2, 66, 100
4, 78708, Note_on_c, 2, 66, 0
4, 78720, Note_on_c, 2, 67, 100
4, 78774, Note_on_c, 2, 67, 0
4, 78780, Note_on_c, 2, 62, 100
4, 78834, Note_on_c, 2, 62, 0
4, 78840, Note_on_c, 2, 67, 100
4, 78894, Note_on_c, 2, 67, 0
4, 78900, Note_on_c, 2, 69, 100
4, 78954, Note_on_c, 2, 69, 0
4, 78960, Note_on_c, 2, 71, 100
4, 79014, Note_on_c, 2, 71, 0
4, 79020, Note_on_c, 2, 74, 100
4, 79074, Note_on_c, 2, 74, 0
4, 79080, Note_on_c, 2, 72, 100
4, 79134, Note_on_c, 2, 72, 0
4, 79140, Note_on_c, 2, 69, 100
4, 79194, Note_on_c, 2, 69, 0
4, 79200, Note_on_c, 2, 68, 100
4, 79308, Note_on_c, 2, 68, 0
4, 79560, Note_on_c, 2, 77, 100
4, 79668, Note_on_c, 2, 77, 0
4, 79680, Note_on_c, 2, 76, 100
4, 79788, Note_on_c, 2, 76, 0
4, 80040, Note_on_c, 2, 71, 100
4, 80148, Note_on_c, 2, 71, 0
4, 80160, Note_on_c, 2, 69, 100
4, 80268, Note_on_c, 2, 69, 0
4, 80280, Note_on_c, 2, 76, 100
4, 80388, Note_on_c, 2, 76, 0
4, 80400, Note_on_c, 2, 72, 100
4, 80508, Note_on_c, 2, 72, 0
4, 80520, Note_on_c, 2, 71, 100
4, 80628, Note_on_c, 2, 71, 0
4, 80640, Note_on_c, 2, 69, 100
4, 80748, Note_on_c, 2, 69, 0
4, 80760, Note_on_c, 2, 76, 100
4, 80868, Note_on_c, 2, 76, 0
4, 80880, Note_on_c, 2, 73, 100
4, 80988, Note_on_c, 2, 73, 0
4, 81000, Note_on_c, 2, 76, 100
4, 81108, Note_on_c, 2, 76, 0
4, 81120, Note_on_c, 2, 74, 100
4, 81228, Note_on_c, 2, 74, 0
4, 81480, Note_on_c, 2, 79, 100
4, 81588, Note_on_c, 2, 79, 0
4, 81600, Note_on_c, 2, 77, 100
4, 81708, Note_on_c, 2, 77, 0
4, 81960, Note_on_c, 2, 76, 100
4, 82068, Note_on_c, 2, 76, 0
4, 82080, Note_on_c, 2, 74, 100
4, 82188, Note_on_c, 2, 74, 0
4, 82200, Note_on_c, 2, 70, 100
4, 82308, Note_on_c, 2, 70, 0
4, 82320, Note_on_c, 2, 69, 100
4, 82428, Note_on_c, 2, 69, 0
4, 82440, Note_on_c, 2, 67, 100
4, 82548, Note_on_c, 2, 67, 0
4, 82560, Note_on_c, 2, 65, 100
4, 82668, Note_on_c, 2, 65, 0
4, 82680, Note_on_c, 2, 76, 100
4, 82788, Note_on_c, 2, 76, 0
4, 82800, Note_on_c, 2, 77, 100
4, 82908, Note_on_c, 2, 77, 0
4, 82920, Note_on_c, 2, 73, 100
4, 83028, Note_on_c, 2, 73, 0
4, 83040, Note_on_c, 2, 74, 100
4, 83148, Note_on_c, 2, 74, 0
4, 85000, Note_on_c, 2, 65, 100
4, 85036, Note_on_c, 2, 65, 0
4, 85040, Note_on_c, 2, 67, 100
4, 85076, Note_on_c, 2, 67, 0
4, 85080, Note_on_c, 2, 69, 100
4, 85116, Note_on_c, 2, 69, 0
4, 85120, Note_on_c, 2, 67, 100
4, 85156, Note_on_c, 2, 67, 0
4, 85160, Note_on_c, 2, 69, 100
4, 85196, Note_on_c, 2, 69, 0
4, 85200, Note_on_c, 2, 62, 100
4, 85236, Note_on_c, 2, 62, 0
4, 85240, Note_on_c, 2, 69, 100
4, 85276, Note_on_c, 2, 69, 0
4, 85280, Note_on_c, 2, 70, 100
4, 85316, Note_on_c, 2, 70, 0
4, 85320, Note_on_c, 2, 72, 100
4, 85356, Note_on_c, 2, 72, 0
4, 85360, Note_on_c, 2, 70, 100
4, 85396, Note_on_c, 2, 70, 0
4, 85400, Note_on_c, 2, 69, 100
4, 85436, Note_on_c, 2, 69, 0
4, 85440, Note_on_c, 2, 70, 100
4, 85476, Note_on_c, 2, 70, 0
4, 85480, Note_on_c, 2, 70, 100
4, 85516, Note_on_c, 2, 70, 0
4, 85520, Note_on_c, 2, 72, 100
4, 85556, Note_on_c, 2, 72, 0
4, 85560, Note_on_c, 2, 74, 100
4, 85596, Note_on_c, 2, 74, 0
4, 85600, Note_on_c, 2, 72, 100
4, 85636, Note_on_c, 2, 72, 0
4, 85640, Note_on_c, 2, 74, 100
4, 85676, Note_on_c, 2, 74, 0
4, 85680, Note_on_c, 2, 67, 100
4, 85716, Note_on_c, 2, 67, 0
4, 85720, Note_on_c, 2, 74, 100
4, 85756, Note_on_c, 2, 74, 0
4, 85760, Note_on_c, 2, 76, 100
4, 85796, Note_on_c, 2, 76, 0
4, 85800, Note_on_c, 2, 77, 100
4, 85836, Note_on_c, 2, 77, 0
4, 85840, Note_on_c, 2, 76, 100
4, 85876, Note_on_c, 2, 76, 0
4, 85880, Note_on_c, 2, 74, 100
4, 85916, Note_on_c, 2, 74, 0
4, 85920, Note_on_c, 2, 76, 100
4, 86028, Note_on_c, 2, 76, 0
4, 86040, Note_on_c, 2, 72, 100
4, 86148, Note_on_c, 2, 72, 0
4, 86280, Note_on_c, 2, 72, 100
4, 86388, Note_on_c, 2, 72, 0
4, 86400, Note_on_c, 2, 72, 100
4, 86508, Note_on_c, 2, 72, 0
4, 87930, Note_on_c, 2, 77, 100
4, 87957, Note_on_c, 2, 77, 0
4, 87960, Note_on_c, 2, 79, 100
4, 88041, Note_on_c, 2, 79, 0
4, 88050, Note_on_c, 2, 76, 100
4, 88077, Note_on_c, 2, 76, 0
4, 88080, Note_on_c, 2, 73, 100
4, 88242, Note_on_c, 2, 73, 0
4, 88260, Note_on_c, 2, 74, 100
4, 88314, Note_on_c, 2, 74, 0
4, 88320, Note_on_c, 2, 74, 100
4, 88428, Note_on_c, 2, 74, 0
4, 89280, Note_on_c, 2, 59, 100
4, 89280, Note_on_c, 2, 65, 100
4, 89280, Note_on_c, 2, 74, 100
4, 89388, Note_on_c, 2, 59, 0
4, 89388, Note_on_c, 2, 65, 0
4, 89388, Note_on_c, 2, 74, 0
4, 90240, Note_on_c, 2, 72, 100
4, 90348, Note_on_c, 2, 72, 0
4, 90360, Note_on_c, 2, 57, 100
4, 90414, Note_on_c, 2, 57, 0
4, 90420, Note_on_c, 2, 59, 100
4, 90474, Note_on_c, 2, 59, 0
4, 90480, Note_on_c, 2, 60, 100
4, 90534, Note_on_c, 2, 60, 0
4, 90540, Note_on_c, 2, 64, 100
4, 90594, Note_on_c, 2, 64, 0
4, 90600, Note_on_c, 2, 62, 100
4, 90654, Note_on_c, 2, 62, 0
4, 90660, Note_on_c, 2, 59, 100
4, 90714, Note_on_c, 2, 59, 0
4, 90720, Note_on_c, 2, 60, 100
4, 90774, Note_on_c, 2, 60, 0
4, 90780, Note_on_c, 2, 57, 100
4, 90834, Note_on_c, 2, 57, 0
4, 90840, Note_on_c, 2, 60, 100
4, 90894, Note_on_c, 2, 60, 0
4, 90900, Note_on_c, 2, 64, 100
4, 90954, Note_on_c, 2, 64, 0
4, 90960, Note_on_c, 2, 69, 100
4, 90996, Note_on_c, 2, 69, 0
4, 91000, Note_on_c, 2, 71, 100
4, 91036, Note_on_c, 2, 71, 0
4, 91040, Note_on_c, 2, 72, 100
4, 91076, Note_on_c, 2, 72, 0
4, 91080, Note_on_c, 2, 71, 100
4, 91116, Note_on_c, 2, 71, 0
4, 91120, Note_on_c, 2, 69, 100
4, 91156, Note_on_c, 2, 69, 0
4, 91160, Note_on_c, 2, 68, 100
4, 91196, Note_on_c, 2, 68, 0
4, 91200, Note_on_c, 2, 69, 100
4, 91254, Note_on_c, 2, 69, 0
4, 91260, Note_on_c, 2, 57, 100
4, 91314, Note_on_c, 2, 57, 0
4, 91320, Note_on_c, 2, 60, 100
4, 91374, Note_on_c, 2, 60, 0
4, 91380, Note_on_c, 2, 64, 100
4, 91434, Note_on_c, 2, 64, 0
4, 91440, Note_on_c, 2, 69, 100
4, 91476, Note_on_c, 2, 69, 0
4, 91480, Note_on_c, 2, 71, 100
4, 91516, Note_on_c, 2, 71, 0
4, 91520, Note_on_c, 2, 72, 100
4, 91556, Note_on_c, 2, 72, 0
4, 91560, Note_on_c, 2, 71, 100
4, 91596, Note_on_c, 2, 71, 0
4, 91600, Note_on_c, 2, 69, 100
4, 91636, Note_on_c, 2, 69, 0
4, 91640, Note_on_c, 2, 68, 100
4, 91676, Note_on_c, 2, 68, 0
4, 91680, Note_on_c, 2, 69, 100
4, 91734, Note_on_c, 2, 69, 0
4, 91740, Note_on_c, 2, 64, 100
4, 91794, Note_on_c, 2, 64, 0
4, 91800, Note_on_c, 2, 69, 100
4, 91854, Note_on_c, 2, 69, 0
4, 91860, Note_on_c, 2, 71, 100
4, 91914, Note_on_c, 2, 71, 0
4, 91920, Note_on_c, 2, 72, 100
4, 91974, Note_on_c, 2, 72, 0
4, 91980, Note_on_c, 2, 76, 100
4, 92034, Note_on_c, 2, 76, 0
4, 92040, Note_on_c, 2, 74, 100
4, 92094, Note_on_c, 2, 74, 0
4, 92100, Note_on_c, 2, 71, 100
4, 92154, Note_on_c, 2, 71, 0
4, 92160, Note_on_c, 2, 72, 100
4, 92268, Note_on_c, 2, 72, 0
4, 93120, Note_on_c, 2, 57, 100
4, 93120, Note_on_c, 2, 66, 100
4, 93120, Note_on_c, 2, 72, 100
4, 93228, Note_on_c, 2, 57, 0
4, 93228, Note_on_c, 2, 66, 0
4, 93228, Note_on_c, 2, 72, 0
4, 94080, Note_on_c, 2, 71, 100
4, 94188, Note_on_c, 2, 71, 0
4, 94320, Note_on_c, 2, 67, 100
4, 94428, Note_on_c, 2, 67, 0
4, 94440, Note_on_c, 2, 66, 100
4, 94548, Note_on_c, 2, 66, 0
4, 94800, Note_on_c, 2, 67, 100
4, 94908, Note_on_c, 2, 67, 0
4, 94920, Note_on_c, 2, 69, 100
4, 95028, Note_on_c, 2, 69, 0
4, 95280, Note_on_c, 2, 76, 100
4, 95388, Note_on_c, 2, 76, 0
4, 95400, Note_on_c, 2, 68, 100
4, 95508, Note_on_c, 2, 68, 0
4, 95760, Note_on_c, 2, 71, 100
4, 95868, Note_on_c, 2, 71, 0
4, 95880, Note_on_c, 2, 64, 100
4, 95988, Note_on_c, 2, 64, 0
4, 96000, Note_on_c, 2, 81, 100
4, 96108, Note_on_c, 2, 81, 0
4, 96600, Note_on_c, 2, 76, 100
4, 96708, Note_on_c, 2, 76, 0
4, 96720, Note_on_c, 2, 76, 100
4, 96828, Note_on_c, 2, 76, 0
4, 96840, Note_on_c, 2, 76, 100
4, 96948, Note_on_c, 2, 76, 0
4, 96960, Note_on_c, 2, 76, 100
4, 97068, Note_on_c, 2, 76, 0
4, 97560, Note_on_c, 2, 74, 100
4, 97668, Note_on_c, 2, 74, 0
4, 97680, Note_on_c, 2, 74, 100
4, 97788, Note_on_c, 2, 74, 0
4, 97800, Note_on_c, 2, 74, 100
4, 97908, Note_on_c, 2, 74, 0
4, 97920, Note_on_c, 2, 74, 100
4, 98028, Note_on_c, 2, 74, 0
4, 98880, Note_on_c, 2, 67, 100
4, 98880, Note_on_c, 2, 71, 100
4, 98880, Note_on_c, 2, 76, 100
4, 98988, Note_on_c, 2, 67, 0
4, 98988, Note_on_c, 2, 71, 0
4, 98988, Note_on_c, 2, 76, 0
4, 99840, Note_on_c, 2, 62, 100
4, 99840, Note_on_c, 2, 69, 100
4, 99840, Note_on_c, 2, 78, 100
4, 99948, Note_on_c, 2, 62, 0
4, 99948, Note_on_c, 2, 69, 0
4, 99948, Note_on_c, 2, 78, 0
4, 100800, Note_on_c, 2, 62, 100
4, 100800, Note_on_c, 2, 71, 100
4, 100800, Note_on_c, 2, 79, 100
4, 100908, Note_on_c, 2, 62, 0
4, 100908, Note_on_c, 2, 71, 0
4, 100908, Note_on_c, 2, 79, 0
4, 102360, Note_on_c, 2, 76, 100
4, 102468, Note_on_c, 2, 76, 0
4, 102480, Note_on_c, 2, 74, 100
4, 102588, Note_on_c, 2, 74, 0
4, 102600, Note_on_c, 2, 72, 100
4, 102708, Note_on_c, 2, 72, 0
4, 102720, Note_on_c, 2, 71, 100
4, 102828, Note_on_c, 2, 71, 0
4, 102840, Note_on_c, 2, 67, 100
4, 102948, Note_on_c, 2, 67, 0
4, 103080, Note_on_c, 2, 69, 100
4, 103188, Note_on_c, 2, 69, 0
4, 103320, Note_on_c, 2, 71, 100
4, 103428, Note_on_c, 2, 71, 0
4, 103560, Note_on_c, 2, 72, 100
4, 103668, Note_on_c, 2, 72, 0
4, 103800, Note_on_c, 2, 72, 100
4, 103908, Note_on_c, 2, 72, 0
4, 104040, Note_on_c, 2, 69, 100
4, 104148, Note_on_c, 2, 69, 0
4, 104160, Note_on_c, 2, 71, 100
4, 104268, Note_on_c, 2, 71, 0
4, 104280, Note_on_c, 2, 71, 100
4, 104388, Note_on_c, 2, 71, 0
4, 104400, Note_on_c, 2, 74, 100
4, 104508, Note_on_c, 2, 74, 0
4, 104520, Note_on_c, 2, 77, 100
4, 104628, Note_on_c, 2, 77, 0
4, 104640, Note_on_c, 2, 74, 100
4, 105072, Note_on_c, 2, 74, 0
4, 105120, Note_on_c, 2, 72, 100
4, 105552, Note_on_c, 2, 72, 0
4, 105600, Note_on_c, 2, 69, 100
4, 106464, Note_on_c, 2, 69, 0
4, 106620, Note_on_c, 2, 64, 100
4, 106674, Note_on_c, 2, 64, 0
4, 106680, Note_on_c, 2, 71, 100
4, 106734, Note_on_c, 2, 71, 0
4, 106740, Note_on_c, 2, 72, 100
4, 106794, Note_on_c, 2, 72, 0
4, 106800, Note_on_c, 2, 74, 100
4, 106854, Note_on_c, 2, 74, 0
4, 106860, Note_on_c, 2, 77, 100
4, 106914, Note_on_c, 2, 77, 0
4, 106920, Note_on_c, 2, 76, 100
4, 106974, Note_on_c, 2, 76, 0
4, 106980, Note_on_c, 2, 71, 100
4, 107034, Note_on_c, 2, 71, 0
4, 107040, Note_on_c, 2, 72, 100
4, 107148, Note_on_c, 2, 72, 0
4, 109440, Note_on_c, 2, 64, 100
4, 109440, Note_on_c, 2, 74, 100
4, 109440, Note_on_c, 2, 83, 100
4, 109548, Note_on_c, 2, 64, 0
4, 109548, Note_on_c, 2, 74, 0
4, 109548, Note_on_c, 2, 83, 0
4, 114720, Note_on_c, 2, 64, 100
4, 114828, Note_on_c, 2, 64, 0
4, 114960, Note_on_c, 2, 68, 100
4, 115068, Note_on_c, 2, 68, 0
4, 115200, Note_on_c, 2, 71, 100
4, 115308, Note_on_c, 2, 71, 0
4, 115440, Note_on_c, 2, 68, 100
4, 115548, Note_on_c, 2, 68, 0
4, 115680, Note_on_c, 2, 69, 100
4, 115788, Note_on_c, 2, 69, 0
4, 115920, Note_on_c, 2, 64, 100
4, 116028, Note_on_c, 2, 64, 0
4, 116160, Note_on_c, 2, 69, 100
4, 116268, Note_on_c, 2, 69, 0
4, 116400, Note_on_c, 2, 72, 100
4, 116508, Note_on_c, 2, 72, 0
4, 116640, Note_on_c, 2, 76, 100
4, 116748, Note_on_c, 2, 76, 0
4, 116880, Note_on_c, 2, 79, 100
4, 116988, Note_on_c, 2, 79, 0
4, 117120, Note_on_c, 2, 82, 100
4, 117228, Note_on_c, 2, 82, 0
4, 117360, Note_on_c, 2, 81, 100
4, 117468, Note_on_c, 2, 81, 0
4, 117600, Note_on_c, 2, 86, 100
4, 117708, Note_on_c, 2, 86, 0
4, 117840, Note_on_c, 2, 81, 100
4, 117948, Note_on_c, 2, 81, 0
4, 118080, Note_on_c, 2, 77, 100
4, 118188, Note_on_c, 2, 77, 0
4, 118320, Note_on_c, 2, 74, 100
4, 118428, Note_on_c, 2, 74, 0
4, 118560, Note_on_c, 2, 74, 100
4, 118668, Note_on_c, 2, 74, 0
4, 118800, Note_on_c, 2, 71, 100
4, 118908, Note_on_c, 2, 71, 0
4, 119040, Note_on_c, 2, 68, 100
4, 119148, Note_on_c, 2, 68, 0
4, 119280, Note_on_c, 2, 71, 100
4, 119388, Note_on_c, 2, 71, 0
4, 119520, Note_on_c, 2, 69, 100
4, 119628, Note_on_c, 2, 69, 0
4, 119760, Note_on_c, 2, 64, 100
4, 119868, Note_on_c, 2, 64, 0
4, 120000, Note_on_c, 2, 69, 100
4, 120108, Note_on_c, 2, 69, 0
4, 120240, Note_on_c, 2, 69, 100
4, 120348, Note_on_c, 2, 69, 0
4, 120480, Note_on_c, 2, 71, 100
4, 120588, Note_on_c, 2, 71, 0
4, 120720, Note_on_c, 2, 80, 100
4, 120828, Note_on_c, 2, 80, 0
4, 120960, Note_on_c, 2, 81, 100
4, 121068, Note_on_c, 2, 81, 0
4, 121200, Note_on_c, 2, 69, 100
4, 121308, Note_on_c, 2, 69, 0
4, 121440, Note_on_c, 2, 76, 100
4, 121548, Note_on_c, 2, 76, 0
4, 121680, Note_on_c, 2, 74, 100
4, 121788, Note_on_c, 2, 74, 0
4, 121920, Note_on_c, 2, 72, 100
4, 122028, Note_on_c, 2, 72, 0
4, 122280, Note_on_c, 2, 65, 100
4, 122388, Note_on_c, 2, 65, 0
4, 122400, Note_on_c, 2, 64, 100
4, 122508, Note_on_c, 2, 64, 0
4, 122760, Note_on_c, 2, 56, 100
4, 122868, Note_on_c, 2, 56, 0
4, 122880, Note_on_c, 2, 60, 100
4, 122934, Note_on_c, 2, 60, 0
4, 122940, Note_on_c, 2, 64, 100
4, 122994, Note_on_c, 2, 64, 0
4, 123000, Note_on_c, 2, 69, 100
4, 123054, Note_on_c, 2, 69, 0
4, 123060, Note_on_c, 2, 71, 100
4, 123114, Note_on_c, 2, 71, 0
4, 123120, Note_on_c, 2, 72, 100
4, 123174, Note_on_c, 2, 72, 0
4, 123180, Note_on_c, 2, 76, 100
4, 123234, Note_on_c, 2, 76, 0
4, 123240, Note_on_c, 2, 74, 100
4, 123294, Note_on_c, 2, 74, 0
4, 123300, Note_on_c, 2, 71, 100
4, 123354, Note_on_c, 2, 71, 0
4, 123360, Note_on_c, 2, 72, 100
4, 123396, Note_on_c, 2, 72, 0
4, 123400, Note_on_c, 2, 71, 100
4, 123436, Note_on_c, 2, 71, 0
4, 123440, Note_on_c, 2, 69, 100
4, 123476, Note_on_c, 2, 69, 0
4, 123480, Note_on_c, 2, 76, 100
4, 123654, Note_on_c, 2, 76, 0
4, 123660, Note_on_c, 2, 81, 100
4, 123714, Note_on_c, 2, 81, 0
4, 123720, Note_on_c, 2, 77, 100
4, 123774, Note_on_c, 2, 77, 0
4, 123780, Note_on_c, 2, 74, 100
4, 123834, Note_on_c, 2, 74, 0
4, 123840, Note_on_c, 2, 76, 100
4, 124272, Note_on_c, 2, 76, 0
4, 124320, Note_on_c, 2, 73, 100
4, 124752, Note_on_c, 2, 73, 0
4, 124800, Note_on_c, 2, 74, 100
4, 125232, Note_on_c, 2, 74, 0
4, 125280, Note_on_c, 2, 71, 100
4, 125712, Note_on_c, 2, 71, 0
4, 125760, Note_on_c, 2, 72, 100
4, 125868, Note_on_c, 2, 72, 0
4, 125880, Note_on_c, 2, 74, 100
4, 125988, Note_on_c, 2, 74, 0
4, 126000, Note_on_c, 2, 76, 100
4, 126108, Note_on_c, 2, 76, 0
4, 126360, Note_on_c, 2, 81, 100
4, 126468, Note_on_c, 2, 81, 0
4, 126480, Note_on_c, 2, 81, 100
4, 126588, Note_on_c, 2, 81, 0
4, 126600, Note_on_c, 2, 72, 100
4, 126708, Note_on_c, 2, 72, 0
4, 126720, Note_on_c, 2, 71, 100
4, 126828, Note_on_c, 2, 71, 0
4, 127200, Note_on_c, 2, 74, 100
4, 127308, Note_on_c, 2, 74, 0
4, 127680, Note_on_c, 2, 71, 100
4, 127788, Note_on_c, 2, 71, 0
4, 128160, Note_on_c, 2, 68, 100
4, 128268, Note_on_c, 2, 68, 0
4, 128640, Note_on_c, 2, 64, 100
4, 128748, Note_on_c, 2, 64, 0
4, 129000, Note_on_c, 2, 64, 100
4, 129108, Note_on_c, 2, 64, 0
4, 129120, Note_on_c, 2, 68, 100
4, 129228, Note_on_c, 2, 68, 0
4, 129480, Note_on_c, 2, 71, 100
4, 129588, Note_on_c, 2, 71, 0
4, 129600, Note_on_c, 2, 76, 100
4, 129708, Note_on_c, 2, 76, 0
4, 129960, Note_on_c, 2, 71, 100
4, 130068, Note_on_c, 2, 71, 0
4, 130080, Note_on_c, 2, 64, 100
4, 130188, Note_on_c, 2, 64, 0
4, 130200, Note_on_c, 2, 69, 100
4, 130281, Note_on_c, 2, 69, 0
4, 130290, Note_on_c, 2, 74, 100
4, 130317, Note_on_c, 2, 74, 0
4, 130320, Note_on_c, 2, 72, 100
4, 130428, Note_on_c, 2, 72, 0
4, 130440, Note_on_c, 2, 71, 100
4, 130548, Note_on_c, 2, 71, 0
4, 130560, Note_on_c, 2, 69, 100
4, 130668, Note_on_c, 2, 69, 0
4, 130920, Note_on_c, 2, 67, 100
4, 131028, Note_on_c, 2, 67, 0
4, 131040, Note_on_c, 2, 65, 100
4, 131148, Note_on_c, 2, 65, 0
4, 131400, Note_on_c, 2, 64, 100
4, 131508, Note_on_c, 2, 64, 0
4, 131520, Note_on_c, 2, 62, 100
4, 131628, Note_on_c, 2, 62, 0
4, 131920, Note_on_c, 2, 71, 100
4, 131956, Note_on_c, 2, 71, 0
4, 131960, Note_on_c, 2, 72, 100
4, 131996, Note_on_c, 2, 72, 0
4, 132000, Note_on_c, 2, 74, 100
4, 132108, Note_on_c, 2, 74, 0
4, 132400, Note_on_c, 2, 68, 100
4, 132436, Note_on_c, 2, 68, 0
4, 132440, Note_on_c, 2, 69, 100
4, 132476, Note_on_c, 2, 69, 0
4, 132480, Note_on_c, 2, 71, 100
4, 132588, Note_on_c, 2, 71, 0
4, 132880, Note_on_c, 2, 59, 100
4, 132916, Note_on_c, 2, 59, 0
4, 132920, Note_on_c, 2, 60, 100
4, 132956, Note_on_c, 2, 60, 0
4, 132960, Note_on_c, 2, 62, 100
4, 133068, Note_on_c, 2, 62, 0
4, 133360, Note_on_c, 2, 56, 100
4, 133396, Note_on_c, 2, 56, 0
4, 133400, Note_on_c, 2, 57, 100
4, 133436, Note_on_c, 2, 57, 0
4, 133440, Note_on_c, 2, 59, 100
4, 133548, Note_on_c, 2, 59, 0
4, 134520, Note_on_c, 2, 57, 100
4, 134574, Note_on_c, 2, 57, 0
4, 134580, Note_on_c, 2, 59, 100
4, 134634, Note_on_c, 2, 59, 0
4, 134640, Note_on_c, 2, 60, 100
4, 134694, Note_on_c, 2, 60, 0
4, 134700, Note_on_c, 2, 64, 100
4, 134754, Note_on_c, 2, 64, 0
4, 134760, Note_on_c, 2, 62, 100
4, 134814, Note_on_c, 2, 62, 0
4, 134820, Note_on_c, 2, 59, 100
4, 134874, Note_on_c, 2, 59, 0
4, 134880, Note_on_c, 2, 60, 100
4, 134934, Note_on_c, 2, 60, 0
4, 134940, Note_on_c, 2, 57, 100
4, 134994, Note_on_c, 2, 57, 0
4, 135000, Note_on_c, 2, 60, 100
4, 135054, Note_on_c, 2, 60, 0
4, 135060, Note_on_c, 2, 64, 100
4, 135114, Note_on_c, 2, 64, 0
4, 135120, Note_on_c, 2, 69, 100
4, 135156, Note_on_c, 2, 69, 0
4, 135160, Note_on_c, 2, 71, 100
4, 135196, Note_on_c, 2, 71, 0
4, 135200, Note_on_c, 2, 72, 100
4, 135236, Note_on_c, 2, 72, 0
4, 135240, Note_on_c, 2, 71, 100
4, 135276, Note_on_c, 2, 71, 0
4, 135280, Note_on_c, 2, 69, 100
4, 135316, Note_on_c, 2, 69, 0
4, 135320, Note_on_c, 2, 68, 100
4, 135356, Note_on_c, 2, 68, 0
4, 135360, Note_on_c, 2, 69, 100
4, 135414, Note_on_c, 2, 69, 0
4, 135420, Note_on_c, 2, 64, 100
4, 135474, Note_on_c, 2, 64, 0
4, 135480, Note_on_c, 2, 69, 100
4, 135534, Note_on_c, 2, 69, 0
4, 135540, Note_on_c, 2, 71, 100
4, 135594, Note_on_c, 2, 71, 0
4, 135600, Note_on_c, 2, 72, 100
4, 135654, Note_on_c, 2, 72, 0
4, 135660, Note_on_c, 2, 76, 100
4, 135714, Note_on_c, 2, 76, 0
4, 135720, Note_on_c, 2, 74, 100
4, 135774, Note_on_c, 2, 74, 0
4, 135780, Note_on_c, 2, 71, 100
4, 135834, Note_on_c, 2, 71, 0
4, 135840, Note_on_c, 2, 72, 100
4, 135894, Note_on_c, 2, 72, 0
4, 135900, Note_on_c, 2, 69, 100
4, 135954, Note_on_c, 2, 69, 0
4, 135960, Note_on_c, 2, 72, 100
4, 136014, Note_on_c, 2, 72, 0
4, 136020, Note_on_c, 2, 76, 100
4, 136074, Note_on_c, 2, 76, 0
4, 136080, Note_on_c, 2, 81, 100
4, 136116, Note_on_c, 2, 81, 0
4, 136120, Note_on_c, 2, 83, 100
4, 136156, Note_on_c, 2, 83, 0
4, 136160, Note_on_c, 2, 84, 100
4, 136196, Note_on_c, 2, 84, 0
4, 136200, Note_on_c, 2, 83, 100
4, 136236, Note_on_c, 2, 83, 0
4, 136240, Note_on_c, 2, 81, 100
4, 136276, Note_on_c, 2, 81, 0
4, 136280, Note_on_c, 2, 80, 100
4, 136316, Note_on_c, 2, 80, 0
4, 136320, Note_on_c, 2, 81, 100
4, 136356, Note_on_c, 2, 81, 0
4, 136360, Note_on_c, 2, 76, 100
4, 136396, Note_on_c, 2, 76, 0
4, 136400, Note_on_c, 2, 76, 100
4, 136436, Note_on_c, 2, 76, 0
4, 136440, Note_on_c, 2, 77, 100
4, 136476, Note_on_c, 2, 77, 0
4, 136480, Note_on_c, 2, 75, 100
4, 136516, Note_on_c, 2, 75, 0
4, 136520, Note_on_c, 2, 76, 100
4, 136556, Note_on_c, 2, 76, 0
4, 136560, Note_on_c, 2, 77, 100
4, 136596, Note_on_c, 2, 77, 0
4, 136600, Note_on_c, 2, 75, 100
4, 136636, Note_on_c, 2, 75, 0
4, 136640, Note_on_c, 2, 76, 100
4, 136676, Note_on_c, 2, 76, 0
4, 136680, Note_on_c, 2, 77, 100
4, 136716, Note_on_c, 2, 77, 0
4, 136720, Note_on_c, 2, 75, 100
4, 136756, Note_on_c, 2, 75, 0
4, 136760, Note_on_c, 2, 76, 100
4, 136796, Note_on_c, 2, 76, 0
4, 136800, Note_on_c, 2, 68, 100
4, 136836, Note_on_c, 2, 68, 0
4, 136840, Note_on_c, 2, 69, 100
4, 136876, Note_on_c, 2, 69, 0
4, 136880, Note_on_c, 2, 71, 100
4, 136916, Note_on_c, 2, 71, 0
4, 136920, Note_on_c, 2, 69, 100
4, 136956, Note_on_c, 2, 69, 0
4, 136960, Note_on_c, 2, 71, 100
4, 136996, Note_on_c, 2, 71, 0
4, 137000, Note_on_c, 2, 72, 100
4, 137036, Note_on_c, 2, 72, 0
4, 137040, Note_on_c, 2, 71, 100
4, 137076, Note_on_c, 2, 71, 0
4, 137080, Note_on_c, 2, 76, 100
4, 137116, Note_on_c, 2, 76, 0
4, 137120, Note_on_c, 2, 74, 100
4, 137156, Note_on_c, 2, 74, 0
4, 137160, Note_on_c, 2, 72, 100
4, 137196, Note_on_c, 2, 72, 0
4, 137200, Note_on_c, 2, 71, 100
4, 137236, Note_on_c, 2, 71, 0
4, 137240, Note_on_c, 2, 69, 100
4, 137276, Note_on_c, 2, 69, 0
4, 137280, Note_on_c, 2, 68, 100
4, 137316, Note_on_c, 2, 68, 0
4, 137320, Note_on_c, 2, 64, 100
4, 137356, Note_on_c, 2, 64, 0
4, 137360, Note_on_c, 2, 64, 100
4, 137396, Note_on_c, 2, 64, 0
4, 137400, Note_on_c, 2, 65, 100
4, 137436, Note_on_c, 2, 65, 0
4, 137440, Note_on_c, 2, 63, 100
4, 137476, Note_on_c, 2, 63, 0
4, 137480, Note_on_c, 2, 64, 100
4, 137516, Note_on_c, 2, 64, 0
4, 137520, Note_on_c, 2, 65, 100
4, 137556, Note_on_c, 2, 65, 0
4, 137560, Note_on_c, 2, 63, 100
4, 137596, Note_on_c, 2, 63, 0
4, 137600, Note_on_c, 2, 64, 100
4, 137636, Note_on_c, 2, 64, 0
4, 137640, Note_on_c, 2, 65, 100
4, 137676, Note_on_c, 2, 65, 0
4, 137680, Note_on_c, 2, 63, 100
4, 137716, Note_on_c, 2, 63, 0
4, 137720, Note_on_c, 2, 64, 100
4, 137756, Note_on_c, 2, 64, 0
4, 137760, Note_on_c, 2, 56, 100
4, 137796, Note_on_c, 2, 56, 0
4, 137800, Note_on_c, 2, 57, 100
4, 137836, Note_on_c, 2, 57, 0
4, 137840, Note_on_c, 2, 59, 100
4, 137876, Note_on_c, 2, 59, 0
4, 137880, Note_on_c, 2, 57, 100
4, 137916, Note_on_c, 2, 57, 0
4, 137920, Note_on_c, 2, 59, 100
4, 137956, Note_on_c, 2, 59, 0
4, 137960, Note_on_c, 2, 60, 100
4, 137996, Note_on_c, 2, 60, 0
4, 138000, Note_on_c, 2, 59, 100
4, 138036, Note_on_c, 2, 59, 0
4, 138040, Note_on_c, 2, 64, 100
4, 138076, Note_on_c, 2, 64, 0
4, 138080, Note_on_c, 2, 62, 100
4, 138116, Note_on_c, 2, 62, 0
4, 138120, Note_on_c, 2, 60, 100
4, 138156, Note_on_c, 2, 60, 0
4, 138160, Note_on_c, 2, 59, 100
4, 138196, Note_on_c, 2, 59, 0
4, 138200, Note_on_c, 2, 57, 100
4, 138236, Note_on_c, 2, 57, 0
4, 138240, Note_on_c, 2, 56, 100
4, 138276, Note_on_c, 2, 56, 0
4, 138280, Note_on_c, 2, 76, 100
4, 138316, Note_on_c, 2, 76, 0
4, 138320, Note_on_c, 2, 77, 100
4, 138356, Note_on_c, 2, 77, 0
4, 138360, Note_on_c, 2, 79, 100
4, 138396, Note_on_c, 2, 79, 0
4, 138400, Note_on_c, 2, 77, 100
4, 138436, Note_on_c, 2, 77, 0
4, 138440, Note_on_c, 2, 79, 100
4, 138476, Note_on_c, 2, 79, 0
4, 138480, Note_on_c, 2, 69, 100
4, 138516, Note_on_c, 2, 69, 0
4, 138520, Note_on_c, 2, 76, 100
4, 138556, Note_on_c, 2, 76, 0
4, 138560, Note_on_c, 2, 77, 100
4, 138596, Note_on_c, 2, 77, 0
4, 138600, Note_on_c, 2, 79, 100
4, 138636, Note_on_c, 2, 79, 0
4, 138640, Note_on_c, 2, 77, 100
4, 138676, Note_on_c, 2, 77, 0
4, 138680, Note_on_c, 2, 76, 100
4, 138716, Note_on_c, 2, 76, 0
4, 138720, Note_on_c, 2, 77, 100
4, 138756, Note_on_c, 2, 77, 0
4, 138760, Note_on_c, 2, 74, 100
4, 138796, Note_on_c, 2, 74, 0
4, 138800, Note_on_c, 2, 76, 100
4, 138836, Note_on_c, 2, 76, 0
4, 138840, Note_on_c, 2, 77, 100
4, 138876, Note_on_c, 2, 77, 0
4, 138880, Note_on_c, 2, 76, 100
4, 138916, Note_on_c, 2, 76, 0
4, 138920, Note_on_c, 2, 77, 100
4, 138956, Note_on_c, 2, 77, 0
4, 138960, Note_on_c, 2, 67, 100
4, 138996, Note_on_c, 2, 67, 0
4, 139000, Note_on_c, 2, 74, 100
4, 139036, Note_on_c, 2, 74, 0
4, 139040, Note_on_c, 2, 76, 100
4, 139076, Note_on_c, 2, 76, 0
4, 139080, Note_on_c, 2, 77, 100
4, 139116, Note_on_c, 2, 77, 0
4, 139120, Note_on_c, 2, 76, 100
4, 139156, Note_on_c, 2, 76, 0
4, 139160, Note_on_c, 2, 74, 100
4, 139196, Note_on_c, 2, 74, 0
4, 139200, Note_on_c, 2, 76, 100
4, 139308, Note_on_c, 2, 76, 0
4, 139320, Note_on_c, 2, 72, 100
4, 139401, Note_on_c, 2, 72, 0
4, 139410, Note_on_c, 2, 76, 100
4, 139437, Note_on_c, 2, 76, 0
4, 139440, Note_on_c, 2, 69, 100
4, 139521, Note_on_c, 2, 69, 0
4, 139530, Note_on_c, 2, 76, 100
4, 139557, Note_on_c, 2, 76, 0
4, 139560, Note_on_c, 2, 66, 100
4, 139641, Note_on_c, 2, 66, 0
4, 139650, Note_on_c, 2, 76, 100
4, 139677, Note_on_c, 2, 76, 0
4, 139680, Note_on_c, 2, 74, 100
4, 139716, Note_on_c, 2, 74, 0
4, 139720, Note_on_c, 2, 72, 100
4, 139756, Note_on_c, 2, 72, 0
4, 139760, Note_on_c, 2, 74, 100
4, 139796, Note_on_c, 2, 74, 0
4, 139800, Note_on_c, 2, 71, 100
4, 139881, Note_on_c, 2, 71, 0
4, 139890, Note_on_c, 2, 74, 100
4, 139917, Note_on_c, 2, 74, 0
4, 139920, Note_on_c, 2, 68, 100
4, 140001, Note_on_c, 2, 68, 0
4, 140010, Note_on_c, 2, 74, 100
4, 140037, Note_on_c, 2, 74, 0
4, 140040, Note_on_c, 2, 64, 100
4, 140121, Note_on_c, 2, 64, 0
4, 140130, Note_on_c, 2, 74, 100
4, 140157, Note_on_c, 2, 74, 0
4, 140160, Note_on_c, 2, 72, 100
4, 140196, Note_on_c, 2, 72, 0
4, 140200, Note_on_c, 2, 71, 100
4, 140236, Note_on_c, 2, 71, 0
4, 140240, Note_on_c, 2, 69, 100
4, 140276, Note_on_c, 2, 69, 0
4, 140280, Note_on_c, 2, 77, 100
4, 140316, Note_on_c, 2, 77, 0
4, 140320, Note_on_c, 2, 76, 100
4, 140356, Note_on_c, 2, 76, 0
4, 140360, Note_on_c, 2, 74, 100
4, 140396, Note_on_c, 2, 74, 0
4, 140400, Note_on_c, 2, 72, 100
4, 140436, Note_on_c, 2, 72, 0
4, 140440, Note_on_c, 2, 71, 100
4, 140476, Note_on_c, 2, 71, 0
4, 140480, Note_on_c, 2, 69, 100
4, 140516, Note_on_c, 2, 69, 0
4, 140520, Note_on_c, 2, 68, 100
4, 140556, Note_on_c, 2, 68, 0
4, 140560, Note_on_c, 2, 69, 100
4, 140596, Note_on_c, 2, 69, 0
4, 140600, Note_on_c, 2, 71, 100
4, 140636, Note_on_c, 2, 71, 0
4, 140640, Note_on_c, 2, 64, 100
4, 140802, Note_on_c, 2, 64, 0
4, 140820, Note_on_c, 2, 66, 100
4, 140847, Note_on_c, 2, 66, 0
4, 140850, Note_on_c, 2, 68, 100
4, 140877, Note_on_c, 2, 68, 0
4, 140880, Note_on_c, 2, 69, 100
4, 140916, Note_on_c, 2, 69, 0
4, 140920, Note_on_c, 2, 71, 100
4, 140956, Note_on_c, 2, 71, 0
4, 140960, Note_on_c, 2, 72, 100
4, 140996, Note_on_c, 2, 72, 0
4, 141000, Note_on_c, 2, 74, 100
4, 141036, Note_on_c, 2, 74, 0
4, 141040, Note_on_c, 2, 76, 100
4, 141076, Note_on_c, 2, 76, 0
4, 141080, Note_on_c, 2, 77, 100
4, 141116, Note_on_c, 2, 77, 0
4, 141120, Note_on_c, 2, 76, 100
4, 141156, Note_on_c, 2, 76, 0
4, 141160, Note_on_c, 2, 74, 100
4, 141196, Note_on_c, 2, 74, 0
4, 141200, Note_on_c, 2, 72, 100
4, 141236, Note_on_c, 2, 72, 0
4, 141240, Note_on_c, 2, 71, 100
4, 141276, Note_on_c, 2, 71, 0
4, 141280, Note_on_c, 2, 72, 100
4, 141316, Note_on_c, 2, 72, 0
4, 141320, Note_on_c, 2, 69, 100
4, 141356, Note_on_c, 2, 69, 0
4, 141360, Note_on_c, 2, 64, 100
4, 141441, Note_on_c, 2, 64, 0
4, 141450, Note_on_c, 2, 69, 100
4, 141477, Note_on_c, 2, 69, 0
4, 141480, Note_on_c, 2, 71, 100
4, 141561, Note_on_c, 2, 71, 0
4, 141570, Note_on_c, 2, 68, 100
4, 141597, Note_on_c, 2, 68, 0
4, 141600, Note_on_c, 2, 69, 100
4, 141681, Note_on_c, 2, 69, 0
4, 141690, Note_on_c, 2, 57, 100
4, 141717, Note_on_c, 2, 57, 0
4, 141720, Note_on_c, 2, 65, 100
4, 141756, Note_on_c, 2, 65, 0
4, 141760, Note_on_c, 2, 64, 100
4, 141796, Note_on_c, 2, 64, 0
4, 141800, Note_on_c, 2, 62, 100
4, 141836, Note_on_c, 2, 62, 0
4, 141840, Note_on_c, 2, 60, 100
4, 141948, Note_on_c, 2, 60, 0
4, 141960, Note_on_c, 2, 59, 100
4, 142068, Note_on_c, 2, 59, 0
4, 142080, Note_on_c, 2, 57, 100
4, 142296, Note_on_c, 2, 57, 0
4, 142296, End_track
5, 0, Start_track
5, 0, Sequence_number, 65535
5, 0, MIDI_port, 0
5, 0, Title_t, "Violino II"
5, 0, Control_c, 3, 0, 0
5, 0, Control_c, 3, 32, 0
5, 0, Program_c, 3, 48
5, 0, Control_c, 3, 7, 80
5, 0, Control_c, 3, 10, 114
5, 600, Note_on_c, 3, 64, 100
5, 708, Note_on_c, 3, 64, 0
5, 720, Note_on_c, 3, 64, 100
5, 828, Note_on_c, 3, 64, 0
5, 840, Note_on_c, 3, 64, 100
5, 948, Note_on_c, 3, 64, 0
5, 960, Note_on_c, 3, 64, 100
5, 1014, Note_on_c, 3, 64, 0
5, 1020, Note_on_c, 3, 57, 100
5, 1074, Note_on_c, 3, 57, 0
5, 1080, Note_on_c, 3, 60, 100
5, 1134, Note_on_c, 3, 60, 0
5, 1140, Note_on_c, 3, 64, 100
5, 1194, Note_on_c, 3, 64, 0
5, 1200, Note_on_c, 3, 69, 100
5, 1236, Note_on_c, 3, 69, 0
5, 1240, Note_on_c, 3, 71, 100
5, 1276, Note_on_c, 3, 71, 0
5, 1280, Note_on_c, 3, 72, 100
5, 1316, Note_on_c, 3, 72, 0
5, 1320, Note_on_c, 3, 71, 100
5, 1356, Note_on_c, 3, 71, 0
5, 1360, Note_on_c, 3, 69, 100
5, 1396, Note_on_c, 3, 69, 0
5, 1400, Note_on_c, 3, 68, 100
5, 1436, Note_on_c, 3, 68, 0
5, 1440, Note_on_c, 3, 69, 100
5, 1548, Note_on_c, 3, 69, 0
5, 1560, Note_on_c, 3, 69, 100
5, 1668, Note_on_c, 3, 69, 0
5, 1680, Note_on_c, 3, 76, 100
5, 1788, Note_on_c, 3, 76, 0
5, 1800, Note_on_c, 3, 76, 100
5, 1908, Note_on_c, 3, 76, 0
5, 1920, Note_on_c, 3, 76, 100
5, 2028, Note_on_c, 3, 76, 0
5, 2040, Note_on_c, 3, 72, 100
5, 2148, Note_on_c, 3, 72, 0
5, 2160, Note_on_c, 3, 71, 100
5, 2268, Note_on_c, 3, 71, 0
5, 2280, Note_on_c, 3, 72, 100
5, 2388, Note_on_c, 3, 72, 0
5, 2400, Note_on_c, 3, 71, 100
5, 2508, Note_on_c, 3, 71, 0
5, 2520, Note_on_c, 3, 64, 100
5, 2628, Note_on_c, 3, 64, 0
5, 2640, Note_on_c, 3, 64, 100
5, 2748, Note_on_c, 3, 64, 0
5, 2760, Note_on_c, 3, 64, 100
5, 2868, Note_on_c, 3, 64, 0
5, 2880, Note_on_c, 3, 64, 100
5, 2988, Note_on_c, 3, 64, 0
5, 3000, Note_on_c, 3, 60, 100
5, 3108, Note_on_c, 3, 60, 0
5, 3120, Note_on_c, 3, 59, 100
5, 3228, Note_on_c, 3, 59, 0
5, 3240, Note_on_c, 3, 60, 100
5, 3348, Note_on_c, 3, 60, 0
5, 3360, Note_on_c, 3, 59, 100
5, 3468, Note_on_c, 3, 59, 0
5, 3480, Note_on_c, 3, 64, 100
5, 3588, Note_on_c, 3, 64, 0
5, 3600, Note_on_c, 3, 64, 100
5, 3708, Note_on_c, 3, 64, 0
5, 3720, Note_on_c, 3, 64, 100
5, 3828, Note_on_c, 3, 64, 0
5, 3840, Note_on_c, 3, 64, 100
5, 3948, Note_on_c, 3, 64, 0
5, 3960, Note_on_c, 3, 71, 100
5, 4068, Note_on_c, 3, 71, 0
5, 4080, Note_on_c, 3, 69, 100
5, 4188, Note_on_c, 3, 69, 0
5, 4200, Note_on_c, 3, 73, 100
5, 4308, Note_on_c, 3, 73, 0
5, 4320, Note_on_c, 3, 74, 100
5, 4428, Note_on_c, 3, 74, 0
5, 4440, Note_on_c, 3, 69, 100
5, 4548, Note_on_c, 3, 69, 0
5, 4560, Note_on_c, 3, 74, 100
5, 4668, Note_on_c, 3, 74, 0
5, 4680, Note_on_c, 3, 71, 100
5, 4788, Note_on_c, 3, 71, 0
5, 4800, Note_on_c, 3, 72, 100
5, 4908, Note_on_c, 3, 72, 0
5, 4920, Note_on_c, 3, 76, 100
5, 5028, Note_on_c, 3, 76, 0
5, 5040, Note_on_c, 3, 76, 100
5, 5148, Note_on_c, 3, 76, 0
5, 5160, Note_on_c, 3, 69, 100
5, 5268, Note_on_c, 3, 69, 0
5, 5280, Note_on_c, 3, 69, 100
5, 5388, Note_on_c, 3, 69, 0
5, 5400, Note_on_c, 3, 74, 100
5, 5508, Note_on_c, 3, 74, 0
5, 5520, Note_on_c, 3, 74, 100
5, 5628, Note_on_c, 3, 74, 0
5, 5640, Note_on_c, 3, 71, 100
5, 5748, Note_on_c, 3, 71, 0
5, 5760, Note_on_c, 3, 64, 100
5, 5868, Note_on_c, 3, 64, 0
5, 5880, Note_on_c, 3, 62, 100
5, 5988, Note_on_c, 3, 62, 0
5, 6000, Note_on_c, 3, 69, 100
5, 6108, Note_on_c, 3, 69, 0
5, 6120, Note_on_c, 3, 65, 100
5, 6228, Note_on_c, 3, 65, 0
5, 6240, Note_on_c, 3, 59, 100
5, 6276, Note_on_c, 3, 59, 0
5, 6280, Note_on_c, 3, 60, 100
5, 6316, Note_on_c, 3, 60, 0
5, 6320, Note_on_c, 3, 62, 100
5, 6356, Note_on_c, 3, 62, 0
5, 6360, Note_on_c, 3, 59, 100
5, 6396, Note_on_c, 3, 59, 0
5, 6400, Note_on_c, 3, 60, 100
5, 6436, Note_on_c, 3, 60, 0
5, 6440, Note_on_c, 3, 62, 100
5, 6476, Note_on_c, 3, 62, 0
5, 6480, Note_on_c, 3, 64, 100
5, 6588, Note_on_c, 3, 64, 0
5, 6600, Note_on_c, 3, 68, 100
5, 6708, Note_on_c, 3, 68, 0
5, 6720, Note_on_c, 3, 69, 100
5, 6828, Note_on_c, 3, 69, 0
5, 6840, Note_on_c, 3, 71, 100
5, 6948, Note_on_c, 3, 71, 0
5, 6960, Note_on_c, 3, 72, 100
5, 7068, Note_on_c, 3, 72, 0
5, 7080, Note_on_c, 3, 71, 100
5, 7188, Note_on_c, 3, 71, 0
5, 7200, Note_on_c, 3, 69, 100
5, 7308, Note_on_c, 3, 69, 0
5, 7320, Note_on_c, 3, 57, 100
5, 7428, Note_on_c, 3, 57, 0
5, 7440, Note_on_c, 3, 57, 100
5, 7548, Note_on_c, 3, 57, 0
5, 7560, Note_on_c, 3, 56, 100
5, 7668, Note_on_c, 3, 56, 0
5, 7680, Note_on_c, 3, 57, 100
5, 7896, Note_on_c, 3, 57, 0
5, 8280, Note_on_c, 3, 60, 100
5, 8388, Note_on_c, 3, 60, 0
5, 8400, Note_on_c, 3, 57, 100
5, 8508, Note_on_c, 3, 57, 0
5, 8520, Note_on_c, 3, 64, 100
5, 8628, Note_on_c, 3, 64, 0
5, 8640, Note_on_c, 3, 60, 100
5, 8748, Note_on_c, 3, 60, 0
5, 9240, Note_on_c, 3, 72, 100
5, 9348, Note_on_c, 3, 72, 0
5, 9360, Note_on_c, 3, 76, 100
5, 9468, Note_on_c, 3, 76, 0
5, 9480, Note_on_c, 3, 76, 100
5, 9588, Note_on_c, 3, 76, 0
5, 9600, Note_on_c, 3, 76, 100
5, 9708, Note_on_c, 3, 76, 0
5, 13080, Note_on_c, 3, 69, 100
5, 13188, Note_on_c, 3, 69, 0
5, 13200, Note_on_c, 3, 64, 100
5, 13308, Note_on_c, 3, 64, 0
5, 13320, Note_on_c, 3, 64, 100
5, 13428, Note_on_c, 3, 64, 0
5, 13440, Note_on_c, 3, 64, 100
5, 13548, Note_on_c, 3, 64, 0
5, 13560, Note_on_c, 3, 57, 100
5, 13668, Note_on_c, 3, 57, 0
5, 13680, Note_on_c, 3, 56, 100
5, 13788, Note_on_c, 3, 56, 0
5, 13800, Note_on_c, 3, 57, 100
5, 13908, Note_on_c, 3, 57, 0
5, 13920, Note_on_c, 3, 59, 100
5, 14028, Note_on_c, 3, 59, 0
5, 14040, Note_on_c, 3, 64, 100
5, 14148, Note_on_c, 3, 64, 0
5, 14160, Note_on_c, 3, 64, 100
5, 14268, Note_on_c, 3, 64, 0
5, 14280, Note_on_c, 3, 57, 100
5, 14388, Note_on_c, 3, 57, 0
5, 14400, Note_on_c, 3, 59, 100
5, 14508, Note_on_c, 3, 59, 0
5, 14760, Note_on_c, 3, 76, 100
5, 14868, Note_on_c, 3, 76, 0
5, 14880, Note_on_c, 3, 72, 100
5, 14988, Note_on_c, 3, 72, 0
5, 15240, Note_on_c, 3, 73, 100
5, 15348, Note_on_c, 3, 73, 0
5, 15360, Note_on_c, 3, 69, 100
5, 15468, Note_on_c, 3, 69, 0
5, 15720, Note_on_c, 3, 74, 100
5, 15828, Note_on_c, 3, 74, 0
5, 15840, Note_on_c, 3, 71, 100
5, 15948, Note_on_c, 3, 71, 0
5, 16200, Note_on_c, 3, 71, 100
5, 16308, Note_on_c, 3, 71, 0
5, 16320, Note_on_c, 3, 64, 100
5, 16428, Note_on_c, 3, 64, 0
5, 16440, Note_on_c, 3, 76, 100
5, 16548, Note_on_c, 3, 76, 0
5, 16560, Note_on_c, 3, 76, 100
5, 16668, Note_on_c, 3, 76, 0
5, 16680, Note_on_c, 3, 69, 100
5, 16788, Note_on_c, 3, 69, 0
5, 16800, Note_on_c, 3, 69, 100
5, 16908, Note_on_c, 3, 69, 0
5, 16920, Note_on_c, 3, 74, 100
5, 17028, Note_on_c, 3, 74, 0
5, 17040, Note_on_c, 3, 74, 100
5, 17148, Note_on_c, 3, 74, 0
5, 17160, Note_on_c, 3, 71, 100
5, 17268, Note_on_c, 3, 71, 0
5, 17280, Note_on_c, 3, 64, 100
5, 17388, Note_on_c, 3, 64, 0
5, 17400, Note_on_c, 3, 69, 100
5, 17508, Note_on_c, 3, 69, 0
5, 17520, Note_on_c, 3, 76, 100
5, 17628, Note_on_c, 3, 76, 0
5, 17640, Note_on_c, 3, 72, 100
5, 17748, Note_on_c, 3, 72, 0
5, 17760, Note_on_c, 3, 66, 100
5, 17796, Note_on_c, 3, 66, 0
5, 17800, Note_on_c, 3, 67, 100
5, 17836, Note_on_c, 3, 67, 0
5, 17840, Note_on_c, 3, 69, 100
5, 17876, Note_on_c, 3, 69, 0
5, 17880, Note_on_c, 3, 66, 100
5, 17916, Note_on_c, 3, 66, 0
5, 17920, Note_on_c, 3, 67, 100
5, 17956, Note_on_c, 3, 67, 0
5, 17960, Note_on_c, 3, 69, 100
5, 17996, Note_on_c, 3, 69, 0
5, 18000, Note_on_c, 3, 71, 100
5, 18108, Note_on_c, 3, 71, 0
5, 18120, Note_on_c, 3, 75, 100
5, 18228, Note_on_c, 3, 75, 0
5, 18240, Note_on_c, 3, 76, 100
5, 18348, Note_on_c, 3, 76, 0
5, 18360, Note_on_c, 3, 78, 100
5, 18468, Note_on_c, 3, 78, 0
5, 18480, Note_on_c, 3, 79, 100
5, 18588, Note_on_c, 3, 79, 0
5, 18600, Note_on_c, 3, 78, 100
5, 18708, Note_on_c, 3, 78, 0
5, 18720, Note_on_c, 3, 76, 100
5, 18828, Note_on_c, 3, 76, 0
5, 18840, Note_on_c, 3, 64, 100
5, 18948, Note_on_c, 3, 64, 0
5, 18960, Note_on_c, 3, 64, 100
5, 19068, Note_on_c, 3, 64, 0
5, 19080, Note_on_c, 3, 63, 100
5, 19188, Note_on_c, 3, 63, 0
5, 19200, Note_on_c, 3, 59, 100
5, 19308, Note_on_c, 3, 59, 0
5, 19800, Note_on_c, 3, 55, 100
5, 19854, Note_on_c, 3, 55, 0
5, 19860, Note_on_c, 3, 57, 100
5, 19914, Note_on_c, 3, 57, 0
5, 19920, Note_on_c, 3, 59, 100
5, 20028, Note_on_c, 3, 59, 0
5, 20040, Note_on_c, 3, 59, 100
5, 20121, Note_on_c, 3, 59, 0
5, 20130, Note_on_c, 3, 57, 100
5, 20157, Note_on_c, 3, 57, 0
5, 20160, Note_on_c, 3, 55, 100
5, 20268, Note_on_c, 3, 55, 0
5, 20760, Note_on_c, 3, 67, 100
5, 20868, Note_on_c, 3, 67, 0
5, 20880, Note_on_c, 3, 71, 100
5, 20988, Note_on_c, 3, 71, 0
5, 21000, Note_on_c, 3, 71, 100
5, 21108, Note_on_c, 3, 71, 0
5, 21120, Note_on_c, 3, 71, 100
5, 21228, Note_on_c, 3, 71, 0
5, 21480, Note_on_c, 3, 68, 100
5, 21588, Note_on_c, 3, 68, 0
5, 21600, Note_on_c, 3, 64, 100
5, 21708, Note_on_c, 3, 64, 0
5, 21960, Note_on_c, 3, 66, 100
5, 22068, Note_on_c, 3, 66, 0
5, 22080, Note_on_c, 3, 62, 100
5, 22188, Note_on_c, 3, 62, 0
5, 23700, Note_on_c, 3, 64, 100
5, 23754, Note_on_c, 3, 64, 0
5, 23760, Note_on_c, 3, 71, 100
5, 23868, Note_on_c, 3, 71, 0
5, 23880, Note_on_c, 3, 75, 100
5, 23988, Note_on_c, 3, 75, 0
5, 24000, Note_on_c, 3, 76, 100
5, 24864, Note_on_c, 3, 76, 0
5, 24960, Note_on_c, 3, 74, 100
5, 25824, Note_on_c, 3, 74, 0
5, 25920, Note_on_c, 3, 72, 100
5, 26028, Note_on_c, 3, 72, 0
5, 26400, Note_on_c, 3, 76, 100
5, 26508, Note_on_c, 3, 76, 0
5, 26880, Note_on_c, 3, 76, 100
5, 26988, Note_on_c, 3, 76, 0
5, 27360, Note_on_c, 3, 64, 100
5, 27468, Note_on_c, 3, 64, 0
5, 27840, Note_on_c, 3, 64, 100
5, 27948, Note_on_c, 3, 64, 0
5, 28320, Note_on_c, 3, 64, 100
5, 28428, Note_on_c, 3, 64, 0
5, 28800, Note_on_c, 3, 71, 100
5, 28908, Note_on_c, 3, 71, 0
5, 29400, Note_on_c, 3, 76, 100
5, 29508, Note_on_c, 3, 76, 0
5, 29520, Note_on_c, 3, 76, 100
5, 29628, Note_on_c, 3, 76, 0
5, 29640, Note_on_c, 3, 71, 100
5, 29748, Note_on_c, 3, 71, 0
5, 29760, Note_on_c, 3, 69, 100
5, 29868, Note_on_c, 3, 69, 0
5, 30120, Note_on_c, 3, 64, 100
5, 30228, Note_on_c, 3, 64, 0
5, 30240, Note_on_c, 3, 65, 100
5, 30348, Note_on_c, 3, 65, 0
5, 30600, Note_on_c, 3, 69, 100
5, 30708, Note_on_c, 3, 69, 0
5, 30720, Note_on_c, 3, 68, 100
5, 30828, Note_on_c, 3, 68, 0
5, 31080, Note_on_c, 3, 69, 100
5, 31188, Note_on_c, 3, 69, 0
5, 31200, Note_on_c, 3, 71, 100
5, 31308, Note_on_c, 3, 71, 0
5, 31560, Note_on_c, 3, 71, 100
5, 31668, Note_on_c, 3, 71, 0
5, 31680, Note_on_c, 3, 68, 100
5, 31788, Note_on_c, 3, 68, 0
5, 32040, Note_on_c, 3, 74, 100
5, 32268, Note_on_c, 3, 74, 0
5, 32280, Note_on_c, 3, 72, 100
5, 32388, Note_on_c, 3, 72, 0
5, 32400, Note_on_c, 3, 71, 100
5, 32508, Note_on_c, 3, 71, 0
5, 32520, Note_on_c, 3, 76, 100
5, 32628, Note_on_c, 3, 76, 0
5, 32640, Note_on_c, 3, 64, 100
5, 32748, Note_on_c, 3, 64, 0
5, 32760, Note_on_c, 3, 65, 100
5, 32868, Note_on_c, 3, 65, 0
5, 32880, Note_on_c, 3, 64, 100
5, 32988, Note_on_c, 3, 64, 0
5, 33000, Note_on_c, 3, 65, 100
5, 33108, Note_on_c, 3, 65, 0
5, 33120, Note_on_c, 3, 64, 100
5, 33228, Note_on_c, 3, 64, 0
5, 33240, Note_on_c, 3, 69, 100
5, 33348, Note_on_c, 3, 69, 0
5, 33360, Note_on_c, 3, 69, 100
5, 33468, Note_on_c, 3, 69, 0
5, 33480, Note_on_c, 3, 62, 100
5, 33588, Note_on_c, 3, 62, 0
5, 33600, Note_on_c, 3, 64, 100
5, 33708, Note_on_c, 3, 64, 0
5, 34200, Note_on_c, 3, 65, 100
5, 34308, Note_on_c, 3, 65, 0
5, 34320, Note_on_c, 3, 61, 100
5, 34428, Note_on_c, 3, 61, 0
5, 34440, Note_on_c, 3, 62, 100
5, 34548, Note_on_c, 3, 62, 0
5, 34560, Note_on_c, 3, 57, 100
5, 34668, Note_on_c, 3, 57, 0
5, 34920, Note_on_c, 3, 69, 100
5, 35028, Note_on_c, 3, 69, 0
5, 35040, Note_on_c, 3, 69, 100
5, 35148, Note_on_c, 3, 69, 0
5, 35400, Note_on_c, 3, 62, 100
5, 35508, Note_on_c, 3, 62, 0
5, 35520, Note_on_c, 3, 74, 100
5, 35628, Note_on_c, 3, 74, 0
5, 35880, Note_on_c, 3, 67, 100
5, 35988, Note_on_c, 3, 67, 0
5, 36000, Note_on_c, 3, 67, 100
5, 36108, Note_on_c, 3, 67, 0
5, 36360, Note_on_c, 3, 72, 100
5, 36468, Note_on_c, 3, 72, 0
5, 36480, Note_on_c, 3, 72, 100
5, 36588, Note_on_c, 3, 72, 0
5, 36600, Note_on_c, 3, 74, 100
5, 36708, Note_on_c, 3, 74, 0
5, 36720, Note_on_c, 3, 74, 100
5, 36828, Note_on_c, 3, 74, 0
5, 36840, Note_on_c, 3, 74, 100
5, 36948, Note_on_c, 3, 74, 0
5, 36960, Note_on_c, 3, 67, 100
5, 37068, Note_on_c, 3, 67, 0
5, 37080, Note_on_c, 3, 69, 100
5, 37188, Note_on_c, 3, 69, 0
5, 37200, Note_on_c, 3, 69, 100
5, 37308, Note_on_c, 3, 69, 0
5, 37320, Note_on_c, 3, 69, 100
5, 37428, Note_on_c, 3, 69, 0
5, 37440, Note_on_c, 3, 69, 100
5, 37548, Note_on_c, 3, 69, 0
5, 37560, Note_on_c, 3, 74, 100
5, 37668, Note_on_c, 3, 74, 0
5, 37680, Note_on_c, 3, 69, 100
5, 37788, Note_on_c, 3, 69, 0
5, 37800, Note_on_c, 3, 65, 100
5, 37908, Note_on_c, 3, 65, 0
5, 37920, Note_on_c, 3, 59, 100
5, 37956, Note_on_c, 3, 59, 0
5, 37960, Note_on_c, 3, 60, 100
5, 37996, Note_on_c, 3, 60, 0
5, 38000, Note_on_c, 3, 62, 100
5, 38036, Note_on_c, 3, 62, 0
5, 38040, Note_on_c, 3, 59, 100
5, 38076, Note_on_c, 3, 59, 0
5, 38080, Note_on_c, 3, 60, 100
5, 38116, Note_on_c, 3, 60, 0
5, 38120, Note_on_c, 3, 62, 100
5, 38156, Note_on_c, 3, 62, 0
5, 38160, Note_on_c, 3, 64, 100
5, 38268, Note_on_c, 3, 64, 0
5, 38280, Note_on_c, 3, 68, 100
5, 38388, Note_on_c, 3, 68, 0
5, 38400, Note_on_c, 3, 69, 100
5, 38508, Note_on_c, 3, 69, 0
5, 38520, Note_on_c, 3, 71, 100
5, 38628, Note_on_c, 3, 71, 0
5, 38640, Note_on_c, 3, 72, 100
5, 38748, Note_on_c, 3, 72, 0
5, 38760, Note_on_c, 3, 71, 100
5, 38868, Note_on_c, 3, 71, 0
5, 38880, Note_on_c, 3, 69, 100
5, 38988, Note_on_c, 3, 69, 0
5, 39000, Note_on_c, 3, 57, 100
5, 39108, Note_on_c, 3, 57, 0
5, 39120, Note_on_c, 3, 64, 100
5, 39228, Note_on_c, 3, 64, 0
5, 39240, Note_on_c, 3, 64, 100
5, 39348, Note_on_c, 3, 64, 0
5, 39360, Note_on_c, 3, 60, 100
5, 39468, Note_on_c, 3, 60, 0
5, 44760, Note_on_c, 3, 67, 100
5, 44868, Note_on_c, 3, 67, 0
5, 45000, Note_on_c, 3, 60, 100
5, 45108, Note_on_c, 3, 60, 0
5, 45240, Note_on_c, 3, 67, 100
5, 45348, Note_on_c, 3, 67, 0
5, 45480, Note_on_c, 3, 67, 100
5, 45588, Note_on_c, 3, 67, 0
5, 45720, Note_on_c, 3, 62, 100
5, 45828, Note_on_c, 3, 62, 0
5, 45960, Note_on_c, 3, 67, 100
5, 46068, Note_on_c, 3, 67, 0
5, 46080, Note_on_c, 3, 67, 100
5, 46188, Note_on_c, 3, 67, 0
5, 48600, Note_on_c, 3, 64, 100
5, 48708, Note_on_c, 3, 64, 0
5, 48720, Note_on_c, 3, 67, 100
5, 48828, Note_on_c, 3, 67, 0
5, 48840, Note_on_c, 3, 65, 100
5, 48948, Note_on_c, 3, 65, 0
5, 48960, Note_on_c, 3, 64, 100
5, 49176, Note_on_c, 3, 64, 0
5, 49200, Note_on_c, 3, 55, 100
5, 50028, Note_on_c, 3, 55, 0
5, 50280, Note_on_c, 3, 60, 100
5, 50388, Note_on_c, 3, 60, 0
5, 50400, Note_on_c, 3, 60, 100
5, 50508, Note_on_c, 3, 60, 0
5, 50760, Note_on_c, 3, 62, 100
5, 50868, Note_on_c, 3, 62, 0
5, 50880, Note_on_c, 3, 62, 100
5, 50988, Note_on_c, 3, 62, 0
5, 51240, Note_on_c, 3, 64, 100
5, 51348, Note_on_c, 3, 64, 0
5, 51360, Note_on_c, 3, 64, 100
5, 51468, Note_on_c, 3, 64, 0
5, 53880, Note_on_c, 3, 72, 100
5, 53988, Note_on_c, 3, 72, 0
5, 54000, Note_on_c, 3, 72, 100
5, 54108, Note_on_c, 3, 72, 0
5, 54120, Note_on_c, 3, 67, 100
5, 54228, Note_on_c, 3, 67, 0
5, 54360, Note_on_c, 3, 69, 100
5, 54468, Note_on_c, 3, 69, 0
5, 54480, Note_on_c, 3, 69, 100
5, 54588, Note_on_c, 3, 69, 0
5, 54600, Note_on_c, 3, 76, 100
5, 54708, Note_on_c, 3, 76, 0
5, 54840, Note_on_c, 3, 74, 100
5, 54948, Note_on_c, 3, 74, 0
5, 54960, Note_on_c, 3, 74, 100
5, 55068, Note_on_c, 3, 74, 0
5, 55080, Note_on_c, 3, 69, 100
5, 55188, Note_on_c, 3, 69, 0
5, 55320, Note_on_c, 3, 71, 100
5, 55428, Note_on_c, 3, 71, 0
5, 55440, Note_on_c, 3, 71, 100
5, 55548, Note_on_c, 3, 71, 0
5, 55560, Note_on_c, 3, 71, 100
5, 55668, Note_on_c, 3, 71, 0
5, 55680, Note_on_c, 3, 71, 100
5, 55788, Note_on_c, 3, 71, 0
5, 57240, Note_on_c, 3, 72, 100
5, 57276, Note_on_c, 3, 72, 0
5, 57280, Note_on_c, 3, 71, 100
5, 57316, Note_on_c, 3, 71, 0
5, 57320, Note_on_c, 3, 69, 100
5, 57356, Note_on_c, 3, 69, 0
5, 57360, Note_on_c, 3, 69, 100
5, 57396, Note_on_c, 3, 69, 0
5, 57400, Note_on_c, 3, 67, 100
5, 57436, Note_on_c, 3, 67, 0
5, 57440, Note_on_c, 3, 66, 100
5, 57476, Note_on_c, 3, 66, 0
5, 57480, Note_on_c, 3, 66, 100
5, 57516, Note_on_c, 3, 66, 0
5, 57520, Note_on_c, 3, 67, 100
5, 57556, Note_on_c, 3, 67, 0
5, 57560, Note_on_c, 3, 69, 100
5, 57596, Note_on_c, 3, 69, 0
5, 57600, Note_on_c, 3, 59, 100
5, 57708, Note_on_c, 3, 59, 0
5, 57960, Note_on_c, 3, 71, 100
5, 58068, Note_on_c, 3, 71, 0
5, 58080, Note_on_c, 3, 64, 100
5, 58188, Note_on_c, 3, 64, 0
5, 58320, Note_on_c, 3, 69, 100
5, 58428, Note_on_c, 3, 69, 0
5, 58560, Note_on_c, 3, 64, 100
5, 58668, Note_on_c, 3, 64, 0
5, 58800, Note_on_c, 3, 69, 100
5, 58908, Note_on_c, 3, 69, 0
5, 59040, Note_on_c, 3, 63, 100
5, 59148, Note_on_c, 3, 63, 0
5, 59280, Note_on_c, 3, 57, 100
5, 59388, Note_on_c, 3, 57, 0
5, 59520, Note_on_c, 3, 69, 100
5, 60384, Note_on_c, 3, 69, 0
5, 60480, Note_on_c, 3, 66, 100
5, 60696, Note_on_c, 3, 66, 0
5, 61050, Note_on_c, 3, 71, 100
5, 61077, Note_on_c, 3, 71, 0
5, 61080, Note_on_c, 3, 71, 100
5, 61161, Note_on_c, 3, 71, 0
5, 61170, Note_on_c, 3, 72, 100
5, 61197, Note_on_c, 3, 72, 0
5, 61200, Note_on_c, 3, 66, 100
5, 61308, Note_on_c, 3, 66, 0
5, 61320, Note_on_c, 3, 71, 100
5, 61428, Note_on_c, 3, 71, 0
5, 61440, Note_on_c, 3, 67, 100
5, 61548, Note_on_c, 3, 67, 0
5, 64440, Note_on_c, 3, 69, 100
5, 64548, Note_on_c, 3, 69, 0
5, 64560, Note_on_c, 3, 69, 100
5, 64668, Note_on_c, 3, 69, 0
5, 64680, Note_on_c, 3, 69, 100
5, 64788, Note_on_c, 3, 69, 0
5, 64920, Note_on_c, 3, 64, 100
5, 65028, Note_on_c, 3, 64, 0
5, 65040, Note_on_c, 3, 64, 100
5, 65148, Note_on_c, 3, 64, 0
5, 65160, Note_on_c, 3, 64, 100
5, 65268, Note_on_c, 3, 64, 0
5, 65400, Note_on_c, 3, 72, 100
5, 65508, Note_on_c, 3, 72, 0
5, 65520, Note_on_c, 3, 69, 100
5, 65628, Note_on_c, 3, 69, 0
5, 65640, Note_on_c, 3, 66, 100
5, 65748, Note_on_c, 3, 66, 0
5, 65880, Note_on_c, 3, 71, 100
5, 65988, Note_on_c, 3, 71, 0
5, 66000, Note_on_c, 3, 67, 100
5, 66108, Note_on_c, 3, 67, 0
5, 66120, Note_on_c, 3, 64, 100
5, 66228, Note_on_c, 3, 64, 0
5, 66360, Note_on_c, 3, 72, 100
5, 66396, Note_on_c, 3, 72, 0
5, 66400, Note_on_c, 3, 71, 100
5, 66436, Note_on_c, 3, 71, 0
5, 66440, Note_on_c, 3, 69, 100
5, 66476, Note_on_c, 3, 69, 0
5, 66480, Note_on_c, 3, 67, 100
5, 66516, Note_on_c, 3, 67, 0
5, 66520, Note_on_c, 3, 66, 100
5, 66556, Note_on_c, 3, 66, 0
5, 66560, Note_on_c, 3, 64, 100
5, 66596, Note_on_c, 3, 64, 0
5, 66600, Note_on_c, 3, 63, 100
5, 66636, Note_on_c, 3, 63, 0
5, 66640, Note_on_c, 3, 64, 100
5, 66676, Note_on_c, 3, 64, 0
5, 66680, Note_on_c, 3, 66, 100
5, 66716, Note_on_c, 3, 66, 0
5, 66720, Note_on_c, 3, 59, 100
5, 66828, Note_on_c, 3, 59, 0
5, 67380, Note_on_c, 3, 72, 100
5, 67434, Note_on_c, 3, 72, 0
5, 67440, Note_on_c, 3, 71, 100
5, 67548, Note_on_c, 3, 71, 0
5, 67560, Note_on_c, 3, 71, 100
5, 67668, Note_on_c, 3, 71, 0
5, 67680, Note_on_c, 3, 64, 100
5, 67788, Note_on_c, 3, 64, 0
5, 68040, Note_on_c, 3, 71, 100
5, 68148, Note_on_c, 3, 71, 0
5, 68160, Note_on_c, 3, 72, 100
5, 68268, Note_on_c, 3, 72, 0
5, 68520, Note_on_c, 3, 67, 100
5, 68628, Note_on_c, 3, 67, 0
5, 68640, Note_on_c, 3, 61, 100
5, 68748, Note_on_c, 3, 61, 0
5, 69000, Note_on_c, 3, 73, 100
5, 69108, Note_on_c, 3, 73, 0
5, 69120, Note_on_c, 3, 78, 100
5, 69228, Note_on_c, 3, 78, 0
5, 69720, Note_on_c, 3, 76, 100
5, 69828, Note_on_c, 3, 76, 0
5, 69840, Note_on_c, 3, 76, 100
5, 69948, Note_on_c, 3, 76, 0
5, 69960, Note_on_c, 3, 75, 100
5, 70068, Note_on_c, 3, 75, 0
5, 70080, Note_on_c, 3, 71, 100
5, 70188, Note_on_c, 3, 71, 0
5, 70200, Note_on_c, 3, 64, 100
5, 70254, Note_on_c, 3, 64, 0
5, 70260, Note_on_c, 3, 66, 100
5, 70314, Note_on_c, 3, 66, 0
5, 70320, Note_on_c, 3, 67, 100
5, 70374, Note_on_c, 3, 67, 0
5, 70380, Note_on_c, 3, 71, 100
5, 70434, Note_on_c, 3, 71, 0
5, 70440, Note_on_c, 3, 69, 100
5, 70494, Note_on_c, 3, 69, 0
5, 70500, Note_on_c, 3, 66, 100
5, 70554, Note_on_c, 3, 66, 0
5, 70560, Note_on_c, 3, 67, 100
5, 70596, Note_on_c, 3, 67, 0
5, 70600, Note_on_c, 3, 66, 100
5, 70636, Note_on_c, 3, 66, 0
5, 70640, Note_on_c, 3, 64, 100
5, 70676, Note_on_c, 3, 64, 0
5, 70680, Note_on_c, 3, 72, 100
5, 70788, Note_on_c, 3, 72, 0
5, 70800, Note_on_c, 3, 66, 100
5, 70836, Note_on_c, 3, 66, 0
5, 70840, Note_on_c, 3, 64, 100
5, 70876, Note_on_c, 3, 64, 0
5, 70880, Note_on_c, 3, 66, 100
5, 70916, Note_on_c, 3, 66, 0
5, 70920, Note_on_c, 3, 68, 100
5, 70956, Note_on_c, 3, 68, 0
5, 70960, Note_on_c, 3, 66, 100
5, 70996, Note_on_c, 3, 66, 0
5, 71000, Note_on_c, 3, 68, 100
5, 71036, Note_on_c, 3, 68, 0
5, 71040, Note_on_c, 3, 69, 100
5, 71094, Note_on_c, 3, 69, 0
5, 71100, Note_on_c, 3, 57, 100
5, 71154, Note_on_c, 3, 57, 0
5, 71160, Note_on_c, 3, 60, 100
5, 71214, Note_on_c, 3, 60, 0
5, 71220, Note_on_c, 3, 64, 100
5, 71274, Note_on_c, 3, 64, 0
5, 71280, Note_on_c, 3, 69, 100
5, 71316, Note_on_c, 3, 69, 0
5, 71320, Note_on_c, 3, 71, 100
5, 71356, Note_on_c, 3, 71, 0
5, 71360, Note_on_c, 3, 72, 100
5, 71396, Note_on_c, 3, 72, 0
5, 71400, Note_on_c, 3, 71, 100
5, 71436, Note_on_c, 3, 71, 0
5, 71440, Note_on_c, 3, 69, 100
5, 71476, Note_on_c, 3, 69, 0
5, 71480, Note_on_c, 3, 68, 100
5, 71516, Note_on_c, 3, 68, 0
5, 71520, Note_on_c, 3, 69, 100
5, 71628, Note_on_c, 3, 69, 0
5, 71640, Note_on_c, 3, 60, 100
5, 71748, Note_on_c, 3, 60, 0
5, 71760, Note_on_c, 3, 64, 100
5, 71868, Note_on_c, 3, 64, 0
5, 71880, Note_on_c, 3, 64, 100
5, 71988, Note_on_c, 3, 64, 0
5, 72000, Note_on_c, 3, 64, 100
5, 72108, Note_on_c, 3, 64, 0
5, 72600, Note_on_c, 3, 72, 100
5, 72681, Note_on_c, 3, 72, 0
5, 72690, Note_on_c, 3, 72, 100
5, 72717, Note_on_c, 3, 72, 0
5, 72720, Note_on_c, 3, 72, 100
5, 72756, Note_on_c, 3, 72, 0
5, 72760, Note_on_c, 3, 71, 100
5, 72796, Note_on_c, 3, 71, 0
5, 72800, Note_on_c, 3, 69, 100
5, 72836, Note_on_c, 3, 69, 0
5, 72840, Note_on_c, 3, 71, 100
5, 72876, Note_on_c, 3, 71, 0
5, 72880, Note_on_c, 3, 72, 100
5, 72916, Note_on_c, 3, 72, 0
5, 72920, Note_on_c, 3, 74, 100
5, 72956, Note_on_c, 3, 74, 0
5, 72960, Note_on_c, 3, 72, 100
5, 73068, Note_on_c, 3, 72, 0
5, 74520, Note_on_c, 3, 62, 100
5, 74574, Note_on_c, 3, 62, 0
5, 74580, Note_on_c, 3, 64, 100
5, 74634, Note_on_c, 3, 64, 0
5, 74640, Note_on_c, 3, 65, 100
5, 74694, Note_on_c, 3, 65, 0
5, 74700, Note_on_c, 3, 69, 100
5, 74754, Note_on_c, 3, 69, 0
5, 74760, Note_on_c, 3, 67, 100
5, 74814, Note_on_c, 3, 67, 0
5, 74820, Note_on_c, 3, 64, 100
5, 74874, Note_on_c, 3, 64, 0
5, 74880, Note_on_c, 3, 65, 100
5, 74916, Note_on_c, 3, 65, 0
5, 74920, Note_on_c, 3, 64, 100
5, 74956, Note_on_c, 3, 64, 0
5, 74960, Note_on_c, 3, 62, 100
5, 74996, Note_on_c, 3, 62, 0
5, 75000, Note_on_c, 3, 74, 100
5, 75216, Note_on_c, 3, 74, 0
5, 75240, Note_on_c, 3, 73, 100
5, 75348, Note_on_c, 3, 73, 0
5, 75360, Note_on_c, 3, 74, 100
5, 75468, Note_on_c, 3, 74, 0
5, 75480, Note_on_c, 3, 69, 100
5, 75588, Note_on_c, 3, 69, 0
5, 75600, Note_on_c, 3, 67, 100
5, 75708, Note_on_c, 3, 67, 0
5, 75720, Note_on_c, 3, 64, 100
5, 75828, Note_on_c, 3, 64, 0
5, 75840, Note_on_c, 3, 62, 100
5, 75894, Note_on_c, 3, 62, 0
5, 75900, Note_on_c, 3, 64, 100
5, 75954, Note_on_c, 3, 64, 0
5, 75960, Note_on_c, 3, 65, 100
5, 76014, Note_on_c, 3, 65, 0
5, 76020, Note_on_c, 3, 67, 100
5, 76074, Note_on_c, 3, 67, 0
5, 76080, Note_on_c, 3, 69, 100
5, 76134, Note_on_c, 3, 69, 0
5, 76140, Note_on_c, 3, 70, 100
5, 76194, Note_on_c, 3, 70, 0
5, 76200, Note_on_c, 3, 72, 100
5, 76254, Note_on_c, 3, 72, 0
5, 76260, Note_on_c, 3, 74, 100
5, 76314, Note_on_c, 3, 74, 0
5, 76320, Note_on_c, 3, 62, 100
5, 76428, Note_on_c, 3, 62, 0
5, 76440, Note_on_c, 3, 70, 100
5, 76548, Note_on_c, 3, 70, 0
5, 76560, Note_on_c, 3, 70, 100
5, 76668, Note_on_c, 3, 70, 0
5, 76680, Note_on_c, 3, 70, 100
5, 76788, Note_on_c, 3, 70, 0
5, 76800, Note_on_c, 3, 69, 100
5, 76908, Note_on_c, 3, 69, 0
5, 76920, Note_on_c, 3, 64, 100
5, 76974, Note_on_c, 3, 64, 0
5, 76980, Note_on_c, 3, 65, 100
5, 77034, Note_on_c, 3, 65, 0
5, 77040, Note_on_c, 3, 67, 100
5, 77094, Note_on_c, 3, 67, 0
5, 77100, Note_on_c, 3, 70, 100
5, 77154, Note_on_c, 3, 70, 0
5, 77160, Note_on_c, 3, 69, 100
5, 77214, Note_on_c, 3, 69, 0
5, 77220, Note_on_c, 3, 64, 100
5, 77274, Note_on_c, 3, 64, 0
5, 77280, Note_on_c, 3, 65, 100
5, 77388, Note_on_c, 3, 65, 0
5, 77640, Note_on_c, 3, 62, 100
5, 77748, Note_on_c, 3, 62, 0
5, 77760, Note_on_c, 3, 67, 100
5, 77868, Note_on_c, 3, 67, 0
5, 78120, Note_on_c, 3, 66, 100
5, 78228, Note_on_c, 3, 66, 0
5, 78240, Note_on_c, 3, 62, 100
5, 78348, Note_on_c, 3, 62, 0
5, 78360, Note_on_c, 3, 74, 100
5, 78468, Note_on_c, 3, 74, 0
5, 78480, Note_on_c, 3, 70, 100
5, 78588, Note_on_c, 3, 70, 0
5, 78600, Note_on_c, 3, 69, 100
5, 78708, Note_on_c, 3, 69, 0
5, 78720, Note_on_c, 3, 67, 100
5, 78828, Note_on_c, 3, 67, 0
5, 78840, Note_on_c, 3, 67, 100
5, 78948, Note_on_c, 3, 67, 0
5, 78960, Note_on_c, 3, 68, 100
5, 79068, Note_on_c, 3, 68, 0
5, 79080, Note_on_c, 3, 69, 100
5, 79188, Note_on_c, 3, 69, 0
5, 79200, Note_on_c, 3, 71, 100
5, 79308, Note_on_c, 3, 71, 0
5, 79560, Note_on_c, 3, 71, 100
5, 79668, Note_on_c, 3, 71, 0
5, 79680, Note_on_c, 3, 64, 100
5, 79788, Note_on_c, 3, 64, 0
5, 80040, Note_on_c, 3, 64, 100
5, 80148, Note_on_c, 3, 64, 0
5, 80160, Note_on_c, 3, 64, 100
5, 80268, Note_on_c, 3, 64, 0
5, 80280, Note_on_c, 3, 64, 100
5, 80388, Note_on_c, 3, 64, 0
5, 80400, Note_on_c, 3, 69, 100
5, 80508, Note_on_c, 3, 69, 0
5, 80520, Note_on_c, 3, 68, 100
5, 80628, Note_on_c, 3, 68, 0
5, 80640, Note_on_c, 3, 69, 100
5, 80748, Note_on_c, 3, 69, 0
5, 80760, Note_on_c, 3, 69, 100
5, 80868, Note_on_c, 3, 69, 0
5, 80880, Note_on_c, 3, 70, 100
5, 80988, Note_on_c, 3, 70, 0
5, 81000, Note_on_c, 3, 64, 100
5, 81108, Note_on_c, 3, 64, 0
5, 81120, Note_on_c, 3, 65, 100
5, 81228, Note_on_c, 3, 65, 0
5, 81480, Note_on_c, 3, 76, 100
5, 81588, Note_on_c, 3, 76, 0
5, 81600, Note_on_c, 3, 77, 100
5, 81708, Note_on_c, 3, 77, 0
5, 81960, Note_on_c, 3, 73, 100
5, 82068, Note_on_c, 3, 73, 0
5, 82080, Note_on_c, 3, 69, 100
5, 82188, Note_on_c, 3, 69, 0
5, 82440, Note_on_c, 3, 70, 100
5, 82548, Note_on_c, 3, 70, 0
5, 82560, Note_on_c, 3, 69, 100
5, 82668, Note_on_c, 3, 69, 0
5, 82680, Note_on_c, 3, 64, 100
5, 82788, Note_on_c, 3, 64, 0
5, 82800, Note_on_c, 3, 69, 100
5, 82908, Note_on_c, 3, 69, 0
5, 82920, Note_on_c, 3, 69, 100
5, 83028, Note_on_c, 3, 69, 0
5, 83040, Note_on_c, 3, 69, 100
5, 83148, Note_on_c, 3, 69, 0
5, 84520, Note_on_c, 3, 61, 100
5, 84556, Note_on_c, 3, 61, 0
5, 84560, Note_on_c, 3, 62, 100
5, 84596, Note_on_c, 3, 62, 0
5, 84600, Note_on_c, 3, 64, 100
5, 84636, Note_on_c, 3, 64, 0
5, 84640, Note_on_c, 3, 62, 100
5, 84676, Note_on_c, 3, 62, 0
5, 84680, Note_on_c, 3, 64, 100
5, 84716, Note_on_c, 3, 64, 0
5, 84720, Note_on_c, 3, 57, 100
5, 84756, Note_on_c, 3, 57, 0
5, 84760, Note_on_c, 3, 64, 100
5, 84796, Note_on_c, 3, 64, 0
5, 84800, Note_on_c, 3, 65, 100
5, 84836, Note_on_c, 3, 65, 0
5, 84840, Note_on_c, 3, 67, 100
5, 84876, Note_on_c, 3, 67, 0
5, 84880, Note_on_c, 3, 65, 100
5, 84916, Note_on_c, 3, 65, 0
5, 84920, Note_on_c, 3, 64, 100
5, 84956, Note_on_c, 3, 64, 0
5, 84960, Note_on_c, 3, 65, 100
5, 84996, Note_on_c, 3, 65, 0
5, 85000, Note_on_c, 3, 65, 100
5, 85036, Note_on_c, 3, 65, 0
5, 85040, Note_on_c, 3, 67, 100
5, 85076, Note_on_c, 3, 67, 0
5, 85080, Note_on_c, 3, 69, 100
5, 85116, Note_on_c, 3, 69, 0
5, 85120, Note_on_c, 3, 67, 100
5, 85156, Note_on_c, 3, 67, 0
5, 85160, Note_on_c, 3, 69, 100
5, 85196, Note_on_c, 3, 69, 0
5, 85200, Note_on_c, 3, 62, 100
5, 85236, Note_on_c, 3, 62, 0
5, 85240, Note_on_c, 3, 69, 100
5, 85276, Note_on_c, 3, 69, 0
5, 85280, Note_on_c, 3, 70, 100
5, 85316, Note_on_c, 3, 70, 0
5, 85320, Note_on_c, 3, 72, 100
5, 85356, Note_on_c, 3, 72, 0
5, 85360, Note_on_c, 3, 70, 100
5, 85396, Note_on_c, 3, 70, 0
5, 85400, Note_on_c, 3, 69, 100
5, 85436, Note_on_c, 3, 69, 0
5, 85440, Note_on_c, 3, 70, 100
5, 85548, Note_on_c, 3, 70, 0
5, 85560, Note_on_c, 3, 71, 100
5, 85668, Note_on_c, 3, 71, 0
5, 85800, Note_on_c, 3, 71, 100
5, 85908, Note_on_c, 3, 71, 0
5, 85920, Note_on_c, 3, 67, 100
5, 86028, Note_on_c, 3, 67, 0
5, 86040, Note_on_c, 3, 64, 100
5, 86148, Note_on_c, 3, 64, 0
5, 86280, Note_on_c, 3, 67, 100
5, 86388, Note_on_c, 3, 67, 0
5, 86400, Note_on_c, 3, 65, 100
5, 86508, Note_on_c, 3, 65, 0
5, 87930, Note_on_c, 3, 74, 100
5, 87957, Note_on_c, 3, 74, 0
5, 87960, Note_on_c, 3, 74, 100
5, 88041, Note_on_c, 3, 74, 0
5, 88050, Note_on_c, 3, 70, 100
5, 88077, Note_on_c, 3, 70, 0
5, 88080, Note_on_c, 3, 69, 100
5, 88188, Note_on_c, 3, 69, 0
5, 88200, Note_on_c, 3, 69, 100
5, 88308, Note_on_c, 3, 69, 0
5, 88320, Note_on_c, 3, 69, 100
5, 88428, Note_on_c, 3, 69, 0
5, 89280, Note_on_c, 3, 62, 100
5, 89280, Note_on_c, 3, 65, 100
5, 89280, Note_on_c, 3, 71, 100
5, 89388, Note_on_c, 3, 62, 0
5, 89388, Note_on_c, 3, 65, 0
5, 89388, Note_on_c, 3, 71, 0
5, 90240, Note_on_c, 3, 69, 100
5, 90348, Note_on_c, 3, 69, 0
5, 90840, Note_on_c, 3, 57, 100
5, 90894, Note_on_c, 3, 57, 0
5, 90900, Note_on_c, 3, 59, 100
5, 90954, Note_on_c, 3, 59, 0
5, 90960, Note_on_c, 3, 60, 100
5, 91014, Note_on_c, 3, 60, 0
5, 91020, Note_on_c, 3, 64, 100
5, 91074, Note_on_c, 3, 64, 0
5, 91080, Note_on_c, 3, 62, 100
5, 91134, Note_on_c, 3, 62, 0
5, 91140, Note_on_c, 3, 59, 100
5, 91194, Note_on_c, 3, 59, 0
5, 91200, Note_on_c, 3, 60, 100
5, 91254, Note_on_c, 3, 60, 0
5, 91260, Note_on_c, 3, 57, 100
5, 91314, Note_on_c, 3, 57, 0
5, 91320, Note_on_c, 3, 60, 100
5, 91374, Note_on_c, 3, 60, 0
5, 91380, Note_on_c, 3, 64, 100
5, 91434, Note_on_c, 3, 64, 0
5, 91440, Note_on_c, 3, 69, 100
5, 91476, Note_on_c, 3, 69, 0
5, 91480, Note_on_c, 3, 71, 100
5, 91516, Note_on_c, 3, 71, 0
5, 91520, Note_on_c, 3, 72, 100
5, 91556, Note_on_c, 3, 72, 0
5, 91560, Note_on_c, 3, 71, 100
5, 91596, Note_on_c, 3, 71, 0
5, 91600, Note_on_c, 3, 69, 100
5, 91636, Note_on_c, 3, 69, 0
5, 91640, Note_on_c, 3, 68, 100
5, 91676, Note_on_c, 3, 68, 0
5, 91680, Note_on_c, 3, 69, 100
5, 91788, Note_on_c, 3, 69, 0
5, 91800, Note_on_c, 3, 69, 100
5, 91908, Note_on_c, 3, 69, 0
5, 91920, Note_on_c, 3, 69, 100
5, 92028, Note_on_c, 3, 69, 0
5, 92040, Note_on_c, 3, 65, 100
5, 92148, Note_on_c, 3, 65, 0
5, 92160, Note_on_c, 3, 64, 100
5, 92268, Note_on_c, 3, 64, 0
5, 93120, Note_on_c, 3, 60, 100
5, 93120, Note_on_c, 3, 66, 100
5, 93120, Note_on_c, 3, 69, 100
5, 93228, Note_on_c, 3, 60, 0
5, 93228, Note_on_c, 3, 66, 0
5, 93228, Note_on_c, 3, 69, 0
5, 94080, Note_on_c, 3, 67, 100
5, 94188, Note_on_c, 3, 67, 0
5, 94680, Note_on_c, 3, 64, 100
5, 94734, Note_on_c, 3, 64, 0
5, 94740, Note_on_c, 3, 66, 100
5, 94794, Note_on_c, 3, 66, 0
5, 94800, Note_on_c, 3, 67, 100
5, 94854, Note_on_c, 3, 67, 0
5, 94860, Note_on_c, 3, 71, 100
5, 94914, Note_on_c, 3, 71, 0
5, 94920, Note_on_c, 3, 69, 100
5, 94974, Note_on_c, 3, 69, 0
5, 94980, Note_on_c, 3, 66, 100
5, 95034, Note_on_c, 3, 66, 0
5, 95040, Note_on_c, 3, 68, 100
5, 95148, Note_on_c, 3, 68, 0
5, 95280, Note_on_c, 3, 71, 100
5, 95388, Note_on_c, 3, 71, 0
5, 95400, Note_on_c, 3, 64, 100
5, 95508, Note_on_c, 3, 64, 0
5, 95760, Note_on_c, 3, 68, 100
5, 95868, Note_on_c, 3, 68, 0
5, 95880, Note_on_c, 3, 59, 100
5, 95988, Note_on_c, 3, 59, 0
5, 96000, Note_on_c, 3, 76, 100
5, 96108, Note_on_c, 3, 76, 0
5, 96840, Note_on_c, 3, 71, 100
5, 96948, Note_on_c, 3, 71, 0
5, 96960, Note_on_c, 3, 72, 100
5, 97068, Note_on_c, 3, 72, 0
5, 97800, Note_on_c, 3, 69, 100
5, 97908, Note_on_c, 3, 69, 0
5, 97920, Note_on_c, 3, 71, 100
5, 98028, Note_on_c, 3, 71, 0
5, 98880, Note_on_c, 3, 55, 100
5, 98880, Note_on_c, 3, 64, 100
5, 98880, Note_on_c, 3, 71, 100
5, 98988, Note_on_c, 3, 55, 0
5, 98988, Note_on_c, 3, 64, 0
5, 98988, Note_on_c, 3, 71, 0
5, 99840, Note_on_c, 3, 57, 100
5, 99840, Note_on_c, 3, 66, 100
5, 99840, Note_on_c, 3, 74, 100
5, 99948, Note_on_c, 3, 57, 0
5, 99948, Note_on_c, 3, 66, 0
5, 99948, Note_on_c, 3, 74, 0
5, 100800, Note_on_c, 3, 59, 100
5, 100800, Note_on_c, 3, 67, 100
5, 100800, Note_on_c, 3, 74, 100
5, 100908, Note_on_c, 3, 59, 0
5, 100908, Note_on_c, 3, 67, 0
5, 100908, Note_on_c, 3, 74, 0
5, 102360, Note_on_c, 3, 67, 100
5, 102468, Note_on_c, 3, 67, 0
5, 102480, Note_on_c, 3, 67, 100
5, 102588, Note_on_c, 3, 67, 0
5, 102600, Note_on_c, 3, 66, 100
5, 102708, Note_on_c, 3, 66, 0
5, 102720, Note_on_c, 3, 62, 100
5, 102828, Note_on_c, 3, 62, 0
5, 102840, Note_on_c, 3, 62, 100
5, 102948, Note_on_c, 3, 62, 0
5, 103080, Note_on_c, 3, 60, 100
5, 103188, Note_on_c, 3, 60, 0
5, 103320, Note_on_c, 3, 67, 100
5, 103428, Note_on_c, 3, 67, 0
5, 103560, Note_on_c, 3, 67, 100
5, 103668, Note_on_c, 3, 67, 0
5, 103800, Note_on_c, 3, 69, 100
5, 103908, Note_on_c, 3, 69, 0
5, 104040, Note_on_c, 3, 66, 100
5, 104148, Note_on_c, 3, 66, 0
5, 104160, Note_on_c, 3, 67, 100
5, 104268, Note_on_c, 3, 67, 0
5, 104280, Note_on_c, 3, 74, 100
5, 104388, Note_on_c, 3, 74, 0
5, 104400, Note_on_c, 3, 71, 100
5, 104508, Note_on_c, 3, 71, 0
5, 104520, Note_on_c, 3, 74, 100
5, 104628, Note_on_c, 3, 74, 0
5, 104640, Note_on_c, 3, 67, 100
5, 106032, Note_on_c, 3, 67, 0
5, 106140, Note_on_c, 3, 62, 100
5, 106194, Note_on_c, 3, 62, 0
5, 106200, Note_on_c, 3, 69, 100
5, 106254, Note_on_c, 3, 69, 0
5, 106260, Note_on_c, 3, 71, 100
5, 106314, Note_on_c, 3, 71, 0
5, 106320, Note_on_c, 3, 72, 100
5, 106374, Note_on_c, 3, 72, 0
5, 106380, Note_on_c, 3, 76, 100
5, 106434, Note_on_c, 3, 76, 0
5, 106440, Note_on_c, 3, 74, 100
5, 106494, Note_on_c, 3, 74, 0
5, 106500, Note_on_c, 3, 69, 100
5, 106554, Note_on_c, 3, 69, 0
5, 106560, Note_on_c, 3, 71, 100
5, 106992, Note_on_c, 3, 71, 0
5, 107040, Note_on_c, 3, 64, 100
5, 107148, Note_on_c, 3, 64, 0
5, 109440, Note_on_c, 3, 64, 100
5, 109440, Note_on_c, 3, 71, 100
5, 109440, Note_on_c, 3, 80, 100
5, 109548, Note_on_c, 3, 64, 0
5, 109548, Note_on_c, 3, 71, 0
5, 109548, Note_on_c, 3, 80, 0
5, 114720, Note_on_c, 3, 64, 100
5, 114828, Note_on_c, 3, 64, 0
5, 114960, Note_on_c, 3, 68, 100
5, 115068, Note_on_c, 3, 68, 0
5, 115200, Note_on_c, 3, 68, 100
5, 115308, Note_on_c, 3, 68, 0
5, 115440, Note_on_c, 3, 64, 100
5, 115548, Note_on_c, 3, 64, 0
5, 115680, Note_on_c, 3, 64, 100
5, 115788, Note_on_c, 3, 64, 0
5, 115920, Note_on_c, 3, 60, 100
5, 116028, Note_on_c, 3, 60, 0
5, 116160, Note_on_c, 3, 64, 100
5, 116268, Note_on_c, 3, 64, 0
5, 116400, Note_on_c, 3, 69, 100
5, 116508, Note_on_c, 3, 69, 0
5, 116640, Note_on_c, 3, 70, 100
5, 116748, Note_on_c, 3, 70, 0
5, 116880, Note_on_c, 3, 70, 100
5, 116988, Note_on_c, 3, 70, 0
5, 117120, Note_on_c, 3, 76, 100
5, 117228, Note_on_c, 3, 76, 0
5, 117360, Note_on_c, 3, 76, 100
5, 117468, Note_on_c, 3, 76, 0
5, 117600, Note_on_c, 3, 81, 100
5, 117708, Note_on_c, 3, 81, 0
5, 117840, Note_on_c, 3, 77, 100
5, 117948, Note_on_c, 3, 77, 0
5, 118080, Note_on_c, 3, 74, 100
5, 118188, Note_on_c, 3, 74, 0
5, 118320, Note_on_c, 3, 69, 100
5, 118428, Note_on_c, 3, 69, 0
5, 118560, Note_on_c, 3, 71, 100
5, 118668, Note_on_c, 3, 71, 0
5, 118800, Note_on_c, 3, 68, 100
5, 118908, Note_on_c, 3, 68, 0
5, 119040, Note_on_c, 3, 64, 100
5, 119148, Note_on_c, 3, 64, 0
5, 119280, Note_on_c, 3, 64, 100
5, 119388, Note_on_c, 3, 64, 0
5, 119520, Note_on_c, 3, 64, 100
5, 119628, Note_on_c, 3, 64, 0
5, 119760, Note_on_c, 3, 61, 100
5, 119868, Note_on_c, 3, 61, 0
5, 120000, Note_on_c, 3, 63, 100
5, 120108, Note_on_c, 3, 63, 0
5, 120240, Note_on_c, 3, 63, 100
5, 120348, Note_on_c, 3, 63, 0
5, 120480, Note_on_c, 3, 68, 100
5, 120588, Note_on_c, 3, 68, 0
5, 120720, Note_on_c, 3, 76, 100
5, 120828, Note_on_c, 3, 76, 0
5, 120960, Note_on_c, 3, 78, 100
5, 121068, Note_on_c, 3, 78, 0
5, 121200, Note_on_c, 3, 78, 100
5, 121308, Note_on_c, 3, 78, 0
5, 121440, Note_on_c, 3, 71, 100
5, 121548, Note_on_c, 3, 71, 0
5, 121680, Note_on_c, 3, 68, 100
5, 121788, Note_on_c, 3, 68, 0
5, 121920, Note_on_c, 3, 64, 100
5, 122028, Note_on_c, 3, 64, 0
5, 122520, Note_on_c, 3, 57, 100
5, 122574, Note_on_c, 3, 57, 0
5, 122580, Note_on_c, 3, 59, 100
5, 122634, Note_on_c, 3, 59, 0
5, 122640, Note_on_c, 3, 60, 100
5, 122694, Note_on_c, 3, 60, 0
5, 122700, Note_on_c, 3, 64, 100
5, 122754, Note_on_c, 3, 64, 0
5, 122760, Note_on_c, 3, 62, 100
5, 122814, Note_on_c, 3, 62, 0
5, 122820, Note_on_c, 3, 59, 100
5, 122874, Note_on_c, 3, 59, 0
5, 122880, Note_on_c, 3, 60, 100
5, 122934, Note_on_c, 3, 60, 0
5, 122940, Note_on_c, 3, 57, 100
5, 122994, Note_on_c, 3, 57, 0
5, 123000, Note_on_c, 3, 60, 100
5, 123054, Note_on_c, 3, 60, 0
5, 123060, Note_on_c, 3, 64, 100
5, 123114, Note_on_c, 3, 64, 0
5, 123120, Note_on_c, 3, 69, 100
5, 123156, Note_on_c, 3, 69, 0
5, 123160, Note_on_c, 3, 71, 100
5, 123196, Note_on_c, 3, 71, 0
5, 123200, Note_on_c, 3, 72, 100
5, 123236, Note_on_c, 3, 72, 0
5, 123240, Note_on_c, 3, 71, 100
5, 123276, Note_on_c, 3, 71, 0
5, 123280, Note_on_c, 3, 69, 100
5, 123316, Note_on_c, 3, 69, 0
5, 123320, Note_on_c, 3, 68, 100
5, 123356, Note_on_c, 3, 68, 0
5, 123360, Note_on_c, 3, 69, 100
5, 123468, Note_on_c, 3, 69, 0
5, 123480, Note_on_c, 3, 57, 100
5, 123534, Note_on_c, 3, 57, 0
5, 123540, Note_on_c, 3, 59, 100
5, 123594, Note_on_c, 3, 59, 0
5, 123600, Note_on_c, 3, 60, 100
5, 123654, Note_on_c, 3, 60, 0
5, 123660, Note_on_c, 3, 64, 100
5, 123714, Note_on_c, 3, 64, 0
5, 123720, Note_on_c, 3, 62, 100
5, 123774, Note_on_c, 3, 62, 0
5, 123780, Note_on_c, 3, 59, 100
5, 123834, Note_on_c, 3, 59, 0
5, 123840, Note_on_c, 3, 60, 100
5, 124272, Note_on_c, 3, 60, 0
5, 124320, Note_on_c, 3, 67, 100
5, 124752, Note_on_c, 3, 67, 0
5, 124800, Note_on_c, 3, 65, 100
5, 125448, Note_on_c, 3, 65, 0
5, 125520, Note_on_c, 3, 64, 100
5, 125628, Note_on_c, 3, 64, 0
5, 125640, Note_on_c, 3, 62, 100
5, 125748, Note_on_c, 3, 62, 0
5, 125760, Note_on_c, 3, 64, 100
5, 125868, Note_on_c, 3, 64, 0
5, 125880, Note_on_c, 3, 64, 100
5, 125988, Note_on_c, 3, 64, 0
5, 126000, Note_on_c, 3, 69, 100
5, 126108, Note_on_c, 3, 69, 0
5, 126360, Note_on_c, 3, 69, 100
5, 126468, Note_on_c, 3, 69, 0
5, 126480, Note_on_c, 3, 74, 100
5, 126588, Note_on_c, 3, 74, 0
5, 126600, Note_on_c, 3, 69, 100
5, 126708, Note_on_c, 3, 69, 0
5, 126720, Note_on_c, 3, 68, 100
5, 126828, Note_on_c, 3, 68, 0
5, 127200, Note_on_c, 3, 68, 100
5, 127308, Note_on_c, 3, 68, 0
5, 127680, Note_on_c, 3, 68, 100
5, 127788, Note_on_c, 3, 68, 0
5, 128160, Note_on_c, 3, 64, 100
5, 128268, Note_on_c, 3, 64, 0
5, 128640, Note_on_c, 3, 59, 100
5, 128748, Note_on_c, 3, 59, 0
5, 129000, Note_on_c, 3, 59, 100
5, 129108, Note_on_c, 3, 59, 0
5, 129120, Note_on_c, 3, 64, 100
5, 129228, Note_on_c, 3, 64, 0
5, 129480, Note_on_c, 3, 71, 100
5, 129588, Note_on_c, 3, 71, 0
5, 129600, Note_on_c, 3, 71, 100
5, 129708, Note_on_c, 3, 71, 0
5, 129960, Note_on_c, 3, 77, 100
5, 130068, Note_on_c, 3, 77, 0
5, 130080, Note_on_c, 3, 76, 100
5, 130188, Note_on_c, 3, 76, 0
5, 130440, Note_on_c, 3, 64, 100
5, 130548, Note_on_c, 3, 64, 0
5, 130560, Note_on_c, 3, 64, 100
5, 130668, Note_on_c, 3, 64, 0
5, 130920, Note_on_c, 3, 61, 100
5, 131028, Note_on_c, 3, 61, 0
5, 131040, Note_on_c, 3, 57, 100
5, 131148, Note_on_c, 3, 57, 0
5, 131400, Note_on_c, 3, 57, 100
5, 131508, Note_on_c, 3, 57, 0
5, 131520, Note_on_c, 3, 59, 100
5, 131628, Note_on_c, 3, 59, 0
5, 131920, Note_on_c, 3, 68, 100
5, 131956, Note_on_c, 3, 68, 0
5, 131960, Note_on_c, 3, 69, 100
5, 131996, Note_on_c, 3, 69, 0
5, 132000, Note_on_c, 3, 71, 100
5, 132108, Note_on_c, 3, 71, 0
5, 132400, Note_on_c, 3, 71, 100
5, 132436, Note_on_c, 3, 71, 0
5, 132440, Note_on_c, 3, 72, 100
5, 132476, Note_on_c, 3, 72, 0
5, 132480, Note_on_c, 3, 74, 100
5, 132588, Note_on_c, 3, 74, 0
5, 132880, Note_on_c, 3, 56, 100
5, 132916, Note_on_c, 3, 56, 0
5, 132920, Note_on_c, 3, 57, 100
5, 132956, Note_on_c, 3, 57, 0
5, 132960, Note_on_c, 3, 59, 100
5, 133068, Note_on_c, 3, 59, 0
5, 133360, Note_on_c, 3, 59, 100
5, 133396, Note_on_c, 3, 59, 0
5, 133400, Note_on_c, 3, 60, 100
5, 133436, Note_on_c, 3, 60, 0
5, 133440, Note_on_c, 3, 62, 100
5, 133548, Note_on_c, 3, 62, 0
5, 135000, Note_on_c, 3, 64, 100
5, 135108, Note_on_c, 3, 64, 0
5, 135120, Note_on_c, 3, 64, 100
5, 135228, Note_on_c, 3, 64, 0
5, 135240, Note_on_c, 3, 64, 100
5, 135348, Note_on_c, 3, 64, 0
5, 135360, Note_on_c, 3, 64, 100
5, 135414, Note_on_c, 3, 64, 0
5, 135420, Note_on_c, 3, 57, 100
5, 135474, Note_on_c, 3, 57, 0
5, 135480, Note_on_c, 3, 60, 100
5, 135534, Note_on_c, 3, 60, 0
5, 135540, Note_on_c, 3, 64, 100
5, 135594, Note_on_c, 3, 64, 0
5, 135600, Note_on_c, 3, 69, 100
5, 135636, Note_on_c, 3, 69, 0
5, 135640, Note_on_c, 3, 71, 100
5, 135676, Note_on_c, 3, 71, 0
5, 135680, Note_on_c, 3, 72, 100
5, 135716, Note_on_c, 3, 72, 0
5, 135720, Note_on_c, 3, 71, 100
5, 135756, Note_on_c, 3, 71, 0
5, 135760, Note_on_c, 3, 69, 100
5, 135796, Note_on_c, 3, 69, 0
5, 135800, Note_on_c, 3, 68, 100
5, 135836, Note_on_c, 3, 68, 0
5, 135840, Note_on_c, 3, 69, 100
5, 135948, Note_on_c, 3, 69, 0
5, 135960, Note_on_c, 3, 69, 100
5, 136068, Note_on_c, 3, 69, 0
5, 136080, Note_on_c, 3, 76, 100
5, 136188, Note_on_c, 3, 76, 0
5, 136200, Note_on_c, 3, 76, 100
5, 136308, Note_on_c, 3, 76, 0
5, 136320, Note_on_c, 3, 76, 100
5, 136428, Note_on_c, 3, 76, 0
5, 136440, Note_on_c, 3, 72, 100
5, 136548, Note_on_c, 3, 72, 0
5, 136560, Note_on_c, 3, 71, 100
5, 136668, Note_on_c, 3, 71, 0
5, 136680, Note_on_c, 3, 72, 100
5, 136788, Note_on_c, 3, 72, 0
5, 136800, Note_on_c, 3, 71, 100
5, 136908, Note_on_c, 3, 71, 0
5, 136920, Note_on_c, 3, 64, 100
5, 137028, Note_on_c, 3, 64, 0
5, 137040, Note_on_c, 3, 64, 100
5, 137148, Note_on_c, 3, 64, 0
5, 137160, Note_on_c, 3, 64, 100
5, 137268, Note_on_c, 3, 64, 0
5, 137280, Note_on_c, 3, 64, 100
5, 137388, Note_on_c, 3, 64, 0
5, 137400, Note_on_c, 3, 60, 100
5, 137508, Note_on_c, 3, 60, 0
5, 137520, Note_on_c, 3, 59, 100
5, 137628, Note_on_c, 3, 59, 0
5, 137640, Note_on_c, 3, 60, 100
5, 137748, Note_on_c, 3, 60, 0
5, 137760, Note_on_c, 3, 59, 100
5, 137868, Note_on_c, 3, 59, 0
5, 137880, Note_on_c, 3, 64, 100
5, 137988, Note_on_c, 3, 64, 0
5, 138000, Note_on_c, 3, 64, 100
5, 138108, Note_on_c, 3, 64, 0
5, 138120, Note_on_c, 3, 64, 100
5, 138228, Note_on_c, 3, 64, 0
5, 138240, Note_on_c, 3, 64, 100
5, 138348, Note_on_c, 3, 64, 0
5, 138360, Note_on_c, 3, 71, 100
5, 138468, Note_on_c, 3, 71, 0
5, 138480, Note_on_c, 3, 69, 100
5, 138588, Note_on_c, 3, 69, 0
5, 138600, Note_on_c, 3, 73, 100
5, 138708, Note_on_c, 3, 73, 0
5, 138720, Note_on_c, 3, 74, 100
5, 138828, Note_on_c, 3, 74, 0
5, 138840, Note_on_c, 3, 69, 100
5, 138948, Note_on_c, 3, 69, 0
5, 138960, Note_on_c, 3, 74, 100
5, 139068, Note_on_c, 3, 74, 0
5, 139080, Note_on_c, 3, 71, 100
5, 139188, Note_on_c, 3, 71, 0
5, 139200, Note_on_c, 3, 72, 100
5, 139308, Note_on_c, 3, 72, 0
5, 139320, Note_on_c, 3, 76, 100
5, 139428, Note_on_c, 3, 76, 0
5, 139440, Note_on_c, 3, 76, 100
5, 139548, Note_on_c, 3, 76, 0
5, 139560, Note_on_c, 3, 69, 100
5, 139668, Note_on_c, 3, 69, 0
5, 139680, Note_on_c, 3, 69, 100
5, 139788, Note_on_c, 3, 69, 0
5, 139800, Note_on_c, 3, 74, 100
5, 139908, Note_on_c, 3, 74, 0
5, 139920, Note_on_c, 3, 74, 100
5, 140028, Note_on_c, 3, 74, 0
5, 140040, Note_on_c, 3, 71, 100
5, 140148, Note_on_c, 3, 71, 0
5, 140160, Note_on_c, 3, 64, 100
5, 140268, Note_on_c, 3, 64, 0
5, 140280, Note_on_c, 3, 62, 100
5, 140388, Note_on_c, 3, 62, 0
5, 140400, Note_on_c, 3, 69, 100
5, 140508, Note_on_c, 3, 69, 0
5, 140520, Note_on_c, 3, 65, 100
5, 140628, Note_on_c, 3, 65, 0
5, 140640, Note_on_c, 3, 59, 100
5, 140676, Note_on_c, 3, 59, 0
5, 140680, Note_on_c, 3, 60, 100
5, 140716, Note_on_c, 3, 60, 0
5, 140720, Note_on_c, 3, 62, 100
5, 140756, Note_on_c, 3, 62, 0
5, 140760, Note_on_c, 3, 59, 100
5, 140796, Note_on_c, 3, 59, 0
5, 140800, Note_on_c, 3, 60, 100
5, 140836, Note_on_c, 3, 60, 0
5, 140840, Note_on_c, 3, 62, 100
5, 140876, Note_on_c, 3, 62, 0
5, 140880, Note_on_c, 3, 64, 100
5, 140988, Note_on_c, 3, 64, 0
5, 141000, Note_on_c, 3, 68, 100
5, 141108, Note_on_c, 3, 68, 0
5, 141120, Note_on_c, 3, 69, 100
5, 141228, Note_on_c, 3, 69, 0
5, 141240, Note_on_c, 3, 71, 100
5, 141348, Note_on_c, 3, 71, 0
5, 141360, Note_on_c, 3, 72, 100
5, 141468, Note_on_c, 3, 72, 0
5, 141480, Note_on_c, 3, 71, 100
5, 141588, Note_on_c, 3, 71, 0
5, 141600, Note_on_c, 3, 69, 100
5, 141708, Note_on_c, 3, 69, 0
5, 141720, Note_on_c, 3, 57, 100
5, 141828, Note_on_c, 3, 57, 0
5, 141840, Note_on_c, 3, 57, 100
5, 141948, Note_on_c, 3, 57, 0
5, 141960, Note_on_c, 3, 56, 100
5, 142068, Note_on_c, 3, 56, 0
5, 142080, Note_on_c, 3, 57, 100
5, 142296, Note_on_c, 3, 57, 0
5, 142296, End_track
6, 0, Start_track
6, 0, Sequence_number, 65535
6, 0, MIDI_port, 0
6, 0, Title_t, "Viola"
6, 0, Control_c, 4, 0, 0
6, 0, Control_c, 4, 32, 0
6, 0, Program_c, 4, 48
6, 0, Control_c, 4, 7, 80
6, 0, Control_c, 4, 10, 34
6, 600, Note_on_c, 4, 60, 100
6, 708, Note_on_c, 4, 60, 0
6, 720, Note_on_c, 4, 57, 100
6, 828, Note_on_c, 4, 57, 0
6, 840, Note_on_c, 4, 64, 100
6, 948, Note_on_c, 4, 64, 0
6, 960, Note_on_c, 4, 60, 100
6, 1176, Note_on_c, 4, 60, 0
6, 1560, Note_on_c, 4, 64, 100
6, 1668, Note_on_c, 4, 64, 0
6, 1680, Note_on_c, 4, 64, 100
6, 1788, Note_on_c, 4, 64, 0
6, 1800, Note_on_c, 4, 71, 100
6, 1908, Note_on_c, 4, 71, 0
6, 1920, Note_on_c, 4, 64, 100
6, 2028, Note_on_c, 4, 64, 0
6, 2040, Note_on_c, 4, 69, 100
6, 2148, Note_on_c, 4, 69, 0
6, 2160, Note_on_c, 4, 68, 100
6, 2268, Note_on_c, 4, 68, 0
6, 2280, Note_on_c, 4, 69, 100
6, 2388, Note_on_c, 4, 69, 0
6, 2400, Note_on_c, 4, 64, 100
6, 2508, Note_on_c, 4, 64, 0
6, 2520, Note_on_c, 4, 64, 100
6, 2628, Note_on_c, 4, 64, 0
6, 2640, Note_on_c, 4, 59, 100
6, 2748, Note_on_c, 4, 59, 0
6, 2760, Note_on_c, 4, 57, 100
6, 2868, Note_on_c, 4, 57, 0
6, 2880, Note_on_c, 4, 59, 100
6, 2988, Note_on_c, 4, 59, 0
6, 3000, Note_on_c, 4, 57, 100
6, 3108, Note_on_c, 4, 57, 0
6, 3120, Note_on_c, 4, 56, 100
6, 3228, Note_on_c, 4, 56, 0
6, 3240, Note_on_c, 4, 57, 100
6, 3348, Note_on_c, 4, 57, 0
6, 3360, Note_on_c, 4, 52, 100
6, 3468, Note_on_c, 4, 52, 0
6, 3480, Note_on_c, 4, 52, 100
6, 3588, Note_on_c, 4, 52, 0
6, 3600, Note_on_c, 4, 59, 100
6, 3708, Note_on_c, 4, 59, 0
6, 3720, Note_on_c, 4, 57, 100
6, 3828, Note_on_c, 4, 57, 0
6, 3840, Note_on_c, 4, 59, 100
6, 3948, Note_on_c, 4, 59, 0
6, 3960, Note_on_c, 4, 64, 100
6, 4068, Note_on_c, 4, 64, 0
6, 4080, Note_on_c, 4, 64, 100
6, 4188, Note_on_c, 4, 64, 0
6, 4200, Note_on_c, 4, 69, 100
6, 4308, Note_on_c, 4, 69, 0
6, 4320, Note_on_c, 4, 69, 100
6, 4428, Note_on_c, 4, 69, 0
6, 4440, Note_on_c, 4, 62, 100
6, 4548, Note_on_c, 4, 62, 0
6, 4560, Note_on_c, 4, 62, 100
6, 4668, Note_on_c, 4, 62, 0
6, 4680, Note_on_c, 4, 67, 100
6, 4788, Note_on_c, 4, 67, 0
6, 4800, Note_on_c, 4, 67, 100
6, 4908, Note_on_c, 4, 67, 0
6, 4920, Note_on_c, 4, 69, 100
6, 5028, Note_on_c, 4, 69, 0
6, 5040, Note_on_c, 4, 60, 100
6, 5148, Note_on_c, 4, 60, 0
6, 5160, Note_on_c, 4, 60, 100
6, 5268, Note_on_c, 4, 60, 0
6, 5280, Note_on_c, 4, 62, 100
6, 5388, Note_on_c, 4, 62, 0
6, 5400, Note_on_c, 4, 64, 100
6, 5508, Note_on_c, 4, 64, 0
6, 5520, Note_on_c, 4, 59, 100
6, 5628, Note_on_c, 4, 59, 0
6, 5640, Note_on_c, 4, 59, 100
6, 5748, Note_on_c, 4, 59, 0
6, 5760, Note_on_c, 4, 60, 100
6, 5868, Note_on_c, 4, 60, 0
6, 5880, Note_on_c, 4, 69, 100
6, 5988, Note_on_c, 4, 69, 0
6, 6000, Note_on_c, 4, 65, 100
6, 6108, Note_on_c, 4, 65, 0
6, 6120, Note_on_c, 4, 62, 100
6, 6228, Note_on_c, 4, 62, 0
6, 6240, Note_on_c, 4, 56, 100
6, 6276, Note_on_c, 4, 56, 0
6, 6280, Note_on_c, 4, 57, 100
6, 6316, Note_on_c, 4, 57, 0
6, 6320, Note_on_c, 4, 59, 100
6, 6356, Note_on_c, 4, 59, 0
6, 6360, Note_on_c, 4, 56, 100
6, 6396, Note_on_c, 4, 56, 0
6, 6400, Note_on_c, 4, 57, 100
6, 6436, Note_on_c, 4, 57, 0
6, 6440, Note_on_c, 4, 59, 100
6, 6476, Note_on_c, 4, 59, 0
6, 6480, Note_on_c, 4, 57, 100
6, 6588, Note_on_c, 4, 57, 0
6, 6600, Note_on_c, 4, 59, 100
6, 6708, Note_on_c, 4, 59, 0
6, 6720, Note_on_c, 4, 64, 100
6, 6828, Note_on_c, 4, 64, 0
6, 6840, Note_on_c, 4, 65, 100
6, 6948, Note_on_c, 4, 65, 0
6, 6960, Note_on_c, 4, 64, 100
6, 7068, Note_on_c, 4, 64, 0
6, 7080, Note_on_c, 4, 62, 100
6, 7188, Note_on_c, 4, 62, 0
6, 7200, Note_on_c, 4, 60, 100
6, 7308, Note_on_c, 4, 60, 0
6, 7320, Note_on_c, 4, 53, 100
6, 7428, Note_on_c, 4, 53, 0
6, 7440, Note_on_c, 4, 52, 100
6, 7548, Note_on_c, 4, 52, 0
6, 7560, Note_on_c, 4, 52, 100
6, 7668, Note_on_c, 4, 52, 0
6, 7680, Note_on_c, 4, 52, 100
6, 7896, Note_on_c, 4, 52, 0
6, 8280, Note_on_c, 4, 57, 100
6, 8388, Note_on_c, 4, 57, 0
6, 8400, Note_on_c, 4, 52, 100
6, 8508, Note_on_c, 4, 52, 0
6, 8520, Note_on_c, 4, 59, 100
6, 8628, Note_on_c, 4, 59, 0
6, 8640, Note_on_c, 4, 57, 100
6, 8748, Note_on_c, 4, 57, 0
6, 9240, Note_on_c, 4, 69, 100
6, 9348, Note_on_c, 4, 69, 0
6, 9360, Note_on_c, 4, 64, 100
6, 9468, Note_on_c, 4, 64, 0
6, 9480, Note_on_c, 4, 71, 100
6, 9588, Note_on_c, 4, 71, 0
6, 9600, Note_on_c, 4, 69, 100
6, 9708, Note_on_c, 4, 69, 0
6, 13080, Note_on_c, 4, 64, 100
6, 13188, Note_on_c, 4, 64, 0
6, 13200, Note_on_c, 4, 64, 100
6, 13308, Note_on_c, 4, 64, 0
6, 13320, Note_on_c, 4, 57, 100
6, 13428, Note_on_c, 4, 57, 0
6, 13440, Note_on_c, 4, 59, 100
6, 13548, Note_on_c, 4, 59, 0
6, 13560, Note_on_c, 4, 57, 100
6, 13668, Note_on_c, 4, 57, 0
6, 13680, Note_on_c, 4, 56, 100
6, 13788, Note_on_c, 4, 56, 0
6, 13800, Note_on_c, 4, 57, 100
6, 13908, Note_on_c, 4, 57, 0
6, 13920, Note_on_c, 4, 52, 100
6, 14028, Note_on_c, 4, 52, 0
6, 14040, Note_on_c, 4, 52, 100
6, 14148, Note_on_c, 4, 52, 0
6, 14160, Note_on_c, 4, 59, 100
6, 14268, Note_on_c, 4, 59, 0
6, 14280, Note_on_c, 4, 52, 100
6, 14388, Note_on_c, 4, 52, 0
6, 14400, Note_on_c, 4, 52, 100
6, 14508, Note_on_c, 4, 52, 0
6, 14760, Note_on_c, 4, 71, 100
6, 14868, Note_on_c, 4, 71, 0
6, 14880, Note_on_c, 4, 69, 100
6, 14988, Note_on_c, 4, 69, 0
6, 15240, Note_on_c, 4, 57, 100
6, 15348, Note_on_c, 4, 57, 0
6, 15360, Note_on_c, 4, 57, 100
6, 15468, Note_on_c, 4, 57, 0
6, 15720, Note_on_c, 4, 69, 100
6, 15828, Note_on_c, 4, 69, 0
6, 15840, Note_on_c, 4, 67, 100
6, 15948, Note_on_c, 4, 67, 0
6, 16200, Note_on_c, 4, 67, 100
6, 16308, Note_on_c, 4, 67, 0
6, 16320, Note_on_c, 4, 67, 100
6, 16428, Note_on_c, 4, 67, 0
6, 16440, Note_on_c, 4, 69, 100
6, 16548, Note_on_c, 4, 69, 0
6, 16560, Note_on_c, 4, 60, 100
6, 16668, Note_on_c, 4, 60, 0
6, 16680, Note_on_c, 4, 60, 100
6, 16788, Note_on_c, 4, 60, 0
6, 16800, Note_on_c, 4, 62, 100
6, 16908, Note_on_c, 4, 62, 0
6, 16920, Note_on_c, 4, 64, 100
6, 17028, Note_on_c, 4, 64, 0
6, 17040, Note_on_c, 4, 59, 100
6, 17148, Note_on_c, 4, 59, 0
6, 17160, Note_on_c, 4, 59, 100
6, 17268, Note_on_c, 4, 59, 0
6, 17280, Note_on_c, 4, 60, 100
6, 17388, Note_on_c, 4, 60, 0
6, 17400, Note_on_c, 4, 64, 100
6, 17508, Note_on_c, 4, 64, 0
6, 17520, Note_on_c, 4, 60, 100
6, 17628, Note_on_c, 4, 60, 0
6, 17640, Note_on_c, 4, 69, 100
6, 17748, Note_on_c, 4, 69, 0
6, 17760, Note_on_c, 4, 63, 100
6, 17796, Note_on_c, 4, 63, 0
6, 17800, Note_on_c, 4, 64, 100
6, 17836, Note_on_c, 4, 64, 0
6, 17840, Note_on_c, 4, 66, 100
6, 17876, Note_on_c, 4, 66, 0
6, 17880, Note_on_c, 4, 63, 100
6, 17916, Note_on_c, 4, 63, 0
6, 17920, Note_on_c, 4, 64, 100
6, 17956, Note_on_c, 4, 64, 0
6, 17960, Note_on_c, 4, 66, 100
6, 17996, Note_on_c, 4, 66, 0
6, 18000, Note_on_c, 4, 64, 100
6, 18108, Note_on_c, 4, 64, 0
6, 18120, Note_on_c, 4, 66, 100
6, 18228, Note_on_c, 4, 66, 0
6, 18240, Note_on_c, 4, 59, 100
6, 18348, Note_on_c, 4, 59, 0
6, 18360, Note_on_c, 4, 60, 100
6, 18468, Note_on_c, 4, 60, 0
6, 18480, Note_on_c, 4, 59, 100
6, 18588, Note_on_c, 4, 59, 0
6, 18600, Note_on_c, 4, 57, 100
6, 18708, Note_on_c, 4, 57, 0
6, 18720, Note_on_c, 4, 55, 100
6, 18828, Note_on_c, 4, 55, 0
6, 18840, Note_on_c, 4, 57, 100
6, 18876, Note_on_c, 4, 57, 0
6, 18880, Note_on_c, 4, 59, 100
6, 18916, Note_on_c, 4, 59, 0
6, 18920, Note_on_c, 4, 60, 100
6, 18956, Note_on_c, 4, 60, 0
6, 18960, Note_on_c, 4, 59, 100
6, 19068, Note_on_c, 4, 59, 0
6, 19080, Note_on_c, 4, 57, 100
6, 19188, Note_on_c, 4, 57, 0
6, 19200, Note_on_c, 4, 55, 100
6, 19308, Note_on_c, 4, 55, 0
6, 19800, Note_on_c, 4, 55, 100
6, 19854, Note_on_c, 4, 55, 0
6, 19860, Note_on_c, 4, 54, 100
6, 19914, Note_on_c, 4, 54, 0
6, 19920, Note_on_c, 4, 52, 100
6, 20028, Note_on_c, 4, 52, 0
6, 20040, Note_on_c, 4, 59, 100
6, 20148, Note_on_c, 4, 59, 0
6, 20160, Note_on_c, 4, 59, 100
6, 20268, Note_on_c, 4, 59, 0
6, 20760, Note_on_c, 4, 64, 100
6, 20868, Note_on_c, 4, 64, 0
6, 20880, Note_on_c, 4, 64, 100
6, 20988, Note_on_c, 4, 64, 0
6, 21000, Note_on_c, 4, 66, 100
6, 21108, Note_on_c, 4, 66, 0
6, 21120, Note_on_c, 4, 68, 100
6, 21228, Note_on_c, 4, 68, 0
6, 21480, Note_on_c, 4, 59, 100
6, 21588, Note_on_c, 4, 59, 0
6, 21600, Note_on_c, 4, 57, 100
6, 21708, Note_on_c, 4, 57, 0
6, 21960, Note_on_c, 4, 57, 100
6, 22068, Note_on_c, 4, 57, 0
6, 22080, Note_on_c, 4, 55, 100
6, 22188, Note_on_c, 4, 55, 0
6, 23700, Note_on_c, 4, 60, 100
6, 23754, Note_on_c, 4, 60, 0
6, 23760, Note_on_c, 4, 59, 100
6, 23868, Note_on_c, 4, 59, 0
6, 23880, Note_on_c, 4, 71, 100
6, 23988, Note_on_c, 4, 71, 0
6, 24000, Note_on_c, 4, 71, 100
6, 24432, Note_on_c, 4, 71, 0
6, 24480, Note_on_c, 4, 73, 100
6, 24912, Note_on_c, 4, 73, 0
6, 24960, Note_on_c, 4, 69, 100
6, 25392, Note_on_c, 4, 69, 0
6, 25440, Note_on_c, 4, 71, 100
6, 25872, Note_on_c, 4, 71, 0
6, 25920, Note_on_c, 4, 67, 100
6, 26028, Note_on_c, 4, 67, 0
6, 26400, Note_on_c, 4, 72, 100
6, 26508, Note_on_c, 4, 72, 0
6, 26880, Note_on_c, 4, 69, 100
6, 26988, Note_on_c, 4, 69, 0
6, 27360, Note_on_c, 4, 60, 100
6, 27468, Note_on_c, 4, 60, 0
6, 27840, Note_on_c, 4, 62, 100
6, 27948, Note_on_c, 4, 62, 0
6, 28320, Note_on_c, 4, 59, 100
6, 28428, Note_on_c, 4, 59, 0
6, 28800, Note_on_c, 4, 64, 100
6, 28908, Note_on_c, 4, 64, 0
6, 29400, Note_on_c, 4, 69, 100
6, 29508, Note_on_c, 4, 69, 0
6, 29520, Note_on_c, 4, 71, 100
6, 29628, Note_on_c, 4, 71, 0
6, 29640, Note_on_c, 4, 64, 100
6, 29748, Note_on_c, 4, 64, 0
6, 29760, Note_on_c, 4, 69, 100
6, 29868, Note_on_c, 4, 69, 0
6, 30120, Note_on_c, 4, 61, 100
6, 30228, Note_on_c, 4, 61, 0
6, 30240, Note_on_c, 4, 57, 100
6, 30348, Note_on_c, 4, 57, 0
6, 30600, Note_on_c, 4, 57, 100
6, 30708, Note_on_c, 4, 57, 0
6, 30720, Note_on_c, 4, 62, 100
6, 30828, Note_on_c, 4, 62, 0
6, 31080, Note_on_c, 4, 65, 100
6, 31188, Note_on_c, 4, 65, 0
6, 31200, Note_on_c, 4, 59, 100
6, 31308, Note_on_c, 4, 59, 0
6, 31560, Note_on_c, 4, 59, 100
6, 31668, Note_on_c, 4, 59, 0
6, 31680, Note_on_c, 4, 59, 100
6, 31788, Note_on_c, 4, 59, 0
6, 32040, Note_on_c, 4, 68, 100
6, 32148, Note_on_c, 4, 68, 0
6, 32160, Note_on_c, 4, 64, 100
6, 32268, Note_on_c, 4, 64, 0
6, 32280, Note_on_c, 4, 64, 100
6, 32388, Note_on_c, 4, 64, 0
6, 32400, Note_on_c, 4, 64, 100
6, 32508, Note_on_c, 4, 64, 0
6, 32520, Note_on_c, 4, 71, 100
6, 32628, Note_on_c, 4, 71, 0
6, 32640, Note_on_c, 4, 69, 100
6, 32748, Note_on_c, 4, 69, 0
6, 32760, Note_on_c, 4, 62, 100
6, 32868, Note_on_c, 4, 62, 0
6, 32880, Note_on_c, 4, 61, 100
6, 32988, Note_on_c, 4, 61, 0
6, 33000, Note_on_c, 4, 62, 100
6, 33108, Note_on_c, 4, 62, 0
6, 33120, Note_on_c, 4, 57, 100
6, 33228, Note_on_c, 4, 57, 0
6, 33240, Note_on_c, 4, 57, 100
6, 33348, Note_on_c, 4, 57, 0
6, 33360, Note_on_c, 4, 57, 100
6, 33468, Note_on_c, 4, 57, 0
6, 33480, Note_on_c, 4, 57, 100
6, 33588, Note_on_c, 4, 57, 0
6, 33600, Note_on_c, 4, 57, 100
6, 33708, Note_on_c, 4, 57, 0
6, 34200, Note_on_c, 4, 65, 100
6, 34308, Note_on_c, 4, 65, 0
6, 34320, Note_on_c, 4, 61, 100
6, 34428, Note_on_c, 4, 61, 0
6, 34440, Note_on_c, 4, 62, 100
6, 34548, Note_on_c, 4, 62, 0
6, 34560, Note_on_c, 4, 57, 100
6, 34668, Note_on_c, 4, 57, 0
6, 34920, Note_on_c, 4, 64, 100
6, 35028, Note_on_c, 4, 64, 0
6, 35040, Note_on_c, 4, 62, 100
6, 35148, Note_on_c, 4, 62, 0
6, 35400, Note_on_c, 4, 65, 100
6, 35508, Note_on_c, 4, 65, 0
6, 35520, Note_on_c, 4, 62, 100
6, 35628, Note_on_c, 4, 62, 0
6, 35880, Note_on_c, 4, 62, 100
6, 35988, Note_on_c, 4, 62, 0
6, 36000, Note_on_c, 4, 60, 100
6, 36108, Note_on_c, 4, 60, 0
6, 36360, Note_on_c, 4, 67, 100
6, 36468, Note_on_c, 4, 67, 0
6, 36480, Note_on_c, 4, 65, 100
6, 36588, Note_on_c, 4, 65, 0
6, 36600, Note_on_c, 4, 65, 100
6, 36708, Note_on_c, 4, 65, 0
6, 36720, Note_on_c, 4, 65, 100
6, 36828, Note_on_c, 4, 65, 0
6, 36840, Note_on_c, 4, 65, 100
6, 36948, Note_on_c, 4, 65, 0
6, 36960, Note_on_c, 4, 70, 100
6, 37068, Note_on_c, 4, 70, 0
6, 37080, Note_on_c, 4, 64, 100
6, 37188, Note_on_c, 4, 64, 0
6, 37200, Note_on_c, 4, 64, 100
6, 37308, Note_on_c, 4, 64, 0
6, 37320, Note_on_c, 4, 64, 100
6, 37428, Note_on_c, 4, 64, 0
6, 37440, Note_on_c, 4, 57, 100
6, 37548, Note_on_c, 4, 57, 0
6, 37560, Note_on_c, 4, 69, 100
6, 37668, Note_on_c, 4, 69, 0
6, 37680, Note_on_c, 4, 65, 100
6, 37788, Note_on_c, 4, 65, 0
6, 37800, Note_on_c, 4, 62, 100
6, 37908, Note_on_c, 4, 62, 0
6, 37920, Note_on_c, 4, 56, 100
6, 37956, Note_on_c, 4, 56, 0
6, 37960, Note_on_c, 4, 57, 100
6, 37996, Note_on_c, 4, 57, 0
6, 38000, Note_on_c, 4, 59, 100
6, 38036, Note_on_c, 4, 59, 0
6, 38040, Note_on_c, 4, 56, 100
6, 38076, Note_on_c, 4, 56, 0
6, 38080, Note_on_c, 4, 57, 100
6, 38116, Note_on_c, 4, 57, 0
6, 38120, Note_on_c, 4, 59, 100
6, 38156, Note_on_c, 4, 59, 0
6, 38160, Note_on_c, 4, 57, 100
6, 38268, Note_on_c, 4, 57, 0
6, 38280, Note_on_c, 4, 59, 100
6, 38388, Note_on_c, 4, 59, 0
6, 38400, Note_on_c, 4, 64, 100
6, 38508, Note_on_c, 4, 64, 0
6, 38520, Note_on_c, 4, 65, 100
6, 38628, Note_on_c, 4, 65, 0
6, 38640, Note_on_c, 4, 64, 100
6, 38748, Note_on_c, 4, 64, 0
6, 38760, Note_on_c, 4, 62, 100
6, 38868, Note_on_c, 4, 62, 0
6, 38880, Note_on_c, 4, 60, 100
6, 38988, Note_on_c, 4, 60, 0
6, 39000, Note_on_c, 4, 53, 100
6, 39108, Note_on_c, 4, 53, 0
6, 39120, Note_on_c, 4, 52, 100
6, 39228, Note_on_c, 4, 52, 0
6, 39240, Note_on_c, 4, 52, 100
6, 39348, Note_on_c, 4, 52, 0
6, 39360, Note_on_c, 4, 52, 100
6, 39468, Note_on_c, 4, 52, 0
6, 44760, Note_on_c, 4, 65, 100
6, 44868, Note_on_c, 4, 65, 0
6, 45000, Note_on_c, 4, 64, 100
6, 45108, Note_on_c, 4, 64, 0
6, 45240, Note_on_c, 4, 62, 100
6, 45348, Note_on_c, 4, 62, 0
6, 45480, Note_on_c, 4, 60, 100
6, 45588, Note_on_c, 4, 60, 0
6, 45720, Note_on_c, 4, 59, 100
6, 45828, Note_on_c, 4, 59, 0
6, 45960, Note_on_c, 4, 62, 100
6, 46068, Note_on_c, 4, 62, 0
6, 46080, Note_on_c, 4, 60, 100
6, 46188, Note_on_c, 4, 60, 0
6, 48600, Note_on_c, 4, 60, 100
6, 48708, Note_on_c, 4, 60, 0
6, 48720, Note_on_c, 4, 55, 100
6, 48828, Note_on_c, 4, 55, 0
6, 48840, Note_on_c, 4, 55, 100
6, 48948, Note_on_c, 4, 55, 0
6, 48960, Note_on_c, 4, 55, 100
6, 49176, Note_on_c, 4, 55, 0
6, 49440, Note_on_c, 4, 55, 100
6, 49656, Note_on_c, 4, 55, 0
6, 49680, Note_on_c, 4, 55, 100
6, 49896, Note_on_c, 4, 55, 0
6, 49920, Note_on_c, 4, 55, 100
6, 50028, Note_on_c, 4, 55, 0
6, 50280, Note_on_c, 4, 52, 100
6, 50388, Note_on_c, 4, 52, 0
6, 50400, Note_on_c, 4, 53, 100
6, 50508, Note_on_c, 4, 53, 0
6, 50760, Note_on_c, 4, 54, 100
6, 50868, Note_on_c, 4, 54, 0
6, 50880, Note_on_c, 4, 55, 100
6, 50988, Note_on_c, 4, 55, 0
6, 51240, Note_on_c, 4, 56, 100
6, 51348, Note_on_c, 4, 56, 0
6, 51360, Note_on_c, 4, 57, 100
6, 51468, Note_on_c, 4, 57, 0
6, 53880, Note_on_c, 4, 67, 100
6, 53988, Note_on_c, 4, 67, 0
6, 54000, Note_on_c, 4, 67, 100
6, 54108, Note_on_c, 4, 67, 0
6, 54120, Note_on_c, 4, 67, 100
6, 54228, Note_on_c, 4, 67, 0
6, 54360, Note_on_c, 4, 61, 100
6, 54468, Note_on_c, 4, 61, 0
6, 54480, Note_on_c, 4, 61, 100
6, 54588, Note_on_c, 4, 61, 0
6, 54600, Note_on_c, 4, 61, 100
6, 54708, Note_on_c, 4, 61, 0
6, 54840, Note_on_c, 4, 69, 100
6, 54948, Note_on_c, 4, 69, 0
6, 54960, Note_on_c, 4, 69, 100
6, 55068, Note_on_c, 4, 69, 0
6, 55080, Note_on_c, 4, 69, 100
6, 55188, Note_on_c, 4, 69, 0
6, 55320, Note_on_c, 4, 63, 100
6, 55428, Note_on_c, 4, 63, 0
6, 55440, Note_on_c, 4, 63, 100
6, 55548, Note_on_c, 4, 63, 0
6, 55560, Note_on_c, 4, 63, 100
6, 55668, Note_on_c, 4, 63, 0
6, 55680, Note_on_c, 4, 64, 100
6, 55788, Note_on_c, 4, 64, 0
6, 57240, Note_on_c, 4, 72, 100
6, 57276, Note_on_c, 4, 72, 0
6, 57280, Note_on_c, 4, 71, 100
6, 57316, Note_on_c, 4, 71, 0
6, 57320, Note_on_c, 4, 69, 100
6, 57356, Note_on_c, 4, 69, 0
6, 57360, Note_on_c, 4, 69, 100
6, 57396, Note_on_c, 4, 69, 0
6, 57400, Note_on_c, 4, 67, 100
6, 57436, Note_on_c, 4, 67, 0
6, 57440, Note_on_c, 4, 66, 100
6, 57476, Note_on_c, 4, 66, 0
6, 57480, Note_on_c, 4, 66, 100
6, 57516, Note_on_c, 4, 66, 0
6, 57520, Note_on_c, 4, 67, 100
6, 57556, Note_on_c, 4, 67, 0
6, 57560, Note_on_c, 4, 69, 100
6, 57596, Note_on_c, 4, 69, 0
6, 57600, Note_on_c, 4, 59, 100
6, 57708, Note_on_c, 4, 59, 0
6, 57960, Note_on_c, 4, 56, 100
6, 58068, Note_on_c, 4, 56, 0
6, 58080, Note_on_c, 4, 57, 100
6, 58188, Note_on_c, 4, 57, 0
6, 58320, Note_on_c, 4, 60, 100
6, 58428, Note_on_c, 4, 60, 0
6, 58560, Note_on_c, 4, 60, 100
6, 58668, Note_on_c, 4, 60, 0
6, 58800, Note_on_c, 4, 57, 100
6, 58908, Note_on_c, 4, 57, 0
6, 59040, Note_on_c, 4, 57, 100
6, 59148, Note_on_c, 4, 57, 0
6, 59280, Note_on_c, 4, 54, 100
6, 59388, Note_on_c, 4, 54, 0
6, 59520, Note_on_c, 4, 66, 100
6, 60384, Note_on_c, 4, 66, 0
6, 60480, Note_on_c, 4, 59, 100
6, 60696, Note_on_c, 4, 59, 0
6, 61050, Note_on_c, 4, 66, 100
6, 61077, Note_on_c, 4, 66, 0
6, 61080, Note_on_c, 4, 64, 100
6, 61161, Note_on_c, 4, 64, 0
6, 61170, Note_on_c, 4, 69, 100
6, 61197, Note_on_c, 4, 69, 0
6, 61200, Note_on_c, 4, 69, 100
6, 61308, Note_on_c, 4, 69, 0
6, 61320, Note_on_c, 4, 66, 100
6, 61428, Note_on_c, 4, 66, 0
6, 61440, Note_on_c, 4, 64, 100
6, 61548, Note_on_c, 4, 64, 0
6, 64440, Note_on_c, 4, 57, 100
6, 64548, Note_on_c, 4, 57, 0
6, 64560, Note_on_c, 4, 57, 100
6, 64668, Note_on_c, 4, 57, 0
6, 64680, Note_on_c, 4, 57, 100
6, 64788, Note_on_c, 4, 57, 0
6, 64920, Note_on_c, 4, 59, 100
6, 65028, Note_on_c, 4, 59, 0
6, 65040, Note_on_c, 4, 59, 100
6, 65148, Note_on_c, 4, 59, 0
6, 65160, Note_on_c, 4, 59, 100
6, 65268, Note_on_c, 4, 59, 0
6, 65400, Note_on_c, 4, 66, 100
6, 65508, Note_on_c, 4, 66, 0
6, 65520, Note_on_c, 4, 66, 100
6, 65628, Note_on_c, 4, 66, 0
6, 65640, Note_on_c, 4, 69, 100
6, 65748, Note_on_c, 4, 69, 0
6, 65880, Note_on_c, 4, 64, 100
6, 65988, Note_on_c, 4, 64, 0
6, 66000, Note_on_c, 4, 64, 100
6, 66108, Note_on_c, 4, 64, 0
6, 66120, Note_on_c, 4, 67, 100
6, 66228, Note_on_c, 4, 67, 0
6, 66360, Note_on_c, 4, 72, 100
6, 66396, Note_on_c, 4, 72, 0
6, 66400, Note_on_c, 4, 71, 100
6, 66436, Note_on_c, 4, 71, 0
6, 66440, Note_on_c, 4, 69, 100
6, 66476, Note_on_c, 4, 69, 0
6, 66480, Note_on_c, 4, 67, 100
6, 66516, Note_on_c, 4, 67, 0
6, 66520, Note_on_c, 4, 66, 100
6, 66556, Note_on_c, 4, 66, 0
6, 66560, Note_on_c, 4, 64, 100
6, 66596, Note_on_c, 4, 64, 0
6, 66600, Note_on_c, 4, 63, 100
6, 66636, Note_on_c, 4, 63, 0
6, 66640, Note_on_c, 4, 64, 100
6, 66676, Note_on_c, 4, 64, 0
6, 66680, Note_on_c, 4, 66, 100
6, 66716, Note_on_c, 4, 66, 0
6, 66720, Note_on_c, 4, 59, 100
6, 66828, Note_on_c, 4, 59, 0
6, 67380, Note_on_c, 4, 64, 100
6, 67434, Note_on_c, 4, 64, 0
6, 67440, Note_on_c, 4, 64, 100
6, 67548, Note_on_c, 4, 64, 0
6, 67560, Note_on_c, 4, 63, 100
6, 67668, Note_on_c, 4, 63, 0
6, 67680, Note_on_c, 4, 71, 100
6, 67788, Note_on_c, 4, 71, 0
6, 68040, Note_on_c, 4, 64, 100
6, 68148, Note_on_c, 4, 64, 0
6, 68160, Note_on_c, 4, 69, 100
6, 68268, Note_on_c, 4, 69, 0
6, 68520, Note_on_c, 4, 71, 100
6, 68628, Note_on_c, 4, 71, 0
6, 68640, Note_on_c, 4, 66, 100
6, 68748, Note_on_c, 4, 66, 0
6, 69000, Note_on_c, 4, 66, 100
6, 69108, Note_on_c, 4, 66, 0
6, 69120, Note_on_c, 4, 59, 100
6, 69228, Note_on_c, 4, 59, 0
6, 69720, Note_on_c, 4, 52, 100
6, 69774, Note_on_c, 4, 52, 0
6, 69780, Note_on_c, 4, 54, 100
6, 69834, Note_on_c, 4, 54, 0
6, 69840, Note_on_c, 4, 55, 100
6, 69894, Note_on_c, 4, 55, 0
6, 69900, Note_on_c, 4, 59, 100
6, 69954, Note_on_c, 4, 59, 0
6, 69960, Note_on_c, 4, 57, 100
6, 70014, Note_on_c, 4, 57, 0
6, 70020, Note_on_c, 4, 54, 100
6, 70074, Note_on_c, 4, 54, 0
6, 70080, Note_on_c, 4, 55, 100
6, 70116, Note_on_c, 4, 55, 0
6, 70120, Note_on_c, 4, 54, 100
6, 70156, Note_on_c, 4, 54, 0
6, 70160, Note_on_c, 4, 52, 100
6, 70196, Note_on_c, 4, 52, 0
6, 70200, Note_on_c, 4, 60, 100
6, 70236, Note_on_c, 4, 60, 0
6, 70240, Note_on_c, 4, 59, 100
6, 70276, Note_on_c, 4, 59, 0
6, 70280, Note_on_c, 4, 57, 100
6, 70316, Note_on_c, 4, 57, 0
6, 70320, Note_on_c, 4, 59, 100
6, 70428, Note_on_c, 4, 59, 0
6, 70440, Note_on_c, 4, 63, 100
6, 70548, Note_on_c, 4, 63, 0
6, 70560, Note_on_c, 4, 64, 100
6, 70668, Note_on_c, 4, 64, 0
6, 70680, Note_on_c, 4, 64, 100
6, 70788, Note_on_c, 4, 64, 0
6, 70800, Note_on_c, 4, 57, 100
6, 70908, Note_on_c, 4, 57, 0
6, 70920, Note_on_c, 4, 59, 100
6, 71028, Note_on_c, 4, 59, 0
6, 71040, Note_on_c, 4, 52, 100
6, 71148, Note_on_c, 4, 52, 0
6, 71160, Note_on_c, 4, 57, 100
6, 71268, Note_on_c, 4, 57, 0
6, 71280, Note_on_c, 4, 64, 100
6, 71388, Note_on_c, 4, 64, 0
6, 71400, Note_on_c, 4, 64, 100
6, 71508, Note_on_c, 4, 64, 0
6, 71520, Note_on_c, 4, 64, 100
6, 71628, Note_on_c, 4, 64, 0
6, 71640, Note_on_c, 4, 57, 100
6, 71694, Note_on_c, 4, 57, 0
6, 71700, Note_on_c, 4, 59, 100
6, 71754, Note_on_c, 4, 59, 0
6, 71760, Note_on_c, 4, 60, 100
6, 71814, Note_on_c, 4, 60, 0
6, 71820, Note_on_c, 4, 64, 100
6, 71874, Note_on_c, 4, 64, 0
6, 71880, Note_on_c, 4, 62, 100
6, 71934, Note_on_c, 4, 62, 0
6, 71940, Note_on_c, 4, 59, 100
6, 71994, Note_on_c, 4, 59, 0
6, 72000, Note_on_c, 4, 60, 100
6, 72108, Note_on_c, 4, 60, 0
6, 72600, Note_on_c, 4, 67, 100
6, 72681, Note_on_c, 4, 67, 0
6, 72690, Note_on_c, 4, 69, 100
6, 72717, Note_on_c, 4, 69, 0
6, 72720, Note_on_c, 4, 67, 100
6, 72828, Note_on_c, 4, 67, 0
6, 72840, Note_on_c, 4, 67, 100
6, 72948, Note_on_c, 4, 67, 0
6, 72960, Note_on_c, 4, 67, 100
6, 73068, Note_on_c, 4, 67, 0
6, 74520, Note_on_c, 4, 62, 100
6, 74736, Note_on_c, 4, 62, 0
6, 74760, Note_on_c, 4, 61, 100
6, 74868, Note_on_c, 4, 61, 0
6, 74880, Note_on_c, 4, 62, 100
6, 74934, Note_on_c, 4, 62, 0
6, 74940, Note_on_c, 4, 64, 100
6, 74994, Note_on_c, 4, 64, 0
6, 75000, Note_on_c, 4, 65, 100
6, 75054, Note_on_c, 4, 65, 0
6, 75060, Note_on_c, 4, 67, 100
6, 75114, Note_on_c, 4, 67, 0
6, 75120, Note_on_c, 4, 69, 100
6, 75228, Note_on_c, 4, 69, 0
6, 75240, Note_on_c, 4, 57, 100
6, 75348, Note_on_c, 4, 57, 0
6, 75360, Note_on_c, 4, 62, 100
6, 75468, Note_on_c, 4, 62, 0
6, 75480, Note_on_c, 4, 62, 100
6, 75588, Note_on_c, 4, 62, 0
6, 75600, Note_on_c, 4, 62, 100
6, 75708, Note_on_c, 4, 62, 0
6, 75720, Note_on_c, 4, 69, 100
6, 75828, Note_on_c, 4, 69, 0
6, 75840, Note_on_c, 4, 69, 100
6, 75948, Note_on_c, 4, 69, 0
6, 75960, Note_on_c, 4, 57, 100
6, 76014, Note_on_c, 4, 57, 0
6, 76020, Note_on_c, 4, 58, 100
6, 76074, Note_on_c, 4, 58, 0
6, 76080, Note_on_c, 4, 60, 100
6, 76134, Note_on_c, 4, 60, 0
6, 76140, Note_on_c, 4, 63, 100
6, 76194, Note_on_c, 4, 63, 0
6, 76200, Note_on_c, 4, 62, 100
6, 76254, Note_on_c, 4, 62, 0
6, 76260, Note_on_c, 4, 57, 100
6, 76314, Note_on_c, 4, 57, 0
6, 76320, Note_on_c, 4, 58, 100
6, 76356, Note_on_c, 4, 58, 0
6, 76360, Note_on_c, 4, 57, 100
6, 76396, Note_on_c, 4, 57, 0
6, 76400, Note_on_c, 4, 55, 100
6, 76436, Note_on_c, 4, 55, 0
6, 76440, Note_on_c, 4, 67, 100
6, 76548, Note_on_c, 4, 67, 0
6, 76560, Note_on_c, 4, 67, 100
6, 76668, Note_on_c, 4, 67, 0
6, 76680, Note_on_c, 4, 67, 100
6, 76788, Note_on_c, 4, 67, 0
6, 76800, Note_on_c, 4, 67, 100
6, 76908, Note_on_c, 4, 67, 0
6, 76920, Note_on_c, 4, 67, 100
6, 76974, Note_on_c, 4, 67, 0
6, 76980, Note_on_c, 4, 69, 100
6, 77034, Note_on_c, 4, 69, 0
6, 77040, Note_on_c, 4, 70, 100
6, 77094, Note_on_c, 4, 70, 0
6, 77100, Note_on_c, 4, 67, 100
6, 77154, Note_on_c, 4, 67, 0
6, 77160, Note_on_c, 4, 69, 100
6, 77268, Note_on_c, 4, 69, 0
6, 77280, Note_on_c, 4, 69, 100
6, 77388, Note_on_c, 4, 69, 0
6, 77640, Note_on_c, 4, 66, 100
6, 77748, Note_on_c, 4, 66, 0
6, 77760, Note_on_c, 4, 62, 100
6, 77868, Note_on_c, 4, 62, 0
6, 78120, Note_on_c, 4, 62, 100
6, 78228, Note_on_c, 4, 62, 0
6, 78240, Note_on_c, 4, 74, 100
6, 78348, Note_on_c, 4, 74, 0
6, 78360, Note_on_c, 4, 58, 100
6, 78468, Note_on_c, 4, 58, 0
6, 78480, Note_on_c, 4, 62, 100
6, 78588, Note_on_c, 4, 62, 0
6, 78600, Note_on_c, 4, 63, 100
6, 78708, Note_on_c, 4, 63, 0
6, 78720, Note_on_c, 4, 62, 100
6, 78828, Note_on_c, 4, 62, 0
6, 78840, Note_on_c, 4, 62, 100
6, 78948, Note_on_c, 4, 62, 0
6, 78960, Note_on_c, 4, 62, 100
6, 79068, Note_on_c, 4, 62, 0
6, 79080, Note_on_c, 4, 57, 100
6, 79188, Note_on_c, 4, 57, 0
6, 79200, Note_on_c, 4, 64, 100
6, 79308, Note_on_c, 4, 64, 0
6, 79560, Note_on_c, 4, 59, 100
6, 79668, Note_on_c, 4, 59, 0
6, 79680, Note_on_c, 4, 60, 100
6, 79788, Note_on_c, 4, 60, 0
6, 80040, Note_on_c, 4, 59, 100
6, 80148, Note_on_c, 4, 59, 0
6, 80160, Note_on_c, 4, 60, 100
6, 80268, Note_on_c, 4, 60, 0
6, 80280, Note_on_c, 4, 60, 100
6, 80388, Note_on_c, 4, 60, 0
6, 80400, Note_on_c, 4, 64, 100
6, 80508, Note_on_c, 4, 64, 0
6, 80520, Note_on_c, 4, 65, 100
6, 80628, Note_on_c, 4, 65, 0
6, 80640, Note_on_c, 4, 64, 100
6, 80748, Note_on_c, 4, 64, 0
6, 80760, Note_on_c, 4, 64, 100
6, 80868, Note_on_c, 4, 64, 0
6, 80880, Note_on_c, 4, 64, 100
6, 80988, Note_on_c, 4, 64, 0
6, 81000, Note_on_c, 4, 61, 100
6, 81108, Note_on_c, 4, 61, 0
6, 81120, Note_on_c, 4, 57, 100
6, 81228, Note_on_c, 4, 57, 0
6, 81480, Note_on_c, 4, 61, 100
6, 81588, Note_on_c, 4, 61, 0
6, 81600, Note_on_c, 4, 62, 100
6, 81708, Note_on_c, 4, 62, 0
6, 81960, Note_on_c, 4, 57, 100
6, 82068, Note_on_c, 4, 57, 0
6, 82080, Note_on_c, 4, 62, 100
6, 82188, Note_on_c, 4, 62, 0
6, 82440, Note_on_c, 4, 64, 100
6, 82548, Note_on_c, 4, 64, 0
6, 82560, Note_on_c, 4, 65, 100
6, 82668, Note_on_c, 4, 65, 0
6, 82680, Note_on_c, 4, 61, 100
6, 82788, Note_on_c, 4, 61, 0
6, 82800, Note_on_c, 4, 62, 100
6, 82908, Note_on_c, 4, 62, 0
6, 82920, Note_on_c, 4, 64, 100
6, 83028, Note_on_c, 4, 64, 0
6, 83040, Note_on_c, 4, 65, 100
6, 83148, Note_on_c, 4, 65, 0
6, 84520, Note_on_c, 4, 61, 100
6, 84556, Note_on_c, 4, 61, 0
6, 84560, Note_on_c, 4, 62, 100
6, 84596, Note_on_c, 4, 62, 0
6, 84600, Note_on_c, 4, 64, 100
6, 84636, Note_on_c, 4, 64, 0
6, 84640, Note_on_c, 4, 62, 100
6, 84676, Note_on_c, 4, 62, 0
6, 84680, Note_on_c, 4, 64, 100
6, 84716, Note_on_c, 4, 64, 0
6, 84720, Note_on_c, 4, 57, 100
6, 84756, Note_on_c, 4, 57, 0
6, 84760, Note_on_c, 4, 64, 100
6, 84796, Note_on_c, 4, 64, 0
6, 84800, Note_on_c, 4, 65, 100
6, 84836, Note_on_c, 4, 65, 0
6, 84840, Note_on_c, 4, 67, 100
6, 84876, Note_on_c, 4, 67, 0
6, 84880, Note_on_c, 4, 65, 100
6, 84916, Note_on_c, 4, 65, 0
6, 84920, Note_on_c, 4, 64, 100
6, 84956, Note_on_c, 4, 64, 0
6, 84960, Note_on_c, 4, 65, 100
6, 85068, Note_on_c, 4, 65, 0
6, 85080, Note_on_c, 4, 66, 100
6, 85188, Note_on_c, 4, 66, 0
6, 85320, Note_on_c, 4, 66, 100
6, 85428, Note_on_c, 4, 66, 0
6, 85440, Note_on_c, 4, 62, 100
6, 85548, Note_on_c, 4, 62, 0
6, 85560, Note_on_c, 4, 67, 100
6, 85668, Note_on_c, 4, 67, 0
6, 85800, Note_on_c, 4, 62, 100
6, 85908, Note_on_c, 4, 62, 0
6, 85920, Note_on_c, 4, 60, 100
6, 86028, Note_on_c, 4, 60, 0
6, 86040, Note_on_c, 4, 55, 100
6, 86148, Note_on_c, 4, 55, 0
6, 86280, Note_on_c, 4, 60, 100
6, 86388, Note_on_c, 4, 60, 0
6, 86400, Note_on_c, 4, 57, 100
6, 86508, Note_on_c, 4, 57, 0
6, 87930, Note_on_c, 4, 69, 100
6, 87957, Note_on_c, 4, 69, 0
6, 87960, Note_on_c, 4, 70, 100
6, 88041, Note_on_c, 4, 70, 0
6, 88050, Note_on_c, 4, 64, 100
6, 88077, Note_on_c, 4, 64, 0
6, 88080, Note_on_c, 4, 64, 100
6, 88161, Note_on_c, 4, 64, 0
6, 88170, Note_on_c, 4, 65, 100
6, 88197, Note_on_c, 4, 65, 0
6, 88200, Note_on_c, 4, 67, 100
6, 88281, Note_on_c, 4, 67, 0
6, 88290, Note_on_c, 4, 64, 100
6, 88317, Note_on_c, 4, 64, 0
6, 88320, Note_on_c, 4, 65, 100
6, 88428, Note_on_c, 4, 65, 0
6, 89280, Note_on_c, 4, 50, 100
6, 89280, Note_on_c, 4, 56, 100
6, 89280, Note_on_c, 4, 65, 100
6, 89388, Note_on_c, 4, 50, 0
6, 89388, Note_on_c, 4, 56, 0
6, 89388, Note_on_c, 4, 65, 0
6, 90240, Note_on_c, 4, 64, 100
6, 90348, Note_on_c, 4, 64, 0
6, 90840, Note_on_c, 4, 64, 100
6, 90948, Note_on_c, 4, 64, 0
6, 90960, Note_on_c, 4, 64, 100
6, 91068, Note_on_c, 4, 64, 0
6, 91080, Note_on_c, 4, 65, 100
6, 91188, Note_on_c, 4, 65, 0
6, 91200, Note_on_c, 4, 64, 100
6, 91308, Note_on_c, 4, 64, 0
6, 91800, Note_on_c, 4, 64, 100
6, 91908, Note_on_c, 4, 64, 0
6, 91920, Note_on_c, 4, 52, 100
6, 92028, Note_on_c, 4, 52, 0
6, 92040, Note_on_c, 4, 56, 100
6, 92148, Note_on_c, 4, 56, 0
6, 92160, Note_on_c, 4, 60, 100
6, 92268, Note_on_c, 4, 60, 0
6, 93120, Note_on_c, 4, 51, 100
6, 93120, Note_on_c, 4, 57, 100
6, 93120, Note_on_c, 4, 66, 100
6, 93228, Note_on_c, 4, 51, 0
6, 93228, Note_on_c, 4, 57, 0
6, 93228, Note_on_c, 4, 66, 0
6, 94200, Note_on_c, 4, 52, 100
6, 94254, Note_on_c, 4, 52, 0
6, 94260, Note_on_c, 4, 54, 100
6, 94314, Note_on_c, 4, 54, 0
6, 94320, Note_on_c, 4, 55, 100
6, 94374, Note_on_c, 4, 55, 0
6, 94380, Note_on_c, 4, 59, 100
6, 94434, Note_on_c, 4, 59, 0
6, 94440, Note_on_c, 4, 57, 100
6, 94494, Note_on_c, 4, 57, 0
6, 94500, Note_on_c, 4, 54, 100
6, 94554, Note_on_c, 4, 54, 0
6, 94560, Note_on_c, 4, 55, 100
6, 94614, Note_on_c, 4, 55, 0
6, 94620, Note_on_c, 4, 52, 100
6, 94674, Note_on_c, 4, 52, 0
6, 94680, Note_on_c, 4, 55, 100
6, 94734, Note_on_c, 4, 55, 0
6, 94740, Note_on_c, 4, 59, 100
6, 94794, Note_on_c, 4, 59, 0
6, 94800, Note_on_c, 4, 64, 100
6, 94836, Note_on_c, 4, 64, 0
6, 94840, Note_on_c, 4, 66, 100
6, 94876, Note_on_c, 4, 66, 0
6, 94880, Note_on_c, 4, 67, 100
6, 94916, Note_on_c, 4, 67, 0
6, 94920, Note_on_c, 4, 66, 100
6, 94956, Note_on_c, 4, 66, 0
6, 94960, Note_on_c, 4, 64, 100
6, 94996, Note_on_c, 4, 64, 0
6, 95000, Note_on_c, 4, 63, 100
6, 95036, Note_on_c, 4, 63, 0
6, 95040, Note_on_c, 4, 64, 100
6, 95148, Note_on_c, 4, 64, 0
6, 95280, Note_on_c, 4, 68, 100
6, 95388, Note_on_c, 4, 68, 0
6, 95400, Note_on_c, 4, 59, 100
6, 95508, Note_on_c, 4, 59, 0
6, 95760, Note_on_c, 4, 62, 100
6, 95868, Note_on_c, 4, 62, 0
6, 95880, Note_on_c, 4, 56, 100
6, 95988, Note_on_c, 4, 56, 0
6, 96000, Note_on_c, 4, 60, 100
6, 96108, Note_on_c, 4, 60, 0
6, 96840, Note_on_c, 4, 68, 100
6, 96948, Note_on_c, 4, 68, 0
6, 96960, Note_on_c, 4, 69, 100
6, 97068, Note_on_c, 4, 69, 0
6, 97800, Note_on_c, 4, 66, 100
6, 97908, Note_on_c, 4, 66, 0
6, 97920, Note_on_c, 4, 67, 100
6, 98028, Note_on_c, 4, 67, 0
6, 98880, Note_on_c, 4, 52, 100
6, 98880, Note_on_c, 4, 59, 100
6, 98880, Note_on_c, 4, 67, 100
6, 98988, Note_on_c, 4, 52, 0
6, 98988, Note_on_c, 4, 59, 0
6, 98988, Note_on_c, 4, 67, 0
6, 99840, Note_on_c, 4, 50, 100
6, 99840, Note_on_c, 4, 57, 100
6, 99840, Note_on_c, 4, 66, 100
6, 99948, Note_on_c, 4, 50, 0
6, 99948, Note_on_c, 4, 57, 0
6, 99948, Note_on_c, 4, 66, 0
6, 100800, Note_on_c, 4, 50, 100
6, 100800, Note_on_c, 4, 59, 100
6, 100800, Note_on_c, 4, 67, 100
6, 100908, Note_on_c, 4, 50, 0
6, 100908, Note_on_c, 4, 59, 0
6, 100908, Note_on_c, 4, 67, 0
6, 102360, Note_on_c, 4, 57, 100
6, 102468, Note_on_c, 4, 57, 0
6, 102480, Note_on_c, 4, 59, 100
6, 102588, Note_on_c, 4, 59, 0
6, 102600, Note_on_c, 4, 57, 100
6, 102708, Note_on_c, 4, 57, 0
6, 102720, Note_on_c, 4, 55, 100
6, 102828, Note_on_c, 4, 55, 0
6, 102840, Note_on_c, 4, 59, 100
6, 102948, Note_on_c, 4, 59, 0
6, 103080, Note_on_c, 4, 57, 100
6, 103188, Note_on_c, 4, 57, 0
6, 103320, Note_on_c, 4, 62, 100
6, 103428, Note_on_c, 4, 62, 0
6, 103560, Note_on_c, 4, 60, 100
6, 103668, Note_on_c, 4, 60, 0
6, 103800, Note_on_c, 4, 60, 100
6, 103908, Note_on_c, 4, 60, 0
6, 104040, Note_on_c, 4, 60, 100
6, 104148, Note_on_c, 4, 60, 0
6, 104160, Note_on_c, 4, 62, 100
6, 104268, Note_on_c, 4, 62, 0
6, 104280, Note_on_c, 4, 71, 100
6, 104388, Note_on_c, 4, 71, 0
6, 104400, Note_on_c, 4, 67, 100
6, 104508, Note_on_c, 4, 67, 0
6, 104520, Note_on_c, 4, 62, 100
6, 104628, Note_on_c, 4, 62, 0
6, 104640, Note_on_c, 4, 59, 100
6, 105072, Note_on_c, 4, 59, 0
6, 105120, Note_on_c, 4, 60, 100
6, 105552, Note_on_c, 4, 60, 0
6, 105660, Note_on_c, 4, 57, 100
6, 105714, Note_on_c, 4, 57, 0
6, 105720, Note_on_c, 4, 64, 100
6, 105774, Note_on_c, 4, 64, 0
6, 105780, Note_on_c, 4, 65, 100
6, 105834, Note_on_c, 4, 65, 0
6, 105840, Note_on_c, 4, 67, 100
6, 105894, Note_on_c, 4, 67, 0
6, 105900, Note_on_c, 4, 70, 100
6, 105954, Note_on_c, 4, 70, 0
6, 105960, Note_on_c, 4, 69, 100
6, 106014, Note_on_c, 4, 69, 0
6, 106020, Note_on_c, 4, 64, 100
6, 106074, Note_on_c, 4, 64, 0
6, 106080, Note_on_c, 4, 65, 100
6, 106512, Note_on_c, 4, 65, 0
6, 106560, Note_on_c, 4, 64, 100
6, 106992, Note_on_c, 4, 64, 0
6, 107040, Note_on_c, 4, 69, 100
6, 107148, Note_on_c, 4, 69, 0
6, 109440, Note_on_c, 4, 56, 100
6, 109440, Note_on_c, 4, 62, 100
6, 109440, Note_on_c, 4, 71, 100
6, 109548, Note_on_c, 4, 56, 0
6, 109548, Note_on_c, 4, 62, 0
6, 109548, Note_on_c, 4, 71, 0
6, 114720, Note_on_c, 4, 56, 100
6, 114828, Note_on_c, 4, 56, 0
6, 114960, Note_on_c, 4, 59, 100
6, 115068, Note_on_c, 4, 59, 0
6, 115200, Note_on_c, 4, 62, 100
6, 115308, Note_on_c, 4, 62, 0
6, 115440, Note_on_c, 4, 59, 100
6, 115548, Note_on_c, 4, 59, 0
6, 115680, Note_on_c, 4, 60, 100
6, 115788, Note_on_c, 4, 60, 0
6, 115920, Note_on_c, 4, 57, 100
6, 116028, Note_on_c, 4, 57, 0
6, 116160, Note_on_c, 4, 60, 100
6, 116268, Note_on_c, 4, 60, 0
6, 116400, Note_on_c, 4, 64, 100
6, 116508, Note_on_c, 4, 64, 0
6, 116640, Note_on_c, 4, 61, 100
6, 116748, Note_on_c, 4, 61, 0
6, 116880, Note_on_c, 4, 64, 100
6, 116988, Note_on_c, 4, 64, 0
6, 117120, Note_on_c, 4, 73, 100
6, 117228, Note_on_c, 4, 73, 0
6, 117360, Note_on_c, 4, 73, 100
6, 117468, Note_on_c, 4, 73, 0
6, 117600, Note_on_c, 4, 74, 100
6, 117708, Note_on_c, 4, 74, 0
6, 117840, Note_on_c, 4, 74, 100
6, 117948, Note_on_c, 4, 74, 0
6, 118080, Note_on_c, 4, 69, 100
6, 118188, Note_on_c, 4, 69, 0
6, 118320, Note_on_c, 4, 65, 100
6, 118428, Note_on_c, 4, 65, 0
6, 118560, Note_on_c, 4, 56, 100
6, 118668, Note_on_c, 4, 56, 0
6, 118800, Note_on_c, 4, 62, 100
6, 118908, Note_on_c, 4, 62, 0
6, 119040, Note_on_c, 4, 62, 100
6, 119148, Note_on_c, 4, 62, 0
6, 119280, Note_on_c, 4, 56, 100
6, 119388, Note_on_c, 4, 56, 0
6, 119520, Note_on_c, 4, 61, 100
6, 119628, Note_on_c, 4, 61, 0
6, 119760, Note_on_c, 4, 57, 100
6, 119868, Note_on_c, 4, 57, 0
6, 120000, Note_on_c, 4, 57, 100
6, 120108, Note_on_c, 4, 57, 0
6, 120240, Note_on_c, 4, 60, 100
6, 120348, Note_on_c, 4, 60, 0
6, 120480, Note_on_c, 4, 64, 100
6, 120588, Note_on_c, 4, 64, 0
6, 120720, Note_on_c, 4, 71, 100
6, 120828, Note_on_c, 4, 71, 0
6, 120960, Note_on_c, 4, 72, 100
6, 121068, Note_on_c, 4, 72, 0
6, 121200, Note_on_c, 4, 66, 100
6, 121308, Note_on_c, 4, 66, 0
6, 121440, Note_on_c, 4, 68, 100
6, 121548, Note_on_c, 4, 68, 0
6, 121680, Note_on_c, 4, 59, 100
6, 121788, Note_on_c, 4, 59, 0
6, 121920, Note_on_c, 4, 57, 100
6, 122028, Note_on_c, 4, 57, 0
6, 122520, Note_on_c, 4, 57, 100
6, 122574, Note_on_c, 4, 57, 0
6, 122580, Note_on_c, 4, 59, 100
6, 122634, Note_on_c, 4, 59, 0
6, 122640, Note_on_c, 4, 60, 100
6, 122694, Note_on_c, 4, 60, 0
6, 122700, Note_on_c, 4, 64, 100
6, 122754, Note_on_c, 4, 64, 0
6, 122760, Note_on_c, 4, 62, 100
6, 122814, Note_on_c, 4, 62, 0
6, 122820, Note_on_c, 4, 59, 100
6, 122874, Note_on_c, 4, 59, 0
6, 122880, Note_on_c, 4, 60, 100
6, 122934, Note_on_c, 4, 60, 0
6, 122940, Note_on_c, 4, 57, 100
6, 122994, Note_on_c, 4, 57, 0
6, 123000, Note_on_c, 4, 60, 100
6, 123054, Note_on_c, 4, 60, 0
6, 123060, Note_on_c, 4, 64, 100
6, 123114, Note_on_c, 4, 64, 0
6, 123120, Note_on_c, 4, 69, 100
6, 123156, Note_on_c, 4, 69, 0
6, 123160, Note_on_c, 4, 71, 100
6, 123196, Note_on_c, 4, 71, 0
6, 123200, Note_on_c, 4, 72, 100
6, 123236, Note_on_c, 4, 72, 0
6, 123240, Note_on_c, 4, 71, 100
6, 123276, Note_on_c, 4, 71, 0
6, 123280, Note_on_c, 4, 69, 100
6, 123316, Note_on_c, 4, 69, 0
6, 123320, Note_on_c, 4, 68, 100
6, 123356, Note_on_c, 4, 68, 0
6, 123360, Note_on_c, 4, 69, 100
6, 123468, Note_on_c, 4, 69, 0
6, 123480, Note_on_c, 4, 57, 100
6, 123534, Note_on_c, 4, 57, 0
6, 123540, Note_on_c, 4, 59, 100
6, 123594, Note_on_c, 4, 59, 0
6, 123600, Note_on_c, 4, 60, 100
6, 123654, Note_on_c, 4, 60, 0
6, 123660, Note_on_c, 4, 64, 100
6, 123714, Note_on_c, 4, 64, 0
6, 123720, Note_on_c, 4, 62, 100
6, 123774, Note_on_c, 4, 62, 0
6, 123780, Note_on_c, 4, 59, 100
6, 123834, Note_on_c, 4, 59, 0
6, 123840, Note_on_c, 4, 57, 100
6, 125016, Note_on_c, 4, 57, 0
6, 125040, Note_on_c, 4, 55, 100
6, 125868, Note_on_c, 4, 55, 0
6, 125880, Note_on_c, 4, 59, 100
6, 125988, Note_on_c, 4, 59, 0
6, 126000, Note_on_c, 4, 60, 100
6, 126108, Note_on_c, 4, 60, 0
6, 126360, Note_on_c, 4, 64, 100
6, 126468, Note_on_c, 4, 64, 0
6, 126480, Note_on_c, 4, 65, 100
6, 126588, Note_on_c, 4, 65, 0
6, 126600, Note_on_c, 4, 65, 100
6, 126708, Note_on_c, 4, 65, 0
6, 126720, Note_on_c, 4, 59, 100
6, 126828, Note_on_c, 4, 59, 0
6, 127200, Note_on_c, 4, 59, 100
6, 127308, Note_on_c, 4, 59, 0
6, 127680, Note_on_c, 4, 64, 100
6, 127788, Note_on_c, 4, 64, 0
6, 128160, Note_on_c, 4, 59, 100
6, 128268, Note_on_c, 4, 59, 0
6, 128640, Note_on_c, 4, 56, 100
6, 128748, Note_on_c, 4, 56, 0
6, 129000, Note_on_c, 4, 64, 100
6, 129108, Note_on_c, 4, 64, 0
6, 129120, Note_on_c, 4, 59, 100
6, 129228, Note_on_c, 4, 59, 0
6, 129480, Note_on_c, 4, 62, 100
6, 129588, Note_on_c, 4, 62, 0
6, 129600, Note_on_c, 4, 59, 100
6, 129708, Note_on_c, 4, 59, 0
6, 129960, Note_on_c, 4, 56, 100
6, 130068, Note_on_c, 4, 56, 0
6, 130080, Note_on_c, 4, 60, 100
6, 130188, Note_on_c, 4, 60, 0
6, 130440, Note_on_c, 4, 68, 100
6, 130548, Note_on_c, 4, 68, 0
6, 130560, Note_on_c, 4, 61, 100
6, 130668, Note_on_c, 4, 61, 0
6, 130920, Note_on_c, 4, 64, 100
6, 131028, Note_on_c, 4, 64, 0
6, 131040, Note_on_c, 4, 65, 100
6, 131148, Note_on_c, 4, 65, 0
6, 131400, Note_on_c, 4, 69, 100
6, 131508, Note_on_c, 4, 69, 0
6, 131520, Note_on_c, 4, 65, 100
6, 133344, Note_on_c, 4, 65, 0
6, 133440, Note_on_c, 4, 56, 100
6, 133548, Note_on_c, 4, 56, 0
6, 135000, Note_on_c, 4, 60, 100
6, 135108, Note_on_c, 4, 60, 0
6, 135120, Note_on_c, 4, 57, 100
6, 135228, Note_on_c, 4, 57, 0
6, 135240, Note_on_c, 4, 64, 100
6, 135348, Note_on_c, 4, 64, 0
6, 135360, Note_on_c, 4, 60, 100
6, 135576, Note_on_c, 4, 60, 0
6, 135960, Note_on_c, 4, 64, 100
6, 136068, Note_on_c, 4, 64, 0
6, 136080, Note_on_c, 4, 64, 100
6, 136188, Note_on_c, 4, 64, 0
6, 136200, Note_on_c, 4, 71, 100
6, 136308, Note_on_c, 4, 71, 0
6, 136320, Note_on_c, 4, 64, 100
6, 136428, Note_on_c, 4, 64, 0
6, 136440, Note_on_c, 4, 69, 100
6, 136548, Note_on_c, 4, 69, 0
6, 136560, Note_on_c, 4, 68, 100
6, 136668, Note_on_c, 4, 68, 0
6, 136680, Note_on_c, 4, 69, 100
6, 136788, Note_on_c, 4, 69, 0
6, 136800, Note_on_c, 4, 64, 100
6, 136908, Note_on_c, 4, 64, 0
6, 136920, Note_on_c, 4, 64, 100
6, 137028, Note_on_c, 4, 64, 0
6, 137040, Note_on_c, 4, 59, 100
6, 137148, Note_on_c, 4, 59, 0
6, 137160, Note_on_c, 4, 57, 100
6, 137268, Note_on_c, 4, 57, 0
6, 137280, Note_on_c, 4, 59, 100
6, 137388, Note_on_c, 4, 59, 0
6, 137400, Note_on_c, 4, 57, 100
6, 137508, Note_on_c, 4, 57, 0
6, 137520, Note_on_c, 4, 56, 100
6, 137628, Note_on_c, 4, 56, 0
6, 137640, Note_on_c, 4, 57, 100
6, 137748, Note_on_c, 4, 57, 0
6, 137760, Note_on_c, 4, 52, 100
6, 137868, Note_on_c, 4, 52, 0
6, 137880, Note_on_c, 4, 52, 100
6, 137988, Note_on_c, 4, 52, 0
6, 138000, Note_on_c, 4, 59, 100
6, 138108, Note_on_c, 4, 59, 0
6, 138120, Note_on_c, 4, 57, 100
6, 138228, Note_on_c, 4, 57, 0
6, 138240, Note_on_c, 4, 59, 100
6, 138348, Note_on_c, 4, 59, 0
6, 138360, Note_on_c, 4, 64, 100
6, 138468, Note_on_c, 4, 64, 0
6, 138480, Note_on_c, 4, 64, 100
6, 138588, Note_on_c, 4, 64, 0
6, 138600, Note_on_c, 4, 69, 100
6, 138708, Note_on_c, 4, 69, 0
6, 138720, Note_on_c, 4, 69, 100
6, 138828, Note_on_c, 4, 69, 0
6, 138840, Note_on_c, 4, 62, 100
6, 138948, Note_on_c, 4, 62, 0
6, 138960, Note_on_c, 4, 62, 100
6, 139068, Note_on_c, 4, 62, 0
6, 139080, Note_on_c, 4, 67, 100
6, 139188, Note_on_c, 4, 67, 0
6, 139200, Note_on_c, 4, 67, 100
6, 139308, Note_on_c, 4, 67, 0
6, 139320, Note_on_c, 4, 69, 100
6, 139428, Note_on_c, 4, 69, 0
6, 139440, Note_on_c, 4, 60, 100
6, 139548, Note_on_c, 4, 60, 0
6, 139560, Note_on_c, 4, 60, 100
6, 139668, Note_on_c, 4, 60, 0
6, 139680, Note_on_c, 4, 62, 100
6, 139788, Note_on_c, 4, 62, 0
6, 139800, Note_on_c, 4, 64, 100
6, 139908, Note_on_c, 4, 64, 0
6, 139920, Note_on_c, 4, 59, 100
6, 140028, Note_on_c, 4, 59, 0
6, 140040, Note_on_c, 4, 59, 100
6, 140148, Note_on_c, 4, 59, 0
6, 140160, Note_on_c, 4, 60, 100
6, 140268, Note_on_c, 4, 60, 0
6, 140280, Note_on_c, 4, 69, 100
6, 140388, Note_on_c, 4, 69, 0
6, 140400, Note_on_c, 4, 65, 100
6, 140508, Note_on_c, 4, 65, 0
6, 140520, Note_on_c, 4, 62, 100
6, 140628, Note_on_c, 4, 62, 0
6, 140640, Note_on_c, 4, 56, 100
6, 140676, Note_on_c, 4, 56, 0
6, 140680, Note_on_c, 4, 57, 100
6, 140716, Note_on_c, 4, 57, 0
6, 140720, Note_on_c, 4, 59, 100
6, 140756, Note_on_c, 4, 59, 0
6, 140760, Note_on_c, 4, 56, 100
6, 140796, Note_on_c, 4, 56, 0
6, 140800, Note_on_c, 4, 57, 100
6, 140836, Note_on_c, 4, 57, 0
6, 140840, Note_on_c, 4, 59, 100
6, 140876, Note_on_c, 4, 59, 0
6, 140880, Note_on_c, 4, 57, 100
6, 140988, Note_on_c, 4, 57, 0
6, 141000, Note_on_c, 4, 59, 100
6, 141108, Note_on_c, 4, 59, 0
6, 141120, Note_on_c, 4, 64, 100
6, 141228, Note_on_c, 4, 64, 0
6, 141240, Note_on_c, 4, 65, 100
6, 141348, Note_on_c, 4, 65, 0
6, 141360, Note_on_c, 4, 64, 100
6, 141468, Note_on_c, 4, 64, 0
6, 141480, Note_on_c, 4, 62, 100
6, 141588, Note_on_c, 4, 62, 0
6, 141600, Note_on_c, 4, 60, 100
6, 141708, Note_on_c, 4, 60, 0
6, 141720, Note_on_c, 4, 53, 100
6, 141828, Note_on_c, 4, 53, 0
6, 141840, Note_on_c, 4, 52, 100
6, 141948, Note_on_c, 4, 52, 0
6, 141960, Note_on_c, 4, 52, 100
6, 142068, Note_on_c, 4, 52, 0
6, 142080, Note_on_c, 4, 52, 100
6, 142296, Note_on_c, 4, 52, 0
6, 142296, End_track
7, 0, Start_track
7, 0, Sequence_number, 65535
7, 0, MIDI_port, 0
7, 0, Title_t, "Violoncello e Violone"
7, 0, Control_c, 5, 0, 0
7, 0, Control_c, 5, 32, 0
7, 0, Program_c, 5, 48
7, 0, Control_c, 5, 7, 80
7, 0, Control_c, 5, 10, 94
7, 0, Note_on_c, 5, 45, 100
7, 216, Note_on_c, 5, 45, 0
7, 600, Note_on_c, 5, 57, 100
7, 708, Note_on_c, 5, 57, 0
7, 720, Note_on_c, 5, 48, 100
7, 828, Note_on_c, 5, 48, 0
7, 840, Note_on_c, 5, 52, 100
7, 948, Note_on_c, 5, 52, 0
7, 960, Note_on_c, 5, 45, 100
7, 1176, Note_on_c, 5, 45, 0
7, 1560, Note_on_c, 5, 57, 100
7, 1614, Note_on_c, 5, 57, 0
7, 1620, Note_on_c, 5, 59, 100
7, 1674, Note_on_c, 5, 59, 0
7, 1680, Note_on_c, 5, 60, 100
7, 1734, Note_on_c, 5, 60, 0
7, 1740, Note_on_c, 5, 64, 100
7, 1794, Note_on_c, 5, 64, 0
7, 1800, Note_on_c, 5, 62, 100
7, 1854, Note_on_c, 5, 62, 0
7, 1860, Note_on_c, 5, 59, 100
7, 1914, Note_on_c, 5, 59, 0
7, 1920, Note_on_c, 5, 60, 100
7, 1956, Note_on_c, 5, 60, 0
7, 1960, Note_on_c, 5, 59, 100
7, 1996, Note_on_c, 5, 59, 0
7, 2000, Note_on_c, 5, 57, 100
7, 2036, Note_on_c, 5, 57, 0
7, 2520, Note_on_c, 5, 60, 100
7, 2628, Note_on_c, 5, 60, 0
7, 2640, Note_on_c, 5, 56, 100
7, 2748, Note_on_c, 5, 56, 0
7, 2760, Note_on_c, 5, 57, 100
7, 2868, Note_on_c, 5, 57, 0
7, 2880, Note_on_c, 5, 52, 100
7, 2988, Note_on_c, 5, 52, 0
7, 3480, Note_on_c, 5, 48, 100
7, 3588, Note_on_c, 5, 48, 0
7, 3600, Note_on_c, 5, 44, 100
7, 3708, Note_on_c, 5, 44, 0
7, 3720, Note_on_c, 5, 45, 100
7, 3828, Note_on_c, 5, 45, 0
7, 3840, Note_on_c, 5, 40, 100
7, 3948, Note_on_c, 5, 40, 0
7, 3960, Note_on_c, 5, 64, 100
7, 4041, Note_on_c, 5, 64, 0
7, 4050, Note_on_c, 5, 62, 100
7, 4077, Note_on_c, 5, 62, 0
7, 4080, Note_on_c, 5, 61, 100
7, 4188, Note_on_c, 5, 61, 0
7, 4200, Note_on_c, 5, 57, 100
7, 4308, Note_on_c, 5, 57, 0
7, 4320, Note_on_c, 5, 50, 100
7, 4428, Note_on_c, 5, 50, 0
7, 4440, Note_on_c, 5, 62, 100
7, 4521, Note_on_c, 5, 62, 0
7, 4530, Note_on_c, 5, 60, 100
7, 4557, Note_on_c, 5, 60, 0
7, 4560, Note_on_c, 5, 59, 100
7, 4668, Note_on_c, 5, 59, 0
7, 4680, Note_on_c, 5, 55, 100
7, 4788, Note_on_c, 5, 55, 0
7, 4800, Note_on_c, 5, 60, 100
7, 4836, Note_on_c, 5, 60, 0
7, 4840, Note_on_c, 5, 59, 100
7, 4876, Note_on_c, 5, 59, 0
7, 4880, Note_on_c, 5, 57, 100
7, 4916, Note_on_c, 5, 57, 0
7, 4920, Note_on_c, 5, 57, 100
7, 4956, Note_on_c, 5, 57, 0
7, 4960, Note_on_c, 5, 55, 100
7, 4996, Note_on_c, 5, 55, 0
7, 5000, Note_on_c, 5, 54, 100
7, 5036, Note_on_c, 5, 54, 0
7, 5040, Note_on_c, 5, 54, 100
7, 5076, Note_on_c, 5, 54, 0
7, 5080, Note_on_c, 5, 55, 100
7, 5116, Note_on_c, 5, 55, 0
7, 5120, Note_on_c, 5, 57, 100
7, 5156, Note_on_c, 5, 57, 0
7, 5160, Note_on_c, 5, 57, 100
7, 5196, Note_on_c, 5, 57, 0
7, 5200, Note_on_c, 5, 59, 100
7, 5236, Note_on_c, 5, 59, 0
7, 5240, Note_on_c, 5, 60, 100
7, 5276, Note_on_c, 5, 60, 0
7, 5280, Note_on_c, 5, 59, 100
7, 5316, Note_on_c, 5, 59, 0
7, 5320, Note_on_c, 5, 57, 100
7, 5356, Note_on_c, 5, 57, 0
7, 5360, Note_on_c, 5, 56, 100
7, 5396, Note_on_c, 5, 56, 0
7, 5400, Note_on_c, 5, 56, 100
7, 5436, Note_on_c, 5, 56, 0
7, 5440, Note_on_c, 5, 54, 100
7, 5476, Note_on_c, 5, 54, 0
7, 5480, Note_on_c, 5, 52, 100
7, 5516, Note_on_c, 5, 52, 0
7, 5520, Note_on_c, 5, 52, 100
7, 5556, Note_on_c, 5, 52, 0
7, 5560, Note_on_c, 5, 54, 100
7, 5596, Note_on_c, 5, 54, 0
7, 5600, Note_on_c, 5, 56, 100
7, 5636, Note_on_c, 5, 56, 0
7, 5640, Note_on_c, 5, 56, 100
7, 5676, Note_on_c, 5, 56, 0
7, 5680, Note_on_c, 5, 57, 100
7, 5716, Note_on_c, 5, 57, 0
7, 5720, Note_on_c, 5, 59, 100
7, 5756, Note_on_c, 5, 59, 0
7, 5760, Note_on_c, 5, 57, 100
7, 5868, Note_on_c, 5, 57, 0
7, 5880, Note_on_c, 5, 50, 100
7, 5988, Note_on_c, 5, 50, 0
7, 6000, Note_on_c, 5, 50, 100
7, 6108, Note_on_c, 5, 50, 0
7, 6120, Note_on_c, 5, 50, 100
7, 6228, Note_on_c, 5, 50, 0
7, 6240, Note_on_c, 5, 38, 100
7, 6348, Note_on_c, 5, 38, 0
7, 6360, Note_on_c, 5, 50, 100
7, 6468, Note_on_c, 5, 50, 0
7, 6480, Note_on_c, 5, 48, 100
7, 6588, Note_on_c, 5, 48, 0
7, 6600, Note_on_c, 5, 47, 100
7, 6708, Note_on_c, 5, 47, 0
7, 6720, Note_on_c, 5, 48, 100
7, 6828, Note_on_c, 5, 48, 0
7, 6840, Note_on_c, 5, 50, 100
7, 6948, Note_on_c, 5, 50, 0
7, 6960, Note_on_c, 5, 52, 100
7, 7068, Note_on_c, 5, 52, 0
7, 7080, Note_on_c, 5, 40, 100
7, 7188, Note_on_c, 5, 40, 0
7, 7200, Note_on_c, 5, 41, 100
7, 7308, Note_on_c, 5, 41, 0
7, 7320, Note_on_c, 5, 38, 100
7, 7428, Note_on_c, 5, 38, 0
7, 7440, Note_on_c, 5, 40, 100
7, 7548, Note_on_c, 5, 40, 0
7, 7560, Note_on_c, 5, 40, 100
7, 7668, Note_on_c, 5, 40, 0
7, 7680, Note_on_c, 5, 45, 100
7, 7896, Note_on_c, 5, 45, 0
7, 8280, Note_on_c, 5, 57, 100
7, 8388, Note_on_c, 5, 57, 0
7, 8400, Note_on_c, 5, 48, 100
7, 8508, Note_on_c, 5, 48, 0
7, 8520, Note_on_c, 5, 52, 100
7, 8628, Note_on_c, 5, 52, 0
7, 8640, Note_on_c, 5, 45, 100
7, 8748, Note_on_c, 5, 45, 0
7, 9240, Note_on_c, 5, 57, 100
7, 9348, Note_on_c, 5, 57, 0
7, 9360, Note_on_c, 5, 48, 100
7, 9468, Note_on_c, 5, 48, 0
7, 9480, Note_on_c, 5, 52, 100
7, 9588, Note_on_c, 5, 52, 0
7, 9600, Note_on_c, 5, 45, 100
7, 9708, Note_on_c, 5, 45, 0
7, 13080, Note_on_c, 5, 60, 100
7, 13188, Note_on_c, 5, 60, 0
7, 13200, Note_on_c, 5, 56, 100
7, 13308, Note_on_c, 5, 56, 0
7, 13320, Note_on_c, 5, 57, 100
7, 13428, Note_on_c, 5, 57, 0
7, 13440, Note_on_c, 5, 52, 100
7, 13548, Note_on_c, 5, 52, 0
7, 14040, Note_on_c, 5, 48, 100
7, 14148, Note_on_c, 5, 48, 0
7, 14160, Note_on_c, 5, 44, 100
7, 14268, Note_on_c, 5, 44, 0
7, 14280, Note_on_c, 5, 45, 100
7, 14388, Note_on_c, 5, 45, 0
7, 14400, Note_on_c, 5, 40, 100
7, 14508, Note_on_c, 5, 40, 0
7, 14760, Note_on_c, 5, 52, 100
7, 14868, Note_on_c, 5, 52, 0
7, 14880, Note_on_c, 5, 45, 100
7, 14988, Note_on_c, 5, 45, 0
7, 15240, Note_on_c, 5, 57, 100
7, 15348, Note_on_c, 5, 57, 0
7, 15360, Note_on_c, 5, 62, 100
7, 15468, Note_on_c, 5, 62, 0
7, 15720, Note_on_c, 5, 50, 100
7, 15828, Note_on_c, 5, 50, 0
7, 15840, Note_on_c, 5, 55, 100
7, 15948, Note_on_c, 5, 55, 0
7, 16200, Note_on_c, 5, 55, 100
7, 16308, Note_on_c, 5, 55, 0
7, 16320, Note_on_c, 5, 60, 100
7, 16356, Note_on_c, 5, 60, 0
7, 16360, Note_on_c, 5, 59, 100
7, 16396, Note_on_c, 5, 59, 0
7, 16400, Note_on_c, 5, 57, 100
7, 16436, Note_on_c, 5, 57, 0
7, 16440, Note_on_c, 5, 57, 100
7, 16476, Note_on_c, 5, 57, 0
7, 16480, Note_on_c, 5, 55, 100
7, 16516, Note_on_c, 5, 55, 0
7, 16520, Note_on_c, 5, 54, 100
7, 16556, Note_on_c, 5, 54, 0
7, 16560, Note_on_c, 5, 54, 100
7, 16596, Note_on_c, 5, 54, 0
7, 16600, Note_on_c, 5, 55, 100
7, 16636, Note_on_c, 5, 55, 0
7, 16640, Note_on_c, 5, 57, 100
7, 16676, Note_on_c, 5, 57, 0
7, 16680, Note_on_c, 5, 57, 100
7, 16716, Note_on_c, 5, 57, 0
7, 16720, Note_on_c, 5, 59, 100
7, 16756, Note_on_c, 5, 59, 0
7, 16760, Note_on_c, 5, 60, 100
7, 16796, Note_on_c, 5, 60, 0
7, 16800, Note_on_c, 5, 59, 100
7, 16836, Note_on_c, 5, 59, 0
7, 16840, Note_on_c, 5, 57, 100
7, 16876, Note_on_c, 5, 57, 0
7, 16880, Note_on_c, 5, 56, 100
7, 16916, Note_on_c, 5, 56, 0
7, 16920, Note_on_c, 5, 56, 100
7, 16956, Note_on_c, 5, 56, 0
7, 16960, Note_on_c, 5, 54, 100
7, 16996, Note_on_c, 5, 54, 0
7, 17000, Note_on_c, 5, 52, 100
7, 17036, Note_on_c, 5, 52, 0
7, 17040, Note_on_c, 5, 52, 100
7, 17076, Note_on_c, 5, 52, 0
7, 17080, Note_on_c, 5, 54, 100
7, 17116, Note_on_c, 5, 54, 0
7, 17120, Note_on_c, 5, 56, 100
7, 17156, Note_on_c, 5, 56, 0
7, 17160, Note_on_c, 5, 56, 100
7, 17196, Note_on_c, 5, 56, 0
7, 17200, Note_on_c, 5, 57, 100
7, 17236, Note_on_c, 5, 57, 0
7, 17240, Note_on_c, 5, 59, 100
7, 17276, Note_on_c, 5, 59, 0
7, 17280, Note_on_c, 5, 57, 100
7, 17388, Note_on_c, 5, 57, 0
7, 17400, Note_on_c, 5, 45, 100
7, 17508, Note_on_c, 5, 45, 0
7, 17520, Note_on_c, 5, 45, 100
7, 17628, Note_on_c, 5, 45, 0
7, 17640, Note_on_c, 5, 45, 100
7, 17748, Note_on_c, 5, 45, 0
7, 17760, Note_on_c, 5, 45, 100
7, 17868, Note_on_c, 5, 45, 0
7, 17880, Note_on_c, 5, 57, 100
7, 17988, Note_on_c, 5, 57, 0
7, 18000, Note_on_c, 5, 55, 100
7, 18108, Note_on_c, 5, 55, 0
7, 18120, Note_on_c, 5, 54, 100
7, 18228, Note_on_c, 5, 54, 0
7, 18240, Note_on_c, 5, 55, 100
7, 18348, Note_on_c, 5, 55, 0
7, 18360, Note_on_c, 5, 57, 100
7, 18468, Note_on_c, 5, 57, 0
7, 18480, Note_on_c, 5, 59, 100
7, 18588, Note_on_c, 5, 59, 0
7, 18600, Note_on_c, 5, 47, 100
7, 18708, Note_on_c, 5, 47, 0
7, 18720, Note_on_c, 5, 48, 100
7, 18828, Note_on_c, 5, 48, 0
7, 18840, Note_on_c, 5, 45, 100
7, 18948, Note_on_c, 5, 45, 0
7, 18960, Note_on_c, 5, 47, 100
7, 19068, Note_on_c, 5, 47, 0
7, 19080, Note_on_c, 5, 47, 100
7, 19188, Note_on_c, 5, 47, 0
7, 19200, Note_on_c, 5, 40, 100
7, 19308, Note_on_c, 5, 40, 0
7, 19800, Note_on_c, 5, 52, 100
7, 19908, Note_on_c, 5, 52, 0
7, 19920, Note_on_c, 5, 43, 100
7, 20028, Note_on_c, 5, 43, 0
7, 20040, Note_on_c, 5, 47, 100
7, 20148, Note_on_c, 5, 47, 0
7, 20160, Note_on_c, 5, 40, 100
7, 20268, Note_on_c, 5, 40, 0
7, 20760, Note_on_c, 5, 52, 100
7, 20868, Note_on_c, 5, 52, 0
7, 20880, Note_on_c, 5, 43, 100
7, 20988, Note_on_c, 5, 43, 0
7, 21000, Note_on_c, 5, 47, 100
7, 21108, Note_on_c, 5, 47, 0
7, 21120, Note_on_c, 5, 40, 100
7, 21228, Note_on_c, 5, 40, 0
7, 21480, Note_on_c, 5, 52, 100
7, 21588, Note_on_c, 5, 52, 0
7, 21600, Note_on_c, 5, 45, 100
7, 21708, Note_on_c, 5, 45, 0
7, 21960, Note_on_c, 5, 50, 100
7, 22068, Note_on_c, 5, 50, 0
7, 22080, Note_on_c, 5, 43, 100
7, 22188, Note_on_c, 5, 43, 0
7, 23700, Note_on_c, 5, 57, 100
7, 23754, Note_on_c, 5, 57, 0
7, 23760, Note_on_c, 5, 59, 100
7, 23868, Note_on_c, 5, 59, 0
7, 23880, Note_on_c, 5, 47, 100
7, 23988, Note_on_c, 5, 47, 0
7, 24000, Note_on_c, 5, 52, 100
7, 24108, Note_on_c, 5, 52, 0
7, 24600, Note_on_c, 5, 45, 100
7, 24708, Note_on_c, 5, 45, 0
7, 24720, Note_on_c, 5, 45, 100
7, 24828, Note_on_c, 5, 45, 0
7, 24840, Note_on_c, 5, 45, 100
7, 24948, Note_on_c, 5, 45, 0
7, 24960, Note_on_c, 5, 50, 100
7, 25068, Note_on_c, 5, 50, 0
7, 25560, Note_on_c, 5, 43, 100
7, 25668, Note_on_c, 5, 43, 0
7, 25680, Note_on_c, 5, 43, 100
7, 25788, Note_on_c, 5, 43, 0
7, 25800, Note_on_c, 5, 43, 100
7, 25908, Note_on_c, 5, 43, 0
7, 25920, Note_on_c, 5, 48, 100
7, 26028, Note_on_c, 5, 48, 0
7, 26400, Note_on_c, 5, 48, 100
7, 26508, Note_on_c, 5, 48, 0
7, 26880, Note_on_c, 5, 48, 100
7, 26988, Note_on_c, 5, 48, 0
7, 27360, Note_on_c, 5, 48, 100
7, 27468, Note_on_c, 5, 48, 0
7, 27840, Note_on_c, 5, 47, 100
7, 27948, Note_on_c, 5, 47, 0
7, 28320, Note_on_c, 5, 44, 100
7, 28428, Note_on_c, 5, 44, 0
7, 28800, Note_on_c, 5, 40, 100
7, 28908, Note_on_c, 5, 40, 0
7, 29400, Note_on_c, 5, 48, 100
7, 29436, Note_on_c, 5, 48, 0
7, 29440, Note_on_c, 5, 47, 100
7, 29476, Note_on_c, 5, 47, 0
7, 29480, Note_on_c, 5, 45, 100
7, 29516, Note_on_c, 5, 45, 0
7, 29520, Note_on_c, 5, 52, 100
7, 29628, Note_on_c, 5, 52, 0
7, 29640, Note_on_c, 5, 40, 100
7, 29748, Note_on_c, 5, 40, 0
7, 29760, Note_on_c, 5, 41, 100
7, 29868, Note_on_c, 5, 41, 0
7, 30120, Note_on_c, 5, 45, 100
7, 30228, Note_on_c, 5, 45, 0
7, 30240, Note_on_c, 5, 50, 100
7, 30348, Note_on_c, 5, 50, 0
7, 30600, Note_on_c, 5, 48, 100
7, 30708, Note_on_c, 5, 48, 0
7, 30720, Note_on_c, 5, 47, 100
7, 30828, Note_on_c, 5, 47, 0
7, 31080, Note_on_c, 5, 45, 100
7, 31188, Note_on_c, 5, 45, 0
7, 31200, Note_on_c, 5, 44, 100
7, 31308, Note_on_c, 5, 44, 0
7, 31560, Note_on_c, 5, 47, 100
7, 31668, Note_on_c, 5, 47, 0
7, 31680, Note_on_c, 5, 52, 100
7, 31788, Note_on_c, 5, 52, 0
7, 32040, Note_on_c, 5, 50, 100
7, 32076, Note_on_c, 5, 50, 0
7, 32080, Note_on_c, 5, 48, 100
7, 32116, Note_on_c, 5, 48, 0
7, 32120, Note_on_c, 5, 47, 100
7, 32156, Note_on_c, 5, 47, 0
7, 32160, Note_on_c, 5, 48, 100
7, 32268, Note_on_c, 5, 48, 0
7, 32280, Note_on_c, 5, 45, 100
7, 32388, Note_on_c, 5, 45, 0
7, 32400, Note_on_c, 5, 52, 100
7, 32508, Note_on_c, 5, 52, 0
7, 32520, Note_on_c, 5, 40, 100
7, 32628, Note_on_c, 5, 40, 0
7, 32640, Note_on_c, 5, 45, 100
7, 32748, Note_on_c, 5, 45, 0
7, 33240, Note_on_c, 5, 53, 100
7, 33348, Note_on_c, 5, 53, 0
7, 33360, Note_on_c, 5, 49, 100
7, 33468, Note_on_c, 5, 49, 0
7, 33480, Note_on_c, 5, 50, 100
7, 33588, Note_on_c, 5, 50, 0
7, 33600, Note_on_c, 5, 45, 100
7, 33708, Note_on_c, 5, 45, 0
7, 34920, Note_on_c, 5, 57, 100
7, 35028, Note_on_c, 5, 57, 0
7, 35040, Note_on_c, 5, 50, 100
7, 35148, Note_on_c, 5, 50, 0
7, 35400, Note_on_c, 5, 50, 100
7, 35508, Note_on_c, 5, 50, 0
7, 35520, Note_on_c, 5, 43, 100
7, 35628, Note_on_c, 5, 43, 0
7, 35880, Note_on_c, 5, 55, 100
7, 35988, Note_on_c, 5, 55, 0
7, 36000, Note_on_c, 5, 48, 100
7, 36108, Note_on_c, 5, 48, 0
7, 36360, Note_on_c, 5, 48, 100
7, 36468, Note_on_c, 5, 48, 0
7, 36480, Note_on_c, 5, 53, 100
7, 36516, Note_on_c, 5, 53, 0
7, 36520, Note_on_c, 5, 52, 100
7, 36556, Note_on_c, 5, 52, 0
7, 36560, Note_on_c, 5, 50, 100
7, 36596, Note_on_c, 5, 50, 0
7, 36600, Note_on_c, 5, 50, 100
7, 36636, Note_on_c, 5, 50, 0
7, 36640, Note_on_c, 5, 48, 100
7, 36676, Note_on_c, 5, 48, 0
7, 36680, Note_on_c, 5, 47, 100
7, 36716, Note_on_c, 5, 47, 0
7, 36720, Note_on_c, 5, 47, 100
7, 36756, Note_on_c, 5, 47, 0
7, 36760, Note_on_c, 5, 49, 100
7, 36796, Note_on_c, 5, 49, 0
7, 36800, Note_on_c, 5, 50, 100
7, 36836, Note_on_c, 5, 50, 0
7, 36840, Note_on_c, 5, 50, 100
7, 36876, Note_on_c, 5, 50, 0
7, 36880, Note_on_c, 5, 52, 100
7, 36916, Note_on_c, 5, 52, 0
7, 36920, Note_on_c, 5, 53, 100
7, 36956, Note_on_c, 5, 53, 0
7, 36960, Note_on_c, 5, 52, 100
7, 36996, Note_on_c, 5, 52, 0
7, 37000, Note_on_c, 5, 50, 100
7, 37036, Note_on_c, 5, 50, 0
7, 37040, Note_on_c, 5, 49, 100
7, 37076, Note_on_c, 5, 49, 0
7, 37080, Note_on_c, 5, 49, 100
7, 37116, Note_on_c, 5, 49, 0
7, 37120, Note_on_c, 5, 47, 100
7, 37156, Note_on_c, 5, 47, 0
7, 37160, Note_on_c, 5, 45, 100
7, 37196, Note_on_c, 5, 45, 0
7, 37200, Note_on_c, 5, 45, 100
7, 37236, Note_on_c, 5, 45, 0
7, 37240, Note_on_c, 5, 47, 100
7, 37276, Note_on_c, 5, 47, 0
7, 37280, Note_on_c, 5, 49, 100
7, 37316, Note_on_c, 5, 49, 0
7, 37320, Note_on_c, 5, 49, 100
7, 37356, Note_on_c, 5, 49, 0
7, 37360, Note_on_c, 5, 50, 100
7, 37396, Note_on_c, 5, 50, 0
7, 37400, Note_on_c, 5, 52, 100
7, 37436, Note_on_c, 5, 52, 0
7, 37440, Note_on_c, 5, 50, 100
7, 37548, Note_on_c, 5, 50, 0
7, 37560, Note_on_c, 5, 38, 100
7, 37668, Note_on_c, 5, 38, 0
7, 37680, Note_on_c, 5, 38, 100
7, 37788, Note_on_c, 5, 38, 0
7, 37800, Note_on_c, 5, 38, 100
7, 37908, Note_on_c, 5, 38, 0
7, 37920, Note_on_c, 5, 38, 100
7, 38028, Note_on_c, 5, 38, 0
7, 38040, Note_on_c, 5, 50, 100
7, 38148, Note_on_c, 5, 50, 0
7, 38160, Note_on_c, 5, 48, 100
7, 38268, Note_on_c, 5, 48, 0
7, 38280, Note_on_c, 5, 47, 100
7, 38388, Note_on_c, 5, 47, 0
7, 38400, Note_on_c, 5, 48, 100
7, 38508, Note_on_c, 5, 48, 0
7, 38520, Note_on_c, 5, 50, 100
7, 38628, Note_on_c, 5, 50, 0
7, 38640, Note_on_c, 5, 52, 100
7, 38748, Note_on_c, 5, 52, 0
7, 38760, Note_on_c, 5, 40, 100
7, 38868, Note_on_c, 5, 40, 0
7, 38880, Note_on_c, 5, 41, 100
7, 38988, Note_on_c, 5, 41, 0
7, 39000, Note_on_c, 5, 38, 100
7, 39108, Note_on_c, 5, 38, 0
7, 39120, Note_on_c, 5, 40, 100
7, 39228, Note_on_c, 5, 40, 0
7, 39240, Note_on_c, 5, 40, 100
7, 39348, Note_on_c, 5, 40, 0
7, 39360, Note_on_c, 5, 45, 100
7, 39468, Note_on_c, 5, 45, 0
7, 44640, Note_on_c, 5, 43, 100
7, 45984, Note_on_c, 5, 43, 0
7, 46080, Note_on_c, 5, 48, 100
7, 46188, Note_on_c, 5, 48, 0
7, 48000, Note_on_c, 5, 36, 100
7, 48108, Note_on_c, 5, 36, 0
7, 48600, Note_on_c, 5, 60, 100
7, 48708, Note_on_c, 5, 60, 0
7, 48720, Note_on_c, 5, 52, 100
7, 48828, Note_on_c, 5, 52, 0
7, 48840, Note_on_c, 5, 55, 100
7, 48948, Note_on_c, 5, 55, 0
7, 48960, Note_on_c, 5, 48, 100
7, 49068, Note_on_c, 5, 48, 0
7, 49560, Note_on_c, 5, 48, 100
7, 49668, Note_on_c, 5, 48, 0
7, 49680, Note_on_c, 5, 40, 100
7, 49788, Note_on_c, 5, 40, 0
7, 49800, Note_on_c, 5, 43, 100
7, 49908, Note_on_c, 5, 43, 0
7, 49920, Note_on_c, 5, 36, 100
7, 50028, Note_on_c, 5, 36, 0
7, 50280, Note_on_c, 5, 48, 100
7, 50388, Note_on_c, 5, 48, 0
7, 50400, Note_on_c, 5, 41, 100
7, 50508, Note_on_c, 5, 41, 0
7, 50760, Note_on_c, 5, 50, 100
7, 50868, Note_on_c, 5, 50, 0
7, 50880, Note_on_c, 5, 43, 100
7, 50988, Note_on_c, 5, 43, 0
7, 51240, Note_on_c, 5, 52, 100
7, 51348, Note_on_c, 5, 52, 0
7, 51360, Note_on_c, 5, 45, 100
7, 51468, Note_on_c, 5, 45, 0
7, 53880, Note_on_c, 5, 48, 100
7, 53988, Note_on_c, 5, 48, 0
7, 54000, Note_on_c, 5, 48, 100
7, 54108, Note_on_c, 5, 48, 0
7, 54120, Note_on_c, 5, 48, 100
7, 54228, Note_on_c, 5, 48, 0
7, 54360, Note_on_c, 5, 45, 100
7, 54468, Note_on_c, 5, 45, 0
7, 54480, Note_on_c, 5, 45, 100
7, 54588, Note_on_c, 5, 45, 0
7, 54600, Note_on_c, 5, 45, 100
7, 54708, Note_on_c, 5, 45, 0
7, 54840, Note_on_c, 5, 50, 100
7, 54948, Note_on_c, 5, 50, 0
7, 54960, Note_on_c, 5, 50, 100
7, 55068, Note_on_c, 5, 50, 0
7, 55080, Note_on_c, 5, 50, 100
7, 55188, Note_on_c, 5, 50, 0
7, 55320, Note_on_c, 5, 47, 100
7, 55428, Note_on_c, 5, 47, 0
7, 55440, Note_on_c, 5, 47, 100
7, 55548, Note_on_c, 5, 47, 0
7, 55560, Note_on_c, 5, 47, 100
7, 55668, Note_on_c, 5, 47, 0
7, 55680, Note_on_c, 5, 52, 100
7, 55788, Note_on_c, 5, 52, 0
7, 57240, Note_on_c, 5, 57, 100
7, 57276, Note_on_c, 5, 57, 0
7, 57280, Note_on_c, 5, 55, 100
7, 57316, Note_on_c, 5, 55, 0
7, 57320, Note_on_c, 5, 54, 100
7, 57356, Note_on_c, 5, 54, 0
7, 57360, Note_on_c, 5, 54, 100
7, 57396, Note_on_c, 5, 54, 0
7, 57400, Note_on_c, 5, 55, 100
7, 57436, Note_on_c, 5, 55, 0
7, 57440, Note_on_c, 5, 57, 100
7, 57476, Note_on_c, 5, 57, 0
7, 57480, Note_on_c, 5, 57, 100
7, 57516, Note_on_c, 5, 57, 0
7, 57520, Note_on_c, 5, 59, 100
7, 57556, Note_on_c, 5, 59, 0
7, 57560, Note_on_c, 5, 60, 100
7, 57596, Note_on_c, 5, 60, 0
7, 57600, Note_on_c, 5, 59, 100
7, 57708, Note_on_c, 5, 59, 0
7, 57960, Note_on_c, 5, 52, 100
7, 58068, Note_on_c, 5, 52, 0
7, 58080, Note_on_c, 5, 40, 100
7, 59424, Note_on_c, 5, 40, 0
7, 59520, Note_on_c, 5, 42, 100
7, 59628, Note_on_c, 5, 42, 0
7, 59760, Note_on_c, 5, 45, 100
7, 59868, Note_on_c, 5, 45, 0
7, 60000, Note_on_c, 5, 48, 100
7, 60108, Note_on_c, 5, 48, 0
7, 60240, Note_on_c, 5, 42, 100
7, 60348, Note_on_c, 5, 42, 0
7, 60480, Note_on_c, 5, 51, 100
7, 60696, Note_on_c, 5, 51, 0
7, 61050, Note_on_c, 5, 54, 100
7, 61077, Note_on_c, 5, 54, 0
7, 61080, Note_on_c, 5, 55, 100
7, 61161, Note_on_c, 5, 55, 0
7, 61170, Note_on_c, 5, 57, 100
7, 61197, Note_on_c, 5, 57, 0
7, 61200, Note_on_c, 5, 59, 100
7, 61308, Note_on_c, 5, 59, 0
7, 61320, Note_on_c, 5, 47, 100
7, 61428, Note_on_c, 5, 47, 0
7, 61440, Note_on_c, 5, 48, 100
7, 62028, Note_on_c, 5, 48, 0
7, 62040, Note_on_c, 5, 50, 100
7, 62148, Note_on_c, 5, 50, 0
7, 62160, Note_on_c, 5, 48, 100
7, 62268, Note_on_c, 5, 48, 0
7, 62280, Note_on_c, 5, 47, 100
7, 62388, Note_on_c, 5, 47, 0
7, 62400, Note_on_c, 5, 45, 100
7, 62988, Note_on_c, 5, 45, 0
7, 63000, Note_on_c, 5, 47, 100
7, 63108, Note_on_c, 5, 47, 0
7, 63120, Note_on_c, 5, 48, 100
7, 63228, Note_on_c, 5, 48, 0
7, 63240, Note_on_c, 5, 47, 100
7, 63348, Note_on_c, 5, 47, 0
7, 63360, Note_on_c, 5, 45, 100
7, 63468, Note_on_c, 5, 45, 0
7, 63480, Note_on_c, 5, 51, 100
7, 63588, Note_on_c, 5, 51, 0
7, 63600, Note_on_c, 5, 54, 100
7, 63708, Note_on_c, 5, 54, 0
7, 63720, Note_on_c, 5, 57, 100
7, 63828, Note_on_c, 5, 57, 0
7, 63840, Note_on_c, 5, 55, 100
7, 63948, Note_on_c, 5, 55, 0
7, 63960, Note_on_c, 5, 52, 100
7, 64068, Note_on_c, 5, 52, 0
7, 64080, Note_on_c, 5, 47, 100
7, 64188, Note_on_c, 5, 47, 0
7, 64200, Note_on_c, 5, 59, 100
7, 64308, Note_on_c, 5, 59, 0
7, 64320, Note_on_c, 5, 60, 100
7, 64356, Note_on_c, 5, 60, 0
7, 64360, Note_on_c, 5, 59, 100
7, 64396, Note_on_c, 5, 59, 0
7, 64400, Note_on_c, 5, 57, 100
7, 64436, Note_on_c, 5, 57, 0
7, 64440, Note_on_c, 5, 57, 100
7, 64476, Note_on_c, 5, 57, 0
7, 64480, Note_on_c, 5, 55, 100
7, 64516, Note_on_c, 5, 55, 0
7, 64520, Note_on_c, 5, 54, 100
7, 64556, Note_on_c, 5, 54, 0
7, 64560, Note_on_c, 5, 54, 100
7, 64596, Note_on_c, 5, 54, 0
7, 64600, Note_on_c, 5, 55, 100
7, 64636, Note_on_c, 5, 55, 0
7, 64640, Note_on_c, 5, 57, 100
7, 64676, Note_on_c, 5, 57, 0
7, 64680, Note_on_c, 5, 57, 100
7, 64716, Note_on_c, 5, 57, 0
7, 64720, Note_on_c, 5, 59, 100
7, 64756, Note_on_c, 5, 59, 0
7, 64760, Note_on_c, 5, 60, 100
7, 64796, Note_on_c, 5, 60, 0
7, 64800, Note_on_c, 5, 59, 100
7, 64836, Note_on_c, 5, 59, 0
7, 64840, Note_on_c, 5, 57, 100
7, 64876, Note_on_c, 5, 57, 0
7, 64880, Note_on_c, 5, 56, 100
7, 64916, Note_on_c, 5, 56, 0
7, 64920, Note_on_c, 5, 56, 100
7, 64956, Note_on_c, 5, 56, 0
7, 64960, Note_on_c, 5, 54, 100
7, 64996, Note_on_c, 5, 54, 0
7, 65000, Note_on_c, 5, 52, 100
7, 65036, Note_on_c, 5, 52, 0
7, 65040, Note_on_c, 5, 52, 100
7, 65076, Note_on_c, 5, 52, 0
7, 65080, Note_on_c, 5, 54, 100
7, 65116, Note_on_c, 5, 54, 0
7, 65120, Note_on_c, 5, 56, 100
7, 65156, Note_on_c, 5, 56, 0
7, 65160, Note_on_c, 5, 56, 100
7, 65196, Note_on_c, 5, 56, 0
7, 65200, Note_on_c, 5, 57, 100
7, 65236, Note_on_c, 5, 57, 0
7, 65240, Note_on_c, 5, 59, 100
7, 65276, Note_on_c, 5, 59, 0
7, 65280, Note_on_c, 5, 57, 100
7, 65316, Note_on_c, 5, 57, 0
7, 65320, Note_on_c, 5, 55, 100
7, 65356, Note_on_c, 5, 55, 0
7, 65360, Note_on_c, 5, 54, 100
7, 65396, Note_on_c, 5, 54, 0
7, 65400, Note_on_c, 5, 54, 100
7, 65436, Note_on_c, 5, 54, 0
7, 65440, Note_on_c, 5, 52, 100
7, 65476, Note_on_c, 5, 52, 0
7, 65480, Note_on_c, 5, 51, 100
7, 65516, Note_on_c, 5, 51, 0
7, 65520, Note_on_c, 5, 51, 100
7, 65556, Note_on_c, 5, 51, 0
7, 65560, Note_on_c, 5, 52, 100
7, 65596, Note_on_c, 5, 52, 0
7, 65600, Note_on_c, 5, 54, 100
7, 65636, Note_on_c, 5, 54, 0
7, 65640, Note_on_c, 5, 54, 100
7, 65676, Note_on_c, 5, 54, 0
7, 65680, Note_on_c, 5, 55, 100
7, 65716, Note_on_c, 5, 55, 0
7, 65720, Note_on_c, 5, 57, 100
7, 65756, Note_on_c, 5, 57, 0
7, 65760, Note_on_c, 5, 55, 100
7, 65796, Note_on_c, 5, 55, 0
7, 65800, Note_on_c, 5, 54, 100
7, 65836, Note_on_c, 5, 54, 0
7, 65840, Note_on_c, 5, 52, 100
7, 65876, Note_on_c, 5, 52, 0
7, 65880, Note_on_c, 5, 52, 100
7, 65916, Note_on_c, 5, 52, 0
7, 65920, Note_on_c, 5, 51, 100
7, 65956, Note_on_c, 5, 51, 0
7, 65960, Note_on_c, 5, 49, 100
7, 65996, Note_on_c, 5, 49, 0
7, 66000, Note_on_c, 5, 49, 100
7, 66036, Note_on_c, 5, 49, 0
7, 66040, Note_on_c, 5, 51, 100
7, 66076, Note_on_c, 5, 51, 0
7, 66080, Note_on_c, 5, 52, 100
7, 66116, Note_on_c, 5, 52, 0
7, 66120, Note_on_c, 5, 52, 100
7, 66156, Note_on_c, 5, 52, 0
7, 66160, Note_on_c, 5, 54, 100
7, 66196, Note_on_c, 5, 54, 0
7, 66200, Note_on_c, 5, 55, 100
7, 66236, Note_on_c, 5, 55, 0
7, 66240, Note_on_c, 5, 54, 100
7, 66348, Note_on_c, 5, 54, 0
7, 66360, Note_on_c, 5, 45, 100
7, 66468, Note_on_c, 5, 45, 0
7, 66480, Note_on_c, 5, 47, 100
7, 66588, Note_on_c, 5, 47, 0
7, 66600, Note_on_c, 5, 48, 100
7, 66708, Note_on_c, 5, 48, 0
7, 66720, Note_on_c, 5, 39, 100
7, 66828, Note_on_c, 5, 39, 0
7, 66840, Note_on_c, 5, 57, 100
7, 66948, Note_on_c, 5, 57, 0
7, 66960, Note_on_c, 5, 55, 100
7, 67068, Note_on_c, 5, 55, 0
7, 67080, Note_on_c, 5, 54, 100
7, 67188, Note_on_c, 5, 54, 0
7, 67200, Note_on_c, 5, 55, 100
7, 67308, Note_on_c, 5, 55, 0
7, 67320, Note_on_c, 5, 57, 100
7, 67428, Note_on_c, 5, 57, 0
7, 67440, Note_on_c, 5, 59, 100
7, 67548, Note_on_c, 5, 59, 0
7, 67560, Note_on_c, 5, 57, 100
7, 67668, Note_on_c, 5, 57, 0
7, 67680, Note_on_c, 5, 56, 100
7, 67788, Note_on_c, 5, 56, 0
7, 67800, Note_on_c, 5, 52, 100
7, 67908, Note_on_c, 5, 52, 0
7, 67920, Note_on_c, 5, 54, 100
7, 68028, Note_on_c, 5, 54, 0
7, 68040, Note_on_c, 5, 56, 100
7, 68148, Note_on_c, 5, 56, 0
7, 68160, Note_on_c, 5, 57, 100
7, 68268, Note_on_c, 5, 57, 0
7, 68280, Note_on_c, 5, 59, 100
7, 68388, Note_on_c, 5, 59, 0
7, 68400, Note_on_c, 5, 60, 100
7, 68508, Note_on_c, 5, 60, 0
7, 68520, Note_on_c, 5, 59, 100
7, 68628, Note_on_c, 5, 59, 0
7, 68640, Note_on_c, 5, 58, 100
7, 68748, Note_on_c, 5, 58, 0
7, 68760, Note_on_c, 5, 54, 100
7, 68814, Note_on_c, 5, 54, 0
7, 68820, Note_on_c, 5, 56, 100
7, 68874, Note_on_c, 5, 56, 0
7, 68880, Note_on_c, 5, 58, 100
7, 68988, Note_on_c, 5, 58, 0
7, 69000, Note_on_c, 5, 54, 100
7, 69108, Note_on_c, 5, 54, 0
7, 69120, Note_on_c, 5, 59, 100
7, 69228, Note_on_c, 5, 59, 0
7, 69240, Note_on_c, 5, 57, 100
7, 69294, Note_on_c, 5, 57, 0
7, 69300, Note_on_c, 5, 55, 100
7, 69354, Note_on_c, 5, 55, 0
7, 69360, Note_on_c, 5, 57, 100
7, 69468, Note_on_c, 5, 57, 0
7, 69480, Note_on_c, 5, 51, 100
7, 69588, Note_on_c, 5, 51, 0
7, 69600, Note_on_c, 5, 52, 100
7, 69708, Note_on_c, 5, 52, 0
7, 69720, Note_on_c, 5, 45, 100
7, 69828, Note_on_c, 5, 45, 0
7, 69840, Note_on_c, 5, 47, 100
7, 69948, Note_on_c, 5, 47, 0
7, 69960, Note_on_c, 5, 47, 100
7, 70068, Note_on_c, 5, 47, 0
7, 70080, Note_on_c, 5, 40, 100
7, 70188, Note_on_c, 5, 40, 0
7, 70680, Note_on_c, 5, 45, 100
7, 70734, Note_on_c, 5, 45, 0
7, 70740, Note_on_c, 5, 47, 100
7, 70794, Note_on_c, 5, 47, 0
7, 70800, Note_on_c, 5, 48, 100
7, 70854, Note_on_c, 5, 48, 0
7, 70860, Note_on_c, 5, 52, 100
7, 70914, Note_on_c, 5, 52, 0
7, 70920, Note_on_c, 5, 50, 100
7, 70974, Note_on_c, 5, 50, 0
7, 70980, Note_on_c, 5, 47, 100
7, 71034, Note_on_c, 5, 47, 0
7, 71040, Note_on_c, 5, 48, 100
7, 71076, Note_on_c, 5, 48, 0
7, 71080, Note_on_c, 5, 47, 100
7, 71116, Note_on_c, 5, 47, 0
7, 71120, Note_on_c, 5, 45, 100
7, 71156, Note_on_c, 5, 45, 0
7, 71160, Note_on_c, 5, 53, 100
7, 71196, Note_on_c, 5, 53, 0
7, 71200, Note_on_c, 5, 52, 100
7, 71236, Note_on_c, 5, 52, 0
7, 71240, Note_on_c, 5, 50, 100
7, 71276, Note_on_c, 5, 50, 0
7, 71280, Note_on_c, 5, 48, 100
7, 71316, Note_on_c, 5, 48, 0
7, 71320, Note_on_c, 5, 47, 100
7, 71356, Note_on_c, 5, 47, 0
7, 71360, Note_on_c, 5, 45, 100
7, 71396, Note_on_c, 5, 45, 0
7, 71400, Note_on_c, 5, 52, 100
7, 71436, Note_on_c, 5, 52, 0
7, 71440, Note_on_c, 5, 50, 100
7, 71476, Note_on_c, 5, 50, 0
7, 71480, Note_on_c, 5, 52, 100
7, 71516, Note_on_c, 5, 52, 0
7, 71520, Note_on_c, 5, 45, 100
7, 71628, Note_on_c, 5, 45, 0
7, 71640, Note_on_c, 5, 41, 100
7, 71748, Note_on_c, 5, 41, 0
7, 71760, Note_on_c, 5, 36, 100
7, 71868, Note_on_c, 5, 36, 0
7, 71880, Note_on_c, 5, 40, 100
7, 71988, Note_on_c, 5, 40, 0
7, 72000, Note_on_c, 5, 45, 100
7, 72108, Note_on_c, 5, 45, 0
7, 72600, Note_on_c, 5, 52, 100
7, 72681, Note_on_c, 5, 52, 0
7, 72690, Note_on_c, 5, 53, 100
7, 72717, Note_on_c, 5, 53, 0
7, 72720, Note_on_c, 5, 55, 100
7, 72828, Note_on_c, 5, 55, 0
7, 72840, Note_on_c, 5, 43, 100
7, 72948, Note_on_c, 5, 43, 0
7, 72960, Note_on_c, 5, 48, 100
7, 73068, Note_on_c, 5, 48, 0
7, 75480, Note_on_c, 5, 50, 100
7, 75534, Note_on_c, 5, 50, 0
7, 75540, Note_on_c, 5, 52, 100
7, 75594, Note_on_c, 5, 52, 0
7, 75600, Note_on_c, 5, 53, 100
7, 75654, Note_on_c, 5, 53, 0
7, 75660, Note_on_c, 5, 57, 100
7, 75714, Note_on_c, 5, 57, 0
7, 75720, Note_on_c, 5, 55, 100
7, 75774, Note_on_c, 5, 55, 0
7, 75780, Note_on_c, 5, 52, 100
7, 75834, Note_on_c, 5, 52, 0
7, 75840, Note_on_c, 5, 53, 100
7, 75876, Note_on_c, 5, 53, 0
7, 75880, Note_on_c, 5, 52, 100
7, 75916, Note_on_c, 5, 52, 0
7, 75920, Note_on_c, 5, 50, 100
7, 75956, Note_on_c, 5, 50, 0
7, 76200, Note_on_c, 5, 54, 100
7, 76308, Note_on_c, 5, 54, 0
7, 76320, Note_on_c, 5, 55, 100
7, 76428, Note_on_c, 5, 55, 0
7, 76440, Note_on_c, 5, 43, 100
7, 76548, Note_on_c, 5, 43, 0
7, 76680, Note_on_c, 5, 55, 100
7, 76716, Note_on_c, 5, 55, 0
7, 76720, Note_on_c, 5, 57, 100
7, 76756, Note_on_c, 5, 57, 0
7, 76760, Note_on_c, 5, 58, 100
7, 76796, Note_on_c, 5, 58, 0
7, 76800, Note_on_c, 5, 49, 100
7, 76908, Note_on_c, 5, 49, 0
7, 76920, Note_on_c, 5, 52, 100
7, 77028, Note_on_c, 5, 52, 0
7, 77040, Note_on_c, 5, 49, 100
7, 77148, Note_on_c, 5, 49, 0
7, 77160, Note_on_c, 5, 45, 100
7, 77268, Note_on_c, 5, 45, 0
7, 77280, Note_on_c, 5, 50, 100
7, 77388, Note_on_c, 5, 50, 0
7, 77640, Note_on_c, 5, 48, 100
7, 77748, Note_on_c, 5, 48, 0
7, 77760, Note_on_c, 5, 46, 100
7, 77868, Note_on_c, 5, 46, 0
7, 78120, Note_on_c, 5, 50, 100
7, 78228, Note_on_c, 5, 50, 0
7, 78240, Note_on_c, 5, 43, 100
7, 78348, Note_on_c, 5, 43, 0
7, 78360, Note_on_c, 5, 55, 100
7, 78468, Note_on_c, 5, 55, 0
7, 78480, Note_on_c, 5, 55, 100
7, 78588, Note_on_c, 5, 55, 0
7, 78600, Note_on_c, 5, 55, 100
7, 78708, Note_on_c, 5, 55, 0
7, 78720, Note_on_c, 5, 41, 100
7, 78828, Note_on_c, 5, 41, 0
7, 78840, Note_on_c, 5, 53, 100
7, 78948, Note_on_c, 5, 53, 0
7, 78960, Note_on_c, 5, 53, 100
7, 79068, Note_on_c, 5, 53, 0
7, 79080, Note_on_c, 5, 53, 100
7, 79188, Note_on_c, 5, 53, 0
7, 79200, Note_on_c, 5, 40, 100
7, 79308, Note_on_c, 5, 40, 0
7, 79560, Note_on_c, 5, 50, 100
7, 79668, Note_on_c, 5, 50, 0
7, 79680, Note_on_c, 5, 48, 100
7, 79788, Note_on_c, 5, 48, 0
7, 80040, Note_on_c, 5, 52, 100
7, 80148, Note_on_c, 5, 52, 0
7, 80160, Note_on_c, 5, 45, 100
7, 80268, Note_on_c, 5, 45, 0
7, 80280, Note_on_c, 5, 57, 100
7, 80388, Note_on_c, 5, 57, 0
7, 80400, Note_on_c, 5, 57, 100
7, 80508, Note_on_c, 5, 57, 0
7, 80520, Note_on_c, 5, 57, 100
7, 80628, Note_on_c, 5, 57, 0
7, 80640, Note_on_c, 5, 43, 100
7, 80748, Note_on_c, 5, 43, 0
7, 80760, Note_on_c, 5, 55, 100
7, 80868, Note_on_c, 5, 55, 0
7, 80880, Note_on_c, 5, 55, 100
7, 80988, Note_on_c, 5, 55, 0
7, 81000, Note_on_c, 5, 55, 100
7, 81108, Note_on_c, 5, 55, 0
7, 81120, Note_on_c, 5, 41, 100
7, 81228, Note_on_c, 5, 41, 0
7, 81480, Note_on_c, 5, 52, 100
7, 81588, Note_on_c, 5, 52, 0
7, 81600, Note_on_c, 5, 50, 100
7, 81708, Note_on_c, 5, 50, 0
7, 81960, Note_on_c, 5, 45, 100
7, 82068, Note_on_c, 5, 45, 0
7, 82080, Note_on_c, 5, 57, 100
7, 82188, Note_on_c, 5, 57, 0
7, 82440, Note_on_c, 5, 45, 100
7, 82548, Note_on_c, 5, 45, 0
7, 82560, Note_on_c, 5, 57, 100
7, 82668, Note_on_c, 5, 57, 0
7, 82680, Note_on_c, 5, 45, 100
7, 82788, Note_on_c, 5, 45, 0
7, 82800, Note_on_c, 5, 45, 100
7, 82908, Note_on_c, 5, 45, 0
7, 82920, Note_on_c, 5, 45, 100
7, 83028, Note_on_c, 5, 45, 0
7, 83040, Note_on_c, 5, 50, 100
7, 83148, Note_on_c, 5, 50, 0
7, 84600, Note_on_c, 5, 45, 100
7, 84708, Note_on_c, 5, 45, 0
7, 84720, Note_on_c, 5, 45, 100
7, 84828, Note_on_c, 5, 45, 0
7, 84840, Note_on_c, 5, 45, 100
7, 84948, Note_on_c, 5, 45, 0
7, 85080, Note_on_c, 5, 50, 100
7, 85188, Note_on_c, 5, 50, 0
7, 85200, Note_on_c, 5, 50, 100
7, 85308, Note_on_c, 5, 50, 0
7, 85320, Note_on_c, 5, 50, 100
7, 85428, Note_on_c, 5, 50, 0
7, 85560, Note_on_c, 5, 43, 100
7, 85668, Note_on_c, 5, 43, 0
7, 85680, Note_on_c, 5, 43, 100
7, 85788, Note_on_c, 5, 43, 0
7, 85800, Note_on_c, 5, 43, 100
7, 85908, Note_on_c, 5, 43, 0
7, 86040, Note_on_c, 5, 48, 100
7, 86148, Note_on_c, 5, 48, 0
7, 86160, Note_on_c, 5, 48, 100
7, 86268, Note_on_c, 5, 48, 0
7, 86280, Note_on_c, 5, 48, 100
7, 86388, Note_on_c, 5, 48, 0
7, 86400, Note_on_c, 5, 41, 100
7, 86508, Note_on_c, 5, 41, 0
7, 87930, Note_on_c, 5, 62, 100
7, 87957, Note_on_c, 5, 62, 0
7, 87960, Note_on_c, 5, 58, 100
7, 88041, Note_on_c, 5, 58, 0
7, 88050, Note_on_c, 5, 55, 100
7, 88077, Note_on_c, 5, 55, 0
7, 88080, Note_on_c, 5, 57, 100
7, 88188, Note_on_c, 5, 57, 0
7, 88200, Note_on_c, 5, 45, 100
7, 88308, Note_on_c, 5, 45, 0
7, 88320, Note_on_c, 5, 50, 100
7, 88428, Note_on_c, 5, 50, 0
7, 88560, Note_on_c, 5, 48, 100
7, 88668, Note_on_c, 5, 48, 0
7, 88800, Note_on_c, 5, 47, 100
7, 88908, Note_on_c, 5, 47, 0
7, 89040, Note_on_c, 5, 45, 100
7, 89148, Note_on_c, 5, 45, 0
7, 89280, Note_on_c, 5, 44, 100
7, 89388, Note_on_c, 5, 44, 0
7, 89520, Note_on_c, 5, 47, 100
7, 89628, Note_on_c, 5, 47, 0
7, 89760, Note_on_c, 5, 44, 100
7, 89868, Note_on_c, 5, 44, 0
7, 90000, Note_on_c, 5, 40, 100
7, 90108, Note_on_c, 5, 40, 0
7, 90240, Note_on_c, 5, 45, 100
7, 90348, Note_on_c, 5, 45, 0
7, 90840, Note_on_c, 5, 45, 100
7, 90948, Note_on_c, 5, 45, 0
7, 90960, Note_on_c, 5, 45, 100
7, 91068, Note_on_c, 5, 45, 0
7, 91080, Note_on_c, 5, 45, 100
7, 91188, Note_on_c, 5, 45, 0
7, 91200, Note_on_c, 5, 45, 100
7, 91308, Note_on_c, 5, 45, 0
7, 91800, Note_on_c, 5, 45, 100
7, 91908, Note_on_c, 5, 45, 0
7, 91920, Note_on_c, 5, 45, 100
7, 92028, Note_on_c, 5, 45, 0
7, 92040, Note_on_c, 5, 45, 100
7, 92148, Note_on_c, 5, 45, 0
7, 92160, Note_on_c, 5, 45, 100
7, 92268, Note_on_c, 5, 45, 0
7, 92400, Note_on_c, 5, 43, 100
7, 92508, Note_on_c, 5, 43, 0
7, 92640, Note_on_c, 5, 42, 100
7, 92748, Note_on_c, 5, 42, 0
7, 92880, Note_on_c, 5, 40, 100
7, 92988, Note_on_c, 5, 40, 0
7, 93120, Note_on_c, 5, 39, 100
7, 93228, Note_on_c, 5, 39, 0
7, 93360, Note_on_c, 5, 54, 100
7, 93468, Note_on_c, 5, 54, 0
7, 93600, Note_on_c, 5, 51, 100
7, 93708, Note_on_c, 5, 51, 0
7, 93840, Note_on_c, 5, 47, 100
7, 93948, Note_on_c, 5, 47, 0
7, 94080, Note_on_c, 5, 52, 100
7, 94188, Note_on_c, 5, 52, 0
7, 94200, Note_on_c, 5, 40, 100
7, 94308, Note_on_c, 5, 40, 0
7, 94320, Note_on_c, 5, 40, 100
7, 94428, Note_on_c, 5, 40, 0
7, 94440, Note_on_c, 5, 40, 100
7, 94548, Note_on_c, 5, 40, 0
7, 94560, Note_on_c, 5, 40, 100
7, 94668, Note_on_c, 5, 40, 0
7, 94680, Note_on_c, 5, 40, 100
7, 94788, Note_on_c, 5, 40, 0
7, 94800, Note_on_c, 5, 40, 100
7, 94908, Note_on_c, 5, 40, 0
7, 94920, Note_on_c, 5, 40, 100
7, 95028, Note_on_c, 5, 40, 0
7, 95040, Note_on_c, 5, 38, 100
7, 95148, Note_on_c, 5, 38, 0
7, 95160, Note_on_c, 5, 38, 100
7, 95268, Note_on_c, 5, 38, 0
7, 95280, Note_on_c, 5, 38, 100
7, 95388, Note_on_c, 5, 38, 0
7, 95400, Note_on_c, 5, 38, 100
7, 95508, Note_on_c, 5, 38, 0
7, 95520, Note_on_c, 5, 38, 100
7, 95628, Note_on_c, 5, 38, 0
7, 95640, Note_on_c, 5, 38, 100
7, 95748, Note_on_c, 5, 38, 0
7, 95760, Note_on_c, 5, 38, 100
7, 95868, Note_on_c, 5, 38, 0
7, 95880, Note_on_c, 5, 38, 100
7, 95988, Note_on_c, 5, 38, 0
7, 96000, Note_on_c, 5, 36, 100
7, 96108, Note_on_c, 5, 36, 0
7, 96360, Note_on_c, 5, 50, 100
7, 96468, Note_on_c, 5, 50, 0
7, 96480, Note_on_c, 5, 48, 100
7, 96588, Note_on_c, 5, 48, 0
7, 96840, Note_on_c, 5, 52, 100
7, 96948, Note_on_c, 5, 52, 0
7, 96960, Note_on_c, 5, 45, 100
7, 97068, Note_on_c, 5, 45, 0
7, 97320, Note_on_c, 5, 48, 100
7, 97428, Note_on_c, 5, 48, 0
7, 97440, Note_on_c, 5, 47, 100
7, 97548, Note_on_c, 5, 47, 0
7, 97800, Note_on_c, 5, 50, 100
7, 97908, Note_on_c, 5, 50, 0
7, 97920, Note_on_c, 5, 43, 100
7, 98028, Note_on_c, 5, 43, 0
7, 98880, Note_on_c, 5, 49, 100
7, 98988, Note_on_c, 5, 49, 0
7, 99840, Note_on_c, 5, 48, 100
7, 99948, Note_on_c, 5, 48, 0
7, 100800, Note_on_c, 5, 47, 100
7, 101016, Note_on_c, 5, 47, 0
7, 101160, Note_on_c, 5, 52, 100
7, 101268, Note_on_c, 5, 52, 0
7, 101280, Note_on_c, 5, 50, 100
7, 101496, Note_on_c, 5, 50, 0
7, 101640, Note_on_c, 5, 38, 100
7, 101748, Note_on_c, 5, 38, 0
7, 101760, Note_on_c, 5, 50, 100
7, 101976, Note_on_c, 5, 50, 0
7, 102120, Note_on_c, 5, 51, 100
7, 102228, Note_on_c, 5, 51, 0
7, 102240, Note_on_c, 5, 52, 100
7, 102348, Note_on_c, 5, 52, 0
7, 102360, Note_on_c, 5, 48, 100
7, 102468, Note_on_c, 5, 48, 0
7, 102480, Note_on_c, 5, 50, 100
7, 102588, Note_on_c, 5, 50, 0
7, 102600, Note_on_c, 5, 38, 100
7, 102708, Note_on_c, 5, 38, 0
7, 102720, Note_on_c, 5, 43, 100
7, 104544, Note_on_c, 5, 43, 0
7, 104640, Note_on_c, 5, 43, 100
7, 104748, Note_on_c, 5, 43, 0
7, 104760, Note_on_c, 5, 55, 100
7, 104868, Note_on_c, 5, 55, 0
7, 104880, Note_on_c, 5, 55, 100
7, 104988, Note_on_c, 5, 55, 0
7, 105000, Note_on_c, 5, 55, 100
7, 105108, Note_on_c, 5, 55, 0
7, 105240, Note_on_c, 5, 48, 100
7, 105348, Note_on_c, 5, 48, 0
7, 105360, Note_on_c, 5, 48, 100
7, 105468, Note_on_c, 5, 48, 0
7, 105480, Note_on_c, 5, 48, 100
7, 105588, Note_on_c, 5, 48, 0
7, 105720, Note_on_c, 5, 49, 100
7, 105828, Note_on_c, 5, 49, 0
7, 105840, Note_on_c, 5, 49, 100
7, 105948, Note_on_c, 5, 49, 0
7, 105960, Note_on_c, 5, 49, 100
7, 106068, Note_on_c, 5, 49, 0
7, 106200, Note_on_c, 5, 50, 100
7, 106308, Note_on_c, 5, 50, 0
7, 106320, Note_on_c, 5, 50, 100
7, 106428, Note_on_c, 5, 50, 0
7, 106440, Note_on_c, 5, 50, 100
7, 106548, Note_on_c, 5, 50, 0
7, 106680, Note_on_c, 5, 44, 100
7, 106788, Note_on_c, 5, 44, 0
7, 106800, Note_on_c, 5, 44, 100
7, 106908, Note_on_c, 5, 44, 0
7, 106920, Note_on_c, 5, 44, 100
7, 107028, Note_on_c, 5, 44, 0
7, 107040, Note_on_c, 5, 45, 100
7, 107148, Note_on_c, 5, 45, 0
7, 107160, Note_on_c, 5, 53, 100
7, 107268, Note_on_c, 5, 53, 0
7, 107400, Note_on_c, 5, 52, 100
7, 107508, Note_on_c, 5, 52, 0
7, 107640, Note_on_c, 5, 50, 100
7, 107748, Note_on_c, 5, 50, 0
7, 107880, Note_on_c, 5, 48, 100
7, 107988, Note_on_c, 5, 48, 0
7, 108120, Note_on_c, 5, 48, 100
7, 108228, Note_on_c, 5, 48, 0
7, 108240, Note_on_c, 5, 47, 100
7, 108348, Note_on_c, 5, 47, 0
7, 108360, Note_on_c, 5, 45, 100
7, 108468, Note_on_c, 5, 45, 0
7, 108480, Note_on_c, 5, 44, 100
7, 108588, Note_on_c, 5, 44, 0
7, 108600, Note_on_c, 5, 40, 100
7, 108708, Note_on_c, 5, 40, 0
7, 108720, Note_on_c, 5, 60, 100
7, 108828, Note_on_c, 5, 60, 0
7, 108840, Note_on_c, 5, 57, 100
7, 108948, Note_on_c, 5, 57, 0
7, 108960, Note_on_c, 5, 54, 100
7, 109068, Note_on_c, 5, 54, 0
7, 109080, Note_on_c, 5, 51, 100
7, 109188, Note_on_c, 5, 51, 0
7, 109200, Note_on_c, 5, 47, 100
7, 109308, Note_on_c, 5, 47, 0
7, 109320, Note_on_c, 5, 44, 100
7, 109428, Note_on_c, 5, 44, 0
7, 109440, Note_on_c, 5, 40, 100
7, 109548, Note_on_c, 5, 40, 0
7, 114720, Note_on_c, 5, 52, 100
7, 114828, Note_on_c, 5, 52, 0
7, 114960, Note_on_c, 5, 52, 100
7, 115068, Note_on_c, 5, 52, 0
7, 115200, Note_on_c, 5, 52, 100
7, 115308, Note_on_c, 5, 52, 0
7, 115440, Note_on_c, 5, 52, 100
7, 115548, Note_on_c, 5, 52, 0
7, 115680, Note_on_c, 5, 57, 100
7, 115788, Note_on_c, 5, 57, 0
7, 115920, Note_on_c, 5, 57, 100
7, 116028, Note_on_c, 5, 57, 0
7, 116160, Note_on_c, 5, 57, 100
7, 116268, Note_on_c, 5, 57, 0
7, 116400, Note_on_c, 5, 57, 100
7, 116508, Note_on_c, 5, 57, 0
7, 116640, Note_on_c, 5, 55, 100
7, 116748, Note_on_c, 5, 55, 0
7, 116880, Note_on_c, 5, 55, 100
7, 116988, Note_on_c, 5, 55, 0
7, 117120, Note_on_c, 5, 55, 100
7, 117228, Note_on_c, 5, 55, 0
7, 117360, Note_on_c, 5, 55, 100
7, 117468, Note_on_c, 5, 55, 0
7, 117600, Note_on_c, 5, 53, 100
7, 117708, Note_on_c, 5, 53, 0
7, 117840, Note_on_c, 5, 53, 100
7, 117948, Note_on_c, 5, 53, 0
7, 118080, Note_on_c, 5, 53, 100
7, 118188, Note_on_c, 5, 53, 0
7, 118320, Note_on_c, 5, 53, 100
7, 118428, Note_on_c, 5, 53, 0
7, 118560, Note_on_c, 5, 52, 100
7, 118668, Note_on_c, 5, 52, 0
7, 118800, Note_on_c, 5, 52, 100
7, 118908, Note_on_c, 5, 52, 0
7, 119040, Note_on_c, 5, 52, 100
7, 119148, Note_on_c, 5, 52, 0
7, 119280, Note_on_c, 5, 52, 100
7, 119388, Note_on_c, 5, 52, 0
7, 119520, Note_on_c, 5, 40, 100
7, 119628, Note_on_c, 5, 40, 0
7, 119760, Note_on_c, 5, 40, 100
7, 119868, Note_on_c, 5, 40, 0
7, 120000, Note_on_c, 5, 41, 100
7, 120108, Note_on_c, 5, 41, 0
7, 120240, Note_on_c, 5, 41, 100
7, 120348, Note_on_c, 5, 41, 0
7, 120480, Note_on_c, 5, 40, 100
7, 120588, Note_on_c, 5, 40, 0
7, 120720, Note_on_c, 5, 40, 100
7, 120828, Note_on_c, 5, 40, 0
7, 120960, Note_on_c, 5, 39, 100
7, 121068, Note_on_c, 5, 39, 0
7, 121200, Note_on_c, 5, 39, 100
7, 121308, Note_on_c, 5, 39, 0
7, 121440, Note_on_c, 5, 40, 100
7, 121548, Note_on_c, 5, 40, 0
7, 121680, Note_on_c, 5, 40, 100
7, 121788, Note_on_c, 5, 40, 0
7, 122040, Note_on_c, 5, 45, 100
7, 122094, Note_on_c, 5, 45, 0
7, 122100, Note_on_c, 5, 47, 100
7, 122154, Note_on_c, 5, 47, 0
7, 122160, Note_on_c, 5, 48, 100
7, 122214, Note_on_c, 5, 48, 0
7, 122220, Note_on_c, 5, 52, 100
7, 122274, Note_on_c, 5, 52, 0
7, 122280, Note_on_c, 5, 50, 100
7, 122334, Note_on_c, 5, 50, 0
7, 122340, Note_on_c, 5, 47, 100
7, 122394, Note_on_c, 5, 47, 0
7, 122400, Note_on_c, 5, 48, 100
7, 122454, Note_on_c, 5, 48, 0
7, 122460, Note_on_c, 5, 45, 100
7, 122514, Note_on_c, 5, 45, 0
7, 122520, Note_on_c, 5, 48, 100
7, 122574, Note_on_c, 5, 48, 0
7, 122580, Note_on_c, 5, 52, 100
7, 122634, Note_on_c, 5, 52, 0
7, 122640, Note_on_c, 5, 57, 100
7, 122676, Note_on_c, 5, 57, 0
7, 122680, Note_on_c, 5, 59, 100
7, 122716, Note_on_c, 5, 59, 0
7, 122720, Note_on_c, 5, 60, 100
7, 122756, Note_on_c, 5, 60, 0
7, 122760, Note_on_c, 5, 59, 100
7, 122796, Note_on_c, 5, 59, 0
7, 122800, Note_on_c, 5, 57, 100
7, 122836, Note_on_c, 5, 57, 0
7, 122840, Note_on_c, 5, 56, 100
7, 122876, Note_on_c, 5, 56, 0
7, 122880, Note_on_c, 5, 57, 100
7, 122988, Note_on_c, 5, 57, 0
7, 123000, Note_on_c, 5, 45, 100
7, 123108, Note_on_c, 5, 45, 0
7, 123120, Note_on_c, 5, 45, 100
7, 123228, Note_on_c, 5, 45, 0
7, 123240, Note_on_c, 5, 45, 100
7, 123348, Note_on_c, 5, 45, 0
7, 123360, Note_on_c, 5, 45, 100
7, 123468, Note_on_c, 5, 45, 0
7, 123480, Note_on_c, 5, 45, 100
7, 123588, Note_on_c, 5, 45, 0
7, 123600, Note_on_c, 5, 45, 100
7, 123708, Note_on_c, 5, 45, 0
7, 123720, Note_on_c, 5, 45, 100
7, 123828, Note_on_c, 5, 45, 0
7, 123840, Note_on_c, 5, 45, 100
7, 123948, Note_on_c, 5, 45, 0
7, 124440, Note_on_c, 5, 45, 100
7, 124548, Note_on_c, 5, 45, 0
7, 124560, Note_on_c, 5, 57, 100
7, 124668, Note_on_c, 5, 57, 0
7, 124680, Note_on_c, 5, 45, 100
7, 124788, Note_on_c, 5, 45, 0
7, 124800, Note_on_c, 5, 50, 100
7, 124908, Note_on_c, 5, 50, 0
7, 125400, Note_on_c, 5, 43, 100
7, 125508, Note_on_c, 5, 43, 0
7, 125520, Note_on_c, 5, 55, 100
7, 125628, Note_on_c, 5, 55, 0
7, 125640, Note_on_c, 5, 43, 100
7, 125748, Note_on_c, 5, 43, 0
7, 125760, Note_on_c, 5, 48, 100
7, 125868, Note_on_c, 5, 48, 0
7, 125880, Note_on_c, 5, 44, 100
7, 125988, Note_on_c, 5, 44, 0
7, 126000, Note_on_c, 5, 45, 100
7, 126108, Note_on_c, 5, 45, 0
7, 126360, Note_on_c, 5, 49, 100
7, 126468, Note_on_c, 5, 49, 0
7, 126480, Note_on_c, 5, 50, 100
7, 126588, Note_on_c, 5, 50, 0
7, 126600, Note_on_c, 5, 38, 100
7, 126708, Note_on_c, 5, 38, 0
7, 126720, Note_on_c, 5, 40, 100
7, 126828, Note_on_c, 5, 40, 0
7, 127200, Note_on_c, 5, 40, 100
7, 127308, Note_on_c, 5, 40, 0
7, 127680, Note_on_c, 5, 40, 100
7, 127788, Note_on_c, 5, 40, 0
7, 128160, Note_on_c, 5, 40, 100
7, 128268, Note_on_c, 5, 40, 0
7, 128640, Note_on_c, 5, 40, 100
7, 128748, Note_on_c, 5, 40, 0
7, 129000, Note_on_c, 5, 52, 100
7, 129108, Note_on_c, 5, 52, 0
7, 129120, Note_on_c, 5, 47, 100
7, 129228, Note_on_c, 5, 47, 0
7, 129480, Note_on_c, 5, 50, 100
7, 129588, Note_on_c, 5, 50, 0
7, 129600, Note_on_c, 5, 44, 100
7, 129708, Note_on_c, 5, 44, 0
7, 129960, Note_on_c, 5, 47, 100
7, 130068, Note_on_c, 5, 47, 0
7, 130080, Note_on_c, 5, 36, 100
7, 130188, Note_on_c, 5, 36, 0
7, 130200, Note_on_c, 5, 53, 100
7, 130281, Note_on_c, 5, 53, 0
7, 130290, Note_on_c, 5, 50, 100
7, 130317, Note_on_c, 5, 50, 0
7, 130320, Note_on_c, 5, 52, 100
7, 130428, Note_on_c, 5, 52, 0
7, 130440, Note_on_c, 5, 50, 100
7, 130521, Note_on_c, 5, 50, 0
7, 130530, Note_on_c, 5, 47, 100
7, 130557, Note_on_c, 5, 47, 0
7, 130560, Note_on_c, 5, 49, 100
7, 130668, Note_on_c, 5, 49, 0
7, 130920, Note_on_c, 5, 45, 100
7, 131028, Note_on_c, 5, 45, 0
7, 131040, Note_on_c, 5, 50, 100
7, 131148, Note_on_c, 5, 50, 0
7, 131400, Note_on_c, 5, 48, 100
7, 131508, Note_on_c, 5, 48, 0
7, 131520, Note_on_c, 5, 44, 100
7, 131628, Note_on_c, 5, 44, 0
7, 131760, Note_on_c, 5, 53, 100
7, 131868, Note_on_c, 5, 53, 0
7, 132000, Note_on_c, 5, 50, 100
7, 132108, Note_on_c, 5, 50, 0
7, 132240, Note_on_c, 5, 47, 100
7, 132348, Note_on_c, 5, 47, 0
7, 132480, Note_on_c, 5, 44, 100
7, 132588, Note_on_c, 5, 44, 0
7, 132720, Note_on_c, 5, 50, 100
7, 132828, Note_on_c, 5, 50, 0
7, 132960, Note_on_c, 5, 47, 100
7, 133068, Note_on_c, 5, 47, 0
7, 133200, Note_on_c, 5, 44, 100
7, 133308, Note_on_c, 5, 44, 0
7, 133440, Note_on_c, 5, 40, 100
7, 133548, Note_on_c, 5, 40, 0
7, 134400, Note_on_c, 5, 45, 100
7, 134616, Note_on_c, 5, 45, 0
7, 135000, Note_on_c, 5, 57, 100
7, 135108, Note_on_c, 5, 57, 0
7, 135120, Note_on_c, 5, 48, 100
7, 135228, Note_on_c, 5, 48, 0
7, 135240, Note_on_c, 5, 52, 100
7, 135348, Note_on_c, 5, 52, 0
7, 135360, Note_on_c, 5, 45, 100
7, 135576, Note_on_c, 5, 45, 0
7, 135960, Note_on_c, 5, 57, 100
7, 136014, Note_on_c, 5, 57, 0
7, 136020, Note_on_c, 5, 59, 100
7, 136074, Note_on_c, 5, 59, 0
7, 136080, Note_on_c, 5, 60, 100
7, 136134, Note_on_c, 5, 60, 0
7, 136140, Note_on_c, 5, 64, 100
7, 136194, Note_on_c, 5, 64, 0
7, 136200, Note_on_c, 5, 62, 100
7, 136254, Note_on_c, 5, 62, 0
7, 136260, Note_on_c, 5, 59, 100
7, 136314, Note_on_c, 5, 59, 0
7, 136320, Note_on_c, 5, 60, 100
7, 136356, Note_on_c, 5, 60, 0
7, 136360, Note_on_c, 5, 59, 100
7, 136396, Note_on_c, 5, 59, 0
7, 136400, Note_on_c, 5, 57, 100
7, 136436, Note_on_c, 5, 57, 0
7, 136920, Note_on_c, 5, 60, 100
7, 137028, Note_on_c, 5, 60, 0
7, 137040, Note_on_c, 5, 56, 100
7, 137148, Note_on_c, 5, 56, 0
7, 137160, Note_on_c, 5, 57, 100
7, 137268, Note_on_c, 5, 57, 0
7, 137280, Note_on_c, 5, 52, 100
7, 137388, Note_on_c, 5, 52, 0
7, 137880, Note_on_c, 5, 48, 100
7, 137988, Note_on_c, 5, 48, 0
7, 138000, Note_on_c, 5, 44, 100
7, 138108, Note_on_c, 5, 44, 0
7, 138120, Note_on_c, 5, 45, 100
7, 138228, Note_on_c, 5, 45, 0
7, 138240, Note_on_c, 5, 40, 100
7, 138348, Note_on_c, 5, 40, 0
7, 138360, Note_on_c, 5, 64, 100
7, 138441, Note_on_c, 5, 64, 0
7, 138450, Note_on_c, 5, 62, 100
7, 138477, Note_on_c, 5, 62, 0
7, 138480, Note_on_c, 5, 61, 100
7, 138588, Note_on_c, 5, 61, 0
7, 138600, Note_on_c, 5, 57, 100
7, 138708, Note_on_c, 5, 57, 0
7, 138720, Note_on_c, 5, 50, 100
7, 138828, Note_on_c, 5, 50, 0
7, 138840, Note_on_c, 5, 62, 100
7, 138921, Note_on_c, 5, 62, 0
7, 138930, Note_on_c, 5, 60, 100
7, 138957, Note_on_c, 5, 60, 0
7, 138960, Note_on_c, 5, 59, 100
7, 139068, Note_on_c, 5, 59, 0
7, 139080, Note_on_c, 5, 55, 100
7, 139188, Note_on_c, 5, 55, 0
7, 139200, Note_on_c, 5, 60, 100
7, 139236, Note_on_c, 5, 60, 0
7, 139240, Note_on_c, 5, 59, 100
7, 139276, Note_on_c, 5, 59, 0
7, 139280, Note_on_c, 5, 57, 100
7, 139316, Note_on_c, 5, 57, 0
7, 139320, Note_on_c, 5, 57, 100
7, 139356, Note_on_c, 5, 57, 0
7, 139360, Note_on_c, 5, 55, 100
7, 139396, Note_on_c, 5, 55, 0
7, 139400, Note_on_c, 5, 54, 100
7, 139436, Note_on_c, 5, 54, 0
7, 139440, Note_on_c, 5, 54, 100
7, 139476, Note_on_c, 5, 54, 0
7, 139480, Note_on_c, 5, 55, 100
7, 139516, Note_on_c, 5, 55, 0
7, 139520, Note_on_c, 5, 57, 100
7, 139556, Note_on_c, 5, 57, 0
7, 139560, Note_on_c, 5, 57, 100
7, 139596, Note_on_c, 5, 57, 0
7, 139600, Note_on_c, 5, 59, 100
7, 139636, Note_on_c, 5, 59, 0
7, 139640, Note_on_c, 5, 60, 100
7, 139676, Note_on_c, 5, 60, 0
7, 139680, Note_on_c, 5, 59, 100
7, 139716, Note_on_c, 5, 59, 0
7, 139720, Note_on_c, 5, 57, 100
7, 139756, Note_on_c, 5, 57, 0
7, 139760, Note_on_c, 5, 56, 100
7, 139796, Note_on_c, 5, 56, 0
7, 139800, Note_on_c, 5, 56, 100
7, 139836, Note_on_c, 5, 56, 0
7, 139840, Note_on_c, 5, 54, 100
7, 139876, Note_on_c, 5, 54, 0
7, 139880, Note_on_c, 5, 52, 100
7, 139916, Note_on_c, 5, 52, 0
7, 139920, Note_on_c, 5, 52, 100
7, 139956, Note_on_c, 5, 52, 0
7, 139960, Note_on_c, 5, 54, 100
7, 139996, Note_on_c, 5, 54, 0
7, 140000, Note_on_c, 5, 56, 100
7, 140036, Note_on_c, 5, 56, 0
7, 140040, Note_on_c, 5, 56, 100
7, 140076, Note_on_c, 5, 56, 0
7, 140080, Note_on_c, 5, 57, 100
7, 140116, Note_on_c, 5, 57, 0
7, 140120, Note_on_c, 5, 59, 100
7, 140156, Note_on_c, 5, 59, 0
7, 140160, Note_on_c, 5, 57, 100
7, 140268, Note_on_c, 5, 57, 0
7, 140280, Note_on_c, 5, 50, 100
7, 140388, Note_on_c, 5, 50, 0
7, 140400, Note_on_c, 5, 50, 100
7, 140508, Note_on_c, 5, 50, 0
7, 140520, Note_on_c, 5, 50, 100
7, 140628, Note_on_c, 5, 50, 0
7, 140640, Note_on_c, 5, 38, 100
7, 140748, Note_on_c, 5, 38, 0
7, 140760, Note_on_c, 5, 50, 100
7, 140868, Note_on_c, 5, 50, 0
7, 140880, Note_on_c, 5, 48, 100
7, 140988, Note_on_c, 5, 48, 0
7, 141000, Note_on_c, 5, 47, 100
7, 141108, Note_on_c, 5, 47, 0
7, 141120, Note_on_c, 5, 48, 100
7, 141228, Note_on_c, 5, 48, 0
7, 141240, Note_on_c, 5, 50, 100
7, 141348, Note_on_c, 5, 50, 0
7, 141360, Note_on_c, 5, 52, 100
7, 141468, Note_on_c, 5, 52, 0
7, 141480, Note_on_c, 5, 40, 100
7, 141588, Note_on_c, 5, 40, 0
7, 141600, Note_on_c, 5, 41, 100
7, 141708, Note_on_c, 5, 41, 0
7, 141720, Note_on_c, 5, 38, 100
7, 141828, Note_on_c, 5, 38, 0
7, 141840, Note_on_c, 5, 40, 100
7, 141948, Note_on_c, 5, 40, 0
7, 141960, Note_on_c, 5, 40, 100
7, 142068, Note_on_c, 5, 40, 0
7, 142080, Note_on_c, 5, 45, 100
7, 142296, Note_on_c, 5, 45, 0
7, 142296, End_track
8, 0, Start_track
8, 0, Sequence_number, 0
8, 0, SMPTE_offset, 0, 0, 0, 0, 0
8, 0, MIDI_port, 0
8, 0, Control_c, 5, 0, 0
8, 0, Control_c, 5, 32, 0
8, 0, Control_c, 5, 7, 80
8, 0, Program_c, 5, 48
8, 0, Control_c, 5, 10, 104
8, 0, Note_on_c, 5, 33, 100
8, 216, Note_on_c, 5, 33, 0
8, 600, Note_on_c, 5, 45, 100
8, 708, Note_on_c, 5, 45, 0
8, 720, Note_on_c, 5, 36, 100
8, 828, Note_on_c, 5, 36, 0
8, 840, Note_on_c, 5, 40, 100
8, 948, Note_on_c, 5, 40, 0
8, 960, Note_on_c, 5, 33, 100
8, 1176, Note_on_c, 5, 33, 0
8, 1560, Note_on_c, 5, 45, 100
8, 1614, Note_on_c, 5, 45, 0
8, 1620, Note_on_c, 5, 47, 100
8, 1674, Note_on_c, 5, 47, 0
8, 1680, Note_on_c, 5, 48, 100
8, 1734, Note_on_c, 5, 48, 0
8, 1740, Note_on_c, 5, 52, 100
8, 1794, Note_on_c, 5, 52, 0
8, 1800, Note_on_c, 5, 50, 100
8, 1854, Note_on_c, 5, 50, 0
8, 1860, Note_on_c, 5, 47, 100
8, 1914, Note_on_c, 5, 47, 0
8, 1920, Note_on_c, 5, 48, 100
8, 1956, Note_on_c, 5, 48, 0
8, 1960, Note_on_c, 5, 47, 100
8, 1996, Note_on_c, 5, 47, 0
8, 2000, Note_on_c, 5, 45, 100
8, 2036, Note_on_c, 5, 45, 0
8, 2520, Note_on_c, 5, 48, 100
8, 2628, Note_on_c, 5, 48, 0
8, 2640, Note_on_c, 5, 44, 100
8, 2748, Note_on_c, 5, 44, 0
8, 2760, Note_on_c, 5, 45, 100
8, 2868, Note_on_c, 5, 45, 0
8, 2880, Note_on_c, 5, 40, 100
8, 2988, Note_on_c, 5, 40, 0
8, 3480, Note_on_c, 5, 36, 100
8, 3588, Note_on_c, 5, 36, 0
8, 3600, Note_on_c, 5, 32, 100
8, 3708, Note_on_c, 5, 32, 0
8, 3720, Note_on_c, 5, 33, 100
8, 3828, Note_on_c, 5, 33, 0
8, 3840, Note_on_c, 5, 28, 100
8, 3948, Note_on_c, 5, 28, 0
8, 3960, Note_on_c, 5, 52, 100
8, 4041, Note_on_c, 5, 52, 0
8, 4050, Note_on_c, 5, 50, 100
8, 4077, Note_on_c, 5, 50, 0
8, 4080, Note_on_c, 5, 49, 100
8, 4188, Note_on_c, 5, 49, 0
8, 4200, Note_on_c, 5, 45, 100
8, 4308, Note_on_c, 5, 45, 0
8, 4320, Note_on_c, 5, 38, 100
8, 4428, Note_on_c, 5, 38, 0
8, 4440, Note_on_c, 5, 50, 100
8, 4521, Note_on_c, 5, 50, 0
8, 4530, Note_on_c, 5, 48, 100
8, 4557, Note_on_c, 5, 48, 0
8, 4560, Note_on_c, 5, 47, 100
8, 4668, Note_on_c, 5, 47, 0
8, 4680, Note_on_c, 5, 43, 100
8, 4788, Note_on_c, 5, 43, 0
8, 4800, Note_on_c, 5, 48, 100
8, 4836, Note_on_c, 5, 48, 0
8, 4840, Note_on_c, 5, 47, 100
8, 4876, Note_on_c, 5, 47, 0
8, 4880, Note_on_c, 5, 45, 100
8, 4916, Note_on_c, 5, 45, 0
8, 4920, Note_on_c, 5, 45, 100
8, 4956, Note_on_c, 5, 45, 0
8, 4960, Note_on_c, 5, 43, 100
8, 4996, Note_on_c, 5, 43, 0
8, 5000, Note_on_c, 5, 42, 100
8, 5036, Note_on_c, 5, 42, 0
8, 5040, Note_on_c, 5, 42, 100
8, 5076, Note_on_c, 5, 42, 0
8, 5080, Note_on_c, 5, 43, 100
8, 5116, Note_on_c, 5, 43, 0
8, 5120, Note_on_c, 5, 45, 100
8, 5156, Note_on_c, 5, 45, 0
8, 5160, Note_on_c, 5, 45, 100
8, 5196, Note_on_c, 5, 45, 0
8, 5200, Note_on_c, 5, 47, 100
8, 5236, Note_on_c, 5, 47, 0
8, 5240, Note_on_c, 5, 48, 100
8, 5276, Note_on_c, 5, 48, 0
8, 5280, Note_on_c, 5, 47, 100
8, 5316, Note_on_c, 5, 47, 0
8, 5320, Note_on_c, 5, 45, 100
8, 5356, Note_on_c, 5, 45, 0
8, 5360, Note_on_c, 5, 44, 100
8, 5396, Note_on_c, 5, 44, 0
8, 5400, Note_on_c, 5, 44, 100
8, 5436, Note_on_c, 5, 44, 0
8, 5440, Note_on_c, 5, 42, 100
8, 5476, Note_on_c, 5, 42, 0
8, 5480, Note_on_c, 5, 40, 100
8, 5516, Note_on_c, 5, 40, 0
8, 5520, Note_on_c, 5, 40, 100
8, 5556, Note_on_c, 5, 40, 0
8, 5560, Note_on_c, 5, 42, 100
8, 5596, Note_on_c, 5, 42, 0
8, 5600, Note_on_c, 5, 44, 100
8, 5636, Note_on_c, 5, 44, 0
8, 5640, Note_on_c, 5, 44, 100
8, 5676, Note_on_c, 5, 44, 0
8, 5680, Note_on_c, 5, 45, 100
8, 5716, Note_on_c, 5, 45, 0
8, 5720, Note_on_c, 5, 47, 100
8, 5756, Note_on_c, 5, 47, 0
8, 5760, Note_on_c, 5, 45, 100
8, 5868, Note_on_c, 5, 45, 0
8, 5880, Note_on_c, 5, 38, 100
8, 5988, Note_on_c, 5, 38, 0
8, 6000, Note_on_c, 5, 38, 100
8, 6108, Note_on_c, 5, 38, 0
8, 6120, Note_on_c, 5, 38, 100
8, 6228, Note_on_c, 5, 38, 0
8, 6240, Note_on_c, 5, 26, 100
8, 6348, Note_on_c, 5, 26, 0
8, 6360, Note_on_c, 5, 38, 100
8, 6468, Note_on_c, 5, 38, 0
8, 6480, Note_on_c, 5, 36, 100
8, 6588, Note_on_c, 5, 36, 0
8, 6600, Note_on_c, 5, 35, 100
8, 6708, Note_on_c, 5, 35, 0
8, 6720, Note_on_c, 5, 36, 100
8, 6828, Note_on_c, 5, 36, 0
8, 6840, Note_on_c, 5, 38, 100
8, 6948, Note_on_c, 5, 38, 0
8, 6960, Note_on_c, 5, 40, 100
8, 7068, Note_on_c, 5, 40, 0
8, 7080, Note_on_c, 5, 28, 100
8, 7188, Note_on_c, 5, 28, 0
8, 7200, Note_on_c, 5, 29, 100
8, 7308, Note_on_c, 5, 29, 0
8, 7320, Note_on_c, 5, 26, 100
8, 7428, Note_on_c, 5, 26, 0
8, 7440, Note_on_c, 5, 28, 100
8, 7548, Note_on_c, 5, 28, 0
8, 7560, Note_on_c, 5, 28, 100
8, 7668, Note_on_c, 5, 28, 0
8, 7680, Note_on_c, 5, 33, 100
8, 7896, Note_on_c, 5, 33, 0
8, 8280, Note_on_c, 5, 45, 100
8, 8388, Note_on_c, 5, 45, 0
8, 8400, Note_on_c, 5, 36, 100
8, 8508, Note_on_c, 5, 36, 0
8, 8520, Note_on_c, 5, 40, 100
8, 8628, Note_on_c, 5, 40, 0
8, 8640, Note_on_c, 5, 33, 100
8, 8748, Note_on_c, 5, 33, 0
8, 9240, Note_on_c, 5, 45, 100
8, 9348, Note_on_c, 5, 45, 0
8, 9360, Note_on_c, 5, 36, 100
8, 9468, Note_on_c, 5, 36, 0
8, 9480, Note_on_c, 5, 40, 100
8, 9588, Note_on_c, 5, 40, 0
8, 9600, Note_on_c, 5, 33, 100
8, 9708, Note_on_c, 5, 33, 0
8, 13080, Note_on_c, 5, 48, 100
8, 13188, Note_on_c, 5, 48, 0
8, 13200, Note_on_c, 5, 44, 100
8, 13308, Note_on_c, 5, 44, 0
8, 13320, Note_on_c, 5, 45, 100
8, 13428, Note_on_c, 5, 45, 0
8, 13440, Note_on_c, 5, 40, 100
8, 13548, Note_on_c, 5, 40, 0
8, 14040, Note_on_c, 5, 36, 100
8, 14148, Note_on_c, 5, 36, 0
8, 14160, Note_on_c, 5, 32, 100
8, 14268, Note_on_c, 5, 32, 0
8, 14280, Note_on_c, 5, 33, 100
8, 14388, Note_on_c, 5, 33, 0
8, 14400, Note_on_c, 5, 28, 100
8, 14508, Note_on_c, 5, 28, 0
8, 14760, Note_on_c, 5, 40, 100
8, 14868, Note_on_c, 5, 40, 0
8, 14880, Note_on_c, 5, 33, 100
8, 14988, Note_on_c, 5, 33, 0
8, 15240, Note_on_c, 5, 45, 100
8, 15348, Note_on_c, 5, 45, 0
8, 15360, Note_on_c, 5, 50, 100
8, 15468, Note_on_c, 5, 50, 0
8, 15720, Note_on_c, 5, 38, 100
8, 15828, Note_on_c, 5, 38, 0
8, 15840, Note_on_c, 5, 43, 100
8, 15948, Note_on_c, 5, 43, 0
8, 16200, Note_on_c, 5, 43, 100
8, 16308, Note_on_c, 5, 43, 0
8, 16320, Note_on_c, 5, 48, 100
8, 16356, Note_on_c, 5, 48, 0
8, 16360, Note_on_c, 5, 47, 100
8, 16396, Note_on_c, 5, 47, 0
8, 16400, Note_on_c, 5, 45, 100
8, 16436, Note_on_c, 5, 45, 0
8, 16440, Note_on_c, 5, 45, 100
8, 16476, Note_on_c, 5, 45, 0
8, 16480, Note_on_c, 5, 43, 100
8, 16516, Note_on_c, 5, 43, 0
8, 16520, Note_on_c, 5, 42, 100
8, 16556, Note_on_c, 5, 42, 0
8, 16560, Note_on_c, 5, 42, 100
8, 16596, Note_on_c, 5, 42, 0
8, 16600, Note_on_c, 5, 43, 100
8, 16636, Note_on_c, 5, 43, 0
8, 16640, Note_on_c, 5, 45, 100
8, 16676, Note_on_c, 5, 45, 0
8, 16680, Note_on_c, 5, 45, 100
8, 16716, Note_on_c, 5, 45, 0
8, 16720, Note_on_c, 5, 47, 100
8, 16756, Note_on_c, 5, 47, 0
8, 16760, Note_on_c, 5, 48, 100
8, 16796, Note_on_c, 5, 48, 0
8, 16800, Note_on_c, 5, 47, 100
8, 16836, Note_on_c, 5, 47, 0
8, 16840, Note_on_c, 5, 45, 100
8, 16876, Note_on_c, 5, 45, 0
8, 16880, Note_on_c, 5, 44, 100
8, 16916, Note_on_c, 5, 44, 0
8, 16920, Note_on_c, 5, 44, 100
8, 16956, Note_on_c, 5, 44, 0
8, 16960, Note_on_c, 5, 42, 100
8, 16996, Note_on_c, 5, 42, 0
8, 17000, Note_on_c, 5, 40, 100
8, 17036, Note_on_c, 5, 40, 0
8, 17040, Note_on_c, 5, 40, 100
8, 17076, Note_on_c, 5, 40, 0
8, 17080, Note_on_c, 5, 42, 100
8, 17116, Note_on_c, 5, 42, 0
8, 17120, Note_on_c, 5, 44, 100
8, 17156, Note_on_c, 5, 44, 0
8, 17160, Note_on_c, 5, 44, 100
8, 17196, Note_on_c, 5, 44, 0
8, 17200, Note_on_c, 5, 45, 100
8, 17236, Note_on_c, 5, 45, 0
8, 17240, Note_on_c, 5, 47, 100
8, 17276, Note_on_c, 5, 47, 0
8, 17280, Note_on_c, 5, 45, 100
8, 17388, Note_on_c, 5, 45, 0
8, 17400, Note_on_c, 5, 33, 100
8, 17508, Note_on_c, 5, 33, 0
8, 17520, Note_on_c, 5, 33, 100
8, 17628, Note_on_c, 5, 33, 0
8, 17640, Note_on_c, 5, 33, 100
8, 17748, Note_on_c, 5, 33, 0
8, 17760, Note_on_c, 5, 33, 100
8, 17868, Note_on_c, 5, 33, 0
8, 17880, Note_on_c, 5, 45, 100
8, 17988, Note_on_c, 5, 45, 0
8, 18000, Note_on_c, 5, 43, 100
8, 18108, Note_on_c, 5, 43, 0
8, 18120, Note_on_c, 5, 42, 100
8, 18228, Note_on_c, 5, 42, 0
8, 18240, Note_on_c, 5, 43, 100
8, 18348, Note_on_c, 5, 43, 0
8, 18360, Note_on_c, 5, 45, 100
8, 18468, Note_on_c, 5, 45, 0
8, 18480, Note_on_c, 5, 47, 100
8, 18588, Note_on_c, 5, 47, 0
8, 18600, Note_on_c, 5, 35, 100
8, 18708, Note_on_c, 5, 35, 0
8, 18720, Note_on_c, 5, 36, 100
8, 18828, Note_on_c, 5, 36, 0
8, 18840, Note_on_c, 5, 33, 100
8, 18948, Note_on_c, 5, 33, 0
8, 18960, Note_on_c, 5, 35, 100
8, 19068, Note_on_c, 5, 35, 0
8, 19080, Note_on_c, 5, 35, 100
8, 19188, Note_on_c, 5, 35, 0
8, 19200, Note_on_c, 5, 28, 100
8, 19308, Note_on_c, 5, 28, 0
8, 19800, Note_on_c, 5, 40, 100
8, 19908, Note_on_c, 5, 40, 0
8, 19920, Note_on_c, 5, 31, 100
8, 20028, Note_on_c, 5, 31, 0
8, 20040, Note_on_c, 5, 35, 100
8, 20148, Note_on_c, 5, 35, 0
8, 20160, Note_on_c, 5, 28, 100
8, 20268, Note_on_c, 5, 28, 0
8, 20760, Note_on_c, 5, 40, 100
8, 20868, Note_on_c, 5, 40, 0
8, 20880, Note_on_c, 5, 31, 100
8, 20988, Note_on_c, 5, 31, 0
8, 21000, Note_on_c, 5, 35, 100
8, 21108, Note_on_c, 5, 35, 0
8, 21120, Note_on_c, 5, 28, 100
8, 21228, Note_on_c, 5, 28, 0
8, 21480, Note_on_c, 5, 40, 100
8, 21588, Note_on_c, 5, 40, 0
8, 21600, Note_on_c, 5, 33, 100
8, 21708, Note_on_c, 5, 33, 0
8, 21960, Note_on_c, 5, 38, 100
8, 22068, Note_on_c, 5, 38, 0
8, 22080, Note_on_c, 5, 31, 100
8, 22188, Note_on_c, 5, 31, 0
8, 23700, Note_on_c, 5, 45, 100
8, 23754, Note_on_c, 5, 45, 0
8, 23760, Note_on_c, 5, 47, 100
8, 23868, Note_on_c, 5, 47, 0
8, 23880, Note_on_c, 5, 35, 100
8, 23988, Note_on_c, 5, 35, 0
8, 24000, Note_on_c, 5, 40, 100
8, 24108, Note_on_c, 5, 40, 0
8, 24600, Note_on_c, 5, 33, 100
8, 24708, Note_on_c, 5, 33, 0
8, 24720, Note_on_c, 5, 33, 100
8, 24828, Note_on_c, 5, 33, 0
8, 24840, Note_on_c, 5, 33, 100
8, 24948, Note_on_c, 5, 33, 0
8, 24960, Note_on_c, 5, 38, 100
8, 25068, Note_on_c, 5, 38, 0
8, 25560, Note_on_c, 5, 31, 100
8, 25668, Note_on_c, 5, 31, 0
8, 25680, Note_on_c, 5, 31, 100
8, 25788, Note_on_c, 5, 31, 0
8, 25800, Note_on_c, 5, 31, 100
8, 25908, Note_on_c, 5, 31, 0
8, 25920, Note_on_c, 5, 36, 100
8, 26028, Note_on_c, 5, 36, 0
8, 26400, Note_on_c, 5, 36, 100
8, 26508, Note_on_c, 5, 36, 0
8, 26880, Note_on_c, 5, 36, 100
8, 26988, Note_on_c, 5, 36, 0
8, 27360, Note_on_c, 5, 36, 100
8, 27468, Note_on_c, 5, 36, 0
8, 27840, Note_on_c, 5, 35, 100
8, 27948, Note_on_c, 5, 35, 0
8, 28320, Note_on_c, 5, 32, 100
8, 28428, Note_on_c, 5, 32, 0
8, 28800, Note_on_c, 5, 28, 100
8, 28908, Note_on_c, 5, 28, 0
8, 29400, Note_on_c, 5, 36, 100
8, 29436, Note_on_c, 5, 36, 0
8, 29440, Note_on_c, 5, 35, 100
8, 29476, Note_on_c, 5, 35, 0
8, 29480, Note_on_c, 5, 33, 100
8, 29516, Note_on_c, 5, 33, 0
8, 29520, Note_on_c, 5, 40, 100
8, 29628, Note_on_c, 5, 40, 0
8, 29640, Note_on_c, 5, 28, 100
8, 29748, Note_on_c, 5, 28, 0
8, 29760, Note_on_c, 5, 29, 100
8, 29868, Note_on_c, 5, 29, 0
8, 30120, Note_on_c, 5, 33, 100
8, 30228, Note_on_c, 5, 33, 0
8, 30240, Note_on_c, 5, 38, 100
8, 30348, Note_on_c, 5, 38, 0
8, 30600, Note_on_c, 5, 36, 100
8, 30708, Note_on_c, 5, 36, 0
8, 30720, Note_on_c, 5, 35, 100
8, 30828, Note_on_c, 5, 35, 0
8, 31080, Note_on_c, 5, 33, 100
8, 31188, Note_on_c, 5, 33, 0
8, 31200, Note_on_c, 5, 32, 100
8, 31308, Note_on_c, 5, 32, 0
8, 31560, Note_on_c, 5, 35, 100
8, 31668, Note_on_c, 5, 35, 0
8, 31680, Note_on_c, 5, 40, 100
8, 31788, Note_on_c, 5, 40, 0
8, 32040, Note_on_c, 5, 38, 100
8, 32076, Note_on_c, 5, 38, 0
8, 32080, Note_on_c, 5, 36, 100
8, 32116, Note_on_c, 5, 36, 0
8, 32120, Note_on_c, 5, 35, 100
8, 32156, Note_on_c, 5, 35, 0
8, 32160, Note_on_c, 5, 36, 100
8, 32268, Note_on_c, 5, 36, 0
8, 32280, Note_on_c, 5, 33, 100
8, 32388, Note_on_c, 5, 33, 0
8, 32400, Note_on_c, 5, 40, 100
8, 32508, Note_on_c, 5, 40, 0
8, 32520, Note_on_c, 5, 28, 100
8, 32628, Note_on_c, 5, 28, 0
8, 32640, Note_on_c, 5, 33, 100
8, 32748, Note_on_c, 5, 33, 0
8, 33240, Note_on_c, 5, 41, 100
8, 33348, Note_on_c, 5, 41, 0
8, 33360, Note_on_c, 5, 37, 100
8, 33468, Note_on_c, 5, 37, 0
8, 33480, Note_on_c, 5, 38, 100
8, 33588, Note_on_c, 5, 38, 0
8, 33600, Note_on_c, 5, 33, 100
8, 33708, Note_on_c, 5, 33, 0
8, 34920, Note_on_c, 5, 45, 100
8, 35028, Note_on_c, 5, 45, 0
8, 35040, Note_on_c, 5, 38, 100
8, 35148, Note_on_c, 5, 38, 0
8, 35400, Note_on_c, 5, 38, 100
8, 35508, Note_on_c, 5, 38, 0
8, 35520, Note_on_c, 5, 31, 100
8, 35628, Note_on_c, 5, 31, 0
8, 35880, Note_on_c, 5, 43, 100
8, 35988, Note_on_c, 5, 43, 0
8, 36000, Note_on_c, 5, 36, 100
8, 36108, Note_on_c, 5, 36, 0
8, 36360, Note_on_c, 5, 36, 100
8, 36468, Note_on_c, 5, 36, 0
8, 36480, Note_on_c, 5, 41, 100
8, 36516, Note_on_c, 5, 41, 0
8, 36520, Note_on_c, 5, 40, 100
8, 36556, Note_on_c, 5, 40, 0
8, 36560, Note_on_c, 5, 38, 100
8, 36596, Note_on_c, 5, 38, 0
8, 36600, Note_on_c, 5, 38, 100
8, 36636, Note_on_c, 5, 38, 0
8, 36640, Note_on_c, 5, 36, 100
8, 36676, Note_on_c, 5, 36, 0
8, 36680, Note_on_c, 5, 35, 100
8, 36716, Note_on_c, 5, 35, 0
8, 36720, Note_on_c, 5, 35, 100
8, 36756, Note_on_c, 5, 35, 0
8, 36760, Note_on_c, 5, 37, 100
8, 36796, Note_on_c, 5, 37, 0
8, 36800, Note_on_c, 5, 38, 100
8, 36836, Note_on_c, 5, 38, 0
8, 36840, Note_on_c, 5, 38, 100
8, 36876, Note_on_c, 5, 38, 0
8, 36880, Note_on_c, 5, 40, 100
8, 36916, Note_on_c, 5, 40, 0
8, 36920, Note_on_c, 5, 41, 100
8, 36956, Note_on_c, 5, 41, 0
8, 36960, Note_on_c, 5, 40, 100
8, 36996, Note_on_c, 5, 40, 0
8, 37000, Note_on_c, 5, 38, 100
8, 37036, Note_on_c, 5, 38, 0
8, 37040, Note_on_c, 5, 37, 100
8, 37076, Note_on_c, 5, 37, 0
8, 37080, Note_on_c, 5, 37, 100
8, 37116, Note_on_c, 5, 37, 0
8, 37120, Note_on_c, 5, 35, 100
8, 37156, Note_on_c, 5, 35, 0
8, 37160, Note_on_c, 5, 33, 100
8, 37196, Note_on_c, 5, 33, 0
8, 37200, Note_on_c, 5, 33, 100
8, 37236, Note_on_c, 5, 33, 0
8, 37240, Note_on_c, 5, 35, 100
8, 37276, Note_on_c, 5, 35, 0
8, 37280, Note_on_c, 5, 37, 100
8, 37316, Note_on_c, 5, 37, 0
8, 37320, Note_on_c, 5, 37, 100
8, 37356, Note_on_c, 5, 37, 0
8, 37360, Note_on_c, 5, 38, 100
8, 37396, Note_on_c, 5, 38, 0
8, 37400, Note_on_c, 5, 40, 100
8, 37436, Note_on_c, 5, 40, 0
8, 37440, Note_on_c, 5, 38, 100
8, 37548, Note_on_c, 5, 38, 0
8, 37560, Note_on_c, 5, 26, 100
8, 37668, Note_on_c, 5, 26, 0
8, 37680, Note_on_c, 5, 26, 100
8, 37788, Note_on_c, 5, 26, 0
8, 37800, Note_on_c, 5, 26, 100
8, 37908, Note_on_c, 5, 26, 0
8, 37920, Note_on_c, 5, 26, 100
8, 38028, Note_on_c, 5, 26, 0
8, 38040, Note_on_c, 5, 38, 100
8, 38148, Note_on_c, 5, 38, 0
8, 38160, Note_on_c, 5, 36, 100
8, 38268, Note_on_c, 5, 36, 0
8, 38280, Note_on_c, 5, 35, 100
8, 38388, Note_on_c, 5, 35, 0
8, 38400, Note_on_c, 5, 36, 100
8, 38508, Note_on_c, 5, 36, 0
8, 38520, Note_on_c, 5, 38, 100
8, 38628, Note_on_c, 5, 38, 0
8, 38640, Note_on_c, 5, 40, 100
8, 38748, Note_on_c, 5, 40, 0
8, 38760, Note_on_c, 5, 28, 100
8, 38868, Note_on_c, 5, 28, 0
8, 38880, Note_on_c, 5, 29, 100
8, 38988, Note_on_c, 5, 29, 0
8, 39000, Note_on_c, 5, 26, 100
8, 39108, Note_on_c, 5, 26, 0
8, 39120, Note_on_c, 5, 28, 100
8, 39228, Note_on_c, 5, 28, 0
8, 39240, Note_on_c, 5, 28, 100
8, 39348, Note_on_c, 5, 28, 0
8, 39360, Note_on_c, 5, 33, 100
8, 39468, Note_on_c, 5, 33, 0
8, 44640, Note_on_c, 5, 31, 100
8, 45984, Note_on_c, 5, 31, 0
8, 46080, Note_on_c, 5, 36, 100
8, 46188, Note_on_c, 5, 36, 0
8, 48000, Note_on_c, 5, 24, 100
8, 48108, Note_on_c, 5, 24, 0
8, 48600, Note_on_c, 5, 48, 100
8, 48708, Note_on_c, 5, 48, 0
8, 48720, Note_on_c, 5, 40, 100
8, 48828, Note_on_c, 5, 40, 0
8, 48840, Note_on_c, 5, 43, 100
8, 48948, Note_on_c, 5, 43, 0
8, 48960, Note_on_c, 5, 36, 100
8, 49068, Note_on_c, 5, 36, 0
8, 49560, Note_on_c, 5, 36, 100
8, 49668, Note_on_c, 5, 36, 0
8, 49680, Note_on_c, 5, 28, 100
8, 49788, Note_on_c, 5, 28, 0
8, 49800, Note_on_c, 5, 31, 100
8, 49908, Note_on_c, 5, 31, 0
8, 49920, Note_on_c, 5, 24, 100
8, 50028, Note_on_c, 5, 24, 0
8, 50280, Note_on_c, 5, 36, 100
8, 50388, Note_on_c, 5, 36, 0
8, 50400, Note_on_c, 5, 29, 100
8, 50508, Note_on_c, 5, 29, 0
8, 50760, Note_on_c, 5, 38, 100
8, 50868, Note_on_c, 5, 38, 0
8, 50880, Note_on_c, 5, 31, 100
8, 50988, Note_on_c, 5, 31, 0
8, 51240, Note_on_c, 5, 40, 100
8, 51348, Note_on_c, 5, 40, 0
8, 51360, Note_on_c, 5, 33, 100
8, 51468, Note_on_c, 5, 33, 0
8, 53880, Note_on_c, 5, 36, 100
8, 53988, Note_on_c, 5, 36, 0
8, 54000, Note_on_c, 5, 36, 100
8, 54108, Note_on_c, 5, 36, 0
8, 54120, Note_on_c, 5, 36, 100
8, 54228, Note_on_c, 5, 36, 0
8, 54360, Note_on_c, 5, 33, 100
8, 54468, Note_on_c, 5, 33, 0
8, 54480, Note_on_c, 5, 33, 100
8, 54588, Note_on_c, 5, 33, 0
8, 54600, Note_on_c, 5, 33, 100
8, 54708, Note_on_c, 5, 33, 0
8, 54840, Note_on_c, 5, 38, 100
8, 54948, Note_on_c, 5, 38, 0
8, 54960, Note_on_c, 5, 38, 100
8, 55068, Note_on_c, 5, 38, 0
8, 55080, Note_on_c, 5, 38, 100
8, 55188, Note_on_c, 5, 38, 0
8, 55320, Note_on_c, 5, 35, 100
8, 55428, Note_on_c, 5, 35, 0
8, 55440, Note_on_c, 5, 35, 100
8, 55548, Note_on_c, 5, 35, 0
8, 55560, Note_on_c, 5, 35, 100
8, 55668, Note_on_c, 5, 35, 0
8, 55680, Note_on_c, 5, 40, 100
8, 55788, Note_on_c, 5, 40, 0
8, 57240, Note_on_c, 5, 45, 100
8, 57276, Note_on_c, 5, 45, 0
8, 57280, Note_on_c, 5, 43, 100
8, 57316, Note_on_c, 5, 43, 0
8, 57320, Note_on_c, 5, 42, 100
8, 57356, Note_on_c, 5, 42, 0
8, 57360, Note_on_c, 5, 42, 100
8, 57396, Note_on_c, 5, 42, 0
8, 57400, Note_on_c, 5, 43, 100
8, 57436, Note_on_c, 5, 43, 0
8, 57440, Note_on_c, 5, 45, 100
8, 57476, Note_on_c, 5, 45, 0
8, 57480, Note_on_c, 5, 45, 100
8, 57516, Note_on_c, 5, 45, 0
8, 57520, Note_on_c, 5, 47, 100
8, 57556, Note_on_c, 5, 47, 0
8, 57560, Note_on_c, 5, 48, 100
8, 57596, Note_on_c, 5, 48, 0
8, 57600, Note_on_c, 5, 47, 100
8, 57708, Note_on_c, 5, 47, 0
8, 57960, Note_on_c, 5, 40, 100
8, 58068, Note_on_c, 5, 40, 0
8, 58080, Note_on_c, 5, 28, 100
8, 59424, Note_on_c, 5, 28, 0
8, 59520, Note_on_c, 5, 30, 100
8, 59628, Note_on_c, 5, 30, 0
8, 59760, Note_on_c, 5, 33, 100
8, 59868, Note_on_c, 5, 33, 0
8, 60000, Note_on_c, 5, 36, 100
8, 60108, Note_on_c, 5, 36, 0
8, 60240, Note_on_c, 5, 30, 100
8, 60348, Note_on_c, 5, 30, 0
8, 60480, Note_on_c, 5, 39, 100
8, 60696, Note_on_c, 5, 39, 0
8, 61050, Note_on_c, 5, 42, 100
8, 61077, Note_on_c, 5, 42, 0
8, 61080, Note_on_c, 5, 43, 100
8, 61161, Note_on_c, 5, 43, 0
8, 61170, Note_on_c, 5, 45, 100
8, 61197, Note_on_c, 5, 45, 0
8, 61200, Note_on_c, 5, 47, 100
8, 61308, Note_on_c, 5, 47, 0
8, 61320, Note_on_c, 5, 35, 100
8, 61428, Note_on_c, 5, 35, 0
8, 61440, Note_on_c, 5, 36, 100
8, 62028, Note_on_c, 5, 36, 0
8, 62040, Note_on_c, 5, 38, 100
8, 62148, Note_on_c, 5, 38, 0
8, 62160, Note_on_c, 5, 36, 100
8, 62268, Note_on_c, 5, 36, 0
8, 62280, Note_on_c, 5, 35, 100
8, 62388, Note_on_c, 5, 35, 0
8, 62400, Note_on_c, 5, 33, 100
8, 62988, Note_on_c, 5, 33, 0
8, 63000, Note_on_c, 5, 35, 100
8, 63108, Note_on_c, 5, 35, 0
8, 63120, Note_on_c, 5, 36, 100
8, 63228, Note_on_c, 5, 36, 0
8, 63240, Note_on_c, 5, 35, 100
8, 63348, Note_on_c, 5, 35, 0
8, 63360, Note_on_c, 5, 33, 100
8, 63468, Note_on_c, 5, 33, 0
8, 63480, Note_on_c, 5, 39, 100
8, 63588, Note_on_c, 5, 39, 0
8, 63600, Note_on_c, 5, 42, 100
8, 63708, Note_on_c, 5, 42, 0
8, 63720, Note_on_c, 5, 45, 100
8, 63828, Note_on_c, 5, 45, 0
8, 63840, Note_on_c, 5, 43, 100
8, 63948, Note_on_c, 5, 43, 0
8, 63960, Note_on_c, 5, 40, 100
8, 64068, Note_on_c, 5, 40, 0
8, 64080, Note_on_c, 5, 35, 100
8, 64188, Note_on_c, 5, 35, 0
8, 64200, Note_on_c, 5, 47, 100
8, 64308, Note_on_c, 5, 47, 0
8, 64320, Note_on_c, 5, 48, 100
8, 64356, Note_on_c, 5, 48, 0
8, 64360, Note_on_c, 5, 47, 100
8, 64396, Note_on_c, 5, 47, 0
8, 64400, Note_on_c, 5, 45, 100
8, 64436, Note_on_c, 5, 45, 0
8, 64440, Note_on_c, 5, 45, 100
8, 64476, Note_on_c, 5, 45, 0
8, 64480, Note_on_c, 5, 43, 100
8, 64516, Note_on_c, 5, 43, 0
8, 64520, Note_on_c, 5, 42, 100
8, 64556, Note_on_c, 5, 42, 0
8, 64560, Note_on_c, 5, 42, 100
8, 64596, Note_on_c, 5, 42, 0
8, 64600, Note_on_c, 5, 43, 100
8, 64636, Note_on_c, 5, 43, 0
8, 64640, Note_on_c, 5, 45, 100
8, 64676, Note_on_c, 5, 45, 0
8, 64680, Note_on_c, 5, 45, 100
8, 64716, Note_on_c, 5, 45, 0
8, 64720, Note_on_c, 5, 47, 100
8, 64756, Note_on_c, 5, 47, 0
8, 64760, Note_on_c, 5, 48, 100
8, 64796, Note_on_c, 5, 48, 0
8, 64800, Note_on_c, 5, 47, 100
8, 64836, Note_on_c, 5, 47, 0
8, 64840, Note_on_c, 5, 45, 100
8, 64876, Note_on_c, 5, 45, 0
8, 64880, Note_on_c, 5, 44, 100
8, 64916, Note_on_c, 5, 44, 0
8, 64920, Note_on_c, 5, 44, 100
8, 64956, Note_on_c, 5, 44, 0
8, 64960, Note_on_c, 5, 42, 100
8, 64996, Note_on_c, 5, 42, 0
8, 65000, Note_on_c, 5, 40, 100
8, 65036, Note_on_c, 5, 40, 0
8, 65040, Note_on_c, 5, 40, 100
8, 65076, Note_on_c, 5, 40, 0
8, 65080, Note_on_c, 5, 42, 100
8, 65116, Note_on_c, 5, 42, 0
8, 65120, Note_on_c, 5, 44, 100
8, 65156, Note_on_c, 5, 44, 0
8, 65160, Note_on_c, 5, 44, 100
8, 65196, Note_on_c, 5, 44, 0
8, 65200, Note_on_c, 5, 45, 100
8, 65236, Note_on_c, 5, 45, 0
8, 65240, Note_on_c, 5, 47, 100
8, 65276, Note_on_c, 5, 47, 0
8, 65280, Note_on_c, 5, 45, 100
8, 65316, Note_on_c, 5, 45, 0
8, 65320, Note_on_c, 5, 43, 100
8, 65356, Note_on_c, 5, 43, 0
8, 65360, Note_on_c, 5, 42, 100
8, 65396, Note_on_c, 5, 42, 0
8, 65400, Note_on_c, 5, 42, 100
8, 65436, Note_on_c, 5, 42, 0
8, 65440, Note_on_c, 5, 40, 100
8, 65476, Note_on_c, 5, 40, 0
8, 65480, Note_on_c, 5, 39, 100
8, 65516, Note_on_c, 5, 39, 0
8, 65520, Note_on_c, 5, 39, 100
8, 65556, Note_on_c, 5, 39, 0
8, 65560, Note_on_c, 5, 40, 100
8, 65596, Note_on_c, 5, 40, 0
8, 65600, Note_on_c, 5, 42, 100
8, 65636, Note_on_c, 5, 42, 0
8, 65640, Note_on_c, 5, 42, 100
8, 65676, Note_on_c, 5, 42, 0
8, 65680, Note_on_c, 5, 43, 100
8, 65716, Note_on_c, 5, 43, 0
8, 65720, Note_on_c, 5, 45, 100
8, 65756, Note_on_c, 5, 45, 0
8, 65760, Note_on_c, 5, 43, 100
8, 65796, Note_on_c, 5, 43, 0
8, 65800, Note_on_c, 5, 42, 100
8, 65836, Note_on_c, 5, 42, 0
8, 65840, Note_on_c, 5, 40, 100
8, 65876, Note_on_c, 5, 40, 0
8, 65880, Note_on_c, 5, 40, 100
8, 65916, Note_on_c, 5, 40, 0
8, 65920, Note_on_c, 5, 39, 100
8, 65956, Note_on_c, 5, 39, 0
8, 65960, Note_on_c, 5, 37, 100
8, 65996, Note_on_c, 5, 37, 0
8, 66000, Note_on_c, 5, 37, 100
8, 66036, Note_on_c, 5, 37, 0
8, 66040, Note_on_c, 5, 39, 100
8, 66076, Note_on_c, 5, 39, 0
8, 66080, Note_on_c, 5, 40, 100
8, 66116, Note_on_c, 5, 40, 0
8, 66120, Note_on_c, 5, 40, 100
8, 66156, Note_on_c, 5, 40, 0
8, 66160, Note_on_c, 5, 42, 100
8, 66196, Note_on_c, 5, 42, 0
8, 66200, Note_on_c, 5, 43, 100
8, 66236, Note_on_c, 5, 43, 0
8, 66240, Note_on_c, 5, 42, 100
8, 66348, Note_on_c, 5, 42, 0
8, 66360, Note_on_c, 5, 33, 100
8, 66468, Note_on_c, 5, 33, 0
8, 66480, Note_on_c, 5, 35, 100
8, 66588, Note_on_c, 5, 35, 0
8, 66600, Note_on_c, 5, 36, 100
8, 66708, Note_on_c, 5, 36, 0
8, 66720, Note_on_c, 5, 27, 100
8, 66828, Note_on_c, 5, 27, 0
8, 66840, Note_on_c, 5, 45, 100
8, 66948, Note_on_c, 5, 45, 0
8, 66960, Note_on_c, 5, 43, 100
8, 67068, Note_on_c, 5, 43, 0
8, 67080, Note_on_c, 5, 42, 100
8, 67188, Note_on_c, 5, 42, 0
8, 67200, Note_on_c, 5, 43, 100
8, 67308, Note_on_c, 5, 43, 0
8, 67320, Note_on_c, 5, 45, 100
8, 67428, Note_on_c, 5, 45, 0
8, 67440, Note_on_c, 5, 47, 100
8, 67548, Note_on_c, 5, 47, 0
8, 67560, Note_on_c, 5, 45, 100
8, 67668, Note_on_c, 5, 45, 0
8, 67680, Note_on_c, 5, 44, 100
8, 67788, Note_on_c, 5, 44, 0
8, 67800, Note_on_c, 5, 40, 100
8, 67908, Note_on_c, 5, 40, 0
8, 67920, Note_on_c, 5, 42, 100
8, 68028, Note_on_c, 5, 42, 0
8, 68040, Note_on_c, 5, 44, 100
8, 68148, Note_on_c, 5, 44, 0
8, 68160, Note_on_c, 5, 45, 100
8, 68268, Note_on_c, 5, 45, 0
8, 68280, Note_on_c, 5, 47, 100
8, 68388, Note_on_c, 5, 47, 0
8, 68400, Note_on_c, 5, 48, 100
8, 68508, Note_on_c, 5, 48, 0
8, 68520, Note_on_c, 5, 47, 100
8, 68628, Note_on_c, 5, 47, 0
8, 68640, Note_on_c, 5, 46, 100
8, 68748, Note_on_c, 5, 46, 0
8, 68760, Note_on_c, 5, 42, 100
8, 68814, Note_on_c, 5, 42, 0
8, 68820, Note_on_c, 5, 44, 100
8, 68874, Note_on_c, 5, 44, 0
8, 68880, Note_on_c, 5, 46, 100
8, 68988, Note_on_c, 5, 46, 0
8, 69000, Note_on_c, 5, 42, 100
8, 69108, Note_on_c, 5, 42, 0
8, 69120, Note_on_c, 5, 47, 100
8, 69228, Note_on_c, 5, 47, 0
8, 69240, Note_on_c, 5, 45, 100
8, 69294, Note_on_c, 5, 45, 0
8, 69300, Note_on_c, 5, 43, 100
8, 69354, Note_on_c, 5, 43, 0
8, 69360, Note_on_c, 5, 45, 100
8, 69468, Note_on_c, 5, 45, 0
8, 69480, Note_on_c, 5, 39, 100
8, 69588, Note_on_c, 5, 39, 0
8, 69600, Note_on_c, 5, 40, 100
8, 69708, Note_on_c, 5, 40, 0
8, 69720, Note_on_c, 5, 33, 100
8, 69828, Note_on_c, 5, 33, 0
8, 69840, Note_on_c, 5, 35, 100
8, 69948, Note_on_c, 5, 35, 0
8, 69960, Note_on_c, 5, 35, 100
8, 70068, Note_on_c, 5, 35, 0
8, 70080, Note_on_c, 5, 28, 100
8, 70188, Note_on_c, 5, 28, 0
8, 70680, Note_on_c, 5, 33, 100
8, 70734, Note_on_c, 5, 33, 0
8, 70740, Note_on_c, 5, 35, 100
8, 70794, Note_on_c, 5, 35, 0
8, 70800, Note_on_c, 5, 36, 100
8, 70854, Note_on_c, 5, 36, 0
8, 70860, Note_on_c, 5, 40, 100
8, 70914, Note_on_c, 5, 40, 0
8, 70920, Note_on_c, 5, 38, 100
8, 70974, Note_on_c, 5, 38, 0
8, 70980, Note_on_c, 5, 35, 100
8, 71034, Note_on_c, 5, 35, 0
8, 71040, Note_on_c, 5, 36, 100
8, 71076, Note_on_c, 5, 36, 0
8, 71080, Note_on_c, 5, 35, 100
8, 71116, Note_on_c, 5, 35, 0
8, 71120, Note_on_c, 5, 33, 100
8, 71156, Note_on_c, 5, 33, 0
8, 71160, Note_on_c, 5, 41, 100
8, 71196, Note_on_c, 5, 41, 0
8, 71200, Note_on_c, 5, 40, 100
8, 71236, Note_on_c, 5, 40, 0
8, 71240, Note_on_c, 5, 38, 100
8, 71276, Note_on_c, 5, 38, 0
8, 71280, Note_on_c, 5, 36, 100
8, 71316, Note_on_c, 5, 36, 0
8, 71320, Note_on_c, 5, 35, 100
8, 71356, Note_on_c, 5, 35, 0
8, 71360, Note_on_c, 5, 33, 100
8, 71396, Note_on_c, 5, 33, 0
8, 71400, Note_on_c, 5, 40, 100
8, 71436, Note_on_c, 5, 40, 0
8, 71440, Note_on_c, 5, 38, 100
8, 71476, Note_on_c, 5, 38, 0
8, 71480, Note_on_c, 5, 40, 100
8, 71516, Note_on_c, 5, 40, 0
8, 71520, Note_on_c, 5, 33, 100
8, 71628, Note_on_c, 5, 33, 0
8, 71640, Note_on_c, 5, 29, 100
8, 71748, Note_on_c, 5, 29, 0
8, 71760, Note_on_c, 5, 24, 100
8, 71868, Note_on_c, 5, 24, 0
8, 71880, Note_on_c, 5, 28, 100
8, 71988, Note_on_c, 5, 28, 0
8, 72000, Note_on_c, 5, 33, 100
8, 72108, Note_on_c, 5, 33, 0
8, 72600, Note_on_c, 5, 40, 100
8, 72681, Note_on_c, 5, 40, 0
8, 72690, Note_on_c, 5, 41, 100
8, 72717, Note_on_c, 5, 41, 0
8, 72720, Note_on_c, 5, 43, 100
8, 72828, Note_on_c, 5, 43, 0
8, 72840, Note_on_c, 5, 31, 100
8, 72948, Note_on_c, 5, 31, 0
8, 72960, Note_on_c, 5, 36, 100
8, 73068, Note_on_c, 5, 36, 0
8, 75480, Note_on_c, 5, 38, 100
8, 75534, Note_on_c, 5, 38, 0
8, 75540, Note_on_c, 5, 40, 100
8, 75594, Note_on_c, 5, 40, 0
8, 75600, Note_on_c, 5, 41, 100
8, 75654, Note_on_c, 5, 41, 0
8, 75660, Note_on_c, 5, 45, 100
8, 75714, Note_on_c, 5, 45, 0
8, 75720, Note_on_c, 5, 43, 100
8, 75774, Note_on_c, 5, 43, 0
8, 75780, Note_on_c, 5, 40, 100
8, 75834, Note_on_c, 5, 40, 0
8, 75840, Note_on_c, 5, 41, 100
8, 75876, Note_on_c, 5, 41, 0
8, 75880, Note_on_c, 5, 40, 100
8, 75916, Note_on_c, 5, 40, 0
8, 75920, Note_on_c, 5, 38, 100
8, 75956, Note_on_c, 5, 38, 0
8, 76200, Note_on_c, 5, 42, 100
8, 76308, Note_on_c, 5, 42, 0
8, 76320, Note_on_c, 5, 43, 100
8, 76428, Note_on_c, 5, 43, 0
8, 76440, Note_on_c, 5, 31, 100
8, 76548, Note_on_c, 5, 31, 0
8, 76680, Note_on_c, 5, 43, 100
8, 76716, Note_on_c, 5, 43, 0
8, 76720, Note_on_c, 5, 45, 100
8, 76756, Note_on_c, 5, 45, 0
8, 76760, Note_on_c, 5, 46, 100
8, 76796, Note_on_c, 5, 46, 0
8, 76800, Note_on_c, 5, 37, 100
8, 76908, Note_on_c, 5, 37, 0
8, 76920, Note_on_c, 5, 40, 100
8, 77028, Note_on_c, 5, 40, 0
8, 77040, Note_on_c, 5, 37, 100
8, 77148, Note_on_c, 5, 37, 0
8, 77160, Note_on_c, 5, 33, 100
8, 77268, Note_on_c, 5, 33, 0
8, 77280, Note_on_c, 5, 38, 100
8, 77388, Note_on_c, 5, 38, 0
8, 77640, Note_on_c, 5, 36, 100
8, 77748, Note_on_c, 5, 36, 0
8, 77760, Note_on_c, 5, 34, 100
8, 77868, Note_on_c, 5, 34, 0
8, 78120, Note_on_c, 5, 38, 100
8, 78228, Note_on_c, 5, 38, 0
8, 78240, Note_on_c, 5, 31, 100
8, 78348, Note_on_c, 5, 31, 0
8, 78360, Note_on_c, 5, 43, 100
8, 78468, Note_on_c, 5, 43, 0
8, 78480, Note_on_c, 5, 43, 100
8, 78588, Note_on_c, 5, 43, 0
8, 78600, Note_on_c, 5, 43, 100
8, 78708, Note_on_c, 5, 43, 0
8, 78720, Note_on_c, 5, 29, 100
8, 78828, Note_on_c, 5, 29, 0
8, 78840, Note_on_c, 5, 41, 100
8, 78948, Note_on_c, 5, 41, 0
8, 78960, Note_on_c, 5, 41, 100
8, 79068, Note_on_c, 5, 41, 0
8, 79080, Note_on_c, 5, 41, 100
8, 79188, Note_on_c, 5, 41, 0
8, 79200, Note_on_c, 5, 28, 100
8, 79308, Note_on_c, 5, 28, 0
8, 79560, Note_on_c, 5, 38, 100
8, 79668, Note_on_c, 5, 38, 0
8, 79680, Note_on_c, 5, 36, 100
8, 79788, Note_on_c, 5, 36, 0
8, 80040, Note_on_c, 5, 40, 100
8, 80148, Note_on_c, 5, 40, 0
8, 80160, Note_on_c, 5, 33, 100
8, 80268, Note_on_c, 5, 33, 0
8, 80280, Note_on_c, 5, 45, 100
8, 80388, Note_on_c, 5, 45, 0
8, 80400, Note_on_c, 5, 45, 100
8, 80508, Note_on_c, 5, 45, 0
8, 80520, Note_on_c, 5, 45, 100
8, 80628, Note_on_c, 5, 45, 0
8, 80640, Note_on_c, 5, 31, 100
8, 80748, Note_on_c, 5, 31, 0
8, 80760, Note_on_c, 5, 43, 100
8, 80868, Note_on_c, 5, 43, 0
8, 80880, Note_on_c, 5, 43, 100
8, 80988, Note_on_c, 5, 43, 0
8, 81000, Note_on_c, 5, 43, 100
8, 81108, Note_on_c, 5, 43, 0
8, 81120, Note_on_c, 5, 29, 100
8, 81228, Note_on_c, 5, 29, 0
8, 81480, Note_on_c, 5, 40, 100
8, 81588, Note_on_c, 5, 40, 0
8, 81600, Note_on_c, 5, 38, 100
8, 81708, Note_on_c, 5, 38, 0
8, 81960, Note_on_c, 5, 33, 100
8, 82068, Note_on_c, 5, 33, 0
8, 82080, Note_on_c, 5, 45, 100
8, 82188, Note_on_c, 5, 45, 0
8, 82440, Note_on_c, 5, 33, 100
8, 82548, Note_on_c, 5, 33, 0
8, 82560, Note_on_c, 5, 45, 100
8, 82668, Note_on_c, 5, 45, 0
8, 82680, Note_on_c, 5, 33, 100
8, 82788, Note_on_c, 5, 33, 0
8, 82800, Note_on_c, 5, 33, 100
8, 82908, Note_on_c, 5, 33, 0
8, 82920, Note_on_c, 5, 33, 100
8, 83028, Note_on_c, 5, 33, 0
8, 83040, Note_on_c, 5, 38, 100
8, 83148, Note_on_c, 5, 38, 0
8, 84600, Note_on_c, 5, 33, 100
8, 84708, Note_on_c, 5, 33, 0
8, 84720, Note_on_c, 5, 33, 100
8, 84828, Note_on_c, 5, 33, 0
8, 84840, Note_on_c, 5, 33, 100
8, 84948, Note_on_c, 5, 33, 0
8, 85080, Note_on_c, 5, 38, 100
8, 85188, Note_on_c, 5, 38, 0
8, 85200, Note_on_c, 5, 38, 100
8, 85308, Note_on_c, 5, 38, 0
8, 85320, Note_on_c, 5, 38, 100
8, 85428, Note_on_c, 5, 38, 0
8, 85560, Note_on_c, 5, 31, 100
8, 85668, Note_on_c, 5, 31, 0
8, 85680, Note_on_c, 5, 31, 100
8, 85788, Note_on_c, 5, 31, 0
8, 85800, Note_on_c, 5, 31, 100
8, 85908, Note_on_c, 5, 31, 0
8, 86040, Note_on_c, 5, 36, 100
8, 86148, Note_on_c, 5, 36, 0
8, 86160, Note_on_c, 5, 36, 100
8, 86268, Note_on_c, 5, 36, 0
8, 86280, Note_on_c, 5, 36, 100
8, 86388, Note_on_c, 5, 36, 0
8, 86400, Note_on_c, 5, 29, 100
8, 86508, Note_on_c, 5, 29, 0
8, 87930, Note_on_c, 5, 50, 100
8, 87957, Note_on_c, 5, 50, 0
8, 87960, Note_on_c, 5, 46, 100
8, 88041, Note_on_c, 5, 46, 0
8, 88050, Note_on_c, 5, 43, 100
8, 88077, Note_on_c, 5, 43, 0
8, 88080, Note_on_c, 5, 45, 100
8, 88188, Note_on_c, 5, 45, 0
8, 88200, Note_on_c, 5, 33, 100
8, 88308, Note_on_c, 5, 33, 0
8, 88320, Note_on_c, 5, 38, 100
8, 88428, Note_on_c, 5, 38, 0
8, 88560, Note_on_c, 5, 36, 100
8, 88668, Note_on_c, 5, 36, 0
8, 88800, Note_on_c, 5, 35, 100
8, 88908, Note_on_c, 5, 35, 0
8, 89040, Note_on_c, 5, 33, 100
8, 89148, Note_on_c, 5, 33, 0
8, 89280, Note_on_c, 5, 32, 100
8, 89388, Note_on_c, 5, 32, 0
8, 89520, Note_on_c, 5, 35, 100
8, 89628, Note_on_c, 5, 35, 0
8, 89760, Note_on_c, 5, 32, 100
8, 89868, Note_on_c, 5, 32, 0
8, 90000, Note_on_c, 5, 28, 100
8, 90108, Note_on_c, 5, 28, 0
8, 90240, Note_on_c, 5, 33, 100
8, 90348, Note_on_c, 5, 33, 0
8, 90840, Note_on_c, 5, 33, 100
8, 90948, Note_on_c, 5, 33, 0
8, 90960, Note_on_c, 5, 33, 100
8, 91068, Note_on_c, 5, 33, 0
8, 91080, Note_on_c, 5, 33, 100
8, 91188, Note_on_c, 5, 33, 0
8, 91200, Note_on_c, 5, 33, 100
8, 91308, Note_on_c, 5, 33, 0
8, 91800, Note_on_c, 5, 33, 100
8, 91908, Note_on_c, 5, 33, 0
8, 91920, Note_on_c, 5, 33, 100
8, 92028, Note_on_c, 5, 33, 0
8, 92040, Note_on_c, 5, 33, 100
8, 92148, Note_on_c, 5, 33, 0
8, 92160, Note_on_c, 5, 33, 100
8, 92268, Note_on_c, 5, 33, 0
8, 92400, Note_on_c, 5, 31, 100
8, 92508, Note_on_c, 5, 31, 0
8, 92640, Note_on_c, 5, 30, 100
8, 92748, Note_on_c, 5, 30, 0
8, 92880, Note_on_c, 5, 28, 100
8, 92988, Note_on_c, 5, 28, 0
8, 93120, Note_on_c, 5, 27, 100
8, 93228, Note_on_c, 5, 27, 0
8, 93360, Note_on_c, 5, 42, 100
8, 93468, Note_on_c, 5, 42, 0
8, 93600, Note_on_c, 5, 39, 100
8, 93708, Note_on_c, 5, 39, 0
8, 93840, Note_on_c, 5, 35, 100
8, 93948, Note_on_c, 5, 35, 0
8, 94080, Note_on_c, 5, 40, 100
8, 94188, Note_on_c, 5, 40, 0
8, 94200, Note_on_c, 5, 28, 100
8, 94308, Note_on_c, 5, 28, 0
8, 94320, Note_on_c, 5, 28, 100
8, 94428, Note_on_c, 5, 28, 0
8, 94440, Note_on_c, 5, 28, 100
8, 94548, Note_on_c, 5, 28, 0
8, 94560, Note_on_c, 5, 28, 100
8, 94668, Note_on_c, 5, 28, 0
8, 94680, Note_on_c, 5, 28, 100
8, 94788, Note_on_c, 5, 28, 0
8, 94800, Note_on_c, 5, 28, 100
8, 94908, Note_on_c, 5, 28, 0
8, 94920, Note_on_c, 5, 28, 100
8, 95028, Note_on_c, 5, 28, 0
8, 95040, Note_on_c, 5, 26, 100
8, 95148, Note_on_c, 5, 26, 0
8, 95160, Note_on_c, 5, 26, 100
8, 95268, Note_on_c, 5, 26, 0
8, 95280, Note_on_c, 5, 26, 100
8, 95388, Note_on_c, 5, 26, 0
8, 95400, Note_on_c, 5, 26, 100
8, 95508, Note_on_c, 5, 26, 0
8, 95520, Note_on_c, 5, 26, 100
8, 95628, Note_on_c, 5, 26, 0
8, 95640, Note_on_c, 5, 26, 100
8, 95748, Note_on_c, 5, 26, 0
8, 95760, Note_on_c, 5, 26, 100
8, 95868, Note_on_c, 5, 26, 0
8, 95880, Note_on_c, 5, 26, 100
8, 95988, Note_on_c, 5, 26, 0
8, 96000, Note_on_c, 5, 24, 100
8, 96108, Note_on_c, 5, 24, 0
8, 96360, Note_on_c, 5, 38, 100
8, 96468, Note_on_c, 5, 38, 0
8, 96480, Note_on_c, 5, 36, 100
8, 96588, Note_on_c, 5, 36, 0
8, 96840, Note_on_c, 5, 40, 100
8, 96948, Note_on_c, 5, 40, 0
8, 96960, Note_on_c, 5, 33, 100
8, 97068, Note_on_c, 5, 33, 0
8, 97320, Note_on_c, 5, 36, 100
8, 97428, Note_on_c, 5, 36, 0
8, 97440, Note_on_c, 5, 35, 100
8, 97548, Note_on_c, 5, 35, 0
8, 97800, Note_on_c, 5, 38, 100
8, 97908, Note_on_c, 5, 38, 0
8, 97920, Note_on_c, 5, 31, 100
8, 98028, Note_on_c, 5, 31, 0
8, 98880, Note_on_c, 5, 37, 100
8, 98988, Note_on_c, 5, 37, 0
8, 99840, Note_on_c, 5, 36, 100
8, 99948, Note_on_c, 5, 36, 0
8, 100800, Note_on_c, 5, 35, 100
8, 101016, Note_on_c, 5, 35, 0
8, 101160, Note_on_c, 5, 40, 100
8, 101268, Note_on_c, 5, 40, 0
8, 101280, Note_on_c, 5, 38, 100
8, 101496, Note_on_c, 5, 38, 0
8, 101640, Note_on_c, 5, 26, 100
8, 101748, Note_on_c, 5, 26, 0
8, 101760, Note_on_c, 5, 38, 100
8, 101976, Note_on_c, 5, 38, 0
8, 102120, Note_on_c, 5, 39, 100
8, 102228, Note_on_c, 5, 39, 0
8, 102240, Note_on_c, 5, 40, 100
8, 102348, Note_on_c, 5, 40, 0
8, 102360, Note_on_c, 5, 36, 100
8, 102468, Note_on_c, 5, 36, 0
8, 102480, Note_on_c, 5, 38, 100
8, 102588, Note_on_c, 5, 38, 0
8, 102600, Note_on_c, 5, 26, 100
8, 102708, Note_on_c, 5, 26, 0
8, 102720, Note_on_c, 5, 31, 100
8, 104544, Note_on_c, 5, 31, 0
8, 104640, Note_on_c, 5, 31, 100
8, 104748, Note_on_c, 5, 31, 0
8, 104760, Note_on_c, 5, 43, 100
8, 104868, Note_on_c, 5, 43, 0
8, 104880, Note_on_c, 5, 43, 100
8, 104988, Note_on_c, 5, 43, 0
8, 105000, Note_on_c, 5, 43, 100
8, 105108, Note_on_c, 5, 43, 0
8, 105240, Note_on_c, 5, 36, 100
8, 105348, Note_on_c, 5, 36, 0
8, 105360, Note_on_c, 5, 36, 100
8, 105468, Note_on_c, 5, 36, 0
8, 105480, Note_on_c, 5, 36, 100
8, 105588, Note_on_c, 5, 36, 0
8, 105720, Note_on_c, 5, 37, 100
8, 105828, Note_on_c, 5, 37, 0
8, 105840, Note_on_c, 5, 37, 100
8, 105948, Note_on_c, 5, 37, 0
8, 105960, Note_on_c, 5, 37, 100
8, 106068, Note_on_c, 5, 37, 0
8, 106200, Note_on_c, 5, 38, 100
8, 106308, Note_on_c, 5, 38, 0
8, 106320, Note_on_c, 5, 38, 100
8, 106428, Note_on_c, 5, 38, 0
8, 106440, Note_on_c, 5, 38, 100
8, 106548, Note_on_c, 5, 38, 0
8, 106680, Note_on_c, 5, 32, 100
8, 106788, Note_on_c, 5, 32, 0
8, 106800, Note_on_c, 5, 32, 100
8, 106908, Note_on_c, 5, 32, 0
8, 106920, Note_on_c, 5, 32, 100
8, 107028, Note_on_c, 5, 32, 0
8, 107040, Note_on_c, 5, 33, 100
8, 107148, Note_on_c, 5, 33, 0
8, 107160, Note_on_c, 5, 41, 100
8, 107268, Note_on_c, 5, 41, 0
8, 107400, Note_on_c, 5, 40, 100
8, 107508, Note_on_c, 5, 40, 0
8, 107640, Note_on_c, 5, 38, 100
8, 107748, Note_on_c, 5, 38, 0
8, 107880, Note_on_c, 5, 36, 100
8, 107988, Note_on_c, 5, 36, 0
8, 108120, Note_on_c, 5, 36, 100
8, 108228, Note_on_c, 5, 36, 0
8, 108240, Note_on_c, 5, 35, 100
8, 108348, Note_on_c, 5, 35, 0
8, 108360, Note_on_c, 5, 33, 100
8, 108468, Note_on_c, 5, 33, 0
8, 108480, Note_on_c, 5, 32, 100
8, 108588, Note_on_c, 5, 32, 0
8, 108600, Note_on_c, 5, 28, 100
8, 108708, Note_on_c, 5, 28, 0
8, 108720, Note_on_c, 5, 48, 100
8, 108828, Note_on_c, 5, 48, 0
8, 108840, Note_on_c, 5, 45, 100
8, 108948, Note_on_c, 5, 45, 0
8, 108960, Note_on_c, 5, 42, 100
8, 109068, Note_on_c, 5, 42, 0
8, 109080, Note_on_c, 5, 39, 100
8, 109188, Note_on_c, 5, 39, 0
8, 109200, Note_on_c, 5, 35, 100
8, 109308, Note_on_c, 5, 35, 0
8, 109320, Note_on_c, 5, 32, 100
8, 109428, Note_on_c, 5, 32, 0
8, 109440, Note_on_c, 5, 28, 100
8, 109548, Note_on_c, 5, 28, 0
8, 114720, Note_on_c, 5, 40, 100
8, 114828, Note_on_c, 5, 40, 0
8, 114960, Note_on_c, 5, 40, 100
8, 115068, Note_on_c, 5, 40, 0
8, 115200, Note_on_c, 5, 40, 100
8, 115308, Note_on_c, 5, 40, 0
8, 115440, Note_on_c, 5, 40, 100
8, 115548, Note_on_c, 5, 40, 0
8, 115680, Note_on_c, 5, 45, 100
8, 115788, Note_on_c, 5, 45, 0
8, 115920, Note_on_c, 5, 45, 100
8, 116028, Note_on_c, 5, 45, 0
8, 116160, Note_on_c, 5, 45, 100
8, 116268, Note_on_c, 5, 45, 0
8, 116400, Note_on_c, 5, 45, 100
8, 116508, Note_on_c, 5, 45, 0
8, 116640, Note_on_c, 5, 43, 100
8, 116748, Note_on_c, 5, 43, 0
8, 116880, Note_on_c, 5, 43, 100
8, 116988, Note_on_c, 5, 43, 0
8, 117120, Note_on_c, 5, 43, 100
8, 117228, Note_on_c, 5, 43, 0
8, 117360, Note_on_c, 5, 43, 100
8, 117468, Note_on_c, 5, 43, 0
8, 117600, Note_on_c, 5, 41, 100
8, 117708, Note_on_c, 5, 41, 0
8, 117840, Note_on_c, 5, 41, 100
8, 117948, Note_on_c, 5, 41, 0
8, 118080, Note_on_c, 5, 41, 100
8, 118188, Note_on_c, 5, 41, 0
8, 118320, Note_on_c, 5, 41, 100
8, 118428, Note_on_c, 5, 41, 0
8, 118560, Note_on_c, 5, 40, 100
8, 118668, Note_on_c, 5, 40, 0
8, 118800, Note_on_c, 5, 40, 100
8, 118908, Note_on_c, 5, 40, 0
8, 119040, Note_on_c, 5, 40, 100
8, 119148, Note_on_c, 5, 40, 0
8, 119280, Note_on_c, 5, 40, 100
8, 119388, Note_on_c, 5, 40, 0
8, 119520, Note_on_c, 5, 28, 100
8, 119628, Note_on_c, 5, 28, 0
8, 119760, Note_on_c, 5, 28, 100
8, 119868, Note_on_c, 5, 28, 0
8, 120000, Note_on_c, 5, 29, 100
8, 120108, Note_on_c, 5, 29, 0
8, 120240, Note_on_c, 5, 29, 100
8, 120348, Note_on_c, 5, 29, 0
8, 120480, Note_on_c, 5, 28, 100
8, 120588, Note_on_c, 5, 28, 0
8, 120720, Note_on_c, 5, 28, 100
8, 120828, Note_on_c, 5, 28, 0
8, 120960, Note_on_c, 5, 27, 100
8, 121068, Note_on_c, 5, 27, 0
8, 121200, Note_on_c, 5, 27, 100
8, 121308, Note_on_c, 5, 27, 0
8, 121440, Note_on_c, 5, 28, 100
8, 121548, Note_on_c, 5, 28, 0
8, 121680, Note_on_c, 5, 28, 100
8, 121788, Note_on_c, 5, 28, 0
8, 122040, Note_on_c, 5, 33, 100
8, 122094, Note_on_c, 5, 33, 0
8, 122100, Note_on_c, 5, 35, 100
8, 122154, Note_on_c, 5, 35, 0
8, 122160, Note_on_c, 5, 36, 100
8, 122214, Note_on_c, 5, 36, 0
8, 122220, Note_on_c, 5, 40, 100
8, 122274, Note_on_c, 5, 40, 0
8, 122280, Note_on_c, 5, 38, 100
8, 122334, Note_on_c, 5, 38, 0
8, 122340, Note_on_c, 5, 35, 100
8, 122394, Note_on_c, 5, 35, 0
8, 122400, Note_on_c, 5, 36, 100
8, 122454, Note_on_c, 5, 36, 0
8, 122460, Note_on_c, 5, 33, 100
8, 122514, Note_on_c, 5, 33, 0
8, 122520, Note_on_c, 5, 36, 100
8, 122574, Note_on_c, 5, 36, 0
8, 122580, Note_on_c, 5, 40, 100
8, 122634, Note_on_c, 5, 40, 0
8, 122640, Note_on_c, 5, 45, 100
8, 122676, Note_on_c, 5, 45, 0
8, 122680, Note_on_c, 5, 47, 100
8, 122716, Note_on_c, 5, 47, 0
8, 122720, Note_on_c, 5, 48, 100
8, 122756, Note_on_c, 5, 48, 0
8, 122760, Note_on_c, 5, 47, 100
8, 122796, Note_on_c, 5, 47, 0
8, 122800, Note_on_c, 5, 45, 100
8, 122836, Note_on_c, 5, 45, 0
8, 122840, Note_on_c, 5, 44, 100
8, 122876, Note_on_c, 5, 44, 0
8, 122880, Note_on_c, 5, 45, 100
8, 122988, Note_on_c, 5, 45, 0
8, 123000, Note_on_c, 5, 33, 100
8, 123108, Note_on_c, 5, 33, 0
8, 123120, Note_on_c, 5, 33, 100
8, 123228, Note_on_c, 5, 33, 0
8, 123240, Note_on_c, 5, 33, 100
8, 123348, Note_on_c, 5, 33, 0
8, 123360, Note_on_c, 5, 33, 100
8, 123468, Note_on_c, 5, 33, 0
8, 123480, Note_on_c, 5, 33, 100
8, 123588, Note_on_c, 5, 33, 0
8, 123600, Note_on_c, 5, 33, 100
8, 123708, Note_on_c, 5, 33, 0
8, 123720, Note_on_c, 5, 33, 100
8, 123828, Note_on_c, 5, 33, 0
8, 123840, Note_on_c, 5, 33, 100
8, 123948, Note_on_c, 5, 33, 0
8, 124440, Note_on_c, 5, 33, 100
8, 124548, Note_on_c, 5, 33, 0
8, 124560, Note_on_c, 5, 45, 100
8, 124668, Note_on_c, 5, 45, 0
8, 124680, Note_on_c, 5, 33, 100
8, 124788, Note_on_c, 5, 33, 0
8, 124800, Note_on_c, 5, 38, 100
8, 124908, Note_on_c, 5, 38, 0
8, 125400, Note_on_c, 5, 31, 100
8, 125508, Note_on_c, 5, 31, 0
8, 125520, Note_on_c, 5, 43, 100
8, 125628, Note_on_c, 5, 43, 0
8, 125640, Note_on_c, 5, 31, 100
8, 125748, Note_on_c, 5, 31, 0
8, 125760, Note_on_c, 5, 36, 100
8, 125868, Note_on_c, 5, 36, 0
8, 125880, Note_on_c, 5, 32, 100
8, 125988, Note_on_c, 5, 32, 0
8, 126000, Note_on_c, 5, 33, 100
8, 126108, Note_on_c, 5, 33, 0
8, 126360, Note_on_c, 5, 37, 100
8, 126468, Note_on_c, 5, 37, 0
8, 126480, Note_on_c, 5, 38, 100
8, 126588, Note_on_c, 5, 38, 0
8, 126600, Note_on_c, 5, 26, 100
8, 126708, Note_on_c, 5, 26, 0
8, 126720, Note_on_c, 5, 28, 100
8, 126828, Note_on_c, 5, 28, 0
8, 127200, Note_on_c, 5, 28, 100
8, 127308, Note_on_c, 5, 28, 0
8, 127680, Note_on_c, 5, 28, 100
8, 127788, Note_on_c, 5, 28, 0
8, 128160, Note_on_c, 5, 28, 100
8, 128268, Note_on_c, 5, 28, 0
8, 128640, Note_on_c, 5, 28, 100
8, 128748, Note_on_c, 5, 28, 0
8, 129000, Note_on_c, 5, 40, 100
8, 129108, Note_on_c, 5, 40, 0
8, 129120, Note_on_c, 5, 35, 100
8, 129228, Note_on_c, 5, 35, 0
8, 129480, Note_on_c, 5, 38, 100
8, 129588, Note_on_c, 5, 38, 0
8, 129600, Note_on_c, 5, 32, 100
8, 129708, Note_on_c, 5, 32, 0
8, 129960, Note_on_c, 5, 35, 100
8, 130068, Note_on_c, 5, 35, 0
8, 130080, Note_on_c, 5, 24, 100
8, 130188, Note_on_c, 5, 24, 0
8, 130200, Note_on_c, 5, 41, 100
8, 130281, Note_on_c, 5, 41, 0
8, 130290, Note_on_c, 5, 38, 100
8, 130317, Note_on_c, 5, 38, 0
8, 130320, Note_on_c, 5, 40, 100
8, 130428, Note_on_c, 5, 40, 0
8, 130440, Note_on_c, 5, 38, 100
8, 130521, Note_on_c, 5, 38, 0
8, 130530, Note_on_c, 5, 35, 100
8, 130557, Note_on_c, 5, 35, 0
8, 130560, Note_on_c, 5, 37, 100
8, 130668, Note_on_c, 5, 37, 0
8, 130920, Note_on_c, 5, 33, 100
8, 131028, Note_on_c, 5, 33, 0
8, 131040, Note_on_c, 5, 38, 100
8, 131148, Note_on_c, 5, 38, 0
8, 131400, Note_on_c, 5, 36, 100
8, 131508, Note_on_c, 5, 36, 0
8, 131520, Note_on_c, 5, 32, 100
8, 131628, Note_on_c, 5, 32, 0
8, 131760, Note_on_c, 5, 41, 100
8, 131868, Note_on_c, 5, 41, 0
8, 132000, Note_on_c, 5, 38, 100
8, 132108, Note_on_c, 5, 38, 0
8, 132240, Note_on_c, 5, 35, 100
8, 132348, Note_on_c, 5, 35, 0
8, 132480, Note_on_c, 5, 32, 100
8, 132588, Note_on_c, 5, 32, 0
8, 132720, Note_on_c, 5, 38, 100
8, 132828, Note_on_c, 5, 38, 0
8, 132960, Note_on_c, 5, 35, 100
8, 133068, Note_on_c, 5, 35, 0
8, 133200, Note_on_c, 5, 32, 100
8, 133308, Note_on_c, 5, 32, 0
8, 133440, Note_on_c, 5, 28, 100
8, 133548, Note_on_c, 5, 28, 0
8, 134400, Note_on_c, 5, 33, 100
8, 134616, Note_on_c, 5, 33, 0
8, 135000, Note_on_c, 5, 45, 100
8, 135108, Note_on_c, 5, 45, 0
8, 135120, Note_on_c, 5, 36, 100
8, 135228, Note_on_c, 5, 36, 0
8, 135240, Note_on_c, 5, 40, 100
8, 135348, Note_on_c, 5, 40, 0
8, 135360, Note_on_c, 5, 33, 100
8, 135576, Note_on_c, 5, 33, 0
8, 135960, Note_on_c, 5, 45, 100
8, 136014, Note_on_c, 5, 45, 0
8, 136020, Note_on_c, 5, 47, 100
8, 136074, Note_on_c, 5, 47, 0
8, 136080, Note_on_c, 5, 48, 100
8, 136134, Note_on_c, 5, 48, 0
8, 136140, Note_on_c, 5, 52, 100
8, 136194, Note_on_c, 5, 52, 0
8, 136200, Note_on_c, 5, 50, 100
8, 136254, Note_on_c, 5, 50, 0
8, 136260, Note_on_c, 5, 47, 100
8, 136314, Note_on_c, 5, 47, 0
8, 136320, Note_on_c, 5, 48, 100
8, 136356, Note_on_c, 5, 48, 0
8, 136360, Note_on_c, 5, 47, 100
8, 136396, Note_on_c, 5, 47, 0
8, 136400, Note_on_c, 5, 45, 100
8, 136436, Note_on_c, 5, 45, 0
8, 136920, Note_on_c, 5, 48, 100
8, 137028, Note_on_c, 5, 48, 0
8, 137040, Note_on_c, 5, 44, 100
8, 137148, Note_on_c, 5, 44, 0
8, 137160, Note_on_c, 5, 45, 100
8, 137268, Note_on_c, 5, 45, 0
8, 137280, Note_on_c, 5, 40, 100
8, 137388, Note_on_c, 5, 40, 0
8, 137880, Note_on_c, 5, 36, 100
8, 137988, Note_on_c, 5, 36, 0
8, 138000, Note_on_c, 5, 32, 100
8, 138108, Note_on_c, 5, 32, 0
8, 138120, Note_on_c, 5, 33, 100
8, 138228, Note_on_c, 5, 33, 0
8, 138240, Note_on_c, 5, 28, 100
8, 138348, Note_on_c, 5, 28, 0
8, 138360, Note_on_c, 5, 52, 100
8, 138441, Note_on_c, 5, 52, 0
8, 138450, Note_on_c, 5, 50, 100
8, 138477, Note_on_c, 5, 50, 0
8, 138480, Note_on_c, 5, 49, 100
8, 138588, Note_on_c, 5, 49, 0
8, 138600, Note_on_c, 5, 45, 100
8, 138708, Note_on_c, 5, 45, 0
8, 138720, Note_on_c, 5, 38, 100
8, 138828, Note_on_c, 5, 38, 0
8, 138840, Note_on_c, 5, 50, 100
8, 138921, Note_on_c, 5, 50, 0
8, 138930, Note_on_c, 5, 48, 100
8, 138957, Note_on_c, 5, 48, 0
8, 138960, Note_on_c, 5, 47, 100
8, 139068, Note_on_c, 5, 47, 0
8, 139080, Note_on_c, 5, 43, 100
8, 139188, Note_on_c, 5, 43, 0
8, 139200, Note_on_c, 5, 48, 100
8, 139236, Note_on_c, 5, 48, 0
8, 139240, Note_on_c, 5, 47, 100
8, 139276, Note_on_c, 5, 47, 0
8, 139280, Note_on_c, 5, 45, 100
8, 139316, Note_on_c, 5, 45, 0
8, 139320, Note_on_c, 5, 45, 100
8, 139356, Note_on_c, 5, 45, 0
8, 139360, Note_on_c, 5, 43, 100
8, 139396, Note_on_c, 5, 43, 0
8, 139400, Note_on_c, 5, 42, 100
8, 139436, Note_on_c, 5, 42, 0
8, 139440, Note_on_c, 5, 42, 100
8, 139476, Note_on_c, 5, 42, 0
8, 139480, Note_on_c, 5, 43, 100
8, 139516, Note_on_c, 5, 43, 0
8, 139520, Note_on_c, 5, 45, 100
8, 139556, Note_on_c, 5, 45, 0
8, 139560, Note_on_c, 5, 45, 100
8, 139596, Note_on_c, 5, 45, 0
8, 139600, Note_on_c, 5, 47, 100
8, 139636, Note_on_c, 5, 47, 0
8, 139640, Note_on_c, 5, 48, 100
8, 139676, Note_on_c, 5, 48, 0
8, 139680, Note_on_c, 5, 47, 100
8, 139716, Note_on_c, 5, 47, 0
8, 139720, Note_on_c, 5, 45, 100
8, 139756, Note_on_c, 5, 45, 0
8, 139760, Note_on_c, 5, 44, 100
8, 139796, Note_on_c, 5, 44, 0
8, 139800, Note_on_c, 5, 44, 100
8, 139836, Note_on_c, 5, 44, 0
8, 139840, Note_on_c, 5, 42, 100
8, 139876, Note_on_c, 5, 42, 0
8, 139880, Note_on_c, 5, 40, 100
8, 139916, Note_on_c, 5, 40, 0
8, 139920, Note_on_c, 5, 40, 100
8, 139956, Note_on_c, 5, 40, 0
8, 139960, Note_on_c, 5, 42, 100
8, 139996, Note_on_c, 5, 42, 0
8, 140000, Note_on_c, 5, 44, 100
8, 140036, Note_on_c, 5, 44, 0
8, 140040, Note_on_c, 5, 44, 100
8, 140076, Note_on_c, 5, 44, 0
8, 140080, Note_on_c, 5, 45, 100
8, 140116, Note_on_c, 5, 45, 0
8, 140120, Note_on_c, 5, 47, 100
8, 140156, Note_on_c, 5, 47, 0
8, 140160, Note_on_c, 5, 45, 100
8, 140268, Note_on_c, 5, 45, 0
8, 140280, Note_on_c, 5, 38, 100
8, 140388, Note_on_c, 5, 38, 0
8, 140400, Note_on_c, 5, 38, 100
8, 140508, Note_on_c, 5, 38, 0
8, 140520, Note_on_c, 5, 38, 100
8, 140628, Note_on_c, 5, 38, 0
8, 140640, Note_on_c, 5, 26, 100
8, 140748, Note_on_c, 5, 26, 0
8, 140760, Note_on_c, 5, 38, 100
8, 140868, Note_on_c, 5, 38, 0
8, 140880, Note_on_c, 5, 36, 100
8, 140988, Note_on_c, 5, 36, 0
8, 141000, Note_on_c, 5, 35, 100
8, 141108, Note_on_c, 5, 35, 0
8, 141120, Note_on_c, 5, 36, 100
8, 141228, Note_on_c, 5, 36, 0
8, 141240, Note_on_c, 5, 38, 100
8, 141348, Note_on_c, 5, 38, 0
8, 141360, Note_on_c, 5, 40, 100
8, 141468, Note_on_c, 5, 40, 0
8, 141480, Note_on_c, 5, 28, 100
8, 141588, Note_on_c, 5, 28, 0
8, 141600, Note_on_c, 5, 29, 100
8, 141708, Note_on_c, 5, 29, 0
8, 141720, Note_on_c, 5, 26, 100
8, 141828, Note_on_c, 5, 26, 0
8, 141840, Note_on_c, 5, 28, 100
8, 141948, Note_on_c, 5, 28, 0
8, 141960, Note_on_c, 5, 28, 100
8, 142068, Note_on_c, 5, 28, 0
8, 142080, Note_on_c, 5, 33, 100
8, 142296, Note_on_c, 5, 33, 0
8, 142296, End_track
9, 0, Start_track
9, 0, Sequence_number, 65535
9, 0, MIDI_port, 0
9, 0, Title_t, "Cembalo rechte Hand"
9, 0, Control_c, 6, 0, 0
9, 0, Control_c, 6, 32, 0
9, 0, Program_c, 6, 6
9, 0, Control_c, 6, 7, 80
9, 0, Control_c, 6, 10, 64
9, 7800, Note_on_c, 6, 57, 100
9, 7854, Note_on_c, 6, 57, 0
9, 7860, Note_on_c, 6, 59, 100
9, 7914, Note_on_c, 6, 59, 0
9, 7920, Note_on_c, 6, 60, 100
9, 7974, Note_on_c, 6, 60, 0
9, 7980, Note_on_c, 6, 64, 100
9, 8034, Note_on_c, 6, 64, 0
9, 8040, Note_on_c, 6, 62, 100
9, 8094, Note_on_c, 6, 62, 0
9, 8100, Note_on_c, 6, 59, 100
9, 8154, Note_on_c, 6, 59, 0
9, 8160, Note_on_c, 6, 60, 100
9, 8196, Note_on_c, 6, 60, 0
9, 8200, Note_on_c, 6, 59, 100
9, 8236, Note_on_c, 6, 59, 0
9, 8240, Note_on_c, 6, 57, 100
9, 8276, Note_on_c, 6, 57, 0
9, 8280, Note_on_c, 6, 64, 100
9, 8280, Note_on_c, 6, 60, 100
9, 8388, Note_on_c, 6, 64, 0
9, 8388, Note_on_c, 6, 60, 0
9, 8400, Note_on_c, 6, 69, 100
9, 8400, Note_on_c, 6, 64, 100
9, 8508, Note_on_c, 6, 69, 0
9, 8508, Note_on_c, 6, 64, 0
9, 8520, Note_on_c, 6, 68, 100
9, 8520, Note_on_c, 6, 64, 100
9, 8628, Note_on_c, 6, 68, 0
9, 8628, Note_on_c, 6, 64, 0
9, 8640, Note_on_c, 6, 69, 100
9, 8694, Note_on_c, 6, 69, 0
9, 8700, Note_on_c, 6, 64, 100
9, 8754, Note_on_c, 6, 64, 0
9, 8760, Note_on_c, 6, 69, 100
9, 8814, Note_on_c, 6, 69, 0
9, 8820, Note_on_c, 6, 71, 100
9, 8874, Note_on_c, 6, 71, 0
9, 8880, Note_on_c, 6, 72, 100
9, 8916, Note_on_c, 6, 72, 0
9, 8920, Note_on_c, 6, 74, 100
9, 8956, Note_on_c, 6, 74, 0
9, 8960, Note_on_c, 6, 76, 100
9, 8996, Note_on_c, 6, 76, 0
9, 9000, Note_on_c, 6, 74, 100
9, 9036, Note_on_c, 6, 74, 0
9, 9040, Note_on_c, 6, 72, 100
9, 9076, Note_on_c, 6, 72, 0
9, 9080, Note_on_c, 6, 71, 100
9, 9116, Note_on_c, 6, 71, 0
9, 9120, Note_on_c, 6, 72, 100
9, 9156, Note_on_c, 6, 72, 0
9, 9160, Note_on_c, 6, 71, 100
9, 9196, Note_on_c, 6, 71, 0
9, 9200, Note_on_c, 6, 69, 100
9, 9236, Note_on_c, 6, 69, 0
9, 9240, Note_on_c, 6, 72, 100
9, 9294, Note_on_c, 6, 72, 0
9, 9300, Note_on_c, 6, 76, 100
9, 9354, Note_on_c, 6, 76, 0
9, 9360, Note_on_c, 6, 81, 100
9, 9396, Note_on_c, 6, 81, 0
9, 9400, Note_on_c, 6, 83, 100
9, 9436, Note_on_c, 6, 83, 0
9, 9440, Note_on_c, 6, 84, 100
9, 9476, Note_on_c, 6, 84, 0
9, 9480, Note_on_c, 6, 83, 100
9, 9516, Note_on_c, 6, 83, 0
9, 9520, Note_on_c, 6, 81, 100
9, 9556, Note_on_c, 6, 81, 0
9, 9560, Note_on_c, 6, 80, 100
9, 9596, Note_on_c, 6, 80, 0
9, 9600, Note_on_c, 6, 81, 100
9, 9636, Note_on_c, 6, 81, 0
9, 9640, Note_on_c, 6, 76, 100
9, 9676, Note_on_c, 6, 76, 0
9, 9680, Note_on_c, 6, 72, 100
9, 9716, Note_on_c, 6, 72, 0
9, 9720, Note_on_c, 6, 69, 100
9, 9756, Note_on_c, 6, 69, 0
9, 9760, Note_on_c, 6, 76, 100
9, 9796, Note_on_c, 6, 76, 0
9, 9800, Note_on_c, 6, 77, 100
9, 9836, Note_on_c, 6, 77, 0
9, 9840, Note_on_c, 6, 79, 100
9, 9876, Note_on_c, 6, 79, 0
9, 9880, Note_on_c, 6, 81, 100
9, 9916, Note_on_c, 6, 81, 0
9, 9920, Note_on_c, 6, 82, 100
9, 9956, Note_on_c, 6, 82, 0
9, 9960, Note_on_c, 6, 82, 100
9, 9996, Note_on_c, 6, 82, 0
9, 10000, Note_on_c, 6, 81, 100
9, 10036, Note_on_c, 6, 81, 0
9, 10040, Note_on_c, 6, 79, 100
9, 10076, Note_on_c, 6, 79, 0
9, 10080, Note_on_c, 6, 77, 100
9, 10116, Note_on_c, 6, 77, 0
9, 10120, Note_on_c, 6, 76, 100
9, 10156, Note_on_c, 6, 76, 0
9, 10160, Note_on_c, 6, 74, 100
9, 10196, Note_on_c, 6, 74, 0
9, 10200, Note_on_c, 6, 74, 100
9, 10236, Note_on_c, 6, 74, 0
9, 10240, Note_on_c, 6, 76, 100
9, 10276, Note_on_c, 6, 76, 0
9, 10280, Note_on_c, 6, 77, 100
9, 10316, Note_on_c, 6, 77, 0
9, 10320, Note_on_c, 6, 77, 100
9, 10356, Note_on_c, 6, 77, 0
9, 10360, Note_on_c, 6, 79, 100
9, 10396, Note_on_c, 6, 79, 0
9, 10400, Note_on_c, 6, 81, 100
9, 10436, Note_on_c, 6, 81, 0
9, 10440, Note_on_c, 6, 81, 100
9, 10476, Note_on_c, 6, 81, 0
9, 10480, Note_on_c, 6, 79, 100
9, 10516, Note_on_c, 6, 79, 0
9, 10520, Note_on_c, 6, 77, 100
9, 10556, Note_on_c, 6, 77, 0
9, 10560, Note_on_c, 6, 76, 100
9, 10596, Note_on_c, 6, 76, 0
9, 10600, Note_on_c, 6, 74, 100
9, 10636, Note_on_c, 6, 74, 0
9, 10640, Note_on_c, 6, 72, 100
9, 10676, Note_on_c, 6, 72, 0
9, 10680, Note_on_c, 6, 81, 100
9, 10716, Note_on_c, 6, 81, 0
9, 10720, Note_on_c, 6, 79, 100
9, 10756, Note_on_c, 6, 79, 0
9, 10760, Note_on_c, 6, 81, 100
9, 10796, Note_on_c, 6, 81, 0
9, 10800, Note_on_c, 6, 71, 100
9, 10836, Note_on_c, 6, 71, 0
9, 10840, Note_on_c, 6, 72, 100
9, 10876, Note_on_c, 6, 72, 0
9, 10880, Note_on_c, 6, 74, 100
9, 10916, Note_on_c, 6, 74, 0
9, 10920, Note_on_c, 6, 79, 100
9, 10956, Note_on_c, 6, 79, 0
9, 10960, Note_on_c, 6, 77, 100
9, 10996, Note_on_c, 6, 77, 0
9, 11000, Note_on_c, 6, 79, 100
9, 11036, Note_on_c, 6, 79, 0
9, 11040, Note_on_c, 6, 69, 100
9, 11076, Note_on_c, 6, 69, 0
9, 11080, Note_on_c, 6, 71, 100
9, 11116, Note_on_c, 6, 71, 0
9, 11120, Note_on_c, 6, 72, 100
9, 11156, Note_on_c, 6, 72, 0
9, 11160, Note_on_c, 6, 77, 100
9, 11196, Note_on_c, 6, 77, 0
9, 11200, Note_on_c, 6, 76, 100
9, 11236, Note_on_c, 6, 76, 0
9, 11240, Note_on_c, 6, 77, 100
9, 11276, Note_on_c, 6, 77, 0
9, 11280, Note_on_c, 6, 68, 100
9, 11316, Note_on_c, 6, 68, 0
9, 11320, Note_on_c, 6, 69, 100
9, 11356, Note_on_c, 6, 69, 0
9, 11360, Note_on_c, 6, 71, 100
9, 11396, Note_on_c, 6, 71, 0
9, 11400, Note_on_c, 6, 76, 100
9, 11436, Note_on_c, 6, 76, 0
9, 11440, Note_on_c, 6, 74, 100
9, 11476, Note_on_c, 6, 74, 0
9, 11480, Note_on_c, 6, 76, 100
9, 11516, Note_on_c, 6, 76, 0
9, 11520, Note_on_c, 6, 66, 100
9, 11556, Note_on_c, 6, 66, 0
9, 11560, Note_on_c, 6, 76, 100
9, 11596, Note_on_c, 6, 76, 0
9, 11600, Note_on_c, 6, 74, 100
9, 11636, Note_on_c, 6, 74, 0
9, 11640, Note_on_c, 6, 68, 100
9, 11676, Note_on_c, 6, 68, 0
9, 11680, Note_on_c, 6, 76, 100
9, 11716, Note_on_c, 6, 76, 0
9, 11720, Note_on_c, 6, 74, 100
9, 11756, Note_on_c, 6, 74, 0
9, 11760, Note_on_c, 6, 69, 100
9, 11796, Note_on_c, 6, 69, 0
9, 11800, Note_on_c, 6, 76, 100
9, 11836, Note_on_c, 6, 76, 0
9, 11840, Note_on_c, 6, 74, 100
9, 11876, Note_on_c, 6, 74, 0
9, 11880, Note_on_c, 6, 71, 100
9, 11916, Note_on_c, 6, 71, 0
9, 11920, Note_on_c, 6, 76, 100
9, 11956, Note_on_c, 6, 76, 0
9, 11960, Note_on_c, 6, 74, 100
9, 11996, Note_on_c, 6, 74, 0
9, 12000, Note_on_c, 6, 72, 100
9, 12036, Note_on_c, 6, 72, 0
9, 12040, Note_on_c, 6, 71, 100
9, 12076, Note_on_c, 6, 71, 0
9, 12080, Note_on_c, 6, 69, 100
9, 12116, Note_on_c, 6, 69, 0
9, 12120, Note_on_c, 6, 77, 100
9, 12156, Note_on_c, 6, 77, 0
9, 12160, Note_on_c, 6, 79, 100
9, 12196, Note_on_c, 6, 79, 0
9, 12200, Note_on_c, 6, 76, 100
9, 12236, Note_on_c, 6, 76, 0
9, 12240, Note_on_c, 6, 76, 100
9, 12348, Note_on_c, 6, 76, 0
9, 12360, Note_on_c, 6, 74, 100
9, 12441, Note_on_c, 6, 74, 0
9, 12450, Note_on_c, 6, 76, 100
9, 12477, Note_on_c, 6, 76, 0
9, 12480, Note_on_c, 6, 76, 100
9, 12588, Note_on_c, 6, 76, 0
9, 14440, Note_on_c, 6, 83, 100
9, 14476, Note_on_c, 6, 83, 0
9, 14480, Note_on_c, 6, 84, 100
9, 14516, Note_on_c, 6, 84, 0
9, 14520, Note_on_c, 6, 86, 100
9, 14556, Note_on_c, 6, 86, 0
9, 14560, Note_on_c, 6, 84, 100
9, 14596, Note_on_c, 6, 84, 0
9, 14600, Note_on_c, 6, 86, 100
9, 14636, Note_on_c, 6, 86, 0
9, 14640, Note_on_c, 6, 76, 100
9, 14676, Note_on_c, 6, 76, 0
9, 14680, Note_on_c, 6, 83, 100
9, 14716, Note_on_c, 6, 83, 0
9, 14720, Note_on_c, 6, 84, 100
9, 14756, Note_on_c, 6, 84, 0
9, 14760, Note_on_c, 6, 86, 100
9, 14796, Note_on_c, 6, 86, 0
9, 14800, Note_on_c, 6, 84, 100
9, 14836, Note_on_c, 6, 84, 0
9, 14840, Note_on_c, 6, 83, 100
9, 14876, Note_on_c, 6, 83, 0
9, 14880, Note_on_c, 6, 84, 100
9, 14988, Note_on_c, 6, 84, 0
9, 15400, Note_on_c, 6, 81, 100
9, 15436, Note_on_c, 6, 81, 0
9, 15440, Note_on_c, 6, 83, 100
9, 15476, Note_on_c, 6, 83, 0
9, 15480, Note_on_c, 6, 84, 100
9, 15516, Note_on_c, 6, 84, 0
9, 15520, Note_on_c, 6, 83, 100
9, 15556, Note_on_c, 6, 83, 0
9, 15560, Note_on_c, 6, 84, 100
9, 15596, Note_on_c, 6, 84, 0
9, 15600, Note_on_c, 6, 74, 100
9, 15636, Note_on_c, 6, 74, 0
9, 15640, Note_on_c, 6, 81, 100
9, 15676, Note_on_c, 6, 81, 0
9, 15680, Note_on_c, 6, 83, 100
9, 15716, Note_on_c, 6, 83, 0
9, 15720, Note_on_c, 6, 84, 100
9, 15756, Note_on_c, 6, 84, 0
9, 15760, Note_on_c, 6, 83, 100
9, 15796, Note_on_c, 6, 83, 0
9, 15800, Note_on_c, 6, 81, 100
9, 15836, Note_on_c, 6, 81, 0
9, 15840, Note_on_c, 6, 83, 100
9, 15948, Note_on_c, 6, 83, 0
9, 16200, Note_on_c, 6, 86, 100
9, 16236, Note_on_c, 6, 86, 0
9, 16240, Note_on_c, 6, 84, 100
9, 16276, Note_on_c, 6, 84, 0
9, 16280, Note_on_c, 6, 83, 100
9, 16316, Note_on_c, 6, 83, 0
9, 16320, Note_on_c, 6, 84, 100
9, 16428, Note_on_c, 6, 84, 0
9, 17400, Note_on_c, 6, 84, 100
9, 17436, Note_on_c, 6, 84, 0
9, 17440, Note_on_c, 6, 83, 100
9, 17476, Note_on_c, 6, 83, 0
9, 17480, Note_on_c, 6, 81, 100
9, 17516, Note_on_c, 6, 81, 0
9, 17520, Note_on_c, 6, 79, 100
9, 17556, Note_on_c, 6, 79, 0
9, 17560, Note_on_c, 6, 78, 100
9, 17596, Note_on_c, 6, 78, 0
9, 17600, Note_on_c, 6, 76, 100
9, 17636, Note_on_c, 6, 76, 0
9, 17640, Note_on_c, 6, 75, 100
9, 17676, Note_on_c, 6, 75, 0
9, 17680, Note_on_c, 6, 76, 100
9, 17716, Note_on_c, 6, 76, 0
9, 17720, Note_on_c, 6, 78, 100
9, 17756, Note_on_c, 6, 78, 0
9, 17760, Note_on_c, 6, 71, 100
9, 17922, Note_on_c, 6, 71, 0
9, 17940, Note_on_c, 6, 73, 100
9, 17967, Note_on_c, 6, 73, 0
9, 17970, Note_on_c, 6, 75, 100
9, 17997, Note_on_c, 6, 75, 0
9, 18000, Note_on_c, 6, 76, 100
9, 18036, Note_on_c, 6, 76, 0
9, 18040, Note_on_c, 6, 78, 100
9, 18076, Note_on_c, 6, 78, 0
9, 18080, Note_on_c, 6, 79, 100
9, 18116, Note_on_c, 6, 79, 0
9, 18120, Note_on_c, 6, 81, 100
9, 18156, Note_on_c, 6, 81, 0
9, 18160, Note_on_c, 6, 83, 100
9, 18196, Note_on_c, 6, 83, 0
9, 18200, Note_on_c, 6, 84, 100
9, 18236, Note_on_c, 6, 84, 0
9, 18240, Note_on_c, 6, 83, 100
9, 18276, Note_on_c, 6, 83, 0
9, 18280, Note_on_c, 6, 81, 100
9, 18316, Note_on_c, 6, 81, 0
9, 18320, Note_on_c, 6, 79, 100
9, 18356, Note_on_c, 6, 79, 0
9, 18360, Note_on_c, 6, 78, 100
9, 18396, Note_on_c, 6, 78, 0
9, 18400, Note_on_c, 6, 79, 100
9, 18436, Note_on_c, 6, 79, 0
9, 18440, Note_on_c, 6, 76, 100
9, 18476, Note_on_c, 6, 76, 0
9, 18480, Note_on_c, 6, 71, 100
9, 18561, Note_on_c, 6, 71, 0
9, 18570, Note_on_c, 6, 76, 100
9, 18597, Note_on_c, 6, 76, 0
9, 18600, Note_on_c, 6, 78, 100
9, 18681, Note_on_c, 6, 78, 0
9, 18690, Note_on_c, 6, 75, 100
9, 18717, Note_on_c, 6, 75, 0
9, 18720, Note_on_c, 6, 76, 100
9, 18828, Note_on_c, 6, 76, 0
9, 19320, Note_on_c, 6, 64, 100
9, 19374, Note_on_c, 6, 64, 0
9, 19380, Note_on_c, 6, 66, 100
9, 19434, Note_on_c, 6, 66, 0
9, 19440, Note_on_c, 6, 67, 100
9, 19494, Note_on_c, 6, 67, 0
9, 19500, Note_on_c, 6, 71, 100
9, 19554, Note_on_c, 6, 71, 0
9, 19560, Note_on_c, 6, 69, 100
9, 19614, Note_on_c, 6, 69, 0
9, 19620, Note_on_c, 6, 66, 100
9, 19674, Note_on_c, 6, 66, 0
9, 19680, Note_on_c, 6, 67, 100
9, 19716, Note_on_c, 6, 67, 0
9, 19720, Note_on_c, 6, 66, 100
9, 19756, Note_on_c, 6, 66, 0
9, 19760, Note_on_c, 6, 64, 100
9, 19796, Note_on_c, 6, 64, 0
9, 19800, Note_on_c, 6, 71, 100
9, 19800, Note_on_c, 6, 64, 100
9, 19908, Note_on_c, 6, 71, 0
9, 19908, Note_on_c, 6, 64, 0
9, 19920, Note_on_c, 6, 71, 100
9, 19920, Note_on_c, 6, 76, 100
9, 19920, Note_on_c, 6, 64, 100
9, 20028, Note_on_c, 6, 71, 0
9, 20028, Note_on_c, 6, 76, 0
9, 20028, Note_on_c, 6, 64, 0
9, 20040, Note_on_c, 6, 71, 100
9, 20040, Note_on_c, 6, 75, 100
9, 20040, Note_on_c, 6, 64, 100
9, 20148, Note_on_c, 6, 71, 0
9, 20148, Note_on_c, 6, 75, 0
9, 20148, Note_on_c, 6, 64, 0
9, 20160, Note_on_c, 6, 76, 100
9, 20214, Note_on_c, 6, 76, 0
9, 20220, Note_on_c, 6, 71, 100
9, 20274, Note_on_c, 6, 71, 0
9, 20280, Note_on_c, 6, 76, 100
9, 20334, Note_on_c, 6, 76, 0
9, 20340, Note_on_c, 6, 78, 100
9, 20394, Note_on_c, 6, 78, 0
9, 20400, Note_on_c, 6, 79, 100
9, 20436, Note_on_c, 6, 79, 0
9, 20440, Note_on_c, 6, 81, 100
9, 20476, Note_on_c, 6, 81, 0
9, 20480, Note_on_c, 6, 83, 100
9, 20516, Note_on_c, 6, 83, 0
9, 20520, Note_on_c, 6, 81, 100
9, 20556, Note_on_c, 6, 81, 0
9, 20560, Note_on_c, 6, 79, 100
9, 20596, Note_on_c, 6, 79, 0
9, 20600, Note_on_c, 6, 78, 100
9, 20636, Note_on_c, 6, 78, 0
9, 20640, Note_on_c, 6, 79, 100
9, 20676, Note_on_c, 6, 79, 0
9, 20680, Note_on_c, 6, 78, 100
9, 20716, Note_on_c, 6, 78, 0
9, 20720, Note_on_c, 6, 76, 100
9, 20756, Note_on_c, 6, 76, 0
9, 20760, Note_on_c, 6, 83, 100
9, 20868, Note_on_c, 6, 83, 0
9, 20880, Note_on_c, 6, 83, 100
9, 21282, Note_on_c, 6, 83, 0
9, 21300, Note_on_c, 6, 81, 100
9, 21318, Note_on_c, 6, 81, 0
9, 21320, Note_on_c, 6, 80, 100
9, 21338, Note_on_c, 6, 80, 0
9, 21340, Note_on_c, 6, 78, 100
9, 21358, Note_on_c, 6, 78, 0
9, 21360, Note_on_c, 6, 80, 100
9, 21522, Note_on_c, 6, 80, 0
9, 21540, Note_on_c, 6, 78, 100
9, 21567, Note_on_c, 6, 78, 0
9, 21570, Note_on_c, 6, 80, 100
9, 21597, Note_on_c, 6, 80, 0
9, 21600, Note_on_c, 6, 81, 100
9, 21762, Note_on_c, 6, 81, 0
9, 21780, Note_on_c, 6, 79, 100
9, 21798, Note_on_c, 6, 79, 0
9, 21800, Note_on_c, 6, 78, 100
9, 21818, Note_on_c, 6, 78, 0
9, 21820, Note_on_c, 6, 76, 100
9, 21838, Note_on_c, 6, 76, 0
9, 21840, Note_on_c, 6, 78, 100
9, 22002, Note_on_c, 6, 78, 0
9, 22020, Note_on_c, 6, 76, 100
9, 22047, Note_on_c, 6, 76, 0
9, 22050, Note_on_c, 6, 78, 100
9, 22077, Note_on_c, 6, 78, 0
9, 22080, Note_on_c, 6, 79, 100
9, 22188, Note_on_c, 6, 79, 0
9, 22200, Note_on_c, 6, 72, 100
9, 22236, Note_on_c, 6, 72, 0
9, 22240, Note_on_c, 6, 71, 100
9, 22276, Note_on_c, 6, 71, 0
9, 22280, Note_on_c, 6, 72, 100
9, 22316, Note_on_c, 6, 72, 0
9, 22320, Note_on_c, 6, 81, 100
9, 22428, Note_on_c, 6, 81, 0
9, 22440, Note_on_c, 6, 71, 100
9, 22476, Note_on_c, 6, 71, 0
9, 22480, Note_on_c, 6, 69, 100
9, 22516, Note_on_c, 6, 69, 0
9, 22520, Note_on_c, 6, 71, 100
9, 22556, Note_on_c, 6, 71, 0
9, 22560, Note_on_c, 6, 79, 100
9, 22668, Note_on_c, 6, 79, 0
9, 22680, Note_on_c, 6, 69, 100
9, 22716, Note_on_c, 6, 69, 0
9, 22720, Note_on_c, 6, 67, 100
9, 22756, Note_on_c, 6, 67, 0
9, 22760, Note_on_c, 6, 69, 100
9, 22796, Note_on_c, 6, 69, 0
9, 22800, Note_on_c, 6, 78, 100
9, 22908, Note_on_c, 6, 78, 0
9, 22920, Note_on_c, 6, 67, 100
9, 22956, Note_on_c, 6, 67, 0
9, 22960, Note_on_c, 6, 66, 100
9, 22996, Note_on_c, 6, 66, 0
9, 23000, Note_on_c, 6, 67, 100
9, 23036, Note_on_c, 6, 67, 0
9, 23040, Note_on_c, 6, 76, 100
9, 23076, Note_on_c, 6, 76, 0
9, 23080, Note_on_c, 6, 75, 100
9, 23116, Note_on_c, 6, 75, 0
9, 23120, Note_on_c, 6, 73, 100
9, 23156, Note_on_c, 6, 73, 0
9, 23160, Note_on_c, 6, 78, 100
9, 23196, Note_on_c, 6, 78, 0
9, 23200, Note_on_c, 6, 75, 100
9, 23236, Note_on_c, 6, 75, 0
9, 23240, Note_on_c, 6, 71, 100
9, 23276, Note_on_c, 6, 71, 0
9, 23280, Note_on_c, 6, 79, 100
9, 23316, Note_on_c, 6, 79, 0
9, 23320, Note_on_c, 6, 76, 100
9, 23356, Note_on_c, 6, 76, 0
9, 23360, Note_on_c, 6, 73, 100
9, 23396, Note_on_c, 6, 73, 0
9, 23400, Note_on_c, 6, 81, 100
9, 23436, Note_on_c, 6, 81, 0
9, 23440, Note_on_c, 6, 78, 100
9, 23476, Note_on_c, 6, 78, 0
9, 23480, Note_on_c, 6, 75, 100
9, 23516, Note_on_c, 6, 75, 0
9, 23520, Note_on_c, 6, 83, 100
9, 23556, Note_on_c, 6, 83, 0
9, 23560, Note_on_c, 6, 81, 100
9, 23596, Note_on_c, 6, 81, 0
9, 23600, Note_on_c, 6, 79, 100
9, 23636, Note_on_c, 6, 79, 0
9, 23640, Note_on_c, 6, 84, 100
9, 23676, Note_on_c, 6, 84, 0
9, 23680, Note_on_c, 6, 83, 100
9, 23716, Note_on_c, 6, 83, 0
9, 23720, Note_on_c, 6, 81, 100
9, 23756, Note_on_c, 6, 81, 0
9, 23760, Note_on_c, 6, 79, 100
9, 23796, Note_on_c, 6, 79, 0
9, 23800, Note_on_c, 6, 78, 100
9, 23836, Note_on_c, 6, 78, 0
9, 23840, Note_on_c, 6, 76, 100
9, 23876, Note_on_c, 6, 76, 0
9, 23880, Note_on_c, 6, 75, 100
9, 23916, Note_on_c, 6, 75, 0
9, 23920, Note_on_c, 6, 78, 100
9, 23956, Note_on_c, 6, 78, 0
9, 23960, Note_on_c, 6, 81, 100
9, 23996, Note_on_c, 6, 81, 0
9, 24000, Note_on_c, 6, 79, 100
9, 24036, Note_on_c, 6, 79, 0
9, 24040, Note_on_c, 6, 83, 100
9, 24076, Note_on_c, 6, 83, 0
9, 24080, Note_on_c, 6, 81, 100
9, 24116, Note_on_c, 6, 81, 0
9, 24120, Note_on_c, 6, 79, 100
9, 24156, Note_on_c, 6, 79, 0
9, 24160, Note_on_c, 6, 81, 100
9, 24196, Note_on_c, 6, 81, 0
9, 24200, Note_on_c, 6, 83, 100
9, 24236, Note_on_c, 6, 83, 0
9, 24240, Note_on_c, 6, 76, 100
9, 24276, Note_on_c, 6, 76, 0
9, 24280, Note_on_c, 6, 77, 100
9, 24316, Note_on_c, 6, 77, 0
9, 24320, Note_on_c, 6, 79, 100
9, 24356, Note_on_c, 6, 79, 0
9, 24360, Note_on_c, 6, 73, 100
9, 24396, Note_on_c, 6, 73, 0
9, 24400, Note_on_c, 6, 74, 100
9, 24436, Note_on_c, 6, 74, 0
9, 24440, Note_on_c, 6, 76, 100
9, 24476, Note_on_c, 6, 76, 0
9, 24480, Note_on_c, 6, 69, 100
9, 24516, Note_on_c, 6, 69, 0
9, 24520, Note_on_c, 6, 71, 100
9, 24556, Note_on_c, 6, 71, 0
9, 24560, Note_on_c, 6, 73, 100
9, 24596, Note_on_c, 6, 73, 0
9, 24600, Note_on_c, 6, 73, 100
9, 24636, Note_on_c, 6, 73, 0
9, 24640, Note_on_c, 6, 74, 100
9, 24676, Note_on_c, 6, 74, 0
9, 24680, Note_on_c, 6, 76, 100
9, 24716, Note_on_c, 6, 76, 0
9, 24720, Note_on_c, 6, 76, 100
9, 24756, Note_on_c, 6, 76, 0
9, 24760, Note_on_c, 6, 77, 100
9, 24796, Note_on_c, 6, 77, 0
9, 24800, Note_on_c, 6, 79, 100
9, 24836, Note_on_c, 6, 79, 0
9, 24840, Note_on_c, 6, 82, 100
9, 24876, Note_on_c, 6, 82, 0
9, 24880, Note_on_c, 6, 81, 100
9, 24916, Note_on_c, 6, 81, 0
9, 24920, Note_on_c, 6, 79, 100
9, 24956, Note_on_c, 6, 79, 0
9, 24960, Note_on_c, 6, 77, 100
9, 24996, Note_on_c, 6, 77, 0
9, 25000, Note_on_c, 6, 81, 100
9, 25036, Note_on_c, 6, 81, 0
9, 25040, Note_on_c, 6, 79, 100
9, 25076, Note_on_c, 6, 79, 0
9, 25080, Note_on_c, 6, 77, 100
9, 25116, Note_on_c, 6, 77, 0
9, 25120, Note_on_c, 6, 79, 100
9, 25156, Note_on_c, 6, 79, 0
9, 25160, Note_on_c, 6, 81, 100
9, 25196, Note_on_c, 6, 81, 0
9, 25200, Note_on_c, 6, 74, 100
9, 25236, Note_on_c, 6, 74, 0
9, 25240, Note_on_c, 6, 76, 100
9, 25276, Note_on_c, 6, 76, 0
9, 25280, Note_on_c, 6, 77, 100
9, 25316, Note_on_c, 6, 77, 0
9, 25320, Note_on_c, 6, 71, 100
9, 25356, Note_on_c, 6, 71, 0
9, 25360, Note_on_c, 6, 72, 100
9, 25396, Note_on_c, 6, 72, 0
9, 25400, Note_on_c, 6, 74, 100
9, 25436, Note_on_c, 6, 74, 0
9, 25440, Note_on_c, 6, 67, 100
9, 25476, Note_on_c, 6, 67, 0
9, 25480, Note_on_c, 6, 69, 100
9, 25516, Note_on_c, 6, 69, 0
9, 25520, Note_on_c, 6, 71, 100
9, 25556, Note_on_c, 6, 71, 0
9, 25560, Note_on_c, 6, 71, 100
9, 25596, Note_on_c, 6, 71, 0
9, 25600, Note_on_c, 6, 72, 100
9, 25636, Note_on_c, 6, 72, 0
9, 25640, Note_on_c, 6, 74, 100
9, 25676, Note_on_c, 6, 74, 0
9, 25680, Note_on_c, 6, 74, 100
9, 25716, Note_on_c, 6, 74, 0
9, 25720, Note_on_c, 6, 76, 100
9, 25756, Note_on_c, 6, 76, 0
9, 25760, Note_on_c, 6, 77, 100
9, 25796, Note_on_c, 6, 77, 0
9, 25800, Note_on_c, 6, 81, 100
9, 25836, Note_on_c, 6, 81, 0
9, 25840, Note_on_c, 6, 79, 100
9, 25876, Note_on_c, 6, 79, 0
9, 25880, Note_on_c, 6, 77, 100
9, 25916, Note_on_c, 6, 77, 0
9, 25920, Note_on_c, 6, 76, 100
9, 25956, Note_on_c, 6, 76, 0
9, 25960, Note_on_c, 6, 67, 100
9, 25996, Note_on_c, 6, 67, 0
9, 26000, Note_on_c, 6, 69, 100
9, 26036, Note_on_c, 6, 69, 0
9, 26040, Note_on_c, 6, 71, 100
9, 26076, Note_on_c, 6, 71, 0
9, 26080, Note_on_c, 6, 72, 100
9, 26116, Note_on_c, 6, 72, 0
9, 26120, Note_on_c, 6, 74, 100
9, 26156, Note_on_c, 6, 74, 0
9, 26160, Note_on_c, 6, 76, 100
9, 26196, Note_on_c, 6, 76, 0
9, 26200, Note_on_c, 6, 77, 100
9, 26236, Note_on_c, 6, 77, 0
9, 26240, Note_on_c, 6, 79, 100
9, 26276, Note_on_c, 6, 79, 0
9, 26280, Note_on_c, 6, 77, 100
9, 26316, Note_on_c, 6, 77, 0
9, 26320, Note_on_c, 6, 76, 100
9, 26356, Note_on_c, 6, 76, 0
9, 26360, Note_on_c, 6, 74, 100
9, 26396, Note_on_c, 6, 74, 0
9, 26400, Note_on_c, 6, 76, 100
9, 26436, Note_on_c, 6, 76, 0
9, 26440, Note_on_c, 6, 74, 100
9, 26476, Note_on_c, 6, 74, 0
9, 26480, Note_on_c, 6, 72, 100
9, 26516, Note_on_c, 6, 72, 0
9, 26520, Note_on_c, 6, 74, 100
9, 26556, Note_on_c, 6, 74, 0
9, 26560, Note_on_c, 6, 76, 100
9, 26596, Note_on_c, 6, 76, 0
9, 26600, Note_on_c, 6, 77, 100
9, 26636, Note_on_c, 6, 77, 0
9, 26640, Note_on_c, 6, 76, 100
9, 26676, Note_on_c, 6, 76, 0
9, 26680, Note_on_c, 6, 74, 100
9, 26716, Note_on_c, 6, 74, 0
9, 26720, Note_on_c, 6, 72, 100
9, 26756, Note_on_c, 6, 72, 0
9, 26760, Note_on_c, 6, 74, 100
9, 26796, Note_on_c, 6, 74, 0
9, 26800, Note_on_c, 6, 72, 100
9, 26836, Note_on_c, 6, 72, 0
9, 26840, Note_on_c, 6, 71, 100
9, 26876, Note_on_c, 6, 71, 0
9, 26880, Note_on_c, 6, 72, 100
9, 26916, Note_on_c, 6, 72, 0
9, 26920, Note_on_c, 6, 74, 100
9, 26956, Note_on_c, 6, 74, 0
9, 26960, Note_on_c, 6, 76, 100
9, 26996, Note_on_c, 6, 76, 0
9, 27000, Note_on_c, 6, 74, 100
9, 27036, Note_on_c, 6, 74, 0
9, 27040, Note_on_c, 6, 72, 100
9, 27076, Note_on_c, 6, 72, 0
9, 27080, Note_on_c, 6, 71, 100
9, 27116, Note_on_c, 6, 71, 0
9, 27120, Note_on_c, 6, 72, 100
9, 27156, Note_on_c, 6, 72, 0
9, 27160, Note_on_c, 6, 71, 100
9, 27196, Note_on_c, 6, 71, 0
9, 27200, Note_on_c, 6, 69, 100
9, 27236, Note_on_c, 6, 69, 0
9, 27240, Note_on_c, 6, 71, 100
9, 27276, Note_on_c, 6, 71, 0
9, 27280, Note_on_c, 6, 72, 100
9, 27316, Note_on_c, 6, 72, 0
9, 27320, Note_on_c, 6, 74, 100
9, 27356, Note_on_c, 6, 74, 0
9, 27360, Note_on_c, 6, 72, 100
9, 27396, Note_on_c, 6, 72, 0
9, 27400, Note_on_c, 6, 71, 100
9, 27436, Note_on_c, 6, 71, 0
9, 27440, Note_on_c, 6, 69, 100
9, 27476, Note_on_c, 6, 69, 0
9, 27480, Note_on_c, 6, 71, 100
9, 27516, Note_on_c, 6, 71, 0
9, 27520, Note_on_c, 6, 69, 100
9, 27556, Note_on_c, 6, 69, 0
9, 27560, Note_on_c, 6, 68, 100
9, 27596, Note_on_c, 6, 68, 0
9, 27600, Note_on_c, 6, 69, 100
9, 27636, Note_on_c, 6, 69, 0
9, 27640, Note_on_c, 6, 68, 100
9, 27676, Note_on_c, 6, 68, 0
9, 27680, Note_on_c, 6, 66, 100
9, 27716, Note_on_c, 6, 66, 0
9, 27720, Note_on_c, 6, 74, 100
9, 27801, Note_on_c, 6, 74, 0
9, 27810, Note_on_c, 6, 74, 100
9, 27837, Note_on_c, 6, 74, 0
9, 27840, Note_on_c, 6, 68, 100
9, 27840, Note_on_c, 6, 71, 100
9, 27840, Note_on_c, 6, 74, 100
9, 27840, Note_on_c, 6, 64, 100
9, 27948, Note_on_c, 6, 68, 0
9, 27948, Note_on_c, 6, 71, 0
9, 27948, Note_on_c, 6, 74, 0
9, 27948, Note_on_c, 6, 64, 0
9, 28200, Note_on_c, 6, 65, 100
9, 28200, Note_on_c, 6, 71, 100
9, 28200, Note_on_c, 6, 74, 100
9, 28200, Note_on_c, 6, 62, 100
9, 28281, Note_on_c, 6, 65, 0
9, 28281, Note_on_c, 6, 71, 0
9, 28281, Note_on_c, 6, 74, 0
9, 28281, Note_on_c, 6, 62, 0
9, 28290, Note_on_c, 6, 65, 100
9, 28290, Note_on_c, 6, 71, 100
9, 28290, Note_on_c, 6, 74, 100
9, 28290, Note_on_c, 6, 62, 100
9, 28317, Note_on_c, 6, 65, 0
9, 28317, Note_on_c, 6, 71, 0
9, 28317, Note_on_c, 6, 74, 0
9, 28317, Note_on_c, 6, 62, 0
9, 28320, Note_on_c, 6, 68, 100
9, 28320, Note_on_c, 6, 71, 100
9, 28320, Note_on_c, 6, 74, 100
9, 28320, Note_on_c, 6, 64, 100
9, 28428, Note_on_c, 6, 68, 0
9, 28428, Note_on_c, 6, 71, 0
9, 28428, Note_on_c, 6, 74, 0
9, 28428, Note_on_c, 6, 64, 0
9, 28680, Note_on_c, 6, 65, 100
9, 28680, Note_on_c, 6, 71, 100
9, 28680, Note_on_c, 6, 74, 100
9, 28680, Note_on_c, 6, 62, 100
9, 28761, Note_on_c, 6, 65, 0
9, 28761, Note_on_c, 6, 71, 0
9, 28761, Note_on_c, 6, 74, 0
9, 28761, Note_on_c, 6, 62, 0
9, 28770, Note_on_c, 6, 71, 100
9, 28770, Note_on_c, 6, 74, 100
9, 28770, Note_on_c, 6, 62, 100
9, 28797, Note_on_c, 6, 71, 0
9, 28797, Note_on_c, 6, 74, 0
9, 28797, Note_on_c, 6, 62, 0
9, 28800, Note_on_c, 6, 71, 100
9, 28800, Note_on_c, 6, 74, 100
9, 28800, Note_on_c, 6, 64, 100
9, 28836, Note_on_c, 6, 71, 0
9, 28836, Note_on_c, 6, 74, 0
9, 28836, Note_on_c, 6, 64, 0
9, 28840, Note_on_c, 6, 66, 100
9, 28876, Note_on_c, 6, 66, 0
9, 28880, Note_on_c, 6, 68, 100
9, 28916, Note_on_c, 6, 68, 0
9, 28920, Note_on_c, 6, 68, 100
9, 28956, Note_on_c, 6, 68, 0
9, 28960, Note_on_c, 6, 69, 100
9, 28996, Note_on_c, 6, 69, 0
9, 29000, Note_on_c, 6, 71, 100
9, 29036, Note_on_c, 6, 71, 0
9, 29040, Note_on_c, 6, 71, 100
9, 29076, Note_on_c, 6, 71, 0
9, 29080, Note_on_c, 6, 72, 100
9, 29116, Note_on_c, 6, 72, 0
9, 29120, Note_on_c, 6, 74, 100
9, 29156, Note_on_c, 6, 74, 0
9, 29160, Note_on_c, 6, 74, 100
9, 29196, Note_on_c, 6, 74, 0
9, 29200, Note_on_c, 6, 76, 100
9, 29236, Note_on_c, 6, 76, 0
9, 29240, Note_on_c, 6, 77, 100
9, 29276, Note_on_c, 6, 77, 0
9, 29280, Note_on_c, 6, 77, 100
9, 29316, Note_on_c, 6, 77, 0
9, 29320, Note_on_c, 6, 76, 100
9, 29356, Note_on_c, 6, 76, 0
9, 29360, Note_on_c, 6, 74, 100
9, 29396, Note_on_c, 6, 74, 0
9, 29400, Note_on_c, 6, 76, 100
9, 29436, Note_on_c, 6, 76, 0
9, 29440, Note_on_c, 6, 80, 100
9, 29476, Note_on_c, 6, 80, 0
9, 29480, Note_on_c, 6, 81, 100
9, 29516, Note_on_c, 6, 81, 0
9, 29520, Note_on_c, 6, 76, 100
9, 29556, Note_on_c, 6, 76, 0
9, 29560, Note_on_c, 6, 74, 100
9, 29596, Note_on_c, 6, 74, 0
9, 29600, Note_on_c, 6, 72, 100
9, 29636, Note_on_c, 6, 72, 0
9, 29640, Note_on_c, 6, 74, 100
9, 29676, Note_on_c, 6, 74, 0
9, 29680, Note_on_c, 6, 72, 100
9, 29716, Note_on_c, 6, 72, 0
9, 29720, Note_on_c, 6, 71, 100
9, 29756, Note_on_c, 6, 71, 0
9, 29760, Note_on_c, 6, 69, 100
9, 29796, Note_on_c, 6, 69, 0
9, 29800, Note_on_c, 6, 71, 100
9, 29836, Note_on_c, 6, 71, 0
9, 29840, Note_on_c, 6, 72, 100
9, 29876, Note_on_c, 6, 72, 0
9, 29880, Note_on_c, 6, 71, 100
9, 29916, Note_on_c, 6, 71, 0
9, 29920, Note_on_c, 6, 69, 100
9, 29956, Note_on_c, 6, 69, 0
9, 29960, Note_on_c, 6, 68, 100
9, 29996, Note_on_c, 6, 68, 0
9, 30000, Note_on_c, 6, 69, 100
9, 30040, Note_on_c, 6, 67, 100
9, 30076, Note_on_c, 6, 67, 0
9, 30080, Note_on_c, 6, 65, 100
9, 30116, Note_on_c, 6, 65, 0
9, 30120, Note_on_c, 6, 67, 100
9, 30156, Note_on_c, 6, 67, 0
9, 30160, Note_on_c, 6, 65, 100
9, 30196, Note_on_c, 6, 65, 0
9, 30200, Note_on_c, 6, 64, 100
9, 30236, Note_on_c, 6, 64, 0
9, 30240, Note_on_c, 6, 65, 100
9, 30276, Note_on_c, 6, 65, 0
9, 30280, Note_on_c, 6, 67, 100
9, 30316, Note_on_c, 6, 67, 0
9, 30320, Note_on_c, 6, 69, 100
9, 30356, Note_on_c, 6, 69, 0
9, 30356, Note_on_c, 6, 69, 0
9, 30360, Note_on_c, 6, 67, 100
9, 30396, Note_on_c, 6, 67, 0
9, 30400, Note_on_c, 6, 65, 100
9, 30436, Note_on_c, 6, 65, 0
9, 30440, Note_on_c, 6, 64, 100
9, 30476, Note_on_c, 6, 64, 0
9, 30480, Note_on_c, 6, 65, 100
9, 30516, Note_on_c, 6, 65, 0
9, 30520, Note_on_c, 6, 64, 100
9, 30556, Note_on_c, 6, 64, 0
9, 30560, Note_on_c, 6, 62, 100
9, 30596, Note_on_c, 6, 62, 0
9, 30600, Note_on_c, 6, 64, 100
9, 30636, Note_on_c, 6, 64, 0
9, 30640, Note_on_c, 6, 62, 100
9, 30676, Note_on_c, 6, 62, 0
9, 30680, Note_on_c, 6, 60, 100
9, 30716, Note_on_c, 6, 60, 0
9, 30720, Note_on_c, 6, 62, 100
9, 30756, Note_on_c, 6, 62, 0
9, 30760, Note_on_c, 6, 64, 100
9, 30796, Note_on_c, 6, 64, 0
9, 30800, Note_on_c, 6, 65, 100
9, 30836, Note_on_c, 6, 65, 0
9, 30840, Note_on_c, 6, 68, 100
9, 30876, Note_on_c, 6, 68, 0
9, 30880, Note_on_c, 6, 65, 100
9, 30916, Note_on_c, 6, 65, 0
9, 30920, Note_on_c, 6, 64, 100
9, 30956, Note_on_c, 6, 64, 0
9, 30960, Note_on_c, 6, 62, 100
9, 30996, Note_on_c, 6, 62, 0
9, 31000, Note_on_c, 6, 64, 100
9, 31036, Note_on_c, 6, 64, 0
9, 31040, Note_on_c, 6, 65, 100
9, 31076, Note_on_c, 6, 65, 0
9, 31080, Note_on_c, 6, 69, 100
9, 31116, Note_on_c, 6, 69, 0
9, 31120, Note_on_c, 6, 65, 100
9, 31156, Note_on_c, 6, 65, 0
9, 31160, Note_on_c, 6, 64, 100
9, 31196, Note_on_c, 6, 64, 0
9, 31200, Note_on_c, 6, 62, 100
9, 31236, Note_on_c, 6, 62, 0
9, 31240, Note_on_c, 6, 64, 100
9, 31276, Note_on_c, 6, 64, 0
9, 31280, Note_on_c, 6, 65, 100
9, 31316, Note_on_c, 6, 65, 0
9, 31320, Note_on_c, 6, 71, 100
9, 31356, Note_on_c, 6, 71, 0
9, 31360, Note_on_c, 6, 65, 100
9, 31396, Note_on_c, 6, 65, 0
9, 31400, Note_on_c, 6, 64, 100
9, 31436, Note_on_c, 6, 64, 0
9, 31440, Note_on_c, 6, 62, 100
9, 31476, Note_on_c, 6, 62, 0
9, 31480, Note_on_c, 6, 64, 100
9, 31516, Note_on_c, 6, 64, 0
9, 31520, Note_on_c, 6, 65, 100
9, 31556, Note_on_c, 6, 65, 0
9, 31560, Note_on_c, 6, 74, 100
9, 31596, Note_on_c, 6, 74, 0
9, 31600, Note_on_c, 6, 65, 100
9, 31636, Note_on_c, 6, 65, 0
9, 31640, Note_on_c, 6, 64, 100
9, 31676, Note_on_c, 6, 64, 0
9, 31680, Note_on_c, 6, 62, 100
9, 31716, Note_on_c, 6, 62, 0
9, 31720, Note_on_c, 6, 65, 100
9, 31756, Note_on_c, 6, 65, 0
9, 31760, Note_on_c, 6, 68, 100
9, 31796, Note_on_c, 6, 68, 0
9, 31800, Note_on_c, 6, 71, 100
9, 31836, Note_on_c, 6, 71, 0
9, 31840, Note_on_c, 6, 74, 100
9, 31876, Note_on_c, 6, 74, 0
9, 31880, Note_on_c, 6, 71, 100
9, 31916, Note_on_c, 6, 71, 0
9, 31920, Note_on_c, 6, 68, 100
9, 31956, Note_on_c, 6, 68, 0
9, 31960, Note_on_c, 6, 71, 100
9, 31996, Note_on_c, 6, 71, 0
9, 32000, Note_on_c, 6, 74, 100
9, 32036, Note_on_c, 6, 74, 0
9, 32040, Note_on_c, 6, 77, 100
9, 32076, Note_on_c, 6, 77, 0
9, 32080, Note_on_c, 6, 76, 100
9, 32116, Note_on_c, 6, 76, 0
9, 32120, Note_on_c, 6, 74, 100
9, 32156, Note_on_c, 6, 74, 0
9, 32160, Note_on_c, 6, 76, 100
9, 32322, Note_on_c, 6, 76, 0
9, 32340, Note_on_c, 6, 77, 100
9, 32394, Note_on_c, 6, 77, 0
9, 32400, Note_on_c, 6, 71, 100
9, 32400, Note_on_c, 6, 68, 100
9, 32562, Note_on_c, 6, 71, 0
9, 32580, Note_on_c, 6, 69, 100
9, 32616, Note_on_c, 6, 68, 0
9, 32634, Note_on_c, 6, 69, 0
9, 32640, Note_on_c, 6, 69, 100
9, 32748, Note_on_c, 6, 69, 0
9, 39480, Note_on_c, 6, 64, 100
9, 39534, Note_on_c, 6, 64, 0
9, 39540, Note_on_c, 6, 66, 100
9, 39594, Note_on_c, 6, 66, 0
9, 39600, Note_on_c, 6, 67, 100
9, 39636, Note_on_c, 6, 67, 0
9, 39640, Note_on_c, 6, 69, 100
9, 39676, Note_on_c, 6, 69, 0
9, 39680, Note_on_c, 6, 71, 100
9, 39716, Note_on_c, 6, 71, 0
9, 39720, Note_on_c, 6, 69, 100
9, 39756, Note_on_c, 6, 69, 0
9, 39760, Note_on_c, 6, 67, 100
9, 39796, Note_on_c, 6, 67, 0
9, 39800, Note_on_c, 6, 66, 100
9, 39836, Note_on_c, 6, 66, 0
9, 39840, Note_on_c, 6, 67, 100
9, 39876, Note_on_c, 6, 67, 0
9, 39880, Note_on_c, 6, 66, 100
9, 39916, Note_on_c, 6, 66, 0
9, 39920, Note_on_c, 6, 64, 100
9, 39956, Note_on_c, 6, 64, 0
9, 39960, Note_on_c, 6, 65, 100
9, 39996, Note_on_c, 6, 65, 0
9, 40000, Note_on_c, 6, 64, 100
9, 40036, Note_on_c, 6, 64, 0
9, 40040, Note_on_c, 6, 62, 100
9, 40076, Note_on_c, 6, 62, 0
9, 40080, Note_on_c, 6, 64, 100
9, 40116, Note_on_c, 6, 64, 0
9, 40120, Note_on_c, 6, 62, 100
9, 40156, Note_on_c, 6, 62, 0
9, 40160, Note_on_c, 6, 60, 100
9, 40196, Note_on_c, 6, 60, 0
9, 40240, Note_on_c, 6, 69, 100
9, 40276, Note_on_c, 6, 69, 0
9, 40280, Note_on_c, 6, 68, 100
9, 40316, Note_on_c, 6, 68, 0
9, 40320, Note_on_c, 6, 69, 100
9, 40428, Note_on_c, 6, 69, 0
9, 40840, Note_on_c, 6, 64, 100
9, 40876, Note_on_c, 6, 64, 0
9, 40880, Note_on_c, 6, 66, 100
9, 40916, Note_on_c, 6, 66, 0
9, 40920, Note_on_c, 6, 67, 100
9, 40956, Note_on_c, 6, 67, 0
9, 40960, Note_on_c, 6, 64, 100
9, 40996, Note_on_c, 6, 64, 0
9, 41000, Note_on_c, 6, 62, 100
9, 41036, Note_on_c, 6, 62, 0
9, 41040, Note_on_c, 6, 61, 100
9, 41148, Note_on_c, 6, 61, 0
9, 41160, Note_on_c, 6, 63, 100
9, 41316, Note_on_c, 6, 63, 0
9, 41320, Note_on_c, 6, 64, 100
9, 41356, Note_on_c, 6, 64, 0
9, 41360, Note_on_c, 6, 63, 100
9, 41396, Note_on_c, 6, 63, 0
9, 41400, Note_on_c, 6, 64, 100
9, 41436, Note_on_c, 6, 64, 0
9, 41440, Note_on_c, 6, 66, 100
9, 41476, Note_on_c, 6, 66, 0
9, 41480, Note_on_c, 6, 67, 100
9, 41516, Note_on_c, 6, 67, 0
9, 41520, Note_on_c, 6, 69, 100
9, 41556, Note_on_c, 6, 69, 0
9, 41560, Note_on_c, 6, 71, 100
9, 41596, Note_on_c, 6, 71, 0
9, 41600, Note_on_c, 6, 72, 100
9, 41636, Note_on_c, 6, 72, 0
9, 41640, Note_on_c, 6, 71, 100
9, 41676, Note_on_c, 6, 71, 0
9, 41680, Note_on_c, 6, 72, 100
9, 41716, Note_on_c, 6, 72, 0
9, 41720, Note_on_c, 6, 69, 100
9, 41756, Note_on_c, 6, 69, 0
9, 41760, Note_on_c, 6, 67, 100
9, 41796, Note_on_c, 6, 67, 0
9, 41800, Note_on_c, 6, 66, 100
9, 41836, Note_on_c, 6, 66, 0
9, 41840, Note_on_c, 6, 64, 100
9, 41876, Note_on_c, 6, 64, 0
9, 41880, Note_on_c, 6, 66, 100
9, 41916, Note_on_c, 6, 66, 0
9, 41920, Note_on_c, 6, 67, 100
9, 41956, Note_on_c, 6, 67, 0
9, 41960, Note_on_c, 6, 69, 100
9, 41996, Note_on_c, 6, 69, 0
9, 42000, Note_on_c, 6, 71, 100
9, 42036, Note_on_c, 6, 71, 0
9, 42040, Note_on_c, 6, 72, 100
9, 42076, Note_on_c, 6, 72, 0
9, 42080, Note_on_c, 6, 74, 100
9, 42116, Note_on_c, 6, 74, 0
9, 42120, Note_on_c, 6, 72, 100
9, 42156, Note_on_c, 6, 72, 0
9, 42160, Note_on_c, 6, 74, 100
9, 42196, Note_on_c, 6, 74, 0
9, 42200, Note_on_c, 6, 71, 100
9, 42236, Note_on_c, 6, 71, 0
9, 42240, Note_on_c, 6, 69, 100
9, 42276, Note_on_c, 6, 69, 0
9, 42280, Note_on_c, 6, 68, 100
9, 42316, Note_on_c, 6, 68, 0
9, 42320, Note_on_c, 6, 66, 100
9, 42356, Note_on_c, 6, 66, 0
9, 42360, Note_on_c, 6, 68, 100
9, 42396, Note_on_c, 6, 68, 0
9, 42400, Note_on_c, 6, 69, 100
9, 42436, Note_on_c, 6, 69, 0
9, 42440, Note_on_c, 6, 71, 100
9, 42476, Note_on_c, 6, 71, 0
9, 42480, Note_on_c, 6, 72, 100
9, 42516, Note_on_c, 6, 72, 0
9, 42520, Note_on_c, 6, 74, 100
9, 42556, Note_on_c, 6, 74, 0
9, 42560, Note_on_c, 6, 76, 100
9, 42596, Note_on_c, 6, 76, 0
9, 42600, Note_on_c, 6, 74, 100
9, 42636, Note_on_c, 6, 74, 0
9, 42640, Note_on_c, 6, 76, 100
9, 42676, Note_on_c, 6, 76, 0
9, 42680, Note_on_c, 6, 72, 100
9, 42716, Note_on_c, 6, 72, 0
9, 42720, Note_on_c, 6, 71, 100
9, 42756, Note_on_c, 6, 71, 0
9, 42760, Note_on_c, 6, 69, 100
9, 42796, Note_on_c, 6, 69, 0
9, 42800, Note_on_c, 6, 68, 100
9, 42836, Note_on_c, 6, 68, 0
9, 42840, Note_on_c, 6, 69, 100
9, 42876, Note_on_c, 6, 69, 0
9, 42880, Note_on_c, 6, 71, 100
9, 42916, Note_on_c, 6, 71, 0
9, 42920, Note_on_c, 6, 72, 100
9, 42956, Note_on_c, 6, 72, 0
9, 42960, Note_on_c, 6, 74, 100
9, 42996, Note_on_c, 6, 74, 0
9, 43000, Note_on_c, 6, 76, 100
9, 43036, Note_on_c, 6, 76, 0
9, 43040, Note_on_c, 6, 77, 100
9, 43076, Note_on_c, 6, 77, 0
9, 43080, Note_on_c, 6, 76, 100
9, 43116, Note_on_c, 6, 76, 0
9, 43120, Note_on_c, 6, 77, 100
9, 43156, Note_on_c, 6, 77, 0
9, 43160, Note_on_c, 6, 74, 100
9, 43196, Note_on_c, 6, 74, 0
9, 43200, Note_on_c, 6, 72, 100
9, 43236, Note_on_c, 6, 72, 0
9, 43240, Note_on_c, 6, 74, 100
9, 43276, Note_on_c, 6, 74, 0
9, 43280, Note_on_c, 6, 76, 100
9, 43316, Note_on_c, 6, 76, 0
9, 43320, Note_on_c, 6, 81, 100
9, 43356, Note_on_c, 6, 81, 0
9, 43360, Note_on_c, 6, 79, 100
9, 43396, Note_on_c, 6, 79, 0
9, 43400, Note_on_c, 6, 81, 100
9, 43436, Note_on_c, 6, 81, 0
9, 43440, Note_on_c, 6, 71, 100
9, 43548, Note_on_c, 6, 71, 0
9, 43560, Note_on_c, 6, 79, 100
9, 43668, Note_on_c, 6, 79, 0
9, 43680, Note_on_c, 6, 69, 100
9, 43716, Note_on_c, 6, 69, 0
9, 43720, Note_on_c, 6, 71, 100
9, 43756, Note_on_c, 6, 71, 0
9, 43760, Note_on_c, 6, 72, 100
9, 43796, Note_on_c, 6, 72, 0
9, 43800, Note_on_c, 6, 77, 100
9, 43836, Note_on_c, 6, 77, 0
9, 43840, Note_on_c, 6, 76, 100
9, 43876, Note_on_c, 6, 76, 0
9, 43880, Note_on_c, 6, 77, 100
9, 43916, Note_on_c, 6, 77, 0
9, 43920, Note_on_c, 6, 67, 100
9, 44028, Note_on_c, 6, 67, 0
9, 44040, Note_on_c, 6, 76, 100
9, 44148, Note_on_c, 6, 76, 0
9, 44160, Note_on_c, 6, 65, 100
9, 44196, Note_on_c, 6, 65, 0
9, 44200, Note_on_c, 6, 67, 100
9, 44236, Note_on_c, 6, 67, 0
9, 44240, Note_on_c, 6, 69, 100
9, 44276, Note_on_c, 6, 69, 0
9, 44280, Note_on_c, 6, 74, 100
9, 44316, Note_on_c, 6, 74, 0
9, 44320, Note_on_c, 6, 72, 100
9, 44356, Note_on_c, 6, 72, 0
9, 44360, Note_on_c, 6, 74, 100
9, 44396, Note_on_c, 6, 74, 0
9, 44400, Note_on_c, 6, 64, 100
9, 44481, Note_on_c, 6, 64, 0
9, 44490, Note_on_c, 6, 67, 100
9, 44517, Note_on_c, 6, 67, 0
9, 44520, Note_on_c, 6, 66, 100
9, 44601, Note_on_c, 6, 66, 0
9, 44610, Note_on_c, 6, 72, 100
9, 44637, Note_on_c, 6, 72, 0
9, 44640, Note_on_c, 6, 62, 100
9, 44676, Note_on_c, 6, 62, 0
9, 44680, Note_on_c, 6, 64, 100
9, 44716, Note_on_c, 6, 64, 0
9, 44720, Note_on_c, 6, 65, 100
9, 44756, Note_on_c, 6, 65, 0
9, 44760, Note_on_c, 6, 71, 100
9, 44796, Note_on_c, 6, 71, 0
9, 44800, Note_on_c, 6, 69, 100
9, 44836, Note_on_c, 6, 69, 0
9, 44840, Note_on_c, 6, 71, 100
9, 44876, Note_on_c, 6, 71, 0
9, 44880, Note_on_c, 6, 64, 100
9, 44916, Note_on_c, 6, 64, 0
9, 44920, Note_on_c, 6, 65, 100
9, 44956, Note_on_c, 6, 65, 0
9, 44960, Note_on_c, 6, 67, 100
9, 44996, Note_on_c, 6, 67, 0
9, 45000, Note_on_c, 6, 72, 100
9, 45036, Note_on_c, 6, 72, 0
9, 45040, Note_on_c, 6, 71, 100
9, 45076, Note_on_c, 6, 71, 0
9, 45080, Note_on_c, 6, 72, 100
9, 45116, Note_on_c, 6, 72, 0
9, 45120, Note_on_c, 6, 65, 100
9, 45156, Note_on_c, 6, 65, 0
9, 45160, Note_on_c, 6, 67, 100
9, 45196, Note_on_c, 6, 67, 0
9, 45200, Note_on_c, 6, 69, 100
9, 45236, Note_on_c, 6, 69, 0
9, 45240, Note_on_c, 6, 74, 100
9, 45276, Note_on_c, 6, 74, 0
9, 45280, Note_on_c, 6, 72, 100
9, 45316, Note_on_c, 6, 72, 0
9, 45320, Note_on_c, 6, 74, 100
9, 45356, Note_on_c, 6, 74, 0
9, 45360, Note_on_c, 6, 67, 100
9, 45396, Note_on_c, 6, 67, 0
9, 45400, Note_on_c, 6, 69, 100
9, 45436, Note_on_c, 6, 69, 0
9, 45440, Note_on_c, 6, 71, 100
9, 45476, Note_on_c, 6, 71, 0
9, 45480, Note_on_c, 6, 76, 100
9, 45516, Note_on_c, 6, 76, 0
9, 45520, Note_on_c, 6, 74, 100
9, 45556, Note_on_c, 6, 74, 0
9, 45560, Note_on_c, 6, 76, 100
9, 45596, Note_on_c, 6, 76, 0
9, 45600, Note_on_c, 6, 69, 100
9, 45636, Note_on_c, 6, 69, 0
9, 45640, Note_on_c, 6, 71, 100
9, 45676, Note_on_c, 6, 71, 0
9, 45680, Note_on_c, 6, 72, 100
9, 45716, Note_on_c, 6, 72, 0
9, 45720, Note_on_c, 6, 77, 100
9, 45756, Note_on_c, 6, 77, 0
9, 45760, Note_on_c, 6, 76, 100
9, 45796, Note_on_c, 6, 76, 0
9, 45800, Note_on_c, 6, 77, 100
9, 45836, Note_on_c, 6, 77, 0
9, 45840, Note_on_c, 6, 71, 100
9, 45876, Note_on_c, 6, 71, 0
9, 45880, Note_on_c, 6, 72, 100
9, 45916, Note_on_c, 6, 72, 0
9, 45920, Note_on_c, 6, 74, 100
9, 45956, Note_on_c, 6, 74, 0
9, 45960, Note_on_c, 6, 79, 100
9, 45996, Note_on_c, 6, 79, 0
9, 46000, Note_on_c, 6, 77, 100
9, 46036, Note_on_c, 6, 77, 0
9, 46040, Note_on_c, 6, 79, 100
9, 46076, Note_on_c, 6, 79, 0
9, 46080, Note_on_c, 6, 76, 100
9, 46188, Note_on_c, 6, 76, 0
9, 46200, Note_on_c, 6, 77, 100
9, 46200, Note_on_c, 6, 74, 100
9, 46308, Note_on_c, 6, 77, 0
9, 46308, Note_on_c, 6, 74, 0
9, 46320, Note_on_c, 6, 76, 100
9, 46320, Note_on_c, 6, 72, 100
9, 46428, Note_on_c, 6, 76, 0
9, 46428, Note_on_c, 6, 72, 0
9, 46440, Note_on_c, 6, 74, 100
9, 46440, Note_on_c, 6, 71, 100
9, 46548, Note_on_c, 6, 74, 0
9, 46548, Note_on_c, 6, 71, 0
9, 46560, Note_on_c, 6, 72, 100
9, 46560, Note_on_c, 6, 72, 100
9, 46668, Note_on_c, 6, 72, 0
9, 46668, Note_on_c, 6, 72, 0
9, 46680, Note_on_c, 6, 81, 100
9, 46740, Note_on_c, 6, 74, 100
9, 46788, Note_on_c, 6, 81, 0
9, 46800, Note_on_c, 6, 79, 100
9, 46854, Note_on_c, 6, 74, 0
9, 46860, Note_on_c, 6, 72, 100
9, 46908, Note_on_c, 6, 79, 0
9, 46920, Note_on_c, 6, 77, 100
9, 46968, Note_on_c, 6, 72, 0
9, 46980, Note_on_c, 6, 71, 100
9, 47028, Note_on_c, 6, 77, 0
9, 47034, Note_on_c, 6, 71, 0
9, 47040, Note_on_c, 6, 72, 100
9, 47040, Note_on_c, 6, 76, 100
9, 47040, Note_on_c, 6, 79, 100
9, 47040, Note_on_c, 6, 67, 100
9, 47148, Note_on_c, 6, 72, 0
9, 47148, Note_on_c, 6, 76, 0
9, 47148, Note_on_c, 6, 79, 0
9, 47148, Note_on_c, 6, 67, 0
9, 47160, Note_on_c, 6, 74, 100
9, 47160, Note_on_c, 6, 71, 100
9, 47241, Note_on_c, 6, 74, 0
9, 47241, Note_on_c, 6, 71, 0
9, 47250, Note_on_c, 6, 76, 100
9, 47250, Note_on_c, 6, 72, 100
9, 47277, Note_on_c, 6, 76, 0
9, 47277, Note_on_c, 6, 72, 0
9, 47280, Note_on_c, 6, 77, 100
9, 47280, Note_on_c, 6, 74, 100
9, 47388, Note_on_c, 6, 77, 0
9, 47388, Note_on_c, 6, 74, 0
9, 47400, Note_on_c, 6, 77, 100
9, 47400, Note_on_c, 6, 72, 100
9, 47508, Note_on_c, 6, 77, 0
9, 47508, Note_on_c, 6, 72, 0
9, 47520, Note_on_c, 6, 77, 100
9, 47520, Note_on_c, 6, 71, 100
9, 47628, Note_on_c, 6, 77, 0
9, 47628, Note_on_c, 6, 71, 0
9, 47640, Note_on_c, 6, 76, 100
9, 47640, Note_on_c, 6, 67, 100
9, 47748, Note_on_c, 6, 76, 0
9, 47748, Note_on_c, 6, 67, 0
9, 47760, Note_on_c, 6, 74, 100
9, 47760, Note_on_c, 6, 69, 100
9, 47868, Note_on_c, 6, 74, 0
9, 47868, Note_on_c, 6, 69, 0
9, 47880, Note_on_c, 6, 74, 100
9, 47880, Note_on_c, 6, 62, 100
9, 47988, Note_on_c, 6, 74, 0
9, 47988, Note_on_c, 6, 62, 0
9, 48000, Note_on_c, 6, 72, 100
9, 48000, Note_on_c, 6, 64, 100
9, 48108, Note_on_c, 6, 72, 0
9, 48108, Note_on_c, 6, 64, 0
9, 49080, Note_on_c, 6, 60, 100
9, 49134, Note_on_c, 6, 60, 0
9, 49140, Note_on_c, 6, 62, 100
9, 49194, Note_on_c, 6, 62, 0
9, 49200, Note_on_c, 6, 64, 100
9, 49254, Note_on_c, 6, 64, 0
9, 49260, Note_on_c, 6, 67, 100
9, 49314, Note_on_c, 6, 67, 0
9, 49320, Note_on_c, 6, 65, 100
9, 49374, Note_on_c, 6, 65, 0
9, 49380, Note_on_c, 6, 62, 100
9, 49434, Note_on_c, 6, 62, 0
9, 49440, Note_on_c, 6, 64, 100
9, 49476, Note_on_c, 6, 64, 0
9, 49480, Note_on_c, 6, 62, 100
9, 49516, Note_on_c, 6, 62, 0
9, 49520, Note_on_c, 6, 60, 100
9, 49556, Note_on_c, 6, 60, 0
9, 49560, Note_on_c, 6, 67, 100
9, 49560, Note_on_c, 6, 60, 100
9, 49668, Note_on_c, 6, 67, 0
9, 49668, Note_on_c, 6, 60, 0
9, 49680, Note_on_c, 6, 67, 100
9, 49680, Note_on_c, 6, 72, 100
9, 49680, Note_on_c, 6, 60, 100
9, 49788, Note_on_c, 6, 67, 0
9, 49788, Note_on_c, 6, 72, 0
9, 49788, Note_on_c, 6, 60, 0
9, 49800, Note_on_c, 6, 67, 100
9, 49800, Note_on_c, 6, 71, 100
9, 49800, Note_on_c, 6, 62, 100
9, 49908, Note_on_c, 6, 67, 0
9, 49908, Note_on_c, 6, 71, 0
9, 49908, Note_on_c, 6, 62, 0
9, 49920, Note_on_c, 6, 72, 100
9, 49920, Note_on_c, 6, 60, 100
9, 50028, Note_on_c, 6, 72, 0
9, 50028, Note_on_c, 6, 60, 0
9, 50920, Note_on_c, 6, 67, 100
9, 50956, Note_on_c, 6, 67, 0
9, 50960, Note_on_c, 6, 69, 100
9, 50996, Note_on_c, 6, 69, 0
9, 51000, Note_on_c, 6, 71, 100
9, 51036, Note_on_c, 6, 71, 0
9, 51040, Note_on_c, 6, 72, 100
9, 51076, Note_on_c, 6, 72, 0
9, 51080, Note_on_c, 6, 74, 100
9, 51116, Note_on_c, 6, 74, 0
9, 51120, Note_on_c, 6, 74, 100
9, 51156, Note_on_c, 6, 74, 0
9, 51160, Note_on_c, 6, 76, 100
9, 51196, Note_on_c, 6, 76, 0
9, 51200, Note_on_c, 6, 77, 100
9, 51236, Note_on_c, 6, 77, 0
9, 51240, Note_on_c, 6, 77, 100
9, 51276, Note_on_c, 6, 77, 0
9, 51280, Note_on_c, 6, 76, 100
9, 51316, Note_on_c, 6, 76, 0
9, 51320, Note_on_c, 6, 74, 100
9, 51356, Note_on_c, 6, 74, 0
9, 51360, Note_on_c, 6, 72, 100
9, 51396, Note_on_c, 6, 72, 0
9, 51400, Note_on_c, 6, 71, 100
9, 51436, Note_on_c, 6, 71, 0
9, 51440, Note_on_c, 6, 69, 100
9, 51476, Note_on_c, 6, 69, 0
9, 51480, Note_on_c, 6, 77, 100
9, 51516, Note_on_c, 6, 77, 0
9, 51520, Note_on_c, 6, 76, 100
9, 51556, Note_on_c, 6, 76, 0
9, 51560, Note_on_c, 6, 77, 100
9, 51596, Note_on_c, 6, 77, 0
9, 51600, Note_on_c, 6, 67, 100
9, 51636, Note_on_c, 6, 67, 0
9, 51640, Note_on_c, 6, 69, 100
9, 51676, Note_on_c, 6, 69, 0
9, 51680, Note_on_c, 6, 71, 100
9, 51716, Note_on_c, 6, 71, 0
9, 51720, Note_on_c, 6, 76, 100
9, 51756, Note_on_c, 6, 76, 0
9, 51760, Note_on_c, 6, 74, 100
9, 51796, Note_on_c, 6, 74, 0
9, 51800, Note_on_c, 6, 76, 100
9, 51836, Note_on_c, 6, 76, 0
9, 51840, Note_on_c, 6, 65, 100
9, 51876, Note_on_c, 6, 65, 0
9, 51880, Note_on_c, 6, 67, 100
9, 51916, Note_on_c, 6, 67, 0
9, 51920, Note_on_c, 6, 69, 100
9, 51956, Note_on_c, 6, 69, 0
9, 51960, Note_on_c, 6, 74, 100
9, 51996, Note_on_c, 6, 74, 0
9, 52000, Note_on_c, 6, 72, 100
9, 52036, Note_on_c, 6, 72, 0
9, 52040, Note_on_c, 6, 74, 100
9, 52076, Note_on_c, 6, 74, 0
9, 52080, Note_on_c, 6, 64, 100
9, 52116, Note_on_c, 6, 64, 0
9, 52120, Note_on_c, 6, 65, 100
9, 52156, Note_on_c, 6, 65, 0
9, 52160, Note_on_c, 6, 67, 100
9, 52196, Note_on_c, 6, 67, 0
9, 52200, Note_on_c, 6, 72, 100
9, 52236, Note_on_c, 6, 72, 0
9, 52240, Note_on_c, 6, 71, 100
9, 52276, Note_on_c, 6, 71, 0
9, 52280, Note_on_c, 6, 72, 100
9, 52316, Note_on_c, 6, 72, 0
9, 52320, Note_on_c, 6, 62, 100
9, 52356, Note_on_c, 6, 62, 0
9, 52360, Note_on_c, 6, 64, 100
9, 52396, Note_on_c, 6, 64, 0
9, 52400, Note_on_c, 6, 65, 100
9, 52436, Note_on_c, 6, 65, 0
9, 52440, Note_on_c, 6, 71, 100
9, 52476, Note_on_c, 6, 71, 0
9, 52480, Note_on_c, 6, 69, 100
9, 52516, Note_on_c, 6, 69, 0
9, 52520, Note_on_c, 6, 71, 100
9, 52556, Note_on_c, 6, 71, 0
9, 52560, Note_on_c, 6, 60, 100
9, 52596, Note_on_c, 6, 60, 0
9, 52600, Note_on_c, 6, 64, 100
9, 52636, Note_on_c, 6, 64, 0
9, 52640, Note_on_c, 6, 67, 100
9, 52676, Note_on_c, 6, 67, 0
9, 52680, Note_on_c, 6, 70, 100
9, 52716, Note_on_c, 6, 70, 0
9, 52720, Note_on_c, 6, 69, 100
9, 52756, Note_on_c, 6, 69, 0
9, 52760, Note_on_c, 6, 67, 100
9, 52796, Note_on_c, 6, 67, 0
9, 52800, Note_on_c, 6, 69, 100
9, 52836, Note_on_c, 6, 69, 0
9, 52840, Note_on_c, 6, 67, 100
9, 52876, Note_on_c, 6, 67, 0
9, 52880, Note_on_c, 6, 65, 100
9, 52916, Note_on_c, 6, 65, 0
9, 52920, Note_on_c, 6, 74, 100
9, 52956, Note_on_c, 6, 74, 0
9, 52960, Note_on_c, 6, 76, 100
9, 52996, Note_on_c, 6, 76, 0
9, 53000, Note_on_c, 6, 72, 100
9, 53036, Note_on_c, 6, 72, 0
9, 53040, Note_on_c, 6, 71, 100
9, 53076, Note_on_c, 6, 71, 0
9, 53080, Note_on_c, 6, 69, 100
9, 53116, Note_on_c, 6, 69, 0
9, 53120, Note_on_c, 6, 67, 100
9, 53156, Note_on_c, 6, 67, 0
9, 53160, Note_on_c, 6, 76, 100
9, 53196, Note_on_c, 6, 76, 0
9, 53200, Note_on_c, 6, 77, 100
9, 53236, Note_on_c, 6, 77, 0
9, 53240, Note_on_c, 6, 74, 100
9, 53276, Note_on_c, 6, 74, 0
9, 53280, Note_on_c, 6, 72, 100
9, 53316, Note_on_c, 6, 72, 0
9, 53320, Note_on_c, 6, 71, 100
9, 53356, Note_on_c, 6, 71, 0
9, 53360, Note_on_c, 6, 69, 100
9, 53396, Note_on_c, 6, 69, 0
9, 53400, Note_on_c, 6, 77, 100
9, 53436, Note_on_c, 6, 77, 0
9, 53440, Note_on_c, 6, 79, 100
9, 53476, Note_on_c, 6, 79, 0
9, 53480, Note_on_c, 6, 76, 100
9, 53516, Note_on_c, 6, 76, 0
9, 53520, Note_on_c, 6, 74, 100
9, 53556, Note_on_c, 6, 74, 0
9, 53560, Note_on_c, 6, 72, 100
9, 53596, Note_on_c, 6, 72, 0
9, 53600, Note_on_c, 6, 71, 100
9, 53636, Note_on_c, 6, 71, 0
9, 53640, Note_on_c, 6, 79, 100
9, 53676, Note_on_c, 6, 79, 0
9, 53680, Note_on_c, 6, 81, 100
9, 53716, Note_on_c, 6, 81, 0
9, 53720, Note_on_c, 6, 77, 100
9, 53756, Note_on_c, 6, 77, 0
9, 53760, Note_on_c, 6, 76, 100
9, 54276, Note_on_c, 6, 76, 0
9, 54280, Note_on_c, 6, 76, 100
9, 54316, Note_on_c, 6, 76, 0
9, 54320, Note_on_c, 6, 78, 100
9, 54356, Note_on_c, 6, 78, 0
9, 54360, Note_on_c, 6, 79, 100
9, 54396, Note_on_c, 6, 79, 0
9, 54400, Note_on_c, 6, 78, 100
9, 54436, Note_on_c, 6, 78, 0
9, 54440, Note_on_c, 6, 79, 100
9, 54476, Note_on_c, 6, 79, 0
9, 54480, Note_on_c, 6, 76, 100
9, 54561, Note_on_c, 6, 76, 0
9, 54570, Note_on_c, 6, 81, 100
9, 54597, Note_on_c, 6, 81, 0
9, 54600, Note_on_c, 6, 76, 100
9, 54681, Note_on_c, 6, 76, 0
9, 54690, Note_on_c, 6, 79, 100
9, 54717, Note_on_c, 6, 79, 0
9, 54720, Note_on_c, 6, 78, 100
9, 55236, Note_on_c, 6, 78, 0
9, 55240, Note_on_c, 6, 78, 100
9, 55276, Note_on_c, 6, 78, 0
9, 55280, Note_on_c, 6, 79, 100
9, 55316, Note_on_c, 6, 79, 0
9, 55320, Note_on_c, 6, 81, 100
9, 55356, Note_on_c, 6, 81, 0
9, 55360, Note_on_c, 6, 79, 100
9, 55396, Note_on_c, 6, 79, 0
9, 55400, Note_on_c, 6, 81, 100
9, 55436, Note_on_c, 6, 81, 0
9, 55440, Note_on_c, 6, 78, 100
9, 55521, Note_on_c, 6, 78, 0
9, 55530, Note_on_c, 6, 83, 100
9, 55557, Note_on_c, 6, 83, 0
9, 55560, Note_on_c, 6, 78, 100
9, 55641, Note_on_c, 6, 78, 0
9, 55650, Note_on_c, 6, 81, 100
9, 55677, Note_on_c, 6, 81, 0
9, 55680, Note_on_c, 6, 79, 100
9, 55716, Note_on_c, 6, 79, 0
9, 55720, Note_on_c, 6, 81, 100
9, 55756, Note_on_c, 6, 81, 0
9, 55760, Note_on_c, 6, 83, 100
9, 55796, Note_on_c, 6, 83, 0
9, 55800, Note_on_c, 6, 84, 100
9, 55881, Note_on_c, 6, 84, 0
9, 55890, Note_on_c, 6, 76, 100
9, 55917, Note_on_c, 6, 76, 0
9, 55920, Note_on_c, 6, 74, 100
9, 56001, Note_on_c, 6, 74, 0
9, 56010, Note_on_c, 6, 84, 100
9, 56037, Note_on_c, 6, 84, 0
9, 56040, Note_on_c, 6, 83, 100
9, 56121, Note_on_c, 6, 83, 0
9, 56130, Note_on_c, 6, 74, 100
9, 56157, Note_on_c, 6, 74, 0
9, 56160, Note_on_c, 6, 72, 100
9, 56241, Note_on_c, 6, 72, 0
9, 56250, Note_on_c, 6, 83, 100
9, 56259, Note_on_c, 6, 83, 0
9, 56260, Note_on_c, 6, 81, 100
9, 56269, Note_on_c, 6, 81, 0
9, 56270, Note_on_c, 6, 79, 100
9, 56279, Note_on_c, 6, 79, 0
9, 56280, Note_on_c, 6, 81, 100
9, 56361, Note_on_c, 6, 81, 0
9, 56370, Note_on_c, 6, 72, 100
9, 56397, Note_on_c, 6, 72, 0
9, 56400, Note_on_c, 6, 71, 100
9, 56481, Note_on_c, 6, 71, 0
9, 56490, Note_on_c, 6, 81, 100
9, 56517, Note_on_c, 6, 81, 0
9, 56520, Note_on_c, 6, 79, 100
9, 56601, Note_on_c, 6, 79, 0
9, 56610, Note_on_c, 6, 71, 100
9, 56637, Note_on_c, 6, 71, 0
9, 56640, Note_on_c, 6, 69, 100
9, 56721, Note_on_c, 6, 69, 0
9, 56730, Note_on_c, 6, 79, 100
9, 56739, Note_on_c, 6, 79, 0
9, 56740, Note_on_c, 6, 77, 100
9, 56749, Note_on_c, 6, 77, 0
9, 56750, Note_on_c, 6, 76, 100
9, 56759, Note_on_c, 6, 76, 0
9, 56760, Note_on_c, 6, 77, 100
9, 56841, Note_on_c, 6, 77, 0
9, 56850, Note_on_c, 6, 69, 100
9, 56877, Note_on_c, 6, 69, 0
9, 56880, Note_on_c, 6, 67, 100
9, 56961, Note_on_c, 6, 67, 0
9, 56970, Note_on_c, 6, 77, 100
9, 56997, Note_on_c, 6, 77, 0
9, 57000, Note_on_c, 6, 76, 100
9, 57081, Note_on_c, 6, 76, 0
9, 57090, Note_on_c, 6, 67, 100
9, 57117, Note_on_c, 6, 67, 0
9, 57120, Note_on_c, 6, 66, 100
9, 57201, Note_on_c, 6, 66, 0
9, 57210, Note_on_c, 6, 76, 100
9, 57237, Note_on_c, 6, 76, 0
9, 57240, Note_on_c, 6, 76, 100
9, 57636, Note_on_c, 6, 76, 0
9, 57640, Note_on_c, 6, 78, 100
9, 57676, Note_on_c, 6, 78, 0
9, 57680, Note_on_c, 6, 76, 100
9, 57716, Note_on_c, 6, 76, 0
9, 57720, Note_on_c, 6, 75, 100
9, 57756, Note_on_c, 6, 75, 0
9, 57760, Note_on_c, 6, 78, 100
9, 57796, Note_on_c, 6, 78, 0
9, 57800, Note_on_c, 6, 83, 100
9, 57836, Note_on_c, 6, 83, 0
9, 57840, Note_on_c, 6, 76, 100
9, 57876, Note_on_c, 6, 76, 0
9, 57880, Note_on_c, 6, 74, 100
9, 57916, Note_on_c, 6, 74, 0
9, 57920, Note_on_c, 6, 72, 100
9, 57956, Note_on_c, 6, 72, 0
9, 57960, Note_on_c, 6, 71, 100
9, 57996, Note_on_c, 6, 71, 0
9, 58000, Note_on_c, 6, 72, 100
9, 58036, Note_on_c, 6, 72, 0
9, 58040, Note_on_c, 6, 74, 100
9, 58076, Note_on_c, 6, 74, 0
9, 58080, Note_on_c, 6, 72, 100
9, 58116, Note_on_c, 6, 72, 0
9, 58120, Note_on_c, 6, 71, 100
9, 58156, Note_on_c, 6, 71, 0
9, 58160, Note_on_c, 6, 69, 100
9, 58196, Note_on_c, 6, 69, 0
9, 58200, Note_on_c, 6, 71, 100
9, 58236, Note_on_c, 6, 71, 0
9, 58240, Note_on_c, 6, 69, 100
9, 58276, Note_on_c, 6, 69, 0
9, 58280, Note_on_c, 6, 68, 100
9, 58316, Note_on_c, 6, 68, 0
9, 58320, Note_on_c, 6, 69, 100
9, 58356, Note_on_c, 6, 69, 0
9, 58360, Note_on_c, 6, 71, 100
9, 58396, Note_on_c, 6, 71, 0
9, 58400, Note_on_c, 6, 72, 100
9, 58436, Note_on_c, 6, 72, 0
9, 58440, Note_on_c, 6, 71, 100
9, 58476, Note_on_c, 6, 71, 0
9, 58480, Note_on_c, 6, 69, 100
9, 58516, Note_on_c, 6, 69, 0
9, 58520, Note_on_c, 6, 68, 100
9, 58556, Note_on_c, 6, 68, 0
9, 58560, Note_on_c, 6, 69, 100
9, 58596, Note_on_c, 6, 69, 0
9, 58600, Note_on_c, 6, 67, 100
9, 58636, Note_on_c, 6, 67, 0
9, 58640, Note_on_c, 6, 66, 100
9, 58676, Note_on_c, 6, 66, 0
9, 58680, Note_on_c, 6, 67, 100
9, 58716, Note_on_c, 6, 67, 0
9, 58720, Note_on_c, 6, 69, 100
9, 58756, Note_on_c, 6, 69, 0
9, 58760, Note_on_c, 6, 71, 100
9, 58796, Note_on_c, 6, 71, 0
9, 58800, Note_on_c, 6, 69, 100
9, 58836, Note_on_c, 6, 69, 0
9, 58840, Note_on_c, 6, 67, 100
9, 58876, Note_on_c, 6, 67, 0
9, 58880, Note_on_c, 6, 66, 100
9, 58916, Note_on_c, 6, 66, 0
9, 58920, Note_on_c, 6, 67, 100
9, 58956, Note_on_c, 6, 67, 0
9, 58960, Note_on_c, 6, 66, 100
9, 58996, Note_on_c, 6, 66, 0
9, 59000, Note_on_c, 6, 64, 100
9, 59036, Note_on_c, 6, 64, 0
9, 59040, Note_on_c, 6, 66, 100
9, 59076, Note_on_c, 6, 66, 0
9, 59080, Note_on_c, 6, 67, 100
9, 59116, Note_on_c, 6, 67, 0
9, 59120, Note_on_c, 6, 69, 100
9, 59156, Note_on_c, 6, 69, 0
9, 59160, Note_on_c, 6, 67, 100
9, 59196, Note_on_c, 6, 67, 0
9, 59200, Note_on_c, 6, 66, 100
9, 59236, Note_on_c, 6, 66, 0
9, 59240, Note_on_c, 6, 64, 100
9, 59276, Note_on_c, 6, 64, 0
9, 59280, Note_on_c, 6, 66, 100
9, 59316, Note_on_c, 6, 66, 0
9, 59320, Note_on_c, 6, 64, 100
9, 59356, Note_on_c, 6, 64, 0
9, 59360, Note_on_c, 6, 63, 100
9, 59396, Note_on_c, 6, 63, 0
9, 59400, Note_on_c, 6, 72, 100
9, 59481, Note_on_c, 6, 72, 0
9, 59490, Note_on_c, 6, 72, 100
9, 59517, Note_on_c, 6, 72, 0
9, 59520, Note_on_c, 6, 63, 100
9, 59520, Note_on_c, 6, 66, 100
9, 59520, Note_on_c, 6, 69, 100
9, 59520, Note_on_c, 6, 72, 100
9, 59736, Note_on_c, 6, 63, 0
9, 59736, Note_on_c, 6, 66, 0
9, 59736, Note_on_c, 6, 69, 0
9, 59736, Note_on_c, 6, 72, 0
9, 59880, Note_on_c, 6, 66, 100
9, 59880, Note_on_c, 6, 69, 100
9, 59880, Note_on_c, 6, 60, 100
9, 59961, Note_on_c, 6, 66, 0
9, 59961, Note_on_c, 6, 69, 0
9, 59961, Note_on_c, 6, 60, 0
9, 59970, Note_on_c, 6, 66, 100
9, 59970, Note_on_c, 6, 69, 100
9, 59970, Note_on_c, 6, 60, 100
9, 59997, Note_on_c, 6, 66, 0
9, 59997, Note_on_c, 6, 69, 0
9, 59997, Note_on_c, 6, 60, 0
9, 60000, Note_on_c, 6, 63, 100
9, 60000, Note_on_c, 6, 66, 100
9, 60000, Note_on_c, 6, 69, 100
9, 60000, Note_on_c, 6, 60, 100
9, 60216, Note_on_c, 6, 63, 0
9, 60216, Note_on_c, 6, 66, 0
9, 60216, Note_on_c, 6, 69, 0
9, 60216, Note_on_c, 6, 60, 0
9, 60360, Note_on_c, 6, 72, 100
9, 60360, Note_on_c, 6, 78, 100
9, 60360, Note_on_c, 6, 81, 100
9, 60360, Note_on_c, 6, 69, 100
9, 60441, Note_on_c, 6, 72, 0
9, 60441, Note_on_c, 6, 78, 0
9, 60441, Note_on_c, 6, 81, 0
9, 60441, Note_on_c, 6, 69, 0
9, 60450, Note_on_c, 6, 72, 100
9, 60450, Note_on_c, 6, 78, 100
9, 60450, Note_on_c, 6, 81, 100
9, 60450, Note_on_c, 6, 69, 100
9, 60477, Note_on_c, 6, 72, 0
9, 60477, Note_on_c, 6, 78, 0
9, 60477, Note_on_c, 6, 81, 0
9, 60477, Note_on_c, 6, 69, 0
9, 60480, Note_on_c, 6, 78, 100
9, 60480, Note_on_c, 6, 81, 100
9, 60480, Note_on_c, 6, 71, 100
9, 60516, Note_on_c, 6, 78, 0
9, 60516, Note_on_c, 6, 81, 0
9, 60516, Note_on_c, 6, 71, 0
9, 60520, Note_on_c, 6, 73, 100
9, 60556, Note_on_c, 6, 73, 0
9, 60560, Note_on_c, 6, 75, 100
9, 60596, Note_on_c, 6, 75, 0
9, 60600, Note_on_c, 6, 75, 100
9, 60636, Note_on_c, 6, 75, 0
9, 60640, Note_on_c, 6, 76, 100
9, 60676, Note_on_c, 6, 76, 0
9, 60680, Note_on_c, 6, 78, 100
9, 60716, Note_on_c, 6, 78, 0
9, 60720, Note_on_c, 6, 78, 100
9, 60756, Note_on_c, 6, 78, 0
9, 60760, Note_on_c, 6, 79, 100
9, 60796, Note_on_c, 6, 79, 0
9, 60800, Note_on_c, 6, 81, 100
9, 60836, Note_on_c, 6, 81, 0
9, 60840, Note_on_c, 6, 81, 100
9, 60876, Note_on_c, 6, 81, 0
9, 60880, Note_on_c, 6, 83, 100
9, 60916, Note_on_c, 6, 83, 0
9, 60920, Note_on_c, 6, 84, 100
9, 60956, Note_on_c, 6, 84, 0
9, 60960, Note_on_c, 6, 84, 100
9, 60996, Note_on_c, 6, 84, 0
9, 61000, Note_on_c, 6, 83, 100
9, 61036, Note_on_c, 6, 83, 0
9, 61040, Note_on_c, 6, 81, 100
9, 61076, Note_on_c, 6, 81, 0
9, 61080, Note_on_c, 6, 79, 100
9, 61116, Note_on_c, 6, 79, 0
9, 61120, Note_on_c, 6, 78, 100
9, 61156, Note_on_c, 6, 78, 0
9, 61160, Note_on_c, 6, 76, 100
9, 61196, Note_on_c, 6, 76, 0
9, 61200, Note_on_c, 6, 75, 100
9, 61236, Note_on_c, 6, 75, 0
9, 61240, Note_on_c, 6, 76, 100
9, 61276, Note_on_c, 6, 76, 0
9, 61280, Note_on_c, 6, 78, 100
9, 61316, Note_on_c, 6, 78, 0
9, 61320, Note_on_c, 6, 71, 100
9, 61356, Note_on_c, 6, 71, 0
9, 61360, Note_on_c, 6, 72, 100
9, 61396, Note_on_c, 6, 72, 0
9, 61400, Note_on_c, 6, 69, 100
9, 61436, Note_on_c, 6, 69, 0
9, 61440, Note_on_c, 6, 67, 100
9, 61440, Note_on_c, 6, 64, 100
9, 61476, Note_on_c, 6, 67, 0
9, 61476, Note_on_c, 6, 64, 0
9, 61480, Note_on_c, 6, 71, 100
9, 61480, Note_on_c, 6, 66, 100
9, 61516, Note_on_c, 6, 71, 0
9, 61516, Note_on_c, 6, 66, 0
9, 61520, Note_on_c, 6, 76, 100
9, 61520, Note_on_c, 6, 67, 100
9, 61556, Note_on_c, 6, 76, 0
9, 61556, Note_on_c, 6, 67, 0
9, 61560, Note_on_c, 6, 76, 100
9, 61560, Note_on_c, 6, 66, 100
9, 61596, Note_on_c, 6, 66, 0
9, 61600, Note_on_c, 6, 64, 100
9, 61636, Note_on_c, 6, 64, 0
9, 61640, Note_on_c, 6, 63, 100
9, 61676, Note_on_c, 6, 63, 0
9, 61680, Note_on_c, 6, 64, 100
9, 61716, Note_on_c, 6, 64, 0
9, 61720, Note_on_c, 6, 62, 100
9, 61756, Note_on_c, 6, 62, 0
9, 61760, Note_on_c, 6, 60, 100
9, 61796, Note_on_c, 6, 60, 0
9, 61800, Note_on_c, 6, 62, 100
9, 61836, Note_on_c, 6, 76, 0
9, 61836, Note_on_c, 6, 62, 0
9, 61840, Note_on_c, 6, 78, 100
9, 61840, Note_on_c, 6, 60, 100
9, 61876, Note_on_c, 6, 78, 0
9, 61876, Note_on_c, 6, 60, 0
9, 61880, Note_on_c, 6, 80, 100
9, 61880, Note_on_c, 6, 59, 100
9, 61916, Note_on_c, 6, 80, 0
9, 61916, Note_on_c, 6, 59, 0
9, 61920, Note_on_c, 6, 81, 100
9, 61920, Note_on_c, 6, 60, 100
9, 61956, Note_on_c, 6, 81, 0
9, 61956, Note_on_c, 6, 60, 0
9, 61960, Note_on_c, 6, 83, 100
9, 61960, Note_on_c, 6, 62, 100
9, 61996, Note_on_c, 6, 83, 0
9, 61996, Note_on_c, 6, 62, 0
9, 62000, Note_on_c, 6, 84, 100
9, 62000, Note_on_c, 6, 64, 100
9, 62036, Note_on_c, 6, 84, 0
9, 62036, Note_on_c, 6, 64, 0
9, 62040, Note_on_c, 6, 83, 100
9, 62076, Note_on_c, 6, 83, 0
9, 62080, Note_on_c, 6, 81, 100
9, 62116, Note_on_c, 6, 81, 0
9, 62120, Note_on_c, 6, 80, 100
9, 62156, Note_on_c, 6, 80, 0
9, 62160, Note_on_c, 6, 81, 100
9, 62196, Note_on_c, 6, 81, 0
9, 62200, Note_on_c, 6, 79, 100
9, 62236, Note_on_c, 6, 79, 0
9, 62240, Note_on_c, 6, 78, 100
9, 62276, Note_on_c, 6, 78, 0
9, 62280, Note_on_c, 6, 79, 100
9, 62316, Note_on_c, 6, 79, 0
9, 62320, Note_on_c, 6, 78, 100
9, 62356, Note_on_c, 6, 78, 0
9, 62360, Note_on_c, 6, 76, 100
9, 62396, Note_on_c, 6, 76, 0
9, 62400, Note_on_c, 6, 78, 100
9, 62508, Note_on_c, 6, 78, 0
9, 62520, Note_on_c, 6, 81, 100
9, 62601, Note_on_c, 6, 81, 0
9, 62610, Note_on_c, 6, 79, 100
9, 62637, Note_on_c, 6, 79, 0
9, 62640, Note_on_c, 6, 78, 100
9, 62748, Note_on_c, 6, 78, 0
9, 62760, Note_on_c, 6, 76, 100
9, 62868, Note_on_c, 6, 76, 0
9, 62880, Note_on_c, 6, 75, 100
9, 62988, Note_on_c, 6, 75, 0
9, 63000, Note_on_c, 6, 78, 100
9, 63081, Note_on_c, 6, 78, 0
9, 63090, Note_on_c, 6, 76, 100
9, 63117, Note_on_c, 6, 76, 0
9, 63120, Note_on_c, 6, 75, 100
9, 63228, Note_on_c, 6, 75, 0
9, 63240, Note_on_c, 6, 76, 100
9, 63321, Note_on_c, 6, 76, 0
9, 63330, Note_on_c, 6, 78, 100
9, 63357, Note_on_c, 6, 78, 0
9, 63360, Note_on_c, 6, 71, 100
9, 63480, Note_on_c, 6, 66, 100
9, 63516, Note_on_c, 6, 66, 0
9, 63520, Note_on_c, 6, 69, 100
9, 63556, Note_on_c, 6, 69, 0
9, 63560, Note_on_c, 6, 66, 100
9, 63596, Note_on_c, 6, 66, 0
9, 63600, Note_on_c, 6, 63, 100
9, 63636, Note_on_c, 6, 63, 0
9, 63640, Note_on_c, 6, 66, 100
9, 63676, Note_on_c, 6, 66, 0
9, 63680, Note_on_c, 6, 63, 100
9, 63716, Note_on_c, 6, 63, 0
9, 63876, Note_on_c, 6, 71, 0
9, 63880, Note_on_c, 6, 76, 100
9, 63916, Note_on_c, 6, 76, 0
9, 63920, Note_on_c, 6, 75, 100
9, 63956, Note_on_c, 6, 75, 0
9, 63960, Note_on_c, 6, 76, 100
9, 63996, Note_on_c, 6, 76, 0
9, 64000, Note_on_c, 6, 71, 100
9, 64036, Note_on_c, 6, 71, 0
9, 64040, Note_on_c, 6, 72, 100
9, 64076, Note_on_c, 6, 72, 0
9, 64080, Note_on_c, 6, 66, 100
9, 64242, Note_on_c, 6, 66, 0
9, 64260, Note_on_c, 6, 64, 100
9, 64314, Note_on_c, 6, 64, 0
9, 64320, Note_on_c, 6, 64, 100
9, 64536, Note_on_c, 6, 64, 0
9, 70200, Note_on_c, 6, 64, 100
9, 70254, Note_on_c, 6, 64, 0
9, 70260, Note_on_c, 6, 66, 100
9, 70314, Note_on_c, 6, 66, 0
9, 70320, Note_on_c, 6, 67, 100
9, 70374, Note_on_c, 6, 67, 0
9, 70380, Note_on_c, 6, 71, 100
9, 70434, Note_on_c, 6, 71, 0
9, 70440, Note_on_c, 6, 69, 100
9, 70494, Note_on_c, 6, 69, 0
9, 70500, Note_on_c, 6, 66, 100
9, 70554, Note_on_c, 6, 66, 0
9, 70560, Note_on_c, 6, 67, 100
9, 70560, Note_on_c, 6, 64, 100
9, 70596, Note_on_c, 6, 67, 0
9, 70600, Note_on_c, 6, 66, 100
9, 70636, Note_on_c, 6, 66, 0
9, 70640, Note_on_c, 6, 64, 100
9, 70668, Note_on_c, 6, 64, 0
9, 70668, Note_on_c, 6, 64, 0
9, 70680, Note_on_c, 6, 72, 100
9, 70680, Note_on_c, 6, 64, 100
9, 70788, Note_on_c, 6, 72, 0
9, 70788, Note_on_c, 6, 64, 0
9, 70800, Note_on_c, 6, 62, 100
9, 70800, Note_on_c, 6, 66, 100
9, 70800, Note_on_c, 6, 57, 100
9, 70908, Note_on_c, 6, 62, 0
9, 70908, Note_on_c, 6, 66, 0
9, 70908, Note_on_c, 6, 57, 0
9, 70920, Note_on_c, 6, 64, 100
9, 70920, Note_on_c, 6, 68, 100
9, 70920, Note_on_c, 6, 59, 100
9, 71028, Note_on_c, 6, 64, 0
9, 71028, Note_on_c, 6, 68, 0
9, 71028, Note_on_c, 6, 59, 0
9, 71040, Note_on_c, 6, 69, 100
9, 71040, Note_on_c, 6, 57, 100
9, 71148, Note_on_c, 6, 69, 0
9, 71148, Note_on_c, 6, 57, 0
9, 72120, Note_on_c, 6, 81, 100
9, 72201, Note_on_c, 6, 81, 0
9, 72210, Note_on_c, 6, 79, 100
9, 72237, Note_on_c, 6, 79, 0
9, 72240, Note_on_c, 6, 77, 100
9, 72276, Note_on_c, 6, 77, 0
9, 72280, Note_on_c, 6, 76, 100
9, 72316, Note_on_c, 6, 76, 0
9, 72320, Note_on_c, 6, 74, 100
9, 72356, Note_on_c, 6, 74, 0
9, 72360, Note_on_c, 6, 76, 100
9, 72396, Note_on_c, 6, 76, 0
9, 72400, Note_on_c, 6, 77, 100
9, 72436, Note_on_c, 6, 77, 0
9, 72440, Note_on_c, 6, 79, 100
9, 72476, Note_on_c, 6, 79, 0
9, 72480, Note_on_c, 6, 77, 100
9, 72516, Note_on_c, 6, 77, 0
9, 72520, Note_on_c, 6, 76, 100
9, 72556, Note_on_c, 6, 76, 0
9, 72560, Note_on_c, 6, 74, 100
9, 72596, Note_on_c, 6, 74, 0
9, 73080, Note_on_c, 6, 76, 100
9, 73116, Note_on_c, 6, 76, 0
9, 73120, Note_on_c, 6, 77, 100
9, 73156, Note_on_c, 6, 77, 0
9, 73160, Note_on_c, 6, 79, 100
9, 73196, Note_on_c, 6, 79, 0
9, 73200, Note_on_c, 6, 77, 100
9, 73236, Note_on_c, 6, 77, 0
9, 73240, Note_on_c, 6, 79, 100
9, 73276, Note_on_c, 6, 79, 0
9, 73280, Note_on_c, 6, 81, 100
9, 73316, Note_on_c, 6, 81, 0
9, 73320, Note_on_c, 6, 76, 100
9, 73356, Note_on_c, 6, 76, 0
9, 73360, Note_on_c, 6, 77, 100
9, 73396, Note_on_c, 6, 77, 0
9, 73400, Note_on_c, 6, 79, 100
9, 73436, Note_on_c, 6, 79, 0
9, 73440, Note_on_c, 6, 77, 100
9, 73476, Note_on_c, 6, 77, 0
9, 73480, Note_on_c, 6, 79, 100
9, 73516, Note_on_c, 6, 79, 0
9, 73520, Note_on_c, 6, 81, 100
9, 73556, Note_on_c, 6, 81, 0
9, 73560, Note_on_c, 6, 74, 100
9, 73596, Note_on_c, 6, 74, 0
9, 73600, Note_on_c, 6, 76, 100
9, 73636, Note_on_c, 6, 76, 0
9, 73640, Note_on_c, 6, 77, 100
9, 73676, Note_on_c, 6, 77, 0
9, 73680, Note_on_c, 6, 76, 100
9, 73716, Note_on_c, 6, 76, 0
9, 73720, Note_on_c, 6, 77, 100
9, 73756, Note_on_c, 6, 77, 0
9, 73760, Note_on_c, 6, 79, 100
9, 73796, Note_on_c, 6, 79, 0
9, 73800, Note_on_c, 6, 74, 100
9, 73836, Note_on_c, 6, 74, 0
9, 73840, Note_on_c, 6, 76, 100
9, 73876, Note_on_c, 6, 76, 0
9, 73880, Note_on_c, 6, 77, 100
9, 73916, Note_on_c, 6, 77, 0
9, 73920, Note_on_c, 6, 76, 100
9, 73956, Note_on_c, 6, 76, 0
9, 73960, Note_on_c, 6, 77, 100
9, 73996, Note_on_c, 6, 77, 0
9, 74000, Note_on_c, 6, 79, 100
9, 74036, Note_on_c, 6, 79, 0
9, 74040, Note_on_c, 6, 73, 100
9, 74076, Note_on_c, 6, 73, 0
9, 74080, Note_on_c, 6, 74, 100
9, 74116, Note_on_c, 6, 74, 0
9, 74120, Note_on_c, 6, 76, 100
9, 74156, Note_on_c, 6, 76, 0
9, 74160, Note_on_c, 6, 74, 100
9, 74196, Note_on_c, 6, 74, 0
9, 74200, Note_on_c, 6, 76, 100
9, 74236, Note_on_c, 6, 76, 0
9, 74240, Note_on_c, 6, 77, 100
9, 74276, Note_on_c, 6, 77, 0
9, 74280, Note_on_c, 6, 73, 100
9, 74316, Note_on_c, 6, 73, 0
9, 74320, Note_on_c, 6, 74, 100
9, 74356, Note_on_c, 6, 74, 0
9, 74360, Note_on_c, 6, 76, 100
9, 74396, Note_on_c, 6, 76, 0
9, 74400, Note_on_c, 6, 74, 100
9, 74508, Note_on_c, 6, 74, 0
9, 74520, Note_on_c, 6, 62, 100
9, 74520, Note_on_c, 6, 62, 100
9, 74574, Note_on_c, 6, 62, 0
9, 74574, Note_on_c, 6, 62, 0
9, 74580, Note_on_c, 6, 64, 100
9, 74634, Note_on_c, 6, 64, 0
9, 74640, Note_on_c, 6, 65, 100
9, 74694, Note_on_c, 6, 65, 0
9, 74700, Note_on_c, 6, 69, 100
9, 74754, Note_on_c, 6, 69, 0
9, 74760, Note_on_c, 6, 67, 100
9, 74760, Note_on_c, 6, 61, 100
9, 74814, Note_on_c, 6, 67, 0
9, 74820, Note_on_c, 6, 64, 100
9, 74868, Note_on_c, 6, 61, 0
9, 74874, Note_on_c, 6, 64, 0
9, 74880, Note_on_c, 6, 65, 100
9, 74916, Note_on_c, 6, 65, 0
9, 74920, Note_on_c, 6, 64, 100
9, 74956, Note_on_c, 6, 64, 0
9, 74960, Note_on_c, 6, 62, 100
9, 74996, Note_on_c, 6, 62, 0
9, 77400, Note_on_c, 6, 66, 100
9, 77436, Note_on_c, 6, 66, 0
9, 77440, Note_on_c, 6, 75, 100
9, 77476, Note_on_c, 6, 75, 0
9, 77480, Note_on_c, 6, 74, 100
9, 77516, Note_on_c, 6, 74, 0
9, 77520, Note_on_c, 6, 67, 100
9, 77556, Note_on_c, 6, 67, 0
9, 77560, Note_on_c, 6, 75, 100
9, 77596, Note_on_c, 6, 75, 0
9, 77600, Note_on_c, 6, 74, 100
9, 77636, Note_on_c, 6, 74, 0
9, 77640, Note_on_c, 6, 69, 100
9, 77676, Note_on_c, 6, 69, 0
9, 77680, Note_on_c, 6, 75, 100
9, 77716, Note_on_c, 6, 75, 0
9, 77720, Note_on_c, 6, 74, 100
9, 77756, Note_on_c, 6, 74, 0
9, 77760, Note_on_c, 6, 70, 100
9, 77796, Note_on_c, 6, 70, 0
9, 77800, Note_on_c, 6, 75, 100
9, 77836, Note_on_c, 6, 75, 0
9, 77840, Note_on_c, 6, 74, 100
9, 77876, Note_on_c, 6, 74, 0
9, 77880, Note_on_c, 6, 78, 100
9, 77916, Note_on_c, 6, 78, 0
9, 77920, Note_on_c, 6, 75, 100
9, 77956, Note_on_c, 6, 75, 0
9, 77960, Note_on_c, 6, 74, 100
9, 77996, Note_on_c, 6, 74, 0
9, 78000, Note_on_c, 6, 79, 100
9, 78036, Note_on_c, 6, 79, 0
9, 78040, Note_on_c, 6, 75, 100
9, 78076, Note_on_c, 6, 75, 0
9, 78080, Note_on_c, 6, 74, 100
9, 78116, Note_on_c, 6, 74, 0
9, 78120, Note_on_c, 6, 81, 100
9, 78156, Note_on_c, 6, 81, 0
9, 78160, Note_on_c, 6, 75, 100
9, 78196, Note_on_c, 6, 75, 0
9, 78200, Note_on_c, 6, 74, 100
9, 78236, Note_on_c, 6, 74, 0
9, 78240, Note_on_c, 6, 82, 100
9, 78276, Note_on_c, 6, 82, 0
9, 78280, Note_on_c, 6, 81, 100
9, 78316, Note_on_c, 6, 81, 0
9, 78320, Note_on_c, 6, 79, 100
9, 78356, Note_on_c, 6, 79, 0
9, 78720, Note_on_c, 6, 71, 100
9, 78720, Note_on_c, 6, 74, 100
9, 78720, Note_on_c, 6, 62, 100
9, 78720, Note_on_c, 6, 67, 100
9, 78828, Note_on_c, 6, 71, 0
9, 78828, Note_on_c, 6, 74, 0
9, 78828, Note_on_c, 6, 62, 0
9, 78828, Note_on_c, 6, 67, 0
9, 79200, Note_on_c, 6, 76, 100
9, 79200, Note_on_c, 6, 68, 100
9, 79308, Note_on_c, 6, 76, 0
9, 79308, Note_on_c, 6, 68, 0
9, 79320, Note_on_c, 6, 76, 100
9, 79320, Note_on_c, 6, 74, 100
9, 79428, Note_on_c, 6, 76, 0
9, 79428, Note_on_c, 6, 74, 0
9, 79440, Note_on_c, 6, 78, 100
9, 79440, Note_on_c, 6, 72, 100
9, 79548, Note_on_c, 6, 78, 0
9, 79548, Note_on_c, 6, 72, 0
9, 79560, Note_on_c, 6, 80, 100
9, 79560, Note_on_c, 6, 71, 100
9, 79668, Note_on_c, 6, 80, 0
9, 79668, Note_on_c, 6, 71, 0
9, 79680, Note_on_c, 6, 81, 100
9, 79680, Note_on_c, 6, 69, 100
9, 79788, Note_on_c, 6, 81, 0
9, 79788, Note_on_c, 6, 69, 0
9, 79800, Note_on_c, 6, 64, 100
9, 79860, Note_on_c, 6, 74, 100
9, 79908, Note_on_c, 6, 64, 0
9, 79914, Note_on_c, 6, 74, 0
9, 79920, Note_on_c, 6, 66, 100
9, 79980, Note_on_c, 6, 72, 100
9, 80028, Note_on_c, 6, 66, 0
9, 80034, Note_on_c, 6, 72, 0
9, 80040, Note_on_c, 6, 68, 100
9, 80100, Note_on_c, 6, 71, 100
9, 80148, Note_on_c, 6, 68, 0
9, 80154, Note_on_c, 6, 71, 0
9, 80160, Note_on_c, 6, 69, 100
9, 80160, Note_on_c, 6, 69, 100
9, 80268, Note_on_c, 6, 69, 0
9, 80268, Note_on_c, 6, 69, 0
9, 80640, Note_on_c, 6, 73, 100
9, 80640, Note_on_c, 6, 76, 100
9, 80640, Note_on_c, 6, 64, 100
9, 80640, Note_on_c, 6, 69, 100
9, 80748, Note_on_c, 6, 73, 0
9, 80748, Note_on_c, 6, 76, 0
9, 80748, Note_on_c, 6, 64, 0
9, 80748, Note_on_c, 6, 69, 0
9, 81120, Note_on_c, 6, 81, 100
9, 81156, Note_on_c, 6, 81, 0
9, 81160, Note_on_c, 6, 77, 100
9, 81196, Note_on_c, 6, 77, 0
9, 81200, Note_on_c, 6, 74, 100
9, 81236, Note_on_c, 6, 74, 0
9, 81240, Note_on_c, 6, 73, 100
9, 81276, Note_on_c, 6, 73, 0
9, 81280, Note_on_c, 6, 70, 100
9, 81316, Note_on_c, 6, 70, 0
9, 81320, Note_on_c, 6, 69, 100
9, 81356, Note_on_c, 6, 69, 0
9, 81360, Note_on_c, 6, 74, 100
9, 81396, Note_on_c, 6, 74, 0
9, 81400, Note_on_c, 6, 70, 100
9, 81436, Note_on_c, 6, 70, 0
9, 81440, Note_on_c, 6, 69, 100
9, 81476, Note_on_c, 6, 69, 0
9, 81480, Note_on_c, 6, 76, 100
9, 81516, Note_on_c, 6, 76, 0
9, 81520, Note_on_c, 6, 70, 100
9, 81556, Note_on_c, 6, 70, 0
9, 81560, Note_on_c, 6, 69, 100
9, 81596, Note_on_c, 6, 69, 0
9, 81600, Note_on_c, 6, 77, 100
9, 81636, Note_on_c, 6, 77, 0
9, 81640, Note_on_c, 6, 76, 100
9, 81676, Note_on_c, 6, 76, 0
9, 81680, Note_on_c, 6, 74, 100
9, 81716, Note_on_c, 6, 74, 0
9, 81720, Note_on_c, 6, 73, 100
9, 81756, Note_on_c, 6, 73, 0
9, 81760, Note_on_c, 6, 82, 100
9, 81796, Note_on_c, 6, 82, 0
9, 81800, Note_on_c, 6, 81, 100
9, 81836, Note_on_c, 6, 81, 0
9, 81840, Note_on_c, 6, 74, 100
9, 81876, Note_on_c, 6, 74, 0
9, 81880, Note_on_c, 6, 82, 100
9, 81916, Note_on_c, 6, 82, 0
9, 81920, Note_on_c, 6, 81, 100
9, 81956, Note_on_c, 6, 81, 0
9, 81960, Note_on_c, 6, 76, 100
9, 81996, Note_on_c, 6, 76, 0
9, 82000, Note_on_c, 6, 82, 100
9, 82036, Note_on_c, 6, 82, 0
9, 82040, Note_on_c, 6, 81, 100
9, 82076, Note_on_c, 6, 81, 0
9, 82080, Note_on_c, 6, 77, 100
9, 82116, Note_on_c, 6, 77, 0
9, 82120, Note_on_c, 6, 76, 100
9, 82156, Note_on_c, 6, 76, 0
9, 82160, Note_on_c, 6, 74, 100
9, 82196, Note_on_c, 6, 74, 0
9, 82200, Note_on_c, 6, 79, 100
9, 82200, Note_on_c, 6, 76, 100
9, 82308, Note_on_c, 6, 79, 0
9, 82308, Note_on_c, 6, 76, 0
9, 82320, Note_on_c, 6, 77, 100
9, 82320, Note_on_c, 6, 74, 100
9, 82428, Note_on_c, 6, 77, 0
9, 82428, Note_on_c, 6, 74, 0
9, 82440, Note_on_c, 6, 76, 100
9, 82440, Note_on_c, 6, 73, 100
9, 82548, Note_on_c, 6, 76, 0
9, 82548, Note_on_c, 6, 73, 0
9, 82560, Note_on_c, 6, 74, 100
9, 82560, Note_on_c, 6, 74, 100
9, 82668, Note_on_c, 6, 74, 0
9, 82668, Note_on_c, 6, 74, 0
9, 82680, Note_on_c, 6, 82, 100
9, 82740, Note_on_c, 6, 76, 100
9, 82788, Note_on_c, 6, 82, 0
9, 82794, Note_on_c, 6, 76, 0
9, 82800, Note_on_c, 6, 77, 100
9, 82800, Note_on_c, 6, 81, 100
9, 82860, Note_on_c, 6, 74, 100
9, 82908, Note_on_c, 6, 77, 0
9, 82908, Note_on_c, 6, 81, 0
9, 82914, Note_on_c, 6, 74, 0
9, 82920, Note_on_c, 6, 76, 100
9, 82920, Note_on_c, 6, 79, 100
9, 82980, Note_on_c, 6, 73, 100
9, 83028, Note_on_c, 6, 76, 0
9, 83028, Note_on_c, 6, 79, 0
9, 83034, Note_on_c, 6, 73, 0
9, 83040, Note_on_c, 6, 81, 100
9, 83076, Note_on_c, 6, 81, 0
9, 83080, Note_on_c, 6, 76, 100
9, 83116, Note_on_c, 6, 76, 0
9, 83120, Note_on_c, 6, 77, 100
9, 83156, Note_on_c, 6, 77, 0
9, 83160, Note_on_c, 6, 86, 100
9, 83196, Note_on_c, 6, 86, 0
9, 83200, Note_on_c, 6, 76, 100
9, 83236, Note_on_c, 6, 76, 0
9, 83240, Note_on_c, 6, 77, 100
9, 83276, Note_on_c, 6, 77, 0
9, 83280, Note_on_c, 6, 82, 100
9, 83316, Note_on_c, 6, 82, 0
9, 83320, Note_on_c, 6, 81, 100
9, 83356, Note_on_c, 6, 81, 0
9, 83360, Note_on_c, 6, 79, 100
9, 83396, Note_on_c, 6, 79, 0
9, 83400, Note_on_c, 6, 77, 100
9, 83436, Note_on_c, 6, 77, 0
9, 83440, Note_on_c, 6, 76, 100
9, 83476, Note_on_c, 6, 76, 0
9, 83480, Note_on_c, 6, 74, 100
9, 83516, Note_on_c, 6, 74, 0
9, 83520, Note_on_c, 6, 77, 100
9, 83556, Note_on_c, 6, 77, 0
9, 83560, Note_on_c, 6, 74, 100
9, 83596, Note_on_c, 6, 74, 0
9, 83600, Note_on_c, 6, 76, 100
9, 83636, Note_on_c, 6, 76, 0
9, 83640, Note_on_c, 6, 84, 100
9, 83676, Note_on_c, 6, 84, 0
9, 83680, Note_on_c, 6, 74, 100
9, 83716, Note_on_c, 6, 74, 0
9, 83720, Note_on_c, 6, 76, 100
9, 83756, Note_on_c, 6, 76, 0
9, 83760, Note_on_c, 6, 81, 100
9, 83796, Note_on_c, 6, 81, 0
9, 83800, Note_on_c, 6, 79, 100
9, 83836, Note_on_c, 6, 79, 0
9, 83840, Note_on_c, 6, 77, 100
9, 83876, Note_on_c, 6, 77, 0
9, 83880, Note_on_c, 6, 75, 100
9, 83916, Note_on_c, 6, 75, 0
9, 83920, Note_on_c, 6, 74, 100
9, 83956, Note_on_c, 6, 74, 0
9, 83960, Note_on_c, 6, 73, 100
9, 83996, Note_on_c, 6, 73, 0
9, 84000, Note_on_c, 6, 75, 100
9, 84036, Note_on_c, 6, 75, 0
9, 84040, Note_on_c, 6, 73, 100
9, 84076, Note_on_c, 6, 73, 0
9, 84080, Note_on_c, 6, 74, 100
9, 84116, Note_on_c, 6, 74, 0
9, 84120, Note_on_c, 6, 82, 100
9, 84156, Note_on_c, 6, 82, 0
9, 84160, Note_on_c, 6, 73, 100
9, 84196, Note_on_c, 6, 73, 0
9, 84200, Note_on_c, 6, 74, 100
9, 84236, Note_on_c, 6, 74, 0
9, 84240, Note_on_c, 6, 79, 100
9, 84276, Note_on_c, 6, 79, 0
9, 84280, Note_on_c, 6, 77, 100
9, 84316, Note_on_c, 6, 77, 0
9, 84320, Note_on_c, 6, 76, 100
9, 84356, Note_on_c, 6, 76, 0
9, 84360, Note_on_c, 6, 74, 100
9, 84396, Note_on_c, 6, 74, 0
9, 84400, Note_on_c, 6, 73, 100
9, 84436, Note_on_c, 6, 73, 0
9, 84440, Note_on_c, 6, 71, 100
9, 84476, Note_on_c, 6, 71, 0
9, 84480, Note_on_c, 6, 73, 100
9, 84516, Note_on_c, 6, 73, 0
9, 84520, Note_on_c, 6, 76, 100
9, 84556, Note_on_c, 6, 76, 0
9, 84560, Note_on_c, 6, 77, 100
9, 84596, Note_on_c, 6, 77, 0
9, 84600, Note_on_c, 6, 79, 100
9, 84636, Note_on_c, 6, 79, 0
9, 84640, Note_on_c, 6, 77, 100
9, 84676, Note_on_c, 6, 77, 0
9, 84680, Note_on_c, 6, 79, 100
9, 84716, Note_on_c, 6, 79, 0
9, 84720, Note_on_c, 6, 73, 100
9, 84756, Note_on_c, 6, 73, 0
9, 84760, Note_on_c, 6, 79, 100
9, 84796, Note_on_c, 6, 79, 0
9, 84800, Note_on_c, 6, 77, 100
9, 84836, Note_on_c, 6, 77, 0
9, 84840, Note_on_c, 6, 76, 100
9, 84876, Note_on_c, 6, 76, 0
9, 84880, Note_on_c, 6, 74, 100
9, 84916, Note_on_c, 6, 74, 0
9, 84920, Note_on_c, 6, 73, 100
9, 84956, Note_on_c, 6, 73, 0
9, 84960, Note_on_c, 6, 74, 100
9, 84996, Note_on_c, 6, 74, 0
9, 85000, Note_on_c, 6, 81, 100
9, 85036, Note_on_c, 6, 81, 0
9, 85040, Note_on_c, 6, 82, 100
9, 85076, Note_on_c, 6, 82, 0
9, 85080, Note_on_c, 6, 84, 100
9, 85116, Note_on_c, 6, 84, 0
9, 85120, Note_on_c, 6, 82, 100
9, 85156, Note_on_c, 6, 82, 0
9, 85160, Note_on_c, 6, 84, 100
9, 85196, Note_on_c, 6, 84, 0
9, 85200, Note_on_c, 6, 78, 100
9, 85236, Note_on_c, 6, 78, 0
9, 85240, Note_on_c, 6, 84, 100
9, 85276, Note_on_c, 6, 84, 0
9, 85280, Note_on_c, 6, 82, 100
9, 85316, Note_on_c, 6, 82, 0
9, 85320, Note_on_c, 6, 81, 100
9, 85356, Note_on_c, 6, 81, 0
9, 85360, Note_on_c, 6, 79, 100
9, 85396, Note_on_c, 6, 79, 0
9, 85400, Note_on_c, 6, 78, 100
9, 85436, Note_on_c, 6, 78, 0
9, 85440, Note_on_c, 6, 79, 100
9, 85956, Note_on_c, 6, 79, 0
9, 85960, Note_on_c, 6, 82, 100
9, 85996, Note_on_c, 6, 82, 0
9, 86000, Note_on_c, 6, 81, 100
9, 86036, Note_on_c, 6, 81, 0
9, 86040, Note_on_c, 6, 79, 100
9, 86076, Note_on_c, 6, 79, 0
9, 86080, Note_on_c, 6, 81, 100
9, 86116, Note_on_c, 6, 81, 0
9, 86120, Note_on_c, 6, 82, 100
9, 86156, Note_on_c, 6, 82, 0
9, 86160, Note_on_c, 6, 76, 100
9, 86196, Note_on_c, 6, 76, 0
9, 86200, Note_on_c, 6, 79, 100
9, 86236, Note_on_c, 6, 79, 0
9, 86240, Note_on_c, 6, 77, 100
9, 86276, Note_on_c, 6, 77, 0
9, 86280, Note_on_c, 6, 76, 100
9, 86316, Note_on_c, 6, 76, 0
9, 86320, Note_on_c, 6, 77, 100
9, 86356, Note_on_c, 6, 77, 0
9, 86360, Note_on_c, 6, 79, 100
9, 86396, Note_on_c, 6, 79, 0
9, 86400, Note_on_c, 6, 81, 100
9, 86508, Note_on_c, 6, 81, 0
9, 86520, Note_on_c, 6, 70, 100
9, 86556, Note_on_c, 6, 70, 0
9, 86560, Note_on_c, 6, 69, 100
9, 86596, Note_on_c, 6, 69, 0
9, 86600, Note_on_c, 6, 70, 100
9, 86636, Note_on_c, 6, 70, 0
9, 86640, Note_on_c, 6, 79, 100
9, 86748, Note_on_c, 6, 79, 0
9, 86760, Note_on_c, 6, 69, 100
9, 86796, Note_on_c, 6, 69, 0
9, 86800, Note_on_c, 6, 67, 100
9, 86836, Note_on_c, 6, 67, 0
9, 86840, Note_on_c, 6, 69, 100
9, 86876, Note_on_c, 6, 69, 0
9, 86880, Note_on_c, 6, 77, 100
9, 86988, Note_on_c, 6, 77, 0
9, 87000, Note_on_c, 6, 67, 100
9, 87036, Note_on_c, 6, 67, 0
9, 87040, Note_on_c, 6, 65, 100
9, 87076, Note_on_c, 6, 65, 0
9, 87080, Note_on_c, 6, 67, 100
9, 87116, Note_on_c, 6, 67, 0
9, 87120, Note_on_c, 6, 76, 100
9, 87228, Note_on_c, 6, 76, 0
9, 87240, Note_on_c, 6, 65, 100
9, 87276, Note_on_c, 6, 65, 0
9, 87280, Note_on_c, 6, 64, 100
9, 87316, Note_on_c, 6, 64, 0
9, 87320, Note_on_c, 6, 65, 100
9, 87356, Note_on_c, 6, 65, 0
9, 87360, Note_on_c, 6, 74, 100
9, 87396, Note_on_c, 6, 74, 0
9, 87400, Note_on_c, 6, 73, 100
9, 87436, Note_on_c, 6, 73, 0
9, 87440, Note_on_c, 6, 74, 100
9, 87476, Note_on_c, 6, 74, 0
9, 87480, Note_on_c, 6, 76, 100
9, 87516, Note_on_c, 6, 76, 0
9, 87520, Note_on_c, 6, 73, 100
9, 87556, Note_on_c, 6, 73, 0
9, 87560, Note_on_c, 6, 69, 100
9, 87596, Note_on_c, 6, 69, 0
9, 87600, Note_on_c, 6, 77, 100
9, 87636, Note_on_c, 6, 77, 0
9, 87640, Note_on_c, 6, 74, 100
9, 87676, Note_on_c, 6, 74, 0
9, 87680, Note_on_c, 6, 71, 100
9, 87716, Note_on_c, 6, 71, 0
9, 87720, Note_on_c, 6, 79, 100
9, 87756, Note_on_c, 6, 79, 0
9, 87760, Note_on_c, 6, 76, 100
9, 87796, Note_on_c, 6, 76, 0
9, 87800, Note_on_c, 6, 73, 100
9, 87836, Note_on_c, 6, 73, 0
9, 87840, Note_on_c, 6, 81, 100
9, 87876, Note_on_c, 6, 81, 0
9, 87880, Note_on_c, 6, 79, 100
9, 87916, Note_on_c, 6, 79, 0
9, 87920, Note_on_c, 6, 77, 100
9, 87956, Note_on_c, 6, 77, 0
9, 87960, Note_on_c, 6, 76, 100
9, 87996, Note_on_c, 6, 76, 0
9, 88000, Note_on_c, 6, 77, 100
9, 88036, Note_on_c, 6, 77, 0
9, 88040, Note_on_c, 6, 79, 100
9, 88076, Note_on_c, 6, 79, 0
9, 88080, Note_on_c, 6, 73, 100
9, 88242, Note_on_c, 6, 73, 0
9, 88260, Note_on_c, 6, 74, 100
9, 88314, Note_on_c, 6, 74, 0
9, 88320, Note_on_c, 6, 74, 100
9, 88374, Note_on_c, 6, 74, 0
9, 88380, Note_on_c, 6, 72, 100
9, 88407, Note_on_c, 6, 72, 0
9, 88410, Note_on_c, 6, 70, 100
9, 88437, Note_on_c, 6, 70, 0
9, 88440, Note_on_c, 6, 69, 100
9, 88467, Note_on_c, 6, 69, 0
9, 88470, Note_on_c, 6, 67, 100
9, 88497, Note_on_c, 6, 67, 0
9, 88500, Note_on_c, 6, 65, 100
9, 88527, Note_on_c, 6, 65, 0
9, 88530, Note_on_c, 6, 64, 100
9, 88557, Note_on_c, 6, 64, 0
9, 88560, Note_on_c, 6, 65, 100
9, 88587, Note_on_c, 6, 65, 0
9, 88590, Note_on_c, 6, 69, 100
9, 88617, Note_on_c, 6, 69, 0
9, 88620, Note_on_c, 6, 65, 100
9, 88647, Note_on_c, 6, 65, 0
9, 88650, Note_on_c, 6, 62, 100
9, 88677, Note_on_c, 6, 62, 0
9, 88680, Note_on_c, 6, 65, 100
9, 88707, Note_on_c, 6, 65, 0
9, 88710, Note_on_c, 6, 64, 100
9, 88737, Note_on_c, 6, 64, 0
9, 88740, Note_on_c, 6, 62, 100
9, 88767, Note_on_c, 6, 62, 0
9, 88770, Note_on_c, 6, 61, 100
9, 88797, Note_on_c, 6, 61, 0
9, 88800, Note_on_c, 6, 62, 100
9, 88827, Note_on_c, 6, 62, 0
9, 88830, Note_on_c, 6, 65, 100
9, 88857, Note_on_c, 6, 65, 0
9, 88860, Note_on_c, 6, 62, 100
9, 88887, Note_on_c, 6, 62, 0
9, 89700, Note_on_c, 6, 62, 100
9, 89727, Note_on_c, 6, 62, 0
9, 89730, Note_on_c, 6, 64, 100
9, 89757, Note_on_c, 6, 64, 0
9, 89760, Note_on_c, 6, 65, 100
9, 89787, Note_on_c, 6, 65, 0
9, 89790, Note_on_c, 6, 62, 100
9, 89817, Note_on_c, 6, 62, 0
9, 89820, Note_on_c, 6, 64, 100
9, 89847, Note_on_c, 6, 64, 0
9, 89850, Note_on_c, 6, 65, 100
9, 89877, Note_on_c, 6, 65, 0
9, 89940, Note_on_c, 6, 62, 100
9, 89967, Note_on_c, 6, 62, 0
9, 89970, Note_on_c, 6, 64, 100
9, 89997, Note_on_c, 6, 64, 0
9, 90000, Note_on_c, 6, 66, 100
9, 90027, Note_on_c, 6, 66, 0
9, 90030, Note_on_c, 6, 68, 100
9, 90057, Note_on_c, 6, 68, 0
9, 90060, Note_on_c, 6, 69, 100
9, 90087, Note_on_c, 6, 69, 0
9, 90090, Note_on_c, 6, 71, 100
9, 90117, Note_on_c, 6, 71, 0
9, 90120, Note_on_c, 6, 72, 100
9, 90147, Note_on_c, 6, 72, 0
9, 90150, Note_on_c, 6, 74, 100
9, 90177, Note_on_c, 6, 74, 0
9, 90180, Note_on_c, 6, 76, 100
9, 90207, Note_on_c, 6, 76, 0
9, 90210, Note_on_c, 6, 71, 100
9, 90237, Note_on_c, 6, 71, 0
9, 90240, Note_on_c, 6, 72, 100
9, 90240, Note_on_c, 6, 64, 100
9, 90348, Note_on_c, 6, 72, 0
9, 90348, Note_on_c, 6, 64, 0
9, 91800, Note_on_c, 6, 69, 100
9, 91854, Note_on_c, 6, 69, 0
9, 91860, Note_on_c, 6, 71, 100
9, 91914, Note_on_c, 6, 71, 0
9, 91920, Note_on_c, 6, 72, 100
9, 91974, Note_on_c, 6, 72, 0
9, 91980, Note_on_c, 6, 76, 100
9, 92034, Note_on_c, 6, 76, 0
9, 92040, Note_on_c, 6, 74, 100
9, 92094, Note_on_c, 6, 74, 0
9, 92100, Note_on_c, 6, 71, 100
9, 92154, Note_on_c, 6, 71, 0
9, 92160, Note_on_c, 6, 72, 100
9, 92187, Note_on_c, 6, 72, 0
9, 92190, Note_on_c, 6, 69, 100
9, 92217, Note_on_c, 6, 69, 0
9, 92220, Note_on_c, 6, 67, 100
9, 92247, Note_on_c, 6, 67, 0
9, 92250, Note_on_c, 6, 65, 100
9, 92277, Note_on_c, 6, 65, 0
9, 92280, Note_on_c, 6, 64, 100
9, 92307, Note_on_c, 6, 64, 0
9, 92310, Note_on_c, 6, 62, 100
9, 92337, Note_on_c, 6, 62, 0
9, 92340, Note_on_c, 6, 60, 100
9, 92367, Note_on_c, 6, 60, 0
9, 92370, Note_on_c, 6, 59, 100
9, 92397, Note_on_c, 6, 59, 0
9, 92400, Note_on_c, 6, 60, 100
9, 92427, Note_on_c, 6, 60, 0
9, 92430, Note_on_c, 6, 64, 100
9, 92457, Note_on_c, 6, 64, 0
9, 92460, Note_on_c, 6, 60, 100
9, 92487, Note_on_c, 6, 60, 0
9, 93840, Note_on_c, 6, 61, 100
9, 93867, Note_on_c, 6, 61, 0
9, 93870, Note_on_c, 6, 63, 100
9, 93897, Note_on_c, 6, 63, 0
9, 93900, Note_on_c, 6, 64, 100
9, 93927, Note_on_c, 6, 64, 0
9, 93930, Note_on_c, 6, 66, 100
9, 93957, Note_on_c, 6, 66, 0
9, 93960, Note_on_c, 6, 67, 100
9, 93987, Note_on_c, 6, 67, 0
9, 93990, Note_on_c, 6, 69, 100
9, 94017, Note_on_c, 6, 69, 0
9, 94020, Note_on_c, 6, 71, 100
9, 94047, Note_on_c, 6, 71, 0
9, 94050, Note_on_c, 6, 66, 100
9, 94077, Note_on_c, 6, 66, 0
9, 94080, Note_on_c, 6, 67, 100
9, 94080, Note_on_c, 6, 64, 100
9, 94188, Note_on_c, 6, 67, 0
9, 94188, Note_on_c, 6, 64, 0
9, 94680, Note_on_c, 6, 64, 100
9, 94734, Note_on_c, 6, 64, 0
9, 94740, Note_on_c, 6, 66, 100
9, 94794, Note_on_c, 6, 66, 0
9, 94800, Note_on_c, 6, 67, 100
9, 94800, Note_on_c, 6, 64, 100
9, 94836, Note_on_c, 6, 67, 0
9, 94836, Note_on_c, 6, 64, 0
9, 94840, Note_on_c, 6, 69, 100
9, 94840, Note_on_c, 6, 66, 100
9, 94876, Note_on_c, 6, 69, 0
9, 94876, Note_on_c, 6, 66, 0
9, 94880, Note_on_c, 6, 71, 100
9, 94880, Note_on_c, 6, 67, 100
9, 94916, Note_on_c, 6, 71, 0
9, 94916, Note_on_c, 6, 67, 0
9, 94920, Note_on_c, 6, 69, 100
9, 94920, Note_on_c, 6, 66, 100
9, 94956, Note_on_c, 6, 69, 0
9, 94956, Note_on_c, 6, 66, 0
9, 94960, Note_on_c, 6, 67, 100
9, 94960, Note_on_c, 6, 64, 100
9, 94996, Note_on_c, 6, 67, 0
9, 94996, Note_on_c, 6, 64, 0
9, 95000, Note_on_c, 6, 66, 100
9, 95000, Note_on_c, 6, 63, 100
9, 95036, Note_on_c, 6, 66, 0
9, 95036, Note_on_c, 6, 63, 0
9, 95040, Note_on_c, 6, 68, 100
9, 95040, Note_on_c, 6, 59, 100
9, 95148, Note_on_c, 6, 68, 0
9, 95148, Note_on_c, 6, 59, 0
9, 95520, Note_on_c, 6, 64, 100
9, 95520, Note_on_c, 6, 68, 100
9, 95520, Note_on_c, 6, 71, 100
9, 95520, Note_on_c, 6, 59, 100
9, 95628, Note_on_c, 6, 64, 0
9, 95628, Note_on_c, 6, 68, 0
9, 95628, Note_on_c, 6, 71, 0
9, 95628, Note_on_c, 6, 59, 0
9, 96120, Note_on_c, 6, 76, 100
9, 96120, Note_on_c, 6, 68, 100
9, 96228, Note_on_c, 6, 76, 0
9, 96228, Note_on_c, 6, 68, 0
9, 96240, Note_on_c, 6, 81, 100
9, 96240, Note_on_c, 6, 69, 100
9, 96321, Note_on_c, 6, 69, 0
9, 96330, Note_on_c, 6, 72, 100
9, 96348, Note_on_c, 6, 81, 0
9, 96357, Note_on_c, 6, 72, 0
9, 96360, Note_on_c, 6, 80, 100
9, 96360, Note_on_c, 6, 74, 100
9, 96441, Note_on_c, 6, 74, 0
9, 96450, Note_on_c, 6, 71, 100
9, 96468, Note_on_c, 6, 80, 0
9, 96477, Note_on_c, 6, 71, 0
9, 96480, Note_on_c, 6, 81, 100
9, 96480, Note_on_c, 6, 72, 100
9, 96588, Note_on_c, 6, 81, 0
9, 96588, Note_on_c, 6, 72, 0
9, 97080, Note_on_c, 6, 78, 100
9, 97080, Note_on_c, 6, 69, 100
9, 97188, Note_on_c, 6, 78, 0
9, 97188, Note_on_c, 6, 69, 0
9, 97200, Note_on_c, 6, 74, 100
9, 97200, Note_on_c, 6, 79, 100
9, 97200, Note_on_c, 6, 67, 100
9, 97281, Note_on_c, 6, 67, 0
9, 97290, Note_on_c, 6, 71, 100
9, 97308, Note_on_c, 6, 74, 0
9, 97308, Note_on_c, 6, 79, 0
9, 97317, Note_on_c, 6, 71, 0
9, 97320, Note_on_c, 6, 74, 100
9, 97320, Note_on_c, 6, 78, 100
9, 97320, Note_on_c, 6, 72, 100
9, 97401, Note_on_c, 6, 72, 0
9, 97410, Note_on_c, 6, 69, 100
9, 97428, Note_on_c, 6, 74, 0
9, 97428, Note_on_c, 6, 78, 0
9, 97437, Note_on_c, 6, 69, 0
9, 97440, Note_on_c, 6, 79, 100
9, 97440, Note_on_c, 6, 67, 100
9, 97548, Note_on_c, 6, 79, 0
9, 97548, Note_on_c, 6, 67, 0
9, 97950, Note_on_c, 6, 71, 100
9, 97977, Note_on_c, 6, 71, 0
9, 97980, Note_on_c, 6, 72, 100
9, 98007, Note_on_c, 6, 72, 0
9, 98010, Note_on_c, 6, 74, 100
9, 98037, Note_on_c, 6, 74, 0
9, 98040, Note_on_c, 6, 76, 100
9, 98100, Note_on_c, 6, 67, 100
9, 98154, Note_on_c, 6, 67, 0
9, 98160, Note_on_c, 6, 66, 100
9, 98214, Note_on_c, 6, 76, 0
9, 98220, Note_on_c, 6, 76, 100
9, 98274, Note_on_c, 6, 76, 0
9, 98280, Note_on_c, 6, 74, 100
9, 98322, Note_on_c, 6, 66, 0
9, 98340, Note_on_c, 6, 65, 100
9, 98394, Note_on_c, 6, 65, 0
9, 98400, Note_on_c, 6, 64, 100
9, 98454, Note_on_c, 6, 74, 0
9, 98460, Note_on_c, 6, 74, 100
9, 98514, Note_on_c, 6, 74, 0
9, 98520, Note_on_c, 6, 72, 100
9, 98562, Note_on_c, 6, 64, 0
9, 98580, Note_on_c, 6, 63, 100
9, 98634, Note_on_c, 6, 63, 0
9, 98640, Note_on_c, 6, 62, 100
9, 98694, Note_on_c, 6, 72, 0
9, 98700, Note_on_c, 6, 72, 100
9, 98754, Note_on_c, 6, 72, 0
9, 98760, Note_on_c, 6, 71, 100
9, 98802, Note_on_c, 6, 62, 0
9, 98820, Note_on_c, 6, 62, 100
9, 98874, Note_on_c, 6, 62, 0
9, 98880, Note_on_c, 6, 64, 100
9, 98934, Note_on_c, 6, 71, 0
9, 98934, Note_on_c, 6, 64, 0
9, 98970, Note_on_c, 6, 61, 100
9, 98997, Note_on_c, 6, 61, 0
9, 99000, Note_on_c, 6, 64, 100
9, 99027, Note_on_c, 6, 64, 0
9, 99030, Note_on_c, 6, 67, 100
9, 99057, Note_on_c, 6, 67, 0
9, 99060, Note_on_c, 6, 64, 100
9, 99087, Note_on_c, 6, 64, 0
9, 99090, Note_on_c, 6, 62, 100
9, 99117, Note_on_c, 6, 62, 0
9, 99120, Note_on_c, 6, 61, 100
9, 99147, Note_on_c, 6, 61, 0
9, 99150, Note_on_c, 6, 59, 100
9, 99177, Note_on_c, 6, 59, 0
9, 99180, Note_on_c, 6, 61, 100
9, 99207, Note_on_c, 6, 61, 0
9, 99210, Note_on_c, 6, 62, 100
9, 99237, Note_on_c, 6, 62, 0
9, 99240, Note_on_c, 6, 64, 100
9, 99267, Note_on_c, 6, 64, 0
9, 99270, Note_on_c, 6, 66, 100
9, 99297, Note_on_c, 6, 66, 0
9, 99300, Note_on_c, 6, 67, 100
9, 99327, Note_on_c, 6, 67, 0
9, 99330, Note_on_c, 6, 69, 100
9, 99357, Note_on_c, 6, 69, 0
9, 99360, Note_on_c, 6, 71, 100
9, 99387, Note_on_c, 6, 71, 0
9, 99390, Note_on_c, 6, 64, 100
9, 99417, Note_on_c, 6, 64, 0
9, 99420, Note_on_c, 6, 66, 100
9, 99447, Note_on_c, 6, 66, 0
9, 99450, Note_on_c, 6, 67, 100
9, 99477, Note_on_c, 6, 67, 0
9, 99480, Note_on_c, 6, 64, 100
9, 99507, Note_on_c, 6, 64, 0
9, 99510, Note_on_c, 6, 62, 100
9, 99537, Note_on_c, 6, 62, 0
9, 99540, Note_on_c, 6, 64, 100
9, 99567, Note_on_c, 6, 64, 0
9, 99570, Note_on_c, 6, 66, 100
9, 99597, Note_on_c, 6, 66, 0
9, 99600, Note_on_c, 6, 67, 100
9, 99627, Note_on_c, 6, 67, 0
9, 99630, Note_on_c, 6, 69, 100
9, 99657, Note_on_c, 6, 69, 0
9, 99660, Note_on_c, 6, 71, 100
9, 99687, Note_on_c, 6, 71, 0
9, 99690, Note_on_c, 6, 73, 100
9, 99717, Note_on_c, 6, 73, 0
9, 99720, Note_on_c, 6, 74, 100
9, 99747, Note_on_c, 6, 74, 0
9, 99750, Note_on_c, 6, 76, 100
9, 99777, Note_on_c, 6, 76, 0
9, 99780, Note_on_c, 6, 78, 100
9, 99807, Note_on_c, 6, 78, 0
9, 99810, Note_on_c, 6, 79, 100
9, 99837, Note_on_c, 6, 79, 0
9, 99840, Note_on_c, 6, 81, 100
9, 99867, Note_on_c, 6, 81, 0
9, 99870, Note_on_c, 6, 78, 100
9, 99897, Note_on_c, 6, 78, 0
9, 99900, Note_on_c, 6, 79, 100
9, 99927, Note_on_c, 6, 79, 0
9, 99930, Note_on_c, 6, 81, 100
9, 99957, Note_on_c, 6, 81, 0
9, 99960, Note_on_c, 6, 74, 100
9, 99987, Note_on_c, 6, 74, 0
9, 99990, Note_on_c, 6, 76, 100
9, 100017, Note_on_c, 6, 76, 0
9, 100020, Note_on_c, 6, 78, 100
9, 100047, Note_on_c, 6, 78, 0
9, 100050, Note_on_c, 6, 74, 100
9, 100077, Note_on_c, 6, 74, 0
9, 100080, Note_on_c, 6, 69, 100
9, 100107, Note_on_c, 6, 69, 0
9, 100110, Note_on_c, 6, 74, 100
9, 100137, Note_on_c, 6, 74, 0
9, 100140, Note_on_c, 6, 73, 100
9, 100167, Note_on_c, 6, 73, 0
9, 100170, Note_on_c, 6, 71, 100
9, 100197, Note_on_c, 6, 71, 0
9, 100200, Note_on_c, 6, 69, 100
9, 100227, Note_on_c, 6, 69, 0
9, 100230, Note_on_c, 6, 67, 100
9, 100257, Note_on_c, 6, 67, 0
9, 100260, Note_on_c, 6, 66, 100
9, 100287, Note_on_c, 6, 66, 0
9, 100290, Note_on_c, 6, 64, 100
9, 100317, Note_on_c, 6, 64, 0
9, 100320, Note_on_c, 6, 62, 100
9, 100347, Note_on_c, 6, 62, 0
9, 100350, Note_on_c, 6, 64, 100
9, 100377, Note_on_c, 6, 64, 0
9, 100380, Note_on_c, 6, 66, 100
9, 100407, Note_on_c, 6, 66, 0
9, 100410, Note_on_c, 6, 61, 100
9, 100437, Note_on_c, 6, 61, 0
9, 100440, Note_on_c, 6, 62, 100
9, 100467, Note_on_c, 6, 62, 0
9, 100920, Note_on_c, 6, 67, 100
9, 100974, Note_on_c, 6, 67, 0
9, 100980, Note_on_c, 6, 69, 100
9, 101034, Note_on_c, 6, 69, 0
9, 101040, Note_on_c, 6, 71, 100
9, 101094, Note_on_c, 6, 71, 0
9, 101100, Note_on_c, 6, 74, 100
9, 101154, Note_on_c, 6, 74, 0
9, 101160, Note_on_c, 6, 72, 100
9, 101214, Note_on_c, 6, 72, 0
9, 101220, Note_on_c, 6, 69, 100
9, 101274, Note_on_c, 6, 69, 0
9, 101280, Note_on_c, 6, 71, 100
9, 101496, Note_on_c, 6, 71, 0
9, 101640, Note_on_c, 6, 69, 100
9, 101748, Note_on_c, 6, 69, 0
9, 101760, Note_on_c, 6, 62, 100
9, 101868, Note_on_c, 6, 62, 0
9, 101880, Note_on_c, 6, 66, 100
9, 101988, Note_on_c, 6, 66, 0
9, 102000, Note_on_c, 6, 67, 100
9, 102108, Note_on_c, 6, 67, 0
9, 102120, Note_on_c, 6, 66, 100
9, 102228, Note_on_c, 6, 66, 0
9, 102240, Note_on_c, 6, 67, 100
9, 102348, Note_on_c, 6, 67, 0
9, 102600, Note_on_c, 6, 57, 100
9, 102636, Note_on_c, 6, 57, 0
9, 102640, Note_on_c, 6, 67, 100
9, 102676, Note_on_c, 6, 67, 0
9, 102680, Note_on_c, 6, 66, 100
9, 102716, Note_on_c, 6, 66, 0
9, 102720, Note_on_c, 6, 59, 100
9, 102756, Note_on_c, 6, 59, 0
9, 102760, Note_on_c, 6, 60, 100
9, 102796, Note_on_c, 6, 60, 0
9, 102800, Note_on_c, 6, 62, 100
9, 102836, Note_on_c, 6, 62, 0
9, 102840, Note_on_c, 6, 67, 100
9, 102876, Note_on_c, 6, 67, 0
9, 102880, Note_on_c, 6, 66, 100
9, 102916, Note_on_c, 6, 66, 0
9, 102920, Note_on_c, 6, 67, 100
9, 102956, Note_on_c, 6, 67, 0
9, 102960, Note_on_c, 6, 60, 100
9, 102996, Note_on_c, 6, 60, 0
9, 103000, Note_on_c, 6, 62, 100
9, 103036, Note_on_c, 6, 62, 0
9, 103040, Note_on_c, 6, 64, 100
9, 103076, Note_on_c, 6, 64, 0
9, 103080, Note_on_c, 6, 69, 100
9, 103116, Note_on_c, 6, 69, 0
9, 103120, Note_on_c, 6, 67, 100
9, 103156, Note_on_c, 6, 67, 0
9, 103160, Note_on_c, 6, 69, 100
9, 103196, Note_on_c, 6, 69, 0
9, 103200, Note_on_c, 6, 62, 100
9, 103236, Note_on_c, 6, 62, 0
9, 103240, Note_on_c, 6, 64, 100
9, 103276, Note_on_c, 6, 64, 0
9, 103280, Note_on_c, 6, 65, 100
9, 103316, Note_on_c, 6, 65, 0
9, 103320, Note_on_c, 6, 71, 100
9, 103356, Note_on_c, 6, 71, 0
9, 103360, Note_on_c, 6, 69, 100
9, 103396, Note_on_c, 6, 69, 0
9, 103400, Note_on_c, 6, 71, 100
9, 103436, Note_on_c, 6, 71, 0
9, 103440, Note_on_c, 6, 64, 100
9, 103476, Note_on_c, 6, 64, 0
9, 103480, Note_on_c, 6, 65, 100
9, 103516, Note_on_c, 6, 65, 0
9, 103520, Note_on_c, 6, 67, 100
9, 103556, Note_on_c, 6, 67, 0
9, 103560, Note_on_c, 6, 72, 100
9, 103596, Note_on_c, 6, 72, 0
9, 103600, Note_on_c, 6, 71, 100
9, 103636, Note_on_c, 6, 71, 0
9, 103640, Note_on_c, 6, 72, 100
9, 103676, Note_on_c, 6, 72, 0
9, 103680, Note_on_c, 6, 66, 100
9, 103716, Note_on_c, 6, 66, 0
9, 103720, Note_on_c, 6, 67, 100
9, 103756, Note_on_c, 6, 67, 0
9, 103760, Note_on_c, 6, 69, 100
9, 103796, Note_on_c, 6, 69, 0
9, 103800, Note_on_c, 6, 72, 100
9, 103836, Note_on_c, 6, 72, 0
9, 103840, Note_on_c, 6, 71, 100
9, 103876, Note_on_c, 6, 71, 0
9, 103880, Note_on_c, 6, 72, 100
9, 103916, Note_on_c, 6, 72, 0
9, 103920, Note_on_c, 6, 66, 100
9, 103956, Note_on_c, 6, 66, 0
9, 103960, Note_on_c, 6, 69, 100
9, 103996, Note_on_c, 6, 69, 0
9, 104000, Note_on_c, 6, 72, 100
9, 104036, Note_on_c, 6, 72, 0
9, 104040, Note_on_c, 6, 76, 100
9, 104076, Note_on_c, 6, 76, 0
9, 104080, Note_on_c, 6, 74, 100
9, 104116, Note_on_c, 6, 74, 0
9, 104120, Note_on_c, 6, 72, 100
9, 104156, Note_on_c, 6, 72, 0
9, 104160, Note_on_c, 6, 71, 100
9, 104196, Note_on_c, 6, 71, 0
9, 104200, Note_on_c, 6, 69, 100
9, 104236, Note_on_c, 6, 69, 0
9, 104240, Note_on_c, 6, 67, 100
9, 104276, Note_on_c, 6, 67, 0
9, 104280, Note_on_c, 6, 74, 100
9, 104316, Note_on_c, 6, 74, 0
9, 104320, Note_on_c, 6, 72, 100
9, 104356, Note_on_c, 6, 72, 0
9, 104360, Note_on_c, 6, 71, 100
9, 104396, Note_on_c, 6, 71, 0
9, 104400, Note_on_c, 6, 77, 100
9, 104436, Note_on_c, 6, 77, 0
9, 104440, Note_on_c, 6, 76, 100
9, 104476, Note_on_c, 6, 76, 0
9, 104480, Note_on_c, 6, 74, 100
9, 104516, Note_on_c, 6, 74, 0
9, 104520, Note_on_c, 6, 80, 100
9, 104556, Note_on_c, 6, 80, 0
9, 104560, Note_on_c, 6, 79, 100
9, 104596, Note_on_c, 6, 79, 0
9, 104600, Note_on_c, 6, 77, 100
9, 104636, Note_on_c, 6, 77, 0
9, 104640, Note_on_c, 6, 74, 100
9, 104640, Note_on_c, 6, 77, 100
9, 104640, Note_on_c, 6, 83, 100
9, 104640, Note_on_c, 6, 71, 100
9, 104856, Note_on_c, 6, 74, 0
9, 104856, Note_on_c, 6, 77, 0
9, 104856, Note_on_c, 6, 83, 0
9, 104856, Note_on_c, 6, 71, 0
9, 105120, Note_on_c, 6, 76, 100
9, 105120, Note_on_c, 6, 79, 100
9, 105120, Note_on_c, 6, 82, 100
9, 105120, Note_on_c, 6, 72, 100
9, 105336, Note_on_c, 6, 76, 0
9, 105336, Note_on_c, 6, 79, 0
9, 105336, Note_on_c, 6, 82, 0
9, 105336, Note_on_c, 6, 72, 0
9, 105600, Note_on_c, 6, 81, 100
9, 105600, Note_on_c, 6, 69, 100
9, 105600, Note_on_c, 6, 76, 100
9, 105600, Note_on_c, 6, 79, 100
9, 105816, Note_on_c, 6, 81, 0
9, 105816, Note_on_c, 6, 69, 0
9, 105816, Note_on_c, 6, 76, 0
9, 105816, Note_on_c, 6, 79, 0
9, 106080, Note_on_c, 6, 83, 100
9, 106080, Note_on_c, 6, 74, 100
9, 106080, Note_on_c, 6, 77, 100
9, 106080, Note_on_c, 6, 81, 100
9, 106296, Note_on_c, 6, 83, 0
9, 106296, Note_on_c, 6, 74, 0
9, 106296, Note_on_c, 6, 77, 0
9, 106296, Note_on_c, 6, 81, 0
9, 106620, Note_on_c, 6, 64, 100
9, 106674, Note_on_c, 6, 64, 0
9, 106680, Note_on_c, 6, 71, 100
9, 106734, Note_on_c, 6, 71, 0
9, 106740, Note_on_c, 6, 72, 100
9, 106794, Note_on_c, 6, 72, 0
9, 106800, Note_on_c, 6, 74, 100
9, 106854, Note_on_c, 6, 74, 0
9, 106860, Note_on_c, 6, 77, 100
9, 106914, Note_on_c, 6, 77, 0
9, 106920, Note_on_c, 6, 76, 100
9, 106974, Note_on_c, 6, 76, 0
9, 106980, Note_on_c, 6, 71, 100
9, 107034, Note_on_c, 6, 71, 0
9, 107040, Note_on_c, 6, 72, 100
9, 107076, Note_on_c, 6, 72, 0
9, 107080, Note_on_c, 6, 74, 100
9, 107116, Note_on_c, 6, 74, 0
9, 107120, Note_on_c, 6, 76, 100
9, 107156, Note_on_c, 6, 76, 0
9, 107160, Note_on_c, 6, 81, 100
9, 107196, Note_on_c, 6, 81, 0
9, 107200, Note_on_c, 6, 79, 100
9, 107236, Note_on_c, 6, 79, 0
9, 107240, Note_on_c, 6, 81, 100
9, 107276, Note_on_c, 6, 81, 0
9, 107280, Note_on_c, 6, 71, 100
9, 107316, Note_on_c, 6, 71, 0
9, 107320, Note_on_c, 6, 72, 100
9, 107356, Note_on_c, 6, 72, 0
9, 107360, Note_on_c, 6, 74, 100
9, 107396, Note_on_c, 6, 74, 0
9, 107400, Note_on_c, 6, 79, 100
9, 107436, Note_on_c, 6, 79, 0
9, 107440, Note_on_c, 6, 77, 100
9, 107476, Note_on_c, 6, 77, 0
9, 107480, Note_on_c, 6, 79, 100
9, 107516, Note_on_c, 6, 79, 0
9, 107520, Note_on_c, 6, 69, 100
9, 107556, Note_on_c, 6, 69, 0
9, 107560, Note_on_c, 6, 71, 100
9, 107596, Note_on_c, 6, 71, 0
9, 107600, Note_on_c, 6, 72, 100
9, 107636, Note_on_c, 6, 72, 0
9, 107640, Note_on_c, 6, 77, 100
9, 107676, Note_on_c, 6, 77, 0
9, 107680, Note_on_c, 6, 76, 100
9, 107716, Note_on_c, 6, 76, 0
9, 107720, Note_on_c, 6, 77, 100
9, 107756, Note_on_c, 6, 77, 0
9, 107760, Note_on_c, 6, 68, 100
9, 107796, Note_on_c, 6, 68, 0
9, 107800, Note_on_c, 6, 69, 100
9, 107836, Note_on_c, 6, 69, 0
9, 107840, Note_on_c, 6, 71, 100
9, 107876, Note_on_c, 6, 71, 0
9, 107880, Note_on_c, 6, 76, 100
9, 107916, Note_on_c, 6, 76, 0
9, 107920, Note_on_c, 6, 74, 100
9, 107956, Note_on_c, 6, 74, 0
9, 107960, Note_on_c, 6, 76, 100
9, 107996, Note_on_c, 6, 76, 0
9, 108000, Note_on_c, 6, 66, 100
9, 108036, Note_on_c, 6, 66, 0
9, 108040, Note_on_c, 6, 68, 100
9, 108076, Note_on_c, 6, 68, 0
9, 108080, Note_on_c, 6, 69, 100
9, 108116, Note_on_c, 6, 69, 0
9, 108120, Note_on_c, 6, 74, 100
9, 108156, Note_on_c, 6, 74, 0
9, 108160, Note_on_c, 6, 72, 100
9, 108196, Note_on_c, 6, 72, 0
9, 108200, Note_on_c, 6, 74, 100
9, 108236, Note_on_c, 6, 74, 0
9, 108240, Note_on_c, 6, 65, 100
9, 108276, Note_on_c, 6, 65, 0
9, 108280, Note_on_c, 6, 68, 100
9, 108316, Note_on_c, 6, 68, 0
9, 108320, Note_on_c, 6, 71, 100
9, 108356, Note_on_c, 6, 71, 0
9, 108360, Note_on_c, 6, 74, 100
9, 108396, Note_on_c, 6, 74, 0
9, 108400, Note_on_c, 6, 72, 100
9, 108436, Note_on_c, 6, 72, 0
9, 108440, Note_on_c, 6, 74, 100
9, 108476, Note_on_c, 6, 74, 0
9, 108480, Note_on_c, 6, 64, 100
9, 108588, Note_on_c, 6, 64, 0
9, 108600, Note_on_c, 6, 68, 100
9, 108636, Note_on_c, 6, 68, 0
9, 108640, Note_on_c, 6, 69, 100
9, 108676, Note_on_c, 6, 69, 0
9, 108680, Note_on_c, 6, 71, 100
9, 108716, Note_on_c, 6, 71, 0
9, 108720, Note_on_c, 6, 76, 100
9, 108828, Note_on_c, 6, 76, 0
9, 108840, Note_on_c, 6, 72, 100
9, 108876, Note_on_c, 6, 72, 0
9, 108880, Note_on_c, 6, 74, 100
9, 108916, Note_on_c, 6, 74, 0
9, 108920, Note_on_c, 6, 76, 100
9, 108956, Note_on_c, 6, 76, 0
9, 108960, Note_on_c, 6, 81, 100
9, 109068, Note_on_c, 6, 81, 0
9, 109080, Note_on_c, 6, 66, 100
9, 109116, Note_on_c, 6, 66, 0
9, 109120, Note_on_c, 6, 67, 100
9, 109156, Note_on_c, 6, 67, 0
9, 109160, Note_on_c, 6, 69, 100
9, 109196, Note_on_c, 6, 69, 0
9, 109200, Note_on_c, 6, 63, 100
9, 109236, Note_on_c, 6, 63, 0
9, 109240, Note_on_c, 6, 64, 100
9, 109276, Note_on_c, 6, 64, 0
9, 109280, Note_on_c, 6, 66, 100
9, 109316, Note_on_c, 6, 66, 0
9, 109320, Note_on_c, 6, 59, 100
9, 109356, Note_on_c, 6, 59, 0
9, 109360, Note_on_c, 6, 60, 100
9, 109396, Note_on_c, 6, 60, 0
9, 109400, Note_on_c, 6, 62, 100
9, 109436, Note_on_c, 6, 62, 0
9, 110400, Note_on_c, 6, 62, 100
9, 110436, Note_on_c, 6, 62, 0
9, 110440, Note_on_c, 6, 64, 100
9, 110476, Note_on_c, 6, 64, 0
9, 110480, Note_on_c, 6, 65, 100
9, 110516, Note_on_c, 6, 65, 0
9, 110520, Note_on_c, 6, 59, 100
9, 110628, Note_on_c, 6, 59, 0
9, 110640, Note_on_c, 6, 71, 100
9, 110676, Note_on_c, 6, 71, 0
9, 110680, Note_on_c, 6, 72, 100
9, 110716, Note_on_c, 6, 72, 0
9, 110720, Note_on_c, 6, 74, 100
9, 110756, Note_on_c, 6, 74, 0
9, 110760, Note_on_c, 6, 68, 100
9, 110868, Note_on_c, 6, 68, 0
9, 110880, Note_on_c, 6, 74, 100
9, 110916, Note_on_c, 6, 74, 0
9, 110920, Note_on_c, 6, 76, 100
9, 110956, Note_on_c, 6, 76, 0
9, 110960, Note_on_c, 6, 77, 100
9, 110996, Note_on_c, 6, 77, 0
9, 111000, Note_on_c, 6, 71, 100
9, 111108, Note_on_c, 6, 71, 0
9, 111120, Note_on_c, 6, 80, 100
9, 111156, Note_on_c, 6, 80, 0
9, 111160, Note_on_c, 6, 81, 100
9, 111196, Note_on_c, 6, 81, 0
9, 111200, Note_on_c, 6, 83, 100
9, 111236, Note_on_c, 6, 83, 0
9, 111240, Note_on_c, 6, 74, 100
9, 111321, Note_on_c, 6, 74, 0
9, 111330, Note_on_c, 6, 74, 100
9, 111357, Note_on_c, 6, 74, 0
9, 111360, Note_on_c, 6, 74, 100
9, 111480, Note_on_c, 6, 64, 100
9, 111516, Note_on_c, 6, 64, 0
9, 111520, Note_on_c, 6, 62, 100
9, 111556, Note_on_c, 6, 62, 0
9, 111560, Note_on_c, 6, 64, 100
9, 111596, Note_on_c, 6, 64, 0
9, 111720, Note_on_c, 6, 66, 100
9, 111756, Note_on_c, 6, 66, 0
9, 111760, Note_on_c, 6, 64, 100
9, 111796, Note_on_c, 6, 64, 0
9, 111800, Note_on_c, 6, 66, 100
9, 111836, Note_on_c, 6, 66, 0
9, 111960, Note_on_c, 6, 68, 100
9, 111996, Note_on_c, 6, 68, 0
9, 112000, Note_on_c, 6, 66, 100
9, 112036, Note_on_c, 6, 66, 0
9, 112040, Note_on_c, 6, 68, 100
9, 112076, Note_on_c, 6, 68, 0
9, 112080, Note_on_c, 6, 60, 100
9, 112116, Note_on_c, 6, 60, 0
9, 112120, Note_on_c, 6, 62, 100
9, 112156, Note_on_c, 6, 62, 0
9, 112160, Note_on_c, 6, 64, 100
9, 112196, Note_on_c, 6, 64, 0
9, 112200, Note_on_c, 6, 69, 100
9, 112236, Note_on_c, 6, 69, 0
9, 112240, Note_on_c, 6, 68, 100
9, 112276, Note_on_c, 6, 68, 0
9, 112280, Note_on_c, 6, 69, 100
9, 112316, Note_on_c, 6, 69, 0
9, 112320, Note_on_c, 6, 62, 100
9, 112356, Note_on_c, 6, 62, 0
9, 112360, Note_on_c, 6, 64, 100
9, 112396, Note_on_c, 6, 64, 0
9, 112400, Note_on_c, 6, 65, 100
9, 112436, Note_on_c, 6, 65, 0
9, 112440, Note_on_c, 6, 71, 100
9, 112476, Note_on_c, 6, 71, 0
9, 112480, Note_on_c, 6, 69, 100
9, 112516, Note_on_c, 6, 69, 0
9, 112520, Note_on_c, 6, 71, 100
9, 112556, Note_on_c, 6, 71, 0
9, 112560, Note_on_c, 6, 60, 100
9, 112596, Note_on_c, 6, 60, 0
9, 112600, Note_on_c, 6, 62, 100
9, 112636, Note_on_c, 6, 62, 0
9, 112640, Note_on_c, 6, 64, 100
9, 112676, Note_on_c, 6, 64, 0
9, 112680, Note_on_c, 6, 69, 100
9, 112716, Note_on_c, 6, 69, 0
9, 112720, Note_on_c, 6, 68, 100
9, 112756, Note_on_c, 6, 68, 0
9, 112760, Note_on_c, 6, 69, 100
9, 112796, Note_on_c, 6, 69, 0
9, 112836, Note_on_c, 6, 74, 0
9, 112840, Note_on_c, 6, 76, 100
9, 112876, Note_on_c, 6, 76, 0
9, 112880, Note_on_c, 6, 77, 100
9, 112916, Note_on_c, 6, 77, 0
9, 112920, Note_on_c, 6, 83, 100
9, 112920, Note_on_c, 6, 68, 100
9, 112956, Note_on_c, 6, 83, 0
9, 112956, Note_on_c, 6, 68, 0
9, 112960, Note_on_c, 6, 81, 100
9, 112960, Note_on_c, 6, 66, 100
9, 112996, Note_on_c, 6, 81, 0
9, 112996, Note_on_c, 6, 66, 0
9, 113000, Note_on_c, 6, 83, 100
9, 113000, Note_on_c, 6, 68, 100
9, 113036, Note_on_c, 6, 83, 0
9, 113036, Note_on_c, 6, 68, 0
9, 113040, Note_on_c, 6, 72, 100
9, 113076, Note_on_c, 6, 72, 0
9, 113080, Note_on_c, 6, 74, 100
9, 113116, Note_on_c, 6, 74, 0
9, 113120, Note_on_c, 6, 76, 100
9, 113156, Note_on_c, 6, 76, 0
9, 113160, Note_on_c, 6, 81, 100
9, 113160, Note_on_c, 6, 65, 100
9, 113196, Note_on_c, 6, 81, 0
9, 113196, Note_on_c, 6, 65, 0
9, 113200, Note_on_c, 6, 79, 100
9, 113200, Note_on_c, 6, 64, 100
9, 113236, Note_on_c, 6, 79, 0
9, 113236, Note_on_c, 6, 64, 0
9, 113240, Note_on_c, 6, 81, 100
9, 113240, Note_on_c, 6, 65, 100
9, 113276, Note_on_c, 6, 81, 0
9, 113276, Note_on_c, 6, 65, 0
9, 113280, Note_on_c, 6, 71, 100
9, 113316, Note_on_c, 6, 71, 0
9, 113320, Note_on_c, 6, 72, 100
9, 113356, Note_on_c, 6, 72, 0
9, 113360, Note_on_c, 6, 74, 100
9, 113396, Note_on_c, 6, 74, 0
9, 113400, Note_on_c, 6, 79, 100
9, 113400, Note_on_c, 6, 64, 100
9, 113436, Note_on_c, 6, 79, 0
9, 113436, Note_on_c, 6, 64, 0
9, 113440, Note_on_c, 6, 77, 100
9, 113440, Note_on_c, 6, 62, 100
9, 113476, Note_on_c, 6, 77, 0
9, 113476, Note_on_c, 6, 62, 0
9, 113480, Note_on_c, 6, 79, 100
9, 113480, Note_on_c, 6, 64, 100
9, 113516, Note_on_c, 6, 79, 0
9, 113516, Note_on_c, 6, 64, 0
9, 113520, Note_on_c, 6, 69, 100
9, 113556, Note_on_c, 6, 69, 0
9, 113560, Note_on_c, 6, 71, 100
9, 113596, Note_on_c, 6, 71, 0
9, 113600, Note_on_c, 6, 72, 100
9, 113636, Note_on_c, 6, 72, 0
9, 113640, Note_on_c, 6, 77, 100
9, 113676, Note_on_c, 6, 77, 0
9, 113680, Note_on_c, 6, 76, 100
9, 113716, Note_on_c, 6, 76, 0
9, 113720, Note_on_c, 6, 77, 100
9, 113756, Note_on_c, 6, 77, 0
9, 113760, Note_on_c, 6, 67, 100
9, 113796, Note_on_c, 6, 67, 0
9, 113800, Note_on_c, 6, 69, 100
9, 113836, Note_on_c, 6, 69, 0
9, 113840, Note_on_c, 6, 70, 100
9, 113876, Note_on_c, 6, 70, 0
9, 113880, Note_on_c, 6, 76, 100
9, 113916, Note_on_c, 6, 76, 0
9, 113920, Note_on_c, 6, 74, 100
9, 113956, Note_on_c, 6, 74, 0
9, 113960, Note_on_c, 6, 76, 100
9, 113996, Note_on_c, 6, 76, 0
9, 114000, Note_on_c, 6, 65, 100
9, 114036, Note_on_c, 6, 65, 0
9, 114040, Note_on_c, 6, 67, 100
9, 114076, Note_on_c, 6, 67, 0
9, 114080, Note_on_c, 6, 69, 100
9, 114116, Note_on_c, 6, 69, 0
9, 114120, Note_on_c, 6, 74, 100
9, 114156, Note_on_c, 6, 74, 0
9, 114160, Note_on_c, 6, 73, 100
9, 114196, Note_on_c, 6, 73, 0
9, 114200, Note_on_c, 6, 74, 100
9, 114236, Note_on_c, 6, 74, 0
9, 114240, Note_on_c, 6, 68, 100
9, 114276, Note_on_c, 6, 68, 0
9, 114280, Note_on_c, 6, 69, 100
9, 114316, Note_on_c, 6, 69, 0
9, 114320, Note_on_c, 6, 71, 100
9, 114356, Note_on_c, 6, 71, 0
9, 114360, Note_on_c, 6, 74, 100
9, 114396, Note_on_c, 6, 74, 0
9, 114400, Note_on_c, 6, 72, 100
9, 114436, Note_on_c, 6, 72, 0
9, 114440, Note_on_c, 6, 74, 100
9, 114476, Note_on_c, 6, 74, 0
9, 114480, Note_on_c, 6, 69, 100
9, 114516, Note_on_c, 6, 69, 0
9, 114520, Note_on_c, 6, 71, 100
9, 114556, Note_on_c, 6, 71, 0
9, 114560, Note_on_c, 6, 72, 100
9, 114596, Note_on_c, 6, 72, 0
9, 114600, Note_on_c, 6, 74, 100
9, 114636, Note_on_c, 6, 74, 0
9, 114640, Note_on_c, 6, 72, 100
9, 114676, Note_on_c, 6, 72, 0
9, 114680, Note_on_c, 6, 74, 100
9, 114716, Note_on_c, 6, 74, 0
9, 114840, Note_on_c, 6, 62, 100
9, 114867, Note_on_c, 6, 62, 0
9, 114870, Note_on_c, 6, 64, 100
9, 114897, Note_on_c, 6, 64, 0
9, 114900, Note_on_c, 6, 65, 100
9, 114927, Note_on_c, 6, 65, 0
9, 114930, Note_on_c, 6, 62, 100
9, 114957, Note_on_c, 6, 62, 0
9, 114960, Note_on_c, 6, 71, 100
9, 114987, Note_on_c, 6, 71, 0
9, 114990, Note_on_c, 6, 68, 100
9, 115017, Note_on_c, 6, 68, 0
9, 115020, Note_on_c, 6, 65, 100
9, 115047, Note_on_c, 6, 65, 0
9, 115050, Note_on_c, 6, 64, 100
9, 115077, Note_on_c, 6, 64, 0
9, 115080, Note_on_c, 6, 62, 100
9, 115107, Note_on_c, 6, 62, 0
9, 115320, Note_on_c, 6, 62, 100
9, 115347, Note_on_c, 6, 62, 0
9, 115350, Note_on_c, 6, 64, 100
9, 115377, Note_on_c, 6, 64, 0
9, 115380, Note_on_c, 6, 65, 100
9, 115407, Note_on_c, 6, 65, 0
9, 115410, Note_on_c, 6, 62, 100
9, 115437, Note_on_c, 6, 62, 0
9, 115440, Note_on_c, 6, 71, 100
9, 115467, Note_on_c, 6, 71, 0
9, 115470, Note_on_c, 6, 69, 100
9, 115497, Note_on_c, 6, 69, 0
9, 115500, Note_on_c, 6, 68, 100
9, 115527, Note_on_c, 6, 68, 0
9, 115530, Note_on_c, 6, 65, 100
9, 115557, Note_on_c, 6, 65, 0
9, 115560, Note_on_c, 6, 64, 100
9, 115587, Note_on_c, 6, 64, 0
9, 115800, Note_on_c, 6, 64, 100
9, 115827, Note_on_c, 6, 64, 0
9, 115830, Note_on_c, 6, 66, 100
9, 115857, Note_on_c, 6, 66, 0
9, 115860, Note_on_c, 6, 68, 100
9, 115887, Note_on_c, 6, 68, 0
9, 115890, Note_on_c, 6, 64, 100
9, 115917, Note_on_c, 6, 64, 0
9, 115920, Note_on_c, 6, 72, 100
9, 115947, Note_on_c, 6, 72, 0
9, 115950, Note_on_c, 6, 69, 100
9, 115977, Note_on_c, 6, 69, 0
9, 115980, Note_on_c, 6, 67, 100
9, 116007, Note_on_c, 6, 67, 0
9, 116010, Note_on_c, 6, 65, 100
9, 116037, Note_on_c, 6, 65, 0
9, 116040, Note_on_c, 6, 64, 100
9, 116067, Note_on_c, 6, 64, 0
9, 116280, Note_on_c, 6, 64, 100
9, 116307, Note_on_c, 6, 64, 0
9, 116310, Note_on_c, 6, 66, 100
9, 116337, Note_on_c, 6, 66, 0
9, 116340, Note_on_c, 6, 68, 100
9, 116367, Note_on_c, 6, 68, 0
9, 116370, Note_on_c, 6, 64, 100
9, 116397, Note_on_c, 6, 64, 0
9, 116400, Note_on_c, 6, 72, 100
9, 116427, Note_on_c, 6, 72, 0
9, 116430, Note_on_c, 6, 69, 100
9, 116457, Note_on_c, 6, 69, 0
9, 116460, Note_on_c, 6, 67, 100
9, 116487, Note_on_c, 6, 67, 0
9, 116490, Note_on_c, 6, 65, 100
9, 116517, Note_on_c, 6, 65, 0
9, 116520, Note_on_c, 6, 64, 100
9, 116547, Note_on_c, 6, 64, 0
9, 116760, Note_on_c, 6, 64, 100
9, 116787, Note_on_c, 6, 64, 0
9, 116790, Note_on_c, 6, 65, 100
9, 116817, Note_on_c, 6, 65, 0
9, 116820, Note_on_c, 6, 67, 100
9, 116847, Note_on_c, 6, 67, 0
9, 116850, Note_on_c, 6, 64, 100
9, 116877, Note_on_c, 6, 64, 0
9, 116880, Note_on_c, 6, 73, 100
9, 116907, Note_on_c, 6, 73, 0
9, 116910, Note_on_c, 6, 70, 100
9, 116937, Note_on_c, 6, 70, 0
9, 116940, Note_on_c, 6, 67, 100
9, 116967, Note_on_c, 6, 67, 0
9, 116970, Note_on_c, 6, 65, 100
9, 116997, Note_on_c, 6, 65, 0
9, 117000, Note_on_c, 6, 64, 100
9, 117027, Note_on_c, 6, 64, 0
9, 117240, Note_on_c, 6, 64, 100
9, 117267, Note_on_c, 6, 64, 0
9, 117270, Note_on_c, 6, 65, 100
9, 117297, Note_on_c, 6, 65, 0
9, 117300, Note_on_c, 6, 67, 100
9, 117327, Note_on_c, 6, 67, 0
9, 117330, Note_on_c, 6, 64, 100
9, 117357, Note_on_c, 6, 64, 0
9, 117360, Note_on_c, 6, 73, 100
9, 117387, Note_on_c, 6, 73, 0
9, 117390, Note_on_c, 6, 70, 100
9, 117417, Note_on_c, 6, 70, 0
9, 117420, Note_on_c, 6, 67, 100
9, 117447, Note_on_c, 6, 67, 0
9, 117450, Note_on_c, 6, 65, 100
9, 117477, Note_on_c, 6, 65, 0
9, 117480, Note_on_c, 6, 64, 100
9, 117507, Note_on_c, 6, 64, 0
9, 117720, Note_on_c, 6, 65, 100
9, 117747, Note_on_c, 6, 65, 0
9, 117750, Note_on_c, 6, 67, 100
9, 117777, Note_on_c, 6, 67, 0
9, 117780, Note_on_c, 6, 69, 100
9, 117807, Note_on_c, 6, 69, 0
9, 117810, Note_on_c, 6, 65, 100
9, 117837, Note_on_c, 6, 65, 0
9, 117840, Note_on_c, 6, 74, 100
9, 117867, Note_on_c, 6, 74, 0
9, 117870, Note_on_c, 6, 69, 100
9, 117897, Note_on_c, 6, 69, 0
9, 117900, Note_on_c, 6, 67, 100
9, 117927, Note_on_c, 6, 67, 0
9, 117930, Note_on_c, 6, 65, 100
9, 117957, Note_on_c, 6, 65, 0
9, 118200, Note_on_c, 6, 65, 100
9, 118227, Note_on_c, 6, 65, 0
9, 118230, Note_on_c, 6, 67, 100
9, 118257, Note_on_c, 6, 67, 0
9, 118260, Note_on_c, 6, 69, 100
9, 118287, Note_on_c, 6, 69, 0
9, 118290, Note_on_c, 6, 65, 100
9, 118317, Note_on_c, 6, 65, 0
9, 118320, Note_on_c, 6, 74, 100
9, 118347, Note_on_c, 6, 74, 0
9, 118350, Note_on_c, 6, 69, 100
9, 118377, Note_on_c, 6, 69, 0
9, 118380, Note_on_c, 6, 67, 100
9, 118407, Note_on_c, 6, 67, 0
9, 118410, Note_on_c, 6, 65, 100
9, 118437, Note_on_c, 6, 65, 0
9, 118680, Note_on_c, 6, 62, 100
9, 118707, Note_on_c, 6, 62, 0
9, 118710, Note_on_c, 6, 64, 100
9, 118737, Note_on_c, 6, 64, 0
9, 118740, Note_on_c, 6, 65, 100
9, 118767, Note_on_c, 6, 65, 0
9, 118770, Note_on_c, 6, 62, 100
9, 118797, Note_on_c, 6, 62, 0
9, 118800, Note_on_c, 6, 71, 100
9, 118827, Note_on_c, 6, 71, 0
9, 118830, Note_on_c, 6, 65, 100
9, 118857, Note_on_c, 6, 65, 0
9, 118860, Note_on_c, 6, 62, 100
9, 118887, Note_on_c, 6, 62, 0
9, 118890, Note_on_c, 6, 60, 100
9, 118917, Note_on_c, 6, 60, 0
9, 119160, Note_on_c, 6, 59, 100
9, 119187, Note_on_c, 6, 59, 0
9, 119190, Note_on_c, 6, 60, 100
9, 119217, Note_on_c, 6, 60, 0
9, 119220, Note_on_c, 6, 62, 100
9, 119247, Note_on_c, 6, 62, 0
9, 119250, Note_on_c, 6, 59, 100
9, 119277, Note_on_c, 6, 59, 0
9, 119280, Note_on_c, 6, 68, 100
9, 119307, Note_on_c, 6, 68, 0
9, 119310, Note_on_c, 6, 65, 100
9, 119337, Note_on_c, 6, 65, 0
9, 119340, Note_on_c, 6, 62, 100
9, 119367, Note_on_c, 6, 62, 0
9, 119370, Note_on_c, 6, 60, 100
9, 119397, Note_on_c, 6, 60, 0
9, 119790, Note_on_c, 6, 62, 100
9, 119817, Note_on_c, 6, 62, 0
9, 119820, Note_on_c, 6, 64, 100
9, 119847, Note_on_c, 6, 64, 0
9, 119850, Note_on_c, 6, 65, 100
9, 119877, Note_on_c, 6, 65, 0
9, 119880, Note_on_c, 6, 64, 100
9, 119907, Note_on_c, 6, 64, 0
9, 119910, Note_on_c, 6, 68, 100
9, 119937, Note_on_c, 6, 68, 0
9, 119940, Note_on_c, 6, 69, 100
9, 119967, Note_on_c, 6, 69, 0
9, 119970, Note_on_c, 6, 71, 100
9, 119997, Note_on_c, 6, 71, 0
9, 120000, Note_on_c, 6, 72, 100
9, 120027, Note_on_c, 6, 72, 0
9, 120030, Note_on_c, 6, 69, 100
9, 120057, Note_on_c, 6, 69, 0
9, 120060, Note_on_c, 6, 68, 100
9, 120087, Note_on_c, 6, 68, 0
9, 120090, Note_on_c, 6, 69, 100
9, 120117, Note_on_c, 6, 69, 0
9, 120120, Note_on_c, 6, 65, 100
9, 120147, Note_on_c, 6, 65, 0
9, 120150, Note_on_c, 6, 64, 100
9, 120177, Note_on_c, 6, 64, 0
9, 120180, Note_on_c, 6, 63, 100
9, 120207, Note_on_c, 6, 63, 0
9, 120210, Note_on_c, 6, 64, 100
9, 120237, Note_on_c, 6, 64, 0
9, 120240, Note_on_c, 6, 60, 100
9, 120267, Note_on_c, 6, 60, 0
9, 121200, Note_on_c, 6, 66, 100
9, 121227, Note_on_c, 6, 66, 0
9, 121230, Note_on_c, 6, 64, 100
9, 121257, Note_on_c, 6, 64, 0
9, 121260, Note_on_c, 6, 63, 100
9, 121287, Note_on_c, 6, 63, 0
9, 121290, Note_on_c, 6, 60, 100
9, 121317, Note_on_c, 6, 60, 0
9, 123000, Note_on_c, 6, 69, 100
9, 123054, Note_on_c, 6, 69, 0
9, 123060, Note_on_c, 6, 71, 100
9, 123114, Note_on_c, 6, 71, 0
9, 123120, Note_on_c, 6, 72, 100
9, 123120, Note_on_c, 6, 69, 100
9, 123156, Note_on_c, 6, 72, 0
9, 123156, Note_on_c, 6, 69, 0
9, 123160, Note_on_c, 6, 71, 100
9, 123160, Note_on_c, 6, 71, 100
9, 123196, Note_on_c, 6, 71, 0
9, 123196, Note_on_c, 6, 71, 0
9, 123200, Note_on_c, 6, 76, 100
9, 123200, Note_on_c, 6, 72, 100
9, 123236, Note_on_c, 6, 76, 0
9, 123236, Note_on_c, 6, 72, 0
9, 123240, Note_on_c, 6, 74, 100
9, 123240, Note_on_c, 6, 71, 100
9, 123276, Note_on_c, 6, 74, 0
9, 123276, Note_on_c, 6, 71, 0
9, 123280, Note_on_c, 6, 69, 100
9, 123280, Note_on_c, 6, 69, 100
9, 123316, Note_on_c, 6, 69, 0
9, 123316, Note_on_c, 6, 69, 0
9, 123320, Note_on_c, 6, 71, 100
9, 123320, Note_on_c, 6, 68, 100
9, 123356, Note_on_c, 6, 71, 0
9, 123356, Note_on_c, 6, 68, 0
9, 123360, Note_on_c, 6, 72, 100
9, 123360, Note_on_c, 6, 69, 100
9, 123414, Note_on_c, 6, 72, 0
9, 123420, Note_on_c, 6, 69, 100
9, 123468, Note_on_c, 6, 69, 0
9, 123468, Note_on_c, 6, 69, 0
9, 123480, Note_on_c, 6, 72, 100
9, 123534, Note_on_c, 6, 72, 0
9, 123540, Note_on_c, 6, 76, 100
9, 123594, Note_on_c, 6, 76, 0
9, 123600, Note_on_c, 6, 81, 100
9, 123636, Note_on_c, 6, 81, 0
9, 123640, Note_on_c, 6, 83, 100
9, 123676, Note_on_c, 6, 83, 0
9, 123680, Note_on_c, 6, 84, 100
9, 123716, Note_on_c, 6, 84, 0
9, 123720, Note_on_c, 6, 83, 100
9, 123756, Note_on_c, 6, 83, 0
9, 123760, Note_on_c, 6, 81, 100
9, 123796, Note_on_c, 6, 81, 0
9, 123800, Note_on_c, 6, 80, 100
9, 123836, Note_on_c, 6, 80, 0
9, 123840, Note_on_c, 6, 81, 100
9, 123948, Note_on_c, 6, 81, 0
9, 124200, Note_on_c, 6, 64, 100
9, 124236, Note_on_c, 6, 64, 0
9, 124240, Note_on_c, 6, 62, 100
9, 124276, Note_on_c, 6, 62, 0
9, 124280, Note_on_c, 6, 60, 100
9, 124316, Note_on_c, 6, 60, 0
9, 124320, Note_on_c, 6, 67, 100
9, 124356, Note_on_c, 6, 67, 0
9, 124360, Note_on_c, 6, 65, 100
9, 124396, Note_on_c, 6, 65, 0
9, 124400, Note_on_c, 6, 64, 100
9, 124436, Note_on_c, 6, 64, 0
9, 124440, Note_on_c, 6, 70, 100
9, 124476, Note_on_c, 6, 70, 0
9, 124480, Note_on_c, 6, 69, 100
9, 124516, Note_on_c, 6, 69, 0
9, 124520, Note_on_c, 6, 67, 100
9, 124556, Note_on_c, 6, 67, 0
9, 124560, Note_on_c, 6, 73, 100
9, 124596, Note_on_c, 6, 73, 0
9, 124600, Note_on_c, 6, 71, 100
9, 124636, Note_on_c, 6, 71, 0
9, 124640, Note_on_c, 6, 69, 100
9, 124676, Note_on_c, 6, 69, 0
9, 124680, Note_on_c, 6, 76, 100
9, 124716, Note_on_c, 6, 76, 0
9, 124720, Note_on_c, 6, 74, 100
9, 124756, Note_on_c, 6, 74, 0
9, 124760, Note_on_c, 6, 73, 100
9, 124796, Note_on_c, 6, 73, 0
9, 124800, Note_on_c, 6, 77, 100
9, 124836, Note_on_c, 6, 77, 0
9, 124840, Note_on_c, 6, 76, 100
9, 124876, Note_on_c, 6, 76, 0
9, 124880, Note_on_c, 6, 74, 100
9, 124916, Note_on_c, 6, 74, 0
9, 124920, Note_on_c, 6, 72, 100
9, 124956, Note_on_c, 6, 72, 0
9, 124960, Note_on_c, 6, 71, 100
9, 124996, Note_on_c, 6, 71, 0
9, 125000, Note_on_c, 6, 69, 100
9, 125036, Note_on_c, 6, 69, 0
9, 125040, Note_on_c, 6, 67, 100
9, 125148, Note_on_c, 6, 67, 0
9, 125280, Note_on_c, 6, 65, 100
9, 125316, Note_on_c, 6, 65, 0
9, 125320, Note_on_c, 6, 64, 100
9, 125356, Note_on_c, 6, 64, 0
9, 125360, Note_on_c, 6, 62, 100
9, 125396, Note_on_c, 6, 62, 0
9, 125400, Note_on_c, 6, 68, 100
9, 125436, Note_on_c, 6, 68, 0
9, 125440, Note_on_c, 6, 67, 100
9, 125476, Note_on_c, 6, 67, 0
9, 125480, Note_on_c, 6, 65, 100
9, 125516, Note_on_c, 6, 65, 0
9, 125520, Note_on_c, 6, 71, 100
9, 125556, Note_on_c, 6, 71, 0
9, 125560, Note_on_c, 6, 69, 100
9, 125596, Note_on_c, 6, 69, 0
9, 125600, Note_on_c, 6, 67, 100
9, 125636, Note_on_c, 6, 67, 0
9, 125640, Note_on_c, 6, 74, 100
9, 125676, Note_on_c, 6, 74, 0
9, 125680, Note_on_c, 6, 72, 100
9, 125716, Note_on_c, 6, 72, 0
9, 125720, Note_on_c, 6, 71, 100
9, 125756, Note_on_c, 6, 71, 0
9, 125760, Note_on_c, 6, 76, 100
9, 125796, Note_on_c, 6, 76, 0
9, 125800, Note_on_c, 6, 74, 100
9, 125836, Note_on_c, 6, 74, 0
9, 125840, Note_on_c, 6, 72, 100
9, 125876, Note_on_c, 6, 72, 0
9, 125880, Note_on_c, 6, 71, 100
9, 125916, Note_on_c, 6, 71, 0
9, 125920, Note_on_c, 6, 72, 100
9, 125956, Note_on_c, 6, 72, 0
9, 125960, Note_on_c, 6, 74, 100
9, 125996, Note_on_c, 6, 74, 0
9, 126000, Note_on_c, 6, 72, 100
9, 126036, Note_on_c, 6, 72, 0
9, 126040, Note_on_c, 6, 71, 100
9, 126076, Note_on_c, 6, 71, 0
9, 126080, Note_on_c, 6, 69, 100
9, 126116, Note_on_c, 6, 69, 0
9, 126120, Note_on_c, 6, 76, 100
9, 126156, Note_on_c, 6, 76, 0
9, 126160, Note_on_c, 6, 74, 100
9, 126196, Note_on_c, 6, 74, 0
9, 126200, Note_on_c, 6, 72, 100
9, 126236, Note_on_c, 6, 72, 0
9, 126240, Note_on_c, 6, 81, 100
9, 126276, Note_on_c, 6, 81, 0
9, 126280, Note_on_c, 6, 79, 100
9, 126316, Note_on_c, 6, 79, 0
9, 126320, Note_on_c, 6, 77, 100
9, 126356, Note_on_c, 6, 77, 0
9, 126360, Note_on_c, 6, 76, 100
9, 126396, Note_on_c, 6, 76, 0
9, 126400, Note_on_c, 6, 77, 100
9, 126436, Note_on_c, 6, 77, 0
9, 126440, Note_on_c, 6, 79, 100
9, 126476, Note_on_c, 6, 79, 0
9, 126480, Note_on_c, 6, 77, 100
9, 126516, Note_on_c, 6, 77, 0
9, 126520, Note_on_c, 6, 76, 100
9, 126556, Note_on_c, 6, 76, 0
9, 126560, Note_on_c, 6, 74, 100
9, 126596, Note_on_c, 6, 74, 0
9, 126600, Note_on_c, 6, 72, 100
9, 126636, Note_on_c, 6, 72, 0
9, 126640, Note_on_c, 6, 74, 100
9, 126676, Note_on_c, 6, 74, 0
9, 126680, Note_on_c, 6, 76, 100
9, 126716, Note_on_c, 6, 76, 0
9, 126720, Note_on_c, 6, 74, 100
9, 126756, Note_on_c, 6, 74, 0
9, 126760, Note_on_c, 6, 76, 100
9, 126796, Note_on_c, 6, 76, 0
9, 126800, Note_on_c, 6, 77, 100
9, 126836, Note_on_c, 6, 77, 0
9, 126840, Note_on_c, 6, 76, 100
9, 126876, Note_on_c, 6, 76, 0
9, 126880, Note_on_c, 6, 74, 100
9, 126916, Note_on_c, 6, 74, 0
9, 126920, Note_on_c, 6, 72, 100
9, 126956, Note_on_c, 6, 72, 0
9, 126960, Note_on_c, 6, 74, 100
9, 126996, Note_on_c, 6, 74, 0
9, 127000, Note_on_c, 6, 72, 100
9, 127036, Note_on_c, 6, 72, 0
9, 127040, Note_on_c, 6, 71, 100
9, 127076, Note_on_c, 6, 71, 0
9, 127080, Note_on_c, 6, 72, 100
9, 127116, Note_on_c, 6, 72, 0
9, 127120, Note_on_c, 6, 74, 100
9, 127156, Note_on_c, 6, 74, 0
9, 127160, Note_on_c, 6, 76, 100
9, 127196, Note_on_c, 6, 76, 0
9, 127200, Note_on_c, 6, 74, 100
9, 127236, Note_on_c, 6, 74, 0
9, 127240, Note_on_c, 6, 72, 100
9, 127276, Note_on_c, 6, 72, 0
9, 127280, Note_on_c, 6, 71, 100
9, 127316, Note_on_c, 6, 71, 0
9, 127320, Note_on_c, 6, 72, 100
9, 127356, Note_on_c, 6, 72, 0
9, 127360, Note_on_c, 6, 71, 100
9, 127396, Note_on_c, 6, 71, 0
9, 127400, Note_on_c, 6, 69, 100
9, 127436, Note_on_c, 6, 69, 0
9, 127440, Note_on_c, 6, 71, 100
9, 127476, Note_on_c, 6, 71, 0
9, 127480, Note_on_c, 6, 72, 100
9, 127516, Note_on_c, 6, 72, 0
9, 127520, Note_on_c, 6, 74, 100
9, 127556, Note_on_c, 6, 74, 0
9, 127560, Note_on_c, 6, 72, 100
9, 127596, Note_on_c, 6, 72, 0
9, 127600, Note_on_c, 6, 71, 100
9, 127636, Note_on_c, 6, 71, 0
9, 127640, Note_on_c, 6, 69, 100
9, 127676, Note_on_c, 6, 69, 0
9, 127680, Note_on_c, 6, 71, 100
9, 127716, Note_on_c, 6, 71, 0
9, 127720, Note_on_c, 6, 69, 100
9, 127756, Note_on_c, 6, 69, 0
9, 127760, Note_on_c, 6, 68, 100
9, 127796, Note_on_c, 6, 68, 0
9, 127800, Note_on_c, 6, 69, 100
9, 127836, Note_on_c, 6, 69, 0
9, 127840, Note_on_c, 6, 71, 100
9, 127876, Note_on_c, 6, 71, 0
9, 127880, Note_on_c, 6, 72, 100
9, 127916, Note_on_c, 6, 72, 0
9, 127920, Note_on_c, 6, 71, 100
9, 127956, Note_on_c, 6, 71, 0
9, 127960, Note_on_c, 6, 69, 100
9, 127996, Note_on_c, 6, 69, 0
9, 128000, Note_on_c, 6, 68, 100
9, 128036, Note_on_c, 6, 68, 0
9, 128040, Note_on_c, 6, 69, 100
9, 128076, Note_on_c, 6, 69, 0
9, 128080, Note_on_c, 6, 68, 100
9, 128116, Note_on_c, 6, 68, 0
9, 128120, Note_on_c, 6, 66, 100
9, 128156, Note_on_c, 6, 66, 0
9, 128160, Note_on_c, 6, 68, 100
9, 128196, Note_on_c, 6, 68, 0
9, 128200, Note_on_c, 6, 69, 100
9, 128236, Note_on_c, 6, 69, 0
9, 128240, Note_on_c, 6, 71, 100
9, 128276, Note_on_c, 6, 71, 0
9, 128280, Note_on_c, 6, 69, 100
9, 128316, Note_on_c, 6, 69, 0
9, 128320, Note_on_c, 6, 68, 100
9, 128356, Note_on_c, 6, 68, 0
9, 128360, Note_on_c, 6, 66, 100
9, 128396, Note_on_c, 6, 66, 0
9, 128400, Note_on_c, 6, 68, 100
9, 128436, Note_on_c, 6, 68, 0
9, 128440, Note_on_c, 6, 66, 100
9, 128476, Note_on_c, 6, 66, 0
9, 128480, Note_on_c, 6, 64, 100
9, 128516, Note_on_c, 6, 64, 0
9, 128520, Note_on_c, 6, 74, 100
9, 128601, Note_on_c, 6, 74, 0
9, 128610, Note_on_c, 6, 74, 100
9, 128637, Note_on_c, 6, 74, 0
9, 128640, Note_on_c, 6, 71, 100
9, 128640, Note_on_c, 6, 74, 100
9, 128640, Note_on_c, 6, 68, 100
9, 128856, Note_on_c, 6, 71, 0
9, 128856, Note_on_c, 6, 74, 0
9, 128856, Note_on_c, 6, 68, 0
9, 129000, Note_on_c, 6, 71, 100
9, 129000, Note_on_c, 6, 74, 100
9, 129000, Note_on_c, 6, 64, 100
9, 129081, Note_on_c, 6, 71, 0
9, 129081, Note_on_c, 6, 74, 0
9, 129081, Note_on_c, 6, 64, 0
9, 129090, Note_on_c, 6, 71, 100
9, 129090, Note_on_c, 6, 74, 100
9, 129090, Note_on_c, 6, 64, 100
9, 129117, Note_on_c, 6, 71, 0
9, 129117, Note_on_c, 6, 74, 0
9, 129117, Note_on_c, 6, 64, 0
9, 129120, Note_on_c, 6, 71, 100
9, 129120, Note_on_c, 6, 74, 100
9, 129120, Note_on_c, 6, 64, 100
9, 129120, Note_on_c, 6, 68, 100
9, 129336, Note_on_c, 6, 71, 0
9, 129336, Note_on_c, 6, 74, 0
9, 129336, Note_on_c, 6, 64, 0
9, 129336, Note_on_c, 6, 68, 0
9, 129480, Note_on_c, 6, 71, 100
9, 129480, Note_on_c, 6, 74, 100
9, 129480, Note_on_c, 6, 65, 100
9, 129561, Note_on_c, 6, 71, 0
9, 129561, Note_on_c, 6, 74, 0
9, 129561, Note_on_c, 6, 65, 0
9, 129570, Note_on_c, 6, 71, 100
9, 129570, Note_on_c, 6, 74, 100
9, 129570, Note_on_c, 6, 62, 100
9, 129597, Note_on_c, 6, 71, 0
9, 129597, Note_on_c, 6, 74, 0
9, 129597, Note_on_c, 6, 62, 0
9, 129600, Note_on_c, 6, 74, 100
9, 129600, Note_on_c, 6, 64, 100
9, 129708, Note_on_c, 6, 74, 0
9, 129708, Note_on_c, 6, 64, 0
9, 129720, Note_on_c, 6, 71, 100
9, 129756, Note_on_c, 6, 71, 0
9, 129760, Note_on_c, 6, 69, 100
9, 129796, Note_on_c, 6, 69, 0
9, 129800, Note_on_c, 6, 68, 100
9, 129836, Note_on_c, 6, 68, 0
9, 129840, Note_on_c, 6, 74, 100
9, 129876, Note_on_c, 6, 74, 0
9, 129880, Note_on_c, 6, 72, 100
9, 129916, Note_on_c, 6, 72, 0
9, 129920, Note_on_c, 6, 71, 100
9, 129956, Note_on_c, 6, 71, 0
9, 129960, Note_on_c, 6, 77, 100
9, 129996, Note_on_c, 6, 77, 0
9, 130000, Note_on_c, 6, 76, 100
9, 130036, Note_on_c, 6, 76, 0
9, 130040, Note_on_c, 6, 74, 100
9, 130076, Note_on_c, 6, 74, 0
9, 130080, Note_on_c, 6, 83, 100
9, 130116, Note_on_c, 6, 83, 0
9, 130120, Note_on_c, 6, 81, 100
9, 130156, Note_on_c, 6, 81, 0
9, 130160, Note_on_c, 6, 80, 100
9, 130196, Note_on_c, 6, 80, 0
9, 130200, Note_on_c, 6, 81, 100
9, 130281, Note_on_c, 6, 81, 0
9, 130290, Note_on_c, 6, 74, 100
9, 130317, Note_on_c, 6, 74, 0
9, 130320, Note_on_c, 6, 72, 100
9, 130428, Note_on_c, 6, 72, 0
9, 130440, Note_on_c, 6, 71, 100
9, 130521, Note_on_c, 6, 71, 0
9, 130530, Note_on_c, 6, 69, 100
9, 130557, Note_on_c, 6, 69, 0
9, 130560, Note_on_c, 6, 69, 100
9, 130596, Note_on_c, 6, 69, 0
9, 130600, Note_on_c, 6, 67, 100
9, 130636, Note_on_c, 6, 67, 0
9, 130640, Note_on_c, 6, 69, 100
9, 130676, Note_on_c, 6, 69, 0
9, 130680, Note_on_c, 6, 70, 100
9, 130716, Note_on_c, 6, 70, 0
9, 130720, Note_on_c, 6, 69, 100
9, 130756, Note_on_c, 6, 69, 0
9, 130760, Note_on_c, 6, 67, 100
9, 130796, Note_on_c, 6, 67, 0
9, 130800, Note_on_c, 6, 69, 100
9, 130840, Note_on_c, 6, 67, 100
9, 130876, Note_on_c, 6, 67, 0
9, 130880, Note_on_c, 6, 65, 100
9, 130916, Note_on_c, 6, 65, 0
9, 130920, Note_on_c, 6, 67, 100
9, 130956, Note_on_c, 6, 67, 0
9, 130960, Note_on_c, 6, 65, 100
9, 130996, Note_on_c, 6, 65, 0
9, 131000, Note_on_c, 6, 64, 100
9, 131036, Note_on_c, 6, 64, 0
9, 131040, Note_on_c, 6, 65, 100
9, 131076, Note_on_c, 6, 65, 0
9, 131080, Note_on_c, 6, 67, 100
9, 131116, Note_on_c, 6, 67, 0
9, 131120, Note_on_c, 6, 69, 100
9, 131156, Note_on_c, 6, 69, 0
9, 131156, Note_on_c, 6, 69, 0
9, 131160, Note_on_c, 6, 67, 100
9, 131196, Note_on_c, 6, 67, 0
9, 131200, Note_on_c, 6, 65, 100
9, 131236, Note_on_c, 6, 65, 0
9, 131240, Note_on_c, 6, 64, 100
9, 131276, Note_on_c, 6, 64, 0
9, 131280, Note_on_c, 6, 65, 100
9, 131316, Note_on_c, 6, 65, 0
9, 131320, Note_on_c, 6, 64, 100
9, 131356, Note_on_c, 6, 64, 0
9, 131360, Note_on_c, 6, 62, 100
9, 131396, Note_on_c, 6, 62, 0
9, 131400, Note_on_c, 6, 64, 100
9, 131436, Note_on_c, 6, 64, 0
9, 131440, Note_on_c, 6, 62, 100
9, 131476, Note_on_c, 6, 62, 0
9, 131480, Note_on_c, 6, 60, 100
9, 131516, Note_on_c, 6, 60, 0
9, 131520, Note_on_c, 6, 62, 100
9, 131556, Note_on_c, 6, 62, 0
9, 131560, Note_on_c, 6, 64, 100
9, 131596, Note_on_c, 6, 64, 0
9, 131600, Note_on_c, 6, 65, 100
9, 131636, Note_on_c, 6, 65, 0
9, 131640, Note_on_c, 6, 68, 100
9, 131676, Note_on_c, 6, 68, 0
9, 131680, Note_on_c, 6, 65, 100
9, 131716, Note_on_c, 6, 65, 0
9, 131720, Note_on_c, 6, 64, 100
9, 131756, Note_on_c, 6, 64, 0
9, 131760, Note_on_c, 6, 62, 100
9, 131796, Note_on_c, 6, 62, 0
9, 131800, Note_on_c, 6, 64, 100
9, 131836, Note_on_c, 6, 64, 0
9, 131840, Note_on_c, 6, 65, 100
9, 131876, Note_on_c, 6, 65, 0
9, 131880, Note_on_c, 6, 69, 100
9, 131916, Note_on_c, 6, 69, 0
9, 131920, Note_on_c, 6, 65, 100
9, 131956, Note_on_c, 6, 65, 0
9, 131960, Note_on_c, 6, 64, 100
9, 131996, Note_on_c, 6, 64, 0
9, 132000, Note_on_c, 6, 62, 100
9, 132036, Note_on_c, 6, 62, 0
9, 132040, Note_on_c, 6, 64, 100
9, 132076, Note_on_c, 6, 64, 0
9, 132080, Note_on_c, 6, 65, 100
9, 132116, Note_on_c, 6, 65, 0
9, 132120, Note_on_c, 6, 71, 100
9, 132156, Note_on_c, 6, 71, 0
9, 132160, Note_on_c, 6, 65, 100
9, 132196, Note_on_c, 6, 65, 0
9, 132200, Note_on_c, 6, 64, 100
9, 132236, Note_on_c, 6, 64, 0
9, 132240, Note_on_c, 6, 62, 100
9, 132276, Note_on_c, 6, 62, 0
9, 132280, Note_on_c, 6, 64, 100
9, 132316, Note_on_c, 6, 64, 0
9, 132320, Note_on_c, 6, 65, 100
9, 132356, Note_on_c, 6, 65, 0
9, 132360, Note_on_c, 6, 74, 100
9, 132396, Note_on_c, 6, 74, 0
9, 132400, Note_on_c, 6, 62, 100
9, 132436, Note_on_c, 6, 62, 0
9, 132440, Note_on_c, 6, 64, 100
9, 132476, Note_on_c, 6, 64, 0
9, 132480, Note_on_c, 6, 65, 100
9, 132516, Note_on_c, 6, 65, 0
9, 132520, Note_on_c, 6, 64, 100
9, 132556, Note_on_c, 6, 64, 0
9, 132560, Note_on_c, 6, 62, 100
9, 132596, Note_on_c, 6, 62, 0
9, 132600, Note_on_c, 6, 68, 100
9, 132636, Note_on_c, 6, 68, 0
9, 132640, Note_on_c, 6, 62, 100
9, 132676, Note_on_c, 6, 62, 0
9, 132680, Note_on_c, 6, 64, 100
9, 132716, Note_on_c, 6, 64, 0
9, 132720, Note_on_c, 6, 65, 100
9, 132756, Note_on_c, 6, 65, 0
9, 132760, Note_on_c, 6, 64, 100
9, 132796, Note_on_c, 6, 64, 0
9, 132800, Note_on_c, 6, 62, 100
9, 132836, Note_on_c, 6, 62, 0
9, 132840, Note_on_c, 6, 69, 100
9, 132876, Note_on_c, 6, 69, 0
9, 132880, Note_on_c, 6, 62, 100
9, 132916, Note_on_c, 6, 62, 0
9, 132920, Note_on_c, 6, 64, 100
9, 132956, Note_on_c, 6, 64, 0
9, 132960, Note_on_c, 6, 65, 100
9, 132996, Note_on_c, 6, 65, 0
9, 133000, Note_on_c, 6, 64, 100
9, 133036, Note_on_c, 6, 64, 0
9, 133040, Note_on_c, 6, 62, 100
9, 133076, Note_on_c, 6, 62, 0
9, 133080, Note_on_c, 6, 71, 100
9, 133116, Note_on_c, 6, 71, 0
9, 133120, Note_on_c, 6, 62, 100
9, 133156, Note_on_c, 6, 62, 0
9, 133160, Note_on_c, 6, 64, 100
9, 133196, Note_on_c, 6, 64, 0
9, 133200, Note_on_c, 6, 65, 100
9, 133236, Note_on_c, 6, 65, 0
9, 133240, Note_on_c, 6, 64, 100
9, 133276, Note_on_c, 6, 64, 0
9, 133280, Note_on_c, 6, 62, 100
9, 133316, Note_on_c, 6, 62, 0
9, 133320, Note_on_c, 6, 68, 100
9, 133356, Note_on_c, 6, 68, 0
9, 133360, Note_on_c, 6, 62, 100
9, 133396, Note_on_c, 6, 62, 0
9, 133400, Note_on_c, 6, 64, 100
9, 133436, Note_on_c, 6, 64, 0
9, 133440, Note_on_c, 6, 65, 100
9, 133476, Note_on_c, 6, 65, 0
9, 133480, Note_on_c, 6, 62, 100
9, 133516, Note_on_c, 6, 62, 0
9, 133520, Note_on_c, 6, 65, 100
9, 133556, Note_on_c, 6, 65, 0
9, 133560, Note_on_c, 6, 68, 100
9, 133596, Note_on_c, 6, 68, 0
9, 133600, Note_on_c, 6, 71, 100
9, 133636, Note_on_c, 6, 71, 0
9, 133640, Note_on_c, 6, 74, 100
9, 133676, Note_on_c, 6, 74, 0
9, 133680, Note_on_c, 6, 71, 100
9, 133716, Note_on_c, 6, 71, 0
9, 133720, Note_on_c, 6, 68, 100
9, 133756, Note_on_c, 6, 68, 0
9, 133760, Note_on_c, 6, 71, 100
9, 133796, Note_on_c, 6, 71, 0
9, 133800, Note_on_c, 6, 74, 100
9, 133836, Note_on_c, 6, 74, 0
9, 133840, Note_on_c, 6, 77, 100
9, 133876, Note_on_c, 6, 77, 0
9, 133880, Note_on_c, 6, 80, 100
9, 133916, Note_on_c, 6, 80, 0
9, 133920, Note_on_c, 6, 81, 100
9, 133947, Note_on_c, 6, 81, 0
9, 133950, Note_on_c, 6, 79, 100
9, 133977, Note_on_c, 6, 79, 0
9, 133980, Note_on_c, 6, 77, 100
9, 134007, Note_on_c, 6, 77, 0
9, 134010, Note_on_c, 6, 76, 100
9, 134037, Note_on_c, 6, 76, 0
9, 134040, Note_on_c, 6, 74, 100
9, 134067, Note_on_c, 6, 74, 0
9, 134070, Note_on_c, 6, 72, 100
9, 134097, Note_on_c, 6, 72, 0
9, 134100, Note_on_c, 6, 71, 100
9, 134127, Note_on_c, 6, 71, 0
9, 134130, Note_on_c, 6, 69, 100
9, 134157, Note_on_c, 6, 69, 0
9, 134160, Note_on_c, 6, 68, 100
9, 134187, Note_on_c, 6, 68, 0
9, 134190, Note_on_c, 6, 66, 100
9, 134217, Note_on_c, 6, 66, 0
9, 134220, Note_on_c, 6, 64, 100
9, 134247, Note_on_c, 6, 64, 0
9, 134250, Note_on_c, 6, 62, 100
9, 134277, Note_on_c, 6, 62, 0
9, 134277, End_track
10, 0, Start_track
10, 0, Sequence_number, 65535
10, 0, MIDI_port, 0
10, 0, Title_t, "Cembalo rechte Hand - Hilfsstimme"
10, 0, Control_c, 7, 0, 0
10, 0, Control_c, 7, 32, 0
10, 0, Program_c, 7, 6
10, 0, Control_c, 7, 7, 80
10, 0, Control_c, 7, 10, 64
10, 19800, Note_on_c, 7, 67, 100
10, 19908, Note_on_c, 7, 67, 0
10, 46680, Note_on_c, 7, 77, 100
10, 46788, Note_on_c, 7, 77, 0
10, 46800, Note_on_c, 7, 76, 100
10, 46908, Note_on_c, 7, 76, 0
10, 46920, Note_on_c, 7, 74, 100
10, 47028, Note_on_c, 7, 74, 0
10, 47400, Note_on_c, 7, 74, 100
10, 47508, Note_on_c, 7, 74, 0
10, 47520, Note_on_c, 7, 74, 100
10, 47628, Note_on_c, 7, 74, 0
10, 47640, Note_on_c, 7, 72, 100
10, 47748, Note_on_c, 7, 72, 0
10, 47760, Note_on_c, 7, 72, 100
10, 47868, Note_on_c, 7, 72, 0
10, 47880, Note_on_c, 7, 71, 100
10, 47988, Note_on_c, 7, 71, 0
10, 48000, Note_on_c, 7, 67, 100
10, 48108, Note_on_c, 7, 67, 0
10, 49560, Note_on_c, 7, 64, 100
10, 49668, Note_on_c, 7, 64, 0
10, 49920, Note_on_c, 7, 67, 100
10, 50028, Note_on_c, 7, 67, 0
10, 50040, Note_on_c, 7, 64, 100
10, 50148, Note_on_c, 7, 64, 0
10, 50160, Note_on_c, 7, 65, 100
10, 50268, Note_on_c, 7, 65, 0
10, 50280, Note_on_c, 7, 67, 100
10, 50388, Note_on_c, 7, 67, 0
10, 50400, Note_on_c, 7, 69, 100
10, 50508, Note_on_c, 7, 69, 0
10, 71040, Note_on_c, 7, 64, 100
10, 71148, Note_on_c, 7, 64, 0
10, 82680, Note_on_c, 7, 79, 100
10, 82788, Note_on_c, 7, 79, 0
10, 90240, Note_on_c, 7, 69, 100
10, 90348, Note_on_c, 7, 69, 0
10, 95040, Note_on_c, 7, 64, 100
10, 95148, Note_on_c, 7, 64, 0
10, 96120, Note_on_c, 7, 71, 100
10, 96228, Note_on_c, 7, 71, 0
10, 96240, Note_on_c, 7, 76, 100
10, 96348, Note_on_c, 7, 76, 0
10, 96360, Note_on_c, 7, 76, 100
10, 96468, Note_on_c, 7, 76, 0
10, 96480, Note_on_c, 7, 76, 100
10, 96588, Note_on_c, 7, 76, 0
10, 97080, Note_on_c, 7, 74, 100
10, 97188, Note_on_c, 7, 74, 0
10, 97440, Note_on_c, 7, 74, 100
10, 97548, Note_on_c, 7, 74, 0
10, 129600, Note_on_c, 7, 71, 100
10, 129708, Note_on_c, 7, 71, 0
10, 129708, End_track
11, 0, Start_track
11, 0, Sequence_number, 65535
11, 0, MIDI_port, 0
11, 0, Title_t, "Cembalo linke Hand - Hilfsstimme"
11, 0, Control_c, 8, 0, 0
11, 0, Control_c, 8, 32, 0
11, 0, Program_c, 8, 6
11, 0, Control_c, 8, 7, 80
11, 0, Control_c, 8, 10, 64
11, 8640, Note_on_c, 8, 57, 100
11, 8748, Note_on_c, 8, 57, 0
11, 10680, Note_on_c, 8, 62, 100
11, 10896, Note_on_c, 8, 62, 0
11, 10920, Note_on_c, 8, 60, 100
11, 11148, Note_on_c, 8, 60, 0
11, 11160, Note_on_c, 8, 59, 100
11, 11376, Note_on_c, 8, 59, 0
11, 11400, Note_on_c, 8, 57, 100
11, 11508, Note_on_c, 8, 57, 0
11, 11520, Note_on_c, 8, 57, 100
11, 11628, Note_on_c, 8, 57, 0
11, 26400, Note_on_c, 8, 55, 100
11, 26508, Note_on_c, 8, 55, 0
11, 26880, Note_on_c, 8, 52, 100
11, 26988, Note_on_c, 8, 52, 0
11, 27360, Note_on_c, 8, 52, 100
11, 27468, Note_on_c, 8, 52, 0
11, 41160, Note_on_c, 8, 54, 100
11, 41268, Note_on_c, 8, 54, 0
11, 41280, Note_on_c, 8, 47, 100
11, 41388, Note_on_c, 8, 47, 0
11, 42120, Note_on_c, 8, 56, 100
11, 42228, Note_on_c, 8, 56, 0
11, 42240, Note_on_c, 8, 57, 100
11, 42348, Note_on_c, 8, 57, 0
11, 42600, Note_on_c, 8, 57, 100
11, 42708, Note_on_c, 8, 57, 0
11, 42720, Note_on_c, 8, 59, 100
11, 42828, Note_on_c, 8, 59, 0
11, 43080, Note_on_c, 8, 59, 100
11, 43188, Note_on_c, 8, 59, 0
11, 72120, Note_on_c, 8, 57, 100
11, 72228, Note_on_c, 8, 57, 0
11, 72240, Note_on_c, 8, 58, 100
11, 72348, Note_on_c, 8, 58, 0
11, 72360, Note_on_c, 8, 52, 100
11, 72468, Note_on_c, 8, 52, 0
11, 101280, Note_on_c, 8, 62, 100
11, 101496, Note_on_c, 8, 62, 0
11, 107160, Note_on_c, 8, 57, 100
11, 107268, Note_on_c, 8, 57, 0
11, 107280, Note_on_c, 8, 55, 100
11, 107496, Note_on_c, 8, 55, 0
11, 107520, Note_on_c, 8, 53, 100
11, 107736, Note_on_c, 8, 53, 0
11, 107760, Note_on_c, 8, 52, 100
11, 107976, Note_on_c, 8, 52, 0
11, 108000, Note_on_c, 8, 50, 100
11, 108108, Note_on_c, 8, 50, 0
11, 121920, Note_on_c, 8, 57, 100
11, 121920, Note_on_c, 8, 52, 100
11, 122028, Note_on_c, 8, 57, 0
11, 122028, Note_on_c, 8, 52, 0
11, 127080, Note_on_c, 8, 45, 100
11, 127080, Note_on_c, 8, 48, 100
11, 127188, Note_on_c, 8, 45, 0
11, 127188, Note_on_c, 8, 48, 0
11, 127200, Note_on_c, 8, 44, 100
11, 127416, Note_on_c, 8, 44, 0
11, 127560, Note_on_c, 8, 45, 100
11, 127560, Note_on_c, 8, 48, 100
11, 127668, Note_on_c, 8, 45, 0
11, 127668, Note_on_c, 8, 48, 0
11, 128040, Note_on_c, 8, 45, 100
11, 128040, Note_on_c, 8, 48, 100
11, 128148, Note_on_c, 8, 45, 0
11, 128148, Note_on_c, 8, 48, 0
11, 128148, End_track
12, 0, Start_track
12, 0, Sequence_number, 65535
12, 0, MIDI_port, 0
12, 0, Title_t, "Cembalo linke Hand"
12, 0, Control_c, 10, 0, 0
12, 0, Control_c, 10, 32, 0
12, 0, Program_c, 10, 6
12, 0, Control_c, 10, 7, 80
12, 0, Control_c, 10, 10, 64
12, 0, Note_on_c, 10, 45, 100
12, 216, Note_on_c, 10, 45, 0
12, 600, Note_on_c, 10, 57, 100
12, 708, Note_on_c, 10, 57, 0
12, 720, Note_on_c, 10, 48, 100
12, 828, Note_on_c, 10, 48, 0
12, 840, Note_on_c, 10, 52, 100
12, 948, Note_on_c, 10, 52, 0
12, 960, Note_on_c, 10, 45, 100
12, 1176, Note_on_c, 10, 45, 0
12, 1560, Note_on_c, 10, 57, 100
12, 1614, Note_on_c, 10, 57, 0
12, 1620, Note_on_c, 10, 59, 100
12, 1674, Note_on_c, 10, 59, 0
12, 1680, Note_on_c, 10, 60, 100
12, 1734, Note_on_c, 10, 60, 0
12, 1740, Note_on_c, 10, 64, 100
12, 1794, Note_on_c, 10, 64, 0
12, 1800, Note_on_c, 10, 62, 100
12, 1854, Note_on_c, 10, 62, 0
12, 1860, Note_on_c, 10, 59, 100
12, 1914, Note_on_c, 10, 59, 0
12, 1920, Note_on_c, 10, 60, 100
12, 1956, Note_on_c, 10, 60, 0
12, 1960, Note_on_c, 10, 59, 100
12, 1996, Note_on_c, 10, 59, 0
12, 2000, Note_on_c, 10, 57, 100
12, 2036, Note_on_c, 10, 57, 0
12, 2520, Note_on_c, 10, 60, 100
12, 2628, Note_on_c, 10, 60, 0
12, 2640, Note_on_c, 10, 56, 100
12, 2748, Note_on_c, 10, 56, 0
12, 2760, Note_on_c, 10, 57, 100
12, 2868, Note_on_c, 10, 57, 0
12, 2880, Note_on_c, 10, 52, 100
12, 2988, Note_on_c, 10, 52, 0
12, 3480, Note_on_c, 10, 48, 100
12, 3588, Note_on_c, 10, 48, 0
12, 3600, Note_on_c, 10, 44, 100
12, 3708, Note_on_c, 10, 44, 0
12, 3720, Note_on_c, 10, 45, 100
12, 3828, Note_on_c, 10, 45, 0
12, 3840, Note_on_c, 10, 40, 100
12, 3948, Note_on_c, 10, 40, 0
12, 3960, Note_on_c, 10, 64, 100
12, 4041, Note_on_c, 10, 64, 0
12, 4050, Note_on_c, 10, 62, 100
12, 4077, Note_on_c, 10, 62, 0
12, 4080, Note_on_c, 10, 61, 100
12, 4188, Note_on_c, 10, 61, 0
12, 4200, Note_on_c, 10, 57, 100
12, 4308, Note_on_c, 10, 57, 0
12, 4320, Note_on_c, 10, 50, 100
12, 4428, Note_on_c, 10, 50, 0
12, 4440, Note_on_c, 10, 62, 100
12, 4521, Note_on_c, 10, 62, 0
12, 4530, Note_on_c, 10, 60, 100
12, 4557, Note_on_c, 10, 60, 0
12, 4560, Note_on_c, 10, 59, 100
12, 4668, Note_on_c, 10, 59, 0
12, 4680, Note_on_c, 10, 55, 100
12, 4788, Note_on_c, 10, 55, 0
12, 4800, Note_on_c, 10, 60, 100
12, 4836, Note_on_c, 10, 60, 0
12, 4840, Note_on_c, 10, 59, 100
12, 4876, Note_on_c, 10, 59, 0
12, 4880, Note_on_c, 10, 57, 100
12, 4916, Note_on_c, 10, 57, 0
12, 4920, Note_on_c, 10, 57, 100
12, 4956, Note_on_c, 10, 57, 0
12, 4960, Note_on_c, 10, 55, 100
12, 4996, Note_on_c, 10, 55, 0
12, 5000, Note_on_c, 10, 54, 100
12, 5036, Note_on_c, 10, 54, 0
12, 5040, Note_on_c, 10, 54, 100
12, 5076, Note_on_c, 10, 54, 0
12, 5080, Note_on_c, 10, 55, 100
12, 5116, Note_on_c, 10, 55, 0
12, 5120, Note_on_c, 10, 57, 100
12, 5156, Note_on_c, 10, 57, 0
12, 5160, Note_on_c, 10, 57, 100
12, 5196, Note_on_c, 10, 57, 0
12, 5200, Note_on_c, 10, 59, 100
12, 5236, Note_on_c, 10, 59, 0
12, 5240, Note_on_c, 10, 60, 100
12, 5276, Note_on_c, 10, 60, 0
12, 5280, Note_on_c, 10, 59, 100
12, 5316, Note_on_c, 10, 59, 0
12, 5320, Note_on_c, 10, 57, 100
12, 5356, Note_on_c, 10, 57, 0
12, 5360, Note_on_c, 10, 56, 100
12, 5396, Note_on_c, 10, 56, 0
12, 5400, Note_on_c, 10, 56, 100
12, 5436, Note_on_c, 10, 56, 0
12, 5440, Note_on_c, 10, 54, 100
12, 5476, Note_on_c, 10, 54, 0
12, 5480, Note_on_c, 10, 52, 100
12, 5516, Note_on_c, 10, 52, 0
12, 5520, Note_on_c, 10, 52, 100
12, 5556, Note_on_c, 10, 52, 0
12, 5560, Note_on_c, 10, 54, 100
12, 5596, Note_on_c, 10, 54, 0
12, 5600, Note_on_c, 10, 56, 100
12, 5636, Note_on_c, 10, 56, 0
12, 5640, Note_on_c, 10, 56, 100
12, 5676, Note_on_c, 10, 56, 0
12, 5680, Note_on_c, 10, 57, 100
12, 5716, Note_on_c, 10, 57, 0
12, 5720, Note_on_c, 10, 59, 100
12, 5756, Note_on_c, 10, 59, 0
12, 5760, Note_on_c, 10, 57, 100
12, 5868, Note_on_c, 10, 57, 0
12, 5880, Note_on_c, 10, 50, 100
12, 5988, Note_on_c, 10, 50, 0
12, 6000, Note_on_c, 10, 50, 100
12, 6108, Note_on_c, 10, 50, 0
12, 6120, Note_on_c, 10, 50, 100
12, 6228, Note_on_c, 10, 50, 0
12, 6240, Note_on_c, 10, 38, 100
12, 6348, Note_on_c, 10, 38, 0
12, 6360, Note_on_c, 10, 50, 100
12, 6468, Note_on_c, 10, 50, 0
12, 6480, Note_on_c, 10, 48, 100
12, 6588, Note_on_c, 10, 48, 0
12, 6600, Note_on_c, 10, 47, 100
12, 6708, Note_on_c, 10, 47, 0
12, 6720, Note_on_c, 10, 48, 100
12, 6828, Note_on_c, 10, 48, 0
12, 6840, Note_on_c, 10, 50, 100
12, 6948, Note_on_c, 10, 50, 0
12, 6960, Note_on_c, 10, 52, 100
12, 7068, Note_on_c, 10, 52, 0
12, 7080, Note_on_c, 10, 40, 100
12, 7188, Note_on_c, 10, 40, 0
12, 7200, Note_on_c, 10, 41, 100
12, 7308, Note_on_c, 10, 41, 0
12, 7320, Note_on_c, 10, 38, 100
12, 7428, Note_on_c, 10, 38, 0
12, 7440, Note_on_c, 10, 40, 100
12, 7548, Note_on_c, 10, 40, 0
12, 7560, Note_on_c, 10, 40, 100
12, 7668, Note_on_c, 10, 40, 0
12, 7680, Note_on_c, 10, 45, 100
12, 7896, Note_on_c, 10, 45, 0
12, 8280, Note_on_c, 10, 57, 100
12, 8280, Note_on_c, 10, 45, 100
12, 8334, Note_on_c, 10, 45, 0
12, 8340, Note_on_c, 10, 47, 100
12, 8388, Note_on_c, 10, 57, 0
12, 8394, Note_on_c, 10, 47, 0
12, 8400, Note_on_c, 10, 57, 100
12, 8400, Note_on_c, 10, 48, 100
12, 8454, Note_on_c, 10, 48, 0
12, 8460, Note_on_c, 10, 52, 100
12, 8508, Note_on_c, 10, 57, 0
12, 8514, Note_on_c, 10, 52, 0
12, 8520, Note_on_c, 10, 59, 100
12, 8520, Note_on_c, 10, 50, 100
12, 8574, Note_on_c, 10, 50, 0
12, 8580, Note_on_c, 10, 47, 100
12, 8628, Note_on_c, 10, 59, 0
12, 8634, Note_on_c, 10, 47, 0
12, 8640, Note_on_c, 10, 52, 100
12, 8640, Note_on_c, 10, 48, 100
12, 8748, Note_on_c, 10, 52, 0
12, 8748, Note_on_c, 10, 48, 0
12, 9240, Note_on_c, 10, 57, 100
12, 9294, Note_on_c, 10, 57, 0
12, 9300, Note_on_c, 10, 59, 100
12, 9354, Note_on_c, 10, 59, 0
12, 9360, Note_on_c, 10, 60, 100
12, 9396, Note_on_c, 10, 60, 0
12, 9400, Note_on_c, 10, 62, 100
12, 9436, Note_on_c, 10, 62, 0
12, 9440, Note_on_c, 10, 64, 100
12, 9476, Note_on_c, 10, 64, 0
12, 9480, Note_on_c, 10, 62, 100
12, 9516, Note_on_c, 10, 62, 0
12, 9520, Note_on_c, 10, 60, 100
12, 9556, Note_on_c, 10, 60, 0
12, 9560, Note_on_c, 10, 59, 100
12, 9596, Note_on_c, 10, 59, 0
12, 9600, Note_on_c, 10, 60, 100
12, 9708, Note_on_c, 10, 60, 0
12, 9780, Note_on_c, 10, 60, 100
12, 9780, Note_on_c, 10, 57, 100
12, 9834, Note_on_c, 10, 60, 0
12, 9834, Note_on_c, 10, 57, 0
12, 9840, Note_on_c, 10, 62, 100
12, 9840, Note_on_c, 10, 59, 100
12, 9948, Note_on_c, 10, 62, 0
12, 9948, Note_on_c, 10, 59, 0
12, 9960, Note_on_c, 10, 64, 100
12, 9960, Note_on_c, 10, 61, 100
12, 10068, Note_on_c, 10, 64, 0
12, 10068, Note_on_c, 10, 61, 0
12, 10080, Note_on_c, 10, 69, 100
12, 10080, Note_on_c, 10, 62, 100
12, 10188, Note_on_c, 10, 69, 0
12, 10188, Note_on_c, 10, 62, 0
12, 10200, Note_on_c, 10, 69, 100
12, 10200, Note_on_c, 10, 60, 100
12, 10308, Note_on_c, 10, 69, 0
12, 10308, Note_on_c, 10, 60, 0
12, 10320, Note_on_c, 10, 62, 100
12, 10320, Note_on_c, 10, 59, 100
12, 10428, Note_on_c, 10, 62, 0
12, 10428, Note_on_c, 10, 59, 0
12, 10440, Note_on_c, 10, 59, 100
12, 10440, Note_on_c, 10, 55, 100
12, 10548, Note_on_c, 10, 59, 0
12, 10548, Note_on_c, 10, 55, 0
12, 10560, Note_on_c, 10, 60, 100
12, 10560, Note_on_c, 10, 60, 100
12, 10668, Note_on_c, 10, 60, 0
12, 10668, Note_on_c, 10, 60, 0
12, 10680, Note_on_c, 10, 57, 100
12, 10680, Note_on_c, 10, 53, 100
12, 10788, Note_on_c, 10, 57, 0
12, 10800, Note_on_c, 10, 55, 100
12, 10896, Note_on_c, 10, 53, 0
12, 10920, Note_on_c, 10, 52, 100
12, 11016, Note_on_c, 10, 55, 0
12, 11040, Note_on_c, 10, 53, 100
12, 11148, Note_on_c, 10, 52, 0
12, 11160, Note_on_c, 10, 50, 100
12, 11256, Note_on_c, 10, 53, 0
12, 11280, Note_on_c, 10, 52, 100
12, 11376, Note_on_c, 10, 50, 0
12, 11400, Note_on_c, 10, 48, 100
12, 11496, Note_on_c, 10, 52, 0
12, 11508, Note_on_c, 10, 48, 0
12, 11520, Note_on_c, 10, 50, 100
12, 11520, Note_on_c, 10, 48, 100
12, 11628, Note_on_c, 10, 48, 0
12, 11640, Note_on_c, 10, 47, 100
12, 11736, Note_on_c, 10, 50, 0
12, 11748, Note_on_c, 10, 47, 0
12, 11760, Note_on_c, 10, 52, 100
12, 11760, Note_on_c, 10, 48, 100
12, 11868, Note_on_c, 10, 52, 0
12, 11868, Note_on_c, 10, 48, 0
12, 11880, Note_on_c, 10, 47, 100
12, 11880, Note_on_c, 10, 44, 100
12, 11988, Note_on_c, 10, 47, 0
12, 11988, Note_on_c, 10, 44, 0
12, 12000, Note_on_c, 10, 45, 100
12, 12000, Note_on_c, 10, 45, 100
12, 12108, Note_on_c, 10, 45, 0
12, 12108, Note_on_c, 10, 45, 0
12, 12180, Note_on_c, 10, 43, 100
12, 12234, Note_on_c, 10, 43, 0
12, 12240, Note_on_c, 10, 41, 100
12, 12360, Note_on_c, 10, 53, 100
12, 12456, Note_on_c, 10, 41, 0
12, 12468, Note_on_c, 10, 53, 0
12, 12480, Note_on_c, 10, 52, 100
12, 12480, Note_on_c, 10, 40, 100
12, 12588, Note_on_c, 10, 52, 0
12, 12588, Note_on_c, 10, 40, 0
12, 13080, Note_on_c, 10, 60, 100
12, 13188, Note_on_c, 10, 60, 0
12, 13200, Note_on_c, 10, 56, 100
12, 13308, Note_on_c, 10, 56, 0
12, 13320, Note_on_c, 10, 57, 100
12, 13428, Note_on_c, 10, 57, 0
12, 13440, Note_on_c, 10, 52, 100
12, 13548, Note_on_c, 10, 52, 0
12, 14040, Note_on_c, 10, 48, 100
12, 14148, Note_on_c, 10, 48, 0
12, 14160, Note_on_c, 10, 44, 100
12, 14268, Note_on_c, 10, 44, 0
12, 14280, Note_on_c, 10, 45, 100
12, 14388, Note_on_c, 10, 45, 0
12, 14400, Note_on_c, 10, 40, 100
12, 14508, Note_on_c, 10, 40, 0
12, 14520, Note_on_c, 10, 52, 100
12, 14601, Note_on_c, 10, 52, 0
12, 14610, Note_on_c, 10, 54, 100
12, 14637, Note_on_c, 10, 54, 0
12, 14640, Note_on_c, 10, 56, 100
12, 14748, Note_on_c, 10, 56, 0
12, 14760, Note_on_c, 10, 52, 100
12, 14868, Note_on_c, 10, 52, 0
12, 14880, Note_on_c, 10, 45, 100
12, 14988, Note_on_c, 10, 45, 0
12, 15000, Note_on_c, 10, 57, 100
12, 15081, Note_on_c, 10, 57, 0
12, 15090, Note_on_c, 10, 59, 100
12, 15117, Note_on_c, 10, 59, 0
12, 15120, Note_on_c, 10, 61, 100
12, 15228, Note_on_c, 10, 61, 0
12, 15240, Note_on_c, 10, 57, 100
12, 15348, Note_on_c, 10, 57, 0
12, 15360, Note_on_c, 10, 62, 100
12, 15468, Note_on_c, 10, 62, 0
12, 15480, Note_on_c, 10, 50, 100
12, 15561, Note_on_c, 10, 50, 0
12, 15570, Note_on_c, 10, 52, 100
12, 15597, Note_on_c, 10, 52, 0
12, 15600, Note_on_c, 10, 54, 100
12, 15708, Note_on_c, 10, 54, 0
12, 15720, Note_on_c, 10, 50, 100
12, 15828, Note_on_c, 10, 50, 0
12, 15840, Note_on_c, 10, 43, 100
12, 15948, Note_on_c, 10, 43, 0
12, 15960, Note_on_c, 10, 55, 100
12, 16041, Note_on_c, 10, 55, 0
12, 16050, Note_on_c, 10, 57, 100
12, 16077, Note_on_c, 10, 57, 0
12, 16080, Note_on_c, 10, 59, 100
12, 16188, Note_on_c, 10, 59, 0
12, 16200, Note_on_c, 10, 55, 100
12, 16308, Note_on_c, 10, 55, 0
12, 16320, Note_on_c, 10, 60, 100
12, 16356, Note_on_c, 10, 60, 0
12, 16360, Note_on_c, 10, 59, 100
12, 16396, Note_on_c, 10, 59, 0
12, 16400, Note_on_c, 10, 57, 100
12, 16436, Note_on_c, 10, 57, 0
12, 16440, Note_on_c, 10, 57, 100
12, 16476, Note_on_c, 10, 57, 0
12, 16480, Note_on_c, 10, 55, 100
12, 16516, Note_on_c, 10, 55, 0
12, 16520, Note_on_c, 10, 54, 100
12, 16556, Note_on_c, 10, 54, 0
12, 16560, Note_on_c, 10, 54, 100
12, 16596, Note_on_c, 10, 54, 0
12, 16600, Note_on_c, 10, 55, 100
12, 16636, Note_on_c, 10, 55, 0
12, 16640, Note_on_c, 10, 57, 100
12, 16676, Note_on_c, 10, 57, 0
12, 16680, Note_on_c, 10, 57, 100
12, 16716, Note_on_c, 10, 57, 0
12, 16720, Note_on_c, 10, 59, 100
12, 16756, Note_on_c, 10, 59, 0
12, 16760, Note_on_c, 10, 60, 100
12, 16796, Note_on_c, 10, 60, 0
12, 16800, Note_on_c, 10, 59, 100
12, 16836, Note_on_c, 10, 59, 0
12, 16840, Note_on_c, 10, 57, 100
12, 16876, Note_on_c, 10, 57, 0
12, 16880, Note_on_c, 10, 56, 100
12, 16916, Note_on_c, 10, 56, 0
12, 16920, Note_on_c, 10, 56, 100
12, 16956, Note_on_c, 10, 56, 0
12, 16960, Note_on_c, 10, 54, 100
12, 16996, Note_on_c, 10, 54, 0
12, 17000, Note_on_c, 10, 52, 100
12, 17036, Note_on_c, 10, 52, 0
12, 17040, Note_on_c, 10, 52, 100
12, 17076, Note_on_c, 10, 52, 0
12, 17080, Note_on_c, 10, 54, 100
12, 17116, Note_on_c, 10, 54, 0
12, 17120, Note_on_c, 10, 56, 100
12, 17156, Note_on_c, 10, 56, 0
12, 17160, Note_on_c, 10, 56, 100
12, 17196, Note_on_c, 10, 56, 0
12, 17200, Note_on_c, 10, 57, 100
12, 17236, Note_on_c, 10, 57, 0
12, 17240, Note_on_c, 10, 59, 100
12, 17276, Note_on_c, 10, 59, 0
12, 17280, Note_on_c, 10, 57, 100
12, 17388, Note_on_c, 10, 57, 0
12, 17400, Note_on_c, 10, 45, 100
12, 17508, Note_on_c, 10, 45, 0
12, 17520, Note_on_c, 10, 45, 100
12, 17628, Note_on_c, 10, 45, 0
12, 17640, Note_on_c, 10, 45, 100
12, 17748, Note_on_c, 10, 45, 0
12, 17760, Note_on_c, 10, 45, 100
12, 17868, Note_on_c, 10, 45, 0
12, 17880, Note_on_c, 10, 57, 100
12, 17988, Note_on_c, 10, 57, 0
12, 18000, Note_on_c, 10, 55, 100
12, 18108, Note_on_c, 10, 55, 0
12, 18120, Note_on_c, 10, 54, 100
12, 18228, Note_on_c, 10, 54, 0
12, 18240, Note_on_c, 10, 55, 100
12, 18348, Note_on_c, 10, 55, 0
12, 18360, Note_on_c, 10, 57, 100
12, 18468, Note_on_c, 10, 57, 0
12, 18480, Note_on_c, 10, 59, 100
12, 18588, Note_on_c, 10, 59, 0
12, 18600, Note_on_c, 10, 47, 100
12, 18708, Note_on_c, 10, 47, 0
12, 18720, Note_on_c, 10, 48, 100
12, 18828, Note_on_c, 10, 48, 0
12, 18840, Note_on_c, 10, 45, 100
12, 18948, Note_on_c, 10, 45, 0
12, 18960, Note_on_c, 10, 47, 100
12, 19068, Note_on_c, 10, 47, 0
12, 19080, Note_on_c, 10, 47, 100
12, 19188, Note_on_c, 10, 47, 0
12, 19200, Note_on_c, 10, 40, 100
12, 19308, Note_on_c, 10, 40, 0
12, 19800, Note_on_c, 10, 52, 100
12, 19854, Note_on_c, 10, 52, 0
12, 19860, Note_on_c, 10, 54, 100
12, 19914, Note_on_c, 10, 54, 0
12, 19920, Note_on_c, 10, 55, 100
12, 19974, Note_on_c, 10, 55, 0
12, 19980, Note_on_c, 10, 59, 100
12, 20034, Note_on_c, 10, 59, 0
12, 20040, Note_on_c, 10, 57, 100
12, 20094, Note_on_c, 10, 57, 0
12, 20100, Note_on_c, 10, 54, 100
12, 20154, Note_on_c, 10, 54, 0
12, 20160, Note_on_c, 10, 55, 100
12, 20196, Note_on_c, 10, 55, 0
12, 20200, Note_on_c, 10, 54, 100
12, 20236, Note_on_c, 10, 54, 0
12, 20240, Note_on_c, 10, 52, 100
12, 20276, Note_on_c, 10, 52, 0
12, 20760, Note_on_c, 10, 64, 100
12, 20814, Note_on_c, 10, 64, 0
12, 20820, Note_on_c, 10, 66, 100
12, 20874, Note_on_c, 10, 66, 0
12, 20880, Note_on_c, 10, 67, 100
12, 20916, Note_on_c, 10, 67, 0
12, 20920, Note_on_c, 10, 69, 100
12, 20956, Note_on_c, 10, 69, 0
12, 20960, Note_on_c, 10, 71, 100
12, 20996, Note_on_c, 10, 71, 0
12, 21000, Note_on_c, 10, 69, 100
12, 21036, Note_on_c, 10, 69, 0
12, 21040, Note_on_c, 10, 67, 100
12, 21076, Note_on_c, 10, 67, 0
12, 21080, Note_on_c, 10, 66, 100
12, 21116, Note_on_c, 10, 66, 0
12, 21120, Note_on_c, 10, 68, 100
12, 21156, Note_on_c, 10, 68, 0
12, 21160, Note_on_c, 10, 64, 100
12, 21196, Note_on_c, 10, 64, 0
12, 21200, Note_on_c, 10, 62, 100
12, 21236, Note_on_c, 10, 62, 0
12, 21240, Note_on_c, 10, 52, 100
12, 21276, Note_on_c, 10, 52, 0
12, 21280, Note_on_c, 10, 59, 100
12, 21316, Note_on_c, 10, 59, 0
12, 21320, Note_on_c, 10, 60, 100
12, 21356, Note_on_c, 10, 60, 0
12, 21360, Note_on_c, 10, 62, 100
12, 21396, Note_on_c, 10, 62, 0
12, 21400, Note_on_c, 10, 64, 100
12, 21436, Note_on_c, 10, 64, 0
12, 21440, Note_on_c, 10, 65, 100
12, 21476, Note_on_c, 10, 65, 0
12, 21480, Note_on_c, 10, 65, 100
12, 21516, Note_on_c, 10, 65, 0
12, 21520, Note_on_c, 10, 64, 100
12, 21556, Note_on_c, 10, 64, 0
12, 21560, Note_on_c, 10, 62, 100
12, 21596, Note_on_c, 10, 62, 0
12, 21600, Note_on_c, 10, 60, 100
12, 21636, Note_on_c, 10, 60, 0
12, 21640, Note_on_c, 10, 59, 100
12, 21676, Note_on_c, 10, 59, 0
12, 21680, Note_on_c, 10, 57, 100
12, 21716, Note_on_c, 10, 57, 0
12, 21720, Note_on_c, 10, 57, 100
12, 21756, Note_on_c, 10, 57, 0
12, 21760, Note_on_c, 10, 59, 100
12, 21796, Note_on_c, 10, 59, 0
12, 21800, Note_on_c, 10, 60, 100
12, 21836, Note_on_c, 10, 60, 0
12, 21840, Note_on_c, 10, 60, 100
12, 21876, Note_on_c, 10, 60, 0
12, 21880, Note_on_c, 10, 62, 100
12, 21916, Note_on_c, 10, 62, 0
12, 21920, Note_on_c, 10, 64, 100
12, 21956, Note_on_c, 10, 64, 0
12, 21960, Note_on_c, 10, 64, 100
12, 21996, Note_on_c, 10, 64, 0
12, 22000, Note_on_c, 10, 62, 100
12, 22036, Note_on_c, 10, 62, 0
12, 22040, Note_on_c, 10, 60, 100
12, 22076, Note_on_c, 10, 60, 0
12, 22080, Note_on_c, 10, 59, 100
12, 22116, Note_on_c, 10, 59, 0
12, 22120, Note_on_c, 10, 57, 100
12, 22156, Note_on_c, 10, 57, 0
12, 22160, Note_on_c, 10, 55, 100
12, 22196, Note_on_c, 10, 55, 0
12, 22200, Note_on_c, 10, 64, 100
12, 22236, Note_on_c, 10, 64, 0
12, 22240, Note_on_c, 10, 62, 100
12, 22276, Note_on_c, 10, 62, 0
12, 22280, Note_on_c, 10, 64, 100
12, 22316, Note_on_c, 10, 64, 0
12, 22320, Note_on_c, 10, 54, 100
12, 22356, Note_on_c, 10, 54, 0
12, 22360, Note_on_c, 10, 55, 100
12, 22396, Note_on_c, 10, 55, 0
12, 22400, Note_on_c, 10, 57, 100
12, 22436, Note_on_c, 10, 57, 0
12, 22440, Note_on_c, 10, 62, 100
12, 22476, Note_on_c, 10, 62, 0
12, 22480, Note_on_c, 10, 60, 100
12, 22516, Note_on_c, 10, 60, 0
12, 22520, Note_on_c, 10, 62, 100
12, 22556, Note_on_c, 10, 62, 0
12, 22560, Note_on_c, 10, 52, 100
12, 22596, Note_on_c, 10, 52, 0
12, 22600, Note_on_c, 10, 54, 100
12, 22636, Note_on_c, 10, 54, 0
12, 22640, Note_on_c, 10, 55, 100
12, 22676, Note_on_c, 10, 55, 0
12, 22680, Note_on_c, 10, 60, 100
12, 22716, Note_on_c, 10, 60, 0
12, 22720, Note_on_c, 10, 59, 100
12, 22756, Note_on_c, 10, 59, 0
12, 22760, Note_on_c, 10, 60, 100
12, 22796, Note_on_c, 10, 60, 0
12, 22800, Note_on_c, 10, 51, 100
12, 22836, Note_on_c, 10, 51, 0
12, 22840, Note_on_c, 10, 52, 100
12, 22876, Note_on_c, 10, 52, 0
12, 22880, Note_on_c, 10, 54, 100
12, 22916, Note_on_c, 10, 54, 0
12, 22920, Note_on_c, 10, 59, 100
12, 22956, Note_on_c, 10, 59, 0
12, 22960, Note_on_c, 10, 57, 100
12, 22996, Note_on_c, 10, 57, 0
12, 23000, Note_on_c, 10, 59, 100
12, 23036, Note_on_c, 10, 59, 0
12, 23040, Note_on_c, 10, 49, 100
12, 23076, Note_on_c, 10, 49, 0
12, 23080, Note_on_c, 10, 59, 100
12, 23116, Note_on_c, 10, 59, 0
12, 23120, Note_on_c, 10, 57, 100
12, 23156, Note_on_c, 10, 57, 0
12, 23160, Note_on_c, 10, 51, 100
12, 23196, Note_on_c, 10, 51, 0
12, 23200, Note_on_c, 10, 59, 100
12, 23236, Note_on_c, 10, 59, 0
12, 23240, Note_on_c, 10, 57, 100
12, 23276, Note_on_c, 10, 57, 0
12, 23280, Note_on_c, 10, 52, 100
12, 23316, Note_on_c, 10, 52, 0
12, 23320, Note_on_c, 10, 59, 100
12, 23356, Note_on_c, 10, 59, 0
12, 23360, Note_on_c, 10, 57, 100
12, 23396, Note_on_c, 10, 57, 0
12, 23400, Note_on_c, 10, 54, 100
12, 23436, Note_on_c, 10, 54, 0
12, 23440, Note_on_c, 10, 59, 100
12, 23476, Note_on_c, 10, 59, 0
12, 23480, Note_on_c, 10, 57, 100
12, 23516, Note_on_c, 10, 57, 0
12, 23520, Note_on_c, 10, 55, 100
12, 23556, Note_on_c, 10, 55, 0
12, 23560, Note_on_c, 10, 54, 100
12, 23596, Note_on_c, 10, 54, 0
12, 23600, Note_on_c, 10, 52, 100
12, 23636, Note_on_c, 10, 52, 0
12, 23640, Note_on_c, 10, 57, 100
12, 23676, Note_on_c, 10, 57, 0
12, 23680, Note_on_c, 10, 59, 100
12, 23716, Note_on_c, 10, 59, 0
12, 23720, Note_on_c, 10, 60, 100
12, 23756, Note_on_c, 10, 60, 0
12, 23760, Note_on_c, 10, 59, 100
12, 23868, Note_on_c, 10, 59, 0
12, 23880, Note_on_c, 10, 47, 100
12, 23988, Note_on_c, 10, 47, 0
12, 24000, Note_on_c, 10, 52, 100
12, 24108, Note_on_c, 10, 52, 0
12, 24120, Note_on_c, 10, 40, 100
12, 24228, Note_on_c, 10, 40, 0
12, 24600, Note_on_c, 10, 64, 100
12, 24636, Note_on_c, 10, 64, 0
12, 24640, Note_on_c, 10, 65, 100
12, 24676, Note_on_c, 10, 65, 0
12, 24680, Note_on_c, 10, 67, 100
12, 24716, Note_on_c, 10, 67, 0
12, 24720, Note_on_c, 10, 61, 100
12, 24756, Note_on_c, 10, 61, 0
12, 24760, Note_on_c, 10, 62, 100
12, 24796, Note_on_c, 10, 62, 0
12, 24800, Note_on_c, 10, 64, 100
12, 24836, Note_on_c, 10, 64, 0
12, 24840, Note_on_c, 10, 57, 100
12, 24876, Note_on_c, 10, 57, 0
12, 24880, Note_on_c, 10, 59, 100
12, 24916, Note_on_c, 10, 59, 0
12, 24920, Note_on_c, 10, 61, 100
12, 24956, Note_on_c, 10, 61, 0
12, 24960, Note_on_c, 10, 50, 100
12, 25068, Note_on_c, 10, 50, 0
12, 25560, Note_on_c, 10, 62, 100
12, 25596, Note_on_c, 10, 62, 0
12, 25600, Note_on_c, 10, 64, 100
12, 25636, Note_on_c, 10, 64, 0
12, 25640, Note_on_c, 10, 65, 100
12, 25676, Note_on_c, 10, 65, 0
12, 25680, Note_on_c, 10, 59, 100
12, 25716, Note_on_c, 10, 59, 0
12, 25720, Note_on_c, 10, 60, 100
12, 25756, Note_on_c, 10, 60, 0
12, 25760, Note_on_c, 10, 62, 100
12, 25796, Note_on_c, 10, 62, 0
12, 25800, Note_on_c, 10, 55, 100
12, 25836, Note_on_c, 10, 55, 0
12, 25840, Note_on_c, 10, 57, 100
12, 25876, Note_on_c, 10, 57, 0
12, 25880, Note_on_c, 10, 59, 100
12, 25916, Note_on_c, 10, 59, 0
12, 25920, Note_on_c, 10, 48, 100
12, 26028, Note_on_c, 10, 48, 0
12, 26280, Note_on_c, 10, 50, 100
12, 26280, Note_on_c, 10, 53, 100
12, 26280, Note_on_c, 10, 55, 100
12, 26280, Note_on_c, 10, 59, 100
12, 26280, Note_on_c, 10, 48, 100
12, 26361, Note_on_c, 10, 50, 0
12, 26361, Note_on_c, 10, 53, 0
12, 26361, Note_on_c, 10, 55, 0
12, 26361, Note_on_c, 10, 59, 0
12, 26361, Note_on_c, 10, 48, 0
12, 26370, Note_on_c, 10, 50, 100
12, 26370, Note_on_c, 10, 53, 100
12, 26370, Note_on_c, 10, 55, 100
12, 26370, Note_on_c, 10, 59, 100
12, 26370, Note_on_c, 10, 48, 100
12, 26397, Note_on_c, 10, 50, 0
12, 26397, Note_on_c, 10, 53, 0
12, 26397, Note_on_c, 10, 55, 0
12, 26397, Note_on_c, 10, 59, 0
12, 26397, Note_on_c, 10, 48, 0
12, 26400, Note_on_c, 10, 60, 100
12, 26400, Note_on_c, 10, 48, 100
12, 26508, Note_on_c, 10, 60, 0
12, 26508, Note_on_c, 10, 48, 0
12, 26760, Note_on_c, 10, 53, 100
12, 26760, Note_on_c, 10, 56, 100
12, 26760, Note_on_c, 10, 59, 100
12, 26760, Note_on_c, 10, 48, 100
12, 26841, Note_on_c, 10, 53, 0
12, 26841, Note_on_c, 10, 56, 0
12, 26841, Note_on_c, 10, 59, 0
12, 26841, Note_on_c, 10, 48, 0
12, 26850, Note_on_c, 10, 53, 100
12, 26850, Note_on_c, 10, 56, 100
12, 26850, Note_on_c, 10, 59, 100
12, 26850, Note_on_c, 10, 48, 100
12, 26877, Note_on_c, 10, 53, 0
12, 26877, Note_on_c, 10, 56, 0
12, 26877, Note_on_c, 10, 59, 0
12, 26877, Note_on_c, 10, 48, 0
12, 26880, Note_on_c, 10, 57, 100
12, 26880, Note_on_c, 10, 48, 100
12, 26988, Note_on_c, 10, 57, 0
12, 26988, Note_on_c, 10, 48, 0
12, 27240, Note_on_c, 10, 50, 100
12, 27240, Note_on_c, 10, 53, 100
12, 27240, Note_on_c, 10, 56, 100
12, 27240, Note_on_c, 10, 48, 100
12, 27321, Note_on_c, 10, 50, 0
12, 27321, Note_on_c, 10, 53, 0
12, 27321, Note_on_c, 10, 56, 0
12, 27321, Note_on_c, 10, 48, 0
12, 27330, Note_on_c, 10, 50, 100
12, 27330, Note_on_c, 10, 53, 100
12, 27330, Note_on_c, 10, 56, 100
12, 27330, Note_on_c, 10, 48, 100
12, 27357, Note_on_c, 10, 50, 0
12, 27357, Note_on_c, 10, 53, 0
12, 27357, Note_on_c, 10, 56, 0
12, 27357, Note_on_c, 10, 48, 0
12, 27360, Note_on_c, 10, 57, 100
12, 27360, Note_on_c, 10, 48, 100
12, 27468, Note_on_c, 10, 57, 0
12, 27468, Note_on_c, 10, 48, 0
12, 27760, Note_on_c, 10, 47, 100
12, 27796, Note_on_c, 10, 47, 0
12, 27800, Note_on_c, 10, 45, 100
12, 27836, Note_on_c, 10, 45, 0
12, 27840, Note_on_c, 10, 47, 100
12, 27876, Note_on_c, 10, 47, 0
12, 27880, Note_on_c, 10, 48, 100
12, 27916, Note_on_c, 10, 48, 0
12, 27920, Note_on_c, 10, 50, 100
12, 27956, Note_on_c, 10, 50, 0
12, 27960, Note_on_c, 10, 48, 100
12, 27996, Note_on_c, 10, 48, 0
12, 28000, Note_on_c, 10, 47, 100
12, 28036, Note_on_c, 10, 47, 0
12, 28040, Note_on_c, 10, 45, 100
12, 28076, Note_on_c, 10, 45, 0
12, 28080, Note_on_c, 10, 47, 100
12, 28116, Note_on_c, 10, 47, 0
12, 28120, Note_on_c, 10, 45, 100
12, 28156, Note_on_c, 10, 45, 0
12, 28160, Note_on_c, 10, 44, 100
12, 28196, Note_on_c, 10, 44, 0
12, 28200, Note_on_c, 10, 45, 100
12, 28236, Note_on_c, 10, 45, 0
12, 28240, Note_on_c, 10, 47, 100
12, 28276, Note_on_c, 10, 47, 0
12, 28280, Note_on_c, 10, 48, 100
12, 28316, Note_on_c, 10, 48, 0
12, 28320, Note_on_c, 10, 47, 100
12, 28356, Note_on_c, 10, 47, 0
12, 28360, Note_on_c, 10, 45, 100
12, 28396, Note_on_c, 10, 45, 0
12, 28400, Note_on_c, 10, 44, 100
12, 28436, Note_on_c, 10, 44, 0
12, 28440, Note_on_c, 10, 45, 100
12, 28476, Note_on_c, 10, 45, 0
12, 28480, Note_on_c, 10, 44, 100
12, 28516, Note_on_c, 10, 44, 0
12, 28520, Note_on_c, 10, 42, 100
12, 28556, Note_on_c, 10, 42, 0
12, 28560, Note_on_c, 10, 44, 100
12, 28596, Note_on_c, 10, 44, 0
12, 28600, Note_on_c, 10, 45, 100
12, 28636, Note_on_c, 10, 45, 0
12, 28640, Note_on_c, 10, 47, 100
12, 28676, Note_on_c, 10, 47, 0
12, 28680, Note_on_c, 10, 45, 100
12, 28716, Note_on_c, 10, 45, 0
12, 28720, Note_on_c, 10, 44, 100
12, 28756, Note_on_c, 10, 44, 0
12, 28760, Note_on_c, 10, 42, 100
12, 28796, Note_on_c, 10, 42, 0
12, 28800, Note_on_c, 10, 44, 100
12, 28836, Note_on_c, 10, 44, 0
12, 28840, Note_on_c, 10, 42, 100
12, 28876, Note_on_c, 10, 42, 0
12, 28880, Note_on_c, 10, 40, 100
12, 28916, Note_on_c, 10, 40, 0
12, 28920, Note_on_c, 10, 47, 100
12, 28956, Note_on_c, 10, 47, 0
12, 28960, Note_on_c, 10, 45, 100
12, 28996, Note_on_c, 10, 45, 0
12, 29000, Note_on_c, 10, 44, 100
12, 29036, Note_on_c, 10, 44, 0
12, 29040, Note_on_c, 10, 50, 100
12, 29076, Note_on_c, 10, 50, 0
12, 29080, Note_on_c, 10, 48, 100
12, 29116, Note_on_c, 10, 48, 0
12, 29120, Note_on_c, 10, 47, 100
12, 29156, Note_on_c, 10, 47, 0
12, 29160, Note_on_c, 10, 53, 100
12, 29196, Note_on_c, 10, 53, 0
12, 29200, Note_on_c, 10, 52, 100
12, 29236, Note_on_c, 10, 52, 0
12, 29240, Note_on_c, 10, 50, 100
12, 29276, Note_on_c, 10, 50, 0
12, 29280, Note_on_c, 10, 56, 100
12, 29316, Note_on_c, 10, 56, 0
12, 29320, Note_on_c, 10, 57, 100
12, 29356, Note_on_c, 10, 57, 0
12, 29360, Note_on_c, 10, 59, 100
12, 29396, Note_on_c, 10, 59, 0
12, 29400, Note_on_c, 10, 60, 100
12, 29436, Note_on_c, 10, 60, 0
12, 29440, Note_on_c, 10, 59, 100
12, 29476, Note_on_c, 10, 59, 0
12, 29480, Note_on_c, 10, 57, 100
12, 29516, Note_on_c, 10, 57, 0
12, 29520, Note_on_c, 10, 64, 100
12, 29628, Note_on_c, 10, 64, 0
12, 29640, Note_on_c, 10, 52, 100
12, 29748, Note_on_c, 10, 52, 0
12, 29760, Note_on_c, 10, 53, 100
12, 29868, Note_on_c, 10, 53, 0
12, 29880, Note_on_c, 10, 41, 100
12, 29988, Note_on_c, 10, 41, 0
12, 30120, Note_on_c, 10, 45, 100
12, 30156, Note_on_c, 10, 45, 0
12, 30160, Note_on_c, 10, 47, 100
12, 30196, Note_on_c, 10, 47, 0
12, 30200, Note_on_c, 10, 49, 100
12, 30236, Note_on_c, 10, 49, 0
12, 30240, Note_on_c, 10, 50, 100
12, 30276, Note_on_c, 10, 50, 0
12, 30280, Note_on_c, 10, 52, 100
12, 30316, Note_on_c, 10, 52, 0
12, 30320, Note_on_c, 10, 53, 100
12, 30356, Note_on_c, 10, 53, 0
12, 30360, Note_on_c, 10, 52, 100
12, 30396, Note_on_c, 10, 52, 0
12, 30400, Note_on_c, 10, 50, 100
12, 30436, Note_on_c, 10, 50, 0
12, 30440, Note_on_c, 10, 49, 100
12, 30476, Note_on_c, 10, 49, 0
12, 30480, Note_on_c, 10, 50, 100
12, 30516, Note_on_c, 10, 50, 0
12, 30520, Note_on_c, 10, 48, 100
12, 30556, Note_on_c, 10, 48, 0
12, 30560, Note_on_c, 10, 47, 100
12, 30596, Note_on_c, 10, 47, 0
12, 30600, Note_on_c, 10, 48, 100
12, 30636, Note_on_c, 10, 48, 0
12, 30640, Note_on_c, 10, 47, 100
12, 30676, Note_on_c, 10, 47, 0
12, 30680, Note_on_c, 10, 45, 100
12, 30716, Note_on_c, 10, 45, 0
12, 30720, Note_on_c, 10, 47, 100
12, 30828, Note_on_c, 10, 47, 0
12, 30840, Note_on_c, 10, 50, 100
12, 30921, Note_on_c, 10, 50, 0
12, 30930, Note_on_c, 10, 48, 100
12, 30957, Note_on_c, 10, 48, 0
12, 30960, Note_on_c, 10, 47, 100
12, 31068, Note_on_c, 10, 47, 0
12, 31080, Note_on_c, 10, 45, 100
12, 31188, Note_on_c, 10, 45, 0
12, 31200, Note_on_c, 10, 44, 100
12, 31308, Note_on_c, 10, 44, 0
12, 31320, Note_on_c, 10, 56, 100
12, 31401, Note_on_c, 10, 56, 0
12, 31410, Note_on_c, 10, 57, 100
12, 31437, Note_on_c, 10, 57, 0
12, 31440, Note_on_c, 10, 59, 100
12, 31548, Note_on_c, 10, 59, 0
12, 31560, Note_on_c, 10, 56, 100
12, 31668, Note_on_c, 10, 56, 0
12, 31680, Note_on_c, 10, 52, 100
12, 31788, Note_on_c, 10, 52, 0
12, 31800, Note_on_c, 10, 40, 100
12, 31908, Note_on_c, 10, 40, 0
12, 32040, Note_on_c, 10, 56, 100
12, 32040, Note_on_c, 10, 47, 100
12, 32148, Note_on_c, 10, 47, 0
12, 32160, Note_on_c, 10, 48, 100
12, 32196, Note_on_c, 10, 56, 0
12, 32200, Note_on_c, 10, 54, 100
12, 32236, Note_on_c, 10, 54, 0
12, 32240, Note_on_c, 10, 52, 100
12, 32276, Note_on_c, 10, 52, 0
12, 32280, Note_on_c, 10, 57, 100
12, 32322, Note_on_c, 10, 48, 0
12, 32340, Note_on_c, 10, 50, 100
12, 32388, Note_on_c, 10, 57, 0
12, 32394, Note_on_c, 10, 50, 0
12, 32400, Note_on_c, 10, 52, 100
12, 32400, Note_on_c, 10, 52, 100
12, 32508, Note_on_c, 10, 52, 0
12, 32508, Note_on_c, 10, 52, 0
12, 32520, Note_on_c, 10, 40, 100
12, 32628, Note_on_c, 10, 40, 0
12, 32640, Note_on_c, 10, 45, 100
12, 32748, Note_on_c, 10, 45, 0
12, 33240, Note_on_c, 10, 53, 100
12, 33348, Note_on_c, 10, 53, 0
12, 33360, Note_on_c, 10, 49, 100
12, 33468, Note_on_c, 10, 49, 0
12, 33480, Note_on_c, 10, 50, 100
12, 33588, Note_on_c, 10, 50, 0
12, 33600, Note_on_c, 10, 45, 100
12, 33708, Note_on_c, 10, 45, 0
12, 34680, Note_on_c, 10, 57, 100
12, 34761, Note_on_c, 10, 57, 0
12, 34770, Note_on_c, 10, 59, 100
12, 34797, Note_on_c, 10, 59, 0
12, 34800, Note_on_c, 10, 61, 100
12, 34908, Note_on_c, 10, 61, 0
12, 34920, Note_on_c, 10, 57, 100
12, 35028, Note_on_c, 10, 57, 0
12, 35040, Note_on_c, 10, 62, 100
12, 35148, Note_on_c, 10, 62, 0
12, 35160, Note_on_c, 10, 50, 100
12, 35241, Note_on_c, 10, 50, 0
12, 35250, Note_on_c, 10, 52, 100
12, 35277, Note_on_c, 10, 52, 0
12, 35280, Note_on_c, 10, 54, 100
12, 35388, Note_on_c, 10, 54, 0
12, 35400, Note_on_c, 10, 50, 100
12, 35508, Note_on_c, 10, 50, 0
12, 35520, Note_on_c, 10, 43, 100
12, 35628, Note_on_c, 10, 43, 0
12, 35640, Note_on_c, 10, 55, 100
12, 35721, Note_on_c, 10, 55, 0
12, 35730, Note_on_c, 10, 57, 100
12, 35757, Note_on_c, 10, 57, 0
12, 35760, Note_on_c, 10, 59, 100
12, 35868, Note_on_c, 10, 59, 0
12, 35880, Note_on_c, 10, 55, 100
12, 35988, Note_on_c, 10, 55, 0
12, 36000, Note_on_c, 10, 60, 100
12, 36108, Note_on_c, 10, 60, 0
12, 36120, Note_on_c, 10, 48, 100
12, 36201, Note_on_c, 10, 48, 0
12, 36210, Note_on_c, 10, 50, 100
12, 36237, Note_on_c, 10, 50, 0
12, 36240, Note_on_c, 10, 52, 100
12, 36348, Note_on_c, 10, 52, 0
12, 36360, Note_on_c, 10, 48, 100
12, 36468, Note_on_c, 10, 48, 0
12, 36480, Note_on_c, 10, 53, 100
12, 36516, Note_on_c, 10, 53, 0
12, 36520, Note_on_c, 10, 52, 100
12, 36556, Note_on_c, 10, 52, 0
12, 36560, Note_on_c, 10, 50, 100
12, 36596, Note_on_c, 10, 50, 0
12, 36600, Note_on_c, 10, 50, 100
12, 36636, Note_on_c, 10, 50, 0
12, 36640, Note_on_c, 10, 48, 100
12, 36676, Note_on_c, 10, 48, 0
12, 36680, Note_on_c, 10, 47, 100
12, 36716, Note_on_c, 10, 47, 0
12, 36720, Note_on_c, 10, 47, 100
12, 36756, Note_on_c, 10, 47, 0
12, 36760, Note_on_c, 10, 49, 100
12, 36796, Note_on_c, 10, 49, 0
12, 36800, Note_on_c, 10, 50, 100
12, 36836, Note_on_c, 10, 50, 0
12, 36840, Note_on_c, 10, 50, 100
12, 36876, Note_on_c, 10, 50, 0
12, 36880, Note_on_c, 10, 52, 100
12, 36916, Note_on_c, 10, 52, 0
12, 36920, Note_on_c, 10, 53, 100
12, 36956, Note_on_c, 10, 53, 0
12, 36960, Note_on_c, 10, 52, 100
12, 36996, Note_on_c, 10, 52, 0
12, 37000, Note_on_c, 10, 50, 100
12, 37036, Note_on_c, 10, 50, 0
12, 37040, Note_on_c, 10, 49, 100
12, 37076, Note_on_c, 10, 49, 0
12, 37080, Note_on_c, 10, 49, 100
12, 37116, Note_on_c, 10, 49, 0
12, 37120, Note_on_c, 10, 47, 100
12, 37156, Note_on_c, 10, 47, 0
12, 37160, Note_on_c, 10, 45, 100
12, 37196, Note_on_c, 10, 45, 0
12, 37200, Note_on_c, 10, 45, 100
12, 37236, Note_on_c, 10, 45, 0
12, 37240, Note_on_c, 10, 47, 100
12, 37276, Note_on_c, 10, 47, 0
12, 37280, Note_on_c, 10, 49, 100
12, 37316, Note_on_c, 10, 49, 0
12, 37320, Note_on_c, 10, 49, 100
12, 37356, Note_on_c, 10, 49, 0
12, 37360, Note_on_c, 10, 50, 100
12, 37396, Note_on_c, 10, 50, 0
12, 37400, Note_on_c, 10, 52, 100
12, 37436, Note_on_c, 10, 52, 0
12, 37440, Note_on_c, 10, 50, 100
12, 37548, Note_on_c, 10, 50, 0
12, 37560, Note_on_c, 10, 38, 100
12, 37668, Note_on_c, 10, 38, 0
12, 37680, Note_on_c, 10, 38, 100
12, 37788, Note_on_c, 10, 38, 0
12, 37800, Note_on_c, 10, 38, 100
12, 37908, Note_on_c, 10, 38, 0
12, 37920, Note_on_c, 10, 38, 100
12, 38028, Note_on_c, 10, 38, 0
12, 38040, Note_on_c, 10, 50, 100
12, 38148, Note_on_c, 10, 50, 0
12, 38160, Note_on_c, 10, 48, 100
12, 38268, Note_on_c, 10, 48, 0
12, 38280, Note_on_c, 10, 47, 100
12, 38388, Note_on_c, 10, 47, 0
12, 38400, Note_on_c, 10, 48, 100
12, 38508, Note_on_c, 10, 48, 0
12, 38520, Note_on_c, 10, 50, 100
12, 38628, Note_on_c, 10, 50, 0
12, 38640, Note_on_c, 10, 52, 100
12, 38748, Note_on_c, 10, 52, 0
12, 38760, Note_on_c, 10, 40, 100
12, 38868, Note_on_c, 10, 40, 0
12, 38880, Note_on_c, 10, 41, 100
12, 38988, Note_on_c, 10, 41, 0
12, 39000, Note_on_c, 10, 57, 100
12, 39000, Note_on_c, 10, 38, 100
12, 39081, Note_on_c, 10, 57, 0
12, 39090, Note_on_c, 10, 59, 100
12, 39108, Note_on_c, 10, 38, 0
12, 39117, Note_on_c, 10, 59, 0
12, 39120, Note_on_c, 10, 60, 100
12, 39120, Note_on_c, 10, 40, 100
12, 39156, Note_on_c, 10, 60, 0
12, 39160, Note_on_c, 10, 62, 100
12, 39196, Note_on_c, 10, 62, 0
12, 39200, Note_on_c, 10, 64, 100
12, 39228, Note_on_c, 10, 40, 0
12, 39236, Note_on_c, 10, 64, 0
12, 39240, Note_on_c, 10, 62, 100
12, 39240, Note_on_c, 10, 40, 100
12, 39276, Note_on_c, 10, 62, 0
12, 39280, Note_on_c, 10, 60, 100
12, 39316, Note_on_c, 10, 60, 0
12, 39320, Note_on_c, 10, 59, 100
12, 39348, Note_on_c, 10, 40, 0
12, 39356, Note_on_c, 10, 59, 0
12, 39360, Note_on_c, 10, 60, 100
12, 39360, Note_on_c, 10, 45, 100
12, 39396, Note_on_c, 10, 60, 0
12, 39400, Note_on_c, 10, 59, 100
12, 39436, Note_on_c, 10, 59, 0
12, 39440, Note_on_c, 10, 57, 100
12, 39468, Note_on_c, 10, 45, 0
12, 39476, Note_on_c, 10, 57, 0
12, 39480, Note_on_c, 10, 60, 100
12, 39516, Note_on_c, 10, 60, 0
12, 39520, Note_on_c, 10, 59, 100
12, 39556, Note_on_c, 10, 59, 0
12, 39560, Note_on_c, 10, 57, 100
12, 39596, Note_on_c, 10, 57, 0
12, 39600, Note_on_c, 10, 59, 100
12, 39636, Note_on_c, 10, 59, 0
12, 39640, Note_on_c, 10, 57, 100
12, 39676, Note_on_c, 10, 57, 0
12, 39680, Note_on_c, 10, 55, 100
12, 39716, Note_on_c, 10, 55, 0
12, 39720, Note_on_c, 10, 54, 100
12, 39756, Note_on_c, 10, 54, 0
12, 39760, Note_on_c, 10, 64, 100
12, 39796, Note_on_c, 10, 64, 0
12, 39800, Note_on_c, 10, 63, 100
12, 39836, Note_on_c, 10, 63, 0
12, 39840, Note_on_c, 10, 64, 100
12, 39948, Note_on_c, 10, 64, 0
12, 39960, Note_on_c, 10, 60, 100
12, 39960, Note_on_c, 10, 45, 100
12, 40041, Note_on_c, 10, 45, 0
12, 40050, Note_on_c, 10, 47, 100
12, 40068, Note_on_c, 10, 60, 0
12, 40077, Note_on_c, 10, 47, 0
12, 40080, Note_on_c, 10, 57, 100
12, 40080, Note_on_c, 10, 48, 100
12, 40116, Note_on_c, 10, 48, 0
12, 40120, Note_on_c, 10, 50, 100
12, 40156, Note_on_c, 10, 50, 0
12, 40160, Note_on_c, 10, 52, 100
12, 40188, Note_on_c, 10, 57, 0
12, 40196, Note_on_c, 10, 52, 0
12, 40200, Note_on_c, 10, 59, 100
12, 40200, Note_on_c, 10, 50, 100
12, 40236, Note_on_c, 10, 50, 0
12, 40240, Note_on_c, 10, 48, 100
12, 40276, Note_on_c, 10, 48, 0
12, 40280, Note_on_c, 10, 47, 100
12, 40308, Note_on_c, 10, 59, 0
12, 40316, Note_on_c, 10, 47, 0
12, 40320, Note_on_c, 10, 64, 100
12, 40320, Note_on_c, 10, 48, 100
12, 40356, Note_on_c, 10, 48, 0
12, 40360, Note_on_c, 10, 47, 100
12, 40396, Note_on_c, 10, 47, 0
12, 40400, Note_on_c, 10, 45, 100
12, 40428, Note_on_c, 10, 64, 0
12, 40436, Note_on_c, 10, 45, 0
12, 40440, Note_on_c, 10, 52, 100
12, 40440, Note_on_c, 10, 48, 100
12, 40476, Note_on_c, 10, 48, 0
12, 40480, Note_on_c, 10, 47, 100
12, 40494, Note_on_c, 10, 52, 0
12, 40500, Note_on_c, 10, 54, 100
12, 40516, Note_on_c, 10, 47, 0
12, 40520, Note_on_c, 10, 45, 100
12, 40554, Note_on_c, 10, 54, 0
12, 40556, Note_on_c, 10, 45, 0
12, 40560, Note_on_c, 10, 55, 100
12, 40560, Note_on_c, 10, 47, 100
12, 40596, Note_on_c, 10, 55, 0
12, 40596, Note_on_c, 10, 47, 0
12, 40600, Note_on_c, 10, 57, 100
12, 40600, Note_on_c, 10, 45, 100
12, 40636, Note_on_c, 10, 57, 0
12, 40636, Note_on_c, 10, 45, 0
12, 40640, Note_on_c, 10, 59, 100
12, 40640, Note_on_c, 10, 43, 100
12, 40676, Note_on_c, 10, 59, 0
12, 40676, Note_on_c, 10, 43, 0
12, 40680, Note_on_c, 10, 57, 100
12, 40680, Note_on_c, 10, 42, 100
12, 40716, Note_on_c, 10, 57, 0
12, 40716, Note_on_c, 10, 42, 0
12, 40720, Note_on_c, 10, 55, 100
12, 40720, Note_on_c, 10, 52, 100
12, 40756, Note_on_c, 10, 55, 0
12, 40756, Note_on_c, 10, 52, 0
12, 40760, Note_on_c, 10, 54, 100
12, 40760, Note_on_c, 10, 51, 100
12, 40796, Note_on_c, 10, 54, 0
12, 40796, Note_on_c, 10, 51, 0
12, 40800, Note_on_c, 10, 55, 100
12, 40800, Note_on_c, 10, 52, 100
12, 40908, Note_on_c, 10, 55, 0
12, 40908, Note_on_c, 10, 52, 0
12, 40920, Note_on_c, 10, 40, 100
12, 41001, Note_on_c, 10, 40, 0
12, 41010, Note_on_c, 10, 42, 100
12, 41037, Note_on_c, 10, 42, 0
12, 41040, Note_on_c, 10, 43, 100
12, 41076, Note_on_c, 10, 43, 0
12, 41080, Note_on_c, 10, 45, 100
12, 41116, Note_on_c, 10, 45, 0
12, 41120, Note_on_c, 10, 47, 100
12, 41156, Note_on_c, 10, 47, 0
12, 41160, Note_on_c, 10, 59, 100
12, 41160, Note_on_c, 10, 45, 100
12, 41196, Note_on_c, 10, 45, 0
12, 41200, Note_on_c, 10, 43, 100
12, 41236, Note_on_c, 10, 43, 0
12, 41240, Note_on_c, 10, 42, 100
12, 41276, Note_on_c, 10, 42, 0
12, 41280, Note_on_c, 10, 43, 100
12, 41388, Note_on_c, 10, 59, 0
12, 41388, Note_on_c, 10, 43, 0
12, 41400, Note_on_c, 10, 59, 100
12, 41400, Note_on_c, 10, 55, 100
12, 41508, Note_on_c, 10, 59, 0
12, 41520, Note_on_c, 10, 61, 100
12, 41616, Note_on_c, 10, 55, 0
12, 41628, Note_on_c, 10, 61, 0
12, 41640, Note_on_c, 10, 63, 100
12, 41640, Note_on_c, 10, 54, 100
12, 41748, Note_on_c, 10, 63, 0
12, 41748, Note_on_c, 10, 54, 0
12, 41760, Note_on_c, 10, 64, 100
12, 41760, Note_on_c, 10, 52, 100
12, 41868, Note_on_c, 10, 64, 0
12, 41880, Note_on_c, 10, 59, 100
12, 41976, Note_on_c, 10, 52, 0
12, 41988, Note_on_c, 10, 59, 0
12, 42000, Note_on_c, 10, 64, 100
12, 42120, Note_on_c, 10, 52, 100
12, 42228, Note_on_c, 10, 52, 0
12, 42240, Note_on_c, 10, 54, 100
12, 42348, Note_on_c, 10, 64, 0
12, 42348, Note_on_c, 10, 54, 0
12, 42360, Note_on_c, 10, 62, 100
12, 42396, Note_on_c, 10, 62, 0
12, 42400, Note_on_c, 10, 60, 100
12, 42436, Note_on_c, 10, 60, 0
12, 42440, Note_on_c, 10, 62, 100
12, 42476, Note_on_c, 10, 62, 0
12, 42480, Note_on_c, 10, 57, 100
12, 42588, Note_on_c, 10, 57, 0
12, 42600, Note_on_c, 10, 62, 100
12, 42600, Note_on_c, 10, 54, 100
12, 42708, Note_on_c, 10, 54, 0
12, 42720, Note_on_c, 10, 56, 100
12, 42828, Note_on_c, 10, 62, 0
12, 42828, Note_on_c, 10, 56, 0
12, 42840, Note_on_c, 10, 65, 100
12, 42921, Note_on_c, 10, 65, 0
12, 42930, Note_on_c, 10, 64, 100
12, 42957, Note_on_c, 10, 64, 0
12, 42960, Note_on_c, 10, 65, 100
12, 43068, Note_on_c, 10, 65, 0
12, 43080, Note_on_c, 10, 64, 100
12, 43080, Note_on_c, 10, 56, 100
12, 43188, Note_on_c, 10, 64, 0
12, 43188, Note_on_c, 10, 56, 0
12, 43200, Note_on_c, 10, 57, 100
12, 43308, Note_on_c, 10, 57, 0
12, 43320, Note_on_c, 10, 65, 100
12, 43428, Note_on_c, 10, 65, 0
12, 43440, Note_on_c, 10, 55, 100
12, 43476, Note_on_c, 10, 55, 0
12, 43480, Note_on_c, 10, 57, 100
12, 43516, Note_on_c, 10, 57, 0
12, 43520, Note_on_c, 10, 59, 100
12, 43556, Note_on_c, 10, 59, 0
12, 43560, Note_on_c, 10, 64, 100
12, 43596, Note_on_c, 10, 64, 0
12, 43600, Note_on_c, 10, 62, 100
12, 43636, Note_on_c, 10, 62, 0
12, 43640, Note_on_c, 10, 64, 100
12, 43676, Note_on_c, 10, 64, 0
12, 43680, Note_on_c, 10, 53, 100
12, 43788, Note_on_c, 10, 53, 0
12, 43800, Note_on_c, 10, 62, 100
12, 43908, Note_on_c, 10, 62, 0
12, 43920, Note_on_c, 10, 52, 100
12, 43956, Note_on_c, 10, 52, 0
12, 43960, Note_on_c, 10, 53, 100
12, 43996, Note_on_c, 10, 53, 0
12, 44000, Note_on_c, 10, 55, 100
12, 44036, Note_on_c, 10, 55, 0
12, 44040, Note_on_c, 10, 60, 100
12, 44076, Note_on_c, 10, 60, 0
12, 44080, Note_on_c, 10, 59, 100
12, 44116, Note_on_c, 10, 59, 0
12, 44120, Note_on_c, 10, 60, 100
12, 44156, Note_on_c, 10, 60, 0
12, 44160, Note_on_c, 10, 50, 100
12, 44268, Note_on_c, 10, 50, 0
12, 44280, Note_on_c, 10, 59, 100
12, 44388, Note_on_c, 10, 59, 0
12, 44400, Note_on_c, 10, 48, 100
12, 44436, Note_on_c, 10, 48, 0
12, 44440, Note_on_c, 10, 50, 100
12, 44476, Note_on_c, 10, 50, 0
12, 44480, Note_on_c, 10, 52, 100
12, 44516, Note_on_c, 10, 52, 0
12, 44520, Note_on_c, 10, 57, 100
12, 44556, Note_on_c, 10, 57, 0
12, 44560, Note_on_c, 10, 55, 100
12, 44596, Note_on_c, 10, 55, 0
12, 44600, Note_on_c, 10, 57, 100
12, 44636, Note_on_c, 10, 57, 0
12, 44640, Note_on_c, 10, 55, 100
12, 44748, Note_on_c, 10, 55, 0
12, 44760, Note_on_c, 10, 43, 100
12, 44868, Note_on_c, 10, 43, 0
12, 44880, Note_on_c, 10, 55, 100
12, 44988, Note_on_c, 10, 55, 0
12, 45000, Note_on_c, 10, 43, 100
12, 45108, Note_on_c, 10, 43, 0
12, 45120, Note_on_c, 10, 55, 100
12, 45228, Note_on_c, 10, 55, 0
12, 45240, Note_on_c, 10, 43, 100
12, 45348, Note_on_c, 10, 43, 0
12, 45360, Note_on_c, 10, 55, 100
12, 45468, Note_on_c, 10, 55, 0
12, 45480, Note_on_c, 10, 43, 100
12, 45588, Note_on_c, 10, 43, 0
12, 45600, Note_on_c, 10, 55, 100
12, 45708, Note_on_c, 10, 55, 0
12, 45720, Note_on_c, 10, 43, 100
12, 45828, Note_on_c, 10, 43, 0
12, 45840, Note_on_c, 10, 55, 100
12, 45948, Note_on_c, 10, 55, 0
12, 45960, Note_on_c, 10, 43, 100
12, 46068, Note_on_c, 10, 43, 0
12, 46080, Note_on_c, 10, 48, 100
12, 46116, Note_on_c, 10, 48, 0
12, 46120, Note_on_c, 10, 57, 100
12, 46156, Note_on_c, 10, 57, 0
12, 46160, Note_on_c, 10, 55, 100
12, 46196, Note_on_c, 10, 55, 0
12, 46200, Note_on_c, 10, 47, 100
12, 46236, Note_on_c, 10, 47, 0
12, 46240, Note_on_c, 10, 57, 100
12, 46276, Note_on_c, 10, 57, 0
12, 46280, Note_on_c, 10, 55, 100
12, 46316, Note_on_c, 10, 55, 0
12, 46320, Note_on_c, 10, 48, 100
12, 46356, Note_on_c, 10, 48, 0
12, 46360, Note_on_c, 10, 57, 100
12, 46396, Note_on_c, 10, 57, 0
12, 46400, Note_on_c, 10, 55, 100
12, 46436, Note_on_c, 10, 55, 0
12, 46440, Note_on_c, 10, 50, 100
12, 46476, Note_on_c, 10, 50, 0
12, 46480, Note_on_c, 10, 57, 100
12, 46516, Note_on_c, 10, 57, 0
12, 46520, Note_on_c, 10, 55, 100
12, 46556, Note_on_c, 10, 55, 0
12, 46560, Note_on_c, 10, 52, 100
12, 46596, Note_on_c, 10, 52, 0
12, 46600, Note_on_c, 10, 57, 100
12, 46636, Note_on_c, 10, 57, 0
12, 46640, Note_on_c, 10, 55, 100
12, 46676, Note_on_c, 10, 55, 0
12, 46680, Note_on_c, 10, 47, 100
12, 46716, Note_on_c, 10, 47, 0
12, 46720, Note_on_c, 10, 57, 100
12, 46756, Note_on_c, 10, 57, 0
12, 46760, Note_on_c, 10, 55, 100
12, 46796, Note_on_c, 10, 55, 0
12, 46800, Note_on_c, 10, 48, 100
12, 46836, Note_on_c, 10, 48, 0
12, 46840, Note_on_c, 10, 57, 100
12, 46876, Note_on_c, 10, 57, 0
12, 46880, Note_on_c, 10, 55, 100
12, 46916, Note_on_c, 10, 55, 0
12, 46920, Note_on_c, 10, 50, 100
12, 46956, Note_on_c, 10, 50, 0
12, 46960, Note_on_c, 10, 57, 100
12, 46996, Note_on_c, 10, 57, 0
12, 47000, Note_on_c, 10, 55, 100
12, 47036, Note_on_c, 10, 55, 0
12, 47040, Note_on_c, 10, 52, 100
12, 47076, Note_on_c, 10, 52, 0
12, 47080, Note_on_c, 10, 57, 100
12, 47116, Note_on_c, 10, 57, 0
12, 47120, Note_on_c, 10, 55, 100
12, 47156, Note_on_c, 10, 55, 0
12, 47160, Note_on_c, 10, 53, 100
12, 47196, Note_on_c, 10, 53, 0
12, 47200, Note_on_c, 10, 55, 100
12, 47236, Note_on_c, 10, 55, 0
12, 47240, Note_on_c, 10, 52, 100
12, 47276, Note_on_c, 10, 52, 0
12, 47280, Note_on_c, 10, 50, 100
12, 47316, Note_on_c, 10, 50, 0
12, 47320, Note_on_c, 10, 52, 100
12, 47356, Note_on_c, 10, 52, 0
12, 47360, Note_on_c, 10, 53, 100
12, 47396, Note_on_c, 10, 53, 0
12, 47400, Note_on_c, 10, 47, 100
12, 47436, Note_on_c, 10, 47, 0
12, 47440, Note_on_c, 10, 48, 100
12, 47476, Note_on_c, 10, 48, 0
12, 47480, Note_on_c, 10, 50, 100
12, 47516, Note_on_c, 10, 50, 0
12, 47520, Note_on_c, 10, 43, 100
12, 47556, Note_on_c, 10, 43, 0
12, 47560, Note_on_c, 10, 45, 100
12, 47596, Note_on_c, 10, 45, 0
12, 47600, Note_on_c, 10, 47, 100
12, 47636, Note_on_c, 10, 47, 0
12, 47640, Note_on_c, 10, 48, 100
12, 47676, Note_on_c, 10, 48, 0
12, 47680, Note_on_c, 10, 47, 100
12, 47716, Note_on_c, 10, 47, 0
12, 47720, Note_on_c, 10, 48, 100
12, 47756, Note_on_c, 10, 48, 0
12, 47760, Note_on_c, 10, 41, 100
12, 47796, Note_on_c, 10, 41, 0
12, 47800, Note_on_c, 10, 43, 100
12, 47836, Note_on_c, 10, 43, 0
12, 47840, Note_on_c, 10, 45, 100
12, 47876, Note_on_c, 10, 45, 0
12, 47880, Note_on_c, 10, 43, 100
12, 47916, Note_on_c, 10, 43, 0
12, 47920, Note_on_c, 10, 41, 100
12, 47956, Note_on_c, 10, 41, 0
12, 47960, Note_on_c, 10, 43, 100
12, 47996, Note_on_c, 10, 43, 0
12, 48000, Note_on_c, 10, 36, 100
12, 48108, Note_on_c, 10, 36, 0
12, 48600, Note_on_c, 10, 60, 100
12, 48708, Note_on_c, 10, 60, 0
12, 48720, Note_on_c, 10, 52, 100
12, 48828, Note_on_c, 10, 52, 0
12, 48840, Note_on_c, 10, 55, 100
12, 48948, Note_on_c, 10, 55, 0
12, 48960, Note_on_c, 10, 48, 100
12, 49068, Note_on_c, 10, 48, 0
12, 49560, Note_on_c, 10, 48, 100
12, 49614, Note_on_c, 10, 48, 0
12, 49620, Note_on_c, 10, 50, 100
12, 49674, Note_on_c, 10, 50, 0
12, 49680, Note_on_c, 10, 52, 100
12, 49734, Note_on_c, 10, 52, 0
12, 49740, Note_on_c, 10, 55, 100
12, 49794, Note_on_c, 10, 55, 0
12, 49800, Note_on_c, 10, 53, 100
12, 49854, Note_on_c, 10, 53, 0
12, 49860, Note_on_c, 10, 50, 100
12, 49914, Note_on_c, 10, 50, 0
12, 49920, Note_on_c, 10, 52, 100
12, 50028, Note_on_c, 10, 52, 0
12, 50040, Note_on_c, 10, 48, 100
12, 50148, Note_on_c, 10, 48, 0
12, 50160, Note_on_c, 10, 50, 100
12, 50268, Note_on_c, 10, 50, 0
12, 50280, Note_on_c, 10, 52, 100
12, 50388, Note_on_c, 10, 52, 0
12, 50400, Note_on_c, 10, 53, 100
12, 50508, Note_on_c, 10, 53, 0
12, 50520, Note_on_c, 10, 50, 100
12, 50628, Note_on_c, 10, 50, 0
12, 50640, Note_on_c, 10, 52, 100
12, 50748, Note_on_c, 10, 52, 0
12, 50760, Note_on_c, 10, 54, 100
12, 50868, Note_on_c, 10, 54, 0
12, 50880, Note_on_c, 10, 55, 100
12, 50988, Note_on_c, 10, 55, 0
12, 51000, Note_on_c, 10, 52, 100
12, 51108, Note_on_c, 10, 52, 0
12, 51120, Note_on_c, 10, 54, 100
12, 51228, Note_on_c, 10, 54, 0
12, 51240, Note_on_c, 10, 56, 100
12, 51348, Note_on_c, 10, 56, 0
12, 51360, Note_on_c, 10, 57, 100
12, 51396, Note_on_c, 10, 57, 0
12, 51400, Note_on_c, 10, 59, 100
12, 51436, Note_on_c, 10, 59, 0
12, 51440, Note_on_c, 10, 60, 100
12, 51476, Note_on_c, 10, 60, 0
12, 51480, Note_on_c, 10, 62, 100
12, 51516, Note_on_c, 10, 62, 0
12, 51520, Note_on_c, 10, 60, 100
12, 51556, Note_on_c, 10, 60, 0
12, 51560, Note_on_c, 10, 62, 100
12, 51596, Note_on_c, 10, 62, 0
12, 51600, Note_on_c, 10, 59, 100
12, 51636, Note_on_c, 10, 59, 0
12, 51640, Note_on_c, 10, 57, 100
12, 51676, Note_on_c, 10, 57, 0
12, 51680, Note_on_c, 10, 55, 100
12, 51716, Note_on_c, 10, 55, 0
12, 51720, Note_on_c, 10, 60, 100
12, 51756, Note_on_c, 10, 60, 0
12, 51760, Note_on_c, 10, 59, 100
12, 51796, Note_on_c, 10, 59, 0
12, 51800, Note_on_c, 10, 60, 100
12, 51836, Note_on_c, 10, 60, 0
12, 51840, Note_on_c, 10, 57, 100
12, 51876, Note_on_c, 10, 57, 0
12, 51880, Note_on_c, 10, 59, 100
12, 51916, Note_on_c, 10, 59, 0
12, 51920, Note_on_c, 10, 60, 100
12, 51956, Note_on_c, 10, 60, 0
12, 51960, Note_on_c, 10, 59, 100
12, 51996, Note_on_c, 10, 59, 0
12, 52000, Note_on_c, 10, 57, 100
12, 52036, Note_on_c, 10, 57, 0
12, 52040, Note_on_c, 10, 59, 100
12, 52076, Note_on_c, 10, 59, 0
12, 52080, Note_on_c, 10, 55, 100
12, 52116, Note_on_c, 10, 55, 0
12, 52120, Note_on_c, 10, 53, 100
12, 52156, Note_on_c, 10, 53, 0
12, 52160, Note_on_c, 10, 52, 100
12, 52196, Note_on_c, 10, 52, 0
12, 52200, Note_on_c, 10, 57, 100
12, 52236, Note_on_c, 10, 57, 0
12, 52240, Note_on_c, 10, 55, 100
12, 52276, Note_on_c, 10, 55, 0
12, 52280, Note_on_c, 10, 57, 100
12, 52316, Note_on_c, 10, 57, 0
12, 52320, Note_on_c, 10, 53, 100
12, 52356, Note_on_c, 10, 53, 0
12, 52360, Note_on_c, 10, 55, 100
12, 52396, Note_on_c, 10, 55, 0
12, 52400, Note_on_c, 10, 57, 100
12, 52436, Note_on_c, 10, 57, 0
12, 52440, Note_on_c, 10, 55, 100
12, 52476, Note_on_c, 10, 55, 0
12, 52480, Note_on_c, 10, 53, 100
12, 52516, Note_on_c, 10, 53, 0
12, 52520, Note_on_c, 10, 55, 100
12, 52556, Note_on_c, 10, 55, 0
12, 52560, Note_on_c, 10, 52, 100
12, 52596, Note_on_c, 10, 52, 0
12, 52600, Note_on_c, 10, 55, 100
12, 52636, Note_on_c, 10, 55, 0
12, 52640, Note_on_c, 10, 52, 100
12, 52676, Note_on_c, 10, 52, 0
12, 52680, Note_on_c, 10, 48, 100
12, 52716, Note_on_c, 10, 48, 0
12, 52720, Note_on_c, 10, 50, 100
12, 52756, Note_on_c, 10, 50, 0
12, 52760, Note_on_c, 10, 52, 100
12, 52796, Note_on_c, 10, 52, 0
12, 52800, Note_on_c, 10, 53, 100
12, 52836, Note_on_c, 10, 53, 0
12, 52840, Note_on_c, 10, 55, 100
12, 52876, Note_on_c, 10, 55, 0
12, 52880, Note_on_c, 10, 57, 100
12, 52916, Note_on_c, 10, 57, 0
12, 52920, Note_on_c, 10, 54, 100
12, 52956, Note_on_c, 10, 54, 0
12, 52960, Note_on_c, 10, 57, 100
12, 52996, Note_on_c, 10, 57, 0
12, 53000, Note_on_c, 10, 62, 100
12, 53036, Note_on_c, 10, 62, 0
12, 53040, Note_on_c, 10, 55, 100
12, 53076, Note_on_c, 10, 55, 0
12, 53080, Note_on_c, 10, 57, 100
12, 53116, Note_on_c, 10, 57, 0
12, 53120, Note_on_c, 10, 59, 100
12, 53156, Note_on_c, 10, 59, 0
12, 53160, Note_on_c, 10, 56, 100
12, 53196, Note_on_c, 10, 56, 0
12, 53200, Note_on_c, 10, 59, 100
12, 53236, Note_on_c, 10, 59, 0
12, 53240, Note_on_c, 10, 64, 100
12, 53276, Note_on_c, 10, 64, 0
12, 53280, Note_on_c, 10, 57, 100
12, 53316, Note_on_c, 10, 57, 0
12, 53320, Note_on_c, 10, 59, 100
12, 53356, Note_on_c, 10, 59, 0
12, 53360, Note_on_c, 10, 60, 100
12, 53396, Note_on_c, 10, 60, 0
12, 53400, Note_on_c, 10, 57, 100
12, 53436, Note_on_c, 10, 57, 0
12, 53440, Note_on_c, 10, 60, 100
12, 53476, Note_on_c, 10, 60, 0
12, 53480, Note_on_c, 10, 65, 100
12, 53516, Note_on_c, 10, 65, 0
12, 53520, Note_on_c, 10, 59, 100
12, 53556, Note_on_c, 10, 59, 0
12, 53560, Note_on_c, 10, 60, 100
12, 53596, Note_on_c, 10, 60, 0
12, 53600, Note_on_c, 10, 62, 100
12, 53636, Note_on_c, 10, 62, 0
12, 53640, Note_on_c, 10, 59, 100
12, 53676, Note_on_c, 10, 59, 0
12, 53680, Note_on_c, 10, 62, 100
12, 53716, Note_on_c, 10, 62, 0
12, 53720, Note_on_c, 10, 67, 100
12, 53756, Note_on_c, 10, 67, 0
12, 53760, Note_on_c, 10, 60, 100
12, 54192, Note_on_c, 10, 60, 0
12, 54240, Note_on_c, 10, 61, 100
12, 54672, Note_on_c, 10, 61, 0
12, 54720, Note_on_c, 10, 62, 100
12, 55152, Note_on_c, 10, 62, 0
12, 55200, Note_on_c, 10, 63, 100
12, 55632, Note_on_c, 10, 63, 0
12, 55680, Note_on_c, 10, 64, 100
12, 55716, Note_on_c, 10, 64, 0
12, 55720, Note_on_c, 10, 66, 100
12, 55756, Note_on_c, 10, 66, 0
12, 55760, Note_on_c, 10, 67, 100
12, 55796, Note_on_c, 10, 67, 0
12, 55800, Note_on_c, 10, 69, 100
12, 55836, Note_on_c, 10, 69, 0
12, 55840, Note_on_c, 10, 67, 100
12, 55876, Note_on_c, 10, 67, 0
12, 55880, Note_on_c, 10, 69, 100
12, 55916, Note_on_c, 10, 69, 0
12, 55920, Note_on_c, 10, 66, 100
12, 55956, Note_on_c, 10, 66, 0
12, 55960, Note_on_c, 10, 64, 100
12, 55996, Note_on_c, 10, 64, 0
12, 56000, Note_on_c, 10, 62, 100
12, 56036, Note_on_c, 10, 62, 0
12, 56040, Note_on_c, 10, 67, 100
12, 56076, Note_on_c, 10, 67, 0
12, 56080, Note_on_c, 10, 66, 100
12, 56116, Note_on_c, 10, 66, 0
12, 56120, Note_on_c, 10, 67, 100
12, 56156, Note_on_c, 10, 67, 0
12, 56160, Note_on_c, 10, 64, 100
12, 56196, Note_on_c, 10, 64, 0
12, 56200, Note_on_c, 10, 63, 100
12, 56236, Note_on_c, 10, 63, 0
12, 56240, Note_on_c, 10, 64, 100
12, 56276, Note_on_c, 10, 64, 0
12, 56280, Note_on_c, 10, 66, 100
12, 56316, Note_on_c, 10, 66, 0
12, 56320, Note_on_c, 10, 64, 100
12, 56356, Note_on_c, 10, 64, 0
12, 56360, Note_on_c, 10, 66, 100
12, 56396, Note_on_c, 10, 66, 0
12, 56400, Note_on_c, 10, 63, 100
12, 56436, Note_on_c, 10, 63, 0
12, 56440, Note_on_c, 10, 61, 100
12, 56476, Note_on_c, 10, 61, 0
12, 56480, Note_on_c, 10, 59, 100
12, 56516, Note_on_c, 10, 59, 0
12, 56520, Note_on_c, 10, 64, 100
12, 56556, Note_on_c, 10, 64, 0
12, 56560, Note_on_c, 10, 63, 100
12, 56596, Note_on_c, 10, 63, 0
12, 56600, Note_on_c, 10, 64, 100
12, 56636, Note_on_c, 10, 64, 0
12, 56640, Note_on_c, 10, 61, 100
12, 56676, Note_on_c, 10, 61, 0
12, 56680, Note_on_c, 10, 59, 100
12, 56716, Note_on_c, 10, 59, 0
12, 56720, Note_on_c, 10, 57, 100
12, 56756, Note_on_c, 10, 57, 0
12, 56760, Note_on_c, 10, 62, 100
12, 56796, Note_on_c, 10, 62, 0
12, 56800, Note_on_c, 10, 60, 100
12, 56836, Note_on_c, 10, 60, 0
12, 56840, Note_on_c, 10, 62, 100
12, 56876, Note_on_c, 10, 62, 0
12, 56880, Note_on_c, 10, 59, 100
12, 56916, Note_on_c, 10, 59, 0
12, 56920, Note_on_c, 10, 57, 100
12, 56956, Note_on_c, 10, 57, 0
12, 56960, Note_on_c, 10, 55, 100
12, 56996, Note_on_c, 10, 55, 0
12, 57000, Note_on_c, 10, 60, 100
12, 57036, Note_on_c, 10, 60, 0
12, 57040, Note_on_c, 10, 59, 100
12, 57076, Note_on_c, 10, 59, 0
12, 57080, Note_on_c, 10, 60, 100
12, 57116, Note_on_c, 10, 60, 0
12, 57120, Note_on_c, 10, 57, 100
12, 57156, Note_on_c, 10, 57, 0
12, 57160, Note_on_c, 10, 60, 100
12, 57196, Note_on_c, 10, 60, 0
12, 57200, Note_on_c, 10, 59, 100
12, 57236, Note_on_c, 10, 59, 0
12, 57240, Note_on_c, 10, 57, 100
12, 57276, Note_on_c, 10, 57, 0
12, 57280, Note_on_c, 10, 55, 100
12, 57316, Note_on_c, 10, 55, 0
12, 57320, Note_on_c, 10, 54, 100
12, 57356, Note_on_c, 10, 54, 0
12, 57360, Note_on_c, 10, 54, 100
12, 57396, Note_on_c, 10, 54, 0
12, 57400, Note_on_c, 10, 55, 100
12, 57436, Note_on_c, 10, 55, 0
12, 57440, Note_on_c, 10, 57, 100
12, 57476, Note_on_c, 10, 57, 0
12, 57480, Note_on_c, 10, 57, 100
12, 57516, Note_on_c, 10, 57, 0
12, 57520, Note_on_c, 10, 59, 100
12, 57556, Note_on_c, 10, 59, 0
12, 57560, Note_on_c, 10, 60, 100
12, 57596, Note_on_c, 10, 60, 0
12, 57600, Note_on_c, 10, 59, 100
12, 57681, Note_on_c, 10, 59, 0
12, 57690, Note_on_c, 10, 47, 100
12, 57717, Note_on_c, 10, 47, 0
12, 57720, Note_on_c, 10, 59, 100
12, 57801, Note_on_c, 10, 59, 0
12, 57810, Note_on_c, 10, 57, 100
12, 57837, Note_on_c, 10, 57, 0
12, 57840, Note_on_c, 10, 55, 100
12, 57876, Note_on_c, 10, 55, 0
12, 57880, Note_on_c, 10, 52, 100
12, 57916, Note_on_c, 10, 52, 0
12, 57920, Note_on_c, 10, 54, 100
12, 57956, Note_on_c, 10, 54, 0
12, 57960, Note_on_c, 10, 56, 100
12, 57996, Note_on_c, 10, 56, 0
12, 58000, Note_on_c, 10, 57, 100
12, 58036, Note_on_c, 10, 57, 0
12, 58040, Note_on_c, 10, 59, 100
12, 58076, Note_on_c, 10, 59, 0
12, 58080, Note_on_c, 10, 57, 100
12, 58116, Note_on_c, 10, 57, 0
12, 58120, Note_on_c, 10, 59, 100
12, 58156, Note_on_c, 10, 59, 0
12, 58160, Note_on_c, 10, 60, 100
12, 58196, Note_on_c, 10, 60, 0
12, 58200, Note_on_c, 10, 62, 100
12, 58236, Note_on_c, 10, 62, 0
12, 58240, Note_on_c, 10, 60, 100
12, 58276, Note_on_c, 10, 60, 0
12, 58280, Note_on_c, 10, 59, 100
12, 58316, Note_on_c, 10, 59, 0
12, 58320, Note_on_c, 10, 60, 100
12, 58356, Note_on_c, 10, 60, 0
12, 58360, Note_on_c, 10, 59, 100
12, 58396, Note_on_c, 10, 59, 0
12, 58400, Note_on_c, 10, 57, 100
12, 58436, Note_on_c, 10, 57, 0
12, 58440, Note_on_c, 10, 56, 100
12, 58476, Note_on_c, 10, 56, 0
12, 58480, Note_on_c, 10, 57, 100
12, 58516, Note_on_c, 10, 57, 0
12, 58520, Note_on_c, 10, 59, 100
12, 58556, Note_on_c, 10, 59, 0
12, 58560, Note_on_c, 10, 60, 100
12, 58596, Note_on_c, 10, 60, 0
12, 58600, Note_on_c, 10, 59, 100
12, 58636, Note_on_c, 10, 59, 0
12, 58640, Note_on_c, 10, 57, 100
12, 58676, Note_on_c, 10, 57, 0
12, 58680, Note_on_c, 10, 59, 100
12, 58716, Note_on_c, 10, 59, 0
12, 58720, Note_on_c, 10, 57, 100
12, 58756, Note_on_c, 10, 57, 0
12, 58760, Note_on_c, 10, 55, 100
12, 58796, Note_on_c, 10, 55, 0
12, 58800, Note_on_c, 10, 54, 100
12, 58836, Note_on_c, 10, 54, 0
12, 58840, Note_on_c, 10, 55, 100
12, 58876, Note_on_c, 10, 55, 0
12, 58880, Note_on_c, 10, 57, 100
12, 58916, Note_on_c, 10, 57, 0
12, 58920, Note_on_c, 10, 59, 100
12, 58956, Note_on_c, 10, 59, 0
12, 58960, Note_on_c, 10, 57, 100
12, 58996, Note_on_c, 10, 57, 0
12, 59000, Note_on_c, 10, 55, 100
12, 59036, Note_on_c, 10, 55, 0
12, 59040, Note_on_c, 10, 57, 100
12, 59076, Note_on_c, 10, 57, 0
12, 59080, Note_on_c, 10, 55, 100
12, 59116, Note_on_c, 10, 55, 0
12, 59120, Note_on_c, 10, 54, 100
12, 59156, Note_on_c, 10, 54, 0
12, 59160, Note_on_c, 10, 52, 100
12, 59196, Note_on_c, 10, 52, 0
12, 59200, Note_on_c, 10, 54, 100
12, 59236, Note_on_c, 10, 54, 0
12, 59240, Note_on_c, 10, 55, 100
12, 59276, Note_on_c, 10, 55, 0
12, 59280, Note_on_c, 10, 57, 100
12, 59316, Note_on_c, 10, 57, 0
12, 59320, Note_on_c, 10, 55, 100
12, 59356, Note_on_c, 10, 55, 0
12, 59360, Note_on_c, 10, 54, 100
12, 59396, Note_on_c, 10, 54, 0
12, 59400, Note_on_c, 10, 55, 100
12, 59436, Note_on_c, 10, 55, 0
12, 59440, Note_on_c, 10, 54, 100
12, 59476, Note_on_c, 10, 54, 0
12, 59480, Note_on_c, 10, 52, 100
12, 59516, Note_on_c, 10, 52, 0
12, 59520, Note_on_c, 10, 54, 100
12, 59556, Note_on_c, 10, 54, 0
12, 59560, Note_on_c, 10, 55, 100
12, 59596, Note_on_c, 10, 55, 0
12, 59600, Note_on_c, 10, 57, 100
12, 59636, Note_on_c, 10, 57, 0
12, 59640, Note_on_c, 10, 55, 100
12, 59676, Note_on_c, 10, 55, 0
12, 59680, Note_on_c, 10, 54, 100
12, 59716, Note_on_c, 10, 54, 0
12, 59720, Note_on_c, 10, 52, 100
12, 59756, Note_on_c, 10, 52, 0
12, 59760, Note_on_c, 10, 54, 100
12, 59796, Note_on_c, 10, 54, 0
12, 59800, Note_on_c, 10, 52, 100
12, 59836, Note_on_c, 10, 52, 0
12, 59840, Note_on_c, 10, 51, 100
12, 59876, Note_on_c, 10, 51, 0
12, 59880, Note_on_c, 10, 52, 100
12, 59916, Note_on_c, 10, 52, 0
12, 59920, Note_on_c, 10, 54, 100
12, 59956, Note_on_c, 10, 54, 0
12, 59960, Note_on_c, 10, 55, 100
12, 59996, Note_on_c, 10, 55, 0
12, 60000, Note_on_c, 10, 54, 100
12, 60036, Note_on_c, 10, 54, 0
12, 60040, Note_on_c, 10, 52, 100
12, 60076, Note_on_c, 10, 52, 0
12, 60080, Note_on_c, 10, 51, 100
12, 60116, Note_on_c, 10, 51, 0
12, 60120, Note_on_c, 10, 52, 100
12, 60156, Note_on_c, 10, 52, 0
12, 60160, Note_on_c, 10, 51, 100
12, 60196, Note_on_c, 10, 51, 0
12, 60200, Note_on_c, 10, 49, 100
12, 60236, Note_on_c, 10, 49, 0
12, 60240, Note_on_c, 10, 51, 100
12, 60276, Note_on_c, 10, 51, 0
12, 60280, Note_on_c, 10, 52, 100
12, 60316, Note_on_c, 10, 52, 0
12, 60320, Note_on_c, 10, 54, 100
12, 60356, Note_on_c, 10, 54, 0
12, 60360, Note_on_c, 10, 52, 100
12, 60396, Note_on_c, 10, 52, 0
12, 60400, Note_on_c, 10, 51, 100
12, 60436, Note_on_c, 10, 51, 0
12, 60440, Note_on_c, 10, 49, 100
12, 60476, Note_on_c, 10, 49, 0
12, 60480, Note_on_c, 10, 51, 100
12, 60516, Note_on_c, 10, 51, 0
12, 60520, Note_on_c, 10, 49, 100
12, 60556, Note_on_c, 10, 49, 0
12, 60560, Note_on_c, 10, 47, 100
12, 60596, Note_on_c, 10, 47, 0
12, 60600, Note_on_c, 10, 54, 100
12, 60636, Note_on_c, 10, 54, 0
12, 60640, Note_on_c, 10, 52, 100
12, 60676, Note_on_c, 10, 52, 0
12, 60680, Note_on_c, 10, 51, 100
12, 60716, Note_on_c, 10, 51, 0
12, 60720, Note_on_c, 10, 57, 100
12, 60756, Note_on_c, 10, 57, 0
12, 60760, Note_on_c, 10, 55, 100
12, 60796, Note_on_c, 10, 55, 0
12, 60800, Note_on_c, 10, 54, 100
12, 60836, Note_on_c, 10, 54, 0
12, 60840, Note_on_c, 10, 60, 100
12, 60876, Note_on_c, 10, 60, 0
12, 60880, Note_on_c, 10, 59, 100
12, 60916, Note_on_c, 10, 59, 0
12, 60920, Note_on_c, 10, 57, 100
12, 60956, Note_on_c, 10, 57, 0
12, 60960, Note_on_c, 10, 63, 100
12, 61041, Note_on_c, 10, 63, 0
12, 61050, Note_on_c, 10, 59, 100
12, 61077, Note_on_c, 10, 59, 0
12, 61080, Note_on_c, 10, 64, 100
12, 61161, Note_on_c, 10, 64, 0
12, 61170, Note_on_c, 10, 57, 100
12, 61197, Note_on_c, 10, 57, 0
12, 61200, Note_on_c, 10, 59, 100
12, 61308, Note_on_c, 10, 59, 0
12, 61320, Note_on_c, 10, 47, 100
12, 61401, Note_on_c, 10, 47, 0
12, 61410, Note_on_c, 10, 59, 100
12, 61437, Note_on_c, 10, 59, 0
12, 62040, Note_on_c, 10, 62, 100
12, 62076, Note_on_c, 10, 62, 0
12, 62080, Note_on_c, 10, 60, 100
12, 62116, Note_on_c, 10, 60, 0
12, 62120, Note_on_c, 10, 59, 100
12, 62156, Note_on_c, 10, 59, 0
12, 62160, Note_on_c, 10, 60, 100
12, 62196, Note_on_c, 10, 60, 0
12, 62200, Note_on_c, 10, 59, 100
12, 62236, Note_on_c, 10, 59, 0
12, 62240, Note_on_c, 10, 57, 100
12, 62276, Note_on_c, 10, 57, 0
12, 62280, Note_on_c, 10, 59, 100
12, 62316, Note_on_c, 10, 59, 0
12, 62320, Note_on_c, 10, 57, 100
12, 62356, Note_on_c, 10, 57, 0
12, 62360, Note_on_c, 10, 55, 100
12, 62396, Note_on_c, 10, 55, 0
12, 62400, Note_on_c, 10, 57, 100
12, 62436, Note_on_c, 10, 57, 0
12, 62440, Note_on_c, 10, 59, 100
12, 62476, Note_on_c, 10, 59, 0
12, 62480, Note_on_c, 10, 60, 100
12, 62516, Note_on_c, 10, 60, 0
12, 62520, Note_on_c, 10, 51, 100
12, 62556, Note_on_c, 10, 51, 0
12, 62560, Note_on_c, 10, 60, 100
12, 62596, Note_on_c, 10, 60, 0
12, 62600, Note_on_c, 10, 59, 100
12, 62636, Note_on_c, 10, 59, 0
12, 62640, Note_on_c, 10, 57, 100
12, 62676, Note_on_c, 10, 57, 0
12, 62680, Note_on_c, 10, 59, 100
12, 62716, Note_on_c, 10, 59, 0
12, 62720, Note_on_c, 10, 60, 100
12, 62756, Note_on_c, 10, 60, 0
12, 62760, Note_on_c, 10, 52, 100
12, 62796, Note_on_c, 10, 52, 0
12, 62800, Note_on_c, 10, 60, 100
12, 62836, Note_on_c, 10, 60, 0
12, 62840, Note_on_c, 10, 59, 100
12, 62876, Note_on_c, 10, 59, 0
12, 62880, Note_on_c, 10, 57, 100
12, 62916, Note_on_c, 10, 57, 0
12, 62920, Note_on_c, 10, 59, 100
12, 62956, Note_on_c, 10, 59, 0
12, 62960, Note_on_c, 10, 60, 100
12, 62996, Note_on_c, 10, 60, 0
12, 63000, Note_on_c, 10, 54, 100
12, 63036, Note_on_c, 10, 54, 0
12, 63040, Note_on_c, 10, 60, 100
12, 63076, Note_on_c, 10, 60, 0
12, 63080, Note_on_c, 10, 59, 100
12, 63116, Note_on_c, 10, 59, 0
12, 63120, Note_on_c, 10, 57, 100
12, 63156, Note_on_c, 10, 57, 0
12, 63160, Note_on_c, 10, 59, 100
12, 63196, Note_on_c, 10, 59, 0
12, 63200, Note_on_c, 10, 60, 100
12, 63236, Note_on_c, 10, 60, 0
12, 63240, Note_on_c, 10, 55, 100
12, 63276, Note_on_c, 10, 55, 0
12, 63280, Note_on_c, 10, 60, 100
12, 63316, Note_on_c, 10, 60, 0
12, 63320, Note_on_c, 10, 59, 100
12, 63356, Note_on_c, 10, 59, 0
12, 63360, Note_on_c, 10, 57, 100
12, 63396, Note_on_c, 10, 57, 0
12, 63400, Note_on_c, 10, 59, 100
12, 63436, Note_on_c, 10, 59, 0
12, 63440, Note_on_c, 10, 63, 100
12, 63476, Note_on_c, 10, 63, 0
12, 63720, Note_on_c, 10, 59, 100
12, 63756, Note_on_c, 10, 59, 0
12, 63760, Note_on_c, 10, 63, 100
12, 63796, Note_on_c, 10, 63, 0
12, 63800, Note_on_c, 10, 59, 100
12, 63836, Note_on_c, 10, 59, 0
12, 63840, Note_on_c, 10, 55, 100
12, 63876, Note_on_c, 10, 55, 0
12, 63880, Note_on_c, 10, 59, 100
12, 63916, Note_on_c, 10, 59, 0
12, 63920, Note_on_c, 10, 57, 100
12, 63956, Note_on_c, 10, 57, 0
12, 63960, Note_on_c, 10, 55, 100
12, 63996, Note_on_c, 10, 55, 0
12, 64000, Note_on_c, 10, 54, 100
12, 64036, Note_on_c, 10, 54, 0
12, 64040, Note_on_c, 10, 52, 100
12, 64076, Note_on_c, 10, 52, 0
12, 64080, Note_on_c, 10, 59, 100
12, 64188, Note_on_c, 10, 59, 0
12, 64200, Note_on_c, 10, 47, 100
12, 64254, Note_on_c, 10, 47, 0
12, 64260, Note_on_c, 10, 59, 100
12, 64314, Note_on_c, 10, 59, 0
12, 64320, Note_on_c, 10, 60, 100
12, 64356, Note_on_c, 10, 60, 0
12, 64360, Note_on_c, 10, 59, 100
12, 64396, Note_on_c, 10, 59, 0
12, 64400, Note_on_c, 10, 57, 100
12, 64436, Note_on_c, 10, 57, 0
12, 64440, Note_on_c, 10, 57, 100
12, 64476, Note_on_c, 10, 57, 0
12, 64480, Note_on_c, 10, 55, 100
12, 64516, Note_on_c, 10, 55, 0
12, 64520, Note_on_c, 10, 54, 100
12, 64556, Note_on_c, 10, 54, 0
12, 64560, Note_on_c, 10, 54, 100
12, 64596, Note_on_c, 10, 54, 0
12, 64600, Note_on_c, 10, 55, 100
12, 64636, Note_on_c, 10, 55, 0
12, 64640, Note_on_c, 10, 57, 100
12, 64676, Note_on_c, 10, 57, 0
12, 64680, Note_on_c, 10, 57, 100
12, 64716, Note_on_c, 10, 57, 0
12, 64720, Note_on_c, 10, 59, 100
12, 64756, Note_on_c, 10, 59, 0
12, 64760, Note_on_c, 10, 60, 100
12, 64796, Note_on_c, 10, 60, 0
12, 64800, Note_on_c, 10, 59, 100
12, 64836, Note_on_c, 10, 59, 0
12, 64840, Note_on_c, 10, 57, 100
12, 64876, Note_on_c, 10, 57, 0
12, 64880, Note_on_c, 10, 56, 100
12, 64916, Note_on_c, 10, 56, 0
12, 64920, Note_on_c, 10, 56, 100
12, 64956, Note_on_c, 10, 56, 0
12, 64960, Note_on_c, 10, 54, 100
12, 64996, Note_on_c, 10, 54, 0
12, 65000, Note_on_c, 10, 52, 100
12, 65036, Note_on_c, 10, 52, 0
12, 65040, Note_on_c, 10, 52, 100
12, 65076, Note_on_c, 10, 52, 0
12, 65080, Note_on_c, 10, 54, 100
12, 65116, Note_on_c, 10, 54, 0
12, 65120, Note_on_c, 10, 56, 100
12, 65156, Note_on_c, 10, 56, 0
12, 65160, Note_on_c, 10, 56, 100
12, 65196, Note_on_c, 10, 56, 0
12, 65200, Note_on_c, 10, 57, 100
12, 65236, Note_on_c, 10, 57, 0
12, 65240, Note_on_c, 10, 59, 100
12, 65276, Note_on_c, 10, 59, 0
12, 65280, Note_on_c, 10, 57, 100
12, 65316, Note_on_c, 10, 57, 0
12, 65320, Note_on_c, 10, 55, 100
12, 65356, Note_on_c, 10, 55, 0
12, 65360, Note_on_c, 10, 54, 100
12, 65396, Note_on_c, 10, 54, 0
12, 65400, Note_on_c, 10, 54, 100
12, 65436, Note_on_c, 10, 54, 0
12, 65440, Note_on_c, 10, 52, 100
12, 65476, Note_on_c, 10, 52, 0
12, 65480, Note_on_c, 10, 51, 100
12, 65516, Note_on_c, 10, 51, 0
12, 65520, Note_on_c, 10, 51, 100
12, 65556, Note_on_c, 10, 51, 0
12, 65560, Note_on_c, 10, 52, 100
12, 65596, Note_on_c, 10, 52, 0
12, 65600, Note_on_c, 10, 54, 100
12, 65636, Note_on_c, 10, 54, 0
12, 65640, Note_on_c, 10, 54, 100
12, 65676, Note_on_c, 10, 54, 0
12, 65680, Note_on_c, 10, 55, 100
12, 65716, Note_on_c, 10, 55, 0
12, 65720, Note_on_c, 10, 57, 100
12, 65756, Note_on_c, 10, 57, 0
12, 65760, Note_on_c, 10, 55, 100
12, 65796, Note_on_c, 10, 55, 0
12, 65800, Note_on_c, 10, 54, 100
12, 65836, Note_on_c, 10, 54, 0
12, 65840, Note_on_c, 10, 52, 100
12, 65876, Note_on_c, 10, 52, 0
12, 65880, Note_on_c, 10, 52, 100
12, 65916, Note_on_c, 10, 52, 0
12, 65920, Note_on_c, 10, 51, 100
12, 65956, Note_on_c, 10, 51, 0
12, 65960, Note_on_c, 10, 49, 100
12, 65996, Note_on_c, 10, 49, 0
12, 66000, Note_on_c, 10, 49, 100
12, 66036, Note_on_c, 10, 49, 0
12, 66040, Note_on_c, 10, 51, 100
12, 66076, Note_on_c, 10, 51, 0
12, 66080, Note_on_c, 10, 52, 100
12, 66116, Note_on_c, 10, 52, 0
12, 66120, Note_on_c, 10, 52, 100
12, 66156, Note_on_c, 10, 52, 0
12, 66160, Note_on_c, 10, 54, 100
12, 66196, Note_on_c, 10, 54, 0
12, 66200, Note_on_c, 10, 55, 100
12, 66236, Note_on_c, 10, 55, 0
12, 66240, Note_on_c, 10, 54, 100
12, 66348, Note_on_c, 10, 54, 0
12, 66360, Note_on_c, 10, 45, 100
12, 66468, Note_on_c, 10, 45, 0
12, 66480, Note_on_c, 10, 47, 100
12, 66588, Note_on_c, 10, 47, 0
12, 66600, Note_on_c, 10, 48, 100
12, 66708, Note_on_c, 10, 48, 0
12, 66720, Note_on_c, 10, 39, 100
12, 66828, Note_on_c, 10, 39, 0
12, 66840, Note_on_c, 10, 57, 100
12, 66948, Note_on_c, 10, 57, 0
12, 66960, Note_on_c, 10, 55, 100
12, 67068, Note_on_c, 10, 55, 0
12, 67080, Note_on_c, 10, 54, 100
12, 67188, Note_on_c, 10, 54, 0
12, 67200, Note_on_c, 10, 55, 100
12, 67308, Note_on_c, 10, 55, 0
12, 67320, Note_on_c, 10, 57, 100
12, 67428, Note_on_c, 10, 57, 0
12, 67440, Note_on_c, 10, 59, 100
12, 67548, Note_on_c, 10, 59, 0
12, 67560, Note_on_c, 10, 57, 100
12, 67668, Note_on_c, 10, 57, 0
12, 67680, Note_on_c, 10, 56, 100
12, 67788, Note_on_c, 10, 56, 0
12, 67800, Note_on_c, 10, 52, 100
12, 67908, Note_on_c, 10, 52, 0
12, 67920, Note_on_c, 10, 54, 100
12, 68028, Note_on_c, 10, 54, 0
12, 68040, Note_on_c, 10, 56, 100
12, 68148, Note_on_c, 10, 56, 0
12, 68160, Note_on_c, 10, 57, 100
12, 68268, Note_on_c, 10, 57, 0
12, 68280, Note_on_c, 10, 59, 100
12, 68388, Note_on_c, 10, 59, 0
12, 68400, Note_on_c, 10, 60, 100
12, 68508, Note_on_c, 10, 60, 0
12, 68520, Note_on_c, 10, 59, 100
12, 68628, Note_on_c, 10, 59, 0
12, 68640, Note_on_c, 10, 58, 100
12, 68748, Note_on_c, 10, 58, 0
12, 68760, Note_on_c, 10, 54, 100
12, 68814, Note_on_c, 10, 54, 0
12, 68820, Note_on_c, 10, 56, 100
12, 68874, Note_on_c, 10, 56, 0
12, 68880, Note_on_c, 10, 58, 100
12, 68988, Note_on_c, 10, 58, 0
12, 69000, Note_on_c, 10, 54, 100
12, 69108, Note_on_c, 10, 54, 0
12, 69120, Note_on_c, 10, 59, 100
12, 69228, Note_on_c, 10, 59, 0
12, 69240, Note_on_c, 10, 57, 100
12, 69294, Note_on_c, 10, 57, 0
12, 69300, Note_on_c, 10, 55, 100
12, 69354, Note_on_c, 10, 55, 0
12, 69360, Note_on_c, 10, 57, 100
12, 69468, Note_on_c, 10, 57, 0
12, 69480, Note_on_c, 10, 51, 100
12, 69588, Note_on_c, 10, 51, 0
12, 69600, Note_on_c, 10, 52, 100
12, 69708, Note_on_c, 10, 52, 0
12, 69720, Note_on_c, 10, 52, 100
12, 69720, Note_on_c, 10, 45, 100
12, 69774, Note_on_c, 10, 52, 0
12, 69780, Note_on_c, 10, 54, 100
12, 69828, Note_on_c, 10, 45, 0
12, 69834, Note_on_c, 10, 54, 0
12, 69840, Note_on_c, 10, 55, 100
12, 69840, Note_on_c, 10, 47, 100
12, 69894, Note_on_c, 10, 55, 0
12, 69900, Note_on_c, 10, 59, 100
12, 69948, Note_on_c, 10, 47, 0
12, 69954, Note_on_c, 10, 59, 0
12, 69960, Note_on_c, 10, 57, 100
12, 69960, Note_on_c, 10, 35, 100
12, 70014, Note_on_c, 10, 57, 0
12, 70020, Note_on_c, 10, 54, 100
12, 70068, Note_on_c, 10, 35, 0
12, 70074, Note_on_c, 10, 54, 0
12, 70080, Note_on_c, 10, 55, 100
12, 70080, Note_on_c, 10, 40, 100
12, 70116, Note_on_c, 10, 55, 0
12, 70120, Note_on_c, 10, 54, 100
12, 70156, Note_on_c, 10, 54, 0
12, 70160, Note_on_c, 10, 52, 100
12, 70188, Note_on_c, 10, 40, 0
12, 70196, Note_on_c, 10, 52, 0
12, 70200, Note_on_c, 10, 60, 100
12, 70236, Note_on_c, 10, 60, 0
12, 70240, Note_on_c, 10, 59, 100
12, 70276, Note_on_c, 10, 59, 0
12, 70280, Note_on_c, 10, 57, 100
12, 70316, Note_on_c, 10, 57, 0
12, 70320, Note_on_c, 10, 59, 100
12, 70428, Note_on_c, 10, 59, 0
12, 70440, Note_on_c, 10, 63, 100
12, 70548, Note_on_c, 10, 63, 0
12, 70680, Note_on_c, 10, 45, 100
12, 70734, Note_on_c, 10, 45, 0
12, 70740, Note_on_c, 10, 47, 100
12, 70794, Note_on_c, 10, 47, 0
12, 70800, Note_on_c, 10, 48, 100
12, 70854, Note_on_c, 10, 48, 0
12, 70860, Note_on_c, 10, 52, 100
12, 70914, Note_on_c, 10, 52, 0
12, 70920, Note_on_c, 10, 50, 100
12, 70974, Note_on_c, 10, 50, 0
12, 70980, Note_on_c, 10, 47, 100
12, 71034, Note_on_c, 10, 47, 0
12, 71040, Note_on_c, 10, 48, 100
12, 71076, Note_on_c, 10, 48, 0
12, 71080, Note_on_c, 10, 47, 100
12, 71116, Note_on_c, 10, 47, 0
12, 71120, Note_on_c, 10, 45, 100
12, 71156, Note_on_c, 10, 45, 0
12, 71160, Note_on_c, 10, 53, 100
12, 71196, Note_on_c, 10, 53, 0
12, 71200, Note_on_c, 10, 52, 100
12, 71236, Note_on_c, 10, 52, 0
12, 71240, Note_on_c, 10, 50, 100
12, 71276, Note_on_c, 10, 50, 0
12, 71280, Note_on_c, 10, 48, 100
12, 71316, Note_on_c, 10, 48, 0
12, 71320, Note_on_c, 10, 47, 100
12, 71356, Note_on_c, 10, 47, 0
12, 71360, Note_on_c, 10, 45, 100
12, 71396, Note_on_c, 10, 45, 0
12, 71400, Note_on_c, 10, 52, 100
12, 71436, Note_on_c, 10, 52, 0
12, 71440, Note_on_c, 10, 50, 100
12, 71476, Note_on_c, 10, 50, 0
12, 71480, Note_on_c, 10, 52, 100
12, 71516, Note_on_c, 10, 52, 0
12, 71520, Note_on_c, 10, 45, 100
12, 71628, Note_on_c, 10, 45, 0
12, 71640, Note_on_c, 10, 41, 100
12, 71748, Note_on_c, 10, 41, 0
12, 71760, Note_on_c, 10, 36, 100
12, 71868, Note_on_c, 10, 36, 0
12, 71880, Note_on_c, 10, 40, 100
12, 71988, Note_on_c, 10, 40, 0
12, 72000, Note_on_c, 10, 45, 100
12, 72108, Note_on_c, 10, 45, 0
12, 72120, Note_on_c, 10, 62, 100
12, 72120, Note_on_c, 10, 53, 100
12, 72228, Note_on_c, 10, 62, 0
12, 72228, Note_on_c, 10, 53, 0
12, 72240, Note_on_c, 10, 62, 100
12, 72240, Note_on_c, 10, 55, 100
12, 72348, Note_on_c, 10, 62, 0
12, 72348, Note_on_c, 10, 55, 0
12, 72360, Note_on_c, 10, 57, 100
12, 72360, Note_on_c, 10, 49, 100
12, 72468, Note_on_c, 10, 57, 0
12, 72468, Note_on_c, 10, 49, 0
12, 72480, Note_on_c, 10, 57, 100
12, 72480, Note_on_c, 10, 50, 100
12, 72588, Note_on_c, 10, 57, 0
12, 72588, Note_on_c, 10, 50, 0
12, 72600, Note_on_c, 10, 52, 100
12, 72681, Note_on_c, 10, 52, 0
12, 72690, Note_on_c, 10, 53, 100
12, 72717, Note_on_c, 10, 53, 0
12, 72720, Note_on_c, 10, 55, 100
12, 72828, Note_on_c, 10, 55, 0
12, 72840, Note_on_c, 10, 43, 100
12, 72948, Note_on_c, 10, 43, 0
12, 72960, Note_on_c, 10, 48, 100
12, 73068, Note_on_c, 10, 48, 0
12, 73080, Note_on_c, 10, 60, 100
12, 73161, Note_on_c, 10, 60, 0
12, 73170, Note_on_c, 10, 58, 100
12, 73197, Note_on_c, 10, 58, 0
12, 73200, Note_on_c, 10, 57, 100
12, 73236, Note_on_c, 10, 57, 0
12, 73240, Note_on_c, 10, 55, 100
12, 73276, Note_on_c, 10, 55, 0
12, 73280, Note_on_c, 10, 53, 100
12, 73316, Note_on_c, 10, 53, 0
12, 73320, Note_on_c, 10, 55, 100
12, 73356, Note_on_c, 10, 55, 0
12, 73360, Note_on_c, 10, 57, 100
12, 73396, Note_on_c, 10, 57, 0
12, 73400, Note_on_c, 10, 58, 100
12, 73436, Note_on_c, 10, 58, 0
12, 73440, Note_on_c, 10, 57, 100
12, 73476, Note_on_c, 10, 57, 0
12, 73480, Note_on_c, 10, 55, 100
12, 73516, Note_on_c, 10, 55, 0
12, 73520, Note_on_c, 10, 53, 100
12, 73556, Note_on_c, 10, 53, 0
12, 73560, Note_on_c, 10, 58, 100
12, 73641, Note_on_c, 10, 58, 0
12, 73650, Note_on_c, 10, 57, 100
12, 73677, Note_on_c, 10, 57, 0
12, 73680, Note_on_c, 10, 55, 100
12, 73716, Note_on_c, 10, 55, 0
12, 73720, Note_on_c, 10, 53, 100
12, 73756, Note_on_c, 10, 53, 0
12, 73760, Note_on_c, 10, 52, 100
12, 73796, Note_on_c, 10, 52, 0
12, 73800, Note_on_c, 10, 53, 100
12, 73836, Note_on_c, 10, 53, 0
12, 73840, Note_on_c, 10, 55, 100
12, 73876, Note_on_c, 10, 55, 0
12, 73880, Note_on_c, 10, 57, 100
12, 73916, Note_on_c, 10, 57, 0
12, 73920, Note_on_c, 10, 55, 100
12, 73956, Note_on_c, 10, 55, 0
12, 73960, Note_on_c, 10, 53, 100
12, 73996, Note_on_c, 10, 53, 0
12, 74000, Note_on_c, 10, 52, 100
12, 74036, Note_on_c, 10, 52, 0
12, 74040, Note_on_c, 10, 57, 100
12, 74121, Note_on_c, 10, 57, 0
12, 74130, Note_on_c, 10, 55, 100
12, 74157, Note_on_c, 10, 55, 0
12, 74160, Note_on_c, 10, 53, 100
12, 74196, Note_on_c, 10, 53, 0
12, 74200, Note_on_c, 10, 52, 100
12, 74236, Note_on_c, 10, 52, 0
12, 74240, Note_on_c, 10, 50, 100
12, 74276, Note_on_c, 10, 50, 0
12, 74280, Note_on_c, 10, 52, 100
12, 74316, Note_on_c, 10, 52, 0
12, 74320, Note_on_c, 10, 53, 100
12, 74356, Note_on_c, 10, 53, 0
12, 74360, Note_on_c, 10, 55, 100
12, 74396, Note_on_c, 10, 55, 0
12, 74400, Note_on_c, 10, 53, 100
12, 74436, Note_on_c, 10, 53, 0
12, 74440, Note_on_c, 10, 52, 100
12, 74476, Note_on_c, 10, 52, 0
12, 74480, Note_on_c, 10, 50, 100
12, 74516, Note_on_c, 10, 50, 0
12, 74520, Note_on_c, 10, 58, 100
12, 74556, Note_on_c, 10, 58, 0
12, 74560, Note_on_c, 10, 57, 100
12, 74596, Note_on_c, 10, 57, 0
12, 74600, Note_on_c, 10, 55, 100
12, 74636, Note_on_c, 10, 55, 0
12, 74640, Note_on_c, 10, 57, 100
12, 74748, Note_on_c, 10, 57, 0
12, 74760, Note_on_c, 10, 45, 100
12, 74868, Note_on_c, 10, 45, 0
12, 74880, Note_on_c, 10, 50, 100
12, 74988, Note_on_c, 10, 50, 0
12, 75480, Note_on_c, 10, 50, 100
12, 75534, Note_on_c, 10, 50, 0
12, 75540, Note_on_c, 10, 52, 100
12, 75594, Note_on_c, 10, 52, 0
12, 75600, Note_on_c, 10, 53, 100
12, 75654, Note_on_c, 10, 53, 0
12, 75660, Note_on_c, 10, 57, 100
12, 75714, Note_on_c, 10, 57, 0
12, 75720, Note_on_c, 10, 55, 100
12, 75774, Note_on_c, 10, 55, 0
12, 75780, Note_on_c, 10, 52, 100
12, 75834, Note_on_c, 10, 52, 0
12, 75840, Note_on_c, 10, 53, 100
12, 75876, Note_on_c, 10, 53, 0
12, 75880, Note_on_c, 10, 52, 100
12, 75916, Note_on_c, 10, 52, 0
12, 75920, Note_on_c, 10, 50, 100
12, 75956, Note_on_c, 10, 50, 0
12, 76200, Note_on_c, 10, 54, 100
12, 76308, Note_on_c, 10, 54, 0
12, 76320, Note_on_c, 10, 55, 100
12, 76428, Note_on_c, 10, 55, 0
12, 76440, Note_on_c, 10, 43, 100
12, 76548, Note_on_c, 10, 43, 0
12, 76680, Note_on_c, 10, 55, 100
12, 76716, Note_on_c, 10, 55, 0
12, 76720, Note_on_c, 10, 57, 100
12, 76756, Note_on_c, 10, 57, 0
12, 76760, Note_on_c, 10, 58, 100
12, 76796, Note_on_c, 10, 58, 0
12, 76800, Note_on_c, 10, 49, 100
12, 76908, Note_on_c, 10, 49, 0
12, 76920, Note_on_c, 10, 52, 100
12, 77028, Note_on_c, 10, 52, 0
12, 77040, Note_on_c, 10, 49, 100
12, 77148, Note_on_c, 10, 49, 0
12, 77160, Note_on_c, 10, 45, 100
12, 77268, Note_on_c, 10, 45, 0
12, 77280, Note_on_c, 10, 50, 100
12, 77388, Note_on_c, 10, 50, 0
12, 77400, Note_on_c, 10, 50, 100
12, 77400, Note_on_c, 10, 48, 100
12, 77508, Note_on_c, 10, 50, 0
12, 77508, Note_on_c, 10, 48, 0
12, 77520, Note_on_c, 10, 52, 100
12, 77520, Note_on_c, 10, 46, 100
12, 77628, Note_on_c, 10, 52, 0
12, 77628, Note_on_c, 10, 46, 0
12, 77640, Note_on_c, 10, 54, 100
12, 77640, Note_on_c, 10, 45, 100
12, 77748, Note_on_c, 10, 54, 0
12, 77748, Note_on_c, 10, 45, 0
12, 77760, Note_on_c, 10, 55, 100
12, 77760, Note_on_c, 10, 43, 100
12, 77868, Note_on_c, 10, 55, 0
12, 77868, Note_on_c, 10, 43, 0
12, 77880, Note_on_c, 10, 50, 100
12, 77940, Note_on_c, 10, 60, 100
12, 77988, Note_on_c, 10, 50, 0
12, 77994, Note_on_c, 10, 60, 0
12, 78000, Note_on_c, 10, 52, 100
12, 78060, Note_on_c, 10, 58, 100
12, 78108, Note_on_c, 10, 52, 0
12, 78114, Note_on_c, 10, 58, 0
12, 78120, Note_on_c, 10, 54, 100
12, 78180, Note_on_c, 10, 57, 100
12, 78228, Note_on_c, 10, 54, 0
12, 78234, Note_on_c, 10, 57, 0
12, 78240, Note_on_c, 10, 55, 100
12, 78240, Note_on_c, 10, 55, 100
12, 78348, Note_on_c, 10, 55, 0
12, 78348, Note_on_c, 10, 55, 0
12, 78720, Note_on_c, 10, 53, 100
12, 78828, Note_on_c, 10, 53, 0
12, 79200, Note_on_c, 10, 52, 100
12, 79236, Note_on_c, 10, 52, 0
12, 79240, Note_on_c, 10, 47, 100
12, 79276, Note_on_c, 10, 47, 0
12, 79280, Note_on_c, 10, 50, 100
12, 79316, Note_on_c, 10, 50, 0
12, 79320, Note_on_c, 10, 44, 100
12, 79356, Note_on_c, 10, 44, 0
12, 79360, Note_on_c, 10, 53, 100
12, 79396, Note_on_c, 10, 53, 0
12, 79400, Note_on_c, 10, 52, 100
12, 79436, Note_on_c, 10, 52, 0
12, 79440, Note_on_c, 10, 45, 100
12, 79476, Note_on_c, 10, 45, 0
12, 79480, Note_on_c, 10, 53, 100
12, 79516, Note_on_c, 10, 53, 0
12, 79520, Note_on_c, 10, 52, 100
12, 79556, Note_on_c, 10, 52, 0
12, 79560, Note_on_c, 10, 47, 100
12, 79596, Note_on_c, 10, 47, 0
12, 79600, Note_on_c, 10, 53, 100
12, 79636, Note_on_c, 10, 53, 0
12, 79640, Note_on_c, 10, 52, 100
12, 79676, Note_on_c, 10, 52, 0
12, 79680, Note_on_c, 10, 48, 100
12, 79716, Note_on_c, 10, 48, 0
12, 79720, Note_on_c, 10, 53, 100
12, 79756, Note_on_c, 10, 53, 0
12, 79760, Note_on_c, 10, 52, 100
12, 79796, Note_on_c, 10, 52, 0
12, 79800, Note_on_c, 10, 56, 100
12, 79836, Note_on_c, 10, 56, 0
12, 79840, Note_on_c, 10, 53, 100
12, 79876, Note_on_c, 10, 53, 0
12, 79880, Note_on_c, 10, 52, 100
12, 79916, Note_on_c, 10, 52, 0
12, 79920, Note_on_c, 10, 57, 100
12, 79956, Note_on_c, 10, 57, 0
12, 79960, Note_on_c, 10, 53, 100
12, 79996, Note_on_c, 10, 53, 0
12, 80000, Note_on_c, 10, 52, 100
12, 80036, Note_on_c, 10, 52, 0
12, 80040, Note_on_c, 10, 59, 100
12, 80076, Note_on_c, 10, 59, 0
12, 80080, Note_on_c, 10, 53, 100
12, 80116, Note_on_c, 10, 53, 0
12, 80120, Note_on_c, 10, 52, 100
12, 80156, Note_on_c, 10, 52, 0
12, 80160, Note_on_c, 10, 60, 100
12, 80196, Note_on_c, 10, 60, 0
12, 80200, Note_on_c, 10, 59, 100
12, 80236, Note_on_c, 10, 59, 0
12, 80240, Note_on_c, 10, 57, 100
12, 80276, Note_on_c, 10, 57, 0
12, 80640, Note_on_c, 10, 55, 100
12, 80748, Note_on_c, 10, 55, 0
12, 81120, Note_on_c, 10, 53, 100
12, 81228, Note_on_c, 10, 53, 0
12, 81240, Note_on_c, 10, 57, 100
12, 81240, Note_on_c, 10, 55, 100
12, 81348, Note_on_c, 10, 57, 0
12, 81348, Note_on_c, 10, 55, 0
12, 81360, Note_on_c, 10, 59, 100
12, 81360, Note_on_c, 10, 53, 100
12, 81468, Note_on_c, 10, 59, 0
12, 81468, Note_on_c, 10, 53, 0
12, 81480, Note_on_c, 10, 61, 100
12, 81480, Note_on_c, 10, 52, 100
12, 81588, Note_on_c, 10, 61, 0
12, 81588, Note_on_c, 10, 52, 0
12, 81600, Note_on_c, 10, 62, 100
12, 81600, Note_on_c, 10, 50, 100
12, 81708, Note_on_c, 10, 62, 0
12, 81708, Note_on_c, 10, 50, 0
12, 81720, Note_on_c, 10, 45, 100
12, 81780, Note_on_c, 10, 55, 100
12, 81828, Note_on_c, 10, 45, 0
12, 81834, Note_on_c, 10, 55, 0
12, 81840, Note_on_c, 10, 47, 100
12, 81900, Note_on_c, 10, 53, 100
12, 81948, Note_on_c, 10, 47, 0
12, 81954, Note_on_c, 10, 53, 0
12, 81960, Note_on_c, 10, 49, 100
12, 82020, Note_on_c, 10, 52, 100
12, 82068, Note_on_c, 10, 49, 0
12, 82074, Note_on_c, 10, 52, 0
12, 82080, Note_on_c, 10, 50, 100
12, 82116, Note_on_c, 10, 50, 0
12, 82120, Note_on_c, 10, 53, 100
12, 82156, Note_on_c, 10, 53, 0
12, 82160, Note_on_c, 10, 57, 100
12, 82196, Note_on_c, 10, 57, 0
12, 82200, Note_on_c, 10, 61, 100
12, 82236, Note_on_c, 10, 61, 0
12, 82240, Note_on_c, 10, 58, 100
12, 82276, Note_on_c, 10, 58, 0
12, 82280, Note_on_c, 10, 57, 100
12, 82316, Note_on_c, 10, 57, 0
12, 82320, Note_on_c, 10, 62, 100
12, 82356, Note_on_c, 10, 62, 0
12, 82360, Note_on_c, 10, 58, 100
12, 82396, Note_on_c, 10, 58, 0
12, 82400, Note_on_c, 10, 57, 100
12, 82436, Note_on_c, 10, 57, 0
12, 82440, Note_on_c, 10, 64, 100
12, 82476, Note_on_c, 10, 64, 0
12, 82480, Note_on_c, 10, 58, 100
12, 82516, Note_on_c, 10, 58, 0
12, 82520, Note_on_c, 10, 57, 100
12, 82556, Note_on_c, 10, 57, 0
12, 82560, Note_on_c, 10, 65, 100
12, 82596, Note_on_c, 10, 65, 0
12, 82600, Note_on_c, 10, 64, 100
12, 82636, Note_on_c, 10, 64, 0
12, 82640, Note_on_c, 10, 62, 100
12, 82676, Note_on_c, 10, 62, 0
12, 82680, Note_on_c, 10, 61, 100
12, 82716, Note_on_c, 10, 61, 0
12, 82720, Note_on_c, 10, 70, 100
12, 82756, Note_on_c, 10, 70, 0
12, 82760, Note_on_c, 10, 69, 100
12, 82796, Note_on_c, 10, 69, 0
12, 82800, Note_on_c, 10, 62, 100
12, 82836, Note_on_c, 10, 62, 0
12, 82840, Note_on_c, 10, 70, 100
12, 82876, Note_on_c, 10, 70, 0
12, 82880, Note_on_c, 10, 69, 100
12, 82916, Note_on_c, 10, 69, 0
12, 82920, Note_on_c, 10, 64, 100
12, 82956, Note_on_c, 10, 64, 0
12, 82960, Note_on_c, 10, 70, 100
12, 82996, Note_on_c, 10, 70, 0
12, 83000, Note_on_c, 10, 69, 100
12, 83036, Note_on_c, 10, 69, 0
12, 83040, Note_on_c, 10, 65, 100
12, 83076, Note_on_c, 10, 65, 0
12, 83080, Note_on_c, 10, 73, 100
12, 83116, Note_on_c, 10, 73, 0
12, 83120, Note_on_c, 10, 74, 100
12, 83156, Note_on_c, 10, 74, 0
12, 83160, Note_on_c, 10, 70, 100
12, 83196, Note_on_c, 10, 70, 0
12, 83200, Note_on_c, 10, 73, 100
12, 83236, Note_on_c, 10, 73, 0
12, 83240, Note_on_c, 10, 74, 100
12, 83276, Note_on_c, 10, 74, 0
12, 83280, Note_on_c, 10, 67, 100
12, 83316, Note_on_c, 10, 67, 0
12, 83320, Note_on_c, 10, 69, 100
12, 83356, Note_on_c, 10, 69, 0
12, 83360, Note_on_c, 10, 70, 100
12, 83396, Note_on_c, 10, 70, 0
12, 83400, Note_on_c, 10, 67, 100
12, 83436, Note_on_c, 10, 67, 0
12, 83440, Note_on_c, 10, 69, 100
12, 83476, Note_on_c, 10, 69, 0
12, 83480, Note_on_c, 10, 70, 100
12, 83516, Note_on_c, 10, 70, 0
12, 83520, Note_on_c, 10, 60, 100
12, 83556, Note_on_c, 10, 60, 0
12, 83560, Note_on_c, 10, 71, 100
12, 83596, Note_on_c, 10, 71, 0
12, 83600, Note_on_c, 10, 72, 100
12, 83636, Note_on_c, 10, 72, 0
12, 83640, Note_on_c, 10, 69, 100
12, 83676, Note_on_c, 10, 69, 0
12, 83680, Note_on_c, 10, 71, 100
12, 83716, Note_on_c, 10, 71, 0
12, 83720, Note_on_c, 10, 72, 100
12, 83756, Note_on_c, 10, 72, 0
12, 83760, Note_on_c, 10, 65, 100
12, 83796, Note_on_c, 10, 65, 0
12, 83800, Note_on_c, 10, 67, 100
12, 83836, Note_on_c, 10, 67, 0
12, 83840, Note_on_c, 10, 69, 100
12, 83876, Note_on_c, 10, 69, 0
12, 83880, Note_on_c, 10, 65, 100
12, 83916, Note_on_c, 10, 65, 0
12, 83920, Note_on_c, 10, 67, 100
12, 83956, Note_on_c, 10, 67, 0
12, 83960, Note_on_c, 10, 69, 100
12, 83996, Note_on_c, 10, 69, 0
12, 84000, Note_on_c, 10, 58, 100
12, 84036, Note_on_c, 10, 58, 0
12, 84040, Note_on_c, 10, 69, 100
12, 84076, Note_on_c, 10, 69, 0
12, 84080, Note_on_c, 10, 70, 100
12, 84116, Note_on_c, 10, 70, 0
12, 84120, Note_on_c, 10, 67, 100
12, 84156, Note_on_c, 10, 67, 0
12, 84160, Note_on_c, 10, 69, 100
12, 84196, Note_on_c, 10, 69, 0
12, 84200, Note_on_c, 10, 70, 100
12, 84236, Note_on_c, 10, 70, 0
12, 84240, Note_on_c, 10, 64, 100
12, 84276, Note_on_c, 10, 64, 0
12, 84280, Note_on_c, 10, 65, 100
12, 84316, Note_on_c, 10, 65, 0
12, 84320, Note_on_c, 10, 67, 100
12, 84356, Note_on_c, 10, 67, 0
12, 84360, Note_on_c, 10, 64, 100
12, 84396, Note_on_c, 10, 64, 0
12, 84400, Note_on_c, 10, 65, 100
12, 84436, Note_on_c, 10, 65, 0
12, 84440, Note_on_c, 10, 67, 100
12, 84476, Note_on_c, 10, 67, 0
12, 84480, Note_on_c, 10, 57, 100
12, 84588, Note_on_c, 10, 57, 0
12, 84600, Note_on_c, 10, 45, 100
12, 84708, Note_on_c, 10, 45, 0
12, 84840, Note_on_c, 10, 57, 100
12, 84948, Note_on_c, 10, 57, 0
12, 84960, Note_on_c, 10, 62, 100
12, 85068, Note_on_c, 10, 62, 0
12, 85080, Note_on_c, 10, 50, 100
12, 85188, Note_on_c, 10, 50, 0
12, 85320, Note_on_c, 10, 50, 100
12, 85428, Note_on_c, 10, 50, 0
12, 85440, Note_on_c, 10, 55, 100
12, 85476, Note_on_c, 10, 55, 0
12, 85480, Note_on_c, 10, 62, 100
12, 85516, Note_on_c, 10, 62, 0
12, 85520, Note_on_c, 10, 64, 100
12, 85556, Note_on_c, 10, 64, 0
12, 85560, Note_on_c, 10, 65, 100
12, 85596, Note_on_c, 10, 65, 0
12, 85600, Note_on_c, 10, 64, 100
12, 85636, Note_on_c, 10, 64, 0
12, 85640, Note_on_c, 10, 65, 100
12, 85676, Note_on_c, 10, 65, 0
12, 85680, Note_on_c, 10, 59, 100
12, 85716, Note_on_c, 10, 59, 0
12, 85720, Note_on_c, 10, 65, 100
12, 85756, Note_on_c, 10, 65, 0
12, 85760, Note_on_c, 10, 64, 100
12, 85796, Note_on_c, 10, 64, 0
12, 85800, Note_on_c, 10, 62, 100
12, 85836, Note_on_c, 10, 62, 0
12, 85840, Note_on_c, 10, 60, 100
12, 85876, Note_on_c, 10, 60, 0
12, 85880, Note_on_c, 10, 59, 100
12, 85916, Note_on_c, 10, 59, 0
12, 85920, Note_on_c, 10, 60, 100
12, 85956, Note_on_c, 10, 60, 0
12, 85960, Note_on_c, 10, 55, 100
12, 85996, Note_on_c, 10, 55, 0
12, 86000, Note_on_c, 10, 57, 100
12, 86036, Note_on_c, 10, 57, 0
12, 86040, Note_on_c, 10, 58, 100
12, 86076, Note_on_c, 10, 58, 0
12, 86080, Note_on_c, 10, 57, 100
12, 86116, Note_on_c, 10, 57, 0
12, 86120, Note_on_c, 10, 55, 100
12, 86156, Note_on_c, 10, 55, 0
12, 86160, Note_on_c, 10, 60, 100
12, 86196, Note_on_c, 10, 60, 0
12, 86200, Note_on_c, 10, 52, 100
12, 86236, Note_on_c, 10, 52, 0
12, 86240, Note_on_c, 10, 50, 100
12, 86276, Note_on_c, 10, 50, 0
12, 86280, Note_on_c, 10, 48, 100
12, 86316, Note_on_c, 10, 48, 0
12, 86320, Note_on_c, 10, 50, 100
12, 86356, Note_on_c, 10, 50, 0
12, 86360, Note_on_c, 10, 52, 100
12, 86396, Note_on_c, 10, 52, 0
12, 86400, Note_on_c, 10, 53, 100
12, 86436, Note_on_c, 10, 53, 0
12, 86440, Note_on_c, 10, 55, 100
12, 86476, Note_on_c, 10, 55, 0
12, 86480, Note_on_c, 10, 57, 100
12, 86516, Note_on_c, 10, 57, 0
12, 86520, Note_on_c, 10, 62, 100
12, 86556, Note_on_c, 10, 62, 0
12, 86560, Note_on_c, 10, 60, 100
12, 86596, Note_on_c, 10, 60, 0
12, 86600, Note_on_c, 10, 62, 100
12, 86636, Note_on_c, 10, 62, 0
12, 86640, Note_on_c, 10, 52, 100
12, 86676, Note_on_c, 10, 52, 0
12, 86680, Note_on_c, 10, 53, 100
12, 86716, Note_on_c, 10, 53, 0
12, 86720, Note_on_c, 10, 55, 100
12, 86756, Note_on_c, 10, 55, 0
12, 86760, Note_on_c, 10, 60, 100
12, 86796, Note_on_c, 10, 60, 0
12, 86800, Note_on_c, 10, 58, 100
12, 86836, Note_on_c, 10, 58, 0
12, 86840, Note_on_c, 10, 60, 100
12, 86876, Note_on_c, 10, 60, 0
12, 86880, Note_on_c, 10, 50, 100
12, 86916, Note_on_c, 10, 50, 0
12, 86920, Note_on_c, 10, 52, 100
12, 86956, Note_on_c, 10, 52, 0
12, 86960, Note_on_c, 10, 53, 100
12, 86996, Note_on_c, 10, 53, 0
12, 87000, Note_on_c, 10, 58, 100
12, 87036, Note_on_c, 10, 58, 0
12, 87040, Note_on_c, 10, 57, 100
12, 87076, Note_on_c, 10, 57, 0
12, 87080, Note_on_c, 10, 58, 100
12, 87116, Note_on_c, 10, 58, 0
12, 87120, Note_on_c, 10, 48, 100
12, 87156, Note_on_c, 10, 48, 0
12, 87160, Note_on_c, 10, 50, 100
12, 87196, Note_on_c, 10, 50, 0
12, 87200, Note_on_c, 10, 52, 100
12, 87236, Note_on_c, 10, 52, 0
12, 87240, Note_on_c, 10, 57, 100
12, 87276, Note_on_c, 10, 57, 0
12, 87280, Note_on_c, 10, 55, 100
12, 87316, Note_on_c, 10, 55, 0
12, 87320, Note_on_c, 10, 57, 100
12, 87356, Note_on_c, 10, 57, 0
12, 87360, Note_on_c, 10, 47, 100
12, 87396, Note_on_c, 10, 47, 0
12, 87400, Note_on_c, 10, 57, 100
12, 87436, Note_on_c, 10, 57, 0
12, 87440, Note_on_c, 10, 55, 100
12, 87476, Note_on_c, 10, 55, 0
12, 87480, Note_on_c, 10, 49, 100
12, 87516, Note_on_c, 10, 49, 0
12, 87520, Note_on_c, 10, 57, 100
12, 87556, Note_on_c, 10, 57, 0
12, 87560, Note_on_c, 10, 55, 100
12, 87596, Note_on_c, 10, 55, 0
12, 87600, Note_on_c, 10, 50, 100
12, 87636, Note_on_c, 10, 50, 0
12, 87640, Note_on_c, 10, 57, 100
12, 87676, Note_on_c, 10, 57, 0
12, 87680, Note_on_c, 10, 55, 100
12, 87716, Note_on_c, 10, 55, 0
12, 87720, Note_on_c, 10, 52, 100
12, 87756, Note_on_c, 10, 52, 0
12, 87760, Note_on_c, 10, 57, 100
12, 87796, Note_on_c, 10, 57, 0
12, 87800, Note_on_c, 10, 55, 100
12, 87836, Note_on_c, 10, 55, 0
12, 87840, Note_on_c, 10, 53, 100
12, 87876, Note_on_c, 10, 53, 0
12, 87880, Note_on_c, 10, 52, 100
12, 87916, Note_on_c, 10, 52, 0
12, 87920, Note_on_c, 10, 50, 100
12, 87956, Note_on_c, 10, 50, 0
12, 87960, Note_on_c, 10, 58, 100
12, 87996, Note_on_c, 10, 58, 0
12, 88000, Note_on_c, 10, 57, 100
12, 88036, Note_on_c, 10, 57, 0
12, 88040, Note_on_c, 10, 55, 100
12, 88076, Note_on_c, 10, 55, 0
12, 88080, Note_on_c, 10, 57, 100
12, 88188, Note_on_c, 10, 57, 0
12, 88200, Note_on_c, 10, 45, 100
12, 88308, Note_on_c, 10, 45, 0
12, 88320, Note_on_c, 10, 50, 100
12, 88536, Note_on_c, 10, 50, 0
12, 88890, Note_on_c, 10, 57, 100
12, 88917, Note_on_c, 10, 57, 0
12, 88920, Note_on_c, 10, 62, 100
12, 88947, Note_on_c, 10, 62, 0
12, 88950, Note_on_c, 10, 57, 100
12, 88977, Note_on_c, 10, 57, 0
12, 88980, Note_on_c, 10, 53, 100
12, 89007, Note_on_c, 10, 53, 0
12, 89010, Note_on_c, 10, 57, 100
12, 89037, Note_on_c, 10, 57, 0
12, 89040, Note_on_c, 10, 53, 100
12, 89067, Note_on_c, 10, 53, 0
12, 89070, Note_on_c, 10, 50, 100
12, 89097, Note_on_c, 10, 50, 0
12, 89100, Note_on_c, 10, 53, 100
12, 89127, Note_on_c, 10, 53, 0
12, 89130, Note_on_c, 10, 52, 100
12, 89157, Note_on_c, 10, 52, 0
12, 89160, Note_on_c, 10, 50, 100
12, 89187, Note_on_c, 10, 50, 0
12, 89190, Note_on_c, 10, 48, 100
12, 89217, Note_on_c, 10, 48, 0
12, 89220, Note_on_c, 10, 47, 100
12, 89247, Note_on_c, 10, 47, 0
12, 89250, Note_on_c, 10, 45, 100
12, 89277, Note_on_c, 10, 45, 0
12, 89280, Note_on_c, 10, 44, 100
12, 89307, Note_on_c, 10, 44, 0
12, 89310, Note_on_c, 10, 47, 100
12, 89337, Note_on_c, 10, 47, 0
12, 89340, Note_on_c, 10, 50, 100
12, 89367, Note_on_c, 10, 50, 0
12, 89370, Note_on_c, 10, 53, 100
12, 89397, Note_on_c, 10, 53, 0
12, 89400, Note_on_c, 10, 59, 100
12, 89427, Note_on_c, 10, 59, 0
12, 89430, Note_on_c, 10, 62, 100
12, 89457, Note_on_c, 10, 62, 0
12, 89460, Note_on_c, 10, 59, 100
12, 89487, Note_on_c, 10, 59, 0
12, 89490, Note_on_c, 10, 56, 100
12, 89517, Note_on_c, 10, 56, 0
12, 89520, Note_on_c, 10, 52, 100
12, 89547, Note_on_c, 10, 52, 0
12, 89550, Note_on_c, 10, 54, 100
12, 89577, Note_on_c, 10, 54, 0
12, 89580, Note_on_c, 10, 56, 100
12, 89607, Note_on_c, 10, 56, 0
12, 89610, Note_on_c, 10, 57, 100
12, 89637, Note_on_c, 10, 57, 0
12, 89640, Note_on_c, 10, 59, 100
12, 89667, Note_on_c, 10, 59, 0
12, 89670, Note_on_c, 10, 60, 100
12, 89697, Note_on_c, 10, 60, 0
12, 89880, Note_on_c, 10, 59, 100
12, 89907, Note_on_c, 10, 59, 0
12, 89910, Note_on_c, 10, 60, 100
12, 89937, Note_on_c, 10, 60, 0
12, 90240, Note_on_c, 10, 45, 100
12, 90348, Note_on_c, 10, 45, 0
12, 90840, Note_on_c, 10, 45, 100
12, 90948, Note_on_c, 10, 45, 0
12, 90960, Note_on_c, 10, 45, 100
12, 91068, Note_on_c, 10, 45, 0
12, 91080, Note_on_c, 10, 45, 100
12, 91188, Note_on_c, 10, 45, 0
12, 91200, Note_on_c, 10, 45, 100
12, 91308, Note_on_c, 10, 45, 0
12, 91800, Note_on_c, 10, 45, 100
12, 91908, Note_on_c, 10, 45, 0
12, 91920, Note_on_c, 10, 45, 100
12, 92028, Note_on_c, 10, 45, 0
12, 92040, Note_on_c, 10, 45, 100
12, 92148, Note_on_c, 10, 45, 0
12, 92160, Note_on_c, 10, 45, 100
12, 92268, Note_on_c, 10, 45, 0
12, 92490, Note_on_c, 10, 57, 100
12, 92517, Note_on_c, 10, 57, 0
12, 92520, Note_on_c, 10, 60, 100
12, 92547, Note_on_c, 10, 60, 0
12, 92550, Note_on_c, 10, 59, 100
12, 92577, Note_on_c, 10, 59, 0
12, 92580, Note_on_c, 10, 57, 100
12, 92607, Note_on_c, 10, 57, 0
12, 92610, Note_on_c, 10, 56, 100
12, 92637, Note_on_c, 10, 56, 0
12, 92640, Note_on_c, 10, 57, 100
12, 92667, Note_on_c, 10, 57, 0
12, 92670, Note_on_c, 10, 60, 100
12, 92697, Note_on_c, 10, 60, 0
12, 92700, Note_on_c, 10, 57, 100
12, 92727, Note_on_c, 10, 57, 0
12, 92730, Note_on_c, 10, 52, 100
12, 92757, Note_on_c, 10, 52, 0
12, 92760, Note_on_c, 10, 57, 100
12, 92787, Note_on_c, 10, 57, 0
12, 92790, Note_on_c, 10, 52, 100
12, 92817, Note_on_c, 10, 52, 0
12, 92820, Note_on_c, 10, 48, 100
12, 92847, Note_on_c, 10, 48, 0
12, 92850, Note_on_c, 10, 52, 100
12, 92877, Note_on_c, 10, 52, 0
12, 92880, Note_on_c, 10, 48, 100
12, 92907, Note_on_c, 10, 48, 0
12, 92910, Note_on_c, 10, 45, 100
12, 92937, Note_on_c, 10, 45, 0
12, 92940, Note_on_c, 10, 48, 100
12, 92967, Note_on_c, 10, 48, 0
12, 92970, Note_on_c, 10, 47, 100
12, 92997, Note_on_c, 10, 47, 0
12, 93000, Note_on_c, 10, 45, 100
12, 93027, Note_on_c, 10, 45, 0
12, 93030, Note_on_c, 10, 43, 100
12, 93057, Note_on_c, 10, 43, 0
12, 93060, Note_on_c, 10, 42, 100
12, 93087, Note_on_c, 10, 42, 0
12, 93090, Note_on_c, 10, 40, 100
12, 93117, Note_on_c, 10, 40, 0
12, 93120, Note_on_c, 10, 39, 100
12, 93147, Note_on_c, 10, 39, 0
12, 93150, Note_on_c, 10, 42, 100
12, 93177, Note_on_c, 10, 42, 0
12, 93180, Note_on_c, 10, 45, 100
12, 93207, Note_on_c, 10, 45, 0
12, 93210, Note_on_c, 10, 48, 100
12, 93237, Note_on_c, 10, 48, 0
12, 93240, Note_on_c, 10, 54, 100
12, 93267, Note_on_c, 10, 54, 0
12, 93270, Note_on_c, 10, 57, 100
12, 93297, Note_on_c, 10, 57, 0
12, 93300, Note_on_c, 10, 54, 100
12, 93327, Note_on_c, 10, 54, 0
12, 93330, Note_on_c, 10, 51, 100
12, 93357, Note_on_c, 10, 51, 0
12, 93360, Note_on_c, 10, 47, 100
12, 93387, Note_on_c, 10, 47, 0
12, 93390, Note_on_c, 10, 49, 100
12, 93417, Note_on_c, 10, 49, 0
12, 93420, Note_on_c, 10, 51, 100
12, 93447, Note_on_c, 10, 51, 0
12, 93450, Note_on_c, 10, 52, 100
12, 93477, Note_on_c, 10, 52, 0
12, 93480, Note_on_c, 10, 54, 100
12, 93507, Note_on_c, 10, 54, 0
12, 93510, Note_on_c, 10, 55, 100
12, 93537, Note_on_c, 10, 55, 0
12, 93540, Note_on_c, 10, 57, 100
12, 93567, Note_on_c, 10, 57, 0
12, 93570, Note_on_c, 10, 59, 100
12, 93597, Note_on_c, 10, 59, 0
12, 93600, Note_on_c, 10, 60, 100
12, 93627, Note_on_c, 10, 60, 0
12, 93630, Note_on_c, 10, 57, 100
12, 93657, Note_on_c, 10, 57, 0
12, 93660, Note_on_c, 10, 59, 100
12, 93687, Note_on_c, 10, 59, 0
12, 93690, Note_on_c, 10, 60, 100
12, 93717, Note_on_c, 10, 60, 0
12, 93720, Note_on_c, 10, 54, 100
12, 93747, Note_on_c, 10, 54, 0
12, 93750, Note_on_c, 10, 55, 100
12, 93777, Note_on_c, 10, 55, 0
12, 93780, Note_on_c, 10, 57, 100
12, 93807, Note_on_c, 10, 57, 0
12, 93810, Note_on_c, 10, 59, 100
12, 93837, Note_on_c, 10, 59, 0
12, 94080, Note_on_c, 10, 59, 100
12, 94080, Note_on_c, 10, 40, 100
12, 94188, Note_on_c, 10, 59, 0
12, 94188, Note_on_c, 10, 40, 0
12, 94200, Note_on_c, 10, 52, 100
12, 94254, Note_on_c, 10, 52, 0
12, 94260, Note_on_c, 10, 54, 100
12, 94314, Note_on_c, 10, 54, 0
12, 94320, Note_on_c, 10, 55, 100
12, 94374, Note_on_c, 10, 55, 0
12, 94380, Note_on_c, 10, 59, 100
12, 94434, Note_on_c, 10, 59, 0
12, 94440, Note_on_c, 10, 57, 100
12, 94494, Note_on_c, 10, 57, 0
12, 94500, Note_on_c, 10, 54, 100
12, 94554, Note_on_c, 10, 54, 0
12, 94560, Note_on_c, 10, 55, 100
12, 94614, Note_on_c, 10, 55, 0
12, 94620, Note_on_c, 10, 52, 100
12, 94674, Note_on_c, 10, 52, 0
12, 94680, Note_on_c, 10, 55, 100
12, 94734, Note_on_c, 10, 55, 0
12, 94740, Note_on_c, 10, 59, 100
12, 94794, Note_on_c, 10, 59, 0
12, 95040, Note_on_c, 10, 38, 100
12, 95148, Note_on_c, 10, 38, 0
12, 95520, Note_on_c, 10, 38, 100
12, 95628, Note_on_c, 10, 38, 0
12, 96000, Note_on_c, 10, 36, 100
12, 96108, Note_on_c, 10, 36, 0
12, 96120, Note_on_c, 10, 64, 100
12, 96201, Note_on_c, 10, 64, 0
12, 96210, Note_on_c, 10, 62, 100
12, 96237, Note_on_c, 10, 62, 0
12, 96240, Note_on_c, 10, 60, 100
12, 96276, Note_on_c, 10, 60, 0
12, 96280, Note_on_c, 10, 59, 100
12, 96316, Note_on_c, 10, 59, 0
12, 96320, Note_on_c, 10, 57, 100
12, 96356, Note_on_c, 10, 57, 0
12, 96360, Note_on_c, 10, 59, 100
12, 96396, Note_on_c, 10, 59, 0
12, 96400, Note_on_c, 10, 60, 100
12, 96436, Note_on_c, 10, 60, 0
12, 96440, Note_on_c, 10, 62, 100
12, 96476, Note_on_c, 10, 62, 0
12, 96480, Note_on_c, 10, 60, 100
12, 96516, Note_on_c, 10, 60, 0
12, 96520, Note_on_c, 10, 59, 100
12, 96556, Note_on_c, 10, 59, 0
12, 96560, Note_on_c, 10, 57, 100
12, 96596, Note_on_c, 10, 57, 0
12, 97000, Note_on_c, 10, 52, 100
12, 97036, Note_on_c, 10, 52, 0
12, 97040, Note_on_c, 10, 57, 100
12, 97076, Note_on_c, 10, 57, 0
12, 97080, Note_on_c, 10, 60, 100
12, 97116, Note_on_c, 10, 60, 0
12, 97120, Note_on_c, 10, 62, 100
12, 97156, Note_on_c, 10, 62, 0
12, 97160, Note_on_c, 10, 60, 100
12, 97196, Note_on_c, 10, 60, 0
12, 97200, Note_on_c, 10, 59, 100
12, 97236, Note_on_c, 10, 59, 0
12, 97240, Note_on_c, 10, 57, 100
12, 97276, Note_on_c, 10, 57, 0
12, 97280, Note_on_c, 10, 55, 100
12, 97316, Note_on_c, 10, 55, 0
12, 97320, Note_on_c, 10, 57, 100
12, 97356, Note_on_c, 10, 57, 0
12, 97360, Note_on_c, 10, 59, 100
12, 97396, Note_on_c, 10, 59, 0
12, 97400, Note_on_c, 10, 60, 100
12, 97436, Note_on_c, 10, 60, 0
12, 97440, Note_on_c, 10, 59, 100
12, 97476, Note_on_c, 10, 59, 0
12, 97480, Note_on_c, 10, 57, 100
12, 97516, Note_on_c, 10, 57, 0
12, 97520, Note_on_c, 10, 55, 100
12, 97556, Note_on_c, 10, 55, 0
12, 98040, Note_on_c, 10, 60, 100
12, 98076, Note_on_c, 10, 60, 0
12, 98080, Note_on_c, 10, 62, 100
12, 98116, Note_on_c, 10, 62, 0
12, 98120, Note_on_c, 10, 64, 100
12, 98156, Note_on_c, 10, 64, 0
12, 98160, Note_on_c, 10, 57, 100
12, 98196, Note_on_c, 10, 57, 0
12, 98200, Note_on_c, 10, 55, 100
12, 98236, Note_on_c, 10, 55, 0
12, 98240, Note_on_c, 10, 54, 100
12, 98276, Note_on_c, 10, 54, 0
12, 98280, Note_on_c, 10, 59, 100
12, 98316, Note_on_c, 10, 59, 0
12, 98320, Note_on_c, 10, 60, 100
12, 98356, Note_on_c, 10, 60, 0
12, 98360, Note_on_c, 10, 62, 100
12, 98396, Note_on_c, 10, 62, 0
12, 98400, Note_on_c, 10, 56, 100
12, 98436, Note_on_c, 10, 56, 0
12, 98440, Note_on_c, 10, 54, 100
12, 98476, Note_on_c, 10, 54, 0
12, 98480, Note_on_c, 10, 52, 100
12, 98516, Note_on_c, 10, 52, 0
12, 98520, Note_on_c, 10, 57, 100
12, 98556, Note_on_c, 10, 57, 0
12, 98560, Note_on_c, 10, 59, 100
12, 98596, Note_on_c, 10, 59, 0
12, 98600, Note_on_c, 10, 60, 100
12, 98636, Note_on_c, 10, 60, 0
12, 98640, Note_on_c, 10, 54, 100
12, 98676, Note_on_c, 10, 54, 0
12, 98680, Note_on_c, 10, 52, 100
12, 98716, Note_on_c, 10, 52, 0
12, 98720, Note_on_c, 10, 50, 100
12, 98756, Note_on_c, 10, 50, 0
12, 98760, Note_on_c, 10, 55, 100
12, 98796, Note_on_c, 10, 55, 0
12, 98800, Note_on_c, 10, 57, 100
12, 98836, Note_on_c, 10, 57, 0
12, 98840, Note_on_c, 10, 59, 100
12, 98876, Note_on_c, 10, 59, 0
12, 98880, Note_on_c, 10, 49, 100
12, 98907, Note_on_c, 10, 49, 0
12, 98910, Note_on_c, 10, 52, 100
12, 98937, Note_on_c, 10, 52, 0
12, 98940, Note_on_c, 10, 55, 100
12, 98967, Note_on_c, 10, 55, 0
12, 100470, Note_on_c, 10, 57, 100
12, 100497, Note_on_c, 10, 57, 0
12, 100500, Note_on_c, 10, 55, 100
12, 100527, Note_on_c, 10, 55, 0
12, 100530, Note_on_c, 10, 52, 100
12, 100557, Note_on_c, 10, 52, 0
12, 100560, Note_on_c, 10, 54, 100
12, 100587, Note_on_c, 10, 54, 0
12, 100590, Note_on_c, 10, 57, 100
12, 100617, Note_on_c, 10, 57, 0
12, 100620, Note_on_c, 10, 60, 100
12, 100647, Note_on_c, 10, 60, 0
12, 100650, Note_on_c, 10, 57, 100
12, 100677, Note_on_c, 10, 57, 0
12, 100680, Note_on_c, 10, 54, 100
12, 100707, Note_on_c, 10, 54, 0
12, 100710, Note_on_c, 10, 52, 100
12, 100737, Note_on_c, 10, 52, 0
12, 100740, Note_on_c, 10, 50, 100
12, 100767, Note_on_c, 10, 50, 0
12, 100770, Note_on_c, 10, 48, 100
12, 100797, Note_on_c, 10, 48, 0
12, 100800, Note_on_c, 10, 47, 100
12, 101016, Note_on_c, 10, 47, 0
12, 101160, Note_on_c, 10, 54, 100
12, 101160, Note_on_c, 10, 57, 100
12, 101160, Note_on_c, 10, 60, 100
12, 101160, Note_on_c, 10, 52, 100
12, 101268, Note_on_c, 10, 54, 0
12, 101268, Note_on_c, 10, 57, 0
12, 101268, Note_on_c, 10, 60, 0
12, 101268, Note_on_c, 10, 52, 0
12, 101280, Note_on_c, 10, 55, 100
12, 101280, Note_on_c, 10, 50, 100
12, 101334, Note_on_c, 10, 55, 0
12, 101340, Note_on_c, 10, 54, 100
12, 101394, Note_on_c, 10, 54, 0
12, 101400, Note_on_c, 10, 55, 100
12, 101454, Note_on_c, 10, 55, 0
12, 101460, Note_on_c, 10, 57, 100
12, 101496, Note_on_c, 10, 50, 0
12, 101514, Note_on_c, 10, 57, 0
12, 101520, Note_on_c, 10, 59, 100
12, 101574, Note_on_c, 10, 59, 0
12, 101580, Note_on_c, 10, 62, 100
12, 101634, Note_on_c, 10, 62, 0
12, 101640, Note_on_c, 10, 60, 100
12, 101640, Note_on_c, 10, 38, 100
12, 101694, Note_on_c, 10, 60, 0
12, 101700, Note_on_c, 10, 57, 100
12, 101748, Note_on_c, 10, 38, 0
12, 101754, Note_on_c, 10, 57, 0
12, 101760, Note_on_c, 10, 59, 100
12, 101760, Note_on_c, 10, 38, 100
12, 101796, Note_on_c, 10, 59, 0
12, 101800, Note_on_c, 10, 60, 100
12, 101836, Note_on_c, 10, 60, 0
12, 101840, Note_on_c, 10, 62, 100
12, 101868, Note_on_c, 10, 38, 0
12, 101876, Note_on_c, 10, 62, 0
12, 101880, Note_on_c, 10, 60, 100
12, 101880, Note_on_c, 10, 50, 100
12, 101916, Note_on_c, 10, 60, 0
12, 101920, Note_on_c, 10, 59, 100
12, 101956, Note_on_c, 10, 59, 0
12, 101960, Note_on_c, 10, 57, 100
12, 101988, Note_on_c, 10, 50, 0
12, 101996, Note_on_c, 10, 57, 0
12, 102000, Note_on_c, 10, 59, 100
12, 102000, Note_on_c, 10, 38, 100
12, 102036, Note_on_c, 10, 59, 0
12, 102040, Note_on_c, 10, 60, 100
12, 102076, Note_on_c, 10, 60, 0
12, 102080, Note_on_c, 10, 62, 100
12, 102108, Note_on_c, 10, 38, 0
12, 102116, Note_on_c, 10, 62, 0
12, 102120, Note_on_c, 10, 60, 100
12, 102120, Note_on_c, 10, 39, 100
12, 102156, Note_on_c, 10, 60, 0
12, 102160, Note_on_c, 10, 59, 100
12, 102196, Note_on_c, 10, 59, 0
12, 102200, Note_on_c, 10, 57, 100
12, 102228, Note_on_c, 10, 39, 0
12, 102236, Note_on_c, 10, 57, 0
12, 102240, Note_on_c, 10, 55, 100
12, 102240, Note_on_c, 10, 40, 100
12, 102276, Note_on_c, 10, 55, 0
12, 102280, Note_on_c, 10, 57, 100
12, 102316, Note_on_c, 10, 57, 0
12, 102320, Note_on_c, 10, 59, 100
12, 102348, Note_on_c, 10, 40, 0
12, 102356, Note_on_c, 10, 59, 0
12, 102360, Note_on_c, 10, 60, 100
12, 102360, Note_on_c, 10, 52, 100
12, 102396, Note_on_c, 10, 60, 0
12, 102396, Note_on_c, 10, 52, 0
12, 102400, Note_on_c, 10, 62, 100
12, 102400, Note_on_c, 10, 50, 100
12, 102436, Note_on_c, 10, 62, 0
12, 102436, Note_on_c, 10, 50, 0
12, 102440, Note_on_c, 10, 64, 100
12, 102440, Note_on_c, 10, 48, 100
12, 102476, Note_on_c, 10, 64, 0
12, 102476, Note_on_c, 10, 48, 0
12, 102480, Note_on_c, 10, 62, 100
12, 102480, Note_on_c, 10, 47, 100
12, 102516, Note_on_c, 10, 62, 0
12, 102516, Note_on_c, 10, 47, 0
12, 102520, Note_on_c, 10, 60, 100
12, 102520, Note_on_c, 10, 45, 100
12, 102556, Note_on_c, 10, 60, 0
12, 102556, Note_on_c, 10, 45, 0
12, 102560, Note_on_c, 10, 59, 100
12, 102560, Note_on_c, 10, 43, 100
12, 102596, Note_on_c, 10, 59, 0
12, 102596, Note_on_c, 10, 43, 0
12, 102600, Note_on_c, 10, 50, 100
12, 102681, Note_on_c, 10, 50, 0
12, 102690, Note_on_c, 10, 38, 100
12, 102717, Note_on_c, 10, 38, 0
12, 102720, Note_on_c, 10, 55, 100
12, 102828, Note_on_c, 10, 55, 0
12, 102840, Note_on_c, 10, 43, 100
12, 102948, Note_on_c, 10, 43, 0
12, 103080, Note_on_c, 10, 55, 100
12, 103188, Note_on_c, 10, 55, 0
12, 103200, Note_on_c, 10, 55, 100
12, 103308, Note_on_c, 10, 55, 0
12, 103320, Note_on_c, 10, 43, 100
12, 103428, Note_on_c, 10, 43, 0
12, 103560, Note_on_c, 10, 55, 100
12, 103668, Note_on_c, 10, 55, 0
12, 103680, Note_on_c, 10, 55, 100
12, 103788, Note_on_c, 10, 55, 0
12, 103800, Note_on_c, 10, 43, 100
12, 103908, Note_on_c, 10, 43, 0
12, 103920, Note_on_c, 10, 55, 100
12, 104028, Note_on_c, 10, 55, 0
12, 104040, Note_on_c, 10, 43, 100
12, 104148, Note_on_c, 10, 43, 0
12, 104160, Note_on_c, 10, 55, 100
12, 104268, Note_on_c, 10, 55, 0
12, 104280, Note_on_c, 10, 43, 100
12, 104388, Note_on_c, 10, 43, 0
12, 104400, Note_on_c, 10, 43, 100
12, 104508, Note_on_c, 10, 43, 0
12, 104520, Note_on_c, 10, 43, 100
12, 104628, Note_on_c, 10, 43, 0
12, 104640, Note_on_c, 10, 59, 100
12, 104640, Note_on_c, 10, 62, 100
12, 104640, Note_on_c, 10, 67, 100
12, 104640, Note_on_c, 10, 55, 100
12, 104856, Note_on_c, 10, 59, 0
12, 104856, Note_on_c, 10, 62, 0
12, 104856, Note_on_c, 10, 67, 0
12, 104856, Note_on_c, 10, 55, 0
12, 105120, Note_on_c, 10, 52, 100
12, 105120, Note_on_c, 10, 55, 100
12, 105120, Note_on_c, 10, 60, 100
12, 105120, Note_on_c, 10, 48, 100
12, 105336, Note_on_c, 10, 52, 0
12, 105336, Note_on_c, 10, 55, 0
12, 105336, Note_on_c, 10, 60, 0
12, 105336, Note_on_c, 10, 48, 0
12, 105600, Note_on_c, 10, 52, 100
12, 105600, Note_on_c, 10, 57, 100
12, 105600, Note_on_c, 10, 49, 100
12, 105816, Note_on_c, 10, 52, 0
12, 105816, Note_on_c, 10, 57, 0
12, 105816, Note_on_c, 10, 49, 0
12, 106080, Note_on_c, 10, 53, 100
12, 106080, Note_on_c, 10, 57, 100
12, 106080, Note_on_c, 10, 62, 100
12, 106080, Note_on_c, 10, 50, 100
12, 106296, Note_on_c, 10, 53, 0
12, 106296, Note_on_c, 10, 57, 0
12, 106296, Note_on_c, 10, 62, 0
12, 106296, Note_on_c, 10, 50, 0
12, 106560, Note_on_c, 10, 44, 100
12, 106560, Note_on_c, 10, 47, 100
12, 106560, Note_on_c, 10, 52, 100
12, 106776, Note_on_c, 10, 44, 0
12, 106776, Note_on_c, 10, 47, 0
12, 106776, Note_on_c, 10, 52, 0
12, 107040, Note_on_c, 10, 45, 100
12, 107148, Note_on_c, 10, 45, 0
12, 107160, Note_on_c, 10, 62, 100
12, 107160, Note_on_c, 10, 53, 100
12, 107376, Note_on_c, 10, 62, 0
12, 107376, Note_on_c, 10, 53, 0
12, 107400, Note_on_c, 10, 60, 100
12, 107400, Note_on_c, 10, 52, 100
12, 107628, Note_on_c, 10, 60, 0
12, 107628, Note_on_c, 10, 52, 0
12, 107640, Note_on_c, 10, 59, 100
12, 107640, Note_on_c, 10, 50, 100
12, 107856, Note_on_c, 10, 59, 0
12, 107856, Note_on_c, 10, 50, 0
12, 107880, Note_on_c, 10, 57, 100
12, 107880, Note_on_c, 10, 48, 100
12, 108108, Note_on_c, 10, 57, 0
12, 108108, Note_on_c, 10, 48, 0
12, 108120, Note_on_c, 10, 60, 100
12, 108228, Note_on_c, 10, 60, 0
12, 108240, Note_on_c, 10, 59, 100
12, 108348, Note_on_c, 10, 59, 0
12, 108360, Note_on_c, 10, 57, 100
12, 108468, Note_on_c, 10, 57, 0
12, 108480, Note_on_c, 10, 56, 100
12, 108516, Note_on_c, 10, 56, 0
12, 108520, Note_on_c, 10, 57, 100
12, 108556, Note_on_c, 10, 57, 0
12, 108560, Note_on_c, 10, 59, 100
12, 108596, Note_on_c, 10, 59, 0
12, 108600, Note_on_c, 10, 52, 100
12, 108708, Note_on_c, 10, 52, 0
12, 108720, Note_on_c, 10, 60, 100
12, 108756, Note_on_c, 10, 60, 0
12, 108760, Note_on_c, 10, 62, 100
12, 108796, Note_on_c, 10, 62, 0
12, 108800, Note_on_c, 10, 64, 100
12, 108836, Note_on_c, 10, 64, 0
12, 108840, Note_on_c, 10, 57, 100
12, 108876, Note_on_c, 10, 57, 0
12, 108880, Note_on_c, 10, 59, 100
12, 108916, Note_on_c, 10, 59, 0
12, 108920, Note_on_c, 10, 60, 100
12, 108956, Note_on_c, 10, 60, 0
12, 108960, Note_on_c, 10, 54, 100
12, 108996, Note_on_c, 10, 54, 0
12, 109000, Note_on_c, 10, 55, 100
12, 109036, Note_on_c, 10, 55, 0
12, 109040, Note_on_c, 10, 57, 100
12, 109076, Note_on_c, 10, 57, 0
12, 109080, Note_on_c, 10, 51, 100
12, 109116, Note_on_c, 10, 51, 0
12, 109120, Note_on_c, 10, 52, 100
12, 109156, Note_on_c, 10, 52, 0
12, 109160, Note_on_c, 10, 54, 100
12, 109196, Note_on_c, 10, 54, 0
12, 109200, Note_on_c, 10, 47, 100
12, 109236, Note_on_c, 10, 47, 0
12, 109240, Note_on_c, 10, 49, 100
12, 109276, Note_on_c, 10, 49, 0
12, 109280, Note_on_c, 10, 51, 100
12, 109316, Note_on_c, 10, 51, 0
12, 109320, Note_on_c, 10, 44, 100
12, 109356, Note_on_c, 10, 44, 0
12, 109360, Note_on_c, 10, 45, 100
12, 109396, Note_on_c, 10, 45, 0
12, 109400, Note_on_c, 10, 47, 100
12, 109436, Note_on_c, 10, 47, 0
12, 109440, Note_on_c, 10, 56, 100
12, 109440, Note_on_c, 10, 40, 100
12, 109476, Note_on_c, 10, 56, 0
12, 109480, Note_on_c, 10, 57, 100
12, 109516, Note_on_c, 10, 57, 0
12, 109520, Note_on_c, 10, 59, 100
12, 109548, Note_on_c, 10, 40, 0
12, 109556, Note_on_c, 10, 59, 0
12, 109560, Note_on_c, 10, 52, 100
12, 109560, Note_on_c, 10, 44, 100
12, 109596, Note_on_c, 10, 44, 0
12, 109600, Note_on_c, 10, 45, 100
12, 109636, Note_on_c, 10, 45, 0
12, 109640, Note_on_c, 10, 47, 100
12, 109668, Note_on_c, 10, 52, 0
12, 109676, Note_on_c, 10, 47, 0
12, 109680, Note_on_c, 10, 57, 100
12, 109680, Note_on_c, 10, 36, 100
12, 109716, Note_on_c, 10, 57, 0
12, 109720, Note_on_c, 10, 59, 100
12, 109756, Note_on_c, 10, 59, 0
12, 109760, Note_on_c, 10, 60, 100
12, 109788, Note_on_c, 10, 36, 0
12, 109796, Note_on_c, 10, 60, 0
12, 109800, Note_on_c, 10, 54, 100
12, 109800, Note_on_c, 10, 45, 100
12, 109836, Note_on_c, 10, 45, 0
12, 109840, Note_on_c, 10, 47, 100
12, 109876, Note_on_c, 10, 47, 0
12, 109880, Note_on_c, 10, 48, 100
12, 109908, Note_on_c, 10, 54, 0
12, 109916, Note_on_c, 10, 48, 0
12, 109920, Note_on_c, 10, 59, 100
12, 109920, Note_on_c, 10, 38, 100
12, 109956, Note_on_c, 10, 59, 0
12, 109960, Note_on_c, 10, 60, 100
12, 109996, Note_on_c, 10, 60, 0
12, 110000, Note_on_c, 10, 62, 100
12, 110028, Note_on_c, 10, 38, 0
12, 110036, Note_on_c, 10, 62, 0
12, 110040, Note_on_c, 10, 56, 100
12, 110040, Note_on_c, 10, 47, 100
12, 110076, Note_on_c, 10, 47, 0
12, 110080, Note_on_c, 10, 48, 100
12, 110116, Note_on_c, 10, 48, 0
12, 110120, Note_on_c, 10, 50, 100
12, 110148, Note_on_c, 10, 56, 0
12, 110156, Note_on_c, 10, 50, 0
12, 110160, Note_on_c, 10, 60, 100
12, 110160, Note_on_c, 10, 40, 100
12, 110196, Note_on_c, 10, 60, 0
12, 110200, Note_on_c, 10, 62, 100
12, 110236, Note_on_c, 10, 62, 0
12, 110240, Note_on_c, 10, 64, 100
12, 110268, Note_on_c, 10, 40, 0
12, 110276, Note_on_c, 10, 64, 0
12, 110280, Note_on_c, 10, 57, 100
12, 110280, Note_on_c, 10, 48, 100
12, 110316, Note_on_c, 10, 48, 0
12, 110320, Note_on_c, 10, 50, 100
12, 110356, Note_on_c, 10, 50, 0
12, 110360, Note_on_c, 10, 52, 100
12, 110388, Note_on_c, 10, 57, 0
12, 110396, Note_on_c, 10, 52, 0
12, 110400, Note_on_c, 10, 41, 100
12, 110508, Note_on_c, 10, 41, 0
12, 110520, Note_on_c, 10, 50, 100
12, 110556, Note_on_c, 10, 50, 0
12, 110560, Note_on_c, 10, 52, 100
12, 110596, Note_on_c, 10, 52, 0
12, 110600, Note_on_c, 10, 53, 100
12, 110636, Note_on_c, 10, 53, 0
12, 110640, Note_on_c, 10, 44, 100
12, 110748, Note_on_c, 10, 44, 0
12, 110760, Note_on_c, 10, 62, 100
12, 110796, Note_on_c, 10, 62, 0
12, 110800, Note_on_c, 10, 64, 100
12, 110836, Note_on_c, 10, 64, 0
12, 110840, Note_on_c, 10, 65, 100
12, 110876, Note_on_c, 10, 65, 0
12, 110880, Note_on_c, 10, 59, 100
12, 110916, Note_on_c, 10, 59, 0
12, 110920, Note_on_c, 10, 60, 100
12, 110956, Note_on_c, 10, 60, 0
12, 110960, Note_on_c, 10, 62, 100
12, 110996, Note_on_c, 10, 62, 0
12, 111000, Note_on_c, 10, 56, 100
12, 111036, Note_on_c, 10, 56, 0
12, 111040, Note_on_c, 10, 57, 100
12, 111076, Note_on_c, 10, 57, 0
12, 111080, Note_on_c, 10, 59, 100
12, 111116, Note_on_c, 10, 59, 0
12, 111120, Note_on_c, 10, 52, 100
12, 111156, Note_on_c, 10, 52, 0
12, 111160, Note_on_c, 10, 54, 100
12, 111196, Note_on_c, 10, 54, 0
12, 111200, Note_on_c, 10, 56, 100
12, 111236, Note_on_c, 10, 56, 0
12, 111240, Note_on_c, 10, 54, 100
12, 111276, Note_on_c, 10, 54, 0
12, 111280, Note_on_c, 10, 56, 100
12, 111316, Note_on_c, 10, 56, 0
12, 111320, Note_on_c, 10, 57, 100
12, 111356, Note_on_c, 10, 57, 0
12, 111360, Note_on_c, 10, 56, 100
12, 111396, Note_on_c, 10, 56, 0
12, 111400, Note_on_c, 10, 57, 100
12, 111436, Note_on_c, 10, 57, 0
12, 111440, Note_on_c, 10, 59, 100
12, 111476, Note_on_c, 10, 59, 0
12, 111600, Note_on_c, 10, 57, 100
12, 111636, Note_on_c, 10, 57, 0
12, 111640, Note_on_c, 10, 59, 100
12, 111676, Note_on_c, 10, 59, 0
12, 111680, Note_on_c, 10, 60, 100
12, 111716, Note_on_c, 10, 60, 0
12, 111840, Note_on_c, 10, 59, 100
12, 111876, Note_on_c, 10, 59, 0
12, 111880, Note_on_c, 10, 60, 100
12, 111916, Note_on_c, 10, 60, 0
12, 111920, Note_on_c, 10, 62, 100
12, 111956, Note_on_c, 10, 62, 0
12, 112800, Note_on_c, 10, 59, 100
12, 112836, Note_on_c, 10, 59, 0
12, 112840, Note_on_c, 10, 60, 100
12, 112876, Note_on_c, 10, 60, 0
12, 112880, Note_on_c, 10, 62, 100
12, 112916, Note_on_c, 10, 62, 0
12, 113040, Note_on_c, 10, 57, 100
12, 113076, Note_on_c, 10, 57, 0
12, 113080, Note_on_c, 10, 59, 100
12, 113116, Note_on_c, 10, 59, 0
12, 113120, Note_on_c, 10, 60, 100
12, 113156, Note_on_c, 10, 60, 0
12, 113280, Note_on_c, 10, 55, 100
12, 113316, Note_on_c, 10, 55, 0
12, 113320, Note_on_c, 10, 57, 100
12, 113356, Note_on_c, 10, 57, 0
12, 113360, Note_on_c, 10, 59, 100
12, 113396, Note_on_c, 10, 59, 0
12, 113520, Note_on_c, 10, 53, 100
12, 113556, Note_on_c, 10, 53, 0
12, 113560, Note_on_c, 10, 55, 100
12, 113596, Note_on_c, 10, 55, 0
12, 113600, Note_on_c, 10, 57, 100
12, 113636, Note_on_c, 10, 57, 0
12, 113640, Note_on_c, 10, 62, 100
12, 113676, Note_on_c, 10, 62, 0
12, 113680, Note_on_c, 10, 60, 100
12, 113716, Note_on_c, 10, 60, 0
12, 113720, Note_on_c, 10, 62, 100
12, 113756, Note_on_c, 10, 62, 0
12, 113760, Note_on_c, 10, 52, 100
12, 113796, Note_on_c, 10, 52, 0
12, 113800, Note_on_c, 10, 53, 100
12, 113836, Note_on_c, 10, 53, 0
12, 113840, Note_on_c, 10, 55, 100
12, 113876, Note_on_c, 10, 55, 0
12, 113880, Note_on_c, 10, 61, 100
12, 113916, Note_on_c, 10, 61, 0
12, 113920, Note_on_c, 10, 59, 100
12, 113956, Note_on_c, 10, 59, 0
12, 113960, Note_on_c, 10, 61, 100
12, 113996, Note_on_c, 10, 61, 0
12, 114000, Note_on_c, 10, 50, 100
12, 114036, Note_on_c, 10, 50, 0
12, 114040, Note_on_c, 10, 52, 100
12, 114076, Note_on_c, 10, 52, 0
12, 114080, Note_on_c, 10, 53, 100
12, 114116, Note_on_c, 10, 53, 0
12, 114120, Note_on_c, 10, 58, 100
12, 114156, Note_on_c, 10, 58, 0
12, 114160, Note_on_c, 10, 57, 100
12, 114196, Note_on_c, 10, 57, 0
12, 114200, Note_on_c, 10, 58, 100
12, 114236, Note_on_c, 10, 58, 0
12, 114240, Note_on_c, 10, 52, 100
12, 114276, Note_on_c, 10, 52, 0
12, 114280, Note_on_c, 10, 54, 100
12, 114316, Note_on_c, 10, 54, 0
12, 114320, Note_on_c, 10, 56, 100
12, 114356, Note_on_c, 10, 56, 0
12, 114360, Note_on_c, 10, 59, 100
12, 114396, Note_on_c, 10, 59, 0
12, 114400, Note_on_c, 10, 57, 100
12, 114436, Note_on_c, 10, 57, 0
12, 114440, Note_on_c, 10, 59, 100
12, 114476, Note_on_c, 10, 59, 0
12, 114480, Note_on_c, 10, 54, 100
12, 114516, Note_on_c, 10, 54, 0
12, 114520, Note_on_c, 10, 56, 100
12, 114556, Note_on_c, 10, 56, 0
12, 114560, Note_on_c, 10, 57, 100
12, 114596, Note_on_c, 10, 57, 0
12, 114600, Note_on_c, 10, 59, 100
12, 114636, Note_on_c, 10, 59, 0
12, 114640, Note_on_c, 10, 57, 100
12, 114676, Note_on_c, 10, 57, 0
12, 114680, Note_on_c, 10, 59, 100
12, 114716, Note_on_c, 10, 59, 0
12, 114720, Note_on_c, 10, 56, 100
12, 114747, Note_on_c, 10, 56, 0
12, 114750, Note_on_c, 10, 57, 100
12, 114777, Note_on_c, 10, 57, 0
12, 114780, Note_on_c, 10, 59, 100
12, 114807, Note_on_c, 10, 59, 0
12, 114810, Note_on_c, 10, 60, 100
12, 114837, Note_on_c, 10, 60, 0
12, 115110, Note_on_c, 10, 60, 100
12, 115137, Note_on_c, 10, 60, 0
12, 115140, Note_on_c, 10, 59, 100
12, 115167, Note_on_c, 10, 59, 0
12, 115170, Note_on_c, 10, 57, 100
12, 115197, Note_on_c, 10, 57, 0
12, 115200, Note_on_c, 10, 56, 100
12, 115227, Note_on_c, 10, 56, 0
12, 115230, Note_on_c, 10, 57, 100
12, 115257, Note_on_c, 10, 57, 0
12, 115260, Note_on_c, 10, 59, 100
12, 115287, Note_on_c, 10, 59, 0
12, 115290, Note_on_c, 10, 60, 100
12, 115317, Note_on_c, 10, 60, 0
12, 115590, Note_on_c, 10, 62, 100
12, 115617, Note_on_c, 10, 62, 0
12, 115620, Note_on_c, 10, 60, 100
12, 115647, Note_on_c, 10, 60, 0
12, 115650, Note_on_c, 10, 59, 100
12, 115677, Note_on_c, 10, 59, 0
12, 115680, Note_on_c, 10, 57, 100
12, 115707, Note_on_c, 10, 57, 0
12, 115710, Note_on_c, 10, 59, 100
12, 115737, Note_on_c, 10, 59, 0
12, 115740, Note_on_c, 10, 60, 100
12, 115767, Note_on_c, 10, 60, 0
12, 115770, Note_on_c, 10, 62, 100
12, 115797, Note_on_c, 10, 62, 0
12, 116070, Note_on_c, 10, 62, 100
12, 116097, Note_on_c, 10, 62, 0
12, 116100, Note_on_c, 10, 60, 100
12, 116127, Note_on_c, 10, 60, 0
12, 116130, Note_on_c, 10, 59, 100
12, 116157, Note_on_c, 10, 59, 0
12, 116160, Note_on_c, 10, 57, 100
12, 116187, Note_on_c, 10, 57, 0
12, 116190, Note_on_c, 10, 59, 100
12, 116217, Note_on_c, 10, 59, 0
12, 116220, Note_on_c, 10, 60, 100
12, 116247, Note_on_c, 10, 60, 0
12, 116250, Note_on_c, 10, 62, 100
12, 116277, Note_on_c, 10, 62, 0
12, 116550, Note_on_c, 10, 62, 100
12, 116577, Note_on_c, 10, 62, 0
12, 116580, Note_on_c, 10, 60, 100
12, 116607, Note_on_c, 10, 60, 0
12, 116610, Note_on_c, 10, 59, 100
12, 116637, Note_on_c, 10, 59, 0
12, 116640, Note_on_c, 10, 58, 100
12, 116667, Note_on_c, 10, 58, 0
12, 116670, Note_on_c, 10, 59, 100
12, 116697, Note_on_c, 10, 59, 0
12, 116700, Note_on_c, 10, 61, 100
12, 116727, Note_on_c, 10, 61, 0
12, 116730, Note_on_c, 10, 62, 100
12, 116757, Note_on_c, 10, 62, 0
12, 117030, Note_on_c, 10, 62, 100
12, 117057, Note_on_c, 10, 62, 0
12, 117060, Note_on_c, 10, 61, 100
12, 117087, Note_on_c, 10, 61, 0
12, 117090, Note_on_c, 10, 59, 100
12, 117117, Note_on_c, 10, 59, 0
12, 117120, Note_on_c, 10, 58, 100
12, 117147, Note_on_c, 10, 58, 0
12, 117150, Note_on_c, 10, 59, 100
12, 117177, Note_on_c, 10, 59, 0
12, 117180, Note_on_c, 10, 61, 100
12, 117207, Note_on_c, 10, 61, 0
12, 117210, Note_on_c, 10, 62, 100
12, 117237, Note_on_c, 10, 62, 0
12, 117510, Note_on_c, 10, 62, 100
12, 117537, Note_on_c, 10, 62, 0
12, 117540, Note_on_c, 10, 61, 100
12, 117567, Note_on_c, 10, 61, 0
12, 117570, Note_on_c, 10, 59, 100
12, 117597, Note_on_c, 10, 59, 0
12, 117600, Note_on_c, 10, 57, 100
12, 117627, Note_on_c, 10, 57, 0
12, 117630, Note_on_c, 10, 61, 100
12, 117657, Note_on_c, 10, 61, 0
12, 117660, Note_on_c, 10, 62, 100
12, 117687, Note_on_c, 10, 62, 0
12, 117690, Note_on_c, 10, 64, 100
12, 117717, Note_on_c, 10, 64, 0
12, 117960, Note_on_c, 10, 64, 100
12, 117987, Note_on_c, 10, 64, 0
12, 117990, Note_on_c, 10, 62, 100
12, 118017, Note_on_c, 10, 62, 0
12, 118020, Note_on_c, 10, 61, 100
12, 118047, Note_on_c, 10, 61, 0
12, 118050, Note_on_c, 10, 59, 100
12, 118077, Note_on_c, 10, 59, 0
12, 118080, Note_on_c, 10, 57, 100
12, 118107, Note_on_c, 10, 57, 0
12, 118110, Note_on_c, 10, 61, 100
12, 118137, Note_on_c, 10, 61, 0
12, 118140, Note_on_c, 10, 62, 100
12, 118167, Note_on_c, 10, 62, 0
12, 118170, Note_on_c, 10, 64, 100
12, 118197, Note_on_c, 10, 64, 0
12, 118440, Note_on_c, 10, 64, 100
12, 118467, Note_on_c, 10, 64, 0
12, 118470, Note_on_c, 10, 62, 100
12, 118497, Note_on_c, 10, 62, 0
12, 118500, Note_on_c, 10, 61, 100
12, 118527, Note_on_c, 10, 61, 0
12, 118530, Note_on_c, 10, 62, 100
12, 118557, Note_on_c, 10, 62, 0
12, 118560, Note_on_c, 10, 56, 100
12, 118587, Note_on_c, 10, 56, 0
12, 118590, Note_on_c, 10, 57, 100
12, 118617, Note_on_c, 10, 57, 0
12, 118620, Note_on_c, 10, 59, 100
12, 118647, Note_on_c, 10, 59, 0
12, 118650, Note_on_c, 10, 60, 100
12, 118677, Note_on_c, 10, 60, 0
12, 118920, Note_on_c, 10, 59, 100
12, 118947, Note_on_c, 10, 59, 0
12, 118950, Note_on_c, 10, 57, 100
12, 118977, Note_on_c, 10, 57, 0
12, 118980, Note_on_c, 10, 56, 100
12, 119007, Note_on_c, 10, 56, 0
12, 119010, Note_on_c, 10, 59, 100
12, 119037, Note_on_c, 10, 59, 0
12, 119040, Note_on_c, 10, 52, 100
12, 119067, Note_on_c, 10, 52, 0
12, 119070, Note_on_c, 10, 54, 100
12, 119097, Note_on_c, 10, 54, 0
12, 119100, Note_on_c, 10, 56, 100
12, 119127, Note_on_c, 10, 56, 0
12, 119130, Note_on_c, 10, 57, 100
12, 119157, Note_on_c, 10, 57, 0
12, 119400, Note_on_c, 10, 59, 100
12, 119427, Note_on_c, 10, 59, 0
12, 119430, Note_on_c, 10, 57, 100
12, 119457, Note_on_c, 10, 57, 0
12, 119460, Note_on_c, 10, 56, 100
12, 119487, Note_on_c, 10, 56, 0
12, 119490, Note_on_c, 10, 59, 100
12, 119517, Note_on_c, 10, 59, 0
12, 119520, Note_on_c, 10, 52, 100
12, 119547, Note_on_c, 10, 52, 0
12, 119550, Note_on_c, 10, 56, 100
12, 119577, Note_on_c, 10, 56, 0
12, 119580, Note_on_c, 10, 57, 100
12, 119607, Note_on_c, 10, 57, 0
12, 119610, Note_on_c, 10, 59, 100
12, 119637, Note_on_c, 10, 59, 0
12, 119640, Note_on_c, 10, 57, 100
12, 119667, Note_on_c, 10, 57, 0
12, 119670, Note_on_c, 10, 59, 100
12, 119697, Note_on_c, 10, 59, 0
12, 119700, Note_on_c, 10, 61, 100
12, 119727, Note_on_c, 10, 61, 0
12, 119730, Note_on_c, 10, 62, 100
12, 119757, Note_on_c, 10, 62, 0
12, 119760, Note_on_c, 10, 61, 100
12, 119787, Note_on_c, 10, 61, 0
12, 120270, Note_on_c, 10, 57, 100
12, 120297, Note_on_c, 10, 57, 0
12, 120300, Note_on_c, 10, 56, 100
12, 120327, Note_on_c, 10, 56, 0
12, 120330, Note_on_c, 10, 57, 100
12, 120357, Note_on_c, 10, 57, 0
12, 120360, Note_on_c, 10, 53, 100
12, 120387, Note_on_c, 10, 53, 0
12, 120390, Note_on_c, 10, 52, 100
12, 120417, Note_on_c, 10, 52, 0
12, 120420, Note_on_c, 10, 51, 100
12, 120447, Note_on_c, 10, 51, 0
12, 120450, Note_on_c, 10, 52, 100
12, 120477, Note_on_c, 10, 52, 0
12, 120480, Note_on_c, 10, 40, 100
12, 120507, Note_on_c, 10, 40, 0
12, 120510, Note_on_c, 10, 42, 100
12, 120537, Note_on_c, 10, 42, 0
12, 120540, Note_on_c, 10, 44, 100
12, 120567, Note_on_c, 10, 44, 0
12, 120570, Note_on_c, 10, 45, 100
12, 120597, Note_on_c, 10, 45, 0
12, 120600, Note_on_c, 10, 47, 100
12, 120627, Note_on_c, 10, 47, 0
12, 120630, Note_on_c, 10, 48, 100
12, 120657, Note_on_c, 10, 48, 0
12, 120660, Note_on_c, 10, 50, 100
12, 120687, Note_on_c, 10, 50, 0
12, 120690, Note_on_c, 10, 52, 100
12, 120717, Note_on_c, 10, 52, 0
12, 120720, Note_on_c, 10, 53, 100
12, 120747, Note_on_c, 10, 53, 0
12, 120750, Note_on_c, 10, 52, 100
12, 120777, Note_on_c, 10, 52, 0
12, 120780, Note_on_c, 10, 50, 100
12, 120807, Note_on_c, 10, 50, 0
12, 120810, Note_on_c, 10, 52, 100
12, 120837, Note_on_c, 10, 52, 0
12, 120840, Note_on_c, 10, 54, 100
12, 120867, Note_on_c, 10, 54, 0
12, 120870, Note_on_c, 10, 56, 100
12, 120897, Note_on_c, 10, 56, 0
12, 120900, Note_on_c, 10, 57, 100
12, 120927, Note_on_c, 10, 57, 0
12, 120930, Note_on_c, 10, 59, 100
12, 120957, Note_on_c, 10, 59, 0
12, 120960, Note_on_c, 10, 60, 100
12, 120987, Note_on_c, 10, 60, 0
12, 120990, Note_on_c, 10, 57, 100
12, 121017, Note_on_c, 10, 57, 0
12, 121020, Note_on_c, 10, 56, 100
12, 121047, Note_on_c, 10, 56, 0
12, 121050, Note_on_c, 10, 57, 100
12, 121077, Note_on_c, 10, 57, 0
12, 121080, Note_on_c, 10, 51, 100
12, 121107, Note_on_c, 10, 51, 0
12, 121110, Note_on_c, 10, 57, 100
12, 121137, Note_on_c, 10, 57, 0
12, 121140, Note_on_c, 10, 56, 100
12, 121167, Note_on_c, 10, 56, 0
12, 121170, Note_on_c, 10, 57, 100
12, 121197, Note_on_c, 10, 57, 0
12, 121320, Note_on_c, 10, 59, 100
12, 121347, Note_on_c, 10, 59, 0
12, 121350, Note_on_c, 10, 57, 100
12, 121377, Note_on_c, 10, 57, 0
12, 121380, Note_on_c, 10, 56, 100
12, 121407, Note_on_c, 10, 56, 0
12, 121410, Note_on_c, 10, 54, 100
12, 121437, Note_on_c, 10, 54, 0
12, 121440, Note_on_c, 10, 56, 100
12, 121467, Note_on_c, 10, 56, 0
12, 121470, Note_on_c, 10, 53, 100
12, 121497, Note_on_c, 10, 53, 0
12, 121500, Note_on_c, 10, 52, 100
12, 121527, Note_on_c, 10, 52, 0
12, 121530, Note_on_c, 10, 53, 100
12, 121557, Note_on_c, 10, 53, 0
12, 121560, Note_on_c, 10, 50, 100
12, 121587, Note_on_c, 10, 50, 0
12, 121590, Note_on_c, 10, 53, 100
12, 121617, Note_on_c, 10, 53, 0
12, 121620, Note_on_c, 10, 52, 100
12, 121647, Note_on_c, 10, 52, 0
12, 121650, Note_on_c, 10, 53, 100
12, 121677, Note_on_c, 10, 53, 0
12, 121680, Note_on_c, 10, 59, 100
12, 121707, Note_on_c, 10, 59, 0
12, 121710, Note_on_c, 10, 57, 100
12, 121737, Note_on_c, 10, 57, 0
12, 121740, Note_on_c, 10, 56, 100
12, 121767, Note_on_c, 10, 56, 0
12, 121770, Note_on_c, 10, 54, 100
12, 121797, Note_on_c, 10, 54, 0
12, 121800, Note_on_c, 10, 52, 100
12, 121827, Note_on_c, 10, 52, 0
12, 121830, Note_on_c, 10, 50, 100
12, 121857, Note_on_c, 10, 50, 0
12, 121860, Note_on_c, 10, 48, 100
12, 121887, Note_on_c, 10, 48, 0
12, 121890, Note_on_c, 10, 47, 100
12, 121917, Note_on_c, 10, 47, 0
12, 121920, Note_on_c, 10, 48, 100
12, 121920, Note_on_c, 10, 45, 100
12, 122028, Note_on_c, 10, 48, 0
12, 122028, Note_on_c, 10, 45, 0
12, 122040, Note_on_c, 10, 45, 100
12, 122094, Note_on_c, 10, 45, 0
12, 122100, Note_on_c, 10, 47, 100
12, 122154, Note_on_c, 10, 47, 0
12, 122160, Note_on_c, 10, 48, 100
12, 122214, Note_on_c, 10, 48, 0
12, 122220, Note_on_c, 10, 52, 100
12, 122274, Note_on_c, 10, 52, 0
12, 122280, Note_on_c, 10, 50, 100
12, 122334, Note_on_c, 10, 50, 0
12, 122340, Note_on_c, 10, 47, 100
12, 122394, Note_on_c, 10, 47, 0
12, 122400, Note_on_c, 10, 48, 100
12, 122454, Note_on_c, 10, 48, 0
12, 122460, Note_on_c, 10, 45, 100
12, 122514, Note_on_c, 10, 45, 0
12, 122520, Note_on_c, 10, 57, 100
12, 122520, Note_on_c, 10, 48, 100
12, 122574, Note_on_c, 10, 57, 0
12, 122574, Note_on_c, 10, 48, 0
12, 122580, Note_on_c, 10, 59, 100
12, 122580, Note_on_c, 10, 52, 100
12, 122634, Note_on_c, 10, 59, 0
12, 122634, Note_on_c, 10, 52, 0
12, 122640, Note_on_c, 10, 60, 100
12, 122640, Note_on_c, 10, 57, 100
12, 122676, Note_on_c, 10, 60, 0
12, 122676, Note_on_c, 10, 57, 0
12, 122680, Note_on_c, 10, 59, 100
12, 122680, Note_on_c, 10, 59, 100
12, 122716, Note_on_c, 10, 59, 0
12, 122716, Note_on_c, 10, 59, 0
12, 122720, Note_on_c, 10, 64, 100
12, 122720, Note_on_c, 10, 60, 100
12, 122756, Note_on_c, 10, 64, 0
12, 122756, Note_on_c, 10, 60, 0
12, 122760, Note_on_c, 10, 62, 100
12, 122760, Note_on_c, 10, 59, 100
12, 122796, Note_on_c, 10, 62, 0
12, 122796, Note_on_c, 10, 59, 0
12, 122800, Note_on_c, 10, 57, 100
12, 122800, Note_on_c, 10, 57, 100
12, 122836, Note_on_c, 10, 57, 0
12, 122836, Note_on_c, 10, 57, 0
12, 122840, Note_on_c, 10, 59, 100
12, 122840, Note_on_c, 10, 56, 100
12, 122876, Note_on_c, 10, 59, 0
12, 122876, Note_on_c, 10, 56, 0
12, 122880, Note_on_c, 10, 60, 100
12, 122880, Note_on_c, 10, 57, 100
12, 122934, Note_on_c, 10, 60, 0
12, 122940, Note_on_c, 10, 57, 100
12, 122988, Note_on_c, 10, 57, 0
12, 122988, Note_on_c, 10, 57, 0
12, 123000, Note_on_c, 10, 60, 100
12, 123054, Note_on_c, 10, 60, 0
12, 123060, Note_on_c, 10, 64, 100
12, 123114, Note_on_c, 10, 64, 0
12, 123480, Note_on_c, 10, 57, 100
12, 123534, Note_on_c, 10, 57, 0
12, 123540, Note_on_c, 10, 59, 100
12, 123594, Note_on_c, 10, 59, 0
12, 123600, Note_on_c, 10, 60, 100
12, 123654, Note_on_c, 10, 60, 0
12, 123660, Note_on_c, 10, 64, 100
12, 123714, Note_on_c, 10, 64, 0
12, 123720, Note_on_c, 10, 62, 100
12, 123774, Note_on_c, 10, 62, 0
12, 123780, Note_on_c, 10, 59, 100
12, 123834, Note_on_c, 10, 59, 0
12, 123840, Note_on_c, 10, 60, 100
12, 123876, Note_on_c, 10, 60, 0
12, 123880, Note_on_c, 10, 52, 100
12, 123916, Note_on_c, 10, 52, 0
12, 123920, Note_on_c, 10, 54, 100
12, 123956, Note_on_c, 10, 54, 0
12, 123960, Note_on_c, 10, 56, 100
12, 123996, Note_on_c, 10, 56, 0
12, 124000, Note_on_c, 10, 57, 100
12, 124036, Note_on_c, 10, 57, 0
12, 124040, Note_on_c, 10, 59, 100
12, 124076, Note_on_c, 10, 59, 0
12, 124080, Note_on_c, 10, 60, 100
12, 124116, Note_on_c, 10, 60, 0
12, 124120, Note_on_c, 10, 59, 100
12, 124156, Note_on_c, 10, 59, 0
12, 124160, Note_on_c, 10, 57, 100
12, 124196, Note_on_c, 10, 57, 0
12, 124440, Note_on_c, 10, 61, 100
12, 124440, Note_on_c, 10, 64, 100
12, 124440, Note_on_c, 10, 57, 100
12, 124548, Note_on_c, 10, 61, 0
12, 124548, Note_on_c, 10, 64, 0
12, 124548, Note_on_c, 10, 57, 0
12, 124560, Note_on_c, 10, 61, 100
12, 124560, Note_on_c, 10, 64, 100
12, 124560, Note_on_c, 10, 57, 100
12, 124668, Note_on_c, 10, 61, 0
12, 124668, Note_on_c, 10, 64, 0
12, 124668, Note_on_c, 10, 57, 0
12, 124680, Note_on_c, 10, 61, 100
12, 124680, Note_on_c, 10, 64, 100
12, 124680, Note_on_c, 10, 57, 100
12, 124788, Note_on_c, 10, 61, 0
12, 124788, Note_on_c, 10, 64, 0
12, 124788, Note_on_c, 10, 57, 0
12, 124800, Note_on_c, 10, 62, 100
12, 124800, Note_on_c, 10, 62, 100
12, 124836, Note_on_c, 10, 62, 0
12, 124836, Note_on_c, 10, 62, 0
12, 124840, Note_on_c, 10, 60, 100
12, 124876, Note_on_c, 10, 60, 0
12, 124880, Note_on_c, 10, 59, 100
12, 124916, Note_on_c, 10, 59, 0
12, 124920, Note_on_c, 10, 57, 100
12, 124956, Note_on_c, 10, 57, 0
12, 124960, Note_on_c, 10, 59, 100
12, 124996, Note_on_c, 10, 59, 0
12, 125000, Note_on_c, 10, 60, 100
12, 125036, Note_on_c, 10, 60, 0
12, 125040, Note_on_c, 10, 59, 100
12, 125076, Note_on_c, 10, 59, 0
12, 125080, Note_on_c, 10, 57, 100
12, 125116, Note_on_c, 10, 57, 0
12, 125120, Note_on_c, 10, 55, 100
12, 125156, Note_on_c, 10, 55, 0
12, 125160, Note_on_c, 10, 62, 100
12, 125196, Note_on_c, 10, 62, 0
12, 125200, Note_on_c, 10, 60, 100
12, 125236, Note_on_c, 10, 60, 0
12, 125240, Note_on_c, 10, 59, 100
12, 125276, Note_on_c, 10, 59, 0
12, 125400, Note_on_c, 10, 59, 100
12, 125400, Note_on_c, 10, 62, 100
12, 125400, Note_on_c, 10, 55, 100
12, 125508, Note_on_c, 10, 59, 0
12, 125508, Note_on_c, 10, 62, 0
12, 125508, Note_on_c, 10, 55, 0
12, 125520, Note_on_c, 10, 59, 100
12, 125520, Note_on_c, 10, 62, 100
12, 125520, Note_on_c, 10, 55, 100
12, 125628, Note_on_c, 10, 59, 0
12, 125628, Note_on_c, 10, 62, 0
12, 125628, Note_on_c, 10, 55, 0
12, 125640, Note_on_c, 10, 59, 100
12, 125640, Note_on_c, 10, 62, 100
12, 125640, Note_on_c, 10, 55, 100
12, 125748, Note_on_c, 10, 59, 0
12, 125748, Note_on_c, 10, 62, 0
12, 125748, Note_on_c, 10, 55, 0
12, 125760, Note_on_c, 10, 60, 100
12, 125796, Note_on_c, 10, 60, 0
12, 125800, Note_on_c, 10, 59, 100
12, 125836, Note_on_c, 10, 59, 0
12, 125840, Note_on_c, 10, 57, 100
12, 125876, Note_on_c, 10, 57, 0
12, 125880, Note_on_c, 10, 56, 100
12, 125916, Note_on_c, 10, 56, 0
12, 125920, Note_on_c, 10, 57, 100
12, 125956, Note_on_c, 10, 57, 0
12, 125960, Note_on_c, 10, 59, 100
12, 125996, Note_on_c, 10, 59, 0
12, 126000, Note_on_c, 10, 57, 100
12, 126036, Note_on_c, 10, 57, 0
12, 126040, Note_on_c, 10, 55, 100
12, 126076, Note_on_c, 10, 55, 0
12, 126080, Note_on_c, 10, 53, 100
12, 126116, Note_on_c, 10, 53, 0
12, 126120, Note_on_c, 10, 52, 100
12, 126156, Note_on_c, 10, 52, 0
12, 126160, Note_on_c, 10, 53, 100
12, 126196, Note_on_c, 10, 53, 0
12, 126200, Note_on_c, 10, 55, 100
12, 126236, Note_on_c, 10, 55, 0
12, 126240, Note_on_c, 10, 53, 100
12, 126276, Note_on_c, 10, 53, 0
12, 126280, Note_on_c, 10, 52, 100
12, 126316, Note_on_c, 10, 52, 0
12, 126320, Note_on_c, 10, 50, 100
12, 126356, Note_on_c, 10, 50, 0
12, 126360, Note_on_c, 10, 49, 100
12, 126396, Note_on_c, 10, 49, 0
12, 126400, Note_on_c, 10, 50, 100
12, 126436, Note_on_c, 10, 50, 0
12, 126440, Note_on_c, 10, 52, 100
12, 126476, Note_on_c, 10, 52, 0
12, 126480, Note_on_c, 10, 50, 100
12, 126516, Note_on_c, 10, 50, 0
12, 126520, Note_on_c, 10, 48, 100
12, 126556, Note_on_c, 10, 48, 0
12, 126560, Note_on_c, 10, 47, 100
12, 126596, Note_on_c, 10, 47, 0
12, 126600, Note_on_c, 10, 45, 100
12, 126636, Note_on_c, 10, 45, 0
12, 126640, Note_on_c, 10, 47, 100
12, 126676, Note_on_c, 10, 47, 0
12, 126680, Note_on_c, 10, 48, 100
12, 126716, Note_on_c, 10, 48, 0
12, 126720, Note_on_c, 10, 44, 100
12, 126720, Note_on_c, 10, 47, 100
12, 126720, Note_on_c, 10, 52, 100
12, 126720, Note_on_c, 10, 40, 100
12, 126936, Note_on_c, 10, 44, 0
12, 126936, Note_on_c, 10, 47, 0
12, 126936, Note_on_c, 10, 52, 0
12, 126936, Note_on_c, 10, 40, 0
12, 127080, Note_on_c, 10, 52, 100
12, 127080, Note_on_c, 10, 40, 100
12, 127161, Note_on_c, 10, 52, 0
12, 127161, Note_on_c, 10, 40, 0
12, 127170, Note_on_c, 10, 52, 100
12, 127170, Note_on_c, 10, 40, 100
12, 127197, Note_on_c, 10, 52, 0
12, 127197, Note_on_c, 10, 40, 0
12, 127200, Note_on_c, 10, 47, 100
12, 127200, Note_on_c, 10, 52, 100
12, 127200, Note_on_c, 10, 40, 100
12, 127416, Note_on_c, 10, 47, 0
12, 127416, Note_on_c, 10, 52, 0
12, 127416, Note_on_c, 10, 40, 0
12, 127560, Note_on_c, 10, 52, 100
12, 127560, Note_on_c, 10, 40, 100
12, 127641, Note_on_c, 10, 52, 0
12, 127641, Note_on_c, 10, 40, 0
12, 127650, Note_on_c, 10, 52, 100
12, 127650, Note_on_c, 10, 40, 100
12, 127677, Note_on_c, 10, 52, 0
12, 127677, Note_on_c, 10, 40, 0
12, 127680, Note_on_c, 10, 44, 100
12, 127680, Note_on_c, 10, 47, 100
12, 127680, Note_on_c, 10, 52, 100
12, 127680, Note_on_c, 10, 40, 100
12, 127896, Note_on_c, 10, 44, 0
12, 127896, Note_on_c, 10, 47, 0
12, 127896, Note_on_c, 10, 52, 0
12, 127896, Note_on_c, 10, 40, 0
12, 128040, Note_on_c, 10, 52, 100
12, 128040, Note_on_c, 10, 40, 100
12, 128121, Note_on_c, 10, 52, 0
12, 128121, Note_on_c, 10, 40, 0
12, 128130, Note_on_c, 10, 52, 100
12, 128130, Note_on_c, 10, 40, 100
12, 128157, Note_on_c, 10, 52, 0
12, 128157, Note_on_c, 10, 40, 0
12, 128160, Note_on_c, 10, 47, 100
12, 128160, Note_on_c, 10, 52, 100
12, 128160, Note_on_c, 10, 40, 100
12, 128376, Note_on_c, 10, 47, 0
12, 128376, Note_on_c, 10, 52, 0
12, 128376, Note_on_c, 10, 40, 0
12, 128560, Note_on_c, 10, 56, 100
12, 128596, Note_on_c, 10, 56, 0
12, 128600, Note_on_c, 10, 57, 100
12, 128636, Note_on_c, 10, 57, 0
12, 128640, Note_on_c, 10, 59, 100
12, 128676, Note_on_c, 10, 59, 0
12, 128680, Note_on_c, 10, 60, 100
12, 128716, Note_on_c, 10, 60, 0
12, 128720, Note_on_c, 10, 62, 100
12, 128756, Note_on_c, 10, 62, 0
12, 128760, Note_on_c, 10, 60, 100
12, 128796, Note_on_c, 10, 60, 0
12, 128800, Note_on_c, 10, 59, 100
12, 128836, Note_on_c, 10, 59, 0
12, 128840, Note_on_c, 10, 57, 100
12, 128876, Note_on_c, 10, 57, 0
12, 128880, Note_on_c, 10, 59, 100
12, 128916, Note_on_c, 10, 59, 0
12, 128920, Note_on_c, 10, 57, 100
12, 128956, Note_on_c, 10, 57, 0
12, 128960, Note_on_c, 10, 56, 100
12, 128996, Note_on_c, 10, 56, 0
12, 129000, Note_on_c, 10, 57, 100
12, 129036, Note_on_c, 10, 57, 0
12, 129040, Note_on_c, 10, 59, 100
12, 129076, Note_on_c, 10, 59, 0
12, 129080, Note_on_c, 10, 60, 100
12, 129116, Note_on_c, 10, 60, 0
12, 129120, Note_on_c, 10, 59, 100
12, 129156, Note_on_c, 10, 59, 0
12, 129160, Note_on_c, 10, 57, 100
12, 129196, Note_on_c, 10, 57, 0
12, 129200, Note_on_c, 10, 56, 100
12, 129236, Note_on_c, 10, 56, 0
12, 129240, Note_on_c, 10, 57, 100
12, 129276, Note_on_c, 10, 57, 0
12, 129280, Note_on_c, 10, 56, 100
12, 129316, Note_on_c, 10, 56, 0
12, 129320, Note_on_c, 10, 54, 100
12, 129356, Note_on_c, 10, 54, 0
12, 129360, Note_on_c, 10, 56, 100
12, 129396, Note_on_c, 10, 56, 0
12, 129400, Note_on_c, 10, 57, 100
12, 129436, Note_on_c, 10, 57, 0
12, 129440, Note_on_c, 10, 59, 100
12, 129476, Note_on_c, 10, 59, 0
12, 129480, Note_on_c, 10, 57, 100
12, 129516, Note_on_c, 10, 57, 0
12, 129520, Note_on_c, 10, 56, 100
12, 129556, Note_on_c, 10, 56, 0
12, 129560, Note_on_c, 10, 54, 100
12, 129596, Note_on_c, 10, 54, 0
12, 129600, Note_on_c, 10, 56, 100
12, 129636, Note_on_c, 10, 56, 0
12, 129640, Note_on_c, 10, 54, 100
12, 129676, Note_on_c, 10, 54, 0
12, 129680, Note_on_c, 10, 52, 100
12, 129716, Note_on_c, 10, 52, 0
12, 129720, Note_on_c, 10, 50, 100
12, 129756, Note_on_c, 10, 50, 0
12, 129760, Note_on_c, 10, 52, 100
12, 129796, Note_on_c, 10, 52, 0
12, 129800, Note_on_c, 10, 53, 100
12, 129836, Note_on_c, 10, 53, 0
12, 129840, Note_on_c, 10, 47, 100
12, 129876, Note_on_c, 10, 47, 0
12, 129880, Note_on_c, 10, 48, 100
12, 129916, Note_on_c, 10, 48, 0
12, 129920, Note_on_c, 10, 50, 100
12, 129956, Note_on_c, 10, 50, 0
12, 129960, Note_on_c, 10, 44, 100
12, 129996, Note_on_c, 10, 44, 0
12, 130000, Note_on_c, 10, 45, 100
12, 130036, Note_on_c, 10, 45, 0
12, 130040, Note_on_c, 10, 47, 100
12, 130076, Note_on_c, 10, 47, 0
12, 130080, Note_on_c, 10, 36, 100
12, 130161, Note_on_c, 10, 36, 0
12, 130170, Note_on_c, 10, 48, 100
12, 130179, Note_on_c, 10, 48, 0
12, 130180, Note_on_c, 10, 50, 100
12, 130189, Note_on_c, 10, 50, 0
12, 130190, Note_on_c, 10, 52, 100
12, 130199, Note_on_c, 10, 52, 0
12, 130200, Note_on_c, 10, 53, 100
12, 130236, Note_on_c, 10, 53, 0
12, 130240, Note_on_c, 10, 52, 100
12, 130276, Note_on_c, 10, 52, 0
12, 130280, Note_on_c, 10, 50, 100
12, 130316, Note_on_c, 10, 50, 0
12, 130320, Note_on_c, 10, 52, 100
12, 130356, Note_on_c, 10, 52, 0
12, 130360, Note_on_c, 10, 50, 100
12, 130396, Note_on_c, 10, 50, 0
12, 130400, Note_on_c, 10, 48, 100
12, 130436, Note_on_c, 10, 48, 0
12, 130440, Note_on_c, 10, 50, 100
12, 130476, Note_on_c, 10, 50, 0
12, 130480, Note_on_c, 10, 48, 100
12, 130516, Note_on_c, 10, 48, 0
12, 130520, Note_on_c, 10, 47, 100
12, 130556, Note_on_c, 10, 47, 0
12, 130560, Note_on_c, 10, 49, 100
12, 130776, Note_on_c, 10, 49, 0
12, 130840, Note_on_c, 10, 49, 100
12, 130876, Note_on_c, 10, 49, 0
12, 130880, Note_on_c, 10, 50, 100
12, 130916, Note_on_c, 10, 50, 0
12, 130920, Note_on_c, 10, 52, 100
12, 130956, Note_on_c, 10, 52, 0
12, 130960, Note_on_c, 10, 50, 100
12, 130996, Note_on_c, 10, 50, 0
12, 131000, Note_on_c, 10, 49, 100
12, 131036, Note_on_c, 10, 49, 0
12, 131040, Note_on_c, 10, 50, 100
12, 131076, Note_on_c, 10, 50, 0
12, 131080, Note_on_c, 10, 52, 100
12, 131116, Note_on_c, 10, 52, 0
12, 131120, Note_on_c, 10, 53, 100
12, 131156, Note_on_c, 10, 53, 0
12, 131160, Note_on_c, 10, 52, 100
12, 131196, Note_on_c, 10, 52, 0
12, 131200, Note_on_c, 10, 50, 100
12, 131236, Note_on_c, 10, 50, 0
12, 131240, Note_on_c, 10, 49, 100
12, 131276, Note_on_c, 10, 49, 0
12, 131280, Note_on_c, 10, 50, 100
12, 131316, Note_on_c, 10, 50, 0
12, 131320, Note_on_c, 10, 48, 100
12, 131356, Note_on_c, 10, 48, 0
12, 131360, Note_on_c, 10, 47, 100
12, 131396, Note_on_c, 10, 47, 0
12, 131400, Note_on_c, 10, 48, 100
12, 131436, Note_on_c, 10, 48, 0
12, 131440, Note_on_c, 10, 47, 100
12, 131476, Note_on_c, 10, 47, 0
12, 131480, Note_on_c, 10, 45, 100
12, 131516, Note_on_c, 10, 45, 0
12, 131520, Note_on_c, 10, 53, 100
12, 131556, Note_on_c, 10, 53, 0
12, 131560, Note_on_c, 10, 52, 100
12, 131596, Note_on_c, 10, 52, 0
12, 131600, Note_on_c, 10, 50, 100
12, 131636, Note_on_c, 10, 50, 0
12, 131640, Note_on_c, 10, 47, 100
12, 131676, Note_on_c, 10, 47, 0
12, 131680, Note_on_c, 10, 50, 100
12, 131716, Note_on_c, 10, 50, 0
12, 131720, Note_on_c, 10, 52, 100
12, 131756, Note_on_c, 10, 52, 0
12, 131760, Note_on_c, 10, 53, 100
12, 131796, Note_on_c, 10, 53, 0
12, 131800, Note_on_c, 10, 52, 100
12, 131836, Note_on_c, 10, 52, 0
12, 131840, Note_on_c, 10, 50, 100
12, 131876, Note_on_c, 10, 50, 0
12, 131880, Note_on_c, 10, 45, 100
12, 131916, Note_on_c, 10, 45, 0
12, 131920, Note_on_c, 10, 50, 100
12, 131956, Note_on_c, 10, 50, 0
12, 131960, Note_on_c, 10, 52, 100
12, 131996, Note_on_c, 10, 52, 0
12, 132000, Note_on_c, 10, 53, 100
12, 132036, Note_on_c, 10, 53, 0
12, 132040, Note_on_c, 10, 52, 100
12, 132076, Note_on_c, 10, 52, 0
12, 132080, Note_on_c, 10, 50, 100
12, 132116, Note_on_c, 10, 50, 0
12, 132120, Note_on_c, 10, 44, 100
12, 132156, Note_on_c, 10, 44, 0
12, 132160, Note_on_c, 10, 50, 100
12, 132196, Note_on_c, 10, 50, 0
12, 132200, Note_on_c, 10, 52, 100
12, 132236, Note_on_c, 10, 52, 0
12, 132240, Note_on_c, 10, 53, 100
12, 132276, Note_on_c, 10, 53, 0
12, 132280, Note_on_c, 10, 52, 100
12, 132316, Note_on_c, 10, 52, 0
12, 132320, Note_on_c, 10, 50, 100
12, 132356, Note_on_c, 10, 50, 0
12, 132360, Note_on_c, 10, 40, 100
12, 132396, Note_on_c, 10, 40, 0
12, 132400, Note_on_c, 10, 53, 100
12, 132436, Note_on_c, 10, 53, 0
12, 132440, Note_on_c, 10, 52, 100
12, 132476, Note_on_c, 10, 52, 0
12, 132480, Note_on_c, 10, 50, 100
12, 132516, Note_on_c, 10, 50, 0
12, 132520, Note_on_c, 10, 52, 100
12, 132556, Note_on_c, 10, 52, 0
12, 132560, Note_on_c, 10, 53, 100
12, 132596, Note_on_c, 10, 53, 0
12, 132600, Note_on_c, 10, 47, 100
12, 132636, Note_on_c, 10, 47, 0
12, 132640, Note_on_c, 10, 53, 100
12, 132676, Note_on_c, 10, 53, 0
12, 132680, Note_on_c, 10, 52, 100
12, 132716, Note_on_c, 10, 52, 0
12, 132720, Note_on_c, 10, 50, 100
12, 132756, Note_on_c, 10, 50, 0
12, 132760, Note_on_c, 10, 52, 100
12, 132796, Note_on_c, 10, 52, 0
12, 132800, Note_on_c, 10, 53, 100
12, 132836, Note_on_c, 10, 53, 0
12, 132840, Note_on_c, 10, 45, 100
12, 132876, Note_on_c, 10, 45, 0
12, 132880, Note_on_c, 10, 53, 100
12, 132916, Note_on_c, 10, 53, 0
12, 132920, Note_on_c, 10, 52, 100
12, 132956, Note_on_c, 10, 52, 0
12, 132960, Note_on_c, 10, 50, 100
12, 132996, Note_on_c, 10, 50, 0
12, 133000, Note_on_c, 10, 53, 100
12, 133036, Note_on_c, 10, 53, 0
12, 133040, Note_on_c, 10, 52, 100
12, 133076, Note_on_c, 10, 52, 0
12, 133080, Note_on_c, 10, 44, 100
12, 133116, Note_on_c, 10, 44, 0
12, 133120, Note_on_c, 10, 53, 100
12, 133156, Note_on_c, 10, 53, 0
12, 133160, Note_on_c, 10, 52, 100
12, 133196, Note_on_c, 10, 52, 0
12, 133200, Note_on_c, 10, 50, 100
12, 133236, Note_on_c, 10, 50, 0
12, 133240, Note_on_c, 10, 53, 100
12, 133276, Note_on_c, 10, 53, 0
12, 133280, Note_on_c, 10, 52, 100
12, 133316, Note_on_c, 10, 52, 0
12, 133320, Note_on_c, 10, 47, 100
12, 133356, Note_on_c, 10, 47, 0
12, 133360, Note_on_c, 10, 53, 100
12, 133396, Note_on_c, 10, 53, 0
12, 133400, Note_on_c, 10, 52, 100
12, 133436, Note_on_c, 10, 52, 0
12, 133440, Note_on_c, 10, 50, 100
12, 133476, Note_on_c, 10, 50, 0
12, 133480, Note_on_c, 10, 53, 100
12, 133516, Note_on_c, 10, 53, 0
12, 133520, Note_on_c, 10, 50, 100
12, 133556, Note_on_c, 10, 50, 0
12, 133560, Note_on_c, 10, 47, 100
12, 133596, Note_on_c, 10, 47, 0
12, 133600, Note_on_c, 10, 50, 100
12, 133636, Note_on_c, 10, 50, 0
12, 133640, Note_on_c, 10, 47, 100
12, 133676, Note_on_c, 10, 47, 0
12, 133680, Note_on_c, 10, 44, 100
12, 133716, Note_on_c, 10, 44, 0
12, 133720, Note_on_c, 10, 47, 100
12, 133756, Note_on_c, 10, 47, 0
12, 133760, Note_on_c, 10, 44, 100
12, 133796, Note_on_c, 10, 44, 0
12, 133800, Note_on_c, 10, 40, 100
12, 133881, Note_on_c, 10, 40, 0
12, 133890, Note_on_c, 10, 50, 100
12, 133917, Note_on_c, 10, 50, 0
12, 133920, Note_on_c, 10, 48, 100
12, 134028, Note_on_c, 10, 48, 0
12, 134040, Note_on_c, 10, 53, 100
12, 134094, Note_on_c, 10, 53, 0
12, 134100, Note_on_c, 10, 50, 100
12, 134154, Note_on_c, 10, 50, 0
12, 134160, Note_on_c, 10, 52, 100
12, 134268, Note_on_c, 10, 52, 0
12, 134280, Note_on_c, 10, 60, 100
12, 134280, Note_on_c, 10, 40, 100
12, 134307, Note_on_c, 10, 60, 0
12, 134310, Note_on_c, 10, 59, 100
12, 134337, Note_on_c, 10, 59, 0
12, 134340, Note_on_c, 10, 57, 100
12, 134367, Note_on_c, 10, 57, 0
12, 134370, Note_on_c, 10, 56, 100
12, 134388, Note_on_c, 10, 40, 0
12, 134397, Note_on_c, 10, 56, 0
12, 134400, Note_on_c, 10, 57, 100
12, 134400, Note_on_c, 10, 45, 100
12, 134616, Note_on_c, 10, 57, 0
12, 134616, Note_on_c, 10, 45, 0
12, 135000, Note_on_c, 10, 57, 100
12, 135108, Note_on_c, 10, 57, 0
12, 135120, Note_on_c, 10, 48, 100
12, 135228, Note_on_c, 10, 48, 0
12, 135240, Note_on_c, 10, 52, 100
12, 135348, Note_on_c, 10, 52, 0
12, 135360, Note_on_c, 10, 45, 100
12, 135576, Note_on_c, 10, 45, 0
12, 135960, Note_on_c, 10, 57, 100
12, 136014, Note_on_c, 10, 57, 0
12, 136020, Note_on_c, 10, 59, 100
12, 136074, Note_on_c, 10, 59, 0
12, 136080, Note_on_c, 10, 60, 100
12, 136134, Note_on_c, 10, 60, 0
12, 136140, Note_on_c, 10, 64, 100
12, 136194, Note_on_c, 10, 64, 0
12, 136200, Note_on_c, 10, 62, 100
12, 136254, Note_on_c, 10, 62, 0
12, 136260, Note_on_c, 10, 59, 100
12, 136314, Note_on_c, 10, 59, 0
12, 136320, Note_on_c, 10, 60, 100
12, 136356, Note_on_c, 10, 60, 0
12, 136360, Note_on_c, 10, 59, 100
12, 136396, Note_on_c, 10, 59, 0
12, 136400, Note_on_c, 10, 57, 100
12, 136436, Note_on_c, 10, 57, 0
12, 136920, Note_on_c, 10, 60, 100
12, 137028, Note_on_c, 10, 60, 0
12, 137040, Note_on_c, 10, 56, 100
12, 137148, Note_on_c, 10, 56, 0
12, 137160, Note_on_c, 10, 57, 100
12, 137268, Note_on_c, 10, 57, 0
12, 137280, Note_on_c, 10, 52, 100
12, 137388, Note_on_c, 10, 52, 0
12, 137880, Note_on_c, 10, 48, 100
12, 137988, Note_on_c, 10, 48, 0
12, 138000, Note_on_c, 10, 44, 100
12, 138108, Note_on_c, 10, 44, 0
12, 138120, Note_on_c, 10, 45, 100
12, 138228, Note_on_c, 10, 45, 0
12, 138240, Note_on_c, 10, 40, 100
12, 138348, Note_on_c, 10, 40, 0
12, 138360, Note_on_c, 10, 64, 100
12, 138441, Note_on_c, 10, 64, 0
12, 138450, Note_on_c, 10, 62, 100
12, 138477, Note_on_c, 10, 62, 0
12, 138480, Note_on_c, 10, 61, 100
12, 138588, Note_on_c, 10, 61, 0
12, 138600, Note_on_c, 10, 57, 100
12, 138708, Note_on_c, 10, 57, 0
12, 138720, Note_on_c, 10, 50, 100
12, 138828, Note_on_c, 10, 50, 0
12, 138840, Note_on_c, 10, 62, 100
12, 138921, Note_on_c, 10, 62, 0
12, 138930, Note_on_c, 10, 60, 100
12, 138957, Note_on_c, 10, 60, 0
12, 138960, Note_on_c, 10, 59, 100
12, 139068, Note_on_c, 10, 59, 0
12, 139080, Note_on_c, 10, 55, 100
12, 139188, Note_on_c, 10, 55, 0
12, 139200, Note_on_c, 10, 60, 100
12, 139236, Note_on_c, 10, 60, 0
12, 139240, Note_on_c, 10, 59, 100
12, 139276, Note_on_c, 10, 59, 0
12, 139280, Note_on_c, 10, 57, 100
12, 139316, Note_on_c, 10, 57, 0
12, 139320, Note_on_c, 10, 57, 100
12, 139356, Note_on_c, 10, 57, 0
12, 139360, Note_on_c, 10, 55, 100
12, 139396, Note_on_c, 10, 55, 0
12, 139400, Note_on_c, 10, 54, 100
12, 139436, Note_on_c, 10, 54, 0
12, 139440, Note_on_c, 10, 54, 100
12, 139476, Note_on_c, 10, 54, 0
12, 139480, Note_on_c, 10, 55, 100
12, 139516, Note_on_c, 10, 55, 0
12, 139520, Note_on_c, 10, 57, 100
12, 139556, Note_on_c, 10, 57, 0
12, 139560, Note_on_c, 10, 57, 100
12, 139596, Note_on_c, 10, 57, 0
12, 139600, Note_on_c, 10, 59, 100
12, 139636, Note_on_c, 10, 59, 0
12, 139640, Note_on_c, 10, 60, 100
12, 139676, Note_on_c, 10, 60, 0
12, 139680, Note_on_c, 10, 59, 100
12, 139716, Note_on_c, 10, 59, 0
12, 139720, Note_on_c, 10, 57, 100
12, 139756, Note_on_c, 10, 57, 0
12, 139760, Note_on_c, 10, 56, 100
12, 139796, Note_on_c, 10, 56, 0
12, 139800, Note_on_c, 10, 56, 100
12, 139836, Note_on_c, 10, 56, 0
12, 139840, Note_on_c, 10, 54, 100
12, 139876, Note_on_c, 10, 54, 0
12, 139880, Note_on_c, 10, 52, 100
12, 139916, Note_on_c, 10, 52, 0
12, 139920, Note_on_c, 10, 52, 100
12, 139956, Note_on_c, 10, 52, 0
12, 139960, Note_on_c, 10, 54, 100
12, 139996, Note_on_c, 10, 54, 0
12, 140000, Note_on_c, 10, 56, 100
12, 140036, Note_on_c, 10, 56, 0
12, 140040, Note_on_c, 10, 56, 100
12, 140076, Note_on_c, 10, 56, 0
12, 140080, Note_on_c, 10, 57, 100
12, 140116, Note_on_c, 10, 57, 0
12, 140120, Note_on_c, 10, 59, 100
12, 140156, Note_on_c, 10, 59, 0
12, 140160, Note_on_c, 10, 57, 100
12, 140268, Note_on_c, 10, 57, 0
12, 140280, Note_on_c, 10, 50, 100
12, 140388, Note_on_c, 10, 50, 0
12, 140400, Note_on_c, 10, 50, 100
12, 140508, Note_on_c, 10, 50, 0
12, 140520, Note_on_c, 10, 50, 100
12, 140628, Note_on_c, 10, 50, 0
12, 140640, Note_on_c, 10, 38, 100
12, 140748, Note_on_c, 10, 38, 0
12, 140760, Note_on_c, 10, 50, 100
12, 140868, Note_on_c, 10, 50, 0
12, 140880, Note_on_c, 10, 48, 100
12, 140988, Note_on_c, 10, 48, 0
12, 141000, Note_on_c, 10, 47, 100
12, 141108, Note_on_c, 10, 47, 0
12, 141120, Note_on_c, 10, 48, 100
12, 141228, Note_on_c, 10, 48, 0
12, 141240, Note_on_c, 10, 50, 100
12, 141348, Note_on_c, 10, 50, 0
12, 141360, Note_on_c, 10, 52, 100
12, 141468, Note_on_c, 10, 52, 0
12, 141480, Note_on_c, 10, 40, 100
12, 141588, Note_on_c, 10, 40, 0
12, 141600, Note_on_c, 10, 41, 100
12, 141708, Note_on_c, 10, 41, 0
12, 141720, Note_on_c, 10, 38, 100
12, 141828, Note_on_c, 10, 38, 0
12, 141840, Note_on_c, 10, 40, 100
12, 141948, Note_on_c, 10, 40, 0
12, 141960, Note_on_c, 10, 40, 100
12, 142068, Note_on_c, 10, 40, 0
12, 142080, Note_on_c, 10, 45, 100
12, 142296, Note_on_c, 10, 45, 0
12, 142296, End_track
13, 0, Start_track
13, 0, Sequence_number, 65535
13, 0, MIDI_port, 0
13, 0, Title_t, "Cembalo - Hilfstimme"
13, 0, Control_c, 11, 0, 0
13, 0, Control_c, 11, 32, 0
13, 0, Program_c, 11, 6
13, 0, Control_c, 11, 7, 80
13, 0, Control_c, 11, 10, 64
13, 0, End_track
0, 0, End_of_file
