0, 0, Header, 1, 6, 1024
1, 0, Start_track
1, 0, Time_signature, 4, 2, 24, 8
1, 0, Key_signature, 3, "major"
1, 0, Tempo, 1304347
1, 221184, End_track
2, 0, Start_track
2, 0, Title_t, "Instrument 1"
2, 38912, Note_on_c, 0, 69, 96
2, 40064, Note_off_c, 0, 69, 0
2, 40064, Note_on_c, 0, 64, 96
2, 40192, Note_off_c, 0, 64, 0
2, 40192, Note_on_c, 0, 66, 96
2, 40320, Note_off_c, 0, 66, 0
2, 40320, Note_on_c, 0, 68, 96
2, 40448, Note_off_c, 0, 68, 0
2, 40448, Note_on_c, 0, 69, 96
2, 40576, Note_off_c, 0, 69, 0
2, 40576, Note_on_c, 0, 73, 96
2, 40704, Note_off_c, 0, 73, 0
2, 40704, Note_on_c, 0, 71, 96
2, 40832, Note_off_c, 0, 71, 0
2, 40832, Note_on_c, 0, 74, 96
2, 40896, Note_off_c, 0, 74, 0
2, 40896, Note_on_c, 0, 73, 96
2, 40960, Note_off_c, 0, 73, 0
2, 40960, Note_on_c, 0, 73, 96
2, 41600, Note_off_c, 0, 73, 0
2, 41600, Note_on_c, 0, 74, 96
2, 41728, Note_off_c, 0, 74, 0
2, 41728, Note_on_c, 0, 73, 96
2, 41856, Note_off_c, 0, 73, 0
2, 41856, Note_on_c, 0, 74, 96
2, 41984, Note_off_c, 0, 74, 0
2, 41984, Note_on_c, 0, 74, 96
2, 42752, Note_off_c, 0, 74, 0
2, 42752, Note_on_c, 0, 73, 96
2, 42880, Note_off_c, 0, 73, 0
2, 42880, Note_on_c, 0, 74, 96
2, 43008, Note_off_c, 0, 74, 0
2, 43008, Note_on_c, 0, 76, 96
2, 44544, Note_off_c, 0, 76, 0
2, 44544, Note_on_c, 0, 74, 96
2, 44672, Note_off_c, 0, 74, 0
2, 44672, Note_on_c, 0, 73, 96
2, 44800, Note_off_c, 0, 73, 0
2, 44800, Note_on_c, 0, 71, 96
2, 44928, Note_off_c, 0, 71, 0
2, 44928, Note_on_c, 0, 74, 96
2, 44992, Note_off_c, 0, 74, 0
2, 44992, Note_on_c, 0, 73, 96
2, 45056, Note_off_c, 0, 73, 0
2, 45056, Note_on_c, 0, 73, 96
2, 45824, Note_off_c, 0, 73, 0
2, 45824, Note_on_c, 0, 74, 96
2, 46080, Note_off_c, 0, 74, 0
2, 46080, Note_on_c, 0, 71, 96
2, 46848, Note_off_c, 0, 71, 0
2, 46848, Note_on_c, 0, 69, 96
2, 46976, Note_off_c, 0, 69, 0
2, 46976, Note_on_c, 0, 71, 96
2, 47104, Note_off_c, 0, 71, 0
2, 47104, Note_on_c, 0, 73, 96
2, 49152, Note_off_c, 0, 73, 0
2, 51200, Note_on_c, 0, 73, 96
2, 52736, Note_off_c, 0, 73, 0
2, 52736, Note_on_c, 0, 74, 96
2, 52992, Note_off_c, 0, 74, 0
2, 52992, Note_on_c, 0, 73, 96
2, 53248, Note_off_c, 0, 73, 0
2, 53248, Note_on_c, 0, 73, 96
2, 54272, Note_off_c, 0, 73, 0
2, 54272, Note_on_c, 0, 71, 96
2, 54400, Note_off_c, 0, 71, 0
2, 54400, Note_on_c, 0, 69, 96
2, 54528, Note_off_c, 0, 69, 0
2, 54528, Note_on_c, 0, 71, 96
2, 54656, Note_off_c, 0, 71, 0
2, 54656, Note_on_c, 0, 73, 96
2, 54784, Note_off_c, 0, 73, 0
2, 54784, Note_on_c, 0, 74, 96
2, 54912, Note_off_c, 0, 74, 0
2, 54912, Note_on_c, 0, 73, 96
2, 55040, Note_off_c, 0, 73, 0
2, 55040, Note_on_c, 0, 76, 96
2, 55168, Note_off_c, 0, 76, 0
2, 55168, Note_on_c, 0, 74, 96
2, 55296, Note_off_c, 0, 74, 0
2, 55296, Note_on_c, 0, 74, 96
2, 55808, Note_off_c, 0, 74, 0
2, 55808, Note_on_c, 0, 73, 96
2, 56320, Note_off_c, 0, 73, 0
2, 56320, Note_on_c, 0, 71, 96
2, 57344, Note_off_c, 0, 71, 0
2, 57344, Note_on_c, 0, 69, 96
2, 58496, Note_off_c, 0, 69, 0
2, 58496, Note_on_c, 0, 68, 96
2, 58624, Note_off_c, 0, 68, 0
2, 58624, Note_on_c, 0, 66, 96
2, 58752, Note_off_c, 0, 66, 0
2, 58752, Note_on_c, 0, 68, 96
2, 58880, Note_off_c, 0, 68, 0
2, 58880, Note_on_c, 0, 69, 96
2, 59136, Note_off_c, 0, 69, 0
2, 59136, Note_on_c, 0, 71, 96
2, 59264, Note_off_c, 0, 71, 0
2, 59264, Note_on_c, 0, 73, 96
2, 59392, Note_off_c, 0, 73, 0
2, 59392, Note_on_c, 0, 74, 96
2, 59563, Note_off_c, 0, 74, 0
2, 59563, Note_on_c, 0, 76, 96
2, 59733, Note_off_c, 0, 76, 0
2, 59733, Note_on_c, 0, 78, 96
2, 59904, Note_off_c, 0, 78, 0
2, 59904, Note_on_c, 0, 76, 96
2, 60075, Note_off_c, 0, 76, 0
2, 60075, Note_on_c, 0, 74, 96
2, 60245, Note_off_c, 0, 74, 0
2, 60245, Note_on_c, 0, 73, 96
2, 60416, Note_off_c, 0, 73, 0
2, 60416, Note_on_c, 0, 71, 96
2, 61184, Note_off_c, 0, 71, 0
2, 61184, Note_on_c, 0, 69, 96
2, 61312, Note_off_c, 0, 69, 0
2, 61312, Note_on_c, 0, 71, 96
2, 61440, Note_off_c, 0, 71, 0
2, 61440, Note_on_c, 0, 69, 96
2, 68608, Note_off_c, 0, 69, 0
2, 104448, Note_on_c, 0, 69, 96
2, 105600, Note_off_c, 0, 69, 0
2, 105600, Note_on_c, 0, 64, 96
2, 105728, Note_off_c, 0, 64, 0
2, 105728, Note_on_c, 0, 66, 96
2, 105856, Note_off_c, 0, 66, 0
2, 105856, Note_on_c, 0, 68, 96
2, 105984, Note_off_c, 0, 68, 0
2, 105984, Note_on_c, 0, 69, 96
2, 106112, Note_off_c, 0, 69, 0
2, 106112, Note_on_c, 0, 73, 96
2, 106240, Note_off_c, 0, 73, 0
2, 106240, Note_on_c, 0, 71, 96
2, 106368, Note_off_c, 0, 71, 0
2, 106368, Note_on_c, 0, 74, 96
2, 106432, Note_off_c, 0, 74, 0
2, 106432, Note_on_c, 0, 73, 96
2, 106496, Note_off_c, 0, 73, 0
2, 106496, Note_on_c, 0, 73, 96
2, 107136, Note_off_c, 0, 73, 0
2, 107136, Note_on_c, 0, 74, 96
2, 107264, Note_off_c, 0, 74, 0
2, 107264, Note_on_c, 0, 73, 96
2, 107392, Note_off_c, 0, 73, 0
2, 107392, Note_on_c, 0, 74, 96
2, 107520, Note_off_c, 0, 74, 0
2, 107520, Note_on_c, 0, 74, 96
2, 108288, Note_off_c, 0, 74, 0
2, 108288, Note_on_c, 0, 73, 96
2, 108416, Note_off_c, 0, 73, 0
2, 108416, Note_on_c, 0, 74, 96
2, 108544, Note_off_c, 0, 74, 0
2, 108544, Note_on_c, 0, 76, 96
2, 110080, Note_off_c, 0, 76, 0
2, 110080, Note_on_c, 0, 74, 96
2, 110208, Note_off_c, 0, 74, 0
2, 110208, Note_on_c, 0, 73, 96
2, 110336, Note_off_c, 0, 73, 0
2, 110336, Note_on_c, 0, 71, 96
2, 110464, Note_off_c, 0, 71, 0
2, 110464, Note_on_c, 0, 74, 96
2, 110528, Note_off_c, 0, 74, 0
2, 110528, Note_on_c, 0, 73, 96
2, 110592, Note_off_c, 0, 73, 0
2, 110592, Note_on_c, 0, 73, 96
2, 111360, Note_off_c, 0, 73, 0
2, 111360, Note_on_c, 0, 74, 96
2, 111616, Note_off_c, 0, 74, 0
2, 111616, Note_on_c, 0, 71, 96
2, 112384, Note_off_c, 0, 71, 0
2, 112384, Note_on_c, 0, 69, 96
2, 112512, Note_off_c, 0, 69, 0
2, 112512, Note_on_c, 0, 71, 96
2, 112640, Note_off_c, 0, 71, 0
2, 112640, Note_on_c, 0, 73, 96
2, 114688, Note_off_c, 0, 73, 0
2, 116736, Note_on_c, 0, 73, 96
2, 118272, Note_off_c, 0, 73, 0
2, 118272, Note_on_c, 0, 74, 96
2, 118528, Note_off_c, 0, 74, 0
2, 118528, Note_on_c, 0, 73, 96
2, 118784, Note_off_c, 0, 73, 0
2, 118784, Note_on_c, 0, 73, 96
2, 119808, Note_off_c, 0, 73, 0
2, 119808, Note_on_c, 0, 71, 96
2, 119936, Note_off_c, 0, 71, 0
2, 119936, Note_on_c, 0, 69, 96
2, 120064, Note_off_c, 0, 69, 0
2, 120064, Note_on_c, 0, 71, 96
2, 120192, Note_off_c, 0, 71, 0
2, 120192, Note_on_c, 0, 73, 96
2, 120320, Note_off_c, 0, 73, 0
2, 120320, Note_on_c, 0, 74, 96
2, 120448, Note_off_c, 0, 74, 0
2, 120448, Note_on_c, 0, 73, 96
2, 120576, Note_off_c, 0, 73, 0
2, 120576, Note_on_c, 0, 76, 96
2, 120704, Note_off_c, 0, 76, 0
2, 120704, Note_on_c, 0, 74, 96
2, 120832, Note_off_c, 0, 74, 0
2, 120832, Note_on_c, 0, 74, 96
2, 121344, Note_off_c, 0, 74, 0
2, 121344, Note_on_c, 0, 73, 96
2, 121856, Note_off_c, 0, 73, 0
2, 121856, Note_on_c, 0, 71, 96
2, 122880, Note_off_c, 0, 71, 0
2, 122880, Note_on_c, 0, 69, 96
2, 124032, Note_off_c, 0, 69, 0
2, 124032, Note_on_c, 0, 68, 96
2, 124160, Note_off_c, 0, 68, 0
2, 124160, Note_on_c, 0, 66, 96
2, 124288, Note_off_c, 0, 66, 0
2, 124288, Note_on_c, 0, 68, 96
2, 124416, Note_off_c, 0, 68, 0
2, 124416, Note_on_c, 0, 69, 96
2, 124672, Note_off_c, 0, 69, 0
2, 124672, Note_on_c, 0, 71, 96
2, 124800, Note_off_c, 0, 71, 0
2, 124800, Note_on_c, 0, 73, 96
2, 124928, Note_off_c, 0, 73, 0
2, 124928, Note_on_c, 0, 74, 96
2, 125099, Note_off_c, 0, 74, 0
2, 125099, Note_on_c, 0, 76, 96
2, 125269, Note_off_c, 0, 76, 0
2, 125269, Note_on_c, 0, 78, 96
2, 125440, Note_off_c, 0, 78, 0
2, 125440, Note_on_c, 0, 76, 96
2, 125611, Note_off_c, 0, 76, 0
2, 125611, Note_on_c, 0, 74, 96
2, 125781, Note_off_c, 0, 74, 0
2, 125781, Note_on_c, 0, 73, 96
2, 125952, Note_off_c, 0, 73, 0
2, 125952, Note_on_c, 0, 71, 96
2, 126720, Note_off_c, 0, 71, 0
2, 126720, Note_on_c, 0, 69, 96
2, 126848, Note_off_c, 0, 69, 0
2, 126848, Note_on_c, 0, 71, 96
2, 126976, Note_off_c, 0, 71, 0
2, 126976, Note_on_c, 0, 69, 96
2, 134144, Note_off_c, 0, 69, 0
2, 153600, Note_on_c, 0, 69, 96
2, 155648, Note_off_c, 0, 69, 0
2, 155648, Note_on_c, 0, 69, 96
2, 155904, Note_off_c, 0, 69, 0
2, 155904, Note_on_c, 0, 71, 96
2, 156032, Note_off_c, 0, 71, 0
2, 156032, Note_on_c, 0, 69, 96
2, 156160, Note_off_c, 0, 69, 0
2, 156160, Note_on_c, 0, 68, 96
2, 156416, Note_off_c, 0, 68, 0
2, 156416, Note_on_c, 0, 69, 96
2, 156672, Note_off_c, 0, 69, 0
2, 156672, Note_on_c, 0, 71, 96
2, 156800, Note_off_c, 0, 71, 0
2, 156800, Note_on_c, 0, 73, 96
2, 156928, Note_off_c, 0, 73, 0
2, 156928, Note_on_c, 0, 71, 96
2, 157056, Note_off_c, 0, 71, 0
2, 157056, Note_on_c, 0, 73, 96
2, 157184, Note_off_c, 0, 73, 0
2, 157184, Note_on_c, 0, 73, 96
2, 157568, Note_off_c, 0, 73, 0
2, 157568, Note_on_c, 0, 71, 96
2, 157632, Note_off_c, 0, 71, 0
2, 157632, Note_on_c, 0, 73, 96
2, 157696, Note_off_c, 0, 73, 0
2, 157696, Note_on_c, 0, 74, 96
2, 158720, Note_off_c, 0, 74, 0
2, 158720, Note_on_c, 0, 73, 96
2, 159360, Note_off_c, 0, 73, 0
2, 159360, Note_on_c, 0, 76, 96
2, 159488, Note_off_c, 0, 76, 0
2, 159488, Note_on_c, 0, 74, 96
2, 159616, Note_off_c, 0, 74, 0
2, 159616, Note_on_c, 0, 73, 96
2, 159744, Note_off_c, 0, 73, 0
2, 159744, Note_on_c, 0, 71, 96
2, 160000, Note_off_c, 0, 71, 0
2, 160000, Note_on_c, 0, 70, 96
2, 160256, Note_off_c, 0, 70, 0
2, 160256, Note_on_c, 0, 71, 96
2, 161024, Note_off_c, 0, 71, 0
2, 161024, Note_on_c, 0, 73, 96
2, 161152, Note_off_c, 0, 73, 0
2, 161152, Note_on_c, 0, 74, 96
2, 161280, Note_off_c, 0, 74, 0
2, 161280, Note_on_c, 0, 73, 96
2, 161408, Note_off_c, 0, 73, 0
2, 161408, Note_on_c, 0, 71, 96
2, 161536, Note_off_c, 0, 71, 0
2, 161536, Note_on_c, 0, 70, 96
2, 161792, Note_off_c, 0, 70, 0
2, 161792, Note_on_c, 0, 71, 96
2, 162816, Note_off_c, 0, 71, 0
2, 169984, Note_on_c, 0, 71, 96
2, 171520, Note_off_c, 0, 71, 0
2, 171520, Note_on_c, 0, 73, 96
2, 171648, Note_off_c, 0, 73, 0
2, 171648, Note_on_c, 0, 71, 96
2, 171776, Note_off_c, 0, 71, 0
2, 171776, Note_on_c, 0, 69, 96
2, 171904, Note_off_c, 0, 69, 0
2, 171904, Note_on_c, 0, 71, 96
2, 172032, Note_off_c, 0, 71, 0
2, 172032, Note_on_c, 0, 73, 96
2, 172288, Note_off_c, 0, 73, 0
2, 172288, Note_on_c, 0, 69, 96
2, 172544, Note_off_c, 0, 69, 0
2, 172544, Note_on_c, 0, 68, 96
2, 172672, Note_off_c, 0, 68, 0
2, 172672, Note_on_c, 0, 66, 96
2, 172800, Note_off_c, 0, 66, 0
2, 172800, Note_on_c, 0, 68, 96
2, 172928, Note_off_c, 0, 68, 0
2, 172928, Note_on_c, 0, 69, 96
2, 173056, Note_off_c, 0, 69, 0
2, 173056, Note_on_c, 0, 74, 96
2, 173312, Note_off_c, 0, 74, 0
2, 173312, Note_on_c, 0, 69, 96
2, 173568, Note_off_c, 0, 69, 0
2, 173568, Note_on_c, 0, 71, 96
2, 173696, Note_off_c, 0, 71, 0
2, 173696, Note_on_c, 0, 69, 96
2, 173824, Note_off_c, 0, 69, 0
2, 173824, Note_on_c, 0, 68, 96
2, 173952, Note_off_c, 0, 68, 0
2, 173952, Note_on_c, 0, 69, 96
2, 174080, Note_off_c, 0, 69, 0
2, 174080, Note_on_c, 0, 76, 96
2, 175360, Note_off_c, 0, 76, 0
2, 175360, Note_on_c, 0, 78, 96
2, 175488, Note_off_c, 0, 78, 0
2, 175488, Note_on_c, 0, 76, 96
2, 175616, Note_off_c, 0, 76, 0
2, 175616, Note_on_c, 0, 74, 96
2, 175744, Note_off_c, 0, 74, 0
2, 175744, Note_on_c, 0, 73, 96
2, 175872, Note_off_c, 0, 73, 0
2, 175872, Note_on_c, 0, 74, 96
2, 176128, Note_off_c, 0, 74, 0
2, 176128, Note_on_c, 0, 73, 96
2, 176896, Note_off_c, 0, 73, 0
2, 176896, Note_on_c, 0, 74, 96
2, 177152, Note_off_c, 0, 74, 0
2, 177152, Note_on_c, 0, 71, 96
2, 178176, Note_off_c, 0, 71, 0
2, 178176, Note_on_c, 0, 73, 96
2, 180736, Note_off_c, 0, 73, 0
2, 190464, Note_on_c, 0, 69, 96
2, 192256, Note_off_c, 0, 69, 0
2, 192256, Note_on_c, 0, 73, 96
2, 192384, Note_off_c, 0, 73, 0
2, 192384, Note_on_c, 0, 71, 96
2, 192512, Note_off_c, 0, 71, 0
2, 192512, Note_on_c, 0, 71, 96
2, 193152, Note_off_c, 0, 71, 0
2, 193152, Note_on_c, 0, 69, 96
2, 193216, Note_off_c, 0, 69, 0
2, 193216, Note_on_c, 0, 68, 96
2, 193280, Note_off_c, 0, 68, 0
2, 193280, Note_on_c, 0, 69, 96
2, 193408, Note_off_c, 0, 69, 0
2, 193408, Note_on_c, 0, 71, 96
2, 193536, Note_off_c, 0, 71, 0
2, 193536, Note_on_c, 0, 73, 96
2, 193664, Note_off_c, 0, 73, 0
2, 193664, Note_on_c, 0, 74, 96
2, 193792, Note_off_c, 0, 74, 0
2, 193792, Note_on_c, 0, 73, 96
2, 193920, Note_off_c, 0, 73, 0
2, 193920, Note_on_c, 0, 71, 96
2, 194048, Note_off_c, 0, 71, 0
2, 194048, Note_on_c, 0, 69, 96
2, 194176, Note_off_c, 0, 69, 0
2, 194176, Note_on_c, 0, 73, 96
2, 194304, Note_off_c, 0, 73, 0
2, 194304, Note_on_c, 0, 71, 96
2, 194432, Note_off_c, 0, 71, 0
2, 194432, Note_on_c, 0, 74, 96
2, 194496, Note_off_c, 0, 74, 0
2, 194496, Note_on_c, 0, 73, 96
2, 194560, Note_off_c, 0, 73, 0
2, 194560, Note_on_c, 0, 74, 96
2, 194688, Note_off_c, 0, 74, 0
2, 194688, Note_on_c, 0, 78, 96
2, 194816, Note_off_c, 0, 78, 0
2, 194816, Note_on_c, 0, 76, 96
2, 194944, Note_off_c, 0, 76, 0
2, 194944, Note_on_c, 0, 74, 96
2, 195072, Note_off_c, 0, 74, 0
2, 195072, Note_on_c, 0, 73, 96
2, 195200, Note_off_c, 0, 73, 0
2, 195200, Note_on_c, 0, 76, 96
2, 195328, Note_off_c, 0, 76, 0
2, 195328, Note_on_c, 0, 74, 96
2, 195456, Note_off_c, 0, 74, 0
2, 195456, Note_on_c, 0, 73, 96
2, 195584, Note_off_c, 0, 73, 0
2, 195584, Note_on_c, 0, 71, 96
2, 195712, Note_off_c, 0, 71, 0
2, 195712, Note_on_c, 0, 69, 96
2, 195840, Note_off_c, 0, 69, 0
2, 195840, Note_on_c, 0, 68, 96
2, 195968, Note_off_c, 0, 68, 0
2, 195968, Note_on_c, 0, 69, 96
2, 196096, Note_off_c, 0, 69, 0
2, 196096, Note_on_c, 0, 71, 96
2, 196224, Note_off_c, 0, 71, 0
2, 196224, Note_on_c, 0, 74, 96
2, 196352, Note_off_c, 0, 74, 0
2, 196352, Note_on_c, 0, 73, 96
2, 196480, Note_off_c, 0, 73, 0
2, 196480, Note_on_c, 0, 71, 96
2, 196608, Note_off_c, 0, 71, 0
2, 196608, Note_on_c, 0, 69, 96
2, 197760, Note_off_c, 0, 69, 0
2, 197760, Note_on_c, 0, 68, 96
2, 197888, Note_off_c, 0, 68, 0
2, 197888, Note_on_c, 0, 66, 96
2, 198016, Note_off_c, 0, 66, 0
2, 198016, Note_on_c, 0, 64, 96
2, 198144, Note_off_c, 0, 64, 0
2, 198144, Note_on_c, 0, 62, 96
2, 198272, Note_off_c, 0, 62, 0
2, 198272, Note_on_c, 0, 61, 96
2, 198400, Note_off_c, 0, 61, 0
2, 198400, Note_on_c, 0, 62, 96
2, 198528, Note_off_c, 0, 62, 0
2, 198528, Note_on_c, 0, 59, 96
2, 198592, Note_off_c, 0, 59, 0
2, 198592, Note_on_c, 0, 71, 96
2, 198656, Note_off_c, 0, 71, 0
2, 198656, Note_on_c, 0, 69, 96
2, 198784, Note_off_c, 0, 69, 0
2, 198784, Note_on_c, 0, 68, 96
2, 198912, Note_off_c, 0, 68, 0
2, 198912, Note_on_c, 0, 66, 96
2, 199040, Note_off_c, 0, 66, 0
2, 199040, Note_on_c, 0, 68, 96
2, 199168, Note_off_c, 0, 68, 0
2, 199168, Note_on_c, 0, 68, 96
2, 200448, Note_off_c, 0, 68, 0
2, 200448, Note_on_c, 0, 66, 96
2, 200576, Note_off_c, 0, 66, 0
2, 200576, Note_on_c, 0, 68, 96
2, 200704, Note_off_c, 0, 68, 0
2, 200704, Note_on_c, 0, 69, 96
2, 209024, Note_off_c, 0, 69, 0
2, 209024, Note_on_c, 0, 68, 96
2, 209152, Note_off_c, 0, 68, 0
2, 209152, Note_on_c, 0, 66, 96
2, 209280, Note_off_c, 0, 66, 0
2, 209280, Note_on_c, 0, 68, 96
2, 209408, Note_off_c, 0, 68, 0
2, 209408, Note_on_c, 0, 69, 96
2, 209536, Note_off_c, 0, 69, 0
2, 209536, Note_on_c, 0, 71, 96
2, 209664, Note_off_c, 0, 71, 0
2, 209664, Note_on_c, 0, 72, 96
2, 209792, Note_off_c, 0, 72, 0
2, 209792, Note_on_c, 0, 71, 96
2, 209920, Note_off_c, 0, 71, 0
2, 209920, Note_on_c, 0, 69, 96
2, 210048, Note_off_c, 0, 69, 0
2, 210048, Note_on_c, 0, 68, 96
2, 210176, Note_off_c, 0, 68, 0
2, 210176, Note_on_c, 0, 66, 96
2, 210304, Note_off_c, 0, 66, 0
2, 210304, Note_on_c, 0, 64, 96
2, 210432, Note_off_c, 0, 64, 0
2, 210432, Note_on_c, 0, 63, 96
2, 210560, Note_off_c, 0, 63, 0
2, 210560, Note_on_c, 0, 60, 96
2, 210688, Note_off_c, 0, 60, 0
2, 210688, Note_on_c, 0, 59, 96
2, 210816, Note_off_c, 0, 59, 0
2, 210816, Note_on_c, 0, 57, 96
2, 210944, Note_off_c, 0, 57, 0
2, 210944, Note_on_c, 0, 78, 96
2, 211456, Note_off_c, 0, 78, 0
2, 211712, Note_on_c, 0, 76, 96
2, 211968, Note_off_c, 0, 76, 0
2, 211968, Note_on_c, 0, 75, 96
2, 212096, Note_off_c, 0, 75, 0
2, 212096, Note_on_c, 0, 78, 96
2, 212224, Note_off_c, 0, 78, 0
2, 212224, Note_on_c, 0, 81, 96
2, 212352, Note_off_c, 0, 81, 0
2, 212352, Note_on_c, 0, 80, 96
2, 212480, Note_off_c, 0, 80, 0
2, 212480, Note_on_c, 0, 78, 96
2, 212608, Note_off_c, 0, 78, 0
2, 212608, Note_on_c, 0, 76, 96
2, 212736, Note_off_c, 0, 76, 0
2, 212736, Note_on_c, 0, 75, 96
2, 212864, Note_off_c, 0, 75, 0
2, 212864, Note_on_c, 0, 73, 96
2, 212992, Note_off_c, 0, 73, 0
2, 212992, Note_on_c, 0, 71, 96
2, 213120, Note_off_c, 0, 71, 0
2, 213120, Note_on_c, 0, 72, 96
2, 213248, Note_off_c, 0, 72, 0
2, 213248, Note_on_c, 0, 71, 96
2, 213376, Note_off_c, 0, 71, 0
2, 213376, Note_on_c, 0, 69, 96
2, 213504, Note_off_c, 0, 69, 0
2, 213504, Note_on_c, 0, 71, 96
2, 213632, Note_off_c, 0, 71, 0
2, 213632, Note_on_c, 0, 68, 96
2, 213888, Note_off_c, 0, 68, 0
2, 213888, Note_on_c, 0, 69, 96
2, 215040, Note_off_c, 0, 69, 0
2, 215040, Note_on_c, 0, 64, 96
2, 215168, Note_off_c, 0, 64, 0
2, 215168, Note_on_c, 0, 66, 96
2, 215296, Note_off_c, 0, 66, 0
2, 215296, Note_on_c, 0, 68, 96
2, 215424, Note_off_c, 0, 68, 0
2, 215424, Note_on_c, 0, 69, 96
2, 215552, Note_off_c, 0, 69, 0
2, 215552, Note_on_c, 0, 71, 96
2, 215680, Note_off_c, 0, 71, 0
2, 215680, Note_on_c, 0, 73, 96
2, 215808, Note_off_c, 0, 73, 0
2, 215808, Note_on_c, 0, 74, 96
2, 215872, Note_off_c, 0, 74, 0
2, 215872, Note_on_c, 0, 71, 96
2, 215936, Note_off_c, 0, 71, 0
2, 215936, Note_on_c, 0, 68, 96
2, 216704, Note_off_c, 0, 68, 0
2, 216704, Note_on_c, 0, 69, 96
2, 216960, Note_off_c, 0, 69, 0
2, 217088, Note_on_c, 0, 69, 96
2, 221184, Note_off_c, 0, 69, 0
2, 221184, End_track
3, 0, Start_track
3, 0, Title_t, "Instrument 2"
3, 6656, Note_on_c, 1, 64, 96
3, 7168, Note_off_c, 1, 64, 0
3, 7168, Note_on_c, 1, 66, 96
3, 7680, Note_off_c, 1, 66, 0
3, 7680, Note_on_c, 1, 68, 96
3, 8192, Note_off_c, 1, 68, 0
3, 8192, Note_on_c, 1, 69, 96
3, 8448, Note_off_c, 1, 69, 0
3, 8448, Note_on_c, 1, 64, 96
3, 8704, Note_off_c, 1, 64, 0
3, 8704, Note_on_c, 1, 69, 96
3, 9728, Note_off_c, 1, 69, 0
3, 9728, Note_on_c, 1, 68, 96
3, 10240, Note_off_c, 1, 68, 0
3, 10240, Note_on_c, 1, 69, 96
3, 10752, Note_off_c, 1, 69, 0
3, 10752, Note_on_c, 1, 64, 96
3, 11008, Note_off_c, 1, 64, 0
3, 11008, Note_on_c, 1, 62, 96
3, 11264, Note_off_c, 1, 62, 0
3, 11264, Note_on_c, 1, 64, 96
3, 11520, Note_off_c, 1, 64, 0
3, 11520, Note_on_c, 1, 66, 96
3, 11776, Note_off_c, 1, 66, 0
3, 11776, Note_on_c, 1, 66, 96
3, 12032, Note_off_c, 1, 66, 0
3, 12032, Note_on_c, 1, 64, 96
3, 12160, Note_off_c, 1, 64, 0
3, 12160, Note_on_c, 1, 66, 96
3, 12288, Note_off_c, 1, 66, 0
3, 12288, Note_on_c, 1, 68, 96
3, 12800, Note_off_c, 1, 68, 0
3, 12800, Note_on_c, 1, 73, 96
3, 13312, Note_off_c, 1, 73, 0
3, 13312, Note_on_c, 1, 69, 96
3, 13824, Note_off_c, 1, 69, 0
3, 13824, Note_on_c, 1, 66, 96
3, 14336, Note_off_c, 1, 66, 0
3, 14336, Note_on_c, 1, 63, 96
3, 14848, Note_off_c, 1, 63, 0
3, 14848, Note_on_c, 1, 71, 96
3, 15872, Note_off_c, 1, 71, 0
3, 15872, Note_on_c, 1, 69, 96
3, 16384, Note_off_c, 1, 69, 0
3, 16384, Note_on_c, 1, 68, 96
3, 17408, Note_off_c, 1, 68, 0
3, 17408, Note_on_c, 1, 66, 96
3, 18432, Note_off_c, 1, 66, 0
3, 18432, Note_on_c, 1, 68, 96
3, 19200, Note_off_c, 1, 68, 0
3, 19200, Note_on_c, 1, 66, 96
3, 19456, Note_off_c, 1, 66, 0
3, 19456, Note_on_c, 1, 68, 96
3, 19712, Note_off_c, 1, 68, 0
3, 19712, Note_on_c, 1, 70, 96
3, 19968, Note_off_c, 1, 70, 0
3, 19968, Note_on_c, 1, 70, 96
3, 20224, Note_off_c, 1, 70, 0
3, 20224, Note_on_c, 1, 68, 96
3, 20352, Note_off_c, 1, 68, 0
3, 20352, Note_on_c, 1, 70, 96
3, 20480, Note_off_c, 1, 70, 0
3, 20480, Note_on_c, 1, 71, 96
3, 20736, Note_off_c, 1, 71, 0
3, 20736, Note_on_c, 1, 70, 96
3, 20992, Note_off_c, 1, 70, 0
3, 20992, Note_on_c, 1, 71, 96
3, 21248, Note_off_c, 1, 71, 0
3, 21248, Note_on_c, 1, 73, 96
3, 21504, Note_off_c, 1, 73, 0
3, 21504, Note_on_c, 1, 74, 96
3, 22784, Note_off_c, 1, 74, 0
3, 22784, Note_on_c, 1, 78, 96
3, 23040, Note_off_c, 1, 78, 0
3, 23040, Note_on_c, 1, 76, 96
3, 23296, Note_off_c, 1, 76, 0
3, 23296, Note_on_c, 1, 74, 96
3, 23552, Note_off_c, 1, 74, 0
3, 23552, Note_on_c, 1, 73, 96
3, 23808, Note_off_c, 1, 73, 0
3, 23808, Note_on_c, 1, 74, 96
3, 24064, Note_off_c, 1, 74, 0
3, 24064, Note_on_c, 1, 74, 96
3, 24320, Note_off_c, 1, 74, 0
3, 24320, Note_on_c, 1, 73, 96
3, 24448, Note_off_c, 1, 73, 0
3, 24448, Note_on_c, 1, 74, 96
3, 24576, Note_off_c, 1, 74, 0
3, 24576, Note_on_c, 1, 76, 96
3, 24832, Note_off_c, 1, 76, 0
3, 24832, Note_on_c, 1, 73, 96
3, 25088, Note_off_c, 1, 73, 0
3, 25088, Note_on_c, 1, 71, 96
3, 25344, Note_off_c, 1, 71, 0
3, 25344, Note_on_c, 1, 69, 96
3, 25600, Note_off_c, 1, 69, 0
3, 25600, Note_on_c, 1, 71, 96
3, 25856, Note_off_c, 1, 71, 0
3, 25856, Note_on_c, 1, 73, 96
3, 26112, Note_off_c, 1, 73, 0
3, 26112, Note_on_c, 1, 73, 96
3, 26368, Note_off_c, 1, 73, 0
3, 26368, Note_on_c, 1, 71, 96
3, 26496, Note_off_c, 1, 71, 0
3, 26496, Note_on_c, 1, 73, 96
3, 26624, Note_off_c, 1, 73, 0
3, 26624, Note_on_c, 1, 74, 96
3, 26880, Note_off_c, 1, 74, 0
3, 26880, Note_on_c, 1, 71, 96
3, 27136, Note_off_c, 1, 71, 0
3, 27136, Note_on_c, 1, 69, 96
3, 27392, Note_off_c, 1, 69, 0
3, 27392, Note_on_c, 1, 68, 96
3, 27648, Note_off_c, 1, 68, 0
3, 27648, Note_on_c, 1, 69, 96
3, 27904, Note_off_c, 1, 69, 0
3, 27904, Note_on_c, 1, 71, 96
3, 28160, Note_off_c, 1, 71, 0
3, 28160, Note_on_c, 1, 71, 96
3, 28416, Note_off_c, 1, 71, 0
3, 28416, Note_on_c, 1, 69, 96
3, 28544, Note_off_c, 1, 69, 0
3, 28544, Note_on_c, 1, 71, 96
3, 28672, Note_off_c, 1, 71, 0
3, 28672, Note_on_c, 1, 73, 96
3, 29184, Note_off_c, 1, 73, 0
3, 29184, Note_on_c, 1, 78, 96
3, 29696, Note_off_c, 1, 78, 0
3, 29696, Note_on_c, 1, 74, 96
3, 30208, Note_off_c, 1, 74, 0
3, 30208, Note_on_c, 1, 71, 96
3, 30720, Note_off_c, 1, 71, 0
3, 30720, Note_on_c, 1, 68, 96
3, 31232, Note_off_c, 1, 68, 0
3, 31232, Note_on_c, 1, 76, 96
3, 32256, Note_off_c, 1, 76, 0
3, 32256, Note_on_c, 1, 74, 96
3, 32768, Note_off_c, 1, 74, 0
3, 32768, Note_on_c, 1, 73, 96
3, 33536, Note_off_c, 1, 73, 0
3, 33536, Note_on_c, 1, 74, 96
3, 33792, Note_off_c, 1, 74, 0
3, 33792, Note_on_c, 1, 71, 96
3, 34560, Note_off_c, 1, 71, 0
3, 34560, Note_on_c, 1, 69, 96
3, 34688, Note_off_c, 1, 69, 0
3, 34688, Note_on_c, 1, 71, 96
3, 34816, Note_off_c, 1, 71, 0
3, 34816, Note_on_c, 1, 73, 96
3, 35584, Note_off_c, 1, 73, 0
3, 35584, Note_on_c, 1, 76, 96
3, 35840, Note_off_c, 1, 76, 0
3, 35840, Note_on_c, 1, 69, 96
3, 36352, Note_off_c, 1, 69, 0
3, 36352, Note_on_c, 1, 74, 96
3, 37120, Note_off_c, 1, 74, 0
3, 37120, Note_on_c, 1, 71, 96
3, 37376, Note_off_c, 1, 71, 0
3, 37376, Note_on_c, 1, 73, 96
3, 37632, Note_off_c, 1, 73, 0
3, 37632, Note_on_c, 1, 69, 96
3, 37888, Note_off_c, 1, 69, 0
3, 37888, Note_on_c, 1, 66, 96
3, 38400, Note_off_c, 1, 66, 0
3, 38400, Note_on_c, 1, 68, 96
3, 38912, Note_off_c, 1, 68, 0
3, 38912, Note_on_c, 1, 69, 96
3, 39168, Note_off_c, 1, 69, 0
3, 39168, Note_on_c, 1, 64, 96
3, 39424, Note_off_c, 1, 64, 0
3, 39424, Note_on_c, 1, 66, 96
3, 39936, Note_off_c, 1, 66, 0
3, 39936, Note_on_c, 1, 64, 96
3, 40448, Note_off_c, 1, 64, 0
3, 40448, Note_on_c, 1, 66, 96
3, 40704, Note_off_c, 1, 66, 0
3, 40704, Note_on_c, 1, 68, 96
3, 40960, Note_off_c, 1, 68, 0
3, 40960, Note_on_c, 1, 69, 96
3, 41216, Note_off_c, 1, 69, 0
3, 41216, Note_on_c, 1, 61, 96
3, 41472, Note_off_c, 1, 61, 0
3, 41472, Note_on_c, 1, 62, 96
3, 41728, Note_off_c, 1, 62, 0
3, 41728, Note_on_c, 1, 64, 96
3, 41984, Note_off_c, 1, 64, 0
3, 41984, Note_on_c, 1, 66, 96
3, 43008, Note_off_c, 1, 66, 0
3, 43776, Note_on_c, 1, 64, 96
3, 44032, Note_off_c, 1, 64, 0
3, 44032, Note_on_c, 1, 66, 96
3, 44288, Note_off_c, 1, 66, 0
3, 44288, Note_on_c, 1, 68, 96
3, 44544, Note_off_c, 1, 68, 0
3, 44544, Note_on_c, 1, 68, 96
3, 44800, Note_off_c, 1, 68, 0
3, 44800, Note_on_c, 1, 66, 96
3, 44928, Note_off_c, 1, 66, 0
3, 44928, Note_on_c, 1, 68, 96
3, 45056, Note_off_c, 1, 68, 0
3, 45056, Note_on_c, 1, 69, 96
3, 45312, Note_off_c, 1, 69, 0
3, 45312, Note_on_c, 1, 68, 96
3, 45568, Note_off_c, 1, 68, 0
3, 45568, Note_on_c, 1, 68, 96
3, 45824, Note_off_c, 1, 68, 0
3, 45824, Note_on_c, 1, 66, 96
3, 46080, Note_off_c, 1, 66, 0
3, 46080, Note_on_c, 1, 65, 96
3, 46336, Note_off_c, 1, 65, 0
3, 46336, Note_on_c, 1, 66, 96
3, 46592, Note_off_c, 1, 66, 0
3, 46592, Note_on_c, 1, 66, 96
3, 46848, Note_off_c, 1, 66, 0
3, 46848, Note_on_c, 1, 68, 96
3, 47104, Note_off_c, 1, 68, 0
3, 47104, Note_on_c, 1, 68, 96
3, 48384, Note_off_c, 1, 68, 0
3, 48384, Note_on_c, 1, 66, 96
3, 48640, Note_off_c, 1, 66, 0
3, 48640, Note_on_c, 1, 66, 96
3, 48896, Note_off_c, 1, 66, 0
3, 48896, Note_on_c, 1, 64, 96
3, 49152, Note_off_c, 1, 64, 0
3, 49152, Note_on_c, 1, 66, 96
3, 49408, Note_off_c, 1, 66, 0
3, 49408, Note_on_c, 1, 68, 96
3, 49536, Note_off_c, 1, 68, 0
3, 49536, Note_on_c, 1, 69, 96
3, 49664, Note_off_c, 1, 69, 0
3, 49664, Note_on_c, 1, 68, 96
3, 49920, Note_off_c, 1, 68, 0
3, 49920, Note_on_c, 1, 69, 96
3, 50048, Note_off_c, 1, 69, 0
3, 50048, Note_on_c, 1, 71, 96
3, 50176, Note_off_c, 1, 71, 0
3, 50176, Note_on_c, 1, 65, 96
3, 50944, Note_off_c, 1, 65, 0
3, 50944, Note_on_c, 1, 66, 96
3, 51200, Note_off_c, 1, 66, 0
3, 51200, Note_on_c, 1, 66, 96
3, 51456, Note_off_c, 1, 66, 0
3, 51456, Note_on_c, 1, 61, 96
3, 51712, Note_off_c, 1, 61, 0
3, 51712, Note_on_c, 1, 64, 96
3, 51968, Note_off_c, 1, 64, 0
3, 51968, Note_on_c, 1, 63, 96
3, 52224, Note_off_c, 1, 63, 0
3, 52224, Note_on_c, 1, 63, 96
3, 52736, Note_off_c, 1, 63, 0
3, 52736, Note_on_c, 1, 65, 96
3, 53248, Note_off_c, 1, 65, 0
3, 53248, Note_on_c, 1, 66, 96
3, 54528, Note_off_c, 1, 66, 0
3, 54528, Note_on_c, 1, 69, 96
3, 54784, Note_off_c, 1, 69, 0
3, 54784, Note_on_c, 1, 68, 96
3, 55040, Note_off_c, 1, 68, 0
3, 55040, Note_on_c, 1, 70, 96
3, 55296, Note_off_c, 1, 70, 0
3, 55296, Note_on_c, 1, 71, 96
3, 55808, Note_off_c, 1, 71, 0
3, 55808, Note_on_c, 1, 69, 96
3, 56576, Note_off_c, 1, 69, 0
3, 56576, Note_on_c, 1, 66, 96
3, 56832, Note_off_c, 1, 66, 0
3, 56832, Note_on_c, 1, 68, 96
3, 57344, Note_off_c, 1, 68, 0
3, 57344, Note_on_c, 1, 69, 96
3, 57600, Note_off_c, 1, 69, 0
3, 57600, Note_on_c, 1, 68, 96
3, 57856, Note_off_c, 1, 68, 0
3, 57856, Note_on_c, 1, 66, 96
3, 58112, Note_off_c, 1, 66, 0
3, 58112, Note_on_c, 1, 64, 96
3, 58368, Note_off_c, 1, 64, 0
3, 58368, Note_on_c, 1, 62, 96
3, 58624, Note_off_c, 1, 62, 0
3, 58624, Note_on_c, 1, 61, 96
3, 58880, Note_off_c, 1, 61, 0
3, 58880, Note_on_c, 1, 66, 96
3, 59136, Note_off_c, 1, 66, 0
3, 59136, Note_on_c, 1, 64, 96
3, 59392, Note_off_c, 1, 64, 0
3, 59392, Note_on_c, 1, 66, 96
3, 59904, Note_off_c, 1, 66, 0
3, 60160, Note_on_c, 1, 64, 96
3, 60416, Note_off_c, 1, 64, 0
3, 60416, Note_on_c, 1, 66, 96
3, 60672, Note_off_c, 1, 66, 0
3, 60672, Note_on_c, 1, 62, 96
3, 60928, Note_off_c, 1, 62, 0
3, 60928, Note_on_c, 1, 59, 96
3, 61184, Note_off_c, 1, 59, 0
3, 61184, Note_on_c, 1, 64, 96
3, 61440, Note_off_c, 1, 64, 0
3, 61440, Note_on_c, 1, 61, 96
3, 61696, Note_off_c, 1, 61, 0
3, 61696, Note_on_c, 1, 57, 96
3, 61952, Note_off_c, 1, 57, 0
3, 61952, Note_on_c, 1, 59, 96
3, 62208, Note_off_c, 1, 59, 0
3, 62208, Note_on_c, 1, 61, 96
3, 62464, Note_off_c, 1, 61, 0
3, 62464, Note_on_c, 1, 62, 96
3, 62720, Note_off_c, 1, 62, 0
3, 62720, Note_on_c, 1, 64, 96
3, 62976, Note_off_c, 1, 64, 0
3, 62976, Note_on_c, 1, 64, 96
3, 63232, Note_off_c, 1, 64, 0
3, 63232, Note_on_c, 1, 62, 96
3, 63360, Note_off_c, 1, 62, 0
3, 63360, Note_on_c, 1, 64, 96
3, 63488, Note_off_c, 1, 64, 0
3, 63488, Note_on_c, 1, 66, 96
3, 64000, Note_off_c, 1, 66, 0
3, 64000, Note_on_c, 1, 67, 96
3, 65024, Note_off_c, 1, 67, 0
3, 65024, Note_on_c, 1, 66, 96
3, 65536, Note_off_c, 1, 66, 0
3, 65536, Note_on_c, 1, 64, 96
3, 65792, Note_off_c, 1, 64, 0
3, 65792, Note_on_c, 1, 66, 96
3, 66048, Note_off_c, 1, 66, 0
3, 66048, Note_on_c, 1, 67, 96
3, 66304, Note_off_c, 1, 67, 0
3, 66304, Note_on_c, 1, 66, 96
3, 66560, Note_off_c, 1, 66, 0
3, 66560, Note_on_c, 1, 67, 96
3, 67072, Note_off_c, 1, 67, 0
3, 67072, Note_on_c, 1, 64, 96
3, 67584, Note_off_c, 1, 64, 0
3, 67584, Note_on_c, 1, 66, 96
3, 67840, Note_off_c, 1, 66, 0
3, 67840, Note_on_c, 1, 68, 96
3, 68096, Note_off_c, 1, 68, 0
3, 68096, Note_on_c, 1, 69, 96
3, 68352, Note_off_c, 1, 69, 0
3, 68352, Note_on_c, 1, 68, 96
3, 68608, Note_off_c, 1, 68, 0
3, 68608, Note_on_c, 1, 69, 96
3, 70144, Note_off_c, 1, 69, 0
3, 72192, Note_on_c, 1, 64, 96
3, 72704, Note_off_c, 1, 64, 0
3, 72704, Note_on_c, 1, 66, 96
3, 73216, Note_off_c, 1, 66, 0
3, 73216, Note_on_c, 1, 68, 96
3, 73728, Note_off_c, 1, 68, 0
3, 73728, Note_on_c, 1, 69, 96
3, 73984, Note_off_c, 1, 69, 0
3, 73984, Note_on_c, 1, 64, 96
3, 74240, Note_off_c, 1, 64, 0
3, 74240, Note_on_c, 1, 69, 96
3, 75264, Note_off_c, 1, 69, 0
3, 75264, Note_on_c, 1, 68, 96
3, 75776, Note_off_c, 1, 68, 0
3, 75776, Note_on_c, 1, 69, 96
3, 76288, Note_off_c, 1, 69, 0
3, 76288, Note_on_c, 1, 64, 96
3, 76544, Note_off_c, 1, 64, 0
3, 76544, Note_on_c, 1, 62, 96
3, 76800, Note_off_c, 1, 62, 0
3, 76800, Note_on_c, 1, 64, 96
3, 77056, Note_off_c, 1, 64, 0
3, 77056, Note_on_c, 1, 66, 96
3, 77312, Note_off_c, 1, 66, 0
3, 77312, Note_on_c, 1, 66, 96
3, 77568, Note_off_c, 1, 66, 0
3, 77568, Note_on_c, 1, 64, 96
3, 77696, Note_off_c, 1, 64, 0
3, 77696, Note_on_c, 1, 66, 96
3, 77824, Note_off_c, 1, 66, 0
3, 77824, Note_on_c, 1, 68, 96
3, 78336, Note_off_c, 1, 68, 0
3, 78336, Note_on_c, 1, 73, 96
3, 78848, Note_off_c, 1, 73, 0
3, 78848, Note_on_c, 1, 69, 96
3, 79360, Note_off_c, 1, 69, 0
3, 79360, Note_on_c, 1, 66, 96
3, 79872, Note_off_c, 1, 66, 0
3, 79872, Note_on_c, 1, 63, 96
3, 80384, Note_off_c, 1, 63, 0
3, 80384, Note_on_c, 1, 71, 96
3, 81408, Note_off_c, 1, 71, 0
3, 81408, Note_on_c, 1, 69, 96
3, 81920, Note_off_c, 1, 69, 0
3, 81920, Note_on_c, 1, 68, 96
3, 82944, Note_off_c, 1, 68, 0
3, 82944, Note_on_c, 1, 66, 96
3, 83968, Note_off_c, 1, 66, 0
3, 83968, Note_on_c, 1, 68, 96
3, 84736, Note_off_c, 1, 68, 0
3, 84736, Note_on_c, 1, 66, 96
3, 84992, Note_off_c, 1, 66, 0
3, 84992, Note_on_c, 1, 68, 96
3, 85248, Note_off_c, 1, 68, 0
3, 85248, Note_on_c, 1, 70, 96
3, 85504, Note_off_c, 1, 70, 0
3, 85504, Note_on_c, 1, 70, 96
3, 85760, Note_off_c, 1, 70, 0
3, 85760, Note_on_c, 1, 68, 96
3, 85888, Note_off_c, 1, 68, 0
3, 85888, Note_on_c, 1, 70, 96
3, 86016, Note_off_c, 1, 70, 0
3, 86016, Note_on_c, 1, 71, 96
3, 86272, Note_off_c, 1, 71, 0
3, 86272, Note_on_c, 1, 70, 96
3, 86528, Note_off_c, 1, 70, 0
3, 86528, Note_on_c, 1, 71, 96
3, 86784, Note_off_c, 1, 71, 0
3, 86784, Note_on_c, 1, 73, 96
3, 87040, Note_off_c, 1, 73, 0
3, 87040, Note_on_c, 1, 74, 96
3, 88320, Note_off_c, 1, 74, 0
3, 88320, Note_on_c, 1, 78, 96
3, 88576, Note_off_c, 1, 78, 0
3, 88576, Note_on_c, 1, 76, 96
3, 88832, Note_off_c, 1, 76, 0
3, 88832, Note_on_c, 1, 74, 96
3, 89088, Note_off_c, 1, 74, 0
3, 89088, Note_on_c, 1, 73, 96
3, 89344, Note_off_c, 1, 73, 0
3, 89344, Note_on_c, 1, 74, 96
3, 89600, Note_off_c, 1, 74, 0
3, 89600, Note_on_c, 1, 74, 96
3, 89856, Note_off_c, 1, 74, 0
3, 89856, Note_on_c, 1, 73, 96
3, 89984, Note_off_c, 1, 73, 0
3, 89984, Note_on_c, 1, 74, 96
3, 90112, Note_off_c, 1, 74, 0
3, 90112, Note_on_c, 1, 76, 96
3, 90368, Note_off_c, 1, 76, 0
3, 90368, Note_on_c, 1, 73, 96
3, 90624, Note_off_c, 1, 73, 0
3, 90624, Note_on_c, 1, 71, 96
3, 90880, Note_off_c, 1, 71, 0
3, 90880, Note_on_c, 1, 69, 96
3, 91136, Note_off_c, 1, 69, 0
3, 91136, Note_on_c, 1, 71, 96
3, 91392, Note_off_c, 1, 71, 0
3, 91392, Note_on_c, 1, 73, 96
3, 91648, Note_off_c, 1, 73, 0
3, 91648, Note_on_c, 1, 73, 96
3, 91904, Note_off_c, 1, 73, 0
3, 91904, Note_on_c, 1, 71, 96
3, 92032, Note_off_c, 1, 71, 0
3, 92032, Note_on_c, 1, 73, 96
3, 92160, Note_off_c, 1, 73, 0
3, 92160, Note_on_c, 1, 74, 96
3, 92416, Note_off_c, 1, 74, 0
3, 92416, Note_on_c, 1, 71, 96
3, 92672, Note_off_c, 1, 71, 0
3, 92672, Note_on_c, 1, 69, 96
3, 92928, Note_off_c, 1, 69, 0
3, 92928, Note_on_c, 1, 68, 96
3, 93184, Note_off_c, 1, 68, 0
3, 93184, Note_on_c, 1, 69, 96
3, 93440, Note_off_c, 1, 69, 0
3, 93440, Note_on_c, 1, 71, 96
3, 93696, Note_off_c, 1, 71, 0
3, 93696, Note_on_c, 1, 71, 96
3, 93952, Note_off_c, 1, 71, 0
3, 93952, Note_on_c, 1, 69, 96
3, 94080, Note_off_c, 1, 69, 0
3, 94080, Note_on_c, 1, 71, 96
3, 94208, Note_off_c, 1, 71, 0
3, 94208, Note_on_c, 1, 73, 96
3, 94720, Note_off_c, 1, 73, 0
3, 94720, Note_on_c, 1, 78, 96
3, 95232, Note_off_c, 1, 78, 0
3, 95232, Note_on_c, 1, 74, 96
3, 95744, Note_off_c, 1, 74, 0
3, 95744, Note_on_c, 1, 71, 96
3, 96256, Note_off_c, 1, 71, 0
3, 96256, Note_on_c, 1, 68, 96
3, 96768, Note_off_c, 1, 68, 0
3, 96768, Note_on_c, 1, 76, 96
3, 97792, Note_off_c, 1, 76, 0
3, 97792, Note_on_c, 1, 74, 96
3, 98304, Note_off_c, 1, 74, 0
3, 98304, Note_on_c, 1, 73, 96
3, 99072, Note_off_c, 1, 73, 0
3, 99072, Note_on_c, 1, 74, 96
3, 99328, Note_off_c, 1, 74, 0
3, 99328, Note_on_c, 1, 71, 96
3, 100096, Note_off_c, 1, 71, 0
3, 100096, Note_on_c, 1, 69, 96
3, 100224, Note_off_c, 1, 69, 0
3, 100224, Note_on_c, 1, 71, 96
3, 100352, Note_off_c, 1, 71, 0
3, 100352, Note_on_c, 1, 73, 96
3, 101120, Note_off_c, 1, 73, 0
3, 101120, Note_on_c, 1, 76, 96
3, 101376, Note_off_c, 1, 76, 0
3, 101376, Note_on_c, 1, 69, 96
3, 101888, Note_off_c, 1, 69, 0
3, 101888, Note_on_c, 1, 74, 96
3, 102656, Note_off_c, 1, 74, 0
3, 102656, Note_on_c, 1, 71, 96
3, 102912, Note_off_c, 1, 71, 0
3, 102912, Note_on_c, 1, 73, 96
3, 103168, Note_off_c, 1, 73, 0
3, 103168, Note_on_c, 1, 69, 96
3, 103424, Note_off_c, 1, 69, 0
3, 103424, Note_on_c, 1, 66, 96
3, 103936, Note_off_c, 1, 66, 0
3, 103936, Note_on_c, 1, 68, 96
3, 104448, Note_off_c, 1, 68, 0
3, 104448, Note_on_c, 1, 69, 96
3, 104704, Note_off_c, 1, 69, 0
3, 104704, Note_on_c, 1, 64, 96
3, 104960, Note_off_c, 1, 64, 0
3, 104960, Note_on_c, 1, 66, 96
3, 105472, Note_off_c, 1, 66, 0
3, 105472, Note_on_c, 1, 64, 96
3, 105984, Note_off_c, 1, 64, 0
3, 105984, Note_on_c, 1, 66, 96
3, 106240, Note_off_c, 1, 66, 0
3, 106240, Note_on_c, 1, 68, 96
3, 106496, Note_off_c, 1, 68, 0
3, 106496, Note_on_c, 1, 69, 96
3, 106752, Note_off_c, 1, 69, 0
3, 106752, Note_on_c, 1, 61, 96
3, 107008, Note_off_c, 1, 61, 0
3, 107008, Note_on_c, 1, 62, 96
3, 107264, Note_off_c, 1, 62, 0
3, 107264, Note_on_c, 1, 64, 96
3, 107520, Note_off_c, 1, 64, 0
3, 107520, Note_on_c, 1, 66, 96
3, 108544, Note_off_c, 1, 66, 0
3, 109312, Note_on_c, 1, 64, 96
3, 109568, Note_off_c, 1, 64, 0
3, 109568, Note_on_c, 1, 66, 96
3, 109824, Note_off_c, 1, 66, 0
3, 109824, Note_on_c, 1, 68, 96
3, 110080, Note_off_c, 1, 68, 0
3, 110080, Note_on_c, 1, 68, 96
3, 110336, Note_off_c, 1, 68, 0
3, 110336, Note_on_c, 1, 66, 96
3, 110464, Note_off_c, 1, 66, 0
3, 110464, Note_on_c, 1, 68, 96
3, 110592, Note_off_c, 1, 68, 0
3, 110592, Note_on_c, 1, 69, 96
3, 110848, Note_off_c, 1, 69, 0
3, 110848, Note_on_c, 1, 68, 96
3, 111104, Note_off_c, 1, 68, 0
3, 111104, Note_on_c, 1, 68, 96
3, 111360, Note_off_c, 1, 68, 0
3, 111360, Note_on_c, 1, 66, 96
3, 111616, Note_off_c, 1, 66, 0
3, 111616, Note_on_c, 1, 65, 96
3, 111872, Note_off_c, 1, 65, 0
3, 111872, Note_on_c, 1, 66, 96
3, 112128, Note_off_c, 1, 66, 0
3, 112128, Note_on_c, 1, 66, 96
3, 112384, Note_off_c, 1, 66, 0
3, 112384, Note_on_c, 1, 68, 96
3, 112640, Note_off_c, 1, 68, 0
3, 112640, Note_on_c, 1, 68, 96
3, 113920, Note_off_c, 1, 68, 0
3, 113920, Note_on_c, 1, 66, 96
3, 114176, Note_off_c, 1, 66, 0
3, 114176, Note_on_c, 1, 66, 96
3, 114432, Note_off_c, 1, 66, 0
3, 114432, Note_on_c, 1, 64, 96
3, 114688, Note_off_c, 1, 64, 0
3, 114688, Note_on_c, 1, 66, 96
3, 114944, Note_off_c, 1, 66, 0
3, 114944, Note_on_c, 1, 68, 96
3, 115072, Note_off_c, 1, 68, 0
3, 115072, Note_on_c, 1, 69, 96
3, 115200, Note_off_c, 1, 69, 0
3, 115200, Note_on_c, 1, 68, 96
3, 115456, Note_off_c, 1, 68, 0
3, 115456, Note_on_c, 1, 69, 96
3, 115584, Note_off_c, 1, 69, 0
3, 115584, Note_on_c, 1, 71, 96
3, 115712, Note_off_c, 1, 71, 0
3, 115712, Note_on_c, 1, 65, 96
3, 116480, Note_off_c, 1, 65, 0
3, 116480, Note_on_c, 1, 66, 96
3, 116736, Note_off_c, 1, 66, 0
3, 116736, Note_on_c, 1, 66, 96
3, 116992, Note_off_c, 1, 66, 0
3, 116992, Note_on_c, 1, 61, 96
3, 117248, Note_off_c, 1, 61, 0
3, 117248, Note_on_c, 1, 64, 96
3, 117504, Note_off_c, 1, 64, 0
3, 117504, Note_on_c, 1, 63, 96
3, 117760, Note_off_c, 1, 63, 0
3, 117760, Note_on_c, 1, 63, 96
3, 118272, Note_off_c, 1, 63, 0
3, 118272, Note_on_c, 1, 65, 96
3, 118784, Note_off_c, 1, 65, 0
3, 118784, Note_on_c, 1, 66, 96
3, 120064, Note_off_c, 1, 66, 0
3, 120064, Note_on_c, 1, 69, 96
3, 120320, Note_off_c, 1, 69, 0
3, 120320, Note_on_c, 1, 68, 96
3, 120576, Note_off_c, 1, 68, 0
3, 120576, Note_on_c, 1, 70, 96
3, 120832, Note_off_c, 1, 70, 0
3, 120832, Note_on_c, 1, 71, 96
3, 121344, Note_off_c, 1, 71, 0
3, 121344, Note_on_c, 1, 69, 96
3, 122112, Note_off_c, 1, 69, 0
3, 122112, Note_on_c, 1, 66, 96
3, 122368, Note_off_c, 1, 66, 0
3, 122368, Note_on_c, 1, 68, 96
3, 122880, Note_off_c, 1, 68, 0
3, 122880, Note_on_c, 1, 69, 96
3, 123136, Note_off_c, 1, 69, 0
3, 123136, Note_on_c, 1, 68, 96
3, 123392, Note_off_c, 1, 68, 0
3, 123392, Note_on_c, 1, 66, 96
3, 123648, Note_off_c, 1, 66, 0
3, 123648, Note_on_c, 1, 64, 96
3, 123904, Note_off_c, 1, 64, 0
3, 123904, Note_on_c, 1, 62, 96
3, 124160, Note_off_c, 1, 62, 0
3, 124160, Note_on_c, 1, 61, 96
3, 124416, Note_off_c, 1, 61, 0
3, 124416, Note_on_c, 1, 66, 96
3, 124672, Note_off_c, 1, 66, 0
3, 124672, Note_on_c, 1, 64, 96
3, 124928, Note_off_c, 1, 64, 0
3, 124928, Note_on_c, 1, 66, 96
3, 125440, Note_off_c, 1, 66, 0
3, 125696, Note_on_c, 1, 64, 96
3, 125952, Note_off_c, 1, 64, 0
3, 125952, Note_on_c, 1, 66, 96
3, 126208, Note_off_c, 1, 66, 0
3, 126208, Note_on_c, 1, 62, 96
3, 126464, Note_off_c, 1, 62, 0
3, 126464, Note_on_c, 1, 59, 96
3, 126720, Note_off_c, 1, 59, 0
3, 126720, Note_on_c, 1, 64, 96
3, 126976, Note_off_c, 1, 64, 0
3, 126976, Note_on_c, 1, 61, 96
3, 127232, Note_off_c, 1, 61, 0
3, 127232, Note_on_c, 1, 57, 96
3, 127488, Note_off_c, 1, 57, 0
3, 127488, Note_on_c, 1, 59, 96
3, 127744, Note_off_c, 1, 59, 0
3, 127744, Note_on_c, 1, 61, 96
3, 128000, Note_off_c, 1, 61, 0
3, 128000, Note_on_c, 1, 62, 96
3, 128256, Note_off_c, 1, 62, 0
3, 128256, Note_on_c, 1, 64, 96
3, 128512, Note_off_c, 1, 64, 0
3, 128512, Note_on_c, 1, 64, 96
3, 128768, Note_off_c, 1, 64, 0
3, 128768, Note_on_c, 1, 62, 96
3, 128896, Note_off_c, 1, 62, 0
3, 128896, Note_on_c, 1, 64, 96
3, 129024, Note_off_c, 1, 64, 0
3, 129024, Note_on_c, 1, 66, 96
3, 129536, Note_off_c, 1, 66, 0
3, 129536, Note_on_c, 1, 67, 96
3, 130560, Note_off_c, 1, 67, 0
3, 130560, Note_on_c, 1, 66, 96
3, 131072, Note_off_c, 1, 66, 0
3, 131072, Note_on_c, 1, 64, 96
3, 131328, Note_off_c, 1, 64, 0
3, 131328, Note_on_c, 1, 66, 96
3, 131584, Note_off_c, 1, 66, 0
3, 131584, Note_on_c, 1, 67, 96
3, 131840, Note_off_c, 1, 67, 0
3, 131840, Note_on_c, 1, 66, 96
3, 132096, Note_off_c, 1, 66, 0
3, 132096, Note_on_c, 1, 67, 96
3, 132608, Note_off_c, 1, 67, 0
3, 132608, Note_on_c, 1, 64, 96
3, 133120, Note_off_c, 1, 64, 0
3, 133120, Note_on_c, 1, 66, 96
3, 133376, Note_off_c, 1, 66, 0
3, 133376, Note_on_c, 1, 68, 96
3, 133632, Note_off_c, 1, 68, 0
3, 133632, Note_on_c, 1, 69, 96
3, 133888, Note_off_c, 1, 69, 0
3, 133888, Note_on_c, 1, 68, 96
3, 134144, Note_off_c, 1, 68, 0
3, 134144, Note_on_c, 1, 69, 96
3, 135424, Note_off_c, 1, 69, 0
3, 135424, Note_on_c, 1, 64, 96
3, 135680, Note_off_c, 1, 64, 0
3, 135680, Note_on_c, 1, 66, 96
3, 135936, Note_off_c, 1, 66, 0
3, 135936, Note_on_c, 1, 68, 96
3, 136192, Note_off_c, 1, 68, 0
3, 136192, Note_on_c, 1, 69, 96
3, 136448, Note_off_c, 1, 69, 0
3, 136448, Note_on_c, 1, 73, 96
3, 136576, Note_off_c, 1, 73, 0
3, 136576, Note_on_c, 1, 71, 96
3, 136704, Note_off_c, 1, 71, 0
3, 136704, Note_on_c, 1, 73, 96
3, 136960, Note_off_c, 1, 73, 0
3, 136960, Note_on_c, 1, 76, 96
3, 137088, Note_off_c, 1, 76, 0
3, 137088, Note_on_c, 1, 74, 96
3, 137216, Note_off_c, 1, 74, 0
3, 137216, Note_on_c, 1, 74, 96
3, 137472, Note_off_c, 1, 74, 0
3, 137472, Note_on_c, 1, 76, 96
3, 137600, Note_off_c, 1, 76, 0
3, 137600, Note_on_c, 1, 74, 96
3, 137728, Note_off_c, 1, 74, 0
3, 137728, Note_on_c, 1, 73, 96
3, 137856, Note_off_c, 1, 73, 0
3, 137856, Note_on_c, 1, 74, 96
3, 137984, Note_off_c, 1, 74, 0
3, 137984, Note_on_c, 1, 71, 96
3, 138240, Note_off_c, 1, 71, 0
3, 138240, Note_on_c, 1, 71, 96
3, 138496, Note_off_c, 1, 71, 0
3, 138496, Note_on_c, 1, 69, 96
3, 138752, Note_off_c, 1, 69, 0
3, 138752, Note_on_c, 1, 67, 96
3, 139008, Note_off_c, 1, 67, 0
3, 139008, Note_on_c, 1, 66, 96
3, 139136, Note_off_c, 1, 66, 0
3, 139136, Note_on_c, 1, 67, 96
3, 139264, Note_off_c, 1, 67, 0
3, 139264, Note_on_c, 1, 66, 96
3, 139520, Note_off_c, 1, 66, 0
3, 139520, Note_on_c, 1, 67, 96
3, 139648, Note_off_c, 1, 67, 0
3, 139648, Note_on_c, 1, 64, 96
3, 139776, Note_off_c, 1, 64, 0
3, 139776, Note_on_c, 1, 66, 96
3, 140032, Note_off_c, 1, 66, 0
3, 140032, Note_on_c, 1, 68, 96
3, 140288, Note_off_c, 1, 68, 0
3, 140288, Note_on_c, 1, 69, 96
3, 140544, Note_off_c, 1, 69, 0
3, 140544, Note_on_c, 1, 68, 96
3, 140800, Note_off_c, 1, 68, 0
3, 140800, Note_on_c, 1, 71, 96
3, 141056, Note_off_c, 1, 71, 0
3, 141056, Note_on_c, 1, 70, 96
3, 141312, Note_off_c, 1, 70, 0
3, 141312, Note_on_c, 1, 71, 96
3, 142080, Note_off_c, 1, 71, 0
3, 142080, Note_on_c, 1, 73, 96
3, 142208, Note_off_c, 1, 73, 0
3, 142208, Note_on_c, 1, 74, 96
3, 142336, Note_off_c, 1, 74, 0
3, 142336, Note_on_c, 1, 73, 96
3, 143616, Note_off_c, 1, 73, 0
3, 143616, Note_on_c, 1, 66, 96
3, 143872, Note_off_c, 1, 66, 0
3, 143872, Note_on_c, 1, 71, 96
3, 144640, Note_off_c, 1, 71, 0
3, 144640, Note_on_c, 1, 69, 96
3, 144768, Note_off_c, 1, 69, 0
3, 144768, Note_on_c, 1, 68, 96
3, 144896, Note_off_c, 1, 68, 0
3, 144896, Note_on_c, 1, 69, 96
3, 145664, Note_off_c, 1, 69, 0
3, 145664, Note_on_c, 1, 68, 96
3, 145920, Note_off_c, 1, 68, 0
3, 145920, Note_on_c, 1, 76, 96
3, 146944, Note_off_c, 1, 76, 0
3, 146944, Note_on_c, 1, 74, 96
3, 147456, Note_off_c, 1, 74, 0
3, 147456, Note_on_c, 1, 73, 96
3, 147968, Note_off_c, 1, 73, 0
3, 147968, Note_on_c, 1, 71, 96
3, 148224, Note_off_c, 1, 71, 0
3, 148224, Note_on_c, 1, 69, 96
3, 148480, Note_off_c, 1, 69, 0
3, 148480, Note_on_c, 1, 71, 96
3, 148736, Note_off_c, 1, 71, 0
3, 148736, Note_on_c, 1, 73, 96
3, 148992, Note_off_c, 1, 73, 0
3, 148992, Note_on_c, 1, 73, 96
3, 149248, Note_off_c, 1, 73, 0
3, 149248, Note_on_c, 1, 71, 96
3, 149376, Note_off_c, 1, 71, 0
3, 149376, Note_on_c, 1, 73, 96
3, 149504, Note_off_c, 1, 73, 0
3, 149504, Note_on_c, 1, 74, 96
3, 149760, Note_off_c, 1, 74, 0
3, 149760, Note_on_c, 1, 71, 96
3, 150016, Note_off_c, 1, 71, 0
3, 150016, Note_on_c, 1, 69, 96
3, 150272, Note_off_c, 1, 69, 0
3, 150272, Note_on_c, 1, 68, 96
3, 150528, Note_off_c, 1, 68, 0
3, 150528, Note_on_c, 1, 69, 96
3, 150784, Note_off_c, 1, 69, 0
3, 150784, Note_on_c, 1, 71, 96
3, 151040, Note_off_c, 1, 71, 0
3, 151040, Note_on_c, 1, 71, 96
3, 151296, Note_off_c, 1, 71, 0
3, 151296, Note_on_c, 1, 69, 96
3, 151424, Note_off_c, 1, 69, 0
3, 151424, Note_on_c, 1, 71, 96
3, 151552, Note_off_c, 1, 71, 0
3, 151552, Note_on_c, 1, 73, 96
3, 151808, Note_off_c, 1, 73, 0
3, 151808, Note_on_c, 1, 69, 96
3, 152064, Note_off_c, 1, 69, 0
3, 152064, Note_on_c, 1, 66, 96
3, 153088, Note_off_c, 1, 66, 0
3, 153088, Note_on_c, 1, 64, 96
3, 153344, Note_off_c, 1, 64, 0
3, 153344, Note_on_c, 1, 62, 96
3, 153600, Note_off_c, 1, 62, 0
3, 153600, Note_on_c, 1, 61, 96
3, 153856, Note_off_c, 1, 61, 0
3, 153856, Note_on_c, 1, 59, 96
3, 154112, Note_off_c, 1, 59, 0
3, 154112, Note_on_c, 1, 61, 96
3, 154368, Note_off_c, 1, 61, 0
3, 154368, Note_on_c, 1, 64, 96
3, 154624, Note_off_c, 1, 64, 0
3, 154624, Note_on_c, 1, 62, 96
3, 154880, Note_off_c, 1, 62, 0
3, 154880, Note_on_c, 1, 66, 96
3, 155136, Note_off_c, 1, 66, 0
3, 155136, Note_on_c, 1, 64, 96
3, 155392, Note_off_c, 1, 64, 0
3, 155392, Note_on_c, 1, 67, 96
3, 155648, Note_off_c, 1, 67, 0
3, 155648, Note_on_c, 1, 66, 96
3, 156160, Note_off_c, 1, 66, 0
3, 156160, Note_on_c, 1, 66, 96
3, 156672, Note_off_c, 1, 66, 0
3, 156672, Note_on_c, 1, 66, 96
3, 156928, Note_off_c, 1, 66, 0
3, 156928, Note_on_c, 1, 64, 96
3, 157184, Note_off_c, 1, 64, 0
3, 157184, Note_on_c, 1, 64, 96
3, 157440, Note_off_c, 1, 64, 0
3, 157440, Note_on_c, 1, 62, 96
3, 157696, Note_off_c, 1, 62, 0
3, 157696, Note_on_c, 1, 62, 96
3, 157952, Note_off_c, 1, 62, 0
3, 157952, Note_on_c, 1, 66, 96
3, 158208, Note_off_c, 1, 66, 0
3, 158208, Note_on_c, 1, 71, 96
3, 158720, Note_off_c, 1, 71, 0
3, 158720, Note_on_c, 1, 67, 96
3, 159232, Note_off_c, 1, 67, 0
3, 159232, Note_on_c, 1, 64, 96
3, 159744, Note_off_c, 1, 64, 0
3, 159744, Note_on_c, 1, 61, 96
3, 160000, Note_off_c, 1, 61, 0
3, 160000, Note_on_c, 1, 67, 96
3, 160256, Note_off_c, 1, 67, 0
3, 160256, Note_on_c, 1, 66, 96
3, 161280, Note_off_c, 1, 66, 0
3, 161280, Note_on_c, 1, 64, 96
3, 162048, Note_off_c, 1, 64, 0
3, 162048, Note_on_c, 1, 61, 96
3, 162304, Note_off_c, 1, 61, 0
3, 162304, Note_on_c, 1, 62, 96
3, 162560, Note_off_c, 1, 62, 0
3, 162560, Note_on_c, 1, 59, 96
3, 162816, Note_off_c, 1, 59, 0
3, 162816, Note_on_c, 1, 56, 96
3, 163328, Note_off_c, 1, 56, 0
3, 163328, Note_on_c, 1, 58, 96
3, 163840, Note_off_c, 1, 58, 0
3, 163840, Note_on_c, 1, 59, 96
3, 164096, Note_off_c, 1, 59, 0
3, 164096, Note_on_c, 1, 66, 96
3, 164352, Note_off_c, 1, 66, 0
3, 164352, Note_on_c, 1, 64, 96
3, 164608, Note_off_c, 1, 64, 0
3, 164608, Note_on_c, 1, 62, 96
3, 164864, Note_off_c, 1, 62, 0
3, 164864, Note_on_c, 1, 64, 96
3, 165120, Note_off_c, 1, 64, 0
3, 165120, Note_on_c, 1, 66, 96
3, 165376, Note_off_c, 1, 66, 0
3, 165376, Note_on_c, 1, 66, 96
3, 165632, Note_off_c, 1, 66, 0
3, 165632, Note_on_c, 1, 64, 96
3, 165760, Note_off_c, 1, 64, 0
3, 165760, Note_on_c, 1, 66, 96
3, 165888, Note_off_c, 1, 66, 0
3, 165888, Note_on_c, 1, 67, 96
3, 166144, Note_off_c, 1, 67, 0
3, 166144, Note_on_c, 1, 64, 96
3, 166400, Note_off_c, 1, 64, 0
3, 166400, Note_on_c, 1, 62, 96
3, 166656, Note_off_c, 1, 62, 0
3, 166656, Note_on_c, 1, 61, 96
3, 166912, Note_off_c, 1, 61, 0
3, 166912, Note_on_c, 1, 62, 96
3, 167168, Note_off_c, 1, 62, 0
3, 167168, Note_on_c, 1, 64, 96
3, 167424, Note_off_c, 1, 64, 0
3, 167424, Note_on_c, 1, 64, 96
3, 167680, Note_off_c, 1, 64, 0
3, 167680, Note_on_c, 1, 62, 96
3, 167808, Note_off_c, 1, 62, 0
3, 167808, Note_on_c, 1, 64, 96
3, 167936, Note_off_c, 1, 64, 0
3, 167936, Note_on_c, 1, 66, 96
3, 168192, Note_off_c, 1, 66, 0
3, 168192, Note_on_c, 1, 68, 96
3, 168448, Note_off_c, 1, 68, 0
3, 168448, Note_on_c, 1, 69, 96
3, 168704, Note_off_c, 1, 69, 0
3, 168704, Note_on_c, 1, 71, 96
3, 168960, Note_off_c, 1, 71, 0
3, 168960, Note_on_c, 1, 68, 96
3, 169216, Note_off_c, 1, 68, 0
3, 169216, Note_on_c, 1, 69, 96
3, 169472, Note_off_c, 1, 69, 0
3, 169472, Note_on_c, 1, 69, 96
3, 169600, Note_off_c, 1, 69, 0
3, 169600, Note_on_c, 1, 68, 96
3, 169728, Note_off_c, 1, 68, 0
3, 169728, Note_on_c, 1, 69, 96
3, 169856, Note_off_c, 1, 69, 0
3, 169856, Note_on_c, 1, 71, 96
3, 169984, Note_off_c, 1, 71, 0
3, 169984, Note_on_c, 1, 64, 96
3, 170240, Note_off_c, 1, 64, 0
3, 170240, Note_on_c, 1, 62, 96
3, 170496, Note_off_c, 1, 62, 0
3, 170496, Note_on_c, 1, 61, 96
3, 170752, Note_off_c, 1, 61, 0
3, 170752, Note_on_c, 1, 59, 96
3, 171008, Note_off_c, 1, 59, 0
3, 171008, Note_on_c, 1, 57, 96
3, 171264, Note_off_c, 1, 57, 0
3, 171264, Note_on_c, 1, 56, 96
3, 171520, Note_off_c, 1, 56, 0
3, 171520, Note_on_c, 1, 57, 96
3, 171776, Note_off_c, 1, 57, 0
3, 171776, Note_on_c, 1, 59, 96
3, 172032, Note_off_c, 1, 59, 0
3, 172032, Note_on_c, 1, 56, 96
3, 172544, Note_off_c, 1, 56, 0
3, 172544, Note_on_c, 1, 69, 96
3, 173056, Note_off_c, 1, 69, 0
3, 173056, Note_on_c, 1, 66, 96
3, 173568, Note_off_c, 1, 66, 0
3, 173568, Note_on_c, 1, 62, 96
3, 174080, Note_off_c, 1, 62, 0
3, 174080, Note_on_c, 1, 59, 96
3, 174592, Note_off_c, 1, 59, 0
3, 174592, Note_on_c, 1, 68, 96
3, 175616, Note_off_c, 1, 68, 0
3, 175616, Note_on_c, 1, 66, 96
3, 176128, Note_off_c, 1, 66, 0
3, 176128, Note_on_c, 1, 64, 96
3, 176384, Note_off_c, 1, 64, 0
3, 176384, Note_on_c, 1, 73, 96
3, 176640, Note_off_c, 1, 73, 0
3, 176640, Note_on_c, 1, 71, 96
3, 176896, Note_off_c, 1, 71, 0
3, 176896, Note_on_c, 1, 69, 96
3, 177152, Note_off_c, 1, 69, 0
3, 177152, Note_on_c, 1, 68, 96
3, 177408, Note_off_c, 1, 68, 0
3, 177408, Note_on_c, 1, 66, 96
3, 177664, Note_off_c, 1, 66, 0
3, 177664, Note_on_c, 1, 65, 96
3, 177920, Note_off_c, 1, 65, 0
3, 177920, Note_on_c, 1, 66, 96
3, 178176, Note_off_c, 1, 66, 0
3, 178176, Note_on_c, 1, 68, 96
3, 178688, Note_off_c, 1, 68, 0
3, 178688, Note_on_c, 1, 65, 96
3, 179200, Note_off_c, 1, 65, 0
3, 179200, Note_on_c, 1, 66, 96
3, 179456, Note_off_c, 1, 66, 0
3, 179456, Note_on_c, 1, 68, 96
3, 179712, Note_off_c, 1, 68, 0
3, 179712, Note_on_c, 1, 68, 96
3, 179968, Note_off_c, 1, 68, 0
3, 179968, Note_on_c, 1, 69, 96
3, 180224, Note_off_c, 1, 69, 0
3, 180224, Note_on_c, 1, 69, 96
3, 180480, Note_off_c, 1, 69, 0
3, 180480, Note_on_c, 1, 71, 96
3, 180608, Note_off_c, 1, 71, 0
3, 180608, Note_on_c, 1, 69, 96
3, 180736, Note_off_c, 1, 69, 0
3, 180736, Note_on_c, 1, 68, 96
3, 180992, Note_off_c, 1, 68, 0
3, 180992, Note_on_c, 1, 69, 96
3, 181120, Note_off_c, 1, 69, 0
3, 181120, Note_on_c, 1, 71, 96
3, 181248, Note_off_c, 1, 71, 0
3, 181248, Note_on_c, 1, 65, 96
3, 182016, Note_off_c, 1, 65, 0
3, 182016, Note_on_c, 1, 66, 96
3, 182272, Note_off_c, 1, 66, 0
3, 182272, Note_on_c, 1, 66, 96
3, 182784, Note_off_c, 1, 66, 0
3, 182784, Note_on_c, 1, 66, 96
3, 183296, Note_off_c, 1, 66, 0
3, 183296, Note_on_c, 1, 68, 96
3, 183808, Note_off_c, 1, 68, 0
3, 183808, Note_on_c, 1, 70, 96
3, 184320, Note_off_c, 1, 70, 0
3, 184320, Note_on_c, 1, 71, 96
3, 184832, Note_off_c, 1, 71, 0
3, 184832, Note_on_c, 1, 68, 96
3, 185344, Note_off_c, 1, 68, 0
3, 185344, Note_on_c, 1, 69, 96
3, 185856, Note_off_c, 1, 69, 0
3, 185856, Note_on_c, 1, 71, 96
3, 186368, Note_off_c, 1, 71, 0
3, 186368, Note_on_c, 1, 64, 96
3, 186624, Note_off_c, 1, 64, 0
3, 186624, Note_on_c, 1, 62, 96
3, 186880, Note_off_c, 1, 62, 0
3, 186880, Note_on_c, 1, 64, 96
3, 187136, Note_off_c, 1, 64, 0
3, 187136, Note_on_c, 1, 66, 96
3, 187392, Note_off_c, 1, 66, 0
3, 187392, Note_on_c, 1, 64, 96
3, 187648, Note_off_c, 1, 64, 0
3, 187648, Note_on_c, 1, 68, 96
3, 187904, Note_off_c, 1, 68, 0
3, 187904, Note_on_c, 1, 66, 96
3, 188160, Note_off_c, 1, 66, 0
3, 188160, Note_on_c, 1, 69, 96
3, 188416, Note_off_c, 1, 69, 0
3, 188416, Note_on_c, 1, 68, 96
3, 188672, Note_off_c, 1, 68, 0
3, 188672, Note_on_c, 1, 66, 96
3, 188928, Note_off_c, 1, 66, 0
3, 188928, Note_on_c, 1, 64, 96
3, 189184, Note_off_c, 1, 64, 0
3, 189184, Note_on_c, 1, 68, 96
3, 189440, Note_off_c, 1, 68, 0
3, 189440, Note_on_c, 1, 66, 96
3, 189696, Note_off_c, 1, 66, 0
3, 189696, Note_on_c, 1, 69, 96
3, 189952, Note_off_c, 1, 69, 0
3, 189952, Note_on_c, 1, 68, 96
3, 190208, Note_off_c, 1, 68, 0
3, 190208, Note_on_c, 1, 71, 96
3, 190464, Note_off_c, 1, 71, 0
3, 190464, Note_on_c, 1, 69, 96
3, 190976, Note_off_c, 1, 69, 0
3, 190976, Note_on_c, 1, 57, 96
3, 191232, Note_off_c, 1, 57, 0
3, 191232, Note_on_c, 1, 59, 96
3, 191488, Note_off_c, 1, 59, 0
3, 191488, Note_on_c, 1, 61, 96
3, 192000, Note_off_c, 1, 61, 0
3, 192000, Note_on_c, 1, 63, 96
3, 192512, Note_off_c, 1, 63, 0
3, 192512, Note_on_c, 1, 64, 96
3, 193024, Note_off_c, 1, 64, 0
3, 193024, Note_on_c, 1, 68, 96
3, 193536, Note_off_c, 1, 68, 0
3, 193536, Note_on_c, 1, 64, 96
3, 194048, Note_off_c, 1, 64, 0
3, 194048, Note_on_c, 1, 61, 96
3, 194560, Note_off_c, 1, 61, 0
3, 194560, Note_on_c, 1, 57, 96
3, 195072, Note_off_c, 1, 57, 0
3, 195072, Note_on_c, 1, 66, 96
3, 196096, Note_off_c, 1, 66, 0
3, 196096, Note_on_c, 1, 65, 96
3, 196608, Note_off_c, 1, 65, 0
3, 196608, Note_on_c, 1, 66, 96
3, 198912, Note_off_c, 1, 66, 0
3, 198912, Note_on_c, 1, 64, 96
3, 199168, Note_off_c, 1, 64, 0
3, 199168, Note_on_c, 1, 62, 96
3, 199424, Note_off_c, 1, 62, 0
3, 199424, Note_on_c, 1, 61, 96
3, 199680, Note_off_c, 1, 61, 0
3, 199680, Note_on_c, 1, 59, 96
3, 200192, Note_off_c, 1, 59, 0
3, 200192, Note_on_c, 1, 64, 96
3, 201728, Note_off_c, 1, 64, 0
3, 201728, Note_on_c, 1, 62, 96
3, 202240, Note_off_c, 1, 62, 0
3, 202240, Note_on_c, 1, 61, 96
3, 202752, Note_off_c, 1, 61, 0
3, 202752, Note_on_c, 1, 62, 96
3, 203008, Note_off_c, 1, 62, 0
3, 203008, Note_on_c, 1, 61, 96
3, 203264, Note_off_c, 1, 61, 0
3, 203264, Note_on_c, 1, 62, 96
3, 203520, Note_off_c, 1, 62, 0
3, 203520, Note_on_c, 1, 64, 96
3, 203776, Note_off_c, 1, 64, 0
3, 203776, Note_on_c, 1, 66, 96
3, 204032, Note_off_c, 1, 66, 0
3, 204032, Note_on_c, 1, 67, 96
3, 204288, Note_off_c, 1, 67, 0
3, 204288, Note_on_c, 1, 69, 96
3, 204416, Note_off_c, 1, 69, 0
3, 204416, Note_on_c, 1, 67, 96
3, 204544, Note_off_c, 1, 67, 0
3, 204544, Note_on_c, 1, 66, 96
3, 204672, Note_off_c, 1, 66, 0
3, 204672, Note_on_c, 1, 67, 96
3, 204800, Note_off_c, 1, 67, 0
3, 204800, Note_on_c, 1, 69, 96
3, 205568, Note_off_c, 1, 69, 0
3, 205568, Note_on_c, 1, 67, 96
3, 205824, Note_off_c, 1, 67, 0
3, 205824, Note_on_c, 1, 66, 96
3, 207104, Note_off_c, 1, 66, 0
3, 207104, Note_on_c, 1, 66, 96
3, 207360, Note_off_c, 1, 66, 0
3, 207360, Note_on_c, 1, 64, 96
3, 207616, Note_off_c, 1, 64, 0
3, 207616, Note_on_c, 1, 62, 96
3, 207872, Note_off_c, 1, 62, 0
3, 207872, Note_on_c, 1, 64, 96
3, 208384, Note_off_c, 1, 64, 0
3, 208384, Note_on_c, 1, 63, 96
3, 208640, Note_off_c, 1, 63, 0
3, 208640, Note_on_c, 1, 64, 96
3, 208896, Note_off_c, 1, 64, 0
3, 208896, Note_on_c, 1, 66, 96
3, 209920, Note_off_c, 1, 66, 0
3, 214528, Note_on_c, 1, 66, 96
3, 215040, Note_off_c, 1, 66, 0
3, 215040, Note_on_c, 1, 64, 96
3, 221184, Note_off_c, 1, 64, 0
3, 221184, End_track
4, 0, Start_track
4, 0, Title_t, "Instrument 3"
4, 3584, Note_on_c, 2, 57, 96
4, 3840, Note_off_c, 2, 57, 0
4, 3840, Note_on_c, 2, 59, 96
4, 4096, Note_off_c, 2, 59, 0
4, 4096, Note_on_c, 2, 61, 96
4, 4608, Note_off_c, 2, 61, 0
4, 4608, Note_on_c, 2, 66, 96
4, 5120, Note_off_c, 2, 66, 0
4, 5120, Note_on_c, 2, 62, 96
4, 5632, Note_off_c, 2, 62, 0
4, 5632, Note_on_c, 2, 59, 96
4, 6144, Note_off_c, 2, 59, 0
4, 6144, Note_on_c, 2, 56, 96
4, 6656, Note_off_c, 2, 56, 0
4, 6656, Note_on_c, 2, 64, 96
4, 7680, Note_off_c, 2, 64, 0
4, 7680, Note_on_c, 2, 62, 96
4, 8192, Note_off_c, 2, 62, 0
4, 8192, Note_on_c, 2, 61, 96
4, 9216, Note_off_c, 2, 61, 0
4, 9216, Note_on_c, 2, 59, 96
4, 10240, Note_off_c, 2, 59, 0
4, 10240, Note_on_c, 2, 61, 96
4, 11008, Note_off_c, 2, 61, 0
4, 11008, Note_on_c, 2, 59, 96
4, 11264, Note_off_c, 2, 59, 0
4, 11264, Note_on_c, 2, 61, 96
4, 11520, Note_off_c, 2, 61, 0
4, 11520, Note_on_c, 2, 63, 96
4, 11776, Note_off_c, 2, 63, 0
4, 11776, Note_on_c, 2, 63, 96
4, 12032, Note_off_c, 2, 63, 0
4, 12032, Note_on_c, 2, 61, 96
4, 12160, Note_off_c, 2, 61, 0
4, 12160, Note_on_c, 2, 63, 96
4, 12288, Note_off_c, 2, 63, 0
4, 12288, Note_on_c, 2, 64, 96
4, 13312, Note_off_c, 2, 64, 0
4, 13312, Note_on_c, 2, 61, 96
4, 14848, Note_off_c, 2, 61, 0
4, 14848, Note_on_c, 2, 59, 96
4, 15360, Note_off_c, 2, 59, 0
4, 15360, Note_on_c, 2, 61, 96
4, 15872, Note_off_c, 2, 61, 0
4, 15872, Note_on_c, 2, 63, 96
4, 16384, Note_off_c, 2, 63, 0
4, 16384, Note_on_c, 2, 64, 96
4, 16640, Note_off_c, 2, 64, 0
4, 16640, Note_on_c, 2, 59, 96
4, 16896, Note_off_c, 2, 59, 0
4, 16896, Note_on_c, 2, 64, 96
4, 17920, Note_off_c, 2, 64, 0
4, 17920, Note_on_c, 2, 63, 96
4, 18432, Note_off_c, 2, 63, 0
4, 18432, Note_on_c, 2, 64, 96
4, 18944, Note_off_c, 2, 64, 0
4, 18944, Note_on_c, 2, 59, 96
4, 19200, Note_off_c, 2, 59, 0
4, 19200, Note_on_c, 2, 57, 96
4, 19456, Note_off_c, 2, 57, 0
4, 19456, Note_on_c, 2, 59, 96
4, 19712, Note_off_c, 2, 59, 0
4, 19712, Note_on_c, 2, 61, 96
4, 19968, Note_off_c, 2, 61, 0
4, 19968, Note_on_c, 2, 61, 96
4, 20224, Note_off_c, 2, 61, 0
4, 20224, Note_on_c, 2, 59, 96
4, 20352, Note_off_c, 2, 59, 0
4, 20352, Note_on_c, 2, 61, 96
4, 20480, Note_off_c, 2, 61, 0
4, 20480, Note_on_c, 2, 62, 96
4, 20736, Note_off_c, 2, 62, 0
4, 20736, Note_on_c, 2, 61, 96
4, 20992, Note_off_c, 2, 61, 0
4, 20992, Note_on_c, 2, 62, 96
4, 21248, Note_off_c, 2, 62, 0
4, 21248, Note_on_c, 2, 64, 96
4, 21504, Note_off_c, 2, 64, 0
4, 21504, Note_on_c, 2, 66, 96
4, 21760, Note_off_c, 2, 66, 0
4, 21760, Note_on_c, 2, 68, 96
4, 22016, Note_off_c, 2, 68, 0
4, 22016, Note_on_c, 2, 68, 96
4, 22272, Note_off_c, 2, 68, 0
4, 22272, Note_on_c, 2, 66, 96
4, 22400, Note_off_c, 2, 66, 0
4, 22400, Note_on_c, 2, 68, 96
4, 22528, Note_off_c, 2, 68, 0
4, 22528, Note_on_c, 2, 69, 96
4, 23040, Note_off_c, 2, 69, 0
4, 23040, Note_on_c, 2, 71, 96
4, 24064, Note_off_c, 2, 71, 0
4, 24064, Note_on_c, 2, 69, 96
4, 24576, Note_off_c, 2, 69, 0
4, 24576, Note_on_c, 2, 68, 96
4, 25600, Note_off_c, 2, 68, 0
4, 25600, Note_on_c, 2, 66, 96
4, 27136, Note_off_c, 2, 66, 0
4, 27136, Note_on_c, 2, 64, 96
4, 27648, Note_off_c, 2, 64, 0
4, 27648, Note_on_c, 2, 66, 96
4, 28160, Note_off_c, 2, 66, 0
4, 28160, Note_on_c, 2, 68, 96
4, 28672, Note_off_c, 2, 68, 0
4, 28672, Note_on_c, 2, 69, 96
4, 28928, Note_off_c, 2, 69, 0
4, 28928, Note_on_c, 2, 64, 96
4, 29184, Note_off_c, 2, 64, 0
4, 29184, Note_on_c, 2, 69, 96
4, 30208, Note_off_c, 2, 69, 0
4, 30208, Note_on_c, 2, 68, 96
4, 30464, Note_off_c, 2, 68, 0
4, 30464, Note_on_c, 2, 66, 96
4, 30720, Note_off_c, 2, 66, 0
4, 30720, Note_on_c, 2, 64, 96
4, 30976, Note_off_c, 2, 64, 0
4, 30976, Note_on_c, 2, 62, 96
4, 31232, Note_off_c, 2, 62, 0
4, 31232, Note_on_c, 2, 64, 96
4, 31488, Note_off_c, 2, 64, 0
4, 31488, Note_on_c, 2, 68, 96
4, 31744, Note_off_c, 2, 68, 0
4, 31744, Note_on_c, 2, 66, 96
4, 32000, Note_off_c, 2, 66, 0
4, 32000, Note_on_c, 2, 69, 96
4, 32256, Note_off_c, 2, 69, 0
4, 32256, Note_on_c, 2, 68, 96
4, 32512, Note_off_c, 2, 68, 0
4, 32512, Note_on_c, 2, 71, 96
4, 32768, Note_off_c, 2, 71, 0
4, 32768, Note_on_c, 2, 69, 96
4, 33024, Note_off_c, 2, 69, 0
4, 33024, Note_on_c, 2, 64, 96
4, 33280, Note_off_c, 2, 64, 0
4, 33280, Note_on_c, 2, 57, 96
4, 34304, Note_off_c, 2, 57, 0
4, 34304, Note_on_c, 2, 56, 96
4, 34816, Note_off_c, 2, 56, 0
4, 34816, Note_on_c, 2, 57, 96
4, 35072, Note_off_c, 2, 57, 0
4, 35072, Note_on_c, 2, 64, 96
4, 35328, Note_off_c, 2, 64, 0
4, 35328, Note_on_c, 2, 67, 96
4, 36096, Note_off_c, 2, 67, 0
4, 36096, Note_on_c, 2, 64, 96
4, 36352, Note_off_c, 2, 64, 0
4, 36352, Note_on_c, 2, 66, 96
4, 36608, Note_off_c, 2, 66, 0
4, 36608, Note_on_c, 2, 62, 96
4, 36864, Note_off_c, 2, 62, 0
4, 36864, Note_on_c, 2, 64, 96
4, 38144, Note_off_c, 2, 64, 0
4, 38144, Note_on_c, 2, 62, 96
4, 38400, Note_off_c, 2, 62, 0
4, 38400, Note_on_c, 2, 61, 96
4, 38656, Note_off_c, 2, 61, 0
4, 38656, Note_on_c, 2, 59, 96
4, 38912, Note_off_c, 2, 59, 0
4, 38912, Note_on_c, 2, 61, 96
4, 39680, Note_off_c, 2, 61, 0
4, 39680, Note_on_c, 2, 62, 96
4, 40192, Note_off_c, 2, 62, 0
4, 40192, Note_on_c, 2, 61, 96
4, 40448, Note_off_c, 2, 61, 0
4, 40448, Note_on_c, 2, 59, 96
4, 40960, Note_off_c, 2, 59, 0
4, 40960, Note_on_c, 2, 57, 96
4, 42240, Note_off_c, 2, 57, 0
4, 42240, Note_on_c, 2, 54, 96
4, 42496, Note_off_c, 2, 54, 0
4, 42496, Note_on_c, 2, 56, 96
4, 42752, Note_off_c, 2, 56, 0
4, 42752, Note_on_c, 2, 57, 96
4, 43008, Note_off_c, 2, 57, 0
4, 43008, Note_on_c, 2, 59, 96
4, 43264, Note_off_c, 2, 59, 0
4, 43264, Note_on_c, 2, 57, 96
4, 43520, Note_off_c, 2, 57, 0
4, 43520, Note_on_c, 2, 56, 96
4, 44032, Note_off_c, 2, 56, 0
4, 44032, Note_on_c, 2, 57, 96
4, 44544, Note_off_c, 2, 57, 0
4, 44544, Note_on_c, 2, 59, 96
4, 45056, Note_off_c, 2, 59, 0
4, 45056, Note_on_c, 2, 61, 96
4, 46080, Note_off_c, 2, 61, 0
4, 46080, Note_on_c, 2, 62, 96
4, 47104, Note_off_c, 2, 62, 0
4, 47360, Note_on_c, 2, 62, 96
4, 47616, Note_off_c, 2, 62, 0
4, 47616, Note_on_c, 2, 61, 96
4, 47872, Note_off_c, 2, 61, 0
4, 47872, Note_on_c, 2, 59, 96
4, 48128, Note_off_c, 2, 59, 0
4, 48128, Note_on_c, 2, 57, 96
4, 48640, Note_off_c, 2, 57, 0
4, 48640, Note_on_c, 2, 59, 96
4, 49152, Note_off_c, 2, 59, 0
4, 49152, Note_on_c, 2, 61, 96
4, 49664, Note_off_c, 2, 61, 0
4, 49664, Note_on_c, 2, 62, 96
4, 50432, Note_off_c, 2, 62, 0
4, 50432, Note_on_c, 2, 61, 96
4, 50688, Note_off_c, 2, 61, 0
4, 50688, Note_on_c, 2, 56, 96
4, 50944, Note_off_c, 2, 56, 0
4, 50944, Note_on_c, 2, 59, 96
4, 51200, Note_off_c, 2, 59, 0
4, 51200, Note_on_c, 2, 57, 96
4, 52480, Note_off_c, 2, 57, 0
4, 52480, Note_on_c, 2, 56, 96
4, 52736, Note_off_c, 2, 56, 0
4, 52736, Note_on_c, 2, 59, 96
4, 52992, Note_off_c, 2, 59, 0
4, 52992, Note_on_c, 2, 57, 96
4, 53248, Note_off_c, 2, 57, 0
4, 53248, Note_on_c, 2, 57, 96
4, 53504, Note_off_c, 2, 57, 0
4, 53504, Note_on_c, 2, 61, 96
4, 53760, Note_off_c, 2, 61, 0
4, 53760, Note_on_c, 2, 59, 96
4, 54016, Note_off_c, 2, 59, 0
4, 54016, Note_on_c, 2, 61, 96
4, 54272, Note_off_c, 2, 61, 0
4, 54272, Note_on_c, 2, 62, 96
4, 55296, Note_off_c, 2, 62, 0
4, 55552, Note_on_c, 2, 59, 96
4, 55808, Note_off_c, 2, 59, 0
4, 55808, Note_on_c, 2, 61, 96
4, 56064, Note_off_c, 2, 61, 0
4, 56064, Note_on_c, 2, 62, 96
4, 56320, Note_off_c, 2, 62, 0
4, 56320, Note_on_c, 2, 64, 96
4, 57088, Note_off_c, 2, 64, 0
4, 57088, Note_on_c, 2, 59, 96
4, 57344, Note_off_c, 2, 59, 0
4, 57344, Note_on_c, 2, 64, 96
4, 57856, Note_off_c, 2, 64, 0
4, 57856, Note_on_c, 2, 62, 96
4, 58112, Note_off_c, 2, 62, 0
4, 58112, Note_on_c, 2, 61, 96
4, 58368, Note_off_c, 2, 61, 0
4, 58368, Note_on_c, 2, 59, 96
4, 58624, Note_off_c, 2, 59, 0
4, 58624, Note_on_c, 2, 57, 96
4, 59648, Note_off_c, 2, 57, 0
4, 59648, Note_on_c, 2, 56, 96
4, 59904, Note_off_c, 2, 56, 0
4, 59904, Note_on_c, 2, 57, 96
4, 60928, Note_off_c, 2, 57, 0
4, 60928, Note_on_c, 2, 56, 96
4, 61440, Note_off_c, 2, 56, 0
4, 61440, Note_on_c, 2, 57, 96
4, 61952, Note_off_c, 2, 57, 0
4, 63744, Note_on_c, 2, 62, 96
4, 64000, Note_off_c, 2, 62, 0
4, 64000, Note_on_c, 2, 61, 96
4, 64256, Note_off_c, 2, 61, 0
4, 64256, Note_on_c, 2, 59, 96
4, 64512, Note_off_c, 2, 59, 0
4, 64512, Note_on_c, 2, 57, 96
4, 64768, Note_off_c, 2, 57, 0
4, 64768, Note_on_c, 2, 59, 96
4, 65024, Note_off_c, 2, 59, 0
4, 65024, Note_on_c, 2, 59, 96
4, 65280, Note_off_c, 2, 59, 0
4, 65280, Note_on_c, 2, 57, 96
4, 65408, Note_off_c, 2, 57, 0
4, 65408, Note_on_c, 2, 59, 96
4, 65536, Note_off_c, 2, 59, 0
4, 65536, Note_on_c, 2, 61, 96
4, 66048, Note_off_c, 2, 61, 0
4, 66048, Note_on_c, 2, 57, 96
4, 66560, Note_off_c, 2, 57, 0
4, 66560, Note_on_c, 2, 59, 96
4, 66816, Note_off_c, 2, 59, 0
4, 66816, Note_on_c, 2, 61, 96
4, 67072, Note_off_c, 2, 61, 0
4, 67072, Note_on_c, 2, 62, 96
4, 67328, Note_off_c, 2, 62, 0
4, 67328, Note_on_c, 2, 61, 96
4, 67584, Note_off_c, 2, 61, 0
4, 67584, Note_on_c, 2, 62, 96
4, 68864, Note_off_c, 2, 62, 0
4, 68864, Note_on_c, 2, 61, 96
4, 69120, Note_off_c, 2, 61, 0
4, 69120, Note_on_c, 2, 59, 96
4, 69376, Note_off_c, 2, 59, 0
4, 69376, Note_on_c, 2, 57, 96
4, 69504, Note_off_c, 2, 57, 0
4, 69504, Note_on_c, 2, 59, 96
4, 69632, Note_off_c, 2, 59, 0
4, 69632, Note_on_c, 2, 61, 96
4, 70144, Note_off_c, 2, 61, 0
4, 70144, Note_on_c, 2, 66, 96
4, 70656, Note_off_c, 2, 66, 0
4, 70656, Note_on_c, 2, 62, 96
4, 71168, Note_off_c, 2, 62, 0
4, 71168, Note_on_c, 2, 59, 96
4, 71680, Note_off_c, 2, 59, 0
4, 71680, Note_on_c, 2, 56, 96
4, 72192, Note_off_c, 2, 56, 0
4, 72192, Note_on_c, 2, 64, 96
4, 73216, Note_off_c, 2, 64, 0
4, 73216, Note_on_c, 2, 62, 96
4, 73728, Note_off_c, 2, 62, 0
4, 73728, Note_on_c, 2, 61, 96
4, 74752, Note_off_c, 2, 61, 0
4, 74752, Note_on_c, 2, 59, 96
4, 75776, Note_off_c, 2, 59, 0
4, 75776, Note_on_c, 2, 61, 96
4, 76544, Note_off_c, 2, 61, 0
4, 76544, Note_on_c, 2, 59, 96
4, 76800, Note_off_c, 2, 59, 0
4, 76800, Note_on_c, 2, 61, 96
4, 77056, Note_off_c, 2, 61, 0
4, 77056, Note_on_c, 2, 63, 96
4, 77312, Note_off_c, 2, 63, 0
4, 77312, Note_on_c, 2, 63, 96
4, 77568, Note_off_c, 2, 63, 0
4, 77568, Note_on_c, 2, 61, 96
4, 77696, Note_off_c, 2, 61, 0
4, 77696, Note_on_c, 2, 63, 96
4, 77824, Note_off_c, 2, 63, 0
4, 77824, Note_on_c, 2, 64, 96
4, 78848, Note_off_c, 2, 64, 0
4, 78848, Note_on_c, 2, 61, 96
4, 80384, Note_off_c, 2, 61, 0
4, 80384, Note_on_c, 2, 59, 96
4, 80896, Note_off_c, 2, 59, 0
4, 80896, Note_on_c, 2, 61, 96
4, 81408, Note_off_c, 2, 61, 0
4, 81408, Note_on_c, 2, 63, 96
4, 81920, Note_off_c, 2, 63, 0
4, 81920, Note_on_c, 2, 64, 96
4, 82176, Note_off_c, 2, 64, 0
4, 82176, Note_on_c, 2, 59, 96
4, 82432, Note_off_c, 2, 59, 0
4, 82432, Note_on_c, 2, 64, 96
4, 83456, Note_off_c, 2, 64, 0
4, 83456, Note_on_c, 2, 63, 96
4, 83968, Note_off_c, 2, 63, 0
4, 83968, Note_on_c, 2, 64, 96
4, 84480, Note_off_c, 2, 64, 0
4, 84480, Note_on_c, 2, 59, 96
4, 84736, Note_off_c, 2, 59, 0
4, 84736, Note_on_c, 2, 57, 96
4, 84992, Note_off_c, 2, 57, 0
4, 84992, Note_on_c, 2, 59, 96
4, 85248, Note_off_c, 2, 59, 0
4, 85248, Note_on_c, 2, 61, 96
4, 85504, Note_off_c, 2, 61, 0
4, 85504, Note_on_c, 2, 61, 96
4, 85760, Note_off_c, 2, 61, 0
4, 85760, Note_on_c, 2, 59, 96
4, 85888, Note_off_c, 2, 59, 0
4, 85888, Note_on_c, 2, 61, 96
4, 86016, Note_off_c, 2, 61, 0
4, 86016, Note_on_c, 2, 62, 96
4, 86272, Note_off_c, 2, 62, 0
4, 86272, Note_on_c, 2, 61, 96
4, 86528, Note_off_c, 2, 61, 0
4, 86528, Note_on_c, 2, 62, 96
4, 86784, Note_off_c, 2, 62, 0
4, 86784, Note_on_c, 2, 64, 96
4, 87040, Note_off_c, 2, 64, 0
4, 87040, Note_on_c, 2, 66, 96
4, 87296, Note_off_c, 2, 66, 0
4, 87296, Note_on_c, 2, 68, 96
4, 87552, Note_off_c, 2, 68, 0
4, 87552, Note_on_c, 2, 68, 96
4, 87808, Note_off_c, 2, 68, 0
4, 87808, Note_on_c, 2, 66, 96
4, 87936, Note_off_c, 2, 66, 0
4, 87936, Note_on_c, 2, 68, 96
4, 88064, Note_off_c, 2, 68, 0
4, 88064, Note_on_c, 2, 69, 96
4, 88576, Note_off_c, 2, 69, 0
4, 88576, Note_on_c, 2, 71, 96
4, 89600, Note_off_c, 2, 71, 0
4, 89600, Note_on_c, 2, 69, 96
4, 90112, Note_off_c, 2, 69, 0
4, 90112, Note_on_c, 2, 68, 96
4, 91136, Note_off_c, 2, 68, 0
4, 91136, Note_on_c, 2, 66, 96
4, 92672, Note_off_c, 2, 66, 0
4, 92672, Note_on_c, 2, 64, 96
4, 93184, Note_off_c, 2, 64, 0
4, 93184, Note_on_c, 2, 66, 96
4, 93696, Note_off_c, 2, 66, 0
4, 93696, Note_on_c, 2, 68, 96
4, 94208, Note_off_c, 2, 68, 0
4, 94208, Note_on_c, 2, 69, 96
4, 94464, Note_off_c, 2, 69, 0
4, 94464, Note_on_c, 2, 64, 96
4, 94720, Note_off_c, 2, 64, 0
4, 94720, Note_on_c, 2, 69, 96
4, 95744, Note_off_c, 2, 69, 0
4, 95744, Note_on_c, 2, 68, 96
4, 96000, Note_off_c, 2, 68, 0
4, 96000, Note_on_c, 2, 66, 96
4, 96256, Note_off_c, 2, 66, 0
4, 96256, Note_on_c, 2, 64, 96
4, 96512, Note_off_c, 2, 64, 0
4, 96512, Note_on_c, 2, 62, 96
4, 96768, Note_off_c, 2, 62, 0
4, 96768, Note_on_c, 2, 64, 96
4, 97024, Note_off_c, 2, 64, 0
4, 97024, Note_on_c, 2, 68, 96
4, 97280, Note_off_c, 2, 68, 0
4, 97280, Note_on_c, 2, 66, 96
4, 97536, Note_off_c, 2, 66, 0
4, 97536, Note_on_c, 2, 69, 96
4, 97792, Note_off_c, 2, 69, 0
4, 97792, Note_on_c, 2, 68, 96
4, 98048, Note_off_c, 2, 68, 0
4, 98048, Note_on_c, 2, 71, 96
4, 98304, Note_off_c, 2, 71, 0
4, 98304, Note_on_c, 2, 69, 96
4, 98560, Note_off_c, 2, 69, 0
4, 98560, Note_on_c, 2, 64, 96
4, 98816, Note_off_c, 2, 64, 0
4, 98816, Note_on_c, 2, 57, 96
4, 99840, Note_off_c, 2, 57, 0
4, 99840, Note_on_c, 2, 56, 96
4, 100352, Note_off_c, 2, 56, 0
4, 100352, Note_on_c, 2, 57, 96
4, 100608, Note_off_c, 2, 57, 0
4, 100608, Note_on_c, 2, 64, 96
4, 100864, Note_off_c, 2, 64, 0
4, 100864, Note_on_c, 2, 67, 96
4, 101632, Note_off_c, 2, 67, 0
4, 101632, Note_on_c, 2, 64, 96
4, 101888, Note_off_c, 2, 64, 0
4, 101888, Note_on_c, 2, 66, 96
4, 102144, Note_off_c, 2, 66, 0
4, 102144, Note_on_c, 2, 62, 96
4, 102400, Note_off_c, 2, 62, 0
4, 102400, Note_on_c, 2, 64, 96
4, 103680, Note_off_c, 2, 64, 0
4, 103680, Note_on_c, 2, 62, 96
4, 103936, Note_off_c, 2, 62, 0
4, 103936, Note_on_c, 2, 61, 96
4, 104192, Note_off_c, 2, 61, 0
4, 104192, Note_on_c, 2, 59, 96
4, 104448, Note_off_c, 2, 59, 0
4, 104448, Note_on_c, 2, 61, 96
4, 105216, Note_off_c, 2, 61, 0
4, 105216, Note_on_c, 2, 62, 96
4, 105728, Note_off_c, 2, 62, 0
4, 105728, Note_on_c, 2, 61, 96
4, 105984, Note_off_c, 2, 61, 0
4, 105984, Note_on_c, 2, 59, 96
4, 106496, Note_off_c, 2, 59, 0
4, 106496, Note_on_c, 2, 57, 96
4, 107776, Note_off_c, 2, 57, 0
4, 107776, Note_on_c, 2, 54, 96
4, 108032, Note_off_c, 2, 54, 0
4, 108032, Note_on_c, 2, 56, 96
4, 108288, Note_off_c, 2, 56, 0
4, 108288, Note_on_c, 2, 57, 96
4, 108544, Note_off_c, 2, 57, 0
4, 108544, Note_on_c, 2, 59, 96
4, 108800, Note_off_c, 2, 59, 0
4, 108800, Note_on_c, 2, 57, 96
4, 109056, Note_off_c, 2, 57, 0
4, 109056, Note_on_c, 2, 56, 96
4, 109568, Note_off_c, 2, 56, 0
4, 109568, Note_on_c, 2, 57, 96
4, 110080, Note_off_c, 2, 57, 0
4, 110080, Note_on_c, 2, 59, 96
4, 110592, Note_off_c, 2, 59, 0
4, 110592, Note_on_c, 2, 61, 96
4, 111616, Note_off_c, 2, 61, 0
4, 111616, Note_on_c, 2, 62, 96
4, 112640, Note_off_c, 2, 62, 0
4, 112896, Note_on_c, 2, 62, 96
4, 113152, Note_off_c, 2, 62, 0
4, 113152, Note_on_c, 2, 61, 96
4, 113408, Note_off_c, 2, 61, 0
4, 113408, Note_on_c, 2, 59, 96
4, 113664, Note_off_c, 2, 59, 0
4, 113664, Note_on_c, 2, 57, 96
4, 114176, Note_off_c, 2, 57, 0
4, 114176, Note_on_c, 2, 59, 96
4, 114688, Note_off_c, 2, 59, 0
4, 114688, Note_on_c, 2, 61, 96
4, 115200, Note_off_c, 2, 61, 0
4, 115200, Note_on_c, 2, 62, 96
4, 115968, Note_off_c, 2, 62, 0
4, 115968, Note_on_c, 2, 61, 96
4, 116224, Note_off_c, 2, 61, 0
4, 116224, Note_on_c, 2, 56, 96
4, 116480, Note_off_c, 2, 56, 0
4, 116480, Note_on_c, 2, 59, 96
4, 116736, Note_off_c, 2, 59, 0
4, 116736, Note_on_c, 2, 57, 96
4, 118016, Note_off_c, 2, 57, 0
4, 118016, Note_on_c, 2, 56, 96
4, 118272, Note_off_c, 2, 56, 0
4, 118272, Note_on_c, 2, 59, 96
4, 118528, Note_off_c, 2, 59, 0
4, 118528, Note_on_c, 2, 57, 96
4, 118784, Note_off_c, 2, 57, 0
4, 118784, Note_on_c, 2, 57, 96
4, 119040, Note_off_c, 2, 57, 0
4, 119040, Note_on_c, 2, 61, 96
4, 119296, Note_off_c, 2, 61, 0
4, 119296, Note_on_c, 2, 59, 96
4, 119552, Note_off_c, 2, 59, 0
4, 119552, Note_on_c, 2, 61, 96
4, 119808, Note_off_c, 2, 61, 0
4, 119808, Note_on_c, 2, 62, 96
4, 120832, Note_off_c, 2, 62, 0
4, 121088, Note_on_c, 2, 59, 96
4, 121344, Note_off_c, 2, 59, 0
4, 121344, Note_on_c, 2, 61, 96
4, 121600, Note_off_c, 2, 61, 0
4, 121600, Note_on_c, 2, 62, 96
4, 121856, Note_off_c, 2, 62, 0
4, 121856, Note_on_c, 2, 64, 96
4, 122624, Note_off_c, 2, 64, 0
4, 122624, Note_on_c, 2, 59, 96
4, 122880, Note_off_c, 2, 59, 0
4, 122880, Note_on_c, 2, 64, 96
4, 123392, Note_off_c, 2, 64, 0
4, 123392, Note_on_c, 2, 62, 96
4, 123648, Note_off_c, 2, 62, 0
4, 123648, Note_on_c, 2, 61, 96
4, 123904, Note_off_c, 2, 61, 0
4, 123904, Note_on_c, 2, 59, 96
4, 124160, Note_off_c, 2, 59, 0
4, 124160, Note_on_c, 2, 57, 96
4, 125184, Note_off_c, 2, 57, 0
4, 125184, Note_on_c, 2, 56, 96
4, 125440, Note_off_c, 2, 56, 0
4, 125440, Note_on_c, 2, 57, 96
4, 126464, Note_off_c, 2, 57, 0
4, 126464, Note_on_c, 2, 56, 96
4, 126976, Note_off_c, 2, 56, 0
4, 126976, Note_on_c, 2, 57, 96
4, 127488, Note_off_c, 2, 57, 0
4, 129280, Note_on_c, 2, 62, 96
4, 129536, Note_off_c, 2, 62, 0
4, 129536, Note_on_c, 2, 61, 96
4, 129792, Note_off_c, 2, 61, 0
4, 129792, Note_on_c, 2, 59, 96
4, 130048, Note_off_c, 2, 59, 0
4, 130048, Note_on_c, 2, 57, 96
4, 130304, Note_off_c, 2, 57, 0
4, 130304, Note_on_c, 2, 59, 96
4, 130560, Note_off_c, 2, 59, 0
4, 130560, Note_on_c, 2, 59, 96
4, 130816, Note_off_c, 2, 59, 0
4, 130816, Note_on_c, 2, 57, 96
4, 130944, Note_off_c, 2, 57, 0
4, 130944, Note_on_c, 2, 59, 96
4, 131072, Note_off_c, 2, 59, 0
4, 131072, Note_on_c, 2, 61, 96
4, 131584, Note_off_c, 2, 61, 0
4, 131584, Note_on_c, 2, 57, 96
4, 132096, Note_off_c, 2, 57, 0
4, 132096, Note_on_c, 2, 59, 96
4, 132352, Note_off_c, 2, 59, 0
4, 132352, Note_on_c, 2, 61, 96
4, 132608, Note_off_c, 2, 61, 0
4, 132608, Note_on_c, 2, 62, 96
4, 132864, Note_off_c, 2, 62, 0
4, 132864, Note_on_c, 2, 61, 96
4, 133120, Note_off_c, 2, 61, 0
4, 133120, Note_on_c, 2, 62, 96
4, 134400, Note_off_c, 2, 62, 0
4, 134400, Note_on_c, 2, 61, 96
4, 134656, Note_off_c, 2, 61, 0
4, 134656, Note_on_c, 2, 59, 96
4, 134912, Note_off_c, 2, 59, 0
4, 134912, Note_on_c, 2, 57, 96
4, 135040, Note_off_c, 2, 57, 0
4, 135040, Note_on_c, 2, 59, 96
4, 135168, Note_off_c, 2, 59, 0
4, 135168, Note_on_c, 2, 61, 96
4, 135680, Note_off_c, 2, 61, 0
4, 135680, Note_on_c, 2, 62, 96
4, 135936, Note_off_c, 2, 62, 0
4, 135936, Note_on_c, 2, 64, 96
4, 136192, Note_off_c, 2, 64, 0
4, 136192, Note_on_c, 2, 66, 96
4, 136448, Note_off_c, 2, 66, 0
4, 136448, Note_on_c, 2, 68, 96
4, 136704, Note_off_c, 2, 68, 0
4, 136704, Note_on_c, 2, 69, 96
4, 137728, Note_off_c, 2, 69, 0
4, 137728, Note_on_c, 2, 67, 96
4, 138240, Note_off_c, 2, 67, 0
4, 138240, Note_on_c, 2, 64, 96
4, 138752, Note_off_c, 2, 64, 0
4, 138752, Note_on_c, 2, 61, 96
4, 139264, Note_off_c, 2, 61, 0
4, 139264, Note_on_c, 2, 57, 96
4, 139776, Note_off_c, 2, 57, 0
4, 139776, Note_on_c, 2, 66, 96
4, 140800, Note_off_c, 2, 66, 0
4, 140800, Note_on_c, 2, 64, 96
4, 141312, Note_off_c, 2, 64, 0
4, 141312, Note_on_c, 2, 62, 96
4, 141568, Note_off_c, 2, 62, 0
4, 141568, Note_on_c, 2, 59, 96
4, 141824, Note_off_c, 2, 59, 0
4, 141824, Note_on_c, 2, 67, 96
4, 142592, Note_off_c, 2, 67, 0
4, 142592, Note_on_c, 2, 67, 96
4, 142848, Note_off_c, 2, 67, 0
4, 142848, Note_on_c, 2, 66, 96
4, 142976, Note_off_c, 2, 66, 0
4, 142976, Note_on_c, 2, 67, 96
4, 143104, Note_off_c, 2, 67, 0
4, 143104, Note_on_c, 2, 64, 96
4, 143360, Note_off_c, 2, 64, 0
4, 143360, Note_on_c, 2, 62, 96
4, 144128, Note_off_c, 2, 62, 0
4, 144128, Note_on_c, 2, 64, 96
4, 144384, Note_off_c, 2, 64, 0
4, 144384, Note_on_c, 2, 61, 96
4, 145152, Note_off_c, 2, 61, 0
4, 145152, Note_on_c, 2, 59, 96
4, 145280, Note_off_c, 2, 59, 0
4, 145280, Note_on_c, 2, 61, 96
4, 145408, Note_off_c, 2, 61, 0
4, 145408, Note_on_c, 2, 59, 96
4, 145664, Note_off_c, 2, 59, 0
4, 145664, Note_on_c, 2, 62, 96
4, 145920, Note_off_c, 2, 62, 0
4, 145920, Note_on_c, 2, 61, 96
4, 146176, Note_off_c, 2, 61, 0
4, 146176, Note_on_c, 2, 59, 96
4, 146432, Note_off_c, 2, 59, 0
4, 146432, Note_on_c, 2, 57, 96
4, 146688, Note_off_c, 2, 57, 0
4, 146688, Note_on_c, 2, 59, 96
4, 146944, Note_off_c, 2, 59, 0
4, 146944, Note_on_c, 2, 59, 96
4, 147200, Note_off_c, 2, 59, 0
4, 147200, Note_on_c, 2, 57, 96
4, 147328, Note_off_c, 2, 57, 0
4, 147328, Note_on_c, 2, 59, 96
4, 147456, Note_off_c, 2, 59, 0
4, 147456, Note_on_c, 2, 61, 96
4, 147712, Note_off_c, 2, 61, 0
4, 147712, Note_on_c, 2, 57, 96
4, 147968, Note_off_c, 2, 57, 0
4, 147968, Note_on_c, 2, 56, 96
4, 148224, Note_off_c, 2, 56, 0
4, 148224, Note_on_c, 2, 54, 96
4, 148480, Note_off_c, 2, 54, 0
4, 148480, Note_on_c, 2, 56, 96
4, 148736, Note_off_c, 2, 56, 0
4, 148736, Note_on_c, 2, 57, 96
4, 148992, Note_off_c, 2, 57, 0
4, 148992, Note_on_c, 2, 57, 96
4, 149248, Note_off_c, 2, 57, 0
4, 149248, Note_on_c, 2, 56, 96
4, 149376, Note_off_c, 2, 56, 0
4, 149376, Note_on_c, 2, 57, 96
4, 149504, Note_off_c, 2, 57, 0
4, 149504, Note_on_c, 2, 59, 96
4, 149760, Note_off_c, 2, 59, 0
4, 149760, Note_on_c, 2, 56, 96
4, 150016, Note_off_c, 2, 56, 0
4, 150016, Note_on_c, 2, 54, 96
4, 150272, Note_off_c, 2, 54, 0
4, 150272, Note_on_c, 2, 52, 96
4, 150528, Note_off_c, 2, 52, 0
4, 150528, Note_on_c, 2, 54, 96
4, 150784, Note_off_c, 2, 54, 0
4, 150784, Note_on_c, 2, 56, 96
4, 151040, Note_off_c, 2, 56, 0
4, 151040, Note_on_c, 2, 56, 96
4, 151296, Note_off_c, 2, 56, 0
4, 151296, Note_on_c, 2, 54, 96
4, 151424, Note_off_c, 2, 54, 0
4, 151424, Note_on_c, 2, 56, 96
4, 151552, Note_off_c, 2, 56, 0
4, 151552, Note_on_c, 2, 57, 96
4, 152064, Note_off_c, 2, 57, 0
4, 152064, Note_on_c, 2, 62, 96
4, 152320, Note_off_c, 2, 62, 0
4, 152320, Note_on_c, 2, 61, 96
4, 152576, Note_off_c, 2, 61, 0
4, 152576, Note_on_c, 2, 59, 96
4, 152832, Note_off_c, 2, 59, 0
4, 152832, Note_on_c, 2, 57, 96
4, 153088, Note_off_c, 2, 57, 0
4, 153088, Note_on_c, 2, 56, 96
4, 153344, Note_off_c, 2, 56, 0
4, 153344, Note_on_c, 2, 54, 96
4, 153600, Note_off_c, 2, 54, 0
4, 153600, Note_on_c, 2, 52, 96
4, 154112, Note_off_c, 2, 52, 0
4, 154112, Note_on_c, 2, 61, 96
4, 155136, Note_off_c, 2, 61, 0
4, 155136, Note_on_c, 2, 59, 96
4, 155648, Note_off_c, 2, 59, 0
4, 155648, Note_on_c, 2, 57, 96
4, 156160, Note_off_c, 2, 57, 0
4, 156160, Note_on_c, 2, 62, 96
4, 156672, Note_off_c, 2, 62, 0
4, 156672, Note_on_c, 2, 62, 96
4, 156928, Note_off_c, 2, 62, 0
4, 156928, Note_on_c, 2, 61, 96
4, 157184, Note_off_c, 2, 61, 0
4, 157184, Note_on_c, 2, 59, 96
4, 157440, Note_off_c, 2, 59, 0
4, 157440, Note_on_c, 2, 57, 96
4, 157696, Note_off_c, 2, 57, 0
4, 157696, Note_on_c, 2, 59, 96
4, 158464, Note_off_c, 2, 59, 0
4, 158464, Note_on_c, 2, 66, 96
4, 158720, Note_off_c, 2, 66, 0
4, 158720, Note_on_c, 2, 68, 96
4, 158976, Note_off_c, 2, 68, 0
4, 158976, Note_on_c, 2, 64, 96
4, 159232, Note_off_c, 2, 64, 0
4, 159232, Note_on_c, 2, 58, 96
4, 159744, Note_off_c, 2, 58, 0
4, 159744, Note_on_c, 2, 64, 96
4, 160256, Note_off_c, 2, 64, 0
4, 160256, Note_on_c, 2, 62, 96
4, 160768, Note_off_c, 2, 62, 0
4, 160768, Note_on_c, 2, 61, 96
4, 161280, Note_off_c, 2, 61, 0
4, 161280, Note_on_c, 2, 54, 96
4, 163072, Note_off_c, 2, 54, 0
4, 163072, Note_on_c, 2, 52, 96
4, 163328, Note_off_c, 2, 52, 0
4, 163328, Note_on_c, 2, 50, 96
4, 163584, Note_off_c, 2, 50, 0
4, 163584, Note_on_c, 2, 49, 96
4, 163840, Note_off_c, 2, 49, 0
4, 163840, Note_on_c, 2, 50, 96
4, 164352, Note_off_c, 2, 50, 0
4, 164352, Note_on_c, 2, 54, 96
4, 164864, Note_off_c, 2, 54, 0
4, 164864, Note_on_c, 2, 59, 96
4, 166144, Note_off_c, 2, 59, 0
4, 166144, Note_on_c, 2, 61, 96
4, 166400, Note_off_c, 2, 61, 0
4, 166400, Note_on_c, 2, 59, 96
4, 166656, Note_off_c, 2, 59, 0
4, 166656, Note_on_c, 2, 57, 96
4, 166912, Note_off_c, 2, 57, 0
4, 166912, Note_on_c, 2, 59, 96
4, 167168, Note_off_c, 2, 59, 0
4, 167168, Note_on_c, 2, 61, 96
4, 167424, Note_off_c, 2, 61, 0
4, 167424, Note_on_c, 2, 61, 96
4, 167680, Note_off_c, 2, 61, 0
4, 167680, Note_on_c, 2, 59, 96
4, 167808, Note_off_c, 2, 59, 0
4, 167808, Note_on_c, 2, 61, 96
4, 167936, Note_off_c, 2, 61, 0
4, 167936, Note_on_c, 2, 62, 96
4, 168448, Note_off_c, 2, 62, 0
4, 168448, Note_on_c, 2, 66, 96
4, 168960, Note_off_c, 2, 66, 0
4, 168960, Note_on_c, 2, 62, 96
4, 169472, Note_off_c, 2, 62, 0
4, 169472, Note_on_c, 2, 59, 96
4, 169984, Note_off_c, 2, 59, 0
4, 169984, Note_on_c, 2, 56, 96
4, 170496, Note_off_c, 2, 56, 0
4, 170496, Note_on_c, 2, 64, 96
4, 171520, Note_off_c, 2, 64, 0
4, 171520, Note_on_c, 2, 62, 96
4, 172032, Note_off_c, 2, 62, 0
4, 172032, Note_on_c, 2, 61, 96
4, 173056, Note_off_c, 2, 61, 0
4, 174336, Note_on_c, 2, 66, 96
4, 174592, Note_off_c, 2, 66, 0
4, 174592, Note_on_c, 2, 64, 96
4, 174848, Note_off_c, 2, 64, 0
4, 174848, Note_on_c, 2, 62, 96
4, 175104, Note_off_c, 2, 62, 0
4, 175104, Note_on_c, 2, 61, 96
4, 175360, Note_off_c, 2, 61, 0
4, 175360, Note_on_c, 2, 59, 96
4, 175616, Note_off_c, 2, 59, 0
4, 175616, Note_on_c, 2, 57, 96
4, 175872, Note_off_c, 2, 57, 0
4, 175872, Note_on_c, 2, 59, 96
4, 176128, Note_off_c, 2, 59, 0
4, 176128, Note_on_c, 2, 61, 96
4, 176640, Note_off_c, 2, 61, 0
4, 178432, Note_on_c, 2, 62, 96
4, 178688, Note_off_c, 2, 62, 0
4, 178688, Note_on_c, 2, 61, 96
4, 178944, Note_off_c, 2, 61, 0
4, 178944, Note_on_c, 2, 59, 96
4, 179200, Note_off_c, 2, 59, 0
4, 179200, Note_on_c, 2, 57, 96
4, 179456, Note_off_c, 2, 57, 0
4, 179456, Note_on_c, 2, 59, 96
4, 179712, Note_off_c, 2, 59, 0
4, 179712, Note_on_c, 2, 59, 96
4, 179968, Note_off_c, 2, 59, 0
4, 179968, Note_on_c, 2, 61, 96
4, 180224, Note_off_c, 2, 61, 0
4, 180224, Note_on_c, 2, 61, 96
4, 180736, Note_off_c, 2, 61, 0
4, 180736, Note_on_c, 2, 62, 96
4, 181504, Note_off_c, 2, 62, 0
4, 181504, Note_on_c, 2, 62, 96
4, 181760, Note_off_c, 2, 62, 0
4, 181760, Note_on_c, 2, 61, 96
4, 182016, Note_off_c, 2, 61, 0
4, 182016, Note_on_c, 2, 59, 96
4, 182272, Note_off_c, 2, 59, 0
4, 182272, Note_on_c, 2, 57, 96
4, 182528, Note_off_c, 2, 57, 0
4, 182528, Note_on_c, 2, 64, 96
4, 182784, Note_off_c, 2, 64, 0
4, 182784, Note_on_c, 2, 62, 96
4, 183040, Note_off_c, 2, 62, 0
4, 183040, Note_on_c, 2, 61, 96
4, 183296, Note_off_c, 2, 61, 0
4, 183296, Note_on_c, 2, 59, 96
4, 183552, Note_off_c, 2, 59, 0
4, 183552, Note_on_c, 2, 61, 96
4, 183808, Note_off_c, 2, 61, 0
4, 183808, Note_on_c, 2, 61, 96
4, 184064, Note_off_c, 2, 61, 0
4, 184064, Note_on_c, 2, 59, 96
4, 184192, Note_off_c, 2, 59, 0
4, 184192, Note_on_c, 2, 61, 96
4, 184320, Note_off_c, 2, 61, 0
4, 184320, Note_on_c, 2, 62, 96
4, 184576, Note_off_c, 2, 62, 0
4, 184576, Note_on_c, 2, 56, 96
4, 184832, Note_on_c, 2, 64, 96
4, 184832, Note_off_c, 2, 56, 0
4, 184832, Note_on_c, 2, 54, 96
4, 185088, Note_off_c, 2, 54, 0
4, 185088, Note_on_c, 2, 52, 96
4, 185344, Note_off_c, 2, 52, 0
4, 185344, Note_on_c, 2, 54, 96
4, 185600, Note_off_c, 2, 54, 0
4, 185600, Note_on_c, 2, 56, 96
4, 185856, Note_off_c, 2, 64, 0
4, 185856, Note_on_c, 2, 62, 96
4, 185856, Note_off_c, 2, 56, 0
4, 185856, Note_on_c, 2, 56, 96
4, 186112, Note_off_c, 2, 56, 0
4, 186112, Note_on_c, 2, 54, 96
4, 186240, Note_off_c, 2, 54, 0
4, 186240, Note_on_c, 2, 56, 96
4, 186368, Note_off_c, 2, 62, 0
4, 186368, Note_on_c, 2, 61, 96
4, 186368, Note_off_c, 2, 56, 0
4, 186368, Note_on_c, 2, 57, 96
4, 188416, Note_off_c, 2, 61, 0
4, 188416, Note_off_c, 2, 57, 0
4, 188416, Note_on_c, 2, 52, 96
4, 188416, Note_on_c, 2, 59, 96
4, 188672, Note_off_c, 2, 59, 0
4, 188672, Note_on_c, 2, 57, 96
4, 188928, Note_off_c, 2, 52, 0
4, 188928, Note_off_c, 2, 57, 0
4, 188928, Note_on_c, 2, 56, 96
4, 189184, Note_off_c, 2, 56, 0
4, 189184, Note_on_c, 2, 59, 96
4, 189440, Note_off_c, 2, 59, 0
4, 189440, Note_on_c, 2, 57, 96
4, 189696, Note_off_c, 2, 57, 0
4, 189696, Note_on_c, 2, 61, 96
4, 189952, Note_off_c, 2, 61, 0
4, 189952, Note_on_c, 2, 59, 96
4, 190464, Note_off_c, 2, 59, 0
4, 190464, Note_on_c, 2, 64, 96
4, 190720, Note_off_c, 2, 64, 0
4, 190720, Note_on_c, 2, 62, 96
4, 190976, Note_off_c, 2, 62, 0
4, 190976, Note_on_c, 2, 61, 96
4, 191232, Note_off_c, 2, 61, 0
4, 191232, Note_on_c, 2, 62, 96
4, 191488, Note_off_c, 2, 62, 0
4, 191488, Note_on_c, 2, 64, 96
4, 191744, Note_off_c, 2, 64, 0
4, 191744, Note_on_c, 2, 68, 96
4, 192000, Note_off_c, 2, 68, 0
4, 192000, Note_on_c, 2, 66, 96
4, 192256, Note_off_c, 2, 66, 0
4, 192256, Note_on_c, 2, 69, 96
4, 192384, Note_off_c, 2, 69, 0
4, 192384, Note_on_c, 2, 68, 96
4, 192512, Note_off_c, 2, 68, 0
4, 192512, Note_on_c, 2, 68, 96
4, 192768, Note_off_c, 2, 68, 0
4, 192768, Note_on_c, 2, 66, 96
4, 193024, Note_off_c, 2, 66, 0
4, 193024, Note_on_c, 2, 64, 96
4, 193280, Note_off_c, 2, 64, 0
4, 193280, Note_on_c, 2, 62, 96
4, 193536, Note_off_c, 2, 62, 0
4, 193536, Note_on_c, 2, 61, 96
4, 194048, Note_off_c, 2, 61, 0
4, 194048, Note_on_c, 2, 56, 96
4, 194560, Note_off_c, 2, 56, 0
4, 194560, Note_on_c, 2, 57, 96
4, 194816, Note_off_c, 2, 57, 0
4, 194816, Note_on_c, 2, 61, 96
4, 195072, Note_off_c, 2, 61, 0
4, 195072, Note_on_c, 2, 66, 96
4, 195328, Note_off_c, 2, 66, 0
4, 195328, Note_on_c, 2, 64, 96
4, 195584, Note_off_c, 2, 64, 0
4, 195584, Note_on_c, 2, 62, 96
4, 195712, Note_off_c, 2, 62, 0
4, 195712, Note_on_c, 2, 61, 96
4, 195840, Note_off_c, 2, 61, 0
4, 195840, Note_on_c, 2, 59, 96
4, 195968, Note_off_c, 2, 59, 0
4, 195968, Note_on_c, 2, 61, 96
4, 196096, Note_off_c, 2, 61, 0
4, 196096, Note_on_c, 2, 62, 96
4, 196352, Note_off_c, 2, 62, 0
4, 196352, Note_on_c, 2, 59, 96
4, 196608, Note_off_c, 2, 59, 0
4, 196608, Note_on_c, 2, 61, 96
4, 196864, Note_off_c, 2, 61, 0
4, 196864, Note_on_c, 2, 57, 96
4, 197120, Note_off_c, 2, 57, 0
4, 197120, Note_on_c, 2, 56, 96
4, 197376, Note_off_c, 2, 56, 0
4, 197376, Note_on_c, 2, 57, 96
4, 197632, Note_off_c, 2, 57, 0
4, 197632, Note_on_c, 2, 59, 96
4, 199936, Note_off_c, 2, 59, 0
4, 199936, Note_on_c, 2, 62, 96
4, 200192, Note_off_c, 2, 62, 0
4, 200192, Note_on_c, 2, 61, 96
4, 200448, Note_off_c, 2, 61, 0
4, 200448, Note_on_c, 2, 59, 96
4, 200704, Note_off_c, 2, 59, 0
4, 200704, Note_on_c, 2, 57, 96
4, 200960, Note_off_c, 2, 57, 0
4, 200960, Note_on_c, 2, 59, 96
4, 201216, Note_off_c, 2, 59, 0
4, 201216, Note_on_c, 2, 57, 96
4, 201472, Note_off_c, 2, 57, 0
4, 201472, Note_on_c, 2, 55, 96
4, 201728, Note_off_c, 2, 55, 0
4, 201728, Note_on_c, 2, 54, 96
4, 201984, Note_off_c, 2, 54, 0
4, 201984, Note_on_c, 2, 55, 96
4, 202240, Note_off_c, 2, 55, 0
4, 202240, Note_on_c, 2, 57, 96
4, 202368, Note_off_c, 2, 57, 0
4, 202368, Note_on_c, 2, 55, 96
4, 202496, Note_off_c, 2, 55, 0
4, 202496, Note_on_c, 2, 54, 96
4, 202624, Note_off_c, 2, 54, 0
4, 202624, Note_on_c, 2, 55, 96
4, 202752, Note_off_c, 2, 55, 0
4, 202752, Note_on_c, 2, 57, 96
4, 205056, Note_off_c, 2, 57, 0
4, 205056, Note_on_c, 2, 57, 96
4, 205312, Note_off_c, 2, 57, 0
4, 205312, Note_on_c, 2, 59, 96
4, 205568, Note_off_c, 2, 59, 0
4, 205568, Note_on_c, 2, 61, 96
4, 205824, Note_off_c, 2, 61, 0
4, 205824, Note_on_c, 2, 62, 96
4, 207104, Note_off_c, 2, 62, 0
4, 207104, Note_on_c, 2, 62, 96
4, 207360, Note_off_c, 2, 62, 0
4, 207360, Note_on_c, 2, 61, 96
4, 207616, Note_off_c, 2, 61, 0
4, 207616, Note_on_c, 2, 59, 96
4, 207872, Note_off_c, 2, 59, 0
4, 207872, Note_on_c, 2, 61, 96
4, 208384, Note_off_c, 2, 61, 0
4, 208384, Note_on_c, 2, 60, 96
4, 208896, Note_off_c, 2, 60, 0
4, 208896, Note_on_c, 2, 59, 96
4, 209920, Note_off_c, 2, 59, 0
4, 214528, Note_on_c, 2, 60, 96
4, 215040, Note_off_c, 2, 60, 0
4, 215040, Note_on_c, 2, 59, 96
4, 215552, Note_off_c, 2, 59, 0
4, 215552, Note_on_c, 2, 57, 96
4, 216064, Note_off_c, 2, 57, 0
4, 216064, Note_on_c, 2, 59, 96
4, 216320, Note_off_c, 2, 59, 0
4, 216320, Note_on_c, 2, 61, 96
4, 216576, Note_off_c, 2, 61, 0
4, 216576, Note_on_c, 2, 62, 96
4, 217216, Note_off_c, 2, 62, 0
4, 217216, Note_on_c, 2, 61, 96
4, 217344, Note_off_c, 2, 61, 0
4, 217344, Note_on_c, 2, 59, 96
4, 217472, Note_off_c, 2, 59, 0
4, 217472, Note_on_c, 2, 57, 96
4, 217600, Note_off_c, 2, 57, 0
4, 217600, Note_on_c, 2, 56, 96
4, 217728, Note_off_c, 2, 56, 0
4, 217728, Note_on_c, 2, 54, 96
4, 217856, Note_off_c, 2, 54, 0
4, 217856, Note_on_c, 2, 52, 96
4, 217984, Note_off_c, 2, 52, 0
4, 217984, Note_on_c, 2, 62, 96
4, 218112, Note_off_c, 2, 62, 0
4, 218112, Note_on_c, 2, 61, 96
4, 218880, Note_off_c, 2, 61, 0
4, 218880, Note_on_c, 2, 62, 96
4, 219008, Note_off_c, 2, 62, 0
4, 219008, Note_on_c, 2, 59, 96
4, 219136, Note_off_c, 2, 59, 0
4, 219136, Note_on_c, 2, 61, 96
4, 221184, Note_off_c, 2, 61, 0
4, 221184, End_track
5, 0, Start_track
5, 0, Title_t, "Instrument 4"
5, 8704, Note_on_c, 3, 49, 96
5, 9216, Note_off_c, 3, 49, 0
5, 9216, Note_on_c, 3, 50, 96
5, 9728, Note_off_c, 3, 50, 0
5, 9728, Note_on_c, 3, 52, 96
5, 10240, Note_off_c, 3, 52, 0
5, 10240, Note_on_c, 3, 45, 96
5, 10752, Note_off_c, 3, 45, 0
5, 10752, Note_on_c, 3, 57, 96
5, 11264, Note_off_c, 3, 57, 0
5, 11264, Note_on_c, 3, 56, 96
5, 11776, Note_off_c, 3, 56, 0
5, 11776, Note_on_c, 3, 54, 96
5, 12288, Note_off_c, 3, 54, 0
5, 12288, Note_on_c, 3, 52, 96
5, 13312, Note_off_c, 3, 52, 0
5, 13312, Note_on_c, 3, 54, 96
5, 14336, Note_off_c, 3, 54, 0
5, 14336, Note_on_c, 3, 56, 96
5, 15360, Note_off_c, 3, 56, 0
5, 15360, Note_on_c, 3, 57, 96
5, 15872, Note_off_c, 3, 57, 0
5, 15872, Note_on_c, 3, 59, 96
5, 16384, Note_off_c, 3, 59, 0
5, 16384, Note_on_c, 3, 61, 96
5, 16896, Note_off_c, 3, 61, 0
5, 16896, Note_on_c, 3, 44, 96
5, 17408, Note_off_c, 3, 44, 0
5, 17408, Note_on_c, 3, 45, 96
5, 17920, Note_off_c, 3, 45, 0
5, 17920, Note_on_c, 3, 47, 96
5, 18432, Note_off_c, 3, 47, 0
5, 18432, Note_on_c, 3, 40, 96
5, 18944, Note_off_c, 3, 40, 0
5, 18944, Note_on_c, 3, 52, 96
5, 19456, Note_off_c, 3, 52, 0
5, 19456, Note_on_c, 3, 50, 96
5, 19968, Note_off_c, 3, 50, 0
5, 19968, Note_on_c, 3, 49, 96
5, 20480, Note_off_c, 3, 49, 0
5, 20480, Note_on_c, 3, 47, 96
5, 21504, Note_off_c, 3, 47, 0
5, 22016, Note_on_c, 3, 47, 96
5, 22528, Note_off_c, 3, 47, 0
5, 22528, Note_on_c, 3, 42, 96
5, 23040, Note_off_c, 3, 42, 0
5, 23040, Note_on_c, 3, 44, 96
5, 23552, Note_off_c, 3, 44, 0
5, 23552, Note_on_c, 3, 45, 96
5, 24064, Note_off_c, 3, 45, 0
5, 24064, Note_on_c, 3, 47, 96
5, 24576, Note_off_c, 3, 47, 0
5, 24576, Note_on_c, 3, 49, 96
5, 25088, Note_off_c, 3, 49, 0
5, 25088, Note_on_c, 3, 54, 96
5, 25600, Note_off_c, 3, 54, 0
5, 25600, Note_on_c, 3, 50, 96
5, 26112, Note_off_c, 3, 50, 0
5, 26112, Note_on_c, 3, 47, 96
5, 26624, Note_off_c, 3, 47, 0
5, 26624, Note_on_c, 3, 44, 96
5, 27136, Note_off_c, 3, 44, 0
5, 27136, Note_on_c, 3, 52, 96
5, 28160, Note_off_c, 3, 52, 0
5, 28160, Note_on_c, 3, 50, 96
5, 28672, Note_off_c, 3, 50, 0
5, 28672, Note_on_c, 3, 49, 96
5, 29696, Note_off_c, 3, 49, 0
5, 29696, Note_on_c, 3, 47, 96
5, 30720, Note_off_c, 3, 47, 0
5, 30720, Note_on_c, 3, 49, 96
5, 31744, Note_off_c, 3, 49, 0
5, 31744, Note_on_c, 3, 50, 96
5, 32256, Note_off_c, 3, 50, 0
5, 32256, Note_on_c, 3, 52, 96
5, 32768, Note_off_c, 3, 52, 0
5, 32768, Note_on_c, 3, 54, 96
5, 33280, Note_off_c, 3, 54, 0
5, 33280, Note_on_c, 3, 49, 96
5, 33792, Note_off_c, 3, 49, 0
5, 33792, Note_on_c, 3, 50, 96
5, 34304, Note_off_c, 3, 50, 0
5, 34304, Note_on_c, 3, 52, 96
5, 34816, Note_off_c, 3, 52, 0
5, 34816, Note_on_c, 3, 45, 96
5, 40960, Note_off_c, 3, 45, 0
5, 41472, Note_on_c, 3, 54, 96
5, 41984, Note_off_c, 3, 54, 0
5, 41984, Note_on_c, 3, 50, 96
5, 42496, Note_off_c, 3, 50, 0
5, 42496, Note_on_c, 3, 47, 96
5, 43008, Note_off_c, 3, 47, 0
5, 43008, Note_on_c, 3, 44, 96
5, 43520, Note_off_c, 3, 44, 0
5, 43520, Note_on_c, 3, 49, 96
5, 44544, Note_off_c, 3, 49, 0
5, 44544, Note_on_c, 3, 47, 96
5, 45056, Note_off_c, 3, 47, 0
5, 45056, Note_on_c, 3, 45, 96
5, 45568, Note_off_c, 3, 45, 0
5, 45568, Note_on_c, 3, 57, 96
5, 46080, Note_off_c, 3, 57, 0
5, 46080, Note_on_c, 3, 56, 96
5, 46592, Note_off_c, 3, 56, 0
5, 46592, Note_on_c, 3, 54, 96
5, 47104, Note_off_c, 3, 54, 0
5, 47104, Note_on_c, 3, 53, 96
5, 48128, Note_off_c, 3, 53, 0
5, 48128, Note_on_c, 3, 54, 96
5, 48640, Note_off_c, 3, 54, 0
5, 48640, Note_on_c, 3, 56, 96
5, 49152, Note_off_c, 3, 56, 0
5, 49152, Note_on_c, 3, 57, 96
5, 49664, Note_off_c, 3, 57, 0
5, 49664, Note_on_c, 3, 59, 96
5, 50176, Note_off_c, 3, 59, 0
5, 50176, Note_on_c, 3, 61, 96
5, 50688, Note_off_c, 3, 61, 0
5, 50688, Note_on_c, 3, 49, 96
5, 51200, Note_off_c, 3, 49, 0
5, 51200, Note_on_c, 3, 42, 96
5, 52224, Note_off_c, 3, 42, 0
5, 53760, Note_on_c, 3, 54, 96
5, 54272, Note_off_c, 3, 54, 0
5, 54272, Note_on_c, 3, 50, 96
5, 54784, Note_off_c, 3, 50, 0
5, 54784, Note_on_c, 3, 47, 96
5, 55296, Note_off_c, 3, 47, 0
5, 55296, Note_on_c, 3, 44, 96
5, 55808, Note_off_c, 3, 44, 0
5, 55808, Note_on_c, 3, 52, 96
5, 56832, Note_off_c, 3, 52, 0
5, 56832, Note_on_c, 3, 50, 96
5, 57344, Note_off_c, 3, 50, 0
5, 57344, Note_on_c, 3, 49, 96
5, 57856, Note_off_c, 3, 49, 0
5, 57856, Note_on_c, 3, 57, 96
5, 58368, Note_off_c, 3, 57, 0
5, 58368, Note_on_c, 3, 54, 96
5, 58880, Note_off_c, 3, 54, 0
5, 58880, Note_on_c, 3, 50, 96
5, 59392, Note_off_c, 3, 50, 0
5, 59392, Note_on_c, 3, 47, 96
5, 59904, Note_off_c, 3, 47, 0
5, 59904, Note_on_c, 3, 49, 96
5, 60416, Note_off_c, 3, 49, 0
5, 60416, Note_on_c, 3, 50, 96
5, 60928, Note_off_c, 3, 50, 0
5, 60928, Note_on_c, 3, 52, 96
5, 61440, Note_off_c, 3, 52, 0
5, 61440, Note_on_c, 3, 54, 96
5, 61952, Note_off_c, 3, 54, 0
5, 61952, Note_on_c, 3, 55, 96
5, 62464, Note_off_c, 3, 55, 0
5, 62464, Note_on_c, 3, 54, 96
5, 62976, Note_off_c, 3, 54, 0
5, 62976, Note_on_c, 3, 52, 96
5, 63488, Note_off_c, 3, 52, 0
5, 63488, Note_on_c, 3, 50, 96
5, 64000, Note_off_c, 3, 50, 0
5, 64000, Note_on_c, 3, 52, 96
5, 64512, Note_off_c, 3, 52, 0
5, 64512, Note_on_c, 3, 54, 96
5, 65024, Note_off_c, 3, 54, 0
5, 65024, Note_on_c, 3, 50, 96
5, 65536, Note_off_c, 3, 50, 0
5, 65536, Note_on_c, 3, 57, 96
5, 67584, Note_off_c, 3, 57, 0
5, 67584, Note_on_c, 3, 45, 96
5, 70144, Note_off_c, 3, 45, 0
5, 74240, Note_on_c, 3, 49, 96
5, 74752, Note_off_c, 3, 49, 0
5, 74752, Note_on_c, 3, 50, 96
5, 75264, Note_off_c, 3, 50, 0
5, 75264, Note_on_c, 3, 52, 96
5, 75776, Note_off_c, 3, 52, 0
5, 75776, Note_on_c, 3, 45, 96
5, 76288, Note_off_c, 3, 45, 0
5, 76288, Note_on_c, 3, 57, 96
5, 76800, Note_off_c, 3, 57, 0
5, 76800, Note_on_c, 3, 56, 96
5, 77312, Note_off_c, 3, 56, 0
5, 77312, Note_on_c, 3, 54, 96
5, 77824, Note_off_c, 3, 54, 0
5, 77824, Note_on_c, 3, 52, 96
5, 78848, Note_off_c, 3, 52, 0
5, 78848, Note_on_c, 3, 54, 96
5, 79872, Note_off_c, 3, 54, 0
5, 79872, Note_on_c, 3, 56, 96
5, 80896, Note_off_c, 3, 56, 0
5, 80896, Note_on_c, 3, 57, 96
5, 81408, Note_off_c, 3, 57, 0
5, 81408, Note_on_c, 3, 59, 96
5, 81920, Note_off_c, 3, 59, 0
5, 81920, Note_on_c, 3, 61, 96
5, 82432, Note_off_c, 3, 61, 0
5, 82432, Note_on_c, 3, 44, 96
5, 82944, Note_off_c, 3, 44, 0
5, 82944, Note_on_c, 3, 45, 96
5, 83456, Note_off_c, 3, 45, 0
5, 83456, Note_on_c, 3, 47, 96
5, 83968, Note_off_c, 3, 47, 0
5, 83968, Note_on_c, 3, 40, 96
5, 84480, Note_off_c, 3, 40, 0
5, 84480, Note_on_c, 3, 52, 96
5, 84992, Note_off_c, 3, 52, 0
5, 84992, Note_on_c, 3, 50, 96
5, 85504, Note_off_c, 3, 50, 0
5, 85504, Note_on_c, 3, 49, 96
5, 86016, Note_off_c, 3, 49, 0
5, 86016, Note_on_c, 3, 47, 96
5, 87040, Note_off_c, 3, 47, 0
5, 87552, Note_on_c, 3, 47, 96
5, 88064, Note_off_c, 3, 47, 0
5, 88064, Note_on_c, 3, 42, 96
5, 88576, Note_off_c, 3, 42, 0
5, 88576, Note_on_c, 3, 44, 96
5, 89088, Note_off_c, 3, 44, 0
5, 89088, Note_on_c, 3, 45, 96
5, 89600, Note_off_c, 3, 45, 0
5, 89600, Note_on_c, 3, 47, 96
5, 90112, Note_off_c, 3, 47, 0
5, 90112, Note_on_c, 3, 49, 96
5, 90624, Note_off_c, 3, 49, 0
5, 90624, Note_on_c, 3, 54, 96
5, 91136, Note_off_c, 3, 54, 0
5, 91136, Note_on_c, 3, 50, 96
5, 91648, Note_off_c, 3, 50, 0
5, 91648, Note_on_c, 3, 47, 96
5, 92160, Note_off_c, 3, 47, 0
5, 92160, Note_on_c, 3, 44, 96
5, 92672, Note_off_c, 3, 44, 0
5, 92672, Note_on_c, 3, 52, 96
5, 93696, Note_off_c, 3, 52, 0
5, 93696, Note_on_c, 3, 50, 96
5, 94208, Note_off_c, 3, 50, 0
5, 94208, Note_on_c, 3, 49, 96
5, 95232, Note_off_c, 3, 49, 0
5, 95232, Note_on_c, 3, 47, 96
5, 96256, Note_off_c, 3, 47, 0
5, 96256, Note_on_c, 3, 49, 96
5, 97280, Note_off_c, 3, 49, 0
5, 97280, Note_on_c, 3, 50, 96
5, 97792, Note_off_c, 3, 50, 0
5, 97792, Note_on_c, 3, 52, 96
5, 98304, Note_off_c, 3, 52, 0
5, 98304, Note_on_c, 3, 54, 96
5, 98816, Note_off_c, 3, 54, 0
5, 98816, Note_on_c, 3, 49, 96
5, 99328, Note_off_c, 3, 49, 0
5, 99328, Note_on_c, 3, 50, 96
5, 99840, Note_off_c, 3, 50, 0
5, 99840, Note_on_c, 3, 52, 96
5, 100352, Note_off_c, 3, 52, 0
5, 100352, Note_on_c, 3, 45, 96
5, 106496, Note_off_c, 3, 45, 0
5, 107008, Note_on_c, 3, 54, 96
5, 107520, Note_off_c, 3, 54, 0
5, 107520, Note_on_c, 3, 50, 96
5, 108032, Note_off_c, 3, 50, 0
5, 108032, Note_on_c, 3, 47, 96
5, 108544, Note_off_c, 3, 47, 0
5, 108544, Note_on_c, 3, 44, 96
5, 109056, Note_off_c, 3, 44, 0
5, 109056, Note_on_c, 3, 49, 96
5, 110080, Note_off_c, 3, 49, 0
5, 110080, Note_on_c, 3, 47, 96
5, 110592, Note_off_c, 3, 47, 0
5, 110592, Note_on_c, 3, 45, 96
5, 111104, Note_off_c, 3, 45, 0
5, 111104, Note_on_c, 3, 57, 96
5, 111616, Note_off_c, 3, 57, 0
5, 111616, Note_on_c, 3, 56, 96
5, 112128, Note_off_c, 3, 56, 0
5, 112128, Note_on_c, 3, 54, 96
5, 112640, Note_off_c, 3, 54, 0
5, 112640, Note_on_c, 3, 53, 96
5, 113664, Note_off_c, 3, 53, 0
5, 113664, Note_on_c, 3, 54, 96
5, 114176, Note_off_c, 3, 54, 0
5, 114176, Note_on_c, 3, 56, 96
5, 114688, Note_off_c, 3, 56, 0
5, 114688, Note_on_c, 3, 57, 96
5, 115200, Note_off_c, 3, 57, 0
5, 115200, Note_on_c, 3, 59, 96
5, 115712, Note_off_c, 3, 59, 0
5, 115712, Note_on_c, 3, 61, 96
5, 116224, Note_off_c, 3, 61, 0
5, 116224, Note_on_c, 3, 49, 96
5, 116736, Note_off_c, 3, 49, 0
5, 116736, Note_on_c, 3, 42, 96
5, 117760, Note_off_c, 3, 42, 0
5, 119296, Note_on_c, 3, 54, 96
5, 119808, Note_off_c, 3, 54, 0
5, 119808, Note_on_c, 3, 50, 96
5, 120320, Note_off_c, 3, 50, 0
5, 120320, Note_on_c, 3, 47, 96
5, 120832, Note_off_c, 3, 47, 0
5, 120832, Note_on_c, 3, 44, 96
5, 121344, Note_off_c, 3, 44, 0
5, 121344, Note_on_c, 3, 52, 96
5, 122368, Note_off_c, 3, 52, 0
5, 122368, Note_on_c, 3, 50, 96
5, 122880, Note_off_c, 3, 50, 0
5, 122880, Note_on_c, 3, 49, 96
5, 123392, Note_off_c, 3, 49, 0
5, 123392, Note_on_c, 3, 57, 96
5, 123904, Note_off_c, 3, 57, 0
5, 123904, Note_on_c, 3, 54, 96
5, 124416, Note_off_c, 3, 54, 0
5, 124416, Note_on_c, 3, 50, 96
5, 124928, Note_off_c, 3, 50, 0
5, 124928, Note_on_c, 3, 47, 96
5, 125440, Note_off_c, 3, 47, 0
5, 125440, Note_on_c, 3, 49, 96
5, 125952, Note_off_c, 3, 49, 0
5, 125952, Note_on_c, 3, 50, 96
5, 126464, Note_off_c, 3, 50, 0
5, 126464, Note_on_c, 3, 52, 96
5, 126976, Note_off_c, 3, 52, 0
5, 126976, Note_on_c, 3, 54, 96
5, 127488, Note_off_c, 3, 54, 0
5, 127488, Note_on_c, 3, 55, 96
5, 128000, Note_off_c, 3, 55, 0
5, 128000, Note_on_c, 3, 54, 96
5, 128512, Note_off_c, 3, 54, 0
5, 128512, Note_on_c, 3, 52, 96
5, 129024, Note_off_c, 3, 52, 0
5, 129024, Note_on_c, 3, 50, 96
5, 129536, Note_off_c, 3, 50, 0
5, 129536, Note_on_c, 3, 52, 96
5, 130048, Note_off_c, 3, 52, 0
5, 130048, Note_on_c, 3, 54, 96
5, 130560, Note_off_c, 3, 54, 0
5, 130560, Note_on_c, 3, 50, 96
5, 131072, Note_off_c, 3, 50, 0
5, 131072, Note_on_c, 3, 57, 96
5, 133120, Note_off_c, 3, 57, 0
5, 133120, Note_on_c, 3, 45, 96
5, 135168, Note_off_c, 3, 45, 0
5, 135168, Note_on_c, 3, 45, 96
5, 135680, Note_off_c, 3, 45, 0
5, 136192, Note_on_c, 3, 45, 96
5, 137216, Note_off_c, 3, 45, 0
5, 137216, Note_on_c, 3, 47, 96
5, 138240, Note_off_c, 3, 47, 0
5, 138240, Note_on_c, 3, 49, 96
5, 139264, Note_off_c, 3, 49, 0
5, 139264, Note_on_c, 3, 50, 96
5, 140288, Note_off_c, 3, 50, 0
5, 140288, Note_on_c, 3, 49, 96
5, 141312, Note_off_c, 3, 49, 0
5, 141312, Note_on_c, 3, 47, 96
5, 142336, Note_off_c, 3, 47, 0
5, 142336, Note_on_c, 3, 46, 96
5, 143360, Note_off_c, 3, 46, 0
5, 143360, Note_on_c, 3, 47, 96
5, 143872, Note_off_c, 3, 47, 0
5, 143872, Note_on_c, 3, 47, 96
5, 144384, Note_off_c, 3, 47, 0
5, 144384, Note_on_c, 3, 49, 96
5, 144896, Note_off_c, 3, 49, 0
5, 144896, Note_on_c, 3, 51, 96
5, 145408, Note_off_c, 3, 51, 0
5, 145408, Note_on_c, 3, 52, 96
5, 145920, Note_off_c, 3, 52, 0
5, 145920, Note_on_c, 3, 40, 96
5, 146432, Note_off_c, 3, 40, 0
5, 146432, Note_on_c, 3, 42, 96
5, 146944, Note_off_c, 3, 42, 0
5, 146944, Note_on_c, 3, 44, 96
5, 147456, Note_off_c, 3, 44, 0
5, 147456, Note_on_c, 3, 45, 96
5, 147968, Note_off_c, 3, 45, 0
5, 147968, Note_on_c, 3, 50, 96
5, 148480, Note_off_c, 3, 50, 0
5, 148480, Note_on_c, 3, 47, 96
5, 148992, Note_off_c, 3, 47, 0
5, 148992, Note_on_c, 3, 44, 96
5, 149504, Note_off_c, 3, 44, 0
5, 149504, Note_on_c, 3, 40, 96
5, 150016, Note_off_c, 3, 40, 0
5, 150016, Note_on_c, 3, 49, 96
5, 151040, Note_off_c, 3, 49, 0
5, 151040, Note_on_c, 3, 47, 96
5, 151552, Note_off_c, 3, 47, 0
5, 151552, Note_on_c, 3, 45, 96
5, 152576, Note_off_c, 3, 45, 0
5, 152576, Note_on_c, 3, 44, 96
5, 153600, Note_off_c, 3, 44, 0
5, 153600, Note_on_c, 3, 45, 96
5, 154624, Note_off_c, 3, 45, 0
5, 154624, Note_on_c, 3, 47, 96
5, 155136, Note_off_c, 3, 47, 0
5, 155136, Note_on_c, 3, 49, 96
5, 155648, Note_off_c, 3, 49, 0
5, 155648, Note_on_c, 3, 50, 96
5, 156160, Note_off_c, 3, 50, 0
5, 156160, Note_on_c, 3, 42, 96
5, 156672, Note_off_c, 3, 42, 0
5, 156672, Note_on_c, 3, 44, 96
5, 157184, Note_off_c, 3, 44, 0
5, 157184, Note_on_c, 3, 46, 96
5, 157696, Note_off_c, 3, 46, 0
5, 157696, Note_on_c, 3, 47, 96
5, 158208, Note_off_c, 3, 47, 0
5, 158208, Note_on_c, 3, 50, 96
5, 158720, Note_off_c, 3, 50, 0
5, 158720, Note_on_c, 3, 52, 96
5, 159488, Note_off_c, 3, 52, 0
5, 159488, Note_on_c, 3, 54, 96
5, 159744, Note_off_c, 3, 54, 0
5, 159744, Note_on_c, 3, 55, 96
5, 160256, Note_off_c, 3, 55, 0
5, 160256, Note_on_c, 3, 50, 96
5, 160512, Note_off_c, 3, 50, 0
5, 160512, Note_on_c, 3, 52, 96
5, 160768, Note_off_c, 3, 52, 0
5, 160768, Note_on_c, 3, 54, 96
5, 161280, Note_off_c, 3, 54, 0
5, 161280, Note_on_c, 3, 42, 96
5, 161792, Note_off_c, 3, 42, 0
5, 161792, Note_on_c, 3, 47, 96
5, 164352, Note_off_c, 3, 47, 0
5, 164352, Note_on_c, 3, 59, 96
5, 164864, Note_off_c, 3, 59, 0
5, 164864, Note_on_c, 3, 55, 96
5, 165376, Note_off_c, 3, 55, 0
5, 165376, Note_on_c, 3, 52, 96
5, 165888, Note_off_c, 3, 52, 0
5, 165888, Note_on_c, 3, 49, 96
5, 166400, Note_off_c, 3, 49, 0
5, 166400, Note_on_c, 3, 57, 96
5, 167424, Note_off_c, 3, 57, 0
5, 167424, Note_on_c, 3, 55, 96
5, 167936, Note_off_c, 3, 55, 0
5, 167936, Note_on_c, 3, 54, 96
5, 168448, Note_off_c, 3, 54, 0
5, 168448, Note_on_c, 3, 50, 96
5, 168960, Note_off_c, 3, 50, 0
5, 168960, Note_on_c, 3, 47, 96
5, 169472, Note_off_c, 3, 47, 0
5, 169472, Note_on_c, 3, 50, 96
5, 169984, Note_off_c, 3, 50, 0
5, 169984, Note_on_c, 3, 52, 96
5, 170496, Note_off_c, 3, 52, 0
5, 170496, Note_on_c, 3, 40, 96
5, 171008, Note_off_c, 3, 40, 0
5, 171008, Note_on_c, 3, 42, 96
5, 171520, Note_off_c, 3, 42, 0
5, 171520, Note_on_c, 3, 44, 96
5, 172032, Note_off_c, 3, 44, 0
5, 172032, Note_on_c, 3, 45, 96
5, 173056, Note_off_c, 3, 45, 0
5, 173056, Note_on_c, 3, 47, 96
5, 173568, Note_off_c, 3, 47, 0
5, 173568, Note_on_c, 3, 59, 96
5, 174080, Note_off_c, 3, 59, 0
5, 174080, Note_on_c, 3, 56, 96
5, 174592, Note_off_c, 3, 56, 0
5, 174592, Note_on_c, 3, 52, 96
5, 175104, Note_off_c, 3, 52, 0
5, 175104, Note_on_c, 3, 54, 96
5, 175616, Note_off_c, 3, 54, 0
5, 175616, Note_on_c, 3, 56, 96
5, 176128, Note_off_c, 3, 56, 0
5, 176128, Note_on_c, 3, 57, 96
5, 176640, Note_off_c, 3, 57, 0
5, 176640, Note_on_c, 3, 54, 96
5, 177152, Note_off_c, 3, 54, 0
5, 177152, Note_on_c, 3, 50, 96
5, 177664, Note_off_c, 3, 50, 0
5, 177664, Note_on_c, 3, 47, 96
5, 178176, Note_off_c, 3, 47, 0
5, 178176, Note_on_c, 3, 41, 96
5, 178688, Note_off_c, 3, 41, 0
5, 178688, Note_on_c, 3, 49, 96
5, 179712, Note_off_c, 3, 49, 0
5, 179712, Note_on_c, 3, 47, 96
5, 180224, Note_off_c, 3, 47, 0
5, 180224, Note_on_c, 3, 45, 96
5, 180736, Note_off_c, 3, 45, 0
5, 180736, Note_on_c, 3, 47, 96
5, 181248, Note_off_c, 3, 47, 0
5, 181248, Note_on_c, 3, 49, 96
5, 182272, Note_off_c, 3, 49, 0
5, 182272, Note_on_c, 3, 42, 96
5, 182784, Note_off_c, 3, 42, 0
5, 182784, Note_on_c, 3, 54, 96
5, 183808, Note_off_c, 3, 54, 0
5, 183808, Note_on_c, 3, 52, 96
5, 184320, Note_off_c, 3, 52, 0
5, 184320, Note_on_c, 3, 50, 96
5, 185344, Note_off_c, 3, 50, 0
5, 185344, Note_on_c, 3, 49, 96
5, 186880, Note_off_c, 3, 49, 0
5, 186880, Note_on_c, 3, 47, 96
5, 187392, Note_off_c, 3, 47, 0
5, 187392, Note_on_c, 3, 49, 96
5, 187904, Note_off_c, 3, 49, 0
5, 187904, Note_on_c, 3, 51, 96
5, 188416, Note_off_c, 3, 51, 0
5, 188416, Note_on_c, 3, 52, 96
5, 188672, Note_off_c, 3, 52, 0
5, 188672, Note_on_c, 3, 47, 96
5, 188928, Note_off_c, 3, 47, 0
5, 188928, Note_on_c, 3, 52, 96
5, 189952, Note_off_c, 3, 52, 0
5, 189952, Note_on_c, 3, 50, 96
5, 190464, Note_off_c, 3, 50, 0
5, 190464, Note_on_c, 3, 49, 96
5, 190976, Note_off_c, 3, 49, 0
5, 190976, Note_on_c, 3, 52, 96
5, 191488, Note_off_c, 3, 52, 0
5, 191488, Note_on_c, 3, 49, 96
5, 192000, Note_off_c, 3, 49, 0
5, 192000, Note_on_c, 3, 45, 96
5, 192512, Note_off_c, 3, 45, 0
5, 192512, Note_on_c, 3, 40, 96
5, 193536, Note_off_c, 3, 40, 0
5, 193536, Note_on_c, 3, 45, 96
5, 194048, Note_off_c, 3, 45, 0
5, 194048, Note_on_c, 3, 43, 96
5, 194560, Note_off_c, 3, 43, 0
5, 194560, Note_on_c, 3, 42, 96
5, 195072, Note_off_c, 3, 42, 0
5, 195072, Note_on_c, 3, 45, 96
5, 195584, Note_off_c, 3, 45, 0
5, 195584, Note_on_c, 3, 44, 96
5, 196608, Note_off_c, 3, 44, 0
5, 196608, Note_on_c, 3, 42, 96
5, 197120, Note_off_c, 3, 42, 0
5, 197120, Note_on_c, 3, 54, 96
5, 197632, Note_off_c, 3, 54, 0
5, 197632, Note_on_c, 3, 50, 96
5, 198144, Note_off_c, 3, 50, 0
5, 198144, Note_on_c, 3, 47, 96
5, 198656, Note_off_c, 3, 47, 0
5, 198656, Note_on_c, 3, 40, 96
5, 199168, Note_off_c, 3, 40, 0
5, 199168, Note_on_c, 3, 52, 96
5, 200192, Note_off_c, 3, 52, 0
5, 200192, Note_on_c, 3, 50, 96
5, 200704, Note_off_c, 3, 50, 0
5, 200704, Note_on_c, 3, 49, 96
5, 201216, Note_off_c, 3, 49, 0
5, 201216, Note_on_c, 3, 45, 96
5, 201728, Note_off_c, 3, 45, 0
5, 201728, Note_on_c, 3, 50, 96
5, 202240, Note_off_c, 3, 50, 0
5, 202240, Note_on_c, 3, 52, 96
5, 202752, Note_off_c, 3, 52, 0
5, 202752, Note_on_c, 3, 54, 96
5, 203264, Note_off_c, 3, 54, 0
5, 203264, Note_on_c, 3, 52, 96
5, 203776, Note_off_c, 3, 52, 0
5, 203776, Note_on_c, 3, 50, 96
5, 204288, Note_off_c, 3, 50, 0
5, 204288, Note_on_c, 3, 52, 96
5, 204800, Note_off_c, 3, 52, 0
5, 204800, Note_on_c, 3, 54, 96
5, 205312, Note_off_c, 3, 54, 0
5, 205312, Note_on_c, 3, 52, 96
5, 205824, Note_off_c, 3, 52, 0
5, 205824, Note_on_c, 3, 54, 96
5, 206080, Note_off_c, 3, 54, 0
5, 206080, Note_on_c, 3, 57, 96
5, 206336, Note_off_c, 3, 57, 0
5, 206336, Note_on_c, 3, 56, 96
5, 206592, Note_off_c, 3, 56, 0
5, 206592, Note_on_c, 3, 59, 96
5, 206720, Note_off_c, 3, 59, 0
5, 206720, Note_on_c, 3, 57, 96
5, 206848, Note_off_c, 3, 57, 0
5, 206848, Note_on_c, 3, 57, 96
5, 208128, Note_off_c, 3, 57, 0
5, 208128, Note_on_c, 3, 55, 96
5, 208384, Note_off_c, 3, 55, 0
5, 208384, Note_on_c, 3, 54, 96
5, 208640, Note_off_c, 3, 54, 0
5, 208640, Note_on_c, 3, 55, 96
5, 208768, Note_off_c, 3, 55, 0
5, 208768, Note_on_c, 3, 57, 96
5, 208896, Note_off_c, 3, 57, 0
5, 208896, Note_on_c, 3, 51, 96
5, 209920, Note_off_c, 3, 51, 0
5, 214528, Note_on_c, 3, 39, 96
5, 215040, Note_off_c, 3, 39, 0
5, 215040, Note_on_c, 3, 40, 96
5, 217088, Note_off_c, 3, 40, 0
5, 217088, Note_on_c, 3, 45, 96
5, 221184, Note_off_c, 3, 45, 0
5, 221184, End_track
6, 0, Start_track
6, 0, Title_t, "Instrument 5"
6, 8704, Note_on_c, 4, 37, 96
6, 9216, Note_off_c, 4, 37, 0
6, 9216, Note_on_c, 4, 38, 96
6, 9728, Note_off_c, 4, 38, 0
6, 9728, Note_on_c, 4, 40, 96
6, 10240, Note_off_c, 4, 40, 0
6, 10240, Note_on_c, 4, 33, 96
6, 10752, Note_off_c, 4, 33, 0
6, 10752, Note_on_c, 4, 45, 96
6, 11264, Note_off_c, 4, 45, 0
6, 11264, Note_on_c, 4, 44, 96
6, 11776, Note_off_c, 4, 44, 0
6, 11776, Note_on_c, 4, 42, 96
6, 12288, Note_off_c, 4, 42, 0
6, 12288, Note_on_c, 4, 40, 96
6, 13312, Note_off_c, 4, 40, 0
6, 13312, Note_on_c, 4, 42, 96
6, 14336, Note_off_c, 4, 42, 0
6, 14336, Note_on_c, 4, 44, 96
6, 15360, Note_off_c, 4, 44, 0
6, 15360, Note_on_c, 4, 45, 96
6, 15872, Note_off_c, 4, 45, 0
6, 15872, Note_on_c, 4, 47, 96
6, 16384, Note_off_c, 4, 47, 0
6, 16384, Note_on_c, 4, 49, 96
6, 16896, Note_off_c, 4, 49, 0
6, 16896, Note_on_c, 4, 32, 96
6, 17408, Note_off_c, 4, 32, 0
6, 17408, Note_on_c, 4, 33, 96
6, 17920, Note_off_c, 4, 33, 0
6, 17920, Note_on_c, 4, 35, 96
6, 18432, Note_off_c, 4, 35, 0
6, 18432, Note_on_c, 4, 28, 96
6, 18944, Note_off_c, 4, 28, 0
6, 18944, Note_on_c, 4, 40, 96
6, 19456, Note_off_c, 4, 40, 0
6, 19456, Note_on_c, 4, 38, 96
6, 19968, Note_off_c, 4, 38, 0
6, 19968, Note_on_c, 4, 37, 96
6, 20480, Note_off_c, 4, 37, 0
6, 20480, Note_on_c, 4, 35, 96
6, 21504, Note_off_c, 4, 35, 0
6, 22016, Note_on_c, 4, 35, 96
6, 22528, Note_off_c, 4, 35, 0
6, 22528, Note_on_c, 4, 30, 96
6, 23040, Note_off_c, 4, 30, 0
6, 23040, Note_on_c, 4, 32, 96
6, 23552, Note_off_c, 4, 32, 0
6, 23552, Note_on_c, 4, 33, 96
6, 24064, Note_off_c, 4, 33, 0
6, 24064, Note_on_c, 4, 35, 96
6, 24576, Note_off_c, 4, 35, 0
6, 24576, Note_on_c, 4, 37, 96
6, 25088, Note_off_c, 4, 37, 0
6, 25088, Note_on_c, 4, 42, 96
6, 25600, Note_off_c, 4, 42, 0
6, 25600, Note_on_c, 4, 38, 96
6, 26112, Note_off_c, 4, 38, 0
6, 26112, Note_on_c, 4, 35, 96
6, 26624, Note_off_c, 4, 35, 0
6, 26624, Note_on_c, 4, 32, 96
6, 27136, Note_off_c, 4, 32, 0
6, 27136, Note_on_c, 4, 40, 96
6, 28160, Note_off_c, 4, 40, 0
6, 28160, Note_on_c, 4, 38, 96
6, 28672, Note_off_c, 4, 38, 0
6, 28672, Note_on_c, 4, 37, 96
6, 29696, Note_off_c, 4, 37, 0
6, 29696, Note_on_c, 4, 35, 96
6, 30720, Note_off_c, 4, 35, 0
6, 30720, Note_on_c, 4, 37, 96
6, 31744, Note_off_c, 4, 37, 0
6, 31744, Note_on_c, 4, 38, 96
6, 32256, Note_off_c, 4, 38, 0
6, 32256, Note_on_c, 4, 40, 96
6, 32768, Note_off_c, 4, 40, 0
6, 32768, Note_on_c, 4, 42, 96
6, 33280, Note_off_c, 4, 42, 0
6, 33280, Note_on_c, 4, 37, 96
6, 33792, Note_off_c, 4, 37, 0
6, 33792, Note_on_c, 4, 38, 96
6, 34304, Note_off_c, 4, 38, 0
6, 34304, Note_on_c, 4, 40, 96
6, 34816, Note_off_c, 4, 40, 0
6, 34816, Note_on_c, 4, 33, 96
6, 40960, Note_off_c, 4, 33, 0
6, 41472, Note_on_c, 4, 42, 96
6, 41984, Note_off_c, 4, 42, 0
6, 41984, Note_on_c, 4, 38, 96
6, 42496, Note_off_c, 4, 38, 0
6, 42496, Note_on_c, 4, 35, 96
6, 43008, Note_off_c, 4, 35, 0
6, 43008, Note_on_c, 4, 32, 96
6, 43520, Note_off_c, 4, 32, 0
6, 43520, Note_on_c, 4, 37, 96
6, 44544, Note_off_c, 4, 37, 0
6, 44544, Note_on_c, 4, 35, 96
6, 45056, Note_off_c, 4, 35, 0
6, 45056, Note_on_c, 4, 33, 96
6, 45568, Note_off_c, 4, 33, 0
6, 45568, Note_on_c, 4, 45, 96
6, 46080, Note_off_c, 4, 45, 0
6, 46080, Note_on_c, 4, 44, 96
6, 46592, Note_off_c, 4, 44, 0
6, 46592, Note_on_c, 4, 42, 96
6, 47104, Note_off_c, 4, 42, 0
6, 47104, Note_on_c, 4, 41, 96
6, 48128, Note_off_c, 4, 41, 0
6, 48128, Note_on_c, 4, 42, 96
6, 48640, Note_off_c, 4, 42, 0
6, 48640, Note_on_c, 4, 44, 96
6, 49152, Note_off_c, 4, 44, 0
6, 49152, Note_on_c, 4, 45, 96
6, 49664, Note_off_c, 4, 45, 0
6, 49664, Note_on_c, 4, 47, 96
6, 50176, Note_off_c, 4, 47, 0
6, 50176, Note_on_c, 4, 49, 96
6, 50688, Note_off_c, 4, 49, 0
6, 50688, Note_on_c, 4, 37, 96
6, 51200, Note_off_c, 4, 37, 0
6, 51200, Note_on_c, 4, 30, 96
6, 52224, Note_off_c, 4, 30, 0
6, 53760, Note_on_c, 4, 42, 96
6, 54272, Note_off_c, 4, 42, 0
6, 54272, Note_on_c, 4, 38, 96
6, 54784, Note_off_c, 4, 38, 0
6, 54784, Note_on_c, 4, 35, 96
6, 55296, Note_off_c, 4, 35, 0
6, 55296, Note_on_c, 4, 32, 96
6, 55808, Note_off_c, 4, 32, 0
6, 55808, Note_on_c, 4, 40, 96
6, 56832, Note_off_c, 4, 40, 0
6, 56832, Note_on_c, 4, 38, 96
6, 57344, Note_off_c, 4, 38, 0
6, 57344, Note_on_c, 4, 37, 96
6, 57856, Note_off_c, 4, 37, 0
6, 57856, Note_on_c, 4, 45, 96
6, 58368, Note_off_c, 4, 45, 0
6, 58368, Note_on_c, 4, 42, 96
6, 58880, Note_off_c, 4, 42, 0
6, 58880, Note_on_c, 4, 38, 96
6, 59392, Note_off_c, 4, 38, 0
6, 59392, Note_on_c, 4, 35, 96
6, 59904, Note_off_c, 4, 35, 0
6, 59904, Note_on_c, 4, 37, 96
6, 60416, Note_off_c, 4, 37, 0
6, 60416, Note_on_c, 4, 38, 96
6, 60928, Note_off_c, 4, 38, 0
6, 60928, Note_on_c, 4, 40, 96
6, 61440, Note_off_c, 4, 40, 0
6, 61440, Note_on_c, 4, 42, 96
6, 61952, Note_off_c, 4, 42, 0
6, 61952, Note_on_c, 4, 43, 96
6, 62464, Note_off_c, 4, 43, 0
6, 62464, Note_on_c, 4, 42, 96
6, 62976, Note_off_c, 4, 42, 0
6, 62976, Note_on_c, 4, 40, 96
6, 63488, Note_off_c, 4, 40, 0
6, 63488, Note_on_c, 4, 38, 96
6, 64000, Note_off_c, 4, 38, 0
6, 64000, Note_on_c, 4, 40, 96
6, 64512, Note_off_c, 4, 40, 0
6, 64512, Note_on_c, 4, 42, 96
6, 65024, Note_off_c, 4, 42, 0
6, 65024, Note_on_c, 4, 38, 96
6, 65536, Note_off_c, 4, 38, 0
6, 65536, Note_on_c, 4, 45, 96
6, 67584, Note_off_c, 4, 45, 0
6, 67584, Note_on_c, 4, 33, 96
6, 70144, Note_off_c, 4, 33, 0
6, 74240, Note_on_c, 4, 37, 96
6, 74752, Note_off_c, 4, 37, 0
6, 74752, Note_on_c, 4, 38, 96
6, 75264, Note_off_c, 4, 38, 0
6, 75264, Note_on_c, 4, 40, 96
6, 75776, Note_off_c, 4, 40, 0
6, 75776, Note_on_c, 4, 33, 96
6, 76288, Note_off_c, 4, 33, 0
6, 76288, Note_on_c, 4, 45, 96
6, 76800, Note_off_c, 4, 45, 0
6, 76800, Note_on_c, 4, 44, 96
6, 77312, Note_off_c, 4, 44, 0
6, 77312, Note_on_c, 4, 42, 96
6, 77824, Note_off_c, 4, 42, 0
6, 77824, Note_on_c, 4, 40, 96
6, 78848, Note_off_c, 4, 40, 0
6, 78848, Note_on_c, 4, 42, 96
6, 79872, Note_off_c, 4, 42, 0
6, 79872, Note_on_c, 4, 44, 96
6, 80896, Note_off_c, 4, 44, 0
6, 80896, Note_on_c, 4, 45, 96
6, 81408, Note_off_c, 4, 45, 0
6, 81408, Note_on_c, 4, 47, 96
6, 81920, Note_off_c, 4, 47, 0
6, 81920, Note_on_c, 4, 49, 96
6, 82432, Note_off_c, 4, 49, 0
6, 82432, Note_on_c, 4, 32, 96
6, 82944, Note_off_c, 4, 32, 0
6, 82944, Note_on_c, 4, 33, 96
6, 83456, Note_off_c, 4, 33, 0
6, 83456, Note_on_c, 4, 35, 96
6, 83968, Note_off_c, 4, 35, 0
6, 83968, Note_on_c, 4, 28, 96
6, 84480, Note_off_c, 4, 28, 0
6, 84480, Note_on_c, 4, 40, 96
6, 84992, Note_off_c, 4, 40, 0
6, 84992, Note_on_c, 4, 38, 96
6, 85504, Note_off_c, 4, 38, 0
6, 85504, Note_on_c, 4, 37, 96
6, 86016, Note_off_c, 4, 37, 0
6, 86016, Note_on_c, 4, 35, 96
6, 87040, Note_off_c, 4, 35, 0
6, 87552, Note_on_c, 4, 35, 96
6, 88064, Note_off_c, 4, 35, 0
6, 88064, Note_on_c, 4, 30, 96
6, 88576, Note_off_c, 4, 30, 0
6, 88576, Note_on_c, 4, 32, 96
6, 89088, Note_off_c, 4, 32, 0
6, 89088, Note_on_c, 4, 33, 96
6, 89600, Note_off_c, 4, 33, 0
6, 89600, Note_on_c, 4, 35, 96
6, 90112, Note_off_c, 4, 35, 0
6, 90112, Note_on_c, 4, 37, 96
6, 90624, Note_off_c, 4, 37, 0
6, 90624, Note_on_c, 4, 42, 96
6, 91136, Note_off_c, 4, 42, 0
6, 91136, Note_on_c, 4, 38, 96
6, 91648, Note_off_c, 4, 38, 0
6, 91648, Note_on_c, 4, 35, 96
6, 92160, Note_off_c, 4, 35, 0
6, 92160, Note_on_c, 4, 32, 96
6, 92672, Note_off_c, 4, 32, 0
6, 92672, Note_on_c, 4, 40, 96
6, 93696, Note_off_c, 4, 40, 0
6, 93696, Note_on_c, 4, 38, 96
6, 94208, Note_off_c, 4, 38, 0
6, 94208, Note_on_c, 4, 37, 96
6, 95232, Note_off_c, 4, 37, 0
6, 95232, Note_on_c, 4, 35, 96
6, 96256, Note_off_c, 4, 35, 0
6, 96256, Note_on_c, 4, 37, 96
6, 97280, Note_off_c, 4, 37, 0
6, 97280, Note_on_c, 4, 38, 96
6, 97792, Note_off_c, 4, 38, 0
6, 97792, Note_on_c, 4, 40, 96
6, 98304, Note_off_c, 4, 40, 0
6, 98304, Note_on_c, 4, 42, 96
6, 98816, Note_off_c, 4, 42, 0
6, 98816, Note_on_c, 4, 37, 96
6, 99328, Note_off_c, 4, 37, 0
6, 99328, Note_on_c, 4, 38, 96
6, 99840, Note_off_c, 4, 38, 0
6, 99840, Note_on_c, 4, 40, 96
6, 100352, Note_off_c, 4, 40, 0
6, 100352, Note_on_c, 4, 33, 96
6, 106496, Note_off_c, 4, 33, 0
6, 107008, Note_on_c, 4, 42, 96
6, 107520, Note_off_c, 4, 42, 0
6, 107520, Note_on_c, 4, 38, 96
6, 108032, Note_off_c, 4, 38, 0
6, 108032, Note_on_c, 4, 35, 96
6, 108544, Note_off_c, 4, 35, 0
6, 108544, Note_on_c, 4, 32, 96
6, 109056, Note_off_c, 4, 32, 0
6, 109056, Note_on_c, 4, 37, 96
6, 110080, Note_off_c, 4, 37, 0
6, 110080, Note_on_c, 4, 35, 96
6, 110592, Note_off_c, 4, 35, 0
6, 110592, Note_on_c, 4, 33, 96
6, 111104, Note_off_c, 4, 33, 0
6, 111104, Note_on_c, 4, 45, 96
6, 111616, Note_off_c, 4, 45, 0
6, 111616, Note_on_c, 4, 44, 96
6, 112128, Note_off_c, 4, 44, 0
6, 112128, Note_on_c, 4, 42, 96
6, 112640, Note_off_c, 4, 42, 0
6, 112640, Note_on_c, 4, 41, 96
6, 113664, Note_off_c, 4, 41, 0
6, 113664, Note_on_c, 4, 42, 96
6, 114176, Note_off_c, 4, 42, 0
6, 114176, Note_on_c, 4, 44, 96
6, 114688, Note_off_c, 4, 44, 0
6, 114688, Note_on_c, 4, 45, 96
6, 115200, Note_off_c, 4, 45, 0
6, 115200, Note_on_c, 4, 47, 96
6, 115712, Note_off_c, 4, 47, 0
6, 115712, Note_on_c, 4, 49, 96
6, 116224, Note_off_c, 4, 49, 0
6, 116224, Note_on_c, 4, 37, 96
6, 116736, Note_off_c, 4, 37, 0
6, 116736, Note_on_c, 4, 30, 96
6, 117760, Note_off_c, 4, 30, 0
6, 119296, Note_on_c, 4, 42, 96
6, 119808, Note_off_c, 4, 42, 0
6, 119808, Note_on_c, 4, 38, 96
6, 120320, Note_off_c, 4, 38, 0
6, 120320, Note_on_c, 4, 35, 96
6, 120832, Note_off_c, 4, 35, 0
6, 120832, Note_on_c, 4, 32, 96
6, 121344, Note_off_c, 4, 32, 0
6, 121344, Note_on_c, 4, 40, 96
6, 122368, Note_off_c, 4, 40, 0
6, 122368, Note_on_c, 4, 38, 96
6, 122880, Note_off_c, 4, 38, 0
6, 122880, Note_on_c, 4, 37, 96
6, 123392, Note_off_c, 4, 37, 0
6, 123392, Note_on_c, 4, 45, 96
6, 123904, Note_off_c, 4, 45, 0
6, 123904, Note_on_c, 4, 42, 96
6, 124416, Note_off_c, 4, 42, 0
6, 124416, Note_on_c, 4, 38, 96
6, 124928, Note_off_c, 4, 38, 0
6, 124928, Note_on_c, 4, 35, 96
6, 125440, Note_off_c, 4, 35, 0
6, 125440, Note_on_c, 4, 37, 96
6, 125952, Note_off_c, 4, 37, 0
6, 125952, Note_on_c, 4, 38, 96
6, 126464, Note_off_c, 4, 38, 0
6, 126464, Note_on_c, 4, 40, 96
6, 126976, Note_off_c, 4, 40, 0
6, 126976, Note_on_c, 4, 42, 96
6, 127488, Note_off_c, 4, 42, 0
6, 127488, Note_on_c, 4, 43, 96
6, 128000, Note_off_c, 4, 43, 0
6, 128000, Note_on_c, 4, 42, 96
6, 128512, Note_off_c, 4, 42, 0
6, 128512, Note_on_c, 4, 40, 96
6, 129024, Note_off_c, 4, 40, 0
6, 129024, Note_on_c, 4, 38, 96
6, 129536, Note_off_c, 4, 38, 0
6, 129536, Note_on_c, 4, 40, 96
6, 130048, Note_off_c, 4, 40, 0
6, 130048, Note_on_c, 4, 42, 96
6, 130560, Note_off_c, 4, 42, 0
6, 130560, Note_on_c, 4, 38, 96
6, 131072, Note_off_c, 4, 38, 0
6, 131072, Note_on_c, 4, 45, 96
6, 133120, Note_off_c, 4, 45, 0
6, 133120, Note_on_c, 4, 33, 96
6, 135680, Note_off_c, 4, 33, 0
6, 136192, Note_on_c, 4, 33, 96
6, 137216, Note_off_c, 4, 33, 0
6, 137216, Note_on_c, 4, 35, 96
6, 138240, Note_off_c, 4, 35, 0
6, 138240, Note_on_c, 4, 37, 96
6, 139264, Note_off_c, 4, 37, 0
6, 139264, Note_on_c, 4, 38, 96
6, 140288, Note_off_c, 4, 38, 0
6, 140288, Note_on_c, 4, 37, 96
6, 141312, Note_off_c, 4, 37, 0
6, 141312, Note_on_c, 4, 35, 96
6, 142336, Note_off_c, 4, 35, 0
6, 142336, Note_on_c, 4, 34, 96
6, 143360, Note_off_c, 4, 34, 0
6, 143360, Note_on_c, 4, 35, 96
6, 143872, Note_off_c, 4, 35, 0
6, 143872, Note_on_c, 4, 35, 96
6, 144384, Note_off_c, 4, 35, 0
6, 144384, Note_on_c, 4, 37, 96
6, 144896, Note_off_c, 4, 37, 0
6, 144896, Note_on_c, 4, 39, 96
6, 145408, Note_off_c, 4, 39, 0
6, 145408, Note_on_c, 4, 40, 96
6, 145920, Note_off_c, 4, 40, 0
6, 145920, Note_on_c, 4, 28, 96
6, 146432, Note_off_c, 4, 28, 0
6, 146432, Note_on_c, 4, 30, 96
6, 146944, Note_off_c, 4, 30, 0
6, 146944, Note_on_c, 4, 32, 96
6, 147456, Note_off_c, 4, 32, 0
6, 147456, Note_on_c, 4, 33, 96
6, 147968, Note_off_c, 4, 33, 0
6, 147968, Note_on_c, 4, 38, 96
6, 148480, Note_off_c, 4, 38, 0
6, 148480, Note_on_c, 4, 35, 96
6, 148992, Note_off_c, 4, 35, 0
6, 148992, Note_on_c, 4, 32, 96
6, 149504, Note_off_c, 4, 32, 0
6, 149504, Note_on_c, 4, 28, 96
6, 150016, Note_off_c, 4, 28, 0
6, 150016, Note_on_c, 4, 37, 96
6, 151040, Note_off_c, 4, 37, 0
6, 151040, Note_on_c, 4, 35, 96
6, 151552, Note_off_c, 4, 35, 0
6, 151552, Note_on_c, 4, 33, 96
6, 152576, Note_off_c, 4, 33, 0
6, 152576, Note_on_c, 4, 32, 96
6, 153600, Note_off_c, 4, 32, 0
6, 153600, Note_on_c, 4, 33, 96
6, 154624, Note_off_c, 4, 33, 0
6, 154624, Note_on_c, 4, 35, 96
6, 155136, Note_off_c, 4, 35, 0
6, 155136, Note_on_c, 4, 37, 96
6, 155648, Note_off_c, 4, 37, 0
6, 155648, Note_on_c, 4, 38, 96
6, 156160, Note_off_c, 4, 38, 0
6, 156160, Note_on_c, 4, 30, 96
6, 156672, Note_off_c, 4, 30, 0
6, 156672, Note_on_c, 4, 32, 96
6, 157184, Note_off_c, 4, 32, 0
6, 157184, Note_on_c, 4, 34, 96
6, 157696, Note_off_c, 4, 34, 0
6, 157696, Note_on_c, 4, 35, 96
6, 158208, Note_off_c, 4, 35, 0
6, 158208, Note_on_c, 4, 38, 96
6, 158720, Note_off_c, 4, 38, 0
6, 158720, Note_on_c, 4, 40, 96
6, 159488, Note_off_c, 4, 40, 0
6, 159488, Note_on_c, 4, 42, 96
6, 159744, Note_off_c, 4, 42, 0
6, 159744, Note_on_c, 4, 43, 96
6, 160256, Note_off_c, 4, 43, 0
6, 160256, Note_on_c, 4, 38, 96
6, 160512, Note_off_c, 4, 38, 0
6, 160512, Note_on_c, 4, 40, 96
6, 160768, Note_off_c, 4, 40, 0
6, 160768, Note_on_c, 4, 42, 96
6, 161280, Note_off_c, 4, 42, 0
6, 161280, Note_on_c, 4, 30, 96
6, 161792, Note_off_c, 4, 30, 0
6, 161792, Note_on_c, 4, 35, 96
6, 164352, Note_off_c, 4, 35, 0
6, 164352, Note_on_c, 4, 47, 96
6, 164864, Note_off_c, 4, 47, 0
6, 164864, Note_on_c, 4, 43, 96
6, 165376, Note_off_c, 4, 43, 0
6, 165376, Note_on_c, 4, 40, 96
6, 165888, Note_off_c, 4, 40, 0
6, 165888, Note_on_c, 4, 37, 96
6, 166400, Note_off_c, 4, 37, 0
6, 166400, Note_on_c, 4, 45, 96
6, 167424, Note_off_c, 4, 45, 0
6, 167424, Note_on_c, 4, 43, 96
6, 167936, Note_off_c, 4, 43, 0
6, 167936, Note_on_c, 4, 42, 96
6, 168448, Note_off_c, 4, 42, 0
6, 168448, Note_on_c, 4, 38, 96
6, 168960, Note_off_c, 4, 38, 0
6, 168960, Note_on_c, 4, 35, 96
6, 169472, Note_off_c, 4, 35, 0
6, 169472, Note_on_c, 4, 38, 96
6, 169984, Note_off_c, 4, 38, 0
6, 169984, Note_on_c, 4, 40, 96
6, 170496, Note_off_c, 4, 40, 0
6, 170496, Note_on_c, 4, 28, 96
6, 171008, Note_off_c, 4, 28, 0
6, 171008, Note_on_c, 4, 30, 96
6, 171520, Note_off_c, 4, 30, 0
6, 171520, Note_on_c, 4, 32, 96
6, 172032, Note_off_c, 4, 32, 0
6, 172032, Note_on_c, 4, 33, 96
6, 173056, Note_off_c, 4, 33, 0
6, 173056, Note_on_c, 4, 35, 96
6, 173568, Note_off_c, 4, 35, 0
6, 173568, Note_on_c, 4, 47, 96
6, 174080, Note_off_c, 4, 47, 0
6, 174080, Note_on_c, 4, 44, 96
6, 174592, Note_off_c, 4, 44, 0
6, 174592, Note_on_c, 4, 40, 96
6, 175104, Note_off_c, 4, 40, 0
6, 175104, Note_on_c, 4, 42, 96
6, 175616, Note_off_c, 4, 42, 0
6, 175616, Note_on_c, 4, 44, 96
6, 176128, Note_off_c, 4, 44, 0
6, 176128, Note_on_c, 4, 45, 96
6, 176640, Note_off_c, 4, 45, 0
6, 176640, Note_on_c, 4, 42, 96
6, 177152, Note_off_c, 4, 42, 0
6, 177152, Note_on_c, 4, 38, 96
6, 177664, Note_off_c, 4, 38, 0
6, 177664, Note_on_c, 4, 35, 96
6, 178176, Note_off_c, 4, 35, 0
6, 178176, Note_on_c, 4, 29, 96
6, 178688, Note_off_c, 4, 29, 0
6, 178688, Note_on_c, 4, 37, 96
6, 179712, Note_off_c, 4, 37, 0
6, 179712, Note_on_c, 4, 35, 96
6, 180224, Note_off_c, 4, 35, 0
6, 180224, Note_on_c, 4, 33, 96
6, 180736, Note_off_c, 4, 33, 0
6, 180736, Note_on_c, 4, 35, 96
6, 181248, Note_off_c, 4, 35, 0
6, 181248, Note_on_c, 4, 37, 96
6, 182272, Note_off_c, 4, 37, 0
6, 182272, Note_on_c, 4, 30, 96
6, 182784, Note_off_c, 4, 30, 0
6, 182784, Note_on_c, 4, 42, 96
6, 183808, Note_off_c, 4, 42, 0
6, 183808, Note_on_c, 4, 40, 96
6, 184320, Note_off_c, 4, 40, 0
6, 184320, Note_on_c, 4, 38, 96
6, 185344, Note_off_c, 4, 38, 0
6, 185344, Note_on_c, 4, 37, 96
6, 186880, Note_off_c, 4, 37, 0
6, 186880, Note_on_c, 4, 35, 96
6, 187392, Note_off_c, 4, 35, 0
6, 187392, Note_on_c, 4, 37, 96
6, 187904, Note_off_c, 4, 37, 0
6, 187904, Note_on_c, 4, 39, 96
6, 188416, Note_off_c, 4, 39, 0
6, 188416, Note_on_c, 4, 40, 96
6, 188672, Note_off_c, 4, 40, 0
6, 188672, Note_on_c, 4, 35, 96
6, 188928, Note_off_c, 4, 35, 0
6, 188928, Note_on_c, 4, 40, 96
6, 189952, Note_off_c, 4, 40, 0
6, 189952, Note_on_c, 4, 38, 96
6, 190464, Note_off_c, 4, 38, 0
6, 190464, Note_on_c, 4, 37, 96
6, 190976, Note_off_c, 4, 37, 0
6, 190976, Note_on_c, 4, 40, 96
6, 191488, Note_off_c, 4, 40, 0
6, 191488, Note_on_c, 4, 37, 96
6, 192000, Note_off_c, 4, 37, 0
6, 192000, Note_on_c, 4, 33, 96
6, 192512, Note_off_c, 4, 33, 0
6, 192512, Note_on_c, 4, 28, 96
6, 193536, Note_off_c, 4, 28, 0
6, 193536, Note_on_c, 4, 33, 96
6, 194048, Note_off_c, 4, 33, 0
6, 194048, Note_on_c, 4, 31, 96
6, 194560, Note_off_c, 4, 31, 0
6, 194560, Note_on_c, 4, 30, 96
6, 195072, Note_off_c, 4, 30, 0
6, 195072, Note_on_c, 4, 33, 96
6, 195584, Note_off_c, 4, 33, 0
6, 195584, Note_on_c, 4, 32, 96
6, 196608, Note_off_c, 4, 32, 0
6, 196608, Note_on_c, 4, 30, 96
6, 197120, Note_off_c, 4, 30, 0
6, 197120, Note_on_c, 4, 42, 96
6, 197632, Note_off_c, 4, 42, 0
6, 197632, Note_on_c, 4, 38, 96
6, 198144, Note_off_c, 4, 38, 0
6, 198144, Note_on_c, 4, 35, 96
6, 198656, Note_off_c, 4, 35, 0
6, 198656, Note_on_c, 4, 28, 96
6, 199168, Note_off_c, 4, 28, 0
6, 199168, Note_on_c, 4, 40, 96
6, 200192, Note_off_c, 4, 40, 0
6, 200192, Note_on_c, 4, 38, 96
6, 200704, Note_off_c, 4, 38, 0
6, 200704, Note_on_c, 4, 37, 96
6, 201216, Note_off_c, 4, 37, 0
6, 201216, Note_on_c, 4, 33, 96
6, 201728, Note_off_c, 4, 33, 0
6, 201728, Note_on_c, 4, 38, 96
6, 202240, Note_off_c, 4, 38, 0
6, 202240, Note_on_c, 4, 40, 96
6, 202752, Note_off_c, 4, 40, 0
6, 202752, Note_on_c, 4, 42, 96
6, 203264, Note_off_c, 4, 42, 0
6, 203264, Note_on_c, 4, 40, 96
6, 203776, Note_off_c, 4, 40, 0
6, 203776, Note_on_c, 4, 38, 96
6, 204288, Note_off_c, 4, 38, 0
6, 204288, Note_on_c, 4, 40, 96
6, 204800, Note_off_c, 4, 40, 0
6, 204800, Note_on_c, 4, 42, 96
6, 205312, Note_off_c, 4, 42, 0
6, 205312, Note_on_c, 4, 40, 96
6, 205824, Note_off_c, 4, 40, 0
6, 205824, Note_on_c, 4, 42, 96
6, 206080, Note_off_c, 4, 42, 0
6, 206080, Note_on_c, 4, 45, 96
6, 206336, Note_off_c, 4, 45, 0
6, 206336, Note_on_c, 4, 44, 96
6, 206592, Note_off_c, 4, 44, 0
6, 206592, Note_on_c, 4, 47, 96
6, 206720, Note_off_c, 4, 47, 0
6, 206720, Note_on_c, 4, 45, 96
6, 206848, Note_off_c, 4, 45, 0
6, 206848, Note_on_c, 4, 45, 96
6, 208128, Note_off_c, 4, 45, 0
6, 208128, Note_on_c, 4, 43, 96
6, 208384, Note_off_c, 4, 43, 0
6, 208384, Note_on_c, 4, 42, 96
6, 208640, Note_off_c, 4, 42, 0
6, 208640, Note_on_c, 4, 43, 96
6, 208768, Note_off_c, 4, 43, 0
6, 208768, Note_on_c, 4, 45, 96
6, 208896, Note_off_c, 4, 45, 0
6, 208896, Note_on_c, 4, 39, 96
6, 209920, Note_off_c, 4, 39, 0
6, 214528, Note_on_c, 4, 27, 96
6, 215040, Note_off_c, 4, 27, 0
6, 215040, Note_on_c, 4, 28, 96
6, 217088, Note_off_c, 4, 28, 0
6, 217088, Note_on_c, 4, 33, 96
6, 221184, Note_off_c, 4, 33, 0
6, 221184, End_track
0, 0, End_of_file
