0, 0, Header, 1, 4, 120
1, 0, Start_track
1, 0, Title_t, "untitled"
1, 0, Time_signature, 12, 3, 12, 8
1, 0, Key_signature, 3, "major"
1, 0, Tempo, 750000
1, 0, Marker_t, "tpnvnt12.pc"
1, 0, Marker_t, "Staff:0 "
1, 25, Tempo, 736196
1, 50, Tempo, 740741
1, 55, Tempo, 745342
1, 125, Tempo, 740741
1, 14405, Tempo, 754717
1, 14415, Tempo, 759494
1, 14420, Tempo, 769231
1, 14425, Tempo, 774194
1, 14430, Tempo, 784314
1, 14440, Tempo, 789474
1, 14445, Tempo, 794702
1, 14450, Tempo, 800000
1, 14455, Tempo, 810811
1, 14460, Tempo, 816327
1, 14470, Tempo, 827586
1, 14475, Tempo, 833333
1, 14480, Tempo, 851064
1, 14500, Tempo, 857143
1, 14505, Tempo, 869565
1, 14510, Tempo, 875912
1, 14515, Tempo, 882353
1, 14525, Tempo, 895522
1, 14530, Tempo, 902256
1, 14545, Tempo, 923077
1, 14550, Tempo, 930233
1, 14555, Tempo, 937500
1, 14560, Tempo, 944882
1, 14565, Tempo, 952381
1, 14570, Tempo, 960000
1, 14575, Tempo, 967742
1, 14580, Tempo, 975610
1, 14595, Tempo, 983607
1, 14605, Tempo, 991736
1, 14610, Tempo, 1008403
1, 14615, Tempo, 1016949
1, 14620, Tempo, 1025641
1, 14625, Tempo, 1034483
1, 14630, Tempo, 1043478
1, 14645, Tempo, 1052632
1, 14650, Tempo, 1061947
1, 14655, Tempo, 1071429
1, 14665, Tempo, 1081081
1, 14675, Tempo, 1090909
1, 14680, Tempo, 1111111
1, 14695, Tempo, 1121495
1, 14710, Tempo, 1132075
1, 14715, Tempo, 1142857
1, 14720, Tempo, 1153846
1, 14730, Tempo, 1165049
1, 14740, Tempo, 1176471
1, 14755, Tempo, 1188119
1, 14760, Tempo, 1200000
1, 14765, Tempo, 1212121
1, 14775, Tempo, 1224490
1, 14795, Tempo, 1237113
1, 14805, Tempo, 1250000
1, 14810, Tempo, 1263158
1, 14815, Tempo, 1276596
1, 14825, Tempo, 1290323
1, 14840, Tempo, 1304348
1, 14845, Tempo, 1318681
1, 14855, Tempo, 1333333
1, 14870, Tempo, 1348315
1, 14880, Tempo, 1363636
1, 14895, Tempo, 1379310
1, 14900, Tempo, 1395349
1, 14915, Tempo, 1411765
1, 14920, Tempo, 1428571
1, 14935, Tempo, 1445783
1, 14950, Tempo, 1463415
1, 14965, Tempo, 1481481
1, 14985, Tempo, 1500000
1, 15000, Tempo, 1518987
1, 15005, Tempo, 1538462
1, 15025, Tempo, 1558442
1, 15055, Tempo, 1578947
1, 15090, Tempo, 1600000
1, 15105, Tempo, 1621622
1, 15170, Tempo, 1666667
1, 15175, Tempo, 1643836
1, 15220, Tempo, 1621622
1, 15285, Tempo, 1621622
1, 15310, Tempo, 1643836
1, 15360, Tempo, 1621622
1, 15400, Tempo, 1643836
1, 15445, Tempo, 1666667
1, 15445, End_track
2, 0, Start_track
2, 0, Title_t, "FLUTE"
2, 0, Program_c, 0, 0
2, 0, Control_c, 0, 7, 105
2, 0, Control_c, 0, 10, 30
2, 0, Note_on_c, 0, 69, 127
2, 15, Note_on_c, 0, 69, 0
2, 15, Note_on_c, 0, 68, 127
2, 20, Control_c, 0, 7, 110
2, 30, Note_on_c, 0, 68, 0
2, 30, Note_on_c, 0, 69, 127
2, 80, Control_c, 0, 7, 111
2, 120, Note_on_c, 0, 69, 0
2, 120, Note_on_c, 0, 69, 127
2, 150, Note_on_c, 0, 69, 0
2, 180, Note_on_c, 0, 69, 127
2, 195, Note_on_c, 0, 69, 0
2, 195, Note_on_c, 0, 68, 127
2, 210, Note_on_c, 0, 68, 0
2, 210, Note_on_c, 0, 69, 127
2, 300, Note_on_c, 0, 69, 0
2, 300, Note_on_c, 0, 69, 127
2, 330, Note_on_c, 0, 69, 0
2, 360, Note_on_c, 0, 71, 127
2, 375, Note_on_c, 0, 71, 0
2, 375, Note_on_c, 0, 69, 127
2, 390, Note_on_c, 0, 69, 0
2, 390, Note_on_c, 0, 71, 127
2, 750, Note_on_c, 0, 71, 0
2, 750, Note_on_c, 0, 69, 127
2, 780, Note_on_c, 0, 69, 0
2, 780, Note_on_c, 0, 68, 127
2, 810, Note_on_c, 0, 68, 0
2, 810, Note_on_c, 0, 69, 127
2, 840, Note_on_c, 0, 69, 0
2, 840, Note_on_c, 0, 71, 127
2, 870, Note_on_c, 0, 71, 0
2, 870, Note_on_c, 0, 73, 127
2, 900, Note_on_c, 0, 73, 0
2, 900, Note_on_c, 0, 74, 127
2, 930, Note_on_c, 0, 74, 0
2, 930, Note_on_c, 0, 73, 127
2, 960, Note_on_c, 0, 73, 0
2, 960, Note_on_c, 0, 74, 127
2, 990, Note_on_c, 0, 74, 0
2, 990, Note_on_c, 0, 78, 127
2, 1020, Note_on_c, 0, 78, 0
2, 1020, Note_on_c, 0, 76, 127
2, 1050, Note_on_c, 0, 76, 0
2, 1050, Note_on_c, 0, 74, 127
2, 1080, Note_on_c, 0, 74, 0
2, 1080, Note_on_c, 0, 73, 127
2, 1110, Note_on_c, 0, 73, 0
2, 1110, Note_on_c, 0, 69, 127
2, 1140, Note_on_c, 0, 69, 0
2, 1140, Note_on_c, 0, 73, 127
2, 1170, Note_on_c, 0, 73, 0
2, 1170, Note_on_c, 0, 76, 127
2, 1200, Note_on_c, 0, 76, 0
2, 1200, Note_on_c, 0, 81, 127
2, 1230, Note_on_c, 0, 81, 0
2, 1230, Note_on_c, 0, 78, 127
2, 1260, Note_on_c, 0, 78, 0
2, 1260, Note_on_c, 0, 75, 127
2, 1290, Note_on_c, 0, 75, 0
2, 1290, Note_on_c, 0, 71, 127
2, 1320, Note_on_c, 0, 71, 0
2, 1320, Note_on_c, 0, 75, 127
2, 1350, Note_on_c, 0, 75, 0
2, 1350, Note_on_c, 0, 78, 127
2, 1380, Note_on_c, 0, 78, 0
2, 1380, Note_on_c, 0, 81, 127
2, 1410, Note_on_c, 0, 81, 0
2, 1410, Note_on_c, 0, 78, 127
2, 1440, Note_on_c, 0, 78, 0
2, 1440, Note_on_c, 0, 80, 127
2, 1470, Note_on_c, 0, 80, 0
2, 1470, Note_on_c, 0, 81, 127
2, 1500, Note_on_c, 0, 81, 0
2, 1500, Note_on_c, 0, 80, 127
2, 1530, Note_on_c, 0, 80, 0
2, 1530, Note_on_c, 0, 78, 127
2, 1560, Note_on_c, 0, 78, 0
2, 1560, Note_on_c, 0, 76, 127
2, 1590, Note_on_c, 0, 76, 0
2, 1590, Note_on_c, 0, 75, 127
2, 1620, Note_on_c, 0, 75, 0
2, 1620, Note_on_c, 0, 73, 127
2, 1650, Note_on_c, 0, 73, 0
2, 1650, Note_on_c, 0, 75, 127
2, 1680, Note_on_c, 0, 75, 0
2, 1680, Note_on_c, 0, 76, 127
2, 1710, Note_on_c, 0, 76, 0
2, 1710, Note_on_c, 0, 75, 127
2, 1740, Note_on_c, 0, 75, 0
2, 1740, Note_on_c, 0, 73, 127
2, 1770, Note_on_c, 0, 73, 0
2, 1770, Note_on_c, 0, 71, 127
2, 1800, Note_on_c, 0, 71, 0
2, 1800, Note_on_c, 0, 69, 127
2, 1830, Note_on_c, 0, 69, 0
2, 1830, Note_on_c, 0, 73, 127
2, 1860, Note_on_c, 0, 73, 0
2, 1860, Note_on_c, 0, 76, 127
2, 1890, Note_on_c, 0, 76, 0
2, 1890, Note_on_c, 0, 73, 127
2, 1920, Note_on_c, 0, 73, 0
2, 1920, Note_on_c, 0, 69, 127
2, 1950, Note_on_c, 0, 69, 0
2, 1950, Note_on_c, 0, 73, 127
2, 1980, Note_on_c, 0, 73, 0
2, 1980, Note_on_c, 0, 66, 127
2, 2010, Note_on_c, 0, 66, 0
2, 2010, Note_on_c, 0, 69, 127
2, 2040, Note_on_c, 0, 69, 0
2, 2040, Note_on_c, 0, 73, 127
2, 2070, Note_on_c, 0, 73, 0
2, 2070, Note_on_c, 0, 69, 127
2, 2100, Note_on_c, 0, 69, 0
2, 2100, Note_on_c, 0, 66, 127
2, 2130, Note_on_c, 0, 66, 0
2, 2130, Note_on_c, 0, 69, 127
2, 2160, Note_on_c, 0, 69, 0
2, 2160, Note_on_c, 0, 63, 127
2, 2190, Note_on_c, 0, 63, 0
2, 2220, Note_on_c, 0, 66, 127
2, 2250, Note_on_c, 0, 66, 0
2, 2280, Note_on_c, 0, 63, 127
2, 2310, Note_on_c, 0, 63, 0
2, 2340, Note_on_c, 0, 59, 127
2, 2370, Note_on_c, 0, 59, 0
2, 2370, Note_on_c, 0, 63, 127
2, 2400, Note_on_c, 0, 63, 0
2, 2400, Note_on_c, 0, 66, 127
2, 2430, Note_on_c, 0, 66, 0
2, 2430, Note_on_c, 0, 69, 127
2, 2460, Note_on_c, 0, 69, 0
2, 2460, Note_on_c, 0, 68, 127
2, 2490, Note_on_c, 0, 68, 0
2, 2490, Note_on_c, 0, 66, 127
2, 2520, Note_on_c, 0, 66, 0
2, 2520, Note_on_c, 0, 64, 127
2, 2550, Note_on_c, 0, 64, 0
2, 2550, Note_on_c, 0, 68, 127
2, 2580, Note_on_c, 0, 68, 0
2, 2580, Note_on_c, 0, 71, 127
2, 2610, Note_on_c, 0, 71, 0
2, 2610, Note_on_c, 0, 76, 127
2, 2640, Note_on_c, 0, 76, 0
2, 2640, Note_on_c, 0, 71, 127
2, 2670, Note_on_c, 0, 71, 0
2, 2670, Note_on_c, 0, 68, 127
2, 2700, Note_on_c, 0, 68, 0
2, 2700, Note_on_c, 0, 64, 127
2, 2820, Note_on_c, 0, 64, 0
2, 2880, Note_on_c, 0, 76, 127
2, 2895, Note_on_c, 0, 76, 0
2, 2895, Note_on_c, 0, 74, 127
2, 2910, Note_on_c, 0, 74, 0
2, 2910, Note_on_c, 0, 76, 127
2, 3000, Note_on_c, 0, 76, 0
2, 3000, Note_on_c, 0, 76, 127
2, 3030, Note_on_c, 0, 76, 0
2, 3060, Note_on_c, 0, 76, 127
2, 3075, Note_on_c, 0, 76, 0
2, 3075, Note_on_c, 0, 74, 127
2, 3090, Note_on_c, 0, 74, 0
2, 3090, Note_on_c, 0, 76, 127
2, 3180, Note_on_c, 0, 76, 0
2, 3180, Note_on_c, 0, 76, 127
2, 3210, Note_on_c, 0, 76, 0
2, 3240, Note_on_c, 0, 76, 127
2, 3270, Note_on_c, 0, 76, 0
2, 3270, Note_on_c, 0, 81, 127
2, 3300, Note_on_c, 0, 81, 0
2, 3300, Note_on_c, 0, 76, 127
2, 3330, Note_on_c, 0, 76, 0
2, 3330, Note_on_c, 0, 73, 127
2, 3360, Note_on_c, 0, 73, 0
2, 3360, Note_on_c, 0, 69, 127
2, 3390, Note_on_c, 0, 69, 0
2, 3390, Note_on_c, 0, 73, 127
2, 3420, Note_on_c, 0, 73, 0
2, 3420, Note_on_c, 0, 76, 127
2, 3450, Note_on_c, 0, 76, 0
2, 3450, Note_on_c, 0, 81, 127
2, 3480, Note_on_c, 0, 81, 0
2, 3480, Note_on_c, 0, 76, 127
2, 3510, Note_on_c, 0, 76, 0
2, 3510, Note_on_c, 0, 73, 127
2, 3540, Note_on_c, 0, 73, 0
2, 3540, Note_on_c, 0, 69, 127
2, 3570, Note_on_c, 0, 69, 0
2, 3570, Note_on_c, 0, 73, 127
2, 3590, Control_c, 0, 7, 108
2, 3600, Note_on_c, 0, 73, 0
2, 3600, Note_on_c, 0, 74, 127
2, 3610, Control_c, 0, 7, 107
2, 3615, Note_on_c, 0, 74, 0
2, 3615, Note_on_c, 0, 73, 127
2, 3620, Control_c, 0, 7, 105
2, 3630, Note_on_c, 0, 73, 0
2, 3630, Note_on_c, 0, 74, 127
2, 3650, Control_c, 0, 7, 104
2, 3670, Control_c, 0, 7, 103
2, 3680, Control_c, 0, 7, 102
2, 3700, Control_c, 0, 7, 101
2, 3710, Control_c, 0, 7, 100
2, 3720, Note_on_c, 0, 74, 0
2, 3720, Note_on_c, 0, 74, 127
2, 3750, Note_on_c, 0, 74, 0
2, 3750, Control_c, 0, 7, 99
2, 3760, Control_c, 0, 7, 98
2, 3780, Note_on_c, 0, 74, 127
2, 3780, Control_c, 0, 7, 97
2, 3790, Control_c, 0, 7, 96
2, 3795, Note_on_c, 0, 74, 0
2, 3795, Note_on_c, 0, 73, 127
2, 3810, Note_on_c, 0, 73, 0
2, 3810, Note_on_c, 0, 74, 127
2, 3810, Control_c, 0, 7, 95
2, 3850, Control_c, 0, 7, 94
2, 3860, Control_c, 0, 7, 92
2, 3880, Control_c, 0, 7, 91
2, 3890, Control_c, 0, 7, 90
2, 3900, Note_on_c, 0, 74, 0
2, 3900, Note_on_c, 0, 74, 127
2, 3900, Control_c, 0, 7, 89
2, 3910, Control_c, 0, 7, 88
2, 3930, Note_on_c, 0, 74, 0
2, 3930, Control_c, 0, 7, 87
2, 3950, Control_c, 0, 7, 86
2, 3960, Note_on_c, 0, 74, 127
2, 3960, Control_c, 0, 7, 85
2, 3980, Control_c, 0, 7, 84
2, 3990, Note_on_c, 0, 74, 0
2, 3990, Note_on_c, 0, 83, 127
2, 3990, Control_c, 0, 7, 83
2, 4000, Control_c, 0, 7, 82
2, 4010, Control_c, 0, 7, 81
2, 4020, Note_on_c, 0, 83, 0
2, 4020, Note_on_c, 0, 80, 127
2, 4030, Control_c, 0, 7, 80
2, 4040, Control_c, 0, 7, 79
2, 4050, Note_on_c, 0, 80, 0
2, 4050, Note_on_c, 0, 74, 127
2, 4050, Control_c, 0, 7, 78
2, 4080, Note_on_c, 0, 74, 0
2, 4080, Note_on_c, 0, 71, 127
2, 4080, Control_c, 0, 7, 77
2, 4090, Control_c, 0, 7, 76
2, 4110, Note_on_c, 0, 71, 0
2, 4110, Note_on_c, 0, 74, 127
2, 4110, Control_c, 0, 7, 75
2, 4130, Control_c, 0, 7, 74
2, 4140, Note_on_c, 0, 74, 0
2, 4140, Note_on_c, 0, 80, 127
2, 4140, Control_c, 0, 7, 73
2, 4170, Note_on_c, 0, 80, 0
2, 4170, Note_on_c, 0, 83, 127
2, 4170, Control_c, 0, 7, 72
2, 4180, Control_c, 0, 7, 71
2, 4200, Note_on_c, 0, 83, 0
2, 4200, Note_on_c, 0, 80, 127
2, 4230, Note_on_c, 0, 80, 0
2, 4230, Note_on_c, 0, 74, 127
2, 4260, Note_on_c, 0, 74, 0
2, 4260, Note_on_c, 0, 71, 127
2, 4280, Control_c, 0, 7, 70
2, 4290, Note_on_c, 0, 71, 0
2, 4290, Note_on_c, 0, 74, 127
2, 4320, Note_on_c, 0, 74, 0
2, 4320, Note_on_c, 0, 73, 127
2, 4350, Note_on_c, 0, 73, 0
2, 4530, Note_on_c, 0, 62, 127
2, 4560, Note_on_c, 0, 62, 0
2, 4560, Note_on_c, 0, 66, 127
2, 4590, Note_on_c, 0, 66, 0
2, 4590, Note_on_c, 0, 69, 127
2, 4620, Note_on_c, 0, 69, 0
2, 4620, Note_on_c, 0, 74, 127
2, 4650, Note_on_c, 0, 74, 0
2, 4650, Note_on_c, 0, 73, 127
2, 4680, Note_on_c, 0, 73, 0
2, 4680, Note_on_c, 0, 71, 127
2, 4740, Note_on_c, 0, 71, 0
2, 4890, Note_on_c, 0, 61, 127
2, 4920, Note_on_c, 0, 61, 0
2, 4920, Note_on_c, 0, 65, 127
2, 4950, Note_on_c, 0, 65, 0
2, 4950, Note_on_c, 0, 68, 127
2, 4980, Note_on_c, 0, 68, 0
2, 4980, Note_on_c, 0, 73, 127
2, 5010, Note_on_c, 0, 73, 0
2, 5010, Note_on_c, 0, 71, 127
2, 5040, Note_on_c, 0, 71, 0
2, 5040, Note_on_c, 0, 69, 127
2, 5100, Note_on_c, 0, 69, 0
2, 5250, Note_on_c, 0, 59, 127
2, 5280, Note_on_c, 0, 59, 0
2, 5280, Note_on_c, 0, 62, 127
2, 5310, Note_on_c, 0, 62, 0
2, 5310, Note_on_c, 0, 66, 127
2, 5340, Note_on_c, 0, 66, 0
2, 5340, Note_on_c, 0, 71, 127
2, 5340, Control_c, 0, 7, 64
2, 5360, Control_c, 0, 7, 66
2, 5370, Note_on_c, 0, 71, 0
2, 5370, Note_on_c, 0, 69, 127
2, 5380, Control_c, 0, 7, 67
2, 5390, Control_c, 0, 7, 68
2, 5400, Note_on_c, 0, 69, 0
2, 5400, Note_on_c, 0, 68, 127
2, 5400, Control_c, 0, 7, 69
2, 5420, Control_c, 0, 7, 71
2, 5430, Note_on_c, 0, 68, 0
2, 5430, Note_on_c, 0, 66, 127
2, 5440, Control_c, 0, 7, 72
2, 5450, Control_c, 0, 7, 73
2, 5460, Note_on_c, 0, 66, 0
2, 5460, Note_on_c, 0, 71, 127
2, 5470, Control_c, 0, 7, 75
2, 5480, Control_c, 0, 7, 76
2, 5490, Note_on_c, 0, 71, 0
2, 5490, Note_on_c, 0, 69, 127
2, 5490, Control_c, 0, 7, 77
2, 5510, Control_c, 0, 7, 78
2, 5520, Note_on_c, 0, 69, 0
2, 5520, Note_on_c, 0, 68, 127
2, 5520, Control_c, 0, 7, 79
2, 5530, Control_c, 0, 7, 80
2, 5550, Note_on_c, 0, 68, 0
2, 5550, Note_on_c, 0, 66, 127
2, 5550, Control_c, 0, 7, 81
2, 5560, Control_c, 0, 7, 82
2, 5570, Control_c, 0, 7, 83
2, 5580, Note_on_c, 0, 66, 0
2, 5580, Note_on_c, 0, 65, 127
2, 5580, Control_c, 0, 7, 84
2, 5590, Control_c, 0, 7, 85
2, 5600, Control_c, 0, 7, 86
2, 5610, Note_on_c, 0, 65, 0
2, 5610, Note_on_c, 0, 68, 127
2, 5610, Control_c, 0, 7, 87
2, 5620, Control_c, 0, 7, 89
2, 5640, Note_on_c, 0, 68, 0
2, 5640, Note_on_c, 0, 73, 127
2, 5640, Control_c, 0, 7, 91
2, 5650, Control_c, 0, 7, 92
2, 5660, Control_c, 0, 7, 93
2, 5670, Note_on_c, 0, 73, 0
2, 5670, Note_on_c, 0, 71, 127
2, 5670, Control_c, 0, 7, 94
2, 5680, Control_c, 0, 7, 85
2, 5690, Control_c, 0, 7, 95
2, 5700, Note_on_c, 0, 71, 0
2, 5700, Note_on_c, 0, 69, 127
2, 5710, Control_c, 0, 7, 96
2, 5720, Control_c, 0, 7, 97
2, 5730, Note_on_c, 0, 69, 0
2, 5730, Note_on_c, 0, 68, 127
2, 5730, Control_c, 0, 7, 99
2, 5740, Control_c, 0, 7, 100
2, 5760, Note_on_c, 0, 68, 0
2, 5760, Note_on_c, 0, 66, 127
2, 5760, Control_c, 0, 7, 101
2, 5780, Control_c, 0, 7, 102
2, 5790, Note_on_c, 0, 66, 0
2, 5790, Control_c, 0, 7, 103
2, 5810, Control_c, 0, 7, 103
2, 5820, Note_on_c, 0, 78, 127
2, 5850, Note_on_c, 0, 78, 0
2, 5870, Control_c, 0, 7, 104
2, 5880, Note_on_c, 0, 66, 127
2, 5910, Note_on_c, 0, 66, 0
2, 5920, Control_c, 0, 7, 103
2, 5940, Note_on_c, 0, 66, 127
2, 5950, Control_c, 0, 7, 98
2, 5960, Control_c, 0, 7, 100
2, 6000, Note_on_c, 0, 66, 0
2, 6000, Note_on_c, 0, 61, 127
2, 6060, Note_on_c, 0, 61, 0
2, 6060, Note_on_c, 0, 66, 127
2, 6120, Note_on_c, 0, 66, 0
2, 6120, Note_on_c, 0, 68, 127
2, 6135, Note_on_c, 0, 68, 0
2, 6135, Note_on_c, 0, 66, 127
2, 6150, Note_on_c, 0, 66, 0
2, 6150, Note_on_c, 0, 68, 127
2, 6510, Note_on_c, 0, 68, 0
2, 6510, Note_on_c, 0, 66, 127
2, 6540, Note_on_c, 0, 66, 0
2, 6540, Note_on_c, 0, 65, 127
2, 6570, Note_on_c, 0, 65, 0
2, 6570, Note_on_c, 0, 66, 127
2, 6600, Note_on_c, 0, 66, 0
2, 6600, Note_on_c, 0, 68, 127
2, 6630, Note_on_c, 0, 68, 0
2, 6630, Note_on_c, 0, 69, 127
2, 6660, Note_on_c, 0, 69, 0
2, 6660, Note_on_c, 0, 71, 127
2, 6690, Note_on_c, 0, 71, 0
2, 6690, Note_on_c, 0, 69, 127
2, 6720, Note_on_c, 0, 69, 0
2, 6720, Note_on_c, 0, 71, 127
2, 6750, Note_on_c, 0, 71, 0
2, 6750, Note_on_c, 0, 74, 127
2, 6780, Note_on_c, 0, 74, 0
2, 6780, Note_on_c, 0, 73, 127
2, 6810, Note_on_c, 0, 73, 0
2, 6810, Note_on_c, 0, 71, 127
2, 6840, Note_on_c, 0, 71, 0
2, 6840, Note_on_c, 0, 69, 127
2, 6870, Note_on_c, 0, 69, 0
2, 6870, Note_on_c, 0, 66, 127
2, 6900, Note_on_c, 0, 66, 0
2, 6900, Note_on_c, 0, 69, 127
2, 6930, Note_on_c, 0, 69, 0
2, 6930, Note_on_c, 0, 73, 127
2, 6960, Note_on_c, 0, 73, 0
2, 6960, Note_on_c, 0, 78, 127
2, 6990, Note_on_c, 0, 78, 0
2, 6990, Note_on_c, 0, 75, 127
2, 7020, Note_on_c, 0, 75, 0
2, 7020, Note_on_c, 0, 72, 127
2, 7050, Note_on_c, 0, 72, 0
2, 7050, Note_on_c, 0, 68, 127
2, 7080, Note_on_c, 0, 68, 0
2, 7080, Note_on_c, 0, 72, 127
2, 7110, Note_on_c, 0, 72, 0
2, 7110, Note_on_c, 0, 75, 127
2, 7140, Note_on_c, 0, 75, 0
2, 7140, Note_on_c, 0, 78, 127
2, 7170, Note_on_c, 0, 78, 0
2, 7170, Note_on_c, 0, 75, 127
2, 7200, Note_on_c, 0, 75, 0
2, 7200, Note_on_c, 0, 76, 127
2, 7230, Note_on_c, 0, 76, 0
2, 7230, Note_on_c, 0, 78, 127
2, 7260, Note_on_c, 0, 78, 0
2, 7260, Note_on_c, 0, 76, 127
2, 7290, Note_on_c, 0, 76, 0
2, 7290, Note_on_c, 0, 75, 127
2, 7320, Note_on_c, 0, 75, 0
2, 7320, Note_on_c, 0, 73, 127
2, 7350, Note_on_c, 0, 73, 0
2, 7350, Note_on_c, 0, 71, 127
2, 7380, Note_on_c, 0, 71, 0
2, 7380, Note_on_c, 0, 69, 127
2, 7410, Note_on_c, 0, 69, 0
2, 7410, Note_on_c, 0, 71, 127
2, 7440, Note_on_c, 0, 71, 0
2, 7440, Note_on_c, 0, 73, 127
2, 7470, Note_on_c, 0, 73, 0
2, 7470, Note_on_c, 0, 71, 127
2, 7500, Note_on_c, 0, 71, 0
2, 7500, Note_on_c, 0, 69, 127
2, 7530, Note_on_c, 0, 69, 0
2, 7530, Note_on_c, 0, 68, 127
2, 7560, Note_on_c, 0, 68, 0
2, 7560, Note_on_c, 0, 66, 127
2, 7590, Note_on_c, 0, 66, 0
2, 7590, Note_on_c, 0, 69, 127
2, 7620, Note_on_c, 0, 69, 0
2, 7620, Note_on_c, 0, 73, 127
2, 7650, Note_on_c, 0, 73, 0
2, 7650, Note_on_c, 0, 69, 127
2, 7680, Note_on_c, 0, 69, 0
2, 7680, Note_on_c, 0, 66, 127
2, 7710, Note_on_c, 0, 66, 0
2, 7710, Note_on_c, 0, 69, 127
2, 7740, Note_on_c, 0, 69, 0
2, 7740, Note_on_c, 0, 63, 127
2, 7770, Note_on_c, 0, 63, 0
2, 7770, Note_on_c, 0, 66, 127
2, 7800, Note_on_c, 0, 66, 0
2, 7800, Note_on_c, 0, 69, 127
2, 7830, Note_on_c, 0, 69, 0
2, 7830, Note_on_c, 0, 66, 127
2, 7860, Note_on_c, 0, 66, 0
2, 7860, Note_on_c, 0, 63, 127
2, 7890, Note_on_c, 0, 63, 0
2, 7890, Note_on_c, 0, 66, 127
2, 7920, Note_on_c, 0, 66, 0
2, 7920, Note_on_c, 0, 60, 127
2, 7950, Note_on_c, 0, 60, 0
2, 7980, Note_on_c, 0, 63, 127
2, 8010, Note_on_c, 0, 63, 0
2, 8040, Note_on_c, 0, 66, 127
2, 8070, Note_on_c, 0, 66, 0
2, 8100, Note_on_c, 0, 69, 127
2, 8130, Note_on_c, 0, 69, 0
2, 8160, Note_on_c, 0, 68, 127
2, 8190, Note_on_c, 0, 68, 0
2, 8220, Note_on_c, 0, 72, 127
2, 8250, Note_on_c, 0, 72, 0
2, 8280, Note_on_c, 0, 73, 127
2, 8310, Note_on_c, 0, 73, 0
2, 8310, Note_on_c, 0, 76, 127
2, 8340, Note_on_c, 0, 76, 0
2, 8340, Note_on_c, 0, 80, 127
2, 8370, Note_on_c, 0, 80, 0
2, 8370, Note_on_c, 0, 76, 127
2, 8400, Note_on_c, 0, 76, 0
2, 8400, Note_on_c, 0, 73, 127
2, 8430, Note_on_c, 0, 73, 0
2, 8430, Note_on_c, 0, 76, 127
2, 8460, Note_on_c, 0, 76, 0
2, 8460, Note_on_c, 0, 80, 127
2, 8490, Note_on_c, 0, 80, 0
2, 8490, Note_on_c, 0, 76, 127
2, 8520, Note_on_c, 0, 76, 0
2, 8520, Note_on_c, 0, 73, 127
2, 8550, Note_on_c, 0, 73, 0
2, 8550, Note_on_c, 0, 76, 127
2, 8580, Note_on_c, 0, 76, 0
2, 8580, Note_on_c, 0, 80, 127
2, 8610, Note_on_c, 0, 80, 0
2, 8610, Note_on_c, 0, 76, 127
2, 8640, Note_on_c, 0, 76, 0
2, 8640, Note_on_c, 0, 73, 127
2, 8670, Note_on_c, 0, 73, 0
2, 8670, Note_on_c, 0, 76, 127
2, 8700, Note_on_c, 0, 76, 0
2, 8700, Note_on_c, 0, 78, 127
2, 8730, Note_on_c, 0, 78, 0
2, 8730, Note_on_c, 0, 76, 127
2, 8760, Note_on_c, 0, 76, 0
2, 8760, Note_on_c, 0, 73, 127
2, 8790, Note_on_c, 0, 73, 0
2, 8790, Note_on_c, 0, 76, 127
2, 8820, Note_on_c, 0, 76, 0
2, 8820, Note_on_c, 0, 78, 127
2, 8850, Note_on_c, 0, 78, 0
2, 8850, Note_on_c, 0, 76, 127
2, 8880, Note_on_c, 0, 76, 0
2, 8880, Note_on_c, 0, 73, 127
2, 8910, Note_on_c, 0, 73, 0
2, 8910, Note_on_c, 0, 76, 127
2, 8940, Note_on_c, 0, 76, 0
2, 8940, Note_on_c, 0, 78, 127
2, 8970, Note_on_c, 0, 78, 0
2, 8970, Note_on_c, 0, 70, 127
2, 9000, Note_on_c, 0, 70, 0
2, 9000, Note_on_c, 0, 71, 127
2, 9030, Note_on_c, 0, 71, 0
2, 9030, Note_on_c, 0, 74, 127
2, 9060, Note_on_c, 0, 74, 0
2, 9060, Note_on_c, 0, 78, 127
2, 9090, Note_on_c, 0, 78, 0
2, 9090, Note_on_c, 0, 74, 127
2, 9120, Note_on_c, 0, 74, 0
2, 9120, Note_on_c, 0, 71, 127
2, 9150, Note_on_c, 0, 71, 0
2, 9150, Note_on_c, 0, 74, 127
2, 9180, Note_on_c, 0, 74, 0
2, 9180, Note_on_c, 0, 78, 127
2, 9210, Note_on_c, 0, 78, 0
2, 9210, Note_on_c, 0, 74, 127
2, 9240, Note_on_c, 0, 74, 0
2, 9240, Note_on_c, 0, 71, 127
2, 9270, Note_on_c, 0, 71, 0
2, 9270, Note_on_c, 0, 74, 127
2, 9300, Note_on_c, 0, 74, 0
2, 9300, Note_on_c, 0, 78, 127
2, 9330, Note_on_c, 0, 78, 0
2, 9330, Note_on_c, 0, 74, 127
2, 9360, Note_on_c, 0, 74, 0
2, 9360, Note_on_c, 0, 71, 127
2, 9390, Note_on_c, 0, 71, 0
2, 9390, Note_on_c, 0, 74, 127
2, 9420, Note_on_c, 0, 74, 0
2, 9420, Note_on_c, 0, 76, 127
2, 9450, Note_on_c, 0, 76, 0
2, 9450, Note_on_c, 0, 74, 127
2, 9480, Note_on_c, 0, 74, 0
2, 9480, Note_on_c, 0, 71, 127
2, 9510, Note_on_c, 0, 71, 0
2, 9510, Note_on_c, 0, 74, 127
2, 9540, Note_on_c, 0, 74, 0
2, 9540, Note_on_c, 0, 76, 127
2, 9570, Note_on_c, 0, 76, 0
2, 9570, Note_on_c, 0, 74, 127
2, 9600, Note_on_c, 0, 74, 0
2, 9600, Note_on_c, 0, 71, 127
2, 9630, Note_on_c, 0, 71, 0
2, 9630, Note_on_c, 0, 74, 127
2, 9660, Note_on_c, 0, 74, 0
2, 9660, Note_on_c, 0, 76, 127
2, 9690, Note_on_c, 0, 76, 0
2, 9690, Note_on_c, 0, 68, 127
2, 9720, Note_on_c, 0, 68, 0
2, 9720, Note_on_c, 0, 69, 127
2, 9735, Note_on_c, 0, 69, 0
2, 9735, Note_on_c, 0, 71, 127
2, 9750, Note_on_c, 0, 71, 0
2, 9750, Note_on_c, 0, 69, 127
2, 9840, Note_on_c, 0, 69, 0
2, 9840, Note_on_c, 0, 69, 127
2, 9870, Note_on_c, 0, 69, 0
2, 9900, Note_on_c, 0, 69, 127
2, 9915, Note_on_c, 0, 69, 0
2, 9915, Note_on_c, 0, 68, 127
2, 9930, Note_on_c, 0, 68, 0
2, 9930, Note_on_c, 0, 69, 127
2, 10020, Note_on_c, 0, 69, 0
2, 10020, Note_on_c, 0, 69, 127
2, 10050, Note_on_c, 0, 69, 0
2, 10080, Note_on_c, 0, 69, 127
2, 10110, Note_on_c, 0, 69, 0
2, 10110, Note_on_c, 0, 75, 127
2, 10140, Note_on_c, 0, 75, 0
2, 10140, Note_on_c, 0, 71, 127
2, 10170, Note_on_c, 0, 71, 0
2, 10170, Note_on_c, 0, 69, 127
2, 10200, Note_on_c, 0, 69, 0
2, 10200, Note_on_c, 0, 66, 127
2, 10230, Note_on_c, 0, 66, 0
2, 10230, Note_on_c, 0, 69, 127
2, 10260, Note_on_c, 0, 69, 0
2, 10260, Note_on_c, 0, 71, 127
2, 10290, Note_on_c, 0, 71, 0
2, 10290, Note_on_c, 0, 75, 127
2, 10320, Note_on_c, 0, 75, 0
2, 10320, Note_on_c, 0, 71, 127
2, 10350, Note_on_c, 0, 71, 0
2, 10350, Note_on_c, 0, 69, 127
2, 10380, Note_on_c, 0, 69, 0
2, 10380, Note_on_c, 0, 66, 127
2, 10410, Note_on_c, 0, 66, 0
2, 10410, Note_on_c, 0, 69, 127
2, 10420, Control_c, 0, 7, 106
2, 10440, Note_on_c, 0, 69, 0
2, 10440, Note_on_c, 0, 67, 127
2, 10455, Note_on_c, 0, 67, 0
2, 10455, Note_on_c, 0, 66, 127
2, 10460, Control_c, 0, 7, 105
2, 10470, Note_on_c, 0, 66, 0
2, 10470, Note_on_c, 0, 67, 127
2, 10500, Control_c, 0, 7, 104
2, 10530, Control_c, 0, 7, 103
2, 10540, Control_c, 0, 7, 102
2, 10560, Note_on_c, 0, 67, 0
2, 10560, Note_on_c, 0, 67, 127
2, 10560, Control_c, 0, 7, 101
2, 10570, Control_c, 0, 7, 100
2, 10580, Control_c, 0, 7, 99
2, 10590, Note_on_c, 0, 67, 0
2, 10590, Control_c, 0, 7, 97
2, 10620, Note_on_c, 0, 67, 127
2, 10620, Control_c, 0, 7, 96
2, 10630, Control_c, 0, 7, 95
2, 10635, Note_on_c, 0, 67, 0
2, 10635, Note_on_c, 0, 66, 127
2, 10640, Control_c, 0, 7, 93
2, 10650, Note_on_c, 0, 66, 0
2, 10650, Note_on_c, 0, 67, 127
2, 10650, Control_c, 0, 7, 92
2, 10660, Control_c, 0, 7, 90
2, 10670, Control_c, 0, 7, 88
2, 10680, Control_c, 0, 7, 87
2, 10690, Control_c, 0, 7, 86
2, 10700, Control_c, 0, 7, 85
2, 10720, Control_c, 0, 7, 84
2, 10730, Control_c, 0, 7, 83
2, 10740, Note_on_c, 0, 67, 0
2, 10740, Note_on_c, 0, 67, 127
2, 10750, Control_c, 0, 7, 81
2, 10770, Note_on_c, 0, 67, 0
2, 10770, Control_c, 0, 7, 79
2, 10780, Control_c, 0, 7, 78
2, 10800, Note_on_c, 0, 67, 127
2, 10800, Control_c, 0, 7, 76
2, 10820, Control_c, 0, 7, 75
2, 10830, Note_on_c, 0, 67, 0
2, 10830, Note_on_c, 0, 76, 127
2, 10830, Control_c, 0, 7, 74
2, 10840, Control_c, 0, 7, 73
2, 10850, Control_c, 0, 7, 72
2, 10860, Note_on_c, 0, 76, 0
2, 10860, Note_on_c, 0, 73, 127
2, 10870, Control_c, 0, 7, 71
2, 10890, Note_on_c, 0, 73, 0
2, 10890, Note_on_c, 0, 67, 127
2, 10900, Control_c, 0, 7, 72
2, 10920, Note_on_c, 0, 67, 0
2, 10920, Note_on_c, 0, 64, 127
2, 10950, Note_on_c, 0, 64, 0
2, 10950, Note_on_c, 0, 67, 127
2, 10980, Note_on_c, 0, 67, 0
2, 10980, Note_on_c, 0, 73, 127
2, 11010, Note_on_c, 0, 73, 0
2, 11010, Note_on_c, 0, 76, 127
2, 11040, Note_on_c, 0, 76, 0
2, 11040, Note_on_c, 0, 73, 127
2, 11070, Note_on_c, 0, 73, 0
2, 11070, Note_on_c, 0, 67, 127
2, 11100, Note_on_c, 0, 67, 0
2, 11100, Note_on_c, 0, 64, 127
2, 11130, Note_on_c, 0, 64, 0
2, 11130, Note_on_c, 0, 67, 127
2, 11160, Note_on_c, 0, 67, 0
2, 11160, Note_on_c, 0, 66, 127
2, 11220, Note_on_c, 0, 66, 0
2, 11370, Note_on_c, 0, 56, 127
2, 11400, Note_on_c, 0, 56, 0
2, 11400, Note_on_c, 0, 59, 127
2, 11430, Note_on_c, 0, 59, 0
2, 11430, Note_on_c, 0, 62, 127
2, 11460, Note_on_c, 0, 62, 0
2, 11460, Note_on_c, 0, 68, 127
2, 11490, Note_on_c, 0, 68, 0
2, 11490, Note_on_c, 0, 66, 127
2, 11520, Note_on_c, 0, 66, 0
2, 11520, Note_on_c, 0, 64, 127
2, 11520, Control_c, 0, 7, 65
2, 11540, Control_c, 0, 7, 66
2, 11560, Control_c, 0, 7, 67
2, 11580, Note_on_c, 0, 64, 0
2, 11580, Control_c, 0, 7, 68
2, 11600, Control_c, 0, 7, 69
2, 11610, Control_c, 0, 7, 70
2, 11630, Control_c, 0, 7, 71
2, 11640, Control_c, 0, 7, 72
2, 11650, Control_c, 0, 7, 73
2, 11660, Control_c, 0, 7, 75
2, 11670, Control_c, 0, 7, 76
2, 11690, Control_c, 0, 7, 77
2, 11700, Control_c, 0, 7, 78
2, 11710, Control_c, 0, 7, 79
2, 11720, Control_c, 0, 7, 80
2, 11730, Note_on_c, 0, 54, 127
2, 11740, Control_c, 0, 7, 81
2, 11760, Note_on_c, 0, 54, 0
2, 11760, Note_on_c, 0, 57, 127
2, 11770, Control_c, 0, 7, 82
2, 11790, Note_on_c, 0, 57, 0
2, 11790, Note_on_c, 0, 61, 127
2, 11790, Control_c, 0, 7, 83
2, 11800, Control_c, 0, 7, 84
2, 11810, Control_c, 0, 7, 86
2, 11820, Note_on_c, 0, 61, 0
2, 11820, Note_on_c, 0, 66, 127
2, 11830, Control_c, 0, 7, 87
2, 11850, Note_on_c, 0, 66, 0
2, 11850, Note_on_c, 0, 64, 127
2, 11860, Control_c, 0, 7, 88
2, 11880, Note_on_c, 0, 64, 0
2, 11880, Note_on_c, 0, 62, 127
2, 11880, Control_c, 0, 7, 89
2, 11910, Control_c, 0, 7, 90
2, 11930, Control_c, 0, 7, 91
2, 11940, Note_on_c, 0, 62, 0
2, 11960, Control_c, 0, 7, 92
2, 11970, Control_c, 0, 7, 93
2, 11990, Control_c, 0, 7, 94
2, 12000, Control_c, 0, 7, 98
2, 12010, Control_c, 0, 7, 99
2, 12020, Control_c, 0, 7, 100
2, 12030, Control_c, 0, 7, 101
2, 12060, Control_c, 0, 7, 102
2, 12070, Control_c, 0, 7, 103
2, 12090, Note_on_c, 0, 52, 127
2, 12090, Control_c, 0, 7, 104
2, 12100, Control_c, 0, 7, 105
2, 12120, Note_on_c, 0, 52, 0
2, 12120, Note_on_c, 0, 56, 127
2, 12130, Control_c, 0, 7, 106
2, 12150, Note_on_c, 0, 56, 0
2, 12150, Note_on_c, 0, 59, 127
2, 12170, Control_c, 0, 7, 107
2, 12180, Note_on_c, 0, 59, 0
2, 12180, Note_on_c, 0, 64, 127
2, 12190, Control_c, 0, 7, 108
2, 12210, Note_on_c, 0, 64, 0
2, 12210, Note_on_c, 0, 62, 127
2, 12210, Control_c, 0, 7, 109
2, 12220, Control_c, 0, 7, 110
2, 12240, Note_on_c, 0, 62, 0
2, 12240, Note_on_c, 0, 61, 127
2, 12270, Note_on_c, 0, 61, 0
2, 12270, Note_on_c, 0, 57, 127
2, 12300, Note_on_c, 0, 57, 0
2, 12300, Note_on_c, 0, 61, 127
2, 12330, Note_on_c, 0, 61, 0
2, 12330, Note_on_c, 0, 64, 127
2, 12360, Note_on_c, 0, 64, 0
2, 12360, Note_on_c, 0, 69, 127
2, 12390, Note_on_c, 0, 69, 0
2, 12390, Note_on_c, 0, 64, 127
2, 12420, Note_on_c, 0, 64, 0
2, 12420, Note_on_c, 0, 73, 127
2, 12450, Note_on_c, 0, 73, 0
2, 12450, Note_on_c, 0, 69, 127
2, 12480, Note_on_c, 0, 69, 0
2, 12480, Note_on_c, 0, 73, 127
2, 12510, Note_on_c, 0, 73, 0
2, 12510, Note_on_c, 0, 76, 127
2, 12540, Note_on_c, 0, 76, 0
2, 12540, Note_on_c, 0, 81, 127
2, 12570, Note_on_c, 0, 81, 0
2, 12570, Note_on_c, 0, 78, 127
2, 12600, Note_on_c, 0, 78, 0
2, 12600, Note_on_c, 0, 74, 127
2, 12630, Note_on_c, 0, 74, 0
2, 12630, Note_on_c, 0, 78, 127
2, 12660, Note_on_c, 0, 78, 0
2, 12660, Note_on_c, 0, 81, 127
2, 12690, Note_on_c, 0, 81, 0
2, 12690, Note_on_c, 0, 78, 127
2, 12720, Note_on_c, 0, 78, 0
2, 12720, Note_on_c, 0, 74, 127
2, 12750, Note_on_c, 0, 74, 0
2, 12750, Note_on_c, 0, 78, 127
2, 12780, Note_on_c, 0, 78, 0
2, 12780, Note_on_c, 0, 71, 127
2, 12810, Note_on_c, 0, 71, 0
2, 12810, Note_on_c, 0, 74, 127
2, 12840, Note_on_c, 0, 74, 0
2, 12840, Note_on_c, 0, 78, 127
2, 12870, Note_on_c, 0, 78, 0
2, 12870, Note_on_c, 0, 74, 127
2, 12900, Note_on_c, 0, 74, 0
2, 12900, Note_on_c, 0, 71, 127
2, 12930, Note_on_c, 0, 71, 0
2, 12930, Note_on_c, 0, 74, 127
2, 12960, Note_on_c, 0, 74, 0
2, 12960, Note_on_c, 0, 68, 127
2, 12990, Note_on_c, 0, 68, 0
2, 13020, Note_on_c, 0, 71, 127
2, 13050, Note_on_c, 0, 71, 0
2, 13080, Note_on_c, 0, 74, 127
2, 13110, Note_on_c, 0, 74, 0
2, 13140, Note_on_c, 0, 78, 127
2, 13200, Note_on_c, 0, 78, 0
2, 13200, Note_on_c, 0, 76, 127
2, 13230, Note_on_c, 0, 76, 0
2, 13260, Note_on_c, 0, 71, 127
2, 13290, Note_on_c, 0, 71, 0
2, 13320, Note_on_c, 0, 78, 127
2, 13380, Note_on_c, 0, 78, 0
2, 13380, Note_on_c, 0, 76, 127
2, 13410, Note_on_c, 0, 76, 0
2, 13440, Note_on_c, 0, 69, 127
2, 13470, Note_on_c, 0, 69, 0
2, 13500, Note_on_c, 0, 76, 127
2, 13560, Note_on_c, 0, 76, 0
2, 13560, Note_on_c, 0, 74, 127
2, 13590, Note_on_c, 0, 74, 0
2, 13620, Note_on_c, 0, 68, 127
2, 13650, Note_on_c, 0, 68, 0
2, 13680, Note_on_c, 0, 74, 127
2, 13680, Control_c, 0, 7, 109
2, 13740, Note_on_c, 0, 74, 0
2, 13740, Note_on_c, 0, 73, 127
2, 13770, Note_on_c, 0, 73, 0
2, 13800, Note_on_c, 0, 64, 127
2, 13830, Note_on_c, 0, 64, 0
2, 13840, Control_c, 0, 7, 110
2, 13860, Note_on_c, 0, 66, 127
2, 13860, Control_c, 0, 7, 111
2, 13870, Control_c, 0, 7, 112
2, 13890, Note_on_c, 0, 66, 0
2, 13890, Note_on_c, 0, 68, 127
2, 13890, Control_c, 0, 7, 113
2, 13920, Note_on_c, 0, 68, 0
2, 13920, Note_on_c, 0, 69, 127
2, 13920, Control_c, 0, 7, 114
2, 13930, Control_c, 0, 7, 115
2, 13950, Note_on_c, 0, 69, 0
2, 13950, Note_on_c, 0, 71, 127
2, 13980, Note_on_c, 0, 71, 0
2, 13980, Note_on_c, 0, 73, 127
2, 14010, Note_on_c, 0, 73, 0
2, 14010, Note_on_c, 0, 74, 127
2, 14010, Control_c, 0, 7, 116
2, 14020, Control_c, 0, 7, 117
2, 14040, Note_on_c, 0, 74, 0
2, 14040, Note_on_c, 0, 68, 127
2, 14070, Note_on_c, 0, 68, 0
2, 14070, Note_on_c, 0, 64, 127
2, 14100, Note_on_c, 0, 64, 0
2, 14100, Note_on_c, 0, 68, 127
2, 14110, Control_c, 0, 7, 118
2, 14130, Note_on_c, 0, 68, 0
2, 14130, Note_on_c, 0, 71, 127
2, 14130, Control_c, 0, 7, 119
2, 14160, Note_on_c, 0, 71, 0
2, 14160, Note_on_c, 0, 76, 127
2, 14190, Note_on_c, 0, 76, 0
2, 14190, Note_on_c, 0, 71, 127
2, 14210, Control_c, 0, 7, 120
2, 14220, Note_on_c, 0, 71, 0
2, 14220, Note_on_c, 0, 80, 127
2, 14250, Note_on_c, 0, 80, 0
2, 14250, Note_on_c, 0, 76, 127
2, 14280, Note_on_c, 0, 76, 0
2, 14280, Note_on_c, 0, 83, 127
2, 14300, Control_c, 0, 7, 121
2, 14310, Note_on_c, 0, 83, 0
2, 14310, Note_on_c, 0, 80, 127
2, 14340, Note_on_c, 0, 80, 0
2, 14340, Note_on_c, 0, 76, 127
2, 14370, Note_on_c, 0, 76, 0
2, 14370, Note_on_c, 0, 80, 127
2, 14400, Note_on_c, 0, 80, 0
2, 14400, Note_on_c, 0, 81, 127
2, 14400, Control_c, 0, 7, 123
2, 14410, Control_c, 0, 7, 124
2, 14460, Note_on_c, 0, 81, 0
2, 14460, Note_on_c, 0, 76, 127
2, 14520, Note_on_c, 0, 76, 0
2, 14520, Note_on_c, 0, 73, 127
2, 14580, Note_on_c, 0, 73, 0
2, 14580, Note_on_c, 0, 69, 127
2, 14610, Note_on_c, 0, 69, 0
2, 14610, Note_on_c, 0, 74, 127
2, 14640, Note_on_c, 0, 74, 0
2, 14640, Note_on_c, 0, 73, 127
2, 14670, Note_on_c, 0, 73, 0
2, 14670, Note_on_c, 0, 71, 127
2, 14700, Note_on_c, 0, 71, 0
2, 14700, Note_on_c, 0, 76, 127
2, 14790, Note_on_c, 0, 76, 0
2, 14790, Note_on_c, 0, 78, 127
2, 14820, Note_on_c, 0, 78, 0
2, 14820, Note_on_c, 0, 73, 127
2, 14880, Note_on_c, 0, 73, 0
2, 14880, Note_on_c, 0, 71, 127
2, 14910, Note_on_c, 0, 71, 0
2, 14910, Note_on_c, 0, 69, 127
2, 14940, Note_on_c, 0, 69, 0
2, 14940, Note_on_c, 0, 69, 127
2, 15120, Note_on_c, 0, 69, 0
2, 15120, End_track
3, 0, Start_track
3, 0, Title_t, "BASSOON"
3, 0, Program_c, 2, 0
3, 0, Control_c, 2, 7, 96
3, 0, Control_c, 2, 10, 95
3, 0, Note_on_c, 2, 57, 127
3, 30, Note_on_c, 2, 57, 0
3, 30, Note_on_c, 2, 59, 127
3, 60, Note_on_c, 2, 59, 0
3, 60, Note_on_c, 2, 61, 127
3, 90, Note_on_c, 2, 61, 0
3, 90, Note_on_c, 2, 59, 127
3, 120, Note_on_c, 2, 59, 0
3, 120, Note_on_c, 2, 57, 127
3, 150, Note_on_c, 2, 57, 0
3, 150, Note_on_c, 2, 56, 127
3, 180, Note_on_c, 2, 56, 0
3, 180, Note_on_c, 2, 54, 127
3, 210, Note_on_c, 2, 54, 0
3, 210, Note_on_c, 2, 56, 127
3, 240, Note_on_c, 2, 56, 0
3, 240, Note_on_c, 2, 57, 127
3, 270, Note_on_c, 2, 57, 0
3, 270, Note_on_c, 2, 56, 127
3, 300, Note_on_c, 2, 56, 0
3, 300, Note_on_c, 2, 54, 127
3, 330, Note_on_c, 2, 54, 0
3, 330, Note_on_c, 2, 52, 127
3, 360, Note_on_c, 2, 52, 0
3, 360, Note_on_c, 2, 50, 127
3, 390, Note_on_c, 2, 50, 0
3, 390, Note_on_c, 2, 54, 127
3, 420, Note_on_c, 2, 54, 0
3, 420, Note_on_c, 2, 57, 127
3, 450, Note_on_c, 2, 57, 0
3, 450, Note_on_c, 2, 54, 127
3, 480, Note_on_c, 2, 54, 0
3, 480, Note_on_c, 2, 50, 127
3, 510, Note_on_c, 2, 50, 0
3, 510, Note_on_c, 2, 54, 127
3, 540, Note_on_c, 2, 54, 0
3, 540, Note_on_c, 2, 47, 127
3, 570, Note_on_c, 2, 47, 0
3, 570, Note_on_c, 2, 50, 127
3, 600, Note_on_c, 2, 50, 0
3, 600, Note_on_c, 2, 54, 127
3, 630, Note_on_c, 2, 54, 0
3, 630, Note_on_c, 2, 50, 127
3, 660, Note_on_c, 2, 50, 0
3, 660, Note_on_c, 2, 47, 127
3, 690, Note_on_c, 2, 47, 0
3, 690, Note_on_c, 2, 50, 127
3, 720, Note_on_c, 2, 50, 0
3, 720, Note_on_c, 2, 44, 127
3, 780, Note_on_c, 2, 44, 0
3, 780, Note_on_c, 2, 47, 127
3, 810, Note_on_c, 2, 47, 0
3, 840, Note_on_c, 2, 44, 127
3, 870, Note_on_c, 2, 44, 0
3, 900, Note_on_c, 2, 40, 127
3, 930, Note_on_c, 2, 40, 0
3, 960, Note_on_c, 2, 42, 127
3, 990, Note_on_c, 2, 42, 0
3, 1020, Note_on_c, 2, 44, 127
3, 1050, Note_on_c, 2, 44, 0
3, 1080, Note_on_c, 2, 45, 127
3, 1200, Note_on_c, 2, 45, 0
3, 1440, Note_on_c, 2, 52, 127
3, 1455, Note_on_c, 2, 52, 0
3, 1455, Note_on_c, 2, 51, 127
3, 1470, Note_on_c, 2, 51, 0
3, 1470, Note_on_c, 2, 52, 127
3, 1560, Note_on_c, 2, 52, 0
3, 1560, Note_on_c, 2, 52, 127
3, 1590, Note_on_c, 2, 52, 0
3, 1620, Note_on_c, 2, 52, 127
3, 1635, Note_on_c, 2, 52, 0
3, 1635, Note_on_c, 2, 51, 127
3, 1650, Note_on_c, 2, 51, 0
3, 1650, Note_on_c, 2, 52, 127
3, 1740, Note_on_c, 2, 52, 0
3, 1740, Note_on_c, 2, 52, 127
3, 1770, Note_on_c, 2, 52, 0
3, 1800, Note_on_c, 2, 54, 127
3, 1815, Note_on_c, 2, 54, 0
3, 1815, Note_on_c, 2, 53, 127
3, 1830, Note_on_c, 2, 53, 0
3, 1830, Note_on_c, 2, 54, 127
3, 2160, Note_on_c, 2, 54, 0
3, 2160, Note_on_c, 2, 54, 127
3, 2190, Note_on_c, 2, 54, 0
3, 2190, Note_on_c, 2, 52, 127
3, 2220, Note_on_c, 2, 52, 0
3, 2220, Note_on_c, 2, 51, 127
3, 2250, Note_on_c, 2, 51, 0
3, 2250, Note_on_c, 2, 52, 127
3, 2280, Note_on_c, 2, 52, 0
3, 2280, Note_on_c, 2, 54, 127
3, 2310, Note_on_c, 2, 54, 0
3, 2310, Note_on_c, 2, 56, 127
3, 2340, Note_on_c, 2, 56, 0
3, 2340, Note_on_c, 2, 57, 127
3, 2370, Note_on_c, 2, 57, 0
3, 2370, Note_on_c, 2, 44, 127
3, 2400, Note_on_c, 2, 44, 0
3, 2400, Note_on_c, 2, 45, 127
3, 2430, Note_on_c, 2, 45, 0
3, 2430, Note_on_c, 2, 49, 127
3, 2460, Note_on_c, 2, 49, 0
3, 2460, Note_on_c, 2, 47, 127
3, 2490, Note_on_c, 2, 47, 0
3, 2490, Note_on_c, 2, 45, 127
3, 2520, Note_on_c, 2, 45, 0
3, 2520, Note_on_c, 2, 44, 127
3, 2550, Note_on_c, 2, 44, 0
3, 2550, Note_on_c, 2, 40, 127
3, 2580, Note_on_c, 2, 40, 0
3, 2580, Note_on_c, 2, 44, 127
3, 2610, Note_on_c, 2, 44, 0
3, 2610, Note_on_c, 2, 47, 127
3, 2640, Note_on_c, 2, 47, 0
3, 2640, Note_on_c, 2, 52, 127
3, 2670, Note_on_c, 2, 52, 0
3, 2670, Note_on_c, 2, 47, 127
3, 2700, Note_on_c, 2, 47, 0
3, 2700, Note_on_c, 2, 44, 127
3, 2730, Note_on_c, 2, 44, 0
3, 2730, Note_on_c, 2, 40, 127
3, 2760, Note_on_c, 2, 40, 0
3, 2760, Note_on_c, 2, 44, 127
3, 2790, Note_on_c, 2, 44, 0
3, 2790, Note_on_c, 2, 47, 127
3, 2820, Note_on_c, 2, 47, 0
3, 2820, Note_on_c, 2, 50, 127
3, 2850, Note_on_c, 2, 50, 0
3, 2850, Note_on_c, 2, 47, 127
3, 2880, Note_on_c, 2, 47, 0
3, 2880, Note_on_c, 2, 49, 127
3, 2910, Note_on_c, 2, 49, 0
3, 2910, Note_on_c, 2, 50, 127
3, 2940, Note_on_c, 2, 50, 0
3, 2940, Note_on_c, 2, 52, 127
3, 2970, Note_on_c, 2, 52, 0
3, 2970, Note_on_c, 2, 50, 127
3, 3000, Note_on_c, 2, 50, 0
3, 3000, Note_on_c, 2, 49, 127
3, 3030, Note_on_c, 2, 49, 0
3, 3030, Note_on_c, 2, 47, 127
3, 3060, Note_on_c, 2, 47, 0
3, 3060, Note_on_c, 2, 45, 127
3, 3090, Note_on_c, 2, 45, 0
3, 3090, Note_on_c, 2, 47, 127
3, 3120, Note_on_c, 2, 47, 0
3, 3120, Note_on_c, 2, 49, 127
3, 3150, Note_on_c, 2, 49, 0
3, 3150, Note_on_c, 2, 47, 127
3, 3180, Note_on_c, 2, 47, 0
3, 3180, Note_on_c, 2, 45, 127
3, 3210, Note_on_c, 2, 45, 0
3, 3210, Note_on_c, 2, 44, 127
3, 3240, Note_on_c, 2, 44, 0
3, 3240, Note_on_c, 2, 42, 127
3, 3270, Note_on_c, 2, 42, 0
3, 3300, Note_on_c, 2, 54, 127
3, 3330, Note_on_c, 2, 54, 0
3, 3360, Note_on_c, 2, 49, 127
3, 3390, Note_on_c, 2, 49, 0
3, 3420, Note_on_c, 2, 45, 127
3, 3450, Note_on_c, 2, 45, 0
3, 3480, Note_on_c, 2, 42, 127
3, 3510, Note_on_c, 2, 42, 0
3, 3540, Note_on_c, 2, 45, 127
3, 3570, Note_on_c, 2, 45, 0
3, 3600, Note_on_c, 2, 47, 127
3, 3630, Note_on_c, 2, 47, 0
3, 3630, Note_on_c, 2, 49, 127
3, 3660, Note_on_c, 2, 49, 0
3, 3660, Note_on_c, 2, 50, 127
3, 3690, Note_on_c, 2, 50, 0
3, 3690, Note_on_c, 2, 49, 127
3, 3720, Note_on_c, 2, 49, 0
3, 3720, Note_on_c, 2, 47, 127
3, 3750, Note_on_c, 2, 47, 0
3, 3750, Note_on_c, 2, 45, 127
3, 3780, Note_on_c, 2, 45, 0
3, 3780, Note_on_c, 2, 44, 127
3, 3810, Note_on_c, 2, 44, 0
3, 3810, Note_on_c, 2, 45, 127
3, 3840, Note_on_c, 2, 45, 0
3, 3840, Note_on_c, 2, 47, 127
3, 3870, Note_on_c, 2, 47, 0
3, 3870, Note_on_c, 2, 45, 127
3, 3900, Note_on_c, 2, 45, 0
3, 3900, Note_on_c, 2, 44, 127
3, 3930, Note_on_c, 2, 44, 0
3, 3930, Note_on_c, 2, 42, 127
3, 3960, Note_on_c, 2, 42, 0
3, 3960, Note_on_c, 2, 40, 127
3, 3990, Note_on_c, 2, 40, 0
3, 4020, Note_on_c, 2, 47, 127
3, 4050, Note_on_c, 2, 47, 0
3, 4080, Note_on_c, 2, 44, 127
3, 4110, Note_on_c, 2, 44, 0
3, 4140, Note_on_c, 2, 40, 127
3, 4260, Note_on_c, 2, 40, 0
3, 4350, Note_on_c, 2, 45, 127
3, 4380, Note_on_c, 2, 45, 0
3, 4380, Note_on_c, 2, 49, 127
3, 4410, Note_on_c, 2, 49, 0
3, 4410, Note_on_c, 2, 52, 127
3, 4440, Note_on_c, 2, 52, 0
3, 4440, Note_on_c, 2, 57, 127
3, 4470, Note_on_c, 2, 57, 0
3, 4470, Note_on_c, 2, 56, 127
3, 4500, Note_on_c, 2, 56, 0
3, 4500, Note_on_c, 2, 54, 127
3, 4560, Note_on_c, 2, 54, 0
3, 4710, Note_on_c, 2, 44, 127
3, 4740, Note_on_c, 2, 44, 0
3, 4740, Note_on_c, 2, 47, 127
3, 4770, Note_on_c, 2, 47, 0
3, 4770, Note_on_c, 2, 51, 127
3, 4800, Note_on_c, 2, 51, 0
3, 4800, Note_on_c, 2, 56, 127
3, 4830, Note_on_c, 2, 56, 0
3, 4830, Note_on_c, 2, 54, 127
3, 4860, Note_on_c, 2, 54, 0
3, 4860, Note_on_c, 2, 53, 127
3, 4920, Note_on_c, 2, 53, 0
3, 5070, Note_on_c, 2, 42, 127
3, 5100, Note_on_c, 2, 42, 0
3, 5100, Note_on_c, 2, 45, 127
3, 5130, Note_on_c, 2, 45, 0
3, 5130, Note_on_c, 2, 49, 127
3, 5160, Note_on_c, 2, 49, 0
3, 5160, Note_on_c, 2, 54, 127
3, 5190, Note_on_c, 2, 54, 0
3, 5190, Note_on_c, 2, 52, 127
3, 5220, Note_on_c, 2, 52, 0
3, 5220, Note_on_c, 2, 50, 127
3, 5280, Note_on_c, 2, 50, 0
3, 5430, Note_on_c, 2, 47, 127
3, 5460, Note_on_c, 2, 47, 0
3, 5460, Note_on_c, 2, 50, 127
3, 5490, Note_on_c, 2, 50, 0
3, 5490, Note_on_c, 2, 54, 127
3, 5520, Note_on_c, 2, 54, 0
3, 5520, Note_on_c, 2, 59, 127
3, 5550, Note_on_c, 2, 59, 0
3, 5550, Note_on_c, 2, 57, 127
3, 5580, Note_on_c, 2, 57, 0
3, 5580, Note_on_c, 2, 56, 127
3, 5610, Note_on_c, 2, 56, 0
3, 5610, Note_on_c, 2, 49, 127
3, 5640, Note_on_c, 2, 49, 0
3, 5640, Note_on_c, 2, 53, 127
3, 5670, Note_on_c, 2, 53, 0
3, 5670, Note_on_c, 2, 56, 127
3, 5700, Note_on_c, 2, 56, 0
3, 5700, Note_on_c, 2, 61, 127
3, 5730, Note_on_c, 2, 61, 0
3, 5730, Note_on_c, 2, 59, 127
3, 5760, Note_on_c, 2, 59, 0
3, 5760, Note_on_c, 2, 57, 127
3, 5790, Note_on_c, 2, 57, 0
3, 5790, Note_on_c, 2, 59, 127
3, 5820, Note_on_c, 2, 59, 0
3, 5820, Note_on_c, 2, 57, 127
3, 5850, Note_on_c, 2, 57, 0
3, 5850, Note_on_c, 2, 56, 127
3, 5880, Note_on_c, 2, 56, 0
3, 5880, Note_on_c, 2, 54, 127
3, 5910, Note_on_c, 2, 54, 0
3, 5910, Note_on_c, 2, 52, 127
3, 5940, Note_on_c, 2, 52, 0
3, 5940, Note_on_c, 2, 50, 127
3, 5970, Note_on_c, 2, 50, 0
3, 5970, Note_on_c, 2, 52, 127
3, 6000, Note_on_c, 2, 52, 0
3, 6000, Note_on_c, 2, 54, 127
3, 6030, Note_on_c, 2, 54, 0
3, 6030, Note_on_c, 2, 52, 127
3, 6060, Note_on_c, 2, 52, 0
3, 6060, Note_on_c, 2, 50, 127
3, 6090, Note_on_c, 2, 50, 0
3, 6090, Note_on_c, 2, 49, 127
3, 6120, Note_on_c, 2, 49, 0
3, 6120, Note_on_c, 2, 47, 127
3, 6150, Note_on_c, 2, 47, 0
3, 6150, Note_on_c, 2, 50, 127
3, 6180, Note_on_c, 2, 50, 0
3, 6180, Note_on_c, 2, 54, 127
3, 6210, Note_on_c, 2, 54, 0
3, 6210, Note_on_c, 2, 50, 127
3, 6240, Note_on_c, 2, 50, 0
3, 6240, Note_on_c, 2, 47, 127
3, 6270, Note_on_c, 2, 47, 0
3, 6270, Note_on_c, 2, 50, 127
3, 6300, Note_on_c, 2, 50, 0
3, 6300, Note_on_c, 2, 44, 127
3, 6330, Note_on_c, 2, 44, 0
3, 6330, Note_on_c, 2, 47, 127
3, 6360, Note_on_c, 2, 47, 0
3, 6360, Note_on_c, 2, 50, 127
3, 6390, Note_on_c, 2, 50, 0
3, 6390, Note_on_c, 2, 47, 127
3, 6420, Note_on_c, 2, 47, 0
3, 6420, Note_on_c, 2, 44, 127
3, 6450, Note_on_c, 2, 44, 0
3, 6450, Note_on_c, 2, 47, 127
3, 6480, Note_on_c, 2, 47, 0
3, 6480, Note_on_c, 2, 41, 127
3, 6510, Note_on_c, 2, 41, 0
3, 6540, Note_on_c, 2, 44, 127
3, 6570, Note_on_c, 2, 44, 0
3, 6600, Note_on_c, 2, 41, 127
3, 6630, Note_on_c, 2, 41, 0
3, 6660, Note_on_c, 2, 37, 127
3, 6690, Note_on_c, 2, 37, 0
3, 6720, Note_on_c, 2, 39, 127
3, 6750, Note_on_c, 2, 39, 0
3, 6780, Note_on_c, 2, 41, 127
3, 6810, Note_on_c, 2, 41, 0
3, 6840, Note_on_c, 2, 42, 127
3, 6870, Note_on_c, 2, 42, 0
3, 6900, Note_on_c, 2, 54, 127
3, 6930, Note_on_c, 2, 54, 0
3, 6960, Note_on_c, 2, 51, 127
3, 6990, Note_on_c, 2, 51, 0
3, 7020, Note_on_c, 2, 56, 127
3, 7050, Note_on_c, 2, 56, 0
3, 7080, Note_on_c, 2, 54, 127
3, 7110, Note_on_c, 2, 54, 0
3, 7140, Note_on_c, 2, 56, 127
3, 7170, Note_on_c, 2, 56, 0
3, 7200, Note_on_c, 2, 49, 127
3, 7215, Note_on_c, 2, 49, 0
3, 7215, Note_on_c, 2, 47, 127
3, 7230, Note_on_c, 2, 47, 0
3, 7230, Note_on_c, 2, 49, 127
3, 7320, Note_on_c, 2, 49, 0
3, 7320, Note_on_c, 2, 49, 127
3, 7350, Note_on_c, 2, 49, 0
3, 7380, Note_on_c, 2, 49, 127
3, 7395, Note_on_c, 2, 49, 0
3, 7395, Note_on_c, 2, 47, 127
3, 7410, Note_on_c, 2, 47, 0
3, 7410, Note_on_c, 2, 49, 127
3, 7500, Note_on_c, 2, 49, 0
3, 7500, Note_on_c, 2, 49, 127
3, 7530, Note_on_c, 2, 49, 0
3, 7560, Note_on_c, 2, 51, 127
3, 7575, Note_on_c, 2, 51, 0
3, 7575, Note_on_c, 2, 50, 127
3, 7590, Note_on_c, 2, 50, 0
3, 7590, Note_on_c, 2, 51, 127
3, 7920, Note_on_c, 2, 51, 0
3, 7920, Note_on_c, 2, 50, 127
3, 7950, Note_on_c, 2, 50, 0
3, 7950, Note_on_c, 2, 49, 127
3, 7980, Note_on_c, 2, 49, 0
3, 7980, Note_on_c, 2, 48, 127
3, 8010, Note_on_c, 2, 48, 0
3, 8010, Note_on_c, 2, 49, 127
3, 8040, Note_on_c, 2, 49, 0
3, 8040, Note_on_c, 2, 51, 127
3, 8070, Note_on_c, 2, 51, 0
3, 8070, Note_on_c, 2, 52, 127
3, 8100, Note_on_c, 2, 52, 0
3, 8100, Note_on_c, 2, 54, 127
3, 8130, Note_on_c, 2, 54, 0
3, 8130, Note_on_c, 2, 52, 127
3, 8160, Note_on_c, 2, 52, 0
3, 8160, Note_on_c, 2, 54, 127
3, 8190, Note_on_c, 2, 54, 0
3, 8190, Note_on_c, 2, 57, 127
3, 8220, Note_on_c, 2, 57, 0
3, 8220, Note_on_c, 2, 56, 127
3, 8250, Note_on_c, 2, 56, 0
3, 8250, Note_on_c, 2, 54, 127
3, 8280, Note_on_c, 2, 54, 0
3, 8280, Note_on_c, 2, 52, 127
3, 8310, Note_on_c, 2, 52, 0
3, 8310, Note_on_c, 2, 49, 127
3, 8340, Note_on_c, 2, 49, 0
3, 8340, Note_on_c, 2, 52, 127
3, 8370, Note_on_c, 2, 52, 0
3, 8370, Note_on_c, 2, 56, 127
3, 8400, Note_on_c, 2, 56, 0
3, 8400, Note_on_c, 2, 61, 127
3, 8430, Note_on_c, 2, 61, 0
3, 8430, Note_on_c, 2, 56, 127
3, 8460, Note_on_c, 2, 56, 0
3, 8460, Note_on_c, 2, 52, 127
3, 8490, Note_on_c, 2, 52, 0
3, 8490, Note_on_c, 2, 49, 127
3, 8520, Note_on_c, 2, 49, 0
3, 8520, Note_on_c, 2, 52, 127
3, 8550, Note_on_c, 2, 52, 0
3, 8550, Note_on_c, 2, 56, 127
3, 8580, Note_on_c, 2, 56, 0
3, 8580, Note_on_c, 2, 61, 127
3, 8610, Note_on_c, 2, 61, 0
3, 8610, Note_on_c, 2, 59, 127
3, 8640, Note_on_c, 2, 59, 0
3, 8640, Note_on_c, 2, 58, 127
3, 8670, Note_on_c, 2, 58, 0
3, 8670, Note_on_c, 2, 42, 127
3, 8700, Note_on_c, 2, 42, 0
3, 8700, Note_on_c, 2, 46, 127
3, 8730, Note_on_c, 2, 46, 0
3, 8730, Note_on_c, 2, 49, 127
3, 8760, Note_on_c, 2, 49, 0
3, 8760, Note_on_c, 2, 54, 127
3, 8790, Note_on_c, 2, 54, 0
3, 8790, Note_on_c, 2, 49, 127
3, 8820, Note_on_c, 2, 49, 0
3, 8820, Note_on_c, 2, 46, 127
3, 8850, Note_on_c, 2, 46, 0
3, 8850, Note_on_c, 2, 42, 127
3, 8880, Note_on_c, 2, 42, 0
3, 8880, Note_on_c, 2, 46, 127
3, 8910, Note_on_c, 2, 46, 0
3, 8910, Note_on_c, 2, 49, 127
3, 8940, Note_on_c, 2, 49, 0
3, 8940, Note_on_c, 2, 54, 127
3, 8970, Note_on_c, 2, 54, 0
3, 8970, Note_on_c, 2, 52, 127
3, 9000, Note_on_c, 2, 52, 0
3, 9000, Note_on_c, 2, 50, 127
3, 9030, Note_on_c, 2, 50, 0
3, 9030, Note_on_c, 2, 47, 127
3, 9060, Note_on_c, 2, 47, 0
3, 9060, Note_on_c, 2, 50, 127
3, 9090, Note_on_c, 2, 50, 0
3, 9090, Note_on_c, 2, 54, 127
3, 9120, Note_on_c, 2, 54, 0
3, 9120, Note_on_c, 2, 59, 127
3, 9150, Note_on_c, 2, 59, 0
3, 9150, Note_on_c, 2, 54, 127
3, 9180, Note_on_c, 2, 54, 0
3, 9180, Note_on_c, 2, 50, 127
3, 9210, Note_on_c, 2, 50, 0
3, 9210, Note_on_c, 2, 47, 127
3, 9240, Note_on_c, 2, 47, 0
3, 9240, Note_on_c, 2, 50, 127
3, 9270, Note_on_c, 2, 50, 0
3, 9270, Note_on_c, 2, 54, 127
3, 9300, Note_on_c, 2, 54, 0
3, 9300, Note_on_c, 2, 59, 127
3, 9330, Note_on_c, 2, 59, 0
3, 9330, Note_on_c, 2, 57, 127
3, 9360, Note_on_c, 2, 57, 0
3, 9360, Note_on_c, 2, 56, 127
3, 9390, Note_on_c, 2, 56, 0
3, 9390, Note_on_c, 2, 40, 127
3, 9420, Note_on_c, 2, 40, 0
3, 9420, Note_on_c, 2, 44, 127
3, 9450, Note_on_c, 2, 44, 0
3, 9450, Note_on_c, 2, 47, 127
3, 9480, Note_on_c, 2, 47, 0
3, 9480, Note_on_c, 2, 52, 127
3, 9510, Note_on_c, 2, 52, 0
3, 9510, Note_on_c, 2, 47, 127
3, 9540, Note_on_c, 2, 47, 0
3, 9540, Note_on_c, 2, 44, 127
3, 9570, Note_on_c, 2, 44, 0
3, 9570, Note_on_c, 2, 40, 127
3, 9600, Note_on_c, 2, 40, 0
3, 9600, Note_on_c, 2, 44, 127
3, 9630, Note_on_c, 2, 44, 0
3, 9630, Note_on_c, 2, 47, 127
3, 9660, Note_on_c, 2, 47, 0
3, 9660, Note_on_c, 2, 52, 127
3, 9690, Note_on_c, 2, 52, 0
3, 9690, Note_on_c, 2, 50, 127
3, 9720, Note_on_c, 2, 50, 0
3, 9720, Note_on_c, 2, 49, 127
3, 9750, Note_on_c, 2, 49, 0
3, 9750, Note_on_c, 2, 50, 127
3, 9780, Note_on_c, 2, 50, 0
3, 9780, Note_on_c, 2, 52, 127
3, 9810, Note_on_c, 2, 52, 0
3, 9810, Note_on_c, 2, 50, 127
3, 9840, Note_on_c, 2, 50, 0
3, 9840, Note_on_c, 2, 49, 127
3, 9870, Note_on_c, 2, 49, 0
3, 9870, Note_on_c, 2, 47, 127
3, 9900, Note_on_c, 2, 47, 0
3, 9900, Note_on_c, 2, 45, 127
3, 9930, Note_on_c, 2, 45, 0
3, 9930, Note_on_c, 2, 47, 127
3, 9960, Note_on_c, 2, 47, 0
3, 9960, Note_on_c, 2, 49, 127
3, 9990, Note_on_c, 2, 49, 0
3, 9990, Note_on_c, 2, 47, 127
3, 10020, Note_on_c, 2, 47, 0
3, 10020, Note_on_c, 2, 45, 127
3, 10050, Note_on_c, 2, 45, 0
3, 10050, Note_on_c, 2, 44, 127
3, 10080, Note_on_c, 2, 44, 0
3, 10080, Note_on_c, 2, 42, 127
3, 10110, Note_on_c, 2, 42, 0
3, 10140, Note_on_c, 2, 45, 127
3, 10170, Note_on_c, 2, 45, 0
3, 10200, Note_on_c, 2, 51, 127
3, 10320, Note_on_c, 2, 51, 0
3, 10320, Note_on_c, 2, 49, 127
3, 10380, Note_on_c, 2, 49, 0
3, 10380, Note_on_c, 2, 47, 127
3, 10440, Note_on_c, 2, 47, 0
3, 10440, Note_on_c, 2, 52, 127
3, 10470, Note_on_c, 2, 52, 0
3, 10470, Note_on_c, 2, 54, 127
3, 10500, Note_on_c, 2, 54, 0
3, 10500, Note_on_c, 2, 55, 127
3, 10530, Note_on_c, 2, 55, 0
3, 10530, Note_on_c, 2, 54, 127
3, 10560, Note_on_c, 2, 54, 0
3, 10560, Note_on_c, 2, 52, 127
3, 10590, Note_on_c, 2, 52, 0
3, 10590, Note_on_c, 2, 50, 127
3, 10620, Note_on_c, 2, 50, 0
3, 10620, Note_on_c, 2, 49, 127
3, 10650, Note_on_c, 2, 49, 0
3, 10650, Note_on_c, 2, 50, 127
3, 10680, Note_on_c, 2, 50, 0
3, 10680, Note_on_c, 2, 52, 127
3, 10710, Note_on_c, 2, 52, 0
3, 10710, Note_on_c, 2, 50, 127
3, 10740, Note_on_c, 2, 50, 0
3, 10740, Note_on_c, 2, 49, 127
3, 10770, Note_on_c, 2, 49, 0
3, 10770, Note_on_c, 2, 47, 127
3, 10800, Note_on_c, 2, 47, 0
3, 10800, Note_on_c, 2, 45, 127
3, 10830, Note_on_c, 2, 45, 0
3, 10860, Note_on_c, 2, 52, 127
3, 10890, Note_on_c, 2, 52, 0
3, 10920, Note_on_c, 2, 49, 127
3, 10950, Note_on_c, 2, 49, 0
3, 10980, Note_on_c, 2, 45, 127
3, 11100, Note_on_c, 2, 45, 0
3, 11190, Note_on_c, 2, 50, 127
3, 11220, Note_on_c, 2, 50, 0
3, 11220, Note_on_c, 2, 54, 127
3, 11250, Note_on_c, 2, 54, 0
3, 11250, Note_on_c, 2, 57, 127
3, 11280, Note_on_c, 2, 57, 0
3, 11280, Note_on_c, 2, 62, 127
3, 11310, Note_on_c, 2, 62, 0
3, 11310, Note_on_c, 2, 61, 127
3, 11340, Note_on_c, 2, 61, 0
3, 11340, Note_on_c, 2, 59, 127
3, 11400, Note_on_c, 2, 59, 0
3, 11550, Note_on_c, 2, 49, 127
3, 11580, Note_on_c, 2, 49, 0
3, 11580, Note_on_c, 2, 52, 127
3, 11610, Note_on_c, 2, 52, 0
3, 11610, Note_on_c, 2, 56, 127
3, 11640, Note_on_c, 2, 56, 0
3, 11640, Note_on_c, 2, 61, 127
3, 11670, Note_on_c, 2, 61, 0
3, 11670, Note_on_c, 2, 59, 127
3, 11700, Note_on_c, 2, 59, 0
3, 11700, Note_on_c, 2, 57, 127
3, 11760, Note_on_c, 2, 57, 0
3, 11910, Note_on_c, 2, 47, 127
3, 11940, Note_on_c, 2, 47, 0
3, 11940, Note_on_c, 2, 50, 127
3, 11970, Note_on_c, 2, 50, 0
3, 11970, Note_on_c, 2, 54, 127
3, 12000, Note_on_c, 2, 54, 0
3, 12000, Note_on_c, 2, 59, 127
3, 12030, Note_on_c, 2, 59, 0
3, 12030, Note_on_c, 2, 57, 127
3, 12060, Note_on_c, 2, 57, 0
3, 12060, Note_on_c, 2, 56, 127
3, 12120, Note_on_c, 2, 56, 0
3, 12240, Note_on_c, 2, 45, 127
3, 12255, Note_on_c, 2, 45, 0
3, 12255, Note_on_c, 2, 44, 127
3, 12270, Note_on_c, 2, 44, 0
3, 12270, Note_on_c, 2, 45, 127
3, 12360, Note_on_c, 2, 45, 0
3, 12360, Note_on_c, 2, 45, 127
3, 12390, Note_on_c, 2, 45, 0
3, 12420, Note_on_c, 2, 45, 127
3, 12435, Note_on_c, 2, 45, 0
3, 12435, Note_on_c, 2, 44, 127
3, 12450, Note_on_c, 2, 44, 0
3, 12450, Note_on_c, 2, 45, 127
3, 12540, Note_on_c, 2, 45, 0
3, 12540, Note_on_c, 2, 45, 127
3, 12570, Note_on_c, 2, 45, 0
3, 12600, Note_on_c, 2, 47, 127
3, 12615, Note_on_c, 2, 47, 0
3, 12615, Note_on_c, 2, 46, 127
3, 12630, Note_on_c, 2, 46, 0
3, 12630, Note_on_c, 2, 47, 127
3, 12960, Note_on_c, 2, 47, 0
3, 12960, Note_on_c, 2, 47, 127
3, 12990, Note_on_c, 2, 47, 0
3, 12990, Note_on_c, 2, 45, 127
3, 13020, Note_on_c, 2, 45, 0
3, 13020, Note_on_c, 2, 44, 127
3, 13050, Note_on_c, 2, 44, 0
3, 13050, Note_on_c, 2, 45, 127
3, 13080, Note_on_c, 2, 45, 0
3, 13080, Note_on_c, 2, 47, 127
3, 13110, Note_on_c, 2, 47, 0
3, 13110, Note_on_c, 2, 49, 127
3, 13140, Note_on_c, 2, 49, 0
3, 13140, Note_on_c, 2, 50, 127
3, 13170, Note_on_c, 2, 50, 0
3, 13170, Note_on_c, 2, 49, 127
3, 13200, Note_on_c, 2, 49, 0
3, 13200, Note_on_c, 2, 50, 127
3, 13230, Note_on_c, 2, 50, 0
3, 13230, Note_on_c, 2, 54, 127
3, 13260, Note_on_c, 2, 54, 0
3, 13260, Note_on_c, 2, 52, 127
3, 13290, Note_on_c, 2, 52, 0
3, 13290, Note_on_c, 2, 50, 127
3, 13320, Note_on_c, 2, 50, 0
3, 13320, Note_on_c, 2, 49, 127
3, 13350, Note_on_c, 2, 49, 0
3, 13350, Note_on_c, 2, 47, 127
3, 13380, Note_on_c, 2, 47, 0
3, 13380, Note_on_c, 2, 49, 127
3, 13410, Note_on_c, 2, 49, 0
3, 13410, Note_on_c, 2, 52, 127
3, 13440, Note_on_c, 2, 52, 0
3, 13440, Note_on_c, 2, 50, 127
3, 13470, Note_on_c, 2, 50, 0
3, 13470, Note_on_c, 2, 49, 127
3, 13500, Note_on_c, 2, 49, 0
3, 13500, Note_on_c, 2, 47, 127
3, 13530, Note_on_c, 2, 47, 0
3, 13530, Note_on_c, 2, 45, 127
3, 13560, Note_on_c, 2, 45, 0
3, 13560, Note_on_c, 2, 47, 127
3, 13590, Note_on_c, 2, 47, 0
3, 13590, Note_on_c, 2, 50, 127
3, 13620, Note_on_c, 2, 50, 0
3, 13620, Note_on_c, 2, 49, 127
3, 13650, Note_on_c, 2, 49, 0
3, 13650, Note_on_c, 2, 47, 127
3, 13680, Note_on_c, 2, 47, 0
3, 13680, Note_on_c, 2, 45, 127
3, 13710, Note_on_c, 2, 45, 0
3, 13710, Note_on_c, 2, 44, 127
3, 13740, Note_on_c, 2, 44, 0
3, 13740, Note_on_c, 2, 45, 127
3, 13770, Note_on_c, 2, 45, 0
3, 13770, Note_on_c, 2, 47, 127
3, 13800, Note_on_c, 2, 47, 0
3, 13800, Note_on_c, 2, 49, 127
3, 13830, Note_on_c, 2, 49, 0
3, 13830, Note_on_c, 2, 45, 127
3, 13860, Note_on_c, 2, 45, 0
3, 13860, Note_on_c, 2, 50, 127
3, 13875, Note_on_c, 2, 50, 0
3, 13875, Note_on_c, 2, 49, 127
3, 13890, Note_on_c, 2, 49, 0
3, 13890, Note_on_c, 2, 50, 127
3, 13980, Note_on_c, 2, 50, 0
3, 13980, Note_on_c, 2, 50, 127
3, 14040, Note_on_c, 2, 50, 0
3, 14040, Note_on_c, 2, 50, 127
3, 14370, Note_on_c, 2, 50, 0
3, 14400, Note_on_c, 2, 49, 127
3, 14430, Note_on_c, 2, 49, 0
3, 14430, Note_on_c, 2, 50, 127
3, 14460, Note_on_c, 2, 50, 0
3, 14460, Note_on_c, 2, 49, 127
3, 14490, Note_on_c, 2, 49, 0
3, 14490, Note_on_c, 2, 47, 127
3, 14520, Note_on_c, 2, 47, 0
3, 14520, Note_on_c, 2, 45, 127
3, 14550, Note_on_c, 2, 45, 0
3, 14550, Note_on_c, 2, 44, 127
3, 14580, Note_on_c, 2, 44, 0
3, 14580, Note_on_c, 2, 42, 127
3, 14610, Note_on_c, 2, 42, 0
3, 14610, Note_on_c, 2, 54, 127
3, 14640, Note_on_c, 2, 54, 0
3, 14640, Note_on_c, 2, 52, 127
3, 14670, Note_on_c, 2, 52, 0
3, 14670, Note_on_c, 2, 50, 127
3, 14700, Note_on_c, 2, 50, 0
3, 14700, Note_on_c, 2, 49, 127
3, 14730, Note_on_c, 2, 49, 0
3, 14730, Note_on_c, 2, 47, 127
3, 14760, Note_on_c, 2, 47, 0
3, 14760, Note_on_c, 2, 49, 127
3, 14790, Note_on_c, 2, 49, 0
3, 14790, Note_on_c, 2, 50, 127
3, 14820, Note_on_c, 2, 50, 0
3, 14820, Note_on_c, 2, 52, 127
3, 14880, Note_on_c, 2, 52, 0
3, 14880, Note_on_c, 2, 40, 127
3, 14940, Note_on_c, 2, 40, 0
3, 14940, Note_on_c, 2, 45, 127
3, 15120, Note_on_c, 2, 45, 0
3, 15120, End_track
4, 0, Start_track
4, 0, End_track
0, 0, End_of_file
