0, 0, Header, 1, 6, 120
1, 0, Start_track
1, 0, Text_t, "\015\012\015\012Mass in B Minor          Johann Sebastion Bach\015\012No. 17 Bass Aria, Et in spritum\015\012\015\012seq by David Siu  dss@po.cwru.edu\015\012\015\012\015\012"
1, 0, Time_signature, 1, 2, 24, 8
1, 0, Key_signature, 3, "major"
1, 0, Tempo, 625000
1, 120, Time_signature, 6, 3, 12, 8
1, 427, Tempo, 731707
1, 480, Tempo, 638298
1, 1920, Tempo, 666667
1, 14557, Tempo, 779221
1, 14602, Tempo, 666667
1, 17280, Tempo, 731707
1, 17422, Tempo, 666667
1, 25320, Tempo, 638298
1, 26407, Tempo, 697674
1, 26790, Tempo, 666667
1, 28927, Tempo, 638298
1, 30360, Tempo, 666667
1, 32715, Tempo, 731707
1, 32790, Tempo, 869565
1, 32880, Tempo, 666667
1, 37477, Tempo, 731707
1, 37560, Tempo, 666667
1, 46185, Tempo, 821918
1, 46188, Tempo, 731707
1, 46210, Tempo, 722892
1, 46233, Tempo, 714286
1, 46255, Tempo, 705882
1, 46278, Tempo, 697674
1, 46290, Tempo, 666667
1, 47100, Tempo, 821918
1, 47220, Tempo, 983607
1, 47286, Tempo, 1052632
1, 47293, Tempo, 666667
1, 51322, Tempo, 779221
1, 51420, Tempo, 869565
1, 51525, Tempo, 983607
1, 51570, Tempo, 1224490
1, 51598, Tempo, 1621622
1, 51598, End_track
2, 0, Start_track
2, 0, MIDI_port, 0
2, 0, Title_t, "Oboe d'amore I"
2, 0, Program_c, 0, 68
2, 0, Control_c, 0, 10, 20
2, 0, Control_c, 0, 121, 127
2, 0, Control_c, 0, 91, 127
2, 0, Control_c, 0, 1, 10
2, 300, Note_on_c, 0, 69, 40
2, 420, Note_on_c, 0, 69, 0
2, 420, Note_on_c, 0, 71, 46
2, 455, Note_on_c, 0, 71, 0
2, 480, Note_on_c, 0, 73, 49
2, 540, Note_on_c, 0, 73, 0
2, 540, Note_on_c, 0, 74, 49
2, 600, Note_on_c, 0, 74, 0
2, 600, Note_on_c, 0, 76, 52
2, 635, Note_on_c, 0, 76, 0
2, 660, Note_on_c, 0, 74, 56
2, 720, Note_on_c, 0, 74, 0
2, 720, Note_on_c, 0, 73, 52
2, 780, Note_on_c, 0, 73, 0
2, 780, Note_on_c, 0, 71, 45
2, 815, Note_on_c, 0, 71, 0
2, 840, Note_on_c, 0, 73, 39
2, 900, Note_on_c, 0, 73, 0
2, 900, Note_on_c, 0, 74, 44
2, 960, Note_on_c, 0, 74, 0
2, 960, Note_on_c, 0, 76, 49
2, 995, Note_on_c, 0, 76, 0
2, 1020, Note_on_c, 0, 74, 54
2, 1080, Note_on_c, 0, 74, 0
2, 1080, Note_on_c, 0, 73, 51
2, 1140, Note_on_c, 0, 73, 0
2, 1140, Note_on_c, 0, 71, 44
2, 1175, Note_on_c, 0, 71, 0
2, 1200, Note_on_c, 0, 73, 46
2, 1260, Note_on_c, 0, 73, 0
2, 1260, Note_on_c, 0, 76, 54
2, 1295, Note_on_c, 0, 76, 0
2, 1320, Note_on_c, 0, 81, 61
2, 1355, Note_on_c, 0, 81, 0
2, 1380, Note_on_c, 0, 74, 58
2, 1440, Note_on_c, 0, 74, 0
2, 1440, Note_on_c, 0, 73, 56
2, 1470, Note_on_c, 0, 73, 0
2, 1470, Note_on_c, 0, 71, 55
2, 1500, Note_on_c, 0, 71, 0
2, 1500, Note_on_c, 0, 73, 54
2, 1535, Note_on_c, 0, 73, 0
2, 1560, Note_on_c, 0, 71, 52
2, 1800, Note_on_c, 0, 71, 0
2, 1800, Note_on_c, 0, 73, 48
2, 1860, Note_on_c, 0, 73, 0
2, 1860, Note_on_c, 0, 75, 57
2, 1920, Note_on_c, 0, 75, 0
2, 1920, Note_on_c, 0, 76, 66
2, 1955, Note_on_c, 0, 76, 0
2, 1980, Note_on_c, 0, 68, 55
2, 2040, Note_on_c, 0, 68, 0
2, 2040, Note_on_c, 0, 69, 39
2, 2075, Note_on_c, 0, 69, 0
2, 2100, Note_on_c, 0, 66, 50
2, 2160, Note_on_c, 0, 66, 0
2, 2160, Note_on_c, 0, 64, 43
2, 2195, Note_on_c, 0, 64, 0
2, 2220, Note_on_c, 0, 75, 61
2, 2280, Note_on_c, 0, 75, 0
2, 2280, Note_on_c, 0, 76, 53
2, 2315, Note_on_c, 0, 76, 0
2, 2340, Note_on_c, 0, 68, 47
2, 2400, Note_on_c, 0, 68, 0
2, 2400, Note_on_c, 0, 69, 41
2, 2435, Note_on_c, 0, 69, 0
2, 2460, Note_on_c, 0, 66, 42
2, 2520, Note_on_c, 0, 66, 0
2, 2520, Note_on_c, 0, 64, 33
2, 2555, Note_on_c, 0, 64, 0
2, 2580, Note_on_c, 0, 74, 56
2, 2640, Note_on_c, 0, 74, 0
2, 2640, Note_on_c, 0, 73, 49
2, 2940, Note_on_c, 0, 73, 0
2, 2940, Note_on_c, 0, 66, 44
2, 3000, Note_on_c, 0, 66, 0
2, 3000, Note_on_c, 0, 71, 45
2, 3300, Note_on_c, 0, 71, 0
2, 3300, Note_on_c, 0, 59, 47
2, 3360, Note_on_c, 0, 59, 0
2, 3360, Note_on_c, 0, 61, 31
2, 3420, Note_on_c, 0, 61, 0
2, 3420, Note_on_c, 0, 63, 33
2, 3480, Note_on_c, 0, 63, 0
2, 3480, Note_on_c, 0, 64, 36
2, 3515, Note_on_c, 0, 64, 0
2, 3540, Note_on_c, 0, 68, 38
2, 3551, Note_on_c, 0, 68, 0
2, 3551, Note_on_c, 0, 69, 38
2, 3564, Note_on_c, 0, 69, 0
2, 3564, Note_on_c, 0, 68, 39
2, 3575, Note_on_c, 0, 68, 0
2, 3575, Note_on_c, 0, 69, 39
2, 3588, Note_on_c, 0, 69, 0
2, 3588, Note_on_c, 0, 68, 40
2, 3600, Note_on_c, 0, 68, 0
2, 3600, Note_on_c, 0, 66, 40
2, 3660, Note_on_c, 0, 66, 0
2, 3660, Note_on_c, 0, 64, 43
2, 3695, Note_on_c, 0, 64, 0
2, 3720, Note_on_c, 0, 64, 45
2, 3780, Note_on_c, 0, 64, 0
2, 3780, Note_on_c, 0, 71, 44
2, 3840, Note_on_c, 0, 71, 0
2, 3840, Note_on_c, 0, 68, 45
2, 3875, Note_on_c, 0, 68, 0
2, 3900, Note_on_c, 0, 64, 45
2, 3960, Note_on_c, 0, 64, 0
2, 3960, Note_on_c, 0, 71, 30
2, 3995, Note_on_c, 0, 71, 0
2, 4020, Note_on_c, 0, 59, 47
2, 4080, Note_on_c, 0, 59, 0
2, 4080, Note_on_c, 0, 61, 47
2, 4140, Note_on_c, 0, 61, 0
2, 4140, Note_on_c, 0, 63, 48
2, 4200, Note_on_c, 0, 63, 0
2, 4200, Note_on_c, 0, 64, 49
2, 4235, Note_on_c, 0, 64, 0
2, 4260, Note_on_c, 0, 68, 49
2, 4271, Note_on_c, 0, 68, 0
2, 4271, Note_on_c, 0, 69, 49
2, 4284, Note_on_c, 0, 69, 0
2, 4284, Note_on_c, 0, 68, 50
2, 4295, Note_on_c, 0, 68, 0
2, 4295, Note_on_c, 0, 69, 50
2, 4308, Note_on_c, 0, 69, 0
2, 4308, Note_on_c, 0, 68, 50
2, 4320, Note_on_c, 0, 68, 0
2, 4320, Note_on_c, 0, 66, 50
2, 4380, Note_on_c, 0, 66, 0
2, 4380, Note_on_c, 0, 64, 51
2, 4415, Note_on_c, 0, 64, 0
2, 4440, Note_on_c, 0, 64, 51
2, 4620, Note_on_c, 0, 64, 0
2, 5880, Note_on_c, 0, 76, 38
2, 6120, Note_on_c, 0, 76, 0
2, 6120, Note_on_c, 0, 78, 43
2, 6180, Note_on_c, 0, 78, 0
2, 6180, Note_on_c, 0, 80, 45
2, 6240, Note_on_c, 0, 80, 0
2, 6240, Note_on_c, 0, 81, 46
2, 6275, Note_on_c, 0, 81, 0
2, 6300, Note_on_c, 0, 73, 35
2, 6360, Note_on_c, 0, 73, 0
2, 6360, Note_on_c, 0, 74, 29
2, 6395, Note_on_c, 0, 74, 0
2, 6420, Note_on_c, 0, 71, 35
2, 6480, Note_on_c, 0, 71, 0
2, 6480, Note_on_c, 0, 69, 28
2, 6515, Note_on_c, 0, 69, 0
2, 6540, Note_on_c, 0, 80, 48
2, 6600, Note_on_c, 0, 80, 0
2, 6600, Note_on_c, 0, 81, 39
2, 6635, Note_on_c, 0, 81, 0
2, 6660, Note_on_c, 0, 73, 38
2, 6720, Note_on_c, 0, 73, 0
2, 6720, Note_on_c, 0, 74, 28
2, 6755, Note_on_c, 0, 74, 0
2, 6780, Note_on_c, 0, 71, 38
2, 6840, Note_on_c, 0, 71, 0
2, 6840, Note_on_c, 0, 69, 28
2, 6875, Note_on_c, 0, 69, 0
2, 6900, Note_on_c, 0, 79, 47
2, 6960, Note_on_c, 0, 79, 0
2, 6960, Note_on_c, 0, 78, 39
2, 7260, Note_on_c, 0, 78, 0
2, 7260, Note_on_c, 0, 71, 38
2, 7320, Note_on_c, 0, 71, 0
2, 7320, Note_on_c, 0, 76, 38
2, 7620, Note_on_c, 0, 76, 0
2, 7620, Note_on_c, 0, 64, 37
2, 7680, Note_on_c, 0, 64, 0
2, 7680, Note_on_c, 0, 66, 30
2, 7740, Note_on_c, 0, 66, 0
2, 7740, Note_on_c, 0, 68, 32
2, 7800, Note_on_c, 0, 68, 0
2, 7800, Note_on_c, 0, 69, 35
2, 7835, Note_on_c, 0, 69, 0
2, 7860, Note_on_c, 0, 73, 37
2, 7871, Note_on_c, 0, 73, 0
2, 7871, Note_on_c, 0, 74, 37
2, 7884, Note_on_c, 0, 74, 0
2, 7884, Note_on_c, 0, 73, 38
2, 7895, Note_on_c, 0, 73, 0
2, 7895, Note_on_c, 0, 74, 38
2, 7908, Note_on_c, 0, 74, 0
2, 7908, Note_on_c, 0, 73, 39
2, 7920, Note_on_c, 0, 73, 0
2, 7920, Note_on_c, 0, 71, 39
2, 7980, Note_on_c, 0, 71, 0
2, 7980, Note_on_c, 0, 69, 42
2, 8015, Note_on_c, 0, 69, 0
2, 8040, Note_on_c, 0, 69, 44
2, 8100, Note_on_c, 0, 69, 0
2, 8100, Note_on_c, 0, 76, 46
2, 8160, Note_on_c, 0, 76, 0
2, 8160, Note_on_c, 0, 73, 47
2, 8195, Note_on_c, 0, 73, 0
2, 8220, Note_on_c, 0, 69, 47
2, 8280, Note_on_c, 0, 69, 0
2, 8280, Note_on_c, 0, 76, 33
2, 8315, Note_on_c, 0, 76, 0
2, 8340, Note_on_c, 0, 64, 31
2, 8400, Note_on_c, 0, 64, 0
2, 8400, Note_on_c, 0, 66, 35
2, 8460, Note_on_c, 0, 66, 0
2, 8460, Note_on_c, 0, 68, 39
2, 8520, Note_on_c, 0, 68, 0
2, 8520, Note_on_c, 0, 69, 43
2, 8555, Note_on_c, 0, 69, 0
2, 8580, Note_on_c, 0, 73, 48
2, 8591, Note_on_c, 0, 73, 0
2, 8591, Note_on_c, 0, 74, 48
2, 8604, Note_on_c, 0, 74, 0
2, 8604, Note_on_c, 0, 73, 48
2, 8615, Note_on_c, 0, 73, 0
2, 8615, Note_on_c, 0, 74, 48
2, 8628, Note_on_c, 0, 74, 0
2, 8628, Note_on_c, 0, 73, 48
2, 8640, Note_on_c, 0, 73, 0
2, 8640, Note_on_c, 0, 71, 48
2, 8700, Note_on_c, 0, 71, 0
2, 8700, Note_on_c, 0, 69, 47
2, 8735, Note_on_c, 0, 69, 0
2, 8760, Note_on_c, 0, 69, 47
2, 8880, Note_on_c, 0, 69, 0
2, 8940, Note_on_c, 0, 69, 31
2, 9060, Note_on_c, 0, 69, 0
2, 9060, Note_on_c, 0, 71, 35
2, 9095, Note_on_c, 0, 71, 0
2, 9120, Note_on_c, 0, 73, 37
2, 9180, Note_on_c, 0, 73, 0
2, 9180, Note_on_c, 0, 74, 37
2, 9240, Note_on_c, 0, 74, 0
2, 9240, Note_on_c, 0, 76, 38
2, 9275, Note_on_c, 0, 76, 0
2, 9300, Note_on_c, 0, 74, 39
2, 9360, Note_on_c, 0, 74, 0
2, 9360, Note_on_c, 0, 73, 36
2, 9420, Note_on_c, 0, 73, 0
2, 9420, Note_on_c, 0, 71, 33
2, 9455, Note_on_c, 0, 71, 0
2, 9480, Note_on_c, 0, 73, 24
2, 9540, Note_on_c, 0, 73, 0
2, 9540, Note_on_c, 0, 74, 29
2, 9600, Note_on_c, 0, 74, 0
2, 9600, Note_on_c, 0, 76, 35
2, 9635, Note_on_c, 0, 76, 0
2, 9660, Note_on_c, 0, 74, 40
2, 9720, Note_on_c, 0, 74, 0
2, 9720, Note_on_c, 0, 73, 37
2, 9780, Note_on_c, 0, 73, 0
2, 9780, Note_on_c, 0, 71, 32
2, 9815, Note_on_c, 0, 71, 0
2, 9840, Note_on_c, 0, 73, 36
2, 9900, Note_on_c, 0, 73, 0
2, 9900, Note_on_c, 0, 76, 42
2, 9960, Note_on_c, 0, 76, 0
2, 9960, Note_on_c, 0, 81, 48
2, 9995, Note_on_c, 0, 81, 0
2, 10020, Note_on_c, 0, 74, 46
2, 10080, Note_on_c, 0, 74, 0
2, 10080, Note_on_c, 0, 71, 42
2, 10140, Note_on_c, 0, 71, 0
2, 10140, Note_on_c, 0, 73, 41
2, 10200, Note_on_c, 0, 73, 0
2, 10200, Note_on_c, 0, 71, 40
2, 10380, Note_on_c, 0, 71, 0
2, 10740, Note_on_c, 0, 76, 26
2, 10980, Note_on_c, 0, 76, 0
2, 10980, Note_on_c, 0, 78, 29
2, 11040, Note_on_c, 0, 78, 0
2, 11040, Note_on_c, 0, 79, 29
2, 11100, Note_on_c, 0, 79, 0
2, 11100, Note_on_c, 0, 78, 29
2, 11340, Note_on_c, 0, 78, 0
2, 11340, Note_on_c, 0, 79, 31
2, 11400, Note_on_c, 0, 79, 0
2, 11400, Note_on_c, 0, 76, 31
2, 11460, Note_on_c, 0, 76, 0
2, 11460, Note_on_c, 0, 74, 31
2, 11700, Note_on_c, 0, 74, 0
2, 11700, Note_on_c, 0, 76, 32
2, 11760, Note_on_c, 0, 76, 0
2, 11760, Note_on_c, 0, 78, 33
2, 11820, Note_on_c, 0, 78, 0
2, 11820, Note_on_c, 0, 76, 33
2, 12060, Note_on_c, 0, 76, 0
2, 12060, Note_on_c, 0, 78, 34
2, 12120, Note_on_c, 0, 78, 0
2, 12120, Note_on_c, 0, 74, 34
2, 12180, Note_on_c, 0, 74, 0
2, 12180, Note_on_c, 0, 73, 35
2, 12420, Note_on_c, 0, 73, 0
2, 12420, Note_on_c, 0, 75, 38
2, 12480, Note_on_c, 0, 75, 0
2, 12480, Note_on_c, 0, 76, 42
2, 12515, Note_on_c, 0, 76, 0
2, 12540, Note_on_c, 0, 81, 45
2, 12570, Note_on_c, 0, 81, 0
2, 12570, Note_on_c, 0, 80, 44
2, 12600, Note_on_c, 0, 80, 0
2, 12600, Note_on_c, 0, 78, 42
2, 12635, Note_on_c, 0, 78, 0
2, 12660, Note_on_c, 0, 80, 38
2, 12695, Note_on_c, 0, 80, 0
2, 12720, Note_on_c, 0, 75, 33
2, 12780, Note_on_c, 0, 75, 0
2, 12780, Note_on_c, 0, 76, 36
2, 12840, Note_on_c, 0, 76, 0
2, 12840, Note_on_c, 0, 78, 30
2, 12875, Note_on_c, 0, 78, 0
2, 12900, Note_on_c, 0, 71, 35
2, 12960, Note_on_c, 0, 71, 0
2, 12960, Note_on_c, 0, 73, 32
2, 13020, Note_on_c, 0, 73, 0
2, 13020, Note_on_c, 0, 75, 30
2, 13055, Note_on_c, 0, 75, 0
2, 13080, Note_on_c, 0, 76, 27
2, 13115, Note_on_c, 0, 76, 0
2, 13140, Note_on_c, 0, 68, 38
2, 13200, Note_on_c, 0, 68, 0
2, 13200, Note_on_c, 0, 69, 30
2, 13235, Note_on_c, 0, 69, 0
2, 13260, Note_on_c, 0, 66, 39
2, 13320, Note_on_c, 0, 66, 0
2, 13320, Note_on_c, 0, 64, 32
2, 13355, Note_on_c, 0, 64, 0
2, 13380, Note_on_c, 0, 75, 52
2, 13440, Note_on_c, 0, 75, 0
2, 13440, Note_on_c, 0, 76, 43
2, 13475, Note_on_c, 0, 76, 0
2, 13500, Note_on_c, 0, 68, 39
2, 13560, Note_on_c, 0, 68, 0
2, 13560, Note_on_c, 0, 69, 31
2, 13595, Note_on_c, 0, 69, 0
2, 13620, Note_on_c, 0, 66, 34
2, 13680, Note_on_c, 0, 66, 0
2, 13680, Note_on_c, 0, 64, 28
2, 13715, Note_on_c, 0, 64, 0
2, 13740, Note_on_c, 0, 74, 41
2, 13800, Note_on_c, 0, 74, 0
2, 13800, Note_on_c, 0, 73, 33
2, 14100, Note_on_c, 0, 73, 0
2, 14100, Note_on_c, 0, 66, 32
2, 14160, Note_on_c, 0, 66, 0
2, 14160, Note_on_c, 0, 71, 33
2, 14400, Note_on_c, 0, 71, 0
2, 14400, Note_on_c, 0, 76, 36
2, 14460, Note_on_c, 0, 76, 0
2, 14460, Note_on_c, 0, 68, 37
2, 14520, Note_on_c, 0, 68, 0
2, 14520, Note_on_c, 0, 69, 37
2, 14760, Note_on_c, 0, 69, 0
2, 14760, Note_on_c, 0, 68, 40
2, 14820, Note_on_c, 0, 68, 0
2, 14820, Note_on_c, 0, 69, 33
2, 14880, Note_on_c, 0, 69, 0
2, 14880, Note_on_c, 0, 68, 25
2, 15120, Note_on_c, 0, 68, 0
2, 15120, Note_on_c, 0, 66, 30
2, 15180, Note_on_c, 0, 66, 0
2, 15180, Note_on_c, 0, 64, 31
2, 15240, Note_on_c, 0, 64, 0
2, 15240, Note_on_c, 0, 69, 32
2, 15480, Note_on_c, 0, 69, 0
2, 15480, Note_on_c, 0, 68, 37
2, 15540, Note_on_c, 0, 68, 0
2, 15540, Note_on_c, 0, 66, 39
2, 15600, Note_on_c, 0, 66, 0
2, 15600, Note_on_c, 0, 71, 40
2, 15840, Note_on_c, 0, 71, 0
2, 15840, Note_on_c, 0, 69, 45
2, 15900, Note_on_c, 0, 69, 0
2, 15900, Note_on_c, 0, 68, 46
2, 15960, Note_on_c, 0, 68, 0
2, 15960, Note_on_c, 0, 66, 47
2, 16140, Note_on_c, 0, 66, 0
2, 16260, Note_on_c, 0, 59, 28
2, 16320, Note_on_c, 0, 59, 0
2, 16320, Note_on_c, 0, 61, 32
2, 16380, Note_on_c, 0, 61, 0
2, 16380, Note_on_c, 0, 63, 35
2, 16440, Note_on_c, 0, 63, 0
2, 16440, Note_on_c, 0, 64, 39
2, 16475, Note_on_c, 0, 64, 0
2, 16500, Note_on_c, 0, 68, 42
2, 16511, Note_on_c, 0, 68, 0
2, 16511, Note_on_c, 0, 69, 43
2, 16524, Note_on_c, 0, 69, 0
2, 16524, Note_on_c, 0, 68, 43
2, 16535, Note_on_c, 0, 68, 0
2, 16535, Note_on_c, 0, 69, 42
2, 16548, Note_on_c, 0, 69, 0
2, 16548, Note_on_c, 0, 68, 42
2, 16560, Note_on_c, 0, 68, 0
2, 16560, Note_on_c, 0, 66, 41
2, 16620, Note_on_c, 0, 66, 0
2, 16620, Note_on_c, 0, 64, 39
2, 16655, Note_on_c, 0, 64, 0
2, 16680, Note_on_c, 0, 64, 36
2, 16740, Note_on_c, 0, 64, 0
2, 16740, Note_on_c, 0, 71, 34
2, 16800, Note_on_c, 0, 71, 0
2, 16800, Note_on_c, 0, 68, 32
2, 16860, Note_on_c, 0, 68, 0
2, 16860, Note_on_c, 0, 64, 29
2, 16920, Note_on_c, 0, 64, 0
2, 16920, Note_on_c, 0, 71, 27
2, 16955, Note_on_c, 0, 71, 0
2, 16980, Note_on_c, 0, 59, 28
2, 17040, Note_on_c, 0, 59, 0
2, 17040, Note_on_c, 0, 61, 32
2, 17100, Note_on_c, 0, 61, 0
2, 17100, Note_on_c, 0, 63, 35
2, 17160, Note_on_c, 0, 63, 0
2, 17160, Note_on_c, 0, 64, 39
2, 17195, Note_on_c, 0, 64, 0
2, 17220, Note_on_c, 0, 68, 43
2, 17231, Note_on_c, 0, 68, 0
2, 17231, Note_on_c, 0, 69, 43
2, 17244, Note_on_c, 0, 69, 0
2, 17244, Note_on_c, 0, 68, 42
2, 17255, Note_on_c, 0, 68, 0
2, 17255, Note_on_c, 0, 69, 42
2, 17268, Note_on_c, 0, 69, 0
2, 17268, Note_on_c, 0, 68, 41
2, 17280, Note_on_c, 0, 68, 0
2, 17280, Note_on_c, 0, 66, 41
2, 17340, Note_on_c, 0, 66, 0
2, 17340, Note_on_c, 0, 64, 38
2, 17375, Note_on_c, 0, 64, 0
2, 17400, Note_on_c, 0, 64, 35
2, 17460, Note_on_c, 0, 64, 0
2, 17460, Note_on_c, 0, 68, 47
2, 17520, Note_on_c, 0, 68, 0
2, 17520, Note_on_c, 0, 71, 51
2, 17555, Note_on_c, 0, 71, 0
2, 17580, Note_on_c, 0, 76, 56
2, 17640, Note_on_c, 0, 76, 0
2, 17640, Note_on_c, 0, 71, 54
2, 17700, Note_on_c, 0, 71, 0
2, 17700, Note_on_c, 0, 75, 52
2, 17735, Note_on_c, 0, 75, 0
2, 17760, Note_on_c, 0, 76, 49
2, 17820, Note_on_c, 0, 76, 0
2, 17820, Note_on_c, 0, 78, 51
2, 17880, Note_on_c, 0, 78, 0
2, 17880, Note_on_c, 0, 80, 56
2, 17915, Note_on_c, 0, 80, 0
2, 17940, Note_on_c, 0, 78, 56
2, 18000, Note_on_c, 0, 78, 0
2, 18000, Note_on_c, 0, 76, 52
2, 18060, Note_on_c, 0, 76, 0
2, 18060, Note_on_c, 0, 75, 48
2, 18095, Note_on_c, 0, 75, 0
2, 18120, Note_on_c, 0, 76, 44
2, 18180, Note_on_c, 0, 76, 0
2, 18180, Note_on_c, 0, 78, 49
2, 18240, Note_on_c, 0, 78, 0
2, 18240, Note_on_c, 0, 80, 54
2, 18275, Note_on_c, 0, 80, 0
2, 18300, Note_on_c, 0, 78, 56
2, 18360, Note_on_c, 0, 78, 0
2, 18360, Note_on_c, 0, 76, 52
2, 18420, Note_on_c, 0, 76, 0
2, 18420, Note_on_c, 0, 75, 49
2, 18455, Note_on_c, 0, 75, 0
2, 18480, Note_on_c, 0, 76, 47
2, 18540, Note_on_c, 0, 76, 0
2, 18540, Note_on_c, 0, 80, 51
2, 18575, Note_on_c, 0, 80, 0
2, 18600, Note_on_c, 0, 71, 54
2, 18635, Note_on_c, 0, 71, 0
2, 18660, Note_on_c, 0, 75, 51
2, 18755, Note_on_c, 0, 75, 0
2, 18780, Note_on_c, 0, 76, 47
2, 18815, Note_on_c, 0, 76, 0
2, 18840, Note_on_c, 0, 75, 44
2, 18900, Note_on_c, 0, 75, 0
2, 18900, Note_on_c, 0, 76, 43
2, 18960, Note_on_c, 0, 76, 0
2, 18960, Note_on_c, 0, 73, 41
2, 18995, Note_on_c, 0, 73, 0
2, 19020, Note_on_c, 0, 71, 40
2, 19080, Note_on_c, 0, 71, 0
2, 19080, Note_on_c, 0, 73, 38
2, 19140, Note_on_c, 0, 73, 0
2, 19140, Note_on_c, 0, 75, 36
2, 19200, Note_on_c, 0, 75, 0
2, 19200, Note_on_c, 0, 76, 35
2, 19235, Note_on_c, 0, 76, 0
2, 19260, Note_on_c, 0, 68, 41
2, 19320, Note_on_c, 0, 68, 0
2, 19320, Note_on_c, 0, 69, 34
2, 19355, Note_on_c, 0, 69, 0
2, 19380, Note_on_c, 0, 66, 41
2, 19440, Note_on_c, 0, 66, 0
2, 19440, Note_on_c, 0, 64, 34
2, 19475, Note_on_c, 0, 64, 0
2, 19500, Note_on_c, 0, 75, 55
2, 19560, Note_on_c, 0, 75, 0
2, 19560, Note_on_c, 0, 76, 47
2, 19595, Note_on_c, 0, 76, 0
2, 19620, Note_on_c, 0, 68, 40
2, 19680, Note_on_c, 0, 68, 0
2, 19680, Note_on_c, 0, 69, 33
2, 19715, Note_on_c, 0, 69, 0
2, 19740, Note_on_c, 0, 66, 42
2, 19800, Note_on_c, 0, 66, 0
2, 19800, Note_on_c, 0, 64, 33
2, 19835, Note_on_c, 0, 64, 0
2, 19860, Note_on_c, 0, 74, 52
2, 19920, Note_on_c, 0, 74, 0
2, 19920, Note_on_c, 0, 73, 44
2, 20220, Note_on_c, 0, 73, 0
2, 20220, Note_on_c, 0, 66, 44
2, 20280, Note_on_c, 0, 66, 0
2, 20280, Note_on_c, 0, 71, 45
2, 20555, Note_on_c, 0, 71, 0
2, 20580, Note_on_c, 0, 71, 46
2, 20640, Note_on_c, 0, 71, 0
2, 20640, Note_on_c, 0, 71, 44
2, 20700, Note_on_c, 0, 71, 0
2, 20700, Note_on_c, 0, 69, 66
2, 20760, Note_on_c, 0, 69, 0
2, 20760, Note_on_c, 0, 68, 65
2, 20795, Note_on_c, 0, 68, 0
2, 20820, Note_on_c, 0, 71, 66
2, 20880, Note_on_c, 0, 71, 0
2, 20880, Note_on_c, 0, 69, 59
2, 20940, Note_on_c, 0, 69, 0
2, 20940, Note_on_c, 0, 68, 63
2, 20975, Note_on_c, 0, 68, 0
2, 21000, Note_on_c, 0, 68, 63
2, 21060, Note_on_c, 0, 68, 0
2, 21060, Note_on_c, 0, 64, 51
2, 21120, Note_on_c, 0, 64, 0
2, 21120, Note_on_c, 0, 68, 49
2, 21155, Note_on_c, 0, 68, 0
2, 21180, Note_on_c, 0, 71, 50
2, 21240, Note_on_c, 0, 71, 0
2, 21240, Note_on_c, 0, 76, 45
2, 21275, Note_on_c, 0, 76, 0
2, 21300, Note_on_c, 0, 80, 43
2, 21360, Note_on_c, 0, 80, 0
2, 21360, Note_on_c, 0, 78, 47
2, 21420, Note_on_c, 0, 78, 0
2, 21420, Note_on_c, 0, 81, 51
2, 21480, Note_on_c, 0, 81, 0
2, 21480, Note_on_c, 0, 80, 55
2, 21515, Note_on_c, 0, 80, 0
2, 21540, Note_on_c, 0, 71, 61
2, 21600, Note_on_c, 0, 71, 0
2, 21600, Note_on_c, 0, 75, 58
2, 21660, Note_on_c, 0, 75, 0
2, 21660, Note_on_c, 0, 76, 56
2, 21695, Note_on_c, 0, 76, 0
2, 21720, Note_on_c, 0, 64, 53
2, 21900, Note_on_c, 0, 64, 0
2, 22260, Note_on_c, 0, 73, 34
2, 22500, Note_on_c, 0, 73, 0
2, 22500, Note_on_c, 0, 76, 31
2, 22560, Note_on_c, 0, 76, 0
2, 22560, Note_on_c, 0, 74, 30
2, 22620, Note_on_c, 0, 74, 0
2, 22620, Note_on_c, 0, 73, 29
2, 22680, Note_on_c, 0, 73, 0
2, 22680, Note_on_c, 0, 71, 28
2, 22740, Note_on_c, 0, 71, 0
2, 22980, Note_on_c, 0, 74, 36
2, 23220, Note_on_c, 0, 74, 0
2, 23220, Note_on_c, 0, 72, 32
2, 23280, Note_on_c, 0, 72, 0
2, 23280, Note_on_c, 0, 73, 31
2, 23340, Note_on_c, 0, 73, 0
2, 23340, Note_on_c, 0, 80, 30
2, 23460, Note_on_c, 0, 80, 0
2, 23700, Note_on_c, 0, 78, 31
2, 23820, Note_on_c, 0, 78, 0
2, 23820, Note_on_c, 0, 73, 31
2, 23880, Note_on_c, 0, 73, 0
2, 23880, Note_on_c, 0, 74, 31
2, 24360, Note_on_c, 0, 74, 0
2, 24360, Note_on_c, 0, 71, 30
2, 24420, Note_on_c, 0, 71, 0
2, 24420, Note_on_c, 0, 76, 30
2, 24540, Note_on_c, 0, 76, 0
2, 24540, Note_on_c, 0, 71, 32
2, 24600, Note_on_c, 0, 71, 0
2, 24600, Note_on_c, 0, 73, 33
2, 24995, Note_on_c, 0, 73, 0
2, 25020, Note_on_c, 0, 74, 38
2, 25080, Note_on_c, 0, 74, 0
2, 25080, Note_on_c, 0, 76, 39
2, 25140, Note_on_c, 0, 76, 0
2, 25140, Note_on_c, 0, 78, 36
2, 25380, Note_on_c, 0, 78, 0
2, 25380, Note_on_c, 0, 76, 37
2, 25440, Note_on_c, 0, 76, 0
2, 25440, Note_on_c, 0, 74, 38
2, 25475, Note_on_c, 0, 74, 0
2, 25500, Note_on_c, 0, 73, 38
2, 25560, Note_on_c, 0, 73, 0
2, 25560, Note_on_c, 0, 71, 39
2, 25590, Note_on_c, 0, 71, 0
2, 25590, Note_on_c, 0, 69, 39
2, 25620, Note_on_c, 0, 69, 0
2, 25620, Note_on_c, 0, 71, 39
2, 25680, Note_on_c, 0, 71, 0
2, 25680, Note_on_c, 0, 69, 39
2, 26100, Note_on_c, 0, 69, 0
2, 26100, Note_on_c, 0, 68, 42
2, 26160, Note_on_c, 0, 68, 0
2, 26160, Note_on_c, 0, 69, 41
2, 26220, Note_on_c, 0, 69, 0
2, 26220, Note_on_c, 0, 71, 40
2, 26340, Note_on_c, 0, 71, 0
2, 26340, Note_on_c, 0, 65, 38
2, 26400, Note_on_c, 0, 65, 0
2, 26400, Note_on_c, 0, 66, 37
2, 26435, Note_on_c, 0, 66, 0
2, 26460, Note_on_c, 0, 71, 35
2, 26520, Note_on_c, 0, 71, 0
2, 26520, Note_on_c, 0, 69, 34
2, 26640, Note_on_c, 0, 69, 0
2, 26640, Note_on_c, 0, 71, 32
2, 26675, Note_on_c, 0, 71, 0
2, 26700, Note_on_c, 0, 68, 31
2, 26760, Note_on_c, 0, 68, 0
2, 26760, Note_on_c, 0, 66, 30
2, 27060, Note_on_c, 0, 66, 0
2, 27060, Note_on_c, 0, 68, 47
2, 27095, Note_on_c, 0, 68, 0
2, 27120, Note_on_c, 0, 69, 43
2, 27180, Note_on_c, 0, 69, 0
2, 27180, Note_on_c, 0, 71, 48
2, 27240, Note_on_c, 0, 71, 0
2, 27240, Note_on_c, 0, 73, 53
2, 27275, Note_on_c, 0, 73, 0
2, 27300, Note_on_c, 0, 71, 50
2, 27360, Note_on_c, 0, 71, 0
2, 27360, Note_on_c, 0, 69, 45
2, 27420, Note_on_c, 0, 69, 0
2, 27420, Note_on_c, 0, 68, 40
2, 27455, Note_on_c, 0, 68, 0
2, 27480, Note_on_c, 0, 69, 40
2, 27540, Note_on_c, 0, 69, 0
2, 27540, Note_on_c, 0, 71, 45
2, 27600, Note_on_c, 0, 71, 0
2, 27600, Note_on_c, 0, 73, 50
2, 27635, Note_on_c, 0, 73, 0
2, 27660, Note_on_c, 0, 71, 54
2, 27720, Note_on_c, 0, 71, 0
2, 27720, Note_on_c, 0, 69, 48
2, 27780, Note_on_c, 0, 69, 0
2, 27780, Note_on_c, 0, 68, 41
2, 27815, Note_on_c, 0, 68, 0
2, 27840, Note_on_c, 0, 69, 42
2, 27900, Note_on_c, 0, 69, 0
2, 27900, Note_on_c, 0, 71, 47
2, 27960, Note_on_c, 0, 71, 0
2, 27960, Note_on_c, 0, 73, 52
2, 27995, Note_on_c, 0, 73, 0
2, 28020, Note_on_c, 0, 72, 48
2, 28035, Note_on_c, 0, 72, 0
2, 28035, Note_on_c, 0, 73, 47
2, 28050, Note_on_c, 0, 73, 0
2, 28050, Note_on_c, 0, 72, 46
2, 28065, Note_on_c, 0, 72, 0
2, 28065, Note_on_c, 0, 73, 45
2, 28080, Note_on_c, 0, 73, 0
2, 28080, Note_on_c, 0, 72, 44
2, 28095, Note_on_c, 0, 72, 0
2, 28095, Note_on_c, 0, 73, 43
2, 28110, Note_on_c, 0, 73, 0
2, 28110, Note_on_c, 0, 72, 42
2, 28125, Note_on_c, 0, 72, 0
2, 28125, Note_on_c, 0, 73, 41
2, 28134, Note_on_c, 0, 73, 0
2, 28140, Note_on_c, 0, 73, 41
2, 28200, Note_on_c, 0, 73, 0
2, 28200, Note_on_c, 0, 73, 37
2, 29555, Note_on_c, 0, 73, 0
2, 29580, Note_on_c, 0, 65, 33
2, 29640, Note_on_c, 0, 65, 0
2, 29640, Note_on_c, 0, 66, 31
2, 29760, Note_on_c, 0, 66, 0
2, 30540, Note_on_c, 0, 73, 38
2, 30600, Note_on_c, 0, 73, 0
2, 30600, Note_on_c, 0, 75, 42
2, 30660, Note_on_c, 0, 75, 0
2, 30660, Note_on_c, 0, 77, 46
2, 30720, Note_on_c, 0, 77, 0
2, 30720, Note_on_c, 0, 78, 51
2, 30755, Note_on_c, 0, 78, 0
2, 30780, Note_on_c, 0, 69, 41
2, 30840, Note_on_c, 0, 69, 0
2, 30840, Note_on_c, 0, 71, 33
2, 30875, Note_on_c, 0, 71, 0
2, 30900, Note_on_c, 0, 68, 38
2, 30960, Note_on_c, 0, 68, 0
2, 30960, Note_on_c, 0, 66, 29
2, 30995, Note_on_c, 0, 66, 0
2, 31020, Note_on_c, 0, 77, 48
2, 31080, Note_on_c, 0, 77, 0
2, 31080, Note_on_c, 0, 78, 41
2, 31115, Note_on_c, 0, 78, 0
2, 31140, Note_on_c, 0, 70, 37
2, 31200, Note_on_c, 0, 70, 0
2, 31200, Note_on_c, 0, 73, 28
2, 31235, Note_on_c, 0, 73, 0
2, 31260, Note_on_c, 0, 67, 36
2, 31320, Note_on_c, 0, 67, 0
2, 31320, Note_on_c, 0, 66, 28
2, 31355, Note_on_c, 0, 66, 0
2, 31380, Note_on_c, 0, 76, 52
2, 31440, Note_on_c, 0, 76, 0
2, 31440, Note_on_c, 0, 74, 46
2, 31740, Note_on_c, 0, 74, 0
2, 31740, Note_on_c, 0, 68, 51
2, 31775, Note_on_c, 0, 68, 0
2, 31800, Note_on_c, 0, 73, 51
2, 32040, Note_on_c, 0, 73, 0
2, 32040, Note_on_c, 0, 71, 48
2, 32100, Note_on_c, 0, 71, 0
2, 32100, Note_on_c, 0, 69, 44
2, 32135, Note_on_c, 0, 69, 0
2, 32160, Note_on_c, 0, 68, 41
2, 32220, Note_on_c, 0, 68, 0
2, 32220, Note_on_c, 0, 69, 30
2, 32255, Note_on_c, 0, 69, 0
2, 32280, Note_on_c, 0, 66, 34
2, 32340, Note_on_c, 0, 66, 0
2, 32340, Note_on_c, 0, 65, 31
2, 32460, Note_on_c, 0, 65, 0
2, 33120, Note_on_c, 0, 78, 39
2, 33180, Note_on_c, 0, 78, 0
2, 33180, Note_on_c, 0, 76, 35
2, 33240, Note_on_c, 0, 76, 0
2, 33240, Note_on_c, 0, 74, 31
2, 33300, Note_on_c, 0, 74, 0
2, 33300, Note_on_c, 0, 73, 27
2, 33335, Note_on_c, 0, 73, 0
2, 34680, Note_on_c, 0, 76, 40
2, 34920, Note_on_c, 0, 76, 0
2, 34920, Note_on_c, 0, 78, 53
2, 34980, Note_on_c, 0, 78, 0
2, 34980, Note_on_c, 0, 80, 56
2, 35040, Note_on_c, 0, 80, 0
2, 35040, Note_on_c, 0, 81, 59
2, 35075, Note_on_c, 0, 81, 0
2, 35100, Note_on_c, 0, 73, 55
2, 35160, Note_on_c, 0, 73, 0
2, 35160, Note_on_c, 0, 74, 45
2, 35195, Note_on_c, 0, 74, 0
2, 35220, Note_on_c, 0, 71, 55
2, 35280, Note_on_c, 0, 71, 0
2, 35280, Note_on_c, 0, 69, 39
2, 35315, Note_on_c, 0, 69, 0
2, 35340, Note_on_c, 0, 80, 66
2, 35400, Note_on_c, 0, 80, 0
2, 35400, Note_on_c, 0, 81, 50
2, 35435, Note_on_c, 0, 81, 0
2, 35460, Note_on_c, 0, 73, 52
2, 35520, Note_on_c, 0, 73, 0
2, 35520, Note_on_c, 0, 74, 44
2, 35555, Note_on_c, 0, 74, 0
2, 35580, Note_on_c, 0, 71, 53
2, 35640, Note_on_c, 0, 71, 0
2, 35640, Note_on_c, 0, 69, 41
2, 35675, Note_on_c, 0, 69, 0
2, 35700, Note_on_c, 0, 79, 60
2, 35760, Note_on_c, 0, 79, 0
2, 35760, Note_on_c, 0, 78, 54
2, 36060, Note_on_c, 0, 78, 0
2, 36060, Note_on_c, 0, 71, 45
2, 36120, Note_on_c, 0, 71, 0
2, 36120, Note_on_c, 0, 76, 43
2, 36420, Note_on_c, 0, 76, 0
2, 36420, Note_on_c, 0, 64, 31
2, 36480, Note_on_c, 0, 64, 0
2, 36480, Note_on_c, 0, 66, 34
2, 36540, Note_on_c, 0, 66, 0
2, 36540, Note_on_c, 0, 68, 37
2, 36600, Note_on_c, 0, 68, 0
2, 36600, Note_on_c, 0, 69, 40
2, 36635, Note_on_c, 0, 69, 0
2, 36660, Note_on_c, 0, 73, 42
2, 36671, Note_on_c, 0, 73, 0
2, 36671, Note_on_c, 0, 74, 43
2, 36684, Note_on_c, 0, 74, 0
2, 36684, Note_on_c, 0, 73, 44
2, 36695, Note_on_c, 0, 73, 0
2, 36695, Note_on_c, 0, 74, 44
2, 36708, Note_on_c, 0, 74, 0
2, 36708, Note_on_c, 0, 73, 45
2, 36720, Note_on_c, 0, 73, 0
2, 36720, Note_on_c, 0, 71, 45
2, 36780, Note_on_c, 0, 71, 0
2, 36780, Note_on_c, 0, 69, 48
2, 36815, Note_on_c, 0, 69, 0
2, 36840, Note_on_c, 0, 69, 51
2, 36900, Note_on_c, 0, 69, 0
2, 36900, Note_on_c, 0, 76, 48
2, 36960, Note_on_c, 0, 76, 0
2, 36960, Note_on_c, 0, 73, 48
2, 36995, Note_on_c, 0, 73, 0
2, 37020, Note_on_c, 0, 69, 48
2, 37080, Note_on_c, 0, 69, 0
2, 37080, Note_on_c, 0, 76, 32
2, 37115, Note_on_c, 0, 76, 0
2, 37140, Note_on_c, 0, 64, 30
2, 37200, Note_on_c, 0, 64, 0
2, 37200, Note_on_c, 0, 66, 34
2, 37260, Note_on_c, 0, 66, 0
2, 37260, Note_on_c, 0, 68, 38
2, 37320, Note_on_c, 0, 68, 0
2, 37320, Note_on_c, 0, 69, 42
2, 37355, Note_on_c, 0, 69, 0
2, 37380, Note_on_c, 0, 73, 46
2, 37391, Note_on_c, 0, 73, 0
2, 37391, Note_on_c, 0, 74, 47
2, 37404, Note_on_c, 0, 74, 0
2, 37404, Note_on_c, 0, 73, 46
2, 37415, Note_on_c, 0, 73, 0
2, 37415, Note_on_c, 0, 74, 45
2, 37428, Note_on_c, 0, 74, 0
2, 37428, Note_on_c, 0, 73, 44
2, 37440, Note_on_c, 0, 73, 0
2, 37440, Note_on_c, 0, 71, 43
2, 37500, Note_on_c, 0, 71, 0
2, 37500, Note_on_c, 0, 69, 38
2, 37535, Note_on_c, 0, 69, 0
2, 37560, Note_on_c, 0, 69, 33
2, 37680, Note_on_c, 0, 69, 0
2, 37740, Note_on_c, 0, 69, 30
2, 37860, Note_on_c, 0, 69, 0
2, 37860, Note_on_c, 0, 71, 31
2, 37920, Note_on_c, 0, 71, 0
2, 37920, Note_on_c, 0, 73, 32
2, 37980, Note_on_c, 0, 73, 0
2, 37980, Note_on_c, 0, 74, 32
2, 38040, Note_on_c, 0, 74, 0
2, 38040, Note_on_c, 0, 76, 33
2, 38075, Note_on_c, 0, 76, 0
2, 38100, Note_on_c, 0, 74, 34
2, 38160, Note_on_c, 0, 74, 0
2, 38160, Note_on_c, 0, 73, 34
2, 38220, Note_on_c, 0, 73, 0
2, 38220, Note_on_c, 0, 71, 35
2, 38255, Note_on_c, 0, 71, 0
2, 38280, Note_on_c, 0, 73, 36
2, 38340, Note_on_c, 0, 73, 0
2, 38340, Note_on_c, 0, 74, 36
2, 38400, Note_on_c, 0, 74, 0
2, 38400, Note_on_c, 0, 76, 37
2, 38435, Note_on_c, 0, 76, 0
2, 38460, Note_on_c, 0, 74, 38
2, 38520, Note_on_c, 0, 74, 0
2, 38520, Note_on_c, 0, 73, 38
2, 38580, Note_on_c, 0, 73, 0
2, 38580, Note_on_c, 0, 71, 39
2, 38615, Note_on_c, 0, 71, 0
2, 38640, Note_on_c, 0, 73, 40
2, 38700, Note_on_c, 0, 73, 0
2, 38700, Note_on_c, 0, 76, 40
2, 38760, Note_on_c, 0, 76, 0
2, 38760, Note_on_c, 0, 81, 41
2, 38795, Note_on_c, 0, 81, 0
2, 38820, Note_on_c, 0, 74, 39
2, 38880, Note_on_c, 0, 74, 0
2, 38880, Note_on_c, 0, 71, 35
2, 38940, Note_on_c, 0, 71, 0
2, 38940, Note_on_c, 0, 73, 31
2, 38975, Note_on_c, 0, 73, 0
2, 39000, Note_on_c, 0, 71, 27
2, 39180, Note_on_c, 0, 71, 0
2, 39540, Note_on_c, 0, 76, 28
2, 39780, Note_on_c, 0, 76, 0
2, 39780, Note_on_c, 0, 78, 30
2, 39840, Note_on_c, 0, 78, 0
2, 39840, Note_on_c, 0, 79, 31
2, 39900, Note_on_c, 0, 79, 0
2, 39900, Note_on_c, 0, 78, 32
2, 40140, Note_on_c, 0, 78, 0
2, 40140, Note_on_c, 0, 79, 35
2, 40200, Note_on_c, 0, 79, 0
2, 40200, Note_on_c, 0, 76, 35
2, 40260, Note_on_c, 0, 76, 0
2, 40260, Note_on_c, 0, 74, 36
2, 40500, Note_on_c, 0, 74, 0
2, 40500, Note_on_c, 0, 76, 39
2, 40560, Note_on_c, 0, 76, 0
2, 40560, Note_on_c, 0, 78, 39
2, 40620, Note_on_c, 0, 78, 0
2, 40620, Note_on_c, 0, 76, 40
2, 40860, Note_on_c, 0, 76, 0
2, 40860, Note_on_c, 0, 78, 43
2, 40920, Note_on_c, 0, 78, 0
2, 40920, Note_on_c, 0, 79, 44
2, 40980, Note_on_c, 0, 79, 0
2, 40980, Note_on_c, 0, 78, 44
2, 41220, Note_on_c, 0, 78, 0
2, 41220, Note_on_c, 0, 74, 43
2, 41280, Note_on_c, 0, 74, 0
2, 41280, Note_on_c, 0, 76, 42
2, 41315, Note_on_c, 0, 76, 0
2, 41340, Note_on_c, 0, 64, 40
2, 41555, Note_on_c, 0, 64, 0
2, 41580, Note_on_c, 0, 73, 35
2, 41640, Note_on_c, 0, 73, 0
2, 41640, Note_on_c, 0, 74, 34
2, 41675, Note_on_c, 0, 74, 0
2, 41700, Note_on_c, 0, 69, 33
2, 41760, Note_on_c, 0, 69, 0
2, 41760, Note_on_c, 0, 68, 31
2, 41795, Note_on_c, 0, 68, 0
2, 41940, Note_on_c, 0, 76, 37
2, 42000, Note_on_c, 0, 76, 0
2, 42000, Note_on_c, 0, 78, 30
2, 42035, Note_on_c, 0, 78, 0
2, 42060, Note_on_c, 0, 80, 41
2, 42120, Note_on_c, 0, 80, 0
2, 42120, Note_on_c, 0, 81, 32
2, 42155, Note_on_c, 0, 81, 0
2, 42180, Note_on_c, 0, 74, 42
2, 42240, Note_on_c, 0, 74, 0
2, 42240, Note_on_c, 0, 73, 32
2, 42275, Note_on_c, 0, 73, 0
2, 42300, Note_on_c, 0, 76, 46
2, 42360, Note_on_c, 0, 76, 0
2, 42360, Note_on_c, 0, 78, 34
2, 42395, Note_on_c, 0, 78, 0
2, 42420, Note_on_c, 0, 80, 41
2, 42480, Note_on_c, 0, 80, 0
2, 42480, Note_on_c, 0, 81, 29
2, 42515, Note_on_c, 0, 81, 0
2, 42720, Note_on_c, 0, 70, 38
2, 42780, Note_on_c, 0, 70, 0
2, 42780, Note_on_c, 0, 71, 39
2, 43020, Note_on_c, 0, 71, 0
2, 43020, Note_on_c, 0, 64, 44
2, 43080, Note_on_c, 0, 64, 0
2, 43080, Note_on_c, 0, 67, 45
2, 43140, Note_on_c, 0, 67, 0
2, 43140, Note_on_c, 0, 66, 45
2, 43440, Note_on_c, 0, 66, 0
2, 43440, Note_on_c, 0, 71, 47
2, 43500, Note_on_c, 0, 71, 0
2, 43500, Note_on_c, 0, 65, 48
2, 43560, Note_on_c, 0, 65, 0
2, 43560, Note_on_c, 0, 68, 48
2, 43620, Note_on_c, 0, 68, 0
2, 43620, Note_on_c, 0, 66, 49
2, 43655, Note_on_c, 0, 66, 0
2, 43680, Note_on_c, 0, 68, 50
2, 43740, Note_on_c, 0, 68, 0
2, 43740, Note_on_c, 0, 69, 50
2, 43770, Note_on_c, 0, 69, 0
2, 43770, Note_on_c, 0, 68, 50
2, 43800, Note_on_c, 0, 68, 0
2, 43800, Note_on_c, 0, 66, 51
2, 43830, Note_on_c, 0, 66, 0
2, 43830, Note_on_c, 0, 65, 51
2, 43860, Note_on_c, 0, 65, 0
2, 43860, Note_on_c, 0, 69, 51
2, 43920, Note_on_c, 0, 69, 0
2, 43920, Note_on_c, 0, 68, 51
2, 43980, Note_on_c, 0, 68, 0
2, 43980, Note_on_c, 0, 66, 52
2, 44040, Note_on_c, 0, 66, 0
2, 44040, Note_on_c, 0, 78, 52
2, 44280, Note_on_c, 0, 78, 0
2, 44280, Note_on_c, 0, 76, 42
2, 44340, Note_on_c, 0, 76, 0
2, 44340, Note_on_c, 0, 74, 41
2, 44400, Note_on_c, 0, 74, 0
2, 44400, Note_on_c, 0, 73, 40
2, 44640, Note_on_c, 0, 73, 0
2, 44640, Note_on_c, 0, 71, 37
2, 44700, Note_on_c, 0, 71, 0
2, 44700, Note_on_c, 0, 69, 36
2, 44760, Note_on_c, 0, 69, 0
2, 44760, Note_on_c, 0, 76, 44
2, 44970, Note_on_c, 0, 76, 0
2, 44970, Note_on_c, 0, 74, 35
2, 45000, Note_on_c, 0, 74, 0
2, 45000, Note_on_c, 0, 73, 34
2, 45030, Note_on_c, 0, 73, 0
2, 45030, Note_on_c, 0, 71, 32
2, 45060, Note_on_c, 0, 71, 0
2, 45060, Note_on_c, 0, 69, 31
2, 45090, Note_on_c, 0, 69, 0
2, 45090, Note_on_c, 0, 68, 30
2, 45120, Note_on_c, 0, 68, 0
2, 45120, Note_on_c, 0, 66, 28
2, 45180, Note_on_c, 0, 66, 0
2, 45180, Note_on_c, 0, 68, 33
2, 45240, Note_on_c, 0, 68, 0
2, 45240, Note_on_c, 0, 69, 39
2, 45275, Note_on_c, 0, 69, 0
2, 45300, Note_on_c, 0, 73, 42
2, 45360, Note_on_c, 0, 73, 0
2, 45360, Note_on_c, 0, 71, 42
2, 45420, Note_on_c, 0, 71, 0
2, 45420, Note_on_c, 0, 69, 42
2, 45455, Note_on_c, 0, 69, 0
2, 45480, Note_on_c, 0, 69, 42
2, 45540, Note_on_c, 0, 69, 0
2, 45540, Note_on_c, 0, 76, 42
2, 45600, Note_on_c, 0, 76, 0
2, 45600, Note_on_c, 0, 73, 42
2, 45635, Note_on_c, 0, 73, 0
2, 45660, Note_on_c, 0, 69, 40
2, 45720, Note_on_c, 0, 69, 0
2, 45720, Note_on_c, 0, 76, 32
2, 45755, Note_on_c, 0, 76, 0
2, 45780, Note_on_c, 0, 64, 27
2, 45840, Note_on_c, 0, 64, 0
2, 45840, Note_on_c, 0, 66, 32
2, 45900, Note_on_c, 0, 66, 0
2, 45900, Note_on_c, 0, 68, 37
2, 45960, Note_on_c, 0, 68, 0
2, 45960, Note_on_c, 0, 69, 42
2, 45995, Note_on_c, 0, 69, 0
2, 46020, Note_on_c, 0, 73, 40
2, 46080, Note_on_c, 0, 73, 0
2, 46080, Note_on_c, 0, 71, 39
2, 46140, Note_on_c, 0, 71, 0
2, 46140, Note_on_c, 0, 69, 38
2, 46175, Note_on_c, 0, 69, 0
2, 46200, Note_on_c, 0, 69, 37
2, 46320, Note_on_c, 0, 69, 0
2, 47460, Note_on_c, 0, 69, 45
2, 47580, Note_on_c, 0, 69, 0
2, 47580, Note_on_c, 0, 71, 59
2, 47615, Note_on_c, 0, 71, 0
2, 47640, Note_on_c, 0, 73, 66
2, 47700, Note_on_c, 0, 73, 0
2, 47700, Note_on_c, 0, 74, 65
2, 47760, Note_on_c, 0, 74, 0
2, 47760, Note_on_c, 0, 76, 70
2, 47795, Note_on_c, 0, 76, 0
2, 47820, Note_on_c, 0, 74, 70
2, 47880, Note_on_c, 0, 74, 0
2, 47880, Note_on_c, 0, 73, 64
2, 47940, Note_on_c, 0, 73, 0
2, 47940, Note_on_c, 0, 71, 58
2, 47975, Note_on_c, 0, 71, 0
2, 48000, Note_on_c, 0, 73, 52
2, 48060, Note_on_c, 0, 73, 0
2, 48060, Note_on_c, 0, 74, 54
2, 48120, Note_on_c, 0, 74, 0
2, 48120, Note_on_c, 0, 76, 62
2, 48155, Note_on_c, 0, 76, 0
2, 48180, Note_on_c, 0, 74, 62
2, 48240, Note_on_c, 0, 74, 0
2, 48240, Note_on_c, 0, 73, 59
2, 48300, Note_on_c, 0, 73, 0
2, 48300, Note_on_c, 0, 71, 57
2, 48335, Note_on_c, 0, 71, 0
2, 48360, Note_on_c, 0, 73, 55
2, 48420, Note_on_c, 0, 73, 0
2, 48420, Note_on_c, 0, 76, 62
2, 48455, Note_on_c, 0, 76, 0
2, 48480, Note_on_c, 0, 81, 70
2, 48515, Note_on_c, 0, 81, 0
2, 48540, Note_on_c, 0, 74, 72
2, 48600, Note_on_c, 0, 74, 0
2, 48600, Note_on_c, 0, 73, 72
2, 48630, Note_on_c, 0, 73, 0
2, 48630, Note_on_c, 0, 71, 72
2, 48660, Note_on_c, 0, 71, 0
2, 48660, Note_on_c, 0, 73, 72
2, 48695, Note_on_c, 0, 73, 0
2, 48720, Note_on_c, 0, 71, 72
2, 48900, Note_on_c, 0, 71, 0
2, 49140, Note_on_c, 0, 76, 47
2, 49200, Note_on_c, 0, 76, 0
2, 49200, Note_on_c, 0, 78, 36
2, 49235, Note_on_c, 0, 78, 0
2, 49260, Note_on_c, 0, 80, 47
2, 49320, Note_on_c, 0, 80, 0
2, 49320, Note_on_c, 0, 81, 37
2, 49355, Note_on_c, 0, 81, 0
2, 49380, Note_on_c, 0, 74, 71
2, 49440, Note_on_c, 0, 74, 0
2, 49440, Note_on_c, 0, 73, 57
2, 49475, Note_on_c, 0, 73, 0
2, 49500, Note_on_c, 0, 76, 46
2, 49560, Note_on_c, 0, 76, 0
2, 49560, Note_on_c, 0, 78, 38
2, 49595, Note_on_c, 0, 78, 0
2, 49620, Note_on_c, 0, 80, 49
2, 49680, Note_on_c, 0, 80, 0
2, 49680, Note_on_c, 0, 81, 40
2, 49715, Note_on_c, 0, 81, 0
2, 49920, Note_on_c, 0, 69, 69
2, 49980, Note_on_c, 0, 69, 0
2, 49980, Note_on_c, 0, 74, 70
2, 50280, Note_on_c, 0, 74, 0
2, 50280, Note_on_c, 0, 68, 75
2, 50340, Note_on_c, 0, 68, 0
2, 50340, Note_on_c, 0, 73, 76
2, 50435, Note_on_c, 0, 73, 0
2, 50460, Note_on_c, 0, 64, 39
2, 50520, Note_on_c, 0, 64, 0
2, 50520, Note_on_c, 0, 66, 43
2, 50580, Note_on_c, 0, 66, 0
2, 50580, Note_on_c, 0, 68, 47
2, 50640, Note_on_c, 0, 68, 0
2, 50640, Note_on_c, 0, 69, 51
2, 50675, Note_on_c, 0, 69, 0
2, 50700, Note_on_c, 0, 73, 55
2, 50711, Note_on_c, 0, 73, 0
2, 50711, Note_on_c, 0, 74, 56
2, 50724, Note_on_c, 0, 74, 0
2, 50724, Note_on_c, 0, 73, 56
2, 50735, Note_on_c, 0, 73, 0
2, 50735, Note_on_c, 0, 74, 57
2, 50748, Note_on_c, 0, 74, 0
2, 50748, Note_on_c, 0, 73, 57
2, 50760, Note_on_c, 0, 73, 0
2, 50760, Note_on_c, 0, 71, 58
2, 50820, Note_on_c, 0, 71, 0
2, 50820, Note_on_c, 0, 69, 60
2, 50855, Note_on_c, 0, 69, 0
2, 50880, Note_on_c, 0, 69, 62
2, 50940, Note_on_c, 0, 69, 0
2, 50940, Note_on_c, 0, 76, 65
2, 51000, Note_on_c, 0, 76, 0
2, 51000, Note_on_c, 0, 73, 67
2, 51035, Note_on_c, 0, 73, 0
2, 51060, Note_on_c, 0, 69, 69
2, 51120, Note_on_c, 0, 69, 0
2, 51120, Note_on_c, 0, 76, 53
2, 51155, Note_on_c, 0, 76, 0
2, 51180, Note_on_c, 0, 64, 37
2, 51240, Note_on_c, 0, 64, 0
2, 51240, Note_on_c, 0, 66, 43
2, 51300, Note_on_c, 0, 66, 0
2, 51300, Note_on_c, 0, 68, 49
2, 51360, Note_on_c, 0, 68, 0
2, 51360, Note_on_c, 0, 69, 54
2, 51395, Note_on_c, 0, 69, 0
2, 51420, Note_on_c, 0, 73, 61
2, 51431, Note_on_c, 0, 73, 0
2, 51431, Note_on_c, 0, 74, 61
2, 51444, Note_on_c, 0, 74, 0
2, 51444, Note_on_c, 0, 73, 60
2, 51455, Note_on_c, 0, 73, 0
2, 51455, Note_on_c, 0, 74, 60
2, 51468, Note_on_c, 0, 74, 0
2, 51468, Note_on_c, 0, 73, 59
2, 51480, Note_on_c, 0, 73, 0
2, 51480, Note_on_c, 0, 71, 59
2, 51540, Note_on_c, 0, 71, 0
2, 51540, Note_on_c, 0, 69, 57
2, 51575, Note_on_c, 0, 69, 0
2, 51600, Note_on_c, 0, 69, 54
2, 51780, Note_on_c, 0, 69, 0
2, 51960, Control_c, 0, 121, 127
2, 51960, End_track
3, 0, Start_track
3, 0, MIDI_port, 0
3, 0, Title_t, "Oboe d'amore II"
3, 0, Program_c, 1, 68
3, 0, Control_c, 1, 10, 40
3, 0, Control_c, 1, 121, 127
3, 0, Control_c, 1, 91, 127
3, 0, Control_c, 1, 1, 10
3, 300, Note_on_c, 1, 64, 40
3, 420, Note_on_c, 1, 64, 0
3, 420, Note_on_c, 1, 68, 46
3, 455, Note_on_c, 1, 68, 0
3, 480, Note_on_c, 1, 69, 49
3, 540, Note_on_c, 1, 69, 0
3, 540, Note_on_c, 1, 71, 49
3, 600, Note_on_c, 1, 71, 0
3, 600, Note_on_c, 1, 73, 52
3, 635, Note_on_c, 1, 73, 0
3, 660, Note_on_c, 1, 71, 56
3, 720, Note_on_c, 1, 71, 0
3, 720, Note_on_c, 1, 69, 52
3, 780, Note_on_c, 1, 69, 0
3, 780, Note_on_c, 1, 68, 45
3, 815, Note_on_c, 1, 68, 0
3, 840, Note_on_c, 1, 69, 39
3, 900, Note_on_c, 1, 69, 0
3, 900, Note_on_c, 1, 71, 44
3, 960, Note_on_c, 1, 71, 0
3, 960, Note_on_c, 1, 73, 49
3, 995, Note_on_c, 1, 73, 0
3, 1020, Note_on_c, 1, 71, 54
3, 1080, Note_on_c, 1, 71, 0
3, 1080, Note_on_c, 1, 69, 51
3, 1140, Note_on_c, 1, 69, 0
3, 1140, Note_on_c, 1, 68, 44
3, 1175, Note_on_c, 1, 68, 0
3, 1200, Note_on_c, 1, 69, 46
3, 1260, Note_on_c, 1, 69, 0
3, 1260, Note_on_c, 1, 73, 54
3, 1295, Note_on_c, 1, 73, 0
3, 1320, Note_on_c, 1, 64, 61
3, 1355, Note_on_c, 1, 64, 0
3, 1380, Note_on_c, 1, 68, 58
3, 1500, Note_on_c, 1, 68, 0
3, 1500, Note_on_c, 1, 69, 54
3, 1535, Note_on_c, 1, 69, 0
3, 1560, Note_on_c, 1, 68, 52
3, 1955, Note_on_c, 1, 68, 0
3, 1980, Note_on_c, 1, 71, 55
3, 2040, Note_on_c, 1, 71, 0
3, 2040, Note_on_c, 1, 73, 39
3, 2075, Note_on_c, 1, 73, 0
3, 2100, Note_on_c, 1, 75, 50
3, 2160, Note_on_c, 1, 75, 0
3, 2160, Note_on_c, 1, 76, 43
3, 2195, Note_on_c, 1, 76, 0
3, 2220, Note_on_c, 1, 69, 61
3, 2280, Note_on_c, 1, 69, 0
3, 2280, Note_on_c, 1, 68, 53
3, 2315, Note_on_c, 1, 68, 0
3, 2340, Note_on_c, 1, 71, 47
3, 2400, Note_on_c, 1, 71, 0
3, 2400, Note_on_c, 1, 73, 41
3, 2435, Note_on_c, 1, 73, 0
3, 2460, Note_on_c, 1, 75, 42
3, 2520, Note_on_c, 1, 75, 0
3, 2520, Note_on_c, 1, 76, 33
3, 2555, Note_on_c, 1, 76, 0
3, 2760, Note_on_c, 1, 64, 43
3, 2820, Note_on_c, 1, 64, 0
3, 2820, Note_on_c, 1, 69, 43
3, 3120, Note_on_c, 1, 69, 0
3, 3120, Note_on_c, 1, 63, 46
3, 3180, Note_on_c, 1, 63, 0
3, 3180, Note_on_c, 1, 68, 46
3, 3300, Note_on_c, 1, 68, 0
3, 3300, Note_on_c, 1, 59, 47
3, 3360, Note_on_c, 1, 59, 0
3, 3360, Note_on_c, 1, 61, 31
3, 3420, Note_on_c, 1, 61, 0
3, 3420, Note_on_c, 1, 63, 33
3, 3480, Note_on_c, 1, 63, 0
3, 3480, Note_on_c, 1, 64, 36
3, 3515, Note_on_c, 1, 64, 0
3, 3540, Note_on_c, 1, 68, 38
3, 3551, Note_on_c, 1, 68, 0
3, 3551, Note_on_c, 1, 69, 38
3, 3564, Note_on_c, 1, 69, 0
3, 3564, Note_on_c, 1, 68, 39
3, 3575, Note_on_c, 1, 68, 0
3, 3575, Note_on_c, 1, 69, 39
3, 3588, Note_on_c, 1, 69, 0
3, 3588, Note_on_c, 1, 68, 40
3, 3600, Note_on_c, 1, 68, 0
3, 3600, Note_on_c, 1, 66, 40
3, 3660, Note_on_c, 1, 66, 0
3, 3660, Note_on_c, 1, 64, 43
3, 3695, Note_on_c, 1, 64, 0
3, 3720, Note_on_c, 1, 64, 45
3, 3780, Note_on_c, 1, 64, 0
3, 3780, Note_on_c, 1, 71, 44
3, 3840, Note_on_c, 1, 71, 0
3, 3840, Note_on_c, 1, 68, 45
3, 3875, Note_on_c, 1, 68, 0
3, 3900, Note_on_c, 1, 64, 45
3, 3960, Note_on_c, 1, 64, 0
3, 3960, Note_on_c, 1, 71, 30
3, 3995, Note_on_c, 1, 71, 0
3, 4020, Note_on_c, 1, 59, 47
3, 4080, Note_on_c, 1, 59, 0
3, 4080, Note_on_c, 1, 61, 47
3, 4140, Note_on_c, 1, 61, 0
3, 4140, Note_on_c, 1, 63, 48
3, 4200, Note_on_c, 1, 63, 0
3, 4200, Note_on_c, 1, 64, 49
3, 4235, Note_on_c, 1, 64, 0
3, 4260, Note_on_c, 1, 68, 49
3, 4271, Note_on_c, 1, 68, 0
3, 4271, Note_on_c, 1, 69, 49
3, 4284, Note_on_c, 1, 69, 0
3, 4284, Note_on_c, 1, 68, 50
3, 4295, Note_on_c, 1, 68, 0
3, 4295, Note_on_c, 1, 69, 50
3, 4308, Note_on_c, 1, 69, 0
3, 4308, Note_on_c, 1, 68, 50
3, 4320, Note_on_c, 1, 68, 0
3, 4320, Note_on_c, 1, 66, 50
3, 4380, Note_on_c, 1, 66, 0
3, 4380, Note_on_c, 1, 64, 51
3, 4415, Note_on_c, 1, 64, 0
3, 4440, Note_on_c, 1, 64, 51
3, 4620, Note_on_c, 1, 64, 0
3, 6060, Note_on_c, 1, 64, 42
3, 6275, Note_on_c, 1, 64, 0
3, 6300, Note_on_c, 1, 64, 35
3, 6360, Note_on_c, 1, 64, 0
3, 6360, Note_on_c, 1, 66, 29
3, 6395, Note_on_c, 1, 66, 0
3, 6420, Note_on_c, 1, 68, 35
3, 6480, Note_on_c, 1, 68, 0
3, 6480, Note_on_c, 1, 69, 28
3, 6515, Note_on_c, 1, 69, 0
3, 6540, Note_on_c, 1, 62, 48
3, 6600, Note_on_c, 1, 62, 0
3, 6600, Note_on_c, 1, 61, 39
3, 6635, Note_on_c, 1, 61, 0
3, 6660, Note_on_c, 1, 64, 38
3, 6720, Note_on_c, 1, 64, 0
3, 6720, Note_on_c, 1, 66, 28
3, 6755, Note_on_c, 1, 66, 0
3, 6780, Note_on_c, 1, 68, 38
3, 6840, Note_on_c, 1, 68, 0
3, 6840, Note_on_c, 1, 69, 28
3, 6875, Note_on_c, 1, 69, 0
3, 7080, Note_on_c, 1, 69, 38
3, 7140, Note_on_c, 1, 69, 0
3, 7140, Note_on_c, 1, 74, 38
3, 7440, Note_on_c, 1, 74, 0
3, 7440, Note_on_c, 1, 68, 37
3, 7500, Note_on_c, 1, 68, 0
3, 7500, Note_on_c, 1, 73, 37
3, 7620, Note_on_c, 1, 73, 0
3, 7620, Note_on_c, 1, 64, 37
3, 7680, Note_on_c, 1, 64, 0
3, 7680, Note_on_c, 1, 66, 30
3, 7740, Note_on_c, 1, 66, 0
3, 7740, Note_on_c, 1, 68, 32
3, 7800, Note_on_c, 1, 68, 0
3, 7800, Note_on_c, 1, 69, 35
3, 7835, Note_on_c, 1, 69, 0
3, 7860, Note_on_c, 1, 73, 37
3, 7871, Note_on_c, 1, 73, 0
3, 7871, Note_on_c, 1, 74, 37
3, 7884, Note_on_c, 1, 74, 0
3, 7884, Note_on_c, 1, 73, 38
3, 7895, Note_on_c, 1, 73, 0
3, 7895, Note_on_c, 1, 74, 38
3, 7908, Note_on_c, 1, 74, 0
3, 7908, Note_on_c, 1, 73, 39
3, 7920, Note_on_c, 1, 73, 0
3, 7920, Note_on_c, 1, 71, 39
3, 7980, Note_on_c, 1, 71, 0
3, 7980, Note_on_c, 1, 69, 42
3, 8015, Note_on_c, 1, 69, 0
3, 8040, Note_on_c, 1, 69, 44
3, 8100, Note_on_c, 1, 69, 0
3, 8100, Note_on_c, 1, 76, 46
3, 8160, Note_on_c, 1, 76, 0
3, 8160, Note_on_c, 1, 73, 47
3, 8195, Note_on_c, 1, 73, 0
3, 8220, Note_on_c, 1, 69, 47
3, 8280, Note_on_c, 1, 69, 0
3, 8280, Note_on_c, 1, 76, 33
3, 8315, Note_on_c, 1, 76, 0
3, 8340, Note_on_c, 1, 64, 31
3, 8400, Note_on_c, 1, 64, 0
3, 8400, Note_on_c, 1, 66, 35
3, 8460, Note_on_c, 1, 66, 0
3, 8460, Note_on_c, 1, 68, 39
3, 8520, Note_on_c, 1, 68, 0
3, 8520, Note_on_c, 1, 69, 43
3, 8555, Note_on_c, 1, 69, 0
3, 8580, Note_on_c, 1, 73, 48
3, 8591, Note_on_c, 1, 73, 0
3, 8591, Note_on_c, 1, 74, 48
3, 8604, Note_on_c, 1, 74, 0
3, 8604, Note_on_c, 1, 73, 48
3, 8615, Note_on_c, 1, 73, 0
3, 8615, Note_on_c, 1, 74, 48
3, 8628, Note_on_c, 1, 74, 0
3, 8628, Note_on_c, 1, 73, 48
3, 8640, Note_on_c, 1, 73, 0
3, 8640, Note_on_c, 1, 71, 48
3, 8700, Note_on_c, 1, 71, 0
3, 8700, Note_on_c, 1, 69, 47
3, 8735, Note_on_c, 1, 69, 0
3, 8760, Note_on_c, 1, 69, 47
3, 8880, Note_on_c, 1, 69, 0
3, 8940, Note_on_c, 1, 64, 31
3, 9240, Note_on_c, 1, 64, 0
3, 9240, Note_on_c, 1, 69, 38
3, 9275, Note_on_c, 1, 69, 0
3, 9300, Note_on_c, 1, 66, 39
3, 9420, Note_on_c, 1, 66, 0
3, 9420, Note_on_c, 1, 71, 33
3, 9455, Note_on_c, 1, 71, 0
3, 9480, Note_on_c, 1, 69, 24
3, 9540, Note_on_c, 1, 69, 0
3, 9540, Note_on_c, 1, 71, 29
3, 9600, Note_on_c, 1, 71, 0
3, 9600, Note_on_c, 1, 73, 35
3, 9635, Note_on_c, 1, 73, 0
3, 9660, Note_on_c, 1, 71, 40
3, 9720, Note_on_c, 1, 71, 0
3, 9720, Note_on_c, 1, 73, 37
3, 9780, Note_on_c, 1, 73, 0
3, 9780, Note_on_c, 1, 74, 32
3, 9815, Note_on_c, 1, 74, 0
3, 9840, Note_on_c, 1, 73, 36
3, 9900, Note_on_c, 1, 73, 0
3, 9900, Note_on_c, 1, 74, 42
3, 9960, Note_on_c, 1, 74, 0
3, 9960, Note_on_c, 1, 76, 48
3, 9995, Note_on_c, 1, 76, 0
3, 10020, Note_on_c, 1, 68, 46
3, 10080, Note_on_c, 1, 68, 0
3, 10080, Note_on_c, 1, 71, 42
3, 10140, Note_on_c, 1, 71, 0
3, 10140, Note_on_c, 1, 64, 41
3, 10175, Note_on_c, 1, 64, 0
3, 10200, Note_on_c, 1, 68, 40
3, 10380, Note_on_c, 1, 68, 0
3, 10920, Note_on_c, 1, 73, 29
3, 11160, Note_on_c, 1, 73, 0
3, 11160, Note_on_c, 1, 74, 30
3, 11220, Note_on_c, 1, 74, 0
3, 11220, Note_on_c, 1, 76, 30
3, 11280, Note_on_c, 1, 76, 0
3, 11280, Note_on_c, 1, 74, 30
3, 11520, Note_on_c, 1, 74, 0
3, 11520, Note_on_c, 1, 76, 31
3, 11580, Note_on_c, 1, 76, 0
3, 11580, Note_on_c, 1, 73, 32
3, 11640, Note_on_c, 1, 73, 0
3, 11640, Note_on_c, 1, 71, 32
3, 11880, Note_on_c, 1, 71, 0
3, 11880, Note_on_c, 1, 73, 33
3, 11940, Note_on_c, 1, 73, 0
3, 11940, Note_on_c, 1, 74, 33
3, 12000, Note_on_c, 1, 74, 0
3, 12000, Note_on_c, 1, 73, 34
3, 12240, Note_on_c, 1, 73, 0
3, 12240, Note_on_c, 1, 74, 35
3, 12300, Note_on_c, 1, 74, 0
3, 12300, Note_on_c, 1, 71, 35
3, 12335, Note_on_c, 1, 71, 0
3, 12360, Note_on_c, 1, 69, 35
3, 12420, Note_on_c, 1, 69, 0
3, 12420, Note_on_c, 1, 71, 38
3, 12480, Note_on_c, 1, 71, 0
3, 12480, Note_on_c, 1, 73, 42
3, 12515, Note_on_c, 1, 73, 0
3, 12540, Note_on_c, 1, 71, 45
3, 12755, Note_on_c, 1, 71, 0
3, 12780, Note_on_c, 1, 68, 36
3, 12840, Note_on_c, 1, 68, 0
3, 12840, Note_on_c, 1, 69, 30
3, 12875, Note_on_c, 1, 69, 0
3, 12900, Note_on_c, 1, 63, 35
3, 13020, Note_on_c, 1, 63, 0
3, 13140, Note_on_c, 1, 71, 38
3, 13200, Note_on_c, 1, 71, 0
3, 13200, Note_on_c, 1, 73, 30
3, 13235, Note_on_c, 1, 73, 0
3, 13260, Note_on_c, 1, 75, 39
3, 13320, Note_on_c, 1, 75, 0
3, 13320, Note_on_c, 1, 76, 32
3, 13355, Note_on_c, 1, 76, 0
3, 13380, Note_on_c, 1, 69, 52
3, 13440, Note_on_c, 1, 69, 0
3, 13440, Note_on_c, 1, 68, 43
3, 13475, Note_on_c, 1, 68, 0
3, 13500, Note_on_c, 1, 71, 39
3, 13560, Note_on_c, 1, 71, 0
3, 13560, Note_on_c, 1, 73, 31
3, 13595, Note_on_c, 1, 73, 0
3, 13620, Note_on_c, 1, 75, 34
3, 13680, Note_on_c, 1, 75, 0
3, 13680, Note_on_c, 1, 76, 28
3, 13715, Note_on_c, 1, 76, 0
3, 13920, Note_on_c, 1, 64, 30
3, 13980, Note_on_c, 1, 64, 0
3, 13980, Note_on_c, 1, 66, 31
3, 14220, Note_on_c, 1, 66, 0
3, 14220, Note_on_c, 1, 69, 34
3, 14280, Note_on_c, 1, 69, 0
3, 14280, Note_on_c, 1, 63, 34
3, 14340, Note_on_c, 1, 63, 0
3, 14340, Note_on_c, 1, 64, 35
3, 14580, Note_on_c, 1, 64, 0
3, 14580, Note_on_c, 1, 69, 38
3, 14640, Note_on_c, 1, 69, 0
3, 14640, Note_on_c, 1, 66, 39
3, 14700, Note_on_c, 1, 66, 0
3, 14700, Note_on_c, 1, 60, 40
3, 14760, Note_on_c, 1, 60, 0
3, 14760, Note_on_c, 1, 63, 40
3, 14820, Note_on_c, 1, 63, 0
3, 14820, Note_on_c, 1, 61, 33
3, 14880, Note_on_c, 1, 61, 0
3, 14880, Note_on_c, 1, 63, 25
3, 15120, Note_on_c, 1, 63, 0
3, 15120, Note_on_c, 1, 69, 30
3, 15180, Note_on_c, 1, 69, 0
3, 15180, Note_on_c, 1, 68, 31
3, 15240, Note_on_c, 1, 68, 0
3, 15240, Note_on_c, 1, 66, 32
3, 15480, Note_on_c, 1, 66, 0
3, 15480, Note_on_c, 1, 71, 37
3, 15540, Note_on_c, 1, 71, 0
3, 15540, Note_on_c, 1, 69, 39
3, 15600, Note_on_c, 1, 69, 0
3, 15600, Note_on_c, 1, 68, 40
3, 15840, Note_on_c, 1, 68, 0
3, 15840, Note_on_c, 1, 66, 45
3, 15900, Note_on_c, 1, 66, 0
3, 15900, Note_on_c, 1, 64, 46
3, 15960, Note_on_c, 1, 64, 0
3, 15960, Note_on_c, 1, 71, 47
3, 16140, Note_on_c, 1, 71, 0
3, 16260, Note_on_c, 1, 59, 28
3, 16320, Note_on_c, 1, 59, 0
3, 16320, Note_on_c, 1, 61, 32
3, 16380, Note_on_c, 1, 61, 0
3, 16380, Note_on_c, 1, 63, 35
3, 16440, Note_on_c, 1, 63, 0
3, 16440, Note_on_c, 1, 64, 39
3, 16475, Note_on_c, 1, 64, 0
3, 16500, Note_on_c, 1, 68, 42
3, 16511, Note_on_c, 1, 68, 0
3, 16511, Note_on_c, 1, 69, 43
3, 16524, Note_on_c, 1, 69, 0
3, 16524, Note_on_c, 1, 68, 43
3, 16535, Note_on_c, 1, 68, 0
3, 16535, Note_on_c, 1, 69, 42
3, 16548, Note_on_c, 1, 69, 0
3, 16548, Note_on_c, 1, 68, 42
3, 16560, Note_on_c, 1, 68, 0
3, 16560, Note_on_c, 1, 66, 41
3, 16620, Note_on_c, 1, 66, 0
3, 16620, Note_on_c, 1, 64, 39
3, 16655, Note_on_c, 1, 64, 0
3, 16680, Note_on_c, 1, 64, 36
3, 16740, Note_on_c, 1, 64, 0
3, 16740, Note_on_c, 1, 71, 34
3, 16800, Note_on_c, 1, 71, 0
3, 16800, Note_on_c, 1, 68, 32
3, 16860, Note_on_c, 1, 68, 0
3, 16860, Note_on_c, 1, 64, 29
3, 16920, Note_on_c, 1, 64, 0
3, 16920, Note_on_c, 1, 71, 27
3, 16955, Note_on_c, 1, 71, 0
3, 16980, Note_on_c, 1, 59, 28
3, 17040, Note_on_c, 1, 59, 0
3, 17040, Note_on_c, 1, 61, 32
3, 17100, Note_on_c, 1, 61, 0
3, 17100, Note_on_c, 1, 63, 35
3, 17160, Note_on_c, 1, 63, 0
3, 17160, Note_on_c, 1, 64, 39
3, 17195, Note_on_c, 1, 64, 0
3, 17220, Note_on_c, 1, 68, 43
3, 17231, Note_on_c, 1, 68, 0
3, 17231, Note_on_c, 1, 69, 43
3, 17244, Note_on_c, 1, 69, 0
3, 17244, Note_on_c, 1, 68, 42
3, 17255, Note_on_c, 1, 68, 0
3, 17255, Note_on_c, 1, 69, 42
3, 17268, Note_on_c, 1, 69, 0
3, 17268, Note_on_c, 1, 68, 41
3, 17280, Note_on_c, 1, 68, 0
3, 17280, Note_on_c, 1, 66, 41
3, 17340, Note_on_c, 1, 66, 0
3, 17340, Note_on_c, 1, 64, 38
3, 17375, Note_on_c, 1, 64, 0
3, 17400, Note_on_c, 1, 64, 35
3, 17520, Note_on_c, 1, 64, 0
3, 17520, Note_on_c, 1, 68, 51
3, 17555, Note_on_c, 1, 68, 0
3, 17580, Note_on_c, 1, 71, 56
3, 17640, Note_on_c, 1, 71, 0
3, 17640, Note_on_c, 1, 64, 54
3, 17700, Note_on_c, 1, 64, 0
3, 17700, Note_on_c, 1, 66, 52
3, 17735, Note_on_c, 1, 66, 0
3, 17760, Note_on_c, 1, 68, 49
3, 17820, Note_on_c, 1, 68, 0
3, 17820, Note_on_c, 1, 69, 51
3, 17880, Note_on_c, 1, 69, 0
3, 17880, Note_on_c, 1, 71, 56
3, 17915, Note_on_c, 1, 71, 0
3, 17940, Note_on_c, 1, 69, 56
3, 18000, Note_on_c, 1, 69, 0
3, 18000, Note_on_c, 1, 68, 52
3, 18060, Note_on_c, 1, 68, 0
3, 18060, Note_on_c, 1, 66, 48
3, 18095, Note_on_c, 1, 66, 0
3, 18120, Note_on_c, 1, 68, 44
3, 18180, Note_on_c, 1, 68, 0
3, 18180, Note_on_c, 1, 69, 49
3, 18240, Note_on_c, 1, 69, 0
3, 18240, Note_on_c, 1, 71, 54
3, 18275, Note_on_c, 1, 71, 0
3, 18300, Note_on_c, 1, 69, 56
3, 18360, Note_on_c, 1, 69, 0
3, 18360, Note_on_c, 1, 68, 52
3, 18420, Note_on_c, 1, 68, 0
3, 18420, Note_on_c, 1, 66, 49
3, 18455, Note_on_c, 1, 66, 0
3, 18480, Note_on_c, 1, 68, 47
3, 18540, Note_on_c, 1, 68, 0
3, 18540, Note_on_c, 1, 71, 51
3, 18575, Note_on_c, 1, 71, 0
3, 18600, Note_on_c, 1, 76, 54
3, 18635, Note_on_c, 1, 76, 0
3, 18660, Note_on_c, 1, 69, 51
3, 18720, Note_on_c, 1, 69, 0
3, 18720, Note_on_c, 1, 66, 49
3, 18755, Note_on_c, 1, 66, 0
3, 18780, Note_on_c, 1, 68, 47
3, 18815, Note_on_c, 1, 68, 0
3, 18840, Note_on_c, 1, 66, 44
3, 18900, Note_on_c, 1, 66, 0
3, 18900, Note_on_c, 1, 68, 43
3, 18960, Note_on_c, 1, 68, 0
3, 18960, Note_on_c, 1, 64, 41
3, 18995, Note_on_c, 1, 64, 0
3, 19020, Note_on_c, 1, 63, 40
3, 19140, Note_on_c, 1, 63, 0
3, 19260, Note_on_c, 1, 71, 41
3, 19320, Note_on_c, 1, 71, 0
3, 19320, Note_on_c, 1, 73, 34
3, 19355, Note_on_c, 1, 73, 0
3, 19380, Note_on_c, 1, 75, 41
3, 19440, Note_on_c, 1, 75, 0
3, 19440, Note_on_c, 1, 76, 34
3, 19475, Note_on_c, 1, 76, 0
3, 19500, Note_on_c, 1, 69, 55
3, 19560, Note_on_c, 1, 69, 0
3, 19560, Note_on_c, 1, 68, 47
3, 19595, Note_on_c, 1, 68, 0
3, 19620, Note_on_c, 1, 71, 40
3, 19680, Note_on_c, 1, 71, 0
3, 19680, Note_on_c, 1, 73, 33
3, 19715, Note_on_c, 1, 73, 0
3, 19740, Note_on_c, 1, 75, 42
3, 19800, Note_on_c, 1, 75, 0
3, 19800, Note_on_c, 1, 76, 33
3, 19835, Note_on_c, 1, 76, 0
3, 20040, Note_on_c, 1, 64, 44
3, 20100, Note_on_c, 1, 64, 0
3, 20100, Note_on_c, 1, 69, 44
3, 20400, Note_on_c, 1, 69, 0
3, 20400, Note_on_c, 1, 63, 45
3, 20460, Note_on_c, 1, 63, 0
3, 20460, Note_on_c, 1, 68, 46
3, 20555, Note_on_c, 1, 68, 0
3, 20580, Note_on_c, 1, 59, 46
3, 20640, Note_on_c, 1, 59, 0
3, 20640, Note_on_c, 1, 61, 44
3, 20700, Note_on_c, 1, 61, 0
3, 20700, Note_on_c, 1, 63, 66
3, 20760, Note_on_c, 1, 63, 0
3, 20760, Note_on_c, 1, 64, 65
3, 20795, Note_on_c, 1, 64, 0
3, 20820, Note_on_c, 1, 68, 66
3, 20831, Note_on_c, 1, 68, 0
3, 20831, Note_on_c, 1, 69, 61
3, 20844, Note_on_c, 1, 69, 0
3, 20844, Note_on_c, 1, 68, 61
3, 20855, Note_on_c, 1, 68, 0
3, 20855, Note_on_c, 1, 69, 60
3, 20868, Note_on_c, 1, 69, 0
3, 20868, Note_on_c, 1, 68, 60
3, 20880, Note_on_c, 1, 68, 0
3, 20880, Note_on_c, 1, 66, 59
3, 20940, Note_on_c, 1, 66, 0
3, 20940, Note_on_c, 1, 64, 63
3, 20975, Note_on_c, 1, 64, 0
3, 21000, Note_on_c, 1, 64, 63
3, 21060, Note_on_c, 1, 64, 0
3, 21060, Note_on_c, 1, 71, 51
3, 21120, Note_on_c, 1, 71, 0
3, 21120, Note_on_c, 1, 68, 49
3, 21155, Note_on_c, 1, 68, 0
3, 21180, Note_on_c, 1, 64, 50
3, 21240, Note_on_c, 1, 64, 0
3, 21240, Note_on_c, 1, 71, 45
3, 21275, Note_on_c, 1, 71, 0
3, 21300, Note_on_c, 1, 59, 43
3, 21360, Note_on_c, 1, 59, 0
3, 21360, Note_on_c, 1, 61, 47
3, 21420, Note_on_c, 1, 61, 0
3, 21420, Note_on_c, 1, 63, 51
3, 21480, Note_on_c, 1, 63, 0
3, 21480, Note_on_c, 1, 64, 55
3, 21515, Note_on_c, 1, 64, 0
3, 21540, Note_on_c, 1, 68, 61
3, 21551, Note_on_c, 1, 68, 0
3, 21551, Note_on_c, 1, 69, 60
3, 21564, Note_on_c, 1, 69, 0
3, 21564, Note_on_c, 1, 68, 60
3, 21575, Note_on_c, 1, 68, 0
3, 21575, Note_on_c, 1, 69, 59
3, 21588, Note_on_c, 1, 69, 0
3, 21588, Note_on_c, 1, 68, 59
3, 21600, Note_on_c, 1, 68, 0
3, 21600, Note_on_c, 1, 66, 58
3, 21660, Note_on_c, 1, 66, 0
3, 21660, Note_on_c, 1, 64, 56
3, 21695, Note_on_c, 1, 64, 0
3, 21720, Note_on_c, 1, 64, 53
3, 21900, Note_on_c, 1, 64, 0
3, 22440, Note_on_c, 1, 66, 32
3, 22680, Note_on_c, 1, 66, 0
3, 22680, Note_on_c, 1, 65, 28
3, 22740, Note_on_c, 1, 65, 0
3, 22740, Note_on_c, 1, 66, 27
3, 22800, Note_on_c, 1, 66, 0
3, 22800, Note_on_c, 1, 74, 27
3, 22920, Note_on_c, 1, 74, 0
3, 23160, Note_on_c, 1, 68, 33
3, 23400, Note_on_c, 1, 68, 0
3, 23400, Note_on_c, 1, 66, 29
3, 23460, Note_on_c, 1, 66, 0
3, 23460, Note_on_c, 1, 65, 28
3, 23520, Note_on_c, 1, 65, 0
3, 23520, Note_on_c, 1, 73, 27
3, 23640, Note_on_c, 1, 73, 0
3, 24060, Note_on_c, 1, 71, 32
3, 24180, Note_on_c, 1, 71, 0
3, 24180, Note_on_c, 1, 66, 32
3, 24240, Note_on_c, 1, 66, 0
3, 24240, Note_on_c, 1, 68, 32
3, 24720, Note_on_c, 1, 68, 0
3, 24720, Note_on_c, 1, 64, 34
3, 24780, Note_on_c, 1, 64, 0
3, 24780, Note_on_c, 1, 69, 35
3, 24900, Note_on_c, 1, 69, 0
3, 24900, Note_on_c, 1, 64, 36
3, 24960, Note_on_c, 1, 64, 0
3, 24960, Note_on_c, 1, 66, 37
3, 25175, Note_on_c, 1, 66, 0
3, 25200, Note_on_c, 1, 71, 36
3, 25380, Note_on_c, 1, 71, 0
3, 25380, Note_on_c, 1, 73, 37
3, 25440, Note_on_c, 1, 73, 0
3, 25440, Note_on_c, 1, 74, 38
3, 25475, Note_on_c, 1, 74, 0
3, 25500, Note_on_c, 1, 68, 38
3, 25740, Note_on_c, 1, 68, 0
3, 25740, Note_on_c, 1, 66, 39
3, 25800, Note_on_c, 1, 66, 0
3, 25800, Note_on_c, 1, 68, 40
3, 25860, Note_on_c, 1, 68, 0
3, 25860, Note_on_c, 1, 69, 40
3, 25920, Note_on_c, 1, 69, 0
3, 25920, Note_on_c, 1, 65, 41
3, 25980, Note_on_c, 1, 65, 0
3, 25980, Note_on_c, 1, 66, 42
3, 26040, Note_on_c, 1, 66, 0
3, 26040, Note_on_c, 1, 74, 42
3, 26280, Note_on_c, 1, 74, 0
3, 26280, Note_on_c, 1, 73, 39
3, 26310, Note_on_c, 1, 73, 0
3, 26310, Note_on_c, 1, 71, 38
3, 26340, Note_on_c, 1, 71, 0
3, 26340, Note_on_c, 1, 73, 38
3, 26435, Note_on_c, 1, 73, 0
3, 26460, Note_on_c, 1, 65, 35
3, 26520, Note_on_c, 1, 65, 0
3, 26520, Note_on_c, 1, 66, 34
3, 26580, Note_on_c, 1, 66, 0
3, 26580, Note_on_c, 1, 61, 33
3, 26640, Note_on_c, 1, 61, 0
3, 26640, Note_on_c, 1, 62, 32
3, 26675, Note_on_c, 1, 62, 0
3, 26700, Note_on_c, 1, 59, 31
3, 26760, Note_on_c, 1, 59, 0
3, 26760, Note_on_c, 1, 57, 30
3, 27000, Note_on_c, 1, 57, 0
3, 27000, Note_on_c, 1, 61, 41
3, 27060, Note_on_c, 1, 61, 0
3, 27060, Note_on_c, 1, 65, 47
3, 27095, Note_on_c, 1, 65, 0
3, 27120, Note_on_c, 1, 66, 43
3, 27180, Note_on_c, 1, 66, 0
3, 27180, Note_on_c, 1, 68, 48
3, 27240, Note_on_c, 1, 68, 0
3, 27240, Note_on_c, 1, 69, 53
3, 27275, Note_on_c, 1, 69, 0
3, 27300, Note_on_c, 1, 68, 50
3, 27360, Note_on_c, 1, 68, 0
3, 27360, Note_on_c, 1, 66, 45
3, 27420, Note_on_c, 1, 66, 0
3, 27420, Note_on_c, 1, 65, 40
3, 27455, Note_on_c, 1, 65, 0
3, 27480, Note_on_c, 1, 66, 40
3, 27540, Note_on_c, 1, 66, 0
3, 27540, Note_on_c, 1, 68, 45
3, 27600, Note_on_c, 1, 68, 0
3, 27600, Note_on_c, 1, 69, 50
3, 27635, Note_on_c, 1, 69, 0
3, 27660, Note_on_c, 1, 68, 54
3, 27720, Note_on_c, 1, 68, 0
3, 27720, Note_on_c, 1, 66, 48
3, 27780, Note_on_c, 1, 66, 0
3, 27780, Note_on_c, 1, 65, 41
3, 27815, Note_on_c, 1, 65, 0
3, 27840, Note_on_c, 1, 66, 42
3, 27900, Note_on_c, 1, 66, 0
3, 27900, Note_on_c, 1, 68, 47
3, 27960, Note_on_c, 1, 68, 0
3, 27960, Note_on_c, 1, 69, 52
3, 27995, Note_on_c, 1, 69, 0
3, 28020, Note_on_c, 1, 68, 48
3, 28080, Note_on_c, 1, 68, 0
3, 28080, Note_on_c, 1, 69, 44
3, 28140, Note_on_c, 1, 69, 0
3, 28140, Note_on_c, 1, 66, 41
3, 28175, Note_on_c, 1, 66, 0
3, 28200, Note_on_c, 1, 65, 37
3, 28440, Note_on_c, 1, 65, 0
3, 28440, Note_on_c, 1, 66, 34
3, 28500, Note_on_c, 1, 66, 0
3, 28500, Note_on_c, 1, 68, 35
3, 28535, Note_on_c, 1, 68, 0
3, 28560, Note_on_c, 1, 61, 36
3, 28680, Note_on_c, 1, 61, 0
3, 28680, Note_on_c, 1, 66, 38
3, 28715, Note_on_c, 1, 66, 0
3, 28740, Note_on_c, 1, 65, 39
3, 28800, Note_on_c, 1, 65, 0
3, 28800, Note_on_c, 1, 66, 40
3, 28860, Note_on_c, 1, 66, 0
3, 28860, Note_on_c, 1, 68, 41
3, 28895, Note_on_c, 1, 68, 0
3, 28920, Note_on_c, 1, 66, 42
3, 28980, Note_on_c, 1, 66, 0
3, 28980, Note_on_c, 1, 68, 43
3, 29040, Note_on_c, 1, 68, 0
3, 29040, Note_on_c, 1, 69, 44
3, 29075, Note_on_c, 1, 69, 0
3, 29100, Note_on_c, 1, 68, 45
3, 29160, Note_on_c, 1, 68, 0
3, 29160, Note_on_c, 1, 73, 46
3, 29220, Note_on_c, 1, 73, 0
3, 29220, Note_on_c, 1, 71, 44
3, 29255, Note_on_c, 1, 71, 0
3, 29280, Note_on_c, 1, 69, 42
3, 29340, Note_on_c, 1, 69, 0
3, 29340, Note_on_c, 1, 68, 40
3, 29400, Note_on_c, 1, 68, 0
3, 29400, Note_on_c, 1, 66, 38
3, 29435, Note_on_c, 1, 66, 0
3, 29460, Note_on_c, 1, 65, 37
3, 29520, Note_on_c, 1, 65, 0
3, 29520, Note_on_c, 1, 66, 35
3, 29580, Note_on_c, 1, 66, 0
3, 29580, Note_on_c, 1, 68, 33
3, 29615, Note_on_c, 1, 68, 0
3, 29640, Note_on_c, 1, 66, 31
3, 29760, Note_on_c, 1, 66, 0
3, 30780, Note_on_c, 1, 73, 41
3, 30840, Note_on_c, 1, 73, 0
3, 30840, Note_on_c, 1, 75, 33
3, 30875, Note_on_c, 1, 75, 0
3, 30900, Note_on_c, 1, 77, 38
3, 30960, Note_on_c, 1, 77, 0
3, 30960, Note_on_c, 1, 78, 29
3, 30995, Note_on_c, 1, 78, 0
3, 31020, Note_on_c, 1, 71, 48
3, 31080, Note_on_c, 1, 71, 0
3, 31080, Note_on_c, 1, 73, 41
3, 31115, Note_on_c, 1, 73, 0
3, 31140, Note_on_c, 1, 79, 37
3, 31200, Note_on_c, 1, 79, 0
3, 31200, Note_on_c, 1, 78, 28
3, 31235, Note_on_c, 1, 78, 0
3, 31260, Note_on_c, 1, 76, 36
3, 31320, Note_on_c, 1, 76, 0
3, 31320, Note_on_c, 1, 74, 28
3, 31355, Note_on_c, 1, 74, 0
3, 31380, Note_on_c, 1, 73, 52
3, 31440, Note_on_c, 1, 73, 0
3, 31440, Note_on_c, 1, 74, 46
3, 31500, Note_on_c, 1, 74, 0
3, 31500, Note_on_c, 1, 73, 47
3, 31560, Note_on_c, 1, 73, 0
3, 31560, Note_on_c, 1, 71, 48
3, 31595, Note_on_c, 1, 71, 0
3, 31620, Note_on_c, 1, 77, 49
3, 31680, Note_on_c, 1, 77, 0
3, 31680, Note_on_c, 1, 78, 50
3, 31715, Note_on_c, 1, 78, 0
3, 31740, Note_on_c, 1, 80, 51
3, 31775, Note_on_c, 1, 80, 0
3, 31800, Note_on_c, 1, 68, 51
3, 31920, Note_on_c, 1, 68, 0
3, 33120, Note_on_c, 1, 73, 39
3, 33180, Note_on_c, 1, 73, 0
3, 33180, Note_on_c, 1, 71, 35
3, 33300, Note_on_c, 1, 71, 0
3, 33300, Note_on_c, 1, 69, 27
3, 33335, Note_on_c, 1, 69, 0
3, 34860, Note_on_c, 1, 76, 50
3, 35075, Note_on_c, 1, 76, 0
3, 35100, Note_on_c, 1, 64, 55
3, 35160, Note_on_c, 1, 64, 0
3, 35160, Note_on_c, 1, 66, 45
3, 35195, Note_on_c, 1, 66, 0
3, 35220, Note_on_c, 1, 68, 55
3, 35280, Note_on_c, 1, 68, 0
3, 35280, Note_on_c, 1, 69, 39
3, 35315, Note_on_c, 1, 69, 0
3, 35340, Note_on_c, 1, 62, 66
3, 35400, Note_on_c, 1, 62, 0
3, 35400, Note_on_c, 1, 61, 50
3, 35435, Note_on_c, 1, 61, 0
3, 35460, Note_on_c, 1, 64, 52
3, 35520, Note_on_c, 1, 64, 0
3, 35520, Note_on_c, 1, 66, 44
3, 35555, Note_on_c, 1, 66, 0
3, 35580, Note_on_c, 1, 68, 53
3, 35640, Note_on_c, 1, 68, 0
3, 35640, Note_on_c, 1, 69, 41
3, 35675, Note_on_c, 1, 69, 0
3, 35880, Note_on_c, 1, 69, 51
3, 35940, Note_on_c, 1, 69, 0
3, 35940, Note_on_c, 1, 74, 49
3, 36240, Note_on_c, 1, 74, 0
3, 36240, Note_on_c, 1, 68, 40
3, 36300, Note_on_c, 1, 68, 0
3, 36300, Note_on_c, 1, 73, 38
3, 36420, Note_on_c, 1, 73, 0
3, 36420, Note_on_c, 1, 64, 31
3, 36480, Note_on_c, 1, 64, 0
3, 36480, Note_on_c, 1, 66, 34
3, 36540, Note_on_c, 1, 66, 0
3, 36540, Note_on_c, 1, 68, 37
3, 36600, Note_on_c, 1, 68, 0
3, 36600, Note_on_c, 1, 69, 40
3, 36635, Note_on_c, 1, 69, 0
3, 36660, Note_on_c, 1, 73, 42
3, 36671, Note_on_c, 1, 73, 0
3, 36671, Note_on_c, 1, 74, 43
3, 36684, Note_on_c, 1, 74, 0
3, 36684, Note_on_c, 1, 73, 44
3, 36695, Note_on_c, 1, 73, 0
3, 36695, Note_on_c, 1, 74, 44
3, 36708, Note_on_c, 1, 74, 0
3, 36708, Note_on_c, 1, 73, 45
3, 36720, Note_on_c, 1, 73, 0
3, 36720, Note_on_c, 1, 71, 45
3, 36780, Note_on_c, 1, 71, 0
3, 36780, Note_on_c, 1, 69, 48
3, 36815, Note_on_c, 1, 69, 0
3, 36840, Note_on_c, 1, 69, 51
3, 36900, Note_on_c, 1, 69, 0
3, 36900, Note_on_c, 1, 76, 48
3, 36960, Note_on_c, 1, 76, 0
3, 36960, Note_on_c, 1, 73, 48
3, 36995, Note_on_c, 1, 73, 0
3, 37020, Note_on_c, 1, 69, 48
3, 37080, Note_on_c, 1, 69, 0
3, 37080, Note_on_c, 1, 76, 32
3, 37115, Note_on_c, 1, 76, 0
3, 37140, Note_on_c, 1, 64, 30
3, 37200, Note_on_c, 1, 64, 0
3, 37200, Note_on_c, 1, 66, 34
3, 37260, Note_on_c, 1, 66, 0
3, 37260, Note_on_c, 1, 68, 38
3, 37320, Note_on_c, 1, 68, 0
3, 37320, Note_on_c, 1, 69, 42
3, 37355, Note_on_c, 1, 69, 0
3, 37380, Note_on_c, 1, 73, 46
3, 37391, Note_on_c, 1, 73, 0
3, 37391, Note_on_c, 1, 74, 47
3, 37404, Note_on_c, 1, 74, 0
3, 37404, Note_on_c, 1, 73, 46
3, 37415, Note_on_c, 1, 73, 0
3, 37415, Note_on_c, 1, 74, 45
3, 37428, Note_on_c, 1, 74, 0
3, 37428, Note_on_c, 1, 73, 44
3, 37440, Note_on_c, 1, 73, 0
3, 37440, Note_on_c, 1, 71, 43
3, 37500, Note_on_c, 1, 71, 0
3, 37500, Note_on_c, 1, 69, 38
3, 37535, Note_on_c, 1, 69, 0
3, 37560, Note_on_c, 1, 69, 33
3, 37680, Note_on_c, 1, 69, 0
3, 37740, Note_on_c, 1, 64, 30
3, 38040, Note_on_c, 1, 64, 0
3, 38040, Note_on_c, 1, 69, 33
3, 38075, Note_on_c, 1, 69, 0
3, 38100, Note_on_c, 1, 66, 34
3, 38220, Note_on_c, 1, 66, 0
3, 38220, Note_on_c, 1, 71, 35
3, 38255, Note_on_c, 1, 71, 0
3, 38280, Note_on_c, 1, 69, 36
3, 38340, Note_on_c, 1, 69, 0
3, 38340, Note_on_c, 1, 71, 36
3, 38400, Note_on_c, 1, 71, 0
3, 38400, Note_on_c, 1, 73, 37
3, 38435, Note_on_c, 1, 73, 0
3, 38460, Note_on_c, 1, 71, 38
3, 38520, Note_on_c, 1, 71, 0
3, 38520, Note_on_c, 1, 73, 38
3, 38580, Note_on_c, 1, 73, 0
3, 38580, Note_on_c, 1, 74, 39
3, 38615, Note_on_c, 1, 74, 0
3, 38640, Note_on_c, 1, 73, 40
3, 38700, Note_on_c, 1, 73, 0
3, 38700, Note_on_c, 1, 71, 40
3, 38760, Note_on_c, 1, 71, 0
3, 38760, Note_on_c, 1, 69, 41
3, 38795, Note_on_c, 1, 69, 0
3, 38820, Note_on_c, 1, 68, 39
3, 38880, Note_on_c, 1, 68, 0
3, 38880, Note_on_c, 1, 71, 35
3, 38940, Note_on_c, 1, 71, 0
3, 38940, Note_on_c, 1, 64, 31
3, 38975, Note_on_c, 1, 64, 0
3, 39000, Note_on_c, 1, 68, 27
3, 39180, Note_on_c, 1, 68, 0
3, 39720, Note_on_c, 1, 73, 30
3, 39960, Note_on_c, 1, 73, 0
3, 39960, Note_on_c, 1, 74, 33
3, 40020, Note_on_c, 1, 74, 0
3, 40020, Note_on_c, 1, 76, 33
3, 40080, Note_on_c, 1, 76, 0
3, 40080, Note_on_c, 1, 74, 34
3, 40320, Note_on_c, 1, 74, 0
3, 40320, Note_on_c, 1, 76, 37
3, 40380, Note_on_c, 1, 76, 0
3, 40380, Note_on_c, 1, 73, 37
3, 40440, Note_on_c, 1, 73, 0
3, 40440, Note_on_c, 1, 71, 38
3, 40680, Note_on_c, 1, 71, 0
3, 40680, Note_on_c, 1, 73, 41
3, 40740, Note_on_c, 1, 73, 0
3, 40740, Note_on_c, 1, 74, 41
3, 40800, Note_on_c, 1, 74, 0
3, 40800, Note_on_c, 1, 73, 42
3, 40860, Note_on_c, 1, 73, 0
3, 40860, Note_on_c, 1, 74, 43
3, 40920, Note_on_c, 1, 74, 0
3, 40920, Note_on_c, 1, 76, 44
3, 41040, Note_on_c, 1, 76, 0
3, 41040, Note_on_c, 1, 74, 45
3, 41100, Note_on_c, 1, 74, 0
3, 41100, Note_on_c, 1, 76, 46
3, 41160, Note_on_c, 1, 76, 0
3, 41160, Note_on_c, 1, 78, 46
3, 41220, Note_on_c, 1, 78, 0
3, 41220, Note_on_c, 1, 80, 43
3, 41280, Note_on_c, 1, 80, 0
3, 41280, Note_on_c, 1, 81, 42
3, 41315, Note_on_c, 1, 81, 0
3, 41340, Note_on_c, 1, 74, 40
3, 41400, Note_on_c, 1, 74, 0
3, 41400, Note_on_c, 1, 71, 39
3, 41460, Note_on_c, 1, 71, 0
3, 41460, Note_on_c, 1, 73, 38
3, 41520, Note_on_c, 1, 73, 0
3, 41520, Note_on_c, 1, 68, 37
3, 41580, Note_on_c, 1, 68, 0
3, 41580, Note_on_c, 1, 69, 35
3, 41640, Note_on_c, 1, 69, 0
3, 41640, Note_on_c, 1, 71, 34
3, 41675, Note_on_c, 1, 71, 0
3, 41700, Note_on_c, 1, 64, 33
3, 41760, Note_on_c, 1, 64, 0
3, 41760, Note_on_c, 1, 66, 31
3, 41820, Note_on_c, 1, 66, 0
3, 41820, Note_on_c, 1, 68, 30
3, 41855, Note_on_c, 1, 68, 0
3, 41880, Note_on_c, 1, 69, 29
3, 41915, Note_on_c, 1, 69, 0
3, 41940, Note_on_c, 1, 61, 37
3, 42000, Note_on_c, 1, 61, 0
3, 42000, Note_on_c, 1, 62, 30
3, 42035, Note_on_c, 1, 62, 0
3, 42060, Note_on_c, 1, 59, 41
3, 42120, Note_on_c, 1, 59, 0
3, 42120, Note_on_c, 1, 57, 32
3, 42155, Note_on_c, 1, 57, 0
3, 42180, Note_on_c, 1, 68, 42
3, 42240, Note_on_c, 1, 68, 0
3, 42240, Note_on_c, 1, 69, 32
3, 42275, Note_on_c, 1, 69, 0
3, 42300, Note_on_c, 1, 61, 46
3, 42360, Note_on_c, 1, 61, 0
3, 42360, Note_on_c, 1, 62, 34
3, 42395, Note_on_c, 1, 62, 0
3, 42420, Note_on_c, 1, 59, 41
3, 42480, Note_on_c, 1, 59, 0
3, 42480, Note_on_c, 1, 57, 29
3, 42515, Note_on_c, 1, 57, 0
3, 42540, Note_on_c, 1, 67, 42
3, 42600, Note_on_c, 1, 67, 0
3, 42600, Note_on_c, 1, 66, 38
3, 42810, Note_on_c, 1, 66, 0
3, 42810, Note_on_c, 1, 76, 40
3, 42840, Note_on_c, 1, 76, 0
3, 42840, Note_on_c, 1, 74, 40
3, 42870, Note_on_c, 1, 74, 0
3, 42870, Note_on_c, 1, 73, 41
3, 42900, Note_on_c, 1, 73, 0
3, 42900, Note_on_c, 1, 74, 41
3, 42930, Note_on_c, 1, 74, 0
3, 42930, Note_on_c, 1, 71, 42
3, 42960, Note_on_c, 1, 71, 0
3, 42960, Note_on_c, 1, 76, 44
3, 43200, Note_on_c, 1, 76, 0
3, 43200, Note_on_c, 1, 78, 46
3, 43230, Note_on_c, 1, 78, 0
3, 43230, Note_on_c, 1, 76, 46
3, 43260, Note_on_c, 1, 76, 0
3, 43260, Note_on_c, 1, 74, 46
3, 43290, Note_on_c, 1, 74, 0
3, 43290, Note_on_c, 1, 73, 46
3, 43320, Note_on_c, 1, 73, 0
3, 43320, Note_on_c, 1, 74, 47
3, 43560, Note_on_c, 1, 74, 0
3, 43560, Note_on_c, 1, 73, 48
3, 43620, Note_on_c, 1, 73, 0
3, 43620, Note_on_c, 1, 74, 49
3, 43655, Note_on_c, 1, 74, 0
3, 43680, Note_on_c, 1, 73, 50
3, 43920, Note_on_c, 1, 73, 0
3, 43920, Note_on_c, 1, 71, 51
3, 43980, Note_on_c, 1, 71, 0
3, 43980, Note_on_c, 1, 69, 52
3, 44040, Note_on_c, 1, 69, 0
3, 44040, Note_on_c, 1, 74, 52
3, 44280, Note_on_c, 1, 74, 0
3, 44280, Note_on_c, 1, 73, 42
3, 44340, Note_on_c, 1, 73, 0
3, 44340, Note_on_c, 1, 71, 41
3, 44400, Note_on_c, 1, 71, 0
3, 44400, Note_on_c, 1, 69, 40
3, 44640, Note_on_c, 1, 69, 0
3, 44640, Note_on_c, 1, 74, 37
3, 44700, Note_on_c, 1, 74, 0
3, 44700, Note_on_c, 1, 73, 36
3, 44760, Note_on_c, 1, 73, 0
3, 44760, Note_on_c, 1, 71, 44
3, 44820, Note_on_c, 1, 71, 0
3, 44820, Note_on_c, 1, 69, 41
3, 44880, Note_on_c, 1, 69, 0
3, 44880, Note_on_c, 1, 68, 39
3, 44915, Note_on_c, 1, 68, 0
3, 44940, Note_on_c, 1, 69, 36
3, 45000, Note_on_c, 1, 69, 0
3, 45000, Note_on_c, 1, 76, 34
3, 45035, Note_on_c, 1, 76, 0
3, 45060, Note_on_c, 1, 64, 31
3, 45120, Note_on_c, 1, 64, 0
3, 45120, Note_on_c, 1, 66, 28
3, 45180, Note_on_c, 1, 66, 0
3, 45180, Note_on_c, 1, 68, 33
3, 45240, Note_on_c, 1, 68, 0
3, 45240, Note_on_c, 1, 69, 39
3, 45275, Note_on_c, 1, 69, 0
3, 45300, Note_on_c, 1, 73, 42
3, 45360, Note_on_c, 1, 73, 0
3, 45360, Note_on_c, 1, 71, 42
3, 45420, Note_on_c, 1, 71, 0
3, 45420, Note_on_c, 1, 69, 42
3, 45455, Note_on_c, 1, 69, 0
3, 45480, Note_on_c, 1, 69, 42
3, 45540, Note_on_c, 1, 69, 0
3, 45540, Note_on_c, 1, 76, 42
3, 45600, Note_on_c, 1, 76, 0
3, 45600, Note_on_c, 1, 73, 42
3, 45635, Note_on_c, 1, 73, 0
3, 45660, Note_on_c, 1, 69, 40
3, 45720, Note_on_c, 1, 69, 0
3, 45720, Note_on_c, 1, 76, 32
3, 45755, Note_on_c, 1, 76, 0
3, 45780, Note_on_c, 1, 64, 27
3, 45840, Note_on_c, 1, 64, 0
3, 45840, Note_on_c, 1, 66, 32
3, 45900, Note_on_c, 1, 66, 0
3, 45900, Note_on_c, 1, 68, 37
3, 45960, Note_on_c, 1, 68, 0
3, 45960, Note_on_c, 1, 69, 42
3, 45995, Note_on_c, 1, 69, 0
3, 46020, Note_on_c, 1, 73, 40
3, 46080, Note_on_c, 1, 73, 0
3, 46080, Note_on_c, 1, 71, 39
3, 46140, Note_on_c, 1, 71, 0
3, 46140, Note_on_c, 1, 69, 38
3, 46175, Note_on_c, 1, 69, 0
3, 46200, Note_on_c, 1, 69, 37
3, 46320, Note_on_c, 1, 69, 0
3, 47460, Note_on_c, 1, 64, 45
3, 47580, Note_on_c, 1, 64, 0
3, 47580, Note_on_c, 1, 68, 59
3, 47615, Note_on_c, 1, 68, 0
3, 47640, Note_on_c, 1, 69, 66
3, 47700, Note_on_c, 1, 69, 0
3, 47700, Note_on_c, 1, 71, 65
3, 47760, Note_on_c, 1, 71, 0
3, 47760, Note_on_c, 1, 73, 70
3, 47795, Note_on_c, 1, 73, 0
3, 47820, Note_on_c, 1, 71, 70
3, 47880, Note_on_c, 1, 71, 0
3, 47880, Note_on_c, 1, 69, 64
3, 47940, Note_on_c, 1, 69, 0
3, 47940, Note_on_c, 1, 68, 58
3, 47975, Note_on_c, 1, 68, 0
3, 48000, Note_on_c, 1, 69, 52
3, 48060, Note_on_c, 1, 69, 0
3, 48060, Note_on_c, 1, 71, 54
3, 48120, Note_on_c, 1, 71, 0
3, 48120, Note_on_c, 1, 73, 62
3, 48155, Note_on_c, 1, 73, 0
3, 48180, Note_on_c, 1, 71, 62
3, 48240, Note_on_c, 1, 71, 0
3, 48240, Note_on_c, 1, 69, 59
3, 48300, Note_on_c, 1, 69, 0
3, 48300, Note_on_c, 1, 68, 57
3, 48335, Note_on_c, 1, 68, 0
3, 48360, Note_on_c, 1, 69, 55
3, 48420, Note_on_c, 1, 69, 0
3, 48420, Note_on_c, 1, 73, 62
3, 48455, Note_on_c, 1, 73, 0
3, 48480, Note_on_c, 1, 64, 70
3, 48515, Note_on_c, 1, 64, 0
3, 48540, Note_on_c, 1, 68, 72
3, 48660, Note_on_c, 1, 68, 0
3, 48660, Note_on_c, 1, 69, 72
3, 48695, Note_on_c, 1, 69, 0
3, 48720, Note_on_c, 1, 68, 72
3, 48780, Note_on_c, 1, 68, 0
3, 48780, Note_on_c, 1, 69, 66
3, 48840, Note_on_c, 1, 69, 0
3, 48840, Note_on_c, 1, 66, 61
3, 48875, Note_on_c, 1, 66, 0
3, 48900, Note_on_c, 1, 64, 56
3, 48960, Note_on_c, 1, 64, 0
3, 48960, Note_on_c, 1, 66, 51
3, 49020, Note_on_c, 1, 66, 0
3, 49020, Note_on_c, 1, 68, 46
3, 49055, Note_on_c, 1, 68, 0
3, 49080, Note_on_c, 1, 69, 52
3, 49115, Note_on_c, 1, 69, 0
3, 49140, Note_on_c, 1, 61, 47
3, 49200, Note_on_c, 1, 61, 0
3, 49200, Note_on_c, 1, 62, 36
3, 49235, Note_on_c, 1, 62, 0
3, 49260, Note_on_c, 1, 59, 47
3, 49320, Note_on_c, 1, 59, 0
3, 49320, Note_on_c, 1, 57, 37
3, 49331, Note_on_c, 1, 57, 0
3, 49380, Note_on_c, 1, 68, 71
3, 49440, Note_on_c, 1, 68, 0
3, 49440, Note_on_c, 1, 69, 57
3, 49475, Note_on_c, 1, 69, 0
3, 49500, Note_on_c, 1, 61, 46
3, 49560, Note_on_c, 1, 61, 0
3, 49560, Note_on_c, 1, 62, 38
3, 49595, Note_on_c, 1, 62, 0
3, 49620, Note_on_c, 1, 59, 49
3, 49680, Note_on_c, 1, 59, 0
3, 49680, Note_on_c, 1, 57, 40
3, 49715, Note_on_c, 1, 57, 0
3, 49740, Note_on_c, 1, 67, 78
3, 49800, Note_on_c, 1, 67, 0
3, 49800, Note_on_c, 1, 66, 68
3, 50100, Note_on_c, 1, 66, 0
3, 50100, Note_on_c, 1, 59, 72
3, 50160, Note_on_c, 1, 59, 0
3, 50160, Note_on_c, 1, 64, 73
3, 50435, Note_on_c, 1, 64, 0
3, 50460, Note_on_c, 1, 64, 39
3, 50580, Note_on_c, 1, 64, 0
3, 50580, Note_on_c, 1, 62, 47
3, 50640, Note_on_c, 1, 62, 0
3, 50640, Note_on_c, 1, 61, 51
3, 50675, Note_on_c, 1, 61, 0
3, 50700, Note_on_c, 1, 64, 55
3, 50760, Note_on_c, 1, 64, 0
3, 50760, Note_on_c, 1, 62, 58
3, 50820, Note_on_c, 1, 62, 0
3, 50820, Note_on_c, 1, 61, 60
3, 50940, Note_on_c, 1, 61, 0
3, 50940, Note_on_c, 1, 57, 65
3, 51000, Note_on_c, 1, 57, 0
3, 51000, Note_on_c, 1, 61, 67
3, 51035, Note_on_c, 1, 61, 0
3, 51060, Note_on_c, 1, 64, 69
3, 51120, Note_on_c, 1, 64, 0
3, 51120, Note_on_c, 1, 69, 53
3, 51180, Note_on_c, 1, 69, 0
3, 51180, Note_on_c, 1, 73, 37
3, 51215, Note_on_c, 1, 73, 0
3, 51240, Note_on_c, 1, 71, 43
3, 51300, Note_on_c, 1, 71, 0
3, 51300, Note_on_c, 1, 74, 49
3, 51360, Note_on_c, 1, 74, 0
3, 51360, Note_on_c, 1, 73, 54
3, 51395, Note_on_c, 1, 73, 0
3, 51420, Note_on_c, 1, 64, 61
3, 51480, Note_on_c, 1, 64, 0
3, 51480, Note_on_c, 1, 68, 59
3, 51540, Note_on_c, 1, 68, 0
3, 51540, Note_on_c, 1, 69, 57
3, 51575, Note_on_c, 1, 69, 0
3, 51600, Note_on_c, 1, 61, 54
3, 51780, Note_on_c, 1, 61, 0
3, 51960, Control_c, 1, 121, 127
3, 51960, End_track
4, 0, Start_track
4, 0, MIDI_port, 0
4, 0, Title_t, "Bassoon"
4, 0, Program_c, 2, 70
4, 0, Control_c, 2, 10, 80
4, 0, Control_c, 2, 121, 127
4, 0, Control_c, 2, 91, 127
4, 0, Control_c, 2, 1, 10
4, 120, Note_on_c, 2, 57, 39
4, 150, Note_on_c, 2, 57, 0
4, 150, Note_on_c, 2, 56, 39
4, 180, Note_on_c, 2, 56, 0
4, 180, Note_on_c, 2, 57, 39
4, 215, Note_on_c, 2, 57, 0
4, 240, Note_on_c, 2, 52, 39
4, 275, Note_on_c, 2, 52, 0
4, 300, Note_on_c, 2, 49, 39
4, 420, Note_on_c, 2, 49, 0
4, 420, Note_on_c, 2, 47, 39
4, 455, Note_on_c, 2, 47, 0
4, 480, Note_on_c, 2, 45, 39
4, 600, Note_on_c, 2, 45, 0
4, 600, Note_on_c, 2, 57, 40
4, 635, Note_on_c, 2, 57, 0
4, 660, Note_on_c, 2, 50, 40
4, 780, Note_on_c, 2, 50, 0
4, 780, Note_on_c, 2, 52, 40
4, 815, Note_on_c, 2, 52, 0
4, 840, Note_on_c, 2, 45, 39
4, 960, Note_on_c, 2, 45, 0
4, 960, Note_on_c, 2, 57, 39
4, 995, Note_on_c, 2, 57, 0
4, 1020, Note_on_c, 2, 50, 39
4, 1140, Note_on_c, 2, 50, 0
4, 1140, Note_on_c, 2, 52, 39
4, 1175, Note_on_c, 2, 52, 0
4, 1200, Note_on_c, 2, 45, 34
4, 1235, Note_on_c, 2, 45, 0
4, 1260, Note_on_c, 2, 57, 37
4, 1295, Note_on_c, 2, 57, 0
4, 1320, Note_on_c, 2, 61, 39
4, 1355, Note_on_c, 2, 61, 0
4, 1380, Note_on_c, 2, 59, 42
4, 1500, Note_on_c, 2, 59, 0
4, 1500, Note_on_c, 2, 57, 47
4, 1535, Note_on_c, 2, 57, 0
4, 1560, Note_on_c, 2, 64, 50
4, 1590, Note_on_c, 2, 64, 0
4, 1590, Note_on_c, 2, 63, 52
4, 1620, Note_on_c, 2, 63, 0
4, 1620, Note_on_c, 2, 64, 52
4, 1655, Note_on_c, 2, 64, 0
4, 1680, Note_on_c, 2, 59, 53
4, 1715, Note_on_c, 2, 59, 0
4, 1740, Note_on_c, 2, 52, 54
4, 1860, Note_on_c, 2, 52, 0
4, 1860, Note_on_c, 2, 51, 56
4, 1895, Note_on_c, 2, 51, 0
4, 1920, Note_on_c, 2, 49, 57
4, 2040, Note_on_c, 2, 49, 0
4, 2280, Note_on_c, 2, 47, 57
4, 2400, Note_on_c, 2, 47, 0
4, 2640, Note_on_c, 2, 45, 52
4, 2675, Note_on_c, 2, 45, 0
4, 2700, Note_on_c, 2, 57, 53
4, 2760, Note_on_c, 2, 57, 0
4, 2760, Note_on_c, 2, 56, 53
4, 2795, Note_on_c, 2, 56, 0
4, 2820, Note_on_c, 2, 54, 50
4, 2880, Note_on_c, 2, 54, 0
4, 2880, Note_on_c, 2, 51, 37
4, 2915, Note_on_c, 2, 51, 0
4, 2940, Note_on_c, 2, 52, 50
4, 2975, Note_on_c, 2, 52, 0
4, 3000, Note_on_c, 2, 51, 47
4, 3060, Note_on_c, 2, 51, 0
4, 3060, Note_on_c, 2, 49, 44
4, 3120, Note_on_c, 2, 49, 0
4, 3120, Note_on_c, 2, 47, 41
4, 3155, Note_on_c, 2, 47, 0
4, 3180, Note_on_c, 2, 52, 36
4, 3215, Note_on_c, 2, 52, 0
4, 3240, Note_on_c, 2, 54, 38
4, 3275, Note_on_c, 2, 54, 0
4, 3300, Note_on_c, 2, 56, 40
4, 3335, Note_on_c, 2, 56, 0
4, 3360, Note_on_c, 2, 57, 42
4, 3480, Note_on_c, 2, 57, 0
4, 3540, Note_on_c, 2, 59, 49
4, 3660, Note_on_c, 2, 59, 0
4, 3720, Note_on_c, 2, 61, 56
4, 3840, Note_on_c, 2, 61, 0
4, 3900, Note_on_c, 2, 44, 51
4, 4020, Note_on_c, 2, 44, 0
4, 4080, Note_on_c, 2, 45, 50
4, 4200, Note_on_c, 2, 45, 0
4, 4260, Note_on_c, 2, 47, 50
4, 4380, Note_on_c, 2, 47, 0
4, 4440, Note_on_c, 2, 40, 47
4, 4475, Note_on_c, 2, 40, 0
4, 4500, Note_on_c, 2, 52, 41
4, 4535, Note_on_c, 2, 52, 0
4, 4560, Note_on_c, 2, 50, 36
4, 4595, Note_on_c, 2, 50, 0
4, 4620, Note_on_c, 2, 49, 29
4, 4650, Note_on_c, 2, 49, 0
4, 4650, Note_on_c, 2, 50, 29
4, 4680, Note_on_c, 2, 50, 0
4, 4680, Note_on_c, 2, 49, 29
4, 4715, Note_on_c, 2, 49, 0
4, 4740, Note_on_c, 2, 47, 29
4, 4775, Note_on_c, 2, 47, 0
4, 4800, Note_on_c, 2, 45, 29
4, 4920, Note_on_c, 2, 45, 0
4, 4920, Note_on_c, 2, 49, 29
4, 4955, Note_on_c, 2, 49, 0
4, 4980, Note_on_c, 2, 47, 29
4, 5100, Note_on_c, 2, 47, 0
4, 5100, Note_on_c, 2, 52, 29
4, 5135, Note_on_c, 2, 52, 0
4, 5160, Note_on_c, 2, 57, 29
4, 5220, Note_on_c, 2, 57, 0
4, 5220, Note_on_c, 2, 59, 29
4, 5280, Note_on_c, 2, 59, 0
4, 5280, Note_on_c, 2, 61, 29
4, 5315, Note_on_c, 2, 61, 0
4, 5340, Note_on_c, 2, 59, 29
4, 5400, Note_on_c, 2, 59, 0
4, 5400, Note_on_c, 2, 57, 29
4, 5460, Note_on_c, 2, 57, 0
4, 5460, Note_on_c, 2, 56, 29
4, 5495, Note_on_c, 2, 56, 0
4, 5520, Note_on_c, 2, 57, 29
4, 5640, Note_on_c, 2, 57, 0
4, 5640, Note_on_c, 2, 49, 29
4, 5675, Note_on_c, 2, 49, 0
4, 5700, Note_on_c, 2, 47, 29
4, 5820, Note_on_c, 2, 47, 0
4, 5820, Note_on_c, 2, 45, 29
4, 5855, Note_on_c, 2, 45, 0
4, 5880, Note_on_c, 2, 52, 28
4, 5940, Note_on_c, 2, 52, 0
4, 5940, Note_on_c, 2, 54, 30
4, 6000, Note_on_c, 2, 54, 0
4, 6000, Note_on_c, 2, 56, 32
4, 6035, Note_on_c, 2, 56, 0
4, 6060, Note_on_c, 2, 56, 34
4, 6120, Note_on_c, 2, 56, 0
4, 6120, Note_on_c, 2, 57, 37
4, 6180, Note_on_c, 2, 57, 0
4, 6180, Note_on_c, 2, 59, 39
4, 6215, Note_on_c, 2, 59, 0
4, 6240, Note_on_c, 2, 49, 41
4, 6360, Note_on_c, 2, 49, 0
4, 6600, Note_on_c, 2, 54, 40
4, 6780, Note_on_c, 2, 54, 0
4, 6900, Note_on_c, 2, 52, 39
4, 6935, Note_on_c, 2, 52, 0
4, 6960, Note_on_c, 2, 50, 37
4, 6995, Note_on_c, 2, 50, 0
4, 7020, Note_on_c, 2, 62, 36
4, 7080, Note_on_c, 2, 62, 0
4, 7080, Note_on_c, 2, 61, 34
4, 7115, Note_on_c, 2, 61, 0
4, 7140, Note_on_c, 2, 59, 32
4, 7200, Note_on_c, 2, 59, 0
4, 7200, Note_on_c, 2, 54, 29
4, 7235, Note_on_c, 2, 54, 0
4, 7260, Note_on_c, 2, 57, 29
4, 7295, Note_on_c, 2, 57, 0
4, 7320, Note_on_c, 2, 56, 34
4, 7380, Note_on_c, 2, 56, 0
4, 7380, Note_on_c, 2, 54, 32
4, 7440, Note_on_c, 2, 54, 0
4, 7440, Note_on_c, 2, 52, 30
4, 7475, Note_on_c, 2, 52, 0
4, 7500, Note_on_c, 2, 57, 28
4, 7560, Note_on_c, 2, 57, 0
4, 7560, Note_on_c, 2, 59, 33
4, 7620, Note_on_c, 2, 59, 0
4, 7620, Note_on_c, 2, 61, 39
4, 7655, Note_on_c, 2, 61, 0
4, 7680, Note_on_c, 2, 50, 45
4, 7800, Note_on_c, 2, 50, 0
4, 7860, Note_on_c, 2, 52, 49
4, 7980, Note_on_c, 2, 52, 0
4, 8040, Note_on_c, 2, 54, 50
4, 8160, Note_on_c, 2, 54, 0
4, 8220, Note_on_c, 2, 49, 46
4, 8340, Note_on_c, 2, 49, 0
4, 8400, Note_on_c, 2, 50, 41
4, 8520, Note_on_c, 2, 50, 0
4, 8580, Note_on_c, 2, 52, 36
4, 8700, Note_on_c, 2, 52, 0
4, 8760, Note_on_c, 2, 57, 31
4, 8790, Note_on_c, 2, 57, 0
4, 8790, Note_on_c, 2, 56, 31
4, 8820, Note_on_c, 2, 56, 0
4, 8820, Note_on_c, 2, 57, 31
4, 8855, Note_on_c, 2, 57, 0
4, 8880, Note_on_c, 2, 52, 31
4, 8915, Note_on_c, 2, 52, 0
4, 8940, Note_on_c, 2, 49, 31
4, 9060, Note_on_c, 2, 49, 0
4, 9060, Note_on_c, 2, 52, 31
4, 9095, Note_on_c, 2, 52, 0
4, 9120, Note_on_c, 2, 45, 31
4, 9240, Note_on_c, 2, 45, 0
4, 9240, Note_on_c, 2, 57, 31
4, 9275, Note_on_c, 2, 57, 0
4, 9300, Note_on_c, 2, 50, 31
4, 9420, Note_on_c, 2, 50, 0
4, 9420, Note_on_c, 2, 52, 31
4, 9455, Note_on_c, 2, 52, 0
4, 9480, Note_on_c, 2, 45, 31
4, 9600, Note_on_c, 2, 45, 0
4, 9600, Note_on_c, 2, 57, 31
4, 9635, Note_on_c, 2, 57, 0
4, 9660, Note_on_c, 2, 50, 31
4, 9780, Note_on_c, 2, 50, 0
4, 9780, Note_on_c, 2, 52, 31
4, 9815, Note_on_c, 2, 52, 0
4, 9840, Note_on_c, 2, 45, 31
4, 9960, Note_on_c, 2, 45, 0
4, 9960, Note_on_c, 2, 49, 31
4, 9995, Note_on_c, 2, 49, 0
4, 10020, Note_on_c, 2, 47, 31
4, 10140, Note_on_c, 2, 47, 0
4, 10140, Note_on_c, 2, 45, 29
4, 10175, Note_on_c, 2, 45, 0
4, 10200, Note_on_c, 2, 52, 35
4, 10230, Note_on_c, 2, 52, 0
4, 10230, Note_on_c, 2, 51, 35
4, 10260, Note_on_c, 2, 51, 0
4, 10260, Note_on_c, 2, 52, 35
4, 10295, Note_on_c, 2, 52, 0
4, 10320, Note_on_c, 2, 47, 35
4, 10355, Note_on_c, 2, 47, 0
4, 10380, Note_on_c, 2, 40, 35
4, 10415, Note_on_c, 2, 40, 0
4, 10440, Note_on_c, 2, 52, 35
4, 10475, Note_on_c, 2, 52, 0
4, 10500, Note_on_c, 2, 50, 35
4, 10535, Note_on_c, 2, 50, 0
4, 10560, Note_on_c, 2, 49, 35
4, 10620, Note_on_c, 2, 49, 0
4, 10620, Note_on_c, 2, 52, 31
4, 10680, Note_on_c, 2, 52, 0
4, 10680, Note_on_c, 2, 56, 32
4, 10715, Note_on_c, 2, 56, 0
4, 10740, Note_on_c, 2, 61, 33
4, 10800, Note_on_c, 2, 61, 0
4, 10800, Note_on_c, 2, 58, 34
4, 10860, Note_on_c, 2, 58, 0
4, 10860, Note_on_c, 2, 59, 35
4, 10895, Note_on_c, 2, 59, 0
4, 10920, Note_on_c, 2, 58, 35
4, 11040, Note_on_c, 2, 58, 0
4, 11100, Note_on_c, 2, 54, 38
4, 11220, Note_on_c, 2, 54, 0
4, 11280, Note_on_c, 2, 59, 36
4, 11400, Note_on_c, 2, 59, 0
4, 11400, Note_on_c, 2, 47, 37
4, 11435, Note_on_c, 2, 47, 0
4, 11460, Note_on_c, 2, 59, 38
4, 11580, Note_on_c, 2, 59, 0
4, 11580, Note_on_c, 2, 57, 39
4, 11615, Note_on_c, 2, 57, 0
4, 11640, Note_on_c, 2, 56, 39
4, 11760, Note_on_c, 2, 56, 0
4, 11820, Note_on_c, 2, 52, 41
4, 11940, Note_on_c, 2, 52, 0
4, 12000, Note_on_c, 2, 57, 32
4, 12120, Note_on_c, 2, 57, 0
4, 12120, Note_on_c, 2, 45, 33
4, 12155, Note_on_c, 2, 45, 0
4, 12180, Note_on_c, 2, 57, 33
4, 12300, Note_on_c, 2, 57, 0
4, 12300, Note_on_c, 2, 56, 35
4, 12335, Note_on_c, 2, 56, 0
4, 12360, Note_on_c, 2, 54, 35
4, 12480, Note_on_c, 2, 54, 0
4, 12480, Note_on_c, 2, 52, 36
4, 12515, Note_on_c, 2, 52, 0
4, 12540, Note_on_c, 2, 51, 37
4, 12660, Note_on_c, 2, 51, 0
4, 12660, Note_on_c, 2, 52, 38
4, 12695, Note_on_c, 2, 52, 0
4, 12720, Note_on_c, 2, 47, 39
4, 12935, Note_on_c, 2, 47, 0
4, 12960, Note_on_c, 2, 45, 41
4, 12995, Note_on_c, 2, 45, 0
4, 13020, Note_on_c, 2, 47, 42
4, 13055, Note_on_c, 2, 47, 0
4, 13080, Note_on_c, 2, 49, 42
4, 13200, Note_on_c, 2, 49, 0
4, 13440, Note_on_c, 2, 47, 43
4, 13560, Note_on_c, 2, 47, 0
4, 13800, Note_on_c, 2, 45, 44
4, 13835, Note_on_c, 2, 45, 0
4, 13860, Note_on_c, 2, 57, 43
4, 13920, Note_on_c, 2, 57, 0
4, 13920, Note_on_c, 2, 56, 42
4, 13955, Note_on_c, 2, 56, 0
4, 13980, Note_on_c, 2, 54, 40
4, 14040, Note_on_c, 2, 54, 0
4, 14040, Note_on_c, 2, 51, 29
4, 14075, Note_on_c, 2, 51, 0
4, 14100, Note_on_c, 2, 52, 38
4, 14135, Note_on_c, 2, 52, 0
4, 14160, Note_on_c, 2, 51, 37
4, 14280, Note_on_c, 2, 51, 0
4, 14280, Note_on_c, 2, 47, 35
4, 14315, Note_on_c, 2, 47, 0
4, 14340, Note_on_c, 2, 52, 35
4, 14460, Note_on_c, 2, 52, 0
4, 14460, Note_on_c, 2, 50, 35
4, 14495, Note_on_c, 2, 50, 0
4, 14520, Note_on_c, 2, 49, 35
4, 14580, Note_on_c, 2, 49, 0
4, 14580, Note_on_c, 2, 54, 35
4, 14640, Note_on_c, 2, 54, 0
4, 14640, Note_on_c, 2, 52, 35
4, 14675, Note_on_c, 2, 52, 0
4, 14700, Note_on_c, 2, 51, 34
4, 14760, Note_on_c, 2, 51, 0
4, 14760, Note_on_c, 2, 48, 33
4, 14820, Note_on_c, 2, 48, 0
4, 14820, Note_on_c, 2, 49, 32
4, 14855, Note_on_c, 2, 49, 0
4, 14880, Note_on_c, 2, 48, 31
4, 15000, Note_on_c, 2, 48, 0
4, 15000, Note_on_c, 2, 44, 28
4, 15035, Note_on_c, 2, 44, 0
4, 15060, Note_on_c, 2, 49, 29
4, 15120, Note_on_c, 2, 49, 0
4, 15120, Note_on_c, 2, 51, 34
4, 15180, Note_on_c, 2, 51, 0
4, 15180, Note_on_c, 2, 52, 40
4, 15215, Note_on_c, 2, 52, 0
4, 15240, Note_on_c, 2, 54, 34
4, 15300, Note_on_c, 2, 54, 0
4, 15300, Note_on_c, 2, 56, 39
4, 15360, Note_on_c, 2, 56, 0
4, 15360, Note_on_c, 2, 57, 43
4, 15395, Note_on_c, 2, 57, 0
4, 15420, Note_on_c, 2, 47, 28
4, 15480, Note_on_c, 2, 47, 0
4, 15480, Note_on_c, 2, 49, 33
4, 15540, Note_on_c, 2, 49, 0
4, 15540, Note_on_c, 2, 51, 38
4, 15575, Note_on_c, 2, 51, 0
4, 15600, Note_on_c, 2, 52, 36
4, 15660, Note_on_c, 2, 52, 0
4, 15660, Note_on_c, 2, 54, 40
4, 15720, Note_on_c, 2, 54, 0
4, 15720, Note_on_c, 2, 56, 45
4, 15755, Note_on_c, 2, 56, 0
4, 15780, Note_on_c, 2, 57, 43
4, 16020, Note_on_c, 2, 57, 0
4, 16020, Note_on_c, 2, 56, 47
4, 16080, Note_on_c, 2, 56, 0
4, 16080, Note_on_c, 2, 54, 47
4, 16115, Note_on_c, 2, 54, 0
4, 16140, Note_on_c, 2, 56, 48
4, 16200, Note_on_c, 2, 56, 0
4, 16200, Note_on_c, 2, 59, 49
4, 16260, Note_on_c, 2, 59, 0
4, 16260, Note_on_c, 2, 52, 50
4, 16295, Note_on_c, 2, 52, 0
4, 16320, Note_on_c, 2, 57, 51
4, 16440, Note_on_c, 2, 57, 0
4, 16500, Note_on_c, 2, 59, 47
4, 16620, Note_on_c, 2, 59, 0
4, 16680, Note_on_c, 2, 61, 49
4, 16800, Note_on_c, 2, 61, 0
4, 16860, Note_on_c, 2, 44, 39
4, 16980, Note_on_c, 2, 44, 0
4, 17040, Note_on_c, 2, 45, 38
4, 17160, Note_on_c, 2, 45, 0
4, 17220, Note_on_c, 2, 47, 36
4, 17340, Note_on_c, 2, 47, 0
4, 17400, Note_on_c, 2, 52, 35
4, 17430, Note_on_c, 2, 52, 0
4, 17430, Note_on_c, 2, 51, 33
4, 17460, Note_on_c, 2, 51, 0
4, 17460, Note_on_c, 2, 52, 36
4, 17495, Note_on_c, 2, 52, 0
4, 17520, Note_on_c, 2, 47, 43
4, 17555, Note_on_c, 2, 47, 0
4, 17580, Note_on_c, 2, 44, 50
4, 17700, Note_on_c, 2, 44, 0
4, 17700, Note_on_c, 2, 42, 50
4, 17735, Note_on_c, 2, 42, 0
4, 17760, Note_on_c, 2, 40, 50
4, 17880, Note_on_c, 2, 40, 0
4, 17880, Note_on_c, 2, 52, 50
4, 17915, Note_on_c, 2, 52, 0
4, 17940, Note_on_c, 2, 45, 50
4, 18060, Note_on_c, 2, 45, 0
4, 18060, Note_on_c, 2, 47, 49
4, 18095, Note_on_c, 2, 47, 0
4, 18120, Note_on_c, 2, 52, 49
4, 18240, Note_on_c, 2, 52, 0
4, 18240, Note_on_c, 2, 64, 49
4, 18275, Note_on_c, 2, 64, 0
4, 18300, Note_on_c, 2, 57, 49
4, 18420, Note_on_c, 2, 57, 0
4, 18420, Note_on_c, 2, 59, 49
4, 18455, Note_on_c, 2, 59, 0
4, 18480, Note_on_c, 2, 52, 48
4, 18600, Note_on_c, 2, 52, 0
4, 18600, Note_on_c, 2, 56, 48
4, 18635, Note_on_c, 2, 56, 0
4, 18660, Note_on_c, 2, 54, 48
4, 18780, Note_on_c, 2, 54, 0
4, 18780, Note_on_c, 2, 52, 48
4, 18815, Note_on_c, 2, 52, 0
4, 18840, Note_on_c, 2, 47, 48
4, 18960, Note_on_c, 2, 47, 0
4, 18960, Note_on_c, 2, 54, 50
4, 18995, Note_on_c, 2, 54, 0
4, 19020, Note_on_c, 2, 59, 54
4, 19140, Note_on_c, 2, 59, 0
4, 19140, Note_on_c, 2, 57, 62
4, 19175, Note_on_c, 2, 57, 0
4, 19200, Note_on_c, 2, 56, 65
4, 19320, Note_on_c, 2, 56, 0
4, 19560, Note_on_c, 2, 49, 64
4, 19740, Note_on_c, 2, 49, 0
4, 19860, Note_on_c, 2, 47, 67
4, 19895, Note_on_c, 2, 47, 0
4, 19920, Note_on_c, 2, 45, 73
4, 19980, Note_on_c, 2, 45, 0
4, 19980, Note_on_c, 2, 57, 64
4, 20040, Note_on_c, 2, 57, 0
4, 20040, Note_on_c, 2, 56, 64
4, 20075, Note_on_c, 2, 56, 0
4, 20100, Note_on_c, 2, 54, 64
4, 20160, Note_on_c, 2, 54, 0
4, 20160, Note_on_c, 2, 51, 47
4, 20220, Note_on_c, 2, 51, 0
4, 20220, Note_on_c, 2, 52, 64
4, 20255, Note_on_c, 2, 52, 0
4, 20280, Note_on_c, 2, 51, 61
4, 20340, Note_on_c, 2, 51, 0
4, 20340, Note_on_c, 2, 49, 54
4, 20400, Note_on_c, 2, 49, 0
4, 20400, Note_on_c, 2, 47, 48
4, 20435, Note_on_c, 2, 47, 0
4, 20460, Note_on_c, 2, 52, 45
4, 20520, Note_on_c, 2, 52, 0
4, 20520, Note_on_c, 2, 54, 53
4, 20580, Note_on_c, 2, 54, 0
4, 20580, Note_on_c, 2, 56, 61
4, 20615, Note_on_c, 2, 56, 0
4, 20640, Note_on_c, 2, 57, 69
4, 20700, Note_on_c, 2, 57, 0
4, 20700, Note_on_c, 2, 59, 66
4, 20760, Note_on_c, 2, 59, 0
4, 20760, Note_on_c, 2, 61, 65
4, 20795, Note_on_c, 2, 61, 0
4, 20820, Note_on_c, 2, 59, 66
4, 20940, Note_on_c, 2, 59, 0
4, 20940, Note_on_c, 2, 47, 63
4, 20975, Note_on_c, 2, 47, 0
4, 21000, Note_on_c, 2, 49, 63
4, 21120, Note_on_c, 2, 49, 0
4, 21180, Note_on_c, 2, 44, 50
4, 21300, Note_on_c, 2, 44, 0
4, 21360, Note_on_c, 2, 45, 47
4, 21480, Note_on_c, 2, 45, 0
4, 21540, Note_on_c, 2, 47, 61
4, 21660, Note_on_c, 2, 47, 0
4, 21720, Note_on_c, 2, 52, 56
4, 21750, Note_on_c, 2, 52, 0
4, 21750, Note_on_c, 2, 51, 53
4, 21780, Note_on_c, 2, 51, 0
4, 21780, Note_on_c, 2, 52, 48
4, 21815, Note_on_c, 2, 52, 0
4, 21840, Note_on_c, 2, 47, 37
4, 21875, Note_on_c, 2, 47, 0
4, 21900, Note_on_c, 2, 40, 36
4, 22020, Note_on_c, 2, 40, 0
4, 22020, Note_on_c, 2, 50, 35
4, 22055, Note_on_c, 2, 50, 0
4, 22080, Note_on_c, 2, 49, 35
4, 22200, Note_on_c, 2, 49, 0
4, 22200, Note_on_c, 2, 47, 34
4, 22235, Note_on_c, 2, 47, 0
4, 22260, Note_on_c, 2, 46, 33
4, 22380, Note_on_c, 2, 46, 0
4, 22380, Note_on_c, 2, 42, 32
4, 22415, Note_on_c, 2, 42, 0
4, 22440, Note_on_c, 2, 47, 32
4, 22560, Note_on_c, 2, 47, 0
4, 22560, Note_on_c, 2, 49, 39
4, 22595, Note_on_c, 2, 49, 0
4, 22620, Note_on_c, 2, 50, 38
4, 22740, Note_on_c, 2, 50, 0
4, 22740, Note_on_c, 2, 49, 36
4, 22775, Note_on_c, 2, 49, 0
4, 22800, Note_on_c, 2, 47, 35
4, 22835, Note_on_c, 2, 47, 0
4, 22860, Note_on_c, 2, 41, 34
4, 22920, Note_on_c, 2, 41, 0
4, 22920, Note_on_c, 2, 42, 32
4, 22955, Note_on_c, 2, 42, 0
4, 22980, Note_on_c, 2, 47, 31
4, 23100, Note_on_c, 2, 47, 0
4, 23100, Note_on_c, 2, 44, 29
4, 23135, Note_on_c, 2, 44, 0
4, 23160, Note_on_c, 2, 49, 28
4, 23220, Note_on_c, 2, 49, 0
4, 23220, Note_on_c, 2, 51, 33
4, 23280, Note_on_c, 2, 51, 0
4, 23280, Note_on_c, 2, 53, 38
4, 23400, Note_on_c, 2, 53, 0
4, 23400, Note_on_c, 2, 51, 37
4, 23460, Note_on_c, 2, 51, 0
4, 23460, Note_on_c, 2, 49, 32
4, 23495, Note_on_c, 2, 49, 0
4, 23520, Note_on_c, 2, 54, 41
4, 23580, Note_on_c, 2, 54, 0
4, 23580, Note_on_c, 2, 56, 45
4, 23640, Note_on_c, 2, 56, 0
4, 23640, Note_on_c, 2, 57, 49
4, 23760, Note_on_c, 2, 57, 0
4, 23760, Note_on_c, 2, 56, 47
4, 23820, Note_on_c, 2, 56, 0
4, 23820, Note_on_c, 2, 54, 40
4, 23855, Note_on_c, 2, 54, 0
4, 23880, Note_on_c, 2, 47, 39
4, 23940, Note_on_c, 2, 47, 0
4, 23940, Note_on_c, 2, 49, 42
4, 24000, Note_on_c, 2, 49, 0
4, 24000, Note_on_c, 2, 50, 45
4, 24120, Note_on_c, 2, 50, 0
4, 24120, Note_on_c, 2, 49, 43
4, 24180, Note_on_c, 2, 49, 0
4, 24180, Note_on_c, 2, 47, 38
4, 24215, Note_on_c, 2, 47, 0
4, 24240, Note_on_c, 2, 40, 33
4, 24300, Note_on_c, 2, 40, 0
4, 24300, Note_on_c, 2, 42, 42
4, 24360, Note_on_c, 2, 42, 0
4, 24360, Note_on_c, 2, 44, 50
4, 24480, Note_on_c, 2, 44, 0
4, 24480, Note_on_c, 2, 42, 47
4, 24540, Note_on_c, 2, 42, 0
4, 24540, Note_on_c, 2, 40, 43
4, 24575, Note_on_c, 2, 40, 0
4, 24600, Note_on_c, 2, 45, 42
4, 24660, Note_on_c, 2, 45, 0
4, 24660, Note_on_c, 2, 47, 48
4, 24720, Note_on_c, 2, 47, 0
4, 24720, Note_on_c, 2, 49, 54
4, 24840, Note_on_c, 2, 49, 0
4, 24840, Note_on_c, 2, 47, 58
4, 24900, Note_on_c, 2, 47, 0
4, 24900, Note_on_c, 2, 45, 55
4, 24935, Note_on_c, 2, 45, 0
4, 24960, Note_on_c, 2, 50, 48
4, 25080, Note_on_c, 2, 50, 0
4, 25140, Note_on_c, 2, 51, 46
4, 25260, Note_on_c, 2, 51, 0
4, 25320, Note_on_c, 2, 52, 51
4, 25440, Note_on_c, 2, 52, 0
4, 25500, Note_on_c, 2, 53, 56
4, 25620, Note_on_c, 2, 53, 0
4, 25680, Note_on_c, 2, 54, 52
4, 25920, Note_on_c, 2, 54, 0
4, 25920, Note_on_c, 2, 57, 51
4, 25980, Note_on_c, 2, 57, 0
4, 25980, Note_on_c, 2, 62, 45
4, 26015, Note_on_c, 2, 62, 0
4, 26040, Note_on_c, 2, 56, 38
4, 26160, Note_on_c, 2, 56, 0
4, 26160, Note_on_c, 2, 54, 38
4, 26195, Note_on_c, 2, 54, 0
4, 26220, Note_on_c, 2, 53, 38
4, 26340, Note_on_c, 2, 53, 0
4, 26340, Note_on_c, 2, 49, 38
4, 26375, Note_on_c, 2, 49, 0
4, 26400, Note_on_c, 2, 54, 38
4, 26520, Note_on_c, 2, 54, 0
4, 26520, Note_on_c, 2, 48, 38
4, 26555, Note_on_c, 2, 48, 0
4, 26580, Note_on_c, 2, 49, 38
4, 26700, Note_on_c, 2, 49, 0
4, 26700, Note_on_c, 2, 37, 38
4, 26735, Note_on_c, 2, 37, 0
4, 26760, Note_on_c, 2, 42, 29
4, 26820, Note_on_c, 2, 42, 0
4, 26820, Note_on_c, 2, 45, 34
4, 26880, Note_on_c, 2, 45, 0
4, 26880, Note_on_c, 2, 49, 39
4, 26915, Note_on_c, 2, 49, 0
4, 26940, Note_on_c, 2, 54, 44
4, 27000, Note_on_c, 2, 54, 0
4, 27000, Note_on_c, 2, 57, 49
4, 27060, Note_on_c, 2, 57, 0
4, 27060, Note_on_c, 2, 61, 54
4, 27095, Note_on_c, 2, 61, 0
4, 27120, Note_on_c, 2, 54, 53
4, 27240, Note_on_c, 2, 54, 0
4, 27240, Note_on_c, 2, 42, 47
4, 27275, Note_on_c, 2, 42, 0
4, 27300, Note_on_c, 2, 47, 56
4, 27420, Note_on_c, 2, 47, 0
4, 27420, Note_on_c, 2, 49, 43
4, 27455, Note_on_c, 2, 49, 0
4, 27480, Note_on_c, 2, 42, 56
4, 27600, Note_on_c, 2, 42, 0
4, 27600, Note_on_c, 2, 54, 49
4, 27635, Note_on_c, 2, 54, 0
4, 27660, Note_on_c, 2, 47, 56
4, 27780, Note_on_c, 2, 47, 0
4, 27780, Note_on_c, 2, 49, 46
4, 27815, Note_on_c, 2, 49, 0
4, 27840, Note_on_c, 2, 42, 55
4, 27960, Note_on_c, 2, 42, 0
4, 27960, Note_on_c, 2, 40, 51
4, 27995, Note_on_c, 2, 40, 0
4, 28020, Note_on_c, 2, 38, 49
4, 28140, Note_on_c, 2, 38, 0
4, 28140, Note_on_c, 2, 50, 44
4, 28175, Note_on_c, 2, 50, 0
4, 28200, Note_on_c, 2, 49, 40
4, 28260, Note_on_c, 2, 49, 0
4, 28260, Note_on_c, 2, 53, 36
4, 28320, Note_on_c, 2, 53, 0
4, 28320, Note_on_c, 2, 56, 32
4, 28355, Note_on_c, 2, 56, 0
4, 28380, Note_on_c, 2, 49, 28
4, 28500, Note_on_c, 2, 49, 0
4, 28500, Note_on_c, 2, 47, 28
4, 28535, Note_on_c, 2, 47, 0
4, 28560, Note_on_c, 2, 45, 28
4, 28680, Note_on_c, 2, 45, 0
4, 28680, Note_on_c, 2, 42, 28
4, 28715, Note_on_c, 2, 42, 0
4, 28740, Note_on_c, 2, 49, 28
4, 28860, Note_on_c, 2, 49, 0
4, 28860, Note_on_c, 2, 37, 28
4, 28895, Note_on_c, 2, 37, 0
4, 28920, Note_on_c, 2, 42, 28
4, 29040, Note_on_c, 2, 42, 0
4, 29040, Note_on_c, 2, 54, 28
4, 29075, Note_on_c, 2, 54, 0
4, 29100, Note_on_c, 2, 49, 24
4, 29160, Note_on_c, 2, 49, 0
4, 29160, Note_on_c, 2, 51, 27
4, 29220, Note_on_c, 2, 51, 0
4, 29220, Note_on_c, 2, 53, 30
4, 29255, Note_on_c, 2, 53, 0
4, 29280, Note_on_c, 2, 54, 33
4, 29340, Note_on_c, 2, 54, 0
4, 29340, Note_on_c, 2, 56, 36
4, 29400, Note_on_c, 2, 56, 0
4, 29400, Note_on_c, 2, 57, 39
4, 29435, Note_on_c, 2, 57, 0
4, 29460, Note_on_c, 2, 56, 28
4, 29520, Note_on_c, 2, 56, 0
4, 29520, Note_on_c, 2, 57, 29
4, 29580, Note_on_c, 2, 57, 0
4, 29580, Note_on_c, 2, 59, 31
4, 29615, Note_on_c, 2, 59, 0
4, 29640, Note_on_c, 2, 57, 33
4, 29700, Note_on_c, 2, 57, 0
4, 29700, Note_on_c, 2, 56, 34
4, 29760, Note_on_c, 2, 56, 0
4, 29760, Note_on_c, 2, 54, 36
4, 29795, Note_on_c, 2, 54, 0
4, 29820, Note_on_c, 2, 56, 37
4, 29940, Note_on_c, 2, 56, 0
4, 29940, Note_on_c, 2, 57, 41
4, 29975, Note_on_c, 2, 57, 0
4, 30000, Note_on_c, 2, 59, 42
4, 30120, Note_on_c, 2, 59, 0
4, 30120, Note_on_c, 2, 53, 38
4, 30155, Note_on_c, 2, 53, 0
4, 30180, Note_on_c, 2, 54, 37
4, 30300, Note_on_c, 2, 54, 0
4, 30300, Note_on_c, 2, 48, 35
4, 30335, Note_on_c, 2, 48, 0
4, 30360, Note_on_c, 2, 49, 31
4, 30420, Note_on_c, 2, 49, 0
4, 30420, Note_on_c, 2, 53, 33
4, 30480, Note_on_c, 2, 53, 0
4, 30480, Note_on_c, 2, 56, 36
4, 30515, Note_on_c, 2, 56, 0
4, 30540, Note_on_c, 2, 59, 39
4, 30600, Note_on_c, 2, 59, 0
4, 30600, Note_on_c, 2, 57, 41
4, 30660, Note_on_c, 2, 57, 0
4, 30660, Note_on_c, 2, 56, 44
4, 30695, Note_on_c, 2, 56, 0
4, 30720, Note_on_c, 2, 57, 46
4, 30840, Note_on_c, 2, 57, 0
4, 31080, Note_on_c, 2, 58, 50
4, 31200, Note_on_c, 2, 58, 0
4, 31380, Note_on_c, 2, 46, 53
4, 31440, Note_on_c, 2, 46, 0
4, 31440, Note_on_c, 2, 47, 50
4, 31500, Note_on_c, 2, 47, 0
4, 31500, Note_on_c, 2, 49, 48
4, 31560, Note_on_c, 2, 49, 0
4, 31560, Note_on_c, 2, 50, 46
4, 31595, Note_on_c, 2, 50, 0
4, 31620, Note_on_c, 2, 44, 43
4, 31680, Note_on_c, 2, 44, 0
4, 31680, Note_on_c, 2, 45, 41
4, 31715, Note_on_c, 2, 45, 0
4, 31740, Note_on_c, 2, 42, 39
4, 31775, Note_on_c, 2, 42, 0
4, 31800, Note_on_c, 2, 41, 36
4, 31920, Note_on_c, 2, 41, 0
4, 31980, Note_on_c, 2, 42, 31
4, 32040, Note_on_c, 2, 42, 0
4, 32040, Note_on_c, 2, 44, 34
4, 32100, Note_on_c, 2, 44, 0
4, 32100, Note_on_c, 2, 45, 37
4, 32135, Note_on_c, 2, 45, 0
4, 32160, Note_on_c, 2, 47, 39
4, 32220, Note_on_c, 2, 47, 0
4, 32220, Note_on_c, 2, 49, 42
4, 32280, Note_on_c, 2, 49, 0
4, 32280, Note_on_c, 2, 50, 44
4, 32315, Note_on_c, 2, 50, 0
4, 32340, Note_on_c, 2, 44, 47
4, 32400, Note_on_c, 2, 44, 0
4, 32400, Note_on_c, 2, 45, 44
4, 32460, Note_on_c, 2, 45, 0
4, 32460, Note_on_c, 2, 47, 42
4, 32495, Note_on_c, 2, 47, 0
4, 32520, Note_on_c, 2, 45, 39
4, 32580, Note_on_c, 2, 45, 0
4, 32580, Note_on_c, 2, 44, 37
4, 32640, Note_on_c, 2, 44, 0
4, 32640, Note_on_c, 2, 42, 35
4, 32675, Note_on_c, 2, 42, 0
4, 32700, Note_on_c, 2, 49, 32
4, 32820, Note_on_c, 2, 49, 0
4, 32820, Note_on_c, 2, 37, 32
4, 32855, Note_on_c, 2, 37, 0
4, 32880, Note_on_c, 2, 42, 35
4, 32940, Note_on_c, 2, 42, 0
4, 32940, Note_on_c, 2, 45, 42
4, 33000, Note_on_c, 2, 45, 0
4, 33000, Note_on_c, 2, 49, 49
4, 33035, Note_on_c, 2, 49, 0
4, 33060, Note_on_c, 2, 54, 56
4, 33120, Note_on_c, 2, 54, 0
4, 33120, Note_on_c, 2, 57, 55
4, 33180, Note_on_c, 2, 57, 0
4, 33180, Note_on_c, 2, 56, 52
4, 33215, Note_on_c, 2, 56, 0
4, 33240, Note_on_c, 2, 57, 49
4, 33270, Note_on_c, 2, 57, 0
4, 33270, Note_on_c, 2, 56, 47
4, 33300, Note_on_c, 2, 56, 0
4, 33300, Note_on_c, 2, 57, 46
4, 33335, Note_on_c, 2, 57, 0
4, 33360, Note_on_c, 2, 52, 43
4, 33395, Note_on_c, 2, 52, 0
4, 33420, Note_on_c, 2, 49, 40
4, 33480, Note_on_c, 2, 49, 0
4, 33480, Note_on_c, 2, 50, 29
4, 33540, Note_on_c, 2, 50, 0
4, 33540, Note_on_c, 2, 52, 29
4, 33575, Note_on_c, 2, 52, 0
4, 33600, Note_on_c, 2, 45, 29
4, 33720, Note_on_c, 2, 45, 0
4, 33720, Note_on_c, 2, 49, 29
4, 33755, Note_on_c, 2, 49, 0
4, 33780, Note_on_c, 2, 47, 29
4, 33900, Note_on_c, 2, 47, 0
4, 33900, Note_on_c, 2, 52, 30
4, 33935, Note_on_c, 2, 52, 0
4, 33960, Note_on_c, 2, 57, 30
4, 34020, Note_on_c, 2, 57, 0
4, 34020, Note_on_c, 2, 59, 28
4, 34080, Note_on_c, 2, 59, 0
4, 34080, Note_on_c, 2, 61, 29
4, 34115, Note_on_c, 2, 61, 0
4, 34140, Note_on_c, 2, 59, 30
4, 34200, Note_on_c, 2, 59, 0
4, 34200, Note_on_c, 2, 57, 31
4, 34260, Note_on_c, 2, 57, 0
4, 34260, Note_on_c, 2, 56, 32
4, 34295, Note_on_c, 2, 56, 0
4, 34320, Note_on_c, 2, 57, 33
4, 34380, Note_on_c, 2, 57, 0
4, 34380, Note_on_c, 2, 59, 34
4, 34440, Note_on_c, 2, 59, 0
4, 34440, Note_on_c, 2, 61, 35
4, 34475, Note_on_c, 2, 61, 0
4, 34500, Note_on_c, 2, 59, 36
4, 34560, Note_on_c, 2, 59, 0
4, 34560, Note_on_c, 2, 56, 37
4, 34620, Note_on_c, 2, 56, 0
4, 34620, Note_on_c, 2, 57, 38
4, 34655, Note_on_c, 2, 57, 0
4, 34680, Note_on_c, 2, 52, 39
4, 34740, Note_on_c, 2, 52, 0
4, 34740, Note_on_c, 2, 54, 38
4, 34800, Note_on_c, 2, 54, 0
4, 34800, Note_on_c, 2, 56, 37
4, 34920, Note_on_c, 2, 56, 0
4, 34920, Note_on_c, 2, 57, 34
4, 34980, Note_on_c, 2, 57, 0
4, 34980, Note_on_c, 2, 59, 33
4, 35015, Note_on_c, 2, 59, 0
4, 35040, Note_on_c, 2, 49, 32
4, 35160, Note_on_c, 2, 49, 0
4, 35400, Note_on_c, 2, 54, 35
4, 35520, Note_on_c, 2, 54, 0
4, 35700, Note_on_c, 2, 52, 42
4, 35760, Note_on_c, 2, 52, 0
4, 35760, Note_on_c, 2, 50, 37
4, 35795, Note_on_c, 2, 50, 0
4, 35820, Note_on_c, 2, 62, 47
4, 35880, Note_on_c, 2, 62, 0
4, 35880, Note_on_c, 2, 61, 43
4, 35915, Note_on_c, 2, 61, 0
4, 35940, Note_on_c, 2, 59, 39
4, 36000, Note_on_c, 2, 59, 0
4, 36000, Note_on_c, 2, 54, 34
4, 36035, Note_on_c, 2, 54, 0
4, 36060, Note_on_c, 2, 57, 35
4, 36095, Note_on_c, 2, 57, 0
4, 36120, Note_on_c, 2, 56, 34
4, 36180, Note_on_c, 2, 56, 0
4, 36180, Note_on_c, 2, 54, 34
4, 36240, Note_on_c, 2, 54, 0
4, 36240, Note_on_c, 2, 52, 33
4, 36275, Note_on_c, 2, 52, 0
4, 36300, Note_on_c, 2, 57, 32
4, 36360, Note_on_c, 2, 57, 0
4, 36360, Note_on_c, 2, 59, 37
4, 36420, Note_on_c, 2, 59, 0
4, 36420, Note_on_c, 2, 61, 43
4, 36455, Note_on_c, 2, 61, 0
4, 36480, Note_on_c, 2, 50, 42
4, 36600, Note_on_c, 2, 50, 0
4, 36660, Note_on_c, 2, 52, 46
4, 36780, Note_on_c, 2, 52, 0
4, 36840, Note_on_c, 2, 54, 51
4, 36960, Note_on_c, 2, 54, 0
4, 37020, Note_on_c, 2, 49, 51
4, 37140, Note_on_c, 2, 49, 0
4, 37200, Note_on_c, 2, 50, 45
4, 37320, Note_on_c, 2, 50, 0
4, 37380, Note_on_c, 2, 52, 40
4, 37500, Note_on_c, 2, 52, 0
4, 37560, Note_on_c, 2, 57, 39
4, 37590, Note_on_c, 2, 57, 0
4, 37590, Note_on_c, 2, 56, 39
4, 37620, Note_on_c, 2, 56, 0
4, 37620, Note_on_c, 2, 57, 39
4, 37655, Note_on_c, 2, 57, 0
4, 37680, Note_on_c, 2, 52, 39
4, 37715, Note_on_c, 2, 52, 0
4, 37740, Note_on_c, 2, 49, 39
4, 37860, Note_on_c, 2, 49, 0
4, 37860, Note_on_c, 2, 52, 39
4, 37895, Note_on_c, 2, 52, 0
4, 37920, Note_on_c, 2, 45, 38
4, 38040, Note_on_c, 2, 45, 0
4, 38040, Note_on_c, 2, 57, 38
4, 38075, Note_on_c, 2, 57, 0
4, 38100, Note_on_c, 2, 50, 38
4, 38220, Note_on_c, 2, 50, 0
4, 38220, Note_on_c, 2, 52, 38
4, 38255, Note_on_c, 2, 52, 0
4, 38280, Note_on_c, 2, 45, 38
4, 38400, Note_on_c, 2, 45, 0
4, 38400, Note_on_c, 2, 57, 37
4, 38435, Note_on_c, 2, 57, 0
4, 38460, Note_on_c, 2, 50, 37
4, 38580, Note_on_c, 2, 50, 0
4, 38580, Note_on_c, 2, 52, 37
4, 38615, Note_on_c, 2, 52, 0
4, 38640, Note_on_c, 2, 45, 37
4, 38760, Note_on_c, 2, 45, 0
4, 38760, Note_on_c, 2, 49, 36
4, 38795, Note_on_c, 2, 49, 0
4, 38820, Note_on_c, 2, 47, 36
4, 38940, Note_on_c, 2, 47, 0
4, 38940, Note_on_c, 2, 45, 36
4, 38975, Note_on_c, 2, 45, 0
4, 39000, Note_on_c, 2, 52, 32
4, 39030, Note_on_c, 2, 52, 0
4, 39030, Note_on_c, 2, 51, 32
4, 39060, Note_on_c, 2, 51, 0
4, 39060, Note_on_c, 2, 52, 32
4, 39095, Note_on_c, 2, 52, 0
4, 39120, Note_on_c, 2, 47, 32
4, 39155, Note_on_c, 2, 47, 0
4, 39180, Note_on_c, 2, 40, 32
4, 39215, Note_on_c, 2, 40, 0
4, 39240, Note_on_c, 2, 52, 32
4, 39300, Note_on_c, 2, 52, 0
4, 39300, Note_on_c, 2, 50, 32
4, 39335, Note_on_c, 2, 50, 0
4, 39360, Note_on_c, 2, 49, 33
4, 39420, Note_on_c, 2, 49, 0
4, 39420, Note_on_c, 2, 52, 36
4, 39480, Note_on_c, 2, 52, 0
4, 39480, Note_on_c, 2, 56, 39
4, 39515, Note_on_c, 2, 56, 0
4, 39540, Note_on_c, 2, 61, 46
4, 39600, Note_on_c, 2, 61, 0
4, 39600, Note_on_c, 2, 58, 40
4, 39635, Note_on_c, 2, 58, 0
4, 39660, Note_on_c, 2, 59, 34
4, 39695, Note_on_c, 2, 59, 0
4, 39720, Note_on_c, 2, 58, 32
4, 39840, Note_on_c, 2, 58, 0
4, 39900, Note_on_c, 2, 54, 34
4, 40020, Note_on_c, 2, 54, 0
4, 40080, Note_on_c, 2, 59, 37
4, 40200, Note_on_c, 2, 59, 0
4, 40200, Note_on_c, 2, 47, 39
4, 40235, Note_on_c, 2, 47, 0
4, 40260, Note_on_c, 2, 59, 40
4, 40380, Note_on_c, 2, 59, 0
4, 40380, Note_on_c, 2, 57, 41
4, 40415, Note_on_c, 2, 57, 0
4, 40440, Note_on_c, 2, 56, 42
4, 40560, Note_on_c, 2, 56, 0
4, 40620, Note_on_c, 2, 52, 45
4, 40740, Note_on_c, 2, 52, 0
4, 40800, Note_on_c, 2, 57, 43
4, 40920, Note_on_c, 2, 57, 0
4, 40920, Note_on_c, 2, 45, 43
4, 40955, Note_on_c, 2, 45, 0
4, 40980, Note_on_c, 2, 50, 43
4, 41100, Note_on_c, 2, 50, 0
4, 41100, Note_on_c, 2, 49, 43
4, 41135, Note_on_c, 2, 49, 0
4, 41160, Note_on_c, 2, 47, 43
4, 41280, Note_on_c, 2, 47, 0
4, 41280, Note_on_c, 2, 45, 43
4, 41315, Note_on_c, 2, 45, 0
4, 41340, Note_on_c, 2, 44, 43
4, 41460, Note_on_c, 2, 44, 0
4, 41460, Note_on_c, 2, 45, 43
4, 41495, Note_on_c, 2, 45, 0
4, 41520, Note_on_c, 2, 52, 43
4, 41760, Note_on_c, 2, 52, 0
4, 41760, Note_on_c, 2, 50, 43
4, 41820, Note_on_c, 2, 50, 0
4, 41820, Note_on_c, 2, 52, 43
4, 41855, Note_on_c, 2, 52, 0
4, 41880, Note_on_c, 2, 54, 43
4, 42060, Note_on_c, 2, 54, 0
4, 42180, Note_on_c, 2, 47, 38
4, 42215, Note_on_c, 2, 47, 0
4, 42240, Note_on_c, 2, 49, 38
4, 42420, Note_on_c, 2, 49, 0
4, 42540, Note_on_c, 2, 45, 42
4, 42600, Note_on_c, 2, 45, 0
4, 42600, Note_on_c, 2, 50, 42
4, 42635, Note_on_c, 2, 50, 0
4, 42660, Note_on_c, 2, 52, 43
4, 42695, Note_on_c, 2, 52, 0
4, 42720, Note_on_c, 2, 54, 44
4, 42755, Note_on_c, 2, 54, 0
4, 42780, Note_on_c, 2, 47, 44
4, 42815, Note_on_c, 2, 47, 0
4, 42840, Note_on_c, 2, 42, 45
4, 42875, Note_on_c, 2, 42, 0
4, 42900, Note_on_c, 2, 45, 45
4, 42935, Note_on_c, 2, 45, 0
4, 42960, Note_on_c, 2, 43, 46
4, 43080, Note_on_c, 2, 43, 0
4, 43080, Note_on_c, 2, 52, 47
4, 43115, Note_on_c, 2, 52, 0
4, 43140, Note_on_c, 2, 46, 47
4, 43260, Note_on_c, 2, 46, 0
4, 43260, Note_on_c, 2, 54, 47
4, 43295, Note_on_c, 2, 54, 0
4, 43320, Note_on_c, 2, 47, 47
4, 43355, Note_on_c, 2, 47, 0
4, 43380, Note_on_c, 2, 59, 48
4, 43440, Note_on_c, 2, 59, 0
4, 43440, Note_on_c, 2, 57, 48
4, 43475, Note_on_c, 2, 57, 0
4, 43500, Note_on_c, 2, 56, 48
4, 43560, Note_on_c, 2, 56, 0
4, 43560, Note_on_c, 2, 53, 48
4, 43595, Note_on_c, 2, 53, 0
4, 43620, Note_on_c, 2, 54, 49
4, 43655, Note_on_c, 2, 54, 0
4, 43680, Note_on_c, 2, 53, 49
4, 43800, Note_on_c, 2, 53, 0
4, 43800, Note_on_c, 2, 49, 49
4, 43835, Note_on_c, 2, 49, 0
4, 43860, Note_on_c, 2, 54, 50
4, 43920, Note_on_c, 2, 54, 0
4, 43920, Note_on_c, 2, 56, 50
4, 43980, Note_on_c, 2, 56, 0
4, 43980, Note_on_c, 2, 57, 50
4, 44015, Note_on_c, 2, 57, 0
4, 44040, Note_on_c, 2, 47, 50
4, 44100, Note_on_c, 2, 47, 0
4, 44100, Note_on_c, 2, 49, 50
4, 44160, Note_on_c, 2, 49, 0
4, 44160, Note_on_c, 2, 50, 51
4, 44195, Note_on_c, 2, 50, 0
4, 44220, Note_on_c, 2, 52, 51
4, 44280, Note_on_c, 2, 52, 0
4, 44280, Note_on_c, 2, 54, 51
4, 44340, Note_on_c, 2, 54, 0
4, 44340, Note_on_c, 2, 56, 51
4, 44375, Note_on_c, 2, 56, 0
4, 44400, Note_on_c, 2, 45, 52
4, 44460, Note_on_c, 2, 45, 0
4, 44460, Note_on_c, 2, 47, 52
4, 44520, Note_on_c, 2, 47, 0
4, 44520, Note_on_c, 2, 49, 52
4, 44555, Note_on_c, 2, 49, 0
4, 44580, Note_on_c, 2, 50, 52
4, 44820, Note_on_c, 2, 50, 0
4, 44820, Note_on_c, 2, 49, 53
4, 44880, Note_on_c, 2, 49, 0
4, 44880, Note_on_c, 2, 47, 53
4, 44915, Note_on_c, 2, 47, 0
4, 44940, Note_on_c, 2, 49, 54
4, 45000, Note_on_c, 2, 49, 0
4, 45000, Note_on_c, 2, 45, 54
4, 45060, Note_on_c, 2, 45, 0
4, 45060, Note_on_c, 2, 49, 54
4, 45095, Note_on_c, 2, 49, 0
4, 45120, Note_on_c, 2, 50, 54
4, 45240, Note_on_c, 2, 50, 0
4, 45300, Note_on_c, 2, 52, 55
4, 45420, Note_on_c, 2, 52, 0
4, 45480, Note_on_c, 2, 54, 53
4, 45600, Note_on_c, 2, 54, 0
4, 45660, Note_on_c, 2, 49, 51
4, 45780, Note_on_c, 2, 49, 0
4, 45840, Note_on_c, 2, 50, 48
4, 45960, Note_on_c, 2, 50, 0
4, 46020, Note_on_c, 2, 52, 46
4, 46140, Note_on_c, 2, 52, 0
4, 46200, Note_on_c, 2, 54, 44
4, 46260, Note_on_c, 2, 54, 0
4, 46260, Note_on_c, 2, 57, 54
4, 46320, Note_on_c, 2, 57, 0
4, 46320, Note_on_c, 2, 60, 57
4, 46355, Note_on_c, 2, 60, 0
4, 46380, Note_on_c, 2, 51, 59
4, 46440, Note_on_c, 2, 51, 0
4, 46440, Note_on_c, 2, 54, 62
4, 46500, Note_on_c, 2, 54, 0
4, 46500, Note_on_c, 2, 57, 64
4, 46535, Note_on_c, 2, 57, 0
4, 46560, Note_on_c, 2, 47, 67
4, 46620, Note_on_c, 2, 47, 0
4, 46620, Note_on_c, 2, 49, 68
4, 46680, Note_on_c, 2, 49, 0
4, 46680, Note_on_c, 2, 51, 68
4, 46715, Note_on_c, 2, 51, 0
4, 46740, Note_on_c, 2, 52, 68
4, 46800, Note_on_c, 2, 52, 0
4, 46800, Note_on_c, 2, 56, 68
4, 46860, Note_on_c, 2, 56, 0
4, 46860, Note_on_c, 2, 52, 68
4, 46895, Note_on_c, 2, 52, 0
4, 46920, Note_on_c, 2, 57, 68
4, 46980, Note_on_c, 2, 57, 0
4, 46980, Note_on_c, 2, 52, 68
4, 47040, Note_on_c, 2, 52, 0
4, 47040, Note_on_c, 2, 54, 68
4, 47075, Note_on_c, 2, 54, 0
4, 47100, Note_on_c, 2, 50, 68
4, 47160, Note_on_c, 2, 50, 0
4, 47160, Note_on_c, 2, 47, 68
4, 47220, Note_on_c, 2, 47, 0
4, 47220, Note_on_c, 2, 52, 68
4, 47255, Note_on_c, 2, 52, 0
4, 47280, Note_on_c, 2, 57, 66
4, 47310, Note_on_c, 2, 57, 0
4, 47310, Note_on_c, 2, 56, 64
4, 47340, Note_on_c, 2, 56, 0
4, 47340, Note_on_c, 2, 57, 61
4, 47375, Note_on_c, 2, 57, 0
4, 47400, Note_on_c, 2, 52, 56
4, 47435, Note_on_c, 2, 52, 0
4, 47460, Note_on_c, 2, 49, 51
4, 47580, Note_on_c, 2, 49, 0
4, 47580, Note_on_c, 2, 47, 48
4, 47615, Note_on_c, 2, 47, 0
4, 47640, Note_on_c, 2, 45, 48
4, 47760, Note_on_c, 2, 45, 0
4, 47760, Note_on_c, 2, 57, 50
4, 47795, Note_on_c, 2, 57, 0
4, 47820, Note_on_c, 2, 50, 50
4, 47940, Note_on_c, 2, 50, 0
4, 47940, Note_on_c, 2, 52, 52
4, 47975, Note_on_c, 2, 52, 0
4, 48000, Note_on_c, 2, 45, 53
4, 48120, Note_on_c, 2, 45, 0
4, 48120, Note_on_c, 2, 57, 54
4, 48155, Note_on_c, 2, 57, 0
4, 48180, Note_on_c, 2, 50, 55
4, 48300, Note_on_c, 2, 50, 0
4, 48300, Note_on_c, 2, 52, 56
4, 48335, Note_on_c, 2, 52, 0
4, 48360, Note_on_c, 2, 45, 57
4, 48480, Note_on_c, 2, 45, 0
4, 48480, Note_on_c, 2, 49, 58
4, 48515, Note_on_c, 2, 49, 0
4, 48540, Note_on_c, 2, 47, 59
4, 48660, Note_on_c, 2, 47, 0
4, 48660, Note_on_c, 2, 45, 60
4, 48695, Note_on_c, 2, 45, 0
4, 48720, Note_on_c, 2, 52, 60
4, 48840, Note_on_c, 2, 52, 0
4, 48840, Note_on_c, 2, 54, 57
4, 48875, Note_on_c, 2, 54, 0
4, 48900, Note_on_c, 2, 56, 55
4, 48960, Note_on_c, 2, 56, 0
4, 48960, Note_on_c, 2, 57, 53
4, 49020, Note_on_c, 2, 57, 0
4, 49020, Note_on_c, 2, 59, 51
4, 49055, Note_on_c, 2, 59, 0
4, 49080, Note_on_c, 2, 49, 50
4, 49200, Note_on_c, 2, 49, 0
4, 49440, Note_on_c, 2, 54, 47
4, 49620, Note_on_c, 2, 54, 0
4, 49740, Note_on_c, 2, 52, 44
4, 49800, Note_on_c, 2, 52, 0
4, 49800, Note_on_c, 2, 50, 57
4, 49835, Note_on_c, 2, 50, 0
4, 49860, Note_on_c, 2, 62, 57
4, 49920, Note_on_c, 2, 62, 0
4, 49920, Note_on_c, 2, 61, 57
4, 49955, Note_on_c, 2, 61, 0
4, 49980, Note_on_c, 2, 59, 57
4, 50040, Note_on_c, 2, 59, 0
4, 50040, Note_on_c, 2, 56, 57
4, 50075, Note_on_c, 2, 56, 0
4, 50100, Note_on_c, 2, 57, 57
4, 50135, Note_on_c, 2, 57, 0
4, 50160, Note_on_c, 2, 56, 57
4, 50220, Note_on_c, 2, 56, 0
4, 50220, Note_on_c, 2, 54, 55
4, 50280, Note_on_c, 2, 54, 0
4, 50280, Note_on_c, 2, 52, 58
4, 50315, Note_on_c, 2, 52, 0
4, 50340, Note_on_c, 2, 57, 61
4, 50400, Note_on_c, 2, 57, 0
4, 50400, Note_on_c, 2, 59, 63
4, 50460, Note_on_c, 2, 59, 0
4, 50460, Note_on_c, 2, 61, 66
4, 50495, Note_on_c, 2, 61, 0
4, 50520, Note_on_c, 2, 50, 69
4, 50640, Note_on_c, 2, 50, 0
4, 50700, Note_on_c, 2, 52, 72
4, 50820, Note_on_c, 2, 52, 0
4, 50880, Note_on_c, 2, 54, 75
4, 51000, Note_on_c, 2, 54, 0
4, 51060, Note_on_c, 2, 49, 51
4, 51180, Note_on_c, 2, 49, 0
4, 51240, Note_on_c, 2, 50, 58
4, 51360, Note_on_c, 2, 50, 0
4, 51420, Note_on_c, 2, 52, 55
4, 51540, Note_on_c, 2, 52, 0
4, 51600, Note_on_c, 2, 45, 48
4, 51780, Note_on_c, 2, 45, 0
4, 51960, Control_c, 2, 121, 127
4, 51960, End_track
5, 0, Start_track
5, 0, MIDI_port, 0
5, 0, Title_t, "Bass"
5, 0, Program_c, 3, 64
5, 0, Control_c, 3, 10, 70
5, 0, Control_c, 3, 121, 127
5, 0, Control_c, 3, 91, 127
5, 0, Control_c, 3, 1, 15
5, 4620, Note_on_c, 3, 57, 58
5, 4740, Note_on_c, 3, 57, 0
5, 4740, Note_on_c, 3, 59, 64
5, 4775, Note_on_c, 3, 59, 0
5, 4800, Note_on_c, 3, 61, 67
5, 4860, Note_on_c, 3, 61, 0
5, 4860, Note_on_c, 3, 62, 70
5, 4920, Note_on_c, 3, 62, 0
5, 4920, Note_on_c, 3, 64, 73
5, 4955, Note_on_c, 3, 64, 0
5, 4980, Note_on_c, 3, 62, 72
5, 5040, Note_on_c, 3, 62, 0
5, 5040, Note_on_c, 3, 61, 68
5, 5100, Note_on_c, 3, 61, 0
5, 5100, Note_on_c, 3, 59, 63
5, 5135, Note_on_c, 3, 59, 0
5, 5160, Note_on_c, 3, 61, 62
5, 5220, Note_on_c, 3, 61, 0
5, 5220, Note_on_c, 3, 62, 66
5, 5280, Note_on_c, 3, 62, 0
5, 5280, Note_on_c, 3, 64, 70
5, 5315, Note_on_c, 3, 64, 0
5, 5340, Note_on_c, 3, 62, 74
5, 5400, Note_on_c, 3, 62, 0
5, 5400, Note_on_c, 3, 61, 71
5, 5460, Note_on_c, 3, 61, 0
5, 5460, Note_on_c, 3, 59, 66
5, 5495, Note_on_c, 3, 59, 0
5, 5520, Note_on_c, 3, 61, 58
5, 5550, Note_on_c, 3, 61, 0
5, 5550, Note_on_c, 3, 62, 63
5, 5580, Note_on_c, 3, 62, 0
5, 5580, Note_on_c, 3, 64, 64
5, 5640, Note_on_c, 3, 64, 0
5, 5640, Note_on_c, 3, 57, 67
5, 5700, Note_on_c, 3, 57, 0
5, 5700, Note_on_c, 3, 62, 71
5, 5760, Note_on_c, 3, 62, 0
5, 5760, Note_on_c, 3, 61, 70
5, 5790, Note_on_c, 3, 61, 0
5, 5790, Note_on_c, 3, 59, 68
5, 5820, Note_on_c, 3, 59, 0
5, 5820, Note_on_c, 3, 61, 67
5, 5850, Note_on_c, 3, 61, 0
5, 5850, Note_on_c, 3, 57, 65
5, 5880, Note_on_c, 3, 57, 0
5, 5880, Note_on_c, 3, 59, 64
5, 6000, Note_on_c, 3, 59, 0
5, 6000, Note_on_c, 3, 52, 58
5, 6060, Note_on_c, 3, 52, 0
5, 8940, Note_on_c, 3, 57, 56
5, 9060, Note_on_c, 3, 57, 0
5, 9060, Note_on_c, 3, 56, 62
5, 9095, Note_on_c, 3, 56, 0
5, 9120, Note_on_c, 3, 57, 65
5, 9180, Note_on_c, 3, 57, 0
5, 9180, Note_on_c, 3, 59, 68
5, 9240, Note_on_c, 3, 59, 0
5, 9240, Note_on_c, 3, 61, 71
5, 9275, Note_on_c, 3, 61, 0
5, 9300, Note_on_c, 3, 59, 69
5, 9360, Note_on_c, 3, 59, 0
5, 9360, Note_on_c, 3, 57, 65
5, 9420, Note_on_c, 3, 57, 0
5, 9420, Note_on_c, 3, 56, 61
5, 9455, Note_on_c, 3, 56, 0
5, 9480, Note_on_c, 3, 57, 57
5, 9600, Note_on_c, 3, 57, 0
5, 9600, Note_on_c, 3, 52, 50
5, 9660, Note_on_c, 3, 52, 0
5, 9660, Note_on_c, 3, 54, 55
5, 9720, Note_on_c, 3, 54, 0
5, 9720, Note_on_c, 3, 57, 59
5, 9780, Note_on_c, 3, 57, 0
5, 9780, Note_on_c, 3, 56, 62
5, 9815, Note_on_c, 3, 56, 0
5, 9840, Note_on_c, 3, 57, 65
5, 9900, Note_on_c, 3, 57, 0
5, 9900, Note_on_c, 3, 59, 69
5, 9960, Note_on_c, 3, 59, 0
5, 9960, Note_on_c, 3, 61, 72
5, 10020, Note_on_c, 3, 61, 0
5, 10020, Note_on_c, 3, 59, 73
5, 10080, Note_on_c, 3, 59, 0
5, 10080, Note_on_c, 3, 56, 67
5, 10140, Note_on_c, 3, 56, 0
5, 10140, Note_on_c, 3, 57, 62
5, 10175, Note_on_c, 3, 57, 0
5, 10200, Note_on_c, 3, 52, 56
5, 10320, Note_on_c, 3, 52, 0
5, 10380, Note_on_c, 3, 59, 54
5, 10440, Note_on_c, 3, 59, 0
5, 10440, Note_on_c, 3, 61, 59
5, 10500, Note_on_c, 3, 61, 0
5, 10500, Note_on_c, 3, 62, 64
5, 10560, Note_on_c, 3, 62, 0
5, 10560, Note_on_c, 3, 64, 70
5, 10680, Note_on_c, 3, 64, 0
5, 10680, Note_on_c, 3, 52, 47
5, 10740, Note_on_c, 3, 52, 0
5, 11100, Note_on_c, 3, 58, 56
5, 11160, Note_on_c, 3, 58, 0
5, 11160, Note_on_c, 3, 56, 60
5, 11220, Note_on_c, 3, 56, 0
5, 11220, Note_on_c, 3, 54, 64
5, 11280, Note_on_c, 3, 54, 0
5, 11280, Note_on_c, 3, 59, 68
5, 11400, Note_on_c, 3, 59, 0
5, 11400, Note_on_c, 3, 47, 48
5, 11435, Note_on_c, 3, 47, 0
5, 11460, Note_on_c, 3, 54, 51
5, 11520, Note_on_c, 3, 54, 0
5, 11520, Note_on_c, 3, 56, 55
5, 11580, Note_on_c, 3, 56, 0
5, 11580, Note_on_c, 3, 57, 58
5, 11640, Note_on_c, 3, 57, 0
5, 11640, Note_on_c, 3, 59, 61
5, 11760, Note_on_c, 3, 59, 0
5, 11760, Note_on_c, 3, 57, 58
5, 11795, Note_on_c, 3, 57, 0
5, 11820, Note_on_c, 3, 56, 56
5, 11880, Note_on_c, 3, 56, 0
5, 11880, Note_on_c, 3, 54, 54
5, 11940, Note_on_c, 3, 54, 0
5, 11940, Note_on_c, 3, 52, 52
5, 12000, Note_on_c, 3, 52, 0
5, 12000, Note_on_c, 3, 57, 55
5, 12120, Note_on_c, 3, 57, 0
5, 12120, Note_on_c, 3, 45, 45
5, 12155, Note_on_c, 3, 45, 0
5, 12180, Note_on_c, 3, 52, 46
5, 12240, Note_on_c, 3, 52, 0
5, 12240, Note_on_c, 3, 54, 47
5, 12300, Note_on_c, 3, 54, 0
5, 12300, Note_on_c, 3, 56, 48
5, 12335, Note_on_c, 3, 56, 0
5, 12360, Note_on_c, 3, 57, 49
5, 12420, Note_on_c, 3, 57, 0
5, 12420, Note_on_c, 3, 54, 50
5, 12480, Note_on_c, 3, 54, 0
5, 12480, Note_on_c, 3, 56, 51
5, 12515, Note_on_c, 3, 56, 0
5, 12540, Note_on_c, 3, 54, 52
5, 12600, Note_on_c, 3, 54, 0
5, 12600, Note_on_c, 3, 51, 53
5, 12660, Note_on_c, 3, 51, 0
5, 12660, Note_on_c, 3, 52, 54
5, 12695, Note_on_c, 3, 52, 0
5, 12720, Note_on_c, 3, 47, 55
5, 12840, Note_on_c, 3, 47, 0
5, 12900, Note_on_c, 3, 54, 53
5, 12960, Note_on_c, 3, 54, 0
5, 12960, Note_on_c, 3, 57, 44
5, 13020, Note_on_c, 3, 57, 0
5, 13020, Note_on_c, 3, 56, 58
5, 13055, Note_on_c, 3, 56, 0
5, 13080, Note_on_c, 3, 56, 60
5, 13140, Note_on_c, 3, 56, 0
5, 13140, Note_on_c, 3, 59, 49
5, 13200, Note_on_c, 3, 59, 0
5, 13200, Note_on_c, 3, 57, 65
5, 13235, Note_on_c, 3, 57, 0
5, 13260, Note_on_c, 3, 57, 67
5, 13320, Note_on_c, 3, 57, 0
5, 13320, Note_on_c, 3, 61, 57
5, 13380, Note_on_c, 3, 61, 0
5, 13380, Note_on_c, 3, 59, 72
5, 13415, Note_on_c, 3, 59, 0
5, 13440, Note_on_c, 3, 59, 74
5, 13835, Note_on_c, 3, 59, 0
5, 13860, Note_on_c, 3, 52, 74
5, 13920, Note_on_c, 3, 52, 0
5, 13920, Note_on_c, 3, 56, 74
5, 13980, Note_on_c, 3, 56, 0
5, 13980, Note_on_c, 3, 57, 73
5, 14220, Note_on_c, 3, 57, 0
5, 14220, Note_on_c, 3, 51, 70
5, 14280, Note_on_c, 3, 51, 0
5, 14280, Note_on_c, 3, 54, 69
5, 14340, Note_on_c, 3, 54, 0
5, 14340, Note_on_c, 3, 56, 68
5, 14580, Note_on_c, 3, 56, 0
5, 14580, Note_on_c, 3, 61, 64
5, 14610, Note_on_c, 3, 61, 0
5, 14610, Note_on_c, 3, 59, 64
5, 14640, Note_on_c, 3, 59, 0
5, 14640, Note_on_c, 3, 57, 64
5, 14670, Note_on_c, 3, 57, 0
5, 14670, Note_on_c, 3, 56, 64
5, 14700, Note_on_c, 3, 56, 0
5, 14700, Note_on_c, 3, 54, 64
5, 14940, Note_on_c, 3, 54, 0
5, 14940, Note_on_c, 3, 48, 62
5, 15000, Note_on_c, 3, 48, 0
5, 15000, Note_on_c, 3, 51, 60
5, 15060, Note_on_c, 3, 51, 0
5, 15060, Note_on_c, 3, 52, 58
5, 15300, Note_on_c, 3, 52, 0
5, 15300, Note_on_c, 3, 51, 51
5, 15335, Note_on_c, 3, 51, 0
5, 15360, Note_on_c, 3, 49, 49
5, 15420, Note_on_c, 3, 49, 0
5, 15420, Note_on_c, 3, 51, 47
5, 15480, Note_on_c, 3, 51, 0
5, 15480, Note_on_c, 3, 52, 51
5, 15540, Note_on_c, 3, 52, 0
5, 15540, Note_on_c, 3, 54, 55
5, 15600, Note_on_c, 3, 54, 0
5, 15600, Note_on_c, 3, 56, 58
5, 15660, Note_on_c, 3, 56, 0
5, 15660, Note_on_c, 3, 57, 62
5, 15720, Note_on_c, 3, 57, 0
5, 15720, Note_on_c, 3, 59, 66
5, 15780, Note_on_c, 3, 59, 0
5, 15780, Note_on_c, 3, 61, 70
5, 15840, Note_on_c, 3, 61, 0
5, 15840, Note_on_c, 3, 63, 73
5, 15900, Note_on_c, 3, 63, 0
5, 15900, Note_on_c, 3, 64, 77
5, 15960, Note_on_c, 3, 64, 0
5, 15960, Note_on_c, 3, 63, 81
5, 16020, Note_on_c, 3, 63, 0
5, 16020, Note_on_c, 3, 59, 80
5, 16080, Note_on_c, 3, 59, 0
5, 16080, Note_on_c, 3, 61, 76
5, 16140, Note_on_c, 3, 61, 0
5, 16140, Note_on_c, 3, 59, 73
5, 16175, Note_on_c, 3, 59, 0
5, 16200, Note_on_c, 3, 54, 69
5, 16260, Note_on_c, 3, 54, 0
5, 16260, Note_on_c, 3, 56, 66
5, 16320, Note_on_c, 3, 56, 0
5, 16320, Note_on_c, 3, 52, 58
5, 16560, Note_on_c, 3, 52, 0
5, 16560, Note_on_c, 3, 57, 69
5, 16620, Note_on_c, 3, 57, 0
5, 16620, Note_on_c, 3, 56, 72
5, 16655, Note_on_c, 3, 56, 0
5, 16680, Note_on_c, 3, 56, 74
5, 16740, Note_on_c, 3, 56, 0
5, 16740, Note_on_c, 3, 63, 77
5, 16800, Note_on_c, 3, 63, 0
5, 16800, Note_on_c, 3, 64, 80
5, 16860, Note_on_c, 3, 64, 0
5, 16860, Note_on_c, 3, 59, 76
5, 17075, Note_on_c, 3, 59, 0
5, 17100, Note_on_c, 3, 51, 76
5, 17160, Note_on_c, 3, 51, 0
5, 17160, Note_on_c, 3, 52, 77
5, 17220, Note_on_c, 3, 52, 0
5, 17220, Note_on_c, 3, 56, 77
5, 17280, Note_on_c, 3, 56, 0
5, 17280, Note_on_c, 3, 54, 77
5, 17340, Note_on_c, 3, 54, 0
5, 17340, Note_on_c, 3, 52, 77
5, 17375, Note_on_c, 3, 52, 0
5, 17400, Note_on_c, 3, 52, 77
5, 17520, Note_on_c, 3, 52, 0
5, 21900, Note_on_c, 3, 52, 53
5, 21960, Note_on_c, 3, 52, 0
5, 21960, Note_on_c, 3, 54, 53
5, 22020, Note_on_c, 3, 54, 0
5, 22020, Note_on_c, 3, 55, 53
5, 22055, Note_on_c, 3, 55, 0
5, 22080, Note_on_c, 3, 46, 53
5, 22140, Note_on_c, 3, 46, 0
5, 22140, Note_on_c, 3, 49, 53
5, 22200, Note_on_c, 3, 49, 0
5, 22200, Note_on_c, 3, 52, 54
5, 22260, Note_on_c, 3, 52, 0
5, 22260, Note_on_c, 3, 55, 54
5, 22320, Note_on_c, 3, 55, 0
5, 22320, Note_on_c, 3, 54, 54
5, 22380, Note_on_c, 3, 54, 0
5, 22380, Note_on_c, 3, 52, 54
5, 22440, Note_on_c, 3, 52, 0
5, 22440, Note_on_c, 3, 50, 54
5, 22500, Note_on_c, 3, 50, 0
5, 22500, Note_on_c, 3, 49, 50
5, 22560, Note_on_c, 3, 49, 0
5, 22560, Note_on_c, 3, 47, 46
5, 22595, Note_on_c, 3, 47, 0
5, 22620, Note_on_c, 3, 54, 52
5, 22680, Note_on_c, 3, 54, 0
5, 22680, Note_on_c, 3, 56, 55
5, 22740, Note_on_c, 3, 56, 0
5, 22740, Note_on_c, 3, 57, 57
5, 22800, Note_on_c, 3, 57, 0
5, 22800, Note_on_c, 3, 59, 59
5, 22860, Note_on_c, 3, 59, 0
5, 22860, Note_on_c, 3, 62, 61
5, 22920, Note_on_c, 3, 62, 0
5, 22920, Note_on_c, 3, 61, 63
5, 22980, Note_on_c, 3, 61, 0
5, 22980, Note_on_c, 3, 57, 67
5, 23040, Note_on_c, 3, 57, 0
5, 23040, Note_on_c, 3, 56, 64
5, 23100, Note_on_c, 3, 56, 0
5, 23100, Note_on_c, 3, 54, 61
5, 23160, Note_on_c, 3, 54, 0
5, 23160, Note_on_c, 3, 53, 57
5, 23220, Note_on_c, 3, 53, 0
5, 23220, Note_on_c, 3, 51, 54
5, 23280, Note_on_c, 3, 51, 0
5, 23280, Note_on_c, 3, 49, 51
5, 23315, Note_on_c, 3, 49, 0
5, 23340, Note_on_c, 3, 61, 58
5, 23460, Note_on_c, 3, 61, 0
5, 23460, Note_on_c, 3, 56, 64
5, 23520, Note_on_c, 3, 56, 0
5, 23520, Note_on_c, 3, 57, 68
5, 23940, Note_on_c, 3, 57, 0
5, 23940, Note_on_c, 3, 56, 70
5, 24000, Note_on_c, 3, 56, 0
5, 24000, Note_on_c, 3, 54, 70
5, 24120, Note_on_c, 3, 54, 0
5, 24120, Note_on_c, 3, 52, 71
5, 24180, Note_on_c, 3, 52, 0
5, 24180, Note_on_c, 3, 50, 71
5, 24240, Note_on_c, 3, 50, 0
5, 24240, Note_on_c, 3, 59, 71
5, 24660, Note_on_c, 3, 59, 0
5, 24660, Note_on_c, 3, 57, 74
5, 24720, Note_on_c, 3, 57, 0
5, 24720, Note_on_c, 3, 56, 74
5, 24780, Note_on_c, 3, 56, 0
5, 24780, Note_on_c, 3, 57, 74
5, 25020, Note_on_c, 3, 57, 0
5, 25020, Note_on_c, 3, 59, 76
5, 25080, Note_on_c, 3, 59, 0
5, 25080, Note_on_c, 3, 61, 76
5, 25115, Note_on_c, 3, 61, 0
5, 25140, Note_on_c, 3, 59, 76
5, 25200, Note_on_c, 3, 59, 0
5, 25200, Note_on_c, 3, 56, 77
5, 25260, Note_on_c, 3, 56, 0
5, 25260, Note_on_c, 3, 57, 77
5, 25320, Note_on_c, 3, 57, 0
5, 25320, Note_on_c, 3, 56, 77
5, 25380, Note_on_c, 3, 56, 0
5, 25380, Note_on_c, 3, 57, 78
5, 25440, Note_on_c, 3, 57, 0
5, 25440, Note_on_c, 3, 59, 78
5, 25475, Note_on_c, 3, 59, 0
5, 25500, Note_on_c, 3, 61, 78
5, 25740, Note_on_c, 3, 61, 0
5, 25740, Note_on_c, 3, 62, 73
5, 25800, Note_on_c, 3, 62, 0
5, 25800, Note_on_c, 3, 64, 74
5, 25860, Note_on_c, 3, 64, 0
5, 25860, Note_on_c, 3, 62, 74
5, 25920, Note_on_c, 3, 62, 0
5, 25920, Note_on_c, 3, 61, 74
5, 25950, Note_on_c, 3, 61, 0
5, 25950, Note_on_c, 3, 59, 74
5, 25980, Note_on_c, 3, 59, 0
5, 25980, Note_on_c, 3, 61, 74
5, 26040, Note_on_c, 3, 61, 0
5, 26040, Note_on_c, 3, 59, 74
5, 26160, Note_on_c, 3, 59, 0
5, 26160, Note_on_c, 3, 57, 74
5, 26195, Note_on_c, 3, 57, 0
5, 26220, Note_on_c, 3, 56, 74
5, 26280, Note_on_c, 3, 56, 0
5, 26280, Note_on_c, 3, 62, 74
5, 26340, Note_on_c, 3, 62, 0
5, 26340, Note_on_c, 3, 61, 75
5, 26400, Note_on_c, 3, 61, 0
5, 26400, Note_on_c, 3, 57, 75
5, 26460, Note_on_c, 3, 57, 0
5, 26460, Note_on_c, 3, 56, 75
5, 26520, Note_on_c, 3, 56, 0
5, 26520, Note_on_c, 3, 54, 75
5, 26580, Note_on_c, 3, 54, 0
5, 26580, Note_on_c, 3, 53, 75
5, 26760, Note_on_c, 3, 53, 0
5, 26760, Note_on_c, 3, 54, 75
5, 26940, Note_on_c, 3, 54, 0
5, 28380, Note_on_c, 3, 49, 54
5, 28440, Note_on_c, 3, 49, 0
5, 28440, Note_on_c, 3, 51, 56
5, 28500, Note_on_c, 3, 51, 0
5, 28500, Note_on_c, 3, 53, 58
5, 28560, Note_on_c, 3, 53, 0
5, 28560, Note_on_c, 3, 54, 61
5, 28620, Note_on_c, 3, 54, 0
5, 28620, Note_on_c, 3, 56, 63
5, 28680, Note_on_c, 3, 56, 0
5, 28680, Note_on_c, 3, 57, 65
5, 28740, Note_on_c, 3, 57, 0
5, 28740, Note_on_c, 3, 56, 67
5, 28800, Note_on_c, 3, 56, 0
5, 28800, Note_on_c, 3, 57, 70
5, 28860, Note_on_c, 3, 57, 0
5, 28860, Note_on_c, 3, 59, 72
5, 28920, Note_on_c, 3, 59, 0
5, 28920, Note_on_c, 3, 57, 74
5, 28980, Note_on_c, 3, 57, 0
5, 28980, Note_on_c, 3, 56, 71
5, 29040, Note_on_c, 3, 56, 0
5, 29040, Note_on_c, 3, 54, 66
5, 29100, Note_on_c, 3, 54, 0
5, 29100, Note_on_c, 3, 53, 61
5, 29160, Note_on_c, 3, 53, 0
5, 29160, Note_on_c, 3, 54, 56
5, 29195, Note_on_c, 3, 54, 0
5, 29220, Note_on_c, 3, 56, 52
5, 29280, Note_on_c, 3, 56, 0
5, 29280, Note_on_c, 3, 57, 56
5, 29340, Note_on_c, 3, 57, 0
5, 29340, Note_on_c, 3, 59, 59
5, 29400, Note_on_c, 3, 59, 0
5, 29400, Note_on_c, 3, 61, 63
5, 29460, Note_on_c, 3, 61, 0
5, 29460, Note_on_c, 3, 59, 66
5, 29520, Note_on_c, 3, 59, 0
5, 29520, Note_on_c, 3, 61, 69
5, 29580, Note_on_c, 3, 61, 0
5, 29580, Note_on_c, 3, 62, 73
5, 29640, Note_on_c, 3, 62, 0
5, 29640, Note_on_c, 3, 61, 76
5, 29700, Note_on_c, 3, 61, 0
5, 29700, Note_on_c, 3, 59, 74
5, 29760, Note_on_c, 3, 59, 0
5, 29760, Note_on_c, 3, 57, 66
5, 29795, Note_on_c, 3, 57, 0
5, 29820, Note_on_c, 3, 56, 58
5, 29880, Note_on_c, 3, 56, 0
5, 29880, Note_on_c, 3, 53, 63
5, 29940, Note_on_c, 3, 53, 0
5, 29940, Note_on_c, 3, 54, 68
5, 30000, Note_on_c, 3, 54, 0
5, 30000, Note_on_c, 3, 62, 73
5, 30060, Note_on_c, 3, 62, 0
5, 30060, Note_on_c, 3, 61, 74
5, 30120, Note_on_c, 3, 61, 0
5, 30120, Note_on_c, 3, 59, 74
5, 30180, Note_on_c, 3, 59, 0
5, 30180, Note_on_c, 3, 57, 74
5, 30240, Note_on_c, 3, 57, 0
5, 30240, Note_on_c, 3, 53, 74
5, 30300, Note_on_c, 3, 53, 0
5, 30300, Note_on_c, 3, 54, 74
5, 30360, Note_on_c, 3, 54, 0
5, 30360, Note_on_c, 3, 49, 74
5, 30540, Note_on_c, 3, 49, 0
5, 30840, Note_on_c, 3, 54, 61
5, 30900, Note_on_c, 3, 54, 0
5, 30900, Note_on_c, 3, 59, 63
5, 30960, Note_on_c, 3, 59, 0
5, 30960, Note_on_c, 3, 57, 65
5, 31020, Note_on_c, 3, 57, 0
5, 31020, Note_on_c, 3, 56, 67
5, 31080, Note_on_c, 3, 56, 0
5, 31080, Note_on_c, 3, 54, 68
5, 31115, Note_on_c, 3, 54, 0
5, 31140, Note_on_c, 3, 54, 70
5, 31200, Note_on_c, 3, 54, 0
5, 31200, Note_on_c, 3, 58, 72
5, 31260, Note_on_c, 3, 58, 0
5, 31260, Note_on_c, 3, 61, 74
5, 31560, Note_on_c, 3, 61, 0
5, 31560, Note_on_c, 3, 59, 64
5, 31620, Note_on_c, 3, 59, 0
5, 31740, Note_on_c, 3, 59, 53
5, 31800, Note_on_c, 3, 59, 0
5, 31800, Note_on_c, 3, 59, 56
5, 31860, Note_on_c, 3, 59, 0
5, 31860, Note_on_c, 3, 57, 60
5, 31920, Note_on_c, 3, 57, 0
5, 31920, Note_on_c, 3, 56, 63
5, 31980, Note_on_c, 3, 56, 0
5, 31980, Note_on_c, 3, 57, 66
5, 32040, Note_on_c, 3, 57, 0
5, 32040, Note_on_c, 3, 56, 69
5, 32100, Note_on_c, 3, 56, 0
5, 32100, Note_on_c, 3, 54, 72
5, 32160, Note_on_c, 3, 54, 0
5, 32160, Note_on_c, 3, 62, 75
5, 32400, Note_on_c, 3, 62, 0
5, 32400, Note_on_c, 3, 61, 76
5, 32460, Note_on_c, 3, 61, 0
5, 32460, Note_on_c, 3, 59, 76
5, 32495, Note_on_c, 3, 59, 0
5, 32520, Note_on_c, 3, 61, 76
5, 32580, Note_on_c, 3, 61, 0
5, 32580, Note_on_c, 3, 53, 77
5, 32640, Note_on_c, 3, 53, 0
5, 32640, Note_on_c, 3, 54, 77
5, 32700, Note_on_c, 3, 54, 0
5, 32700, Note_on_c, 3, 49, 77
5, 32760, Note_on_c, 3, 49, 0
5, 32760, Note_on_c, 3, 47, 78
5, 32820, Note_on_c, 3, 47, 0
5, 32820, Note_on_c, 3, 49, 78
5, 32880, Note_on_c, 3, 49, 0
5, 32880, Note_on_c, 3, 42, 78
5, 33000, Note_on_c, 3, 42, 0
5, 33420, Note_on_c, 3, 57, 72
5, 33480, Note_on_c, 3, 57, 0
5, 33480, Note_on_c, 3, 61, 75
5, 33540, Note_on_c, 3, 61, 0
5, 33540, Note_on_c, 3, 59, 78
5, 33600, Note_on_c, 3, 59, 0
5, 33600, Note_on_c, 3, 61, 81
5, 33660, Note_on_c, 3, 61, 0
5, 33660, Note_on_c, 3, 62, 84
5, 33720, Note_on_c, 3, 62, 0
5, 33720, Note_on_c, 3, 64, 87
5, 33780, Note_on_c, 3, 64, 0
5, 33780, Note_on_c, 3, 62, 88
5, 33840, Note_on_c, 3, 62, 0
5, 33840, Note_on_c, 3, 61, 84
5, 33900, Note_on_c, 3, 61, 0
5, 33900, Note_on_c, 3, 59, 80
5, 33935, Note_on_c, 3, 59, 0
5, 33960, Note_on_c, 3, 61, 76
5, 34020, Note_on_c, 3, 61, 0
5, 34020, Note_on_c, 3, 62, 81
5, 34080, Note_on_c, 3, 62, 0
5, 34080, Note_on_c, 3, 64, 85
5, 34140, Note_on_c, 3, 64, 0
5, 34140, Note_on_c, 3, 62, 88
5, 34200, Note_on_c, 3, 62, 0
5, 34200, Note_on_c, 3, 61, 84
5, 34260, Note_on_c, 3, 61, 0
5, 34260, Note_on_c, 3, 59, 81
5, 34320, Note_on_c, 3, 59, 0
5, 34320, Note_on_c, 3, 61, 78
5, 34380, Note_on_c, 3, 61, 0
5, 34380, Note_on_c, 3, 56, 82
5, 34440, Note_on_c, 3, 56, 0
5, 34440, Note_on_c, 3, 57, 86
5, 34500, Note_on_c, 3, 57, 0
5, 34500, Note_on_c, 3, 62, 88
5, 34560, Note_on_c, 3, 62, 0
5, 34560, Note_on_c, 3, 61, 88
5, 34590, Note_on_c, 3, 61, 0
5, 34590, Note_on_c, 3, 59, 88
5, 34620, Note_on_c, 3, 59, 0
5, 34620, Note_on_c, 3, 61, 88
5, 34650, Note_on_c, 3, 61, 0
5, 34650, Note_on_c, 3, 57, 88
5, 34680, Note_on_c, 3, 57, 0
5, 34680, Note_on_c, 3, 59, 88
5, 34800, Note_on_c, 3, 59, 0
5, 34800, Note_on_c, 3, 56, 78
5, 34860, Note_on_c, 3, 56, 0
5, 34860, Note_on_c, 3, 52, 64
5, 34980, Note_on_c, 3, 52, 0
5, 37740, Note_on_c, 3, 45, 56
5, 37800, Note_on_c, 3, 45, 0
5, 37800, Note_on_c, 3, 57, 58
5, 37860, Note_on_c, 3, 57, 0
5, 37860, Note_on_c, 3, 56, 60
5, 37920, Note_on_c, 3, 56, 0
5, 37920, Note_on_c, 3, 57, 62
5, 37980, Note_on_c, 3, 57, 0
5, 37980, Note_on_c, 3, 59, 64
5, 38040, Note_on_c, 3, 59, 0
5, 38040, Note_on_c, 3, 61, 66
5, 38100, Note_on_c, 3, 61, 0
5, 38100, Note_on_c, 3, 59, 68
5, 38160, Note_on_c, 3, 59, 0
5, 38160, Note_on_c, 3, 57, 70
5, 38220, Note_on_c, 3, 57, 0
5, 38220, Note_on_c, 3, 56, 72
5, 38280, Note_on_c, 3, 56, 0
5, 38280, Note_on_c, 3, 64, 71
5, 38340, Note_on_c, 3, 64, 0
5, 38340, Note_on_c, 3, 52, 69
5, 38400, Note_on_c, 3, 52, 0
5, 38400, Note_on_c, 3, 52, 68
5, 38460, Note_on_c, 3, 52, 0
5, 38460, Note_on_c, 3, 54, 66
5, 38520, Note_on_c, 3, 54, 0
5, 38520, Note_on_c, 3, 57, 64
5, 38580, Note_on_c, 3, 57, 0
5, 38580, Note_on_c, 3, 56, 63
5, 38640, Note_on_c, 3, 56, 0
5, 38640, Note_on_c, 3, 57, 61
5, 38700, Note_on_c, 3, 57, 0
5, 38700, Note_on_c, 3, 59, 60
5, 38735, Note_on_c, 3, 59, 0
5, 38760, Note_on_c, 3, 61, 58
5, 38795, Note_on_c, 3, 61, 0
5, 38820, Note_on_c, 3, 59, 56
5, 38880, Note_on_c, 3, 59, 0
5, 38880, Note_on_c, 3, 56, 55
5, 38915, Note_on_c, 3, 56, 0
5, 38940, Note_on_c, 3, 57, 53
5, 39000, Note_on_c, 3, 57, 0
5, 39000, Note_on_c, 3, 52, 51
5, 39120, Note_on_c, 3, 52, 0
5, 39180, Note_on_c, 3, 59, 59
5, 39240, Note_on_c, 3, 59, 0
5, 39240, Note_on_c, 3, 61, 63
5, 39300, Note_on_c, 3, 61, 0
5, 39300, Note_on_c, 3, 62, 67
5, 39360, Note_on_c, 3, 62, 0
5, 39360, Note_on_c, 3, 64, 72
5, 39480, Note_on_c, 3, 64, 0
5, 39480, Note_on_c, 3, 52, 64
5, 39540, Note_on_c, 3, 52, 0
5, 39840, Note_on_c, 3, 64, 54
5, 39900, Note_on_c, 3, 64, 0
5, 39900, Note_on_c, 3, 58, 42
5, 39960, Note_on_c, 3, 58, 0
5, 39960, Note_on_c, 3, 59, 44
5, 39990, Note_on_c, 3, 59, 0
5, 39990, Note_on_c, 3, 58, 45
5, 40020, Note_on_c, 3, 58, 0
5, 40020, Note_on_c, 3, 56, 46
5, 40050, Note_on_c, 3, 56, 0
5, 40050, Note_on_c, 3, 58, 47
5, 40080, Note_on_c, 3, 58, 0
5, 40080, Note_on_c, 3, 59, 48
5, 40320, Note_on_c, 3, 59, 0
5, 40320, Note_on_c, 3, 61, 56
5, 40350, Note_on_c, 3, 61, 0
5, 40350, Note_on_c, 3, 59, 57
5, 40380, Note_on_c, 3, 59, 0
5, 40380, Note_on_c, 3, 57, 58
5, 40410, Note_on_c, 3, 57, 0
5, 40410, Note_on_c, 3, 59, 59
5, 40440, Note_on_c, 3, 59, 0
5, 40440, Note_on_c, 3, 56, 60
5, 40680, Note_on_c, 3, 56, 0
5, 40680, Note_on_c, 3, 57, 67
5, 40710, Note_on_c, 3, 57, 0
5, 40710, Note_on_c, 3, 56, 68
5, 40740, Note_on_c, 3, 56, 0
5, 40740, Note_on_c, 3, 54, 69
5, 40770, Note_on_c, 3, 54, 0
5, 40770, Note_on_c, 3, 56, 70
5, 40800, Note_on_c, 3, 56, 0
5, 40800, Note_on_c, 3, 57, 71
5, 41040, Note_on_c, 3, 57, 0
5, 41040, Note_on_c, 3, 61, 79
5, 41070, Note_on_c, 3, 61, 0
5, 41070, Note_on_c, 3, 59, 80
5, 41100, Note_on_c, 3, 59, 0
5, 41100, Note_on_c, 3, 62, 81
5, 41130, Note_on_c, 3, 62, 0
5, 41130, Note_on_c, 3, 61, 82
5, 41160, Note_on_c, 3, 61, 0
5, 41160, Note_on_c, 3, 64, 83
5, 41190, Note_on_c, 3, 64, 0
5, 41190, Note_on_c, 3, 62, 83
5, 41220, Note_on_c, 3, 62, 0
5, 41220, Note_on_c, 3, 61, 83
5, 41250, Note_on_c, 3, 61, 0
5, 41250, Note_on_c, 3, 59, 83
5, 41280, Note_on_c, 3, 59, 0
5, 41280, Note_on_c, 3, 61, 84
5, 41310, Note_on_c, 3, 61, 0
5, 41310, Note_on_c, 3, 57, 84
5, 41340, Note_on_c, 3, 57, 0
5, 41340, Note_on_c, 3, 61, 84
5, 41370, Note_on_c, 3, 61, 0
5, 41370, Note_on_c, 3, 59, 85
5, 41400, Note_on_c, 3, 59, 0
5, 41400, Note_on_c, 3, 57, 85
5, 41430, Note_on_c, 3, 57, 0
5, 41430, Note_on_c, 3, 56, 85
5, 41460, Note_on_c, 3, 56, 0
5, 41460, Note_on_c, 3, 57, 86
5, 41520, Note_on_c, 3, 57, 0
5, 41520, Note_on_c, 3, 59, 86
5, 41580, Note_on_c, 3, 59, 0
5, 41580, Note_on_c, 3, 52, 64
5, 41615, Note_on_c, 3, 52, 0
5, 41640, Note_on_c, 3, 56, 68
5, 41700, Note_on_c, 3, 56, 0
5, 41700, Note_on_c, 3, 59, 67
5, 41820, Note_on_c, 3, 59, 0
5, 41820, Note_on_c, 3, 62, 64
5, 41880, Note_on_c, 3, 62, 0
5, 41880, Note_on_c, 3, 61, 63
5, 41940, Note_on_c, 3, 61, 0
5, 41940, Note_on_c, 3, 56, 62
5, 42000, Note_on_c, 3, 56, 0
5, 42000, Note_on_c, 3, 57, 61
5, 42035, Note_on_c, 3, 57, 0
5, 42060, Note_on_c, 3, 53, 60
5, 42120, Note_on_c, 3, 53, 0
5, 42120, Note_on_c, 3, 54, 58
5, 42155, Note_on_c, 3, 54, 0
5, 42180, Note_on_c, 3, 59, 57
5, 42240, Note_on_c, 3, 59, 0
5, 42240, Note_on_c, 3, 52, 56
5, 42630, Note_on_c, 3, 52, 0
5, 42630, Note_on_c, 3, 55, 68
5, 42660, Note_on_c, 3, 55, 0
5, 42660, Note_on_c, 3, 54, 66
5, 42690, Note_on_c, 3, 54, 0
5, 42690, Note_on_c, 3, 52, 64
5, 42720, Note_on_c, 3, 52, 0
5, 42720, Note_on_c, 3, 50, 63
5, 42750, Note_on_c, 3, 50, 0
5, 42750, Note_on_c, 3, 49, 61
5, 42780, Note_on_c, 3, 49, 0
5, 42780, Note_on_c, 3, 50, 59
5, 42990, Note_on_c, 3, 50, 0
5, 42990, Note_on_c, 3, 54, 67
5, 43020, Note_on_c, 3, 54, 0
5, 43020, Note_on_c, 3, 52, 65
5, 43050, Note_on_c, 3, 52, 0
5, 43050, Note_on_c, 3, 50, 64
5, 43080, Note_on_c, 3, 50, 0
5, 43080, Note_on_c, 3, 49, 62
5, 43110, Note_on_c, 3, 49, 0
5, 43110, Note_on_c, 3, 47, 61
5, 43140, Note_on_c, 3, 47, 0
5, 43140, Note_on_c, 3, 49, 59
5, 43260, Note_on_c, 3, 49, 0
5, 43260, Note_on_c, 3, 54, 55
5, 43320, Note_on_c, 3, 54, 0
5, 43320, Note_on_c, 3, 47, 53
5, 43440, Note_on_c, 3, 47, 0
5, 43500, Note_on_c, 3, 59, 51
5, 43740, Note_on_c, 3, 59, 0
5, 43740, Note_on_c, 3, 61, 59
5, 43770, Note_on_c, 3, 61, 0
5, 43770, Note_on_c, 3, 59, 60
5, 43800, Note_on_c, 3, 59, 0
5, 43800, Note_on_c, 3, 57, 61
5, 43830, Note_on_c, 3, 57, 0
5, 43830, Note_on_c, 3, 56, 62
5, 43860, Note_on_c, 3, 56, 0
5, 43860, Note_on_c, 3, 57, 63
5, 44100, Note_on_c, 3, 57, 0
5, 44100, Note_on_c, 3, 56, 72
5, 44160, Note_on_c, 3, 56, 0
5, 44160, Note_on_c, 3, 54, 74
5, 44220, Note_on_c, 3, 54, 0
5, 44220, Note_on_c, 3, 56, 76
5, 44280, Note_on_c, 3, 56, 0
5, 44280, Note_on_c, 3, 57, 78
5, 44340, Note_on_c, 3, 57, 0
5, 44340, Note_on_c, 3, 59, 80
5, 44400, Note_on_c, 3, 59, 0
5, 44400, Note_on_c, 3, 61, 82
5, 44460, Note_on_c, 3, 61, 0
5, 44460, Note_on_c, 3, 62, 84
5, 44520, Note_on_c, 3, 62, 0
5, 44520, Note_on_c, 3, 64, 86
5, 44580, Note_on_c, 3, 64, 0
5, 44580, Note_on_c, 3, 54, 54
5, 44640, Note_on_c, 3, 54, 0
5, 44640, Note_on_c, 3, 56, 59
5, 44700, Note_on_c, 3, 56, 0
5, 44700, Note_on_c, 3, 57, 65
5, 44760, Note_on_c, 3, 57, 0
5, 44760, Note_on_c, 3, 56, 70
5, 44820, Note_on_c, 3, 56, 0
5, 44820, Note_on_c, 3, 57, 67
5, 44880, Note_on_c, 3, 57, 0
5, 44880, Note_on_c, 3, 59, 72
5, 44940, Note_on_c, 3, 59, 0
5, 44940, Note_on_c, 3, 52, 71
5, 45000, Note_on_c, 3, 52, 0
5, 45000, Note_on_c, 3, 57, 73
5, 45030, Note_on_c, 3, 57, 0
5, 45030, Note_on_c, 3, 56, 74
5, 45060, Note_on_c, 3, 56, 0
5, 45060, Note_on_c, 3, 57, 75
5, 45180, Note_on_c, 3, 57, 0
5, 45180, Note_on_c, 3, 59, 78
5, 45240, Note_on_c, 3, 59, 0
5, 45240, Note_on_c, 3, 61, 80
5, 45300, Note_on_c, 3, 61, 0
5, 45300, Note_on_c, 3, 52, 82
5, 45335, Note_on_c, 3, 52, 0
5, 45360, Note_on_c, 3, 62, 84
5, 45390, Note_on_c, 3, 62, 0
5, 45390, Note_on_c, 3, 61, 85
5, 45420, Note_on_c, 3, 61, 0
5, 45420, Note_on_c, 3, 62, 85
5, 45480, Note_on_c, 3, 62, 0
5, 45480, Note_on_c, 3, 61, 87
5, 45510, Note_on_c, 3, 61, 0
5, 45510, Note_on_c, 3, 59, 88
5, 45540, Note_on_c, 3, 59, 0
5, 45540, Note_on_c, 3, 62, 89
5, 45570, Note_on_c, 3, 62, 0
5, 45570, Note_on_c, 3, 61, 90
5, 45600, Note_on_c, 3, 61, 0
5, 45600, Note_on_c, 3, 59, 91
5, 45630, Note_on_c, 3, 59, 0
5, 45630, Note_on_c, 3, 57, 92
5, 45660, Note_on_c, 3, 57, 0
5, 45660, Note_on_c, 3, 64, 92
5, 45720, Note_on_c, 3, 64, 0
5, 45720, Note_on_c, 3, 61, 91
5, 45780, Note_on_c, 3, 61, 0
5, 45780, Note_on_c, 3, 57, 90
5, 45840, Note_on_c, 3, 57, 0
5, 45840, Note_on_c, 3, 57, 88
5, 45900, Note_on_c, 3, 57, 0
5, 45900, Note_on_c, 3, 56, 87
5, 45960, Note_on_c, 3, 56, 0
5, 45960, Note_on_c, 3, 54, 85
5, 45995, Note_on_c, 3, 54, 0
5, 46020, Note_on_c, 3, 52, 84
5, 46080, Note_on_c, 3, 52, 0
5, 46080, Note_on_c, 3, 50, 83
5, 46140, Note_on_c, 3, 50, 0
5, 46140, Note_on_c, 3, 49, 81
5, 46200, Note_on_c, 3, 49, 0
5, 46200, Note_on_c, 3, 51, 79
5, 46260, Note_on_c, 3, 51, 0
5, 46260, Note_on_c, 3, 54, 83
5, 46320, Note_on_c, 3, 54, 0
5, 46320, Note_on_c, 3, 57, 87
5, 46380, Note_on_c, 3, 57, 0
5, 46380, Note_on_c, 3, 60, 92
5, 46620, Note_on_c, 3, 60, 0
5, 46620, Note_on_c, 3, 59, 84
5, 46680, Note_on_c, 3, 59, 0
5, 46680, Note_on_c, 3, 57, 85
5, 46740, Note_on_c, 3, 57, 0
5, 46740, Note_on_c, 3, 56, 86
5, 46800, Note_on_c, 3, 56, 0
5, 46800, Note_on_c, 3, 59, 86
5, 46860, Note_on_c, 3, 59, 0
5, 46860, Note_on_c, 3, 62, 87
5, 46920, Note_on_c, 3, 62, 0
5, 46920, Note_on_c, 3, 61, 87
5, 46980, Note_on_c, 3, 61, 0
5, 46980, Note_on_c, 3, 56, 87
5, 47040, Note_on_c, 3, 56, 0
5, 47040, Note_on_c, 3, 57, 87
5, 47100, Note_on_c, 3, 57, 0
5, 47100, Note_on_c, 3, 54, 87
5, 47160, Note_on_c, 3, 54, 0
5, 47160, Note_on_c, 3, 50, 87
5, 47220, Note_on_c, 3, 50, 0
5, 47220, Note_on_c, 3, 52, 88
5, 47280, Note_on_c, 3, 52, 0
5, 47280, Note_on_c, 3, 45, 97
5, 47400, Note_on_c, 3, 45, 0
5, 51960, Control_c, 3, 121, 127
5, 51960, End_track
6, 0, Start_track
6, 0, MIDI_port, 0
6, 0, Title_t, "Continuo"
6, 0, Program_c, 4, 6
6, 0, Control_c, 4, 10, 90
6, 0, Control_c, 4, 121, 127
6, 0, Control_c, 4, 91, 127
6, 120, Note_on_c, 4, 57, 33
6, 130, Note_on_c, 4, 57, 33
6, 140, Note_on_c, 4, 61, 33
6, 150, Note_on_c, 4, 57, 0
6, 150, Note_on_c, 4, 64, 33
6, 150, Note_on_c, 4, 56, 33
6, 180, Note_on_c, 4, 56, 0
6, 180, Note_on_c, 4, 57, 33
6, 215, Note_on_c, 4, 57, 0
6, 240, Note_on_c, 4, 52, 33
6, 275, Note_on_c, 4, 52, 0
6, 300, Note_on_c, 4, 57, 0
6, 300, Note_on_c, 4, 61, 0
6, 300, Note_on_c, 4, 64, 0
6, 300, Note_on_c, 4, 64, 33
6, 300, Note_on_c, 4, 69, 33
6, 300, Note_on_c, 4, 49, 33
6, 420, Note_on_c, 4, 49, 0
6, 420, Note_on_c, 4, 69, 0
6, 420, Note_on_c, 4, 64, 0
6, 420, Note_on_c, 4, 62, 33
6, 420, Note_on_c, 4, 68, 33
6, 420, Note_on_c, 4, 71, 33
6, 420, Note_on_c, 4, 47, 33
6, 455, Note_on_c, 4, 47, 0
6, 480, Note_on_c, 4, 62, 0
6, 480, Note_on_c, 4, 68, 0
6, 480, Note_on_c, 4, 71, 0
6, 480, Note_on_c, 4, 64, 33
6, 480, Note_on_c, 4, 69, 33
6, 480, Note_on_c, 4, 73, 33
6, 480, Note_on_c, 4, 45, 33
6, 600, Note_on_c, 4, 45, 0
6, 600, Note_on_c, 4, 57, 34
6, 635, Note_on_c, 4, 57, 0
6, 660, Note_on_c, 4, 73, 0
6, 660, Note_on_c, 4, 69, 0
6, 660, Note_on_c, 4, 64, 0
6, 660, Note_on_c, 4, 66, 34
6, 660, Note_on_c, 4, 71, 34
6, 660, Note_on_c, 4, 74, 34
6, 660, Note_on_c, 4, 50, 34
6, 780, Note_on_c, 4, 50, 0
6, 780, Note_on_c, 4, 66, 0
6, 780, Note_on_c, 4, 71, 0
6, 780, Note_on_c, 4, 74, 0
6, 780, Note_on_c, 4, 68, 34
6, 780, Note_on_c, 4, 71, 34
6, 780, Note_on_c, 4, 52, 34
6, 815, Note_on_c, 4, 52, 0
6, 840, Note_on_c, 4, 71, 0
6, 840, Note_on_c, 4, 68, 0
6, 840, Note_on_c, 4, 64, 33
6, 840, Note_on_c, 4, 69, 33
6, 840, Note_on_c, 4, 73, 33
6, 840, Note_on_c, 4, 45, 33
6, 960, Note_on_c, 4, 45, 0
6, 960, Note_on_c, 4, 57, 33
6, 995, Note_on_c, 4, 57, 0
6, 1020, Note_on_c, 4, 73, 0
6, 1020, Note_on_c, 4, 69, 0
6, 1020, Note_on_c, 4, 64, 0
6, 1020, Note_on_c, 4, 66, 33
6, 1020, Note_on_c, 4, 71, 33
6, 1020, Note_on_c, 4, 74, 33
6, 1020, Note_on_c, 4, 50, 33
6, 1140, Note_on_c, 4, 50, 0
6, 1140, Note_on_c, 4, 66, 0
6, 1140, Note_on_c, 4, 71, 0
6, 1140, Note_on_c, 4, 74, 0
6, 1140, Note_on_c, 4, 68, 33
6, 1140, Note_on_c, 4, 71, 33
6, 1140, Note_on_c, 4, 52, 33
6, 1175, Note_on_c, 4, 52, 0
6, 1200, Note_on_c, 4, 71, 0
6, 1200, Note_on_c, 4, 68, 0
6, 1200, Note_on_c, 4, 69, 29
6, 1200, Note_on_c, 4, 73, 29
6, 1200, Note_on_c, 4, 45, 29
6, 1235, Note_on_c, 4, 45, 0
6, 1260, Note_on_c, 4, 57, 31
6, 1295, Note_on_c, 4, 57, 0
6, 1320, Note_on_c, 4, 61, 33
6, 1355, Note_on_c, 4, 61, 0
6, 1380, Note_on_c, 4, 73, 0
6, 1380, Note_on_c, 4, 69, 0
6, 1380, Note_on_c, 4, 68, 36
6, 1380, Note_on_c, 4, 74, 36
6, 1380, Note_on_c, 4, 59, 36
6, 1440, Note_on_c, 4, 74, 0
6, 1440, Note_on_c, 4, 68, 0
6, 1440, Note_on_c, 4, 73, 38
6, 1470, Note_on_c, 4, 73, 0
6, 1470, Note_on_c, 4, 71, 39
6, 1500, Note_on_c, 4, 71, 0
6, 1500, Note_on_c, 4, 59, 0
6, 1500, Note_on_c, 4, 69, 40
6, 1500, Note_on_c, 4, 73, 40
6, 1500, Note_on_c, 4, 57, 40
6, 1535, Note_on_c, 4, 57, 0
6, 1560, Note_on_c, 4, 73, 0
6, 1560, Note_on_c, 4, 69, 0
6, 1560, Note_on_c, 4, 68, 42
6, 1560, Note_on_c, 4, 71, 42
6, 1560, Note_on_c, 4, 64, 42
6, 1590, Note_on_c, 4, 64, 0
6, 1590, Note_on_c, 4, 63, 44
6, 1620, Note_on_c, 4, 63, 0
6, 1620, Note_on_c, 4, 64, 44
6, 1655, Note_on_c, 4, 64, 0
6, 1680, Note_on_c, 4, 59, 45
6, 1715, Note_on_c, 4, 59, 0
6, 1740, Note_on_c, 4, 52, 46
6, 1860, Note_on_c, 4, 52, 0
6, 1860, Note_on_c, 4, 71, 0
6, 1860, Note_on_c, 4, 68, 0
6, 1860, Note_on_c, 4, 68, 48
6, 1860, Note_on_c, 4, 71, 48
6, 1860, Note_on_c, 4, 75, 48
6, 1860, Note_on_c, 4, 51, 48
6, 1895, Note_on_c, 4, 51, 0
6, 1920, Note_on_c, 4, 68, 0
6, 1920, Note_on_c, 4, 71, 0
6, 1920, Note_on_c, 4, 75, 0
6, 1920, Note_on_c, 4, 68, 48
6, 1920, Note_on_c, 4, 73, 48
6, 1920, Note_on_c, 4, 76, 48
6, 1920, Note_on_c, 4, 49, 48
6, 2040, Note_on_c, 4, 49, 0
6, 2040, Note_on_c, 4, 68, 0
6, 2040, Note_on_c, 4, 73, 0
6, 2040, Note_on_c, 4, 76, 0
6, 2280, Note_on_c, 4, 68, 48
6, 2280, Note_on_c, 4, 71, 48
6, 2280, Note_on_c, 4, 76, 48
6, 2280, Note_on_c, 4, 47, 48
6, 2400, Note_on_c, 4, 47, 0
6, 2400, Note_on_c, 4, 68, 0
6, 2400, Note_on_c, 4, 71, 0
6, 2400, Note_on_c, 4, 76, 0
6, 2640, Note_on_c, 4, 69, 44
6, 2640, Note_on_c, 4, 73, 44
6, 2640, Note_on_c, 4, 45, 44
6, 2675, Note_on_c, 4, 45, 0
6, 2700, Note_on_c, 4, 57, 45
6, 2760, Note_on_c, 4, 57, 0
6, 2760, Note_on_c, 4, 56, 45
6, 2795, Note_on_c, 4, 56, 0
6, 2820, Note_on_c, 4, 54, 42
6, 2880, Note_on_c, 4, 54, 0
6, 2880, Note_on_c, 4, 51, 31
6, 2915, Note_on_c, 4, 51, 0
6, 2940, Note_on_c, 4, 73, 0
6, 2940, Note_on_c, 4, 69, 0
6, 2940, Note_on_c, 4, 66, 42
6, 2940, Note_on_c, 4, 52, 42
6, 2975, Note_on_c, 4, 52, 0
6, 3000, Note_on_c, 4, 66, 0
6, 3000, Note_on_c, 4, 69, 40
6, 3000, Note_on_c, 4, 71, 40
6, 3000, Note_on_c, 4, 51, 40
6, 3060, Note_on_c, 4, 51, 0
6, 3060, Note_on_c, 4, 49, 37
6, 3120, Note_on_c, 4, 49, 0
6, 3120, Note_on_c, 4, 47, 35
6, 3155, Note_on_c, 4, 47, 0
6, 3180, Note_on_c, 4, 69, 0
6, 3180, Note_on_c, 4, 68, 30
6, 3180, Note_on_c, 4, 52, 30
6, 3215, Note_on_c, 4, 52, 0
6, 3240, Note_on_c, 4, 54, 32
6, 3275, Note_on_c, 4, 54, 0
6, 3300, Note_on_c, 4, 68, 0
6, 3300, Note_on_c, 4, 71, 0
6, 3300, Note_on_c, 4, 59, 34
6, 3300, Note_on_c, 4, 56, 34
6, 3335, Note_on_c, 4, 56, 0
6, 3360, Note_on_c, 4, 59, 0
6, 3360, Note_on_c, 4, 61, 36
6, 3360, Note_on_c, 4, 64, 36
6, 3360, Note_on_c, 4, 57, 36
6, 3480, Note_on_c, 4, 57, 0
6, 3480, Note_on_c, 4, 64, 0
6, 3480, Note_on_c, 4, 61, 0
6, 3540, Note_on_c, 4, 64, 42
6, 3540, Note_on_c, 4, 68, 42
6, 3540, Note_on_c, 4, 59, 42
6, 3660, Note_on_c, 4, 59, 0
6, 3660, Note_on_c, 4, 68, 0
6, 3660, Note_on_c, 4, 64, 0
6, 3720, Note_on_c, 4, 68, 48
6, 3720, Note_on_c, 4, 71, 48
6, 3720, Note_on_c, 4, 61, 48
6, 3840, Note_on_c, 4, 61, 0
6, 3840, Note_on_c, 4, 71, 0
6, 3840, Note_on_c, 4, 68, 0
6, 3900, Note_on_c, 4, 59, 43
6, 3900, Note_on_c, 4, 64, 43
6, 3900, Note_on_c, 4, 71, 43
6, 3900, Note_on_c, 4, 44, 43
6, 4020, Note_on_c, 4, 44, 0
6, 4020, Note_on_c, 4, 59, 0
6, 4020, Note_on_c, 4, 64, 0
6, 4020, Note_on_c, 4, 71, 0
6, 4080, Note_on_c, 4, 61, 42
6, 4080, Note_on_c, 4, 64, 42
6, 4080, Note_on_c, 4, 45, 42
6, 4200, Note_on_c, 4, 45, 0
6, 4200, Note_on_c, 4, 64, 0
6, 4200, Note_on_c, 4, 61, 0
6, 4260, Note_on_c, 4, 63, 42
6, 4260, Note_on_c, 4, 68, 42
6, 4260, Note_on_c, 4, 47, 42
6, 4320, Note_on_c, 4, 68, 0
6, 4320, Note_on_c, 4, 63, 0
6, 4320, Note_on_c, 4, 66, 42
6, 4380, Note_on_c, 4, 66, 0
6, 4380, Note_on_c, 4, 47, 0
6, 4380, Note_on_c, 4, 57, 42
6, 4380, Note_on_c, 4, 59, 42
6, 4380, Note_on_c, 4, 64, 42
6, 4440, Note_on_c, 4, 64, 0
6, 4440, Note_on_c, 4, 59, 0
6, 4440, Note_on_c, 4, 57, 0
6, 4440, Note_on_c, 4, 40, 40
6, 4450, Note_on_c, 4, 56, 39
6, 4460, Note_on_c, 4, 59, 38
6, 4470, Note_on_c, 4, 64, 37
6, 4475, Note_on_c, 4, 40, 0
6, 4500, Note_on_c, 4, 52, 35
6, 4535, Note_on_c, 4, 52, 0
6, 4560, Note_on_c, 4, 64, 0
6, 4560, Note_on_c, 4, 59, 0
6, 4560, Note_on_c, 4, 56, 0
6, 4560, Note_on_c, 4, 50, 30
6, 4595, Note_on_c, 4, 50, 0
6, 4620, Note_on_c, 4, 64, 24
6, 4620, Note_on_c, 4, 49, 24
6, 4650, Note_on_c, 4, 49, 0
6, 4650, Note_on_c, 4, 64, 0
6, 4650, Note_on_c, 4, 66, 24
6, 4650, Note_on_c, 4, 50, 24
6, 4680, Note_on_c, 4, 50, 0
6, 4680, Note_on_c, 4, 66, 0
6, 4680, Note_on_c, 4, 64, 24
6, 4680, Note_on_c, 4, 49, 24
6, 4715, Note_on_c, 4, 49, 0
6, 4740, Note_on_c, 4, 64, 0
6, 4740, Note_on_c, 4, 62, 24
6, 4740, Note_on_c, 4, 47, 24
6, 4775, Note_on_c, 4, 47, 0
6, 4800, Note_on_c, 4, 62, 0
6, 4800, Note_on_c, 4, 61, 24
6, 4800, Note_on_c, 4, 45, 24
6, 4920, Note_on_c, 4, 45, 0
6, 4920, Note_on_c, 4, 61, 0
6, 4920, Note_on_c, 4, 64, 24
6, 4920, Note_on_c, 4, 69, 24
6, 4920, Note_on_c, 4, 49, 24
6, 4955, Note_on_c, 4, 49, 0
6, 4980, Note_on_c, 4, 69, 0
6, 4980, Note_on_c, 4, 64, 0
6, 4980, Note_on_c, 4, 64, 24
6, 4980, Note_on_c, 4, 68, 24
6, 4980, Note_on_c, 4, 47, 24
6, 5100, Note_on_c, 4, 47, 0
6, 5100, Note_on_c, 4, 68, 0
6, 5100, Note_on_c, 4, 64, 0
6, 5100, Note_on_c, 4, 64, 24
6, 5100, Note_on_c, 4, 68, 24
6, 5100, Note_on_c, 4, 71, 24
6, 5100, Note_on_c, 4, 52, 24
6, 5135, Note_on_c, 4, 52, 0
6, 5160, Note_on_c, 4, 64, 0
6, 5160, Note_on_c, 4, 68, 0
6, 5160, Note_on_c, 4, 71, 0
6, 5160, Note_on_c, 4, 64, 24
6, 5160, Note_on_c, 4, 69, 24
6, 5160, Note_on_c, 4, 73, 24
6, 5160, Note_on_c, 4, 57, 24
6, 5220, Note_on_c, 4, 57, 0
6, 5220, Note_on_c, 4, 59, 24
6, 5280, Note_on_c, 4, 59, 0
6, 5280, Note_on_c, 4, 61, 24
6, 5315, Note_on_c, 4, 61, 0
6, 5340, Note_on_c, 4, 64, 0
6, 5340, Note_on_c, 4, 69, 0
6, 5340, Note_on_c, 4, 73, 0
6, 5340, Note_on_c, 4, 64, 24
6, 5340, Note_on_c, 4, 68, 24
6, 5340, Note_on_c, 4, 74, 24
6, 5340, Note_on_c, 4, 59, 24
6, 5400, Note_on_c, 4, 59, 0
6, 5400, Note_on_c, 4, 57, 24
6, 5460, Note_on_c, 4, 57, 0
6, 5460, Note_on_c, 4, 56, 24
6, 5495, Note_on_c, 4, 56, 0
6, 5520, Note_on_c, 4, 64, 0
6, 5520, Note_on_c, 4, 68, 0
6, 5520, Note_on_c, 4, 74, 0
6, 5520, Note_on_c, 4, 64, 24
6, 5520, Note_on_c, 4, 73, 24
6, 5520, Note_on_c, 4, 57, 24
6, 5640, Note_on_c, 4, 57, 0
6, 5640, Note_on_c, 4, 73, 0
6, 5640, Note_on_c, 4, 64, 0
6, 5640, Note_on_c, 4, 64, 24
6, 5640, Note_on_c, 4, 69, 24
6, 5640, Note_on_c, 4, 49, 24
6, 5675, Note_on_c, 4, 49, 0
6, 5700, Note_on_c, 4, 69, 0
6, 5700, Note_on_c, 4, 64, 0
6, 5700, Note_on_c, 4, 62, 24
6, 5700, Note_on_c, 4, 64, 24
6, 5700, Note_on_c, 4, 68, 24
6, 5700, Note_on_c, 4, 47, 24
6, 5820, Note_on_c, 4, 47, 0
6, 5820, Note_on_c, 4, 62, 0
6, 5820, Note_on_c, 4, 64, 0
6, 5820, Note_on_c, 4, 68, 0
6, 5820, Note_on_c, 4, 61, 24
6, 5820, Note_on_c, 4, 64, 24
6, 5820, Note_on_c, 4, 69, 24
6, 5820, Note_on_c, 4, 45, 24
6, 5855, Note_on_c, 4, 45, 0
6, 5880, Note_on_c, 4, 61, 0
6, 5880, Note_on_c, 4, 64, 0
6, 5880, Note_on_c, 4, 69, 0
6, 5880, Note_on_c, 4, 64, 24
6, 5880, Note_on_c, 4, 68, 24
6, 5880, Note_on_c, 4, 71, 24
6, 5880, Note_on_c, 4, 76, 24
6, 5880, Note_on_c, 4, 52, 24
6, 5940, Note_on_c, 4, 52, 0
6, 5940, Note_on_c, 4, 54, 25
6, 6000, Note_on_c, 4, 54, 0
6, 6000, Note_on_c, 4, 56, 27
6, 6035, Note_on_c, 4, 56, 0
6, 6060, Note_on_c, 4, 71, 0
6, 6060, Note_on_c, 4, 64, 0
6, 6060, Note_on_c, 4, 68, 0
6, 6060, Note_on_c, 4, 76, 0
6, 6060, Note_on_c, 4, 68, 29
6, 6060, Note_on_c, 4, 76, 29
6, 6060, Note_on_c, 4, 56, 29
6, 6120, Note_on_c, 4, 56, 0
6, 6120, Note_on_c, 4, 57, 31
6, 6180, Note_on_c, 4, 57, 0
6, 6180, Note_on_c, 4, 59, 33
6, 6215, Note_on_c, 4, 59, 0
6, 6240, Note_on_c, 4, 76, 0
6, 6240, Note_on_c, 4, 68, 0
6, 6240, Note_on_c, 4, 69, 35
6, 6240, Note_on_c, 4, 76, 35
6, 6240, Note_on_c, 4, 49, 35
6, 6360, Note_on_c, 4, 49, 0
6, 6360, Note_on_c, 4, 76, 0
6, 6360, Note_on_c, 4, 69, 0
6, 6600, Note_on_c, 4, 66, 34
6, 6600, Note_on_c, 4, 69, 34
6, 6600, Note_on_c, 4, 73, 34
6, 6600, Note_on_c, 4, 54, 34
6, 6720, Note_on_c, 4, 73, 0
6, 6720, Note_on_c, 4, 66, 0
6, 6720, Note_on_c, 4, 69, 0
6, 6780, Note_on_c, 4, 54, 0
6, 6900, Note_on_c, 4, 67, 33
6, 6900, Note_on_c, 4, 69, 33
6, 6900, Note_on_c, 4, 73, 33
6, 6900, Note_on_c, 4, 52, 33
6, 6935, Note_on_c, 4, 52, 0
6, 6960, Note_on_c, 4, 67, 0
6, 6960, Note_on_c, 4, 69, 0
6, 6960, Note_on_c, 4, 73, 0
6, 6960, Note_on_c, 4, 66, 31
6, 6960, Note_on_c, 4, 69, 31
6, 6960, Note_on_c, 4, 74, 31
6, 6960, Note_on_c, 4, 50, 31
6, 6995, Note_on_c, 4, 50, 0
6, 7020, Note_on_c, 4, 62, 30
6, 7080, Note_on_c, 4, 62, 0
6, 7080, Note_on_c, 4, 61, 29
6, 7115, Note_on_c, 4, 61, 0
6, 7140, Note_on_c, 4, 66, 0
6, 7140, Note_on_c, 4, 69, 0
6, 7140, Note_on_c, 4, 74, 0
6, 7140, Note_on_c, 4, 66, 27
6, 7140, Note_on_c, 4, 71, 27
6, 7140, Note_on_c, 4, 74, 27
6, 7140, Note_on_c, 4, 59, 27
6, 7200, Note_on_c, 4, 59, 0
6, 7200, Note_on_c, 4, 54, 24
6, 7235, Note_on_c, 4, 54, 0
6, 7260, Note_on_c, 4, 57, 24
6, 7295, Note_on_c, 4, 57, 0
6, 7320, Note_on_c, 4, 66, 0
6, 7320, Note_on_c, 4, 71, 0
6, 7320, Note_on_c, 4, 74, 0
6, 7320, Note_on_c, 4, 68, 29
6, 7320, Note_on_c, 4, 74, 29
6, 7320, Note_on_c, 4, 76, 29
6, 7320, Note_on_c, 4, 56, 29
6, 7380, Note_on_c, 4, 56, 0
6, 7380, Note_on_c, 4, 54, 27
6, 7440, Note_on_c, 4, 54, 0
6, 7440, Note_on_c, 4, 52, 25
6, 7475, Note_on_c, 4, 52, 0
6, 7500, Note_on_c, 4, 68, 0
6, 7500, Note_on_c, 4, 74, 0
6, 7500, Note_on_c, 4, 76, 0
6, 7500, Note_on_c, 4, 69, 24
6, 7500, Note_on_c, 4, 73, 24
6, 7500, Note_on_c, 4, 76, 24
6, 7500, Note_on_c, 4, 57, 24
6, 7560, Note_on_c, 4, 57, 0
6, 7560, Note_on_c, 4, 59, 28
6, 7620, Note_on_c, 4, 59, 0
6, 7620, Note_on_c, 4, 76, 0
6, 7620, Note_on_c, 4, 73, 0
6, 7620, Note_on_c, 4, 69, 0
6, 7620, Note_on_c, 4, 61, 33
6, 7655, Note_on_c, 4, 61, 0
6, 7680, Note_on_c, 4, 57, 38
6, 7680, Note_on_c, 4, 61, 38
6, 7680, Note_on_c, 4, 66, 38
6, 7680, Note_on_c, 4, 50, 38
6, 7800, Note_on_c, 4, 50, 0
6, 7800, Note_on_c, 4, 57, 0
6, 7800, Note_on_c, 4, 61, 0
6, 7800, Note_on_c, 4, 66, 0
6, 7860, Note_on_c, 4, 61, 42
6, 7860, Note_on_c, 4, 64, 42
6, 7860, Note_on_c, 4, 69, 42
6, 7860, Note_on_c, 4, 52, 42
6, 7980, Note_on_c, 4, 52, 0
6, 7980, Note_on_c, 4, 61, 0
6, 7980, Note_on_c, 4, 64, 0
6, 7980, Note_on_c, 4, 69, 0
6, 8040, Note_on_c, 4, 66, 42
6, 8040, Note_on_c, 4, 69, 42
6, 8040, Note_on_c, 4, 73, 42
6, 8040, Note_on_c, 4, 54, 42
6, 8160, Note_on_c, 4, 54, 0
6, 8160, Note_on_c, 4, 66, 0
6, 8160, Note_on_c, 4, 69, 0
6, 8160, Note_on_c, 4, 73, 0
6, 8220, Note_on_c, 4, 61, 39
6, 8220, Note_on_c, 4, 64, 39
6, 8220, Note_on_c, 4, 69, 39
6, 8220, Note_on_c, 4, 49, 39
6, 8340, Note_on_c, 4, 49, 0
6, 8340, Note_on_c, 4, 61, 0
6, 8340, Note_on_c, 4, 64, 0
6, 8340, Note_on_c, 4, 69, 0
6, 8400, Note_on_c, 4, 62, 35
6, 8400, Note_on_c, 4, 66, 35
6, 8400, Note_on_c, 4, 50, 35
6, 8520, Note_on_c, 4, 50, 0
6, 8520, Note_on_c, 4, 66, 0
6, 8520, Note_on_c, 4, 62, 0
6, 8580, Note_on_c, 4, 68, 30
6, 8580, Note_on_c, 4, 73, 30
6, 8580, Note_on_c, 4, 52, 30
6, 8640, Note_on_c, 4, 73, 0
6, 8640, Note_on_c, 4, 68, 0
6, 8640, Note_on_c, 4, 71, 30
6, 8700, Note_on_c, 4, 71, 0
6, 8700, Note_on_c, 4, 52, 0
6, 8700, Note_on_c, 4, 69, 28
6, 8760, Note_on_c, 4, 69, 0
6, 8760, Note_on_c, 4, 57, 26
6, 8770, Note_on_c, 4, 61, 26
6, 8780, Note_on_c, 4, 64, 26
6, 8790, Note_on_c, 4, 57, 0
6, 8790, Note_on_c, 4, 69, 26
6, 8790, Note_on_c, 4, 56, 26
6, 8820, Note_on_c, 4, 56, 0
6, 8820, Note_on_c, 4, 57, 26
6, 8855, Note_on_c, 4, 57, 0
6, 8880, Note_on_c, 4, 69, 0
6, 8880, Note_on_c, 4, 64, 0
6, 8880, Note_on_c, 4, 61, 0
6, 8880, Note_on_c, 4, 52, 26
6, 8915, Note_on_c, 4, 52, 0
6, 8940, Note_on_c, 4, 64, 26
6, 8940, Note_on_c, 4, 69, 26
6, 8940, Note_on_c, 4, 49, 26
6, 9060, Note_on_c, 4, 49, 0
6, 9060, Note_on_c, 4, 69, 0
6, 9060, Note_on_c, 4, 64, 0
6, 9060, Note_on_c, 4, 71, 26
6, 9060, Note_on_c, 4, 52, 26
6, 9095, Note_on_c, 4, 52, 0
6, 9120, Note_on_c, 4, 71, 0
6, 9120, Note_on_c, 4, 64, 26
6, 9120, Note_on_c, 4, 73, 26
6, 9120, Note_on_c, 4, 45, 26
6, 9240, Note_on_c, 4, 45, 0
6, 9240, Note_on_c, 4, 73, 0
6, 9240, Note_on_c, 4, 64, 0
6, 9240, Note_on_c, 4, 69, 26
6, 9240, Note_on_c, 4, 76, 26
6, 9240, Note_on_c, 4, 57, 26
6, 9275, Note_on_c, 4, 57, 0
6, 9300, Note_on_c, 4, 76, 0
6, 9300, Note_on_c, 4, 69, 0
6, 9300, Note_on_c, 4, 66, 26
6, 9300, Note_on_c, 4, 74, 26
6, 9300, Note_on_c, 4, 50, 26
6, 9420, Note_on_c, 4, 50, 0
6, 9420, Note_on_c, 4, 74, 0
6, 9420, Note_on_c, 4, 66, 0
6, 9420, Note_on_c, 4, 68, 26
6, 9420, Note_on_c, 4, 71, 26
6, 9420, Note_on_c, 4, 52, 26
6, 9455, Note_on_c, 4, 52, 0
6, 9480, Note_on_c, 4, 71, 0
6, 9480, Note_on_c, 4, 68, 0
6, 9480, Note_on_c, 4, 69, 26
6, 9480, Note_on_c, 4, 73, 26
6, 9480, Note_on_c, 4, 45, 26
6, 9600, Note_on_c, 4, 45, 0
6, 9600, Note_on_c, 4, 73, 0
6, 9600, Note_on_c, 4, 69, 0
6, 9600, Note_on_c, 4, 73, 26
6, 9600, Note_on_c, 4, 76, 26
6, 9600, Note_on_c, 4, 57, 26
6, 9635, Note_on_c, 4, 57, 0
6, 9660, Note_on_c, 4, 76, 0
6, 9660, Note_on_c, 4, 73, 0
6, 9660, Note_on_c, 4, 71, 26
6, 9660, Note_on_c, 4, 74, 26
6, 9660, Note_on_c, 4, 50, 26
6, 9780, Note_on_c, 4, 50, 0
6, 9780, Note_on_c, 4, 74, 0
6, 9780, Note_on_c, 4, 71, 0
6, 9780, Note_on_c, 4, 71, 26
6, 9780, Note_on_c, 4, 52, 26
6, 9815, Note_on_c, 4, 52, 0
6, 9840, Note_on_c, 4, 71, 0
6, 9840, Note_on_c, 4, 73, 26
6, 9840, Note_on_c, 4, 45, 26
6, 9900, Note_on_c, 4, 73, 0
6, 9900, Note_on_c, 4, 71, 26
6, 9960, Note_on_c, 4, 71, 0
6, 9960, Note_on_c, 4, 45, 0
6, 9960, Note_on_c, 4, 69, 26
6, 9960, Note_on_c, 4, 73, 26
6, 9960, Note_on_c, 4, 49, 26
6, 9995, Note_on_c, 4, 49, 0
6, 10020, Note_on_c, 4, 73, 0
6, 10020, Note_on_c, 4, 69, 0
6, 10020, Note_on_c, 4, 68, 26
6, 10020, Note_on_c, 4, 74, 26
6, 10020, Note_on_c, 4, 47, 26
6, 10080, Note_on_c, 4, 74, 0
6, 10080, Note_on_c, 4, 68, 0
6, 10080, Note_on_c, 4, 71, 24
6, 10140, Note_on_c, 4, 71, 0
6, 10140, Note_on_c, 4, 47, 0
6, 10140, Note_on_c, 4, 64, 24
6, 10140, Note_on_c, 4, 73, 24
6, 10140, Note_on_c, 4, 45, 24
6, 10175, Note_on_c, 4, 45, 0
6, 10200, Note_on_c, 4, 73, 0
6, 10200, Note_on_c, 4, 64, 0
6, 10200, Note_on_c, 4, 64, 30
6, 10200, Note_on_c, 4, 68, 30
6, 10200, Note_on_c, 4, 71, 30
6, 10200, Note_on_c, 4, 52, 30
6, 10230, Note_on_c, 4, 52, 0
6, 10230, Note_on_c, 4, 51, 30
6, 10260, Note_on_c, 4, 51, 0
6, 10260, Note_on_c, 4, 52, 30
6, 10295, Note_on_c, 4, 52, 0
6, 10320, Note_on_c, 4, 47, 30
6, 10355, Note_on_c, 4, 47, 0
6, 10380, Note_on_c, 4, 71, 0
6, 10380, Note_on_c, 4, 68, 0
6, 10380, Note_on_c, 4, 64, 0
6, 10380, Note_on_c, 4, 68, 30
6, 10380, Note_on_c, 4, 71, 30
6, 10380, Note_on_c, 4, 40, 30
6, 10415, Note_on_c, 4, 40, 0
6, 10440, Note_on_c, 4, 71, 0
6, 10440, Note_on_c, 4, 68, 0
6, 10440, Note_on_c, 4, 69, 30
6, 10440, Note_on_c, 4, 73, 30
6, 10440, Note_on_c, 4, 52, 30
6, 10475, Note_on_c, 4, 52, 0
6, 10500, Note_on_c, 4, 73, 0
6, 10500, Note_on_c, 4, 69, 0
6, 10500, Note_on_c, 4, 71, 30
6, 10500, Note_on_c, 4, 74, 30
6, 10500, Note_on_c, 4, 50, 30
6, 10535, Note_on_c, 4, 50, 0
6, 10560, Note_on_c, 4, 74, 0
6, 10560, Note_on_c, 4, 71, 0
6, 10560, Note_on_c, 4, 73, 30
6, 10560, Note_on_c, 4, 76, 30
6, 10560, Note_on_c, 4, 49, 30
6, 10620, Note_on_c, 4, 49, 0
6, 10620, Note_on_c, 4, 52, 26
6, 10680, Note_on_c, 4, 52, 0
6, 10680, Note_on_c, 4, 56, 27
6, 10715, Note_on_c, 4, 56, 0
6, 10740, Note_on_c, 4, 76, 0
6, 10740, Note_on_c, 4, 73, 0
6, 10740, Note_on_c, 4, 66, 28
6, 10740, Note_on_c, 4, 70, 28
6, 10740, Note_on_c, 4, 61, 28
6, 10800, Note_on_c, 4, 61, 0
6, 10800, Note_on_c, 4, 58, 29
6, 10860, Note_on_c, 4, 58, 0
6, 10860, Note_on_c, 4, 59, 30
6, 10895, Note_on_c, 4, 59, 0
6, 10920, Note_on_c, 4, 70, 0
6, 10920, Note_on_c, 4, 66, 0
6, 10920, Note_on_c, 4, 70, 30
6, 10920, Note_on_c, 4, 73, 30
6, 10920, Note_on_c, 4, 58, 30
6, 11040, Note_on_c, 4, 58, 0
6, 11040, Note_on_c, 4, 73, 0
6, 11040, Note_on_c, 4, 70, 0
6, 11100, Note_on_c, 4, 66, 32
6, 11100, Note_on_c, 4, 70, 32
6, 11100, Note_on_c, 4, 78, 32
6, 11100, Note_on_c, 4, 54, 32
6, 11220, Note_on_c, 4, 54, 0
6, 11220, Note_on_c, 4, 66, 0
6, 11220, Note_on_c, 4, 70, 0
6, 11220, Note_on_c, 4, 78, 0
6, 11280, Note_on_c, 4, 71, 30
6, 11280, Note_on_c, 4, 74, 30
6, 11280, Note_on_c, 4, 59, 30
6, 11400, Note_on_c, 4, 59, 0
6, 11400, Note_on_c, 4, 74, 0
6, 11400, Note_on_c, 4, 71, 0
6, 11400, Note_on_c, 4, 66, 31
6, 11400, Note_on_c, 4, 47, 31
6, 11435, Note_on_c, 4, 47, 0
6, 11460, Note_on_c, 4, 66, 0
6, 11460, Note_on_c, 4, 62, 32
6, 11460, Note_on_c, 4, 71, 32
6, 11460, Note_on_c, 4, 59, 32
6, 11580, Note_on_c, 4, 59, 0
6, 11580, Note_on_c, 4, 71, 0
6, 11580, Note_on_c, 4, 62, 0
6, 11580, Note_on_c, 4, 61, 33
6, 11580, Note_on_c, 4, 69, 33
6, 11580, Note_on_c, 4, 57, 33
6, 11615, Note_on_c, 4, 57, 0
6, 11640, Note_on_c, 4, 69, 0
6, 11640, Note_on_c, 4, 61, 0
6, 11640, Note_on_c, 4, 64, 33
6, 11640, Note_on_c, 4, 68, 33
6, 11640, Note_on_c, 4, 56, 33
6, 11760, Note_on_c, 4, 56, 0
6, 11760, Note_on_c, 4, 68, 0
6, 11760, Note_on_c, 4, 64, 0
6, 11820, Note_on_c, 4, 68, 35
6, 11820, Note_on_c, 4, 71, 35
6, 11820, Note_on_c, 4, 52, 35
6, 11940, Note_on_c, 4, 52, 0
6, 11940, Note_on_c, 4, 71, 0
6, 11940, Note_on_c, 4, 68, 0
6, 12000, Note_on_c, 4, 69, 27
6, 12000, Note_on_c, 4, 73, 27
6, 12000, Note_on_c, 4, 57, 27
6, 12060, Note_on_c, 4, 73, 0
6, 12060, Note_on_c, 4, 69, 0
6, 12060, Note_on_c, 4, 74, 27
6, 12120, Note_on_c, 4, 74, 0
6, 12120, Note_on_c, 4, 57, 0
6, 12120, Note_on_c, 4, 71, 28
6, 12120, Note_on_c, 4, 45, 28
6, 12155, Note_on_c, 4, 45, 0
6, 12180, Note_on_c, 4, 71, 0
6, 12180, Note_on_c, 4, 69, 28
6, 12180, Note_on_c, 4, 73, 28
6, 12180, Note_on_c, 4, 57, 28
6, 12300, Note_on_c, 4, 57, 0
6, 12300, Note_on_c, 4, 73, 0
6, 12300, Note_on_c, 4, 69, 0
6, 12300, Note_on_c, 4, 68, 30
6, 12300, Note_on_c, 4, 71, 30
6, 12300, Note_on_c, 4, 56, 30
6, 12335, Note_on_c, 4, 56, 0
6, 12360, Note_on_c, 4, 71, 0
6, 12360, Note_on_c, 4, 68, 0
6, 12360, Note_on_c, 4, 66, 30
6, 12360, Note_on_c, 4, 69, 30
6, 12360, Note_on_c, 4, 54, 30
6, 12480, Note_on_c, 4, 54, 0
6, 12480, Note_on_c, 4, 69, 0
6, 12480, Note_on_c, 4, 66, 0
6, 12480, Note_on_c, 4, 61, 30
6, 12480, Note_on_c, 4, 69, 30
6, 12480, Note_on_c, 4, 52, 30
6, 12515, Note_on_c, 4, 52, 0
6, 12540, Note_on_c, 4, 69, 0
6, 12540, Note_on_c, 4, 61, 0
6, 12540, Note_on_c, 4, 59, 31
6, 12540, Note_on_c, 4, 69, 31
6, 12540, Note_on_c, 4, 51, 31
6, 12660, Note_on_c, 4, 51, 0
6, 12660, Note_on_c, 4, 69, 0
6, 12660, Note_on_c, 4, 59, 0
6, 12660, Note_on_c, 4, 59, 32
6, 12660, Note_on_c, 4, 68, 32
6, 12660, Note_on_c, 4, 52, 32
6, 12695, Note_on_c, 4, 52, 0
6, 12720, Note_on_c, 4, 68, 0
6, 12720, Note_on_c, 4, 59, 0
6, 12720, Note_on_c, 4, 63, 33
6, 12720, Note_on_c, 4, 66, 33
6, 12720, Note_on_c, 4, 47, 33
6, 12935, Note_on_c, 4, 47, 0
6, 12960, Note_on_c, 4, 66, 0
6, 12960, Note_on_c, 4, 63, 0
6, 12960, Note_on_c, 4, 64, 35
6, 12960, Note_on_c, 4, 73, 35
6, 12960, Note_on_c, 4, 45, 35
6, 12995, Note_on_c, 4, 45, 0
6, 13020, Note_on_c, 4, 73, 0
6, 13020, Note_on_c, 4, 64, 0
6, 13020, Note_on_c, 4, 63, 36
6, 13020, Note_on_c, 4, 71, 36
6, 13020, Note_on_c, 4, 47, 36
6, 13055, Note_on_c, 4, 47, 0
6, 13080, Note_on_c, 4, 71, 0
6, 13080, Note_on_c, 4, 63, 0
6, 13080, Note_on_c, 4, 64, 36
6, 13080, Note_on_c, 4, 69, 36
6, 13080, Note_on_c, 4, 49, 36
6, 13200, Note_on_c, 4, 49, 0
6, 13200, Note_on_c, 4, 69, 0
6, 13200, Note_on_c, 4, 64, 0
6, 13440, Note_on_c, 4, 64, 36
6, 13440, Note_on_c, 4, 68, 36
6, 13440, Note_on_c, 4, 47, 36
6, 13560, Note_on_c, 4, 47, 0
6, 13560, Note_on_c, 4, 68, 0
6, 13560, Note_on_c, 4, 64, 0
6, 13800, Note_on_c, 4, 64, 37
6, 13800, Note_on_c, 4, 73, 37
6, 13800, Note_on_c, 4, 45, 37
6, 13835, Note_on_c, 4, 45, 0
6, 13860, Note_on_c, 4, 57, 36
6, 13920, Note_on_c, 4, 57, 0
6, 13920, Note_on_c, 4, 73, 0
6, 13920, Note_on_c, 4, 64, 0
6, 13920, Note_on_c, 4, 64, 36
6, 13920, Note_on_c, 4, 56, 36
6, 13955, Note_on_c, 4, 56, 0
6, 13980, Note_on_c, 4, 64, 0
6, 13980, Note_on_c, 4, 66, 34
6, 13980, Note_on_c, 4, 54, 34
6, 14040, Note_on_c, 4, 54, 0
6, 14040, Note_on_c, 4, 51, 24
6, 14075, Note_on_c, 4, 51, 0
6, 14100, Note_on_c, 4, 66, 0
6, 14100, Note_on_c, 4, 66, 32
6, 14100, Note_on_c, 4, 52, 32
6, 14135, Note_on_c, 4, 52, 0
6, 14160, Note_on_c, 4, 66, 0
6, 14160, Note_on_c, 4, 63, 31
6, 14160, Note_on_c, 4, 69, 31
6, 14160, Note_on_c, 4, 71, 31
6, 14160, Note_on_c, 4, 51, 31
6, 14280, Note_on_c, 4, 51, 0
6, 14280, Note_on_c, 4, 47, 30
6, 14315, Note_on_c, 4, 47, 0
6, 14340, Note_on_c, 4, 71, 0
6, 14340, Note_on_c, 4, 69, 0
6, 14340, Note_on_c, 4, 63, 0
6, 14340, Note_on_c, 4, 64, 30
6, 14340, Note_on_c, 4, 68, 30
6, 14340, Note_on_c, 4, 71, 30
6, 14340, Note_on_c, 4, 52, 30
6, 14460, Note_on_c, 4, 52, 0
6, 14460, Note_on_c, 4, 64, 0
6, 14460, Note_on_c, 4, 68, 0
6, 14460, Note_on_c, 4, 71, 0
6, 14460, Note_on_c, 4, 64, 30
6, 14460, Note_on_c, 4, 68, 30
6, 14460, Note_on_c, 4, 50, 30
6, 14495, Note_on_c, 4, 50, 0
6, 14520, Note_on_c, 4, 68, 0
6, 14520, Note_on_c, 4, 69, 30
6, 14520, Note_on_c, 4, 49, 30
6, 14580, Note_on_c, 4, 49, 0
6, 14580, Note_on_c, 4, 69, 0
6, 14580, Note_on_c, 4, 64, 0
6, 14580, Note_on_c, 4, 69, 30
6, 14580, Note_on_c, 4, 54, 30
6, 14640, Note_on_c, 4, 54, 0
6, 14640, Note_on_c, 4, 66, 30
6, 14640, Note_on_c, 4, 52, 30
6, 14675, Note_on_c, 4, 52, 0
6, 14700, Note_on_c, 4, 66, 0
6, 14700, Note_on_c, 4, 69, 0
6, 14700, Note_on_c, 4, 60, 29
6, 14700, Note_on_c, 4, 69, 29
6, 14700, Note_on_c, 4, 51, 29
6, 14760, Note_on_c, 4, 51, 0
6, 14760, Note_on_c, 4, 69, 0
6, 14760, Note_on_c, 4, 60, 0
6, 14760, Note_on_c, 4, 63, 28
6, 14760, Note_on_c, 4, 68, 28
6, 14760, Note_on_c, 4, 48, 28
6, 14820, Note_on_c, 4, 48, 0
6, 14820, Note_on_c, 4, 68, 0
6, 14820, Note_on_c, 4, 63, 0
6, 14820, Note_on_c, 4, 61, 27
6, 14820, Note_on_c, 4, 69, 27
6, 14820, Note_on_c, 4, 49, 27
6, 14855, Note_on_c, 4, 49, 0
6, 14880, Note_on_c, 4, 69, 0
6, 14880, Note_on_c, 4, 61, 0
6, 14880, Note_on_c, 4, 63, 26
6, 14880, Note_on_c, 4, 68, 26
6, 14880, Note_on_c, 4, 48, 26
6, 15000, Note_on_c, 4, 48, 0
6, 15000, Note_on_c, 4, 44, 24
6, 15035, Note_on_c, 4, 44, 0
6, 15060, Note_on_c, 4, 49, 24
6, 15120, Note_on_c, 4, 49, 0
6, 15120, Note_on_c, 4, 68, 0
6, 15120, Note_on_c, 4, 63, 0
6, 15120, Note_on_c, 4, 66, 29
6, 15120, Note_on_c, 4, 69, 29
6, 15120, Note_on_c, 4, 51, 29
6, 15180, Note_on_c, 4, 51, 0
6, 15180, Note_on_c, 4, 69, 0
6, 15180, Note_on_c, 4, 66, 0
6, 15180, Note_on_c, 4, 64, 34
6, 15180, Note_on_c, 4, 68, 34
6, 15180, Note_on_c, 4, 52, 34
6, 15215, Note_on_c, 4, 52, 0
6, 15240, Note_on_c, 4, 68, 0
6, 15240, Note_on_c, 4, 64, 0
6, 15240, Note_on_c, 4, 66, 29
6, 15240, Note_on_c, 4, 69, 29
6, 15240, Note_on_c, 4, 54, 29
6, 15300, Note_on_c, 4, 54, 0
6, 15300, Note_on_c, 4, 56, 33
6, 15360, Note_on_c, 4, 56, 0
6, 15360, Note_on_c, 4, 57, 36
6, 15395, Note_on_c, 4, 57, 0
6, 15420, Note_on_c, 4, 47, 24
6, 15480, Note_on_c, 4, 47, 0
6, 15480, Note_on_c, 4, 69, 0
6, 15480, Note_on_c, 4, 66, 0
6, 15480, Note_on_c, 4, 59, 28
6, 15480, Note_on_c, 4, 68, 28
6, 15480, Note_on_c, 4, 49, 28
6, 15540, Note_on_c, 4, 49, 0
6, 15540, Note_on_c, 4, 68, 0
6, 15540, Note_on_c, 4, 59, 0
6, 15540, Note_on_c, 4, 57, 32
6, 15540, Note_on_c, 4, 66, 32
6, 15540, Note_on_c, 4, 51, 32
6, 15575, Note_on_c, 4, 51, 0
6, 15600, Note_on_c, 4, 66, 0
6, 15600, Note_on_c, 4, 57, 0
6, 15600, Note_on_c, 4, 64, 30
6, 15600, Note_on_c, 4, 68, 30
6, 15600, Note_on_c, 4, 52, 30
6, 15660, Note_on_c, 4, 52, 0
6, 15660, Note_on_c, 4, 68, 0
6, 15660, Note_on_c, 4, 64, 0
6, 15660, Note_on_c, 4, 63, 34
6, 15660, Note_on_c, 4, 66, 34
6, 15660, Note_on_c, 4, 54, 34
6, 15720, Note_on_c, 4, 54, 0
6, 15720, Note_on_c, 4, 66, 0
6, 15720, Note_on_c, 4, 63, 0
6, 15720, Note_on_c, 4, 64, 38
6, 15720, Note_on_c, 4, 68, 38
6, 15720, Note_on_c, 4, 56, 38
6, 15755, Note_on_c, 4, 56, 0
6, 15780, Note_on_c, 4, 68, 0
6, 15780, Note_on_c, 4, 64, 0
6, 15780, Note_on_c, 4, 66, 36
6, 15780, Note_on_c, 4, 69, 36
6, 15780, Note_on_c, 4, 57, 36
6, 15900, Note_on_c, 4, 69, 0
6, 15900, Note_on_c, 4, 66, 0
6, 15960, Note_on_c, 4, 63, 39
6, 15960, Note_on_c, 4, 66, 39
6, 15960, Note_on_c, 4, 71, 39
6, 16020, Note_on_c, 4, 57, 0
6, 16020, Note_on_c, 4, 56, 40
6, 16080, Note_on_c, 4, 56, 0
6, 16080, Note_on_c, 4, 54, 40
6, 16115, Note_on_c, 4, 54, 0
6, 16140, Note_on_c, 4, 63, 0
6, 16140, Note_on_c, 4, 66, 0
6, 16140, Note_on_c, 4, 71, 0
6, 16140, Note_on_c, 4, 56, 41
6, 16200, Note_on_c, 4, 56, 0
6, 16200, Note_on_c, 4, 59, 42
6, 16260, Note_on_c, 4, 59, 0
6, 16260, Note_on_c, 4, 59, 42
6, 16260, Note_on_c, 4, 52, 42
6, 16295, Note_on_c, 4, 52, 0
6, 16320, Note_on_c, 4, 59, 0
6, 16320, Note_on_c, 4, 64, 43
6, 16320, Note_on_c, 4, 68, 43
6, 16320, Note_on_c, 4, 57, 43
6, 16440, Note_on_c, 4, 57, 0
6, 16440, Note_on_c, 4, 68, 0
6, 16440, Note_on_c, 4, 64, 0
6, 16500, Note_on_c, 4, 64, 40
6, 16500, Note_on_c, 4, 68, 40
6, 16500, Note_on_c, 4, 59, 40
6, 16620, Note_on_c, 4, 59, 0
6, 16620, Note_on_c, 4, 68, 0
6, 16620, Note_on_c, 4, 64, 0
6, 16680, Note_on_c, 4, 64, 42
6, 16680, Note_on_c, 4, 68, 42
6, 16680, Note_on_c, 4, 61, 42
6, 16800, Note_on_c, 4, 61, 0
6, 16800, Note_on_c, 4, 68, 0
6, 16800, Note_on_c, 4, 64, 0
6, 16860, Note_on_c, 4, 59, 33
6, 16860, Note_on_c, 4, 64, 33
6, 16860, Note_on_c, 4, 44, 33
6, 16980, Note_on_c, 4, 44, 0
6, 16980, Note_on_c, 4, 64, 0
6, 16980, Note_on_c, 4, 59, 0
6, 17040, Note_on_c, 4, 61, 32
6, 17040, Note_on_c, 4, 64, 32
6, 17040, Note_on_c, 4, 45, 32
6, 17160, Note_on_c, 4, 45, 0
6, 17160, Note_on_c, 4, 64, 0
6, 17160, Note_on_c, 4, 61, 0
6, 17220, Note_on_c, 4, 63, 30
6, 17220, Note_on_c, 4, 68, 30
6, 17220, Note_on_c, 4, 47, 30
6, 17280, Note_on_c, 4, 68, 0
6, 17280, Note_on_c, 4, 63, 0
6, 17280, Note_on_c, 4, 66, 30
6, 17340, Note_on_c, 4, 66, 0
6, 17340, Note_on_c, 4, 47, 0
6, 17340, Note_on_c, 4, 64, 30
6, 17400, Note_on_c, 4, 64, 0
6, 17400, Note_on_c, 4, 52, 30
6, 17410, Note_on_c, 4, 56, 30
6, 17420, Note_on_c, 4, 59, 27
6, 17430, Note_on_c, 4, 52, 0
6, 17430, Note_on_c, 4, 64, 28
6, 17430, Note_on_c, 4, 51, 28
6, 17460, Note_on_c, 4, 51, 0
6, 17460, Note_on_c, 4, 52, 30
6, 17495, Note_on_c, 4, 52, 0
6, 17520, Note_on_c, 4, 47, 36
6, 17555, Note_on_c, 4, 47, 0
6, 17580, Note_on_c, 4, 56, 0
6, 17580, Note_on_c, 4, 59, 0
6, 17580, Note_on_c, 4, 64, 0
6, 17580, Note_on_c, 4, 71, 42
6, 17580, Note_on_c, 4, 76, 42
6, 17580, Note_on_c, 4, 44, 42
6, 17700, Note_on_c, 4, 44, 0
6, 17700, Note_on_c, 4, 76, 0
6, 17700, Note_on_c, 4, 71, 0
6, 17700, Note_on_c, 4, 69, 42
6, 17700, Note_on_c, 4, 75, 42
6, 17700, Note_on_c, 4, 42, 42
6, 17735, Note_on_c, 4, 42, 0
6, 17760, Note_on_c, 4, 75, 0
6, 17760, Note_on_c, 4, 69, 0
6, 17760, Note_on_c, 4, 68, 42
6, 17760, Note_on_c, 4, 76, 42
6, 17760, Note_on_c, 4, 40, 42
6, 17880, Note_on_c, 4, 40, 0
6, 17880, Note_on_c, 4, 76, 0
6, 17880, Note_on_c, 4, 68, 0
6, 17880, Note_on_c, 4, 71, 42
6, 17880, Note_on_c, 4, 80, 42
6, 17880, Note_on_c, 4, 52, 42
6, 17915, Note_on_c, 4, 52, 0
6, 17940, Note_on_c, 4, 80, 0
6, 17940, Note_on_c, 4, 71, 0
6, 17940, Note_on_c, 4, 69, 42
6, 17940, Note_on_c, 4, 78, 42
6, 17940, Note_on_c, 4, 45, 42
6, 18060, Note_on_c, 4, 45, 0
6, 18060, Note_on_c, 4, 78, 0
6, 18060, Note_on_c, 4, 69, 0
6, 18060, Note_on_c, 4, 66, 42
6, 18060, Note_on_c, 4, 75, 42
6, 18060, Note_on_c, 4, 47, 42
6, 18095, Note_on_c, 4, 47, 0
6, 18120, Note_on_c, 4, 75, 0
6, 18120, Note_on_c, 4, 66, 0
6, 18120, Note_on_c, 4, 68, 42
6, 18120, Note_on_c, 4, 76, 42
6, 18120, Note_on_c, 4, 52, 42
6, 18240, Note_on_c, 4, 52, 0
6, 18240, Note_on_c, 4, 76, 0
6, 18240, Note_on_c, 4, 68, 0
6, 18240, Note_on_c, 4, 71, 42
6, 18240, Note_on_c, 4, 80, 42
6, 18240, Note_on_c, 4, 64, 42
6, 18275, Note_on_c, 4, 64, 0
6, 18300, Note_on_c, 4, 80, 0
6, 18300, Note_on_c, 4, 71, 0
6, 18300, Note_on_c, 4, 69, 42
6, 18300, Note_on_c, 4, 78, 42
6, 18300, Note_on_c, 4, 57, 42
6, 18420, Note_on_c, 4, 57, 0
6, 18420, Note_on_c, 4, 78, 0
6, 18420, Note_on_c, 4, 69, 0
6, 18420, Note_on_c, 4, 66, 42
6, 18420, Note_on_c, 4, 75, 42
6, 18420, Note_on_c, 4, 59, 42
6, 18455, Note_on_c, 4, 59, 0
6, 18480, Note_on_c, 4, 75, 0
6, 18480, Note_on_c, 4, 66, 0
6, 18480, Note_on_c, 4, 68, 41
6, 18480, Note_on_c, 4, 76, 41
6, 18480, Note_on_c, 4, 52, 41
6, 18600, Note_on_c, 4, 52, 0
6, 18600, Note_on_c, 4, 76, 0
6, 18600, Note_on_c, 4, 68, 0
6, 18600, Note_on_c, 4, 64, 41
6, 18600, Note_on_c, 4, 71, 41
6, 18600, Note_on_c, 4, 56, 41
6, 18635, Note_on_c, 4, 56, 0
6, 18660, Note_on_c, 4, 71, 0
6, 18660, Note_on_c, 4, 64, 0
6, 18660, Note_on_c, 4, 63, 41
6, 18660, Note_on_c, 4, 71, 41
6, 18660, Note_on_c, 4, 54, 41
6, 18780, Note_on_c, 4, 54, 0
6, 18780, Note_on_c, 4, 71, 0
6, 18780, Note_on_c, 4, 63, 0
6, 18780, Note_on_c, 4, 68, 41
6, 18780, Note_on_c, 4, 71, 41
6, 18780, Note_on_c, 4, 52, 41
6, 18815, Note_on_c, 4, 52, 0
6, 18840, Note_on_c, 4, 71, 0
6, 18840, Note_on_c, 4, 68, 0
6, 18840, Note_on_c, 4, 63, 41
6, 18840, Note_on_c, 4, 66, 41
6, 18840, Note_on_c, 4, 71, 41
6, 18840, Note_on_c, 4, 47, 41
6, 18960, Note_on_c, 4, 47, 0
6, 18960, Note_on_c, 4, 63, 0
6, 18960, Note_on_c, 4, 66, 0
6, 18960, Note_on_c, 4, 71, 0
6, 18960, Note_on_c, 4, 64, 42
6, 18960, Note_on_c, 4, 73, 42
6, 18960, Note_on_c, 4, 54, 42
6, 18995, Note_on_c, 4, 54, 0
6, 19020, Note_on_c, 4, 73, 0
6, 19020, Note_on_c, 4, 64, 0
6, 19020, Note_on_c, 4, 63, 46
6, 19020, Note_on_c, 4, 71, 46
6, 19020, Note_on_c, 4, 59, 46
6, 19080, Note_on_c, 4, 71, 0
6, 19080, Note_on_c, 4, 63, 0
6, 19080, Note_on_c, 4, 66, 49
6, 19080, Note_on_c, 4, 75, 49
6, 19140, Note_on_c, 4, 59, 0
6, 19140, Note_on_c, 4, 57, 53
6, 19175, Note_on_c, 4, 57, 0
6, 19200, Note_on_c, 4, 75, 0
6, 19200, Note_on_c, 4, 66, 0
6, 19200, Note_on_c, 4, 64, 55
6, 19200, Note_on_c, 4, 71, 55
6, 19200, Note_on_c, 4, 76, 55
6, 19200, Note_on_c, 4, 56, 55
6, 19320, Note_on_c, 4, 56, 0
6, 19320, Note_on_c, 4, 64, 0
6, 19320, Note_on_c, 4, 71, 0
6, 19320, Note_on_c, 4, 76, 0
6, 19560, Note_on_c, 4, 68, 55
6, 19560, Note_on_c, 4, 73, 55
6, 19560, Note_on_c, 4, 76, 55
6, 19560, Note_on_c, 4, 49, 55
6, 19740, Note_on_c, 4, 49, 0
6, 19740, Note_on_c, 4, 68, 0
6, 19740, Note_on_c, 4, 73, 0
6, 19740, Note_on_c, 4, 76, 0
6, 19860, Note_on_c, 4, 64, 57
6, 19860, Note_on_c, 4, 68, 57
6, 19860, Note_on_c, 4, 74, 57
6, 19860, Note_on_c, 4, 47, 57
6, 19895, Note_on_c, 4, 47, 0
6, 19920, Note_on_c, 4, 64, 0
6, 19920, Note_on_c, 4, 68, 0
6, 19920, Note_on_c, 4, 74, 0
6, 19920, Note_on_c, 4, 64, 62
6, 19920, Note_on_c, 4, 69, 62
6, 19920, Note_on_c, 4, 73, 62
6, 19920, Note_on_c, 4, 45, 62
6, 19980, Note_on_c, 4, 45, 0
6, 19980, Note_on_c, 4, 57, 55
6, 20040, Note_on_c, 4, 57, 0
6, 20040, Note_on_c, 4, 56, 55
6, 20075, Note_on_c, 4, 56, 0
6, 20100, Note_on_c, 4, 64, 0
6, 20100, Note_on_c, 4, 69, 0
6, 20100, Note_on_c, 4, 73, 0
6, 20100, Note_on_c, 4, 66, 55
6, 20100, Note_on_c, 4, 69, 55
6, 20100, Note_on_c, 4, 73, 55
6, 20100, Note_on_c, 4, 54, 55
6, 20160, Note_on_c, 4, 54, 0
6, 20160, Note_on_c, 4, 51, 40
6, 20220, Note_on_c, 4, 51, 0
6, 20220, Note_on_c, 4, 52, 55
6, 20255, Note_on_c, 4, 52, 0
6, 20280, Note_on_c, 4, 66, 0
6, 20280, Note_on_c, 4, 69, 0
6, 20280, Note_on_c, 4, 73, 0
6, 20280, Note_on_c, 4, 63, 52
6, 20280, Note_on_c, 4, 69, 52
6, 20280, Note_on_c, 4, 71, 52
6, 20280, Note_on_c, 4, 51, 52
6, 20340, Note_on_c, 4, 51, 0
6, 20340, Note_on_c, 4, 49, 46
6, 20400, Note_on_c, 4, 49, 0
6, 20400, Note_on_c, 4, 47, 41
6, 20435, Note_on_c, 4, 47, 0
6, 20460, Note_on_c, 4, 63, 0
6, 20460, Note_on_c, 4, 69, 0
6, 20460, Note_on_c, 4, 71, 0
6, 20460, Note_on_c, 4, 64, 38
6, 20460, Note_on_c, 4, 68, 38
6, 20460, Note_on_c, 4, 71, 38
6, 20460, Note_on_c, 4, 52, 38
6, 20520, Note_on_c, 4, 52, 0
6, 20520, Note_on_c, 4, 54, 45
6, 20580, Note_on_c, 4, 54, 0
6, 20580, Note_on_c, 4, 71, 0
6, 20580, Note_on_c, 4, 68, 0
6, 20580, Note_on_c, 4, 64, 0
6, 20580, Note_on_c, 4, 59, 52
6, 20580, Note_on_c, 4, 71, 52
6, 20580, Note_on_c, 4, 56, 52
6, 20615, Note_on_c, 4, 56, 0
6, 20640, Note_on_c, 4, 71, 0
6, 20640, Note_on_c, 4, 59, 0
6, 20640, Note_on_c, 4, 61, 59
6, 20640, Note_on_c, 4, 71, 59
6, 20640, Note_on_c, 4, 57, 59
6, 20700, Note_on_c, 4, 57, 0
6, 20700, Note_on_c, 4, 71, 0
6, 20700, Note_on_c, 4, 61, 0
6, 20700, Note_on_c, 4, 63, 66
6, 20700, Note_on_c, 4, 69, 66
6, 20700, Note_on_c, 4, 59, 66
6, 20760, Note_on_c, 4, 59, 0
6, 20760, Note_on_c, 4, 69, 0
6, 20760, Note_on_c, 4, 63, 0
6, 20760, Note_on_c, 4, 64, 65
6, 20760, Note_on_c, 4, 68, 65
6, 20760, Note_on_c, 4, 61, 65
6, 20795, Note_on_c, 4, 61, 0
6, 20820, Note_on_c, 4, 68, 0
6, 20820, Note_on_c, 4, 64, 0
6, 20820, Note_on_c, 4, 68, 66
6, 20820, Note_on_c, 4, 71, 66
6, 20820, Note_on_c, 4, 59, 66
6, 20940, Note_on_c, 4, 59, 0
6, 20940, Note_on_c, 4, 71, 0
6, 20940, Note_on_c, 4, 68, 0
6, 20940, Note_on_c, 4, 64, 63
6, 20940, Note_on_c, 4, 68, 63
6, 20940, Note_on_c, 4, 47, 63
6, 20975, Note_on_c, 4, 47, 0
6, 21000, Note_on_c, 4, 68, 0
6, 21000, Note_on_c, 4, 64, 0
6, 21000, Note_on_c, 4, 61, 63
6, 21000, Note_on_c, 4, 64, 63
6, 21000, Note_on_c, 4, 68, 63
6, 21000, Note_on_c, 4, 49, 63
6, 21120, Note_on_c, 4, 49, 0
6, 21120, Note_on_c, 4, 61, 0
6, 21120, Note_on_c, 4, 64, 0
6, 21120, Note_on_c, 4, 68, 0
6, 21180, Note_on_c, 4, 64, 50
6, 21180, Note_on_c, 4, 68, 50
6, 21180, Note_on_c, 4, 71, 50
6, 21180, Note_on_c, 4, 44, 50
6, 21300, Note_on_c, 4, 44, 0
6, 21300, Note_on_c, 4, 64, 0
6, 21300, Note_on_c, 4, 68, 0
6, 21300, Note_on_c, 4, 71, 0
6, 21360, Note_on_c, 4, 64, 47
6, 21360, Note_on_c, 4, 66, 47
6, 21360, Note_on_c, 4, 73, 47
6, 21360, Note_on_c, 4, 45, 47
6, 21480, Note_on_c, 4, 45, 0
6, 21480, Note_on_c, 4, 64, 0
6, 21480, Note_on_c, 4, 66, 0
6, 21480, Note_on_c, 4, 73, 0
6, 21540, Note_on_c, 4, 68, 61
6, 21540, Note_on_c, 4, 71, 61
6, 21540, Note_on_c, 4, 47, 61
6, 21600, Note_on_c, 4, 71, 0
6, 21600, Note_on_c, 4, 68, 0
6, 21600, Note_on_c, 4, 66, 58
6, 21600, Note_on_c, 4, 75, 58
6, 21660, Note_on_c, 4, 75, 0
6, 21660, Note_on_c, 4, 66, 0
6, 21660, Note_on_c, 4, 47, 0
6, 21660, Note_on_c, 4, 64, 53
6, 21660, Note_on_c, 4, 76, 53
6, 21720, Note_on_c, 4, 76, 0
6, 21720, Note_on_c, 4, 64, 0
6, 21720, Note_on_c, 4, 52, 48
6, 21730, Note_on_c, 4, 56, 47
6, 21740, Note_on_c, 4, 59, 46
6, 21750, Note_on_c, 4, 52, 0
6, 21750, Note_on_c, 4, 64, 45
6, 21750, Note_on_c, 4, 51, 45
6, 21780, Note_on_c, 4, 51, 0
6, 21780, Note_on_c, 4, 52, 41
6, 21815, Note_on_c, 4, 52, 0
6, 21840, Note_on_c, 4, 47, 31
6, 21875, Note_on_c, 4, 47, 0
6, 21900, Note_on_c, 4, 56, 0
6, 21900, Note_on_c, 4, 59, 0
6, 21900, Note_on_c, 4, 64, 0
6, 21900, Note_on_c, 4, 59, 30
6, 21900, Note_on_c, 4, 67, 30
6, 21900, Note_on_c, 4, 40, 30
6, 22020, Note_on_c, 4, 40, 0
6, 22020, Note_on_c, 4, 50, 30
6, 22055, Note_on_c, 4, 50, 0
6, 22080, Note_on_c, 4, 67, 0
6, 22080, Note_on_c, 4, 59, 0
6, 22080, Note_on_c, 4, 58, 30
6, 22080, Note_on_c, 4, 67, 30
6, 22080, Note_on_c, 4, 49, 30
6, 22200, Note_on_c, 4, 49, 0
6, 22200, Note_on_c, 4, 67, 0
6, 22200, Note_on_c, 4, 58, 0
6, 22200, Note_on_c, 4, 64, 29
6, 22200, Note_on_c, 4, 67, 29
6, 22200, Note_on_c, 4, 71, 29
6, 22200, Note_on_c, 4, 47, 29
6, 22235, Note_on_c, 4, 47, 0
6, 22260, Note_on_c, 4, 64, 0
6, 22260, Note_on_c, 4, 67, 0
6, 22260, Note_on_c, 4, 71, 0
6, 22260, Note_on_c, 4, 67, 28
6, 22260, Note_on_c, 4, 73, 28
6, 22260, Note_on_c, 4, 46, 28
6, 22380, Note_on_c, 4, 46, 0
6, 22380, Note_on_c, 4, 67, 0
6, 22380, Note_on_c, 4, 64, 27
6, 22380, Note_on_c, 4, 42, 27
6, 22415, Note_on_c, 4, 42, 0
6, 22440, Note_on_c, 4, 64, 0
6, 22440, Note_on_c, 4, 73, 0
6, 22440, Note_on_c, 4, 66, 27
6, 22440, Note_on_c, 4, 73, 27
6, 22440, Note_on_c, 4, 47, 27
6, 22560, Note_on_c, 4, 47, 0
6, 22560, Note_on_c, 4, 73, 0
6, 22560, Note_on_c, 4, 74, 33
6, 22560, Note_on_c, 4, 49, 33
6, 22595, Note_on_c, 4, 49, 0
6, 22620, Note_on_c, 4, 74, 0
6, 22620, Note_on_c, 4, 73, 32
6, 22620, Note_on_c, 4, 50, 32
6, 22680, Note_on_c, 4, 73, 0
6, 22680, Note_on_c, 4, 66, 0
6, 22680, Note_on_c, 4, 65, 31
6, 22680, Note_on_c, 4, 71, 31
6, 22740, Note_on_c, 4, 71, 0
6, 22740, Note_on_c, 4, 65, 0
6, 22740, Note_on_c, 4, 50, 0
6, 22740, Note_on_c, 4, 66, 30
6, 22740, Note_on_c, 4, 69, 30
6, 22740, Note_on_c, 4, 49, 30
6, 22775, Note_on_c, 4, 49, 0
6, 22800, Note_on_c, 4, 69, 0
6, 22800, Note_on_c, 4, 66, 0
6, 22800, Note_on_c, 4, 68, 30
6, 22800, Note_on_c, 4, 74, 30
6, 22800, Note_on_c, 4, 47, 30
6, 22835, Note_on_c, 4, 47, 0
6, 22860, Note_on_c, 4, 74, 0
6, 22860, Note_on_c, 4, 68, 0
6, 22860, Note_on_c, 4, 68, 29
6, 22860, Note_on_c, 4, 71, 29
6, 22860, Note_on_c, 4, 41, 29
6, 22920, Note_on_c, 4, 41, 0
6, 22920, Note_on_c, 4, 71, 0
6, 22920, Note_on_c, 4, 68, 0
6, 22920, Note_on_c, 4, 66, 27
6, 22920, Note_on_c, 4, 69, 27
6, 22920, Note_on_c, 4, 42, 27
6, 22955, Note_on_c, 4, 42, 0
6, 22980, Note_on_c, 4, 47, 26
6, 23040, Note_on_c, 4, 69, 0
6, 23040, Note_on_c, 4, 66, 0
6, 23040, Note_on_c, 4, 65, 25
6, 23040, Note_on_c, 4, 71, 25
6, 23100, Note_on_c, 4, 71, 0
6, 23100, Note_on_c, 4, 65, 0
6, 23100, Note_on_c, 4, 47, 0
6, 23100, Note_on_c, 4, 66, 24
6, 23100, Note_on_c, 4, 69, 24
6, 23100, Note_on_c, 4, 44, 24
6, 23135, Note_on_c, 4, 44, 0
6, 23160, Note_on_c, 4, 69, 0
6, 23160, Note_on_c, 4, 66, 0
6, 23160, Note_on_c, 4, 61, 24
6, 23160, Note_on_c, 4, 68, 24
6, 23160, Note_on_c, 4, 49, 24
6, 23220, Note_on_c, 4, 49, 0
6, 23220, Note_on_c, 4, 68, 0
6, 23220, Note_on_c, 4, 61, 0
6, 23220, Note_on_c, 4, 66, 28
6, 23220, Note_on_c, 4, 51, 28
6, 23280, Note_on_c, 4, 51, 0
6, 23280, Note_on_c, 4, 66, 0
6, 23280, Note_on_c, 4, 68, 32
6, 23280, Note_on_c, 4, 53, 32
6, 23340, Note_on_c, 4, 68, 0
6, 23340, Note_on_c, 4, 71, 36
6, 23400, Note_on_c, 4, 53, 0
6, 23400, Note_on_c, 4, 51, 31
6, 23460, Note_on_c, 4, 51, 0
6, 23460, Note_on_c, 4, 71, 0
6, 23460, Note_on_c, 4, 65, 27
6, 23460, Note_on_c, 4, 49, 27
6, 23495, Note_on_c, 4, 49, 0
6, 23520, Note_on_c, 4, 65, 0
6, 23520, Note_on_c, 4, 69, 35
6, 23520, Note_on_c, 4, 54, 35
6, 23580, Note_on_c, 4, 54, 0
6, 23580, Note_on_c, 4, 69, 0
6, 23580, Note_on_c, 4, 71, 38
6, 23580, Note_on_c, 4, 56, 38
6, 23640, Note_on_c, 4, 56, 0
6, 23640, Note_on_c, 4, 71, 0
6, 23640, Note_on_c, 4, 73, 42
6, 23640, Note_on_c, 4, 57, 42
6, 23760, Note_on_c, 4, 57, 0
6, 23760, Note_on_c, 4, 73, 0
6, 23760, Note_on_c, 4, 71, 40
6, 23760, Note_on_c, 4, 56, 40
6, 23820, Note_on_c, 4, 56, 0
6, 23820, Note_on_c, 4, 71, 0
6, 23820, Note_on_c, 4, 69, 34
6, 23820, Note_on_c, 4, 54, 34
6, 23855, Note_on_c, 4, 54, 0
6, 23880, Note_on_c, 4, 69, 0
6, 23880, Note_on_c, 4, 62, 33
6, 23880, Note_on_c, 4, 47, 33
6, 23940, Note_on_c, 4, 47, 0
6, 23940, Note_on_c, 4, 62, 0
6, 23940, Note_on_c, 4, 64, 36
6, 23940, Note_on_c, 4, 49, 36
6, 24000, Note_on_c, 4, 49, 0
6, 24000, Note_on_c, 4, 64, 0
6, 24000, Note_on_c, 4, 66, 38
6, 24000, Note_on_c, 4, 50, 38
6, 24060, Note_on_c, 4, 66, 0
6, 24060, Note_on_c, 4, 62, 40
6, 24060, Note_on_c, 4, 71, 40
6, 24120, Note_on_c, 4, 50, 0
6, 24120, Note_on_c, 4, 49, 36
6, 24180, Note_on_c, 4, 49, 0
6, 24180, Note_on_c, 4, 71, 0
6, 24180, Note_on_c, 4, 62, 0
6, 24180, Note_on_c, 4, 66, 32
6, 24180, Note_on_c, 4, 47, 32
6, 24215, Note_on_c, 4, 47, 0
6, 24240, Note_on_c, 4, 66, 0
6, 24240, Note_on_c, 4, 59, 28
6, 24240, Note_on_c, 4, 64, 28
6, 24240, Note_on_c, 4, 68, 28
6, 24240, Note_on_c, 4, 40, 28
6, 24300, Note_on_c, 4, 40, 0
6, 24300, Note_on_c, 4, 42, 36
6, 24360, Note_on_c, 4, 42, 0
6, 24360, Note_on_c, 4, 44, 42
6, 24480, Note_on_c, 4, 44, 0
6, 24480, Note_on_c, 4, 42, 40
6, 24540, Note_on_c, 4, 42, 0
6, 24540, Note_on_c, 4, 40, 36
6, 24575, Note_on_c, 4, 40, 0
6, 24600, Note_on_c, 4, 59, 0
6, 24600, Note_on_c, 4, 61, 36
6, 24600, Note_on_c, 4, 45, 36
6, 24660, Note_on_c, 4, 45, 0
6, 24660, Note_on_c, 4, 47, 41
6, 24720, Note_on_c, 4, 47, 0
6, 24720, Note_on_c, 4, 61, 0
6, 24720, Note_on_c, 4, 68, 0
6, 24720, Note_on_c, 4, 64, 0
6, 24720, Note_on_c, 4, 64, 46
6, 24720, Note_on_c, 4, 49, 46
6, 24780, Note_on_c, 4, 69, 51
6, 24840, Note_on_c, 4, 49, 0
6, 24840, Note_on_c, 4, 47, 49
6, 24900, Note_on_c, 4, 47, 0
6, 24900, Note_on_c, 4, 69, 0
6, 24900, Note_on_c, 4, 64, 0
6, 24900, Note_on_c, 4, 61, 47
6, 24900, Note_on_c, 4, 64, 47
6, 24900, Note_on_c, 4, 45, 47
6, 24935, Note_on_c, 4, 45, 0
6, 24960, Note_on_c, 4, 64, 0
6, 24960, Note_on_c, 4, 61, 0
6, 24960, Note_on_c, 4, 62, 41
6, 24960, Note_on_c, 4, 66, 41
6, 24960, Note_on_c, 4, 50, 41
6, 25080, Note_on_c, 4, 50, 0
6, 25080, Note_on_c, 4, 66, 0
6, 25080, Note_on_c, 4, 62, 0
6, 25140, Note_on_c, 4, 59, 39
6, 25140, Note_on_c, 4, 66, 39
6, 25140, Note_on_c, 4, 51, 39
6, 25260, Note_on_c, 4, 51, 0
6, 25260, Note_on_c, 4, 66, 0
6, 25260, Note_on_c, 4, 59, 0
6, 25320, Note_on_c, 4, 59, 43
6, 25320, Note_on_c, 4, 68, 43
6, 25320, Note_on_c, 4, 52, 43
6, 25440, Note_on_c, 4, 52, 0
6, 25440, Note_on_c, 4, 68, 0
6, 25440, Note_on_c, 4, 59, 0
6, 25500, Note_on_c, 4, 61, 48
6, 25500, Note_on_c, 4, 68, 48
6, 25500, Note_on_c, 4, 53, 48
6, 25620, Note_on_c, 4, 53, 0
6, 25620, Note_on_c, 4, 68, 0
6, 25620, Note_on_c, 4, 61, 0
6, 25680, Note_on_c, 4, 61, 44
6, 25680, Note_on_c, 4, 69, 44
6, 25680, Note_on_c, 4, 54, 44
6, 25920, Note_on_c, 4, 54, 0
6, 25920, Note_on_c, 4, 57, 43
6, 25980, Note_on_c, 4, 57, 0
6, 25980, Note_on_c, 4, 69, 0
6, 25980, Note_on_c, 4, 61, 0
6, 25980, Note_on_c, 4, 66, 38
6, 25980, Note_on_c, 4, 69, 38
6, 25980, Note_on_c, 4, 62, 38
6, 26015, Note_on_c, 4, 62, 0
6, 26040, Note_on_c, 4, 69, 0
6, 26040, Note_on_c, 4, 66, 0
6, 26040, Note_on_c, 4, 62, 32
6, 26040, Note_on_c, 4, 69, 32
6, 26040, Note_on_c, 4, 56, 32
6, 26100, Note_on_c, 4, 69, 0
6, 26100, Note_on_c, 4, 62, 0
6, 26100, Note_on_c, 4, 68, 32
6, 26160, Note_on_c, 4, 68, 0
6, 26160, Note_on_c, 4, 56, 0
6, 26160, Note_on_c, 4, 69, 32
6, 26160, Note_on_c, 4, 54, 32
6, 26195, Note_on_c, 4, 54, 0
6, 26220, Note_on_c, 4, 69, 0
6, 26220, Note_on_c, 4, 61, 32
6, 26220, Note_on_c, 4, 71, 32
6, 26220, Note_on_c, 4, 53, 32
6, 26340, Note_on_c, 4, 53, 0
6, 26340, Note_on_c, 4, 71, 0
6, 26340, Note_on_c, 4, 61, 0
6, 26340, Note_on_c, 4, 65, 32
6, 26340, Note_on_c, 4, 68, 32
6, 26340, Note_on_c, 4, 49, 32
6, 26375, Note_on_c, 4, 49, 0
6, 26400, Note_on_c, 4, 68, 0
6, 26400, Note_on_c, 4, 65, 0
6, 26400, Note_on_c, 4, 66, 32
6, 26400, Note_on_c, 4, 69, 32
6, 26400, Note_on_c, 4, 54, 32
6, 26460, Note_on_c, 4, 69, 0
6, 26460, Note_on_c, 4, 66, 0
6, 26460, Note_on_c, 4, 65, 32
6, 26460, Note_on_c, 4, 68, 32
6, 26520, Note_on_c, 4, 68, 0
6, 26520, Note_on_c, 4, 65, 0
6, 26520, Note_on_c, 4, 54, 0
6, 26520, Note_on_c, 4, 66, 32
6, 26520, Note_on_c, 4, 69, 32
6, 26520, Note_on_c, 4, 48, 32
6, 26555, Note_on_c, 4, 48, 0
6, 26580, Note_on_c, 4, 49, 32
6, 26640, Note_on_c, 4, 69, 0
6, 26640, Note_on_c, 4, 66, 0
6, 26640, Note_on_c, 4, 68, 32
6, 26640, Note_on_c, 4, 71, 32
6, 26700, Note_on_c, 4, 71, 0
6, 26700, Note_on_c, 4, 68, 0
6, 26700, Note_on_c, 4, 49, 0
6, 26700, Note_on_c, 4, 65, 32
6, 26700, Note_on_c, 4, 68, 32
6, 26700, Note_on_c, 4, 37, 32
6, 26735, Note_on_c, 4, 37, 0
6, 26760, Note_on_c, 4, 68, 0
6, 26760, Note_on_c, 4, 65, 0
6, 26760, Note_on_c, 4, 57, 24
6, 26760, Note_on_c, 4, 66, 24
6, 26760, Note_on_c, 4, 42, 24
6, 26820, Note_on_c, 4, 42, 0
6, 26820, Note_on_c, 4, 45, 29
6, 26880, Note_on_c, 4, 45, 0
6, 26880, Note_on_c, 4, 49, 33
6, 26915, Note_on_c, 4, 49, 0
6, 26940, Note_on_c, 4, 54, 37
6, 27000, Note_on_c, 4, 54, 0
6, 27000, Note_on_c, 4, 66, 0
6, 27000, Note_on_c, 4, 57, 0
6, 27000, Note_on_c, 4, 61, 42
6, 27000, Note_on_c, 4, 57, 42
6, 27060, Note_on_c, 4, 57, 0
6, 27060, Note_on_c, 4, 61, 0
6, 27060, Note_on_c, 4, 65, 46
6, 27060, Note_on_c, 4, 68, 46
6, 27060, Note_on_c, 4, 61, 46
6, 27095, Note_on_c, 4, 61, 0
6, 27120, Note_on_c, 4, 68, 0
6, 27120, Note_on_c, 4, 65, 0
6, 27120, Note_on_c, 4, 61, 45
6, 27120, Note_on_c, 4, 66, 45
6, 27120, Note_on_c, 4, 69, 45
6, 27120, Note_on_c, 4, 54, 45
6, 27240, Note_on_c, 4, 54, 0
6, 27240, Note_on_c, 4, 61, 0
6, 27240, Note_on_c, 4, 66, 0
6, 27240, Note_on_c, 4, 69, 0
6, 27240, Note_on_c, 4, 69, 40
6, 27240, Note_on_c, 4, 73, 40
6, 27240, Note_on_c, 4, 42, 40
6, 27275, Note_on_c, 4, 42, 0
6, 27300, Note_on_c, 4, 73, 0
6, 27300, Note_on_c, 4, 69, 0
6, 27300, Note_on_c, 4, 62, 48
6, 27300, Note_on_c, 4, 68, 48
6, 27300, Note_on_c, 4, 71, 48
6, 27300, Note_on_c, 4, 47, 48
6, 27420, Note_on_c, 4, 47, 0
6, 27420, Note_on_c, 4, 62, 0
6, 27420, Note_on_c, 4, 68, 0
6, 27420, Note_on_c, 4, 71, 0
6, 27420, Note_on_c, 4, 65, 36
6, 27420, Note_on_c, 4, 68, 36
6, 27420, Note_on_c, 4, 49, 36
6, 27455, Note_on_c, 4, 49, 0
6, 27480, Note_on_c, 4, 68, 0
6, 27480, Note_on_c, 4, 65, 0
6, 27480, Note_on_c, 4, 61, 48
6, 27480, Note_on_c, 4, 66, 48
6, 27480, Note_on_c, 4, 69, 48
6, 27480, Note_on_c, 4, 42, 48
6, 27600, Note_on_c, 4, 42, 0
6, 27600, Note_on_c, 4, 61, 0
6, 27600, Note_on_c, 4, 66, 0
6, 27600, Note_on_c, 4, 69, 0
6, 27600, Note_on_c, 4, 69, 42
6, 27600, Note_on_c, 4, 73, 42
6, 27600, Note_on_c, 4, 54, 42
6, 27635, Note_on_c, 4, 54, 0
6, 27660, Note_on_c, 4, 73, 0
6, 27660, Note_on_c, 4, 69, 0
6, 27660, Note_on_c, 4, 62, 48
6, 27660, Note_on_c, 4, 68, 48
6, 27660, Note_on_c, 4, 71, 48
6, 27660, Note_on_c, 4, 47, 48
6, 27780, Note_on_c, 4, 47, 0
6, 27780, Note_on_c, 4, 62, 0
6, 27780, Note_on_c, 4, 68, 0
6, 27780, Note_on_c, 4, 71, 0
6, 27780, Note_on_c, 4, 65, 39
6, 27780, Note_on_c, 4, 68, 39
6, 27780, Note_on_c, 4, 49, 39
6, 27815, Note_on_c, 4, 49, 0
6, 27840, Note_on_c, 4, 68, 0
6, 27840, Note_on_c, 4, 65, 0
6, 27840, Note_on_c, 4, 61, 47
6, 27840, Note_on_c, 4, 66, 47
6, 27840, Note_on_c, 4, 69, 47
6, 27840, Note_on_c, 4, 42, 47
6, 27960, Note_on_c, 4, 42, 0
6, 27960, Note_on_c, 4, 61, 0
6, 27960, Note_on_c, 4, 66, 0
6, 27960, Note_on_c, 4, 69, 0
6, 27960, Note_on_c, 4, 69, 43
6, 27960, Note_on_c, 4, 73, 43
6, 27960, Note_on_c, 4, 40, 43
6, 27995, Note_on_c, 4, 40, 0
6, 28020, Note_on_c, 4, 73, 0
6, 28020, Note_on_c, 4, 69, 0
6, 28020, Note_on_c, 4, 68, 42
6, 28020, Note_on_c, 4, 72, 42
6, 28020, Note_on_c, 4, 38, 42
6, 28080, Note_on_c, 4, 72, 0
6, 28080, Note_on_c, 4, 68, 0
6, 28080, Note_on_c, 4, 69, 39
6, 28140, Note_on_c, 4, 69, 0
6, 28140, Note_on_c, 4, 38, 0
6, 28140, Note_on_c, 4, 66, 37
6, 28140, Note_on_c, 4, 73, 37
6, 28140, Note_on_c, 4, 50, 37
6, 28175, Note_on_c, 4, 50, 0
6, 28200, Note_on_c, 4, 73, 0
6, 28200, Note_on_c, 4, 66, 0
6, 28200, Note_on_c, 4, 65, 34
6, 28200, Note_on_c, 4, 68, 34
6, 28200, Note_on_c, 4, 73, 34
6, 28200, Note_on_c, 4, 49, 34
6, 28260, Note_on_c, 4, 49, 0
6, 28260, Note_on_c, 4, 53, 30
6, 28320, Note_on_c, 4, 53, 0
6, 28320, Note_on_c, 4, 56, 27
6, 28355, Note_on_c, 4, 56, 0
6, 28380, Note_on_c, 4, 49, 24
6, 28440, Note_on_c, 4, 65, 0
6, 28440, Note_on_c, 4, 73, 0
6, 28440, Note_on_c, 4, 68, 0
6, 28440, Note_on_c, 4, 66, 24
6, 28440, Note_on_c, 4, 69, 24
6, 28500, Note_on_c, 4, 69, 0
6, 28500, Note_on_c, 4, 66, 0
6, 28500, Note_on_c, 4, 49, 0
6, 28500, Note_on_c, 4, 68, 24
6, 28500, Note_on_c, 4, 71, 24
6, 28500, Note_on_c, 4, 47, 24
6, 28535, Note_on_c, 4, 47, 0
6, 28560, Note_on_c, 4, 71, 0
6, 28560, Note_on_c, 4, 68, 0
6, 28560, Note_on_c, 4, 69, 24
6, 28560, Note_on_c, 4, 73, 24
6, 28560, Note_on_c, 4, 45, 24
6, 28680, Note_on_c, 4, 45, 0
6, 28680, Note_on_c, 4, 73, 0
6, 28680, Note_on_c, 4, 69, 0
6, 28680, Note_on_c, 4, 66, 24
6, 28680, Note_on_c, 4, 73, 24
6, 28680, Note_on_c, 4, 42, 24
6, 28715, Note_on_c, 4, 42, 0
6, 28740, Note_on_c, 4, 73, 0
6, 28740, Note_on_c, 4, 66, 0
6, 28740, Note_on_c, 4, 65, 24
6, 28740, Note_on_c, 4, 68, 24
6, 28740, Note_on_c, 4, 73, 24
6, 28740, Note_on_c, 4, 49, 24
6, 28800, Note_on_c, 4, 73, 0
6, 28800, Note_on_c, 4, 65, 0
6, 28800, Note_on_c, 4, 68, 0
6, 28800, Note_on_c, 4, 63, 24
6, 28800, Note_on_c, 4, 66, 24
6, 28860, Note_on_c, 4, 66, 0
6, 28860, Note_on_c, 4, 63, 0
6, 28860, Note_on_c, 4, 49, 0
6, 28860, Note_on_c, 4, 61, 24
6, 28860, Note_on_c, 4, 65, 24
6, 28860, Note_on_c, 4, 71, 24
6, 28860, Note_on_c, 4, 37, 24
6, 28895, Note_on_c, 4, 37, 0
6, 28920, Note_on_c, 4, 61, 0
6, 28920, Note_on_c, 4, 65, 0
6, 28920, Note_on_c, 4, 71, 0
6, 28920, Note_on_c, 4, 61, 24
6, 28920, Note_on_c, 4, 66, 24
6, 28920, Note_on_c, 4, 69, 24
6, 28920, Note_on_c, 4, 42, 24
6, 29040, Note_on_c, 4, 42, 0
6, 29040, Note_on_c, 4, 54, 24
6, 29075, Note_on_c, 4, 54, 0
6, 29100, Note_on_c, 4, 69, 0
6, 29100, Note_on_c, 4, 66, 0
6, 29100, Note_on_c, 4, 61, 0
6, 29100, Note_on_c, 4, 65, 20
6, 29100, Note_on_c, 4, 68, 20
6, 29100, Note_on_c, 4, 49, 20
6, 29160, Note_on_c, 4, 49, 0
6, 29160, Note_on_c, 4, 68, 0
6, 29160, Note_on_c, 4, 65, 0
6, 29160, Note_on_c, 4, 66, 23
6, 29160, Note_on_c, 4, 73, 23
6, 29160, Note_on_c, 4, 51, 23
6, 29220, Note_on_c, 4, 51, 0
6, 29220, Note_on_c, 4, 73, 0
6, 29220, Note_on_c, 4, 66, 0
6, 29220, Note_on_c, 4, 68, 25
6, 29220, Note_on_c, 4, 71, 25
6, 29220, Note_on_c, 4, 53, 25
6, 29255, Note_on_c, 4, 53, 0
6, 29280, Note_on_c, 4, 71, 0
6, 29280, Note_on_c, 4, 68, 0
6, 29280, Note_on_c, 4, 66, 28
6, 29280, Note_on_c, 4, 69, 28
6, 29280, Note_on_c, 4, 54, 28
6, 29340, Note_on_c, 4, 54, 0
6, 29340, Note_on_c, 4, 69, 0
6, 29340, Note_on_c, 4, 66, 0
6, 29340, Note_on_c, 4, 65, 30
6, 29340, Note_on_c, 4, 68, 30
6, 29340, Note_on_c, 4, 56, 30
6, 29400, Note_on_c, 4, 56, 0
6, 29400, Note_on_c, 4, 68, 0
6, 29400, Note_on_c, 4, 65, 0
6, 29400, Note_on_c, 4, 66, 33
6, 29400, Note_on_c, 4, 57, 33
6, 29435, Note_on_c, 4, 57, 0
6, 29460, Note_on_c, 4, 66, 0
6, 29460, Note_on_c, 4, 65, 24
6, 29460, Note_on_c, 4, 68, 24
6, 29460, Note_on_c, 4, 56, 24
6, 29520, Note_on_c, 4, 56, 0
6, 29520, Note_on_c, 4, 68, 0
6, 29520, Note_on_c, 4, 65, 0
6, 29520, Note_on_c, 4, 66, 24
6, 29520, Note_on_c, 4, 57, 24
6, 29580, Note_on_c, 4, 57, 0
6, 29580, Note_on_c, 4, 66, 0
6, 29580, Note_on_c, 4, 65, 26
6, 29580, Note_on_c, 4, 68, 26
6, 29580, Note_on_c, 4, 59, 26
6, 29615, Note_on_c, 4, 59, 0
6, 29640, Note_on_c, 4, 68, 0
6, 29640, Note_on_c, 4, 65, 0
6, 29640, Note_on_c, 4, 61, 28
6, 29640, Note_on_c, 4, 66, 28
6, 29640, Note_on_c, 4, 57, 28
6, 29700, Note_on_c, 4, 57, 0
6, 29700, Note_on_c, 4, 66, 0
6, 29700, Note_on_c, 4, 61, 0
6, 29700, Note_on_c, 4, 65, 29
6, 29700, Note_on_c, 4, 68, 29
6, 29700, Note_on_c, 4, 56, 29
6, 29760, Note_on_c, 4, 56, 0
6, 29760, Note_on_c, 4, 68, 0
6, 29760, Note_on_c, 4, 65, 0
6, 29760, Note_on_c, 4, 66, 30
6, 29760, Note_on_c, 4, 69, 30
6, 29760, Note_on_c, 4, 54, 30
6, 29795, Note_on_c, 4, 54, 0
6, 29820, Note_on_c, 4, 69, 0
6, 29820, Note_on_c, 4, 66, 0
6, 29820, Note_on_c, 4, 65, 31
6, 29820, Note_on_c, 4, 71, 31
6, 29820, Note_on_c, 4, 56, 31
6, 29880, Note_on_c, 4, 71, 0
6, 29880, Note_on_c, 4, 65, 0
6, 29880, Note_on_c, 4, 71, 33
6, 29880, Note_on_c, 4, 74, 33
6, 29940, Note_on_c, 4, 74, 0
6, 29940, Note_on_c, 4, 71, 0
6, 29940, Note_on_c, 4, 56, 0
6, 29940, Note_on_c, 4, 69, 35
6, 29940, Note_on_c, 4, 73, 35
6, 29940, Note_on_c, 4, 57, 35
6, 29975, Note_on_c, 4, 57, 0
6, 30000, Note_on_c, 4, 73, 0
6, 30000, Note_on_c, 4, 69, 0
6, 30000, Note_on_c, 4, 68, 36
6, 30000, Note_on_c, 4, 71, 36
6, 30000, Note_on_c, 4, 59, 36
6, 30060, Note_on_c, 4, 71, 0
6, 30060, Note_on_c, 4, 68, 0
6, 30060, Note_on_c, 4, 61, 33
6, 30060, Note_on_c, 4, 69, 33
6, 30120, Note_on_c, 4, 69, 0
6, 30120, Note_on_c, 4, 61, 0
6, 30120, Note_on_c, 4, 59, 0
6, 30120, Note_on_c, 4, 59, 32
6, 30120, Note_on_c, 4, 62, 32
6, 30120, Note_on_c, 4, 68, 32
6, 30120, Note_on_c, 4, 53, 32
6, 30155, Note_on_c, 4, 53, 0
6, 30180, Note_on_c, 4, 59, 0
6, 30180, Note_on_c, 4, 62, 0
6, 30180, Note_on_c, 4, 68, 0
6, 30180, Note_on_c, 4, 57, 31
6, 30180, Note_on_c, 4, 61, 31
6, 30180, Note_on_c, 4, 66, 31
6, 30180, Note_on_c, 4, 54, 31
6, 30240, Note_on_c, 4, 66, 0
6, 30240, Note_on_c, 4, 57, 0
6, 30240, Note_on_c, 4, 61, 0
6, 30240, Note_on_c, 4, 61, 30
6, 30240, Note_on_c, 4, 65, 30
6, 30240, Note_on_c, 4, 68, 30
6, 30300, Note_on_c, 4, 68, 0
6, 30300, Note_on_c, 4, 54, 0
6, 30300, Note_on_c, 4, 61, 0
6, 30300, Note_on_c, 4, 65, 0
6, 30300, Note_on_c, 4, 63, 30
6, 30300, Note_on_c, 4, 66, 30
6, 30300, Note_on_c, 4, 69, 30
6, 30300, Note_on_c, 4, 48, 30
6, 30335, Note_on_c, 4, 48, 0
6, 30360, Note_on_c, 4, 63, 0
6, 30360, Note_on_c, 4, 66, 0
6, 30360, Note_on_c, 4, 69, 0
6, 30360, Note_on_c, 4, 49, 26
6, 30375, Note_on_c, 4, 65, 27
6, 30390, Note_on_c, 4, 68, 27
6, 30420, Note_on_c, 4, 49, 0
6, 30420, Note_on_c, 4, 53, 28
6, 30480, Note_on_c, 4, 53, 0
6, 30480, Note_on_c, 4, 68, 0
6, 30480, Note_on_c, 4, 65, 0
6, 30480, Note_on_c, 4, 56, 30
6, 30515, Note_on_c, 4, 56, 0
6, 30540, Note_on_c, 4, 65, 33
6, 30540, Note_on_c, 4, 68, 33
6, 30540, Note_on_c, 4, 59, 33
6, 30600, Note_on_c, 4, 59, 0
6, 30600, Note_on_c, 4, 68, 0
6, 30600, Note_on_c, 4, 65, 0
6, 30600, Note_on_c, 4, 66, 35
6, 30600, Note_on_c, 4, 69, 35
6, 30600, Note_on_c, 4, 57, 35
6, 30660, Note_on_c, 4, 57, 0
6, 30660, Note_on_c, 4, 69, 0
6, 30660, Note_on_c, 4, 66, 0
6, 30660, Note_on_c, 4, 68, 37
6, 30660, Note_on_c, 4, 71, 37
6, 30660, Note_on_c, 4, 56, 37
6, 30695, Note_on_c, 4, 56, 0
6, 30720, Note_on_c, 4, 71, 0
6, 30720, Note_on_c, 4, 68, 0
6, 30720, Note_on_c, 4, 66, 39
6, 30720, Note_on_c, 4, 73, 39
6, 30720, Note_on_c, 4, 57, 39
6, 30840, Note_on_c, 4, 57, 0
6, 30840, Note_on_c, 4, 73, 0
6, 30840, Note_on_c, 4, 66, 0
6, 31080, Note_on_c, 4, 64, 42
6, 31080, Note_on_c, 4, 66, 42
6, 31080, Note_on_c, 4, 73, 42
6, 31080, Note_on_c, 4, 58, 42
6, 31200, Note_on_c, 4, 58, 0
6, 31200, Note_on_c, 4, 64, 0
6, 31200, Note_on_c, 4, 66, 0
6, 31200, Note_on_c, 4, 73, 0
6, 31380, Note_on_c, 4, 67, 45
6, 31380, Note_on_c, 4, 73, 45
6, 31380, Note_on_c, 4, 46, 45
6, 31440, Note_on_c, 4, 46, 0
6, 31440, Note_on_c, 4, 73, 0
6, 31440, Note_on_c, 4, 67, 0
6, 31440, Note_on_c, 4, 66, 42
6, 31440, Note_on_c, 4, 74, 42
6, 31440, Note_on_c, 4, 47, 42
6, 31500, Note_on_c, 4, 47, 0
6, 31500, Note_on_c, 4, 49, 41
6, 31560, Note_on_c, 4, 49, 0
6, 31560, Note_on_c, 4, 50, 39
6, 31595, Note_on_c, 4, 50, 0
6, 31620, Note_on_c, 4, 74, 0
6, 31620, Note_on_c, 4, 66, 0
6, 31620, Note_on_c, 4, 71, 36
6, 31620, Note_on_c, 4, 74, 36
6, 31620, Note_on_c, 4, 77, 36
6, 31620, Note_on_c, 4, 44, 36
6, 31680, Note_on_c, 4, 44, 0
6, 31680, Note_on_c, 4, 71, 0
6, 31680, Note_on_c, 4, 74, 0
6, 31680, Note_on_c, 4, 77, 0
6, 31680, Note_on_c, 4, 74, 35
6, 31680, Note_on_c, 4, 78, 35
6, 31680, Note_on_c, 4, 45, 35
6, 31715, Note_on_c, 4, 45, 0
6, 31740, Note_on_c, 4, 78, 0
6, 31740, Note_on_c, 4, 74, 0
6, 31740, Note_on_c, 4, 68, 33
6, 31740, Note_on_c, 4, 71, 33
6, 31740, Note_on_c, 4, 42, 33
6, 31775, Note_on_c, 4, 42, 0
6, 31800, Note_on_c, 4, 71, 0
6, 31800, Note_on_c, 4, 68, 0
6, 31800, Note_on_c, 4, 68, 30
6, 31800, Note_on_c, 4, 71, 30
6, 31800, Note_on_c, 4, 73, 30
6, 31800, Note_on_c, 4, 41, 30
6, 31920, Note_on_c, 4, 41, 0
6, 31980, Note_on_c, 4, 68, 0
6, 31980, Note_on_c, 4, 71, 0
6, 31980, Note_on_c, 4, 66, 26
6, 31980, Note_on_c, 4, 42, 26
6, 32040, Note_on_c, 4, 42, 0
6, 32040, Note_on_c, 4, 66, 0
6, 32040, Note_on_c, 4, 73, 0
6, 32040, Note_on_c, 4, 65, 29
6, 32040, Note_on_c, 4, 71, 29
6, 32040, Note_on_c, 4, 44, 29
6, 32100, Note_on_c, 4, 44, 0
6, 32100, Note_on_c, 4, 71, 0
6, 32100, Note_on_c, 4, 65, 0
6, 32100, Note_on_c, 4, 66, 31
6, 32100, Note_on_c, 4, 69, 31
6, 32100, Note_on_c, 4, 45, 31
6, 32135, Note_on_c, 4, 45, 0
6, 32160, Note_on_c, 4, 69, 0
6, 32160, Note_on_c, 4, 66, 0
6, 32160, Note_on_c, 4, 62, 33
6, 32160, Note_on_c, 4, 68, 33
6, 32160, Note_on_c, 4, 47, 33
6, 32220, Note_on_c, 4, 47, 0
6, 32220, Note_on_c, 4, 68, 0
6, 32220, Note_on_c, 4, 69, 36
6, 32220, Note_on_c, 4, 49, 36
6, 32280, Note_on_c, 4, 49, 0
6, 32280, Note_on_c, 4, 69, 0
6, 32280, Note_on_c, 4, 62, 0
6, 32280, Note_on_c, 4, 71, 37
6, 32280, Note_on_c, 4, 50, 37
6, 32315, Note_on_c, 4, 50, 0
6, 32340, Note_on_c, 4, 71, 0
6, 32340, Note_on_c, 4, 62, 40
6, 32340, Note_on_c, 4, 65, 40
6, 32340, Note_on_c, 4, 44, 40
6, 32400, Note_on_c, 4, 44, 0
6, 32400, Note_on_c, 4, 65, 0
6, 32400, Note_on_c, 4, 62, 0
6, 32400, Note_on_c, 4, 61, 37
6, 32400, Note_on_c, 4, 66, 37
6, 32400, Note_on_c, 4, 45, 37
6, 32460, Note_on_c, 4, 45, 0
6, 32460, Note_on_c, 4, 66, 0
6, 32460, Note_on_c, 4, 61, 0
6, 32460, Note_on_c, 4, 59, 36
6, 32460, Note_on_c, 4, 68, 36
6, 32460, Note_on_c, 4, 47, 36
6, 32495, Note_on_c, 4, 47, 0
6, 32520, Note_on_c, 4, 68, 0
6, 32520, Note_on_c, 4, 59, 0
6, 32520, Note_on_c, 4, 61, 33
6, 32520, Note_on_c, 4, 66, 33
6, 32520, Note_on_c, 4, 45, 33
6, 32580, Note_on_c, 4, 45, 0
6, 32580, Note_on_c, 4, 66, 0
6, 32580, Note_on_c, 4, 61, 0
6, 32580, Note_on_c, 4, 59, 31
6, 32580, Note_on_c, 4, 62, 31
6, 32580, Note_on_c, 4, 44, 31
6, 32640, Note_on_c, 4, 44, 0
6, 32640, Note_on_c, 4, 62, 0
6, 32640, Note_on_c, 4, 59, 0
6, 32640, Note_on_c, 4, 57, 30
6, 32640, Note_on_c, 4, 61, 30
6, 32640, Note_on_c, 4, 42, 30
6, 32675, Note_on_c, 4, 42, 0
6, 32700, Note_on_c, 4, 61, 0
6, 32700, Note_on_c, 4, 57, 0
6, 32700, Note_on_c, 4, 56, 27
6, 32700, Note_on_c, 4, 59, 27
6, 32700, Note_on_c, 4, 61, 27
6, 32700, Note_on_c, 4, 49, 27
6, 32760, Note_on_c, 4, 61, 0
6, 32760, Note_on_c, 4, 56, 0
6, 32760, Note_on_c, 4, 59, 0
6, 32760, Note_on_c, 4, 62, 27
6, 32820, Note_on_c, 4, 62, 0
6, 32820, Note_on_c, 4, 49, 0
6, 32820, Note_on_c, 4, 59, 27
6, 32820, Note_on_c, 4, 61, 27
6, 32820, Note_on_c, 4, 65, 27
6, 32820, Note_on_c, 4, 37, 27
6, 32855, Note_on_c, 4, 37, 0
6, 32880, Note_on_c, 4, 59, 0
6, 32880, Note_on_c, 4, 61, 0
6, 32880, Note_on_c, 4, 65, 0
6, 32880, Note_on_c, 4, 42, 30
6, 32890, Note_on_c, 4, 57, 30
6, 32900, Note_on_c, 4, 61, 31
6, 32910, Note_on_c, 4, 66, 32
6, 32940, Note_on_c, 4, 42, 0
6, 32940, Note_on_c, 4, 45, 36
6, 33000, Note_on_c, 4, 45, 0
6, 33000, Note_on_c, 4, 66, 0
6, 33000, Note_on_c, 4, 61, 0
6, 33000, Note_on_c, 4, 57, 0
6, 33000, Note_on_c, 4, 49, 42
6, 33035, Note_on_c, 4, 49, 0
6, 33060, Note_on_c, 4, 66, 48
6, 33060, Note_on_c, 4, 69, 48
6, 33060, Note_on_c, 4, 73, 48
6, 33060, Note_on_c, 4, 54, 48
6, 33120, Note_on_c, 4, 54, 0
6, 33120, Note_on_c, 4, 66, 0
6, 33120, Note_on_c, 4, 69, 0
6, 33120, Note_on_c, 4, 73, 0
6, 33120, Note_on_c, 4, 73, 47
6, 33120, Note_on_c, 4, 78, 47
6, 33120, Note_on_c, 4, 57, 47
6, 33180, Note_on_c, 4, 57, 0
6, 33180, Note_on_c, 4, 78, 0
6, 33180, Note_on_c, 4, 73, 0
6, 33180, Note_on_c, 4, 71, 44
6, 33180, Note_on_c, 4, 76, 44
6, 33180, Note_on_c, 4, 56, 44
6, 33215, Note_on_c, 4, 56, 0
6, 33240, Note_on_c, 4, 76, 0
6, 33240, Note_on_c, 4, 71, 0
6, 33240, Note_on_c, 4, 71, 42
6, 33240, Note_on_c, 4, 74, 42
6, 33240, Note_on_c, 4, 57, 42
6, 33270, Note_on_c, 4, 57, 0
6, 33270, Note_on_c, 4, 56, 40
6, 33300, Note_on_c, 4, 56, 0
6, 33300, Note_on_c, 4, 74, 0
6, 33300, Note_on_c, 4, 71, 0
6, 33300, Note_on_c, 4, 69, 39
6, 33300, Note_on_c, 4, 73, 39
6, 33300, Note_on_c, 4, 57, 39
6, 33335, Note_on_c, 4, 57, 0
6, 33360, Note_on_c, 4, 73, 0
6, 33360, Note_on_c, 4, 69, 0
6, 33360, Note_on_c, 4, 68, 36
6, 33360, Note_on_c, 4, 71, 36
6, 33360, Note_on_c, 4, 52, 36
6, 33395, Note_on_c, 4, 52, 0
6, 33420, Note_on_c, 4, 71, 0
6, 33420, Note_on_c, 4, 68, 0
6, 33420, Note_on_c, 4, 64, 34
6, 33420, Note_on_c, 4, 69, 34
6, 33420, Note_on_c, 4, 49, 34
6, 33480, Note_on_c, 4, 49, 0
6, 33480, Note_on_c, 4, 69, 0
6, 33480, Note_on_c, 4, 64, 0
6, 33480, Note_on_c, 4, 66, 24
6, 33480, Note_on_c, 4, 73, 24
6, 33480, Note_on_c, 4, 50, 24
6, 33540, Note_on_c, 4, 50, 0
6, 33540, Note_on_c, 4, 73, 0
6, 33540, Note_on_c, 4, 66, 0
6, 33540, Note_on_c, 4, 68, 24
6, 33540, Note_on_c, 4, 71, 24
6, 33540, Note_on_c, 4, 52, 24
6, 33575, Note_on_c, 4, 52, 0
6, 33600, Note_on_c, 4, 71, 0
6, 33600, Note_on_c, 4, 68, 0
6, 33600, Note_on_c, 4, 64, 24
6, 33600, Note_on_c, 4, 69, 24
6, 33600, Note_on_c, 4, 73, 24
6, 33600, Note_on_c, 4, 45, 24
6, 33720, Note_on_c, 4, 45, 0
6, 33720, Note_on_c, 4, 64, 0
6, 33720, Note_on_c, 4, 69, 0
6, 33720, Note_on_c, 4, 73, 0
6, 33720, Note_on_c, 4, 69, 24
6, 33720, Note_on_c, 4, 76, 24
6, 33720, Note_on_c, 4, 49, 24
6, 33755, Note_on_c, 4, 49, 0
6, 33780, Note_on_c, 4, 76, 0
6, 33780, Note_on_c, 4, 69, 0
6, 33780, Note_on_c, 4, 66, 24
6, 33780, Note_on_c, 4, 71, 24
6, 33780, Note_on_c, 4, 74, 24
6, 33780, Note_on_c, 4, 47, 24
6, 33900, Note_on_c, 4, 47, 0
6, 33900, Note_on_c, 4, 66, 0
6, 33900, Note_on_c, 4, 71, 0
6, 33900, Note_on_c, 4, 74, 0
6, 33900, Note_on_c, 4, 68, 25
6, 33900, Note_on_c, 4, 71, 25
6, 33900, Note_on_c, 4, 52, 25
6, 33935, Note_on_c, 4, 52, 0
6, 33960, Note_on_c, 4, 71, 0
6, 33960, Note_on_c, 4, 68, 0
6, 33960, Note_on_c, 4, 61, 25
6, 33960, Note_on_c, 4, 64, 25
6, 33960, Note_on_c, 4, 69, 25
6, 33960, Note_on_c, 4, 57, 25
6, 34020, Note_on_c, 4, 57, 0
6, 34020, Note_on_c, 4, 59, 24
6, 34080, Note_on_c, 4, 59, 0
6, 34080, Note_on_c, 4, 61, 24
6, 34115, Note_on_c, 4, 61, 0
6, 34140, Note_on_c, 4, 61, 0
6, 34140, Note_on_c, 4, 64, 0
6, 34140, Note_on_c, 4, 69, 0
6, 34140, Note_on_c, 4, 62, 25
6, 34140, Note_on_c, 4, 64, 25
6, 34140, Note_on_c, 4, 68, 25
6, 34140, Note_on_c, 4, 59, 25
6, 34200, Note_on_c, 4, 59, 0
6, 34200, Note_on_c, 4, 57, 26
6, 34260, Note_on_c, 4, 57, 0
6, 34260, Note_on_c, 4, 56, 27
6, 34295, Note_on_c, 4, 56, 0
6, 34320, Note_on_c, 4, 62, 0
6, 34320, Note_on_c, 4, 64, 0
6, 34320, Note_on_c, 4, 68, 0
6, 34320, Note_on_c, 4, 61, 28
6, 34320, Note_on_c, 4, 64, 28
6, 34320, Note_on_c, 4, 57, 28
6, 34380, Note_on_c, 4, 57, 0
6, 34380, Note_on_c, 4, 64, 0
6, 34380, Note_on_c, 4, 61, 0
6, 34380, Note_on_c, 4, 62, 29
6, 34380, Note_on_c, 4, 68, 29
6, 34380, Note_on_c, 4, 59, 29
6, 34440, Note_on_c, 4, 59, 0
6, 34440, Note_on_c, 4, 68, 0
6, 34440, Note_on_c, 4, 62, 0
6, 34440, Note_on_c, 4, 64, 30
6, 34440, Note_on_c, 4, 69, 30
6, 34440, Note_on_c, 4, 61, 30
6, 34475, Note_on_c, 4, 61, 0
6, 34500, Note_on_c, 4, 69, 0
6, 34500, Note_on_c, 4, 64, 0
6, 34500, Note_on_c, 4, 64, 30
6, 34500, Note_on_c, 4, 68, 30
6, 34500, Note_on_c, 4, 74, 30
6, 34500, Note_on_c, 4, 59, 30
6, 34560, Note_on_c, 4, 59, 0
6, 34560, Note_on_c, 4, 64, 0
6, 34560, Note_on_c, 4, 68, 0
6, 34560, Note_on_c, 4, 74, 0
6, 34560, Note_on_c, 4, 64, 31
6, 34560, Note_on_c, 4, 73, 31
6, 34560, Note_on_c, 4, 56, 31
6, 34620, Note_on_c, 4, 56, 0
6, 34620, Note_on_c, 4, 57, 32
6, 34655, Note_on_c, 4, 57, 0
6, 34680, Note_on_c, 4, 73, 0
6, 34680, Note_on_c, 4, 64, 0
6, 34680, Note_on_c, 4, 52, 33
6, 34690, Note_on_c, 4, 64, 33
6, 34700, Note_on_c, 4, 68, 33
6, 34710, Note_on_c, 4, 71, 33
6, 34740, Note_on_c, 4, 52, 0
6, 34740, Note_on_c, 4, 54, 32
6, 34800, Note_on_c, 4, 54, 0
6, 34800, Note_on_c, 4, 56, 31
6, 34920, Note_on_c, 4, 56, 0
6, 34920, Note_on_c, 4, 64, 0
6, 34920, Note_on_c, 4, 68, 0
6, 34920, Note_on_c, 4, 71, 0
6, 34920, Note_on_c, 4, 69, 29
6, 34920, Note_on_c, 4, 73, 29
6, 34920, Note_on_c, 4, 57, 29
6, 34980, Note_on_c, 4, 57, 0
6, 34980, Note_on_c, 4, 73, 0
6, 34980, Note_on_c, 4, 69, 0
6, 34980, Note_on_c, 4, 71, 28
6, 34980, Note_on_c, 4, 74, 28
6, 34980, Note_on_c, 4, 59, 28
6, 35015, Note_on_c, 4, 59, 0
6, 35040, Note_on_c, 4, 74, 0
6, 35040, Note_on_c, 4, 71, 0
6, 35040, Note_on_c, 4, 64, 27
6, 35040, Note_on_c, 4, 69, 27
6, 35040, Note_on_c, 4, 76, 27
6, 35040, Note_on_c, 4, 49, 27
6, 35160, Note_on_c, 4, 49, 0
6, 35160, Note_on_c, 4, 64, 0
6, 35160, Note_on_c, 4, 69, 0
6, 35160, Note_on_c, 4, 76, 0
6, 35400, Note_on_c, 4, 66, 30
6, 35400, Note_on_c, 4, 69, 30
6, 35400, Note_on_c, 4, 73, 30
6, 35400, Note_on_c, 4, 54, 30
6, 35520, Note_on_c, 4, 54, 0
6, 35520, Note_on_c, 4, 66, 0
6, 35520, Note_on_c, 4, 69, 0
6, 35520, Note_on_c, 4, 73, 0
6, 35700, Note_on_c, 4, 67, 36
6, 35700, Note_on_c, 4, 69, 36
6, 35700, Note_on_c, 4, 73, 36
6, 35700, Note_on_c, 4, 52, 36
6, 35760, Note_on_c, 4, 52, 0
6, 35760, Note_on_c, 4, 67, 0
6, 35760, Note_on_c, 4, 69, 0
6, 35760, Note_on_c, 4, 73, 0
6, 35760, Note_on_c, 4, 66, 31
6, 35760, Note_on_c, 4, 69, 31
6, 35760, Note_on_c, 4, 74, 31
6, 35760, Note_on_c, 4, 50, 31
6, 35795, Note_on_c, 4, 50, 0
6, 35820, Note_on_c, 4, 62, 40
6, 35880, Note_on_c, 4, 62, 0
6, 35880, Note_on_c, 4, 74, 0
6, 35880, Note_on_c, 4, 69, 0
6, 35880, Note_on_c, 4, 66, 0
6, 35880, Note_on_c, 4, 69, 36
6, 35880, Note_on_c, 4, 76, 36
6, 35880, Note_on_c, 4, 61, 36
6, 35915, Note_on_c, 4, 61, 0
6, 35940, Note_on_c, 4, 76, 0
6, 35940, Note_on_c, 4, 69, 0
6, 35940, Note_on_c, 4, 74, 33
6, 35940, Note_on_c, 4, 78, 33
6, 35940, Note_on_c, 4, 59, 33
6, 36000, Note_on_c, 4, 59, 0
6, 36000, Note_on_c, 4, 54, 29
6, 36035, Note_on_c, 4, 54, 0
6, 36060, Note_on_c, 4, 78, 0
6, 36060, Note_on_c, 4, 74, 0
6, 36060, Note_on_c, 4, 71, 30
6, 36060, Note_on_c, 4, 74, 30
6, 36060, Note_on_c, 4, 57, 30
6, 36095, Note_on_c, 4, 57, 0
6, 36120, Note_on_c, 4, 74, 0
6, 36120, Note_on_c, 4, 71, 0
6, 36120, Note_on_c, 4, 68, 29
6, 36120, Note_on_c, 4, 74, 29
6, 36120, Note_on_c, 4, 76, 29
6, 36120, Note_on_c, 4, 56, 29
6, 36180, Note_on_c, 4, 56, 0
6, 36180, Note_on_c, 4, 54, 29
6, 36240, Note_on_c, 4, 54, 0
6, 36240, Note_on_c, 4, 52, 28
6, 36275, Note_on_c, 4, 52, 0
6, 36300, Note_on_c, 4, 68, 0
6, 36300, Note_on_c, 4, 74, 0
6, 36300, Note_on_c, 4, 76, 0
6, 36300, Note_on_c, 4, 69, 27
6, 36300, Note_on_c, 4, 73, 27
6, 36300, Note_on_c, 4, 76, 27
6, 36300, Note_on_c, 4, 57, 27
6, 36360, Note_on_c, 4, 57, 0
6, 36360, Note_on_c, 4, 59, 31
6, 36420, Note_on_c, 4, 59, 0
6, 36420, Note_on_c, 4, 76, 0
6, 36420, Note_on_c, 4, 73, 0
6, 36420, Note_on_c, 4, 69, 0
6, 36420, Note_on_c, 4, 64, 36
6, 36420, Note_on_c, 4, 61, 36
6, 36455, Note_on_c, 4, 61, 0
6, 36480, Note_on_c, 4, 64, 0
6, 36480, Note_on_c, 4, 69, 36
6, 36480, Note_on_c, 4, 73, 36
6, 36480, Note_on_c, 4, 50, 36
6, 36600, Note_on_c, 4, 50, 0
6, 36600, Note_on_c, 4, 73, 0
6, 36600, Note_on_c, 4, 69, 0
6, 36660, Note_on_c, 4, 69, 39
6, 36660, Note_on_c, 4, 73, 39
6, 36660, Note_on_c, 4, 52, 39
6, 36780, Note_on_c, 4, 52, 0
6, 36780, Note_on_c, 4, 73, 0
6, 36780, Note_on_c, 4, 69, 0
6, 36840, Note_on_c, 4, 69, 43
6, 36840, Note_on_c, 4, 73, 43
6, 36840, Note_on_c, 4, 54, 43
6, 36960, Note_on_c, 4, 54, 0
6, 36960, Note_on_c, 4, 73, 0
6, 36960, Note_on_c, 4, 69, 0
6, 37020, Note_on_c, 4, 64, 43
6, 37020, Note_on_c, 4, 69, 43
6, 37020, Note_on_c, 4, 49, 43
6, 37140, Note_on_c, 4, 49, 0
6, 37140, Note_on_c, 4, 69, 0
6, 37140, Note_on_c, 4, 64, 0
6, 37200, Note_on_c, 4, 66, 38
6, 37200, Note_on_c, 4, 69, 38
6, 37200, Note_on_c, 4, 50, 38
6, 37320, Note_on_c, 4, 50, 0
6, 37320, Note_on_c, 4, 69, 0
6, 37320, Note_on_c, 4, 66, 0
6, 37380, Note_on_c, 4, 68, 34
6, 37380, Note_on_c, 4, 74, 34
6, 37380, Note_on_c, 4, 52, 34
6, 37410, Note_on_c, 4, 74, 0
6, 37410, Note_on_c, 4, 68, 0
6, 37410, Note_on_c, 4, 73, 33
6, 37440, Note_on_c, 4, 73, 0
6, 37440, Note_on_c, 4, 68, 33
6, 37440, Note_on_c, 4, 71, 33
6, 37500, Note_on_c, 4, 71, 0
6, 37500, Note_on_c, 4, 68, 0
6, 37500, Note_on_c, 4, 52, 0
6, 37500, Note_on_c, 4, 69, 31
6, 37560, Note_on_c, 4, 69, 0
6, 37560, Note_on_c, 4, 57, 33
6, 37570, Note_on_c, 4, 61, 33
6, 37580, Note_on_c, 4, 64, 33
6, 37590, Note_on_c, 4, 57, 0
6, 37590, Note_on_c, 4, 69, 33
6, 37590, Note_on_c, 4, 56, 33
6, 37620, Note_on_c, 4, 56, 0
6, 37620, Note_on_c, 4, 57, 33
6, 37655, Note_on_c, 4, 57, 0
6, 37680, Note_on_c, 4, 52, 33
6, 37715, Note_on_c, 4, 52, 0
6, 37740, Note_on_c, 4, 61, 0
6, 37740, Note_on_c, 4, 64, 0
6, 37740, Note_on_c, 4, 69, 0
6, 37740, Note_on_c, 4, 57, 33
6, 37740, Note_on_c, 4, 64, 33
6, 37740, Note_on_c, 4, 49, 33
6, 37860, Note_on_c, 4, 49, 0
6, 37860, Note_on_c, 4, 64, 0
6, 37860, Note_on_c, 4, 57, 0
6, 37860, Note_on_c, 4, 59, 33
6, 37860, Note_on_c, 4, 62, 33
6, 37860, Note_on_c, 4, 52, 33
6, 37895, Note_on_c, 4, 52, 0
6, 37920, Note_on_c, 4, 62, 0
6, 37920, Note_on_c, 4, 59, 0
6, 37920, Note_on_c, 4, 61, 32
6, 37920, Note_on_c, 4, 45, 32
6, 38040, Note_on_c, 4, 45, 0
6, 38040, Note_on_c, 4, 61, 0
6, 38040, Note_on_c, 4, 61, 32
6, 38040, Note_on_c, 4, 64, 32
6, 38040, Note_on_c, 4, 69, 32
6, 38040, Note_on_c, 4, 57, 32
6, 38075, Note_on_c, 4, 57, 0
6, 38100, Note_on_c, 4, 61, 0
6, 38100, Note_on_c, 4, 64, 0
6, 38100, Note_on_c, 4, 69, 0
6, 38100, Note_on_c, 4, 64, 32
6, 38100, Note_on_c, 4, 68, 32
6, 38100, Note_on_c, 4, 50, 32
6, 38220, Note_on_c, 4, 50, 0
6, 38220, Note_on_c, 4, 68, 0
6, 38220, Note_on_c, 4, 64, 0
6, 38220, Note_on_c, 4, 64, 32
6, 38220, Note_on_c, 4, 68, 32
6, 38220, Note_on_c, 4, 71, 32
6, 38220, Note_on_c, 4, 52, 32
6, 38255, Note_on_c, 4, 52, 0
6, 38280, Note_on_c, 4, 64, 0
6, 38280, Note_on_c, 4, 68, 0
6, 38280, Note_on_c, 4, 71, 0
6, 38280, Note_on_c, 4, 64, 32
6, 38280, Note_on_c, 4, 69, 32
6, 38280, Note_on_c, 4, 73, 32
6, 38280, Note_on_c, 4, 45, 32
6, 38400, Note_on_c, 4, 45, 0
6, 38400, Note_on_c, 4, 57, 31
6, 38435, Note_on_c, 4, 57, 0
6, 38460, Note_on_c, 4, 73, 0
6, 38460, Note_on_c, 4, 69, 0
6, 38460, Note_on_c, 4, 64, 0
6, 38460, Note_on_c, 4, 62, 31
6, 38460, Note_on_c, 4, 66, 31
6, 38460, Note_on_c, 4, 69, 31
6, 38460, Note_on_c, 4, 50, 31
6, 38580, Note_on_c, 4, 50, 0
6, 38580, Note_on_c, 4, 62, 0
6, 38580, Note_on_c, 4, 66, 0
6, 38580, Note_on_c, 4, 69, 0
6, 38580, Note_on_c, 4, 64, 31
6, 38580, Note_on_c, 4, 68, 31
6, 38580, Note_on_c, 4, 52, 31
6, 38615, Note_on_c, 4, 52, 0
6, 38640, Note_on_c, 4, 68, 0
6, 38640, Note_on_c, 4, 64, 0
6, 38640, Note_on_c, 4, 64, 31
6, 38640, Note_on_c, 4, 69, 31
6, 38640, Note_on_c, 4, 73, 31
6, 38640, Note_on_c, 4, 45, 31
6, 38760, Note_on_c, 4, 45, 0
6, 38760, Note_on_c, 4, 64, 0
6, 38760, Note_on_c, 4, 69, 0
6, 38760, Note_on_c, 4, 73, 0
6, 38760, Note_on_c, 4, 64, 30
6, 38760, Note_on_c, 4, 69, 30
6, 38760, Note_on_c, 4, 49, 30
6, 38795, Note_on_c, 4, 49, 0
6, 38820, Note_on_c, 4, 69, 0
6, 38820, Note_on_c, 4, 64, 0
6, 38820, Note_on_c, 4, 62, 30
6, 38820, Note_on_c, 4, 64, 30
6, 38820, Note_on_c, 4, 68, 30
6, 38820, Note_on_c, 4, 47, 30
6, 38940, Note_on_c, 4, 47, 0
6, 38940, Note_on_c, 4, 62, 0
6, 38940, Note_on_c, 4, 64, 0
6, 38940, Note_on_c, 4, 68, 0
6, 38940, Note_on_c, 4, 61, 30
6, 38940, Note_on_c, 4, 64, 30
6, 38940, Note_on_c, 4, 69, 30
6, 38940, Note_on_c, 4, 45, 30
6, 38975, Note_on_c, 4, 45, 0
6, 39000, Note_on_c, 4, 61, 0
6, 39000, Note_on_c, 4, 64, 0
6, 39000, Note_on_c, 4, 69, 0
6, 39000, Note_on_c, 4, 52, 27
6, 39007, Note_on_c, 4, 64, 27
6, 39015, Note_on_c, 4, 68, 27
6, 39022, Note_on_c, 4, 71, 27
6, 39030, Note_on_c, 4, 52, 0
6, 39030, Note_on_c, 4, 76, 27
6, 39030, Note_on_c, 4, 51, 27
6, 39060, Note_on_c, 4, 51, 0
6, 39060, Note_on_c, 4, 52, 27
6, 39095, Note_on_c, 4, 52, 0
6, 39120, Note_on_c, 4, 47, 27
6, 39155, Note_on_c, 4, 47, 0
6, 39180, Note_on_c, 4, 64, 0
6, 39180, Note_on_c, 4, 71, 0
6, 39180, Note_on_c, 4, 68, 0
6, 39180, Note_on_c, 4, 76, 0
6, 39180, Note_on_c, 4, 68, 27
6, 39180, Note_on_c, 4, 71, 27
6, 39180, Note_on_c, 4, 40, 27
6, 39215, Note_on_c, 4, 40, 0
6, 39240, Note_on_c, 4, 71, 0
6, 39240, Note_on_c, 4, 68, 0
6, 39240, Note_on_c, 4, 69, 27
6, 39240, Note_on_c, 4, 73, 27
6, 39240, Note_on_c, 4, 52, 27
6, 39300, Note_on_c, 4, 52, 0
6, 39300, Note_on_c, 4, 73, 0
6, 39300, Note_on_c, 4, 69, 0
6, 39300, Note_on_c, 4, 71, 27
6, 39300, Note_on_c, 4, 74, 27
6, 39300, Note_on_c, 4, 50, 27
6, 39335, Note_on_c, 4, 50, 0
6, 39360, Note_on_c, 4, 74, 0
6, 39360, Note_on_c, 4, 71, 0
6, 39360, Note_on_c, 4, 73, 28
6, 39360, Note_on_c, 4, 76, 28
6, 39360, Note_on_c, 4, 49, 28
6, 39420, Note_on_c, 4, 49, 0
6, 39420, Note_on_c, 4, 52, 30
6, 39480, Note_on_c, 4, 52, 0
6, 39480, Note_on_c, 4, 56, 33
6, 39515, Note_on_c, 4, 56, 0
6, 39540, Note_on_c, 4, 76, 0
6, 39540, Note_on_c, 4, 73, 0
6, 39540, Note_on_c, 4, 66, 39
6, 39540, Note_on_c, 4, 76, 39
6, 39540, Note_on_c, 4, 61, 39
6, 39600, Note_on_c, 4, 61, 0
6, 39600, Note_on_c, 4, 58, 34
6, 39635, Note_on_c, 4, 58, 0
6, 39660, Note_on_c, 4, 59, 29
6, 39695, Note_on_c, 4, 59, 0
6, 39720, Note_on_c, 4, 58, 27
6, 39780, Note_on_c, 4, 76, 0
6, 39780, Note_on_c, 4, 66, 0
6, 39780, Note_on_c, 4, 73, 28
6, 39780, Note_on_c, 4, 78, 28
6, 39840, Note_on_c, 4, 78, 0
6, 39840, Note_on_c, 4, 58, 0
6, 39840, Note_on_c, 4, 79, 28
6, 39900, Note_on_c, 4, 79, 0
6, 39900, Note_on_c, 4, 73, 0
6, 39900, Note_on_c, 4, 70, 29
6, 39900, Note_on_c, 4, 73, 29
6, 39900, Note_on_c, 4, 78, 29
6, 39900, Note_on_c, 4, 54, 29
6, 40020, Note_on_c, 4, 54, 0
6, 40020, Note_on_c, 4, 70, 0
6, 40020, Note_on_c, 4, 73, 0
6, 40020, Note_on_c, 4, 78, 0
6, 40080, Note_on_c, 4, 71, 31
6, 40080, Note_on_c, 4, 74, 31
6, 40080, Note_on_c, 4, 59, 31
6, 40200, Note_on_c, 4, 59, 0
6, 40200, Note_on_c, 4, 74, 0
6, 40200, Note_on_c, 4, 71, 0
6, 40200, Note_on_c, 4, 70, 33
6, 40200, Note_on_c, 4, 76, 33
6, 40200, Note_on_c, 4, 47, 33
6, 40235, Note_on_c, 4, 47, 0
6, 40260, Note_on_c, 4, 76, 0
6, 40260, Note_on_c, 4, 70, 0
6, 40260, Note_on_c, 4, 66, 34
6, 40260, Note_on_c, 4, 71, 34
6, 40260, Note_on_c, 4, 74, 34
6, 40260, Note_on_c, 4, 59, 34
6, 40380, Note_on_c, 4, 59, 0
6, 40380, Note_on_c, 4, 66, 0
6, 40380, Note_on_c, 4, 71, 0
6, 40380, Note_on_c, 4, 74, 0
6, 40380, Note_on_c, 4, 66, 35
6, 40380, Note_on_c, 4, 73, 35
6, 40380, Note_on_c, 4, 57, 35
6, 40415, Note_on_c, 4, 57, 0
6, 40440, Note_on_c, 4, 73, 0
6, 40440, Note_on_c, 4, 66, 0
6, 40440, Note_on_c, 4, 64, 36
6, 40440, Note_on_c, 4, 71, 36
6, 40440, Note_on_c, 4, 74, 36
6, 40440, Note_on_c, 4, 56, 36
6, 40500, Note_on_c, 4, 74, 0
6, 40500, Note_on_c, 4, 64, 0
6, 40500, Note_on_c, 4, 71, 0
6, 40500, Note_on_c, 4, 71, 36
6, 40500, Note_on_c, 4, 76, 36
6, 40560, Note_on_c, 4, 76, 0
6, 40560, Note_on_c, 4, 56, 0
6, 40560, Note_on_c, 4, 78, 37
6, 40620, Note_on_c, 4, 78, 0
6, 40620, Note_on_c, 4, 71, 0
6, 40620, Note_on_c, 4, 68, 38
6, 40620, Note_on_c, 4, 71, 38
6, 40620, Note_on_c, 4, 76, 38
6, 40620, Note_on_c, 4, 52, 38
6, 40740, Note_on_c, 4, 52, 0
6, 40740, Note_on_c, 4, 68, 0
6, 40740, Note_on_c, 4, 71, 0
6, 40740, Note_on_c, 4, 76, 0
6, 40800, Note_on_c, 4, 69, 36
6, 40800, Note_on_c, 4, 73, 36
6, 40800, Note_on_c, 4, 57, 36
6, 40920, Note_on_c, 4, 57, 0
6, 40920, Note_on_c, 4, 73, 0
6, 40920, Note_on_c, 4, 69, 0
6, 40920, Note_on_c, 4, 67, 36
6, 40920, Note_on_c, 4, 73, 36
6, 40920, Note_on_c, 4, 45, 36
6, 40955, Note_on_c, 4, 45, 0
6, 40980, Note_on_c, 4, 73, 0
6, 40980, Note_on_c, 4, 67, 0
6, 40980, Note_on_c, 4, 66, 36
6, 40980, Note_on_c, 4, 69, 36
6, 40980, Note_on_c, 4, 50, 36
6, 41100, Note_on_c, 4, 50, 0
6, 41100, Note_on_c, 4, 69, 0
6, 41100, Note_on_c, 4, 66, 0
6, 41100, Note_on_c, 4, 64, 36
6, 41100, Note_on_c, 4, 69, 36
6, 41100, Note_on_c, 4, 49, 36
6, 41135, Note_on_c, 4, 49, 0
6, 41160, Note_on_c, 4, 69, 0
6, 41160, Note_on_c, 4, 64, 0
6, 41160, Note_on_c, 4, 62, 36
6, 41160, Note_on_c, 4, 69, 36
6, 41160, Note_on_c, 4, 47, 36
6, 41280, Note_on_c, 4, 47, 0
6, 41280, Note_on_c, 4, 69, 0
6, 41280, Note_on_c, 4, 62, 0
6, 41280, Note_on_c, 4, 61, 36
6, 41280, Note_on_c, 4, 69, 36
6, 41280, Note_on_c, 4, 45, 36
6, 41315, Note_on_c, 4, 45, 0
6, 41340, Note_on_c, 4, 69, 0
6, 41340, Note_on_c, 4, 61, 0
6, 41340, Note_on_c, 4, 59, 36
6, 41340, Note_on_c, 4, 68, 36
6, 41340, Note_on_c, 4, 44, 36
6, 41460, Note_on_c, 4, 44, 0
6, 41460, Note_on_c, 4, 68, 0
6, 41460, Note_on_c, 4, 59, 0
6, 41460, Note_on_c, 4, 61, 36
6, 41460, Note_on_c, 4, 64, 36
6, 41460, Note_on_c, 4, 45, 36
6, 41495, Note_on_c, 4, 45, 0
6, 41520, Note_on_c, 4, 64, 0
6, 41520, Note_on_c, 4, 61, 0
6, 41520, Note_on_c, 4, 56, 36
6, 41520, Note_on_c, 4, 59, 36
6, 41520, Note_on_c, 4, 64, 36
6, 41520, Note_on_c, 4, 52, 36
6, 41580, Note_on_c, 4, 64, 0
6, 41580, Note_on_c, 4, 56, 0
6, 41580, Note_on_c, 4, 59, 0
6, 41580, Note_on_c, 4, 57, 36
6, 41580, Note_on_c, 4, 61, 36
6, 41640, Note_on_c, 4, 61, 0
6, 41640, Note_on_c, 4, 57, 0
6, 41640, Note_on_c, 4, 56, 36
6, 41640, Note_on_c, 4, 59, 36
6, 41760, Note_on_c, 4, 52, 0
6, 41760, Note_on_c, 4, 50, 36
6, 41820, Note_on_c, 4, 50, 0
6, 41820, Note_on_c, 4, 59, 0
6, 41820, Note_on_c, 4, 56, 0
6, 41820, Note_on_c, 4, 59, 36
6, 41820, Note_on_c, 4, 62, 36
6, 41820, Note_on_c, 4, 52, 36
6, 41855, Note_on_c, 4, 52, 0
6, 41880, Note_on_c, 4, 62, 0
6, 41880, Note_on_c, 4, 59, 0
6, 41880, Note_on_c, 4, 57, 36
6, 41880, Note_on_c, 4, 61, 36
6, 41880, Note_on_c, 4, 54, 36
6, 42060, Note_on_c, 4, 54, 0
6, 42060, Note_on_c, 4, 61, 0
6, 42060, Note_on_c, 4, 57, 0
6, 42180, Note_on_c, 4, 68, 32
6, 42180, Note_on_c, 4, 71, 32
6, 42180, Note_on_c, 4, 47, 32
6, 42215, Note_on_c, 4, 47, 0
6, 42240, Note_on_c, 4, 71, 0
6, 42240, Note_on_c, 4, 68, 0
6, 42240, Note_on_c, 4, 61, 32
6, 42240, Note_on_c, 4, 64, 32
6, 42240, Note_on_c, 4, 69, 32
6, 42240, Note_on_c, 4, 49, 32
6, 42420, Note_on_c, 4, 49, 0
6, 42420, Note_on_c, 4, 61, 0
6, 42420, Note_on_c, 4, 64, 0
6, 42420, Note_on_c, 4, 69, 0
6, 42540, Note_on_c, 4, 57, 36
6, 42540, Note_on_c, 4, 61, 36
6, 42540, Note_on_c, 4, 67, 36
6, 42540, Note_on_c, 4, 45, 36
6, 42600, Note_on_c, 4, 45, 0
6, 42600, Note_on_c, 4, 57, 0
6, 42600, Note_on_c, 4, 61, 0
6, 42600, Note_on_c, 4, 67, 0
6, 42600, Note_on_c, 4, 62, 36
6, 42600, Note_on_c, 4, 66, 36
6, 42600, Note_on_c, 4, 50, 36
6, 42635, Note_on_c, 4, 50, 0
6, 42660, Note_on_c, 4, 52, 36
6, 42695, Note_on_c, 4, 52, 0
6, 42720, Note_on_c, 4, 66, 0
6, 42720, Note_on_c, 4, 62, 0
6, 42720, Note_on_c, 4, 61, 37
6, 42720, Note_on_c, 4, 66, 37
6, 42720, Note_on_c, 4, 54, 37
6, 42755, Note_on_c, 4, 54, 0
6, 42780, Note_on_c, 4, 66, 0
6, 42780, Note_on_c, 4, 61, 0
6, 42780, Note_on_c, 4, 62, 37
6, 42780, Note_on_c, 4, 66, 37
6, 42780, Note_on_c, 4, 47, 37
6, 42815, Note_on_c, 4, 47, 0
6, 42840, Note_on_c, 4, 42, 38
6, 42875, Note_on_c, 4, 42, 0
6, 42900, Note_on_c, 4, 66, 0
6, 42900, Note_on_c, 4, 62, 0
6, 42900, Note_on_c, 4, 59, 38
6, 42900, Note_on_c, 4, 62, 38
6, 42900, Note_on_c, 4, 45, 38
6, 42935, Note_on_c, 4, 45, 0
6, 42960, Note_on_c, 4, 62, 0
6, 42960, Note_on_c, 4, 59, 0
6, 42960, Note_on_c, 4, 59, 39
6, 42960, Note_on_c, 4, 64, 39
6, 42960, Note_on_c, 4, 43, 39
6, 43080, Note_on_c, 4, 43, 0
6, 43080, Note_on_c, 4, 64, 0
6, 43080, Note_on_c, 4, 59, 0
6, 43080, Note_on_c, 4, 64, 40
6, 43080, Note_on_c, 4, 67, 40
6, 43080, Note_on_c, 4, 52, 40
6, 43115, Note_on_c, 4, 52, 0
6, 43140, Note_on_c, 4, 67, 0
6, 43140, Note_on_c, 4, 64, 0
6, 43140, Note_on_c, 4, 61, 40
6, 43140, Note_on_c, 4, 66, 40
6, 43140, Note_on_c, 4, 46, 40
6, 43260, Note_on_c, 4, 46, 0
6, 43260, Note_on_c, 4, 66, 0
6, 43260, Note_on_c, 4, 61, 0
6, 43260, Note_on_c, 4, 58, 40
6, 43260, Note_on_c, 4, 61, 40
6, 43260, Note_on_c, 4, 64, 40
6, 43260, Note_on_c, 4, 54, 40
6, 43295, Note_on_c, 4, 54, 0
6, 43320, Note_on_c, 4, 58, 0
6, 43320, Note_on_c, 4, 61, 0
6, 43320, Note_on_c, 4, 64, 0
6, 43320, Note_on_c, 4, 59, 40
6, 43320, Note_on_c, 4, 62, 40
6, 43320, Note_on_c, 4, 47, 40
6, 43355, Note_on_c, 4, 47, 0
6, 43380, Note_on_c, 4, 59, 41
6, 43440, Note_on_c, 4, 59, 0
6, 43440, Note_on_c, 4, 62, 0
6, 43440, Note_on_c, 4, 59, 0
6, 43440, Note_on_c, 4, 59, 41
6, 43440, Note_on_c, 4, 62, 41
6, 43440, Note_on_c, 4, 57, 41
6, 43475, Note_on_c, 4, 57, 0
6, 43500, Note_on_c, 4, 62, 0
6, 43500, Note_on_c, 4, 65, 41
6, 43500, Note_on_c, 4, 56, 41
6, 43560, Note_on_c, 4, 56, 0
6, 43560, Note_on_c, 4, 65, 0
6, 43560, Note_on_c, 4, 59, 0
6, 43560, Note_on_c, 4, 59, 41
6, 43560, Note_on_c, 4, 61, 41
6, 43560, Note_on_c, 4, 53, 41
6, 43595, Note_on_c, 4, 53, 0
6, 43620, Note_on_c, 4, 61, 0
6, 43620, Note_on_c, 4, 59, 0
6, 43620, Note_on_c, 4, 57, 42
6, 43620, Note_on_c, 4, 66, 42
6, 43620, Note_on_c, 4, 54, 42
6, 43655, Note_on_c, 4, 54, 0
6, 43680, Note_on_c, 4, 66, 0
6, 43680, Note_on_c, 4, 57, 0
6, 43680, Note_on_c, 4, 61, 42
6, 43680, Note_on_c, 4, 68, 42
6, 43680, Note_on_c, 4, 53, 42
6, 43800, Note_on_c, 4, 53, 0
6, 43800, Note_on_c, 4, 68, 0
6, 43800, Note_on_c, 4, 61, 0
6, 43800, Note_on_c, 4, 59, 42
6, 43800, Note_on_c, 4, 65, 42
6, 43800, Note_on_c, 4, 49, 42
6, 43835, Note_on_c, 4, 49, 0
6, 43860, Note_on_c, 4, 65, 0
6, 43860, Note_on_c, 4, 59, 0
6, 43860, Note_on_c, 4, 57, 42
6, 43860, Note_on_c, 4, 66, 42
6, 43860, Note_on_c, 4, 54, 42
6, 43920, Note_on_c, 4, 54, 0
6, 43920, Note_on_c, 4, 66, 0
6, 43920, Note_on_c, 4, 57, 0
6, 43920, Note_on_c, 4, 59, 42
6, 43920, Note_on_c, 4, 65, 42
6, 43920, Note_on_c, 4, 56, 42
6, 43980, Note_on_c, 4, 56, 0
6, 43980, Note_on_c, 4, 65, 0
6, 43980, Note_on_c, 4, 59, 0
6, 43980, Note_on_c, 4, 61, 42
6, 43980, Note_on_c, 4, 66, 42
6, 43980, Note_on_c, 4, 57, 42
6, 44015, Note_on_c, 4, 57, 0
6, 44040, Note_on_c, 4, 66, 0
6, 44040, Note_on_c, 4, 61, 0
6, 44040, Note_on_c, 4, 62, 42
6, 44040, Note_on_c, 4, 66, 42
6, 44040, Note_on_c, 4, 47, 42
6, 44100, Note_on_c, 4, 47, 0
6, 44100, Note_on_c, 4, 66, 0
6, 44100, Note_on_c, 4, 62, 0
6, 44100, Note_on_c, 4, 64, 42
6, 44100, Note_on_c, 4, 49, 42
6, 44160, Note_on_c, 4, 49, 0
6, 44160, Note_on_c, 4, 64, 0
6, 44160, Note_on_c, 4, 66, 43
6, 44160, Note_on_c, 4, 50, 43
6, 44195, Note_on_c, 4, 50, 0
6, 44220, Note_on_c, 4, 66, 0
6, 44220, Note_on_c, 4, 59, 43
6, 44220, Note_on_c, 4, 64, 43
6, 44220, Note_on_c, 4, 68, 43
6, 44220, Note_on_c, 4, 52, 43
6, 44280, Note_on_c, 4, 52, 0
6, 44280, Note_on_c, 4, 59, 0
6, 44280, Note_on_c, 4, 64, 0
6, 44280, Note_on_c, 4, 68, 0
6, 44280, Note_on_c, 4, 69, 43
6, 44280, Note_on_c, 4, 54, 43
6, 44340, Note_on_c, 4, 54, 0
6, 44340, Note_on_c, 4, 69, 0
6, 44340, Note_on_c, 4, 64, 43
6, 44340, Note_on_c, 4, 71, 43
6, 44340, Note_on_c, 4, 56, 43
6, 44375, Note_on_c, 4, 56, 0
6, 44400, Note_on_c, 4, 71, 0
6, 44400, Note_on_c, 4, 64, 0
6, 44400, Note_on_c, 4, 61, 44
6, 44400, Note_on_c, 4, 64, 44
6, 44400, Note_on_c, 4, 45, 44
6, 44460, Note_on_c, 4, 45, 0
6, 44460, Note_on_c, 4, 64, 0
6, 44460, Note_on_c, 4, 61, 0
6, 44460, Note_on_c, 4, 62, 44
6, 44460, Note_on_c, 4, 47, 44
6, 44520, Note_on_c, 4, 47, 0
6, 44520, Note_on_c, 4, 62, 0
6, 44520, Note_on_c, 4, 57, 44
6, 44520, Note_on_c, 4, 64, 44
6, 44520, Note_on_c, 4, 49, 44
6, 44555, Note_on_c, 4, 49, 0
6, 44580, Note_on_c, 4, 64, 0
6, 44580, Note_on_c, 4, 57, 0
6, 44580, Note_on_c, 4, 62, 44
6, 44580, Note_on_c, 4, 66, 44
6, 44580, Note_on_c, 4, 50, 44
6, 44700, Note_on_c, 4, 66, 0
6, 44700, Note_on_c, 4, 62, 0
6, 44700, Note_on_c, 4, 61, 45
6, 44700, Note_on_c, 4, 64, 45
6, 44760, Note_on_c, 4, 64, 0
6, 44760, Note_on_c, 4, 61, 0
6, 44760, Note_on_c, 4, 59, 45
6, 44760, Note_on_c, 4, 62, 45
6, 44820, Note_on_c, 4, 62, 0
6, 44820, Note_on_c, 4, 59, 0
6, 44820, Note_on_c, 4, 50, 0
6, 44820, Note_on_c, 4, 57, 45
6, 44820, Note_on_c, 4, 61, 45
6, 44820, Note_on_c, 4, 49, 45
6, 44880, Note_on_c, 4, 49, 0
6, 44880, Note_on_c, 4, 61, 0
6, 44880, Note_on_c, 4, 57, 0
6, 44880, Note_on_c, 4, 56, 45
6, 44880, Note_on_c, 4, 59, 45
6, 44880, Note_on_c, 4, 47, 45
6, 44915, Note_on_c, 4, 47, 0
6, 44940, Note_on_c, 4, 59, 0
6, 44940, Note_on_c, 4, 56, 0
6, 44940, Note_on_c, 4, 57, 46
6, 44940, Note_on_c, 4, 64, 46
6, 44940, Note_on_c, 4, 49, 46
6, 45000, Note_on_c, 4, 49, 0
6, 45000, Note_on_c, 4, 64, 0
6, 45000, Note_on_c, 4, 57, 0
6, 45000, Note_on_c, 4, 61, 46
6, 45000, Note_on_c, 4, 64, 46
6, 45000, Note_on_c, 4, 45, 46
6, 45060, Note_on_c, 4, 45, 0
6, 45060, Note_on_c, 4, 64, 0
6, 45060, Note_on_c, 4, 61, 0
6, 45060, Note_on_c, 4, 57, 46
6, 45060, Note_on_c, 4, 64, 46
6, 45060, Note_on_c, 4, 49, 46
6, 45095, Note_on_c, 4, 49, 0
6, 45120, Note_on_c, 4, 64, 0
6, 45120, Note_on_c, 4, 57, 0
6, 45120, Note_on_c, 4, 57, 46
6, 45120, Note_on_c, 4, 62, 46
6, 45120, Note_on_c, 4, 66, 46
6, 45120, Note_on_c, 4, 50, 46
6, 45240, Note_on_c, 4, 50, 0
6, 45240, Note_on_c, 4, 57, 0
6, 45240, Note_on_c, 4, 62, 0
6, 45240, Note_on_c, 4, 66, 0
6, 45300, Note_on_c, 4, 64, 47
6, 45300, Note_on_c, 4, 69, 47
6, 45300, Note_on_c, 4, 73, 47
6, 45300, Note_on_c, 4, 52, 47
6, 45360, Note_on_c, 4, 73, 0
6, 45360, Note_on_c, 4, 64, 0
6, 45360, Note_on_c, 4, 69, 0
6, 45360, Note_on_c, 4, 68, 47
6, 45360, Note_on_c, 4, 71, 47
6, 45420, Note_on_c, 4, 71, 0
6, 45420, Note_on_c, 4, 68, 0
6, 45420, Note_on_c, 4, 52, 0
6, 45480, Note_on_c, 4, 66, 45
6, 45480, Note_on_c, 4, 69, 45
6, 45480, Note_on_c, 4, 54, 45
6, 45600, Note_on_c, 4, 54, 0
6, 45600, Note_on_c, 4, 69, 0
6, 45600, Note_on_c, 4, 66, 0
6, 45660, Note_on_c, 4, 57, 43
6, 45660, Note_on_c, 4, 64, 43
6, 45660, Note_on_c, 4, 69, 43
6, 45660, Note_on_c, 4, 49, 43
6, 45780, Note_on_c, 4, 49, 0
6, 45780, Note_on_c, 4, 57, 0
6, 45780, Note_on_c, 4, 64, 0
6, 45780, Note_on_c, 4, 69, 0
6, 45840, Note_on_c, 4, 62, 41
6, 45840, Note_on_c, 4, 66, 41
6, 45840, Note_on_c, 4, 50, 41
6, 45900, Note_on_c, 4, 66, 0
6, 45900, Note_on_c, 4, 62, 0
6, 45900, Note_on_c, 4, 64, 40
6, 45900, Note_on_c, 4, 68, 40
6, 45960, Note_on_c, 4, 68, 0
6, 45960, Note_on_c, 4, 64, 0
6, 45960, Note_on_c, 4, 50, 0
6, 45960, Note_on_c, 4, 66, 40
6, 45960, Note_on_c, 4, 69, 40
6, 46020, Note_on_c, 4, 69, 0
6, 46020, Note_on_c, 4, 66, 0
6, 46020, Note_on_c, 4, 64, 39
6, 46020, Note_on_c, 4, 69, 39
6, 46020, Note_on_c, 4, 73, 39
6, 46020, Note_on_c, 4, 52, 39
6, 46080, Note_on_c, 4, 73, 0
6, 46080, Note_on_c, 4, 64, 0
6, 46080, Note_on_c, 4, 69, 0
6, 46080, Note_on_c, 4, 68, 38
6, 46080, Note_on_c, 4, 71, 38
6, 46140, Note_on_c, 4, 71, 0
6, 46140, Note_on_c, 4, 68, 0
6, 46140, Note_on_c, 4, 52, 0
6, 46140, Note_on_c, 4, 61, 37
6, 46140, Note_on_c, 4, 64, 37
6, 46140, Note_on_c, 4, 69, 37
6, 46200, Note_on_c, 4, 69, 0
6, 46200, Note_on_c, 4, 64, 0
6, 46200, Note_on_c, 4, 61, 0
6, 46200, Note_on_c, 4, 54, 37
6, 46207, Note_on_c, 4, 60, 38
6, 46215, Note_on_c, 4, 63, 40
6, 46222, Note_on_c, 4, 66, 41
6, 46230, Note_on_c, 4, 69, 42
6, 46260, Note_on_c, 4, 54, 0
6, 46260, Note_on_c, 4, 57, 43
6, 46320, Note_on_c, 4, 57, 0
6, 46320, Note_on_c, 4, 69, 0
6, 46320, Note_on_c, 4, 60, 0
6, 46320, Note_on_c, 4, 63, 0
6, 46320, Note_on_c, 4, 66, 0
6, 46320, Note_on_c, 4, 60, 45
6, 46355, Note_on_c, 4, 60, 0
6, 46380, Note_on_c, 4, 66, 46
6, 46380, Note_on_c, 4, 69, 46
6, 46380, Note_on_c, 4, 72, 46
6, 46380, Note_on_c, 4, 51, 46
6, 46440, Note_on_c, 4, 51, 0
6, 46440, Note_on_c, 4, 54, 48
6, 46500, Note_on_c, 4, 54, 0
6, 46500, Note_on_c, 4, 57, 49
6, 46535, Note_on_c, 4, 57, 0
6, 46560, Note_on_c, 4, 66, 0
6, 46560, Note_on_c, 4, 69, 0
6, 46560, Note_on_c, 4, 63, 51
6, 46560, Note_on_c, 4, 47, 51
6, 46620, Note_on_c, 4, 47, 0
6, 46620, Note_on_c, 4, 63, 0
6, 46620, Note_on_c, 4, 72, 0
6, 46620, Note_on_c, 4, 64, 52
6, 46620, Note_on_c, 4, 71, 52
6, 46620, Note_on_c, 4, 49, 52
6, 46680, Note_on_c, 4, 49, 0
6, 46680, Note_on_c, 4, 71, 0
6, 46680, Note_on_c, 4, 64, 0
6, 46680, Note_on_c, 4, 66, 54
6, 46680, Note_on_c, 4, 69, 54
6, 46680, Note_on_c, 4, 51, 54
6, 46715, Note_on_c, 4, 51, 0
6, 46740, Note_on_c, 4, 69, 0
6, 46740, Note_on_c, 4, 66, 0
6, 46740, Note_on_c, 4, 64, 55
6, 46740, Note_on_c, 4, 68, 55
6, 46740, Note_on_c, 4, 52, 55
6, 46800, Note_on_c, 4, 52, 0
6, 46800, Note_on_c, 4, 68, 0
6, 46800, Note_on_c, 4, 64, 0
6, 46800, Note_on_c, 4, 71, 57
6, 46800, Note_on_c, 4, 56, 57
6, 46860, Note_on_c, 4, 56, 0
6, 46860, Note_on_c, 4, 71, 0
6, 46860, Note_on_c, 4, 68, 58
6, 46860, Note_on_c, 4, 74, 58
6, 46860, Note_on_c, 4, 76, 58
6, 46860, Note_on_c, 4, 52, 58
6, 46895, Note_on_c, 4, 52, 0
6, 46920, Note_on_c, 4, 68, 0
6, 46920, Note_on_c, 4, 74, 0
6, 46920, Note_on_c, 4, 69, 60
6, 46920, Note_on_c, 4, 73, 60
6, 46920, Note_on_c, 4, 57, 60
6, 46980, Note_on_c, 4, 57, 0
6, 46980, Note_on_c, 4, 76, 0
6, 46980, Note_on_c, 4, 69, 0
6, 46980, Note_on_c, 4, 73, 0
6, 46980, Note_on_c, 4, 71, 60
6, 46980, Note_on_c, 4, 74, 60
6, 46980, Note_on_c, 4, 52, 60
6, 47040, Note_on_c, 4, 52, 0
6, 47040, Note_on_c, 4, 74, 0
6, 47040, Note_on_c, 4, 71, 0
6, 47040, Note_on_c, 4, 69, 60
6, 47040, Note_on_c, 4, 73, 60
6, 47040, Note_on_c, 4, 54, 60
6, 47075, Note_on_c, 4, 54, 0
6, 47100, Note_on_c, 4, 73, 0
6, 47100, Note_on_c, 4, 69, 0
6, 47100, Note_on_c, 4, 66, 60
6, 47100, Note_on_c, 4, 71, 60
6, 47100, Note_on_c, 4, 50, 60
6, 47160, Note_on_c, 4, 50, 0
6, 47160, Note_on_c, 4, 71, 0
6, 47160, Note_on_c, 4, 69, 60
6, 47160, Note_on_c, 4, 47, 60
6, 47220, Note_on_c, 4, 47, 0
6, 47220, Note_on_c, 4, 69, 0
6, 47220, Note_on_c, 4, 66, 0
6, 47220, Note_on_c, 4, 62, 60
6, 47220, Note_on_c, 4, 64, 60
6, 47220, Note_on_c, 4, 68, 60
6, 47220, Note_on_c, 4, 52, 60
6, 47255, Note_on_c, 4, 52, 0
6, 47280, Note_on_c, 4, 62, 0
6, 47280, Note_on_c, 4, 64, 0
6, 47280, Note_on_c, 4, 68, 0
6, 47280, Note_on_c, 4, 57, 56
6, 47290, Note_on_c, 4, 61, 55
6, 47300, Note_on_c, 4, 64, 55
6, 47310, Note_on_c, 4, 57, 0
6, 47310, Note_on_c, 4, 69, 55
6, 47310, Note_on_c, 4, 56, 55
6, 47340, Note_on_c, 4, 56, 0
6, 47340, Note_on_c, 4, 57, 52
6, 47375, Note_on_c, 4, 57, 0
6, 47400, Note_on_c, 4, 69, 0
6, 47400, Note_on_c, 4, 64, 0
6, 47400, Note_on_c, 4, 61, 0
6, 47400, Note_on_c, 4, 52, 48
6, 47435, Note_on_c, 4, 52, 0
6, 47460, Note_on_c, 4, 64, 43
6, 47460, Note_on_c, 4, 69, 43
6, 47460, Note_on_c, 4, 49, 43
6, 47580, Note_on_c, 4, 49, 0
6, 47580, Note_on_c, 4, 69, 0
6, 47580, Note_on_c, 4, 64, 0
6, 47580, Note_on_c, 4, 62, 41
6, 47580, Note_on_c, 4, 68, 41
6, 47580, Note_on_c, 4, 71, 41
6, 47580, Note_on_c, 4, 47, 41
6, 47615, Note_on_c, 4, 47, 0
6, 47640, Note_on_c, 4, 62, 0
6, 47640, Note_on_c, 4, 68, 0
6, 47640, Note_on_c, 4, 71, 0
6, 47640, Note_on_c, 4, 64, 41
6, 47640, Note_on_c, 4, 69, 41
6, 47640, Note_on_c, 4, 73, 41
6, 47640, Note_on_c, 4, 45, 41
6, 47760, Note_on_c, 4, 45, 0
6, 47760, Note_on_c, 4, 57, 42
6, 47795, Note_on_c, 4, 57, 0
6, 47820, Note_on_c, 4, 73, 0
6, 47820, Note_on_c, 4, 69, 0
6, 47820, Note_on_c, 4, 64, 0
6, 47820, Note_on_c, 4, 66, 42
6, 47820, Note_on_c, 4, 71, 42
6, 47820, Note_on_c, 4, 74, 42
6, 47820, Note_on_c, 4, 50, 42
6, 47940, Note_on_c, 4, 50, 0
6, 47940, Note_on_c, 4, 66, 0
6, 47940, Note_on_c, 4, 71, 0
6, 47940, Note_on_c, 4, 74, 0
6, 47940, Note_on_c, 4, 68, 44
6, 47940, Note_on_c, 4, 71, 44
6, 47940, Note_on_c, 4, 52, 44
6, 47975, Note_on_c, 4, 52, 0
6, 48000, Note_on_c, 4, 71, 0
6, 48000, Note_on_c, 4, 68, 0
6, 48000, Note_on_c, 4, 64, 45
6, 48000, Note_on_c, 4, 69, 45
6, 48000, Note_on_c, 4, 73, 45
6, 48000, Note_on_c, 4, 45, 45
6, 48120, Note_on_c, 4, 45, 0
6, 48120, Note_on_c, 4, 57, 46
6, 48155, Note_on_c, 4, 57, 0
6, 48180, Note_on_c, 4, 73, 0
6, 48180, Note_on_c, 4, 69, 0
6, 48180, Note_on_c, 4, 64, 0
6, 48180, Note_on_c, 4, 66, 47
6, 48180, Note_on_c, 4, 71, 47
6, 48180, Note_on_c, 4, 74, 47
6, 48180, Note_on_c, 4, 50, 47
6, 48300, Note_on_c, 4, 50, 0
6, 48300, Note_on_c, 4, 66, 0
6, 48300, Note_on_c, 4, 71, 0
6, 48300, Note_on_c, 4, 74, 0
6, 48300, Note_on_c, 4, 68, 48
6, 48300, Note_on_c, 4, 71, 48
6, 48300, Note_on_c, 4, 52, 48
6, 48335, Note_on_c, 4, 52, 0
6, 48360, Note_on_c, 4, 71, 0
6, 48360, Note_on_c, 4, 68, 0
6, 48360, Note_on_c, 4, 69, 48
6, 48360, Note_on_c, 4, 73, 48
6, 48360, Note_on_c, 4, 45, 48
6, 48480, Note_on_c, 4, 45, 0
6, 48480, Note_on_c, 4, 49, 49
6, 48515, Note_on_c, 4, 49, 0
6, 48540, Note_on_c, 4, 73, 0
6, 48540, Note_on_c, 4, 69, 0
6, 48540, Note_on_c, 4, 68, 50
6, 48540, Note_on_c, 4, 74, 50
6, 48540, Note_on_c, 4, 47, 50
6, 48600, Note_on_c, 4, 74, 0
6, 48600, Note_on_c, 4, 68, 0
6, 48600, Note_on_c, 4, 73, 51
6, 48630, Note_on_c, 4, 73, 0
6, 48630, Note_on_c, 4, 71, 51
6, 48660, Note_on_c, 4, 71, 0
6, 48660, Note_on_c, 4, 47, 0
6, 48660, Note_on_c, 4, 69, 51
6, 48660, Note_on_c, 4, 73, 51
6, 48660, Note_on_c, 4, 45, 51
6, 48695, Note_on_c, 4, 45, 0
6, 48720, Note_on_c, 4, 73, 0
6, 48720, Note_on_c, 4, 69, 0
6, 48720, Note_on_c, 4, 68, 51
6, 48720, Note_on_c, 4, 71, 51
6, 48720, Note_on_c, 4, 52, 51
6, 48840, Note_on_c, 4, 52, 0
6, 48840, Note_on_c, 4, 54, 48
6, 48875, Note_on_c, 4, 54, 0
6, 48900, Note_on_c, 4, 68, 0
6, 48900, Note_on_c, 4, 64, 47
6, 48900, Note_on_c, 4, 56, 47
6, 48960, Note_on_c, 4, 56, 0
6, 48960, Note_on_c, 4, 64, 0
6, 48960, Note_on_c, 4, 71, 0
6, 48960, Note_on_c, 4, 61, 45
6, 48960, Note_on_c, 4, 66, 45
6, 48960, Note_on_c, 4, 57, 45
6, 49020, Note_on_c, 4, 57, 0
6, 49020, Note_on_c, 4, 66, 0
6, 49020, Note_on_c, 4, 61, 0
6, 49020, Note_on_c, 4, 62, 43
6, 49020, Note_on_c, 4, 68, 43
6, 49020, Note_on_c, 4, 59, 43
6, 49055, Note_on_c, 4, 59, 0
6, 49080, Note_on_c, 4, 68, 0
6, 49080, Note_on_c, 4, 62, 0
6, 49080, Note_on_c, 4, 64, 42
6, 49080, Note_on_c, 4, 69, 42
6, 49080, Note_on_c, 4, 49, 42
6, 49200, Note_on_c, 4, 49, 0
6, 49200, Note_on_c, 4, 69, 0
6, 49200, Note_on_c, 4, 64, 0
6, 49440, Note_on_c, 4, 66, 40
6, 49440, Note_on_c, 4, 69, 40
6, 49440, Note_on_c, 4, 73, 40
6, 49440, Note_on_c, 4, 54, 40
6, 49560, Note_on_c, 4, 73, 0
6, 49560, Note_on_c, 4, 66, 0
6, 49560, Note_on_c, 4, 69, 0
6, 49620, Note_on_c, 4, 54, 0
6, 49740, Note_on_c, 4, 67, 37
6, 49740, Note_on_c, 4, 69, 37
6, 49740, Note_on_c, 4, 73, 37
6, 49740, Note_on_c, 4, 52, 37
6, 49800, Note_on_c, 4, 52, 0
6, 49800, Note_on_c, 4, 67, 0
6, 49800, Note_on_c, 4, 69, 0
6, 49800, Note_on_c, 4, 73, 0
6, 49800, Note_on_c, 4, 66, 48
6, 49800, Note_on_c, 4, 69, 48
6, 49800, Note_on_c, 4, 74, 48
6, 49800, Note_on_c, 4, 50, 48
6, 49835, Note_on_c, 4, 50, 0
6, 49860, Note_on_c, 4, 62, 48
6, 49920, Note_on_c, 4, 62, 0
6, 49920, Note_on_c, 4, 61, 48
6, 49955, Note_on_c, 4, 61, 0
6, 49980, Note_on_c, 4, 66, 0
6, 49980, Note_on_c, 4, 69, 0
6, 49980, Note_on_c, 4, 74, 0
6, 49980, Note_on_c, 4, 66, 48
6, 49980, Note_on_c, 4, 71, 48
6, 49980, Note_on_c, 4, 74, 48
6, 49980, Note_on_c, 4, 59, 48
6, 50040, Note_on_c, 4, 59, 0
6, 50040, Note_on_c, 4, 56, 48
6, 50075, Note_on_c, 4, 56, 0
6, 50100, Note_on_c, 4, 57, 48
6, 50135, Note_on_c, 4, 57, 0
6, 50160, Note_on_c, 4, 66, 0
6, 50160, Note_on_c, 4, 71, 0
6, 50160, Note_on_c, 4, 74, 0
6, 50160, Note_on_c, 4, 68, 48
6, 50160, Note_on_c, 4, 74, 48
6, 50160, Note_on_c, 4, 76, 48
6, 50160, Note_on_c, 4, 56, 48
6, 50220, Note_on_c, 4, 56, 0
6, 50220, Note_on_c, 4, 54, 47
6, 50280, Note_on_c, 4, 54, 0
6, 50280, Note_on_c, 4, 52, 49
6, 50315, Note_on_c, 4, 52, 0
6, 50340, Note_on_c, 4, 68, 0
6, 50340, Note_on_c, 4, 74, 0
6, 50340, Note_on_c, 4, 76, 0
6, 50340, Note_on_c, 4, 69, 52
6, 50340, Note_on_c, 4, 73, 52
6, 50340, Note_on_c, 4, 76, 52
6, 50340, Note_on_c, 4, 57, 52
6, 50400, Note_on_c, 4, 57, 0
6, 50400, Note_on_c, 4, 59, 54
6, 50460, Note_on_c, 4, 59, 0
6, 50460, Note_on_c, 4, 76, 0
6, 50460, Note_on_c, 4, 73, 0
6, 50460, Note_on_c, 4, 69, 0
6, 50460, Note_on_c, 4, 61, 56
6, 50495, Note_on_c, 4, 61, 0
6, 50520, Note_on_c, 4, 57, 59
6, 50520, Note_on_c, 4, 61, 59
6, 50520, Note_on_c, 4, 66, 59
6, 50520, Note_on_c, 4, 50, 59
6, 50640, Note_on_c, 4, 50, 0
6, 50640, Note_on_c, 4, 57, 0
6, 50640, Note_on_c, 4, 61, 0
6, 50640, Note_on_c, 4, 66, 0
6, 50700, Note_on_c, 4, 61, 61
6, 50700, Note_on_c, 4, 64, 61
6, 50700, Note_on_c, 4, 69, 61
6, 50700, Note_on_c, 4, 52, 61
6, 50820, Note_on_c, 4, 52, 0
6, 50820, Note_on_c, 4, 61, 0
6, 50820, Note_on_c, 4, 64, 0
6, 50820, Note_on_c, 4, 69, 0
6, 50880, Note_on_c, 4, 66, 64
6, 50880, Note_on_c, 4, 69, 64
6, 50880, Note_on_c, 4, 73, 64
6, 50880, Note_on_c, 4, 54, 64
6, 51000, Note_on_c, 4, 54, 0
6, 51000, Note_on_c, 4, 66, 0
6, 51000, Note_on_c, 4, 69, 0
6, 51000, Note_on_c, 4, 73, 0
6, 51060, Note_on_c, 4, 61, 43
6, 51060, Note_on_c, 4, 64, 43
6, 51060, Note_on_c, 4, 69, 43
6, 51060, Note_on_c, 4, 49, 43
6, 51180, Note_on_c, 4, 49, 0
6, 51180, Note_on_c, 4, 61, 0
6, 51180, Note_on_c, 4, 64, 0
6, 51180, Note_on_c, 4, 69, 0
6, 51240, Note_on_c, 4, 62, 49
6, 51240, Note_on_c, 4, 66, 49
6, 51240, Note_on_c, 4, 50, 49
6, 51360, Note_on_c, 4, 50, 0
6, 51360, Note_on_c, 4, 66, 0
6, 51360, Note_on_c, 4, 62, 0
6, 51420, Note_on_c, 4, 68, 47
6, 51420, Note_on_c, 4, 73, 47
6, 51420, Note_on_c, 4, 52, 47
6, 51480, Note_on_c, 4, 73, 0
6, 51480, Note_on_c, 4, 68, 0
6, 51480, Note_on_c, 4, 71, 44
6, 51540, Note_on_c, 4, 71, 0
6, 51540, Note_on_c, 4, 52, 0
6, 51540, Note_on_c, 4, 69, 41
6, 51600, Note_on_c, 4, 69, 0
6, 51600, Note_on_c, 4, 45, 38
6, 51610, Note_on_c, 4, 61, 38
6, 51620, Note_on_c, 4, 64, 37
6, 51630, Note_on_c, 4, 69, 37
6, 51780, Note_on_c, 4, 69, 0
6, 51780, Note_on_c, 4, 45, 0
6, 51780, Note_on_c, 4, 61, 0
6, 51780, Note_on_c, 4, 64, 0
6, 51960, Control_c, 4, 121, 127
6, 51960, End_track
0, 0, End_of_file
