0, 0, Header, 1, 14, 240
1, 0, Start_track
1, 0, Sequencer_specific, 10, 0, 0, 91, 35, 1, 0, 5, 6, 42, 0
1, 0, Title_t, "J. S. Bach - Orchestral Suite No.1 in C Major"
1, 0, Instrument_name_t, "Conductor Track"
1, 0, SMPTE_offset, 96, 0, 3, 0, 0
1, 0, MIDI_port, 0
1, 0, Marker_t, "Originally Sequenced 14 Aug 1999"
1, 0, Tempo, 357142
1, 0, Key_signature, 0, "major"
1, 0, Time_signature, 2, 2, 24, 8
1, 480, Time_signature, 4, 2, 24, 8
1, 44640, Tempo, 357142
1, 44720, Tempo, 361445
1, 44800, Tempo, 365853
1, 44880, Tempo, 370370
1, 44960, Tempo, 377358
1, 45040, Tempo, 382165
1, 45120, Tempo, 387096
1, 45200, Tempo, 392156
1, 45280, Tempo, 397350
1, 45360, Tempo, 402684
1, 45440, Tempo, 410958
1, 45520, Tempo, 416666
1, 45600, Tempo, 681818
1, 45600, Key_signature, -2, "minor"
1, 45600, Time_signature, 5, 2, 24, 8
1, 46320, Tempo, 3000000
1, 46560, Tempo, 357142
1, 46800, Time_signature, 4, 2, 24, 8
1, 90960, Tempo, 357142
1, 91040, Tempo, 361445
1, 91120, Tempo, 365853
1, 91200, Tempo, 370370
1, 91280, Tempo, 377358
1, 91360, Tempo, 382165
1, 91440, Tempo, 387096
1, 91520, Tempo, 392156
1, 91600, Tempo, 397350
1, 91680, Tempo, 402684
1, 91760, Tempo, 410958
1, 91840, Tempo, 416666
1, 91920, Time_signature, 5, 2, 24, 8
1, 91920, Key_signature, 0, "major"
1, 91920, Tempo, 681818
1, 92640, Tempo, 3000000
1, 92880, Tempo, 357142
1, 93120, Time_signature, 4, 2, 24, 8
1, 137280, Tempo, 357142
1, 137360, Tempo, 361445
1, 137440, Tempo, 365853
1, 137520, Tempo, 370370
1, 137600, Tempo, 377358
1, 137680, Tempo, 382165
1, 137760, Tempo, 387096
1, 137840, Tempo, 392156
1, 137920, Tempo, 397350
1, 138000, Tempo, 402684
1, 138080, Tempo, 410958
1, 138160, Tempo, 416666
1, 138240, Tempo, 681818
1, 138960, Tempo, 1000000
1, 140160, Tempo, 571428
1, 140160, End_track
2, 0, Start_track
2, 0, Title_t, "6th Movement - Bourrée I and II"
2, 0, MIDI_port, 0
2, 0, End_track
3, 0, Start_track
3, 0, Title_t, "Sequenced by D. L. Viens 31 Dec 1999"
3, 0, MIDI_port, 0
3, 0, End_track
4, 0, Start_track
4, 0, Title_t, "dlviens@empire.net"
4, 0, MIDI_port, 0
4, 0, End_track
5, 0, Start_track
5, 0, MIDI_port, 0
5, 0, End_track
6, 0, Start_track
6, 0, Title_t, "Oboe I"
6, 0, MIDI_port, 0
6, 0, Program_c, 0, 68
6, 0, Control_c, 0, 10, 55
6, 0, Control_c, 0, 11, 127
6, 0, Control_c, 0, 7, 80
6, 240, Note_on_c, 0, 64, 76
6, 344, Note_on_c, 0, 64, 0
6, 360, Note_on_c, 0, 65, 76
6, 464, Note_on_c, 0, 65, 0
6, 480, Note_on_c, 0, 67, 76
6, 704, Note_on_c, 0, 67, 0
6, 720, Note_on_c, 0, 72, 76
6, 1184, Note_on_c, 0, 72, 0
6, 1200, Note_on_c, 0, 67, 76
6, 1424, Note_on_c, 0, 67, 0
6, 1440, Note_on_c, 0, 64, 76
6, 1544, Note_on_c, 0, 64, 0
6, 1560, Note_on_c, 0, 62, 76
6, 1664, Note_on_c, 0, 62, 0
6, 1680, Note_on_c, 0, 64, 76
6, 1784, Note_on_c, 0, 64, 0
6, 1800, Note_on_c, 0, 65, 76
6, 1904, Note_on_c, 0, 65, 0
6, 1920, Note_on_c, 0, 67, 76
6, 2144, Note_on_c, 0, 67, 0
6, 2160, Note_on_c, 0, 69, 76
6, 2264, Note_on_c, 0, 69, 0
6, 2280, Note_on_c, 0, 71, 76
6, 2384, Note_on_c, 0, 71, 0
6, 2400, Note_on_c, 0, 72, 76
6, 2504, Note_on_c, 0, 72, 0
6, 2520, Note_on_c, 0, 74, 76
6, 2624, Note_on_c, 0, 74, 0
6, 2640, Note_on_c, 0, 76, 76
6, 2744, Note_on_c, 0, 76, 0
6, 2760, Note_on_c, 0, 77, 76
6, 2864, Note_on_c, 0, 77, 0
6, 2880, Note_on_c, 0, 79, 76
6, 3104, Note_on_c, 0, 79, 0
6, 3120, Note_on_c, 0, 81, 76
6, 3344, Note_on_c, 0, 81, 0
6, 3360, Note_on_c, 0, 74, 76
6, 3464, Note_on_c, 0, 74, 0
6, 3480, Note_on_c, 0, 72, 76
6, 3584, Note_on_c, 0, 72, 0
6, 3600, Note_on_c, 0, 74, 76
6, 3704, Note_on_c, 0, 74, 0
6, 3720, Note_on_c, 0, 76, 76
6, 3824, Note_on_c, 0, 76, 0
6, 3840, Note_on_c, 0, 74, 76
6, 4064, Note_on_c, 0, 74, 0
6, 4080, Note_on_c, 0, 76, 76
6, 4184, Note_on_c, 0, 76, 0
6, 4200, Note_on_c, 0, 78, 76
6, 4304, Note_on_c, 0, 78, 0
6, 4320, Note_on_c, 0, 79, 76
6, 4544, Note_on_c, 0, 79, 0
6, 4560, Note_on_c, 0, 71, 76
6, 4664, Note_on_c, 0, 71, 0
6, 4680, Note_on_c, 0, 72, 76
6, 4784, Note_on_c, 0, 72, 0
6, 4800, Note_on_c, 0, 74, 76
6, 5024, Note_on_c, 0, 74, 0
6, 5040, Note_on_c, 0, 76, 76
6, 5144, Note_on_c, 0, 76, 0
6, 5160, Note_on_c, 0, 78, 76
6, 5264, Note_on_c, 0, 78, 0
6, 5280, Note_on_c, 0, 79, 76
6, 5504, Note_on_c, 0, 79, 0
6, 5520, Note_on_c, 0, 69, 76
6, 5624, Note_on_c, 0, 69, 0
6, 5640, Note_on_c, 0, 71, 76
6, 5744, Note_on_c, 0, 71, 0
6, 5760, Note_on_c, 0, 72, 76
6, 5984, Note_on_c, 0, 72, 0
6, 6000, Note_on_c, 0, 74, 76
6, 6224, Note_on_c, 0, 74, 0
6, 6240, Note_on_c, 0, 71, 76
6, 6584, Note_on_c, 0, 71, 0
6, 6600, Note_on_c, 0, 69, 76
6, 6704, Note_on_c, 0, 69, 0
6, 6720, Note_on_c, 0, 69, 76
6, 7064, Note_on_c, 0, 69, 0
6, 7080, Note_on_c, 0, 67, 76
6, 7184, Note_on_c, 0, 67, 0
6, 7200, Note_on_c, 0, 67, 76
6, 7904, Note_on_c, 0, 67, 0
6, 7920, Note_on_c, 0, 64, 76
6, 8024, Note_on_c, 0, 64, 0
6, 8040, Note_on_c, 0, 65, 76
6, 8144, Note_on_c, 0, 65, 0
6, 8160, Note_on_c, 0, 67, 76
6, 8384, Note_on_c, 0, 67, 0
6, 8400, Note_on_c, 0, 72, 76
6, 8864, Note_on_c, 0, 72, 0
6, 8880, Note_on_c, 0, 67, 76
6, 9104, Note_on_c, 0, 67, 0
6, 9120, Note_on_c, 0, 64, 76
6, 9224, Note_on_c, 0, 64, 0
6, 9240, Note_on_c, 0, 62, 76
6, 9344, Note_on_c, 0, 62, 0
6, 9360, Note_on_c, 0, 64, 76
6, 9464, Note_on_c, 0, 64, 0
6, 9480, Note_on_c, 0, 65, 76
6, 9584, Note_on_c, 0, 65, 0
6, 9600, Note_on_c, 0, 67, 76
6, 9824, Note_on_c, 0, 67, 0
6, 9840, Note_on_c, 0, 69, 76
6, 9944, Note_on_c, 0, 69, 0
6, 9960, Note_on_c, 0, 71, 76
6, 10064, Note_on_c, 0, 71, 0
6, 10080, Note_on_c, 0, 72, 76
6, 10184, Note_on_c, 0, 72, 0
6, 10200, Note_on_c, 0, 74, 76
6, 10304, Note_on_c, 0, 74, 0
6, 10320, Note_on_c, 0, 76, 76
6, 10424, Note_on_c, 0, 76, 0
6, 10440, Note_on_c, 0, 77, 76
6, 10544, Note_on_c, 0, 77, 0
6, 10560, Note_on_c, 0, 79, 76
6, 10784, Note_on_c, 0, 79, 0
6, 10800, Note_on_c, 0, 81, 76
6, 11024, Note_on_c, 0, 81, 0
6, 11040, Note_on_c, 0, 74, 76
6, 11144, Note_on_c, 0, 74, 0
6, 11160, Note_on_c, 0, 72, 76
6, 11264, Note_on_c, 0, 72, 0
6, 11280, Note_on_c, 0, 74, 76
6, 11384, Note_on_c, 0, 74, 0
6, 11400, Note_on_c, 0, 76, 76
6, 11504, Note_on_c, 0, 76, 0
6, 11520, Note_on_c, 0, 74, 76
6, 11744, Note_on_c, 0, 74, 0
6, 11760, Note_on_c, 0, 76, 76
6, 11864, Note_on_c, 0, 76, 0
6, 11880, Note_on_c, 0, 78, 76
6, 11984, Note_on_c, 0, 78, 0
6, 12000, Note_on_c, 0, 79, 76
6, 12224, Note_on_c, 0, 79, 0
6, 12240, Note_on_c, 0, 71, 76
6, 12344, Note_on_c, 0, 71, 0
6, 12360, Note_on_c, 0, 72, 76
6, 12464, Note_on_c, 0, 72, 0
6, 12480, Note_on_c, 0, 74, 76
6, 12704, Note_on_c, 0, 74, 0
6, 12720, Note_on_c, 0, 76, 76
6, 12824, Note_on_c, 0, 76, 0
6, 12840, Note_on_c, 0, 78, 76
6, 12944, Note_on_c, 0, 78, 0
6, 12960, Note_on_c, 0, 79, 76
6, 13184, Note_on_c, 0, 79, 0
6, 13200, Note_on_c, 0, 69, 76
6, 13304, Note_on_c, 0, 69, 0
6, 13320, Note_on_c, 0, 71, 76
6, 13424, Note_on_c, 0, 71, 0
6, 13440, Note_on_c, 0, 72, 76
6, 13664, Note_on_c, 0, 72, 0
6, 13680, Note_on_c, 0, 74, 76
6, 13904, Note_on_c, 0, 74, 0
6, 13920, Note_on_c, 0, 71, 76
6, 14264, Note_on_c, 0, 71, 0
6, 14280, Note_on_c, 0, 69, 76
6, 14384, Note_on_c, 0, 69, 0
6, 14400, Note_on_c, 0, 69, 76
6, 14744, Note_on_c, 0, 69, 0
6, 14760, Note_on_c, 0, 67, 76
6, 14864, Note_on_c, 0, 67, 0
6, 14880, Note_on_c, 0, 67, 76
6, 15584, Note_on_c, 0, 67, 0
6, 15600, Note_on_c, 0, 71, 76
6, 15704, Note_on_c, 0, 71, 0
6, 15720, Note_on_c, 0, 72, 76
6, 15824, Note_on_c, 0, 72, 0
6, 15840, Note_on_c, 0, 74, 76
6, 16064, Note_on_c, 0, 74, 0
6, 16080, Note_on_c, 0, 79, 76
6, 16544, Note_on_c, 0, 79, 0
6, 16560, Note_on_c, 0, 82, 76
6, 16784, Note_on_c, 0, 82, 0
6, 16800, Note_on_c, 0, 73, 76
6, 16904, Note_on_c, 0, 73, 0
6, 16920, Note_on_c, 0, 71, 76
6, 17024, Note_on_c, 0, 71, 0
6, 17040, Note_on_c, 0, 73, 76
6, 17144, Note_on_c, 0, 73, 0
6, 17160, Note_on_c, 0, 74, 76
6, 17264, Note_on_c, 0, 74, 0
6, 17280, Note_on_c, 0, 76, 76
6, 17504, Note_on_c, 0, 76, 0
6, 17520, Note_on_c, 0, 77, 76
6, 17624, Note_on_c, 0, 77, 0
6, 17640, Note_on_c, 0, 79, 76
6, 17744, Note_on_c, 0, 79, 0
6, 17760, Note_on_c, 0, 81, 76
6, 17864, Note_on_c, 0, 81, 0
6, 17880, Note_on_c, 0, 79, 76
6, 17984, Note_on_c, 0, 79, 0
6, 18000, Note_on_c, 0, 81, 76
6, 18104, Note_on_c, 0, 81, 0
6, 18120, Note_on_c, 0, 82, 76
6, 18224, Note_on_c, 0, 82, 0
6, 18240, Note_on_c, 0, 81, 76
6, 18344, Note_on_c, 0, 81, 0
6, 18360, Note_on_c, 0, 79, 76
6, 18464, Note_on_c, 0, 79, 0
6, 18480, Note_on_c, 0, 77, 76
6, 18584, Note_on_c, 0, 77, 0
6, 18600, Note_on_c, 0, 76, 76
6, 18704, Note_on_c, 0, 76, 0
6, 18720, Note_on_c, 0, 77, 76
6, 18824, Note_on_c, 0, 77, 0
6, 18840, Note_on_c, 0, 79, 76
6, 18944, Note_on_c, 0, 79, 0
6, 18960, Note_on_c, 0, 77, 76
6, 19064, Note_on_c, 0, 77, 0
6, 19080, Note_on_c, 0, 76, 76
6, 19184, Note_on_c, 0, 76, 0
6, 19200, Note_on_c, 0, 74, 76
6, 19424, Note_on_c, 0, 74, 0
6, 19440, Note_on_c, 0, 83, 76
6, 19544, Note_on_c, 0, 83, 0
6, 19560, Note_on_c, 0, 84, 76
6, 19664, Note_on_c, 0, 84, 0
6, 19680, Note_on_c, 0, 86, 76
6, 19904, Note_on_c, 0, 86, 0
6, 19920, Note_on_c, 0, 80, 76
6, 20024, Note_on_c, 0, 80, 0
6, 20040, Note_on_c, 0, 81, 76
6, 20144, Note_on_c, 0, 81, 0
6, 20160, Note_on_c, 0, 83, 76
6, 20384, Note_on_c, 0, 83, 0
6, 20400, Note_on_c, 0, 74, 76
6, 20504, Note_on_c, 0, 74, 0
6, 20520, Note_on_c, 0, 76, 76
6, 20624, Note_on_c, 0, 76, 0
6, 20640, Note_on_c, 0, 77, 76
6, 20864, Note_on_c, 0, 77, 0
6, 20880, Note_on_c, 0, 71, 76
6, 20984, Note_on_c, 0, 71, 0
6, 21000, Note_on_c, 0, 72, 76
6, 21104, Note_on_c, 0, 72, 0
6, 21120, Note_on_c, 0, 74, 76
6, 21344, Note_on_c, 0, 74, 0
6, 21360, Note_on_c, 0, 68, 76
6, 21584, Note_on_c, 0, 68, 0
6, 21600, Note_on_c, 0, 69, 76
6, 21944, Note_on_c, 0, 69, 0
6, 21960, Note_on_c, 0, 71, 76
6, 22064, Note_on_c, 0, 71, 0
6, 22080, Note_on_c, 0, 71, 76
6, 22424, Note_on_c, 0, 71, 0
6, 22440, Note_on_c, 0, 69, 76
6, 22544, Note_on_c, 0, 69, 0
6, 22560, Note_on_c, 0, 69, 76
6, 23264, Note_on_c, 0, 69, 0
6, 23280, Note_on_c, 0, 76, 76
6, 23384, Note_on_c, 0, 76, 0
6, 23400, Note_on_c, 0, 77, 76
6, 23504, Note_on_c, 0, 77, 0
6, 23520, Note_on_c, 0, 79, 76
6, 23744, Note_on_c, 0, 79, 0
6, 23760, Note_on_c, 0, 84, 76
6, 24224, Note_on_c, 0, 84, 0
6, 24240, Note_on_c, 0, 79, 76
6, 24464, Note_on_c, 0, 79, 0
6, 24480, Note_on_c, 0, 76, 76
6, 24584, Note_on_c, 0, 76, 0
6, 24600, Note_on_c, 0, 74, 76
6, 24704, Note_on_c, 0, 74, 0
6, 24720, Note_on_c, 0, 76, 76
6, 24824, Note_on_c, 0, 76, 0
6, 24840, Note_on_c, 0, 77, 76
6, 24944, Note_on_c, 0, 77, 0
6, 24960, Note_on_c, 0, 79, 76
6, 25184, Note_on_c, 0, 79, 0
6, 25200, Note_on_c, 0, 70, 76
6, 25424, Note_on_c, 0, 70, 0
6, 25440, Note_on_c, 0, 69, 76
6, 25664, Note_on_c, 0, 69, 0
6, 25680, Note_on_c, 0, 74, 76
6, 25784, Note_on_c, 0, 74, 0
6, 25800, Note_on_c, 0, 72, 76
6, 25904, Note_on_c, 0, 72, 0
6, 25920, Note_on_c, 0, 70, 76
6, 26024, Note_on_c, 0, 70, 0
6, 26040, Note_on_c, 0, 69, 76
6, 26144, Note_on_c, 0, 69, 0
6, 26160, Note_on_c, 0, 70, 76
6, 26264, Note_on_c, 0, 70, 0
6, 26280, Note_on_c, 0, 67, 76
6, 26384, Note_on_c, 0, 67, 0
6, 26400, Note_on_c, 0, 69, 76
6, 26504, Note_on_c, 0, 69, 0
6, 26520, Note_on_c, 0, 70, 76
6, 26624, Note_on_c, 0, 70, 0
6, 26640, Note_on_c, 0, 69, 76
6, 26744, Note_on_c, 0, 69, 0
6, 26760, Note_on_c, 0, 67, 76
6, 26864, Note_on_c, 0, 67, 0
6, 26880, Note_on_c, 0, 65, 76
6, 27104, Note_on_c, 0, 65, 0
6, 27120, Note_on_c, 0, 77, 76
6, 27224, Note_on_c, 0, 77, 0
6, 27240, Note_on_c, 0, 79, 76
6, 27344, Note_on_c, 0, 79, 0
6, 27360, Note_on_c, 0, 81, 76
6, 27584, Note_on_c, 0, 81, 0
6, 27600, Note_on_c, 0, 74, 76
6, 27704, Note_on_c, 0, 74, 0
6, 27720, Note_on_c, 0, 76, 76
6, 27824, Note_on_c, 0, 76, 0
6, 27840, Note_on_c, 0, 77, 76
6, 28064, Note_on_c, 0, 77, 0
6, 28080, Note_on_c, 0, 71, 76
6, 28184, Note_on_c, 0, 71, 0
6, 28200, Note_on_c, 0, 72, 76
6, 28304, Note_on_c, 0, 72, 0
6, 28320, Note_on_c, 0, 74, 76
6, 28544, Note_on_c, 0, 74, 0
6, 28560, Note_on_c, 0, 67, 76
6, 28784, Note_on_c, 0, 67, 0
6, 28800, Note_on_c, 0, 79, 76
6, 29024, Note_on_c, 0, 79, 0
6, 29040, Note_on_c, 0, 71, 76
6, 29264, Note_on_c, 0, 71, 0
6, 29280, Note_on_c, 0, 72, 76
6, 29624, Note_on_c, 0, 72, 0
6, 29640, Note_on_c, 0, 74, 76
6, 29744, Note_on_c, 0, 74, 0
6, 29760, Note_on_c, 0, 74, 76
6, 30104, Note_on_c, 0, 74, 0
6, 30120, Note_on_c, 0, 72, 76
6, 30224, Note_on_c, 0, 72, 0
6, 30240, Note_on_c, 0, 72, 76
6, 30944, Note_on_c, 0, 72, 0
6, 30960, Note_on_c, 0, 71, 76
6, 31064, Note_on_c, 0, 71, 0
6, 31080, Note_on_c, 0, 72, 76
6, 31184, Note_on_c, 0, 72, 0
6, 31200, Note_on_c, 0, 74, 76
6, 31424, Note_on_c, 0, 74, 0
6, 31440, Note_on_c, 0, 79, 76
6, 31904, Note_on_c, 0, 79, 0
6, 31920, Note_on_c, 0, 82, 76
6, 32144, Note_on_c, 0, 82, 0
6, 32160, Note_on_c, 0, 73, 76
6, 32264, Note_on_c, 0, 73, 0
6, 32280, Note_on_c, 0, 71, 76
6, 32384, Note_on_c, 0, 71, 0
6, 32400, Note_on_c, 0, 73, 76
6, 32504, Note_on_c, 0, 73, 0
6, 32520, Note_on_c, 0, 74, 76
6, 32624, Note_on_c, 0, 74, 0
6, 32640, Note_on_c, 0, 76, 76
6, 32864, Note_on_c, 0, 76, 0
6, 32880, Note_on_c, 0, 77, 76
6, 32984, Note_on_c, 0, 77, 0
6, 33000, Note_on_c, 0, 79, 76
6, 33104, Note_on_c, 0, 79, 0
6, 33120, Note_on_c, 0, 81, 76
6, 33224, Note_on_c, 0, 81, 0
6, 33240, Note_on_c, 0, 79, 76
6, 33344, Note_on_c, 0, 79, 0
6, 33360, Note_on_c, 0, 81, 76
6, 33464, Note_on_c, 0, 81, 0
6, 33480, Note_on_c, 0, 82, 76
6, 33584, Note_on_c, 0, 82, 0
6, 33600, Note_on_c, 0, 81, 76
6, 33704, Note_on_c, 0, 81, 0
6, 33720, Note_on_c, 0, 79, 76
6, 33824, Note_on_c, 0, 79, 0
6, 33840, Note_on_c, 0, 77, 76
6, 33944, Note_on_c, 0, 77, 0
6, 33960, Note_on_c, 0, 76, 76
6, 34064, Note_on_c, 0, 76, 0
6, 34080, Note_on_c, 0, 77, 76
6, 34184, Note_on_c, 0, 77, 0
6, 34200, Note_on_c, 0, 79, 76
6, 34304, Note_on_c, 0, 79, 0
6, 34320, Note_on_c, 0, 77, 76
6, 34424, Note_on_c, 0, 77, 0
6, 34440, Note_on_c, 0, 76, 76
6, 34544, Note_on_c, 0, 76, 0
6, 34560, Note_on_c, 0, 74, 76
6, 34784, Note_on_c, 0, 74, 0
6, 34800, Note_on_c, 0, 83, 76
6, 34904, Note_on_c, 0, 83, 0
6, 34920, Note_on_c, 0, 84, 76
6, 35024, Note_on_c, 0, 84, 0
6, 35040, Note_on_c, 0, 86, 76
6, 35264, Note_on_c, 0, 86, 0
6, 35280, Note_on_c, 0, 80, 76
6, 35384, Note_on_c, 0, 80, 0
6, 35400, Note_on_c, 0, 81, 76
6, 35504, Note_on_c, 0, 81, 0
6, 35520, Note_on_c, 0, 83, 76
6, 35744, Note_on_c, 0, 83, 0
6, 35760, Note_on_c, 0, 74, 76
6, 35864, Note_on_c, 0, 74, 0
6, 35880, Note_on_c, 0, 76, 76
6, 35984, Note_on_c, 0, 76, 0
6, 36000, Note_on_c, 0, 77, 76
6, 36224, Note_on_c, 0, 77, 0
6, 36240, Note_on_c, 0, 71, 76
6, 36344, Note_on_c, 0, 71, 0
6, 36360, Note_on_c, 0, 72, 76
6, 36464, Note_on_c, 0, 72, 0
6, 36480, Note_on_c, 0, 74, 76
6, 36704, Note_on_c, 0, 74, 0
6, 36720, Note_on_c, 0, 68, 76
6, 36944, Note_on_c, 0, 68, 0
6, 36960, Note_on_c, 0, 69, 76
6, 37304, Note_on_c, 0, 69, 0
6, 37320, Note_on_c, 0, 71, 76
6, 37424, Note_on_c, 0, 71, 0
6, 37440, Note_on_c, 0, 71, 76
6, 37784, Note_on_c, 0, 71, 0
6, 37800, Note_on_c, 0, 69, 76
6, 37904, Note_on_c, 0, 69, 0
6, 37920, Note_on_c, 0, 69, 76
6, 38624, Note_on_c, 0, 69, 0
6, 38640, Note_on_c, 0, 76, 76
6, 38744, Note_on_c, 0, 76, 0
6, 38760, Note_on_c, 0, 77, 76
6, 38864, Note_on_c, 0, 77, 0
6, 38880, Note_on_c, 0, 79, 76
6, 39104, Note_on_c, 0, 79, 0
6, 39120, Note_on_c, 0, 84, 76
6, 39584, Note_on_c, 0, 84, 0
6, 39600, Note_on_c, 0, 79, 76
6, 39824, Note_on_c, 0, 79, 0
6, 39840, Note_on_c, 0, 76, 76
6, 39944, Note_on_c, 0, 76, 0
6, 39960, Note_on_c, 0, 74, 76
6, 40064, Note_on_c, 0, 74, 0
6, 40080, Note_on_c, 0, 76, 76
6, 40184, Note_on_c, 0, 76, 0
6, 40200, Note_on_c, 0, 77, 76
6, 40304, Note_on_c, 0, 77, 0
6, 40320, Note_on_c, 0, 79, 76
6, 40544, Note_on_c, 0, 79, 0
6, 40560, Note_on_c, 0, 70, 76
6, 40784, Note_on_c, 0, 70, 0
6, 40800, Note_on_c, 0, 69, 76
6, 41024, Note_on_c, 0, 69, 0
6, 41040, Note_on_c, 0, 74, 76
6, 41144, Note_on_c, 0, 74, 0
6, 41160, Note_on_c, 0, 72, 76
6, 41264, Note_on_c, 0, 72, 0
6, 41280, Note_on_c, 0, 70, 76
6, 41384, Note_on_c, 0, 70, 0
6, 41400, Note_on_c, 0, 69, 76
6, 41504, Note_on_c, 0, 69, 0
6, 41520, Note_on_c, 0, 70, 76
6, 41624, Note_on_c, 0, 70, 0
6, 41640, Note_on_c, 0, 67, 76
6, 41744, Note_on_c, 0, 67, 0
6, 41760, Note_on_c, 0, 69, 76
6, 41864, Note_on_c, 0, 69, 0
6, 41880, Note_on_c, 0, 70, 76
6, 41984, Note_on_c, 0, 70, 0
6, 42000, Note_on_c, 0, 69, 76
6, 42104, Note_on_c, 0, 69, 0
6, 42120, Note_on_c, 0, 67, 76
6, 42224, Note_on_c, 0, 67, 0
6, 42240, Note_on_c, 0, 65, 76
6, 42464, Note_on_c, 0, 65, 0
6, 42480, Note_on_c, 0, 77, 76
6, 42584, Note_on_c, 0, 77, 0
6, 42600, Note_on_c, 0, 79, 76
6, 42704, Note_on_c, 0, 79, 0
6, 42720, Note_on_c, 0, 81, 76
6, 42944, Note_on_c, 0, 81, 0
6, 42960, Note_on_c, 0, 74, 76
6, 43064, Note_on_c, 0, 74, 0
6, 43080, Note_on_c, 0, 76, 76
6, 43184, Note_on_c, 0, 76, 0
6, 43200, Note_on_c, 0, 77, 76
6, 43424, Note_on_c, 0, 77, 0
6, 43440, Note_on_c, 0, 71, 76
6, 43544, Note_on_c, 0, 71, 0
6, 43560, Note_on_c, 0, 72, 76
6, 43664, Note_on_c, 0, 72, 0
6, 43680, Note_on_c, 0, 74, 76
6, 43904, Note_on_c, 0, 74, 0
6, 43920, Note_on_c, 0, 67, 76
6, 44144, Note_on_c, 0, 67, 0
6, 44160, Note_on_c, 0, 79, 76
6, 44384, Note_on_c, 0, 79, 0
6, 44400, Note_on_c, 0, 71, 76
6, 44624, Note_on_c, 0, 71, 0
6, 44640, Note_on_c, 0, 72, 76
6, 44984, Note_on_c, 0, 72, 0
6, 45000, Note_on_c, 0, 74, 76
6, 45104, Note_on_c, 0, 74, 0
6, 45120, Note_on_c, 0, 74, 76
6, 45464, Note_on_c, 0, 74, 0
6, 45480, Note_on_c, 0, 72, 76
6, 45584, Note_on_c, 0, 72, 0
6, 45600, Note_on_c, 0, 72, 76
6, 46319, Note_on_c, 0, 72, 0
6, 46560, Note_on_c, 0, 75, 76
6, 46679, Note_on_c, 0, 75, 0
6, 46680, Note_on_c, 0, 74, 76
6, 46784, Note_on_c, 0, 74, 0
6, 46800, Note_on_c, 0, 75, 76
6, 47024, Note_on_c, 0, 75, 0
6, 47040, Note_on_c, 0, 74, 76
6, 47504, Note_on_c, 0, 74, 0
6, 47520, Note_on_c, 0, 72, 76
6, 47624, Note_on_c, 0, 72, 0
6, 47640, Note_on_c, 0, 71, 76
6, 47744, Note_on_c, 0, 71, 0
6, 47760, Note_on_c, 0, 72, 76
6, 47924, Note_on_c, 0, 72, 0
6, 47940, Note_on_c, 0, 74, 76
6, 47969, Note_on_c, 0, 74, 0
6, 47970, Note_on_c, 0, 75, 76
6, 47999, Note_on_c, 0, 75, 0
6, 48000, Note_on_c, 0, 77, 76
6, 48464, Note_on_c, 0, 77, 0
6, 48480, Note_on_c, 0, 75, 76
6, 48584, Note_on_c, 0, 75, 0
6, 48600, Note_on_c, 0, 74, 76
6, 48704, Note_on_c, 0, 74, 0
6, 48720, Note_on_c, 0, 75, 76
6, 48824, Note_on_c, 0, 75, 0
6, 48840, Note_on_c, 0, 72, 76
6, 48944, Note_on_c, 0, 72, 0
6, 48960, Note_on_c, 0, 74, 76
6, 49424, Note_on_c, 0, 74, 0
6, 49440, Note_on_c, 0, 72, 76
6, 49544, Note_on_c, 0, 72, 0
6, 49560, Note_on_c, 0, 71, 76
6, 49664, Note_on_c, 0, 71, 0
6, 49680, Note_on_c, 0, 72, 76
6, 49784, Note_on_c, 0, 72, 0
6, 49800, Note_on_c, 0, 67, 76
6, 49904, Note_on_c, 0, 67, 0
6, 49920, Note_on_c, 0, 69, 76
6, 50024, Note_on_c, 0, 69, 0
6, 50040, Note_on_c, 0, 71, 76
6, 50144, Note_on_c, 0, 71, 0
6, 50160, Note_on_c, 0, 72, 76
6, 50264, Note_on_c, 0, 72, 0
6, 50280, Note_on_c, 0, 74, 76
6, 50384, Note_on_c, 0, 74, 0
6, 50400, Note_on_c, 0, 75, 76
6, 50504, Note_on_c, 0, 75, 0
6, 50520, Note_on_c, 0, 77, 76
6, 50624, Note_on_c, 0, 77, 0
6, 50640, Note_on_c, 0, 75, 76
6, 50864, Note_on_c, 0, 75, 0
6, 50880, Note_on_c, 0, 74, 76
6, 51344, Note_on_c, 0, 74, 0
6, 51360, Note_on_c, 0, 72, 76
6, 51464, Note_on_c, 0, 72, 0
6, 51480, Note_on_c, 0, 71, 76
6, 51584, Note_on_c, 0, 71, 0
6, 51600, Note_on_c, 0, 72, 76
6, 51824, Note_on_c, 0, 72, 0
6, 51840, Note_on_c, 0, 80, 76
6, 52304, Note_on_c, 0, 80, 0
6, 52320, Note_on_c, 0, 79, 76
6, 52424, Note_on_c, 0, 79, 0
6, 52440, Note_on_c, 0, 77, 76
6, 52544, Note_on_c, 0, 77, 0
6, 52560, Note_on_c, 0, 79, 76
6, 52664, Note_on_c, 0, 79, 0
6, 52680, Note_on_c, 0, 75, 76
6, 52784, Note_on_c, 0, 75, 0
6, 52800, Note_on_c, 0, 77, 76
6, 53264, Note_on_c, 0, 77, 0
6, 53280, Note_on_c, 0, 75, 76
6, 53384, Note_on_c, 0, 75, 0
6, 53400, Note_on_c, 0, 74, 76
6, 53504, Note_on_c, 0, 74, 0
6, 53520, Note_on_c, 0, 75, 76
6, 54224, Note_on_c, 0, 75, 0
6, 54240, Note_on_c, 0, 75, 76
6, 54359, Note_on_c, 0, 75, 0
6, 54360, Note_on_c, 0, 74, 76
6, 54464, Note_on_c, 0, 74, 0
6, 54480, Note_on_c, 0, 75, 76
6, 54704, Note_on_c, 0, 75, 0
6, 54720, Note_on_c, 0, 74, 76
6, 55184, Note_on_c, 0, 74, 0
6, 55200, Note_on_c, 0, 72, 76
6, 55304, Note_on_c, 0, 72, 0
6, 55320, Note_on_c, 0, 71, 76
6, 55424, Note_on_c, 0, 71, 0
6, 55440, Note_on_c, 0, 72, 76
6, 55604, Note_on_c, 0, 72, 0
6, 55620, Note_on_c, 0, 74, 76
6, 55649, Note_on_c, 0, 74, 0
6, 55650, Note_on_c, 0, 75, 76
6, 55679, Note_on_c, 0, 75, 0
6, 55680, Note_on_c, 0, 77, 76
6, 56144, Note_on_c, 0, 77, 0
6, 56160, Note_on_c, 0, 75, 76
6, 56264, Note_on_c, 0, 75, 0
6, 56280, Note_on_c, 0, 74, 76
6, 56384, Note_on_c, 0, 74, 0
6, 56400, Note_on_c, 0, 75, 76
6, 56504, Note_on_c, 0, 75, 0
6, 56520, Note_on_c, 0, 72, 76
6, 56624, Note_on_c, 0, 72, 0
6, 56640, Note_on_c, 0, 74, 76
6, 57104, Note_on_c, 0, 74, 0
6, 57120, Note_on_c, 0, 72, 76
6, 57224, Note_on_c, 0, 72, 0
6, 57240, Note_on_c, 0, 71, 76
6, 57344, Note_on_c, 0, 71, 0
6, 57360, Note_on_c, 0, 72, 76
6, 57464, Note_on_c, 0, 72, 0
6, 57480, Note_on_c, 0, 67, 76
6, 57584, Note_on_c, 0, 67, 0
6, 57600, Note_on_c, 0, 69, 76
6, 57704, Note_on_c, 0, 69, 0
6, 57720, Note_on_c, 0, 71, 76
6, 57824, Note_on_c, 0, 71, 0
6, 57840, Note_on_c, 0, 72, 76
6, 57944, Note_on_c, 0, 72, 0
6, 57960, Note_on_c, 0, 74, 76
6, 58064, Note_on_c, 0, 74, 0
6, 58080, Note_on_c, 0, 75, 76
6, 58184, Note_on_c, 0, 75, 0
6, 58200, Note_on_c, 0, 77, 76
6, 58304, Note_on_c, 0, 77, 0
6, 58320, Note_on_c, 0, 75, 76
6, 58544, Note_on_c, 0, 75, 0
6, 58560, Note_on_c, 0, 74, 76
6, 59024, Note_on_c, 0, 74, 0
6, 59040, Note_on_c, 0, 72, 76
6, 59144, Note_on_c, 0, 72, 0
6, 59160, Note_on_c, 0, 71, 76
6, 59264, Note_on_c, 0, 71, 0
6, 59280, Note_on_c, 0, 72, 76
6, 59504, Note_on_c, 0, 72, 0
6, 59520, Note_on_c, 0, 80, 76
6, 59984, Note_on_c, 0, 80, 0
6, 60000, Note_on_c, 0, 79, 76
6, 60104, Note_on_c, 0, 79, 0
6, 60120, Note_on_c, 0, 77, 76
6, 60224, Note_on_c, 0, 77, 0
6, 60240, Note_on_c, 0, 79, 76
6, 60344, Note_on_c, 0, 79, 0
6, 60360, Note_on_c, 0, 75, 76
6, 60464, Note_on_c, 0, 75, 0
6, 60480, Note_on_c, 0, 77, 76
6, 60944, Note_on_c, 0, 77, 0
6, 60960, Note_on_c, 0, 75, 76
6, 61064, Note_on_c, 0, 75, 0
6, 61080, Note_on_c, 0, 74, 76
6, 61184, Note_on_c, 0, 74, 0
6, 61200, Note_on_c, 0, 75, 76
6, 61904, Note_on_c, 0, 75, 0
6, 61920, Note_on_c, 0, 79, 76
6, 62024, Note_on_c, 0, 79, 0
6, 62040, Note_on_c, 0, 77, 76
6, 62144, Note_on_c, 0, 77, 0
6, 62160, Note_on_c, 0, 79, 76
6, 62384, Note_on_c, 0, 79, 0
6, 62400, Note_on_c, 0, 81, 76
6, 62864, Note_on_c, 0, 81, 0
6, 62880, Note_on_c, 0, 82, 76
6, 63104, Note_on_c, 0, 82, 0
6, 63120, Note_on_c, 0, 74, 76
6, 63224, Note_on_c, 0, 74, 0
6, 63240, Note_on_c, 0, 72, 76
6, 63344, Note_on_c, 0, 72, 0
6, 63360, Note_on_c, 0, 74, 76
6, 63464, Note_on_c, 0, 74, 0
6, 63480, Note_on_c, 0, 75, 76
6, 63584, Note_on_c, 0, 75, 0
6, 63600, Note_on_c, 0, 77, 76
6, 63704, Note_on_c, 0, 77, 0
6, 63720, Note_on_c, 0, 75, 76
6, 63824, Note_on_c, 0, 75, 0
6, 63840, Note_on_c, 0, 77, 76
6, 63944, Note_on_c, 0, 77, 0
6, 63960, Note_on_c, 0, 79, 76
6, 64064, Note_on_c, 0, 79, 0
6, 64080, Note_on_c, 0, 80, 76
6, 64184, Note_on_c, 0, 80, 0
6, 64200, Note_on_c, 0, 79, 76
6, 64304, Note_on_c, 0, 79, 0
6, 64320, Note_on_c, 0, 82, 76
6, 64784, Note_on_c, 0, 82, 0
6, 64800, Note_on_c, 0, 80, 76
6, 64904, Note_on_c, 0, 80, 0
6, 64920, Note_on_c, 0, 79, 76
6, 65024, Note_on_c, 0, 79, 0
6, 65040, Note_on_c, 0, 80, 76
6, 65144, Note_on_c, 0, 80, 0
6, 65160, Note_on_c, 0, 79, 76
6, 65264, Note_on_c, 0, 79, 0
6, 65280, Note_on_c, 0, 77, 76
6, 65384, Note_on_c, 0, 77, 0
6, 65400, Note_on_c, 0, 80, 76
6, 65504, Note_on_c, 0, 80, 0
6, 65520, Note_on_c, 0, 79, 76
6, 65624, Note_on_c, 0, 79, 0
6, 65640, Note_on_c, 0, 77, 76
6, 65744, Note_on_c, 0, 77, 0
6, 65760, Note_on_c, 0, 75, 76
6, 65864, Note_on_c, 0, 75, 0
6, 65880, Note_on_c, 0, 74, 76
6, 65984, Note_on_c, 0, 74, 0
6, 66000, Note_on_c, 0, 75, 76
6, 66104, Note_on_c, 0, 75, 0
6, 66120, Note_on_c, 0, 74, 76
6, 66224, Note_on_c, 0, 74, 0
6, 66240, Note_on_c, 0, 77, 76
6, 66704, Note_on_c, 0, 77, 0
6, 66720, Note_on_c, 0, 75, 76
6, 66824, Note_on_c, 0, 75, 0
6, 66840, Note_on_c, 0, 74, 76
6, 66944, Note_on_c, 0, 74, 0
6, 66960, Note_on_c, 0, 75, 76
6, 67064, Note_on_c, 0, 75, 0
6, 67080, Note_on_c, 0, 72, 76
6, 67184, Note_on_c, 0, 72, 0
6, 67200, Note_on_c, 0, 78, 76
6, 67664, Note_on_c, 0, 78, 0
6, 67680, Note_on_c, 0, 79, 76
6, 67784, Note_on_c, 0, 79, 0
6, 67800, Note_on_c, 0, 81, 76
6, 67904, Note_on_c, 0, 81, 0
6, 67920, Note_on_c, 0, 74, 76
6, 68144, Note_on_c, 0, 74, 0
6, 68160, Note_on_c, 0, 72, 76
6, 68264, Note_on_c, 0, 72, 0
6, 68280, Note_on_c, 0, 70, 76
6, 68384, Note_on_c, 0, 70, 0
6, 68400, Note_on_c, 0, 72, 76
6, 68504, Note_on_c, 0, 72, 0
6, 68520, Note_on_c, 0, 70, 76
6, 68624, Note_on_c, 0, 70, 0
6, 68640, Note_on_c, 0, 69, 76
6, 68744, Note_on_c, 0, 69, 0
6, 68760, Note_on_c, 0, 70, 76
6, 68864, Note_on_c, 0, 70, 0
6, 68880, Note_on_c, 0, 67, 76
6, 69584, Note_on_c, 0, 67, 0
6, 69600, Note_on_c, 0, 67, 76
6, 69704, Note_on_c, 0, 67, 0
6, 69720, Note_on_c, 0, 68, 76
6, 69824, Note_on_c, 0, 68, 0
6, 69840, Note_on_c, 0, 70, 76
6, 69944, Note_on_c, 0, 70, 0
6, 69960, Note_on_c, 0, 72, 76
6, 70064, Note_on_c, 0, 72, 0
6, 70080, Note_on_c, 0, 73, 76
6, 70544, Note_on_c, 0, 73, 0
6, 70560, Note_on_c, 0, 72, 76
6, 70664, Note_on_c, 0, 72, 0
6, 70680, Note_on_c, 0, 70, 76
6, 70784, Note_on_c, 0, 70, 0
6, 70800, Note_on_c, 0, 76, 76
6, 71024, Note_on_c, 0, 76, 0
6, 71040, Note_on_c, 0, 77, 76
6, 71504, Note_on_c, 0, 77, 0
6, 71520, Note_on_c, 0, 79, 76
6, 71624, Note_on_c, 0, 79, 0
6, 71640, Note_on_c, 0, 80, 76
6, 71744, Note_on_c, 0, 80, 0
6, 71760, Note_on_c, 0, 79, 76
6, 71864, Note_on_c, 0, 79, 0
6, 71880, Note_on_c, 0, 77, 76
6, 71984, Note_on_c, 0, 77, 0
6, 72000, Note_on_c, 0, 75, 76
6, 72104, Note_on_c, 0, 75, 0
6, 72120, Note_on_c, 0, 79, 76
6, 72224, Note_on_c, 0, 79, 0
6, 72240, Note_on_c, 0, 77, 76
6, 72344, Note_on_c, 0, 77, 0
6, 72360, Note_on_c, 0, 75, 76
6, 72464, Note_on_c, 0, 75, 0
6, 72480, Note_on_c, 0, 74, 76
6, 72584, Note_on_c, 0, 74, 0
6, 72600, Note_on_c, 0, 72, 76
6, 72704, Note_on_c, 0, 72, 0
6, 72720, Note_on_c, 0, 71, 76
6, 72824, Note_on_c, 0, 71, 0
6, 72840, Note_on_c, 0, 69, 76
6, 72944, Note_on_c, 0, 69, 0
6, 72960, Note_on_c, 0, 71, 76
6, 73064, Note_on_c, 0, 71, 0
6, 73080, Note_on_c, 0, 72, 76
6, 73184, Note_on_c, 0, 72, 0
6, 73200, Note_on_c, 0, 74, 76
6, 73304, Note_on_c, 0, 74, 0
6, 73320, Note_on_c, 0, 75, 76
6, 73424, Note_on_c, 0, 75, 0
6, 73440, Note_on_c, 0, 77, 76
6, 73544, Note_on_c, 0, 77, 0
6, 73560, Note_on_c, 0, 74, 76
6, 73664, Note_on_c, 0, 74, 0
6, 73680, Note_on_c, 0, 75, 76
6, 73904, Note_on_c, 0, 75, 0
6, 73920, Note_on_c, 0, 74, 76
6, 74384, Note_on_c, 0, 74, 0
6, 74400, Note_on_c, 0, 72, 76
6, 74504, Note_on_c, 0, 72, 0
6, 74520, Note_on_c, 0, 71, 76
6, 74624, Note_on_c, 0, 71, 0
6, 74640, Note_on_c, 0, 72, 76
6, 74804, Note_on_c, 0, 72, 0
6, 74820, Note_on_c, 0, 74, 76
6, 74849, Note_on_c, 0, 74, 0
6, 74850, Note_on_c, 0, 75, 76
6, 74879, Note_on_c, 0, 75, 0
6, 74880, Note_on_c, 0, 77, 76
6, 75344, Note_on_c, 0, 77, 0
6, 75360, Note_on_c, 0, 75, 76
6, 75464, Note_on_c, 0, 75, 0
6, 75480, Note_on_c, 0, 74, 76
6, 75584, Note_on_c, 0, 74, 0
6, 75600, Note_on_c, 0, 75, 76
6, 75704, Note_on_c, 0, 75, 0
6, 75720, Note_on_c, 0, 72, 76
6, 75824, Note_on_c, 0, 72, 0
6, 75840, Note_on_c, 0, 74, 76
6, 76304, Note_on_c, 0, 74, 0
6, 76320, Note_on_c, 0, 72, 76
6, 76424, Note_on_c, 0, 72, 0
6, 76440, Note_on_c, 0, 71, 76
6, 76544, Note_on_c, 0, 71, 0
6, 76560, Note_on_c, 0, 72, 76
6, 77264, Note_on_c, 0, 72, 0
6, 77280, Note_on_c, 0, 79, 76
6, 77384, Note_on_c, 0, 79, 0
6, 77400, Note_on_c, 0, 77, 76
6, 77504, Note_on_c, 0, 77, 0
6, 77520, Note_on_c, 0, 79, 76
6, 77744, Note_on_c, 0, 79, 0
6, 77760, Note_on_c, 0, 81, 76
6, 78224, Note_on_c, 0, 81, 0
6, 78240, Note_on_c, 0, 82, 76
6, 78464, Note_on_c, 0, 82, 0
6, 78480, Note_on_c, 0, 74, 76
6, 78584, Note_on_c, 0, 74, 0
6, 78600, Note_on_c, 0, 72, 76
6, 78704, Note_on_c, 0, 72, 0
6, 78720, Note_on_c, 0, 74, 76
6, 78824, Note_on_c, 0, 74, 0
6, 78840, Note_on_c, 0, 75, 76
6, 78944, Note_on_c, 0, 75, 0
6, 78960, Note_on_c, 0, 77, 76
6, 79064, Note_on_c, 0, 77, 0
6, 79080, Note_on_c, 0, 75, 76
6, 79184, Note_on_c, 0, 75, 0
6, 79200, Note_on_c, 0, 77, 76
6, 79304, Note_on_c, 0, 77, 0
6, 79320, Note_on_c, 0, 79, 76
6, 79424, Note_on_c, 0, 79, 0
6, 79440, Note_on_c, 0, 80, 76
6, 79544, Note_on_c, 0, 80, 0
6, 79560, Note_on_c, 0, 79, 76
6, 79664, Note_on_c, 0, 79, 0
6, 79680, Note_on_c, 0, 82, 76
6, 80144, Note_on_c, 0, 82, 0
6, 80160, Note_on_c, 0, 80, 76
6, 80264, Note_on_c, 0, 80, 0
6, 80280, Note_on_c, 0, 79, 76
6, 80384, Note_on_c, 0, 79, 0
6, 80400, Note_on_c, 0, 80, 76
6, 80504, Note_on_c, 0, 80, 0
6, 80520, Note_on_c, 0, 79, 76
6, 80624, Note_on_c, 0, 79, 0
6, 80640, Note_on_c, 0, 77, 76
6, 80744, Note_on_c, 0, 77, 0
6, 80760, Note_on_c, 0, 80, 76
6, 80864, Note_on_c, 0, 80, 0
6, 80880, Note_on_c, 0, 79, 76
6, 80984, Note_on_c, 0, 79, 0
6, 81000, Note_on_c, 0, 77, 76
6, 81104, Note_on_c, 0, 77, 0
6, 81120, Note_on_c, 0, 75, 76
6, 81224, Note_on_c, 0, 75, 0
6, 81240, Note_on_c, 0, 74, 76
6, 81344, Note_on_c, 0, 74, 0
6, 81360, Note_on_c, 0, 75, 76
6, 81464, Note_on_c, 0, 75, 0
6, 81480, Note_on_c, 0, 74, 76
6, 81584, Note_on_c, 0, 74, 0
6, 81600, Note_on_c, 0, 77, 76
6, 82064, Note_on_c, 0, 77, 0
6, 82080, Note_on_c, 0, 75, 76
6, 82184, Note_on_c, 0, 75, 0
6, 82200, Note_on_c, 0, 74, 76
6, 82304, Note_on_c, 0, 74, 0
6, 82320, Note_on_c, 0, 75, 76
6, 82424, Note_on_c, 0, 75, 0
6, 82440, Note_on_c, 0, 72, 76
6, 82544, Note_on_c, 0, 72, 0
6, 82560, Note_on_c, 0, 78, 76
6, 83024, Note_on_c, 0, 78, 0
6, 83040, Note_on_c, 0, 79, 76
6, 83144, Note_on_c, 0, 79, 0
6, 83160, Note_on_c, 0, 81, 76
6, 83264, Note_on_c, 0, 81, 0
6, 83280, Note_on_c, 0, 74, 76
6, 83504, Note_on_c, 0, 74, 0
6, 83520, Note_on_c, 0, 72, 76
6, 83624, Note_on_c, 0, 72, 0
6, 83640, Note_on_c, 0, 70, 76
6, 83744, Note_on_c, 0, 70, 0
6, 83760, Note_on_c, 0, 72, 76
6, 83864, Note_on_c, 0, 72, 0
6, 83880, Note_on_c, 0, 70, 76
6, 83984, Note_on_c, 0, 70, 0
6, 84000, Note_on_c, 0, 69, 76
6, 84104, Note_on_c, 0, 69, 0
6, 84120, Note_on_c, 0, 70, 76
6, 84224, Note_on_c, 0, 70, 0
6, 84240, Note_on_c, 0, 67, 76
6, 84944, Note_on_c, 0, 67, 0
6, 84960, Note_on_c, 0, 67, 76
6, 85064, Note_on_c, 0, 67, 0
6, 85080, Note_on_c, 0, 68, 76
6, 85184, Note_on_c, 0, 68, 0
6, 85200, Note_on_c, 0, 70, 76
6, 85304, Note_on_c, 0, 70, 0
6, 85320, Note_on_c, 0, 72, 76
6, 85424, Note_on_c, 0, 72, 0
6, 85440, Note_on_c, 0, 73, 76
6, 85904, Note_on_c, 0, 73, 0
6, 85920, Note_on_c, 0, 72, 76
6, 86024, Note_on_c, 0, 72, 0
6, 86040, Note_on_c, 0, 70, 76
6, 86144, Note_on_c, 0, 70, 0
6, 86160, Note_on_c, 0, 76, 76
6, 86384, Note_on_c, 0, 76, 0
6, 86400, Note_on_c, 0, 77, 76
6, 86864, Note_on_c, 0, 77, 0
6, 86880, Note_on_c, 0, 79, 76
6, 86984, Note_on_c, 0, 79, 0
6, 87000, Note_on_c, 0, 80, 76
6, 87104, Note_on_c, 0, 80, 0
6, 87120, Note_on_c, 0, 79, 76
6, 87224, Note_on_c, 0, 79, 0
6, 87240, Note_on_c, 0, 77, 76
6, 87344, Note_on_c, 0, 77, 0
6, 87360, Note_on_c, 0, 75, 76
6, 87464, Note_on_c, 0, 75, 0
6, 87480, Note_on_c, 0, 79, 76
6, 87584, Note_on_c, 0, 79, 0
6, 87600, Note_on_c, 0, 77, 76
6, 87704, Note_on_c, 0, 77, 0
6, 87720, Note_on_c, 0, 75, 76
6, 87824, Note_on_c, 0, 75, 0
6, 87840, Note_on_c, 0, 74, 76
6, 87944, Note_on_c, 0, 74, 0
6, 87960, Note_on_c, 0, 72, 76
6, 88064, Note_on_c, 0, 72, 0
6, 88080, Note_on_c, 0, 71, 76
6, 88184, Note_on_c, 0, 71, 0
6, 88200, Note_on_c, 0, 69, 76
6, 88304, Note_on_c, 0, 69, 0
6, 88320, Note_on_c, 0, 71, 76
6, 88424, Note_on_c, 0, 71, 0
6, 88440, Note_on_c, 0, 72, 76
6, 88544, Note_on_c, 0, 72, 0
6, 88560, Note_on_c, 0, 74, 76
6, 88664, Note_on_c, 0, 74, 0
6, 88680, Note_on_c, 0, 75, 76
6, 88784, Note_on_c, 0, 75, 0
6, 88800, Note_on_c, 0, 77, 76
6, 88904, Note_on_c, 0, 77, 0
6, 88920, Note_on_c, 0, 74, 76
6, 89024, Note_on_c, 0, 74, 0
6, 89040, Note_on_c, 0, 75, 76
6, 89264, Note_on_c, 0, 75, 0
6, 89280, Note_on_c, 0, 74, 76
6, 89744, Note_on_c, 0, 74, 0
6, 89760, Note_on_c, 0, 72, 76
6, 89864, Note_on_c, 0, 72, 0
6, 89880, Note_on_c, 0, 71, 76
6, 89984, Note_on_c, 0, 71, 0
6, 90000, Note_on_c, 0, 72, 76
6, 90164, Note_on_c, 0, 72, 0
6, 90180, Note_on_c, 0, 74, 76
6, 90209, Note_on_c, 0, 74, 0
6, 90210, Note_on_c, 0, 75, 76
6, 90239, Note_on_c, 0, 75, 0
6, 90240, Note_on_c, 0, 77, 76
6, 90704, Note_on_c, 0, 77, 0
6, 90720, Note_on_c, 0, 75, 76
6, 90824, Note_on_c, 0, 75, 0
6, 90840, Note_on_c, 0, 74, 76
6, 90944, Note_on_c, 0, 74, 0
6, 90960, Note_on_c, 0, 75, 76
6, 91064, Note_on_c, 0, 75, 0
6, 91080, Note_on_c, 0, 72, 76
6, 91184, Note_on_c, 0, 72, 0
6, 91200, Note_on_c, 0, 74, 76
6, 91664, Note_on_c, 0, 74, 0
6, 91680, Note_on_c, 0, 72, 76
6, 91784, Note_on_c, 0, 72, 0
6, 91800, Note_on_c, 0, 71, 76
6, 91904, Note_on_c, 0, 71, 0
6, 91920, Note_on_c, 0, 72, 76
6, 92639, Note_on_c, 0, 72, 0
6, 92880, Note_on_c, 0, 64, 76
6, 92984, Note_on_c, 0, 64, 0
6, 93000, Note_on_c, 0, 65, 76
6, 93104, Note_on_c, 0, 65, 0
6, 93120, Note_on_c, 0, 67, 76
6, 93344, Note_on_c, 0, 67, 0
6, 93360, Note_on_c, 0, 72, 76
6, 93824, Note_on_c, 0, 72, 0
6, 93840, Note_on_c, 0, 67, 76
6, 94064, Note_on_c, 0, 67, 0
6, 94080, Note_on_c, 0, 64, 76
6, 94184, Note_on_c, 0, 64, 0
6, 94200, Note_on_c, 0, 62, 76
6, 94304, Note_on_c, 0, 62, 0
6, 94320, Note_on_c, 0, 64, 76
6, 94424, Note_on_c, 0, 64, 0
6, 94440, Note_on_c, 0, 65, 76
6, 94544, Note_on_c, 0, 65, 0
6, 94560, Note_on_c, 0, 67, 76
6, 94784, Note_on_c, 0, 67, 0
6, 94800, Note_on_c, 0, 69, 76
6, 94904, Note_on_c, 0, 69, 0
6, 94920, Note_on_c, 0, 71, 76
6, 95024, Note_on_c, 0, 71, 0
6, 95040, Note_on_c, 0, 72, 76
6, 95144, Note_on_c, 0, 72, 0
6, 95160, Note_on_c, 0, 74, 76
6, 95264, Note_on_c, 0, 74, 0
6, 95280, Note_on_c, 0, 76, 76
6, 95384, Note_on_c, 0, 76, 0
6, 95400, Note_on_c, 0, 77, 76
6, 95504, Note_on_c, 0, 77, 0
6, 95520, Note_on_c, 0, 79, 76
6, 95744, Note_on_c, 0, 79, 0
6, 95760, Note_on_c, 0, 81, 76
6, 95984, Note_on_c, 0, 81, 0
6, 96000, Note_on_c, 0, 74, 76
6, 96104, Note_on_c, 0, 74, 0
6, 96120, Note_on_c, 0, 72, 76
6, 96224, Note_on_c, 0, 72, 0
6, 96240, Note_on_c, 0, 74, 76
6, 96344, Note_on_c, 0, 74, 0
6, 96360, Note_on_c, 0, 76, 76
6, 96464, Note_on_c, 0, 76, 0
6, 96480, Note_on_c, 0, 74, 76
6, 96704, Note_on_c, 0, 74, 0
6, 96720, Note_on_c, 0, 76, 76
6, 96824, Note_on_c, 0, 76, 0
6, 96840, Note_on_c, 0, 78, 76
6, 96944, Note_on_c, 0, 78, 0
6, 96960, Note_on_c, 0, 79, 76
6, 97184, Note_on_c, 0, 79, 0
6, 97200, Note_on_c, 0, 71, 76
6, 97304, Note_on_c, 0, 71, 0
6, 97320, Note_on_c, 0, 72, 76
6, 97424, Note_on_c, 0, 72, 0
6, 97440, Note_on_c, 0, 74, 76
6, 97664, Note_on_c, 0, 74, 0
6, 97680, Note_on_c, 0, 76, 76
6, 97784, Note_on_c, 0, 76, 0
6, 97800, Note_on_c, 0, 78, 76
6, 97904, Note_on_c, 0, 78, 0
6, 97920, Note_on_c, 0, 79, 76
6, 98144, Note_on_c, 0, 79, 0
6, 98160, Note_on_c, 0, 69, 76
6, 98264, Note_on_c, 0, 69, 0
6, 98280, Note_on_c, 0, 71, 76
6, 98384, Note_on_c, 0, 71, 0
6, 98400, Note_on_c, 0, 72, 76
6, 98624, Note_on_c, 0, 72, 0
6, 98640, Note_on_c, 0, 74, 76
6, 98864, Note_on_c, 0, 74, 0
6, 98880, Note_on_c, 0, 71, 76
6, 99224, Note_on_c, 0, 71, 0
6, 99240, Note_on_c, 0, 69, 76
6, 99344, Note_on_c, 0, 69, 0
6, 99360, Note_on_c, 0, 69, 76
6, 99704, Note_on_c, 0, 69, 0
6, 99720, Note_on_c, 0, 67, 76
6, 99824, Note_on_c, 0, 67, 0
6, 99840, Note_on_c, 0, 67, 76
6, 100544, Note_on_c, 0, 67, 0
6, 100560, Note_on_c, 0, 64, 76
6, 100664, Note_on_c, 0, 64, 0
6, 100680, Note_on_c, 0, 65, 76
6, 100784, Note_on_c, 0, 65, 0
6, 100800, Note_on_c, 0, 67, 76
6, 101024, Note_on_c, 0, 67, 0
6, 101040, Note_on_c, 0, 72, 76
6, 101504, Note_on_c, 0, 72, 0
6, 101520, Note_on_c, 0, 67, 76
6, 101744, Note_on_c, 0, 67, 0
6, 101760, Note_on_c, 0, 64, 76
6, 101864, Note_on_c, 0, 64, 0
6, 101880, Note_on_c, 0, 62, 76
6, 101984, Note_on_c, 0, 62, 0
6, 102000, Note_on_c, 0, 64, 76
6, 102104, Note_on_c, 0, 64, 0
6, 102120, Note_on_c, 0, 65, 76
6, 102224, Note_on_c, 0, 65, 0
6, 102240, Note_on_c, 0, 67, 76
6, 102464, Note_on_c, 0, 67, 0
6, 102480, Note_on_c, 0, 69, 76
6, 102584, Note_on_c, 0, 69, 0
6, 102600, Note_on_c, 0, 71, 76
6, 102704, Note_on_c, 0, 71, 0
6, 102720, Note_on_c, 0, 72, 76
6, 102824, Note_on_c, 0, 72, 0
6, 102840, Note_on_c, 0, 74, 76
6, 102944, Note_on_c, 0, 74, 0
6, 102960, Note_on_c, 0, 76, 76
6, 103064, Note_on_c, 0, 76, 0
6, 103080, Note_on_c, 0, 77, 76
6, 103184, Note_on_c, 0, 77, 0
6, 103200, Note_on_c, 0, 79, 76
6, 103424, Note_on_c, 0, 79, 0
6, 103440, Note_on_c, 0, 81, 76
6, 103664, Note_on_c, 0, 81, 0
6, 103680, Note_on_c, 0, 74, 76
6, 103784, Note_on_c, 0, 74, 0
6, 103800, Note_on_c, 0, 72, 76
6, 103904, Note_on_c, 0, 72, 0
6, 103920, Note_on_c, 0, 74, 76
6, 104024, Note_on_c, 0, 74, 0
6, 104040, Note_on_c, 0, 76, 76
6, 104144, Note_on_c, 0, 76, 0
6, 104160, Note_on_c, 0, 74, 76
6, 104384, Note_on_c, 0, 74, 0
6, 104400, Note_on_c, 0, 76, 76
6, 104504, Note_on_c, 0, 76, 0
6, 104520, Note_on_c, 0, 78, 76
6, 104624, Note_on_c, 0, 78, 0
6, 104640, Note_on_c, 0, 79, 76
6, 104864, Note_on_c, 0, 79, 0
6, 104880, Note_on_c, 0, 71, 76
6, 104984, Note_on_c, 0, 71, 0
6, 105000, Note_on_c, 0, 72, 76
6, 105104, Note_on_c, 0, 72, 0
6, 105120, Note_on_c, 0, 74, 76
6, 105344, Note_on_c, 0, 74, 0
6, 105360, Note_on_c, 0, 76, 76
6, 105464, Note_on_c, 0, 76, 0
6, 105480, Note_on_c, 0, 78, 76
6, 105584, Note_on_c, 0, 78, 0
6, 105600, Note_on_c, 0, 79, 76
6, 105824, Note_on_c, 0, 79, 0
6, 105840, Note_on_c, 0, 69, 76
6, 105944, Note_on_c, 0, 69, 0
6, 105960, Note_on_c, 0, 71, 76
6, 106064, Note_on_c, 0, 71, 0
6, 106080, Note_on_c, 0, 72, 76
6, 106304, Note_on_c, 0, 72, 0
6, 106320, Note_on_c, 0, 74, 76
6, 106544, Note_on_c, 0, 74, 0
6, 106560, Note_on_c, 0, 71, 76
6, 106904, Note_on_c, 0, 71, 0
6, 106920, Note_on_c, 0, 69, 76
6, 107024, Note_on_c, 0, 69, 0
6, 107040, Note_on_c, 0, 69, 76
6, 107384, Note_on_c, 0, 69, 0
6, 107400, Note_on_c, 0, 67, 76
6, 107504, Note_on_c, 0, 67, 0
6, 107520, Note_on_c, 0, 67, 76
6, 108224, Note_on_c, 0, 67, 0
6, 108240, Note_on_c, 0, 71, 76
6, 108344, Note_on_c, 0, 71, 0
6, 108360, Note_on_c, 0, 72, 76
6, 108464, Note_on_c, 0, 72, 0
6, 108480, Note_on_c, 0, 74, 76
6, 108704, Note_on_c, 0, 74, 0
6, 108720, Note_on_c, 0, 79, 76
6, 109184, Note_on_c, 0, 79, 0
6, 109200, Note_on_c, 0, 82, 76
6, 109424, Note_on_c, 0, 82, 0
6, 109440, Note_on_c, 0, 73, 76
6, 109544, Note_on_c, 0, 73, 0
6, 109560, Note_on_c, 0, 71, 76
6, 109664, Note_on_c, 0, 71, 0
6, 109680, Note_on_c, 0, 73, 76
6, 109784, Note_on_c, 0, 73, 0
6, 109800, Note_on_c, 0, 74, 76
6, 109904, Note_on_c, 0, 74, 0
6, 109920, Note_on_c, 0, 76, 76
6, 110144, Note_on_c, 0, 76, 0
6, 110160, Note_on_c, 0, 77, 76
6, 110264, Note_on_c, 0, 77, 0
6, 110280, Note_on_c, 0, 79, 76
6, 110384, Note_on_c, 0, 79, 0
6, 110400, Note_on_c, 0, 81, 76
6, 110504, Note_on_c, 0, 81, 0
6, 110520, Note_on_c, 0, 79, 76
6, 110624, Note_on_c, 0, 79, 0
6, 110640, Note_on_c, 0, 81, 76
6, 110744, Note_on_c, 0, 81, 0
6, 110760, Note_on_c, 0, 82, 76
6, 110864, Note_on_c, 0, 82, 0
6, 110880, Note_on_c, 0, 81, 76
6, 110984, Note_on_c, 0, 81, 0
6, 111000, Note_on_c, 0, 79, 76
6, 111104, Note_on_c, 0, 79, 0
6, 111120, Note_on_c, 0, 77, 76
6, 111224, Note_on_c, 0, 77, 0
6, 111240, Note_on_c, 0, 76, 76
6, 111344, Note_on_c, 0, 76, 0
6, 111360, Note_on_c, 0, 77, 76
6, 111464, Note_on_c, 0, 77, 0
6, 111480, Note_on_c, 0, 79, 76
6, 111584, Note_on_c, 0, 79, 0
6, 111600, Note_on_c, 0, 77, 76
6, 111704, Note_on_c, 0, 77, 0
6, 111720, Note_on_c, 0, 76, 76
6, 111824, Note_on_c, 0, 76, 0
6, 111840, Note_on_c, 0, 74, 76
6, 112064, Note_on_c, 0, 74, 0
6, 112080, Note_on_c, 0, 83, 76
6, 112184, Note_on_c, 0, 83, 0
6, 112200, Note_on_c, 0, 84, 76
6, 112304, Note_on_c, 0, 84, 0
6, 112320, Note_on_c, 0, 86, 76
6, 112544, Note_on_c, 0, 86, 0
6, 112560, Note_on_c, 0, 80, 76
6, 112664, Note_on_c, 0, 80, 0
6, 112680, Note_on_c, 0, 81, 76
6, 112784, Note_on_c, 0, 81, 0
6, 112800, Note_on_c, 0, 83, 76
6, 113024, Note_on_c, 0, 83, 0
6, 113040, Note_on_c, 0, 74, 76
6, 113144, Note_on_c, 0, 74, 0
6, 113160, Note_on_c, 0, 76, 76
6, 113264, Note_on_c, 0, 76, 0
6, 113280, Note_on_c, 0, 77, 76
6, 113504, Note_on_c, 0, 77, 0
6, 113520, Note_on_c, 0, 71, 76
6, 113624, Note_on_c, 0, 71, 0
6, 113640, Note_on_c, 0, 72, 76
6, 113744, Note_on_c, 0, 72, 0
6, 113760, Note_on_c, 0, 74, 76
6, 113984, Note_on_c, 0, 74, 0
6, 114000, Note_on_c, 0, 68, 76
6, 114224, Note_on_c, 0, 68, 0
6, 114240, Note_on_c, 0, 69, 76
6, 114584, Note_on_c, 0, 69, 0
6, 114600, Note_on_c, 0, 71, 76
6, 114704, Note_on_c, 0, 71, 0
6, 114720, Note_on_c, 0, 71, 76
6, 115064, Note_on_c, 0, 71, 0
6, 115080, Note_on_c, 0, 69, 76
6, 115184, Note_on_c, 0, 69, 0
6, 115200, Note_on_c, 0, 69, 76
6, 115904, Note_on_c, 0, 69, 0
6, 115920, Note_on_c, 0, 76, 76
6, 116024, Note_on_c, 0, 76, 0
6, 116040, Note_on_c, 0, 77, 76
6, 116144, Note_on_c, 0, 77, 0
6, 116160, Note_on_c, 0, 79, 76
6, 116384, Note_on_c, 0, 79, 0
6, 116400, Note_on_c, 0, 84, 76
6, 116864, Note_on_c, 0, 84, 0
6, 116880, Note_on_c, 0, 79, 76
6, 117104, Note_on_c, 0, 79, 0
6, 117120, Note_on_c, 0, 76, 76
6, 117224, Note_on_c, 0, 76, 0
6, 117240, Note_on_c, 0, 74, 76
6, 117344, Note_on_c, 0, 74, 0
6, 117360, Note_on_c, 0, 76, 76
6, 117464, Note_on_c, 0, 76, 0
6, 117480, Note_on_c, 0, 77, 76
6, 117584, Note_on_c, 0, 77, 0
6, 117600, Note_on_c, 0, 79, 76
6, 117824, Note_on_c, 0, 79, 0
6, 117840, Note_on_c, 0, 70, 76
6, 118064, Note_on_c, 0, 70, 0
6, 118080, Note_on_c, 0, 69, 76
6, 118304, Note_on_c, 0, 69, 0
6, 118320, Note_on_c, 0, 74, 76
6, 118424, Note_on_c, 0, 74, 0
6, 118440, Note_on_c, 0, 72, 76
6, 118544, Note_on_c, 0, 72, 0
6, 118560, Note_on_c, 0, 70, 76
6, 118664, Note_on_c, 0, 70, 0
6, 118680, Note_on_c, 0, 69, 76
6, 118784, Note_on_c, 0, 69, 0
6, 118800, Note_on_c, 0, 70, 76
6, 118904, Note_on_c, 0, 70, 0
6, 118920, Note_on_c, 0, 67, 76
6, 119024, Note_on_c, 0, 67, 0
6, 119040, Note_on_c, 0, 69, 76
6, 119144, Note_on_c, 0, 69, 0
6, 119160, Note_on_c, 0, 70, 76
6, 119264, Note_on_c, 0, 70, 0
6, 119280, Note_on_c, 0, 69, 76
6, 119384, Note_on_c, 0, 69, 0
6, 119400, Note_on_c, 0, 67, 76
6, 119504, Note_on_c, 0, 67, 0
6, 119520, Note_on_c, 0, 65, 76
6, 119744, Note_on_c, 0, 65, 0
6, 119760, Note_on_c, 0, 77, 76
6, 119864, Note_on_c, 0, 77, 0
6, 119880, Note_on_c, 0, 79, 76
6, 119984, Note_on_c, 0, 79, 0
6, 120000, Note_on_c, 0, 81, 76
6, 120224, Note_on_c, 0, 81, 0
6, 120240, Note_on_c, 0, 74, 76
6, 120344, Note_on_c, 0, 74, 0
6, 120360, Note_on_c, 0, 76, 76
6, 120464, Note_on_c, 0, 76, 0
6, 120480, Note_on_c, 0, 77, 76
6, 120704, Note_on_c, 0, 77, 0
6, 120720, Note_on_c, 0, 71, 76
6, 120824, Note_on_c, 0, 71, 0
6, 120840, Note_on_c, 0, 72, 76
6, 120944, Note_on_c, 0, 72, 0
6, 120960, Note_on_c, 0, 74, 76
6, 121184, Note_on_c, 0, 74, 0
6, 121200, Note_on_c, 0, 67, 76
6, 121424, Note_on_c, 0, 67, 0
6, 121440, Note_on_c, 0, 79, 76
6, 121664, Note_on_c, 0, 79, 0
6, 121680, Note_on_c, 0, 71, 76
6, 121904, Note_on_c, 0, 71, 0
6, 121920, Note_on_c, 0, 72, 76
6, 122264, Note_on_c, 0, 72, 0
6, 122280, Note_on_c, 0, 74, 76
6, 122384, Note_on_c, 0, 74, 0
6, 122400, Note_on_c, 0, 74, 76
6, 122744, Note_on_c, 0, 74, 0
6, 122760, Note_on_c, 0, 72, 76
6, 122864, Note_on_c, 0, 72, 0
6, 122880, Note_on_c, 0, 72, 76
6, 123584, Note_on_c, 0, 72, 0
6, 123600, Note_on_c, 0, 71, 76
6, 123704, Note_on_c, 0, 71, 0
6, 123720, Note_on_c, 0, 72, 76
6, 123824, Note_on_c, 0, 72, 0
6, 123840, Note_on_c, 0, 74, 76
6, 124064, Note_on_c, 0, 74, 0
6, 124080, Note_on_c, 0, 79, 76
6, 124544, Note_on_c, 0, 79, 0
6, 124560, Note_on_c, 0, 82, 76
6, 124784, Note_on_c, 0, 82, 0
6, 124800, Note_on_c, 0, 73, 76
6, 124904, Note_on_c, 0, 73, 0
6, 124920, Note_on_c, 0, 71, 76
6, 125024, Note_on_c, 0, 71, 0
6, 125040, Note_on_c, 0, 73, 76
6, 125144, Note_on_c, 0, 73, 0
6, 125160, Note_on_c, 0, 74, 76
6, 125264, Note_on_c, 0, 74, 0
6, 125280, Note_on_c, 0, 76, 76
6, 125504, Note_on_c, 0, 76, 0
6, 125520, Note_on_c, 0, 77, 76
6, 125624, Note_on_c, 0, 77, 0
6, 125640, Note_on_c, 0, 79, 76
6, 125744, Note_on_c, 0, 79, 0
6, 125760, Note_on_c, 0, 81, 76
6, 125864, Note_on_c, 0, 81, 0
6, 125880, Note_on_c, 0, 79, 76
6, 125984, Note_on_c, 0, 79, 0
6, 126000, Note_on_c, 0, 81, 76
6, 126104, Note_on_c, 0, 81, 0
6, 126120, Note_on_c, 0, 82, 76
6, 126224, Note_on_c, 0, 82, 0
6, 126240, Note_on_c, 0, 81, 76
6, 126344, Note_on_c, 0, 81, 0
6, 126360, Note_on_c, 0, 79, 76
6, 126464, Note_on_c, 0, 79, 0
6, 126480, Note_on_c, 0, 77, 76
6, 126584, Note_on_c, 0, 77, 0
6, 126600, Note_on_c, 0, 76, 76
6, 126704, Note_on_c, 0, 76, 0
6, 126720, Note_on_c, 0, 77, 76
6, 126824, Note_on_c, 0, 77, 0
6, 126840, Note_on_c, 0, 79, 76
6, 126944, Note_on_c, 0, 79, 0
6, 126960, Note_on_c, 0, 77, 76
6, 127064, Note_on_c, 0, 77, 0
6, 127080, Note_on_c, 0, 76, 76
6, 127184, Note_on_c, 0, 76, 0
6, 127200, Note_on_c, 0, 74, 76
6, 127424, Note_on_c, 0, 74, 0
6, 127440, Note_on_c, 0, 83, 76
6, 127544, Note_on_c, 0, 83, 0
6, 127560, Note_on_c, 0, 84, 76
6, 127664, Note_on_c, 0, 84, 0
6, 127680, Note_on_c, 0, 86, 76
6, 127904, Note_on_c, 0, 86, 0
6, 127920, Note_on_c, 0, 80, 76
6, 128024, Note_on_c, 0, 80, 0
6, 128040, Note_on_c, 0, 81, 76
6, 128144, Note_on_c, 0, 81, 0
6, 128160, Note_on_c, 0, 83, 76
6, 128384, Note_on_c, 0, 83, 0
6, 128400, Note_on_c, 0, 74, 76
6, 128504, Note_on_c, 0, 74, 0
6, 128520, Note_on_c, 0, 76, 76
6, 128624, Note_on_c, 0, 76, 0
6, 128640, Note_on_c, 0, 77, 76
6, 128864, Note_on_c, 0, 77, 0
6, 128880, Note_on_c, 0, 71, 76
6, 128984, Note_on_c, 0, 71, 0
6, 129000, Note_on_c, 0, 72, 76
6, 129104, Note_on_c, 0, 72, 0
6, 129120, Note_on_c, 0, 74, 76
6, 129344, Note_on_c, 0, 74, 0
6, 129360, Note_on_c, 0, 68, 76
6, 129584, Note_on_c, 0, 68, 0
6, 129600, Note_on_c, 0, 69, 76
6, 129944, Note_on_c, 0, 69, 0
6, 129960, Note_on_c, 0, 71, 76
6, 130064, Note_on_c, 0, 71, 0
6, 130080, Note_on_c, 0, 71, 76
6, 130424, Note_on_c, 0, 71, 0
6, 130440, Note_on_c, 0, 69, 76
6, 130544, Note_on_c, 0, 69, 0
6, 130560, Note_on_c, 0, 69, 76
6, 131264, Note_on_c, 0, 69, 0
6, 131280, Note_on_c, 0, 76, 76
6, 131384, Note_on_c, 0, 76, 0
6, 131400, Note_on_c, 0, 77, 76
6, 131504, Note_on_c, 0, 77, 0
6, 131520, Note_on_c, 0, 79, 76
6, 131744, Note_on_c, 0, 79, 0
6, 131760, Note_on_c, 0, 84, 76
6, 132224, Note_on_c, 0, 84, 0
6, 132240, Note_on_c, 0, 79, 76
6, 132464, Note_on_c, 0, 79, 0
6, 132480, Note_on_c, 0, 76, 76
6, 132584, Note_on_c, 0, 76, 0
6, 132600, Note_on_c, 0, 74, 76
6, 132704, Note_on_c, 0, 74, 0
6, 132720, Note_on_c, 0, 76, 76
6, 132824, Note_on_c, 0, 76, 0
6, 132840, Note_on_c, 0, 77, 76
6, 132944, Note_on_c, 0, 77, 0
6, 132960, Note_on_c, 0, 79, 76
6, 133184, Note_on_c, 0, 79, 0
6, 133200, Note_on_c, 0, 70, 76
6, 133424, Note_on_c, 0, 70, 0
6, 133440, Note_on_c, 0, 69, 76
6, 133664, Note_on_c, 0, 69, 0
6, 133680, Note_on_c, 0, 74, 76
6, 133784, Note_on_c, 0, 74, 0
6, 133800, Note_on_c, 0, 72, 76
6, 133904, Note_on_c, 0, 72, 0
6, 133920, Note_on_c, 0, 70, 76
6, 134024, Note_on_c, 0, 70, 0
6, 134040, Note_on_c, 0, 69, 76
6, 134144, Note_on_c, 0, 69, 0
6, 134160, Note_on_c, 0, 70, 76
6, 134264, Note_on_c, 0, 70, 0
6, 134280, Note_on_c, 0, 67, 76
6, 134384, Note_on_c, 0, 67, 0
6, 134400, Note_on_c, 0, 69, 76
6, 134504, Note_on_c, 0, 69, 0
6, 134520, Note_on_c, 0, 70, 76
6, 134624, Note_on_c, 0, 70, 0
6, 134640, Note_on_c, 0, 69, 76
6, 134744, Note_on_c, 0, 69, 0
6, 134760, Note_on_c, 0, 67, 76
6, 134864, Note_on_c, 0, 67, 0
6, 134880, Note_on_c, 0, 65, 76
6, 135104, Note_on_c, 0, 65, 0
6, 135120, Note_on_c, 0, 77, 76
6, 135224, Note_on_c, 0, 77, 0
6, 135240, Note_on_c, 0, 79, 76
6, 135344, Note_on_c, 0, 79, 0
6, 135360, Note_on_c, 0, 81, 76
6, 135584, Note_on_c, 0, 81, 0
6, 135600, Note_on_c, 0, 74, 76
6, 135704, Note_on_c, 0, 74, 0
6, 135720, Note_on_c, 0, 76, 76
6, 135824, Note_on_c, 0, 76, 0
6, 135840, Note_on_c, 0, 77, 76
6, 136064, Note_on_c, 0, 77, 0
6, 136080, Note_on_c, 0, 71, 76
6, 136184, Note_on_c, 0, 71, 0
6, 136200, Note_on_c, 0, 72, 76
6, 136304, Note_on_c, 0, 72, 0
6, 136320, Note_on_c, 0, 74, 76
6, 136544, Note_on_c, 0, 74, 0
6, 136560, Note_on_c, 0, 67, 76
6, 136784, Note_on_c, 0, 67, 0
6, 136800, Note_on_c, 0, 79, 76
6, 137024, Note_on_c, 0, 79, 0
6, 137040, Note_on_c, 0, 71, 76
6, 137264, Note_on_c, 0, 71, 0
6, 137280, Note_on_c, 0, 72, 76
6, 137624, Note_on_c, 0, 72, 0
6, 137640, Note_on_c, 0, 74, 76
6, 137744, Note_on_c, 0, 74, 0
6, 137760, Note_on_c, 0, 74, 76
6, 138104, Note_on_c, 0, 74, 0
6, 138120, Note_on_c, 0, 72, 76
6, 138224, Note_on_c, 0, 72, 0
6, 138240, Note_on_c, 0, 72, 76
6, 138959, Note_on_c, 0, 72, 0
6, 138959, End_track
7, 0, Start_track
7, 0, Title_t, "Oboe II"
7, 0, MIDI_port, 0
7, 0, Program_c, 1, 68
7, 0, Control_c, 1, 10, 65
7, 0, Control_c, 1, 11, 127
7, 0, Control_c, 1, 7, 80
7, 240, Note_on_c, 1, 64, 76
7, 344, Note_on_c, 1, 64, 0
7, 360, Note_on_c, 1, 65, 76
7, 464, Note_on_c, 1, 65, 0
7, 480, Note_on_c, 1, 67, 76
7, 704, Note_on_c, 1, 67, 0
7, 720, Note_on_c, 1, 72, 76
7, 1184, Note_on_c, 1, 72, 0
7, 1200, Note_on_c, 1, 67, 76
7, 1424, Note_on_c, 1, 67, 0
7, 1440, Note_on_c, 1, 64, 76
7, 1544, Note_on_c, 1, 64, 0
7, 1560, Note_on_c, 1, 62, 76
7, 1664, Note_on_c, 1, 62, 0
7, 1680, Note_on_c, 1, 64, 76
7, 1784, Note_on_c, 1, 64, 0
7, 1800, Note_on_c, 1, 65, 76
7, 1904, Note_on_c, 1, 65, 0
7, 1920, Note_on_c, 1, 67, 76
7, 2144, Note_on_c, 1, 67, 0
7, 2160, Note_on_c, 1, 69, 76
7, 2264, Note_on_c, 1, 69, 0
7, 2280, Note_on_c, 1, 71, 76
7, 2384, Note_on_c, 1, 71, 0
7, 2400, Note_on_c, 1, 72, 76
7, 2504, Note_on_c, 1, 72, 0
7, 2520, Note_on_c, 1, 74, 76
7, 2624, Note_on_c, 1, 74, 0
7, 2640, Note_on_c, 1, 76, 76
7, 2744, Note_on_c, 1, 76, 0
7, 2760, Note_on_c, 1, 77, 76
7, 2864, Note_on_c, 1, 77, 0
7, 2880, Note_on_c, 1, 79, 76
7, 3104, Note_on_c, 1, 79, 0
7, 3120, Note_on_c, 1, 81, 76
7, 3344, Note_on_c, 1, 81, 0
7, 3360, Note_on_c, 1, 74, 76
7, 3464, Note_on_c, 1, 74, 0
7, 3480, Note_on_c, 1, 72, 76
7, 3584, Note_on_c, 1, 72, 0
7, 3600, Note_on_c, 1, 74, 76
7, 3704, Note_on_c, 1, 74, 0
7, 3720, Note_on_c, 1, 76, 76
7, 3824, Note_on_c, 1, 76, 0
7, 3840, Note_on_c, 1, 74, 76
7, 4064, Note_on_c, 1, 74, 0
7, 4080, Note_on_c, 1, 76, 76
7, 4184, Note_on_c, 1, 76, 0
7, 4200, Note_on_c, 1, 78, 76
7, 4304, Note_on_c, 1, 78, 0
7, 4320, Note_on_c, 1, 79, 76
7, 4544, Note_on_c, 1, 79, 0
7, 4560, Note_on_c, 1, 71, 76
7, 4664, Note_on_c, 1, 71, 0
7, 4680, Note_on_c, 1, 72, 76
7, 4784, Note_on_c, 1, 72, 0
7, 4800, Note_on_c, 1, 74, 76
7, 5024, Note_on_c, 1, 74, 0
7, 5040, Note_on_c, 1, 76, 76
7, 5144, Note_on_c, 1, 76, 0
7, 5160, Note_on_c, 1, 78, 76
7, 5264, Note_on_c, 1, 78, 0
7, 5280, Note_on_c, 1, 79, 76
7, 5504, Note_on_c, 1, 79, 0
7, 5520, Note_on_c, 1, 69, 76
7, 5624, Note_on_c, 1, 69, 0
7, 5640, Note_on_c, 1, 71, 76
7, 5744, Note_on_c, 1, 71, 0
7, 5760, Note_on_c, 1, 72, 76
7, 5984, Note_on_c, 1, 72, 0
7, 6000, Note_on_c, 1, 74, 76
7, 6224, Note_on_c, 1, 74, 0
7, 6240, Note_on_c, 1, 71, 76
7, 6584, Note_on_c, 1, 71, 0
7, 6600, Note_on_c, 1, 69, 76
7, 6704, Note_on_c, 1, 69, 0
7, 6720, Note_on_c, 1, 69, 76
7, 7064, Note_on_c, 1, 69, 0
7, 7080, Note_on_c, 1, 67, 76
7, 7184, Note_on_c, 1, 67, 0
7, 7200, Note_on_c, 1, 67, 76
7, 7904, Note_on_c, 1, 67, 0
7, 7920, Note_on_c, 1, 64, 76
7, 8024, Note_on_c, 1, 64, 0
7, 8040, Note_on_c, 1, 65, 76
7, 8144, Note_on_c, 1, 65, 0
7, 8160, Note_on_c, 1, 67, 76
7, 8384, Note_on_c, 1, 67, 0
7, 8400, Note_on_c, 1, 72, 76
7, 8864, Note_on_c, 1, 72, 0
7, 8880, Note_on_c, 1, 67, 76
7, 9104, Note_on_c, 1, 67, 0
7, 9120, Note_on_c, 1, 64, 76
7, 9224, Note_on_c, 1, 64, 0
7, 9240, Note_on_c, 1, 62, 76
7, 9344, Note_on_c, 1, 62, 0
7, 9360, Note_on_c, 1, 64, 76
7, 9464, Note_on_c, 1, 64, 0
7, 9480, Note_on_c, 1, 65, 76
7, 9584, Note_on_c, 1, 65, 0
7, 9600, Note_on_c, 1, 67, 76
7, 9824, Note_on_c, 1, 67, 0
7, 9840, Note_on_c, 1, 69, 76
7, 9944, Note_on_c, 1, 69, 0
7, 9960, Note_on_c, 1, 71, 76
7, 10064, Note_on_c, 1, 71, 0
7, 10080, Note_on_c, 1, 72, 76
7, 10184, Note_on_c, 1, 72, 0
7, 10200, Note_on_c, 1, 74, 76
7, 10304, Note_on_c, 1, 74, 0
7, 10320, Note_on_c, 1, 76, 76
7, 10424, Note_on_c, 1, 76, 0
7, 10440, Note_on_c, 1, 77, 76
7, 10544, Note_on_c, 1, 77, 0
7, 10560, Note_on_c, 1, 79, 76
7, 10784, Note_on_c, 1, 79, 0
7, 10800, Note_on_c, 1, 81, 76
7, 11024, Note_on_c, 1, 81, 0
7, 11040, Note_on_c, 1, 74, 76
7, 11144, Note_on_c, 1, 74, 0
7, 11160, Note_on_c, 1, 72, 76
7, 11264, Note_on_c, 1, 72, 0
7, 11280, Note_on_c, 1, 74, 76
7, 11384, Note_on_c, 1, 74, 0
7, 11400, Note_on_c, 1, 76, 76
7, 11504, Note_on_c, 1, 76, 0
7, 11520, Note_on_c, 1, 74, 76
7, 11744, Note_on_c, 1, 74, 0
7, 11760, Note_on_c, 1, 76, 76
7, 11864, Note_on_c, 1, 76, 0
7, 11880, Note_on_c, 1, 78, 76
7, 11984, Note_on_c, 1, 78, 0
7, 12000, Note_on_c, 1, 79, 76
7, 12224, Note_on_c, 1, 79, 0
7, 12240, Note_on_c, 1, 71, 76
7, 12344, Note_on_c, 1, 71, 0
7, 12360, Note_on_c, 1, 72, 76
7, 12464, Note_on_c, 1, 72, 0
7, 12480, Note_on_c, 1, 74, 76
7, 12704, Note_on_c, 1, 74, 0
7, 12720, Note_on_c, 1, 76, 76
7, 12824, Note_on_c, 1, 76, 0
7, 12840, Note_on_c, 1, 78, 76
7, 12944, Note_on_c, 1, 78, 0
7, 12960, Note_on_c, 1, 79, 76
7, 13184, Note_on_c, 1, 79, 0
7, 13200, Note_on_c, 1, 69, 76
7, 13304, Note_on_c, 1, 69, 0
7, 13320, Note_on_c, 1, 71, 76
7, 13424, Note_on_c, 1, 71, 0
7, 13440, Note_on_c, 1, 72, 76
7, 13664, Note_on_c, 1, 72, 0
7, 13680, Note_on_c, 1, 74, 76
7, 13904, Note_on_c, 1, 74, 0
7, 13920, Note_on_c, 1, 71, 76
7, 14264, Note_on_c, 1, 71, 0
7, 14280, Note_on_c, 1, 69, 76
7, 14384, Note_on_c, 1, 69, 0
7, 14400, Note_on_c, 1, 69, 76
7, 14744, Note_on_c, 1, 69, 0
7, 14760, Note_on_c, 1, 67, 76
7, 14864, Note_on_c, 1, 67, 0
7, 14880, Note_on_c, 1, 67, 76
7, 15584, Note_on_c, 1, 67, 0
7, 15600, Note_on_c, 1, 71, 76
7, 15704, Note_on_c, 1, 71, 0
7, 15720, Note_on_c, 1, 72, 76
7, 15824, Note_on_c, 1, 72, 0
7, 15840, Note_on_c, 1, 74, 76
7, 16064, Note_on_c, 1, 74, 0
7, 16080, Note_on_c, 1, 79, 76
7, 16544, Note_on_c, 1, 79, 0
7, 16560, Note_on_c, 1, 82, 76
7, 16784, Note_on_c, 1, 82, 0
7, 16800, Note_on_c, 1, 73, 76
7, 16904, Note_on_c, 1, 73, 0
7, 16920, Note_on_c, 1, 71, 76
7, 17024, Note_on_c, 1, 71, 0
7, 17040, Note_on_c, 1, 73, 76
7, 17144, Note_on_c, 1, 73, 0
7, 17160, Note_on_c, 1, 74, 76
7, 17264, Note_on_c, 1, 74, 0
7, 17280, Note_on_c, 1, 76, 76
7, 17504, Note_on_c, 1, 76, 0
7, 17520, Note_on_c, 1, 77, 76
7, 17624, Note_on_c, 1, 77, 0
7, 17640, Note_on_c, 1, 79, 76
7, 17744, Note_on_c, 1, 79, 0
7, 17760, Note_on_c, 1, 81, 76
7, 17864, Note_on_c, 1, 81, 0
7, 17880, Note_on_c, 1, 79, 76
7, 17984, Note_on_c, 1, 79, 0
7, 18000, Note_on_c, 1, 81, 76
7, 18104, Note_on_c, 1, 81, 0
7, 18120, Note_on_c, 1, 82, 76
7, 18224, Note_on_c, 1, 82, 0
7, 18240, Note_on_c, 1, 81, 76
7, 18344, Note_on_c, 1, 81, 0
7, 18360, Note_on_c, 1, 79, 76
7, 18464, Note_on_c, 1, 79, 0
7, 18480, Note_on_c, 1, 77, 76
7, 18584, Note_on_c, 1, 77, 0
7, 18600, Note_on_c, 1, 76, 76
7, 18704, Note_on_c, 1, 76, 0
7, 18720, Note_on_c, 1, 77, 76
7, 18824, Note_on_c, 1, 77, 0
7, 18840, Note_on_c, 1, 79, 76
7, 18944, Note_on_c, 1, 79, 0
7, 18960, Note_on_c, 1, 77, 76
7, 19064, Note_on_c, 1, 77, 0
7, 19080, Note_on_c, 1, 76, 76
7, 19184, Note_on_c, 1, 76, 0
7, 19200, Note_on_c, 1, 74, 76
7, 19424, Note_on_c, 1, 74, 0
7, 19440, Note_on_c, 1, 83, 76
7, 19544, Note_on_c, 1, 83, 0
7, 19560, Note_on_c, 1, 84, 76
7, 19664, Note_on_c, 1, 84, 0
7, 19680, Note_on_c, 1, 86, 76
7, 19904, Note_on_c, 1, 86, 0
7, 19920, Note_on_c, 1, 80, 76
7, 20024, Note_on_c, 1, 80, 0
7, 20040, Note_on_c, 1, 81, 76
7, 20144, Note_on_c, 1, 81, 0
7, 20160, Note_on_c, 1, 83, 76
7, 20384, Note_on_c, 1, 83, 0
7, 20400, Note_on_c, 1, 74, 76
7, 20504, Note_on_c, 1, 74, 0
7, 20520, Note_on_c, 1, 76, 76
7, 20624, Note_on_c, 1, 76, 0
7, 20640, Note_on_c, 1, 77, 76
7, 20864, Note_on_c, 1, 77, 0
7, 20880, Note_on_c, 1, 71, 76
7, 20984, Note_on_c, 1, 71, 0
7, 21000, Note_on_c, 1, 72, 76
7, 21104, Note_on_c, 1, 72, 0
7, 21120, Note_on_c, 1, 74, 76
7, 21344, Note_on_c, 1, 74, 0
7, 21360, Note_on_c, 1, 68, 76
7, 21584, Note_on_c, 1, 68, 0
7, 21600, Note_on_c, 1, 69, 76
7, 21944, Note_on_c, 1, 69, 0
7, 21960, Note_on_c, 1, 71, 76
7, 22064, Note_on_c, 1, 71, 0
7, 22080, Note_on_c, 1, 71, 76
7, 22424, Note_on_c, 1, 71, 0
7, 22440, Note_on_c, 1, 69, 76
7, 22544, Note_on_c, 1, 69, 0
7, 22560, Note_on_c, 1, 69, 76
7, 23264, Note_on_c, 1, 69, 0
7, 23280, Note_on_c, 1, 76, 76
7, 23384, Note_on_c, 1, 76, 0
7, 23400, Note_on_c, 1, 77, 76
7, 23504, Note_on_c, 1, 77, 0
7, 23520, Note_on_c, 1, 79, 76
7, 23744, Note_on_c, 1, 79, 0
7, 23760, Note_on_c, 1, 84, 76
7, 24224, Note_on_c, 1, 84, 0
7, 24240, Note_on_c, 1, 79, 76
7, 24464, Note_on_c, 1, 79, 0
7, 24480, Note_on_c, 1, 76, 76
7, 24584, Note_on_c, 1, 76, 0
7, 24600, Note_on_c, 1, 74, 76
7, 24704, Note_on_c, 1, 74, 0
7, 24720, Note_on_c, 1, 76, 76
7, 24824, Note_on_c, 1, 76, 0
7, 24840, Note_on_c, 1, 77, 76
7, 24944, Note_on_c, 1, 77, 0
7, 24960, Note_on_c, 1, 79, 76
7, 25184, Note_on_c, 1, 79, 0
7, 25200, Note_on_c, 1, 70, 76
7, 25424, Note_on_c, 1, 70, 0
7, 25440, Note_on_c, 1, 69, 76
7, 25664, Note_on_c, 1, 69, 0
7, 25680, Note_on_c, 1, 74, 76
7, 25784, Note_on_c, 1, 74, 0
7, 25800, Note_on_c, 1, 72, 76
7, 25904, Note_on_c, 1, 72, 0
7, 25920, Note_on_c, 1, 70, 76
7, 26024, Note_on_c, 1, 70, 0
7, 26040, Note_on_c, 1, 69, 76
7, 26144, Note_on_c, 1, 69, 0
7, 26160, Note_on_c, 1, 70, 76
7, 26264, Note_on_c, 1, 70, 0
7, 26280, Note_on_c, 1, 67, 76
7, 26384, Note_on_c, 1, 67, 0
7, 26400, Note_on_c, 1, 69, 76
7, 26504, Note_on_c, 1, 69, 0
7, 26520, Note_on_c, 1, 70, 76
7, 26624, Note_on_c, 1, 70, 0
7, 26640, Note_on_c, 1, 69, 76
7, 26744, Note_on_c, 1, 69, 0
7, 26760, Note_on_c, 1, 67, 76
7, 26864, Note_on_c, 1, 67, 0
7, 26880, Note_on_c, 1, 65, 76
7, 27104, Note_on_c, 1, 65, 0
7, 27120, Note_on_c, 1, 77, 76
7, 27224, Note_on_c, 1, 77, 0
7, 27240, Note_on_c, 1, 79, 76
7, 27344, Note_on_c, 1, 79, 0
7, 27360, Note_on_c, 1, 81, 76
7, 27584, Note_on_c, 1, 81, 0
7, 27600, Note_on_c, 1, 74, 76
7, 27704, Note_on_c, 1, 74, 0
7, 27720, Note_on_c, 1, 76, 76
7, 27824, Note_on_c, 1, 76, 0
7, 27840, Note_on_c, 1, 77, 76
7, 28064, Note_on_c, 1, 77, 0
7, 28080, Note_on_c, 1, 71, 76
7, 28184, Note_on_c, 1, 71, 0
7, 28200, Note_on_c, 1, 72, 76
7, 28304, Note_on_c, 1, 72, 0
7, 28320, Note_on_c, 1, 74, 76
7, 28544, Note_on_c, 1, 74, 0
7, 28560, Note_on_c, 1, 67, 76
7, 28784, Note_on_c, 1, 67, 0
7, 28800, Note_on_c, 1, 79, 76
7, 29024, Note_on_c, 1, 79, 0
7, 29040, Note_on_c, 1, 71, 76
7, 29264, Note_on_c, 1, 71, 0
7, 29280, Note_on_c, 1, 72, 76
7, 29624, Note_on_c, 1, 72, 0
7, 29640, Note_on_c, 1, 74, 76
7, 29744, Note_on_c, 1, 74, 0
7, 29760, Note_on_c, 1, 74, 76
7, 30104, Note_on_c, 1, 74, 0
7, 30120, Note_on_c, 1, 72, 76
7, 30224, Note_on_c, 1, 72, 0
7, 30240, Note_on_c, 1, 72, 76
7, 30944, Note_on_c, 1, 72, 0
7, 30960, Note_on_c, 1, 71, 76
7, 31064, Note_on_c, 1, 71, 0
7, 31080, Note_on_c, 1, 72, 76
7, 31184, Note_on_c, 1, 72, 0
7, 31200, Note_on_c, 1, 74, 76
7, 31424, Note_on_c, 1, 74, 0
7, 31440, Note_on_c, 1, 79, 76
7, 31904, Note_on_c, 1, 79, 0
7, 31920, Note_on_c, 1, 82, 76
7, 32144, Note_on_c, 1, 82, 0
7, 32160, Note_on_c, 1, 73, 76
7, 32264, Note_on_c, 1, 73, 0
7, 32280, Note_on_c, 1, 71, 76
7, 32384, Note_on_c, 1, 71, 0
7, 32400, Note_on_c, 1, 73, 76
7, 32504, Note_on_c, 1, 73, 0
7, 32520, Note_on_c, 1, 74, 76
7, 32624, Note_on_c, 1, 74, 0
7, 32640, Note_on_c, 1, 76, 76
7, 32864, Note_on_c, 1, 76, 0
7, 32880, Note_on_c, 1, 77, 76
7, 32984, Note_on_c, 1, 77, 0
7, 33000, Note_on_c, 1, 79, 76
7, 33104, Note_on_c, 1, 79, 0
7, 33120, Note_on_c, 1, 81, 76
7, 33224, Note_on_c, 1, 81, 0
7, 33240, Note_on_c, 1, 79, 76
7, 33344, Note_on_c, 1, 79, 0
7, 33360, Note_on_c, 1, 81, 76
7, 33464, Note_on_c, 1, 81, 0
7, 33480, Note_on_c, 1, 82, 76
7, 33584, Note_on_c, 1, 82, 0
7, 33600, Note_on_c, 1, 81, 76
7, 33704, Note_on_c, 1, 81, 0
7, 33720, Note_on_c, 1, 79, 76
7, 33824, Note_on_c, 1, 79, 0
7, 33840, Note_on_c, 1, 77, 76
7, 33944, Note_on_c, 1, 77, 0
7, 33960, Note_on_c, 1, 76, 76
7, 34064, Note_on_c, 1, 76, 0
7, 34080, Note_on_c, 1, 77, 76
7, 34184, Note_on_c, 1, 77, 0
7, 34200, Note_on_c, 1, 79, 76
7, 34304, Note_on_c, 1, 79, 0
7, 34320, Note_on_c, 1, 77, 76
7, 34424, Note_on_c, 1, 77, 0
7, 34440, Note_on_c, 1, 76, 76
7, 34544, Note_on_c, 1, 76, 0
7, 34560, Note_on_c, 1, 74, 76
7, 34784, Note_on_c, 1, 74, 0
7, 34800, Note_on_c, 1, 83, 76
7, 34904, Note_on_c, 1, 83, 0
7, 34920, Note_on_c, 1, 84, 76
7, 35024, Note_on_c, 1, 84, 0
7, 35040, Note_on_c, 1, 86, 76
7, 35264, Note_on_c, 1, 86, 0
7, 35280, Note_on_c, 1, 80, 76
7, 35384, Note_on_c, 1, 80, 0
7, 35400, Note_on_c, 1, 81, 76
7, 35504, Note_on_c, 1, 81, 0
7, 35520, Note_on_c, 1, 83, 76
7, 35744, Note_on_c, 1, 83, 0
7, 35760, Note_on_c, 1, 74, 76
7, 35864, Note_on_c, 1, 74, 0
7, 35880, Note_on_c, 1, 76, 76
7, 35984, Note_on_c, 1, 76, 0
7, 36000, Note_on_c, 1, 77, 76
7, 36224, Note_on_c, 1, 77, 0
7, 36240, Note_on_c, 1, 71, 76
7, 36344, Note_on_c, 1, 71, 0
7, 36360, Note_on_c, 1, 72, 76
7, 36464, Note_on_c, 1, 72, 0
7, 36480, Note_on_c, 1, 74, 76
7, 36704, Note_on_c, 1, 74, 0
7, 36720, Note_on_c, 1, 68, 76
7, 36944, Note_on_c, 1, 68, 0
7, 36960, Note_on_c, 1, 69, 76
7, 37304, Note_on_c, 1, 69, 0
7, 37320, Note_on_c, 1, 71, 76
7, 37424, Note_on_c, 1, 71, 0
7, 37440, Note_on_c, 1, 71, 76
7, 37784, Note_on_c, 1, 71, 0
7, 37800, Note_on_c, 1, 69, 76
7, 37904, Note_on_c, 1, 69, 0
7, 37920, Note_on_c, 1, 69, 76
7, 38624, Note_on_c, 1, 69, 0
7, 38640, Note_on_c, 1, 76, 76
7, 38744, Note_on_c, 1, 76, 0
7, 38760, Note_on_c, 1, 77, 76
7, 38864, Note_on_c, 1, 77, 0
7, 38880, Note_on_c, 1, 79, 76
7, 39104, Note_on_c, 1, 79, 0
7, 39120, Note_on_c, 1, 84, 76
7, 39584, Note_on_c, 1, 84, 0
7, 39600, Note_on_c, 1, 79, 76
7, 39824, Note_on_c, 1, 79, 0
7, 39840, Note_on_c, 1, 76, 76
7, 39944, Note_on_c, 1, 76, 0
7, 39960, Note_on_c, 1, 74, 76
7, 40064, Note_on_c, 1, 74, 0
7, 40080, Note_on_c, 1, 76, 76
7, 40184, Note_on_c, 1, 76, 0
7, 40200, Note_on_c, 1, 77, 76
7, 40304, Note_on_c, 1, 77, 0
7, 40320, Note_on_c, 1, 79, 76
7, 40544, Note_on_c, 1, 79, 0
7, 40560, Note_on_c, 1, 70, 76
7, 40784, Note_on_c, 1, 70, 0
7, 40800, Note_on_c, 1, 69, 76
7, 41024, Note_on_c, 1, 69, 0
7, 41040, Note_on_c, 1, 74, 76
7, 41144, Note_on_c, 1, 74, 0
7, 41160, Note_on_c, 1, 72, 76
7, 41264, Note_on_c, 1, 72, 0
7, 41280, Note_on_c, 1, 70, 76
7, 41384, Note_on_c, 1, 70, 0
7, 41400, Note_on_c, 1, 69, 76
7, 41504, Note_on_c, 1, 69, 0
7, 41520, Note_on_c, 1, 70, 76
7, 41624, Note_on_c, 1, 70, 0
7, 41640, Note_on_c, 1, 67, 76
7, 41744, Note_on_c, 1, 67, 0
7, 41760, Note_on_c, 1, 69, 76
7, 41864, Note_on_c, 1, 69, 0
7, 41880, Note_on_c, 1, 70, 76
7, 41984, Note_on_c, 1, 70, 0
7, 42000, Note_on_c, 1, 69, 76
7, 42104, Note_on_c, 1, 69, 0
7, 42120, Note_on_c, 1, 67, 76
7, 42224, Note_on_c, 1, 67, 0
7, 42240, Note_on_c, 1, 65, 76
7, 42464, Note_on_c, 1, 65, 0
7, 42480, Note_on_c, 1, 77, 76
7, 42584, Note_on_c, 1, 77, 0
7, 42600, Note_on_c, 1, 79, 76
7, 42704, Note_on_c, 1, 79, 0
7, 42720, Note_on_c, 1, 81, 76
7, 42944, Note_on_c, 1, 81, 0
7, 42960, Note_on_c, 1, 74, 76
7, 43064, Note_on_c, 1, 74, 0
7, 43080, Note_on_c, 1, 76, 76
7, 43184, Note_on_c, 1, 76, 0
7, 43200, Note_on_c, 1, 77, 76
7, 43424, Note_on_c, 1, 77, 0
7, 43440, Note_on_c, 1, 71, 76
7, 43544, Note_on_c, 1, 71, 0
7, 43560, Note_on_c, 1, 72, 76
7, 43664, Note_on_c, 1, 72, 0
7, 43680, Note_on_c, 1, 74, 76
7, 43904, Note_on_c, 1, 74, 0
7, 43920, Note_on_c, 1, 67, 76
7, 44144, Note_on_c, 1, 67, 0
7, 44160, Note_on_c, 1, 79, 76
7, 44384, Note_on_c, 1, 79, 0
7, 44400, Note_on_c, 1, 71, 76
7, 44624, Note_on_c, 1, 71, 0
7, 44640, Note_on_c, 1, 72, 76
7, 44984, Note_on_c, 1, 72, 0
7, 45000, Note_on_c, 1, 74, 76
7, 45104, Note_on_c, 1, 74, 0
7, 45120, Note_on_c, 1, 74, 76
7, 45464, Note_on_c, 1, 74, 0
7, 45480, Note_on_c, 1, 72, 76
7, 45584, Note_on_c, 1, 72, 0
7, 45600, Note_on_c, 1, 72, 76
7, 46319, Note_on_c, 1, 72, 0
7, 46560, Note_on_c, 1, 67, 76
7, 46679, Note_on_c, 1, 67, 0
7, 46680, Note_on_c, 1, 65, 76
7, 46784, Note_on_c, 1, 65, 0
7, 46800, Note_on_c, 1, 67, 76
7, 47024, Note_on_c, 1, 67, 0
7, 47040, Note_on_c, 1, 65, 76
7, 47504, Note_on_c, 1, 65, 0
7, 47520, Note_on_c, 1, 63, 76
7, 47624, Note_on_c, 1, 63, 0
7, 47640, Note_on_c, 1, 62, 76
7, 47744, Note_on_c, 1, 62, 0
7, 47760, Note_on_c, 1, 63, 76
7, 47924, Note_on_c, 1, 63, 0
7, 47940, Note_on_c, 1, 65, 76
7, 47969, Note_on_c, 1, 65, 0
7, 47970, Note_on_c, 1, 67, 76
7, 47999, Note_on_c, 1, 67, 0
7, 48000, Note_on_c, 1, 68, 76
7, 48464, Note_on_c, 1, 68, 0
7, 48480, Note_on_c, 1, 67, 76
7, 48584, Note_on_c, 1, 67, 0
7, 48600, Note_on_c, 1, 65, 76
7, 48704, Note_on_c, 1, 65, 0
7, 48720, Note_on_c, 1, 67, 76
7, 48824, Note_on_c, 1, 67, 0
7, 48840, Note_on_c, 1, 63, 76
7, 48944, Note_on_c, 1, 63, 0
7, 48960, Note_on_c, 1, 65, 76
7, 49424, Note_on_c, 1, 65, 0
7, 49440, Note_on_c, 1, 63, 76
7, 49544, Note_on_c, 1, 63, 0
7, 49560, Note_on_c, 1, 62, 76
7, 49664, Note_on_c, 1, 62, 0
7, 49680, Note_on_c, 1, 63, 76
7, 50024, Note_on_c, 1, 63, 0
7, 50040, Note_on_c, 1, 62, 76
7, 50144, Note_on_c, 1, 62, 0
7, 50160, Note_on_c, 1, 63, 76
7, 50264, Note_on_c, 1, 63, 0
7, 50280, Note_on_c, 1, 65, 76
7, 50384, Note_on_c, 1, 65, 0
7, 50400, Note_on_c, 1, 67, 76
7, 50504, Note_on_c, 1, 67, 0
7, 50520, Note_on_c, 1, 68, 76
7, 50624, Note_on_c, 1, 68, 0
7, 50640, Note_on_c, 1, 67, 76
7, 50864, Note_on_c, 1, 67, 0
7, 50880, Note_on_c, 1, 65, 76
7, 51344, Note_on_c, 1, 65, 0
7, 51360, Note_on_c, 1, 63, 76
7, 51464, Note_on_c, 1, 63, 0
7, 51480, Note_on_c, 1, 62, 76
7, 51584, Note_on_c, 1, 62, 0
7, 51600, Note_on_c, 1, 63, 76
7, 51824, Note_on_c, 1, 63, 0
7, 51840, Note_on_c, 1, 65, 76
7, 52304, Note_on_c, 1, 65, 0
7, 52320, Note_on_c, 1, 63, 76
7, 52424, Note_on_c, 1, 63, 0
7, 52440, Note_on_c, 1, 62, 76
7, 52544, Note_on_c, 1, 62, 0
7, 52560, Note_on_c, 1, 63, 76
7, 52664, Note_on_c, 1, 63, 0
7, 52680, Note_on_c, 1, 67, 76
7, 52784, Note_on_c, 1, 67, 0
7, 52800, Note_on_c, 1, 68, 76
7, 53264, Note_on_c, 1, 68, 0
7, 53280, Note_on_c, 1, 67, 76
7, 53384, Note_on_c, 1, 67, 0
7, 53400, Note_on_c, 1, 65, 76
7, 53504, Note_on_c, 1, 65, 0
7, 53520, Note_on_c, 1, 67, 76
7, 54224, Note_on_c, 1, 67, 0
7, 54240, Note_on_c, 1, 67, 76
7, 54359, Note_on_c, 1, 67, 0
7, 54360, Note_on_c, 1, 65, 76
7, 54464, Note_on_c, 1, 65, 0
7, 54480, Note_on_c, 1, 67, 76
7, 54704, Note_on_c, 1, 67, 0
7, 54720, Note_on_c, 1, 65, 76
7, 55184, Note_on_c, 1, 65, 0
7, 55200, Note_on_c, 1, 63, 76
7, 55304, Note_on_c, 1, 63, 0
7, 55320, Note_on_c, 1, 62, 76
7, 55424, Note_on_c, 1, 62, 0
7, 55440, Note_on_c, 1, 63, 76
7, 55604, Note_on_c, 1, 63, 0
7, 55620, Note_on_c, 1, 65, 76
7, 55649, Note_on_c, 1, 65, 0
7, 55650, Note_on_c, 1, 67, 76
7, 55679, Note_on_c, 1, 67, 0
7, 55680, Note_on_c, 1, 68, 76
7, 56144, Note_on_c, 1, 68, 0
7, 56160, Note_on_c, 1, 67, 76
7, 56264, Note_on_c, 1, 67, 0
7, 56280, Note_on_c, 1, 65, 76
7, 56384, Note_on_c, 1, 65, 0
7, 56400, Note_on_c, 1, 67, 76
7, 56504, Note_on_c, 1, 67, 0
7, 56520, Note_on_c, 1, 63, 76
7, 56624, Note_on_c, 1, 63, 0
7, 56640, Note_on_c, 1, 65, 76
7, 57104, Note_on_c, 1, 65, 0
7, 57120, Note_on_c, 1, 63, 76
7, 57224, Note_on_c, 1, 63, 0
7, 57240, Note_on_c, 1, 62, 76
7, 57344, Note_on_c, 1, 62, 0
7, 57360, Note_on_c, 1, 63, 76
7, 57704, Note_on_c, 1, 63, 0
7, 57720, Note_on_c, 1, 62, 76
7, 57824, Note_on_c, 1, 62, 0
7, 57840, Note_on_c, 1, 63, 76
7, 57944, Note_on_c, 1, 63, 0
7, 57960, Note_on_c, 1, 65, 76
7, 58064, Note_on_c, 1, 65, 0
7, 58080, Note_on_c, 1, 67, 76
7, 58184, Note_on_c, 1, 67, 0
7, 58200, Note_on_c, 1, 68, 76
7, 58304, Note_on_c, 1, 68, 0
7, 58320, Note_on_c, 1, 67, 76
7, 58544, Note_on_c, 1, 67, 0
7, 58560, Note_on_c, 1, 65, 76
7, 59024, Note_on_c, 1, 65, 0
7, 59040, Note_on_c, 1, 63, 76
7, 59144, Note_on_c, 1, 63, 0
7, 59160, Note_on_c, 1, 62, 76
7, 59264, Note_on_c, 1, 62, 0
7, 59280, Note_on_c, 1, 63, 76
7, 59504, Note_on_c, 1, 63, 0
7, 59520, Note_on_c, 1, 65, 76
7, 59984, Note_on_c, 1, 65, 0
7, 60000, Note_on_c, 1, 63, 76
7, 60104, Note_on_c, 1, 63, 0
7, 60120, Note_on_c, 1, 62, 76
7, 60224, Note_on_c, 1, 62, 0
7, 60240, Note_on_c, 1, 63, 76
7, 60344, Note_on_c, 1, 63, 0
7, 60360, Note_on_c, 1, 67, 76
7, 60464, Note_on_c, 1, 67, 0
7, 60480, Note_on_c, 1, 68, 76
7, 60944, Note_on_c, 1, 68, 0
7, 60960, Note_on_c, 1, 67, 76
7, 61064, Note_on_c, 1, 67, 0
7, 61080, Note_on_c, 1, 65, 76
7, 61184, Note_on_c, 1, 65, 0
7, 61200, Note_on_c, 1, 67, 76
7, 61904, Note_on_c, 1, 67, 0
7, 61920, Note_on_c, 1, 70, 76
7, 62024, Note_on_c, 1, 70, 0
7, 62040, Note_on_c, 1, 69, 76
7, 62144, Note_on_c, 1, 69, 0
7, 62160, Note_on_c, 1, 70, 76
7, 62384, Note_on_c, 1, 70, 0
7, 62400, Note_on_c, 1, 72, 76
7, 62864, Note_on_c, 1, 72, 0
7, 62880, Note_on_c, 1, 74, 76
7, 62984, Note_on_c, 1, 74, 0
7, 63000, Note_on_c, 1, 75, 76
7, 63104, Note_on_c, 1, 75, 0
7, 63120, Note_on_c, 1, 77, 76
7, 63344, Note_on_c, 1, 77, 0
7, 63360, Note_on_c, 1, 70, 76
7, 63464, Note_on_c, 1, 70, 0
7, 63480, Note_on_c, 1, 72, 76
7, 63584, Note_on_c, 1, 72, 0
7, 63600, Note_on_c, 1, 74, 76
7, 63704, Note_on_c, 1, 74, 0
7, 63720, Note_on_c, 1, 72, 76
7, 63824, Note_on_c, 1, 72, 0
7, 63840, Note_on_c, 1, 74, 76
7, 63944, Note_on_c, 1, 74, 0
7, 63960, Note_on_c, 1, 76, 76
7, 64064, Note_on_c, 1, 76, 0
7, 64080, Note_on_c, 1, 77, 76
7, 64184, Note_on_c, 1, 77, 0
7, 64200, Note_on_c, 1, 76, 76
7, 64304, Note_on_c, 1, 76, 0
7, 64320, Note_on_c, 1, 79, 76
7, 64784, Note_on_c, 1, 79, 0
7, 64800, Note_on_c, 1, 77, 76
7, 64904, Note_on_c, 1, 77, 0
7, 64920, Note_on_c, 1, 76, 76
7, 65024, Note_on_c, 1, 76, 0
7, 65040, Note_on_c, 1, 77, 76
7, 65264, Note_on_c, 1, 77, 0
7, 65280, Note_on_c, 1, 72, 76
7, 65504, Note_on_c, 1, 72, 0
7, 65520, Note_on_c, 1, 74, 76
7, 65744, Note_on_c, 1, 74, 0
7, 65760, Note_on_c, 1, 71, 76
7, 65984, Note_on_c, 1, 71, 0
7, 66000, Note_on_c, 1, 72, 76
7, 66104, Note_on_c, 1, 72, 0
7, 66120, Note_on_c, 1, 71, 76
7, 66224, Note_on_c, 1, 71, 0
7, 66240, Note_on_c, 1, 74, 76
7, 66704, Note_on_c, 1, 74, 0
7, 66720, Note_on_c, 1, 67, 76
7, 66944, Note_on_c, 1, 67, 0
7, 66960, Note_on_c, 1, 72, 76
7, 67064, Note_on_c, 1, 72, 0
7, 67080, Note_on_c, 1, 67, 76
7, 67184, Note_on_c, 1, 67, 0
7, 67200, Note_on_c, 1, 75, 76
7, 67664, Note_on_c, 1, 75, 0
7, 67680, Note_on_c, 1, 74, 76
7, 67784, Note_on_c, 1, 74, 0
7, 67800, Note_on_c, 1, 72, 76
7, 67904, Note_on_c, 1, 72, 0
7, 67920, Note_on_c, 1, 70, 76
7, 68144, Note_on_c, 1, 70, 0
7, 68160, Note_on_c, 1, 69, 76
7, 68264, Note_on_c, 1, 69, 0
7, 68280, Note_on_c, 1, 67, 76
7, 68384, Note_on_c, 1, 67, 0
7, 68400, Note_on_c, 1, 62, 76
7, 68624, Note_on_c, 1, 62, 0
7, 68640, Note_on_c, 1, 66, 76
7, 68864, Note_on_c, 1, 66, 0
7, 68880, Note_on_c, 1, 67, 76
7, 69599, Note_on_c, 1, 67, 0
7, 70080, Note_on_c, 1, 67, 76
7, 70184, Note_on_c, 1, 67, 0
7, 70200, Note_on_c, 1, 68, 76
7, 70304, Note_on_c, 1, 68, 0
7, 70320, Note_on_c, 1, 70, 76
7, 70424, Note_on_c, 1, 70, 0
7, 70440, Note_on_c, 1, 72, 76
7, 70544, Note_on_c, 1, 72, 0
7, 70560, Note_on_c, 1, 73, 76
7, 71024, Note_on_c, 1, 73, 0
7, 71040, Note_on_c, 1, 72, 76
7, 71144, Note_on_c, 1, 72, 0
7, 71160, Note_on_c, 1, 70, 76
7, 71264, Note_on_c, 1, 70, 0
7, 71280, Note_on_c, 1, 68, 76
7, 71384, Note_on_c, 1, 68, 0
7, 71400, Note_on_c, 1, 65, 76
7, 71504, Note_on_c, 1, 65, 0
7, 71520, Note_on_c, 1, 74, 76
7, 71984, Note_on_c, 1, 74, 0
7, 72000, Note_on_c, 1, 72, 76
7, 72104, Note_on_c, 1, 72, 0
7, 72120, Note_on_c, 1, 70, 76
7, 72224, Note_on_c, 1, 70, 0
7, 72240, Note_on_c, 1, 68, 76
7, 72344, Note_on_c, 1, 68, 0
7, 72360, Note_on_c, 1, 67, 76
7, 72464, Note_on_c, 1, 67, 0
7, 72480, Note_on_c, 1, 65, 76
7, 72584, Note_on_c, 1, 65, 0
7, 72600, Note_on_c, 1, 63, 76
7, 72704, Note_on_c, 1, 63, 0
7, 72720, Note_on_c, 1, 62, 76
7, 72824, Note_on_c, 1, 62, 0
7, 72840, Note_on_c, 1, 60, 76
7, 72944, Note_on_c, 1, 60, 0
7, 72960, Note_on_c, 1, 62, 76
7, 73064, Note_on_c, 1, 62, 0
7, 73080, Note_on_c, 1, 63, 76
7, 73184, Note_on_c, 1, 63, 0
7, 73200, Note_on_c, 1, 65, 76
7, 73304, Note_on_c, 1, 65, 0
7, 73320, Note_on_c, 1, 67, 76
7, 73424, Note_on_c, 1, 67, 0
7, 73440, Note_on_c, 1, 68, 76
7, 73544, Note_on_c, 1, 68, 0
7, 73560, Note_on_c, 1, 65, 76
7, 73664, Note_on_c, 1, 65, 0
7, 73680, Note_on_c, 1, 67, 76
7, 73904, Note_on_c, 1, 67, 0
7, 73920, Note_on_c, 1, 65, 76
7, 74384, Note_on_c, 1, 65, 0
7, 74400, Note_on_c, 1, 63, 76
7, 74504, Note_on_c, 1, 63, 0
7, 74520, Note_on_c, 1, 62, 76
7, 74624, Note_on_c, 1, 62, 0
7, 74640, Note_on_c, 1, 63, 76
7, 74804, Note_on_c, 1, 63, 0
7, 74820, Note_on_c, 1, 65, 76
7, 74849, Note_on_c, 1, 65, 0
7, 74850, Note_on_c, 1, 67, 76
7, 74879, Note_on_c, 1, 67, 0
7, 74880, Note_on_c, 1, 68, 76
7, 75344, Note_on_c, 1, 68, 0
7, 75360, Note_on_c, 1, 67, 76
7, 75464, Note_on_c, 1, 67, 0
7, 75480, Note_on_c, 1, 65, 76
7, 75584, Note_on_c, 1, 65, 0
7, 75600, Note_on_c, 1, 67, 76
7, 75704, Note_on_c, 1, 67, 0
7, 75720, Note_on_c, 1, 63, 76
7, 75824, Note_on_c, 1, 63, 0
7, 75840, Note_on_c, 1, 65, 76
7, 76304, Note_on_c, 1, 65, 0
7, 76320, Note_on_c, 1, 63, 76
7, 76424, Note_on_c, 1, 63, 0
7, 76440, Note_on_c, 1, 62, 76
7, 76544, Note_on_c, 1, 62, 0
7, 76560, Note_on_c, 1, 63, 76
7, 77264, Note_on_c, 1, 63, 0
7, 77280, Note_on_c, 1, 70, 76
7, 77384, Note_on_c, 1, 70, 0
7, 77400, Note_on_c, 1, 69, 76
7, 77504, Note_on_c, 1, 69, 0
7, 77520, Note_on_c, 1, 70, 76
7, 77744, Note_on_c, 1, 70, 0
7, 77760, Note_on_c, 1, 72, 76
7, 78224, Note_on_c, 1, 72, 0
7, 78240, Note_on_c, 1, 74, 76
7, 78344, Note_on_c, 1, 74, 0
7, 78360, Note_on_c, 1, 75, 76
7, 78464, Note_on_c, 1, 75, 0
7, 78480, Note_on_c, 1, 77, 76
7, 78704, Note_on_c, 1, 77, 0
7, 78720, Note_on_c, 1, 70, 76
7, 78824, Note_on_c, 1, 70, 0
7, 78840, Note_on_c, 1, 72, 76
7, 78944, Note_on_c, 1, 72, 0
7, 78960, Note_on_c, 1, 74, 76
7, 79064, Note_on_c, 1, 74, 0
7, 79080, Note_on_c, 1, 72, 76
7, 79184, Note_on_c, 1, 72, 0
7, 79200, Note_on_c, 1, 74, 76
7, 79304, Note_on_c, 1, 74, 0
7, 79320, Note_on_c, 1, 76, 76
7, 79424, Note_on_c, 1, 76, 0
7, 79440, Note_on_c, 1, 77, 76
7, 79544, Note_on_c, 1, 77, 0
7, 79560, Note_on_c, 1, 76, 76
7, 79664, Note_on_c, 1, 76, 0
7, 79680, Note_on_c, 1, 79, 76
7, 80144, Note_on_c, 1, 79, 0
7, 80160, Note_on_c, 1, 77, 76
7, 80264, Note_on_c, 1, 77, 0
7, 80280, Note_on_c, 1, 76, 76
7, 80384, Note_on_c, 1, 76, 0
7, 80400, Note_on_c, 1, 77, 76
7, 80624, Note_on_c, 1, 77, 0
7, 80640, Note_on_c, 1, 72, 76
7, 80864, Note_on_c, 1, 72, 0
7, 80880, Note_on_c, 1, 74, 76
7, 81104, Note_on_c, 1, 74, 0
7, 81120, Note_on_c, 1, 71, 76
7, 81344, Note_on_c, 1, 71, 0
7, 81360, Note_on_c, 1, 72, 76
7, 81464, Note_on_c, 1, 72, 0
7, 81480, Note_on_c, 1, 71, 76
7, 81584, Note_on_c, 1, 71, 0
7, 81600, Note_on_c, 1, 74, 76
7, 82064, Note_on_c, 1, 74, 0
7, 82080, Note_on_c, 1, 67, 76
7, 82304, Note_on_c, 1, 67, 0
7, 82320, Note_on_c, 1, 72, 76
7, 82424, Note_on_c, 1, 72, 0
7, 82440, Note_on_c, 1, 67, 76
7, 82544, Note_on_c, 1, 67, 0
7, 82560, Note_on_c, 1, 75, 76
7, 83024, Note_on_c, 1, 75, 0
7, 83040, Note_on_c, 1, 74, 76
7, 83144, Note_on_c, 1, 74, 0
7, 83160, Note_on_c, 1, 72, 76
7, 83264, Note_on_c, 1, 72, 0
7, 83280, Note_on_c, 1, 70, 76
7, 83504, Note_on_c, 1, 70, 0
7, 83520, Note_on_c, 1, 69, 76
7, 83624, Note_on_c, 1, 69, 0
7, 83640, Note_on_c, 1, 67, 76
7, 83744, Note_on_c, 1, 67, 0
7, 83760, Note_on_c, 1, 62, 76
7, 83984, Note_on_c, 1, 62, 0
7, 84000, Note_on_c, 1, 66, 76
7, 84224, Note_on_c, 1, 66, 0
7, 84240, Note_on_c, 1, 67, 76
7, 84959, Note_on_c, 1, 67, 0
7, 85440, Note_on_c, 1, 67, 76
7, 85544, Note_on_c, 1, 67, 0
7, 85560, Note_on_c, 1, 68, 76
7, 85664, Note_on_c, 1, 68, 0
7, 85680, Note_on_c, 1, 70, 76
7, 85784, Note_on_c, 1, 70, 0
7, 85800, Note_on_c, 1, 72, 76
7, 85904, Note_on_c, 1, 72, 0
7, 85920, Note_on_c, 1, 73, 76
7, 86384, Note_on_c, 1, 73, 0
7, 86400, Note_on_c, 1, 72, 76
7, 86504, Note_on_c, 1, 72, 0
7, 86520, Note_on_c, 1, 70, 76
7, 86624, Note_on_c, 1, 70, 0
7, 86640, Note_on_c, 1, 68, 76
7, 86744, Note_on_c, 1, 68, 0
7, 86760, Note_on_c, 1, 65, 76
7, 86864, Note_on_c, 1, 65, 0
7, 86880, Note_on_c, 1, 74, 76
7, 87344, Note_on_c, 1, 74, 0
7, 87360, Note_on_c, 1, 72, 76
7, 87464, Note_on_c, 1, 72, 0
7, 87480, Note_on_c, 1, 70, 76
7, 87584, Note_on_c, 1, 70, 0
7, 87600, Note_on_c, 1, 68, 76
7, 87704, Note_on_c, 1, 68, 0
7, 87720, Note_on_c, 1, 67, 76
7, 87824, Note_on_c, 1, 67, 0
7, 87840, Note_on_c, 1, 65, 76
7, 87944, Note_on_c, 1, 65, 0
7, 87960, Note_on_c, 1, 63, 76
7, 88064, Note_on_c, 1, 63, 0
7, 88080, Note_on_c, 1, 62, 76
7, 88184, Note_on_c, 1, 62, 0
7, 88200, Note_on_c, 1, 60, 76
7, 88304, Note_on_c, 1, 60, 0
7, 88320, Note_on_c, 1, 62, 76
7, 88424, Note_on_c, 1, 62, 0
7, 88440, Note_on_c, 1, 63, 76
7, 88544, Note_on_c, 1, 63, 0
7, 88560, Note_on_c, 1, 65, 76
7, 88664, Note_on_c, 1, 65, 0
7, 88680, Note_on_c, 1, 67, 76
7, 88784, Note_on_c, 1, 67, 0
7, 88800, Note_on_c, 1, 68, 76
7, 88904, Note_on_c, 1, 68, 0
7, 88920, Note_on_c, 1, 65, 76
7, 89024, Note_on_c, 1, 65, 0
7, 89040, Note_on_c, 1, 67, 76
7, 89264, Note_on_c, 1, 67, 0
7, 89280, Note_on_c, 1, 65, 76
7, 89744, Note_on_c, 1, 65, 0
7, 89760, Note_on_c, 1, 63, 76
7, 89864, Note_on_c, 1, 63, 0
7, 89880, Note_on_c, 1, 62, 76
7, 89984, Note_on_c, 1, 62, 0
7, 90000, Note_on_c, 1, 63, 76
7, 90164, Note_on_c, 1, 63, 0
7, 90180, Note_on_c, 1, 65, 76
7, 90209, Note_on_c, 1, 65, 0
7, 90210, Note_on_c, 1, 67, 76
7, 90239, Note_on_c, 1, 67, 0
7, 90240, Note_on_c, 1, 68, 76
7, 90704, Note_on_c, 1, 68, 0
7, 90720, Note_on_c, 1, 67, 76
7, 90824, Note_on_c, 1, 67, 0
7, 90840, Note_on_c, 1, 65, 76
7, 90944, Note_on_c, 1, 65, 0
7, 90960, Note_on_c, 1, 67, 76
7, 91064, Note_on_c, 1, 67, 0
7, 91080, Note_on_c, 1, 63, 76
7, 91184, Note_on_c, 1, 63, 0
7, 91200, Note_on_c, 1, 65, 76
7, 91664, Note_on_c, 1, 65, 0
7, 91680, Note_on_c, 1, 63, 76
7, 91784, Note_on_c, 1, 63, 0
7, 91800, Note_on_c, 1, 62, 76
7, 91904, Note_on_c, 1, 62, 0
7, 91920, Note_on_c, 1, 63, 76
7, 92639, Note_on_c, 1, 63, 0
7, 92880, Note_on_c, 1, 64, 76
7, 92984, Note_on_c, 1, 64, 0
7, 93000, Note_on_c, 1, 65, 76
7, 93104, Note_on_c, 1, 65, 0
7, 93120, Note_on_c, 1, 67, 76
7, 93344, Note_on_c, 1, 67, 0
7, 93360, Note_on_c, 1, 72, 76
7, 93824, Note_on_c, 1, 72, 0
7, 93840, Note_on_c, 1, 67, 76
7, 94064, Note_on_c, 1, 67, 0
7, 94080, Note_on_c, 1, 64, 76
7, 94184, Note_on_c, 1, 64, 0
7, 94200, Note_on_c, 1, 62, 76
7, 94304, Note_on_c, 1, 62, 0
7, 94320, Note_on_c, 1, 64, 76
7, 94424, Note_on_c, 1, 64, 0
7, 94440, Note_on_c, 1, 65, 76
7, 94544, Note_on_c, 1, 65, 0
7, 94560, Note_on_c, 1, 67, 76
7, 94784, Note_on_c, 1, 67, 0
7, 94800, Note_on_c, 1, 69, 76
7, 94904, Note_on_c, 1, 69, 0
7, 94920, Note_on_c, 1, 71, 76
7, 95024, Note_on_c, 1, 71, 0
7, 95040, Note_on_c, 1, 72, 76
7, 95144, Note_on_c, 1, 72, 0
7, 95160, Note_on_c, 1, 74, 76
7, 95264, Note_on_c, 1, 74, 0
7, 95280, Note_on_c, 1, 76, 76
7, 95384, Note_on_c, 1, 76, 0
7, 95400, Note_on_c, 1, 77, 76
7, 95504, Note_on_c, 1, 77, 0
7, 95520, Note_on_c, 1, 79, 76
7, 95744, Note_on_c, 1, 79, 0
7, 95760, Note_on_c, 1, 81, 76
7, 95984, Note_on_c, 1, 81, 0
7, 96000, Note_on_c, 1, 74, 76
7, 96104, Note_on_c, 1, 74, 0
7, 96120, Note_on_c, 1, 72, 76
7, 96224, Note_on_c, 1, 72, 0
7, 96240, Note_on_c, 1, 74, 76
7, 96344, Note_on_c, 1, 74, 0
7, 96360, Note_on_c, 1, 76, 76
7, 96464, Note_on_c, 1, 76, 0
7, 96480, Note_on_c, 1, 74, 76
7, 96704, Note_on_c, 1, 74, 0
7, 96720, Note_on_c, 1, 76, 76
7, 96824, Note_on_c, 1, 76, 0
7, 96840, Note_on_c, 1, 78, 76
7, 96944, Note_on_c, 1, 78, 0
7, 96960, Note_on_c, 1, 79, 76
7, 97184, Note_on_c, 1, 79, 0
7, 97200, Note_on_c, 1, 71, 76
7, 97304, Note_on_c, 1, 71, 0
7, 97320, Note_on_c, 1, 72, 76
7, 97424, Note_on_c, 1, 72, 0
7, 97440, Note_on_c, 1, 74, 76
7, 97664, Note_on_c, 1, 74, 0
7, 97680, Note_on_c, 1, 76, 76
7, 97784, Note_on_c, 1, 76, 0
7, 97800, Note_on_c, 1, 78, 76
7, 97904, Note_on_c, 1, 78, 0
7, 97920, Note_on_c, 1, 79, 76
7, 98144, Note_on_c, 1, 79, 0
7, 98160, Note_on_c, 1, 69, 76
7, 98264, Note_on_c, 1, 69, 0
7, 98280, Note_on_c, 1, 71, 76
7, 98384, Note_on_c, 1, 71, 0
7, 98400, Note_on_c, 1, 72, 76
7, 98624, Note_on_c, 1, 72, 0
7, 98640, Note_on_c, 1, 74, 76
7, 98864, Note_on_c, 1, 74, 0
7, 98880, Note_on_c, 1, 71, 76
7, 99224, Note_on_c, 1, 71, 0
7, 99240, Note_on_c, 1, 69, 76
7, 99344, Note_on_c, 1, 69, 0
7, 99360, Note_on_c, 1, 69, 76
7, 99704, Note_on_c, 1, 69, 0
7, 99720, Note_on_c, 1, 67, 76
7, 99824, Note_on_c, 1, 67, 0
7, 99840, Note_on_c, 1, 67, 76
7, 100544, Note_on_c, 1, 67, 0
7, 100560, Note_on_c, 1, 64, 76
7, 100664, Note_on_c, 1, 64, 0
7, 100680, Note_on_c, 1, 65, 76
7, 100784, Note_on_c, 1, 65, 0
7, 100800, Note_on_c, 1, 67, 76
7, 101024, Note_on_c, 1, 67, 0
7, 101040, Note_on_c, 1, 72, 76
7, 101504, Note_on_c, 1, 72, 0
7, 101520, Note_on_c, 1, 67, 76
7, 101744, Note_on_c, 1, 67, 0
7, 101760, Note_on_c, 1, 64, 76
7, 101864, Note_on_c, 1, 64, 0
7, 101880, Note_on_c, 1, 62, 76
7, 101984, Note_on_c, 1, 62, 0
7, 102000, Note_on_c, 1, 64, 76
7, 102104, Note_on_c, 1, 64, 0
7, 102120, Note_on_c, 1, 65, 76
7, 102224, Note_on_c, 1, 65, 0
7, 102240, Note_on_c, 1, 67, 76
7, 102464, Note_on_c, 1, 67, 0
7, 102480, Note_on_c, 1, 69, 76
7, 102584, Note_on_c, 1, 69, 0
7, 102600, Note_on_c, 1, 71, 76
7, 102704, Note_on_c, 1, 71, 0
7, 102720, Note_on_c, 1, 72, 76
7, 102824, Note_on_c, 1, 72, 0
7, 102840, Note_on_c, 1, 74, 76
7, 102944, Note_on_c, 1, 74, 0
7, 102960, Note_on_c, 1, 76, 76
7, 103064, Note_on_c, 1, 76, 0
7, 103080, Note_on_c, 1, 77, 76
7, 103184, Note_on_c, 1, 77, 0
7, 103200, Note_on_c, 1, 79, 76
7, 103424, Note_on_c, 1, 79, 0
7, 103440, Note_on_c, 1, 81, 76
7, 103664, Note_on_c, 1, 81, 0
7, 103680, Note_on_c, 1, 74, 76
7, 103784, Note_on_c, 1, 74, 0
7, 103800, Note_on_c, 1, 72, 76
7, 103904, Note_on_c, 1, 72, 0
7, 103920, Note_on_c, 1, 74, 76
7, 104024, Note_on_c, 1, 74, 0
7, 104040, Note_on_c, 1, 76, 76
7, 104144, Note_on_c, 1, 76, 0
7, 104160, Note_on_c, 1, 74, 76
7, 104384, Note_on_c, 1, 74, 0
7, 104400, Note_on_c, 1, 76, 76
7, 104504, Note_on_c, 1, 76, 0
7, 104520, Note_on_c, 1, 78, 76
7, 104624, Note_on_c, 1, 78, 0
7, 104640, Note_on_c, 1, 79, 76
7, 104864, Note_on_c, 1, 79, 0
7, 104880, Note_on_c, 1, 71, 76
7, 104984, Note_on_c, 1, 71, 0
7, 105000, Note_on_c, 1, 72, 76
7, 105104, Note_on_c, 1, 72, 0
7, 105120, Note_on_c, 1, 74, 76
7, 105344, Note_on_c, 1, 74, 0
7, 105360, Note_on_c, 1, 76, 76
7, 105464, Note_on_c, 1, 76, 0
7, 105480, Note_on_c, 1, 78, 76
7, 105584, Note_on_c, 1, 78, 0
7, 105600, Note_on_c, 1, 79, 76
7, 105824, Note_on_c, 1, 79, 0
7, 105840, Note_on_c, 1, 69, 76
7, 105944, Note_on_c, 1, 69, 0
7, 105960, Note_on_c, 1, 71, 76
7, 106064, Note_on_c, 1, 71, 0
7, 106080, Note_on_c, 1, 72, 76
7, 106304, Note_on_c, 1, 72, 0
7, 106320, Note_on_c, 1, 74, 76
7, 106544, Note_on_c, 1, 74, 0
7, 106560, Note_on_c, 1, 71, 76
7, 106904, Note_on_c, 1, 71, 0
7, 106920, Note_on_c, 1, 69, 76
7, 107024, Note_on_c, 1, 69, 0
7, 107040, Note_on_c, 1, 69, 76
7, 107384, Note_on_c, 1, 69, 0
7, 107400, Note_on_c, 1, 67, 76
7, 107504, Note_on_c, 1, 67, 0
7, 107520, Note_on_c, 1, 67, 76
7, 108224, Note_on_c, 1, 67, 0
7, 108240, Note_on_c, 1, 71, 76
7, 108344, Note_on_c, 1, 71, 0
7, 108360, Note_on_c, 1, 72, 76
7, 108464, Note_on_c, 1, 72, 0
7, 108480, Note_on_c, 1, 74, 76
7, 108704, Note_on_c, 1, 74, 0
7, 108720, Note_on_c, 1, 79, 76
7, 109184, Note_on_c, 1, 79, 0
7, 109200, Note_on_c, 1, 82, 76
7, 109424, Note_on_c, 1, 82, 0
7, 109440, Note_on_c, 1, 73, 76
7, 109544, Note_on_c, 1, 73, 0
7, 109560, Note_on_c, 1, 71, 76
7, 109664, Note_on_c, 1, 71, 0
7, 109680, Note_on_c, 1, 73, 76
7, 109784, Note_on_c, 1, 73, 0
7, 109800, Note_on_c, 1, 74, 76
7, 109904, Note_on_c, 1, 74, 0
7, 109920, Note_on_c, 1, 76, 76
7, 110144, Note_on_c, 1, 76, 0
7, 110160, Note_on_c, 1, 77, 76
7, 110264, Note_on_c, 1, 77, 0
7, 110280, Note_on_c, 1, 79, 76
7, 110384, Note_on_c, 1, 79, 0
7, 110400, Note_on_c, 1, 81, 76
7, 110504, Note_on_c, 1, 81, 0
7, 110520, Note_on_c, 1, 79, 76
7, 110624, Note_on_c, 1, 79, 0
7, 110640, Note_on_c, 1, 81, 76
7, 110744, Note_on_c, 1, 81, 0
7, 110760, Note_on_c, 1, 82, 76
7, 110864, Note_on_c, 1, 82, 0
7, 110880, Note_on_c, 1, 81, 76
7, 110984, Note_on_c, 1, 81, 0
7, 111000, Note_on_c, 1, 79, 76
7, 111104, Note_on_c, 1, 79, 0
7, 111120, Note_on_c, 1, 77, 76
7, 111224, Note_on_c, 1, 77, 0
7, 111240, Note_on_c, 1, 76, 76
7, 111344, Note_on_c, 1, 76, 0
7, 111360, Note_on_c, 1, 77, 76
7, 111464, Note_on_c, 1, 77, 0
7, 111480, Note_on_c, 1, 79, 76
7, 111584, Note_on_c, 1, 79, 0
7, 111600, Note_on_c, 1, 77, 76
7, 111704, Note_on_c, 1, 77, 0
7, 111720, Note_on_c, 1, 76, 76
7, 111824, Note_on_c, 1, 76, 0
7, 111840, Note_on_c, 1, 74, 76
7, 112064, Note_on_c, 1, 74, 0
7, 112080, Note_on_c, 1, 83, 76
7, 112184, Note_on_c, 1, 83, 0
7, 112200, Note_on_c, 1, 84, 76
7, 112304, Note_on_c, 1, 84, 0
7, 112320, Note_on_c, 1, 86, 76
7, 112544, Note_on_c, 1, 86, 0
7, 112560, Note_on_c, 1, 80, 76
7, 112664, Note_on_c, 1, 80, 0
7, 112680, Note_on_c, 1, 81, 76
7, 112784, Note_on_c, 1, 81, 0
7, 112800, Note_on_c, 1, 83, 76
7, 113024, Note_on_c, 1, 83, 0
7, 113040, Note_on_c, 1, 74, 76
7, 113144, Note_on_c, 1, 74, 0
7, 113160, Note_on_c, 1, 76, 76
7, 113264, Note_on_c, 1, 76, 0
7, 113280, Note_on_c, 1, 77, 76
7, 113504, Note_on_c, 1, 77, 0
7, 113520, Note_on_c, 1, 71, 76
7, 113624, Note_on_c, 1, 71, 0
7, 113640, Note_on_c, 1, 72, 76
7, 113744, Note_on_c, 1, 72, 0
7, 113760, Note_on_c, 1, 74, 76
7, 113984, Note_on_c, 1, 74, 0
7, 114000, Note_on_c, 1, 68, 76
7, 114224, Note_on_c, 1, 68, 0
7, 114240, Note_on_c, 1, 69, 76
7, 114584, Note_on_c, 1, 69, 0
7, 114600, Note_on_c, 1, 71, 76
7, 114704, Note_on_c, 1, 71, 0
7, 114720, Note_on_c, 1, 71, 76
7, 115064, Note_on_c, 1, 71, 0
7, 115080, Note_on_c, 1, 69, 76
7, 115184, Note_on_c, 1, 69, 0
7, 115200, Note_on_c, 1, 69, 76
7, 115904, Note_on_c, 1, 69, 0
7, 115920, Note_on_c, 1, 76, 76
7, 116024, Note_on_c, 1, 76, 0
7, 116040, Note_on_c, 1, 77, 76
7, 116144, Note_on_c, 1, 77, 0
7, 116160, Note_on_c, 1, 79, 76
7, 116384, Note_on_c, 1, 79, 0
7, 116400, Note_on_c, 1, 84, 76
7, 116864, Note_on_c, 1, 84, 0
7, 116880, Note_on_c, 1, 79, 76
7, 117104, Note_on_c, 1, 79, 0
7, 117120, Note_on_c, 1, 76, 76
7, 117224, Note_on_c, 1, 76, 0
7, 117240, Note_on_c, 1, 74, 76
7, 117344, Note_on_c, 1, 74, 0
7, 117360, Note_on_c, 1, 76, 76
7, 117464, Note_on_c, 1, 76, 0
7, 117480, Note_on_c, 1, 77, 76
7, 117584, Note_on_c, 1, 77, 0
7, 117600, Note_on_c, 1, 79, 76
7, 117824, Note_on_c, 1, 79, 0
7, 117840, Note_on_c, 1, 70, 76
7, 118064, Note_on_c, 1, 70, 0
7, 118080, Note_on_c, 1, 69, 76
7, 118304, Note_on_c, 1, 69, 0
7, 118320, Note_on_c, 1, 74, 76
7, 118424, Note_on_c, 1, 74, 0
7, 118440, Note_on_c, 1, 72, 76
7, 118544, Note_on_c, 1, 72, 0
7, 118560, Note_on_c, 1, 70, 76
7, 118664, Note_on_c, 1, 70, 0
7, 118680, Note_on_c, 1, 69, 76
7, 118784, Note_on_c, 1, 69, 0
7, 118800, Note_on_c, 1, 70, 76
7, 118904, Note_on_c, 1, 70, 0
7, 118920, Note_on_c, 1, 67, 76
7, 119024, Note_on_c, 1, 67, 0
7, 119040, Note_on_c, 1, 69, 76
7, 119144, Note_on_c, 1, 69, 0
7, 119160, Note_on_c, 1, 70, 76
7, 119264, Note_on_c, 1, 70, 0
7, 119280, Note_on_c, 1, 69, 76
7, 119384, Note_on_c, 1, 69, 0
7, 119400, Note_on_c, 1, 67, 76
7, 119504, Note_on_c, 1, 67, 0
7, 119520, Note_on_c, 1, 65, 76
7, 119744, Note_on_c, 1, 65, 0
7, 119760, Note_on_c, 1, 77, 76
7, 119864, Note_on_c, 1, 77, 0
7, 119880, Note_on_c, 1, 79, 76
7, 119984, Note_on_c, 1, 79, 0
7, 120000, Note_on_c, 1, 81, 76
7, 120224, Note_on_c, 1, 81, 0
7, 120240, Note_on_c, 1, 74, 76
7, 120344, Note_on_c, 1, 74, 0
7, 120360, Note_on_c, 1, 76, 76
7, 120464, Note_on_c, 1, 76, 0
7, 120480, Note_on_c, 1, 77, 76
7, 120704, Note_on_c, 1, 77, 0
7, 120720, Note_on_c, 1, 71, 76
7, 120824, Note_on_c, 1, 71, 0
7, 120840, Note_on_c, 1, 72, 76
7, 120944, Note_on_c, 1, 72, 0
7, 120960, Note_on_c, 1, 74, 76
7, 121184, Note_on_c, 1, 74, 0
7, 121200, Note_on_c, 1, 67, 76
7, 121424, Note_on_c, 1, 67, 0
7, 121440, Note_on_c, 1, 79, 76
7, 121664, Note_on_c, 1, 79, 0
7, 121680, Note_on_c, 1, 71, 76
7, 121904, Note_on_c, 1, 71, 0
7, 121920, Note_on_c, 1, 72, 76
7, 122264, Note_on_c, 1, 72, 0
7, 122280, Note_on_c, 1, 74, 76
7, 122384, Note_on_c, 1, 74, 0
7, 122400, Note_on_c, 1, 74, 76
7, 122744, Note_on_c, 1, 74, 0
7, 122760, Note_on_c, 1, 72, 76
7, 122864, Note_on_c, 1, 72, 0
7, 122880, Note_on_c, 1, 72, 76
7, 123584, Note_on_c, 1, 72, 0
7, 123600, Note_on_c, 1, 71, 76
7, 123704, Note_on_c, 1, 71, 0
7, 123720, Note_on_c, 1, 72, 76
7, 123824, Note_on_c, 1, 72, 0
7, 123840, Note_on_c, 1, 74, 76
7, 124064, Note_on_c, 1, 74, 0
7, 124080, Note_on_c, 1, 79, 76
7, 124544, Note_on_c, 1, 79, 0
7, 124560, Note_on_c, 1, 82, 76
7, 124784, Note_on_c, 1, 82, 0
7, 124800, Note_on_c, 1, 73, 76
7, 124904, Note_on_c, 1, 73, 0
7, 124920, Note_on_c, 1, 71, 76
7, 125024, Note_on_c, 1, 71, 0
7, 125040, Note_on_c, 1, 73, 76
7, 125144, Note_on_c, 1, 73, 0
7, 125160, Note_on_c, 1, 74, 76
7, 125264, Note_on_c, 1, 74, 0
7, 125280, Note_on_c, 1, 76, 76
7, 125504, Note_on_c, 1, 76, 0
7, 125520, Note_on_c, 1, 77, 76
7, 125624, Note_on_c, 1, 77, 0
7, 125640, Note_on_c, 1, 79, 76
7, 125744, Note_on_c, 1, 79, 0
7, 125760, Note_on_c, 1, 81, 76
7, 125864, Note_on_c, 1, 81, 0
7, 125880, Note_on_c, 1, 79, 76
7, 125984, Note_on_c, 1, 79, 0
7, 126000, Note_on_c, 1, 81, 76
7, 126104, Note_on_c, 1, 81, 0
7, 126120, Note_on_c, 1, 82, 76
7, 126224, Note_on_c, 1, 82, 0
7, 126240, Note_on_c, 1, 81, 76
7, 126344, Note_on_c, 1, 81, 0
7, 126360, Note_on_c, 1, 79, 76
7, 126464, Note_on_c, 1, 79, 0
7, 126480, Note_on_c, 1, 77, 76
7, 126584, Note_on_c, 1, 77, 0
7, 126600, Note_on_c, 1, 76, 76
7, 126704, Note_on_c, 1, 76, 0
7, 126720, Note_on_c, 1, 77, 76
7, 126824, Note_on_c, 1, 77, 0
7, 126840, Note_on_c, 1, 79, 76
7, 126944, Note_on_c, 1, 79, 0
7, 126960, Note_on_c, 1, 77, 76
7, 127064, Note_on_c, 1, 77, 0
7, 127080, Note_on_c, 1, 76, 76
7, 127184, Note_on_c, 1, 76, 0
7, 127200, Note_on_c, 1, 74, 76
7, 127424, Note_on_c, 1, 74, 0
7, 127440, Note_on_c, 1, 83, 76
7, 127544, Note_on_c, 1, 83, 0
7, 127560, Note_on_c, 1, 84, 76
7, 127664, Note_on_c, 1, 84, 0
7, 127680, Note_on_c, 1, 86, 76
7, 127904, Note_on_c, 1, 86, 0
7, 127920, Note_on_c, 1, 80, 76
7, 128024, Note_on_c, 1, 80, 0
7, 128040, Note_on_c, 1, 81, 76
7, 128144, Note_on_c, 1, 81, 0
7, 128160, Note_on_c, 1, 83, 76
7, 128384, Note_on_c, 1, 83, 0
7, 128400, Note_on_c, 1, 74, 76
7, 128504, Note_on_c, 1, 74, 0
7, 128520, Note_on_c, 1, 76, 76
7, 128624, Note_on_c, 1, 76, 0
7, 128640, Note_on_c, 1, 77, 76
7, 128864, Note_on_c, 1, 77, 0
7, 128880, Note_on_c, 1, 71, 76
7, 128984, Note_on_c, 1, 71, 0
7, 129000, Note_on_c, 1, 72, 76
7, 129104, Note_on_c, 1, 72, 0
7, 129120, Note_on_c, 1, 74, 76
7, 129344, Note_on_c, 1, 74, 0
7, 129360, Note_on_c, 1, 68, 76
7, 129584, Note_on_c, 1, 68, 0
7, 129600, Note_on_c, 1, 69, 76
7, 129944, Note_on_c, 1, 69, 0
7, 129960, Note_on_c, 1, 71, 76
7, 130064, Note_on_c, 1, 71, 0
7, 130080, Note_on_c, 1, 71, 76
7, 130424, Note_on_c, 1, 71, 0
7, 130440, Note_on_c, 1, 69, 76
7, 130544, Note_on_c, 1, 69, 0
7, 130560, Note_on_c, 1, 69, 76
7, 131264, Note_on_c, 1, 69, 0
7, 131280, Note_on_c, 1, 76, 76
7, 131384, Note_on_c, 1, 76, 0
7, 131400, Note_on_c, 1, 77, 76
7, 131504, Note_on_c, 1, 77, 0
7, 131520, Note_on_c, 1, 79, 76
7, 131744, Note_on_c, 1, 79, 0
7, 131760, Note_on_c, 1, 84, 76
7, 132224, Note_on_c, 1, 84, 0
7, 132240, Note_on_c, 1, 79, 76
7, 132464, Note_on_c, 1, 79, 0
7, 132480, Note_on_c, 1, 76, 76
7, 132584, Note_on_c, 1, 76, 0
7, 132600, Note_on_c, 1, 74, 76
7, 132704, Note_on_c, 1, 74, 0
7, 132720, Note_on_c, 1, 76, 76
7, 132824, Note_on_c, 1, 76, 0
7, 132840, Note_on_c, 1, 77, 76
7, 132944, Note_on_c, 1, 77, 0
7, 132960, Note_on_c, 1, 79, 76
7, 133184, Note_on_c, 1, 79, 0
7, 133200, Note_on_c, 1, 70, 76
7, 133424, Note_on_c, 1, 70, 0
7, 133440, Note_on_c, 1, 69, 76
7, 133664, Note_on_c, 1, 69, 0
7, 133680, Note_on_c, 1, 74, 76
7, 133784, Note_on_c, 1, 74, 0
7, 133800, Note_on_c, 1, 72, 76
7, 133904, Note_on_c, 1, 72, 0
7, 133920, Note_on_c, 1, 70, 76
7, 134024, Note_on_c, 1, 70, 0
7, 134040, Note_on_c, 1, 69, 76
7, 134144, Note_on_c, 1, 69, 0
7, 134160, Note_on_c, 1, 70, 76
7, 134264, Note_on_c, 1, 70, 0
7, 134280, Note_on_c, 1, 67, 76
7, 134384, Note_on_c, 1, 67, 0
7, 134400, Note_on_c, 1, 69, 76
7, 134504, Note_on_c, 1, 69, 0
7, 134520, Note_on_c, 1, 70, 76
7, 134624, Note_on_c, 1, 70, 0
7, 134640, Note_on_c, 1, 69, 76
7, 134744, Note_on_c, 1, 69, 0
7, 134760, Note_on_c, 1, 67, 76
7, 134864, Note_on_c, 1, 67, 0
7, 134880, Note_on_c, 1, 65, 76
7, 135104, Note_on_c, 1, 65, 0
7, 135120, Note_on_c, 1, 77, 76
7, 135224, Note_on_c, 1, 77, 0
7, 135240, Note_on_c, 1, 79, 76
7, 135344, Note_on_c, 1, 79, 0
7, 135360, Note_on_c, 1, 81, 76
7, 135584, Note_on_c, 1, 81, 0
7, 135600, Note_on_c, 1, 74, 76
7, 135704, Note_on_c, 1, 74, 0
7, 135720, Note_on_c, 1, 76, 76
7, 135824, Note_on_c, 1, 76, 0
7, 135840, Note_on_c, 1, 77, 76
7, 136064, Note_on_c, 1, 77, 0
7, 136080, Note_on_c, 1, 71, 76
7, 136184, Note_on_c, 1, 71, 0
7, 136200, Note_on_c, 1, 72, 76
7, 136304, Note_on_c, 1, 72, 0
7, 136320, Note_on_c, 1, 74, 76
7, 136544, Note_on_c, 1, 74, 0
7, 136560, Note_on_c, 1, 67, 76
7, 136784, Note_on_c, 1, 67, 0
7, 136800, Note_on_c, 1, 79, 76
7, 137024, Note_on_c, 1, 79, 0
7, 137040, Note_on_c, 1, 71, 76
7, 137264, Note_on_c, 1, 71, 0
7, 137280, Note_on_c, 1, 72, 76
7, 137624, Note_on_c, 1, 72, 0
7, 137640, Note_on_c, 1, 74, 76
7, 137744, Note_on_c, 1, 74, 0
7, 137760, Note_on_c, 1, 74, 76
7, 138104, Note_on_c, 1, 74, 0
7, 138120, Note_on_c, 1, 72, 76
7, 138224, Note_on_c, 1, 72, 0
7, 138240, Note_on_c, 1, 72, 76
7, 138959, Note_on_c, 1, 72, 0
7, 138959, End_track
8, 0, Start_track
8, 0, Title_t, "Bassoon"
8, 0, MIDI_port, 0
8, 0, Program_c, 2, 70
8, 0, Control_c, 2, 10, 75
8, 0, Control_c, 2, 11, 127
8, 0, Control_c, 2, 7, 96
8, 720, Note_on_c, 2, 48, 76
8, 824, Note_on_c, 2, 48, 0
8, 840, Note_on_c, 2, 50, 76
8, 944, Note_on_c, 2, 50, 0
8, 960, Note_on_c, 2, 52, 76
8, 1184, Note_on_c, 2, 52, 0
8, 1200, Note_on_c, 2, 55, 76
8, 1424, Note_on_c, 2, 55, 0
8, 1440, Note_on_c, 2, 60, 76
8, 1664, Note_on_c, 2, 60, 0
8, 1680, Note_on_c, 2, 55, 76
8, 1904, Note_on_c, 2, 55, 0
8, 1920, Note_on_c, 2, 48, 76
8, 2144, Note_on_c, 2, 48, 0
8, 2160, Note_on_c, 2, 53, 76
8, 2384, Note_on_c, 2, 53, 0
8, 2400, Note_on_c, 2, 52, 76
8, 2624, Note_on_c, 2, 52, 0
8, 2640, Note_on_c, 2, 50, 76
8, 2864, Note_on_c, 2, 50, 0
8, 2880, Note_on_c, 2, 52, 76
8, 3104, Note_on_c, 2, 52, 0
8, 3120, Note_on_c, 2, 53, 76
8, 3344, Note_on_c, 2, 53, 0
8, 3360, Note_on_c, 2, 55, 76
8, 3584, Note_on_c, 2, 55, 0
8, 3600, Note_on_c, 2, 57, 76
8, 3824, Note_on_c, 2, 57, 0
8, 3840, Note_on_c, 2, 59, 76
8, 4064, Note_on_c, 2, 59, 0
8, 4080, Note_on_c, 2, 60, 76
8, 4304, Note_on_c, 2, 60, 0
8, 4320, Note_on_c, 2, 59, 76
8, 4544, Note_on_c, 2, 59, 0
8, 4560, Note_on_c, 2, 57, 76
8, 4784, Note_on_c, 2, 57, 0
8, 4800, Note_on_c, 2, 55, 76
8, 5024, Note_on_c, 2, 55, 0
8, 5040, Note_on_c, 2, 54, 76
8, 5264, Note_on_c, 2, 54, 0
8, 5280, Note_on_c, 2, 52, 76
8, 5504, Note_on_c, 2, 52, 0
8, 5520, Note_on_c, 2, 50, 76
8, 5744, Note_on_c, 2, 50, 0
8, 5760, Note_on_c, 2, 52, 76
8, 5984, Note_on_c, 2, 52, 0
8, 6000, Note_on_c, 2, 54, 76
8, 6224, Note_on_c, 2, 54, 0
8, 6240, Note_on_c, 2, 55, 76
8, 6464, Note_on_c, 2, 55, 0
8, 6480, Note_on_c, 2, 48, 76
8, 6704, Note_on_c, 2, 48, 0
8, 6720, Note_on_c, 2, 50, 76
8, 6944, Note_on_c, 2, 50, 0
8, 6960, Note_on_c, 2, 38, 76
8, 7184, Note_on_c, 2, 38, 0
8, 7200, Note_on_c, 2, 43, 76
8, 7424, Note_on_c, 2, 43, 0
8, 7440, Note_on_c, 2, 50, 76
8, 7664, Note_on_c, 2, 50, 0
8, 7680, Note_on_c, 2, 55, 76
8, 7919, Note_on_c, 2, 55, 0
8, 8400, Note_on_c, 2, 48, 76
8, 8504, Note_on_c, 2, 48, 0
8, 8520, Note_on_c, 2, 50, 76
8, 8624, Note_on_c, 2, 50, 0
8, 8640, Note_on_c, 2, 52, 76
8, 8864, Note_on_c, 2, 52, 0
8, 8880, Note_on_c, 2, 55, 76
8, 9104, Note_on_c, 2, 55, 0
8, 9120, Note_on_c, 2, 60, 76
8, 9344, Note_on_c, 2, 60, 0
8, 9360, Note_on_c, 2, 55, 76
8, 9584, Note_on_c, 2, 55, 0
8, 9600, Note_on_c, 2, 48, 76
8, 9824, Note_on_c, 2, 48, 0
8, 9840, Note_on_c, 2, 53, 76
8, 10064, Note_on_c, 2, 53, 0
8, 10080, Note_on_c, 2, 52, 76
8, 10304, Note_on_c, 2, 52, 0
8, 10320, Note_on_c, 2, 50, 76
8, 10544, Note_on_c, 2, 50, 0
8, 10560, Note_on_c, 2, 52, 76
8, 10784, Note_on_c, 2, 52, 0
8, 10800, Note_on_c, 2, 53, 76
8, 11024, Note_on_c, 2, 53, 0
8, 11040, Note_on_c, 2, 55, 76
8, 11264, Note_on_c, 2, 55, 0
8, 11280, Note_on_c, 2, 57, 76
8, 11504, Note_on_c, 2, 57, 0
8, 11520, Note_on_c, 2, 59, 76
8, 11744, Note_on_c, 2, 59, 0
8, 11760, Note_on_c, 2, 60, 76
8, 11984, Note_on_c, 2, 60, 0
8, 12000, Note_on_c, 2, 59, 76
8, 12224, Note_on_c, 2, 59, 0
8, 12240, Note_on_c, 2, 57, 76
8, 12464, Note_on_c, 2, 57, 0
8, 12480, Note_on_c, 2, 55, 76
8, 12704, Note_on_c, 2, 55, 0
8, 12720, Note_on_c, 2, 54, 76
8, 12944, Note_on_c, 2, 54, 0
8, 12960, Note_on_c, 2, 52, 76
8, 13184, Note_on_c, 2, 52, 0
8, 13200, Note_on_c, 2, 50, 76
8, 13424, Note_on_c, 2, 50, 0
8, 13440, Note_on_c, 2, 52, 76
8, 13664, Note_on_c, 2, 52, 0
8, 13680, Note_on_c, 2, 54, 76
8, 13904, Note_on_c, 2, 54, 0
8, 13920, Note_on_c, 2, 55, 76
8, 14144, Note_on_c, 2, 55, 0
8, 14160, Note_on_c, 2, 48, 76
8, 14384, Note_on_c, 2, 48, 0
8, 14400, Note_on_c, 2, 50, 76
8, 14624, Note_on_c, 2, 50, 0
8, 14640, Note_on_c, 2, 38, 76
8, 14864, Note_on_c, 2, 38, 0
8, 14880, Note_on_c, 2, 43, 76
8, 15104, Note_on_c, 2, 43, 0
8, 15120, Note_on_c, 2, 50, 76
8, 15344, Note_on_c, 2, 50, 0
8, 15360, Note_on_c, 2, 55, 76
8, 15599, Note_on_c, 2, 55, 0
8, 16080, Note_on_c, 2, 55, 76
8, 16184, Note_on_c, 2, 55, 0
8, 16200, Note_on_c, 2, 53, 76
8, 16304, Note_on_c, 2, 53, 0
8, 16320, Note_on_c, 2, 52, 76
8, 16544, Note_on_c, 2, 52, 0
8, 16560, Note_on_c, 2, 55, 76
8, 16784, Note_on_c, 2, 55, 0
8, 16800, Note_on_c, 2, 57, 76
8, 17024, Note_on_c, 2, 57, 0
8, 17040, Note_on_c, 2, 45, 76
8, 17264, Note_on_c, 2, 45, 0
8, 17280, Note_on_c, 2, 57, 76
8, 17504, Note_on_c, 2, 57, 0
8, 17520, Note_on_c, 2, 55, 76
8, 17744, Note_on_c, 2, 55, 0
8, 17760, Note_on_c, 2, 53, 76
8, 17984, Note_on_c, 2, 53, 0
8, 18000, Note_on_c, 2, 55, 76
8, 18224, Note_on_c, 2, 55, 0
8, 18240, Note_on_c, 2, 57, 76
8, 18464, Note_on_c, 2, 57, 0
8, 18480, Note_on_c, 2, 45, 76
8, 18704, Note_on_c, 2, 45, 0
8, 18720, Note_on_c, 2, 50, 76
8, 18944, Note_on_c, 2, 50, 0
8, 18960, Note_on_c, 2, 45, 76
8, 19184, Note_on_c, 2, 45, 0
8, 19200, Note_on_c, 2, 38, 76
8, 19424, Note_on_c, 2, 38, 0
8, 19440, Note_on_c, 2, 56, 76
8, 19544, Note_on_c, 2, 56, 0
8, 19560, Note_on_c, 2, 57, 76
8, 19664, Note_on_c, 2, 57, 0
8, 19680, Note_on_c, 2, 59, 76
8, 19904, Note_on_c, 2, 59, 0
8, 19920, Note_on_c, 2, 59, 76
8, 20024, Note_on_c, 2, 59, 0
8, 20040, Note_on_c, 2, 60, 76
8, 20144, Note_on_c, 2, 60, 0
8, 20160, Note_on_c, 2, 62, 76
8, 20399, Note_on_c, 2, 62, 0
8, 21360, Note_on_c, 2, 50, 76
8, 21584, Note_on_c, 2, 50, 0
8, 21600, Note_on_c, 2, 48, 76
8, 21704, Note_on_c, 2, 48, 0
8, 21720, Note_on_c, 2, 47, 76
8, 21824, Note_on_c, 2, 47, 0
8, 21840, Note_on_c, 2, 48, 76
8, 21944, Note_on_c, 2, 48, 0
8, 21960, Note_on_c, 2, 50, 76
8, 22064, Note_on_c, 2, 50, 0
8, 22080, Note_on_c, 2, 52, 76
8, 22304, Note_on_c, 2, 52, 0
8, 22320, Note_on_c, 2, 40, 76
8, 22544, Note_on_c, 2, 40, 0
8, 22560, Note_on_c, 2, 45, 76
8, 22784, Note_on_c, 2, 45, 0
8, 22800, Note_on_c, 2, 52, 76
8, 23024, Note_on_c, 2, 52, 0
8, 23040, Note_on_c, 2, 57, 76
8, 23279, Note_on_c, 2, 57, 0
8, 23760, Note_on_c, 2, 48, 76
8, 23864, Note_on_c, 2, 48, 0
8, 23880, Note_on_c, 2, 50, 76
8, 23984, Note_on_c, 2, 50, 0
8, 24000, Note_on_c, 2, 52, 76
8, 24224, Note_on_c, 2, 52, 0
8, 24240, Note_on_c, 2, 52, 76
8, 24344, Note_on_c, 2, 52, 0
8, 24360, Note_on_c, 2, 53, 76
8, 24464, Note_on_c, 2, 53, 0
8, 24480, Note_on_c, 2, 55, 76
8, 24704, Note_on_c, 2, 55, 0
8, 24720, Note_on_c, 2, 55, 76
8, 24824, Note_on_c, 2, 55, 0
8, 24840, Note_on_c, 2, 57, 76
8, 24944, Note_on_c, 2, 57, 0
8, 24960, Note_on_c, 2, 58, 76
8, 25184, Note_on_c, 2, 58, 0
8, 25200, Note_on_c, 2, 52, 76
8, 25424, Note_on_c, 2, 52, 0
8, 25440, Note_on_c, 2, 53, 76
8, 25664, Note_on_c, 2, 53, 0
8, 25680, Note_on_c, 2, 46, 76
8, 25904, Note_on_c, 2, 46, 0
8, 25920, Note_on_c, 2, 43, 76
8, 26144, Note_on_c, 2, 43, 0
8, 26160, Note_on_c, 2, 48, 76
8, 26384, Note_on_c, 2, 48, 0
8, 26400, Note_on_c, 2, 41, 76
8, 26624, Note_on_c, 2, 41, 0
8, 26640, Note_on_c, 2, 53, 76
8, 26744, Note_on_c, 2, 53, 0
8, 26760, Note_on_c, 2, 55, 76
8, 26864, Note_on_c, 2, 55, 0
8, 26880, Note_on_c, 2, 57, 76
8, 26984, Note_on_c, 2, 57, 0
8, 27000, Note_on_c, 2, 58, 76
8, 27104, Note_on_c, 2, 58, 0
8, 27120, Note_on_c, 2, 57, 76
8, 27224, Note_on_c, 2, 57, 0
8, 27240, Note_on_c, 2, 55, 76
8, 27344, Note_on_c, 2, 55, 0
8, 27360, Note_on_c, 2, 53, 76
8, 27464, Note_on_c, 2, 53, 0
8, 27480, Note_on_c, 2, 55, 76
8, 27584, Note_on_c, 2, 55, 0
8, 27600, Note_on_c, 2, 53, 76
8, 27704, Note_on_c, 2, 53, 0
8, 27720, Note_on_c, 2, 52, 76
8, 27824, Note_on_c, 2, 52, 0
8, 27840, Note_on_c, 2, 50, 76
8, 27944, Note_on_c, 2, 50, 0
8, 27960, Note_on_c, 2, 52, 76
8, 28064, Note_on_c, 2, 52, 0
8, 28080, Note_on_c, 2, 50, 76
8, 28184, Note_on_c, 2, 50, 0
8, 28200, Note_on_c, 2, 48, 76
8, 28304, Note_on_c, 2, 48, 0
8, 28320, Note_on_c, 2, 47, 76
8, 28424, Note_on_c, 2, 47, 0
8, 28440, Note_on_c, 2, 48, 76
8, 28544, Note_on_c, 2, 48, 0
8, 28560, Note_on_c, 2, 47, 76
8, 28664, Note_on_c, 2, 47, 0
8, 28680, Note_on_c, 2, 45, 76
8, 28784, Note_on_c, 2, 45, 0
8, 28800, Note_on_c, 2, 43, 76
8, 28904, Note_on_c, 2, 43, 0
8, 28920, Note_on_c, 2, 45, 76
8, 29024, Note_on_c, 2, 45, 0
8, 29040, Note_on_c, 2, 43, 76
8, 29144, Note_on_c, 2, 43, 0
8, 29160, Note_on_c, 2, 41, 76
8, 29264, Note_on_c, 2, 41, 0
8, 29280, Note_on_c, 2, 40, 76
8, 29504, Note_on_c, 2, 40, 0
8, 29520, Note_on_c, 2, 41, 76
8, 29744, Note_on_c, 2, 41, 0
8, 29760, Note_on_c, 2, 43, 76
8, 29984, Note_on_c, 2, 43, 0
8, 30000, Note_on_c, 2, 43, 76
8, 30224, Note_on_c, 2, 43, 0
8, 30240, Note_on_c, 2, 36, 76
8, 30959, Note_on_c, 2, 36, 0
8, 31440, Note_on_c, 2, 55, 76
8, 31544, Note_on_c, 2, 55, 0
8, 31560, Note_on_c, 2, 53, 76
8, 31664, Note_on_c, 2, 53, 0
8, 31680, Note_on_c, 2, 52, 76
8, 31904, Note_on_c, 2, 52, 0
8, 31920, Note_on_c, 2, 55, 76
8, 32144, Note_on_c, 2, 55, 0
8, 32160, Note_on_c, 2, 57, 76
8, 32384, Note_on_c, 2, 57, 0
8, 32400, Note_on_c, 2, 45, 76
8, 32624, Note_on_c, 2, 45, 0
8, 32640, Note_on_c, 2, 57, 76
8, 32864, Note_on_c, 2, 57, 0
8, 32880, Note_on_c, 2, 55, 76
8, 33104, Note_on_c, 2, 55, 0
8, 33120, Note_on_c, 2, 53, 76
8, 33344, Note_on_c, 2, 53, 0
8, 33360, Note_on_c, 2, 55, 76
8, 33584, Note_on_c, 2, 55, 0
8, 33600, Note_on_c, 2, 57, 76
8, 33824, Note_on_c, 2, 57, 0
8, 33840, Note_on_c, 2, 45, 76
8, 34064, Note_on_c, 2, 45, 0
8, 34080, Note_on_c, 2, 50, 76
8, 34304, Note_on_c, 2, 50, 0
8, 34320, Note_on_c, 2, 45, 76
8, 34544, Note_on_c, 2, 45, 0
8, 34560, Note_on_c, 2, 38, 76
8, 34784, Note_on_c, 2, 38, 0
8, 34800, Note_on_c, 2, 56, 76
8, 34904, Note_on_c, 2, 56, 0
8, 34920, Note_on_c, 2, 57, 76
8, 35024, Note_on_c, 2, 57, 0
8, 35040, Note_on_c, 2, 59, 76
8, 35264, Note_on_c, 2, 59, 0
8, 35280, Note_on_c, 2, 59, 76
8, 35384, Note_on_c, 2, 59, 0
8, 35400, Note_on_c, 2, 60, 76
8, 35504, Note_on_c, 2, 60, 0
8, 35520, Note_on_c, 2, 62, 76
8, 35759, Note_on_c, 2, 62, 0
8, 36720, Note_on_c, 2, 50, 76
8, 36944, Note_on_c, 2, 50, 0
8, 36960, Note_on_c, 2, 48, 76
8, 37064, Note_on_c, 2, 48, 0
8, 37080, Note_on_c, 2, 47, 76
8, 37184, Note_on_c, 2, 47, 0
8, 37200, Note_on_c, 2, 48, 76
8, 37304, Note_on_c, 2, 48, 0
8, 37320, Note_on_c, 2, 50, 76
8, 37424, Note_on_c, 2, 50, 0
8, 37440, Note_on_c, 2, 52, 76
8, 37664, Note_on_c, 2, 52, 0
8, 37680, Note_on_c, 2, 40, 76
8, 37904, Note_on_c, 2, 40, 0
8, 37920, Note_on_c, 2, 45, 76
8, 38144, Note_on_c, 2, 45, 0
8, 38160, Note_on_c, 2, 52, 76
8, 38384, Note_on_c, 2, 52, 0
8, 38400, Note_on_c, 2, 57, 76
8, 38639, Note_on_c, 2, 57, 0
8, 39120, Note_on_c, 2, 48, 76
8, 39224, Note_on_c, 2, 48, 0
8, 39240, Note_on_c, 2, 50, 76
8, 39344, Note_on_c, 2, 50, 0
8, 39360, Note_on_c, 2, 52, 76
8, 39584, Note_on_c, 2, 52, 0
8, 39600, Note_on_c, 2, 52, 76
8, 39704, Note_on_c, 2, 52, 0
8, 39720, Note_on_c, 2, 53, 76
8, 39824, Note_on_c, 2, 53, 0
8, 39840, Note_on_c, 2, 55, 76
8, 40064, Note_on_c, 2, 55, 0
8, 40080, Note_on_c, 2, 55, 76
8, 40184, Note_on_c, 2, 55, 0
8, 40200, Note_on_c, 2, 57, 76
8, 40304, Note_on_c, 2, 57, 0
8, 40320, Note_on_c, 2, 58, 76
8, 40544, Note_on_c, 2, 58, 0
8, 40560, Note_on_c, 2, 52, 76
8, 40784, Note_on_c, 2, 52, 0
8, 40800, Note_on_c, 2, 53, 76
8, 41024, Note_on_c, 2, 53, 0
8, 41040, Note_on_c, 2, 46, 76
8, 41264, Note_on_c, 2, 46, 0
8, 41280, Note_on_c, 2, 43, 76
8, 41504, Note_on_c, 2, 43, 0
8, 41520, Note_on_c, 2, 48, 76
8, 41744, Note_on_c, 2, 48, 0
8, 41760, Note_on_c, 2, 41, 76
8, 41984, Note_on_c, 2, 41, 0
8, 42000, Note_on_c, 2, 53, 76
8, 42104, Note_on_c, 2, 53, 0
8, 42120, Note_on_c, 2, 55, 76
8, 42224, Note_on_c, 2, 55, 0
8, 42240, Note_on_c, 2, 57, 76
8, 42344, Note_on_c, 2, 57, 0
8, 42360, Note_on_c, 2, 58, 76
8, 42464, Note_on_c, 2, 58, 0
8, 42480, Note_on_c, 2, 57, 76
8, 42584, Note_on_c, 2, 57, 0
8, 42600, Note_on_c, 2, 55, 76
8, 42704, Note_on_c, 2, 55, 0
8, 42720, Note_on_c, 2, 53, 76
8, 42824, Note_on_c, 2, 53, 0
8, 42840, Note_on_c, 2, 55, 76
8, 42944, Note_on_c, 2, 55, 0
8, 42960, Note_on_c, 2, 53, 76
8, 43064, Note_on_c, 2, 53, 0
8, 43080, Note_on_c, 2, 52, 76
8, 43184, Note_on_c, 2, 52, 0
8, 43200, Note_on_c, 2, 50, 76
8, 43304, Note_on_c, 2, 50, 0
8, 43320, Note_on_c, 2, 52, 76
8, 43424, Note_on_c, 2, 52, 0
8, 43440, Note_on_c, 2, 50, 76
8, 43544, Note_on_c, 2, 50, 0
8, 43560, Note_on_c, 2, 48, 76
8, 43664, Note_on_c, 2, 48, 0
8, 43680, Note_on_c, 2, 47, 76
8, 43784, Note_on_c, 2, 47, 0
8, 43800, Note_on_c, 2, 48, 76
8, 43904, Note_on_c, 2, 48, 0
8, 43920, Note_on_c, 2, 47, 76
8, 44024, Note_on_c, 2, 47, 0
8, 44040, Note_on_c, 2, 45, 76
8, 44144, Note_on_c, 2, 45, 0
8, 44160, Note_on_c, 2, 43, 76
8, 44264, Note_on_c, 2, 43, 0
8, 44280, Note_on_c, 2, 45, 76
8, 44384, Note_on_c, 2, 45, 0
8, 44400, Note_on_c, 2, 43, 76
8, 44504, Note_on_c, 2, 43, 0
8, 44520, Note_on_c, 2, 41, 76
8, 44624, Note_on_c, 2, 41, 0
8, 44640, Note_on_c, 2, 40, 76
8, 44864, Note_on_c, 2, 40, 0
8, 44880, Note_on_c, 2, 41, 76
8, 45104, Note_on_c, 2, 41, 0
8, 45120, Note_on_c, 2, 43, 76
8, 45344, Note_on_c, 2, 43, 0
8, 45360, Note_on_c, 2, 43, 76
8, 45584, Note_on_c, 2, 43, 0
8, 45600, Note_on_c, 2, 36, 76
8, 46319, Note_on_c, 2, 36, 0
8, 46560, Note_on_c, 2, 60, 76
8, 46784, Note_on_c, 2, 60, 0
8, 46800, Note_on_c, 2, 53, 76
8, 47264, Note_on_c, 2, 53, 0
8, 47280, Note_on_c, 2, 55, 76
8, 47744, Note_on_c, 2, 55, 0
8, 47760, Note_on_c, 2, 51, 76
8, 47984, Note_on_c, 2, 51, 0
8, 48000, Note_on_c, 2, 50, 76
8, 48104, Note_on_c, 2, 50, 0
8, 48120, Note_on_c, 2, 48, 76
8, 48224, Note_on_c, 2, 48, 0
8, 48240, Note_on_c, 2, 47, 76
8, 48464, Note_on_c, 2, 47, 0
8, 48480, Note_on_c, 2, 43, 76
8, 48704, Note_on_c, 2, 43, 0
8, 48720, Note_on_c, 2, 48, 76
8, 48944, Note_on_c, 2, 48, 0
8, 48960, Note_on_c, 2, 44, 76
8, 49064, Note_on_c, 2, 44, 0
8, 49080, Note_on_c, 2, 41, 76
8, 49184, Note_on_c, 2, 41, 0
8, 49200, Note_on_c, 2, 43, 76
8, 49424, Note_on_c, 2, 43, 0
8, 49440, Note_on_c, 2, 43, 76
8, 49664, Note_on_c, 2, 43, 0
8, 49680, Note_on_c, 2, 48, 76
8, 49904, Note_on_c, 2, 48, 0
8, 49920, Note_on_c, 2, 43, 76
8, 50144, Note_on_c, 2, 43, 0
8, 50160, Note_on_c, 2, 39, 76
8, 50384, Note_on_c, 2, 39, 0
8, 50400, Note_on_c, 2, 36, 76
8, 50624, Note_on_c, 2, 36, 0
8, 50640, Note_on_c, 2, 41, 76
8, 51104, Note_on_c, 2, 41, 0
8, 51120, Note_on_c, 2, 43, 76
8, 51344, Note_on_c, 2, 43, 0
8, 51360, Note_on_c, 2, 55, 76
8, 51824, Note_on_c, 2, 55, 0
8, 51840, Note_on_c, 2, 53, 76
8, 51944, Note_on_c, 2, 53, 0
8, 51960, Note_on_c, 2, 51, 76
8, 52064, Note_on_c, 2, 51, 0
8, 52080, Note_on_c, 2, 50, 76
8, 52304, Note_on_c, 2, 50, 0
8, 52320, Note_on_c, 2, 46, 76
8, 52544, Note_on_c, 2, 46, 0
8, 52560, Note_on_c, 2, 51, 76
8, 52784, Note_on_c, 2, 51, 0
8, 52800, Note_on_c, 2, 48, 76
8, 52904, Note_on_c, 2, 48, 0
8, 52920, Note_on_c, 2, 44, 76
8, 53024, Note_on_c, 2, 44, 0
8, 53040, Note_on_c, 2, 46, 76
8, 53264, Note_on_c, 2, 46, 0
8, 53280, Note_on_c, 2, 46, 76
8, 53504, Note_on_c, 2, 46, 0
8, 53520, Note_on_c, 2, 39, 76
8, 54224, Note_on_c, 2, 39, 0
8, 54240, Note_on_c, 2, 60, 76
8, 54464, Note_on_c, 2, 60, 0
8, 54480, Note_on_c, 2, 53, 76
8, 54944, Note_on_c, 2, 53, 0
8, 54960, Note_on_c, 2, 55, 76
8, 55424, Note_on_c, 2, 55, 0
8, 55440, Note_on_c, 2, 51, 76
8, 55664, Note_on_c, 2, 51, 0
8, 55680, Note_on_c, 2, 50, 76
8, 55784, Note_on_c, 2, 50, 0
8, 55800, Note_on_c, 2, 48, 76
8, 55904, Note_on_c, 2, 48, 0
8, 55920, Note_on_c, 2, 47, 76
8, 56144, Note_on_c, 2, 47, 0
8, 56160, Note_on_c, 2, 43, 76
8, 56384, Note_on_c, 2, 43, 0
8, 56400, Note_on_c, 2, 48, 76
8, 56624, Note_on_c, 2, 48, 0
8, 56640, Note_on_c, 2, 44, 76
8, 56744, Note_on_c, 2, 44, 0
8, 56760, Note_on_c, 2, 41, 76
8, 56864, Note_on_c, 2, 41, 0
8, 56880, Note_on_c, 2, 43, 76
8, 57104, Note_on_c, 2, 43, 0
8, 57120, Note_on_c, 2, 43, 76
8, 57344, Note_on_c, 2, 43, 0
8, 57360, Note_on_c, 2, 48, 76
8, 57584, Note_on_c, 2, 48, 0
8, 57600, Note_on_c, 2, 43, 76
8, 57824, Note_on_c, 2, 43, 0
8, 57840, Note_on_c, 2, 39, 76
8, 58064, Note_on_c, 2, 39, 0
8, 58080, Note_on_c, 2, 36, 76
8, 58304, Note_on_c, 2, 36, 0
8, 58320, Note_on_c, 2, 41, 76
8, 58784, Note_on_c, 2, 41, 0
8, 58800, Note_on_c, 2, 43, 76
8, 59024, Note_on_c, 2, 43, 0
8, 59040, Note_on_c, 2, 55, 76
8, 59504, Note_on_c, 2, 55, 0
8, 59520, Note_on_c, 2, 53, 76
8, 59624, Note_on_c, 2, 53, 0
8, 59640, Note_on_c, 2, 51, 76
8, 59744, Note_on_c, 2, 51, 0
8, 59760, Note_on_c, 2, 50, 76
8, 59984, Note_on_c, 2, 50, 0
8, 60000, Note_on_c, 2, 46, 76
8, 60224, Note_on_c, 2, 46, 0
8, 60240, Note_on_c, 2, 51, 76
8, 60464, Note_on_c, 2, 51, 0
8, 60480, Note_on_c, 2, 48, 76
8, 60584, Note_on_c, 2, 48, 0
8, 60600, Note_on_c, 2, 44, 76
8, 60704, Note_on_c, 2, 44, 0
8, 60720, Note_on_c, 2, 46, 76
8, 60944, Note_on_c, 2, 46, 0
8, 60960, Note_on_c, 2, 46, 76
8, 61184, Note_on_c, 2, 46, 0
8, 61200, Note_on_c, 2, 39, 76
8, 61904, Note_on_c, 2, 39, 0
8, 61920, Note_on_c, 2, 51, 76
8, 62144, Note_on_c, 2, 51, 0
8, 62160, Note_on_c, 2, 50, 76
8, 62624, Note_on_c, 2, 50, 0
8, 62640, Note_on_c, 2, 48, 76
8, 63104, Note_on_c, 2, 48, 0
8, 63120, Note_on_c, 2, 46, 76
8, 63344, Note_on_c, 2, 46, 0
8, 63360, Note_on_c, 2, 58, 76
8, 63584, Note_on_c, 2, 58, 0
8, 63600, Note_on_c, 2, 56, 76
8, 63824, Note_on_c, 2, 56, 0
8, 63840, Note_on_c, 2, 55, 76
8, 64064, Note_on_c, 2, 55, 0
8, 64080, Note_on_c, 2, 53, 76
8, 64304, Note_on_c, 2, 53, 0
8, 64320, Note_on_c, 2, 49, 76
8, 64424, Note_on_c, 2, 49, 0
8, 64440, Note_on_c, 2, 46, 76
8, 64544, Note_on_c, 2, 46, 0
8, 64560, Note_on_c, 2, 48, 76
8, 64784, Note_on_c, 2, 48, 0
8, 64800, Note_on_c, 2, 36, 76
8, 65024, Note_on_c, 2, 36, 0
8, 65040, Note_on_c, 2, 41, 76
8, 65264, Note_on_c, 2, 41, 0
8, 65280, Note_on_c, 2, 53, 76
8, 65504, Note_on_c, 2, 53, 0
8, 65520, Note_on_c, 2, 47, 76
8, 65744, Note_on_c, 2, 47, 0
8, 65760, Note_on_c, 2, 55, 76
8, 65984, Note_on_c, 2, 55, 0
8, 66000, Note_on_c, 2, 60, 76
8, 66464, Note_on_c, 2, 60, 0
8, 66480, Note_on_c, 2, 59, 76
8, 66944, Note_on_c, 2, 59, 0
8, 66960, Note_on_c, 2, 60, 76
8, 67424, Note_on_c, 2, 60, 0
8, 67440, Note_on_c, 2, 57, 76
8, 67904, Note_on_c, 2, 57, 0
8, 67920, Note_on_c, 2, 58, 76
8, 68144, Note_on_c, 2, 58, 0
8, 68160, Note_on_c, 2, 60, 76
8, 68384, Note_on_c, 2, 60, 0
8, 68400, Note_on_c, 2, 62, 76
8, 68624, Note_on_c, 2, 62, 0
8, 68640, Note_on_c, 2, 50, 76
8, 68864, Note_on_c, 2, 50, 0
8, 68880, Note_on_c, 2, 55, 76
8, 69104, Note_on_c, 2, 55, 0
8, 69120, Note_on_c, 2, 50, 76
8, 69344, Note_on_c, 2, 50, 0
8, 69360, Note_on_c, 2, 43, 76
8, 69584, Note_on_c, 2, 43, 0
8, 69600, Note_on_c, 2, 53, 76
8, 69824, Note_on_c, 2, 53, 0
8, 69840, Note_on_c, 2, 52, 76
8, 70304, Note_on_c, 2, 52, 0
8, 70320, Note_on_c, 2, 55, 76
8, 70784, Note_on_c, 2, 55, 0
8, 70800, Note_on_c, 2, 48, 76
8, 71024, Note_on_c, 2, 48, 0
8, 71040, Note_on_c, 2, 56, 76
8, 71264, Note_on_c, 2, 56, 0
8, 71280, Note_on_c, 2, 50, 76
8, 71504, Note_on_c, 2, 50, 0
8, 71520, Note_on_c, 2, 59, 76
8, 71744, Note_on_c, 2, 59, 0
8, 71760, Note_on_c, 2, 51, 76
8, 71984, Note_on_c, 2, 51, 0
8, 72000, Note_on_c, 2, 60, 76
8, 72224, Note_on_c, 2, 60, 0
8, 72240, Note_on_c, 2, 53, 76
8, 72464, Note_on_c, 2, 53, 0
8, 72480, Note_on_c, 2, 62, 76
8, 72704, Note_on_c, 2, 62, 0
8, 72720, Note_on_c, 2, 55, 76
8, 72944, Note_on_c, 2, 55, 0
8, 72960, Note_on_c, 2, 53, 76
8, 73184, Note_on_c, 2, 53, 0
8, 73200, Note_on_c, 2, 51, 76
8, 73424, Note_on_c, 2, 51, 0
8, 73440, Note_on_c, 2, 50, 76
8, 73664, Note_on_c, 2, 50, 0
8, 73680, Note_on_c, 2, 48, 76
8, 74144, Note_on_c, 2, 48, 0
8, 74160, Note_on_c, 2, 43, 76
8, 74624, Note_on_c, 2, 43, 0
8, 74640, Note_on_c, 2, 51, 76
8, 74864, Note_on_c, 2, 51, 0
8, 74880, Note_on_c, 2, 50, 76
8, 74984, Note_on_c, 2, 50, 0
8, 75000, Note_on_c, 2, 48, 76
8, 75104, Note_on_c, 2, 48, 0
8, 75120, Note_on_c, 2, 47, 76
8, 75344, Note_on_c, 2, 47, 0
8, 75360, Note_on_c, 2, 43, 76
8, 75584, Note_on_c, 2, 43, 0
8, 75600, Note_on_c, 2, 48, 76
8, 75824, Note_on_c, 2, 48, 0
8, 75840, Note_on_c, 2, 44, 76
8, 75944, Note_on_c, 2, 44, 0
8, 75960, Note_on_c, 2, 41, 76
8, 76064, Note_on_c, 2, 41, 0
8, 76080, Note_on_c, 2, 43, 76
8, 76304, Note_on_c, 2, 43, 0
8, 76320, Note_on_c, 2, 43, 76
8, 76544, Note_on_c, 2, 43, 0
8, 76560, Note_on_c, 2, 36, 76
8, 77264, Note_on_c, 2, 36, 0
8, 77280, Note_on_c, 2, 51, 76
8, 77504, Note_on_c, 2, 51, 0
8, 77520, Note_on_c, 2, 50, 76
8, 77984, Note_on_c, 2, 50, 0
8, 78000, Note_on_c, 2, 48, 76
8, 78464, Note_on_c, 2, 48, 0
8, 78480, Note_on_c, 2, 46, 76
8, 78704, Note_on_c, 2, 46, 0
8, 78720, Note_on_c, 2, 58, 76
8, 78944, Note_on_c, 2, 58, 0
8, 78960, Note_on_c, 2, 56, 76
8, 79184, Note_on_c, 2, 56, 0
8, 79200, Note_on_c, 2, 55, 76
8, 79424, Note_on_c, 2, 55, 0
8, 79440, Note_on_c, 2, 53, 76
8, 79664, Note_on_c, 2, 53, 0
8, 79680, Note_on_c, 2, 49, 76
8, 79784, Note_on_c, 2, 49, 0
8, 79800, Note_on_c, 2, 46, 76
8, 79904, Note_on_c, 2, 46, 0
8, 79920, Note_on_c, 2, 48, 76
8, 80144, Note_on_c, 2, 48, 0
8, 80160, Note_on_c, 2, 36, 76
8, 80384, Note_on_c, 2, 36, 0
8, 80400, Note_on_c, 2, 41, 76
8, 80624, Note_on_c, 2, 41, 0
8, 80640, Note_on_c, 2, 53, 76
8, 80864, Note_on_c, 2, 53, 0
8, 80880, Note_on_c, 2, 47, 76
8, 81104, Note_on_c, 2, 47, 0
8, 81120, Note_on_c, 2, 55, 76
8, 81344, Note_on_c, 2, 55, 0
8, 81360, Note_on_c, 2, 60, 76
8, 81824, Note_on_c, 2, 60, 0
8, 81840, Note_on_c, 2, 59, 76
8, 82304, Note_on_c, 2, 59, 0
8, 82320, Note_on_c, 2, 60, 76
8, 82784, Note_on_c, 2, 60, 0
8, 82800, Note_on_c, 2, 57, 76
8, 83264, Note_on_c, 2, 57, 0
8, 83280, Note_on_c, 2, 58, 76
8, 83504, Note_on_c, 2, 58, 0
8, 83520, Note_on_c, 2, 60, 76
8, 83744, Note_on_c, 2, 60, 0
8, 83760, Note_on_c, 2, 62, 76
8, 83984, Note_on_c, 2, 62, 0
8, 84000, Note_on_c, 2, 50, 76
8, 84224, Note_on_c, 2, 50, 0
8, 84240, Note_on_c, 2, 55, 76
8, 84464, Note_on_c, 2, 55, 0
8, 84480, Note_on_c, 2, 50, 76
8, 84704, Note_on_c, 2, 50, 0
8, 84720, Note_on_c, 2, 43, 76
8, 84944, Note_on_c, 2, 43, 0
8, 84960, Note_on_c, 2, 53, 76
8, 85184, Note_on_c, 2, 53, 0
8, 85200, Note_on_c, 2, 52, 76
8, 85664, Note_on_c, 2, 52, 0
8, 85680, Note_on_c, 2, 55, 76
8, 86144, Note_on_c, 2, 55, 0
8, 86160, Note_on_c, 2, 48, 76
8, 86384, Note_on_c, 2, 48, 0
8, 86400, Note_on_c, 2, 56, 76
8, 86624, Note_on_c, 2, 56, 0
8, 86640, Note_on_c, 2, 50, 76
8, 86864, Note_on_c, 2, 50, 0
8, 86880, Note_on_c, 2, 59, 76
8, 87104, Note_on_c, 2, 59, 0
8, 87120, Note_on_c, 2, 51, 76
8, 87344, Note_on_c, 2, 51, 0
8, 87360, Note_on_c, 2, 60, 76
8, 87584, Note_on_c, 2, 60, 0
8, 87600, Note_on_c, 2, 53, 76
8, 87824, Note_on_c, 2, 53, 0
8, 87840, Note_on_c, 2, 62, 76
8, 88064, Note_on_c, 2, 62, 0
8, 88080, Note_on_c, 2, 55, 76
8, 88304, Note_on_c, 2, 55, 0
8, 88320, Note_on_c, 2, 53, 76
8, 88544, Note_on_c, 2, 53, 0
8, 88560, Note_on_c, 2, 51, 76
8, 88784, Note_on_c, 2, 51, 0
8, 88800, Note_on_c, 2, 50, 76
8, 89024, Note_on_c, 2, 50, 0
8, 89040, Note_on_c, 2, 48, 76
8, 89504, Note_on_c, 2, 48, 0
8, 89520, Note_on_c, 2, 43, 76
8, 89984, Note_on_c, 2, 43, 0
8, 90000, Note_on_c, 2, 51, 76
8, 90224, Note_on_c, 2, 51, 0
8, 90240, Note_on_c, 2, 50, 76
8, 90344, Note_on_c, 2, 50, 0
8, 90360, Note_on_c, 2, 48, 76
8, 90464, Note_on_c, 2, 48, 0
8, 90480, Note_on_c, 2, 47, 76
8, 90704, Note_on_c, 2, 47, 0
8, 90720, Note_on_c, 2, 43, 76
8, 90944, Note_on_c, 2, 43, 0
8, 90960, Note_on_c, 2, 48, 76
8, 91184, Note_on_c, 2, 48, 0
8, 91200, Note_on_c, 2, 44, 76
8, 91304, Note_on_c, 2, 44, 0
8, 91320, Note_on_c, 2, 41, 76
8, 91424, Note_on_c, 2, 41, 0
8, 91440, Note_on_c, 2, 43, 76
8, 91664, Note_on_c, 2, 43, 0
8, 91680, Note_on_c, 2, 43, 76
8, 91904, Note_on_c, 2, 43, 0
8, 91920, Note_on_c, 2, 36, 76
8, 92639, Note_on_c, 2, 36, 0
8, 93360, Note_on_c, 2, 48, 76
8, 93464, Note_on_c, 2, 48, 0
8, 93480, Note_on_c, 2, 50, 76
8, 93584, Note_on_c, 2, 50, 0
8, 93600, Note_on_c, 2, 52, 76
8, 93824, Note_on_c, 2, 52, 0
8, 93840, Note_on_c, 2, 55, 76
8, 94064, Note_on_c, 2, 55, 0
8, 94080, Note_on_c, 2, 60, 76
8, 94304, Note_on_c, 2, 60, 0
8, 94320, Note_on_c, 2, 55, 76
8, 94544, Note_on_c, 2, 55, 0
8, 94560, Note_on_c, 2, 48, 76
8, 94784, Note_on_c, 2, 48, 0
8, 94800, Note_on_c, 2, 53, 76
8, 95024, Note_on_c, 2, 53, 0
8, 95040, Note_on_c, 2, 52, 76
8, 95264, Note_on_c, 2, 52, 0
8, 95280, Note_on_c, 2, 50, 76
8, 95504, Note_on_c, 2, 50, 0
8, 95520, Note_on_c, 2, 52, 76
8, 95744, Note_on_c, 2, 52, 0
8, 95760, Note_on_c, 2, 53, 76
8, 95984, Note_on_c, 2, 53, 0
8, 96000, Note_on_c, 2, 55, 76
8, 96224, Note_on_c, 2, 55, 0
8, 96240, Note_on_c, 2, 57, 76
8, 96464, Note_on_c, 2, 57, 0
8, 96480, Note_on_c, 2, 59, 76
8, 96704, Note_on_c, 2, 59, 0
8, 96720, Note_on_c, 2, 60, 76
8, 96944, Note_on_c, 2, 60, 0
8, 96960, Note_on_c, 2, 59, 76
8, 97184, Note_on_c, 2, 59, 0
8, 97200, Note_on_c, 2, 57, 76
8, 97424, Note_on_c, 2, 57, 0
8, 97440, Note_on_c, 2, 55, 76
8, 97664, Note_on_c, 2, 55, 0
8, 97680, Note_on_c, 2, 54, 76
8, 97904, Note_on_c, 2, 54, 0
8, 97920, Note_on_c, 2, 52, 76
8, 98144, Note_on_c, 2, 52, 0
8, 98160, Note_on_c, 2, 50, 76
8, 98384, Note_on_c, 2, 50, 0
8, 98400, Note_on_c, 2, 52, 76
8, 98624, Note_on_c, 2, 52, 0
8, 98640, Note_on_c, 2, 54, 76
8, 98864, Note_on_c, 2, 54, 0
8, 98880, Note_on_c, 2, 55, 76
8, 99104, Note_on_c, 2, 55, 0
8, 99120, Note_on_c, 2, 48, 76
8, 99344, Note_on_c, 2, 48, 0
8, 99360, Note_on_c, 2, 50, 76
8, 99584, Note_on_c, 2, 50, 0
8, 99600, Note_on_c, 2, 38, 76
8, 99824, Note_on_c, 2, 38, 0
8, 99840, Note_on_c, 2, 43, 76
8, 100064, Note_on_c, 2, 43, 0
8, 100080, Note_on_c, 2, 50, 76
8, 100304, Note_on_c, 2, 50, 0
8, 100320, Note_on_c, 2, 55, 76
8, 100559, Note_on_c, 2, 55, 0
8, 101040, Note_on_c, 2, 48, 76
8, 101144, Note_on_c, 2, 48, 0
8, 101160, Note_on_c, 2, 50, 76
8, 101264, Note_on_c, 2, 50, 0
8, 101280, Note_on_c, 2, 52, 76
8, 101504, Note_on_c, 2, 52, 0
8, 101520, Note_on_c, 2, 55, 76
8, 101744, Note_on_c, 2, 55, 0
8, 101760, Note_on_c, 2, 60, 76
8, 101984, Note_on_c, 2, 60, 0
8, 102000, Note_on_c, 2, 55, 76
8, 102224, Note_on_c, 2, 55, 0
8, 102240, Note_on_c, 2, 48, 76
8, 102464, Note_on_c, 2, 48, 0
8, 102480, Note_on_c, 2, 53, 76
8, 102704, Note_on_c, 2, 53, 0
8, 102720, Note_on_c, 2, 52, 76
8, 102944, Note_on_c, 2, 52, 0
8, 102960, Note_on_c, 2, 50, 76
8, 103184, Note_on_c, 2, 50, 0
8, 103200, Note_on_c, 2, 52, 76
8, 103424, Note_on_c, 2, 52, 0
8, 103440, Note_on_c, 2, 53, 76
8, 103664, Note_on_c, 2, 53, 0
8, 103680, Note_on_c, 2, 55, 76
8, 103904, Note_on_c, 2, 55, 0
8, 103920, Note_on_c, 2, 57, 76
8, 104144, Note_on_c, 2, 57, 0
8, 104160, Note_on_c, 2, 59, 76
8, 104384, Note_on_c, 2, 59, 0
8, 104400, Note_on_c, 2, 60, 76
8, 104624, Note_on_c, 2, 60, 0
8, 104640, Note_on_c, 2, 59, 76
8, 104864, Note_on_c, 2, 59, 0
8, 104880, Note_on_c, 2, 57, 76
8, 105104, Note_on_c, 2, 57, 0
8, 105120, Note_on_c, 2, 55, 76
8, 105344, Note_on_c, 2, 55, 0
8, 105360, Note_on_c, 2, 54, 76
8, 105584, Note_on_c, 2, 54, 0
8, 105600, Note_on_c, 2, 52, 76
8, 105824, Note_on_c, 2, 52, 0
8, 105840, Note_on_c, 2, 50, 76
8, 106064, Note_on_c, 2, 50, 0
8, 106080, Note_on_c, 2, 52, 76
8, 106304, Note_on_c, 2, 52, 0
8, 106320, Note_on_c, 2, 54, 76
8, 106544, Note_on_c, 2, 54, 0
8, 106560, Note_on_c, 2, 55, 76
8, 106784, Note_on_c, 2, 55, 0
8, 106800, Note_on_c, 2, 48, 76
8, 107024, Note_on_c, 2, 48, 0
8, 107040, Note_on_c, 2, 50, 76
8, 107264, Note_on_c, 2, 50, 0
8, 107280, Note_on_c, 2, 38, 76
8, 107504, Note_on_c, 2, 38, 0
8, 107520, Note_on_c, 2, 43, 76
8, 107744, Note_on_c, 2, 43, 0
8, 107760, Note_on_c, 2, 50, 76
8, 107984, Note_on_c, 2, 50, 0
8, 108000, Note_on_c, 2, 55, 76
8, 108239, Note_on_c, 2, 55, 0
8, 108720, Note_on_c, 2, 55, 76
8, 108824, Note_on_c, 2, 55, 0
8, 108840, Note_on_c, 2, 53, 76
8, 108944, Note_on_c, 2, 53, 0
8, 108960, Note_on_c, 2, 52, 76
8, 109184, Note_on_c, 2, 52, 0
8, 109200, Note_on_c, 2, 55, 76
8, 109424, Note_on_c, 2, 55, 0
8, 109440, Note_on_c, 2, 57, 76
8, 109664, Note_on_c, 2, 57, 0
8, 109680, Note_on_c, 2, 45, 76
8, 109904, Note_on_c, 2, 45, 0
8, 109920, Note_on_c, 2, 57, 76
8, 110144, Note_on_c, 2, 57, 0
8, 110160, Note_on_c, 2, 55, 76
8, 110384, Note_on_c, 2, 55, 0
8, 110400, Note_on_c, 2, 53, 76
8, 110624, Note_on_c, 2, 53, 0
8, 110640, Note_on_c, 2, 55, 76
8, 110864, Note_on_c, 2, 55, 0
8, 110880, Note_on_c, 2, 57, 76
8, 111104, Note_on_c, 2, 57, 0
8, 111120, Note_on_c, 2, 45, 76
8, 111344, Note_on_c, 2, 45, 0
8, 111360, Note_on_c, 2, 50, 76
8, 111584, Note_on_c, 2, 50, 0
8, 111600, Note_on_c, 2, 45, 76
8, 111824, Note_on_c, 2, 45, 0
8, 111840, Note_on_c, 2, 38, 76
8, 112064, Note_on_c, 2, 38, 0
8, 112080, Note_on_c, 2, 56, 76
8, 112184, Note_on_c, 2, 56, 0
8, 112200, Note_on_c, 2, 57, 76
8, 112304, Note_on_c, 2, 57, 0
8, 112320, Note_on_c, 2, 59, 76
8, 112544, Note_on_c, 2, 59, 0
8, 112560, Note_on_c, 2, 59, 76
8, 112664, Note_on_c, 2, 59, 0
8, 112680, Note_on_c, 2, 60, 76
8, 112784, Note_on_c, 2, 60, 0
8, 112800, Note_on_c, 2, 62, 76
8, 113039, Note_on_c, 2, 62, 0
8, 114000, Note_on_c, 2, 50, 76
8, 114224, Note_on_c, 2, 50, 0
8, 114240, Note_on_c, 2, 48, 76
8, 114344, Note_on_c, 2, 48, 0
8, 114360, Note_on_c, 2, 47, 76
8, 114464, Note_on_c, 2, 47, 0
8, 114480, Note_on_c, 2, 48, 76
8, 114584, Note_on_c, 2, 48, 0
8, 114600, Note_on_c, 2, 50, 76
8, 114704, Note_on_c, 2, 50, 0
8, 114720, Note_on_c, 2, 52, 76
8, 114944, Note_on_c, 2, 52, 0
8, 114960, Note_on_c, 2, 40, 76
8, 115184, Note_on_c, 2, 40, 0
8, 115200, Note_on_c, 2, 45, 76
8, 115424, Note_on_c, 2, 45, 0
8, 115440, Note_on_c, 2, 52, 76
8, 115664, Note_on_c, 2, 52, 0
8, 115680, Note_on_c, 2, 57, 76
8, 115919, Note_on_c, 2, 57, 0
8, 116400, Note_on_c, 2, 48, 76
8, 116504, Note_on_c, 2, 48, 0
8, 116520, Note_on_c, 2, 50, 76
8, 116624, Note_on_c, 2, 50, 0
8, 116640, Note_on_c, 2, 52, 76
8, 116864, Note_on_c, 2, 52, 0
8, 116880, Note_on_c, 2, 52, 76
8, 116984, Note_on_c, 2, 52, 0
8, 117000, Note_on_c, 2, 53, 76
8, 117104, Note_on_c, 2, 53, 0
8, 117120, Note_on_c, 2, 55, 76
8, 117344, Note_on_c, 2, 55, 0
8, 117360, Note_on_c, 2, 55, 76
8, 117464, Note_on_c, 2, 55, 0
8, 117480, Note_on_c, 2, 57, 76
8, 117584, Note_on_c, 2, 57, 0
8, 117600, Note_on_c, 2, 58, 76
8, 117824, Note_on_c, 2, 58, 0
8, 117840, Note_on_c, 2, 52, 76
8, 118064, Note_on_c, 2, 52, 0
8, 118080, Note_on_c, 2, 53, 76
8, 118304, Note_on_c, 2, 53, 0
8, 118320, Note_on_c, 2, 46, 76
8, 118544, Note_on_c, 2, 46, 0
8, 118560, Note_on_c, 2, 43, 76
8, 118784, Note_on_c, 2, 43, 0
8, 118800, Note_on_c, 2, 48, 76
8, 119024, Note_on_c, 2, 48, 0
8, 119040, Note_on_c, 2, 41, 76
8, 119264, Note_on_c, 2, 41, 0
8, 119280, Note_on_c, 2, 53, 76
8, 119384, Note_on_c, 2, 53, 0
8, 119400, Note_on_c, 2, 55, 76
8, 119504, Note_on_c, 2, 55, 0
8, 119520, Note_on_c, 2, 57, 76
8, 119624, Note_on_c, 2, 57, 0
8, 119640, Note_on_c, 2, 58, 76
8, 119744, Note_on_c, 2, 58, 0
8, 119760, Note_on_c, 2, 57, 76
8, 119864, Note_on_c, 2, 57, 0
8, 119880, Note_on_c, 2, 55, 76
8, 119984, Note_on_c, 2, 55, 0
8, 120000, Note_on_c, 2, 53, 76
8, 120104, Note_on_c, 2, 53, 0
8, 120120, Note_on_c, 2, 55, 76
8, 120224, Note_on_c, 2, 55, 0
8, 120240, Note_on_c, 2, 53, 76
8, 120344, Note_on_c, 2, 53, 0
8, 120360, Note_on_c, 2, 52, 76
8, 120464, Note_on_c, 2, 52, 0
8, 120480, Note_on_c, 2, 50, 76
8, 120584, Note_on_c, 2, 50, 0
8, 120600, Note_on_c, 2, 52, 76
8, 120704, Note_on_c, 2, 52, 0
8, 120720, Note_on_c, 2, 50, 76
8, 120824, Note_on_c, 2, 50, 0
8, 120840, Note_on_c, 2, 48, 76
8, 120944, Note_on_c, 2, 48, 0
8, 120960, Note_on_c, 2, 47, 76
8, 121064, Note_on_c, 2, 47, 0
8, 121080, Note_on_c, 2, 48, 76
8, 121184, Note_on_c, 2, 48, 0
8, 121200, Note_on_c, 2, 47, 76
8, 121304, Note_on_c, 2, 47, 0
8, 121320, Note_on_c, 2, 45, 76
8, 121424, Note_on_c, 2, 45, 0
8, 121440, Note_on_c, 2, 43, 76
8, 121544, Note_on_c, 2, 43, 0
8, 121560, Note_on_c, 2, 45, 76
8, 121664, Note_on_c, 2, 45, 0
8, 121680, Note_on_c, 2, 43, 76
8, 121784, Note_on_c, 2, 43, 0
8, 121800, Note_on_c, 2, 41, 76
8, 121904, Note_on_c, 2, 41, 0
8, 121920, Note_on_c, 2, 40, 76
8, 122144, Note_on_c, 2, 40, 0
8, 122160, Note_on_c, 2, 41, 76
8, 122384, Note_on_c, 2, 41, 0
8, 122400, Note_on_c, 2, 43, 76
8, 122624, Note_on_c, 2, 43, 0
8, 122640, Note_on_c, 2, 43, 76
8, 122864, Note_on_c, 2, 43, 0
8, 122880, Note_on_c, 2, 36, 76
8, 123599, Note_on_c, 2, 36, 0
8, 124080, Note_on_c, 2, 55, 76
8, 124184, Note_on_c, 2, 55, 0
8, 124200, Note_on_c, 2, 53, 76
8, 124304, Note_on_c, 2, 53, 0
8, 124320, Note_on_c, 2, 52, 76
8, 124544, Note_on_c, 2, 52, 0
8, 124560, Note_on_c, 2, 55, 76
8, 124784, Note_on_c, 2, 55, 0
8, 124800, Note_on_c, 2, 57, 76
8, 125024, Note_on_c, 2, 57, 0
8, 125040, Note_on_c, 2, 45, 76
8, 125264, Note_on_c, 2, 45, 0
8, 125280, Note_on_c, 2, 57, 76
8, 125504, Note_on_c, 2, 57, 0
8, 125520, Note_on_c, 2, 55, 76
8, 125744, Note_on_c, 2, 55, 0
8, 125760, Note_on_c, 2, 53, 76
8, 125984, Note_on_c, 2, 53, 0
8, 126000, Note_on_c, 2, 55, 76
8, 126224, Note_on_c, 2, 55, 0
8, 126240, Note_on_c, 2, 57, 76
8, 126464, Note_on_c, 2, 57, 0
8, 126480, Note_on_c, 2, 45, 76
8, 126704, Note_on_c, 2, 45, 0
8, 126720, Note_on_c, 2, 50, 76
8, 126944, Note_on_c, 2, 50, 0
8, 126960, Note_on_c, 2, 45, 76
8, 127184, Note_on_c, 2, 45, 0
8, 127200, Note_on_c, 2, 38, 76
8, 127424, Note_on_c, 2, 38, 0
8, 127440, Note_on_c, 2, 56, 76
8, 127544, Note_on_c, 2, 56, 0
8, 127560, Note_on_c, 2, 57, 76
8, 127664, Note_on_c, 2, 57, 0
8, 127680, Note_on_c, 2, 59, 76
8, 127904, Note_on_c, 2, 59, 0
8, 127920, Note_on_c, 2, 59, 76
8, 128024, Note_on_c, 2, 59, 0
8, 128040, Note_on_c, 2, 60, 76
8, 128144, Note_on_c, 2, 60, 0
8, 128160, Note_on_c, 2, 62, 76
8, 128399, Note_on_c, 2, 62, 0
8, 129360, Note_on_c, 2, 50, 76
8, 129584, Note_on_c, 2, 50, 0
8, 129600, Note_on_c, 2, 48, 76
8, 129704, Note_on_c, 2, 48, 0
8, 129720, Note_on_c, 2, 47, 76
8, 129824, Note_on_c, 2, 47, 0
8, 129840, Note_on_c, 2, 48, 76
8, 129944, Note_on_c, 2, 48, 0
8, 129960, Note_on_c, 2, 50, 76
8, 130064, Note_on_c, 2, 50, 0
8, 130080, Note_on_c, 2, 52, 76
8, 130304, Note_on_c, 2, 52, 0
8, 130320, Note_on_c, 2, 40, 76
8, 130544, Note_on_c, 2, 40, 0
8, 130560, Note_on_c, 2, 45, 76
8, 130784, Note_on_c, 2, 45, 0
8, 130800, Note_on_c, 2, 52, 76
8, 131024, Note_on_c, 2, 52, 0
8, 131040, Note_on_c, 2, 57, 76
8, 131279, Note_on_c, 2, 57, 0
8, 131760, Note_on_c, 2, 48, 76
8, 131864, Note_on_c, 2, 48, 0
8, 131880, Note_on_c, 2, 50, 76
8, 131984, Note_on_c, 2, 50, 0
8, 132000, Note_on_c, 2, 52, 76
8, 132224, Note_on_c, 2, 52, 0
8, 132240, Note_on_c, 2, 52, 76
8, 132344, Note_on_c, 2, 52, 0
8, 132360, Note_on_c, 2, 53, 76
8, 132464, Note_on_c, 2, 53, 0
8, 132480, Note_on_c, 2, 55, 76
8, 132704, Note_on_c, 2, 55, 0
8, 132720, Note_on_c, 2, 55, 76
8, 132824, Note_on_c, 2, 55, 0
8, 132840, Note_on_c, 2, 57, 76
8, 132944, Note_on_c, 2, 57, 0
8, 132960, Note_on_c, 2, 58, 76
8, 133184, Note_on_c, 2, 58, 0
8, 133200, Note_on_c, 2, 52, 76
8, 133424, Note_on_c, 2, 52, 0
8, 133440, Note_on_c, 2, 53, 76
8, 133664, Note_on_c, 2, 53, 0
8, 133680, Note_on_c, 2, 46, 76
8, 133904, Note_on_c, 2, 46, 0
8, 133920, Note_on_c, 2, 43, 76
8, 134144, Note_on_c, 2, 43, 0
8, 134160, Note_on_c, 2, 48, 76
8, 134384, Note_on_c, 2, 48, 0
8, 134400, Note_on_c, 2, 41, 76
8, 134624, Note_on_c, 2, 41, 0
8, 134640, Note_on_c, 2, 53, 76
8, 134744, Note_on_c, 2, 53, 0
8, 134760, Note_on_c, 2, 55, 76
8, 134864, Note_on_c, 2, 55, 0
8, 134880, Note_on_c, 2, 57, 76
8, 134984, Note_on_c, 2, 57, 0
8, 135000, Note_on_c, 2, 58, 76
8, 135104, Note_on_c, 2, 58, 0
8, 135120, Note_on_c, 2, 57, 76
8, 135224, Note_on_c, 2, 57, 0
8, 135240, Note_on_c, 2, 55, 76
8, 135344, Note_on_c, 2, 55, 0
8, 135360, Note_on_c, 2, 53, 76
8, 135464, Note_on_c, 2, 53, 0
8, 135480, Note_on_c, 2, 55, 76
8, 135584, Note_on_c, 2, 55, 0
8, 135600, Note_on_c, 2, 53, 76
8, 135704, Note_on_c, 2, 53, 0
8, 135720, Note_on_c, 2, 52, 76
8, 135824, Note_on_c, 2, 52, 0
8, 135840, Note_on_c, 2, 50, 76
8, 135944, Note_on_c, 2, 50, 0
8, 135960, Note_on_c, 2, 52, 76
8, 136064, Note_on_c, 2, 52, 0
8, 136080, Note_on_c, 2, 50, 76
8, 136184, Note_on_c, 2, 50, 0
8, 136200, Note_on_c, 2, 48, 76
8, 136304, Note_on_c, 2, 48, 0
8, 136320, Note_on_c, 2, 47, 76
8, 136424, Note_on_c, 2, 47, 0
8, 136440, Note_on_c, 2, 48, 76
8, 136544, Note_on_c, 2, 48, 0
8, 136560, Note_on_c, 2, 47, 76
8, 136664, Note_on_c, 2, 47, 0
8, 136680, Note_on_c, 2, 45, 76
8, 136784, Note_on_c, 2, 45, 0
8, 136800, Note_on_c, 2, 43, 76
8, 136904, Note_on_c, 2, 43, 0
8, 136920, Note_on_c, 2, 45, 76
8, 137024, Note_on_c, 2, 45, 0
8, 137040, Note_on_c, 2, 43, 76
8, 137144, Note_on_c, 2, 43, 0
8, 137160, Note_on_c, 2, 41, 76
8, 137264, Note_on_c, 2, 41, 0
8, 137280, Note_on_c, 2, 40, 76
8, 137504, Note_on_c, 2, 40, 0
8, 137520, Note_on_c, 2, 41, 76
8, 137744, Note_on_c, 2, 41, 0
8, 137760, Note_on_c, 2, 43, 76
8, 137984, Note_on_c, 2, 43, 0
8, 138000, Note_on_c, 2, 43, 76
8, 138224, Note_on_c, 2, 43, 0
8, 138240, Note_on_c, 2, 36, 76
8, 138959, Note_on_c, 2, 36, 0
8, 138959, End_track
9, 0, Start_track
9, 0, Title_t, "Violin I"
9, 0, MIDI_port, 0
9, 0, Program_c, 11, 48
9, 0, Control_c, 11, 10, 48
9, 0, Control_c, 11, 11, 127
9, 0, Control_c, 11, 7, 96
9, 240, Note_on_c, 11, 64, 76
9, 344, Note_on_c, 11, 64, 0
9, 360, Note_on_c, 11, 65, 76
9, 464, Note_on_c, 11, 65, 0
9, 480, Note_on_c, 11, 67, 76
9, 704, Note_on_c, 11, 67, 0
9, 720, Note_on_c, 11, 72, 76
9, 1184, Note_on_c, 11, 72, 0
9, 1200, Note_on_c, 11, 67, 76
9, 1424, Note_on_c, 11, 67, 0
9, 1440, Note_on_c, 11, 64, 76
9, 1544, Note_on_c, 11, 64, 0
9, 1560, Note_on_c, 11, 62, 76
9, 1664, Note_on_c, 11, 62, 0
9, 1680, Note_on_c, 11, 64, 76
9, 1784, Note_on_c, 11, 64, 0
9, 1800, Note_on_c, 11, 65, 76
9, 1904, Note_on_c, 11, 65, 0
9, 1920, Note_on_c, 11, 67, 76
9, 2144, Note_on_c, 11, 67, 0
9, 2160, Note_on_c, 11, 69, 76
9, 2264, Note_on_c, 11, 69, 0
9, 2280, Note_on_c, 11, 71, 76
9, 2384, Note_on_c, 11, 71, 0
9, 2400, Note_on_c, 11, 72, 76
9, 2504, Note_on_c, 11, 72, 0
9, 2520, Note_on_c, 11, 74, 76
9, 2624, Note_on_c, 11, 74, 0
9, 2640, Note_on_c, 11, 76, 76
9, 2744, Note_on_c, 11, 76, 0
9, 2760, Note_on_c, 11, 77, 76
9, 2864, Note_on_c, 11, 77, 0
9, 2880, Note_on_c, 11, 79, 76
9, 3104, Note_on_c, 11, 79, 0
9, 3120, Note_on_c, 11, 81, 76
9, 3344, Note_on_c, 11, 81, 0
9, 3360, Note_on_c, 11, 74, 76
9, 3464, Note_on_c, 11, 74, 0
9, 3480, Note_on_c, 11, 72, 76
9, 3584, Note_on_c, 11, 72, 0
9, 3600, Note_on_c, 11, 74, 76
9, 3704, Note_on_c, 11, 74, 0
9, 3720, Note_on_c, 11, 76, 76
9, 3824, Note_on_c, 11, 76, 0
9, 3840, Note_on_c, 11, 74, 76
9, 4064, Note_on_c, 11, 74, 0
9, 4080, Note_on_c, 11, 76, 76
9, 4184, Note_on_c, 11, 76, 0
9, 4200, Note_on_c, 11, 78, 76
9, 4304, Note_on_c, 11, 78, 0
9, 4320, Note_on_c, 11, 79, 76
9, 4544, Note_on_c, 11, 79, 0
9, 4560, Note_on_c, 11, 71, 76
9, 4664, Note_on_c, 11, 71, 0
9, 4680, Note_on_c, 11, 72, 76
9, 4784, Note_on_c, 11, 72, 0
9, 4800, Note_on_c, 11, 74, 76
9, 5024, Note_on_c, 11, 74, 0
9, 5040, Note_on_c, 11, 76, 76
9, 5144, Note_on_c, 11, 76, 0
9, 5160, Note_on_c, 11, 78, 76
9, 5264, Note_on_c, 11, 78, 0
9, 5280, Note_on_c, 11, 79, 76
9, 5504, Note_on_c, 11, 79, 0
9, 5520, Note_on_c, 11, 69, 76
9, 5624, Note_on_c, 11, 69, 0
9, 5640, Note_on_c, 11, 71, 76
9, 5744, Note_on_c, 11, 71, 0
9, 5760, Note_on_c, 11, 72, 76
9, 5984, Note_on_c, 11, 72, 0
9, 6000, Note_on_c, 11, 74, 76
9, 6224, Note_on_c, 11, 74, 0
9, 6240, Note_on_c, 11, 71, 76
9, 6584, Note_on_c, 11, 71, 0
9, 6600, Note_on_c, 11, 69, 76
9, 6704, Note_on_c, 11, 69, 0
9, 6720, Note_on_c, 11, 69, 76
9, 7064, Note_on_c, 11, 69, 0
9, 7080, Note_on_c, 11, 67, 76
9, 7184, Note_on_c, 11, 67, 0
9, 7200, Note_on_c, 11, 67, 76
9, 7904, Note_on_c, 11, 67, 0
9, 7920, Note_on_c, 11, 64, 76
9, 8024, Note_on_c, 11, 64, 0
9, 8040, Note_on_c, 11, 65, 76
9, 8144, Note_on_c, 11, 65, 0
9, 8160, Note_on_c, 11, 67, 76
9, 8384, Note_on_c, 11, 67, 0
9, 8400, Note_on_c, 11, 72, 76
9, 8864, Note_on_c, 11, 72, 0
9, 8880, Note_on_c, 11, 67, 76
9, 9104, Note_on_c, 11, 67, 0
9, 9120, Note_on_c, 11, 64, 76
9, 9224, Note_on_c, 11, 64, 0
9, 9240, Note_on_c, 11, 62, 76
9, 9344, Note_on_c, 11, 62, 0
9, 9360, Note_on_c, 11, 64, 76
9, 9464, Note_on_c, 11, 64, 0
9, 9480, Note_on_c, 11, 65, 76
9, 9584, Note_on_c, 11, 65, 0
9, 9600, Note_on_c, 11, 67, 76
9, 9824, Note_on_c, 11, 67, 0
9, 9840, Note_on_c, 11, 69, 76
9, 9944, Note_on_c, 11, 69, 0
9, 9960, Note_on_c, 11, 71, 76
9, 10064, Note_on_c, 11, 71, 0
9, 10080, Note_on_c, 11, 72, 76
9, 10184, Note_on_c, 11, 72, 0
9, 10200, Note_on_c, 11, 74, 76
9, 10304, Note_on_c, 11, 74, 0
9, 10320, Note_on_c, 11, 76, 76
9, 10424, Note_on_c, 11, 76, 0
9, 10440, Note_on_c, 11, 77, 76
9, 10544, Note_on_c, 11, 77, 0
9, 10560, Note_on_c, 11, 79, 76
9, 10784, Note_on_c, 11, 79, 0
9, 10800, Note_on_c, 11, 81, 76
9, 11024, Note_on_c, 11, 81, 0
9, 11040, Note_on_c, 11, 74, 76
9, 11144, Note_on_c, 11, 74, 0
9, 11160, Note_on_c, 11, 72, 76
9, 11264, Note_on_c, 11, 72, 0
9, 11280, Note_on_c, 11, 74, 76
9, 11384, Note_on_c, 11, 74, 0
9, 11400, Note_on_c, 11, 76, 76
9, 11504, Note_on_c, 11, 76, 0
9, 11520, Note_on_c, 11, 74, 76
9, 11744, Note_on_c, 11, 74, 0
9, 11760, Note_on_c, 11, 76, 76
9, 11864, Note_on_c, 11, 76, 0
9, 11880, Note_on_c, 11, 78, 76
9, 11984, Note_on_c, 11, 78, 0
9, 12000, Note_on_c, 11, 79, 76
9, 12224, Note_on_c, 11, 79, 0
9, 12240, Note_on_c, 11, 71, 76
9, 12344, Note_on_c, 11, 71, 0
9, 12360, Note_on_c, 11, 72, 76
9, 12464, Note_on_c, 11, 72, 0
9, 12480, Note_on_c, 11, 74, 76
9, 12704, Note_on_c, 11, 74, 0
9, 12720, Note_on_c, 11, 76, 76
9, 12824, Note_on_c, 11, 76, 0
9, 12840, Note_on_c, 11, 78, 76
9, 12944, Note_on_c, 11, 78, 0
9, 12960, Note_on_c, 11, 79, 76
9, 13184, Note_on_c, 11, 79, 0
9, 13200, Note_on_c, 11, 69, 76
9, 13304, Note_on_c, 11, 69, 0
9, 13320, Note_on_c, 11, 71, 76
9, 13424, Note_on_c, 11, 71, 0
9, 13440, Note_on_c, 11, 72, 76
9, 13664, Note_on_c, 11, 72, 0
9, 13680, Note_on_c, 11, 74, 76
9, 13904, Note_on_c, 11, 74, 0
9, 13920, Note_on_c, 11, 71, 76
9, 14264, Note_on_c, 11, 71, 0
9, 14280, Note_on_c, 11, 69, 76
9, 14384, Note_on_c, 11, 69, 0
9, 14400, Note_on_c, 11, 69, 76
9, 14744, Note_on_c, 11, 69, 0
9, 14760, Note_on_c, 11, 67, 76
9, 14864, Note_on_c, 11, 67, 0
9, 14880, Note_on_c, 11, 67, 76
9, 15584, Note_on_c, 11, 67, 0
9, 15600, Note_on_c, 11, 71, 76
9, 15704, Note_on_c, 11, 71, 0
9, 15720, Note_on_c, 11, 72, 76
9, 15824, Note_on_c, 11, 72, 0
9, 15840, Note_on_c, 11, 74, 76
9, 16064, Note_on_c, 11, 74, 0
9, 16080, Note_on_c, 11, 79, 76
9, 16544, Note_on_c, 11, 79, 0
9, 16560, Note_on_c, 11, 82, 76
9, 16784, Note_on_c, 11, 82, 0
9, 16800, Note_on_c, 11, 73, 76
9, 16904, Note_on_c, 11, 73, 0
9, 16920, Note_on_c, 11, 71, 76
9, 17024, Note_on_c, 11, 71, 0
9, 17040, Note_on_c, 11, 73, 76
9, 17144, Note_on_c, 11, 73, 0
9, 17160, Note_on_c, 11, 74, 76
9, 17264, Note_on_c, 11, 74, 0
9, 17280, Note_on_c, 11, 76, 76
9, 17504, Note_on_c, 11, 76, 0
9, 17520, Note_on_c, 11, 77, 76
9, 17624, Note_on_c, 11, 77, 0
9, 17640, Note_on_c, 11, 79, 76
9, 17744, Note_on_c, 11, 79, 0
9, 17760, Note_on_c, 11, 81, 76
9, 17864, Note_on_c, 11, 81, 0
9, 17880, Note_on_c, 11, 79, 76
9, 17984, Note_on_c, 11, 79, 0
9, 18000, Note_on_c, 11, 81, 76
9, 18104, Note_on_c, 11, 81, 0
9, 18120, Note_on_c, 11, 82, 76
9, 18224, Note_on_c, 11, 82, 0
9, 18240, Note_on_c, 11, 81, 76
9, 18344, Note_on_c, 11, 81, 0
9, 18360, Note_on_c, 11, 79, 76
9, 18464, Note_on_c, 11, 79, 0
9, 18480, Note_on_c, 11, 77, 76
9, 18584, Note_on_c, 11, 77, 0
9, 18600, Note_on_c, 11, 76, 76
9, 18704, Note_on_c, 11, 76, 0
9, 18720, Note_on_c, 11, 77, 76
9, 18824, Note_on_c, 11, 77, 0
9, 18840, Note_on_c, 11, 79, 76
9, 18944, Note_on_c, 11, 79, 0
9, 18960, Note_on_c, 11, 77, 76
9, 19064, Note_on_c, 11, 77, 0
9, 19080, Note_on_c, 11, 76, 76
9, 19184, Note_on_c, 11, 76, 0
9, 19200, Note_on_c, 11, 74, 76
9, 19424, Note_on_c, 11, 74, 0
9, 19440, Note_on_c, 11, 83, 76
9, 19544, Note_on_c, 11, 83, 0
9, 19560, Note_on_c, 11, 84, 76
9, 19664, Note_on_c, 11, 84, 0
9, 19680, Note_on_c, 11, 86, 76
9, 19904, Note_on_c, 11, 86, 0
9, 19920, Note_on_c, 11, 80, 76
9, 20024, Note_on_c, 11, 80, 0
9, 20040, Note_on_c, 11, 81, 76
9, 20144, Note_on_c, 11, 81, 0
9, 20160, Note_on_c, 11, 83, 76
9, 20384, Note_on_c, 11, 83, 0
9, 20400, Note_on_c, 11, 74, 76
9, 20504, Note_on_c, 11, 74, 0
9, 20520, Note_on_c, 11, 76, 76
9, 20624, Note_on_c, 11, 76, 0
9, 20640, Note_on_c, 11, 77, 76
9, 20864, Note_on_c, 11, 77, 0
9, 20880, Note_on_c, 11, 71, 76
9, 20984, Note_on_c, 11, 71, 0
9, 21000, Note_on_c, 11, 72, 76
9, 21104, Note_on_c, 11, 72, 0
9, 21120, Note_on_c, 11, 74, 76
9, 21344, Note_on_c, 11, 74, 0
9, 21360, Note_on_c, 11, 68, 76
9, 21584, Note_on_c, 11, 68, 0
9, 21600, Note_on_c, 11, 69, 76
9, 21944, Note_on_c, 11, 69, 0
9, 21960, Note_on_c, 11, 71, 76
9, 22064, Note_on_c, 11, 71, 0
9, 22080, Note_on_c, 11, 71, 76
9, 22424, Note_on_c, 11, 71, 0
9, 22440, Note_on_c, 11, 69, 76
9, 22544, Note_on_c, 11, 69, 0
9, 22560, Note_on_c, 11, 69, 76
9, 23264, Note_on_c, 11, 69, 0
9, 23280, Note_on_c, 11, 76, 76
9, 23384, Note_on_c, 11, 76, 0
9, 23400, Note_on_c, 11, 77, 76
9, 23504, Note_on_c, 11, 77, 0
9, 23520, Note_on_c, 11, 79, 76
9, 23744, Note_on_c, 11, 79, 0
9, 23760, Note_on_c, 11, 84, 76
9, 24224, Note_on_c, 11, 84, 0
9, 24240, Note_on_c, 11, 79, 76
9, 24464, Note_on_c, 11, 79, 0
9, 24480, Note_on_c, 11, 76, 76
9, 24584, Note_on_c, 11, 76, 0
9, 24600, Note_on_c, 11, 74, 76
9, 24704, Note_on_c, 11, 74, 0
9, 24720, Note_on_c, 11, 76, 76
9, 24824, Note_on_c, 11, 76, 0
9, 24840, Note_on_c, 11, 77, 76
9, 24944, Note_on_c, 11, 77, 0
9, 24960, Note_on_c, 11, 79, 76
9, 25184, Note_on_c, 11, 79, 0
9, 25200, Note_on_c, 11, 70, 76
9, 25424, Note_on_c, 11, 70, 0
9, 25440, Note_on_c, 11, 69, 76
9, 25664, Note_on_c, 11, 69, 0
9, 25680, Note_on_c, 11, 74, 76
9, 25784, Note_on_c, 11, 74, 0
9, 25800, Note_on_c, 11, 72, 76
9, 25904, Note_on_c, 11, 72, 0
9, 25920, Note_on_c, 11, 70, 76
9, 26024, Note_on_c, 11, 70, 0
9, 26040, Note_on_c, 11, 69, 76
9, 26144, Note_on_c, 11, 69, 0
9, 26160, Note_on_c, 11, 70, 76
9, 26264, Note_on_c, 11, 70, 0
9, 26280, Note_on_c, 11, 67, 76
9, 26384, Note_on_c, 11, 67, 0
9, 26400, Note_on_c, 11, 69, 76
9, 26504, Note_on_c, 11, 69, 0
9, 26520, Note_on_c, 11, 70, 76
9, 26624, Note_on_c, 11, 70, 0
9, 26640, Note_on_c, 11, 69, 76
9, 26744, Note_on_c, 11, 69, 0
9, 26760, Note_on_c, 11, 67, 76
9, 26864, Note_on_c, 11, 67, 0
9, 26880, Note_on_c, 11, 65, 76
9, 27104, Note_on_c, 11, 65, 0
9, 27120, Note_on_c, 11, 77, 76
9, 27224, Note_on_c, 11, 77, 0
9, 27240, Note_on_c, 11, 79, 76
9, 27344, Note_on_c, 11, 79, 0
9, 27360, Note_on_c, 11, 81, 76
9, 27584, Note_on_c, 11, 81, 0
9, 27600, Note_on_c, 11, 74, 76
9, 27704, Note_on_c, 11, 74, 0
9, 27720, Note_on_c, 11, 76, 76
9, 27824, Note_on_c, 11, 76, 0
9, 27840, Note_on_c, 11, 77, 76
9, 28064, Note_on_c, 11, 77, 0
9, 28080, Note_on_c, 11, 71, 76
9, 28184, Note_on_c, 11, 71, 0
9, 28200, Note_on_c, 11, 72, 76
9, 28304, Note_on_c, 11, 72, 0
9, 28320, Note_on_c, 11, 74, 76
9, 28544, Note_on_c, 11, 74, 0
9, 28560, Note_on_c, 11, 67, 76
9, 28784, Note_on_c, 11, 67, 0
9, 28800, Note_on_c, 11, 79, 76
9, 29024, Note_on_c, 11, 79, 0
9, 29040, Note_on_c, 11, 71, 76
9, 29264, Note_on_c, 11, 71, 0
9, 29280, Note_on_c, 11, 72, 76
9, 29624, Note_on_c, 11, 72, 0
9, 29640, Note_on_c, 11, 74, 76
9, 29744, Note_on_c, 11, 74, 0
9, 29760, Note_on_c, 11, 74, 76
9, 30104, Note_on_c, 11, 74, 0
9, 30120, Note_on_c, 11, 72, 76
9, 30224, Note_on_c, 11, 72, 0
9, 30240, Note_on_c, 11, 72, 76
9, 30944, Note_on_c, 11, 72, 0
9, 30960, Note_on_c, 11, 71, 76
9, 31064, Note_on_c, 11, 71, 0
9, 31080, Note_on_c, 11, 72, 76
9, 31184, Note_on_c, 11, 72, 0
9, 31200, Note_on_c, 11, 74, 76
9, 31424, Note_on_c, 11, 74, 0
9, 31440, Note_on_c, 11, 79, 76
9, 31904, Note_on_c, 11, 79, 0
9, 31920, Note_on_c, 11, 82, 76
9, 32144, Note_on_c, 11, 82, 0
9, 32160, Note_on_c, 11, 73, 76
9, 32264, Note_on_c, 11, 73, 0
9, 32280, Note_on_c, 11, 71, 76
9, 32384, Note_on_c, 11, 71, 0
9, 32400, Note_on_c, 11, 73, 76
9, 32504, Note_on_c, 11, 73, 0
9, 32520, Note_on_c, 11, 74, 76
9, 32624, Note_on_c, 11, 74, 0
9, 32640, Note_on_c, 11, 76, 76
9, 32864, Note_on_c, 11, 76, 0
9, 32880, Note_on_c, 11, 77, 76
9, 32984, Note_on_c, 11, 77, 0
9, 33000, Note_on_c, 11, 79, 76
9, 33104, Note_on_c, 11, 79, 0
9, 33120, Note_on_c, 11, 81, 76
9, 33224, Note_on_c, 11, 81, 0
9, 33240, Note_on_c, 11, 79, 76
9, 33344, Note_on_c, 11, 79, 0
9, 33360, Note_on_c, 11, 81, 76
9, 33464, Note_on_c, 11, 81, 0
9, 33480, Note_on_c, 11, 82, 76
9, 33584, Note_on_c, 11, 82, 0
9, 33600, Note_on_c, 11, 81, 76
9, 33704, Note_on_c, 11, 81, 0
9, 33720, Note_on_c, 11, 79, 76
9, 33824, Note_on_c, 11, 79, 0
9, 33840, Note_on_c, 11, 77, 76
9, 33944, Note_on_c, 11, 77, 0
9, 33960, Note_on_c, 11, 76, 76
9, 34064, Note_on_c, 11, 76, 0
9, 34080, Note_on_c, 11, 77, 76
9, 34184, Note_on_c, 11, 77, 0
9, 34200, Note_on_c, 11, 79, 76
9, 34304, Note_on_c, 11, 79, 0
9, 34320, Note_on_c, 11, 77, 76
9, 34424, Note_on_c, 11, 77, 0
9, 34440, Note_on_c, 11, 76, 76
9, 34544, Note_on_c, 11, 76, 0
9, 34560, Note_on_c, 11, 74, 76
9, 34784, Note_on_c, 11, 74, 0
9, 34800, Note_on_c, 11, 83, 76
9, 34904, Note_on_c, 11, 83, 0
9, 34920, Note_on_c, 11, 84, 76
9, 35024, Note_on_c, 11, 84, 0
9, 35040, Note_on_c, 11, 86, 76
9, 35264, Note_on_c, 11, 86, 0
9, 35280, Note_on_c, 11, 80, 76
9, 35384, Note_on_c, 11, 80, 0
9, 35400, Note_on_c, 11, 81, 76
9, 35504, Note_on_c, 11, 81, 0
9, 35520, Note_on_c, 11, 83, 76
9, 35744, Note_on_c, 11, 83, 0
9, 35760, Note_on_c, 11, 74, 76
9, 35864, Note_on_c, 11, 74, 0
9, 35880, Note_on_c, 11, 76, 76
9, 35984, Note_on_c, 11, 76, 0
9, 36000, Note_on_c, 11, 77, 76
9, 36224, Note_on_c, 11, 77, 0
9, 36240, Note_on_c, 11, 71, 76
9, 36344, Note_on_c, 11, 71, 0
9, 36360, Note_on_c, 11, 72, 76
9, 36464, Note_on_c, 11, 72, 0
9, 36480, Note_on_c, 11, 74, 76
9, 36704, Note_on_c, 11, 74, 0
9, 36720, Note_on_c, 11, 68, 76
9, 36944, Note_on_c, 11, 68, 0
9, 36960, Note_on_c, 11, 69, 76
9, 37304, Note_on_c, 11, 69, 0
9, 37320, Note_on_c, 11, 71, 76
9, 37424, Note_on_c, 11, 71, 0
9, 37440, Note_on_c, 11, 71, 76
9, 37784, Note_on_c, 11, 71, 0
9, 37800, Note_on_c, 11, 69, 76
9, 37904, Note_on_c, 11, 69, 0
9, 37920, Note_on_c, 11, 69, 76
9, 38624, Note_on_c, 11, 69, 0
9, 38640, Note_on_c, 11, 76, 76
9, 38744, Note_on_c, 11, 76, 0
9, 38760, Note_on_c, 11, 77, 76
9, 38864, Note_on_c, 11, 77, 0
9, 38880, Note_on_c, 11, 79, 76
9, 39104, Note_on_c, 11, 79, 0
9, 39120, Note_on_c, 11, 84, 76
9, 39584, Note_on_c, 11, 84, 0
9, 39600, Note_on_c, 11, 79, 76
9, 39824, Note_on_c, 11, 79, 0
9, 39840, Note_on_c, 11, 76, 76
9, 39944, Note_on_c, 11, 76, 0
9, 39960, Note_on_c, 11, 74, 76
9, 40064, Note_on_c, 11, 74, 0
9, 40080, Note_on_c, 11, 76, 76
9, 40184, Note_on_c, 11, 76, 0
9, 40200, Note_on_c, 11, 77, 76
9, 40304, Note_on_c, 11, 77, 0
9, 40320, Note_on_c, 11, 79, 76
9, 40544, Note_on_c, 11, 79, 0
9, 40560, Note_on_c, 11, 70, 76
9, 40784, Note_on_c, 11, 70, 0
9, 40800, Note_on_c, 11, 69, 76
9, 41024, Note_on_c, 11, 69, 0
9, 41040, Note_on_c, 11, 74, 76
9, 41144, Note_on_c, 11, 74, 0
9, 41160, Note_on_c, 11, 72, 76
9, 41264, Note_on_c, 11, 72, 0
9, 41280, Note_on_c, 11, 70, 76
9, 41384, Note_on_c, 11, 70, 0
9, 41400, Note_on_c, 11, 69, 76
9, 41504, Note_on_c, 11, 69, 0
9, 41520, Note_on_c, 11, 70, 76
9, 41624, Note_on_c, 11, 70, 0
9, 41640, Note_on_c, 11, 67, 76
9, 41744, Note_on_c, 11, 67, 0
9, 41760, Note_on_c, 11, 69, 76
9, 41864, Note_on_c, 11, 69, 0
9, 41880, Note_on_c, 11, 70, 76
9, 41984, Note_on_c, 11, 70, 0
9, 42000, Note_on_c, 11, 69, 76
9, 42104, Note_on_c, 11, 69, 0
9, 42120, Note_on_c, 11, 67, 76
9, 42224, Note_on_c, 11, 67, 0
9, 42240, Note_on_c, 11, 65, 76
9, 42464, Note_on_c, 11, 65, 0
9, 42480, Note_on_c, 11, 77, 76
9, 42584, Note_on_c, 11, 77, 0
9, 42600, Note_on_c, 11, 79, 76
9, 42704, Note_on_c, 11, 79, 0
9, 42720, Note_on_c, 11, 81, 76
9, 42944, Note_on_c, 11, 81, 0
9, 42960, Note_on_c, 11, 74, 76
9, 43064, Note_on_c, 11, 74, 0
9, 43080, Note_on_c, 11, 76, 76
9, 43184, Note_on_c, 11, 76, 0
9, 43200, Note_on_c, 11, 77, 76
9, 43424, Note_on_c, 11, 77, 0
9, 43440, Note_on_c, 11, 71, 76
9, 43544, Note_on_c, 11, 71, 0
9, 43560, Note_on_c, 11, 72, 76
9, 43664, Note_on_c, 11, 72, 0
9, 43680, Note_on_c, 11, 74, 76
9, 43904, Note_on_c, 11, 74, 0
9, 43920, Note_on_c, 11, 67, 76
9, 44144, Note_on_c, 11, 67, 0
9, 44160, Note_on_c, 11, 79, 76
9, 44384, Note_on_c, 11, 79, 0
9, 44400, Note_on_c, 11, 71, 76
9, 44624, Note_on_c, 11, 71, 0
9, 44640, Note_on_c, 11, 72, 76
9, 44984, Note_on_c, 11, 72, 0
9, 45000, Note_on_c, 11, 74, 76
9, 45104, Note_on_c, 11, 74, 0
9, 45120, Note_on_c, 11, 74, 76
9, 45464, Note_on_c, 11, 74, 0
9, 45480, Note_on_c, 11, 72, 76
9, 45584, Note_on_c, 11, 72, 0
9, 45600, Note_on_c, 11, 72, 76
9, 46319, Note_on_c, 11, 72, 0
9, 92880, Note_on_c, 11, 64, 76
9, 92984, Note_on_c, 11, 64, 0
9, 93000, Note_on_c, 11, 65, 76
9, 93104, Note_on_c, 11, 65, 0
9, 93120, Note_on_c, 11, 67, 76
9, 93344, Note_on_c, 11, 67, 0
9, 93360, Note_on_c, 11, 72, 76
9, 93824, Note_on_c, 11, 72, 0
9, 93840, Note_on_c, 11, 67, 76
9, 94064, Note_on_c, 11, 67, 0
9, 94080, Note_on_c, 11, 64, 76
9, 94184, Note_on_c, 11, 64, 0
9, 94200, Note_on_c, 11, 62, 76
9, 94304, Note_on_c, 11, 62, 0
9, 94320, Note_on_c, 11, 64, 76
9, 94424, Note_on_c, 11, 64, 0
9, 94440, Note_on_c, 11, 65, 76
9, 94544, Note_on_c, 11, 65, 0
9, 94560, Note_on_c, 11, 67, 76
9, 94784, Note_on_c, 11, 67, 0
9, 94800, Note_on_c, 11, 69, 76
9, 94904, Note_on_c, 11, 69, 0
9, 94920, Note_on_c, 11, 71, 76
9, 95024, Note_on_c, 11, 71, 0
9, 95040, Note_on_c, 11, 72, 76
9, 95144, Note_on_c, 11, 72, 0
9, 95160, Note_on_c, 11, 74, 76
9, 95264, Note_on_c, 11, 74, 0
9, 95280, Note_on_c, 11, 76, 76
9, 95384, Note_on_c, 11, 76, 0
9, 95400, Note_on_c, 11, 77, 76
9, 95504, Note_on_c, 11, 77, 0
9, 95520, Note_on_c, 11, 79, 76
9, 95744, Note_on_c, 11, 79, 0
9, 95760, Note_on_c, 11, 81, 76
9, 95984, Note_on_c, 11, 81, 0
9, 96000, Note_on_c, 11, 74, 76
9, 96104, Note_on_c, 11, 74, 0
9, 96120, Note_on_c, 11, 72, 76
9, 96224, Note_on_c, 11, 72, 0
9, 96240, Note_on_c, 11, 74, 76
9, 96344, Note_on_c, 11, 74, 0
9, 96360, Note_on_c, 11, 76, 76
9, 96464, Note_on_c, 11, 76, 0
9, 96480, Note_on_c, 11, 74, 76
9, 96704, Note_on_c, 11, 74, 0
9, 96720, Note_on_c, 11, 76, 76
9, 96824, Note_on_c, 11, 76, 0
9, 96840, Note_on_c, 11, 78, 76
9, 96944, Note_on_c, 11, 78, 0
9, 96960, Note_on_c, 11, 79, 76
9, 97184, Note_on_c, 11, 79, 0
9, 97200, Note_on_c, 11, 71, 76
9, 97304, Note_on_c, 11, 71, 0
9, 97320, Note_on_c, 11, 72, 76
9, 97424, Note_on_c, 11, 72, 0
9, 97440, Note_on_c, 11, 74, 76
9, 97664, Note_on_c, 11, 74, 0
9, 97680, Note_on_c, 11, 76, 76
9, 97784, Note_on_c, 11, 76, 0
9, 97800, Note_on_c, 11, 78, 76
9, 97904, Note_on_c, 11, 78, 0
9, 97920, Note_on_c, 11, 79, 76
9, 98144, Note_on_c, 11, 79, 0
9, 98160, Note_on_c, 11, 69, 76
9, 98264, Note_on_c, 11, 69, 0
9, 98280, Note_on_c, 11, 71, 76
9, 98384, Note_on_c, 11, 71, 0
9, 98400, Note_on_c, 11, 72, 76
9, 98624, Note_on_c, 11, 72, 0
9, 98640, Note_on_c, 11, 74, 76
9, 98864, Note_on_c, 11, 74, 0
9, 98880, Note_on_c, 11, 71, 76
9, 99224, Note_on_c, 11, 71, 0
9, 99240, Note_on_c, 11, 69, 76
9, 99344, Note_on_c, 11, 69, 0
9, 99360, Note_on_c, 11, 69, 76
9, 99704, Note_on_c, 11, 69, 0
9, 99720, Note_on_c, 11, 67, 76
9, 99824, Note_on_c, 11, 67, 0
9, 99840, Note_on_c, 11, 67, 76
9, 100544, Note_on_c, 11, 67, 0
9, 100560, Note_on_c, 11, 64, 76
9, 100664, Note_on_c, 11, 64, 0
9, 100680, Note_on_c, 11, 65, 76
9, 100784, Note_on_c, 11, 65, 0
9, 100800, Note_on_c, 11, 67, 76
9, 101024, Note_on_c, 11, 67, 0
9, 101040, Note_on_c, 11, 72, 76
9, 101504, Note_on_c, 11, 72, 0
9, 101520, Note_on_c, 11, 67, 76
9, 101744, Note_on_c, 11, 67, 0
9, 101760, Note_on_c, 11, 64, 76
9, 101864, Note_on_c, 11, 64, 0
9, 101880, Note_on_c, 11, 62, 76
9, 101984, Note_on_c, 11, 62, 0
9, 102000, Note_on_c, 11, 64, 76
9, 102104, Note_on_c, 11, 64, 0
9, 102120, Note_on_c, 11, 65, 76
9, 102224, Note_on_c, 11, 65, 0
9, 102240, Note_on_c, 11, 67, 76
9, 102464, Note_on_c, 11, 67, 0
9, 102480, Note_on_c, 11, 69, 76
9, 102584, Note_on_c, 11, 69, 0
9, 102600, Note_on_c, 11, 71, 76
9, 102704, Note_on_c, 11, 71, 0
9, 102720, Note_on_c, 11, 72, 76
9, 102824, Note_on_c, 11, 72, 0
9, 102840, Note_on_c, 11, 74, 76
9, 102944, Note_on_c, 11, 74, 0
9, 102960, Note_on_c, 11, 76, 76
9, 103064, Note_on_c, 11, 76, 0
9, 103080, Note_on_c, 11, 77, 76
9, 103184, Note_on_c, 11, 77, 0
9, 103200, Note_on_c, 11, 79, 76
9, 103424, Note_on_c, 11, 79, 0
9, 103440, Note_on_c, 11, 81, 76
9, 103664, Note_on_c, 11, 81, 0
9, 103680, Note_on_c, 11, 74, 76
9, 103784, Note_on_c, 11, 74, 0
9, 103800, Note_on_c, 11, 72, 76
9, 103904, Note_on_c, 11, 72, 0
9, 103920, Note_on_c, 11, 74, 76
9, 104024, Note_on_c, 11, 74, 0
9, 104040, Note_on_c, 11, 76, 76
9, 104144, Note_on_c, 11, 76, 0
9, 104160, Note_on_c, 11, 74, 76
9, 104384, Note_on_c, 11, 74, 0
9, 104400, Note_on_c, 11, 76, 76
9, 104504, Note_on_c, 11, 76, 0
9, 104520, Note_on_c, 11, 78, 76
9, 104624, Note_on_c, 11, 78, 0
9, 104640, Note_on_c, 11, 79, 76
9, 104864, Note_on_c, 11, 79, 0
9, 104880, Note_on_c, 11, 71, 76
9, 104984, Note_on_c, 11, 71, 0
9, 105000, Note_on_c, 11, 72, 76
9, 105104, Note_on_c, 11, 72, 0
9, 105120, Note_on_c, 11, 74, 76
9, 105344, Note_on_c, 11, 74, 0
9, 105360, Note_on_c, 11, 76, 76
9, 105464, Note_on_c, 11, 76, 0
9, 105480, Note_on_c, 11, 78, 76
9, 105584, Note_on_c, 11, 78, 0
9, 105600, Note_on_c, 11, 79, 76
9, 105824, Note_on_c, 11, 79, 0
9, 105840, Note_on_c, 11, 69, 76
9, 105944, Note_on_c, 11, 69, 0
9, 105960, Note_on_c, 11, 71, 76
9, 106064, Note_on_c, 11, 71, 0
9, 106080, Note_on_c, 11, 72, 76
9, 106304, Note_on_c, 11, 72, 0
9, 106320, Note_on_c, 11, 74, 76
9, 106544, Note_on_c, 11, 74, 0
9, 106560, Note_on_c, 11, 71, 76
9, 106904, Note_on_c, 11, 71, 0
9, 106920, Note_on_c, 11, 69, 76
9, 107024, Note_on_c, 11, 69, 0
9, 107040, Note_on_c, 11, 69, 76
9, 107384, Note_on_c, 11, 69, 0
9, 107400, Note_on_c, 11, 67, 76
9, 107504, Note_on_c, 11, 67, 0
9, 107520, Note_on_c, 11, 67, 76
9, 108224, Note_on_c, 11, 67, 0
9, 108240, Note_on_c, 11, 71, 76
9, 108344, Note_on_c, 11, 71, 0
9, 108360, Note_on_c, 11, 72, 76
9, 108464, Note_on_c, 11, 72, 0
9, 108480, Note_on_c, 11, 74, 76
9, 108704, Note_on_c, 11, 74, 0
9, 108720, Note_on_c, 11, 79, 76
9, 109184, Note_on_c, 11, 79, 0
9, 109200, Note_on_c, 11, 82, 76
9, 109424, Note_on_c, 11, 82, 0
9, 109440, Note_on_c, 11, 73, 76
9, 109544, Note_on_c, 11, 73, 0
9, 109560, Note_on_c, 11, 71, 76
9, 109664, Note_on_c, 11, 71, 0
9, 109680, Note_on_c, 11, 73, 76
9, 109784, Note_on_c, 11, 73, 0
9, 109800, Note_on_c, 11, 74, 76
9, 109904, Note_on_c, 11, 74, 0
9, 109920, Note_on_c, 11, 76, 76
9, 110144, Note_on_c, 11, 76, 0
9, 110160, Note_on_c, 11, 77, 76
9, 110264, Note_on_c, 11, 77, 0
9, 110280, Note_on_c, 11, 79, 76
9, 110384, Note_on_c, 11, 79, 0
9, 110400, Note_on_c, 11, 81, 76
9, 110504, Note_on_c, 11, 81, 0
9, 110520, Note_on_c, 11, 79, 76
9, 110624, Note_on_c, 11, 79, 0
9, 110640, Note_on_c, 11, 81, 76
9, 110744, Note_on_c, 11, 81, 0
9, 110760, Note_on_c, 11, 82, 76
9, 110864, Note_on_c, 11, 82, 0
9, 110880, Note_on_c, 11, 81, 76
9, 110984, Note_on_c, 11, 81, 0
9, 111000, Note_on_c, 11, 79, 76
9, 111104, Note_on_c, 11, 79, 0
9, 111120, Note_on_c, 11, 77, 76
9, 111224, Note_on_c, 11, 77, 0
9, 111240, Note_on_c, 11, 76, 76
9, 111344, Note_on_c, 11, 76, 0
9, 111360, Note_on_c, 11, 77, 76
9, 111464, Note_on_c, 11, 77, 0
9, 111480, Note_on_c, 11, 79, 76
9, 111584, Note_on_c, 11, 79, 0
9, 111600, Note_on_c, 11, 77, 76
9, 111704, Note_on_c, 11, 77, 0
9, 111720, Note_on_c, 11, 76, 76
9, 111824, Note_on_c, 11, 76, 0
9, 111840, Note_on_c, 11, 74, 76
9, 112064, Note_on_c, 11, 74, 0
9, 112080, Note_on_c, 11, 83, 76
9, 112184, Note_on_c, 11, 83, 0
9, 112200, Note_on_c, 11, 84, 76
9, 112304, Note_on_c, 11, 84, 0
9, 112320, Note_on_c, 11, 86, 76
9, 112544, Note_on_c, 11, 86, 0
9, 112560, Note_on_c, 11, 80, 76
9, 112664, Note_on_c, 11, 80, 0
9, 112680, Note_on_c, 11, 81, 76
9, 112784, Note_on_c, 11, 81, 0
9, 112800, Note_on_c, 11, 83, 76
9, 113024, Note_on_c, 11, 83, 0
9, 113040, Note_on_c, 11, 74, 76
9, 113144, Note_on_c, 11, 74, 0
9, 113160, Note_on_c, 11, 76, 76
9, 113264, Note_on_c, 11, 76, 0
9, 113280, Note_on_c, 11, 77, 76
9, 113504, Note_on_c, 11, 77, 0
9, 113520, Note_on_c, 11, 71, 76
9, 113624, Note_on_c, 11, 71, 0
9, 113640, Note_on_c, 11, 72, 76
9, 113744, Note_on_c, 11, 72, 0
9, 113760, Note_on_c, 11, 74, 76
9, 113984, Note_on_c, 11, 74, 0
9, 114000, Note_on_c, 11, 68, 76
9, 114224, Note_on_c, 11, 68, 0
9, 114240, Note_on_c, 11, 69, 76
9, 114584, Note_on_c, 11, 69, 0
9, 114600, Note_on_c, 11, 71, 76
9, 114704, Note_on_c, 11, 71, 0
9, 114720, Note_on_c, 11, 71, 76
9, 115064, Note_on_c, 11, 71, 0
9, 115080, Note_on_c, 11, 69, 76
9, 115184, Note_on_c, 11, 69, 0
9, 115200, Note_on_c, 11, 69, 76
9, 115904, Note_on_c, 11, 69, 0
9, 115920, Note_on_c, 11, 76, 76
9, 116024, Note_on_c, 11, 76, 0
9, 116040, Note_on_c, 11, 77, 76
9, 116144, Note_on_c, 11, 77, 0
9, 116160, Note_on_c, 11, 79, 76
9, 116384, Note_on_c, 11, 79, 0
9, 116400, Note_on_c, 11, 84, 76
9, 116864, Note_on_c, 11, 84, 0
9, 116880, Note_on_c, 11, 79, 76
9, 117104, Note_on_c, 11, 79, 0
9, 117120, Note_on_c, 11, 76, 76
9, 117224, Note_on_c, 11, 76, 0
9, 117240, Note_on_c, 11, 74, 76
9, 117344, Note_on_c, 11, 74, 0
9, 117360, Note_on_c, 11, 76, 76
9, 117464, Note_on_c, 11, 76, 0
9, 117480, Note_on_c, 11, 77, 76
9, 117584, Note_on_c, 11, 77, 0
9, 117600, Note_on_c, 11, 79, 76
9, 117824, Note_on_c, 11, 79, 0
9, 117840, Note_on_c, 11, 70, 76
9, 118064, Note_on_c, 11, 70, 0
9, 118080, Note_on_c, 11, 69, 76
9, 118304, Note_on_c, 11, 69, 0
9, 118320, Note_on_c, 11, 74, 76
9, 118424, Note_on_c, 11, 74, 0
9, 118440, Note_on_c, 11, 72, 76
9, 118544, Note_on_c, 11, 72, 0
9, 118560, Note_on_c, 11, 70, 76
9, 118664, Note_on_c, 11, 70, 0
9, 118680, Note_on_c, 11, 69, 76
9, 118784, Note_on_c, 11, 69, 0
9, 118800, Note_on_c, 11, 70, 76
9, 118904, Note_on_c, 11, 70, 0
9, 118920, Note_on_c, 11, 67, 76
9, 119024, Note_on_c, 11, 67, 0
9, 119040, Note_on_c, 11, 69, 76
9, 119144, Note_on_c, 11, 69, 0
9, 119160, Note_on_c, 11, 70, 76
9, 119264, Note_on_c, 11, 70, 0
9, 119280, Note_on_c, 11, 69, 76
9, 119384, Note_on_c, 11, 69, 0
9, 119400, Note_on_c, 11, 67, 76
9, 119504, Note_on_c, 11, 67, 0
9, 119520, Note_on_c, 11, 65, 76
9, 119744, Note_on_c, 11, 65, 0
9, 119760, Note_on_c, 11, 77, 76
9, 119864, Note_on_c, 11, 77, 0
9, 119880, Note_on_c, 11, 79, 76
9, 119984, Note_on_c, 11, 79, 0
9, 120000, Note_on_c, 11, 81, 76
9, 120224, Note_on_c, 11, 81, 0
9, 120240, Note_on_c, 11, 74, 76
9, 120344, Note_on_c, 11, 74, 0
9, 120360, Note_on_c, 11, 76, 76
9, 120464, Note_on_c, 11, 76, 0
9, 120480, Note_on_c, 11, 77, 76
9, 120704, Note_on_c, 11, 77, 0
9, 120720, Note_on_c, 11, 71, 76
9, 120824, Note_on_c, 11, 71, 0
9, 120840, Note_on_c, 11, 72, 76
9, 120944, Note_on_c, 11, 72, 0
9, 120960, Note_on_c, 11, 74, 76
9, 121184, Note_on_c, 11, 74, 0
9, 121200, Note_on_c, 11, 67, 76
9, 121424, Note_on_c, 11, 67, 0
9, 121440, Note_on_c, 11, 79, 76
9, 121664, Note_on_c, 11, 79, 0
9, 121680, Note_on_c, 11, 71, 76
9, 121904, Note_on_c, 11, 71, 0
9, 121920, Note_on_c, 11, 72, 76
9, 122264, Note_on_c, 11, 72, 0
9, 122280, Note_on_c, 11, 74, 76
9, 122384, Note_on_c, 11, 74, 0
9, 122400, Note_on_c, 11, 74, 76
9, 122744, Note_on_c, 11, 74, 0
9, 122760, Note_on_c, 11, 72, 76
9, 122864, Note_on_c, 11, 72, 0
9, 122880, Note_on_c, 11, 72, 76
9, 123584, Note_on_c, 11, 72, 0
9, 123600, Note_on_c, 11, 71, 76
9, 123704, Note_on_c, 11, 71, 0
9, 123720, Note_on_c, 11, 72, 76
9, 123824, Note_on_c, 11, 72, 0
9, 123840, Note_on_c, 11, 74, 76
9, 124064, Note_on_c, 11, 74, 0
9, 124080, Note_on_c, 11, 79, 76
9, 124544, Note_on_c, 11, 79, 0
9, 124560, Note_on_c, 11, 82, 76
9, 124784, Note_on_c, 11, 82, 0
9, 124800, Note_on_c, 11, 73, 76
9, 124904, Note_on_c, 11, 73, 0
9, 124920, Note_on_c, 11, 71, 76
9, 125024, Note_on_c, 11, 71, 0
9, 125040, Note_on_c, 11, 73, 76
9, 125144, Note_on_c, 11, 73, 0
9, 125160, Note_on_c, 11, 74, 76
9, 125264, Note_on_c, 11, 74, 0
9, 125280, Note_on_c, 11, 76, 76
9, 125504, Note_on_c, 11, 76, 0
9, 125520, Note_on_c, 11, 77, 76
9, 125624, Note_on_c, 11, 77, 0
9, 125640, Note_on_c, 11, 79, 76
9, 125744, Note_on_c, 11, 79, 0
9, 125760, Note_on_c, 11, 81, 76
9, 125864, Note_on_c, 11, 81, 0
9, 125880, Note_on_c, 11, 79, 76
9, 125984, Note_on_c, 11, 79, 0
9, 126000, Note_on_c, 11, 81, 76
9, 126104, Note_on_c, 11, 81, 0
9, 126120, Note_on_c, 11, 82, 76
9, 126224, Note_on_c, 11, 82, 0
9, 126240, Note_on_c, 11, 81, 76
9, 126344, Note_on_c, 11, 81, 0
9, 126360, Note_on_c, 11, 79, 76
9, 126464, Note_on_c, 11, 79, 0
9, 126480, Note_on_c, 11, 77, 76
9, 126584, Note_on_c, 11, 77, 0
9, 126600, Note_on_c, 11, 76, 76
9, 126704, Note_on_c, 11, 76, 0
9, 126720, Note_on_c, 11, 77, 76
9, 126824, Note_on_c, 11, 77, 0
9, 126840, Note_on_c, 11, 79, 76
9, 126944, Note_on_c, 11, 79, 0
9, 126960, Note_on_c, 11, 77, 76
9, 127064, Note_on_c, 11, 77, 0
9, 127080, Note_on_c, 11, 76, 76
9, 127184, Note_on_c, 11, 76, 0
9, 127200, Note_on_c, 11, 74, 76
9, 127424, Note_on_c, 11, 74, 0
9, 127440, Note_on_c, 11, 83, 76
9, 127544, Note_on_c, 11, 83, 0
9, 127560, Note_on_c, 11, 84, 76
9, 127664, Note_on_c, 11, 84, 0
9, 127680, Note_on_c, 11, 86, 76
9, 127904, Note_on_c, 11, 86, 0
9, 127920, Note_on_c, 11, 80, 76
9, 128024, Note_on_c, 11, 80, 0
9, 128040, Note_on_c, 11, 81, 76
9, 128144, Note_on_c, 11, 81, 0
9, 128160, Note_on_c, 11, 83, 76
9, 128384, Note_on_c, 11, 83, 0
9, 128400, Note_on_c, 11, 74, 76
9, 128504, Note_on_c, 11, 74, 0
9, 128520, Note_on_c, 11, 76, 76
9, 128624, Note_on_c, 11, 76, 0
9, 128640, Note_on_c, 11, 77, 76
9, 128864, Note_on_c, 11, 77, 0
9, 128880, Note_on_c, 11, 71, 76
9, 128984, Note_on_c, 11, 71, 0
9, 129000, Note_on_c, 11, 72, 76
9, 129104, Note_on_c, 11, 72, 0
9, 129120, Note_on_c, 11, 74, 76
9, 129344, Note_on_c, 11, 74, 0
9, 129360, Note_on_c, 11, 68, 76
9, 129584, Note_on_c, 11, 68, 0
9, 129600, Note_on_c, 11, 69, 76
9, 129944, Note_on_c, 11, 69, 0
9, 129960, Note_on_c, 11, 71, 76
9, 130064, Note_on_c, 11, 71, 0
9, 130080, Note_on_c, 11, 71, 76
9, 130424, Note_on_c, 11, 71, 0
9, 130440, Note_on_c, 11, 69, 76
9, 130544, Note_on_c, 11, 69, 0
9, 130560, Note_on_c, 11, 69, 76
9, 131264, Note_on_c, 11, 69, 0
9, 131280, Note_on_c, 11, 76, 76
9, 131384, Note_on_c, 11, 76, 0
9, 131400, Note_on_c, 11, 77, 76
9, 131504, Note_on_c, 11, 77, 0
9, 131520, Note_on_c, 11, 79, 76
9, 131744, Note_on_c, 11, 79, 0
9, 131760, Note_on_c, 11, 84, 76
9, 132224, Note_on_c, 11, 84, 0
9, 132240, Note_on_c, 11, 79, 76
9, 132464, Note_on_c, 11, 79, 0
9, 132480, Note_on_c, 11, 76, 76
9, 132584, Note_on_c, 11, 76, 0
9, 132600, Note_on_c, 11, 74, 76
9, 132704, Note_on_c, 11, 74, 0
9, 132720, Note_on_c, 11, 76, 76
9, 132824, Note_on_c, 11, 76, 0
9, 132840, Note_on_c, 11, 77, 76
9, 132944, Note_on_c, 11, 77, 0
9, 132960, Note_on_c, 11, 79, 76
9, 133184, Note_on_c, 11, 79, 0
9, 133200, Note_on_c, 11, 70, 76
9, 133424, Note_on_c, 11, 70, 0
9, 133440, Note_on_c, 11, 69, 76
9, 133664, Note_on_c, 11, 69, 0
9, 133680, Note_on_c, 11, 74, 76
9, 133784, Note_on_c, 11, 74, 0
9, 133800, Note_on_c, 11, 72, 76
9, 133904, Note_on_c, 11, 72, 0
9, 133920, Note_on_c, 11, 70, 76
9, 134024, Note_on_c, 11, 70, 0
9, 134040, Note_on_c, 11, 69, 76
9, 134144, Note_on_c, 11, 69, 0
9, 134160, Note_on_c, 11, 70, 76
9, 134264, Note_on_c, 11, 70, 0
9, 134280, Note_on_c, 11, 67, 76
9, 134384, Note_on_c, 11, 67, 0
9, 134400, Note_on_c, 11, 69, 76
9, 134504, Note_on_c, 11, 69, 0
9, 134520, Note_on_c, 11, 70, 76
9, 134624, Note_on_c, 11, 70, 0
9, 134640, Note_on_c, 11, 69, 76
9, 134744, Note_on_c, 11, 69, 0
9, 134760, Note_on_c, 11, 67, 76
9, 134864, Note_on_c, 11, 67, 0
9, 134880, Note_on_c, 11, 65, 76
9, 135104, Note_on_c, 11, 65, 0
9, 135120, Note_on_c, 11, 77, 76
9, 135224, Note_on_c, 11, 77, 0
9, 135240, Note_on_c, 11, 79, 76
9, 135344, Note_on_c, 11, 79, 0
9, 135360, Note_on_c, 11, 81, 76
9, 135584, Note_on_c, 11, 81, 0
9, 135600, Note_on_c, 11, 74, 76
9, 135704, Note_on_c, 11, 74, 0
9, 135720, Note_on_c, 11, 76, 76
9, 135824, Note_on_c, 11, 76, 0
9, 135840, Note_on_c, 11, 77, 76
9, 136064, Note_on_c, 11, 77, 0
9, 136080, Note_on_c, 11, 71, 76
9, 136184, Note_on_c, 11, 71, 0
9, 136200, Note_on_c, 11, 72, 76
9, 136304, Note_on_c, 11, 72, 0
9, 136320, Note_on_c, 11, 74, 76
9, 136544, Note_on_c, 11, 74, 0
9, 136560, Note_on_c, 11, 67, 76
9, 136784, Note_on_c, 11, 67, 0
9, 136800, Note_on_c, 11, 79, 76
9, 137024, Note_on_c, 11, 79, 0
9, 137040, Note_on_c, 11, 71, 76
9, 137264, Note_on_c, 11, 71, 0
9, 137280, Note_on_c, 11, 72, 76
9, 137624, Note_on_c, 11, 72, 0
9, 137640, Note_on_c, 11, 74, 76
9, 137744, Note_on_c, 11, 74, 0
9, 137760, Note_on_c, 11, 74, 76
9, 138104, Note_on_c, 11, 74, 0
9, 138120, Note_on_c, 11, 72, 76
9, 138224, Note_on_c, 11, 72, 0
9, 138240, Note_on_c, 11, 72, 76
9, 138959, Note_on_c, 11, 72, 0
9, 138959, End_track
10, 0, Start_track
10, 0, Title_t, "Violin II"
10, 0, MIDI_port, 0
10, 0, Program_c, 12, 48
10, 0, Control_c, 12, 10, 24
10, 0, Control_c, 12, 11, 127
10, 0, Control_c, 12, 7, 96
10, 720, Note_on_c, 12, 64, 76
10, 824, Note_on_c, 12, 64, 0
10, 840, Note_on_c, 12, 65, 76
10, 944, Note_on_c, 12, 65, 0
10, 960, Note_on_c, 12, 67, 76
10, 1184, Note_on_c, 12, 67, 0
10, 1200, Note_on_c, 12, 59, 76
10, 1424, Note_on_c, 12, 59, 0
10, 1440, Note_on_c, 12, 60, 76
10, 1544, Note_on_c, 12, 60, 0
10, 1560, Note_on_c, 12, 59, 76
10, 1664, Note_on_c, 12, 59, 0
10, 1680, Note_on_c, 12, 60, 76
10, 1784, Note_on_c, 12, 60, 0
10, 1800, Note_on_c, 12, 62, 76
10, 1904, Note_on_c, 12, 62, 0
10, 1920, Note_on_c, 12, 64, 76
10, 2144, Note_on_c, 12, 64, 0
10, 2160, Note_on_c, 12, 65, 76
10, 2384, Note_on_c, 12, 65, 0
10, 2400, Note_on_c, 12, 67, 76
10, 2624, Note_on_c, 12, 67, 0
10, 2640, Note_on_c, 12, 71, 76
10, 2864, Note_on_c, 12, 71, 0
10, 2880, Note_on_c, 12, 72, 76
10, 3104, Note_on_c, 12, 72, 0
10, 3120, Note_on_c, 12, 72, 76
10, 3344, Note_on_c, 12, 72, 0
10, 3360, Note_on_c, 12, 71, 76
10, 3584, Note_on_c, 12, 71, 0
10, 3600, Note_on_c, 12, 72, 76
10, 3824, Note_on_c, 12, 72, 0
10, 3840, Note_on_c, 12, 74, 76
10, 4064, Note_on_c, 12, 74, 0
10, 4080, Note_on_c, 12, 72, 76
10, 4304, Note_on_c, 12, 72, 0
10, 4320, Note_on_c, 12, 74, 76
10, 4559, Note_on_c, 12, 74, 0
10, 5040, Note_on_c, 12, 67, 76
10, 5144, Note_on_c, 12, 67, 0
10, 5160, Note_on_c, 12, 69, 76
10, 5264, Note_on_c, 12, 69, 0
10, 5280, Note_on_c, 12, 71, 76
10, 5519, Note_on_c, 12, 71, 0
10, 6000, Note_on_c, 12, 69, 76
10, 6224, Note_on_c, 12, 69, 0
10, 6240, Note_on_c, 12, 67, 76
10, 6464, Note_on_c, 12, 67, 0
10, 6480, Note_on_c, 12, 67, 76
10, 6704, Note_on_c, 12, 67, 0
10, 6720, Note_on_c, 12, 67, 76
10, 6944, Note_on_c, 12, 67, 0
10, 6960, Note_on_c, 12, 66, 76
10, 7184, Note_on_c, 12, 66, 0
10, 7200, Note_on_c, 12, 62, 76
10, 7919, Note_on_c, 12, 62, 0
10, 8400, Note_on_c, 12, 64, 76
10, 8504, Note_on_c, 12, 64, 0
10, 8520, Note_on_c, 12, 65, 76
10, 8624, Note_on_c, 12, 65, 0
10, 8640, Note_on_c, 12, 67, 76
10, 8864, Note_on_c, 12, 67, 0
10, 8880, Note_on_c, 12, 59, 76
10, 9104, Note_on_c, 12, 59, 0
10, 9120, Note_on_c, 12, 60, 76
10, 9224, Note_on_c, 12, 60, 0
10, 9240, Note_on_c, 12, 59, 76
10, 9344, Note_on_c, 12, 59, 0
10, 9360, Note_on_c, 12, 60, 76
10, 9464, Note_on_c, 12, 60, 0
10, 9480, Note_on_c, 12, 62, 76
10, 9584, Note_on_c, 12, 62, 0
10, 9600, Note_on_c, 12, 64, 76
10, 9824, Note_on_c, 12, 64, 0
10, 9840, Note_on_c, 12, 65, 76
10, 10064, Note_on_c, 12, 65, 0
10, 10080, Note_on_c, 12, 67, 76
10, 10304, Note_on_c, 12, 67, 0
10, 10320, Note_on_c, 12, 71, 76
10, 10544, Note_on_c, 12, 71, 0
10, 10560, Note_on_c, 12, 72, 76
10, 10784, Note_on_c, 12, 72, 0
10, 10800, Note_on_c, 12, 72, 76
10, 11024, Note_on_c, 12, 72, 0
10, 11040, Note_on_c, 12, 71, 76
10, 11264, Note_on_c, 12, 71, 0
10, 11280, Note_on_c, 12, 72, 76
10, 11504, Note_on_c, 12, 72, 0
10, 11520, Note_on_c, 12, 74, 76
10, 11744, Note_on_c, 12, 74, 0
10, 11760, Note_on_c, 12, 72, 76
10, 11984, Note_on_c, 12, 72, 0
10, 12000, Note_on_c, 12, 74, 76
10, 12239, Note_on_c, 12, 74, 0
10, 12720, Note_on_c, 12, 67, 76
10, 12824, Note_on_c, 12, 67, 0
10, 12840, Note_on_c, 12, 69, 76
10, 12944, Note_on_c, 12, 69, 0
10, 12960, Note_on_c, 12, 71, 76
10, 13199, Note_on_c, 12, 71, 0
10, 13680, Note_on_c, 12, 69, 76
10, 13904, Note_on_c, 12, 69, 0
10, 13920, Note_on_c, 12, 67, 76
10, 14144, Note_on_c, 12, 67, 0
10, 14160, Note_on_c, 12, 67, 76
10, 14384, Note_on_c, 12, 67, 0
10, 14400, Note_on_c, 12, 67, 76
10, 14624, Note_on_c, 12, 67, 0
10, 14640, Note_on_c, 12, 66, 76
10, 14864, Note_on_c, 12, 66, 0
10, 14880, Note_on_c, 12, 62, 76
10, 15599, Note_on_c, 12, 62, 0
10, 16080, Note_on_c, 12, 74, 76
10, 16304, Note_on_c, 12, 74, 0
10, 16320, Note_on_c, 12, 73, 76
10, 16544, Note_on_c, 12, 73, 0
10, 16560, Note_on_c, 12, 74, 76
10, 16784, Note_on_c, 12, 74, 0
10, 16800, Note_on_c, 12, 69, 76
10, 16904, Note_on_c, 12, 69, 0
10, 16920, Note_on_c, 12, 67, 76
10, 17024, Note_on_c, 12, 67, 0
10, 17040, Note_on_c, 12, 69, 76
10, 17144, Note_on_c, 12, 69, 0
10, 17160, Note_on_c, 12, 71, 76
10, 17264, Note_on_c, 12, 71, 0
10, 17280, Note_on_c, 12, 73, 76
10, 17504, Note_on_c, 12, 73, 0
10, 17520, Note_on_c, 12, 74, 76
10, 17624, Note_on_c, 12, 74, 0
10, 17640, Note_on_c, 12, 76, 76
10, 17744, Note_on_c, 12, 76, 0
10, 17760, Note_on_c, 12, 77, 76
10, 17984, Note_on_c, 12, 77, 0
10, 18000, Note_on_c, 12, 76, 76
10, 18104, Note_on_c, 12, 76, 0
10, 18120, Note_on_c, 12, 74, 76
10, 18224, Note_on_c, 12, 74, 0
10, 18240, Note_on_c, 12, 73, 76
10, 18464, Note_on_c, 12, 73, 0
10, 18480, Note_on_c, 12, 73, 76
10, 18704, Note_on_c, 12, 73, 0
10, 18720, Note_on_c, 12, 74, 76
10, 18944, Note_on_c, 12, 74, 0
10, 18960, Note_on_c, 12, 69, 76
10, 19184, Note_on_c, 12, 69, 0
10, 19200, Note_on_c, 12, 69, 76
10, 19424, Note_on_c, 12, 69, 0
10, 19440, Note_on_c, 12, 74, 76
10, 19544, Note_on_c, 12, 74, 0
10, 19560, Note_on_c, 12, 72, 76
10, 19664, Note_on_c, 12, 72, 0
10, 19680, Note_on_c, 12, 71, 76
10, 19784, Note_on_c, 12, 71, 0
10, 19800, Note_on_c, 12, 72, 76
10, 19904, Note_on_c, 12, 72, 0
10, 19920, Note_on_c, 12, 71, 76
10, 20024, Note_on_c, 12, 71, 0
10, 20040, Note_on_c, 12, 69, 76
10, 20144, Note_on_c, 12, 69, 0
10, 20160, Note_on_c, 12, 68, 76
10, 20384, Note_on_c, 12, 68, 0
10, 20400, Note_on_c, 12, 59, 76
10, 20504, Note_on_c, 12, 59, 0
10, 20520, Note_on_c, 12, 60, 76
10, 20624, Note_on_c, 12, 60, 0
10, 20640, Note_on_c, 12, 62, 76
10, 20864, Note_on_c, 12, 62, 0
10, 20880, Note_on_c, 12, 62, 76
10, 20984, Note_on_c, 12, 62, 0
10, 21000, Note_on_c, 12, 64, 76
10, 21104, Note_on_c, 12, 64, 0
10, 21120, Note_on_c, 12, 65, 76
10, 21344, Note_on_c, 12, 65, 0
10, 21360, Note_on_c, 12, 64, 76
10, 21584, Note_on_c, 12, 64, 0
10, 21600, Note_on_c, 12, 64, 76
10, 21824, Note_on_c, 12, 64, 0
10, 21840, Note_on_c, 12, 69, 76
10, 22064, Note_on_c, 12, 69, 0
10, 22080, Note_on_c, 12, 68, 76
10, 22424, Note_on_c, 12, 68, 0
10, 22440, Note_on_c, 12, 64, 76
10, 22544, Note_on_c, 12, 64, 0
10, 22560, Note_on_c, 12, 64, 76
10, 23279, Note_on_c, 12, 64, 0
10, 23760, Note_on_c, 12, 79, 76
10, 23864, Note_on_c, 12, 79, 0
10, 23880, Note_on_c, 12, 77, 76
10, 23984, Note_on_c, 12, 77, 0
10, 24000, Note_on_c, 12, 76, 76
10, 24104, Note_on_c, 12, 76, 0
10, 24120, Note_on_c, 12, 74, 76
10, 24224, Note_on_c, 12, 74, 0
10, 24240, Note_on_c, 12, 76, 76
10, 24344, Note_on_c, 12, 76, 0
10, 24360, Note_on_c, 12, 72, 76
10, 24464, Note_on_c, 12, 72, 0
10, 24480, Note_on_c, 12, 70, 76
10, 24584, Note_on_c, 12, 70, 0
10, 24600, Note_on_c, 12, 72, 76
10, 24704, Note_on_c, 12, 72, 0
10, 24720, Note_on_c, 12, 70, 76
10, 24824, Note_on_c, 12, 70, 0
10, 24840, Note_on_c, 12, 69, 76
10, 24944, Note_on_c, 12, 69, 0
10, 24960, Note_on_c, 12, 67, 76
10, 25184, Note_on_c, 12, 67, 0
10, 25200, Note_on_c, 12, 67, 76
10, 25424, Note_on_c, 12, 67, 0
10, 25440, Note_on_c, 12, 65, 76
10, 25664, Note_on_c, 12, 65, 0
10, 25680, Note_on_c, 12, 65, 76
10, 25904, Note_on_c, 12, 65, 0
10, 25920, Note_on_c, 12, 65, 76
10, 26144, Note_on_c, 12, 65, 0
10, 26160, Note_on_c, 12, 64, 76
10, 26384, Note_on_c, 12, 64, 0
10, 26400, Note_on_c, 12, 65, 76
10, 26624, Note_on_c, 12, 65, 0
10, 26640, Note_on_c, 12, 60, 76
10, 26864, Note_on_c, 12, 60, 0
10, 26880, Note_on_c, 12, 60, 76
10, 27104, Note_on_c, 12, 60, 0
10, 27120, Note_on_c, 12, 62, 76
10, 27224, Note_on_c, 12, 62, 0
10, 27240, Note_on_c, 12, 64, 76
10, 27344, Note_on_c, 12, 64, 0
10, 27360, Note_on_c, 12, 65, 76
10, 27584, Note_on_c, 12, 65, 0
10, 27600, Note_on_c, 12, 65, 76
10, 27704, Note_on_c, 12, 65, 0
10, 27720, Note_on_c, 12, 67, 76
10, 27824, Note_on_c, 12, 67, 0
10, 27840, Note_on_c, 12, 69, 76
10, 27944, Note_on_c, 12, 69, 0
10, 27960, Note_on_c, 12, 67, 76
10, 28064, Note_on_c, 12, 67, 0
10, 28080, Note_on_c, 12, 65, 76
10, 28184, Note_on_c, 12, 65, 0
10, 28200, Note_on_c, 12, 64, 76
10, 28304, Note_on_c, 12, 64, 0
10, 28320, Note_on_c, 12, 62, 76
10, 28424, Note_on_c, 12, 62, 0
10, 28440, Note_on_c, 12, 64, 76
10, 28544, Note_on_c, 12, 64, 0
10, 28560, Note_on_c, 12, 62, 76
10, 28664, Note_on_c, 12, 62, 0
10, 28680, Note_on_c, 12, 60, 76
10, 28784, Note_on_c, 12, 60, 0
10, 28800, Note_on_c, 12, 59, 76
10, 29024, Note_on_c, 12, 59, 0
10, 29040, Note_on_c, 12, 67, 76
10, 29264, Note_on_c, 12, 67, 0
10, 29280, Note_on_c, 12, 67, 76
10, 29504, Note_on_c, 12, 67, 0
10, 29520, Note_on_c, 12, 72, 76
10, 29744, Note_on_c, 12, 72, 0
10, 29760, Note_on_c, 12, 71, 76
10, 29984, Note_on_c, 12, 71, 0
10, 30000, Note_on_c, 12, 67, 76
10, 30224, Note_on_c, 12, 67, 0
10, 30240, Note_on_c, 12, 67, 76
10, 30959, Note_on_c, 12, 67, 0
10, 31440, Note_on_c, 12, 74, 76
10, 31664, Note_on_c, 12, 74, 0
10, 31680, Note_on_c, 12, 73, 76
10, 31904, Note_on_c, 12, 73, 0
10, 31920, Note_on_c, 12, 74, 76
10, 32144, Note_on_c, 12, 74, 0
10, 32160, Note_on_c, 12, 69, 76
10, 32264, Note_on_c, 12, 69, 0
10, 32280, Note_on_c, 12, 67, 76
10, 32384, Note_on_c, 12, 67, 0
10, 32400, Note_on_c, 12, 69, 76
10, 32504, Note_on_c, 12, 69, 0
10, 32520, Note_on_c, 12, 71, 76
10, 32624, Note_on_c, 12, 71, 0
10, 32640, Note_on_c, 12, 73, 76
10, 32864, Note_on_c, 12, 73, 0
10, 32880, Note_on_c, 12, 74, 76
10, 32984, Note_on_c, 12, 74, 0
10, 33000, Note_on_c, 12, 76, 76
10, 33104, Note_on_c, 12, 76, 0
10, 33120, Note_on_c, 12, 77, 76
10, 33344, Note_on_c, 12, 77, 0
10, 33360, Note_on_c, 12, 76, 76
10, 33464, Note_on_c, 12, 76, 0
10, 33480, Note_on_c, 12, 74, 76
10, 33584, Note_on_c, 12, 74, 0
10, 33600, Note_on_c, 12, 73, 76
10, 33824, Note_on_c, 12, 73, 0
10, 33840, Note_on_c, 12, 73, 76
10, 34064, Note_on_c, 12, 73, 0
10, 34080, Note_on_c, 12, 74, 76
10, 34304, Note_on_c, 12, 74, 0
10, 34320, Note_on_c, 12, 69, 76
10, 34544, Note_on_c, 12, 69, 0
10, 34560, Note_on_c, 12, 69, 76
10, 34784, Note_on_c, 12, 69, 0
10, 34800, Note_on_c, 12, 74, 76
10, 34904, Note_on_c, 12, 74, 0
10, 34920, Note_on_c, 12, 72, 76
10, 35024, Note_on_c, 12, 72, 0
10, 35040, Note_on_c, 12, 71, 76
10, 35144, Note_on_c, 12, 71, 0
10, 35160, Note_on_c, 12, 72, 76
10, 35264, Note_on_c, 12, 72, 0
10, 35280, Note_on_c, 12, 71, 76
10, 35384, Note_on_c, 12, 71, 0
10, 35400, Note_on_c, 12, 69, 76
10, 35504, Note_on_c, 12, 69, 0
10, 35520, Note_on_c, 12, 68, 76
10, 35744, Note_on_c, 12, 68, 0
10, 35760, Note_on_c, 12, 59, 76
10, 35864, Note_on_c, 12, 59, 0
10, 35880, Note_on_c, 12, 60, 76
10, 35984, Note_on_c, 12, 60, 0
10, 36000, Note_on_c, 12, 62, 76
10, 36224, Note_on_c, 12, 62, 0
10, 36240, Note_on_c, 12, 62, 76
10, 36344, Note_on_c, 12, 62, 0
10, 36360, Note_on_c, 12, 64, 76
10, 36464, Note_on_c, 12, 64, 0
10, 36480, Note_on_c, 12, 65, 76
10, 36704, Note_on_c, 12, 65, 0
10, 36720, Note_on_c, 12, 64, 76
10, 36944, Note_on_c, 12, 64, 0
10, 36960, Note_on_c, 12, 64, 76
10, 37184, Note_on_c, 12, 64, 0
10, 37200, Note_on_c, 12, 69, 76
10, 37424, Note_on_c, 12, 69, 0
10, 37440, Note_on_c, 12, 68, 76
10, 37784, Note_on_c, 12, 68, 0
10, 37800, Note_on_c, 12, 64, 76
10, 37904, Note_on_c, 12, 64, 0
10, 37920, Note_on_c, 12, 64, 76
10, 38639, Note_on_c, 12, 64, 0
10, 39120, Note_on_c, 12, 79, 76
10, 39224, Note_on_c, 12, 79, 0
10, 39240, Note_on_c, 12, 77, 76
10, 39344, Note_on_c, 12, 77, 0
10, 39360, Note_on_c, 12, 76, 76
10, 39464, Note_on_c, 12, 76, 0
10, 39480, Note_on_c, 12, 74, 76
10, 39584, Note_on_c, 12, 74, 0
10, 39600, Note_on_c, 12, 76, 76
10, 39704, Note_on_c, 12, 76, 0
10, 39720, Note_on_c, 12, 72, 76
10, 39824, Note_on_c, 12, 72, 0
10, 39840, Note_on_c, 12, 70, 76
10, 39944, Note_on_c, 12, 70, 0
10, 39960, Note_on_c, 12, 72, 76
10, 40064, Note_on_c, 12, 72, 0
10, 40080, Note_on_c, 12, 70, 76
10, 40184, Note_on_c, 12, 70, 0
10, 40200, Note_on_c, 12, 69, 76
10, 40304, Note_on_c, 12, 69, 0
10, 40320, Note_on_c, 12, 67, 76
10, 40544, Note_on_c, 12, 67, 0
10, 40560, Note_on_c, 12, 67, 76
10, 40784, Note_on_c, 12, 67, 0
10, 40800, Note_on_c, 12, 65, 76
10, 41024, Note_on_c, 12, 65, 0
10, 41040, Note_on_c, 12, 65, 76
10, 41264, Note_on_c, 12, 65, 0
10, 41280, Note_on_c, 12, 65, 76
10, 41504, Note_on_c, 12, 65, 0
10, 41520, Note_on_c, 12, 64, 76
10, 41744, Note_on_c, 12, 64, 0
10, 41760, Note_on_c, 12, 65, 76
10, 41984, Note_on_c, 12, 65, 0
10, 42000, Note_on_c, 12, 60, 76
10, 42224, Note_on_c, 12, 60, 0
10, 42240, Note_on_c, 12, 60, 76
10, 42464, Note_on_c, 12, 60, 0
10, 42480, Note_on_c, 12, 62, 76
10, 42584, Note_on_c, 12, 62, 0
10, 42600, Note_on_c, 12, 64, 76
10, 42704, Note_on_c, 12, 64, 0
10, 42720, Note_on_c, 12, 65, 76
10, 42944, Note_on_c, 12, 65, 0
10, 42960, Note_on_c, 12, 65, 76
10, 43064, Note_on_c, 12, 65, 0
10, 43080, Note_on_c, 12, 67, 76
10, 43184, Note_on_c, 12, 67, 0
10, 43200, Note_on_c, 12, 69, 76
10, 43304, Note_on_c, 12, 69, 0
10, 43320, Note_on_c, 12, 67, 76
10, 43424, Note_on_c, 12, 67, 0
10, 43440, Note_on_c, 12, 65, 76
10, 43544, Note_on_c, 12, 65, 0
10, 43560, Note_on_c, 12, 64, 76
10, 43664, Note_on_c, 12, 64, 0
10, 43680, Note_on_c, 12, 62, 76
10, 43784, Note_on_c, 12, 62, 0
10, 43800, Note_on_c, 12, 64, 76
10, 43904, Note_on_c, 12, 64, 0
10, 43920, Note_on_c, 12, 62, 76
10, 44024, Note_on_c, 12, 62, 0
10, 44040, Note_on_c, 12, 60, 76
10, 44144, Note_on_c, 12, 60, 0
10, 44160, Note_on_c, 12, 59, 76
10, 44384, Note_on_c, 12, 59, 0
10, 44400, Note_on_c, 12, 67, 76
10, 44624, Note_on_c, 12, 67, 0
10, 44640, Note_on_c, 12, 67, 76
10, 44864, Note_on_c, 12, 67, 0
10, 44880, Note_on_c, 12, 72, 76
10, 45104, Note_on_c, 12, 72, 0
10, 45120, Note_on_c, 12, 71, 76
10, 45344, Note_on_c, 12, 71, 0
10, 45360, Note_on_c, 12, 67, 76
10, 45584, Note_on_c, 12, 67, 0
10, 45600, Note_on_c, 12, 67, 76
10, 46319, Note_on_c, 12, 67, 0
10, 93360, Note_on_c, 12, 64, 76
10, 93464, Note_on_c, 12, 64, 0
10, 93480, Note_on_c, 12, 65, 76
10, 93584, Note_on_c, 12, 65, 0
10, 93600, Note_on_c, 12, 67, 76
10, 93824, Note_on_c, 12, 67, 0
10, 93840, Note_on_c, 12, 59, 76
10, 94064, Note_on_c, 12, 59, 0
10, 94080, Note_on_c, 12, 60, 76
10, 94184, Note_on_c, 12, 60, 0
10, 94200, Note_on_c, 12, 59, 76
10, 94304, Note_on_c, 12, 59, 0
10, 94320, Note_on_c, 12, 60, 76
10, 94424, Note_on_c, 12, 60, 0
10, 94440, Note_on_c, 12, 62, 76
10, 94544, Note_on_c, 12, 62, 0
10, 94560, Note_on_c, 12, 64, 76
10, 94784, Note_on_c, 12, 64, 0
10, 94800, Note_on_c, 12, 65, 76
10, 95024, Note_on_c, 12, 65, 0
10, 95040, Note_on_c, 12, 67, 76
10, 95264, Note_on_c, 12, 67, 0
10, 95280, Note_on_c, 12, 71, 76
10, 95504, Note_on_c, 12, 71, 0
10, 95520, Note_on_c, 12, 72, 76
10, 95744, Note_on_c, 12, 72, 0
10, 95760, Note_on_c, 12, 72, 76
10, 95984, Note_on_c, 12, 72, 0
10, 96000, Note_on_c, 12, 71, 76
10, 96224, Note_on_c, 12, 71, 0
10, 96240, Note_on_c, 12, 72, 76
10, 96464, Note_on_c, 12, 72, 0
10, 96480, Note_on_c, 12, 74, 76
10, 96704, Note_on_c, 12, 74, 0
10, 96720, Note_on_c, 12, 72, 76
10, 96944, Note_on_c, 12, 72, 0
10, 96960, Note_on_c, 12, 74, 76
10, 97199, Note_on_c, 12, 74, 0
10, 97680, Note_on_c, 12, 67, 76
10, 97784, Note_on_c, 12, 67, 0
10, 97800, Note_on_c, 12, 69, 76
10, 97904, Note_on_c, 12, 69, 0
10, 97920, Note_on_c, 12, 71, 76
10, 98159, Note_on_c, 12, 71, 0
10, 98640, Note_on_c, 12, 69, 76
10, 98864, Note_on_c, 12, 69, 0
10, 98880, Note_on_c, 12, 67, 76
10, 99104, Note_on_c, 12, 67, 0
10, 99120, Note_on_c, 12, 67, 76
10, 99344, Note_on_c, 12, 67, 0
10, 99360, Note_on_c, 12, 67, 76
10, 99584, Note_on_c, 12, 67, 0
10, 99600, Note_on_c, 12, 66, 76
10, 99824, Note_on_c, 12, 66, 0
10, 99840, Note_on_c, 12, 62, 76
10, 100559, Note_on_c, 12, 62, 0
10, 101040, Note_on_c, 12, 64, 76
10, 101144, Note_on_c, 12, 64, 0
10, 101160, Note_on_c, 12, 65, 76
10, 101264, Note_on_c, 12, 65, 0
10, 101280, Note_on_c, 12, 67, 76
10, 101504, Note_on_c, 12, 67, 0
10, 101520, Note_on_c, 12, 59, 76
10, 101744, Note_on_c, 12, 59, 0
10, 101760, Note_on_c, 12, 60, 76
10, 101864, Note_on_c, 12, 60, 0
10, 101880, Note_on_c, 12, 59, 76
10, 101984, Note_on_c, 12, 59, 0
10, 102000, Note_on_c, 12, 60, 76
10, 102104, Note_on_c, 12, 60, 0
10, 102120, Note_on_c, 12, 62, 76
10, 102224, Note_on_c, 12, 62, 0
10, 102240, Note_on_c, 12, 64, 76
10, 102464, Note_on_c, 12, 64, 0
10, 102480, Note_on_c, 12, 65, 76
10, 102704, Note_on_c, 12, 65, 0
10, 102720, Note_on_c, 12, 67, 76
10, 102944, Note_on_c, 12, 67, 0
10, 102960, Note_on_c, 12, 71, 76
10, 103184, Note_on_c, 12, 71, 0
10, 103200, Note_on_c, 12, 72, 76
10, 103424, Note_on_c, 12, 72, 0
10, 103440, Note_on_c, 12, 72, 76
10, 103664, Note_on_c, 12, 72, 0
10, 103680, Note_on_c, 12, 71, 76
10, 103904, Note_on_c, 12, 71, 0
10, 103920, Note_on_c, 12, 72, 76
10, 104144, Note_on_c, 12, 72, 0
10, 104160, Note_on_c, 12, 74, 76
10, 104384, Note_on_c, 12, 74, 0
10, 104400, Note_on_c, 12, 72, 76
10, 104624, Note_on_c, 12, 72, 0
10, 104640, Note_on_c, 12, 74, 76
10, 104879, Note_on_c, 12, 74, 0
10, 105360, Note_on_c, 12, 67, 76
10, 105464, Note_on_c, 12, 67, 0
10, 105480, Note_on_c, 12, 69, 76
10, 105584, Note_on_c, 12, 69, 0
10, 105600, Note_on_c, 12, 71, 76
10, 105839, Note_on_c, 12, 71, 0
10, 106320, Note_on_c, 12, 69, 76
10, 106544, Note_on_c, 12, 69, 0
10, 106560, Note_on_c, 12, 67, 76
10, 106784, Note_on_c, 12, 67, 0
10, 106800, Note_on_c, 12, 67, 76
10, 107024, Note_on_c, 12, 67, 0
10, 107040, Note_on_c, 12, 67, 76
10, 107264, Note_on_c, 12, 67, 0
10, 107280, Note_on_c, 12, 66, 76
10, 107504, Note_on_c, 12, 66, 0
10, 107520, Note_on_c, 12, 62, 76
10, 108239, Note_on_c, 12, 62, 0
10, 108720, Note_on_c, 12, 74, 76
10, 108944, Note_on_c, 12, 74, 0
10, 108960, Note_on_c, 12, 73, 76
10, 109184, Note_on_c, 12, 73, 0
10, 109200, Note_on_c, 12, 74, 76
10, 109424, Note_on_c, 12, 74, 0
10, 109440, Note_on_c, 12, 69, 76
10, 109544, Note_on_c, 12, 69, 0
10, 109560, Note_on_c, 12, 67, 76
10, 109664, Note_on_c, 12, 67, 0
10, 109680, Note_on_c, 12, 69, 76
10, 109784, Note_on_c, 12, 69, 0
10, 109800, Note_on_c, 12, 71, 76
10, 109904, Note_on_c, 12, 71, 0
10, 109920, Note_on_c, 12, 73, 76
10, 110144, Note_on_c, 12, 73, 0
10, 110160, Note_on_c, 12, 74, 76
10, 110264, Note_on_c, 12, 74, 0
10, 110280, Note_on_c, 12, 76, 76
10, 110384, Note_on_c, 12, 76, 0
10, 110400, Note_on_c, 12, 77, 76
10, 110624, Note_on_c, 12, 77, 0
10, 110640, Note_on_c, 12, 76, 76
10, 110744, Note_on_c, 12, 76, 0
10, 110760, Note_on_c, 12, 74, 76
10, 110864, Note_on_c, 12, 74, 0
10, 110880, Note_on_c, 12, 73, 76
10, 111104, Note_on_c, 12, 73, 0
10, 111120, Note_on_c, 12, 73, 76
10, 111344, Note_on_c, 12, 73, 0
10, 111360, Note_on_c, 12, 74, 76
10, 111584, Note_on_c, 12, 74, 0
10, 111600, Note_on_c, 12, 69, 76
10, 111824, Note_on_c, 12, 69, 0
10, 111840, Note_on_c, 12, 69, 76
10, 112064, Note_on_c, 12, 69, 0
10, 112080, Note_on_c, 12, 74, 76
10, 112184, Note_on_c, 12, 74, 0
10, 112200, Note_on_c, 12, 72, 76
10, 112304, Note_on_c, 12, 72, 0
10, 112320, Note_on_c, 12, 71, 76
10, 112424, Note_on_c, 12, 71, 0
10, 112440, Note_on_c, 12, 72, 76
10, 112544, Note_on_c, 12, 72, 0
10, 112560, Note_on_c, 12, 71, 76
10, 112664, Note_on_c, 12, 71, 0
10, 112680, Note_on_c, 12, 69, 76
10, 112784, Note_on_c, 12, 69, 0
10, 112800, Note_on_c, 12, 68, 76
10, 113024, Note_on_c, 12, 68, 0
10, 113040, Note_on_c, 12, 59, 76
10, 113144, Note_on_c, 12, 59, 0
10, 113160, Note_on_c, 12, 60, 76
10, 113264, Note_on_c, 12, 60, 0
10, 113280, Note_on_c, 12, 62, 76
10, 113504, Note_on_c, 12, 62, 0
10, 113520, Note_on_c, 12, 62, 76
10, 113624, Note_on_c, 12, 62, 0
10, 113640, Note_on_c, 12, 64, 76
10, 113744, Note_on_c, 12, 64, 0
10, 113760, Note_on_c, 12, 65, 76
10, 113984, Note_on_c, 12, 65, 0
10, 114000, Note_on_c, 12, 64, 76
10, 114224, Note_on_c, 12, 64, 0
10, 114240, Note_on_c, 12, 64, 76
10, 114464, Note_on_c, 12, 64, 0
10, 114480, Note_on_c, 12, 69, 76
10, 114704, Note_on_c, 12, 69, 0
10, 114720, Note_on_c, 12, 68, 76
10, 115064, Note_on_c, 12, 68, 0
10, 115080, Note_on_c, 12, 64, 76
10, 115184, Note_on_c, 12, 64, 0
10, 115200, Note_on_c, 12, 64, 76
10, 115919, Note_on_c, 12, 64, 0
10, 116400, Note_on_c, 12, 79, 76
10, 116504, Note_on_c, 12, 79, 0
10, 116520, Note_on_c, 12, 77, 76
10, 116624, Note_on_c, 12, 77, 0
10, 116640, Note_on_c, 12, 76, 76
10, 116744, Note_on_c, 12, 76, 0
10, 116760, Note_on_c, 12, 74, 76
10, 116864, Note_on_c, 12, 74, 0
10, 116880, Note_on_c, 12, 76, 76
10, 116984, Note_on_c, 12, 76, 0
10, 117000, Note_on_c, 12, 72, 76
10, 117104, Note_on_c, 12, 72, 0
10, 117120, Note_on_c, 12, 70, 76
10, 117224, Note_on_c, 12, 70, 0
10, 117240, Note_on_c, 12, 72, 76
10, 117344, Note_on_c, 12, 72, 0
10, 117360, Note_on_c, 12, 70, 76
10, 117464, Note_on_c, 12, 70, 0
10, 117480, Note_on_c, 12, 69, 76
10, 117584, Note_on_c, 12, 69, 0
10, 117600, Note_on_c, 12, 67, 76
10, 117824, Note_on_c, 12, 67, 0
10, 117840, Note_on_c, 12, 67, 76
10, 118064, Note_on_c, 12, 67, 0
10, 118080, Note_on_c, 12, 65, 76
10, 118304, Note_on_c, 12, 65, 0
10, 118320, Note_on_c, 12, 65, 76
10, 118544, Note_on_c, 12, 65, 0
10, 118560, Note_on_c, 12, 65, 76
10, 118784, Note_on_c, 12, 65, 0
10, 118800, Note_on_c, 12, 64, 76
10, 119024, Note_on_c, 12, 64, 0
10, 119040, Note_on_c, 12, 65, 76
10, 119264, Note_on_c, 12, 65, 0
10, 119280, Note_on_c, 12, 60, 76
10, 119504, Note_on_c, 12, 60, 0
10, 119520, Note_on_c, 12, 60, 76
10, 119744, Note_on_c, 12, 60, 0
10, 119760, Note_on_c, 12, 62, 76
10, 119864, Note_on_c, 12, 62, 0
10, 119880, Note_on_c, 12, 64, 76
10, 119984, Note_on_c, 12, 64, 0
10, 120000, Note_on_c, 12, 65, 76
10, 120224, Note_on_c, 12, 65, 0
10, 120240, Note_on_c, 12, 65, 76
10, 120344, Note_on_c, 12, 65, 0
10, 120360, Note_on_c, 12, 67, 76
10, 120464, Note_on_c, 12, 67, 0
10, 120480, Note_on_c, 12, 69, 76
10, 120584, Note_on_c, 12, 69, 0
10, 120600, Note_on_c, 12, 67, 76
10, 120704, Note_on_c, 12, 67, 0
10, 120720, Note_on_c, 12, 65, 76
10, 120824, Note_on_c, 12, 65, 0
10, 120840, Note_on_c, 12, 64, 76
10, 120944, Note_on_c, 12, 64, 0
10, 120960, Note_on_c, 12, 62, 76
10, 121064, Note_on_c, 12, 62, 0
10, 121080, Note_on_c, 12, 64, 76
10, 121184, Note_on_c, 12, 64, 0
10, 121200, Note_on_c, 12, 62, 76
10, 121304, Note_on_c, 12, 62, 0
10, 121320, Note_on_c, 12, 60, 76
10, 121424, Note_on_c, 12, 60, 0
10, 121440, Note_on_c, 12, 59, 76
10, 121664, Note_on_c, 12, 59, 0
10, 121680, Note_on_c, 12, 67, 76
10, 121904, Note_on_c, 12, 67, 0
10, 121920, Note_on_c, 12, 67, 76
10, 122144, Note_on_c, 12, 67, 0
10, 122160, Note_on_c, 12, 72, 76
10, 122384, Note_on_c, 12, 72, 0
10, 122400, Note_on_c, 12, 71, 76
10, 122624, Note_on_c, 12, 71, 0
10, 122640, Note_on_c, 12, 67, 76
10, 122864, Note_on_c, 12, 67, 0
10, 122880, Note_on_c, 12, 67, 76
10, 123599, Note_on_c, 12, 67, 0
10, 124080, Note_on_c, 12, 74, 76
10, 124304, Note_on_c, 12, 74, 0
10, 124320, Note_on_c, 12, 73, 76
10, 124544, Note_on_c, 12, 73, 0
10, 124560, Note_on_c, 12, 74, 76
10, 124784, Note_on_c, 12, 74, 0
10, 124800, Note_on_c, 12, 69, 76
10, 124904, Note_on_c, 12, 69, 0
10, 124920, Note_on_c, 12, 67, 76
10, 125024, Note_on_c, 12, 67, 0
10, 125040, Note_on_c, 12, 69, 76
10, 125144, Note_on_c, 12, 69, 0
10, 125160, Note_on_c, 12, 71, 76
10, 125264, Note_on_c, 12, 71, 0
10, 125280, Note_on_c, 12, 73, 76
10, 125504, Note_on_c, 12, 73, 0
10, 125520, Note_on_c, 12, 74, 76
10, 125624, Note_on_c, 12, 74, 0
10, 125640, Note_on_c, 12, 76, 76
10, 125744, Note_on_c, 12, 76, 0
10, 125760, Note_on_c, 12, 77, 76
10, 125984, Note_on_c, 12, 77, 0
10, 126000, Note_on_c, 12, 76, 76
10, 126104, Note_on_c, 12, 76, 0
10, 126120, Note_on_c, 12, 74, 76
10, 126224, Note_on_c, 12, 74, 0
10, 126240, Note_on_c, 12, 73, 76
10, 126464, Note_on_c, 12, 73, 0
10, 126480, Note_on_c, 12, 73, 76
10, 126704, Note_on_c, 12, 73, 0
10, 126720, Note_on_c, 12, 74, 76
10, 126944, Note_on_c, 12, 74, 0
10, 126960, Note_on_c, 12, 69, 76
10, 127184, Note_on_c, 12, 69, 0
10, 127200, Note_on_c, 12, 69, 76
10, 127424, Note_on_c, 12, 69, 0
10, 127440, Note_on_c, 12, 74, 76
10, 127544, Note_on_c, 12, 74, 0
10, 127560, Note_on_c, 12, 72, 76
10, 127664, Note_on_c, 12, 72, 0
10, 127680, Note_on_c, 12, 71, 76
10, 127784, Note_on_c, 12, 71, 0
10, 127800, Note_on_c, 12, 72, 76
10, 127904, Note_on_c, 12, 72, 0
10, 127920, Note_on_c, 12, 71, 76
10, 128024, Note_on_c, 12, 71, 0
10, 128040, Note_on_c, 12, 69, 76
10, 128144, Note_on_c, 12, 69, 0
10, 128160, Note_on_c, 12, 68, 76
10, 128384, Note_on_c, 12, 68, 0
10, 128400, Note_on_c, 12, 59, 76
10, 128504, Note_on_c, 12, 59, 0
10, 128520, Note_on_c, 12, 60, 76
10, 128624, Note_on_c, 12, 60, 0
10, 128640, Note_on_c, 12, 62, 76
10, 128864, Note_on_c, 12, 62, 0
10, 128880, Note_on_c, 12, 62, 76
10, 128984, Note_on_c, 12, 62, 0
10, 129000, Note_on_c, 12, 64, 76
10, 129104, Note_on_c, 12, 64, 0
10, 129120, Note_on_c, 12, 65, 76
10, 129344, Note_on_c, 12, 65, 0
10, 129360, Note_on_c, 12, 64, 76
10, 129584, Note_on_c, 12, 64, 0
10, 129600, Note_on_c, 12, 64, 76
10, 129824, Note_on_c, 12, 64, 0
10, 129840, Note_on_c, 12, 69, 76
10, 130064, Note_on_c, 12, 69, 0
10, 130080, Note_on_c, 12, 68, 76
10, 130424, Note_on_c, 12, 68, 0
10, 130440, Note_on_c, 12, 64, 76
10, 130544, Note_on_c, 12, 64, 0
10, 130560, Note_on_c, 12, 64, 76
10, 131279, Note_on_c, 12, 64, 0
10, 131760, Note_on_c, 12, 79, 76
10, 131864, Note_on_c, 12, 79, 0
10, 131880, Note_on_c, 12, 77, 76
10, 131984, Note_on_c, 12, 77, 0
10, 132000, Note_on_c, 12, 76, 76
10, 132104, Note_on_c, 12, 76, 0
10, 132120, Note_on_c, 12, 74, 76
10, 132224, Note_on_c, 12, 74, 0
10, 132240, Note_on_c, 12, 76, 76
10, 132344, Note_on_c, 12, 76, 0
10, 132360, Note_on_c, 12, 72, 76
10, 132464, Note_on_c, 12, 72, 0
10, 132480, Note_on_c, 12, 70, 76
10, 132584, Note_on_c, 12, 70, 0
10, 132600, Note_on_c, 12, 72, 76
10, 132704, Note_on_c, 12, 72, 0
10, 132720, Note_on_c, 12, 70, 76
10, 132824, Note_on_c, 12, 70, 0
10, 132840, Note_on_c, 12, 69, 76
10, 132944, Note_on_c, 12, 69, 0
10, 132960, Note_on_c, 12, 67, 76
10, 133184, Note_on_c, 12, 67, 0
10, 133200, Note_on_c, 12, 67, 76
10, 133424, Note_on_c, 12, 67, 0
10, 133440, Note_on_c, 12, 65, 76
10, 133664, Note_on_c, 12, 65, 0
10, 133680, Note_on_c, 12, 65, 76
10, 133904, Note_on_c, 12, 65, 0
10, 133920, Note_on_c, 12, 65, 76
10, 134144, Note_on_c, 12, 65, 0
10, 134160, Note_on_c, 12, 64, 76
10, 134384, Note_on_c, 12, 64, 0
10, 134400, Note_on_c, 12, 65, 76
10, 134624, Note_on_c, 12, 65, 0
10, 134640, Note_on_c, 12, 60, 76
10, 134864, Note_on_c, 12, 60, 0
10, 134880, Note_on_c, 12, 60, 76
10, 135104, Note_on_c, 12, 60, 0
10, 135120, Note_on_c, 12, 62, 76
10, 135224, Note_on_c, 12, 62, 0
10, 135240, Note_on_c, 12, 64, 76
10, 135344, Note_on_c, 12, 64, 0
10, 135360, Note_on_c, 12, 65, 76
10, 135584, Note_on_c, 12, 65, 0
10, 135600, Note_on_c, 12, 65, 76
10, 135704, Note_on_c, 12, 65, 0
10, 135720, Note_on_c, 12, 67, 76
10, 135824, Note_on_c, 12, 67, 0
10, 135840, Note_on_c, 12, 69, 76
10, 135944, Note_on_c, 12, 69, 0
10, 135960, Note_on_c, 12, 67, 76
10, 136064, Note_on_c, 12, 67, 0
10, 136080, Note_on_c, 12, 65, 76
10, 136184, Note_on_c, 12, 65, 0
10, 136200, Note_on_c, 12, 64, 76
10, 136304, Note_on_c, 12, 64, 0
10, 136320, Note_on_c, 12, 62, 76
10, 136424, Note_on_c, 12, 62, 0
10, 136440, Note_on_c, 12, 64, 76
10, 136544, Note_on_c, 12, 64, 0
10, 136560, Note_on_c, 12, 62, 76
10, 136664, Note_on_c, 12, 62, 0
10, 136680, Note_on_c, 12, 60, 76
10, 136784, Note_on_c, 12, 60, 0
10, 136800, Note_on_c, 12, 59, 76
10, 137024, Note_on_c, 12, 59, 0
10, 137040, Note_on_c, 12, 67, 76
10, 137264, Note_on_c, 12, 67, 0
10, 137280, Note_on_c, 12, 67, 76
10, 137504, Note_on_c, 12, 67, 0
10, 137520, Note_on_c, 12, 72, 76
10, 137744, Note_on_c, 12, 72, 0
10, 137760, Note_on_c, 12, 71, 76
10, 137984, Note_on_c, 12, 71, 0
10, 138000, Note_on_c, 12, 67, 76
10, 138224, Note_on_c, 12, 67, 0
10, 138240, Note_on_c, 12, 67, 76
10, 138959, Note_on_c, 12, 67, 0
10, 138959, End_track
11, 0, Start_track
11, 0, Title_t, "Viola"
11, 0, MIDI_port, 0
11, 0, Program_c, 13, 48
11, 0, Control_c, 13, 10, 70
11, 0, Control_c, 13, 11, 127
11, 0, Control_c, 13, 7, 96
11, 720, Note_on_c, 13, 55, 76
11, 944, Note_on_c, 13, 55, 0
11, 960, Note_on_c, 13, 60, 76
11, 1184, Note_on_c, 13, 60, 0
11, 1200, Note_on_c, 13, 62, 76
11, 1424, Note_on_c, 13, 62, 0
11, 1440, Note_on_c, 13, 64, 76
11, 1664, Note_on_c, 13, 64, 0
11, 1680, Note_on_c, 13, 67, 76
11, 1784, Note_on_c, 13, 67, 0
11, 1800, Note_on_c, 13, 65, 76
11, 1904, Note_on_c, 13, 65, 0
11, 1920, Note_on_c, 13, 64, 76
11, 2144, Note_on_c, 13, 64, 0
11, 2160, Note_on_c, 13, 60, 76
11, 2384, Note_on_c, 13, 60, 0
11, 2400, Note_on_c, 13, 60, 76
11, 2624, Note_on_c, 13, 60, 0
11, 2640, Note_on_c, 13, 65, 76
11, 2864, Note_on_c, 13, 65, 0
11, 2880, Note_on_c, 13, 64, 76
11, 3104, Note_on_c, 13, 64, 0
11, 3120, Note_on_c, 13, 60, 76
11, 3344, Note_on_c, 13, 60, 0
11, 3360, Note_on_c, 13, 67, 76
11, 3584, Note_on_c, 13, 67, 0
11, 3600, Note_on_c, 13, 66, 76
11, 3824, Note_on_c, 13, 66, 0
11, 3840, Note_on_c, 13, 67, 76
11, 4064, Note_on_c, 13, 67, 0
11, 4080, Note_on_c, 13, 67, 76
11, 4184, Note_on_c, 13, 67, 0
11, 4200, Note_on_c, 13, 69, 76
11, 4304, Note_on_c, 13, 69, 0
11, 4320, Note_on_c, 13, 71, 76
11, 4559, Note_on_c, 13, 71, 0
11, 5040, Note_on_c, 13, 59, 76
11, 5264, Note_on_c, 13, 59, 0
11, 5280, Note_on_c, 13, 64, 76
11, 5519, Note_on_c, 13, 64, 0
11, 6000, Note_on_c, 13, 57, 76
11, 6224, Note_on_c, 13, 57, 0
11, 6240, Note_on_c, 13, 62, 76
11, 6464, Note_on_c, 13, 62, 0
11, 6480, Note_on_c, 13, 64, 76
11, 6704, Note_on_c, 13, 64, 0
11, 6720, Note_on_c, 13, 62, 76
11, 6944, Note_on_c, 13, 62, 0
11, 6960, Note_on_c, 13, 60, 76
11, 7184, Note_on_c, 13, 60, 0
11, 7200, Note_on_c, 13, 59, 76
11, 7919, Note_on_c, 13, 59, 0
11, 8400, Note_on_c, 13, 55, 76
11, 8624, Note_on_c, 13, 55, 0
11, 8640, Note_on_c, 13, 60, 76
11, 8864, Note_on_c, 13, 60, 0
11, 8880, Note_on_c, 13, 62, 76
11, 9104, Note_on_c, 13, 62, 0
11, 9120, Note_on_c, 13, 64, 76
11, 9344, Note_on_c, 13, 64, 0
11, 9360, Note_on_c, 13, 67, 76
11, 9464, Note_on_c, 13, 67, 0
11, 9480, Note_on_c, 13, 65, 76
11, 9584, Note_on_c, 13, 65, 0
11, 9600, Note_on_c, 13, 64, 76
11, 9824, Note_on_c, 13, 64, 0
11, 9840, Note_on_c, 13, 60, 76
11, 10064, Note_on_c, 13, 60, 0
11, 10080, Note_on_c, 13, 60, 76
11, 10304, Note_on_c, 13, 60, 0
11, 10320, Note_on_c, 13, 65, 76
11, 10544, Note_on_c, 13, 65, 0
11, 10560, Note_on_c, 13, 64, 76
11, 10784, Note_on_c, 13, 64, 0
11, 10800, Note_on_c, 13, 60, 76
11, 11024, Note_on_c, 13, 60, 0
11, 11040, Note_on_c, 13, 67, 76
11, 11264, Note_on_c, 13, 67, 0
11, 11280, Note_on_c, 13, 66, 76
11, 11504, Note_on_c, 13, 66, 0
11, 11520, Note_on_c, 13, 67, 76
11, 11744, Note_on_c, 13, 67, 0
11, 11760, Note_on_c, 13, 67, 76
11, 11864, Note_on_c, 13, 67, 0
11, 11880, Note_on_c, 13, 69, 76
11, 11984, Note_on_c, 13, 69, 0
11, 12000, Note_on_c, 13, 71, 76
11, 12239, Note_on_c, 13, 71, 0
11, 12720, Note_on_c, 13, 59, 76
11, 12944, Note_on_c, 13, 59, 0
11, 12960, Note_on_c, 13, 64, 76
11, 13199, Note_on_c, 13, 64, 0
11, 13680, Note_on_c, 13, 57, 76
11, 13904, Note_on_c, 13, 57, 0
11, 13920, Note_on_c, 13, 62, 76
11, 14144, Note_on_c, 13, 62, 0
11, 14160, Note_on_c, 13, 64, 76
11, 14384, Note_on_c, 13, 64, 0
11, 14400, Note_on_c, 13, 62, 76
11, 14624, Note_on_c, 13, 62, 0
11, 14640, Note_on_c, 13, 60, 76
11, 14864, Note_on_c, 13, 60, 0
11, 14880, Note_on_c, 13, 59, 76
11, 15599, Note_on_c, 13, 59, 0
11, 16080, Note_on_c, 13, 71, 76
11, 16184, Note_on_c, 13, 71, 0
11, 16200, Note_on_c, 13, 69, 76
11, 16304, Note_on_c, 13, 69, 0
11, 16320, Note_on_c, 13, 67, 76
11, 16544, Note_on_c, 13, 67, 0
11, 16560, Note_on_c, 13, 65, 76
11, 16784, Note_on_c, 13, 65, 0
11, 16800, Note_on_c, 13, 64, 76
11, 16904, Note_on_c, 13, 64, 0
11, 16920, Note_on_c, 13, 62, 76
11, 17024, Note_on_c, 13, 62, 0
11, 17040, Note_on_c, 13, 64, 76
11, 17144, Note_on_c, 13, 64, 0
11, 17160, Note_on_c, 13, 65, 76
11, 17264, Note_on_c, 13, 65, 0
11, 17280, Note_on_c, 13, 64, 76
11, 17504, Note_on_c, 13, 64, 0
11, 17520, Note_on_c, 13, 57, 76
11, 17744, Note_on_c, 13, 57, 0
11, 17760, Note_on_c, 13, 62, 76
11, 17984, Note_on_c, 13, 62, 0
11, 18000, Note_on_c, 13, 67, 76
11, 18224, Note_on_c, 13, 67, 0
11, 18240, Note_on_c, 13, 64, 76
11, 18464, Note_on_c, 13, 64, 0
11, 18480, Note_on_c, 13, 69, 76
11, 18704, Note_on_c, 13, 69, 0
11, 18720, Note_on_c, 13, 69, 76
11, 18824, Note_on_c, 13, 69, 0
11, 18840, Note_on_c, 13, 70, 76
11, 18944, Note_on_c, 13, 70, 0
11, 18960, Note_on_c, 13, 69, 76
11, 19064, Note_on_c, 13, 69, 0
11, 19080, Note_on_c, 13, 67, 76
11, 19184, Note_on_c, 13, 67, 0
11, 19200, Note_on_c, 13, 65, 76
11, 19304, Note_on_c, 13, 65, 0
11, 19320, Note_on_c, 13, 67, 76
11, 19424, Note_on_c, 13, 67, 0
11, 19440, Note_on_c, 13, 65, 76
11, 19544, Note_on_c, 13, 65, 0
11, 19560, Note_on_c, 13, 64, 76
11, 19664, Note_on_c, 13, 64, 0
11, 19680, Note_on_c, 13, 62, 76
11, 19904, Note_on_c, 13, 62, 0
11, 19920, Note_on_c, 13, 62, 76
11, 20024, Note_on_c, 13, 62, 0
11, 20040, Note_on_c, 13, 64, 76
11, 20144, Note_on_c, 13, 64, 0
11, 20160, Note_on_c, 13, 65, 76
11, 20384, Note_on_c, 13, 65, 0
11, 20400, Note_on_c, 13, 59, 76
11, 20504, Note_on_c, 13, 59, 0
11, 20520, Note_on_c, 13, 60, 76
11, 20624, Note_on_c, 13, 60, 0
11, 20640, Note_on_c, 13, 62, 76
11, 20864, Note_on_c, 13, 62, 0
11, 20880, Note_on_c, 13, 62, 76
11, 20984, Note_on_c, 13, 62, 0
11, 21000, Note_on_c, 13, 64, 76
11, 21104, Note_on_c, 13, 64, 0
11, 21120, Note_on_c, 13, 65, 76
11, 21344, Note_on_c, 13, 65, 0
11, 21360, Note_on_c, 13, 59, 76
11, 21584, Note_on_c, 13, 59, 0
11, 21600, Note_on_c, 13, 60, 76
11, 21824, Note_on_c, 13, 60, 0
11, 21840, Note_on_c, 13, 64, 76
11, 22064, Note_on_c, 13, 64, 0
11, 22080, Note_on_c, 13, 64, 76
11, 22304, Note_on_c, 13, 64, 0
11, 22320, Note_on_c, 13, 59, 76
11, 22544, Note_on_c, 13, 59, 0
11, 22560, Note_on_c, 13, 60, 76
11, 23279, Note_on_c, 13, 60, 0
11, 23760, Note_on_c, 13, 64, 76
11, 23864, Note_on_c, 13, 64, 0
11, 23880, Note_on_c, 13, 65, 76
11, 23984, Note_on_c, 13, 65, 0
11, 24000, Note_on_c, 13, 67, 76
11, 24224, Note_on_c, 13, 67, 0
11, 24240, Note_on_c, 13, 67, 76
11, 24344, Note_on_c, 13, 67, 0
11, 24360, Note_on_c, 13, 69, 76
11, 24464, Note_on_c, 13, 69, 0
11, 24480, Note_on_c, 13, 70, 76
11, 24584, Note_on_c, 13, 70, 0
11, 24600, Note_on_c, 13, 69, 76
11, 24704, Note_on_c, 13, 69, 0
11, 24720, Note_on_c, 13, 67, 76
11, 24824, Note_on_c, 13, 67, 0
11, 24840, Note_on_c, 13, 65, 76
11, 24944, Note_on_c, 13, 65, 0
11, 24960, Note_on_c, 13, 64, 76
11, 25184, Note_on_c, 13, 64, 0
11, 25200, Note_on_c, 13, 60, 76
11, 25424, Note_on_c, 13, 60, 0
11, 25440, Note_on_c, 13, 60, 76
11, 25664, Note_on_c, 13, 60, 0
11, 25680, Note_on_c, 13, 58, 76
11, 25784, Note_on_c, 13, 58, 0
11, 25800, Note_on_c, 13, 60, 76
11, 25904, Note_on_c, 13, 60, 0
11, 25920, Note_on_c, 13, 62, 76
11, 26144, Note_on_c, 13, 62, 0
11, 26160, Note_on_c, 13, 60, 76
11, 26384, Note_on_c, 13, 60, 0
11, 26400, Note_on_c, 13, 60, 76
11, 26504, Note_on_c, 13, 60, 0
11, 26520, Note_on_c, 13, 62, 76
11, 26624, Note_on_c, 13, 62, 0
11, 26640, Note_on_c, 13, 60, 76
11, 26744, Note_on_c, 13, 60, 0
11, 26760, Note_on_c, 13, 58, 76
11, 26864, Note_on_c, 13, 58, 0
11, 26880, Note_on_c, 13, 57, 76
11, 27119, Note_on_c, 13, 57, 0
11, 28080, Note_on_c, 13, 55, 76
11, 28184, Note_on_c, 13, 55, 0
11, 28200, Note_on_c, 13, 57, 76
11, 28304, Note_on_c, 13, 57, 0
11, 28320, Note_on_c, 13, 59, 76
11, 28544, Note_on_c, 13, 59, 0
11, 28560, Note_on_c, 13, 59, 76
11, 28664, Note_on_c, 13, 59, 0
11, 28680, Note_on_c, 13, 60, 76
11, 28784, Note_on_c, 13, 60, 0
11, 28800, Note_on_c, 13, 62, 76
11, 29024, Note_on_c, 13, 62, 0
11, 29040, Note_on_c, 13, 62, 76
11, 29264, Note_on_c, 13, 62, 0
11, 29280, Note_on_c, 13, 64, 76
11, 29504, Note_on_c, 13, 64, 0
11, 29520, Note_on_c, 13, 69, 76
11, 29744, Note_on_c, 13, 69, 0
11, 29760, Note_on_c, 13, 67, 76
11, 29984, Note_on_c, 13, 67, 0
11, 30000, Note_on_c, 13, 62, 76
11, 30224, Note_on_c, 13, 62, 0
11, 30240, Note_on_c, 13, 64, 76
11, 30959, Note_on_c, 13, 64, 0
11, 31440, Note_on_c, 13, 71, 76
11, 31544, Note_on_c, 13, 71, 0
11, 31560, Note_on_c, 13, 69, 76
11, 31664, Note_on_c, 13, 69, 0
11, 31680, Note_on_c, 13, 67, 76
11, 31904, Note_on_c, 13, 67, 0
11, 31920, Note_on_c, 13, 65, 76
11, 32144, Note_on_c, 13, 65, 0
11, 32160, Note_on_c, 13, 64, 76
11, 32264, Note_on_c, 13, 64, 0
11, 32280, Note_on_c, 13, 62, 76
11, 32384, Note_on_c, 13, 62, 0
11, 32400, Note_on_c, 13, 64, 76
11, 32504, Note_on_c, 13, 64, 0
11, 32520, Note_on_c, 13, 65, 76
11, 32624, Note_on_c, 13, 65, 0
11, 32640, Note_on_c, 13, 64, 76
11, 32864, Note_on_c, 13, 64, 0
11, 32880, Note_on_c, 13, 57, 76
11, 33104, Note_on_c, 13, 57, 0
11, 33120, Note_on_c, 13, 62, 76
11, 33344, Note_on_c, 13, 62, 0
11, 33360, Note_on_c, 13, 67, 76
11, 33584, Note_on_c, 13, 67, 0
11, 33600, Note_on_c, 13, 64, 76
11, 33824, Note_on_c, 13, 64, 0
11, 33840, Note_on_c, 13, 69, 76
11, 34064, Note_on_c, 13, 69, 0
11, 34080, Note_on_c, 13, 69, 76
11, 34184, Note_on_c, 13, 69, 0
11, 34200, Note_on_c, 13, 70, 76
11, 34304, Note_on_c, 13, 70, 0
11, 34320, Note_on_c, 13, 69, 76
11, 34424, Note_on_c, 13, 69, 0
11, 34440, Note_on_c, 13, 67, 76
11, 34544, Note_on_c, 13, 67, 0
11, 34560, Note_on_c, 13, 65, 76
11, 34664, Note_on_c, 13, 65, 0
11, 34680, Note_on_c, 13, 67, 76
11, 34784, Note_on_c, 13, 67, 0
11, 34800, Note_on_c, 13, 65, 76
11, 34904, Note_on_c, 13, 65, 0
11, 34920, Note_on_c, 13, 64, 76
11, 35024, Note_on_c, 13, 64, 0
11, 35040, Note_on_c, 13, 62, 76
11, 35264, Note_on_c, 13, 62, 0
11, 35280, Note_on_c, 13, 62, 76
11, 35384, Note_on_c, 13, 62, 0
11, 35400, Note_on_c, 13, 64, 76
11, 35504, Note_on_c, 13, 64, 0
11, 35520, Note_on_c, 13, 65, 76
11, 35744, Note_on_c, 13, 65, 0
11, 35760, Note_on_c, 13, 59, 76
11, 35864, Note_on_c, 13, 59, 0
11, 35880, Note_on_c, 13, 60, 76
11, 35984, Note_on_c, 13, 60, 0
11, 36000, Note_on_c, 13, 62, 76
11, 36224, Note_on_c, 13, 62, 0
11, 36240, Note_on_c, 13, 62, 76
11, 36344, Note_on_c, 13, 62, 0
11, 36360, Note_on_c, 13, 64, 76
11, 36464, Note_on_c, 13, 64, 0
11, 36480, Note_on_c, 13, 65, 76
11, 36704, Note_on_c, 13, 65, 0
11, 36720, Note_on_c, 13, 59, 76
11, 36944, Note_on_c, 13, 59, 0
11, 36960, Note_on_c, 13, 60, 76
11, 37184, Note_on_c, 13, 60, 0
11, 37200, Note_on_c, 13, 64, 76
11, 37424, Note_on_c, 13, 64, 0
11, 37440, Note_on_c, 13, 64, 76
11, 37664, Note_on_c, 13, 64, 0
11, 37680, Note_on_c, 13, 59, 76
11, 37904, Note_on_c, 13, 59, 0
11, 37920, Note_on_c, 13, 60, 76
11, 38639, Note_on_c, 13, 60, 0
11, 39120, Note_on_c, 13, 64, 76
11, 39224, Note_on_c, 13, 64, 0
11, 39240, Note_on_c, 13, 65, 76
11, 39344, Note_on_c, 13, 65, 0
11, 39360, Note_on_c, 13, 67, 76
11, 39584, Note_on_c, 13, 67, 0
11, 39600, Note_on_c, 13, 67, 76
11, 39704, Note_on_c, 13, 67, 0
11, 39720, Note_on_c, 13, 69, 76
11, 39824, Note_on_c, 13, 69, 0
11, 39840, Note_on_c, 13, 70, 76
11, 39944, Note_on_c, 13, 70, 0
11, 39960, Note_on_c, 13, 69, 76
11, 40064, Note_on_c, 13, 69, 0
11, 40080, Note_on_c, 13, 67, 76
11, 40184, Note_on_c, 13, 67, 0
11, 40200, Note_on_c, 13, 65, 76
11, 40304, Note_on_c, 13, 65, 0
11, 40320, Note_on_c, 13, 64, 76
11, 40544, Note_on_c, 13, 64, 0
11, 40560, Note_on_c, 13, 60, 76
11, 40784, Note_on_c, 13, 60, 0
11, 40800, Note_on_c, 13, 60, 76
11, 41024, Note_on_c, 13, 60, 0
11, 41040, Note_on_c, 13, 58, 76
11, 41144, Note_on_c, 13, 58, 0
11, 41160, Note_on_c, 13, 60, 76
11, 41264, Note_on_c, 13, 60, 0
11, 41280, Note_on_c, 13, 62, 76
11, 41504, Note_on_c, 13, 62, 0
11, 41520, Note_on_c, 13, 60, 76
11, 41744, Note_on_c, 13, 60, 0
11, 41760, Note_on_c, 13, 60, 76
11, 41864, Note_on_c, 13, 60, 0
11, 41880, Note_on_c, 13, 62, 76
11, 41984, Note_on_c, 13, 62, 0
11, 42000, Note_on_c, 13, 60, 76
11, 42104, Note_on_c, 13, 60, 0
11, 42120, Note_on_c, 13, 58, 76
11, 42224, Note_on_c, 13, 58, 0
11, 42240, Note_on_c, 13, 57, 76
11, 42479, Note_on_c, 13, 57, 0
11, 43440, Note_on_c, 13, 55, 76
11, 43544, Note_on_c, 13, 55, 0
11, 43560, Note_on_c, 13, 57, 76
11, 43664, Note_on_c, 13, 57, 0
11, 43680, Note_on_c, 13, 59, 76
11, 43904, Note_on_c, 13, 59, 0
11, 43920, Note_on_c, 13, 59, 76
11, 44024, Note_on_c, 13, 59, 0
11, 44040, Note_on_c, 13, 60, 76
11, 44144, Note_on_c, 13, 60, 0
11, 44160, Note_on_c, 13, 62, 76
11, 44384, Note_on_c, 13, 62, 0
11, 44400, Note_on_c, 13, 62, 76
11, 44624, Note_on_c, 13, 62, 0
11, 44640, Note_on_c, 13, 64, 76
11, 44864, Note_on_c, 13, 64, 0
11, 44880, Note_on_c, 13, 69, 76
11, 45104, Note_on_c, 13, 69, 0
11, 45120, Note_on_c, 13, 67, 76
11, 45344, Note_on_c, 13, 67, 0
11, 45360, Note_on_c, 13, 62, 76
11, 45584, Note_on_c, 13, 62, 0
11, 45600, Note_on_c, 13, 64, 76
11, 46319, Note_on_c, 13, 64, 0
11, 93360, Note_on_c, 13, 55, 76
11, 93584, Note_on_c, 13, 55, 0
11, 93600, Note_on_c, 13, 60, 76
11, 93824, Note_on_c, 13, 60, 0
11, 93840, Note_on_c, 13, 62, 76
11, 94064, Note_on_c, 13, 62, 0
11, 94080, Note_on_c, 13, 64, 76
11, 94304, Note_on_c, 13, 64, 0
11, 94320, Note_on_c, 13, 67, 76
11, 94424, Note_on_c, 13, 67, 0
11, 94440, Note_on_c, 13, 65, 76
11, 94544, Note_on_c, 13, 65, 0
11, 94560, Note_on_c, 13, 64, 76
11, 94784, Note_on_c, 13, 64, 0
11, 94800, Note_on_c, 13, 60, 76
11, 95024, Note_on_c, 13, 60, 0
11, 95040, Note_on_c, 13, 60, 76
11, 95264, Note_on_c, 13, 60, 0
11, 95280, Note_on_c, 13, 65, 76
11, 95504, Note_on_c, 13, 65, 0
11, 95520, Note_on_c, 13, 64, 76
11, 95744, Note_on_c, 13, 64, 0
11, 95760, Note_on_c, 13, 60, 76
11, 95984, Note_on_c, 13, 60, 0
11, 96000, Note_on_c, 13, 67, 76
11, 96224, Note_on_c, 13, 67, 0
11, 96240, Note_on_c, 13, 66, 76
11, 96464, Note_on_c, 13, 66, 0
11, 96480, Note_on_c, 13, 67, 76
11, 96704, Note_on_c, 13, 67, 0
11, 96720, Note_on_c, 13, 67, 76
11, 96824, Note_on_c, 13, 67, 0
11, 96840, Note_on_c, 13, 69, 76
11, 96944, Note_on_c, 13, 69, 0
11, 96960, Note_on_c, 13, 71, 76
11, 97199, Note_on_c, 13, 71, 0
11, 97680, Note_on_c, 13, 59, 76
11, 97904, Note_on_c, 13, 59, 0
11, 97920, Note_on_c, 13, 64, 76
11, 98159, Note_on_c, 13, 64, 0
11, 98640, Note_on_c, 13, 57, 76
11, 98864, Note_on_c, 13, 57, 0
11, 98880, Note_on_c, 13, 62, 76
11, 99104, Note_on_c, 13, 62, 0
11, 99120, Note_on_c, 13, 64, 76
11, 99344, Note_on_c, 13, 64, 0
11, 99360, Note_on_c, 13, 62, 76
11, 99584, Note_on_c, 13, 62, 0
11, 99600, Note_on_c, 13, 60, 76
11, 99824, Note_on_c, 13, 60, 0
11, 99840, Note_on_c, 13, 59, 76
11, 100559, Note_on_c, 13, 59, 0
11, 101040, Note_on_c, 13, 55, 76
11, 101264, Note_on_c, 13, 55, 0
11, 101280, Note_on_c, 13, 60, 76
11, 101504, Note_on_c, 13, 60, 0
11, 101520, Note_on_c, 13, 62, 76
11, 101744, Note_on_c, 13, 62, 0
11, 101760, Note_on_c, 13, 64, 76
11, 101984, Note_on_c, 13, 64, 0
11, 102000, Note_on_c, 13, 67, 76
11, 102104, Note_on_c, 13, 67, 0
11, 102120, Note_on_c, 13, 65, 76
11, 102224, Note_on_c, 13, 65, 0
11, 102240, Note_on_c, 13, 64, 76
11, 102464, Note_on_c, 13, 64, 0
11, 102480, Note_on_c, 13, 60, 76
11, 102704, Note_on_c, 13, 60, 0
11, 102720, Note_on_c, 13, 60, 76
11, 102944, Note_on_c, 13, 60, 0
11, 102960, Note_on_c, 13, 65, 76
11, 103184, Note_on_c, 13, 65, 0
11, 103200, Note_on_c, 13, 64, 76
11, 103424, Note_on_c, 13, 64, 0
11, 103440, Note_on_c, 13, 60, 76
11, 103664, Note_on_c, 13, 60, 0
11, 103680, Note_on_c, 13, 67, 76
11, 103904, Note_on_c, 13, 67, 0
11, 103920, Note_on_c, 13, 66, 76
11, 104144, Note_on_c, 13, 66, 0
11, 104160, Note_on_c, 13, 67, 76
11, 104384, Note_on_c, 13, 67, 0
11, 104400, Note_on_c, 13, 67, 76
11, 104504, Note_on_c, 13, 67, 0
11, 104520, Note_on_c, 13, 69, 76
11, 104624, Note_on_c, 13, 69, 0
11, 104640, Note_on_c, 13, 71, 76
11, 104879, Note_on_c, 13, 71, 0
11, 105360, Note_on_c, 13, 59, 76
11, 105584, Note_on_c, 13, 59, 0
11, 105600, Note_on_c, 13, 64, 76
11, 105839, Note_on_c, 13, 64, 0
11, 106320, Note_on_c, 13, 57, 76
11, 106544, Note_on_c, 13, 57, 0
11, 106560, Note_on_c, 13, 62, 76
11, 106784, Note_on_c, 13, 62, 0
11, 106800, Note_on_c, 13, 64, 76
11, 107024, Note_on_c, 13, 64, 0
11, 107040, Note_on_c, 13, 62, 76
11, 107264, Note_on_c, 13, 62, 0
11, 107280, Note_on_c, 13, 60, 76
11, 107504, Note_on_c, 13, 60, 0
11, 107520, Note_on_c, 13, 59, 76
11, 108239, Note_on_c, 13, 59, 0
11, 108720, Note_on_c, 13, 71, 76
11, 108824, Note_on_c, 13, 71, 0
11, 108840, Note_on_c, 13, 69, 76
11, 108944, Note_on_c, 13, 69, 0
11, 108960, Note_on_c, 13, 67, 76
11, 109184, Note_on_c, 13, 67, 0
11, 109200, Note_on_c, 13, 65, 76
11, 109424, Note_on_c, 13, 65, 0
11, 109440, Note_on_c, 13, 64, 76
11, 109544, Note_on_c, 13, 64, 0
11, 109560, Note_on_c, 13, 62, 76
11, 109664, Note_on_c, 13, 62, 0
11, 109680, Note_on_c, 13, 64, 76
11, 109784, Note_on_c, 13, 64, 0
11, 109800, Note_on_c, 13, 65, 76
11, 109904, Note_on_c, 13, 65, 0
11, 109920, Note_on_c, 13, 64, 76
11, 110144, Note_on_c, 13, 64, 0
11, 110160, Note_on_c, 13, 57, 76
11, 110384, Note_on_c, 13, 57, 0
11, 110400, Note_on_c, 13, 62, 76
11, 110624, Note_on_c, 13, 62, 0
11, 110640, Note_on_c, 13, 67, 76
11, 110864, Note_on_c, 13, 67, 0
11, 110880, Note_on_c, 13, 64, 76
11, 111104, Note_on_c, 13, 64, 0
11, 111120, Note_on_c, 13, 69, 76
11, 111344, Note_on_c, 13, 69, 0
11, 111360, Note_on_c, 13, 69, 76
11, 111464, Note_on_c, 13, 69, 0
11, 111480, Note_on_c, 13, 70, 76
11, 111584, Note_on_c, 13, 70, 0
11, 111600, Note_on_c, 13, 69, 76
11, 111704, Note_on_c, 13, 69, 0
11, 111720, Note_on_c, 13, 67, 76
11, 111824, Note_on_c, 13, 67, 0
11, 111840, Note_on_c, 13, 65, 76
11, 111944, Note_on_c, 13, 65, 0
11, 111960, Note_on_c, 13, 67, 76
11, 112064, Note_on_c, 13, 67, 0
11, 112080, Note_on_c, 13, 65, 76
11, 112184, Note_on_c, 13, 65, 0
11, 112200, Note_on_c, 13, 64, 76
11, 112304, Note_on_c, 13, 64, 0
11, 112320, Note_on_c, 13, 62, 76
11, 112544, Note_on_c, 13, 62, 0
11, 112560, Note_on_c, 13, 62, 76
11, 112664, Note_on_c, 13, 62, 0
11, 112680, Note_on_c, 13, 64, 76
11, 112784, Note_on_c, 13, 64, 0
11, 112800, Note_on_c, 13, 65, 76
11, 113024, Note_on_c, 13, 65, 0
11, 113040, Note_on_c, 13, 59, 76
11, 113144, Note_on_c, 13, 59, 0
11, 113160, Note_on_c, 13, 60, 76
11, 113264, Note_on_c, 13, 60, 0
11, 113280, Note_on_c, 13, 62, 76
11, 113504, Note_on_c, 13, 62, 0
11, 113520, Note_on_c, 13, 62, 76
11, 113624, Note_on_c, 13, 62, 0
11, 113640, Note_on_c, 13, 64, 76
11, 113744, Note_on_c, 13, 64, 0
11, 113760, Note_on_c, 13, 65, 76
11, 113984, Note_on_c, 13, 65, 0
11, 114000, Note_on_c, 13, 59, 76
11, 114224, Note_on_c, 13, 59, 0
11, 114240, Note_on_c, 13, 60, 76
11, 114464, Note_on_c, 13, 60, 0
11, 114480, Note_on_c, 13, 64, 76
11, 114704, Note_on_c, 13, 64, 0
11, 114720, Note_on_c, 13, 64, 76
11, 114944, Note_on_c, 13, 64, 0
11, 114960, Note_on_c, 13, 59, 76
11, 115184, Note_on_c, 13, 59, 0
11, 115200, Note_on_c, 13, 60, 76
11, 115919, Note_on_c, 13, 60, 0
11, 116400, Note_on_c, 13, 64, 76
11, 116504, Note_on_c, 13, 64, 0
11, 116520, Note_on_c, 13, 65, 76
11, 116624, Note_on_c, 13, 65, 0
11, 116640, Note_on_c, 13, 67, 76
11, 116864, Note_on_c, 13, 67, 0
11, 116880, Note_on_c, 13, 67, 76
11, 116984, Note_on_c, 13, 67, 0
11, 117000, Note_on_c, 13, 69, 76
11, 117104, Note_on_c, 13, 69, 0
11, 117120, Note_on_c, 13, 70, 76
11, 117224, Note_on_c, 13, 70, 0
11, 117240, Note_on_c, 13, 69, 76
11, 117344, Note_on_c, 13, 69, 0
11, 117360, Note_on_c, 13, 67, 76
11, 117464, Note_on_c, 13, 67, 0
11, 117480, Note_on_c, 13, 65, 76
11, 117584, Note_on_c, 13, 65, 0
11, 117600, Note_on_c, 13, 64, 76
11, 117824, Note_on_c, 13, 64, 0
11, 117840, Note_on_c, 13, 60, 76
11, 118064, Note_on_c, 13, 60, 0
11, 118080, Note_on_c, 13, 60, 76
11, 118304, Note_on_c, 13, 60, 0
11, 118320, Note_on_c, 13, 58, 76
11, 118424, Note_on_c, 13, 58, 0
11, 118440, Note_on_c, 13, 60, 76
11, 118544, Note_on_c, 13, 60, 0
11, 118560, Note_on_c, 13, 62, 76
11, 118784, Note_on_c, 13, 62, 0
11, 118800, Note_on_c, 13, 60, 76
11, 119024, Note_on_c, 13, 60, 0
11, 119040, Note_on_c, 13, 60, 76
11, 119144, Note_on_c, 13, 60, 0
11, 119160, Note_on_c, 13, 62, 76
11, 119264, Note_on_c, 13, 62, 0
11, 119280, Note_on_c, 13, 60, 76
11, 119384, Note_on_c, 13, 60, 0
11, 119400, Note_on_c, 13, 58, 76
11, 119504, Note_on_c, 13, 58, 0
11, 119520, Note_on_c, 13, 57, 76
11, 119759, Note_on_c, 13, 57, 0
11, 120720, Note_on_c, 13, 55, 76
11, 120824, Note_on_c, 13, 55, 0
11, 120840, Note_on_c, 13, 57, 76
11, 120944, Note_on_c, 13, 57, 0
11, 120960, Note_on_c, 13, 59, 76
11, 121184, Note_on_c, 13, 59, 0
11, 121200, Note_on_c, 13, 59, 76
11, 121304, Note_on_c, 13, 59, 0
11, 121320, Note_on_c, 13, 60, 76
11, 121424, Note_on_c, 13, 60, 0
11, 121440, Note_on_c, 13, 62, 76
11, 121664, Note_on_c, 13, 62, 0
11, 121680, Note_on_c, 13, 62, 76
11, 121904, Note_on_c, 13, 62, 0
11, 121920, Note_on_c, 13, 64, 76
11, 122144, Note_on_c, 13, 64, 0
11, 122160, Note_on_c, 13, 69, 76
11, 122384, Note_on_c, 13, 69, 0
11, 122400, Note_on_c, 13, 67, 76
11, 122624, Note_on_c, 13, 67, 0
11, 122640, Note_on_c, 13, 62, 76
11, 122864, Note_on_c, 13, 62, 0
11, 122880, Note_on_c, 13, 64, 76
11, 123599, Note_on_c, 13, 64, 0
11, 124080, Note_on_c, 13, 71, 76
11, 124184, Note_on_c, 13, 71, 0
11, 124200, Note_on_c, 13, 69, 76
11, 124304, Note_on_c, 13, 69, 0
11, 124320, Note_on_c, 13, 67, 76
11, 124544, Note_on_c, 13, 67, 0
11, 124560, Note_on_c, 13, 65, 76
11, 124784, Note_on_c, 13, 65, 0
11, 124800, Note_on_c, 13, 64, 76
11, 124904, Note_on_c, 13, 64, 0
11, 124920, Note_on_c, 13, 62, 76
11, 125024, Note_on_c, 13, 62, 0
11, 125040, Note_on_c, 13, 64, 76
11, 125144, Note_on_c, 13, 64, 0
11, 125160, Note_on_c, 13, 65, 76
11, 125264, Note_on_c, 13, 65, 0
11, 125280, Note_on_c, 13, 64, 76
11, 125504, Note_on_c, 13, 64, 0
11, 125520, Note_on_c, 13, 57, 76
11, 125744, Note_on_c, 13, 57, 0
11, 125760, Note_on_c, 13, 62, 76
11, 125984, Note_on_c, 13, 62, 0
11, 126000, Note_on_c, 13, 67, 76
11, 126224, Note_on_c, 13, 67, 0
11, 126240, Note_on_c, 13, 64, 76
11, 126464, Note_on_c, 13, 64, 0
11, 126480, Note_on_c, 13, 69, 76
11, 126704, Note_on_c, 13, 69, 0
11, 126720, Note_on_c, 13, 69, 76
11, 126824, Note_on_c, 13, 69, 0
11, 126840, Note_on_c, 13, 70, 76
11, 126944, Note_on_c, 13, 70, 0
11, 126960, Note_on_c, 13, 69, 76
11, 127064, Note_on_c, 13, 69, 0
11, 127080, Note_on_c, 13, 67, 76
11, 127184, Note_on_c, 13, 67, 0
11, 127200, Note_on_c, 13, 65, 76
11, 127304, Note_on_c, 13, 65, 0
11, 127320, Note_on_c, 13, 67, 76
11, 127424, Note_on_c, 13, 67, 0
11, 127440, Note_on_c, 13, 65, 76
11, 127544, Note_on_c, 13, 65, 0
11, 127560, Note_on_c, 13, 64, 76
11, 127664, Note_on_c, 13, 64, 0
11, 127680, Note_on_c, 13, 62, 76
11, 127904, Note_on_c, 13, 62, 0
11, 127920, Note_on_c, 13, 62, 76
11, 128024, Note_on_c, 13, 62, 0
11, 128040, Note_on_c, 13, 64, 76
11, 128144, Note_on_c, 13, 64, 0
11, 128160, Note_on_c, 13, 65, 76
11, 128384, Note_on_c, 13, 65, 0
11, 128400, Note_on_c, 13, 59, 76
11, 128504, Note_on_c, 13, 59, 0
11, 128520, Note_on_c, 13, 60, 76
11, 128624, Note_on_c, 13, 60, 0
11, 128640, Note_on_c, 13, 62, 76
11, 128864, Note_on_c, 13, 62, 0
11, 128880, Note_on_c, 13, 62, 76
11, 128984, Note_on_c, 13, 62, 0
11, 129000, Note_on_c, 13, 64, 76
11, 129104, Note_on_c, 13, 64, 0
11, 129120, Note_on_c, 13, 65, 76
11, 129344, Note_on_c, 13, 65, 0
11, 129360, Note_on_c, 13, 59, 76
11, 129584, Note_on_c, 13, 59, 0
11, 129600, Note_on_c, 13, 60, 76
11, 129824, Note_on_c, 13, 60, 0
11, 129840, Note_on_c, 13, 64, 76
11, 130064, Note_on_c, 13, 64, 0
11, 130080, Note_on_c, 13, 64, 76
11, 130304, Note_on_c, 13, 64, 0
11, 130320, Note_on_c, 13, 59, 76
11, 130544, Note_on_c, 13, 59, 0
11, 130560, Note_on_c, 13, 60, 76
11, 131279, Note_on_c, 13, 60, 0
11, 131760, Note_on_c, 13, 64, 76
11, 131864, Note_on_c, 13, 64, 0
11, 131880, Note_on_c, 13, 65, 76
11, 131984, Note_on_c, 13, 65, 0
11, 132000, Note_on_c, 13, 67, 76
11, 132224, Note_on_c, 13, 67, 0
11, 132240, Note_on_c, 13, 67, 76
11, 132344, Note_on_c, 13, 67, 0
11, 132360, Note_on_c, 13, 69, 76
11, 132464, Note_on_c, 13, 69, 0
11, 132480, Note_on_c, 13, 70, 76
11, 132584, Note_on_c, 13, 70, 0
11, 132600, Note_on_c, 13, 69, 76
11, 132704, Note_on_c, 13, 69, 0
11, 132720, Note_on_c, 13, 67, 76
11, 132824, Note_on_c, 13, 67, 0
11, 132840, Note_on_c, 13, 65, 76
11, 132944, Note_on_c, 13, 65, 0
11, 132960, Note_on_c, 13, 64, 76
11, 133184, Note_on_c, 13, 64, 0
11, 133200, Note_on_c, 13, 60, 76
11, 133424, Note_on_c, 13, 60, 0
11, 133440, Note_on_c, 13, 60, 76
11, 133664, Note_on_c, 13, 60, 0
11, 133680, Note_on_c, 13, 58, 76
11, 133784, Note_on_c, 13, 58, 0
11, 133800, Note_on_c, 13, 60, 76
11, 133904, Note_on_c, 13, 60, 0
11, 133920, Note_on_c, 13, 62, 76
11, 134144, Note_on_c, 13, 62, 0
11, 134160, Note_on_c, 13, 60, 76
11, 134384, Note_on_c, 13, 60, 0
11, 134400, Note_on_c, 13, 60, 76
11, 134504, Note_on_c, 13, 60, 0
11, 134520, Note_on_c, 13, 62, 76
11, 134624, Note_on_c, 13, 62, 0
11, 134640, Note_on_c, 13, 60, 76
11, 134744, Note_on_c, 13, 60, 0
11, 134760, Note_on_c, 13, 58, 76
11, 134864, Note_on_c, 13, 58, 0
11, 134880, Note_on_c, 13, 57, 76
11, 135119, Note_on_c, 13, 57, 0
11, 136080, Note_on_c, 13, 55, 76
11, 136184, Note_on_c, 13, 55, 0
11, 136200, Note_on_c, 13, 57, 76
11, 136304, Note_on_c, 13, 57, 0
11, 136320, Note_on_c, 13, 59, 76
11, 136544, Note_on_c, 13, 59, 0
11, 136560, Note_on_c, 13, 59, 76
11, 136664, Note_on_c, 13, 59, 0
11, 136680, Note_on_c, 13, 60, 76
11, 136784, Note_on_c, 13, 60, 0
11, 136800, Note_on_c, 13, 62, 76
11, 137024, Note_on_c, 13, 62, 0
11, 137040, Note_on_c, 13, 62, 76
11, 137264, Note_on_c, 13, 62, 0
11, 137280, Note_on_c, 13, 64, 76
11, 137504, Note_on_c, 13, 64, 0
11, 137520, Note_on_c, 13, 69, 76
11, 137744, Note_on_c, 13, 69, 0
11, 137760, Note_on_c, 13, 67, 76
11, 137984, Note_on_c, 13, 67, 0
11, 138000, Note_on_c, 13, 62, 76
11, 138224, Note_on_c, 13, 62, 0
11, 138240, Note_on_c, 13, 64, 76
11, 138959, Note_on_c, 13, 64, 0
11, 138959, End_track
12, 0, Start_track
12, 0, Title_t, "Cello"
12, 0, MIDI_port, 0
12, 0, Program_c, 14, 48
12, 0, Control_c, 14, 10, 90
12, 0, Control_c, 14, 11, 127
12, 0, Control_c, 14, 7, 96
12, 720, Note_on_c, 14, 48, 76
12, 824, Note_on_c, 14, 48, 0
12, 840, Note_on_c, 14, 50, 76
12, 944, Note_on_c, 14, 50, 0
12, 960, Note_on_c, 14, 52, 76
12, 1184, Note_on_c, 14, 52, 0
12, 1200, Note_on_c, 14, 55, 76
12, 1424, Note_on_c, 14, 55, 0
12, 1440, Note_on_c, 14, 60, 76
12, 1664, Note_on_c, 14, 60, 0
12, 1680, Note_on_c, 14, 55, 76
12, 1904, Note_on_c, 14, 55, 0
12, 1920, Note_on_c, 14, 48, 76
12, 2144, Note_on_c, 14, 48, 0
12, 2160, Note_on_c, 14, 53, 76
12, 2384, Note_on_c, 14, 53, 0
12, 2400, Note_on_c, 14, 52, 76
12, 2624, Note_on_c, 14, 52, 0
12, 2640, Note_on_c, 14, 50, 76
12, 2864, Note_on_c, 14, 50, 0
12, 2880, Note_on_c, 14, 52, 76
12, 3104, Note_on_c, 14, 52, 0
12, 3120, Note_on_c, 14, 53, 76
12, 3344, Note_on_c, 14, 53, 0
12, 3360, Note_on_c, 14, 55, 76
12, 3584, Note_on_c, 14, 55, 0
12, 3600, Note_on_c, 14, 57, 76
12, 3824, Note_on_c, 14, 57, 0
12, 3840, Note_on_c, 14, 59, 76
12, 4064, Note_on_c, 14, 59, 0
12, 4080, Note_on_c, 14, 60, 76
12, 4304, Note_on_c, 14, 60, 0
12, 4320, Note_on_c, 14, 59, 76
12, 4544, Note_on_c, 14, 59, 0
12, 4560, Note_on_c, 14, 57, 76
12, 4784, Note_on_c, 14, 57, 0
12, 4800, Note_on_c, 14, 55, 76
12, 5024, Note_on_c, 14, 55, 0
12, 5040, Note_on_c, 14, 54, 76
12, 5264, Note_on_c, 14, 54, 0
12, 5280, Note_on_c, 14, 52, 76
12, 5504, Note_on_c, 14, 52, 0
12, 5520, Note_on_c, 14, 50, 76
12, 5744, Note_on_c, 14, 50, 0
12, 5760, Note_on_c, 14, 52, 76
12, 5984, Note_on_c, 14, 52, 0
12, 6000, Note_on_c, 14, 54, 76
12, 6224, Note_on_c, 14, 54, 0
12, 6240, Note_on_c, 14, 55, 76
12, 6464, Note_on_c, 14, 55, 0
12, 6480, Note_on_c, 14, 48, 76
12, 6704, Note_on_c, 14, 48, 0
12, 6720, Note_on_c, 14, 50, 76
12, 6944, Note_on_c, 14, 50, 0
12, 6960, Note_on_c, 14, 38, 76
12, 7184, Note_on_c, 14, 38, 0
12, 7200, Note_on_c, 14, 43, 76
12, 7424, Note_on_c, 14, 43, 0
12, 7440, Note_on_c, 14, 50, 76
12, 7664, Note_on_c, 14, 50, 0
12, 7680, Note_on_c, 14, 55, 76
12, 7919, Note_on_c, 14, 55, 0
12, 8400, Note_on_c, 14, 48, 76
12, 8504, Note_on_c, 14, 48, 0
12, 8520, Note_on_c, 14, 50, 76
12, 8624, Note_on_c, 14, 50, 0
12, 8640, Note_on_c, 14, 52, 76
12, 8864, Note_on_c, 14, 52, 0
12, 8880, Note_on_c, 14, 55, 76
12, 9104, Note_on_c, 14, 55, 0
12, 9120, Note_on_c, 14, 60, 76
12, 9344, Note_on_c, 14, 60, 0
12, 9360, Note_on_c, 14, 55, 76
12, 9584, Note_on_c, 14, 55, 0
12, 9600, Note_on_c, 14, 48, 76
12, 9824, Note_on_c, 14, 48, 0
12, 9840, Note_on_c, 14, 53, 76
12, 10064, Note_on_c, 14, 53, 0
12, 10080, Note_on_c, 14, 52, 76
12, 10304, Note_on_c, 14, 52, 0
12, 10320, Note_on_c, 14, 50, 76
12, 10544, Note_on_c, 14, 50, 0
12, 10560, Note_on_c, 14, 52, 76
12, 10784, Note_on_c, 14, 52, 0
12, 10800, Note_on_c, 14, 53, 76
12, 11024, Note_on_c, 14, 53, 0
12, 11040, Note_on_c, 14, 55, 76
12, 11264, Note_on_c, 14, 55, 0
12, 11280, Note_on_c, 14, 57, 76
12, 11504, Note_on_c, 14, 57, 0
12, 11520, Note_on_c, 14, 59, 76
12, 11744, Note_on_c, 14, 59, 0
12, 11760, Note_on_c, 14, 60, 76
12, 11984, Note_on_c, 14, 60, 0
12, 12000, Note_on_c, 14, 59, 76
12, 12224, Note_on_c, 14, 59, 0
12, 12240, Note_on_c, 14, 57, 76
12, 12464, Note_on_c, 14, 57, 0
12, 12480, Note_on_c, 14, 55, 76
12, 12704, Note_on_c, 14, 55, 0
12, 12720, Note_on_c, 14, 54, 76
12, 12944, Note_on_c, 14, 54, 0
12, 12960, Note_on_c, 14, 52, 76
12, 13184, Note_on_c, 14, 52, 0
12, 13200, Note_on_c, 14, 50, 76
12, 13424, Note_on_c, 14, 50, 0
12, 13440, Note_on_c, 14, 52, 76
12, 13664, Note_on_c, 14, 52, 0
12, 13680, Note_on_c, 14, 54, 76
12, 13904, Note_on_c, 14, 54, 0
12, 13920, Note_on_c, 14, 55, 76
12, 14144, Note_on_c, 14, 55, 0
12, 14160, Note_on_c, 14, 48, 76
12, 14384, Note_on_c, 14, 48, 0
12, 14400, Note_on_c, 14, 50, 76
12, 14624, Note_on_c, 14, 50, 0
12, 14640, Note_on_c, 14, 38, 76
12, 14864, Note_on_c, 14, 38, 0
12, 14880, Note_on_c, 14, 43, 76
12, 15104, Note_on_c, 14, 43, 0
12, 15120, Note_on_c, 14, 50, 76
12, 15344, Note_on_c, 14, 50, 0
12, 15360, Note_on_c, 14, 55, 76
12, 15599, Note_on_c, 14, 55, 0
12, 16080, Note_on_c, 14, 55, 76
12, 16184, Note_on_c, 14, 55, 0
12, 16200, Note_on_c, 14, 53, 76
12, 16304, Note_on_c, 14, 53, 0
12, 16320, Note_on_c, 14, 52, 76
12, 16544, Note_on_c, 14, 52, 0
12, 16560, Note_on_c, 14, 55, 76
12, 16784, Note_on_c, 14, 55, 0
12, 16800, Note_on_c, 14, 57, 76
12, 17024, Note_on_c, 14, 57, 0
12, 17040, Note_on_c, 14, 45, 76
12, 17264, Note_on_c, 14, 45, 0
12, 17280, Note_on_c, 14, 57, 76
12, 17504, Note_on_c, 14, 57, 0
12, 17520, Note_on_c, 14, 55, 76
12, 17744, Note_on_c, 14, 55, 0
12, 17760, Note_on_c, 14, 53, 76
12, 17984, Note_on_c, 14, 53, 0
12, 18000, Note_on_c, 14, 55, 76
12, 18224, Note_on_c, 14, 55, 0
12, 18240, Note_on_c, 14, 57, 76
12, 18464, Note_on_c, 14, 57, 0
12, 18480, Note_on_c, 14, 45, 76
12, 18704, Note_on_c, 14, 45, 0
12, 18720, Note_on_c, 14, 50, 76
12, 18944, Note_on_c, 14, 50, 0
12, 18960, Note_on_c, 14, 45, 76
12, 19184, Note_on_c, 14, 45, 0
12, 19200, Note_on_c, 14, 38, 76
12, 19424, Note_on_c, 14, 38, 0
12, 19440, Note_on_c, 14, 56, 76
12, 19544, Note_on_c, 14, 56, 0
12, 19560, Note_on_c, 14, 57, 76
12, 19664, Note_on_c, 14, 57, 0
12, 19680, Note_on_c, 14, 59, 76
12, 19904, Note_on_c, 14, 59, 0
12, 19920, Note_on_c, 14, 59, 76
12, 20024, Note_on_c, 14, 59, 0
12, 20040, Note_on_c, 14, 60, 76
12, 20144, Note_on_c, 14, 60, 0
12, 20160, Note_on_c, 14, 62, 76
12, 20399, Note_on_c, 14, 62, 0
12, 21360, Note_on_c, 14, 50, 76
12, 21584, Note_on_c, 14, 50, 0
12, 21600, Note_on_c, 14, 48, 76
12, 21704, Note_on_c, 14, 48, 0
12, 21720, Note_on_c, 14, 47, 76
12, 21824, Note_on_c, 14, 47, 0
12, 21840, Note_on_c, 14, 48, 76
12, 21944, Note_on_c, 14, 48, 0
12, 21960, Note_on_c, 14, 50, 76
12, 22064, Note_on_c, 14, 50, 0
12, 22080, Note_on_c, 14, 52, 76
12, 22304, Note_on_c, 14, 52, 0
12, 22320, Note_on_c, 14, 40, 76
12, 22544, Note_on_c, 14, 40, 0
12, 22560, Note_on_c, 14, 45, 76
12, 22784, Note_on_c, 14, 45, 0
12, 22800, Note_on_c, 14, 52, 76
12, 23024, Note_on_c, 14, 52, 0
12, 23040, Note_on_c, 14, 57, 76
12, 23279, Note_on_c, 14, 57, 0
12, 23760, Note_on_c, 14, 48, 76
12, 23864, Note_on_c, 14, 48, 0
12, 23880, Note_on_c, 14, 50, 76
12, 23984, Note_on_c, 14, 50, 0
12, 24000, Note_on_c, 14, 52, 76
12, 24224, Note_on_c, 14, 52, 0
12, 24240, Note_on_c, 14, 52, 76
12, 24344, Note_on_c, 14, 52, 0
12, 24360, Note_on_c, 14, 53, 76
12, 24464, Note_on_c, 14, 53, 0
12, 24480, Note_on_c, 14, 55, 76
12, 24704, Note_on_c, 14, 55, 0
12, 24720, Note_on_c, 14, 55, 76
12, 24824, Note_on_c, 14, 55, 0
12, 24840, Note_on_c, 14, 57, 76
12, 24944, Note_on_c, 14, 57, 0
12, 24960, Note_on_c, 14, 58, 76
12, 25184, Note_on_c, 14, 58, 0
12, 25200, Note_on_c, 14, 52, 76
12, 25424, Note_on_c, 14, 52, 0
12, 25440, Note_on_c, 14, 53, 76
12, 25664, Note_on_c, 14, 53, 0
12, 25680, Note_on_c, 14, 46, 76
12, 25904, Note_on_c, 14, 46, 0
12, 25920, Note_on_c, 14, 43, 76
12, 26144, Note_on_c, 14, 43, 0
12, 26160, Note_on_c, 14, 48, 76
12, 26384, Note_on_c, 14, 48, 0
12, 26400, Note_on_c, 14, 41, 76
12, 26624, Note_on_c, 14, 41, 0
12, 26640, Note_on_c, 14, 53, 76
12, 26744, Note_on_c, 14, 53, 0
12, 26760, Note_on_c, 14, 55, 76
12, 26864, Note_on_c, 14, 55, 0
12, 26880, Note_on_c, 14, 57, 76
12, 26984, Note_on_c, 14, 57, 0
12, 27000, Note_on_c, 14, 58, 76
12, 27104, Note_on_c, 14, 58, 0
12, 27120, Note_on_c, 14, 57, 76
12, 27224, Note_on_c, 14, 57, 0
12, 27240, Note_on_c, 14, 55, 76
12, 27344, Note_on_c, 14, 55, 0
12, 27360, Note_on_c, 14, 53, 76
12, 27464, Note_on_c, 14, 53, 0
12, 27480, Note_on_c, 14, 55, 76
12, 27584, Note_on_c, 14, 55, 0
12, 27600, Note_on_c, 14, 53, 76
12, 27704, Note_on_c, 14, 53, 0
12, 27720, Note_on_c, 14, 52, 76
12, 27824, Note_on_c, 14, 52, 0
12, 27840, Note_on_c, 14, 50, 76
12, 27944, Note_on_c, 14, 50, 0
12, 27960, Note_on_c, 14, 52, 76
12, 28064, Note_on_c, 14, 52, 0
12, 28080, Note_on_c, 14, 50, 76
12, 28184, Note_on_c, 14, 50, 0
12, 28200, Note_on_c, 14, 48, 76
12, 28304, Note_on_c, 14, 48, 0
12, 28320, Note_on_c, 14, 47, 76
12, 28424, Note_on_c, 14, 47, 0
12, 28440, Note_on_c, 14, 48, 76
12, 28544, Note_on_c, 14, 48, 0
12, 28560, Note_on_c, 14, 47, 76
12, 28664, Note_on_c, 14, 47, 0
12, 28680, Note_on_c, 14, 45, 76
12, 28784, Note_on_c, 14, 45, 0
12, 28800, Note_on_c, 14, 43, 76
12, 28904, Note_on_c, 14, 43, 0
12, 28920, Note_on_c, 14, 45, 76
12, 29024, Note_on_c, 14, 45, 0
12, 29040, Note_on_c, 14, 43, 76
12, 29144, Note_on_c, 14, 43, 0
12, 29160, Note_on_c, 14, 41, 76
12, 29264, Note_on_c, 14, 41, 0
12, 29280, Note_on_c, 14, 40, 76
12, 29504, Note_on_c, 14, 40, 0
12, 29520, Note_on_c, 14, 41, 76
12, 29744, Note_on_c, 14, 41, 0
12, 29760, Note_on_c, 14, 43, 76
12, 29984, Note_on_c, 14, 43, 0
12, 30000, Note_on_c, 14, 43, 76
12, 30224, Note_on_c, 14, 43, 0
12, 30240, Note_on_c, 14, 36, 76
12, 30959, Note_on_c, 14, 36, 0
12, 31440, Note_on_c, 14, 55, 76
12, 31544, Note_on_c, 14, 55, 0
12, 31560, Note_on_c, 14, 53, 76
12, 31664, Note_on_c, 14, 53, 0
12, 31680, Note_on_c, 14, 52, 76
12, 31904, Note_on_c, 14, 52, 0
12, 31920, Note_on_c, 14, 55, 76
12, 32144, Note_on_c, 14, 55, 0
12, 32160, Note_on_c, 14, 57, 76
12, 32384, Note_on_c, 14, 57, 0
12, 32400, Note_on_c, 14, 45, 76
12, 32624, Note_on_c, 14, 45, 0
12, 32640, Note_on_c, 14, 57, 76
12, 32864, Note_on_c, 14, 57, 0
12, 32880, Note_on_c, 14, 55, 76
12, 33104, Note_on_c, 14, 55, 0
12, 33120, Note_on_c, 14, 53, 76
12, 33344, Note_on_c, 14, 53, 0
12, 33360, Note_on_c, 14, 55, 76
12, 33584, Note_on_c, 14, 55, 0
12, 33600, Note_on_c, 14, 57, 76
12, 33824, Note_on_c, 14, 57, 0
12, 33840, Note_on_c, 14, 45, 76
12, 34064, Note_on_c, 14, 45, 0
12, 34080, Note_on_c, 14, 50, 76
12, 34304, Note_on_c, 14, 50, 0
12, 34320, Note_on_c, 14, 45, 76
12, 34544, Note_on_c, 14, 45, 0
12, 34560, Note_on_c, 14, 38, 76
12, 34784, Note_on_c, 14, 38, 0
12, 34800, Note_on_c, 14, 56, 76
12, 34904, Note_on_c, 14, 56, 0
12, 34920, Note_on_c, 14, 57, 76
12, 35024, Note_on_c, 14, 57, 0
12, 35040, Note_on_c, 14, 59, 76
12, 35264, Note_on_c, 14, 59, 0
12, 35280, Note_on_c, 14, 59, 76
12, 35384, Note_on_c, 14, 59, 0
12, 35400, Note_on_c, 14, 60, 76
12, 35504, Note_on_c, 14, 60, 0
12, 35520, Note_on_c, 14, 62, 76
12, 35759, Note_on_c, 14, 62, 0
12, 36720, Note_on_c, 14, 50, 76
12, 36944, Note_on_c, 14, 50, 0
12, 36960, Note_on_c, 14, 48, 76
12, 37064, Note_on_c, 14, 48, 0
12, 37080, Note_on_c, 14, 47, 76
12, 37184, Note_on_c, 14, 47, 0
12, 37200, Note_on_c, 14, 48, 76
12, 37304, Note_on_c, 14, 48, 0
12, 37320, Note_on_c, 14, 50, 76
12, 37424, Note_on_c, 14, 50, 0
12, 37440, Note_on_c, 14, 52, 76
12, 37664, Note_on_c, 14, 52, 0
12, 37680, Note_on_c, 14, 40, 76
12, 37904, Note_on_c, 14, 40, 0
12, 37920, Note_on_c, 14, 45, 76
12, 38144, Note_on_c, 14, 45, 0
12, 38160, Note_on_c, 14, 52, 76
12, 38384, Note_on_c, 14, 52, 0
12, 38400, Note_on_c, 14, 57, 76
12, 38639, Note_on_c, 14, 57, 0
12, 39120, Note_on_c, 14, 48, 76
12, 39224, Note_on_c, 14, 48, 0
12, 39240, Note_on_c, 14, 50, 76
12, 39344, Note_on_c, 14, 50, 0
12, 39360, Note_on_c, 14, 52, 76
12, 39584, Note_on_c, 14, 52, 0
12, 39600, Note_on_c, 14, 52, 76
12, 39704, Note_on_c, 14, 52, 0
12, 39720, Note_on_c, 14, 53, 76
12, 39824, Note_on_c, 14, 53, 0
12, 39840, Note_on_c, 14, 55, 76
12, 40064, Note_on_c, 14, 55, 0
12, 40080, Note_on_c, 14, 55, 76
12, 40184, Note_on_c, 14, 55, 0
12, 40200, Note_on_c, 14, 57, 76
12, 40304, Note_on_c, 14, 57, 0
12, 40320, Note_on_c, 14, 58, 76
12, 40544, Note_on_c, 14, 58, 0
12, 40560, Note_on_c, 14, 52, 76
12, 40784, Note_on_c, 14, 52, 0
12, 40800, Note_on_c, 14, 53, 76
12, 41024, Note_on_c, 14, 53, 0
12, 41040, Note_on_c, 14, 46, 76
12, 41264, Note_on_c, 14, 46, 0
12, 41280, Note_on_c, 14, 43, 76
12, 41504, Note_on_c, 14, 43, 0
12, 41520, Note_on_c, 14, 48, 76
12, 41744, Note_on_c, 14, 48, 0
12, 41760, Note_on_c, 14, 41, 76
12, 41984, Note_on_c, 14, 41, 0
12, 42000, Note_on_c, 14, 53, 76
12, 42104, Note_on_c, 14, 53, 0
12, 42120, Note_on_c, 14, 55, 76
12, 42224, Note_on_c, 14, 55, 0
12, 42240, Note_on_c, 14, 57, 76
12, 42344, Note_on_c, 14, 57, 0
12, 42360, Note_on_c, 14, 58, 76
12, 42464, Note_on_c, 14, 58, 0
12, 42480, Note_on_c, 14, 57, 76
12, 42584, Note_on_c, 14, 57, 0
12, 42600, Note_on_c, 14, 55, 76
12, 42704, Note_on_c, 14, 55, 0
12, 42720, Note_on_c, 14, 53, 76
12, 42824, Note_on_c, 14, 53, 0
12, 42840, Note_on_c, 14, 55, 76
12, 42944, Note_on_c, 14, 55, 0
12, 42960, Note_on_c, 14, 53, 76
12, 43064, Note_on_c, 14, 53, 0
12, 43080, Note_on_c, 14, 52, 76
12, 43184, Note_on_c, 14, 52, 0
12, 43200, Note_on_c, 14, 50, 76
12, 43304, Note_on_c, 14, 50, 0
12, 43320, Note_on_c, 14, 52, 76
12, 43424, Note_on_c, 14, 52, 0
12, 43440, Note_on_c, 14, 50, 76
12, 43544, Note_on_c, 14, 50, 0
12, 43560, Note_on_c, 14, 48, 76
12, 43664, Note_on_c, 14, 48, 0
12, 43680, Note_on_c, 14, 47, 76
12, 43784, Note_on_c, 14, 47, 0
12, 43800, Note_on_c, 14, 48, 76
12, 43904, Note_on_c, 14, 48, 0
12, 43920, Note_on_c, 14, 47, 76
12, 44024, Note_on_c, 14, 47, 0
12, 44040, Note_on_c, 14, 45, 76
12, 44144, Note_on_c, 14, 45, 0
12, 44160, Note_on_c, 14, 43, 76
12, 44264, Note_on_c, 14, 43, 0
12, 44280, Note_on_c, 14, 45, 76
12, 44384, Note_on_c, 14, 45, 0
12, 44400, Note_on_c, 14, 43, 76
12, 44504, Note_on_c, 14, 43, 0
12, 44520, Note_on_c, 14, 41, 76
12, 44624, Note_on_c, 14, 41, 0
12, 44640, Note_on_c, 14, 40, 76
12, 44864, Note_on_c, 14, 40, 0
12, 44880, Note_on_c, 14, 41, 76
12, 45104, Note_on_c, 14, 41, 0
12, 45120, Note_on_c, 14, 43, 76
12, 45344, Note_on_c, 14, 43, 0
12, 45360, Note_on_c, 14, 43, 76
12, 45584, Note_on_c, 14, 43, 0
12, 45600, Note_on_c, 14, 36, 76
12, 46319, Note_on_c, 14, 36, 0
12, 93360, Note_on_c, 14, 48, 76
12, 93464, Note_on_c, 14, 48, 0
12, 93480, Note_on_c, 14, 50, 76
12, 93584, Note_on_c, 14, 50, 0
12, 93600, Note_on_c, 14, 52, 76
12, 93824, Note_on_c, 14, 52, 0
12, 93840, Note_on_c, 14, 55, 76
12, 94064, Note_on_c, 14, 55, 0
12, 94080, Note_on_c, 14, 60, 76
12, 94304, Note_on_c, 14, 60, 0
12, 94320, Note_on_c, 14, 55, 76
12, 94544, Note_on_c, 14, 55, 0
12, 94560, Note_on_c, 14, 48, 76
12, 94784, Note_on_c, 14, 48, 0
12, 94800, Note_on_c, 14, 53, 76
12, 95024, Note_on_c, 14, 53, 0
12, 95040, Note_on_c, 14, 52, 76
12, 95264, Note_on_c, 14, 52, 0
12, 95280, Note_on_c, 14, 50, 76
12, 95504, Note_on_c, 14, 50, 0
12, 95520, Note_on_c, 14, 52, 76
12, 95744, Note_on_c, 14, 52, 0
12, 95760, Note_on_c, 14, 53, 76
12, 95984, Note_on_c, 14, 53, 0
12, 96000, Note_on_c, 14, 55, 76
12, 96224, Note_on_c, 14, 55, 0
12, 96240, Note_on_c, 14, 57, 76
12, 96464, Note_on_c, 14, 57, 0
12, 96480, Note_on_c, 14, 59, 76
12, 96704, Note_on_c, 14, 59, 0
12, 96720, Note_on_c, 14, 60, 76
12, 96944, Note_on_c, 14, 60, 0
12, 96960, Note_on_c, 14, 59, 76
12, 97184, Note_on_c, 14, 59, 0
12, 97200, Note_on_c, 14, 57, 76
12, 97424, Note_on_c, 14, 57, 0
12, 97440, Note_on_c, 14, 55, 76
12, 97664, Note_on_c, 14, 55, 0
12, 97680, Note_on_c, 14, 54, 76
12, 97904, Note_on_c, 14, 54, 0
12, 97920, Note_on_c, 14, 52, 76
12, 98144, Note_on_c, 14, 52, 0
12, 98160, Note_on_c, 14, 50, 76
12, 98384, Note_on_c, 14, 50, 0
12, 98400, Note_on_c, 14, 52, 76
12, 98624, Note_on_c, 14, 52, 0
12, 98640, Note_on_c, 14, 54, 76
12, 98864, Note_on_c, 14, 54, 0
12, 98880, Note_on_c, 14, 55, 76
12, 99104, Note_on_c, 14, 55, 0
12, 99120, Note_on_c, 14, 48, 76
12, 99344, Note_on_c, 14, 48, 0
12, 99360, Note_on_c, 14, 50, 76
12, 99584, Note_on_c, 14, 50, 0
12, 99600, Note_on_c, 14, 38, 76
12, 99824, Note_on_c, 14, 38, 0
12, 99840, Note_on_c, 14, 43, 76
12, 100064, Note_on_c, 14, 43, 0
12, 100080, Note_on_c, 14, 50, 76
12, 100304, Note_on_c, 14, 50, 0
12, 100320, Note_on_c, 14, 55, 76
12, 100559, Note_on_c, 14, 55, 0
12, 101040, Note_on_c, 14, 48, 76
12, 101144, Note_on_c, 14, 48, 0
12, 101160, Note_on_c, 14, 50, 76
12, 101264, Note_on_c, 14, 50, 0
12, 101280, Note_on_c, 14, 52, 76
12, 101504, Note_on_c, 14, 52, 0
12, 101520, Note_on_c, 14, 55, 76
12, 101744, Note_on_c, 14, 55, 0
12, 101760, Note_on_c, 14, 60, 76
12, 101984, Note_on_c, 14, 60, 0
12, 102000, Note_on_c, 14, 55, 76
12, 102224, Note_on_c, 14, 55, 0
12, 102240, Note_on_c, 14, 48, 76
12, 102464, Note_on_c, 14, 48, 0
12, 102480, Note_on_c, 14, 53, 76
12, 102704, Note_on_c, 14, 53, 0
12, 102720, Note_on_c, 14, 52, 76
12, 102944, Note_on_c, 14, 52, 0
12, 102960, Note_on_c, 14, 50, 76
12, 103184, Note_on_c, 14, 50, 0
12, 103200, Note_on_c, 14, 52, 76
12, 103424, Note_on_c, 14, 52, 0
12, 103440, Note_on_c, 14, 53, 76
12, 103664, Note_on_c, 14, 53, 0
12, 103680, Note_on_c, 14, 55, 76
12, 103904, Note_on_c, 14, 55, 0
12, 103920, Note_on_c, 14, 57, 76
12, 104144, Note_on_c, 14, 57, 0
12, 104160, Note_on_c, 14, 59, 76
12, 104384, Note_on_c, 14, 59, 0
12, 104400, Note_on_c, 14, 60, 76
12, 104624, Note_on_c, 14, 60, 0
12, 104640, Note_on_c, 14, 59, 76
12, 104864, Note_on_c, 14, 59, 0
12, 104880, Note_on_c, 14, 57, 76
12, 105104, Note_on_c, 14, 57, 0
12, 105120, Note_on_c, 14, 55, 76
12, 105344, Note_on_c, 14, 55, 0
12, 105360, Note_on_c, 14, 54, 76
12, 105584, Note_on_c, 14, 54, 0
12, 105600, Note_on_c, 14, 52, 76
12, 105824, Note_on_c, 14, 52, 0
12, 105840, Note_on_c, 14, 50, 76
12, 106064, Note_on_c, 14, 50, 0
12, 106080, Note_on_c, 14, 52, 76
12, 106304, Note_on_c, 14, 52, 0
12, 106320, Note_on_c, 14, 54, 76
12, 106544, Note_on_c, 14, 54, 0
12, 106560, Note_on_c, 14, 55, 76
12, 106784, Note_on_c, 14, 55, 0
12, 106800, Note_on_c, 14, 48, 76
12, 107024, Note_on_c, 14, 48, 0
12, 107040, Note_on_c, 14, 50, 76
12, 107264, Note_on_c, 14, 50, 0
12, 107280, Note_on_c, 14, 38, 76
12, 107504, Note_on_c, 14, 38, 0
12, 107520, Note_on_c, 14, 43, 76
12, 107744, Note_on_c, 14, 43, 0
12, 107760, Note_on_c, 14, 50, 76
12, 107984, Note_on_c, 14, 50, 0
12, 108000, Note_on_c, 14, 55, 76
12, 108239, Note_on_c, 14, 55, 0
12, 108720, Note_on_c, 14, 55, 76
12, 108824, Note_on_c, 14, 55, 0
12, 108840, Note_on_c, 14, 53, 76
12, 108944, Note_on_c, 14, 53, 0
12, 108960, Note_on_c, 14, 52, 76
12, 109184, Note_on_c, 14, 52, 0
12, 109200, Note_on_c, 14, 55, 76
12, 109424, Note_on_c, 14, 55, 0
12, 109440, Note_on_c, 14, 57, 76
12, 109664, Note_on_c, 14, 57, 0
12, 109680, Note_on_c, 14, 45, 76
12, 109904, Note_on_c, 14, 45, 0
12, 109920, Note_on_c, 14, 57, 76
12, 110144, Note_on_c, 14, 57, 0
12, 110160, Note_on_c, 14, 55, 76
12, 110384, Note_on_c, 14, 55, 0
12, 110400, Note_on_c, 14, 53, 76
12, 110624, Note_on_c, 14, 53, 0
12, 110640, Note_on_c, 14, 55, 76
12, 110864, Note_on_c, 14, 55, 0
12, 110880, Note_on_c, 14, 57, 76
12, 111104, Note_on_c, 14, 57, 0
12, 111120, Note_on_c, 14, 45, 76
12, 111344, Note_on_c, 14, 45, 0
12, 111360, Note_on_c, 14, 50, 76
12, 111584, Note_on_c, 14, 50, 0
12, 111600, Note_on_c, 14, 45, 76
12, 111824, Note_on_c, 14, 45, 0
12, 111840, Note_on_c, 14, 38, 76
12, 112064, Note_on_c, 14, 38, 0
12, 112080, Note_on_c, 14, 56, 76
12, 112184, Note_on_c, 14, 56, 0
12, 112200, Note_on_c, 14, 57, 76
12, 112304, Note_on_c, 14, 57, 0
12, 112320, Note_on_c, 14, 59, 76
12, 112544, Note_on_c, 14, 59, 0
12, 112560, Note_on_c, 14, 59, 76
12, 112664, Note_on_c, 14, 59, 0
12, 112680, Note_on_c, 14, 60, 76
12, 112784, Note_on_c, 14, 60, 0
12, 112800, Note_on_c, 14, 62, 76
12, 113039, Note_on_c, 14, 62, 0
12, 114000, Note_on_c, 14, 50, 76
12, 114224, Note_on_c, 14, 50, 0
12, 114240, Note_on_c, 14, 48, 76
12, 114344, Note_on_c, 14, 48, 0
12, 114360, Note_on_c, 14, 47, 76
12, 114464, Note_on_c, 14, 47, 0
12, 114480, Note_on_c, 14, 48, 76
12, 114584, Note_on_c, 14, 48, 0
12, 114600, Note_on_c, 14, 50, 76
12, 114704, Note_on_c, 14, 50, 0
12, 114720, Note_on_c, 14, 52, 76
12, 114944, Note_on_c, 14, 52, 0
12, 114960, Note_on_c, 14, 40, 76
12, 115184, Note_on_c, 14, 40, 0
12, 115200, Note_on_c, 14, 45, 76
12, 115424, Note_on_c, 14, 45, 0
12, 115440, Note_on_c, 14, 52, 76
12, 115664, Note_on_c, 14, 52, 0
12, 115680, Note_on_c, 14, 57, 76
12, 115919, Note_on_c, 14, 57, 0
12, 116400, Note_on_c, 14, 48, 76
12, 116504, Note_on_c, 14, 48, 0
12, 116520, Note_on_c, 14, 50, 76
12, 116624, Note_on_c, 14, 50, 0
12, 116640, Note_on_c, 14, 52, 76
12, 116864, Note_on_c, 14, 52, 0
12, 116880, Note_on_c, 14, 52, 76
12, 116984, Note_on_c, 14, 52, 0
12, 117000, Note_on_c, 14, 53, 76
12, 117104, Note_on_c, 14, 53, 0
12, 117120, Note_on_c, 14, 55, 76
12, 117344, Note_on_c, 14, 55, 0
12, 117360, Note_on_c, 14, 55, 76
12, 117464, Note_on_c, 14, 55, 0
12, 117480, Note_on_c, 14, 57, 76
12, 117584, Note_on_c, 14, 57, 0
12, 117600, Note_on_c, 14, 58, 76
12, 117824, Note_on_c, 14, 58, 0
12, 117840, Note_on_c, 14, 52, 76
12, 118064, Note_on_c, 14, 52, 0
12, 118080, Note_on_c, 14, 53, 76
12, 118304, Note_on_c, 14, 53, 0
12, 118320, Note_on_c, 14, 46, 76
12, 118544, Note_on_c, 14, 46, 0
12, 118560, Note_on_c, 14, 43, 76
12, 118784, Note_on_c, 14, 43, 0
12, 118800, Note_on_c, 14, 48, 76
12, 119024, Note_on_c, 14, 48, 0
12, 119040, Note_on_c, 14, 41, 76
12, 119264, Note_on_c, 14, 41, 0
12, 119280, Note_on_c, 14, 53, 76
12, 119384, Note_on_c, 14, 53, 0
12, 119400, Note_on_c, 14, 55, 76
12, 119504, Note_on_c, 14, 55, 0
12, 119520, Note_on_c, 14, 57, 76
12, 119624, Note_on_c, 14, 57, 0
12, 119640, Note_on_c, 14, 58, 76
12, 119744, Note_on_c, 14, 58, 0
12, 119760, Note_on_c, 14, 57, 76
12, 119864, Note_on_c, 14, 57, 0
12, 119880, Note_on_c, 14, 55, 76
12, 119984, Note_on_c, 14, 55, 0
12, 120000, Note_on_c, 14, 53, 76
12, 120104, Note_on_c, 14, 53, 0
12, 120120, Note_on_c, 14, 55, 76
12, 120224, Note_on_c, 14, 55, 0
12, 120240, Note_on_c, 14, 53, 76
12, 120344, Note_on_c, 14, 53, 0
12, 120360, Note_on_c, 14, 52, 76
12, 120464, Note_on_c, 14, 52, 0
12, 120480, Note_on_c, 14, 50, 76
12, 120584, Note_on_c, 14, 50, 0
12, 120600, Note_on_c, 14, 52, 76
12, 120704, Note_on_c, 14, 52, 0
12, 120720, Note_on_c, 14, 50, 76
12, 120824, Note_on_c, 14, 50, 0
12, 120840, Note_on_c, 14, 48, 76
12, 120944, Note_on_c, 14, 48, 0
12, 120960, Note_on_c, 14, 47, 76
12, 121064, Note_on_c, 14, 47, 0
12, 121080, Note_on_c, 14, 48, 76
12, 121184, Note_on_c, 14, 48, 0
12, 121200, Note_on_c, 14, 47, 76
12, 121304, Note_on_c, 14, 47, 0
12, 121320, Note_on_c, 14, 45, 76
12, 121424, Note_on_c, 14, 45, 0
12, 121440, Note_on_c, 14, 43, 76
12, 121544, Note_on_c, 14, 43, 0
12, 121560, Note_on_c, 14, 45, 76
12, 121664, Note_on_c, 14, 45, 0
12, 121680, Note_on_c, 14, 43, 76
12, 121784, Note_on_c, 14, 43, 0
12, 121800, Note_on_c, 14, 41, 76
12, 121904, Note_on_c, 14, 41, 0
12, 121920, Note_on_c, 14, 40, 76
12, 122144, Note_on_c, 14, 40, 0
12, 122160, Note_on_c, 14, 41, 76
12, 122384, Note_on_c, 14, 41, 0
12, 122400, Note_on_c, 14, 43, 76
12, 122624, Note_on_c, 14, 43, 0
12, 122640, Note_on_c, 14, 43, 76
12, 122864, Note_on_c, 14, 43, 0
12, 122880, Note_on_c, 14, 36, 76
12, 123599, Note_on_c, 14, 36, 0
12, 124080, Note_on_c, 14, 55, 76
12, 124184, Note_on_c, 14, 55, 0
12, 124200, Note_on_c, 14, 53, 76
12, 124304, Note_on_c, 14, 53, 0
12, 124320, Note_on_c, 14, 52, 76
12, 124544, Note_on_c, 14, 52, 0
12, 124560, Note_on_c, 14, 55, 76
12, 124784, Note_on_c, 14, 55, 0
12, 124800, Note_on_c, 14, 57, 76
12, 125024, Note_on_c, 14, 57, 0
12, 125040, Note_on_c, 14, 45, 76
12, 125264, Note_on_c, 14, 45, 0
12, 125280, Note_on_c, 14, 57, 76
12, 125504, Note_on_c, 14, 57, 0
12, 125520, Note_on_c, 14, 55, 76
12, 125744, Note_on_c, 14, 55, 0
12, 125760, Note_on_c, 14, 53, 76
12, 125984, Note_on_c, 14, 53, 0
12, 126000, Note_on_c, 14, 55, 76
12, 126224, Note_on_c, 14, 55, 0
12, 126240, Note_on_c, 14, 57, 76
12, 126464, Note_on_c, 14, 57, 0
12, 126480, Note_on_c, 14, 45, 76
12, 126704, Note_on_c, 14, 45, 0
12, 126720, Note_on_c, 14, 50, 76
12, 126944, Note_on_c, 14, 50, 0
12, 126960, Note_on_c, 14, 45, 76
12, 127184, Note_on_c, 14, 45, 0
12, 127200, Note_on_c, 14, 38, 76
12, 127424, Note_on_c, 14, 38, 0
12, 127440, Note_on_c, 14, 56, 76
12, 127544, Note_on_c, 14, 56, 0
12, 127560, Note_on_c, 14, 57, 76
12, 127664, Note_on_c, 14, 57, 0
12, 127680, Note_on_c, 14, 59, 76
12, 127904, Note_on_c, 14, 59, 0
12, 127920, Note_on_c, 14, 59, 76
12, 128024, Note_on_c, 14, 59, 0
12, 128040, Note_on_c, 14, 60, 76
12, 128144, Note_on_c, 14, 60, 0
12, 128160, Note_on_c, 14, 62, 76
12, 128399, Note_on_c, 14, 62, 0
12, 129360, Note_on_c, 14, 50, 76
12, 129584, Note_on_c, 14, 50, 0
12, 129600, Note_on_c, 14, 48, 76
12, 129704, Note_on_c, 14, 48, 0
12, 129720, Note_on_c, 14, 47, 76
12, 129824, Note_on_c, 14, 47, 0
12, 129840, Note_on_c, 14, 48, 76
12, 129944, Note_on_c, 14, 48, 0
12, 129960, Note_on_c, 14, 50, 76
12, 130064, Note_on_c, 14, 50, 0
12, 130080, Note_on_c, 14, 52, 76
12, 130304, Note_on_c, 14, 52, 0
12, 130320, Note_on_c, 14, 40, 76
12, 130544, Note_on_c, 14, 40, 0
12, 130560, Note_on_c, 14, 45, 76
12, 130784, Note_on_c, 14, 45, 0
12, 130800, Note_on_c, 14, 52, 76
12, 131024, Note_on_c, 14, 52, 0
12, 131040, Note_on_c, 14, 57, 76
12, 131279, Note_on_c, 14, 57, 0
12, 131760, Note_on_c, 14, 48, 76
12, 131864, Note_on_c, 14, 48, 0
12, 131880, Note_on_c, 14, 50, 76
12, 131984, Note_on_c, 14, 50, 0
12, 132000, Note_on_c, 14, 52, 76
12, 132224, Note_on_c, 14, 52, 0
12, 132240, Note_on_c, 14, 52, 76
12, 132344, Note_on_c, 14, 52, 0
12, 132360, Note_on_c, 14, 53, 76
12, 132464, Note_on_c, 14, 53, 0
12, 132480, Note_on_c, 14, 55, 76
12, 132704, Note_on_c, 14, 55, 0
12, 132720, Note_on_c, 14, 55, 76
12, 132824, Note_on_c, 14, 55, 0
12, 132840, Note_on_c, 14, 57, 76
12, 132944, Note_on_c, 14, 57, 0
12, 132960, Note_on_c, 14, 58, 76
12, 133184, Note_on_c, 14, 58, 0
12, 133200, Note_on_c, 14, 52, 76
12, 133424, Note_on_c, 14, 52, 0
12, 133440, Note_on_c, 14, 53, 76
12, 133664, Note_on_c, 14, 53, 0
12, 133680, Note_on_c, 14, 46, 76
12, 133904, Note_on_c, 14, 46, 0
12, 133920, Note_on_c, 14, 43, 76
12, 134144, Note_on_c, 14, 43, 0
12, 134160, Note_on_c, 14, 48, 76
12, 134384, Note_on_c, 14, 48, 0
12, 134400, Note_on_c, 14, 41, 76
12, 134624, Note_on_c, 14, 41, 0
12, 134640, Note_on_c, 14, 53, 76
12, 134744, Note_on_c, 14, 53, 0
12, 134760, Note_on_c, 14, 55, 76
12, 134864, Note_on_c, 14, 55, 0
12, 134880, Note_on_c, 14, 57, 76
12, 134984, Note_on_c, 14, 57, 0
12, 135000, Note_on_c, 14, 58, 76
12, 135104, Note_on_c, 14, 58, 0
12, 135120, Note_on_c, 14, 57, 76
12, 135224, Note_on_c, 14, 57, 0
12, 135240, Note_on_c, 14, 55, 76
12, 135344, Note_on_c, 14, 55, 0
12, 135360, Note_on_c, 14, 53, 76
12, 135464, Note_on_c, 14, 53, 0
12, 135480, Note_on_c, 14, 55, 76
12, 135584, Note_on_c, 14, 55, 0
12, 135600, Note_on_c, 14, 53, 76
12, 135704, Note_on_c, 14, 53, 0
12, 135720, Note_on_c, 14, 52, 76
12, 135824, Note_on_c, 14, 52, 0
12, 135840, Note_on_c, 14, 50, 76
12, 135944, Note_on_c, 14, 50, 0
12, 135960, Note_on_c, 14, 52, 76
12, 136064, Note_on_c, 14, 52, 0
12, 136080, Note_on_c, 14, 50, 76
12, 136184, Note_on_c, 14, 50, 0
12, 136200, Note_on_c, 14, 48, 76
12, 136304, Note_on_c, 14, 48, 0
12, 136320, Note_on_c, 14, 47, 76
12, 136424, Note_on_c, 14, 47, 0
12, 136440, Note_on_c, 14, 48, 76
12, 136544, Note_on_c, 14, 48, 0
12, 136560, Note_on_c, 14, 47, 76
12, 136664, Note_on_c, 14, 47, 0
12, 136680, Note_on_c, 14, 45, 76
12, 136784, Note_on_c, 14, 45, 0
12, 136800, Note_on_c, 14, 43, 76
12, 136904, Note_on_c, 14, 43, 0
12, 136920, Note_on_c, 14, 45, 76
12, 137024, Note_on_c, 14, 45, 0
12, 137040, Note_on_c, 14, 43, 76
12, 137144, Note_on_c, 14, 43, 0
12, 137160, Note_on_c, 14, 41, 76
12, 137264, Note_on_c, 14, 41, 0
12, 137280, Note_on_c, 14, 40, 76
12, 137504, Note_on_c, 14, 40, 0
12, 137520, Note_on_c, 14, 41, 76
12, 137744, Note_on_c, 14, 41, 0
12, 137760, Note_on_c, 14, 43, 76
12, 137984, Note_on_c, 14, 43, 0
12, 138000, Note_on_c, 14, 43, 76
12, 138224, Note_on_c, 14, 43, 0
12, 138240, Note_on_c, 14, 36, 76
12, 138959, Note_on_c, 14, 36, 0
12, 138959, End_track
13, 0, Start_track
13, 0, Title_t, "Harpsichord "
13, 0, MIDI_port, 0
13, 0, Control_c, 15, 10, 64
13, 0, Control_c, 15, 11, 127
13, 0, Control_c, 15, 7, 72
13, 0, Program_c, 15, 6
13, 720, Note_on_c, 15, 60, 76
13, 720, Note_on_c, 15, 48, 76
13, 720, Note_on_c, 15, 64, 76
13, 720, Note_on_c, 15, 67, 76
13, 839, Note_on_c, 15, 60, 0
13, 839, Note_on_c, 15, 48, 0
13, 839, Note_on_c, 15, 64, 0
13, 839, Note_on_c, 15, 67, 0
13, 840, Note_on_c, 15, 69, 76
13, 840, Note_on_c, 15, 65, 76
13, 840, Note_on_c, 15, 62, 76
13, 840, Note_on_c, 15, 50, 76
13, 959, Note_on_c, 15, 69, 0
13, 959, Note_on_c, 15, 65, 0
13, 959, Note_on_c, 15, 62, 0
13, 959, Note_on_c, 15, 50, 0
13, 960, Note_on_c, 15, 67, 76
13, 960, Note_on_c, 15, 64, 76
13, 960, Note_on_c, 15, 52, 76
13, 960, Note_on_c, 15, 72, 76
13, 1199, Note_on_c, 15, 67, 0
13, 1199, Note_on_c, 15, 64, 0
13, 1199, Note_on_c, 15, 52, 0
13, 1199, Note_on_c, 15, 72, 0
13, 1200, Note_on_c, 15, 55, 76
13, 1200, Note_on_c, 15, 71, 76
13, 1200, Note_on_c, 15, 74, 76
13, 1200, Note_on_c, 15, 67, 76
13, 1439, Note_on_c, 15, 55, 0
13, 1439, Note_on_c, 15, 71, 0
13, 1439, Note_on_c, 15, 74, 0
13, 1439, Note_on_c, 15, 67, 0
13, 1440, Note_on_c, 15, 79, 76
13, 1440, Note_on_c, 15, 76, 76
13, 1440, Note_on_c, 15, 72, 76
13, 1440, Note_on_c, 15, 60, 76
13, 1679, Note_on_c, 15, 79, 0
13, 1679, Note_on_c, 15, 76, 0
13, 1679, Note_on_c, 15, 72, 0
13, 1679, Note_on_c, 15, 60, 0
13, 1680, Note_on_c, 15, 67, 76
13, 1680, Note_on_c, 15, 71, 76
13, 1680, Note_on_c, 15, 55, 76
13, 1680, Note_on_c, 15, 74, 76
13, 1919, Note_on_c, 15, 67, 0
13, 1919, Note_on_c, 15, 71, 0
13, 1919, Note_on_c, 15, 55, 0
13, 1919, Note_on_c, 15, 74, 0
13, 1920, Note_on_c, 15, 64, 76
13, 1920, Note_on_c, 15, 48, 76
13, 1920, Note_on_c, 15, 60, 76
13, 1920, Note_on_c, 15, 67, 76
13, 2159, Note_on_c, 15, 64, 0
13, 2159, Note_on_c, 15, 48, 0
13, 2159, Note_on_c, 15, 60, 0
13, 2159, Note_on_c, 15, 67, 0
13, 2160, Note_on_c, 15, 65, 76
13, 2160, Note_on_c, 15, 53, 76
13, 2160, Note_on_c, 15, 72, 76
13, 2160, Note_on_c, 15, 69, 76
13, 2399, Note_on_c, 15, 65, 0
13, 2399, Note_on_c, 15, 53, 0
13, 2399, Note_on_c, 15, 72, 0
13, 2399, Note_on_c, 15, 69, 0
13, 2400, Note_on_c, 15, 67, 76
13, 2400, Note_on_c, 15, 64, 76
13, 2400, Note_on_c, 15, 52, 76
13, 2400, Note_on_c, 15, 72, 76
13, 2639, Note_on_c, 15, 67, 0
13, 2639, Note_on_c, 15, 64, 0
13, 2639, Note_on_c, 15, 52, 0
13, 2639, Note_on_c, 15, 72, 0
13, 2640, Note_on_c, 15, 62, 76
13, 2640, Note_on_c, 15, 69, 76
13, 2640, Note_on_c, 15, 50, 76
13, 2640, Note_on_c, 15, 65, 76
13, 2879, Note_on_c, 15, 62, 0
13, 2879, Note_on_c, 15, 69, 0
13, 2879, Note_on_c, 15, 50, 0
13, 2879, Note_on_c, 15, 65, 0
13, 2880, Note_on_c, 15, 64, 76
13, 2880, Note_on_c, 15, 67, 76
13, 2880, Note_on_c, 15, 52, 76
13, 2880, Note_on_c, 15, 72, 76
13, 3119, Note_on_c, 15, 64, 0
13, 3119, Note_on_c, 15, 67, 0
13, 3119, Note_on_c, 15, 52, 0
13, 3119, Note_on_c, 15, 72, 0
13, 3120, Note_on_c, 15, 72, 76
13, 3120, Note_on_c, 15, 53, 76
13, 3120, Note_on_c, 15, 69, 76
13, 3120, Note_on_c, 15, 65, 76
13, 3359, Note_on_c, 15, 72, 0
13, 3359, Note_on_c, 15, 53, 0
13, 3359, Note_on_c, 15, 69, 0
13, 3359, Note_on_c, 15, 65, 0
13, 3360, Note_on_c, 15, 71, 76
13, 3360, Note_on_c, 15, 74, 76
13, 3360, Note_on_c, 15, 55, 76
13, 3360, Note_on_c, 15, 67, 76
13, 3599, Note_on_c, 15, 71, 0
13, 3599, Note_on_c, 15, 74, 0
13, 3599, Note_on_c, 15, 55, 0
13, 3599, Note_on_c, 15, 67, 0
13, 3600, Note_on_c, 15, 76, 76
13, 3600, Note_on_c, 15, 69, 76
13, 3600, Note_on_c, 15, 72, 76
13, 3600, Note_on_c, 15, 57, 76
13, 3839, Note_on_c, 15, 76, 0
13, 3839, Note_on_c, 15, 69, 0
13, 3839, Note_on_c, 15, 72, 0
13, 3839, Note_on_c, 15, 57, 0
13, 3840, Note_on_c, 15, 79, 76
13, 3840, Note_on_c, 15, 71, 76
13, 3840, Note_on_c, 15, 59, 76
13, 3840, Note_on_c, 15, 74, 76
13, 4079, Note_on_c, 15, 79, 0
13, 4079, Note_on_c, 15, 71, 0
13, 4079, Note_on_c, 15, 59, 0
13, 4079, Note_on_c, 15, 74, 0
13, 4080, Note_on_c, 15, 76, 76
13, 4080, Note_on_c, 15, 60, 76
13, 4080, Note_on_c, 15, 79, 76
13, 4080, Note_on_c, 15, 72, 76
13, 4319, Note_on_c, 15, 76, 0
13, 4319, Note_on_c, 15, 60, 0
13, 4319, Note_on_c, 15, 79, 0
13, 4319, Note_on_c, 15, 72, 0
13, 4320, Note_on_c, 15, 79, 76
13, 4320, Note_on_c, 15, 74, 76
13, 4320, Note_on_c, 15, 71, 76
13, 4320, Note_on_c, 15, 59, 76
13, 4559, Note_on_c, 15, 79, 0
13, 4559, Note_on_c, 15, 74, 0
13, 4559, Note_on_c, 15, 71, 0
13, 4559, Note_on_c, 15, 59, 0
13, 4560, Note_on_c, 15, 57, 76
13, 4560, Note_on_c, 15, 72, 76
13, 4560, Note_on_c, 15, 76, 76
13, 4560, Note_on_c, 15, 69, 76
13, 4799, Note_on_c, 15, 57, 0
13, 4799, Note_on_c, 15, 72, 0
13, 4799, Note_on_c, 15, 76, 0
13, 4799, Note_on_c, 15, 69, 0
13, 4800, Note_on_c, 15, 74, 76
13, 4800, Note_on_c, 15, 67, 76
13, 4800, Note_on_c, 15, 55, 76
13, 4800, Note_on_c, 15, 71, 76
13, 5039, Note_on_c, 15, 74, 0
13, 5039, Note_on_c, 15, 67, 0
13, 5039, Note_on_c, 15, 55, 0
13, 5039, Note_on_c, 15, 71, 0
13, 5040, Note_on_c, 15, 66, 76
13, 5040, Note_on_c, 15, 72, 76
13, 5040, Note_on_c, 15, 69, 76
13, 5040, Note_on_c, 15, 54, 76
13, 5279, Note_on_c, 15, 66, 0
13, 5279, Note_on_c, 15, 72, 0
13, 5279, Note_on_c, 15, 69, 0
13, 5279, Note_on_c, 15, 54, 0
13, 5280, Note_on_c, 15, 64, 76
13, 5280, Note_on_c, 15, 67, 76
13, 5280, Note_on_c, 15, 52, 76
13, 5280, Note_on_c, 15, 71, 76
13, 5519, Note_on_c, 15, 64, 0
13, 5519, Note_on_c, 15, 67, 0
13, 5519, Note_on_c, 15, 52, 0
13, 5519, Note_on_c, 15, 71, 0
13, 5520, Note_on_c, 15, 50, 76
13, 5520, Note_on_c, 15, 62, 76
13, 5520, Note_on_c, 15, 65, 76
13, 5520, Note_on_c, 15, 69, 76
13, 5759, Note_on_c, 15, 50, 0
13, 5759, Note_on_c, 15, 62, 0
13, 5759, Note_on_c, 15, 65, 0
13, 5759, Note_on_c, 15, 69, 0
13, 5760, Note_on_c, 15, 64, 76
13, 5760, Note_on_c, 15, 67, 76
13, 5760, Note_on_c, 15, 52, 76
13, 5760, Note_on_c, 15, 71, 76
13, 5999, Note_on_c, 15, 64, 0
13, 5999, Note_on_c, 15, 67, 0
13, 5999, Note_on_c, 15, 52, 0
13, 5999, Note_on_c, 15, 71, 0
13, 6000, Note_on_c, 15, 69, 76
13, 6000, Note_on_c, 15, 66, 76
13, 6000, Note_on_c, 15, 74, 76
13, 6000, Note_on_c, 15, 54, 76
13, 6239, Note_on_c, 15, 69, 0
13, 6239, Note_on_c, 15, 66, 0
13, 6239, Note_on_c, 15, 74, 0
13, 6239, Note_on_c, 15, 54, 0
13, 6240, Note_on_c, 15, 67, 76
13, 6240, Note_on_c, 15, 71, 76
13, 6240, Note_on_c, 15, 55, 76
13, 6240, Note_on_c, 15, 74, 76
13, 6479, Note_on_c, 15, 67, 0
13, 6479, Note_on_c, 15, 71, 0
13, 6479, Note_on_c, 15, 55, 0
13, 6479, Note_on_c, 15, 74, 0
13, 6480, Note_on_c, 15, 64, 76
13, 6480, Note_on_c, 15, 67, 76
13, 6480, Note_on_c, 15, 48, 76
13, 6480, Note_on_c, 15, 60, 76
13, 6480, Note_on_c, 15, 69, 76
13, 6719, Note_on_c, 15, 64, 0
13, 6719, Note_on_c, 15, 67, 0
13, 6719, Note_on_c, 15, 48, 0
13, 6719, Note_on_c, 15, 60, 0
13, 6719, Note_on_c, 15, 69, 0
13, 6720, Note_on_c, 15, 62, 76
13, 6720, Note_on_c, 15, 69, 76
13, 6720, Note_on_c, 15, 50, 76
13, 6720, Note_on_c, 15, 67, 76
13, 6959, Note_on_c, 15, 62, 0
13, 6959, Note_on_c, 15, 69, 0
13, 6959, Note_on_c, 15, 50, 0
13, 6959, Note_on_c, 15, 67, 0
13, 6960, Note_on_c, 15, 38, 76
13, 6960, Note_on_c, 15, 50, 76
13, 6960, Note_on_c, 15, 54, 76
13, 6960, Note_on_c, 15, 57, 76
13, 7199, Note_on_c, 15, 38, 0
13, 7199, Note_on_c, 15, 50, 0
13, 7199, Note_on_c, 15, 54, 0
13, 7199, Note_on_c, 15, 57, 0
13, 7200, Note_on_c, 15, 62, 76
13, 7200, Note_on_c, 15, 55, 76
13, 7200, Note_on_c, 15, 43, 76
13, 7200, Note_on_c, 15, 59, 76
13, 7439, Note_on_c, 15, 62, 0
13, 7439, Note_on_c, 15, 55, 0
13, 7439, Note_on_c, 15, 43, 0
13, 7439, Note_on_c, 15, 59, 0
13, 7440, Note_on_c, 15, 62, 76
13, 7440, Note_on_c, 15, 69, 76
13, 7440, Note_on_c, 15, 65, 76
13, 7440, Note_on_c, 15, 50, 76
13, 7679, Note_on_c, 15, 62, 0
13, 7679, Note_on_c, 15, 69, 0
13, 7679, Note_on_c, 15, 65, 0
13, 7679, Note_on_c, 15, 50, 0
13, 7680, Note_on_c, 15, 71, 76
13, 7680, Note_on_c, 15, 55, 76
13, 7680, Note_on_c, 15, 67, 76
13, 7680, Note_on_c, 15, 74, 76
13, 7919, Note_on_c, 15, 71, 0
13, 7919, Note_on_c, 15, 55, 0
13, 7919, Note_on_c, 15, 67, 0
13, 7919, Note_on_c, 15, 74, 0
13, 8400, Note_on_c, 15, 60, 76
13, 8400, Note_on_c, 15, 64, 76
13, 8400, Note_on_c, 15, 48, 76
13, 8400, Note_on_c, 15, 67, 76
13, 8519, Note_on_c, 15, 60, 0
13, 8519, Note_on_c, 15, 64, 0
13, 8519, Note_on_c, 15, 48, 0
13, 8519, Note_on_c, 15, 67, 0
13, 8520, Note_on_c, 15, 50, 76
13, 8520, Note_on_c, 15, 62, 76
13, 8520, Note_on_c, 15, 65, 76
13, 8520, Note_on_c, 15, 69, 76
13, 8639, Note_on_c, 15, 50, 0
13, 8639, Note_on_c, 15, 62, 0
13, 8639, Note_on_c, 15, 65, 0
13, 8639, Note_on_c, 15, 69, 0
13, 8640, Note_on_c, 15, 52, 76
13, 8640, Note_on_c, 15, 67, 76
13, 8640, Note_on_c, 15, 72, 76
13, 8640, Note_on_c, 15, 64, 76
13, 8879, Note_on_c, 15, 52, 0
13, 8879, Note_on_c, 15, 67, 0
13, 8879, Note_on_c, 15, 72, 0
13, 8879, Note_on_c, 15, 64, 0
13, 8880, Note_on_c, 15, 67, 76
13, 8880, Note_on_c, 15, 71, 76
13, 8880, Note_on_c, 15, 55, 76
13, 8880, Note_on_c, 15, 74, 76
13, 9119, Note_on_c, 15, 67, 0
13, 9119, Note_on_c, 15, 71, 0
13, 9119, Note_on_c, 15, 55, 0
13, 9119, Note_on_c, 15, 74, 0
13, 9120, Note_on_c, 15, 79, 76
13, 9120, Note_on_c, 15, 72, 76
13, 9120, Note_on_c, 15, 76, 76
13, 9120, Note_on_c, 15, 60, 76
13, 9359, Note_on_c, 15, 79, 0
13, 9359, Note_on_c, 15, 72, 0
13, 9359, Note_on_c, 15, 76, 0
13, 9359, Note_on_c, 15, 60, 0
13, 9360, Note_on_c, 15, 71, 76
13, 9360, Note_on_c, 15, 74, 76
13, 9360, Note_on_c, 15, 55, 76
13, 9360, Note_on_c, 15, 67, 76
13, 9599, Note_on_c, 15, 71, 0
13, 9599, Note_on_c, 15, 74, 0
13, 9599, Note_on_c, 15, 55, 0
13, 9599, Note_on_c, 15, 67, 0
13, 9600, Note_on_c, 15, 48, 76
13, 9600, Note_on_c, 15, 64, 76
13, 9600, Note_on_c, 15, 67, 76
13, 9600, Note_on_c, 15, 60, 76
13, 9839, Note_on_c, 15, 48, 0
13, 9839, Note_on_c, 15, 64, 0
13, 9839, Note_on_c, 15, 67, 0
13, 9839, Note_on_c, 15, 60, 0
13, 9840, Note_on_c, 15, 65, 76
13, 9840, Note_on_c, 15, 72, 76
13, 9840, Note_on_c, 15, 53, 76
13, 9840, Note_on_c, 15, 69, 76
13, 10079, Note_on_c, 15, 65, 0
13, 10079, Note_on_c, 15, 72, 0
13, 10079, Note_on_c, 15, 53, 0
13, 10079, Note_on_c, 15, 69, 0
13, 10080, Note_on_c, 15, 67, 76
13, 10080, Note_on_c, 15, 52, 76
13, 10080, Note_on_c, 15, 72, 76
13, 10080, Note_on_c, 15, 64, 76
13, 10319, Note_on_c, 15, 67, 0
13, 10319, Note_on_c, 15, 52, 0
13, 10319, Note_on_c, 15, 72, 0
13, 10319, Note_on_c, 15, 64, 0
13, 10320, Note_on_c, 15, 62, 76
13, 10320, Note_on_c, 15, 65, 76
13, 10320, Note_on_c, 15, 50, 76
13, 10320, Note_on_c, 15, 69, 76
13, 10559, Note_on_c, 15, 62, 0
13, 10559, Note_on_c, 15, 65, 0
13, 10559, Note_on_c, 15, 50, 0
13, 10559, Note_on_c, 15, 69, 0
13, 10560, Note_on_c, 15, 64, 76
13, 10560, Note_on_c, 15, 67, 76
13, 10560, Note_on_c, 15, 52, 76
13, 10560, Note_on_c, 15, 72, 76
13, 10799, Note_on_c, 15, 64, 0
13, 10799, Note_on_c, 15, 67, 0
13, 10799, Note_on_c, 15, 52, 0
13, 10799, Note_on_c, 15, 72, 0
13, 10800, Note_on_c, 15, 65, 76
13, 10800, Note_on_c, 15, 69, 76
13, 10800, Note_on_c, 15, 72, 76
13, 10800, Note_on_c, 15, 53, 76
13, 11039, Note_on_c, 15, 65, 0
13, 11039, Note_on_c, 15, 69, 0
13, 11039, Note_on_c, 15, 72, 0
13, 11039, Note_on_c, 15, 53, 0
13, 11040, Note_on_c, 15, 67, 76
13, 11040, Note_on_c, 15, 55, 76
13, 11040, Note_on_c, 15, 74, 76
13, 11040, Note_on_c, 15, 71, 76
13, 11279, Note_on_c, 15, 67, 0
13, 11279, Note_on_c, 15, 55, 0
13, 11279, Note_on_c, 15, 74, 0
13, 11279, Note_on_c, 15, 71, 0
13, 11280, Note_on_c, 15, 69, 76
13, 11280, Note_on_c, 15, 72, 76
13, 11280, Note_on_c, 15, 76, 76
13, 11280, Note_on_c, 15, 57, 76
13, 11519, Note_on_c, 15, 69, 0
13, 11519, Note_on_c, 15, 72, 0
13, 11519, Note_on_c, 15, 76, 0
13, 11519, Note_on_c, 15, 57, 0
13, 11520, Note_on_c, 15, 74, 76
13, 11520, Note_on_c, 15, 59, 76
13, 11520, Note_on_c, 15, 79, 76
13, 11520, Note_on_c, 15, 71, 76
13, 11759, Note_on_c, 15, 74, 0
13, 11759, Note_on_c, 15, 59, 0
13, 11759, Note_on_c, 15, 79, 0
13, 11759, Note_on_c, 15, 71, 0
13, 11760, Note_on_c, 15, 72, 76
13, 11760, Note_on_c, 15, 76, 76
13, 11760, Note_on_c, 15, 60, 76
13, 11760, Note_on_c, 15, 79, 76
13, 11999, Note_on_c, 15, 72, 0
13, 11999, Note_on_c, 15, 76, 0
13, 11999, Note_on_c, 15, 60, 0
13, 11999, Note_on_c, 15, 79, 0
13, 12000, Note_on_c, 15, 59, 76
13, 12000, Note_on_c, 15, 71, 76
13, 12000, Note_on_c, 15, 74, 76
13, 12000, Note_on_c, 15, 79, 76
13, 12239, Note_on_c, 15, 59, 0
13, 12239, Note_on_c, 15, 71, 0
13, 12239, Note_on_c, 15, 74, 0
13, 12239, Note_on_c, 15, 79, 0
13, 12240, Note_on_c, 15, 57, 76
13, 12240, Note_on_c, 15, 76, 76
13, 12240, Note_on_c, 15, 69, 76
13, 12240, Note_on_c, 15, 72, 76
13, 12479, Note_on_c, 15, 57, 0
13, 12479, Note_on_c, 15, 76, 0
13, 12479, Note_on_c, 15, 69, 0
13, 12479, Note_on_c, 15, 72, 0
13, 12480, Note_on_c, 15, 55, 76
13, 12480, Note_on_c, 15, 67, 76
13, 12480, Note_on_c, 15, 71, 76
13, 12480, Note_on_c, 15, 74, 76
13, 12719, Note_on_c, 15, 55, 0
13, 12719, Note_on_c, 15, 67, 0
13, 12719, Note_on_c, 15, 71, 0
13, 12719, Note_on_c, 15, 74, 0
13, 12720, Note_on_c, 15, 54, 76
13, 12720, Note_on_c, 15, 72, 76
13, 12720, Note_on_c, 15, 66, 76
13, 12720, Note_on_c, 15, 69, 76
13, 12959, Note_on_c, 15, 54, 0
13, 12959, Note_on_c, 15, 72, 0
13, 12959, Note_on_c, 15, 66, 0
13, 12959, Note_on_c, 15, 69, 0
13, 12960, Note_on_c, 15, 71, 76
13, 12960, Note_on_c, 15, 64, 76
13, 12960, Note_on_c, 15, 52, 76
13, 12960, Note_on_c, 15, 67, 76
13, 13199, Note_on_c, 15, 71, 0
13, 13199, Note_on_c, 15, 64, 0
13, 13199, Note_on_c, 15, 52, 0
13, 13199, Note_on_c, 15, 67, 0
13, 13200, Note_on_c, 15, 69, 76
13, 13200, Note_on_c, 15, 65, 76
13, 13200, Note_on_c, 15, 50, 76
13, 13200, Note_on_c, 15, 62, 76
13, 13439, Note_on_c, 15, 69, 0
13, 13439, Note_on_c, 15, 65, 0
13, 13439, Note_on_c, 15, 50, 0
13, 13439, Note_on_c, 15, 62, 0
13, 13440, Note_on_c, 15, 52, 76
13, 13440, Note_on_c, 15, 64, 76
13, 13440, Note_on_c, 15, 67, 76
13, 13440, Note_on_c, 15, 71, 76
13, 13679, Note_on_c, 15, 52, 0
13, 13679, Note_on_c, 15, 64, 0
13, 13679, Note_on_c, 15, 67, 0
13, 13679, Note_on_c, 15, 71, 0
13, 13680, Note_on_c, 15, 66, 76
13, 13680, Note_on_c, 15, 69, 76
13, 13680, Note_on_c, 15, 74, 76
13, 13680, Note_on_c, 15, 54, 76
13, 13919, Note_on_c, 15, 66, 0
13, 13919, Note_on_c, 15, 69, 0
13, 13919, Note_on_c, 15, 74, 0
13, 13919, Note_on_c, 15, 54, 0
13, 13920, Note_on_c, 15, 74, 76
13, 13920, Note_on_c, 15, 55, 76
13, 13920, Note_on_c, 15, 71, 76
13, 13920, Note_on_c, 15, 67, 76
13, 14159, Note_on_c, 15, 74, 0
13, 14159, Note_on_c, 15, 55, 0
13, 14159, Note_on_c, 15, 71, 0
13, 14159, Note_on_c, 15, 67, 0
13, 14160, Note_on_c, 15, 48, 76
13, 14160, Note_on_c, 15, 69, 76
13, 14160, Note_on_c, 15, 64, 76
13, 14160, Note_on_c, 15, 60, 76
13, 14160, Note_on_c, 15, 67, 76
13, 14399, Note_on_c, 15, 48, 0
13, 14399, Note_on_c, 15, 69, 0
13, 14399, Note_on_c, 15, 64, 0
13, 14399, Note_on_c, 15, 60, 0
13, 14399, Note_on_c, 15, 67, 0
13, 14400, Note_on_c, 15, 50, 76
13, 14400, Note_on_c, 15, 67, 76
13, 14400, Note_on_c, 15, 62, 76
13, 14400, Note_on_c, 15, 69, 76
13, 14639, Note_on_c, 15, 50, 0
13, 14639, Note_on_c, 15, 67, 0
13, 14639, Note_on_c, 15, 62, 0
13, 14639, Note_on_c, 15, 69, 0
13, 14640, Note_on_c, 15, 50, 76
13, 14640, Note_on_c, 15, 38, 76
13, 14640, Note_on_c, 15, 57, 76
13, 14640, Note_on_c, 15, 54, 76
13, 14879, Note_on_c, 15, 50, 0
13, 14879, Note_on_c, 15, 38, 0
13, 14879, Note_on_c, 15, 57, 0
13, 14879, Note_on_c, 15, 54, 0
13, 14880, Note_on_c, 15, 62, 76
13, 14880, Note_on_c, 15, 55, 76
13, 14880, Note_on_c, 15, 59, 76
13, 14880, Note_on_c, 15, 43, 76
13, 15119, Note_on_c, 15, 62, 0
13, 15119, Note_on_c, 15, 55, 0
13, 15119, Note_on_c, 15, 59, 0
13, 15119, Note_on_c, 15, 43, 0
13, 15120, Note_on_c, 15, 62, 76
13, 15120, Note_on_c, 15, 69, 76
13, 15120, Note_on_c, 15, 65, 76
13, 15120, Note_on_c, 15, 50, 76
13, 15359, Note_on_c, 15, 62, 0
13, 15359, Note_on_c, 15, 69, 0
13, 15359, Note_on_c, 15, 65, 0
13, 15359, Note_on_c, 15, 50, 0
13, 15360, Note_on_c, 15, 71, 76
13, 15360, Note_on_c, 15, 67, 76
13, 15360, Note_on_c, 15, 74, 76
13, 15360, Note_on_c, 15, 55, 76
13, 15599, Note_on_c, 15, 71, 0
13, 15599, Note_on_c, 15, 67, 0
13, 15599, Note_on_c, 15, 74, 0
13, 15599, Note_on_c, 15, 55, 0
13, 16080, Note_on_c, 15, 74, 76
13, 16080, Note_on_c, 15, 67, 76
13, 16080, Note_on_c, 15, 71, 76
13, 16080, Note_on_c, 15, 55, 76
13, 16199, Note_on_c, 15, 74, 0
13, 16199, Note_on_c, 15, 67, 0
13, 16199, Note_on_c, 15, 71, 0
13, 16199, Note_on_c, 15, 55, 0
13, 16200, Note_on_c, 15, 69, 76
13, 16200, Note_on_c, 15, 53, 76
13, 16200, Note_on_c, 15, 65, 76
13, 16200, Note_on_c, 15, 72, 76
13, 16319, Note_on_c, 15, 69, 0
13, 16319, Note_on_c, 15, 53, 0
13, 16319, Note_on_c, 15, 65, 0
13, 16319, Note_on_c, 15, 72, 0
13, 16320, Note_on_c, 15, 67, 76
13, 16320, Note_on_c, 15, 71, 76
13, 16320, Note_on_c, 15, 52, 76
13, 16320, Note_on_c, 15, 64, 76
13, 16559, Note_on_c, 15, 67, 0
13, 16559, Note_on_c, 15, 71, 0
13, 16559, Note_on_c, 15, 52, 0
13, 16559, Note_on_c, 15, 64, 0
13, 16560, Note_on_c, 15, 70, 76
13, 16560, Note_on_c, 15, 74, 76
13, 16560, Note_on_c, 15, 55, 76
13, 16560, Note_on_c, 15, 67, 76
13, 16799, Note_on_c, 15, 70, 0
13, 16799, Note_on_c, 15, 74, 0
13, 16799, Note_on_c, 15, 55, 0
13, 16799, Note_on_c, 15, 67, 0
13, 16800, Note_on_c, 15, 57, 76
13, 16800, Note_on_c, 15, 73, 76
13, 16800, Note_on_c, 15, 69, 76
13, 16800, Note_on_c, 15, 76, 76
13, 17039, Note_on_c, 15, 57, 0
13, 17039, Note_on_c, 15, 73, 0
13, 17039, Note_on_c, 15, 69, 0
13, 17039, Note_on_c, 15, 76, 0
13, 17040, Note_on_c, 15, 57, 76
13, 17040, Note_on_c, 15, 64, 76
13, 17040, Note_on_c, 15, 61, 76
13, 17040, Note_on_c, 15, 45, 76
13, 17279, Note_on_c, 15, 57, 0
13, 17279, Note_on_c, 15, 64, 0
13, 17279, Note_on_c, 15, 61, 0
13, 17279, Note_on_c, 15, 45, 0
13, 17280, Note_on_c, 15, 69, 76
13, 17280, Note_on_c, 15, 73, 76
13, 17280, Note_on_c, 15, 76, 76
13, 17280, Note_on_c, 15, 57, 76
13, 17519, Note_on_c, 15, 69, 0
13, 17519, Note_on_c, 15, 73, 0
13, 17519, Note_on_c, 15, 76, 0
13, 17519, Note_on_c, 15, 57, 0
13, 17520, Note_on_c, 15, 74, 76
13, 17520, Note_on_c, 15, 55, 76
13, 17520, Note_on_c, 15, 67, 76
13, 17520, Note_on_c, 15, 71, 76
13, 17759, Note_on_c, 15, 74, 0
13, 17759, Note_on_c, 15, 55, 0
13, 17759, Note_on_c, 15, 67, 0
13, 17759, Note_on_c, 15, 71, 0
13, 17760, Note_on_c, 15, 53, 76
13, 17760, Note_on_c, 15, 65, 76
13, 17760, Note_on_c, 15, 69, 76
13, 17760, Note_on_c, 15, 74, 76
13, 17999, Note_on_c, 15, 53, 0
13, 17999, Note_on_c, 15, 65, 0
13, 17999, Note_on_c, 15, 69, 0
13, 17999, Note_on_c, 15, 74, 0
13, 18000, Note_on_c, 15, 76, 76
13, 18000, Note_on_c, 15, 67, 76
13, 18000, Note_on_c, 15, 71, 76
13, 18000, Note_on_c, 15, 55, 76
13, 18239, Note_on_c, 15, 76, 0
13, 18239, Note_on_c, 15, 67, 0
13, 18239, Note_on_c, 15, 71, 0
13, 18239, Note_on_c, 15, 55, 0
13, 18240, Note_on_c, 15, 57, 76
13, 18240, Note_on_c, 15, 76, 76
13, 18240, Note_on_c, 15, 73, 76
13, 18240, Note_on_c, 15, 69, 76
13, 18479, Note_on_c, 15, 57, 0
13, 18479, Note_on_c, 15, 76, 0
13, 18479, Note_on_c, 15, 73, 0
13, 18479, Note_on_c, 15, 69, 0
13, 18480, Note_on_c, 15, 57, 76
13, 18480, Note_on_c, 15, 45, 76
13, 18480, Note_on_c, 15, 64, 76
13, 18480, Note_on_c, 15, 61, 76
13, 18719, Note_on_c, 15, 57, 0
13, 18719, Note_on_c, 15, 45, 0
13, 18719, Note_on_c, 15, 64, 0
13, 18719, Note_on_c, 15, 61, 0
13, 18720, Note_on_c, 15, 50, 76
13, 18720, Note_on_c, 15, 65, 76
13, 18720, Note_on_c, 15, 62, 76
13, 18720, Note_on_c, 15, 69, 76
13, 18959, Note_on_c, 15, 50, 0
13, 18959, Note_on_c, 15, 65, 0
13, 18959, Note_on_c, 15, 62, 0
13, 18959, Note_on_c, 15, 69, 0
13, 18960, Note_on_c, 15, 45, 76
13, 18960, Note_on_c, 15, 60, 76
13, 18960, Note_on_c, 15, 57, 76
13, 18960, Note_on_c, 15, 64, 76
13, 19199, Note_on_c, 15, 45, 0
13, 19199, Note_on_c, 15, 60, 0
13, 19199, Note_on_c, 15, 57, 0
13, 19199, Note_on_c, 15, 64, 0
13, 19200, Note_on_c, 15, 57, 76
13, 19200, Note_on_c, 15, 53, 76
13, 19200, Note_on_c, 15, 50, 76
13, 19200, Note_on_c, 15, 38, 76
13, 19439, Note_on_c, 15, 57, 0
13, 19439, Note_on_c, 15, 53, 0
13, 19439, Note_on_c, 15, 50, 0
13, 19439, Note_on_c, 15, 38, 0
13, 19440, Note_on_c, 15, 56, 76
13, 19440, Note_on_c, 15, 71, 76
13, 19440, Note_on_c, 15, 68, 76
13, 19440, Note_on_c, 15, 74, 76
13, 19559, Note_on_c, 15, 56, 0
13, 19559, Note_on_c, 15, 71, 0
13, 19559, Note_on_c, 15, 68, 0
13, 19559, Note_on_c, 15, 74, 0
13, 19560, Note_on_c, 15, 72, 76
13, 19560, Note_on_c, 15, 76, 76
13, 19560, Note_on_c, 15, 69, 76
13, 19560, Note_on_c, 15, 57, 76
13, 19679, Note_on_c, 15, 72, 0
13, 19679, Note_on_c, 15, 76, 0
13, 19679, Note_on_c, 15, 69, 0
13, 19679, Note_on_c, 15, 57, 0
13, 19680, Note_on_c, 15, 71, 76
13, 19680, Note_on_c, 15, 79, 76
13, 19680, Note_on_c, 15, 74, 76
13, 19680, Note_on_c, 15, 59, 76
13, 19919, Note_on_c, 15, 71, 0
13, 19919, Note_on_c, 15, 79, 0
13, 19919, Note_on_c, 15, 74, 0
13, 19919, Note_on_c, 15, 59, 0
13, 19920, Note_on_c, 15, 59, 76
13, 19920, Note_on_c, 15, 74, 76
13, 19920, Note_on_c, 15, 80, 76
13, 19920, Note_on_c, 15, 71, 76
13, 20039, Note_on_c, 15, 59, 0
13, 20039, Note_on_c, 15, 74, 0
13, 20039, Note_on_c, 15, 80, 0
13, 20039, Note_on_c, 15, 71, 0
13, 20040, Note_on_c, 15, 72, 76
13, 20040, Note_on_c, 15, 60, 76
13, 20040, Note_on_c, 15, 76, 76
13, 20040, Note_on_c, 15, 80, 76
13, 20159, Note_on_c, 15, 72, 0
13, 20159, Note_on_c, 15, 60, 0
13, 20159, Note_on_c, 15, 76, 0
13, 20159, Note_on_c, 15, 80, 0
13, 20160, Note_on_c, 15, 77, 76
13, 20160, Note_on_c, 15, 74, 76
13, 20160, Note_on_c, 15, 62, 76
13, 20160, Note_on_c, 15, 80, 76
13, 20399, Note_on_c, 15, 77, 0
13, 20399, Note_on_c, 15, 74, 0
13, 20399, Note_on_c, 15, 62, 0
13, 20399, Note_on_c, 15, 80, 0
13, 21360, Note_on_c, 15, 71, 76
13, 21360, Note_on_c, 15, 68, 76
13, 21360, Note_on_c, 15, 62, 76
13, 21360, Note_on_c, 15, 50, 76
13, 21360, Note_on_c, 15, 64, 76
13, 21599, Note_on_c, 15, 71, 0
13, 21599, Note_on_c, 15, 68, 0
13, 21599, Note_on_c, 15, 62, 0
13, 21599, Note_on_c, 15, 50, 0
13, 21599, Note_on_c, 15, 64, 0
13, 21600, Note_on_c, 15, 69, 76
13, 21600, Note_on_c, 15, 60, 76
13, 21600, Note_on_c, 15, 48, 76
13, 21600, Note_on_c, 15, 64, 76
13, 21719, Note_on_c, 15, 69, 0
13, 21719, Note_on_c, 15, 60, 0
13, 21719, Note_on_c, 15, 48, 0
13, 21719, Note_on_c, 15, 64, 0
13, 21720, Note_on_c, 15, 62, 76
13, 21720, Note_on_c, 15, 47, 76
13, 21720, Note_on_c, 15, 59, 76
13, 21720, Note_on_c, 15, 65, 76
13, 21839, Note_on_c, 15, 62, 0
13, 21839, Note_on_c, 15, 47, 0
13, 21839, Note_on_c, 15, 59, 0
13, 21839, Note_on_c, 15, 65, 0
13, 21840, Note_on_c, 15, 64, 76
13, 21840, Note_on_c, 15, 48, 76
13, 21840, Note_on_c, 15, 69, 76
13, 21840, Note_on_c, 15, 60, 76
13, 21959, Note_on_c, 15, 64, 0
13, 21959, Note_on_c, 15, 48, 0
13, 21959, Note_on_c, 15, 69, 0
13, 21959, Note_on_c, 15, 60, 0
13, 21960, Note_on_c, 15, 69, 76
13, 21960, Note_on_c, 15, 62, 76
13, 21960, Note_on_c, 15, 50, 76
13, 21960, Note_on_c, 15, 65, 76
13, 22079, Note_on_c, 15, 69, 0
13, 22079, Note_on_c, 15, 62, 0
13, 22079, Note_on_c, 15, 50, 0
13, 22079, Note_on_c, 15, 65, 0
13, 22080, Note_on_c, 15, 64, 76
13, 22080, Note_on_c, 15, 68, 76
13, 22080, Note_on_c, 15, 71, 76
13, 22080, Note_on_c, 15, 52, 76
13, 22319, Note_on_c, 15, 64, 0
13, 22319, Note_on_c, 15, 68, 0
13, 22319, Note_on_c, 15, 71, 0
13, 22319, Note_on_c, 15, 52, 0
13, 22320, Note_on_c, 15, 56, 76
13, 22320, Note_on_c, 15, 52, 76
13, 22320, Note_on_c, 15, 59, 76
13, 22320, Note_on_c, 15, 40, 76
13, 22559, Note_on_c, 15, 56, 0
13, 22559, Note_on_c, 15, 52, 0
13, 22559, Note_on_c, 15, 59, 0
13, 22559, Note_on_c, 15, 40, 0
13, 22560, Note_on_c, 15, 57, 76
13, 22560, Note_on_c, 15, 60, 76
13, 22560, Note_on_c, 15, 45, 76
13, 22560, Note_on_c, 15, 64, 76
13, 22799, Note_on_c, 15, 57, 0
13, 22799, Note_on_c, 15, 60, 0
13, 22799, Note_on_c, 15, 45, 0
13, 22799, Note_on_c, 15, 64, 0
13, 22800, Note_on_c, 15, 71, 76
13, 22800, Note_on_c, 15, 67, 76
13, 22800, Note_on_c, 15, 52, 76
13, 22800, Note_on_c, 15, 64, 76
13, 23039, Note_on_c, 15, 71, 0
13, 23039, Note_on_c, 15, 67, 0
13, 23039, Note_on_c, 15, 52, 0
13, 23039, Note_on_c, 15, 64, 0
13, 23040, Note_on_c, 15, 57, 76
13, 23040, Note_on_c, 15, 76, 76
13, 23040, Note_on_c, 15, 69, 76
13, 23040, Note_on_c, 15, 72, 76
13, 23279, Note_on_c, 15, 57, 0
13, 23279, Note_on_c, 15, 76, 0
13, 23279, Note_on_c, 15, 69, 0
13, 23279, Note_on_c, 15, 72, 0
13, 23760, Note_on_c, 15, 60, 76
13, 23760, Note_on_c, 15, 48, 76
13, 23760, Note_on_c, 15, 67, 76
13, 23760, Note_on_c, 15, 64, 76
13, 23879, Note_on_c, 15, 60, 0
13, 23879, Note_on_c, 15, 48, 0
13, 23879, Note_on_c, 15, 67, 0
13, 23879, Note_on_c, 15, 64, 0
13, 23880, Note_on_c, 15, 50, 76
13, 23880, Note_on_c, 15, 62, 76
13, 23880, Note_on_c, 15, 69, 76
13, 23880, Note_on_c, 15, 65, 76
13, 23999, Note_on_c, 15, 50, 0
13, 23999, Note_on_c, 15, 62, 0
13, 23999, Note_on_c, 15, 69, 0
13, 23999, Note_on_c, 15, 65, 0
13, 24000, Note_on_c, 15, 67, 76
13, 24000, Note_on_c, 15, 64, 76
13, 24000, Note_on_c, 15, 72, 76
13, 24000, Note_on_c, 15, 52, 76
13, 24239, Note_on_c, 15, 67, 0
13, 24239, Note_on_c, 15, 64, 0
13, 24239, Note_on_c, 15, 72, 0
13, 24239, Note_on_c, 15, 52, 0
13, 24240, Note_on_c, 15, 64, 76
13, 24240, Note_on_c, 15, 72, 76
13, 24240, Note_on_c, 15, 67, 76
13, 24240, Note_on_c, 15, 52, 76
13, 24359, Note_on_c, 15, 64, 0
13, 24359, Note_on_c, 15, 72, 0
13, 24359, Note_on_c, 15, 67, 0
13, 24359, Note_on_c, 15, 52, 0
13, 24360, Note_on_c, 15, 72, 76
13, 24360, Note_on_c, 15, 65, 76
13, 24360, Note_on_c, 15, 53, 76
13, 24360, Note_on_c, 15, 69, 76
13, 24479, Note_on_c, 15, 72, 0
13, 24479, Note_on_c, 15, 65, 0
13, 24479, Note_on_c, 15, 53, 0
13, 24479, Note_on_c, 15, 69, 0
13, 24480, Note_on_c, 15, 67, 76
13, 24480, Note_on_c, 15, 70, 76
13, 24480, Note_on_c, 15, 55, 76
13, 24480, Note_on_c, 15, 76, 76
13, 24719, Note_on_c, 15, 67, 0
13, 24719, Note_on_c, 15, 70, 0
13, 24719, Note_on_c, 15, 55, 0
13, 24719, Note_on_c, 15, 76, 0
13, 24720, Note_on_c, 15, 70, 76
13, 24720, Note_on_c, 15, 67, 76
13, 24720, Note_on_c, 15, 76, 76
13, 24720, Note_on_c, 15, 55, 76
13, 24839, Note_on_c, 15, 70, 0
13, 24839, Note_on_c, 15, 67, 0
13, 24839, Note_on_c, 15, 76, 0
13, 24839, Note_on_c, 15, 55, 0
13, 24840, Note_on_c, 15, 57, 76
13, 24840, Note_on_c, 15, 72, 76
13, 24840, Note_on_c, 15, 76, 76
13, 24840, Note_on_c, 15, 69, 76
13, 24959, Note_on_c, 15, 57, 0
13, 24959, Note_on_c, 15, 72, 0
13, 24959, Note_on_c, 15, 76, 0
13, 24959, Note_on_c, 15, 69, 0
13, 24960, Note_on_c, 15, 58, 76
13, 24960, Note_on_c, 15, 70, 76
13, 24960, Note_on_c, 15, 74, 76
13, 24960, Note_on_c, 15, 77, 76
13, 25199, Note_on_c, 15, 58, 0
13, 25199, Note_on_c, 15, 70, 0
13, 25199, Note_on_c, 15, 74, 0
13, 25199, Note_on_c, 15, 77, 0
13, 25200, Note_on_c, 15, 70, 76
13, 25200, Note_on_c, 15, 67, 76
13, 25200, Note_on_c, 15, 52, 76
13, 25200, Note_on_c, 15, 72, 76
13, 25200, Note_on_c, 15, 64, 76
13, 25439, Note_on_c, 15, 70, 0
13, 25439, Note_on_c, 15, 67, 0
13, 25439, Note_on_c, 15, 52, 0
13, 25439, Note_on_c, 15, 72, 0
13, 25439, Note_on_c, 15, 64, 0
13, 25440, Note_on_c, 15, 72, 76
13, 25440, Note_on_c, 15, 69, 76
13, 25440, Note_on_c, 15, 65, 76
13, 25440, Note_on_c, 15, 53, 76
13, 25679, Note_on_c, 15, 72, 0
13, 25679, Note_on_c, 15, 69, 0
13, 25679, Note_on_c, 15, 65, 0
13, 25679, Note_on_c, 15, 53, 0
13, 25680, Note_on_c, 15, 62, 76
13, 25680, Note_on_c, 15, 65, 76
13, 25680, Note_on_c, 15, 46, 76
13, 25680, Note_on_c, 15, 58, 76
13, 25919, Note_on_c, 15, 62, 0
13, 25919, Note_on_c, 15, 65, 0
13, 25919, Note_on_c, 15, 46, 0
13, 25919, Note_on_c, 15, 58, 0
13, 25920, Note_on_c, 15, 55, 76
13, 25920, Note_on_c, 15, 62, 76
13, 25920, Note_on_c, 15, 65, 76
13, 25920, Note_on_c, 15, 43, 76
13, 25920, Note_on_c, 15, 58, 76
13, 26159, Note_on_c, 15, 55, 0
13, 26159, Note_on_c, 15, 62, 0
13, 26159, Note_on_c, 15, 65, 0
13, 26159, Note_on_c, 15, 43, 0
13, 26159, Note_on_c, 15, 58, 0
13, 26160, Note_on_c, 15, 60, 76
13, 26160, Note_on_c, 15, 70, 76
13, 26160, Note_on_c, 15, 48, 76
13, 26160, Note_on_c, 15, 64, 76
13, 26160, Note_on_c, 15, 67, 76
13, 26399, Note_on_c, 15, 60, 0
13, 26399, Note_on_c, 15, 70, 0
13, 26399, Note_on_c, 15, 48, 0
13, 26399, Note_on_c, 15, 64, 0
13, 26399, Note_on_c, 15, 67, 0
13, 26400, Note_on_c, 15, 57, 76
13, 26400, Note_on_c, 15, 41, 76
13, 26400, Note_on_c, 15, 60, 76
13, 26400, Note_on_c, 15, 53, 76
13, 26639, Note_on_c, 15, 57, 0
13, 26639, Note_on_c, 15, 41, 0
13, 26639, Note_on_c, 15, 60, 0
13, 26639, Note_on_c, 15, 53, 0
13, 26640, Note_on_c, 15, 72, 76
13, 26640, Note_on_c, 15, 69, 76
13, 26640, Note_on_c, 15, 65, 76
13, 26640, Note_on_c, 15, 53, 76
13, 26759, Note_on_c, 15, 72, 0
13, 26759, Note_on_c, 15, 69, 0
13, 26759, Note_on_c, 15, 65, 0
13, 26759, Note_on_c, 15, 53, 0
13, 26760, Note_on_c, 15, 71, 76
13, 26760, Note_on_c, 15, 67, 76
13, 26760, Note_on_c, 15, 74, 76
13, 26760, Note_on_c, 15, 55, 76
13, 26879, Note_on_c, 15, 71, 0
13, 26879, Note_on_c, 15, 67, 0
13, 26879, Note_on_c, 15, 74, 0
13, 26879, Note_on_c, 15, 55, 0
13, 26880, Note_on_c, 15, 57, 76
13, 26880, Note_on_c, 15, 77, 76
13, 26880, Note_on_c, 15, 69, 76
13, 26880, Note_on_c, 15, 72, 76
13, 26999, Note_on_c, 15, 57, 0
13, 26999, Note_on_c, 15, 77, 0
13, 26999, Note_on_c, 15, 69, 0
13, 26999, Note_on_c, 15, 72, 0
13, 27000, Note_on_c, 15, 70, 76
13, 27000, Note_on_c, 15, 58, 76
13, 27000, Note_on_c, 15, 77, 76
13, 27000, Note_on_c, 15, 74, 76
13, 27119, Note_on_c, 15, 70, 0
13, 27119, Note_on_c, 15, 58, 0
13, 27119, Note_on_c, 15, 77, 0
13, 27119, Note_on_c, 15, 74, 0
13, 27120, Note_on_c, 15, 72, 76
13, 27120, Note_on_c, 15, 69, 76
13, 27120, Note_on_c, 15, 57, 76
13, 27120, Note_on_c, 15, 77, 76
13, 27239, Note_on_c, 15, 72, 0
13, 27239, Note_on_c, 15, 69, 0
13, 27239, Note_on_c, 15, 57, 0
13, 27239, Note_on_c, 15, 77, 0
13, 27240, Note_on_c, 15, 74, 76
13, 27240, Note_on_c, 15, 55, 76
13, 27240, Note_on_c, 15, 67, 76
13, 27240, Note_on_c, 15, 70, 76
13, 27359, Note_on_c, 15, 74, 0
13, 27359, Note_on_c, 15, 55, 0
13, 27359, Note_on_c, 15, 67, 0
13, 27359, Note_on_c, 15, 70, 0
13, 27360, Note_on_c, 15, 72, 76
13, 27360, Note_on_c, 15, 65, 76
13, 27360, Note_on_c, 15, 53, 76
13, 27360, Note_on_c, 15, 69, 76
13, 27479, Note_on_c, 15, 72, 0
13, 27479, Note_on_c, 15, 65, 0
13, 27479, Note_on_c, 15, 53, 0
13, 27479, Note_on_c, 15, 69, 0
13, 27480, Note_on_c, 15, 55, 76
13, 27480, Note_on_c, 15, 74, 76
13, 27480, Note_on_c, 15, 71, 76
13, 27480, Note_on_c, 15, 67, 76
13, 27599, Note_on_c, 15, 55, 0
13, 27599, Note_on_c, 15, 74, 0
13, 27599, Note_on_c, 15, 71, 0
13, 27599, Note_on_c, 15, 67, 0
13, 27600, Note_on_c, 15, 69, 76
13, 27600, Note_on_c, 15, 53, 76
13, 27600, Note_on_c, 15, 65, 76
13, 27600, Note_on_c, 15, 72, 76
13, 27719, Note_on_c, 15, 69, 0
13, 27719, Note_on_c, 15, 53, 0
13, 27719, Note_on_c, 15, 65, 0
13, 27719, Note_on_c, 15, 72, 0
13, 27720, Note_on_c, 15, 52, 76
13, 27720, Note_on_c, 15, 64, 76
13, 27720, Note_on_c, 15, 71, 76
13, 27720, Note_on_c, 15, 67, 76
13, 27839, Note_on_c, 15, 52, 0
13, 27839, Note_on_c, 15, 64, 0
13, 27839, Note_on_c, 15, 71, 0
13, 27839, Note_on_c, 15, 67, 0
13, 27840, Note_on_c, 15, 62, 76
13, 27840, Note_on_c, 15, 50, 76
13, 27840, Note_on_c, 15, 65, 76
13, 27959, Note_on_c, 15, 62, 0
13, 27959, Note_on_c, 15, 50, 0
13, 27959, Note_on_c, 15, 65, 0
13, 27960, Note_on_c, 15, 64, 76
13, 27960, Note_on_c, 15, 67, 76
13, 27960, Note_on_c, 15, 71, 76
13, 27960, Note_on_c, 15, 52, 76
13, 28079, Note_on_c, 15, 64, 0
13, 28079, Note_on_c, 15, 67, 0
13, 28079, Note_on_c, 15, 71, 0
13, 28079, Note_on_c, 15, 52, 0
13, 28080, Note_on_c, 15, 62, 76
13, 28080, Note_on_c, 15, 50, 76
13, 28080, Note_on_c, 15, 65, 76
13, 28199, Note_on_c, 15, 62, 0
13, 28199, Note_on_c, 15, 50, 0
13, 28199, Note_on_c, 15, 65, 0
13, 28200, Note_on_c, 15, 48, 76
13, 28200, Note_on_c, 15, 64, 76
13, 28200, Note_on_c, 15, 60, 76
13, 28200, Note_on_c, 15, 67, 76
13, 28319, Note_on_c, 15, 48, 0
13, 28319, Note_on_c, 15, 64, 0
13, 28319, Note_on_c, 15, 60, 0
13, 28319, Note_on_c, 15, 67, 0
13, 28320, Note_on_c, 15, 59, 76
13, 28320, Note_on_c, 15, 65, 76
13, 28320, Note_on_c, 15, 62, 76
13, 28320, Note_on_c, 15, 47, 76
13, 28439, Note_on_c, 15, 59, 0
13, 28439, Note_on_c, 15, 65, 0
13, 28439, Note_on_c, 15, 62, 0
13, 28439, Note_on_c, 15, 47, 0
13, 28440, Note_on_c, 15, 48, 76
13, 28440, Note_on_c, 15, 64, 76
13, 28440, Note_on_c, 15, 60, 76
13, 28440, Note_on_c, 15, 67, 76
13, 28559, Note_on_c, 15, 48, 0
13, 28559, Note_on_c, 15, 64, 0
13, 28559, Note_on_c, 15, 60, 0
13, 28559, Note_on_c, 15, 67, 0
13, 28560, Note_on_c, 15, 47, 76
13, 28560, Note_on_c, 15, 62, 76
13, 28560, Note_on_c, 15, 65, 76
13, 28560, Note_on_c, 15, 59, 76
13, 28679, Note_on_c, 15, 47, 0
13, 28679, Note_on_c, 15, 62, 0
13, 28679, Note_on_c, 15, 65, 0
13, 28679, Note_on_c, 15, 59, 0
13, 28680, Note_on_c, 15, 45, 76
13, 28680, Note_on_c, 15, 64, 76
13, 28680, Note_on_c, 15, 57, 76
13, 28680, Note_on_c, 15, 60, 76
13, 28799, Note_on_c, 15, 45, 0
13, 28799, Note_on_c, 15, 64, 0
13, 28799, Note_on_c, 15, 57, 0
13, 28799, Note_on_c, 15, 60, 0
13, 28800, Note_on_c, 15, 43, 76
13, 28800, Note_on_c, 15, 59, 76
13, 28800, Note_on_c, 15, 55, 76
13, 28800, Note_on_c, 15, 62, 76
13, 28919, Note_on_c, 15, 43, 0
13, 28919, Note_on_c, 15, 59, 0
13, 28919, Note_on_c, 15, 55, 0
13, 28919, Note_on_c, 15, 62, 0
13, 28920, Note_on_c, 15, 64, 76
13, 28920, Note_on_c, 15, 57, 76
13, 28920, Note_on_c, 15, 60, 76
13, 28920, Note_on_c, 15, 45, 76
13, 29039, Note_on_c, 15, 64, 0
13, 29039, Note_on_c, 15, 57, 0
13, 29039, Note_on_c, 15, 60, 0
13, 29039, Note_on_c, 15, 45, 0
13, 29040, Note_on_c, 15, 59, 76
13, 29040, Note_on_c, 15, 43, 76
13, 29040, Note_on_c, 15, 62, 76
13, 29040, Note_on_c, 15, 55, 76
13, 29159, Note_on_c, 15, 59, 0
13, 29159, Note_on_c, 15, 43, 0
13, 29159, Note_on_c, 15, 62, 0
13, 29159, Note_on_c, 15, 55, 0
13, 29160, Note_on_c, 15, 53, 76
13, 29160, Note_on_c, 15, 41, 76
13, 29160, Note_on_c, 15, 57, 76
13, 29160, Note_on_c, 15, 60, 76
13, 29279, Note_on_c, 15, 53, 0
13, 29279, Note_on_c, 15, 41, 0
13, 29279, Note_on_c, 15, 57, 0
13, 29279, Note_on_c, 15, 60, 0
13, 29280, Note_on_c, 15, 40, 76
13, 29280, Note_on_c, 15, 59, 76
13, 29280, Note_on_c, 15, 52, 76
13, 29280, Note_on_c, 15, 55, 76
13, 29519, Note_on_c, 15, 40, 0
13, 29519, Note_on_c, 15, 59, 0
13, 29519, Note_on_c, 15, 52, 0
13, 29519, Note_on_c, 15, 55, 0
13, 29520, Note_on_c, 15, 57, 76
13, 29520, Note_on_c, 15, 53, 76
13, 29520, Note_on_c, 15, 41, 76
13, 29520, Note_on_c, 15, 60, 76
13, 29759, Note_on_c, 15, 57, 0
13, 29759, Note_on_c, 15, 53, 0
13, 29759, Note_on_c, 15, 41, 0
13, 29759, Note_on_c, 15, 60, 0
13, 29760, Note_on_c, 15, 62, 76
13, 29760, Note_on_c, 15, 43, 76
13, 29760, Note_on_c, 15, 59, 76
13, 29760, Note_on_c, 15, 55, 76
13, 29999, Note_on_c, 15, 62, 0
13, 29999, Note_on_c, 15, 43, 0
13, 29999, Note_on_c, 15, 59, 0
13, 29999, Note_on_c, 15, 55, 0
13, 30000, Note_on_c, 15, 62, 76
13, 30000, Note_on_c, 15, 43, 76
13, 30000, Note_on_c, 15, 55, 76
13, 30000, Note_on_c, 15, 59, 76
13, 30239, Note_on_c, 15, 62, 0
13, 30239, Note_on_c, 15, 43, 0
13, 30239, Note_on_c, 15, 55, 0
13, 30239, Note_on_c, 15, 59, 0
13, 30240, Note_on_c, 15, 52, 76
13, 30240, Note_on_c, 15, 36, 76
13, 30240, Note_on_c, 15, 55, 76
13, 30240, Note_on_c, 15, 48, 76
13, 30959, Note_on_c, 15, 52, 0
13, 30959, Note_on_c, 15, 36, 0
13, 30959, Note_on_c, 15, 55, 0
13, 30959, Note_on_c, 15, 48, 0
13, 31440, Note_on_c, 15, 55, 76
13, 31440, Note_on_c, 15, 67, 76
13, 31440, Note_on_c, 15, 71, 76
13, 31440, Note_on_c, 15, 74, 76
13, 31559, Note_on_c, 15, 55, 0
13, 31559, Note_on_c, 15, 67, 0
13, 31559, Note_on_c, 15, 71, 0
13, 31559, Note_on_c, 15, 74, 0
13, 31560, Note_on_c, 15, 69, 76
13, 31560, Note_on_c, 15, 53, 76
13, 31560, Note_on_c, 15, 72, 76
13, 31560, Note_on_c, 15, 65, 76
13, 31679, Note_on_c, 15, 69, 0
13, 31679, Note_on_c, 15, 53, 0
13, 31679, Note_on_c, 15, 72, 0
13, 31679, Note_on_c, 15, 65, 0
13, 31680, Note_on_c, 15, 64, 76
13, 31680, Note_on_c, 15, 67, 76
13, 31680, Note_on_c, 15, 52, 76
13, 31680, Note_on_c, 15, 71, 76
13, 31919, Note_on_c, 15, 64, 0
13, 31919, Note_on_c, 15, 67, 0
13, 31919, Note_on_c, 15, 52, 0
13, 31919, Note_on_c, 15, 71, 0
13, 31920, Note_on_c, 15, 74, 76
13, 31920, Note_on_c, 15, 70, 76
13, 31920, Note_on_c, 15, 55, 76
13, 31920, Note_on_c, 15, 67, 76
13, 32159, Note_on_c, 15, 74, 0
13, 32159, Note_on_c, 15, 70, 0
13, 32159, Note_on_c, 15, 55, 0
13, 32159, Note_on_c, 15, 67, 0
13, 32160, Note_on_c, 15, 73, 76
13, 32160, Note_on_c, 15, 69, 76
13, 32160, Note_on_c, 15, 57, 76
13, 32160, Note_on_c, 15, 76, 76
13, 32399, Note_on_c, 15, 73, 0
13, 32399, Note_on_c, 15, 69, 0
13, 32399, Note_on_c, 15, 57, 0
13, 32399, Note_on_c, 15, 76, 0
13, 32400, Note_on_c, 15, 45, 76
13, 32400, Note_on_c, 15, 64, 76
13, 32400, Note_on_c, 15, 61, 76
13, 32400, Note_on_c, 15, 57, 76
13, 32639, Note_on_c, 15, 45, 0
13, 32639, Note_on_c, 15, 64, 0
13, 32639, Note_on_c, 15, 61, 0
13, 32639, Note_on_c, 15, 57, 0
13, 32640, Note_on_c, 15, 57, 76
13, 32640, Note_on_c, 15, 76, 76
13, 32640, Note_on_c, 15, 73, 76
13, 32640, Note_on_c, 15, 69, 76
13, 32879, Note_on_c, 15, 57, 0
13, 32879, Note_on_c, 15, 76, 0
13, 32879, Note_on_c, 15, 73, 0
13, 32879, Note_on_c, 15, 69, 0
13, 32880, Note_on_c, 15, 55, 76
13, 32880, Note_on_c, 15, 74, 76
13, 32880, Note_on_c, 15, 67, 76
13, 32880, Note_on_c, 15, 71, 76
13, 33119, Note_on_c, 15, 55, 0
13, 33119, Note_on_c, 15, 74, 0
13, 33119, Note_on_c, 15, 67, 0
13, 33119, Note_on_c, 15, 71, 0
13, 33120, Note_on_c, 15, 65, 76
13, 33120, Note_on_c, 15, 74, 76
13, 33120, Note_on_c, 15, 69, 76
13, 33120, Note_on_c, 15, 53, 76
13, 33359, Note_on_c, 15, 65, 0
13, 33359, Note_on_c, 15, 74, 0
13, 33359, Note_on_c, 15, 69, 0
13, 33359, Note_on_c, 15, 53, 0
13, 33360, Note_on_c, 15, 76, 76
13, 33360, Note_on_c, 15, 55, 76
13, 33360, Note_on_c, 15, 71, 76
13, 33360, Note_on_c, 15, 67, 76
13, 33599, Note_on_c, 15, 76, 0
13, 33599, Note_on_c, 15, 55, 0
13, 33599, Note_on_c, 15, 71, 0
13, 33599, Note_on_c, 15, 67, 0
13, 33600, Note_on_c, 15, 76, 76
13, 33600, Note_on_c, 15, 57, 76
13, 33600, Note_on_c, 15, 73, 76
13, 33600, Note_on_c, 15, 69, 76
13, 33839, Note_on_c, 15, 76, 0
13, 33839, Note_on_c, 15, 57, 0
13, 33839, Note_on_c, 15, 73, 0
13, 33839, Note_on_c, 15, 69, 0
13, 33840, Note_on_c, 15, 64, 76
13, 33840, Note_on_c, 15, 57, 76
13, 33840, Note_on_c, 15, 61, 76
13, 33840, Note_on_c, 15, 45, 76
13, 34079, Note_on_c, 15, 64, 0
13, 34079, Note_on_c, 15, 57, 0
13, 34079, Note_on_c, 15, 61, 0
13, 34079, Note_on_c, 15, 45, 0
13, 34080, Note_on_c, 15, 62, 76
13, 34080, Note_on_c, 15, 69, 76
13, 34080, Note_on_c, 15, 50, 76
13, 34080, Note_on_c, 15, 65, 76
13, 34319, Note_on_c, 15, 62, 0
13, 34319, Note_on_c, 15, 69, 0
13, 34319, Note_on_c, 15, 50, 0
13, 34319, Note_on_c, 15, 65, 0
13, 34320, Note_on_c, 15, 45, 76
13, 34320, Note_on_c, 15, 60, 76
13, 34320, Note_on_c, 15, 64, 76
13, 34320, Note_on_c, 15, 57, 76
13, 34559, Note_on_c, 15, 45, 0
13, 34559, Note_on_c, 15, 60, 0
13, 34559, Note_on_c, 15, 64, 0
13, 34559, Note_on_c, 15, 57, 0
13, 34560, Note_on_c, 15, 50, 76
13, 34560, Note_on_c, 15, 53, 76
13, 34560, Note_on_c, 15, 38, 76
13, 34560, Note_on_c, 15, 57, 76
13, 34799, Note_on_c, 15, 50, 0
13, 34799, Note_on_c, 15, 53, 0
13, 34799, Note_on_c, 15, 38, 0
13, 34799, Note_on_c, 15, 57, 0
13, 34800, Note_on_c, 15, 68, 76
13, 34800, Note_on_c, 15, 71, 76
13, 34800, Note_on_c, 15, 56, 76
13, 34800, Note_on_c, 15, 74, 76
13, 34919, Note_on_c, 15, 68, 0
13, 34919, Note_on_c, 15, 71, 0
13, 34919, Note_on_c, 15, 56, 0
13, 34919, Note_on_c, 15, 74, 0
13, 34920, Note_on_c, 15, 72, 76
13, 34920, Note_on_c, 15, 57, 76
13, 34920, Note_on_c, 15, 69, 76
13, 34920, Note_on_c, 15, 76, 76
13, 35039, Note_on_c, 15, 72, 0
13, 35039, Note_on_c, 15, 57, 0
13, 35039, Note_on_c, 15, 69, 0
13, 35039, Note_on_c, 15, 76, 0
13, 35040, Note_on_c, 15, 71, 76
13, 35040, Note_on_c, 15, 74, 76
13, 35040, Note_on_c, 15, 59, 76
13, 35040, Note_on_c, 15, 79, 76
13, 35279, Note_on_c, 15, 71, 0
13, 35279, Note_on_c, 15, 74, 0
13, 35279, Note_on_c, 15, 59, 0
13, 35279, Note_on_c, 15, 79, 0
13, 35280, Note_on_c, 15, 71, 76
13, 35280, Note_on_c, 15, 59, 76
13, 35280, Note_on_c, 15, 74, 76
13, 35280, Note_on_c, 15, 80, 76
13, 35399, Note_on_c, 15, 71, 0
13, 35399, Note_on_c, 15, 59, 0
13, 35399, Note_on_c, 15, 74, 0
13, 35399, Note_on_c, 15, 80, 0
13, 35400, Note_on_c, 15, 60, 76
13, 35400, Note_on_c, 15, 80, 76
13, 35400, Note_on_c, 15, 72, 76
13, 35400, Note_on_c, 15, 76, 76
13, 35519, Note_on_c, 15, 60, 0
13, 35519, Note_on_c, 15, 80, 0
13, 35519, Note_on_c, 15, 72, 0
13, 35519, Note_on_c, 15, 76, 0
13, 35520, Note_on_c, 15, 80, 76
13, 35520, Note_on_c, 15, 77, 76
13, 35520, Note_on_c, 15, 62, 76
13, 35520, Note_on_c, 15, 74, 76
13, 35759, Note_on_c, 15, 80, 0
13, 35759, Note_on_c, 15, 77, 0
13, 35759, Note_on_c, 15, 62, 0
13, 35759, Note_on_c, 15, 74, 0
13, 36720, Note_on_c, 15, 68, 76
13, 36720, Note_on_c, 15, 50, 76
13, 36720, Note_on_c, 15, 62, 76
13, 36720, Note_on_c, 15, 71, 76
13, 36720, Note_on_c, 15, 64, 76
13, 36959, Note_on_c, 15, 68, 0
13, 36959, Note_on_c, 15, 50, 0
13, 36959, Note_on_c, 15, 62, 0
13, 36959, Note_on_c, 15, 71, 0
13, 36959, Note_on_c, 15, 64, 0
13, 36960, Note_on_c, 15, 69, 76
13, 36960, Note_on_c, 15, 60, 76
13, 36960, Note_on_c, 15, 48, 76
13, 36960, Note_on_c, 15, 64, 76
13, 37079, Note_on_c, 15, 69, 0
13, 37079, Note_on_c, 15, 60, 0
13, 37079, Note_on_c, 15, 48, 0
13, 37079, Note_on_c, 15, 64, 0
13, 37080, Note_on_c, 15, 59, 76
13, 37080, Note_on_c, 15, 62, 76
13, 37080, Note_on_c, 15, 47, 76
13, 37080, Note_on_c, 15, 65, 76
13, 37199, Note_on_c, 15, 59, 0
13, 37199, Note_on_c, 15, 62, 0
13, 37199, Note_on_c, 15, 47, 0
13, 37199, Note_on_c, 15, 65, 0
13, 37200, Note_on_c, 15, 64, 76
13, 37200, Note_on_c, 15, 60, 76
13, 37200, Note_on_c, 15, 48, 76
13, 37200, Note_on_c, 15, 69, 76
13, 37319, Note_on_c, 15, 64, 0
13, 37319, Note_on_c, 15, 60, 0
13, 37319, Note_on_c, 15, 48, 0
13, 37319, Note_on_c, 15, 69, 0
13, 37320, Note_on_c, 15, 65, 76
13, 37320, Note_on_c, 15, 62, 76
13, 37320, Note_on_c, 15, 50, 76
13, 37320, Note_on_c, 15, 69, 76
13, 37439, Note_on_c, 15, 65, 0
13, 37439, Note_on_c, 15, 62, 0
13, 37439, Note_on_c, 15, 50, 0
13, 37439, Note_on_c, 15, 69, 0
13, 37440, Note_on_c, 15, 68, 76
13, 37440, Note_on_c, 15, 52, 76
13, 37440, Note_on_c, 15, 71, 76
13, 37440, Note_on_c, 15, 64, 76
13, 37679, Note_on_c, 15, 68, 0
13, 37679, Note_on_c, 15, 52, 0
13, 37679, Note_on_c, 15, 71, 0
13, 37679, Note_on_c, 15, 64, 0
13, 37680, Note_on_c, 15, 56, 76
13, 37680, Note_on_c, 15, 59, 76
13, 37680, Note_on_c, 15, 52, 76
13, 37680, Note_on_c, 15, 40, 76
13, 37919, Note_on_c, 15, 56, 0
13, 37919, Note_on_c, 15, 59, 0
13, 37919, Note_on_c, 15, 52, 0
13, 37919, Note_on_c, 15, 40, 0
13, 37920, Note_on_c, 15, 45, 76
13, 37920, Note_on_c, 15, 60, 76
13, 37920, Note_on_c, 15, 57, 76
13, 37920, Note_on_c, 15, 64, 76
13, 38159, Note_on_c, 15, 45, 0
13, 38159, Note_on_c, 15, 60, 0
13, 38159, Note_on_c, 15, 57, 0
13, 38159, Note_on_c, 15, 64, 0
13, 38160, Note_on_c, 15, 67, 76
13, 38160, Note_on_c, 15, 52, 76
13, 38160, Note_on_c, 15, 71, 76
13, 38160, Note_on_c, 15, 64, 76
13, 38399, Note_on_c, 15, 67, 0
13, 38399, Note_on_c, 15, 52, 0
13, 38399, Note_on_c, 15, 71, 0
13, 38399, Note_on_c, 15, 64, 0
13, 38400, Note_on_c, 15, 72, 76
13, 38400, Note_on_c, 15, 69, 76
13, 38400, Note_on_c, 15, 76, 76
13, 38400, Note_on_c, 15, 57, 76
13, 38639, Note_on_c, 15, 72, 0
13, 38639, Note_on_c, 15, 69, 0
13, 38639, Note_on_c, 15, 76, 0
13, 38639, Note_on_c, 15, 57, 0
13, 39120, Note_on_c, 15, 48, 76
13, 39120, Note_on_c, 15, 67, 76
13, 39120, Note_on_c, 15, 64, 76
13, 39120, Note_on_c, 15, 60, 76
13, 39239, Note_on_c, 15, 48, 0
13, 39239, Note_on_c, 15, 67, 0
13, 39239, Note_on_c, 15, 64, 0
13, 39239, Note_on_c, 15, 60, 0
13, 39240, Note_on_c, 15, 62, 76
13, 39240, Note_on_c, 15, 69, 76
13, 39240, Note_on_c, 15, 65, 76
13, 39240, Note_on_c, 15, 50, 76
13, 39359, Note_on_c, 15, 62, 0
13, 39359, Note_on_c, 15, 69, 0
13, 39359, Note_on_c, 15, 65, 0
13, 39359, Note_on_c, 15, 50, 0
13, 39360, Note_on_c, 15, 64, 76
13, 39360, Note_on_c, 15, 72, 76
13, 39360, Note_on_c, 15, 52, 76
13, 39360, Note_on_c, 15, 67, 76
13, 39599, Note_on_c, 15, 64, 0
13, 39599, Note_on_c, 15, 72, 0
13, 39599, Note_on_c, 15, 52, 0
13, 39599, Note_on_c, 15, 67, 0
13, 39600, Note_on_c, 15, 52, 76
13, 39600, Note_on_c, 15, 64, 76
13, 39600, Note_on_c, 15, 67, 76
13, 39600, Note_on_c, 15, 72, 76
13, 39719, Note_on_c, 15, 52, 0
13, 39719, Note_on_c, 15, 64, 0
13, 39719, Note_on_c, 15, 67, 0
13, 39719, Note_on_c, 15, 72, 0
13, 39720, Note_on_c, 15, 65, 76
13, 39720, Note_on_c, 15, 53, 76
13, 39720, Note_on_c, 15, 72, 76
13, 39720, Note_on_c, 15, 69, 76
13, 39839, Note_on_c, 15, 65, 0
13, 39839, Note_on_c, 15, 53, 0
13, 39839, Note_on_c, 15, 72, 0
13, 39839, Note_on_c, 15, 69, 0
13, 39840, Note_on_c, 15, 67, 76
13, 39840, Note_on_c, 15, 76, 76
13, 39840, Note_on_c, 15, 55, 76
13, 39840, Note_on_c, 15, 70, 76
13, 40079, Note_on_c, 15, 67, 0
13, 40079, Note_on_c, 15, 76, 0
13, 40079, Note_on_c, 15, 55, 0
13, 40079, Note_on_c, 15, 70, 0
13, 40080, Note_on_c, 15, 55, 76
13, 40080, Note_on_c, 15, 76, 76
13, 40080, Note_on_c, 15, 70, 76
13, 40080, Note_on_c, 15, 67, 76
13, 40199, Note_on_c, 15, 55, 0
13, 40199, Note_on_c, 15, 76, 0
13, 40199, Note_on_c, 15, 70, 0
13, 40199, Note_on_c, 15, 67, 0
13, 40200, Note_on_c, 15, 69, 76
13, 40200, Note_on_c, 15, 76, 76
13, 40200, Note_on_c, 15, 72, 76
13, 40200, Note_on_c, 15, 57, 76
13, 40319, Note_on_c, 15, 69, 0
13, 40319, Note_on_c, 15, 76, 0
13, 40319, Note_on_c, 15, 72, 0
13, 40319, Note_on_c, 15, 57, 0
13, 40320, Note_on_c, 15, 77, 76
13, 40320, Note_on_c, 15, 58, 76
13, 40320, Note_on_c, 15, 70, 76
13, 40320, Note_on_c, 15, 74, 76
13, 40559, Note_on_c, 15, 77, 0
13, 40559, Note_on_c, 15, 58, 0
13, 40559, Note_on_c, 15, 70, 0
13, 40559, Note_on_c, 15, 74, 0
13, 40560, Note_on_c, 15, 70, 76
13, 40560, Note_on_c, 15, 67, 76
13, 40560, Note_on_c, 15, 72, 76
13, 40560, Note_on_c, 15, 52, 76
13, 40560, Note_on_c, 15, 64, 76
13, 40799, Note_on_c, 15, 70, 0
13, 40799, Note_on_c, 15, 67, 0
13, 40799, Note_on_c, 15, 72, 0
13, 40799, Note_on_c, 15, 52, 0
13, 40799, Note_on_c, 15, 64, 0
13, 40800, Note_on_c, 15, 65, 76
13, 40800, Note_on_c, 15, 72, 76
13, 40800, Note_on_c, 15, 53, 76
13, 40800, Note_on_c, 15, 69, 76
13, 41039, Note_on_c, 15, 65, 0
13, 41039, Note_on_c, 15, 72, 0
13, 41039, Note_on_c, 15, 53, 0
13, 41039, Note_on_c, 15, 69, 0
13, 41040, Note_on_c, 15, 58, 76
13, 41040, Note_on_c, 15, 62, 76
13, 41040, Note_on_c, 15, 46, 76
13, 41040, Note_on_c, 15, 65, 76
13, 41279, Note_on_c, 15, 58, 0
13, 41279, Note_on_c, 15, 62, 0
13, 41279, Note_on_c, 15, 46, 0
13, 41279, Note_on_c, 15, 65, 0
13, 41280, Note_on_c, 15, 55, 76
13, 41280, Note_on_c, 15, 62, 76
13, 41280, Note_on_c, 15, 65, 76
13, 41280, Note_on_c, 15, 43, 76
13, 41280, Note_on_c, 15, 58, 76
13, 41519, Note_on_c, 15, 55, 0
13, 41519, Note_on_c, 15, 62, 0
13, 41519, Note_on_c, 15, 65, 0
13, 41519, Note_on_c, 15, 43, 0
13, 41519, Note_on_c, 15, 58, 0
13, 41520, Note_on_c, 15, 64, 76
13, 41520, Note_on_c, 15, 60, 76
13, 41520, Note_on_c, 15, 48, 76
13, 41520, Note_on_c, 15, 70, 76
13, 41520, Note_on_c, 15, 67, 76
13, 41759, Note_on_c, 15, 64, 0
13, 41759, Note_on_c, 15, 60, 0
13, 41759, Note_on_c, 15, 48, 0
13, 41759, Note_on_c, 15, 70, 0
13, 41759, Note_on_c, 15, 67, 0
13, 41760, Note_on_c, 15, 53, 76
13, 41760, Note_on_c, 15, 41, 76
13, 41760, Note_on_c, 15, 60, 76
13, 41760, Note_on_c, 15, 57, 76
13, 41999, Note_on_c, 15, 53, 0
13, 41999, Note_on_c, 15, 41, 0
13, 41999, Note_on_c, 15, 60, 0
13, 41999, Note_on_c, 15, 57, 0
13, 42000, Note_on_c, 15, 65, 76
13, 42000, Note_on_c, 15, 69, 76
13, 42000, Note_on_c, 15, 72, 76
13, 42000, Note_on_c, 15, 53, 76
13, 42119, Note_on_c, 15, 65, 0
13, 42119, Note_on_c, 15, 69, 0
13, 42119, Note_on_c, 15, 72, 0
13, 42119, Note_on_c, 15, 53, 0
13, 42120, Note_on_c, 15, 55, 76
13, 42120, Note_on_c, 15, 67, 76
13, 42120, Note_on_c, 15, 74, 76
13, 42120, Note_on_c, 15, 71, 76
13, 42239, Note_on_c, 15, 55, 0
13, 42239, Note_on_c, 15, 67, 0
13, 42239, Note_on_c, 15, 74, 0
13, 42239, Note_on_c, 15, 71, 0
13, 42240, Note_on_c, 15, 72, 76
13, 42240, Note_on_c, 15, 77, 76
13, 42240, Note_on_c, 15, 57, 76
13, 42240, Note_on_c, 15, 69, 76
13, 42359, Note_on_c, 15, 72, 0
13, 42359, Note_on_c, 15, 77, 0
13, 42359, Note_on_c, 15, 57, 0
13, 42359, Note_on_c, 15, 69, 0
13, 42360, Note_on_c, 15, 70, 76
13, 42360, Note_on_c, 15, 77, 76
13, 42360, Note_on_c, 15, 74, 76
13, 42360, Note_on_c, 15, 58, 76
13, 42479, Note_on_c, 15, 70, 0
13, 42479, Note_on_c, 15, 77, 0
13, 42479, Note_on_c, 15, 74, 0
13, 42479, Note_on_c, 15, 58, 0
13, 42480, Note_on_c, 15, 72, 76
13, 42480, Note_on_c, 15, 57, 76
13, 42480, Note_on_c, 15, 69, 76
13, 42480, Note_on_c, 15, 77, 76
13, 42599, Note_on_c, 15, 72, 0
13, 42599, Note_on_c, 15, 57, 0
13, 42599, Note_on_c, 15, 69, 0
13, 42599, Note_on_c, 15, 77, 0
13, 42600, Note_on_c, 15, 55, 76
13, 42600, Note_on_c, 15, 67, 76
13, 42600, Note_on_c, 15, 70, 76
13, 42600, Note_on_c, 15, 74, 76
13, 42719, Note_on_c, 15, 55, 0
13, 42719, Note_on_c, 15, 67, 0
13, 42719, Note_on_c, 15, 70, 0
13, 42719, Note_on_c, 15, 74, 0
13, 42720, Note_on_c, 15, 65, 76
13, 42720, Note_on_c, 15, 69, 76
13, 42720, Note_on_c, 15, 72, 76
13, 42720, Note_on_c, 15, 53, 76
13, 42839, Note_on_c, 15, 65, 0
13, 42839, Note_on_c, 15, 69, 0
13, 42839, Note_on_c, 15, 72, 0
13, 42839, Note_on_c, 15, 53, 0
13, 42840, Note_on_c, 15, 74, 76
13, 42840, Note_on_c, 15, 67, 76
13, 42840, Note_on_c, 15, 71, 76
13, 42840, Note_on_c, 15, 55, 76
13, 42959, Note_on_c, 15, 74, 0
13, 42959, Note_on_c, 15, 67, 0
13, 42959, Note_on_c, 15, 71, 0
13, 42959, Note_on_c, 15, 55, 0
13, 42960, Note_on_c, 15, 72, 76
13, 42960, Note_on_c, 15, 65, 76
13, 42960, Note_on_c, 15, 53, 76
13, 42960, Note_on_c, 15, 69, 76
13, 43079, Note_on_c, 15, 72, 0
13, 43079, Note_on_c, 15, 65, 0
13, 43079, Note_on_c, 15, 53, 0
13, 43079, Note_on_c, 15, 69, 0
13, 43080, Note_on_c, 15, 52, 76
13, 43080, Note_on_c, 15, 71, 76
13, 43080, Note_on_c, 15, 64, 76
13, 43080, Note_on_c, 15, 67, 76
13, 43199, Note_on_c, 15, 52, 0
13, 43199, Note_on_c, 15, 71, 0
13, 43199, Note_on_c, 15, 64, 0
13, 43199, Note_on_c, 15, 67, 0
13, 43200, Note_on_c, 15, 62, 76
13, 43200, Note_on_c, 15, 65, 76
13, 43200, Note_on_c, 15, 50, 76
13, 43319, Note_on_c, 15, 62, 0
13, 43319, Note_on_c, 15, 65, 0
13, 43319, Note_on_c, 15, 50, 0
13, 43320, Note_on_c, 15, 67, 76
13, 43320, Note_on_c, 15, 52, 76
13, 43320, Note_on_c, 15, 71, 76
13, 43320, Note_on_c, 15, 64, 76
13, 43439, Note_on_c, 15, 67, 0
13, 43439, Note_on_c, 15, 52, 0
13, 43439, Note_on_c, 15, 71, 0
13, 43439, Note_on_c, 15, 64, 0
13, 43440, Note_on_c, 15, 50, 76
13, 43440, Note_on_c, 15, 65, 76
13, 43440, Note_on_c, 15, 62, 76
13, 43559, Note_on_c, 15, 50, 0
13, 43559, Note_on_c, 15, 65, 0
13, 43559, Note_on_c, 15, 62, 0
13, 43560, Note_on_c, 15, 67, 76
13, 43560, Note_on_c, 15, 64, 76
13, 43560, Note_on_c, 15, 48, 76
13, 43560, Note_on_c, 15, 60, 76
13, 43679, Note_on_c, 15, 67, 0
13, 43679, Note_on_c, 15, 64, 0
13, 43679, Note_on_c, 15, 48, 0
13, 43679, Note_on_c, 15, 60, 0
13, 43680, Note_on_c, 15, 62, 76
13, 43680, Note_on_c, 15, 65, 76
13, 43680, Note_on_c, 15, 47, 76
13, 43680, Note_on_c, 15, 59, 76
13, 43799, Note_on_c, 15, 62, 0
13, 43799, Note_on_c, 15, 65, 0
13, 43799, Note_on_c, 15, 47, 0
13, 43799, Note_on_c, 15, 59, 0
13, 43800, Note_on_c, 15, 67, 76
13, 43800, Note_on_c, 15, 48, 76
13, 43800, Note_on_c, 15, 64, 76
13, 43800, Note_on_c, 15, 60, 76
13, 43919, Note_on_c, 15, 67, 0
13, 43919, Note_on_c, 15, 48, 0
13, 43919, Note_on_c, 15, 64, 0
13, 43919, Note_on_c, 15, 60, 0
13, 43920, Note_on_c, 15, 47, 76
13, 43920, Note_on_c, 15, 62, 76
13, 43920, Note_on_c, 15, 59, 76
13, 43920, Note_on_c, 15, 65, 76
13, 44039, Note_on_c, 15, 47, 0
13, 44039, Note_on_c, 15, 62, 0
13, 44039, Note_on_c, 15, 59, 0
13, 44039, Note_on_c, 15, 65, 0
13, 44040, Note_on_c, 15, 60, 76
13, 44040, Note_on_c, 15, 45, 76
13, 44040, Note_on_c, 15, 57, 76
13, 44040, Note_on_c, 15, 64, 76
13, 44159, Note_on_c, 15, 60, 0
13, 44159, Note_on_c, 15, 45, 0
13, 44159, Note_on_c, 15, 57, 0
13, 44159, Note_on_c, 15, 64, 0
13, 44160, Note_on_c, 15, 43, 76
13, 44160, Note_on_c, 15, 55, 76
13, 44160, Note_on_c, 15, 59, 76
13, 44160, Note_on_c, 15, 62, 76
13, 44279, Note_on_c, 15, 43, 0
13, 44279, Note_on_c, 15, 55, 0
13, 44279, Note_on_c, 15, 59, 0
13, 44279, Note_on_c, 15, 62, 0
13, 44280, Note_on_c, 15, 60, 76
13, 44280, Note_on_c, 15, 57, 76
13, 44280, Note_on_c, 15, 45, 76
13, 44280, Note_on_c, 15, 64, 76
13, 44399, Note_on_c, 15, 60, 0
13, 44399, Note_on_c, 15, 57, 0
13, 44399, Note_on_c, 15, 45, 0
13, 44399, Note_on_c, 15, 64, 0
13, 44400, Note_on_c, 15, 59, 76
13, 44400, Note_on_c, 15, 55, 76
13, 44400, Note_on_c, 15, 43, 76
13, 44400, Note_on_c, 15, 62, 76
13, 44519, Note_on_c, 15, 59, 0
13, 44519, Note_on_c, 15, 55, 0
13, 44519, Note_on_c, 15, 43, 0
13, 44519, Note_on_c, 15, 62, 0
13, 44520, Note_on_c, 15, 60, 76
13, 44520, Note_on_c, 15, 57, 76
13, 44520, Note_on_c, 15, 53, 76
13, 44520, Note_on_c, 15, 41, 76
13, 44639, Note_on_c, 15, 60, 0
13, 44639, Note_on_c, 15, 57, 0
13, 44639, Note_on_c, 15, 53, 0
13, 44639, Note_on_c, 15, 41, 0
13, 44640, Note_on_c, 15, 55, 76
13, 44640, Note_on_c, 15, 40, 76
13, 44640, Note_on_c, 15, 59, 76
13, 44640, Note_on_c, 15, 52, 76
13, 44879, Note_on_c, 15, 55, 0
13, 44879, Note_on_c, 15, 40, 0
13, 44879, Note_on_c, 15, 59, 0
13, 44879, Note_on_c, 15, 52, 0
13, 44880, Note_on_c, 15, 53, 76
13, 44880, Note_on_c, 15, 60, 76
13, 44880, Note_on_c, 15, 41, 76
13, 44880, Note_on_c, 15, 57, 76
13, 45119, Note_on_c, 15, 53, 0
13, 45119, Note_on_c, 15, 60, 0
13, 45119, Note_on_c, 15, 41, 0
13, 45119, Note_on_c, 15, 57, 0
13, 45120, Note_on_c, 15, 55, 76
13, 45120, Note_on_c, 15, 43, 76
13, 45120, Note_on_c, 15, 62, 76
13, 45120, Note_on_c, 15, 59, 76
13, 45359, Note_on_c, 15, 55, 0
13, 45359, Note_on_c, 15, 43, 0
13, 45359, Note_on_c, 15, 62, 0
13, 45359, Note_on_c, 15, 59, 0
13, 45360, Note_on_c, 15, 55, 76
13, 45360, Note_on_c, 15, 62, 76
13, 45360, Note_on_c, 15, 43, 76
13, 45360, Note_on_c, 15, 59, 76
13, 45599, Note_on_c, 15, 55, 0
13, 45599, Note_on_c, 15, 62, 0
13, 45599, Note_on_c, 15, 43, 0
13, 45599, Note_on_c, 15, 59, 0
13, 45600, Note_on_c, 15, 36, 76
13, 45600, Note_on_c, 15, 55, 76
13, 45600, Note_on_c, 15, 48, 76
13, 45600, Note_on_c, 15, 52, 76
13, 46319, Note_on_c, 15, 36, 0
13, 46319, Note_on_c, 15, 55, 0
13, 46319, Note_on_c, 15, 48, 0
13, 46319, Note_on_c, 15, 52, 0
13, 93360, Note_on_c, 15, 64, 76
13, 93360, Note_on_c, 15, 60, 76
13, 93360, Note_on_c, 15, 67, 76
13, 93360, Note_on_c, 15, 48, 76
13, 93479, Note_on_c, 15, 64, 0
13, 93479, Note_on_c, 15, 60, 0
13, 93479, Note_on_c, 15, 67, 0
13, 93479, Note_on_c, 15, 48, 0
13, 93480, Note_on_c, 15, 50, 76
13, 93480, Note_on_c, 15, 69, 76
13, 93480, Note_on_c, 15, 62, 76
13, 93480, Note_on_c, 15, 65, 76
13, 93599, Note_on_c, 15, 50, 0
13, 93599, Note_on_c, 15, 69, 0
13, 93599, Note_on_c, 15, 62, 0
13, 93599, Note_on_c, 15, 65, 0
13, 93600, Note_on_c, 15, 64, 76
13, 93600, Note_on_c, 15, 72, 76
13, 93600, Note_on_c, 15, 52, 76
13, 93600, Note_on_c, 15, 67, 76
13, 93839, Note_on_c, 15, 64, 0
13, 93839, Note_on_c, 15, 72, 0
13, 93839, Note_on_c, 15, 52, 0
13, 93839, Note_on_c, 15, 67, 0
13, 93840, Note_on_c, 15, 71, 76
13, 93840, Note_on_c, 15, 55, 76
13, 93840, Note_on_c, 15, 67, 76
13, 93840, Note_on_c, 15, 74, 76
13, 94079, Note_on_c, 15, 71, 0
13, 94079, Note_on_c, 15, 55, 0
13, 94079, Note_on_c, 15, 67, 0
13, 94079, Note_on_c, 15, 74, 0
13, 94080, Note_on_c, 15, 60, 76
13, 94080, Note_on_c, 15, 76, 76
13, 94080, Note_on_c, 15, 79, 76
13, 94080, Note_on_c, 15, 72, 76
13, 94319, Note_on_c, 15, 60, 0
13, 94319, Note_on_c, 15, 76, 0
13, 94319, Note_on_c, 15, 79, 0
13, 94319, Note_on_c, 15, 72, 0
13, 94320, Note_on_c, 15, 74, 76
13, 94320, Note_on_c, 15, 71, 76
13, 94320, Note_on_c, 15, 67, 76
13, 94320, Note_on_c, 15, 55, 76
13, 94559, Note_on_c, 15, 74, 0
13, 94559, Note_on_c, 15, 71, 0
13, 94559, Note_on_c, 15, 67, 0
13, 94559, Note_on_c, 15, 55, 0
13, 94560, Note_on_c, 15, 60, 76
13, 94560, Note_on_c, 15, 64, 76
13, 94560, Note_on_c, 15, 67, 76
13, 94560, Note_on_c, 15, 48, 76
13, 94799, Note_on_c, 15, 60, 0
13, 94799, Note_on_c, 15, 64, 0
13, 94799, Note_on_c, 15, 67, 0
13, 94799, Note_on_c, 15, 48, 0
13, 94800, Note_on_c, 15, 72, 76
13, 94800, Note_on_c, 15, 65, 76
13, 94800, Note_on_c, 15, 53, 76
13, 94800, Note_on_c, 15, 69, 76
13, 95039, Note_on_c, 15, 72, 0
13, 95039, Note_on_c, 15, 65, 0
13, 95039, Note_on_c, 15, 53, 0
13, 95039, Note_on_c, 15, 69, 0
13, 95040, Note_on_c, 15, 72, 76
13, 95040, Note_on_c, 15, 52, 76
13, 95040, Note_on_c, 15, 67, 76
13, 95040, Note_on_c, 15, 64, 76
13, 95279, Note_on_c, 15, 72, 0
13, 95279, Note_on_c, 15, 52, 0
13, 95279, Note_on_c, 15, 67, 0
13, 95279, Note_on_c, 15, 64, 0
13, 95280, Note_on_c, 15, 65, 76
13, 95280, Note_on_c, 15, 62, 76
13, 95280, Note_on_c, 15, 69, 76
13, 95280, Note_on_c, 15, 50, 76
13, 95519, Note_on_c, 15, 65, 0
13, 95519, Note_on_c, 15, 62, 0
13, 95519, Note_on_c, 15, 69, 0
13, 95519, Note_on_c, 15, 50, 0
13, 95520, Note_on_c, 15, 64, 76
13, 95520, Note_on_c, 15, 67, 76
13, 95520, Note_on_c, 15, 52, 76
13, 95520, Note_on_c, 15, 72, 76
13, 95759, Note_on_c, 15, 64, 0
13, 95759, Note_on_c, 15, 67, 0
13, 95759, Note_on_c, 15, 52, 0
13, 95759, Note_on_c, 15, 72, 0
13, 95760, Note_on_c, 15, 69, 76
13, 95760, Note_on_c, 15, 65, 76
13, 95760, Note_on_c, 15, 72, 76
13, 95760, Note_on_c, 15, 53, 76
13, 95999, Note_on_c, 15, 69, 0
13, 95999, Note_on_c, 15, 65, 0
13, 95999, Note_on_c, 15, 72, 0
13, 95999, Note_on_c, 15, 53, 0
13, 96000, Note_on_c, 15, 67, 76
13, 96000, Note_on_c, 15, 74, 76
13, 96000, Note_on_c, 15, 55, 76
13, 96000, Note_on_c, 15, 71, 76
13, 96239, Note_on_c, 15, 67, 0
13, 96239, Note_on_c, 15, 74, 0
13, 96239, Note_on_c, 15, 55, 0
13, 96239, Note_on_c, 15, 71, 0
13, 96240, Note_on_c, 15, 57, 76
13, 96240, Note_on_c, 15, 69, 76
13, 96240, Note_on_c, 15, 76, 76
13, 96240, Note_on_c, 15, 72, 76
13, 96479, Note_on_c, 15, 57, 0
13, 96479, Note_on_c, 15, 69, 0
13, 96479, Note_on_c, 15, 76, 0
13, 96479, Note_on_c, 15, 72, 0
13, 96480, Note_on_c, 15, 59, 76
13, 96480, Note_on_c, 15, 74, 76
13, 96480, Note_on_c, 15, 79, 76
13, 96480, Note_on_c, 15, 71, 76
13, 96719, Note_on_c, 15, 59, 0
13, 96719, Note_on_c, 15, 74, 0
13, 96719, Note_on_c, 15, 79, 0
13, 96719, Note_on_c, 15, 71, 0
13, 96720, Note_on_c, 15, 60, 76
13, 96720, Note_on_c, 15, 72, 76
13, 96720, Note_on_c, 15, 76, 76
13, 96720, Note_on_c, 15, 79, 76
13, 96959, Note_on_c, 15, 60, 0
13, 96959, Note_on_c, 15, 72, 0
13, 96959, Note_on_c, 15, 76, 0
13, 96959, Note_on_c, 15, 79, 0
13, 96960, Note_on_c, 15, 79, 76
13, 96960, Note_on_c, 15, 59, 76
13, 96960, Note_on_c, 15, 74, 76
13, 96960, Note_on_c, 15, 71, 76
13, 97199, Note_on_c, 15, 79, 0
13, 97199, Note_on_c, 15, 59, 0
13, 97199, Note_on_c, 15, 74, 0
13, 97199, Note_on_c, 15, 71, 0
13, 97200, Note_on_c, 15, 72, 76
13, 97200, Note_on_c, 15, 57, 76
13, 97200, Note_on_c, 15, 76, 76
13, 97200, Note_on_c, 15, 69, 76
13, 97439, Note_on_c, 15, 72, 0
13, 97439, Note_on_c, 15, 57, 0
13, 97439, Note_on_c, 15, 76, 0
13, 97439, Note_on_c, 15, 69, 0
13, 97440, Note_on_c, 15, 55, 76
13, 97440, Note_on_c, 15, 71, 76
13, 97440, Note_on_c, 15, 74, 76
13, 97440, Note_on_c, 15, 67, 76
13, 97679, Note_on_c, 15, 55, 0
13, 97679, Note_on_c, 15, 71, 0
13, 97679, Note_on_c, 15, 74, 0
13, 97679, Note_on_c, 15, 67, 0
13, 97680, Note_on_c, 15, 54, 76
13, 97680, Note_on_c, 15, 69, 76
13, 97680, Note_on_c, 15, 66, 76
13, 97680, Note_on_c, 15, 72, 76
13, 97919, Note_on_c, 15, 54, 0
13, 97919, Note_on_c, 15, 69, 0
13, 97919, Note_on_c, 15, 66, 0
13, 97919, Note_on_c, 15, 72, 0
13, 97920, Note_on_c, 15, 71, 76
13, 97920, Note_on_c, 15, 52, 76
13, 97920, Note_on_c, 15, 67, 76
13, 97920, Note_on_c, 15, 64, 76
13, 98159, Note_on_c, 15, 71, 0
13, 98159, Note_on_c, 15, 52, 0
13, 98159, Note_on_c, 15, 67, 0
13, 98159, Note_on_c, 15, 64, 0
13, 98160, Note_on_c, 15, 65, 76
13, 98160, Note_on_c, 15, 50, 76
13, 98160, Note_on_c, 15, 62, 76
13, 98160, Note_on_c, 15, 69, 76
13, 98399, Note_on_c, 15, 65, 0
13, 98399, Note_on_c, 15, 50, 0
13, 98399, Note_on_c, 15, 62, 0
13, 98399, Note_on_c, 15, 69, 0
13, 98400, Note_on_c, 15, 52, 76
13, 98400, Note_on_c, 15, 64, 76
13, 98400, Note_on_c, 15, 67, 76
13, 98400, Note_on_c, 15, 71, 76
13, 98639, Note_on_c, 15, 52, 0
13, 98639, Note_on_c, 15, 64, 0
13, 98639, Note_on_c, 15, 67, 0
13, 98639, Note_on_c, 15, 71, 0
13, 98640, Note_on_c, 15, 66, 76
13, 98640, Note_on_c, 15, 74, 76
13, 98640, Note_on_c, 15, 54, 76
13, 98640, Note_on_c, 15, 69, 76
13, 98879, Note_on_c, 15, 66, 0
13, 98879, Note_on_c, 15, 74, 0
13, 98879, Note_on_c, 15, 54, 0
13, 98879, Note_on_c, 15, 69, 0
13, 98880, Note_on_c, 15, 67, 76
13, 98880, Note_on_c, 15, 74, 76
13, 98880, Note_on_c, 15, 71, 76
13, 98880, Note_on_c, 15, 55, 76
13, 99119, Note_on_c, 15, 67, 0
13, 99119, Note_on_c, 15, 74, 0
13, 99119, Note_on_c, 15, 71, 0
13, 99119, Note_on_c, 15, 55, 0
13, 99120, Note_on_c, 15, 48, 76
13, 99120, Note_on_c, 15, 69, 76
13, 99120, Note_on_c, 15, 64, 76
13, 99120, Note_on_c, 15, 60, 76
13, 99120, Note_on_c, 15, 67, 76
13, 99359, Note_on_c, 15, 48, 0
13, 99359, Note_on_c, 15, 69, 0
13, 99359, Note_on_c, 15, 64, 0
13, 99359, Note_on_c, 15, 60, 0
13, 99359, Note_on_c, 15, 67, 0
13, 99360, Note_on_c, 15, 69, 76
13, 99360, Note_on_c, 15, 62, 76
13, 99360, Note_on_c, 15, 50, 76
13, 99360, Note_on_c, 15, 67, 76
13, 99599, Note_on_c, 15, 69, 0
13, 99599, Note_on_c, 15, 62, 0
13, 99599, Note_on_c, 15, 50, 0
13, 99599, Note_on_c, 15, 67, 0
13, 99600, Note_on_c, 15, 57, 76
13, 99600, Note_on_c, 15, 38, 76
13, 99600, Note_on_c, 15, 50, 76
13, 99600, Note_on_c, 15, 54, 76
13, 99839, Note_on_c, 15, 57, 0
13, 99839, Note_on_c, 15, 38, 0
13, 99839, Note_on_c, 15, 50, 0
13, 99839, Note_on_c, 15, 54, 0
13, 99840, Note_on_c, 15, 62, 76
13, 99840, Note_on_c, 15, 43, 76
13, 99840, Note_on_c, 15, 59, 76
13, 99840, Note_on_c, 15, 55, 76
13, 100079, Note_on_c, 15, 62, 0
13, 100079, Note_on_c, 15, 43, 0
13, 100079, Note_on_c, 15, 59, 0
13, 100079, Note_on_c, 15, 55, 0
13, 100080, Note_on_c, 15, 69, 76
13, 100080, Note_on_c, 15, 50, 76
13, 100080, Note_on_c, 15, 62, 76
13, 100080, Note_on_c, 15, 65, 76
13, 100319, Note_on_c, 15, 69, 0
13, 100319, Note_on_c, 15, 50, 0
13, 100319, Note_on_c, 15, 62, 0
13, 100319, Note_on_c, 15, 65, 0
13, 100320, Note_on_c, 15, 74, 76
13, 100320, Note_on_c, 15, 71, 76
13, 100320, Note_on_c, 15, 55, 76
13, 100320, Note_on_c, 15, 67, 76
13, 100559, Note_on_c, 15, 74, 0
13, 100559, Note_on_c, 15, 71, 0
13, 100559, Note_on_c, 15, 55, 0
13, 100559, Note_on_c, 15, 67, 0
13, 101040, Note_on_c, 15, 67, 76
13, 101040, Note_on_c, 15, 64, 76
13, 101040, Note_on_c, 15, 60, 76
13, 101040, Note_on_c, 15, 48, 76
13, 101159, Note_on_c, 15, 67, 0
13, 101159, Note_on_c, 15, 64, 0
13, 101159, Note_on_c, 15, 60, 0
13, 101159, Note_on_c, 15, 48, 0
13, 101160, Note_on_c, 15, 50, 76
13, 101160, Note_on_c, 15, 65, 76
13, 101160, Note_on_c, 15, 62, 76
13, 101160, Note_on_c, 15, 69, 76
13, 101279, Note_on_c, 15, 50, 0
13, 101279, Note_on_c, 15, 65, 0
13, 101279, Note_on_c, 15, 62, 0
13, 101279, Note_on_c, 15, 69, 0
13, 101280, Note_on_c, 15, 64, 76
13, 101280, Note_on_c, 15, 52, 76
13, 101280, Note_on_c, 15, 67, 76
13, 101280, Note_on_c, 15, 72, 76
13, 101519, Note_on_c, 15, 64, 0
13, 101519, Note_on_c, 15, 52, 0
13, 101519, Note_on_c, 15, 67, 0
13, 101519, Note_on_c, 15, 72, 0
13, 101520, Note_on_c, 15, 74, 76
13, 101520, Note_on_c, 15, 55, 76
13, 101520, Note_on_c, 15, 71, 76
13, 101520, Note_on_c, 15, 67, 76
13, 101759, Note_on_c, 15, 74, 0
13, 101759, Note_on_c, 15, 55, 0
13, 101759, Note_on_c, 15, 71, 0
13, 101759, Note_on_c, 15, 67, 0
13, 101760, Note_on_c, 15, 60, 76
13, 101760, Note_on_c, 15, 79, 76
13, 101760, Note_on_c, 15, 76, 76
13, 101760, Note_on_c, 15, 72, 76
13, 101999, Note_on_c, 15, 60, 0
13, 101999, Note_on_c, 15, 79, 0
13, 101999, Note_on_c, 15, 76, 0
13, 101999, Note_on_c, 15, 72, 0
13, 102000, Note_on_c, 15, 71, 76
13, 102000, Note_on_c, 15, 55, 76
13, 102000, Note_on_c, 15, 67, 76
13, 102000, Note_on_c, 15, 74, 76
13, 102239, Note_on_c, 15, 71, 0
13, 102239, Note_on_c, 15, 55, 0
13, 102239, Note_on_c, 15, 67, 0
13, 102239, Note_on_c, 15, 74, 0
13, 102240, Note_on_c, 15, 48, 76
13, 102240, Note_on_c, 15, 60, 76
13, 102240, Note_on_c, 15, 67, 76
13, 102240, Note_on_c, 15, 64, 76
13, 102479, Note_on_c, 15, 48, 0
13, 102479, Note_on_c, 15, 60, 0
13, 102479, Note_on_c, 15, 67, 0
13, 102479, Note_on_c, 15, 64, 0
13, 102480, Note_on_c, 15, 53, 76
13, 102480, Note_on_c, 15, 65, 76
13, 102480, Note_on_c, 15, 69, 76
13, 102480, Note_on_c, 15, 72, 76
13, 102719, Note_on_c, 15, 53, 0
13, 102719, Note_on_c, 15, 65, 0
13, 102719, Note_on_c, 15, 69, 0
13, 102719, Note_on_c, 15, 72, 0
13, 102720, Note_on_c, 15, 64, 76
13, 102720, Note_on_c, 15, 52, 76
13, 102720, Note_on_c, 15, 67, 76
13, 102720, Note_on_c, 15, 72, 76
13, 102959, Note_on_c, 15, 64, 0
13, 102959, Note_on_c, 15, 52, 0
13, 102959, Note_on_c, 15, 67, 0
13, 102959, Note_on_c, 15, 72, 0
13, 102960, Note_on_c, 15, 62, 76
13, 102960, Note_on_c, 15, 65, 76
13, 102960, Note_on_c, 15, 50, 76
13, 102960, Note_on_c, 15, 69, 76
13, 103199, Note_on_c, 15, 62, 0
13, 103199, Note_on_c, 15, 65, 0
13, 103199, Note_on_c, 15, 50, 0
13, 103199, Note_on_c, 15, 69, 0
13, 103200, Note_on_c, 15, 67, 76
13, 103200, Note_on_c, 15, 72, 76
13, 103200, Note_on_c, 15, 52, 76
13, 103200, Note_on_c, 15, 64, 76
13, 103439, Note_on_c, 15, 67, 0
13, 103439, Note_on_c, 15, 72, 0
13, 103439, Note_on_c, 15, 52, 0
13, 103439, Note_on_c, 15, 64, 0
13, 103440, Note_on_c, 15, 53, 76
13, 103440, Note_on_c, 15, 72, 76
13, 103440, Note_on_c, 15, 69, 76
13, 103440, Note_on_c, 15, 65, 76
13, 103679, Note_on_c, 15, 53, 0
13, 103679, Note_on_c, 15, 72, 0
13, 103679, Note_on_c, 15, 69, 0
13, 103679, Note_on_c, 15, 65, 0
13, 103680, Note_on_c, 15, 71, 76
13, 103680, Note_on_c, 15, 74, 76
13, 103680, Note_on_c, 15, 55, 76
13, 103680, Note_on_c, 15, 67, 76
13, 103919, Note_on_c, 15, 71, 0
13, 103919, Note_on_c, 15, 74, 0
13, 103919, Note_on_c, 15, 55, 0
13, 103919, Note_on_c, 15, 67, 0
13, 103920, Note_on_c, 15, 76, 76
13, 103920, Note_on_c, 15, 72, 76
13, 103920, Note_on_c, 15, 69, 76
13, 103920, Note_on_c, 15, 57, 76
13, 104159, Note_on_c, 15, 76, 0
13, 104159, Note_on_c, 15, 72, 0
13, 104159, Note_on_c, 15, 69, 0
13, 104159, Note_on_c, 15, 57, 0
13, 104160, Note_on_c, 15, 71, 76
13, 104160, Note_on_c, 15, 59, 76
13, 104160, Note_on_c, 15, 74, 76
13, 104160, Note_on_c, 15, 79, 76
13, 104399, Note_on_c, 15, 71, 0
13, 104399, Note_on_c, 15, 59, 0
13, 104399, Note_on_c, 15, 74, 0
13, 104399, Note_on_c, 15, 79, 0
13, 104400, Note_on_c, 15, 72, 76
13, 104400, Note_on_c, 15, 79, 76
13, 104400, Note_on_c, 15, 60, 76
13, 104400, Note_on_c, 15, 76, 76
13, 104639, Note_on_c, 15, 72, 0
13, 104639, Note_on_c, 15, 79, 0
13, 104639, Note_on_c, 15, 60, 0
13, 104639, Note_on_c, 15, 76, 0
13, 104640, Note_on_c, 15, 74, 76
13, 104640, Note_on_c, 15, 79, 76
13, 104640, Note_on_c, 15, 59, 76
13, 104640, Note_on_c, 15, 71, 76
13, 104879, Note_on_c, 15, 74, 0
13, 104879, Note_on_c, 15, 79, 0
13, 104879, Note_on_c, 15, 59, 0
13, 104879, Note_on_c, 15, 71, 0
13, 104880, Note_on_c, 15, 57, 76
13, 104880, Note_on_c, 15, 69, 76
13, 104880, Note_on_c, 15, 72, 76
13, 104880, Note_on_c, 15, 76, 76
13, 105119, Note_on_c, 15, 57, 0
13, 105119, Note_on_c, 15, 69, 0
13, 105119, Note_on_c, 15, 72, 0
13, 105119, Note_on_c, 15, 76, 0
13, 105120, Note_on_c, 15, 67, 76
13, 105120, Note_on_c, 15, 71, 76
13, 105120, Note_on_c, 15, 74, 76
13, 105120, Note_on_c, 15, 55, 76
13, 105359, Note_on_c, 15, 67, 0
13, 105359, Note_on_c, 15, 71, 0
13, 105359, Note_on_c, 15, 74, 0
13, 105359, Note_on_c, 15, 55, 0
13, 105360, Note_on_c, 15, 72, 76
13, 105360, Note_on_c, 15, 66, 76
13, 105360, Note_on_c, 15, 54, 76
13, 105360, Note_on_c, 15, 69, 76
13, 105599, Note_on_c, 15, 72, 0
13, 105599, Note_on_c, 15, 66, 0
13, 105599, Note_on_c, 15, 54, 0
13, 105599, Note_on_c, 15, 69, 0
13, 105600, Note_on_c, 15, 67, 76
13, 105600, Note_on_c, 15, 52, 76
13, 105600, Note_on_c, 15, 64, 76
13, 105600, Note_on_c, 15, 71, 76
13, 105839, Note_on_c, 15, 67, 0
13, 105839, Note_on_c, 15, 52, 0
13, 105839, Note_on_c, 15, 64, 0
13, 105839, Note_on_c, 15, 71, 0
13, 105840, Note_on_c, 15, 65, 76
13, 105840, Note_on_c, 15, 62, 76
13, 105840, Note_on_c, 15, 69, 76
13, 105840, Note_on_c, 15, 50, 76
13, 106079, Note_on_c, 15, 65, 0
13, 106079, Note_on_c, 15, 62, 0
13, 106079, Note_on_c, 15, 69, 0
13, 106079, Note_on_c, 15, 50, 0
13, 106080, Note_on_c, 15, 52, 76
13, 106080, Note_on_c, 15, 71, 76
13, 106080, Note_on_c, 15, 67, 76
13, 106080, Note_on_c, 15, 64, 76
13, 106319, Note_on_c, 15, 52, 0
13, 106319, Note_on_c, 15, 71, 0
13, 106319, Note_on_c, 15, 67, 0
13, 106319, Note_on_c, 15, 64, 0
13, 106320, Note_on_c, 15, 66, 76
13, 106320, Note_on_c, 15, 74, 76
13, 106320, Note_on_c, 15, 69, 76
13, 106320, Note_on_c, 15, 54, 76
13, 106559, Note_on_c, 15, 66, 0
13, 106559, Note_on_c, 15, 74, 0
13, 106559, Note_on_c, 15, 69, 0
13, 106559, Note_on_c, 15, 54, 0
13, 106560, Note_on_c, 15, 71, 76
13, 106560, Note_on_c, 15, 55, 76
13, 106560, Note_on_c, 15, 74, 76
13, 106560, Note_on_c, 15, 67, 76
13, 106799, Note_on_c, 15, 71, 0
13, 106799, Note_on_c, 15, 55, 0
13, 106799, Note_on_c, 15, 74, 0
13, 106799, Note_on_c, 15, 67, 0
13, 106800, Note_on_c, 15, 48, 76
13, 106800, Note_on_c, 15, 67, 76
13, 106800, Note_on_c, 15, 64, 76
13, 106800, Note_on_c, 15, 69, 76
13, 106800, Note_on_c, 15, 60, 76
13, 107039, Note_on_c, 15, 48, 0
13, 107039, Note_on_c, 15, 67, 0
13, 107039, Note_on_c, 15, 64, 0
13, 107039, Note_on_c, 15, 69, 0
13, 107039, Note_on_c, 15, 60, 0
13, 107040, Note_on_c, 15, 67, 76
13, 107040, Note_on_c, 15, 62, 76
13, 107040, Note_on_c, 15, 69, 76
13, 107040, Note_on_c, 15, 50, 76
13, 107279, Note_on_c, 15, 67, 0
13, 107279, Note_on_c, 15, 62, 0
13, 107279, Note_on_c, 15, 69, 0
13, 107279, Note_on_c, 15, 50, 0
13, 107280, Note_on_c, 15, 50, 76
13, 107280, Note_on_c, 15, 57, 76
13, 107280, Note_on_c, 15, 38, 76
13, 107280, Note_on_c, 15, 54, 76
13, 107519, Note_on_c, 15, 50, 0
13, 107519, Note_on_c, 15, 57, 0
13, 107519, Note_on_c, 15, 38, 0
13, 107519, Note_on_c, 15, 54, 0
13, 107520, Note_on_c, 15, 59, 76
13, 107520, Note_on_c, 15, 62, 76
13, 107520, Note_on_c, 15, 55, 76
13, 107520, Note_on_c, 15, 43, 76
13, 107759, Note_on_c, 15, 59, 0
13, 107759, Note_on_c, 15, 62, 0
13, 107759, Note_on_c, 15, 55, 0
13, 107759, Note_on_c, 15, 43, 0
13, 107760, Note_on_c, 15, 62, 76
13, 107760, Note_on_c, 15, 65, 76
13, 107760, Note_on_c, 15, 50, 76
13, 107760, Note_on_c, 15, 69, 76
13, 107999, Note_on_c, 15, 62, 0
13, 107999, Note_on_c, 15, 65, 0
13, 107999, Note_on_c, 15, 50, 0
13, 107999, Note_on_c, 15, 69, 0
13, 108000, Note_on_c, 15, 55, 76
13, 108000, Note_on_c, 15, 74, 76
13, 108000, Note_on_c, 15, 71, 76
13, 108000, Note_on_c, 15, 67, 76
13, 108239, Note_on_c, 15, 55, 0
13, 108239, Note_on_c, 15, 74, 0
13, 108239, Note_on_c, 15, 71, 0
13, 108239, Note_on_c, 15, 67, 0
13, 108720, Note_on_c, 15, 55, 76
13, 108720, Note_on_c, 15, 67, 76
13, 108720, Note_on_c, 15, 74, 76
13, 108720, Note_on_c, 15, 71, 76
13, 108839, Note_on_c, 15, 55, 0
13, 108839, Note_on_c, 15, 67, 0
13, 108839, Note_on_c, 15, 74, 0
13, 108839, Note_on_c, 15, 71, 0
13, 108840, Note_on_c, 15, 53, 76
13, 108840, Note_on_c, 15, 65, 76
13, 108840, Note_on_c, 15, 69, 76
13, 108840, Note_on_c, 15, 72, 76
13, 108959, Note_on_c, 15, 53, 0
13, 108959, Note_on_c, 15, 65, 0
13, 108959, Note_on_c, 15, 69, 0
13, 108959, Note_on_c, 15, 72, 0
13, 108960, Note_on_c, 15, 71, 76
13, 108960, Note_on_c, 15, 52, 76
13, 108960, Note_on_c, 15, 67, 76
13, 108960, Note_on_c, 15, 64, 76
13, 109199, Note_on_c, 15, 71, 0
13, 109199, Note_on_c, 15, 52, 0
13, 109199, Note_on_c, 15, 67, 0
13, 109199, Note_on_c, 15, 64, 0
13, 109200, Note_on_c, 15, 67, 76
13, 109200, Note_on_c, 15, 74, 76
13, 109200, Note_on_c, 15, 55, 76
13, 109200, Note_on_c, 15, 70, 76
13, 109439, Note_on_c, 15, 67, 0
13, 109439, Note_on_c, 15, 74, 0
13, 109439, Note_on_c, 15, 55, 0
13, 109439, Note_on_c, 15, 70, 0
13, 109440, Note_on_c, 15, 69, 76
13, 109440, Note_on_c, 15, 73, 76
13, 109440, Note_on_c, 15, 57, 76
13, 109440, Note_on_c, 15, 76, 76
13, 109679, Note_on_c, 15, 69, 0
13, 109679, Note_on_c, 15, 73, 0
13, 109679, Note_on_c, 15, 57, 0
13, 109679, Note_on_c, 15, 76, 0
13, 109680, Note_on_c, 15, 57, 76
13, 109680, Note_on_c, 15, 64, 76
13, 109680, Note_on_c, 15, 61, 76
13, 109680, Note_on_c, 15, 45, 76
13, 109919, Note_on_c, 15, 57, 0
13, 109919, Note_on_c, 15, 64, 0
13, 109919, Note_on_c, 15, 61, 0
13, 109919, Note_on_c, 15, 45, 0
13, 109920, Note_on_c, 15, 73, 76
13, 109920, Note_on_c, 15, 57, 76
13, 109920, Note_on_c, 15, 76, 76
13, 109920, Note_on_c, 15, 69, 76
13, 110159, Note_on_c, 15, 73, 0
13, 110159, Note_on_c, 15, 57, 0
13, 110159, Note_on_c, 15, 76, 0
13, 110159, Note_on_c, 15, 69, 0
13, 110160, Note_on_c, 15, 67, 76
13, 110160, Note_on_c, 15, 71, 76
13, 110160, Note_on_c, 15, 74, 76
13, 110160, Note_on_c, 15, 55, 76
13, 110399, Note_on_c, 15, 67, 0
13, 110399, Note_on_c, 15, 71, 0
13, 110399, Note_on_c, 15, 74, 0
13, 110399, Note_on_c, 15, 55, 0
13, 110400, Note_on_c, 15, 69, 76
13, 110400, Note_on_c, 15, 53, 76
13, 110400, Note_on_c, 15, 74, 76
13, 110400, Note_on_c, 15, 65, 76
13, 110639, Note_on_c, 15, 69, 0
13, 110639, Note_on_c, 15, 53, 0
13, 110639, Note_on_c, 15, 74, 0
13, 110639, Note_on_c, 15, 65, 0
13, 110640, Note_on_c, 15, 55, 76
13, 110640, Note_on_c, 15, 76, 76
13, 110640, Note_on_c, 15, 71, 76
13, 110640, Note_on_c, 15, 67, 76
13, 110879, Note_on_c, 15, 55, 0
13, 110879, Note_on_c, 15, 76, 0
13, 110879, Note_on_c, 15, 71, 0
13, 110879, Note_on_c, 15, 67, 0
13, 110880, Note_on_c, 15, 73, 76
13, 110880, Note_on_c, 15, 57, 76
13, 110880, Note_on_c, 15, 69, 76
13, 110880, Note_on_c, 15, 76, 76
13, 111119, Note_on_c, 15, 73, 0
13, 111119, Note_on_c, 15, 57, 0
13, 111119, Note_on_c, 15, 69, 0
13, 111119, Note_on_c, 15, 76, 0
13, 111120, Note_on_c, 15, 61, 76
13, 111120, Note_on_c, 15, 45, 76
13, 111120, Note_on_c, 15, 57, 76
13, 111120, Note_on_c, 15, 64, 76
13, 111359, Note_on_c, 15, 61, 0
13, 111359, Note_on_c, 15, 45, 0
13, 111359, Note_on_c, 15, 57, 0
13, 111359, Note_on_c, 15, 64, 0
13, 111360, Note_on_c, 15, 65, 76
13, 111360, Note_on_c, 15, 62, 76
13, 111360, Note_on_c, 15, 50, 76
13, 111360, Note_on_c, 15, 69, 76
13, 111599, Note_on_c, 15, 65, 0
13, 111599, Note_on_c, 15, 62, 0
13, 111599, Note_on_c, 15, 50, 0
13, 111599, Note_on_c, 15, 69, 0
13, 111600, Note_on_c, 15, 57, 76
13, 111600, Note_on_c, 15, 45, 76
13, 111600, Note_on_c, 15, 64, 76
13, 111600, Note_on_c, 15, 60, 76
13, 111839, Note_on_c, 15, 57, 0
13, 111839, Note_on_c, 15, 45, 0
13, 111839, Note_on_c, 15, 64, 0
13, 111839, Note_on_c, 15, 60, 0
13, 111840, Note_on_c, 15, 50, 76
13, 111840, Note_on_c, 15, 53, 76
13, 111840, Note_on_c, 15, 57, 76
13, 111840, Note_on_c, 15, 38, 76
13, 112079, Note_on_c, 15, 50, 0
13, 112079, Note_on_c, 15, 53, 0
13, 112079, Note_on_c, 15, 57, 0
13, 112079, Note_on_c, 15, 38, 0
13, 112080, Note_on_c, 15, 56, 76
13, 112080, Note_on_c, 15, 74, 76
13, 112080, Note_on_c, 15, 71, 76
13, 112080, Note_on_c, 15, 68, 76
13, 112199, Note_on_c, 15, 56, 0
13, 112199, Note_on_c, 15, 74, 0
13, 112199, Note_on_c, 15, 71, 0
13, 112199, Note_on_c, 15, 68, 0
13, 112200, Note_on_c, 15, 57, 76
13, 112200, Note_on_c, 15, 69, 76
13, 112200, Note_on_c, 15, 72, 76
13, 112200, Note_on_c, 15, 76, 76
13, 112319, Note_on_c, 15, 57, 0
13, 112319, Note_on_c, 15, 69, 0
13, 112319, Note_on_c, 15, 72, 0
13, 112319, Note_on_c, 15, 76, 0
13, 112320, Note_on_c, 15, 59, 76
13, 112320, Note_on_c, 15, 71, 76
13, 112320, Note_on_c, 15, 74, 76
13, 112320, Note_on_c, 15, 79, 76
13, 112559, Note_on_c, 15, 59, 0
13, 112559, Note_on_c, 15, 71, 0
13, 112559, Note_on_c, 15, 74, 0
13, 112559, Note_on_c, 15, 79, 0
13, 112560, Note_on_c, 15, 59, 76
13, 112560, Note_on_c, 15, 80, 76
13, 112560, Note_on_c, 15, 71, 76
13, 112560, Note_on_c, 15, 74, 76
13, 112679, Note_on_c, 15, 59, 0
13, 112679, Note_on_c, 15, 80, 0
13, 112679, Note_on_c, 15, 71, 0
13, 112679, Note_on_c, 15, 74, 0
13, 112680, Note_on_c, 15, 60, 76
13, 112680, Note_on_c, 15, 80, 76
13, 112680, Note_on_c, 15, 76, 76
13, 112680, Note_on_c, 15, 72, 76
13, 112799, Note_on_c, 15, 60, 0
13, 112799, Note_on_c, 15, 80, 0
13, 112799, Note_on_c, 15, 76, 0
13, 112799, Note_on_c, 15, 72, 0
13, 112800, Note_on_c, 15, 80, 76
13, 112800, Note_on_c, 15, 77, 76
13, 112800, Note_on_c, 15, 74, 76
13, 112800, Note_on_c, 15, 62, 76
13, 113039, Note_on_c, 15, 80, 0
13, 113039, Note_on_c, 15, 77, 0
13, 113039, Note_on_c, 15, 74, 0
13, 113039, Note_on_c, 15, 62, 0
13, 114000, Note_on_c, 15, 64, 76
13, 114000, Note_on_c, 15, 68, 76
13, 114000, Note_on_c, 15, 71, 76
13, 114000, Note_on_c, 15, 50, 76
13, 114000, Note_on_c, 15, 62, 76
13, 114239, Note_on_c, 15, 64, 0
13, 114239, Note_on_c, 15, 68, 0
13, 114239, Note_on_c, 15, 71, 0
13, 114239, Note_on_c, 15, 50, 0
13, 114239, Note_on_c, 15, 62, 0
13, 114240, Note_on_c, 15, 69, 76
13, 114240, Note_on_c, 15, 64, 76
13, 114240, Note_on_c, 15, 60, 76
13, 114240, Note_on_c, 15, 48, 76
13, 114359, Note_on_c, 15, 69, 0
13, 114359, Note_on_c, 15, 64, 0
13, 114359, Note_on_c, 15, 60, 0
13, 114359, Note_on_c, 15, 48, 0
13, 114360, Note_on_c, 15, 62, 76
13, 114360, Note_on_c, 15, 65, 76
13, 114360, Note_on_c, 15, 59, 76
13, 114360, Note_on_c, 15, 47, 76
13, 114479, Note_on_c, 15, 62, 0
13, 114479, Note_on_c, 15, 65, 0
13, 114479, Note_on_c, 15, 59, 0
13, 114479, Note_on_c, 15, 47, 0
13, 114480, Note_on_c, 15, 48, 76
13, 114480, Note_on_c, 15, 64, 76
13, 114480, Note_on_c, 15, 60, 76
13, 114480, Note_on_c, 15, 69, 76
13, 114599, Note_on_c, 15, 48, 0
13, 114599, Note_on_c, 15, 64, 0
13, 114599, Note_on_c, 15, 60, 0
13, 114599, Note_on_c, 15, 69, 0
13, 114600, Note_on_c, 15, 69, 76
13, 114600, Note_on_c, 15, 62, 76
13, 114600, Note_on_c, 15, 65, 76
13, 114600, Note_on_c, 15, 50, 76
13, 114719, Note_on_c, 15, 69, 0
13, 114719, Note_on_c, 15, 62, 0
13, 114719, Note_on_c, 15, 65, 0
13, 114719, Note_on_c, 15, 50, 0
13, 114720, Note_on_c, 15, 68, 76
13, 114720, Note_on_c, 15, 52, 76
13, 114720, Note_on_c, 15, 64, 76
13, 114720, Note_on_c, 15, 71, 76
13, 114959, Note_on_c, 15, 68, 0
13, 114959, Note_on_c, 15, 52, 0
13, 114959, Note_on_c, 15, 64, 0
13, 114959, Note_on_c, 15, 71, 0
13, 114960, Note_on_c, 15, 59, 76
13, 114960, Note_on_c, 15, 40, 76
13, 114960, Note_on_c, 15, 52, 76
13, 114960, Note_on_c, 15, 56, 76
13, 115199, Note_on_c, 15, 59, 0
13, 115199, Note_on_c, 15, 40, 0
13, 115199, Note_on_c, 15, 52, 0
13, 115199, Note_on_c, 15, 56, 0
13, 115200, Note_on_c, 15, 64, 76
13, 115200, Note_on_c, 15, 57, 76
13, 115200, Note_on_c, 15, 60, 76
13, 115200, Note_on_c, 15, 45, 76
13, 115439, Note_on_c, 15, 64, 0
13, 115439, Note_on_c, 15, 57, 0
13, 115439, Note_on_c, 15, 60, 0
13, 115439, Note_on_c, 15, 45, 0
13, 115440, Note_on_c, 15, 52, 76
13, 115440, Note_on_c, 15, 71, 76
13, 115440, Note_on_c, 15, 67, 76
13, 115440, Note_on_c, 15, 64, 76
13, 115679, Note_on_c, 15, 52, 0
13, 115679, Note_on_c, 15, 71, 0
13, 115679, Note_on_c, 15, 67, 0
13, 115679, Note_on_c, 15, 64, 0
13, 115680, Note_on_c, 15, 57, 76
13, 115680, Note_on_c, 15, 69, 76
13, 115680, Note_on_c, 15, 76, 76
13, 115680, Note_on_c, 15, 72, 76
13, 115919, Note_on_c, 15, 57, 0
13, 115919, Note_on_c, 15, 69, 0
13, 115919, Note_on_c, 15, 76, 0
13, 115919, Note_on_c, 15, 72, 0
13, 116400, Note_on_c, 15, 48, 76
13, 116400, Note_on_c, 15, 67, 76
13, 116400, Note_on_c, 15, 64, 76
13, 116400, Note_on_c, 15, 60, 76
13, 116519, Note_on_c, 15, 48, 0
13, 116519, Note_on_c, 15, 67, 0
13, 116519, Note_on_c, 15, 64, 0
13, 116519, Note_on_c, 15, 60, 0
13, 116520, Note_on_c, 15, 65, 76
13, 116520, Note_on_c, 15, 62, 76
13, 116520, Note_on_c, 15, 50, 76
13, 116520, Note_on_c, 15, 69, 76
13, 116639, Note_on_c, 15, 65, 0
13, 116639, Note_on_c, 15, 62, 0
13, 116639, Note_on_c, 15, 50, 0
13, 116639, Note_on_c, 15, 69, 0
13, 116640, Note_on_c, 15, 64, 76
13, 116640, Note_on_c, 15, 52, 76
13, 116640, Note_on_c, 15, 72, 76
13, 116640, Note_on_c, 15, 67, 76
13, 116879, Note_on_c, 15, 64, 0
13, 116879, Note_on_c, 15, 52, 0
13, 116879, Note_on_c, 15, 72, 0
13, 116879, Note_on_c, 15, 67, 0
13, 116880, Note_on_c, 15, 64, 76
13, 116880, Note_on_c, 15, 52, 76
13, 116880, Note_on_c, 15, 72, 76
13, 116880, Note_on_c, 15, 67, 76
13, 116999, Note_on_c, 15, 64, 0
13, 116999, Note_on_c, 15, 52, 0
13, 116999, Note_on_c, 15, 72, 0
13, 116999, Note_on_c, 15, 67, 0
13, 117000, Note_on_c, 15, 65, 76
13, 117000, Note_on_c, 15, 72, 76
13, 117000, Note_on_c, 15, 53, 76
13, 117000, Note_on_c, 15, 69, 76
13, 117119, Note_on_c, 15, 65, 0
13, 117119, Note_on_c, 15, 72, 0
13, 117119, Note_on_c, 15, 53, 0
13, 117119, Note_on_c, 15, 69, 0
13, 117120, Note_on_c, 15, 70, 76
13, 117120, Note_on_c, 15, 67, 76
13, 117120, Note_on_c, 15, 55, 76
13, 117120, Note_on_c, 15, 76, 76
13, 117359, Note_on_c, 15, 70, 0
13, 117359, Note_on_c, 15, 67, 0
13, 117359, Note_on_c, 15, 55, 0
13, 117359, Note_on_c, 15, 76, 0
13, 117360, Note_on_c, 15, 76, 76
13, 117360, Note_on_c, 15, 55, 76
13, 117360, Note_on_c, 15, 70, 76
13, 117360, Note_on_c, 15, 67, 76
13, 117479, Note_on_c, 15, 76, 0
13, 117479, Note_on_c, 15, 55, 0
13, 117479, Note_on_c, 15, 70, 0
13, 117479, Note_on_c, 15, 67, 0
13, 117480, Note_on_c, 15, 72, 76
13, 117480, Note_on_c, 15, 76, 76
13, 117480, Note_on_c, 15, 57, 76
13, 117480, Note_on_c, 15, 69, 76
13, 117599, Note_on_c, 15, 72, 0
13, 117599, Note_on_c, 15, 76, 0
13, 117599, Note_on_c, 15, 57, 0
13, 117599, Note_on_c, 15, 69, 0
13, 117600, Note_on_c, 15, 70, 76
13, 117600, Note_on_c, 15, 77, 76
13, 117600, Note_on_c, 15, 58, 76
13, 117600, Note_on_c, 15, 74, 76
13, 117839, Note_on_c, 15, 70, 0
13, 117839, Note_on_c, 15, 77, 0
13, 117839, Note_on_c, 15, 58, 0
13, 117839, Note_on_c, 15, 74, 0
13, 117840, Note_on_c, 15, 70, 76
13, 117840, Note_on_c, 15, 72, 76
13, 117840, Note_on_c, 15, 64, 76
13, 117840, Note_on_c, 15, 67, 76
13, 117840, Note_on_c, 15, 52, 76
13, 118079, Note_on_c, 15, 70, 0
13, 118079, Note_on_c, 15, 72, 0
13, 118079, Note_on_c, 15, 64, 0
13, 118079, Note_on_c, 15, 67, 0
13, 118079, Note_on_c, 15, 52, 0
13, 118080, Note_on_c, 15, 65, 76
13, 118080, Note_on_c, 15, 53, 76
13, 118080, Note_on_c, 15, 72, 76
13, 118080, Note_on_c, 15, 69, 76
13, 118319, Note_on_c, 15, 65, 0
13, 118319, Note_on_c, 15, 53, 0
13, 118319, Note_on_c, 15, 72, 0
13, 118319, Note_on_c, 15, 69, 0
13, 118320, Note_on_c, 15, 58, 76
13, 118320, Note_on_c, 15, 46, 76
13, 118320, Note_on_c, 15, 65, 76
13, 118320, Note_on_c, 15, 62, 76
13, 118559, Note_on_c, 15, 58, 0
13, 118559, Note_on_c, 15, 46, 0
13, 118559, Note_on_c, 15, 65, 0
13, 118559, Note_on_c, 15, 62, 0
13, 118560, Note_on_c, 15, 43, 76
13, 118560, Note_on_c, 15, 58, 76
13, 118560, Note_on_c, 15, 62, 76
13, 118560, Note_on_c, 15, 55, 76
13, 118560, Note_on_c, 15, 65, 76
13, 118799, Note_on_c, 15, 43, 0
13, 118799, Note_on_c, 15, 58, 0
13, 118799, Note_on_c, 15, 62, 0
13, 118799, Note_on_c, 15, 55, 0
13, 118799, Note_on_c, 15, 65, 0
13, 118800, Note_on_c, 15, 70, 76
13, 118800, Note_on_c, 15, 67, 76
13, 118800, Note_on_c, 15, 64, 76
13, 118800, Note_on_c, 15, 48, 76
13, 118800, Note_on_c, 15, 60, 76
13, 119039, Note_on_c, 15, 70, 0
13, 119039, Note_on_c, 15, 67, 0
13, 119039, Note_on_c, 15, 64, 0
13, 119039, Note_on_c, 15, 48, 0
13, 119039, Note_on_c, 15, 60, 0
13, 119040, Note_on_c, 15, 60, 76
13, 119040, Note_on_c, 15, 53, 76
13, 119040, Note_on_c, 15, 41, 76
13, 119040, Note_on_c, 15, 57, 76
13, 119279, Note_on_c, 15, 60, 0
13, 119279, Note_on_c, 15, 53, 0
13, 119279, Note_on_c, 15, 41, 0
13, 119279, Note_on_c, 15, 57, 0
13, 119280, Note_on_c, 15, 53, 76
13, 119280, Note_on_c, 15, 72, 76
13, 119280, Note_on_c, 15, 69, 76
13, 119280, Note_on_c, 15, 65, 76
13, 119399, Note_on_c, 15, 53, 0
13, 119399, Note_on_c, 15, 72, 0
13, 119399, Note_on_c, 15, 69, 0
13, 119399, Note_on_c, 15, 65, 0
13, 119400, Note_on_c, 15, 67, 76
13, 119400, Note_on_c, 15, 71, 76
13, 119400, Note_on_c, 15, 74, 76
13, 119400, Note_on_c, 15, 55, 76
13, 119519, Note_on_c, 15, 67, 0
13, 119519, Note_on_c, 15, 71, 0
13, 119519, Note_on_c, 15, 74, 0
13, 119519, Note_on_c, 15, 55, 0
13, 119520, Note_on_c, 15, 77, 76
13, 119520, Note_on_c, 15, 69, 76
13, 119520, Note_on_c, 15, 72, 76
13, 119520, Note_on_c, 15, 57, 76
13, 119639, Note_on_c, 15, 77, 0
13, 119639, Note_on_c, 15, 69, 0
13, 119639, Note_on_c, 15, 72, 0
13, 119639, Note_on_c, 15, 57, 0
13, 119640, Note_on_c, 15, 74, 76
13, 119640, Note_on_c, 15, 77, 76
13, 119640, Note_on_c, 15, 58, 76
13, 119640, Note_on_c, 15, 70, 76
13, 119759, Note_on_c, 15, 74, 0
13, 119759, Note_on_c, 15, 77, 0
13, 119759, Note_on_c, 15, 58, 0
13, 119759, Note_on_c, 15, 70, 0
13, 119760, Note_on_c, 15, 77, 76
13, 119760, Note_on_c, 15, 72, 76
13, 119760, Note_on_c, 15, 69, 76
13, 119760, Note_on_c, 15, 57, 76
13, 119879, Note_on_c, 15, 77, 0
13, 119879, Note_on_c, 15, 72, 0
13, 119879, Note_on_c, 15, 69, 0
13, 119879, Note_on_c, 15, 57, 0
13, 119880, Note_on_c, 15, 55, 76
13, 119880, Note_on_c, 15, 67, 76
13, 119880, Note_on_c, 15, 70, 76
13, 119880, Note_on_c, 15, 74, 76
13, 119999, Note_on_c, 15, 55, 0
13, 119999, Note_on_c, 15, 67, 0
13, 119999, Note_on_c, 15, 70, 0
13, 119999, Note_on_c, 15, 74, 0
13, 120000, Note_on_c, 15, 53, 76
13, 120000, Note_on_c, 15, 72, 76
13, 120000, Note_on_c, 15, 65, 76
13, 120000, Note_on_c, 15, 69, 76
13, 120119, Note_on_c, 15, 53, 0
13, 120119, Note_on_c, 15, 72, 0
13, 120119, Note_on_c, 15, 65, 0
13, 120119, Note_on_c, 15, 69, 0
13, 120120, Note_on_c, 15, 67, 76
13, 120120, Note_on_c, 15, 55, 76
13, 120120, Note_on_c, 15, 71, 76
13, 120120, Note_on_c, 15, 74, 76
13, 120239, Note_on_c, 15, 67, 0
13, 120239, Note_on_c, 15, 55, 0
13, 120239, Note_on_c, 15, 71, 0
13, 120239, Note_on_c, 15, 74, 0
13, 120240, Note_on_c, 15, 69, 76
13, 120240, Note_on_c, 15, 65, 76
13, 120240, Note_on_c, 15, 72, 76
13, 120240, Note_on_c, 15, 53, 76
13, 120359, Note_on_c, 15, 69, 0
13, 120359, Note_on_c, 15, 65, 0
13, 120359, Note_on_c, 15, 72, 0
13, 120359, Note_on_c, 15, 53, 0
13, 120360, Note_on_c, 15, 64, 76
13, 120360, Note_on_c, 15, 67, 76
13, 120360, Note_on_c, 15, 71, 76
13, 120360, Note_on_c, 15, 52, 76
13, 120479, Note_on_c, 15, 64, 0
13, 120479, Note_on_c, 15, 67, 0
13, 120479, Note_on_c, 15, 71, 0
13, 120479, Note_on_c, 15, 52, 0
13, 120480, Note_on_c, 15, 50, 76
13, 120480, Note_on_c, 15, 65, 76
13, 120480, Note_on_c, 15, 62, 76
13, 120599, Note_on_c, 15, 50, 0
13, 120599, Note_on_c, 15, 65, 0
13, 120599, Note_on_c, 15, 62, 0
13, 120600, Note_on_c, 15, 52, 76
13, 120600, Note_on_c, 15, 71, 76
13, 120600, Note_on_c, 15, 64, 76
13, 120600, Note_on_c, 15, 67, 76
13, 120719, Note_on_c, 15, 52, 0
13, 120719, Note_on_c, 15, 71, 0
13, 120719, Note_on_c, 15, 64, 0
13, 120719, Note_on_c, 15, 67, 0
13, 120720, Note_on_c, 15, 65, 76
13, 120720, Note_on_c, 15, 50, 76
13, 120720, Note_on_c, 15, 62, 76
13, 120839, Note_on_c, 15, 65, 0
13, 120839, Note_on_c, 15, 50, 0
13, 120839, Note_on_c, 15, 62, 0
13, 120840, Note_on_c, 15, 48, 76
13, 120840, Note_on_c, 15, 64, 76
13, 120840, Note_on_c, 15, 60, 76
13, 120840, Note_on_c, 15, 67, 76
13, 120959, Note_on_c, 15, 48, 0
13, 120959, Note_on_c, 15, 64, 0
13, 120959, Note_on_c, 15, 60, 0
13, 120959, Note_on_c, 15, 67, 0
13, 120960, Note_on_c, 15, 59, 76
13, 120960, Note_on_c, 15, 65, 76
13, 120960, Note_on_c, 15, 47, 76
13, 120960, Note_on_c, 15, 62, 76
13, 121079, Note_on_c, 15, 59, 0
13, 121079, Note_on_c, 15, 65, 0
13, 121079, Note_on_c, 15, 47, 0
13, 121079, Note_on_c, 15, 62, 0
13, 121080, Note_on_c, 15, 64, 76
13, 121080, Note_on_c, 15, 60, 76
13, 121080, Note_on_c, 15, 67, 76
13, 121080, Note_on_c, 15, 48, 76
13, 121199, Note_on_c, 15, 64, 0
13, 121199, Note_on_c, 15, 60, 0
13, 121199, Note_on_c, 15, 67, 0
13, 121199, Note_on_c, 15, 48, 0
13, 121200, Note_on_c, 15, 59, 76
13, 121200, Note_on_c, 15, 47, 76
13, 121200, Note_on_c, 15, 65, 76
13, 121200, Note_on_c, 15, 62, 76
13, 121319, Note_on_c, 15, 59, 0
13, 121319, Note_on_c, 15, 47, 0
13, 121319, Note_on_c, 15, 65, 0
13, 121319, Note_on_c, 15, 62, 0
13, 121320, Note_on_c, 15, 60, 76
13, 121320, Note_on_c, 15, 64, 76
13, 121320, Note_on_c, 15, 57, 76
13, 121320, Note_on_c, 15, 45, 76
13, 121439, Note_on_c, 15, 60, 0
13, 121439, Note_on_c, 15, 64, 0
13, 121439, Note_on_c, 15, 57, 0
13, 121439, Note_on_c, 15, 45, 0
13, 121440, Note_on_c, 15, 55, 76
13, 121440, Note_on_c, 15, 59, 76
13, 121440, Note_on_c, 15, 43, 76
13, 121440, Note_on_c, 15, 62, 76
13, 121559, Note_on_c, 15, 55, 0
13, 121559, Note_on_c, 15, 59, 0
13, 121559, Note_on_c, 15, 43, 0
13, 121559, Note_on_c, 15, 62, 0
13, 121560, Note_on_c, 15, 60, 76
13, 121560, Note_on_c, 15, 45, 76
13, 121560, Note_on_c, 15, 64, 76
13, 121560, Note_on_c, 15, 57, 76
13, 121679, Note_on_c, 15, 60, 0
13, 121679, Note_on_c, 15, 45, 0
13, 121679, Note_on_c, 15, 64, 0
13, 121679, Note_on_c, 15, 57, 0
13, 121680, Note_on_c, 15, 62, 76
13, 121680, Note_on_c, 15, 43, 76
13, 121680, Note_on_c, 15, 55, 76
13, 121680, Note_on_c, 15, 59, 76
13, 121799, Note_on_c, 15, 62, 0
13, 121799, Note_on_c, 15, 43, 0
13, 121799, Note_on_c, 15, 55, 0
13, 121799, Note_on_c, 15, 59, 0
13, 121800, Note_on_c, 15, 57, 76
13, 121800, Note_on_c, 15, 60, 76
13, 121800, Note_on_c, 15, 41, 76
13, 121800, Note_on_c, 15, 53, 76
13, 121919, Note_on_c, 15, 57, 0
13, 121919, Note_on_c, 15, 60, 0
13, 121919, Note_on_c, 15, 41, 0
13, 121919, Note_on_c, 15, 53, 0
13, 121920, Note_on_c, 15, 52, 76
13, 121920, Note_on_c, 15, 40, 76
13, 121920, Note_on_c, 15, 55, 76
13, 121920, Note_on_c, 15, 59, 76
13, 122159, Note_on_c, 15, 52, 0
13, 122159, Note_on_c, 15, 40, 0
13, 122159, Note_on_c, 15, 55, 0
13, 122159, Note_on_c, 15, 59, 0
13, 122160, Note_on_c, 15, 60, 76
13, 122160, Note_on_c, 15, 41, 76
13, 122160, Note_on_c, 15, 53, 76
13, 122160, Note_on_c, 15, 57, 76
13, 122399, Note_on_c, 15, 60, 0
13, 122399, Note_on_c, 15, 41, 0
13, 122399, Note_on_c, 15, 53, 0
13, 122399, Note_on_c, 15, 57, 0
13, 122400, Note_on_c, 15, 55, 76
13, 122400, Note_on_c, 15, 62, 76
13, 122400, Note_on_c, 15, 59, 76
13, 122400, Note_on_c, 15, 43, 76
13, 122639, Note_on_c, 15, 55, 0
13, 122639, Note_on_c, 15, 62, 0
13, 122639, Note_on_c, 15, 59, 0
13, 122639, Note_on_c, 15, 43, 0
13, 122640, Note_on_c, 15, 59, 76
13, 122640, Note_on_c, 15, 62, 76
13, 122640, Note_on_c, 15, 43, 76
13, 122640, Note_on_c, 15, 55, 76
13, 122879, Note_on_c, 15, 59, 0
13, 122879, Note_on_c, 15, 62, 0
13, 122879, Note_on_c, 15, 43, 0
13, 122879, Note_on_c, 15, 55, 0
13, 122880, Note_on_c, 15, 55, 76
13, 122880, Note_on_c, 15, 52, 76
13, 122880, Note_on_c, 15, 36, 76
13, 122880, Note_on_c, 15, 48, 76
13, 123599, Note_on_c, 15, 55, 0
13, 123599, Note_on_c, 15, 52, 0
13, 123599, Note_on_c, 15, 36, 0
13, 123599, Note_on_c, 15, 48, 0
13, 124080, Note_on_c, 15, 55, 76
13, 124080, Note_on_c, 15, 71, 76
13, 124080, Note_on_c, 15, 67, 76
13, 124080, Note_on_c, 15, 74, 76
13, 124199, Note_on_c, 15, 55, 0
13, 124199, Note_on_c, 15, 71, 0
13, 124199, Note_on_c, 15, 67, 0
13, 124199, Note_on_c, 15, 74, 0
13, 124200, Note_on_c, 15, 65, 76
13, 124200, Note_on_c, 15, 69, 76
13, 124200, Note_on_c, 15, 72, 76
13, 124200, Note_on_c, 15, 53, 76
13, 124319, Note_on_c, 15, 65, 0
13, 124319, Note_on_c, 15, 69, 0
13, 124319, Note_on_c, 15, 72, 0
13, 124319, Note_on_c, 15, 53, 0
13, 124320, Note_on_c, 15, 52, 76
13, 124320, Note_on_c, 15, 64, 76
13, 124320, Note_on_c, 15, 67, 76
13, 124320, Note_on_c, 15, 71, 76
13, 124559, Note_on_c, 15, 52, 0
13, 124559, Note_on_c, 15, 64, 0
13, 124559, Note_on_c, 15, 67, 0
13, 124559, Note_on_c, 15, 71, 0
13, 124560, Note_on_c, 15, 70, 76
13, 124560, Note_on_c, 15, 74, 76
13, 124560, Note_on_c, 15, 55, 76
13, 124560, Note_on_c, 15, 67, 76
13, 124799, Note_on_c, 15, 70, 0
13, 124799, Note_on_c, 15, 74, 0
13, 124799, Note_on_c, 15, 55, 0
13, 124799, Note_on_c, 15, 67, 0
13, 124800, Note_on_c, 15, 73, 76
13, 124800, Note_on_c, 15, 76, 76
13, 124800, Note_on_c, 15, 57, 76
13, 124800, Note_on_c, 15, 69, 76
13, 125039, Note_on_c, 15, 73, 0
13, 125039, Note_on_c, 15, 76, 0
13, 125039, Note_on_c, 15, 57, 0
13, 125039, Note_on_c, 15, 69, 0
13, 125040, Note_on_c, 15, 45, 76
13, 125040, Note_on_c, 15, 61, 76
13, 125040, Note_on_c, 15, 64, 76
13, 125040, Note_on_c, 15, 57, 76
13, 125279, Note_on_c, 15, 45, 0
13, 125279, Note_on_c, 15, 61, 0
13, 125279, Note_on_c, 15, 64, 0
13, 125279, Note_on_c, 15, 57, 0
13, 125280, Note_on_c, 15, 73, 76
13, 125280, Note_on_c, 15, 69, 76
13, 125280, Note_on_c, 15, 57, 76
13, 125280, Note_on_c, 15, 76, 76
13, 125519, Note_on_c, 15, 73, 0
13, 125519, Note_on_c, 15, 69, 0
13, 125519, Note_on_c, 15, 57, 0
13, 125519, Note_on_c, 15, 76, 0
13, 125520, Note_on_c, 15, 55, 76
13, 125520, Note_on_c, 15, 74, 76
13, 125520, Note_on_c, 15, 67, 76
13, 125520, Note_on_c, 15, 71, 76
13, 125759, Note_on_c, 15, 55, 0
13, 125759, Note_on_c, 15, 74, 0
13, 125759, Note_on_c, 15, 67, 0
13, 125759, Note_on_c, 15, 71, 0
13, 125760, Note_on_c, 15, 65, 76
13, 125760, Note_on_c, 15, 53, 76
13, 125760, Note_on_c, 15, 69, 76
13, 125760, Note_on_c, 15, 74, 76
13, 125999, Note_on_c, 15, 65, 0
13, 125999, Note_on_c, 15, 53, 0
13, 125999, Note_on_c, 15, 69, 0
13, 125999, Note_on_c, 15, 74, 0
13, 126000, Note_on_c, 15, 71, 76
13, 126000, Note_on_c, 15, 76, 76
13, 126000, Note_on_c, 15, 67, 76
13, 126000, Note_on_c, 15, 55, 76
13, 126239, Note_on_c, 15, 71, 0
13, 126239, Note_on_c, 15, 76, 0
13, 126239, Note_on_c, 15, 67, 0
13, 126239, Note_on_c, 15, 55, 0
13, 126240, Note_on_c, 15, 73, 76
13, 126240, Note_on_c, 15, 69, 76
13, 126240, Note_on_c, 15, 76, 76
13, 126240, Note_on_c, 15, 57, 76
13, 126479, Note_on_c, 15, 73, 0
13, 126479, Note_on_c, 15, 69, 0
13, 126479, Note_on_c, 15, 76, 0
13, 126479, Note_on_c, 15, 57, 0
13, 126480, Note_on_c, 15, 57, 76
13, 126480, Note_on_c, 15, 64, 76
13, 126480, Note_on_c, 15, 61, 76
13, 126480, Note_on_c, 15, 45, 76
13, 126719, Note_on_c, 15, 57, 0
13, 126719, Note_on_c, 15, 64, 0
13, 126719, Note_on_c, 15, 61, 0
13, 126719, Note_on_c, 15, 45, 0
13, 126720, Note_on_c, 15, 69, 76
13, 126720, Note_on_c, 15, 50, 76
13, 126720, Note_on_c, 15, 62, 76
13, 126720, Note_on_c, 15, 65, 76
13, 126959, Note_on_c, 15, 69, 0
13, 126959, Note_on_c, 15, 50, 0
13, 126959, Note_on_c, 15, 62, 0
13, 126959, Note_on_c, 15, 65, 0
13, 126960, Note_on_c, 15, 60, 76
13, 126960, Note_on_c, 15, 45, 76
13, 126960, Note_on_c, 15, 64, 76
13, 126960, Note_on_c, 15, 57, 76
13, 127199, Note_on_c, 15, 60, 0
13, 127199, Note_on_c, 15, 45, 0
13, 127199, Note_on_c, 15, 64, 0
13, 127199, Note_on_c, 15, 57, 0
13, 127200, Note_on_c, 15, 57, 76
13, 127200, Note_on_c, 15, 53, 76
13, 127200, Note_on_c, 15, 50, 76
13, 127200, Note_on_c, 15, 38, 76
13, 127439, Note_on_c, 15, 57, 0
13, 127439, Note_on_c, 15, 53, 0
13, 127439, Note_on_c, 15, 50, 0
13, 127439, Note_on_c, 15, 38, 0
13, 127440, Note_on_c, 15, 56, 76
13, 127440, Note_on_c, 15, 68, 76
13, 127440, Note_on_c, 15, 74, 76
13, 127440, Note_on_c, 15, 71, 76
13, 127559, Note_on_c, 15, 56, 0
13, 127559, Note_on_c, 15, 68, 0
13, 127559, Note_on_c, 15, 74, 0
13, 127559, Note_on_c, 15, 71, 0
13, 127560, Note_on_c, 15, 57, 76
13, 127560, Note_on_c, 15, 72, 76
13, 127560, Note_on_c, 15, 69, 76
13, 127560, Note_on_c, 15, 76, 76
13, 127679, Note_on_c, 15, 57, 0
13, 127679, Note_on_c, 15, 72, 0
13, 127679, Note_on_c, 15, 69, 0
13, 127679, Note_on_c, 15, 76, 0
13, 127680, Note_on_c, 15, 79, 76
13, 127680, Note_on_c, 15, 74, 76
13, 127680, Note_on_c, 15, 59, 76
13, 127680, Note_on_c, 15, 71, 76
13, 127919, Note_on_c, 15, 79, 0
13, 127919, Note_on_c, 15, 74, 0
13, 127919, Note_on_c, 15, 59, 0
13, 127919, Note_on_c, 15, 71, 0
13, 127920, Note_on_c, 15, 59, 76
13, 127920, Note_on_c, 15, 74, 76
13, 127920, Note_on_c, 15, 71, 76
13, 127920, Note_on_c, 15, 80, 76
13, 128039, Note_on_c, 15, 59, 0
13, 128039, Note_on_c, 15, 74, 0
13, 128039, Note_on_c, 15, 71, 0
13, 128039, Note_on_c, 15, 80, 0
13, 128040, Note_on_c, 15, 60, 76
13, 128040, Note_on_c, 15, 80, 76
13, 128040, Note_on_c, 15, 76, 76
13, 128040, Note_on_c, 15, 72, 76
13, 128159, Note_on_c, 15, 60, 0
13, 128159, Note_on_c, 15, 80, 0
13, 128159, Note_on_c, 15, 76, 0
13, 128159, Note_on_c, 15, 72, 0
13, 128160, Note_on_c, 15, 80, 76
13, 128160, Note_on_c, 15, 74, 76
13, 128160, Note_on_c, 15, 62, 76
13, 128160, Note_on_c, 15, 77, 76
13, 128399, Note_on_c, 15, 80, 0
13, 128399, Note_on_c, 15, 74, 0
13, 128399, Note_on_c, 15, 62, 0
13, 128399, Note_on_c, 15, 77, 0
13, 129360, Note_on_c, 15, 64, 76
13, 129360, Note_on_c, 15, 50, 76
13, 129360, Note_on_c, 15, 68, 76
13, 129360, Note_on_c, 15, 62, 76
13, 129360, Note_on_c, 15, 71, 76
13, 129599, Note_on_c, 15, 64, 0
13, 129599, Note_on_c, 15, 50, 0
13, 129599, Note_on_c, 15, 68, 0
13, 129599, Note_on_c, 15, 62, 0
13, 129599, Note_on_c, 15, 71, 0
13, 129600, Note_on_c, 15, 69, 76
13, 129600, Note_on_c, 15, 48, 76
13, 129600, Note_on_c, 15, 60, 76
13, 129600, Note_on_c, 15, 64, 76
13, 129719, Note_on_c, 15, 69, 0
13, 129719, Note_on_c, 15, 48, 0
13, 129719, Note_on_c, 15, 60, 0
13, 129719, Note_on_c, 15, 64, 0
13, 129720, Note_on_c, 15, 47, 76
13, 129720, Note_on_c, 15, 59, 76
13, 129720, Note_on_c, 15, 62, 76
13, 129720, Note_on_c, 15, 65, 76
13, 129839, Note_on_c, 15, 47, 0
13, 129839, Note_on_c, 15, 59, 0
13, 129839, Note_on_c, 15, 62, 0
13, 129839, Note_on_c, 15, 65, 0
13, 129840, Note_on_c, 15, 60, 76
13, 129840, Note_on_c, 15, 64, 76
13, 129840, Note_on_c, 15, 48, 76
13, 129840, Note_on_c, 15, 69, 76
13, 129959, Note_on_c, 15, 60, 0
13, 129959, Note_on_c, 15, 64, 0
13, 129959, Note_on_c, 15, 48, 0
13, 129959, Note_on_c, 15, 69, 0
13, 129960, Note_on_c, 15, 62, 76
13, 129960, Note_on_c, 15, 69, 76
13, 129960, Note_on_c, 15, 50, 76
13, 129960, Note_on_c, 15, 65, 76
13, 130079, Note_on_c, 15, 62, 0
13, 130079, Note_on_c, 15, 69, 0
13, 130079, Note_on_c, 15, 50, 0
13, 130079, Note_on_c, 15, 65, 0
13, 130080, Note_on_c, 15, 64, 76
13, 130080, Note_on_c, 15, 71, 76
13, 130080, Note_on_c, 15, 52, 76
13, 130080, Note_on_c, 15, 68, 76
13, 130319, Note_on_c, 15, 64, 0
13, 130319, Note_on_c, 15, 71, 0
13, 130319, Note_on_c, 15, 52, 0
13, 130319, Note_on_c, 15, 68, 0
13, 130320, Note_on_c, 15, 40, 76
13, 130320, Note_on_c, 15, 52, 76
13, 130320, Note_on_c, 15, 56, 76
13, 130320, Note_on_c, 15, 59, 76
13, 130559, Note_on_c, 15, 40, 0
13, 130559, Note_on_c, 15, 52, 0
13, 130559, Note_on_c, 15, 56, 0
13, 130559, Note_on_c, 15, 59, 0
13, 130560, Note_on_c, 15, 57, 76
13, 130560, Note_on_c, 15, 45, 76
13, 130560, Note_on_c, 15, 60, 76
13, 130560, Note_on_c, 15, 64, 76
13, 130799, Note_on_c, 15, 57, 0
13, 130799, Note_on_c, 15, 45, 0
13, 130799, Note_on_c, 15, 60, 0
13, 130799, Note_on_c, 15, 64, 0
13, 130800, Note_on_c, 15, 67, 76
13, 130800, Note_on_c, 15, 64, 76
13, 130800, Note_on_c, 15, 71, 76
13, 130800, Note_on_c, 15, 52, 76
13, 131039, Note_on_c, 15, 67, 0
13, 131039, Note_on_c, 15, 64, 0
13, 131039, Note_on_c, 15, 71, 0
13, 131039, Note_on_c, 15, 52, 0
13, 131040, Note_on_c, 15, 69, 76
13, 131040, Note_on_c, 15, 72, 76
13, 131040, Note_on_c, 15, 76, 76
13, 131040, Note_on_c, 15, 57, 76
13, 131279, Note_on_c, 15, 69, 0
13, 131279, Note_on_c, 15, 72, 0
13, 131279, Note_on_c, 15, 76, 0
13, 131279, Note_on_c, 15, 57, 0
13, 131760, Note_on_c, 15, 60, 76
13, 131760, Note_on_c, 15, 67, 76
13, 131760, Note_on_c, 15, 64, 76
13, 131760, Note_on_c, 15, 48, 76
13, 131879, Note_on_c, 15, 60, 0
13, 131879, Note_on_c, 15, 67, 0
13, 131879, Note_on_c, 15, 64, 0
13, 131879, Note_on_c, 15, 48, 0
13, 131880, Note_on_c, 15, 62, 76
13, 131880, Note_on_c, 15, 69, 76
13, 131880, Note_on_c, 15, 50, 76
13, 131880, Note_on_c, 15, 65, 76
13, 131999, Note_on_c, 15, 62, 0
13, 131999, Note_on_c, 15, 69, 0
13, 131999, Note_on_c, 15, 50, 0
13, 131999, Note_on_c, 15, 65, 0
13, 132000, Note_on_c, 15, 64, 76
13, 132000, Note_on_c, 15, 67, 76
13, 132000, Note_on_c, 15, 72, 76
13, 132000, Note_on_c, 15, 52, 76
13, 132239, Note_on_c, 15, 64, 0
13, 132239, Note_on_c, 15, 67, 0
13, 132239, Note_on_c, 15, 72, 0
13, 132239, Note_on_c, 15, 52, 0
13, 132240, Note_on_c, 15, 52, 76
13, 132240, Note_on_c, 15, 67, 76
13, 132240, Note_on_c, 15, 64, 76
13, 132240, Note_on_c, 15, 72, 76
13, 132359, Note_on_c, 15, 52, 0
13, 132359, Note_on_c, 15, 67, 0
13, 132359, Note_on_c, 15, 64, 0
13, 132359, Note_on_c, 15, 72, 0
13, 132360, Note_on_c, 15, 69, 76
13, 132360, Note_on_c, 15, 53, 76
13, 132360, Note_on_c, 15, 65, 76
13, 132360, Note_on_c, 15, 72, 76
13, 132479, Note_on_c, 15, 69, 0
13, 132479, Note_on_c, 15, 53, 0
13, 132479, Note_on_c, 15, 65, 0
13, 132479, Note_on_c, 15, 72, 0
13, 132480, Note_on_c, 15, 70, 76
13, 132480, Note_on_c, 15, 55, 76
13, 132480, Note_on_c, 15, 76, 76
13, 132480, Note_on_c, 15, 67, 76
13, 132719, Note_on_c, 15, 70, 0
13, 132719, Note_on_c, 15, 55, 0
13, 132719, Note_on_c, 15, 76, 0
13, 132719, Note_on_c, 15, 67, 0
13, 132720, Note_on_c, 15, 55, 76
13, 132720, Note_on_c, 15, 70, 76
13, 132720, Note_on_c, 15, 76, 76
13, 132720, Note_on_c, 15, 67, 76
13, 132839, Note_on_c, 15, 55, 0
13, 132839, Note_on_c, 15, 70, 0
13, 132839, Note_on_c, 15, 76, 0
13, 132839, Note_on_c, 15, 67, 0
13, 132840, Note_on_c, 15, 72, 76
13, 132840, Note_on_c, 15, 57, 76
13, 132840, Note_on_c, 15, 76, 76
13, 132840, Note_on_c, 15, 69, 76
13, 132959, Note_on_c, 15, 72, 0
13, 132959, Note_on_c, 15, 57, 0
13, 132959, Note_on_c, 15, 76, 0
13, 132959, Note_on_c, 15, 69, 0
13, 132960, Note_on_c, 15, 74, 76
13, 132960, Note_on_c, 15, 58, 76
13, 132960, Note_on_c, 15, 70, 76
13, 132960, Note_on_c, 15, 77, 76
13, 133199, Note_on_c, 15, 74, 0
13, 133199, Note_on_c, 15, 58, 0
13, 133199, Note_on_c, 15, 70, 0
13, 133199, Note_on_c, 15, 77, 0
13, 133200, Note_on_c, 15, 72, 76
13, 133200, Note_on_c, 15, 52, 76
13, 133200, Note_on_c, 15, 64, 76
13, 133200, Note_on_c, 15, 70, 76
13, 133200, Note_on_c, 15, 67, 76
13, 133439, Note_on_c, 15, 72, 0
13, 133439, Note_on_c, 15, 52, 0
13, 133439, Note_on_c, 15, 64, 0
13, 133439, Note_on_c, 15, 70, 0
13, 133439, Note_on_c, 15, 67, 0
13, 133440, Note_on_c, 15, 69, 76
13, 133440, Note_on_c, 15, 53, 76
13, 133440, Note_on_c, 15, 72, 76
13, 133440, Note_on_c, 15, 65, 76
13, 133679, Note_on_c, 15, 69, 0
13, 133679, Note_on_c, 15, 53, 0
13, 133679, Note_on_c, 15, 72, 0
13, 133679, Note_on_c, 15, 65, 0
13, 133680, Note_on_c, 15, 65, 76
13, 133680, Note_on_c, 15, 46, 76
13, 133680, Note_on_c, 15, 62, 76
13, 133680, Note_on_c, 15, 58, 76
13, 133919, Note_on_c, 15, 65, 0
13, 133919, Note_on_c, 15, 46, 0
13, 133919, Note_on_c, 15, 62, 0
13, 133919, Note_on_c, 15, 58, 0
13, 133920, Note_on_c, 15, 55, 76
13, 133920, Note_on_c, 15, 65, 76
13, 133920, Note_on_c, 15, 62, 76
13, 133920, Note_on_c, 15, 58, 76
13, 133920, Note_on_c, 15, 43, 76
13, 134159, Note_on_c, 15, 55, 0
13, 134159, Note_on_c, 15, 65, 0
13, 134159, Note_on_c, 15, 62, 0
13, 134159, Note_on_c, 15, 58, 0
13, 134159, Note_on_c, 15, 43, 0
13, 134160, Note_on_c, 15, 64, 76
13, 134160, Note_on_c, 15, 67, 76
13, 134160, Note_on_c, 15, 48, 76
13, 134160, Note_on_c, 15, 70, 76
13, 134160, Note_on_c, 15, 60, 76
13, 134399, Note_on_c, 15, 64, 0
13, 134399, Note_on_c, 15, 67, 0
13, 134399, Note_on_c, 15, 48, 0
13, 134399, Note_on_c, 15, 70, 0
13, 134399, Note_on_c, 15, 60, 0
13, 134400, Note_on_c, 15, 53, 76
13, 134400, Note_on_c, 15, 60, 76
13, 134400, Note_on_c, 15, 41, 76
13, 134400, Note_on_c, 15, 57, 76
13, 134639, Note_on_c, 15, 53, 0
13, 134639, Note_on_c, 15, 60, 0
13, 134639, Note_on_c, 15, 41, 0
13, 134639, Note_on_c, 15, 57, 0
13, 134640, Note_on_c, 15, 69, 76
13, 134640, Note_on_c, 15, 72, 76
13, 134640, Note_on_c, 15, 65, 76
13, 134640, Note_on_c, 15, 53, 76
13, 134759, Note_on_c, 15, 69, 0
13, 134759, Note_on_c, 15, 72, 0
13, 134759, Note_on_c, 15, 65, 0
13, 134759, Note_on_c, 15, 53, 0
13, 134760, Note_on_c, 15, 74, 76
13, 134760, Note_on_c, 15, 67, 76
13, 134760, Note_on_c, 15, 55, 76
13, 134760, Note_on_c, 15, 71, 76
13, 134879, Note_on_c, 15, 74, 0
13, 134879, Note_on_c, 15, 67, 0
13, 134879, Note_on_c, 15, 55, 0
13, 134879, Note_on_c, 15, 71, 0
13, 134880, Note_on_c, 15, 69, 76
13, 134880, Note_on_c, 15, 77, 76
13, 134880, Note_on_c, 15, 72, 76
13, 134880, Note_on_c, 15, 57, 76
13, 134999, Note_on_c, 15, 69, 0
13, 134999, Note_on_c, 15, 77, 0
13, 134999, Note_on_c, 15, 72, 0
13, 134999, Note_on_c, 15, 57, 0
13, 135000, Note_on_c, 15, 77, 76
13, 135000, Note_on_c, 15, 58, 76
13, 135000, Note_on_c, 15, 70, 76
13, 135000, Note_on_c, 15, 74, 76
13, 135119, Note_on_c, 15, 77, 0
13, 135119, Note_on_c, 15, 58, 0
13, 135119, Note_on_c, 15, 70, 0
13, 135119, Note_on_c, 15, 74, 0
13, 135120, Note_on_c, 15, 69, 76
13, 135120, Note_on_c, 15, 72, 76
13, 135120, Note_on_c, 15, 57, 76
13, 135120, Note_on_c, 15, 77, 76
13, 135239, Note_on_c, 15, 69, 0
13, 135239, Note_on_c, 15, 72, 0
13, 135239, Note_on_c, 15, 57, 0
13, 135239, Note_on_c, 15, 77, 0
13, 135240, Note_on_c, 15, 55, 76
13, 135240, Note_on_c, 15, 67, 76
13, 135240, Note_on_c, 15, 70, 76
13, 135240, Note_on_c, 15, 74, 76
13, 135359, Note_on_c, 15, 55, 0
13, 135359, Note_on_c, 15, 67, 0
13, 135359, Note_on_c, 15, 70, 0
13, 135359, Note_on_c, 15, 74, 0
13, 135360, Note_on_c, 15, 53, 76
13, 135360, Note_on_c, 15, 69, 76
13, 135360, Note_on_c, 15, 72, 76
13, 135360, Note_on_c, 15, 65, 76
13, 135479, Note_on_c, 15, 53, 0
13, 135479, Note_on_c, 15, 69, 0
13, 135479, Note_on_c, 15, 72, 0
13, 135479, Note_on_c, 15, 65, 0
13, 135480, Note_on_c, 15, 55, 76
13, 135480, Note_on_c, 15, 74, 76
13, 135480, Note_on_c, 15, 67, 76
13, 135480, Note_on_c, 15, 71, 76
13, 135599, Note_on_c, 15, 55, 0
13, 135599, Note_on_c, 15, 74, 0
13, 135599, Note_on_c, 15, 67, 0
13, 135599, Note_on_c, 15, 71, 0
13, 135600, Note_on_c, 15, 69, 76
13, 135600, Note_on_c, 15, 72, 76
13, 135600, Note_on_c, 15, 53, 76
13, 135600, Note_on_c, 15, 65, 76
13, 135719, Note_on_c, 15, 69, 0
13, 135719, Note_on_c, 15, 72, 0
13, 135719, Note_on_c, 15, 53, 0
13, 135719, Note_on_c, 15, 65, 0
13, 135720, Note_on_c, 15, 64, 76
13, 135720, Note_on_c, 15, 71, 76
13, 135720, Note_on_c, 15, 52, 76
13, 135720, Note_on_c, 15, 67, 76
13, 135839, Note_on_c, 15, 64, 0
13, 135839, Note_on_c, 15, 71, 0
13, 135839, Note_on_c, 15, 52, 0
13, 135839, Note_on_c, 15, 67, 0
13, 135840, Note_on_c, 15, 65, 76
13, 135840, Note_on_c, 15, 62, 76
13, 135840, Note_on_c, 15, 50, 76
13, 135959, Note_on_c, 15, 65, 0
13, 135959, Note_on_c, 15, 62, 0
13, 135959, Note_on_c, 15, 50, 0
13, 135960, Note_on_c, 15, 67, 76
13, 135960, Note_on_c, 15, 64, 76
13, 135960, Note_on_c, 15, 52, 76
13, 135960, Note_on_c, 15, 71, 76
13, 136079, Note_on_c, 15, 67, 0
13, 136079, Note_on_c, 15, 64, 0
13, 136079, Note_on_c, 15, 52, 0
13, 136079, Note_on_c, 15, 71, 0
13, 136080, Note_on_c, 15, 65, 76
13, 136080, Note_on_c, 15, 62, 76
13, 136080, Note_on_c, 15, 50, 76
13, 136199, Note_on_c, 15, 65, 0
13, 136199, Note_on_c, 15, 62, 0
13, 136199, Note_on_c, 15, 50, 0
13, 136200, Note_on_c, 15, 48, 76
13, 136200, Note_on_c, 15, 67, 76
13, 136200, Note_on_c, 15, 60, 76
13, 136200, Note_on_c, 15, 64, 76
13, 136319, Note_on_c, 15, 48, 0
13, 136319, Note_on_c, 15, 67, 0
13, 136319, Note_on_c, 15, 60, 0
13, 136319, Note_on_c, 15, 64, 0
13, 136320, Note_on_c, 15, 59, 76
13, 136320, Note_on_c, 15, 47, 76
13, 136320, Note_on_c, 15, 65, 76
13, 136320, Note_on_c, 15, 62, 76
13, 136439, Note_on_c, 15, 59, 0
13, 136439, Note_on_c, 15, 47, 0
13, 136439, Note_on_c, 15, 65, 0
13, 136439, Note_on_c, 15, 62, 0
13, 136440, Note_on_c, 15, 60, 76
13, 136440, Note_on_c, 15, 64, 76
13, 136440, Note_on_c, 15, 48, 76
13, 136440, Note_on_c, 15, 67, 76
13, 136559, Note_on_c, 15, 60, 0
13, 136559, Note_on_c, 15, 64, 0
13, 136559, Note_on_c, 15, 48, 0
13, 136559, Note_on_c, 15, 67, 0
13, 136560, Note_on_c, 15, 62, 76
13, 136560, Note_on_c, 15, 47, 76
13, 136560, Note_on_c, 15, 59, 76
13, 136560, Note_on_c, 15, 65, 76
13, 136679, Note_on_c, 15, 62, 0
13, 136679, Note_on_c, 15, 47, 0
13, 136679, Note_on_c, 15, 59, 0
13, 136679, Note_on_c, 15, 65, 0
13, 136680, Note_on_c, 15, 60, 76
13, 136680, Note_on_c, 15, 64, 76
13, 136680, Note_on_c, 15, 57, 76
13, 136680, Note_on_c, 15, 45, 76
13, 136799, Note_on_c, 15, 60, 0
13, 136799, Note_on_c, 15, 64, 0
13, 136799, Note_on_c, 15, 57, 0
13, 136799, Note_on_c, 15, 45, 0
13, 136800, Note_on_c, 15, 55, 76
13, 136800, Note_on_c, 15, 62, 76
13, 136800, Note_on_c, 15, 43, 76
13, 136800, Note_on_c, 15, 59, 76
13, 136919, Note_on_c, 15, 55, 0
13, 136919, Note_on_c, 15, 62, 0
13, 136919, Note_on_c, 15, 43, 0
13, 136919, Note_on_c, 15, 59, 0
13, 136920, Note_on_c, 15, 45, 76
13, 136920, Note_on_c, 15, 60, 76
13, 136920, Note_on_c, 15, 57, 76
13, 136920, Note_on_c, 15, 64, 76
13, 137039, Note_on_c, 15, 45, 0
13, 137039, Note_on_c, 15, 60, 0
13, 137039, Note_on_c, 15, 57, 0
13, 137039, Note_on_c, 15, 64, 0
13, 137040, Note_on_c, 15, 59, 76
13, 137040, Note_on_c, 15, 43, 76
13, 137040, Note_on_c, 15, 55, 76
13, 137040, Note_on_c, 15, 62, 76
13, 137159, Note_on_c, 15, 59, 0
13, 137159, Note_on_c, 15, 43, 0
13, 137159, Note_on_c, 15, 55, 0
13, 137159, Note_on_c, 15, 62, 0
13, 137160, Note_on_c, 15, 57, 76
13, 137160, Note_on_c, 15, 60, 76
13, 137160, Note_on_c, 15, 41, 76
13, 137160, Note_on_c, 15, 53, 76
13, 137279, Note_on_c, 15, 57, 0
13, 137279, Note_on_c, 15, 60, 0
13, 137279, Note_on_c, 15, 41, 0
13, 137279, Note_on_c, 15, 53, 0
13, 137280, Note_on_c, 15, 55, 76
13, 137280, Note_on_c, 15, 59, 76
13, 137280, Note_on_c, 15, 40, 76
13, 137280, Note_on_c, 15, 52, 76
13, 137519, Note_on_c, 15, 55, 0
13, 137519, Note_on_c, 15, 59, 0
13, 137519, Note_on_c, 15, 40, 0
13, 137519, Note_on_c, 15, 52, 0
13, 137520, Note_on_c, 15, 41, 76
13, 137520, Note_on_c, 15, 60, 76
13, 137520, Note_on_c, 15, 57, 76
13, 137520, Note_on_c, 15, 53, 76
13, 137759, Note_on_c, 15, 41, 0
13, 137759, Note_on_c, 15, 60, 0
13, 137759, Note_on_c, 15, 57, 0
13, 137759, Note_on_c, 15, 53, 0
13, 137760, Note_on_c, 15, 59, 76
13, 137760, Note_on_c, 15, 62, 76
13, 137760, Note_on_c, 15, 43, 76
13, 137760, Note_on_c, 15, 55, 76
13, 137999, Note_on_c, 15, 59, 0
13, 137999, Note_on_c, 15, 62, 0
13, 137999, Note_on_c, 15, 43, 0
13, 137999, Note_on_c, 15, 55, 0
13, 138000, Note_on_c, 15, 59, 76
13, 138000, Note_on_c, 15, 62, 76
13, 138000, Note_on_c, 15, 55, 76
13, 138000, Note_on_c, 15, 43, 76
13, 138239, Note_on_c, 15, 59, 0
13, 138239, Note_on_c, 15, 62, 0
13, 138239, Note_on_c, 15, 55, 0
13, 138239, Note_on_c, 15, 43, 0
13, 138240, Note_on_c, 15, 36, 76
13, 138240, Note_on_c, 15, 55, 76
13, 138240, Note_on_c, 15, 48, 76
13, 138240, Note_on_c, 15, 52, 76
13, 138959, Note_on_c, 15, 36, 0
13, 138959, Note_on_c, 15, 55, 0
13, 138959, Note_on_c, 15, 48, 0
13, 138959, Note_on_c, 15, 52, 0
13, 138959, End_track
14, 0, Start_track
14, 0, Title_t, "Johann Sebastian Bach - Orchestral Suite No. 1 in C Major, BWV1066 - No. 6 Bourrée I and II"
14, 0, MIDI_port, 0
14, 0, End_track
0, 0, End_of_file
