0, 0, Header, 1, 12, 240
1, 0, Start_track
1, 0, Title_t, "(Ohne Titel)"
1, 0, Time_signature, 2, 1, 48, 8
1, 0, Key_signature, 0, "major"
1, 0, Tempo, 428571
1, 0, End_track
2, 0, Start_track
2, 0, Sequence_number, 65535
2, 0, MIDI_port, 0
2, 0, Title_t, "Flauto traverso"
2, 0, Control_c, 0, 0, 0
2, 0, Control_c, 0, 32, 0
2, 0, Program_c, 0, 73
2, 0, Control_c, 0, 7, 100
2, 0, Control_c, 0, 10, 54
2, 3840, Note_on_c, 0, 76, 100
2, 4056, Note_on_c, 0, 76, 0
2, 4080, Note_on_c, 0, 84, 100
2, 4296, Note_on_c, 0, 84, 0
2, 4320, Note_on_c, 0, 83, 100
2, 4536, Note_on_c, 0, 83, 0
2, 4560, Note_on_c, 0, 81, 100
2, 4776, Note_on_c, 0, 81, 0
2, 4800, Note_on_c, 0, 79, 100
2, 5232, Note_on_c, 0, 79, 0
2, 5280, Note_on_c, 0, 78, 100
2, 5712, Note_on_c, 0, 78, 0
2, 5760, Note_on_c, 0, 76, 100
2, 6192, Note_on_c, 0, 76, 0
2, 6240, Note_on_c, 0, 75, 100
2, 6672, Note_on_c, 0, 75, 0
2, 6720, Note_on_c, 0, 76, 100
2, 7152, Note_on_c, 0, 76, 0
2, 7200, Note_on_c, 0, 74, 100
2, 7632, Note_on_c, 0, 74, 0
2, 7680, Note_on_c, 0, 72, 100
2, 8112, Note_on_c, 0, 72, 0
2, 8160, Note_on_c, 0, 73, 100
2, 8592, Note_on_c, 0, 73, 0
2, 8640, Note_on_c, 0, 74, 100
2, 8856, Note_on_c, 0, 74, 0
2, 9840, Note_on_c, 0, 77, 100
2, 10056, Note_on_c, 0, 77, 0
2, 10080, Note_on_c, 0, 67, 100
2, 10296, Note_on_c, 0, 67, 0
2, 10320, Note_on_c, 0, 76, 100
2, 10536, Note_on_c, 0, 76, 0
2, 10560, Note_on_c, 0, 65, 100
2, 10776, Note_on_c, 0, 65, 0
2, 10800, Note_on_c, 0, 74, 100
2, 11016, Note_on_c, 0, 74, 0
2, 11040, Note_on_c, 0, 64, 100
2, 11256, Note_on_c, 0, 64, 0
2, 11280, Note_on_c, 0, 74, 100
2, 11496, Note_on_c, 0, 74, 0
2, 11520, Note_on_c, 0, 72, 100
2, 11736, Note_on_c, 0, 72, 0
2, 11760, Note_on_c, 0, 69, 100
2, 11976, Note_on_c, 0, 69, 0
2, 12000, Note_on_c, 0, 71, 100
2, 12216, Note_on_c, 0, 71, 0
2, 12240, Note_on_c, 0, 73, 100
2, 12456, Note_on_c, 0, 73, 0
2, 12480, Note_on_c, 0, 74, 100
2, 13656, Note_on_c, 0, 74, 0
2, 13680, Note_on_c, 0, 81, 100
2, 13896, Note_on_c, 0, 81, 0
2, 13920, Note_on_c, 0, 79, 100
2, 14136, Note_on_c, 0, 79, 0
2, 14160, Note_on_c, 0, 77, 100
2, 14376, Note_on_c, 0, 77, 0
2, 14400, Note_on_c, 0, 76, 100
2, 14616, Note_on_c, 0, 76, 0
2, 14640, Note_on_c, 0, 84, 100
2, 14856, Note_on_c, 0, 84, 0
2, 14880, Note_on_c, 0, 83, 100
2, 15096, Note_on_c, 0, 83, 0
2, 15120, Note_on_c, 0, 81, 100
2, 15336, Note_on_c, 0, 81, 0
2, 15360, Note_on_c, 0, 79, 100
2, 15792, Note_on_c, 0, 79, 0
2, 15840, Note_on_c, 0, 80, 100
2, 16272, Note_on_c, 0, 80, 0
2, 16320, Note_on_c, 0, 81, 100
2, 16536, Note_on_c, 0, 81, 0
2, 17520, Note_on_c, 0, 77, 100
2, 17736, Note_on_c, 0, 77, 0
2, 17760, Note_on_c, 0, 86, 100
2, 17976, Note_on_c, 0, 86, 0
2, 18000, Note_on_c, 0, 76, 100
2, 18216, Note_on_c, 0, 76, 0
2, 18240, Note_on_c, 0, 84, 100
2, 18456, Note_on_c, 0, 84, 0
2, 18480, Note_on_c, 0, 74, 100
2, 18696, Note_on_c, 0, 74, 0
2, 18720, Note_on_c, 0, 83, 100
2, 19308, Note_on_c, 0, 83, 0
2, 19320, Note_on_c, 0, 76, 100
2, 19428, Note_on_c, 0, 76, 0
2, 19440, Note_on_c, 0, 81, 100
2, 19872, Note_on_c, 0, 81, 0
2, 19920, Note_on_c, 0, 79, 100
2, 20136, Note_on_c, 0, 79, 0
2, 20160, Note_on_c, 0, 77, 100
2, 21336, Note_on_c, 0, 77, 0
2, 21360, Note_on_c, 0, 71, 100
2, 21576, Note_on_c, 0, 71, 0
2, 21600, Note_on_c, 0, 76, 100
2, 21816, Note_on_c, 0, 76, 0
2, 21840, Note_on_c, 0, 74, 100
2, 22056, Note_on_c, 0, 74, 0
2, 22080, Note_on_c, 0, 72, 100
2, 22512, Note_on_c, 0, 72, 0
2, 22560, Note_on_c, 0, 71, 100
2, 22992, Note_on_c, 0, 71, 0
2, 23040, Note_on_c, 0, 69, 100
2, 23256, Note_on_c, 0, 69, 0
2, 34560, Note_on_c, 0, 76, 100
2, 34992, Note_on_c, 0, 76, 0
2, 35040, Note_on_c, 0, 78, 100
2, 35472, Note_on_c, 0, 78, 0
2, 35520, Note_on_c, 0, 71, 100
2, 35736, Note_on_c, 0, 71, 0
2, 35760, Note_on_c, 0, 84, 100
2, 35976, Note_on_c, 0, 84, 0
2, 36000, Note_on_c, 0, 74, 100
2, 36216, Note_on_c, 0, 74, 0
2, 36240, Note_on_c, 0, 83, 100
2, 36456, Note_on_c, 0, 83, 0
2, 36480, Note_on_c, 0, 72, 100
2, 36696, Note_on_c, 0, 72, 0
2, 36720, Note_on_c, 0, 81, 100
2, 36936, Note_on_c, 0, 81, 0
2, 36960, Note_on_c, 0, 71, 100
2, 37176, Note_on_c, 0, 71, 0
2, 37200, Note_on_c, 0, 81, 100
2, 37416, Note_on_c, 0, 81, 0
2, 37440, Note_on_c, 0, 79, 100
2, 37656, Note_on_c, 0, 79, 0
2, 39360, Note_on_c, 0, 74, 100
2, 39576, Note_on_c, 0, 74, 0
2, 39600, Note_on_c, 0, 82, 100
2, 39816, Note_on_c, 0, 82, 0
2, 39840, Note_on_c, 0, 81, 100
2, 40056, Note_on_c, 0, 81, 0
2, 40080, Note_on_c, 0, 79, 100
2, 40296, Note_on_c, 0, 79, 0
2, 40320, Note_on_c, 0, 77, 100
2, 40752, Note_on_c, 0, 77, 0
2, 40800, Note_on_c, 0, 75, 100
2, 41232, Note_on_c, 0, 75, 0
2, 41280, Note_on_c, 0, 74, 100
2, 41928, Note_on_c, 0, 74, 0
2, 42000, Note_on_c, 0, 73, 100
2, 42216, Note_on_c, 0, 73, 0
2, 42240, Note_on_c, 0, 74, 100
2, 42456, Note_on_c, 0, 74, 0
2, 51360, Note_on_c, 0, 76, 100
2, 51468, Note_on_c, 0, 76, 0
2, 51600, Note_on_c, 0, 84, 100
2, 51708, Note_on_c, 0, 84, 0
2, 51840, Note_on_c, 0, 83, 100
2, 51948, Note_on_c, 0, 83, 0
2, 52080, Note_on_c, 0, 81, 100
2, 52188, Note_on_c, 0, 81, 0
2, 52320, Note_on_c, 0, 79, 100
2, 52428, Note_on_c, 0, 79, 0
2, 56880, Note_on_c, 0, 86, 100
2, 57096, Note_on_c, 0, 86, 0
2, 57120, Note_on_c, 0, 76, 100
2, 57336, Note_on_c, 0, 76, 0
2, 57360, Note_on_c, 0, 84, 100
2, 57576, Note_on_c, 0, 84, 0
2, 57600, Note_on_c, 0, 74, 100
2, 57816, Note_on_c, 0, 74, 0
2, 57840, Note_on_c, 0, 83, 100
2, 58002, Note_on_c, 0, 83, 0
2, 58020, Note_on_c, 0, 74, 100
2, 58074, Note_on_c, 0, 74, 0
2, 58080, Note_on_c, 0, 72, 100
2, 58152, Note_on_c, 0, 72, 0
2, 58160, Note_on_c, 0, 71, 100
2, 58232, Note_on_c, 0, 71, 0
2, 58240, Note_on_c, 0, 69, 100
2, 58312, Note_on_c, 0, 69, 0
2, 59520, Note_on_c, 0, 69, 100
2, 59736, Note_on_c, 0, 69, 0
2, 59760, Note_on_c, 0, 77, 100
2, 59976, Note_on_c, 0, 77, 0
2, 60000, Note_on_c, 0, 76, 100
2, 60216, Note_on_c, 0, 76, 0
2, 60240, Note_on_c, 0, 74, 100
2, 60456, Note_on_c, 0, 74, 0
2, 60480, Note_on_c, 0, 72, 100
2, 60696, Note_on_c, 0, 72, 0
2, 60720, Note_on_c, 0, 81, 100
2, 60936, Note_on_c, 0, 81, 0
2, 60960, Note_on_c, 0, 83, 100
2, 61392, Note_on_c, 0, 83, 0
2, 61440, Note_on_c, 0, 76, 100
2, 61656, Note_on_c, 0, 76, 0
2, 62640, Note_on_c, 0, 86, 100
2, 63072, Note_on_c, 0, 86, 0
2, 63120, Note_on_c, 0, 84, 100
2, 63576, Note_on_c, 0, 84, 0
2, 63600, Note_on_c, 0, 83, 100
2, 63762, Note_on_c, 0, 83, 0
2, 63780, Note_on_c, 0, 81, 100
2, 63834, Note_on_c, 0, 81, 0
2, 63840, Note_on_c, 0, 80, 100
2, 64272, Note_on_c, 0, 80, 0
2, 64320, Note_on_c, 0, 81, 100
2, 65496, Note_on_c, 0, 81, 0
2, 66000, Note_on_c, 0, 85, 100
2, 66216, Note_on_c, 0, 85, 0
2, 66240, Note_on_c, 0, 86, 100
2, 66456, Note_on_c, 0, 86, 0
2, 69600, Note_on_c, 0, 76, 100
2, 70032, Note_on_c, 0, 76, 0
2, 70080, Note_on_c, 0, 75, 100
2, 70296, Note_on_c, 0, 75, 0
2, 70320, Note_on_c, 0, 78, 100
2, 70536, Note_on_c, 0, 78, 0
2, 70560, Note_on_c, 0, 71, 100
2, 70776, Note_on_c, 0, 71, 0
2, 70800, Note_on_c, 0, 75, 100
2, 71016, Note_on_c, 0, 75, 0
2, 71040, Note_on_c, 0, 76, 100
2, 71256, Note_on_c, 0, 76, 0
2, 71280, Note_on_c, 0, 71, 100
2, 71496, Note_on_c, 0, 71, 0
2, 71520, Note_on_c, 0, 67, 100
2, 71736, Note_on_c, 0, 67, 0
2, 71760, Note_on_c, 0, 64, 100
2, 71976, Note_on_c, 0, 64, 0
2, 72000, Note_on_c, 0, 67, 100
2, 72216, Note_on_c, 0, 67, 0
2, 72240, Note_on_c, 0, 70, 100
2, 72456, Note_on_c, 0, 70, 0
2, 72480, Note_on_c, 0, 69, 100
2, 72696, Note_on_c, 0, 69, 0
2, 72720, Note_on_c, 0, 81, 100
2, 72936, Note_on_c, 0, 81, 0
2, 72960, Note_on_c, 0, 76, 100
2, 73608, Note_on_c, 0, 76, 0
2, 73680, Note_on_c, 0, 74, 100
2, 73788, Note_on_c, 0, 74, 0
2, 73800, Note_on_c, 0, 72, 100
2, 73908, Note_on_c, 0, 72, 0
2, 73920, Note_on_c, 0, 71, 100
2, 74136, Note_on_c, 0, 71, 0
2, 74160, Note_on_c, 0, 72, 100
2, 74592, Note_on_c, 0, 72, 0
2, 74640, Note_on_c, 0, 74, 100
2, 74856, Note_on_c, 0, 74, 0
2, 74880, Note_on_c, 0, 76, 100
2, 75312, Note_on_c, 0, 76, 0
2, 78480, Note_on_c, 0, 77, 100
2, 78936, Note_on_c, 0, 77, 0
2, 78960, Note_on_c, 0, 74, 100
2, 79392, Note_on_c, 0, 74, 0
2, 79440, Note_on_c, 0, 71, 100
2, 79656, Note_on_c, 0, 71, 0
2, 79680, Note_on_c, 0, 72, 100
2, 79896, Note_on_c, 0, 72, 0
2, 80880, Note_on_c, 0, 77, 100
2, 81312, Note_on_c, 0, 77, 0
2, 81360, Note_on_c, 0, 76, 100
2, 81816, Note_on_c, 0, 76, 0
2, 81840, Note_on_c, 0, 74, 100
2, 82272, Note_on_c, 0, 74, 0
2, 82320, Note_on_c, 0, 80, 100
2, 82536, Note_on_c, 0, 80, 0
2, 82560, Note_on_c, 0, 81, 100
2, 83424, Note_on_c, 0, 81, 0
2, 83520, Note_on_c, 0, 79, 100
2, 83736, Note_on_c, 0, 79, 0
2, 83760, Note_on_c, 0, 81, 100
2, 83976, Note_on_c, 0, 81, 0
2, 84000, Note_on_c, 0, 79, 100
2, 84216, Note_on_c, 0, 79, 0
2, 84240, Note_on_c, 0, 78, 100
2, 84456, Note_on_c, 0, 78, 0
2, 84480, Note_on_c, 0, 76, 100
2, 84696, Note_on_c, 0, 76, 0
2, 84720, Note_on_c, 0, 72, 100
2, 85152, Note_on_c, 0, 72, 0
2, 85200, Note_on_c, 0, 71, 100
2, 85656, Note_on_c, 0, 71, 0
2, 85680, Note_on_c, 0, 69, 100
2, 85896, Note_on_c, 0, 69, 0
2, 85920, Note_on_c, 0, 69, 100
2, 86616, Note_on_c, 0, 69, 0
2, 86640, Note_on_c, 0, 67, 100
2, 86856, Note_on_c, 0, 67, 0
2, 87120, Note_on_c, 0, 80, 100
2, 87336, Note_on_c, 0, 80, 0
2, 87600, Note_on_c, 0, 81, 100
2, 87816, Note_on_c, 0, 81, 0
2, 88080, Note_on_c, 0, 82, 100
2, 88296, Note_on_c, 0, 82, 0
2, 88560, Note_on_c, 0, 83, 100
2, 88776, Note_on_c, 0, 83, 0
2, 89040, Note_on_c, 0, 82, 100
2, 89256, Note_on_c, 0, 82, 0
2, 89520, Note_on_c, 0, 83, 100
2, 89736, Note_on_c, 0, 83, 0
2, 90000, Note_on_c, 0, 83, 100
2, 90216, Note_on_c, 0, 83, 0
2, 90480, Note_on_c, 0, 82, 100
2, 90696, Note_on_c, 0, 82, 0
2, 90720, Note_on_c, 0, 86, 100
2, 90936, Note_on_c, 0, 86, 0
2, 90960, Note_on_c, 0, 82, 100
2, 91176, Note_on_c, 0, 82, 0
2, 91200, Note_on_c, 0, 83, 100
2, 91362, Note_on_c, 0, 83, 0
2, 91380, Note_on_c, 0, 81, 100
2, 91434, Note_on_c, 0, 81, 0
2, 91440, Note_on_c, 0, 79, 100
2, 91872, Note_on_c, 0, 79, 0
2, 91920, Note_on_c, 0, 78, 100
2, 92376, Note_on_c, 0, 78, 0
2, 92400, Note_on_c, 0, 76, 100
2, 92562, Note_on_c, 0, 76, 0
2, 92580, Note_on_c, 0, 74, 100
2, 92634, Note_on_c, 0, 74, 0
2, 92640, Note_on_c, 0, 73, 100
2, 92856, Note_on_c, 0, 73, 0
2, 92880, Note_on_c, 0, 82, 100
2, 93096, Note_on_c, 0, 82, 0
2, 93360, Note_on_c, 0, 83, 100
2, 93576, Note_on_c, 0, 83, 0
2, 93840, Note_on_c, 0, 75, 100
2, 94056, Note_on_c, 0, 75, 0
2, 94320, Note_on_c, 0, 76, 100
2, 94536, Note_on_c, 0, 76, 0
2, 94560, Note_on_c, 0, 77, 100
2, 94776, Note_on_c, 0, 77, 0
2, 94800, Note_on_c, 0, 86, 100
2, 95016, Note_on_c, 0, 86, 0
2, 95040, Note_on_c, 0, 84, 100
2, 95256, Note_on_c, 0, 84, 0
2, 95280, Note_on_c, 0, 83, 100
2, 95496, Note_on_c, 0, 83, 0
2, 95520, Note_on_c, 0, 81, 100
2, 95736, Note_on_c, 0, 81, 0
2, 97920, Note_on_c, 0, 72, 100
2, 98136, Note_on_c, 0, 72, 0
2, 98160, Note_on_c, 0, 81, 100
2, 98376, Note_on_c, 0, 81, 0
2, 98400, Note_on_c, 0, 79, 100
2, 98616, Note_on_c, 0, 79, 0
2, 98640, Note_on_c, 0, 78, 100
2, 98856, Note_on_c, 0, 78, 0
2, 98880, Note_on_c, 0, 76, 100
2, 99096, Note_on_c, 0, 76, 0
2, 103920, Note_on_c, 0, 86, 100
2, 104352, Note_on_c, 0, 86, 0
2, 104400, Note_on_c, 0, 84, 100
2, 104856, Note_on_c, 0, 84, 0
2, 104880, Note_on_c, 0, 83, 100
2, 105096, Note_on_c, 0, 83, 0
2, 105120, Note_on_c, 0, 83, 100
2, 105552, Note_on_c, 0, 83, 0
2, 105600, Note_on_c, 0, 81, 100
2, 106032, Note_on_c, 0, 81, 0
2, 106080, Note_on_c, 0, 82, 100
2, 106512, Note_on_c, 0, 82, 0
2, 106560, Note_on_c, 0, 81, 100
2, 106992, Note_on_c, 0, 81, 0
2, 107040, Note_on_c, 0, 84, 100
2, 107472, Note_on_c, 0, 84, 0
2, 107520, Note_on_c, 0, 83, 100
2, 107952, Note_on_c, 0, 83, 0
2, 108000, Note_on_c, 0, 86, 100
2, 108432, Note_on_c, 0, 86, 0
2, 108480, Note_on_c, 0, 84, 100
2, 108696, Note_on_c, 0, 84, 0
2, 111120, Note_on_c, 0, 67, 100
2, 111192, Note_on_c, 0, 67, 0
2, 111200, Note_on_c, 0, 65, 100
2, 111272, Note_on_c, 0, 65, 0
2, 111280, Note_on_c, 0, 63, 100
2, 111352, Note_on_c, 0, 63, 0
2, 111360, Note_on_c, 0, 71, 100
2, 111576, Note_on_c, 0, 71, 0
2, 112080, Note_on_c, 0, 75, 100
2, 112152, Note_on_c, 0, 75, 0
2, 112160, Note_on_c, 0, 74, 100
2, 112232, Note_on_c, 0, 74, 0
2, 112240, Note_on_c, 0, 72, 100
2, 112312, Note_on_c, 0, 72, 0
2, 112320, Note_on_c, 0, 86, 100
2, 112536, Note_on_c, 0, 86, 0
2, 115440, Note_on_c, 0, 81, 100
2, 115656, Note_on_c, 0, 81, 0
2, 115680, Note_on_c, 0, 71, 100
2, 115896, Note_on_c, 0, 71, 0
2, 115920, Note_on_c, 0, 79, 100
2, 116136, Note_on_c, 0, 79, 0
2, 116160, Note_on_c, 0, 69, 100
2, 116376, Note_on_c, 0, 69, 0
2, 116400, Note_on_c, 0, 77, 100
2, 116616, Note_on_c, 0, 77, 0
2, 116640, Note_on_c, 0, 67, 100
2, 116856, Note_on_c, 0, 67, 0
2, 116880, Note_on_c, 0, 77, 100
2, 117096, Note_on_c, 0, 77, 0
2, 117120, Note_on_c, 0, 76, 100
2, 117228, Note_on_c, 0, 76, 0
2, 117240, Note_on_c, 0, 78, 100
2, 117348, Note_on_c, 0, 78, 0
2, 117360, Note_on_c, 0, 79, 100
2, 117792, Note_on_c, 0, 79, 0
2, 117840, Note_on_c, 0, 78, 100
2, 118056, Note_on_c, 0, 78, 0
2, 118080, Note_on_c, 0, 79, 100
2, 118296, Note_on_c, 0, 79, 0
2, 118320, Note_on_c, 0, 88, 100
2, 118536, Note_on_c, 0, 88, 0
2, 118560, Note_on_c, 0, 86, 100
2, 118776, Note_on_c, 0, 86, 0
2, 118800, Note_on_c, 0, 84, 100
2, 119016, Note_on_c, 0, 84, 0
2, 119040, Note_on_c, 0, 83, 100
2, 119472, Note_on_c, 0, 83, 0
2, 119520, Note_on_c, 0, 81, 100
2, 119952, Note_on_c, 0, 81, 0
2, 120000, Note_on_c, 0, 79, 100
2, 120432, Note_on_c, 0, 79, 0
2, 120480, Note_on_c, 0, 78, 100
2, 120912, Note_on_c, 0, 78, 0
2, 120960, Note_on_c, 0, 79, 100
2, 121392, Note_on_c, 0, 79, 0
2, 121440, Note_on_c, 0, 77, 100
2, 121872, Note_on_c, 0, 77, 0
2, 121920, Note_on_c, 0, 76, 100
2, 123096, Note_on_c, 0, 76, 0
2, 123120, Note_on_c, 0, 81, 100
2, 123336, Note_on_c, 0, 81, 0
2, 123360, Note_on_c, 0, 79, 100
2, 123576, Note_on_c, 0, 79, 0
2, 123600, Note_on_c, 0, 77, 100
2, 123816, Note_on_c, 0, 77, 0
2, 123840, Note_on_c, 0, 76, 100
2, 124056, Note_on_c, 0, 76, 0
2, 124080, Note_on_c, 0, 81, 100
2, 124296, Note_on_c, 0, 81, 0
2, 124320, Note_on_c, 0, 74, 100
2, 124536, Note_on_c, 0, 74, 0
2, 124560, Note_on_c, 0, 79, 100
2, 124776, Note_on_c, 0, 79, 0
2, 124800, Note_on_c, 0, 72, 100
2, 125232, Note_on_c, 0, 72, 0
2, 125280, Note_on_c, 0, 71, 100
2, 125496, Note_on_c, 0, 71, 0
2, 125520, Note_on_c, 0, 74, 100
2, 125736, Note_on_c, 0, 74, 0
2, 125760, Note_on_c, 0, 76, 100
2, 125976, Note_on_c, 0, 76, 0
2, 126000, Note_on_c, 0, 77, 100
2, 126216, Note_on_c, 0, 77, 0
2, 126240, Note_on_c, 0, 79, 100
2, 126936, Note_on_c, 0, 79, 0
2, 126960, Note_on_c, 0, 82, 100
2, 127176, Note_on_c, 0, 82, 0
2, 127200, Note_on_c, 0, 81, 100
2, 127416, Note_on_c, 0, 81, 0
2, 127440, Note_on_c, 0, 79, 100
2, 127656, Note_on_c, 0, 79, 0
2, 127680, Note_on_c, 0, 77, 100
2, 127896, Note_on_c, 0, 77, 0
2, 127920, Note_on_c, 0, 79, 100
2, 128136, Note_on_c, 0, 79, 0
2, 128160, Note_on_c, 0, 81, 100
2, 128856, Note_on_c, 0, 81, 0
2, 128880, Note_on_c, 0, 84, 100
2, 129096, Note_on_c, 0, 84, 0
2, 129120, Note_on_c, 0, 83, 100
2, 129336, Note_on_c, 0, 83, 0
2, 129360, Note_on_c, 0, 81, 100
2, 129576, Note_on_c, 0, 81, 0
2, 129600, Note_on_c, 0, 79, 100
2, 129816, Note_on_c, 0, 79, 0
2, 129840, Note_on_c, 0, 81, 100
2, 130056, Note_on_c, 0, 81, 0
2, 130080, Note_on_c, 0, 83, 100
2, 130776, Note_on_c, 0, 83, 0
2, 130800, Note_on_c, 0, 81, 100
2, 131016, Note_on_c, 0, 81, 0
2, 131040, Note_on_c, 0, 79, 100
2, 131256, Note_on_c, 0, 79, 0
2, 131280, Note_on_c, 0, 78, 100
2, 131496, Note_on_c, 0, 78, 0
2, 131520, Note_on_c, 0, 76, 100
2, 131736, Note_on_c, 0, 76, 0
2, 131760, Note_on_c, 0, 84, 100
2, 131976, Note_on_c, 0, 84, 0
2, 132000, Note_on_c, 0, 74, 100
2, 132216, Note_on_c, 0, 74, 0
2, 132240, Note_on_c, 0, 83, 100
2, 132456, Note_on_c, 0, 83, 0
2, 132480, Note_on_c, 0, 72, 100
2, 132696, Note_on_c, 0, 72, 0
2, 132720, Note_on_c, 0, 81, 100
2, 132936, Note_on_c, 0, 81, 0
2, 132960, Note_on_c, 0, 71, 100
2, 133176, Note_on_c, 0, 71, 0
2, 133200, Note_on_c, 0, 81, 100
2, 133416, Note_on_c, 0, 81, 0
2, 133440, Note_on_c, 0, 79, 100
2, 135576, Note_on_c, 0, 79, 0
2, 135600, Note_on_c, 0, 77, 100
2, 136032, Note_on_c, 0, 77, 0
2, 136080, Note_on_c, 0, 76, 100
2, 136188, Note_on_c, 0, 76, 0
2, 136200, Note_on_c, 0, 74, 100
2, 136308, Note_on_c, 0, 74, 0
2, 136320, Note_on_c, 0, 76, 100
2, 136644, Note_on_c, 0, 76, 0
2, 136680, Note_on_c, 0, 77, 100
2, 136788, Note_on_c, 0, 77, 0
2, 136800, Note_on_c, 0, 74, 100
2, 137124, Note_on_c, 0, 74, 0
2, 137160, Note_on_c, 0, 72, 100
2, 137268, Note_on_c, 0, 72, 0
2, 137280, Note_on_c, 0, 72, 100
2, 137496, Note_on_c, 0, 72, 0
2, 139200, Note_on_c, 0, 67, 100
2, 139416, Note_on_c, 0, 67, 0
2, 139440, Note_on_c, 0, 77, 100
2, 139656, Note_on_c, 0, 77, 0
2, 139680, Note_on_c, 0, 76, 100
2, 139896, Note_on_c, 0, 76, 0
2, 139920, Note_on_c, 0, 74, 100
2, 140136, Note_on_c, 0, 74, 0
2, 140160, Note_on_c, 0, 72, 100
2, 140376, Note_on_c, 0, 72, 0
2, 140400, Note_on_c, 0, 71, 100
2, 140616, Note_on_c, 0, 71, 0
2, 140640, Note_on_c, 0, 72, 100
2, 140856, Note_on_c, 0, 72, 0
2, 140880, Note_on_c, 0, 76, 100
2, 141096, Note_on_c, 0, 76, 0
2, 141120, Note_on_c, 0, 69, 100
2, 141336, Note_on_c, 0, 69, 0
2, 143040, Note_on_c, 0, 74, 100
2, 143256, Note_on_c, 0, 74, 0
2, 143280, Note_on_c, 0, 82, 100
2, 143496, Note_on_c, 0, 82, 0
2, 143520, Note_on_c, 0, 81, 100
2, 143736, Note_on_c, 0, 81, 0
2, 143760, Note_on_c, 0, 79, 100
2, 143976, Note_on_c, 0, 79, 0
2, 144000, Note_on_c, 0, 77, 100
2, 144216, Note_on_c, 0, 77, 0
2, 144240, Note_on_c, 0, 76, 100
2, 144456, Note_on_c, 0, 76, 0
2, 144480, Note_on_c, 0, 74, 100
2, 144696, Note_on_c, 0, 74, 0
2, 144720, Note_on_c, 0, 73, 100
2, 144936, Note_on_c, 0, 73, 0
2, 144960, Note_on_c, 0, 74, 100
2, 145176, Note_on_c, 0, 74, 0
2, 145200, Note_on_c, 0, 86, 100
2, 145416, Note_on_c, 0, 86, 0
2, 145440, Note_on_c, 0, 76, 100
2, 145656, Note_on_c, 0, 76, 0
2, 145680, Note_on_c, 0, 84, 100
2, 145896, Note_on_c, 0, 84, 0
2, 145920, Note_on_c, 0, 74, 100
2, 146136, Note_on_c, 0, 74, 0
2, 146160, Note_on_c, 0, 82, 100
2, 146376, Note_on_c, 0, 82, 0
2, 146400, Note_on_c, 0, 73, 100
2, 146832, Note_on_c, 0, 73, 0
2, 146880, Note_on_c, 0, 74, 100
2, 148056, Note_on_c, 0, 74, 0
2, 148080, Note_on_c, 0, 81, 100
2, 148296, Note_on_c, 0, 81, 0
2, 148320, Note_on_c, 0, 79, 100
2, 148536, Note_on_c, 0, 79, 0
2, 148560, Note_on_c, 0, 78, 100
2, 148776, Note_on_c, 0, 78, 0
2, 148800, Note_on_c, 0, 79, 100
2, 149016, Note_on_c, 0, 79, 0
2, 154080, Note_on_c, 0, 84, 100
2, 154512, Note_on_c, 0, 84, 0
2, 154560, Note_on_c, 0, 81, 100
2, 154776, Note_on_c, 0, 81, 0
2, 154800, Note_on_c, 0, 84, 100
2, 155016, Note_on_c, 0, 84, 0
2, 155040, Note_on_c, 0, 78, 100
2, 155256, Note_on_c, 0, 78, 0
2, 155280, Note_on_c, 0, 81, 100
2, 155496, Note_on_c, 0, 81, 0
2, 155520, Note_on_c, 0, 74, 100
2, 155736, Note_on_c, 0, 74, 0
2, 155760, Note_on_c, 0, 62, 100
2, 155976, Note_on_c, 0, 62, 0
2, 156000, Note_on_c, 0, 74, 100
2, 156216, Note_on_c, 0, 74, 0
2, 156240, Note_on_c, 0, 76, 100
2, 156456, Note_on_c, 0, 76, 0
2, 156480, Note_on_c, 0, 69, 100
2, 156912, Note_on_c, 0, 69, 0
2, 156960, Note_on_c, 0, 74, 100
2, 157656, Note_on_c, 0, 74, 0
2, 157680, Note_on_c, 0, 73, 100
2, 157896, Note_on_c, 0, 73, 0
2, 161040, Note_on_c, 0, 80, 100
2, 161256, Note_on_c, 0, 80, 0
2, 161280, Note_on_c, 0, 70, 100
2, 161496, Note_on_c, 0, 70, 0
2, 161520, Note_on_c, 0, 79, 100
2, 161736, Note_on_c, 0, 79, 0
2, 161760, Note_on_c, 0, 68, 100
2, 161976, Note_on_c, 0, 68, 0
2, 162000, Note_on_c, 0, 77, 100
2, 162072, Note_on_c, 0, 77, 0
2, 162080, Note_on_c, 0, 79, 100
2, 162152, Note_on_c, 0, 79, 0
2, 162160, Note_on_c, 0, 80, 100
2, 162232, Note_on_c, 0, 80, 0
2, 162240, Note_on_c, 0, 76, 100
2, 162456, Note_on_c, 0, 76, 0
2, 164400, Note_on_c, 0, 74, 100
2, 164616, Note_on_c, 0, 74, 0
2, 164640, Note_on_c, 0, 72, 100
2, 164856, Note_on_c, 0, 72, 0
2, 165360, Note_on_c, 0, 70, 100
2, 165576, Note_on_c, 0, 70, 0
2, 165600, Note_on_c, 0, 69, 100
2, 165816, Note_on_c, 0, 69, 0
2, 166320, Note_on_c, 0, 67, 100
2, 166536, Note_on_c, 0, 67, 0
2, 166560, Note_on_c, 0, 65, 100
2, 166776, Note_on_c, 0, 65, 0
2, 167280, Note_on_c, 0, 65, 100
2, 167496, Note_on_c, 0, 65, 0
2, 167520, Note_on_c, 0, 64, 100
2, 167736, Note_on_c, 0, 64, 0
2, 168240, Note_on_c, 0, 69, 100
2, 168456, Note_on_c, 0, 69, 0
2, 168480, Note_on_c, 0, 67, 100
2, 168696, Note_on_c, 0, 67, 0
2, 169200, Note_on_c, 0, 72, 100
2, 169416, Note_on_c, 0, 72, 0
2, 169440, Note_on_c, 0, 70, 100
2, 169656, Note_on_c, 0, 70, 0
2, 169920, Note_on_c, 0, 74, 100
2, 170136, Note_on_c, 0, 74, 0
2, 170400, Note_on_c, 0, 76, 100
2, 170616, Note_on_c, 0, 76, 0
2, 170880, Note_on_c, 0, 77, 100
2, 171096, Note_on_c, 0, 77, 0
2, 171360, Note_on_c, 0, 76, 100
2, 171576, Note_on_c, 0, 76, 0
2, 172080, Note_on_c, 0, 84, 100
2, 172296, Note_on_c, 0, 84, 0
2, 172320, Note_on_c, 0, 74, 100
2, 172536, Note_on_c, 0, 74, 0
2, 172560, Note_on_c, 0, 83, 100
2, 172776, Note_on_c, 0, 83, 0
2, 172800, Note_on_c, 0, 72, 100
2, 173016, Note_on_c, 0, 72, 0
2, 173040, Note_on_c, 0, 81, 100
2, 173256, Note_on_c, 0, 81, 0
2, 173280, Note_on_c, 0, 71, 100
2, 173976, Note_on_c, 0, 71, 0
2, 174000, Note_on_c, 0, 83, 100
2, 174216, Note_on_c, 0, 83, 0
2, 174240, Note_on_c, 0, 76, 100
2, 174456, Note_on_c, 0, 76, 0
2, 174480, Note_on_c, 0, 80, 100
2, 174696, Note_on_c, 0, 80, 0
2, 174720, Note_on_c, 0, 81, 100
2, 174936, Note_on_c, 0, 81, 0
2, 179520, Note_on_c, 0, 86, 100
2, 179628, Note_on_c, 0, 86, 0
2, 180000, Note_on_c, 0, 86, 100
2, 180108, Note_on_c, 0, 86, 0
2, 180480, Note_on_c, 0, 74, 100
2, 180588, Note_on_c, 0, 74, 0
2, 180960, Note_on_c, 0, 74, 100
2, 181068, Note_on_c, 0, 74, 0
2, 181440, Note_on_c, 0, 86, 100
2, 181548, Note_on_c, 0, 86, 0
2, 181920, Note_on_c, 0, 86, 100
2, 182028, Note_on_c, 0, 86, 0
2, 182400, Note_on_c, 0, 74, 100
2, 182508, Note_on_c, 0, 74, 0
2, 182880, Note_on_c, 0, 74, 100
2, 182988, Note_on_c, 0, 74, 0
2, 183360, Note_on_c, 0, 77, 100
2, 183468, Note_on_c, 0, 77, 0
2, 184560, Note_on_c, 0, 73, 100
2, 184668, Note_on_c, 0, 73, 0
2, 184800, Note_on_c, 0, 74, 100
2, 184908, Note_on_c, 0, 74, 0
2, 185040, Note_on_c, 0, 76, 100
2, 185148, Note_on_c, 0, 76, 0
2, 185280, Note_on_c, 0, 77, 100
2, 185388, Note_on_c, 0, 77, 0
2, 186240, Note_on_c, 0, 69, 100
2, 186456, Note_on_c, 0, 69, 0
2, 186480, Note_on_c, 0, 77, 100
2, 186696, Note_on_c, 0, 77, 0
2, 186720, Note_on_c, 0, 76, 100
2, 186936, Note_on_c, 0, 76, 0
2, 186960, Note_on_c, 0, 74, 100
2, 187176, Note_on_c, 0, 74, 0
2, 187200, Note_on_c, 0, 72, 100
2, 187416, Note_on_c, 0, 72, 0
2, 187440, Note_on_c, 0, 69, 100
2, 187656, Note_on_c, 0, 69, 0
2, 187680, Note_on_c, 0, 70, 100
2, 187896, Note_on_c, 0, 70, 0
2, 187920, Note_on_c, 0, 82, 100
2, 188136, Note_on_c, 0, 82, 0
2, 188160, Note_on_c, 0, 81, 100
2, 188376, Note_on_c, 0, 81, 0
2, 188400, Note_on_c, 0, 74, 100
2, 188616, Note_on_c, 0, 74, 0
2, 188640, Note_on_c, 0, 78, 100
2, 188856, Note_on_c, 0, 78, 0
2, 188880, Note_on_c, 0, 84, 100
2, 189096, Note_on_c, 0, 84, 0
2, 189120, Note_on_c, 0, 83, 100
2, 189336, Note_on_c, 0, 83, 0
2, 190080, Note_on_c, 0, 69, 100
2, 190296, Note_on_c, 0, 69, 0
2, 190320, Note_on_c, 0, 77, 100
2, 190536, Note_on_c, 0, 77, 0
2, 190560, Note_on_c, 0, 76, 100
2, 190776, Note_on_c, 0, 76, 0
2, 190800, Note_on_c, 0, 74, 100
2, 191016, Note_on_c, 0, 74, 0
2, 191040, Note_on_c, 0, 72, 100
2, 191256, Note_on_c, 0, 72, 0
2, 191280, Note_on_c, 0, 71, 100
2, 191496, Note_on_c, 0, 71, 0
2, 191520, Note_on_c, 0, 72, 100
2, 191736, Note_on_c, 0, 72, 0
2, 191760, Note_on_c, 0, 74, 100
2, 191976, Note_on_c, 0, 74, 0
2, 192000, Note_on_c, 0, 76, 100
2, 192216, Note_on_c, 0, 76, 0
2, 192480, Note_on_c, 0, 69, 100
2, 192696, Note_on_c, 0, 69, 0
2, 192720, Note_on_c, 0, 71, 100
2, 192936, Note_on_c, 0, 71, 0
2, 192960, Note_on_c, 0, 72, 100
2, 193176, Note_on_c, 0, 72, 0
2, 193200, Note_on_c, 0, 74, 100
2, 193416, Note_on_c, 0, 74, 0
2, 193440, Note_on_c, 0, 72, 100
2, 193656, Note_on_c, 0, 72, 0
2, 193680, Note_on_c, 0, 71, 100
2, 193896, Note_on_c, 0, 71, 0
2, 193920, Note_on_c, 0, 69, 100
2, 194136, Note_on_c, 0, 69, 0
2, 194160, Note_on_c, 0, 80, 100
2, 194376, Note_on_c, 0, 80, 0
2, 194400, Note_on_c, 0, 81, 100
2, 194616, Note_on_c, 0, 81, 0
2, 194640, Note_on_c, 0, 83, 100
2, 194856, Note_on_c, 0, 83, 0
2, 194880, Note_on_c, 0, 84, 100
2, 195096, Note_on_c, 0, 84, 0
2, 195120, Note_on_c, 0, 83, 100
2, 195336, Note_on_c, 0, 83, 0
2, 195360, Note_on_c, 0, 81, 100
2, 195576, Note_on_c, 0, 81, 0
2, 195600, Note_on_c, 0, 80, 100
2, 195816, Note_on_c, 0, 80, 0
2, 195840, Note_on_c, 0, 81, 100
2, 196056, Note_on_c, 0, 81, 0
2, 196080, Note_on_c, 0, 86, 100
2, 196296, Note_on_c, 0, 86, 0
2, 196320, Note_on_c, 0, 84, 100
2, 196536, Note_on_c, 0, 84, 0
2, 196560, Note_on_c, 0, 83, 100
2, 196776, Note_on_c, 0, 83, 0
2, 196800, Note_on_c, 0, 81, 100
2, 197016, Note_on_c, 0, 81, 0
2, 198000, Note_on_c, 0, 77, 100
2, 198432, Note_on_c, 0, 77, 0
2, 198480, Note_on_c, 0, 76, 100
2, 198936, Note_on_c, 0, 76, 0
2, 198960, Note_on_c, 0, 74, 100
2, 199176, Note_on_c, 0, 74, 0
2, 199200, Note_on_c, 0, 74, 100
2, 199416, Note_on_c, 0, 74, 0
2, 215043, Note_on_c, 0, 76, 100
2, 215259, Note_on_c, 0, 76, 0
2, 215283, Note_on_c, 0, 84, 100
2, 215499, Note_on_c, 0, 84, 0
2, 215523, Note_on_c, 0, 83, 100
2, 215739, Note_on_c, 0, 83, 0
2, 215763, Note_on_c, 0, 81, 100
2, 215979, Note_on_c, 0, 81, 0
2, 216003, Note_on_c, 0, 79, 100
2, 216435, Note_on_c, 0, 79, 0
2, 216483, Note_on_c, 0, 78, 100
2, 216915, Note_on_c, 0, 78, 0
2, 216963, Note_on_c, 0, 76, 100
2, 217395, Note_on_c, 0, 76, 0
2, 217443, Note_on_c, 0, 75, 100
2, 217875, Note_on_c, 0, 75, 0
2, 217923, Note_on_c, 0, 76, 100
2, 218355, Note_on_c, 0, 76, 0
2, 218403, Note_on_c, 0, 74, 100
2, 218835, Note_on_c, 0, 74, 0
2, 218883, Note_on_c, 0, 72, 100
2, 219315, Note_on_c, 0, 72, 0
2, 219363, Note_on_c, 0, 73, 100
2, 219795, Note_on_c, 0, 73, 0
2, 219843, Note_on_c, 0, 74, 100
2, 220059, Note_on_c, 0, 74, 0
2, 221043, Note_on_c, 0, 77, 100
2, 221259, Note_on_c, 0, 77, 0
2, 221283, Note_on_c, 0, 67, 100
2, 221499, Note_on_c, 0, 67, 0
2, 221523, Note_on_c, 0, 76, 100
2, 221739, Note_on_c, 0, 76, 0
2, 221763, Note_on_c, 0, 65, 100
2, 221979, Note_on_c, 0, 65, 0
2, 222003, Note_on_c, 0, 74, 100
2, 222219, Note_on_c, 0, 74, 0
2, 222243, Note_on_c, 0, 64, 100
2, 222459, Note_on_c, 0, 64, 0
2, 222483, Note_on_c, 0, 74, 100
2, 222699, Note_on_c, 0, 74, 0
2, 222723, Note_on_c, 0, 72, 100
2, 222939, Note_on_c, 0, 72, 0
2, 222963, Note_on_c, 0, 69, 100
2, 223179, Note_on_c, 0, 69, 0
2, 223203, Note_on_c, 0, 71, 100
2, 223419, Note_on_c, 0, 71, 0
2, 223443, Note_on_c, 0, 73, 100
2, 223659, Note_on_c, 0, 73, 0
2, 223683, Note_on_c, 0, 74, 100
2, 224859, Note_on_c, 0, 74, 0
2, 224883, Note_on_c, 0, 81, 100
2, 225099, Note_on_c, 0, 81, 0
2, 225123, Note_on_c, 0, 79, 100
2, 225339, Note_on_c, 0, 79, 0
2, 225363, Note_on_c, 0, 77, 100
2, 225579, Note_on_c, 0, 77, 0
2, 225603, Note_on_c, 0, 76, 100
2, 225819, Note_on_c, 0, 76, 0
2, 225843, Note_on_c, 0, 84, 100
2, 226059, Note_on_c, 0, 84, 0
2, 226083, Note_on_c, 0, 83, 100
2, 226299, Note_on_c, 0, 83, 0
2, 226323, Note_on_c, 0, 81, 100
2, 226539, Note_on_c, 0, 81, 0
2, 226563, Note_on_c, 0, 79, 100
2, 226995, Note_on_c, 0, 79, 0
2, 227043, Note_on_c, 0, 80, 100
2, 227475, Note_on_c, 0, 80, 0
2, 227523, Note_on_c, 0, 81, 100
2, 227739, Note_on_c, 0, 81, 0
2, 228723, Note_on_c, 0, 77, 100
2, 228939, Note_on_c, 0, 77, 0
2, 228963, Note_on_c, 0, 86, 100
2, 229179, Note_on_c, 0, 86, 0
2, 229203, Note_on_c, 0, 76, 100
2, 229419, Note_on_c, 0, 76, 0
2, 229443, Note_on_c, 0, 84, 100
2, 229659, Note_on_c, 0, 84, 0
2, 229683, Note_on_c, 0, 74, 100
2, 229899, Note_on_c, 0, 74, 0
2, 229923, Note_on_c, 0, 83, 100
2, 230355, Note_on_c, 0, 83, 0
2, 230403, Note_on_c, 0, 83, 100
2, 230511, Note_on_c, 0, 83, 0
2, 230523, Note_on_c, 0, 76, 100
2, 230631, Note_on_c, 0, 76, 0
2, 230643, Note_on_c, 0, 81, 100
2, 231075, Note_on_c, 0, 81, 0
2, 231123, Note_on_c, 0, 79, 100
2, 231339, Note_on_c, 0, 79, 0
2, 231363, Note_on_c, 0, 77, 100
2, 232539, Note_on_c, 0, 77, 0
2, 232563, Note_on_c, 0, 71, 100
2, 232779, Note_on_c, 0, 71, 0
2, 232803, Note_on_c, 0, 76, 100
2, 233019, Note_on_c, 0, 76, 0
2, 233043, Note_on_c, 0, 74, 100
2, 233259, Note_on_c, 0, 74, 0
2, 233283, Note_on_c, 0, 72, 100
2, 233499, Note_on_c, 0, 72, 0
2, 233523, Note_on_c, 0, 88, 100
2, 233739, Note_on_c, 0, 88, 0
2, 233763, Note_on_c, 0, 76, 100
2, 233979, Note_on_c, 0, 76, 0
2, 234003, Note_on_c, 0, 80, 100
2, 234219, Note_on_c, 0, 80, 0
2, 234243, Note_on_c, 0, 81, 100
2, 234675, Note_on_c, 0, 81, 0
2, 234675, End_track
3, 0, Start_track
3, 0, Sequence_number, 65535
3, 0, MIDI_port, 0
3, 0, Title_t, "Violino concertato"
3, 0, Control_c, 1, 0, 0
3, 0, Control_c, 1, 32, 0
3, 0, Program_c, 1, 40
3, 0, Control_c, 1, 7, 100
3, 0, Control_c, 1, 10, 74
3, 3840, Note_on_c, 1, 76, 100
3, 4056, Note_on_c, 1, 76, 0
3, 4080, Note_on_c, 1, 84, 100
3, 4296, Note_on_c, 1, 84, 0
3, 4320, Note_on_c, 1, 83, 100
3, 4536, Note_on_c, 1, 83, 0
3, 4560, Note_on_c, 1, 81, 100
3, 4776, Note_on_c, 1, 81, 0
3, 4800, Note_on_c, 1, 79, 100
3, 5232, Note_on_c, 1, 79, 0
3, 5280, Note_on_c, 1, 78, 100
3, 5712, Note_on_c, 1, 78, 0
3, 5760, Note_on_c, 1, 76, 100
3, 6192, Note_on_c, 1, 76, 0
3, 6240, Note_on_c, 1, 75, 100
3, 6672, Note_on_c, 1, 75, 0
3, 6720, Note_on_c, 1, 76, 100
3, 7152, Note_on_c, 1, 76, 0
3, 7200, Note_on_c, 1, 74, 100
3, 7632, Note_on_c, 1, 74, 0
3, 7680, Note_on_c, 1, 72, 100
3, 8112, Note_on_c, 1, 72, 0
3, 8160, Note_on_c, 1, 73, 100
3, 8592, Note_on_c, 1, 73, 0
3, 8640, Note_on_c, 1, 74, 100
3, 8856, Note_on_c, 1, 74, 0
3, 9840, Note_on_c, 1, 77, 100
3, 10056, Note_on_c, 1, 77, 0
3, 10080, Note_on_c, 1, 67, 100
3, 10296, Note_on_c, 1, 67, 0
3, 10320, Note_on_c, 1, 76, 100
3, 10536, Note_on_c, 1, 76, 0
3, 10560, Note_on_c, 1, 65, 100
3, 10776, Note_on_c, 1, 65, 0
3, 10800, Note_on_c, 1, 74, 100
3, 11016, Note_on_c, 1, 74, 0
3, 11040, Note_on_c, 1, 64, 100
3, 11256, Note_on_c, 1, 64, 0
3, 11280, Note_on_c, 1, 74, 100
3, 11496, Note_on_c, 1, 74, 0
3, 11520, Note_on_c, 1, 72, 100
3, 11736, Note_on_c, 1, 72, 0
3, 11760, Note_on_c, 1, 69, 100
3, 11976, Note_on_c, 1, 69, 0
3, 12000, Note_on_c, 1, 71, 100
3, 12216, Note_on_c, 1, 71, 0
3, 12240, Note_on_c, 1, 73, 100
3, 12456, Note_on_c, 1, 73, 0
3, 12480, Note_on_c, 1, 74, 100
3, 13656, Note_on_c, 1, 74, 0
3, 13680, Note_on_c, 1, 81, 100
3, 13896, Note_on_c, 1, 81, 0
3, 13920, Note_on_c, 1, 79, 100
3, 14136, Note_on_c, 1, 79, 0
3, 14160, Note_on_c, 1, 77, 100
3, 14376, Note_on_c, 1, 77, 0
3, 14400, Note_on_c, 1, 76, 100
3, 14616, Note_on_c, 1, 76, 0
3, 14640, Note_on_c, 1, 84, 100
3, 14856, Note_on_c, 1, 84, 0
3, 14880, Note_on_c, 1, 83, 100
3, 15096, Note_on_c, 1, 83, 0
3, 15120, Note_on_c, 1, 81, 100
3, 15336, Note_on_c, 1, 81, 0
3, 15360, Note_on_c, 1, 79, 100
3, 15792, Note_on_c, 1, 79, 0
3, 15840, Note_on_c, 1, 80, 100
3, 16272, Note_on_c, 1, 80, 0
3, 16320, Note_on_c, 1, 81, 100
3, 16536, Note_on_c, 1, 81, 0
3, 17520, Note_on_c, 1, 77, 100
3, 17736, Note_on_c, 1, 77, 0
3, 17760, Note_on_c, 1, 86, 100
3, 17976, Note_on_c, 1, 86, 0
3, 18000, Note_on_c, 1, 76, 100
3, 18216, Note_on_c, 1, 76, 0
3, 18240, Note_on_c, 1, 84, 100
3, 18456, Note_on_c, 1, 84, 0
3, 18480, Note_on_c, 1, 74, 100
3, 18696, Note_on_c, 1, 74, 0
3, 18720, Note_on_c, 1, 83, 100
3, 19308, Note_on_c, 1, 83, 0
3, 19320, Note_on_c, 1, 76, 100
3, 19428, Note_on_c, 1, 76, 0
3, 19440, Note_on_c, 1, 81, 100
3, 19872, Note_on_c, 1, 81, 0
3, 19920, Note_on_c, 1, 79, 100
3, 20136, Note_on_c, 1, 79, 0
3, 20160, Note_on_c, 1, 77, 100
3, 21336, Note_on_c, 1, 77, 0
3, 21360, Note_on_c, 1, 71, 100
3, 21576, Note_on_c, 1, 71, 0
3, 21600, Note_on_c, 1, 76, 100
3, 21816, Note_on_c, 1, 76, 0
3, 21840, Note_on_c, 1, 74, 100
3, 22056, Note_on_c, 1, 74, 0
3, 22080, Note_on_c, 1, 72, 100
3, 22512, Note_on_c, 1, 72, 0
3, 22560, Note_on_c, 1, 71, 100
3, 22992, Note_on_c, 1, 71, 0
3, 23040, Note_on_c, 1, 69, 100
3, 23256, Note_on_c, 1, 69, 0
3, 34560, Note_on_c, 1, 76, 100
3, 34992, Note_on_c, 1, 76, 0
3, 35040, Note_on_c, 1, 78, 100
3, 35472, Note_on_c, 1, 78, 0
3, 35520, Note_on_c, 1, 71, 100
3, 35736, Note_on_c, 1, 71, 0
3, 35760, Note_on_c, 1, 84, 100
3, 35976, Note_on_c, 1, 84, 0
3, 36000, Note_on_c, 1, 74, 100
3, 36216, Note_on_c, 1, 74, 0
3, 36240, Note_on_c, 1, 83, 100
3, 36456, Note_on_c, 1, 83, 0
3, 36480, Note_on_c, 1, 72, 100
3, 36696, Note_on_c, 1, 72, 0
3, 36720, Note_on_c, 1, 81, 100
3, 36936, Note_on_c, 1, 81, 0
3, 36960, Note_on_c, 1, 71, 100
3, 37176, Note_on_c, 1, 71, 0
3, 37200, Note_on_c, 1, 81, 100
3, 37416, Note_on_c, 1, 81, 0
3, 37440, Note_on_c, 1, 79, 100
3, 37656, Note_on_c, 1, 79, 0
3, 39360, Note_on_c, 1, 74, 100
3, 39576, Note_on_c, 1, 74, 0
3, 39600, Note_on_c, 1, 82, 100
3, 39816, Note_on_c, 1, 82, 0
3, 39840, Note_on_c, 1, 81, 100
3, 40056, Note_on_c, 1, 81, 0
3, 40080, Note_on_c, 1, 79, 100
3, 40296, Note_on_c, 1, 79, 0
3, 40320, Note_on_c, 1, 77, 100
3, 40752, Note_on_c, 1, 77, 0
3, 40800, Note_on_c, 1, 75, 100
3, 41232, Note_on_c, 1, 75, 0
3, 41280, Note_on_c, 1, 74, 100
3, 41928, Note_on_c, 1, 74, 0
3, 42000, Note_on_c, 1, 73, 100
3, 42216, Note_on_c, 1, 73, 0
3, 42240, Note_on_c, 1, 74, 100
3, 42456, Note_on_c, 1, 74, 0
3, 51360, Note_on_c, 1, 76, 100
3, 51468, Note_on_c, 1, 76, 0
3, 51600, Note_on_c, 1, 84, 100
3, 51708, Note_on_c, 1, 84, 0
3, 51840, Note_on_c, 1, 83, 100
3, 51948, Note_on_c, 1, 83, 0
3, 52080, Note_on_c, 1, 81, 100
3, 52188, Note_on_c, 1, 81, 0
3, 52320, Note_on_c, 1, 79, 100
3, 52428, Note_on_c, 1, 79, 0
3, 55920, Note_on_c, 1, 83, 100
3, 56136, Note_on_c, 1, 83, 0
3, 56160, Note_on_c, 1, 72, 100
3, 56376, Note_on_c, 1, 72, 0
3, 56400, Note_on_c, 1, 81, 100
3, 56616, Note_on_c, 1, 81, 0
3, 56640, Note_on_c, 1, 71, 100
3, 56856, Note_on_c, 1, 71, 0
3, 56880, Note_on_c, 1, 80, 100
3, 57096, Note_on_c, 1, 80, 0
3, 57120, Note_on_c, 1, 81, 100
3, 57336, Note_on_c, 1, 81, 0
3, 60480, Note_on_c, 1, 69, 100
3, 60696, Note_on_c, 1, 69, 0
3, 60720, Note_on_c, 1, 77, 100
3, 60936, Note_on_c, 1, 77, 0
3, 60960, Note_on_c, 1, 76, 100
3, 61176, Note_on_c, 1, 76, 0
3, 61200, Note_on_c, 1, 74, 100
3, 61416, Note_on_c, 1, 74, 0
3, 61440, Note_on_c, 1, 72, 100
3, 61656, Note_on_c, 1, 72, 0
3, 61680, Note_on_c, 1, 83, 100
3, 61896, Note_on_c, 1, 83, 0
3, 61920, Note_on_c, 1, 81, 100
3, 62136, Note_on_c, 1, 81, 0
3, 62160, Note_on_c, 1, 80, 100
3, 62376, Note_on_c, 1, 80, 0
3, 62400, Note_on_c, 1, 81, 100
3, 62832, Note_on_c, 1, 81, 0
3, 62880, Note_on_c, 1, 79, 100
3, 63312, Note_on_c, 1, 79, 0
3, 63360, Note_on_c, 1, 77, 100
3, 63792, Note_on_c, 1, 77, 0
3, 63840, Note_on_c, 1, 76, 100
3, 65184, Note_on_c, 1, 76, 0
3, 65280, Note_on_c, 1, 74, 100
3, 65496, Note_on_c, 1, 74, 0
3, 65520, Note_on_c, 1, 79, 100
3, 65736, Note_on_c, 1, 79, 0
3, 65760, Note_on_c, 1, 77, 100
3, 65976, Note_on_c, 1, 77, 0
3, 66000, Note_on_c, 1, 76, 100
3, 66216, Note_on_c, 1, 76, 0
3, 66240, Note_on_c, 1, 74, 100
3, 66456, Note_on_c, 1, 74, 0
3, 71520, Note_on_c, 1, 76, 100
3, 72216, Note_on_c, 1, 76, 0
3, 72240, Note_on_c, 1, 79, 100
3, 72456, Note_on_c, 1, 79, 0
3, 72480, Note_on_c, 1, 73, 100
3, 72696, Note_on_c, 1, 73, 0
3, 72720, Note_on_c, 1, 76, 100
3, 72936, Note_on_c, 1, 76, 0
3, 72960, Note_on_c, 1, 69, 100
3, 73176, Note_on_c, 1, 69, 0
3, 73200, Note_on_c, 1, 57, 100
3, 73416, Note_on_c, 1, 57, 0
3, 73440, Note_on_c, 1, 69, 100
3, 73656, Note_on_c, 1, 69, 0
3, 73680, Note_on_c, 1, 71, 100
3, 73896, Note_on_c, 1, 71, 0
3, 73920, Note_on_c, 1, 64, 100
3, 74136, Note_on_c, 1, 64, 0
3, 74160, Note_on_c, 1, 57, 100
3, 74376, Note_on_c, 1, 57, 0
3, 74400, Note_on_c, 1, 69, 100
3, 75096, Note_on_c, 1, 69, 0
3, 75120, Note_on_c, 1, 68, 100
3, 75336, Note_on_c, 1, 68, 0
3, 77520, Note_on_c, 1, 77, 100
3, 77976, Note_on_c, 1, 77, 0
3, 78000, Note_on_c, 1, 74, 100
3, 78432, Note_on_c, 1, 74, 0
3, 78480, Note_on_c, 1, 71, 100
3, 78936, Note_on_c, 1, 71, 0
3, 78960, Note_on_c, 1, 77, 100
3, 79176, Note_on_c, 1, 77, 0
3, 79200, Note_on_c, 1, 76, 100
3, 79416, Note_on_c, 1, 76, 0
3, 79440, Note_on_c, 1, 80, 100
3, 79656, Note_on_c, 1, 80, 0
3, 79680, Note_on_c, 1, 81, 100
3, 79896, Note_on_c, 1, 81, 0
3, 80880, Note_on_c, 1, 74, 100
3, 81312, Note_on_c, 1, 74, 0
3, 81360, Note_on_c, 1, 72, 100
3, 81816, Note_on_c, 1, 72, 0
3, 81840, Note_on_c, 1, 71, 100
3, 82272, Note_on_c, 1, 71, 0
3, 82320, Note_on_c, 1, 83, 100
3, 82536, Note_on_c, 1, 83, 0
3, 82560, Note_on_c, 1, 84, 100
3, 82776, Note_on_c, 1, 84, 0
3, 82800, Note_on_c, 1, 76, 100
3, 83016, Note_on_c, 1, 76, 0
3, 83040, Note_on_c, 1, 78, 100
3, 83256, Note_on_c, 1, 78, 0
3, 83280, Note_on_c, 1, 83, 100
3, 83736, Note_on_c, 1, 83, 0
3, 83760, Note_on_c, 1, 81, 100
3, 83976, Note_on_c, 1, 81, 0
3, 84000, Note_on_c, 1, 83, 100
3, 84696, Note_on_c, 1, 83, 0
3, 84720, Note_on_c, 1, 81, 100
3, 85152, Note_on_c, 1, 81, 0
3, 85200, Note_on_c, 1, 79, 100
3, 85656, Note_on_c, 1, 79, 0
3, 85680, Note_on_c, 1, 78, 100
3, 85896, Note_on_c, 1, 78, 0
3, 85920, Note_on_c, 1, 78, 100
3, 86616, Note_on_c, 1, 78, 0
3, 86640, Note_on_c, 1, 76, 100
3, 86856, Note_on_c, 1, 76, 0
3, 87120, Note_on_c, 1, 77, 100
3, 87336, Note_on_c, 1, 77, 0
3, 87600, Note_on_c, 1, 76, 100
3, 87816, Note_on_c, 1, 76, 0
3, 88080, Note_on_c, 1, 79, 100
3, 88296, Note_on_c, 1, 79, 0
3, 88560, Note_on_c, 1, 78, 100
3, 88776, Note_on_c, 1, 78, 0
3, 89040, Note_on_c, 1, 79, 100
3, 89256, Note_on_c, 1, 79, 0
3, 89520, Note_on_c, 1, 78, 100
3, 89736, Note_on_c, 1, 78, 0
3, 90000, Note_on_c, 1, 73, 100
3, 90216, Note_on_c, 1, 73, 0
3, 90960, Note_on_c, 1, 78, 100
3, 91416, Note_on_c, 1, 78, 0
3, 91440, Note_on_c, 1, 76, 100
3, 91872, Note_on_c, 1, 76, 0
3, 91920, Note_on_c, 1, 74, 100
3, 92376, Note_on_c, 1, 74, 0
3, 92400, Note_on_c, 1, 73, 100
3, 92562, Note_on_c, 1, 73, 0
3, 92580, Note_on_c, 1, 71, 100
3, 92634, Note_on_c, 1, 71, 0
3, 92640, Note_on_c, 1, 70, 100
3, 92856, Note_on_c, 1, 70, 0
3, 92880, Note_on_c, 1, 73, 100
3, 93096, Note_on_c, 1, 73, 0
3, 93360, Note_on_c, 1, 66, 100
3, 93576, Note_on_c, 1, 66, 0
3, 93840, Note_on_c, 1, 72, 100
3, 94056, Note_on_c, 1, 72, 0
3, 94320, Note_on_c, 1, 71, 100
3, 94536, Note_on_c, 1, 71, 0
3, 94560, Note_on_c, 1, 59, 100
3, 94776, Note_on_c, 1, 59, 0
3, 94800, Note_on_c, 1, 65, 100
3, 95016, Note_on_c, 1, 65, 0
3, 95040, Note_on_c, 1, 64, 100
3, 95256, Note_on_c, 1, 64, 0
3, 95280, Note_on_c, 1, 62, 100
3, 95496, Note_on_c, 1, 62, 0
3, 95520, Note_on_c, 1, 60, 100
3, 95736, Note_on_c, 1, 60, 0
3, 97920, Note_on_c, 1, 66, 100
3, 98136, Note_on_c, 1, 66, 0
3, 98160, Note_on_c, 1, 72, 100
3, 98376, Note_on_c, 1, 72, 0
3, 98400, Note_on_c, 1, 71, 100
3, 98616, Note_on_c, 1, 71, 0
3, 98640, Note_on_c, 1, 69, 100
3, 98856, Note_on_c, 1, 69, 0
3, 98880, Note_on_c, 1, 67, 100
3, 99096, Note_on_c, 1, 67, 0
3, 103920, Note_on_c, 1, 77, 100
3, 104352, Note_on_c, 1, 77, 0
3, 104400, Note_on_c, 1, 76, 100
3, 104856, Note_on_c, 1, 76, 0
3, 104880, Note_on_c, 1, 74, 100
3, 105042, Note_on_c, 1, 74, 0
3, 105060, Note_on_c, 1, 72, 100
3, 105114, Note_on_c, 1, 72, 0
3, 105120, Note_on_c, 1, 71, 100
3, 105552, Note_on_c, 1, 71, 0
3, 105600, Note_on_c, 1, 72, 100
3, 106032, Note_on_c, 1, 72, 0
3, 106080, Note_on_c, 1, 73, 100
3, 106512, Note_on_c, 1, 73, 0
3, 106560, Note_on_c, 1, 74, 100
3, 106992, Note_on_c, 1, 74, 0
3, 107040, Note_on_c, 1, 75, 100
3, 107472, Note_on_c, 1, 75, 0
3, 107520, Note_on_c, 1, 76, 100
3, 107952, Note_on_c, 1, 76, 0
3, 108000, Note_on_c, 1, 77, 100
3, 108432, Note_on_c, 1, 77, 0
3, 108480, Note_on_c, 1, 76, 100
3, 108696, Note_on_c, 1, 76, 0
3, 110640, Note_on_c, 1, 63, 100
3, 110712, Note_on_c, 1, 63, 0
3, 110720, Note_on_c, 1, 62, 100
3, 110792, Note_on_c, 1, 62, 0
3, 110800, Note_on_c, 1, 60, 100
3, 110872, Note_on_c, 1, 60, 0
3, 110880, Note_on_c, 1, 72, 100
3, 111096, Note_on_c, 1, 72, 0
3, 111600, Note_on_c, 1, 77, 100
3, 111672, Note_on_c, 1, 77, 0
3, 111680, Note_on_c, 1, 75, 100
3, 111752, Note_on_c, 1, 75, 0
3, 111760, Note_on_c, 1, 74, 100
3, 111832, Note_on_c, 1, 74, 0
3, 111840, Note_on_c, 1, 84, 100
3, 112056, Note_on_c, 1, 84, 0
3, 112080, Note_on_c, 1, 78, 100
3, 112152, Note_on_c, 1, 78, 0
3, 112160, Note_on_c, 1, 79, 100
3, 112232, Note_on_c, 1, 79, 0
3, 112240, Note_on_c, 1, 78, 100
3, 112312, Note_on_c, 1, 78, 0
3, 112320, Note_on_c, 1, 79, 100
3, 112536, Note_on_c, 1, 79, 0
3, 115440, Note_on_c, 1, 81, 100
3, 115656, Note_on_c, 1, 81, 0
3, 115680, Note_on_c, 1, 71, 100
3, 115896, Note_on_c, 1, 71, 0
3, 115920, Note_on_c, 1, 79, 100
3, 116136, Note_on_c, 1, 79, 0
3, 116160, Note_on_c, 1, 69, 100
3, 116376, Note_on_c, 1, 69, 0
3, 116400, Note_on_c, 1, 77, 100
3, 116616, Note_on_c, 1, 77, 0
3, 116640, Note_on_c, 1, 67, 100
3, 116856, Note_on_c, 1, 67, 0
3, 116880, Note_on_c, 1, 77, 100
3, 117096, Note_on_c, 1, 77, 0
3, 117120, Note_on_c, 1, 76, 100
3, 117228, Note_on_c, 1, 76, 0
3, 117240, Note_on_c, 1, 78, 100
3, 117348, Note_on_c, 1, 78, 0
3, 117360, Note_on_c, 1, 79, 100
3, 117792, Note_on_c, 1, 79, 0
3, 117840, Note_on_c, 1, 78, 100
3, 118056, Note_on_c, 1, 78, 0
3, 118080, Note_on_c, 1, 79, 100
3, 118296, Note_on_c, 1, 79, 0
3, 118320, Note_on_c, 1, 88, 100
3, 118536, Note_on_c, 1, 88, 0
3, 118560, Note_on_c, 1, 86, 100
3, 118776, Note_on_c, 1, 86, 0
3, 118800, Note_on_c, 1, 84, 100
3, 119016, Note_on_c, 1, 84, 0
3, 119040, Note_on_c, 1, 83, 100
3, 119472, Note_on_c, 1, 83, 0
3, 119520, Note_on_c, 1, 81, 100
3, 119952, Note_on_c, 1, 81, 0
3, 120000, Note_on_c, 1, 79, 100
3, 120432, Note_on_c, 1, 79, 0
3, 120480, Note_on_c, 1, 78, 100
3, 120912, Note_on_c, 1, 78, 0
3, 120960, Note_on_c, 1, 79, 100
3, 121392, Note_on_c, 1, 79, 0
3, 121440, Note_on_c, 1, 77, 100
3, 121872, Note_on_c, 1, 77, 0
3, 121920, Note_on_c, 1, 76, 100
3, 123096, Note_on_c, 1, 76, 0
3, 123120, Note_on_c, 1, 81, 100
3, 123336, Note_on_c, 1, 81, 0
3, 123360, Note_on_c, 1, 79, 100
3, 123576, Note_on_c, 1, 79, 0
3, 123600, Note_on_c, 1, 77, 100
3, 123816, Note_on_c, 1, 77, 0
3, 123840, Note_on_c, 1, 76, 100
3, 124056, Note_on_c, 1, 76, 0
3, 124080, Note_on_c, 1, 81, 100
3, 124296, Note_on_c, 1, 81, 0
3, 124320, Note_on_c, 1, 74, 100
3, 124752, Note_on_c, 1, 74, 0
3, 124800, Note_on_c, 1, 72, 100
3, 125232, Note_on_c, 1, 72, 0
3, 125280, Note_on_c, 1, 71, 100
3, 125496, Note_on_c, 1, 71, 0
3, 125520, Note_on_c, 1, 74, 100
3, 125736, Note_on_c, 1, 74, 0
3, 125760, Note_on_c, 1, 76, 100
3, 125976, Note_on_c, 1, 76, 0
3, 126000, Note_on_c, 1, 77, 100
3, 126216, Note_on_c, 1, 77, 0
3, 126240, Note_on_c, 1, 79, 100
3, 126936, Note_on_c, 1, 79, 0
3, 126960, Note_on_c, 1, 82, 100
3, 127176, Note_on_c, 1, 82, 0
3, 127200, Note_on_c, 1, 81, 100
3, 127416, Note_on_c, 1, 81, 0
3, 127440, Note_on_c, 1, 79, 100
3, 127656, Note_on_c, 1, 79, 0
3, 127680, Note_on_c, 1, 77, 100
3, 127896, Note_on_c, 1, 77, 0
3, 127920, Note_on_c, 1, 79, 100
3, 128136, Note_on_c, 1, 79, 0
3, 128160, Note_on_c, 1, 81, 100
3, 128856, Note_on_c, 1, 81, 0
3, 128880, Note_on_c, 1, 84, 100
3, 129096, Note_on_c, 1, 84, 0
3, 129120, Note_on_c, 1, 83, 100
3, 129336, Note_on_c, 1, 83, 0
3, 129360, Note_on_c, 1, 81, 100
3, 129576, Note_on_c, 1, 81, 0
3, 129600, Note_on_c, 1, 79, 100
3, 129816, Note_on_c, 1, 79, 0
3, 129840, Note_on_c, 1, 81, 100
3, 130056, Note_on_c, 1, 81, 0
3, 130080, Note_on_c, 1, 83, 100
3, 130776, Note_on_c, 1, 83, 0
3, 130800, Note_on_c, 1, 81, 100
3, 131016, Note_on_c, 1, 81, 0
3, 131040, Note_on_c, 1, 79, 100
3, 131256, Note_on_c, 1, 79, 0
3, 131280, Note_on_c, 1, 78, 100
3, 131496, Note_on_c, 1, 78, 0
3, 131520, Note_on_c, 1, 76, 100
3, 131736, Note_on_c, 1, 76, 0
3, 131760, Note_on_c, 1, 84, 100
3, 131976, Note_on_c, 1, 84, 0
3, 132000, Note_on_c, 1, 74, 100
3, 132216, Note_on_c, 1, 74, 0
3, 132240, Note_on_c, 1, 83, 100
3, 132456, Note_on_c, 1, 83, 0
3, 132480, Note_on_c, 1, 72, 100
3, 132696, Note_on_c, 1, 72, 0
3, 132720, Note_on_c, 1, 81, 100
3, 132936, Note_on_c, 1, 81, 0
3, 132960, Note_on_c, 1, 71, 100
3, 133176, Note_on_c, 1, 71, 0
3, 133200, Note_on_c, 1, 81, 100
3, 133416, Note_on_c, 1, 81, 0
3, 133440, Note_on_c, 1, 79, 100
3, 135576, Note_on_c, 1, 79, 0
3, 135600, Note_on_c, 1, 77, 100
3, 136032, Note_on_c, 1, 77, 0
3, 136080, Note_on_c, 1, 76, 100
3, 136188, Note_on_c, 1, 76, 0
3, 136200, Note_on_c, 1, 74, 100
3, 136308, Note_on_c, 1, 74, 0
3, 136320, Note_on_c, 1, 76, 100
3, 136644, Note_on_c, 1, 76, 0
3, 136680, Note_on_c, 1, 77, 100
3, 136788, Note_on_c, 1, 77, 0
3, 136800, Note_on_c, 1, 74, 100
3, 137124, Note_on_c, 1, 74, 0
3, 137160, Note_on_c, 1, 72, 100
3, 137268, Note_on_c, 1, 72, 0
3, 137280, Note_on_c, 1, 72, 100
3, 137496, Note_on_c, 1, 72, 0
3, 139200, Note_on_c, 1, 60, 100
3, 139416, Note_on_c, 1, 60, 0
3, 139440, Note_on_c, 1, 69, 100
3, 139656, Note_on_c, 1, 69, 0
3, 139680, Note_on_c, 1, 67, 100
3, 139896, Note_on_c, 1, 67, 0
3, 139920, Note_on_c, 1, 65, 100
3, 140136, Note_on_c, 1, 65, 0
3, 140160, Note_on_c, 1, 64, 100
3, 140376, Note_on_c, 1, 64, 0
3, 140400, Note_on_c, 1, 71, 100
3, 140616, Note_on_c, 1, 71, 0
3, 140640, Note_on_c, 1, 69, 100
3, 140856, Note_on_c, 1, 69, 0
3, 140880, Note_on_c, 1, 68, 100
3, 141096, Note_on_c, 1, 68, 0
3, 141120, Note_on_c, 1, 69, 100
3, 141336, Note_on_c, 1, 69, 0
3, 141360, Note_on_c, 1, 68, 100
3, 141576, Note_on_c, 1, 68, 0
3, 141600, Note_on_c, 1, 69, 100
3, 141816, Note_on_c, 1, 69, 0
3, 141840, Note_on_c, 1, 79, 100
3, 142056, Note_on_c, 1, 79, 0
3, 142080, Note_on_c, 1, 77, 100
3, 142296, Note_on_c, 1, 77, 0
3, 143280, Note_on_c, 1, 79, 100
3, 143496, Note_on_c, 1, 79, 0
3, 143520, Note_on_c, 1, 77, 100
3, 143736, Note_on_c, 1, 77, 0
3, 143760, Note_on_c, 1, 76, 100
3, 143976, Note_on_c, 1, 76, 0
3, 144000, Note_on_c, 1, 74, 100
3, 144216, Note_on_c, 1, 74, 0
3, 144240, Note_on_c, 1, 76, 100
3, 144456, Note_on_c, 1, 76, 0
3, 144480, Note_on_c, 1, 74, 100
3, 144696, Note_on_c, 1, 74, 0
3, 144720, Note_on_c, 1, 73, 100
3, 144936, Note_on_c, 1, 73, 0
3, 144960, Note_on_c, 1, 74, 100
3, 145392, Note_on_c, 1, 74, 0
3, 145440, Note_on_c, 1, 72, 100
3, 145872, Note_on_c, 1, 72, 0
3, 145920, Note_on_c, 1, 70, 100
3, 146352, Note_on_c, 1, 70, 0
3, 146400, Note_on_c, 1, 69, 100
3, 146832, Note_on_c, 1, 69, 0
3, 146880, Note_on_c, 1, 69, 100
3, 147744, Note_on_c, 1, 69, 0
3, 147840, Note_on_c, 1, 67, 100
3, 148056, Note_on_c, 1, 67, 0
3, 148080, Note_on_c, 1, 72, 100
3, 148296, Note_on_c, 1, 72, 0
3, 148320, Note_on_c, 1, 70, 100
3, 148536, Note_on_c, 1, 70, 0
3, 148560, Note_on_c, 1, 69, 100
3, 148776, Note_on_c, 1, 69, 0
3, 148800, Note_on_c, 1, 67, 100
3, 149016, Note_on_c, 1, 67, 0
3, 152160, Note_on_c, 1, 69, 100
3, 152592, Note_on_c, 1, 69, 0
3, 152640, Note_on_c, 1, 68, 100
3, 152856, Note_on_c, 1, 68, 0
3, 152880, Note_on_c, 1, 71, 100
3, 153096, Note_on_c, 1, 71, 0
3, 153120, Note_on_c, 1, 64, 100
3, 153336, Note_on_c, 1, 64, 0
3, 153360, Note_on_c, 1, 68, 100
3, 153576, Note_on_c, 1, 68, 0
3, 153600, Note_on_c, 1, 69, 100
3, 153816, Note_on_c, 1, 69, 0
3, 153840, Note_on_c, 1, 64, 100
3, 154056, Note_on_c, 1, 64, 0
3, 154080, Note_on_c, 1, 60, 100
3, 154296, Note_on_c, 1, 60, 0
3, 154320, Note_on_c, 1, 57, 100
3, 154536, Note_on_c, 1, 57, 0
3, 154560, Note_on_c, 1, 60, 100
3, 154776, Note_on_c, 1, 60, 0
3, 154800, Note_on_c, 1, 63, 100
3, 155016, Note_on_c, 1, 63, 0
3, 155040, Note_on_c, 1, 62, 100
3, 155256, Note_on_c, 1, 62, 0
3, 155280, Note_on_c, 1, 74, 100
3, 155496, Note_on_c, 1, 74, 0
3, 155520, Note_on_c, 1, 81, 100
3, 156168, Note_on_c, 1, 81, 0
3, 156240, Note_on_c, 1, 79, 100
3, 156402, Note_on_c, 1, 79, 0
3, 156420, Note_on_c, 1, 77, 100
3, 156474, Note_on_c, 1, 77, 0
3, 156480, Note_on_c, 1, 76, 100
3, 156696, Note_on_c, 1, 76, 0
3, 156720, Note_on_c, 1, 77, 100
3, 157152, Note_on_c, 1, 77, 0
3, 157200, Note_on_c, 1, 79, 100
3, 157416, Note_on_c, 1, 79, 0
3, 157440, Note_on_c, 1, 81, 100
3, 157872, Note_on_c, 1, 81, 0
3, 161040, Note_on_c, 1, 72, 100
3, 161256, Note_on_c, 1, 72, 0
3, 161280, Note_on_c, 1, 64, 100
3, 161496, Note_on_c, 1, 64, 0
3, 161520, Note_on_c, 1, 70, 100
3, 161736, Note_on_c, 1, 70, 0
3, 161760, Note_on_c, 1, 59, 100
3, 161976, Note_on_c, 1, 59, 0
3, 162000, Note_on_c, 1, 68, 100
3, 162072, Note_on_c, 1, 68, 0
3, 162080, Note_on_c, 1, 67, 100
3, 162152, Note_on_c, 1, 67, 0
3, 162160, Note_on_c, 1, 65, 100
3, 162232, Note_on_c, 1, 65, 0
3, 162240, Note_on_c, 1, 72, 100
3, 162456, Note_on_c, 1, 72, 0
3, 164400, Note_on_c, 1, 70, 100
3, 164616, Note_on_c, 1, 70, 0
3, 164640, Note_on_c, 1, 69, 100
3, 164856, Note_on_c, 1, 69, 0
3, 165360, Note_on_c, 1, 67, 100
3, 165576, Note_on_c, 1, 67, 0
3, 165600, Note_on_c, 1, 65, 100
3, 165816, Note_on_c, 1, 65, 0
3, 166320, Note_on_c, 1, 64, 100
3, 166536, Note_on_c, 1, 64, 0
3, 166560, Note_on_c, 1, 57, 100
3, 166776, Note_on_c, 1, 57, 0
3, 167280, Note_on_c, 1, 62, 100
3, 167496, Note_on_c, 1, 62, 0
3, 167520, Note_on_c, 1, 55, 100
3, 167736, Note_on_c, 1, 55, 0
3, 168240, Note_on_c, 1, 65, 100
3, 168456, Note_on_c, 1, 65, 0
3, 168480, Note_on_c, 1, 61, 100
3, 168696, Note_on_c, 1, 61, 0
3, 169200, Note_on_c, 1, 69, 100
3, 169416, Note_on_c, 1, 69, 0
3, 169440, Note_on_c, 1, 67, 100
3, 169656, Note_on_c, 1, 67, 0
3, 169920, Note_on_c, 1, 69, 100
3, 170136, Note_on_c, 1, 69, 0
3, 170400, Note_on_c, 1, 73, 100
3, 170616, Note_on_c, 1, 73, 0
3, 170880, Note_on_c, 1, 74, 100
3, 171096, Note_on_c, 1, 74, 0
3, 171360, Note_on_c, 1, 76, 100
3, 171576, Note_on_c, 1, 76, 0
3, 172080, Note_on_c, 1, 69, 100
3, 172296, Note_on_c, 1, 69, 0
3, 172320, Note_on_c, 1, 77, 100
3, 172536, Note_on_c, 1, 77, 0
3, 172560, Note_on_c, 1, 67, 100
3, 172776, Note_on_c, 1, 67, 0
3, 172800, Note_on_c, 1, 76, 100
3, 173016, Note_on_c, 1, 76, 0
3, 173040, Note_on_c, 1, 65, 100
3, 173256, Note_on_c, 1, 65, 0
3, 173280, Note_on_c, 1, 74, 100
3, 173976, Note_on_c, 1, 74, 0
3, 174000, Note_on_c, 1, 68, 100
3, 174216, Note_on_c, 1, 68, 0
3, 174240, Note_on_c, 1, 69, 100
3, 174456, Note_on_c, 1, 69, 0
3, 174480, Note_on_c, 1, 71, 100
3, 174696, Note_on_c, 1, 71, 0
3, 174720, Note_on_c, 1, 72, 100
3, 174936, Note_on_c, 1, 72, 0
3, 179520, Note_on_c, 1, 77, 100
3, 179628, Note_on_c, 1, 77, 0
3, 180000, Note_on_c, 1, 77, 100
3, 180108, Note_on_c, 1, 77, 0
3, 180480, Note_on_c, 1, 65, 100
3, 180588, Note_on_c, 1, 65, 0
3, 180960, Note_on_c, 1, 65, 100
3, 181068, Note_on_c, 1, 65, 0
3, 181440, Note_on_c, 1, 77, 100
3, 181548, Note_on_c, 1, 77, 0
3, 181920, Note_on_c, 1, 77, 100
3, 182028, Note_on_c, 1, 77, 0
3, 182400, Note_on_c, 1, 65, 100
3, 182508, Note_on_c, 1, 65, 0
3, 182880, Note_on_c, 1, 65, 100
3, 182988, Note_on_c, 1, 65, 0
3, 183360, Note_on_c, 1, 74, 100
3, 183468, Note_on_c, 1, 74, 0
3, 184560, Note_on_c, 1, 64, 100
3, 184668, Note_on_c, 1, 64, 0
3, 184800, Note_on_c, 1, 65, 100
3, 184908, Note_on_c, 1, 65, 0
3, 185040, Note_on_c, 1, 61, 100
3, 185148, Note_on_c, 1, 61, 0
3, 185280, Note_on_c, 1, 62, 100
3, 185388, Note_on_c, 1, 62, 0
3, 186720, Note_on_c, 1, 64, 100
3, 186936, Note_on_c, 1, 64, 0
3, 186960, Note_on_c, 1, 71, 100
3, 187176, Note_on_c, 1, 71, 0
3, 187200, Note_on_c, 1, 69, 100
3, 187416, Note_on_c, 1, 69, 0
3, 187440, Note_on_c, 1, 72, 100
3, 187656, Note_on_c, 1, 72, 0
3, 187680, Note_on_c, 1, 76, 100
3, 187896, Note_on_c, 1, 76, 0
3, 187920, Note_on_c, 1, 79, 100
3, 188136, Note_on_c, 1, 79, 0
3, 188160, Note_on_c, 1, 77, 100
3, 188376, Note_on_c, 1, 77, 0
3, 188400, Note_on_c, 1, 65, 100
3, 188616, Note_on_c, 1, 65, 0
3, 188640, Note_on_c, 1, 69, 100
3, 188856, Note_on_c, 1, 69, 0
3, 188880, Note_on_c, 1, 81, 100
3, 189096, Note_on_c, 1, 81, 0
3, 189120, Note_on_c, 1, 80, 100
3, 189336, Note_on_c, 1, 80, 0
3, 190560, Note_on_c, 1, 69, 100
3, 190776, Note_on_c, 1, 69, 0
3, 190800, Note_on_c, 1, 77, 100
3, 191016, Note_on_c, 1, 77, 0
3, 191040, Note_on_c, 1, 76, 100
3, 191256, Note_on_c, 1, 76, 0
3, 191280, Note_on_c, 1, 74, 100
3, 191496, Note_on_c, 1, 74, 0
3, 191520, Note_on_c, 1, 72, 100
3, 191736, Note_on_c, 1, 72, 0
3, 191760, Note_on_c, 1, 71, 100
3, 191976, Note_on_c, 1, 71, 0
3, 192000, Note_on_c, 1, 69, 100
3, 192216, Note_on_c, 1, 69, 0
3, 192240, Note_on_c, 1, 77, 100
3, 192456, Note_on_c, 1, 77, 0
3, 192480, Note_on_c, 1, 76, 100
3, 192696, Note_on_c, 1, 76, 0
3, 192720, Note_on_c, 1, 74, 100
3, 192936, Note_on_c, 1, 74, 0
3, 192960, Note_on_c, 1, 72, 100
3, 193176, Note_on_c, 1, 72, 0
3, 193200, Note_on_c, 1, 71, 100
3, 193416, Note_on_c, 1, 71, 0
3, 193440, Note_on_c, 1, 69, 100
3, 193656, Note_on_c, 1, 69, 0
3, 193680, Note_on_c, 1, 68, 100
3, 193896, Note_on_c, 1, 68, 0
3, 193920, Note_on_c, 1, 69, 100
3, 194136, Note_on_c, 1, 69, 0
3, 194160, Note_on_c, 1, 71, 100
3, 194376, Note_on_c, 1, 71, 0
3, 194400, Note_on_c, 1, 72, 100
3, 194616, Note_on_c, 1, 72, 0
3, 194640, Note_on_c, 1, 74, 100
3, 194856, Note_on_c, 1, 74, 0
3, 194880, Note_on_c, 1, 76, 100
3, 195096, Note_on_c, 1, 76, 0
3, 195120, Note_on_c, 1, 80, 100
3, 195336, Note_on_c, 1, 80, 0
3, 195360, Note_on_c, 1, 81, 100
3, 195576, Note_on_c, 1, 81, 0
3, 195600, Note_on_c, 1, 83, 100
3, 195816, Note_on_c, 1, 83, 0
3, 195840, Note_on_c, 1, 76, 100
3, 196056, Note_on_c, 1, 76, 0
3, 196080, Note_on_c, 1, 71, 100
3, 196296, Note_on_c, 1, 71, 0
3, 196320, Note_on_c, 1, 64, 100
3, 196536, Note_on_c, 1, 64, 0
3, 196560, Note_on_c, 1, 71, 100
3, 196776, Note_on_c, 1, 71, 0
3, 196800, Note_on_c, 1, 72, 100
3, 197016, Note_on_c, 1, 72, 0
3, 198000, Note_on_c, 1, 74, 100
3, 198432, Note_on_c, 1, 74, 0
3, 198480, Note_on_c, 1, 72, 100
3, 198936, Note_on_c, 1, 72, 0
3, 198960, Note_on_c, 1, 71, 100
3, 199176, Note_on_c, 1, 71, 0
3, 199200, Note_on_c, 1, 71, 100
3, 199416, Note_on_c, 1, 71, 0
3, 215043, Note_on_c, 1, 76, 100
3, 215259, Note_on_c, 1, 76, 0
3, 215283, Note_on_c, 1, 84, 100
3, 215499, Note_on_c, 1, 84, 0
3, 215523, Note_on_c, 1, 83, 100
3, 215739, Note_on_c, 1, 83, 0
3, 215763, Note_on_c, 1, 81, 100
3, 215979, Note_on_c, 1, 81, 0
3, 216003, Note_on_c, 1, 79, 100
3, 216435, Note_on_c, 1, 79, 0
3, 216483, Note_on_c, 1, 78, 100
3, 216915, Note_on_c, 1, 78, 0
3, 216963, Note_on_c, 1, 76, 100
3, 217395, Note_on_c, 1, 76, 0
3, 217443, Note_on_c, 1, 75, 100
3, 217875, Note_on_c, 1, 75, 0
3, 217923, Note_on_c, 1, 76, 100
3, 218355, Note_on_c, 1, 76, 0
3, 218403, Note_on_c, 1, 74, 100
3, 218835, Note_on_c, 1, 74, 0
3, 218883, Note_on_c, 1, 72, 100
3, 219315, Note_on_c, 1, 72, 0
3, 219363, Note_on_c, 1, 73, 100
3, 219795, Note_on_c, 1, 73, 0
3, 219843, Note_on_c, 1, 74, 100
3, 220059, Note_on_c, 1, 74, 0
3, 221043, Note_on_c, 1, 77, 100
3, 221259, Note_on_c, 1, 77, 0
3, 221283, Note_on_c, 1, 67, 100
3, 221499, Note_on_c, 1, 67, 0
3, 221523, Note_on_c, 1, 76, 100
3, 221739, Note_on_c, 1, 76, 0
3, 221763, Note_on_c, 1, 65, 100
3, 221979, Note_on_c, 1, 65, 0
3, 222003, Note_on_c, 1, 74, 100
3, 222219, Note_on_c, 1, 74, 0
3, 222243, Note_on_c, 1, 64, 100
3, 222459, Note_on_c, 1, 64, 0
3, 222483, Note_on_c, 1, 74, 100
3, 222699, Note_on_c, 1, 74, 0
3, 222723, Note_on_c, 1, 72, 100
3, 222939, Note_on_c, 1, 72, 0
3, 222963, Note_on_c, 1, 69, 100
3, 223179, Note_on_c, 1, 69, 0
3, 223203, Note_on_c, 1, 71, 100
3, 223419, Note_on_c, 1, 71, 0
3, 223443, Note_on_c, 1, 73, 100
3, 223659, Note_on_c, 1, 73, 0
3, 223683, Note_on_c, 1, 74, 100
3, 224859, Note_on_c, 1, 74, 0
3, 224883, Note_on_c, 1, 81, 100
3, 225099, Note_on_c, 1, 81, 0
3, 225123, Note_on_c, 1, 79, 100
3, 225339, Note_on_c, 1, 79, 0
3, 225363, Note_on_c, 1, 77, 100
3, 225579, Note_on_c, 1, 77, 0
3, 225603, Note_on_c, 1, 76, 100
3, 225819, Note_on_c, 1, 76, 0
3, 225843, Note_on_c, 1, 84, 100
3, 226059, Note_on_c, 1, 84, 0
3, 226083, Note_on_c, 1, 83, 100
3, 226299, Note_on_c, 1, 83, 0
3, 226323, Note_on_c, 1, 81, 100
3, 226539, Note_on_c, 1, 81, 0
3, 226563, Note_on_c, 1, 79, 100
3, 226995, Note_on_c, 1, 79, 0
3, 227043, Note_on_c, 1, 80, 100
3, 227475, Note_on_c, 1, 80, 0
3, 227523, Note_on_c, 1, 81, 100
3, 227739, Note_on_c, 1, 81, 0
3, 228723, Note_on_c, 1, 77, 100
3, 228939, Note_on_c, 1, 77, 0
3, 228963, Note_on_c, 1, 86, 100
3, 229179, Note_on_c, 1, 86, 0
3, 229203, Note_on_c, 1, 76, 100
3, 229419, Note_on_c, 1, 76, 0
3, 229443, Note_on_c, 1, 84, 100
3, 229659, Note_on_c, 1, 84, 0
3, 229683, Note_on_c, 1, 74, 100
3, 229899, Note_on_c, 1, 74, 0
3, 229923, Note_on_c, 1, 83, 100
3, 230355, Note_on_c, 1, 83, 0
3, 230403, Note_on_c, 1, 83, 100
3, 230511, Note_on_c, 1, 83, 0
3, 230523, Note_on_c, 1, 76, 100
3, 230631, Note_on_c, 1, 76, 0
3, 230643, Note_on_c, 1, 81, 100
3, 231075, Note_on_c, 1, 81, 0
3, 231123, Note_on_c, 1, 79, 100
3, 231339, Note_on_c, 1, 79, 0
3, 231363, Note_on_c, 1, 77, 100
3, 232539, Note_on_c, 1, 77, 0
3, 232563, Note_on_c, 1, 71, 100
3, 232779, Note_on_c, 1, 71, 0
3, 232803, Note_on_c, 1, 76, 100
3, 233019, Note_on_c, 1, 76, 0
3, 233043, Note_on_c, 1, 74, 100
3, 233259, Note_on_c, 1, 74, 0
3, 233283, Note_on_c, 1, 72, 100
3, 233715, Note_on_c, 1, 72, 0
3, 233763, Note_on_c, 1, 64, 100
3, 233763, Note_on_c, 1, 71, 100
3, 234195, Note_on_c, 1, 64, 0
3, 234195, Note_on_c, 1, 71, 0
3, 234243, Note_on_c, 1, 60, 100
3, 234243, Note_on_c, 1, 64, 100
3, 234243, Note_on_c, 1, 69, 100
3, 234675, Note_on_c, 1, 60, 0
3, 234675, Note_on_c, 1, 64, 0
3, 234675, Note_on_c, 1, 69, 0
3, 234675, End_track
4, 0, Start_track
4, 0, Sequence_number, 65535
4, 0, MIDI_port, 0
4, 0, Title_t, "Violino I"
4, 0, Control_c, 2, 0, 0
4, 0, Control_c, 2, 32, 0
4, 0, Program_c, 2, 48
4, 0, Control_c, 2, 7, 80
4, 0, Control_c, 2, 10, 14
4, 1200, Note_on_c, 2, 77, 100
4, 1416, Note_on_c, 2, 77, 0
4, 1440, Note_on_c, 2, 67, 100
4, 1656, Note_on_c, 2, 67, 0
4, 1680, Note_on_c, 2, 76, 100
4, 1896, Note_on_c, 2, 76, 0
4, 1920, Note_on_c, 2, 65, 100
4, 2136, Note_on_c, 2, 65, 0
4, 2160, Note_on_c, 2, 74, 100
4, 2376, Note_on_c, 2, 74, 0
4, 2400, Note_on_c, 2, 64, 100
4, 2616, Note_on_c, 2, 64, 0
4, 2640, Note_on_c, 2, 74, 100
4, 2856, Note_on_c, 2, 74, 0
4, 2880, Note_on_c, 2, 72, 100
4, 3096, Note_on_c, 2, 72, 0
4, 3120, Note_on_c, 2, 64, 100
4, 3552, Note_on_c, 2, 64, 0
4, 3600, Note_on_c, 2, 63, 100
4, 3816, Note_on_c, 2, 63, 0
4, 3840, Note_on_c, 2, 64, 100
4, 4056, Note_on_c, 2, 64, 0
4, 5040, Note_on_c, 2, 69, 100
4, 5472, Note_on_c, 2, 69, 0
4, 5520, Note_on_c, 2, 67, 100
4, 5976, Note_on_c, 2, 67, 0
4, 6000, Note_on_c, 2, 66, 100
4, 6108, Note_on_c, 2, 66, 0
4, 6120, Note_on_c, 2, 64, 100
4, 6228, Note_on_c, 2, 64, 0
4, 6240, Note_on_c, 2, 66, 100
4, 6672, Note_on_c, 2, 66, 0
4, 6720, Note_on_c, 2, 64, 100
4, 6936, Note_on_c, 2, 64, 0
4, 6960, Note_on_c, 2, 72, 100
4, 7392, Note_on_c, 2, 72, 0
4, 7440, Note_on_c, 2, 71, 100
4, 7656, Note_on_c, 2, 71, 0
4, 7680, Note_on_c, 2, 69, 100
4, 7896, Note_on_c, 2, 69, 0
4, 8640, Note_on_c, 2, 69, 100
4, 8856, Note_on_c, 2, 69, 0
4, 8880, Note_on_c, 2, 77, 100
4, 9096, Note_on_c, 2, 77, 0
4, 9120, Note_on_c, 2, 76, 100
4, 9336, Note_on_c, 2, 76, 0
4, 9360, Note_on_c, 2, 74, 100
4, 9576, Note_on_c, 2, 74, 0
4, 9600, Note_on_c, 2, 72, 100
4, 10032, Note_on_c, 2, 72, 0
4, 10080, Note_on_c, 2, 71, 100
4, 10512, Note_on_c, 2, 71, 0
4, 10560, Note_on_c, 2, 69, 100
4, 10992, Note_on_c, 2, 69, 0
4, 11040, Note_on_c, 2, 68, 100
4, 11472, Note_on_c, 2, 68, 0
4, 11520, Note_on_c, 2, 69, 100
4, 11952, Note_on_c, 2, 69, 0
4, 12000, Note_on_c, 2, 67, 100
4, 12432, Note_on_c, 2, 67, 0
4, 12480, Note_on_c, 2, 65, 100
4, 12912, Note_on_c, 2, 65, 0
4, 12960, Note_on_c, 2, 66, 100
4, 13392, Note_on_c, 2, 66, 0
4, 13440, Note_on_c, 2, 67, 100
4, 13656, Note_on_c, 2, 67, 0
4, 13680, Note_on_c, 2, 77, 100
4, 13896, Note_on_c, 2, 77, 0
4, 13920, Note_on_c, 2, 76, 100
4, 14136, Note_on_c, 2, 76, 0
4, 14160, Note_on_c, 2, 74, 100
4, 14376, Note_on_c, 2, 74, 0
4, 14400, Note_on_c, 2, 72, 100
4, 14508, Note_on_c, 2, 72, 0
4, 14520, Note_on_c, 2, 74, 100
4, 14628, Note_on_c, 2, 74, 0
4, 14640, Note_on_c, 2, 76, 100
4, 15072, Note_on_c, 2, 76, 0
4, 15120, Note_on_c, 2, 75, 100
4, 15336, Note_on_c, 2, 75, 0
4, 15360, Note_on_c, 2, 76, 100
4, 15576, Note_on_c, 2, 76, 0
4, 15600, Note_on_c, 2, 77, 100
4, 15816, Note_on_c, 2, 77, 0
4, 15840, Note_on_c, 2, 76, 100
4, 16056, Note_on_c, 2, 76, 0
4, 16080, Note_on_c, 2, 74, 100
4, 16296, Note_on_c, 2, 74, 0
4, 16320, Note_on_c, 2, 73, 100
4, 16428, Note_on_c, 2, 73, 0
4, 16440, Note_on_c, 2, 69, 100
4, 16548, Note_on_c, 2, 69, 0
4, 16560, Note_on_c, 2, 74, 100
4, 16992, Note_on_c, 2, 74, 0
4, 17040, Note_on_c, 2, 68, 100
4, 17256, Note_on_c, 2, 68, 0
4, 17280, Note_on_c, 2, 69, 100
4, 17496, Note_on_c, 2, 69, 0
4, 17520, Note_on_c, 2, 81, 100
4, 17736, Note_on_c, 2, 81, 0
4, 17760, Note_on_c, 2, 79, 100
4, 18192, Note_on_c, 2, 79, 0
4, 18240, Note_on_c, 2, 77, 100
4, 18888, Note_on_c, 2, 77, 0
4, 18960, Note_on_c, 2, 76, 100
4, 19068, Note_on_c, 2, 76, 0
4, 19080, Note_on_c, 2, 74, 100
4, 19188, Note_on_c, 2, 74, 0
4, 19200, Note_on_c, 2, 72, 100
4, 19416, Note_on_c, 2, 72, 0
4, 19440, Note_on_c, 2, 77, 100
4, 19872, Note_on_c, 2, 77, 0
4, 19920, Note_on_c, 2, 76, 100
4, 20376, Note_on_c, 2, 76, 0
4, 20400, Note_on_c, 2, 69, 100
4, 20616, Note_on_c, 2, 69, 0
4, 20640, Note_on_c, 2, 74, 100
4, 20856, Note_on_c, 2, 74, 0
4, 20880, Note_on_c, 2, 72, 100
4, 21096, Note_on_c, 2, 72, 0
4, 21120, Note_on_c, 2, 71, 100
4, 22296, Note_on_c, 2, 71, 0
4, 22320, Note_on_c, 2, 69, 100
4, 22752, Note_on_c, 2, 69, 0
4, 22800, Note_on_c, 2, 68, 100
4, 23016, Note_on_c, 2, 68, 0
4, 23040, Note_on_c, 2, 69, 100
4, 23256, Note_on_c, 2, 69, 0
4, 34560, Note_on_c, 2, 76, 100
4, 34992, Note_on_c, 2, 76, 0
4, 35040, Note_on_c, 2, 75, 100
4, 35472, Note_on_c, 2, 75, 0
4, 35520, Note_on_c, 2, 76, 100
4, 35736, Note_on_c, 2, 76, 0
4, 35760, Note_on_c, 2, 72, 100
4, 36192, Note_on_c, 2, 72, 0
4, 36240, Note_on_c, 2, 71, 100
4, 36696, Note_on_c, 2, 71, 0
4, 36720, Note_on_c, 2, 69, 100
4, 37152, Note_on_c, 2, 69, 0
4, 37200, Note_on_c, 2, 67, 100
4, 37308, Note_on_c, 2, 67, 0
4, 37320, Note_on_c, 2, 66, 100
4, 37428, Note_on_c, 2, 66, 0
4, 37440, Note_on_c, 2, 67, 100
4, 37656, Note_on_c, 2, 67, 0
4, 40560, Note_on_c, 2, 82, 100
4, 40776, Note_on_c, 2, 82, 0
4, 40800, Note_on_c, 2, 72, 100
4, 41016, Note_on_c, 2, 72, 0
4, 41040, Note_on_c, 2, 81, 100
4, 41256, Note_on_c, 2, 81, 0
4, 41280, Note_on_c, 2, 70, 100
4, 41496, Note_on_c, 2, 70, 0
4, 41520, Note_on_c, 2, 79, 100
4, 41736, Note_on_c, 2, 79, 0
4, 41760, Note_on_c, 2, 69, 100
4, 41976, Note_on_c, 2, 69, 0
4, 42000, Note_on_c, 2, 79, 100
4, 42216, Note_on_c, 2, 79, 0
4, 42240, Note_on_c, 2, 77, 100
4, 42456, Note_on_c, 2, 77, 0
4, 48720, Note_on_c, 2, 76, 100
4, 48828, Note_on_c, 2, 76, 0
4, 48960, Note_on_c, 2, 74, 100
4, 49068, Note_on_c, 2, 74, 0
4, 49200, Note_on_c, 2, 72, 100
4, 49308, Note_on_c, 2, 72, 0
4, 49440, Note_on_c, 2, 71, 100
4, 49548, Note_on_c, 2, 71, 0
4, 49680, Note_on_c, 2, 63, 100
4, 49788, Note_on_c, 2, 63, 0
4, 49920, Note_on_c, 2, 64, 100
4, 50028, Note_on_c, 2, 64, 0
4, 50160, Note_on_c, 2, 66, 100
4, 50268, Note_on_c, 2, 66, 0
4, 50400, Note_on_c, 2, 67, 100
4, 50508, Note_on_c, 2, 67, 0
4, 50640, Note_on_c, 2, 69, 100
4, 50748, Note_on_c, 2, 69, 0
4, 50880, Note_on_c, 2, 67, 100
4, 50988, Note_on_c, 2, 67, 0
4, 51120, Note_on_c, 2, 66, 100
4, 51228, Note_on_c, 2, 66, 0
4, 51360, Note_on_c, 2, 64, 100
4, 51468, Note_on_c, 2, 64, 0
4, 51600, Note_on_c, 2, 81, 100
4, 51708, Note_on_c, 2, 81, 0
4, 51840, Note_on_c, 2, 79, 100
4, 51948, Note_on_c, 2, 79, 0
4, 52080, Note_on_c, 2, 78, 100
4, 52188, Note_on_c, 2, 78, 0
4, 52320, Note_on_c, 2, 76, 100
4, 52428, Note_on_c, 2, 76, 0
4, 58560, Note_on_c, 2, 69, 100
4, 58776, Note_on_c, 2, 69, 0
4, 58800, Note_on_c, 2, 77, 100
4, 59016, Note_on_c, 2, 77, 0
4, 59040, Note_on_c, 2, 76, 100
4, 59256, Note_on_c, 2, 76, 0
4, 59280, Note_on_c, 2, 81, 100
4, 59736, Note_on_c, 2, 81, 0
4, 59880, Note_on_c, 2, 74, 100
4, 59988, Note_on_c, 2, 74, 0
4, 60000, Note_on_c, 2, 72, 100
4, 60216, Note_on_c, 2, 72, 0
4, 60240, Note_on_c, 2, 71, 100
4, 60456, Note_on_c, 2, 71, 0
4, 60480, Note_on_c, 2, 69, 100
4, 60696, Note_on_c, 2, 69, 0
4, 61440, Note_on_c, 2, 69, 100
4, 61656, Note_on_c, 2, 69, 0
4, 61680, Note_on_c, 2, 77, 100
4, 61896, Note_on_c, 2, 77, 0
4, 61920, Note_on_c, 2, 76, 100
4, 62136, Note_on_c, 2, 76, 0
4, 62160, Note_on_c, 2, 74, 100
4, 62376, Note_on_c, 2, 74, 0
4, 62400, Note_on_c, 2, 72, 100
4, 62832, Note_on_c, 2, 72, 0
4, 62880, Note_on_c, 2, 71, 100
4, 63312, Note_on_c, 2, 71, 0
4, 63360, Note_on_c, 2, 69, 100
4, 63576, Note_on_c, 2, 69, 0
4, 63600, Note_on_c, 2, 71, 100
4, 64032, Note_on_c, 2, 71, 0
4, 64080, Note_on_c, 2, 59, 100
4, 64296, Note_on_c, 2, 59, 0
4, 64320, Note_on_c, 2, 64, 100
4, 64536, Note_on_c, 2, 64, 0
4, 64560, Note_on_c, 2, 69, 100
4, 64992, Note_on_c, 2, 69, 0
4, 65040, Note_on_c, 2, 67, 100
4, 65256, Note_on_c, 2, 67, 0
4, 65280, Note_on_c, 2, 65, 100
4, 65496, Note_on_c, 2, 65, 0
4, 65760, Note_on_c, 2, 70, 100
4, 65976, Note_on_c, 2, 70, 0
4, 66000, Note_on_c, 2, 64, 100
4, 66216, Note_on_c, 2, 64, 0
4, 66240, Note_on_c, 2, 65, 100
4, 66456, Note_on_c, 2, 65, 0
4, 67200, Note_on_c, 2, 62, 100
4, 67416, Note_on_c, 2, 62, 0
4, 67440, Note_on_c, 2, 70, 100
4, 67656, Note_on_c, 2, 70, 0
4, 67680, Note_on_c, 2, 69, 100
4, 67896, Note_on_c, 2, 69, 0
4, 67920, Note_on_c, 2, 67, 100
4, 68136, Note_on_c, 2, 67, 0
4, 68160, Note_on_c, 2, 65, 100
4, 68376, Note_on_c, 2, 65, 0
4, 68400, Note_on_c, 2, 69, 100
4, 68616, Note_on_c, 2, 69, 0
4, 68640, Note_on_c, 2, 68, 100
4, 68856, Note_on_c, 2, 68, 0
4, 68880, Note_on_c, 2, 59, 100
4, 69096, Note_on_c, 2, 59, 0
4, 69120, Note_on_c, 2, 57, 100
4, 69336, Note_on_c, 2, 57, 0
4, 80880, Note_on_c, 2, 81, 100
4, 81096, Note_on_c, 2, 81, 0
4, 81120, Note_on_c, 2, 71, 100
4, 81336, Note_on_c, 2, 71, 0
4, 81360, Note_on_c, 2, 79, 100
4, 81576, Note_on_c, 2, 79, 0
4, 81600, Note_on_c, 2, 69, 100
4, 81816, Note_on_c, 2, 69, 0
4, 81840, Note_on_c, 2, 77, 100
4, 82056, Note_on_c, 2, 77, 0
4, 82080, Note_on_c, 2, 68, 100
4, 82296, Note_on_c, 2, 68, 0
4, 82320, Note_on_c, 2, 64, 100
4, 82536, Note_on_c, 2, 64, 0
4, 82560, Note_on_c, 2, 76, 100
4, 82776, Note_on_c, 2, 76, 0
4, 82800, Note_on_c, 2, 81, 100
4, 83016, Note_on_c, 2, 81, 0
4, 83040, Note_on_c, 2, 75, 100
4, 83472, Note_on_c, 2, 75, 0
4, 83520, Note_on_c, 2, 71, 100
4, 83736, Note_on_c, 2, 71, 0
4, 83760, Note_on_c, 2, 75, 100
4, 83976, Note_on_c, 2, 75, 0
4, 84000, Note_on_c, 2, 71, 100
4, 84216, Note_on_c, 2, 71, 0
4, 84240, Note_on_c, 2, 75, 100
4, 84456, Note_on_c, 2, 75, 0
4, 84480, Note_on_c, 2, 71, 100
4, 84696, Note_on_c, 2, 71, 0
4, 86880, Note_on_c, 2, 62, 100
4, 86880, Note_on_c, 2, 71, 100
4, 86880, Note_on_c, 2, 77, 100
4, 87096, Note_on_c, 2, 62, 0
4, 87096, Note_on_c, 2, 71, 0
4, 87096, Note_on_c, 2, 77, 0
4, 87360, Note_on_c, 2, 69, 100
4, 87360, Note_on_c, 2, 72, 100
4, 87360, Note_on_c, 2, 76, 100
4, 87576, Note_on_c, 2, 69, 0
4, 87576, Note_on_c, 2, 72, 0
4, 87576, Note_on_c, 2, 76, 0
4, 87840, Note_on_c, 2, 64, 100
4, 87840, Note_on_c, 2, 73, 100
4, 87840, Note_on_c, 2, 79, 100
4, 88056, Note_on_c, 2, 64, 0
4, 88056, Note_on_c, 2, 73, 0
4, 88056, Note_on_c, 2, 79, 0
4, 88320, Note_on_c, 2, 62, 100
4, 88320, Note_on_c, 2, 71, 100
4, 88320, Note_on_c, 2, 78, 100
4, 88536, Note_on_c, 2, 62, 0
4, 88536, Note_on_c, 2, 71, 0
4, 88536, Note_on_c, 2, 78, 0
4, 88800, Note_on_c, 2, 67, 100
4, 88800, Note_on_c, 2, 73, 100
4, 88800, Note_on_c, 2, 76, 100
4, 89016, Note_on_c, 2, 67, 0
4, 89016, Note_on_c, 2, 73, 0
4, 89016, Note_on_c, 2, 76, 0
4, 89280, Note_on_c, 2, 59, 100
4, 89280, Note_on_c, 2, 66, 100
4, 89280, Note_on_c, 2, 74, 100
4, 89496, Note_on_c, 2, 59, 0
4, 89496, Note_on_c, 2, 66, 0
4, 89496, Note_on_c, 2, 74, 0
4, 89760, Note_on_c, 2, 55, 100
4, 89760, Note_on_c, 2, 64, 100
4, 89760, Note_on_c, 2, 73, 100
4, 89976, Note_on_c, 2, 55, 0
4, 89976, Note_on_c, 2, 64, 0
4, 89976, Note_on_c, 2, 73, 0
4, 90240, Note_on_c, 2, 74, 100
4, 90456, Note_on_c, 2, 74, 0
4, 90480, Note_on_c, 2, 76, 100
4, 90696, Note_on_c, 2, 76, 0
4, 90720, Note_on_c, 2, 74, 100
4, 90936, Note_on_c, 2, 74, 0
4, 90960, Note_on_c, 2, 73, 100
4, 91176, Note_on_c, 2, 73, 0
4, 91200, Note_on_c, 2, 71, 100
4, 91632, Note_on_c, 2, 71, 0
4, 91680, Note_on_c, 2, 69, 100
4, 92112, Note_on_c, 2, 69, 0
4, 92160, Note_on_c, 2, 67, 100
4, 92376, Note_on_c, 2, 67, 0
4, 92400, Note_on_c, 2, 79, 100
4, 92616, Note_on_c, 2, 79, 0
4, 92640, Note_on_c, 2, 66, 100
4, 92640, Note_on_c, 2, 73, 100
4, 92640, Note_on_c, 2, 78, 100
4, 92856, Note_on_c, 2, 66, 0
4, 92856, Note_on_c, 2, 73, 0
4, 92856, Note_on_c, 2, 78, 0
4, 93120, Note_on_c, 2, 62, 100
4, 93120, Note_on_c, 2, 71, 100
4, 93120, Note_on_c, 2, 78, 100
4, 93336, Note_on_c, 2, 62, 0
4, 93336, Note_on_c, 2, 71, 0
4, 93336, Note_on_c, 2, 78, 0
4, 93600, Note_on_c, 2, 69, 100
4, 93600, Note_on_c, 2, 72, 100
4, 93600, Note_on_c, 2, 78, 100
4, 93816, Note_on_c, 2, 69, 0
4, 93816, Note_on_c, 2, 72, 0
4, 93816, Note_on_c, 2, 78, 0
4, 94080, Note_on_c, 2, 67, 100
4, 94080, Note_on_c, 2, 71, 100
4, 94080, Note_on_c, 2, 76, 100
4, 94296, Note_on_c, 2, 67, 0
4, 94296, Note_on_c, 2, 71, 0
4, 94296, Note_on_c, 2, 76, 0
4, 94560, Note_on_c, 2, 56, 100
4, 94560, Note_on_c, 2, 65, 100
4, 94560, Note_on_c, 2, 74, 100
4, 94776, Note_on_c, 2, 56, 0
4, 94776, Note_on_c, 2, 65, 0
4, 94776, Note_on_c, 2, 74, 0
4, 95280, Note_on_c, 2, 80, 100
4, 95496, Note_on_c, 2, 80, 0
4, 95520, Note_on_c, 2, 81, 100
4, 95736, Note_on_c, 2, 81, 0
4, 95760, Note_on_c, 2, 69, 100
4, 95976, Note_on_c, 2, 69, 0
4, 96240, Note_on_c, 2, 69, 100
4, 96456, Note_on_c, 2, 69, 0
4, 96720, Note_on_c, 2, 69, 100
4, 96936, Note_on_c, 2, 69, 0
4, 97200, Note_on_c, 2, 69, 100
4, 97416, Note_on_c, 2, 69, 0
4, 97680, Note_on_c, 2, 69, 100
4, 97896, Note_on_c, 2, 69, 0
4, 98160, Note_on_c, 2, 69, 100
4, 98376, Note_on_c, 2, 69, 0
4, 98640, Note_on_c, 2, 75, 100
4, 98856, Note_on_c, 2, 75, 0
4, 98880, Note_on_c, 2, 76, 100
4, 99096, Note_on_c, 2, 76, 0
4, 103920, Note_on_c, 2, 69, 100
4, 104136, Note_on_c, 2, 69, 0
4, 104160, Note_on_c, 2, 71, 100
4, 104376, Note_on_c, 2, 71, 0
4, 104400, Note_on_c, 2, 72, 100
4, 104856, Note_on_c, 2, 72, 0
4, 104880, Note_on_c, 2, 77, 100
4, 105096, Note_on_c, 2, 77, 0
4, 105120, Note_on_c, 2, 76, 100
4, 106464, Note_on_c, 2, 76, 0
4, 106560, Note_on_c, 2, 69, 100
4, 107424, Note_on_c, 2, 69, 0
4, 107520, Note_on_c, 2, 71, 100
4, 108384, Note_on_c, 2, 71, 0
4, 108480, Note_on_c, 2, 72, 100
4, 108696, Note_on_c, 2, 72, 0
4, 110400, Note_on_c, 2, 75, 100
4, 110508, Note_on_c, 2, 75, 0
4, 110880, Note_on_c, 2, 75, 100
4, 110988, Note_on_c, 2, 75, 0
4, 111360, Note_on_c, 2, 74, 100
4, 111468, Note_on_c, 2, 74, 0
4, 111840, Note_on_c, 2, 72, 100
4, 111948, Note_on_c, 2, 72, 0
4, 112320, Note_on_c, 2, 79, 100
4, 112428, Note_on_c, 2, 79, 0
4, 114240, Note_on_c, 2, 72, 100
4, 114672, Note_on_c, 2, 72, 0
4, 114720, Note_on_c, 2, 74, 100
4, 115152, Note_on_c, 2, 74, 0
4, 115200, Note_on_c, 2, 76, 100
4, 115416, Note_on_c, 2, 76, 0
4, 115440, Note_on_c, 2, 77, 100
4, 115872, Note_on_c, 2, 77, 0
4, 115920, Note_on_c, 2, 76, 100
4, 116376, Note_on_c, 2, 76, 0
4, 116400, Note_on_c, 2, 74, 100
4, 116508, Note_on_c, 2, 74, 0
4, 116520, Note_on_c, 2, 72, 100
4, 116628, Note_on_c, 2, 72, 0
4, 116640, Note_on_c, 2, 74, 100
4, 117336, Note_on_c, 2, 74, 0
4, 117360, Note_on_c, 2, 72, 100
4, 117468, Note_on_c, 2, 72, 0
4, 117480, Note_on_c, 2, 71, 100
4, 117588, Note_on_c, 2, 71, 0
4, 117600, Note_on_c, 2, 69, 100
4, 117708, Note_on_c, 2, 69, 0
4, 117720, Note_on_c, 2, 76, 100
4, 117828, Note_on_c, 2, 76, 0
4, 117840, Note_on_c, 2, 74, 100
4, 117948, Note_on_c, 2, 74, 0
4, 117960, Note_on_c, 2, 72, 100
4, 118068, Note_on_c, 2, 72, 0
4, 118080, Note_on_c, 2, 71, 100
4, 118512, Note_on_c, 2, 71, 0
4, 118560, Note_on_c, 2, 69, 100
4, 118992, Note_on_c, 2, 69, 0
4, 119040, Note_on_c, 2, 67, 100
4, 119472, Note_on_c, 2, 67, 0
4, 119520, Note_on_c, 2, 66, 100
4, 119952, Note_on_c, 2, 66, 0
4, 120000, Note_on_c, 2, 67, 100
4, 120216, Note_on_c, 2, 67, 0
4, 120240, Note_on_c, 2, 64, 100
4, 120456, Note_on_c, 2, 64, 0
4, 120480, Note_on_c, 2, 62, 100
4, 121176, Note_on_c, 2, 62, 0
4, 121200, Note_on_c, 2, 71, 100
4, 121416, Note_on_c, 2, 71, 0
4, 121440, Note_on_c, 2, 72, 100
4, 121656, Note_on_c, 2, 72, 0
4, 121680, Note_on_c, 2, 74, 100
4, 121896, Note_on_c, 2, 74, 0
4, 121920, Note_on_c, 2, 67, 100
4, 122352, Note_on_c, 2, 67, 0
4, 123120, Note_on_c, 2, 72, 100
4, 123552, Note_on_c, 2, 72, 0
4, 123600, Note_on_c, 2, 71, 100
4, 123816, Note_on_c, 2, 71, 0
4, 123840, Note_on_c, 2, 72, 100
4, 124056, Note_on_c, 2, 72, 0
4, 124080, Note_on_c, 2, 81, 100
4, 124296, Note_on_c, 2, 81, 0
4, 124320, Note_on_c, 2, 71, 100
4, 124536, Note_on_c, 2, 71, 0
4, 124560, Note_on_c, 2, 79, 100
4, 124776, Note_on_c, 2, 79, 0
4, 124800, Note_on_c, 2, 69, 100
4, 125016, Note_on_c, 2, 69, 0
4, 125040, Note_on_c, 2, 77, 100
4, 125256, Note_on_c, 2, 77, 0
4, 125280, Note_on_c, 2, 67, 100
4, 125496, Note_on_c, 2, 67, 0
4, 125520, Note_on_c, 2, 71, 100
4, 125736, Note_on_c, 2, 71, 0
4, 125760, Note_on_c, 2, 72, 100
4, 125976, Note_on_c, 2, 72, 0
4, 126000, Note_on_c, 2, 71, 100
4, 126108, Note_on_c, 2, 71, 0
4, 126120, Note_on_c, 2, 69, 100
4, 126228, Note_on_c, 2, 69, 0
4, 126240, Note_on_c, 2, 67, 100
4, 126456, Note_on_c, 2, 67, 0
4, 126480, Note_on_c, 2, 74, 100
4, 126696, Note_on_c, 2, 74, 0
4, 126720, Note_on_c, 2, 76, 100
4, 126936, Note_on_c, 2, 76, 0
4, 126960, Note_on_c, 2, 79, 100
4, 127176, Note_on_c, 2, 79, 0
4, 127200, Note_on_c, 2, 77, 100
4, 127416, Note_on_c, 2, 77, 0
4, 127440, Note_on_c, 2, 76, 100
4, 127656, Note_on_c, 2, 76, 0
4, 127680, Note_on_c, 2, 74, 100
4, 127896, Note_on_c, 2, 74, 0
4, 127920, Note_on_c, 2, 73, 100
4, 128028, Note_on_c, 2, 73, 0
4, 128040, Note_on_c, 2, 71, 100
4, 128148, Note_on_c, 2, 71, 0
4, 128160, Note_on_c, 2, 69, 100
4, 128376, Note_on_c, 2, 69, 0
4, 128400, Note_on_c, 2, 76, 100
4, 128616, Note_on_c, 2, 76, 0
4, 128640, Note_on_c, 2, 78, 100
4, 128856, Note_on_c, 2, 78, 0
4, 128880, Note_on_c, 2, 81, 100
4, 129096, Note_on_c, 2, 81, 0
4, 129120, Note_on_c, 2, 79, 100
4, 129336, Note_on_c, 2, 79, 0
4, 129360, Note_on_c, 2, 78, 100
4, 129576, Note_on_c, 2, 78, 0
4, 129600, Note_on_c, 2, 76, 100
4, 129816, Note_on_c, 2, 76, 0
4, 129840, Note_on_c, 2, 75, 100
4, 130056, Note_on_c, 2, 75, 0
4, 130080, Note_on_c, 2, 76, 100
4, 130296, Note_on_c, 2, 76, 0
4, 130320, Note_on_c, 2, 78, 100
4, 130536, Note_on_c, 2, 78, 0
4, 130560, Note_on_c, 2, 79, 100
4, 130668, Note_on_c, 2, 79, 0
4, 130680, Note_on_c, 2, 78, 100
4, 130788, Note_on_c, 2, 78, 0
4, 130800, Note_on_c, 2, 76, 100
4, 131232, Note_on_c, 2, 76, 0
4, 131280, Note_on_c, 2, 75, 100
4, 131496, Note_on_c, 2, 75, 0
4, 131520, Note_on_c, 2, 76, 100
4, 131736, Note_on_c, 2, 76, 0
4, 131760, Note_on_c, 2, 81, 100
4, 132192, Note_on_c, 2, 81, 0
4, 132240, Note_on_c, 2, 79, 100
4, 132696, Note_on_c, 2, 79, 0
4, 132720, Note_on_c, 2, 78, 100
4, 132828, Note_on_c, 2, 78, 0
4, 132840, Note_on_c, 2, 76, 100
4, 132948, Note_on_c, 2, 76, 0
4, 132960, Note_on_c, 2, 78, 100
4, 133656, Note_on_c, 2, 78, 0
4, 133680, Note_on_c, 2, 76, 100
4, 133788, Note_on_c, 2, 76, 0
4, 133800, Note_on_c, 2, 75, 100
4, 133908, Note_on_c, 2, 75, 0
4, 133920, Note_on_c, 2, 76, 100
4, 134136, Note_on_c, 2, 76, 0
4, 134640, Note_on_c, 2, 76, 100
4, 134748, Note_on_c, 2, 76, 0
4, 134760, Note_on_c, 2, 74, 100
4, 134868, Note_on_c, 2, 74, 0
4, 134880, Note_on_c, 2, 76, 100
4, 135096, Note_on_c, 2, 76, 0
4, 135600, Note_on_c, 2, 74, 100
4, 135708, Note_on_c, 2, 74, 0
4, 135720, Note_on_c, 2, 72, 100
4, 135828, Note_on_c, 2, 72, 0
4, 135840, Note_on_c, 2, 74, 100
4, 136056, Note_on_c, 2, 74, 0
4, 136080, Note_on_c, 2, 72, 100
4, 136188, Note_on_c, 2, 72, 0
4, 136200, Note_on_c, 2, 71, 100
4, 136308, Note_on_c, 2, 71, 0
4, 136320, Note_on_c, 2, 72, 100
4, 136644, Note_on_c, 2, 72, 0
4, 136680, Note_on_c, 2, 74, 100
4, 136788, Note_on_c, 2, 74, 0
4, 136800, Note_on_c, 2, 71, 100
4, 137124, Note_on_c, 2, 71, 0
4, 137160, Note_on_c, 2, 72, 100
4, 137268, Note_on_c, 2, 72, 0
4, 137280, Note_on_c, 2, 72, 100
4, 137496, Note_on_c, 2, 72, 0
4, 140160, Note_on_c, 2, 64, 100
4, 140376, Note_on_c, 2, 64, 0
4, 140400, Note_on_c, 2, 74, 100
4, 140616, Note_on_c, 2, 74, 0
4, 140640, Note_on_c, 2, 72, 100
4, 140856, Note_on_c, 2, 72, 0
4, 140880, Note_on_c, 2, 71, 100
4, 141096, Note_on_c, 2, 71, 0
4, 141120, Note_on_c, 2, 69, 100
4, 141336, Note_on_c, 2, 69, 0
4, 141360, Note_on_c, 2, 71, 100
4, 141576, Note_on_c, 2, 71, 0
4, 141600, Note_on_c, 2, 69, 100
4, 141816, Note_on_c, 2, 69, 0
4, 141840, Note_on_c, 2, 64, 100
4, 142056, Note_on_c, 2, 64, 0
4, 142080, Note_on_c, 2, 62, 100
4, 142296, Note_on_c, 2, 62, 0
4, 144000, Note_on_c, 2, 62, 100
4, 144216, Note_on_c, 2, 62, 0
4, 144240, Note_on_c, 2, 70, 100
4, 144456, Note_on_c, 2, 70, 0
4, 144480, Note_on_c, 2, 69, 100
4, 144696, Note_on_c, 2, 69, 0
4, 144720, Note_on_c, 2, 67, 100
4, 144936, Note_on_c, 2, 67, 0
4, 144960, Note_on_c, 2, 65, 100
4, 145176, Note_on_c, 2, 65, 0
4, 145200, Note_on_c, 2, 67, 100
4, 145632, Note_on_c, 2, 67, 0
4, 145680, Note_on_c, 2, 65, 100
4, 146136, Note_on_c, 2, 65, 0
4, 146160, Note_on_c, 2, 64, 100
4, 146592, Note_on_c, 2, 64, 0
4, 146640, Note_on_c, 2, 57, 100
4, 146856, Note_on_c, 2, 57, 0
4, 146880, Note_on_c, 2, 62, 100
4, 147096, Note_on_c, 2, 62, 0
4, 147120, Note_on_c, 2, 74, 100
4, 147552, Note_on_c, 2, 74, 0
4, 147600, Note_on_c, 2, 72, 100
4, 147816, Note_on_c, 2, 72, 0
4, 147840, Note_on_c, 2, 70, 100
4, 148056, Note_on_c, 2, 70, 0
4, 148560, Note_on_c, 2, 72, 100
4, 148776, Note_on_c, 2, 72, 0
4, 148800, Note_on_c, 2, 70, 100
4, 149016, Note_on_c, 2, 70, 0
4, 149760, Note_on_c, 2, 67, 100
4, 149976, Note_on_c, 2, 67, 0
4, 150000, Note_on_c, 2, 75, 100
4, 150216, Note_on_c, 2, 75, 0
4, 150240, Note_on_c, 2, 74, 100
4, 150456, Note_on_c, 2, 74, 0
4, 150480, Note_on_c, 2, 72, 100
4, 150696, Note_on_c, 2, 72, 0
4, 150720, Note_on_c, 2, 70, 100
4, 150936, Note_on_c, 2, 70, 0
4, 150960, Note_on_c, 2, 67, 100
4, 151176, Note_on_c, 2, 67, 0
4, 151200, Note_on_c, 2, 61, 100
4, 151416, Note_on_c, 2, 61, 0
4, 151440, Note_on_c, 2, 64, 100
4, 151656, Note_on_c, 2, 64, 0
4, 151680, Note_on_c, 2, 57, 100
4, 151896, Note_on_c, 2, 57, 0
4, 160320, Note_on_c, 2, 80, 100
4, 160428, Note_on_c, 2, 80, 0
4, 160800, Note_on_c, 2, 80, 100
4, 160908, Note_on_c, 2, 80, 0
4, 161280, Note_on_c, 2, 79, 100
4, 161388, Note_on_c, 2, 79, 0
4, 161520, Note_on_c, 2, 70, 100
4, 161592, Note_on_c, 2, 70, 0
4, 161600, Note_on_c, 2, 68, 100
4, 161672, Note_on_c, 2, 68, 0
4, 161680, Note_on_c, 2, 67, 100
4, 161752, Note_on_c, 2, 67, 0
4, 161760, Note_on_c, 2, 77, 100
4, 161868, Note_on_c, 2, 77, 0
4, 162240, Note_on_c, 2, 76, 100
4, 162348, Note_on_c, 2, 76, 0
4, 162480, Note_on_c, 2, 60, 100
4, 162588, Note_on_c, 2, 60, 0
4, 162720, Note_on_c, 2, 64, 100
4, 162828, Note_on_c, 2, 64, 0
4, 162960, Note_on_c, 2, 67, 100
4, 163068, Note_on_c, 2, 67, 0
4, 163200, Note_on_c, 2, 70, 100
4, 164064, Note_on_c, 2, 70, 0
4, 164160, Note_on_c, 2, 72, 100
4, 164268, Note_on_c, 2, 72, 0
4, 164880, Note_on_c, 2, 70, 100
4, 164988, Note_on_c, 2, 70, 0
4, 165120, Note_on_c, 2, 69, 100
4, 165228, Note_on_c, 2, 69, 0
4, 165840, Note_on_c, 2, 67, 100
4, 165948, Note_on_c, 2, 67, 0
4, 166080, Note_on_c, 2, 65, 100
4, 166188, Note_on_c, 2, 65, 0
4, 166800, Note_on_c, 2, 64, 100
4, 166908, Note_on_c, 2, 64, 0
4, 167040, Note_on_c, 2, 62, 100
4, 167148, Note_on_c, 2, 62, 0
4, 167760, Note_on_c, 2, 67, 100
4, 167868, Note_on_c, 2, 67, 0
4, 168000, Note_on_c, 2, 65, 100
4, 168108, Note_on_c, 2, 65, 0
4, 168720, Note_on_c, 2, 70, 100
4, 168828, Note_on_c, 2, 70, 0
4, 168960, Note_on_c, 2, 69, 100
4, 169068, Note_on_c, 2, 69, 0
4, 169680, Note_on_c, 2, 82, 100
4, 169788, Note_on_c, 2, 82, 0
4, 170160, Note_on_c, 2, 81, 100
4, 170268, Note_on_c, 2, 81, 0
4, 170640, Note_on_c, 2, 79, 100
4, 170748, Note_on_c, 2, 79, 0
4, 171120, Note_on_c, 2, 76, 100
4, 171228, Note_on_c, 2, 76, 0
4, 171600, Note_on_c, 2, 81, 100
4, 171708, Note_on_c, 2, 81, 0
4, 172080, Note_on_c, 2, 81, 100
4, 172512, Note_on_c, 2, 81, 0
4, 172560, Note_on_c, 2, 79, 100
4, 173016, Note_on_c, 2, 79, 0
4, 173040, Note_on_c, 2, 77, 100
4, 173472, Note_on_c, 2, 77, 0
4, 173760, Note_on_c, 2, 71, 100
4, 173976, Note_on_c, 2, 71, 0
4, 174480, Note_on_c, 2, 74, 100
4, 174696, Note_on_c, 2, 74, 0
4, 174720, Note_on_c, 2, 72, 100
4, 174936, Note_on_c, 2, 72, 0
4, 179760, Note_on_c, 2, 77, 100
4, 179868, Note_on_c, 2, 77, 0
4, 180240, Note_on_c, 2, 77, 100
4, 180348, Note_on_c, 2, 77, 0
4, 180720, Note_on_c, 2, 65, 100
4, 180828, Note_on_c, 2, 65, 0
4, 181200, Note_on_c, 2, 65, 100
4, 181308, Note_on_c, 2, 65, 0
4, 181680, Note_on_c, 2, 77, 100
4, 181788, Note_on_c, 2, 77, 0
4, 182160, Note_on_c, 2, 77, 100
4, 182268, Note_on_c, 2, 77, 0
4, 182640, Note_on_c, 2, 65, 100
4, 182748, Note_on_c, 2, 65, 0
4, 183120, Note_on_c, 2, 65, 100
4, 183228, Note_on_c, 2, 65, 0
4, 183600, Note_on_c, 2, 77, 100
4, 183708, Note_on_c, 2, 77, 0
4, 183840, Note_on_c, 2, 76, 100
4, 183948, Note_on_c, 2, 76, 0
4, 184080, Note_on_c, 2, 74, 100
4, 184188, Note_on_c, 2, 74, 0
4, 184320, Note_on_c, 2, 72, 100
4, 184428, Note_on_c, 2, 72, 0
4, 185040, Note_on_c, 2, 67, 100
4, 185148, Note_on_c, 2, 67, 0
4, 185280, Note_on_c, 2, 65, 100
4, 185388, Note_on_c, 2, 65, 0
4, 186720, Note_on_c, 2, 64, 100
4, 186720, Note_on_c, 2, 74, 100
4, 186720, Note_on_c, 2, 83, 100
4, 186828, Note_on_c, 2, 64, 0
4, 186828, Note_on_c, 2, 74, 0
4, 186828, Note_on_c, 2, 83, 0
4, 187200, Note_on_c, 2, 64, 100
4, 187200, Note_on_c, 2, 72, 100
4, 187200, Note_on_c, 2, 81, 100
4, 187308, Note_on_c, 2, 64, 0
4, 187308, Note_on_c, 2, 72, 0
4, 187308, Note_on_c, 2, 81, 0
4, 187680, Note_on_c, 2, 67, 100
4, 187680, Note_on_c, 2, 70, 100
4, 187680, Note_on_c, 2, 79, 100
4, 187788, Note_on_c, 2, 67, 0
4, 187788, Note_on_c, 2, 70, 0
4, 187788, Note_on_c, 2, 79, 0
4, 188160, Note_on_c, 2, 62, 100
4, 188160, Note_on_c, 2, 69, 100
4, 188160, Note_on_c, 2, 77, 100
4, 188268, Note_on_c, 2, 62, 0
4, 188268, Note_on_c, 2, 69, 0
4, 188268, Note_on_c, 2, 77, 0
4, 188640, Note_on_c, 2, 69, 100
4, 188640, Note_on_c, 2, 72, 100
4, 188640, Note_on_c, 2, 78, 100
4, 188748, Note_on_c, 2, 69, 0
4, 188748, Note_on_c, 2, 72, 0
4, 188748, Note_on_c, 2, 78, 0
4, 189120, Note_on_c, 2, 68, 100
4, 189120, Note_on_c, 2, 71, 100
4, 189120, Note_on_c, 2, 76, 100
4, 189228, Note_on_c, 2, 68, 0
4, 189228, Note_on_c, 2, 71, 0
4, 189228, Note_on_c, 2, 76, 0
4, 191040, Note_on_c, 2, 57, 100
4, 191256, Note_on_c, 2, 57, 0
4, 191280, Note_on_c, 2, 65, 100
4, 191496, Note_on_c, 2, 65, 0
4, 191520, Note_on_c, 2, 64, 100
4, 191736, Note_on_c, 2, 64, 0
4, 191760, Note_on_c, 2, 62, 100
4, 191976, Note_on_c, 2, 62, 0
4, 192000, Note_on_c, 2, 60, 100
4, 192216, Note_on_c, 2, 60, 0
4, 192240, Note_on_c, 2, 59, 100
4, 192456, Note_on_c, 2, 59, 0
4, 192480, Note_on_c, 2, 60, 100
4, 192696, Note_on_c, 2, 60, 0
4, 192720, Note_on_c, 2, 64, 100
4, 192936, Note_on_c, 2, 64, 0
4, 192960, Note_on_c, 2, 69, 100
4, 193176, Note_on_c, 2, 69, 0
4, 193200, Note_on_c, 2, 71, 100
4, 193416, Note_on_c, 2, 71, 0
4, 193440, Note_on_c, 2, 72, 100
4, 193656, Note_on_c, 2, 72, 0
4, 194400, Note_on_c, 2, 57, 100
4, 194616, Note_on_c, 2, 57, 0
4, 194640, Note_on_c, 2, 65, 100
4, 194856, Note_on_c, 2, 65, 0
4, 194880, Note_on_c, 2, 64, 100
4, 195096, Note_on_c, 2, 64, 0
4, 195120, Note_on_c, 2, 62, 100
4, 195336, Note_on_c, 2, 62, 0
4, 195360, Note_on_c, 2, 60, 100
4, 195576, Note_on_c, 2, 60, 0
4, 195600, Note_on_c, 2, 59, 100
4, 195816, Note_on_c, 2, 59, 0
4, 195840, Note_on_c, 2, 57, 100
4, 196056, Note_on_c, 2, 57, 0
4, 196080, Note_on_c, 2, 56, 100
4, 196296, Note_on_c, 2, 56, 0
4, 196320, Note_on_c, 2, 57, 100
4, 196536, Note_on_c, 2, 57, 0
4, 196560, Note_on_c, 2, 76, 100
4, 196776, Note_on_c, 2, 76, 0
4, 196800, Note_on_c, 2, 76, 100
4, 197016, Note_on_c, 2, 76, 0
4, 198000, Note_on_c, 2, 81, 100
4, 198216, Note_on_c, 2, 81, 0
4, 198240, Note_on_c, 2, 71, 100
4, 198456, Note_on_c, 2, 71, 0
4, 198480, Note_on_c, 2, 79, 100
4, 198696, Note_on_c, 2, 79, 0
4, 198720, Note_on_c, 2, 69, 100
4, 198936, Note_on_c, 2, 69, 0
4, 198960, Note_on_c, 2, 77, 100
4, 199176, Note_on_c, 2, 77, 0
4, 199200, Note_on_c, 2, 68, 100
4, 199416, Note_on_c, 2, 68, 0
4, 212403, Note_on_c, 2, 77, 100
4, 212619, Note_on_c, 2, 77, 0
4, 212643, Note_on_c, 2, 67, 100
4, 212859, Note_on_c, 2, 67, 0
4, 212883, Note_on_c, 2, 76, 100
4, 213099, Note_on_c, 2, 76, 0
4, 213123, Note_on_c, 2, 65, 100
4, 213339, Note_on_c, 2, 65, 0
4, 213363, Note_on_c, 2, 74, 100
4, 213579, Note_on_c, 2, 74, 0
4, 213603, Note_on_c, 2, 64, 100
4, 213819, Note_on_c, 2, 64, 0
4, 213843, Note_on_c, 2, 74, 100
4, 214059, Note_on_c, 2, 74, 0
4, 214083, Note_on_c, 2, 72, 100
4, 214299, Note_on_c, 2, 72, 0
4, 214323, Note_on_c, 2, 64, 100
4, 214755, Note_on_c, 2, 64, 0
4, 214803, Note_on_c, 2, 63, 100
4, 215019, Note_on_c, 2, 63, 0
4, 215043, Note_on_c, 2, 64, 100
4, 215259, Note_on_c, 2, 64, 0
4, 216243, Note_on_c, 2, 69, 100
4, 216675, Note_on_c, 2, 69, 0
4, 216723, Note_on_c, 2, 67, 100
4, 217179, Note_on_c, 2, 67, 0
4, 217203, Note_on_c, 2, 66, 100
4, 217311, Note_on_c, 2, 66, 0
4, 217323, Note_on_c, 2, 64, 100
4, 217431, Note_on_c, 2, 64, 0
4, 217443, Note_on_c, 2, 66, 100
4, 217875, Note_on_c, 2, 66, 0
4, 217923, Note_on_c, 2, 64, 100
4, 218139, Note_on_c, 2, 64, 0
4, 218163, Note_on_c, 2, 72, 100
4, 218595, Note_on_c, 2, 72, 0
4, 218643, Note_on_c, 2, 71, 100
4, 218859, Note_on_c, 2, 71, 0
4, 218883, Note_on_c, 2, 69, 100
4, 219099, Note_on_c, 2, 69, 0
4, 219843, Note_on_c, 2, 69, 100
4, 220059, Note_on_c, 2, 69, 0
4, 220083, Note_on_c, 2, 77, 100
4, 220299, Note_on_c, 2, 77, 0
4, 220323, Note_on_c, 2, 76, 100
4, 220539, Note_on_c, 2, 76, 0
4, 220563, Note_on_c, 2, 74, 100
4, 220779, Note_on_c, 2, 74, 0
4, 220803, Note_on_c, 2, 72, 100
4, 221235, Note_on_c, 2, 72, 0
4, 221283, Note_on_c, 2, 71, 100
4, 221715, Note_on_c, 2, 71, 0
4, 221763, Note_on_c, 2, 69, 100
4, 222195, Note_on_c, 2, 69, 0
4, 222243, Note_on_c, 2, 68, 100
4, 222675, Note_on_c, 2, 68, 0
4, 222723, Note_on_c, 2, 69, 100
4, 223155, Note_on_c, 2, 69, 0
4, 223203, Note_on_c, 2, 67, 100
4, 223635, Note_on_c, 2, 67, 0
4, 223683, Note_on_c, 2, 65, 100
4, 224115, Note_on_c, 2, 65, 0
4, 224163, Note_on_c, 2, 66, 100
4, 224595, Note_on_c, 2, 66, 0
4, 224643, Note_on_c, 2, 67, 100
4, 224859, Note_on_c, 2, 67, 0
4, 224883, Note_on_c, 2, 77, 100
4, 225099, Note_on_c, 2, 77, 0
4, 225123, Note_on_c, 2, 76, 100
4, 225339, Note_on_c, 2, 76, 0
4, 225363, Note_on_c, 2, 74, 100
4, 225579, Note_on_c, 2, 74, 0
4, 225603, Note_on_c, 2, 72, 100
4, 225711, Note_on_c, 2, 72, 0
4, 225723, Note_on_c, 2, 74, 100
4, 225831, Note_on_c, 2, 74, 0
4, 225843, Note_on_c, 2, 76, 100
4, 226275, Note_on_c, 2, 76, 0
4, 226323, Note_on_c, 2, 75, 100
4, 226539, Note_on_c, 2, 75, 0
4, 226563, Note_on_c, 2, 76, 100
4, 226779, Note_on_c, 2, 76, 0
4, 226803, Note_on_c, 2, 77, 100
4, 227019, Note_on_c, 2, 77, 0
4, 227043, Note_on_c, 2, 76, 100
4, 227259, Note_on_c, 2, 76, 0
4, 227283, Note_on_c, 2, 74, 100
4, 227499, Note_on_c, 2, 74, 0
4, 227523, Note_on_c, 2, 73, 100
4, 227631, Note_on_c, 2, 73, 0
4, 227643, Note_on_c, 2, 69, 100
4, 227751, Note_on_c, 2, 69, 0
4, 227763, Note_on_c, 2, 74, 100
4, 228195, Note_on_c, 2, 74, 0
4, 228243, Note_on_c, 2, 68, 100
4, 228459, Note_on_c, 2, 68, 0
4, 228483, Note_on_c, 2, 69, 100
4, 228699, Note_on_c, 2, 69, 0
4, 228723, Note_on_c, 2, 81, 100
4, 228939, Note_on_c, 2, 81, 0
4, 228963, Note_on_c, 2, 79, 100
4, 229395, Note_on_c, 2, 79, 0
4, 229443, Note_on_c, 2, 77, 100
4, 230091, Note_on_c, 2, 77, 0
4, 230163, Note_on_c, 2, 76, 100
4, 230271, Note_on_c, 2, 76, 0
4, 230283, Note_on_c, 2, 74, 100
4, 230391, Note_on_c, 2, 74, 0
4, 230403, Note_on_c, 2, 72, 100
4, 230619, Note_on_c, 2, 72, 0
4, 230643, Note_on_c, 2, 77, 100
4, 231075, Note_on_c, 2, 77, 0
4, 231123, Note_on_c, 2, 76, 100
4, 231579, Note_on_c, 2, 76, 0
4, 231603, Note_on_c, 2, 69, 100
4, 231819, Note_on_c, 2, 69, 0
4, 231843, Note_on_c, 2, 74, 100
4, 232059, Note_on_c, 2, 74, 0
4, 232083, Note_on_c, 2, 72, 100
4, 232299, Note_on_c, 2, 72, 0
4, 232323, Note_on_c, 2, 71, 100
4, 232755, Note_on_c, 2, 71, 0
4, 232803, Note_on_c, 2, 83, 100
4, 233499, Note_on_c, 2, 83, 0
4, 233523, Note_on_c, 2, 81, 100
4, 233955, Note_on_c, 2, 81, 0
4, 234003, Note_on_c, 2, 80, 100
4, 234219, Note_on_c, 2, 80, 0
4, 234243, Note_on_c, 2, 81, 100
4, 234675, Note_on_c, 2, 81, 0
4, 234675, End_track
5, 0, Start_track
5, 0, Sequence_number, 65535
5, 0, MIDI_port, 0
5, 0, Title_t, "Violino II"
5, 0, Control_c, 3, 0, 0
5, 0, Control_c, 3, 32, 0
5, 0, Program_c, 3, 48
5, 0, Control_c, 3, 7, 80
5, 0, Control_c, 3, 10, 114
5, 1200, Note_on_c, 3, 74, 100
5, 1632, Note_on_c, 3, 74, 0
5, 1680, Note_on_c, 3, 72, 100
5, 2136, Note_on_c, 3, 72, 0
5, 2160, Note_on_c, 3, 71, 100
5, 2268, Note_on_c, 3, 71, 0
5, 2280, Note_on_c, 3, 69, 100
5, 2388, Note_on_c, 3, 69, 0
5, 2400, Note_on_c, 3, 71, 100
5, 3096, Note_on_c, 3, 71, 0
5, 3120, Note_on_c, 3, 69, 100
5, 3228, Note_on_c, 3, 69, 0
5, 3240, Note_on_c, 3, 67, 100
5, 3348, Note_on_c, 3, 67, 0
5, 3360, Note_on_c, 3, 66, 100
5, 3468, Note_on_c, 3, 66, 0
5, 3480, Note_on_c, 3, 72, 100
5, 3588, Note_on_c, 3, 72, 0
5, 3600, Note_on_c, 3, 71, 100
5, 3708, Note_on_c, 3, 71, 0
5, 3720, Note_on_c, 3, 69, 100
5, 3828, Note_on_c, 3, 69, 0
5, 3840, Note_on_c, 3, 67, 100
5, 4056, Note_on_c, 3, 67, 0
5, 4080, Note_on_c, 3, 66, 100
5, 4188, Note_on_c, 3, 66, 0
5, 4200, Note_on_c, 3, 64, 100
5, 4308, Note_on_c, 3, 64, 0
5, 4320, Note_on_c, 3, 66, 100
5, 4752, Note_on_c, 3, 66, 0
5, 4800, Note_on_c, 3, 64, 100
5, 5016, Note_on_c, 3, 64, 0
5, 5040, Note_on_c, 3, 72, 100
5, 5472, Note_on_c, 3, 72, 0
5, 5520, Note_on_c, 3, 71, 100
5, 5976, Note_on_c, 3, 71, 0
5, 6000, Note_on_c, 3, 69, 100
5, 6432, Note_on_c, 3, 69, 0
5, 6480, Note_on_c, 3, 67, 100
5, 6588, Note_on_c, 3, 67, 0
5, 6600, Note_on_c, 3, 66, 100
5, 6708, Note_on_c, 3, 66, 0
5, 6720, Note_on_c, 3, 67, 100
5, 6936, Note_on_c, 3, 67, 0
5, 7440, Note_on_c, 3, 64, 100
5, 7896, Note_on_c, 3, 64, 0
5, 7920, Note_on_c, 3, 67, 100
5, 8136, Note_on_c, 3, 67, 0
5, 8160, Note_on_c, 3, 65, 100
5, 8376, Note_on_c, 3, 65, 0
5, 8400, Note_on_c, 3, 64, 100
5, 8616, Note_on_c, 3, 64, 0
5, 8640, Note_on_c, 3, 62, 100
5, 8856, Note_on_c, 3, 62, 0
5, 8880, Note_on_c, 3, 60, 100
5, 9096, Note_on_c, 3, 60, 0
5, 9120, Note_on_c, 3, 59, 100
5, 9228, Note_on_c, 3, 59, 0
5, 9240, Note_on_c, 3, 57, 100
5, 9348, Note_on_c, 3, 57, 0
5, 9360, Note_on_c, 3, 59, 100
5, 9576, Note_on_c, 3, 59, 0
5, 9600, Note_on_c, 3, 57, 100
5, 10032, Note_on_c, 3, 57, 0
5, 10080, Note_on_c, 3, 59, 100
5, 10296, Note_on_c, 3, 59, 0
5, 10320, Note_on_c, 3, 60, 100
5, 10776, Note_on_c, 3, 60, 0
5, 10800, Note_on_c, 3, 62, 100
5, 10908, Note_on_c, 3, 62, 0
5, 10920, Note_on_c, 3, 60, 100
5, 11028, Note_on_c, 3, 60, 0
5, 11040, Note_on_c, 3, 59, 100
5, 11472, Note_on_c, 3, 59, 0
5, 11520, Note_on_c, 3, 57, 100
5, 11628, Note_on_c, 3, 57, 0
5, 11640, Note_on_c, 3, 59, 100
5, 11748, Note_on_c, 3, 59, 0
5, 11760, Note_on_c, 3, 60, 100
5, 11868, Note_on_c, 3, 60, 0
5, 11880, Note_on_c, 3, 57, 100
5, 11988, Note_on_c, 3, 57, 0
5, 12000, Note_on_c, 3, 64, 100
5, 12432, Note_on_c, 3, 64, 0
5, 12480, Note_on_c, 3, 62, 100
5, 12696, Note_on_c, 3, 62, 0
5, 12720, Note_on_c, 3, 72, 100
5, 12936, Note_on_c, 3, 72, 0
5, 12960, Note_on_c, 3, 71, 100
5, 13176, Note_on_c, 3, 71, 0
5, 13200, Note_on_c, 3, 69, 100
5, 13416, Note_on_c, 3, 69, 0
5, 13440, Note_on_c, 3, 67, 100
5, 13656, Note_on_c, 3, 67, 0
5, 13680, Note_on_c, 3, 59, 100
5, 13896, Note_on_c, 3, 59, 0
5, 13920, Note_on_c, 3, 60, 100
5, 14136, Note_on_c, 3, 60, 0
5, 14160, Note_on_c, 3, 62, 100
5, 14376, Note_on_c, 3, 62, 0
5, 14400, Note_on_c, 3, 64, 100
5, 14616, Note_on_c, 3, 64, 0
5, 14640, Note_on_c, 3, 66, 100
5, 14748, Note_on_c, 3, 66, 0
5, 14760, Note_on_c, 3, 67, 100
5, 14868, Note_on_c, 3, 67, 0
5, 14880, Note_on_c, 3, 66, 100
5, 14988, Note_on_c, 3, 66, 0
5, 15000, Note_on_c, 3, 64, 100
5, 15108, Note_on_c, 3, 64, 0
5, 15120, Note_on_c, 3, 66, 100
5, 15336, Note_on_c, 3, 66, 0
5, 15360, Note_on_c, 3, 64, 100
5, 16224, Note_on_c, 3, 64, 0
5, 16320, Note_on_c, 3, 65, 100
5, 16752, Note_on_c, 3, 65, 0
5, 16800, Note_on_c, 3, 59, 100
5, 17232, Note_on_c, 3, 59, 0
5, 17280, Note_on_c, 3, 57, 100
5, 17496, Note_on_c, 3, 57, 0
5, 17520, Note_on_c, 3, 74, 100
5, 17952, Note_on_c, 3, 74, 0
5, 18000, Note_on_c, 3, 72, 100
5, 18456, Note_on_c, 3, 72, 0
5, 18480, Note_on_c, 3, 71, 100
5, 18588, Note_on_c, 3, 71, 0
5, 18600, Note_on_c, 3, 69, 100
5, 18708, Note_on_c, 3, 69, 0
5, 18720, Note_on_c, 3, 71, 100
5, 18936, Note_on_c, 3, 71, 0
5, 18960, Note_on_c, 3, 76, 100
5, 19416, Note_on_c, 3, 76, 0
5, 19440, Note_on_c, 3, 73, 100
5, 19656, Note_on_c, 3, 73, 0
5, 19680, Note_on_c, 3, 74, 100
5, 19896, Note_on_c, 3, 74, 0
5, 19920, Note_on_c, 3, 76, 100
5, 20136, Note_on_c, 3, 76, 0
5, 20160, Note_on_c, 3, 69, 100
5, 20592, Note_on_c, 3, 69, 0
5, 20640, Note_on_c, 3, 68, 100
5, 20856, Note_on_c, 3, 68, 0
5, 20880, Note_on_c, 3, 69, 100
5, 21096, Note_on_c, 3, 69, 0
5, 21120, Note_on_c, 3, 71, 100
5, 21444, Note_on_c, 3, 71, 0
5, 21480, Note_on_c, 3, 69, 100
5, 21588, Note_on_c, 3, 69, 0
5, 21600, Note_on_c, 3, 68, 100
5, 21708, Note_on_c, 3, 68, 0
5, 21720, Note_on_c, 3, 66, 100
5, 21828, Note_on_c, 3, 66, 0
5, 21840, Note_on_c, 3, 68, 100
5, 22056, Note_on_c, 3, 68, 0
5, 22080, Note_on_c, 3, 64, 100
5, 22512, Note_on_c, 3, 64, 0
5, 22560, Note_on_c, 3, 64, 100
5, 22992, Note_on_c, 3, 64, 0
5, 23040, Note_on_c, 3, 64, 100
5, 23256, Note_on_c, 3, 64, 0
5, 34800, Note_on_c, 3, 69, 100
5, 35232, Note_on_c, 3, 69, 0
5, 35280, Note_on_c, 3, 67, 100
5, 35388, Note_on_c, 3, 67, 0
5, 35400, Note_on_c, 3, 66, 100
5, 35508, Note_on_c, 3, 66, 0
5, 35520, Note_on_c, 3, 64, 100
5, 35952, Note_on_c, 3, 64, 0
5, 36000, Note_on_c, 3, 66, 100
5, 36216, Note_on_c, 3, 66, 0
5, 36240, Note_on_c, 3, 62, 100
5, 36456, Note_on_c, 3, 62, 0
5, 36480, Note_on_c, 3, 67, 100
5, 36696, Note_on_c, 3, 67, 0
5, 36720, Note_on_c, 3, 72, 100
5, 36936, Note_on_c, 3, 72, 0
5, 36960, Note_on_c, 3, 66, 100
5, 37176, Note_on_c, 3, 66, 0
5, 37200, Note_on_c, 3, 78, 100
5, 37416, Note_on_c, 3, 78, 0
5, 37440, Note_on_c, 3, 76, 100
5, 37656, Note_on_c, 3, 76, 0
5, 39840, Note_on_c, 3, 69, 100
5, 40536, Note_on_c, 3, 69, 0
5, 40560, Note_on_c, 3, 67, 100
5, 40776, Note_on_c, 3, 67, 0
5, 40800, Note_on_c, 3, 72, 100
5, 41016, Note_on_c, 3, 72, 0
5, 41040, Note_on_c, 3, 70, 100
5, 41148, Note_on_c, 3, 70, 0
5, 41160, Note_on_c, 3, 69, 100
5, 41268, Note_on_c, 3, 69, 0
5, 41280, Note_on_c, 3, 70, 100
5, 41388, Note_on_c, 3, 70, 0
5, 41400, Note_on_c, 3, 69, 100
5, 41508, Note_on_c, 3, 69, 0
5, 41520, Note_on_c, 3, 67, 100
5, 41628, Note_on_c, 3, 67, 0
5, 41640, Note_on_c, 3, 65, 100
5, 41748, Note_on_c, 3, 65, 0
5, 41760, Note_on_c, 3, 64, 100
5, 42192, Note_on_c, 3, 64, 0
5, 42240, Note_on_c, 3, 62, 100
5, 42456, Note_on_c, 3, 62, 0
5, 45120, Note_on_c, 3, 60, 100
5, 45228, Note_on_c, 3, 60, 0
5, 45360, Note_on_c, 3, 69, 100
5, 45468, Note_on_c, 3, 69, 0
5, 45600, Note_on_c, 3, 67, 100
5, 45708, Note_on_c, 3, 67, 0
5, 45840, Note_on_c, 3, 65, 100
5, 45948, Note_on_c, 3, 65, 0
5, 46080, Note_on_c, 3, 64, 100
5, 46188, Note_on_c, 3, 64, 0
5, 46320, Note_on_c, 3, 76, 100
5, 46428, Note_on_c, 3, 76, 0
5, 46560, Note_on_c, 3, 66, 100
5, 46668, Note_on_c, 3, 66, 0
5, 46800, Note_on_c, 3, 74, 100
5, 46908, Note_on_c, 3, 74, 0
5, 47040, Note_on_c, 3, 64, 100
5, 47148, Note_on_c, 3, 64, 0
5, 47280, Note_on_c, 3, 72, 100
5, 47388, Note_on_c, 3, 72, 0
5, 47520, Note_on_c, 3, 71, 100
5, 47628, Note_on_c, 3, 71, 0
5, 47760, Note_on_c, 3, 72, 100
5, 47868, Note_on_c, 3, 72, 0
5, 48000, Note_on_c, 3, 71, 100
5, 48108, Note_on_c, 3, 71, 0
5, 48240, Note_on_c, 3, 69, 100
5, 48348, Note_on_c, 3, 69, 0
5, 48480, Note_on_c, 3, 67, 100
5, 48588, Note_on_c, 3, 67, 0
5, 48720, Note_on_c, 3, 66, 100
5, 48828, Note_on_c, 3, 66, 0
5, 48960, Note_on_c, 3, 67, 100
5, 49068, Note_on_c, 3, 67, 0
5, 49200, Note_on_c, 3, 69, 100
5, 49308, Note_on_c, 3, 69, 0
5, 49440, Note_on_c, 3, 67, 100
5, 49548, Note_on_c, 3, 67, 0
5, 49680, Note_on_c, 3, 72, 100
5, 49788, Note_on_c, 3, 72, 0
5, 49920, Note_on_c, 3, 71, 100
5, 50028, Note_on_c, 3, 71, 0
5, 50160, Note_on_c, 3, 69, 100
5, 50268, Note_on_c, 3, 69, 0
5, 50400, Note_on_c, 3, 67, 100
5, 50508, Note_on_c, 3, 67, 0
5, 50640, Note_on_c, 3, 66, 100
5, 50748, Note_on_c, 3, 66, 0
5, 50880, Note_on_c, 3, 64, 100
5, 50988, Note_on_c, 3, 64, 0
5, 51120, Note_on_c, 3, 63, 100
5, 51228, Note_on_c, 3, 63, 0
5, 51360, Note_on_c, 3, 64, 100
5, 51468, Note_on_c, 3, 64, 0
5, 51600, Note_on_c, 3, 66, 100
5, 51708, Note_on_c, 3, 66, 0
5, 51840, Note_on_c, 3, 67, 100
5, 51948, Note_on_c, 3, 67, 0
5, 52080, Note_on_c, 3, 71, 100
5, 52188, Note_on_c, 3, 71, 0
5, 52320, Note_on_c, 3, 71, 100
5, 52428, Note_on_c, 3, 71, 0
5, 58080, Note_on_c, 3, 57, 100
5, 58296, Note_on_c, 3, 57, 0
5, 58320, Note_on_c, 3, 65, 100
5, 58536, Note_on_c, 3, 65, 0
5, 58560, Note_on_c, 3, 64, 100
5, 58776, Note_on_c, 3, 64, 0
5, 58800, Note_on_c, 3, 62, 100
5, 59016, Note_on_c, 3, 62, 0
5, 59040, Note_on_c, 3, 60, 100
5, 59256, Note_on_c, 3, 60, 0
5, 59280, Note_on_c, 3, 72, 100
5, 59682, Note_on_c, 3, 72, 0
5, 59700, Note_on_c, 3, 71, 100
5, 59754, Note_on_c, 3, 71, 0
5, 59760, Note_on_c, 3, 69, 100
5, 59976, Note_on_c, 3, 69, 0
5, 60000, Note_on_c, 3, 68, 100
5, 60216, Note_on_c, 3, 68, 0
5, 60240, Note_on_c, 3, 76, 100
5, 60696, Note_on_c, 3, 76, 0
5, 60720, Note_on_c, 3, 74, 100
5, 61122, Note_on_c, 3, 74, 0
5, 61140, Note_on_c, 3, 72, 100
5, 61194, Note_on_c, 3, 72, 0
5, 61200, Note_on_c, 3, 71, 100
5, 61416, Note_on_c, 3, 71, 0
5, 61440, Note_on_c, 3, 69, 100
5, 61656, Note_on_c, 3, 69, 0
5, 61680, Note_on_c, 3, 68, 100
5, 61896, Note_on_c, 3, 68, 0
5, 61920, Note_on_c, 3, 69, 100
5, 62136, Note_on_c, 3, 69, 0
5, 62160, Note_on_c, 3, 71, 100
5, 62376, Note_on_c, 3, 71, 0
5, 62400, Note_on_c, 3, 64, 100
5, 62616, Note_on_c, 3, 64, 0
5, 62640, Note_on_c, 3, 69, 100
5, 62856, Note_on_c, 3, 69, 0
5, 62880, Note_on_c, 3, 62, 100
5, 63096, Note_on_c, 3, 62, 0
5, 63120, Note_on_c, 3, 67, 100
5, 63336, Note_on_c, 3, 67, 0
5, 63360, Note_on_c, 3, 60, 100
5, 63576, Note_on_c, 3, 60, 0
5, 63600, Note_on_c, 3, 65, 100
5, 63816, Note_on_c, 3, 65, 0
5, 63840, Note_on_c, 3, 59, 100
5, 64056, Note_on_c, 3, 59, 0
5, 64080, Note_on_c, 3, 71, 100
5, 64536, Note_on_c, 3, 71, 0
5, 64560, Note_on_c, 3, 72, 100
5, 64776, Note_on_c, 3, 72, 0
5, 64800, Note_on_c, 3, 73, 100
5, 64962, Note_on_c, 3, 73, 0
5, 64980, Note_on_c, 3, 74, 100
5, 65034, Note_on_c, 3, 74, 0
5, 65040, Note_on_c, 3, 76, 100
5, 65256, Note_on_c, 3, 76, 0
5, 65280, Note_on_c, 3, 69, 100
5, 65496, Note_on_c, 3, 69, 0
5, 65520, Note_on_c, 3, 76, 100
5, 65736, Note_on_c, 3, 76, 0
5, 65760, Note_on_c, 3, 74, 100
5, 65976, Note_on_c, 3, 74, 0
5, 66000, Note_on_c, 3, 73, 100
5, 66216, Note_on_c, 3, 73, 0
5, 66240, Note_on_c, 3, 77, 100
5, 66456, Note_on_c, 3, 77, 0
5, 67680, Note_on_c, 3, 57, 100
5, 67896, Note_on_c, 3, 57, 0
5, 67920, Note_on_c, 3, 64, 100
5, 68136, Note_on_c, 3, 64, 0
5, 68160, Note_on_c, 3, 62, 100
5, 68376, Note_on_c, 3, 62, 0
5, 68400, Note_on_c, 3, 60, 100
5, 68616, Note_on_c, 3, 60, 0
5, 68640, Note_on_c, 3, 59, 100
5, 68856, Note_on_c, 3, 59, 0
5, 68880, Note_on_c, 3, 56, 100
5, 69096, Note_on_c, 3, 56, 0
5, 69120, Note_on_c, 3, 64, 100
5, 69336, Note_on_c, 3, 64, 0
5, 80880, Note_on_c, 3, 65, 100
5, 81096, Note_on_c, 3, 65, 0
5, 81120, Note_on_c, 3, 74, 100
5, 81336, Note_on_c, 3, 74, 0
5, 81360, Note_on_c, 3, 64, 100
5, 81576, Note_on_c, 3, 64, 0
5, 81600, Note_on_c, 3, 72, 100
5, 81816, Note_on_c, 3, 72, 0
5, 81840, Note_on_c, 3, 62, 100
5, 82056, Note_on_c, 3, 62, 0
5, 82080, Note_on_c, 3, 71, 100
5, 82296, Note_on_c, 3, 71, 0
5, 82320, Note_on_c, 3, 62, 100
5, 82536, Note_on_c, 3, 62, 0
5, 82560, Note_on_c, 3, 60, 100
5, 83208, Note_on_c, 3, 60, 0
5, 83280, Note_on_c, 3, 59, 100
5, 83736, Note_on_c, 3, 59, 0
5, 83760, Note_on_c, 3, 66, 100
5, 83976, Note_on_c, 3, 66, 0
5, 84000, Note_on_c, 3, 64, 100
5, 84216, Note_on_c, 3, 64, 0
5, 84240, Note_on_c, 3, 66, 100
5, 84456, Note_on_c, 3, 66, 0
5, 84480, Note_on_c, 3, 67, 100
5, 84696, Note_on_c, 3, 67, 0
5, 86880, Note_on_c, 3, 62, 100
5, 86880, Note_on_c, 3, 65, 100
5, 86880, Note_on_c, 3, 71, 100
5, 87096, Note_on_c, 3, 62, 0
5, 87096, Note_on_c, 3, 65, 0
5, 87096, Note_on_c, 3, 71, 0
5, 87360, Note_on_c, 3, 57, 100
5, 87360, Note_on_c, 3, 64, 100
5, 87360, Note_on_c, 3, 72, 100
5, 87576, Note_on_c, 3, 57, 0
5, 87576, Note_on_c, 3, 64, 0
5, 87576, Note_on_c, 3, 72, 0
5, 87840, Note_on_c, 3, 55, 100
5, 87840, Note_on_c, 3, 70, 100
5, 87840, Note_on_c, 3, 73, 100
5, 88056, Note_on_c, 3, 55, 0
5, 88056, Note_on_c, 3, 70, 0
5, 88056, Note_on_c, 3, 73, 0
5, 88320, Note_on_c, 3, 59, 100
5, 88320, Note_on_c, 3, 66, 100
5, 88320, Note_on_c, 3, 74, 100
5, 88536, Note_on_c, 3, 59, 0
5, 88536, Note_on_c, 3, 66, 0
5, 88536, Note_on_c, 3, 74, 0
5, 88800, Note_on_c, 3, 55, 100
5, 88800, Note_on_c, 3, 64, 100
5, 88800, Note_on_c, 3, 73, 100
5, 89016, Note_on_c, 3, 55, 0
5, 89016, Note_on_c, 3, 64, 0
5, 89016, Note_on_c, 3, 73, 0
5, 89280, Note_on_c, 3, 62, 100
5, 89280, Note_on_c, 3, 66, 100
5, 89280, Note_on_c, 3, 71, 100
5, 89496, Note_on_c, 3, 62, 0
5, 89496, Note_on_c, 3, 66, 0
5, 89496, Note_on_c, 3, 71, 0
5, 89760, Note_on_c, 3, 61, 100
5, 89760, Note_on_c, 3, 64, 100
5, 89760, Note_on_c, 3, 71, 100
5, 89976, Note_on_c, 3, 61, 0
5, 89976, Note_on_c, 3, 64, 0
5, 89976, Note_on_c, 3, 71, 0
5, 90240, Note_on_c, 3, 59, 100
5, 90456, Note_on_c, 3, 59, 0
5, 90480, Note_on_c, 3, 67, 100
5, 90696, Note_on_c, 3, 67, 0
5, 90720, Note_on_c, 3, 66, 100
5, 90936, Note_on_c, 3, 66, 0
5, 90960, Note_on_c, 3, 64, 100
5, 91176, Note_on_c, 3, 64, 0
5, 91200, Note_on_c, 3, 62, 100
5, 91632, Note_on_c, 3, 62, 0
5, 91680, Note_on_c, 3, 61, 100
5, 92112, Note_on_c, 3, 61, 0
5, 92160, Note_on_c, 3, 59, 100
5, 92376, Note_on_c, 3, 59, 0
5, 92400, Note_on_c, 3, 64, 100
5, 92616, Note_on_c, 3, 64, 0
5, 92640, Note_on_c, 3, 61, 100
5, 92640, Note_on_c, 3, 66, 100
5, 92640, Note_on_c, 3, 70, 100
5, 92856, Note_on_c, 3, 61, 0
5, 92856, Note_on_c, 3, 66, 0
5, 92856, Note_on_c, 3, 70, 0
5, 93120, Note_on_c, 3, 62, 100
5, 93120, Note_on_c, 3, 66, 100
5, 93120, Note_on_c, 3, 71, 100
5, 93336, Note_on_c, 3, 62, 0
5, 93336, Note_on_c, 3, 66, 0
5, 93336, Note_on_c, 3, 71, 0
5, 93600, Note_on_c, 3, 63, 100
5, 93600, Note_on_c, 3, 66, 100
5, 93600, Note_on_c, 3, 69, 100
5, 93816, Note_on_c, 3, 63, 0
5, 93816, Note_on_c, 3, 66, 0
5, 93816, Note_on_c, 3, 69, 0
5, 94080, Note_on_c, 3, 55, 100
5, 94080, Note_on_c, 3, 64, 100
5, 94080, Note_on_c, 3, 71, 100
5, 94296, Note_on_c, 3, 55, 0
5, 94296, Note_on_c, 3, 64, 0
5, 94296, Note_on_c, 3, 71, 0
5, 94560, Note_on_c, 3, 62, 100
5, 94560, Note_on_c, 3, 65, 100
5, 94560, Note_on_c, 3, 71, 100
5, 94776, Note_on_c, 3, 62, 0
5, 94776, Note_on_c, 3, 65, 0
5, 94776, Note_on_c, 3, 71, 0
5, 95280, Note_on_c, 3, 71, 100
5, 95496, Note_on_c, 3, 71, 0
5, 95520, Note_on_c, 3, 72, 100
5, 95736, Note_on_c, 3, 72, 0
5, 95760, Note_on_c, 3, 64, 100
5, 95976, Note_on_c, 3, 64, 0
5, 96240, Note_on_c, 3, 62, 100
5, 96456, Note_on_c, 3, 62, 0
5, 96720, Note_on_c, 3, 64, 100
5, 96936, Note_on_c, 3, 64, 0
5, 97200, Note_on_c, 3, 66, 100
5, 97416, Note_on_c, 3, 66, 0
5, 97680, Note_on_c, 3, 57, 100
5, 97896, Note_on_c, 3, 57, 0
5, 98160, Note_on_c, 3, 63, 100
5, 98376, Note_on_c, 3, 63, 0
5, 98640, Note_on_c, 3, 71, 100
5, 98856, Note_on_c, 3, 71, 0
5, 98880, Note_on_c, 3, 71, 100
5, 99096, Note_on_c, 3, 71, 0
5, 102720, Note_on_c, 3, 69, 100
5, 102828, Note_on_c, 3, 69, 0
5, 102960, Note_on_c, 3, 77, 100
5, 103068, Note_on_c, 3, 77, 0
5, 103200, Note_on_c, 3, 76, 100
5, 103308, Note_on_c, 3, 76, 0
5, 103440, Note_on_c, 3, 74, 100
5, 103548, Note_on_c, 3, 74, 0
5, 103680, Note_on_c, 3, 72, 100
5, 103788, Note_on_c, 3, 72, 0
5, 103920, Note_on_c, 3, 74, 100
5, 104352, Note_on_c, 3, 74, 0
5, 104400, Note_on_c, 3, 67, 100
5, 104616, Note_on_c, 3, 67, 0
5, 104640, Note_on_c, 3, 69, 100
5, 104856, Note_on_c, 3, 69, 0
5, 104880, Note_on_c, 3, 71, 100
5, 105096, Note_on_c, 3, 71, 0
5, 105120, Note_on_c, 3, 62, 100
5, 105552, Note_on_c, 3, 62, 0
5, 105600, Note_on_c, 3, 60, 100
5, 106032, Note_on_c, 3, 60, 0
5, 106080, Note_on_c, 3, 64, 100
5, 106512, Note_on_c, 3, 64, 0
5, 106560, Note_on_c, 3, 65, 100
5, 106992, Note_on_c, 3, 65, 0
5, 107040, Note_on_c, 3, 69, 100
5, 107472, Note_on_c, 3, 69, 0
5, 107520, Note_on_c, 3, 67, 100
5, 107952, Note_on_c, 3, 67, 0
5, 108000, Note_on_c, 3, 62, 100
5, 108432, Note_on_c, 3, 62, 0
5, 108480, Note_on_c, 3, 69, 100
5, 108696, Note_on_c, 3, 69, 0
5, 110400, Note_on_c, 3, 72, 100
5, 110508, Note_on_c, 3, 72, 0
5, 110880, Note_on_c, 3, 72, 100
5, 110988, Note_on_c, 3, 72, 0
5, 111360, Note_on_c, 3, 65, 100
5, 111468, Note_on_c, 3, 65, 0
5, 111840, Note_on_c, 3, 63, 100
5, 111948, Note_on_c, 3, 63, 0
5, 112320, Note_on_c, 3, 62, 100
5, 112428, Note_on_c, 3, 62, 0
5, 113280, Note_on_c, 3, 62, 100
5, 113496, Note_on_c, 3, 62, 0
5, 113520, Note_on_c, 3, 69, 100
5, 113736, Note_on_c, 3, 69, 0
5, 113760, Note_on_c, 3, 67, 100
5, 113976, Note_on_c, 3, 67, 0
5, 114000, Note_on_c, 3, 65, 100
5, 114216, Note_on_c, 3, 65, 0
5, 114240, Note_on_c, 3, 64, 100
5, 114456, Note_on_c, 3, 64, 0
5, 114480, Note_on_c, 3, 72, 100
5, 114912, Note_on_c, 3, 72, 0
5, 114960, Note_on_c, 3, 71, 100
5, 115176, Note_on_c, 3, 71, 0
5, 115200, Note_on_c, 3, 72, 100
5, 115632, Note_on_c, 3, 72, 0
5, 115680, Note_on_c, 3, 74, 100
5, 115896, Note_on_c, 3, 74, 0
5, 115920, Note_on_c, 3, 67, 100
5, 116136, Note_on_c, 3, 67, 0
5, 116160, Note_on_c, 3, 69, 100
5, 116376, Note_on_c, 3, 69, 0
5, 116400, Note_on_c, 3, 62, 100
5, 116616, Note_on_c, 3, 62, 0
5, 116640, Note_on_c, 3, 67, 100
5, 117336, Note_on_c, 3, 67, 0
5, 117360, Note_on_c, 3, 76, 100
5, 117576, Note_on_c, 3, 76, 0
5, 117600, Note_on_c, 3, 74, 100
5, 117816, Note_on_c, 3, 74, 0
5, 117840, Note_on_c, 3, 69, 100
5, 118056, Note_on_c, 3, 69, 0
5, 118080, Note_on_c, 3, 71, 100
5, 118296, Note_on_c, 3, 71, 0
5, 119280, Note_on_c, 3, 72, 100
5, 119712, Note_on_c, 3, 72, 0
5, 119760, Note_on_c, 3, 71, 100
5, 120216, Note_on_c, 3, 71, 0
5, 120240, Note_on_c, 3, 69, 100
5, 120348, Note_on_c, 3, 69, 0
5, 120360, Note_on_c, 3, 67, 100
5, 120468, Note_on_c, 3, 67, 0
5, 120480, Note_on_c, 3, 69, 100
5, 120912, Note_on_c, 3, 69, 0
5, 120960, Note_on_c, 3, 67, 100
5, 121176, Note_on_c, 3, 67, 0
5, 122160, Note_on_c, 3, 70, 100
5, 122376, Note_on_c, 3, 70, 0
5, 122400, Note_on_c, 3, 69, 100
5, 122616, Note_on_c, 3, 69, 0
5, 122640, Note_on_c, 3, 67, 100
5, 122856, Note_on_c, 3, 67, 0
5, 122880, Note_on_c, 3, 65, 100
5, 123096, Note_on_c, 3, 65, 0
5, 123120, Note_on_c, 3, 64, 100
5, 123336, Note_on_c, 3, 64, 0
5, 123360, Note_on_c, 3, 62, 100
5, 123468, Note_on_c, 3, 62, 0
5, 123480, Note_on_c, 3, 60, 100
5, 123588, Note_on_c, 3, 60, 0
5, 123600, Note_on_c, 3, 62, 100
5, 123816, Note_on_c, 3, 62, 0
5, 123840, Note_on_c, 3, 60, 100
5, 124272, Note_on_c, 3, 60, 0
5, 124320, Note_on_c, 3, 67, 100
5, 124752, Note_on_c, 3, 67, 0
5, 124800, Note_on_c, 3, 69, 100
5, 125016, Note_on_c, 3, 69, 0
5, 125040, Note_on_c, 3, 74, 100
5, 125472, Note_on_c, 3, 74, 0
5, 125520, Note_on_c, 3, 67, 100
5, 125976, Note_on_c, 3, 67, 0
5, 126000, Note_on_c, 3, 74, 100
5, 126216, Note_on_c, 3, 74, 0
5, 126240, Note_on_c, 3, 72, 100
5, 126456, Note_on_c, 3, 72, 0
5, 126480, Note_on_c, 3, 70, 100
5, 126696, Note_on_c, 3, 70, 0
5, 126720, Note_on_c, 3, 69, 100
5, 126936, Note_on_c, 3, 69, 0
5, 126960, Note_on_c, 3, 61, 100
5, 127176, Note_on_c, 3, 61, 0
5, 127200, Note_on_c, 3, 62, 100
5, 127416, Note_on_c, 3, 62, 0
5, 127440, Note_on_c, 3, 64, 100
5, 127656, Note_on_c, 3, 64, 0
5, 127680, Note_on_c, 3, 65, 100
5, 127896, Note_on_c, 3, 65, 0
5, 127920, Note_on_c, 3, 76, 100
5, 128136, Note_on_c, 3, 76, 0
5, 128160, Note_on_c, 3, 74, 100
5, 128376, Note_on_c, 3, 74, 0
5, 128400, Note_on_c, 3, 72, 100
5, 128616, Note_on_c, 3, 72, 0
5, 128640, Note_on_c, 3, 71, 100
5, 128856, Note_on_c, 3, 71, 0
5, 128880, Note_on_c, 3, 63, 100
5, 129096, Note_on_c, 3, 63, 0
5, 129120, Note_on_c, 3, 64, 100
5, 129336, Note_on_c, 3, 64, 0
5, 129360, Note_on_c, 3, 66, 100
5, 129576, Note_on_c, 3, 66, 0
5, 129600, Note_on_c, 3, 67, 100
5, 129816, Note_on_c, 3, 67, 0
5, 129840, Note_on_c, 3, 66, 100
5, 130056, Note_on_c, 3, 66, 0
5, 130080, Note_on_c, 3, 67, 100
5, 130296, Note_on_c, 3, 67, 0
5, 130320, Note_on_c, 3, 63, 100
5, 130536, Note_on_c, 3, 63, 0
5, 130560, Note_on_c, 3, 64, 100
5, 131208, Note_on_c, 3, 64, 0
5, 131280, Note_on_c, 3, 66, 100
5, 131496, Note_on_c, 3, 66, 0
5, 131520, Note_on_c, 3, 67, 100
5, 131736, Note_on_c, 3, 67, 0
5, 131760, Note_on_c, 3, 64, 100
5, 131976, Note_on_c, 3, 64, 0
5, 132000, Note_on_c, 3, 69, 100
5, 132216, Note_on_c, 3, 69, 0
5, 132240, Note_on_c, 3, 62, 100
5, 132456, Note_on_c, 3, 62, 0
5, 132480, Note_on_c, 3, 67, 100
5, 132696, Note_on_c, 3, 67, 0
5, 132720, Note_on_c, 3, 60, 100
5, 132936, Note_on_c, 3, 60, 0
5, 132960, Note_on_c, 3, 66, 100
5, 133176, Note_on_c, 3, 66, 0
5, 133200, Note_on_c, 3, 59, 100
5, 133416, Note_on_c, 3, 59, 0
5, 133440, Note_on_c, 3, 71, 100
5, 133872, Note_on_c, 3, 71, 0
5, 134160, Note_on_c, 3, 71, 100
5, 134376, Note_on_c, 3, 71, 0
5, 134400, Note_on_c, 3, 72, 100
5, 134616, Note_on_c, 3, 72, 0
5, 134640, Note_on_c, 3, 67, 100
5, 134748, Note_on_c, 3, 67, 0
5, 134760, Note_on_c, 3, 65, 100
5, 134868, Note_on_c, 3, 65, 0
5, 134880, Note_on_c, 3, 64, 100
5, 135096, Note_on_c, 3, 64, 0
5, 135120, Note_on_c, 3, 72, 100
5, 135336, Note_on_c, 3, 72, 0
5, 135360, Note_on_c, 3, 60, 100
5, 135576, Note_on_c, 3, 60, 0
5, 135600, Note_on_c, 3, 62, 100
5, 136032, Note_on_c, 3, 62, 0
5, 136080, Note_on_c, 3, 67, 100
5, 136296, Note_on_c, 3, 67, 0
5, 136320, Note_on_c, 3, 64, 100
5, 136536, Note_on_c, 3, 64, 0
5, 136560, Note_on_c, 3, 60, 100
5, 136776, Note_on_c, 3, 60, 0
5, 136800, Note_on_c, 3, 67, 100
5, 137016, Note_on_c, 3, 67, 0
5, 137040, Note_on_c, 3, 65, 100
5, 137256, Note_on_c, 3, 65, 0
5, 137280, Note_on_c, 3, 64, 100
5, 137496, Note_on_c, 3, 64, 0
5, 140160, Note_on_c, 3, 57, 100
5, 140376, Note_on_c, 3, 57, 0
5, 140400, Note_on_c, 3, 65, 100
5, 140616, Note_on_c, 3, 65, 0
5, 140640, Note_on_c, 3, 64, 100
5, 140856, Note_on_c, 3, 64, 0
5, 140880, Note_on_c, 3, 62, 100
5, 141096, Note_on_c, 3, 62, 0
5, 141120, Note_on_c, 3, 60, 100
5, 141336, Note_on_c, 3, 60, 0
5, 141360, Note_on_c, 3, 62, 100
5, 141576, Note_on_c, 3, 62, 0
5, 141600, Note_on_c, 3, 60, 100
5, 141816, Note_on_c, 3, 60, 0
5, 141840, Note_on_c, 3, 58, 100
5, 142056, Note_on_c, 3, 58, 0
5, 142080, Note_on_c, 3, 57, 100
5, 142296, Note_on_c, 3, 57, 0
5, 144240, Note_on_c, 3, 64, 100
5, 144456, Note_on_c, 3, 64, 0
5, 144480, Note_on_c, 3, 65, 100
5, 144696, Note_on_c, 3, 65, 0
5, 144720, Note_on_c, 3, 67, 100
5, 144936, Note_on_c, 3, 67, 0
5, 144960, Note_on_c, 3, 69, 100
5, 145176, Note_on_c, 3, 69, 0
5, 145200, Note_on_c, 3, 62, 100
5, 145416, Note_on_c, 3, 62, 0
5, 145440, Note_on_c, 3, 64, 100
5, 145656, Note_on_c, 3, 64, 0
5, 145680, Note_on_c, 3, 65, 100
5, 146136, Note_on_c, 3, 65, 0
5, 146160, Note_on_c, 3, 58, 100
5, 146376, Note_on_c, 3, 58, 0
5, 146400, Note_on_c, 3, 64, 100
5, 146832, Note_on_c, 3, 64, 0
5, 146880, Note_on_c, 3, 65, 100
5, 147096, Note_on_c, 3, 65, 0
5, 147120, Note_on_c, 3, 69, 100
5, 147552, Note_on_c, 3, 69, 0
5, 147600, Note_on_c, 3, 62, 100
5, 148056, Note_on_c, 3, 62, 0
5, 148080, Note_on_c, 3, 60, 100
5, 148296, Note_on_c, 3, 60, 0
5, 148320, Note_on_c, 3, 63, 100
5, 148536, Note_on_c, 3, 63, 0
5, 148560, Note_on_c, 3, 57, 100
5, 148776, Note_on_c, 3, 57, 0
5, 148800, Note_on_c, 3, 58, 100
5, 149016, Note_on_c, 3, 58, 0
5, 150240, Note_on_c, 3, 62, 100
5, 150456, Note_on_c, 3, 62, 0
5, 150480, Note_on_c, 3, 69, 100
5, 150696, Note_on_c, 3, 69, 0
5, 150720, Note_on_c, 3, 67, 100
5, 150936, Note_on_c, 3, 67, 0
5, 150960, Note_on_c, 3, 62, 100
5, 151176, Note_on_c, 3, 62, 0
5, 151200, Note_on_c, 3, 69, 100
5, 151416, Note_on_c, 3, 69, 0
5, 151440, Note_on_c, 3, 61, 100
5, 151656, Note_on_c, 3, 61, 0
5, 151680, Note_on_c, 3, 62, 100
5, 151896, Note_on_c, 3, 62, 0
5, 160320, Note_on_c, 3, 74, 100
5, 160428, Note_on_c, 3, 74, 0
5, 160800, Note_on_c, 3, 72, 100
5, 160908, Note_on_c, 3, 72, 0
5, 161040, Note_on_c, 3, 60, 100
5, 161112, Note_on_c, 3, 60, 0
5, 161120, Note_on_c, 3, 58, 100
5, 161192, Note_on_c, 3, 58, 0
5, 161200, Note_on_c, 3, 56, 100
5, 161272, Note_on_c, 3, 56, 0
5, 161280, Note_on_c, 3, 64, 100
5, 161388, Note_on_c, 3, 64, 0
5, 161760, Note_on_c, 3, 68, 100
5, 161868, Note_on_c, 3, 68, 0
5, 162240, Note_on_c, 3, 67, 100
5, 162348, Note_on_c, 3, 67, 0
5, 162480, Note_on_c, 3, 55, 100
5, 162588, Note_on_c, 3, 55, 0
5, 162720, Note_on_c, 3, 58, 100
5, 162828, Note_on_c, 3, 58, 0
5, 162960, Note_on_c, 3, 64, 100
5, 163068, Note_on_c, 3, 64, 0
5, 163200, Note_on_c, 3, 67, 100
5, 164064, Note_on_c, 3, 67, 0
5, 164160, Note_on_c, 3, 65, 100
5, 164268, Note_on_c, 3, 65, 0
5, 164880, Note_on_c, 3, 67, 100
5, 164988, Note_on_c, 3, 67, 0
5, 165120, Note_on_c, 3, 65, 100
5, 165228, Note_on_c, 3, 65, 0
5, 165840, Note_on_c, 3, 64, 100
5, 165948, Note_on_c, 3, 64, 0
5, 166080, Note_on_c, 3, 62, 100
5, 166188, Note_on_c, 3, 62, 0
5, 166800, Note_on_c, 3, 61, 100
5, 166908, Note_on_c, 3, 61, 0
5, 167040, Note_on_c, 3, 62, 100
5, 167148, Note_on_c, 3, 62, 0
5, 167760, Note_on_c, 3, 64, 100
5, 167868, Note_on_c, 3, 64, 0
5, 168000, Note_on_c, 3, 62, 100
5, 168108, Note_on_c, 3, 62, 0
5, 168720, Note_on_c, 3, 67, 100
5, 168828, Note_on_c, 3, 67, 0
5, 168960, Note_on_c, 3, 65, 100
5, 169068, Note_on_c, 3, 65, 0
5, 169680, Note_on_c, 3, 76, 100
5, 169788, Note_on_c, 3, 76, 0
5, 170160, Note_on_c, 3, 77, 100
5, 170268, Note_on_c, 3, 77, 0
5, 170640, Note_on_c, 3, 76, 100
5, 170748, Note_on_c, 3, 76, 0
5, 171120, Note_on_c, 3, 68, 100
5, 171228, Note_on_c, 3, 68, 0
5, 171600, Note_on_c, 3, 76, 100
5, 171708, Note_on_c, 3, 76, 0
5, 172080, Note_on_c, 3, 77, 100
5, 172512, Note_on_c, 3, 77, 0
5, 172560, Note_on_c, 3, 76, 100
5, 173016, Note_on_c, 3, 76, 0
5, 173040, Note_on_c, 3, 74, 100
5, 173472, Note_on_c, 3, 74, 0
5, 173760, Note_on_c, 3, 74, 100
5, 173976, Note_on_c, 3, 74, 0
5, 174480, Note_on_c, 3, 71, 100
5, 174696, Note_on_c, 3, 71, 0
5, 174720, Note_on_c, 3, 69, 100
5, 174936, Note_on_c, 3, 69, 0
5, 179760, Note_on_c, 3, 74, 100
5, 179868, Note_on_c, 3, 74, 0
5, 180240, Note_on_c, 3, 74, 100
5, 180348, Note_on_c, 3, 74, 0
5, 180720, Note_on_c, 3, 62, 100
5, 180828, Note_on_c, 3, 62, 0
5, 181200, Note_on_c, 3, 62, 100
5, 181308, Note_on_c, 3, 62, 0
5, 181680, Note_on_c, 3, 74, 100
5, 181788, Note_on_c, 3, 74, 0
5, 182160, Note_on_c, 3, 74, 100
5, 182268, Note_on_c, 3, 74, 0
5, 182640, Note_on_c, 3, 62, 100
5, 182748, Note_on_c, 3, 62, 0
5, 183120, Note_on_c, 3, 62, 100
5, 183228, Note_on_c, 3, 62, 0
5, 183600, Note_on_c, 3, 74, 100
5, 183708, Note_on_c, 3, 74, 0
5, 183840, Note_on_c, 3, 72, 100
5, 183948, Note_on_c, 3, 72, 0
5, 184080, Note_on_c, 3, 71, 100
5, 184188, Note_on_c, 3, 71, 0
5, 184320, Note_on_c, 3, 69, 100
5, 184428, Note_on_c, 3, 69, 0
5, 185040, Note_on_c, 3, 64, 100
5, 185148, Note_on_c, 3, 64, 0
5, 185280, Note_on_c, 3, 62, 100
5, 185388, Note_on_c, 3, 62, 0
5, 186720, Note_on_c, 3, 64, 100
5, 186720, Note_on_c, 3, 71, 100
5, 186720, Note_on_c, 3, 76, 100
5, 186828, Note_on_c, 3, 64, 0
5, 186828, Note_on_c, 3, 71, 0
5, 186828, Note_on_c, 3, 76, 0
5, 187200, Note_on_c, 3, 69, 100
5, 187200, Note_on_c, 3, 72, 100
5, 187200, Note_on_c, 3, 76, 100
5, 187308, Note_on_c, 3, 69, 0
5, 187308, Note_on_c, 3, 72, 0
5, 187308, Note_on_c, 3, 76, 0
5, 187680, Note_on_c, 3, 67, 100
5, 187680, Note_on_c, 3, 70, 100
5, 187680, Note_on_c, 3, 76, 100
5, 187788, Note_on_c, 3, 67, 0
5, 187788, Note_on_c, 3, 70, 0
5, 187788, Note_on_c, 3, 76, 0
5, 188160, Note_on_c, 3, 57, 100
5, 188160, Note_on_c, 3, 65, 100
5, 188160, Note_on_c, 3, 74, 100
5, 188268, Note_on_c, 3, 57, 0
5, 188268, Note_on_c, 3, 65, 0
5, 188268, Note_on_c, 3, 74, 0
5, 188640, Note_on_c, 3, 57, 100
5, 188640, Note_on_c, 3, 66, 100
5, 188640, Note_on_c, 3, 72, 100
5, 188748, Note_on_c, 3, 57, 0
5, 188748, Note_on_c, 3, 66, 0
5, 188748, Note_on_c, 3, 72, 0
5, 189120, Note_on_c, 3, 59, 100
5, 189120, Note_on_c, 3, 68, 100
5, 189120, Note_on_c, 3, 71, 100
5, 189228, Note_on_c, 3, 59, 0
5, 189228, Note_on_c, 3, 68, 0
5, 189228, Note_on_c, 3, 71, 0
5, 190320, Note_on_c, 3, 59, 100
5, 190536, Note_on_c, 3, 59, 0
5, 190560, Note_on_c, 3, 60, 100
5, 190776, Note_on_c, 3, 60, 0
5, 190800, Note_on_c, 3, 62, 100
5, 191016, Note_on_c, 3, 62, 0
5, 191040, Note_on_c, 3, 64, 100
5, 191256, Note_on_c, 3, 64, 0
5, 191280, Note_on_c, 3, 68, 100
5, 191496, Note_on_c, 3, 68, 0
5, 191520, Note_on_c, 3, 69, 100
5, 191736, Note_on_c, 3, 69, 0
5, 191760, Note_on_c, 3, 71, 100
5, 191976, Note_on_c, 3, 71, 0
5, 192000, Note_on_c, 3, 72, 100
5, 192216, Note_on_c, 3, 72, 0
5, 192240, Note_on_c, 3, 74, 100
5, 192456, Note_on_c, 3, 74, 0
5, 192480, Note_on_c, 3, 72, 100
5, 192696, Note_on_c, 3, 72, 0
5, 192720, Note_on_c, 3, 71, 100
5, 192936, Note_on_c, 3, 71, 0
5, 192960, Note_on_c, 3, 69, 100
5, 193176, Note_on_c, 3, 69, 0
5, 193200, Note_on_c, 3, 56, 100
5, 193416, Note_on_c, 3, 56, 0
5, 193440, Note_on_c, 3, 57, 100
5, 193656, Note_on_c, 3, 57, 0
5, 193920, Note_on_c, 3, 57, 100
5, 194136, Note_on_c, 3, 57, 0
5, 194160, Note_on_c, 3, 65, 100
5, 194376, Note_on_c, 3, 65, 0
5, 194400, Note_on_c, 3, 64, 100
5, 194616, Note_on_c, 3, 64, 0
5, 194640, Note_on_c, 3, 62, 100
5, 194856, Note_on_c, 3, 62, 0
5, 194880, Note_on_c, 3, 60, 100
5, 195096, Note_on_c, 3, 60, 0
5, 195120, Note_on_c, 3, 62, 100
5, 195336, Note_on_c, 3, 62, 0
5, 195360, Note_on_c, 3, 64, 100
5, 195576, Note_on_c, 3, 64, 0
5, 195600, Note_on_c, 3, 65, 100
5, 195816, Note_on_c, 3, 65, 0
5, 195840, Note_on_c, 3, 64, 100
5, 196056, Note_on_c, 3, 64, 0
5, 196080, Note_on_c, 3, 62, 100
5, 196296, Note_on_c, 3, 62, 0
5, 196320, Note_on_c, 3, 64, 100
5, 196536, Note_on_c, 3, 64, 0
5, 196560, Note_on_c, 3, 68, 100
5, 196776, Note_on_c, 3, 68, 0
5, 196800, Note_on_c, 3, 64, 100
5, 197016, Note_on_c, 3, 64, 0
5, 198000, Note_on_c, 3, 65, 100
5, 198216, Note_on_c, 3, 65, 0
5, 198240, Note_on_c, 3, 74, 100
5, 198456, Note_on_c, 3, 74, 0
5, 198480, Note_on_c, 3, 64, 100
5, 198696, Note_on_c, 3, 64, 0
5, 198720, Note_on_c, 3, 72, 100
5, 198936, Note_on_c, 3, 72, 0
5, 198960, Note_on_c, 3, 62, 100
5, 199176, Note_on_c, 3, 62, 0
5, 199200, Note_on_c, 3, 71, 100
5, 199416, Note_on_c, 3, 71, 0
5, 212403, Note_on_c, 3, 74, 100
5, 212835, Note_on_c, 3, 74, 0
5, 212883, Note_on_c, 3, 72, 100
5, 213339, Note_on_c, 3, 72, 0
5, 213363, Note_on_c, 3, 71, 100
5, 213471, Note_on_c, 3, 71, 0
5, 213483, Note_on_c, 3, 69, 100
5, 213591, Note_on_c, 3, 69, 0
5, 213603, Note_on_c, 3, 71, 100
5, 214299, Note_on_c, 3, 71, 0
5, 214323, Note_on_c, 3, 69, 100
5, 214431, Note_on_c, 3, 69, 0
5, 214443, Note_on_c, 3, 67, 100
5, 214551, Note_on_c, 3, 67, 0
5, 214563, Note_on_c, 3, 66, 100
5, 214671, Note_on_c, 3, 66, 0
5, 214683, Note_on_c, 3, 72, 100
5, 214791, Note_on_c, 3, 72, 0
5, 214803, Note_on_c, 3, 71, 100
5, 214911, Note_on_c, 3, 71, 0
5, 214923, Note_on_c, 3, 69, 100
5, 215031, Note_on_c, 3, 69, 0
5, 215043, Note_on_c, 3, 67, 100
5, 215259, Note_on_c, 3, 67, 0
5, 215283, Note_on_c, 3, 66, 100
5, 215391, Note_on_c, 3, 66, 0
5, 215403, Note_on_c, 3, 64, 100
5, 215511, Note_on_c, 3, 64, 0
5, 215523, Note_on_c, 3, 66, 100
5, 215955, Note_on_c, 3, 66, 0
5, 216003, Note_on_c, 3, 64, 100
5, 216219, Note_on_c, 3, 64, 0
5, 216243, Note_on_c, 3, 72, 100
5, 216675, Note_on_c, 3, 72, 0
5, 216723, Note_on_c, 3, 71, 100
5, 217179, Note_on_c, 3, 71, 0
5, 217203, Note_on_c, 3, 69, 100
5, 217635, Note_on_c, 3, 69, 0
5, 217683, Note_on_c, 3, 67, 100
5, 217791, Note_on_c, 3, 67, 0
5, 217803, Note_on_c, 3, 66, 100
5, 217911, Note_on_c, 3, 66, 0
5, 217923, Note_on_c, 3, 67, 100
5, 218139, Note_on_c, 3, 67, 0
5, 218643, Note_on_c, 3, 64, 100
5, 219099, Note_on_c, 3, 64, 0
5, 219123, Note_on_c, 3, 67, 100
5, 219339, Note_on_c, 3, 67, 0
5, 219363, Note_on_c, 3, 65, 100
5, 219579, Note_on_c, 3, 65, 0
5, 219603, Note_on_c, 3, 64, 100
5, 219819, Note_on_c, 3, 64, 0
5, 219843, Note_on_c, 3, 62, 100
5, 220059, Note_on_c, 3, 62, 0
5, 220083, Note_on_c, 3, 60, 100
5, 220299, Note_on_c, 3, 60, 0
5, 220323, Note_on_c, 3, 59, 100
5, 220431, Note_on_c, 3, 59, 0
5, 220443, Note_on_c, 3, 57, 100
5, 220551, Note_on_c, 3, 57, 0
5, 220563, Note_on_c, 3, 59, 100
5, 220779, Note_on_c, 3, 59, 0
5, 220803, Note_on_c, 3, 57, 100
5, 221235, Note_on_c, 3, 57, 0
5, 221283, Note_on_c, 3, 59, 100
5, 221499, Note_on_c, 3, 59, 0
5, 221523, Note_on_c, 3, 60, 100
5, 221979, Note_on_c, 3, 60, 0
5, 222003, Note_on_c, 3, 62, 100
5, 222111, Note_on_c, 3, 62, 0
5, 222123, Note_on_c, 3, 60, 100
5, 222231, Note_on_c, 3, 60, 0
5, 222243, Note_on_c, 3, 59, 100
5, 222675, Note_on_c, 3, 59, 0
5, 222723, Note_on_c, 3, 57, 100
5, 222831, Note_on_c, 3, 57, 0
5, 222843, Note_on_c, 3, 59, 100
5, 222951, Note_on_c, 3, 59, 0
5, 222963, Note_on_c, 3, 60, 100
5, 223071, Note_on_c, 3, 60, 0
5, 223083, Note_on_c, 3, 57, 100
5, 223191, Note_on_c, 3, 57, 0
5, 223203, Note_on_c, 3, 64, 100
5, 223635, Note_on_c, 3, 64, 0
5, 223683, Note_on_c, 3, 62, 100
5, 223899, Note_on_c, 3, 62, 0
5, 223923, Note_on_c, 3, 72, 100
5, 224139, Note_on_c, 3, 72, 0
5, 224163, Note_on_c, 3, 71, 100
5, 224379, Note_on_c, 3, 71, 0
5, 224403, Note_on_c, 3, 69, 100
5, 224619, Note_on_c, 3, 69, 0
5, 224643, Note_on_c, 3, 67, 100
5, 224859, Note_on_c, 3, 67, 0
5, 224883, Note_on_c, 3, 59, 100
5, 225099, Note_on_c, 3, 59, 0
5, 225123, Note_on_c, 3, 60, 100
5, 225339, Note_on_c, 3, 60, 0
5, 225363, Note_on_c, 3, 62, 100
5, 225579, Note_on_c, 3, 62, 0
5, 225603, Note_on_c, 3, 64, 100
5, 225819, Note_on_c, 3, 64, 0
5, 225843, Note_on_c, 3, 66, 100
5, 225951, Note_on_c, 3, 66, 0
5, 225963, Note_on_c, 3, 67, 100
5, 226071, Note_on_c, 3, 67, 0
5, 226083, Note_on_c, 3, 66, 100
5, 226191, Note_on_c, 3, 66, 0
5, 226203, Note_on_c, 3, 64, 100
5, 226311, Note_on_c, 3, 64, 0
5, 226323, Note_on_c, 3, 66, 100
5, 226539, Note_on_c, 3, 66, 0
5, 226563, Note_on_c, 3, 64, 100
5, 227427, Note_on_c, 3, 64, 0
5, 227523, Note_on_c, 3, 65, 100
5, 227955, Note_on_c, 3, 65, 0
5, 228003, Note_on_c, 3, 59, 100
5, 228435, Note_on_c, 3, 59, 0
5, 228483, Note_on_c, 3, 57, 100
5, 228699, Note_on_c, 3, 57, 0
5, 228723, Note_on_c, 3, 74, 100
5, 229155, Note_on_c, 3, 74, 0
5, 229203, Note_on_c, 3, 72, 100
5, 229659, Note_on_c, 3, 72, 0
5, 229683, Note_on_c, 3, 71, 100
5, 229791, Note_on_c, 3, 71, 0
5, 229803, Note_on_c, 3, 69, 100
5, 229911, Note_on_c, 3, 69, 0
5, 229923, Note_on_c, 3, 71, 100
5, 230139, Note_on_c, 3, 71, 0
5, 230163, Note_on_c, 3, 76, 100
5, 230379, Note_on_c, 3, 76, 0
5, 230403, Note_on_c, 3, 76, 100
5, 230619, Note_on_c, 3, 76, 0
5, 230643, Note_on_c, 3, 73, 100
5, 230859, Note_on_c, 3, 73, 0
5, 230883, Note_on_c, 3, 74, 100
5, 231099, Note_on_c, 3, 74, 0
5, 231123, Note_on_c, 3, 76, 100
5, 231339, Note_on_c, 3, 76, 0
5, 231363, Note_on_c, 3, 69, 100
5, 231795, Note_on_c, 3, 69, 0
5, 231843, Note_on_c, 3, 68, 100
5, 232059, Note_on_c, 3, 68, 0
5, 232083, Note_on_c, 3, 69, 100
5, 232299, Note_on_c, 3, 69, 0
5, 232323, Note_on_c, 3, 71, 100
5, 232647, Note_on_c, 3, 71, 0
5, 232683, Note_on_c, 3, 69, 100
5, 232791, Note_on_c, 3, 69, 0
5, 232803, Note_on_c, 3, 68, 100
5, 232911, Note_on_c, 3, 68, 0
5, 232923, Note_on_c, 3, 66, 100
5, 233031, Note_on_c, 3, 66, 0
5, 233043, Note_on_c, 3, 68, 100
5, 233259, Note_on_c, 3, 68, 0
5, 233283, Note_on_c, 3, 76, 100
5, 233715, Note_on_c, 3, 76, 0
5, 233763, Note_on_c, 3, 71, 100
5, 234195, Note_on_c, 3, 71, 0
5, 234243, Note_on_c, 3, 69, 100
5, 234675, Note_on_c, 3, 69, 0
5, 234675, End_track
6, 0, Start_track
6, 0, Sequence_number, 65535
6, 0, MIDI_port, 0
6, 0, Title_t, "Viola"
6, 0, Control_c, 4, 0, 0
6, 0, Control_c, 4, 32, 0
6, 0, Program_c, 4, 48
6, 0, Control_c, 4, 7, 80
6, 0, Control_c, 4, 10, 34
6, 0, Note_on_c, 4, 57, 100
6, 216, Note_on_c, 4, 57, 0
6, 240, Note_on_c, 4, 65, 100
6, 456, Note_on_c, 4, 65, 0
6, 480, Note_on_c, 4, 64, 100
6, 696, Note_on_c, 4, 64, 0
6, 720, Note_on_c, 4, 62, 100
6, 936, Note_on_c, 4, 62, 0
6, 960, Note_on_c, 4, 60, 100
6, 1392, Note_on_c, 4, 60, 0
6, 1440, Note_on_c, 4, 59, 100
6, 1872, Note_on_c, 4, 59, 0
6, 1920, Note_on_c, 4, 57, 100
6, 2352, Note_on_c, 4, 57, 0
6, 2400, Note_on_c, 4, 56, 100
6, 2832, Note_on_c, 4, 56, 0
6, 2880, Note_on_c, 4, 57, 100
6, 3312, Note_on_c, 4, 57, 0
6, 3360, Note_on_c, 4, 59, 100
6, 3792, Note_on_c, 4, 59, 0
6, 3840, Note_on_c, 4, 52, 100
6, 4272, Note_on_c, 4, 52, 0
6, 4320, Note_on_c, 4, 51, 100
6, 4752, Note_on_c, 4, 51, 0
6, 4800, Note_on_c, 4, 52, 100
6, 5016, Note_on_c, 4, 52, 0
6, 5040, Note_on_c, 4, 64, 100
6, 5256, Note_on_c, 4, 64, 0
6, 5280, Note_on_c, 4, 66, 100
6, 5496, Note_on_c, 4, 66, 0
6, 5520, Note_on_c, 4, 62, 100
6, 5736, Note_on_c, 4, 62, 0
6, 5760, Note_on_c, 4, 64, 100
6, 5976, Note_on_c, 4, 64, 0
6, 6000, Note_on_c, 4, 60, 100
6, 6216, Note_on_c, 4, 60, 0
6, 6240, Note_on_c, 4, 59, 100
6, 6936, Note_on_c, 4, 59, 0
6, 6960, Note_on_c, 4, 55, 100
6, 7176, Note_on_c, 4, 55, 0
6, 7200, Note_on_c, 4, 57, 100
6, 7416, Note_on_c, 4, 57, 0
6, 7440, Note_on_c, 4, 59, 100
6, 7656, Note_on_c, 4, 59, 0
6, 7680, Note_on_c, 4, 60, 100
6, 7896, Note_on_c, 4, 60, 0
6, 7920, Note_on_c, 4, 64, 100
6, 8136, Note_on_c, 4, 64, 0
6, 8160, Note_on_c, 4, 69, 100
6, 8748, Note_on_c, 4, 69, 0
6, 8760, Note_on_c, 4, 68, 100
6, 8868, Note_on_c, 4, 68, 0
6, 8880, Note_on_c, 4, 69, 100
6, 9312, Note_on_c, 4, 69, 0
6, 9360, Note_on_c, 4, 68, 100
6, 9576, Note_on_c, 4, 68, 0
6, 9600, Note_on_c, 4, 69, 100
6, 9708, Note_on_c, 4, 69, 0
6, 9720, Note_on_c, 4, 67, 100
6, 9828, Note_on_c, 4, 67, 0
6, 9840, Note_on_c, 4, 65, 100
6, 10272, Note_on_c, 4, 65, 0
6, 10320, Note_on_c, 4, 64, 100
6, 10776, Note_on_c, 4, 64, 0
6, 10800, Note_on_c, 4, 62, 100
6, 11232, Note_on_c, 4, 62, 0
6, 11280, Note_on_c, 4, 60, 100
6, 11388, Note_on_c, 4, 60, 0
6, 11400, Note_on_c, 4, 59, 100
6, 11508, Note_on_c, 4, 59, 0
6, 11520, Note_on_c, 4, 60, 100
6, 11628, Note_on_c, 4, 60, 0
6, 11640, Note_on_c, 4, 62, 100
6, 11748, Note_on_c, 4, 62, 0
6, 11760, Note_on_c, 4, 64, 100
6, 12192, Note_on_c, 4, 64, 0
6, 12240, Note_on_c, 4, 57, 100
6, 12456, Note_on_c, 4, 57, 0
6, 12480, Note_on_c, 4, 62, 100
6, 12696, Note_on_c, 4, 62, 0
6, 12720, Note_on_c, 4, 64, 100
6, 12936, Note_on_c, 4, 64, 0
6, 12960, Note_on_c, 4, 62, 100
6, 13176, Note_on_c, 4, 62, 0
6, 13200, Note_on_c, 4, 60, 100
6, 13416, Note_on_c, 4, 60, 0
6, 13440, Note_on_c, 4, 59, 100
6, 13656, Note_on_c, 4, 59, 0
6, 13680, Note_on_c, 4, 55, 100
6, 13896, Note_on_c, 4, 55, 0
6, 13920, Note_on_c, 4, 57, 100
6, 14136, Note_on_c, 4, 57, 0
6, 14160, Note_on_c, 4, 59, 100
6, 14376, Note_on_c, 4, 59, 0
6, 14400, Note_on_c, 4, 60, 100
6, 14616, Note_on_c, 4, 60, 0
6, 14640, Note_on_c, 4, 57, 100
6, 14856, Note_on_c, 4, 57, 0
6, 14880, Note_on_c, 4, 59, 100
6, 15576, Note_on_c, 4, 59, 0
6, 15600, Note_on_c, 4, 62, 100
6, 15816, Note_on_c, 4, 62, 0
6, 15840, Note_on_c, 4, 60, 100
6, 16056, Note_on_c, 4, 60, 0
6, 16080, Note_on_c, 4, 59, 100
6, 16296, Note_on_c, 4, 59, 0
6, 16320, Note_on_c, 4, 57, 100
6, 16752, Note_on_c, 4, 57, 0
6, 16800, Note_on_c, 4, 64, 100
6, 17496, Note_on_c, 4, 64, 0
6, 17520, Note_on_c, 4, 62, 100
6, 17628, Note_on_c, 4, 62, 0
6, 17640, Note_on_c, 4, 60, 100
6, 17748, Note_on_c, 4, 60, 0
6, 17760, Note_on_c, 4, 62, 100
6, 17976, Note_on_c, 4, 62, 0
6, 18000, Note_on_c, 4, 67, 100
6, 18216, Note_on_c, 4, 67, 0
6, 18240, Note_on_c, 4, 69, 100
6, 18456, Note_on_c, 4, 69, 0
6, 18480, Note_on_c, 4, 65, 100
6, 18696, Note_on_c, 4, 65, 0
6, 18720, Note_on_c, 4, 62, 100
6, 18936, Note_on_c, 4, 62, 0
6, 18960, Note_on_c, 4, 59, 100
6, 19176, Note_on_c, 4, 59, 0
6, 19200, Note_on_c, 4, 64, 100
6, 19632, Note_on_c, 4, 64, 0
6, 19680, Note_on_c, 4, 62, 100
6, 19896, Note_on_c, 4, 62, 0
6, 19920, Note_on_c, 4, 57, 100
6, 20136, Note_on_c, 4, 57, 0
6, 20160, Note_on_c, 4, 62, 100
6, 20748, Note_on_c, 4, 62, 0
6, 20760, Note_on_c, 4, 64, 100
6, 20868, Note_on_c, 4, 64, 0
6, 20880, Note_on_c, 4, 65, 100
6, 21096, Note_on_c, 4, 65, 0
6, 21120, Note_on_c, 4, 59, 100
6, 21336, Note_on_c, 4, 59, 0
6, 21360, Note_on_c, 4, 64, 100
6, 21468, Note_on_c, 4, 64, 0
6, 21480, Note_on_c, 4, 65, 100
6, 21588, Note_on_c, 4, 65, 0
6, 21600, Note_on_c, 4, 64, 100
6, 21708, Note_on_c, 4, 64, 0
6, 21720, Note_on_c, 4, 62, 100
6, 21828, Note_on_c, 4, 62, 0
6, 21840, Note_on_c, 4, 60, 100
6, 21948, Note_on_c, 4, 60, 0
6, 21960, Note_on_c, 4, 59, 100
6, 22068, Note_on_c, 4, 59, 0
6, 22080, Note_on_c, 4, 60, 100
6, 22188, Note_on_c, 4, 60, 0
6, 22200, Note_on_c, 4, 62, 100
6, 22308, Note_on_c, 4, 62, 0
6, 22320, Note_on_c, 4, 64, 100
6, 22536, Note_on_c, 4, 64, 0
6, 22560, Note_on_c, 4, 52, 100
6, 22776, Note_on_c, 4, 52, 0
6, 22800, Note_on_c, 4, 62, 100
6, 23016, Note_on_c, 4, 62, 0
6, 23040, Note_on_c, 4, 60, 100
6, 23256, Note_on_c, 4, 60, 0
6, 34560, Note_on_c, 4, 67, 100
6, 34776, Note_on_c, 4, 67, 0
6, 34800, Note_on_c, 4, 64, 100
6, 35016, Note_on_c, 4, 64, 0
6, 35040, Note_on_c, 4, 71, 100
6, 35736, Note_on_c, 4, 71, 0
6, 35760, Note_on_c, 4, 69, 100
6, 36192, Note_on_c, 4, 69, 0
6, 36240, Note_on_c, 4, 67, 100
6, 36696, Note_on_c, 4, 67, 0
6, 36720, Note_on_c, 4, 66, 100
6, 36828, Note_on_c, 4, 66, 0
6, 36840, Note_on_c, 4, 64, 100
6, 36948, Note_on_c, 4, 64, 0
6, 36960, Note_on_c, 4, 66, 100
6, 37392, Note_on_c, 4, 66, 0
6, 37440, Note_on_c, 4, 59, 100
6, 37656, Note_on_c, 4, 59, 0
6, 39360, Note_on_c, 4, 65, 100
6, 39792, Note_on_c, 4, 65, 0
6, 39840, Note_on_c, 4, 64, 100
6, 40272, Note_on_c, 4, 64, 0
6, 40320, Note_on_c, 4, 62, 100
6, 40752, Note_on_c, 4, 62, 0
6, 40800, Note_on_c, 4, 69, 100
6, 41232, Note_on_c, 4, 69, 0
6, 41280, Note_on_c, 4, 62, 100
6, 41496, Note_on_c, 4, 62, 0
6, 41520, Note_on_c, 4, 70, 100
6, 41736, Note_on_c, 4, 70, 0
6, 41760, Note_on_c, 4, 69, 100
6, 42192, Note_on_c, 4, 69, 0
6, 42240, Note_on_c, 4, 69, 100
6, 42456, Note_on_c, 4, 69, 0
6, 47520, Note_on_c, 4, 55, 100
6, 47628, Note_on_c, 4, 55, 0
6, 47760, Note_on_c, 4, 64, 100
6, 47868, Note_on_c, 4, 64, 0
6, 48000, Note_on_c, 4, 62, 100
6, 48108, Note_on_c, 4, 62, 0
6, 48240, Note_on_c, 4, 60, 100
6, 48348, Note_on_c, 4, 60, 0
6, 48480, Note_on_c, 4, 59, 100
6, 48588, Note_on_c, 4, 59, 0
6, 48720, Note_on_c, 4, 57, 100
6, 48828, Note_on_c, 4, 57, 0
6, 48960, Note_on_c, 4, 59, 100
6, 49068, Note_on_c, 4, 59, 0
6, 49200, Note_on_c, 4, 54, 100
6, 49308, Note_on_c, 4, 54, 0
6, 49440, Note_on_c, 4, 55, 100
6, 49548, Note_on_c, 4, 55, 0
6, 49680, Note_on_c, 4, 54, 100
6, 49788, Note_on_c, 4, 54, 0
6, 49920, Note_on_c, 4, 55, 100
6, 50028, Note_on_c, 4, 55, 0
6, 50160, Note_on_c, 4, 51, 100
6, 50268, Note_on_c, 4, 51, 0
6, 50400, Note_on_c, 4, 52, 100
6, 50508, Note_on_c, 4, 52, 0
6, 50640, Note_on_c, 4, 60, 100
6, 50748, Note_on_c, 4, 60, 0
6, 50880, Note_on_c, 4, 59, 100
6, 50988, Note_on_c, 4, 59, 0
6, 51120, Note_on_c, 4, 59, 100
6, 51228, Note_on_c, 4, 59, 0
6, 51360, Note_on_c, 4, 59, 100
6, 51468, Note_on_c, 4, 59, 0
6, 51600, Note_on_c, 4, 54, 100
6, 51708, Note_on_c, 4, 54, 0
6, 51840, Note_on_c, 4, 59, 100
6, 51948, Note_on_c, 4, 59, 0
6, 52080, Note_on_c, 4, 63, 100
6, 52188, Note_on_c, 4, 63, 0
6, 52320, Note_on_c, 4, 64, 100
6, 52428, Note_on_c, 4, 64, 0
6, 56400, Note_on_c, 4, 72, 100
6, 56616, Note_on_c, 4, 72, 0
6, 56640, Note_on_c, 4, 62, 100
6, 56856, Note_on_c, 4, 62, 0
6, 56880, Note_on_c, 4, 71, 100
6, 57096, Note_on_c, 4, 71, 0
6, 57120, Note_on_c, 4, 60, 100
6, 57336, Note_on_c, 4, 60, 0
6, 57360, Note_on_c, 4, 69, 100
6, 57576, Note_on_c, 4, 69, 0
6, 57600, Note_on_c, 4, 59, 100
6, 57816, Note_on_c, 4, 59, 0
6, 57840, Note_on_c, 4, 68, 100
6, 58056, Note_on_c, 4, 68, 0
6, 58080, Note_on_c, 4, 57, 100
6, 58296, Note_on_c, 4, 57, 0
6, 59280, Note_on_c, 4, 60, 100
6, 59496, Note_on_c, 4, 60, 0
6, 59760, Note_on_c, 4, 62, 100
6, 59976, Note_on_c, 4, 62, 0
6, 60240, Note_on_c, 4, 64, 100
6, 60456, Note_on_c, 4, 64, 0
6, 60720, Note_on_c, 4, 65, 100
6, 60936, Note_on_c, 4, 65, 0
6, 61200, Note_on_c, 4, 56, 100
6, 61416, Note_on_c, 4, 56, 0
6, 61440, Note_on_c, 4, 57, 100
6, 61656, Note_on_c, 4, 57, 0
6, 61680, Note_on_c, 4, 62, 100
6, 61896, Note_on_c, 4, 62, 0
6, 61920, Note_on_c, 4, 60, 100
6, 62136, Note_on_c, 4, 60, 0
6, 62160, Note_on_c, 4, 59, 100
6, 62376, Note_on_c, 4, 59, 0
6, 62400, Note_on_c, 4, 60, 100
6, 62616, Note_on_c, 4, 60, 0
6, 62640, Note_on_c, 4, 62, 100
6, 62856, Note_on_c, 4, 62, 0
6, 62880, Note_on_c, 4, 67, 100
6, 63096, Note_on_c, 4, 67, 0
6, 63120, Note_on_c, 4, 60, 100
6, 63336, Note_on_c, 4, 60, 0
6, 63360, Note_on_c, 4, 65, 100
6, 63576, Note_on_c, 4, 65, 0
6, 63600, Note_on_c, 4, 59, 100
6, 63816, Note_on_c, 4, 59, 0
6, 63840, Note_on_c, 4, 64, 100
6, 64536, Note_on_c, 4, 64, 0
6, 64560, Note_on_c, 4, 64, 100
6, 64992, Note_on_c, 4, 64, 0
6, 65040, Note_on_c, 4, 57, 100
6, 65496, Note_on_c, 4, 57, 0
6, 65520, Note_on_c, 4, 58, 100
6, 65736, Note_on_c, 4, 58, 0
6, 65760, Note_on_c, 4, 62, 100
6, 65976, Note_on_c, 4, 62, 0
6, 66000, Note_on_c, 4, 69, 100
6, 66216, Note_on_c, 4, 69, 0
6, 66240, Note_on_c, 4, 69, 100
6, 66456, Note_on_c, 4, 69, 0
6, 68160, Note_on_c, 4, 57, 100
6, 68376, Note_on_c, 4, 57, 0
6, 68400, Note_on_c, 4, 65, 100
6, 68616, Note_on_c, 4, 65, 0
6, 68640, Note_on_c, 4, 64, 100
6, 68856, Note_on_c, 4, 64, 0
6, 68880, Note_on_c, 4, 62, 100
6, 69096, Note_on_c, 4, 62, 0
6, 69120, Note_on_c, 4, 60, 100
6, 69336, Note_on_c, 4, 60, 0
6, 80880, Note_on_c, 4, 62, 100
6, 81312, Note_on_c, 4, 62, 0
6, 81360, Note_on_c, 4, 64, 100
6, 81576, Note_on_c, 4, 64, 0
6, 81600, Note_on_c, 4, 65, 100
6, 82032, Note_on_c, 4, 65, 0
6, 82080, Note_on_c, 4, 64, 100
6, 82512, Note_on_c, 4, 64, 0
6, 82560, Note_on_c, 4, 64, 100
6, 82992, Note_on_c, 4, 64, 0
6, 83520, Note_on_c, 4, 52, 100
6, 83736, Note_on_c, 4, 52, 0
6, 83760, Note_on_c, 4, 60, 100
6, 83976, Note_on_c, 4, 60, 0
6, 84000, Note_on_c, 4, 59, 100
6, 84216, Note_on_c, 4, 59, 0
6, 84240, Note_on_c, 4, 57, 100
6, 84456, Note_on_c, 4, 57, 0
6, 84480, Note_on_c, 4, 55, 100
6, 84696, Note_on_c, 4, 55, 0
6, 86880, Note_on_c, 4, 50, 100
6, 86880, Note_on_c, 4, 59, 100
6, 86880, Note_on_c, 4, 68, 100
6, 87096, Note_on_c, 4, 50, 0
6, 87096, Note_on_c, 4, 59, 0
6, 87096, Note_on_c, 4, 68, 0
6, 87360, Note_on_c, 4, 57, 100
6, 87360, Note_on_c, 4, 64, 100
6, 87360, Note_on_c, 4, 69, 100
6, 87576, Note_on_c, 4, 57, 0
6, 87576, Note_on_c, 4, 64, 0
6, 87576, Note_on_c, 4, 69, 0
6, 87840, Note_on_c, 4, 55, 100
6, 87840, Note_on_c, 4, 64, 100
6, 87840, Note_on_c, 4, 70, 100
6, 88056, Note_on_c, 4, 55, 0
6, 88056, Note_on_c, 4, 64, 0
6, 88056, Note_on_c, 4, 70, 0
6, 88320, Note_on_c, 4, 59, 100
6, 88320, Note_on_c, 4, 62, 100
6, 88320, Note_on_c, 4, 71, 100
6, 88536, Note_on_c, 4, 59, 0
6, 88536, Note_on_c, 4, 62, 0
6, 88536, Note_on_c, 4, 71, 0
6, 88800, Note_on_c, 4, 52, 100
6, 88800, Note_on_c, 4, 61, 100
6, 88800, Note_on_c, 4, 67, 100
6, 89016, Note_on_c, 4, 52, 0
6, 89016, Note_on_c, 4, 61, 0
6, 89016, Note_on_c, 4, 67, 0
6, 89280, Note_on_c, 4, 50, 100
6, 89280, Note_on_c, 4, 59, 100
6, 89280, Note_on_c, 4, 66, 100
6, 89496, Note_on_c, 4, 50, 0
6, 89496, Note_on_c, 4, 59, 0
6, 89496, Note_on_c, 4, 66, 0
6, 89760, Note_on_c, 4, 55, 100
6, 89760, Note_on_c, 4, 59, 100
6, 89760, Note_on_c, 4, 64, 100
6, 89976, Note_on_c, 4, 55, 0
6, 89976, Note_on_c, 4, 59, 0
6, 89976, Note_on_c, 4, 64, 0
6, 90240, Note_on_c, 4, 66, 100
6, 90456, Note_on_c, 4, 66, 0
6, 90480, Note_on_c, 4, 58, 100
6, 90696, Note_on_c, 4, 58, 0
6, 90720, Note_on_c, 4, 59, 100
6, 90936, Note_on_c, 4, 59, 0
6, 90960, Note_on_c, 4, 61, 100
6, 91176, Note_on_c, 4, 61, 0
6, 91200, Note_on_c, 4, 62, 100
6, 91416, Note_on_c, 4, 62, 0
6, 91440, Note_on_c, 4, 59, 100
6, 91656, Note_on_c, 4, 59, 0
6, 91680, Note_on_c, 4, 61, 100
6, 91896, Note_on_c, 4, 61, 0
6, 91920, Note_on_c, 4, 57, 100
6, 92136, Note_on_c, 4, 57, 0
6, 92160, Note_on_c, 4, 59, 100
6, 92376, Note_on_c, 4, 59, 0
6, 92400, Note_on_c, 4, 61, 100
6, 92616, Note_on_c, 4, 61, 0
6, 92640, Note_on_c, 4, 54, 100
6, 92640, Note_on_c, 4, 61, 100
6, 92640, Note_on_c, 4, 66, 100
6, 92856, Note_on_c, 4, 54, 0
6, 92856, Note_on_c, 4, 61, 0
6, 92856, Note_on_c, 4, 66, 0
6, 93120, Note_on_c, 4, 50, 100
6, 93120, Note_on_c, 4, 59, 100
6, 93120, Note_on_c, 4, 66, 100
6, 93336, Note_on_c, 4, 50, 0
6, 93336, Note_on_c, 4, 59, 0
6, 93336, Note_on_c, 4, 66, 0
6, 93600, Note_on_c, 4, 48, 100
6, 93600, Note_on_c, 4, 57, 100
6, 93600, Note_on_c, 4, 63, 100
6, 93816, Note_on_c, 4, 48, 0
6, 93816, Note_on_c, 4, 57, 0
6, 93816, Note_on_c, 4, 63, 0
6, 94080, Note_on_c, 4, 52, 100
6, 94080, Note_on_c, 4, 59, 100
6, 94080, Note_on_c, 4, 64, 100
6, 94296, Note_on_c, 4, 52, 0
6, 94296, Note_on_c, 4, 59, 0
6, 94296, Note_on_c, 4, 64, 0
6, 94560, Note_on_c, 4, 50, 100
6, 94560, Note_on_c, 4, 59, 100
6, 94560, Note_on_c, 4, 62, 100
6, 94776, Note_on_c, 4, 50, 0
6, 94776, Note_on_c, 4, 59, 0
6, 94776, Note_on_c, 4, 62, 0
6, 95280, Note_on_c, 4, 64, 100
6, 95496, Note_on_c, 4, 64, 0
6, 95520, Note_on_c, 4, 64, 100
6, 95736, Note_on_c, 4, 64, 0
6, 95760, Note_on_c, 4, 60, 100
6, 95976, Note_on_c, 4, 60, 0
6, 96240, Note_on_c, 4, 59, 100
6, 96456, Note_on_c, 4, 59, 0
6, 96720, Note_on_c, 4, 57, 100
6, 96936, Note_on_c, 4, 57, 0
6, 97200, Note_on_c, 4, 63, 100
6, 97416, Note_on_c, 4, 63, 0
6, 97680, Note_on_c, 4, 64, 100
6, 97896, Note_on_c, 4, 64, 0
6, 98160, Note_on_c, 4, 66, 100
6, 98376, Note_on_c, 4, 66, 0
6, 98640, Note_on_c, 4, 66, 100
6, 98856, Note_on_c, 4, 66, 0
6, 98880, Note_on_c, 4, 67, 100
6, 99096, Note_on_c, 4, 67, 0
6, 101760, Note_on_c, 4, 57, 100
6, 101868, Note_on_c, 4, 57, 0
6, 102000, Note_on_c, 4, 65, 100
6, 102108, Note_on_c, 4, 65, 0
6, 102240, Note_on_c, 4, 64, 100
6, 102348, Note_on_c, 4, 64, 0
6, 102480, Note_on_c, 4, 62, 100
6, 102588, Note_on_c, 4, 62, 0
6, 102720, Note_on_c, 4, 60, 100
6, 102828, Note_on_c, 4, 60, 0
6, 102960, Note_on_c, 4, 68, 100
6, 103068, Note_on_c, 4, 68, 0
6, 103200, Note_on_c, 4, 69, 100
6, 103308, Note_on_c, 4, 69, 0
6, 103440, Note_on_c, 4, 71, 100
6, 103548, Note_on_c, 4, 71, 0
6, 103680, Note_on_c, 4, 69, 100
6, 104112, Note_on_c, 4, 69, 0
6, 104160, Note_on_c, 4, 67, 100
6, 104592, Note_on_c, 4, 67, 0
6, 104640, Note_on_c, 4, 65, 100
6, 105072, Note_on_c, 4, 65, 0
6, 105120, Note_on_c, 4, 59, 100
6, 105552, Note_on_c, 4, 59, 0
6, 105600, Note_on_c, 4, 64, 100
6, 106032, Note_on_c, 4, 64, 0
6, 106080, Note_on_c, 4, 67, 100
6, 106512, Note_on_c, 4, 67, 0
6, 106560, Note_on_c, 4, 69, 100
6, 106992, Note_on_c, 4, 69, 0
6, 107040, Note_on_c, 4, 57, 100
6, 107472, Note_on_c, 4, 57, 0
6, 107520, Note_on_c, 4, 64, 100
6, 107952, Note_on_c, 4, 64, 0
6, 108000, Note_on_c, 4, 59, 100
6, 108432, Note_on_c, 4, 59, 0
6, 108480, Note_on_c, 4, 57, 100
6, 108696, Note_on_c, 4, 57, 0
6, 110400, Note_on_c, 4, 69, 100
6, 110508, Note_on_c, 4, 69, 0
6, 110880, Note_on_c, 4, 67, 100
6, 110988, Note_on_c, 4, 67, 0
6, 111360, Note_on_c, 4, 59, 100
6, 111468, Note_on_c, 4, 59, 0
6, 111840, Note_on_c, 4, 54, 100
6, 111948, Note_on_c, 4, 54, 0
6, 112320, Note_on_c, 4, 59, 100
6, 112428, Note_on_c, 4, 59, 0
6, 114240, Note_on_c, 4, 64, 100
6, 114672, Note_on_c, 4, 64, 0
6, 114720, Note_on_c, 4, 67, 100
6, 115416, Note_on_c, 4, 67, 0
6, 115440, Note_on_c, 4, 60, 100
6, 115656, Note_on_c, 4, 60, 0
6, 115680, Note_on_c, 4, 65, 100
6, 115896, Note_on_c, 4, 65, 0
6, 115920, Note_on_c, 4, 59, 100
6, 116136, Note_on_c, 4, 59, 0
6, 116160, Note_on_c, 4, 64, 100
6, 116376, Note_on_c, 4, 64, 0
6, 116400, Note_on_c, 4, 57, 100
6, 116616, Note_on_c, 4, 57, 0
6, 116640, Note_on_c, 4, 62, 100
6, 116856, Note_on_c, 4, 62, 0
6, 116880, Note_on_c, 4, 55, 100
6, 117096, Note_on_c, 4, 55, 0
6, 117120, Note_on_c, 4, 60, 100
6, 117336, Note_on_c, 4, 60, 0
6, 117360, Note_on_c, 4, 55, 100
6, 117576, Note_on_c, 4, 55, 0
6, 117840, Note_on_c, 4, 62, 100
6, 118296, Note_on_c, 4, 62, 0
6, 118320, Note_on_c, 4, 67, 100
6, 118752, Note_on_c, 4, 67, 0
6, 118800, Note_on_c, 4, 66, 100
6, 119016, Note_on_c, 4, 66, 0
6, 119040, Note_on_c, 4, 67, 100
6, 119256, Note_on_c, 4, 67, 0
6, 119280, Note_on_c, 4, 64, 100
6, 119712, Note_on_c, 4, 64, 0
6, 119760, Note_on_c, 4, 62, 100
6, 120216, Note_on_c, 4, 62, 0
6, 120240, Note_on_c, 4, 60, 100
6, 120672, Note_on_c, 4, 60, 0
6, 120720, Note_on_c, 4, 59, 100
6, 120828, Note_on_c, 4, 59, 0
6, 120840, Note_on_c, 4, 57, 100
6, 120948, Note_on_c, 4, 57, 0
6, 120960, Note_on_c, 4, 59, 100
6, 121176, Note_on_c, 4, 59, 0
6, 121200, Note_on_c, 4, 64, 100
6, 121632, Note_on_c, 4, 64, 0
6, 121680, Note_on_c, 4, 62, 100
6, 121896, Note_on_c, 4, 62, 0
6, 121920, Note_on_c, 4, 60, 100
6, 122136, Note_on_c, 4, 60, 0
6, 122160, Note_on_c, 4, 67, 100
6, 122376, Note_on_c, 4, 67, 0
6, 122400, Note_on_c, 4, 72, 100
6, 123312, Note_on_c, 4, 72, 0
6, 123360, Note_on_c, 4, 67, 100
6, 124056, Note_on_c, 4, 67, 0
6, 124080, Note_on_c, 4, 65, 100
6, 124188, Note_on_c, 4, 65, 0
6, 124200, Note_on_c, 4, 64, 100
6, 124308, Note_on_c, 4, 64, 0
6, 124320, Note_on_c, 4, 62, 100
6, 124536, Note_on_c, 4, 62, 0
6, 124560, Note_on_c, 4, 64, 100
6, 124776, Note_on_c, 4, 64, 0
6, 124800, Note_on_c, 4, 65, 100
6, 125448, Note_on_c, 4, 65, 0
6, 125520, Note_on_c, 4, 64, 100
6, 125628, Note_on_c, 4, 64, 0
6, 125640, Note_on_c, 4, 62, 100
6, 125748, Note_on_c, 4, 62, 0
6, 125760, Note_on_c, 4, 60, 100
6, 125976, Note_on_c, 4, 60, 0
6, 126000, Note_on_c, 4, 62, 100
6, 126216, Note_on_c, 4, 62, 0
6, 126240, Note_on_c, 4, 64, 100
6, 126456, Note_on_c, 4, 64, 0
6, 126480, Note_on_c, 4, 62, 100
6, 126696, Note_on_c, 4, 62, 0
6, 126720, Note_on_c, 4, 61, 100
6, 126936, Note_on_c, 4, 61, 0
6, 126960, Note_on_c, 4, 57, 100
6, 127176, Note_on_c, 4, 57, 0
6, 127200, Note_on_c, 4, 69, 100
6, 127416, Note_on_c, 4, 69, 0
6, 127440, Note_on_c, 4, 61, 100
6, 127656, Note_on_c, 4, 61, 0
6, 127680, Note_on_c, 4, 62, 100
6, 127896, Note_on_c, 4, 62, 0
6, 127920, Note_on_c, 4, 64, 100
6, 128136, Note_on_c, 4, 64, 0
6, 128160, Note_on_c, 4, 65, 100
6, 128376, Note_on_c, 4, 65, 0
6, 128400, Note_on_c, 4, 64, 100
6, 128616, Note_on_c, 4, 64, 0
6, 128640, Note_on_c, 4, 63, 100
6, 128856, Note_on_c, 4, 63, 0
6, 128880, Note_on_c, 4, 59, 100
6, 129096, Note_on_c, 4, 59, 0
6, 129120, Note_on_c, 4, 71, 100
6, 129336, Note_on_c, 4, 71, 0
6, 129360, Note_on_c, 4, 63, 100
6, 129576, Note_on_c, 4, 63, 0
6, 129600, Note_on_c, 4, 64, 100
6, 129816, Note_on_c, 4, 64, 0
6, 129840, Note_on_c, 4, 72, 100
6, 130056, Note_on_c, 4, 72, 0
6, 130080, Note_on_c, 4, 71, 100
6, 130296, Note_on_c, 4, 71, 0
6, 130320, Note_on_c, 4, 69, 100
6, 130536, Note_on_c, 4, 69, 0
6, 130560, Note_on_c, 4, 67, 100
6, 130776, Note_on_c, 4, 67, 0
6, 130800, Note_on_c, 4, 69, 100
6, 131016, Note_on_c, 4, 69, 0
6, 131040, Note_on_c, 4, 71, 100
6, 131736, Note_on_c, 4, 71, 0
6, 131760, Note_on_c, 4, 72, 100
6, 132192, Note_on_c, 4, 72, 0
6, 132240, Note_on_c, 4, 71, 100
6, 132696, Note_on_c, 4, 71, 0
6, 132720, Note_on_c, 4, 69, 100
6, 132828, Note_on_c, 4, 69, 0
6, 132840, Note_on_c, 4, 67, 100
6, 132948, Note_on_c, 4, 67, 0
6, 132960, Note_on_c, 4, 69, 100
6, 133176, Note_on_c, 4, 69, 0
6, 133200, Note_on_c, 4, 66, 100
6, 133416, Note_on_c, 4, 66, 0
6, 133440, Note_on_c, 4, 67, 100
6, 133872, Note_on_c, 4, 67, 0
6, 134160, Note_on_c, 4, 65, 100
6, 134376, Note_on_c, 4, 65, 0
6, 134400, Note_on_c, 4, 64, 100
6, 134616, Note_on_c, 4, 64, 0
6, 134640, Note_on_c, 4, 72, 100
6, 134748, Note_on_c, 4, 72, 0
6, 134760, Note_on_c, 4, 71, 100
6, 134868, Note_on_c, 4, 71, 0
6, 134880, Note_on_c, 4, 72, 100
6, 135096, Note_on_c, 4, 72, 0
6, 135120, Note_on_c, 4, 67, 100
6, 135336, Note_on_c, 4, 67, 0
6, 135360, Note_on_c, 4, 69, 100
6, 135576, Note_on_c, 4, 69, 0
6, 135600, Note_on_c, 4, 57, 100
6, 135816, Note_on_c, 4, 57, 0
6, 135840, Note_on_c, 4, 55, 100
6, 136536, Note_on_c, 4, 55, 0
6, 136560, Note_on_c, 4, 57, 100
6, 136776, Note_on_c, 4, 57, 0
6, 136800, Note_on_c, 4, 59, 100
6, 137232, Note_on_c, 4, 59, 0
6, 137280, Note_on_c, 4, 55, 100
6, 137496, Note_on_c, 4, 55, 0
6, 142080, Note_on_c, 4, 50, 100
6, 142296, Note_on_c, 4, 50, 0
6, 142320, Note_on_c, 4, 58, 100
6, 142536, Note_on_c, 4, 58, 0
6, 142560, Note_on_c, 4, 57, 100
6, 142776, Note_on_c, 4, 57, 0
6, 142800, Note_on_c, 4, 55, 100
6, 143016, Note_on_c, 4, 55, 0
6, 143040, Note_on_c, 4, 57, 100
6, 143256, Note_on_c, 4, 57, 0
6, 143280, Note_on_c, 4, 55, 100
6, 143496, Note_on_c, 4, 55, 0
6, 143520, Note_on_c, 4, 57, 100
6, 143736, Note_on_c, 4, 57, 0
6, 143760, Note_on_c, 4, 61, 100
6, 143976, Note_on_c, 4, 61, 0
6, 144000, Note_on_c, 4, 62, 100
6, 144216, Note_on_c, 4, 62, 0
6, 144240, Note_on_c, 4, 61, 100
6, 144456, Note_on_c, 4, 61, 0
6, 144480, Note_on_c, 4, 62, 100
6, 144696, Note_on_c, 4, 62, 0
6, 144720, Note_on_c, 4, 64, 100
6, 144936, Note_on_c, 4, 64, 0
6, 144960, Note_on_c, 4, 57, 100
6, 145176, Note_on_c, 4, 57, 0
6, 145200, Note_on_c, 4, 58, 100
6, 145416, Note_on_c, 4, 58, 0
6, 145440, Note_on_c, 4, 60, 100
6, 145872, Note_on_c, 4, 60, 0
6, 145920, Note_on_c, 4, 62, 100
6, 146136, Note_on_c, 4, 62, 0
6, 146160, Note_on_c, 4, 64, 100
6, 146376, Note_on_c, 4, 64, 0
6, 146400, Note_on_c, 4, 57, 100
6, 146616, Note_on_c, 4, 57, 0
6, 146640, Note_on_c, 4, 64, 100
6, 146856, Note_on_c, 4, 64, 0
6, 146880, Note_on_c, 4, 62, 100
6, 147096, Note_on_c, 4, 62, 0
6, 147120, Note_on_c, 4, 65, 100
6, 147336, Note_on_c, 4, 65, 0
6, 147360, Note_on_c, 4, 66, 100
6, 147522, Note_on_c, 4, 66, 0
6, 147540, Note_on_c, 4, 67, 100
6, 147594, Note_on_c, 4, 67, 0
6, 147600, Note_on_c, 4, 69, 100
6, 147816, Note_on_c, 4, 69, 0
6, 147840, Note_on_c, 4, 62, 100
6, 148056, Note_on_c, 4, 62, 0
6, 148080, Note_on_c, 4, 63, 100
6, 148296, Note_on_c, 4, 63, 0
6, 148320, Note_on_c, 4, 67, 100
6, 148536, Note_on_c, 4, 67, 0
6, 148560, Note_on_c, 4, 62, 100
6, 148776, Note_on_c, 4, 62, 0
6, 148800, Note_on_c, 4, 62, 100
6, 149016, Note_on_c, 4, 62, 0
6, 150720, Note_on_c, 4, 50, 100
6, 150936, Note_on_c, 4, 50, 0
6, 150960, Note_on_c, 4, 58, 100
6, 151176, Note_on_c, 4, 58, 0
6, 151200, Note_on_c, 4, 57, 100
6, 151416, Note_on_c, 4, 57, 0
6, 151440, Note_on_c, 4, 55, 100
6, 151656, Note_on_c, 4, 55, 0
6, 151680, Note_on_c, 4, 53, 100
6, 151896, Note_on_c, 4, 53, 0
6, 160320, Note_on_c, 4, 65, 100
6, 160428, Note_on_c, 4, 65, 0
6, 160560, Note_on_c, 4, 56, 100
6, 160632, Note_on_c, 4, 56, 0
6, 160640, Note_on_c, 4, 55, 100
6, 160712, Note_on_c, 4, 55, 0
6, 160720, Note_on_c, 4, 53, 100
6, 160792, Note_on_c, 4, 53, 0
6, 160800, Note_on_c, 4, 65, 100
6, 160908, Note_on_c, 4, 65, 0
6, 161280, Note_on_c, 4, 58, 100
6, 161388, Note_on_c, 4, 58, 0
6, 161760, Note_on_c, 4, 59, 100
6, 161868, Note_on_c, 4, 59, 0
6, 162240, Note_on_c, 4, 60, 100
6, 162348, Note_on_c, 4, 60, 0
6, 162480, Note_on_c, 4, 52, 100
6, 162588, Note_on_c, 4, 52, 0
6, 162720, Note_on_c, 4, 55, 100
6, 162828, Note_on_c, 4, 55, 0
6, 162960, Note_on_c, 4, 58, 100
6, 163068, Note_on_c, 4, 58, 0
6, 163200, Note_on_c, 4, 64, 100
6, 164064, Note_on_c, 4, 64, 0
6, 164160, Note_on_c, 4, 60, 100
6, 164268, Note_on_c, 4, 60, 0
6, 164880, Note_on_c, 4, 64, 100
6, 164988, Note_on_c, 4, 64, 0
6, 165120, Note_on_c, 4, 60, 100
6, 165228, Note_on_c, 4, 60, 0
6, 165840, Note_on_c, 4, 61, 100
6, 165948, Note_on_c, 4, 61, 0
6, 166080, Note_on_c, 4, 57, 100
6, 166188, Note_on_c, 4, 57, 0
6, 166800, Note_on_c, 4, 55, 100
6, 166908, Note_on_c, 4, 55, 0
6, 167040, Note_on_c, 4, 53, 100
6, 167148, Note_on_c, 4, 53, 0
6, 167760, Note_on_c, 4, 57, 100
6, 167868, Note_on_c, 4, 57, 0
6, 168000, Note_on_c, 4, 57, 100
6, 168108, Note_on_c, 4, 57, 0
6, 168720, Note_on_c, 4, 61, 100
6, 168828, Note_on_c, 4, 61, 0
6, 168960, Note_on_c, 4, 62, 100
6, 169068, Note_on_c, 4, 62, 0
6, 169680, Note_on_c, 4, 73, 100
6, 169788, Note_on_c, 4, 73, 0
6, 170160, Note_on_c, 4, 74, 100
6, 170268, Note_on_c, 4, 74, 0
6, 170640, Note_on_c, 4, 73, 100
6, 170748, Note_on_c, 4, 73, 0
6, 171120, Note_on_c, 4, 71, 100
6, 171228, Note_on_c, 4, 71, 0
6, 171600, Note_on_c, 4, 69, 100
6, 171708, Note_on_c, 4, 69, 0
6, 172080, Note_on_c, 4, 72, 100
6, 172296, Note_on_c, 4, 72, 0
6, 172320, Note_on_c, 4, 74, 100
6, 172752, Note_on_c, 4, 74, 0
6, 172800, Note_on_c, 4, 72, 100
6, 173232, Note_on_c, 4, 72, 0
6, 173280, Note_on_c, 4, 71, 100
6, 173496, Note_on_c, 4, 71, 0
6, 173760, Note_on_c, 4, 56, 100
6, 173976, Note_on_c, 4, 56, 0
6, 174480, Note_on_c, 4, 64, 100
6, 174696, Note_on_c, 4, 64, 0
6, 174720, Note_on_c, 4, 64, 100
6, 174936, Note_on_c, 4, 64, 0
6, 179760, Note_on_c, 4, 69, 100
6, 179868, Note_on_c, 4, 69, 0
6, 180240, Note_on_c, 4, 69, 100
6, 180348, Note_on_c, 4, 69, 0
6, 180720, Note_on_c, 4, 69, 100
6, 180828, Note_on_c, 4, 69, 0
6, 181200, Note_on_c, 4, 69, 100
6, 181308, Note_on_c, 4, 69, 0
6, 181680, Note_on_c, 4, 68, 100
6, 181788, Note_on_c, 4, 68, 0
6, 182160, Note_on_c, 4, 68, 100
6, 182268, Note_on_c, 4, 68, 0
6, 182640, Note_on_c, 4, 68, 100
6, 182748, Note_on_c, 4, 68, 0
6, 183120, Note_on_c, 4, 68, 100
6, 183228, Note_on_c, 4, 68, 0
6, 183600, Note_on_c, 4, 68, 100
6, 183708, Note_on_c, 4, 68, 0
6, 183840, Note_on_c, 4, 69, 100
6, 183948, Note_on_c, 4, 69, 0
6, 184080, Note_on_c, 4, 68, 100
6, 184188, Note_on_c, 4, 68, 0
6, 184320, Note_on_c, 4, 64, 100
6, 184428, Note_on_c, 4, 64, 0
6, 185040, Note_on_c, 4, 61, 100
6, 185148, Note_on_c, 4, 61, 0
6, 185280, Note_on_c, 4, 57, 100
6, 185388, Note_on_c, 4, 57, 0
6, 186720, Note_on_c, 4, 56, 100
6, 186720, Note_on_c, 4, 62, 100
6, 186720, Note_on_c, 4, 71, 100
6, 186828, Note_on_c, 4, 56, 0
6, 186828, Note_on_c, 4, 62, 0
6, 186828, Note_on_c, 4, 71, 0
6, 187200, Note_on_c, 4, 57, 100
6, 187200, Note_on_c, 4, 64, 100
6, 187200, Note_on_c, 4, 72, 100
6, 187308, Note_on_c, 4, 57, 0
6, 187308, Note_on_c, 4, 64, 0
6, 187308, Note_on_c, 4, 72, 0
6, 187680, Note_on_c, 4, 55, 100
6, 187680, Note_on_c, 4, 64, 100
6, 187680, Note_on_c, 4, 70, 100
6, 187788, Note_on_c, 4, 55, 0
6, 187788, Note_on_c, 4, 64, 0
6, 187788, Note_on_c, 4, 70, 0
6, 188160, Note_on_c, 4, 62, 100
6, 188160, Note_on_c, 4, 65, 100
6, 188160, Note_on_c, 4, 69, 100
6, 188268, Note_on_c, 4, 62, 0
6, 188268, Note_on_c, 4, 65, 0
6, 188268, Note_on_c, 4, 69, 0
6, 188640, Note_on_c, 4, 60, 100
6, 188640, Note_on_c, 4, 66, 100
6, 188640, Note_on_c, 4, 69, 100
6, 188748, Note_on_c, 4, 60, 0
6, 188748, Note_on_c, 4, 66, 0
6, 188748, Note_on_c, 4, 69, 0
6, 189120, Note_on_c, 4, 52, 100
6, 189120, Note_on_c, 4, 59, 100
6, 189120, Note_on_c, 4, 68, 100
6, 189228, Note_on_c, 4, 52, 0
6, 189228, Note_on_c, 4, 59, 0
6, 189228, Note_on_c, 4, 68, 0
6, 190320, Note_on_c, 4, 56, 100
6, 190536, Note_on_c, 4, 56, 0
6, 190560, Note_on_c, 4, 57, 100
6, 190776, Note_on_c, 4, 57, 0
6, 190800, Note_on_c, 4, 59, 100
6, 191016, Note_on_c, 4, 59, 0
6, 191040, Note_on_c, 4, 60, 100
6, 191256, Note_on_c, 4, 60, 0
6, 191280, Note_on_c, 4, 62, 100
6, 191496, Note_on_c, 4, 62, 0
6, 191520, Note_on_c, 4, 64, 100
6, 191736, Note_on_c, 4, 64, 0
6, 191760, Note_on_c, 4, 65, 100
6, 191976, Note_on_c, 4, 65, 0
6, 192000, Note_on_c, 4, 64, 100
6, 192216, Note_on_c, 4, 64, 0
6, 192240, Note_on_c, 4, 68, 100
6, 192456, Note_on_c, 4, 68, 0
6, 192480, Note_on_c, 4, 69, 100
6, 192696, Note_on_c, 4, 69, 0
6, 192720, Note_on_c, 4, 56, 100
6, 192936, Note_on_c, 4, 56, 0
6, 192960, Note_on_c, 4, 57, 100
6, 193176, Note_on_c, 4, 57, 0
6, 193200, Note_on_c, 4, 65, 100
6, 193416, Note_on_c, 4, 65, 0
6, 193440, Note_on_c, 4, 64, 100
6, 193656, Note_on_c, 4, 64, 0
6, 193680, Note_on_c, 4, 62, 100
6, 193896, Note_on_c, 4, 62, 0
6, 193920, Note_on_c, 4, 60, 100
6, 194136, Note_on_c, 4, 60, 0
6, 194160, Note_on_c, 4, 62, 100
6, 194376, Note_on_c, 4, 62, 0
6, 194400, Note_on_c, 4, 60, 100
6, 194616, Note_on_c, 4, 60, 0
6, 194640, Note_on_c, 4, 59, 100
6, 194856, Note_on_c, 4, 59, 0
6, 194880, Note_on_c, 4, 57, 100
6, 195096, Note_on_c, 4, 57, 0
6, 195840, Note_on_c, 4, 57, 100
6, 196056, Note_on_c, 4, 57, 0
6, 196080, Note_on_c, 4, 65, 100
6, 196296, Note_on_c, 4, 65, 0
6, 196320, Note_on_c, 4, 64, 100
6, 196536, Note_on_c, 4, 64, 0
6, 196560, Note_on_c, 4, 62, 100
6, 196776, Note_on_c, 4, 62, 0
6, 196800, Note_on_c, 4, 60, 100
6, 197016, Note_on_c, 4, 60, 0
6, 198000, Note_on_c, 4, 62, 100
6, 198432, Note_on_c, 4, 62, 0
6, 198480, Note_on_c, 4, 64, 100
6, 198696, Note_on_c, 4, 64, 0
6, 198720, Note_on_c, 4, 65, 100
6, 199152, Note_on_c, 4, 65, 0
6, 199200, Note_on_c, 4, 64, 100
6, 199416, Note_on_c, 4, 64, 0
6, 211203, Note_on_c, 4, 57, 100
6, 211419, Note_on_c, 4, 57, 0
6, 211443, Note_on_c, 4, 65, 100
6, 211659, Note_on_c, 4, 65, 0
6, 211683, Note_on_c, 4, 64, 100
6, 211899, Note_on_c, 4, 64, 0
6, 211923, Note_on_c, 4, 62, 100
6, 212139, Note_on_c, 4, 62, 0
6, 212163, Note_on_c, 4, 60, 100
6, 212595, Note_on_c, 4, 60, 0
6, 212643, Note_on_c, 4, 59, 100
6, 213075, Note_on_c, 4, 59, 0
6, 213123, Note_on_c, 4, 57, 100
6, 213555, Note_on_c, 4, 57, 0
6, 213603, Note_on_c, 4, 56, 100
6, 214035, Note_on_c, 4, 56, 0
6, 214083, Note_on_c, 4, 57, 100
6, 214299, Note_on_c, 4, 57, 0
6, 214323, Note_on_c, 4, 60, 100
6, 214539, Note_on_c, 4, 60, 0
6, 214803, Note_on_c, 4, 54, 100
6, 215019, Note_on_c, 4, 54, 0
6, 215043, Note_on_c, 4, 52, 100
6, 215475, Note_on_c, 4, 52, 0
6, 215523, Note_on_c, 4, 51, 100
6, 215955, Note_on_c, 4, 51, 0
6, 216003, Note_on_c, 4, 52, 100
6, 216219, Note_on_c, 4, 52, 0
6, 216243, Note_on_c, 4, 64, 100
6, 216459, Note_on_c, 4, 64, 0
6, 216483, Note_on_c, 4, 66, 100
6, 216699, Note_on_c, 4, 66, 0
6, 216723, Note_on_c, 4, 62, 100
6, 216939, Note_on_c, 4, 62, 0
6, 216963, Note_on_c, 4, 64, 100
6, 217179, Note_on_c, 4, 64, 0
6, 217203, Note_on_c, 4, 60, 100
6, 217419, Note_on_c, 4, 60, 0
6, 217443, Note_on_c, 4, 59, 100
6, 218139, Note_on_c, 4, 59, 0
6, 218163, Note_on_c, 4, 55, 100
6, 218379, Note_on_c, 4, 55, 0
6, 218403, Note_on_c, 4, 57, 100
6, 218619, Note_on_c, 4, 57, 0
6, 218643, Note_on_c, 4, 59, 100
6, 218859, Note_on_c, 4, 59, 0
6, 218883, Note_on_c, 4, 60, 100
6, 219099, Note_on_c, 4, 60, 0
6, 219123, Note_on_c, 4, 64, 100
6, 219339, Note_on_c, 4, 64, 0
6, 219363, Note_on_c, 4, 69, 100
6, 219795, Note_on_c, 4, 69, 0
6, 219843, Note_on_c, 4, 69, 100
6, 219951, Note_on_c, 4, 69, 0
6, 219963, Note_on_c, 4, 68, 100
6, 220071, Note_on_c, 4, 68, 0
6, 220083, Note_on_c, 4, 69, 100
6, 220515, Note_on_c, 4, 69, 0
6, 220563, Note_on_c, 4, 68, 100
6, 220779, Note_on_c, 4, 68, 0
6, 220803, Note_on_c, 4, 69, 100
6, 220911, Note_on_c, 4, 69, 0
6, 220923, Note_on_c, 4, 67, 100
6, 221031, Note_on_c, 4, 67, 0
6, 221043, Note_on_c, 4, 65, 100
6, 221475, Note_on_c, 4, 65, 0
6, 221523, Note_on_c, 4, 64, 100
6, 221979, Note_on_c, 4, 64, 0
6, 222003, Note_on_c, 4, 62, 100
6, 222435, Note_on_c, 4, 62, 0
6, 222483, Note_on_c, 4, 60, 100
6, 222591, Note_on_c, 4, 60, 0
6, 222603, Note_on_c, 4, 59, 100
6, 222711, Note_on_c, 4, 59, 0
6, 222723, Note_on_c, 4, 60, 100
6, 222831, Note_on_c, 4, 60, 0
6, 222843, Note_on_c, 4, 62, 100
6, 222951, Note_on_c, 4, 62, 0
6, 222963, Note_on_c, 4, 64, 100
6, 223395, Note_on_c, 4, 64, 0
6, 223443, Note_on_c, 4, 57, 100
6, 223659, Note_on_c, 4, 57, 0
6, 223683, Note_on_c, 4, 62, 100
6, 223899, Note_on_c, 4, 62, 0
6, 223923, Note_on_c, 4, 64, 100
6, 224139, Note_on_c, 4, 64, 0
6, 224163, Note_on_c, 4, 62, 100
6, 224379, Note_on_c, 4, 62, 0
6, 224403, Note_on_c, 4, 60, 100
6, 224619, Note_on_c, 4, 60, 0
6, 224643, Note_on_c, 4, 59, 100
6, 224859, Note_on_c, 4, 59, 0
6, 224883, Note_on_c, 4, 55, 100
6, 225099, Note_on_c, 4, 55, 0
6, 225123, Note_on_c, 4, 57, 100
6, 225339, Note_on_c, 4, 57, 0
6, 225363, Note_on_c, 4, 59, 100
6, 225579, Note_on_c, 4, 59, 0
6, 225603, Note_on_c, 4, 60, 100
6, 225819, Note_on_c, 4, 60, 0
6, 225843, Note_on_c, 4, 57, 100
6, 226059, Note_on_c, 4, 57, 0
6, 226083, Note_on_c, 4, 59, 100
6, 226779, Note_on_c, 4, 59, 0
6, 226803, Note_on_c, 4, 62, 100
6, 227019, Note_on_c, 4, 62, 0
6, 227043, Note_on_c, 4, 60, 100
6, 227259, Note_on_c, 4, 60, 0
6, 227283, Note_on_c, 4, 59, 100
6, 227499, Note_on_c, 4, 59, 0
6, 227523, Note_on_c, 4, 57, 100
6, 227955, Note_on_c, 4, 57, 0
6, 228003, Note_on_c, 4, 64, 100
6, 228699, Note_on_c, 4, 64, 0
6, 228723, Note_on_c, 4, 62, 100
6, 228831, Note_on_c, 4, 62, 0
6, 228843, Note_on_c, 4, 60, 100
6, 228951, Note_on_c, 4, 60, 0
6, 228963, Note_on_c, 4, 62, 100
6, 229179, Note_on_c, 4, 62, 0
6, 229203, Note_on_c, 4, 67, 100
6, 229419, Note_on_c, 4, 67, 0
6, 229443, Note_on_c, 4, 69, 100
6, 229659, Note_on_c, 4, 69, 0
6, 229683, Note_on_c, 4, 65, 100
6, 229899, Note_on_c, 4, 65, 0
6, 229923, Note_on_c, 4, 62, 100
6, 230139, Note_on_c, 4, 62, 0
6, 230163, Note_on_c, 4, 59, 100
6, 230379, Note_on_c, 4, 59, 0
6, 230403, Note_on_c, 4, 64, 100
6, 230835, Note_on_c, 4, 64, 0
6, 230883, Note_on_c, 4, 62, 100
6, 231099, Note_on_c, 4, 62, 0
6, 231123, Note_on_c, 4, 57, 100
6, 231339, Note_on_c, 4, 57, 0
6, 231363, Note_on_c, 4, 62, 100
6, 231951, Note_on_c, 4, 62, 0
6, 231963, Note_on_c, 4, 64, 100
6, 232071, Note_on_c, 4, 64, 0
6, 232083, Note_on_c, 4, 65, 100
6, 232299, Note_on_c, 4, 65, 0
6, 232323, Note_on_c, 4, 59, 100
6, 232539, Note_on_c, 4, 59, 0
6, 232563, Note_on_c, 4, 64, 100
6, 232671, Note_on_c, 4, 64, 0
6, 232683, Note_on_c, 4, 65, 100
6, 232791, Note_on_c, 4, 65, 0
6, 232803, Note_on_c, 4, 64, 100
6, 232911, Note_on_c, 4, 64, 0
6, 232923, Note_on_c, 4, 62, 100
6, 233031, Note_on_c, 4, 62, 0
6, 233043, Note_on_c, 4, 60, 100
6, 233151, Note_on_c, 4, 60, 0
6, 233163, Note_on_c, 4, 59, 100
6, 233271, Note_on_c, 4, 59, 0
6, 233283, Note_on_c, 4, 60, 100
6, 233391, Note_on_c, 4, 60, 0
6, 233403, Note_on_c, 4, 62, 100
6, 233511, Note_on_c, 4, 62, 0
6, 233523, Note_on_c, 4, 64, 100
6, 233955, Note_on_c, 4, 64, 0
6, 234003, Note_on_c, 4, 62, 100
6, 234219, Note_on_c, 4, 62, 0
6, 234243, Note_on_c, 4, 60, 100
6, 234675, Note_on_c, 4, 60, 0
6, 234675, End_track
7, 0, Start_track
7, 0, Sequence_number, 65535
7, 0, MIDI_port, 0
7, 0, Title_t, "Violoncello e Violone"
7, 0, Control_c, 5, 0, 0
7, 0, Control_c, 5, 32, 0
7, 0, Program_c, 5, 48
7, 0, Control_c, 5, 7, 80
7, 0, Control_c, 5, 10, 94
7, 5040, Note_on_c, 5, 48, 100
7, 5256, Note_on_c, 5, 48, 0
7, 5280, Note_on_c, 5, 38, 100
7, 5496, Note_on_c, 5, 38, 0
7, 5520, Note_on_c, 5, 47, 100
7, 5736, Note_on_c, 5, 47, 0
7, 5760, Note_on_c, 5, 36, 100
7, 5976, Note_on_c, 5, 36, 0
7, 6000, Note_on_c, 5, 45, 100
7, 6216, Note_on_c, 5, 45, 0
7, 6240, Note_on_c, 5, 35, 100
7, 6456, Note_on_c, 5, 35, 0
7, 6480, Note_on_c, 5, 45, 100
7, 6696, Note_on_c, 5, 45, 0
7, 6720, Note_on_c, 5, 43, 100
7, 6936, Note_on_c, 5, 43, 0
7, 6960, Note_on_c, 5, 40, 100
7, 7176, Note_on_c, 5, 40, 0
7, 7200, Note_on_c, 5, 42, 100
7, 7416, Note_on_c, 5, 42, 0
7, 7440, Note_on_c, 5, 44, 100
7, 7656, Note_on_c, 5, 44, 0
7, 7680, Note_on_c, 5, 45, 100
7, 7896, Note_on_c, 5, 45, 0
7, 7920, Note_on_c, 5, 46, 100
7, 8136, Note_on_c, 5, 46, 0
7, 8160, Note_on_c, 5, 45, 100
7, 8376, Note_on_c, 5, 45, 0
7, 8400, Note_on_c, 5, 43, 100
7, 8616, Note_on_c, 5, 43, 0
7, 8640, Note_on_c, 5, 41, 100
7, 8856, Note_on_c, 5, 41, 0
7, 8880, Note_on_c, 5, 40, 100
7, 8988, Note_on_c, 5, 40, 0
7, 9000, Note_on_c, 5, 38, 100
7, 9108, Note_on_c, 5, 38, 0
7, 9120, Note_on_c, 5, 40, 100
7, 9552, Note_on_c, 5, 40, 0
7, 9600, Note_on_c, 5, 33, 100
7, 9816, Note_on_c, 5, 33, 0
7, 9840, Note_on_c, 5, 38, 100
7, 10272, Note_on_c, 5, 38, 0
7, 10320, Note_on_c, 5, 36, 100
7, 10776, Note_on_c, 5, 36, 0
7, 10800, Note_on_c, 5, 35, 100
7, 10908, Note_on_c, 5, 35, 0
7, 10920, Note_on_c, 5, 33, 100
7, 11028, Note_on_c, 5, 33, 0
7, 11040, Note_on_c, 5, 35, 100
7, 11256, Note_on_c, 5, 35, 0
7, 11280, Note_on_c, 5, 28, 100
7, 11496, Note_on_c, 5, 28, 0
7, 11520, Note_on_c, 5, 33, 100
7, 11952, Note_on_c, 5, 33, 0
7, 12960, Note_on_c, 5, 26, 100
7, 13392, Note_on_c, 5, 26, 0
7, 13440, Note_on_c, 5, 31, 100
7, 13872, Note_on_c, 5, 31, 0
7, 14880, Note_on_c, 5, 35, 100
7, 15312, Note_on_c, 5, 35, 0
7, 15360, Note_on_c, 5, 28, 100
7, 15792, Note_on_c, 5, 28, 0
7, 16320, Note_on_c, 5, 33, 100
7, 16536, Note_on_c, 5, 33, 0
7, 16560, Note_on_c, 5, 41, 100
7, 16776, Note_on_c, 5, 41, 0
7, 16800, Note_on_c, 5, 40, 100
7, 17016, Note_on_c, 5, 40, 0
7, 17040, Note_on_c, 5, 38, 100
7, 17256, Note_on_c, 5, 38, 0
7, 17280, Note_on_c, 5, 36, 100
7, 17712, Note_on_c, 5, 36, 0
7, 17760, Note_on_c, 5, 35, 100
7, 18192, Note_on_c, 5, 35, 0
7, 18240, Note_on_c, 5, 33, 100
7, 18672, Note_on_c, 5, 33, 0
7, 18720, Note_on_c, 5, 32, 100
7, 19152, Note_on_c, 5, 32, 0
7, 19200, Note_on_c, 5, 33, 100
7, 19416, Note_on_c, 5, 33, 0
7, 19440, Note_on_c, 5, 45, 100
7, 19656, Note_on_c, 5, 45, 0
7, 19680, Note_on_c, 5, 47, 100
7, 19896, Note_on_c, 5, 47, 0
7, 19920, Note_on_c, 5, 49, 100
7, 20136, Note_on_c, 5, 49, 0
7, 20160, Note_on_c, 5, 50, 100
7, 20376, Note_on_c, 5, 50, 0
7, 20400, Note_on_c, 5, 48, 100
7, 20616, Note_on_c, 5, 48, 0
7, 20640, Note_on_c, 5, 47, 100
7, 20856, Note_on_c, 5, 47, 0
7, 20880, Note_on_c, 5, 45, 100
7, 21096, Note_on_c, 5, 45, 0
7, 21120, Note_on_c, 5, 44, 100
7, 21552, Note_on_c, 5, 44, 0
7, 21840, Note_on_c, 5, 40, 100
7, 22056, Note_on_c, 5, 40, 0
7, 22080, Note_on_c, 5, 45, 100
7, 22296, Note_on_c, 5, 45, 0
7, 22320, Note_on_c, 5, 36, 100
7, 22428, Note_on_c, 5, 36, 0
7, 22440, Note_on_c, 5, 38, 100
7, 22548, Note_on_c, 5, 38, 0
7, 22560, Note_on_c, 5, 40, 100
7, 22776, Note_on_c, 5, 40, 0
7, 22800, Note_on_c, 5, 28, 100
7, 23016, Note_on_c, 5, 28, 0
7, 23040, Note_on_c, 5, 33, 100
7, 23256, Note_on_c, 5, 33, 0
7, 34560, Note_on_c, 5, 40, 100
7, 34776, Note_on_c, 5, 40, 0
7, 34800, Note_on_c, 5, 48, 100
7, 35016, Note_on_c, 5, 48, 0
7, 35040, Note_on_c, 5, 47, 100
7, 35256, Note_on_c, 5, 47, 0
7, 35280, Note_on_c, 5, 45, 100
7, 35496, Note_on_c, 5, 45, 0
7, 35520, Note_on_c, 5, 43, 100
7, 35952, Note_on_c, 5, 43, 0
7, 36000, Note_on_c, 5, 42, 100
7, 36432, Note_on_c, 5, 42, 0
7, 36480, Note_on_c, 5, 40, 100
7, 36912, Note_on_c, 5, 40, 0
7, 36960, Note_on_c, 5, 39, 100
7, 37392, Note_on_c, 5, 39, 0
7, 37440, Note_on_c, 5, 40, 100
7, 37656, Note_on_c, 5, 40, 0
7, 39360, Note_on_c, 5, 38, 100
7, 39792, Note_on_c, 5, 38, 0
7, 39840, Note_on_c, 5, 37, 100
7, 40272, Note_on_c, 5, 37, 0
7, 40320, Note_on_c, 5, 38, 100
7, 40536, Note_on_c, 5, 38, 0
7, 40560, Note_on_c, 5, 43, 100
7, 40992, Note_on_c, 5, 43, 0
7, 41040, Note_on_c, 5, 42, 100
7, 41256, Note_on_c, 5, 42, 0
7, 41280, Note_on_c, 5, 43, 100
7, 41496, Note_on_c, 5, 43, 0
7, 41520, Note_on_c, 5, 40, 100
7, 41736, Note_on_c, 5, 40, 0
7, 41760, Note_on_c, 5, 45, 100
7, 41976, Note_on_c, 5, 45, 0
7, 42000, Note_on_c, 5, 33, 100
7, 42216, Note_on_c, 5, 33, 0
7, 42240, Note_on_c, 5, 38, 100
7, 42456, Note_on_c, 5, 38, 0
7, 44160, Note_on_c, 5, 36, 100
7, 44268, Note_on_c, 5, 36, 0
7, 44400, Note_on_c, 5, 45, 100
7, 44508, Note_on_c, 5, 45, 0
7, 44640, Note_on_c, 5, 43, 100
7, 44748, Note_on_c, 5, 43, 0
7, 44880, Note_on_c, 5, 41, 100
7, 44988, Note_on_c, 5, 41, 0
7, 45120, Note_on_c, 5, 40, 100
7, 45228, Note_on_c, 5, 40, 0
7, 45360, Note_on_c, 5, 41, 100
7, 45468, Note_on_c, 5, 41, 0
7, 45600, Note_on_c, 5, 43, 100
7, 45708, Note_on_c, 5, 43, 0
7, 45840, Note_on_c, 5, 31, 100
7, 45948, Note_on_c, 5, 31, 0
7, 46080, Note_on_c, 5, 36, 100
7, 46188, Note_on_c, 5, 36, 0
7, 46320, Note_on_c, 5, 48, 100
7, 46428, Note_on_c, 5, 48, 0
7, 46560, Note_on_c, 5, 48, 100
7, 46668, Note_on_c, 5, 48, 0
7, 46800, Note_on_c, 5, 47, 100
7, 46908, Note_on_c, 5, 47, 0
7, 47040, Note_on_c, 5, 45, 100
7, 47148, Note_on_c, 5, 45, 0
7, 47280, Note_on_c, 5, 38, 100
7, 47388, Note_on_c, 5, 38, 0
7, 47520, Note_on_c, 5, 43, 100
7, 47628, Note_on_c, 5, 43, 0
7, 47760, Note_on_c, 5, 42, 100
7, 47868, Note_on_c, 5, 42, 0
7, 48000, Note_on_c, 5, 43, 100
7, 48108, Note_on_c, 5, 43, 0
7, 48240, Note_on_c, 5, 38, 100
7, 48348, Note_on_c, 5, 38, 0
7, 48480, Note_on_c, 5, 31, 100
7, 48588, Note_on_c, 5, 31, 0
7, 50160, Note_on_c, 5, 35, 100
7, 50268, Note_on_c, 5, 35, 0
7, 50400, Note_on_c, 5, 40, 100
7, 50508, Note_on_c, 5, 40, 0
7, 50640, Note_on_c, 5, 39, 100
7, 50748, Note_on_c, 5, 39, 0
7, 50880, Note_on_c, 5, 40, 100
7, 50988, Note_on_c, 5, 40, 0
7, 51120, Note_on_c, 5, 35, 100
7, 51228, Note_on_c, 5, 35, 0
7, 51360, Note_on_c, 5, 31, 100
7, 51468, Note_on_c, 5, 31, 0
7, 51600, Note_on_c, 5, 33, 100
7, 51708, Note_on_c, 5, 33, 0
7, 51840, Note_on_c, 5, 35, 100
7, 51948, Note_on_c, 5, 35, 0
7, 52080, Note_on_c, 5, 35, 100
7, 52188, Note_on_c, 5, 35, 0
7, 52320, Note_on_c, 5, 28, 100
7, 52428, Note_on_c, 5, 28, 0
7, 62640, Note_on_c, 5, 41, 100
7, 63072, Note_on_c, 5, 41, 0
7, 63120, Note_on_c, 5, 40, 100
7, 63576, Note_on_c, 5, 40, 0
7, 63600, Note_on_c, 5, 38, 100
7, 64032, Note_on_c, 5, 38, 0
7, 64080, Note_on_c, 5, 40, 100
7, 64242, Note_on_c, 5, 40, 0
7, 64260, Note_on_c, 5, 38, 100
7, 64314, Note_on_c, 5, 38, 0
7, 64320, Note_on_c, 5, 36, 100
7, 64536, Note_on_c, 5, 36, 0
7, 64560, Note_on_c, 5, 33, 100
7, 64776, Note_on_c, 5, 33, 0
7, 65040, Note_on_c, 5, 37, 100
7, 65256, Note_on_c, 5, 37, 0
7, 65280, Note_on_c, 5, 38, 100
7, 65496, Note_on_c, 5, 38, 0
7, 65520, Note_on_c, 5, 34, 100
7, 65736, Note_on_c, 5, 34, 0
7, 65760, Note_on_c, 5, 31, 100
7, 65976, Note_on_c, 5, 31, 0
7, 66000, Note_on_c, 5, 33, 100
7, 66216, Note_on_c, 5, 33, 0
7, 66240, Note_on_c, 5, 26, 100
7, 66456, Note_on_c, 5, 26, 0
7, 67920, Note_on_c, 5, 33, 100
7, 68136, Note_on_c, 5, 33, 0
7, 68160, Note_on_c, 5, 38, 100
7, 68376, Note_on_c, 5, 38, 0
7, 68880, Note_on_c, 5, 40, 100
7, 69096, Note_on_c, 5, 40, 0
7, 69120, Note_on_c, 5, 33, 100
7, 69336, Note_on_c, 5, 33, 0
7, 79680, Note_on_c, 5, 33, 100
7, 79680, Note_on_c, 5, 33, 100
7, 79896, Note_on_c, 5, 33, 0
7, 79896, Note_on_c, 5, 33, 0
7, 79920, Note_on_c, 5, 41, 100
7, 79920, Note_on_c, 5, 32, 100
7, 80136, Note_on_c, 5, 41, 0
7, 80136, Note_on_c, 5, 32, 0
7, 80160, Note_on_c, 5, 40, 100
7, 80160, Note_on_c, 5, 33, 100
7, 80376, Note_on_c, 5, 40, 0
7, 80376, Note_on_c, 5, 33, 0
7, 80400, Note_on_c, 5, 38, 100
7, 80400, Note_on_c, 5, 28, 100
7, 80616, Note_on_c, 5, 38, 0
7, 80616, Note_on_c, 5, 28, 0
7, 80640, Note_on_c, 5, 36, 100
7, 80640, Note_on_c, 5, 33, 100
7, 80856, Note_on_c, 5, 36, 0
7, 80856, Note_on_c, 5, 33, 0
7, 80880, Note_on_c, 5, 38, 100
7, 80880, Note_on_c, 5, 38, 100
7, 81096, Note_on_c, 5, 38, 0
7, 81096, Note_on_c, 5, 38, 0
7, 81120, Note_on_c, 5, 31, 100
7, 81120, Note_on_c, 5, 31, 100
7, 81336, Note_on_c, 5, 31, 0
7, 81336, Note_on_c, 5, 31, 0
7, 81360, Note_on_c, 5, 36, 100
7, 81360, Note_on_c, 5, 36, 100
7, 81576, Note_on_c, 5, 36, 0
7, 81576, Note_on_c, 5, 36, 0
7, 81600, Note_on_c, 5, 29, 100
7, 81816, Note_on_c, 5, 29, 0
7, 81840, Note_on_c, 5, 35, 100
7, 82056, Note_on_c, 5, 35, 0
7, 82080, Note_on_c, 5, 28, 100
7, 83736, Note_on_c, 5, 28, 0
7, 83760, Note_on_c, 5, 30, 100
7, 83976, Note_on_c, 5, 30, 0
7, 84000, Note_on_c, 5, 31, 100
7, 84216, Note_on_c, 5, 31, 0
7, 84240, Note_on_c, 5, 35, 100
7, 84456, Note_on_c, 5, 35, 0
7, 84480, Note_on_c, 5, 28, 100
7, 84696, Note_on_c, 5, 28, 0
7, 86880, Note_on_c, 5, 26, 100
7, 87096, Note_on_c, 5, 26, 0
7, 87360, Note_on_c, 5, 24, 100
7, 87576, Note_on_c, 5, 24, 0
7, 87840, Note_on_c, 5, 28, 100
7, 88056, Note_on_c, 5, 28, 0
7, 88320, Note_on_c, 5, 26, 100
7, 88536, Note_on_c, 5, 26, 0
7, 88800, Note_on_c, 5, 28, 100
7, 89016, Note_on_c, 5, 28, 0
7, 89280, Note_on_c, 5, 30, 100
7, 89496, Note_on_c, 5, 30, 0
7, 89760, Note_on_c, 5, 31, 100
7, 89976, Note_on_c, 5, 31, 0
7, 90240, Note_on_c, 5, 30, 100
7, 91104, Note_on_c, 5, 30, 0
7, 91200, Note_on_c, 5, 35, 100
7, 91416, Note_on_c, 5, 35, 0
7, 91440, Note_on_c, 5, 28, 100
7, 91656, Note_on_c, 5, 28, 0
7, 91680, Note_on_c, 5, 33, 100
7, 91896, Note_on_c, 5, 33, 0
7, 91920, Note_on_c, 5, 26, 100
7, 92136, Note_on_c, 5, 26, 0
7, 92160, Note_on_c, 5, 31, 100
7, 92376, Note_on_c, 5, 31, 0
7, 92400, Note_on_c, 5, 28, 100
7, 92616, Note_on_c, 5, 28, 0
7, 92640, Note_on_c, 5, 40, 100
7, 92856, Note_on_c, 5, 40, 0
7, 93120, Note_on_c, 5, 38, 100
7, 93336, Note_on_c, 5, 38, 0
7, 93600, Note_on_c, 5, 30, 100
7, 93816, Note_on_c, 5, 30, 0
7, 94080, Note_on_c, 5, 31, 100
7, 94296, Note_on_c, 5, 31, 0
7, 94560, Note_on_c, 5, 32, 100
7, 94776, Note_on_c, 5, 32, 0
7, 95040, Note_on_c, 5, 28, 100
7, 95256, Note_on_c, 5, 28, 0
7, 95520, Note_on_c, 5, 33, 100
7, 95736, Note_on_c, 5, 33, 0
7, 96000, Note_on_c, 5, 35, 100
7, 96216, Note_on_c, 5, 35, 0
7, 96480, Note_on_c, 5, 36, 100
7, 96696, Note_on_c, 5, 36, 0
7, 96960, Note_on_c, 5, 35, 100
7, 97176, Note_on_c, 5, 35, 0
7, 97440, Note_on_c, 5, 36, 100
7, 97656, Note_on_c, 5, 36, 0
7, 97920, Note_on_c, 5, 39, 100
7, 98136, Note_on_c, 5, 39, 0
7, 98400, Note_on_c, 5, 35, 100
7, 98616, Note_on_c, 5, 35, 0
7, 98880, Note_on_c, 5, 40, 100
7, 99096, Note_on_c, 5, 40, 0
7, 100800, Note_on_c, 5, 33, 100
7, 100800, Note_on_c, 5, 33, 100
7, 100908, Note_on_c, 5, 33, 0
7, 100908, Note_on_c, 5, 33, 0
7, 101040, Note_on_c, 5, 41, 100
7, 101040, Note_on_c, 5, 32, 100
7, 101148, Note_on_c, 5, 41, 0
7, 101148, Note_on_c, 5, 32, 0
7, 101280, Note_on_c, 5, 40, 100
7, 101280, Note_on_c, 5, 33, 100
7, 101388, Note_on_c, 5, 40, 0
7, 101388, Note_on_c, 5, 33, 0
7, 101520, Note_on_c, 5, 38, 100
7, 101520, Note_on_c, 5, 28, 100
7, 101628, Note_on_c, 5, 38, 0
7, 101628, Note_on_c, 5, 28, 0
7, 101760, Note_on_c, 5, 36, 100
7, 101760, Note_on_c, 5, 33, 100
7, 101868, Note_on_c, 5, 36, 0
7, 101868, Note_on_c, 5, 33, 0
7, 102000, Note_on_c, 5, 35, 100
7, 102000, Note_on_c, 5, 35, 100
7, 102108, Note_on_c, 5, 35, 0
7, 102108, Note_on_c, 5, 35, 0
7, 102240, Note_on_c, 5, 36, 100
7, 102240, Note_on_c, 5, 36, 100
7, 102348, Note_on_c, 5, 36, 0
7, 102348, Note_on_c, 5, 36, 0
7, 102480, Note_on_c, 5, 40, 100
7, 102480, Note_on_c, 5, 40, 100
7, 102588, Note_on_c, 5, 40, 0
7, 102588, Note_on_c, 5, 40, 0
7, 102720, Note_on_c, 5, 45, 100
7, 102828, Note_on_c, 5, 45, 0
7, 102960, Note_on_c, 5, 38, 100
7, 103068, Note_on_c, 5, 38, 0
7, 103200, Note_on_c, 5, 36, 100
7, 103308, Note_on_c, 5, 36, 0
7, 103440, Note_on_c, 5, 40, 100
7, 103548, Note_on_c, 5, 40, 0
7, 103680, Note_on_c, 5, 33, 100
7, 103896, Note_on_c, 5, 33, 0
7, 103920, Note_on_c, 5, 41, 100
7, 104136, Note_on_c, 5, 41, 0
7, 104160, Note_on_c, 5, 35, 100
7, 104376, Note_on_c, 5, 35, 0
7, 104400, Note_on_c, 5, 40, 100
7, 104616, Note_on_c, 5, 40, 0
7, 104640, Note_on_c, 5, 33, 100
7, 104856, Note_on_c, 5, 33, 0
7, 104880, Note_on_c, 5, 38, 100
7, 105096, Note_on_c, 5, 38, 0
7, 105120, Note_on_c, 5, 32, 100
7, 105552, Note_on_c, 5, 32, 0
7, 105600, Note_on_c, 5, 33, 100
7, 106032, Note_on_c, 5, 33, 0
7, 106080, Note_on_c, 5, 31, 100
7, 106512, Note_on_c, 5, 31, 0
7, 106560, Note_on_c, 5, 29, 100
7, 106992, Note_on_c, 5, 29, 0
7, 107040, Note_on_c, 5, 30, 100
7, 107472, Note_on_c, 5, 30, 0
7, 107520, Note_on_c, 5, 31, 100
7, 107952, Note_on_c, 5, 31, 0
7, 108000, Note_on_c, 5, 32, 100
7, 108432, Note_on_c, 5, 32, 0
7, 108480, Note_on_c, 5, 33, 100
7, 108696, Note_on_c, 5, 33, 0
7, 110400, Note_on_c, 5, 30, 100
7, 110508, Note_on_c, 5, 30, 0
7, 110880, Note_on_c, 5, 31, 100
7, 110988, Note_on_c, 5, 31, 0
7, 111360, Note_on_c, 5, 32, 100
7, 111468, Note_on_c, 5, 32, 0
7, 111840, Note_on_c, 5, 33, 100
7, 111948, Note_on_c, 5, 33, 0
7, 112320, Note_on_c, 5, 31, 100
7, 112428, Note_on_c, 5, 31, 0
7, 114240, Note_on_c, 5, 36, 100
7, 114456, Note_on_c, 5, 36, 0
7, 114480, Note_on_c, 5, 45, 100
7, 114696, Note_on_c, 5, 45, 0
7, 114720, Note_on_c, 5, 43, 100
7, 114936, Note_on_c, 5, 43, 0
7, 114960, Note_on_c, 5, 41, 100
7, 115176, Note_on_c, 5, 41, 0
7, 115200, Note_on_c, 5, 40, 100
7, 115632, Note_on_c, 5, 40, 0
7, 115680, Note_on_c, 5, 38, 100
7, 116112, Note_on_c, 5, 38, 0
7, 116160, Note_on_c, 5, 36, 100
7, 116592, Note_on_c, 5, 36, 0
7, 116640, Note_on_c, 5, 35, 100
7, 117072, Note_on_c, 5, 35, 0
7, 117120, Note_on_c, 5, 36, 100
7, 117552, Note_on_c, 5, 36, 0
7, 117600, Note_on_c, 5, 38, 100
7, 118032, Note_on_c, 5, 38, 0
7, 118080, Note_on_c, 5, 31, 100
7, 118512, Note_on_c, 5, 31, 0
7, 119280, Note_on_c, 5, 52, 100
7, 119496, Note_on_c, 5, 52, 0
7, 119520, Note_on_c, 5, 42, 100
7, 119736, Note_on_c, 5, 42, 0
7, 119760, Note_on_c, 5, 50, 100
7, 119976, Note_on_c, 5, 50, 0
7, 120000, Note_on_c, 5, 40, 100
7, 120216, Note_on_c, 5, 40, 0
7, 120240, Note_on_c, 5, 48, 100
7, 120456, Note_on_c, 5, 48, 0
7, 120480, Note_on_c, 5, 38, 100
7, 120696, Note_on_c, 5, 38, 0
7, 120720, Note_on_c, 5, 48, 100
7, 120936, Note_on_c, 5, 48, 0
7, 120960, Note_on_c, 5, 47, 100
7, 121176, Note_on_c, 5, 47, 0
7, 121200, Note_on_c, 5, 43, 100
7, 121416, Note_on_c, 5, 43, 0
7, 121440, Note_on_c, 5, 45, 100
7, 121656, Note_on_c, 5, 45, 0
7, 121680, Note_on_c, 5, 47, 100
7, 121896, Note_on_c, 5, 47, 0
7, 121920, Note_on_c, 5, 48, 100
7, 122136, Note_on_c, 5, 48, 0
7, 122160, Note_on_c, 5, 50, 100
7, 122376, Note_on_c, 5, 50, 0
7, 122400, Note_on_c, 5, 48, 100
7, 122616, Note_on_c, 5, 48, 0
7, 122640, Note_on_c, 5, 46, 100
7, 122856, Note_on_c, 5, 46, 0
7, 122880, Note_on_c, 5, 45, 100
7, 123096, Note_on_c, 5, 45, 0
7, 123120, Note_on_c, 5, 41, 100
7, 123336, Note_on_c, 5, 41, 0
7, 123360, Note_on_c, 5, 43, 100
7, 123576, Note_on_c, 5, 43, 0
7, 123600, Note_on_c, 5, 31, 100
7, 123816, Note_on_c, 5, 31, 0
7, 123840, Note_on_c, 5, 36, 100
7, 124056, Note_on_c, 5, 36, 0
7, 124080, Note_on_c, 5, 41, 100
7, 124512, Note_on_c, 5, 41, 0
7, 124560, Note_on_c, 5, 40, 100
7, 125016, Note_on_c, 5, 40, 0
7, 125040, Note_on_c, 5, 38, 100
7, 125148, Note_on_c, 5, 38, 0
7, 125160, Note_on_c, 5, 36, 100
7, 125268, Note_on_c, 5, 36, 0
7, 125280, Note_on_c, 5, 38, 100
7, 125496, Note_on_c, 5, 38, 0
7, 125520, Note_on_c, 5, 43, 100
7, 125736, Note_on_c, 5, 43, 0
7, 125760, Note_on_c, 5, 36, 100
7, 126192, Note_on_c, 5, 36, 0
7, 127200, Note_on_c, 5, 45, 100
7, 127632, Note_on_c, 5, 45, 0
7, 127680, Note_on_c, 5, 38, 100
7, 128112, Note_on_c, 5, 38, 0
7, 129120, Note_on_c, 5, 47, 100
7, 129552, Note_on_c, 5, 47, 0
7, 129600, Note_on_c, 5, 40, 100
7, 130776, Note_on_c, 5, 40, 0
7, 130800, Note_on_c, 5, 48, 100
7, 131016, Note_on_c, 5, 48, 0
7, 131040, Note_on_c, 5, 47, 100
7, 131256, Note_on_c, 5, 47, 0
7, 131280, Note_on_c, 5, 45, 100
7, 131496, Note_on_c, 5, 45, 0
7, 131520, Note_on_c, 5, 43, 100
7, 131952, Note_on_c, 5, 43, 0
7, 132000, Note_on_c, 5, 42, 100
7, 132432, Note_on_c, 5, 42, 0
7, 132480, Note_on_c, 5, 40, 100
7, 132912, Note_on_c, 5, 40, 0
7, 132960, Note_on_c, 5, 39, 100
7, 133392, Note_on_c, 5, 39, 0
7, 133440, Note_on_c, 5, 40, 100
7, 133656, Note_on_c, 5, 40, 0
7, 133680, Note_on_c, 5, 43, 100
7, 133896, Note_on_c, 5, 43, 0
7, 133920, Note_on_c, 5, 47, 100
7, 134136, Note_on_c, 5, 47, 0
7, 134160, Note_on_c, 5, 38, 100
7, 134376, Note_on_c, 5, 38, 0
7, 134400, Note_on_c, 5, 36, 100
7, 134616, Note_on_c, 5, 36, 0
7, 134640, Note_on_c, 5, 40, 100
7, 134856, Note_on_c, 5, 40, 0
7, 134880, Note_on_c, 5, 43, 100
7, 135096, Note_on_c, 5, 43, 0
7, 135120, Note_on_c, 5, 34, 100
7, 135336, Note_on_c, 5, 34, 0
7, 135360, Note_on_c, 5, 33, 100
7, 135576, Note_on_c, 5, 33, 0
7, 135600, Note_on_c, 5, 38, 100
7, 135816, Note_on_c, 5, 38, 0
7, 135840, Note_on_c, 5, 35, 100
7, 136056, Note_on_c, 5, 35, 0
7, 136080, Note_on_c, 5, 31, 100
7, 136296, Note_on_c, 5, 31, 0
7, 136320, Note_on_c, 5, 36, 100
7, 136536, Note_on_c, 5, 36, 0
7, 136560, Note_on_c, 5, 41, 100
7, 136776, Note_on_c, 5, 41, 0
7, 136800, Note_on_c, 5, 43, 100
7, 137016, Note_on_c, 5, 43, 0
7, 137040, Note_on_c, 5, 31, 100
7, 137256, Note_on_c, 5, 31, 0
7, 137280, Note_on_c, 5, 36, 100
7, 137496, Note_on_c, 5, 36, 0
7, 144240, Note_on_c, 5, 43, 100
7, 144456, Note_on_c, 5, 43, 0
7, 144480, Note_on_c, 5, 41, 100
7, 144696, Note_on_c, 5, 41, 0
7, 144720, Note_on_c, 5, 40, 100
7, 144936, Note_on_c, 5, 40, 0
7, 144960, Note_on_c, 5, 38, 100
7, 145176, Note_on_c, 5, 38, 0
7, 145200, Note_on_c, 5, 46, 100
7, 145632, Note_on_c, 5, 46, 0
7, 145680, Note_on_c, 5, 45, 100
7, 146136, Note_on_c, 5, 45, 0
7, 146160, Note_on_c, 5, 43, 100
7, 146592, Note_on_c, 5, 43, 0
7, 146640, Note_on_c, 5, 41, 100
7, 146748, Note_on_c, 5, 41, 0
7, 146760, Note_on_c, 5, 40, 100
7, 146868, Note_on_c, 5, 40, 0
7, 146880, Note_on_c, 5, 41, 100
7, 147096, Note_on_c, 5, 41, 0
7, 147120, Note_on_c, 5, 38, 100
7, 147336, Note_on_c, 5, 38, 0
7, 147600, Note_on_c, 5, 42, 100
7, 147816, Note_on_c, 5, 42, 0
7, 147840, Note_on_c, 5, 43, 100
7, 148056, Note_on_c, 5, 43, 0
7, 148080, Note_on_c, 5, 39, 100
7, 148296, Note_on_c, 5, 39, 0
7, 148320, Note_on_c, 5, 36, 100
7, 148536, Note_on_c, 5, 36, 0
7, 148560, Note_on_c, 5, 38, 100
7, 148776, Note_on_c, 5, 38, 0
7, 148800, Note_on_c, 5, 31, 100
7, 149016, Note_on_c, 5, 31, 0
7, 150480, Note_on_c, 5, 26, 100
7, 150696, Note_on_c, 5, 26, 0
7, 150720, Note_on_c, 5, 31, 100
7, 150936, Note_on_c, 5, 31, 0
7, 151440, Note_on_c, 5, 33, 100
7, 151656, Note_on_c, 5, 33, 0
7, 151680, Note_on_c, 5, 38, 100
7, 151896, Note_on_c, 5, 38, 0
7, 160320, Note_on_c, 5, 35, 100
7, 160428, Note_on_c, 5, 35, 0
7, 160800, Note_on_c, 5, 36, 100
7, 160908, Note_on_c, 5, 36, 0
7, 161280, Note_on_c, 5, 37, 100
7, 161388, Note_on_c, 5, 37, 0
7, 161760, Note_on_c, 5, 38, 100
7, 161868, Note_on_c, 5, 38, 0
7, 162240, Note_on_c, 5, 36, 100
7, 162348, Note_on_c, 5, 36, 0
7, 163440, Note_on_c, 5, 43, 100
7, 163548, Note_on_c, 5, 43, 0
7, 163680, Note_on_c, 5, 40, 100
7, 163788, Note_on_c, 5, 40, 0
7, 163920, Note_on_c, 5, 36, 100
7, 164028, Note_on_c, 5, 36, 0
7, 164160, Note_on_c, 5, 33, 100
7, 164268, Note_on_c, 5, 33, 0
7, 164880, Note_on_c, 5, 36, 100
7, 164988, Note_on_c, 5, 36, 0
7, 165120, Note_on_c, 5, 41, 100
7, 165228, Note_on_c, 5, 41, 0
7, 165840, Note_on_c, 5, 33, 100
7, 165948, Note_on_c, 5, 33, 0
7, 166080, Note_on_c, 5, 38, 100
7, 166188, Note_on_c, 5, 38, 0
7, 166800, Note_on_c, 5, 33, 100
7, 166908, Note_on_c, 5, 33, 0
7, 167040, Note_on_c, 5, 34, 100
7, 167148, Note_on_c, 5, 34, 0
7, 167760, Note_on_c, 5, 37, 100
7, 167868, Note_on_c, 5, 37, 0
7, 168000, Note_on_c, 5, 38, 100
7, 168108, Note_on_c, 5, 38, 0
7, 168720, Note_on_c, 5, 40, 100
7, 168828, Note_on_c, 5, 40, 0
7, 168960, Note_on_c, 5, 41, 100
7, 169068, Note_on_c, 5, 41, 0
7, 169680, Note_on_c, 5, 43, 100
7, 169788, Note_on_c, 5, 43, 0
7, 170160, Note_on_c, 5, 41, 100
7, 170268, Note_on_c, 5, 41, 0
7, 170640, Note_on_c, 5, 45, 100
7, 170748, Note_on_c, 5, 45, 0
7, 171120, Note_on_c, 5, 38, 100
7, 171228, Note_on_c, 5, 38, 0
7, 171600, Note_on_c, 5, 36, 100
7, 171708, Note_on_c, 5, 36, 0
7, 172080, Note_on_c, 5, 41, 100
7, 172296, Note_on_c, 5, 41, 0
7, 172320, Note_on_c, 5, 35, 100
7, 172536, Note_on_c, 5, 35, 0
7, 172560, Note_on_c, 5, 40, 100
7, 172776, Note_on_c, 5, 40, 0
7, 172800, Note_on_c, 5, 33, 100
7, 173016, Note_on_c, 5, 33, 0
7, 173040, Note_on_c, 5, 38, 100
7, 173256, Note_on_c, 5, 38, 0
7, 173280, Note_on_c, 5, 32, 100
7, 173496, Note_on_c, 5, 32, 0
7, 173520, Note_on_c, 5, 41, 100
7, 173736, Note_on_c, 5, 41, 0
7, 173760, Note_on_c, 5, 40, 100
7, 173976, Note_on_c, 5, 40, 0
7, 174000, Note_on_c, 5, 38, 100
7, 174216, Note_on_c, 5, 38, 0
7, 174240, Note_on_c, 5, 36, 100
7, 174936, Note_on_c, 5, 36, 0
7, 179760, Note_on_c, 5, 46, 100
7, 179868, Note_on_c, 5, 46, 0
7, 180240, Note_on_c, 5, 46, 100
7, 180348, Note_on_c, 5, 46, 0
7, 180720, Note_on_c, 5, 34, 100
7, 180828, Note_on_c, 5, 34, 0
7, 181200, Note_on_c, 5, 34, 100
7, 181308, Note_on_c, 5, 34, 0
7, 181680, Note_on_c, 5, 47, 100
7, 181788, Note_on_c, 5, 47, 0
7, 182160, Note_on_c, 5, 47, 100
7, 182268, Note_on_c, 5, 47, 0
7, 182640, Note_on_c, 5, 35, 100
7, 182748, Note_on_c, 5, 35, 0
7, 183120, Note_on_c, 5, 35, 100
7, 183228, Note_on_c, 5, 35, 0
7, 183360, Note_on_c, 5, 28, 100
7, 183468, Note_on_c, 5, 28, 0
7, 184080, Note_on_c, 5, 28, 100
7, 184188, Note_on_c, 5, 28, 0
7, 184320, Note_on_c, 5, 33, 100
7, 184428, Note_on_c, 5, 33, 0
7, 185040, Note_on_c, 5, 33, 100
7, 185148, Note_on_c, 5, 33, 0
7, 185280, Note_on_c, 5, 26, 100
7, 185388, Note_on_c, 5, 26, 0
7, 186720, Note_on_c, 5, 32, 100
7, 186828, Note_on_c, 5, 32, 0
7, 187200, Note_on_c, 5, 33, 100
7, 187308, Note_on_c, 5, 33, 0
7, 187680, Note_on_c, 5, 37, 100
7, 187788, Note_on_c, 5, 37, 0
7, 188160, Note_on_c, 5, 38, 100
7, 188268, Note_on_c, 5, 38, 0
7, 188640, Note_on_c, 5, 39, 100
7, 188748, Note_on_c, 5, 39, 0
7, 189120, Note_on_c, 5, 40, 100
7, 189228, Note_on_c, 5, 40, 0
7, 190080, Note_on_c, 5, 33, 100
7, 195096, Note_on_c, 5, 33, 0
7, 195120, Note_on_c, 5, 41, 100
7, 195336, Note_on_c, 5, 41, 0
7, 195360, Note_on_c, 5, 40, 100
7, 195576, Note_on_c, 5, 40, 0
7, 195600, Note_on_c, 5, 38, 100
7, 195816, Note_on_c, 5, 38, 0
7, 195840, Note_on_c, 5, 36, 100
7, 196056, Note_on_c, 5, 36, 0
7, 196080, Note_on_c, 5, 35, 100
7, 196296, Note_on_c, 5, 35, 0
7, 196320, Note_on_c, 5, 36, 100
7, 196536, Note_on_c, 5, 36, 0
7, 196560, Note_on_c, 5, 40, 100
7, 196776, Note_on_c, 5, 40, 0
7, 196800, Note_on_c, 5, 33, 100
7, 197016, Note_on_c, 5, 33, 0
7, 198000, Note_on_c, 5, 38, 100
7, 198216, Note_on_c, 5, 38, 0
7, 198240, Note_on_c, 5, 31, 100
7, 198456, Note_on_c, 5, 31, 0
7, 198480, Note_on_c, 5, 36, 100
7, 198696, Note_on_c, 5, 36, 0
7, 198720, Note_on_c, 5, 29, 100
7, 198936, Note_on_c, 5, 29, 0
7, 198960, Note_on_c, 5, 35, 100
7, 199176, Note_on_c, 5, 35, 0
7, 199200, Note_on_c, 5, 28, 100
7, 199416, Note_on_c, 5, 28, 0
7, 211203, Note_on_c, 5, 33, 100
7, 211635, Note_on_c, 5, 33, 0
7, 211683, Note_on_c, 5, 32, 100
7, 212115, Note_on_c, 5, 32, 0
7, 212163, Note_on_c, 5, 33, 100
7, 212379, Note_on_c, 5, 33, 0
7, 212403, Note_on_c, 5, 38, 100
7, 212619, Note_on_c, 5, 38, 0
7, 212643, Note_on_c, 5, 40, 100
7, 213339, Note_on_c, 5, 40, 0
7, 213363, Note_on_c, 5, 38, 100
7, 213795, Note_on_c, 5, 38, 0
7, 213843, Note_on_c, 5, 36, 100
7, 213951, Note_on_c, 5, 36, 0
7, 213963, Note_on_c, 5, 35, 100
7, 214071, Note_on_c, 5, 35, 0
7, 214083, Note_on_c, 5, 33, 100
7, 214515, Note_on_c, 5, 33, 0
7, 214563, Note_on_c, 5, 35, 100
7, 214995, Note_on_c, 5, 35, 0
7, 215043, Note_on_c, 5, 28, 100
7, 215259, Note_on_c, 5, 28, 0
7, 216243, Note_on_c, 5, 48, 100
7, 216459, Note_on_c, 5, 48, 0
7, 216483, Note_on_c, 5, 38, 100
7, 216699, Note_on_c, 5, 38, 0
7, 216723, Note_on_c, 5, 47, 100
7, 216939, Note_on_c, 5, 47, 0
7, 216963, Note_on_c, 5, 36, 100
7, 217179, Note_on_c, 5, 36, 0
7, 217203, Note_on_c, 5, 45, 100
7, 217419, Note_on_c, 5, 45, 0
7, 217443, Note_on_c, 5, 35, 100
7, 217659, Note_on_c, 5, 35, 0
7, 217683, Note_on_c, 5, 45, 100
7, 217899, Note_on_c, 5, 45, 0
7, 217923, Note_on_c, 5, 43, 100
7, 218139, Note_on_c, 5, 43, 0
7, 218163, Note_on_c, 5, 40, 100
7, 218379, Note_on_c, 5, 40, 0
7, 218403, Note_on_c, 5, 42, 100
7, 218619, Note_on_c, 5, 42, 0
7, 218643, Note_on_c, 5, 44, 100
7, 218859, Note_on_c, 5, 44, 0
7, 218883, Note_on_c, 5, 45, 100
7, 219099, Note_on_c, 5, 45, 0
7, 219123, Note_on_c, 5, 46, 100
7, 219339, Note_on_c, 5, 46, 0
7, 219363, Note_on_c, 5, 45, 100
7, 219579, Note_on_c, 5, 45, 0
7, 219603, Note_on_c, 5, 43, 100
7, 219819, Note_on_c, 5, 43, 0
7, 219843, Note_on_c, 5, 41, 100
7, 220059, Note_on_c, 5, 41, 0
7, 220083, Note_on_c, 5, 40, 100
7, 220191, Note_on_c, 5, 40, 0
7, 220203, Note_on_c, 5, 38, 100
7, 220311, Note_on_c, 5, 38, 0
7, 220323, Note_on_c, 5, 40, 100
7, 220755, Note_on_c, 5, 40, 0
7, 220803, Note_on_c, 5, 33, 100
7, 221019, Note_on_c, 5, 33, 0
7, 221043, Note_on_c, 5, 38, 100
7, 221475, Note_on_c, 5, 38, 0
7, 221523, Note_on_c, 5, 36, 100
7, 221979, Note_on_c, 5, 36, 0
7, 222003, Note_on_c, 5, 35, 100
7, 222111, Note_on_c, 5, 35, 0
7, 222123, Note_on_c, 5, 33, 100
7, 222231, Note_on_c, 5, 33, 0
7, 222243, Note_on_c, 5, 35, 100
7, 222459, Note_on_c, 5, 35, 0
7, 222483, Note_on_c, 5, 28, 100
7, 222699, Note_on_c, 5, 28, 0
7, 222723, Note_on_c, 5, 33, 100
7, 223155, Note_on_c, 5, 33, 0
7, 224163, Note_on_c, 5, 26, 100
7, 224595, Note_on_c, 5, 26, 0
7, 224643, Note_on_c, 5, 31, 100
7, 225075, Note_on_c, 5, 31, 0
7, 226083, Note_on_c, 5, 35, 100
7, 226515, Note_on_c, 5, 35, 0
7, 226563, Note_on_c, 5, 28, 100
7, 226995, Note_on_c, 5, 28, 0
7, 227523, Note_on_c, 5, 33, 100
7, 227739, Note_on_c, 5, 33, 0
7, 227763, Note_on_c, 5, 41, 100
7, 227979, Note_on_c, 5, 41, 0
7, 228003, Note_on_c, 5, 40, 100
7, 228219, Note_on_c, 5, 40, 0
7, 228243, Note_on_c, 5, 38, 100
7, 228459, Note_on_c, 5, 38, 0
7, 228483, Note_on_c, 5, 36, 100
7, 228915, Note_on_c, 5, 36, 0
7, 228963, Note_on_c, 5, 35, 100
7, 229395, Note_on_c, 5, 35, 0
7, 229443, Note_on_c, 5, 33, 100
7, 229875, Note_on_c, 5, 33, 0
7, 229923, Note_on_c, 5, 32, 100
7, 230355, Note_on_c, 5, 32, 0
7, 230403, Note_on_c, 5, 33, 100
7, 230619, Note_on_c, 5, 33, 0
7, 230643, Note_on_c, 5, 45, 100
7, 230859, Note_on_c, 5, 45, 0
7, 230883, Note_on_c, 5, 47, 100
7, 231099, Note_on_c, 5, 47, 0
7, 231123, Note_on_c, 5, 49, 100
7, 231339, Note_on_c, 5, 49, 0
7, 231363, Note_on_c, 5, 50, 100
7, 231579, Note_on_c, 5, 50, 0
7, 231603, Note_on_c, 5, 48, 100
7, 231819, Note_on_c, 5, 48, 0
7, 231843, Note_on_c, 5, 47, 100
7, 232059, Note_on_c, 5, 47, 0
7, 232083, Note_on_c, 5, 45, 100
7, 232299, Note_on_c, 5, 45, 0
7, 232323, Note_on_c, 5, 44, 100
7, 232755, Note_on_c, 5, 44, 0
7, 233043, Note_on_c, 5, 40, 100
7, 233259, Note_on_c, 5, 40, 0
7, 233283, Note_on_c, 5, 45, 100
7, 233499, Note_on_c, 5, 45, 0
7, 233523, Note_on_c, 5, 36, 100
7, 233631, Note_on_c, 5, 36, 0
7, 233643, Note_on_c, 5, 38, 100
7, 233751, Note_on_c, 5, 38, 0
7, 233763, Note_on_c, 5, 40, 100
7, 233979, Note_on_c, 5, 40, 0
7, 234003, Note_on_c, 5, 28, 100
7, 234219, Note_on_c, 5, 28, 0
7, 234243, Note_on_c, 5, 33, 100
7, 234675, Note_on_c, 5, 33, 0
7, 234675, End_track
8, 0, Start_track
8, 0, Sequence_number, 0
8, 0, SMPTE_offset, 0, 0, 0, 0, 0
8, 0, MIDI_port, 0
8, 0, Control_c, 5, 0, 0
8, 0, Control_c, 5, 32, 0
8, 0, Control_c, 5, 7, 80
8, 0, Program_c, 5, 48
8, 0, Control_c, 5, 10, 104
8, 5040, Note_on_c, 5, 60, 100
8, 5256, Note_on_c, 5, 60, 0
8, 5280, Note_on_c, 5, 50, 100
8, 5496, Note_on_c, 5, 50, 0
8, 5520, Note_on_c, 5, 59, 100
8, 5736, Note_on_c, 5, 59, 0
8, 5760, Note_on_c, 5, 48, 100
8, 5976, Note_on_c, 5, 48, 0
8, 6000, Note_on_c, 5, 57, 100
8, 6216, Note_on_c, 5, 57, 0
8, 6240, Note_on_c, 5, 47, 100
8, 6456, Note_on_c, 5, 47, 0
8, 6480, Note_on_c, 5, 57, 100
8, 6696, Note_on_c, 5, 57, 0
8, 6720, Note_on_c, 5, 55, 100
8, 6936, Note_on_c, 5, 55, 0
8, 6960, Note_on_c, 5, 52, 100
8, 7176, Note_on_c, 5, 52, 0
8, 7200, Note_on_c, 5, 54, 100
8, 7416, Note_on_c, 5, 54, 0
8, 7440, Note_on_c, 5, 56, 100
8, 7656, Note_on_c, 5, 56, 0
8, 7680, Note_on_c, 5, 57, 100
8, 7896, Note_on_c, 5, 57, 0
8, 7920, Note_on_c, 5, 58, 100
8, 8136, Note_on_c, 5, 58, 0
8, 8160, Note_on_c, 5, 57, 100
8, 8376, Note_on_c, 5, 57, 0
8, 8400, Note_on_c, 5, 55, 100
8, 8616, Note_on_c, 5, 55, 0
8, 8640, Note_on_c, 5, 53, 100
8, 8856, Note_on_c, 5, 53, 0
8, 8880, Note_on_c, 5, 52, 100
8, 8988, Note_on_c, 5, 52, 0
8, 9000, Note_on_c, 5, 50, 100
8, 9108, Note_on_c, 5, 50, 0
8, 9120, Note_on_c, 5, 52, 100
8, 9552, Note_on_c, 5, 52, 0
8, 9600, Note_on_c, 5, 45, 100
8, 9816, Note_on_c, 5, 45, 0
8, 9840, Note_on_c, 5, 50, 100
8, 10272, Note_on_c, 5, 50, 0
8, 10320, Note_on_c, 5, 48, 100
8, 10776, Note_on_c, 5, 48, 0
8, 10800, Note_on_c, 5, 47, 100
8, 10908, Note_on_c, 5, 47, 0
8, 10920, Note_on_c, 5, 45, 100
8, 11028, Note_on_c, 5, 45, 0
8, 11040, Note_on_c, 5, 47, 100
8, 11256, Note_on_c, 5, 47, 0
8, 11280, Note_on_c, 5, 40, 100
8, 11496, Note_on_c, 5, 40, 0
8, 11520, Note_on_c, 5, 45, 100
8, 11952, Note_on_c, 5, 45, 0
8, 12960, Note_on_c, 5, 38, 100
8, 13392, Note_on_c, 5, 38, 0
8, 13440, Note_on_c, 5, 43, 100
8, 13872, Note_on_c, 5, 43, 0
8, 14880, Note_on_c, 5, 47, 100
8, 15312, Note_on_c, 5, 47, 0
8, 15360, Note_on_c, 5, 40, 100
8, 15792, Note_on_c, 5, 40, 0
8, 16320, Note_on_c, 5, 45, 100
8, 16536, Note_on_c, 5, 45, 0
8, 16560, Note_on_c, 5, 53, 100
8, 16776, Note_on_c, 5, 53, 0
8, 16800, Note_on_c, 5, 52, 100
8, 17016, Note_on_c, 5, 52, 0
8, 17040, Note_on_c, 5, 50, 100
8, 17256, Note_on_c, 5, 50, 0
8, 17280, Note_on_c, 5, 48, 100
8, 17712, Note_on_c, 5, 48, 0
8, 17760, Note_on_c, 5, 47, 100
8, 18192, Note_on_c, 5, 47, 0
8, 18240, Note_on_c, 5, 45, 100
8, 18672, Note_on_c, 5, 45, 0
8, 18720, Note_on_c, 5, 44, 100
8, 19152, Note_on_c, 5, 44, 0
8, 19200, Note_on_c, 5, 45, 100
8, 19416, Note_on_c, 5, 45, 0
8, 19440, Note_on_c, 5, 57, 100
8, 19656, Note_on_c, 5, 57, 0
8, 19680, Note_on_c, 5, 59, 100
8, 19896, Note_on_c, 5, 59, 0
8, 19920, Note_on_c, 5, 61, 100
8, 20136, Note_on_c, 5, 61, 0
8, 20160, Note_on_c, 5, 62, 100
8, 20376, Note_on_c, 5, 62, 0
8, 20400, Note_on_c, 5, 60, 100
8, 20616, Note_on_c, 5, 60, 0
8, 20640, Note_on_c, 5, 59, 100
8, 20856, Note_on_c, 5, 59, 0
8, 20880, Note_on_c, 5, 57, 100
8, 21096, Note_on_c, 5, 57, 0
8, 21120, Note_on_c, 5, 56, 100
8, 21552, Note_on_c, 5, 56, 0
8, 21840, Note_on_c, 5, 52, 100
8, 22056, Note_on_c, 5, 52, 0
8, 22080, Note_on_c, 5, 57, 100
8, 22296, Note_on_c, 5, 57, 0
8, 22320, Note_on_c, 5, 48, 100
8, 22428, Note_on_c, 5, 48, 0
8, 22440, Note_on_c, 5, 50, 100
8, 22548, Note_on_c, 5, 50, 0
8, 22560, Note_on_c, 5, 52, 100
8, 22776, Note_on_c, 5, 52, 0
8, 22800, Note_on_c, 5, 40, 100
8, 23016, Note_on_c, 5, 40, 0
8, 23040, Note_on_c, 5, 45, 100
8, 23256, Note_on_c, 5, 45, 0
8, 34560, Note_on_c, 5, 52, 100
8, 34776, Note_on_c, 5, 52, 0
8, 34800, Note_on_c, 5, 60, 100
8, 35016, Note_on_c, 5, 60, 0
8, 35040, Note_on_c, 5, 59, 100
8, 35256, Note_on_c, 5, 59, 0
8, 35280, Note_on_c, 5, 57, 100
8, 35496, Note_on_c, 5, 57, 0
8, 35520, Note_on_c, 5, 55, 100
8, 35952, Note_on_c, 5, 55, 0
8, 36000, Note_on_c, 5, 54, 100
8, 36432, Note_on_c, 5, 54, 0
8, 36480, Note_on_c, 5, 52, 100
8, 36912, Note_on_c, 5, 52, 0
8, 36960, Note_on_c, 5, 51, 100
8, 37392, Note_on_c, 5, 51, 0
8, 37440, Note_on_c, 5, 52, 100
8, 37656, Note_on_c, 5, 52, 0
8, 39360, Note_on_c, 5, 50, 100
8, 39792, Note_on_c, 5, 50, 0
8, 39840, Note_on_c, 5, 49, 100
8, 40272, Note_on_c, 5, 49, 0
8, 40320, Note_on_c, 5, 50, 100
8, 40536, Note_on_c, 5, 50, 0
8, 40560, Note_on_c, 5, 55, 100
8, 40992, Note_on_c, 5, 55, 0
8, 41040, Note_on_c, 5, 54, 100
8, 41256, Note_on_c, 5, 54, 0
8, 41280, Note_on_c, 5, 55, 100
8, 41496, Note_on_c, 5, 55, 0
8, 41520, Note_on_c, 5, 52, 100
8, 41736, Note_on_c, 5, 52, 0
8, 41760, Note_on_c, 5, 57, 100
8, 41976, Note_on_c, 5, 57, 0
8, 42000, Note_on_c, 5, 45, 100
8, 42216, Note_on_c, 5, 45, 0
8, 42240, Note_on_c, 5, 50, 100
8, 42456, Note_on_c, 5, 50, 0
8, 44160, Note_on_c, 5, 48, 100
8, 44268, Note_on_c, 5, 48, 0
8, 44400, Note_on_c, 5, 57, 100
8, 44508, Note_on_c, 5, 57, 0
8, 44640, Note_on_c, 5, 55, 100
8, 44748, Note_on_c, 5, 55, 0
8, 44880, Note_on_c, 5, 53, 100
8, 44988, Note_on_c, 5, 53, 0
8, 45120, Note_on_c, 5, 52, 100
8, 45228, Note_on_c, 5, 52, 0
8, 45360, Note_on_c, 5, 53, 100
8, 45468, Note_on_c, 5, 53, 0
8, 45600, Note_on_c, 5, 55, 100
8, 45708, Note_on_c, 5, 55, 0
8, 45840, Note_on_c, 5, 43, 100
8, 45948, Note_on_c, 5, 43, 0
8, 46080, Note_on_c, 5, 48, 100
8, 46188, Note_on_c, 5, 48, 0
8, 46320, Note_on_c, 5, 60, 100
8, 46428, Note_on_c, 5, 60, 0
8, 46560, Note_on_c, 5, 60, 100
8, 46668, Note_on_c, 5, 60, 0
8, 46800, Note_on_c, 5, 59, 100
8, 46908, Note_on_c, 5, 59, 0
8, 47040, Note_on_c, 5, 57, 100
8, 47148, Note_on_c, 5, 57, 0
8, 47280, Note_on_c, 5, 50, 100
8, 47388, Note_on_c, 5, 50, 0
8, 47520, Note_on_c, 5, 55, 100
8, 47628, Note_on_c, 5, 55, 0
8, 47760, Note_on_c, 5, 54, 100
8, 47868, Note_on_c, 5, 54, 0
8, 48000, Note_on_c, 5, 55, 100
8, 48108, Note_on_c, 5, 55, 0
8, 48240, Note_on_c, 5, 50, 100
8, 48348, Note_on_c, 5, 50, 0
8, 48480, Note_on_c, 5, 43, 100
8, 48588, Note_on_c, 5, 43, 0
8, 50160, Note_on_c, 5, 47, 100
8, 50268, Note_on_c, 5, 47, 0
8, 50400, Note_on_c, 5, 52, 100
8, 50508, Note_on_c, 5, 52, 0
8, 50640, Note_on_c, 5, 51, 100
8, 50748, Note_on_c, 5, 51, 0
8, 50880, Note_on_c, 5, 52, 100
8, 50988, Note_on_c, 5, 52, 0
8, 51120, Note_on_c, 5, 47, 100
8, 51228, Note_on_c, 5, 47, 0
8, 51360, Note_on_c, 5, 43, 100
8, 51468, Note_on_c, 5, 43, 0
8, 51600, Note_on_c, 5, 45, 100
8, 51708, Note_on_c, 5, 45, 0
8, 51840, Note_on_c, 5, 47, 100
8, 51948, Note_on_c, 5, 47, 0
8, 52080, Note_on_c, 5, 47, 100
8, 52188, Note_on_c, 5, 47, 0
8, 52320, Note_on_c, 5, 40, 100
8, 52428, Note_on_c, 5, 40, 0
8, 62640, Note_on_c, 5, 53, 100
8, 63072, Note_on_c, 5, 53, 0
8, 63120, Note_on_c, 5, 52, 100
8, 63576, Note_on_c, 5, 52, 0
8, 63600, Note_on_c, 5, 50, 100
8, 64032, Note_on_c, 5, 50, 0
8, 64080, Note_on_c, 5, 52, 100
8, 64242, Note_on_c, 5, 52, 0
8, 64260, Note_on_c, 5, 50, 100
8, 64314, Note_on_c, 5, 50, 0
8, 64320, Note_on_c, 5, 48, 100
8, 64536, Note_on_c, 5, 48, 0
8, 64560, Note_on_c, 5, 45, 100
8, 64776, Note_on_c, 5, 45, 0
8, 65040, Note_on_c, 5, 49, 100
8, 65256, Note_on_c, 5, 49, 0
8, 65280, Note_on_c, 5, 50, 100
8, 65496, Note_on_c, 5, 50, 0
8, 65520, Note_on_c, 5, 46, 100
8, 65736, Note_on_c, 5, 46, 0
8, 65760, Note_on_c, 5, 43, 100
8, 65976, Note_on_c, 5, 43, 0
8, 66000, Note_on_c, 5, 45, 100
8, 66216, Note_on_c, 5, 45, 0
8, 66240, Note_on_c, 5, 38, 100
8, 66456, Note_on_c, 5, 38, 0
8, 67920, Note_on_c, 5, 45, 100
8, 68136, Note_on_c, 5, 45, 0
8, 68160, Note_on_c, 5, 50, 100
8, 68376, Note_on_c, 5, 50, 0
8, 68880, Note_on_c, 5, 52, 100
8, 69096, Note_on_c, 5, 52, 0
8, 69120, Note_on_c, 5, 45, 100
8, 69336, Note_on_c, 5, 45, 0
8, 79680, Note_on_c, 5, 45, 100
8, 79680, Note_on_c, 5, 45, 100
8, 79896, Note_on_c, 5, 45, 0
8, 79896, Note_on_c, 5, 45, 0
8, 79920, Note_on_c, 5, 53, 100
8, 79920, Note_on_c, 5, 44, 100
8, 80136, Note_on_c, 5, 53, 0
8, 80136, Note_on_c, 5, 44, 0
8, 80160, Note_on_c, 5, 52, 100
8, 80160, Note_on_c, 5, 45, 100
8, 80376, Note_on_c, 5, 52, 0
8, 80376, Note_on_c, 5, 45, 0
8, 80400, Note_on_c, 5, 50, 100
8, 80400, Note_on_c, 5, 40, 100
8, 80616, Note_on_c, 5, 50, 0
8, 80616, Note_on_c, 5, 40, 0
8, 80640, Note_on_c, 5, 48, 100
8, 80640, Note_on_c, 5, 45, 100
8, 80856, Note_on_c, 5, 48, 0
8, 80856, Note_on_c, 5, 45, 0
8, 80880, Note_on_c, 5, 50, 100
8, 80880, Note_on_c, 5, 50, 100
8, 81096, Note_on_c, 5, 50, 0
8, 81096, Note_on_c, 5, 50, 0
8, 81120, Note_on_c, 5, 43, 100
8, 81120, Note_on_c, 5, 43, 100
8, 81336, Note_on_c, 5, 43, 0
8, 81336, Note_on_c, 5, 43, 0
8, 81360, Note_on_c, 5, 48, 100
8, 81360, Note_on_c, 5, 48, 100
8, 81576, Note_on_c, 5, 48, 0
8, 81576, Note_on_c, 5, 48, 0
8, 81600, Note_on_c, 5, 41, 100
8, 81816, Note_on_c, 5, 41, 0
8, 81840, Note_on_c, 5, 47, 100
8, 82056, Note_on_c, 5, 47, 0
8, 82080, Note_on_c, 5, 40, 100
8, 83736, Note_on_c, 5, 40, 0
8, 83760, Note_on_c, 5, 42, 100
8, 83976, Note_on_c, 5, 42, 0
8, 84000, Note_on_c, 5, 43, 100
8, 84216, Note_on_c, 5, 43, 0
8, 84240, Note_on_c, 5, 47, 100
8, 84456, Note_on_c, 5, 47, 0
8, 84480, Note_on_c, 5, 40, 100
8, 84696, Note_on_c, 5, 40, 0
8, 86880, Note_on_c, 5, 38, 100
8, 87096, Note_on_c, 5, 38, 0
8, 87360, Note_on_c, 5, 36, 100
8, 87576, Note_on_c, 5, 36, 0
8, 87840, Note_on_c, 5, 40, 100
8, 88056, Note_on_c, 5, 40, 0
8, 88320, Note_on_c, 5, 38, 100
8, 88536, Note_on_c, 5, 38, 0
8, 88800, Note_on_c, 5, 40, 100
8, 89016, Note_on_c, 5, 40, 0
8, 89280, Note_on_c, 5, 42, 100
8, 89496, Note_on_c, 5, 42, 0
8, 89760, Note_on_c, 5, 43, 100
8, 89976, Note_on_c, 5, 43, 0
8, 90240, Note_on_c, 5, 42, 100
8, 91104, Note_on_c, 5, 42, 0
8, 91200, Note_on_c, 5, 47, 100
8, 91416, Note_on_c, 5, 47, 0
8, 91440, Note_on_c, 5, 40, 100
8, 91656, Note_on_c, 5, 40, 0
8, 91680, Note_on_c, 5, 45, 100
8, 91896, Note_on_c, 5, 45, 0
8, 91920, Note_on_c, 5, 38, 100
8, 92136, Note_on_c, 5, 38, 0
8, 92160, Note_on_c, 5, 43, 100
8, 92376, Note_on_c, 5, 43, 0
8, 92400, Note_on_c, 5, 40, 100
8, 92616, Note_on_c, 5, 40, 0
8, 92640, Note_on_c, 5, 52, 100
8, 92856, Note_on_c, 5, 52, 0
8, 93120, Note_on_c, 5, 50, 100
8, 93336, Note_on_c, 5, 50, 0
8, 93600, Note_on_c, 5, 42, 100
8, 93816, Note_on_c, 5, 42, 0
8, 94080, Note_on_c, 5, 43, 100
8, 94296, Note_on_c, 5, 43, 0
8, 94560, Note_on_c, 5, 44, 100
8, 94776, Note_on_c, 5, 44, 0
8, 95040, Note_on_c, 5, 40, 100
8, 95256, Note_on_c, 5, 40, 0
8, 95520, Note_on_c, 5, 45, 100
8, 95736, Note_on_c, 5, 45, 0
8, 96000, Note_on_c, 5, 47, 100
8, 96216, Note_on_c, 5, 47, 0
8, 96480, Note_on_c, 5, 48, 100
8, 96696, Note_on_c, 5, 48, 0
8, 96960, Note_on_c, 5, 47, 100
8, 97176, Note_on_c, 5, 47, 0
8, 97440, Note_on_c, 5, 48, 100
8, 97656, Note_on_c, 5, 48, 0
8, 97920, Note_on_c, 5, 51, 100
8, 98136, Note_on_c, 5, 51, 0
8, 98400, Note_on_c, 5, 47, 100
8, 98616, Note_on_c, 5, 47, 0
8, 98880, Note_on_c, 5, 52, 100
8, 99096, Note_on_c, 5, 52, 0
8, 100800, Note_on_c, 5, 45, 100
8, 100800, Note_on_c, 5, 45, 100
8, 100908, Note_on_c, 5, 45, 0
8, 100908, Note_on_c, 5, 45, 0
8, 101040, Note_on_c, 5, 53, 100
8, 101040, Note_on_c, 5, 44, 100
8, 101148, Note_on_c, 5, 53, 0
8, 101148, Note_on_c, 5, 44, 0
8, 101280, Note_on_c, 5, 52, 100
8, 101280, Note_on_c, 5, 45, 100
8, 101388, Note_on_c, 5, 52, 0
8, 101388, Note_on_c, 5, 45, 0
8, 101520, Note_on_c, 5, 50, 100
8, 101520, Note_on_c, 5, 40, 100
8, 101628, Note_on_c, 5, 50, 0
8, 101628, Note_on_c, 5, 40, 0
8, 101760, Note_on_c, 5, 48, 100
8, 101760, Note_on_c, 5, 45, 100
8, 101868, Note_on_c, 5, 48, 0
8, 101868, Note_on_c, 5, 45, 0
8, 102000, Note_on_c, 5, 47, 100
8, 102000, Note_on_c, 5, 47, 100
8, 102108, Note_on_c, 5, 47, 0
8, 102108, Note_on_c, 5, 47, 0
8, 102240, Note_on_c, 5, 48, 100
8, 102240, Note_on_c, 5, 48, 100
8, 102348, Note_on_c, 5, 48, 0
8, 102348, Note_on_c, 5, 48, 0
8, 102480, Note_on_c, 5, 52, 100
8, 102480, Note_on_c, 5, 52, 100
8, 102588, Note_on_c, 5, 52, 0
8, 102588, Note_on_c, 5, 52, 0
8, 102720, Note_on_c, 5, 57, 100
8, 102828, Note_on_c, 5, 57, 0
8, 102960, Note_on_c, 5, 50, 100
8, 103068, Note_on_c, 5, 50, 0
8, 103200, Note_on_c, 5, 48, 100
8, 103308, Note_on_c, 5, 48, 0
8, 103440, Note_on_c, 5, 52, 100
8, 103548, Note_on_c, 5, 52, 0
8, 103680, Note_on_c, 5, 45, 100
8, 103896, Note_on_c, 5, 45, 0
8, 103920, Note_on_c, 5, 53, 100
8, 104136, Note_on_c, 5, 53, 0
8, 104160, Note_on_c, 5, 47, 100
8, 104376, Note_on_c, 5, 47, 0
8, 104400, Note_on_c, 5, 52, 100
8, 104616, Note_on_c, 5, 52, 0
8, 104640, Note_on_c, 5, 45, 100
8, 104856, Note_on_c, 5, 45, 0
8, 104880, Note_on_c, 5, 50, 100
8, 105096, Note_on_c, 5, 50, 0
8, 105120, Note_on_c, 5, 44, 100
8, 105552, Note_on_c, 5, 44, 0
8, 105600, Note_on_c, 5, 45, 100
8, 106032, Note_on_c, 5, 45, 0
8, 106080, Note_on_c, 5, 43, 100
8, 106512, Note_on_c, 5, 43, 0
8, 106560, Note_on_c, 5, 41, 100
8, 106992, Note_on_c, 5, 41, 0
8, 107040, Note_on_c, 5, 42, 100
8, 107472, Note_on_c, 5, 42, 0
8, 107520, Note_on_c, 5, 43, 100
8, 107952, Note_on_c, 5, 43, 0
8, 108000, Note_on_c, 5, 44, 100
8, 108432, Note_on_c, 5, 44, 0
8, 108480, Note_on_c, 5, 45, 100
8, 108696, Note_on_c, 5, 45, 0
8, 110400, Note_on_c, 5, 42, 100
8, 110508, Note_on_c, 5, 42, 0
8, 110880, Note_on_c, 5, 43, 100
8, 110988, Note_on_c, 5, 43, 0
8, 111360, Note_on_c, 5, 44, 100
8, 111468, Note_on_c, 5, 44, 0
8, 111840, Note_on_c, 5, 45, 100
8, 111948, Note_on_c, 5, 45, 0
8, 112320, Note_on_c, 5, 43, 100
8, 112428, Note_on_c, 5, 43, 0
8, 114240, Note_on_c, 5, 48, 100
8, 114456, Note_on_c, 5, 48, 0
8, 114480, Note_on_c, 5, 57, 100
8, 114696, Note_on_c, 5, 57, 0
8, 114720, Note_on_c, 5, 55, 100
8, 114936, Note_on_c, 5, 55, 0
8, 114960, Note_on_c, 5, 53, 100
8, 115176, Note_on_c, 5, 53, 0
8, 115200, Note_on_c, 5, 52, 100
8, 115632, Note_on_c, 5, 52, 0
8, 115680, Note_on_c, 5, 50, 100
8, 116112, Note_on_c, 5, 50, 0
8, 116160, Note_on_c, 5, 48, 100
8, 116592, Note_on_c, 5, 48, 0
8, 116640, Note_on_c, 5, 47, 100
8, 117072, Note_on_c, 5, 47, 0
8, 117120, Note_on_c, 5, 48, 100
8, 117552, Note_on_c, 5, 48, 0
8, 117600, Note_on_c, 5, 50, 100
8, 118032, Note_on_c, 5, 50, 0
8, 118080, Note_on_c, 5, 43, 100
8, 118512, Note_on_c, 5, 43, 0
8, 119280, Note_on_c, 5, 64, 100
8, 119496, Note_on_c, 5, 64, 0
8, 119520, Note_on_c, 5, 54, 100
8, 119736, Note_on_c, 5, 54, 0
8, 119760, Note_on_c, 5, 62, 100
8, 119976, Note_on_c, 5, 62, 0
8, 120000, Note_on_c, 5, 52, 100
8, 120216, Note_on_c, 5, 52, 0
8, 120240, Note_on_c, 5, 60, 100
8, 120456, Note_on_c, 5, 60, 0
8, 120480, Note_on_c, 5, 50, 100
8, 120696, Note_on_c, 5, 50, 0
8, 120720, Note_on_c, 5, 60, 100
8, 120936, Note_on_c, 5, 60, 0
8, 120960, Note_on_c, 5, 59, 100
8, 121176, Note_on_c, 5, 59, 0
8, 121200, Note_on_c, 5, 55, 100
8, 121416, Note_on_c, 5, 55, 0
8, 121440, Note_on_c, 5, 57, 100
8, 121656, Note_on_c, 5, 57, 0
8, 121680, Note_on_c, 5, 59, 100
8, 121896, Note_on_c, 5, 59, 0
8, 121920, Note_on_c, 5, 60, 100
8, 122136, Note_on_c, 5, 60, 0
8, 122160, Note_on_c, 5, 62, 100
8, 122376, Note_on_c, 5, 62, 0
8, 122400, Note_on_c, 5, 60, 100
8, 122616, Note_on_c, 5, 60, 0
8, 122640, Note_on_c, 5, 58, 100
8, 122856, Note_on_c, 5, 58, 0
8, 122880, Note_on_c, 5, 57, 100
8, 123096, Note_on_c, 5, 57, 0
8, 123120, Note_on_c, 5, 53, 100
8, 123336, Note_on_c, 5, 53, 0
8, 123360, Note_on_c, 5, 55, 100
8, 123576, Note_on_c, 5, 55, 0
8, 123600, Note_on_c, 5, 43, 100
8, 123816, Note_on_c, 5, 43, 0
8, 123840, Note_on_c, 5, 48, 100
8, 124056, Note_on_c, 5, 48, 0
8, 124080, Note_on_c, 5, 53, 100
8, 124512, Note_on_c, 5, 53, 0
8, 124560, Note_on_c, 5, 52, 100
8, 125016, Note_on_c, 5, 52, 0
8, 125040, Note_on_c, 5, 50, 100
8, 125148, Note_on_c, 5, 50, 0
8, 125160, Note_on_c, 5, 48, 100
8, 125268, Note_on_c, 5, 48, 0
8, 125280, Note_on_c, 5, 50, 100
8, 125496, Note_on_c, 5, 50, 0
8, 125520, Note_on_c, 5, 55, 100
8, 125736, Note_on_c, 5, 55, 0
8, 125760, Note_on_c, 5, 48, 100
8, 126192, Note_on_c, 5, 48, 0
8, 127200, Note_on_c, 5, 57, 100
8, 127632, Note_on_c, 5, 57, 0
8, 127680, Note_on_c, 5, 50, 100
8, 128112, Note_on_c, 5, 50, 0
8, 129120, Note_on_c, 5, 59, 100
8, 129552, Note_on_c, 5, 59, 0
8, 129600, Note_on_c, 5, 52, 100
8, 130776, Note_on_c, 5, 52, 0
8, 130800, Note_on_c, 5, 60, 100
8, 131016, Note_on_c, 5, 60, 0
8, 131040, Note_on_c, 5, 59, 100
8, 131256, Note_on_c, 5, 59, 0
8, 131280, Note_on_c, 5, 57, 100
8, 131496, Note_on_c, 5, 57, 0
8, 131520, Note_on_c, 5, 55, 100
8, 131952, Note_on_c, 5, 55, 0
8, 132000, Note_on_c, 5, 54, 100
8, 132432, Note_on_c, 5, 54, 0
8, 132480, Note_on_c, 5, 52, 100
8, 132912, Note_on_c, 5, 52, 0
8, 132960, Note_on_c, 5, 51, 100
8, 133392, Note_on_c, 5, 51, 0
8, 133440, Note_on_c, 5, 52, 100
8, 133656, Note_on_c, 5, 52, 0
8, 133680, Note_on_c, 5, 55, 100
8, 133896, Note_on_c, 5, 55, 0
8, 133920, Note_on_c, 5, 59, 100
8, 134136, Note_on_c, 5, 59, 0
8, 134160, Note_on_c, 5, 50, 100
8, 134376, Note_on_c, 5, 50, 0
8, 134400, Note_on_c, 5, 48, 100
8, 134616, Note_on_c, 5, 48, 0
8, 134640, Note_on_c, 5, 52, 100
8, 134856, Note_on_c, 5, 52, 0
8, 134880, Note_on_c, 5, 55, 100
8, 135096, Note_on_c, 5, 55, 0
8, 135120, Note_on_c, 5, 46, 100
8, 135336, Note_on_c, 5, 46, 0
8, 135360, Note_on_c, 5, 45, 100
8, 135576, Note_on_c, 5, 45, 0
8, 135600, Note_on_c, 5, 50, 100
8, 135816, Note_on_c, 5, 50, 0
8, 135840, Note_on_c, 5, 47, 100
8, 136056, Note_on_c, 5, 47, 0
8, 136080, Note_on_c, 5, 43, 100
8, 136296, Note_on_c, 5, 43, 0
8, 136320, Note_on_c, 5, 48, 100
8, 136536, Note_on_c, 5, 48, 0
8, 136560, Note_on_c, 5, 53, 100
8, 136776, Note_on_c, 5, 53, 0
8, 136800, Note_on_c, 5, 55, 100
8, 137016, Note_on_c, 5, 55, 0
8, 137040, Note_on_c, 5, 43, 100
8, 137256, Note_on_c, 5, 43, 0
8, 137280, Note_on_c, 5, 48, 100
8, 137496, Note_on_c, 5, 48, 0
8, 144240, Note_on_c, 5, 55, 100
8, 144456, Note_on_c, 5, 55, 0
8, 144480, Note_on_c, 5, 53, 100
8, 144696, Note_on_c, 5, 53, 0
8, 144720, Note_on_c, 5, 52, 100
8, 144936, Note_on_c, 5, 52, 0
8, 144960, Note_on_c, 5, 50, 100
8, 145176, Note_on_c, 5, 50, 0
8, 145200, Note_on_c, 5, 58, 100
8, 145632, Note_on_c, 5, 58, 0
8, 145680, Note_on_c, 5, 57, 100
8, 146136, Note_on_c, 5, 57, 0
8, 146160, Note_on_c, 5, 55, 100
8, 146592, Note_on_c, 5, 55, 0
8, 146640, Note_on_c, 5, 53, 100
8, 146748, Note_on_c, 5, 53, 0
8, 146760, Note_on_c, 5, 52, 100
8, 146868, Note_on_c, 5, 52, 0
8, 146880, Note_on_c, 5, 53, 100
8, 147096, Note_on_c, 5, 53, 0
8, 147120, Note_on_c, 5, 50, 100
8, 147336, Note_on_c, 5, 50, 0
8, 147600, Note_on_c, 5, 54, 100
8, 147816, Note_on_c, 5, 54, 0
8, 147840, Note_on_c, 5, 55, 100
8, 148056, Note_on_c, 5, 55, 0
8, 148080, Note_on_c, 5, 51, 100
8, 148296, Note_on_c, 5, 51, 0
8, 148320, Note_on_c, 5, 48, 100
8, 148536, Note_on_c, 5, 48, 0
8, 148560, Note_on_c, 5, 50, 100
8, 148776, Note_on_c, 5, 50, 0
8, 148800, Note_on_c, 5, 43, 100
8, 149016, Note_on_c, 5, 43, 0
8, 150480, Note_on_c, 5, 38, 100
8, 150696, Note_on_c, 5, 38, 0
8, 150720, Note_on_c, 5, 43, 100
8, 150936, Note_on_c, 5, 43, 0
8, 151440, Note_on_c, 5, 45, 100
8, 151656, Note_on_c, 5, 45, 0
8, 151680, Note_on_c, 5, 50, 100
8, 151896, Note_on_c, 5, 50, 0
8, 160320, Note_on_c, 5, 47, 100
8, 160428, Note_on_c, 5, 47, 0
8, 160800, Note_on_c, 5, 48, 100
8, 160908, Note_on_c, 5, 48, 0
8, 161280, Note_on_c, 5, 49, 100
8, 161388, Note_on_c, 5, 49, 0
8, 161760, Note_on_c, 5, 50, 100
8, 161868, Note_on_c, 5, 50, 0
8, 162240, Note_on_c, 5, 48, 100
8, 162348, Note_on_c, 5, 48, 0
8, 163440, Note_on_c, 5, 55, 100
8, 163548, Note_on_c, 5, 55, 0
8, 163680, Note_on_c, 5, 52, 100
8, 163788, Note_on_c, 5, 52, 0
8, 163920, Note_on_c, 5, 48, 100
8, 164028, Note_on_c, 5, 48, 0
8, 164160, Note_on_c, 5, 45, 100
8, 164268, Note_on_c, 5, 45, 0
8, 164880, Note_on_c, 5, 48, 100
8, 164988, Note_on_c, 5, 48, 0
8, 165120, Note_on_c, 5, 53, 100
8, 165228, Note_on_c, 5, 53, 0
8, 165840, Note_on_c, 5, 45, 100
8, 165948, Note_on_c, 5, 45, 0
8, 166080, Note_on_c, 5, 50, 100
8, 166188, Note_on_c, 5, 50, 0
8, 166800, Note_on_c, 5, 45, 100
8, 166908, Note_on_c, 5, 45, 0
8, 167040, Note_on_c, 5, 46, 100
8, 167148, Note_on_c, 5, 46, 0
8, 167760, Note_on_c, 5, 49, 100
8, 167868, Note_on_c, 5, 49, 0
8, 168000, Note_on_c, 5, 50, 100
8, 168108, Note_on_c, 5, 50, 0
8, 168720, Note_on_c, 5, 52, 100
8, 168828, Note_on_c, 5, 52, 0
8, 168960, Note_on_c, 5, 53, 100
8, 169068, Note_on_c, 5, 53, 0
8, 169680, Note_on_c, 5, 55, 100
8, 169788, Note_on_c, 5, 55, 0
8, 170160, Note_on_c, 5, 53, 100
8, 170268, Note_on_c, 5, 53, 0
8, 170640, Note_on_c, 5, 57, 100
8, 170748, Note_on_c, 5, 57, 0
8, 171120, Note_on_c, 5, 50, 100
8, 171228, Note_on_c, 5, 50, 0
8, 171600, Note_on_c, 5, 48, 100
8, 171708, Note_on_c, 5, 48, 0
8, 172080, Note_on_c, 5, 53, 100
8, 172296, Note_on_c, 5, 53, 0
8, 172320, Note_on_c, 5, 47, 100
8, 172536, Note_on_c, 5, 47, 0
8, 172560, Note_on_c, 5, 52, 100
8, 172776, Note_on_c, 5, 52, 0
8, 172800, Note_on_c, 5, 45, 100
8, 173016, Note_on_c, 5, 45, 0
8, 173040, Note_on_c, 5, 50, 100
8, 173256, Note_on_c, 5, 50, 0
8, 173280, Note_on_c, 5, 44, 100
8, 173496, Note_on_c, 5, 44, 0
8, 173520, Note_on_c, 5, 53, 100
8, 173736, Note_on_c, 5, 53, 0
8, 173760, Note_on_c, 5, 52, 100
8, 173976, Note_on_c, 5, 52, 0
8, 174000, Note_on_c, 5, 50, 100
8, 174216, Note_on_c, 5, 50, 0
8, 174240, Note_on_c, 5, 48, 100
8, 174936, Note_on_c, 5, 48, 0
8, 179760, Note_on_c, 5, 58, 100
8, 179868, Note_on_c, 5, 58, 0
8, 180240, Note_on_c, 5, 58, 100
8, 180348, Note_on_c, 5, 58, 0
8, 180720, Note_on_c, 5, 46, 100
8, 180828, Note_on_c, 5, 46, 0
8, 181200, Note_on_c, 5, 46, 100
8, 181308, Note_on_c, 5, 46, 0
8, 181680, Note_on_c, 5, 59, 100
8, 181788, Note_on_c, 5, 59, 0
8, 182160, Note_on_c, 5, 59, 100
8, 182268, Note_on_c, 5, 59, 0
8, 182640, Note_on_c, 5, 47, 100
8, 182748, Note_on_c, 5, 47, 0
8, 183120, Note_on_c, 5, 47, 100
8, 183228, Note_on_c, 5, 47, 0
8, 183360, Note_on_c, 5, 40, 100
8, 183468, Note_on_c, 5, 40, 0
8, 184080, Note_on_c, 5, 40, 100
8, 184188, Note_on_c, 5, 40, 0
8, 184320, Note_on_c, 5, 45, 100
8, 184428, Note_on_c, 5, 45, 0
8, 185040, Note_on_c, 5, 45, 100
8, 185148, Note_on_c, 5, 45, 0
8, 185280, Note_on_c, 5, 38, 100
8, 185388, Note_on_c, 5, 38, 0
8, 186720, Note_on_c, 5, 44, 100
8, 186828, Note_on_c, 5, 44, 0
8, 187200, Note_on_c, 5, 45, 100
8, 187308, Note_on_c, 5, 45, 0
8, 187680, Note_on_c, 5, 49, 100
8, 187788, Note_on_c, 5, 49, 0
8, 188160, Note_on_c, 5, 50, 100
8, 188268, Note_on_c, 5, 50, 0
8, 188640, Note_on_c, 5, 51, 100
8, 188748, Note_on_c, 5, 51, 0
8, 189120, Note_on_c, 5, 52, 100
8, 189228, Note_on_c, 5, 52, 0
8, 190080, Note_on_c, 5, 45, 100
8, 195096, Note_on_c, 5, 45, 0
8, 195120, Note_on_c, 5, 53, 100
8, 195336, Note_on_c, 5, 53, 0
8, 195360, Note_on_c, 5, 52, 100
8, 195576, Note_on_c, 5, 52, 0
8, 195600, Note_on_c, 5, 50, 100
8, 195816, Note_on_c, 5, 50, 0
8, 195840, Note_on_c, 5, 48, 100
8, 196056, Note_on_c, 5, 48, 0
8, 196080, Note_on_c, 5, 47, 100
8, 196296, Note_on_c, 5, 47, 0
8, 196320, Note_on_c, 5, 48, 100
8, 196536, Note_on_c, 5, 48, 0
8, 196560, Note_on_c, 5, 52, 100
8, 196776, Note_on_c, 5, 52, 0
8, 196800, Note_on_c, 5, 45, 100
8, 197016, Note_on_c, 5, 45, 0
8, 198000, Note_on_c, 5, 50, 100
8, 198216, Note_on_c, 5, 50, 0
8, 198240, Note_on_c, 5, 43, 100
8, 198456, Note_on_c, 5, 43, 0
8, 198480, Note_on_c, 5, 48, 100
8, 198696, Note_on_c, 5, 48, 0
8, 198720, Note_on_c, 5, 41, 100
8, 198936, Note_on_c, 5, 41, 0
8, 198960, Note_on_c, 5, 47, 100
8, 199176, Note_on_c, 5, 47, 0
8, 199200, Note_on_c, 5, 40, 100
8, 199416, Note_on_c, 5, 40, 0
8, 211203, Note_on_c, 5, 45, 100
8, 211635, Note_on_c, 5, 45, 0
8, 211683, Note_on_c, 5, 44, 100
8, 212115, Note_on_c, 5, 44, 0
8, 212163, Note_on_c, 5, 45, 100
8, 212379, Note_on_c, 5, 45, 0
8, 212403, Note_on_c, 5, 50, 100
8, 212619, Note_on_c, 5, 50, 0
8, 212643, Note_on_c, 5, 52, 100
8, 213339, Note_on_c, 5, 52, 0
8, 213363, Note_on_c, 5, 50, 100
8, 213795, Note_on_c, 5, 50, 0
8, 213843, Note_on_c, 5, 48, 100
8, 213951, Note_on_c, 5, 48, 0
8, 213963, Note_on_c, 5, 47, 100
8, 214071, Note_on_c, 5, 47, 0
8, 214083, Note_on_c, 5, 45, 100
8, 214515, Note_on_c, 5, 45, 0
8, 214563, Note_on_c, 5, 47, 100
8, 214995, Note_on_c, 5, 47, 0
8, 215043, Note_on_c, 5, 40, 100
8, 215259, Note_on_c, 5, 40, 0
8, 216243, Note_on_c, 5, 60, 100
8, 216459, Note_on_c, 5, 60, 0
8, 216483, Note_on_c, 5, 50, 100
8, 216699, Note_on_c, 5, 50, 0
8, 216723, Note_on_c, 5, 59, 100
8, 216939, Note_on_c, 5, 59, 0
8, 216963, Note_on_c, 5, 48, 100
8, 217179, Note_on_c, 5, 48, 0
8, 217203, Note_on_c, 5, 57, 100
8, 217419, Note_on_c, 5, 57, 0
8, 217443, Note_on_c, 5, 47, 100
8, 217659, Note_on_c, 5, 47, 0
8, 217683, Note_on_c, 5, 57, 100
8, 217899, Note_on_c, 5, 57, 0
8, 217923, Note_on_c, 5, 55, 100
8, 218139, Note_on_c, 5, 55, 0
8, 218163, Note_on_c, 5, 52, 100
8, 218379, Note_on_c, 5, 52, 0
8, 218403, Note_on_c, 5, 54, 100
8, 218619, Note_on_c, 5, 54, 0
8, 218643, Note_on_c, 5, 56, 100
8, 218859, Note_on_c, 5, 56, 0
8, 218883, Note_on_c, 5, 57, 100
8, 219099, Note_on_c, 5, 57, 0
8, 219123, Note_on_c, 5, 58, 100
8, 219339, Note_on_c, 5, 58, 0
8, 219363, Note_on_c, 5, 57, 100
8, 219579, Note_on_c, 5, 57, 0
8, 219603, Note_on_c, 5, 55, 100
8, 219819, Note_on_c, 5, 55, 0
8, 219843, Note_on_c, 5, 53, 100
8, 220059, Note_on_c, 5, 53, 0
8, 220083, Note_on_c, 5, 52, 100
8, 220191, Note_on_c, 5, 52, 0
8, 220203, Note_on_c, 5, 50, 100
8, 220311, Note_on_c, 5, 50, 0
8, 220323, Note_on_c, 5, 52, 100
8, 220755, Note_on_c, 5, 52, 0
8, 220803, Note_on_c, 5, 45, 100
8, 221019, Note_on_c, 5, 45, 0
8, 221043, Note_on_c, 5, 50, 100
8, 221475, Note_on_c, 5, 50, 0
8, 221523, Note_on_c, 5, 48, 100
8, 221979, Note_on_c, 5, 48, 0
8, 222003, Note_on_c, 5, 47, 100
8, 222111, Note_on_c, 5, 47, 0
8, 222123, Note_on_c, 5, 45, 100
8, 222231, Note_on_c, 5, 45, 0
8, 222243, Note_on_c, 5, 47, 100
8, 222459, Note_on_c, 5, 47, 0
8, 222483, Note_on_c, 5, 40, 100
8, 222699, Note_on_c, 5, 40, 0
8, 222723, Note_on_c, 5, 45, 100
8, 223155, Note_on_c, 5, 45, 0
8, 224163, Note_on_c, 5, 38, 100
8, 224595, Note_on_c, 5, 38, 0
8, 224643, Note_on_c, 5, 43, 100
8, 225075, Note_on_c, 5, 43, 0
8, 226083, Note_on_c, 5, 47, 100
8, 226515, Note_on_c, 5, 47, 0
8, 226563, Note_on_c, 5, 40, 100
8, 226995, Note_on_c, 5, 40, 0
8, 227523, Note_on_c, 5, 45, 100
8, 227739, Note_on_c, 5, 45, 0
8, 227763, Note_on_c, 5, 53, 100
8, 227979, Note_on_c, 5, 53, 0
8, 228003, Note_on_c, 5, 52, 100
8, 228219, Note_on_c, 5, 52, 0
8, 228243, Note_on_c, 5, 50, 100
8, 228459, Note_on_c, 5, 50, 0
8, 228483, Note_on_c, 5, 48, 100
8, 228915, Note_on_c, 5, 48, 0
8, 228963, Note_on_c, 5, 47, 100
8, 229395, Note_on_c, 5, 47, 0
8, 229443, Note_on_c, 5, 45, 100
8, 229875, Note_on_c, 5, 45, 0
8, 229923, Note_on_c, 5, 44, 100
8, 230355, Note_on_c, 5, 44, 0
8, 230403, Note_on_c, 5, 45, 100
8, 230619, Note_on_c, 5, 45, 0
8, 230643, Note_on_c, 5, 57, 100
8, 230859, Note_on_c, 5, 57, 0
8, 230883, Note_on_c, 5, 59, 100
8, 231099, Note_on_c, 5, 59, 0
8, 231123, Note_on_c, 5, 61, 100
8, 231339, Note_on_c, 5, 61, 0
8, 231363, Note_on_c, 5, 62, 100
8, 231579, Note_on_c, 5, 62, 0
8, 231603, Note_on_c, 5, 60, 100
8, 231819, Note_on_c, 5, 60, 0
8, 231843, Note_on_c, 5, 59, 100
8, 232059, Note_on_c, 5, 59, 0
8, 232083, Note_on_c, 5, 57, 100
8, 232299, Note_on_c, 5, 57, 0
8, 232323, Note_on_c, 5, 56, 100
8, 232755, Note_on_c, 5, 56, 0
8, 233043, Note_on_c, 5, 52, 100
8, 233259, Note_on_c, 5, 52, 0
8, 233283, Note_on_c, 5, 57, 100
8, 233499, Note_on_c, 5, 57, 0
8, 233523, Note_on_c, 5, 48, 100
8, 233631, Note_on_c, 5, 48, 0
8, 233643, Note_on_c, 5, 50, 100
8, 233751, Note_on_c, 5, 50, 0
8, 233763, Note_on_c, 5, 52, 100
8, 233979, Note_on_c, 5, 52, 0
8, 234003, Note_on_c, 5, 40, 100
8, 234219, Note_on_c, 5, 40, 0
8, 234243, Note_on_c, 5, 45, 100
8, 234675, Note_on_c, 5, 45, 0
8, 234675, End_track
9, 0, Start_track
9, 0, Sequence_number, 65535
9, 0, MIDI_port, 0
9, 0, Title_t, "Cembalo rechte Hand"
9, 0, Control_c, 6, 0, 0
9, 0, Control_c, 6, 32, 0
9, 0, Program_c, 6, 6
9, 0, Control_c, 6, 7, 80
9, 0, Control_c, 6, 10, 64
9, 1200, Note_on_c, 6, 77, 100
9, 1440, Note_on_c, 6, 67, 100
9, 1632, Note_on_c, 6, 77, 0
9, 1680, Note_on_c, 6, 76, 100
9, 1872, Note_on_c, 6, 67, 0
9, 1920, Note_on_c, 6, 65, 100
9, 2136, Note_on_c, 6, 76, 0
9, 2160, Note_on_c, 6, 74, 100
9, 2352, Note_on_c, 6, 65, 0
9, 2400, Note_on_c, 6, 64, 100
9, 2592, Note_on_c, 6, 74, 0
9, 2640, Note_on_c, 6, 74, 100
9, 2856, Note_on_c, 6, 74, 0
9, 2880, Note_on_c, 6, 72, 100
9, 3528, Note_on_c, 6, 64, 0
9, 3576, Note_on_c, 6, 72, 0
9, 3600, Note_on_c, 6, 71, 100
9, 3600, Note_on_c, 6, 63, 100
9, 3708, Note_on_c, 6, 71, 0
9, 3720, Note_on_c, 6, 69, 100
9, 3816, Note_on_c, 6, 63, 0
9, 3828, Note_on_c, 6, 69, 0
9, 3840, Note_on_c, 6, 67, 100
9, 4056, Note_on_c, 6, 67, 0
9, 4080, Note_on_c, 6, 66, 100
9, 4188, Note_on_c, 6, 66, 0
9, 4200, Note_on_c, 6, 64, 100
9, 4308, Note_on_c, 6, 64, 0
9, 4320, Note_on_c, 6, 66, 100
9, 4752, Note_on_c, 6, 66, 0
9, 4800, Note_on_c, 6, 64, 100
9, 5016, Note_on_c, 6, 64, 0
9, 24240, Note_on_c, 6, 74, 100
9, 24240, Note_on_c, 6, 77, 100
9, 24240, Note_on_c, 6, 69, 100
9, 24240, Note_on_c, 6, 72, 100
9, 24456, Note_on_c, 6, 69, 0
9, 24456, Note_on_c, 6, 72, 0
9, 24480, Note_on_c, 6, 67, 100
9, 24480, Note_on_c, 6, 71, 100
9, 24672, Note_on_c, 6, 74, 0
9, 24672, Note_on_c, 6, 77, 0
9, 24720, Note_on_c, 6, 72, 100
9, 24720, Note_on_c, 6, 76, 100
9, 24912, Note_on_c, 6, 67, 0
9, 24912, Note_on_c, 6, 71, 0
9, 24960, Note_on_c, 6, 65, 100
9, 24960, Note_on_c, 6, 69, 100
9, 25176, Note_on_c, 6, 72, 0
9, 25176, Note_on_c, 6, 76, 0
9, 25200, Note_on_c, 6, 71, 100
9, 25200, Note_on_c, 6, 74, 100
9, 25392, Note_on_c, 6, 65, 0
9, 25392, Note_on_c, 6, 69, 0
9, 25440, Note_on_c, 6, 64, 100
9, 25440, Note_on_c, 6, 68, 100
9, 25656, Note_on_c, 6, 71, 0
9, 25656, Note_on_c, 6, 74, 0
9, 25680, Note_on_c, 6, 68, 100
9, 25680, Note_on_c, 6, 71, 100
9, 25872, Note_on_c, 6, 64, 0
9, 25872, Note_on_c, 6, 68, 0
9, 25872, Note_on_c, 6, 68, 0
9, 25896, Note_on_c, 6, 71, 0
9, 25920, Note_on_c, 6, 72, 100
9, 25920, Note_on_c, 6, 64, 100
9, 26352, Note_on_c, 6, 72, 0
9, 26352, Note_on_c, 6, 64, 0
9, 26400, Note_on_c, 6, 71, 100
9, 26400, Note_on_c, 6, 66, 100
9, 26616, Note_on_c, 6, 66, 0
9, 26640, Note_on_c, 6, 63, 100
9, 26832, Note_on_c, 6, 71, 0
9, 26856, Note_on_c, 6, 63, 0
9, 26880, Note_on_c, 6, 64, 100
9, 26952, Note_on_c, 6, 64, 0
9, 26960, Note_on_c, 6, 67, 100
9, 27032, Note_on_c, 6, 67, 0
9, 27040, Note_on_c, 6, 71, 100
9, 27112, Note_on_c, 6, 71, 0
9, 27120, Note_on_c, 6, 63, 100
9, 27192, Note_on_c, 6, 63, 0
9, 27200, Note_on_c, 6, 69, 100
9, 27272, Note_on_c, 6, 69, 0
9, 27280, Note_on_c, 6, 72, 100
9, 27352, Note_on_c, 6, 72, 0
9, 27360, Note_on_c, 6, 64, 100
9, 27432, Note_on_c, 6, 64, 0
9, 27440, Note_on_c, 6, 67, 100
9, 27512, Note_on_c, 6, 67, 0
9, 27520, Note_on_c, 6, 71, 100
9, 27592, Note_on_c, 6, 71, 0
9, 27600, Note_on_c, 6, 59, 100
9, 27672, Note_on_c, 6, 59, 0
9, 27680, Note_on_c, 6, 66, 100
9, 27752, Note_on_c, 6, 66, 0
9, 27760, Note_on_c, 6, 69, 100
9, 27832, Note_on_c, 6, 69, 0
9, 27840, Note_on_c, 6, 64, 100
9, 27912, Note_on_c, 6, 64, 0
9, 27920, Note_on_c, 6, 66, 100
9, 27992, Note_on_c, 6, 66, 0
9, 28000, Note_on_c, 6, 67, 100
9, 28072, Note_on_c, 6, 67, 0
9, 28080, Note_on_c, 6, 69, 100
9, 28152, Note_on_c, 6, 69, 0
9, 28160, Note_on_c, 6, 71, 100
9, 28232, Note_on_c, 6, 71, 0
9, 28240, Note_on_c, 6, 72, 100
9, 28312, Note_on_c, 6, 72, 0
9, 28320, Note_on_c, 6, 62, 100
9, 28392, Note_on_c, 6, 62, 0
9, 28400, Note_on_c, 6, 64, 100
9, 28472, Note_on_c, 6, 64, 0
9, 28480, Note_on_c, 6, 66, 100
9, 28552, Note_on_c, 6, 66, 0
9, 28560, Note_on_c, 6, 67, 100
9, 28632, Note_on_c, 6, 67, 0
9, 28640, Note_on_c, 6, 69, 100
9, 28712, Note_on_c, 6, 69, 0
9, 28720, Note_on_c, 6, 71, 100
9, 28792, Note_on_c, 6, 71, 0
9, 28800, Note_on_c, 6, 60, 100
9, 28872, Note_on_c, 6, 60, 0
9, 28880, Note_on_c, 6, 62, 100
9, 28952, Note_on_c, 6, 62, 0
9, 28960, Note_on_c, 6, 64, 100
9, 29032, Note_on_c, 6, 64, 0
9, 29040, Note_on_c, 6, 66, 100
9, 29112, Note_on_c, 6, 66, 0
9, 29120, Note_on_c, 6, 67, 100
9, 29192, Note_on_c, 6, 67, 0
9, 29200, Note_on_c, 6, 69, 100
9, 29272, Note_on_c, 6, 69, 0
9, 29280, Note_on_c, 6, 59, 100
9, 29352, Note_on_c, 6, 59, 0
9, 29360, Note_on_c, 6, 63, 100
9, 29432, Note_on_c, 6, 63, 0
9, 29440, Note_on_c, 6, 66, 100
9, 29512, Note_on_c, 6, 66, 0
9, 29520, Note_on_c, 6, 69, 100
9, 29592, Note_on_c, 6, 69, 0
9, 29600, Note_on_c, 6, 66, 100
9, 29672, Note_on_c, 6, 66, 0
9, 29680, Note_on_c, 6, 63, 100
9, 29752, Note_on_c, 6, 63, 0
9, 29760, Note_on_c, 6, 59, 100
9, 29832, Note_on_c, 6, 59, 0
9, 29840, Note_on_c, 6, 64, 100
9, 29912, Note_on_c, 6, 64, 0
9, 29920, Note_on_c, 6, 66, 100
9, 29992, Note_on_c, 6, 66, 0
9, 30000, Note_on_c, 6, 67, 100
9, 30072, Note_on_c, 6, 67, 0
9, 30080, Note_on_c, 6, 66, 100
9, 30152, Note_on_c, 6, 66, 0
9, 30160, Note_on_c, 6, 64, 100
9, 30232, Note_on_c, 6, 64, 0
9, 30240, Note_on_c, 6, 68, 100
9, 30312, Note_on_c, 6, 68, 0
9, 30320, Note_on_c, 6, 65, 100
9, 30392, Note_on_c, 6, 65, 0
9, 30400, Note_on_c, 6, 64, 100
9, 30472, Note_on_c, 6, 64, 0
9, 30480, Note_on_c, 6, 62, 100
9, 30552, Note_on_c, 6, 62, 0
9, 30560, Note_on_c, 6, 60, 100
9, 30632, Note_on_c, 6, 60, 0
9, 30640, Note_on_c, 6, 59, 100
9, 30712, Note_on_c, 6, 59, 0
9, 30720, Note_on_c, 6, 69, 100
9, 30792, Note_on_c, 6, 69, 0
9, 30800, Note_on_c, 6, 72, 100
9, 30872, Note_on_c, 6, 72, 0
9, 30880, Note_on_c, 6, 76, 100
9, 30952, Note_on_c, 6, 76, 0
9, 30960, Note_on_c, 6, 68, 100
9, 31032, Note_on_c, 6, 68, 0
9, 31040, Note_on_c, 6, 74, 100
9, 31112, Note_on_c, 6, 74, 0
9, 31120, Note_on_c, 6, 77, 100
9, 31192, Note_on_c, 6, 77, 0
9, 31200, Note_on_c, 6, 69, 100
9, 31272, Note_on_c, 6, 69, 0
9, 31280, Note_on_c, 6, 72, 100
9, 31352, Note_on_c, 6, 72, 0
9, 31360, Note_on_c, 6, 76, 100
9, 31432, Note_on_c, 6, 76, 0
9, 31440, Note_on_c, 6, 64, 100
9, 31512, Note_on_c, 6, 64, 0
9, 31520, Note_on_c, 6, 71, 100
9, 31592, Note_on_c, 6, 71, 0
9, 31600, Note_on_c, 6, 74, 100
9, 31672, Note_on_c, 6, 74, 0
9, 31680, Note_on_c, 6, 69, 100
9, 31752, Note_on_c, 6, 69, 0
9, 31760, Note_on_c, 6, 71, 100
9, 31832, Note_on_c, 6, 71, 0
9, 31840, Note_on_c, 6, 72, 100
9, 31912, Note_on_c, 6, 72, 0
9, 31920, Note_on_c, 6, 74, 100
9, 31992, Note_on_c, 6, 74, 0
9, 32000, Note_on_c, 6, 76, 100
9, 32072, Note_on_c, 6, 76, 0
9, 32080, Note_on_c, 6, 77, 100
9, 32152, Note_on_c, 6, 77, 0
9, 32160, Note_on_c, 6, 67, 100
9, 32232, Note_on_c, 6, 67, 0
9, 32240, Note_on_c, 6, 69, 100
9, 32312, Note_on_c, 6, 69, 0
9, 32320, Note_on_c, 6, 71, 100
9, 32392, Note_on_c, 6, 71, 0
9, 32400, Note_on_c, 6, 72, 100
9, 32472, Note_on_c, 6, 72, 0
9, 32480, Note_on_c, 6, 74, 100
9, 32552, Note_on_c, 6, 74, 0
9, 32560, Note_on_c, 6, 76, 100
9, 32632, Note_on_c, 6, 76, 0
9, 32640, Note_on_c, 6, 65, 100
9, 32712, Note_on_c, 6, 65, 0
9, 32720, Note_on_c, 6, 67, 100
9, 32792, Note_on_c, 6, 67, 0
9, 32800, Note_on_c, 6, 69, 100
9, 32872, Note_on_c, 6, 69, 0
9, 32880, Note_on_c, 6, 71, 100
9, 32952, Note_on_c, 6, 71, 0
9, 32960, Note_on_c, 6, 72, 100
9, 33032, Note_on_c, 6, 72, 0
9, 33040, Note_on_c, 6, 74, 100
9, 33112, Note_on_c, 6, 74, 0
9, 33120, Note_on_c, 6, 64, 100
9, 33192, Note_on_c, 6, 64, 0
9, 33200, Note_on_c, 6, 68, 100
9, 33272, Note_on_c, 6, 68, 0
9, 33280, Note_on_c, 6, 71, 100
9, 33352, Note_on_c, 6, 71, 0
9, 33360, Note_on_c, 6, 74, 100
9, 33432, Note_on_c, 6, 74, 0
9, 33440, Note_on_c, 6, 71, 100
9, 33512, Note_on_c, 6, 71, 0
9, 33520, Note_on_c, 6, 68, 100
9, 33592, Note_on_c, 6, 68, 0
9, 33600, Note_on_c, 6, 64, 100
9, 33672, Note_on_c, 6, 64, 0
9, 33680, Note_on_c, 6, 69, 100
9, 33752, Note_on_c, 6, 69, 0
9, 33760, Note_on_c, 6, 71, 100
9, 33832, Note_on_c, 6, 71, 0
9, 33840, Note_on_c, 6, 72, 100
9, 33912, Note_on_c, 6, 72, 0
9, 33920, Note_on_c, 6, 71, 100
9, 33992, Note_on_c, 6, 71, 0
9, 34000, Note_on_c, 6, 69, 100
9, 34072, Note_on_c, 6, 69, 0
9, 34080, Note_on_c, 6, 75, 100
9, 34152, Note_on_c, 6, 75, 0
9, 34160, Note_on_c, 6, 72, 100
9, 34232, Note_on_c, 6, 72, 0
9, 34240, Note_on_c, 6, 71, 100
9, 34312, Note_on_c, 6, 71, 0
9, 34320, Note_on_c, 6, 69, 100
9, 34392, Note_on_c, 6, 69, 0
9, 34400, Note_on_c, 6, 67, 100
9, 34472, Note_on_c, 6, 67, 0
9, 34480, Note_on_c, 6, 66, 100
9, 34552, Note_on_c, 6, 66, 0
9, 34560, Note_on_c, 6, 67, 100
9, 34776, Note_on_c, 6, 67, 0
9, 37440, Note_on_c, 6, 67, 100
9, 37440, Note_on_c, 6, 64, 100
9, 37656, Note_on_c, 6, 67, 0
9, 37656, Note_on_c, 6, 64, 0
9, 37920, Note_on_c, 6, 73, 100
9, 37920, Note_on_c, 6, 64, 100
9, 37920, Note_on_c, 6, 67, 100
9, 38136, Note_on_c, 6, 73, 0
9, 38136, Note_on_c, 6, 64, 0
9, 38136, Note_on_c, 6, 67, 0
9, 38400, Note_on_c, 6, 70, 100
9, 38400, Note_on_c, 6, 73, 100
9, 38400, Note_on_c, 6, 76, 100
9, 38400, Note_on_c, 6, 64, 100
9, 38400, Note_on_c, 6, 67, 100
9, 38616, Note_on_c, 6, 70, 0
9, 38616, Note_on_c, 6, 73, 0
9, 38616, Note_on_c, 6, 76, 0
9, 38616, Note_on_c, 6, 64, 0
9, 38616, Note_on_c, 6, 67, 0
9, 38880, Note_on_c, 6, 73, 100
9, 38952, Note_on_c, 6, 73, 0
9, 38960, Note_on_c, 6, 70, 100
9, 39032, Note_on_c, 6, 70, 0
9, 39040, Note_on_c, 6, 69, 100
9, 39112, Note_on_c, 6, 69, 0
9, 39120, Note_on_c, 6, 67, 100
9, 39192, Note_on_c, 6, 67, 0
9, 39200, Note_on_c, 6, 65, 100
9, 39272, Note_on_c, 6, 65, 0
9, 39280, Note_on_c, 6, 64, 100
9, 39352, Note_on_c, 6, 64, 0
9, 39360, Note_on_c, 6, 65, 100
9, 39576, Note_on_c, 6, 65, 0
9, 42240, Note_on_c, 6, 65, 100
9, 42240, Note_on_c, 6, 62, 100
9, 42456, Note_on_c, 6, 65, 0
9, 42456, Note_on_c, 6, 62, 0
9, 42720, Note_on_c, 6, 71, 100
9, 42720, Note_on_c, 6, 62, 100
9, 42720, Note_on_c, 6, 65, 100
9, 42936, Note_on_c, 6, 71, 0
9, 42936, Note_on_c, 6, 62, 0
9, 42936, Note_on_c, 6, 65, 0
9, 43200, Note_on_c, 6, 68, 100
9, 43200, Note_on_c, 6, 71, 100
9, 43200, Note_on_c, 6, 74, 100
9, 43200, Note_on_c, 6, 62, 100
9, 43200, Note_on_c, 6, 65, 100
9, 43416, Note_on_c, 6, 68, 0
9, 43416, Note_on_c, 6, 71, 0
9, 43416, Note_on_c, 6, 74, 0
9, 43416, Note_on_c, 6, 62, 0
9, 43416, Note_on_c, 6, 65, 0
9, 43680, Note_on_c, 6, 71, 100
9, 43752, Note_on_c, 6, 71, 0
9, 43760, Note_on_c, 6, 68, 100
9, 43832, Note_on_c, 6, 68, 0
9, 43840, Note_on_c, 6, 67, 100
9, 43912, Note_on_c, 6, 67, 0
9, 43920, Note_on_c, 6, 65, 100
9, 43992, Note_on_c, 6, 65, 0
9, 44000, Note_on_c, 6, 64, 100
9, 44072, Note_on_c, 6, 64, 0
9, 44080, Note_on_c, 6, 62, 100
9, 44152, Note_on_c, 6, 62, 0
9, 44160, Note_on_c, 6, 64, 100
9, 44232, Note_on_c, 6, 64, 0
9, 44240, Note_on_c, 6, 67, 100
9, 44312, Note_on_c, 6, 67, 0
9, 44320, Note_on_c, 6, 72, 100
9, 44392, Note_on_c, 6, 72, 0
9, 44400, Note_on_c, 6, 65, 100
9, 44472, Note_on_c, 6, 65, 0
9, 44480, Note_on_c, 6, 69, 100
9, 44552, Note_on_c, 6, 69, 0
9, 44560, Note_on_c, 6, 72, 100
9, 44632, Note_on_c, 6, 72, 0
9, 44640, Note_on_c, 6, 64, 100
9, 44712, Note_on_c, 6, 64, 0
9, 44720, Note_on_c, 6, 67, 100
9, 44792, Note_on_c, 6, 67, 0
9, 44800, Note_on_c, 6, 72, 100
9, 44872, Note_on_c, 6, 72, 0
9, 44880, Note_on_c, 6, 62, 100
9, 44952, Note_on_c, 6, 62, 0
9, 44960, Note_on_c, 6, 65, 100
9, 45032, Note_on_c, 6, 65, 0
9, 45040, Note_on_c, 6, 71, 100
9, 45112, Note_on_c, 6, 71, 0
9, 45120, Note_on_c, 6, 64, 100
9, 45192, Note_on_c, 6, 64, 0
9, 45200, Note_on_c, 6, 67, 100
9, 45272, Note_on_c, 6, 67, 0
9, 45280, Note_on_c, 6, 72, 100
9, 45352, Note_on_c, 6, 72, 0
9, 45360, Note_on_c, 6, 69, 100
9, 45432, Note_on_c, 6, 69, 0
9, 45440, Note_on_c, 6, 65, 100
9, 45512, Note_on_c, 6, 65, 0
9, 45520, Note_on_c, 6, 69, 100
9, 45592, Note_on_c, 6, 69, 0
9, 45600, Note_on_c, 6, 67, 100
9, 45672, Note_on_c, 6, 67, 0
9, 45680, Note_on_c, 6, 64, 100
9, 45752, Note_on_c, 6, 64, 0
9, 45760, Note_on_c, 6, 67, 100
9, 45832, Note_on_c, 6, 67, 0
9, 45840, Note_on_c, 6, 65, 100
9, 45912, Note_on_c, 6, 65, 0
9, 45920, Note_on_c, 6, 62, 100
9, 45992, Note_on_c, 6, 62, 0
9, 46000, Note_on_c, 6, 65, 100
9, 46072, Note_on_c, 6, 65, 0
9, 46080, Note_on_c, 6, 64, 100
9, 46152, Note_on_c, 6, 64, 0
9, 46160, Note_on_c, 6, 65, 100
9, 46232, Note_on_c, 6, 65, 0
9, 46240, Note_on_c, 6, 67, 100
9, 46312, Note_on_c, 6, 67, 0
9, 46320, Note_on_c, 6, 69, 100
9, 46392, Note_on_c, 6, 69, 0
9, 46400, Note_on_c, 6, 71, 100
9, 46472, Note_on_c, 6, 71, 0
9, 46480, Note_on_c, 6, 72, 100
9, 46552, Note_on_c, 6, 72, 0
9, 46560, Note_on_c, 6, 62, 100
9, 46632, Note_on_c, 6, 62, 0
9, 46640, Note_on_c, 6, 64, 100
9, 46712, Note_on_c, 6, 64, 0
9, 46720, Note_on_c, 6, 66, 100
9, 46792, Note_on_c, 6, 66, 0
9, 46800, Note_on_c, 6, 67, 100
9, 46872, Note_on_c, 6, 67, 0
9, 46880, Note_on_c, 6, 69, 100
9, 46952, Note_on_c, 6, 69, 0
9, 46960, Note_on_c, 6, 71, 100
9, 47032, Note_on_c, 6, 71, 0
9, 47040, Note_on_c, 6, 72, 100
9, 47040, Note_on_c, 6, 64, 100
9, 47112, Note_on_c, 6, 72, 0
9, 47112, Note_on_c, 6, 64, 0
9, 47120, Note_on_c, 6, 74, 100
9, 47120, Note_on_c, 6, 66, 100
9, 47192, Note_on_c, 6, 74, 0
9, 47192, Note_on_c, 6, 66, 0
9, 47200, Note_on_c, 6, 76, 100
9, 47200, Note_on_c, 6, 67, 100
9, 47272, Note_on_c, 6, 67, 0
9, 47280, Note_on_c, 6, 66, 100
9, 47352, Note_on_c, 6, 76, 0
9, 47352, Note_on_c, 6, 66, 0
9, 47360, Note_on_c, 6, 74, 100
9, 47360, Note_on_c, 6, 67, 100
9, 47432, Note_on_c, 6, 74, 0
9, 47432, Note_on_c, 6, 67, 0
9, 47440, Note_on_c, 6, 72, 100
9, 47440, Note_on_c, 6, 69, 100
9, 47512, Note_on_c, 6, 72, 0
9, 47512, Note_on_c, 6, 69, 0
9, 47520, Note_on_c, 6, 71, 100
9, 47520, Note_on_c, 6, 67, 100
9, 47628, Note_on_c, 6, 71, 0
9, 47628, Note_on_c, 6, 67, 0
9, 47760, Note_on_c, 6, 72, 100
9, 47760, Note_on_c, 6, 69, 100
9, 47868, Note_on_c, 6, 72, 0
9, 47868, Note_on_c, 6, 69, 0
9, 48000, Note_on_c, 6, 71, 100
9, 48000, Note_on_c, 6, 67, 100
9, 48108, Note_on_c, 6, 71, 0
9, 48108, Note_on_c, 6, 67, 0
9, 48240, Note_on_c, 6, 69, 100
9, 48240, Note_on_c, 6, 66, 100
9, 48348, Note_on_c, 6, 69, 0
9, 48348, Note_on_c, 6, 66, 0
9, 48480, Note_on_c, 6, 67, 100
9, 48552, Note_on_c, 6, 67, 0
9, 48560, Note_on_c, 6, 71, 100
9, 48632, Note_on_c, 6, 71, 0
9, 48640, Note_on_c, 6, 74, 100
9, 48712, Note_on_c, 6, 74, 0
9, 48720, Note_on_c, 6, 66, 100
9, 48792, Note_on_c, 6, 66, 0
9, 48800, Note_on_c, 6, 72, 100
9, 48872, Note_on_c, 6, 72, 0
9, 48880, Note_on_c, 6, 76, 100
9, 48952, Note_on_c, 6, 76, 0
9, 48960, Note_on_c, 6, 67, 100
9, 49032, Note_on_c, 6, 67, 0
9, 49040, Note_on_c, 6, 71, 100
9, 49112, Note_on_c, 6, 71, 0
9, 49120, Note_on_c, 6, 74, 100
9, 49192, Note_on_c, 6, 74, 0
9, 49200, Note_on_c, 6, 62, 100
9, 49272, Note_on_c, 6, 62, 0
9, 49280, Note_on_c, 6, 69, 100
9, 49352, Note_on_c, 6, 69, 0
9, 49360, Note_on_c, 6, 72, 100
9, 49432, Note_on_c, 6, 72, 0
9, 49440, Note_on_c, 6, 62, 100
9, 49512, Note_on_c, 6, 62, 0
9, 49520, Note_on_c, 6, 67, 100
9, 49592, Note_on_c, 6, 67, 0
9, 49600, Note_on_c, 6, 71, 100
9, 49672, Note_on_c, 6, 71, 0
9, 49680, Note_on_c, 6, 63, 100
9, 49752, Note_on_c, 6, 63, 0
9, 49760, Note_on_c, 6, 69, 100
9, 49832, Note_on_c, 6, 69, 0
9, 49840, Note_on_c, 6, 72, 100
9, 49912, Note_on_c, 6, 72, 0
9, 49920, Note_on_c, 6, 64, 100
9, 49992, Note_on_c, 6, 64, 0
9, 50000, Note_on_c, 6, 67, 100
9, 50072, Note_on_c, 6, 67, 0
9, 50080, Note_on_c, 6, 71, 100
9, 50152, Note_on_c, 6, 71, 0
9, 50160, Note_on_c, 6, 59, 100
9, 50232, Note_on_c, 6, 59, 0
9, 50240, Note_on_c, 6, 66, 100
9, 50312, Note_on_c, 6, 66, 0
9, 50320, Note_on_c, 6, 69, 100
9, 50392, Note_on_c, 6, 69, 0
9, 50400, Note_on_c, 6, 67, 100
9, 50400, Note_on_c, 6, 64, 100
9, 50508, Note_on_c, 6, 67, 0
9, 50508, Note_on_c, 6, 64, 0
9, 50640, Note_on_c, 6, 69, 100
9, 50640, Note_on_c, 6, 66, 100
9, 50748, Note_on_c, 6, 69, 0
9, 50748, Note_on_c, 6, 66, 0
9, 50880, Note_on_c, 6, 67, 100
9, 50880, Note_on_c, 6, 64, 100
9, 50988, Note_on_c, 6, 67, 0
9, 50988, Note_on_c, 6, 64, 0
9, 51120, Note_on_c, 6, 66, 100
9, 51120, Note_on_c, 6, 63, 100
9, 51228, Note_on_c, 6, 66, 0
9, 51228, Note_on_c, 6, 63, 0
9, 51360, Note_on_c, 6, 76, 100
9, 51360, Note_on_c, 6, 64, 100
9, 51432, Note_on_c, 6, 76, 0
9, 51440, Note_on_c, 6, 79, 100
9, 51468, Note_on_c, 6, 64, 0
9, 51512, Note_on_c, 6, 79, 0
9, 51520, Note_on_c, 6, 83, 100
9, 51592, Note_on_c, 6, 83, 0
9, 51600, Note_on_c, 6, 75, 100
9, 51600, Note_on_c, 6, 66, 100
9, 51672, Note_on_c, 6, 75, 0
9, 51680, Note_on_c, 6, 81, 100
9, 51708, Note_on_c, 6, 66, 0
9, 51752, Note_on_c, 6, 81, 0
9, 51760, Note_on_c, 6, 84, 100
9, 51832, Note_on_c, 6, 84, 0
9, 51840, Note_on_c, 6, 76, 100
9, 51840, Note_on_c, 6, 67, 100
9, 51912, Note_on_c, 6, 76, 0
9, 51920, Note_on_c, 6, 79, 100
9, 51948, Note_on_c, 6, 67, 0
9, 51992, Note_on_c, 6, 79, 0
9, 52000, Note_on_c, 6, 83, 100
9, 52072, Note_on_c, 6, 83, 0
9, 52080, Note_on_c, 6, 71, 100
9, 52080, Note_on_c, 6, 63, 100
9, 52152, Note_on_c, 6, 71, 0
9, 52160, Note_on_c, 6, 78, 100
9, 52188, Note_on_c, 6, 63, 0
9, 52232, Note_on_c, 6, 78, 0
9, 52240, Note_on_c, 6, 81, 100
9, 52312, Note_on_c, 6, 81, 0
9, 52320, Note_on_c, 6, 76, 100
9, 52392, Note_on_c, 6, 76, 0
9, 52400, Note_on_c, 6, 78, 100
9, 52472, Note_on_c, 6, 78, 0
9, 52480, Note_on_c, 6, 79, 100
9, 52552, Note_on_c, 6, 79, 0
9, 52560, Note_on_c, 6, 81, 100
9, 52632, Note_on_c, 6, 81, 0
9, 52640, Note_on_c, 6, 83, 100
9, 52712, Note_on_c, 6, 83, 0
9, 52720, Note_on_c, 6, 84, 100
9, 52792, Note_on_c, 6, 84, 0
9, 52800, Note_on_c, 6, 74, 100
9, 52872, Note_on_c, 6, 74, 0
9, 52880, Note_on_c, 6, 76, 100
9, 52952, Note_on_c, 6, 76, 0
9, 52960, Note_on_c, 6, 78, 100
9, 53032, Note_on_c, 6, 78, 0
9, 53040, Note_on_c, 6, 79, 100
9, 53112, Note_on_c, 6, 79, 0
9, 53120, Note_on_c, 6, 81, 100
9, 53192, Note_on_c, 6, 81, 0
9, 53200, Note_on_c, 6, 83, 100
9, 53272, Note_on_c, 6, 83, 0
9, 53280, Note_on_c, 6, 72, 100
9, 53352, Note_on_c, 6, 72, 0
9, 53360, Note_on_c, 6, 74, 100
9, 53432, Note_on_c, 6, 74, 0
9, 53440, Note_on_c, 6, 76, 100
9, 53512, Note_on_c, 6, 76, 0
9, 53520, Note_on_c, 6, 78, 100
9, 53592, Note_on_c, 6, 78, 0
9, 53600, Note_on_c, 6, 79, 100
9, 53672, Note_on_c, 6, 79, 0
9, 53680, Note_on_c, 6, 81, 100
9, 53752, Note_on_c, 6, 81, 0
9, 53760, Note_on_c, 6, 71, 100
9, 53832, Note_on_c, 6, 71, 0
9, 53840, Note_on_c, 6, 75, 100
9, 53912, Note_on_c, 6, 75, 0
9, 53920, Note_on_c, 6, 78, 100
9, 53992, Note_on_c, 6, 78, 0
9, 54000, Note_on_c, 6, 81, 100
9, 54072, Note_on_c, 6, 81, 0
9, 54080, Note_on_c, 6, 78, 100
9, 54152, Note_on_c, 6, 78, 0
9, 54160, Note_on_c, 6, 75, 100
9, 54232, Note_on_c, 6, 75, 0
9, 54240, Note_on_c, 6, 71, 100
9, 54312, Note_on_c, 6, 71, 0
9, 54320, Note_on_c, 6, 76, 100
9, 54392, Note_on_c, 6, 76, 0
9, 54400, Note_on_c, 6, 78, 100
9, 54472, Note_on_c, 6, 78, 0
9, 54480, Note_on_c, 6, 79, 100
9, 54552, Note_on_c, 6, 79, 0
9, 54560, Note_on_c, 6, 78, 100
9, 54632, Note_on_c, 6, 78, 0
9, 54640, Note_on_c, 6, 76, 100
9, 54712, Note_on_c, 6, 76, 0
9, 54720, Note_on_c, 6, 69, 100
9, 54792, Note_on_c, 6, 69, 0
9, 54800, Note_on_c, 6, 75, 100
9, 54872, Note_on_c, 6, 75, 0
9, 54880, Note_on_c, 6, 76, 100
9, 54952, Note_on_c, 6, 76, 0
9, 54960, Note_on_c, 6, 78, 100
9, 55032, Note_on_c, 6, 78, 0
9, 55040, Note_on_c, 6, 76, 100
9, 55112, Note_on_c, 6, 76, 0
9, 55120, Note_on_c, 6, 75, 100
9, 55192, Note_on_c, 6, 75, 0
9, 55200, Note_on_c, 6, 67, 100
9, 55272, Note_on_c, 6, 67, 0
9, 55280, Note_on_c, 6, 71, 100
9, 55352, Note_on_c, 6, 71, 0
9, 55360, Note_on_c, 6, 76, 100
9, 55432, Note_on_c, 6, 76, 0
9, 55440, Note_on_c, 6, 66, 100
9, 55512, Note_on_c, 6, 66, 0
9, 55520, Note_on_c, 6, 69, 100
9, 55592, Note_on_c, 6, 69, 0
9, 55600, Note_on_c, 6, 74, 100
9, 55672, Note_on_c, 6, 74, 0
9, 55680, Note_on_c, 6, 64, 100
9, 55752, Note_on_c, 6, 64, 0
9, 55760, Note_on_c, 6, 71, 100
9, 55832, Note_on_c, 6, 71, 0
9, 55840, Note_on_c, 6, 72, 100
9, 55912, Note_on_c, 6, 72, 0
9, 55920, Note_on_c, 6, 74, 100
9, 55992, Note_on_c, 6, 74, 0
9, 56000, Note_on_c, 6, 72, 100
9, 56072, Note_on_c, 6, 72, 0
9, 56080, Note_on_c, 6, 71, 100
9, 56152, Note_on_c, 6, 71, 0
9, 56160, Note_on_c, 6, 64, 100
9, 56232, Note_on_c, 6, 64, 0
9, 56240, Note_on_c, 6, 69, 100
9, 56312, Note_on_c, 6, 69, 0
9, 56320, Note_on_c, 6, 71, 100
9, 56392, Note_on_c, 6, 71, 0
9, 56400, Note_on_c, 6, 72, 100
9, 56472, Note_on_c, 6, 72, 0
9, 56480, Note_on_c, 6, 71, 100
9, 56552, Note_on_c, 6, 71, 0
9, 56560, Note_on_c, 6, 69, 100
9, 56632, Note_on_c, 6, 69, 0
9, 56640, Note_on_c, 6, 71, 100
9, 56712, Note_on_c, 6, 71, 0
9, 56720, Note_on_c, 6, 62, 100
9, 56792, Note_on_c, 6, 62, 0
9, 56800, Note_on_c, 6, 64, 100
9, 56872, Note_on_c, 6, 64, 0
9, 56880, Note_on_c, 6, 65, 100
9, 56952, Note_on_c, 6, 65, 0
9, 56960, Note_on_c, 6, 64, 100
9, 57032, Note_on_c, 6, 64, 0
9, 57040, Note_on_c, 6, 62, 100
9, 57112, Note_on_c, 6, 62, 0
9, 57120, Note_on_c, 6, 69, 100
9, 57192, Note_on_c, 6, 69, 0
9, 57200, Note_on_c, 6, 60, 100
9, 57272, Note_on_c, 6, 60, 0
9, 57280, Note_on_c, 6, 62, 100
9, 57352, Note_on_c, 6, 62, 0
9, 57360, Note_on_c, 6, 64, 100
9, 57432, Note_on_c, 6, 64, 0
9, 57440, Note_on_c, 6, 62, 100
9, 57512, Note_on_c, 6, 62, 0
9, 57520, Note_on_c, 6, 60, 100
9, 57592, Note_on_c, 6, 60, 0
9, 57600, Note_on_c, 6, 68, 100
9, 57672, Note_on_c, 6, 68, 0
9, 57680, Note_on_c, 6, 59, 100
9, 57752, Note_on_c, 6, 59, 0
9, 57760, Note_on_c, 6, 60, 100
9, 57832, Note_on_c, 6, 60, 0
9, 57840, Note_on_c, 6, 62, 100
9, 57912, Note_on_c, 6, 62, 0
9, 57920, Note_on_c, 6, 60, 100
9, 57992, Note_on_c, 6, 60, 0
9, 58000, Note_on_c, 6, 59, 100
9, 58072, Note_on_c, 6, 59, 0
9, 58080, Note_on_c, 6, 60, 100
9, 58152, Note_on_c, 6, 60, 0
9, 58160, Note_on_c, 6, 64, 100
9, 58232, Note_on_c, 6, 64, 0
9, 58240, Note_on_c, 6, 69, 100
9, 58312, Note_on_c, 6, 69, 0
9, 58320, Note_on_c, 6, 62, 100
9, 58392, Note_on_c, 6, 62, 0
9, 58400, Note_on_c, 6, 68, 100
9, 58472, Note_on_c, 6, 68, 0
9, 58480, Note_on_c, 6, 71, 100
9, 58552, Note_on_c, 6, 71, 0
9, 58560, Note_on_c, 6, 64, 100
9, 58632, Note_on_c, 6, 64, 0
9, 58640, Note_on_c, 6, 69, 100
9, 58712, Note_on_c, 6, 69, 0
9, 58720, Note_on_c, 6, 72, 100
9, 58792, Note_on_c, 6, 72, 0
9, 58800, Note_on_c, 6, 68, 100
9, 58872, Note_on_c, 6, 68, 0
9, 58880, Note_on_c, 6, 71, 100
9, 58952, Note_on_c, 6, 71, 0
9, 58960, Note_on_c, 6, 74, 100
9, 59032, Note_on_c, 6, 74, 0
9, 59040, Note_on_c, 6, 69, 100
9, 59112, Note_on_c, 6, 69, 0
9, 59120, Note_on_c, 6, 72, 100
9, 59192, Note_on_c, 6, 72, 0
9, 59200, Note_on_c, 6, 74, 100
9, 59272, Note_on_c, 6, 74, 0
9, 59280, Note_on_c, 6, 76, 100
9, 59352, Note_on_c, 6, 76, 0
9, 59360, Note_on_c, 6, 74, 100
9, 59432, Note_on_c, 6, 74, 0
9, 59440, Note_on_c, 6, 72, 100
9, 59512, Note_on_c, 6, 72, 0
9, 59520, Note_on_c, 6, 77, 100
9, 59592, Note_on_c, 6, 77, 0
9, 59600, Note_on_c, 6, 76, 100
9, 59672, Note_on_c, 6, 76, 0
9, 59680, Note_on_c, 6, 74, 100
9, 59752, Note_on_c, 6, 74, 0
9, 59760, Note_on_c, 6, 72, 100
9, 59832, Note_on_c, 6, 72, 0
9, 59840, Note_on_c, 6, 71, 100
9, 59912, Note_on_c, 6, 71, 0
9, 59920, Note_on_c, 6, 69, 100
9, 59992, Note_on_c, 6, 69, 0
9, 60000, Note_on_c, 6, 80, 100
9, 60072, Note_on_c, 6, 80, 0
9, 60080, Note_on_c, 6, 77, 100
9, 60152, Note_on_c, 6, 77, 0
9, 60160, Note_on_c, 6, 76, 100
9, 60232, Note_on_c, 6, 76, 0
9, 60240, Note_on_c, 6, 74, 100
9, 60312, Note_on_c, 6, 74, 0
9, 60320, Note_on_c, 6, 72, 100
9, 60392, Note_on_c, 6, 72, 0
9, 60400, Note_on_c, 6, 71, 100
9, 60472, Note_on_c, 6, 71, 0
9, 60480, Note_on_c, 6, 81, 100
9, 60552, Note_on_c, 6, 81, 0
9, 60560, Note_on_c, 6, 77, 100
9, 60632, Note_on_c, 6, 77, 0
9, 60640, Note_on_c, 6, 76, 100
9, 60712, Note_on_c, 6, 76, 0
9, 60720, Note_on_c, 6, 74, 100
9, 60792, Note_on_c, 6, 74, 0
9, 60800, Note_on_c, 6, 72, 100
9, 60872, Note_on_c, 6, 72, 0
9, 60880, Note_on_c, 6, 71, 100
9, 60952, Note_on_c, 6, 71, 0
9, 60960, Note_on_c, 6, 83, 100
9, 61032, Note_on_c, 6, 83, 0
9, 61040, Note_on_c, 6, 77, 100
9, 61112, Note_on_c, 6, 77, 0
9, 61120, Note_on_c, 6, 76, 100
9, 61192, Note_on_c, 6, 76, 0
9, 61200, Note_on_c, 6, 74, 100
9, 61272, Note_on_c, 6, 74, 0
9, 61280, Note_on_c, 6, 72, 100
9, 61352, Note_on_c, 6, 72, 0
9, 61360, Note_on_c, 6, 71, 100
9, 61432, Note_on_c, 6, 71, 0
9, 61440, Note_on_c, 6, 84, 100
9, 61440, Note_on_c, 6, 69, 100
9, 61512, Note_on_c, 6, 69, 0
9, 61520, Note_on_c, 6, 72, 100
9, 61548, Note_on_c, 6, 84, 0
9, 61592, Note_on_c, 6, 72, 0
9, 61600, Note_on_c, 6, 76, 100
9, 61672, Note_on_c, 6, 76, 0
9, 61680, Note_on_c, 6, 83, 100
9, 61680, Note_on_c, 6, 68, 100
9, 61752, Note_on_c, 6, 68, 0
9, 61760, Note_on_c, 6, 74, 100
9, 61788, Note_on_c, 6, 83, 0
9, 61832, Note_on_c, 6, 74, 0
9, 61840, Note_on_c, 6, 77, 100
9, 61912, Note_on_c, 6, 77, 0
9, 61920, Note_on_c, 6, 81, 100
9, 61920, Note_on_c, 6, 69, 100
9, 61992, Note_on_c, 6, 69, 0
9, 62000, Note_on_c, 6, 72, 100
9, 62028, Note_on_c, 6, 81, 0
9, 62072, Note_on_c, 6, 72, 0
9, 62080, Note_on_c, 6, 76, 100
9, 62152, Note_on_c, 6, 76, 0
9, 62160, Note_on_c, 6, 80, 100
9, 62160, Note_on_c, 6, 64, 100
9, 62232, Note_on_c, 6, 64, 0
9, 62240, Note_on_c, 6, 71, 100
9, 62268, Note_on_c, 6, 80, 0
9, 62312, Note_on_c, 6, 71, 0
9, 62320, Note_on_c, 6, 74, 100
9, 62392, Note_on_c, 6, 74, 0
9, 62400, Note_on_c, 6, 81, 100
9, 62400, Note_on_c, 6, 69, 100
9, 62472, Note_on_c, 6, 69, 0
9, 62480, Note_on_c, 6, 71, 100
9, 62508, Note_on_c, 6, 81, 0
9, 62552, Note_on_c, 6, 71, 0
9, 62560, Note_on_c, 6, 72, 100
9, 62632, Note_on_c, 6, 72, 0
9, 62640, Note_on_c, 6, 74, 100
9, 62712, Note_on_c, 6, 74, 0
9, 62720, Note_on_c, 6, 76, 100
9, 62792, Note_on_c, 6, 76, 0
9, 62800, Note_on_c, 6, 77, 100
9, 62872, Note_on_c, 6, 77, 0
9, 62880, Note_on_c, 6, 71, 100
9, 62880, Note_on_c, 6, 67, 100
9, 62952, Note_on_c, 6, 71, 0
9, 62952, Note_on_c, 6, 67, 0
9, 62960, Note_on_c, 6, 72, 100
9, 62960, Note_on_c, 6, 69, 100
9, 63032, Note_on_c, 6, 72, 0
9, 63032, Note_on_c, 6, 69, 0
9, 63040, Note_on_c, 6, 74, 100
9, 63040, Note_on_c, 6, 71, 100
9, 63112, Note_on_c, 6, 74, 0
9, 63112, Note_on_c, 6, 71, 0
9, 63120, Note_on_c, 6, 76, 100
9, 63120, Note_on_c, 6, 72, 100
9, 63192, Note_on_c, 6, 76, 0
9, 63192, Note_on_c, 6, 72, 0
9, 63200, Note_on_c, 6, 77, 100
9, 63200, Note_on_c, 6, 74, 100
9, 63272, Note_on_c, 6, 77, 0
9, 63272, Note_on_c, 6, 74, 0
9, 63280, Note_on_c, 6, 79, 100
9, 63280, Note_on_c, 6, 76, 100
9, 63352, Note_on_c, 6, 79, 0
9, 63352, Note_on_c, 6, 76, 0
9, 63360, Note_on_c, 6, 69, 100
9, 63360, Note_on_c, 6, 65, 100
9, 63432, Note_on_c, 6, 69, 0
9, 63432, Note_on_c, 6, 65, 0
9, 63440, Note_on_c, 6, 71, 100
9, 63440, Note_on_c, 6, 67, 100
9, 63512, Note_on_c, 6, 71, 0
9, 63512, Note_on_c, 6, 67, 0
9, 63520, Note_on_c, 6, 72, 100
9, 63520, Note_on_c, 6, 69, 100
9, 63592, Note_on_c, 6, 72, 0
9, 63592, Note_on_c, 6, 69, 0
9, 63600, Note_on_c, 6, 74, 100
9, 63600, Note_on_c, 6, 71, 100
9, 63672, Note_on_c, 6, 74, 0
9, 63672, Note_on_c, 6, 71, 0
9, 63680, Note_on_c, 6, 76, 100
9, 63680, Note_on_c, 6, 72, 100
9, 63752, Note_on_c, 6, 76, 0
9, 63752, Note_on_c, 6, 72, 0
9, 63760, Note_on_c, 6, 77, 100
9, 63760, Note_on_c, 6, 74, 100
9, 63832, Note_on_c, 6, 77, 0
9, 63832, Note_on_c, 6, 74, 0
9, 63840, Note_on_c, 6, 76, 100
9, 63840, Note_on_c, 6, 64, 100
9, 63912, Note_on_c, 6, 64, 0
9, 63920, Note_on_c, 6, 68, 100
9, 63992, Note_on_c, 6, 68, 0
9, 64000, Note_on_c, 6, 71, 100
9, 64072, Note_on_c, 6, 71, 0
9, 64080, Note_on_c, 6, 74, 100
9, 64152, Note_on_c, 6, 74, 0
9, 64160, Note_on_c, 6, 71, 100
9, 64232, Note_on_c, 6, 71, 0
9, 64240, Note_on_c, 6, 68, 100
9, 64312, Note_on_c, 6, 68, 0
9, 64320, Note_on_c, 6, 64, 100
9, 64392, Note_on_c, 6, 64, 0
9, 64400, Note_on_c, 6, 69, 100
9, 64472, Note_on_c, 6, 69, 0
9, 64480, Note_on_c, 6, 71, 100
9, 64552, Note_on_c, 6, 71, 0
9, 64560, Note_on_c, 6, 72, 100
9, 64632, Note_on_c, 6, 72, 0
9, 64640, Note_on_c, 6, 71, 100
9, 64712, Note_on_c, 6, 71, 0
9, 64720, Note_on_c, 6, 69, 100
9, 64792, Note_on_c, 6, 69, 0
9, 64800, Note_on_c, 6, 73, 100
9, 64872, Note_on_c, 6, 73, 0
9, 64880, Note_on_c, 6, 70, 100
9, 64952, Note_on_c, 6, 70, 0
9, 64960, Note_on_c, 6, 69, 100
9, 65032, Note_on_c, 6, 69, 0
9, 65040, Note_on_c, 6, 67, 100
9, 65112, Note_on_c, 6, 67, 0
9, 65120, Note_on_c, 6, 65, 100
9, 65184, Note_on_c, 6, 76, 0
9, 65192, Note_on_c, 6, 65, 0
9, 65200, Note_on_c, 6, 64, 100
9, 65272, Note_on_c, 6, 64, 0
9, 65280, Note_on_c, 6, 74, 100
9, 65280, Note_on_c, 6, 65, 100
9, 65388, Note_on_c, 6, 74, 0
9, 65388, Note_on_c, 6, 65, 0
9, 65520, Note_on_c, 6, 79, 100
9, 65520, Note_on_c, 6, 76, 100
9, 65628, Note_on_c, 6, 79, 0
9, 65628, Note_on_c, 6, 76, 0
9, 65760, Note_on_c, 6, 77, 100
9, 65760, Note_on_c, 6, 74, 100
9, 65868, Note_on_c, 6, 77, 0
9, 65868, Note_on_c, 6, 74, 0
9, 66000, Note_on_c, 6, 76, 100
9, 66000, Note_on_c, 6, 73, 100
9, 66108, Note_on_c, 6, 76, 0
9, 66108, Note_on_c, 6, 73, 0
9, 66240, Note_on_c, 6, 77, 100
9, 66240, Note_on_c, 6, 74, 100
9, 66456, Note_on_c, 6, 77, 0
9, 66456, Note_on_c, 6, 74, 0
9, 66480, Note_on_c, 6, 82, 100
9, 66480, Note_on_c, 6, 77, 100
9, 66552, Note_on_c, 6, 77, 0
9, 66560, Note_on_c, 6, 76, 100
9, 66632, Note_on_c, 6, 76, 0
9, 66640, Note_on_c, 6, 74, 100
9, 66712, Note_on_c, 6, 74, 0
9, 66720, Note_on_c, 6, 76, 100
9, 66792, Note_on_c, 6, 82, 0
9, 66800, Note_on_c, 6, 81, 100
9, 66872, Note_on_c, 6, 81, 0
9, 66880, Note_on_c, 6, 79, 100
9, 66952, Note_on_c, 6, 79, 0
9, 66960, Note_on_c, 6, 81, 100
9, 67032, Note_on_c, 6, 76, 0
9, 67040, Note_on_c, 6, 74, 100
9, 67112, Note_on_c, 6, 74, 0
9, 67120, Note_on_c, 6, 73, 100
9, 67192, Note_on_c, 6, 73, 0
9, 67200, Note_on_c, 6, 74, 100
9, 67272, Note_on_c, 6, 81, 0
9, 67280, Note_on_c, 6, 79, 100
9, 67352, Note_on_c, 6, 79, 0
9, 67360, Note_on_c, 6, 78, 100
9, 67432, Note_on_c, 6, 78, 0
9, 67440, Note_on_c, 6, 79, 100
9, 67512, Note_on_c, 6, 74, 0
9, 67520, Note_on_c, 6, 73, 100
9, 67592, Note_on_c, 6, 73, 0
9, 67600, Note_on_c, 6, 71, 100
9, 67672, Note_on_c, 6, 71, 0
9, 67680, Note_on_c, 6, 73, 100
9, 67788, Note_on_c, 6, 79, 0
9, 67788, Note_on_c, 6, 73, 0
9, 67920, Note_on_c, 6, 76, 100
9, 67920, Note_on_c, 6, 73, 100
9, 68028, Note_on_c, 6, 76, 0
9, 68028, Note_on_c, 6, 73, 0
9, 68160, Note_on_c, 6, 77, 100
9, 68160, Note_on_c, 6, 74, 100
9, 68268, Note_on_c, 6, 77, 0
9, 68268, Note_on_c, 6, 74, 0
9, 68400, Note_on_c, 6, 74, 100
9, 68400, Note_on_c, 6, 69, 100
9, 68508, Note_on_c, 6, 74, 0
9, 68508, Note_on_c, 6, 69, 0
9, 68640, Note_on_c, 6, 74, 100
9, 68640, Note_on_c, 6, 71, 100
9, 69192, Note_on_c, 6, 71, 0
9, 69200, Note_on_c, 6, 71, 100
9, 69272, Note_on_c, 6, 71, 0
9, 69280, Note_on_c, 6, 69, 100
9, 69352, Note_on_c, 6, 69, 0
9, 69360, Note_on_c, 6, 68, 100
9, 69432, Note_on_c, 6, 68, 0
9, 69440, Note_on_c, 6, 66, 100
9, 69512, Note_on_c, 6, 66, 0
9, 69520, Note_on_c, 6, 64, 100
9, 69592, Note_on_c, 6, 64, 0
9, 69600, Note_on_c, 6, 69, 100
9, 69672, Note_on_c, 6, 74, 0
9, 69680, Note_on_c, 6, 76, 100
9, 69752, Note_on_c, 6, 76, 0
9, 69760, Note_on_c, 6, 74, 100
9, 69832, Note_on_c, 6, 74, 0
9, 69840, Note_on_c, 6, 72, 100
9, 69912, Note_on_c, 6, 72, 0
9, 69920, Note_on_c, 6, 71, 100
9, 69992, Note_on_c, 6, 71, 0
9, 70000, Note_on_c, 6, 69, 100
9, 70072, Note_on_c, 6, 69, 0
9, 70072, Note_on_c, 6, 69, 0
9, 70080, Note_on_c, 6, 78, 100
9, 70632, Note_on_c, 6, 78, 0
9, 70640, Note_on_c, 6, 78, 100
9, 70712, Note_on_c, 6, 78, 0
9, 70720, Note_on_c, 6, 76, 100
9, 70792, Note_on_c, 6, 76, 0
9, 70800, Note_on_c, 6, 75, 100
9, 70872, Note_on_c, 6, 75, 0
9, 70880, Note_on_c, 6, 73, 100
9, 70952, Note_on_c, 6, 73, 0
9, 70960, Note_on_c, 6, 71, 100
9, 71032, Note_on_c, 6, 71, 0
9, 71040, Note_on_c, 6, 76, 100
9, 71120, Note_on_c, 6, 71, 100
9, 71192, Note_on_c, 6, 71, 0
9, 71200, Note_on_c, 6, 69, 100
9, 71272, Note_on_c, 6, 69, 0
9, 71280, Note_on_c, 6, 67, 100
9, 71352, Note_on_c, 6, 67, 0
9, 71360, Note_on_c, 6, 66, 100
9, 71432, Note_on_c, 6, 66, 0
9, 71440, Note_on_c, 6, 64, 100
9, 71512, Note_on_c, 6, 64, 0
9, 71520, Note_on_c, 6, 70, 100
9, 72072, Note_on_c, 6, 70, 0
9, 72080, Note_on_c, 6, 70, 100
9, 72152, Note_on_c, 6, 70, 0
9, 72160, Note_on_c, 6, 69, 100
9, 72232, Note_on_c, 6, 69, 0
9, 72240, Note_on_c, 6, 67, 100
9, 72312, Note_on_c, 6, 67, 0
9, 72320, Note_on_c, 6, 65, 100
9, 72392, Note_on_c, 6, 65, 0
9, 72400, Note_on_c, 6, 64, 100
9, 72472, Note_on_c, 6, 64, 0
9, 72480, Note_on_c, 6, 69, 100
9, 72552, Note_on_c, 6, 76, 0
9, 72560, Note_on_c, 6, 76, 100
9, 72632, Note_on_c, 6, 76, 0
9, 72640, Note_on_c, 6, 74, 100
9, 72712, Note_on_c, 6, 74, 0
9, 72720, Note_on_c, 6, 73, 100
9, 72792, Note_on_c, 6, 73, 0
9, 72800, Note_on_c, 6, 71, 100
9, 72872, Note_on_c, 6, 71, 0
9, 72880, Note_on_c, 6, 69, 100
9, 72952, Note_on_c, 6, 69, 0
9, 72952, Note_on_c, 6, 69, 0
9, 72960, Note_on_c, 6, 79, 100
9, 73512, Note_on_c, 6, 79, 0
9, 73520, Note_on_c, 6, 81, 100
9, 73592, Note_on_c, 6, 81, 0
9, 73600, Note_on_c, 6, 79, 100
9, 73672, Note_on_c, 6, 79, 0
9, 73680, Note_on_c, 6, 77, 100
9, 73752, Note_on_c, 6, 77, 0
9, 73760, Note_on_c, 6, 76, 100
9, 73832, Note_on_c, 6, 76, 0
9, 73840, Note_on_c, 6, 74, 100
9, 73912, Note_on_c, 6, 74, 0
9, 73920, Note_on_c, 6, 76, 100
9, 73920, Note_on_c, 6, 68, 100
9, 74136, Note_on_c, 6, 68, 0
9, 74160, Note_on_c, 6, 69, 100
9, 74472, Note_on_c, 6, 76, 0
9, 74480, Note_on_c, 6, 77, 100
9, 74552, Note_on_c, 6, 77, 0
9, 74560, Note_on_c, 6, 76, 100
9, 74632, Note_on_c, 6, 76, 0
9, 74640, Note_on_c, 6, 74, 100
9, 74712, Note_on_c, 6, 74, 0
9, 74720, Note_on_c, 6, 72, 100
9, 74792, Note_on_c, 6, 72, 0
9, 74800, Note_on_c, 6, 71, 100
9, 74872, Note_on_c, 6, 71, 0
9, 74880, Note_on_c, 6, 72, 100
9, 74988, Note_on_c, 6, 69, 0
9, 74988, Note_on_c, 6, 72, 0
9, 75120, Note_on_c, 6, 71, 100
9, 75120, Note_on_c, 6, 68, 100
9, 75228, Note_on_c, 6, 71, 0
9, 75228, Note_on_c, 6, 68, 0
9, 75360, Note_on_c, 6, 76, 100
9, 75522, Note_on_c, 6, 76, 0
9, 75540, Note_on_c, 6, 81, 100
9, 75594, Note_on_c, 6, 81, 0
9, 75600, Note_on_c, 6, 74, 100
9, 75762, Note_on_c, 6, 74, 0
9, 75780, Note_on_c, 6, 79, 100
9, 75834, Note_on_c, 6, 79, 0
9, 75840, Note_on_c, 6, 72, 100
9, 76002, Note_on_c, 6, 72, 0
9, 76020, Note_on_c, 6, 77, 100
9, 76074, Note_on_c, 6, 77, 0
9, 76080, Note_on_c, 6, 71, 100
9, 76242, Note_on_c, 6, 71, 0
9, 76260, Note_on_c, 6, 76, 100
9, 76314, Note_on_c, 6, 76, 0
9, 76320, Note_on_c, 6, 69, 100
9, 76482, Note_on_c, 6, 69, 0
9, 76500, Note_on_c, 6, 74, 100
9, 76554, Note_on_c, 6, 74, 0
9, 76560, Note_on_c, 6, 67, 100
9, 76722, Note_on_c, 6, 67, 0
9, 76740, Note_on_c, 6, 72, 100
9, 76794, Note_on_c, 6, 72, 0
9, 76800, Note_on_c, 6, 65, 100
9, 76962, Note_on_c, 6, 65, 0
9, 76980, Note_on_c, 6, 70, 100
9, 77034, Note_on_c, 6, 70, 0
9, 77040, Note_on_c, 6, 64, 100
9, 77202, Note_on_c, 6, 64, 0
9, 77220, Note_on_c, 6, 69, 100
9, 77274, Note_on_c, 6, 69, 0
9, 77280, Note_on_c, 6, 62, 100
9, 77352, Note_on_c, 6, 62, 0
9, 77360, Note_on_c, 6, 68, 100
9, 77432, Note_on_c, 6, 68, 0
9, 77440, Note_on_c, 6, 69, 100
9, 77512, Note_on_c, 6, 69, 0
9, 77520, Note_on_c, 6, 71, 100
9, 77592, Note_on_c, 6, 71, 0
9, 77600, Note_on_c, 6, 69, 100
9, 77672, Note_on_c, 6, 69, 0
9, 77680, Note_on_c, 6, 68, 100
9, 77752, Note_on_c, 6, 68, 0
9, 77760, Note_on_c, 6, 74, 100
9, 77840, Note_on_c, 6, 64, 100
9, 77912, Note_on_c, 6, 64, 0
9, 77920, Note_on_c, 6, 66, 100
9, 77992, Note_on_c, 6, 66, 0
9, 78000, Note_on_c, 6, 68, 100
9, 78072, Note_on_c, 6, 68, 0
9, 78080, Note_on_c, 6, 66, 100
9, 78152, Note_on_c, 6, 66, 0
9, 78160, Note_on_c, 6, 64, 100
9, 78232, Note_on_c, 6, 64, 0
9, 78240, Note_on_c, 6, 71, 100
9, 78792, Note_on_c, 6, 71, 0
9, 78800, Note_on_c, 6, 71, 100
9, 78872, Note_on_c, 6, 71, 0
9, 78880, Note_on_c, 6, 69, 100
9, 78952, Note_on_c, 6, 69, 0
9, 78960, Note_on_c, 6, 68, 100
9, 79032, Note_on_c, 6, 68, 0
9, 79040, Note_on_c, 6, 66, 100
9, 79112, Note_on_c, 6, 66, 0
9, 79120, Note_on_c, 6, 64, 100
9, 79192, Note_on_c, 6, 64, 0
9, 79200, Note_on_c, 6, 69, 100
9, 79272, Note_on_c, 6, 74, 0
9, 79280, Note_on_c, 6, 77, 100
9, 79352, Note_on_c, 6, 77, 0
9, 79360, Note_on_c, 6, 76, 100
9, 79432, Note_on_c, 6, 76, 0
9, 79440, Note_on_c, 6, 74, 100
9, 79512, Note_on_c, 6, 74, 0
9, 79520, Note_on_c, 6, 72, 100
9, 79592, Note_on_c, 6, 72, 0
9, 79600, Note_on_c, 6, 71, 100
9, 79672, Note_on_c, 6, 71, 0
9, 79680, Note_on_c, 6, 72, 100
9, 79842, Note_on_c, 6, 69, 0
9, 79860, Note_on_c, 6, 69, 100
9, 79914, Note_on_c, 6, 69, 0
9, 79920, Note_on_c, 6, 62, 100
9, 80082, Note_on_c, 6, 72, 0
9, 80100, Note_on_c, 6, 71, 100
9, 80136, Note_on_c, 6, 62, 0
9, 80160, Note_on_c, 6, 60, 100
9, 80322, Note_on_c, 6, 71, 0
9, 80340, Note_on_c, 6, 69, 100
9, 80376, Note_on_c, 6, 60, 0
9, 80400, Note_on_c, 6, 59, 100
9, 80562, Note_on_c, 6, 69, 0
9, 80580, Note_on_c, 6, 68, 100
9, 80616, Note_on_c, 6, 59, 0
9, 80634, Note_on_c, 6, 68, 0
9, 80640, Note_on_c, 6, 69, 100
9, 80640, Note_on_c, 6, 60, 100
9, 80748, Note_on_c, 6, 69, 0
9, 80748, Note_on_c, 6, 60, 0
9, 81120, Note_on_c, 6, 59, 100
9, 81192, Note_on_c, 6, 59, 0
9, 81200, Note_on_c, 6, 60, 100
9, 81272, Note_on_c, 6, 60, 0
9, 81280, Note_on_c, 6, 62, 100
9, 81352, Note_on_c, 6, 62, 0
9, 81360, Note_on_c, 6, 64, 100
9, 81432, Note_on_c, 6, 64, 0
9, 81440, Note_on_c, 6, 65, 100
9, 81512, Note_on_c, 6, 65, 0
9, 81520, Note_on_c, 6, 67, 100
9, 81592, Note_on_c, 6, 67, 0
9, 81600, Note_on_c, 6, 69, 100
9, 81672, Note_on_c, 6, 69, 0
9, 81680, Note_on_c, 6, 71, 100
9, 81752, Note_on_c, 6, 71, 0
9, 81760, Note_on_c, 6, 72, 100
9, 81832, Note_on_c, 6, 72, 0
9, 81840, Note_on_c, 6, 74, 100
9, 81912, Note_on_c, 6, 74, 0
9, 81920, Note_on_c, 6, 76, 100
9, 81992, Note_on_c, 6, 76, 0
9, 82000, Note_on_c, 6, 77, 100
9, 82072, Note_on_c, 6, 77, 0
9, 82080, Note_on_c, 6, 68, 100
9, 82152, Note_on_c, 6, 68, 0
9, 82160, Note_on_c, 6, 71, 100
9, 82232, Note_on_c, 6, 71, 0
9, 82240, Note_on_c, 6, 74, 100
9, 82312, Note_on_c, 6, 74, 0
9, 82320, Note_on_c, 6, 71, 100
9, 82392, Note_on_c, 6, 71, 0
9, 82400, Note_on_c, 6, 68, 100
9, 82472, Note_on_c, 6, 68, 0
9, 82480, Note_on_c, 6, 64, 100
9, 82552, Note_on_c, 6, 64, 0
9, 90240, Note_on_c, 6, 59, 100
9, 90312, Note_on_c, 6, 59, 0
9, 90320, Note_on_c, 6, 62, 100
9, 90392, Note_on_c, 6, 62, 0
9, 90400, Note_on_c, 6, 66, 100
9, 90472, Note_on_c, 6, 66, 0
9, 90480, Note_on_c, 6, 58, 100
9, 90552, Note_on_c, 6, 58, 0
9, 90560, Note_on_c, 6, 64, 100
9, 90632, Note_on_c, 6, 64, 0
9, 90640, Note_on_c, 6, 67, 100
9, 90712, Note_on_c, 6, 67, 0
9, 90720, Note_on_c, 6, 59, 100
9, 90792, Note_on_c, 6, 59, 0
9, 90800, Note_on_c, 6, 62, 100
9, 90872, Note_on_c, 6, 62, 0
9, 90880, Note_on_c, 6, 66, 100
9, 90952, Note_on_c, 6, 66, 0
9, 90960, Note_on_c, 6, 54, 100
9, 91032, Note_on_c, 6, 54, 0
9, 91040, Note_on_c, 6, 61, 100
9, 91112, Note_on_c, 6, 61, 0
9, 91120, Note_on_c, 6, 64, 100
9, 91192, Note_on_c, 6, 64, 0
9, 91200, Note_on_c, 6, 59, 100
9, 91272, Note_on_c, 6, 59, 0
9, 91280, Note_on_c, 6, 61, 100
9, 91352, Note_on_c, 6, 61, 0
9, 91360, Note_on_c, 6, 62, 100
9, 91432, Note_on_c, 6, 62, 0
9, 91440, Note_on_c, 6, 64, 100
9, 91512, Note_on_c, 6, 64, 0
9, 91520, Note_on_c, 6, 66, 100
9, 91592, Note_on_c, 6, 66, 0
9, 91600, Note_on_c, 6, 67, 100
9, 91672, Note_on_c, 6, 67, 0
9, 91680, Note_on_c, 6, 57, 100
9, 91752, Note_on_c, 6, 57, 0
9, 91760, Note_on_c, 6, 59, 100
9, 91832, Note_on_c, 6, 59, 0
9, 91840, Note_on_c, 6, 61, 100
9, 91912, Note_on_c, 6, 61, 0
9, 91920, Note_on_c, 6, 62, 100
9, 91992, Note_on_c, 6, 62, 0
9, 92000, Note_on_c, 6, 64, 100
9, 92072, Note_on_c, 6, 64, 0
9, 92080, Note_on_c, 6, 66, 100
9, 92152, Note_on_c, 6, 66, 0
9, 92160, Note_on_c, 6, 55, 100
9, 92232, Note_on_c, 6, 55, 0
9, 92240, Note_on_c, 6, 57, 100
9, 92312, Note_on_c, 6, 57, 0
9, 92320, Note_on_c, 6, 59, 100
9, 92392, Note_on_c, 6, 59, 0
9, 92400, Note_on_c, 6, 61, 100
9, 92472, Note_on_c, 6, 61, 0
9, 92480, Note_on_c, 6, 62, 100
9, 92552, Note_on_c, 6, 62, 0
9, 92560, Note_on_c, 6, 64, 100
9, 92632, Note_on_c, 6, 64, 0
9, 92640, Note_on_c, 6, 54, 100
9, 92712, Note_on_c, 6, 54, 0
9, 92720, Note_on_c, 6, 58, 100
9, 92792, Note_on_c, 6, 58, 0
9, 92800, Note_on_c, 6, 61, 100
9, 92872, Note_on_c, 6, 61, 0
9, 92880, Note_on_c, 6, 64, 100
9, 92952, Note_on_c, 6, 64, 0
9, 92960, Note_on_c, 6, 61, 100
9, 93032, Note_on_c, 6, 61, 0
9, 93040, Note_on_c, 6, 58, 100
9, 93112, Note_on_c, 6, 58, 0
9, 93120, Note_on_c, 6, 54, 100
9, 93192, Note_on_c, 6, 54, 0
9, 93200, Note_on_c, 6, 59, 100
9, 93272, Note_on_c, 6, 59, 0
9, 93280, Note_on_c, 6, 61, 100
9, 93352, Note_on_c, 6, 61, 0
9, 93360, Note_on_c, 6, 62, 100
9, 93432, Note_on_c, 6, 62, 0
9, 93440, Note_on_c, 6, 61, 100
9, 93512, Note_on_c, 6, 61, 0
9, 93520, Note_on_c, 6, 59, 100
9, 93592, Note_on_c, 6, 59, 0
9, 93600, Note_on_c, 6, 63, 100
9, 93672, Note_on_c, 6, 63, 0
9, 93680, Note_on_c, 6, 60, 100
9, 93752, Note_on_c, 6, 60, 0
9, 93760, Note_on_c, 6, 59, 100
9, 93832, Note_on_c, 6, 59, 0
9, 93840, Note_on_c, 6, 57, 100
9, 93912, Note_on_c, 6, 57, 0
9, 93920, Note_on_c, 6, 55, 100
9, 93992, Note_on_c, 6, 55, 0
9, 94000, Note_on_c, 6, 54, 100
9, 94072, Note_on_c, 6, 54, 0
9, 94160, Note_on_c, 6, 64, 100
9, 94232, Note_on_c, 6, 64, 0
9, 94240, Note_on_c, 6, 66, 100
9, 94312, Note_on_c, 6, 66, 0
9, 94320, Note_on_c, 6, 67, 100
9, 94392, Note_on_c, 6, 67, 0
9, 94400, Note_on_c, 6, 66, 100
9, 94472, Note_on_c, 6, 66, 0
9, 94480, Note_on_c, 6, 64, 100
9, 94552, Note_on_c, 6, 64, 0
9, 94560, Note_on_c, 6, 62, 100
9, 94632, Note_on_c, 6, 62, 0
9, 94640, Note_on_c, 6, 65, 100
9, 94712, Note_on_c, 6, 65, 0
9, 94720, Note_on_c, 6, 64, 100
9, 94792, Note_on_c, 6, 64, 0
9, 94800, Note_on_c, 6, 62, 100
9, 94872, Note_on_c, 6, 62, 0
9, 94880, Note_on_c, 6, 60, 100
9, 94952, Note_on_c, 6, 60, 0
9, 94960, Note_on_c, 6, 59, 100
9, 95032, Note_on_c, 6, 59, 0
9, 95040, Note_on_c, 6, 68, 100
9, 95112, Note_on_c, 6, 68, 0
9, 95120, Note_on_c, 6, 65, 100
9, 95192, Note_on_c, 6, 65, 0
9, 95200, Note_on_c, 6, 64, 100
9, 95272, Note_on_c, 6, 64, 0
9, 95280, Note_on_c, 6, 62, 100
9, 95352, Note_on_c, 6, 62, 0
9, 95360, Note_on_c, 6, 60, 100
9, 95432, Note_on_c, 6, 60, 0
9, 95440, Note_on_c, 6, 59, 100
9, 95512, Note_on_c, 6, 59, 0
9, 95520, Note_on_c, 6, 60, 100
9, 95592, Note_on_c, 6, 60, 0
9, 95600, Note_on_c, 6, 69, 100
9, 95672, Note_on_c, 6, 69, 0
9, 95680, Note_on_c, 6, 71, 100
9, 95752, Note_on_c, 6, 71, 0
9, 95760, Note_on_c, 6, 72, 100
9, 95832, Note_on_c, 6, 72, 0
9, 95840, Note_on_c, 6, 71, 100
9, 95912, Note_on_c, 6, 71, 0
9, 95920, Note_on_c, 6, 69, 100
9, 95992, Note_on_c, 6, 69, 0
9, 96000, Note_on_c, 6, 62, 100
9, 96072, Note_on_c, 6, 62, 0
9, 96080, Note_on_c, 6, 69, 100
9, 96152, Note_on_c, 6, 69, 0
9, 96160, Note_on_c, 6, 71, 100
9, 96232, Note_on_c, 6, 71, 0
9, 96240, Note_on_c, 6, 72, 100
9, 96312, Note_on_c, 6, 72, 0
9, 96320, Note_on_c, 6, 71, 100
9, 96392, Note_on_c, 6, 71, 0
9, 96400, Note_on_c, 6, 69, 100
9, 96472, Note_on_c, 6, 69, 0
9, 96480, Note_on_c, 6, 64, 100
9, 96552, Note_on_c, 6, 64, 0
9, 96560, Note_on_c, 6, 69, 100
9, 96632, Note_on_c, 6, 69, 0
9, 96640, Note_on_c, 6, 71, 100
9, 96712, Note_on_c, 6, 71, 0
9, 96720, Note_on_c, 6, 72, 100
9, 96792, Note_on_c, 6, 72, 0
9, 96800, Note_on_c, 6, 71, 100
9, 96872, Note_on_c, 6, 71, 0
9, 96880, Note_on_c, 6, 69, 100
9, 96952, Note_on_c, 6, 69, 0
9, 96960, Note_on_c, 6, 75, 100
9, 97032, Note_on_c, 6, 75, 0
9, 97040, Note_on_c, 6, 69, 100
9, 97112, Note_on_c, 6, 69, 0
9, 97120, Note_on_c, 6, 71, 100
9, 97192, Note_on_c, 6, 71, 0
9, 97200, Note_on_c, 6, 72, 100
9, 97272, Note_on_c, 6, 72, 0
9, 97280, Note_on_c, 6, 71, 100
9, 97352, Note_on_c, 6, 71, 0
9, 97360, Note_on_c, 6, 69, 100
9, 97432, Note_on_c, 6, 69, 0
9, 97440, Note_on_c, 6, 76, 100
9, 97512, Note_on_c, 6, 76, 0
9, 97520, Note_on_c, 6, 69, 100
9, 97592, Note_on_c, 6, 69, 0
9, 97600, Note_on_c, 6, 71, 100
9, 97672, Note_on_c, 6, 71, 0
9, 97680, Note_on_c, 6, 72, 100
9, 97752, Note_on_c, 6, 72, 0
9, 97760, Note_on_c, 6, 71, 100
9, 97832, Note_on_c, 6, 71, 0
9, 97840, Note_on_c, 6, 69, 100
9, 97912, Note_on_c, 6, 69, 0
9, 97920, Note_on_c, 6, 78, 100
9, 97992, Note_on_c, 6, 78, 0
9, 98000, Note_on_c, 6, 69, 100
9, 98072, Note_on_c, 6, 69, 0
9, 98080, Note_on_c, 6, 71, 100
9, 98152, Note_on_c, 6, 71, 0
9, 98160, Note_on_c, 6, 72, 100
9, 98232, Note_on_c, 6, 72, 0
9, 98240, Note_on_c, 6, 71, 100
9, 98312, Note_on_c, 6, 71, 0
9, 98320, Note_on_c, 6, 69, 100
9, 98392, Note_on_c, 6, 69, 0
9, 98400, Note_on_c, 6, 75, 100
9, 98472, Note_on_c, 6, 75, 0
9, 98480, Note_on_c, 6, 72, 100
9, 98552, Note_on_c, 6, 72, 0
9, 98560, Note_on_c, 6, 71, 100
9, 98632, Note_on_c, 6, 71, 0
9, 98640, Note_on_c, 6, 69, 100
9, 98712, Note_on_c, 6, 69, 0
9, 98720, Note_on_c, 6, 67, 100
9, 98792, Note_on_c, 6, 67, 0
9, 98800, Note_on_c, 6, 66, 100
9, 98872, Note_on_c, 6, 66, 0
9, 98880, Note_on_c, 6, 67, 100
9, 98988, Note_on_c, 6, 67, 0
9, 99120, Note_on_c, 6, 76, 100
9, 99282, Note_on_c, 6, 76, 0
9, 99300, Note_on_c, 6, 67, 100
9, 99354, Note_on_c, 6, 67, 0
9, 99360, Note_on_c, 6, 66, 100
9, 99468, Note_on_c, 6, 66, 0
9, 99600, Note_on_c, 6, 74, 100
9, 99762, Note_on_c, 6, 74, 0
9, 99780, Note_on_c, 6, 65, 100
9, 99834, Note_on_c, 6, 65, 0
9, 99840, Note_on_c, 6, 64, 100
9, 99948, Note_on_c, 6, 64, 0
9, 100080, Note_on_c, 6, 72, 100
9, 100242, Note_on_c, 6, 72, 0
9, 100260, Note_on_c, 6, 64, 100
9, 100314, Note_on_c, 6, 64, 0
9, 100320, Note_on_c, 6, 62, 100
9, 100482, Note_on_c, 6, 62, 0
9, 100500, Note_on_c, 6, 72, 100
9, 100554, Note_on_c, 6, 72, 0
9, 100560, Note_on_c, 6, 71, 100
9, 100722, Note_on_c, 6, 71, 0
9, 100740, Note_on_c, 6, 62, 100
9, 100794, Note_on_c, 6, 62, 0
9, 100800, Note_on_c, 6, 60, 100
9, 100908, Note_on_c, 6, 60, 0
9, 101040, Note_on_c, 6, 59, 100
9, 101148, Note_on_c, 6, 59, 0
9, 101280, Note_on_c, 6, 60, 100
9, 101388, Note_on_c, 6, 60, 0
9, 102720, Note_on_c, 6, 69, 100
9, 102792, Note_on_c, 6, 69, 0
9, 102800, Note_on_c, 6, 72, 100
9, 102872, Note_on_c, 6, 72, 0
9, 102880, Note_on_c, 6, 76, 100
9, 102952, Note_on_c, 6, 76, 0
9, 102960, Note_on_c, 6, 68, 100
9, 103032, Note_on_c, 6, 68, 0
9, 103040, Note_on_c, 6, 74, 100
9, 103112, Note_on_c, 6, 74, 0
9, 103120, Note_on_c, 6, 77, 100
9, 103192, Note_on_c, 6, 77, 0
9, 103200, Note_on_c, 6, 69, 100
9, 103272, Note_on_c, 6, 69, 0
9, 103280, Note_on_c, 6, 72, 100
9, 103352, Note_on_c, 6, 72, 0
9, 103360, Note_on_c, 6, 76, 100
9, 103432, Note_on_c, 6, 76, 0
9, 103440, Note_on_c, 6, 64, 100
9, 103512, Note_on_c, 6, 64, 0
9, 103520, Note_on_c, 6, 71, 100
9, 103592, Note_on_c, 6, 71, 0
9, 103600, Note_on_c, 6, 74, 100
9, 103672, Note_on_c, 6, 74, 0
9, 103680, Note_on_c, 6, 69, 100
9, 103752, Note_on_c, 6, 69, 0
9, 103760, Note_on_c, 6, 71, 100
9, 103832, Note_on_c, 6, 71, 0
9, 103840, Note_on_c, 6, 72, 100
9, 103912, Note_on_c, 6, 72, 0
9, 103920, Note_on_c, 6, 74, 100
9, 103992, Note_on_c, 6, 74, 0
9, 104000, Note_on_c, 6, 76, 100
9, 104072, Note_on_c, 6, 76, 0
9, 104080, Note_on_c, 6, 77, 100
9, 104152, Note_on_c, 6, 77, 0
9, 104160, Note_on_c, 6, 67, 100
9, 104232, Note_on_c, 6, 67, 0
9, 104240, Note_on_c, 6, 69, 100
9, 104312, Note_on_c, 6, 69, 0
9, 104320, Note_on_c, 6, 71, 100
9, 104392, Note_on_c, 6, 71, 0
9, 104400, Note_on_c, 6, 72, 100
9, 104472, Note_on_c, 6, 72, 0
9, 104480, Note_on_c, 6, 74, 100
9, 104552, Note_on_c, 6, 74, 0
9, 104560, Note_on_c, 6, 76, 100
9, 104632, Note_on_c, 6, 76, 0
9, 104640, Note_on_c, 6, 65, 100
9, 104712, Note_on_c, 6, 65, 0
9, 104720, Note_on_c, 6, 67, 100
9, 104792, Note_on_c, 6, 67, 0
9, 104800, Note_on_c, 6, 69, 100
9, 104872, Note_on_c, 6, 69, 0
9, 104880, Note_on_c, 6, 71, 100
9, 104952, Note_on_c, 6, 71, 0
9, 104960, Note_on_c, 6, 72, 100
9, 105032, Note_on_c, 6, 72, 0
9, 105040, Note_on_c, 6, 74, 100
9, 105112, Note_on_c, 6, 74, 0
9, 105120, Note_on_c, 6, 64, 100
9, 105192, Note_on_c, 6, 64, 0
9, 105200, Note_on_c, 6, 68, 100
9, 105272, Note_on_c, 6, 68, 0
9, 105280, Note_on_c, 6, 71, 100
9, 105352, Note_on_c, 6, 71, 0
9, 105360, Note_on_c, 6, 74, 100
9, 105432, Note_on_c, 6, 74, 0
9, 105440, Note_on_c, 6, 71, 100
9, 105512, Note_on_c, 6, 71, 0
9, 105520, Note_on_c, 6, 68, 100
9, 105592, Note_on_c, 6, 68, 0
9, 105600, Note_on_c, 6, 64, 100
9, 105672, Note_on_c, 6, 64, 0
9, 105680, Note_on_c, 6, 69, 100
9, 105752, Note_on_c, 6, 69, 0
9, 105760, Note_on_c, 6, 71, 100
9, 105832, Note_on_c, 6, 71, 0
9, 105840, Note_on_c, 6, 72, 100
9, 105912, Note_on_c, 6, 72, 0
9, 105920, Note_on_c, 6, 71, 100
9, 105992, Note_on_c, 6, 71, 0
9, 106000, Note_on_c, 6, 69, 100
9, 106072, Note_on_c, 6, 69, 0
9, 106080, Note_on_c, 6, 73, 100
9, 106152, Note_on_c, 6, 73, 0
9, 106160, Note_on_c, 6, 70, 100
9, 106160, Note_on_c, 6, 67, 100
9, 106232, Note_on_c, 6, 70, 0
9, 106232, Note_on_c, 6, 67, 0
9, 106240, Note_on_c, 6, 69, 100
9, 106240, Note_on_c, 6, 65, 100
9, 106312, Note_on_c, 6, 69, 0
9, 106312, Note_on_c, 6, 65, 0
9, 106320, Note_on_c, 6, 67, 100
9, 106320, Note_on_c, 6, 64, 100
9, 106392, Note_on_c, 6, 67, 0
9, 106392, Note_on_c, 6, 64, 0
9, 106400, Note_on_c, 6, 65, 100
9, 106400, Note_on_c, 6, 62, 100
9, 106472, Note_on_c, 6, 65, 0
9, 106472, Note_on_c, 6, 62, 0
9, 106480, Note_on_c, 6, 64, 100
9, 106480, Note_on_c, 6, 61, 100
9, 106552, Note_on_c, 6, 64, 0
9, 106552, Note_on_c, 6, 61, 0
9, 106560, Note_on_c, 6, 74, 100
9, 106632, Note_on_c, 6, 74, 0
9, 106640, Note_on_c, 6, 69, 100
9, 106712, Note_on_c, 6, 69, 0
9, 106720, Note_on_c, 6, 67, 100
9, 106792, Note_on_c, 6, 67, 0
9, 106800, Note_on_c, 6, 65, 100
9, 106872, Note_on_c, 6, 65, 0
9, 106880, Note_on_c, 6, 64, 100
9, 106952, Note_on_c, 6, 64, 0
9, 106960, Note_on_c, 6, 62, 100
9, 107032, Note_on_c, 6, 62, 0
9, 107040, Note_on_c, 6, 75, 100
9, 107112, Note_on_c, 6, 75, 0
9, 107120, Note_on_c, 6, 72, 100
9, 107120, Note_on_c, 6, 69, 100
9, 107192, Note_on_c, 6, 72, 0
9, 107192, Note_on_c, 6, 69, 0
9, 107200, Note_on_c, 6, 71, 100
9, 107200, Note_on_c, 6, 67, 100
9, 107272, Note_on_c, 6, 71, 0
9, 107272, Note_on_c, 6, 67, 0
9, 107280, Note_on_c, 6, 69, 100
9, 107280, Note_on_c, 6, 66, 100
9, 107352, Note_on_c, 6, 69, 0
9, 107352, Note_on_c, 6, 66, 0
9, 107360, Note_on_c, 6, 67, 100
9, 107360, Note_on_c, 6, 64, 100
9, 107432, Note_on_c, 6, 67, 0
9, 107432, Note_on_c, 6, 64, 0
9, 107440, Note_on_c, 6, 66, 100
9, 107440, Note_on_c, 6, 63, 100
9, 107512, Note_on_c, 6, 66, 0
9, 107512, Note_on_c, 6, 63, 0
9, 107520, Note_on_c, 6, 76, 100
9, 107592, Note_on_c, 6, 76, 0
9, 107600, Note_on_c, 6, 71, 100
9, 107672, Note_on_c, 6, 71, 0
9, 107680, Note_on_c, 6, 69, 100
9, 107752, Note_on_c, 6, 69, 0
9, 107760, Note_on_c, 6, 67, 100
9, 107832, Note_on_c, 6, 67, 0
9, 107840, Note_on_c, 6, 66, 100
9, 107912, Note_on_c, 6, 66, 0
9, 107920, Note_on_c, 6, 64, 100
9, 107992, Note_on_c, 6, 64, 0
9, 108000, Note_on_c, 6, 77, 100
9, 108072, Note_on_c, 6, 77, 0
9, 108080, Note_on_c, 6, 74, 100
9, 108152, Note_on_c, 6, 74, 0
9, 108160, Note_on_c, 6, 72, 100
9, 108232, Note_on_c, 6, 72, 0
9, 108240, Note_on_c, 6, 71, 100
9, 108312, Note_on_c, 6, 71, 0
9, 108320, Note_on_c, 6, 69, 100
9, 108392, Note_on_c, 6, 69, 0
9, 108400, Note_on_c, 6, 68, 100
9, 108472, Note_on_c, 6, 68, 0
9, 108480, Note_on_c, 6, 76, 100
9, 108552, Note_on_c, 6, 76, 0
9, 108560, Note_on_c, 6, 74, 100
9, 108632, Note_on_c, 6, 74, 0
9, 108640, Note_on_c, 6, 72, 100
9, 108712, Note_on_c, 6, 72, 0
9, 108720, Note_on_c, 6, 81, 100
9, 108828, Note_on_c, 6, 81, 0
9, 108960, Note_on_c, 6, 74, 100
9, 109032, Note_on_c, 6, 74, 0
9, 109040, Note_on_c, 6, 72, 100
9, 109112, Note_on_c, 6, 72, 0
9, 109120, Note_on_c, 6, 71, 100
9, 109192, Note_on_c, 6, 71, 0
9, 109200, Note_on_c, 6, 79, 100
9, 109308, Note_on_c, 6, 79, 0
9, 109440, Note_on_c, 6, 72, 100
9, 109512, Note_on_c, 6, 72, 0
9, 109520, Note_on_c, 6, 71, 100
9, 109592, Note_on_c, 6, 71, 0
9, 109600, Note_on_c, 6, 69, 100
9, 109672, Note_on_c, 6, 69, 0
9, 109680, Note_on_c, 6, 77, 100
9, 109788, Note_on_c, 6, 77, 0
9, 109920, Note_on_c, 6, 71, 100
9, 109992, Note_on_c, 6, 71, 0
9, 110000, Note_on_c, 6, 69, 100
9, 110072, Note_on_c, 6, 69, 0
9, 110080, Note_on_c, 6, 67, 100
9, 110152, Note_on_c, 6, 67, 0
9, 110160, Note_on_c, 6, 76, 100
9, 110268, Note_on_c, 6, 76, 0
9, 110400, Note_on_c, 6, 75, 100
9, 110472, Note_on_c, 6, 75, 0
9, 110480, Note_on_c, 6, 69, 100
9, 110552, Note_on_c, 6, 69, 0
9, 110560, Note_on_c, 6, 71, 100
9, 110632, Note_on_c, 6, 71, 0
9, 110640, Note_on_c, 6, 72, 100
9, 110712, Note_on_c, 6, 72, 0
9, 110720, Note_on_c, 6, 71, 100
9, 110792, Note_on_c, 6, 71, 0
9, 110800, Note_on_c, 6, 69, 100
9, 110872, Note_on_c, 6, 69, 0
9, 110880, Note_on_c, 6, 67, 100
9, 110952, Note_on_c, 6, 67, 0
9, 110960, Note_on_c, 6, 72, 100
9, 111032, Note_on_c, 6, 72, 0
9, 111040, Note_on_c, 6, 74, 100
9, 111112, Note_on_c, 6, 74, 0
9, 111120, Note_on_c, 6, 75, 100
9, 111192, Note_on_c, 6, 75, 0
9, 111200, Note_on_c, 6, 74, 100
9, 111272, Note_on_c, 6, 74, 0
9, 111280, Note_on_c, 6, 72, 100
9, 111352, Note_on_c, 6, 72, 0
9, 111360, Note_on_c, 6, 74, 100
9, 111432, Note_on_c, 6, 74, 0
9, 111440, Note_on_c, 6, 65, 100
9, 111512, Note_on_c, 6, 65, 0
9, 111520, Note_on_c, 6, 67, 100
9, 111592, Note_on_c, 6, 67, 0
9, 111600, Note_on_c, 6, 68, 100
9, 111672, Note_on_c, 6, 68, 0
9, 111680, Note_on_c, 6, 67, 100
9, 111752, Note_on_c, 6, 67, 0
9, 111760, Note_on_c, 6, 65, 100
9, 111832, Note_on_c, 6, 65, 0
9, 111840, Note_on_c, 6, 63, 100
9, 111912, Note_on_c, 6, 63, 0
9, 111920, Note_on_c, 6, 69, 100
9, 111992, Note_on_c, 6, 69, 0
9, 112000, Note_on_c, 6, 71, 100
9, 112072, Note_on_c, 6, 71, 0
9, 112080, Note_on_c, 6, 72, 100
9, 112152, Note_on_c, 6, 72, 0
9, 112160, Note_on_c, 6, 71, 100
9, 112232, Note_on_c, 6, 71, 0
9, 112240, Note_on_c, 6, 69, 100
9, 112312, Note_on_c, 6, 69, 0
9, 112320, Note_on_c, 6, 71, 100
9, 112392, Note_on_c, 6, 71, 0
9, 112400, Note_on_c, 6, 67, 100
9, 112472, Note_on_c, 6, 67, 0
9, 112480, Note_on_c, 6, 69, 100
9, 112552, Note_on_c, 6, 69, 0
9, 112560, Note_on_c, 6, 71, 100
9, 112632, Note_on_c, 6, 71, 0
9, 112640, Note_on_c, 6, 72, 100
9, 112712, Note_on_c, 6, 72, 0
9, 112720, Note_on_c, 6, 74, 100
9, 112792, Note_on_c, 6, 74, 0
9, 112800, Note_on_c, 6, 76, 100
9, 112872, Note_on_c, 6, 76, 0
9, 112880, Note_on_c, 6, 77, 100
9, 112952, Note_on_c, 6, 77, 0
9, 112960, Note_on_c, 6, 79, 100
9, 113032, Note_on_c, 6, 79, 0
9, 113040, Note_on_c, 6, 80, 100
9, 113112, Note_on_c, 6, 80, 0
9, 113120, Note_on_c, 6, 77, 100
9, 113192, Note_on_c, 6, 77, 0
9, 113200, Note_on_c, 6, 74, 100
9, 113272, Note_on_c, 6, 74, 0
9, 113280, Note_on_c, 6, 83, 100
9, 113442, Note_on_c, 6, 83, 0
9, 113460, Note_on_c, 6, 79, 100
9, 113514, Note_on_c, 6, 79, 0
9, 113520, Note_on_c, 6, 84, 100
9, 113952, Note_on_c, 6, 84, 0
9, 114000, Note_on_c, 6, 83, 100
9, 114216, Note_on_c, 6, 83, 0
9, 114240, Note_on_c, 6, 84, 100
9, 114456, Note_on_c, 6, 84, 0
9, 137280, Note_on_c, 6, 84, 100
9, 137334, Note_on_c, 6, 84, 0
9, 137340, Note_on_c, 6, 83, 100
9, 137367, Note_on_c, 6, 83, 0
9, 137370, Note_on_c, 6, 81, 100
9, 137397, Note_on_c, 6, 81, 0
9, 137400, Note_on_c, 6, 79, 100
9, 137427, Note_on_c, 6, 79, 0
9, 137430, Note_on_c, 6, 77, 100
9, 137457, Note_on_c, 6, 77, 0
9, 137460, Note_on_c, 6, 76, 100
9, 137487, Note_on_c, 6, 76, 0
9, 137490, Note_on_c, 6, 74, 100
9, 137517, Note_on_c, 6, 74, 0
9, 137520, Note_on_c, 6, 72, 100
9, 137592, Note_on_c, 6, 72, 0
9, 137600, Note_on_c, 6, 76, 100
9, 137672, Note_on_c, 6, 76, 0
9, 137680, Note_on_c, 6, 79, 100
9, 137752, Note_on_c, 6, 79, 0
9, 137760, Note_on_c, 6, 81, 100
9, 137832, Note_on_c, 6, 81, 0
9, 137840, Note_on_c, 6, 77, 100
9, 137912, Note_on_c, 6, 77, 0
9, 137920, Note_on_c, 6, 74, 100
9, 137992, Note_on_c, 6, 74, 0
9, 138000, Note_on_c, 6, 71, 100
9, 138072, Note_on_c, 6, 71, 0
9, 138080, Note_on_c, 6, 74, 100
9, 138152, Note_on_c, 6, 74, 0
9, 138160, Note_on_c, 6, 77, 100
9, 138232, Note_on_c, 6, 77, 0
9, 138240, Note_on_c, 6, 79, 100
9, 138312, Note_on_c, 6, 79, 0
9, 138320, Note_on_c, 6, 76, 100
9, 138392, Note_on_c, 6, 76, 0
9, 138400, Note_on_c, 6, 72, 100
9, 138472, Note_on_c, 6, 72, 0
9, 138480, Note_on_c, 6, 69, 100
9, 138552, Note_on_c, 6, 69, 0
9, 138560, Note_on_c, 6, 72, 100
9, 138632, Note_on_c, 6, 72, 0
9, 138640, Note_on_c, 6, 76, 100
9, 138712, Note_on_c, 6, 76, 0
9, 138720, Note_on_c, 6, 77, 100
9, 138792, Note_on_c, 6, 77, 0
9, 138800, Note_on_c, 6, 74, 100
9, 138872, Note_on_c, 6, 74, 0
9, 138880, Note_on_c, 6, 71, 100
9, 138952, Note_on_c, 6, 71, 0
9, 138960, Note_on_c, 6, 67, 100
9, 139032, Note_on_c, 6, 67, 0
9, 139040, Note_on_c, 6, 71, 100
9, 139112, Note_on_c, 6, 71, 0
9, 139120, Note_on_c, 6, 74, 100
9, 139192, Note_on_c, 6, 74, 0
9, 139200, Note_on_c, 6, 76, 100
9, 139200, Note_on_c, 6, 60, 100
9, 139272, Note_on_c, 6, 60, 0
9, 139280, Note_on_c, 6, 64, 100
9, 139308, Note_on_c, 6, 76, 0
9, 139352, Note_on_c, 6, 64, 0
9, 139360, Note_on_c, 6, 67, 100
9, 139432, Note_on_c, 6, 67, 0
9, 139440, Note_on_c, 6, 74, 100
9, 139440, Note_on_c, 6, 59, 100
9, 139512, Note_on_c, 6, 59, 0
9, 139520, Note_on_c, 6, 65, 100
9, 139548, Note_on_c, 6, 74, 0
9, 139592, Note_on_c, 6, 65, 0
9, 139600, Note_on_c, 6, 69, 100
9, 139672, Note_on_c, 6, 69, 0
9, 139680, Note_on_c, 6, 76, 100
9, 139680, Note_on_c, 6, 60, 100
9, 139752, Note_on_c, 6, 60, 0
9, 139760, Note_on_c, 6, 64, 100
9, 139788, Note_on_c, 6, 76, 0
9, 139832, Note_on_c, 6, 64, 0
9, 139840, Note_on_c, 6, 67, 100
9, 139912, Note_on_c, 6, 67, 0
9, 139920, Note_on_c, 6, 71, 100
9, 139920, Note_on_c, 6, 55, 100
9, 139992, Note_on_c, 6, 55, 0
9, 140000, Note_on_c, 6, 62, 100
9, 140028, Note_on_c, 6, 71, 0
9, 140072, Note_on_c, 6, 62, 0
9, 140080, Note_on_c, 6, 65, 100
9, 140152, Note_on_c, 6, 65, 0
9, 140160, Note_on_c, 6, 72, 100
9, 140268, Note_on_c, 6, 72, 0
9, 140400, Note_on_c, 6, 71, 100
9, 140508, Note_on_c, 6, 71, 0
9, 140640, Note_on_c, 6, 72, 100
9, 140748, Note_on_c, 6, 72, 0
9, 140880, Note_on_c, 6, 68, 100
9, 140988, Note_on_c, 6, 68, 0
9, 141120, Note_on_c, 6, 69, 100
9, 141228, Note_on_c, 6, 69, 0
9, 141360, Note_on_c, 6, 68, 100
9, 141468, Note_on_c, 6, 68, 0
9, 141600, Note_on_c, 6, 69, 100
9, 141708, Note_on_c, 6, 69, 0
9, 141840, Note_on_c, 6, 64, 100
9, 141948, Note_on_c, 6, 64, 0
9, 142080, Note_on_c, 6, 65, 100
9, 142242, Note_on_c, 6, 65, 0
9, 142260, Note_on_c, 6, 74, 100
9, 142314, Note_on_c, 6, 74, 0
9, 142320, Note_on_c, 6, 67, 100
9, 142482, Note_on_c, 6, 67, 0
9, 142500, Note_on_c, 6, 76, 100
9, 142554, Note_on_c, 6, 76, 0
9, 142560, Note_on_c, 6, 65, 100
9, 142722, Note_on_c, 6, 65, 0
9, 142740, Note_on_c, 6, 74, 100
9, 142794, Note_on_c, 6, 74, 0
9, 142800, Note_on_c, 6, 64, 100
9, 142962, Note_on_c, 6, 64, 0
9, 142980, Note_on_c, 6, 73, 100
9, 143034, Note_on_c, 6, 73, 0
9, 143040, Note_on_c, 6, 74, 100
9, 143112, Note_on_c, 6, 74, 0
9, 143120, Note_on_c, 6, 77, 100
9, 143192, Note_on_c, 6, 77, 0
9, 143200, Note_on_c, 6, 81, 100
9, 143272, Note_on_c, 6, 81, 0
9, 143280, Note_on_c, 6, 73, 100
9, 143352, Note_on_c, 6, 73, 0
9, 143360, Note_on_c, 6, 79, 100
9, 143432, Note_on_c, 6, 79, 0
9, 143440, Note_on_c, 6, 82, 100
9, 143512, Note_on_c, 6, 82, 0
9, 143520, Note_on_c, 6, 74, 100
9, 143592, Note_on_c, 6, 74, 0
9, 143600, Note_on_c, 6, 77, 100
9, 143672, Note_on_c, 6, 77, 0
9, 143680, Note_on_c, 6, 81, 100
9, 143752, Note_on_c, 6, 81, 0
9, 143760, Note_on_c, 6, 69, 100
9, 143832, Note_on_c, 6, 69, 0
9, 143840, Note_on_c, 6, 76, 100
9, 143912, Note_on_c, 6, 76, 0
9, 143920, Note_on_c, 6, 79, 100
9, 143992, Note_on_c, 6, 79, 0
9, 144000, Note_on_c, 6, 77, 100
9, 144000, Note_on_c, 6, 62, 100
9, 144072, Note_on_c, 6, 62, 0
9, 144080, Note_on_c, 6, 65, 100
9, 144108, Note_on_c, 6, 77, 0
9, 144152, Note_on_c, 6, 65, 0
9, 144160, Note_on_c, 6, 69, 100
9, 144232, Note_on_c, 6, 69, 0
9, 144240, Note_on_c, 6, 76, 100
9, 144240, Note_on_c, 6, 61, 100
9, 144312, Note_on_c, 6, 61, 0
9, 144320, Note_on_c, 6, 64, 100
9, 144348, Note_on_c, 6, 76, 0
9, 144392, Note_on_c, 6, 64, 0
9, 144400, Note_on_c, 6, 70, 100
9, 144472, Note_on_c, 6, 70, 0
9, 144480, Note_on_c, 6, 74, 100
9, 144480, Note_on_c, 6, 62, 100
9, 144552, Note_on_c, 6, 62, 0
9, 144560, Note_on_c, 6, 65, 100
9, 144588, Note_on_c, 6, 74, 0
9, 144632, Note_on_c, 6, 65, 0
9, 144640, Note_on_c, 6, 69, 100
9, 144712, Note_on_c, 6, 69, 0
9, 144720, Note_on_c, 6, 73, 100
9, 144720, Note_on_c, 6, 57, 100
9, 144792, Note_on_c, 6, 57, 0
9, 144800, Note_on_c, 6, 64, 100
9, 144828, Note_on_c, 6, 73, 0
9, 144872, Note_on_c, 6, 64, 0
9, 144880, Note_on_c, 6, 67, 100
9, 144952, Note_on_c, 6, 67, 0
9, 144960, Note_on_c, 6, 74, 100
9, 144960, Note_on_c, 6, 62, 100
9, 145032, Note_on_c, 6, 62, 0
9, 145040, Note_on_c, 6, 64, 100
9, 145068, Note_on_c, 6, 74, 0
9, 145112, Note_on_c, 6, 64, 0
9, 145120, Note_on_c, 6, 65, 100
9, 145192, Note_on_c, 6, 65, 0
9, 145200, Note_on_c, 6, 67, 100
9, 145272, Note_on_c, 6, 67, 0
9, 145280, Note_on_c, 6, 69, 100
9, 145352, Note_on_c, 6, 69, 0
9, 145360, Note_on_c, 6, 70, 100
9, 145432, Note_on_c, 6, 70, 0
9, 145440, Note_on_c, 6, 76, 100
9, 145440, Note_on_c, 6, 60, 100
9, 145512, Note_on_c, 6, 76, 0
9, 145512, Note_on_c, 6, 60, 0
9, 145520, Note_on_c, 6, 77, 100
9, 145520, Note_on_c, 6, 62, 100
9, 145592, Note_on_c, 6, 77, 0
9, 145592, Note_on_c, 6, 62, 0
9, 145600, Note_on_c, 6, 79, 100
9, 145600, Note_on_c, 6, 64, 100
9, 145672, Note_on_c, 6, 79, 0
9, 145672, Note_on_c, 6, 64, 0
9, 145680, Note_on_c, 6, 81, 100
9, 145680, Note_on_c, 6, 65, 100
9, 145752, Note_on_c, 6, 81, 0
9, 145752, Note_on_c, 6, 65, 0
9, 145760, Note_on_c, 6, 82, 100
9, 145760, Note_on_c, 6, 67, 100
9, 145832, Note_on_c, 6, 82, 0
9, 145832, Note_on_c, 6, 67, 0
9, 145840, Note_on_c, 6, 84, 100
9, 145840, Note_on_c, 6, 69, 100
9, 145912, Note_on_c, 6, 84, 0
9, 145912, Note_on_c, 6, 69, 0
9, 145920, Note_on_c, 6, 74, 100
9, 145920, Note_on_c, 6, 58, 100
9, 145992, Note_on_c, 6, 74, 0
9, 145992, Note_on_c, 6, 58, 0
9, 146000, Note_on_c, 6, 76, 100
9, 146000, Note_on_c, 6, 60, 100
9, 146072, Note_on_c, 6, 76, 0
9, 146072, Note_on_c, 6, 60, 0
9, 146080, Note_on_c, 6, 77, 100
9, 146080, Note_on_c, 6, 62, 100
9, 146152, Note_on_c, 6, 77, 0
9, 146152, Note_on_c, 6, 62, 0
9, 146160, Note_on_c, 6, 79, 100
9, 146160, Note_on_c, 6, 64, 100
9, 146232, Note_on_c, 6, 79, 0
9, 146232, Note_on_c, 6, 64, 0
9, 146240, Note_on_c, 6, 81, 100
9, 146240, Note_on_c, 6, 65, 100
9, 146312, Note_on_c, 6, 81, 0
9, 146312, Note_on_c, 6, 65, 0
9, 146320, Note_on_c, 6, 82, 100
9, 146320, Note_on_c, 6, 67, 100
9, 146392, Note_on_c, 6, 82, 0
9, 146392, Note_on_c, 6, 67, 0
9, 146400, Note_on_c, 6, 81, 100
9, 146400, Note_on_c, 6, 57, 100
9, 146472, Note_on_c, 6, 57, 0
9, 146480, Note_on_c, 6, 61, 100
9, 146552, Note_on_c, 6, 61, 0
9, 146560, Note_on_c, 6, 64, 100
9, 146632, Note_on_c, 6, 64, 0
9, 146640, Note_on_c, 6, 67, 100
9, 146712, Note_on_c, 6, 67, 0
9, 146720, Note_on_c, 6, 64, 100
9, 146792, Note_on_c, 6, 64, 0
9, 146800, Note_on_c, 6, 61, 100
9, 146872, Note_on_c, 6, 61, 0
9, 146880, Note_on_c, 6, 57, 100
9, 146952, Note_on_c, 6, 57, 0
9, 146960, Note_on_c, 6, 62, 100
9, 146988, Note_on_c, 6, 81, 0
9, 147032, Note_on_c, 6, 62, 0
9, 147040, Note_on_c, 6, 64, 100
9, 147112, Note_on_c, 6, 64, 0
9, 147120, Note_on_c, 6, 69, 100
9, 147120, Note_on_c, 6, 65, 100
9, 147192, Note_on_c, 6, 65, 0
9, 147200, Note_on_c, 6, 64, 100
9, 147272, Note_on_c, 6, 64, 0
9, 147280, Note_on_c, 6, 62, 100
9, 147352, Note_on_c, 6, 62, 0
9, 147360, Note_on_c, 6, 66, 100
9, 147432, Note_on_c, 6, 66, 0
9, 147440, Note_on_c, 6, 63, 100
9, 147512, Note_on_c, 6, 63, 0
9, 147520, Note_on_c, 6, 62, 100
9, 147592, Note_on_c, 6, 62, 0
9, 147600, Note_on_c, 6, 60, 100
9, 147672, Note_on_c, 6, 60, 0
9, 147680, Note_on_c, 6, 58, 100
9, 147752, Note_on_c, 6, 58, 0
9, 147760, Note_on_c, 6, 57, 100
9, 147768, Note_on_c, 6, 69, 0
9, 147832, Note_on_c, 6, 57, 0
9, 147840, Note_on_c, 6, 67, 100
9, 147948, Note_on_c, 6, 67, 0
9, 148080, Note_on_c, 6, 81, 100
9, 148080, Note_on_c, 6, 72, 100
9, 148188, Note_on_c, 6, 81, 0
9, 148188, Note_on_c, 6, 72, 0
9, 148320, Note_on_c, 6, 79, 100
9, 148320, Note_on_c, 6, 70, 100
9, 148428, Note_on_c, 6, 79, 0
9, 148428, Note_on_c, 6, 70, 0
9, 148560, Note_on_c, 6, 78, 100
9, 148560, Note_on_c, 6, 69, 100
9, 148668, Note_on_c, 6, 78, 0
9, 148668, Note_on_c, 6, 69, 0
9, 148800, Note_on_c, 6, 79, 100
9, 148800, Note_on_c, 6, 70, 100
9, 148908, Note_on_c, 6, 79, 0
9, 149040, Note_on_c, 6, 75, 100
9, 149112, Note_on_c, 6, 70, 0
9, 149120, Note_on_c, 6, 69, 100
9, 149192, Note_on_c, 6, 69, 0
9, 149200, Note_on_c, 6, 67, 100
9, 149272, Note_on_c, 6, 67, 0
9, 149280, Note_on_c, 6, 69, 100
9, 149352, Note_on_c, 6, 75, 0
9, 149360, Note_on_c, 6, 74, 100
9, 149432, Note_on_c, 6, 74, 0
9, 149440, Note_on_c, 6, 73, 100
9, 149512, Note_on_c, 6, 73, 0
9, 149520, Note_on_c, 6, 74, 100
9, 149592, Note_on_c, 6, 69, 0
9, 149600, Note_on_c, 6, 67, 100
9, 149672, Note_on_c, 6, 67, 0
9, 149680, Note_on_c, 6, 66, 100
9, 149752, Note_on_c, 6, 66, 0
9, 149760, Note_on_c, 6, 67, 100
9, 149832, Note_on_c, 6, 74, 0
9, 149840, Note_on_c, 6, 72, 100
9, 149912, Note_on_c, 6, 72, 0
9, 149920, Note_on_c, 6, 71, 100
9, 149992, Note_on_c, 6, 71, 0
9, 150000, Note_on_c, 6, 72, 100
9, 150072, Note_on_c, 6, 67, 0
9, 150080, Note_on_c, 6, 66, 100
9, 150152, Note_on_c, 6, 66, 0
9, 150160, Note_on_c, 6, 64, 100
9, 150232, Note_on_c, 6, 64, 0
9, 150240, Note_on_c, 6, 66, 100
9, 150348, Note_on_c, 6, 72, 0
9, 150348, Note_on_c, 6, 66, 0
9, 150480, Note_on_c, 6, 69, 100
9, 150480, Note_on_c, 6, 66, 100
9, 150588, Note_on_c, 6, 69, 0
9, 150588, Note_on_c, 6, 66, 0
9, 150720, Note_on_c, 6, 70, 100
9, 150720, Note_on_c, 6, 67, 100
9, 150828, Note_on_c, 6, 70, 0
9, 150828, Note_on_c, 6, 67, 0
9, 150960, Note_on_c, 6, 74, 100
9, 150960, Note_on_c, 6, 67, 100
9, 151068, Note_on_c, 6, 74, 0
9, 151068, Note_on_c, 6, 67, 0
9, 151200, Note_on_c, 6, 76, 100
9, 151200, Note_on_c, 6, 67, 100
9, 151752, Note_on_c, 6, 76, 0
9, 151760, Note_on_c, 6, 76, 100
9, 151832, Note_on_c, 6, 76, 0
9, 151840, Note_on_c, 6, 74, 100
9, 151912, Note_on_c, 6, 74, 0
9, 151920, Note_on_c, 6, 73, 100
9, 151992, Note_on_c, 6, 73, 0
9, 152000, Note_on_c, 6, 71, 100
9, 152072, Note_on_c, 6, 71, 0
9, 152080, Note_on_c, 6, 69, 100
9, 152152, Note_on_c, 6, 69, 0
9, 152160, Note_on_c, 6, 74, 100
9, 152232, Note_on_c, 6, 67, 0
9, 152240, Note_on_c, 6, 69, 100
9, 152312, Note_on_c, 6, 69, 0
9, 152320, Note_on_c, 6, 67, 100
9, 152392, Note_on_c, 6, 67, 0
9, 152400, Note_on_c, 6, 65, 100
9, 152472, Note_on_c, 6, 65, 0
9, 152480, Note_on_c, 6, 64, 100
9, 152552, Note_on_c, 6, 64, 0
9, 152560, Note_on_c, 6, 62, 100
9, 152632, Note_on_c, 6, 62, 0
9, 152640, Note_on_c, 6, 71, 100
9, 153192, Note_on_c, 6, 71, 0
9, 153200, Note_on_c, 6, 71, 100
9, 153272, Note_on_c, 6, 71, 0
9, 153280, Note_on_c, 6, 69, 100
9, 153352, Note_on_c, 6, 69, 0
9, 153360, Note_on_c, 6, 68, 100
9, 153432, Note_on_c, 6, 68, 0
9, 153440, Note_on_c, 6, 66, 100
9, 153512, Note_on_c, 6, 66, 0
9, 153520, Note_on_c, 6, 64, 100
9, 153592, Note_on_c, 6, 64, 0
9, 153600, Note_on_c, 6, 69, 100
9, 153672, Note_on_c, 6, 74, 0
9, 153680, Note_on_c, 6, 76, 100
9, 153752, Note_on_c, 6, 76, 0
9, 153760, Note_on_c, 6, 74, 100
9, 153832, Note_on_c, 6, 74, 0
9, 153840, Note_on_c, 6, 72, 100
9, 153912, Note_on_c, 6, 72, 0
9, 153920, Note_on_c, 6, 71, 100
9, 153992, Note_on_c, 6, 71, 0
9, 154000, Note_on_c, 6, 69, 100
9, 154072, Note_on_c, 6, 69, 0
9, 154072, Note_on_c, 6, 69, 0
9, 154080, Note_on_c, 6, 75, 100
9, 154632, Note_on_c, 6, 75, 0
9, 154640, Note_on_c, 6, 75, 100
9, 154712, Note_on_c, 6, 75, 0
9, 154720, Note_on_c, 6, 74, 100
9, 154792, Note_on_c, 6, 74, 0
9, 154800, Note_on_c, 6, 72, 100
9, 154872, Note_on_c, 6, 72, 0
9, 154880, Note_on_c, 6, 70, 100
9, 154952, Note_on_c, 6, 70, 0
9, 154960, Note_on_c, 6, 69, 100
9, 155032, Note_on_c, 6, 69, 0
9, 155040, Note_on_c, 6, 74, 100
9, 155120, Note_on_c, 6, 69, 100
9, 155192, Note_on_c, 6, 69, 0
9, 155200, Note_on_c, 6, 67, 100
9, 155272, Note_on_c, 6, 67, 0
9, 155280, Note_on_c, 6, 66, 100
9, 155352, Note_on_c, 6, 66, 0
9, 155360, Note_on_c, 6, 64, 100
9, 155432, Note_on_c, 6, 64, 0
9, 155440, Note_on_c, 6, 62, 100
9, 155512, Note_on_c, 6, 62, 0
9, 155520, Note_on_c, 6, 72, 100
9, 156072, Note_on_c, 6, 72, 0
9, 156080, Note_on_c, 6, 74, 100
9, 156152, Note_on_c, 6, 74, 0
9, 156152, Note_on_c, 6, 74, 0
9, 156160, Note_on_c, 6, 72, 100
9, 156232, Note_on_c, 6, 72, 0
9, 156240, Note_on_c, 6, 70, 100
9, 156312, Note_on_c, 6, 70, 0
9, 156320, Note_on_c, 6, 69, 100
9, 156392, Note_on_c, 6, 69, 0
9, 156400, Note_on_c, 6, 67, 100
9, 156472, Note_on_c, 6, 67, 0
9, 156480, Note_on_c, 6, 73, 100
9, 156480, Note_on_c, 6, 69, 100
9, 156696, Note_on_c, 6, 73, 0
9, 156720, Note_on_c, 6, 74, 100
9, 157032, Note_on_c, 6, 69, 0
9, 157040, Note_on_c, 6, 70, 100
9, 157112, Note_on_c, 6, 70, 0
9, 157120, Note_on_c, 6, 69, 100
9, 157192, Note_on_c, 6, 69, 0
9, 157200, Note_on_c, 6, 67, 100
9, 157272, Note_on_c, 6, 67, 0
9, 157280, Note_on_c, 6, 65, 100
9, 157352, Note_on_c, 6, 65, 0
9, 157360, Note_on_c, 6, 64, 100
9, 157432, Note_on_c, 6, 64, 0
9, 157440, Note_on_c, 6, 65, 100
9, 157548, Note_on_c, 6, 74, 0
9, 157548, Note_on_c, 6, 65, 0
9, 157680, Note_on_c, 6, 73, 100
9, 157680, Note_on_c, 6, 64, 100
9, 157788, Note_on_c, 6, 73, 0
9, 157788, Note_on_c, 6, 64, 0
9, 157920, Note_on_c, 6, 81, 100
9, 157992, Note_on_c, 6, 81, 0
9, 158000, Note_on_c, 6, 82, 100
9, 158072, Note_on_c, 6, 82, 0
9, 158080, Note_on_c, 6, 81, 100
9, 158152, Note_on_c, 6, 81, 0
9, 158160, Note_on_c, 6, 79, 100
9, 158232, Note_on_c, 6, 79, 0
9, 158240, Note_on_c, 6, 77, 100
9, 158312, Note_on_c, 6, 77, 0
9, 158320, Note_on_c, 6, 76, 100
9, 158392, Note_on_c, 6, 76, 0
9, 158400, Note_on_c, 6, 77, 100
9, 158472, Note_on_c, 6, 77, 0
9, 158480, Note_on_c, 6, 79, 100
9, 158552, Note_on_c, 6, 79, 0
9, 158560, Note_on_c, 6, 77, 100
9, 158632, Note_on_c, 6, 77, 0
9, 158640, Note_on_c, 6, 76, 100
9, 158712, Note_on_c, 6, 76, 0
9, 158720, Note_on_c, 6, 74, 100
9, 158792, Note_on_c, 6, 74, 0
9, 158800, Note_on_c, 6, 72, 100
9, 158872, Note_on_c, 6, 72, 0
9, 158880, Note_on_c, 6, 74, 100
9, 158952, Note_on_c, 6, 74, 0
9, 158960, Note_on_c, 6, 75, 100
9, 159032, Note_on_c, 6, 75, 0
9, 159040, Note_on_c, 6, 74, 100
9, 159112, Note_on_c, 6, 74, 0
9, 159120, Note_on_c, 6, 72, 100
9, 159192, Note_on_c, 6, 72, 0
9, 159200, Note_on_c, 6, 70, 100
9, 159272, Note_on_c, 6, 70, 0
9, 159280, Note_on_c, 6, 69, 100
9, 159352, Note_on_c, 6, 69, 0
9, 159360, Note_on_c, 6, 70, 100
9, 159432, Note_on_c, 6, 70, 0
9, 159440, Note_on_c, 6, 72, 100
9, 159512, Note_on_c, 6, 72, 0
9, 159520, Note_on_c, 6, 70, 100
9, 159592, Note_on_c, 6, 70, 0
9, 159600, Note_on_c, 6, 69, 100
9, 159672, Note_on_c, 6, 69, 0
9, 159680, Note_on_c, 6, 72, 100
9, 159752, Note_on_c, 6, 72, 0
9, 159760, Note_on_c, 6, 77, 100
9, 159832, Note_on_c, 6, 77, 0
9, 159840, Note_on_c, 6, 67, 100
9, 159912, Note_on_c, 6, 67, 0
9, 159920, Note_on_c, 6, 72, 100
9, 159992, Note_on_c, 6, 72, 0
9, 160000, Note_on_c, 6, 74, 100
9, 160072, Note_on_c, 6, 74, 0
9, 160080, Note_on_c, 6, 76, 100
9, 160152, Note_on_c, 6, 76, 0
9, 160160, Note_on_c, 6, 77, 100
9, 160232, Note_on_c, 6, 77, 0
9, 160240, Note_on_c, 6, 79, 100
9, 160312, Note_on_c, 6, 79, 0
9, 160320, Note_on_c, 6, 80, 100
9, 160392, Note_on_c, 6, 80, 0
9, 160400, Note_on_c, 6, 74, 100
9, 160472, Note_on_c, 6, 74, 0
9, 160480, Note_on_c, 6, 76, 100
9, 160552, Note_on_c, 6, 76, 0
9, 160560, Note_on_c, 6, 77, 100
9, 160632, Note_on_c, 6, 77, 0
9, 160640, Note_on_c, 6, 76, 100
9, 160712, Note_on_c, 6, 76, 0
9, 160720, Note_on_c, 6, 74, 100
9, 160792, Note_on_c, 6, 74, 0
9, 160800, Note_on_c, 6, 72, 100
9, 160872, Note_on_c, 6, 72, 0
9, 160880, Note_on_c, 6, 77, 100
9, 160952, Note_on_c, 6, 77, 0
9, 160960, Note_on_c, 6, 79, 100
9, 161032, Note_on_c, 6, 79, 0
9, 161040, Note_on_c, 6, 80, 100
9, 161112, Note_on_c, 6, 80, 0
9, 161120, Note_on_c, 6, 79, 100
9, 161192, Note_on_c, 6, 79, 0
9, 161200, Note_on_c, 6, 77, 100
9, 161272, Note_on_c, 6, 77, 0
9, 161280, Note_on_c, 6, 79, 100
9, 161352, Note_on_c, 6, 79, 0
9, 161360, Note_on_c, 6, 70, 100
9, 161432, Note_on_c, 6, 70, 0
9, 161440, Note_on_c, 6, 72, 100
9, 161512, Note_on_c, 6, 72, 0
9, 161520, Note_on_c, 6, 73, 100
9, 161592, Note_on_c, 6, 73, 0
9, 161600, Note_on_c, 6, 72, 100
9, 161672, Note_on_c, 6, 72, 0
9, 161680, Note_on_c, 6, 70, 100
9, 161752, Note_on_c, 6, 70, 0
9, 161760, Note_on_c, 6, 68, 100
9, 161832, Note_on_c, 6, 68, 0
9, 161840, Note_on_c, 6, 74, 100
9, 161912, Note_on_c, 6, 74, 0
9, 161920, Note_on_c, 6, 76, 100
9, 161992, Note_on_c, 6, 76, 0
9, 162000, Note_on_c, 6, 77, 100
9, 162072, Note_on_c, 6, 77, 0
9, 162080, Note_on_c, 6, 76, 100
9, 162152, Note_on_c, 6, 76, 0
9, 162160, Note_on_c, 6, 74, 100
9, 162232, Note_on_c, 6, 74, 0
9, 162240, Note_on_c, 6, 76, 100
9, 162312, Note_on_c, 6, 76, 0
9, 162320, Note_on_c, 6, 67, 100
9, 162392, Note_on_c, 6, 67, 0
9, 162400, Note_on_c, 6, 68, 100
9, 162472, Note_on_c, 6, 68, 0
9, 162480, Note_on_c, 6, 70, 100
9, 162552, Note_on_c, 6, 70, 0
9, 162560, Note_on_c, 6, 68, 100
9, 162632, Note_on_c, 6, 68, 0
9, 162640, Note_on_c, 6, 67, 100
9, 162712, Note_on_c, 6, 67, 0
9, 162720, Note_on_c, 6, 73, 100
9, 162792, Note_on_c, 6, 73, 0
9, 162800, Note_on_c, 6, 70, 100
9, 162872, Note_on_c, 6, 70, 0
9, 162880, Note_on_c, 6, 67, 100
9, 162952, Note_on_c, 6, 67, 0
9, 162960, Note_on_c, 6, 64, 100
9, 163032, Note_on_c, 6, 64, 0
9, 163040, Note_on_c, 6, 67, 100
9, 163076, Note_on_c, 6, 67, 0
9, 163080, Note_on_c, 6, 65, 100
9, 163116, Note_on_c, 6, 65, 0
9, 163120, Note_on_c, 6, 64, 100
9, 163156, Note_on_c, 6, 64, 0
9, 163160, Note_on_c, 6, 62, 100
9, 163196, Note_on_c, 6, 62, 0
9, 163200, Note_on_c, 6, 60, 100
9, 163272, Note_on_c, 6, 60, 0
9, 163280, Note_on_c, 6, 64, 100
9, 163352, Note_on_c, 6, 64, 0
9, 163360, Note_on_c, 6, 60, 100
9, 163432, Note_on_c, 6, 60, 0
9, 164160, Note_on_c, 6, 65, 100
9, 164232, Note_on_c, 6, 65, 0
9, 164240, Note_on_c, 6, 69, 100
9, 164312, Note_on_c, 6, 69, 0
9, 164320, Note_on_c, 6, 72, 100
9, 164392, Note_on_c, 6, 72, 0
9, 164400, Note_on_c, 6, 64, 100
9, 164472, Note_on_c, 6, 64, 0
9, 164480, Note_on_c, 6, 70, 100
9, 164552, Note_on_c, 6, 70, 0
9, 164560, Note_on_c, 6, 74, 100
9, 164632, Note_on_c, 6, 74, 0
9, 164640, Note_on_c, 6, 65, 100
9, 164712, Note_on_c, 6, 65, 0
9, 164720, Note_on_c, 6, 69, 100
9, 164792, Note_on_c, 6, 69, 0
9, 164800, Note_on_c, 6, 72, 100
9, 164872, Note_on_c, 6, 72, 0
9, 164880, Note_on_c, 6, 60, 100
9, 164952, Note_on_c, 6, 60, 0
9, 164960, Note_on_c, 6, 67, 100
9, 165032, Note_on_c, 6, 67, 0
9, 165040, Note_on_c, 6, 70, 100
9, 165112, Note_on_c, 6, 70, 0
9, 165120, Note_on_c, 6, 69, 100
9, 165228, Note_on_c, 6, 69, 0
9, 165360, Note_on_c, 6, 67, 100
9, 165468, Note_on_c, 6, 67, 0
9, 165600, Note_on_c, 6, 69, 100
9, 165708, Note_on_c, 6, 69, 0
9, 165840, Note_on_c, 6, 64, 100
9, 165948, Note_on_c, 6, 64, 0
9, 166080, Note_on_c, 6, 74, 100
9, 166080, Note_on_c, 6, 65, 100
9, 166188, Note_on_c, 6, 74, 0
9, 166188, Note_on_c, 6, 65, 0
9, 166320, Note_on_c, 6, 76, 100
9, 166320, Note_on_c, 6, 67, 100
9, 166428, Note_on_c, 6, 76, 0
9, 166428, Note_on_c, 6, 67, 0
9, 166560, Note_on_c, 6, 74, 100
9, 166560, Note_on_c, 6, 65, 100
9, 166668, Note_on_c, 6, 74, 0
9, 166668, Note_on_c, 6, 65, 0
9, 166800, Note_on_c, 6, 73, 100
9, 166800, Note_on_c, 6, 64, 100
9, 166908, Note_on_c, 6, 73, 0
9, 166908, Note_on_c, 6, 64, 0
9, 167040, Note_on_c, 6, 62, 100
9, 167112, Note_on_c, 6, 62, 0
9, 167120, Note_on_c, 6, 65, 100
9, 167192, Note_on_c, 6, 65, 0
9, 167200, Note_on_c, 6, 69, 100
9, 167272, Note_on_c, 6, 69, 0
9, 167280, Note_on_c, 6, 74, 100
9, 167352, Note_on_c, 6, 74, 0
9, 167360, Note_on_c, 6, 67, 100
9, 167396, Note_on_c, 6, 67, 0
9, 167400, Note_on_c, 6, 65, 100
9, 167436, Note_on_c, 6, 65, 0
9, 167440, Note_on_c, 6, 64, 100
9, 167476, Note_on_c, 6, 64, 0
9, 167480, Note_on_c, 6, 62, 100
9, 167516, Note_on_c, 6, 62, 0
9, 167520, Note_on_c, 6, 64, 100
9, 167592, Note_on_c, 6, 64, 0
9, 167600, Note_on_c, 6, 67, 100
9, 167672, Note_on_c, 6, 67, 0
9, 167680, Note_on_c, 6, 70, 100
9, 167752, Note_on_c, 6, 70, 0
9, 167760, Note_on_c, 6, 76, 100
9, 167832, Note_on_c, 6, 76, 0
9, 167840, Note_on_c, 6, 69, 100
9, 167876, Note_on_c, 6, 69, 0
9, 167880, Note_on_c, 6, 67, 100
9, 167916, Note_on_c, 6, 67, 0
9, 167920, Note_on_c, 6, 65, 100
9, 167956, Note_on_c, 6, 65, 0
9, 167960, Note_on_c, 6, 64, 100
9, 167996, Note_on_c, 6, 64, 0
9, 168000, Note_on_c, 6, 65, 100
9, 168072, Note_on_c, 6, 65, 0
9, 168080, Note_on_c, 6, 69, 100
9, 168152, Note_on_c, 6, 69, 0
9, 168160, Note_on_c, 6, 74, 100
9, 168232, Note_on_c, 6, 74, 0
9, 168240, Note_on_c, 6, 77, 100
9, 168276, Note_on_c, 6, 77, 0
9, 168280, Note_on_c, 6, 76, 100
9, 168316, Note_on_c, 6, 76, 0
9, 168320, Note_on_c, 6, 74, 100
9, 168356, Note_on_c, 6, 74, 0
9, 168360, Note_on_c, 6, 72, 100
9, 168396, Note_on_c, 6, 72, 0
9, 168400, Note_on_c, 6, 70, 100
9, 168436, Note_on_c, 6, 70, 0
9, 168440, Note_on_c, 6, 69, 100
9, 168476, Note_on_c, 6, 69, 0
9, 168480, Note_on_c, 6, 67, 100
9, 168552, Note_on_c, 6, 67, 0
9, 168560, Note_on_c, 6, 70, 100
9, 168632, Note_on_c, 6, 70, 0
9, 168640, Note_on_c, 6, 76, 100
9, 168712, Note_on_c, 6, 76, 0
9, 168720, Note_on_c, 6, 79, 100
9, 168756, Note_on_c, 6, 79, 0
9, 168760, Note_on_c, 6, 77, 100
9, 168796, Note_on_c, 6, 77, 0
9, 168800, Note_on_c, 6, 76, 100
9, 168836, Note_on_c, 6, 76, 0
9, 168840, Note_on_c, 6, 74, 100
9, 168876, Note_on_c, 6, 74, 0
9, 168880, Note_on_c, 6, 73, 100
9, 168916, Note_on_c, 6, 73, 0
9, 168920, Note_on_c, 6, 70, 100
9, 168956, Note_on_c, 6, 70, 0
9, 168960, Note_on_c, 6, 69, 100
9, 168996, Note_on_c, 6, 69, 0
9, 169000, Note_on_c, 6, 73, 100
9, 169036, Note_on_c, 6, 73, 0
9, 169040, Note_on_c, 6, 74, 100
9, 169076, Note_on_c, 6, 74, 0
9, 169080, Note_on_c, 6, 76, 100
9, 169116, Note_on_c, 6, 76, 0
9, 169120, Note_on_c, 6, 77, 100
9, 169156, Note_on_c, 6, 77, 0
9, 169160, Note_on_c, 6, 79, 100
9, 169196, Note_on_c, 6, 79, 0
9, 169200, Note_on_c, 6, 81, 100
9, 169236, Note_on_c, 6, 81, 0
9, 169240, Note_on_c, 6, 79, 100
9, 169276, Note_on_c, 6, 79, 0
9, 169280, Note_on_c, 6, 78, 100
9, 169316, Note_on_c, 6, 78, 0
9, 169320, Note_on_c, 6, 76, 100
9, 169356, Note_on_c, 6, 76, 0
9, 169360, Note_on_c, 6, 74, 100
9, 169396, Note_on_c, 6, 74, 0
9, 169400, Note_on_c, 6, 72, 100
9, 169436, Note_on_c, 6, 72, 0
9, 169440, Note_on_c, 6, 70, 100
9, 169512, Note_on_c, 6, 70, 0
9, 169520, Note_on_c, 6, 73, 100
9, 169592, Note_on_c, 6, 73, 0
9, 169600, Note_on_c, 6, 74, 100
9, 169672, Note_on_c, 6, 74, 0
9, 169680, Note_on_c, 6, 76, 100
9, 169752, Note_on_c, 6, 76, 0
9, 169760, Note_on_c, 6, 77, 100
9, 169832, Note_on_c, 6, 77, 0
9, 169840, Note_on_c, 6, 79, 100
9, 169912, Note_on_c, 6, 79, 0
9, 169920, Note_on_c, 6, 69, 100
9, 169992, Note_on_c, 6, 69, 0
9, 170000, Note_on_c, 6, 71, 100
9, 170072, Note_on_c, 6, 71, 0
9, 170080, Note_on_c, 6, 73, 100
9, 170152, Note_on_c, 6, 73, 0
9, 170160, Note_on_c, 6, 74, 100
9, 170232, Note_on_c, 6, 74, 0
9, 170240, Note_on_c, 6, 76, 100
9, 170312, Note_on_c, 6, 76, 0
9, 170320, Note_on_c, 6, 77, 100
9, 170392, Note_on_c, 6, 77, 0
9, 170400, Note_on_c, 6, 67, 100
9, 170472, Note_on_c, 6, 67, 0
9, 170480, Note_on_c, 6, 69, 100
9, 170552, Note_on_c, 6, 69, 0
9, 170560, Note_on_c, 6, 70, 100
9, 170632, Note_on_c, 6, 70, 0
9, 170640, Note_on_c, 6, 73, 100
9, 170712, Note_on_c, 6, 73, 0
9, 170720, Note_on_c, 6, 69, 100
9, 170792, Note_on_c, 6, 69, 0
9, 170800, Note_on_c, 6, 67, 100
9, 170872, Note_on_c, 6, 67, 0
9, 170880, Note_on_c, 6, 65, 100
9, 170952, Note_on_c, 6, 65, 0
9, 170960, Note_on_c, 6, 67, 100
9, 170996, Note_on_c, 6, 67, 0
9, 171000, Note_on_c, 6, 65, 100
9, 171036, Note_on_c, 6, 65, 0
9, 171040, Note_on_c, 6, 64, 100
9, 171076, Note_on_c, 6, 64, 0
9, 171080, Note_on_c, 6, 62, 100
9, 171116, Note_on_c, 6, 62, 0
9, 171120, Note_on_c, 6, 71, 100
9, 171432, Note_on_c, 6, 71, 0
9, 171440, Note_on_c, 6, 72, 100
9, 171512, Note_on_c, 6, 72, 0
9, 171520, Note_on_c, 6, 74, 100
9, 171592, Note_on_c, 6, 74, 0
9, 171600, Note_on_c, 6, 76, 100
9, 171636, Note_on_c, 6, 76, 0
9, 171640, Note_on_c, 6, 74, 100
9, 171676, Note_on_c, 6, 74, 0
9, 171680, Note_on_c, 6, 72, 100
9, 171716, Note_on_c, 6, 72, 0
9, 171720, Note_on_c, 6, 71, 100
9, 171756, Note_on_c, 6, 71, 0
9, 171760, Note_on_c, 6, 69, 100
9, 171796, Note_on_c, 6, 69, 0
9, 171800, Note_on_c, 6, 68, 100
9, 171836, Note_on_c, 6, 68, 0
9, 171840, Note_on_c, 6, 69, 100
9, 171948, Note_on_c, 6, 69, 0
9, 172080, Note_on_c, 6, 81, 100
9, 172080, Note_on_c, 6, 72, 100
9, 172296, Note_on_c, 6, 72, 0
9, 172320, Note_on_c, 6, 74, 100
9, 172512, Note_on_c, 6, 81, 0
9, 172560, Note_on_c, 6, 79, 100
9, 172752, Note_on_c, 6, 74, 0
9, 172800, Note_on_c, 6, 72, 100
9, 173016, Note_on_c, 6, 79, 0
9, 173040, Note_on_c, 6, 74, 100
9, 173040, Note_on_c, 6, 77, 100
9, 173232, Note_on_c, 6, 72, 0
9, 173280, Note_on_c, 6, 71, 100
9, 173496, Note_on_c, 6, 74, 0
9, 173496, Note_on_c, 6, 77, 0
9, 173496, Note_on_c, 6, 71, 0
9, 173760, Note_on_c, 6, 76, 100
9, 173760, Note_on_c, 6, 83, 100
9, 173760, Note_on_c, 6, 71, 100
9, 173760, Note_on_c, 6, 74, 100
9, 173976, Note_on_c, 6, 76, 0
9, 173976, Note_on_c, 6, 83, 0
9, 173976, Note_on_c, 6, 71, 0
9, 173976, Note_on_c, 6, 74, 0
9, 174320, Note_on_c, 6, 86, 100
9, 174356, Note_on_c, 6, 86, 0
9, 174360, Note_on_c, 6, 84, 100
9, 174396, Note_on_c, 6, 84, 0
9, 174400, Note_on_c, 6, 83, 100
9, 174436, Note_on_c, 6, 83, 0
9, 174440, Note_on_c, 6, 81, 100
9, 174476, Note_on_c, 6, 81, 0
9, 174480, Note_on_c, 6, 80, 100
9, 174516, Note_on_c, 6, 80, 0
9, 174520, Note_on_c, 6, 83, 100
9, 174556, Note_on_c, 6, 83, 0
9, 174560, Note_on_c, 6, 81, 100
9, 174596, Note_on_c, 6, 81, 0
9, 174600, Note_on_c, 6, 80, 100
9, 174636, Note_on_c, 6, 80, 0
9, 174640, Note_on_c, 6, 78, 100
9, 174676, Note_on_c, 6, 78, 0
9, 174680, Note_on_c, 6, 76, 100
9, 174716, Note_on_c, 6, 76, 0
9, 174720, Note_on_c, 6, 81, 100
9, 174792, Note_on_c, 6, 81, 0
9, 174800, Note_on_c, 6, 83, 100
9, 174872, Note_on_c, 6, 83, 0
9, 174880, Note_on_c, 6, 84, 100
9, 174952, Note_on_c, 6, 84, 0
9, 174960, Note_on_c, 6, 81, 100
9, 175032, Note_on_c, 6, 81, 0
9, 175040, Note_on_c, 6, 83, 100
9, 175112, Note_on_c, 6, 83, 0
9, 175120, Note_on_c, 6, 84, 100
9, 175192, Note_on_c, 6, 84, 0
9, 175200, Note_on_c, 6, 80, 100
9, 175272, Note_on_c, 6, 80, 0
9, 175280, Note_on_c, 6, 81, 100
9, 175352, Note_on_c, 6, 81, 0
9, 175360, Note_on_c, 6, 83, 100
9, 175432, Note_on_c, 6, 83, 0
9, 175440, Note_on_c, 6, 79, 100
9, 175440, Note_on_c, 6, 64, 100
9, 175512, Note_on_c, 6, 79, 0
9, 175512, Note_on_c, 6, 64, 0
9, 175520, Note_on_c, 6, 81, 100
9, 175520, Note_on_c, 6, 66, 100
9, 175592, Note_on_c, 6, 81, 0
9, 175592, Note_on_c, 6, 66, 0
9, 175600, Note_on_c, 6, 83, 100
9, 175600, Note_on_c, 6, 67, 100
9, 175672, Note_on_c, 6, 83, 0
9, 175672, Note_on_c, 6, 67, 0
9, 175680, Note_on_c, 6, 78, 100
9, 175680, Note_on_c, 6, 69, 100
9, 175752, Note_on_c, 6, 78, 0
9, 175752, Note_on_c, 6, 69, 0
9, 175760, Note_on_c, 6, 79, 100
9, 175760, Note_on_c, 6, 71, 100
9, 175832, Note_on_c, 6, 79, 0
9, 175832, Note_on_c, 6, 71, 0
9, 175840, Note_on_c, 6, 81, 100
9, 175840, Note_on_c, 6, 73, 100
9, 175912, Note_on_c, 6, 81, 0
9, 175912, Note_on_c, 6, 73, 0
9, 175920, Note_on_c, 6, 77, 100
9, 175920, Note_on_c, 6, 74, 100
9, 175992, Note_on_c, 6, 77, 0
9, 175992, Note_on_c, 6, 74, 0
9, 176000, Note_on_c, 6, 79, 100
9, 176000, Note_on_c, 6, 76, 100
9, 176072, Note_on_c, 6, 79, 0
9, 176072, Note_on_c, 6, 76, 0
9, 176080, Note_on_c, 6, 81, 100
9, 176080, Note_on_c, 6, 77, 100
9, 176152, Note_on_c, 6, 81, 0
9, 176152, Note_on_c, 6, 77, 0
9, 176160, Note_on_c, 6, 83, 100
9, 176160, Note_on_c, 6, 68, 100
9, 176232, Note_on_c, 6, 83, 0
9, 176232, Note_on_c, 6, 68, 0
9, 176240, Note_on_c, 6, 74, 100
9, 176240, Note_on_c, 6, 71, 100
9, 176312, Note_on_c, 6, 74, 0
9, 176312, Note_on_c, 6, 71, 0
9, 176320, Note_on_c, 6, 76, 100
9, 176320, Note_on_c, 6, 72, 100
9, 176392, Note_on_c, 6, 76, 0
9, 176392, Note_on_c, 6, 72, 0
9, 176400, Note_on_c, 6, 77, 100
9, 176400, Note_on_c, 6, 74, 100
9, 176472, Note_on_c, 6, 77, 0
9, 176472, Note_on_c, 6, 74, 0
9, 176480, Note_on_c, 6, 76, 100
9, 176480, Note_on_c, 6, 72, 100
9, 176552, Note_on_c, 6, 76, 0
9, 176552, Note_on_c, 6, 72, 0
9, 176560, Note_on_c, 6, 74, 100
9, 176560, Note_on_c, 6, 71, 100
9, 176632, Note_on_c, 6, 74, 0
9, 176632, Note_on_c, 6, 71, 0
9, 176640, Note_on_c, 6, 76, 100
9, 176640, Note_on_c, 6, 72, 100
9, 176712, Note_on_c, 6, 76, 0
9, 176712, Note_on_c, 6, 72, 0
9, 176720, Note_on_c, 6, 78, 100
9, 176720, Note_on_c, 6, 69, 100
9, 176792, Note_on_c, 6, 78, 0
9, 176792, Note_on_c, 6, 69, 0
9, 176800, Note_on_c, 6, 80, 100
9, 176800, Note_on_c, 6, 71, 100
9, 176872, Note_on_c, 6, 80, 0
9, 176872, Note_on_c, 6, 71, 0
9, 176880, Note_on_c, 6, 81, 100
9, 176880, Note_on_c, 6, 72, 100
9, 176952, Note_on_c, 6, 81, 0
9, 176952, Note_on_c, 6, 72, 0
9, 176960, Note_on_c, 6, 80, 100
9, 176960, Note_on_c, 6, 71, 100
9, 177032, Note_on_c, 6, 80, 0
9, 177032, Note_on_c, 6, 71, 0
9, 177040, Note_on_c, 6, 78, 100
9, 177040, Note_on_c, 6, 69, 100
9, 177112, Note_on_c, 6, 78, 0
9, 177112, Note_on_c, 6, 69, 0
9, 177120, Note_on_c, 6, 80, 100
9, 177120, Note_on_c, 6, 71, 100
9, 177192, Note_on_c, 6, 80, 0
9, 177192, Note_on_c, 6, 71, 0
9, 177200, Note_on_c, 6, 71, 100
9, 177200, Note_on_c, 6, 68, 100
9, 177272, Note_on_c, 6, 71, 0
9, 177272, Note_on_c, 6, 68, 0
9, 177280, Note_on_c, 6, 72, 100
9, 177280, Note_on_c, 6, 69, 100
9, 177352, Note_on_c, 6, 72, 0
9, 177352, Note_on_c, 6, 69, 0
9, 177360, Note_on_c, 6, 74, 100
9, 177360, Note_on_c, 6, 71, 100
9, 177432, Note_on_c, 6, 74, 0
9, 177432, Note_on_c, 6, 71, 0
9, 177440, Note_on_c, 6, 72, 100
9, 177440, Note_on_c, 6, 69, 100
9, 177512, Note_on_c, 6, 72, 0
9, 177512, Note_on_c, 6, 69, 0
9, 177520, Note_on_c, 6, 71, 100
9, 177520, Note_on_c, 6, 68, 100
9, 177592, Note_on_c, 6, 71, 0
9, 177592, Note_on_c, 6, 68, 0
9, 177600, Note_on_c, 6, 72, 100
9, 177600, Note_on_c, 6, 69, 100
9, 177672, Note_on_c, 6, 72, 0
9, 177672, Note_on_c, 6, 69, 0
9, 177680, Note_on_c, 6, 75, 100
9, 177680, Note_on_c, 6, 66, 100
9, 177752, Note_on_c, 6, 75, 0
9, 177752, Note_on_c, 6, 66, 0
9, 177760, Note_on_c, 6, 76, 100
9, 177760, Note_on_c, 6, 68, 100
9, 177832, Note_on_c, 6, 76, 0
9, 177832, Note_on_c, 6, 68, 0
9, 177840, Note_on_c, 6, 78, 100
9, 177840, Note_on_c, 6, 69, 100
9, 177912, Note_on_c, 6, 78, 0
9, 177912, Note_on_c, 6, 69, 0
9, 177920, Note_on_c, 6, 76, 100
9, 177920, Note_on_c, 6, 68, 100
9, 177992, Note_on_c, 6, 76, 0
9, 177992, Note_on_c, 6, 68, 0
9, 178000, Note_on_c, 6, 75, 100
9, 178000, Note_on_c, 6, 66, 100
9, 178072, Note_on_c, 6, 75, 0
9, 178072, Note_on_c, 6, 66, 0
9, 178080, Note_on_c, 6, 76, 100
9, 178080, Note_on_c, 6, 68, 100
9, 178152, Note_on_c, 6, 76, 0
9, 178152, Note_on_c, 6, 68, 0
9, 178160, Note_on_c, 6, 68, 100
9, 178160, Note_on_c, 6, 64, 100
9, 178232, Note_on_c, 6, 68, 0
9, 178232, Note_on_c, 6, 64, 0
9, 178240, Note_on_c, 6, 69, 100
9, 178240, Note_on_c, 6, 66, 100
9, 178312, Note_on_c, 6, 69, 0
9, 178312, Note_on_c, 6, 66, 0
9, 178320, Note_on_c, 6, 71, 100
9, 178320, Note_on_c, 6, 68, 100
9, 178392, Note_on_c, 6, 71, 0
9, 178392, Note_on_c, 6, 68, 0
9, 178400, Note_on_c, 6, 72, 100
9, 178400, Note_on_c, 6, 69, 100
9, 178472, Note_on_c, 6, 72, 0
9, 178472, Note_on_c, 6, 69, 0
9, 178480, Note_on_c, 6, 74, 100
9, 178480, Note_on_c, 6, 71, 100
9, 178552, Note_on_c, 6, 71, 0
9, 178560, Note_on_c, 6, 64, 100
9, 178632, Note_on_c, 6, 64, 0
9, 178640, Note_on_c, 6, 66, 100
9, 178712, Note_on_c, 6, 66, 0
9, 178720, Note_on_c, 6, 68, 100
9, 178776, Note_on_c, 6, 74, 0
9, 178792, Note_on_c, 6, 68, 0
9, 178800, Note_on_c, 6, 72, 100
9, 178800, Note_on_c, 6, 69, 100
9, 179112, Note_on_c, 6, 72, 0
9, 179120, Note_on_c, 6, 71, 100
9, 179192, Note_on_c, 6, 71, 0
9, 179200, Note_on_c, 6, 72, 100
9, 179272, Note_on_c, 6, 72, 0
9, 179280, Note_on_c, 6, 77, 100
9, 179592, Note_on_c, 6, 77, 0
9, 179600, Note_on_c, 6, 73, 100
9, 179672, Note_on_c, 6, 73, 0
9, 179680, Note_on_c, 6, 74, 100
9, 179736, Note_on_c, 6, 69, 0
9, 179760, Note_on_c, 6, 69, 100
9, 179832, Note_on_c, 6, 74, 0
9, 179840, Note_on_c, 6, 73, 100
9, 179912, Note_on_c, 6, 73, 0
9, 179920, Note_on_c, 6, 74, 100
9, 179992, Note_on_c, 6, 74, 0
9, 180000, Note_on_c, 6, 77, 100
9, 180072, Note_on_c, 6, 77, 0
9, 180080, Note_on_c, 6, 73, 100
9, 180152, Note_on_c, 6, 73, 0
9, 180160, Note_on_c, 6, 74, 100
9, 180192, Note_on_c, 6, 69, 0
9, 180240, Note_on_c, 6, 69, 100
9, 180312, Note_on_c, 6, 74, 0
9, 180320, Note_on_c, 6, 73, 100
9, 180392, Note_on_c, 6, 73, 0
9, 180400, Note_on_c, 6, 74, 100
9, 180456, Note_on_c, 6, 69, 0
9, 180472, Note_on_c, 6, 74, 0
9, 180480, Note_on_c, 6, 77, 100
9, 180552, Note_on_c, 6, 77, 0
9, 180560, Note_on_c, 6, 73, 100
9, 180632, Note_on_c, 6, 73, 0
9, 180640, Note_on_c, 6, 74, 100
9, 180720, Note_on_c, 6, 69, 100
9, 180792, Note_on_c, 6, 74, 0
9, 180800, Note_on_c, 6, 73, 100
9, 180872, Note_on_c, 6, 73, 0
9, 180880, Note_on_c, 6, 74, 100
9, 180952, Note_on_c, 6, 74, 0
9, 180960, Note_on_c, 6, 77, 100
9, 181032, Note_on_c, 6, 77, 0
9, 181040, Note_on_c, 6, 73, 100
9, 181112, Note_on_c, 6, 73, 0
9, 181120, Note_on_c, 6, 74, 100
9, 181152, Note_on_c, 6, 69, 0
9, 181200, Note_on_c, 6, 69, 100
9, 181272, Note_on_c, 6, 74, 0
9, 181280, Note_on_c, 6, 73, 100
9, 181352, Note_on_c, 6, 73, 0
9, 181360, Note_on_c, 6, 74, 100
9, 181416, Note_on_c, 6, 69, 0
9, 181432, Note_on_c, 6, 74, 0
9, 181440, Note_on_c, 6, 77, 100
9, 181512, Note_on_c, 6, 77, 0
9, 181520, Note_on_c, 6, 73, 100
9, 181592, Note_on_c, 6, 73, 0
9, 181600, Note_on_c, 6, 74, 100
9, 181680, Note_on_c, 6, 68, 100
9, 181752, Note_on_c, 6, 74, 0
9, 181760, Note_on_c, 6, 73, 100
9, 181832, Note_on_c, 6, 73, 0
9, 181840, Note_on_c, 6, 74, 100
9, 181912, Note_on_c, 6, 74, 0
9, 181920, Note_on_c, 6, 77, 100
9, 181992, Note_on_c, 6, 77, 0
9, 182000, Note_on_c, 6, 73, 100
9, 182072, Note_on_c, 6, 73, 0
9, 182080, Note_on_c, 6, 74, 100
9, 182112, Note_on_c, 6, 68, 0
9, 182160, Note_on_c, 6, 68, 100
9, 182232, Note_on_c, 6, 74, 0
9, 182240, Note_on_c, 6, 73, 100
9, 182312, Note_on_c, 6, 73, 0
9, 182320, Note_on_c, 6, 74, 100
9, 182376, Note_on_c, 6, 68, 0
9, 182392, Note_on_c, 6, 74, 0
9, 182400, Note_on_c, 6, 77, 100
9, 182472, Note_on_c, 6, 77, 0
9, 182480, Note_on_c, 6, 73, 100
9, 182552, Note_on_c, 6, 73, 0
9, 182560, Note_on_c, 6, 74, 100
9, 182640, Note_on_c, 6, 68, 100
9, 182712, Note_on_c, 6, 74, 0
9, 182720, Note_on_c, 6, 73, 100
9, 182792, Note_on_c, 6, 73, 0
9, 182800, Note_on_c, 6, 74, 100
9, 182872, Note_on_c, 6, 74, 0
9, 182880, Note_on_c, 6, 77, 100
9, 182952, Note_on_c, 6, 77, 0
9, 182960, Note_on_c, 6, 73, 100
9, 183032, Note_on_c, 6, 73, 0
9, 183040, Note_on_c, 6, 74, 100
9, 183072, Note_on_c, 6, 68, 0
9, 183120, Note_on_c, 6, 68, 100
9, 183192, Note_on_c, 6, 74, 0
9, 183200, Note_on_c, 6, 73, 100
9, 183272, Note_on_c, 6, 73, 0
9, 183280, Note_on_c, 6, 74, 100
9, 183336, Note_on_c, 6, 68, 0
9, 183352, Note_on_c, 6, 74, 0
9, 183360, Note_on_c, 6, 77, 100
9, 183432, Note_on_c, 6, 77, 0
9, 183440, Note_on_c, 6, 73, 100
9, 183512, Note_on_c, 6, 73, 0
9, 183520, Note_on_c, 6, 74, 100
9, 183592, Note_on_c, 6, 74, 0
9, 183600, Note_on_c, 6, 77, 100
9, 183600, Note_on_c, 6, 68, 100
9, 183672, Note_on_c, 6, 77, 0
9, 183680, Note_on_c, 6, 73, 100
9, 183752, Note_on_c, 6, 73, 0
9, 183760, Note_on_c, 6, 74, 100
9, 183816, Note_on_c, 6, 68, 0
9, 183832, Note_on_c, 6, 74, 0
9, 183840, Note_on_c, 6, 76, 100
9, 183840, Note_on_c, 6, 69, 100
9, 183912, Note_on_c, 6, 76, 0
9, 183920, Note_on_c, 6, 71, 100
9, 183992, Note_on_c, 6, 71, 0
9, 184000, Note_on_c, 6, 72, 100
9, 184056, Note_on_c, 6, 69, 0
9, 184072, Note_on_c, 6, 72, 0
9, 184080, Note_on_c, 6, 74, 100
9, 184080, Note_on_c, 6, 68, 100
9, 184152, Note_on_c, 6, 74, 0
9, 184160, Note_on_c, 6, 69, 100
9, 184232, Note_on_c, 6, 69, 0
9, 184240, Note_on_c, 6, 71, 100
9, 184296, Note_on_c, 6, 68, 0
9, 184312, Note_on_c, 6, 71, 0
9, 184320, Note_on_c, 6, 72, 100
9, 184320, Note_on_c, 6, 69, 100
9, 184392, Note_on_c, 6, 69, 0
9, 184400, Note_on_c, 6, 64, 100
9, 184428, Note_on_c, 6, 72, 0
9, 184472, Note_on_c, 6, 64, 0
9, 184480, Note_on_c, 6, 65, 100
9, 184552, Note_on_c, 6, 65, 0
9, 184560, Note_on_c, 6, 70, 100
9, 184560, Note_on_c, 6, 67, 100
9, 184632, Note_on_c, 6, 67, 0
9, 184640, Note_on_c, 6, 62, 100
9, 184668, Note_on_c, 6, 70, 0
9, 184712, Note_on_c, 6, 62, 0
9, 184720, Note_on_c, 6, 64, 100
9, 184792, Note_on_c, 6, 64, 0
9, 184800, Note_on_c, 6, 69, 100
9, 184800, Note_on_c, 6, 65, 100
9, 184872, Note_on_c, 6, 65, 0
9, 184880, Note_on_c, 6, 61, 100
9, 184908, Note_on_c, 6, 69, 0
9, 184952, Note_on_c, 6, 61, 0
9, 184960, Note_on_c, 6, 62, 100
9, 185032, Note_on_c, 6, 62, 0
9, 185040, Note_on_c, 6, 67, 100
9, 185040, Note_on_c, 6, 64, 100
9, 185112, Note_on_c, 6, 64, 0
9, 185120, Note_on_c, 6, 59, 100
9, 185148, Note_on_c, 6, 67, 0
9, 185192, Note_on_c, 6, 59, 0
9, 185200, Note_on_c, 6, 61, 100
9, 185272, Note_on_c, 6, 61, 0
9, 185280, Note_on_c, 6, 65, 100
9, 185280, Note_on_c, 6, 62, 100
9, 185388, Note_on_c, 6, 65, 0
9, 185388, Note_on_c, 6, 62, 0
9, 185600, Note_on_c, 6, 57, 100
9, 185672, Note_on_c, 6, 57, 0
9, 185680, Note_on_c, 6, 62, 100
9, 185752, Note_on_c, 6, 62, 0
9, 185760, Note_on_c, 6, 65, 100
9, 185832, Note_on_c, 6, 65, 0
9, 185840, Note_on_c, 6, 62, 100
9, 185912, Note_on_c, 6, 62, 0
9, 185920, Note_on_c, 6, 65, 100
9, 185992, Note_on_c, 6, 65, 0
9, 186000, Note_on_c, 6, 69, 100
9, 186072, Note_on_c, 6, 69, 0
9, 186080, Note_on_c, 6, 65, 100
9, 186152, Note_on_c, 6, 65, 0
9, 186160, Note_on_c, 6, 69, 100
9, 186232, Note_on_c, 6, 69, 0
9, 186240, Note_on_c, 6, 74, 100
9, 186312, Note_on_c, 6, 74, 0
9, 186320, Note_on_c, 6, 69, 100
9, 186392, Note_on_c, 6, 69, 0
9, 186400, Note_on_c, 6, 74, 100
9, 186472, Note_on_c, 6, 74, 0
9, 186480, Note_on_c, 6, 77, 100
9, 186552, Note_on_c, 6, 77, 0
9, 186560, Note_on_c, 6, 74, 100
9, 186632, Note_on_c, 6, 74, 0
9, 186640, Note_on_c, 6, 77, 100
9, 186712, Note_on_c, 6, 77, 0
9, 186720, Note_on_c, 6, 83, 100
9, 186792, Note_on_c, 6, 83, 0
9, 186800, Note_on_c, 6, 77, 100
9, 186872, Note_on_c, 6, 77, 0
9, 186880, Note_on_c, 6, 76, 100
9, 186952, Note_on_c, 6, 76, 0
9, 186960, Note_on_c, 6, 74, 100
9, 187032, Note_on_c, 6, 74, 0
9, 187040, Note_on_c, 6, 72, 100
9, 187112, Note_on_c, 6, 72, 0
9, 187120, Note_on_c, 6, 71, 100
9, 187192, Note_on_c, 6, 71, 0
9, 187200, Note_on_c, 6, 72, 100
9, 187272, Note_on_c, 6, 72, 0
9, 187280, Note_on_c, 6, 69, 100
9, 187352, Note_on_c, 6, 69, 0
9, 187360, Note_on_c, 6, 72, 100
9, 187432, Note_on_c, 6, 72, 0
9, 187440, Note_on_c, 6, 76, 100
9, 187512, Note_on_c, 6, 76, 0
9, 187520, Note_on_c, 6, 72, 100
9, 187592, Note_on_c, 6, 72, 0
9, 187600, Note_on_c, 6, 76, 100
9, 187672, Note_on_c, 6, 76, 0
9, 187680, Note_on_c, 6, 79, 100
9, 187752, Note_on_c, 6, 79, 0
9, 187760, Note_on_c, 6, 82, 100
9, 187832, Note_on_c, 6, 82, 0
9, 187840, Note_on_c, 6, 81, 100
9, 187912, Note_on_c, 6, 81, 0
9, 187920, Note_on_c, 6, 79, 100
9, 187992, Note_on_c, 6, 79, 0
9, 188000, Note_on_c, 6, 77, 100
9, 188072, Note_on_c, 6, 77, 0
9, 188080, Note_on_c, 6, 76, 100
9, 188152, Note_on_c, 6, 76, 0
9, 188160, Note_on_c, 6, 77, 100
9, 188232, Note_on_c, 6, 77, 0
9, 188240, Note_on_c, 6, 74, 100
9, 188312, Note_on_c, 6, 74, 0
9, 188320, Note_on_c, 6, 77, 100
9, 188392, Note_on_c, 6, 77, 0
9, 188400, Note_on_c, 6, 81, 100
9, 188472, Note_on_c, 6, 81, 0
9, 188480, Note_on_c, 6, 77, 100
9, 188552, Note_on_c, 6, 77, 0
9, 188560, Note_on_c, 6, 81, 100
9, 188632, Note_on_c, 6, 81, 0
9, 188640, Note_on_c, 6, 84, 100
9, 188712, Note_on_c, 6, 84, 0
9, 188720, Note_on_c, 6, 83, 100
9, 188792, Note_on_c, 6, 83, 0
9, 188800, Note_on_c, 6, 81, 100
9, 188872, Note_on_c, 6, 81, 0
9, 188880, Note_on_c, 6, 80, 100
9, 188952, Note_on_c, 6, 80, 0
9, 188960, Note_on_c, 6, 81, 100
9, 189032, Note_on_c, 6, 81, 0
9, 189040, Note_on_c, 6, 78, 100
9, 189112, Note_on_c, 6, 78, 0
9, 189120, Note_on_c, 6, 80, 100
9, 189192, Note_on_c, 6, 80, 0
9, 189200, Note_on_c, 6, 76, 100
9, 189272, Note_on_c, 6, 76, 0
9, 189280, Note_on_c, 6, 80, 100
9, 189352, Note_on_c, 6, 80, 0
9, 189360, Note_on_c, 6, 81, 100
9, 189540, Note_on_c, 6, 72, 100
9, 189594, Note_on_c, 6, 72, 0
9, 189600, Note_on_c, 6, 71, 100
9, 189654, Note_on_c, 6, 71, 0
9, 189660, Note_on_c, 6, 74, 100
9, 189762, Note_on_c, 6, 81, 0
9, 189780, Note_on_c, 6, 81, 100
9, 189822, Note_on_c, 6, 74, 0
9, 189840, Note_on_c, 6, 71, 100
9, 189894, Note_on_c, 6, 71, 0
9, 189900, Note_on_c, 6, 74, 100
9, 190002, Note_on_c, 6, 81, 0
9, 190020, Note_on_c, 6, 80, 100
9, 190062, Note_on_c, 6, 74, 0
9, 190074, Note_on_c, 6, 80, 0
9, 190080, Note_on_c, 6, 81, 100
9, 190134, Note_on_c, 6, 81, 0
9, 190140, Note_on_c, 6, 76, 100
9, 190194, Note_on_c, 6, 76, 0
9, 190200, Note_on_c, 6, 72, 100
9, 190254, Note_on_c, 6, 72, 0
9, 190260, Note_on_c, 6, 76, 100
9, 190314, Note_on_c, 6, 76, 0
9, 190320, Note_on_c, 6, 77, 100
9, 190374, Note_on_c, 6, 77, 0
9, 190380, Note_on_c, 6, 74, 100
9, 190434, Note_on_c, 6, 74, 0
9, 190440, Note_on_c, 6, 71, 100
9, 190494, Note_on_c, 6, 71, 0
9, 190500, Note_on_c, 6, 74, 100
9, 190554, Note_on_c, 6, 74, 0
9, 190560, Note_on_c, 6, 76, 100
9, 190614, Note_on_c, 6, 76, 0
9, 190620, Note_on_c, 6, 72, 100
9, 190674, Note_on_c, 6, 72, 0
9, 190680, Note_on_c, 6, 69, 100
9, 190734, Note_on_c, 6, 69, 0
9, 190740, Note_on_c, 6, 72, 100
9, 190794, Note_on_c, 6, 72, 0
9, 190800, Note_on_c, 6, 74, 100
9, 190854, Note_on_c, 6, 74, 0
9, 190860, Note_on_c, 6, 71, 100
9, 190914, Note_on_c, 6, 71, 0
9, 190920, Note_on_c, 6, 68, 100
9, 190974, Note_on_c, 6, 68, 0
9, 190980, Note_on_c, 6, 71, 100
9, 191034, Note_on_c, 6, 71, 0
9, 191040, Note_on_c, 6, 72, 100
9, 191040, Note_on_c, 6, 69, 100
9, 191094, Note_on_c, 6, 69, 0
9, 191100, Note_on_c, 6, 64, 100
9, 191148, Note_on_c, 6, 72, 0
9, 191154, Note_on_c, 6, 64, 0
9, 191160, Note_on_c, 6, 60, 100
9, 191214, Note_on_c, 6, 60, 0
9, 191220, Note_on_c, 6, 64, 100
9, 191274, Note_on_c, 6, 64, 0
9, 191280, Note_on_c, 6, 74, 100
9, 191280, Note_on_c, 6, 65, 100
9, 191334, Note_on_c, 6, 65, 0
9, 191340, Note_on_c, 6, 62, 100
9, 191388, Note_on_c, 6, 74, 0
9, 191394, Note_on_c, 6, 62, 0
9, 191400, Note_on_c, 6, 59, 100
9, 191454, Note_on_c, 6, 59, 0
9, 191460, Note_on_c, 6, 62, 100
9, 191514, Note_on_c, 6, 62, 0
9, 191520, Note_on_c, 6, 72, 100
9, 191520, Note_on_c, 6, 64, 100
9, 191574, Note_on_c, 6, 64, 0
9, 191580, Note_on_c, 6, 60, 100
9, 191628, Note_on_c, 6, 72, 0
9, 191634, Note_on_c, 6, 60, 0
9, 191640, Note_on_c, 6, 57, 100
9, 191694, Note_on_c, 6, 57, 0
9, 191700, Note_on_c, 6, 60, 100
9, 191754, Note_on_c, 6, 60, 0
9, 191760, Note_on_c, 6, 71, 100
9, 191760, Note_on_c, 6, 62, 100
9, 191814, Note_on_c, 6, 62, 0
9, 191820, Note_on_c, 6, 59, 100
9, 191868, Note_on_c, 6, 71, 0
9, 191874, Note_on_c, 6, 59, 0
9, 191880, Note_on_c, 6, 56, 100
9, 191934, Note_on_c, 6, 56, 0
9, 191940, Note_on_c, 6, 59, 100
9, 191994, Note_on_c, 6, 59, 0
9, 192000, Note_on_c, 6, 69, 100
9, 192054, Note_on_c, 6, 69, 0
9, 192060, Note_on_c, 6, 72, 100
9, 192114, Note_on_c, 6, 72, 0
9, 192120, Note_on_c, 6, 76, 100
9, 192174, Note_on_c, 6, 76, 0
9, 192180, Note_on_c, 6, 72, 100
9, 192234, Note_on_c, 6, 72, 0
9, 192240, Note_on_c, 6, 68, 100
9, 192294, Note_on_c, 6, 68, 0
9, 192300, Note_on_c, 6, 74, 100
9, 192354, Note_on_c, 6, 74, 0
9, 192360, Note_on_c, 6, 77, 100
9, 192414, Note_on_c, 6, 77, 0
9, 192420, Note_on_c, 6, 74, 100
9, 192474, Note_on_c, 6, 74, 0
9, 192480, Note_on_c, 6, 69, 100
9, 192534, Note_on_c, 6, 69, 0
9, 192540, Note_on_c, 6, 72, 100
9, 192594, Note_on_c, 6, 72, 0
9, 192600, Note_on_c, 6, 76, 100
9, 192654, Note_on_c, 6, 76, 0
9, 192660, Note_on_c, 6, 72, 100
9, 192714, Note_on_c, 6, 72, 0
9, 192720, Note_on_c, 6, 64, 100
9, 192774, Note_on_c, 6, 64, 0
9, 192780, Note_on_c, 6, 71, 100
9, 192834, Note_on_c, 6, 71, 0
9, 192840, Note_on_c, 6, 74, 100
9, 192894, Note_on_c, 6, 74, 0
9, 192900, Note_on_c, 6, 71, 100
9, 192954, Note_on_c, 6, 71, 0
9, 192960, Note_on_c, 6, 72, 100
9, 193068, Note_on_c, 6, 72, 0
9, 193200, Note_on_c, 6, 71, 100
9, 193308, Note_on_c, 6, 71, 0
9, 193440, Note_on_c, 6, 72, 100
9, 193548, Note_on_c, 6, 72, 0
9, 193680, Note_on_c, 6, 68, 100
9, 193788, Note_on_c, 6, 68, 0
9, 193920, Note_on_c, 6, 69, 100
9, 193974, Note_on_c, 6, 69, 0
9, 193980, Note_on_c, 6, 64, 100
9, 194034, Note_on_c, 6, 64, 0
9, 194040, Note_on_c, 6, 62, 100
9, 194094, Note_on_c, 6, 62, 0
9, 194100, Note_on_c, 6, 60, 100
9, 194154, Note_on_c, 6, 60, 0
9, 194160, Note_on_c, 6, 65, 100
9, 194214, Note_on_c, 6, 65, 0
9, 194220, Note_on_c, 6, 62, 100
9, 194274, Note_on_c, 6, 62, 0
9, 194280, Note_on_c, 6, 60, 100
9, 194334, Note_on_c, 6, 60, 0
9, 194340, Note_on_c, 6, 59, 100
9, 194394, Note_on_c, 6, 59, 0
9, 194400, Note_on_c, 6, 64, 100
9, 194454, Note_on_c, 6, 64, 0
9, 194460, Note_on_c, 6, 60, 100
9, 194514, Note_on_c, 6, 60, 0
9, 194520, Note_on_c, 6, 59, 100
9, 194574, Note_on_c, 6, 59, 0
9, 194580, Note_on_c, 6, 57, 100
9, 194634, Note_on_c, 6, 57, 0
9, 194640, Note_on_c, 6, 62, 100
9, 194694, Note_on_c, 6, 62, 0
9, 194700, Note_on_c, 6, 59, 100
9, 194754, Note_on_c, 6, 59, 0
9, 194760, Note_on_c, 6, 57, 100
9, 194814, Note_on_c, 6, 57, 0
9, 194820, Note_on_c, 6, 56, 100
9, 194874, Note_on_c, 6, 56, 0
9, 194880, Note_on_c, 6, 60, 100
9, 194988, Note_on_c, 6, 60, 0
9, 195120, Note_on_c, 6, 62, 100
9, 195174, Note_on_c, 6, 62, 0
9, 195180, Note_on_c, 6, 65, 100
9, 195234, Note_on_c, 6, 65, 0
9, 195240, Note_on_c, 6, 64, 100
9, 195294, Note_on_c, 6, 64, 0
9, 195300, Note_on_c, 6, 62, 100
9, 195354, Note_on_c, 6, 62, 0
9, 195360, Note_on_c, 6, 60, 100
9, 195414, Note_on_c, 6, 60, 0
9, 195420, Note_on_c, 6, 64, 100
9, 195474, Note_on_c, 6, 64, 0
9, 195480, Note_on_c, 6, 62, 100
9, 195534, Note_on_c, 6, 62, 0
9, 195540, Note_on_c, 6, 60, 100
9, 195594, Note_on_c, 6, 60, 0
9, 195600, Note_on_c, 6, 59, 100
9, 195654, Note_on_c, 6, 59, 0
9, 195660, Note_on_c, 6, 62, 100
9, 195714, Note_on_c, 6, 62, 0
9, 195720, Note_on_c, 6, 60, 100
9, 195774, Note_on_c, 6, 60, 0
9, 195780, Note_on_c, 6, 59, 100
9, 195834, Note_on_c, 6, 59, 0
9, 195840, Note_on_c, 6, 57, 100
9, 195894, Note_on_c, 6, 57, 0
9, 195900, Note_on_c, 6, 64, 100
9, 195954, Note_on_c, 6, 64, 0
9, 195960, Note_on_c, 6, 60, 100
9, 196014, Note_on_c, 6, 60, 0
9, 196020, Note_on_c, 6, 64, 100
9, 196074, Note_on_c, 6, 64, 0
9, 196080, Note_on_c, 6, 56, 100
9, 196134, Note_on_c, 6, 56, 0
9, 196140, Note_on_c, 6, 65, 100
9, 196194, Note_on_c, 6, 65, 0
9, 196200, Note_on_c, 6, 62, 100
9, 196254, Note_on_c, 6, 62, 0
9, 196260, Note_on_c, 6, 65, 100
9, 196314, Note_on_c, 6, 65, 0
9, 196320, Note_on_c, 6, 57, 100
9, 196374, Note_on_c, 6, 57, 0
9, 196380, Note_on_c, 6, 64, 100
9, 196434, Note_on_c, 6, 64, 0
9, 196440, Note_on_c, 6, 60, 100
9, 196494, Note_on_c, 6, 60, 0
9, 196500, Note_on_c, 6, 64, 100
9, 196554, Note_on_c, 6, 64, 0
9, 196560, Note_on_c, 6, 52, 100
9, 196614, Note_on_c, 6, 52, 0
9, 196620, Note_on_c, 6, 62, 100
9, 196674, Note_on_c, 6, 62, 0
9, 196680, Note_on_c, 6, 59, 100
9, 196734, Note_on_c, 6, 59, 0
9, 196740, Note_on_c, 6, 62, 100
9, 196794, Note_on_c, 6, 62, 0
9, 196800, Note_on_c, 6, 60, 100
9, 196854, Note_on_c, 6, 60, 0
9, 196860, Note_on_c, 6, 69, 100
9, 196914, Note_on_c, 6, 69, 0
9, 196920, Note_on_c, 6, 64, 100
9, 196974, Note_on_c, 6, 64, 0
9, 196980, Note_on_c, 6, 69, 100
9, 197034, Note_on_c, 6, 69, 0
9, 197040, Note_on_c, 6, 62, 100
9, 197094, Note_on_c, 6, 62, 0
9, 197100, Note_on_c, 6, 71, 100
9, 197154, Note_on_c, 6, 71, 0
9, 197160, Note_on_c, 6, 65, 100
9, 197214, Note_on_c, 6, 65, 0
9, 197220, Note_on_c, 6, 71, 100
9, 197274, Note_on_c, 6, 71, 0
9, 197280, Note_on_c, 6, 60, 100
9, 197334, Note_on_c, 6, 60, 0
9, 197340, Note_on_c, 6, 64, 100
9, 197394, Note_on_c, 6, 64, 0
9, 197400, Note_on_c, 6, 69, 100
9, 197454, Note_on_c, 6, 69, 0
9, 197460, Note_on_c, 6, 64, 100
9, 197514, Note_on_c, 6, 64, 0
9, 197520, Note_on_c, 6, 59, 100
9, 197574, Note_on_c, 6, 59, 0
9, 197580, Note_on_c, 6, 68, 100
9, 197634, Note_on_c, 6, 68, 0
9, 197640, Note_on_c, 6, 62, 100
9, 197694, Note_on_c, 6, 62, 0
9, 197700, Note_on_c, 6, 68, 100
9, 197754, Note_on_c, 6, 68, 0
9, 197760, Note_on_c, 6, 60, 100
9, 197832, Note_on_c, 6, 60, 0
9, 197840, Note_on_c, 6, 62, 100
9, 197912, Note_on_c, 6, 62, 0
9, 197920, Note_on_c, 6, 64, 100
9, 197992, Note_on_c, 6, 64, 0
9, 198000, Note_on_c, 6, 65, 100
9, 198072, Note_on_c, 6, 65, 0
9, 198080, Note_on_c, 6, 67, 100
9, 198152, Note_on_c, 6, 67, 0
9, 198160, Note_on_c, 6, 69, 100
9, 198232, Note_on_c, 6, 69, 0
9, 198240, Note_on_c, 6, 71, 100
9, 198312, Note_on_c, 6, 71, 0
9, 198320, Note_on_c, 6, 72, 100
9, 198392, Note_on_c, 6, 72, 0
9, 198400, Note_on_c, 6, 74, 100
9, 198472, Note_on_c, 6, 74, 0
9, 198480, Note_on_c, 6, 76, 100
9, 198552, Note_on_c, 6, 76, 0
9, 198560, Note_on_c, 6, 77, 100
9, 198632, Note_on_c, 6, 77, 0
9, 198640, Note_on_c, 6, 79, 100
9, 198712, Note_on_c, 6, 79, 0
9, 198720, Note_on_c, 6, 81, 100
9, 198792, Note_on_c, 6, 81, 0
9, 198800, Note_on_c, 6, 83, 100
9, 198872, Note_on_c, 6, 83, 0
9, 198880, Note_on_c, 6, 84, 100
9, 198952, Note_on_c, 6, 84, 0
9, 198960, Note_on_c, 6, 86, 100
9, 199068, Note_on_c, 6, 86, 0
9, 199760, Note_on_c, 6, 80, 100
9, 199832, Note_on_c, 6, 80, 0
9, 199840, Note_on_c, 6, 83, 100
9, 199912, Note_on_c, 6, 83, 0
9, 199920, Note_on_c, 6, 86, 100
9, 199992, Note_on_c, 6, 86, 0
9, 200000, Note_on_c, 6, 83, 100
9, 200072, Note_on_c, 6, 83, 0
9, 200080, Note_on_c, 6, 80, 100
9, 200152, Note_on_c, 6, 80, 0
9, 200160, Note_on_c, 6, 77, 100
9, 200232, Note_on_c, 6, 77, 0
9, 200240, Note_on_c, 6, 86, 100
9, 200312, Note_on_c, 6, 86, 0
9, 200320, Note_on_c, 6, 83, 100
9, 200392, Note_on_c, 6, 83, 0
9, 200400, Note_on_c, 6, 81, 100
9, 200472, Note_on_c, 6, 81, 0
9, 200480, Note_on_c, 6, 80, 100
9, 200552, Note_on_c, 6, 80, 0
9, 200560, Note_on_c, 6, 78, 100
9, 200632, Note_on_c, 6, 78, 0
9, 200640, Note_on_c, 6, 76, 100
9, 200712, Note_on_c, 6, 76, 0
9, 200720, Note_on_c, 6, 80, 100
9, 200792, Note_on_c, 6, 80, 0
9, 200800, Note_on_c, 6, 81, 100
9, 200872, Note_on_c, 6, 81, 0
9, 200880, Note_on_c, 6, 84, 100
9, 200952, Note_on_c, 6, 84, 0
9, 200960, Note_on_c, 6, 81, 100
9, 201032, Note_on_c, 6, 81, 0
9, 201040, Note_on_c, 6, 80, 100
9, 201112, Note_on_c, 6, 80, 0
9, 201120, Note_on_c, 6, 76, 100
9, 201192, Note_on_c, 6, 76, 0
9, 201200, Note_on_c, 6, 84, 100
9, 201272, Note_on_c, 6, 84, 0
9, 201280, Note_on_c, 6, 81, 100
9, 201352, Note_on_c, 6, 81, 0
9, 201360, Note_on_c, 6, 79, 100
9, 201432, Note_on_c, 6, 79, 0
9, 201440, Note_on_c, 6, 78, 100
9, 201512, Note_on_c, 6, 78, 0
9, 201520, Note_on_c, 6, 76, 100
9, 201592, Note_on_c, 6, 76, 0
9, 201600, Note_on_c, 6, 75, 100
9, 201672, Note_on_c, 6, 75, 0
9, 201680, Note_on_c, 6, 78, 100
9, 201752, Note_on_c, 6, 78, 0
9, 201760, Note_on_c, 6, 81, 100
9, 201832, Note_on_c, 6, 81, 0
9, 201840, Note_on_c, 6, 84, 100
9, 201912, Note_on_c, 6, 84, 0
9, 201920, Note_on_c, 6, 81, 100
9, 201992, Note_on_c, 6, 81, 0
9, 202000, Note_on_c, 6, 78, 100
9, 202072, Note_on_c, 6, 78, 0
9, 202080, Note_on_c, 6, 75, 100
9, 202152, Note_on_c, 6, 75, 0
9, 202160, Note_on_c, 6, 84, 100
9, 202232, Note_on_c, 6, 84, 0
9, 202240, Note_on_c, 6, 81, 100
9, 202312, Note_on_c, 6, 81, 0
9, 202320, Note_on_c, 6, 78, 100
9, 202392, Note_on_c, 6, 78, 0
9, 202400, Note_on_c, 6, 76, 100
9, 202472, Note_on_c, 6, 76, 0
9, 202480, Note_on_c, 6, 75, 100
9, 202552, Note_on_c, 6, 75, 0
9, 202560, Note_on_c, 6, 74, 100
9, 202632, Note_on_c, 6, 74, 0
9, 202640, Note_on_c, 6, 77, 100
9, 202712, Note_on_c, 6, 77, 0
9, 202720, Note_on_c, 6, 80, 100
9, 202792, Note_on_c, 6, 80, 0
9, 202800, Note_on_c, 6, 83, 100
9, 202872, Note_on_c, 6, 83, 0
9, 202880, Note_on_c, 6, 80, 100
9, 202952, Note_on_c, 6, 80, 0
9, 202960, Note_on_c, 6, 77, 100
9, 203032, Note_on_c, 6, 77, 0
9, 203040, Note_on_c, 6, 74, 100
9, 203112, Note_on_c, 6, 74, 0
9, 203120, Note_on_c, 6, 83, 100
9, 203192, Note_on_c, 6, 83, 0
9, 203200, Note_on_c, 6, 80, 100
9, 203272, Note_on_c, 6, 80, 0
9, 203280, Note_on_c, 6, 77, 100
9, 203352, Note_on_c, 6, 77, 0
9, 203360, Note_on_c, 6, 76, 100
9, 203432, Note_on_c, 6, 76, 0
9, 203440, Note_on_c, 6, 74, 100
9, 203512, Note_on_c, 6, 74, 0
9, 203520, Note_on_c, 6, 73, 100
9, 203592, Note_on_c, 6, 73, 0
9, 203600, Note_on_c, 6, 76, 100
9, 203672, Note_on_c, 6, 76, 0
9, 203680, Note_on_c, 6, 79, 100
9, 203752, Note_on_c, 6, 79, 0
9, 203760, Note_on_c, 6, 82, 100
9, 203832, Note_on_c, 6, 82, 0
9, 203840, Note_on_c, 6, 79, 100
9, 203912, Note_on_c, 6, 79, 0
9, 203920, Note_on_c, 6, 76, 100
9, 203992, Note_on_c, 6, 76, 0
9, 204000, Note_on_c, 6, 73, 100
9, 204072, Note_on_c, 6, 73, 0
9, 204080, Note_on_c, 6, 82, 100
9, 204152, Note_on_c, 6, 82, 0
9, 204160, Note_on_c, 6, 79, 100
9, 204232, Note_on_c, 6, 79, 0
9, 204240, Note_on_c, 6, 76, 100
9, 204312, Note_on_c, 6, 76, 0
9, 204320, Note_on_c, 6, 74, 100
9, 204392, Note_on_c, 6, 74, 0
9, 204400, Note_on_c, 6, 73, 100
9, 204472, Note_on_c, 6, 73, 0
9, 204480, Note_on_c, 6, 72, 100
9, 204552, Note_on_c, 6, 72, 0
9, 204560, Note_on_c, 6, 75, 100
9, 204632, Note_on_c, 6, 75, 0
9, 204640, Note_on_c, 6, 78, 100
9, 204712, Note_on_c, 6, 78, 0
9, 204720, Note_on_c, 6, 81, 100
9, 204792, Note_on_c, 6, 81, 0
9, 204800, Note_on_c, 6, 78, 100
9, 204872, Note_on_c, 6, 78, 0
9, 204880, Note_on_c, 6, 75, 100
9, 204952, Note_on_c, 6, 75, 0
9, 204960, Note_on_c, 6, 72, 100
9, 205032, Note_on_c, 6, 72, 0
9, 205040, Note_on_c, 6, 81, 100
9, 205112, Note_on_c, 6, 81, 0
9, 205120, Note_on_c, 6, 78, 100
9, 205192, Note_on_c, 6, 78, 0
9, 205200, Note_on_c, 6, 75, 100
9, 205272, Note_on_c, 6, 75, 0
9, 205280, Note_on_c, 6, 72, 100
9, 205352, Note_on_c, 6, 72, 0
9, 205360, Note_on_c, 6, 71, 100
9, 205432, Note_on_c, 6, 71, 0
9, 205440, Note_on_c, 6, 80, 100
9, 205512, Note_on_c, 6, 80, 0
9, 205520, Note_on_c, 6, 77, 100
9, 205592, Note_on_c, 6, 77, 0
9, 205600, Note_on_c, 6, 76, 100
9, 205672, Note_on_c, 6, 76, 0
9, 205680, Note_on_c, 6, 74, 100
9, 205752, Note_on_c, 6, 74, 0
9, 205760, Note_on_c, 6, 72, 100
9, 205832, Note_on_c, 6, 72, 0
9, 205840, Note_on_c, 6, 71, 100
9, 205912, Note_on_c, 6, 71, 0
9, 205920, Note_on_c, 6, 77, 100
9, 205992, Note_on_c, 6, 77, 0
9, 206000, Note_on_c, 6, 74, 100
9, 206072, Note_on_c, 6, 74, 0
9, 206080, Note_on_c, 6, 72, 100
9, 206152, Note_on_c, 6, 72, 0
9, 206160, Note_on_c, 6, 71, 100
9, 206232, Note_on_c, 6, 71, 0
9, 206240, Note_on_c, 6, 69, 100
9, 206312, Note_on_c, 6, 69, 0
9, 206320, Note_on_c, 6, 68, 100
9, 206392, Note_on_c, 6, 68, 0
9, 206400, Note_on_c, 6, 74, 100
9, 206472, Note_on_c, 6, 74, 0
9, 206480, Note_on_c, 6, 71, 100
9, 206552, Note_on_c, 6, 71, 0
9, 206560, Note_on_c, 6, 69, 100
9, 206632, Note_on_c, 6, 69, 0
9, 206640, Note_on_c, 6, 68, 100
9, 206712, Note_on_c, 6, 68, 0
9, 206720, Note_on_c, 6, 66, 100
9, 206792, Note_on_c, 6, 66, 0
9, 206800, Note_on_c, 6, 64, 100
9, 206872, Note_on_c, 6, 64, 0
9, 206880, Note_on_c, 6, 65, 100
9, 206952, Note_on_c, 6, 65, 0
9, 206960, Note_on_c, 6, 74, 100
9, 207032, Note_on_c, 6, 74, 0
9, 207040, Note_on_c, 6, 71, 100
9, 207112, Note_on_c, 6, 71, 0
9, 207120, Note_on_c, 6, 68, 100
9, 207192, Note_on_c, 6, 68, 0
9, 207200, Note_on_c, 6, 65, 100
9, 207272, Note_on_c, 6, 65, 0
9, 207280, Note_on_c, 6, 64, 100
9, 207352, Note_on_c, 6, 64, 0
9, 207360, Note_on_c, 6, 62, 100
9, 207432, Note_on_c, 6, 62, 0
9, 207440, Note_on_c, 6, 71, 100
9, 207512, Note_on_c, 6, 71, 0
9, 207520, Note_on_c, 6, 68, 100
9, 207592, Note_on_c, 6, 68, 0
9, 207600, Note_on_c, 6, 65, 100
9, 207672, Note_on_c, 6, 65, 0
9, 207680, Note_on_c, 6, 64, 100
9, 207752, Note_on_c, 6, 64, 0
9, 207760, Note_on_c, 6, 62, 100
9, 207832, Note_on_c, 6, 62, 0
9, 207840, Note_on_c, 6, 60, 100
9, 207912, Note_on_c, 6, 60, 0
9, 207920, Note_on_c, 6, 69, 100
9, 207992, Note_on_c, 6, 69, 0
9, 208000, Note_on_c, 6, 66, 100
9, 208072, Note_on_c, 6, 66, 0
9, 208080, Note_on_c, 6, 63, 100
9, 208152, Note_on_c, 6, 63, 0
9, 208160, Note_on_c, 6, 60, 100
9, 208232, Note_on_c, 6, 60, 0
9, 208240, Note_on_c, 6, 59, 100
9, 208312, Note_on_c, 6, 59, 0
9, 208320, Note_on_c, 6, 57, 100
9, 208392, Note_on_c, 6, 57, 0
9, 208400, Note_on_c, 6, 66, 100
9, 208472, Note_on_c, 6, 66, 0
9, 208480, Note_on_c, 6, 63, 100
9, 208552, Note_on_c, 6, 63, 0
9, 209040, Note_on_c, 6, 64, 100
9, 209064, Note_on_c, 6, 64, 0
9, 209067, Note_on_c, 6, 66, 100
9, 209091, Note_on_c, 6, 66, 0
9, 209094, Note_on_c, 6, 68, 100
9, 209118, Note_on_c, 6, 68, 0
9, 209121, Note_on_c, 6, 69, 100
9, 209145, Note_on_c, 6, 69, 0
9, 209148, Note_on_c, 6, 71, 100
9, 209172, Note_on_c, 6, 71, 0
9, 209175, Note_on_c, 6, 72, 100
9, 209199, Note_on_c, 6, 72, 0
9, 209202, Note_on_c, 6, 74, 100
9, 209226, Note_on_c, 6, 74, 0
9, 209229, Note_on_c, 6, 72, 100
9, 209253, Note_on_c, 6, 72, 0
9, 209256, Note_on_c, 6, 71, 100
9, 209280, Note_on_c, 6, 71, 0
9, 209283, Note_on_c, 6, 77, 100
9, 209337, Note_on_c, 6, 77, 0
9, 209343, Note_on_c, 6, 76, 100
9, 209604, Note_on_c, 6, 76, 0
9, 209613, Note_on_c, 6, 74, 100
9, 209622, Note_on_c, 6, 74, 0
9, 209623, Note_on_c, 6, 72, 100
9, 209632, Note_on_c, 6, 72, 0
9, 209633, Note_on_c, 6, 71, 100
9, 209642, Note_on_c, 6, 71, 0
9, 209643, Note_on_c, 6, 72, 100
9, 209724, Note_on_c, 6, 72, 0
9, 209733, Note_on_c, 6, 71, 100
9, 209742, Note_on_c, 6, 71, 0
9, 209743, Note_on_c, 6, 69, 100
9, 209752, Note_on_c, 6, 69, 0
9, 209753, Note_on_c, 6, 68, 100
9, 209762, Note_on_c, 6, 68, 0
9, 209763, Note_on_c, 6, 69, 100
9, 210003, Note_on_c, 6, 60, 100
9, 210003, Note_on_c, 6, 66, 100
9, 210219, Note_on_c, 6, 60, 0
9, 210219, Note_on_c, 6, 66, 0
9, 210243, Note_on_c, 6, 64, 100
9, 210270, Note_on_c, 6, 69, 0
9, 210273, Note_on_c, 6, 68, 100
9, 210300, Note_on_c, 6, 68, 0
9, 210303, Note_on_c, 6, 69, 100
9, 210330, Note_on_c, 6, 69, 0
9, 210333, Note_on_c, 6, 72, 100
9, 210351, Note_on_c, 6, 64, 0
9, 210360, Note_on_c, 6, 72, 0
9, 210363, Note_on_c, 6, 71, 100
9, 210390, Note_on_c, 6, 71, 0
9, 210393, Note_on_c, 6, 69, 100
9, 210420, Note_on_c, 6, 69, 0
9, 210423, Note_on_c, 6, 68, 100
9, 210450, Note_on_c, 6, 68, 0
9, 210453, Note_on_c, 6, 66, 100
9, 210480, Note_on_c, 6, 66, 0
9, 210483, Note_on_c, 6, 74, 100
9, 210537, Note_on_c, 6, 74, 0
9, 210543, Note_on_c, 6, 71, 100
9, 210651, Note_on_c, 6, 71, 0
9, 210663, Note_on_c, 6, 66, 100
9, 210717, Note_on_c, 6, 66, 0
9, 210723, Note_on_c, 6, 69, 100
9, 210723, Note_on_c, 6, 64, 100
9, 210939, Note_on_c, 6, 69, 0
9, 210963, Note_on_c, 6, 68, 100
9, 211125, Note_on_c, 6, 68, 0
9, 211143, Note_on_c, 6, 69, 100
9, 211155, Note_on_c, 6, 64, 0
9, 211197, Note_on_c, 6, 69, 0
9, 211203, Note_on_c, 6, 69, 100
9, 211203, Note_on_c, 6, 60, 100
9, 211203, Note_on_c, 6, 64, 100
9, 211419, Note_on_c, 6, 69, 0
9, 211419, Note_on_c, 6, 60, 0
9, 211419, Note_on_c, 6, 64, 0
9, 211443, Note_on_c, 6, 65, 100
9, 211659, Note_on_c, 6, 65, 0
9, 211683, Note_on_c, 6, 64, 100
9, 211899, Note_on_c, 6, 64, 0
9, 211923, Note_on_c, 6, 62, 100
9, 212139, Note_on_c, 6, 62, 0
9, 212163, Note_on_c, 6, 60, 100
9, 212379, Note_on_c, 6, 60, 0
9, 212403, Note_on_c, 6, 77, 100
9, 212403, Note_on_c, 6, 69, 100
9, 212619, Note_on_c, 6, 69, 0
9, 212643, Note_on_c, 6, 67, 100
9, 212835, Note_on_c, 6, 77, 0
9, 212883, Note_on_c, 6, 76, 100
9, 212991, Note_on_c, 6, 76, 0
9, 213003, Note_on_c, 6, 74, 100
9, 213075, Note_on_c, 6, 67, 0
9, 213111, Note_on_c, 6, 74, 0
9, 213123, Note_on_c, 6, 72, 100
9, 213339, Note_on_c, 6, 72, 0
9, 213363, Note_on_c, 6, 74, 100
9, 213579, Note_on_c, 6, 74, 0
9, 213603, Note_on_c, 6, 64, 100
9, 213843, Note_on_c, 6, 74, 100
9, 214059, Note_on_c, 6, 74, 0
9, 214083, Note_on_c, 6, 72, 100
9, 214515, Note_on_c, 6, 72, 0
9, 214563, Note_on_c, 6, 71, 100
9, 214731, Note_on_c, 6, 64, 0
9, 214803, Note_on_c, 6, 63, 100
9, 215019, Note_on_c, 6, 63, 0
9, 215043, Note_on_c, 6, 64, 100
9, 215259, Note_on_c, 6, 71, 0
9, 215259, Note_on_c, 6, 64, 0
9, 215259, End_track
10, 0, Start_track
10, 0, Sequence_number, 65535
10, 0, MIDI_port, 0
10, 0, Title_t, "Cembalo rechte Hand - Hilfsstimme"
10, 0, Control_c, 7, 0, 0
10, 0, Control_c, 7, 32, 0
10, 0, Program_c, 7, 6
10, 0, Control_c, 7, 7, 80
10, 0, Control_c, 7, 10, 64
10, 1200, Note_on_c, 7, 74, 100
10, 1632, Note_on_c, 7, 74, 0
10, 1680, Note_on_c, 7, 72, 100
10, 2136, Note_on_c, 7, 72, 0
10, 2160, Note_on_c, 7, 71, 100
10, 2268, Note_on_c, 7, 71, 0
10, 2280, Note_on_c, 7, 69, 100
10, 2388, Note_on_c, 7, 69, 0
10, 2400, Note_on_c, 7, 71, 100
10, 3096, Note_on_c, 7, 71, 0
10, 3120, Note_on_c, 7, 69, 100
10, 3228, Note_on_c, 7, 69, 0
10, 3240, Note_on_c, 7, 67, 100
10, 3348, Note_on_c, 7, 67, 0
10, 3360, Note_on_c, 7, 66, 100
10, 3792, Note_on_c, 7, 66, 0
10, 25920, Note_on_c, 7, 69, 100
10, 26352, Note_on_c, 7, 69, 0
10, 26400, Note_on_c, 7, 69, 100
10, 26616, Note_on_c, 7, 69, 0
10, 26640, Note_on_c, 7, 66, 100
10, 26856, Note_on_c, 7, 66, 0
10, 172080, Note_on_c, 7, 77, 100
10, 172512, Note_on_c, 7, 77, 0
10, 172560, Note_on_c, 7, 76, 100
10, 172776, Note_on_c, 7, 76, 0
10, 172800, Note_on_c, 7, 76, 100
10, 173016, Note_on_c, 7, 76, 0
10, 212403, Note_on_c, 7, 74, 100
10, 212835, Note_on_c, 7, 74, 0
10, 212883, Note_on_c, 7, 72, 100
10, 212991, Note_on_c, 7, 72, 0
10, 213003, Note_on_c, 7, 71, 100
10, 213111, Note_on_c, 7, 71, 0
10, 213123, Note_on_c, 7, 69, 100
10, 213339, Note_on_c, 7, 69, 0
10, 213363, Note_on_c, 7, 71, 100
10, 213579, Note_on_c, 7, 71, 0
10, 213603, Note_on_c, 7, 68, 100
10, 213603, Note_on_c, 7, 71, 100
10, 214035, Note_on_c, 7, 68, 0
10, 214299, Note_on_c, 7, 71, 0
10, 214323, Note_on_c, 7, 69, 100
10, 214431, Note_on_c, 7, 69, 0
10, 214443, Note_on_c, 7, 67, 100
10, 214551, Note_on_c, 7, 67, 0
10, 214563, Note_on_c, 7, 66, 100
10, 214995, Note_on_c, 7, 66, 0
10, 215043, Note_on_c, 7, 67, 100
10, 215259, Note_on_c, 7, 67, 0
10, 215259, End_track
11, 0, Start_track
11, 0, Sequence_number, 65535
11, 0, MIDI_port, 0
11, 0, Title_t, "Cembalo linke Hand - Hilfsstimme"
11, 0, Control_c, 8, 0, 0
11, 0, Control_c, 8, 32, 0
11, 0, Program_c, 8, 6
11, 0, Control_c, 8, 7, 80
11, 0, Control_c, 8, 10, 64
11, 4320, Note_on_c, 8, 59, 100
11, 4752, Note_on_c, 8, 59, 0
11, 4800, Note_on_c, 8, 55, 100
11, 5016, Note_on_c, 8, 55, 0
11, 90960, Note_on_c, 8, 46, 100
11, 91068, Note_on_c, 8, 46, 0
11, 138240, Note_on_c, 8, 52, 100
11, 138672, Note_on_c, 8, 52, 0
11, 160320, Note_on_c, 8, 53, 100
11, 160320, Note_on_c, 8, 50, 100
11, 160428, Note_on_c, 8, 53, 0
11, 160428, Note_on_c, 8, 50, 0
11, 160800, Note_on_c, 8, 56, 100
11, 160800, Note_on_c, 8, 53, 100
11, 160908, Note_on_c, 8, 56, 0
11, 160908, Note_on_c, 8, 53, 0
11, 161280, Note_on_c, 8, 58, 100
11, 161280, Note_on_c, 8, 52, 100
11, 161388, Note_on_c, 8, 58, 0
11, 161388, Note_on_c, 8, 52, 0
11, 161760, Note_on_c, 8, 59, 100
11, 161760, Note_on_c, 8, 53, 100
11, 161868, Note_on_c, 8, 59, 0
11, 161868, Note_on_c, 8, 53, 0
11, 162240, Note_on_c, 8, 60, 100
11, 162240, Note_on_c, 8, 55, 100
11, 162348, Note_on_c, 8, 60, 0
11, 162348, Note_on_c, 8, 55, 0
11, 208560, Note_on_c, 8, 60, 100
11, 208632, Note_on_c, 8, 60, 0
11, 208640, Note_on_c, 8, 59, 100
11, 208712, Note_on_c, 8, 59, 0
11, 208720, Note_on_c, 8, 57, 100
11, 208792, Note_on_c, 8, 57, 0
11, 208800, Note_on_c, 8, 56, 100
11, 208800, Note_on_c, 8, 52, 100
11, 209016, Note_on_c, 8, 56, 0
11, 209016, Note_on_c, 8, 52, 0
11, 209016, End_track
12, 0, Start_track
12, 0, Sequence_number, 65535
12, 0, MIDI_port, 0
12, 0, Title_t, "Cembalo linke Hand"
12, 0, Control_c, 10, 0, 0
12, 0, Control_c, 10, 32, 0
12, 0, Program_c, 10, 6
12, 0, Control_c, 10, 7, 80
12, 0, Control_c, 10, 10, 64
12, 0, Note_on_c, 10, 57, 100
12, 216, Note_on_c, 10, 57, 0
12, 240, Note_on_c, 10, 65, 100
12, 456, Note_on_c, 10, 65, 0
12, 480, Note_on_c, 10, 64, 100
12, 696, Note_on_c, 10, 64, 0
12, 720, Note_on_c, 10, 62, 100
12, 936, Note_on_c, 10, 62, 0
12, 960, Note_on_c, 10, 60, 100
12, 1392, Note_on_c, 10, 60, 0
12, 1440, Note_on_c, 10, 59, 100
12, 1872, Note_on_c, 10, 59, 0
12, 1920, Note_on_c, 10, 57, 100
12, 2352, Note_on_c, 10, 57, 0
12, 2400, Note_on_c, 10, 56, 100
12, 2832, Note_on_c, 10, 56, 0
12, 2880, Note_on_c, 10, 57, 100
12, 3312, Note_on_c, 10, 57, 0
12, 3360, Note_on_c, 10, 59, 100
12, 3792, Note_on_c, 10, 59, 0
12, 3840, Note_on_c, 10, 64, 100
12, 3840, Note_on_c, 10, 52, 100
12, 3948, Note_on_c, 10, 64, 0
12, 3960, Note_on_c, 10, 59, 100
12, 4068, Note_on_c, 10, 59, 0
12, 4080, Note_on_c, 10, 57, 100
12, 4188, Note_on_c, 10, 57, 0
12, 4200, Note_on_c, 10, 55, 100
12, 4272, Note_on_c, 10, 52, 0
12, 4308, Note_on_c, 10, 55, 0
12, 4320, Note_on_c, 10, 54, 100
12, 4320, Note_on_c, 10, 51, 100
12, 4752, Note_on_c, 10, 54, 0
12, 4752, Note_on_c, 10, 51, 0
12, 4800, Note_on_c, 10, 59, 100
12, 4800, Note_on_c, 10, 52, 100
12, 5016, Note_on_c, 10, 59, 0
12, 5016, Note_on_c, 10, 52, 0
12, 5040, Note_on_c, 10, 60, 100
12, 5256, Note_on_c, 10, 60, 0
12, 5280, Note_on_c, 10, 50, 100
12, 5496, Note_on_c, 10, 50, 0
12, 5520, Note_on_c, 10, 59, 100
12, 5736, Note_on_c, 10, 59, 0
12, 5760, Note_on_c, 10, 48, 100
12, 5976, Note_on_c, 10, 48, 0
12, 6000, Note_on_c, 10, 57, 100
12, 6216, Note_on_c, 10, 57, 0
12, 6240, Note_on_c, 10, 47, 100
12, 6456, Note_on_c, 10, 47, 0
12, 6480, Note_on_c, 10, 57, 100
12, 6696, Note_on_c, 10, 57, 0
12, 6720, Note_on_c, 10, 55, 100
12, 6936, Note_on_c, 10, 55, 0
12, 6960, Note_on_c, 10, 52, 100
12, 7176, Note_on_c, 10, 52, 0
12, 7200, Note_on_c, 10, 54, 100
12, 7416, Note_on_c, 10, 54, 0
12, 7440, Note_on_c, 10, 56, 100
12, 7656, Note_on_c, 10, 56, 0
12, 7680, Note_on_c, 10, 57, 100
12, 7896, Note_on_c, 10, 57, 0
12, 7920, Note_on_c, 10, 58, 100
12, 8136, Note_on_c, 10, 58, 0
12, 8160, Note_on_c, 10, 57, 100
12, 8376, Note_on_c, 10, 57, 0
12, 8400, Note_on_c, 10, 55, 100
12, 8616, Note_on_c, 10, 55, 0
12, 8640, Note_on_c, 10, 53, 100
12, 8856, Note_on_c, 10, 53, 0
12, 8880, Note_on_c, 10, 52, 100
12, 8988, Note_on_c, 10, 52, 0
12, 9000, Note_on_c, 10, 50, 100
12, 9108, Note_on_c, 10, 50, 0
12, 9120, Note_on_c, 10, 52, 100
12, 9552, Note_on_c, 10, 52, 0
12, 9600, Note_on_c, 10, 45, 100
12, 9816, Note_on_c, 10, 45, 0
12, 9840, Note_on_c, 10, 50, 100
12, 10272, Note_on_c, 10, 50, 0
12, 10320, Note_on_c, 10, 48, 100
12, 10776, Note_on_c, 10, 48, 0
12, 10800, Note_on_c, 10, 47, 100
12, 10908, Note_on_c, 10, 47, 0
12, 10920, Note_on_c, 10, 45, 100
12, 11028, Note_on_c, 10, 45, 0
12, 11040, Note_on_c, 10, 47, 100
12, 11256, Note_on_c, 10, 47, 0
12, 11280, Note_on_c, 10, 40, 100
12, 11496, Note_on_c, 10, 40, 0
12, 11520, Note_on_c, 10, 45, 100
12, 11628, Note_on_c, 10, 45, 0
12, 11640, Note_on_c, 10, 47, 100
12, 11748, Note_on_c, 10, 47, 0
12, 11760, Note_on_c, 10, 48, 100
12, 11868, Note_on_c, 10, 48, 0
12, 11880, Note_on_c, 10, 45, 100
12, 11988, Note_on_c, 10, 45, 0
12, 12000, Note_on_c, 10, 52, 100
12, 12216, Note_on_c, 10, 52, 0
12, 12240, Note_on_c, 10, 45, 100
12, 12456, Note_on_c, 10, 45, 0
12, 12480, Note_on_c, 10, 50, 100
12, 12912, Note_on_c, 10, 50, 0
12, 12960, Note_on_c, 10, 38, 100
12, 13392, Note_on_c, 10, 38, 0
12, 13440, Note_on_c, 10, 43, 100
12, 13656, Note_on_c, 10, 43, 0
12, 13680, Note_on_c, 10, 55, 100
12, 13896, Note_on_c, 10, 55, 0
12, 13920, Note_on_c, 10, 57, 100
12, 14136, Note_on_c, 10, 57, 0
12, 14160, Note_on_c, 10, 59, 100
12, 14376, Note_on_c, 10, 59, 0
12, 14400, Note_on_c, 10, 60, 100
12, 14616, Note_on_c, 10, 60, 0
12, 14640, Note_on_c, 10, 57, 100
12, 14856, Note_on_c, 10, 57, 0
12, 14880, Note_on_c, 10, 59, 100
12, 15096, Note_on_c, 10, 59, 0
12, 15120, Note_on_c, 10, 47, 100
12, 15336, Note_on_c, 10, 47, 0
12, 15360, Note_on_c, 10, 52, 100
12, 15576, Note_on_c, 10, 52, 0
12, 15600, Note_on_c, 10, 50, 100
12, 15816, Note_on_c, 10, 50, 0
12, 15840, Note_on_c, 10, 48, 100
12, 16056, Note_on_c, 10, 48, 0
12, 16080, Note_on_c, 10, 47, 100
12, 16296, Note_on_c, 10, 47, 0
12, 16320, Note_on_c, 10, 45, 100
12, 16536, Note_on_c, 10, 45, 0
12, 16560, Note_on_c, 10, 53, 100
12, 16776, Note_on_c, 10, 53, 0
12, 16800, Note_on_c, 10, 52, 100
12, 17016, Note_on_c, 10, 52, 0
12, 17040, Note_on_c, 10, 50, 100
12, 17256, Note_on_c, 10, 50, 0
12, 17280, Note_on_c, 10, 48, 100
12, 17712, Note_on_c, 10, 48, 0
12, 17760, Note_on_c, 10, 47, 100
12, 18192, Note_on_c, 10, 47, 0
12, 18240, Note_on_c, 10, 45, 100
12, 18672, Note_on_c, 10, 45, 0
12, 18720, Note_on_c, 10, 44, 100
12, 19152, Note_on_c, 10, 44, 0
12, 19200, Note_on_c, 10, 45, 100
12, 19416, Note_on_c, 10, 45, 0
12, 19440, Note_on_c, 10, 57, 100
12, 19656, Note_on_c, 10, 57, 0
12, 19680, Note_on_c, 10, 59, 100
12, 19896, Note_on_c, 10, 59, 0
12, 19920, Note_on_c, 10, 61, 100
12, 20136, Note_on_c, 10, 61, 0
12, 20160, Note_on_c, 10, 62, 100
12, 20376, Note_on_c, 10, 62, 0
12, 20400, Note_on_c, 10, 60, 100
12, 20616, Note_on_c, 10, 60, 0
12, 20640, Note_on_c, 10, 59, 100
12, 20856, Note_on_c, 10, 59, 0
12, 20880, Note_on_c, 10, 57, 100
12, 21096, Note_on_c, 10, 57, 0
12, 21120, Note_on_c, 10, 56, 100
12, 21552, Note_on_c, 10, 56, 0
12, 21840, Note_on_c, 10, 52, 100
12, 22056, Note_on_c, 10, 52, 0
12, 22080, Note_on_c, 10, 57, 100
12, 22296, Note_on_c, 10, 57, 0
12, 22320, Note_on_c, 10, 48, 100
12, 22428, Note_on_c, 10, 48, 0
12, 22440, Note_on_c, 10, 50, 100
12, 22548, Note_on_c, 10, 50, 0
12, 22560, Note_on_c, 10, 52, 100
12, 22776, Note_on_c, 10, 52, 0
12, 22800, Note_on_c, 10, 40, 100
12, 23016, Note_on_c, 10, 40, 0
12, 23040, Note_on_c, 10, 57, 100
12, 23040, Note_on_c, 10, 45, 100
12, 23112, Note_on_c, 10, 57, 0
12, 23120, Note_on_c, 10, 60, 100
12, 23192, Note_on_c, 10, 60, 0
12, 23200, Note_on_c, 10, 64, 100
12, 23256, Note_on_c, 10, 45, 0
12, 23272, Note_on_c, 10, 64, 0
12, 23280, Note_on_c, 10, 56, 100
12, 23352, Note_on_c, 10, 56, 0
12, 23360, Note_on_c, 10, 62, 100
12, 23432, Note_on_c, 10, 62, 0
12, 23440, Note_on_c, 10, 65, 100
12, 23512, Note_on_c, 10, 65, 0
12, 23520, Note_on_c, 10, 57, 100
12, 23592, Note_on_c, 10, 57, 0
12, 23600, Note_on_c, 10, 60, 100
12, 23672, Note_on_c, 10, 60, 0
12, 23680, Note_on_c, 10, 64, 100
12, 23752, Note_on_c, 10, 64, 0
12, 23760, Note_on_c, 10, 52, 100
12, 23832, Note_on_c, 10, 52, 0
12, 23840, Note_on_c, 10, 59, 100
12, 23912, Note_on_c, 10, 59, 0
12, 23920, Note_on_c, 10, 62, 100
12, 23992, Note_on_c, 10, 62, 0
12, 24000, Note_on_c, 10, 57, 100
12, 24072, Note_on_c, 10, 57, 0
12, 24080, Note_on_c, 10, 59, 100
12, 24152, Note_on_c, 10, 59, 0
12, 24160, Note_on_c, 10, 60, 100
12, 24232, Note_on_c, 10, 60, 0
12, 24240, Note_on_c, 10, 62, 100
12, 24312, Note_on_c, 10, 62, 0
12, 24320, Note_on_c, 10, 64, 100
12, 24392, Note_on_c, 10, 64, 0
12, 24400, Note_on_c, 10, 65, 100
12, 24472, Note_on_c, 10, 65, 0
12, 24480, Note_on_c, 10, 55, 100
12, 24552, Note_on_c, 10, 55, 0
12, 24560, Note_on_c, 10, 57, 100
12, 24632, Note_on_c, 10, 57, 0
12, 24640, Note_on_c, 10, 59, 100
12, 24712, Note_on_c, 10, 59, 0
12, 24720, Note_on_c, 10, 60, 100
12, 24792, Note_on_c, 10, 60, 0
12, 24800, Note_on_c, 10, 62, 100
12, 24872, Note_on_c, 10, 62, 0
12, 24880, Note_on_c, 10, 64, 100
12, 24952, Note_on_c, 10, 64, 0
12, 24960, Note_on_c, 10, 53, 100
12, 25032, Note_on_c, 10, 53, 0
12, 25040, Note_on_c, 10, 55, 100
12, 25112, Note_on_c, 10, 55, 0
12, 25120, Note_on_c, 10, 57, 100
12, 25192, Note_on_c, 10, 57, 0
12, 25200, Note_on_c, 10, 59, 100
12, 25272, Note_on_c, 10, 59, 0
12, 25280, Note_on_c, 10, 60, 100
12, 25352, Note_on_c, 10, 60, 0
12, 25360, Note_on_c, 10, 62, 100
12, 25432, Note_on_c, 10, 62, 0
12, 25440, Note_on_c, 10, 52, 100
12, 25512, Note_on_c, 10, 52, 0
12, 25520, Note_on_c, 10, 56, 100
12, 25592, Note_on_c, 10, 56, 0
12, 25600, Note_on_c, 10, 59, 100
12, 25672, Note_on_c, 10, 59, 0
12, 25680, Note_on_c, 10, 62, 100
12, 25752, Note_on_c, 10, 62, 0
12, 25760, Note_on_c, 10, 59, 100
12, 25832, Note_on_c, 10, 59, 0
12, 25840, Note_on_c, 10, 56, 100
12, 25912, Note_on_c, 10, 56, 0
12, 25920, Note_on_c, 10, 52, 100
12, 25992, Note_on_c, 10, 52, 0
12, 26000, Note_on_c, 10, 57, 100
12, 26072, Note_on_c, 10, 57, 0
12, 26080, Note_on_c, 10, 59, 100
12, 26152, Note_on_c, 10, 59, 0
12, 26160, Note_on_c, 10, 60, 100
12, 26232, Note_on_c, 10, 60, 0
12, 26240, Note_on_c, 10, 59, 100
12, 26312, Note_on_c, 10, 59, 0
12, 26320, Note_on_c, 10, 57, 100
12, 26392, Note_on_c, 10, 57, 0
12, 26400, Note_on_c, 10, 63, 100
12, 26472, Note_on_c, 10, 63, 0
12, 26480, Note_on_c, 10, 60, 100
12, 26552, Note_on_c, 10, 60, 0
12, 26560, Note_on_c, 10, 59, 100
12, 26632, Note_on_c, 10, 59, 0
12, 26640, Note_on_c, 10, 57, 100
12, 26712, Note_on_c, 10, 57, 0
12, 26720, Note_on_c, 10, 55, 100
12, 26792, Note_on_c, 10, 55, 0
12, 26800, Note_on_c, 10, 54, 100
12, 26872, Note_on_c, 10, 54, 0
12, 26880, Note_on_c, 10, 55, 100
12, 26988, Note_on_c, 10, 55, 0
12, 27120, Note_on_c, 10, 54, 100
12, 27228, Note_on_c, 10, 54, 0
12, 27360, Note_on_c, 10, 55, 100
12, 27468, Note_on_c, 10, 55, 0
12, 27600, Note_on_c, 10, 51, 100
12, 27708, Note_on_c, 10, 51, 0
12, 27840, Note_on_c, 10, 55, 100
12, 27912, Note_on_c, 10, 55, 0
12, 27920, Note_on_c, 10, 54, 100
12, 27992, Note_on_c, 10, 54, 0
12, 28000, Note_on_c, 10, 52, 100
12, 28072, Note_on_c, 10, 52, 0
12, 28080, Note_on_c, 10, 60, 100
12, 28512, Note_on_c, 10, 60, 0
12, 28560, Note_on_c, 10, 59, 100
12, 29016, Note_on_c, 10, 59, 0
12, 29040, Note_on_c, 10, 57, 100
12, 29352, Note_on_c, 10, 57, 0
12, 29360, Note_on_c, 10, 54, 100
12, 29432, Note_on_c, 10, 54, 0
12, 29440, Note_on_c, 10, 51, 100
12, 29512, Note_on_c, 10, 51, 0
12, 29520, Note_on_c, 10, 47, 100
12, 29592, Note_on_c, 10, 47, 0
12, 29600, Note_on_c, 10, 51, 100
12, 29672, Note_on_c, 10, 51, 0
12, 29680, Note_on_c, 10, 54, 100
12, 29752, Note_on_c, 10, 54, 0
12, 29760, Note_on_c, 10, 55, 100
12, 29868, Note_on_c, 10, 55, 0
12, 30000, Note_on_c, 10, 52, 100
12, 30108, Note_on_c, 10, 52, 0
12, 30240, Note_on_c, 10, 47, 100
12, 30312, Note_on_c, 10, 47, 0
12, 30320, Note_on_c, 10, 48, 100
12, 30392, Note_on_c, 10, 48, 0
12, 30400, Note_on_c, 10, 50, 100
12, 30472, Note_on_c, 10, 50, 0
12, 30480, Note_on_c, 10, 52, 100
12, 30552, Note_on_c, 10, 52, 0
12, 30560, Note_on_c, 10, 54, 100
12, 30632, Note_on_c, 10, 54, 0
12, 30640, Note_on_c, 10, 56, 100
12, 30712, Note_on_c, 10, 56, 0
12, 30720, Note_on_c, 10, 60, 100
12, 30720, Note_on_c, 10, 57, 100
12, 30828, Note_on_c, 10, 60, 0
12, 30828, Note_on_c, 10, 57, 0
12, 30960, Note_on_c, 10, 59, 100
12, 30960, Note_on_c, 10, 52, 100
12, 31068, Note_on_c, 10, 59, 0
12, 31068, Note_on_c, 10, 52, 0
12, 31200, Note_on_c, 10, 60, 100
12, 31200, Note_on_c, 10, 48, 100
12, 31308, Note_on_c, 10, 60, 0
12, 31308, Note_on_c, 10, 48, 0
12, 31440, Note_on_c, 10, 56, 100
12, 31440, Note_on_c, 10, 52, 100
12, 31548, Note_on_c, 10, 56, 0
12, 31548, Note_on_c, 10, 52, 0
12, 31680, Note_on_c, 10, 60, 100
12, 31680, Note_on_c, 10, 57, 100
12, 31752, Note_on_c, 10, 60, 0
12, 31760, Note_on_c, 10, 59, 100
12, 31788, Note_on_c, 10, 57, 0
12, 31832, Note_on_c, 10, 59, 0
12, 31840, Note_on_c, 10, 57, 100
12, 31912, Note_on_c, 10, 57, 0
12, 31920, Note_on_c, 10, 65, 100
12, 31920, Note_on_c, 10, 59, 100
12, 32028, Note_on_c, 10, 59, 0
12, 32160, Note_on_c, 10, 60, 100
12, 32352, Note_on_c, 10, 65, 0
12, 32400, Note_on_c, 10, 64, 100
12, 32562, Note_on_c, 10, 60, 0
12, 32580, Note_on_c, 10, 59, 100
12, 32634, Note_on_c, 10, 59, 0
12, 32640, Note_on_c, 10, 57, 100
12, 32856, Note_on_c, 10, 64, 0
12, 32880, Note_on_c, 10, 62, 100
12, 32952, Note_on_c, 10, 57, 0
12, 32960, Note_on_c, 10, 56, 100
12, 33032, Note_on_c, 10, 56, 0
12, 33040, Note_on_c, 10, 54, 100
12, 33112, Note_on_c, 10, 54, 0
12, 33120, Note_on_c, 10, 56, 100
12, 33192, Note_on_c, 10, 62, 0
12, 33200, Note_on_c, 10, 65, 100
12, 33272, Note_on_c, 10, 65, 0
12, 33280, Note_on_c, 10, 62, 100
12, 33336, Note_on_c, 10, 56, 0
12, 33352, Note_on_c, 10, 62, 0
12, 33360, Note_on_c, 10, 59, 100
12, 33440, Note_on_c, 10, 56, 100
12, 33512, Note_on_c, 10, 56, 0
12, 33520, Note_on_c, 10, 52, 100
12, 33576, Note_on_c, 10, 59, 0
12, 33592, Note_on_c, 10, 52, 0
12, 33600, Note_on_c, 10, 60, 100
12, 33600, Note_on_c, 10, 57, 100
12, 33708, Note_on_c, 10, 60, 0
12, 33708, Note_on_c, 10, 57, 0
12, 33840, Note_on_c, 10, 57, 100
12, 33840, Note_on_c, 10, 54, 100
12, 33948, Note_on_c, 10, 57, 0
12, 33948, Note_on_c, 10, 54, 0
12, 34080, Note_on_c, 10, 54, 100
12, 34080, Note_on_c, 10, 47, 100
12, 34152, Note_on_c, 10, 54, 0
12, 34160, Note_on_c, 10, 55, 100
12, 34188, Note_on_c, 10, 47, 0
12, 34232, Note_on_c, 10, 55, 0
12, 34240, Note_on_c, 10, 57, 100
12, 34312, Note_on_c, 10, 57, 0
12, 34320, Note_on_c, 10, 59, 100
12, 34392, Note_on_c, 10, 59, 0
12, 34400, Note_on_c, 10, 61, 100
12, 34472, Note_on_c, 10, 61, 0
12, 34480, Note_on_c, 10, 63, 100
12, 34552, Note_on_c, 10, 63, 0
12, 34560, Note_on_c, 10, 64, 100
12, 34560, Note_on_c, 10, 52, 100
12, 34776, Note_on_c, 10, 64, 0
12, 34776, Note_on_c, 10, 52, 0
12, 34800, Note_on_c, 10, 60, 100
12, 35016, Note_on_c, 10, 60, 0
12, 35040, Note_on_c, 10, 59, 100
12, 35256, Note_on_c, 10, 59, 0
12, 35280, Note_on_c, 10, 57, 100
12, 35496, Note_on_c, 10, 57, 0
12, 35520, Note_on_c, 10, 55, 100
12, 35952, Note_on_c, 10, 55, 0
12, 36000, Note_on_c, 10, 54, 100
12, 36432, Note_on_c, 10, 54, 0
12, 36480, Note_on_c, 10, 52, 100
12, 36912, Note_on_c, 10, 52, 0
12, 36960, Note_on_c, 10, 51, 100
12, 37392, Note_on_c, 10, 51, 0
12, 37440, Note_on_c, 10, 52, 100
12, 37512, Note_on_c, 10, 52, 0
12, 37520, Note_on_c, 10, 59, 100
12, 37592, Note_on_c, 10, 59, 0
12, 37600, Note_on_c, 10, 57, 100
12, 37672, Note_on_c, 10, 57, 0
12, 37680, Note_on_c, 10, 55, 100
12, 37752, Note_on_c, 10, 55, 0
12, 37760, Note_on_c, 10, 54, 100
12, 37832, Note_on_c, 10, 54, 0
12, 37840, Note_on_c, 10, 52, 100
12, 37912, Note_on_c, 10, 52, 0
12, 37920, Note_on_c, 10, 58, 100
12, 37992, Note_on_c, 10, 58, 0
12, 38000, Note_on_c, 10, 55, 100
12, 38072, Note_on_c, 10, 55, 0
12, 38080, Note_on_c, 10, 53, 100
12, 38152, Note_on_c, 10, 53, 0
12, 38160, Note_on_c, 10, 52, 100
12, 38232, Note_on_c, 10, 52, 0
12, 38240, Note_on_c, 10, 50, 100
12, 38312, Note_on_c, 10, 50, 0
12, 38320, Note_on_c, 10, 49, 100
12, 38392, Note_on_c, 10, 49, 0
12, 38400, Note_on_c, 10, 55, 100
12, 38472, Note_on_c, 10, 55, 0
12, 38480, Note_on_c, 10, 52, 100
12, 38552, Note_on_c, 10, 52, 0
12, 38560, Note_on_c, 10, 50, 100
12, 38632, Note_on_c, 10, 50, 0
12, 38640, Note_on_c, 10, 49, 100
12, 38712, Note_on_c, 10, 49, 0
12, 38720, Note_on_c, 10, 47, 100
12, 38792, Note_on_c, 10, 47, 0
12, 38800, Note_on_c, 10, 45, 100
12, 38880, Note_on_c, 10, 52, 100
12, 38952, Note_on_c, 10, 52, 0
12, 38960, Note_on_c, 10, 53, 100
12, 39032, Note_on_c, 10, 53, 0
12, 39040, Note_on_c, 10, 55, 100
12, 39096, Note_on_c, 10, 45, 0
12, 39112, Note_on_c, 10, 55, 0
12, 39120, Note_on_c, 10, 57, 100
12, 39192, Note_on_c, 10, 57, 0
12, 39200, Note_on_c, 10, 59, 100
12, 39272, Note_on_c, 10, 59, 0
12, 39280, Note_on_c, 10, 61, 100
12, 39352, Note_on_c, 10, 61, 0
12, 39360, Note_on_c, 10, 62, 100
12, 39360, Note_on_c, 10, 50, 100
12, 39576, Note_on_c, 10, 62, 0
12, 39792, Note_on_c, 10, 50, 0
12, 39840, Note_on_c, 10, 49, 100
12, 40272, Note_on_c, 10, 49, 0
12, 40320, Note_on_c, 10, 50, 100
12, 40536, Note_on_c, 10, 50, 0
12, 40560, Note_on_c, 10, 55, 100
12, 40992, Note_on_c, 10, 55, 0
12, 41040, Note_on_c, 10, 54, 100
12, 41256, Note_on_c, 10, 54, 0
12, 41280, Note_on_c, 10, 55, 100
12, 41496, Note_on_c, 10, 55, 0
12, 41520, Note_on_c, 10, 52, 100
12, 41736, Note_on_c, 10, 52, 0
12, 41760, Note_on_c, 10, 57, 100
12, 41976, Note_on_c, 10, 57, 0
12, 42000, Note_on_c, 10, 45, 100
12, 42216, Note_on_c, 10, 45, 0
12, 42240, Note_on_c, 10, 50, 100
12, 42312, Note_on_c, 10, 50, 0
12, 42320, Note_on_c, 10, 57, 100
12, 42392, Note_on_c, 10, 57, 0
12, 42400, Note_on_c, 10, 55, 100
12, 42472, Note_on_c, 10, 55, 0
12, 42480, Note_on_c, 10, 53, 100
12, 42552, Note_on_c, 10, 53, 0
12, 42560, Note_on_c, 10, 52, 100
12, 42632, Note_on_c, 10, 52, 0
12, 42640, Note_on_c, 10, 50, 100
12, 42712, Note_on_c, 10, 50, 0
12, 42720, Note_on_c, 10, 56, 100
12, 42792, Note_on_c, 10, 56, 0
12, 42800, Note_on_c, 10, 53, 100
12, 42872, Note_on_c, 10, 53, 0
12, 42880, Note_on_c, 10, 52, 100
12, 42952, Note_on_c, 10, 52, 0
12, 42960, Note_on_c, 10, 50, 100
12, 43032, Note_on_c, 10, 50, 0
12, 43040, Note_on_c, 10, 48, 100
12, 43112, Note_on_c, 10, 48, 0
12, 43120, Note_on_c, 10, 47, 100
12, 43192, Note_on_c, 10, 47, 0
12, 43200, Note_on_c, 10, 53, 100
12, 43272, Note_on_c, 10, 53, 0
12, 43280, Note_on_c, 10, 50, 100
12, 43352, Note_on_c, 10, 50, 0
12, 43360, Note_on_c, 10, 48, 100
12, 43432, Note_on_c, 10, 48, 0
12, 43440, Note_on_c, 10, 47, 100
12, 43512, Note_on_c, 10, 47, 0
12, 43520, Note_on_c, 10, 45, 100
12, 43592, Note_on_c, 10, 45, 0
12, 43600, Note_on_c, 10, 43, 100
12, 43680, Note_on_c, 10, 50, 100
12, 43752, Note_on_c, 10, 50, 0
12, 43760, Note_on_c, 10, 52, 100
12, 43788, Note_on_c, 10, 43, 0
12, 43832, Note_on_c, 10, 52, 0
12, 43840, Note_on_c, 10, 53, 100
12, 43912, Note_on_c, 10, 53, 0
12, 43920, Note_on_c, 10, 55, 100
12, 43992, Note_on_c, 10, 55, 0
12, 44000, Note_on_c, 10, 57, 100
12, 44072, Note_on_c, 10, 57, 0
12, 44080, Note_on_c, 10, 59, 100
12, 44152, Note_on_c, 10, 59, 0
12, 44160, Note_on_c, 10, 60, 100
12, 44232, Note_on_c, 10, 60, 0
12, 44240, Note_on_c, 10, 55, 100
12, 44312, Note_on_c, 10, 55, 0
12, 44320, Note_on_c, 10, 52, 100
12, 44392, Note_on_c, 10, 52, 0
12, 44400, Note_on_c, 10, 57, 100
12, 44472, Note_on_c, 10, 57, 0
12, 44480, Note_on_c, 10, 53, 100
12, 44552, Note_on_c, 10, 53, 0
12, 44560, Note_on_c, 10, 48, 100
12, 44632, Note_on_c, 10, 48, 0
12, 44640, Note_on_c, 10, 55, 100
12, 44712, Note_on_c, 10, 55, 0
12, 44720, Note_on_c, 10, 52, 100
12, 44792, Note_on_c, 10, 52, 0
12, 44800, Note_on_c, 10, 48, 100
12, 44872, Note_on_c, 10, 48, 0
12, 44880, Note_on_c, 10, 53, 100
12, 44952, Note_on_c, 10, 53, 0
12, 44960, Note_on_c, 10, 50, 100
12, 45032, Note_on_c, 10, 50, 0
12, 45040, Note_on_c, 10, 43, 100
12, 45112, Note_on_c, 10, 43, 0
12, 45120, Note_on_c, 10, 48, 100
12, 45192, Note_on_c, 10, 48, 0
12, 45200, Note_on_c, 10, 52, 100
12, 45272, Note_on_c, 10, 52, 0
12, 45280, Note_on_c, 10, 55, 100
12, 45352, Note_on_c, 10, 55, 0
12, 45360, Note_on_c, 10, 53, 100
12, 45432, Note_on_c, 10, 53, 0
12, 45440, Note_on_c, 10, 57, 100
12, 45512, Note_on_c, 10, 57, 0
12, 45520, Note_on_c, 10, 60, 100
12, 45592, Note_on_c, 10, 60, 0
12, 45600, Note_on_c, 10, 52, 100
12, 45672, Note_on_c, 10, 52, 0
12, 45680, Note_on_c, 10, 55, 100
12, 45752, Note_on_c, 10, 55, 0
12, 45760, Note_on_c, 10, 60, 100
12, 45832, Note_on_c, 10, 60, 0
12, 45840, Note_on_c, 10, 50, 100
12, 45912, Note_on_c, 10, 50, 0
12, 45920, Note_on_c, 10, 53, 100
12, 45992, Note_on_c, 10, 53, 0
12, 46000, Note_on_c, 10, 59, 100
12, 46072, Note_on_c, 10, 59, 0
12, 46080, Note_on_c, 10, 48, 100
12, 46296, Note_on_c, 10, 48, 0
12, 46320, Note_on_c, 10, 60, 100
12, 46752, Note_on_c, 10, 60, 0
12, 46800, Note_on_c, 10, 59, 100
12, 46872, Note_on_c, 10, 59, 0
12, 46880, Note_on_c, 10, 60, 100
12, 46952, Note_on_c, 10, 60, 0
12, 46960, Note_on_c, 10, 62, 100
12, 47032, Note_on_c, 10, 62, 0
12, 47520, Note_on_c, 10, 55, 100
12, 47592, Note_on_c, 10, 55, 0
12, 47600, Note_on_c, 10, 59, 100
12, 47672, Note_on_c, 10, 59, 0
12, 47680, Note_on_c, 10, 62, 100
12, 47752, Note_on_c, 10, 62, 0
12, 47760, Note_on_c, 10, 54, 100
12, 47832, Note_on_c, 10, 54, 0
12, 47840, Note_on_c, 10, 60, 100
12, 47912, Note_on_c, 10, 60, 0
12, 47920, Note_on_c, 10, 64, 100
12, 47992, Note_on_c, 10, 64, 0
12, 48000, Note_on_c, 10, 55, 100
12, 48072, Note_on_c, 10, 55, 0
12, 48080, Note_on_c, 10, 59, 100
12, 48152, Note_on_c, 10, 59, 0
12, 48160, Note_on_c, 10, 62, 100
12, 48232, Note_on_c, 10, 62, 0
12, 48240, Note_on_c, 10, 50, 100
12, 48312, Note_on_c, 10, 50, 0
12, 48320, Note_on_c, 10, 57, 100
12, 48392, Note_on_c, 10, 57, 0
12, 48400, Note_on_c, 10, 60, 100
12, 48472, Note_on_c, 10, 60, 0
12, 48480, Note_on_c, 10, 62, 100
12, 48480, Note_on_c, 10, 59, 100
12, 48588, Note_on_c, 10, 62, 0
12, 48588, Note_on_c, 10, 59, 0
12, 48720, Note_on_c, 10, 60, 100
12, 48720, Note_on_c, 10, 57, 100
12, 48828, Note_on_c, 10, 60, 0
12, 48828, Note_on_c, 10, 57, 0
12, 48960, Note_on_c, 10, 62, 100
12, 48960, Note_on_c, 10, 59, 100
12, 49068, Note_on_c, 10, 62, 0
12, 49068, Note_on_c, 10, 59, 0
12, 49200, Note_on_c, 10, 57, 100
12, 49200, Note_on_c, 10, 54, 100
12, 49308, Note_on_c, 10, 57, 0
12, 49308, Note_on_c, 10, 54, 0
12, 49440, Note_on_c, 10, 59, 100
12, 49440, Note_on_c, 10, 55, 100
12, 49548, Note_on_c, 10, 59, 0
12, 49548, Note_on_c, 10, 55, 0
12, 49680, Note_on_c, 10, 57, 100
12, 49680, Note_on_c, 10, 54, 100
12, 49788, Note_on_c, 10, 57, 0
12, 49788, Note_on_c, 10, 54, 0
12, 49920, Note_on_c, 10, 59, 100
12, 49920, Note_on_c, 10, 55, 100
12, 50028, Note_on_c, 10, 59, 0
12, 50028, Note_on_c, 10, 55, 0
12, 50160, Note_on_c, 10, 54, 100
12, 50160, Note_on_c, 10, 51, 100
12, 50268, Note_on_c, 10, 54, 0
12, 50268, Note_on_c, 10, 51, 0
12, 50400, Note_on_c, 10, 52, 100
12, 50472, Note_on_c, 10, 52, 0
12, 50480, Note_on_c, 10, 55, 100
12, 50552, Note_on_c, 10, 55, 0
12, 50560, Note_on_c, 10, 59, 100
12, 50632, Note_on_c, 10, 59, 0
12, 50640, Note_on_c, 10, 51, 100
12, 50712, Note_on_c, 10, 51, 0
12, 50720, Note_on_c, 10, 57, 100
12, 50792, Note_on_c, 10, 57, 0
12, 50800, Note_on_c, 10, 60, 100
12, 50872, Note_on_c, 10, 60, 0
12, 50880, Note_on_c, 10, 52, 100
12, 50952, Note_on_c, 10, 52, 0
12, 50960, Note_on_c, 10, 55, 100
12, 51032, Note_on_c, 10, 55, 0
12, 51040, Note_on_c, 10, 59, 100
12, 51112, Note_on_c, 10, 59, 0
12, 51120, Note_on_c, 10, 47, 100
12, 51192, Note_on_c, 10, 47, 0
12, 51200, Note_on_c, 10, 54, 100
12, 51272, Note_on_c, 10, 54, 0
12, 51280, Note_on_c, 10, 57, 100
12, 51352, Note_on_c, 10, 57, 0
12, 51360, Note_on_c, 10, 59, 100
12, 51360, Note_on_c, 10, 55, 100
12, 51468, Note_on_c, 10, 59, 0
12, 51468, Note_on_c, 10, 55, 0
12, 51600, Note_on_c, 10, 60, 100
12, 51600, Note_on_c, 10, 57, 100
12, 51708, Note_on_c, 10, 60, 0
12, 51708, Note_on_c, 10, 57, 0
12, 51840, Note_on_c, 10, 59, 100
12, 51840, Note_on_c, 10, 59, 100
12, 51948, Note_on_c, 10, 59, 0
12, 51948, Note_on_c, 10, 59, 0
12, 52080, Note_on_c, 10, 59, 100
12, 52242, Note_on_c, 10, 59, 0
12, 52260, Note_on_c, 10, 54, 100
12, 52314, Note_on_c, 10, 54, 0
12, 52320, Note_on_c, 10, 59, 100
12, 52320, Note_on_c, 10, 55, 100
12, 52392, Note_on_c, 10, 59, 0
12, 52400, Note_on_c, 10, 57, 100
12, 52472, Note_on_c, 10, 57, 0
12, 52480, Note_on_c, 10, 59, 100
12, 52552, Note_on_c, 10, 59, 0
12, 52560, Note_on_c, 10, 60, 100
12, 52632, Note_on_c, 10, 55, 0
12, 52640, Note_on_c, 10, 54, 100
12, 52712, Note_on_c, 10, 54, 0
12, 52720, Note_on_c, 10, 52, 100
12, 52792, Note_on_c, 10, 52, 0
12, 52800, Note_on_c, 10, 54, 100
12, 52872, Note_on_c, 10, 60, 0
12, 52880, Note_on_c, 10, 59, 100
12, 52952, Note_on_c, 10, 59, 0
12, 52960, Note_on_c, 10, 57, 100
12, 53032, Note_on_c, 10, 57, 0
12, 53040, Note_on_c, 10, 59, 100
12, 53112, Note_on_c, 10, 54, 0
12, 53120, Note_on_c, 10, 52, 100
12, 53192, Note_on_c, 10, 52, 0
12, 53200, Note_on_c, 10, 50, 100
12, 53272, Note_on_c, 10, 50, 0
12, 53280, Note_on_c, 10, 52, 100
12, 53352, Note_on_c, 10, 59, 0
12, 53360, Note_on_c, 10, 57, 100
12, 53432, Note_on_c, 10, 57, 0
12, 53440, Note_on_c, 10, 55, 100
12, 53512, Note_on_c, 10, 55, 0
12, 53520, Note_on_c, 10, 57, 100
12, 53592, Note_on_c, 10, 52, 0
12, 53600, Note_on_c, 10, 51, 100
12, 53672, Note_on_c, 10, 51, 0
12, 53680, Note_on_c, 10, 49, 100
12, 53752, Note_on_c, 10, 49, 0
12, 53760, Note_on_c, 10, 51, 100
12, 53832, Note_on_c, 10, 51, 0
12, 53840, Note_on_c, 10, 47, 100
12, 53868, Note_on_c, 10, 57, 0
12, 53912, Note_on_c, 10, 47, 0
12, 53920, Note_on_c, 10, 51, 100
12, 53992, Note_on_c, 10, 51, 0
12, 54000, Note_on_c, 10, 54, 100
12, 54072, Note_on_c, 10, 54, 0
12, 54080, Note_on_c, 10, 51, 100
12, 54152, Note_on_c, 10, 51, 0
12, 54160, Note_on_c, 10, 54, 100
12, 54232, Note_on_c, 10, 54, 0
12, 54240, Note_on_c, 10, 55, 100
12, 54312, Note_on_c, 10, 55, 0
12, 54320, Note_on_c, 10, 59, 100
12, 54392, Note_on_c, 10, 59, 0
12, 54400, Note_on_c, 10, 57, 100
12, 54472, Note_on_c, 10, 57, 0
12, 54480, Note_on_c, 10, 59, 100
12, 54552, Note_on_c, 10, 59, 0
12, 54560, Note_on_c, 10, 57, 100
12, 54632, Note_on_c, 10, 57, 0
12, 54640, Note_on_c, 10, 55, 100
12, 54712, Note_on_c, 10, 55, 0
12, 54720, Note_on_c, 10, 54, 100
12, 54792, Note_on_c, 10, 54, 0
12, 54800, Note_on_c, 10, 57, 100
12, 54872, Note_on_c, 10, 57, 0
12, 54880, Note_on_c, 10, 55, 100
12, 54952, Note_on_c, 10, 55, 0
12, 54960, Note_on_c, 10, 57, 100
12, 55032, Note_on_c, 10, 57, 0
12, 55040, Note_on_c, 10, 55, 100
12, 55112, Note_on_c, 10, 55, 0
12, 55120, Note_on_c, 10, 54, 100
12, 55192, Note_on_c, 10, 54, 0
12, 55200, Note_on_c, 10, 52, 100
12, 55272, Note_on_c, 10, 52, 0
12, 55280, Note_on_c, 10, 54, 100
12, 55352, Note_on_c, 10, 54, 0
12, 55360, Note_on_c, 10, 55, 100
12, 55432, Note_on_c, 10, 55, 0
12, 55440, Note_on_c, 10, 57, 100
12, 55512, Note_on_c, 10, 57, 0
12, 55520, Note_on_c, 10, 59, 100
12, 55592, Note_on_c, 10, 59, 0
12, 55600, Note_on_c, 10, 57, 100
12, 55672, Note_on_c, 10, 57, 0
12, 55680, Note_on_c, 10, 56, 100
12, 55896, Note_on_c, 10, 56, 0
12, 56160, Note_on_c, 10, 57, 100
12, 56376, Note_on_c, 10, 57, 0
12, 56640, Note_on_c, 10, 50, 100
12, 56748, Note_on_c, 10, 50, 0
12, 56880, Note_on_c, 10, 47, 100
12, 56988, Note_on_c, 10, 47, 0
12, 57120, Note_on_c, 10, 48, 100
12, 57228, Note_on_c, 10, 48, 0
12, 57360, Note_on_c, 10, 45, 100
12, 57468, Note_on_c, 10, 45, 0
12, 57600, Note_on_c, 10, 47, 100
12, 57708, Note_on_c, 10, 47, 0
12, 57840, Note_on_c, 10, 40, 100
12, 57948, Note_on_c, 10, 40, 0
12, 58080, Note_on_c, 10, 45, 100
12, 58296, Note_on_c, 10, 45, 0
12, 58560, Note_on_c, 10, 45, 100
12, 58632, Note_on_c, 10, 45, 0
12, 58640, Note_on_c, 10, 48, 100
12, 58712, Note_on_c, 10, 48, 0
12, 58720, Note_on_c, 10, 52, 100
12, 58792, Note_on_c, 10, 52, 0
12, 58800, Note_on_c, 10, 47, 100
12, 58872, Note_on_c, 10, 47, 0
12, 58880, Note_on_c, 10, 50, 100
12, 58952, Note_on_c, 10, 50, 0
12, 58960, Note_on_c, 10, 56, 100
12, 59032, Note_on_c, 10, 56, 0
12, 59040, Note_on_c, 10, 48, 100
12, 59148, Note_on_c, 10, 48, 0
12, 59520, Note_on_c, 10, 50, 100
12, 59628, Note_on_c, 10, 50, 0
12, 60000, Note_on_c, 10, 52, 100
12, 60108, Note_on_c, 10, 52, 0
12, 60480, Note_on_c, 10, 53, 100
12, 60588, Note_on_c, 10, 53, 0
12, 60960, Note_on_c, 10, 56, 100
12, 61068, Note_on_c, 10, 56, 0
12, 61440, Note_on_c, 10, 57, 100
12, 61548, Note_on_c, 10, 57, 0
12, 61680, Note_on_c, 10, 62, 100
12, 61788, Note_on_c, 10, 62, 0
12, 61920, Note_on_c, 10, 60, 100
12, 62028, Note_on_c, 10, 60, 0
12, 62160, Note_on_c, 10, 59, 100
12, 62268, Note_on_c, 10, 59, 0
12, 62400, Note_on_c, 10, 60, 100
12, 62616, Note_on_c, 10, 60, 0
12, 62640, Note_on_c, 10, 65, 100
12, 63072, Note_on_c, 10, 65, 0
12, 63120, Note_on_c, 10, 64, 100
12, 63576, Note_on_c, 10, 64, 0
12, 63600, Note_on_c, 10, 62, 100
12, 63912, Note_on_c, 10, 62, 0
12, 63920, Note_on_c, 10, 59, 100
12, 63992, Note_on_c, 10, 59, 0
12, 64000, Note_on_c, 10, 56, 100
12, 64072, Note_on_c, 10, 56, 0
12, 64080, Note_on_c, 10, 52, 100
12, 64152, Note_on_c, 10, 52, 0
12, 64160, Note_on_c, 10, 56, 100
12, 64232, Note_on_c, 10, 56, 0
12, 64240, Note_on_c, 10, 59, 100
12, 64312, Note_on_c, 10, 59, 0
12, 64320, Note_on_c, 10, 60, 100
12, 64428, Note_on_c, 10, 60, 0
12, 64560, Note_on_c, 10, 57, 100
12, 64668, Note_on_c, 10, 57, 0
12, 64800, Note_on_c, 10, 55, 100
12, 64908, Note_on_c, 10, 55, 0
12, 65040, Note_on_c, 10, 49, 100
12, 65148, Note_on_c, 10, 49, 0
12, 65280, Note_on_c, 10, 62, 100
12, 65352, Note_on_c, 10, 62, 0
12, 65360, Note_on_c, 10, 65, 100
12, 65432, Note_on_c, 10, 65, 0
12, 65440, Note_on_c, 10, 69, 100
12, 65512, Note_on_c, 10, 69, 0
12, 65520, Note_on_c, 10, 61, 100
12, 65592, Note_on_c, 10, 61, 0
12, 65600, Note_on_c, 10, 67, 100
12, 65672, Note_on_c, 10, 67, 0
12, 65680, Note_on_c, 10, 70, 100
12, 65752, Note_on_c, 10, 70, 0
12, 65760, Note_on_c, 10, 62, 100
12, 65832, Note_on_c, 10, 62, 0
12, 65840, Note_on_c, 10, 65, 100
12, 65912, Note_on_c, 10, 65, 0
12, 65920, Note_on_c, 10, 69, 100
12, 65992, Note_on_c, 10, 69, 0
12, 66000, Note_on_c, 10, 57, 100
12, 66072, Note_on_c, 10, 57, 0
12, 66080, Note_on_c, 10, 64, 100
12, 66152, Note_on_c, 10, 64, 0
12, 66160, Note_on_c, 10, 67, 100
12, 66232, Note_on_c, 10, 67, 0
12, 66240, Note_on_c, 10, 62, 100
12, 66312, Note_on_c, 10, 62, 0
12, 66320, Note_on_c, 10, 64, 100
12, 66392, Note_on_c, 10, 64, 0
12, 66400, Note_on_c, 10, 65, 100
12, 66472, Note_on_c, 10, 65, 0
12, 66480, Note_on_c, 10, 67, 100
12, 66552, Note_on_c, 10, 67, 0
12, 66560, Note_on_c, 10, 69, 100
12, 66632, Note_on_c, 10, 69, 0
12, 66640, Note_on_c, 10, 70, 100
12, 66712, Note_on_c, 10, 70, 0
12, 66720, Note_on_c, 10, 60, 100
12, 66792, Note_on_c, 10, 60, 0
12, 66800, Note_on_c, 10, 62, 100
12, 66872, Note_on_c, 10, 62, 0
12, 66880, Note_on_c, 10, 64, 100
12, 66952, Note_on_c, 10, 64, 0
12, 66960, Note_on_c, 10, 65, 100
12, 67032, Note_on_c, 10, 65, 0
12, 67040, Note_on_c, 10, 67, 100
12, 67112, Note_on_c, 10, 67, 0
12, 67120, Note_on_c, 10, 69, 100
12, 67192, Note_on_c, 10, 69, 0
12, 67200, Note_on_c, 10, 59, 100
12, 67272, Note_on_c, 10, 59, 0
12, 67280, Note_on_c, 10, 61, 100
12, 67352, Note_on_c, 10, 61, 0
12, 67360, Note_on_c, 10, 62, 100
12, 67432, Note_on_c, 10, 62, 0
12, 67440, Note_on_c, 10, 64, 100
12, 67512, Note_on_c, 10, 64, 0
12, 67520, Note_on_c, 10, 65, 100
12, 67592, Note_on_c, 10, 65, 0
12, 67600, Note_on_c, 10, 67, 100
12, 67672, Note_on_c, 10, 67, 0
12, 67680, Note_on_c, 10, 57, 100
12, 67752, Note_on_c, 10, 57, 0
12, 67760, Note_on_c, 10, 61, 100
12, 67832, Note_on_c, 10, 61, 0
12, 67840, Note_on_c, 10, 64, 100
12, 67912, Note_on_c, 10, 64, 0
12, 67920, Note_on_c, 10, 67, 100
12, 67992, Note_on_c, 10, 67, 0
12, 68000, Note_on_c, 10, 64, 100
12, 68072, Note_on_c, 10, 64, 0
12, 68080, Note_on_c, 10, 61, 100
12, 68152, Note_on_c, 10, 61, 0
12, 68160, Note_on_c, 10, 57, 100
12, 68232, Note_on_c, 10, 57, 0
12, 68240, Note_on_c, 10, 62, 100
12, 68312, Note_on_c, 10, 62, 0
12, 68320, Note_on_c, 10, 64, 100
12, 68392, Note_on_c, 10, 64, 0
12, 68400, Note_on_c, 10, 65, 100
12, 68472, Note_on_c, 10, 65, 0
12, 68480, Note_on_c, 10, 64, 100
12, 68552, Note_on_c, 10, 64, 0
12, 68560, Note_on_c, 10, 62, 100
12, 68632, Note_on_c, 10, 62, 0
12, 68640, Note_on_c, 10, 68, 100
12, 68712, Note_on_c, 10, 68, 0
12, 68720, Note_on_c, 10, 65, 100
12, 68792, Note_on_c, 10, 65, 0
12, 68800, Note_on_c, 10, 64, 100
12, 68872, Note_on_c, 10, 64, 0
12, 68880, Note_on_c, 10, 62, 100
12, 68952, Note_on_c, 10, 62, 0
12, 68960, Note_on_c, 10, 60, 100
12, 69032, Note_on_c, 10, 60, 0
12, 69040, Note_on_c, 10, 59, 100
12, 69112, Note_on_c, 10, 59, 0
12, 69120, Note_on_c, 10, 60, 100
12, 70152, Note_on_c, 10, 60, 0
12, 70160, Note_on_c, 10, 57, 100
12, 70232, Note_on_c, 10, 57, 0
12, 70240, Note_on_c, 10, 55, 100
12, 70312, Note_on_c, 10, 55, 0
12, 70320, Note_on_c, 10, 54, 100
12, 70392, Note_on_c, 10, 54, 0
12, 70400, Note_on_c, 10, 52, 100
12, 70472, Note_on_c, 10, 52, 0
12, 70480, Note_on_c, 10, 51, 100
12, 70552, Note_on_c, 10, 51, 0
12, 70560, Note_on_c, 10, 55, 100
12, 71592, Note_on_c, 10, 55, 0
12, 71600, Note_on_c, 10, 58, 100
12, 71672, Note_on_c, 10, 58, 0
12, 71680, Note_on_c, 10, 57, 100
12, 71752, Note_on_c, 10, 57, 0
12, 71760, Note_on_c, 10, 55, 100
12, 71832, Note_on_c, 10, 55, 0
12, 71840, Note_on_c, 10, 53, 100
12, 71912, Note_on_c, 10, 53, 0
12, 71920, Note_on_c, 10, 52, 100
12, 71992, Note_on_c, 10, 52, 0
12, 72000, Note_on_c, 10, 61, 100
12, 73032, Note_on_c, 10, 61, 0
12, 73040, Note_on_c, 10, 64, 100
12, 73112, Note_on_c, 10, 64, 0
12, 73120, Note_on_c, 10, 62, 100
12, 73192, Note_on_c, 10, 62, 0
12, 73200, Note_on_c, 10, 61, 100
12, 73272, Note_on_c, 10, 61, 0
12, 73280, Note_on_c, 10, 59, 100
12, 73352, Note_on_c, 10, 59, 0
12, 73360, Note_on_c, 10, 57, 100
12, 73432, Note_on_c, 10, 57, 0
12, 73440, Note_on_c, 10, 62, 100
12, 73992, Note_on_c, 10, 62, 0
12, 74000, Note_on_c, 10, 64, 100
12, 74072, Note_on_c, 10, 64, 0
12, 74080, Note_on_c, 10, 62, 100
12, 74152, Note_on_c, 10, 62, 0
12, 74160, Note_on_c, 10, 60, 100
12, 74232, Note_on_c, 10, 60, 0
12, 74240, Note_on_c, 10, 59, 100
12, 74312, Note_on_c, 10, 59, 0
12, 74320, Note_on_c, 10, 57, 100
12, 74392, Note_on_c, 10, 57, 0
12, 74400, Note_on_c, 10, 65, 100
12, 74832, Note_on_c, 10, 65, 0
12, 74880, Note_on_c, 10, 64, 100
12, 74952, Note_on_c, 10, 64, 0
12, 74960, Note_on_c, 10, 65, 100
12, 75032, Note_on_c, 10, 65, 0
12, 75040, Note_on_c, 10, 64, 100
12, 75112, Note_on_c, 10, 64, 0
12, 75120, Note_on_c, 10, 62, 100
12, 75192, Note_on_c, 10, 62, 0
12, 75200, Note_on_c, 10, 60, 100
12, 75272, Note_on_c, 10, 60, 0
12, 75280, Note_on_c, 10, 59, 100
12, 75352, Note_on_c, 10, 59, 0
12, 75360, Note_on_c, 10, 60, 100
12, 75432, Note_on_c, 10, 60, 0
12, 75440, Note_on_c, 10, 62, 100
12, 75512, Note_on_c, 10, 62, 0
12, 75520, Note_on_c, 10, 60, 100
12, 75592, Note_on_c, 10, 60, 0
12, 75600, Note_on_c, 10, 59, 100
12, 75672, Note_on_c, 10, 59, 0
12, 75680, Note_on_c, 10, 57, 100
12, 75752, Note_on_c, 10, 57, 0
12, 75760, Note_on_c, 10, 55, 100
12, 75832, Note_on_c, 10, 55, 0
12, 75840, Note_on_c, 10, 57, 100
12, 75912, Note_on_c, 10, 57, 0
12, 75920, Note_on_c, 10, 59, 100
12, 75992, Note_on_c, 10, 59, 0
12, 76000, Note_on_c, 10, 57, 100
12, 76072, Note_on_c, 10, 57, 0
12, 76080, Note_on_c, 10, 55, 100
12, 76152, Note_on_c, 10, 55, 0
12, 76160, Note_on_c, 10, 53, 100
12, 76232, Note_on_c, 10, 53, 0
12, 76240, Note_on_c, 10, 52, 100
12, 76312, Note_on_c, 10, 52, 0
12, 76320, Note_on_c, 10, 53, 100
12, 76392, Note_on_c, 10, 53, 0
12, 76400, Note_on_c, 10, 55, 100
12, 76472, Note_on_c, 10, 55, 0
12, 76480, Note_on_c, 10, 53, 100
12, 76552, Note_on_c, 10, 53, 0
12, 76560, Note_on_c, 10, 52, 100
12, 76632, Note_on_c, 10, 52, 0
12, 76640, Note_on_c, 10, 50, 100
12, 76712, Note_on_c, 10, 50, 0
12, 76720, Note_on_c, 10, 48, 100
12, 76792, Note_on_c, 10, 48, 0
12, 76800, Note_on_c, 10, 50, 100
12, 76872, Note_on_c, 10, 50, 0
12, 76880, Note_on_c, 10, 52, 100
12, 76952, Note_on_c, 10, 52, 0
12, 76960, Note_on_c, 10, 50, 100
12, 77032, Note_on_c, 10, 50, 0
12, 77040, Note_on_c, 10, 48, 100
12, 77112, Note_on_c, 10, 48, 0
12, 77120, Note_on_c, 10, 47, 100
12, 77192, Note_on_c, 10, 47, 0
12, 77200, Note_on_c, 10, 45, 100
12, 77272, Note_on_c, 10, 45, 0
12, 77280, Note_on_c, 10, 47, 100
12, 77442, Note_on_c, 10, 47, 0
12, 77460, Note_on_c, 10, 48, 100
12, 77514, Note_on_c, 10, 48, 0
12, 77520, Note_on_c, 10, 50, 100
12, 77592, Note_on_c, 10, 50, 0
12, 77600, Note_on_c, 10, 52, 100
12, 77672, Note_on_c, 10, 52, 0
12, 77680, Note_on_c, 10, 53, 100
12, 77752, Note_on_c, 10, 53, 0
12, 77760, Note_on_c, 10, 44, 100
12, 77976, Note_on_c, 10, 44, 0
12, 78240, Note_on_c, 10, 56, 100
12, 78312, Note_on_c, 10, 56, 0
12, 78320, Note_on_c, 10, 53, 100
12, 78392, Note_on_c, 10, 53, 0
12, 78400, Note_on_c, 10, 52, 100
12, 78472, Note_on_c, 10, 52, 0
12, 78480, Note_on_c, 10, 50, 100
12, 78552, Note_on_c, 10, 50, 0
12, 78560, Note_on_c, 10, 48, 100
12, 78632, Note_on_c, 10, 48, 0
12, 78640, Note_on_c, 10, 47, 100
12, 78712, Note_on_c, 10, 47, 0
12, 78720, Note_on_c, 10, 45, 100
12, 78936, Note_on_c, 10, 45, 0
12, 79680, Note_on_c, 10, 45, 100
12, 79752, Note_on_c, 10, 45, 0
12, 79760, Note_on_c, 10, 48, 100
12, 79832, Note_on_c, 10, 48, 0
12, 79840, Note_on_c, 10, 52, 100
12, 79912, Note_on_c, 10, 52, 0
12, 79920, Note_on_c, 10, 44, 100
12, 79992, Note_on_c, 10, 44, 0
12, 80000, Note_on_c, 10, 50, 100
12, 80072, Note_on_c, 10, 50, 0
12, 80080, Note_on_c, 10, 53, 100
12, 80152, Note_on_c, 10, 53, 0
12, 80160, Note_on_c, 10, 45, 100
12, 80232, Note_on_c, 10, 45, 0
12, 80240, Note_on_c, 10, 48, 100
12, 80312, Note_on_c, 10, 48, 0
12, 80320, Note_on_c, 10, 52, 100
12, 80392, Note_on_c, 10, 52, 0
12, 80400, Note_on_c, 10, 40, 100
12, 80472, Note_on_c, 10, 40, 0
12, 80480, Note_on_c, 10, 47, 100
12, 80552, Note_on_c, 10, 47, 0
12, 80560, Note_on_c, 10, 50, 100
12, 80632, Note_on_c, 10, 50, 0
12, 80640, Note_on_c, 10, 45, 100
12, 80712, Note_on_c, 10, 45, 0
12, 80720, Note_on_c, 10, 47, 100
12, 80792, Note_on_c, 10, 47, 0
12, 80800, Note_on_c, 10, 48, 100
12, 80872, Note_on_c, 10, 48, 0
12, 80880, Note_on_c, 10, 53, 100
12, 80880, Note_on_c, 10, 50, 100
12, 80952, Note_on_c, 10, 53, 0
12, 80952, Note_on_c, 10, 50, 0
12, 80960, Note_on_c, 10, 55, 100
12, 80960, Note_on_c, 10, 52, 100
12, 81032, Note_on_c, 10, 55, 0
12, 81032, Note_on_c, 10, 52, 0
12, 81040, Note_on_c, 10, 57, 100
12, 81040, Note_on_c, 10, 53, 100
12, 81112, Note_on_c, 10, 57, 0
12, 81112, Note_on_c, 10, 53, 0
12, 81120, Note_on_c, 10, 43, 100
12, 81192, Note_on_c, 10, 43, 0
12, 81200, Note_on_c, 10, 45, 100
12, 81272, Note_on_c, 10, 45, 0
12, 81280, Note_on_c, 10, 47, 100
12, 81352, Note_on_c, 10, 47, 0
12, 81360, Note_on_c, 10, 48, 100
12, 81432, Note_on_c, 10, 48, 0
12, 81440, Note_on_c, 10, 50, 100
12, 81512, Note_on_c, 10, 50, 0
12, 81520, Note_on_c, 10, 52, 100
12, 81592, Note_on_c, 10, 52, 0
12, 81600, Note_on_c, 10, 41, 100
12, 81672, Note_on_c, 10, 41, 0
12, 81680, Note_on_c, 10, 43, 100
12, 81752, Note_on_c, 10, 43, 0
12, 81760, Note_on_c, 10, 45, 100
12, 81832, Note_on_c, 10, 45, 0
12, 81840, Note_on_c, 10, 47, 100
12, 81912, Note_on_c, 10, 47, 0
12, 81920, Note_on_c, 10, 48, 100
12, 81992, Note_on_c, 10, 48, 0
12, 82000, Note_on_c, 10, 50, 100
12, 82072, Note_on_c, 10, 50, 0
12, 82080, Note_on_c, 10, 40, 100
12, 82152, Note_on_c, 10, 40, 0
12, 82160, Note_on_c, 10, 44, 100
12, 82232, Note_on_c, 10, 44, 0
12, 82240, Note_on_c, 10, 47, 100
12, 82312, Note_on_c, 10, 47, 0
12, 82320, Note_on_c, 10, 50, 100
12, 82392, Note_on_c, 10, 50, 0
12, 82400, Note_on_c, 10, 47, 100
12, 82472, Note_on_c, 10, 47, 0
12, 82480, Note_on_c, 10, 44, 100
12, 82552, Note_on_c, 10, 44, 0
12, 82560, Note_on_c, 10, 60, 100
12, 82560, Note_on_c, 10, 40, 100
12, 82632, Note_on_c, 10, 60, 0
12, 82632, Note_on_c, 10, 40, 0
12, 82640, Note_on_c, 10, 64, 100
12, 82640, Note_on_c, 10, 45, 100
12, 82712, Note_on_c, 10, 64, 0
12, 82712, Note_on_c, 10, 45, 0
12, 82720, Note_on_c, 10, 56, 100
12, 82720, Note_on_c, 10, 47, 100
12, 82792, Note_on_c, 10, 56, 0
12, 82792, Note_on_c, 10, 47, 0
12, 82800, Note_on_c, 10, 57, 100
12, 82800, Note_on_c, 10, 48, 100
12, 82872, Note_on_c, 10, 57, 0
12, 82872, Note_on_c, 10, 48, 0
12, 82880, Note_on_c, 10, 59, 100
12, 82880, Note_on_c, 10, 47, 100
12, 82952, Note_on_c, 10, 59, 0
12, 82952, Note_on_c, 10, 47, 0
12, 82960, Note_on_c, 10, 60, 100
12, 82960, Note_on_c, 10, 45, 100
12, 83032, Note_on_c, 10, 60, 0
12, 83032, Note_on_c, 10, 45, 0
12, 83040, Note_on_c, 10, 54, 100
12, 83040, Note_on_c, 10, 51, 100
12, 83112, Note_on_c, 10, 54, 0
12, 83112, Note_on_c, 10, 51, 0
12, 83120, Note_on_c, 10, 57, 100
12, 83120, Note_on_c, 10, 48, 100
12, 83192, Note_on_c, 10, 57, 0
12, 83192, Note_on_c, 10, 48, 0
12, 83200, Note_on_c, 10, 55, 100
12, 83200, Note_on_c, 10, 47, 100
12, 83272, Note_on_c, 10, 55, 0
12, 83272, Note_on_c, 10, 47, 0
12, 83280, Note_on_c, 10, 54, 100
12, 83280, Note_on_c, 10, 45, 100
12, 83352, Note_on_c, 10, 54, 0
12, 83352, Note_on_c, 10, 45, 0
12, 83360, Note_on_c, 10, 52, 100
12, 83360, Note_on_c, 10, 43, 100
12, 83432, Note_on_c, 10, 52, 0
12, 83432, Note_on_c, 10, 43, 0
12, 83440, Note_on_c, 10, 51, 100
12, 83440, Note_on_c, 10, 42, 100
12, 83512, Note_on_c, 10, 51, 0
12, 83512, Note_on_c, 10, 42, 0
12, 83520, Note_on_c, 10, 52, 100
12, 83520, Note_on_c, 10, 43, 100
12, 83592, Note_on_c, 10, 52, 0
12, 83600, Note_on_c, 10, 55, 100
12, 83628, Note_on_c, 10, 43, 0
12, 83672, Note_on_c, 10, 55, 0
12, 83680, Note_on_c, 10, 59, 100
12, 83752, Note_on_c, 10, 59, 0
12, 83760, Note_on_c, 10, 51, 100
12, 83760, Note_on_c, 10, 42, 100
12, 83832, Note_on_c, 10, 51, 0
12, 83840, Note_on_c, 10, 57, 100
12, 83868, Note_on_c, 10, 42, 0
12, 83912, Note_on_c, 10, 57, 0
12, 83920, Note_on_c, 10, 60, 100
12, 83992, Note_on_c, 10, 60, 0
12, 84000, Note_on_c, 10, 52, 100
12, 84000, Note_on_c, 10, 43, 100
12, 84072, Note_on_c, 10, 52, 0
12, 84080, Note_on_c, 10, 55, 100
12, 84108, Note_on_c, 10, 43, 0
12, 84152, Note_on_c, 10, 55, 0
12, 84160, Note_on_c, 10, 59, 100
12, 84232, Note_on_c, 10, 59, 0
12, 84240, Note_on_c, 10, 47, 100
12, 84240, Note_on_c, 10, 39, 100
12, 84312, Note_on_c, 10, 47, 0
12, 84320, Note_on_c, 10, 54, 100
12, 84348, Note_on_c, 10, 39, 0
12, 84392, Note_on_c, 10, 54, 0
12, 84400, Note_on_c, 10, 57, 100
12, 84472, Note_on_c, 10, 57, 0
12, 84480, Note_on_c, 10, 52, 100
12, 84480, Note_on_c, 10, 43, 100
12, 84552, Note_on_c, 10, 52, 0
12, 84552, Note_on_c, 10, 43, 0
12, 84560, Note_on_c, 10, 54, 100
12, 84560, Note_on_c, 10, 42, 100
12, 84632, Note_on_c, 10, 54, 0
12, 84632, Note_on_c, 10, 42, 0
12, 84640, Note_on_c, 10, 55, 100
12, 84640, Note_on_c, 10, 40, 100
12, 84712, Note_on_c, 10, 55, 0
12, 84712, Note_on_c, 10, 40, 0
12, 84720, Note_on_c, 10, 57, 100
12, 84720, Note_on_c, 10, 48, 100
12, 84792, Note_on_c, 10, 57, 0
12, 84800, Note_on_c, 10, 59, 100
12, 84828, Note_on_c, 10, 48, 0
12, 84872, Note_on_c, 10, 59, 0
12, 84880, Note_on_c, 10, 60, 100
12, 84952, Note_on_c, 10, 60, 0
12, 84960, Note_on_c, 10, 50, 100
12, 84960, Note_on_c, 10, 42, 100
12, 85032, Note_on_c, 10, 50, 0
12, 85032, Note_on_c, 10, 42, 0
12, 85040, Note_on_c, 10, 52, 100
12, 85040, Note_on_c, 10, 40, 100
12, 85112, Note_on_c, 10, 52, 0
12, 85112, Note_on_c, 10, 40, 0
12, 85120, Note_on_c, 10, 54, 100
12, 85120, Note_on_c, 10, 38, 100
12, 85192, Note_on_c, 10, 54, 0
12, 85192, Note_on_c, 10, 38, 0
12, 85200, Note_on_c, 10, 55, 100
12, 85200, Note_on_c, 10, 47, 100
12, 85272, Note_on_c, 10, 55, 0
12, 85280, Note_on_c, 10, 57, 100
12, 85308, Note_on_c, 10, 47, 0
12, 85352, Note_on_c, 10, 57, 0
12, 85360, Note_on_c, 10, 59, 100
12, 85432, Note_on_c, 10, 59, 0
12, 85440, Note_on_c, 10, 48, 100
12, 85440, Note_on_c, 10, 40, 100
12, 85512, Note_on_c, 10, 48, 0
12, 85512, Note_on_c, 10, 40, 0
12, 85520, Note_on_c, 10, 50, 100
12, 85520, Note_on_c, 10, 38, 100
12, 85592, Note_on_c, 10, 50, 0
12, 85592, Note_on_c, 10, 38, 0
12, 85600, Note_on_c, 10, 52, 100
12, 85600, Note_on_c, 10, 36, 100
12, 85672, Note_on_c, 10, 52, 0
12, 85672, Note_on_c, 10, 36, 0
12, 85680, Note_on_c, 10, 54, 100
12, 85680, Note_on_c, 10, 45, 100
12, 85752, Note_on_c, 10, 54, 0
12, 85760, Note_on_c, 10, 55, 100
12, 85788, Note_on_c, 10, 45, 0
12, 85832, Note_on_c, 10, 55, 0
12, 85840, Note_on_c, 10, 57, 100
12, 85912, Note_on_c, 10, 57, 0
12, 85920, Note_on_c, 10, 47, 100
12, 85920, Note_on_c, 10, 39, 100
12, 85992, Note_on_c, 10, 47, 0
12, 86000, Note_on_c, 10, 51, 100
12, 86072, Note_on_c, 10, 51, 0
12, 86080, Note_on_c, 10, 54, 100
12, 86082, Note_on_c, 10, 39, 0
12, 86100, Note_on_c, 10, 45, 100
12, 86152, Note_on_c, 10, 54, 0
12, 86154, Note_on_c, 10, 45, 0
12, 86160, Note_on_c, 10, 57, 100
12, 86160, Note_on_c, 10, 39, 100
12, 86232, Note_on_c, 10, 57, 0
12, 86240, Note_on_c, 10, 54, 100
12, 86312, Note_on_c, 10, 54, 0
12, 86320, Note_on_c, 10, 51, 100
12, 86322, Note_on_c, 10, 39, 0
12, 86340, Note_on_c, 10, 45, 100
12, 86392, Note_on_c, 10, 51, 0
12, 86394, Note_on_c, 10, 45, 0
12, 86400, Note_on_c, 10, 47, 100
12, 86400, Note_on_c, 10, 40, 100
12, 86472, Note_on_c, 10, 47, 0
12, 86480, Note_on_c, 10, 52, 100
12, 86552, Note_on_c, 10, 52, 0
12, 86560, Note_on_c, 10, 54, 100
12, 86562, Note_on_c, 10, 40, 0
12, 86580, Note_on_c, 10, 45, 100
12, 86632, Note_on_c, 10, 54, 0
12, 86634, Note_on_c, 10, 45, 0
12, 86640, Note_on_c, 10, 55, 100
12, 86640, Note_on_c, 10, 40, 100
12, 86712, Note_on_c, 10, 55, 0
12, 86720, Note_on_c, 10, 54, 100
12, 86792, Note_on_c, 10, 54, 0
12, 86800, Note_on_c, 10, 52, 100
12, 86802, Note_on_c, 10, 40, 0
12, 86820, Note_on_c, 10, 43, 100
12, 86872, Note_on_c, 10, 52, 0
12, 86874, Note_on_c, 10, 43, 0
12, 86880, Note_on_c, 10, 56, 100
12, 86880, Note_on_c, 10, 38, 100
12, 86952, Note_on_c, 10, 56, 0
12, 86952, Note_on_c, 10, 38, 0
12, 86960, Note_on_c, 10, 53, 100
12, 86960, Note_on_c, 10, 50, 100
12, 87032, Note_on_c, 10, 53, 0
12, 87032, Note_on_c, 10, 50, 0
12, 87040, Note_on_c, 10, 52, 100
12, 87040, Note_on_c, 10, 48, 100
12, 87112, Note_on_c, 10, 52, 0
12, 87112, Note_on_c, 10, 48, 0
12, 87120, Note_on_c, 10, 50, 100
12, 87120, Note_on_c, 10, 47, 100
12, 87192, Note_on_c, 10, 50, 0
12, 87192, Note_on_c, 10, 47, 0
12, 87200, Note_on_c, 10, 48, 100
12, 87200, Note_on_c, 10, 45, 100
12, 87272, Note_on_c, 10, 48, 0
12, 87272, Note_on_c, 10, 45, 0
12, 87280, Note_on_c, 10, 47, 100
12, 87280, Note_on_c, 10, 44, 100
12, 87352, Note_on_c, 10, 47, 0
12, 87352, Note_on_c, 10, 44, 0
12, 87360, Note_on_c, 10, 57, 100
12, 87360, Note_on_c, 10, 36, 100
12, 87432, Note_on_c, 10, 57, 0
12, 87440, Note_on_c, 10, 52, 100
12, 87468, Note_on_c, 10, 36, 0
12, 87512, Note_on_c, 10, 52, 0
12, 87520, Note_on_c, 10, 50, 100
12, 87592, Note_on_c, 10, 50, 0
12, 87600, Note_on_c, 10, 48, 100
12, 87672, Note_on_c, 10, 48, 0
12, 87680, Note_on_c, 10, 47, 100
12, 87752, Note_on_c, 10, 47, 0
12, 87760, Note_on_c, 10, 45, 100
12, 87832, Note_on_c, 10, 45, 0
12, 87840, Note_on_c, 10, 58, 100
12, 87840, Note_on_c, 10, 40, 100
12, 87912, Note_on_c, 10, 58, 0
12, 87912, Note_on_c, 10, 40, 0
12, 87920, Note_on_c, 10, 55, 100
12, 87920, Note_on_c, 10, 52, 100
12, 87992, Note_on_c, 10, 55, 0
12, 87992, Note_on_c, 10, 52, 0
12, 88000, Note_on_c, 10, 54, 100
12, 88000, Note_on_c, 10, 50, 100
12, 88072, Note_on_c, 10, 54, 0
12, 88072, Note_on_c, 10, 50, 0
12, 88080, Note_on_c, 10, 52, 100
12, 88080, Note_on_c, 10, 49, 100
12, 88152, Note_on_c, 10, 52, 0
12, 88152, Note_on_c, 10, 49, 0
12, 88160, Note_on_c, 10, 50, 100
12, 88160, Note_on_c, 10, 47, 100
12, 88232, Note_on_c, 10, 50, 0
12, 88232, Note_on_c, 10, 47, 0
12, 88240, Note_on_c, 10, 49, 100
12, 88240, Note_on_c, 10, 46, 100
12, 88312, Note_on_c, 10, 49, 0
12, 88312, Note_on_c, 10, 46, 0
12, 88320, Note_on_c, 10, 59, 100
12, 88320, Note_on_c, 10, 38, 100
12, 88392, Note_on_c, 10, 59, 0
12, 88400, Note_on_c, 10, 54, 100
12, 88428, Note_on_c, 10, 38, 0
12, 88472, Note_on_c, 10, 54, 0
12, 88480, Note_on_c, 10, 52, 100
12, 88552, Note_on_c, 10, 52, 0
12, 88560, Note_on_c, 10, 50, 100
12, 88632, Note_on_c, 10, 50, 0
12, 88640, Note_on_c, 10, 49, 100
12, 88712, Note_on_c, 10, 49, 0
12, 88720, Note_on_c, 10, 47, 100
12, 88792, Note_on_c, 10, 47, 0
12, 88800, Note_on_c, 10, 49, 100
12, 88800, Note_on_c, 10, 40, 100
12, 88872, Note_on_c, 10, 49, 0
12, 88880, Note_on_c, 10, 58, 100
12, 88952, Note_on_c, 10, 58, 0
12, 88960, Note_on_c, 10, 59, 100
12, 89016, Note_on_c, 10, 40, 0
12, 89032, Note_on_c, 10, 59, 0
12, 89040, Note_on_c, 10, 61, 100
12, 89112, Note_on_c, 10, 61, 0
12, 89120, Note_on_c, 10, 62, 100
12, 89192, Note_on_c, 10, 62, 0
12, 89200, Note_on_c, 10, 64, 100
12, 89272, Note_on_c, 10, 64, 0
12, 89280, Note_on_c, 10, 50, 100
12, 89280, Note_on_c, 10, 42, 100
12, 89352, Note_on_c, 10, 50, 0
12, 89360, Note_on_c, 10, 59, 100
12, 89432, Note_on_c, 10, 59, 0
12, 89440, Note_on_c, 10, 61, 100
12, 89496, Note_on_c, 10, 42, 0
12, 89512, Note_on_c, 10, 61, 0
12, 89520, Note_on_c, 10, 62, 100
12, 89592, Note_on_c, 10, 62, 0
12, 89600, Note_on_c, 10, 64, 100
12, 89672, Note_on_c, 10, 64, 0
12, 89680, Note_on_c, 10, 66, 100
12, 89752, Note_on_c, 10, 66, 0
12, 89760, Note_on_c, 10, 52, 100
12, 89760, Note_on_c, 10, 43, 100
12, 89832, Note_on_c, 10, 52, 0
12, 89840, Note_on_c, 10, 61, 100
12, 89912, Note_on_c, 10, 61, 0
12, 89920, Note_on_c, 10, 62, 100
12, 89976, Note_on_c, 10, 43, 0
12, 89992, Note_on_c, 10, 62, 0
12, 90000, Note_on_c, 10, 64, 100
12, 90072, Note_on_c, 10, 64, 0
12, 90080, Note_on_c, 10, 66, 100
12, 90152, Note_on_c, 10, 66, 0
12, 90160, Note_on_c, 10, 67, 100
12, 90232, Note_on_c, 10, 67, 0
12, 90240, Note_on_c, 10, 50, 100
12, 90240, Note_on_c, 10, 42, 100
12, 90348, Note_on_c, 10, 50, 0
12, 90348, Note_on_c, 10, 42, 0
12, 90480, Note_on_c, 10, 49, 100
12, 90480, Note_on_c, 10, 42, 100
12, 90588, Note_on_c, 10, 49, 0
12, 90588, Note_on_c, 10, 42, 0
12, 90720, Note_on_c, 10, 50, 100
12, 90720, Note_on_c, 10, 42, 100
12, 90828, Note_on_c, 10, 50, 0
12, 90828, Note_on_c, 10, 42, 0
12, 90960, Note_on_c, 10, 49, 100
12, 90960, Note_on_c, 10, 42, 100
12, 91068, Note_on_c, 10, 49, 0
12, 91068, Note_on_c, 10, 42, 0
12, 91200, Note_on_c, 10, 47, 100
12, 91308, Note_on_c, 10, 47, 0
12, 91680, Note_on_c, 10, 49, 100
12, 91680, Note_on_c, 10, 45, 100
12, 91752, Note_on_c, 10, 49, 0
12, 91760, Note_on_c, 10, 50, 100
12, 91788, Note_on_c, 10, 45, 0
12, 91832, Note_on_c, 10, 50, 0
12, 91840, Note_on_c, 10, 52, 100
12, 91912, Note_on_c, 10, 52, 0
12, 91920, Note_on_c, 10, 54, 100
12, 91992, Note_on_c, 10, 54, 0
12, 92000, Note_on_c, 10, 55, 100
12, 92072, Note_on_c, 10, 55, 0
12, 92080, Note_on_c, 10, 57, 100
12, 92152, Note_on_c, 10, 57, 0
12, 92160, Note_on_c, 10, 47, 100
12, 92160, Note_on_c, 10, 43, 100
12, 92232, Note_on_c, 10, 47, 0
12, 92240, Note_on_c, 10, 49, 100
12, 92268, Note_on_c, 10, 43, 0
12, 92312, Note_on_c, 10, 49, 0
12, 92320, Note_on_c, 10, 50, 100
12, 92392, Note_on_c, 10, 50, 0
12, 92400, Note_on_c, 10, 52, 100
12, 92472, Note_on_c, 10, 52, 0
12, 92480, Note_on_c, 10, 54, 100
12, 92552, Note_on_c, 10, 54, 0
12, 92560, Note_on_c, 10, 55, 100
12, 92632, Note_on_c, 10, 55, 0
12, 92640, Note_on_c, 10, 46, 100
12, 92640, Note_on_c, 10, 49, 100
12, 92640, Note_on_c, 10, 40, 100
12, 92856, Note_on_c, 10, 46, 0
12, 92856, Note_on_c, 10, 49, 0
12, 92856, Note_on_c, 10, 40, 0
12, 93120, Note_on_c, 10, 42, 100
12, 93120, Note_on_c, 10, 47, 100
12, 93120, Note_on_c, 10, 50, 100
12, 93120, Note_on_c, 10, 38, 100
12, 93336, Note_on_c, 10, 42, 0
12, 93336, Note_on_c, 10, 47, 0
12, 93336, Note_on_c, 10, 50, 0
12, 93336, Note_on_c, 10, 38, 0
12, 93600, Note_on_c, 10, 45, 100
12, 93600, Note_on_c, 10, 54, 100
12, 93600, Note_on_c, 10, 42, 100
12, 93816, Note_on_c, 10, 45, 0
12, 93816, Note_on_c, 10, 54, 0
12, 93816, Note_on_c, 10, 42, 0
12, 94080, Note_on_c, 10, 47, 100
12, 94080, Note_on_c, 10, 52, 100
12, 94080, Note_on_c, 10, 43, 100
12, 94296, Note_on_c, 10, 47, 0
12, 94296, Note_on_c, 10, 52, 0
12, 94296, Note_on_c, 10, 43, 0
12, 94560, Note_on_c, 10, 47, 100
12, 94560, Note_on_c, 10, 53, 100
12, 94560, Note_on_c, 10, 44, 100
12, 94776, Note_on_c, 10, 47, 0
12, 94776, Note_on_c, 10, 53, 0
12, 94776, Note_on_c, 10, 44, 0
12, 95040, Note_on_c, 10, 52, 100
12, 95040, Note_on_c, 10, 40, 100
12, 95256, Note_on_c, 10, 52, 0
12, 95256, Note_on_c, 10, 40, 0
12, 95520, Note_on_c, 10, 52, 100
12, 95520, Note_on_c, 10, 45, 100
12, 95736, Note_on_c, 10, 52, 0
12, 95736, Note_on_c, 10, 45, 0
12, 96000, Note_on_c, 10, 50, 100
12, 96000, Note_on_c, 10, 56, 100
12, 96000, Note_on_c, 10, 47, 100
12, 96216, Note_on_c, 10, 50, 0
12, 96216, Note_on_c, 10, 56, 0
12, 96216, Note_on_c, 10, 47, 0
12, 96480, Note_on_c, 10, 52, 100
12, 96480, Note_on_c, 10, 57, 100
12, 96480, Note_on_c, 10, 48, 100
12, 96696, Note_on_c, 10, 52, 0
12, 96696, Note_on_c, 10, 57, 0
12, 96696, Note_on_c, 10, 48, 0
12, 96960, Note_on_c, 10, 54, 100
12, 96960, Note_on_c, 10, 57, 100
12, 96960, Note_on_c, 10, 47, 100
12, 97176, Note_on_c, 10, 54, 0
12, 97176, Note_on_c, 10, 57, 0
12, 97176, Note_on_c, 10, 47, 0
12, 97440, Note_on_c, 10, 52, 100
12, 97440, Note_on_c, 10, 57, 100
12, 97440, Note_on_c, 10, 48, 100
12, 97656, Note_on_c, 10, 52, 0
12, 97656, Note_on_c, 10, 57, 0
12, 97656, Note_on_c, 10, 48, 0
12, 97920, Note_on_c, 10, 54, 100
12, 97920, Note_on_c, 10, 57, 100
12, 97920, Note_on_c, 10, 51, 100
12, 98136, Note_on_c, 10, 54, 0
12, 98136, Note_on_c, 10, 57, 0
12, 98136, Note_on_c, 10, 51, 0
12, 98400, Note_on_c, 10, 59, 100
12, 98400, Note_on_c, 10, 47, 100
12, 98616, Note_on_c, 10, 59, 0
12, 98616, Note_on_c, 10, 47, 0
12, 98880, Note_on_c, 10, 52, 100
12, 98952, Note_on_c, 10, 52, 0
12, 98960, Note_on_c, 10, 55, 100
12, 99032, Note_on_c, 10, 55, 0
12, 99040, Note_on_c, 10, 59, 100
12, 99112, Note_on_c, 10, 59, 0
12, 99120, Note_on_c, 10, 49, 100
12, 99192, Note_on_c, 10, 49, 0
12, 99200, Note_on_c, 10, 55, 100
12, 99272, Note_on_c, 10, 55, 0
12, 99280, Note_on_c, 10, 58, 100
12, 99352, Note_on_c, 10, 58, 0
12, 99360, Note_on_c, 10, 50, 100
12, 99432, Note_on_c, 10, 50, 0
12, 99440, Note_on_c, 10, 54, 100
12, 99512, Note_on_c, 10, 54, 0
12, 99520, Note_on_c, 10, 57, 100
12, 99592, Note_on_c, 10, 57, 0
12, 99600, Note_on_c, 10, 47, 100
12, 99672, Note_on_c, 10, 47, 0
12, 99680, Note_on_c, 10, 53, 100
12, 99752, Note_on_c, 10, 53, 0
12, 99760, Note_on_c, 10, 56, 100
12, 99832, Note_on_c, 10, 56, 0
12, 99840, Note_on_c, 10, 48, 100
12, 99912, Note_on_c, 10, 48, 0
12, 99920, Note_on_c, 10, 52, 100
12, 99992, Note_on_c, 10, 52, 0
12, 100000, Note_on_c, 10, 55, 100
12, 100072, Note_on_c, 10, 55, 0
12, 100080, Note_on_c, 10, 45, 100
12, 100152, Note_on_c, 10, 45, 0
12, 100160, Note_on_c, 10, 48, 100
12, 100232, Note_on_c, 10, 48, 0
12, 100240, Note_on_c, 10, 54, 100
12, 100312, Note_on_c, 10, 54, 0
12, 100320, Note_on_c, 10, 47, 100
12, 100392, Note_on_c, 10, 47, 0
12, 100400, Note_on_c, 10, 50, 100
12, 100472, Note_on_c, 10, 50, 0
12, 100480, Note_on_c, 10, 53, 100
12, 100552, Note_on_c, 10, 53, 0
12, 100560, Note_on_c, 10, 44, 100
12, 100632, Note_on_c, 10, 44, 0
12, 100640, Note_on_c, 10, 47, 100
12, 100712, Note_on_c, 10, 47, 0
12, 100720, Note_on_c, 10, 52, 100
12, 100792, Note_on_c, 10, 52, 0
12, 100800, Note_on_c, 10, 45, 100
12, 100872, Note_on_c, 10, 45, 0
12, 100880, Note_on_c, 10, 48, 100
12, 100952, Note_on_c, 10, 48, 0
12, 100960, Note_on_c, 10, 52, 100
12, 101032, Note_on_c, 10, 52, 0
12, 101040, Note_on_c, 10, 44, 100
12, 101112, Note_on_c, 10, 44, 0
12, 101120, Note_on_c, 10, 50, 100
12, 101192, Note_on_c, 10, 50, 0
12, 101200, Note_on_c, 10, 53, 100
12, 101272, Note_on_c, 10, 53, 0
12, 101280, Note_on_c, 10, 45, 100
12, 101352, Note_on_c, 10, 45, 0
12, 101360, Note_on_c, 10, 48, 100
12, 101432, Note_on_c, 10, 48, 0
12, 101440, Note_on_c, 10, 52, 100
12, 101512, Note_on_c, 10, 52, 0
12, 101520, Note_on_c, 10, 56, 100
12, 101520, Note_on_c, 10, 40, 100
12, 101592, Note_on_c, 10, 40, 0
12, 101600, Note_on_c, 10, 47, 100
12, 101628, Note_on_c, 10, 56, 0
12, 101672, Note_on_c, 10, 47, 0
12, 101680, Note_on_c, 10, 50, 100
12, 101752, Note_on_c, 10, 50, 0
12, 101760, Note_on_c, 10, 57, 100
12, 101760, Note_on_c, 10, 48, 100
12, 101832, Note_on_c, 10, 57, 0
12, 101840, Note_on_c, 10, 60, 100
12, 101868, Note_on_c, 10, 48, 0
12, 101912, Note_on_c, 10, 60, 0
12, 101920, Note_on_c, 10, 64, 100
12, 101992, Note_on_c, 10, 64, 0
12, 102000, Note_on_c, 10, 56, 100
12, 102000, Note_on_c, 10, 47, 100
12, 102072, Note_on_c, 10, 56, 0
12, 102080, Note_on_c, 10, 62, 100
12, 102108, Note_on_c, 10, 47, 0
12, 102152, Note_on_c, 10, 62, 0
12, 102160, Note_on_c, 10, 65, 100
12, 102232, Note_on_c, 10, 65, 0
12, 102240, Note_on_c, 10, 57, 100
12, 102240, Note_on_c, 10, 48, 100
12, 102312, Note_on_c, 10, 57, 0
12, 102320, Note_on_c, 10, 60, 100
12, 102348, Note_on_c, 10, 48, 0
12, 102392, Note_on_c, 10, 60, 0
12, 102400, Note_on_c, 10, 64, 100
12, 102472, Note_on_c, 10, 64, 0
12, 102480, Note_on_c, 10, 52, 100
12, 102480, Note_on_c, 10, 52, 100
12, 102552, Note_on_c, 10, 52, 0
12, 102552, Note_on_c, 10, 52, 0
12, 102560, Note_on_c, 10, 59, 100
12, 102632, Note_on_c, 10, 59, 0
12, 102640, Note_on_c, 10, 62, 100
12, 102712, Note_on_c, 10, 62, 0
12, 102720, Note_on_c, 10, 60, 100
12, 102720, Note_on_c, 10, 57, 100
12, 102828, Note_on_c, 10, 60, 0
12, 102828, Note_on_c, 10, 57, 0
12, 102960, Note_on_c, 10, 59, 100
12, 102960, Note_on_c, 10, 50, 100
12, 103068, Note_on_c, 10, 59, 0
12, 103068, Note_on_c, 10, 50, 0
12, 103200, Note_on_c, 10, 60, 100
12, 103200, Note_on_c, 10, 48, 100
12, 103308, Note_on_c, 10, 60, 0
12, 103308, Note_on_c, 10, 48, 0
12, 103440, Note_on_c, 10, 56, 100
12, 103440, Note_on_c, 10, 52, 100
12, 103548, Note_on_c, 10, 56, 0
12, 103548, Note_on_c, 10, 52, 0
12, 103680, Note_on_c, 10, 57, 100
12, 103680, Note_on_c, 10, 53, 100
12, 103896, Note_on_c, 10, 57, 0
12, 103992, Note_on_c, 10, 53, 0
12, 104000, Note_on_c, 10, 55, 100
12, 104072, Note_on_c, 10, 55, 0
12, 104080, Note_on_c, 10, 57, 100
12, 104152, Note_on_c, 10, 57, 0
12, 104160, Note_on_c, 10, 47, 100
12, 104232, Note_on_c, 10, 47, 0
12, 104240, Note_on_c, 10, 48, 100
12, 104312, Note_on_c, 10, 48, 0
12, 104320, Note_on_c, 10, 50, 100
12, 104392, Note_on_c, 10, 50, 0
12, 104400, Note_on_c, 10, 52, 100
12, 104472, Note_on_c, 10, 52, 0
12, 104480, Note_on_c, 10, 53, 100
12, 104552, Note_on_c, 10, 53, 0
12, 104560, Note_on_c, 10, 55, 100
12, 104632, Note_on_c, 10, 55, 0
12, 104640, Note_on_c, 10, 57, 100
12, 104712, Note_on_c, 10, 57, 0
12, 104720, Note_on_c, 10, 59, 100
12, 104792, Note_on_c, 10, 59, 0
12, 104800, Note_on_c, 10, 60, 100
12, 104872, Note_on_c, 10, 60, 0
12, 104880, Note_on_c, 10, 62, 100
12, 104952, Note_on_c, 10, 62, 0
12, 104960, Note_on_c, 10, 64, 100
12, 105032, Note_on_c, 10, 64, 0
12, 105040, Note_on_c, 10, 65, 100
12, 105112, Note_on_c, 10, 65, 0
12, 105120, Note_on_c, 10, 56, 100
12, 105228, Note_on_c, 10, 56, 0
12, 105360, Note_on_c, 10, 52, 100
12, 105432, Note_on_c, 10, 52, 0
12, 105440, Note_on_c, 10, 56, 100
12, 105512, Note_on_c, 10, 56, 0
12, 105520, Note_on_c, 10, 59, 100
12, 105592, Note_on_c, 10, 59, 0
12, 105600, Note_on_c, 10, 60, 100
12, 105708, Note_on_c, 10, 60, 0
12, 105840, Note_on_c, 10, 57, 100
12, 105912, Note_on_c, 10, 57, 0
12, 105920, Note_on_c, 10, 55, 100
12, 105992, Note_on_c, 10, 55, 0
12, 106000, Note_on_c, 10, 53, 100
12, 106072, Note_on_c, 10, 53, 0
12, 106080, Note_on_c, 10, 52, 100
12, 106152, Note_on_c, 10, 52, 0
12, 106560, Note_on_c, 10, 53, 100
12, 106668, Note_on_c, 10, 53, 0
12, 107040, Note_on_c, 10, 54, 100
12, 107112, Note_on_c, 10, 54, 0
12, 107520, Note_on_c, 10, 55, 100
12, 107628, Note_on_c, 10, 55, 0
12, 108000, Note_on_c, 10, 56, 100
12, 108072, Note_on_c, 10, 56, 0
12, 108080, Note_on_c, 10, 59, 100
12, 108152, Note_on_c, 10, 59, 0
12, 108160, Note_on_c, 10, 60, 100
12, 108232, Note_on_c, 10, 60, 0
12, 108240, Note_on_c, 10, 62, 100
12, 108312, Note_on_c, 10, 62, 0
12, 108320, Note_on_c, 10, 64, 100
12, 108392, Note_on_c, 10, 64, 0
12, 108400, Note_on_c, 10, 65, 100
12, 108472, Note_on_c, 10, 65, 0
12, 108480, Note_on_c, 10, 60, 100
12, 108552, Note_on_c, 10, 60, 0
12, 108560, Note_on_c, 10, 62, 100
12, 108632, Note_on_c, 10, 62, 0
12, 108640, Note_on_c, 10, 64, 100
12, 108712, Note_on_c, 10, 64, 0
12, 108720, Note_on_c, 10, 53, 100
12, 108792, Note_on_c, 10, 53, 0
12, 108800, Note_on_c, 10, 55, 100
12, 108872, Note_on_c, 10, 55, 0
12, 108880, Note_on_c, 10, 57, 100
12, 108952, Note_on_c, 10, 57, 0
12, 108960, Note_on_c, 10, 59, 100
12, 109032, Note_on_c, 10, 59, 0
12, 109040, Note_on_c, 10, 60, 100
12, 109112, Note_on_c, 10, 60, 0
12, 109120, Note_on_c, 10, 62, 100
12, 109192, Note_on_c, 10, 62, 0
12, 109200, Note_on_c, 10, 52, 100
12, 109272, Note_on_c, 10, 52, 0
12, 109280, Note_on_c, 10, 53, 100
12, 109352, Note_on_c, 10, 53, 0
12, 109360, Note_on_c, 10, 55, 100
12, 109432, Note_on_c, 10, 55, 0
12, 109440, Note_on_c, 10, 57, 100
12, 109512, Note_on_c, 10, 57, 0
12, 109520, Note_on_c, 10, 59, 100
12, 109592, Note_on_c, 10, 59, 0
12, 109600, Note_on_c, 10, 60, 100
12, 109672, Note_on_c, 10, 60, 0
12, 109680, Note_on_c, 10, 50, 100
12, 109752, Note_on_c, 10, 50, 0
12, 109760, Note_on_c, 10, 52, 100
12, 109832, Note_on_c, 10, 52, 0
12, 109840, Note_on_c, 10, 53, 100
12, 109912, Note_on_c, 10, 53, 0
12, 109920, Note_on_c, 10, 55, 100
12, 109992, Note_on_c, 10, 55, 0
12, 110000, Note_on_c, 10, 57, 100
12, 110072, Note_on_c, 10, 57, 0
12, 110080, Note_on_c, 10, 59, 100
12, 110152, Note_on_c, 10, 59, 0
12, 110160, Note_on_c, 10, 48, 100
12, 110232, Note_on_c, 10, 48, 0
12, 110240, Note_on_c, 10, 50, 100
12, 110312, Note_on_c, 10, 50, 0
12, 110320, Note_on_c, 10, 52, 100
12, 110392, Note_on_c, 10, 52, 0
12, 110400, Note_on_c, 10, 45, 100
12, 110400, Note_on_c, 10, 48, 100
12, 110400, Note_on_c, 10, 42, 100
12, 110508, Note_on_c, 10, 45, 0
12, 110508, Note_on_c, 10, 48, 0
12, 110508, Note_on_c, 10, 42, 0
12, 110880, Note_on_c, 10, 48, 100
12, 110880, Note_on_c, 10, 51, 100
12, 110880, Note_on_c, 10, 43, 100
12, 110988, Note_on_c, 10, 48, 0
12, 110988, Note_on_c, 10, 51, 0
12, 110988, Note_on_c, 10, 43, 0
12, 111360, Note_on_c, 10, 47, 100
12, 111360, Note_on_c, 10, 53, 100
12, 111360, Note_on_c, 10, 44, 100
12, 111468, Note_on_c, 10, 47, 0
12, 111468, Note_on_c, 10, 53, 0
12, 111468, Note_on_c, 10, 44, 0
12, 111840, Note_on_c, 10, 48, 100
12, 111840, Note_on_c, 10, 54, 100
12, 111840, Note_on_c, 10, 45, 100
12, 111948, Note_on_c, 10, 48, 0
12, 111948, Note_on_c, 10, 54, 0
12, 111948, Note_on_c, 10, 45, 0
12, 112320, Note_on_c, 10, 50, 100
12, 112320, Note_on_c, 10, 55, 100
12, 112320, Note_on_c, 10, 43, 100
12, 112428, Note_on_c, 10, 50, 0
12, 112428, Note_on_c, 10, 55, 0
12, 112428, Note_on_c, 10, 43, 0
12, 112640, Note_on_c, 10, 45, 100
12, 112712, Note_on_c, 10, 45, 0
12, 112720, Note_on_c, 10, 47, 100
12, 112792, Note_on_c, 10, 47, 0
12, 112800, Note_on_c, 10, 48, 100
12, 112872, Note_on_c, 10, 48, 0
12, 112880, Note_on_c, 10, 50, 100
12, 112952, Note_on_c, 10, 50, 0
12, 112960, Note_on_c, 10, 52, 100
12, 113032, Note_on_c, 10, 52, 0
12, 113040, Note_on_c, 10, 53, 100
12, 113112, Note_on_c, 10, 53, 0
12, 113120, Note_on_c, 10, 55, 100
12, 113192, Note_on_c, 10, 55, 0
12, 113200, Note_on_c, 10, 56, 100
12, 113272, Note_on_c, 10, 56, 0
12, 113280, Note_on_c, 10, 55, 100
12, 113352, Note_on_c, 10, 55, 0
12, 113360, Note_on_c, 10, 59, 100
12, 113432, Note_on_c, 10, 59, 0
12, 113440, Note_on_c, 10, 62, 100
12, 113512, Note_on_c, 10, 62, 0
12, 113520, Note_on_c, 10, 54, 100
12, 113592, Note_on_c, 10, 54, 0
12, 113600, Note_on_c, 10, 60, 100
12, 113672, Note_on_c, 10, 60, 0
12, 113680, Note_on_c, 10, 63, 100
12, 113752, Note_on_c, 10, 63, 0
12, 113760, Note_on_c, 10, 55, 100
12, 113840, Note_on_c, 10, 62, 100
12, 113912, Note_on_c, 10, 62, 0
12, 113920, Note_on_c, 10, 64, 100
12, 113992, Note_on_c, 10, 64, 0
12, 114000, Note_on_c, 10, 65, 100
12, 114072, Note_on_c, 10, 65, 0
12, 114080, Note_on_c, 10, 64, 100
12, 114152, Note_on_c, 10, 64, 0
12, 114160, Note_on_c, 10, 62, 100
12, 114192, Note_on_c, 10, 55, 0
12, 114232, Note_on_c, 10, 62, 0
12, 114240, Note_on_c, 10, 64, 100
12, 114240, Note_on_c, 10, 60, 100
12, 114456, Note_on_c, 10, 64, 0
12, 114456, Note_on_c, 10, 60, 0
12, 114480, Note_on_c, 10, 57, 100
12, 114696, Note_on_c, 10, 57, 0
12, 114720, Note_on_c, 10, 55, 100
12, 114936, Note_on_c, 10, 55, 0
12, 114960, Note_on_c, 10, 53, 100
12, 115176, Note_on_c, 10, 53, 0
12, 115200, Note_on_c, 10, 52, 100
12, 115632, Note_on_c, 10, 52, 0
12, 115680, Note_on_c, 10, 50, 100
12, 116112, Note_on_c, 10, 50, 0
12, 116160, Note_on_c, 10, 48, 100
12, 116592, Note_on_c, 10, 48, 0
12, 116640, Note_on_c, 10, 47, 100
12, 117072, Note_on_c, 10, 47, 0
12, 117120, Note_on_c, 10, 48, 100
12, 117552, Note_on_c, 10, 48, 0
12, 117600, Note_on_c, 10, 50, 100
12, 118032, Note_on_c, 10, 50, 0
12, 118080, Note_on_c, 10, 43, 100
12, 118512, Note_on_c, 10, 43, 0
12, 119280, Note_on_c, 10, 64, 100
12, 119496, Note_on_c, 10, 64, 0
12, 119520, Note_on_c, 10, 54, 100
12, 119736, Note_on_c, 10, 54, 0
12, 119760, Note_on_c, 10, 62, 100
12, 119976, Note_on_c, 10, 62, 0
12, 120000, Note_on_c, 10, 52, 100
12, 120216, Note_on_c, 10, 52, 0
12, 120240, Note_on_c, 10, 60, 100
12, 120456, Note_on_c, 10, 60, 0
12, 120480, Note_on_c, 10, 50, 100
12, 120696, Note_on_c, 10, 50, 0
12, 120720, Note_on_c, 10, 60, 100
12, 120936, Note_on_c, 10, 60, 0
12, 120960, Note_on_c, 10, 59, 100
12, 121176, Note_on_c, 10, 59, 0
12, 121200, Note_on_c, 10, 55, 100
12, 121416, Note_on_c, 10, 55, 0
12, 121440, Note_on_c, 10, 57, 100
12, 121656, Note_on_c, 10, 57, 0
12, 121680, Note_on_c, 10, 59, 100
12, 121896, Note_on_c, 10, 59, 0
12, 121920, Note_on_c, 10, 60, 100
12, 122136, Note_on_c, 10, 60, 0
12, 122160, Note_on_c, 10, 62, 100
12, 122376, Note_on_c, 10, 62, 0
12, 122400, Note_on_c, 10, 60, 100
12, 122616, Note_on_c, 10, 60, 0
12, 122640, Note_on_c, 10, 58, 100
12, 122856, Note_on_c, 10, 58, 0
12, 122880, Note_on_c, 10, 57, 100
12, 123096, Note_on_c, 10, 57, 0
12, 123120, Note_on_c, 10, 53, 100
12, 123336, Note_on_c, 10, 53, 0
12, 123360, Note_on_c, 10, 55, 100
12, 123576, Note_on_c, 10, 55, 0
12, 123600, Note_on_c, 10, 43, 100
12, 123816, Note_on_c, 10, 43, 0
12, 123840, Note_on_c, 10, 48, 100
12, 124056, Note_on_c, 10, 48, 0
12, 124080, Note_on_c, 10, 53, 100
12, 124512, Note_on_c, 10, 53, 0
12, 124560, Note_on_c, 10, 52, 100
12, 125016, Note_on_c, 10, 52, 0
12, 125040, Note_on_c, 10, 50, 100
12, 125148, Note_on_c, 10, 50, 0
12, 125160, Note_on_c, 10, 48, 100
12, 125268, Note_on_c, 10, 48, 0
12, 125280, Note_on_c, 10, 50, 100
12, 125496, Note_on_c, 10, 50, 0
12, 125520, Note_on_c, 10, 55, 100
12, 125736, Note_on_c, 10, 55, 0
12, 125760, Note_on_c, 10, 48, 100
12, 126192, Note_on_c, 10, 48, 0
12, 127200, Note_on_c, 10, 57, 100
12, 127632, Note_on_c, 10, 57, 0
12, 127680, Note_on_c, 10, 50, 100
12, 128112, Note_on_c, 10, 50, 0
12, 129120, Note_on_c, 10, 59, 100
12, 129552, Note_on_c, 10, 59, 0
12, 129600, Note_on_c, 10, 52, 100
12, 130776, Note_on_c, 10, 52, 0
12, 130800, Note_on_c, 10, 60, 100
12, 131016, Note_on_c, 10, 60, 0
12, 131040, Note_on_c, 10, 59, 100
12, 131256, Note_on_c, 10, 59, 0
12, 131280, Note_on_c, 10, 57, 100
12, 131496, Note_on_c, 10, 57, 0
12, 131520, Note_on_c, 10, 55, 100
12, 131952, Note_on_c, 10, 55, 0
12, 132000, Note_on_c, 10, 54, 100
12, 132432, Note_on_c, 10, 54, 0
12, 132480, Note_on_c, 10, 52, 100
12, 132912, Note_on_c, 10, 52, 0
12, 132960, Note_on_c, 10, 51, 100
12, 133392, Note_on_c, 10, 51, 0
12, 133440, Note_on_c, 10, 52, 100
12, 133656, Note_on_c, 10, 52, 0
12, 133680, Note_on_c, 10, 55, 100
12, 133896, Note_on_c, 10, 55, 0
12, 133920, Note_on_c, 10, 59, 100
12, 134136, Note_on_c, 10, 59, 0
12, 134160, Note_on_c, 10, 50, 100
12, 134376, Note_on_c, 10, 50, 0
12, 134400, Note_on_c, 10, 48, 100
12, 134616, Note_on_c, 10, 48, 0
12, 134640, Note_on_c, 10, 52, 100
12, 134856, Note_on_c, 10, 52, 0
12, 134880, Note_on_c, 10, 55, 100
12, 135096, Note_on_c, 10, 55, 0
12, 135120, Note_on_c, 10, 46, 100
12, 135336, Note_on_c, 10, 46, 0
12, 135360, Note_on_c, 10, 45, 100
12, 135576, Note_on_c, 10, 45, 0
12, 135600, Note_on_c, 10, 50, 100
12, 135816, Note_on_c, 10, 50, 0
12, 135840, Note_on_c, 10, 47, 100
12, 136056, Note_on_c, 10, 47, 0
12, 136080, Note_on_c, 10, 43, 100
12, 136296, Note_on_c, 10, 43, 0
12, 136320, Note_on_c, 10, 48, 100
12, 136536, Note_on_c, 10, 48, 0
12, 136560, Note_on_c, 10, 53, 100
12, 136776, Note_on_c, 10, 53, 0
12, 136800, Note_on_c, 10, 55, 100
12, 137016, Note_on_c, 10, 55, 0
12, 137040, Note_on_c, 10, 43, 100
12, 137256, Note_on_c, 10, 43, 0
12, 137280, Note_on_c, 10, 48, 100
12, 137520, Note_on_c, 10, 52, 100
12, 137736, Note_on_c, 10, 52, 0
12, 137760, Note_on_c, 10, 53, 100
12, 137976, Note_on_c, 10, 53, 0
12, 138000, Note_on_c, 10, 50, 100
12, 138216, Note_on_c, 10, 50, 0
12, 138480, Note_on_c, 10, 60, 100
12, 138672, Note_on_c, 10, 48, 0
12, 138720, Note_on_c, 10, 50, 100
12, 138912, Note_on_c, 10, 60, 0
12, 138960, Note_on_c, 10, 59, 100
12, 139152, Note_on_c, 10, 50, 0
12, 139176, Note_on_c, 10, 59, 0
12, 140160, Note_on_c, 10, 57, 100
12, 140232, Note_on_c, 10, 57, 0
12, 140240, Note_on_c, 10, 60, 100
12, 140312, Note_on_c, 10, 60, 0
12, 140320, Note_on_c, 10, 64, 100
12, 140392, Note_on_c, 10, 64, 0
12, 140400, Note_on_c, 10, 56, 100
12, 140472, Note_on_c, 10, 56, 0
12, 140480, Note_on_c, 10, 62, 100
12, 140552, Note_on_c, 10, 62, 0
12, 140560, Note_on_c, 10, 65, 100
12, 140632, Note_on_c, 10, 65, 0
12, 140640, Note_on_c, 10, 57, 100
12, 140712, Note_on_c, 10, 57, 0
12, 140720, Note_on_c, 10, 60, 100
12, 140792, Note_on_c, 10, 60, 0
12, 140800, Note_on_c, 10, 64, 100
12, 140872, Note_on_c, 10, 64, 0
12, 140880, Note_on_c, 10, 52, 100
12, 140952, Note_on_c, 10, 52, 0
12, 140960, Note_on_c, 10, 59, 100
12, 141032, Note_on_c, 10, 59, 0
12, 141040, Note_on_c, 10, 62, 100
12, 141112, Note_on_c, 10, 62, 0
12, 141120, Note_on_c, 10, 53, 100
12, 141192, Note_on_c, 10, 53, 0
12, 141200, Note_on_c, 10, 57, 100
12, 141272, Note_on_c, 10, 57, 0
12, 141280, Note_on_c, 10, 60, 100
12, 141352, Note_on_c, 10, 60, 0
12, 141360, Note_on_c, 10, 52, 100
12, 141432, Note_on_c, 10, 52, 0
12, 141440, Note_on_c, 10, 59, 100
12, 141512, Note_on_c, 10, 59, 0
12, 141520, Note_on_c, 10, 62, 100
12, 141592, Note_on_c, 10, 62, 0
12, 141600, Note_on_c, 10, 53, 100
12, 141672, Note_on_c, 10, 53, 0
12, 141680, Note_on_c, 10, 57, 100
12, 141752, Note_on_c, 10, 57, 0
12, 141760, Note_on_c, 10, 60, 100
12, 141832, Note_on_c, 10, 60, 0
12, 141840, Note_on_c, 10, 49, 100
12, 141912, Note_on_c, 10, 49, 0
12, 141920, Note_on_c, 10, 55, 100
12, 141992, Note_on_c, 10, 55, 0
12, 142000, Note_on_c, 10, 58, 100
12, 142072, Note_on_c, 10, 58, 0
12, 142080, Note_on_c, 10, 50, 100
12, 142152, Note_on_c, 10, 50, 0
12, 142160, Note_on_c, 10, 53, 100
12, 142232, Note_on_c, 10, 53, 0
12, 142240, Note_on_c, 10, 57, 100
12, 142312, Note_on_c, 10, 57, 0
12, 142320, Note_on_c, 10, 49, 100
12, 142392, Note_on_c, 10, 49, 0
12, 142400, Note_on_c, 10, 55, 100
12, 142472, Note_on_c, 10, 55, 0
12, 142480, Note_on_c, 10, 58, 100
12, 142552, Note_on_c, 10, 58, 0
12, 142560, Note_on_c, 10, 50, 100
12, 142632, Note_on_c, 10, 50, 0
12, 142640, Note_on_c, 10, 53, 100
12, 142712, Note_on_c, 10, 53, 0
12, 142720, Note_on_c, 10, 57, 100
12, 142792, Note_on_c, 10, 57, 0
12, 142800, Note_on_c, 10, 45, 100
12, 142872, Note_on_c, 10, 45, 0
12, 142880, Note_on_c, 10, 52, 100
12, 142952, Note_on_c, 10, 52, 0
12, 142960, Note_on_c, 10, 55, 100
12, 143032, Note_on_c, 10, 55, 0
12, 143040, Note_on_c, 10, 53, 100
12, 143148, Note_on_c, 10, 53, 0
12, 143280, Note_on_c, 10, 52, 100
12, 143388, Note_on_c, 10, 52, 0
12, 143520, Note_on_c, 10, 53, 100
12, 143628, Note_on_c, 10, 53, 0
12, 143760, Note_on_c, 10, 49, 100
12, 143868, Note_on_c, 10, 49, 0
12, 144000, Note_on_c, 10, 50, 100
12, 144108, Note_on_c, 10, 50, 0
12, 144240, Note_on_c, 10, 55, 100
12, 144348, Note_on_c, 10, 55, 0
12, 144480, Note_on_c, 10, 53, 100
12, 144588, Note_on_c, 10, 53, 0
12, 144720, Note_on_c, 10, 52, 100
12, 144828, Note_on_c, 10, 52, 0
12, 144960, Note_on_c, 10, 53, 100
12, 145068, Note_on_c, 10, 53, 0
12, 145200, Note_on_c, 10, 58, 100
12, 145308, Note_on_c, 10, 58, 0
12, 145440, Note_on_c, 10, 58, 100
12, 145548, Note_on_c, 10, 58, 0
12, 145680, Note_on_c, 10, 57, 100
12, 145788, Note_on_c, 10, 57, 0
12, 145920, Note_on_c, 10, 57, 100
12, 146028, Note_on_c, 10, 57, 0
12, 146160, Note_on_c, 10, 55, 100
12, 146268, Note_on_c, 10, 55, 0
12, 146400, Note_on_c, 10, 55, 100
12, 146508, Note_on_c, 10, 55, 0
12, 146880, Note_on_c, 10, 53, 100
12, 146988, Note_on_c, 10, 53, 0
12, 147120, Note_on_c, 10, 50, 100
12, 147228, Note_on_c, 10, 50, 0
12, 147360, Note_on_c, 10, 48, 100
12, 147468, Note_on_c, 10, 48, 0
12, 147600, Note_on_c, 10, 54, 100
12, 147708, Note_on_c, 10, 54, 0
12, 147840, Note_on_c, 10, 58, 100
12, 147840, Note_on_c, 10, 55, 100
12, 147912, Note_on_c, 10, 55, 0
12, 147920, Note_on_c, 10, 58, 100
12, 147948, Note_on_c, 10, 58, 0
12, 147948, Note_on_c, 10, 58, 0
12, 148000, Note_on_c, 10, 62, 100
12, 148072, Note_on_c, 10, 62, 0
12, 148080, Note_on_c, 10, 54, 100
12, 148152, Note_on_c, 10, 54, 0
12, 148160, Note_on_c, 10, 60, 100
12, 148232, Note_on_c, 10, 60, 0
12, 148240, Note_on_c, 10, 63, 100
12, 148312, Note_on_c, 10, 63, 0
12, 148320, Note_on_c, 10, 55, 100
12, 148392, Note_on_c, 10, 55, 0
12, 148400, Note_on_c, 10, 58, 100
12, 148472, Note_on_c, 10, 58, 0
12, 148480, Note_on_c, 10, 62, 100
12, 148552, Note_on_c, 10, 62, 0
12, 148560, Note_on_c, 10, 50, 100
12, 148632, Note_on_c, 10, 50, 0
12, 148640, Note_on_c, 10, 57, 100
12, 148712, Note_on_c, 10, 57, 0
12, 148720, Note_on_c, 10, 60, 100
12, 148792, Note_on_c, 10, 60, 0
12, 148800, Note_on_c, 10, 55, 100
12, 148872, Note_on_c, 10, 55, 0
12, 148880, Note_on_c, 10, 57, 100
12, 148952, Note_on_c, 10, 57, 0
12, 148960, Note_on_c, 10, 58, 100
12, 149032, Note_on_c, 10, 58, 0
12, 149040, Note_on_c, 10, 60, 100
12, 149112, Note_on_c, 10, 60, 0
12, 149120, Note_on_c, 10, 62, 100
12, 149192, Note_on_c, 10, 62, 0
12, 149200, Note_on_c, 10, 63, 100
12, 149272, Note_on_c, 10, 63, 0
12, 149280, Note_on_c, 10, 53, 100
12, 149352, Note_on_c, 10, 53, 0
12, 149360, Note_on_c, 10, 55, 100
12, 149432, Note_on_c, 10, 55, 0
12, 149440, Note_on_c, 10, 57, 100
12, 149512, Note_on_c, 10, 57, 0
12, 149520, Note_on_c, 10, 58, 100
12, 149592, Note_on_c, 10, 58, 0
12, 149600, Note_on_c, 10, 60, 100
12, 149672, Note_on_c, 10, 60, 0
12, 149680, Note_on_c, 10, 62, 100
12, 149752, Note_on_c, 10, 62, 0
12, 149760, Note_on_c, 10, 52, 100
12, 149832, Note_on_c, 10, 52, 0
12, 149840, Note_on_c, 10, 54, 100
12, 149912, Note_on_c, 10, 54, 0
12, 149920, Note_on_c, 10, 55, 100
12, 149992, Note_on_c, 10, 55, 0
12, 150000, Note_on_c, 10, 57, 100
12, 150072, Note_on_c, 10, 57, 0
12, 150080, Note_on_c, 10, 58, 100
12, 150152, Note_on_c, 10, 58, 0
12, 150160, Note_on_c, 10, 60, 100
12, 150232, Note_on_c, 10, 60, 0
12, 150240, Note_on_c, 10, 50, 100
12, 150312, Note_on_c, 10, 50, 0
12, 150320, Note_on_c, 10, 54, 100
12, 150392, Note_on_c, 10, 54, 0
12, 150400, Note_on_c, 10, 57, 100
12, 150472, Note_on_c, 10, 57, 0
12, 150480, Note_on_c, 10, 60, 100
12, 150552, Note_on_c, 10, 60, 0
12, 150560, Note_on_c, 10, 57, 100
12, 150632, Note_on_c, 10, 57, 0
12, 150640, Note_on_c, 10, 54, 100
12, 150712, Note_on_c, 10, 54, 0
12, 150720, Note_on_c, 10, 50, 100
12, 150792, Note_on_c, 10, 50, 0
12, 150800, Note_on_c, 10, 55, 100
12, 150872, Note_on_c, 10, 55, 0
12, 150880, Note_on_c, 10, 57, 100
12, 150952, Note_on_c, 10, 57, 0
12, 150960, Note_on_c, 10, 58, 100
12, 151032, Note_on_c, 10, 58, 0
12, 151040, Note_on_c, 10, 57, 100
12, 151112, Note_on_c, 10, 57, 0
12, 151120, Note_on_c, 10, 55, 100
12, 151192, Note_on_c, 10, 55, 0
12, 151200, Note_on_c, 10, 61, 100
12, 151272, Note_on_c, 10, 61, 0
12, 151280, Note_on_c, 10, 58, 100
12, 151352, Note_on_c, 10, 58, 0
12, 151360, Note_on_c, 10, 57, 100
12, 151432, Note_on_c, 10, 57, 0
12, 151440, Note_on_c, 10, 55, 100
12, 151512, Note_on_c, 10, 55, 0
12, 151520, Note_on_c, 10, 53, 100
12, 151592, Note_on_c, 10, 53, 0
12, 151600, Note_on_c, 10, 52, 100
12, 151672, Note_on_c, 10, 52, 0
12, 151680, Note_on_c, 10, 53, 100
12, 152712, Note_on_c, 10, 53, 0
12, 152720, Note_on_c, 10, 50, 100
12, 152792, Note_on_c, 10, 50, 0
12, 152800, Note_on_c, 10, 48, 100
12, 152872, Note_on_c, 10, 48, 0
12, 152880, Note_on_c, 10, 47, 100
12, 152952, Note_on_c, 10, 47, 0
12, 152960, Note_on_c, 10, 45, 100
12, 153032, Note_on_c, 10, 45, 0
12, 153040, Note_on_c, 10, 44, 100
12, 153112, Note_on_c, 10, 44, 0
12, 153120, Note_on_c, 10, 48, 100
12, 154152, Note_on_c, 10, 48, 0
12, 154160, Note_on_c, 10, 51, 100
12, 154232, Note_on_c, 10, 51, 0
12, 154240, Note_on_c, 10, 50, 100
12, 154312, Note_on_c, 10, 50, 0
12, 154320, Note_on_c, 10, 48, 100
12, 154392, Note_on_c, 10, 48, 0
12, 154400, Note_on_c, 10, 46, 100
12, 154472, Note_on_c, 10, 46, 0
12, 154480, Note_on_c, 10, 45, 100
12, 154552, Note_on_c, 10, 45, 0
12, 154560, Note_on_c, 10, 54, 100
12, 155592, Note_on_c, 10, 54, 0
12, 155600, Note_on_c, 10, 57, 100
12, 155672, Note_on_c, 10, 57, 0
12, 155680, Note_on_c, 10, 55, 100
12, 155752, Note_on_c, 10, 55, 0
12, 155760, Note_on_c, 10, 54, 100
12, 155832, Note_on_c, 10, 54, 0
12, 155840, Note_on_c, 10, 52, 100
12, 155912, Note_on_c, 10, 52, 0
12, 155920, Note_on_c, 10, 50, 100
12, 155992, Note_on_c, 10, 50, 0
12, 156000, Note_on_c, 10, 55, 100
12, 156552, Note_on_c, 10, 55, 0
12, 156560, Note_on_c, 10, 57, 100
12, 156632, Note_on_c, 10, 57, 0
12, 156640, Note_on_c, 10, 55, 100
12, 156712, Note_on_c, 10, 55, 0
12, 156720, Note_on_c, 10, 53, 100
12, 156792, Note_on_c, 10, 53, 0
12, 156800, Note_on_c, 10, 52, 100
12, 156872, Note_on_c, 10, 52, 0
12, 156880, Note_on_c, 10, 50, 100
12, 156952, Note_on_c, 10, 50, 0
12, 156960, Note_on_c, 10, 58, 100
12, 157392, Note_on_c, 10, 58, 0
12, 157440, Note_on_c, 10, 57, 100
12, 157512, Note_on_c, 10, 57, 0
12, 157520, Note_on_c, 10, 58, 100
12, 157592, Note_on_c, 10, 58, 0
12, 157600, Note_on_c, 10, 57, 100
12, 157672, Note_on_c, 10, 57, 0
12, 157680, Note_on_c, 10, 55, 100
12, 157752, Note_on_c, 10, 55, 0
12, 157760, Note_on_c, 10, 53, 100
12, 157832, Note_on_c, 10, 53, 0
12, 157840, Note_on_c, 10, 52, 100
12, 157912, Note_on_c, 10, 52, 0
12, 157920, Note_on_c, 10, 53, 100
12, 157992, Note_on_c, 10, 53, 0
12, 158000, Note_on_c, 10, 55, 100
12, 158072, Note_on_c, 10, 55, 0
12, 158080, Note_on_c, 10, 53, 100
12, 158152, Note_on_c, 10, 53, 0
12, 158160, Note_on_c, 10, 52, 100
12, 158232, Note_on_c, 10, 52, 0
12, 158240, Note_on_c, 10, 50, 100
12, 158312, Note_on_c, 10, 50, 0
12, 158320, Note_on_c, 10, 49, 100
12, 158392, Note_on_c, 10, 49, 0
12, 158400, Note_on_c, 10, 50, 100
12, 158562, Note_on_c, 10, 50, 0
12, 158580, Note_on_c, 10, 58, 100
12, 158634, Note_on_c, 10, 58, 0
12, 158640, Note_on_c, 10, 48, 100
12, 158802, Note_on_c, 10, 48, 0
12, 158820, Note_on_c, 10, 57, 100
12, 158874, Note_on_c, 10, 57, 0
12, 158880, Note_on_c, 10, 46, 100
12, 159042, Note_on_c, 10, 46, 0
12, 159060, Note_on_c, 10, 55, 100
12, 159114, Note_on_c, 10, 55, 0
12, 159120, Note_on_c, 10, 45, 100
12, 159282, Note_on_c, 10, 45, 0
12, 159300, Note_on_c, 10, 53, 100
12, 159354, Note_on_c, 10, 53, 0
12, 159360, Note_on_c, 10, 43, 100
12, 159522, Note_on_c, 10, 43, 0
12, 159540, Note_on_c, 10, 52, 100
12, 159594, Note_on_c, 10, 52, 0
12, 159600, Note_on_c, 10, 41, 100
12, 159672, Note_on_c, 10, 41, 0
12, 159680, Note_on_c, 10, 53, 100
12, 159752, Note_on_c, 10, 53, 0
12, 159760, Note_on_c, 10, 57, 100
12, 159832, Note_on_c, 10, 57, 0
12, 159840, Note_on_c, 10, 48, 100
12, 159912, Note_on_c, 10, 48, 0
12, 159920, Note_on_c, 10, 52, 100
12, 159992, Note_on_c, 10, 52, 0
12, 160000, Note_on_c, 10, 53, 100
12, 160072, Note_on_c, 10, 53, 0
12, 160080, Note_on_c, 10, 55, 100
12, 160152, Note_on_c, 10, 55, 0
12, 160160, Note_on_c, 10, 57, 100
12, 160232, Note_on_c, 10, 57, 0
12, 160240, Note_on_c, 10, 58, 100
12, 160312, Note_on_c, 10, 58, 0
12, 160320, Note_on_c, 10, 47, 100
12, 160428, Note_on_c, 10, 47, 0
12, 160800, Note_on_c, 10, 48, 100
12, 160908, Note_on_c, 10, 48, 0
12, 161280, Note_on_c, 10, 49, 100
12, 161388, Note_on_c, 10, 49, 0
12, 161760, Note_on_c, 10, 50, 100
12, 161868, Note_on_c, 10, 50, 0
12, 162240, Note_on_c, 10, 48, 100
12, 162348, Note_on_c, 10, 48, 0
12, 163440, Note_on_c, 10, 55, 100
12, 163512, Note_on_c, 10, 55, 0
12, 163520, Note_on_c, 10, 60, 100
12, 163592, Note_on_c, 10, 60, 0
12, 163600, Note_on_c, 10, 55, 100
12, 163672, Note_on_c, 10, 55, 0
12, 163680, Note_on_c, 10, 52, 100
12, 163752, Note_on_c, 10, 52, 0
12, 163760, Note_on_c, 10, 55, 100
12, 163796, Note_on_c, 10, 55, 0
12, 163800, Note_on_c, 10, 53, 100
12, 163836, Note_on_c, 10, 53, 0
12, 163840, Note_on_c, 10, 52, 100
12, 163876, Note_on_c, 10, 52, 0
12, 163880, Note_on_c, 10, 50, 100
12, 163916, Note_on_c, 10, 50, 0
12, 163920, Note_on_c, 10, 48, 100
12, 163992, Note_on_c, 10, 48, 0
12, 164000, Note_on_c, 10, 52, 100
12, 164036, Note_on_c, 10, 52, 0
12, 164040, Note_on_c, 10, 50, 100
12, 164076, Note_on_c, 10, 50, 0
12, 164080, Note_on_c, 10, 48, 100
12, 164116, Note_on_c, 10, 48, 0
12, 164120, Note_on_c, 10, 46, 100
12, 164156, Note_on_c, 10, 46, 0
12, 164160, Note_on_c, 10, 45, 100
12, 164268, Note_on_c, 10, 45, 0
12, 164400, Note_on_c, 10, 43, 100
12, 164508, Note_on_c, 10, 43, 0
12, 164640, Note_on_c, 10, 45, 100
12, 164748, Note_on_c, 10, 45, 0
12, 164880, Note_on_c, 10, 40, 100
12, 164988, Note_on_c, 10, 40, 0
12, 165120, Note_on_c, 10, 53, 100
12, 165192, Note_on_c, 10, 53, 0
12, 165200, Note_on_c, 10, 57, 100
12, 165272, Note_on_c, 10, 57, 0
12, 165280, Note_on_c, 10, 60, 100
12, 165352, Note_on_c, 10, 60, 0
12, 165360, Note_on_c, 10, 52, 100
12, 165432, Note_on_c, 10, 52, 0
12, 165440, Note_on_c, 10, 58, 100
12, 165512, Note_on_c, 10, 58, 0
12, 165520, Note_on_c, 10, 62, 100
12, 165592, Note_on_c, 10, 62, 0
12, 165600, Note_on_c, 10, 53, 100
12, 165672, Note_on_c, 10, 53, 0
12, 165680, Note_on_c, 10, 57, 100
12, 165752, Note_on_c, 10, 57, 0
12, 165760, Note_on_c, 10, 60, 100
12, 165832, Note_on_c, 10, 60, 0
12, 165840, Note_on_c, 10, 49, 100
12, 165912, Note_on_c, 10, 49, 0
12, 165920, Note_on_c, 10, 55, 100
12, 165992, Note_on_c, 10, 55, 0
12, 166000, Note_on_c, 10, 58, 100
12, 166072, Note_on_c, 10, 58, 0
12, 166080, Note_on_c, 10, 50, 100
12, 166152, Note_on_c, 10, 50, 0
12, 166160, Note_on_c, 10, 53, 100
12, 166232, Note_on_c, 10, 53, 0
12, 166240, Note_on_c, 10, 57, 100
12, 166312, Note_on_c, 10, 57, 0
12, 166320, Note_on_c, 10, 49, 100
12, 166392, Note_on_c, 10, 49, 0
12, 166400, Note_on_c, 10, 55, 100
12, 166472, Note_on_c, 10, 55, 0
12, 166480, Note_on_c, 10, 58, 100
12, 166552, Note_on_c, 10, 58, 0
12, 166560, Note_on_c, 10, 50, 100
12, 166632, Note_on_c, 10, 50, 0
12, 166640, Note_on_c, 10, 53, 100
12, 166712, Note_on_c, 10, 53, 0
12, 166720, Note_on_c, 10, 57, 100
12, 166792, Note_on_c, 10, 57, 0
12, 166800, Note_on_c, 10, 45, 100
12, 166872, Note_on_c, 10, 45, 0
12, 166880, Note_on_c, 10, 52, 100
12, 166952, Note_on_c, 10, 52, 0
12, 166960, Note_on_c, 10, 55, 100
12, 167032, Note_on_c, 10, 55, 0
12, 167040, Note_on_c, 10, 46, 100
12, 167112, Note_on_c, 10, 46, 0
12, 167120, Note_on_c, 10, 50, 100
12, 167192, Note_on_c, 10, 50, 0
12, 167200, Note_on_c, 10, 53, 100
12, 167272, Note_on_c, 10, 53, 0
12, 167280, Note_on_c, 10, 47, 100
12, 167352, Note_on_c, 10, 47, 0
12, 167360, Note_on_c, 10, 50, 100
12, 167432, Note_on_c, 10, 50, 0
12, 167440, Note_on_c, 10, 55, 100
12, 167512, Note_on_c, 10, 55, 0
12, 167520, Note_on_c, 10, 48, 100
12, 167592, Note_on_c, 10, 48, 0
12, 167600, Note_on_c, 10, 52, 100
12, 167672, Note_on_c, 10, 52, 0
12, 167680, Note_on_c, 10, 55, 100
12, 167752, Note_on_c, 10, 55, 0
12, 167760, Note_on_c, 10, 49, 100
12, 167832, Note_on_c, 10, 49, 0
12, 167840, Note_on_c, 10, 52, 100
12, 167912, Note_on_c, 10, 52, 0
12, 167920, Note_on_c, 10, 57, 100
12, 167992, Note_on_c, 10, 57, 0
12, 168000, Note_on_c, 10, 50, 100
12, 168072, Note_on_c, 10, 50, 0
12, 168080, Note_on_c, 10, 53, 100
12, 168152, Note_on_c, 10, 53, 0
12, 168160, Note_on_c, 10, 57, 100
12, 168232, Note_on_c, 10, 57, 0
12, 168240, Note_on_c, 10, 50, 100
12, 168312, Note_on_c, 10, 50, 0
12, 168320, Note_on_c, 10, 53, 100
12, 168392, Note_on_c, 10, 53, 0
12, 168400, Note_on_c, 10, 58, 100
12, 168472, Note_on_c, 10, 58, 0
12, 168480, Note_on_c, 10, 52, 100
12, 168552, Note_on_c, 10, 52, 0
12, 168560, Note_on_c, 10, 55, 100
12, 168632, Note_on_c, 10, 55, 0
12, 168640, Note_on_c, 10, 58, 100
12, 168712, Note_on_c, 10, 58, 0
12, 168720, Note_on_c, 10, 52, 100
12, 168792, Note_on_c, 10, 52, 0
12, 168800, Note_on_c, 10, 55, 100
12, 168872, Note_on_c, 10, 55, 0
12, 168880, Note_on_c, 10, 61, 100
12, 168952, Note_on_c, 10, 61, 0
12, 168960, Note_on_c, 10, 53, 100
12, 169032, Note_on_c, 10, 53, 0
12, 169040, Note_on_c, 10, 57, 100
12, 169112, Note_on_c, 10, 57, 0
12, 169120, Note_on_c, 10, 62, 100
12, 169192, Note_on_c, 10, 62, 0
12, 169200, Note_on_c, 10, 54, 100
12, 169272, Note_on_c, 10, 54, 0
12, 169280, Note_on_c, 10, 57, 100
12, 169352, Note_on_c, 10, 57, 0
12, 169360, Note_on_c, 10, 62, 100
12, 169432, Note_on_c, 10, 62, 0
12, 169440, Note_on_c, 10, 55, 100
12, 169548, Note_on_c, 10, 55, 0
12, 169920, Note_on_c, 10, 53, 100
12, 170028, Note_on_c, 10, 53, 0
12, 170400, Note_on_c, 10, 52, 100
12, 170508, Note_on_c, 10, 52, 0
12, 170640, Note_on_c, 10, 57, 100
12, 170748, Note_on_c, 10, 57, 0
12, 170880, Note_on_c, 10, 50, 100
12, 170952, Note_on_c, 10, 50, 0
12, 170960, Note_on_c, 10, 52, 100
12, 171032, Note_on_c, 10, 52, 0
12, 171040, Note_on_c, 10, 53, 100
12, 171112, Note_on_c, 10, 53, 0
12, 171120, Note_on_c, 10, 56, 100
12, 171192, Note_on_c, 10, 56, 0
12, 171200, Note_on_c, 10, 52, 100
12, 171272, Note_on_c, 10, 52, 0
12, 171280, Note_on_c, 10, 50, 100
12, 171352, Note_on_c, 10, 50, 0
12, 171360, Note_on_c, 10, 48, 100
12, 171468, Note_on_c, 10, 48, 0
12, 171600, Note_on_c, 10, 60, 100
12, 171912, Note_on_c, 10, 60, 0
12, 171920, Note_on_c, 10, 62, 100
12, 171992, Note_on_c, 10, 62, 0
12, 172000, Note_on_c, 10, 64, 100
12, 172072, Note_on_c, 10, 64, 0
12, 172080, Note_on_c, 10, 65, 100
12, 172152, Note_on_c, 10, 65, 0
12, 172160, Note_on_c, 10, 62, 100
12, 172232, Note_on_c, 10, 62, 0
12, 172240, Note_on_c, 10, 60, 100
12, 172312, Note_on_c, 10, 60, 0
12, 172320, Note_on_c, 10, 59, 100
12, 172392, Note_on_c, 10, 59, 0
12, 172400, Note_on_c, 10, 60, 100
12, 172472, Note_on_c, 10, 60, 0
12, 172480, Note_on_c, 10, 62, 100
12, 172552, Note_on_c, 10, 62, 0
12, 172560, Note_on_c, 10, 64, 100
12, 172632, Note_on_c, 10, 64, 0
12, 172640, Note_on_c, 10, 60, 100
12, 172712, Note_on_c, 10, 60, 0
12, 172720, Note_on_c, 10, 59, 100
12, 172792, Note_on_c, 10, 59, 0
12, 172800, Note_on_c, 10, 57, 100
12, 172872, Note_on_c, 10, 57, 0
12, 172880, Note_on_c, 10, 59, 100
12, 172952, Note_on_c, 10, 59, 0
12, 172960, Note_on_c, 10, 60, 100
12, 173032, Note_on_c, 10, 60, 0
12, 173040, Note_on_c, 10, 62, 100
12, 173112, Note_on_c, 10, 62, 0
12, 173120, Note_on_c, 10, 59, 100
12, 173192, Note_on_c, 10, 59, 0
12, 173200, Note_on_c, 10, 57, 100
12, 173272, Note_on_c, 10, 57, 0
12, 173280, Note_on_c, 10, 56, 100
12, 173352, Note_on_c, 10, 56, 0
12, 173360, Note_on_c, 10, 59, 100
12, 173432, Note_on_c, 10, 59, 0
12, 173440, Note_on_c, 10, 62, 100
12, 173512, Note_on_c, 10, 62, 0
12, 173520, Note_on_c, 10, 65, 100
12, 173592, Note_on_c, 10, 65, 0
12, 173600, Note_on_c, 10, 62, 100
12, 173672, Note_on_c, 10, 62, 0
12, 173680, Note_on_c, 10, 59, 100
12, 173752, Note_on_c, 10, 59, 0
12, 173760, Note_on_c, 10, 56, 100
12, 173832, Note_on_c, 10, 56, 0
12, 173840, Note_on_c, 10, 59, 100
12, 173876, Note_on_c, 10, 59, 0
12, 173880, Note_on_c, 10, 57, 100
12, 173916, Note_on_c, 10, 57, 0
12, 173920, Note_on_c, 10, 56, 100
12, 173956, Note_on_c, 10, 56, 0
12, 173960, Note_on_c, 10, 54, 100
12, 173996, Note_on_c, 10, 54, 0
12, 174000, Note_on_c, 10, 52, 100
12, 174072, Note_on_c, 10, 52, 0
12, 174080, Note_on_c, 10, 56, 100
12, 174116, Note_on_c, 10, 56, 0
12, 174120, Note_on_c, 10, 54, 100
12, 174156, Note_on_c, 10, 54, 0
12, 174160, Note_on_c, 10, 52, 100
12, 174196, Note_on_c, 10, 52, 0
12, 174200, Note_on_c, 10, 50, 100
12, 174236, Note_on_c, 10, 50, 0
12, 174240, Note_on_c, 10, 48, 100
12, 174792, Note_on_c, 10, 48, 0
12, 174800, Note_on_c, 10, 50, 100
12, 174872, Note_on_c, 10, 50, 0
12, 174880, Note_on_c, 10, 52, 100
12, 174952, Note_on_c, 10, 52, 0
12, 174960, Note_on_c, 10, 53, 100
12, 175032, Note_on_c, 10, 53, 0
12, 175040, Note_on_c, 10, 55, 100
12, 175112, Note_on_c, 10, 55, 0
12, 175120, Note_on_c, 10, 57, 100
12, 175192, Note_on_c, 10, 57, 0
12, 175200, Note_on_c, 10, 59, 100
12, 175272, Note_on_c, 10, 59, 0
12, 175280, Note_on_c, 10, 60, 100
12, 175352, Note_on_c, 10, 60, 0
12, 175360, Note_on_c, 10, 62, 100
12, 175432, Note_on_c, 10, 62, 0
12, 178560, Note_on_c, 10, 60, 100
12, 178632, Note_on_c, 10, 60, 0
12, 178640, Note_on_c, 10, 62, 100
12, 178712, Note_on_c, 10, 62, 0
12, 178720, Note_on_c, 10, 64, 100
12, 178792, Note_on_c, 10, 64, 0
12, 178800, Note_on_c, 10, 57, 100
12, 178872, Note_on_c, 10, 57, 0
12, 178880, Note_on_c, 10, 59, 100
12, 178952, Note_on_c, 10, 59, 0
12, 178960, Note_on_c, 10, 60, 100
12, 179032, Note_on_c, 10, 60, 0
12, 179040, Note_on_c, 10, 53, 100
12, 179112, Note_on_c, 10, 53, 0
12, 179120, Note_on_c, 10, 55, 100
12, 179192, Note_on_c, 10, 55, 0
12, 179200, Note_on_c, 10, 57, 100
12, 179272, Note_on_c, 10, 57, 0
12, 179280, Note_on_c, 10, 50, 100
12, 179352, Note_on_c, 10, 50, 0
12, 179360, Note_on_c, 10, 52, 100
12, 179432, Note_on_c, 10, 52, 0
12, 179440, Note_on_c, 10, 53, 100
12, 179512, Note_on_c, 10, 53, 0
12, 179520, Note_on_c, 10, 46, 100
12, 179832, Note_on_c, 10, 46, 0
12, 179840, Note_on_c, 10, 53, 100
12, 179912, Note_on_c, 10, 53, 0
12, 179920, Note_on_c, 10, 50, 100
12, 179992, Note_on_c, 10, 50, 0
12, 180000, Note_on_c, 10, 46, 100
12, 180312, Note_on_c, 10, 46, 0
12, 180320, Note_on_c, 10, 53, 100
12, 180392, Note_on_c, 10, 53, 0
12, 180400, Note_on_c, 10, 50, 100
12, 180472, Note_on_c, 10, 50, 0
12, 180480, Note_on_c, 10, 46, 100
12, 180792, Note_on_c, 10, 46, 0
12, 180800, Note_on_c, 10, 53, 100
12, 180872, Note_on_c, 10, 53, 0
12, 180880, Note_on_c, 10, 50, 100
12, 180952, Note_on_c, 10, 50, 0
12, 180960, Note_on_c, 10, 46, 100
12, 181272, Note_on_c, 10, 46, 0
12, 181280, Note_on_c, 10, 53, 100
12, 181352, Note_on_c, 10, 53, 0
12, 181360, Note_on_c, 10, 50, 100
12, 181432, Note_on_c, 10, 50, 0
12, 181440, Note_on_c, 10, 47, 100
12, 181752, Note_on_c, 10, 47, 0
12, 181760, Note_on_c, 10, 53, 100
12, 181832, Note_on_c, 10, 53, 0
12, 181840, Note_on_c, 10, 50, 100
12, 181912, Note_on_c, 10, 50, 0
12, 181920, Note_on_c, 10, 47, 100
12, 182232, Note_on_c, 10, 47, 0
12, 182240, Note_on_c, 10, 53, 100
12, 182312, Note_on_c, 10, 53, 0
12, 182320, Note_on_c, 10, 50, 100
12, 182392, Note_on_c, 10, 50, 0
12, 182400, Note_on_c, 10, 47, 100
12, 182712, Note_on_c, 10, 47, 0
12, 182720, Note_on_c, 10, 53, 100
12, 182792, Note_on_c, 10, 53, 0
12, 182800, Note_on_c, 10, 50, 100
12, 182872, Note_on_c, 10, 50, 0
12, 182880, Note_on_c, 10, 47, 100
12, 183192, Note_on_c, 10, 47, 0
12, 183200, Note_on_c, 10, 53, 100
12, 183272, Note_on_c, 10, 53, 0
12, 183280, Note_on_c, 10, 50, 100
12, 183352, Note_on_c, 10, 50, 0
12, 183360, Note_on_c, 10, 40, 100
12, 184056, Note_on_c, 10, 40, 0
12, 184260, Note_on_c, 10, 40, 100
12, 184314, Note_on_c, 10, 40, 0
12, 184320, Note_on_c, 10, 45, 100
12, 184968, Note_on_c, 10, 45, 0
12, 185220, Note_on_c, 10, 45, 100
12, 185274, Note_on_c, 10, 45, 0
12, 185280, Note_on_c, 10, 38, 100
12, 185352, Note_on_c, 10, 38, 0
12, 185360, Note_on_c, 10, 41, 100
12, 185432, Note_on_c, 10, 41, 0
12, 185440, Note_on_c, 10, 45, 100
12, 185512, Note_on_c, 10, 45, 0
12, 185520, Note_on_c, 10, 50, 100
12, 185592, Note_on_c, 10, 50, 0
12, 185600, Note_on_c, 10, 53, 100
12, 185672, Note_on_c, 10, 53, 0
12, 185680, Note_on_c, 10, 50, 100
12, 185752, Note_on_c, 10, 50, 0
12, 185760, Note_on_c, 10, 38, 100
12, 185832, Note_on_c, 10, 38, 0
12, 185840, Note_on_c, 10, 41, 100
12, 185912, Note_on_c, 10, 41, 0
12, 185920, Note_on_c, 10, 45, 100
12, 185992, Note_on_c, 10, 45, 0
12, 186000, Note_on_c, 10, 50, 100
12, 186072, Note_on_c, 10, 50, 0
12, 186080, Note_on_c, 10, 53, 100
12, 186152, Note_on_c, 10, 53, 0
12, 186160, Note_on_c, 10, 50, 100
12, 186232, Note_on_c, 10, 50, 0
12, 186240, Note_on_c, 10, 38, 100
12, 186312, Note_on_c, 10, 38, 0
12, 186320, Note_on_c, 10, 41, 100
12, 186392, Note_on_c, 10, 41, 0
12, 186400, Note_on_c, 10, 45, 100
12, 186472, Note_on_c, 10, 45, 0
12, 186480, Note_on_c, 10, 50, 100
12, 186552, Note_on_c, 10, 50, 0
12, 186560, Note_on_c, 10, 53, 100
12, 186632, Note_on_c, 10, 53, 0
12, 186640, Note_on_c, 10, 50, 100
12, 186712, Note_on_c, 10, 50, 0
12, 186720, Note_on_c, 10, 44, 100
12, 186828, Note_on_c, 10, 44, 0
12, 187200, Note_on_c, 10, 45, 100
12, 187272, Note_on_c, 10, 45, 0
12, 187280, Note_on_c, 10, 48, 100
12, 187352, Note_on_c, 10, 48, 0
12, 187360, Note_on_c, 10, 52, 100
12, 187432, Note_on_c, 10, 52, 0
12, 187440, Note_on_c, 10, 57, 100
12, 187512, Note_on_c, 10, 57, 0
12, 187520, Note_on_c, 10, 60, 100
12, 187592, Note_on_c, 10, 60, 0
12, 187600, Note_on_c, 10, 57, 100
12, 187672, Note_on_c, 10, 57, 0
12, 187680, Note_on_c, 10, 49, 100
12, 187788, Note_on_c, 10, 49, 0
12, 188160, Note_on_c, 10, 50, 100
12, 188232, Note_on_c, 10, 50, 0
12, 188240, Note_on_c, 10, 53, 100
12, 188312, Note_on_c, 10, 53, 0
12, 188320, Note_on_c, 10, 57, 100
12, 188392, Note_on_c, 10, 57, 0
12, 188400, Note_on_c, 10, 62, 100
12, 188472, Note_on_c, 10, 62, 0
12, 188480, Note_on_c, 10, 65, 100
12, 188552, Note_on_c, 10, 65, 0
12, 188560, Note_on_c, 10, 62, 100
12, 188632, Note_on_c, 10, 62, 0
12, 188640, Note_on_c, 10, 51, 100
12, 188748, Note_on_c, 10, 51, 0
12, 189120, Note_on_c, 10, 52, 100
12, 189192, Note_on_c, 10, 52, 0
12, 189200, Note_on_c, 10, 64, 100
12, 189272, Note_on_c, 10, 64, 0
12, 189280, Note_on_c, 10, 62, 100
12, 189352, Note_on_c, 10, 62, 0
12, 189360, Note_on_c, 10, 60, 100
12, 189432, Note_on_c, 10, 60, 0
12, 189440, Note_on_c, 10, 59, 100
12, 189512, Note_on_c, 10, 59, 0
12, 189520, Note_on_c, 10, 57, 100
12, 189592, Note_on_c, 10, 57, 0
12, 189600, Note_on_c, 10, 64, 100
12, 189708, Note_on_c, 10, 64, 0
12, 189840, Note_on_c, 10, 52, 100
12, 189948, Note_on_c, 10, 52, 0
12, 190080, Note_on_c, 10, 57, 100
12, 190188, Note_on_c, 10, 57, 0
12, 192000, Note_on_c, 10, 60, 100
12, 192108, Note_on_c, 10, 60, 0
12, 192240, Note_on_c, 10, 59, 100
12, 192348, Note_on_c, 10, 59, 0
12, 192480, Note_on_c, 10, 60, 100
12, 192588, Note_on_c, 10, 60, 0
12, 192720, Note_on_c, 10, 56, 100
12, 192828, Note_on_c, 10, 56, 0
12, 192960, Note_on_c, 10, 57, 100
12, 193014, Note_on_c, 10, 57, 0
12, 193020, Note_on_c, 10, 60, 100
12, 193074, Note_on_c, 10, 60, 0
12, 193080, Note_on_c, 10, 64, 100
12, 193134, Note_on_c, 10, 64, 0
12, 193140, Note_on_c, 10, 60, 100
12, 193194, Note_on_c, 10, 60, 0
12, 193200, Note_on_c, 10, 56, 100
12, 193254, Note_on_c, 10, 56, 0
12, 193260, Note_on_c, 10, 62, 100
12, 193314, Note_on_c, 10, 62, 0
12, 193320, Note_on_c, 10, 65, 100
12, 193374, Note_on_c, 10, 65, 0
12, 193380, Note_on_c, 10, 62, 100
12, 193434, Note_on_c, 10, 62, 0
12, 193440, Note_on_c, 10, 57, 100
12, 193494, Note_on_c, 10, 57, 0
12, 193500, Note_on_c, 10, 60, 100
12, 193554, Note_on_c, 10, 60, 0
12, 193560, Note_on_c, 10, 64, 100
12, 193614, Note_on_c, 10, 64, 0
12, 193620, Note_on_c, 10, 60, 100
12, 193674, Note_on_c, 10, 60, 0
12, 193680, Note_on_c, 10, 52, 100
12, 193734, Note_on_c, 10, 52, 0
12, 193740, Note_on_c, 10, 59, 100
12, 193794, Note_on_c, 10, 59, 0
12, 193800, Note_on_c, 10, 62, 100
12, 193854, Note_on_c, 10, 62, 0
12, 193860, Note_on_c, 10, 59, 100
12, 193914, Note_on_c, 10, 59, 0
12, 193920, Note_on_c, 10, 60, 100
12, 194028, Note_on_c, 10, 60, 0
12, 194160, Note_on_c, 10, 50, 100
12, 194214, Note_on_c, 10, 50, 0
12, 194220, Note_on_c, 10, 59, 100
12, 194274, Note_on_c, 10, 59, 0
12, 194280, Note_on_c, 10, 57, 100
12, 194334, Note_on_c, 10, 57, 0
12, 194340, Note_on_c, 10, 56, 100
12, 194394, Note_on_c, 10, 56, 0
12, 194400, Note_on_c, 10, 48, 100
12, 194454, Note_on_c, 10, 48, 0
12, 194460, Note_on_c, 10, 57, 100
12, 194514, Note_on_c, 10, 57, 0
12, 194520, Note_on_c, 10, 56, 100
12, 194574, Note_on_c, 10, 56, 0
12, 194580, Note_on_c, 10, 54, 100
12, 194634, Note_on_c, 10, 54, 0
12, 194640, Note_on_c, 10, 47, 100
12, 194694, Note_on_c, 10, 47, 0
12, 194700, Note_on_c, 10, 56, 100
12, 194754, Note_on_c, 10, 56, 0
12, 194760, Note_on_c, 10, 54, 100
12, 194814, Note_on_c, 10, 54, 0
12, 194820, Note_on_c, 10, 52, 100
12, 194874, Note_on_c, 10, 52, 0
12, 194880, Note_on_c, 10, 57, 100
12, 194934, Note_on_c, 10, 57, 0
12, 194940, Note_on_c, 10, 52, 100
12, 194994, Note_on_c, 10, 52, 0
12, 195000, Note_on_c, 10, 50, 100
12, 195054, Note_on_c, 10, 50, 0
12, 195060, Note_on_c, 10, 48, 100
12, 195114, Note_on_c, 10, 48, 0
12, 195120, Note_on_c, 10, 53, 100
12, 195174, Note_on_c, 10, 53, 0
12, 195180, Note_on_c, 10, 50, 100
12, 195234, Note_on_c, 10, 50, 0
12, 195240, Note_on_c, 10, 48, 100
12, 195294, Note_on_c, 10, 48, 0
12, 195300, Note_on_c, 10, 47, 100
12, 195354, Note_on_c, 10, 47, 0
12, 195360, Note_on_c, 10, 52, 100
12, 195414, Note_on_c, 10, 52, 0
12, 195420, Note_on_c, 10, 48, 100
12, 195474, Note_on_c, 10, 48, 0
12, 195480, Note_on_c, 10, 47, 100
12, 195534, Note_on_c, 10, 47, 0
12, 195540, Note_on_c, 10, 45, 100
12, 195594, Note_on_c, 10, 45, 0
12, 195600, Note_on_c, 10, 50, 100
12, 195654, Note_on_c, 10, 50, 0
12, 195660, Note_on_c, 10, 47, 100
12, 195714, Note_on_c, 10, 47, 0
12, 195720, Note_on_c, 10, 45, 100
12, 195774, Note_on_c, 10, 45, 0
12, 195780, Note_on_c, 10, 44, 100
12, 195834, Note_on_c, 10, 44, 0
12, 195840, Note_on_c, 10, 48, 100
12, 195948, Note_on_c, 10, 48, 0
12, 196080, Note_on_c, 10, 47, 100
12, 196188, Note_on_c, 10, 47, 0
12, 196320, Note_on_c, 10, 48, 100
12, 196428, Note_on_c, 10, 48, 0
12, 196560, Note_on_c, 10, 44, 100
12, 196668, Note_on_c, 10, 44, 0
12, 196800, Note_on_c, 10, 45, 100
12, 196854, Note_on_c, 10, 45, 0
12, 196860, Note_on_c, 10, 52, 100
12, 196914, Note_on_c, 10, 52, 0
12, 196920, Note_on_c, 10, 48, 100
12, 196974, Note_on_c, 10, 48, 0
12, 196980, Note_on_c, 10, 52, 100
12, 197034, Note_on_c, 10, 52, 0
12, 197040, Note_on_c, 10, 44, 100
12, 197094, Note_on_c, 10, 44, 0
12, 197100, Note_on_c, 10, 53, 100
12, 197154, Note_on_c, 10, 53, 0
12, 197160, Note_on_c, 10, 50, 100
12, 197214, Note_on_c, 10, 50, 0
12, 197220, Note_on_c, 10, 53, 100
12, 197274, Note_on_c, 10, 53, 0
12, 197280, Note_on_c, 10, 45, 100
12, 197334, Note_on_c, 10, 45, 0
12, 197340, Note_on_c, 10, 52, 100
12, 197394, Note_on_c, 10, 52, 0
12, 197400, Note_on_c, 10, 48, 100
12, 197454, Note_on_c, 10, 48, 0
12, 197460, Note_on_c, 10, 52, 100
12, 197514, Note_on_c, 10, 52, 0
12, 197520, Note_on_c, 10, 40, 100
12, 197574, Note_on_c, 10, 40, 0
12, 197580, Note_on_c, 10, 50, 100
12, 197634, Note_on_c, 10, 50, 0
12, 197640, Note_on_c, 10, 47, 100
12, 197694, Note_on_c, 10, 47, 0
12, 197700, Note_on_c, 10, 50, 100
12, 197754, Note_on_c, 10, 50, 0
12, 197760, Note_on_c, 10, 45, 100
12, 197832, Note_on_c, 10, 45, 0
12, 197840, Note_on_c, 10, 47, 100
12, 197912, Note_on_c, 10, 47, 0
12, 197920, Note_on_c, 10, 48, 100
12, 197992, Note_on_c, 10, 48, 0
12, 198000, Note_on_c, 10, 50, 100
12, 198072, Note_on_c, 10, 50, 0
12, 198080, Note_on_c, 10, 52, 100
12, 198152, Note_on_c, 10, 52, 0
12, 198160, Note_on_c, 10, 53, 100
12, 198232, Note_on_c, 10, 53, 0
12, 198240, Note_on_c, 10, 43, 100
12, 198312, Note_on_c, 10, 43, 0
12, 198320, Note_on_c, 10, 45, 100
12, 198392, Note_on_c, 10, 45, 0
12, 198400, Note_on_c, 10, 47, 100
12, 198472, Note_on_c, 10, 47, 0
12, 198480, Note_on_c, 10, 48, 100
12, 198552, Note_on_c, 10, 48, 0
12, 198560, Note_on_c, 10, 50, 100
12, 198632, Note_on_c, 10, 50, 0
12, 198640, Note_on_c, 10, 52, 100
12, 198712, Note_on_c, 10, 52, 0
12, 198720, Note_on_c, 10, 41, 100
12, 198792, Note_on_c, 10, 41, 0
12, 198800, Note_on_c, 10, 43, 100
12, 198872, Note_on_c, 10, 43, 0
12, 198880, Note_on_c, 10, 45, 100
12, 198952, Note_on_c, 10, 45, 0
12, 198960, Note_on_c, 10, 47, 100
12, 199032, Note_on_c, 10, 47, 0
12, 199040, Note_on_c, 10, 48, 100
12, 199112, Note_on_c, 10, 48, 0
12, 199120, Note_on_c, 10, 50, 100
12, 199192, Note_on_c, 10, 50, 0
12, 199200, Note_on_c, 10, 40, 100
12, 204480, Note_on_c, 10, 40, 100
12, 204696, Note_on_c, 10, 40, 0
12, 204696, Note_on_c, 10, 40, 0
12, 208800, Note_on_c, 10, 38, 100
12, 209016, Note_on_c, 10, 38, 0
12, 210003, Note_on_c, 10, 54, 100
12, 210003, Note_on_c, 10, 57, 100
12, 210003, Note_on_c, 10, 51, 100
12, 210219, Note_on_c, 10, 54, 0
12, 210219, Note_on_c, 10, 57, 0
12, 210219, Note_on_c, 10, 51, 0
12, 210243, Note_on_c, 10, 57, 100
12, 210243, Note_on_c, 10, 60, 100
12, 210243, Note_on_c, 10, 52, 100
12, 210351, Note_on_c, 10, 57, 0
12, 210351, Note_on_c, 10, 60, 0
12, 210459, Note_on_c, 10, 52, 0
12, 210723, Note_on_c, 10, 59, 100
12, 210723, Note_on_c, 10, 62, 100
12, 210723, Note_on_c, 10, 52, 100
12, 211155, Note_on_c, 10, 59, 0
12, 211155, Note_on_c, 10, 62, 0
12, 211155, Note_on_c, 10, 52, 0
12, 211203, Note_on_c, 10, 57, 100
12, 211203, Note_on_c, 10, 45, 100
12, 211419, Note_on_c, 10, 57, 0
12, 211635, Note_on_c, 10, 45, 0
12, 211683, Note_on_c, 10, 44, 100
12, 212115, Note_on_c, 10, 44, 0
12, 212163, Note_on_c, 10, 45, 100
12, 212379, Note_on_c, 10, 45, 0
12, 212403, Note_on_c, 10, 57, 100
12, 212403, Note_on_c, 10, 50, 100
12, 212619, Note_on_c, 10, 57, 0
12, 212619, Note_on_c, 10, 50, 0
12, 212643, Note_on_c, 10, 64, 100
12, 212643, Note_on_c, 10, 52, 100
12, 213075, Note_on_c, 10, 64, 0
12, 213123, Note_on_c, 10, 65, 100
12, 213339, Note_on_c, 10, 52, 0
12, 213363, Note_on_c, 10, 50, 100
12, 213471, Note_on_c, 10, 50, 0
12, 213483, Note_on_c, 10, 48, 100
12, 213555, Note_on_c, 10, 65, 0
12, 213591, Note_on_c, 10, 48, 0
12, 213603, Note_on_c, 10, 50, 100
12, 213819, Note_on_c, 10, 50, 0
12, 213843, Note_on_c, 10, 52, 100
12, 214059, Note_on_c, 10, 52, 0
12, 214083, Note_on_c, 10, 45, 100
12, 214299, Note_on_c, 10, 45, 0
12, 214323, Note_on_c, 10, 57, 100
12, 214539, Note_on_c, 10, 57, 0
12, 214563, Note_on_c, 10, 59, 100
12, 214779, Note_on_c, 10, 59, 0
12, 214803, Note_on_c, 10, 47, 100
12, 215019, Note_on_c, 10, 47, 0
12, 215043, Note_on_c, 10, 52, 100
12, 215475, Note_on_c, 10, 52, 0
12, 215523, Note_on_c, 10, 51, 100
12, 215955, Note_on_c, 10, 51, 0
12, 216003, Note_on_c, 10, 52, 100
12, 216219, Note_on_c, 10, 52, 0
12, 216243, Note_on_c, 10, 60, 100
12, 216459, Note_on_c, 10, 60, 0
12, 216483, Note_on_c, 10, 50, 100
12, 216699, Note_on_c, 10, 50, 0
12, 216723, Note_on_c, 10, 59, 100
12, 216939, Note_on_c, 10, 59, 0
12, 216963, Note_on_c, 10, 48, 100
12, 217179, Note_on_c, 10, 48, 0
12, 217203, Note_on_c, 10, 57, 100
12, 217419, Note_on_c, 10, 57, 0
12, 217443, Note_on_c, 10, 47, 100
12, 217659, Note_on_c, 10, 47, 0
12, 217683, Note_on_c, 10, 57, 100
12, 217899, Note_on_c, 10, 57, 0
12, 217923, Note_on_c, 10, 55, 100
12, 218139, Note_on_c, 10, 55, 0
12, 218163, Note_on_c, 10, 52, 100
12, 218379, Note_on_c, 10, 52, 0
12, 218403, Note_on_c, 10, 54, 100
12, 218619, Note_on_c, 10, 54, 0
12, 218643, Note_on_c, 10, 56, 100
12, 218859, Note_on_c, 10, 56, 0
12, 218883, Note_on_c, 10, 57, 100
12, 219099, Note_on_c, 10, 57, 0
12, 219123, Note_on_c, 10, 58, 100
12, 219339, Note_on_c, 10, 58, 0
12, 219363, Note_on_c, 10, 57, 100
12, 219579, Note_on_c, 10, 57, 0
12, 219603, Note_on_c, 10, 55, 100
12, 219819, Note_on_c, 10, 55, 0
12, 219843, Note_on_c, 10, 53, 100
12, 220059, Note_on_c, 10, 53, 0
12, 220083, Note_on_c, 10, 52, 100
12, 220191, Note_on_c, 10, 52, 0
12, 220203, Note_on_c, 10, 50, 100
12, 220311, Note_on_c, 10, 50, 0
12, 220323, Note_on_c, 10, 52, 100
12, 220755, Note_on_c, 10, 52, 0
12, 220803, Note_on_c, 10, 45, 100
12, 221019, Note_on_c, 10, 45, 0
12, 221043, Note_on_c, 10, 50, 100
12, 221475, Note_on_c, 10, 50, 0
12, 221523, Note_on_c, 10, 48, 100
12, 221979, Note_on_c, 10, 48, 0
12, 222003, Note_on_c, 10, 47, 100
12, 222111, Note_on_c, 10, 47, 0
12, 222123, Note_on_c, 10, 45, 100
12, 222231, Note_on_c, 10, 45, 0
12, 222243, Note_on_c, 10, 47, 100
12, 222459, Note_on_c, 10, 47, 0
12, 222483, Note_on_c, 10, 40, 100
12, 222699, Note_on_c, 10, 40, 0
12, 222723, Note_on_c, 10, 45, 100
12, 222831, Note_on_c, 10, 45, 0
12, 222843, Note_on_c, 10, 47, 100
12, 222951, Note_on_c, 10, 47, 0
12, 222963, Note_on_c, 10, 48, 100
12, 223071, Note_on_c, 10, 48, 0
12, 223083, Note_on_c, 10, 45, 100
12, 223191, Note_on_c, 10, 45, 0
12, 223203, Note_on_c, 10, 52, 100
12, 223419, Note_on_c, 10, 52, 0
12, 223443, Note_on_c, 10, 45, 100
12, 223659, Note_on_c, 10, 45, 0
12, 223683, Note_on_c, 10, 50, 100
12, 224115, Note_on_c, 10, 50, 0
12, 224163, Note_on_c, 10, 38, 100
12, 224595, Note_on_c, 10, 38, 0
12, 224643, Note_on_c, 10, 43, 100
12, 224859, Note_on_c, 10, 43, 0
12, 224883, Note_on_c, 10, 55, 100
12, 225099, Note_on_c, 10, 55, 0
12, 225123, Note_on_c, 10, 57, 100
12, 225339, Note_on_c, 10, 57, 0
12, 225363, Note_on_c, 10, 59, 100
12, 225579, Note_on_c, 10, 59, 0
12, 225603, Note_on_c, 10, 60, 100
12, 225819, Note_on_c, 10, 60, 0
12, 225843, Note_on_c, 10, 57, 100
12, 226059, Note_on_c, 10, 57, 0
12, 226083, Note_on_c, 10, 59, 100
12, 226299, Note_on_c, 10, 59, 0
12, 226323, Note_on_c, 10, 47, 100
12, 226539, Note_on_c, 10, 47, 0
12, 226563, Note_on_c, 10, 52, 100
12, 226779, Note_on_c, 10, 52, 0
12, 226803, Note_on_c, 10, 50, 100
12, 227019, Note_on_c, 10, 50, 0
12, 227043, Note_on_c, 10, 48, 100
12, 227259, Note_on_c, 10, 48, 0
12, 227283, Note_on_c, 10, 47, 100
12, 227499, Note_on_c, 10, 47, 0
12, 227523, Note_on_c, 10, 45, 100
12, 227739, Note_on_c, 10, 45, 0
12, 227763, Note_on_c, 10, 53, 100
12, 227979, Note_on_c, 10, 53, 0
12, 228003, Note_on_c, 10, 52, 100
12, 228219, Note_on_c, 10, 52, 0
12, 228243, Note_on_c, 10, 50, 100
12, 228459, Note_on_c, 10, 50, 0
12, 228483, Note_on_c, 10, 48, 100
12, 228915, Note_on_c, 10, 48, 0
12, 228963, Note_on_c, 10, 47, 100
12, 229395, Note_on_c, 10, 47, 0
12, 229443, Note_on_c, 10, 45, 100
12, 229875, Note_on_c, 10, 45, 0
12, 229923, Note_on_c, 10, 44, 100
12, 230355, Note_on_c, 10, 44, 0
12, 230403, Note_on_c, 10, 45, 100
12, 230619, Note_on_c, 10, 45, 0
12, 230643, Note_on_c, 10, 57, 100
12, 230859, Note_on_c, 10, 57, 0
12, 230883, Note_on_c, 10, 59, 100
12, 231099, Note_on_c, 10, 59, 0
12, 231123, Note_on_c, 10, 61, 100
12, 231339, Note_on_c, 10, 61, 0
12, 231363, Note_on_c, 10, 62, 100
12, 231579, Note_on_c, 10, 62, 0
12, 231603, Note_on_c, 10, 60, 100
12, 231819, Note_on_c, 10, 60, 0
12, 231843, Note_on_c, 10, 59, 100
12, 232059, Note_on_c, 10, 59, 0
12, 232083, Note_on_c, 10, 57, 100
12, 232299, Note_on_c, 10, 57, 0
12, 232323, Note_on_c, 10, 56, 100
12, 232755, Note_on_c, 10, 56, 0
12, 233043, Note_on_c, 10, 52, 100
12, 233259, Note_on_c, 10, 52, 0
12, 233283, Note_on_c, 10, 57, 100
12, 233499, Note_on_c, 10, 57, 0
12, 233523, Note_on_c, 10, 48, 100
12, 233631, Note_on_c, 10, 48, 0
12, 233643, Note_on_c, 10, 50, 100
12, 233751, Note_on_c, 10, 50, 0
12, 233763, Note_on_c, 10, 52, 100
12, 233979, Note_on_c, 10, 52, 0
12, 234003, Note_on_c, 10, 40, 100
12, 234219, Note_on_c, 10, 40, 0
12, 234243, Note_on_c, 10, 45, 100
12, 234675, Note_on_c, 10, 45, 0
12, 234675, End_track
0, 0, End_of_file
