0, 0, Header, 0, 1, 48
1, 0, Start_track
1, 0, Title_t, "J.S.Bach Concert for Harpsichord and Orchestra E major BWV1054 3. Allegro"
1, 0, Time_signature, 3, 3, 24, 8
1, 0, Channel_prefix, 0
1, 0, Copyright_t, "Copyright 2001 by KCN"
1, 0, Channel_prefix, 0
1, 0, Title_t, "Violino I"
1, 0, Channel_prefix, 0
1, 0, Instrument_name_t, "Strings1"
1, 0, System_exclusive, 5, 126, 127, 9, 1, 247
1, 0, MIDI_port, 0
1, 0, Tempo, 652173
1, 0, Program_c, 0, 48
1, 0, Control_c, 0, 7, 110
1, 0, Note_on_c, 0, 62, 96
1, 0, Channel_prefix, 1
1, 0, Title_t, "Violino II"
1, 0, Channel_prefix, 1
1, 0, Instrument_name_t, "Strings1"
1, 0, MIDI_port, 0
1, 0, Program_c, 1, 48
1, 0, Control_c, 1, 7, 110
1, 0, Note_on_c, 1, 66, 96
1, 0, Channel_prefix, 2
1, 0, Title_t, "Viola"
1, 0, Channel_prefix, 2
1, 0, Instrument_name_t, "Strings1"
1, 0, MIDI_port, 0
1, 0, Program_c, 2, 48
1, 0, Control_c, 2, 7, 110
1, 0, Note_on_c, 2, 57, 96
1, 0, Channel_prefix, 3
1, 0, Title_t, "Continuo"
1, 0, Channel_prefix, 3
1, 0, Instrument_name_t, "Cello"
1, 0, MIDI_port, 0
1, 0, Program_c, 3, 42
1, 0, Note_on_c, 3, 50, 96
1, 0, Channel_prefix, 4
1, 0, Title_t, "Continuo"
1, 0, Channel_prefix, 4
1, 0, Instrument_name_t, "Contrabass"
1, 0, MIDI_port, 0
1, 0, Program_c, 4, 43
1, 0, Note_on_c, 4, 38, 96
1, 0, Channel_prefix, 5
1, 0, Title_t, "Cembalo"
1, 0, Channel_prefix, 5
1, 0, Instrument_name_t, "Harpsichord"
1, 0, MIDI_port, 0
1, 0, Program_c, 5, 6
1, 0, Note_on_c, 5, 62, 96
1, 0, Channel_prefix, 6
1, 0, Title_t, "Cembalo"
1, 0, Channel_prefix, 6
1, 0, Instrument_name_t, "Harpsichord"
1, 0, MIDI_port, 0
1, 0, Program_c, 6, 6
1, 0, Note_on_c, 6, 50, 96
1, 12, Note_off_c, 0, 62, 0
1, 12, Note_on_c, 0, 64, 96
1, 12, Note_off_c, 5, 62, 0
1, 12, Note_on_c, 5, 64, 96
1, 24, Note_off_c, 0, 64, 0
1, 24, Note_on_c, 0, 66, 96
1, 24, Note_off_c, 5, 64, 0
1, 24, Note_on_c, 5, 66, 96
1, 36, Note_off_c, 0, 66, 0
1, 36, Note_on_c, 0, 69, 96
1, 36, Note_off_c, 5, 66, 0
1, 36, Note_on_c, 5, 69, 96
1, 42, Note_off_c, 1, 66, 0
1, 42, Note_off_c, 2, 57, 0
1, 42, Note_off_c, 3, 50, 0
1, 42, Note_off_c, 4, 38, 0
1, 42, Note_off_c, 6, 50, 0
1, 46, Note_off_c, 0, 69, 0
1, 46, Note_off_c, 5, 69, 0
1, 48, Note_on_c, 0, 74, 96
1, 48, Note_on_c, 5, 74, 96
1, 54, Note_off_c, 0, 74, 0
1, 54, Note_off_c, 5, 74, 0
1, 72, Note_on_c, 0, 74, 96
1, 72, Note_on_c, 1, 69, 96
1, 72, Note_on_c, 2, 57, 96
1, 72, Note_on_c, 3, 54, 96
1, 72, Note_on_c, 4, 42, 96
1, 72, Note_on_c, 5, 74, 96
1, 72, Note_on_c, 6, 54, 96
1, 84, Note_off_c, 0, 74, 0
1, 84, Note_on_c, 0, 73, 96
1, 84, Note_off_c, 5, 74, 0
1, 84, Note_on_c, 5, 73, 96
1, 93, Note_off_c, 1, 69, 0
1, 93, Note_off_c, 2, 57, 0
1, 93, Note_off_c, 3, 54, 0
1, 93, Note_off_c, 4, 42, 0
1, 93, Note_off_c, 6, 54, 0
1, 94, Note_off_c, 0, 73, 0
1, 94, Note_off_c, 5, 73, 0
1, 96, Note_on_c, 0, 76, 96
1, 96, Note_on_c, 1, 67, 96
1, 96, Note_on_c, 2, 61, 96
1, 96, Note_on_c, 3, 52, 96
1, 96, Note_on_c, 4, 40, 96
1, 96, Note_on_c, 5, 76, 96
1, 96, Note_on_c, 6, 52, 96
1, 108, Note_off_c, 0, 76, 0
1, 108, Note_on_c, 0, 74, 96
1, 108, Note_off_c, 5, 76, 0
1, 108, Note_on_c, 5, 74, 96
1, 117, Note_off_c, 1, 67, 0
1, 117, Note_off_c, 2, 61, 0
1, 117, Note_off_c, 3, 52, 0
1, 117, Note_off_c, 4, 40, 0
1, 117, Note_off_c, 6, 52, 0
1, 118, Note_off_c, 0, 74, 0
1, 118, Note_off_c, 5, 74, 0
1, 120, Note_on_c, 0, 73, 96
1, 120, Note_on_c, 1, 69, 96
1, 120, Note_on_c, 2, 66, 96
1, 120, Note_on_c, 3, 50, 96
1, 120, Note_on_c, 4, 38, 96
1, 120, Note_on_c, 5, 73, 96
1, 120, Note_on_c, 6, 50, 96
1, 132, Note_off_c, 0, 73, 0
1, 132, Note_on_c, 0, 71, 96
1, 132, Note_off_c, 5, 73, 0
1, 132, Note_on_c, 5, 71, 96
1, 141, Note_off_c, 1, 69, 0
1, 141, Note_off_c, 2, 66, 0
1, 141, Note_off_c, 3, 50, 0
1, 141, Note_off_c, 4, 38, 0
1, 141, Note_off_c, 6, 50, 0
1, 142, Note_off_c, 0, 71, 0
1, 142, Note_off_c, 5, 71, 0
1, 144, Note_on_c, 0, 69, 96
1, 144, Note_on_c, 1, 69, 96
1, 144, Note_on_c, 2, 64, 96
1, 144, Note_on_c, 3, 49, 96
1, 144, Note_on_c, 4, 37, 96
1, 144, Note_on_c, 5, 69, 96
1, 144, Note_on_c, 6, 49, 96
1, 156, Note_off_c, 0, 69, 0
1, 156, Note_on_c, 0, 71, 96
1, 156, Note_off_c, 5, 69, 0
1, 156, Note_on_c, 5, 71, 96
1, 168, Note_off_c, 0, 71, 0
1, 168, Note_on_c, 0, 73, 96
1, 168, Note_off_c, 5, 71, 0
1, 168, Note_on_c, 5, 73, 96
1, 180, Note_off_c, 0, 73, 0
1, 180, Note_on_c, 0, 76, 96
1, 180, Note_off_c, 5, 73, 0
1, 180, Note_on_c, 5, 76, 96
1, 186, Note_off_c, 1, 69, 0
1, 186, Note_off_c, 2, 64, 0
1, 186, Note_off_c, 3, 49, 0
1, 186, Note_off_c, 4, 37, 0
1, 186, Note_off_c, 6, 49, 0
1, 190, Note_off_c, 0, 76, 0
1, 190, Note_off_c, 5, 76, 0
1, 192, Note_on_c, 0, 79, 96
1, 192, Note_on_c, 5, 79, 96
1, 198, Note_off_c, 0, 79, 0
1, 198, Note_off_c, 5, 79, 0
1, 216, Note_on_c, 0, 79, 96
1, 216, Note_on_c, 1, 69, 96
1, 216, Note_on_c, 2, 64, 96
1, 216, Note_on_c, 3, 49, 96
1, 216, Note_on_c, 4, 37, 96
1, 216, Note_on_c, 5, 79, 96
1, 216, Note_on_c, 6, 49, 96
1, 237, Note_off_c, 1, 69, 0
1, 237, Note_off_c, 2, 64, 0
1, 237, Note_off_c, 3, 49, 0
1, 237, Note_off_c, 4, 37, 0
1, 237, Note_off_c, 6, 49, 0
1, 240, Note_on_c, 1, 71, 96
1, 240, Note_on_c, 2, 62, 96
1, 240, Note_on_c, 3, 47, 96
1, 240, Note_on_c, 4, 35, 96
1, 240, Note_on_c, 6, 47, 96
1, 261, Note_off_c, 1, 71, 0
1, 261, Note_off_c, 2, 62, 0
1, 261, Note_off_c, 3, 47, 0
1, 261, Note_off_c, 4, 35, 0
1, 261, Note_off_c, 6, 47, 0
1, 264, Note_on_c, 1, 73, 96
1, 264, Note_on_c, 2, 64, 96
1, 264, Note_on_c, 3, 45, 96
1, 264, Note_on_c, 4, 33, 96
1, 264, Note_on_c, 6, 45, 96
1, 279, Note_off_c, 0, 79, 0
1, 279, Note_off_c, 5, 79, 0
1, 285, Note_off_c, 1, 73, 0
1, 285, Note_off_c, 2, 64, 0
1, 285, Note_off_c, 3, 45, 0
1, 285, Note_off_c, 4, 33, 0
1, 285, Note_off_c, 6, 45, 0
1, 288, Note_on_c, 0, 78, 96
1, 288, Note_on_c, 1, 74, 96
1, 288, Note_on_c, 2, 57, 96
1, 288, Note_on_c, 3, 50, 96
1, 288, Note_on_c, 4, 38, 96
1, 288, Note_on_c, 5, 78, 96
1, 288, Note_on_c, 6, 50, 96
1, 300, Note_off_c, 0, 78, 0
1, 300, Note_on_c, 0, 76, 96
1, 300, Note_off_c, 5, 78, 0
1, 300, Note_on_c, 5, 76, 96
1, 309, Note_off_c, 1, 74, 0
1, 309, Note_off_c, 3, 50, 0
1, 309, Note_off_c, 4, 38, 0
1, 309, Note_off_c, 6, 50, 0
1, 310, Note_off_c, 0, 76, 0
1, 310, Note_off_c, 5, 76, 0
1, 312, Note_on_c, 0, 79, 96
1, 312, Note_on_c, 1, 69, 96
1, 312, Note_on_c, 3, 49, 96
1, 312, Note_on_c, 4, 37, 96
1, 312, Note_on_c, 5, 79, 96
1, 312, Note_on_c, 6, 49, 96
1, 324, Note_off_c, 0, 79, 0
1, 324, Note_on_c, 0, 78, 96
1, 324, Note_off_c, 5, 79, 0
1, 324, Note_on_c, 5, 78, 96
1, 330, Note_off_c, 2, 57, 0
1, 333, Note_off_c, 1, 69, 0
1, 333, Note_off_c, 3, 49, 0
1, 333, Note_off_c, 4, 37, 0
1, 333, Note_off_c, 6, 49, 0
1, 334, Note_off_c, 0, 78, 0
1, 334, Note_off_c, 5, 78, 0
1, 336, Note_on_c, 0, 76, 96
1, 336, Note_on_c, 1, 68, 96
1, 336, Note_on_c, 2, 62, 96
1, 336, Note_on_c, 3, 47, 96
1, 336, Note_on_c, 4, 35, 96
1, 336, Note_on_c, 5, 76, 96
1, 336, Note_on_c, 6, 47, 96
1, 348, Note_off_c, 0, 76, 0
1, 348, Note_on_c, 0, 74, 96
1, 348, Note_off_c, 5, 76, 0
1, 348, Note_on_c, 5, 74, 96
1, 357, Note_off_c, 1, 68, 0
1, 357, Note_off_c, 2, 62, 0
1, 357, Note_off_c, 3, 47, 0
1, 357, Note_off_c, 4, 35, 0
1, 357, Note_off_c, 6, 47, 0
1, 358, Note_off_c, 0, 74, 0
1, 358, Note_off_c, 5, 74, 0
1, 360, Note_on_c, 0, 73, 96
1, 360, Note_on_c, 1, 69, 96
1, 360, Note_on_c, 2, 64, 96
1, 360, Note_on_c, 3, 45, 96
1, 360, Note_on_c, 4, 33, 96
1, 360, Note_on_c, 5, 73, 96
1, 360, Note_on_c, 6, 45, 96
1, 372, Note_off_c, 0, 73, 0
1, 372, Note_on_c, 0, 71, 96
1, 372, Note_off_c, 5, 73, 0
1, 372, Note_on_c, 5, 71, 96
1, 381, Note_off_c, 1, 69, 0
1, 381, Note_off_c, 3, 45, 0
1, 381, Note_off_c, 4, 33, 0
1, 381, Note_off_c, 6, 45, 0
1, 382, Note_off_c, 0, 71, 0
1, 382, Note_off_c, 5, 71, 0
1, 384, Note_on_c, 0, 74, 96
1, 384, Note_on_c, 1, 64, 96
1, 384, Note_on_c, 3, 43, 96
1, 384, Note_on_c, 4, 31, 96
1, 384, Note_on_c, 5, 74, 96
1, 384, Note_on_c, 6, 43, 96
1, 396, Note_off_c, 0, 74, 0
1, 396, Note_on_c, 0, 73, 96
1, 396, Note_off_c, 5, 74, 0
1, 396, Note_on_c, 5, 73, 96
1, 402, Note_off_c, 2, 64, 0
1, 405, Note_off_c, 1, 64, 0
1, 405, Note_off_c, 3, 43, 0
1, 405, Note_off_c, 4, 31, 0
1, 405, Note_off_c, 6, 43, 0
1, 406, Note_off_c, 0, 73, 0
1, 406, Note_off_c, 5, 73, 0
1, 408, Note_on_c, 0, 71, 96
1, 408, Note_on_c, 1, 66, 96
1, 408, Note_on_c, 2, 62, 96
1, 408, Note_on_c, 3, 42, 96
1, 408, Note_on_c, 4, 30, 96
1, 408, Note_on_c, 5, 71, 96
1, 408, Note_on_c, 6, 42, 96
1, 420, Note_off_c, 0, 71, 0
1, 420, Note_on_c, 0, 69, 96
1, 420, Note_off_c, 5, 71, 0
1, 420, Note_on_c, 5, 69, 96
1, 429, Note_off_c, 1, 66, 0
1, 429, Note_off_c, 2, 62, 0
1, 429, Note_off_c, 3, 42, 0
1, 429, Note_off_c, 4, 30, 0
1, 429, Note_off_c, 6, 42, 0
1, 430, Note_off_c, 0, 69, 0
1, 430, Note_off_c, 5, 69, 0
1, 432, Note_on_c, 0, 67, 96
1, 432, Note_on_c, 1, 67, 96
1, 432, Note_on_c, 2, 61, 96
1, 432, Note_on_c, 3, 40, 96
1, 432, Note_on_c, 4, 28, 96
1, 432, Note_on_c, 5, 67, 96
1, 432, Note_on_c, 6, 40, 96
1, 442, Note_off_c, 5, 67, 0
1, 444, Note_off_c, 0, 67, 0
1, 444, Note_on_c, 0, 66, 96
1, 444, Note_on_c, 5, 66, 96
1, 453, Note_off_c, 1, 67, 0
1, 453, Note_off_c, 2, 61, 0
1, 453, Note_off_c, 3, 40, 0
1, 453, Note_off_c, 4, 28, 0
1, 453, Note_off_c, 6, 40, 0
1, 454, Note_off_c, 0, 66, 0
1, 454, Note_off_c, 5, 66, 0
1, 456, Note_on_c, 0, 69, 96
1, 456, Note_on_c, 1, 64, 96
1, 456, Note_on_c, 2, 64, 96
1, 456, Note_on_c, 3, 49, 96
1, 456, Note_on_c, 4, 37, 96
1, 456, Note_on_c, 5, 69, 96
1, 456, Note_on_c, 6, 49, 96
1, 466, Note_off_c, 5, 69, 0
1, 468, Note_off_c, 0, 69, 0
1, 468, Note_on_c, 0, 67, 96
1, 468, Note_on_c, 5, 67, 96
1, 477, Note_off_c, 1, 64, 0
1, 477, Note_off_c, 2, 64, 0
1, 477, Note_off_c, 3, 49, 0
1, 477, Note_off_c, 4, 37, 0
1, 477, Note_off_c, 6, 49, 0
1, 478, Note_off_c, 0, 67, 0
1, 478, Note_off_c, 5, 67, 0
1, 480, Note_on_c, 0, 66, 96
1, 480, Note_on_c, 1, 62, 96
1, 480, Note_on_c, 2, 57, 96
1, 480, Note_on_c, 3, 50, 96
1, 480, Note_on_c, 4, 38, 96
1, 480, Note_on_c, 5, 66, 96
1, 480, Note_on_c, 6, 50, 96
1, 490, Note_off_c, 5, 66, 0
1, 492, Note_off_c, 0, 66, 0
1, 492, Note_on_c, 0, 67, 96
1, 492, Note_on_c, 5, 67, 96
1, 501, Note_off_c, 1, 62, 0
1, 501, Note_off_c, 2, 57, 0
1, 501, Note_off_c, 3, 50, 0
1, 501, Note_off_c, 4, 38, 0
1, 501, Note_off_c, 6, 50, 0
1, 502, Note_off_c, 0, 67, 0
1, 502, Note_off_c, 5, 67, 0
1, 504, Note_on_c, 0, 64, 96
1, 504, Note_on_c, 1, 61, 96
1, 504, Note_on_c, 2, 57, 96
1, 504, Note_on_c, 3, 45, 96
1, 504, Note_on_c, 4, 33, 96
1, 504, Note_on_c, 5, 64, 96
1, 504, Note_on_c, 6, 45, 96
1, 514, Note_off_c, 5, 64, 0
1, 516, Note_off_c, 0, 64, 0
1, 516, Note_on_c, 0, 62, 96
1, 516, Note_on_c, 5, 62, 96
1, 525, Note_off_c, 1, 61, 0
1, 525, Note_off_c, 3, 45, 0
1, 525, Note_off_c, 4, 33, 0
1, 525, Note_off_c, 6, 45, 0
1, 526, Note_off_c, 5, 62, 0
1, 528, Note_off_c, 0, 62, 0
1, 528, Note_on_c, 0, 64, 96
1, 528, Note_on_c, 1, 64, 96
1, 528, Note_on_c, 3, 49, 96
1, 528, Note_on_c, 4, 37, 96
1, 528, Note_on_c, 5, 64, 96
1, 528, Note_on_c, 6, 49, 96
1, 535, Note_off_c, 2, 57, 0
1, 538, Note_off_c, 0, 64, 0
1, 538, Note_off_c, 5, 64, 0
1, 540, Note_on_c, 0, 67, 96
1, 540, Note_on_c, 2, 59, 96
1, 540, Note_on_c, 5, 67, 96
1, 549, Note_off_c, 1, 64, 0
1, 549, Note_off_c, 3, 49, 0
1, 549, Note_off_c, 4, 37, 0
1, 549, Note_off_c, 6, 49, 0
1, 550, Note_off_c, 0, 67, 0
1, 550, Note_off_c, 2, 59, 0
1, 550, Note_off_c, 5, 67, 0
1, 552, Note_on_c, 0, 66, 96
1, 552, Note_on_c, 1, 61, 96
1, 552, Note_on_c, 2, 57, 96
1, 552, Note_on_c, 3, 45, 96
1, 552, Note_on_c, 4, 33, 96
1, 552, Note_on_c, 5, 66, 96
1, 552, Note_on_c, 6, 45, 96
1, 562, Note_off_c, 0, 66, 0
1, 562, Note_off_c, 2, 57, 0
1, 562, Note_off_c, 5, 66, 0
1, 564, Note_on_c, 0, 64, 96
1, 564, Note_on_c, 2, 55, 96
1, 564, Note_on_c, 5, 64, 96
1, 573, Note_off_c, 1, 61, 0
1, 573, Note_off_c, 3, 45, 0
1, 573, Note_off_c, 4, 33, 0
1, 573, Note_off_c, 6, 45, 0
1, 574, Note_off_c, 0, 64, 0
1, 574, Note_off_c, 2, 55, 0
1, 574, Note_off_c, 5, 64, 0
1, 576, Note_on_c, 0, 62, 96
1, 576, Note_on_c, 1, 57, 96
1, 576, Note_on_c, 2, 54, 96
1, 576, Note_on_c, 3, 38, 96
1, 576, Note_on_c, 4, 26, 96
1, 576, Note_on_c, 5, 62, 96
1, 576, Note_on_c, 6, 38, 96
1, 586, Note_off_c, 5, 62, 0
1, 588, Note_off_c, 0, 62, 0
1, 588, Note_on_c, 0, 64, 96
1, 588, Note_on_c, 5, 64, 96
1, 597, Note_off_c, 1, 57, 0
1, 597, Note_off_c, 2, 54, 0
1, 597, Note_off_c, 3, 38, 0
1, 597, Note_off_c, 4, 26, 0
1, 597, Note_off_c, 6, 38, 0
1, 598, Note_off_c, 5, 64, 0
1, 600, Note_off_c, 0, 64, 0
1, 600, Note_on_c, 0, 66, 96
1, 600, Note_on_c, 1, 69, 96
1, 600, Note_on_c, 2, 62, 96
1, 600, Note_on_c, 3, 50, 96
1, 600, Note_on_c, 4, 38, 96
1, 600, Note_on_c, 5, 66, 96
1, 600, Note_on_c, 6, 50, 96
1, 610, Note_off_c, 5, 66, 0
1, 612, Note_off_c, 0, 66, 0
1, 612, Note_on_c, 0, 69, 96
1, 612, Note_on_c, 5, 69, 96
1, 621, Note_off_c, 1, 69, 0
1, 621, Note_off_c, 2, 62, 0
1, 621, Note_off_c, 3, 50, 0
1, 621, Note_off_c, 4, 38, 0
1, 621, Note_off_c, 6, 50, 0
1, 622, Note_off_c, 0, 69, 0
1, 622, Note_off_c, 5, 69, 0
1, 624, Note_on_c, 0, 74, 96
1, 624, Note_on_c, 1, 69, 96
1, 624, Note_on_c, 2, 66, 96
1, 624, Note_on_c, 3, 49, 96
1, 624, Note_on_c, 4, 37, 96
1, 624, Note_on_c, 5, 74, 96
1, 624, Note_on_c, 6, 49, 96
1, 630, Note_off_c, 0, 74, 0
1, 645, Note_off_c, 1, 69, 0
1, 645, Note_off_c, 2, 66, 0
1, 645, Note_off_c, 3, 49, 0
1, 645, Note_off_c, 4, 37, 0
1, 645, Note_off_c, 5, 74, 0
1, 645, Note_off_c, 6, 49, 0
1, 648, Note_on_c, 0, 74, 96
1, 648, Note_on_c, 1, 71, 96
1, 648, Note_on_c, 2, 66, 96
1, 648, Note_on_c, 3, 47, 96
1, 648, Note_on_c, 4, 35, 96
1, 648, Note_on_c, 5, 74, 96
1, 648, Note_on_c, 6, 47, 96
1, 658, Note_off_c, 5, 74, 0
1, 660, Note_off_c, 0, 74, 0
1, 660, Note_on_c, 0, 73, 96
1, 660, Note_on_c, 5, 73, 96
1, 669, Note_off_c, 1, 71, 0
1, 669, Note_off_c, 3, 47, 0
1, 669, Note_off_c, 4, 35, 0
1, 669, Note_off_c, 6, 47, 0
1, 670, Note_off_c, 0, 73, 0
1, 670, Note_off_c, 5, 73, 0
1, 672, Note_on_c, 0, 76, 96
1, 672, Note_on_c, 1, 66, 96
1, 672, Note_on_c, 3, 45, 96
1, 672, Note_on_c, 4, 33, 96
1, 672, Note_on_c, 5, 76, 96
1, 672, Note_on_c, 6, 45, 96
1, 682, Note_off_c, 5, 76, 0
1, 684, Note_off_c, 0, 76, 0
1, 684, Note_on_c, 0, 74, 96
1, 684, Note_on_c, 5, 74, 96
1, 690, Note_off_c, 2, 66, 0
1, 693, Note_off_c, 1, 66, 0
1, 693, Note_off_c, 3, 45, 0
1, 693, Note_off_c, 4, 33, 0
1, 693, Note_off_c, 6, 45, 0
1, 694, Note_off_c, 0, 74, 0
1, 694, Note_off_c, 5, 74, 0
1, 696, Note_on_c, 0, 73, 96
1, 696, Note_on_c, 1, 67, 96
1, 696, Note_on_c, 2, 64, 96
1, 696, Note_on_c, 3, 43, 96
1, 696, Note_on_c, 4, 31, 96
1, 696, Note_on_c, 5, 73, 96
1, 696, Note_on_c, 6, 43, 96
1, 706, Note_off_c, 5, 73, 0
1, 708, Note_off_c, 0, 73, 0
1, 708, Note_on_c, 0, 71, 96
1, 708, Note_on_c, 5, 71, 96
1, 717, Note_off_c, 1, 67, 0
1, 717, Note_off_c, 2, 64, 0
1, 717, Note_off_c, 3, 43, 0
1, 717, Note_off_c, 4, 31, 0
1, 717, Note_off_c, 6, 43, 0
1, 718, Note_off_c, 0, 71, 0
1, 718, Note_off_c, 5, 71, 0
1, 720, Note_on_c, 0, 62, 96
1, 720, Note_on_c, 1, 69, 96
1, 720, Note_on_c, 2, 62, 96
1, 720, Note_on_c, 3, 42, 96
1, 720, Note_on_c, 4, 30, 96
1, 720, Note_on_c, 5, 62, 96
1, 720, Note_on_c, 6, 42, 96
1, 730, Note_off_c, 5, 62, 0
1, 732, Note_off_c, 0, 62, 0
1, 732, Note_on_c, 0, 64, 96
1, 732, Note_on_c, 5, 64, 96
1, 741, Note_off_c, 1, 69, 0
1, 741, Note_off_c, 2, 62, 0
1, 741, Note_off_c, 3, 42, 0
1, 741, Note_off_c, 4, 30, 0
1, 741, Note_off_c, 6, 42, 0
1, 742, Note_off_c, 5, 64, 0
1, 744, Note_off_c, 0, 64, 0
1, 744, Note_on_c, 0, 66, 96
1, 744, Note_on_c, 1, 72, 96
1, 744, Note_on_c, 2, 57, 96
1, 744, Note_on_c, 3, 40, 96
1, 744, Note_on_c, 4, 28, 96
1, 744, Note_on_c, 5, 66, 96
1, 744, Note_on_c, 6, 40, 96
1, 754, Note_off_c, 5, 66, 0
1, 756, Note_off_c, 0, 66, 0
1, 756, Note_on_c, 0, 69, 96
1, 756, Note_on_c, 5, 69, 96
1, 765, Note_off_c, 1, 72, 0
1, 765, Note_off_c, 2, 57, 0
1, 765, Note_off_c, 3, 40, 0
1, 765, Note_off_c, 4, 28, 0
1, 765, Note_off_c, 6, 40, 0
1, 766, Note_off_c, 0, 69, 0
1, 766, Note_off_c, 5, 69, 0
1, 768, Note_on_c, 0, 72, 96
1, 768, Note_on_c, 1, 69, 96
1, 768, Note_on_c, 2, 54, 96
1, 768, Note_on_c, 3, 38, 96
1, 768, Note_on_c, 4, 26, 96
1, 768, Note_on_c, 5, 72, 96
1, 768, Note_on_c, 6, 38, 96
1, 774, Note_off_c, 0, 72, 0
1, 789, Note_off_c, 1, 69, 0
1, 789, Note_off_c, 2, 54, 0
1, 789, Note_off_c, 3, 38, 0
1, 789, Note_off_c, 4, 26, 0
1, 789, Note_off_c, 5, 72, 0
1, 789, Note_off_c, 6, 38, 0
1, 792, Note_on_c, 0, 72, 96
1, 792, Note_on_c, 1, 66, 96
1, 792, Note_on_c, 2, 50, 96
1, 792, Note_on_c, 3, 50, 96
1, 792, Note_on_c, 4, 38, 96
1, 792, Note_on_c, 5, 72, 96
1, 792, Note_on_c, 6, 50, 96
1, 813, Note_off_c, 1, 66, 0
1, 813, Note_off_c, 3, 50, 0
1, 813, Note_off_c, 4, 38, 0
1, 813, Note_off_c, 6, 50, 0
1, 816, Note_on_c, 1, 67, 96
1, 816, Note_on_c, 3, 52, 96
1, 816, Note_on_c, 4, 40, 96
1, 816, Note_on_c, 6, 52, 96
1, 837, Note_off_c, 1, 67, 0
1, 837, Note_off_c, 3, 52, 0
1, 837, Note_off_c, 4, 40, 0
1, 837, Note_off_c, 6, 52, 0
1, 840, Note_on_c, 1, 69, 96
1, 840, Note_on_c, 3, 54, 96
1, 840, Note_on_c, 4, 42, 96
1, 840, Note_on_c, 6, 54, 96
1, 855, Note_off_c, 0, 72, 0
1, 855, Note_off_c, 2, 50, 0
1, 855, Note_off_c, 5, 72, 0
1, 861, Note_off_c, 1, 69, 0
1, 861, Note_off_c, 3, 54, 0
1, 861, Note_off_c, 4, 42, 0
1, 861, Note_off_c, 6, 54, 0
1, 864, Note_on_c, 0, 71, 96
1, 864, Note_on_c, 1, 67, 96
1, 864, Note_on_c, 2, 62, 96
1, 864, Note_on_c, 3, 55, 96
1, 864, Note_on_c, 4, 43, 96
1, 864, Note_on_c, 5, 71, 96
1, 864, Note_on_c, 6, 55, 96
1, 874, Note_off_c, 5, 71, 0
1, 876, Note_off_c, 0, 71, 0
1, 876, Note_on_c, 0, 74, 96
1, 876, Note_on_c, 5, 74, 96
1, 885, Note_off_c, 1, 67, 0
1, 885, Note_off_c, 2, 62, 0
1, 885, Note_off_c, 3, 55, 0
1, 885, Note_off_c, 4, 43, 0
1, 885, Note_off_c, 6, 55, 0
1, 886, Note_off_c, 0, 74, 0
1, 886, Note_off_c, 5, 74, 0
1, 888, Note_on_c, 0, 79, 96
1, 888, Note_on_c, 1, 71, 96
1, 888, Note_on_c, 2, 64, 96
1, 888, Note_on_c, 3, 52, 96
1, 888, Note_on_c, 4, 40, 96
1, 888, Note_on_c, 5, 79, 96
1, 888, Note_on_c, 6, 52, 96
1, 898, Note_off_c, 5, 79, 0
1, 900, Note_off_c, 0, 79, 0
1, 900, Note_on_c, 0, 78, 96
1, 900, Note_on_c, 5, 78, 96
1, 909, Note_off_c, 1, 71, 0
1, 909, Note_off_c, 2, 64, 0
1, 909, Note_off_c, 3, 52, 0
1, 909, Note_off_c, 4, 40, 0
1, 909, Note_off_c, 6, 52, 0
1, 910, Note_off_c, 0, 78, 0
1, 910, Note_off_c, 5, 78, 0
1, 912, Note_on_c, 0, 76, 96
1, 912, Note_on_c, 1, 71, 96
1, 912, Note_on_c, 2, 64, 96
1, 912, Note_on_c, 3, 55, 96
1, 912, Note_on_c, 4, 43, 96
1, 912, Note_on_c, 5, 76, 96
1, 912, Note_on_c, 6, 55, 96
1, 922, Note_off_c, 5, 76, 0
1, 924, Note_off_c, 0, 76, 0
1, 924, Note_on_c, 0, 74, 96
1, 924, Note_on_c, 5, 74, 96
1, 933, Note_off_c, 1, 71, 0
1, 933, Note_off_c, 2, 64, 0
1, 933, Note_off_c, 3, 55, 0
1, 933, Note_off_c, 4, 43, 0
1, 933, Note_off_c, 6, 55, 0
1, 934, Note_off_c, 0, 74, 0
1, 934, Note_off_c, 5, 74, 0
1, 936, Note_on_c, 0, 73, 96
1, 936, Note_on_c, 1, 69, 96
1, 936, Note_on_c, 2, 64, 96
1, 936, Note_on_c, 3, 57, 96
1, 936, Note_on_c, 4, 45, 96
1, 936, Note_on_c, 5, 73, 96
1, 936, Note_on_c, 6, 57, 96
1, 946, Note_off_c, 5, 73, 0
1, 948, Note_off_c, 0, 73, 0
1, 948, Note_on_c, 0, 71, 96
1, 948, Note_on_c, 5, 71, 96
1, 957, Note_off_c, 1, 69, 0
1, 957, Note_off_c, 2, 64, 0
1, 957, Note_off_c, 3, 57, 0
1, 957, Note_off_c, 4, 45, 0
1, 957, Note_off_c, 6, 57, 0
1, 958, Note_off_c, 0, 71, 0
1, 958, Note_off_c, 5, 71, 0
1, 960, Note_on_c, 0, 74, 96
1, 960, Note_on_c, 1, 69, 96
1, 960, Note_on_c, 2, 64, 96
1, 960, Note_on_c, 3, 59, 96
1, 960, Note_on_c, 4, 47, 96
1, 960, Note_on_c, 5, 74, 96
1, 960, Note_on_c, 6, 59, 96
1, 970, Note_off_c, 5, 74, 0
1, 972, Note_off_c, 0, 74, 0
1, 972, Note_on_c, 0, 73, 96
1, 972, Note_on_c, 5, 73, 96
1, 981, Note_off_c, 1, 69, 0
1, 981, Note_off_c, 2, 64, 0
1, 981, Note_off_c, 3, 59, 0
1, 981, Note_off_c, 4, 47, 0
1, 981, Note_off_c, 6, 59, 0
1, 982, Note_off_c, 0, 73, 0
1, 982, Note_off_c, 5, 73, 0
1, 984, Note_on_c, 0, 71, 96
1, 984, Note_on_c, 1, 69, 96
1, 984, Note_on_c, 2, 64, 96
1, 984, Note_on_c, 3, 61, 96
1, 984, Note_on_c, 4, 49, 96
1, 984, Note_on_c, 5, 71, 96
1, 984, Note_on_c, 6, 61, 96
1, 994, Note_off_c, 5, 71, 0
1, 996, Note_off_c, 0, 71, 0
1, 996, Note_on_c, 0, 69, 96
1, 996, Note_on_c, 5, 69, 96
1, 1005, Note_off_c, 1, 69, 0
1, 1005, Note_off_c, 2, 64, 0
1, 1005, Note_off_c, 3, 61, 0
1, 1005, Note_off_c, 4, 49, 0
1, 1005, Note_off_c, 6, 61, 0
1, 1006, Note_off_c, 0, 69, 0
1, 1006, Note_off_c, 5, 69, 0
1, 1008, Note_on_c, 0, 78, 96
1, 1008, Note_on_c, 1, 69, 96
1, 1008, Note_on_c, 2, 62, 96
1, 1008, Note_on_c, 3, 62, 96
1, 1008, Note_on_c, 4, 50, 96
1, 1008, Note_on_c, 5, 78, 96
1, 1008, Note_on_c, 6, 62, 96
1, 1029, Note_off_c, 0, 78, 0
1, 1029, Note_off_c, 1, 69, 0
1, 1029, Note_off_c, 2, 62, 0
1, 1029, Note_off_c, 3, 62, 0
1, 1029, Note_off_c, 4, 50, 0
1, 1029, Note_off_c, 5, 78, 0
1, 1029, Note_off_c, 6, 62, 0
1, 1032, Note_on_c, 0, 79, 96
1, 1032, Note_on_c, 1, 71, 96
1, 1032, Note_on_c, 2, 62, 96
1, 1032, Note_on_c, 3, 55, 96
1, 1032, Note_on_c, 4, 43, 96
1, 1032, Note_on_c, 5, 79, 96
1, 1032, Note_on_c, 6, 55, 96
1, 1038, Note_off_c, 5, 79, 0
1, 1038, Note_on_c, 5, 78, 96
1, 1044, Note_off_c, 5, 78, 0
1, 1044, Note_on_c, 5, 79, 96
1, 1053, Note_off_c, 0, 79, 0
1, 1053, Note_off_c, 1, 71, 0
1, 1053, Note_off_c, 2, 62, 0
1, 1053, Note_off_c, 3, 55, 0
1, 1053, Note_off_c, 4, 43, 0
1, 1053, Note_off_c, 6, 55, 0
1, 1054, Note_off_c, 5, 79, 0
1, 1056, Note_on_c, 0, 76, 96
1, 1056, Note_on_c, 1, 69, 96
1, 1056, Note_on_c, 2, 61, 96
1, 1056, Note_on_c, 3, 57, 96
1, 1056, Note_on_c, 4, 45, 96
1, 1056, Note_on_c, 5, 78, 96
1, 1056, Note_on_c, 6, 57, 96
1, 1062, Note_off_c, 5, 78, 0
1, 1062, Note_on_c, 5, 76, 96
1, 1068, Note_off_c, 5, 76, 0
1, 1068, Note_on_c, 5, 74, 96
1, 1074, Note_off_c, 5, 74, 0
1, 1074, Note_on_c, 5, 76, 96
1, 1077, Note_off_c, 0, 76, 0
1, 1077, Note_off_c, 1, 69, 0
1, 1077, Note_off_c, 2, 61, 0
1, 1077, Note_off_c, 3, 57, 0
1, 1077, Note_off_c, 4, 45, 0
1, 1077, Note_off_c, 6, 57, 0
1, 1079, Note_off_c, 5, 76, 0
1, 1080, Note_on_c, 0, 74, 96
1, 1080, Note_on_c, 1, 69, 96
1, 1080, Note_on_c, 2, 66, 96
1, 1080, Note_on_c, 3, 50, 96
1, 1080, Note_on_c, 4, 38, 96
1, 1080, Note_on_c, 5, 74, 96
1, 1080, Note_on_c, 6, 50, 96
1, 1101, Note_off_c, 3, 50, 0
1, 1101, Note_off_c, 4, 38, 0
1, 1101, Note_off_c, 6, 50, 0
1, 1104, Note_on_c, 3, 42, 96
1, 1104, Note_on_c, 4, 30, 96
1, 1104, Note_on_c, 6, 42, 96
1, 1125, Note_off_c, 3, 42, 0
1, 1125, Note_off_c, 4, 30, 0
1, 1125, Note_off_c, 6, 42, 0
1, 1128, Note_on_c, 3, 45, 96
1, 1128, Note_on_c, 4, 33, 96
1, 1128, Note_on_c, 6, 45, 96
1, 1143, Note_off_c, 0, 74, 0
1, 1143, Note_off_c, 1, 69, 0
1, 1143, Note_off_c, 2, 66, 0
1, 1143, Note_off_c, 5, 74, 0
1, 1149, Note_off_c, 3, 45, 0
1, 1149, Note_off_c, 4, 33, 0
1, 1149, Note_off_c, 6, 45, 0
1, 1152, Note_on_c, 3, 38, 96
1, 1152, Note_on_c, 4, 26, 96
1, 1152, Note_on_c, 5, 69, 96
1, 1152, Note_on_c, 6, 38, 96
1, 1164, Note_off_c, 5, 69, 0
1, 1164, Note_on_c, 5, 67, 96
1, 1176, Note_off_c, 5, 67, 0
1, 1176, Note_on_c, 5, 66, 96
1, 1186, Note_off_c, 5, 66, 0
1, 1188, Note_on_c, 5, 74, 96
1, 1194, Note_off_c, 3, 38, 0
1, 1194, Note_off_c, 4, 26, 0
1, 1194, Note_off_c, 6, 38, 0
1, 1198, Note_off_c, 5, 74, 0
1, 1200, Note_on_c, 5, 69, 96
1, 1210, Note_off_c, 5, 69, 0
1, 1212, Note_on_c, 5, 67, 96
1, 1222, Note_off_c, 5, 67, 0
1, 1224, Note_on_c, 5, 66, 96
1, 1224, Note_on_c, 6, 50, 96
1, 1236, Note_off_c, 5, 66, 0
1, 1236, Note_on_c, 5, 64, 96
1, 1245, Note_off_c, 6, 50, 0
1, 1248, Note_off_c, 5, 64, 0
1, 1248, Note_on_c, 5, 62, 96
1, 1248, Note_on_c, 6, 54, 96
1, 1258, Note_off_c, 5, 62, 0
1, 1260, Note_on_c, 5, 69, 96
1, 1269, Note_off_c, 6, 54, 0
1, 1270, Note_off_c, 5, 69, 0
1, 1272, Note_on_c, 5, 66, 96
1, 1272, Note_on_c, 6, 50, 96
1, 1282, Note_off_c, 5, 66, 0
1, 1284, Note_on_c, 5, 64, 96
1, 1293, Note_off_c, 6, 50, 0
1, 1294, Note_off_c, 5, 64, 0
1, 1296, Note_on_c, 5, 62, 96
1, 1296, Note_on_c, 6, 47, 96
1, 1306, Note_off_c, 5, 62, 0
1, 1308, Note_on_c, 5, 64, 96
1, 1317, Note_off_c, 6, 47, 0
1, 1318, Note_off_c, 5, 64, 0
1, 1320, Note_on_c, 5, 66, 96
1, 1320, Note_on_c, 6, 50, 96
1, 1330, Note_off_c, 5, 66, 0
1, 1332, Note_on_c, 5, 69, 96
1, 1341, Note_off_c, 6, 50, 0
1, 1342, Note_off_c, 5, 69, 0
1, 1344, Note_on_c, 5, 73, 96
1, 1344, Note_on_c, 6, 47, 96
1, 1354, Note_off_c, 5, 73, 0
1, 1356, Note_on_c, 5, 74, 96
1, 1365, Note_off_c, 6, 47, 0
1, 1366, Note_off_c, 5, 74, 0
1, 1368, Note_on_c, 5, 55, 96
1, 1368, Note_on_c, 6, 52, 96
1, 1378, Note_off_c, 5, 55, 0
1, 1380, Note_on_c, 5, 64, 96
1, 1389, Note_off_c, 6, 52, 0
1, 1390, Note_off_c, 5, 64, 0
1, 1392, Note_on_c, 5, 74, 96
1, 1392, Note_on_c, 6, 56, 96
1, 1402, Note_off_c, 5, 74, 0
1, 1404, Note_on_c, 5, 78, 96
1, 1413, Note_off_c, 6, 56, 0
1, 1414, Note_off_c, 5, 78, 0
1, 1416, Note_on_c, 5, 76, 96
1, 1416, Note_on_c, 6, 52, 96
1, 1426, Note_off_c, 5, 76, 0
1, 1428, Note_on_c, 5, 74, 96
1, 1437, Note_off_c, 6, 52, 0
1, 1438, Note_off_c, 5, 74, 0
1, 1440, Note_on_c, 5, 73, 96
1, 1440, Note_on_c, 6, 57, 96
1, 1440, Note_on_c, 6, 45, 96
1, 1450, Note_off_c, 5, 73, 0
1, 1452, Note_on_c, 5, 71, 96
1, 1462, Note_off_c, 5, 71, 0
1, 1464, Note_on_c, 5, 69, 96
1, 1474, Note_off_c, 5, 69, 0
1, 1476, Note_on_c, 5, 81, 96
1, 1482, Note_off_c, 6, 57, 0
1, 1482, Note_off_c, 6, 45, 0
1, 1486, Note_off_c, 5, 81, 0
1, 1488, Note_on_c, 5, 76, 96
1, 1498, Note_off_c, 5, 76, 0
1, 1500, Note_on_c, 5, 74, 96
1, 1510, Note_off_c, 5, 74, 0
1, 1512, Note_on_c, 5, 73, 96
1, 1512, Note_on_c, 6, 57, 96
1, 1524, Note_off_c, 5, 73, 0
1, 1524, Note_on_c, 5, 71, 96
1, 1533, Note_off_c, 6, 57, 0
1, 1536, Note_off_c, 5, 71, 0
1, 1536, Note_on_c, 5, 69, 96
1, 1536, Note_on_c, 6, 61, 96
1, 1546, Note_off_c, 5, 69, 0
1, 1548, Note_on_c, 5, 76, 96
1, 1557, Note_off_c, 6, 61, 0
1, 1558, Note_off_c, 5, 76, 0
1, 1560, Note_on_c, 5, 73, 96
1, 1560, Note_on_c, 6, 57, 96
1, 1570, Note_off_c, 5, 73, 0
1, 1572, Note_on_c, 5, 71, 96
1, 1581, Note_off_c, 6, 57, 0
1, 1582, Note_off_c, 5, 71, 0
1, 1584, Note_on_c, 5, 69, 96
1, 1584, Note_on_c, 6, 54, 96
1, 1594, Note_off_c, 5, 69, 0
1, 1596, Note_on_c, 5, 71, 96
1, 1605, Note_off_c, 6, 54, 0
1, 1606, Note_off_c, 5, 71, 0
1, 1608, Note_on_c, 5, 73, 96
1, 1608, Note_on_c, 6, 57, 96
1, 1618, Note_off_c, 5, 73, 0
1, 1620, Note_on_c, 5, 76, 96
1, 1629, Note_off_c, 6, 57, 0
1, 1632, Note_off_c, 5, 76, 0
1, 1632, Note_on_c, 5, 80, 96
1, 1632, Note_on_c, 6, 54, 96
1, 1644, Note_off_c, 5, 80, 0
1, 1644, Note_on_c, 5, 81, 96
1, 1653, Note_off_c, 6, 54, 0
1, 1654, Note_off_c, 5, 81, 0
1, 1656, Note_on_c, 5, 63, 96
1, 1656, Note_on_c, 6, 59, 96
1, 1666, Note_off_c, 5, 63, 0
1, 1668, Note_on_c, 5, 71, 96
1, 1677, Note_off_c, 6, 59, 0
1, 1678, Note_off_c, 5, 71, 0
1, 1680, Note_on_c, 5, 78, 96
1, 1680, Note_on_c, 6, 63, 96
1, 1690, Note_off_c, 5, 78, 0
1, 1692, Note_on_c, 5, 81, 96
1, 1701, Note_off_c, 6, 63, 0
1, 1702, Note_off_c, 5, 81, 0
1, 1704, Note_on_c, 5, 80, 96
1, 1704, Note_on_c, 6, 59, 96
1, 1714, Note_off_c, 5, 80, 0
1, 1716, Note_on_c, 5, 78, 96
1, 1725, Note_off_c, 6, 59, 0
1, 1726, Note_off_c, 5, 78, 0
1, 1728, Note_on_c, 5, 80, 96
1, 1728, Note_on_c, 6, 64, 96
1, 1728, Note_on_c, 6, 52, 96
1, 1738, Note_off_c, 5, 80, 0
1, 1740, Note_on_c, 5, 81, 96
1, 1750, Note_off_c, 5, 81, 0
1, 1752, Note_on_c, 5, 83, 96
1, 1762, Note_off_c, 5, 83, 0
1, 1764, Note_on_c, 5, 80, 96
1, 1770, Note_off_c, 6, 64, 0
1, 1770, Note_off_c, 6, 52, 0
1, 1774, Note_off_c, 5, 80, 0
1, 1776, Note_on_c, 5, 76, 96
1, 1786, Note_off_c, 5, 76, 0
1, 1788, Note_on_c, 5, 74, 96
1, 1798, Note_off_c, 5, 74, 0
1, 1800, Note_on_c, 5, 73, 96
1, 1800, Note_on_c, 6, 57, 96
1, 1810, Note_off_c, 5, 73, 0
1, 1812, Note_on_c, 5, 69, 96
1, 1821, Note_off_c, 6, 57, 0
1, 1822, Note_off_c, 5, 69, 0
1, 1824, Note_on_c, 5, 73, 96
1, 1824, Note_on_c, 6, 45, 96
1, 1834, Note_off_c, 5, 73, 0
1, 1836, Note_on_c, 5, 76, 96
1, 1845, Note_off_c, 6, 45, 0
1, 1846, Note_off_c, 5, 76, 0
1, 1848, Note_on_c, 5, 81, 96
1, 1848, Note_on_c, 6, 49, 96
1, 1858, Note_off_c, 5, 81, 0
1, 1860, Note_on_c, 5, 76, 96
1, 1869, Note_off_c, 6, 49, 0
1, 1870, Note_off_c, 5, 76, 0
1, 1872, Note_on_c, 5, 78, 96
1, 1872, Note_on_c, 6, 50, 96
1, 1872, Note_on_c, 6, 38, 96
1, 1884, Note_off_c, 5, 78, 0
1, 1884, Note_on_c, 5, 79, 96
1, 1896, Note_off_c, 5, 79, 0
1, 1896, Note_on_c, 5, 81, 96
1, 1906, Note_off_c, 5, 81, 0
1, 1908, Note_on_c, 5, 78, 96
1, 1914, Note_off_c, 6, 50, 0
1, 1914, Note_off_c, 6, 38, 0
1, 1918, Note_off_c, 5, 78, 0
1, 1920, Note_on_c, 5, 74, 96
1, 1930, Note_off_c, 5, 74, 0
1, 1932, Note_on_c, 5, 73, 96
1, 1942, Note_off_c, 5, 73, 0
1, 1944, Note_on_c, 5, 71, 96
1, 1944, Note_on_c, 6, 50, 96
1, 1954, Note_off_c, 5, 71, 0
1, 1956, Note_on_c, 5, 73, 96
1, 1965, Note_off_c, 6, 50, 0
1, 1966, Note_off_c, 5, 73, 0
1, 1968, Note_on_c, 5, 74, 96
1, 1968, Note_on_c, 6, 54, 96
1, 1978, Note_off_c, 5, 74, 0
1, 1980, Note_on_c, 5, 71, 96
1, 1989, Note_off_c, 6, 54, 0
1, 1990, Note_off_c, 5, 71, 0
1, 1992, Note_on_c, 5, 68, 96
1, 1992, Note_on_c, 6, 57, 96
1, 2002, Note_off_c, 5, 68, 0
1, 2004, Note_on_c, 5, 66, 96
1, 2013, Note_off_c, 6, 57, 0
1, 2014, Note_off_c, 5, 66, 0
1, 2016, Note_on_c, 5, 64, 96
1, 2016, Note_on_c, 6, 56, 96
1, 2026, Note_off_c, 5, 64, 0
1, 2028, Note_on_c, 5, 66, 96
1, 2037, Note_off_c, 6, 56, 0
1, 2038, Note_off_c, 5, 66, 0
1, 2040, Note_on_c, 5, 68, 96
1, 2040, Note_on_c, 6, 52, 96
1, 2050, Note_off_c, 5, 68, 0
1, 2052, Note_on_c, 5, 69, 96
1, 2061, Note_off_c, 6, 52, 0
1, 2062, Note_off_c, 5, 69, 0
1, 2064, Note_on_c, 5, 71, 96
1, 2064, Note_on_c, 6, 47, 96
1, 2074, Note_off_c, 5, 71, 0
1, 2076, Note_on_c, 5, 73, 96
1, 2085, Note_off_c, 6, 47, 0
1, 2086, Note_off_c, 5, 73, 0
1, 2088, Note_on_c, 5, 74, 96
1, 2088, Note_on_c, 6, 44, 96
1, 2098, Note_off_c, 5, 74, 0
1, 2100, Note_on_c, 5, 76, 96
1, 2109, Note_off_c, 6, 44, 0
1, 2110, Note_off_c, 5, 76, 0
1, 2112, Note_on_c, 5, 78, 96
1, 2112, Note_on_c, 6, 40, 96
1, 2122, Note_off_c, 5, 78, 0
1, 2124, Note_on_c, 5, 80, 96
1, 2133, Note_off_c, 6, 40, 0
1, 2134, Note_off_c, 5, 80, 0
1, 2136, Note_on_c, 5, 81, 96
1, 2136, Note_on_c, 6, 38, 96
1, 2146, Note_off_c, 5, 81, 0
1, 2148, Note_on_c, 5, 80, 96
1, 2157, Note_off_c, 6, 38, 0
1, 2158, Note_off_c, 5, 80, 0
1, 2160, Note_on_c, 5, 81, 96
1, 2160, Note_on_c, 6, 37, 96
1, 2170, Note_off_c, 5, 81, 0
1, 2172, Note_on_c, 5, 76, 96
1, 2181, Note_off_c, 6, 37, 0
1, 2182, Note_off_c, 5, 76, 0
1, 2184, Note_on_c, 5, 73, 96
1, 2184, Note_on_c, 6, 38, 96
1, 2194, Note_off_c, 5, 73, 0
1, 2196, Note_on_c, 5, 69, 96
1, 2205, Note_off_c, 6, 38, 0
1, 2206, Note_off_c, 5, 69, 0
1, 2208, Note_on_c, 5, 64, 96
1, 2208, Note_on_c, 6, 40, 96
1, 2218, Note_off_c, 5, 64, 0
1, 2220, Note_on_c, 5, 68, 96
1, 2229, Note_off_c, 6, 40, 0
1, 2230, Note_off_c, 5, 68, 0
1, 2232, Note_on_c, 5, 69, 96
1, 2232, Note_on_c, 6, 45, 96
1, 2242, Note_off_c, 5, 69, 0
1, 2244, Note_on_c, 5, 64, 96
1, 2253, Note_off_c, 6, 45, 0
1, 2254, Note_off_c, 5, 64, 0
1, 2256, Note_on_c, 3, 57, 96
1, 2256, Note_on_c, 4, 45, 96
1, 2256, Note_on_c, 5, 61, 96
1, 2256, Note_on_c, 6, 45, 96
1, 2266, Note_off_c, 3, 57, 0
1, 2266, Note_off_c, 4, 45, 0
1, 2266, Note_off_c, 5, 61, 0
1, 2266, Note_off_c, 6, 45, 0
1, 2268, Note_on_c, 3, 55, 96
1, 2268, Note_on_c, 4, 43, 96
1, 2268, Note_on_c, 5, 64, 96
1, 2268, Note_on_c, 6, 43, 96
1, 2278, Note_off_c, 3, 55, 0
1, 2278, Note_off_c, 4, 43, 0
1, 2278, Note_off_c, 5, 64, 0
1, 2278, Note_off_c, 6, 43, 0
1, 2280, Note_on_c, 3, 54, 96
1, 2280, Note_on_c, 4, 42, 96
1, 2280, Note_on_c, 5, 57, 96
1, 2280, Note_on_c, 6, 42, 96
1, 2290, Note_off_c, 3, 54, 0
1, 2290, Note_off_c, 4, 42, 0
1, 2290, Note_off_c, 6, 42, 0
1, 2292, Note_on_c, 3, 52, 96
1, 2292, Note_on_c, 4, 40, 96
1, 2292, Note_on_c, 6, 40, 96
1, 2301, Note_off_c, 5, 57, 0
1, 2302, Note_off_c, 3, 52, 0
1, 2302, Note_off_c, 4, 40, 0
1, 2302, Note_off_c, 6, 40, 0
1, 2304, Note_on_c, 0, 62, 96
1, 2304, Note_on_c, 1, 66, 96
1, 2304, Note_on_c, 2, 57, 96
1, 2304, Note_on_c, 3, 50, 96
1, 2304, Note_on_c, 4, 38, 96
1, 2304, Note_on_c, 5, 62, 96
1, 2304, Note_on_c, 6, 38, 96
1, 2314, Note_off_c, 5, 62, 0
1, 2316, Note_off_c, 0, 62, 0
1, 2316, Note_on_c, 0, 64, 96
1, 2316, Note_on_c, 5, 64, 96
1, 2326, Note_off_c, 5, 64, 0
1, 2328, Note_off_c, 0, 64, 0
1, 2328, Note_on_c, 0, 66, 96
1, 2328, Note_on_c, 5, 66, 96
1, 2338, Note_off_c, 5, 66, 0
1, 2340, Note_off_c, 0, 66, 0
1, 2340, Note_on_c, 0, 69, 96
1, 2340, Note_on_c, 5, 69, 96
1, 2346, Note_off_c, 1, 66, 0
1, 2346, Note_off_c, 2, 57, 0
1, 2346, Note_off_c, 3, 50, 0
1, 2346, Note_off_c, 4, 38, 0
1, 2346, Note_off_c, 6, 38, 0
1, 2350, Note_off_c, 0, 69, 0
1, 2350, Note_off_c, 5, 69, 0
1, 2352, Note_on_c, 0, 74, 96
1, 2352, Note_on_c, 5, 74, 96
1, 2358, Note_off_c, 0, 74, 0
1, 2373, Note_off_c, 5, 74, 0
1, 2376, Note_on_c, 0, 74, 96
1, 2376, Note_on_c, 1, 69, 96
1, 2376, Note_on_c, 2, 57, 96
1, 2376, Note_on_c, 3, 54, 96
1, 2376, Note_on_c, 4, 42, 96
1, 2376, Note_on_c, 5, 74, 96
1, 2376, Note_on_c, 6, 54, 96
1, 2386, Note_off_c, 5, 74, 0
1, 2388, Note_off_c, 0, 74, 0
1, 2388, Note_on_c, 0, 73, 96
1, 2388, Note_on_c, 5, 73, 96
1, 2397, Note_off_c, 1, 69, 0
1, 2397, Note_off_c, 2, 57, 0
1, 2397, Note_off_c, 3, 54, 0
1, 2397, Note_off_c, 4, 42, 0
1, 2397, Note_off_c, 6, 54, 0
1, 2398, Note_off_c, 0, 73, 0
1, 2398, Note_off_c, 5, 73, 0
1, 2400, Note_on_c, 0, 76, 96
1, 2400, Note_on_c, 1, 67, 96
1, 2400, Note_on_c, 2, 61, 96
1, 2400, Note_on_c, 3, 52, 96
1, 2400, Note_on_c, 4, 40, 96
1, 2400, Note_on_c, 5, 76, 96
1, 2400, Note_on_c, 6, 52, 96
1, 2410, Note_off_c, 5, 76, 0
1, 2412, Note_off_c, 0, 76, 0
1, 2412, Note_on_c, 0, 74, 96
1, 2412, Note_on_c, 5, 74, 96
1, 2421, Note_off_c, 1, 67, 0
1, 2421, Note_off_c, 2, 61, 0
1, 2421, Note_off_c, 3, 52, 0
1, 2421, Note_off_c, 4, 40, 0
1, 2421, Note_off_c, 6, 52, 0
1, 2422, Note_off_c, 0, 74, 0
1, 2422, Note_off_c, 5, 74, 0
1, 2424, Note_on_c, 0, 73, 96
1, 2424, Note_on_c, 1, 69, 96
1, 2424, Note_on_c, 2, 66, 96
1, 2424, Note_on_c, 3, 50, 96
1, 2424, Note_on_c, 4, 38, 96
1, 2424, Note_on_c, 5, 73, 96
1, 2424, Note_on_c, 6, 50, 96
1, 2434, Note_off_c, 5, 73, 0
1, 2436, Note_off_c, 0, 73, 0
1, 2436, Note_on_c, 0, 71, 96
1, 2436, Note_on_c, 5, 71, 96
1, 2445, Note_off_c, 1, 69, 0
1, 2445, Note_off_c, 2, 66, 0
1, 2445, Note_off_c, 3, 50, 0
1, 2445, Note_off_c, 4, 38, 0
1, 2445, Note_off_c, 6, 50, 0
1, 2446, Note_off_c, 0, 71, 0
1, 2446, Note_off_c, 5, 71, 0
1, 2448, Note_on_c, 0, 69, 96
1, 2448, Note_on_c, 1, 69, 96
1, 2448, Note_on_c, 2, 64, 96
1, 2448, Note_on_c, 3, 49, 96
1, 2448, Note_on_c, 4, 37, 96
1, 2448, Note_on_c, 5, 69, 96
1, 2448, Note_on_c, 6, 49, 96
1, 2458, Note_off_c, 5, 69, 0
1, 2460, Note_off_c, 0, 69, 0
1, 2460, Note_on_c, 0, 71, 96
1, 2460, Note_on_c, 5, 71, 96
1, 2470, Note_off_c, 5, 71, 0
1, 2472, Note_off_c, 0, 71, 0
1, 2472, Note_on_c, 0, 73, 96
1, 2472, Note_on_c, 5, 73, 96
1, 2482, Note_off_c, 5, 73, 0
1, 2484, Note_off_c, 0, 73, 0
1, 2484, Note_on_c, 0, 76, 96
1, 2484, Note_on_c, 5, 76, 96
1, 2490, Note_off_c, 1, 69, 0
1, 2490, Note_off_c, 2, 64, 0
1, 2490, Note_off_c, 3, 49, 0
1, 2490, Note_off_c, 4, 37, 0
1, 2490, Note_off_c, 6, 49, 0
1, 2494, Note_off_c, 0, 76, 0
1, 2494, Note_off_c, 5, 76, 0
1, 2496, Note_on_c, 0, 79, 96
1, 2496, Note_on_c, 5, 79, 96
1, 2502, Note_off_c, 0, 79, 0
1, 2517, Note_off_c, 5, 79, 0
1, 2520, Note_on_c, 0, 79, 96
1, 2520, Note_on_c, 1, 69, 96
1, 2520, Note_on_c, 2, 64, 96
1, 2520, Note_on_c, 3, 49, 96
1, 2520, Note_on_c, 4, 37, 96
1, 2520, Note_on_c, 5, 79, 96
1, 2520, Note_on_c, 6, 49, 96
1, 2541, Note_off_c, 1, 69, 0
1, 2541, Note_off_c, 2, 64, 0
1, 2541, Note_off_c, 3, 49, 0
1, 2541, Note_off_c, 4, 37, 0
1, 2541, Note_off_c, 6, 49, 0
1, 2544, Note_on_c, 1, 71, 96
1, 2544, Note_on_c, 2, 62, 96
1, 2544, Note_on_c, 3, 47, 96
1, 2544, Note_on_c, 4, 35, 96
1, 2544, Note_on_c, 6, 47, 96
1, 2565, Note_off_c, 1, 71, 0
1, 2565, Note_off_c, 2, 62, 0
1, 2565, Note_off_c, 3, 47, 0
1, 2565, Note_off_c, 4, 35, 0
1, 2565, Note_off_c, 6, 47, 0
1, 2568, Note_on_c, 1, 73, 96
1, 2568, Note_on_c, 2, 64, 96
1, 2568, Note_on_c, 3, 45, 96
1, 2568, Note_on_c, 4, 33, 96
1, 2568, Note_on_c, 6, 45, 96
1, 2583, Note_off_c, 0, 79, 0
1, 2583, Note_off_c, 5, 79, 0
1, 2589, Note_off_c, 1, 73, 0
1, 2589, Note_off_c, 2, 64, 0
1, 2589, Note_off_c, 3, 45, 0
1, 2589, Note_off_c, 4, 33, 0
1, 2589, Note_off_c, 6, 45, 0
1, 2592, Note_on_c, 0, 78, 96
1, 2592, Note_on_c, 1, 74, 96
1, 2592, Note_on_c, 2, 57, 96
1, 2592, Note_on_c, 3, 50, 96
1, 2592, Note_on_c, 4, 38, 96
1, 2592, Note_on_c, 5, 78, 96
1, 2592, Note_on_c, 6, 50, 96
1, 2602, Note_off_c, 5, 78, 0
1, 2604, Note_off_c, 0, 78, 0
1, 2604, Note_on_c, 0, 76, 96
1, 2604, Note_on_c, 5, 76, 96
1, 2613, Note_off_c, 1, 74, 0
1, 2613, Note_off_c, 3, 50, 0
1, 2613, Note_off_c, 4, 38, 0
1, 2613, Note_off_c, 6, 50, 0
1, 2614, Note_off_c, 0, 76, 0
1, 2614, Note_off_c, 5, 76, 0
1, 2616, Note_on_c, 0, 79, 96
1, 2616, Note_on_c, 1, 69, 96
1, 2616, Note_on_c, 3, 49, 96
1, 2616, Note_on_c, 4, 37, 96
1, 2616, Note_on_c, 5, 79, 96
1, 2616, Note_on_c, 6, 49, 96
1, 2626, Note_off_c, 5, 79, 0
1, 2628, Note_off_c, 0, 79, 0
1, 2628, Note_on_c, 0, 78, 96
1, 2628, Note_on_c, 5, 78, 96
1, 2634, Note_off_c, 2, 57, 0
1, 2637, Note_off_c, 1, 69, 0
1, 2637, Note_off_c, 3, 49, 0
1, 2637, Note_off_c, 4, 37, 0
1, 2637, Note_off_c, 6, 49, 0
1, 2638, Note_off_c, 0, 78, 0
1, 2638, Note_off_c, 5, 78, 0
1, 2640, Note_on_c, 0, 76, 96
1, 2640, Note_on_c, 1, 68, 96
1, 2640, Note_on_c, 2, 62, 96
1, 2640, Note_on_c, 3, 47, 96
1, 2640, Note_on_c, 4, 35, 96
1, 2640, Note_on_c, 5, 76, 96
1, 2640, Note_on_c, 6, 47, 96
1, 2650, Note_off_c, 5, 76, 0
1, 2652, Note_off_c, 0, 76, 0
1, 2652, Note_on_c, 0, 74, 96
1, 2652, Note_on_c, 5, 74, 96
1, 2661, Note_off_c, 1, 68, 0
1, 2661, Note_off_c, 2, 62, 0
1, 2661, Note_off_c, 3, 47, 0
1, 2661, Note_off_c, 4, 35, 0
1, 2661, Note_off_c, 6, 47, 0
1, 2662, Note_off_c, 0, 74, 0
1, 2662, Note_off_c, 5, 74, 0
1, 2664, Note_on_c, 0, 73, 96
1, 2664, Note_on_c, 1, 69, 96
1, 2664, Note_on_c, 2, 64, 96
1, 2664, Note_on_c, 3, 45, 96
1, 2664, Note_on_c, 4, 33, 96
1, 2664, Note_on_c, 5, 73, 96
1, 2664, Note_on_c, 6, 45, 96
1, 2674, Note_off_c, 5, 73, 0
1, 2676, Note_off_c, 0, 73, 0
1, 2676, Note_on_c, 0, 71, 96
1, 2676, Note_on_c, 5, 71, 96
1, 2685, Note_off_c, 1, 69, 0
1, 2685, Note_off_c, 3, 45, 0
1, 2685, Note_off_c, 4, 33, 0
1, 2685, Note_off_c, 6, 45, 0
1, 2686, Note_off_c, 0, 71, 0
1, 2686, Note_off_c, 5, 71, 0
1, 2688, Note_on_c, 0, 74, 96
1, 2688, Note_on_c, 1, 64, 96
1, 2688, Note_on_c, 3, 43, 96
1, 2688, Note_on_c, 4, 31, 96
1, 2688, Note_on_c, 5, 74, 96
1, 2688, Note_on_c, 6, 43, 96
1, 2698, Note_off_c, 5, 74, 0
1, 2700, Note_off_c, 0, 74, 0
1, 2700, Note_on_c, 0, 73, 96
1, 2700, Note_on_c, 5, 73, 96
1, 2706, Note_off_c, 2, 64, 0
1, 2709, Note_off_c, 1, 64, 0
1, 2709, Note_off_c, 3, 43, 0
1, 2709, Note_off_c, 4, 31, 0
1, 2709, Note_off_c, 6, 43, 0
1, 2710, Note_off_c, 0, 73, 0
1, 2710, Note_off_c, 5, 73, 0
1, 2712, Note_on_c, 0, 71, 96
1, 2712, Note_on_c, 1, 66, 96
1, 2712, Note_on_c, 2, 62, 96
1, 2712, Note_on_c, 3, 42, 96
1, 2712, Note_on_c, 4, 30, 96
1, 2712, Note_on_c, 5, 71, 96
1, 2712, Note_on_c, 6, 42, 96
1, 2722, Note_off_c, 5, 71, 0
1, 2724, Note_off_c, 0, 71, 0
1, 2724, Note_on_c, 0, 69, 96
1, 2724, Note_on_c, 5, 69, 96
1, 2733, Note_off_c, 1, 66, 0
1, 2733, Note_off_c, 2, 62, 0
1, 2733, Note_off_c, 3, 42, 0
1, 2733, Note_off_c, 4, 30, 0
1, 2733, Note_off_c, 6, 42, 0
1, 2734, Note_off_c, 0, 69, 0
1, 2734, Note_off_c, 5, 69, 0
1, 2736, Note_on_c, 0, 67, 96
1, 2736, Note_on_c, 1, 67, 96
1, 2736, Note_on_c, 2, 61, 96
1, 2736, Note_on_c, 3, 40, 96
1, 2736, Note_on_c, 4, 28, 96
1, 2736, Note_on_c, 5, 67, 96
1, 2736, Note_on_c, 6, 40, 96
1, 2746, Note_off_c, 5, 67, 0
1, 2748, Note_off_c, 0, 67, 0
1, 2748, Note_on_c, 0, 66, 96
1, 2748, Note_on_c, 5, 66, 96
1, 2757, Note_off_c, 1, 67, 0
1, 2757, Note_off_c, 2, 61, 0
1, 2757, Note_off_c, 3, 40, 0
1, 2757, Note_off_c, 4, 28, 0
1, 2757, Note_off_c, 6, 40, 0
1, 2758, Note_off_c, 0, 66, 0
1, 2758, Note_off_c, 5, 66, 0
1, 2760, Note_on_c, 0, 69, 96
1, 2760, Note_on_c, 1, 64, 96
1, 2760, Note_on_c, 2, 64, 96
1, 2760, Note_on_c, 3, 49, 96
1, 2760, Note_on_c, 4, 37, 96
1, 2760, Note_on_c, 5, 69, 96
1, 2760, Note_on_c, 6, 49, 96
1, 2770, Note_off_c, 5, 69, 0
1, 2772, Note_off_c, 0, 69, 0
1, 2772, Note_on_c, 0, 67, 96
1, 2772, Note_on_c, 5, 67, 96
1, 2781, Note_off_c, 1, 64, 0
1, 2781, Note_off_c, 2, 64, 0
1, 2781, Note_off_c, 3, 49, 0
1, 2781, Note_off_c, 4, 37, 0
1, 2781, Note_off_c, 6, 49, 0
1, 2782, Note_off_c, 0, 67, 0
1, 2782, Note_off_c, 5, 67, 0
1, 2784, Note_on_c, 0, 66, 96
1, 2784, Note_on_c, 1, 62, 96
1, 2784, Note_on_c, 2, 57, 96
1, 2784, Note_on_c, 3, 50, 96
1, 2784, Note_on_c, 4, 38, 96
1, 2784, Note_on_c, 5, 66, 96
1, 2784, Note_on_c, 6, 50, 96
1, 2794, Note_off_c, 5, 66, 0
1, 2796, Note_off_c, 0, 66, 0
1, 2796, Note_on_c, 0, 67, 96
1, 2796, Note_on_c, 5, 67, 96
1, 2805, Note_off_c, 1, 62, 0
1, 2805, Note_off_c, 2, 57, 0
1, 2805, Note_off_c, 3, 50, 0
1, 2805, Note_off_c, 4, 38, 0
1, 2805, Note_off_c, 6, 50, 0
1, 2806, Note_off_c, 0, 67, 0
1, 2806, Note_off_c, 5, 67, 0
1, 2808, Note_on_c, 0, 64, 96
1, 2808, Note_on_c, 1, 61, 96
1, 2808, Note_on_c, 2, 57, 96
1, 2808, Note_on_c, 3, 45, 96
1, 2808, Note_on_c, 4, 33, 96
1, 2808, Note_on_c, 5, 64, 96
1, 2808, Note_on_c, 6, 45, 96
1, 2818, Note_off_c, 5, 64, 0
1, 2820, Note_off_c, 0, 64, 0
1, 2820, Note_on_c, 0, 62, 96
1, 2820, Note_on_c, 5, 62, 96
1, 2829, Note_off_c, 1, 61, 0
1, 2829, Note_off_c, 3, 45, 0
1, 2829, Note_off_c, 4, 33, 0
1, 2829, Note_off_c, 6, 45, 0
1, 2830, Note_off_c, 5, 62, 0
1, 2832, Note_off_c, 0, 62, 0
1, 2832, Note_on_c, 0, 64, 96
1, 2832, Note_on_c, 1, 64, 96
1, 2832, Note_on_c, 3, 49, 96
1, 2832, Note_on_c, 4, 37, 96
1, 2832, Note_on_c, 5, 64, 96
1, 2832, Note_on_c, 6, 49, 96
1, 2839, Note_off_c, 2, 57, 0
1, 2842, Note_off_c, 0, 64, 0
1, 2842, Note_off_c, 5, 64, 0
1, 2844, Note_on_c, 0, 67, 96
1, 2844, Note_on_c, 2, 59, 96
1, 2844, Note_on_c, 5, 67, 96
1, 2853, Note_off_c, 1, 64, 0
1, 2853, Note_off_c, 3, 49, 0
1, 2853, Note_off_c, 4, 37, 0
1, 2853, Note_off_c, 6, 49, 0
1, 2854, Note_off_c, 0, 67, 0
1, 2854, Note_off_c, 2, 59, 0
1, 2854, Note_off_c, 5, 67, 0
1, 2856, Note_on_c, 0, 66, 96
1, 2856, Note_on_c, 1, 61, 96
1, 2856, Note_on_c, 2, 57, 96
1, 2856, Note_on_c, 3, 45, 96
1, 2856, Note_on_c, 4, 33, 96
1, 2856, Note_on_c, 5, 66, 96
1, 2856, Note_on_c, 6, 45, 96
1, 2866, Note_off_c, 0, 66, 0
1, 2866, Note_off_c, 2, 57, 0
1, 2866, Note_off_c, 5, 66, 0
1, 2868, Note_on_c, 0, 64, 96
1, 2868, Note_on_c, 2, 55, 96
1, 2868, Note_on_c, 5, 64, 96
1, 2877, Note_off_c, 1, 61, 0
1, 2877, Note_off_c, 3, 45, 0
1, 2877, Note_off_c, 4, 33, 0
1, 2877, Note_off_c, 6, 45, 0
1, 2878, Note_off_c, 0, 64, 0
1, 2878, Note_off_c, 2, 55, 0
1, 2878, Note_off_c, 5, 64, 0
1, 2880, Note_on_c, 0, 62, 96
1, 2880, Note_on_c, 1, 57, 96
1, 2880, Note_on_c, 2, 54, 96
1, 2880, Note_on_c, 3, 38, 96
1, 2880, Note_on_c, 4, 26, 96
1, 2880, Note_on_c, 5, 62, 96
1, 2880, Note_on_c, 6, 38, 96
1, 2890, Note_off_c, 5, 62, 0
1, 2892, Note_off_c, 0, 62, 0
1, 2892, Note_on_c, 0, 64, 96
1, 2892, Note_on_c, 5, 64, 96
1, 2901, Note_off_c, 1, 57, 0
1, 2901, Note_off_c, 2, 54, 0
1, 2901, Note_off_c, 3, 38, 0
1, 2901, Note_off_c, 4, 26, 0
1, 2901, Note_off_c, 6, 38, 0
1, 2902, Note_off_c, 5, 64, 0
1, 2904, Note_off_c, 0, 64, 0
1, 2904, Note_on_c, 0, 66, 96
1, 2904, Note_on_c, 1, 69, 96
1, 2904, Note_on_c, 2, 62, 96
1, 2904, Note_on_c, 3, 50, 96
1, 2904, Note_on_c, 4, 38, 96
1, 2904, Note_on_c, 5, 66, 96
1, 2904, Note_on_c, 6, 50, 96
1, 2914, Note_off_c, 5, 66, 0
1, 2916, Note_off_c, 0, 66, 0
1, 2916, Note_on_c, 0, 69, 96
1, 2916, Note_on_c, 5, 69, 96
1, 2925, Note_off_c, 1, 69, 0
1, 2925, Note_off_c, 2, 62, 0
1, 2925, Note_off_c, 3, 50, 0
1, 2925, Note_off_c, 4, 38, 0
1, 2925, Note_off_c, 6, 50, 0
1, 2926, Note_off_c, 0, 69, 0
1, 2926, Note_off_c, 5, 69, 0
1, 2928, Note_on_c, 0, 74, 96
1, 2928, Note_on_c, 1, 69, 96
1, 2928, Note_on_c, 2, 66, 96
1, 2928, Note_on_c, 3, 49, 96
1, 2928, Note_on_c, 4, 37, 96
1, 2928, Note_on_c, 5, 74, 96
1, 2928, Note_on_c, 6, 49, 96
1, 2934, Note_off_c, 0, 74, 0
1, 2949, Note_off_c, 1, 69, 0
1, 2949, Note_off_c, 2, 66, 0
1, 2949, Note_off_c, 3, 49, 0
1, 2949, Note_off_c, 4, 37, 0
1, 2949, Note_off_c, 5, 74, 0
1, 2949, Note_off_c, 6, 49, 0
1, 2952, Note_on_c, 0, 74, 96
1, 2952, Note_on_c, 1, 71, 96
1, 2952, Note_on_c, 2, 66, 96
1, 2952, Note_on_c, 3, 47, 96
1, 2952, Note_on_c, 4, 35, 96
1, 2952, Note_on_c, 5, 74, 96
1, 2952, Note_on_c, 6, 47, 96
1, 2962, Note_off_c, 5, 74, 0
1, 2964, Note_off_c, 0, 74, 0
1, 2964, Note_on_c, 0, 73, 96
1, 2964, Note_on_c, 5, 73, 96
1, 2973, Note_off_c, 1, 71, 0
1, 2973, Note_off_c, 3, 47, 0
1, 2973, Note_off_c, 4, 35, 0
1, 2973, Note_off_c, 6, 47, 0
1, 2974, Note_off_c, 0, 73, 0
1, 2974, Note_off_c, 5, 73, 0
1, 2976, Note_on_c, 0, 76, 96
1, 2976, Note_on_c, 1, 66, 96
1, 2976, Note_on_c, 3, 45, 96
1, 2976, Note_on_c, 4, 33, 96
1, 2976, Note_on_c, 5, 76, 96
1, 2976, Note_on_c, 6, 45, 96
1, 2986, Note_off_c, 5, 76, 0
1, 2988, Note_off_c, 0, 76, 0
1, 2988, Note_on_c, 0, 74, 96
1, 2988, Note_on_c, 5, 74, 96
1, 2994, Note_off_c, 2, 66, 0
1, 2997, Note_off_c, 1, 66, 0
1, 2997, Note_off_c, 3, 45, 0
1, 2997, Note_off_c, 4, 33, 0
1, 2997, Note_off_c, 6, 45, 0
1, 2998, Note_off_c, 0, 74, 0
1, 2998, Note_off_c, 5, 74, 0
1, 3000, Note_on_c, 0, 73, 96
1, 3000, Note_on_c, 1, 67, 96
1, 3000, Note_on_c, 2, 64, 96
1, 3000, Note_on_c, 3, 43, 96
1, 3000, Note_on_c, 4, 31, 96
1, 3000, Note_on_c, 5, 73, 96
1, 3000, Note_on_c, 6, 43, 96
1, 3010, Note_off_c, 5, 73, 0
1, 3012, Note_off_c, 0, 73, 0
1, 3012, Note_on_c, 0, 71, 96
1, 3012, Note_on_c, 5, 71, 96
1, 3021, Note_off_c, 1, 67, 0
1, 3021, Note_off_c, 2, 64, 0
1, 3021, Note_off_c, 3, 43, 0
1, 3021, Note_off_c, 4, 31, 0
1, 3021, Note_off_c, 6, 43, 0
1, 3022, Note_off_c, 0, 71, 0
1, 3022, Note_off_c, 5, 71, 0
1, 3024, Note_on_c, 0, 62, 96
1, 3024, Note_on_c, 1, 69, 96
1, 3024, Note_on_c, 2, 62, 96
1, 3024, Note_on_c, 3, 42, 96
1, 3024, Note_on_c, 4, 30, 96
1, 3024, Note_on_c, 5, 62, 96
1, 3024, Note_on_c, 6, 42, 96
1, 3034, Note_off_c, 5, 62, 0
1, 3036, Note_off_c, 0, 62, 0
1, 3036, Note_on_c, 0, 64, 96
1, 3036, Note_on_c, 5, 64, 96
1, 3045, Note_off_c, 1, 69, 0
1, 3045, Note_off_c, 2, 62, 0
1, 3045, Note_off_c, 3, 42, 0
1, 3045, Note_off_c, 4, 30, 0
1, 3045, Note_off_c, 6, 42, 0
1, 3046, Note_off_c, 5, 64, 0
1, 3048, Note_off_c, 0, 64, 0
1, 3048, Note_on_c, 0, 66, 96
1, 3048, Note_on_c, 1, 72, 96
1, 3048, Note_on_c, 2, 57, 96
1, 3048, Note_on_c, 3, 40, 96
1, 3048, Note_on_c, 4, 28, 96
1, 3048, Note_on_c, 5, 66, 96
1, 3048, Note_on_c, 6, 40, 96
1, 3058, Note_off_c, 5, 66, 0
1, 3060, Note_off_c, 0, 66, 0
1, 3060, Note_on_c, 0, 69, 96
1, 3060, Note_on_c, 5, 69, 96
1, 3069, Note_off_c, 1, 72, 0
1, 3069, Note_off_c, 2, 57, 0
1, 3069, Note_off_c, 3, 40, 0
1, 3069, Note_off_c, 4, 28, 0
1, 3069, Note_off_c, 6, 40, 0
1, 3070, Note_off_c, 0, 69, 0
1, 3070, Note_off_c, 5, 69, 0
1, 3072, Note_on_c, 0, 72, 96
1, 3072, Note_on_c, 1, 69, 96
1, 3072, Note_on_c, 2, 54, 96
1, 3072, Note_on_c, 3, 38, 96
1, 3072, Note_on_c, 4, 26, 96
1, 3072, Note_on_c, 5, 72, 96
1, 3072, Note_on_c, 6, 38, 96
1, 3078, Note_off_c, 0, 72, 0
1, 3093, Note_off_c, 1, 69, 0
1, 3093, Note_off_c, 2, 54, 0
1, 3093, Note_off_c, 3, 38, 0
1, 3093, Note_off_c, 4, 26, 0
1, 3093, Note_off_c, 5, 72, 0
1, 3093, Note_off_c, 6, 38, 0
1, 3096, Note_on_c, 0, 72, 96
1, 3096, Note_on_c, 1, 66, 96
1, 3096, Note_on_c, 2, 50, 96
1, 3096, Note_on_c, 3, 50, 96
1, 3096, Note_on_c, 4, 38, 96
1, 3096, Note_on_c, 5, 72, 96
1, 3096, Note_on_c, 6, 50, 96
1, 3117, Note_off_c, 1, 66, 0
1, 3117, Note_off_c, 3, 50, 0
1, 3117, Note_off_c, 4, 38, 0
1, 3117, Note_off_c, 6, 50, 0
1, 3120, Note_on_c, 1, 67, 96
1, 3120, Note_on_c, 3, 52, 96
1, 3120, Note_on_c, 4, 40, 96
1, 3120, Note_on_c, 6, 52, 96
1, 3141, Note_off_c, 1, 67, 0
1, 3141, Note_off_c, 3, 52, 0
1, 3141, Note_off_c, 4, 40, 0
1, 3141, Note_off_c, 6, 52, 0
1, 3144, Note_on_c, 1, 69, 96
1, 3144, Note_on_c, 3, 54, 96
1, 3144, Note_on_c, 4, 42, 96
1, 3144, Note_on_c, 6, 54, 96
1, 3159, Note_off_c, 0, 72, 0
1, 3159, Note_off_c, 2, 50, 0
1, 3159, Note_off_c, 5, 72, 0
1, 3165, Note_off_c, 1, 69, 0
1, 3165, Note_off_c, 3, 54, 0
1, 3165, Note_off_c, 4, 42, 0
1, 3165, Note_off_c, 6, 54, 0
1, 3168, Note_on_c, 0, 71, 96
1, 3168, Note_on_c, 1, 67, 96
1, 3168, Note_on_c, 2, 62, 96
1, 3168, Note_on_c, 3, 55, 96
1, 3168, Note_on_c, 4, 43, 96
1, 3168, Note_on_c, 5, 71, 96
1, 3168, Note_on_c, 6, 55, 96
1, 3178, Note_off_c, 5, 71, 0
1, 3180, Note_off_c, 0, 71, 0
1, 3180, Note_on_c, 0, 74, 96
1, 3180, Note_on_c, 5, 74, 96
1, 3189, Note_off_c, 1, 67, 0
1, 3189, Note_off_c, 2, 62, 0
1, 3189, Note_off_c, 3, 55, 0
1, 3189, Note_off_c, 4, 43, 0
1, 3189, Note_off_c, 6, 55, 0
1, 3190, Note_off_c, 0, 74, 0
1, 3190, Note_off_c, 5, 74, 0
1, 3192, Note_on_c, 0, 79, 96
1, 3192, Note_on_c, 1, 71, 96
1, 3192, Note_on_c, 2, 64, 96
1, 3192, Note_on_c, 3, 52, 96
1, 3192, Note_on_c, 4, 40, 96
1, 3192, Note_on_c, 5, 79, 96
1, 3192, Note_on_c, 6, 52, 96
1, 3202, Note_off_c, 5, 79, 0
1, 3204, Note_off_c, 0, 79, 0
1, 3204, Note_on_c, 0, 78, 96
1, 3204, Note_on_c, 5, 78, 96
1, 3213, Note_off_c, 1, 71, 0
1, 3213, Note_off_c, 2, 64, 0
1, 3213, Note_off_c, 3, 52, 0
1, 3213, Note_off_c, 4, 40, 0
1, 3213, Note_off_c, 6, 52, 0
1, 3214, Note_off_c, 0, 78, 0
1, 3214, Note_off_c, 5, 78, 0
1, 3216, Note_on_c, 0, 76, 96
1, 3216, Note_on_c, 1, 71, 96
1, 3216, Note_on_c, 2, 64, 96
1, 3216, Note_on_c, 3, 55, 96
1, 3216, Note_on_c, 4, 43, 96
1, 3216, Note_on_c, 5, 76, 96
1, 3216, Note_on_c, 6, 55, 96
1, 3226, Note_off_c, 5, 76, 0
1, 3228, Note_off_c, 0, 76, 0
1, 3228, Note_on_c, 0, 74, 96
1, 3228, Note_on_c, 5, 74, 96
1, 3237, Note_off_c, 1, 71, 0
1, 3237, Note_off_c, 2, 64, 0
1, 3237, Note_off_c, 3, 55, 0
1, 3237, Note_off_c, 4, 43, 0
1, 3237, Note_off_c, 6, 55, 0
1, 3238, Note_off_c, 0, 74, 0
1, 3238, Note_off_c, 5, 74, 0
1, 3240, Note_on_c, 0, 73, 96
1, 3240, Note_on_c, 1, 69, 96
1, 3240, Note_on_c, 2, 64, 96
1, 3240, Note_on_c, 3, 57, 96
1, 3240, Note_on_c, 4, 45, 96
1, 3240, Note_on_c, 5, 73, 96
1, 3240, Note_on_c, 6, 57, 96
1, 3250, Note_off_c, 5, 73, 0
1, 3252, Note_off_c, 0, 73, 0
1, 3252, Note_on_c, 0, 71, 96
1, 3252, Note_on_c, 5, 71, 96
1, 3261, Note_off_c, 1, 69, 0
1, 3261, Note_off_c, 2, 64, 0
1, 3261, Note_off_c, 3, 57, 0
1, 3261, Note_off_c, 4, 45, 0
1, 3261, Note_off_c, 6, 57, 0
1, 3262, Note_off_c, 0, 71, 0
1, 3262, Note_off_c, 5, 71, 0
1, 3264, Note_on_c, 0, 74, 96
1, 3264, Note_on_c, 1, 69, 96
1, 3264, Note_on_c, 2, 64, 96
1, 3264, Note_on_c, 3, 59, 96
1, 3264, Note_on_c, 4, 47, 96
1, 3264, Note_on_c, 5, 74, 96
1, 3264, Note_on_c, 6, 59, 96
1, 3274, Note_off_c, 5, 74, 0
1, 3276, Note_off_c, 0, 74, 0
1, 3276, Note_on_c, 0, 73, 96
1, 3276, Note_on_c, 5, 73, 96
1, 3285, Note_off_c, 1, 69, 0
1, 3285, Note_off_c, 2, 64, 0
1, 3285, Note_off_c, 3, 59, 0
1, 3285, Note_off_c, 4, 47, 0
1, 3285, Note_off_c, 6, 59, 0
1, 3286, Note_off_c, 0, 73, 0
1, 3286, Note_off_c, 5, 73, 0
1, 3288, Note_on_c, 0, 71, 96
1, 3288, Note_on_c, 1, 69, 96
1, 3288, Note_on_c, 2, 64, 96
1, 3288, Note_on_c, 3, 61, 96
1, 3288, Note_on_c, 4, 49, 96
1, 3288, Note_on_c, 5, 71, 96
1, 3288, Note_on_c, 6, 61, 96
1, 3298, Note_off_c, 5, 71, 0
1, 3300, Note_off_c, 0, 71, 0
1, 3300, Note_on_c, 0, 69, 96
1, 3300, Note_on_c, 5, 69, 96
1, 3309, Note_off_c, 1, 69, 0
1, 3309, Note_off_c, 2, 64, 0
1, 3309, Note_off_c, 3, 61, 0
1, 3309, Note_off_c, 4, 49, 0
1, 3309, Note_off_c, 6, 61, 0
1, 3310, Note_off_c, 0, 69, 0
1, 3310, Note_off_c, 5, 69, 0
1, 3312, Note_on_c, 0, 78, 96
1, 3312, Note_on_c, 1, 69, 96
1, 3312, Note_on_c, 2, 62, 96
1, 3312, Note_on_c, 3, 62, 96
1, 3312, Note_on_c, 4, 50, 96
1, 3312, Note_on_c, 5, 78, 96
1, 3312, Note_on_c, 6, 62, 96
1, 3333, Note_off_c, 0, 78, 0
1, 3333, Note_off_c, 1, 69, 0
1, 3333, Note_off_c, 2, 62, 0
1, 3333, Note_off_c, 3, 62, 0
1, 3333, Note_off_c, 4, 50, 0
1, 3333, Note_off_c, 5, 78, 0
1, 3333, Note_off_c, 6, 62, 0
1, 3336, Note_on_c, 0, 79, 96
1, 3336, Note_on_c, 1, 71, 96
1, 3336, Note_on_c, 2, 62, 96
1, 3336, Note_on_c, 3, 55, 96
1, 3336, Note_on_c, 4, 43, 96
1, 3336, Note_on_c, 5, 79, 96
1, 3336, Note_on_c, 6, 55, 96
1, 3357, Note_off_c, 0, 79, 0
1, 3357, Note_off_c, 1, 71, 0
1, 3357, Note_off_c, 2, 62, 0
1, 3357, Note_off_c, 3, 55, 0
1, 3357, Note_off_c, 4, 43, 0
1, 3357, Note_off_c, 5, 79, 0
1, 3357, Note_off_c, 6, 55, 0
1, 3360, Note_on_c, 0, 76, 96
1, 3360, Note_on_c, 1, 69, 96
1, 3360, Note_on_c, 2, 61, 96
1, 3360, Note_on_c, 3, 57, 96
1, 3360, Note_on_c, 4, 45, 96
1, 3360, Note_on_c, 5, 76, 96
1, 3360, Note_on_c, 6, 57, 96
1, 3381, Note_off_c, 0, 76, 0
1, 3381, Note_off_c, 1, 69, 0
1, 3381, Note_off_c, 2, 61, 0
1, 3381, Note_off_c, 3, 57, 0
1, 3381, Note_off_c, 4, 45, 0
1, 3381, Note_off_c, 5, 76, 0
1, 3381, Note_off_c, 6, 57, 0
1, 3384, Note_on_c, 0, 74, 96
1, 3384, Note_on_c, 1, 66, 96
1, 3384, Note_on_c, 2, 57, 96
1, 3384, Note_on_c, 3, 50, 96
1, 3384, Note_on_c, 4, 38, 96
1, 3384, Note_on_c, 5, 74, 96
1, 3384, Note_on_c, 6, 50, 96
1, 3405, Note_off_c, 3, 50, 0
1, 3405, Note_off_c, 4, 38, 0
1, 3405, Note_off_c, 6, 50, 0
1, 3408, Note_on_c, 3, 52, 96
1, 3408, Note_on_c, 4, 40, 96
1, 3408, Note_on_c, 6, 52, 96
1, 3426, Note_off_c, 0, 74, 0
1, 3426, Note_off_c, 1, 66, 0
1, 3426, Note_off_c, 2, 57, 0
1, 3429, Note_off_c, 3, 52, 0
1, 3429, Note_off_c, 4, 40, 0
1, 3429, Note_off_c, 6, 52, 0
1, 3432, Note_on_c, 3, 54, 96
1, 3432, Note_on_c, 4, 42, 96
1, 3432, Note_on_c, 6, 54, 96
1, 3447, Note_off_c, 5, 74, 0
1, 3453, Note_off_c, 3, 54, 0
1, 3453, Note_off_c, 4, 42, 0
1, 3453, Note_off_c, 6, 54, 0
1, 3456, Note_on_c, 0, 71, 80
1, 3456, Note_on_c, 1, 62, 80
1, 3456, Note_on_c, 2, 59, 80
1, 3456, Note_on_c, 3, 47, 80
1, 3456, Note_on_c, 4, 35, 80
1, 3456, Note_on_c, 5, 78, 96
1, 3456, Note_on_c, 6, 47, 96
1, 3468, Note_off_c, 5, 78, 0
1, 3468, Note_on_c, 5, 76, 96
1, 3477, Note_off_c, 6, 47, 0
1, 3480, Note_off_c, 0, 71, 0
1, 3480, Note_on_c, 0, 71, 80
1, 3480, Note_off_c, 1, 62, 0
1, 3480, Note_on_c, 1, 62, 80
1, 3480, Note_off_c, 2, 59, 0
1, 3480, Note_on_c, 2, 59, 80
1, 3480, Note_off_c, 5, 76, 0
1, 3480, Note_on_c, 5, 74, 96
1, 3480, Note_on_c, 6, 59, 96
1, 3490, Note_off_c, 5, 74, 0
1, 3492, Note_on_c, 5, 79, 96
1, 3498, Note_off_c, 3, 47, 0
1, 3498, Note_off_c, 4, 35, 0
1, 3498, Note_off_c, 5, 79, 0
1, 3501, Note_off_c, 6, 59, 0
1, 3504, Note_off_c, 0, 71, 0
1, 3504, Note_on_c, 0, 71, 80
1, 3504, Note_off_c, 1, 62, 0
1, 3504, Note_on_c, 1, 62, 80
1, 3504, Note_off_c, 2, 59, 0
1, 3504, Note_on_c, 2, 59, 80
1, 3504, Note_on_c, 5, 78, 96
1, 3504, Note_on_c, 6, 47, 96
1, 3510, Note_off_c, 5, 78, 0
1, 3516, Note_on_c, 5, 76, 96
1, 3522, Note_off_c, 5, 76, 0
1, 3525, Note_off_c, 0, 71, 0
1, 3525, Note_off_c, 1, 62, 0
1, 3525, Note_off_c, 2, 59, 0
1, 3525, Note_off_c, 6, 47, 0
1, 3528, Note_on_c, 0, 71, 80
1, 3528, Note_on_c, 1, 66, 80
1, 3528, Note_on_c, 2, 62, 80
1, 3528, Note_on_c, 5, 74, 96
1, 3528, Note_on_c, 6, 50, 96
1, 3540, Note_off_c, 5, 74, 0
1, 3540, Note_on_c, 5, 73, 96
1, 3549, Note_off_c, 6, 50, 0
1, 3552, Note_off_c, 0, 71, 0
1, 3552, Note_on_c, 0, 71, 80
1, 3552, Note_off_c, 1, 66, 0
1, 3552, Note_on_c, 1, 66, 80
1, 3552, Note_off_c, 2, 62, 0
1, 3552, Note_on_c, 2, 62, 80
1, 3552, Note_off_c, 5, 73, 0
1, 3552, Note_on_c, 5, 71, 96
1, 3552, Note_on_c, 6, 62, 96
1, 3564, Note_off_c, 5, 71, 0
1, 3564, Note_on_c, 5, 70, 96
1, 3573, Note_off_c, 6, 62, 0
1, 3576, Note_off_c, 0, 71, 0
1, 3576, Note_on_c, 0, 71, 80
1, 3576, Note_off_c, 1, 66, 0
1, 3576, Note_on_c, 1, 66, 80
1, 3576, Note_off_c, 2, 62, 0
1, 3576, Note_on_c, 2, 62, 80
1, 3576, Note_off_c, 5, 70, 0
1, 3576, Note_on_c, 5, 71, 96
1, 3576, Note_on_c, 6, 50, 96
1, 3586, Note_off_c, 5, 71, 0
1, 3588, Note_on_c, 5, 74, 96
1, 3591, Note_off_c, 5, 74, 0
1, 3597, Note_off_c, 0, 71, 0
1, 3597, Note_off_c, 1, 66, 0
1, 3597, Note_off_c, 2, 62, 0
1, 3597, Note_off_c, 6, 50, 0
1, 3600, Note_on_c, 0, 71, 80
1, 3600, Note_on_c, 1, 67, 80
1, 3600, Note_on_c, 2, 64, 80
1, 3600, Note_on_c, 5, 73, 96
1, 3600, Note_on_c, 6, 52, 96
1, 3612, Note_off_c, 5, 73, 0
1, 3612, Note_on_c, 5, 74, 96
1, 3621, Note_off_c, 6, 52, 0
1, 3624, Note_off_c, 0, 71, 0
1, 3624, Note_on_c, 0, 71, 80
1, 3624, Note_off_c, 1, 67, 0
1, 3624, Note_on_c, 1, 67, 80
1, 3624, Note_off_c, 2, 64, 0
1, 3624, Note_on_c, 2, 64, 80
1, 3624, Note_off_c, 5, 74, 0
1, 3624, Note_on_c, 5, 76, 96
1, 3624, Note_on_c, 6, 64, 96
1, 3634, Note_off_c, 5, 76, 0
1, 3636, Note_on_c, 5, 79, 96
1, 3642, Note_off_c, 5, 79, 0
1, 3645, Note_off_c, 6, 64, 0
1, 3648, Note_off_c, 0, 71, 0
1, 3648, Note_on_c, 0, 76, 80
1, 3648, Note_off_c, 1, 67, 0
1, 3648, Note_on_c, 1, 67, 80
1, 3648, Note_off_c, 2, 64, 0
1, 3648, Note_on_c, 2, 64, 80
1, 3648, Note_on_c, 5, 78, 96
1, 3648, Note_on_c, 6, 52, 96
1, 3654, Note_off_c, 5, 78, 0
1, 3660, Note_on_c, 5, 76, 96
1, 3666, Note_off_c, 5, 76, 0
1, 3669, Note_off_c, 0, 76, 0
1, 3669, Note_off_c, 1, 67, 0
1, 3669, Note_off_c, 2, 64, 0
1, 3669, Note_off_c, 6, 52, 0
1, 3672, Note_on_c, 0, 73, 80
1, 3672, Note_on_c, 1, 66, 80
1, 3672, Note_on_c, 2, 66, 80
1, 3672, Note_on_c, 5, 70, 96
1, 3672, Note_on_c, 6, 54, 96
1, 3682, Note_off_c, 5, 70, 0
1, 3684, Note_on_c, 5, 71, 96
1, 3693, Note_off_c, 6, 54, 0
1, 3694, Note_off_c, 5, 71, 0
1, 3696, Note_off_c, 0, 73, 0
1, 3696, Note_on_c, 0, 73, 80
1, 3696, Note_off_c, 1, 66, 0
1, 3696, Note_on_c, 1, 70, 80
1, 3696, Note_off_c, 2, 66, 0
1, 3696, Note_on_c, 2, 66, 80
1, 3696, Note_on_c, 5, 73, 96
1, 3696, Note_on_c, 6, 66, 96
1, 3706, Note_off_c, 5, 73, 0
1, 3708, Note_on_c, 5, 70, 96
1, 3717, Note_off_c, 6, 66, 0
1, 3718, Note_off_c, 5, 70, 0
1, 3720, Note_off_c, 0, 73, 0
1, 3720, Note_on_c, 0, 73, 80
1, 3720, Note_off_c, 1, 70, 0
1, 3720, Note_on_c, 1, 70, 80
1, 3720, Note_off_c, 2, 66, 0
1, 3720, Note_on_c, 2, 66, 80
1, 3720, Note_on_c, 5, 66, 96
1, 3720, Note_on_c, 6, 54, 96
1, 3730, Note_off_c, 5, 66, 0
1, 3732, Note_on_c, 5, 64, 96
1, 3741, Note_off_c, 0, 73, 0
1, 3741, Note_off_c, 1, 70, 0
1, 3741, Note_off_c, 2, 66, 0
1, 3741, Note_off_c, 6, 54, 0
1, 3742, Note_off_c, 5, 64, 0
1, 3744, Note_on_c, 0, 74, 80
1, 3744, Note_on_c, 1, 71, 80
1, 3744, Note_on_c, 2, 59, 80
1, 3744, Note_on_c, 5, 62, 96
1, 3744, Note_on_c, 6, 47, 96
1, 3754, Note_off_c, 5, 62, 0
1, 3756, Note_on_c, 5, 66, 96
1, 3765, Note_off_c, 2, 59, 0
1, 3765, Note_off_c, 6, 47, 0
1, 3766, Note_off_c, 5, 66, 0
1, 3768, Note_on_c, 2, 62, 80
1, 3768, Note_on_c, 5, 71, 96
1, 3768, Note_on_c, 6, 50, 96
1, 3778, Note_off_c, 5, 71, 0
1, 3780, Note_on_c, 5, 73, 96
1, 3789, Note_off_c, 2, 62, 0
1, 3789, Note_off_c, 6, 50, 0
1, 3790, Note_off_c, 5, 73, 0
1, 3792, Note_on_c, 2, 66, 80
1, 3792, Note_on_c, 5, 74, 96
1, 3792, Note_on_c, 6, 54, 96
1, 3802, Note_off_c, 5, 74, 0
1, 3804, Note_on_c, 5, 71, 96
1, 3813, Note_off_c, 2, 66, 0
1, 3813, Note_off_c, 6, 54, 0
1, 3814, Note_off_c, 5, 71, 0
1, 3816, Note_on_c, 2, 64, 80
1, 3816, Note_on_c, 5, 67, 96
1, 3816, Note_on_c, 6, 52, 96
1, 3828, Note_off_c, 5, 67, 0
1, 3828, Note_on_c, 5, 69, 96
1, 3837, Note_off_c, 2, 64, 0
1, 3837, Note_off_c, 6, 52, 0
1, 3840, Note_on_c, 2, 67, 80
1, 3840, Note_off_c, 5, 69, 0
1, 3840, Note_on_c, 5, 71, 96
1, 3840, Note_on_c, 6, 55, 96
1, 3850, Note_off_c, 5, 71, 0
1, 3852, Note_on_c, 5, 67, 96
1, 3855, Note_off_c, 5, 67, 0
1, 3861, Note_off_c, 2, 67, 0
1, 3861, Note_off_c, 6, 55, 0
1, 3864, Note_on_c, 2, 71, 80
1, 3864, Note_on_c, 5, 64, 96
1, 3864, Note_on_c, 6, 59, 96
1, 3867, Note_off_c, 5, 64, 0
1, 3876, Note_off_c, 0, 74, 0
1, 3876, Note_off_c, 1, 71, 0
1, 3876, Note_on_c, 5, 62, 96
1, 3879, Note_off_c, 5, 62, 0
1, 3885, Note_off_c, 2, 71, 0
1, 3885, Note_off_c, 6, 59, 0
1, 3888, Note_on_c, 0, 73, 80
1, 3888, Note_on_c, 1, 69, 80
1, 3888, Note_on_c, 2, 57, 80
1, 3888, Note_on_c, 5, 61, 96
1, 3888, Note_on_c, 6, 45, 96
1, 3898, Note_off_c, 5, 61, 0
1, 3900, Note_on_c, 5, 64, 96
1, 3909, Note_off_c, 2, 57, 0
1, 3909, Note_off_c, 6, 45, 0
1, 3910, Note_off_c, 5, 64, 0
1, 3912, Note_on_c, 2, 61, 80
1, 3912, Note_on_c, 5, 69, 96
1, 3912, Note_on_c, 6, 49, 96
1, 3922, Note_off_c, 5, 69, 0
1, 3924, Note_on_c, 5, 71, 96
1, 3933, Note_off_c, 2, 61, 0
1, 3933, Note_off_c, 6, 49, 0
1, 3934, Note_off_c, 5, 71, 0
1, 3936, Note_on_c, 2, 64, 80
1, 3936, Note_on_c, 5, 73, 96
1, 3936, Note_on_c, 6, 52, 96
1, 3946, Note_off_c, 5, 73, 0
1, 3948, Note_on_c, 5, 69, 96
1, 3951, Note_off_c, 0, 73, 0
1, 3957, Note_off_c, 2, 64, 0
1, 3957, Note_off_c, 6, 52, 0
1, 3958, Note_off_c, 5, 69, 0
1, 3960, Note_on_c, 0, 74, 80
1, 3960, Note_on_c, 2, 62, 80
1, 3960, Note_on_c, 5, 66, 96
1, 3960, Note_on_c, 6, 50, 96
1, 3972, Note_off_c, 5, 66, 0
1, 3972, Note_on_c, 5, 67, 96
1, 3981, Note_off_c, 2, 62, 0
1, 3981, Note_off_c, 6, 50, 0
1, 3984, Note_on_c, 2, 66, 80
1, 3984, Note_off_c, 5, 67, 0
1, 3984, Note_on_c, 5, 69, 96
1, 3984, Note_on_c, 6, 54, 96
1, 3994, Note_off_c, 5, 69, 0
1, 3996, Note_off_c, 1, 69, 0
1, 3996, Note_on_c, 5, 66, 96
1, 3999, Note_off_c, 5, 66, 0
1, 4005, Note_off_c, 2, 66, 0
1, 4005, Note_off_c, 6, 54, 0
1, 4008, Note_on_c, 1, 66, 80
1, 4008, Note_on_c, 2, 69, 80
1, 4008, Note_on_c, 5, 62, 96
1, 4008, Note_on_c, 6, 57, 96
1, 4011, Note_off_c, 5, 62, 0
1, 4020, Note_on_c, 5, 61, 96
1, 4023, Note_off_c, 0, 74, 0
1, 4023, Note_off_c, 5, 61, 0
1, 4029, Note_off_c, 1, 66, 0
1, 4029, Note_off_c, 2, 69, 0
1, 4029, Note_off_c, 6, 57, 0
1, 4032, Note_on_c, 0, 74, 80
1, 4032, Note_on_c, 1, 66, 80
1, 4032, Note_on_c, 2, 59, 80
1, 4032, Note_on_c, 6, 59, 96
1, 4044, Note_on_c, 5, 62, 96
1, 4053, Note_off_c, 6, 59, 0
1, 4054, Note_off_c, 5, 62, 0
1, 4056, Note_off_c, 0, 74, 0
1, 4056, Note_on_c, 0, 74, 80
1, 4056, Note_off_c, 1, 66, 0
1, 4056, Note_on_c, 1, 66, 80
1, 4056, Note_off_c, 2, 59, 0
1, 4056, Note_on_c, 2, 59, 80
1, 4056, Note_on_c, 5, 66, 96
1, 4066, Note_off_c, 5, 66, 0
1, 4068, Note_on_c, 5, 71, 96
1, 4078, Note_off_c, 5, 71, 0
1, 4080, Note_off_c, 0, 74, 0
1, 4080, Note_on_c, 0, 74, 80
1, 4080, Note_off_c, 1, 66, 0
1, 4080, Note_on_c, 1, 66, 80
1, 4080, Note_off_c, 2, 59, 0
1, 4080, Note_on_c, 2, 59, 80
1, 4080, Note_on_c, 5, 73, 96
1, 4090, Note_off_c, 5, 73, 0
1, 4092, Note_on_c, 5, 74, 96
1, 4101, Note_off_c, 0, 74, 0
1, 4101, Note_off_c, 1, 66, 0
1, 4101, Note_off_c, 2, 59, 0
1, 4102, Note_off_c, 5, 74, 0
1, 4104, Note_on_c, 0, 73, 80
1, 4104, Note_on_c, 1, 66, 80
1, 4104, Note_on_c, 2, 58, 80
1, 4104, Note_on_c, 6, 58, 96
1, 4116, Note_on_c, 5, 61, 96
1, 4125, Note_off_c, 6, 58, 0
1, 4126, Note_off_c, 5, 61, 0
1, 4128, Note_off_c, 0, 73, 0
1, 4128, Note_on_c, 0, 73, 80
1, 4128, Note_off_c, 1, 66, 0
1, 4128, Note_on_c, 1, 66, 80
1, 4128, Note_off_c, 2, 58, 0
1, 4128, Note_on_c, 2, 58, 80
1, 4128, Note_on_c, 5, 66, 96
1, 4138, Note_off_c, 5, 66, 0
1, 4140, Note_on_c, 5, 73, 96
1, 4150, Note_off_c, 5, 73, 0
1, 4152, Note_off_c, 0, 73, 0
1, 4152, Note_on_c, 0, 73, 80
1, 4152, Note_off_c, 1, 66, 0
1, 4152, Note_on_c, 1, 66, 80
1, 4152, Note_off_c, 2, 58, 0
1, 4152, Note_on_c, 2, 58, 80
1, 4152, Note_on_c, 5, 74, 96
1, 4162, Note_off_c, 5, 74, 0
1, 4164, Note_on_c, 5, 76, 96
1, 4173, Note_off_c, 0, 73, 0
1, 4173, Note_off_c, 1, 66, 0
1, 4173, Note_off_c, 2, 58, 0
1, 4174, Note_off_c, 5, 76, 0
1, 4176, Note_on_c, 0, 74, 80
1, 4176, Note_on_c, 1, 66, 80
1, 4176, Note_on_c, 2, 59, 80
1, 4176, Note_on_c, 6, 59, 96
1, 4188, Note_on_c, 5, 66, 96
1, 4197, Note_off_c, 6, 59, 0
1, 4198, Note_off_c, 5, 66, 0
1, 4200, Note_off_c, 0, 74, 0
1, 4200, Note_on_c, 0, 74, 80
1, 4200, Note_off_c, 1, 66, 0
1, 4200, Note_on_c, 1, 66, 80
1, 4200, Note_off_c, 2, 59, 0
1, 4200, Note_on_c, 2, 59, 80
1, 4200, Note_on_c, 5, 71, 96
1, 4210, Note_off_c, 5, 71, 0
1, 4212, Note_on_c, 5, 74, 96
1, 4222, Note_off_c, 5, 74, 0
1, 4224, Note_off_c, 0, 74, 0
1, 4224, Note_on_c, 0, 74, 80
1, 4224, Note_off_c, 1, 66, 0
1, 4224, Note_on_c, 1, 66, 80
1, 4224, Note_off_c, 2, 59, 0
1, 4224, Note_on_c, 2, 59, 80
1, 4224, Note_on_c, 5, 76, 96
1, 4234, Note_off_c, 5, 76, 0
1, 4236, Note_on_c, 5, 78, 96
1, 4245, Note_off_c, 0, 74, 0
1, 4245, Note_off_c, 1, 66, 0
1, 4245, Note_off_c, 2, 59, 0
1, 4246, Note_off_c, 5, 78, 0
1, 4248, Note_on_c, 0, 76, 80
1, 4248, Note_on_c, 1, 70, 80
1, 4248, Note_on_c, 2, 61, 80
1, 4248, Note_on_c, 6, 61, 96
1, 4260, Note_on_c, 5, 64, 96
1, 4269, Note_off_c, 6, 61, 0
1, 4270, Note_off_c, 5, 64, 0
1, 4272, Note_off_c, 0, 76, 0
1, 4272, Note_on_c, 0, 76, 80
1, 4272, Note_off_c, 1, 70, 0
1, 4272, Note_on_c, 1, 70, 80
1, 4272, Note_off_c, 2, 61, 0
1, 4272, Note_on_c, 2, 61, 80
1, 4272, Note_on_c, 5, 70, 96
1, 4282, Note_off_c, 5, 70, 0
1, 4284, Note_on_c, 5, 76, 96
1, 4294, Note_off_c, 5, 76, 0
1, 4296, Note_off_c, 0, 76, 0
1, 4296, Note_on_c, 0, 76, 80
1, 4296, Note_off_c, 1, 70, 0
1, 4296, Note_on_c, 1, 70, 80
1, 4296, Note_off_c, 2, 61, 0
1, 4296, Note_on_c, 2, 61, 80
1, 4296, Note_on_c, 5, 78, 96
1, 4306, Note_off_c, 5, 78, 0
1, 4308, Note_on_c, 5, 79, 96
1, 4317, Note_off_c, 0, 76, 0
1, 4317, Note_off_c, 1, 70, 0
1, 4317, Note_off_c, 2, 61, 0
1, 4318, Note_off_c, 5, 79, 0
1, 4320, Note_on_c, 0, 78, 80
1, 4320, Note_on_c, 1, 71, 80
1, 4320, Note_on_c, 2, 62, 80
1, 4320, Note_on_c, 5, 78, 96
1, 4320, Note_on_c, 6, 62, 96
1, 4330, Note_off_c, 5, 78, 0
1, 4332, Note_on_c, 5, 76, 96
1, 4341, Note_off_c, 6, 62, 0
1, 4342, Note_off_c, 5, 76, 0
1, 4344, Note_off_c, 0, 78, 0
1, 4344, Note_on_c, 0, 78, 80
1, 4344, Note_off_c, 1, 71, 0
1, 4344, Note_on_c, 1, 71, 80
1, 4344, Note_off_c, 2, 62, 0
1, 4344, Note_on_c, 2, 62, 80
1, 4344, Note_on_c, 5, 74, 96
1, 4344, Note_on_c, 6, 50, 96
1, 4354, Note_off_c, 5, 74, 0
1, 4356, Note_on_c, 5, 73, 96
1, 4365, Note_off_c, 0, 78, 0
1, 4365, Note_off_c, 6, 50, 0
1, 4366, Note_off_c, 5, 73, 0
1, 4368, Note_on_c, 0, 78, 80
1, 4368, Note_off_c, 1, 71, 0
1, 4368, Note_on_c, 1, 71, 80
1, 4368, Note_off_c, 2, 62, 0
1, 4368, Note_on_c, 2, 62, 80
1, 4368, Note_on_c, 5, 71, 96
1, 4368, Note_on_c, 6, 62, 96
1, 4378, Note_off_c, 5, 71, 0
1, 4380, Note_on_c, 5, 69, 96
1, 4389, Note_off_c, 1, 71, 0
1, 4389, Note_off_c, 2, 62, 0
1, 4389, Note_off_c, 6, 62, 0
1, 4390, Note_off_c, 5, 69, 0
1, 4392, Note_on_c, 1, 71, 80
1, 4392, Note_on_c, 2, 64, 80
1, 4392, Note_on_c, 5, 67, 96
1, 4392, Note_on_c, 6, 64, 96
1, 4402, Note_off_c, 5, 67, 0
1, 4404, Note_on_c, 5, 78, 96
1, 4410, Note_off_c, 0, 78, 0
1, 4413, Note_off_c, 1, 71, 0
1, 4413, Note_off_c, 6, 64, 0
1, 4416, Note_on_c, 0, 79, 80
1, 4416, Note_on_c, 1, 71, 80
1, 4416, Note_off_c, 2, 64, 0
1, 4416, Note_on_c, 2, 64, 80
1, 4416, Note_off_c, 5, 78, 0
1, 4416, Note_on_c, 5, 76, 96
1, 4416, Note_on_c, 6, 52, 96
1, 4426, Note_off_c, 0, 79, 0
1, 4426, Note_off_c, 1, 71, 0
1, 4428, Note_on_c, 0, 78, 80
1, 4428, Note_on_c, 1, 69, 80
1, 4428, Note_off_c, 5, 76, 0
1, 4428, Note_on_c, 5, 74, 96
1, 4437, Note_off_c, 6, 52, 0
1, 4438, Note_off_c, 0, 78, 0
1, 4438, Note_off_c, 1, 69, 0
1, 4440, Note_on_c, 0, 76, 80
1, 4440, Note_on_c, 1, 67, 80
1, 4440, Note_off_c, 2, 64, 0
1, 4440, Note_on_c, 2, 64, 80
1, 4440, Note_off_c, 5, 74, 0
1, 4440, Note_on_c, 5, 73, 96
1, 4440, Note_on_c, 6, 64, 96
1, 4452, Note_off_c, 5, 73, 0
1, 4452, Note_on_c, 5, 71, 96
1, 4461, Note_off_c, 1, 67, 0
1, 4461, Note_off_c, 2, 64, 0
1, 4461, Note_off_c, 6, 64, 0
1, 4462, Note_off_c, 5, 71, 0
1, 4464, Note_on_c, 1, 66, 80
1, 4464, Note_on_c, 2, 66, 80
1, 4464, Note_on_c, 5, 70, 96
1, 4464, Note_on_c, 6, 66, 96
1, 4471, Note_off_c, 0, 76, 0
1, 4474, Note_off_c, 5, 70, 0
1, 4476, Note_on_c, 0, 79, 80
1, 4476, Note_on_c, 5, 76, 96
1, 4485, Note_off_c, 1, 66, 0
1, 4485, Note_off_c, 6, 66, 0
1, 4486, Note_off_c, 0, 79, 0
1, 4486, Note_off_c, 5, 76, 0
1, 4488, Note_on_c, 0, 78, 80
1, 4488, Note_on_c, 1, 66, 80
1, 4488, Note_off_c, 2, 66, 0
1, 4488, Note_on_c, 2, 66, 80
1, 4488, Note_on_c, 5, 74, 96
1, 4488, Note_on_c, 6, 54, 96
1, 4498, Note_off_c, 5, 74, 0
1, 4500, Note_on_c, 5, 73, 96
1, 4509, Note_off_c, 0, 78, 0
1, 4509, Note_off_c, 1, 66, 0
1, 4509, Note_off_c, 2, 66, 0
1, 4509, Note_off_c, 6, 54, 0
1, 4510, Note_off_c, 5, 73, 0
1, 4512, Note_on_c, 0, 74, 80
1, 4512, Note_on_c, 1, 64, 80
1, 4512, Note_on_c, 2, 54, 80
1, 4512, Note_on_c, 5, 71, 96
1, 4512, Note_on_c, 6, 66, 96
1, 4518, Note_off_c, 0, 74, 0
1, 4518, Note_on_c, 0, 73, 80
1, 4522, Note_off_c, 5, 71, 0
1, 4524, Note_off_c, 0, 73, 0
1, 4524, Note_on_c, 0, 74, 80
1, 4524, Note_on_c, 5, 70, 96
1, 4530, Note_off_c, 0, 74, 0
1, 4530, Note_on_c, 0, 73, 80
1, 4533, Note_off_c, 1, 64, 0
1, 4533, Note_off_c, 2, 54, 0
1, 4533, Note_off_c, 6, 66, 0
1, 4534, Note_off_c, 5, 70, 0
1, 4535, Note_off_c, 0, 73, 0
1, 4536, Note_on_c, 0, 71, 80
1, 4536, Note_on_c, 1, 62, 80
1, 4536, Note_on_c, 2, 59, 80
1, 4536, Note_on_c, 5, 71, 96
1, 4536, Note_on_c, 6, 59, 96
1, 4546, Note_off_c, 5, 71, 0
1, 4548, Note_on_c, 5, 66, 96
1, 4558, Note_off_c, 5, 66, 0
1, 4560, Note_on_c, 5, 64, 96
1, 4567, Note_off_c, 6, 59, 0
1, 4570, Note_off_c, 5, 64, 0
1, 4572, Note_on_c, 3, 47, 96
1, 4572, Note_on_c, 4, 35, 96
1, 4572, Note_on_c, 5, 62, 96
1, 4572, Note_on_c, 6, 47, 96
1, 4582, Note_off_c, 3, 47, 0
1, 4582, Note_off_c, 4, 35, 0
1, 4582, Note_off_c, 5, 62, 0
1, 4582, Note_off_c, 6, 47, 0
1, 4584, Note_on_c, 3, 45, 96
1, 4584, Note_on_c, 4, 33, 96
1, 4584, Note_on_c, 5, 61, 96
1, 4584, Note_on_c, 6, 45, 96
1, 4594, Note_off_c, 3, 45, 0
1, 4594, Note_off_c, 4, 33, 0
1, 4594, Note_off_c, 5, 61, 0
1, 4594, Note_off_c, 6, 45, 0
1, 4596, Note_on_c, 3, 43, 96
1, 4596, Note_on_c, 4, 31, 96
1, 4596, Note_on_c, 5, 59, 96
1, 4596, Note_on_c, 6, 43, 96
1, 4599, Note_off_c, 0, 71, 0
1, 4599, Note_off_c, 1, 62, 0
1, 4599, Note_off_c, 2, 59, 0
1, 4606, Note_off_c, 3, 43, 0
1, 4606, Note_off_c, 4, 31, 0
1, 4606, Note_off_c, 5, 59, 0
1, 4606, Note_off_c, 6, 43, 0
1, 4608, Note_on_c, 0, 62, 96
1, 4608, Note_on_c, 1, 66, 96
1, 4608, Note_on_c, 2, 57, 96
1, 4608, Note_on_c, 3, 42, 96
1, 4608, Note_on_c, 4, 30, 96
1, 4608, Note_on_c, 5, 62, 96
1, 4608, Note_on_c, 6, 42, 96
1, 4618, Note_off_c, 5, 62, 0
1, 4620, Note_off_c, 0, 62, 0
1, 4620, Note_on_c, 0, 64, 96
1, 4620, Note_on_c, 5, 64, 96
1, 4629, Note_off_c, 3, 42, 0
1, 4629, Note_off_c, 4, 30, 0
1, 4629, Note_off_c, 6, 42, 0
1, 4630, Note_off_c, 5, 64, 0
1, 4632, Note_off_c, 0, 64, 0
1, 4632, Note_on_c, 0, 66, 96
1, 4632, Note_on_c, 3, 38, 96
1, 4632, Note_on_c, 4, 26, 96
1, 4632, Note_on_c, 5, 66, 96
1, 4632, Note_on_c, 6, 38, 96
1, 4642, Note_off_c, 5, 66, 0
1, 4644, Note_off_c, 0, 66, 0
1, 4644, Note_on_c, 0, 69, 96
1, 4644, Note_on_c, 5, 69, 96
1, 4650, Note_off_c, 1, 66, 0
1, 4650, Note_off_c, 2, 57, 0
1, 4653, Note_off_c, 3, 38, 0
1, 4653, Note_off_c, 4, 26, 0
1, 4653, Note_off_c, 6, 38, 0
1, 4654, Note_off_c, 0, 69, 0
1, 4654, Note_off_c, 5, 69, 0
1, 4656, Note_on_c, 0, 74, 96
1, 4656, Note_on_c, 5, 74, 96
1, 4662, Note_off_c, 0, 74, 0
1, 4677, Note_off_c, 5, 74, 0
1, 4680, Note_on_c, 0, 74, 96
1, 4680, Note_on_c, 1, 69, 96
1, 4680, Note_on_c, 2, 57, 96
1, 4680, Note_on_c, 3, 54, 96
1, 4680, Note_on_c, 4, 42, 96
1, 4680, Note_on_c, 5, 74, 96
1, 4680, Note_on_c, 6, 54, 96
1, 4690, Note_off_c, 5, 74, 0
1, 4692, Note_off_c, 0, 74, 0
1, 4692, Note_on_c, 0, 73, 96
1, 4692, Note_on_c, 5, 73, 96
1, 4701, Note_off_c, 1, 69, 0
1, 4701, Note_off_c, 2, 57, 0
1, 4701, Note_off_c, 3, 54, 0
1, 4701, Note_off_c, 4, 42, 0
1, 4701, Note_off_c, 6, 54, 0
1, 4702, Note_off_c, 0, 73, 0
1, 4702, Note_off_c, 5, 73, 0
1, 4704, Note_on_c, 0, 76, 96
1, 4704, Note_on_c, 1, 67, 96
1, 4704, Note_on_c, 2, 61, 96
1, 4704, Note_on_c, 3, 52, 96
1, 4704, Note_on_c, 4, 40, 96
1, 4704, Note_on_c, 5, 76, 96
1, 4704, Note_on_c, 6, 52, 96
1, 4714, Note_off_c, 5, 76, 0
1, 4716, Note_off_c, 0, 76, 0
1, 4716, Note_on_c, 0, 74, 96
1, 4716, Note_on_c, 5, 74, 96
1, 4725, Note_off_c, 1, 67, 0
1, 4725, Note_off_c, 2, 61, 0
1, 4725, Note_off_c, 3, 52, 0
1, 4725, Note_off_c, 4, 40, 0
1, 4725, Note_off_c, 6, 52, 0
1, 4726, Note_off_c, 0, 74, 0
1, 4726, Note_off_c, 5, 74, 0
1, 4728, Note_on_c, 0, 73, 96
1, 4728, Note_on_c, 1, 69, 96
1, 4728, Note_on_c, 2, 66, 96
1, 4728, Note_on_c, 3, 50, 96
1, 4728, Note_on_c, 4, 38, 96
1, 4728, Note_on_c, 5, 73, 96
1, 4728, Note_on_c, 6, 50, 96
1, 4738, Note_off_c, 5, 73, 0
1, 4740, Note_off_c, 0, 73, 0
1, 4740, Note_on_c, 0, 71, 96
1, 4740, Note_on_c, 5, 71, 96
1, 4749, Note_off_c, 1, 69, 0
1, 4749, Note_off_c, 2, 66, 0
1, 4749, Note_off_c, 3, 50, 0
1, 4749, Note_off_c, 4, 38, 0
1, 4749, Note_off_c, 6, 50, 0
1, 4750, Note_off_c, 0, 71, 0
1, 4750, Note_off_c, 5, 71, 0
1, 4752, Note_on_c, 0, 69, 96
1, 4752, Note_on_c, 1, 69, 96
1, 4752, Note_on_c, 2, 64, 96
1, 4752, Note_on_c, 3, 49, 96
1, 4752, Note_on_c, 4, 37, 96
1, 4752, Note_on_c, 5, 69, 96
1, 4752, Note_on_c, 6, 49, 96
1, 4762, Note_off_c, 5, 69, 0
1, 4764, Note_off_c, 0, 69, 0
1, 4764, Note_on_c, 0, 71, 96
1, 4764, Note_on_c, 5, 71, 96
1, 4773, Note_off_c, 3, 49, 0
1, 4773, Note_off_c, 4, 37, 0
1, 4773, Note_off_c, 6, 49, 0
1, 4774, Note_off_c, 5, 71, 0
1, 4776, Note_off_c, 0, 71, 0
1, 4776, Note_on_c, 0, 73, 96
1, 4776, Note_on_c, 3, 57, 96
1, 4776, Note_on_c, 4, 45, 96
1, 4776, Note_on_c, 5, 73, 96
1, 4776, Note_on_c, 6, 57, 96
1, 4786, Note_off_c, 5, 73, 0
1, 4788, Note_off_c, 0, 73, 0
1, 4788, Note_on_c, 0, 76, 96
1, 4788, Note_on_c, 5, 76, 96
1, 4794, Note_off_c, 1, 69, 0
1, 4794, Note_off_c, 2, 64, 0
1, 4797, Note_off_c, 3, 57, 0
1, 4797, Note_off_c, 4, 45, 0
1, 4797, Note_off_c, 6, 57, 0
1, 4798, Note_off_c, 0, 76, 0
1, 4798, Note_off_c, 5, 76, 0
1, 4800, Note_on_c, 0, 79, 96
1, 4800, Note_on_c, 5, 79, 96
1, 4821, Note_off_c, 0, 79, 0
1, 4821, Note_off_c, 5, 79, 0
1, 4824, Note_on_c, 0, 79, 96
1, 4824, Note_on_c, 1, 69, 96
1, 4824, Note_on_c, 2, 64, 96
1, 4824, Note_on_c, 3, 49, 96
1, 4824, Note_on_c, 4, 37, 96
1, 4824, Note_on_c, 5, 79, 96
1, 4824, Note_on_c, 6, 49, 96
1, 4845, Note_off_c, 1, 69, 0
1, 4845, Note_off_c, 2, 64, 0
1, 4845, Note_off_c, 3, 49, 0
1, 4845, Note_off_c, 4, 37, 0
1, 4845, Note_off_c, 6, 49, 0
1, 4848, Note_on_c, 1, 71, 96
1, 4848, Note_on_c, 2, 62, 96
1, 4848, Note_on_c, 3, 47, 96
1, 4848, Note_on_c, 4, 35, 96
1, 4848, Note_on_c, 6, 47, 96
1, 4869, Note_off_c, 1, 71, 0
1, 4869, Note_off_c, 2, 62, 0
1, 4869, Note_off_c, 3, 47, 0
1, 4869, Note_off_c, 4, 35, 0
1, 4869, Note_off_c, 6, 47, 0
1, 4872, Note_on_c, 1, 73, 96
1, 4872, Note_on_c, 2, 64, 96
1, 4872, Note_on_c, 3, 45, 96
1, 4872, Note_on_c, 4, 33, 96
1, 4872, Note_on_c, 6, 45, 96
1, 4887, Note_off_c, 0, 79, 0
1, 4887, Note_off_c, 5, 79, 0
1, 4893, Note_off_c, 1, 73, 0
1, 4893, Note_off_c, 2, 64, 0
1, 4893, Note_off_c, 3, 45, 0
1, 4893, Note_off_c, 4, 33, 0
1, 4893, Note_off_c, 6, 45, 0
1, 4896, Note_on_c, 0, 78, 96
1, 4896, Note_on_c, 1, 74, 96
1, 4896, Note_on_c, 2, 57, 96
1, 4896, Note_on_c, 3, 50, 96
1, 4896, Note_on_c, 4, 38, 96
1, 4896, Note_on_c, 5, 78, 96
1, 4896, Note_on_c, 6, 50, 96
1, 4906, Note_off_c, 5, 78, 0
1, 4908, Note_off_c, 0, 78, 0
1, 4908, Note_on_c, 0, 76, 96
1, 4908, Note_on_c, 5, 76, 96
1, 4917, Note_off_c, 1, 74, 0
1, 4917, Note_off_c, 3, 50, 0
1, 4917, Note_off_c, 4, 38, 0
1, 4917, Note_off_c, 6, 50, 0
1, 4918, Note_off_c, 0, 76, 0
1, 4918, Note_off_c, 5, 76, 0
1, 4920, Note_on_c, 0, 79, 96
1, 4920, Note_on_c, 1, 69, 96
1, 4920, Note_on_c, 3, 49, 96
1, 4920, Note_on_c, 4, 37, 96
1, 4920, Note_on_c, 5, 79, 96
1, 4920, Note_on_c, 6, 49, 96
1, 4930, Note_off_c, 5, 79, 0
1, 4932, Note_off_c, 0, 79, 0
1, 4932, Note_on_c, 0, 78, 96
1, 4932, Note_on_c, 5, 78, 96
1, 4938, Note_off_c, 2, 57, 0
1, 4941, Note_off_c, 1, 69, 0
1, 4941, Note_off_c, 3, 49, 0
1, 4941, Note_off_c, 4, 37, 0
1, 4941, Note_off_c, 6, 49, 0
1, 4942, Note_off_c, 0, 78, 0
1, 4942, Note_off_c, 5, 78, 0
1, 4944, Note_on_c, 0, 76, 96
1, 4944, Note_on_c, 1, 68, 96
1, 4944, Note_on_c, 2, 62, 96
1, 4944, Note_on_c, 3, 47, 96
1, 4944, Note_on_c, 4, 35, 96
1, 4944, Note_on_c, 5, 76, 96
1, 4944, Note_on_c, 6, 47, 96
1, 4954, Note_off_c, 5, 76, 0
1, 4956, Note_off_c, 0, 76, 0
1, 4956, Note_on_c, 0, 74, 96
1, 4956, Note_on_c, 5, 74, 96
1, 4965, Note_off_c, 1, 68, 0
1, 4965, Note_off_c, 2, 62, 0
1, 4965, Note_off_c, 3, 47, 0
1, 4965, Note_off_c, 4, 35, 0
1, 4965, Note_off_c, 6, 47, 0
1, 4966, Note_off_c, 0, 74, 0
1, 4966, Note_off_c, 5, 74, 0
1, 4968, Note_on_c, 0, 73, 96
1, 4968, Note_on_c, 1, 69, 96
1, 4968, Note_on_c, 2, 64, 96
1, 4968, Note_on_c, 3, 45, 96
1, 4968, Note_on_c, 4, 33, 96
1, 4968, Note_on_c, 5, 73, 96
1, 4968, Note_on_c, 6, 45, 96
1, 4978, Note_off_c, 5, 73, 0
1, 4980, Note_off_c, 0, 73, 0
1, 4980, Note_on_c, 0, 71, 96
1, 4980, Note_on_c, 5, 71, 96
1, 4989, Note_off_c, 1, 69, 0
1, 4989, Note_off_c, 3, 45, 0
1, 4989, Note_off_c, 4, 33, 0
1, 4989, Note_off_c, 6, 45, 0
1, 4990, Note_off_c, 0, 71, 0
1, 4990, Note_off_c, 5, 71, 0
1, 4992, Note_on_c, 0, 74, 96
1, 4992, Note_on_c, 1, 64, 96
1, 4992, Note_on_c, 3, 43, 96
1, 4992, Note_on_c, 4, 31, 96
1, 4992, Note_on_c, 5, 74, 96
1, 4992, Note_on_c, 6, 43, 96
1, 5002, Note_off_c, 5, 74, 0
1, 5004, Note_off_c, 0, 74, 0
1, 5004, Note_on_c, 0, 73, 96
1, 5004, Note_on_c, 5, 73, 96
1, 5010, Note_off_c, 2, 64, 0
1, 5013, Note_off_c, 1, 64, 0
1, 5013, Note_off_c, 3, 43, 0
1, 5013, Note_off_c, 4, 31, 0
1, 5013, Note_off_c, 6, 43, 0
1, 5014, Note_off_c, 0, 73, 0
1, 5014, Note_off_c, 5, 73, 0
1, 5016, Note_on_c, 0, 71, 96
1, 5016, Note_on_c, 1, 66, 96
1, 5016, Note_on_c, 2, 62, 96
1, 5016, Note_on_c, 3, 42, 96
1, 5016, Note_on_c, 4, 30, 96
1, 5016, Note_on_c, 5, 71, 96
1, 5016, Note_on_c, 6, 42, 96
1, 5026, Note_off_c, 5, 71, 0
1, 5028, Note_off_c, 0, 71, 0
1, 5028, Note_on_c, 0, 69, 96
1, 5028, Note_on_c, 5, 69, 96
1, 5037, Note_off_c, 1, 66, 0
1, 5037, Note_off_c, 2, 62, 0
1, 5037, Note_off_c, 3, 42, 0
1, 5037, Note_off_c, 4, 30, 0
1, 5037, Note_off_c, 6, 42, 0
1, 5038, Note_off_c, 0, 69, 0
1, 5038, Note_off_c, 5, 69, 0
1, 5040, Note_on_c, 0, 67, 96
1, 5040, Note_on_c, 1, 67, 96
1, 5040, Note_on_c, 2, 61, 96
1, 5040, Note_on_c, 3, 40, 96
1, 5040, Note_on_c, 4, 28, 96
1, 5040, Note_on_c, 5, 67, 96
1, 5040, Note_on_c, 6, 40, 96
1, 5050, Note_off_c, 5, 67, 0
1, 5052, Note_off_c, 0, 67, 0
1, 5052, Note_on_c, 0, 66, 96
1, 5052, Note_on_c, 5, 66, 96
1, 5061, Note_off_c, 1, 67, 0
1, 5061, Note_off_c, 2, 61, 0
1, 5061, Note_off_c, 3, 40, 0
1, 5061, Note_off_c, 4, 28, 0
1, 5061, Note_off_c, 6, 40, 0
1, 5062, Note_off_c, 0, 66, 0
1, 5062, Note_off_c, 5, 66, 0
1, 5064, Note_on_c, 0, 69, 96
1, 5064, Note_on_c, 1, 64, 96
1, 5064, Note_on_c, 2, 64, 96
1, 5064, Note_on_c, 3, 49, 96
1, 5064, Note_on_c, 4, 37, 96
1, 5064, Note_on_c, 5, 69, 96
1, 5064, Note_on_c, 6, 49, 96
1, 5074, Note_off_c, 5, 69, 0
1, 5076, Note_off_c, 0, 69, 0
1, 5076, Note_on_c, 0, 67, 96
1, 5076, Note_on_c, 5, 67, 96
1, 5085, Note_off_c, 1, 64, 0
1, 5085, Note_off_c, 2, 64, 0
1, 5085, Note_off_c, 3, 49, 0
1, 5085, Note_off_c, 4, 37, 0
1, 5085, Note_off_c, 6, 49, 0
1, 5086, Note_off_c, 0, 67, 0
1, 5086, Note_off_c, 5, 67, 0
1, 5088, Note_on_c, 0, 66, 96
1, 5088, Note_on_c, 1, 62, 96
1, 5088, Note_on_c, 2, 57, 96
1, 5088, Note_on_c, 3, 50, 96
1, 5088, Note_on_c, 4, 38, 96
1, 5088, Note_on_c, 5, 66, 96
1, 5088, Note_on_c, 6, 50, 96
1, 5098, Note_off_c, 5, 66, 0
1, 5100, Note_off_c, 0, 66, 0
1, 5100, Note_on_c, 0, 67, 96
1, 5100, Note_on_c, 5, 67, 96
1, 5109, Note_off_c, 1, 62, 0
1, 5109, Note_off_c, 2, 57, 0
1, 5109, Note_off_c, 3, 50, 0
1, 5109, Note_off_c, 4, 38, 0
1, 5109, Note_off_c, 6, 50, 0
1, 5110, Note_off_c, 0, 67, 0
1, 5110, Note_off_c, 5, 67, 0
1, 5112, Note_on_c, 0, 64, 96
1, 5112, Note_on_c, 1, 61, 96
1, 5112, Note_on_c, 2, 57, 96
1, 5112, Note_on_c, 3, 45, 96
1, 5112, Note_on_c, 4, 33, 96
1, 5112, Note_on_c, 5, 64, 96
1, 5112, Note_on_c, 6, 45, 96
1, 5122, Note_off_c, 5, 64, 0
1, 5124, Note_off_c, 0, 64, 0
1, 5124, Note_on_c, 0, 62, 96
1, 5124, Note_on_c, 5, 62, 96
1, 5133, Note_off_c, 1, 61, 0
1, 5133, Note_off_c, 3, 45, 0
1, 5133, Note_off_c, 4, 33, 0
1, 5133, Note_off_c, 6, 45, 0
1, 5134, Note_off_c, 5, 62, 0
1, 5136, Note_off_c, 0, 62, 0
1, 5136, Note_on_c, 0, 64, 96
1, 5136, Note_on_c, 1, 64, 96
1, 5136, Note_on_c, 3, 49, 96
1, 5136, Note_on_c, 4, 37, 96
1, 5136, Note_on_c, 5, 64, 96
1, 5136, Note_on_c, 6, 49, 96
1, 5143, Note_off_c, 2, 57, 0
1, 5146, Note_off_c, 0, 64, 0
1, 5146, Note_off_c, 5, 64, 0
1, 5148, Note_on_c, 0, 67, 96
1, 5148, Note_on_c, 2, 59, 96
1, 5148, Note_on_c, 5, 67, 96
1, 5157, Note_off_c, 1, 64, 0
1, 5157, Note_off_c, 3, 49, 0
1, 5157, Note_off_c, 4, 37, 0
1, 5157, Note_off_c, 6, 49, 0
1, 5158, Note_off_c, 0, 67, 0
1, 5158, Note_off_c, 2, 59, 0
1, 5158, Note_off_c, 5, 67, 0
1, 5160, Note_on_c, 0, 66, 96
1, 5160, Note_on_c, 1, 61, 96
1, 5160, Note_on_c, 2, 57, 96
1, 5160, Note_on_c, 3, 45, 96
1, 5160, Note_on_c, 4, 33, 96
1, 5160, Note_on_c, 5, 66, 96
1, 5160, Note_on_c, 6, 45, 96
1, 5170, Note_off_c, 0, 66, 0
1, 5170, Note_off_c, 2, 57, 0
1, 5170, Note_off_c, 5, 66, 0
1, 5172, Note_on_c, 0, 64, 96
1, 5172, Note_on_c, 2, 55, 96
1, 5172, Note_on_c, 5, 64, 96
1, 5181, Note_off_c, 1, 61, 0
1, 5181, Note_off_c, 3, 45, 0
1, 5181, Note_off_c, 4, 33, 0
1, 5181, Note_off_c, 6, 45, 0
1, 5182, Note_off_c, 0, 64, 0
1, 5182, Note_off_c, 2, 55, 0
1, 5182, Note_off_c, 5, 64, 0
1, 5184, Note_on_c, 0, 62, 96
1, 5184, Note_on_c, 1, 57, 96
1, 5184, Note_on_c, 2, 54, 96
1, 5184, Note_on_c, 3, 38, 96
1, 5184, Note_on_c, 4, 26, 96
1, 5184, Note_on_c, 5, 62, 96
1, 5184, Note_on_c, 6, 38, 96
1, 5194, Note_off_c, 5, 62, 0
1, 5196, Note_off_c, 0, 62, 0
1, 5196, Note_on_c, 0, 64, 96
1, 5196, Note_on_c, 5, 64, 96
1, 5205, Note_off_c, 1, 57, 0
1, 5205, Note_off_c, 2, 54, 0
1, 5205, Note_off_c, 3, 38, 0
1, 5205, Note_off_c, 4, 26, 0
1, 5205, Note_off_c, 6, 38, 0
1, 5206, Note_off_c, 5, 64, 0
1, 5208, Note_off_c, 0, 64, 0
1, 5208, Note_on_c, 0, 66, 96
1, 5208, Note_on_c, 1, 69, 96
1, 5208, Note_on_c, 2, 62, 96
1, 5208, Note_on_c, 3, 50, 96
1, 5208, Note_on_c, 4, 38, 96
1, 5208, Note_on_c, 5, 66, 96
1, 5208, Note_on_c, 6, 50, 96
1, 5218, Note_off_c, 5, 66, 0
1, 5220, Note_off_c, 0, 66, 0
1, 5220, Note_on_c, 0, 69, 96
1, 5220, Note_on_c, 5, 69, 96
1, 5229, Note_off_c, 1, 69, 0
1, 5229, Note_off_c, 2, 62, 0
1, 5229, Note_off_c, 3, 50, 0
1, 5229, Note_off_c, 4, 38, 0
1, 5229, Note_off_c, 6, 50, 0
1, 5230, Note_off_c, 0, 69, 0
1, 5230, Note_off_c, 5, 69, 0
1, 5232, Note_on_c, 0, 74, 96
1, 5232, Note_on_c, 1, 69, 96
1, 5232, Note_on_c, 2, 66, 96
1, 5232, Note_on_c, 3, 49, 96
1, 5232, Note_on_c, 4, 37, 96
1, 5232, Note_on_c, 5, 74, 96
1, 5232, Note_on_c, 6, 49, 96
1, 5238, Note_off_c, 0, 74, 0
1, 5253, Note_off_c, 1, 69, 0
1, 5253, Note_off_c, 2, 66, 0
1, 5253, Note_off_c, 3, 49, 0
1, 5253, Note_off_c, 4, 37, 0
1, 5253, Note_off_c, 5, 74, 0
1, 5253, Note_off_c, 6, 49, 0
1, 5256, Note_on_c, 0, 74, 96
1, 5256, Note_on_c, 1, 71, 96
1, 5256, Note_on_c, 2, 66, 96
1, 5256, Note_on_c, 3, 47, 96
1, 5256, Note_on_c, 4, 35, 96
1, 5256, Note_on_c, 5, 74, 96
1, 5256, Note_on_c, 6, 47, 96
1, 5266, Note_off_c, 5, 74, 0
1, 5268, Note_off_c, 0, 74, 0
1, 5268, Note_on_c, 0, 73, 96
1, 5268, Note_on_c, 5, 73, 96
1, 5277, Note_off_c, 1, 71, 0
1, 5277, Note_off_c, 3, 47, 0
1, 5277, Note_off_c, 4, 35, 0
1, 5277, Note_off_c, 6, 47, 0
1, 5278, Note_off_c, 0, 73, 0
1, 5278, Note_off_c, 5, 73, 0
1, 5280, Note_on_c, 0, 76, 96
1, 5280, Note_on_c, 1, 66, 96
1, 5280, Note_on_c, 3, 45, 96
1, 5280, Note_on_c, 4, 33, 96
1, 5280, Note_on_c, 5, 76, 96
1, 5280, Note_on_c, 6, 45, 96
1, 5290, Note_off_c, 5, 76, 0
1, 5292, Note_off_c, 0, 76, 0
1, 5292, Note_on_c, 0, 74, 96
1, 5292, Note_on_c, 5, 74, 96
1, 5298, Note_off_c, 2, 66, 0
1, 5301, Note_off_c, 1, 66, 0
1, 5301, Note_off_c, 3, 45, 0
1, 5301, Note_off_c, 4, 33, 0
1, 5301, Note_off_c, 6, 45, 0
1, 5302, Note_off_c, 0, 74, 0
1, 5302, Note_off_c, 5, 74, 0
1, 5304, Note_on_c, 0, 73, 96
1, 5304, Note_on_c, 1, 67, 96
1, 5304, Note_on_c, 2, 64, 96
1, 5304, Note_on_c, 3, 43, 96
1, 5304, Note_on_c, 4, 31, 96
1, 5304, Note_on_c, 5, 73, 96
1, 5304, Note_on_c, 6, 43, 96
1, 5314, Note_off_c, 5, 73, 0
1, 5316, Note_off_c, 0, 73, 0
1, 5316, Note_on_c, 0, 71, 96
1, 5316, Note_on_c, 5, 71, 96
1, 5325, Note_off_c, 1, 67, 0
1, 5325, Note_off_c, 2, 64, 0
1, 5325, Note_off_c, 3, 43, 0
1, 5325, Note_off_c, 4, 31, 0
1, 5325, Note_off_c, 6, 43, 0
1, 5326, Note_off_c, 0, 71, 0
1, 5326, Note_off_c, 5, 71, 0
1, 5328, Note_on_c, 0, 62, 96
1, 5328, Note_on_c, 1, 69, 96
1, 5328, Note_on_c, 2, 62, 96
1, 5328, Note_on_c, 3, 42, 96
1, 5328, Note_on_c, 4, 30, 96
1, 5328, Note_on_c, 5, 62, 96
1, 5328, Note_on_c, 6, 42, 96
1, 5338, Note_off_c, 5, 62, 0
1, 5340, Note_off_c, 0, 62, 0
1, 5340, Note_on_c, 0, 64, 96
1, 5340, Note_on_c, 5, 64, 96
1, 5349, Note_off_c, 1, 69, 0
1, 5349, Note_off_c, 2, 62, 0
1, 5349, Note_off_c, 3, 42, 0
1, 5349, Note_off_c, 4, 30, 0
1, 5349, Note_off_c, 6, 42, 0
1, 5350, Note_off_c, 5, 64, 0
1, 5352, Note_off_c, 0, 64, 0
1, 5352, Note_on_c, 0, 66, 96
1, 5352, Note_on_c, 1, 72, 96
1, 5352, Note_on_c, 2, 57, 96
1, 5352, Note_on_c, 3, 40, 96
1, 5352, Note_on_c, 4, 28, 96
1, 5352, Note_on_c, 5, 66, 96
1, 5352, Note_on_c, 6, 40, 96
1, 5362, Note_off_c, 5, 66, 0
1, 5364, Note_off_c, 0, 66, 0
1, 5364, Note_on_c, 0, 69, 96
1, 5364, Note_on_c, 5, 69, 96
1, 5373, Note_off_c, 1, 72, 0
1, 5373, Note_off_c, 2, 57, 0
1, 5373, Note_off_c, 3, 40, 0
1, 5373, Note_off_c, 4, 28, 0
1, 5373, Note_off_c, 6, 40, 0
1, 5374, Note_off_c, 0, 69, 0
1, 5374, Note_off_c, 5, 69, 0
1, 5376, Note_on_c, 0, 72, 96
1, 5376, Note_on_c, 1, 69, 96
1, 5376, Note_on_c, 2, 54, 96
1, 5376, Note_on_c, 3, 38, 96
1, 5376, Note_on_c, 4, 26, 96
1, 5376, Note_on_c, 5, 72, 96
1, 5376, Note_on_c, 6, 38, 96
1, 5382, Note_off_c, 0, 72, 0
1, 5397, Note_off_c, 1, 69, 0
1, 5397, Note_off_c, 2, 54, 0
1, 5397, Note_off_c, 3, 38, 0
1, 5397, Note_off_c, 4, 26, 0
1, 5397, Note_off_c, 5, 72, 0
1, 5397, Note_off_c, 6, 38, 0
1, 5400, Note_on_c, 0, 72, 96
1, 5400, Note_on_c, 1, 66, 96
1, 5400, Note_on_c, 2, 50, 96
1, 5400, Note_on_c, 3, 50, 96
1, 5400, Note_on_c, 4, 38, 96
1, 5400, Note_on_c, 5, 72, 96
1, 5400, Note_on_c, 6, 50, 96
1, 5421, Note_off_c, 1, 66, 0
1, 5421, Note_off_c, 3, 50, 0
1, 5421, Note_off_c, 4, 38, 0
1, 5421, Note_off_c, 6, 50, 0
1, 5424, Note_on_c, 1, 67, 96
1, 5424, Note_on_c, 3, 52, 96
1, 5424, Note_on_c, 4, 40, 96
1, 5424, Note_on_c, 6, 52, 96
1, 5445, Note_off_c, 1, 67, 0
1, 5445, Note_off_c, 3, 52, 0
1, 5445, Note_off_c, 4, 40, 0
1, 5445, Note_off_c, 6, 52, 0
1, 5448, Note_on_c, 1, 69, 96
1, 5448, Note_on_c, 3, 54, 96
1, 5448, Note_on_c, 4, 42, 96
1, 5448, Note_on_c, 6, 54, 96
1, 5463, Note_off_c, 0, 72, 0
1, 5463, Note_off_c, 2, 50, 0
1, 5463, Note_off_c, 5, 72, 0
1, 5469, Note_off_c, 1, 69, 0
1, 5469, Note_off_c, 3, 54, 0
1, 5469, Note_off_c, 4, 42, 0
1, 5469, Note_off_c, 6, 54, 0
1, 5472, Note_on_c, 0, 71, 96
1, 5472, Note_on_c, 1, 67, 96
1, 5472, Note_on_c, 2, 62, 96
1, 5472, Note_on_c, 3, 55, 96
1, 5472, Note_on_c, 4, 43, 96
1, 5472, Note_on_c, 5, 71, 96
1, 5472, Note_on_c, 6, 55, 96
1, 5482, Note_off_c, 5, 71, 0
1, 5484, Note_off_c, 0, 71, 0
1, 5484, Note_on_c, 0, 74, 96
1, 5484, Note_on_c, 5, 74, 96
1, 5493, Note_off_c, 1, 67, 0
1, 5493, Note_off_c, 2, 62, 0
1, 5493, Note_off_c, 3, 55, 0
1, 5493, Note_off_c, 4, 43, 0
1, 5493, Note_off_c, 6, 55, 0
1, 5494, Note_off_c, 0, 74, 0
1, 5494, Note_off_c, 5, 74, 0
1, 5496, Note_on_c, 0, 79, 96
1, 5496, Note_on_c, 1, 71, 96
1, 5496, Note_on_c, 2, 64, 96
1, 5496, Note_on_c, 3, 52, 96
1, 5496, Note_on_c, 4, 40, 96
1, 5496, Note_on_c, 5, 79, 96
1, 5496, Note_on_c, 6, 52, 96
1, 5506, Note_off_c, 5, 79, 0
1, 5508, Note_off_c, 0, 79, 0
1, 5508, Note_on_c, 0, 78, 96
1, 5508, Note_on_c, 5, 78, 96
1, 5517, Note_off_c, 1, 71, 0
1, 5517, Note_off_c, 2, 64, 0
1, 5517, Note_off_c, 3, 52, 0
1, 5517, Note_off_c, 4, 40, 0
1, 5517, Note_off_c, 6, 52, 0
1, 5518, Note_off_c, 0, 78, 0
1, 5518, Note_off_c, 5, 78, 0
1, 5520, Note_on_c, 0, 76, 96
1, 5520, Note_on_c, 1, 71, 96
1, 5520, Note_on_c, 2, 64, 96
1, 5520, Note_on_c, 3, 55, 96
1, 5520, Note_on_c, 4, 43, 96
1, 5520, Note_on_c, 5, 76, 96
1, 5520, Note_on_c, 6, 55, 96
1, 5530, Note_off_c, 5, 76, 0
1, 5532, Note_off_c, 0, 76, 0
1, 5532, Note_on_c, 0, 74, 96
1, 5532, Note_on_c, 5, 74, 96
1, 5541, Note_off_c, 1, 71, 0
1, 5541, Note_off_c, 2, 64, 0
1, 5541, Note_off_c, 3, 55, 0
1, 5541, Note_off_c, 4, 43, 0
1, 5541, Note_off_c, 6, 55, 0
1, 5542, Note_off_c, 0, 74, 0
1, 5542, Note_off_c, 5, 74, 0
1, 5544, Note_on_c, 0, 73, 96
1, 5544, Note_on_c, 1, 69, 96
1, 5544, Note_on_c, 2, 64, 96
1, 5544, Note_on_c, 3, 57, 96
1, 5544, Note_on_c, 4, 45, 96
1, 5544, Note_on_c, 5, 73, 96
1, 5544, Note_on_c, 6, 57, 96
1, 5554, Note_off_c, 5, 73, 0
1, 5556, Note_off_c, 0, 73, 0
1, 5556, Note_on_c, 0, 71, 96
1, 5556, Note_on_c, 5, 71, 96
1, 5565, Note_off_c, 1, 69, 0
1, 5565, Note_off_c, 2, 64, 0
1, 5565, Note_off_c, 3, 57, 0
1, 5565, Note_off_c, 4, 45, 0
1, 5565, Note_off_c, 6, 57, 0
1, 5566, Note_off_c, 0, 71, 0
1, 5566, Note_off_c, 5, 71, 0
1, 5568, Note_on_c, 0, 74, 96
1, 5568, Note_on_c, 1, 69, 96
1, 5568, Note_on_c, 2, 64, 96
1, 5568, Note_on_c, 3, 59, 96
1, 5568, Note_on_c, 4, 47, 96
1, 5568, Note_on_c, 5, 74, 96
1, 5568, Note_on_c, 6, 59, 96
1, 5578, Note_off_c, 5, 74, 0
1, 5580, Note_off_c, 0, 74, 0
1, 5580, Note_on_c, 0, 73, 96
1, 5580, Note_on_c, 5, 73, 96
1, 5589, Note_off_c, 1, 69, 0
1, 5589, Note_off_c, 2, 64, 0
1, 5589, Note_off_c, 3, 59, 0
1, 5589, Note_off_c, 4, 47, 0
1, 5589, Note_off_c, 6, 59, 0
1, 5590, Note_off_c, 0, 73, 0
1, 5590, Note_off_c, 5, 73, 0
1, 5592, Note_on_c, 0, 71, 96
1, 5592, Note_on_c, 1, 69, 96
1, 5592, Note_on_c, 2, 64, 96
1, 5592, Note_on_c, 3, 61, 96
1, 5592, Note_on_c, 4, 49, 96
1, 5592, Note_on_c, 5, 71, 96
1, 5592, Note_on_c, 6, 61, 96
1, 5602, Note_off_c, 5, 71, 0
1, 5604, Note_off_c, 0, 71, 0
1, 5604, Note_on_c, 0, 69, 96
1, 5604, Note_on_c, 5, 69, 96
1, 5613, Note_off_c, 1, 69, 0
1, 5613, Note_off_c, 2, 64, 0
1, 5613, Note_off_c, 3, 61, 0
1, 5613, Note_off_c, 4, 49, 0
1, 5613, Note_off_c, 6, 61, 0
1, 5614, Note_off_c, 0, 69, 0
1, 5614, Note_off_c, 5, 69, 0
1, 5616, Note_on_c, 0, 78, 96
1, 5616, Note_on_c, 1, 69, 96
1, 5616, Note_on_c, 2, 62, 96
1, 5616, Note_on_c, 3, 62, 96
1, 5616, Note_on_c, 4, 50, 96
1, 5616, Note_on_c, 5, 78, 96
1, 5616, Note_on_c, 6, 62, 96
1, 5637, Note_off_c, 0, 78, 0
1, 5637, Note_off_c, 1, 69, 0
1, 5637, Note_off_c, 2, 62, 0
1, 5637, Note_off_c, 3, 62, 0
1, 5637, Note_off_c, 4, 50, 0
1, 5637, Note_off_c, 5, 78, 0
1, 5637, Note_off_c, 6, 62, 0
1, 5640, Note_on_c, 0, 79, 96
1, 5640, Note_on_c, 1, 71, 96
1, 5640, Note_on_c, 2, 62, 96
1, 5640, Note_on_c, 3, 55, 96
1, 5640, Note_on_c, 4, 43, 96
1, 5640, Note_on_c, 5, 79, 96
1, 5640, Note_on_c, 6, 55, 96
1, 5661, Note_off_c, 0, 79, 0
1, 5661, Note_off_c, 1, 71, 0
1, 5661, Note_off_c, 2, 62, 0
1, 5661, Note_off_c, 3, 55, 0
1, 5661, Note_off_c, 4, 43, 0
1, 5661, Note_off_c, 5, 79, 0
1, 5661, Note_off_c, 6, 55, 0
1, 5664, Note_on_c, 0, 78, 96
1, 5664, Note_on_c, 1, 69, 96
1, 5664, Note_on_c, 2, 61, 96
1, 5664, Note_on_c, 3, 57, 96
1, 5664, Note_on_c, 4, 45, 96
1, 5664, Note_on_c, 5, 76, 96
1, 5664, Note_on_c, 6, 57, 96
1, 5670, Note_off_c, 0, 78, 0
1, 5670, Note_on_c, 0, 76, 96
1, 5676, Note_off_c, 0, 76, 0
1, 5676, Note_on_c, 0, 78, 96
1, 5682, Note_off_c, 0, 78, 0
1, 5682, Note_on_c, 0, 76, 96
1, 5685, Note_off_c, 1, 69, 0
1, 5685, Note_off_c, 2, 61, 0
1, 5685, Note_off_c, 3, 57, 0
1, 5685, Note_off_c, 4, 45, 0
1, 5685, Note_off_c, 5, 76, 0
1, 5685, Note_off_c, 6, 57, 0
1, 5687, Note_off_c, 0, 76, 0
1, 5688, Note_on_c, 0, 74, 96
1, 5688, Note_on_c, 1, 69, 96
1, 5688, Note_on_c, 2, 66, 96
1, 5688, Note_on_c, 3, 50, 96
1, 5688, Note_on_c, 4, 38, 96
1, 5688, Note_on_c, 5, 74, 96
1, 5688, Note_on_c, 6, 50, 96
1, 5709, Note_off_c, 3, 50, 0
1, 5709, Note_off_c, 4, 38, 0
1, 5709, Note_off_c, 6, 50, 0
1, 5712, Note_on_c, 3, 42, 96
1, 5712, Note_on_c, 4, 30, 96
1, 5712, Note_on_c, 6, 42, 96
1, 5733, Note_off_c, 3, 42, 0
1, 5733, Note_off_c, 4, 30, 0
1, 5733, Note_off_c, 6, 42, 0
1, 5736, Note_on_c, 3, 45, 96
1, 5736, Note_on_c, 4, 33, 96
1, 5736, Note_on_c, 6, 45, 96
1, 5751, Note_off_c, 0, 74, 0
1, 5751, Note_off_c, 1, 69, 0
1, 5751, Note_off_c, 2, 66, 0
1, 5751, Note_off_c, 5, 74, 0
1, 5757, Note_off_c, 3, 45, 0
1, 5757, Note_off_c, 4, 33, 0
1, 5757, Note_off_c, 6, 45, 0
1, 5760, Note_on_c, 0, 74, 80
1, 5760, Note_on_c, 1, 69, 80
1, 5760, Note_on_c, 2, 66, 80
1, 5760, Note_on_c, 3, 38, 80
1, 5760, Note_on_c, 4, 26, 80
1, 5760, Note_on_c, 5, 66, 96
1, 5760, Note_on_c, 6, 50, 96
1, 5770, Note_off_c, 5, 66, 0
1, 5772, Note_on_c, 5, 69, 96
1, 5781, Note_off_c, 6, 50, 0
1, 5782, Note_off_c, 5, 69, 0
1, 5784, Note_on_c, 5, 74, 96
1, 5784, Note_on_c, 6, 54, 96
1, 5794, Note_off_c, 5, 74, 0
1, 5796, Note_on_c, 5, 73, 96
1, 5801, Note_off_c, 5, 73, 0
1, 5802, Note_off_c, 3, 38, 0
1, 5802, Note_off_c, 4, 26, 0
1, 5802, Note_on_c, 5, 71, 96
1, 5805, Note_off_c, 6, 54, 0
1, 5807, Note_off_c, 5, 71, 0
1, 5808, Note_on_c, 5, 69, 96
1, 5808, Note_on_c, 6, 52, 96
1, 5813, Note_off_c, 5, 69, 0
1, 5814, Note_on_c, 5, 67, 96
1, 5819, Note_off_c, 5, 67, 0
1, 5820, Note_on_c, 5, 66, 96
1, 5823, Note_off_c, 1, 69, 0
1, 5825, Note_off_c, 5, 66, 0
1, 5826, Note_on_c, 5, 64, 96
1, 5829, Note_off_c, 6, 52, 0
1, 5831, Note_off_c, 5, 64, 0
1, 5832, Note_on_c, 1, 72, 80
1, 5832, Note_on_c, 5, 66, 96
1, 5832, Note_on_c, 6, 50, 96
1, 5839, Note_off_c, 5, 66, 0
1, 5840, Note_on_c, 5, 69, 96
1, 5847, Note_off_c, 5, 69, 0
1, 5848, Note_on_c, 5, 74, 96
1, 5855, Note_off_c, 5, 74, 0
1, 5856, Note_on_c, 5, 62, 96
1, 5863, Note_off_c, 5, 62, 0
1, 5864, Note_on_c, 5, 66, 96
1, 5871, Note_off_c, 5, 66, 0
1, 5872, Note_on_c, 5, 74, 96
1, 5874, Note_off_c, 6, 50, 0
1, 5879, Note_off_c, 5, 74, 0
1, 5880, Note_on_c, 5, 66, 96
1, 5887, Note_off_c, 5, 66, 0
1, 5888, Note_on_c, 5, 69, 96
1, 5892, Note_off_c, 2, 66, 0
1, 5895, Note_off_c, 1, 72, 0
1, 5895, Note_off_c, 5, 69, 0
1, 5896, Note_on_c, 5, 74, 96
1, 5903, Note_off_c, 5, 74, 0
1, 5904, Note_on_c, 1, 71, 80
1, 5904, Note_on_c, 2, 67, 80
1, 5904, Note_on_c, 5, 67, 96
1, 5904, Note_on_c, 6, 55, 96
1, 5911, Note_off_c, 5, 67, 0
1, 5912, Note_on_c, 5, 71, 96
1, 5916, Note_off_c, 0, 74, 0
1, 5919, Note_off_c, 5, 71, 0
1, 5920, Note_on_c, 5, 74, 96
1, 5925, Note_off_c, 1, 71, 0
1, 5925, Note_off_c, 2, 67, 0
1, 5925, Note_off_c, 6, 55, 0
1, 5927, Note_off_c, 5, 74, 0
1, 5928, Note_on_c, 0, 76, 80
1, 5928, Note_on_c, 1, 69, 80
1, 5928, Note_on_c, 2, 67, 80
1, 5928, Note_on_c, 5, 64, 96
1, 5928, Note_on_c, 6, 48, 96
1, 5935, Note_off_c, 5, 64, 0
1, 5936, Note_on_c, 5, 69, 96
1, 5943, Note_off_c, 5, 69, 0
1, 5944, Note_on_c, 5, 72, 96
1, 5949, Note_off_c, 0, 76, 0
1, 5949, Note_off_c, 1, 69, 0
1, 5949, Note_off_c, 2, 67, 0
1, 5949, Note_off_c, 6, 48, 0
1, 5951, Note_off_c, 5, 72, 0
1, 5952, Note_on_c, 0, 74, 80
1, 5952, Note_on_c, 1, 69, 80
1, 5952, Note_on_c, 2, 66, 80
1, 5952, Note_on_c, 5, 66, 96
1, 5952, Note_on_c, 6, 50, 96
1, 5959, Note_off_c, 5, 66, 0
1, 5960, Note_on_c, 5, 69, 96
1, 5967, Note_off_c, 5, 69, 0
1, 5968, Note_on_c, 5, 72, 96
1, 5973, Note_off_c, 0, 74, 0
1, 5973, Note_off_c, 1, 69, 0
1, 5973, Note_off_c, 2, 66, 0
1, 5973, Note_off_c, 6, 50, 0
1, 5975, Note_off_c, 5, 72, 0
1, 5976, Note_on_c, 0, 74, 80
1, 5976, Note_on_c, 1, 71, 80
1, 5976, Note_on_c, 2, 67, 80
1, 5976, Note_on_c, 5, 71, 96
1, 5976, Note_on_c, 6, 43, 96
1, 5983, Note_off_c, 5, 71, 0
1, 5984, Note_on_c, 5, 69, 96
1, 5991, Note_off_c, 5, 69, 0
1, 5992, Note_on_c, 5, 67, 96
1, 5999, Note_off_c, 5, 67, 0
1, 6000, Note_on_c, 5, 66, 96
1, 6007, Note_off_c, 5, 66, 0
1, 6008, Note_on_c, 5, 69, 96
1, 6015, Note_off_c, 5, 69, 0
1, 6016, Note_on_c, 5, 72, 96
1, 6018, Note_off_c, 0, 74, 0
1, 6018, Note_off_c, 1, 71, 0
1, 6018, Note_off_c, 2, 67, 0
1, 6018, Note_off_c, 6, 43, 0
1, 6023, Note_off_c, 5, 72, 0
1, 6024, Note_on_c, 5, 71, 96
1, 6031, Note_off_c, 5, 71, 0
1, 6032, Note_on_c, 5, 69, 96
1, 6039, Note_off_c, 5, 69, 0
1, 6040, Note_on_c, 5, 67, 96
1, 6047, Note_off_c, 5, 67, 0
1, 6048, Note_on_c, 0, 76, 80
1, 6048, Note_on_c, 1, 69, 80
1, 6048, Note_on_c, 2, 67, 80
1, 6048, Note_on_c, 5, 73, 96
1, 6048, Note_on_c, 6, 52, 96
1, 6058, Note_off_c, 5, 73, 0
1, 6060, Note_on_c, 5, 76, 96
1, 6069, Note_off_c, 6, 52, 0
1, 6070, Note_off_c, 5, 76, 0
1, 6072, Note_on_c, 5, 79, 96
1, 6072, Note_on_c, 6, 49, 96
1, 6082, Note_off_c, 5, 79, 0
1, 6084, Note_on_c, 5, 78, 96
1, 6089, Note_off_c, 5, 78, 0
1, 6090, Note_on_c, 5, 76, 96
1, 6093, Note_off_c, 6, 49, 0
1, 6095, Note_off_c, 5, 76, 0
1, 6096, Note_on_c, 5, 74, 96
1, 6096, Note_on_c, 6, 45, 96
1, 6101, Note_off_c, 5, 74, 0
1, 6102, Note_on_c, 5, 73, 96
1, 6107, Note_off_c, 5, 73, 0
1, 6108, Note_on_c, 5, 71, 96
1, 6111, Note_off_c, 2, 67, 0
1, 6113, Note_off_c, 5, 71, 0
1, 6114, Note_on_c, 5, 69, 96
1, 6117, Note_off_c, 6, 45, 0
1, 6119, Note_off_c, 5, 69, 0
1, 6120, Note_on_c, 2, 66, 80
1, 6120, Note_on_c, 5, 78, 96
1, 6120, Note_on_c, 6, 50, 96
1, 6127, Note_off_c, 5, 78, 0
1, 6128, Note_on_c, 5, 76, 96
1, 6132, Note_off_c, 0, 76, 0
1, 6132, Note_off_c, 1, 69, 0
1, 6135, Note_off_c, 5, 76, 0
1, 6136, Note_on_c, 5, 81, 96
1, 6141, Note_off_c, 2, 66, 0
1, 6143, Note_off_c, 5, 81, 0
1, 6144, Note_on_c, 0, 74, 80
1, 6144, Note_on_c, 1, 71, 80
1, 6144, Note_on_c, 2, 67, 80
1, 6144, Note_on_c, 5, 74, 96
1, 6151, Note_off_c, 5, 74, 0
1, 6152, Note_on_c, 5, 73, 96
1, 6159, Note_off_c, 5, 73, 0
1, 6160, Note_on_c, 5, 79, 96
1, 6162, Note_off_c, 6, 50, 0
1, 6165, Note_off_c, 0, 74, 0
1, 6165, Note_off_c, 1, 71, 0
1, 6165, Note_off_c, 2, 67, 0
1, 6167, Note_off_c, 5, 79, 0
1, 6168, Note_on_c, 0, 72, 80
1, 6168, Note_on_c, 1, 66, 80
1, 6168, Note_on_c, 2, 69, 80
1, 6168, Note_on_c, 5, 78, 96
1, 6175, Note_off_c, 5, 78, 0
1, 6176, Note_on_c, 5, 74, 96
1, 6183, Note_off_c, 5, 74, 0
1, 6184, Note_on_c, 5, 69, 96
1, 6189, Note_off_c, 0, 72, 0
1, 6189, Note_off_c, 1, 66, 0
1, 6189, Note_off_c, 2, 69, 0
1, 6191, Note_off_c, 5, 69, 0
1, 6192, Note_on_c, 0, 71, 80
1, 6192, Note_on_c, 1, 62, 80
1, 6192, Note_on_c, 2, 71, 80
1, 6192, Note_on_c, 5, 71, 96
1, 6192, Note_on_c, 6, 43, 96
1, 6199, Note_off_c, 5, 71, 0
1, 6200, Note_on_c, 5, 67, 96
1, 6207, Note_off_c, 5, 67, 0
1, 6208, Note_on_c, 5, 78, 96
1, 6213, Note_off_c, 0, 71, 0
1, 6213, Note_off_c, 1, 62, 0
1, 6213, Note_off_c, 2, 71, 0
1, 6213, Note_off_c, 6, 43, 0
1, 6215, Note_off_c, 5, 78, 0
1, 6216, Note_on_c, 0, 76, 80
1, 6216, Note_on_c, 1, 67, 80
1, 6216, Note_on_c, 2, 59, 80
1, 6216, Note_on_c, 5, 71, 96
1, 6216, Note_on_c, 6, 55, 96
1, 6223, Note_off_c, 5, 71, 0
1, 6224, Note_on_c, 5, 67, 96
1, 6231, Note_off_c, 5, 67, 0
1, 6232, Note_on_c, 5, 76, 96
1, 6237, Note_off_c, 0, 76, 0
1, 6237, Note_off_c, 1, 67, 0
1, 6237, Note_off_c, 2, 59, 0
1, 6237, Note_off_c, 6, 55, 0
1, 6239, Note_off_c, 5, 76, 0
1, 6240, Note_on_c, 0, 74, 80
1, 6240, Note_on_c, 1, 68, 80
1, 6240, Note_on_c, 2, 64, 80
1, 6240, Note_on_c, 5, 71, 96
1, 6240, Note_on_c, 6, 52, 96
1, 6247, Note_off_c, 5, 71, 0
1, 6248, Note_on_c, 5, 68, 96
1, 6255, Note_off_c, 5, 68, 0
1, 6256, Note_on_c, 5, 74, 96
1, 6261, Note_off_c, 0, 74, 0
1, 6261, Note_off_c, 1, 68, 0
1, 6261, Note_off_c, 2, 64, 0
1, 6261, Note_off_c, 6, 52, 0
1, 6263, Note_off_c, 5, 74, 0
1, 6264, Note_on_c, 0, 73, 80
1, 6264, Note_on_c, 1, 69, 80
1, 6264, Note_on_c, 2, 64, 80
1, 6264, Note_on_c, 5, 73, 96
1, 6264, Note_on_c, 6, 57, 96
1, 6271, Note_off_c, 5, 73, 0
1, 6272, Note_on_c, 5, 71, 96
1, 6279, Note_off_c, 5, 71, 0
1, 6280, Note_on_c, 5, 69, 96
1, 6287, Note_off_c, 5, 69, 0
1, 6288, Note_on_c, 5, 68, 96
1, 6295, Note_off_c, 5, 68, 0
1, 6296, Note_on_c, 5, 71, 96
1, 6303, Note_off_c, 5, 71, 0
1, 6304, Note_on_c, 5, 74, 96
1, 6306, Note_off_c, 0, 73, 0
1, 6306, Note_off_c, 1, 69, 0
1, 6306, Note_off_c, 2, 64, 0
1, 6306, Note_off_c, 6, 57, 0
1, 6311, Note_off_c, 5, 74, 0
1, 6312, Note_on_c, 5, 73, 96
1, 6319, Note_off_c, 5, 73, 0
1, 6320, Note_on_c, 5, 71, 96
1, 6327, Note_off_c, 5, 71, 0
1, 6328, Note_on_c, 5, 69, 96
1, 6335, Note_off_c, 5, 69, 0
1, 6336, Note_on_c, 0, 76, 80
1, 6336, Note_on_c, 1, 67, 80
1, 6336, Note_on_c, 2, 61, 80
1, 6336, Note_on_c, 5, 76, 96
1, 6336, Note_on_c, 6, 45, 96
1, 6343, Note_off_c, 5, 76, 0
1, 6344, Note_on_c, 5, 73, 96
1, 6351, Note_off_c, 5, 73, 0
1, 6352, Note_on_c, 5, 69, 96
1, 6357, Note_off_c, 2, 61, 0
1, 6357, Note_off_c, 6, 45, 0
1, 6359, Note_off_c, 5, 69, 0
1, 6360, Note_on_c, 2, 62, 80
1, 6360, Note_on_c, 5, 67, 96
1, 6360, Note_on_c, 6, 47, 96
1, 6367, Note_off_c, 5, 67, 0
1, 6368, Note_on_c, 5, 66, 96
1, 6375, Note_off_c, 5, 66, 0
1, 6376, Note_on_c, 5, 67, 96
1, 6381, Note_off_c, 2, 62, 0
1, 6381, Note_off_c, 6, 47, 0
1, 6383, Note_off_c, 5, 67, 0
1, 6384, Note_on_c, 2, 64, 80
1, 6384, Note_on_c, 5, 67, 96
1, 6384, Note_on_c, 6, 49, 96
1, 6391, Note_off_c, 5, 67, 0
1, 6392, Note_on_c, 5, 76, 96
1, 6399, Note_off_c, 5, 76, 0
1, 6400, Note_on_c, 5, 67, 96
1, 6405, Note_off_c, 2, 64, 0
1, 6405, Note_off_c, 6, 49, 0
1, 6407, Note_off_c, 5, 67, 0
1, 6408, Note_on_c, 2, 57, 80
1, 6408, Note_on_c, 5, 67, 96
1, 6408, Note_on_c, 6, 50, 96
1, 6415, Note_off_c, 5, 67, 0
1, 6416, Note_on_c, 5, 66, 96
1, 6420, Note_off_c, 0, 76, 0
1, 6420, Note_off_c, 1, 67, 0
1, 6423, Note_off_c, 5, 66, 0
1, 6424, Note_on_c, 5, 64, 96
1, 6431, Note_off_c, 5, 64, 0
1, 6432, Note_on_c, 0, 74, 80
1, 6432, Note_on_c, 1, 66, 80
1, 6432, Note_on_c, 5, 66, 96
1, 6439, Note_off_c, 5, 66, 0
1, 6440, Note_on_c, 5, 62, 96
1, 6447, Note_off_c, 5, 62, 0
1, 6448, Note_on_c, 5, 66, 96
1, 6450, Note_off_c, 2, 57, 0
1, 6450, Note_off_c, 6, 50, 0
1, 6453, Note_off_c, 0, 74, 0
1, 6453, Note_off_c, 1, 66, 0
1, 6455, Note_off_c, 5, 66, 0
1, 6456, Note_on_c, 0, 78, 80
1, 6456, Note_on_c, 1, 69, 80
1, 6456, Note_on_c, 5, 69, 96
1, 6463, Note_off_c, 5, 69, 0
1, 6464, Note_on_c, 5, 74, 96
1, 6468, Note_off_c, 0, 78, 0
1, 6468, Note_on_c, 0, 76, 80
1, 6468, Note_off_c, 1, 69, 0
1, 6468, Note_on_c, 1, 67, 80
1, 6471, Note_off_c, 5, 74, 0
1, 6472, Note_on_c, 5, 76, 96
1, 6478, Note_off_c, 0, 76, 0
1, 6478, Note_off_c, 1, 67, 0
1, 6479, Note_off_c, 5, 76, 0
1, 6480, Note_on_c, 0, 78, 80
1, 6480, Note_on_c, 1, 69, 80
1, 6480, Note_on_c, 2, 63, 80
1, 6480, Note_on_c, 5, 78, 96
1, 6480, Note_on_c, 6, 47, 96
1, 6487, Note_off_c, 5, 78, 0
1, 6488, Note_on_c, 5, 75, 96
1, 6495, Note_off_c, 5, 75, 0
1, 6496, Note_on_c, 5, 71, 96
1, 6501, Note_off_c, 2, 63, 0
1, 6501, Note_off_c, 6, 47, 0
1, 6503, Note_off_c, 5, 71, 0
1, 6504, Note_on_c, 2, 64, 80
1, 6504, Note_on_c, 5, 69, 96
1, 6504, Note_on_c, 6, 49, 96
1, 6511, Note_off_c, 5, 69, 0
1, 6512, Note_on_c, 5, 67, 96
1, 6519, Note_off_c, 5, 67, 0
1, 6520, Note_on_c, 5, 69, 96
1, 6525, Note_off_c, 2, 64, 0
1, 6525, Note_off_c, 6, 49, 0
1, 6527, Note_off_c, 5, 69, 0
1, 6528, Note_on_c, 2, 66, 80
1, 6528, Note_on_c, 5, 69, 96
1, 6528, Note_on_c, 6, 51, 96
1, 6535, Note_off_c, 5, 69, 0
1, 6536, Note_on_c, 5, 66, 96
1, 6543, Note_off_c, 5, 66, 0
1, 6544, Note_on_c, 5, 69, 96
1, 6549, Note_off_c, 2, 66, 0
1, 6549, Note_off_c, 6, 51, 0
1, 6551, Note_off_c, 5, 69, 0
1, 6552, Note_on_c, 2, 59, 80
1, 6552, Note_on_c, 5, 69, 96
1, 6552, Note_on_c, 6, 52, 96
1, 6559, Note_off_c, 5, 69, 0
1, 6560, Note_on_c, 5, 67, 96
1, 6564, Note_off_c, 0, 78, 0
1, 6564, Note_off_c, 1, 69, 0
1, 6567, Note_off_c, 5, 67, 0
1, 6568, Note_on_c, 5, 66, 96
1, 6575, Note_off_c, 5, 66, 0
1, 6576, Note_on_c, 0, 76, 80
1, 6576, Note_on_c, 1, 67, 80
1, 6576, Note_on_c, 5, 67, 96
1, 6583, Note_off_c, 5, 67, 0
1, 6584, Note_on_c, 5, 64, 96
1, 6591, Note_off_c, 5, 64, 0
1, 6592, Note_on_c, 5, 67, 96
1, 6594, Note_off_c, 2, 59, 0
1, 6594, Note_off_c, 6, 52, 0
1, 6597, Note_off_c, 0, 76, 0
1, 6597, Note_off_c, 1, 67, 0
1, 6599, Note_off_c, 5, 67, 0
1, 6600, Note_on_c, 0, 79, 80
1, 6600, Note_on_c, 1, 71, 80
1, 6600, Note_on_c, 5, 71, 96
1, 6607, Note_off_c, 5, 71, 0
1, 6608, Note_on_c, 5, 76, 96
1, 6612, Note_off_c, 0, 79, 0
1, 6612, Note_on_c, 0, 78, 80
1, 6612, Note_off_c, 1, 71, 0
1, 6612, Note_on_c, 1, 69, 80
1, 6615, Note_off_c, 5, 76, 0
1, 6616, Note_on_c, 5, 78, 96
1, 6622, Note_off_c, 0, 78, 0
1, 6622, Note_off_c, 1, 69, 0
1, 6623, Note_off_c, 5, 78, 0
1, 6624, Note_on_c, 0, 79, 80
1, 6624, Note_on_c, 1, 71, 80
1, 6624, Note_on_c, 2, 64, 80
1, 6624, Note_on_c, 5, 79, 96
1, 6624, Note_on_c, 6, 52, 96
1, 6631, Note_off_c, 5, 79, 0
1, 6632, Note_on_c, 5, 78, 96
1, 6639, Note_off_c, 5, 78, 0
1, 6640, Note_on_c, 5, 76, 96
1, 6645, Note_off_c, 1, 71, 0
1, 6645, Note_off_c, 2, 64, 0
1, 6647, Note_off_c, 5, 76, 0
1, 6648, Note_on_c, 1, 76, 80
1, 6648, Note_on_c, 2, 67, 80
1, 6648, Note_on_c, 5, 74, 96
1, 6655, Note_off_c, 5, 74, 0
1, 6656, Note_on_c, 5, 72, 96
1, 6663, Note_off_c, 5, 72, 0
1, 6664, Note_on_c, 5, 71, 96
1, 6666, Note_off_c, 0, 79, 0
1, 6666, Note_off_c, 6, 52, 0
1, 6669, Note_off_c, 1, 76, 0
1, 6669, Note_off_c, 2, 67, 0
1, 6671, Note_off_c, 5, 71, 0
1, 6672, Note_on_c, 5, 72, 96
1, 6679, Note_off_c, 5, 72, 0
1, 6680, Note_on_c, 5, 71, 96
1, 6687, Note_off_c, 5, 71, 0
1, 6688, Note_on_c, 5, 72, 96
1, 6695, Note_off_c, 5, 72, 0
1, 6696, Note_on_c, 0, 81, 80
1, 6696, Note_on_c, 1, 74, 80
1, 6696, Note_on_c, 2, 62, 80
1, 6696, Note_on_c, 5, 81, 96
1, 6696, Note_on_c, 6, 54, 96
1, 6703, Note_off_c, 5, 81, 0
1, 6704, Note_on_c, 5, 78, 96
1, 6711, Note_off_c, 5, 78, 0
1, 6712, Note_on_c, 5, 76, 96
1, 6717, Note_off_c, 1, 74, 0
1, 6717, Note_off_c, 2, 62, 0
1, 6719, Note_off_c, 5, 76, 0
1, 6720, Note_on_c, 1, 66, 80
1, 6720, Note_on_c, 2, 69, 80
1, 6720, Note_on_c, 5, 74, 96
1, 6727, Note_off_c, 5, 74, 0
1, 6728, Note_on_c, 5, 72, 96
1, 6735, Note_off_c, 5, 72, 0
1, 6736, Note_on_c, 5, 71, 96
1, 6738, Note_off_c, 0, 81, 0
1, 6738, Note_off_c, 6, 54, 0
1, 6741, Note_off_c, 1, 66, 0
1, 6741, Note_off_c, 2, 69, 0
1, 6743, Note_off_c, 5, 71, 0
1, 6744, Note_on_c, 5, 72, 96
1, 6751, Note_off_c, 5, 72, 0
1, 6752, Note_on_c, 5, 71, 96
1, 6759, Note_off_c, 5, 71, 0
1, 6760, Note_on_c, 5, 72, 96
1, 6767, Note_off_c, 5, 72, 0
1, 6768, Note_on_c, 0, 74, 80
1, 6768, Note_on_c, 1, 71, 80
1, 6768, Note_on_c, 2, 67, 80
1, 6768, Note_on_c, 5, 71, 96
1, 6768, Note_on_c, 6, 55, 96
1, 6775, Note_off_c, 5, 71, 0
1, 6776, Note_on_c, 5, 74, 96
1, 6783, Note_off_c, 5, 74, 0
1, 6784, Note_on_c, 5, 79, 96
1, 6789, Note_off_c, 0, 74, 0
1, 6789, Note_off_c, 1, 71, 0
1, 6789, Note_off_c, 2, 67, 0
1, 6789, Note_off_c, 6, 55, 0
1, 6791, Note_off_c, 5, 79, 0
1, 6792, Note_on_c, 0, 76, 80
1, 6792, Note_on_c, 1, 72, 80
1, 6792, Note_on_c, 2, 67, 80
1, 6792, Note_on_c, 5, 76, 96
1, 6792, Note_on_c, 6, 48, 96
1, 6799, Note_off_c, 5, 76, 0
1, 6800, Note_on_c, 5, 72, 96
1, 6807, Note_off_c, 5, 72, 0
1, 6808, Note_on_c, 5, 69, 96
1, 6813, Note_off_c, 0, 76, 0
1, 6813, Note_off_c, 1, 72, 0
1, 6813, Note_off_c, 2, 67, 0
1, 6813, Note_off_c, 6, 48, 0
1, 6815, Note_off_c, 5, 69, 0
1, 6816, Note_on_c, 0, 78, 80
1, 6816, Note_on_c, 1, 69, 80
1, 6816, Note_on_c, 2, 62, 80
1, 6816, Note_on_c, 5, 66, 96
1, 6816, Note_on_c, 6, 50, 96
1, 6823, Note_off_c, 5, 66, 0
1, 6824, Note_on_c, 5, 69, 96
1, 6831, Note_off_c, 5, 69, 0
1, 6832, Note_on_c, 5, 72, 96
1, 6837, Note_off_c, 0, 78, 0
1, 6837, Note_off_c, 1, 69, 0
1, 6837, Note_off_c, 2, 62, 0
1, 6837, Note_off_c, 6, 50, 0
1, 6839, Note_off_c, 5, 72, 0
1, 6840, Note_on_c, 0, 79, 80
1, 6840, Note_on_c, 1, 71, 80
1, 6840, Note_on_c, 2, 62, 80
1, 6840, Note_on_c, 5, 71, 96
1, 6840, Note_on_c, 6, 43, 96
1, 6847, Note_off_c, 5, 71, 0
1, 6848, Note_on_c, 5, 67, 96
1, 6855, Note_off_c, 5, 67, 0
1, 6856, Note_on_c, 5, 62, 96
1, 6863, Note_off_c, 5, 62, 0
1, 6864, Note_on_c, 5, 67, 96
1, 6871, Note_off_c, 5, 67, 0
1, 6871, Note_off_c, 6, 43, 0
1, 6872, Note_on_c, 5, 71, 96
1, 6876, Note_on_c, 3, 45, 96
1, 6876, Note_on_c, 4, 33, 96
1, 6876, Note_on_c, 6, 45, 96
1, 6879, Note_off_c, 5, 71, 0
1, 6880, Note_on_c, 5, 74, 96
1, 6882, Note_off_c, 0, 79, 0
1, 6882, Note_off_c, 1, 71, 0
1, 6882, Note_off_c, 2, 62, 0
1, 6886, Note_off_c, 3, 45, 0
1, 6886, Note_off_c, 4, 33, 0
1, 6886, Note_off_c, 6, 45, 0
1, 6887, Note_off_c, 5, 74, 0
1, 6888, Note_on_c, 3, 47, 96
1, 6888, Note_on_c, 4, 35, 96
1, 6888, Note_on_c, 5, 79, 96
1, 6888, Note_on_c, 6, 47, 96
1, 6898, Note_off_c, 3, 47, 0
1, 6898, Note_off_c, 4, 35, 0
1, 6898, Note_off_c, 6, 47, 0
1, 6900, Note_on_c, 3, 49, 96
1, 6900, Note_on_c, 4, 37, 96
1, 6900, Note_on_c, 6, 49, 96
1, 6909, Note_off_c, 5, 79, 0
1, 6910, Note_off_c, 3, 49, 0
1, 6910, Note_off_c, 4, 37, 0
1, 6910, Note_off_c, 6, 49, 0
1, 6912, Note_on_c, 0, 62, 96
1, 6912, Note_on_c, 1, 66, 96
1, 6912, Note_on_c, 2, 57, 96
1, 6912, Note_on_c, 3, 50, 96
1, 6912, Note_on_c, 4, 38, 96
1, 6912, Note_on_c, 5, 62, 96
1, 6912, Note_on_c, 6, 50, 96
1, 6922, Note_off_c, 5, 62, 0
1, 6924, Note_off_c, 0, 62, 0
1, 6924, Note_on_c, 0, 64, 96
1, 6924, Note_on_c, 5, 64, 96
1, 6934, Note_off_c, 5, 64, 0
1, 6936, Note_off_c, 0, 64, 0
1, 6936, Note_on_c, 0, 66, 96
1, 6936, Note_on_c, 5, 66, 96
1, 6946, Note_off_c, 5, 66, 0
1, 6948, Note_off_c, 0, 66, 0
1, 6948, Note_on_c, 0, 69, 96
1, 6948, Note_on_c, 5, 69, 96
1, 6954, Note_off_c, 1, 66, 0
1, 6954, Note_off_c, 2, 57, 0
1, 6954, Note_off_c, 3, 50, 0
1, 6954, Note_off_c, 4, 38, 0
1, 6954, Note_off_c, 6, 50, 0
1, 6958, Note_off_c, 0, 69, 0
1, 6958, Note_off_c, 5, 69, 0
1, 6960, Note_on_c, 0, 74, 96
1, 6960, Note_on_c, 5, 74, 96
1, 6966, Note_off_c, 0, 74, 0
1, 6981, Note_off_c, 5, 74, 0
1, 6984, Note_on_c, 0, 74, 96
1, 6984, Note_on_c, 1, 69, 96
1, 6984, Note_on_c, 2, 57, 96
1, 6984, Note_on_c, 3, 54, 96
1, 6984, Note_on_c, 4, 42, 96
1, 6984, Note_on_c, 5, 74, 96
1, 6984, Note_on_c, 6, 54, 96
1, 6994, Note_off_c, 5, 74, 0
1, 6996, Note_off_c, 0, 74, 0
1, 6996, Note_on_c, 0, 73, 96
1, 6996, Note_on_c, 5, 73, 96
1, 7005, Note_off_c, 1, 69, 0
1, 7005, Note_off_c, 2, 57, 0
1, 7005, Note_off_c, 3, 54, 0
1, 7005, Note_off_c, 4, 42, 0
1, 7005, Note_off_c, 6, 54, 0
1, 7006, Note_off_c, 0, 73, 0
1, 7006, Note_off_c, 5, 73, 0
1, 7008, Note_on_c, 0, 76, 96
1, 7008, Note_on_c, 1, 67, 96
1, 7008, Note_on_c, 2, 61, 96
1, 7008, Note_on_c, 3, 52, 96
1, 7008, Note_on_c, 4, 40, 96
1, 7008, Note_on_c, 5, 76, 96
1, 7008, Note_on_c, 6, 52, 96
1, 7018, Note_off_c, 5, 76, 0
1, 7020, Note_off_c, 0, 76, 0
1, 7020, Note_on_c, 0, 74, 96
1, 7020, Note_on_c, 5, 74, 96
1, 7029, Note_off_c, 1, 67, 0
1, 7029, Note_off_c, 2, 61, 0
1, 7029, Note_off_c, 3, 52, 0
1, 7029, Note_off_c, 4, 40, 0
1, 7029, Note_off_c, 6, 52, 0
1, 7030, Note_off_c, 0, 74, 0
1, 7030, Note_off_c, 5, 74, 0
1, 7032, Note_on_c, 0, 73, 96
1, 7032, Note_on_c, 1, 69, 96
1, 7032, Note_on_c, 2, 66, 96
1, 7032, Note_on_c, 3, 50, 96
1, 7032, Note_on_c, 4, 38, 96
1, 7032, Note_on_c, 5, 73, 96
1, 7032, Note_on_c, 6, 50, 96
1, 7042, Note_off_c, 5, 73, 0
1, 7044, Note_off_c, 0, 73, 0
1, 7044, Note_on_c, 0, 71, 96
1, 7044, Note_on_c, 5, 71, 96
1, 7053, Note_off_c, 1, 69, 0
1, 7053, Note_off_c, 2, 66, 0
1, 7053, Note_off_c, 3, 50, 0
1, 7053, Note_off_c, 4, 38, 0
1, 7053, Note_off_c, 6, 50, 0
1, 7054, Note_off_c, 0, 71, 0
1, 7054, Note_off_c, 5, 71, 0
1, 7056, Note_on_c, 0, 69, 96
1, 7056, Note_on_c, 1, 69, 96
1, 7056, Note_on_c, 2, 64, 96
1, 7056, Note_on_c, 3, 49, 96
1, 7056, Note_on_c, 4, 37, 96
1, 7056, Note_on_c, 5, 69, 96
1, 7056, Note_on_c, 6, 49, 96
1, 7066, Note_off_c, 5, 69, 0
1, 7068, Note_off_c, 0, 69, 0
1, 7068, Note_on_c, 0, 71, 96
1, 7068, Note_on_c, 5, 71, 96
1, 7078, Note_off_c, 5, 71, 0
1, 7080, Note_off_c, 0, 71, 0
1, 7080, Note_on_c, 0, 73, 96
1, 7080, Note_on_c, 5, 73, 96
1, 7090, Note_off_c, 5, 73, 0
1, 7092, Note_off_c, 0, 73, 0
1, 7092, Note_on_c, 0, 76, 96
1, 7092, Note_on_c, 5, 76, 96
1, 7098, Note_off_c, 1, 69, 0
1, 7098, Note_off_c, 2, 64, 0
1, 7098, Note_off_c, 3, 49, 0
1, 7098, Note_off_c, 4, 37, 0
1, 7098, Note_off_c, 6, 49, 0
1, 7102, Note_off_c, 0, 76, 0
1, 7102, Note_off_c, 5, 76, 0
1, 7104, Note_on_c, 0, 79, 96
1, 7104, Note_on_c, 5, 79, 96
1, 7110, Note_off_c, 0, 79, 0
1, 7125, Note_off_c, 5, 79, 0
1, 7128, Note_on_c, 0, 79, 96
1, 7128, Note_on_c, 1, 69, 96
1, 7128, Note_on_c, 2, 64, 96
1, 7128, Note_on_c, 3, 49, 96
1, 7128, Note_on_c, 4, 37, 96
1, 7128, Note_on_c, 5, 79, 96
1, 7128, Note_on_c, 6, 49, 96
1, 7149, Note_off_c, 1, 69, 0
1, 7149, Note_off_c, 2, 64, 0
1, 7149, Note_off_c, 3, 49, 0
1, 7149, Note_off_c, 4, 37, 0
1, 7149, Note_off_c, 6, 49, 0
1, 7152, Note_on_c, 1, 71, 96
1, 7152, Note_on_c, 2, 62, 96
1, 7152, Note_on_c, 3, 47, 96
1, 7152, Note_on_c, 4, 35, 96
1, 7152, Note_on_c, 6, 47, 96
1, 7173, Note_off_c, 1, 71, 0
1, 7173, Note_off_c, 2, 62, 0
1, 7173, Note_off_c, 3, 47, 0
1, 7173, Note_off_c, 4, 35, 0
1, 7173, Note_off_c, 6, 47, 0
1, 7176, Note_on_c, 1, 73, 96
1, 7176, Note_on_c, 2, 64, 96
1, 7176, Note_on_c, 3, 45, 96
1, 7176, Note_on_c, 4, 33, 96
1, 7176, Note_on_c, 6, 45, 96
1, 7191, Note_off_c, 0, 79, 0
1, 7191, Note_off_c, 5, 79, 0
1, 7197, Note_off_c, 1, 73, 0
1, 7197, Note_off_c, 2, 64, 0
1, 7197, Note_off_c, 3, 45, 0
1, 7197, Note_off_c, 4, 33, 0
1, 7197, Note_off_c, 6, 45, 0
1, 7200, Note_on_c, 0, 78, 96
1, 7200, Note_on_c, 1, 74, 96
1, 7200, Note_on_c, 2, 57, 96
1, 7200, Note_on_c, 3, 50, 96
1, 7200, Note_on_c, 4, 38, 96
1, 7200, Note_on_c, 5, 78, 96
1, 7200, Note_on_c, 6, 50, 96
1, 7210, Note_off_c, 5, 78, 0
1, 7212, Note_off_c, 0, 78, 0
1, 7212, Note_on_c, 0, 76, 96
1, 7212, Note_on_c, 5, 76, 96
1, 7221, Note_off_c, 1, 74, 0
1, 7221, Note_off_c, 3, 50, 0
1, 7221, Note_off_c, 4, 38, 0
1, 7221, Note_off_c, 6, 50, 0
1, 7222, Note_off_c, 0, 76, 0
1, 7222, Note_off_c, 5, 76, 0
1, 7224, Note_on_c, 0, 79, 96
1, 7224, Note_on_c, 1, 69, 96
1, 7224, Note_on_c, 3, 49, 96
1, 7224, Note_on_c, 4, 37, 96
1, 7224, Note_on_c, 5, 79, 96
1, 7224, Note_on_c, 6, 49, 96
1, 7234, Note_off_c, 5, 79, 0
1, 7236, Note_off_c, 0, 79, 0
1, 7236, Note_on_c, 0, 78, 96
1, 7236, Note_on_c, 5, 78, 96
1, 7242, Note_off_c, 2, 57, 0
1, 7245, Note_off_c, 1, 69, 0
1, 7245, Note_off_c, 3, 49, 0
1, 7245, Note_off_c, 4, 37, 0
1, 7245, Note_off_c, 6, 49, 0
1, 7246, Note_off_c, 0, 78, 0
1, 7246, Note_off_c, 5, 78, 0
1, 7248, Note_on_c, 0, 76, 96
1, 7248, Note_on_c, 1, 68, 96
1, 7248, Note_on_c, 2, 62, 96
1, 7248, Note_on_c, 3, 47, 96
1, 7248, Note_on_c, 4, 35, 96
1, 7248, Note_on_c, 5, 76, 96
1, 7248, Note_on_c, 6, 47, 96
1, 7258, Note_off_c, 5, 76, 0
1, 7260, Note_off_c, 0, 76, 0
1, 7260, Note_on_c, 0, 74, 96
1, 7260, Note_on_c, 5, 74, 96
1, 7269, Note_off_c, 1, 68, 0
1, 7269, Note_off_c, 2, 62, 0
1, 7269, Note_off_c, 3, 47, 0
1, 7269, Note_off_c, 4, 35, 0
1, 7269, Note_off_c, 6, 47, 0
1, 7270, Note_off_c, 0, 74, 0
1, 7270, Note_off_c, 5, 74, 0
1, 7272, Note_on_c, 0, 73, 96
1, 7272, Note_on_c, 1, 69, 96
1, 7272, Note_on_c, 2, 64, 96
1, 7272, Note_on_c, 3, 45, 96
1, 7272, Note_on_c, 4, 33, 96
1, 7272, Note_on_c, 5, 73, 96
1, 7272, Note_on_c, 6, 45, 96
1, 7282, Note_off_c, 5, 73, 0
1, 7284, Note_off_c, 0, 73, 0
1, 7284, Note_on_c, 0, 71, 96
1, 7284, Note_on_c, 5, 71, 96
1, 7293, Note_off_c, 1, 69, 0
1, 7293, Note_off_c, 3, 45, 0
1, 7293, Note_off_c, 4, 33, 0
1, 7293, Note_off_c, 6, 45, 0
1, 7294, Note_off_c, 0, 71, 0
1, 7294, Note_off_c, 5, 71, 0
1, 7296, Note_on_c, 0, 74, 96
1, 7296, Note_on_c, 1, 64, 96
1, 7296, Note_on_c, 3, 43, 96
1, 7296, Note_on_c, 4, 31, 96
1, 7296, Note_on_c, 5, 74, 96
1, 7296, Note_on_c, 6, 43, 96
1, 7306, Note_off_c, 5, 74, 0
1, 7308, Note_off_c, 0, 74, 0
1, 7308, Note_on_c, 0, 73, 96
1, 7308, Note_on_c, 5, 73, 96
1, 7314, Note_off_c, 2, 64, 0
1, 7317, Note_off_c, 1, 64, 0
1, 7317, Note_off_c, 3, 43, 0
1, 7317, Note_off_c, 4, 31, 0
1, 7317, Note_off_c, 6, 43, 0
1, 7318, Note_off_c, 0, 73, 0
1, 7318, Note_off_c, 5, 73, 0
1, 7320, Note_on_c, 0, 71, 96
1, 7320, Note_on_c, 1, 66, 96
1, 7320, Note_on_c, 2, 62, 96
1, 7320, Note_on_c, 3, 42, 96
1, 7320, Note_on_c, 4, 30, 96
1, 7320, Note_on_c, 5, 71, 96
1, 7320, Note_on_c, 6, 42, 96
1, 7330, Note_off_c, 5, 71, 0
1, 7332, Note_off_c, 0, 71, 0
1, 7332, Note_on_c, 0, 69, 96
1, 7332, Note_on_c, 5, 69, 96
1, 7341, Note_off_c, 1, 66, 0
1, 7341, Note_off_c, 2, 62, 0
1, 7341, Note_off_c, 3, 42, 0
1, 7341, Note_off_c, 4, 30, 0
1, 7341, Note_off_c, 6, 42, 0
1, 7342, Note_off_c, 0, 69, 0
1, 7342, Note_off_c, 5, 69, 0
1, 7344, Note_on_c, 0, 67, 96
1, 7344, Note_on_c, 1, 67, 96
1, 7344, Note_on_c, 2, 61, 96
1, 7344, Note_on_c, 3, 40, 96
1, 7344, Note_on_c, 4, 28, 96
1, 7344, Note_on_c, 5, 67, 96
1, 7344, Note_on_c, 6, 40, 96
1, 7354, Note_off_c, 5, 67, 0
1, 7356, Note_off_c, 0, 67, 0
1, 7356, Note_on_c, 0, 66, 96
1, 7356, Note_on_c, 5, 66, 96
1, 7365, Note_off_c, 1, 67, 0
1, 7365, Note_off_c, 2, 61, 0
1, 7365, Note_off_c, 3, 40, 0
1, 7365, Note_off_c, 4, 28, 0
1, 7365, Note_off_c, 6, 40, 0
1, 7366, Note_off_c, 0, 66, 0
1, 7366, Note_off_c, 5, 66, 0
1, 7368, Note_on_c, 0, 69, 96
1, 7368, Note_on_c, 1, 64, 96
1, 7368, Note_on_c, 2, 64, 96
1, 7368, Note_on_c, 3, 49, 96
1, 7368, Note_on_c, 4, 37, 96
1, 7368, Note_on_c, 5, 69, 96
1, 7368, Note_on_c, 6, 49, 96
1, 7378, Note_off_c, 5, 69, 0
1, 7380, Note_off_c, 0, 69, 0
1, 7380, Note_on_c, 0, 67, 96
1, 7380, Note_on_c, 5, 67, 96
1, 7389, Note_off_c, 1, 64, 0
1, 7389, Note_off_c, 2, 64, 0
1, 7389, Note_off_c, 3, 49, 0
1, 7389, Note_off_c, 4, 37, 0
1, 7389, Note_off_c, 6, 49, 0
1, 7390, Note_off_c, 0, 67, 0
1, 7390, Note_off_c, 5, 67, 0
1, 7392, Note_on_c, 0, 66, 96
1, 7392, Note_on_c, 1, 62, 96
1, 7392, Note_on_c, 2, 57, 96
1, 7392, Note_on_c, 3, 50, 96
1, 7392, Note_on_c, 4, 38, 96
1, 7392, Note_on_c, 5, 66, 96
1, 7392, Note_on_c, 6, 50, 96
1, 7402, Note_off_c, 5, 66, 0
1, 7404, Note_off_c, 0, 66, 0
1, 7404, Note_on_c, 0, 67, 96
1, 7404, Note_on_c, 5, 67, 96
1, 7413, Note_off_c, 1, 62, 0
1, 7413, Note_off_c, 2, 57, 0
1, 7413, Note_off_c, 3, 50, 0
1, 7413, Note_off_c, 4, 38, 0
1, 7413, Note_off_c, 6, 50, 0
1, 7414, Note_off_c, 0, 67, 0
1, 7414, Note_off_c, 5, 67, 0
1, 7416, Note_on_c, 0, 64, 96
1, 7416, Note_on_c, 1, 61, 96
1, 7416, Note_on_c, 2, 57, 96
1, 7416, Note_on_c, 3, 45, 96
1, 7416, Note_on_c, 4, 33, 96
1, 7416, Note_on_c, 5, 64, 96
1, 7416, Note_on_c, 6, 45, 96
1, 7426, Note_off_c, 5, 64, 0
1, 7428, Note_off_c, 0, 64, 0
1, 7428, Note_on_c, 0, 62, 96
1, 7428, Note_on_c, 5, 62, 96
1, 7437, Note_off_c, 1, 61, 0
1, 7437, Note_off_c, 3, 45, 0
1, 7437, Note_off_c, 4, 33, 0
1, 7437, Note_off_c, 6, 45, 0
1, 7438, Note_off_c, 5, 62, 0
1, 7440, Note_off_c, 0, 62, 0
1, 7440, Note_on_c, 0, 64, 96
1, 7440, Note_on_c, 1, 64, 96
1, 7440, Note_on_c, 3, 49, 96
1, 7440, Note_on_c, 4, 37, 96
1, 7440, Note_on_c, 5, 64, 96
1, 7440, Note_on_c, 6, 49, 96
1, 7447, Note_off_c, 2, 57, 0
1, 7450, Note_off_c, 0, 64, 0
1, 7450, Note_off_c, 5, 64, 0
1, 7452, Note_on_c, 0, 67, 96
1, 7452, Note_on_c, 2, 59, 96
1, 7452, Note_on_c, 5, 67, 96
1, 7461, Note_off_c, 1, 64, 0
1, 7461, Note_off_c, 3, 49, 0
1, 7461, Note_off_c, 4, 37, 0
1, 7461, Note_off_c, 6, 49, 0
1, 7462, Note_off_c, 0, 67, 0
1, 7462, Note_off_c, 2, 59, 0
1, 7462, Note_off_c, 5, 67, 0
1, 7464, Note_on_c, 0, 66, 96
1, 7464, Note_on_c, 1, 61, 96
1, 7464, Note_on_c, 2, 57, 96
1, 7464, Note_on_c, 3, 45, 96
1, 7464, Note_on_c, 4, 33, 96
1, 7464, Note_on_c, 5, 66, 96
1, 7464, Note_on_c, 6, 45, 96
1, 7474, Note_off_c, 0, 66, 0
1, 7474, Note_off_c, 2, 57, 0
1, 7474, Note_off_c, 5, 66, 0
1, 7476, Note_on_c, 0, 64, 96
1, 7476, Note_on_c, 2, 55, 96
1, 7476, Note_on_c, 5, 64, 96
1, 7485, Note_off_c, 1, 61, 0
1, 7485, Note_off_c, 3, 45, 0
1, 7485, Note_off_c, 4, 33, 0
1, 7485, Note_off_c, 6, 45, 0
1, 7486, Note_off_c, 0, 64, 0
1, 7486, Note_off_c, 2, 55, 0
1, 7486, Note_off_c, 5, 64, 0
1, 7488, Note_on_c, 0, 62, 96
1, 7488, Note_on_c, 1, 57, 96
1, 7488, Note_on_c, 2, 54, 96
1, 7488, Note_on_c, 3, 38, 96
1, 7488, Note_on_c, 4, 26, 96
1, 7488, Note_on_c, 5, 62, 96
1, 7488, Note_on_c, 6, 38, 96
1, 7498, Note_off_c, 5, 62, 0
1, 7500, Note_off_c, 0, 62, 0
1, 7500, Note_on_c, 0, 64, 96
1, 7500, Note_on_c, 5, 64, 96
1, 7509, Note_off_c, 1, 57, 0
1, 7509, Note_off_c, 2, 54, 0
1, 7509, Note_off_c, 3, 38, 0
1, 7509, Note_off_c, 4, 26, 0
1, 7509, Note_off_c, 6, 38, 0
1, 7510, Note_off_c, 5, 64, 0
1, 7512, Note_off_c, 0, 64, 0
1, 7512, Note_on_c, 0, 66, 96
1, 7512, Note_on_c, 1, 69, 96
1, 7512, Note_on_c, 2, 62, 96
1, 7512, Note_on_c, 3, 50, 96
1, 7512, Note_on_c, 4, 38, 96
1, 7512, Note_on_c, 5, 66, 96
1, 7512, Note_on_c, 6, 50, 96
1, 7522, Note_off_c, 5, 66, 0
1, 7524, Note_off_c, 0, 66, 0
1, 7524, Note_on_c, 0, 69, 96
1, 7524, Note_on_c, 5, 69, 96
1, 7533, Note_off_c, 1, 69, 0
1, 7533, Note_off_c, 2, 62, 0
1, 7533, Note_off_c, 3, 50, 0
1, 7533, Note_off_c, 4, 38, 0
1, 7533, Note_off_c, 6, 50, 0
1, 7534, Note_off_c, 0, 69, 0
1, 7534, Note_off_c, 5, 69, 0
1, 7536, Note_on_c, 0, 74, 96
1, 7536, Note_on_c, 1, 69, 96
1, 7536, Note_on_c, 2, 66, 96
1, 7536, Note_on_c, 3, 49, 96
1, 7536, Note_on_c, 4, 37, 96
1, 7536, Note_on_c, 5, 74, 96
1, 7536, Note_on_c, 6, 49, 96
1, 7542, Note_off_c, 0, 74, 0
1, 7557, Note_off_c, 1, 69, 0
1, 7557, Note_off_c, 2, 66, 0
1, 7557, Note_off_c, 3, 49, 0
1, 7557, Note_off_c, 4, 37, 0
1, 7557, Note_off_c, 5, 74, 0
1, 7557, Note_off_c, 6, 49, 0
1, 7560, Note_on_c, 0, 74, 96
1, 7560, Note_on_c, 1, 71, 96
1, 7560, Note_on_c, 2, 66, 96
1, 7560, Note_on_c, 3, 47, 96
1, 7560, Note_on_c, 4, 35, 96
1, 7560, Note_on_c, 5, 74, 96
1, 7560, Note_on_c, 6, 47, 96
1, 7570, Note_off_c, 5, 74, 0
1, 7572, Note_off_c, 0, 74, 0
1, 7572, Note_on_c, 0, 73, 96
1, 7572, Note_on_c, 5, 73, 96
1, 7581, Note_off_c, 1, 71, 0
1, 7581, Note_off_c, 3, 47, 0
1, 7581, Note_off_c, 4, 35, 0
1, 7581, Note_off_c, 6, 47, 0
1, 7582, Note_off_c, 0, 73, 0
1, 7582, Note_off_c, 5, 73, 0
1, 7584, Note_on_c, 0, 76, 96
1, 7584, Note_on_c, 1, 66, 96
1, 7584, Note_on_c, 3, 45, 96
1, 7584, Note_on_c, 4, 33, 96
1, 7584, Note_on_c, 5, 76, 96
1, 7584, Note_on_c, 6, 45, 96
1, 7594, Note_off_c, 5, 76, 0
1, 7596, Note_off_c, 0, 76, 0
1, 7596, Note_on_c, 0, 74, 96
1, 7596, Note_on_c, 5, 74, 96
1, 7602, Note_off_c, 2, 66, 0
1, 7605, Note_off_c, 1, 66, 0
1, 7605, Note_off_c, 3, 45, 0
1, 7605, Note_off_c, 4, 33, 0
1, 7605, Note_off_c, 6, 45, 0
1, 7606, Note_off_c, 0, 74, 0
1, 7606, Note_off_c, 5, 74, 0
1, 7608, Note_on_c, 0, 73, 96
1, 7608, Note_on_c, 1, 67, 96
1, 7608, Note_on_c, 2, 64, 96
1, 7608, Note_on_c, 3, 43, 96
1, 7608, Note_on_c, 4, 31, 96
1, 7608, Note_on_c, 5, 73, 96
1, 7608, Note_on_c, 6, 43, 96
1, 7618, Note_off_c, 5, 73, 0
1, 7620, Note_off_c, 0, 73, 0
1, 7620, Note_on_c, 0, 71, 96
1, 7620, Note_on_c, 5, 71, 96
1, 7629, Note_off_c, 1, 67, 0
1, 7629, Note_off_c, 2, 64, 0
1, 7629, Note_off_c, 3, 43, 0
1, 7629, Note_off_c, 4, 31, 0
1, 7629, Note_off_c, 6, 43, 0
1, 7630, Note_off_c, 0, 71, 0
1, 7630, Note_off_c, 5, 71, 0
1, 7632, Note_on_c, 0, 62, 96
1, 7632, Note_on_c, 1, 69, 96
1, 7632, Note_on_c, 2, 62, 96
1, 7632, Note_on_c, 3, 42, 96
1, 7632, Note_on_c, 4, 30, 96
1, 7632, Note_on_c, 5, 62, 96
1, 7632, Note_on_c, 6, 42, 96
1, 7642, Note_off_c, 5, 62, 0
1, 7644, Note_off_c, 0, 62, 0
1, 7644, Note_on_c, 0, 64, 96
1, 7644, Note_on_c, 5, 64, 96
1, 7653, Note_off_c, 1, 69, 0
1, 7653, Note_off_c, 2, 62, 0
1, 7653, Note_off_c, 3, 42, 0
1, 7653, Note_off_c, 4, 30, 0
1, 7653, Note_off_c, 6, 42, 0
1, 7654, Note_off_c, 5, 64, 0
1, 7656, Note_off_c, 0, 64, 0
1, 7656, Note_on_c, 0, 66, 96
1, 7656, Note_on_c, 1, 72, 96
1, 7656, Note_on_c, 2, 57, 96
1, 7656, Note_on_c, 3, 40, 96
1, 7656, Note_on_c, 4, 28, 96
1, 7656, Note_on_c, 5, 66, 96
1, 7656, Note_on_c, 6, 40, 96
1, 7666, Note_off_c, 5, 66, 0
1, 7668, Note_off_c, 0, 66, 0
1, 7668, Note_on_c, 0, 69, 96
1, 7668, Note_on_c, 5, 69, 96
1, 7677, Note_off_c, 1, 72, 0
1, 7677, Note_off_c, 2, 57, 0
1, 7677, Note_off_c, 3, 40, 0
1, 7677, Note_off_c, 4, 28, 0
1, 7677, Note_off_c, 6, 40, 0
1, 7678, Note_off_c, 0, 69, 0
1, 7678, Note_off_c, 5, 69, 0
1, 7680, Note_on_c, 0, 72, 96
1, 7680, Note_on_c, 1, 69, 96
1, 7680, Note_on_c, 2, 54, 96
1, 7680, Note_on_c, 3, 38, 96
1, 7680, Note_on_c, 4, 26, 96
1, 7680, Note_on_c, 5, 72, 96
1, 7680, Note_on_c, 6, 38, 96
1, 7686, Note_off_c, 0, 72, 0
1, 7701, Note_off_c, 1, 69, 0
1, 7701, Note_off_c, 2, 54, 0
1, 7701, Note_off_c, 3, 38, 0
1, 7701, Note_off_c, 4, 26, 0
1, 7701, Note_off_c, 5, 72, 0
1, 7701, Note_off_c, 6, 38, 0
1, 7704, Note_on_c, 0, 72, 96
1, 7704, Note_on_c, 1, 66, 96
1, 7704, Note_on_c, 2, 50, 96
1, 7704, Note_on_c, 3, 50, 96
1, 7704, Note_on_c, 4, 38, 96
1, 7704, Note_on_c, 5, 72, 96
1, 7704, Note_on_c, 6, 50, 96
1, 7725, Note_off_c, 1, 66, 0
1, 7725, Note_off_c, 3, 50, 0
1, 7725, Note_off_c, 4, 38, 0
1, 7725, Note_off_c, 6, 50, 0
1, 7728, Note_on_c, 1, 67, 96
1, 7728, Note_on_c, 3, 52, 96
1, 7728, Note_on_c, 4, 40, 96
1, 7728, Note_on_c, 6, 52, 96
1, 7749, Note_off_c, 1, 67, 0
1, 7749, Note_off_c, 3, 52, 0
1, 7749, Note_off_c, 4, 40, 0
1, 7749, Note_off_c, 6, 52, 0
1, 7752, Note_on_c, 1, 69, 96
1, 7752, Note_on_c, 3, 54, 96
1, 7752, Note_on_c, 4, 42, 96
1, 7752, Note_on_c, 6, 54, 96
1, 7767, Note_off_c, 0, 72, 0
1, 7767, Note_off_c, 2, 50, 0
1, 7767, Note_off_c, 5, 72, 0
1, 7773, Note_off_c, 1, 69, 0
1, 7773, Note_off_c, 3, 54, 0
1, 7773, Note_off_c, 4, 42, 0
1, 7773, Note_off_c, 6, 54, 0
1, 7776, Note_on_c, 0, 71, 96
1, 7776, Note_on_c, 1, 67, 96
1, 7776, Note_on_c, 2, 62, 96
1, 7776, Note_on_c, 3, 55, 96
1, 7776, Note_on_c, 4, 43, 96
1, 7776, Note_on_c, 5, 71, 96
1, 7776, Note_on_c, 6, 55, 96
1, 7786, Note_off_c, 5, 71, 0
1, 7788, Note_off_c, 0, 71, 0
1, 7788, Note_on_c, 0, 74, 96
1, 7788, Note_on_c, 5, 74, 96
1, 7797, Note_off_c, 1, 67, 0
1, 7797, Note_off_c, 2, 62, 0
1, 7797, Note_off_c, 3, 55, 0
1, 7797, Note_off_c, 4, 43, 0
1, 7797, Note_off_c, 6, 55, 0
1, 7798, Note_off_c, 0, 74, 0
1, 7798, Note_off_c, 5, 74, 0
1, 7800, Note_on_c, 0, 79, 96
1, 7800, Note_on_c, 1, 71, 96
1, 7800, Note_on_c, 2, 64, 96
1, 7800, Note_on_c, 3, 52, 96
1, 7800, Note_on_c, 4, 40, 96
1, 7800, Note_on_c, 5, 79, 96
1, 7800, Note_on_c, 6, 52, 96
1, 7810, Note_off_c, 5, 79, 0
1, 7812, Note_off_c, 0, 79, 0
1, 7812, Note_on_c, 0, 78, 96
1, 7812, Note_on_c, 5, 78, 96
1, 7821, Note_off_c, 1, 71, 0
1, 7821, Note_off_c, 2, 64, 0
1, 7821, Note_off_c, 3, 52, 0
1, 7821, Note_off_c, 4, 40, 0
1, 7821, Note_off_c, 6, 52, 0
1, 7822, Note_off_c, 0, 78, 0
1, 7822, Note_off_c, 5, 78, 0
1, 7824, Note_on_c, 0, 76, 96
1, 7824, Note_on_c, 1, 71, 96
1, 7824, Note_on_c, 2, 64, 96
1, 7824, Note_on_c, 3, 55, 96
1, 7824, Note_on_c, 4, 43, 96
1, 7824, Note_on_c, 5, 76, 96
1, 7824, Note_on_c, 6, 55, 96
1, 7834, Note_off_c, 5, 76, 0
1, 7836, Note_off_c, 0, 76, 0
1, 7836, Note_on_c, 0, 74, 96
1, 7836, Note_on_c, 5, 74, 96
1, 7845, Note_off_c, 1, 71, 0
1, 7845, Note_off_c, 2, 64, 0
1, 7845, Note_off_c, 3, 55, 0
1, 7845, Note_off_c, 4, 43, 0
1, 7845, Note_off_c, 6, 55, 0
1, 7846, Note_off_c, 0, 74, 0
1, 7846, Note_off_c, 5, 74, 0
1, 7848, Note_on_c, 0, 73, 96
1, 7848, Note_on_c, 1, 69, 96
1, 7848, Note_on_c, 2, 64, 96
1, 7848, Note_on_c, 3, 57, 96
1, 7848, Note_on_c, 4, 45, 96
1, 7848, Note_on_c, 5, 73, 96
1, 7848, Note_on_c, 6, 57, 96
1, 7858, Note_off_c, 5, 73, 0
1, 7860, Note_off_c, 0, 73, 0
1, 7860, Note_on_c, 0, 71, 96
1, 7860, Note_on_c, 5, 71, 96
1, 7869, Note_off_c, 1, 69, 0
1, 7869, Note_off_c, 2, 64, 0
1, 7869, Note_off_c, 3, 57, 0
1, 7869, Note_off_c, 4, 45, 0
1, 7869, Note_off_c, 6, 57, 0
1, 7870, Note_off_c, 0, 71, 0
1, 7870, Note_off_c, 5, 71, 0
1, 7872, Note_on_c, 0, 74, 96
1, 7872, Note_on_c, 1, 69, 96
1, 7872, Note_on_c, 2, 64, 96
1, 7872, Note_on_c, 3, 59, 96
1, 7872, Note_on_c, 4, 47, 96
1, 7872, Note_on_c, 5, 74, 96
1, 7872, Note_on_c, 6, 59, 96
1, 7882, Note_off_c, 5, 74, 0
1, 7884, Note_off_c, 0, 74, 0
1, 7884, Note_on_c, 0, 73, 96
1, 7884, Note_on_c, 5, 73, 96
1, 7893, Note_off_c, 1, 69, 0
1, 7893, Note_off_c, 2, 64, 0
1, 7893, Note_off_c, 3, 59, 0
1, 7893, Note_off_c, 4, 47, 0
1, 7893, Note_off_c, 6, 59, 0
1, 7894, Note_off_c, 0, 73, 0
1, 7894, Note_off_c, 5, 73, 0
1, 7896, Note_on_c, 0, 71, 96
1, 7896, Note_on_c, 1, 69, 96
1, 7896, Note_on_c, 2, 64, 96
1, 7896, Note_on_c, 3, 61, 96
1, 7896, Note_on_c, 4, 49, 96
1, 7896, Note_on_c, 5, 71, 96
1, 7896, Note_on_c, 6, 61, 96
1, 7906, Note_off_c, 5, 71, 0
1, 7908, Note_off_c, 0, 71, 0
1, 7908, Note_on_c, 0, 69, 96
1, 7908, Note_on_c, 5, 69, 96
1, 7917, Note_off_c, 1, 69, 0
1, 7917, Note_off_c, 2, 64, 0
1, 7917, Note_off_c, 3, 61, 0
1, 7917, Note_off_c, 4, 49, 0
1, 7917, Note_off_c, 6, 61, 0
1, 7918, Note_off_c, 0, 69, 0
1, 7918, Note_off_c, 5, 69, 0
1, 7920, Note_on_c, 0, 78, 96
1, 7920, Note_on_c, 1, 69, 96
1, 7920, Note_on_c, 2, 62, 96
1, 7920, Note_on_c, 3, 62, 96
1, 7920, Note_on_c, 4, 50, 96
1, 7920, Note_on_c, 5, 78, 96
1, 7920, Note_on_c, 6, 62, 96
1, 7941, Note_off_c, 0, 78, 0
1, 7941, Note_off_c, 1, 69, 0
1, 7941, Note_off_c, 2, 62, 0
1, 7941, Note_off_c, 3, 62, 0
1, 7941, Note_off_c, 4, 50, 0
1, 7941, Note_off_c, 5, 78, 0
1, 7941, Note_off_c, 6, 62, 0
1, 7944, Note_on_c, 0, 79, 96
1, 7944, Note_on_c, 1, 71, 96
1, 7944, Note_on_c, 2, 62, 96
1, 7944, Note_on_c, 3, 55, 96
1, 7944, Note_on_c, 4, 43, 96
1, 7944, Note_on_c, 5, 79, 96
1, 7944, Note_on_c, 6, 55, 96
1, 7965, Note_off_c, 0, 79, 0
1, 7965, Note_off_c, 1, 71, 0
1, 7965, Note_off_c, 2, 62, 0
1, 7965, Note_off_c, 3, 55, 0
1, 7965, Note_off_c, 4, 43, 0
1, 7965, Note_off_c, 5, 79, 0
1, 7965, Note_off_c, 6, 55, 0
1, 7968, Note_on_c, 0, 76, 96
1, 7968, Note_on_c, 1, 69, 96
1, 7968, Note_on_c, 2, 61, 96
1, 7968, Note_on_c, 3, 57, 96
1, 7968, Note_on_c, 4, 45, 96
1, 7968, Note_on_c, 5, 76, 96
1, 7968, Note_on_c, 6, 57, 96
1, 7989, Note_off_c, 0, 76, 0
1, 7989, Note_off_c, 1, 69, 0
1, 7989, Note_off_c, 2, 61, 0
1, 7989, Note_off_c, 3, 57, 0
1, 7989, Note_off_c, 4, 45, 0
1, 7989, Note_off_c, 5, 76, 0
1, 7989, Note_off_c, 6, 57, 0
1, 7992, Note_on_c, 0, 74, 96
1, 7992, Note_on_c, 1, 69, 96
1, 7992, Note_on_c, 2, 66, 96
1, 7992, Note_on_c, 3, 50, 96
1, 7992, Note_on_c, 4, 38, 96
1, 7992, Note_on_c, 5, 74, 96
1, 7992, Note_on_c, 6, 50, 96
1, 8013, Note_off_c, 3, 50, 0
1, 8013, Note_off_c, 4, 38, 0
1, 8013, Note_off_c, 6, 50, 0
1, 8016, Note_on_c, 3, 45, 96
1, 8016, Note_on_c, 4, 33, 96
1, 8016, Note_on_c, 6, 45, 96
1, 8037, Note_off_c, 3, 45, 0
1, 8037, Note_off_c, 4, 33, 0
1, 8037, Note_off_c, 6, 45, 0
1, 8040, Note_on_c, 3, 38, 96
1, 8040, Note_on_c, 4, 26, 96
1, 8040, Note_on_c, 6, 38, 96
1, 8055, Note_off_c, 0, 74, 0
1, 8055, Note_off_c, 1, 69, 0
1, 8055, Note_off_c, 2, 66, 0
1, 8055, Note_off_c, 5, 74, 0
1, 8061, Note_off_c, 3, 38, 0
1, 8061, Note_off_c, 4, 26, 0
1, 8061, Note_off_c, 6, 38, 0
1, 8064, Note_on_c, 0, 69, 80
1, 8064, Note_on_c, 1, 66, 80
1, 8064, Note_on_c, 2, 62, 80
1, 8064, Note_on_c, 5, 66, 96
1, 8064, Note_on_c, 6, 50, 96
1, 8074, Note_off_c, 5, 66, 0
1, 8076, Note_on_c, 5, 64, 96
1, 8085, Note_off_c, 0, 69, 0
1, 8085, Note_off_c, 1, 66, 0
1, 8085, Note_off_c, 2, 62, 0
1, 8086, Note_off_c, 5, 64, 0
1, 8088, Note_on_c, 0, 72, 80
1, 8088, Note_on_c, 1, 69, 80
1, 8088, Note_on_c, 2, 50, 80
1, 8088, Note_on_c, 5, 62, 96
1, 8098, Note_off_c, 5, 62, 0
1, 8100, Note_on_c, 5, 64, 96
1, 8106, Note_off_c, 6, 50, 0
1, 8109, Note_off_c, 0, 72, 0
1, 8109, Note_off_c, 1, 69, 0
1, 8109, Note_off_c, 2, 50, 0
1, 8110, Note_off_c, 5, 64, 0
1, 8112, Note_on_c, 0, 71, 80
1, 8112, Note_on_c, 1, 67, 80
1, 8112, Note_on_c, 2, 62, 80
1, 8112, Note_on_c, 5, 66, 96
1, 8122, Note_off_c, 5, 66, 0
1, 8124, Note_on_c, 5, 67, 96
1, 8133, Note_off_c, 0, 71, 0
1, 8133, Note_off_c, 1, 67, 0
1, 8133, Note_off_c, 2, 62, 0
1, 8134, Note_off_c, 5, 67, 0
1, 8136, Note_on_c, 0, 69, 80
1, 8136, Note_on_c, 1, 66, 80
1, 8136, Note_on_c, 2, 62, 80
1, 8136, Note_on_c, 5, 69, 96
1, 8136, Note_on_c, 6, 38, 96
1, 8146, Note_off_c, 5, 69, 0
1, 8148, Note_on_c, 5, 66, 96
1, 8154, Note_off_c, 5, 66, 0
1, 8154, Note_on_c, 5, 67, 96
1, 8157, Note_off_c, 0, 69, 0
1, 8157, Note_off_c, 1, 66, 0
1, 8157, Note_off_c, 2, 62, 0
1, 8160, Note_on_c, 0, 72, 80
1, 8160, Note_on_c, 1, 66, 80
1, 8160, Note_on_c, 2, 50, 80
1, 8160, Note_off_c, 5, 67, 0
1, 8160, Note_on_c, 5, 69, 96
1, 8170, Note_off_c, 5, 69, 0
1, 8172, Note_on_c, 5, 69, 96
1, 8178, Note_off_c, 5, 69, 0
1, 8178, Note_on_c, 5, 71, 96
1, 8178, Note_off_c, 6, 38, 0
1, 8181, Note_off_c, 2, 50, 0
1, 8184, Note_on_c, 2, 62, 80
1, 8184, Note_off_c, 5, 71, 0
1, 8184, Note_on_c, 5, 72, 96
1, 8194, Note_off_c, 5, 72, 0
1, 8196, Note_on_c, 5, 69, 96
1, 8201, Note_off_c, 5, 69, 0
1, 8202, Note_on_c, 5, 71, 96
1, 8205, Note_off_c, 2, 62, 0
1, 8207, Note_off_c, 5, 71, 0
1, 8208, Note_on_c, 2, 62, 80
1, 8208, Note_on_c, 5, 72, 96
1, 8208, Note_on_c, 6, 50, 96
1, 8218, Note_off_c, 5, 72, 0
1, 8220, Note_on_c, 5, 72, 96
1, 8223, Note_off_c, 0, 72, 0
1, 8223, Note_off_c, 1, 66, 0
1, 8226, Note_off_c, 5, 72, 0
1, 8226, Note_on_c, 5, 74, 96
1, 8229, Note_off_c, 2, 62, 0
1, 8232, Note_on_c, 0, 71, 80
1, 8232, Note_on_c, 1, 67, 80
1, 8232, Note_on_c, 2, 50, 80
1, 8232, Note_off_c, 5, 74, 0
1, 8232, Note_on_c, 5, 76, 96
1, 8242, Note_off_c, 5, 76, 0
1, 8244, Note_on_c, 5, 72, 96
1, 8250, Note_off_c, 5, 72, 0
1, 8250, Note_on_c, 5, 74, 96
1, 8250, Note_off_c, 6, 50, 0
1, 8253, Note_off_c, 0, 71, 0
1, 8253, Note_off_c, 1, 67, 0
1, 8253, Note_off_c, 2, 50, 0
1, 8256, Note_on_c, 0, 69, 80
1, 8256, Note_on_c, 1, 69, 80
1, 8256, Note_on_c, 2, 62, 80
1, 8256, Note_off_c, 5, 74, 0
1, 8256, Note_on_c, 5, 76, 96
1, 8266, Note_off_c, 5, 76, 0
1, 8268, Note_on_c, 5, 76, 96
1, 8273, Note_off_c, 5, 76, 0
1, 8274, Note_on_c, 5, 78, 96
1, 8277, Note_off_c, 0, 69, 0
1, 8277, Note_off_c, 1, 69, 0
1, 8277, Note_off_c, 2, 62, 0
1, 8279, Note_off_c, 5, 78, 0
1, 8280, Note_on_c, 0, 71, 80
1, 8280, Note_on_c, 1, 67, 80
1, 8280, Note_on_c, 2, 55, 80
1, 8280, Note_on_c, 3, 55, 80
1, 8280, Note_on_c, 4, 43, 80
1, 8280, Note_on_c, 5, 79, 96
1, 8280, Note_on_c, 6, 55, 96
1, 8290, Note_off_c, 5, 79, 0
1, 8292, Note_on_c, 5, 79, 96
1, 8298, Note_off_c, 5, 79, 0
1, 8298, Note_on_c, 5, 78, 96
1, 8301, Note_off_c, 3, 55, 0
1, 8301, Note_off_c, 4, 43, 0
1, 8301, Note_off_c, 6, 55, 0
1, 8304, Note_on_c, 3, 50, 80
1, 8304, Note_on_c, 4, 38, 80
1, 8304, Note_off_c, 5, 78, 0
1, 8304, Note_on_c, 5, 79, 96
1, 8304, Note_on_c, 6, 50, 96
1, 8314, Note_off_c, 5, 79, 0
1, 8316, Note_on_c, 5, 74, 96
1, 8322, Note_off_c, 0, 71, 0
1, 8322, Note_off_c, 1, 67, 0
1, 8322, Note_off_c, 2, 55, 0
1, 8325, Note_off_c, 3, 50, 0
1, 8325, Note_off_c, 4, 38, 0
1, 8325, Note_off_c, 6, 50, 0
1, 8326, Note_off_c, 5, 74, 0
1, 8328, Note_on_c, 3, 43, 80
1, 8328, Note_on_c, 4, 31, 80
1, 8328, Note_on_c, 5, 74, 96
1, 8328, Note_on_c, 6, 43, 96
1, 8334, Note_off_c, 5, 74, 0
1, 8334, Note_on_c, 5, 72, 96
1, 8340, Note_off_c, 5, 72, 0
1, 8340, Note_on_c, 5, 71, 96
1, 8346, Note_off_c, 5, 71, 0
1, 8346, Note_on_c, 5, 69, 96
1, 8349, Note_off_c, 3, 43, 0
1, 8349, Note_off_c, 4, 31, 0
1, 8349, Note_off_c, 6, 43, 0
1, 8351, Note_off_c, 5, 69, 0
1, 8352, Note_on_c, 0, 71, 80
1, 8352, Note_on_c, 1, 68, 80
1, 8352, Note_on_c, 2, 64, 80
1, 8352, Note_on_c, 5, 68, 96
1, 8352, Note_on_c, 6, 52, 96
1, 8362, Note_off_c, 5, 68, 0
1, 8364, Note_on_c, 5, 66, 96
1, 8373, Note_off_c, 0, 71, 0
1, 8373, Note_off_c, 1, 68, 0
1, 8373, Note_off_c, 2, 64, 0
1, 8374, Note_off_c, 5, 66, 0
1, 8376, Note_on_c, 0, 74, 80
1, 8376, Note_on_c, 1, 71, 80
1, 8376, Note_on_c, 2, 52, 80
1, 8376, Note_on_c, 5, 64, 96
1, 8386, Note_off_c, 5, 64, 0
1, 8388, Note_on_c, 5, 66, 96
1, 8394, Note_off_c, 6, 52, 0
1, 8397, Note_off_c, 0, 74, 0
1, 8397, Note_off_c, 1, 71, 0
1, 8397, Note_off_c, 2, 52, 0
1, 8398, Note_off_c, 5, 66, 0
1, 8400, Note_on_c, 0, 73, 80
1, 8400, Note_on_c, 1, 69, 80
1, 8400, Note_on_c, 2, 64, 80
1, 8400, Note_on_c, 5, 68, 96
1, 8410, Note_off_c, 5, 68, 0
1, 8412, Note_on_c, 5, 69, 96
1, 8421, Note_off_c, 0, 73, 0
1, 8421, Note_off_c, 1, 69, 0
1, 8421, Note_off_c, 2, 64, 0
1, 8422, Note_off_c, 5, 69, 0
1, 8424, Note_on_c, 0, 71, 80
1, 8424, Note_on_c, 1, 68, 80
1, 8424, Note_on_c, 2, 64, 80
1, 8424, Note_on_c, 5, 71, 96
1, 8424, Note_on_c, 6, 40, 96
1, 8434, Note_off_c, 5, 71, 0
1, 8436, Note_on_c, 5, 68, 96
1, 8442, Note_off_c, 5, 68, 0
1, 8442, Note_on_c, 5, 69, 96
1, 8445, Note_off_c, 0, 71, 0
1, 8445, Note_off_c, 1, 68, 0
1, 8445, Note_off_c, 2, 64, 0
1, 8448, Note_on_c, 0, 74, 80
1, 8448, Note_on_c, 1, 68, 80
1, 8448, Note_on_c, 2, 52, 80
1, 8448, Note_off_c, 5, 69, 0
1, 8448, Note_on_c, 5, 71, 96
1, 8458, Note_off_c, 5, 71, 0
1, 8460, Note_on_c, 5, 71, 96
1, 8466, Note_off_c, 5, 71, 0
1, 8466, Note_on_c, 5, 73, 96
1, 8466, Note_off_c, 6, 40, 0
1, 8469, Note_off_c, 2, 52, 0
1, 8472, Note_on_c, 2, 64, 80
1, 8472, Note_off_c, 5, 73, 0
1, 8472, Note_on_c, 5, 74, 96
1, 8482, Note_off_c, 5, 74, 0
1, 8484, Note_on_c, 5, 71, 96
1, 8489, Note_off_c, 5, 71, 0
1, 8490, Note_on_c, 5, 73, 96
1, 8493, Note_off_c, 2, 64, 0
1, 8495, Note_off_c, 5, 73, 0
1, 8496, Note_on_c, 2, 64, 80
1, 8496, Note_on_c, 5, 74, 96
1, 8496, Note_on_c, 6, 52, 96
1, 8506, Note_off_c, 5, 74, 0
1, 8508, Note_on_c, 5, 74, 96
1, 8511, Note_off_c, 0, 74, 0
1, 8511, Note_off_c, 1, 68, 0
1, 8514, Note_off_c, 5, 74, 0
1, 8514, Note_on_c, 5, 76, 96
1, 8517, Note_off_c, 2, 64, 0
1, 8520, Note_on_c, 0, 73, 80
1, 8520, Note_on_c, 1, 69, 80
1, 8520, Note_on_c, 2, 52, 80
1, 8520, Note_off_c, 5, 76, 0
1, 8520, Note_on_c, 5, 78, 96
1, 8530, Note_off_c, 5, 78, 0
1, 8532, Note_on_c, 5, 74, 96
1, 8538, Note_off_c, 5, 74, 0
1, 8538, Note_on_c, 5, 76, 96
1, 8538, Note_off_c, 6, 52, 0
1, 8541, Note_off_c, 0, 73, 0
1, 8541, Note_off_c, 1, 69, 0
1, 8541, Note_off_c, 2, 52, 0
1, 8544, Note_on_c, 0, 71, 80
1, 8544, Note_on_c, 1, 71, 80
1, 8544, Note_on_c, 2, 64, 80
1, 8544, Note_off_c, 5, 76, 0
1, 8544, Note_on_c, 5, 78, 96
1, 8554, Note_off_c, 5, 78, 0
1, 8556, Note_on_c, 5, 78, 96
1, 8562, Note_off_c, 5, 78, 0
1, 8562, Note_on_c, 5, 80, 96
1, 8565, Note_off_c, 0, 71, 0
1, 8565, Note_off_c, 1, 71, 0
1, 8565, Note_off_c, 2, 64, 0
1, 8568, Note_on_c, 0, 73, 80
1, 8568, Note_on_c, 1, 69, 80
1, 8568, Note_on_c, 2, 57, 80
1, 8568, Note_on_c, 3, 57, 80
1, 8568, Note_on_c, 4, 45, 80
1, 8568, Note_off_c, 5, 80, 0
1, 8568, Note_on_c, 5, 81, 96
1, 8568, Note_on_c, 6, 57, 96
1, 8578, Note_off_c, 5, 81, 0
1, 8580, Note_on_c, 5, 81, 96
1, 8586, Note_off_c, 5, 81, 0
1, 8586, Note_on_c, 5, 80, 96
1, 8589, Note_off_c, 3, 57, 0
1, 8589, Note_off_c, 4, 45, 0
1, 8589, Note_off_c, 6, 57, 0
1, 8592, Note_on_c, 3, 52, 80
1, 8592, Note_on_c, 4, 40, 80
1, 8592, Note_off_c, 5, 80, 0
1, 8592, Note_on_c, 5, 81, 96
1, 8592, Note_on_c, 6, 52, 96
1, 8602, Note_off_c, 5, 81, 0
1, 8604, Note_on_c, 5, 76, 96
1, 8610, Note_off_c, 0, 73, 0
1, 8610, Note_off_c, 1, 69, 0
1, 8610, Note_off_c, 2, 57, 0
1, 8613, Note_off_c, 3, 52, 0
1, 8613, Note_off_c, 4, 40, 0
1, 8613, Note_off_c, 6, 52, 0
1, 8614, Note_off_c, 5, 76, 0
1, 8616, Note_on_c, 3, 45, 80
1, 8616, Note_on_c, 4, 33, 80
1, 8616, Note_on_c, 5, 76, 96
1, 8616, Note_on_c, 6, 45, 96
1, 8622, Note_off_c, 5, 76, 0
1, 8622, Note_on_c, 5, 74, 96
1, 8628, Note_off_c, 5, 74, 0
1, 8628, Note_on_c, 5, 73, 96
1, 8634, Note_off_c, 5, 73, 0
1, 8634, Note_on_c, 5, 71, 96
1, 8637, Note_off_c, 3, 45, 0
1, 8637, Note_off_c, 4, 33, 0
1, 8637, Note_off_c, 6, 45, 0
1, 8639, Note_off_c, 5, 71, 0
1, 8640, Note_on_c, 3, 49, 80
1, 8640, Note_on_c, 4, 37, 80
1, 8640, Note_on_c, 5, 70, 96
1, 8640, Note_on_c, 6, 49, 96
1, 8650, Note_off_c, 5, 70, 0
1, 8652, Note_on_c, 5, 76, 96
1, 8657, Note_off_c, 5, 76, 0
1, 8658, Note_on_c, 5, 78, 96
1, 8661, Note_off_c, 3, 49, 0
1, 8661, Note_off_c, 4, 37, 0
1, 8661, Note_off_c, 6, 49, 0
1, 8663, Note_off_c, 5, 78, 0
1, 8664, Note_on_c, 0, 70, 80
1, 8664, Note_on_c, 1, 64, 80
1, 8664, Note_on_c, 2, 61, 80
1, 8664, Note_on_c, 5, 79, 96
1, 8674, Note_off_c, 0, 70, 0
1, 8674, Note_off_c, 1, 64, 0
1, 8674, Note_off_c, 2, 61, 0
1, 8674, Note_off_c, 5, 79, 0
1, 8676, Note_on_c, 0, 71, 80
1, 8676, Note_on_c, 1, 62, 80
1, 8676, Note_on_c, 2, 59, 80
1, 8676, Note_on_c, 5, 76, 96
1, 8681, Note_off_c, 5, 76, 0
1, 8682, Note_on_c, 5, 78, 96
1, 8686, Note_off_c, 0, 71, 0
1, 8686, Note_off_c, 1, 62, 0
1, 8686, Note_off_c, 2, 59, 0
1, 8687, Note_off_c, 5, 78, 0
1, 8688, Note_on_c, 0, 70, 80
1, 8688, Note_on_c, 1, 64, 80
1, 8688, Note_on_c, 2, 61, 80
1, 8688, Note_on_c, 5, 79, 96
1, 8698, Note_off_c, 5, 79, 0
1, 8700, Note_on_c, 5, 76, 96
1, 8709, Note_off_c, 0, 70, 0
1, 8709, Note_off_c, 1, 64, 0
1, 8709, Note_off_c, 2, 61, 0
1, 8710, Note_off_c, 5, 76, 0
1, 8712, Note_on_c, 3, 47, 80
1, 8712, Note_on_c, 4, 35, 80
1, 8712, Note_on_c, 5, 71, 96
1, 8712, Note_on_c, 6, 47, 96
1, 8722, Note_off_c, 5, 71, 0
1, 8724, Note_on_c, 5, 76, 96
1, 8729, Note_off_c, 5, 76, 0
1, 8730, Note_on_c, 5, 78, 96
1, 8733, Note_off_c, 3, 47, 0
1, 8733, Note_off_c, 4, 35, 0
1, 8733, Note_off_c, 6, 47, 0
1, 8735, Note_off_c, 5, 78, 0
1, 8736, Note_on_c, 0, 71, 80
1, 8736, Note_on_c, 1, 62, 80
1, 8736, Note_on_c, 2, 59, 80
1, 8736, Note_on_c, 5, 79, 96
1, 8746, Note_off_c, 0, 71, 0
1, 8746, Note_off_c, 1, 62, 0
1, 8746, Note_off_c, 2, 59, 0
1, 8746, Note_off_c, 5, 79, 0
1, 8748, Note_on_c, 0, 73, 80
1, 8748, Note_on_c, 1, 61, 80
1, 8748, Note_on_c, 2, 58, 80
1, 8748, Note_on_c, 5, 76, 96
1, 8753, Note_off_c, 5, 76, 0
1, 8754, Note_on_c, 5, 78, 96
1, 8758, Note_off_c, 0, 73, 0
1, 8758, Note_off_c, 1, 61, 0
1, 8758, Note_off_c, 2, 58, 0
1, 8759, Note_off_c, 5, 78, 0
1, 8760, Note_on_c, 0, 71, 80
1, 8760, Note_on_c, 1, 62, 80
1, 8760, Note_on_c, 2, 59, 80
1, 8760, Note_on_c, 5, 79, 96
1, 8770, Note_off_c, 5, 79, 0
1, 8772, Note_on_c, 5, 76, 96
1, 8781, Note_off_c, 0, 71, 0
1, 8781, Note_off_c, 1, 62, 0
1, 8781, Note_off_c, 2, 59, 0
1, 8782, Note_off_c, 5, 76, 0
1, 8784, Note_on_c, 3, 46, 80
1, 8784, Note_on_c, 4, 34, 80
1, 8784, Note_on_c, 5, 73, 96
1, 8784, Note_on_c, 6, 46, 96
1, 8794, Note_off_c, 5, 73, 0
1, 8796, Note_on_c, 5, 76, 96
1, 8801, Note_off_c, 5, 76, 0
1, 8802, Note_on_c, 5, 78, 96
1, 8805, Note_off_c, 3, 46, 0
1, 8805, Note_off_c, 4, 34, 0
1, 8805, Note_off_c, 6, 46, 0
1, 8807, Note_off_c, 5, 78, 0
1, 8808, Note_on_c, 0, 73, 80
1, 8808, Note_on_c, 1, 64, 80
1, 8808, Note_on_c, 2, 58, 80
1, 8808, Note_on_c, 5, 79, 96
1, 8818, Note_off_c, 0, 73, 0
1, 8818, Note_off_c, 5, 79, 0
1, 8820, Note_on_c, 0, 74, 80
1, 8820, Note_on_c, 5, 76, 96
1, 8829, Note_off_c, 1, 64, 0
1, 8829, Note_off_c, 2, 58, 0
1, 8830, Note_off_c, 0, 74, 0
1, 8830, Note_off_c, 5, 76, 0
1, 8832, Note_on_c, 0, 76, 80
1, 8832, Note_on_c, 1, 66, 80
1, 8832, Note_on_c, 2, 61, 80
1, 8832, Note_on_c, 3, 42, 80
1, 8832, Note_on_c, 4, 30, 80
1, 8832, Note_on_c, 5, 82, 96
1, 8832, Note_on_c, 6, 42, 96
1, 8842, Note_off_c, 0, 76, 0
1, 8842, Note_off_c, 5, 82, 0
1, 8844, Note_on_c, 0, 73, 80
1, 8844, Note_on_c, 5, 76, 96
1, 8853, Note_off_c, 1, 66, 0
1, 8853, Note_off_c, 2, 61, 0
1, 8853, Note_off_c, 3, 42, 0
1, 8853, Note_off_c, 4, 30, 0
1, 8853, Note_off_c, 6, 42, 0
1, 8854, Note_off_c, 0, 73, 0
1, 8854, Note_off_c, 5, 76, 0
1, 8856, Note_on_c, 0, 74, 80
1, 8856, Note_on_c, 1, 66, 80
1, 8856, Note_on_c, 2, 59, 80
1, 8856, Note_on_c, 3, 47, 80
1, 8856, Note_on_c, 4, 35, 80
1, 8856, Note_on_c, 5, 74, 96
1, 8856, Note_on_c, 6, 47, 96
1, 8866, Note_off_c, 5, 74, 0
1, 8868, Note_on_c, 5, 73, 96
1, 8877, Note_off_c, 0, 74, 0
1, 8877, Note_off_c, 1, 66, 0
1, 8877, Note_off_c, 2, 59, 0
1, 8877, Note_off_c, 3, 47, 0
1, 8877, Note_off_c, 4, 35, 0
1, 8877, Note_off_c, 6, 47, 0
1, 8878, Note_off_c, 5, 73, 0
1, 8880, Note_on_c, 0, 71, 80
1, 8880, Note_on_c, 1, 62, 80
1, 8880, Note_on_c, 2, 66, 80
1, 8880, Note_on_c, 3, 50, 80
1, 8880, Note_on_c, 4, 38, 80
1, 8880, Note_on_c, 5, 71, 96
1, 8880, Note_on_c, 6, 50, 96
1, 8890, Note_off_c, 5, 71, 0
1, 8892, Note_on_c, 5, 73, 96
1, 8901, Note_off_c, 0, 71, 0
1, 8901, Note_off_c, 1, 62, 0
1, 8901, Note_off_c, 2, 66, 0
1, 8901, Note_off_c, 3, 50, 0
1, 8901, Note_off_c, 4, 38, 0
1, 8901, Note_off_c, 6, 50, 0
1, 8902, Note_off_c, 5, 73, 0
1, 8904, Note_on_c, 3, 47, 80
1, 8904, Note_on_c, 4, 35, 80
1, 8904, Note_on_c, 5, 74, 96
1, 8904, Note_on_c, 6, 47, 96
1, 8914, Note_off_c, 5, 74, 0
1, 8916, Note_on_c, 5, 71, 96
1, 8925, Note_off_c, 3, 47, 0
1, 8925, Note_off_c, 4, 35, 0
1, 8925, Note_off_c, 6, 47, 0
1, 8926, Note_off_c, 5, 71, 0
1, 8928, Note_on_c, 3, 44, 80
1, 8928, Note_on_c, 4, 32, 80
1, 8928, Note_on_c, 5, 77, 96
1, 8928, Note_on_c, 6, 44, 96
1, 8938, Note_off_c, 5, 77, 0
1, 8940, Note_on_c, 5, 71, 96
1, 8945, Note_off_c, 5, 71, 0
1, 8946, Note_on_c, 5, 73, 96
1, 8949, Note_off_c, 3, 44, 0
1, 8949, Note_off_c, 4, 32, 0
1, 8949, Note_off_c, 6, 44, 0
1, 8951, Note_off_c, 5, 73, 0
1, 8952, Note_on_c, 0, 71, 80
1, 8952, Note_on_c, 1, 65, 80
1, 8952, Note_on_c, 2, 68, 80
1, 8952, Note_on_c, 5, 74, 96
1, 8962, Note_off_c, 0, 71, 0
1, 8962, Note_off_c, 1, 65, 0
1, 8962, Note_off_c, 2, 68, 0
1, 8962, Note_off_c, 5, 74, 0
1, 8964, Note_on_c, 0, 69, 80
1, 8964, Note_on_c, 1, 66, 80
1, 8964, Note_on_c, 2, 66, 80
1, 8964, Note_on_c, 5, 71, 96
1, 8969, Note_off_c, 5, 71, 0
1, 8970, Note_on_c, 5, 73, 96
1, 8974, Note_off_c, 0, 69, 0
1, 8974, Note_off_c, 1, 66, 0
1, 8974, Note_off_c, 2, 66, 0
1, 8975, Note_off_c, 5, 73, 0
1, 8976, Note_on_c, 0, 71, 80
1, 8976, Note_on_c, 1, 65, 80
1, 8976, Note_on_c, 2, 68, 80
1, 8976, Note_on_c, 5, 74, 96
1, 8986, Note_off_c, 5, 74, 0
1, 8988, Note_on_c, 5, 71, 96
1, 8997, Note_off_c, 0, 71, 0
1, 8997, Note_off_c, 1, 65, 0
1, 8997, Note_off_c, 2, 68, 0
1, 8998, Note_off_c, 5, 71, 0
1, 9000, Note_on_c, 3, 42, 80
1, 9000, Note_on_c, 4, 30, 80
1, 9000, Note_on_c, 5, 78, 96
1, 9000, Note_on_c, 6, 42, 96
1, 9010, Note_off_c, 5, 78, 0
1, 9012, Note_on_c, 5, 71, 96
1, 9017, Note_off_c, 5, 71, 0
1, 9018, Note_on_c, 5, 73, 96
1, 9021, Note_off_c, 3, 42, 0
1, 9021, Note_off_c, 4, 30, 0
1, 9021, Note_off_c, 6, 42, 0
1, 9023, Note_off_c, 5, 73, 0
1, 9024, Note_on_c, 0, 69, 80
1, 9024, Note_on_c, 1, 66, 80
1, 9024, Note_on_c, 2, 66, 80
1, 9024, Note_on_c, 5, 74, 96
1, 9034, Note_off_c, 0, 69, 0
1, 9034, Note_off_c, 1, 66, 0
1, 9034, Note_off_c, 2, 66, 0
1, 9034, Note_off_c, 5, 74, 0
1, 9036, Note_on_c, 0, 68, 80
1, 9036, Note_on_c, 1, 68, 80
1, 9036, Note_on_c, 2, 65, 80
1, 9036, Note_on_c, 5, 71, 96
1, 9041, Note_off_c, 5, 71, 0
1, 9042, Note_on_c, 5, 73, 96
1, 9046, Note_off_c, 0, 68, 0
1, 9046, Note_off_c, 1, 68, 0
1, 9046, Note_off_c, 2, 65, 0
1, 9047, Note_off_c, 5, 73, 0
1, 9048, Note_on_c, 0, 69, 80
1, 9048, Note_on_c, 1, 66, 80
1, 9048, Note_on_c, 2, 66, 80
1, 9048, Note_on_c, 5, 74, 96
1, 9058, Note_off_c, 5, 74, 0
1, 9060, Note_on_c, 5, 71, 96
1, 9069, Note_off_c, 0, 69, 0
1, 9069, Note_off_c, 1, 66, 0
1, 9069, Note_off_c, 2, 66, 0
1, 9070, Note_off_c, 5, 71, 0
1, 9072, Note_on_c, 3, 41, 80
1, 9072, Note_on_c, 4, 29, 80
1, 9072, Note_on_c, 5, 80, 96
1, 9072, Note_on_c, 6, 41, 96
1, 9082, Note_off_c, 5, 80, 0
1, 9084, Note_on_c, 5, 71, 96
1, 9089, Note_off_c, 5, 71, 0
1, 9090, Note_on_c, 5, 73, 96
1, 9093, Note_off_c, 3, 41, 0
1, 9093, Note_off_c, 4, 29, 0
1, 9093, Note_off_c, 6, 41, 0
1, 9095, Note_off_c, 5, 73, 0
1, 9096, Note_on_c, 0, 68, 80
1, 9096, Note_on_c, 1, 59, 80
1, 9096, Note_on_c, 2, 65, 80
1, 9096, Note_on_c, 5, 74, 96
1, 9106, Note_off_c, 0, 68, 0
1, 9106, Note_off_c, 2, 65, 0
1, 9106, Note_off_c, 5, 74, 0
1, 9108, Note_on_c, 0, 69, 80
1, 9108, Note_on_c, 2, 63, 80
1, 9108, Note_on_c, 5, 71, 96
1, 9117, Note_off_c, 1, 59, 0
1, 9118, Note_off_c, 0, 69, 0
1, 9118, Note_off_c, 2, 63, 0
1, 9118, Note_off_c, 5, 71, 0
1, 9120, Note_on_c, 0, 71, 80
1, 9120, Note_on_c, 1, 61, 80
1, 9120, Note_on_c, 2, 65, 80
1, 9120, Note_on_c, 3, 37, 80
1, 9120, Note_on_c, 4, 25, 80
1, 9120, Note_on_c, 5, 68, 96
1, 9120, Note_on_c, 6, 37, 96
1, 9130, Note_off_c, 0, 71, 0
1, 9130, Note_off_c, 5, 68, 0
1, 9132, Note_on_c, 0, 68, 80
1, 9132, Note_on_c, 5, 73, 96
1, 9141, Note_off_c, 1, 61, 0
1, 9141, Note_off_c, 2, 65, 0
1, 9141, Note_off_c, 3, 37, 0
1, 9141, Note_off_c, 4, 25, 0
1, 9141, Note_off_c, 6, 37, 0
1, 9142, Note_off_c, 0, 68, 0
1, 9142, Note_off_c, 5, 73, 0
1, 9144, Note_on_c, 0, 69, 80
1, 9144, Note_on_c, 1, 61, 80
1, 9144, Note_on_c, 2, 66, 80
1, 9144, Note_on_c, 3, 42, 80
1, 9144, Note_on_c, 4, 30, 80
1, 9144, Note_on_c, 5, 69, 96
1, 9144, Note_on_c, 6, 42, 96
1, 9154, Note_off_c, 5, 69, 0
1, 9156, Note_on_c, 5, 68, 96
1, 9165, Note_off_c, 0, 69, 0
1, 9165, Note_off_c, 1, 61, 0
1, 9165, Note_off_c, 2, 66, 0
1, 9165, Note_off_c, 3, 42, 0
1, 9165, Note_off_c, 4, 30, 0
1, 9165, Note_off_c, 6, 42, 0
1, 9166, Note_off_c, 5, 68, 0
1, 9168, Note_on_c, 0, 66, 80
1, 9168, Note_on_c, 1, 61, 80
1, 9168, Note_on_c, 2, 57, 80
1, 9168, Note_on_c, 3, 45, 80
1, 9168, Note_on_c, 4, 33, 80
1, 9168, Note_on_c, 5, 66, 96
1, 9168, Note_on_c, 6, 45, 96
1, 9178, Note_off_c, 5, 66, 0
1, 9180, Note_on_c, 5, 68, 96
1, 9189, Note_off_c, 0, 66, 0
1, 9189, Note_off_c, 1, 61, 0
1, 9189, Note_off_c, 2, 57, 0
1, 9189, Note_off_c, 3, 45, 0
1, 9189, Note_off_c, 4, 33, 0
1, 9189, Note_off_c, 6, 45, 0
1, 9190, Note_off_c, 5, 68, 0
1, 9192, Note_on_c, 3, 49, 80
1, 9192, Note_on_c, 4, 37, 80
1, 9192, Note_on_c, 5, 69, 96
1, 9192, Note_on_c, 6, 49, 96
1, 9202, Note_off_c, 5, 69, 0
1, 9204, Note_on_c, 5, 71, 96
1, 9213, Note_off_c, 3, 49, 0
1, 9213, Note_off_c, 4, 37, 0
1, 9213, Note_off_c, 6, 49, 0
1, 9214, Note_off_c, 5, 71, 0
1, 9216, Note_on_c, 0, 78, 80
1, 9216, Note_on_c, 1, 69, 80
1, 9216, Note_on_c, 3, 54, 80
1, 9216, Note_on_c, 4, 42, 80
1, 9216, Note_on_c, 5, 73, 96
1, 9216, Note_on_c, 6, 54, 96
1, 9226, Note_off_c, 5, 73, 0
1, 9228, Note_on_c, 5, 78, 96
1, 9233, Note_off_c, 5, 78, 0
1, 9234, Note_on_c, 5, 79, 96
1, 9237, Note_off_c, 3, 54, 0
1, 9237, Note_off_c, 4, 42, 0
1, 9237, Note_off_c, 6, 54, 0
1, 9239, Note_off_c, 5, 79, 0
1, 9240, Note_on_c, 5, 81, 96
1, 9240, Note_on_c, 6, 51, 96
1, 9245, Note_off_c, 5, 81, 0
1, 9246, Note_on_c, 5, 79, 96
1, 9251, Note_off_c, 5, 79, 0
1, 9252, Note_on_c, 5, 78, 96
1, 9257, Note_off_c, 5, 78, 0
1, 9258, Note_on_c, 5, 76, 96
1, 9261, Note_off_c, 6, 51, 0
1, 9263, Note_off_c, 5, 76, 0
1, 9264, Note_on_c, 5, 75, 96
1, 9264, Note_on_c, 6, 47, 96
1, 9274, Note_off_c, 5, 75, 0
1, 9276, Note_on_c, 5, 81, 96
1, 9285, Note_off_c, 6, 47, 0
1, 9286, Note_off_c, 5, 81, 0
1, 9288, Note_on_c, 5, 71, 96
1, 9288, Note_on_c, 6, 52, 96
1, 9298, Note_off_c, 5, 71, 0
1, 9300, Note_off_c, 0, 78, 0
1, 9300, Note_off_c, 1, 69, 0
1, 9300, Note_on_c, 5, 75, 96
1, 9310, Note_off_c, 5, 75, 0
1, 9312, Note_on_c, 0, 75, 80
1, 9312, Note_on_c, 1, 66, 80
1, 9312, Note_on_c, 5, 78, 96
1, 9322, Note_off_c, 5, 78, 0
1, 9324, Note_on_c, 5, 81, 96
1, 9333, Note_off_c, 0, 75, 0
1, 9333, Note_off_c, 1, 66, 0
1, 9334, Note_off_c, 5, 81, 0
1, 9336, Note_on_c, 0, 71, 80
1, 9336, Note_on_c, 1, 63, 80
1, 9336, Note_on_c, 5, 79, 96
1, 9346, Note_off_c, 5, 79, 0
1, 9348, Note_on_c, 5, 78, 96
1, 9357, Note_off_c, 0, 71, 0
1, 9357, Note_off_c, 1, 63, 0
1, 9358, Note_off_c, 5, 78, 0
1, 9360, Note_on_c, 0, 76, 80
1, 9360, Note_on_c, 1, 67, 80
1, 9360, Note_on_c, 5, 71, 96
1, 9370, Note_off_c, 5, 71, 0
1, 9372, Note_on_c, 5, 76, 96
1, 9372, Note_off_c, 6, 52, 0
1, 9377, Note_off_c, 5, 76, 0
1, 9378, Note_on_c, 5, 78, 96
1, 9383, Note_off_c, 5, 78, 0
1, 9384, Note_on_c, 5, 79, 96
1, 9384, Note_on_c, 6, 49, 96
1, 9389, Note_off_c, 5, 79, 0
1, 9390, Note_on_c, 5, 78, 96
1, 9395, Note_off_c, 5, 78, 0
1, 9396, Note_on_c, 5, 76, 96
1, 9401, Note_off_c, 5, 76, 0
1, 9402, Note_on_c, 5, 74, 96
1, 9405, Note_off_c, 6, 49, 0
1, 9407, Note_off_c, 5, 74, 0
1, 9408, Note_on_c, 5, 73, 96
1, 9408, Note_on_c, 6, 45, 96
1, 9418, Note_off_c, 5, 73, 0
1, 9420, Note_on_c, 5, 79, 96
1, 9429, Note_off_c, 6, 45, 0
1, 9430, Note_off_c, 5, 79, 0
1, 9432, Note_on_c, 5, 69, 96
1, 9432, Note_on_c, 6, 50, 96
1, 9442, Note_off_c, 5, 69, 0
1, 9444, Note_off_c, 0, 76, 0
1, 9444, Note_off_c, 1, 67, 0
1, 9444, Note_on_c, 5, 73, 96
1, 9454, Note_off_c, 5, 73, 0
1, 9456, Note_on_c, 0, 73, 80
1, 9456, Note_on_c, 1, 64, 80
1, 9456, Note_on_c, 5, 76, 96
1, 9466, Note_off_c, 5, 76, 0
1, 9468, Note_on_c, 5, 79, 96
1, 9477, Note_off_c, 0, 73, 0
1, 9477, Note_off_c, 1, 64, 0
1, 9478, Note_off_c, 5, 79, 0
1, 9480, Note_on_c, 0, 69, 80
1, 9480, Note_on_c, 1, 61, 80
1, 9480, Note_on_c, 5, 78, 96
1, 9490, Note_off_c, 5, 78, 0
1, 9492, Note_on_c, 5, 76, 96
1, 9501, Note_off_c, 0, 69, 0
1, 9501, Note_off_c, 1, 61, 0
1, 9502, Note_off_c, 5, 76, 0
1, 9504, Note_on_c, 0, 74, 80
1, 9504, Note_on_c, 1, 66, 80
1, 9504, Note_on_c, 5, 69, 96
1, 9514, Note_off_c, 5, 69, 0
1, 9516, Note_on_c, 5, 74, 96
1, 9516, Note_off_c, 6, 50, 0
1, 9521, Note_off_c, 5, 74, 0
1, 9522, Note_on_c, 5, 76, 96
1, 9527, Note_off_c, 5, 76, 0
1, 9528, Note_on_c, 5, 78, 96
1, 9528, Note_on_c, 6, 57, 96
1, 9538, Note_off_c, 5, 78, 0
1, 9540, Note_on_c, 5, 78, 96
1, 9545, Note_off_c, 5, 78, 0
1, 9546, Note_on_c, 5, 76, 96
1, 9549, Note_off_c, 6, 57, 0
1, 9551, Note_off_c, 5, 76, 0
1, 9552, Note_on_c, 5, 74, 96
1, 9552, Note_on_c, 6, 54, 96
1, 9562, Note_off_c, 5, 74, 0
1, 9564, Note_on_c, 5, 74, 96
1, 9569, Note_off_c, 5, 74, 0
1, 9570, Note_on_c, 5, 73, 96
1, 9573, Note_off_c, 6, 54, 0
1, 9575, Note_off_c, 5, 73, 0
1, 9576, Note_on_c, 5, 71, 96
1, 9576, Note_on_c, 6, 50, 96
1, 9586, Note_off_c, 5, 71, 0
1, 9588, Note_on_c, 5, 71, 96
1, 9593, Note_off_c, 5, 71, 0
1, 9594, Note_on_c, 5, 73, 96
1, 9597, Note_off_c, 6, 50, 0
1, 9599, Note_off_c, 5, 73, 0
1, 9600, Note_on_c, 5, 74, 96
1, 9600, Note_on_c, 6, 54, 96
1, 9610, Note_off_c, 5, 74, 0
1, 9612, Note_on_c, 5, 74, 96
1, 9617, Note_off_c, 5, 74, 0
1, 9618, Note_on_c, 5, 73, 96
1, 9621, Note_off_c, 6, 54, 0
1, 9623, Note_off_c, 5, 73, 0
1, 9624, Note_on_c, 5, 71, 96
1, 9624, Note_on_c, 6, 50, 96
1, 9634, Note_off_c, 5, 71, 0
1, 9636, Note_off_c, 1, 66, 0
1, 9636, Note_on_c, 5, 71, 96
1, 9641, Note_off_c, 5, 71, 0
1, 9642, Note_on_c, 5, 69, 96
1, 9645, Note_off_c, 6, 50, 0
1, 9647, Note_off_c, 5, 69, 0
1, 9648, Note_on_c, 1, 71, 80
1, 9648, Note_on_c, 5, 67, 96
1, 9648, Note_on_c, 6, 47, 96
1, 9658, Note_off_c, 5, 67, 0
1, 9660, Note_on_c, 5, 67, 96
1, 9665, Note_off_c, 5, 67, 0
1, 9666, Note_on_c, 5, 69, 96
1, 9669, Note_off_c, 6, 47, 0
1, 9671, Note_off_c, 5, 69, 0
1, 9672, Note_on_c, 5, 71, 96
1, 9672, Note_on_c, 6, 50, 96
1, 9682, Note_off_c, 5, 71, 0
1, 9684, Note_on_c, 5, 71, 96
1, 9689, Note_off_c, 5, 71, 0
1, 9690, Note_on_c, 5, 69, 96
1, 9693, Note_off_c, 6, 50, 0
1, 9695, Note_off_c, 5, 69, 0
1, 9696, Note_on_c, 5, 67, 96
1, 9696, Note_on_c, 6, 47, 96
1, 9706, Note_off_c, 5, 67, 0
1, 9708, Note_on_c, 5, 67, 96
1, 9711, Note_off_c, 1, 71, 0
1, 9713, Note_off_c, 5, 67, 0
1, 9714, Note_on_c, 5, 66, 96
1, 9717, Note_off_c, 6, 47, 0
1, 9719, Note_off_c, 5, 66, 0
1, 9720, Note_on_c, 1, 68, 80
1, 9720, Note_on_c, 5, 65, 96
1, 9720, Note_on_c, 6, 59, 96
1, 9725, Note_off_c, 5, 65, 0
1, 9726, Note_on_c, 5, 68, 96
1, 9731, Note_off_c, 5, 68, 0
1, 9732, Note_off_c, 0, 74, 0
1, 9732, Note_on_c, 5, 71, 96
1, 9737, Note_off_c, 5, 71, 0
1, 9738, Note_on_c, 5, 74, 96
1, 9743, Note_off_c, 5, 74, 0
1, 9744, Note_on_c, 0, 66, 80
1, 9744, Note_on_c, 5, 74, 96
1, 9750, Note_off_c, 0, 66, 0
1, 9750, Note_on_c, 0, 65, 80
1, 9751, Note_off_c, 6, 59, 0
1, 9756, Note_off_c, 0, 65, 0
1, 9756, Note_on_c, 0, 66, 80
1, 9756, Note_on_c, 3, 62, 80
1, 9756, Note_on_c, 4, 50, 80
1, 9756, Note_on_c, 6, 62, 96
1, 9762, Note_off_c, 0, 66, 0
1, 9762, Note_on_c, 0, 65, 80
1, 9766, Note_off_c, 3, 62, 0
1, 9766, Note_off_c, 4, 50, 0
1, 9766, Note_off_c, 6, 62, 0
1, 9768, Note_off_c, 0, 65, 0
1, 9768, Note_on_c, 0, 66, 80
1, 9768, Note_on_c, 3, 61, 80
1, 9768, Note_on_c, 4, 49, 80
1, 9768, Note_off_c, 5, 74, 0
1, 9768, Note_on_c, 5, 73, 96
1, 9768, Note_on_c, 6, 61, 96
1, 9774, Note_off_c, 0, 66, 0
1, 9774, Note_on_c, 0, 65, 80
1, 9778, Note_off_c, 3, 61, 0
1, 9778, Note_off_c, 4, 49, 0
1, 9778, Note_off_c, 6, 61, 0
1, 9780, Note_on_c, 3, 59, 80
1, 9780, Note_on_c, 4, 47, 80
1, 9780, Note_on_c, 6, 59, 96
1, 9783, Note_off_c, 1, 68, 0
1, 9790, Note_off_c, 0, 65, 0
1, 9790, Note_off_c, 3, 59, 0
1, 9790, Note_off_c, 4, 47, 0
1, 9790, Note_off_c, 6, 59, 0
1, 9792, Note_on_c, 3, 57, 80
1, 9792, Note_on_c, 4, 45, 80
1, 9792, Note_on_c, 6, 57, 96
1, 9799, Note_off_c, 5, 73, 0
1, 9804, Note_on_c, 5, 69, 96
1, 9809, Note_off_c, 5, 69, 0
1, 9810, Note_on_c, 5, 71, 96
1, 9813, Note_off_c, 3, 57, 0
1, 9813, Note_off_c, 4, 45, 0
1, 9813, Note_off_c, 6, 57, 0
1, 9815, Note_off_c, 5, 71, 0
1, 9816, Note_on_c, 0, 73, 80
1, 9816, Note_on_c, 1, 69, 80
1, 9816, Note_on_c, 2, 66, 80
1, 9816, Note_on_c, 3, 54, 80
1, 9816, Note_on_c, 4, 42, 80
1, 9816, Note_on_c, 5, 73, 96
1, 9816, Note_on_c, 6, 54, 96
1, 9826, Note_off_c, 5, 73, 0
1, 9828, Note_on_c, 5, 78, 96
1, 9837, Note_off_c, 0, 73, 0
1, 9837, Note_off_c, 1, 69, 0
1, 9837, Note_off_c, 2, 66, 0
1, 9837, Note_off_c, 3, 54, 0
1, 9837, Note_off_c, 4, 42, 0
1, 9837, Note_off_c, 6, 54, 0
1, 9838, Note_off_c, 5, 78, 0
1, 9840, Note_on_c, 0, 78, 80
1, 9840, Note_on_c, 1, 73, 80
1, 9840, Note_on_c, 2, 69, 80
1, 9840, Note_on_c, 5, 73, 96
1, 9850, Note_off_c, 5, 73, 0
1, 9852, Note_on_c, 5, 69, 96
1, 9861, Note_off_c, 0, 78, 0
1, 9861, Note_off_c, 1, 73, 0
1, 9861, Note_off_c, 2, 69, 0
1, 9862, Note_off_c, 5, 69, 0
1, 9864, Note_on_c, 3, 53, 80
1, 9864, Note_on_c, 4, 41, 80
1, 9864, Note_on_c, 5, 68, 96
1, 9864, Note_on_c, 6, 53, 96
1, 9874, Note_off_c, 5, 68, 0
1, 9876, Note_on_c, 5, 65, 96
1, 9881, Note_off_c, 5, 65, 0
1, 9882, Note_on_c, 5, 66, 96
1, 9885, Note_off_c, 3, 53, 0
1, 9885, Note_off_c, 4, 41, 0
1, 9885, Note_off_c, 6, 53, 0
1, 9887, Note_off_c, 5, 66, 0
1, 9888, Note_on_c, 0, 73, 80
1, 9888, Note_on_c, 1, 68, 80
1, 9888, Note_on_c, 2, 65, 80
1, 9888, Note_on_c, 3, 49, 80
1, 9888, Note_on_c, 4, 37, 80
1, 9888, Note_on_c, 5, 68, 96
1, 9888, Note_on_c, 6, 49, 96
1, 9898, Note_off_c, 5, 68, 0
1, 9900, Note_on_c, 5, 71, 96
1, 9909, Note_off_c, 0, 73, 0
1, 9909, Note_off_c, 1, 68, 0
1, 9909, Note_off_c, 2, 65, 0
1, 9909, Note_off_c, 3, 49, 0
1, 9909, Note_off_c, 4, 37, 0
1, 9909, Note_off_c, 6, 49, 0
1, 9910, Note_off_c, 5, 71, 0
1, 9912, Note_on_c, 0, 80, 80
1, 9912, Note_on_c, 1, 71, 80
1, 9912, Note_on_c, 2, 61, 80
1, 9912, Note_on_c, 5, 68, 96
1, 9922, Note_off_c, 5, 68, 0
1, 9924, Note_on_c, 5, 65, 96
1, 9933, Note_off_c, 0, 80, 0
1, 9933, Note_off_c, 1, 71, 0
1, 9933, Note_off_c, 2, 61, 0
1, 9934, Note_off_c, 5, 65, 0
1, 9936, Note_on_c, 3, 45, 80
1, 9936, Note_on_c, 4, 33, 80
1, 9936, Note_on_c, 5, 61, 96
1, 9936, Note_on_c, 6, 45, 96
1, 9946, Note_off_c, 5, 61, 0
1, 9948, Note_on_c, 5, 57, 96
1, 9953, Note_off_c, 5, 57, 0
1, 9954, Note_on_c, 5, 59, 96
1, 9957, Note_off_c, 3, 45, 0
1, 9957, Note_off_c, 4, 33, 0
1, 9957, Note_off_c, 6, 45, 0
1, 9959, Note_off_c, 5, 59, 0
1, 9960, Note_on_c, 0, 73, 80
1, 9960, Note_on_c, 1, 69, 80
1, 9960, Note_on_c, 2, 66, 80
1, 9960, Note_on_c, 3, 42, 80
1, 9960, Note_on_c, 4, 30, 80
1, 9960, Note_on_c, 5, 61, 96
1, 9960, Note_on_c, 6, 42, 96
1, 9970, Note_off_c, 5, 61, 0
1, 9972, Note_on_c, 5, 66, 96
1, 9981, Note_off_c, 0, 73, 0
1, 9981, Note_off_c, 1, 69, 0
1, 9981, Note_off_c, 2, 66, 0
1, 9981, Note_off_c, 3, 42, 0
1, 9981, Note_off_c, 4, 30, 0
1, 9981, Note_off_c, 6, 42, 0
1, 9982, Note_off_c, 5, 66, 0
1, 9984, Note_on_c, 0, 81, 80
1, 9984, Note_on_c, 1, 73, 80
1, 9984, Note_on_c, 2, 54, 80
1, 9984, Note_on_c, 5, 61, 96
1, 9994, Note_off_c, 5, 61, 0
1, 9996, Note_on_c, 5, 57, 96
1, 10005, Note_off_c, 0, 81, 0
1, 10005, Note_off_c, 1, 73, 0
1, 10005, Note_off_c, 2, 54, 0
1, 10006, Note_off_c, 5, 57, 0
1, 10008, Note_on_c, 0, 80, 80
1, 10008, Note_on_c, 1, 73, 80
1, 10008, Note_on_c, 2, 53, 80
1, 10008, Note_on_c, 3, 49, 80
1, 10008, Note_on_c, 4, 37, 80
1, 10008, Note_on_c, 5, 53, 96
1, 10008, Note_on_c, 6, 49, 96
1, 10013, Note_off_c, 5, 53, 0
1, 10014, Note_on_c, 5, 54, 96
1, 10019, Note_off_c, 5, 54, 0
1, 10020, Note_off_c, 0, 80, 0
1, 10020, Note_on_c, 0, 78, 80
1, 10020, Note_on_c, 5, 56, 96
1, 10025, Note_off_c, 5, 56, 0
1, 10026, Note_on_c, 5, 57, 96
1, 10029, Note_off_c, 2, 53, 0
1, 10029, Note_off_c, 3, 49, 0
1, 10029, Note_off_c, 4, 37, 0
1, 10029, Note_off_c, 6, 49, 0
1, 10030, Note_off_c, 0, 78, 0
1, 10031, Note_off_c, 5, 57, 0
1, 10032, Note_on_c, 0, 77, 80
1, 10032, Note_on_c, 2, 56, 80
1, 10032, Note_on_c, 3, 37, 80
1, 10032, Note_on_c, 4, 25, 80
1, 10032, Note_on_c, 5, 59, 96
1, 10032, Note_on_c, 6, 37, 96
1, 10044, Note_off_c, 0, 77, 0
1, 10044, Note_on_c, 0, 75, 80
1, 10050, Note_off_c, 1, 73, 0
1, 10053, Note_off_c, 2, 56, 0
1, 10053, Note_off_c, 3, 37, 0
1, 10053, Note_off_c, 4, 25, 0
1, 10053, Note_off_c, 6, 37, 0
1, 10054, Note_off_c, 0, 75, 0
1, 10056, Note_on_c, 0, 73, 80
1, 10056, Note_on_c, 3, 39, 80
1, 10056, Note_on_c, 4, 27, 80
1, 10056, Note_on_c, 6, 39, 96
1, 10068, Note_off_c, 0, 73, 0
1, 10068, Note_on_c, 0, 71, 80
1, 10077, Note_off_c, 3, 39, 0
1, 10077, Note_off_c, 4, 27, 0
1, 10077, Note_off_c, 6, 39, 0
1, 10078, Note_off_c, 0, 71, 0
1, 10080, Note_on_c, 0, 74, 80
1, 10080, Note_on_c, 1, 65, 80
1, 10080, Note_on_c, 2, 56, 80
1, 10080, Note_on_c, 3, 41, 80
1, 10080, Note_on_c, 4, 29, 80
1, 10080, Note_on_c, 6, 41, 96
1, 10084, Note_off_c, 5, 59, 0
1, 10092, Note_on_c, 5, 65, 96
1, 10097, Note_off_c, 5, 65, 0
1, 10098, Note_on_c, 5, 63, 96
1, 10101, Note_off_c, 0, 74, 0
1, 10101, Note_off_c, 3, 41, 0
1, 10101, Note_off_c, 4, 29, 0
1, 10101, Note_off_c, 6, 41, 0
1, 10103, Note_off_c, 5, 63, 0
1, 10104, Note_on_c, 0, 71, 80
1, 10104, Note_on_c, 3, 44, 80
1, 10104, Note_on_c, 4, 32, 80
1, 10104, Note_on_c, 5, 65, 96
1, 10104, Note_on_c, 6, 44, 96
1, 10114, Note_off_c, 5, 65, 0
1, 10116, Note_on_c, 5, 59, 96
1, 10121, Note_off_c, 5, 59, 0
1, 10122, Note_off_c, 1, 65, 0
1, 10122, Note_off_c, 2, 56, 0
1, 10122, Note_on_c, 5, 58, 96
1, 10125, Note_off_c, 0, 71, 0
1, 10125, Note_off_c, 3, 44, 0
1, 10125, Note_off_c, 4, 32, 0
1, 10125, Note_off_c, 6, 44, 0
1, 10127, Note_off_c, 5, 58, 0
1, 10128, Note_on_c, 0, 68, 80
1, 10128, Note_on_c, 3, 47, 80
1, 10128, Note_on_c, 4, 35, 80
1, 10128, Note_on_c, 5, 59, 96
1, 10128, Note_on_c, 6, 47, 96
1, 10138, Note_off_c, 5, 59, 0
1, 10140, Note_on_c, 5, 66, 96
1, 10145, Note_off_c, 5, 66, 0
1, 10146, Note_on_c, 5, 65, 96
1, 10149, Note_off_c, 0, 68, 0
1, 10149, Note_off_c, 3, 47, 0
1, 10149, Note_off_c, 4, 35, 0
1, 10149, Note_off_c, 6, 47, 0
1, 10151, Note_off_c, 5, 65, 0
1, 10152, Note_on_c, 0, 71, 80
1, 10152, Note_on_c, 1, 66, 80
1, 10152, Note_on_c, 2, 56, 80
1, 10152, Note_on_c, 3, 50, 80
1, 10152, Note_on_c, 4, 38, 80
1, 10152, Note_on_c, 5, 66, 96
1, 10152, Note_on_c, 6, 50, 96
1, 10162, Note_off_c, 5, 66, 0
1, 10164, Note_on_c, 5, 59, 96
1, 10169, Note_off_c, 5, 59, 0
1, 10170, Note_on_c, 5, 58, 96
1, 10173, Note_off_c, 0, 71, 0
1, 10173, Note_off_c, 3, 50, 0
1, 10173, Note_off_c, 4, 38, 0
1, 10173, Note_off_c, 6, 50, 0
1, 10175, Note_off_c, 5, 58, 0
1, 10176, Note_on_c, 0, 68, 80
1, 10176, Note_on_c, 3, 53, 80
1, 10176, Note_on_c, 4, 41, 80
1, 10176, Note_on_c, 5, 59, 96
1, 10176, Note_on_c, 6, 53, 96
1, 10186, Note_off_c, 3, 53, 0
1, 10186, Note_off_c, 4, 41, 0
1, 10186, Note_off_c, 5, 59, 0
1, 10186, Note_off_c, 6, 53, 0
1, 10188, Note_on_c, 3, 56, 80
1, 10188, Note_on_c, 4, 44, 80
1, 10188, Note_on_c, 5, 68, 96
1, 10188, Note_on_c, 6, 56, 96
1, 10193, Note_off_c, 5, 68, 0
1, 10194, Note_off_c, 1, 66, 0
1, 10194, Note_off_c, 2, 56, 0
1, 10194, Note_on_c, 5, 66, 96
1, 10197, Note_off_c, 0, 68, 0
1, 10198, Note_off_c, 3, 56, 0
1, 10198, Note_off_c, 4, 44, 0
1, 10198, Note_off_c, 6, 56, 0
1, 10199, Note_off_c, 5, 66, 0
1, 10200, Note_on_c, 0, 65, 80
1, 10200, Note_on_c, 3, 59, 80
1, 10200, Note_on_c, 4, 47, 80
1, 10200, Note_on_c, 5, 68, 96
1, 10200, Note_on_c, 6, 59, 96
1, 10210, Note_off_c, 5, 68, 0
1, 10210, Note_off_c, 6, 59, 0
1, 10212, Note_on_c, 5, 57, 96
1, 10217, Note_off_c, 5, 57, 0
1, 10218, Note_on_c, 5, 56, 96
1, 10221, Note_off_c, 0, 65, 0
1, 10221, Note_off_c, 3, 59, 0
1, 10221, Note_off_c, 4, 47, 0
1, 10223, Note_off_c, 5, 56, 0
1, 10224, Note_on_c, 0, 57, 80
1, 10224, Note_on_c, 1, 57, 80
1, 10224, Note_on_c, 2, 57, 80
1, 10224, Note_on_c, 3, 45, 80
1, 10224, Note_on_c, 4, 33, 80
1, 10224, Note_on_c, 5, 57, 96
1, 10224, Note_on_c, 6, 45, 96
1, 10234, Note_off_c, 5, 57, 0
1, 10236, Note_on_c, 5, 66, 96
1, 10245, Note_off_c, 0, 57, 0
1, 10245, Note_off_c, 1, 57, 0
1, 10245, Note_off_c, 2, 57, 0
1, 10245, Note_off_c, 3, 45, 0
1, 10245, Note_off_c, 4, 33, 0
1, 10245, Note_off_c, 6, 45, 0
1, 10246, Note_off_c, 5, 66, 0
1, 10248, Note_on_c, 0, 59, 80
1, 10248, Note_on_c, 1, 59, 80
1, 10248, Note_on_c, 2, 59, 80
1, 10248, Note_on_c, 3, 47, 80
1, 10248, Note_on_c, 4, 35, 80
1, 10248, Note_on_c, 5, 62, 96
1, 10248, Note_on_c, 6, 47, 96
1, 10258, Note_off_c, 5, 62, 0
1, 10260, Note_on_c, 5, 59, 96
1, 10269, Note_off_c, 0, 59, 0
1, 10269, Note_off_c, 1, 59, 0
1, 10269, Note_off_c, 2, 59, 0
1, 10269, Note_off_c, 3, 47, 0
1, 10269, Note_off_c, 4, 35, 0
1, 10269, Note_off_c, 6, 47, 0
1, 10270, Note_off_c, 5, 59, 0
1, 10272, Note_on_c, 0, 61, 80
1, 10272, Note_on_c, 1, 61, 80
1, 10272, Note_on_c, 2, 61, 80
1, 10272, Note_on_c, 3, 49, 80
1, 10272, Note_on_c, 4, 37, 80
1, 10272, Note_on_c, 5, 56, 96
1, 10272, Note_on_c, 6, 49, 96
1, 10282, Note_off_c, 5, 56, 0
1, 10284, Note_on_c, 5, 65, 96
1, 10293, Note_off_c, 0, 61, 0
1, 10293, Note_off_c, 1, 61, 0
1, 10293, Note_off_c, 2, 61, 0
1, 10293, Note_off_c, 3, 49, 0
1, 10293, Note_off_c, 4, 37, 0
1, 10293, Note_off_c, 6, 49, 0
1, 10294, Note_off_c, 5, 65, 0
1, 10296, Note_on_c, 0, 66, 80
1, 10296, Note_on_c, 1, 66, 80
1, 10296, Note_on_c, 2, 54, 80
1, 10296, Note_on_c, 3, 42, 80
1, 10296, Note_on_c, 4, 30, 80
1, 10296, Note_on_c, 5, 66, 96
1, 10296, Note_on_c, 6, 42, 96
1, 10327, Note_off_c, 5, 66, 0
1, 10332, Note_on_c, 5, 69, 96
1, 10337, Note_off_c, 5, 69, 0
1, 10338, Note_off_c, 0, 66, 0
1, 10338, Note_off_c, 1, 66, 0
1, 10338, Note_off_c, 2, 54, 0
1, 10338, Note_off_c, 3, 42, 0
1, 10338, Note_off_c, 4, 30, 0
1, 10338, Note_on_c, 5, 67, 96
1, 10338, Note_off_c, 6, 42, 0
1, 10343, Note_off_c, 5, 67, 0
1, 10344, Note_on_c, 5, 66, 96
1, 10349, Note_off_c, 5, 66, 0
1, 10350, Note_on_c, 5, 64, 96
1, 10355, Note_off_c, 5, 64, 0
1, 10356, Note_on_c, 5, 62, 96
1, 10361, Note_off_c, 5, 62, 0
1, 10362, Note_on_c, 5, 61, 96
1, 10367, Note_off_c, 5, 61, 0
1, 10368, Note_on_c, 0, 62, 96
1, 10368, Note_on_c, 1, 66, 96
1, 10368, Note_on_c, 2, 57, 96
1, 10368, Note_on_c, 3, 50, 96
1, 10368, Note_on_c, 4, 38, 96
1, 10368, Note_on_c, 5, 62, 96
1, 10368, Note_on_c, 6, 50, 96
1, 10378, Note_off_c, 5, 62, 0
1, 10380, Note_off_c, 0, 62, 0
1, 10380, Note_on_c, 0, 64, 96
1, 10380, Note_on_c, 5, 64, 96
1, 10390, Note_off_c, 5, 64, 0
1, 10392, Note_off_c, 0, 64, 0
1, 10392, Note_on_c, 0, 66, 96
1, 10392, Note_on_c, 5, 66, 96
1, 10402, Note_off_c, 5, 66, 0
1, 10404, Note_off_c, 0, 66, 0
1, 10404, Note_on_c, 0, 69, 96
1, 10404, Note_on_c, 5, 69, 96
1, 10410, Note_off_c, 1, 66, 0
1, 10410, Note_off_c, 2, 57, 0
1, 10410, Note_off_c, 3, 50, 0
1, 10410, Note_off_c, 4, 38, 0
1, 10410, Note_off_c, 6, 50, 0
1, 10414, Note_off_c, 0, 69, 0
1, 10414, Note_off_c, 5, 69, 0
1, 10416, Note_on_c, 0, 74, 96
1, 10416, Note_on_c, 5, 74, 96
1, 10422, Note_off_c, 0, 74, 0
1, 10437, Note_off_c, 5, 74, 0
1, 10440, Note_on_c, 0, 74, 96
1, 10440, Note_on_c, 1, 69, 96
1, 10440, Note_on_c, 2, 57, 96
1, 10440, Note_on_c, 3, 54, 96
1, 10440, Note_on_c, 4, 42, 96
1, 10440, Note_on_c, 5, 74, 96
1, 10440, Note_on_c, 6, 54, 96
1, 10450, Note_off_c, 5, 74, 0
1, 10452, Note_off_c, 0, 74, 0
1, 10452, Note_on_c, 0, 73, 96
1, 10452, Note_on_c, 5, 73, 96
1, 10461, Note_off_c, 1, 69, 0
1, 10461, Note_off_c, 2, 57, 0
1, 10461, Note_off_c, 3, 54, 0
1, 10461, Note_off_c, 4, 42, 0
1, 10461, Note_off_c, 6, 54, 0
1, 10462, Note_off_c, 0, 73, 0
1, 10462, Note_off_c, 5, 73, 0
1, 10464, Note_on_c, 0, 76, 96
1, 10464, Note_on_c, 1, 67, 96
1, 10464, Note_on_c, 2, 61, 96
1, 10464, Note_on_c, 3, 52, 96
1, 10464, Note_on_c, 4, 40, 96
1, 10464, Note_on_c, 5, 76, 96
1, 10464, Note_on_c, 6, 52, 96
1, 10474, Note_off_c, 5, 76, 0
1, 10476, Note_off_c, 0, 76, 0
1, 10476, Note_on_c, 0, 74, 96
1, 10476, Note_on_c, 5, 74, 96
1, 10485, Note_off_c, 1, 67, 0
1, 10485, Note_off_c, 2, 61, 0
1, 10485, Note_off_c, 3, 52, 0
1, 10485, Note_off_c, 4, 40, 0
1, 10485, Note_off_c, 6, 52, 0
1, 10486, Note_off_c, 0, 74, 0
1, 10486, Note_off_c, 5, 74, 0
1, 10488, Note_on_c, 0, 73, 96
1, 10488, Note_on_c, 1, 69, 96
1, 10488, Note_on_c, 2, 66, 96
1, 10488, Note_on_c, 3, 50, 96
1, 10488, Note_on_c, 4, 38, 96
1, 10488, Note_on_c, 5, 73, 96
1, 10488, Note_on_c, 6, 50, 96
1, 10498, Note_off_c, 5, 73, 0
1, 10500, Note_off_c, 0, 73, 0
1, 10500, Note_on_c, 0, 71, 96
1, 10500, Note_on_c, 5, 71, 96
1, 10509, Note_off_c, 1, 69, 0
1, 10509, Note_off_c, 2, 66, 0
1, 10509, Note_off_c, 3, 50, 0
1, 10509, Note_off_c, 4, 38, 0
1, 10509, Note_off_c, 6, 50, 0
1, 10510, Note_off_c, 0, 71, 0
1, 10510, Note_off_c, 5, 71, 0
1, 10512, Note_on_c, 0, 69, 96
1, 10512, Note_on_c, 1, 69, 96
1, 10512, Note_on_c, 2, 64, 96
1, 10512, Note_on_c, 3, 49, 96
1, 10512, Note_on_c, 4, 37, 96
1, 10512, Note_on_c, 5, 69, 96
1, 10512, Note_on_c, 6, 49, 96
1, 10522, Note_off_c, 5, 69, 0
1, 10524, Note_off_c, 0, 69, 0
1, 10524, Note_on_c, 0, 71, 96
1, 10524, Note_on_c, 5, 71, 96
1, 10534, Note_off_c, 5, 71, 0
1, 10536, Note_off_c, 0, 71, 0
1, 10536, Note_on_c, 0, 73, 96
1, 10536, Note_on_c, 5, 73, 96
1, 10546, Note_off_c, 5, 73, 0
1, 10548, Note_off_c, 0, 73, 0
1, 10548, Note_on_c, 0, 76, 96
1, 10548, Note_on_c, 5, 76, 96
1, 10554, Note_off_c, 1, 69, 0
1, 10554, Note_off_c, 2, 64, 0
1, 10554, Note_off_c, 3, 49, 0
1, 10554, Note_off_c, 4, 37, 0
1, 10554, Note_off_c, 6, 49, 0
1, 10558, Note_off_c, 0, 76, 0
1, 10558, Note_off_c, 5, 76, 0
1, 10560, Note_on_c, 0, 79, 96
1, 10560, Note_on_c, 5, 79, 96
1, 10566, Note_off_c, 0, 79, 0
1, 10581, Note_off_c, 5, 79, 0
1, 10584, Note_on_c, 0, 79, 96
1, 10584, Note_on_c, 1, 69, 96
1, 10584, Note_on_c, 2, 64, 96
1, 10584, Note_on_c, 3, 49, 96
1, 10584, Note_on_c, 4, 37, 96
1, 10584, Note_on_c, 5, 79, 96
1, 10584, Note_on_c, 6, 49, 96
1, 10605, Note_off_c, 1, 69, 0
1, 10605, Note_off_c, 2, 64, 0
1, 10605, Note_off_c, 3, 49, 0
1, 10605, Note_off_c, 4, 37, 0
1, 10605, Note_off_c, 6, 49, 0
1, 10608, Note_on_c, 1, 71, 96
1, 10608, Note_on_c, 2, 62, 96
1, 10608, Note_on_c, 3, 47, 96
1, 10608, Note_on_c, 4, 35, 96
1, 10608, Note_on_c, 6, 47, 96
1, 10629, Note_off_c, 1, 71, 0
1, 10629, Note_off_c, 2, 62, 0
1, 10629, Note_off_c, 3, 47, 0
1, 10629, Note_off_c, 4, 35, 0
1, 10629, Note_off_c, 6, 47, 0
1, 10632, Note_on_c, 1, 73, 96
1, 10632, Note_on_c, 2, 64, 96
1, 10632, Note_on_c, 3, 45, 96
1, 10632, Note_on_c, 4, 33, 96
1, 10632, Note_on_c, 6, 45, 96
1, 10647, Note_off_c, 0, 79, 0
1, 10647, Note_off_c, 5, 79, 0
1, 10653, Note_off_c, 1, 73, 0
1, 10653, Note_off_c, 2, 64, 0
1, 10653, Note_off_c, 3, 45, 0
1, 10653, Note_off_c, 4, 33, 0
1, 10653, Note_off_c, 6, 45, 0
1, 10656, Note_on_c, 0, 78, 96
1, 10656, Note_on_c, 1, 74, 96
1, 10656, Note_on_c, 2, 57, 96
1, 10656, Note_on_c, 3, 50, 96
1, 10656, Note_on_c, 4, 38, 96
1, 10656, Note_on_c, 5, 78, 96
1, 10656, Note_on_c, 6, 50, 96
1, 10666, Note_off_c, 5, 78, 0
1, 10668, Note_off_c, 0, 78, 0
1, 10668, Note_on_c, 0, 76, 96
1, 10668, Note_on_c, 5, 76, 96
1, 10677, Note_off_c, 1, 74, 0
1, 10677, Note_off_c, 3, 50, 0
1, 10677, Note_off_c, 4, 38, 0
1, 10677, Note_off_c, 6, 50, 0
1, 10678, Note_off_c, 0, 76, 0
1, 10678, Note_off_c, 5, 76, 0
1, 10680, Note_on_c, 0, 79, 96
1, 10680, Note_on_c, 1, 69, 96
1, 10680, Note_on_c, 3, 49, 96
1, 10680, Note_on_c, 4, 37, 96
1, 10680, Note_on_c, 5, 79, 96
1, 10680, Note_on_c, 6, 49, 96
1, 10690, Note_off_c, 5, 79, 0
1, 10692, Note_off_c, 0, 79, 0
1, 10692, Note_on_c, 0, 78, 96
1, 10692, Note_on_c, 5, 78, 96
1, 10698, Note_off_c, 2, 57, 0
1, 10701, Note_off_c, 1, 69, 0
1, 10701, Note_off_c, 3, 49, 0
1, 10701, Note_off_c, 4, 37, 0
1, 10701, Note_off_c, 6, 49, 0
1, 10702, Note_off_c, 0, 78, 0
1, 10702, Note_off_c, 5, 78, 0
1, 10704, Note_on_c, 0, 76, 96
1, 10704, Note_on_c, 1, 68, 96
1, 10704, Note_on_c, 2, 62, 96
1, 10704, Note_on_c, 3, 47, 96
1, 10704, Note_on_c, 4, 35, 96
1, 10704, Note_on_c, 5, 76, 96
1, 10704, Note_on_c, 6, 47, 96
1, 10714, Note_off_c, 5, 76, 0
1, 10716, Note_off_c, 0, 76, 0
1, 10716, Note_on_c, 0, 74, 96
1, 10716, Note_on_c, 5, 74, 96
1, 10725, Note_off_c, 1, 68, 0
1, 10725, Note_off_c, 2, 62, 0
1, 10725, Note_off_c, 3, 47, 0
1, 10725, Note_off_c, 4, 35, 0
1, 10725, Note_off_c, 6, 47, 0
1, 10726, Note_off_c, 0, 74, 0
1, 10726, Note_off_c, 5, 74, 0
1, 10728, Note_on_c, 0, 73, 96
1, 10728, Note_on_c, 1, 69, 96
1, 10728, Note_on_c, 2, 64, 96
1, 10728, Note_on_c, 3, 45, 96
1, 10728, Note_on_c, 4, 33, 96
1, 10728, Note_on_c, 5, 73, 96
1, 10728, Note_on_c, 6, 45, 96
1, 10738, Note_off_c, 5, 73, 0
1, 10740, Note_off_c, 0, 73, 0
1, 10740, Note_on_c, 0, 71, 96
1, 10740, Note_on_c, 5, 71, 96
1, 10749, Note_off_c, 1, 69, 0
1, 10749, Note_off_c, 3, 45, 0
1, 10749, Note_off_c, 4, 33, 0
1, 10749, Note_off_c, 6, 45, 0
1, 10750, Note_off_c, 0, 71, 0
1, 10750, Note_off_c, 5, 71, 0
1, 10752, Note_on_c, 0, 74, 96
1, 10752, Note_on_c, 1, 64, 96
1, 10752, Note_on_c, 3, 43, 96
1, 10752, Note_on_c, 4, 31, 96
1, 10752, Note_on_c, 5, 74, 96
1, 10752, Note_on_c, 6, 43, 96
1, 10762, Note_off_c, 5, 74, 0
1, 10764, Note_off_c, 0, 74, 0
1, 10764, Note_on_c, 0, 73, 96
1, 10764, Note_on_c, 5, 73, 96
1, 10770, Note_off_c, 2, 64, 0
1, 10773, Note_off_c, 1, 64, 0
1, 10773, Note_off_c, 3, 43, 0
1, 10773, Note_off_c, 4, 31, 0
1, 10773, Note_off_c, 6, 43, 0
1, 10774, Note_off_c, 0, 73, 0
1, 10774, Note_off_c, 5, 73, 0
1, 10776, Note_on_c, 0, 71, 96
1, 10776, Note_on_c, 1, 66, 96
1, 10776, Note_on_c, 2, 62, 96
1, 10776, Note_on_c, 3, 42, 96
1, 10776, Note_on_c, 4, 30, 96
1, 10776, Note_on_c, 5, 71, 96
1, 10776, Note_on_c, 6, 42, 96
1, 10786, Note_off_c, 5, 71, 0
1, 10788, Note_off_c, 0, 71, 0
1, 10788, Note_on_c, 0, 69, 96
1, 10788, Note_on_c, 5, 69, 96
1, 10797, Note_off_c, 1, 66, 0
1, 10797, Note_off_c, 2, 62, 0
1, 10797, Note_off_c, 3, 42, 0
1, 10797, Note_off_c, 4, 30, 0
1, 10797, Note_off_c, 6, 42, 0
1, 10798, Note_off_c, 0, 69, 0
1, 10798, Note_off_c, 5, 69, 0
1, 10800, Note_on_c, 0, 67, 96
1, 10800, Note_on_c, 1, 67, 96
1, 10800, Note_on_c, 2, 61, 96
1, 10800, Note_on_c, 3, 40, 96
1, 10800, Note_on_c, 4, 28, 96
1, 10800, Note_on_c, 5, 67, 96
1, 10800, Note_on_c, 6, 40, 96
1, 10810, Note_off_c, 5, 67, 0
1, 10812, Note_off_c, 0, 67, 0
1, 10812, Note_on_c, 0, 66, 96
1, 10812, Note_on_c, 5, 66, 96
1, 10821, Note_off_c, 1, 67, 0
1, 10821, Note_off_c, 2, 61, 0
1, 10821, Note_off_c, 3, 40, 0
1, 10821, Note_off_c, 4, 28, 0
1, 10821, Note_off_c, 6, 40, 0
1, 10822, Note_off_c, 0, 66, 0
1, 10822, Note_off_c, 5, 66, 0
1, 10824, Note_on_c, 0, 69, 96
1, 10824, Note_on_c, 1, 64, 96
1, 10824, Note_on_c, 2, 64, 96
1, 10824, Note_on_c, 3, 49, 96
1, 10824, Note_on_c, 4, 37, 96
1, 10824, Note_on_c, 5, 69, 96
1, 10824, Note_on_c, 6, 49, 96
1, 10834, Note_off_c, 5, 69, 0
1, 10836, Note_off_c, 0, 69, 0
1, 10836, Note_on_c, 0, 67, 96
1, 10836, Note_on_c, 5, 67, 96
1, 10845, Note_off_c, 1, 64, 0
1, 10845, Note_off_c, 2, 64, 0
1, 10845, Note_off_c, 3, 49, 0
1, 10845, Note_off_c, 4, 37, 0
1, 10845, Note_off_c, 6, 49, 0
1, 10846, Note_off_c, 0, 67, 0
1, 10846, Note_off_c, 5, 67, 0
1, 10848, Note_on_c, 0, 66, 96
1, 10848, Note_on_c, 1, 62, 96
1, 10848, Note_on_c, 2, 57, 96
1, 10848, Note_on_c, 3, 50, 96
1, 10848, Note_on_c, 4, 38, 96
1, 10848, Note_on_c, 5, 66, 96
1, 10848, Note_on_c, 6, 50, 96
1, 10858, Note_off_c, 5, 66, 0
1, 10860, Note_off_c, 0, 66, 0
1, 10860, Note_on_c, 0, 67, 96
1, 10860, Note_on_c, 5, 67, 96
1, 10869, Note_off_c, 1, 62, 0
1, 10869, Note_off_c, 2, 57, 0
1, 10869, Note_off_c, 3, 50, 0
1, 10869, Note_off_c, 4, 38, 0
1, 10869, Note_off_c, 6, 50, 0
1, 10870, Note_off_c, 0, 67, 0
1, 10870, Note_off_c, 5, 67, 0
1, 10872, Note_on_c, 0, 64, 96
1, 10872, Note_on_c, 1, 61, 96
1, 10872, Note_on_c, 2, 57, 96
1, 10872, Note_on_c, 3, 45, 96
1, 10872, Note_on_c, 4, 33, 96
1, 10872, Note_on_c, 5, 64, 96
1, 10872, Note_on_c, 6, 45, 96
1, 10882, Note_off_c, 5, 64, 0
1, 10884, Note_off_c, 0, 64, 0
1, 10884, Note_on_c, 0, 62, 96
1, 10884, Note_on_c, 5, 62, 96
1, 10893, Note_off_c, 1, 61, 0
1, 10893, Note_off_c, 3, 45, 0
1, 10893, Note_off_c, 4, 33, 0
1, 10893, Note_off_c, 6, 45, 0
1, 10894, Note_off_c, 5, 62, 0
1, 10896, Note_off_c, 0, 62, 0
1, 10896, Note_on_c, 0, 64, 96
1, 10896, Note_on_c, 1, 64, 96
1, 10896, Note_on_c, 3, 49, 96
1, 10896, Note_on_c, 4, 37, 96
1, 10896, Note_on_c, 5, 64, 96
1, 10896, Note_on_c, 6, 49, 96
1, 10903, Note_off_c, 2, 57, 0
1, 10906, Note_off_c, 0, 64, 0
1, 10906, Note_off_c, 5, 64, 0
1, 10908, Note_on_c, 0, 67, 96
1, 10908, Note_on_c, 2, 59, 96
1, 10908, Note_on_c, 5, 67, 96
1, 10917, Note_off_c, 1, 64, 0
1, 10917, Note_off_c, 3, 49, 0
1, 10917, Note_off_c, 4, 37, 0
1, 10917, Note_off_c, 6, 49, 0
1, 10918, Note_off_c, 0, 67, 0
1, 10918, Note_off_c, 2, 59, 0
1, 10918, Note_off_c, 5, 67, 0
1, 10920, Note_on_c, 0, 66, 96
1, 10920, Note_on_c, 1, 61, 96
1, 10920, Note_on_c, 2, 57, 96
1, 10920, Note_on_c, 3, 45, 96
1, 10920, Note_on_c, 4, 33, 96
1, 10920, Note_on_c, 5, 66, 96
1, 10920, Note_on_c, 6, 45, 96
1, 10930, Note_off_c, 0, 66, 0
1, 10930, Note_off_c, 2, 57, 0
1, 10930, Note_off_c, 5, 66, 0
1, 10932, Note_on_c, 0, 64, 96
1, 10932, Note_on_c, 2, 55, 96
1, 10932, Note_on_c, 5, 64, 96
1, 10941, Note_off_c, 1, 61, 0
1, 10941, Note_off_c, 3, 45, 0
1, 10941, Note_off_c, 4, 33, 0
1, 10941, Note_off_c, 6, 45, 0
1, 10942, Note_off_c, 0, 64, 0
1, 10942, Note_off_c, 2, 55, 0
1, 10942, Note_off_c, 5, 64, 0
1, 10944, Note_on_c, 0, 62, 96
1, 10944, Note_on_c, 1, 57, 96
1, 10944, Note_on_c, 2, 54, 96
1, 10944, Note_on_c, 3, 38, 96
1, 10944, Note_on_c, 4, 26, 96
1, 10944, Note_on_c, 5, 62, 96
1, 10944, Note_on_c, 6, 38, 96
1, 10954, Note_off_c, 5, 62, 0
1, 10956, Note_off_c, 0, 62, 0
1, 10956, Note_on_c, 0, 64, 96
1, 10956, Note_on_c, 5, 64, 96
1, 10965, Note_off_c, 1, 57, 0
1, 10965, Note_off_c, 2, 54, 0
1, 10965, Note_off_c, 3, 38, 0
1, 10965, Note_off_c, 4, 26, 0
1, 10965, Note_off_c, 6, 38, 0
1, 10966, Note_off_c, 5, 64, 0
1, 10968, Note_off_c, 0, 64, 0
1, 10968, Note_on_c, 0, 66, 96
1, 10968, Note_on_c, 1, 69, 96
1, 10968, Note_on_c, 2, 62, 96
1, 10968, Note_on_c, 3, 50, 96
1, 10968, Note_on_c, 4, 38, 96
1, 10968, Note_on_c, 5, 66, 96
1, 10968, Note_on_c, 6, 50, 96
1, 10978, Note_off_c, 5, 66, 0
1, 10980, Note_off_c, 0, 66, 0
1, 10980, Note_on_c, 0, 69, 96
1, 10980, Note_on_c, 5, 69, 96
1, 10989, Note_off_c, 1, 69, 0
1, 10989, Note_off_c, 2, 62, 0
1, 10989, Note_off_c, 3, 50, 0
1, 10989, Note_off_c, 4, 38, 0
1, 10989, Note_off_c, 6, 50, 0
1, 10990, Note_off_c, 0, 69, 0
1, 10990, Note_off_c, 5, 69, 0
1, 10992, Note_on_c, 0, 74, 96
1, 10992, Note_on_c, 1, 69, 96
1, 10992, Note_on_c, 2, 66, 96
1, 10992, Note_on_c, 3, 49, 96
1, 10992, Note_on_c, 4, 37, 96
1, 10992, Note_on_c, 5, 74, 96
1, 10992, Note_on_c, 6, 49, 96
1, 10998, Note_off_c, 0, 74, 0
1, 11013, Note_off_c, 1, 69, 0
1, 11013, Note_off_c, 2, 66, 0
1, 11013, Note_off_c, 3, 49, 0
1, 11013, Note_off_c, 4, 37, 0
1, 11013, Note_off_c, 5, 74, 0
1, 11013, Note_off_c, 6, 49, 0
1, 11016, Note_on_c, 0, 74, 96
1, 11016, Note_on_c, 1, 71, 96
1, 11016, Note_on_c, 2, 66, 96
1, 11016, Note_on_c, 3, 47, 96
1, 11016, Note_on_c, 4, 35, 96
1, 11016, Note_on_c, 5, 74, 96
1, 11016, Note_on_c, 6, 47, 96
1, 11026, Note_off_c, 5, 74, 0
1, 11028, Note_off_c, 0, 74, 0
1, 11028, Note_on_c, 0, 73, 96
1, 11028, Note_on_c, 5, 73, 96
1, 11037, Note_off_c, 1, 71, 0
1, 11037, Note_off_c, 3, 47, 0
1, 11037, Note_off_c, 4, 35, 0
1, 11037, Note_off_c, 6, 47, 0
1, 11038, Note_off_c, 0, 73, 0
1, 11038, Note_off_c, 5, 73, 0
1, 11040, Note_on_c, 0, 76, 96
1, 11040, Note_on_c, 1, 66, 96
1, 11040, Note_on_c, 3, 45, 96
1, 11040, Note_on_c, 4, 33, 96
1, 11040, Note_on_c, 5, 76, 96
1, 11040, Note_on_c, 6, 45, 96
1, 11050, Note_off_c, 5, 76, 0
1, 11052, Note_off_c, 0, 76, 0
1, 11052, Note_on_c, 0, 74, 96
1, 11052, Note_on_c, 5, 74, 96
1, 11058, Note_off_c, 2, 66, 0
1, 11061, Note_off_c, 1, 66, 0
1, 11061, Note_off_c, 3, 45, 0
1, 11061, Note_off_c, 4, 33, 0
1, 11061, Note_off_c, 6, 45, 0
1, 11062, Note_off_c, 0, 74, 0
1, 11062, Note_off_c, 5, 74, 0
1, 11064, Note_on_c, 0, 73, 96
1, 11064, Note_on_c, 1, 67, 96
1, 11064, Note_on_c, 2, 64, 96
1, 11064, Note_on_c, 3, 43, 96
1, 11064, Note_on_c, 4, 31, 96
1, 11064, Note_on_c, 5, 73, 96
1, 11064, Note_on_c, 6, 43, 96
1, 11074, Note_off_c, 5, 73, 0
1, 11076, Note_off_c, 0, 73, 0
1, 11076, Note_on_c, 0, 71, 96
1, 11076, Note_on_c, 5, 71, 96
1, 11085, Note_off_c, 1, 67, 0
1, 11085, Note_off_c, 2, 64, 0
1, 11085, Note_off_c, 3, 43, 0
1, 11085, Note_off_c, 4, 31, 0
1, 11085, Note_off_c, 6, 43, 0
1, 11086, Note_off_c, 0, 71, 0
1, 11086, Note_off_c, 5, 71, 0
1, 11088, Note_on_c, 0, 62, 96
1, 11088, Note_on_c, 1, 69, 96
1, 11088, Note_on_c, 2, 62, 96
1, 11088, Note_on_c, 3, 42, 96
1, 11088, Note_on_c, 4, 30, 96
1, 11088, Note_on_c, 5, 62, 96
1, 11088, Note_on_c, 6, 42, 96
1, 11098, Note_off_c, 5, 62, 0
1, 11100, Note_off_c, 0, 62, 0
1, 11100, Note_on_c, 0, 64, 96
1, 11100, Note_on_c, 5, 64, 96
1, 11109, Note_off_c, 1, 69, 0
1, 11109, Note_off_c, 2, 62, 0
1, 11109, Note_off_c, 3, 42, 0
1, 11109, Note_off_c, 4, 30, 0
1, 11109, Note_off_c, 6, 42, 0
1, 11110, Note_off_c, 5, 64, 0
1, 11112, Note_off_c, 0, 64, 0
1, 11112, Note_on_c, 0, 66, 96
1, 11112, Note_on_c, 1, 72, 96
1, 11112, Note_on_c, 2, 57, 96
1, 11112, Note_on_c, 3, 40, 96
1, 11112, Note_on_c, 4, 28, 96
1, 11112, Note_on_c, 5, 66, 96
1, 11112, Note_on_c, 6, 40, 96
1, 11122, Note_off_c, 5, 66, 0
1, 11124, Note_off_c, 0, 66, 0
1, 11124, Note_on_c, 0, 69, 96
1, 11124, Note_on_c, 5, 69, 96
1, 11133, Note_off_c, 1, 72, 0
1, 11133, Note_off_c, 2, 57, 0
1, 11133, Note_off_c, 3, 40, 0
1, 11133, Note_off_c, 4, 28, 0
1, 11133, Note_off_c, 6, 40, 0
1, 11134, Note_off_c, 0, 69, 0
1, 11134, Note_off_c, 5, 69, 0
1, 11136, Note_on_c, 0, 72, 96
1, 11136, Note_on_c, 1, 69, 96
1, 11136, Note_on_c, 2, 54, 96
1, 11136, Note_on_c, 3, 38, 96
1, 11136, Note_on_c, 4, 26, 96
1, 11136, Note_on_c, 5, 72, 96
1, 11136, Note_on_c, 6, 38, 96
1, 11142, Note_off_c, 0, 72, 0
1, 11157, Note_off_c, 1, 69, 0
1, 11157, Note_off_c, 2, 54, 0
1, 11157, Note_off_c, 3, 38, 0
1, 11157, Note_off_c, 4, 26, 0
1, 11157, Note_off_c, 5, 72, 0
1, 11157, Note_off_c, 6, 38, 0
1, 11160, Note_on_c, 0, 72, 96
1, 11160, Note_on_c, 1, 66, 96
1, 11160, Note_on_c, 2, 50, 96
1, 11160, Note_on_c, 3, 50, 96
1, 11160, Note_on_c, 4, 38, 96
1, 11160, Note_on_c, 5, 72, 96
1, 11160, Note_on_c, 6, 50, 96
1, 11181, Note_off_c, 1, 66, 0
1, 11181, Note_off_c, 3, 50, 0
1, 11181, Note_off_c, 4, 38, 0
1, 11181, Note_off_c, 6, 50, 0
1, 11184, Note_on_c, 1, 67, 96
1, 11184, Note_on_c, 3, 52, 96
1, 11184, Note_on_c, 4, 40, 96
1, 11184, Note_on_c, 6, 52, 96
1, 11205, Note_off_c, 1, 67, 0
1, 11205, Note_off_c, 3, 52, 0
1, 11205, Note_off_c, 4, 40, 0
1, 11205, Note_off_c, 6, 52, 0
1, 11208, Note_on_c, 1, 69, 96
1, 11208, Note_on_c, 3, 54, 96
1, 11208, Note_on_c, 4, 42, 96
1, 11208, Note_on_c, 6, 54, 96
1, 11223, Note_off_c, 0, 72, 0
1, 11223, Note_off_c, 2, 50, 0
1, 11223, Note_off_c, 5, 72, 0
1, 11229, Note_off_c, 1, 69, 0
1, 11229, Note_off_c, 3, 54, 0
1, 11229, Note_off_c, 4, 42, 0
1, 11229, Note_off_c, 6, 54, 0
1, 11232, Note_on_c, 0, 71, 96
1, 11232, Note_on_c, 1, 67, 96
1, 11232, Note_on_c, 2, 62, 96
1, 11232, Note_on_c, 3, 55, 96
1, 11232, Note_on_c, 4, 43, 96
1, 11232, Note_on_c, 5, 71, 96
1, 11232, Note_on_c, 6, 55, 96
1, 11242, Note_off_c, 5, 71, 0
1, 11244, Note_off_c, 0, 71, 0
1, 11244, Note_on_c, 0, 74, 96
1, 11244, Note_on_c, 5, 74, 96
1, 11253, Note_off_c, 1, 67, 0
1, 11253, Note_off_c, 2, 62, 0
1, 11253, Note_off_c, 3, 55, 0
1, 11253, Note_off_c, 4, 43, 0
1, 11253, Note_off_c, 6, 55, 0
1, 11254, Note_off_c, 0, 74, 0
1, 11254, Note_off_c, 5, 74, 0
1, 11256, Note_on_c, 0, 79, 96
1, 11256, Note_on_c, 1, 71, 96
1, 11256, Note_on_c, 2, 64, 96
1, 11256, Note_on_c, 3, 52, 96
1, 11256, Note_on_c, 4, 40, 96
1, 11256, Note_on_c, 5, 79, 96
1, 11256, Note_on_c, 6, 52, 96
1, 11266, Note_off_c, 5, 79, 0
1, 11268, Note_off_c, 0, 79, 0
1, 11268, Note_on_c, 0, 78, 96
1, 11268, Note_on_c, 5, 78, 96
1, 11277, Note_off_c, 1, 71, 0
1, 11277, Note_off_c, 2, 64, 0
1, 11277, Note_off_c, 3, 52, 0
1, 11277, Note_off_c, 4, 40, 0
1, 11277, Note_off_c, 6, 52, 0
1, 11278, Note_off_c, 0, 78, 0
1, 11278, Note_off_c, 5, 78, 0
1, 11280, Note_on_c, 0, 76, 96
1, 11280, Note_on_c, 1, 71, 96
1, 11280, Note_on_c, 2, 64, 96
1, 11280, Note_on_c, 3, 55, 96
1, 11280, Note_on_c, 4, 43, 96
1, 11280, Note_on_c, 5, 76, 96
1, 11280, Note_on_c, 6, 55, 96
1, 11290, Note_off_c, 5, 76, 0
1, 11292, Note_off_c, 0, 76, 0
1, 11292, Note_on_c, 0, 74, 96
1, 11292, Note_on_c, 5, 74, 96
1, 11301, Note_off_c, 1, 71, 0
1, 11301, Note_off_c, 2, 64, 0
1, 11301, Note_off_c, 3, 55, 0
1, 11301, Note_off_c, 4, 43, 0
1, 11301, Note_off_c, 6, 55, 0
1, 11302, Note_off_c, 0, 74, 0
1, 11302, Note_off_c, 5, 74, 0
1, 11304, Note_on_c, 0, 73, 96
1, 11304, Note_on_c, 1, 69, 96
1, 11304, Note_on_c, 2, 64, 96
1, 11304, Note_on_c, 3, 57, 96
1, 11304, Note_on_c, 4, 45, 96
1, 11304, Note_on_c, 5, 73, 96
1, 11304, Note_on_c, 6, 57, 96
1, 11314, Note_off_c, 5, 73, 0
1, 11316, Note_off_c, 0, 73, 0
1, 11316, Note_on_c, 0, 71, 96
1, 11316, Note_on_c, 5, 71, 96
1, 11325, Note_off_c, 1, 69, 0
1, 11325, Note_off_c, 2, 64, 0
1, 11325, Note_off_c, 3, 57, 0
1, 11325, Note_off_c, 4, 45, 0
1, 11325, Note_off_c, 6, 57, 0
1, 11326, Note_off_c, 0, 71, 0
1, 11326, Note_off_c, 5, 71, 0
1, 11328, Note_on_c, 0, 74, 96
1, 11328, Note_on_c, 1, 69, 96
1, 11328, Note_on_c, 2, 64, 96
1, 11328, Note_on_c, 3, 59, 96
1, 11328, Note_on_c, 4, 47, 96
1, 11328, Note_on_c, 5, 74, 96
1, 11328, Note_on_c, 6, 59, 96
1, 11338, Note_off_c, 5, 74, 0
1, 11340, Note_off_c, 0, 74, 0
1, 11340, Note_on_c, 0, 73, 96
1, 11340, Note_on_c, 5, 73, 96
1, 11349, Note_off_c, 1, 69, 0
1, 11349, Note_off_c, 2, 64, 0
1, 11349, Note_off_c, 3, 59, 0
1, 11349, Note_off_c, 4, 47, 0
1, 11349, Note_off_c, 6, 59, 0
1, 11350, Note_off_c, 0, 73, 0
1, 11350, Note_off_c, 5, 73, 0
1, 11352, Note_on_c, 0, 71, 96
1, 11352, Note_on_c, 1, 69, 96
1, 11352, Note_on_c, 2, 64, 96
1, 11352, Note_on_c, 3, 61, 96
1, 11352, Note_on_c, 4, 49, 96
1, 11352, Note_on_c, 5, 71, 96
1, 11352, Note_on_c, 6, 61, 96
1, 11362, Note_off_c, 5, 71, 0
1, 11364, Note_off_c, 0, 71, 0
1, 11364, Note_on_c, 0, 69, 96
1, 11364, Note_on_c, 5, 69, 96
1, 11373, Note_off_c, 1, 69, 0
1, 11373, Note_off_c, 2, 64, 0
1, 11373, Note_off_c, 3, 61, 0
1, 11373, Note_off_c, 4, 49, 0
1, 11373, Note_off_c, 6, 61, 0
1, 11374, Note_off_c, 0, 69, 0
1, 11374, Note_off_c, 5, 69, 0
1, 11376, Note_on_c, 0, 78, 96
1, 11376, Note_on_c, 1, 69, 96
1, 11376, Note_on_c, 2, 62, 96
1, 11376, Note_on_c, 3, 62, 96
1, 11376, Note_on_c, 4, 50, 96
1, 11376, Note_on_c, 5, 78, 96
1, 11376, Note_on_c, 6, 62, 96
1, 11397, Note_off_c, 0, 78, 0
1, 11397, Note_off_c, 1, 69, 0
1, 11397, Note_off_c, 2, 62, 0
1, 11397, Note_off_c, 3, 62, 0
1, 11397, Note_off_c, 4, 50, 0
1, 11397, Note_off_c, 5, 78, 0
1, 11397, Note_off_c, 6, 62, 0
1, 11400, Note_on_c, 0, 79, 96
1, 11400, Note_on_c, 1, 71, 96
1, 11400, Note_on_c, 2, 62, 96
1, 11400, Note_on_c, 3, 55, 96
1, 11400, Note_on_c, 4, 43, 96
1, 11400, Note_on_c, 5, 79, 96
1, 11400, Note_on_c, 6, 55, 96
1, 11421, Note_off_c, 0, 79, 0
1, 11421, Note_off_c, 1, 71, 0
1, 11421, Note_off_c, 2, 62, 0
1, 11421, Note_off_c, 3, 55, 0
1, 11421, Note_off_c, 4, 43, 0
1, 11421, Note_off_c, 5, 79, 0
1, 11421, Note_off_c, 6, 55, 0
1, 11424, Note_on_c, 0, 76, 96
1, 11424, Note_on_c, 1, 69, 96
1, 11424, Note_on_c, 2, 61, 96
1, 11424, Note_on_c, 3, 57, 96
1, 11424, Note_on_c, 4, 45, 96
1, 11424, Note_on_c, 5, 76, 96
1, 11424, Note_on_c, 6, 57, 96
1, 11445, Note_off_c, 0, 76, 0
1, 11445, Note_off_c, 1, 69, 0
1, 11445, Note_off_c, 2, 61, 0
1, 11445, Note_off_c, 3, 57, 0
1, 11445, Note_off_c, 4, 45, 0
1, 11445, Note_off_c, 5, 76, 0
1, 11445, Note_off_c, 6, 57, 0
1, 11448, Note_on_c, 0, 74, 96
1, 11448, Note_on_c, 1, 69, 96
1, 11448, Note_on_c, 2, 66, 96
1, 11448, Note_on_c, 3, 50, 96
1, 11448, Note_on_c, 4, 38, 96
1, 11448, Note_on_c, 5, 74, 96
1, 11448, Note_on_c, 6, 50, 96
1, 11520, Note_off_c, 0, 74, 0
1, 11520, Note_off_c, 1, 69, 0
1, 11520, Note_off_c, 2, 66, 0
1, 11520, Note_off_c, 3, 50, 0
1, 11520, Note_off_c, 4, 38, 0
1, 11520, Note_off_c, 5, 74, 0
1, 11520, Note_off_c, 6, 50, 0
1, 11808, End_track
0, 0, End_of_file
