0, 0, Header, 1, 4, 480
1, 0, Start_track
1, 0, Title_t, "untitled"
1, 0, Text_t, "Quaerendo 1\012"
1, 0, Text_t, "Voce 1nd\012"
1, 0, Text_t, "Voce 20-\012"
1, 0, Time_signature, 4, 2, 24, 8
1, 0, Key_signature, 0, "major"
1, 0, Tempo, 500000
1, 0, End_track
2, 0, Start_track
2, 0, Program_c, 0, 0
2, 6240, Note_on_c, 0, 60, 57
2, 6480, Note_on_c, 0, 60, 0
2, 6480, Note_on_c, 0, 62, 65
2, 6720, Note_on_c, 0, 62, 0
2, 6720, Note_on_c, 0, 63, 58
2, 7200, Note_on_c, 0, 63, 0
2, 7200, Note_on_c, 0, 64, 60
2, 7680, Note_on_c, 0, 64, 0
2, 7680, Note_on_c, 0, 65, 67
2, 8160, Note_on_c, 0, 65, 0
2, 8160, Note_on_c, 0, 66, 74
2, 8640, Note_on_c, 0, 66, 0
2, 8640, Note_on_c, 0, 67, 78
2, 9600, Note_on_c, 0, 67, 0
2, 9600, Note_on_c, 0, 68, 75
2, 10560, Note_on_c, 0, 68, 0
2, 10560, Note_on_c, 0, 59, 67
2, 11520, Note_on_c, 0, 59, 0
2, 12000, Note_on_c, 0, 67, 75
2, 12480, Note_on_c, 0, 67, 0
2, 12480, Note_on_c, 0, 66, 68
2, 12960, Note_on_c, 0, 66, 0
2, 12960, Note_on_c, 0, 65, 65
2, 13920, Note_on_c, 0, 65, 0
2, 13920, Note_on_c, 0, 64, 53
2, 14400, Note_on_c, 0, 64, 0
2, 14400, Note_on_c, 0, 63, 60
2, 14880, Note_on_c, 0, 63, 0
2, 14880, Note_on_c, 0, 62, 62
2, 15840, Note_on_c, 0, 62, 0
2, 15840, Note_on_c, 0, 60, 59
2, 16320, Note_on_c, 0, 60, 0
2, 16320, Note_on_c, 0, 59, 61
2, 16800, Note_on_c, 0, 59, 0
2, 16800, Note_on_c, 0, 55, 65
2, 17280, Note_on_c, 0, 55, 0
2, 17280, Note_on_c, 0, 60, 68
2, 17760, Note_on_c, 0, 60, 0
2, 17760, Note_on_c, 0, 65, 61
2, 18240, Note_on_c, 0, 65, 0
2, 18240, Note_on_c, 0, 63, 60
2, 19200, Note_on_c, 0, 63, 0
2, 19200, Note_on_c, 0, 63, 57
2, 19280, Note_on_c, 0, 63, 0
2, 19280, Note_on_c, 0, 62, 56
2, 19360, Note_on_c, 0, 62, 0
2, 19360, Note_on_c, 0, 63, 54
2, 19440, Note_on_c, 0, 63, 0
2, 19440, Note_on_c, 0, 62, 61
2, 19520, Note_on_c, 0, 62, 0
2, 19520, Note_on_c, 0, 63, 55
2, 19600, Note_on_c, 0, 63, 0
2, 19600, Note_on_c, 0, 62, 71
2, 19680, Note_on_c, 0, 62, 0
2, 19680, Note_on_c, 0, 60, 61
2, 19920, Note_on_c, 0, 60, 0
2, 19920, Note_on_c, 0, 62, 65
2, 20160, Note_on_c, 0, 62, 0
2, 20160, Note_on_c, 0, 60, 66
2, 20400, Note_on_c, 0, 60, 0
2, 20400, Note_on_c, 0, 72, 65
2, 20640, Note_on_c, 0, 72, 0
2, 20640, Note_on_c, 0, 70, 60
2, 20880, Note_on_c, 0, 70, 0
2, 20880, Note_on_c, 0, 68, 61
2, 21120, Note_on_c, 0, 68, 0
2, 21120, Note_on_c, 0, 67, 70
2, 21360, Note_on_c, 0, 67, 0
2, 21360, Note_on_c, 0, 65, 51
2, 21600, Note_on_c, 0, 65, 0
2, 21600, Note_on_c, 0, 63, 57
2, 21840, Note_on_c, 0, 63, 0
2, 21840, Note_on_c, 0, 67, 64
2, 22080, Note_on_c, 0, 67, 0
2, 22080, Note_on_c, 0, 65, 65
2, 22320, Note_on_c, 0, 65, 0
2, 22320, Note_on_c, 0, 67, 62
2, 22560, Note_on_c, 0, 67, 0
2, 22560, Note_on_c, 0, 65, 65
2, 22800, Note_on_c, 0, 65, 0
2, 22800, Note_on_c, 0, 63, 54
2, 23040, Note_on_c, 0, 63, 0
2, 23040, Note_on_c, 0, 62, 64
2, 23280, Note_on_c, 0, 62, 0
2, 23280, Note_on_c, 0, 63, 58
2, 23520, Note_on_c, 0, 63, 0
2, 23520, Note_on_c, 0, 65, 54
2, 23760, Note_on_c, 0, 65, 0
2, 23760, Note_on_c, 0, 62, 60
2, 24000, Note_on_c, 0, 62, 0
2, 24000, Note_on_c, 0, 63, 54
2, 24240, Note_on_c, 0, 63, 0
2, 24240, Note_on_c, 0, 60, 65
2, 24480, Note_on_c, 0, 60, 0
2, 24480, Note_on_c, 0, 57, 51
2, 24720, Note_on_c, 0, 57, 0
2, 24720, Note_on_c, 0, 60, 66
2, 24960, Note_on_c, 0, 60, 0
2, 24960, Note_on_c, 0, 54, 64
2, 25440, Note_on_c, 0, 54, 0
2, 25440, Note_on_c, 0, 55, 62
2, 25680, Note_on_c, 0, 55, 0
2, 25680, Note_on_c, 0, 57, 60
2, 25920, Note_on_c, 0, 57, 0
2, 25920, Note_on_c, 0, 59, 61
2, 26160, Note_on_c, 0, 59, 0
2, 26160, Note_on_c, 0, 60, 59
2, 26400, Note_on_c, 0, 60, 0
2, 26400, Note_on_c, 0, 62, 66
2, 26640, Note_on_c, 0, 62, 0
2, 26640, Note_on_c, 0, 63, 62
2, 26880, Note_on_c, 0, 63, 0
2, 26880, Note_on_c, 0, 65, 60
2, 27360, Note_on_c, 0, 65, 0
2, 27360, Note_on_c, 0, 63, 54
2, 27600, Note_on_c, 0, 63, 0
2, 27600, Note_on_c, 0, 62, 64
2, 27840, Note_on_c, 0, 62, 0
2, 27840, Note_on_c, 0, 63, 56
2, 28080, Note_on_c, 0, 63, 0
2, 28080, Note_on_c, 0, 62, 61
2, 28320, Note_on_c, 0, 62, 0
2, 28320, Note_on_c, 0, 60, 56
2, 28560, Note_on_c, 0, 60, 0
2, 28560, Note_on_c, 0, 63, 58
2, 28800, Note_on_c, 0, 63, 0
2, 28800, Note_on_c, 0, 62, 69
2, 29280, Note_on_c, 0, 62, 0
2, 29280, Note_on_c, 0, 60, 64
2, 29520, Note_on_c, 0, 60, 0
2, 29520, Note_on_c, 0, 59, 67
2, 29760, Note_on_c, 0, 59, 0
2, 29760, Note_on_c, 0, 60, 64
2, 30240, Note_on_c, 0, 60, 0
2, 30240, Note_on_c, 0, 62, 70
2, 30720, Note_on_c, 0, 62, 0
2, 30720, Note_on_c, 0, 55, 79
2, 31680, Note_on_c, 0, 55, 0
2, 31680, Note_on_c, 0, 54, 65
2, 32640, Note_on_c, 0, 54, 0
2, 32880, Note_on_c, 0, 51, 53
2, 33120, Note_on_c, 0, 51, 0
2, 33120, Note_on_c, 0, 54, 61
2, 33360, Note_on_c, 0, 54, 0
2, 33360, Note_on_c, 0, 55, 65
2, 33600, Note_on_c, 0, 55, 0
2, 33840, Note_on_c, 0, 57, 57
2, 34080, Note_on_c, 0, 57, 0
2, 34080, Note_on_c, 0, 59, 58
2, 34320, Note_on_c, 0, 59, 0
2, 34320, Note_on_c, 0, 60, 66
2, 34560, Note_on_c, 0, 60, 0
2, 34800, Note_on_c, 0, 59, 53
2, 35040, Note_on_c, 0, 59, 0
2, 35040, Note_on_c, 0, 60, 57
2, 35280, Note_on_c, 0, 60, 0
2, 35280, Note_on_c, 0, 62, 64
2, 35520, Note_on_c, 0, 62, 0
2, 35520, Note_on_c, 0, 63, 57
2, 36000, Note_on_c, 0, 63, 0
2, 36000, Note_on_c, 0, 64, 67
2, 36480, Note_on_c, 0, 64, 0
2, 36480, Note_on_c, 0, 65, 67
2, 36960, Note_on_c, 0, 65, 0
2, 36960, Note_on_c, 0, 66, 74
2, 37440, Note_on_c, 0, 66, 0
2, 37440, Note_on_c, 0, 67, 78
2, 38400, Note_on_c, 0, 67, 0
2, 38400, Note_on_c, 0, 68, 75
2, 39360, Note_on_c, 0, 68, 0
2, 39360, Note_on_c, 0, 59, 67
2, 40320, Note_on_c, 0, 59, 0
2, 40800, Note_on_c, 0, 67, 75
2, 41280, Note_on_c, 0, 67, 0
2, 41280, Note_on_c, 0, 66, 68
2, 41760, Note_on_c, 0, 66, 0
2, 41760, Note_on_c, 0, 65, 65
2, 42720, Note_on_c, 0, 65, 0
2, 42720, Note_on_c, 0, 64, 53
2, 43200, Note_on_c, 0, 64, 0
2, 43200, Note_on_c, 0, 63, 60
2, 43680, Note_on_c, 0, 63, 0
2, 43680, Note_on_c, 0, 62, 62
2, 44640, Note_on_c, 0, 62, 0
2, 44640, Note_on_c, 0, 60, 59
2, 45120, Note_on_c, 0, 60, 0
2, 45120, Note_on_c, 0, 59, 61
2, 45600, Note_on_c, 0, 59, 0
2, 45600, Note_on_c, 0, 55, 65
2, 46080, Note_on_c, 0, 55, 0
2, 46080, Note_on_c, 0, 60, 68
2, 46560, Note_on_c, 0, 60, 0
2, 46560, Note_on_c, 0, 65, 61
2, 47040, Note_on_c, 0, 65, 0
2, 47040, Note_on_c, 0, 63, 60
2, 48000, Note_on_c, 0, 63, 0
2, 48000, Note_on_c, 0, 63, 57
2, 48080, Note_on_c, 0, 63, 0
2, 48080, Note_on_c, 0, 62, 56
2, 48160, Note_on_c, 0, 62, 0
2, 48160, Note_on_c, 0, 63, 54
2, 48240, Note_on_c, 0, 63, 0
2, 48240, Note_on_c, 0, 62, 61
2, 48320, Note_on_c, 0, 62, 0
2, 48320, Note_on_c, 0, 63, 55
2, 48400, Note_on_c, 0, 63, 0
2, 48400, Note_on_c, 0, 62, 71
2, 48480, Note_on_c, 0, 62, 0
2, 48480, Note_on_c, 0, 60, 61
2, 48720, Note_on_c, 0, 60, 0
2, 48720, Note_on_c, 0, 62, 65
2, 48960, Note_on_c, 0, 62, 0
2, 48960, Note_on_c, 0, 60, 66
2, 49200, Note_on_c, 0, 60, 0
2, 49200, Note_on_c, 0, 72, 65
2, 49440, Note_on_c, 0, 72, 0
2, 49440, Note_on_c, 0, 70, 60
2, 49680, Note_on_c, 0, 70, 0
2, 49680, Note_on_c, 0, 68, 61
2, 49920, Note_on_c, 0, 68, 0
2, 49920, Note_on_c, 0, 67, 70
2, 50160, Note_on_c, 0, 67, 0
2, 50160, Note_on_c, 0, 65, 51
2, 50400, Note_on_c, 0, 65, 0
2, 50400, Note_on_c, 0, 63, 57
2, 50640, Note_on_c, 0, 63, 0
2, 50640, Note_on_c, 0, 67, 64
2, 50880, Note_on_c, 0, 67, 0
2, 50880, Note_on_c, 0, 65, 65
2, 51120, Note_on_c, 0, 65, 0
2, 51120, Note_on_c, 0, 67, 62
2, 51360, Note_on_c, 0, 67, 0
2, 51360, Note_on_c, 0, 65, 65
2, 51600, Note_on_c, 0, 65, 0
2, 51600, Note_on_c, 0, 63, 54
2, 51840, Note_on_c, 0, 63, 0
2, 51840, Note_on_c, 0, 62, 64
2, 52080, Note_on_c, 0, 62, 0
2, 52080, Note_on_c, 0, 63, 58
2, 52320, Note_on_c, 0, 63, 0
2, 52320, Note_on_c, 0, 65, 54
2, 52560, Note_on_c, 0, 65, 0
2, 52560, Note_on_c, 0, 62, 60
2, 52800, Note_on_c, 0, 62, 0
2, 52800, Note_on_c, 0, 63, 54
2, 53040, Note_on_c, 0, 63, 0
2, 53040, Note_on_c, 0, 60, 65
2, 53280, Note_on_c, 0, 60, 0
2, 53280, Note_on_c, 0, 57, 51
2, 53520, Note_on_c, 0, 57, 0
2, 53520, Note_on_c, 0, 60, 66
2, 53760, Note_on_c, 0, 60, 0
2, 53760, Note_on_c, 0, 54, 64
2, 54240, Note_on_c, 0, 54, 0
2, 54240, Note_on_c, 0, 55, 62
2, 54480, Note_on_c, 0, 55, 0
2, 54480, Note_on_c, 0, 57, 60
2, 54720, Note_on_c, 0, 57, 0
2, 54720, Note_on_c, 0, 59, 61
2, 54960, Note_on_c, 0, 59, 0
2, 54960, Note_on_c, 0, 60, 59
2, 55200, Note_on_c, 0, 60, 0
2, 55200, Note_on_c, 0, 62, 66
2, 55440, Note_on_c, 0, 62, 0
2, 55440, Note_on_c, 0, 63, 62
2, 55680, Note_on_c, 0, 63, 0
2, 55680, Note_on_c, 0, 65, 60
2, 56160, Note_on_c, 0, 65, 0
2, 56160, Note_on_c, 0, 63, 54
2, 56400, Note_on_c, 0, 63, 0
2, 56400, Note_on_c, 0, 62, 64
2, 56640, Note_on_c, 0, 62, 0
2, 56640, Note_on_c, 0, 63, 56
2, 56880, Note_on_c, 0, 63, 0
2, 56880, Note_on_c, 0, 62, 61
2, 57120, Note_on_c, 0, 62, 0
2, 57120, Note_on_c, 0, 60, 56
2, 57360, Note_on_c, 0, 60, 0
2, 57360, Note_on_c, 0, 63, 58
2, 57600, Note_on_c, 0, 63, 0
2, 57600, Note_on_c, 0, 62, 69
2, 58080, Note_on_c, 0, 62, 0
2, 58080, Note_on_c, 0, 60, 64
2, 58320, Note_on_c, 0, 60, 0
2, 58320, Note_on_c, 0, 59, 67
2, 58560, Note_on_c, 0, 59, 0
2, 58560, Note_on_c, 0, 60, 64
2, 59040, Note_on_c, 0, 60, 0
2, 59040, Note_on_c, 0, 62, 70
2, 59520, Note_on_c, 0, 62, 0
2, 59520, Note_on_c, 0, 55, 79
2, 60480, Note_on_c, 0, 55, 0
2, 60480, Note_on_c, 0, 54, 65
2, 61440, Note_on_c, 0, 54, 0
2, 61680, Note_on_c, 0, 51, 53
2, 61920, Note_on_c, 0, 51, 0
2, 61920, Note_on_c, 0, 54, 61
2, 62160, Note_on_c, 0, 54, 0
2, 62160, Note_on_c, 0, 55, 65
2, 62400, Note_on_c, 0, 55, 0
2, 62640, Note_on_c, 0, 57, 57
2, 62880, Note_on_c, 0, 57, 0
2, 62880, Note_on_c, 0, 59, 58
2, 63120, Note_on_c, 0, 59, 0
2, 63120, Note_on_c, 0, 60, 66
2, 63360, Note_on_c, 0, 60, 0
2, 63600, Note_on_c, 0, 59, 53
2, 63840, Note_on_c, 0, 59, 0
2, 63840, Note_on_c, 0, 60, 57
2, 64080, Note_on_c, 0, 60, 0
2, 64080, Note_on_c, 0, 62, 64
2, 64320, Note_on_c, 0, 62, 0
2, 64320, Note_on_c, 0, 63, 57
2, 64800, Note_on_c, 0, 63, 0
2, 64800, Note_on_c, 0, 64, 67
2, 65280, Note_on_c, 0, 64, 0
2, 65280, Note_on_c, 0, 65, 67
2, 65760, Note_on_c, 0, 65, 0
2, 65760, Note_on_c, 0, 66, 74
2, 66240, Note_on_c, 0, 66, 0
2, 66240, Note_on_c, 0, 67, 78
2, 67200, Note_on_c, 0, 67, 0
2, 67200, Note_on_c, 0, 68, 75
2, 68160, Note_on_c, 0, 68, 0
2, 68160, Note_on_c, 0, 59, 67
2, 69120, Note_on_c, 0, 59, 0
2, 69600, Note_on_c, 0, 67, 75
2, 70080, Note_on_c, 0, 67, 0
2, 70080, Note_on_c, 0, 66, 68
2, 70560, Note_on_c, 0, 66, 0
2, 70560, Note_on_c, 0, 65, 65
2, 71520, Note_on_c, 0, 65, 0
2, 71520, Note_on_c, 0, 64, 53
2, 72000, Note_on_c, 0, 64, 0
2, 72000, Note_on_c, 0, 63, 60
2, 72480, Note_on_c, 0, 63, 0
2, 72480, Note_on_c, 0, 62, 62
2, 73440, Note_on_c, 0, 62, 0
2, 73440, Note_on_c, 0, 60, 59
2, 73920, Note_on_c, 0, 60, 0
2, 73920, Note_on_c, 0, 59, 61
2, 74400, Note_on_c, 0, 59, 0
2, 74400, Note_on_c, 0, 55, 65
2, 74880, Note_on_c, 0, 55, 0
2, 74880, Note_on_c, 0, 60, 68
2, 75360, Note_on_c, 0, 60, 0
2, 75360, Note_on_c, 0, 65, 61
2, 75840, Note_on_c, 0, 65, 0
2, 75840, Note_on_c, 0, 63, 60
2, 76800, Note_on_c, 0, 63, 0
2, 76800, Note_on_c, 0, 63, 57
2, 76880, Note_on_c, 0, 63, 0
2, 76880, Note_on_c, 0, 62, 56
2, 76960, Note_on_c, 0, 62, 0
2, 76960, Note_on_c, 0, 63, 54
2, 77040, Note_on_c, 0, 63, 0
2, 77040, Note_on_c, 0, 62, 61
2, 77120, Note_on_c, 0, 62, 0
2, 77120, Note_on_c, 0, 63, 55
2, 77200, Note_on_c, 0, 63, 0
2, 77200, Note_on_c, 0, 62, 71
2, 77280, Note_on_c, 0, 62, 0
2, 77280, Note_on_c, 0, 60, 61
2, 77520, Note_on_c, 0, 60, 0
2, 77520, Note_on_c, 0, 62, 65
2, 77760, Note_on_c, 0, 62, 0
2, 77760, Note_on_c, 0, 60, 66
2, 78000, Note_on_c, 0, 60, 0
2, 78000, Note_on_c, 0, 72, 65
2, 78240, Note_on_c, 0, 72, 0
2, 78240, Note_on_c, 0, 70, 60
2, 78480, Note_on_c, 0, 70, 0
2, 78480, Note_on_c, 0, 68, 61
2, 78720, Note_on_c, 0, 68, 0
2, 78720, Note_on_c, 0, 67, 70
2, 78960, Note_on_c, 0, 67, 0
2, 78960, Note_on_c, 0, 65, 51
2, 79200, Note_on_c, 0, 65, 0
2, 79200, Note_on_c, 0, 63, 57
2, 79440, Note_on_c, 0, 63, 0
2, 79440, Note_on_c, 0, 67, 64
2, 79680, Note_on_c, 0, 67, 0
2, 79680, Note_on_c, 0, 65, 65
2, 79920, Note_on_c, 0, 65, 0
2, 79920, Note_on_c, 0, 67, 62
2, 80160, Note_on_c, 0, 67, 0
2, 80160, Note_on_c, 0, 65, 65
2, 80400, Note_on_c, 0, 65, 0
2, 80400, Note_on_c, 0, 63, 54
2, 80640, Note_on_c, 0, 63, 0
2, 80640, Note_on_c, 0, 62, 64
2, 80880, Note_on_c, 0, 62, 0
2, 80880, Note_on_c, 0, 63, 58
2, 81120, Note_on_c, 0, 63, 0
2, 81120, Note_on_c, 0, 65, 54
2, 81360, Note_on_c, 0, 65, 0
2, 81360, Note_on_c, 0, 62, 60
2, 81600, Note_on_c, 0, 62, 0
2, 81600, Note_on_c, 0, 63, 62
2, 82560, Note_on_c, 0, 63, 0
2, 82560, End_track
3, 0, Start_track
3, 1440, Note_on_c, 0, 50, 65
3, 1680, Note_on_c, 0, 50, 0
3, 1680, Note_on_c, 0, 48, 71
3, 1920, Note_on_c, 0, 48, 0
3, 1920, Note_on_c, 0, 47, 62
3, 2400, Note_on_c, 0, 47, 0
3, 2400, Note_on_c, 0, 46, 67
3, 2880, Note_on_c, 0, 46, 0
3, 2880, Note_on_c, 0, 45, 71
3, 3360, Note_on_c, 0, 45, 0
3, 3360, Note_on_c, 0, 44, 69
3, 3840, Note_on_c, 0, 44, 0
3, 3840, Note_on_c, 0, 43, 69
3, 4800, Note_on_c, 0, 43, 0
3, 4800, Note_on_c, 0, 42, 55
3, 5760, Note_on_c, 0, 42, 0
3, 5760, Note_on_c, 0, 51, 62
3, 6720, Note_on_c, 0, 51, 0
3, 7200, Note_on_c, 0, 43, 64
3, 7680, Note_on_c, 0, 43, 0
3, 7680, Note_on_c, 0, 44, 68
3, 8160, Note_on_c, 0, 44, 0
3, 8160, Note_on_c, 0, 45, 73
3, 9120, Note_on_c, 0, 45, 0
3, 9120, Note_on_c, 0, 46, 55
3, 9600, Note_on_c, 0, 46, 0
3, 9600, Note_on_c, 0, 47, 62
3, 10080, Note_on_c, 0, 47, 0
3, 10080, Note_on_c, 0, 48, 78
3, 11040, Note_on_c, 0, 48, 0
3, 11040, Note_on_c, 0, 50, 74
3, 11520, Note_on_c, 0, 50, 0
3, 11520, Note_on_c, 0, 51, 58
3, 12000, Note_on_c, 0, 51, 0
3, 12000, Note_on_c, 0, 55, 62
3, 12480, Note_on_c, 0, 55, 0
3, 12480, Note_on_c, 0, 50, 68
3, 12960, Note_on_c, 0, 50, 0
3, 12960, Note_on_c, 0, 45, 66
3, 13440, Note_on_c, 0, 45, 0
3, 13440, Note_on_c, 0, 47, 64
3, 14400, Note_on_c, 0, 47, 0
3, 14400, Note_on_c, 0, 50, 67
3, 14480, Note_on_c, 0, 50, 0
3, 14480, Note_on_c, 0, 48, 58
3, 14560, Note_on_c, 0, 48, 0
3, 14560, Note_on_c, 0, 50, 71
3, 14640, Note_on_c, 0, 50, 0
3, 14640, Note_on_c, 0, 48, 65
3, 14720, Note_on_c, 0, 48, 0
3, 14720, Note_on_c, 0, 50, 70
3, 14800, Note_on_c, 0, 50, 0
3, 14800, Note_on_c, 0, 48, 67
3, 14880, Note_on_c, 0, 48, 0
3, 14880, Note_on_c, 0, 50, 70
3, 15120, Note_on_c, 0, 50, 0
3, 15120, Note_on_c, 0, 48, 75
3, 15360, Note_on_c, 0, 48, 0
3, 15360, Note_on_c, 0, 50, 73
3, 15600, Note_on_c, 0, 50, 0
3, 15600, Note_on_c, 0, 38, 65
3, 15840, Note_on_c, 0, 38, 0
3, 15840, Note_on_c, 0, 40, 66
3, 16080, Note_on_c, 0, 40, 0
3, 16080, Note_on_c, 0, 42, 59
3, 16320, Note_on_c, 0, 42, 0
3, 16320, Note_on_c, 0, 43, 62
3, 16560, Note_on_c, 0, 43, 0
3, 16560, Note_on_c, 0, 45, 66
3, 16800, Note_on_c, 0, 45, 0
3, 16800, Note_on_c, 0, 47, 59
3, 17040, Note_on_c, 0, 47, 0
3, 17040, Note_on_c, 0, 43, 59
3, 17280, Note_on_c, 0, 43, 0
3, 17280, Note_on_c, 0, 45, 61
3, 17520, Note_on_c, 0, 45, 0
3, 17520, Note_on_c, 0, 43, 59
3, 17760, Note_on_c, 0, 43, 0
3, 17760, Note_on_c, 0, 45, 65
3, 18000, Note_on_c, 0, 45, 0
3, 18000, Note_on_c, 0, 47, 60
3, 18240, Note_on_c, 0, 47, 0
3, 18240, Note_on_c, 0, 48, 67
3, 18480, Note_on_c, 0, 48, 0
3, 18480, Note_on_c, 0, 47, 65
3, 18720, Note_on_c, 0, 47, 0
3, 18720, Note_on_c, 0, 45, 66
3, 18960, Note_on_c, 0, 45, 0
3, 18960, Note_on_c, 0, 48, 68
3, 19200, Note_on_c, 0, 48, 0
3, 19200, Note_on_c, 0, 47, 53
3, 19440, Note_on_c, 0, 47, 0
3, 19440, Note_on_c, 0, 50, 65
3, 19680, Note_on_c, 0, 50, 0
3, 19680, Note_on_c, 0, 53, 64
3, 19920, Note_on_c, 0, 53, 0
3, 19920, Note_on_c, 0, 50, 70
3, 20160, Note_on_c, 0, 50, 0
3, 20160, Note_on_c, 0, 56, 57
3, 20640, Note_on_c, 0, 56, 0
3, 20640, Note_on_c, 0, 55, 44
3, 20880, Note_on_c, 0, 55, 0
3, 20880, Note_on_c, 0, 53, 56
3, 21120, Note_on_c, 0, 53, 0
3, 21120, Note_on_c, 0, 51, 61
3, 21360, Note_on_c, 0, 51, 0
3, 21360, Note_on_c, 0, 50, 68
3, 21600, Note_on_c, 0, 50, 0
3, 21600, Note_on_c, 0, 48, 73
3, 21840, Note_on_c, 0, 48, 0
3, 21840, Note_on_c, 0, 47, 70
3, 22080, Note_on_c, 0, 47, 0
3, 22080, Note_on_c, 0, 45, 67
3, 22560, Note_on_c, 0, 45, 0
3, 22560, Note_on_c, 0, 47, 54
3, 22800, Note_on_c, 0, 47, 0
3, 22800, Note_on_c, 0, 48, 60
3, 23040, Note_on_c, 0, 48, 0
3, 23040, Note_on_c, 0, 47, 54
3, 23280, Note_on_c, 0, 47, 0
3, 23280, Note_on_c, 0, 48, 61
3, 23520, Note_on_c, 0, 48, 0
3, 23520, Note_on_c, 0, 50, 70
3, 23760, Note_on_c, 0, 50, 0
3, 23760, Note_on_c, 0, 47, 58
3, 24000, Note_on_c, 0, 47, 0
3, 24000, Note_on_c, 0, 48, 67
3, 24480, Note_on_c, 0, 48, 0
3, 24480, Note_on_c, 0, 50, 68
3, 24720, Note_on_c, 0, 50, 0
3, 24720, Note_on_c, 0, 51, 46
3, 24960, Note_on_c, 0, 51, 0
3, 24960, Note_on_c, 0, 50, 74
3, 25440, Note_on_c, 0, 50, 0
3, 25440, Note_on_c, 0, 48, 65
3, 25920, Note_on_c, 0, 48, 0
3, 25920, Note_on_c, 0, 55, 73
3, 26880, Note_on_c, 0, 55, 0
3, 26880, Note_on_c, 0, 56, 66
3, 27840, Note_on_c, 0, 56, 0
3, 28080, Note_on_c, 0, 59, 55
3, 28320, Note_on_c, 0, 59, 0
3, 28320, Note_on_c, 0, 56, 61
3, 28560, Note_on_c, 0, 56, 0
3, 28560, Note_on_c, 0, 55, 70
3, 28800, Note_on_c, 0, 55, 0
3, 29040, Note_on_c, 0, 53, 57
3, 29280, Note_on_c, 0, 53, 0
3, 29280, Note_on_c, 0, 51, 59
3, 29520, Note_on_c, 0, 51, 0
3, 29520, Note_on_c, 0, 50, 70
3, 29760, Note_on_c, 0, 50, 0
3, 30000, Note_on_c, 0, 51, 61
3, 30240, Note_on_c, 0, 51, 0
3, 30240, Note_on_c, 0, 50, 70
3, 30480, Note_on_c, 0, 50, 0
3, 30480, Note_on_c, 0, 48, 75
3, 30720, Note_on_c, 0, 48, 0
3, 30720, Note_on_c, 0, 47, 61
3, 31200, Note_on_c, 0, 47, 0
3, 31200, Note_on_c, 0, 46, 54
3, 31680, Note_on_c, 0, 46, 0
3, 31680, Note_on_c, 0, 45, 73
3, 32160, Note_on_c, 0, 45, 0
3, 32160, Note_on_c, 0, 44, 64
3, 32640, Note_on_c, 0, 44, 0
3, 32640, Note_on_c, 0, 43, 70
3, 33600, Note_on_c, 0, 43, 0
3, 33600, Note_on_c, 0, 42, 60
3, 34560, Note_on_c, 0, 42, 0
3, 34560, Note_on_c, 0, 51, 67
3, 35520, Note_on_c, 0, 51, 0
3, 36000, Note_on_c, 0, 43, 57
3, 36480, Note_on_c, 0, 43, 0
3, 36480, Note_on_c, 0, 44, 68
3, 36960, Note_on_c, 0, 44, 0
3, 36960, Note_on_c, 0, 45, 73
3, 37920, Note_on_c, 0, 45, 0
3, 37920, Note_on_c, 0, 46, 55
3, 38400, Note_on_c, 0, 46, 0
3, 38400, Note_on_c, 0, 47, 62
3, 38880, Note_on_c, 0, 47, 0
3, 38880, Note_on_c, 0, 48, 78
3, 39840, Note_on_c, 0, 48, 0
3, 39840, Note_on_c, 0, 50, 74
3, 40320, Note_on_c, 0, 50, 0
3, 40320, Note_on_c, 0, 51, 58
3, 40800, Note_on_c, 0, 51, 0
3, 40800, Note_on_c, 0, 55, 62
3, 41280, Note_on_c, 0, 55, 0
3, 41280, Note_on_c, 0, 50, 68
3, 41760, Note_on_c, 0, 50, 0
3, 41760, Note_on_c, 0, 45, 66
3, 42240, Note_on_c, 0, 45, 0
3, 42240, Note_on_c, 0, 47, 64
3, 43200, Note_on_c, 0, 47, 0
3, 43200, Note_on_c, 0, 50, 67
3, 43280, Note_on_c, 0, 50, 0
3, 43280, Note_on_c, 0, 48, 58
3, 43360, Note_on_c, 0, 48, 0
3, 43360, Note_on_c, 0, 50, 71
3, 43440, Note_on_c, 0, 50, 0
3, 43440, Note_on_c, 0, 48, 65
3, 43520, Note_on_c, 0, 48, 0
3, 43520, Note_on_c, 0, 50, 70
3, 43600, Note_on_c, 0, 50, 0
3, 43600, Note_on_c, 0, 48, 67
3, 43680, Note_on_c, 0, 48, 0
3, 43680, Note_on_c, 0, 50, 70
3, 43920, Note_on_c, 0, 50, 0
3, 43920, Note_on_c, 0, 48, 75
3, 44160, Note_on_c, 0, 48, 0
3, 44160, Note_on_c, 0, 50, 73
3, 44400, Note_on_c, 0, 50, 0
3, 44400, Note_on_c, 0, 38, 65
3, 44640, Note_on_c, 0, 38, 0
3, 44640, Note_on_c, 0, 40, 66
3, 44880, Note_on_c, 0, 40, 0
3, 44880, Note_on_c, 0, 42, 59
3, 45120, Note_on_c, 0, 42, 0
3, 45120, Note_on_c, 0, 43, 62
3, 45360, Note_on_c, 0, 43, 0
3, 45360, Note_on_c, 0, 45, 66
3, 45600, Note_on_c, 0, 45, 0
3, 45600, Note_on_c, 0, 47, 59
3, 45840, Note_on_c, 0, 47, 0
3, 45840, Note_on_c, 0, 43, 59
3, 46080, Note_on_c, 0, 43, 0
3, 46080, Note_on_c, 0, 45, 61
3, 46320, Note_on_c, 0, 45, 0
3, 46320, Note_on_c, 0, 43, 59
3, 46560, Note_on_c, 0, 43, 0
3, 46560, Note_on_c, 0, 45, 65
3, 46800, Note_on_c, 0, 45, 0
3, 46800, Note_on_c, 0, 47, 60
3, 47040, Note_on_c, 0, 47, 0
3, 47040, Note_on_c, 0, 48, 67
3, 47280, Note_on_c, 0, 48, 0
3, 47280, Note_on_c, 0, 47, 65
3, 47520, Note_on_c, 0, 47, 0
3, 47520, Note_on_c, 0, 45, 66
3, 47760, Note_on_c, 0, 45, 0
3, 47760, Note_on_c, 0, 48, 68
3, 48000, Note_on_c, 0, 48, 0
3, 48000, Note_on_c, 0, 47, 53
3, 48240, Note_on_c, 0, 47, 0
3, 48240, Note_on_c, 0, 50, 65
3, 48480, Note_on_c, 0, 50, 0
3, 48480, Note_on_c, 0, 53, 64
3, 48720, Note_on_c, 0, 53, 0
3, 48720, Note_on_c, 0, 50, 70
3, 48960, Note_on_c, 0, 50, 0
3, 48960, Note_on_c, 0, 56, 57
3, 49440, Note_on_c, 0, 56, 0
3, 49440, Note_on_c, 0, 55, 44
3, 49680, Note_on_c, 0, 55, 0
3, 49680, Note_on_c, 0, 53, 56
3, 49920, Note_on_c, 0, 53, 0
3, 49920, Note_on_c, 0, 51, 61
3, 50160, Note_on_c, 0, 51, 0
3, 50160, Note_on_c, 0, 50, 68
3, 50400, Note_on_c, 0, 50, 0
3, 50400, Note_on_c, 0, 48, 73
3, 50640, Note_on_c, 0, 48, 0
3, 50640, Note_on_c, 0, 47, 70
3, 50880, Note_on_c, 0, 47, 0
3, 50880, Note_on_c, 0, 45, 67
3, 51360, Note_on_c, 0, 45, 0
3, 51360, Note_on_c, 0, 47, 54
3, 51600, Note_on_c, 0, 47, 0
3, 51600, Note_on_c, 0, 48, 60
3, 51840, Note_on_c, 0, 48, 0
3, 51840, Note_on_c, 0, 47, 54
3, 52080, Note_on_c, 0, 47, 0
3, 52080, Note_on_c, 0, 48, 61
3, 52320, Note_on_c, 0, 48, 0
3, 52320, Note_on_c, 0, 50, 70
3, 52560, Note_on_c, 0, 50, 0
3, 52560, Note_on_c, 0, 47, 58
3, 52800, Note_on_c, 0, 47, 0
3, 52800, Note_on_c, 0, 48, 67
3, 53280, Note_on_c, 0, 48, 0
3, 53280, Note_on_c, 0, 50, 68
3, 53520, Note_on_c, 0, 50, 0
3, 53520, Note_on_c, 0, 51, 46
3, 53760, Note_on_c, 0, 51, 0
3, 53760, Note_on_c, 0, 50, 74
3, 54240, Note_on_c, 0, 50, 0
3, 54240, Note_on_c, 0, 48, 65
3, 54720, Note_on_c, 0, 48, 0
3, 54720, Note_on_c, 0, 55, 73
3, 55680, Note_on_c, 0, 55, 0
3, 55680, Note_on_c, 0, 56, 66
3, 56640, Note_on_c, 0, 56, 0
3, 56880, Note_on_c, 0, 59, 55
3, 57120, Note_on_c, 0, 59, 0
3, 57120, Note_on_c, 0, 56, 61
3, 57360, Note_on_c, 0, 56, 0
3, 57360, Note_on_c, 0, 55, 70
3, 57600, Note_on_c, 0, 55, 0
3, 57840, Note_on_c, 0, 53, 57
3, 58080, Note_on_c, 0, 53, 0
3, 58080, Note_on_c, 0, 51, 59
3, 58320, Note_on_c, 0, 51, 0
3, 58320, Note_on_c, 0, 50, 70
3, 58560, Note_on_c, 0, 50, 0
3, 58800, Note_on_c, 0, 51, 61
3, 59040, Note_on_c, 0, 51, 0
3, 59040, Note_on_c, 0, 50, 70
3, 59280, Note_on_c, 0, 50, 0
3, 59280, Note_on_c, 0, 48, 75
3, 59520, Note_on_c, 0, 48, 0
3, 59520, Note_on_c, 0, 47, 61
3, 60000, Note_on_c, 0, 47, 0
3, 60000, Note_on_c, 0, 46, 54
3, 60480, Note_on_c, 0, 46, 0
3, 60480, Note_on_c, 0, 45, 73
3, 60960, Note_on_c, 0, 45, 0
3, 60960, Note_on_c, 0, 44, 64
3, 61440, Note_on_c, 0, 44, 0
3, 61440, Note_on_c, 0, 43, 70
3, 62400, Note_on_c, 0, 43, 0
3, 62400, Note_on_c, 0, 42, 60
3, 63360, Note_on_c, 0, 42, 0
3, 63360, Note_on_c, 0, 51, 67
3, 64320, Note_on_c, 0, 51, 0
3, 64800, Note_on_c, 0, 43, 57
3, 65280, Note_on_c, 0, 43, 0
3, 65280, Note_on_c, 0, 44, 68
3, 65760, Note_on_c, 0, 44, 0
3, 65760, Note_on_c, 0, 45, 73
3, 66720, Note_on_c, 0, 45, 0
3, 66720, Note_on_c, 0, 46, 55
3, 67200, Note_on_c, 0, 46, 0
3, 67200, Note_on_c, 0, 47, 62
3, 67680, Note_on_c, 0, 47, 0
3, 67680, Note_on_c, 0, 48, 78
3, 68640, Note_on_c, 0, 48, 0
3, 68640, Note_on_c, 0, 50, 74
3, 69120, Note_on_c, 0, 50, 0
3, 69120, Note_on_c, 0, 51, 58
3, 69600, Note_on_c, 0, 51, 0
3, 69600, Note_on_c, 0, 55, 62
3, 70080, Note_on_c, 0, 55, 0
3, 70080, Note_on_c, 0, 50, 68
3, 70560, Note_on_c, 0, 50, 0
3, 70560, Note_on_c, 0, 45, 66
3, 71040, Note_on_c, 0, 45, 0
3, 71040, Note_on_c, 0, 47, 64
3, 72000, Note_on_c, 0, 47, 0
3, 72000, Note_on_c, 0, 50, 67
3, 72080, Note_on_c, 0, 50, 0
3, 72080, Note_on_c, 0, 48, 58
3, 72160, Note_on_c, 0, 48, 0
3, 72160, Note_on_c, 0, 50, 71
3, 72240, Note_on_c, 0, 50, 0
3, 72240, Note_on_c, 0, 48, 65
3, 72320, Note_on_c, 0, 48, 0
3, 72320, Note_on_c, 0, 50, 70
3, 72400, Note_on_c, 0, 50, 0
3, 72400, Note_on_c, 0, 48, 67
3, 72480, Note_on_c, 0, 48, 0
3, 72480, Note_on_c, 0, 50, 70
3, 72720, Note_on_c, 0, 50, 0
3, 72720, Note_on_c, 0, 48, 75
3, 72960, Note_on_c, 0, 48, 0
3, 72960, Note_on_c, 0, 50, 73
3, 73200, Note_on_c, 0, 50, 0
3, 73200, Note_on_c, 0, 38, 65
3, 73440, Note_on_c, 0, 38, 0
3, 73440, Note_on_c, 0, 40, 66
3, 73680, Note_on_c, 0, 40, 0
3, 73680, Note_on_c, 0, 42, 59
3, 73920, Note_on_c, 0, 42, 0
3, 73920, Note_on_c, 0, 43, 62
3, 74160, Note_on_c, 0, 43, 0
3, 74160, Note_on_c, 0, 45, 66
3, 74400, Note_on_c, 0, 45, 0
3, 74400, Note_on_c, 0, 47, 59
3, 74640, Note_on_c, 0, 47, 0
3, 74640, Note_on_c, 0, 43, 59
3, 74880, Note_on_c, 0, 43, 0
3, 74880, Note_on_c, 0, 45, 61
3, 75120, Note_on_c, 0, 45, 0
3, 75120, Note_on_c, 0, 43, 59
3, 75360, Note_on_c, 0, 43, 0
3, 75360, Note_on_c, 0, 45, 65
3, 75600, Note_on_c, 0, 45, 0
3, 75600, Note_on_c, 0, 47, 60
3, 75840, Note_on_c, 0, 47, 0
3, 75840, Note_on_c, 0, 48, 67
3, 76080, Note_on_c, 0, 48, 0
3, 76080, Note_on_c, 0, 47, 65
3, 76320, Note_on_c, 0, 47, 0
3, 76320, Note_on_c, 0, 45, 66
3, 76560, Note_on_c, 0, 45, 0
3, 76560, Note_on_c, 0, 48, 68
3, 76800, Note_on_c, 0, 48, 0
3, 76800, Note_on_c, 0, 47, 53
3, 77040, Note_on_c, 0, 47, 0
3, 77040, Note_on_c, 0, 50, 65
3, 77280, Note_on_c, 0, 50, 0
3, 77280, Note_on_c, 0, 53, 64
3, 77520, Note_on_c, 0, 53, 0
3, 77520, Note_on_c, 0, 50, 70
3, 77760, Note_on_c, 0, 50, 0
3, 77760, Note_on_c, 0, 56, 57
3, 78240, Note_on_c, 0, 56, 0
3, 78240, Note_on_c, 0, 55, 44
3, 78480, Note_on_c, 0, 55, 0
3, 78480, Note_on_c, 0, 53, 56
3, 78720, Note_on_c, 0, 53, 0
3, 78720, Note_on_c, 0, 51, 61
3, 78960, Note_on_c, 0, 51, 0
3, 78960, Note_on_c, 0, 50, 68
3, 79200, Note_on_c, 0, 50, 0
3, 79200, Note_on_c, 0, 48, 73
3, 79440, Note_on_c, 0, 48, 0
3, 79440, Note_on_c, 0, 47, 70
3, 79680, Note_on_c, 0, 47, 0
3, 79680, Note_on_c, 0, 45, 67
3, 80160, Note_on_c, 0, 45, 0
3, 80160, Note_on_c, 0, 47, 54
3, 80400, Note_on_c, 0, 47, 0
3, 80400, Note_on_c, 0, 48, 60
3, 80640, Note_on_c, 0, 48, 0
3, 80640, Note_on_c, 0, 47, 54
3, 80880, Note_on_c, 0, 47, 0
3, 80880, Note_on_c, 0, 48, 61
3, 81120, Note_on_c, 0, 48, 0
3, 81120, Note_on_c, 0, 50, 70
3, 81360, Note_on_c, 0, 50, 0
3, 81360, Note_on_c, 0, 47, 58
3, 81600, Note_on_c, 0, 47, 0
3, 81600, Note_on_c, 0, 48, 67
3, 82560, Note_on_c, 0, 48, 0
3, 82560, End_track
4, 0, Start_track
4, 0, End_track
0, 0, End_of_file
