0, 0, Header, 0, 1, 48
1, 0, Start_track
1, 0, Title_t, "J.S.Bach Concert for Harpsichord and Orchestra A major BWV1055 3. Allegro ma non tanto"
1, 0, Time_signature, 3, 3, 24, 8
1, 0, Channel_prefix, 0
1, 0, Copyright_t, "Copyright 2001 by KCN"
1, 0, Channel_prefix, 0
1, 0, Title_t, "Violino I"
1, 0, Channel_prefix, 0
1, 0, Instrument_name_t, "Strings1"
1, 0, System_exclusive, 5, 126, 127, 9, 1, 247
1, 0, MIDI_port, 0
1, 0, Tempo, 869565
1, 0, Program_c, 0, 48
1, 0, Control_c, 0, 7, 110
1, 0, Note_on_c, 0, 76, 96
1, 0, Channel_prefix, 1
1, 0, Title_t, "Violino II"
1, 0, Channel_prefix, 1
1, 0, Instrument_name_t, "Strings1"
1, 0, MIDI_port, 0
1, 0, Program_c, 1, 48
1, 0, Control_c, 1, 7, 110
1, 0, Note_on_c, 1, 73, 96
1, 0, Channel_prefix, 2
1, 0, Title_t, "Viola"
1, 0, Channel_prefix, 2
1, 0, Instrument_name_t, "Strings1"
1, 0, MIDI_port, 0
1, 0, Program_c, 2, 48
1, 0, Control_c, 2, 7, 110
1, 0, Note_on_c, 2, 69, 96
1, 0, Channel_prefix, 3
1, 0, Title_t, "Continuo"
1, 0, Channel_prefix, 3
1, 0, Instrument_name_t, "Cello"
1, 0, MIDI_port, 0
1, 0, Program_c, 3, 42
1, 0, Note_on_c, 3, 45, 96
1, 0, Channel_prefix, 4
1, 0, Title_t, "Continuo"
1, 0, Channel_prefix, 4
1, 0, Instrument_name_t, "Contrabass"
1, 0, MIDI_port, 0
1, 0, Program_c, 4, 43
1, 0, Note_on_c, 4, 33, 96
1, 0, Channel_prefix, 5
1, 0, Title_t, "Cembalo"
1, 0, Channel_prefix, 5
1, 0, Instrument_name_t, "Harpsichord"
1, 0, MIDI_port, 0
1, 0, Program_c, 5, 6
1, 0, Note_on_c, 5, 76, 96
1, 0, Channel_prefix, 6
1, 0, Title_t, "Cembalo"
1, 0, Channel_prefix, 6
1, 0, Instrument_name_t, "Harpsichord"
1, 0, MIDI_port, 0
1, 0, Program_c, 6, 6
1, 0, Note_on_c, 6, 45, 96
1, 21, Note_off_c, 0, 76, 0
1, 21, Note_off_c, 1, 73, 0
1, 21, Note_off_c, 2, 69, 0
1, 21, Note_off_c, 3, 45, 0
1, 21, Note_off_c, 4, 33, 0
1, 21, Note_off_c, 5, 76, 0
1, 21, Note_off_c, 6, 45, 0
1, 24, Note_on_c, 0, 81, 96
1, 24, Note_on_c, 1, 73, 96
1, 24, Note_on_c, 2, 64, 96
1, 24, Note_on_c, 3, 57, 96
1, 24, Note_on_c, 4, 45, 96
1, 24, Note_on_c, 5, 81, 96
1, 24, Note_on_c, 6, 57, 96
1, 30, Note_off_c, 5, 81, 0
1, 30, Note_on_c, 5, 80, 96
1, 36, Note_off_c, 5, 80, 0
1, 36, Note_on_c, 5, 81, 96
1, 48, Note_off_c, 1, 73, 0
1, 48, Note_on_c, 1, 73, 96
1, 48, Note_off_c, 2, 64, 0
1, 48, Note_on_c, 2, 64, 96
1, 48, Note_off_c, 3, 57, 0
1, 48, Note_on_c, 3, 57, 96
1, 48, Note_off_c, 4, 45, 0
1, 48, Note_on_c, 4, 45, 96
1, 48, Note_off_c, 6, 57, 0
1, 48, Note_on_c, 6, 57, 96
1, 55, Note_off_c, 0, 81, 0
1, 57, Note_off_c, 5, 81, 0
1, 60, Note_on_c, 0, 80, 96
1, 60, Note_on_c, 5, 80, 96
1, 65, Note_off_c, 0, 80, 0
1, 65, Note_off_c, 5, 80, 0
1, 66, Note_on_c, 0, 78, 96
1, 66, Note_on_c, 5, 78, 96
1, 71, Note_off_c, 0, 78, 0
1, 71, Note_off_c, 5, 78, 0
1, 72, Note_on_c, 0, 76, 96
1, 72, Note_off_c, 1, 73, 0
1, 72, Note_on_c, 1, 71, 96
1, 72, Note_off_c, 2, 64, 0
1, 72, Note_on_c, 2, 64, 96
1, 72, Note_off_c, 3, 57, 0
1, 72, Note_on_c, 3, 56, 96
1, 72, Note_off_c, 4, 45, 0
1, 72, Note_on_c, 4, 44, 96
1, 72, Note_on_c, 5, 76, 96
1, 72, Note_off_c, 6, 57, 0
1, 72, Note_on_c, 6, 56, 96
1, 77, Note_off_c, 0, 76, 0
1, 77, Note_off_c, 5, 76, 0
1, 78, Note_on_c, 0, 74, 96
1, 78, Note_on_c, 5, 74, 96
1, 83, Note_off_c, 0, 74, 0
1, 83, Note_off_c, 5, 74, 0
1, 84, Note_on_c, 0, 73, 96
1, 84, Note_on_c, 5, 73, 96
1, 89, Note_off_c, 0, 73, 0
1, 89, Note_off_c, 5, 73, 0
1, 90, Note_on_c, 0, 71, 96
1, 90, Note_on_c, 5, 71, 96
1, 93, Note_off_c, 1, 71, 0
1, 93, Note_off_c, 2, 64, 0
1, 93, Note_off_c, 3, 56, 0
1, 93, Note_off_c, 4, 44, 0
1, 93, Note_off_c, 6, 56, 0
1, 95, Note_off_c, 0, 71, 0
1, 95, Note_off_c, 5, 71, 0
1, 96, Note_on_c, 0, 73, 96
1, 96, Note_on_c, 1, 69, 96
1, 96, Note_on_c, 2, 64, 96
1, 96, Note_on_c, 3, 57, 96
1, 96, Note_on_c, 4, 45, 96
1, 96, Note_on_c, 5, 71, 96
1, 96, Note_on_c, 6, 57, 96
1, 108, Note_off_c, 5, 71, 0
1, 108, Note_on_c, 5, 73, 96
1, 120, Note_off_c, 1, 69, 0
1, 120, Note_on_c, 1, 69, 96
1, 120, Note_off_c, 2, 64, 0
1, 120, Note_on_c, 2, 64, 96
1, 120, Note_off_c, 3, 57, 0
1, 120, Note_on_c, 3, 57, 96
1, 120, Note_off_c, 4, 45, 0
1, 120, Note_on_c, 4, 45, 96
1, 120, Note_off_c, 6, 57, 0
1, 120, Note_on_c, 6, 57, 96
1, 122, Note_off_c, 0, 73, 0
1, 124, Note_off_c, 5, 73, 0
1, 126, Note_on_c, 0, 71, 96
1, 126, Note_on_c, 5, 71, 96
1, 131, Note_off_c, 0, 71, 0
1, 131, Note_off_c, 5, 71, 0
1, 132, Note_on_c, 0, 73, 96
1, 132, Note_on_c, 5, 73, 96
1, 137, Note_off_c, 0, 73, 0
1, 137, Note_off_c, 5, 73, 0
1, 138, Note_on_c, 0, 74, 96
1, 138, Note_on_c, 5, 74, 96
1, 143, Note_off_c, 0, 74, 0
1, 143, Note_off_c, 5, 74, 0
1, 144, Note_on_c, 0, 73, 96
1, 144, Note_off_c, 1, 69, 0
1, 144, Note_on_c, 1, 68, 96
1, 144, Note_off_c, 2, 64, 0
1, 144, Note_on_c, 2, 64, 96
1, 144, Note_off_c, 3, 57, 0
1, 144, Note_on_c, 3, 52, 96
1, 144, Note_off_c, 4, 45, 0
1, 144, Note_on_c, 4, 40, 96
1, 144, Note_on_c, 5, 73, 96
1, 144, Note_off_c, 6, 57, 0
1, 144, Note_on_c, 6, 52, 96
1, 149, Note_off_c, 0, 73, 0
1, 149, Note_off_c, 5, 73, 0
1, 150, Note_on_c, 0, 71, 96
1, 150, Note_on_c, 5, 71, 96
1, 155, Note_off_c, 0, 71, 0
1, 155, Note_off_c, 5, 71, 0
1, 156, Note_on_c, 0, 69, 96
1, 156, Note_on_c, 5, 69, 96
1, 161, Note_off_c, 0, 69, 0
1, 161, Note_off_c, 5, 69, 0
1, 162, Note_on_c, 0, 68, 96
1, 162, Note_on_c, 5, 68, 96
1, 165, Note_off_c, 1, 68, 0
1, 165, Note_off_c, 2, 64, 0
1, 165, Note_off_c, 3, 52, 0
1, 165, Note_off_c, 4, 40, 0
1, 165, Note_off_c, 6, 52, 0
1, 167, Note_off_c, 0, 68, 0
1, 167, Note_off_c, 5, 68, 0
1, 168, Note_on_c, 0, 69, 96
1, 168, Note_on_c, 1, 66, 96
1, 168, Note_on_c, 2, 61, 96
1, 168, Note_on_c, 3, 54, 96
1, 168, Note_on_c, 4, 42, 96
1, 168, Note_on_c, 5, 68, 96
1, 168, Note_on_c, 6, 54, 96
1, 174, Note_off_c, 3, 54, 0
1, 174, Note_off_c, 4, 42, 0
1, 174, Note_off_c, 6, 54, 0
1, 180, Note_off_c, 5, 68, 0
1, 180, Note_on_c, 5, 69, 96
1, 192, Note_off_c, 1, 66, 0
1, 192, Note_on_c, 1, 66, 96
1, 192, Note_off_c, 2, 61, 0
1, 192, Note_on_c, 2, 59, 96
1, 192, Note_on_c, 3, 50, 96
1, 192, Note_on_c, 4, 38, 96
1, 192, Note_on_c, 6, 50, 96
1, 198, Note_off_c, 3, 50, 0
1, 198, Note_off_c, 4, 38, 0
1, 198, Note_off_c, 6, 50, 0
1, 199, Note_off_c, 0, 69, 0
1, 201, Note_off_c, 5, 69, 0
1, 204, Note_on_c, 0, 68, 96
1, 204, Note_on_c, 5, 68, 96
1, 209, Note_off_c, 0, 68, 0
1, 209, Note_off_c, 5, 68, 0
1, 210, Note_on_c, 0, 66, 96
1, 210, Note_on_c, 5, 66, 96
1, 215, Note_off_c, 0, 66, 0
1, 215, Note_off_c, 5, 66, 0
1, 216, Note_on_c, 0, 64, 96
1, 216, Note_off_c, 1, 66, 0
1, 216, Note_on_c, 1, 68, 96
1, 216, Note_off_c, 2, 59, 0
1, 216, Note_on_c, 2, 59, 96
1, 216, Note_on_c, 3, 52, 96
1, 216, Note_on_c, 4, 40, 96
1, 216, Note_on_c, 5, 64, 96
1, 216, Note_on_c, 6, 52, 96
1, 221, Note_off_c, 0, 64, 0
1, 221, Note_off_c, 5, 64, 0
1, 222, Note_on_c, 0, 62, 96
1, 222, Note_off_c, 3, 52, 0
1, 222, Note_off_c, 4, 40, 0
1, 222, Note_on_c, 5, 62, 96
1, 222, Note_off_c, 6, 52, 0
1, 227, Note_off_c, 0, 62, 0
1, 227, Note_off_c, 5, 62, 0
1, 228, Note_on_c, 0, 61, 96
1, 228, Note_on_c, 5, 61, 96
1, 233, Note_off_c, 0, 61, 0
1, 233, Note_off_c, 5, 61, 0
1, 234, Note_on_c, 0, 59, 96
1, 234, Note_on_c, 5, 59, 96
1, 237, Note_off_c, 1, 68, 0
1, 237, Note_off_c, 2, 59, 0
1, 239, Note_off_c, 0, 59, 0
1, 239, Note_off_c, 5, 59, 0
1, 240, Note_on_c, 0, 57, 96
1, 240, Note_on_c, 1, 69, 96
1, 240, Note_on_c, 2, 61, 96
1, 240, Note_on_c, 3, 45, 96
1, 240, Note_on_c, 4, 33, 96
1, 240, Note_on_c, 5, 57, 96
1, 240, Note_on_c, 6, 45, 96
1, 244, Note_off_c, 0, 57, 0
1, 244, Note_on_c, 0, 59, 96
1, 244, Note_off_c, 5, 57, 0
1, 244, Note_on_c, 5, 59, 96
1, 248, Note_off_c, 0, 59, 0
1, 248, Note_on_c, 0, 57, 96
1, 248, Note_off_c, 5, 59, 0
1, 248, Note_on_c, 5, 57, 96
1, 250, Note_off_c, 3, 45, 0
1, 250, Note_off_c, 4, 33, 0
1, 250, Note_off_c, 6, 45, 0
1, 252, Note_off_c, 0, 57, 0
1, 252, Note_on_c, 0, 59, 96
1, 252, Note_on_c, 3, 47, 96
1, 252, Note_on_c, 4, 35, 96
1, 252, Note_off_c, 5, 57, 0
1, 252, Note_on_c, 5, 59, 96
1, 252, Note_on_c, 6, 47, 96
1, 256, Note_off_c, 0, 59, 0
1, 256, Note_on_c, 0, 57, 96
1, 256, Note_off_c, 5, 59, 0
1, 256, Note_on_c, 5, 57, 96
1, 260, Note_off_c, 0, 57, 0
1, 260, Note_on_c, 0, 59, 96
1, 260, Note_off_c, 5, 57, 0
1, 260, Note_on_c, 5, 59, 96
1, 262, Note_off_c, 3, 47, 0
1, 262, Note_off_c, 4, 35, 0
1, 262, Note_off_c, 6, 47, 0
1, 264, Note_off_c, 0, 59, 0
1, 264, Note_on_c, 0, 57, 96
1, 264, Note_on_c, 3, 49, 96
1, 264, Note_on_c, 4, 37, 96
1, 264, Note_off_c, 5, 59, 0
1, 264, Note_on_c, 5, 57, 96
1, 264, Note_on_c, 6, 49, 96
1, 268, Note_off_c, 0, 57, 0
1, 268, Note_on_c, 0, 59, 96
1, 268, Note_off_c, 5, 57, 0
1, 268, Note_on_c, 5, 59, 96
1, 272, Note_off_c, 0, 59, 0
1, 272, Note_on_c, 0, 57, 96
1, 272, Note_off_c, 5, 59, 0
1, 272, Note_on_c, 5, 57, 96
1, 274, Note_off_c, 3, 49, 0
1, 274, Note_off_c, 4, 37, 0
1, 274, Note_off_c, 6, 49, 0
1, 276, Note_on_c, 3, 50, 96
1, 276, Note_on_c, 4, 38, 96
1, 276, Note_on_c, 6, 50, 96
1, 282, Note_off_c, 1, 69, 0
1, 282, Note_off_c, 2, 61, 0
1, 286, Note_off_c, 0, 57, 0
1, 286, Note_off_c, 3, 50, 0
1, 286, Note_off_c, 4, 38, 0
1, 286, Note_off_c, 5, 57, 0
1, 286, Note_off_c, 6, 50, 0
1, 288, Note_on_c, 0, 69, 96
1, 288, Note_on_c, 1, 64, 96
1, 288, Note_on_c, 2, 61, 96
1, 288, Note_on_c, 3, 52, 96
1, 288, Note_on_c, 4, 40, 96
1, 288, Note_on_c, 5, 69, 96
1, 288, Note_on_c, 6, 52, 96
1, 298, Note_off_c, 3, 52, 0
1, 298, Note_off_c, 4, 40, 0
1, 298, Note_off_c, 6, 52, 0
1, 300, Note_on_c, 3, 54, 96
1, 300, Note_on_c, 4, 42, 96
1, 300, Note_on_c, 6, 54, 96
1, 309, Note_off_c, 0, 69, 0
1, 309, Note_off_c, 1, 64, 0
1, 309, Note_off_c, 2, 61, 0
1, 309, Note_off_c, 5, 69, 0
1, 310, Note_off_c, 3, 54, 0
1, 310, Note_off_c, 4, 42, 0
1, 310, Note_off_c, 6, 54, 0
1, 312, Note_on_c, 0, 64, 96
1, 312, Note_on_c, 1, 64, 96
1, 312, Note_on_c, 2, 59, 96
1, 312, Note_on_c, 3, 56, 96
1, 312, Note_on_c, 4, 44, 96
1, 312, Note_on_c, 5, 64, 96
1, 312, Note_on_c, 6, 56, 96
1, 324, Note_off_c, 0, 64, 0
1, 324, Note_on_c, 0, 71, 96
1, 324, Note_off_c, 5, 64, 0
1, 324, Note_on_c, 5, 71, 96
1, 336, Note_off_c, 0, 71, 0
1, 336, Note_on_c, 0, 73, 96
1, 336, Note_off_c, 2, 59, 0
1, 336, Note_on_c, 2, 57, 96
1, 336, Note_off_c, 3, 56, 0
1, 336, Note_on_c, 3, 54, 96
1, 336, Note_off_c, 4, 44, 0
1, 336, Note_on_c, 4, 42, 96
1, 336, Note_off_c, 5, 71, 0
1, 336, Note_on_c, 5, 73, 96
1, 336, Note_off_c, 6, 56, 0
1, 336, Note_on_c, 6, 54, 96
1, 346, Note_off_c, 0, 73, 0
1, 346, Note_off_c, 5, 73, 0
1, 348, Note_on_c, 0, 69, 96
1, 348, Note_on_c, 5, 69, 96
1, 357, Note_off_c, 2, 57, 0
1, 358, Note_off_c, 0, 69, 0
1, 358, Note_off_c, 5, 69, 0
1, 360, Note_on_c, 0, 71, 96
1, 360, Note_on_c, 2, 64, 96
1, 360, Note_off_c, 3, 54, 0
1, 360, Note_on_c, 3, 56, 96
1, 360, Note_off_c, 4, 42, 0
1, 360, Note_on_c, 4, 44, 96
1, 360, Note_on_c, 5, 71, 96
1, 360, Note_off_c, 6, 54, 0
1, 360, Note_on_c, 6, 56, 96
1, 370, Note_off_c, 0, 71, 0
1, 370, Note_off_c, 5, 71, 0
1, 372, Note_on_c, 0, 74, 96
1, 372, Note_on_c, 5, 74, 96
1, 381, Note_off_c, 2, 64, 0
1, 381, Note_off_c, 3, 56, 0
1, 381, Note_off_c, 4, 44, 0
1, 381, Note_off_c, 6, 56, 0
1, 382, Note_off_c, 0, 74, 0
1, 382, Note_off_c, 5, 74, 0
1, 384, Note_on_c, 0, 64, 96
1, 384, Note_on_c, 2, 61, 96
1, 384, Note_on_c, 3, 57, 96
1, 384, Note_on_c, 4, 45, 96
1, 384, Note_on_c, 5, 64, 96
1, 384, Note_on_c, 6, 57, 96
1, 396, Note_off_c, 0, 64, 0
1, 396, Note_on_c, 0, 73, 96
1, 396, Note_off_c, 5, 64, 0
1, 396, Note_on_c, 5, 73, 96
1, 408, Note_off_c, 0, 73, 0
1, 408, Note_on_c, 0, 74, 96
1, 408, Note_off_c, 2, 61, 0
1, 408, Note_on_c, 2, 59, 96
1, 408, Note_off_c, 3, 57, 0
1, 408, Note_on_c, 3, 56, 96
1, 408, Note_off_c, 4, 45, 0
1, 408, Note_on_c, 4, 44, 96
1, 408, Note_off_c, 5, 73, 0
1, 408, Note_on_c, 5, 74, 96
1, 408, Note_off_c, 6, 57, 0
1, 408, Note_on_c, 6, 56, 96
1, 418, Note_off_c, 0, 74, 0
1, 418, Note_off_c, 5, 74, 0
1, 420, Note_on_c, 0, 71, 96
1, 420, Note_on_c, 5, 71, 96
1, 430, Note_off_c, 0, 71, 0
1, 430, Note_off_c, 5, 71, 0
1, 432, Note_on_c, 0, 73, 96
1, 432, Note_off_c, 2, 59, 0
1, 432, Note_on_c, 2, 57, 96
1, 432, Note_off_c, 3, 56, 0
1, 432, Note_on_c, 3, 57, 96
1, 432, Note_off_c, 4, 44, 0
1, 432, Note_on_c, 4, 45, 96
1, 432, Note_on_c, 5, 73, 96
1, 432, Note_off_c, 6, 56, 0
1, 432, Note_on_c, 6, 57, 96
1, 442, Note_off_c, 0, 73, 0
1, 442, Note_off_c, 5, 73, 0
1, 444, Note_on_c, 0, 76, 96
1, 444, Note_on_c, 5, 76, 96
1, 450, Note_off_c, 1, 64, 0
1, 453, Note_off_c, 2, 57, 0
1, 453, Note_off_c, 3, 57, 0
1, 453, Note_off_c, 4, 45, 0
1, 453, Note_off_c, 6, 57, 0
1, 454, Note_off_c, 0, 76, 0
1, 454, Note_off_c, 5, 76, 0
1, 456, Note_on_c, 0, 69, 96
1, 456, Note_on_c, 1, 62, 96
1, 456, Note_on_c, 2, 69, 96
1, 456, Note_on_c, 3, 54, 96
1, 456, Note_on_c, 4, 42, 96
1, 456, Note_on_c, 5, 69, 96
1, 456, Note_on_c, 6, 54, 96
1, 466, Note_off_c, 5, 69, 0
1, 468, Note_off_c, 0, 69, 0
1, 468, Note_on_c, 0, 74, 96
1, 468, Note_on_c, 5, 74, 96
1, 478, Note_off_c, 5, 74, 0
1, 480, Note_off_c, 0, 74, 0
1, 480, Note_on_c, 0, 76, 96
1, 480, Note_off_c, 1, 62, 0
1, 480, Note_on_c, 1, 61, 96
1, 480, Note_off_c, 2, 69, 0
1, 480, Note_on_c, 2, 69, 96
1, 480, Note_off_c, 3, 54, 0
1, 480, Note_on_c, 3, 57, 96
1, 480, Note_off_c, 4, 42, 0
1, 480, Note_on_c, 4, 45, 96
1, 480, Note_on_c, 5, 76, 96
1, 480, Note_off_c, 6, 54, 0
1, 480, Note_on_c, 6, 57, 96
1, 490, Note_off_c, 0, 76, 0
1, 490, Note_off_c, 5, 76, 0
1, 492, Note_on_c, 0, 73, 96
1, 492, Note_on_c, 5, 73, 96
1, 502, Note_off_c, 0, 73, 0
1, 502, Note_off_c, 5, 73, 0
1, 504, Note_on_c, 0, 74, 96
1, 504, Note_off_c, 1, 61, 0
1, 504, Note_on_c, 1, 69, 96
1, 504, Note_off_c, 2, 69, 0
1, 504, Note_on_c, 2, 66, 96
1, 504, Note_off_c, 3, 57, 0
1, 504, Note_on_c, 3, 50, 96
1, 504, Note_off_c, 4, 45, 0
1, 504, Note_on_c, 4, 38, 96
1, 504, Note_on_c, 5, 74, 96
1, 504, Note_off_c, 6, 57, 0
1, 504, Note_on_c, 6, 50, 96
1, 514, Note_off_c, 0, 74, 0
1, 514, Note_off_c, 5, 74, 0
1, 516, Note_on_c, 0, 78, 96
1, 516, Note_on_c, 5, 78, 96
1, 525, Note_off_c, 1, 69, 0
1, 525, Note_off_c, 2, 66, 0
1, 525, Note_off_c, 3, 50, 0
1, 525, Note_off_c, 4, 38, 0
1, 525, Note_off_c, 6, 50, 0
1, 526, Note_off_c, 0, 78, 0
1, 526, Note_off_c, 5, 78, 0
1, 528, Note_on_c, 0, 73, 96
1, 528, Note_on_c, 1, 68, 96
1, 528, Note_on_c, 2, 64, 96
1, 528, Note_on_c, 3, 52, 96
1, 528, Note_on_c, 4, 40, 96
1, 528, Note_on_c, 5, 73, 96
1, 528, Note_on_c, 6, 52, 96
1, 538, Note_off_c, 3, 52, 0
1, 538, Note_off_c, 4, 40, 0
1, 538, Note_off_c, 6, 52, 0
1, 540, Note_on_c, 3, 54, 96
1, 540, Note_on_c, 4, 42, 96
1, 540, Note_on_c, 6, 54, 96
1, 550, Note_off_c, 3, 54, 0
1, 550, Note_off_c, 4, 42, 0
1, 550, Note_off_c, 6, 54, 0
1, 552, Note_off_c, 0, 73, 0
1, 552, Note_on_c, 0, 71, 96
1, 552, Note_on_c, 3, 52, 96
1, 552, Note_on_c, 4, 40, 96
1, 552, Note_off_c, 5, 73, 0
1, 552, Note_on_c, 5, 71, 96
1, 552, Note_on_c, 6, 52, 96
1, 562, Note_off_c, 3, 52, 0
1, 562, Note_off_c, 4, 40, 0
1, 562, Note_off_c, 6, 52, 0
1, 564, Note_on_c, 3, 50, 96
1, 564, Note_on_c, 4, 38, 96
1, 564, Note_on_c, 6, 50, 96
1, 570, Note_off_c, 1, 68, 0
1, 570, Note_off_c, 2, 64, 0
1, 573, Note_off_c, 0, 71, 0
1, 573, Note_off_c, 5, 71, 0
1, 574, Note_off_c, 3, 50, 0
1, 574, Note_off_c, 4, 38, 0
1, 574, Note_off_c, 6, 50, 0
1, 576, Note_on_c, 0, 76, 96
1, 576, Note_on_c, 1, 69, 96
1, 576, Note_on_c, 2, 64, 96
1, 576, Note_on_c, 3, 49, 96
1, 576, Note_on_c, 4, 37, 96
1, 576, Note_on_c, 5, 76, 96
1, 576, Note_on_c, 6, 49, 96
1, 586, Note_off_c, 3, 49, 0
1, 586, Note_off_c, 4, 37, 0
1, 586, Note_off_c, 6, 49, 0
1, 588, Note_on_c, 3, 47, 96
1, 588, Note_on_c, 4, 35, 96
1, 588, Note_on_c, 6, 47, 96
1, 597, Note_off_c, 0, 76, 0
1, 597, Note_off_c, 1, 69, 0
1, 597, Note_off_c, 2, 64, 0
1, 597, Note_off_c, 5, 76, 0
1, 598, Note_off_c, 3, 47, 0
1, 598, Note_off_c, 4, 35, 0
1, 598, Note_off_c, 6, 47, 0
1, 600, Note_on_c, 0, 81, 96
1, 600, Note_on_c, 1, 73, 96
1, 600, Note_on_c, 2, 64, 96
1, 600, Note_on_c, 3, 45, 96
1, 600, Note_on_c, 4, 33, 96
1, 600, Note_on_c, 5, 81, 96
1, 600, Note_on_c, 6, 45, 96
1, 604, Note_off_c, 5, 81, 0
1, 604, Note_on_c, 5, 80, 96
1, 608, Note_off_c, 5, 80, 0
1, 608, Note_on_c, 5, 81, 96
1, 624, Note_off_c, 1, 73, 0
1, 624, Note_on_c, 1, 73, 96
1, 624, Note_off_c, 2, 64, 0
1, 624, Note_on_c, 2, 64, 96
1, 624, Note_off_c, 3, 45, 0
1, 624, Note_on_c, 3, 45, 96
1, 624, Note_off_c, 4, 33, 0
1, 624, Note_on_c, 4, 33, 96
1, 624, Note_off_c, 6, 45, 0
1, 624, Note_on_c, 6, 45, 96
1, 631, Note_off_c, 0, 81, 0
1, 632, Note_off_c, 5, 81, 0
1, 636, Note_on_c, 0, 80, 96
1, 636, Note_on_c, 5, 80, 96
1, 641, Note_off_c, 0, 80, 0
1, 641, Note_off_c, 5, 80, 0
1, 642, Note_on_c, 0, 78, 96
1, 642, Note_on_c, 5, 78, 96
1, 647, Note_off_c, 0, 78, 0
1, 647, Note_off_c, 5, 78, 0
1, 648, Note_on_c, 0, 76, 96
1, 648, Note_off_c, 1, 73, 0
1, 648, Note_on_c, 1, 71, 96
1, 648, Note_off_c, 2, 64, 0
1, 648, Note_on_c, 2, 64, 96
1, 648, Note_off_c, 3, 45, 0
1, 648, Note_on_c, 3, 44, 96
1, 648, Note_off_c, 4, 33, 0
1, 648, Note_on_c, 4, 32, 96
1, 648, Note_on_c, 5, 76, 96
1, 648, Note_off_c, 6, 45, 0
1, 648, Note_on_c, 6, 44, 96
1, 653, Note_off_c, 0, 76, 0
1, 653, Note_off_c, 5, 76, 0
1, 654, Note_on_c, 0, 74, 96
1, 654, Note_on_c, 5, 74, 96
1, 659, Note_off_c, 0, 74, 0
1, 659, Note_off_c, 5, 74, 0
1, 660, Note_on_c, 0, 73, 96
1, 660, Note_on_c, 5, 73, 96
1, 665, Note_off_c, 0, 73, 0
1, 665, Note_off_c, 5, 73, 0
1, 666, Note_on_c, 0, 71, 96
1, 666, Note_on_c, 5, 71, 96
1, 669, Note_off_c, 1, 71, 0
1, 669, Note_off_c, 2, 64, 0
1, 669, Note_off_c, 3, 44, 0
1, 669, Note_off_c, 4, 32, 0
1, 669, Note_off_c, 6, 44, 0
1, 671, Note_off_c, 0, 71, 0
1, 671, Note_off_c, 5, 71, 0
1, 672, Note_on_c, 0, 73, 96
1, 672, Note_on_c, 1, 69, 96
1, 672, Note_on_c, 2, 64, 96
1, 672, Note_on_c, 3, 45, 96
1, 672, Note_on_c, 4, 33, 96
1, 672, Note_on_c, 5, 71, 96
1, 672, Note_on_c, 6, 45, 96
1, 684, Note_off_c, 5, 71, 0
1, 684, Note_on_c, 5, 73, 96
1, 696, Note_off_c, 1, 69, 0
1, 696, Note_on_c, 1, 69, 96
1, 696, Note_off_c, 2, 64, 0
1, 696, Note_on_c, 2, 64, 96
1, 696, Note_off_c, 3, 45, 0
1, 696, Note_on_c, 3, 45, 96
1, 696, Note_off_c, 4, 33, 0
1, 696, Note_on_c, 4, 33, 96
1, 696, Note_off_c, 6, 45, 0
1, 696, Note_on_c, 6, 45, 96
1, 698, Note_off_c, 0, 73, 0
1, 700, Note_off_c, 5, 73, 0
1, 702, Note_on_c, 0, 71, 96
1, 702, Note_on_c, 5, 71, 96
1, 707, Note_off_c, 0, 71, 0
1, 707, Note_off_c, 5, 71, 0
1, 708, Note_on_c, 0, 73, 96
1, 708, Note_on_c, 5, 73, 96
1, 713, Note_off_c, 0, 73, 0
1, 713, Note_off_c, 5, 73, 0
1, 714, Note_on_c, 0, 74, 96
1, 714, Note_on_c, 5, 74, 96
1, 719, Note_off_c, 0, 74, 0
1, 719, Note_off_c, 5, 74, 0
1, 720, Note_on_c, 0, 73, 96
1, 720, Note_off_c, 1, 69, 0
1, 720, Note_on_c, 1, 68, 96
1, 720, Note_off_c, 2, 64, 0
1, 720, Note_on_c, 2, 64, 96
1, 720, Note_off_c, 3, 45, 0
1, 720, Note_on_c, 3, 40, 96
1, 720, Note_off_c, 4, 33, 0
1, 720, Note_on_c, 4, 28, 96
1, 720, Note_on_c, 5, 73, 96
1, 720, Note_off_c, 6, 45, 0
1, 720, Note_on_c, 6, 40, 96
1, 725, Note_off_c, 0, 73, 0
1, 725, Note_off_c, 5, 73, 0
1, 726, Note_on_c, 0, 71, 96
1, 726, Note_on_c, 5, 71, 96
1, 731, Note_off_c, 0, 71, 0
1, 731, Note_off_c, 5, 71, 0
1, 732, Note_on_c, 0, 69, 96
1, 732, Note_on_c, 5, 69, 96
1, 737, Note_off_c, 0, 69, 0
1, 737, Note_off_c, 5, 69, 0
1, 738, Note_on_c, 0, 68, 96
1, 738, Note_on_c, 5, 68, 96
1, 741, Note_off_c, 1, 68, 0
1, 741, Note_off_c, 2, 64, 0
1, 741, Note_off_c, 3, 40, 0
1, 741, Note_off_c, 4, 28, 0
1, 741, Note_off_c, 6, 40, 0
1, 743, Note_off_c, 0, 68, 0
1, 743, Note_off_c, 5, 68, 0
1, 744, Note_on_c, 0, 69, 96
1, 744, Note_on_c, 1, 66, 96
1, 744, Note_on_c, 2, 61, 96
1, 744, Note_on_c, 3, 42, 96
1, 744, Note_on_c, 4, 30, 96
1, 744, Note_on_c, 5, 68, 96
1, 744, Note_on_c, 6, 42, 96
1, 750, Note_off_c, 3, 42, 0
1, 750, Note_off_c, 4, 30, 0
1, 756, Note_off_c, 5, 68, 0
1, 756, Note_on_c, 5, 69, 96
1, 765, Note_off_c, 6, 42, 0
1, 768, Note_off_c, 1, 66, 0
1, 768, Note_on_c, 1, 66, 96
1, 768, Note_off_c, 2, 61, 0
1, 768, Note_on_c, 2, 59, 96
1, 768, Note_on_c, 3, 38, 96
1, 768, Note_on_c, 4, 26, 96
1, 768, Note_on_c, 6, 38, 96
1, 774, Note_off_c, 3, 38, 0
1, 774, Note_off_c, 4, 26, 0
1, 775, Note_off_c, 0, 69, 0
1, 777, Note_off_c, 5, 69, 0
1, 780, Note_on_c, 0, 68, 96
1, 780, Note_on_c, 5, 68, 96
1, 785, Note_off_c, 0, 68, 0
1, 785, Note_off_c, 5, 68, 0
1, 786, Note_on_c, 0, 66, 96
1, 786, Note_on_c, 5, 66, 96
1, 789, Note_off_c, 6, 38, 0
1, 791, Note_off_c, 0, 66, 0
1, 791, Note_off_c, 5, 66, 0
1, 792, Note_on_c, 0, 64, 96
1, 792, Note_off_c, 1, 66, 0
1, 792, Note_on_c, 1, 68, 96
1, 792, Note_off_c, 2, 59, 0
1, 792, Note_on_c, 2, 59, 96
1, 792, Note_on_c, 3, 40, 96
1, 792, Note_on_c, 4, 28, 96
1, 792, Note_on_c, 5, 64, 96
1, 792, Note_on_c, 6, 40, 96
1, 797, Note_off_c, 0, 64, 0
1, 797, Note_off_c, 5, 64, 0
1, 798, Note_on_c, 0, 62, 96
1, 798, Note_off_c, 3, 40, 0
1, 798, Note_off_c, 4, 28, 0
1, 798, Note_on_c, 5, 62, 96
1, 803, Note_off_c, 0, 62, 0
1, 803, Note_off_c, 5, 62, 0
1, 804, Note_on_c, 0, 61, 96
1, 804, Note_on_c, 5, 61, 96
1, 809, Note_off_c, 0, 61, 0
1, 809, Note_off_c, 5, 61, 0
1, 810, Note_on_c, 0, 59, 96
1, 810, Note_on_c, 5, 59, 96
1, 813, Note_off_c, 1, 68, 0
1, 813, Note_off_c, 2, 59, 0
1, 813, Note_off_c, 6, 40, 0
1, 815, Note_off_c, 0, 59, 0
1, 815, Note_off_c, 5, 59, 0
1, 816, Note_on_c, 0, 57, 96
1, 816, Note_on_c, 1, 69, 96
1, 816, Note_on_c, 2, 61, 96
1, 816, Note_on_c, 3, 45, 96
1, 816, Note_on_c, 4, 33, 96
1, 816, Note_on_c, 5, 57, 96
1, 816, Note_on_c, 6, 45, 96
1, 820, Note_off_c, 0, 57, 0
1, 820, Note_on_c, 0, 59, 96
1, 820, Note_off_c, 5, 57, 0
1, 820, Note_on_c, 5, 59, 96
1, 824, Note_off_c, 0, 59, 0
1, 824, Note_on_c, 0, 57, 96
1, 824, Note_off_c, 5, 59, 0
1, 824, Note_on_c, 5, 57, 96
1, 826, Note_off_c, 2, 61, 0
1, 826, Note_off_c, 3, 45, 0
1, 826, Note_off_c, 4, 33, 0
1, 826, Note_off_c, 6, 45, 0
1, 828, Note_off_c, 0, 57, 0
1, 828, Note_on_c, 0, 59, 96
1, 828, Note_on_c, 2, 59, 96
1, 828, Note_on_c, 3, 44, 96
1, 828, Note_on_c, 4, 32, 96
1, 828, Note_off_c, 5, 57, 0
1, 828, Note_on_c, 5, 59, 96
1, 828, Note_on_c, 6, 44, 96
1, 832, Note_off_c, 0, 59, 0
1, 832, Note_on_c, 0, 57, 96
1, 832, Note_off_c, 5, 59, 0
1, 832, Note_on_c, 5, 57, 96
1, 836, Note_off_c, 0, 57, 0
1, 836, Note_on_c, 0, 59, 96
1, 836, Note_off_c, 5, 57, 0
1, 836, Note_on_c, 5, 59, 96
1, 837, Note_off_c, 1, 69, 0
1, 838, Note_off_c, 2, 59, 0
1, 838, Note_off_c, 3, 44, 0
1, 838, Note_off_c, 4, 32, 0
1, 838, Note_off_c, 6, 44, 0
1, 840, Note_off_c, 0, 59, 0
1, 840, Note_on_c, 0, 57, 96
1, 840, Note_on_c, 1, 64, 96
1, 840, Note_on_c, 2, 61, 96
1, 840, Note_on_c, 3, 45, 96
1, 840, Note_on_c, 4, 33, 96
1, 840, Note_off_c, 5, 59, 0
1, 840, Note_on_c, 5, 57, 96
1, 840, Note_on_c, 6, 45, 96
1, 844, Note_off_c, 0, 57, 0
1, 844, Note_on_c, 0, 59, 96
1, 844, Note_off_c, 5, 57, 0
1, 844, Note_on_c, 5, 59, 96
1, 848, Note_off_c, 0, 59, 0
1, 848, Note_on_c, 0, 57, 96
1, 848, Note_off_c, 5, 59, 0
1, 848, Note_on_c, 5, 57, 96
1, 850, Note_off_c, 2, 61, 0
1, 850, Note_off_c, 3, 45, 0
1, 850, Note_off_c, 4, 33, 0
1, 850, Note_off_c, 6, 45, 0
1, 852, Note_on_c, 2, 62, 96
1, 852, Note_on_c, 3, 47, 96
1, 852, Note_on_c, 4, 35, 96
1, 852, Note_on_c, 6, 47, 96
1, 861, Note_off_c, 1, 64, 0
1, 862, Note_off_c, 0, 57, 0
1, 862, Note_off_c, 2, 62, 0
1, 862, Note_off_c, 3, 47, 0
1, 862, Note_off_c, 4, 35, 0
1, 862, Note_off_c, 5, 57, 0
1, 862, Note_off_c, 6, 47, 0
1, 864, Note_on_c, 0, 76, 96
1, 864, Note_on_c, 1, 69, 96
1, 864, Note_on_c, 2, 64, 96
1, 864, Note_on_c, 3, 49, 96
1, 864, Note_on_c, 4, 37, 96
1, 864, Note_on_c, 5, 76, 96
1, 864, Note_on_c, 6, 49, 96
1, 874, Note_off_c, 2, 64, 0
1, 874, Note_off_c, 3, 49, 0
1, 874, Note_off_c, 4, 37, 0
1, 874, Note_off_c, 6, 49, 0
1, 876, Note_on_c, 2, 61, 96
1, 876, Note_on_c, 3, 45, 96
1, 876, Note_on_c, 4, 33, 96
1, 876, Note_on_c, 6, 45, 96
1, 885, Note_off_c, 0, 76, 0
1, 885, Note_off_c, 1, 69, 0
1, 885, Note_off_c, 5, 76, 0
1, 886, Note_off_c, 2, 61, 0
1, 886, Note_off_c, 3, 45, 0
1, 886, Note_off_c, 4, 33, 0
1, 886, Note_off_c, 6, 45, 0
1, 888, Note_on_c, 0, 78, 96
1, 888, Note_on_c, 1, 69, 96
1, 888, Note_on_c, 2, 62, 96
1, 888, Note_on_c, 3, 50, 96
1, 888, Note_on_c, 4, 38, 96
1, 888, Note_on_c, 5, 78, 96
1, 888, Note_on_c, 6, 50, 96
1, 894, Note_off_c, 1, 69, 0
1, 894, Note_off_c, 2, 62, 0
1, 900, Note_off_c, 0, 78, 0
1, 900, Note_on_c, 0, 73, 96
1, 900, Note_off_c, 5, 78, 0
1, 900, Note_on_c, 5, 73, 96
1, 909, Note_off_c, 3, 50, 0
1, 909, Note_off_c, 4, 38, 0
1, 909, Note_off_c, 6, 50, 0
1, 912, Note_off_c, 0, 73, 0
1, 912, Note_on_c, 0, 74, 96
1, 912, Note_on_c, 1, 71, 96
1, 912, Note_on_c, 2, 66, 96
1, 912, Note_on_c, 3, 38, 96
1, 912, Note_on_c, 4, 26, 96
1, 912, Note_off_c, 5, 73, 0
1, 912, Note_on_c, 5, 74, 96
1, 912, Note_on_c, 6, 38, 96
1, 918, Note_off_c, 1, 71, 0
1, 918, Note_off_c, 2, 66, 0
1, 922, Note_off_c, 0, 74, 0
1, 922, Note_off_c, 5, 74, 0
1, 924, Note_on_c, 0, 78, 96
1, 924, Note_on_c, 5, 78, 96
1, 933, Note_off_c, 3, 38, 0
1, 933, Note_off_c, 4, 26, 0
1, 933, Note_off_c, 6, 38, 0
1, 934, Note_off_c, 0, 78, 0
1, 934, Note_off_c, 5, 78, 0
1, 936, Note_on_c, 0, 71, 96
1, 936, Note_on_c, 3, 50, 96
1, 936, Note_on_c, 4, 38, 96
1, 936, Note_on_c, 5, 71, 96
1, 936, Note_on_c, 6, 50, 96
1, 946, Note_off_c, 0, 71, 0
1, 946, Note_off_c, 5, 71, 0
1, 948, Note_on_c, 0, 74, 96
1, 948, Note_on_c, 5, 74, 96
1, 957, Note_off_c, 3, 50, 0
1, 957, Note_off_c, 4, 38, 0
1, 957, Note_off_c, 6, 50, 0
1, 958, Note_off_c, 0, 74, 0
1, 958, Note_off_c, 5, 74, 0
1, 960, Note_on_c, 0, 80, 96
1, 960, Note_on_c, 1, 76, 96
1, 960, Note_on_c, 2, 59, 96
1, 960, Note_on_c, 3, 52, 96
1, 960, Note_on_c, 4, 40, 96
1, 960, Note_on_c, 5, 80, 96
1, 960, Note_on_c, 6, 52, 96
1, 966, Note_off_c, 1, 76, 0
1, 966, Note_off_c, 2, 59, 0
1, 972, Note_off_c, 0, 80, 0
1, 972, Note_on_c, 0, 73, 96
1, 972, Note_off_c, 5, 80, 0
1, 972, Note_on_c, 5, 73, 96
1, 981, Note_off_c, 3, 52, 0
1, 981, Note_off_c, 4, 40, 0
1, 981, Note_off_c, 6, 52, 0
1, 984, Note_off_c, 0, 73, 0
1, 984, Note_on_c, 0, 74, 96
1, 984, Note_on_c, 1, 71, 96
1, 984, Note_on_c, 2, 68, 96
1, 984, Note_on_c, 3, 40, 96
1, 984, Note_on_c, 4, 28, 96
1, 984, Note_off_c, 5, 73, 0
1, 984, Note_on_c, 5, 74, 96
1, 984, Note_on_c, 6, 40, 96
1, 990, Note_off_c, 1, 71, 0
1, 990, Note_off_c, 2, 68, 0
1, 994, Note_off_c, 0, 74, 0
1, 994, Note_off_c, 5, 74, 0
1, 996, Note_on_c, 0, 78, 96
1, 996, Note_on_c, 5, 78, 96
1, 1005, Note_off_c, 3, 40, 0
1, 1005, Note_off_c, 4, 28, 0
1, 1005, Note_off_c, 6, 40, 0
1, 1006, Note_off_c, 0, 78, 0
1, 1006, Note_off_c, 5, 78, 0
1, 1008, Note_on_c, 0, 71, 96
1, 1008, Note_on_c, 3, 52, 96
1, 1008, Note_on_c, 4, 40, 96
1, 1008, Note_on_c, 5, 71, 96
1, 1008, Note_on_c, 6, 52, 96
1, 1018, Note_off_c, 0, 71, 0
1, 1018, Note_off_c, 5, 71, 0
1, 1020, Note_on_c, 0, 74, 96
1, 1020, Note_on_c, 5, 74, 96
1, 1029, Note_off_c, 3, 52, 0
1, 1029, Note_off_c, 4, 40, 0
1, 1029, Note_off_c, 6, 52, 0
1, 1030, Note_off_c, 0, 74, 0
1, 1030, Note_off_c, 5, 74, 0
1, 1032, Note_on_c, 0, 81, 96
1, 1032, Note_on_c, 1, 66, 96
1, 1032, Note_on_c, 2, 73, 96
1, 1032, Note_on_c, 3, 54, 96
1, 1032, Note_on_c, 4, 42, 96
1, 1032, Note_on_c, 5, 81, 96
1, 1032, Note_on_c, 6, 54, 96
1, 1038, Note_off_c, 1, 66, 0
1, 1038, Note_off_c, 2, 73, 0
1, 1044, Note_off_c, 0, 81, 0
1, 1044, Note_on_c, 0, 73, 96
1, 1044, Note_off_c, 5, 81, 0
1, 1044, Note_on_c, 5, 73, 96
1, 1053, Note_off_c, 3, 54, 0
1, 1053, Note_off_c, 4, 42, 0
1, 1053, Note_off_c, 6, 54, 0
1, 1056, Note_off_c, 0, 73, 0
1, 1056, Note_on_c, 0, 74, 96
1, 1056, Note_on_c, 1, 69, 96
1, 1056, Note_on_c, 2, 66, 96
1, 1056, Note_on_c, 3, 42, 96
1, 1056, Note_on_c, 4, 30, 96
1, 1056, Note_off_c, 5, 73, 0
1, 1056, Note_on_c, 5, 74, 96
1, 1056, Note_on_c, 6, 42, 96
1, 1062, Note_off_c, 1, 69, 0
1, 1062, Note_off_c, 2, 66, 0
1, 1066, Note_off_c, 0, 74, 0
1, 1066, Note_off_c, 5, 74, 0
1, 1068, Note_on_c, 0, 78, 96
1, 1068, Note_on_c, 5, 78, 96
1, 1077, Note_off_c, 3, 42, 0
1, 1077, Note_off_c, 4, 30, 0
1, 1077, Note_off_c, 6, 42, 0
1, 1078, Note_off_c, 0, 78, 0
1, 1078, Note_off_c, 5, 78, 0
1, 1080, Note_on_c, 0, 71, 96
1, 1080, Note_on_c, 3, 54, 96
1, 1080, Note_on_c, 4, 42, 96
1, 1080, Note_on_c, 5, 71, 96
1, 1080, Note_on_c, 6, 54, 96
1, 1090, Note_off_c, 0, 71, 0
1, 1090, Note_off_c, 5, 71, 0
1, 1092, Note_on_c, 0, 74, 96
1, 1092, Note_on_c, 5, 74, 96
1, 1101, Note_off_c, 3, 54, 0
1, 1101, Note_off_c, 4, 42, 0
1, 1101, Note_off_c, 6, 54, 0
1, 1102, Note_off_c, 0, 74, 0
1, 1102, Note_off_c, 5, 74, 0
1, 1104, Note_on_c, 0, 83, 96
1, 1104, Note_on_c, 1, 76, 96
1, 1104, Note_on_c, 2, 59, 96
1, 1104, Note_on_c, 3, 56, 96
1, 1104, Note_on_c, 4, 44, 96
1, 1104, Note_on_c, 5, 83, 96
1, 1104, Note_on_c, 6, 56, 96
1, 1110, Note_off_c, 1, 76, 0
1, 1110, Note_off_c, 2, 59, 0
1, 1125, Note_off_c, 3, 56, 0
1, 1125, Note_off_c, 4, 44, 0
1, 1125, Note_off_c, 6, 56, 0
1, 1128, Note_on_c, 1, 71, 96
1, 1128, Note_on_c, 2, 64, 96
1, 1128, Note_on_c, 3, 44, 96
1, 1128, Note_on_c, 4, 32, 96
1, 1128, Note_on_c, 6, 44, 96
1, 1130, Note_off_c, 0, 83, 0
1, 1130, Note_off_c, 5, 83, 0
1, 1134, Note_on_c, 0, 81, 96
1, 1134, Note_off_c, 1, 71, 0
1, 1134, Note_off_c, 2, 64, 0
1, 1134, Note_on_c, 5, 81, 96
1, 1139, Note_off_c, 0, 81, 0
1, 1139, Note_off_c, 5, 81, 0
1, 1140, Note_on_c, 0, 80, 96
1, 1140, Note_on_c, 5, 80, 96
1, 1145, Note_off_c, 0, 80, 0
1, 1145, Note_off_c, 5, 80, 0
1, 1146, Note_on_c, 0, 78, 96
1, 1146, Note_on_c, 5, 78, 96
1, 1149, Note_off_c, 3, 44, 0
1, 1149, Note_off_c, 4, 32, 0
1, 1149, Note_off_c, 6, 44, 0
1, 1151, Note_off_c, 0, 78, 0
1, 1151, Note_off_c, 5, 78, 0
1, 1152, Note_on_c, 0, 76, 96
1, 1152, Note_on_c, 1, 71, 96
1, 1152, Note_on_c, 2, 64, 96
1, 1152, Note_on_c, 3, 56, 96
1, 1152, Note_on_c, 4, 44, 96
1, 1152, Note_on_c, 5, 76, 96
1, 1152, Note_on_c, 6, 56, 96
1, 1157, Note_off_c, 0, 76, 0
1, 1157, Note_off_c, 5, 76, 0
1, 1158, Note_on_c, 0, 74, 96
1, 1158, Note_off_c, 1, 71, 0
1, 1158, Note_off_c, 2, 64, 0
1, 1158, Note_on_c, 5, 74, 96
1, 1163, Note_off_c, 0, 74, 0
1, 1163, Note_off_c, 5, 74, 0
1, 1164, Note_on_c, 0, 73, 96
1, 1164, Note_on_c, 5, 73, 96
1, 1169, Note_off_c, 0, 73, 0
1, 1169, Note_off_c, 5, 73, 0
1, 1170, Note_on_c, 0, 71, 96
1, 1170, Note_on_c, 5, 71, 96
1, 1173, Note_off_c, 3, 56, 0
1, 1173, Note_off_c, 4, 44, 0
1, 1173, Note_off_c, 6, 56, 0
1, 1175, Note_off_c, 0, 71, 0
1, 1175, Note_off_c, 5, 71, 0
1, 1176, Note_on_c, 0, 73, 96
1, 1176, Note_on_c, 1, 69, 96
1, 1176, Note_on_c, 2, 64, 96
1, 1176, Note_on_c, 3, 57, 96
1, 1176, Note_on_c, 4, 45, 96
1, 1176, Note_on_c, 5, 73, 96
1, 1176, Note_on_c, 6, 57, 96
1, 1188, Note_off_c, 0, 73, 0
1, 1188, Note_on_c, 0, 76, 96
1, 1188, Note_off_c, 5, 73, 0
1, 1188, Note_on_c, 5, 76, 96
1, 1200, Note_off_c, 0, 76, 0
1, 1200, Note_on_c, 0, 80, 96
1, 1200, Note_off_c, 1, 69, 0
1, 1200, Note_on_c, 1, 71, 96
1, 1200, Note_off_c, 2, 64, 0
1, 1200, Note_on_c, 2, 62, 96
1, 1200, Note_off_c, 3, 57, 0
1, 1200, Note_on_c, 3, 57, 96
1, 1200, Note_off_c, 4, 45, 0
1, 1200, Note_on_c, 4, 45, 96
1, 1200, Note_off_c, 5, 76, 0
1, 1200, Note_on_c, 5, 80, 96
1, 1200, Note_off_c, 6, 57, 0
1, 1200, Note_on_c, 6, 57, 96
1, 1210, Note_off_c, 0, 80, 0
1, 1210, Note_off_c, 5, 80, 0
1, 1212, Note_on_c, 0, 83, 96
1, 1212, Note_on_c, 5, 83, 96
1, 1222, Note_off_c, 0, 83, 0
1, 1222, Note_off_c, 5, 83, 0
1, 1224, Note_on_c, 0, 81, 96
1, 1224, Note_off_c, 1, 71, 0
1, 1224, Note_on_c, 1, 73, 96
1, 1224, Note_off_c, 2, 62, 0
1, 1224, Note_on_c, 2, 64, 96
1, 1224, Note_off_c, 3, 57, 0
1, 1224, Note_on_c, 3, 57, 96
1, 1224, Note_off_c, 4, 45, 0
1, 1224, Note_on_c, 4, 45, 96
1, 1224, Note_on_c, 5, 81, 96
1, 1224, Note_off_c, 6, 57, 0
1, 1224, Note_on_c, 6, 57, 96
1, 1234, Note_off_c, 0, 81, 0
1, 1234, Note_off_c, 5, 81, 0
1, 1236, Note_on_c, 0, 78, 96
1, 1236, Note_on_c, 5, 78, 96
1, 1245, Note_off_c, 1, 73, 0
1, 1245, Note_off_c, 2, 64, 0
1, 1245, Note_off_c, 3, 57, 0
1, 1245, Note_off_c, 4, 45, 0
1, 1245, Note_off_c, 6, 57, 0
1, 1246, Note_off_c, 0, 78, 0
1, 1246, Note_off_c, 5, 78, 0
1, 1248, Note_on_c, 0, 75, 96
1, 1248, Note_on_c, 1, 71, 96
1, 1248, Note_on_c, 2, 66, 96
1, 1248, Note_on_c, 3, 57, 96
1, 1248, Note_on_c, 4, 45, 96
1, 1248, Note_on_c, 5, 75, 96
1, 1248, Note_on_c, 6, 57, 96
1, 1260, Note_off_c, 0, 75, 0
1, 1260, Note_on_c, 0, 76, 96
1, 1260, Note_off_c, 5, 75, 0
1, 1260, Note_on_c, 5, 76, 96
1, 1266, Note_off_c, 0, 76, 0
1, 1266, Note_on_c, 0, 78, 96
1, 1266, Note_off_c, 5, 76, 0
1, 1266, Note_on_c, 5, 78, 96
1, 1269, Note_off_c, 1, 71, 0
1, 1269, Note_off_c, 2, 66, 0
1, 1269, Note_off_c, 3, 57, 0
1, 1269, Note_off_c, 4, 45, 0
1, 1269, Note_off_c, 6, 57, 0
1, 1271, Note_off_c, 0, 78, 0
1, 1271, Note_off_c, 5, 78, 0
1, 1272, Note_on_c, 0, 76, 96
1, 1272, Note_on_c, 1, 71, 96
1, 1272, Note_on_c, 2, 59, 96
1, 1272, Note_on_c, 3, 56, 96
1, 1272, Note_on_c, 4, 44, 96
1, 1272, Note_on_c, 5, 76, 96
1, 1272, Note_on_c, 6, 56, 96
1, 1282, Note_off_c, 1, 71, 0
1, 1282, Note_off_c, 3, 56, 0
1, 1282, Note_off_c, 4, 44, 0
1, 1282, Note_off_c, 6, 56, 0
1, 1284, Note_on_c, 1, 69, 96
1, 1284, Note_on_c, 3, 54, 96
1, 1284, Note_on_c, 4, 42, 96
1, 1284, Note_on_c, 6, 54, 96
1, 1293, Note_off_c, 2, 59, 0
1, 1294, Note_off_c, 1, 69, 0
1, 1294, Note_off_c, 3, 54, 0
1, 1294, Note_off_c, 4, 42, 0
1, 1294, Note_off_c, 6, 54, 0
1, 1296, Note_on_c, 1, 71, 96
1, 1296, Note_on_c, 2, 64, 96
1, 1296, Note_on_c, 3, 56, 96
1, 1296, Note_on_c, 4, 44, 96
1, 1296, Note_on_c, 6, 56, 96
1, 1303, Note_off_c, 0, 76, 0
1, 1303, Note_off_c, 5, 76, 0
1, 1306, Note_off_c, 1, 71, 0
1, 1306, Note_off_c, 3, 56, 0
1, 1306, Note_off_c, 4, 44, 0
1, 1306, Note_off_c, 6, 56, 0
1, 1308, Note_on_c, 0, 74, 96
1, 1308, Note_on_c, 1, 68, 96
1, 1308, Note_on_c, 3, 52, 96
1, 1308, Note_on_c, 4, 40, 96
1, 1308, Note_on_c, 5, 74, 96
1, 1308, Note_on_c, 6, 52, 96
1, 1317, Note_off_c, 2, 64, 0
1, 1318, Note_off_c, 0, 74, 0
1, 1318, Note_off_c, 1, 68, 0
1, 1318, Note_off_c, 3, 52, 0
1, 1318, Note_off_c, 4, 40, 0
1, 1318, Note_off_c, 5, 74, 0
1, 1318, Note_off_c, 6, 52, 0
1, 1320, Note_on_c, 0, 73, 96
1, 1320, Note_on_c, 1, 69, 96
1, 1320, Note_on_c, 2, 64, 96
1, 1320, Note_on_c, 3, 57, 96
1, 1320, Note_on_c, 4, 45, 96
1, 1320, Note_on_c, 5, 73, 96
1, 1320, Note_on_c, 6, 57, 96
1, 1332, Note_off_c, 0, 73, 0
1, 1332, Note_on_c, 0, 69, 96
1, 1332, Note_off_c, 5, 73, 0
1, 1332, Note_on_c, 5, 69, 96
1, 1341, Note_off_c, 3, 57, 0
1, 1341, Note_off_c, 4, 45, 0
1, 1341, Note_off_c, 6, 57, 0
1, 1344, Note_off_c, 0, 69, 0
1, 1344, Note_on_c, 0, 68, 96
1, 1344, Note_off_c, 1, 69, 0
1, 1344, Note_on_c, 1, 62, 96
1, 1344, Note_off_c, 2, 64, 0
1, 1344, Note_on_c, 2, 64, 96
1, 1344, Note_on_c, 3, 45, 96
1, 1344, Note_on_c, 4, 33, 96
1, 1344, Note_off_c, 5, 69, 0
1, 1344, Note_on_c, 5, 68, 96
1, 1344, Note_on_c, 6, 45, 96
1, 1354, Note_off_c, 0, 68, 0
1, 1354, Note_off_c, 5, 68, 0
1, 1356, Note_on_c, 0, 71, 96
1, 1356, Note_on_c, 5, 71, 96
1, 1365, Note_off_c, 1, 62, 0
1, 1365, Note_off_c, 6, 45, 0
1, 1366, Note_off_c, 0, 71, 0
1, 1366, Note_off_c, 5, 71, 0
1, 1368, Note_on_c, 0, 69, 96
1, 1368, Note_on_c, 1, 61, 96
1, 1368, Note_off_c, 2, 64, 0
1, 1368, Note_on_c, 2, 64, 96
1, 1368, Note_off_c, 3, 45, 0
1, 1368, Note_on_c, 3, 45, 96
1, 1368, Note_off_c, 4, 33, 0
1, 1368, Note_on_c, 4, 33, 96
1, 1368, Note_on_c, 5, 69, 96
1, 1368, Note_on_c, 6, 45, 96
1, 1378, Note_off_c, 0, 69, 0
1, 1378, Note_off_c, 5, 69, 0
1, 1380, Note_on_c, 0, 66, 96
1, 1380, Note_on_c, 5, 66, 96
1, 1389, Note_off_c, 1, 61, 0
1, 1389, Note_off_c, 2, 64, 0
1, 1389, Note_off_c, 3, 45, 0
1, 1389, Note_off_c, 4, 33, 0
1, 1389, Note_off_c, 6, 45, 0
1, 1390, Note_off_c, 0, 66, 0
1, 1390, Note_off_c, 5, 66, 0
1, 1392, Note_on_c, 0, 63, 96
1, 1392, Note_on_c, 1, 59, 96
1, 1392, Note_on_c, 2, 66, 96
1, 1392, Note_on_c, 3, 45, 96
1, 1392, Note_on_c, 4, 33, 96
1, 1392, Note_on_c, 5, 63, 96
1, 1392, Note_on_c, 6, 45, 96
1, 1404, Note_off_c, 0, 63, 0
1, 1404, Note_on_c, 0, 64, 96
1, 1404, Note_off_c, 5, 63, 0
1, 1404, Note_on_c, 5, 64, 96
1, 1410, Note_off_c, 0, 64, 0
1, 1410, Note_on_c, 0, 66, 96
1, 1410, Note_off_c, 5, 64, 0
1, 1410, Note_on_c, 5, 66, 96
1, 1413, Note_off_c, 2, 66, 0
1, 1413, Note_off_c, 3, 45, 0
1, 1413, Note_off_c, 4, 33, 0
1, 1413, Note_off_c, 6, 45, 0
1, 1415, Note_off_c, 0, 66, 0
1, 1415, Note_off_c, 5, 66, 0
1, 1416, Note_on_c, 0, 64, 96
1, 1416, Note_off_c, 1, 59, 0
1, 1416, Note_on_c, 1, 59, 96
1, 1416, Note_on_c, 2, 59, 96
1, 1416, Note_on_c, 3, 44, 96
1, 1416, Note_on_c, 4, 32, 96
1, 1416, Note_on_c, 5, 64, 96
1, 1416, Note_on_c, 6, 44, 96
1, 1426, Note_off_c, 6, 44, 0
1, 1428, Note_off_c, 3, 44, 0
1, 1428, Note_on_c, 3, 42, 96
1, 1428, Note_off_c, 4, 32, 0
1, 1428, Note_on_c, 4, 30, 96
1, 1428, Note_on_c, 6, 42, 96
1, 1437, Note_off_c, 2, 59, 0
1, 1438, Note_off_c, 6, 42, 0
1, 1440, Note_off_c, 1, 59, 0
1, 1440, Note_on_c, 1, 59, 96
1, 1440, Note_on_c, 2, 56, 96
1, 1440, Note_off_c, 3, 42, 0
1, 1440, Note_on_c, 3, 40, 96
1, 1440, Note_off_c, 4, 30, 0
1, 1440, Note_on_c, 4, 28, 96
1, 1440, Note_on_c, 6, 40, 96
1, 1447, Note_off_c, 0, 64, 0
1, 1447, Note_off_c, 5, 64, 0
1, 1450, Note_off_c, 6, 40, 0
1, 1452, Note_on_c, 0, 66, 96
1, 1452, Note_off_c, 3, 40, 0
1, 1452, Note_on_c, 3, 38, 96
1, 1452, Note_off_c, 4, 28, 0
1, 1452, Note_on_c, 4, 26, 96
1, 1452, Note_on_c, 5, 66, 96
1, 1452, Note_on_c, 6, 38, 96
1, 1457, Note_off_c, 0, 66, 0
1, 1457, Note_off_c, 5, 66, 0
1, 1458, Note_on_c, 0, 68, 96
1, 1458, Note_on_c, 5, 68, 96
1, 1461, Note_off_c, 1, 59, 0
1, 1461, Note_off_c, 2, 56, 0
1, 1462, Note_off_c, 3, 38, 0
1, 1462, Note_off_c, 4, 26, 0
1, 1462, Note_off_c, 6, 38, 0
1, 1463, Note_off_c, 0, 68, 0
1, 1463, Note_off_c, 5, 68, 0
1, 1464, Note_on_c, 0, 69, 96
1, 1464, Note_on_c, 1, 64, 96
1, 1464, Note_on_c, 2, 52, 96
1, 1464, Note_on_c, 3, 37, 96
1, 1464, Note_on_c, 4, 25, 96
1, 1464, Note_on_c, 5, 69, 96
1, 1464, Note_on_c, 6, 37, 96
1, 1470, Note_off_c, 1, 64, 0
1, 1470, Note_off_c, 2, 52, 0
1, 1476, Note_off_c, 0, 69, 0
1, 1476, Note_on_c, 0, 71, 96
1, 1476, Note_off_c, 5, 69, 0
1, 1476, Note_on_c, 5, 71, 96
1, 1482, Note_off_c, 0, 71, 0
1, 1482, Note_on_c, 0, 73, 96
1, 1482, Note_off_c, 5, 71, 0
1, 1482, Note_on_c, 5, 73, 96
1, 1485, Note_off_c, 3, 37, 0
1, 1485, Note_off_c, 4, 25, 0
1, 1485, Note_off_c, 6, 37, 0
1, 1487, Note_off_c, 0, 73, 0
1, 1487, Note_off_c, 5, 73, 0
1, 1488, Note_on_c, 0, 74, 96
1, 1488, Note_on_c, 1, 66, 96
1, 1488, Note_on_c, 2, 57, 96
1, 1488, Note_on_c, 3, 42, 96
1, 1488, Note_on_c, 4, 30, 96
1, 1488, Note_on_c, 5, 74, 96
1, 1488, Note_on_c, 6, 42, 96
1, 1494, Note_off_c, 1, 66, 0
1, 1494, Note_off_c, 2, 57, 0
1, 1509, Note_off_c, 3, 42, 0
1, 1509, Note_off_c, 4, 30, 0
1, 1509, Note_off_c, 6, 42, 0
1, 1512, Note_on_c, 1, 64, 96
1, 1512, Note_on_c, 2, 59, 96
1, 1512, Note_on_c, 3, 44, 96
1, 1512, Note_on_c, 4, 32, 96
1, 1512, Note_on_c, 6, 44, 96
1, 1518, Note_off_c, 1, 64, 0
1, 1518, Note_off_c, 2, 59, 0
1, 1519, Note_off_c, 0, 74, 0
1, 1519, Note_off_c, 5, 74, 0
1, 1524, Note_on_c, 0, 73, 96
1, 1524, Note_on_c, 5, 73, 96
1, 1529, Note_off_c, 0, 73, 0
1, 1529, Note_off_c, 5, 73, 0
1, 1530, Note_on_c, 0, 71, 96
1, 1530, Note_on_c, 5, 71, 96
1, 1533, Note_off_c, 3, 44, 0
1, 1533, Note_off_c, 4, 32, 0
1, 1533, Note_off_c, 6, 44, 0
1, 1535, Note_off_c, 0, 71, 0
1, 1535, Note_off_c, 5, 71, 0
1, 1536, Note_on_c, 0, 73, 96
1, 1536, Note_on_c, 1, 64, 96
1, 1536, Note_on_c, 2, 57, 96
1, 1536, Note_on_c, 3, 45, 96
1, 1536, Note_on_c, 4, 33, 96
1, 1536, Note_on_c, 5, 73, 96
1, 1536, Note_on_c, 6, 45, 96
1, 1542, Note_off_c, 1, 64, 0
1, 1542, Note_off_c, 2, 57, 0
1, 1548, Note_off_c, 0, 73, 0
1, 1548, Note_on_c, 0, 74, 96
1, 1548, Note_off_c, 5, 73, 0
1, 1548, Note_on_c, 5, 74, 96
1, 1554, Note_off_c, 0, 74, 0
1, 1554, Note_on_c, 0, 76, 96
1, 1554, Note_off_c, 5, 74, 0
1, 1554, Note_on_c, 5, 76, 96
1, 1557, Note_off_c, 3, 45, 0
1, 1557, Note_off_c, 4, 33, 0
1, 1557, Note_off_c, 6, 45, 0
1, 1559, Note_off_c, 0, 76, 0
1, 1559, Note_off_c, 5, 76, 0
1, 1560, Note_on_c, 0, 78, 96
1, 1560, Note_on_c, 1, 62, 96
1, 1560, Note_on_c, 2, 57, 96
1, 1560, Note_on_c, 3, 38, 96
1, 1560, Note_on_c, 4, 26, 96
1, 1560, Note_on_c, 5, 78, 96
1, 1560, Note_on_c, 6, 38, 96
1, 1566, Note_off_c, 1, 62, 0
1, 1566, Note_off_c, 2, 57, 0
1, 1581, Note_off_c, 3, 38, 0
1, 1581, Note_off_c, 4, 26, 0
1, 1581, Note_off_c, 6, 38, 0
1, 1584, Note_on_c, 1, 69, 96
1, 1584, Note_on_c, 2, 62, 96
1, 1584, Note_on_c, 3, 50, 96
1, 1584, Note_on_c, 4, 38, 96
1, 1584, Note_on_c, 6, 50, 96
1, 1590, Note_off_c, 1, 69, 0
1, 1590, Note_off_c, 2, 62, 0
1, 1591, Note_off_c, 0, 78, 0
1, 1591, Note_off_c, 5, 78, 0
1, 1596, Note_on_c, 0, 76, 96
1, 1596, Note_on_c, 5, 76, 96
1, 1601, Note_off_c, 0, 76, 0
1, 1601, Note_off_c, 5, 76, 0
1, 1602, Note_on_c, 0, 74, 96
1, 1602, Note_on_c, 5, 74, 96
1, 1605, Note_off_c, 3, 50, 0
1, 1605, Note_off_c, 4, 38, 0
1, 1605, Note_off_c, 6, 50, 0
1, 1607, Note_off_c, 0, 74, 0
1, 1607, Note_off_c, 5, 74, 0
1, 1608, Note_on_c, 0, 76, 96
1, 1608, Note_on_c, 1, 69, 96
1, 1608, Note_on_c, 2, 61, 96
1, 1608, Note_on_c, 3, 57, 96
1, 1608, Note_on_c, 4, 45, 96
1, 1608, Note_on_c, 5, 76, 96
1, 1608, Note_on_c, 6, 57, 96
1, 1614, Note_off_c, 1, 69, 0
1, 1614, Note_off_c, 2, 61, 0
1, 1620, Note_off_c, 0, 76, 0
1, 1620, Note_on_c, 0, 78, 96
1, 1620, Note_off_c, 5, 76, 0
1, 1620, Note_on_c, 5, 78, 96
1, 1626, Note_off_c, 0, 78, 0
1, 1626, Note_on_c, 0, 80, 96
1, 1626, Note_off_c, 5, 78, 0
1, 1626, Note_on_c, 5, 80, 96
1, 1629, Note_off_c, 3, 57, 0
1, 1629, Note_off_c, 4, 45, 0
1, 1629, Note_off_c, 6, 57, 0
1, 1631, Note_off_c, 0, 80, 0
1, 1631, Note_off_c, 5, 80, 0
1, 1632, Note_on_c, 0, 81, 96
1, 1632, Note_on_c, 1, 69, 96
1, 1632, Note_on_c, 2, 64, 96
1, 1632, Note_on_c, 3, 49, 96
1, 1632, Note_on_c, 4, 37, 96
1, 1632, Note_on_c, 5, 81, 96
1, 1632, Note_on_c, 6, 49, 96
1, 1638, Note_off_c, 0, 81, 0
1, 1638, Note_off_c, 1, 69, 0
1, 1638, Note_off_c, 2, 64, 0
1, 1638, Note_off_c, 5, 81, 0
1, 1653, Note_off_c, 3, 49, 0
1, 1653, Note_off_c, 4, 37, 0
1, 1653, Note_off_c, 6, 49, 0
1, 1656, Note_on_c, 0, 73, 96
1, 1656, Note_on_c, 1, 68, 96
1, 1656, Note_on_c, 2, 64, 96
1, 1656, Note_on_c, 3, 52, 96
1, 1656, Note_on_c, 4, 40, 96
1, 1656, Note_on_c, 5, 73, 96
1, 1656, Note_on_c, 6, 52, 96
1, 1660, Note_off_c, 0, 73, 0
1, 1660, Note_on_c, 0, 71, 96
1, 1660, Note_off_c, 5, 73, 0
1, 1660, Note_on_c, 5, 71, 96
1, 1662, Note_off_c, 1, 68, 0
1, 1662, Note_off_c, 2, 64, 0
1, 1664, Note_off_c, 0, 71, 0
1, 1664, Note_on_c, 0, 73, 96
1, 1664, Note_off_c, 5, 71, 0
1, 1664, Note_on_c, 5, 73, 96
1, 1668, Note_off_c, 0, 73, 0
1, 1668, Note_on_c, 0, 71, 96
1, 1668, Note_off_c, 5, 73, 0
1, 1668, Note_on_c, 5, 71, 96
1, 1677, Note_off_c, 3, 52, 0
1, 1677, Note_off_c, 4, 40, 0
1, 1677, Note_off_c, 6, 52, 0
1, 1678, Note_off_c, 0, 71, 0
1, 1678, Note_off_c, 5, 71, 0
1, 1680, Note_on_c, 0, 69, 96
1, 1680, Note_on_c, 1, 64, 96
1, 1680, Note_on_c, 2, 61, 96
1, 1680, Note_on_c, 3, 45, 96
1, 1680, Note_on_c, 4, 33, 96
1, 1680, Note_on_c, 5, 69, 96
1, 1680, Note_on_c, 6, 45, 96
1, 1722, Note_off_c, 0, 69, 0
1, 1722, Note_off_c, 1, 64, 0
1, 1722, Note_off_c, 2, 61, 0
1, 1722, Note_off_c, 3, 45, 0
1, 1722, Note_off_c, 4, 33, 0
1, 1722, Note_off_c, 5, 69, 0
1, 1722, Note_off_c, 6, 45, 0
1, 1728, Note_on_c, 0, 73, 80
1, 1728, Note_on_c, 1, 69, 80
1, 1728, Note_on_c, 2, 57, 80
1, 1728, Note_on_c, 5, 76, 96
1, 1728, Note_on_c, 6, 57, 96
1, 1749, Note_off_c, 0, 73, 0
1, 1749, Note_off_c, 1, 69, 0
1, 1749, Note_off_c, 2, 57, 0
1, 1749, Note_off_c, 5, 76, 0
1, 1749, Note_off_c, 6, 57, 0
1, 1752, Note_on_c, 0, 76, 80
1, 1752, Note_on_c, 1, 73, 80
1, 1752, Note_on_c, 2, 69, 80
1, 1752, Note_on_c, 5, 74, 96
1, 1752, Note_on_c, 6, 69, 96
1, 1776, Note_off_c, 0, 76, 0
1, 1776, Note_on_c, 0, 76, 80
1, 1776, Note_off_c, 1, 73, 0
1, 1776, Note_on_c, 1, 73, 80
1, 1776, Note_off_c, 2, 69, 0
1, 1776, Note_on_c, 2, 69, 80
1, 1776, Note_off_c, 5, 74, 0
1, 1776, Note_on_c, 5, 73, 96
1, 1776, Note_off_c, 6, 69, 0
1, 1776, Note_on_c, 6, 69, 96
1, 1800, Note_off_c, 0, 76, 0
1, 1800, Note_on_c, 0, 76, 80
1, 1800, Note_off_c, 1, 73, 0
1, 1800, Note_on_c, 1, 73, 80
1, 1800, Note_off_c, 2, 69, 0
1, 1800, Note_on_c, 2, 69, 80
1, 1800, Note_off_c, 6, 69, 0
1, 1800, Note_on_c, 6, 69, 96
1, 1821, Note_off_c, 0, 76, 0
1, 1821, Note_off_c, 1, 73, 0
1, 1821, Note_off_c, 2, 69, 0
1, 1821, Note_off_c, 6, 69, 0
1, 1824, Note_on_c, 0, 80, 80
1, 1824, Note_on_c, 1, 68, 80
1, 1824, Note_on_c, 2, 64, 80
1, 1824, Note_on_c, 6, 64, 96
1, 1848, Note_off_c, 0, 80, 0
1, 1848, Note_on_c, 0, 80, 80
1, 1848, Note_off_c, 1, 68, 0
1, 1848, Note_on_c, 1, 68, 80
1, 1848, Note_off_c, 2, 64, 0
1, 1848, Note_on_c, 2, 64, 80
1, 1848, Note_off_c, 6, 64, 0
1, 1848, Note_on_c, 6, 64, 96
1, 1854, Note_off_c, 5, 73, 0
1, 1860, Note_on_c, 5, 74, 96
1, 1865, Note_off_c, 5, 74, 0
1, 1866, Note_on_c, 5, 76, 96
1, 1871, Note_off_c, 5, 76, 0
1, 1872, Note_off_c, 0, 80, 0
1, 1872, Note_on_c, 0, 80, 80
1, 1872, Note_off_c, 1, 68, 0
1, 1872, Note_on_c, 1, 68, 80
1, 1872, Note_off_c, 2, 64, 0
1, 1872, Note_on_c, 2, 64, 80
1, 1872, Note_on_c, 5, 74, 96
1, 1872, Note_off_c, 6, 64, 0
1, 1872, Note_on_c, 6, 64, 96
1, 1877, Note_off_c, 5, 74, 0
1, 1878, Note_on_c, 5, 73, 96
1, 1883, Note_off_c, 5, 73, 0
1, 1884, Note_on_c, 5, 71, 96
1, 1893, Note_off_c, 0, 80, 0
1, 1893, Note_off_c, 1, 68, 0
1, 1893, Note_off_c, 2, 64, 0
1, 1893, Note_off_c, 6, 64, 0
1, 1894, Note_off_c, 5, 71, 0
1, 1896, Note_on_c, 0, 81, 80
1, 1896, Note_on_c, 1, 73, 80
1, 1896, Note_on_c, 2, 66, 80
1, 1896, Note_on_c, 5, 71, 96
1, 1896, Note_on_c, 6, 66, 96
1, 1920, Note_off_c, 0, 81, 0
1, 1920, Note_on_c, 0, 81, 80
1, 1920, Note_off_c, 1, 73, 0
1, 1920, Note_on_c, 1, 73, 80
1, 1920, Note_off_c, 2, 66, 0
1, 1920, Note_on_c, 2, 66, 80
1, 1920, Note_off_c, 5, 71, 0
1, 1920, Note_on_c, 5, 69, 96
1, 1920, Note_off_c, 6, 66, 0
1, 1920, Note_on_c, 6, 66, 96
1, 1944, Note_off_c, 0, 81, 0
1, 1944, Note_on_c, 0, 81, 80
1, 1944, Note_off_c, 1, 73, 0
1, 1944, Note_on_c, 1, 73, 80
1, 1944, Note_off_c, 2, 66, 0
1, 1944, Note_on_c, 2, 66, 80
1, 1944, Note_off_c, 6, 66, 0
1, 1944, Note_on_c, 6, 66, 96
1, 1965, Note_off_c, 0, 81, 0
1, 1965, Note_off_c, 1, 73, 0
1, 1965, Note_off_c, 2, 66, 0
1, 1965, Note_off_c, 6, 66, 0
1, 1968, Note_on_c, 0, 69, 80
1, 1968, Note_on_c, 1, 76, 80
1, 1968, Note_on_c, 2, 61, 80
1, 1968, Note_on_c, 6, 61, 96
1, 1992, Note_off_c, 0, 69, 0
1, 1992, Note_on_c, 0, 69, 80
1, 1992, Note_off_c, 1, 76, 0
1, 1992, Note_on_c, 1, 76, 80
1, 1992, Note_off_c, 2, 61, 0
1, 1992, Note_on_c, 2, 61, 80
1, 1992, Note_off_c, 6, 61, 0
1, 1992, Note_on_c, 6, 61, 96
1, 1998, Note_off_c, 5, 69, 0
1, 2004, Note_on_c, 5, 69, 96
1, 2010, Note_off_c, 5, 69, 0
1, 2010, Note_on_c, 5, 71, 96
1, 2016, Note_off_c, 0, 69, 0
1, 2016, Note_on_c, 0, 69, 80
1, 2016, Note_off_c, 1, 76, 0
1, 2016, Note_on_c, 1, 76, 80
1, 2016, Note_off_c, 2, 61, 0
1, 2016, Note_on_c, 2, 61, 80
1, 2016, Note_off_c, 5, 71, 0
1, 2016, Note_on_c, 5, 73, 96
1, 2016, Note_off_c, 6, 61, 0
1, 2016, Note_on_c, 6, 61, 96
1, 2022, Note_off_c, 5, 73, 0
1, 2022, Note_on_c, 5, 74, 96
1, 2028, Note_off_c, 5, 74, 0
1, 2028, Note_on_c, 5, 76, 96
1, 2037, Note_off_c, 0, 69, 0
1, 2037, Note_off_c, 1, 76, 0
1, 2037, Note_off_c, 2, 61, 0
1, 2037, Note_off_c, 6, 61, 0
1, 2038, Note_off_c, 5, 76, 0
1, 2040, Note_on_c, 0, 69, 80
1, 2040, Note_on_c, 1, 74, 80
1, 2040, Note_on_c, 2, 62, 80
1, 2040, Note_on_c, 5, 78, 96
1, 2040, Note_on_c, 6, 62, 96
1, 2050, Note_off_c, 5, 78, 0
1, 2052, Note_on_c, 5, 80, 96
1, 2062, Note_off_c, 5, 80, 0
1, 2064, Note_off_c, 0, 69, 0
1, 2064, Note_on_c, 0, 71, 80
1, 2064, Note_off_c, 1, 74, 0
1, 2064, Note_on_c, 1, 76, 80
1, 2064, Note_off_c, 2, 62, 0
1, 2064, Note_on_c, 2, 62, 80
1, 2064, Note_on_c, 5, 81, 96
1, 2064, Note_off_c, 6, 62, 0
1, 2064, Note_on_c, 6, 62, 96
1, 2067, Note_off_c, 5, 81, 0
1, 2067, Note_on_c, 5, 80, 96
1, 2070, Note_off_c, 5, 80, 0
1, 2070, Note_on_c, 5, 81, 96
1, 2073, Note_off_c, 5, 81, 0
1, 2073, Note_on_c, 5, 80, 96
1, 2076, Note_off_c, 5, 80, 0
1, 2076, Note_on_c, 5, 78, 96
1, 2081, Note_off_c, 5, 78, 0
1, 2082, Note_on_c, 5, 80, 96
1, 2087, Note_off_c, 5, 80, 0
1, 2088, Note_off_c, 0, 71, 0
1, 2088, Note_on_c, 0, 73, 80
1, 2088, Note_off_c, 1, 76, 0
1, 2088, Note_on_c, 1, 64, 80
1, 2088, Note_off_c, 2, 62, 0
1, 2088, Note_on_c, 2, 61, 80
1, 2088, Note_on_c, 5, 81, 96
1, 2088, Note_off_c, 6, 62, 0
1, 2088, Note_on_c, 6, 61, 96
1, 2109, Note_off_c, 0, 73, 0
1, 2109, Note_off_c, 1, 64, 0
1, 2109, Note_off_c, 2, 61, 0
1, 2109, Note_off_c, 6, 61, 0
1, 2112, Note_on_c, 0, 74, 80
1, 2112, Note_on_c, 1, 66, 80
1, 2112, Note_on_c, 2, 59, 80
1, 2112, Note_on_c, 6, 59, 96
1, 2119, Note_off_c, 5, 81, 0
1, 2124, Note_on_c, 5, 80, 96
1, 2129, Note_off_c, 5, 80, 0
1, 2130, Note_on_c, 5, 81, 96
1, 2133, Note_off_c, 2, 59, 0
1, 2133, Note_off_c, 6, 59, 0
1, 2135, Note_off_c, 5, 81, 0
1, 2136, Note_off_c, 0, 74, 0
1, 2136, Note_on_c, 0, 68, 80
1, 2136, Note_off_c, 1, 66, 0
1, 2136, Note_on_c, 1, 64, 80
1, 2136, Note_on_c, 2, 64, 80
1, 2136, Note_on_c, 5, 83, 96
1, 2136, Note_on_c, 6, 64, 96
1, 2141, Note_off_c, 5, 83, 0
1, 2142, Note_on_c, 5, 81, 96
1, 2147, Note_off_c, 5, 81, 0
1, 2148, Note_on_c, 5, 80, 96
1, 2153, Note_off_c, 5, 80, 0
1, 2154, Note_on_c, 5, 78, 96
1, 2157, Note_off_c, 2, 64, 0
1, 2157, Note_off_c, 6, 64, 0
1, 2159, Note_off_c, 5, 78, 0
1, 2160, Note_off_c, 0, 68, 0
1, 2160, Note_on_c, 0, 68, 80
1, 2160, Note_off_c, 1, 64, 0
1, 2160, Note_on_c, 1, 64, 80
1, 2160, Note_on_c, 2, 59, 80
1, 2160, Note_on_c, 3, 40, 96
1, 2160, Note_on_c, 4, 28, 96
1, 2160, Note_on_c, 5, 76, 96
1, 2160, Note_on_c, 6, 52, 96
1, 2176, Note_off_c, 5, 76, 0
1, 2178, Note_on_c, 5, 74, 96
1, 2181, Note_off_c, 0, 68, 0
1, 2181, Note_off_c, 1, 64, 0
1, 2181, Note_off_c, 2, 59, 0
1, 2181, Note_off_c, 3, 40, 0
1, 2181, Note_off_c, 4, 28, 0
1, 2181, Note_off_c, 6, 52, 0
1, 2183, Note_off_c, 5, 74, 0
1, 2184, Note_on_c, 0, 69, 80
1, 2184, Note_on_c, 1, 64, 80
1, 2184, Note_on_c, 2, 57, 80
1, 2184, Note_on_c, 3, 45, 96
1, 2184, Note_on_c, 4, 33, 96
1, 2184, Note_on_c, 5, 74, 96
1, 2184, Note_on_c, 6, 45, 96
1, 2196, Note_off_c, 3, 45, 0
1, 2196, Note_on_c, 3, 49, 96
1, 2196, Note_off_c, 4, 33, 0
1, 2196, Note_on_c, 4, 37, 96
1, 2196, Note_off_c, 6, 45, 0
1, 2196, Note_on_c, 6, 49, 96
1, 2208, Note_off_c, 3, 49, 0
1, 2208, Note_on_c, 3, 52, 96
1, 2208, Note_off_c, 4, 37, 0
1, 2208, Note_on_c, 4, 40, 96
1, 2208, Note_off_c, 5, 74, 0
1, 2208, Note_on_c, 5, 73, 96
1, 2208, Note_off_c, 6, 49, 0
1, 2208, Note_on_c, 6, 52, 96
1, 2218, Note_off_c, 3, 52, 0
1, 2218, Note_off_c, 4, 40, 0
1, 2218, Note_off_c, 6, 52, 0
1, 2220, Note_on_c, 3, 47, 96
1, 2220, Note_on_c, 4, 35, 96
1, 2220, Note_on_c, 6, 47, 96
1, 2230, Note_off_c, 3, 47, 0
1, 2230, Note_off_c, 4, 35, 0
1, 2230, Note_off_c, 6, 47, 0
1, 2232, Note_on_c, 3, 49, 96
1, 2232, Note_on_c, 4, 37, 96
1, 2232, Note_on_c, 6, 49, 96
1, 2242, Note_off_c, 3, 49, 0
1, 2242, Note_off_c, 4, 37, 0
1, 2242, Note_off_c, 6, 49, 0
1, 2244, Note_on_c, 3, 52, 96
1, 2244, Note_on_c, 4, 40, 96
1, 2244, Note_on_c, 6, 52, 96
1, 2254, Note_off_c, 3, 52, 0
1, 2254, Note_off_c, 4, 40, 0
1, 2254, Note_off_c, 6, 52, 0
1, 2256, Note_on_c, 3, 57, 96
1, 2256, Note_on_c, 4, 45, 96
1, 2256, Note_on_c, 6, 57, 96
1, 2274, Note_off_c, 2, 57, 0
1, 2276, Note_off_c, 5, 73, 0
1, 2277, Note_off_c, 3, 57, 0
1, 2277, Note_off_c, 4, 45, 0
1, 2277, Note_off_c, 6, 57, 0
1, 2280, Note_on_c, 2, 64, 80
1, 2280, Note_on_c, 6, 64, 96
1, 2292, Note_on_c, 5, 73, 96
1, 2295, Note_off_c, 5, 73, 0
1, 2296, Note_on_c, 5, 74, 96
1, 2298, Note_off_c, 0, 69, 0
1, 2298, Note_off_c, 1, 64, 0
1, 2299, Note_off_c, 5, 74, 0
1, 2300, Note_on_c, 5, 76, 96
1, 2301, Note_off_c, 2, 64, 0
1, 2301, Note_off_c, 6, 64, 0
1, 2303, Note_off_c, 5, 76, 0
1, 2304, Note_on_c, 0, 69, 80
1, 2304, Note_on_c, 1, 64, 80
1, 2304, Note_on_c, 2, 69, 80
1, 2304, Note_on_c, 5, 74, 96
1, 2304, Note_on_c, 6, 69, 96
1, 2314, Note_off_c, 5, 74, 0
1, 2316, Note_on_c, 5, 73, 96
1, 2325, Note_off_c, 0, 69, 0
1, 2325, Note_off_c, 1, 64, 0
1, 2325, Note_off_c, 2, 69, 0
1, 2325, Note_off_c, 6, 69, 0
1, 2326, Note_off_c, 5, 73, 0
1, 2328, Note_on_c, 0, 76, 80
1, 2328, Note_on_c, 1, 68, 80
1, 2328, Note_on_c, 2, 68, 80
1, 2328, Note_on_c, 5, 74, 96
1, 2328, Note_on_c, 6, 68, 96
1, 2331, Note_off_c, 5, 74, 0
1, 2331, Note_on_c, 5, 73, 96
1, 2334, Note_off_c, 5, 73, 0
1, 2334, Note_on_c, 5, 74, 96
1, 2337, Note_off_c, 5, 74, 0
1, 2337, Note_on_c, 5, 73, 96
1, 2340, Note_off_c, 5, 73, 0
1, 2340, Note_on_c, 5, 71, 96
1, 2350, Note_off_c, 5, 71, 0
1, 2352, Note_off_c, 0, 76, 0
1, 2352, Note_on_c, 0, 69, 80
1, 2352, Note_off_c, 1, 68, 0
1, 2352, Note_on_c, 1, 69, 80
1, 2352, Note_off_c, 2, 68, 0
1, 2352, Note_on_c, 2, 66, 80
1, 2352, Note_on_c, 5, 71, 96
1, 2352, Note_off_c, 6, 68, 0
1, 2352, Note_on_c, 6, 66, 96
1, 2364, Note_off_c, 5, 71, 0
1, 2364, Note_on_c, 5, 75, 96
1, 2374, Note_off_c, 5, 75, 0
1, 2376, Note_off_c, 0, 69, 0
1, 2376, Note_on_c, 0, 68, 80
1, 2376, Note_off_c, 1, 69, 0
1, 2376, Note_on_c, 1, 71, 80
1, 2376, Note_off_c, 2, 66, 0
1, 2376, Note_on_c, 2, 64, 80
1, 2376, Note_on_c, 5, 75, 96
1, 2376, Note_off_c, 6, 66, 0
1, 2376, Note_on_c, 6, 64, 96
1, 2388, Note_off_c, 5, 75, 0
1, 2388, Note_on_c, 5, 76, 96
1, 2397, Note_off_c, 0, 68, 0
1, 2397, Note_off_c, 1, 71, 0
1, 2397, Note_off_c, 2, 64, 0
1, 2397, Note_off_c, 6, 64, 0
1, 2398, Note_off_c, 5, 76, 0
1, 2400, Note_on_c, 0, 69, 80
1, 2400, Note_on_c, 1, 69, 80
1, 2400, Note_on_c, 2, 66, 80
1, 2400, Note_on_c, 5, 69, 96
1, 2400, Note_on_c, 6, 66, 96
1, 2424, Note_off_c, 0, 69, 0
1, 2424, Note_on_c, 0, 73, 80
1, 2424, Note_off_c, 1, 69, 0
1, 2424, Note_on_c, 1, 69, 80
1, 2424, Note_off_c, 2, 66, 0
1, 2424, Note_on_c, 2, 64, 80
1, 2424, Note_off_c, 6, 66, 0
1, 2424, Note_on_c, 6, 64, 96
1, 2431, Note_off_c, 5, 69, 0
1, 2436, Note_on_c, 5, 69, 96
1, 2439, Note_off_c, 5, 69, 0
1, 2440, Note_on_c, 5, 71, 96
1, 2443, Note_off_c, 5, 71, 0
1, 2444, Note_on_c, 5, 73, 96
1, 2447, Note_off_c, 5, 73, 0
1, 2448, Note_off_c, 0, 73, 0
1, 2448, Note_on_c, 0, 66, 80
1, 2448, Note_off_c, 1, 69, 0
1, 2448, Note_on_c, 1, 71, 80
1, 2448, Note_off_c, 2, 64, 0
1, 2448, Note_on_c, 2, 63, 80
1, 2448, Note_on_c, 5, 71, 96
1, 2448, Note_off_c, 6, 64, 0
1, 2448, Note_on_c, 6, 63, 96
1, 2458, Note_off_c, 5, 71, 0
1, 2460, Note_on_c, 5, 69, 96
1, 2469, Note_off_c, 0, 66, 0
1, 2469, Note_off_c, 1, 71, 0
1, 2469, Note_off_c, 2, 63, 0
1, 2469, Note_off_c, 6, 63, 0
1, 2470, Note_off_c, 5, 69, 0
1, 2472, Note_on_c, 0, 64, 80
1, 2472, Note_on_c, 1, 71, 80
1, 2472, Note_on_c, 2, 64, 80
1, 2472, Note_on_c, 5, 71, 96
1, 2472, Note_on_c, 6, 64, 96
1, 2475, Note_off_c, 5, 71, 0
1, 2475, Note_on_c, 5, 69, 96
1, 2478, Note_off_c, 5, 69, 0
1, 2478, Note_on_c, 5, 71, 96
1, 2481, Note_off_c, 5, 71, 0
1, 2481, Note_on_c, 5, 69, 96
1, 2484, Note_off_c, 5, 69, 0
1, 2484, Note_on_c, 5, 68, 96
1, 2494, Note_off_c, 5, 68, 0
1, 2496, Note_off_c, 0, 64, 0
1, 2496, Note_on_c, 0, 68, 80
1, 2496, Note_off_c, 1, 71, 0
1, 2496, Note_on_c, 1, 73, 80
1, 2496, Note_off_c, 2, 64, 0
1, 2496, Note_on_c, 2, 61, 80
1, 2496, Note_on_c, 5, 68, 96
1, 2496, Note_off_c, 6, 64, 0
1, 2496, Note_on_c, 6, 61, 96
1, 2508, Note_off_c, 5, 68, 0
1, 2508, Note_on_c, 5, 75, 96
1, 2518, Note_off_c, 5, 75, 0
1, 2520, Note_off_c, 0, 68, 0
1, 2520, Note_on_c, 0, 71, 80
1, 2520, Note_off_c, 1, 73, 0
1, 2520, Note_on_c, 1, 68, 80
1, 2520, Note_off_c, 2, 61, 0
1, 2520, Note_on_c, 2, 59, 80
1, 2520, Note_on_c, 5, 75, 96
1, 2520, Note_off_c, 6, 61, 0
1, 2520, Note_on_c, 6, 59, 96
1, 2532, Note_off_c, 5, 75, 0
1, 2532, Note_on_c, 5, 76, 96
1, 2541, Note_off_c, 0, 71, 0
1, 2541, Note_off_c, 1, 68, 0
1, 2541, Note_off_c, 2, 59, 0
1, 2541, Note_off_c, 6, 59, 0
1, 2542, Note_off_c, 5, 76, 0
1, 2544, Note_on_c, 0, 73, 80
1, 2544, Note_on_c, 1, 69, 80
1, 2544, Note_on_c, 2, 57, 80
1, 2544, Note_on_c, 5, 66, 96
1, 2544, Note_on_c, 6, 57, 96
1, 2568, Note_off_c, 0, 73, 0
1, 2568, Note_on_c, 0, 69, 80
1, 2568, Note_off_c, 1, 69, 0
1, 2568, Note_on_c, 1, 73, 80
1, 2568, Note_off_c, 2, 57, 0
1, 2568, Note_on_c, 2, 54, 80
1, 2568, Note_off_c, 6, 57, 0
1, 2568, Note_on_c, 6, 54, 96
1, 2575, Note_off_c, 5, 66, 0
1, 2580, Note_on_c, 5, 66, 96
1, 2583, Note_off_c, 5, 66, 0
1, 2584, Note_on_c, 5, 68, 96
1, 2587, Note_off_c, 5, 68, 0
1, 2588, Note_on_c, 5, 69, 96
1, 2591, Note_off_c, 5, 69, 0
1, 2592, Note_off_c, 0, 69, 0
1, 2592, Note_on_c, 0, 69, 80
1, 2592, Note_off_c, 1, 73, 0
1, 2592, Note_on_c, 1, 73, 80
1, 2592, Note_off_c, 2, 54, 0
1, 2592, Note_on_c, 2, 57, 80
1, 2592, Note_on_c, 5, 68, 96
1, 2592, Note_off_c, 6, 54, 0
1, 2592, Note_on_c, 6, 57, 96
1, 2602, Note_off_c, 5, 68, 0
1, 2604, Note_on_c, 5, 66, 96
1, 2613, Note_off_c, 0, 69, 0
1, 2613, Note_off_c, 1, 73, 0
1, 2613, Note_off_c, 2, 57, 0
1, 2613, Note_off_c, 6, 57, 0
1, 2614, Note_off_c, 5, 66, 0
1, 2616, Note_on_c, 0, 69, 80
1, 2616, Note_on_c, 1, 71, 80
1, 2616, Note_on_c, 2, 59, 80
1, 2616, Note_on_c, 5, 64, 96
1, 2616, Note_on_c, 6, 59, 96
1, 2626, Note_off_c, 5, 64, 0
1, 2628, Note_on_c, 5, 63, 96
1, 2633, Note_off_c, 5, 63, 0
1, 2634, Note_on_c, 5, 64, 96
1, 2639, Note_off_c, 5, 64, 0
1, 2640, Note_off_c, 0, 69, 0
1, 2640, Note_on_c, 0, 63, 80
1, 2640, Note_off_c, 1, 71, 0
1, 2640, Note_on_c, 1, 66, 80
1, 2640, Note_off_c, 2, 59, 0
1, 2640, Note_on_c, 2, 59, 80
1, 2640, Note_on_c, 5, 66, 96
1, 2640, Note_off_c, 6, 59, 0
1, 2640, Note_on_c, 6, 59, 96
1, 2645, Note_off_c, 5, 66, 0
1, 2646, Note_on_c, 5, 68, 96
1, 2651, Note_off_c, 5, 68, 0
1, 2652, Note_on_c, 5, 69, 96
1, 2657, Note_off_c, 5, 69, 0
1, 2658, Note_on_c, 5, 71, 96
1, 2663, Note_off_c, 5, 71, 0
1, 2664, Note_off_c, 0, 63, 0
1, 2664, Note_on_c, 0, 63, 80
1, 2664, Note_off_c, 1, 66, 0
1, 2664, Note_on_c, 1, 66, 80
1, 2664, Note_off_c, 2, 59, 0
1, 2664, Note_on_c, 2, 57, 80
1, 2664, Note_on_c, 5, 73, 96
1, 2664, Note_off_c, 6, 59, 0
1, 2664, Note_on_c, 6, 57, 96
1, 2685, Note_off_c, 0, 63, 0
1, 2685, Note_off_c, 1, 66, 0
1, 2685, Note_off_c, 2, 57, 0
1, 2685, Note_off_c, 6, 57, 0
1, 2688, Note_on_c, 0, 64, 80
1, 2688, Note_on_c, 1, 68, 80
1, 2688, Note_on_c, 2, 56, 80
1, 2688, Note_on_c, 6, 56, 96
1, 2695, Note_off_c, 5, 73, 0
1, 2700, Note_on_c, 5, 71, 96
1, 2710, Note_off_c, 5, 71, 0
1, 2712, Note_off_c, 0, 64, 0
1, 2712, Note_on_c, 0, 73, 80
1, 2712, Note_off_c, 1, 68, 0
1, 2712, Note_on_c, 1, 66, 80
1, 2712, Note_off_c, 2, 56, 0
1, 2712, Note_on_c, 2, 57, 80
1, 2712, Note_on_c, 5, 76, 96
1, 2712, Note_off_c, 6, 56, 0
1, 2712, Note_on_c, 6, 57, 96
1, 2724, Note_off_c, 5, 76, 0
1, 2724, Note_on_c, 5, 75, 96
1, 2728, Note_off_c, 5, 75, 0
1, 2728, Note_on_c, 5, 76, 96
1, 2732, Note_off_c, 5, 76, 0
1, 2732, Note_on_c, 5, 75, 96
1, 2733, Note_off_c, 6, 57, 0
1, 2736, Note_off_c, 0, 73, 0
1, 2736, Note_on_c, 0, 71, 80
1, 2736, Note_off_c, 1, 66, 0
1, 2736, Note_on_c, 1, 66, 80
1, 2736, Note_off_c, 2, 57, 0
1, 2736, Note_on_c, 2, 59, 80
1, 2736, Note_on_c, 3, 47, 96
1, 2736, Note_on_c, 4, 35, 96
1, 2736, Note_off_c, 5, 75, 0
1, 2736, Note_on_c, 5, 76, 96
1, 2736, Note_on_c, 6, 47, 96
1, 2740, Note_off_c, 5, 76, 0
1, 2740, Note_on_c, 5, 75, 96
1, 2747, Note_off_c, 5, 75, 0
1, 2748, Note_on_c, 5, 76, 96
1, 2757, Note_off_c, 0, 71, 0
1, 2757, Note_off_c, 1, 66, 0
1, 2757, Note_off_c, 2, 59, 0
1, 2757, Note_off_c, 3, 47, 0
1, 2757, Note_off_c, 4, 35, 0
1, 2757, Note_off_c, 6, 47, 0
1, 2758, Note_off_c, 5, 76, 0
1, 2760, Note_on_c, 0, 68, 80
1, 2760, Note_on_c, 1, 64, 80
1, 2760, Note_on_c, 2, 59, 80
1, 2760, Note_on_c, 3, 40, 96
1, 2760, Note_on_c, 4, 28, 96
1, 2760, Note_on_c, 5, 64, 96
1, 2760, Note_on_c, 6, 40, 96
1, 2772, Note_off_c, 3, 40, 0
1, 2772, Note_on_c, 3, 44, 96
1, 2772, Note_off_c, 4, 28, 0
1, 2772, Note_on_c, 4, 32, 96
1, 2772, Note_off_c, 6, 40, 0
1, 2772, Note_on_c, 6, 44, 96
1, 2784, Note_off_c, 3, 44, 0
1, 2784, Note_on_c, 3, 47, 96
1, 2784, Note_off_c, 4, 32, 0
1, 2784, Note_on_c, 4, 35, 96
1, 2784, Note_off_c, 6, 44, 0
1, 2784, Note_on_c, 6, 47, 96
1, 2794, Note_off_c, 3, 47, 0
1, 2794, Note_off_c, 4, 35, 0
1, 2794, Note_off_c, 6, 47, 0
1, 2796, Note_on_c, 3, 42, 96
1, 2796, Note_on_c, 4, 30, 96
1, 2796, Note_on_c, 6, 42, 96
1, 2806, Note_off_c, 3, 42, 0
1, 2806, Note_off_c, 4, 30, 0
1, 2806, Note_off_c, 6, 42, 0
1, 2808, Note_on_c, 3, 44, 96
1, 2808, Note_on_c, 4, 32, 96
1, 2808, Note_on_c, 6, 44, 96
1, 2818, Note_off_c, 3, 44, 0
1, 2818, Note_off_c, 4, 32, 0
1, 2818, Note_off_c, 6, 44, 0
1, 2820, Note_on_c, 3, 47, 96
1, 2820, Note_on_c, 4, 35, 96
1, 2820, Note_on_c, 6, 47, 96
1, 2830, Note_off_c, 3, 47, 0
1, 2830, Note_off_c, 4, 35, 0
1, 2830, Note_off_c, 6, 47, 0
1, 2832, Note_on_c, 3, 52, 96
1, 2832, Note_on_c, 4, 40, 96
1, 2832, Note_on_c, 6, 52, 96
1, 2842, Note_off_c, 3, 52, 0
1, 2842, Note_off_c, 4, 40, 0
1, 2842, Note_off_c, 6, 52, 0
1, 2844, Note_on_c, 3, 51, 96
1, 2844, Note_on_c, 4, 39, 96
1, 2844, Note_on_c, 6, 51, 96
1, 2854, Note_off_c, 3, 51, 0
1, 2854, Note_off_c, 4, 39, 0
1, 2854, Note_off_c, 6, 51, 0
1, 2856, Note_on_c, 3, 52, 96
1, 2856, Note_on_c, 4, 40, 96
1, 2856, Note_on_c, 6, 52, 96
1, 2866, Note_off_c, 3, 52, 0
1, 2866, Note_off_c, 4, 40, 0
1, 2866, Note_off_c, 6, 52, 0
1, 2868, Note_on_c, 3, 54, 96
1, 2868, Note_on_c, 4, 42, 96
1, 2868, Note_on_c, 6, 54, 96
1, 2874, Note_off_c, 0, 68, 0
1, 2874, Note_off_c, 1, 64, 0
1, 2874, Note_off_c, 2, 59, 0
1, 2874, Note_off_c, 5, 64, 0
1, 2878, Note_off_c, 3, 54, 0
1, 2878, Note_off_c, 4, 42, 0
1, 2878, Note_off_c, 6, 54, 0
1, 2880, Note_on_c, 0, 71, 96
1, 2880, Note_on_c, 1, 64, 96
1, 2880, Note_on_c, 2, 59, 96
1, 2880, Note_on_c, 3, 56, 96
1, 2880, Note_on_c, 4, 44, 96
1, 2880, Note_on_c, 5, 73, 96
1, 2880, Note_on_c, 6, 56, 96
1, 2884, Note_off_c, 5, 73, 0
1, 2884, Note_on_c, 5, 71, 96
1, 2886, Note_off_c, 0, 71, 0
1, 2886, Note_off_c, 1, 64, 0
1, 2886, Note_off_c, 2, 59, 0
1, 2888, Note_off_c, 5, 71, 0
1, 2888, Note_on_c, 5, 69, 96
1, 2890, Note_off_c, 3, 56, 0
1, 2890, Note_off_c, 4, 44, 0
1, 2890, Note_off_c, 6, 56, 0
1, 2892, Note_on_c, 3, 52, 96
1, 2892, Note_on_c, 4, 40, 96
1, 2892, Note_off_c, 5, 69, 0
1, 2892, Note_on_c, 5, 71, 96
1, 2892, Note_on_c, 6, 52, 96
1, 2902, Note_off_c, 3, 52, 0
1, 2902, Note_off_c, 4, 40, 0
1, 2902, Note_off_c, 5, 71, 0
1, 2902, Note_off_c, 6, 52, 0
1, 2904, Note_on_c, 0, 73, 96
1, 2904, Note_on_c, 1, 64, 96
1, 2904, Note_on_c, 2, 57, 96
1, 2904, Note_on_c, 3, 57, 96
1, 2904, Note_on_c, 4, 45, 96
1, 2904, Note_on_c, 5, 73, 96
1, 2904, Note_on_c, 6, 57, 96
1, 2910, Note_off_c, 1, 64, 0
1, 2910, Note_off_c, 2, 57, 0
1, 2916, Note_off_c, 0, 73, 0
1, 2916, Note_on_c, 0, 68, 96
1, 2916, Note_off_c, 5, 73, 0
1, 2916, Note_on_c, 5, 68, 96
1, 2925, Note_off_c, 3, 57, 0
1, 2925, Note_off_c, 4, 45, 0
1, 2925, Note_off_c, 6, 57, 0
1, 2928, Note_off_c, 0, 68, 0
1, 2928, Note_on_c, 0, 69, 96
1, 2928, Note_on_c, 1, 66, 96
1, 2928, Note_on_c, 2, 61, 96
1, 2928, Note_on_c, 3, 45, 96
1, 2928, Note_on_c, 4, 33, 96
1, 2928, Note_off_c, 5, 68, 0
1, 2928, Note_on_c, 5, 69, 96
1, 2928, Note_on_c, 6, 45, 96
1, 2934, Note_off_c, 1, 66, 0
1, 2934, Note_off_c, 2, 61, 0
1, 2938, Note_off_c, 0, 69, 0
1, 2938, Note_off_c, 5, 69, 0
1, 2940, Note_on_c, 0, 73, 96
1, 2940, Note_on_c, 5, 73, 96
1, 2949, Note_off_c, 3, 45, 0
1, 2949, Note_off_c, 4, 33, 0
1, 2949, Note_off_c, 6, 45, 0
1, 2950, Note_off_c, 0, 73, 0
1, 2950, Note_off_c, 5, 73, 0
1, 2952, Note_on_c, 0, 66, 96
1, 2952, Note_on_c, 3, 57, 96
1, 2952, Note_on_c, 4, 45, 96
1, 2952, Note_on_c, 5, 66, 96
1, 2952, Note_on_c, 6, 57, 96
1, 2962, Note_off_c, 0, 66, 0
1, 2962, Note_off_c, 5, 66, 0
1, 2964, Note_on_c, 0, 69, 96
1, 2964, Note_on_c, 5, 69, 96
1, 2973, Note_off_c, 3, 57, 0
1, 2973, Note_off_c, 4, 45, 0
1, 2973, Note_off_c, 6, 57, 0
1, 2974, Note_off_c, 0, 69, 0
1, 2974, Note_off_c, 5, 69, 0
1, 2976, Note_on_c, 0, 75, 96
1, 2976, Note_on_c, 1, 71, 96
1, 2976, Note_on_c, 2, 54, 96
1, 2976, Note_on_c, 3, 59, 96
1, 2976, Note_on_c, 4, 47, 96
1, 2976, Note_on_c, 5, 75, 96
1, 2976, Note_on_c, 6, 59, 96
1, 2982, Note_off_c, 1, 71, 0
1, 2982, Note_off_c, 2, 54, 0
1, 2988, Note_off_c, 0, 75, 0
1, 2988, Note_on_c, 0, 68, 96
1, 2988, Note_off_c, 5, 75, 0
1, 2988, Note_on_c, 5, 68, 96
1, 2997, Note_off_c, 3, 59, 0
1, 2997, Note_off_c, 4, 47, 0
1, 2997, Note_off_c, 6, 59, 0
1, 3000, Note_off_c, 0, 68, 0
1, 3000, Note_on_c, 0, 69, 96
1, 3000, Note_on_c, 1, 66, 96
1, 3000, Note_on_c, 2, 63, 96
1, 3000, Note_on_c, 3, 47, 96
1, 3000, Note_on_c, 4, 35, 96
1, 3000, Note_off_c, 5, 68, 0
1, 3000, Note_on_c, 5, 69, 96
1, 3000, Note_on_c, 6, 47, 96
1, 3006, Note_off_c, 1, 66, 0
1, 3006, Note_off_c, 2, 63, 0
1, 3010, Note_off_c, 0, 69, 0
1, 3010, Note_off_c, 5, 69, 0
1, 3012, Note_on_c, 0, 73, 96
1, 3012, Note_on_c, 5, 73, 96
1, 3021, Note_off_c, 3, 47, 0
1, 3021, Note_off_c, 4, 35, 0
1, 3021, Note_off_c, 6, 47, 0
1, 3022, Note_off_c, 0, 73, 0
1, 3022, Note_off_c, 5, 73, 0
1, 3024, Note_on_c, 0, 66, 96
1, 3024, Note_on_c, 3, 59, 96
1, 3024, Note_on_c, 4, 47, 96
1, 3024, Note_on_c, 5, 66, 96
1, 3024, Note_on_c, 6, 59, 96
1, 3034, Note_off_c, 0, 66, 0
1, 3034, Note_off_c, 5, 66, 0
1, 3036, Note_on_c, 0, 69, 96
1, 3036, Note_on_c, 5, 69, 96
1, 3045, Note_off_c, 3, 59, 0
1, 3045, Note_off_c, 4, 47, 0
1, 3045, Note_off_c, 6, 59, 0
1, 3046, Note_off_c, 0, 69, 0
1, 3046, Note_off_c, 5, 69, 0
1, 3048, Note_on_c, 0, 76, 96
1, 3048, Note_on_c, 1, 61, 96
1, 3048, Note_on_c, 2, 68, 96
1, 3048, Note_on_c, 3, 61, 96
1, 3048, Note_on_c, 4, 49, 96
1, 3048, Note_on_c, 5, 76, 96
1, 3048, Note_on_c, 6, 61, 96
1, 3054, Note_off_c, 1, 61, 0
1, 3054, Note_off_c, 2, 68, 0
1, 3060, Note_off_c, 0, 76, 0
1, 3060, Note_on_c, 0, 68, 96
1, 3060, Note_off_c, 5, 76, 0
1, 3060, Note_on_c, 5, 68, 96
1, 3069, Note_off_c, 3, 61, 0
1, 3069, Note_off_c, 4, 49, 0
1, 3069, Note_off_c, 6, 61, 0
1, 3072, Note_off_c, 0, 68, 0
1, 3072, Note_on_c, 0, 69, 96
1, 3072, Note_on_c, 1, 64, 96
1, 3072, Note_on_c, 2, 61, 96
1, 3072, Note_on_c, 3, 49, 96
1, 3072, Note_on_c, 4, 37, 96
1, 3072, Note_off_c, 5, 68, 0
1, 3072, Note_on_c, 5, 69, 96
1, 3072, Note_on_c, 6, 49, 96
1, 3078, Note_off_c, 1, 64, 0
1, 3078, Note_off_c, 2, 61, 0
1, 3082, Note_off_c, 0, 69, 0
1, 3082, Note_off_c, 5, 69, 0
1, 3084, Note_on_c, 0, 73, 96
1, 3084, Note_on_c, 5, 73, 96
1, 3093, Note_off_c, 3, 49, 0
1, 3093, Note_off_c, 4, 37, 0
1, 3093, Note_off_c, 6, 49, 0
1, 3094, Note_off_c, 0, 73, 0
1, 3094, Note_off_c, 5, 73, 0
1, 3096, Note_on_c, 0, 66, 96
1, 3096, Note_on_c, 3, 61, 96
1, 3096, Note_on_c, 4, 49, 96
1, 3096, Note_on_c, 5, 66, 96
1, 3096, Note_on_c, 6, 61, 96
1, 3106, Note_off_c, 0, 66, 0
1, 3106, Note_off_c, 5, 66, 0
1, 3108, Note_on_c, 0, 69, 96
1, 3108, Note_on_c, 5, 69, 96
1, 3117, Note_off_c, 3, 61, 0
1, 3117, Note_off_c, 4, 49, 0
1, 3117, Note_off_c, 6, 61, 0
1, 3118, Note_off_c, 0, 69, 0
1, 3118, Note_off_c, 5, 69, 0
1, 3120, Note_on_c, 0, 78, 96
1, 3120, Note_on_c, 1, 71, 96
1, 3120, Note_on_c, 2, 54, 96
1, 3120, Note_on_c, 3, 63, 96
1, 3120, Note_on_c, 4, 51, 96
1, 3120, Note_on_c, 5, 69, 96
1, 3120, Note_on_c, 6, 63, 96
1, 3126, Note_off_c, 1, 71, 0
1, 3132, Note_off_c, 5, 69, 0
1, 3132, Note_on_c, 5, 78, 96
1, 3141, Note_off_c, 2, 54, 0
1, 3141, Note_off_c, 3, 63, 0
1, 3141, Note_off_c, 4, 51, 0
1, 3141, Note_off_c, 6, 63, 0
1, 3144, Note_on_c, 1, 66, 96
1, 3144, Note_on_c, 2, 59, 96
1, 3144, Note_on_c, 3, 51, 96
1, 3144, Note_on_c, 4, 39, 96
1, 3144, Note_on_c, 6, 51, 96
1, 3146, Note_off_c, 0, 78, 0
1, 3148, Note_off_c, 5, 78, 0
1, 3150, Note_on_c, 0, 76, 96
1, 3150, Note_off_c, 1, 66, 0
1, 3150, Note_on_c, 5, 76, 96
1, 3155, Note_off_c, 0, 76, 0
1, 3155, Note_off_c, 5, 76, 0
1, 3156, Note_on_c, 0, 75, 96
1, 3156, Note_on_c, 5, 75, 96
1, 3161, Note_off_c, 0, 75, 0
1, 3161, Note_off_c, 5, 75, 0
1, 3162, Note_on_c, 0, 73, 96
1, 3162, Note_on_c, 5, 73, 96
1, 3165, Note_off_c, 2, 59, 0
1, 3165, Note_off_c, 3, 51, 0
1, 3165, Note_off_c, 4, 39, 0
1, 3165, Note_off_c, 6, 51, 0
1, 3167, Note_off_c, 0, 73, 0
1, 3167, Note_off_c, 5, 73, 0
1, 3168, Note_on_c, 0, 71, 96
1, 3168, Note_on_c, 1, 66, 96
1, 3168, Note_on_c, 2, 59, 96
1, 3168, Note_on_c, 3, 63, 96
1, 3168, Note_on_c, 4, 51, 96
1, 3168, Note_on_c, 5, 71, 96
1, 3168, Note_on_c, 6, 63, 96
1, 3173, Note_off_c, 0, 71, 0
1, 3173, Note_off_c, 5, 71, 0
1, 3174, Note_on_c, 0, 69, 96
1, 3174, Note_off_c, 1, 66, 0
1, 3174, Note_on_c, 5, 69, 96
1, 3179, Note_off_c, 0, 69, 0
1, 3179, Note_off_c, 5, 69, 0
1, 3180, Note_on_c, 0, 68, 96
1, 3180, Note_on_c, 5, 68, 96
1, 3185, Note_off_c, 0, 68, 0
1, 3185, Note_off_c, 5, 68, 0
1, 3186, Note_on_c, 0, 66, 96
1, 3186, Note_on_c, 5, 66, 96
1, 3189, Note_off_c, 2, 59, 0
1, 3189, Note_off_c, 3, 63, 0
1, 3189, Note_off_c, 4, 51, 0
1, 3189, Note_off_c, 6, 63, 0
1, 3191, Note_off_c, 0, 66, 0
1, 3191, Note_off_c, 5, 66, 0
1, 3192, Note_on_c, 0, 68, 80
1, 3192, Note_on_c, 1, 64, 80
1, 3192, Note_on_c, 2, 64, 80
1, 3192, Note_on_c, 3, 64, 96
1, 3192, Note_on_c, 4, 52, 96
1, 3192, Note_on_c, 5, 66, 96
1, 3192, Note_on_c, 6, 64, 96
1, 3213, Note_off_c, 3, 64, 0
1, 3213, Note_off_c, 4, 52, 0
1, 3216, Note_off_c, 0, 68, 0
1, 3216, Note_on_c, 0, 71, 80
1, 3216, Note_off_c, 1, 64, 0
1, 3216, Note_on_c, 1, 64, 80
1, 3216, Note_off_c, 2, 64, 0
1, 3216, Note_on_c, 2, 64, 80
1, 3216, Note_on_c, 3, 52, 96
1, 3216, Note_on_c, 4, 40, 96
1, 3216, Note_off_c, 5, 66, 0
1, 3216, Note_on_c, 5, 68, 96
1, 3216, Note_off_c, 6, 64, 0
1, 3216, Note_on_c, 6, 64, 96
1, 3237, Note_off_c, 3, 52, 0
1, 3237, Note_off_c, 4, 40, 0
1, 3240, Note_off_c, 0, 71, 0
1, 3240, Note_on_c, 0, 71, 80
1, 3240, Note_off_c, 1, 64, 0
1, 3240, Note_on_c, 1, 68, 80
1, 3240, Note_off_c, 2, 64, 0
1, 3240, Note_on_c, 2, 64, 80
1, 3240, Note_off_c, 6, 64, 0
1, 3240, Note_on_c, 6, 64, 96
1, 3261, Note_off_c, 0, 71, 0
1, 3261, Note_off_c, 1, 68, 0
1, 3261, Note_off_c, 2, 64, 0
1, 3261, Note_off_c, 6, 64, 0
1, 3264, Note_on_c, 0, 75, 80
1, 3264, Note_on_c, 1, 68, 80
1, 3264, Note_on_c, 2, 59, 80
1, 3264, Note_on_c, 6, 59, 96
1, 3288, Note_off_c, 0, 75, 0
1, 3288, Note_on_c, 0, 75, 80
1, 3288, Note_off_c, 1, 68, 0
1, 3288, Note_on_c, 1, 68, 80
1, 3288, Note_off_c, 2, 59, 0
1, 3288, Note_on_c, 2, 59, 80
1, 3288, Note_off_c, 6, 59, 0
1, 3288, Note_on_c, 6, 59, 96
1, 3294, Note_off_c, 5, 68, 0
1, 3300, Note_on_c, 5, 69, 96
1, 3305, Note_off_c, 5, 69, 0
1, 3306, Note_on_c, 5, 71, 96
1, 3311, Note_off_c, 5, 71, 0
1, 3312, Note_off_c, 0, 75, 0
1, 3312, Note_on_c, 0, 75, 80
1, 3312, Note_off_c, 1, 68, 0
1, 3312, Note_on_c, 1, 71, 80
1, 3312, Note_off_c, 2, 59, 0
1, 3312, Note_on_c, 2, 59, 80
1, 3312, Note_on_c, 5, 69, 96
1, 3312, Note_off_c, 6, 59, 0
1, 3312, Note_on_c, 6, 59, 96
1, 3317, Note_off_c, 5, 69, 0
1, 3318, Note_on_c, 5, 68, 96
1, 3323, Note_off_c, 5, 68, 0
1, 3324, Note_on_c, 5, 66, 96
1, 3333, Note_off_c, 0, 75, 0
1, 3333, Note_off_c, 1, 71, 0
1, 3333, Note_off_c, 2, 59, 0
1, 3333, Note_off_c, 6, 59, 0
1, 3334, Note_off_c, 5, 66, 0
1, 3336, Note_on_c, 0, 76, 80
1, 3336, Note_on_c, 1, 68, 80
1, 3336, Note_on_c, 2, 61, 80
1, 3336, Note_on_c, 5, 66, 96
1, 3336, Note_on_c, 6, 61, 96
1, 3360, Note_off_c, 0, 76, 0
1, 3360, Note_on_c, 0, 76, 80
1, 3360, Note_off_c, 1, 68, 0
1, 3360, Note_on_c, 1, 68, 80
1, 3360, Note_off_c, 2, 61, 0
1, 3360, Note_on_c, 2, 61, 80
1, 3360, Note_off_c, 5, 66, 0
1, 3360, Note_on_c, 5, 64, 96
1, 3360, Note_off_c, 6, 61, 0
1, 3360, Note_on_c, 6, 61, 96
1, 3384, Note_off_c, 0, 76, 0
1, 3384, Note_on_c, 0, 76, 80
1, 3384, Note_off_c, 1, 68, 0
1, 3384, Note_on_c, 1, 68, 80
1, 3384, Note_off_c, 2, 61, 0
1, 3384, Note_on_c, 2, 61, 80
1, 3384, Note_off_c, 6, 61, 0
1, 3384, Note_on_c, 6, 61, 96
1, 3405, Note_off_c, 0, 76, 0
1, 3405, Note_off_c, 1, 68, 0
1, 3405, Note_off_c, 2, 61, 0
1, 3405, Note_off_c, 6, 61, 0
1, 3408, Note_on_c, 0, 64, 80
1, 3408, Note_on_c, 1, 71, 80
1, 3408, Note_on_c, 2, 56, 80
1, 3408, Note_on_c, 6, 56, 96
1, 3432, Note_off_c, 0, 64, 0
1, 3432, Note_on_c, 0, 64, 80
1, 3432, Note_off_c, 1, 71, 0
1, 3432, Note_on_c, 1, 71, 80
1, 3432, Note_off_c, 2, 56, 0
1, 3432, Note_on_c, 2, 56, 80
1, 3432, Note_off_c, 6, 56, 0
1, 3432, Note_on_c, 6, 56, 96
1, 3438, Note_off_c, 5, 64, 0
1, 3444, Note_on_c, 5, 64, 96
1, 3449, Note_off_c, 5, 64, 0
1, 3450, Note_on_c, 5, 66, 96
1, 3455, Note_off_c, 5, 66, 0
1, 3456, Note_off_c, 0, 64, 0
1, 3456, Note_on_c, 0, 64, 80
1, 3456, Note_off_c, 1, 71, 0
1, 3456, Note_on_c, 1, 71, 80
1, 3456, Note_off_c, 2, 56, 0
1, 3456, Note_on_c, 2, 56, 80
1, 3456, Note_on_c, 5, 68, 96
1, 3456, Note_off_c, 6, 56, 0
1, 3456, Note_on_c, 6, 56, 96
1, 3461, Note_off_c, 5, 68, 0
1, 3462, Note_on_c, 5, 69, 96
1, 3467, Note_off_c, 5, 69, 0
1, 3468, Note_on_c, 5, 71, 96
1, 3477, Note_off_c, 0, 64, 0
1, 3477, Note_off_c, 1, 71, 0
1, 3477, Note_off_c, 2, 56, 0
1, 3477, Note_off_c, 6, 56, 0
1, 3478, Note_off_c, 5, 71, 0
1, 3480, Note_on_c, 0, 64, 80
1, 3480, Note_on_c, 1, 69, 80
1, 3480, Note_on_c, 2, 57, 80
1, 3480, Note_on_c, 5, 73, 96
1, 3480, Note_on_c, 6, 57, 96
1, 3490, Note_off_c, 5, 73, 0
1, 3492, Note_on_c, 5, 75, 96
1, 3502, Note_off_c, 5, 75, 0
1, 3504, Note_off_c, 0, 64, 0
1, 3504, Note_on_c, 0, 66, 80
1, 3504, Note_off_c, 1, 69, 0
1, 3504, Note_on_c, 1, 71, 80
1, 3504, Note_off_c, 2, 57, 0
1, 3504, Note_on_c, 2, 57, 80
1, 3504, Note_on_c, 5, 76, 96
1, 3504, Note_off_c, 6, 57, 0
1, 3504, Note_on_c, 6, 57, 96
1, 3507, Note_off_c, 5, 76, 0
1, 3507, Note_on_c, 5, 75, 96
1, 3510, Note_off_c, 5, 75, 0
1, 3510, Note_on_c, 5, 76, 96
1, 3513, Note_off_c, 5, 76, 0
1, 3513, Note_on_c, 5, 75, 96
1, 3516, Note_off_c, 5, 75, 0
1, 3516, Note_on_c, 5, 73, 96
1, 3521, Note_off_c, 5, 73, 0
1, 3522, Note_on_c, 5, 75, 96
1, 3525, Note_off_c, 1, 71, 0
1, 3527, Note_off_c, 5, 75, 0
1, 3528, Note_off_c, 0, 66, 0
1, 3528, Note_on_c, 0, 68, 80
1, 3528, Note_on_c, 1, 59, 80
1, 3528, Note_off_c, 2, 57, 0
1, 3528, Note_on_c, 2, 56, 80
1, 3528, Note_on_c, 5, 76, 96
1, 3528, Note_off_c, 6, 57, 0
1, 3528, Note_on_c, 6, 56, 96
1, 3549, Note_off_c, 0, 68, 0
1, 3549, Note_off_c, 1, 59, 0
1, 3549, Note_off_c, 2, 56, 0
1, 3549, Note_off_c, 6, 56, 0
1, 3552, Note_on_c, 0, 69, 80
1, 3552, Note_on_c, 1, 61, 80
1, 3552, Note_on_c, 2, 54, 80
1, 3552, Note_on_c, 6, 54, 96
1, 3559, Note_off_c, 5, 76, 0
1, 3564, Note_on_c, 5, 75, 96
1, 3569, Note_off_c, 5, 75, 0
1, 3570, Note_on_c, 5, 76, 96
1, 3573, Note_off_c, 6, 54, 0
1, 3575, Note_off_c, 5, 76, 0
1, 3576, Note_off_c, 0, 69, 0
1, 3576, Note_on_c, 0, 63, 80
1, 3576, Note_off_c, 1, 61, 0
1, 3576, Note_on_c, 1, 59, 80
1, 3576, Note_off_c, 2, 54, 0
1, 3576, Note_on_c, 2, 59, 80
1, 3576, Note_on_c, 5, 78, 96
1, 3576, Note_on_c, 6, 59, 96
1, 3581, Note_off_c, 5, 78, 0
1, 3582, Note_on_c, 5, 76, 96
1, 3587, Note_off_c, 5, 76, 0
1, 3588, Note_on_c, 5, 75, 96
1, 3593, Note_off_c, 5, 75, 0
1, 3594, Note_on_c, 5, 73, 96
1, 3597, Note_off_c, 6, 59, 0
1, 3599, Note_off_c, 5, 73, 0
1, 3600, Note_off_c, 0, 63, 0
1, 3600, Note_on_c, 0, 63, 80
1, 3600, Note_off_c, 1, 59, 0
1, 3600, Note_on_c, 1, 59, 80
1, 3600, Note_off_c, 2, 59, 0
1, 3600, Note_on_c, 2, 54, 80
1, 3600, Note_on_c, 3, 47, 96
1, 3600, Note_on_c, 4, 35, 96
1, 3600, Note_on_c, 5, 71, 96
1, 3600, Note_on_c, 6, 47, 96
1, 3610, Note_off_c, 5, 71, 0
1, 3612, Note_on_c, 5, 69, 96
1, 3621, Note_off_c, 0, 63, 0
1, 3621, Note_off_c, 1, 59, 0
1, 3621, Note_off_c, 2, 54, 0
1, 3621, Note_off_c, 3, 47, 0
1, 3621, Note_off_c, 4, 35, 0
1, 3621, Note_off_c, 6, 47, 0
1, 3622, Note_off_c, 5, 69, 0
1, 3624, Note_on_c, 0, 64, 80
1, 3624, Note_on_c, 1, 59, 80
1, 3624, Note_on_c, 2, 52, 80
1, 3624, Note_on_c, 3, 40, 96
1, 3624, Note_on_c, 4, 28, 96
1, 3624, Note_on_c, 5, 69, 96
1, 3624, Note_on_c, 6, 40, 96
1, 3636, Note_off_c, 3, 40, 0
1, 3636, Note_on_c, 3, 44, 96
1, 3636, Note_off_c, 4, 28, 0
1, 3636, Note_on_c, 4, 32, 96
1, 3636, Note_off_c, 6, 40, 0
1, 3636, Note_on_c, 6, 44, 96
1, 3648, Note_off_c, 3, 44, 0
1, 3648, Note_on_c, 3, 47, 96
1, 3648, Note_off_c, 4, 32, 0
1, 3648, Note_on_c, 4, 35, 96
1, 3648, Note_off_c, 5, 69, 0
1, 3648, Note_on_c, 5, 68, 96
1, 3648, Note_off_c, 6, 44, 0
1, 3648, Note_on_c, 6, 47, 96
1, 3658, Note_off_c, 3, 47, 0
1, 3658, Note_off_c, 4, 35, 0
1, 3658, Note_off_c, 6, 47, 0
1, 3660, Note_on_c, 3, 42, 96
1, 3660, Note_on_c, 4, 30, 96
1, 3660, Note_on_c, 6, 42, 96
1, 3670, Note_off_c, 3, 42, 0
1, 3670, Note_off_c, 4, 30, 0
1, 3670, Note_off_c, 6, 42, 0
1, 3672, Note_on_c, 3, 44, 96
1, 3672, Note_on_c, 4, 32, 96
1, 3672, Note_on_c, 6, 44, 96
1, 3682, Note_off_c, 3, 44, 0
1, 3682, Note_off_c, 4, 32, 0
1, 3682, Note_off_c, 6, 44, 0
1, 3684, Note_on_c, 3, 47, 96
1, 3684, Note_on_c, 4, 35, 96
1, 3684, Note_on_c, 6, 47, 96
1, 3694, Note_off_c, 3, 47, 0
1, 3694, Note_off_c, 4, 35, 0
1, 3694, Note_off_c, 6, 47, 0
1, 3696, Note_on_c, 3, 52, 96
1, 3696, Note_on_c, 4, 40, 96
1, 3696, Note_on_c, 6, 52, 96
1, 3720, Note_off_c, 6, 52, 0
1, 3720, Note_on_c, 6, 51, 96
1, 3726, Note_off_c, 5, 68, 0
1, 3732, Note_on_c, 5, 64, 96
1, 3742, Note_off_c, 5, 64, 0
1, 3744, Note_off_c, 0, 64, 0
1, 3744, Note_off_c, 1, 59, 0
1, 3744, Note_off_c, 2, 52, 0
1, 3744, Note_off_c, 3, 52, 0
1, 3744, Note_off_c, 4, 40, 0
1, 3744, Note_on_c, 5, 66, 96
1, 3744, Note_off_c, 6, 51, 0
1, 3744, Note_on_c, 6, 49, 96
1, 3747, Note_off_c, 5, 66, 0
1, 3747, Note_on_c, 5, 64, 96
1, 3750, Note_off_c, 5, 64, 0
1, 3750, Note_on_c, 5, 63, 96
1, 3755, Note_off_c, 5, 63, 0
1, 3756, Note_on_c, 5, 64, 96
1, 3765, Note_off_c, 6, 49, 0
1, 3766, Note_off_c, 5, 64, 0
1, 3768, Note_on_c, 5, 59, 96
1, 3768, Note_on_c, 6, 51, 96
1, 3778, Note_off_c, 5, 59, 0
1, 3780, Note_on_c, 5, 66, 96
1, 3789, Note_off_c, 6, 51, 0
1, 3792, Note_off_c, 5, 66, 0
1, 3792, Note_on_c, 5, 68, 96
1, 3792, Note_on_c, 6, 49, 96
1, 3804, Note_off_c, 5, 68, 0
1, 3804, Note_on_c, 5, 64, 96
1, 3813, Note_off_c, 6, 49, 0
1, 3816, Note_off_c, 5, 64, 0
1, 3816, Note_on_c, 5, 66, 96
1, 3816, Note_on_c, 6, 51, 96
1, 3828, Note_off_c, 5, 66, 0
1, 3828, Note_on_c, 5, 69, 96
1, 3837, Note_off_c, 6, 51, 0
1, 3838, Note_off_c, 5, 69, 0
1, 3840, Note_on_c, 5, 59, 96
1, 3840, Note_on_c, 6, 52, 96
1, 3850, Note_off_c, 5, 59, 0
1, 3852, Note_on_c, 5, 68, 96
1, 3861, Note_off_c, 6, 52, 0
1, 3864, Note_off_c, 5, 68, 0
1, 3864, Note_on_c, 5, 69, 96
1, 3864, Note_on_c, 6, 51, 96
1, 3876, Note_off_c, 5, 69, 0
1, 3876, Note_on_c, 5, 66, 96
1, 3885, Note_off_c, 6, 51, 0
1, 3888, Note_off_c, 5, 66, 0
1, 3888, Note_on_c, 5, 68, 96
1, 3888, Note_on_c, 6, 52, 96
1, 3900, Note_off_c, 5, 68, 0
1, 3900, Note_on_c, 5, 71, 96
1, 3909, Note_off_c, 6, 52, 0
1, 3910, Note_off_c, 5, 71, 0
1, 3912, Note_on_c, 5, 64, 96
1, 3912, Note_on_c, 6, 49, 96
1, 3922, Note_off_c, 5, 64, 0
1, 3924, Note_on_c, 5, 69, 96
1, 3933, Note_off_c, 6, 49, 0
1, 3936, Note_off_c, 5, 69, 0
1, 3936, Note_on_c, 5, 71, 96
1, 3936, Note_on_c, 6, 52, 96
1, 3948, Note_off_c, 5, 71, 0
1, 3948, Note_on_c, 5, 68, 96
1, 3957, Note_off_c, 6, 52, 0
1, 3960, Note_off_c, 5, 68, 0
1, 3960, Note_on_c, 5, 69, 96
1, 3960, Note_on_c, 6, 45, 96
1, 3972, Note_off_c, 5, 69, 0
1, 3972, Note_on_c, 5, 73, 96
1, 3981, Note_off_c, 6, 45, 0
1, 3982, Note_off_c, 5, 73, 0
1, 3984, Note_on_c, 5, 68, 96
1, 3984, Note_on_c, 6, 47, 96
1, 3994, Note_off_c, 6, 47, 0
1, 3996, Note_on_c, 3, 47, 80
1, 3996, Note_on_c, 6, 54, 96
1, 4006, Note_off_c, 3, 47, 0
1, 4006, Note_off_c, 6, 54, 0
1, 4008, Note_on_c, 3, 59, 80
1, 4008, Note_off_c, 5, 68, 0
1, 4008, Note_on_c, 5, 66, 96
1, 4008, Note_on_c, 6, 59, 96
1, 4018, Note_off_c, 3, 59, 0
1, 4018, Note_off_c, 6, 59, 0
1, 4020, Note_on_c, 3, 57, 80
1, 4020, Note_on_c, 6, 57, 96
1, 4029, Note_off_c, 5, 66, 0
1, 4030, Note_off_c, 3, 57, 0
1, 4030, Note_off_c, 6, 57, 0
1, 4032, Note_on_c, 0, 71, 80
1, 4032, Note_on_c, 1, 66, 80
1, 4032, Note_on_c, 2, 63, 80
1, 4032, Note_on_c, 3, 56, 80
1, 4032, Note_on_c, 5, 71, 96
1, 4032, Note_on_c, 6, 56, 96
1, 4042, Note_off_c, 3, 56, 0
1, 4042, Note_off_c, 6, 56, 0
1, 4044, Note_on_c, 3, 54, 80
1, 4044, Note_on_c, 6, 54, 96
1, 4053, Note_off_c, 0, 71, 0
1, 4053, Note_off_c, 1, 66, 0
1, 4053, Note_off_c, 2, 63, 0
1, 4053, Note_off_c, 5, 71, 0
1, 4054, Note_off_c, 3, 54, 0
1, 4054, Note_off_c, 6, 54, 0
1, 4056, Note_on_c, 0, 76, 80
1, 4056, Note_on_c, 1, 71, 80
1, 4056, Note_on_c, 2, 64, 80
1, 4056, Note_on_c, 3, 56, 80
1, 4056, Note_on_c, 5, 73, 96
1, 4056, Note_on_c, 6, 56, 96
1, 4060, Note_off_c, 5, 73, 0
1, 4060, Note_on_c, 5, 71, 96
1, 4064, Note_off_c, 5, 71, 0
1, 4064, Note_on_c, 5, 73, 96
1, 4068, Note_off_c, 5, 73, 0
1, 4068, Note_on_c, 5, 71, 96
1, 4072, Note_off_c, 5, 71, 0
1, 4072, Note_on_c, 5, 73, 96
1, 4076, Note_off_c, 5, 73, 0
1, 4076, Note_on_c, 5, 71, 96
1, 4077, Note_off_c, 6, 56, 0
1, 4080, Note_off_c, 1, 71, 0
1, 4080, Note_on_c, 1, 68, 80
1, 4080, Note_off_c, 2, 64, 0
1, 4080, Note_on_c, 2, 59, 80
1, 4080, Note_off_c, 3, 56, 0
1, 4080, Note_on_c, 3, 52, 80
1, 4080, Note_off_c, 5, 71, 0
1, 4080, Note_on_c, 5, 73, 96
1, 4080, Note_on_c, 6, 52, 96
1, 4084, Note_off_c, 5, 73, 0
1, 4084, Note_on_c, 5, 71, 96
1, 4087, Note_off_c, 0, 76, 0
1, 4088, Note_off_c, 5, 71, 0
1, 4088, Note_on_c, 5, 73, 96
1, 4092, Note_on_c, 0, 75, 80
1, 4092, Note_off_c, 5, 73, 0
1, 4092, Note_on_c, 5, 71, 96
1, 4096, Note_off_c, 5, 71, 0
1, 4096, Note_on_c, 5, 73, 96
1, 4097, Note_off_c, 0, 75, 0
1, 4098, Note_on_c, 0, 73, 80
1, 4100, Note_off_c, 5, 73, 0
1, 4100, Note_on_c, 5, 71, 96
1, 4101, Note_off_c, 6, 52, 0
1, 4103, Note_off_c, 0, 73, 0
1, 4104, Note_on_c, 0, 71, 80
1, 4104, Note_off_c, 1, 68, 0
1, 4104, Note_on_c, 1, 66, 80
1, 4104, Note_off_c, 2, 59, 0
1, 4104, Note_on_c, 2, 59, 80
1, 4104, Note_off_c, 3, 52, 0
1, 4104, Note_on_c, 3, 51, 80
1, 4104, Note_off_c, 5, 71, 0
1, 4104, Note_on_c, 5, 73, 96
1, 4104, Note_on_c, 6, 51, 96
1, 4108, Note_off_c, 5, 73, 0
1, 4108, Note_on_c, 5, 71, 96
1, 4109, Note_off_c, 0, 71, 0
1, 4110, Note_on_c, 0, 69, 80
1, 4112, Note_off_c, 5, 71, 0
1, 4112, Note_on_c, 5, 73, 96
1, 4115, Note_off_c, 0, 69, 0
1, 4116, Note_on_c, 0, 68, 80
1, 4116, Note_off_c, 5, 73, 0
1, 4116, Note_on_c, 5, 71, 96
1, 4120, Note_off_c, 5, 71, 0
1, 4120, Note_on_c, 5, 73, 96
1, 4121, Note_off_c, 0, 68, 0
1, 4122, Note_on_c, 0, 66, 80
1, 4124, Note_off_c, 5, 73, 0
1, 4124, Note_on_c, 5, 71, 96
1, 4125, Note_off_c, 1, 66, 0
1, 4125, Note_off_c, 2, 59, 0
1, 4125, Note_off_c, 3, 51, 0
1, 4125, Note_off_c, 6, 51, 0
1, 4127, Note_off_c, 0, 66, 0
1, 4128, Note_on_c, 0, 68, 80
1, 4128, Note_on_c, 1, 64, 80
1, 4128, Note_on_c, 2, 59, 80
1, 4128, Note_on_c, 3, 52, 80
1, 4128, Note_off_c, 5, 71, 0
1, 4128, Note_on_c, 5, 73, 96
1, 4128, Note_on_c, 6, 52, 96
1, 4132, Note_off_c, 5, 73, 0
1, 4132, Note_on_c, 5, 71, 96
1, 4136, Note_off_c, 5, 71, 0
1, 4136, Note_on_c, 5, 73, 96
1, 4140, Note_off_c, 5, 73, 0
1, 4140, Note_on_c, 5, 71, 96
1, 4144, Note_off_c, 5, 71, 0
1, 4144, Note_on_c, 5, 73, 96
1, 4148, Note_off_c, 5, 73, 0
1, 4148, Note_on_c, 5, 71, 96
1, 4149, Note_off_c, 6, 52, 0
1, 4152, Note_off_c, 1, 64, 0
1, 4152, Note_on_c, 1, 64, 80
1, 4152, Note_off_c, 2, 59, 0
1, 4152, Note_on_c, 2, 56, 80
1, 4152, Note_off_c, 3, 52, 0
1, 4152, Note_on_c, 3, 40, 80
1, 4152, Note_off_c, 5, 71, 0
1, 4152, Note_on_c, 5, 73, 96
1, 4152, Note_on_c, 6, 40, 96
1, 4154, Note_off_c, 0, 68, 0
1, 4156, Note_off_c, 5, 73, 0
1, 4156, Note_on_c, 5, 71, 96
1, 4158, Note_on_c, 0, 66, 80
1, 4160, Note_off_c, 5, 71, 0
1, 4160, Note_on_c, 5, 73, 96
1, 4163, Note_off_c, 0, 66, 0
1, 4164, Note_on_c, 0, 68, 80
1, 4164, Note_off_c, 5, 73, 0
1, 4164, Note_on_c, 5, 71, 96
1, 4168, Note_off_c, 5, 71, 0
1, 4168, Note_on_c, 5, 73, 96
1, 4169, Note_off_c, 0, 68, 0
1, 4170, Note_on_c, 0, 69, 80
1, 4172, Note_off_c, 5, 73, 0
1, 4172, Note_on_c, 5, 71, 96
1, 4173, Note_off_c, 6, 40, 0
1, 4175, Note_off_c, 0, 69, 0
1, 4176, Note_on_c, 0, 68, 80
1, 4176, Note_off_c, 1, 64, 0
1, 4176, Note_on_c, 1, 63, 80
1, 4176, Note_off_c, 2, 56, 0
1, 4176, Note_on_c, 2, 57, 80
1, 4176, Note_off_c, 3, 40, 0
1, 4176, Note_on_c, 3, 42, 80
1, 4176, Note_off_c, 5, 71, 0
1, 4176, Note_on_c, 5, 73, 96
1, 4176, Note_on_c, 6, 42, 96
1, 4180, Note_off_c, 5, 73, 0
1, 4180, Note_on_c, 5, 71, 96
1, 4181, Note_off_c, 0, 68, 0
1, 4182, Note_on_c, 0, 66, 80
1, 4184, Note_off_c, 5, 71, 0
1, 4184, Note_on_c, 5, 73, 96
1, 4187, Note_off_c, 0, 66, 0
1, 4188, Note_on_c, 0, 64, 80
1, 4188, Note_off_c, 5, 73, 0
1, 4188, Note_on_c, 5, 71, 96
1, 4192, Note_off_c, 5, 71, 0
1, 4192, Note_on_c, 5, 73, 96
1, 4193, Note_off_c, 0, 64, 0
1, 4194, Note_on_c, 0, 63, 80
1, 4196, Note_off_c, 5, 73, 0
1, 4196, Note_on_c, 5, 71, 96
1, 4197, Note_off_c, 1, 63, 0
1, 4197, Note_off_c, 2, 57, 0
1, 4197, Note_off_c, 3, 42, 0
1, 4197, Note_off_c, 6, 42, 0
1, 4199, Note_off_c, 0, 63, 0
1, 4200, Note_on_c, 0, 64, 80
1, 4200, Note_on_c, 1, 59, 80
1, 4200, Note_on_c, 2, 56, 80
1, 4200, Note_on_c, 3, 44, 80
1, 4200, Note_off_c, 5, 71, 0
1, 4200, Note_on_c, 5, 73, 96
1, 4200, Note_on_c, 6, 44, 96
1, 4204, Note_off_c, 5, 73, 0
1, 4204, Note_on_c, 5, 71, 96
1, 4206, Note_off_c, 3, 44, 0
1, 4208, Note_off_c, 5, 71, 0
1, 4208, Note_on_c, 5, 73, 96
1, 4212, Note_off_c, 5, 73, 0
1, 4212, Note_on_c, 5, 71, 96
1, 4216, Note_off_c, 5, 71, 0
1, 4216, Note_on_c, 5, 73, 96
1, 4220, Note_off_c, 5, 73, 0
1, 4220, Note_on_c, 5, 71, 96
1, 4221, Note_off_c, 6, 44, 0
1, 4224, Note_off_c, 1, 59, 0
1, 4224, Note_on_c, 1, 64, 80
1, 4224, Note_off_c, 2, 56, 0
1, 4224, Note_on_c, 2, 56, 80
1, 4224, Note_on_c, 3, 45, 80
1, 4224, Note_off_c, 5, 71, 0
1, 4224, Note_on_c, 5, 73, 96
1, 4224, Note_on_c, 6, 45, 96
1, 4228, Note_off_c, 5, 73, 0
1, 4228, Note_on_c, 5, 71, 96
1, 4230, Note_off_c, 3, 45, 0
1, 4231, Note_off_c, 0, 64, 0
1, 4232, Note_off_c, 5, 71, 0
1, 4232, Note_on_c, 5, 73, 96
1, 4236, Note_on_c, 0, 66, 80
1, 4236, Note_off_c, 5, 73, 0
1, 4236, Note_on_c, 5, 71, 96
1, 4240, Note_off_c, 5, 71, 0
1, 4240, Note_on_c, 5, 73, 96
1, 4241, Note_off_c, 0, 66, 0
1, 4242, Note_on_c, 0, 68, 80
1, 4244, Note_off_c, 5, 73, 0
1, 4244, Note_on_c, 5, 71, 96
1, 4245, Note_off_c, 6, 45, 0
1, 4247, Note_off_c, 0, 68, 0
1, 4248, Note_on_c, 0, 69, 80
1, 4248, Note_off_c, 1, 64, 0
1, 4248, Note_on_c, 1, 63, 80
1, 4248, Note_off_c, 2, 56, 0
1, 4248, Note_on_c, 2, 54, 80
1, 4248, Note_on_c, 3, 47, 80
1, 4248, Note_off_c, 5, 71, 0
1, 4248, Note_on_c, 5, 73, 96
1, 4248, Note_on_c, 6, 47, 96
1, 4252, Note_off_c, 5, 73, 0
1, 4252, Note_on_c, 5, 71, 96
1, 4253, Note_off_c, 0, 69, 0
1, 4254, Note_on_c, 0, 71, 80
1, 4254, Note_off_c, 3, 47, 0
1, 4259, Note_off_c, 0, 71, 0
1, 4260, Note_on_c, 0, 73, 80
1, 4265, Note_off_c, 0, 73, 0
1, 4266, Note_on_c, 0, 75, 80
1, 4269, Note_off_c, 1, 63, 0
1, 4269, Note_off_c, 2, 54, 0
1, 4269, Note_off_c, 6, 47, 0
1, 4271, Note_off_c, 0, 75, 0
1, 4272, Note_on_c, 0, 76, 80
1, 4272, Note_on_c, 1, 68, 80
1, 4272, Note_on_c, 2, 52, 80
1, 4272, Note_on_c, 3, 40, 80
1, 4272, Note_on_c, 6, 40, 96
1, 4276, Note_off_c, 5, 71, 0
1, 4278, Note_off_c, 0, 76, 0
1, 4278, Note_off_c, 1, 68, 0
1, 4278, Note_off_c, 2, 52, 0
1, 4280, Note_on_c, 5, 64, 96
1, 4287, Note_off_c, 5, 64, 0
1, 4288, Note_on_c, 5, 66, 96
1, 4293, Note_off_c, 3, 40, 0
1, 4293, Note_off_c, 6, 40, 0
1, 4295, Note_off_c, 5, 66, 0
1, 4296, Note_on_c, 0, 71, 80
1, 4296, Note_on_c, 1, 68, 80
1, 4296, Note_on_c, 2, 64, 80
1, 4296, Note_on_c, 5, 68, 96
1, 4302, Note_off_c, 0, 71, 0
1, 4302, Note_off_c, 1, 68, 0
1, 4302, Note_off_c, 2, 64, 0
1, 4303, Note_off_c, 5, 68, 0
1, 4304, Note_on_c, 5, 69, 96
1, 4311, Note_off_c, 5, 69, 0
1, 4312, Note_on_c, 5, 71, 96
1, 4319, Note_off_c, 5, 71, 0
1, 4320, Note_on_c, 3, 44, 80
1, 4320, Note_on_c, 5, 71, 96
1, 4320, Note_on_c, 6, 44, 96
1, 4327, Note_off_c, 5, 71, 0
1, 4328, Note_on_c, 5, 73, 96
1, 4335, Note_off_c, 5, 73, 0
1, 4336, Note_on_c, 5, 74, 96
1, 4341, Note_off_c, 3, 44, 0
1, 4341, Note_off_c, 6, 44, 0
1, 4343, Note_off_c, 5, 74, 0
1, 4344, Note_on_c, 0, 73, 80
1, 4344, Note_on_c, 1, 64, 80
1, 4344, Note_on_c, 2, 57, 80
1, 4344, Note_on_c, 3, 45, 80
1, 4344, Note_on_c, 5, 73, 96
1, 4344, Note_on_c, 6, 45, 96
1, 4350, Note_off_c, 0, 73, 0
1, 4350, Note_off_c, 1, 64, 0
1, 4350, Note_off_c, 2, 57, 0
1, 4351, Note_off_c, 5, 73, 0
1, 4352, Note_on_c, 5, 66, 96
1, 4359, Note_off_c, 5, 66, 0
1, 4360, Note_on_c, 5, 68, 96
1, 4365, Note_off_c, 3, 45, 0
1, 4365, Note_off_c, 6, 45, 0
1, 4367, Note_off_c, 5, 68, 0
1, 4368, Note_on_c, 0, 78, 80
1, 4368, Note_on_c, 1, 69, 80
1, 4368, Note_on_c, 2, 61, 80
1, 4368, Note_on_c, 5, 69, 96
1, 4374, Note_off_c, 0, 78, 0
1, 4374, Note_off_c, 1, 69, 0
1, 4374, Note_off_c, 2, 61, 0
1, 4375, Note_off_c, 5, 69, 0
1, 4376, Note_on_c, 5, 71, 96
1, 4383, Note_off_c, 5, 71, 0
1, 4384, Note_on_c, 5, 73, 96
1, 4391, Note_off_c, 5, 73, 0
1, 4392, Note_on_c, 3, 42, 80
1, 4392, Note_on_c, 5, 73, 96
1, 4392, Note_on_c, 6, 42, 96
1, 4399, Note_off_c, 5, 73, 0
1, 4400, Note_on_c, 5, 75, 96
1, 4407, Note_off_c, 5, 75, 0
1, 4408, Note_on_c, 5, 76, 96
1, 4413, Note_off_c, 3, 42, 0
1, 4413, Note_off_c, 6, 42, 0
1, 4415, Note_off_c, 5, 76, 0
1, 4416, Note_on_c, 0, 75, 80
1, 4416, Note_on_c, 1, 66, 80
1, 4416, Note_on_c, 2, 59, 80
1, 4416, Note_on_c, 3, 47, 80
1, 4416, Note_on_c, 5, 75, 96
1, 4416, Note_on_c, 6, 47, 96
1, 4422, Note_off_c, 0, 75, 0
1, 4422, Note_off_c, 1, 66, 0
1, 4422, Note_off_c, 2, 59, 0
1, 4423, Note_off_c, 5, 75, 0
1, 4424, Note_on_c, 5, 68, 96
1, 4431, Note_off_c, 5, 68, 0
1, 4432, Note_on_c, 5, 69, 96
1, 4437, Note_off_c, 3, 47, 0
1, 4437, Note_off_c, 6, 47, 0
1, 4439, Note_off_c, 5, 69, 0
1, 4440, Note_on_c, 0, 80, 80
1, 4440, Note_on_c, 1, 71, 80
1, 4440, Note_on_c, 2, 63, 80
1, 4440, Note_on_c, 5, 71, 96
1, 4446, Note_off_c, 0, 80, 0
1, 4446, Note_off_c, 1, 71, 0
1, 4446, Note_off_c, 2, 63, 0
1, 4447, Note_off_c, 5, 71, 0
1, 4448, Note_on_c, 5, 73, 96
1, 4455, Note_off_c, 5, 73, 0
1, 4456, Note_on_c, 5, 75, 96
1, 4463, Note_off_c, 5, 75, 0
1, 4464, Note_on_c, 3, 44, 80
1, 4464, Note_on_c, 5, 75, 96
1, 4464, Note_on_c, 6, 44, 96
1, 4471, Note_off_c, 5, 75, 0
1, 4472, Note_on_c, 5, 76, 96
1, 4479, Note_off_c, 5, 76, 0
1, 4480, Note_on_c, 5, 78, 96
1, 4485, Note_off_c, 3, 44, 0
1, 4485, Note_off_c, 6, 44, 0
1, 4487, Note_off_c, 5, 78, 0
1, 4488, Note_on_c, 0, 76, 80
1, 4488, Note_on_c, 1, 68, 80
1, 4488, Note_on_c, 2, 61, 80
1, 4488, Note_on_c, 3, 49, 80
1, 4488, Note_on_c, 5, 78, 96
1, 4488, Note_on_c, 6, 49, 96
1, 4494, Note_off_c, 0, 76, 0
1, 4494, Note_off_c, 1, 68, 0
1, 4494, Note_off_c, 2, 61, 0
1, 4500, Note_off_c, 5, 78, 0
1, 4500, Note_on_c, 5, 76, 96
1, 4509, Note_off_c, 3, 49, 0
1, 4509, Note_off_c, 6, 49, 0
1, 4512, Note_on_c, 0, 80, 80
1, 4512, Note_on_c, 1, 76, 80
1, 4512, Note_on_c, 2, 56, 80
1, 4512, Note_on_c, 6, 61, 96
1, 4518, Note_off_c, 0, 80, 0
1, 4518, Note_off_c, 1, 76, 0
1, 4518, Note_off_c, 2, 56, 0
1, 4521, Note_off_c, 5, 76, 0
1, 4524, Note_on_c, 5, 75, 96
1, 4530, Note_off_c, 5, 75, 0
1, 4530, Note_on_c, 5, 76, 96
1, 4533, Note_off_c, 6, 61, 0
1, 4536, Note_on_c, 3, 60, 80
1, 4536, Note_off_c, 5, 76, 0
1, 4536, Note_on_c, 5, 78, 96
1, 4536, Note_on_c, 6, 60, 96
1, 4542, Note_off_c, 5, 78, 0
1, 4542, Note_on_c, 5, 76, 96
1, 4548, Note_off_c, 5, 76, 0
1, 4548, Note_on_c, 5, 75, 96
1, 4557, Note_off_c, 3, 60, 0
1, 4557, Note_off_c, 6, 60, 0
1, 4558, Note_off_c, 5, 75, 0
1, 4560, Note_on_c, 0, 76, 80
1, 4560, Note_on_c, 1, 73, 80
1, 4560, Note_on_c, 2, 68, 80
1, 4560, Note_on_c, 3, 61, 80
1, 4560, Note_on_c, 5, 75, 96
1, 4560, Note_on_c, 6, 61, 96
1, 4566, Note_off_c, 0, 76, 0
1, 4566, Note_off_c, 1, 73, 0
1, 4566, Note_off_c, 2, 68, 0
1, 4572, Note_off_c, 5, 75, 0
1, 4572, Note_on_c, 5, 76, 96
1, 4581, Note_off_c, 3, 61, 0
1, 4581, Note_off_c, 6, 61, 0
1, 4584, Note_on_c, 0, 73, 80
1, 4584, Note_on_c, 1, 66, 80
1, 4584, Note_on_c, 2, 73, 80
1, 4584, Note_on_c, 6, 58, 96
1, 4590, Note_off_c, 0, 73, 0
1, 4590, Note_off_c, 1, 66, 0
1, 4590, Note_off_c, 2, 73, 0
1, 4593, Note_off_c, 5, 76, 0
1, 4596, Note_on_c, 5, 76, 96
1, 4602, Note_off_c, 5, 76, 0
1, 4602, Note_on_c, 5, 78, 96
1, 4605, Note_off_c, 6, 58, 0
1, 4608, Note_on_c, 3, 54, 80
1, 4608, Note_off_c, 5, 78, 0
1, 4608, Note_on_c, 5, 79, 96
1, 4608, Note_on_c, 6, 54, 96
1, 4614, Note_off_c, 5, 79, 0
1, 4614, Note_on_c, 5, 78, 96
1, 4620, Note_off_c, 5, 78, 0
1, 4620, Note_on_c, 5, 76, 96
1, 4629, Note_off_c, 3, 54, 0
1, 4629, Note_off_c, 6, 54, 0
1, 4630, Note_off_c, 5, 76, 0
1, 4632, Note_on_c, 0, 74, 80
1, 4632, Note_on_c, 1, 71, 80
1, 4632, Note_on_c, 2, 66, 80
1, 4632, Note_on_c, 3, 47, 80
1, 4632, Note_on_c, 5, 76, 96
1, 4632, Note_on_c, 6, 47, 96
1, 4638, Note_off_c, 0, 74, 0
1, 4638, Note_off_c, 1, 71, 0
1, 4638, Note_off_c, 2, 66, 0
1, 4644, Note_off_c, 5, 76, 0
1, 4644, Note_on_c, 5, 74, 96
1, 4653, Note_off_c, 3, 47, 0
1, 4653, Note_off_c, 6, 47, 0
1, 4656, Note_on_c, 0, 78, 80
1, 4656, Note_on_c, 1, 74, 80
1, 4656, Note_on_c, 2, 59, 80
1, 4656, Note_on_c, 6, 59, 96
1, 4662, Note_off_c, 0, 78, 0
1, 4662, Note_off_c, 1, 74, 0
1, 4662, Note_off_c, 2, 59, 0
1, 4665, Note_off_c, 5, 74, 0
1, 4668, Note_on_c, 5, 73, 96
1, 4674, Note_off_c, 5, 73, 0
1, 4674, Note_on_c, 5, 74, 96
1, 4677, Note_off_c, 6, 59, 0
1, 4680, Note_on_c, 3, 58, 80
1, 4680, Note_off_c, 5, 74, 0
1, 4680, Note_on_c, 5, 76, 96
1, 4680, Note_on_c, 6, 58, 96
1, 4686, Note_off_c, 5, 76, 0
1, 4686, Note_on_c, 5, 74, 96
1, 4692, Note_off_c, 5, 74, 0
1, 4692, Note_on_c, 5, 73, 96
1, 4701, Note_off_c, 3, 58, 0
1, 4701, Note_off_c, 6, 58, 0
1, 4702, Note_off_c, 5, 73, 0
1, 4704, Note_on_c, 0, 74, 80
1, 4704, Note_on_c, 1, 71, 80
1, 4704, Note_on_c, 2, 66, 80
1, 4704, Note_on_c, 3, 59, 80
1, 4704, Note_on_c, 5, 73, 96
1, 4704, Note_on_c, 6, 59, 96
1, 4710, Note_off_c, 0, 74, 0
1, 4710, Note_off_c, 1, 71, 0
1, 4710, Note_off_c, 2, 66, 0
1, 4716, Note_off_c, 5, 73, 0
1, 4716, Note_on_c, 5, 74, 96
1, 4725, Note_off_c, 3, 59, 0
1, 4725, Note_off_c, 6, 59, 0
1, 4728, Note_on_c, 0, 71, 80
1, 4728, Note_on_c, 1, 64, 80
1, 4728, Note_on_c, 2, 71, 80
1, 4728, Note_on_c, 6, 56, 96
1, 4734, Note_off_c, 0, 71, 0
1, 4734, Note_off_c, 1, 64, 0
1, 4734, Note_off_c, 2, 71, 0
1, 4737, Note_off_c, 5, 74, 0
1, 4740, Note_on_c, 5, 74, 96
1, 4746, Note_off_c, 5, 74, 0
1, 4746, Note_on_c, 5, 76, 96
1, 4749, Note_off_c, 6, 56, 0
1, 4752, Note_on_c, 3, 52, 80
1, 4752, Note_off_c, 5, 76, 0
1, 4752, Note_on_c, 5, 78, 96
1, 4752, Note_on_c, 6, 52, 96
1, 4758, Note_off_c, 5, 78, 0
1, 4758, Note_on_c, 5, 76, 96
1, 4764, Note_off_c, 5, 76, 0
1, 4764, Note_on_c, 5, 74, 96
1, 4773, Note_off_c, 3, 52, 0
1, 4773, Note_off_c, 6, 52, 0
1, 4774, Note_off_c, 5, 74, 0
1, 4776, Note_on_c, 0, 73, 80
1, 4776, Note_on_c, 1, 69, 80
1, 4776, Note_on_c, 2, 64, 80
1, 4776, Note_on_c, 3, 45, 80
1, 4776, Note_on_c, 5, 73, 96
1, 4776, Note_on_c, 6, 45, 96
1, 4782, Note_off_c, 0, 73, 0
1, 4782, Note_off_c, 1, 69, 0
1, 4782, Note_off_c, 2, 64, 0
1, 4783, Note_off_c, 5, 73, 0
1, 4784, Note_on_c, 5, 81, 96
1, 4791, Note_off_c, 5, 81, 0
1, 4792, Note_on_c, 5, 80, 96
1, 4797, Note_off_c, 3, 45, 0
1, 4797, Note_off_c, 6, 45, 0
1, 4799, Note_off_c, 5, 80, 0
1, 4800, Note_on_c, 0, 81, 80
1, 4800, Note_on_c, 1, 73, 80
1, 4800, Note_on_c, 2, 69, 80
1, 4800, Note_on_c, 5, 78, 96
1, 4806, Note_off_c, 0, 81, 0
1, 4806, Note_off_c, 1, 73, 0
1, 4806, Note_off_c, 2, 69, 0
1, 4807, Note_off_c, 5, 78, 0
1, 4808, Note_on_c, 5, 76, 96
1, 4815, Note_off_c, 5, 76, 0
1, 4816, Note_on_c, 5, 75, 96
1, 4823, Note_off_c, 5, 75, 0
1, 4824, Note_on_c, 3, 54, 80
1, 4824, Note_on_c, 5, 75, 96
1, 4824, Note_on_c, 6, 54, 96
1, 4831, Note_off_c, 5, 75, 0
1, 4832, Note_on_c, 5, 73, 96
1, 4839, Note_off_c, 5, 73, 0
1, 4840, Note_on_c, 5, 71, 96
1, 4845, Note_off_c, 3, 54, 0
1, 4845, Note_off_c, 6, 54, 0
1, 4847, Note_off_c, 5, 71, 0
1, 4848, Note_on_c, 0, 71, 80
1, 4848, Note_on_c, 1, 68, 80
1, 4848, Note_on_c, 2, 63, 80
1, 4848, Note_on_c, 3, 44, 80
1, 4848, Note_on_c, 5, 71, 96
1, 4848, Note_on_c, 6, 44, 96
1, 4854, Note_off_c, 0, 71, 0
1, 4854, Note_off_c, 1, 68, 0
1, 4854, Note_off_c, 2, 63, 0
1, 4855, Note_off_c, 5, 71, 0
1, 4856, Note_on_c, 5, 80, 96
1, 4863, Note_off_c, 5, 80, 0
1, 4864, Note_on_c, 5, 78, 96
1, 4869, Note_off_c, 3, 44, 0
1, 4869, Note_off_c, 6, 44, 0
1, 4871, Note_off_c, 5, 78, 0
1, 4872, Note_on_c, 0, 80, 80
1, 4872, Note_on_c, 1, 71, 80
1, 4872, Note_on_c, 2, 68, 80
1, 4872, Note_on_c, 5, 76, 96
1, 4878, Note_off_c, 0, 80, 0
1, 4878, Note_off_c, 1, 71, 0
1, 4878, Note_off_c, 2, 68, 0
1, 4879, Note_off_c, 5, 76, 0
1, 4880, Note_on_c, 5, 75, 96
1, 4887, Note_off_c, 5, 75, 0
1, 4888, Note_on_c, 5, 73, 96
1, 4895, Note_off_c, 5, 73, 0
1, 4896, Note_on_c, 3, 52, 80
1, 4896, Note_on_c, 5, 73, 96
1, 4896, Note_on_c, 6, 52, 96
1, 4903, Note_off_c, 5, 73, 0
1, 4904, Note_on_c, 5, 71, 96
1, 4911, Note_off_c, 5, 71, 0
1, 4912, Note_on_c, 5, 69, 96
1, 4917, Note_off_c, 3, 52, 0
1, 4917, Note_off_c, 6, 52, 0
1, 4919, Note_off_c, 5, 69, 0
1, 4920, Note_on_c, 0, 69, 80
1, 4920, Note_on_c, 1, 66, 80
1, 4920, Note_on_c, 2, 61, 80
1, 4920, Note_on_c, 3, 42, 80
1, 4920, Note_on_c, 5, 69, 96
1, 4920, Note_on_c, 6, 42, 96
1, 4926, Note_off_c, 0, 69, 0
1, 4926, Note_off_c, 1, 66, 0
1, 4926, Note_off_c, 2, 61, 0
1, 4927, Note_off_c, 5, 69, 0
1, 4928, Note_on_c, 5, 78, 96
1, 4935, Note_off_c, 5, 78, 0
1, 4936, Note_on_c, 5, 76, 96
1, 4941, Note_off_c, 3, 42, 0
1, 4941, Note_off_c, 6, 42, 0
1, 4943, Note_off_c, 5, 76, 0
1, 4944, Note_on_c, 0, 78, 80
1, 4944, Note_on_c, 1, 69, 80
1, 4944, Note_on_c, 2, 66, 80
1, 4944, Note_on_c, 5, 75, 96
1, 4950, Note_off_c, 0, 78, 0
1, 4950, Note_off_c, 1, 69, 0
1, 4950, Note_off_c, 2, 66, 0
1, 4951, Note_off_c, 5, 75, 0
1, 4952, Note_on_c, 5, 73, 96
1, 4959, Note_off_c, 5, 73, 0
1, 4960, Note_on_c, 5, 71, 96
1, 4967, Note_off_c, 5, 71, 0
1, 4968, Note_on_c, 3, 51, 80
1, 4968, Note_on_c, 5, 71, 96
1, 4968, Note_on_c, 6, 51, 96
1, 4975, Note_off_c, 5, 71, 0
1, 4976, Note_on_c, 5, 69, 96
1, 4983, Note_off_c, 5, 69, 0
1, 4984, Note_on_c, 5, 68, 96
1, 4989, Note_off_c, 3, 51, 0
1, 4989, Note_off_c, 6, 51, 0
1, 4991, Note_off_c, 5, 68, 0
1, 4992, Note_on_c, 0, 68, 80
1, 4992, Note_on_c, 1, 64, 80
1, 4992, Note_on_c, 2, 59, 80
1, 4992, Note_on_c, 3, 40, 80
1, 4992, Note_on_c, 5, 68, 96
1, 4992, Note_on_c, 6, 40, 96
1, 4998, Note_off_c, 0, 68, 0
1, 4998, Note_off_c, 1, 64, 0
1, 4998, Note_off_c, 2, 59, 0
1, 5013, Note_off_c, 3, 40, 0
1, 5013, Note_off_c, 6, 40, 0
1, 5016, Note_on_c, 0, 76, 80
1, 5016, Note_on_c, 1, 71, 80
1, 5016, Note_on_c, 2, 68, 80
1, 5022, Note_off_c, 0, 76, 0
1, 5022, Note_off_c, 1, 71, 0
1, 5022, Note_off_c, 2, 68, 0
1, 5023, Note_off_c, 5, 68, 0
1, 5028, Note_on_c, 5, 70, 96
1, 5033, Note_off_c, 5, 70, 0
1, 5034, Note_on_c, 5, 71, 96
1, 5039, Note_off_c, 5, 71, 0
1, 5040, Note_on_c, 5, 73, 96
1, 5040, Note_on_c, 6, 64, 96
1, 5045, Note_off_c, 5, 73, 0
1, 5046, Note_on_c, 5, 71, 96
1, 5051, Note_off_c, 5, 71, 0
1, 5052, Note_on_c, 5, 70, 96
1, 5061, Note_off_c, 6, 64, 0
1, 5062, Note_off_c, 5, 70, 0
1, 5064, Note_on_c, 5, 79, 96
1, 5064, Note_on_c, 6, 58, 96
1, 5074, Note_off_c, 5, 79, 0
1, 5076, Note_on_c, 5, 78, 96
1, 5085, Note_off_c, 6, 58, 0
1, 5088, Note_on_c, 6, 59, 96
1, 5097, Note_off_c, 5, 78, 0
1, 5100, Note_on_c, 5, 76, 96
1, 5105, Note_off_c, 5, 76, 0
1, 5106, Note_on_c, 5, 75, 96
1, 5109, Note_off_c, 6, 59, 0
1, 5111, Note_off_c, 5, 75, 0
1, 5112, Note_on_c, 5, 76, 96
1, 5112, Note_on_c, 6, 55, 96
1, 5122, Note_off_c, 5, 76, 0
1, 5124, Note_on_c, 5, 73, 96
1, 5133, Note_off_c, 6, 55, 0
1, 5134, Note_off_c, 5, 73, 0
1, 5136, Note_on_c, 5, 70, 96
1, 5136, Note_on_c, 6, 49, 96
1, 5146, Note_off_c, 5, 70, 0
1, 5148, Note_on_c, 5, 71, 96
1, 5153, Note_off_c, 5, 71, 0
1, 5154, Note_on_c, 5, 73, 96
1, 5157, Note_off_c, 6, 49, 0
1, 5159, Note_off_c, 5, 73, 0
1, 5160, Note_on_c, 5, 71, 96
1, 5160, Note_on_c, 6, 51, 96
1, 5181, Note_off_c, 6, 51, 0
1, 5184, Note_on_c, 0, 69, 96
1, 5184, Note_on_c, 1, 63, 96
1, 5184, Note_on_c, 2, 59, 96
1, 5184, Note_on_c, 3, 47, 96
1, 5184, Note_on_c, 4, 35, 96
1, 5184, Note_on_c, 6, 47, 96
1, 5205, Note_off_c, 0, 69, 0
1, 5205, Note_off_c, 1, 63, 0
1, 5205, Note_off_c, 2, 59, 0
1, 5205, Note_off_c, 3, 47, 0
1, 5205, Note_off_c, 4, 35, 0
1, 5205, Note_off_c, 6, 47, 0
1, 5208, Note_on_c, 0, 68, 96
1, 5208, Note_on_c, 1, 64, 96
1, 5208, Note_on_c, 2, 59, 96
1, 5208, Note_on_c, 3, 52, 96
1, 5208, Note_on_c, 4, 40, 96
1, 5208, Note_on_c, 6, 52, 96
1, 5220, Note_off_c, 0, 68, 0
1, 5220, Note_on_c, 0, 71, 96
1, 5232, Note_off_c, 0, 71, 0
1, 5232, Note_on_c, 0, 75, 96
1, 5232, Note_off_c, 1, 64, 0
1, 5232, Note_on_c, 1, 66, 96
1, 5232, Note_off_c, 2, 59, 0
1, 5232, Note_on_c, 2, 57, 96
1, 5232, Note_off_c, 3, 52, 0
1, 5232, Note_on_c, 3, 52, 96
1, 5232, Note_off_c, 4, 40, 0
1, 5232, Note_on_c, 4, 40, 96
1, 5232, Note_off_c, 6, 52, 0
1, 5232, Note_on_c, 6, 52, 96
1, 5242, Note_off_c, 0, 75, 0
1, 5244, Note_on_c, 0, 78, 96
1, 5254, Note_off_c, 0, 78, 0
1, 5256, Note_on_c, 0, 76, 96
1, 5256, Note_off_c, 1, 66, 0
1, 5256, Note_on_c, 1, 68, 96
1, 5256, Note_off_c, 2, 57, 0
1, 5256, Note_on_c, 2, 59, 96
1, 5256, Note_off_c, 3, 52, 0
1, 5256, Note_on_c, 3, 52, 96
1, 5256, Note_off_c, 4, 40, 0
1, 5256, Note_on_c, 4, 40, 96
1, 5256, Note_off_c, 5, 71, 0
1, 5256, Note_off_c, 6, 52, 0
1, 5256, Note_on_c, 6, 52, 96
1, 5266, Note_off_c, 0, 76, 0
1, 5268, Note_on_c, 0, 73, 96
1, 5277, Note_off_c, 1, 68, 0
1, 5277, Note_off_c, 2, 59, 0
1, 5277, Note_off_c, 3, 52, 0
1, 5277, Note_off_c, 4, 40, 0
1, 5277, Note_off_c, 6, 52, 0
1, 5278, Note_off_c, 0, 73, 0
1, 5280, Note_on_c, 0, 70, 96
1, 5280, Note_on_c, 1, 66, 96
1, 5280, Note_on_c, 2, 61, 96
1, 5280, Note_on_c, 3, 52, 96
1, 5280, Note_on_c, 4, 40, 96
1, 5280, Note_on_c, 6, 52, 96
1, 5286, Note_off_c, 1, 66, 0
1, 5286, Note_off_c, 2, 61, 0
1, 5292, Note_off_c, 0, 70, 0
1, 5292, Note_on_c, 0, 71, 96
1, 5298, Note_off_c, 0, 71, 0
1, 5298, Note_on_c, 0, 73, 96
1, 5301, Note_off_c, 6, 52, 0
1, 5303, Note_off_c, 0, 73, 0
1, 5304, Note_on_c, 0, 71, 96
1, 5304, Note_on_c, 1, 59, 96
1, 5304, Note_on_c, 2, 66, 96
1, 5304, Note_off_c, 3, 52, 0
1, 5304, Note_on_c, 3, 51, 96
1, 5304, Note_off_c, 4, 40, 0
1, 5304, Note_on_c, 4, 39, 96
1, 5304, Note_on_c, 5, 59, 96
1, 5304, Note_on_c, 6, 51, 96
1, 5308, Note_off_c, 5, 59, 0
1, 5308, Note_on_c, 5, 57, 96
1, 5310, Note_off_c, 0, 71, 0
1, 5310, Note_off_c, 1, 59, 0
1, 5310, Note_off_c, 2, 66, 0
1, 5312, Note_off_c, 5, 57, 0
1, 5312, Note_on_c, 5, 59, 96
1, 5314, Note_off_c, 6, 51, 0
1, 5316, Note_on_c, 6, 49, 96
1, 5325, Note_off_c, 3, 51, 0
1, 5325, Note_off_c, 4, 39, 0
1, 5326, Note_off_c, 6, 49, 0
1, 5328, Note_on_c, 6, 47, 96
1, 5336, Note_off_c, 5, 59, 0
1, 5338, Note_off_c, 6, 47, 0
1, 5340, Note_on_c, 5, 61, 96
1, 5340, Note_on_c, 6, 45, 96
1, 5345, Note_off_c, 5, 61, 0
1, 5346, Note_on_c, 5, 63, 96
1, 5350, Note_off_c, 6, 45, 0
1, 5351, Note_off_c, 5, 63, 0
1, 5352, Note_on_c, 5, 64, 96
1, 5352, Note_on_c, 6, 44, 96
1, 5362, Note_off_c, 5, 64, 0
1, 5364, Note_on_c, 5, 66, 96
1, 5369, Note_off_c, 5, 66, 0
1, 5370, Note_on_c, 5, 68, 96
1, 5373, Note_off_c, 6, 44, 0
1, 5375, Note_off_c, 5, 68, 0
1, 5376, Note_on_c, 5, 69, 96
1, 5376, Note_on_c, 6, 42, 96
1, 5397, Note_off_c, 6, 42, 0
1, 5400, Note_on_c, 6, 47, 96
1, 5407, Note_off_c, 5, 69, 0
1, 5412, Note_on_c, 5, 68, 96
1, 5417, Note_off_c, 5, 68, 0
1, 5418, Note_on_c, 5, 66, 96
1, 5421, Note_off_c, 6, 47, 0
1, 5423, Note_off_c, 5, 66, 0
1, 5424, Note_on_c, 5, 68, 96
1, 5424, Note_on_c, 6, 40, 96
1, 5434, Note_off_c, 5, 68, 0
1, 5436, Note_on_c, 5, 69, 96
1, 5441, Note_off_c, 5, 69, 0
1, 5442, Note_on_c, 5, 71, 96
1, 5445, Note_off_c, 6, 40, 0
1, 5447, Note_off_c, 5, 71, 0
1, 5448, Note_on_c, 5, 73, 96
1, 5448, Note_on_c, 6, 45, 96
1, 5469, Note_off_c, 6, 45, 0
1, 5472, Note_on_c, 6, 42, 96
1, 5479, Note_off_c, 5, 73, 0
1, 5484, Note_on_c, 5, 71, 96
1, 5489, Note_off_c, 5, 71, 0
1, 5490, Note_on_c, 5, 69, 96
1, 5493, Note_off_c, 6, 42, 0
1, 5495, Note_off_c, 5, 69, 0
1, 5496, Note_on_c, 5, 71, 96
1, 5496, Note_on_c, 6, 44, 96
1, 5506, Note_off_c, 5, 71, 0
1, 5508, Note_on_c, 5, 73, 96
1, 5513, Note_off_c, 5, 73, 0
1, 5514, Note_on_c, 5, 75, 96
1, 5517, Note_off_c, 6, 44, 0
1, 5519, Note_off_c, 5, 75, 0
1, 5520, Note_on_c, 5, 76, 96
1, 5526, Note_off_c, 5, 76, 0
1, 5532, Note_on_c, 6, 56, 96
1, 5542, Note_off_c, 6, 56, 0
1, 5544, Note_on_c, 5, 68, 96
1, 5544, Note_on_c, 6, 57, 96
1, 5548, Note_off_c, 5, 68, 0
1, 5548, Note_on_c, 5, 66, 96
1, 5552, Note_off_c, 5, 66, 0
1, 5552, Note_on_c, 5, 64, 96
1, 5554, Note_off_c, 6, 57, 0
1, 5556, Note_off_c, 5, 64, 0
1, 5556, Note_on_c, 5, 66, 96
1, 5556, Note_on_c, 6, 59, 96
1, 5566, Note_off_c, 5, 66, 0
1, 5566, Note_off_c, 6, 59, 0
1, 5568, Note_on_c, 5, 64, 96
1, 5568, Note_on_c, 6, 52, 96
1, 5578, Note_off_c, 6, 52, 0
1, 5580, Note_on_c, 3, 47, 96
1, 5580, Note_on_c, 4, 35, 96
1, 5580, Note_on_c, 6, 47, 96
1, 5590, Note_off_c, 3, 47, 0
1, 5590, Note_off_c, 4, 35, 0
1, 5590, Note_off_c, 6, 47, 0
1, 5592, Note_on_c, 3, 52, 96
1, 5592, Note_on_c, 4, 40, 96
1, 5592, Note_on_c, 6, 52, 96
1, 5602, Note_off_c, 3, 52, 0
1, 5602, Note_off_c, 4, 40, 0
1, 5602, Note_off_c, 6, 52, 0
1, 5604, Note_on_c, 3, 51, 96
1, 5604, Note_on_c, 4, 39, 96
1, 5604, Note_on_c, 6, 51, 96
1, 5610, Note_off_c, 5, 64, 0
1, 5614, Note_off_c, 3, 51, 0
1, 5614, Note_off_c, 4, 39, 0
1, 5614, Note_off_c, 6, 51, 0
1, 5616, Note_on_c, 0, 71, 96
1, 5616, Note_on_c, 1, 68, 96
1, 5616, Note_on_c, 2, 64, 96
1, 5616, Note_on_c, 3, 52, 96
1, 5616, Note_on_c, 4, 40, 96
1, 5616, Note_on_c, 5, 71, 96
1, 5616, Note_on_c, 6, 52, 96
1, 5626, Note_off_c, 3, 52, 0
1, 5626, Note_off_c, 4, 40, 0
1, 5626, Note_off_c, 6, 52, 0
1, 5628, Note_on_c, 3, 54, 96
1, 5628, Note_on_c, 4, 42, 96
1, 5628, Note_on_c, 6, 54, 96
1, 5637, Note_off_c, 0, 71, 0
1, 5637, Note_off_c, 1, 68, 0
1, 5637, Note_off_c, 2, 64, 0
1, 5637, Note_off_c, 5, 71, 0
1, 5638, Note_off_c, 3, 54, 0
1, 5638, Note_off_c, 4, 42, 0
1, 5638, Note_off_c, 6, 54, 0
1, 5640, Note_on_c, 0, 76, 96
1, 5640, Note_on_c, 1, 68, 96
1, 5640, Note_on_c, 2, 59, 96
1, 5640, Note_on_c, 3, 56, 96
1, 5640, Note_on_c, 4, 44, 96
1, 5640, Note_on_c, 5, 76, 96
1, 5640, Note_on_c, 6, 56, 96
1, 5661, Note_off_c, 6, 56, 0
1, 5664, Note_off_c, 1, 68, 0
1, 5664, Note_on_c, 1, 68, 96
1, 5664, Note_off_c, 2, 59, 0
1, 5664, Note_on_c, 2, 59, 96
1, 5664, Note_off_c, 3, 56, 0
1, 5664, Note_on_c, 3, 52, 96
1, 5664, Note_off_c, 4, 44, 0
1, 5664, Note_on_c, 4, 40, 96
1, 5664, Note_on_c, 6, 52, 96
1, 5671, Note_off_c, 0, 76, 0
1, 5671, Note_off_c, 5, 76, 0
1, 5676, Note_on_c, 0, 75, 96
1, 5676, Note_on_c, 5, 75, 96
1, 5681, Note_off_c, 0, 75, 0
1, 5681, Note_off_c, 5, 75, 0
1, 5682, Note_on_c, 0, 73, 96
1, 5682, Note_on_c, 5, 73, 96
1, 5685, Note_off_c, 6, 52, 0
1, 5687, Note_off_c, 0, 73, 0
1, 5687, Note_off_c, 5, 73, 0
1, 5688, Note_on_c, 0, 71, 96
1, 5688, Note_off_c, 1, 68, 0
1, 5688, Note_on_c, 1, 66, 96
1, 5688, Note_off_c, 2, 59, 0
1, 5688, Note_on_c, 2, 59, 96
1, 5688, Note_off_c, 3, 52, 0
1, 5688, Note_on_c, 3, 51, 96
1, 5688, Note_off_c, 4, 40, 0
1, 5688, Note_on_c, 4, 39, 96
1, 5688, Note_on_c, 5, 71, 96
1, 5688, Note_on_c, 6, 51, 96
1, 5693, Note_off_c, 0, 71, 0
1, 5693, Note_off_c, 5, 71, 0
1, 5694, Note_on_c, 0, 69, 96
1, 5694, Note_on_c, 5, 69, 96
1, 5699, Note_off_c, 0, 69, 0
1, 5699, Note_off_c, 5, 69, 0
1, 5700, Note_on_c, 0, 68, 96
1, 5700, Note_on_c, 5, 68, 96
1, 5705, Note_off_c, 0, 68, 0
1, 5705, Note_off_c, 5, 68, 0
1, 5706, Note_on_c, 0, 66, 96
1, 5706, Note_on_c, 5, 66, 96
1, 5709, Note_off_c, 1, 66, 0
1, 5709, Note_off_c, 2, 59, 0
1, 5709, Note_off_c, 3, 51, 0
1, 5709, Note_off_c, 4, 39, 0
1, 5709, Note_off_c, 6, 51, 0
1, 5711, Note_off_c, 0, 66, 0
1, 5711, Note_off_c, 5, 66, 0
1, 5712, Note_on_c, 0, 68, 96
1, 5712, Note_on_c, 1, 64, 96
1, 5712, Note_on_c, 2, 59, 96
1, 5712, Note_on_c, 3, 52, 96
1, 5712, Note_on_c, 4, 40, 96
1, 5712, Note_on_c, 5, 68, 96
1, 5712, Note_on_c, 6, 52, 96
1, 5733, Note_off_c, 6, 52, 0
1, 5736, Note_off_c, 1, 64, 0
1, 5736, Note_on_c, 1, 64, 96
1, 5736, Note_off_c, 2, 59, 0
1, 5736, Note_on_c, 2, 59, 96
1, 5736, Note_off_c, 3, 52, 0
1, 5736, Note_on_c, 3, 40, 96
1, 5736, Note_off_c, 4, 40, 0
1, 5736, Note_on_c, 4, 28, 96
1, 5736, Note_on_c, 6, 40, 96
1, 5738, Note_off_c, 0, 68, 0
1, 5738, Note_off_c, 5, 68, 0
1, 5742, Note_on_c, 0, 66, 96
1, 5742, Note_on_c, 5, 66, 96
1, 5747, Note_off_c, 0, 66, 0
1, 5747, Note_off_c, 5, 66, 0
1, 5748, Note_on_c, 0, 68, 96
1, 5748, Note_on_c, 5, 68, 96
1, 5753, Note_off_c, 0, 68, 0
1, 5753, Note_off_c, 5, 68, 0
1, 5754, Note_on_c, 0, 69, 96
1, 5754, Note_on_c, 5, 69, 96
1, 5757, Note_off_c, 6, 40, 0
1, 5759, Note_off_c, 0, 69, 0
1, 5759, Note_off_c, 5, 69, 0
1, 5760, Note_on_c, 0, 68, 96
1, 5760, Note_off_c, 1, 64, 0
1, 5760, Note_on_c, 1, 63, 96
1, 5760, Note_off_c, 2, 59, 0
1, 5760, Note_on_c, 2, 59, 96
1, 5760, Note_off_c, 3, 40, 0
1, 5760, Note_on_c, 3, 42, 96
1, 5760, Note_off_c, 4, 28, 0
1, 5760, Note_on_c, 4, 30, 96
1, 5760, Note_on_c, 5, 68, 96
1, 5760, Note_on_c, 6, 42, 96
1, 5765, Note_off_c, 0, 68, 0
1, 5765, Note_off_c, 5, 68, 0
1, 5766, Note_on_c, 0, 66, 96
1, 5766, Note_on_c, 5, 66, 96
1, 5771, Note_off_c, 0, 66, 0
1, 5771, Note_off_c, 5, 66, 0
1, 5772, Note_on_c, 0, 64, 96
1, 5772, Note_on_c, 5, 64, 96
1, 5777, Note_off_c, 0, 64, 0
1, 5777, Note_off_c, 5, 64, 0
1, 5778, Note_on_c, 0, 63, 96
1, 5778, Note_on_c, 5, 63, 96
1, 5781, Note_off_c, 1, 63, 0
1, 5781, Note_off_c, 2, 59, 0
1, 5781, Note_off_c, 3, 42, 0
1, 5781, Note_off_c, 4, 30, 0
1, 5781, Note_off_c, 6, 42, 0
1, 5783, Note_off_c, 0, 63, 0
1, 5783, Note_off_c, 5, 63, 0
1, 5784, Note_on_c, 0, 64, 96
1, 5784, Note_on_c, 1, 71, 96
1, 5784, Note_on_c, 2, 59, 96
1, 5784, Note_on_c, 3, 44, 96
1, 5784, Note_on_c, 4, 32, 96
1, 5784, Note_on_c, 5, 63, 96
1, 5784, Note_on_c, 6, 44, 96
1, 5790, Note_off_c, 3, 44, 0
1, 5790, Note_off_c, 4, 32, 0
1, 5796, Note_off_c, 5, 63, 0
1, 5796, Note_on_c, 5, 64, 96
1, 5805, Note_off_c, 6, 44, 0
1, 5808, Note_off_c, 1, 71, 0
1, 5808, Note_on_c, 1, 64, 96
1, 5808, Note_off_c, 2, 59, 0
1, 5808, Note_on_c, 2, 61, 96
1, 5808, Note_on_c, 3, 45, 96
1, 5808, Note_on_c, 4, 33, 96
1, 5808, Note_on_c, 6, 45, 96
1, 5814, Note_off_c, 3, 45, 0
1, 5814, Note_off_c, 4, 33, 0
1, 5815, Note_off_c, 0, 64, 0
1, 5817, Note_off_c, 5, 64, 0
1, 5820, Note_on_c, 0, 66, 96
1, 5820, Note_on_c, 5, 63, 96
1, 5825, Note_off_c, 0, 66, 0
1, 5825, Note_off_c, 5, 63, 0
1, 5826, Note_on_c, 0, 68, 96
1, 5826, Note_on_c, 5, 61, 96
1, 5829, Note_off_c, 6, 45, 0
1, 5831, Note_off_c, 0, 68, 0
1, 5831, Note_off_c, 5, 61, 0
1, 5832, Note_on_c, 0, 69, 96
1, 5832, Note_off_c, 1, 64, 0
1, 5832, Note_on_c, 1, 63, 96
1, 5832, Note_off_c, 2, 61, 0
1, 5832, Note_on_c, 2, 59, 96
1, 5832, Note_on_c, 3, 47, 96
1, 5832, Note_on_c, 4, 35, 96
1, 5832, Note_on_c, 5, 59, 96
1, 5832, Note_on_c, 6, 47, 96
1, 5837, Note_off_c, 0, 69, 0
1, 5837, Note_off_c, 5, 59, 0
1, 5838, Note_on_c, 0, 71, 96
1, 5838, Note_off_c, 3, 47, 0
1, 5838, Note_off_c, 4, 35, 0
1, 5838, Note_on_c, 5, 57, 96
1, 5843, Note_off_c, 0, 71, 0
1, 5843, Note_off_c, 5, 57, 0
1, 5844, Note_on_c, 0, 73, 96
1, 5844, Note_on_c, 5, 56, 96
1, 5849, Note_off_c, 0, 73, 0
1, 5849, Note_off_c, 5, 56, 0
1, 5850, Note_on_c, 0, 75, 96
1, 5850, Note_on_c, 5, 54, 96
1, 5853, Note_off_c, 1, 63, 0
1, 5853, Note_off_c, 2, 59, 0
1, 5853, Note_off_c, 6, 47, 0
1, 5855, Note_off_c, 0, 75, 0
1, 5855, Note_off_c, 5, 54, 0
1, 5856, Note_on_c, 0, 76, 96
1, 5856, Note_on_c, 1, 68, 96
1, 5856, Note_on_c, 2, 59, 96
1, 5856, Note_on_c, 3, 40, 96
1, 5856, Note_on_c, 4, 28, 96
1, 5856, Note_on_c, 5, 52, 96
1, 5856, Note_on_c, 6, 40, 96
1, 5868, Note_off_c, 3, 40, 0
1, 5868, Note_on_c, 3, 44, 96
1, 5868, Note_off_c, 4, 28, 0
1, 5868, Note_on_c, 4, 32, 96
1, 5868, Note_off_c, 6, 40, 0
1, 5868, Note_on_c, 6, 44, 96
1, 5877, Note_off_c, 5, 52, 0
1, 5880, Note_off_c, 3, 44, 0
1, 5880, Note_on_c, 3, 47, 96
1, 5880, Note_off_c, 4, 32, 0
1, 5880, Note_on_c, 4, 35, 96
1, 5880, Note_off_c, 6, 44, 0
1, 5880, Note_on_c, 6, 47, 96
1, 5890, Note_off_c, 3, 47, 0
1, 5890, Note_off_c, 4, 35, 0
1, 5890, Note_off_c, 6, 47, 0
1, 5892, Note_on_c, 3, 42, 96
1, 5892, Note_on_c, 4, 30, 96
1, 5892, Note_on_c, 6, 42, 96
1, 5898, Note_off_c, 0, 76, 0
1, 5898, Note_off_c, 1, 68, 0
1, 5898, Note_off_c, 2, 59, 0
1, 5902, Note_off_c, 3, 42, 0
1, 5902, Note_off_c, 4, 30, 0
1, 5902, Note_off_c, 6, 42, 0
1, 5904, Note_on_c, 2, 64, 80
1, 5904, Note_on_c, 3, 44, 96
1, 5904, Note_on_c, 4, 32, 96
1, 5904, Note_on_c, 5, 71, 96
1, 5904, Note_on_c, 6, 44, 96
1, 5914, Note_off_c, 3, 44, 0
1, 5914, Note_off_c, 4, 32, 0
1, 5914, Note_off_c, 6, 44, 0
1, 5916, Note_on_c, 3, 47, 96
1, 5916, Note_on_c, 4, 35, 96
1, 5916, Note_on_c, 6, 47, 96
1, 5925, Note_off_c, 2, 64, 0
1, 5925, Note_off_c, 5, 71, 0
1, 5926, Note_off_c, 3, 47, 0
1, 5926, Note_off_c, 4, 35, 0
1, 5926, Note_off_c, 6, 47, 0
1, 5928, Note_on_c, 1, 64, 80
1, 5928, Note_on_c, 2, 64, 80
1, 5928, Note_on_c, 3, 52, 96
1, 5928, Note_on_c, 4, 40, 96
1, 5928, Note_on_c, 5, 73, 96
1, 5928, Note_on_c, 6, 52, 96
1, 5932, Note_off_c, 5, 73, 0
1, 5932, Note_on_c, 5, 71, 96
1, 5936, Note_off_c, 5, 71, 0
1, 5936, Note_on_c, 5, 73, 96
1, 5940, Note_off_c, 1, 64, 0
1, 5940, Note_on_c, 1, 68, 80
1, 5940, Note_off_c, 5, 73, 0
1, 5940, Note_on_c, 5, 71, 96
1, 5944, Note_off_c, 5, 71, 0
1, 5944, Note_on_c, 5, 73, 96
1, 5948, Note_off_c, 5, 73, 0
1, 5948, Note_on_c, 5, 71, 96
1, 5949, Note_off_c, 3, 52, 0
1, 5949, Note_off_c, 4, 40, 0
1, 5949, Note_off_c, 6, 52, 0
1, 5952, Note_off_c, 1, 68, 0
1, 5952, Note_on_c, 1, 71, 80
1, 5952, Note_off_c, 2, 64, 0
1, 5952, Note_on_c, 2, 64, 80
1, 5952, Note_off_c, 5, 71, 0
1, 5952, Note_on_c, 5, 73, 96
1, 5952, Note_on_c, 6, 64, 96
1, 5956, Note_off_c, 5, 73, 0
1, 5956, Note_on_c, 5, 71, 96
1, 5960, Note_off_c, 5, 71, 0
1, 5960, Note_on_c, 5, 73, 96
1, 5962, Note_off_c, 1, 71, 0
1, 5964, Note_on_c, 1, 66, 80
1, 5964, Note_off_c, 5, 73, 0
1, 5964, Note_on_c, 5, 71, 96
1, 5968, Note_off_c, 5, 71, 0
1, 5968, Note_on_c, 5, 73, 96
1, 5972, Note_off_c, 5, 73, 0
1, 5972, Note_on_c, 5, 71, 96
1, 5973, Note_off_c, 6, 64, 0
1, 5974, Note_off_c, 1, 66, 0
1, 5976, Note_on_c, 1, 68, 80
1, 5976, Note_off_c, 2, 64, 0
1, 5976, Note_on_c, 2, 64, 80
1, 5976, Note_off_c, 5, 71, 0
1, 5976, Note_on_c, 5, 73, 96
1, 5976, Note_on_c, 6, 64, 96
1, 5980, Note_off_c, 5, 73, 0
1, 5980, Note_on_c, 5, 71, 96
1, 5984, Note_off_c, 5, 71, 0
1, 5984, Note_on_c, 5, 73, 96
1, 5986, Note_off_c, 1, 68, 0
1, 5988, Note_on_c, 1, 71, 80
1, 5988, Note_off_c, 5, 73, 0
1, 5988, Note_on_c, 5, 71, 96
1, 5992, Note_off_c, 5, 71, 0
1, 5992, Note_on_c, 5, 73, 96
1, 5996, Note_off_c, 5, 73, 0
1, 5996, Note_on_c, 5, 71, 96
1, 5997, Note_off_c, 2, 64, 0
1, 5997, Note_off_c, 6, 64, 0
1, 5998, Note_off_c, 1, 71, 0
1, 6000, Note_on_c, 0, 64, 80
1, 6000, Note_on_c, 1, 76, 80
1, 6000, Note_on_c, 2, 62, 80
1, 6000, Note_off_c, 5, 71, 0
1, 6000, Note_on_c, 5, 73, 96
1, 6000, Note_on_c, 6, 62, 96
1, 6004, Note_off_c, 5, 73, 0
1, 6004, Note_on_c, 5, 71, 96
1, 6008, Note_off_c, 5, 71, 0
1, 6008, Note_on_c, 5, 73, 96
1, 6012, Note_off_c, 0, 64, 0
1, 6012, Note_on_c, 0, 68, 80
1, 6012, Note_off_c, 5, 73, 0
1, 6012, Note_on_c, 5, 71, 96
1, 6016, Note_off_c, 5, 71, 0
1, 6016, Note_on_c, 5, 73, 96
1, 6020, Note_off_c, 5, 73, 0
1, 6020, Note_on_c, 5, 71, 96
1, 6021, Note_off_c, 1, 76, 0
1, 6021, Note_off_c, 6, 62, 0
1, 6024, Note_off_c, 0, 68, 0
1, 6024, Note_on_c, 0, 71, 80
1, 6024, Note_on_c, 1, 68, 80
1, 6024, Note_off_c, 2, 62, 0
1, 6024, Note_on_c, 2, 62, 80
1, 6024, Note_off_c, 5, 71, 0
1, 6024, Note_on_c, 5, 73, 96
1, 6024, Note_on_c, 6, 62, 96
1, 6028, Note_off_c, 5, 73, 0
1, 6028, Note_on_c, 5, 71, 96
1, 6032, Note_off_c, 5, 71, 0
1, 6032, Note_on_c, 5, 73, 96
1, 6034, Note_off_c, 0, 71, 0
1, 6036, Note_on_c, 0, 66, 80
1, 6036, Note_off_c, 5, 73, 0
1, 6036, Note_on_c, 5, 71, 96
1, 6040, Note_off_c, 5, 71, 0
1, 6040, Note_on_c, 5, 73, 96
1, 6044, Note_off_c, 5, 73, 0
1, 6044, Note_on_c, 5, 71, 96
1, 6045, Note_off_c, 1, 68, 0
1, 6045, Note_off_c, 6, 62, 0
1, 6046, Note_off_c, 0, 66, 0
1, 6048, Note_on_c, 0, 68, 80
1, 6048, Note_on_c, 1, 64, 80
1, 6048, Note_off_c, 2, 62, 0
1, 6048, Note_on_c, 2, 62, 80
1, 6048, Note_off_c, 5, 71, 0
1, 6048, Note_on_c, 5, 73, 96
1, 6048, Note_on_c, 6, 62, 96
1, 6052, Note_off_c, 5, 73, 0
1, 6052, Note_on_c, 5, 71, 96
1, 6058, Note_off_c, 0, 68, 0
1, 6060, Note_on_c, 0, 71, 80
1, 6069, Note_off_c, 1, 64, 0
1, 6069, Note_off_c, 2, 62, 0
1, 6069, Note_off_c, 6, 62, 0
1, 6070, Note_off_c, 0, 71, 0
1, 6072, Note_on_c, 0, 76, 80
1, 6072, Note_on_c, 1, 64, 80
1, 6072, Note_on_c, 2, 61, 80
1, 6072, Note_on_c, 6, 61, 96
1, 6078, Note_off_c, 0, 76, 0
1, 6080, Note_off_c, 5, 71, 0
1, 6084, Note_on_c, 5, 73, 96
1, 6089, Note_off_c, 5, 73, 0
1, 6090, Note_on_c, 5, 74, 96
1, 6093, Note_off_c, 1, 64, 0
1, 6093, Note_off_c, 6, 61, 0
1, 6095, Note_off_c, 5, 74, 0
1, 6096, Note_on_c, 0, 69, 80
1, 6096, Note_on_c, 1, 64, 80
1, 6096, Note_off_c, 2, 61, 0
1, 6096, Note_on_c, 2, 61, 80
1, 6096, Note_on_c, 3, 49, 80
1, 6096, Note_on_c, 5, 76, 96
1, 6096, Note_on_c, 6, 49, 96
1, 6102, Note_off_c, 0, 69, 0
1, 6102, Note_off_c, 5, 76, 0
1, 6102, Note_on_c, 5, 74, 96
1, 6107, Note_off_c, 5, 74, 0
1, 6108, Note_on_c, 5, 73, 96
1, 6117, Note_off_c, 1, 64, 0
1, 6117, Note_off_c, 3, 49, 0
1, 6117, Note_off_c, 6, 49, 0
1, 6118, Note_off_c, 5, 73, 0
1, 6120, Note_on_c, 0, 68, 80
1, 6120, Note_on_c, 1, 64, 80
1, 6120, Note_off_c, 2, 61, 0
1, 6120, Note_on_c, 2, 59, 80
1, 6120, Note_on_c, 3, 52, 80
1, 6120, Note_on_c, 5, 74, 96
1, 6120, Note_on_c, 6, 52, 96
1, 6126, Note_off_c, 0, 68, 0
1, 6126, Note_off_c, 5, 74, 0
1, 6126, Note_on_c, 5, 73, 96
1, 6131, Note_off_c, 5, 73, 0
1, 6132, Note_on_c, 5, 71, 96
1, 6141, Note_off_c, 1, 64, 0
1, 6141, Note_off_c, 2, 59, 0
1, 6141, Note_off_c, 3, 52, 0
1, 6141, Note_off_c, 6, 52, 0
1, 6142, Note_off_c, 5, 71, 0
1, 6144, Note_on_c, 0, 69, 80
1, 6144, Note_on_c, 1, 64, 80
1, 6144, Note_on_c, 2, 57, 80
1, 6144, Note_on_c, 3, 45, 80
1, 6144, Note_on_c, 5, 73, 96
1, 6144, Note_on_c, 6, 45, 96
1, 6150, Note_off_c, 0, 69, 0
1, 6154, Note_off_c, 5, 73, 0
1, 6156, Note_on_c, 5, 69, 96
1, 6165, Note_off_c, 1, 64, 0
1, 6165, Note_off_c, 2, 57, 0
1, 6165, Note_off_c, 3, 45, 0
1, 6165, Note_off_c, 6, 45, 0
1, 6166, Note_off_c, 5, 69, 0
1, 6168, Note_on_c, 2, 61, 80
1, 6168, Note_on_c, 3, 57, 80
1, 6168, Note_on_c, 5, 68, 96
1, 6168, Note_on_c, 6, 57, 96
1, 6178, Note_off_c, 5, 68, 0
1, 6180, Note_on_c, 5, 69, 96
1, 6189, Note_off_c, 2, 61, 0
1, 6189, Note_off_c, 3, 57, 0
1, 6189, Note_off_c, 6, 57, 0
1, 6190, Note_off_c, 5, 69, 0
1, 6192, Note_on_c, 2, 65, 80
1, 6192, Note_on_c, 3, 56, 80
1, 6192, Note_on_c, 5, 73, 96
1, 6192, Note_on_c, 6, 56, 96
1, 6198, Note_off_c, 5, 73, 0
1, 6213, Note_off_c, 2, 65, 0
1, 6213, Note_off_c, 3, 56, 0
1, 6213, Note_off_c, 6, 56, 0
1, 6216, Note_on_c, 1, 66, 80
1, 6216, Note_on_c, 2, 66, 80
1, 6216, Note_on_c, 3, 54, 80
1, 6216, Note_on_c, 5, 74, 96
1, 6216, Note_on_c, 6, 54, 96
1, 6220, Note_off_c, 5, 74, 0
1, 6220, Note_on_c, 5, 73, 96
1, 6224, Note_off_c, 5, 73, 0
1, 6224, Note_on_c, 5, 74, 96
1, 6228, Note_off_c, 1, 66, 0
1, 6228, Note_on_c, 1, 69, 80
1, 6228, Note_off_c, 5, 74, 0
1, 6228, Note_on_c, 5, 73, 96
1, 6232, Note_off_c, 5, 73, 0
1, 6232, Note_on_c, 5, 74, 96
1, 6236, Note_off_c, 5, 74, 0
1, 6236, Note_on_c, 5, 73, 96
1, 6237, Note_off_c, 3, 54, 0
1, 6237, Note_off_c, 6, 54, 0
1, 6240, Note_off_c, 1, 69, 0
1, 6240, Note_on_c, 1, 73, 80
1, 6240, Note_off_c, 2, 66, 0
1, 6240, Note_on_c, 2, 66, 80
1, 6240, Note_off_c, 5, 73, 0
1, 6240, Note_on_c, 5, 74, 96
1, 6240, Note_on_c, 6, 66, 96
1, 6244, Note_off_c, 5, 74, 0
1, 6244, Note_on_c, 5, 73, 96
1, 6248, Note_off_c, 5, 73, 0
1, 6248, Note_on_c, 5, 74, 96
1, 6250, Note_off_c, 1, 73, 0
1, 6252, Note_on_c, 1, 68, 80
1, 6252, Note_off_c, 5, 74, 0
1, 6252, Note_on_c, 5, 73, 96
1, 6256, Note_off_c, 5, 73, 0
1, 6256, Note_on_c, 5, 74, 96
1, 6260, Note_off_c, 5, 74, 0
1, 6260, Note_on_c, 5, 73, 96
1, 6261, Note_off_c, 6, 66, 0
1, 6262, Note_off_c, 1, 68, 0
1, 6264, Note_on_c, 1, 69, 80
1, 6264, Note_off_c, 2, 66, 0
1, 6264, Note_on_c, 2, 66, 80
1, 6264, Note_off_c, 5, 73, 0
1, 6264, Note_on_c, 5, 74, 96
1, 6264, Note_on_c, 6, 66, 96
1, 6268, Note_off_c, 5, 74, 0
1, 6268, Note_on_c, 5, 73, 96
1, 6272, Note_off_c, 5, 73, 0
1, 6272, Note_on_c, 5, 74, 96
1, 6274, Note_off_c, 1, 69, 0
1, 6276, Note_on_c, 1, 73, 80
1, 6276, Note_off_c, 5, 74, 0
1, 6276, Note_on_c, 5, 73, 96
1, 6280, Note_off_c, 5, 73, 0
1, 6280, Note_on_c, 5, 74, 96
1, 6284, Note_off_c, 5, 74, 0
1, 6284, Note_on_c, 5, 73, 96
1, 6285, Note_off_c, 2, 66, 0
1, 6285, Note_off_c, 6, 66, 0
1, 6286, Note_off_c, 1, 73, 0
1, 6288, Note_on_c, 0, 66, 80
1, 6288, Note_on_c, 1, 78, 80
1, 6288, Note_on_c, 2, 64, 80
1, 6288, Note_off_c, 5, 73, 0
1, 6288, Note_on_c, 5, 74, 96
1, 6288, Note_on_c, 6, 64, 96
1, 6292, Note_off_c, 5, 74, 0
1, 6292, Note_on_c, 5, 73, 96
1, 6296, Note_off_c, 5, 73, 0
1, 6296, Note_on_c, 5, 74, 96
1, 6300, Note_off_c, 0, 66, 0
1, 6300, Note_on_c, 0, 70, 80
1, 6300, Note_off_c, 5, 74, 0
1, 6300, Note_on_c, 5, 73, 96
1, 6304, Note_off_c, 5, 73, 0
1, 6304, Note_on_c, 5, 74, 96
1, 6308, Note_off_c, 5, 74, 0
1, 6308, Note_on_c, 5, 73, 96
1, 6309, Note_off_c, 1, 78, 0
1, 6309, Note_off_c, 6, 64, 0
1, 6312, Note_off_c, 0, 70, 0
1, 6312, Note_on_c, 0, 73, 80
1, 6312, Note_on_c, 1, 70, 80
1, 6312, Note_off_c, 2, 64, 0
1, 6312, Note_on_c, 2, 64, 80
1, 6312, Note_off_c, 5, 73, 0
1, 6312, Note_on_c, 5, 74, 96
1, 6312, Note_on_c, 6, 64, 96
1, 6316, Note_off_c, 5, 74, 0
1, 6316, Note_on_c, 5, 73, 96
1, 6320, Note_off_c, 5, 73, 0
1, 6320, Note_on_c, 5, 74, 96
1, 6322, Note_off_c, 0, 73, 0
1, 6324, Note_on_c, 0, 68, 80
1, 6324, Note_off_c, 5, 74, 0
1, 6324, Note_on_c, 5, 73, 96
1, 6328, Note_off_c, 5, 73, 0
1, 6328, Note_on_c, 5, 74, 96
1, 6332, Note_off_c, 5, 74, 0
1, 6332, Note_on_c, 5, 73, 96
1, 6333, Note_off_c, 1, 70, 0
1, 6333, Note_off_c, 6, 64, 0
1, 6334, Note_off_c, 0, 68, 0
1, 6336, Note_on_c, 0, 70, 80
1, 6336, Note_on_c, 1, 66, 80
1, 6336, Note_off_c, 2, 64, 0
1, 6336, Note_on_c, 2, 64, 80
1, 6336, Note_off_c, 5, 73, 0
1, 6336, Note_on_c, 5, 74, 96
1, 6336, Note_on_c, 6, 64, 96
1, 6340, Note_off_c, 5, 74, 0
1, 6340, Note_on_c, 5, 73, 96
1, 6346, Note_off_c, 0, 70, 0
1, 6348, Note_on_c, 0, 73, 80
1, 6357, Note_off_c, 1, 66, 0
1, 6357, Note_off_c, 2, 64, 0
1, 6357, Note_off_c, 6, 64, 0
1, 6358, Note_off_c, 0, 73, 0
1, 6360, Note_on_c, 0, 78, 80
1, 6360, Note_on_c, 1, 66, 80
1, 6360, Note_on_c, 2, 62, 80
1, 6360, Note_on_c, 6, 62, 96
1, 6366, Note_off_c, 0, 78, 0
1, 6368, Note_off_c, 5, 73, 0
1, 6372, Note_on_c, 5, 74, 96
1, 6377, Note_off_c, 5, 74, 0
1, 6378, Note_on_c, 5, 76, 96
1, 6381, Note_off_c, 1, 66, 0
1, 6381, Note_off_c, 6, 62, 0
1, 6383, Note_off_c, 5, 76, 0
1, 6384, Note_on_c, 0, 71, 80
1, 6384, Note_on_c, 1, 66, 80
1, 6384, Note_off_c, 2, 62, 0
1, 6384, Note_on_c, 2, 62, 80
1, 6384, Note_on_c, 3, 50, 80
1, 6384, Note_on_c, 5, 78, 96
1, 6384, Note_on_c, 6, 50, 96
1, 6390, Note_off_c, 0, 71, 0
1, 6390, Note_off_c, 5, 78, 0
1, 6390, Note_on_c, 5, 76, 96
1, 6395, Note_off_c, 5, 76, 0
1, 6396, Note_on_c, 5, 74, 96
1, 6405, Note_off_c, 1, 66, 0
1, 6405, Note_off_c, 3, 50, 0
1, 6405, Note_off_c, 6, 50, 0
1, 6406, Note_off_c, 5, 74, 0
1, 6408, Note_on_c, 0, 70, 80
1, 6408, Note_on_c, 1, 66, 80
1, 6408, Note_off_c, 2, 62, 0
1, 6408, Note_on_c, 2, 61, 80
1, 6408, Note_on_c, 3, 54, 80
1, 6408, Note_on_c, 5, 76, 96
1, 6408, Note_on_c, 6, 54, 96
1, 6414, Note_off_c, 0, 70, 0
1, 6414, Note_off_c, 5, 76, 0
1, 6414, Note_on_c, 5, 74, 96
1, 6419, Note_off_c, 5, 74, 0
1, 6420, Note_on_c, 5, 73, 96
1, 6429, Note_off_c, 1, 66, 0
1, 6429, Note_off_c, 2, 61, 0
1, 6429, Note_off_c, 3, 54, 0
1, 6429, Note_off_c, 6, 54, 0
1, 6430, Note_off_c, 5, 73, 0
1, 6432, Note_on_c, 0, 71, 80
1, 6432, Note_on_c, 1, 66, 80
1, 6432, Note_on_c, 2, 59, 80
1, 6432, Note_on_c, 3, 47, 80
1, 6432, Note_on_c, 5, 74, 96
1, 6432, Note_on_c, 6, 47, 96
1, 6438, Note_off_c, 0, 71, 0
1, 6442, Note_off_c, 5, 74, 0
1, 6444, Note_on_c, 5, 71, 96
1, 6453, Note_off_c, 1, 66, 0
1, 6453, Note_off_c, 2, 59, 0
1, 6453, Note_off_c, 3, 47, 0
1, 6453, Note_off_c, 6, 47, 0
1, 6456, Note_off_c, 5, 71, 0
1, 6456, Note_on_c, 5, 70, 96
1, 6456, Note_on_c, 6, 59, 96
1, 6468, Note_off_c, 5, 70, 0
1, 6468, Note_on_c, 5, 71, 96
1, 6477, Note_off_c, 6, 59, 0
1, 6478, Note_off_c, 5, 71, 0
1, 6480, Note_on_c, 5, 66, 96
1, 6480, Note_on_c, 6, 62, 96
1, 6490, Note_off_c, 5, 66, 0
1, 6492, Note_on_c, 5, 71, 96
1, 6497, Note_off_c, 5, 71, 0
1, 6498, Note_on_c, 5, 73, 96
1, 6501, Note_off_c, 6, 62, 0
1, 6503, Note_off_c, 5, 73, 0
1, 6504, Note_on_c, 5, 74, 96
1, 6504, Note_on_c, 6, 53, 96
1, 6516, Note_off_c, 5, 74, 0
1, 6516, Note_on_c, 5, 73, 96
1, 6522, Note_off_c, 5, 73, 0
1, 6522, Note_on_c, 5, 71, 96
1, 6525, Note_off_c, 6, 53, 0
1, 6527, Note_off_c, 5, 71, 0
1, 6528, Note_on_c, 0, 74, 80
1, 6528, Note_on_c, 1, 71, 80
1, 6528, Note_on_c, 5, 71, 96
1, 6540, Note_off_c, 0, 74, 0
1, 6540, Note_on_c, 0, 73, 80
1, 6540, Note_off_c, 1, 71, 0
1, 6540, Note_on_c, 1, 69, 80
1, 6540, Note_off_c, 5, 71, 0
1, 6540, Note_on_c, 5, 80, 96
1, 6546, Note_off_c, 0, 73, 0
1, 6546, Note_on_c, 0, 71, 80
1, 6546, Note_off_c, 1, 69, 0
1, 6546, Note_on_c, 1, 68, 80
1, 6551, Note_off_c, 0, 71, 0
1, 6551, Note_off_c, 1, 68, 0
1, 6552, Note_on_c, 0, 80, 80
1, 6552, Note_on_c, 1, 77, 80
1, 6552, Note_on_c, 6, 49, 96
1, 6558, Note_off_c, 0, 80, 0
1, 6558, Note_off_c, 1, 77, 0
1, 6561, Note_off_c, 5, 80, 0
1, 6564, Note_on_c, 5, 71, 96
1, 6573, Note_off_c, 6, 49, 0
1, 6574, Note_off_c, 5, 71, 0
1, 6576, Note_on_c, 5, 69, 96
1, 6576, Note_on_c, 6, 54, 96
1, 6588, Note_off_c, 5, 69, 0
1, 6588, Note_on_c, 5, 68, 96
1, 6594, Note_off_c, 5, 68, 0
1, 6594, Note_on_c, 5, 66, 96
1, 6597, Note_off_c, 6, 54, 0
1, 6599, Note_off_c, 5, 66, 0
1, 6600, Note_on_c, 0, 69, 80
1, 6600, Note_on_c, 1, 61, 80
1, 6600, Note_on_c, 5, 78, 96
1, 6604, Note_off_c, 5, 78, 0
1, 6604, Note_on_c, 5, 77, 96
1, 6608, Note_off_c, 5, 77, 0
1, 6608, Note_on_c, 5, 78, 96
1, 6612, Note_off_c, 0, 69, 0
1, 6612, Note_on_c, 0, 68, 80
1, 6612, Note_off_c, 1, 61, 0
1, 6612, Note_on_c, 1, 59, 80
1, 6618, Note_off_c, 0, 68, 0
1, 6618, Note_on_c, 0, 66, 80
1, 6618, Note_off_c, 1, 59, 0
1, 6618, Note_on_c, 1, 57, 80
1, 6623, Note_off_c, 0, 66, 0
1, 6623, Note_off_c, 1, 57, 0
1, 6624, Note_on_c, 0, 78, 80
1, 6624, Note_on_c, 1, 69, 80
1, 6624, Note_on_c, 6, 42, 96
1, 6630, Note_off_c, 0, 78, 0
1, 6630, Note_off_c, 1, 69, 0
1, 6632, Note_off_c, 5, 78, 0
1, 6636, Note_on_c, 5, 76, 96
1, 6645, Note_off_c, 6, 42, 0
1, 6646, Note_off_c, 5, 76, 0
1, 6648, Note_on_c, 5, 74, 96
1, 6648, Note_on_c, 6, 47, 96
1, 6650, Note_off_c, 5, 74, 0
1, 6656, Note_on_c, 5, 73, 96
1, 6658, Note_off_c, 5, 73, 0
1, 6664, Note_on_c, 5, 71, 96
1, 6666, Note_off_c, 5, 71, 0
1, 6669, Note_off_c, 6, 47, 0
1, 6672, Note_on_c, 5, 69, 96
1, 6672, Note_on_c, 6, 49, 96
1, 6674, Note_off_c, 5, 69, 0
1, 6680, Note_on_c, 5, 68, 96
1, 6682, Note_off_c, 5, 68, 0
1, 6688, Note_on_c, 5, 66, 96
1, 6690, Note_off_c, 5, 66, 0
1, 6693, Note_off_c, 6, 49, 0
1, 6696, Note_on_c, 5, 65, 96
1, 6696, Note_on_c, 6, 50, 96
1, 6703, Note_off_c, 5, 65, 0
1, 6704, Note_on_c, 5, 66, 96
1, 6711, Note_off_c, 5, 66, 0
1, 6712, Note_on_c, 5, 68, 96
1, 6717, Note_off_c, 6, 50, 0
1, 6719, Note_off_c, 5, 68, 0
1, 6720, Note_on_c, 5, 59, 96
1, 6720, Note_on_c, 6, 41, 96
1, 6724, Note_off_c, 5, 59, 0
1, 6724, Note_on_c, 5, 61, 96
1, 6728, Note_off_c, 5, 61, 0
1, 6728, Note_on_c, 5, 62, 96
1, 6730, Note_off_c, 6, 41, 0
1, 6732, Note_on_c, 3, 49, 80
1, 6732, Note_off_c, 5, 62, 0
1, 6732, Note_on_c, 5, 61, 96
1, 6732, Note_on_c, 6, 44, 96
1, 6736, Note_off_c, 5, 61, 0
1, 6736, Note_on_c, 5, 62, 96
1, 6740, Note_off_c, 5, 62, 0
1, 6740, Note_on_c, 5, 61, 96
1, 6742, Note_off_c, 3, 49, 0
1, 6744, Note_on_c, 3, 61, 80
1, 6744, Note_off_c, 5, 61, 0
1, 6744, Note_on_c, 5, 62, 96
1, 6744, Note_off_c, 6, 44, 0
1, 6744, Note_on_c, 6, 49, 96
1, 6748, Note_off_c, 5, 62, 0
1, 6748, Note_on_c, 5, 61, 96
1, 6752, Note_off_c, 5, 61, 0
1, 6752, Note_on_c, 5, 62, 96
1, 6754, Note_off_c, 3, 61, 0
1, 6756, Note_on_c, 3, 59, 80
1, 6756, Note_off_c, 5, 62, 0
1, 6756, Note_on_c, 5, 61, 96
1, 6756, Note_off_c, 6, 49, 0
1, 6756, Note_on_c, 6, 47, 96
1, 6760, Note_off_c, 5, 61, 0
1, 6760, Note_on_c, 5, 62, 96
1, 6764, Note_off_c, 5, 62, 0
1, 6764, Note_on_c, 5, 61, 96
1, 6766, Note_off_c, 3, 59, 0
1, 6768, Note_on_c, 0, 73, 80
1, 6768, Note_on_c, 1, 68, 80
1, 6768, Note_on_c, 2, 65, 80
1, 6768, Note_on_c, 3, 57, 80
1, 6768, Note_off_c, 5, 61, 0
1, 6768, Note_on_c, 5, 62, 96
1, 6768, Note_off_c, 6, 47, 0
1, 6768, Note_on_c, 6, 45, 96
1, 6772, Note_off_c, 5, 62, 0
1, 6772, Note_on_c, 5, 61, 96
1, 6776, Note_off_c, 5, 61, 0
1, 6776, Note_on_c, 5, 62, 96
1, 6778, Note_off_c, 3, 57, 0
1, 6780, Note_on_c, 3, 56, 80
1, 6780, Note_off_c, 5, 62, 0
1, 6780, Note_on_c, 5, 61, 96
1, 6780, Note_off_c, 6, 45, 0
1, 6780, Note_on_c, 6, 44, 96
1, 6784, Note_off_c, 5, 61, 0
1, 6784, Note_on_c, 5, 62, 96
1, 6788, Note_off_c, 5, 62, 0
1, 6788, Note_on_c, 5, 61, 96
1, 6789, Note_off_c, 0, 73, 0
1, 6789, Note_off_c, 1, 68, 0
1, 6789, Note_off_c, 2, 65, 0
1, 6790, Note_off_c, 3, 56, 0
1, 6790, Note_off_c, 6, 44, 0
1, 6792, Note_on_c, 0, 78, 80
1, 6792, Note_on_c, 1, 73, 80
1, 6792, Note_on_c, 2, 66, 80
1, 6792, Note_on_c, 3, 57, 80
1, 6792, Note_off_c, 5, 61, 0
1, 6792, Note_on_c, 5, 62, 96
1, 6792, Note_on_c, 6, 45, 96
1, 6796, Note_off_c, 5, 62, 0
1, 6796, Note_on_c, 5, 61, 96
1, 6800, Note_off_c, 5, 61, 0
1, 6800, Note_on_c, 5, 62, 96
1, 6804, Note_off_c, 5, 62, 0
1, 6804, Note_on_c, 5, 61, 96
1, 6808, Note_off_c, 5, 61, 0
1, 6808, Note_on_c, 5, 62, 96
1, 6812, Note_off_c, 5, 62, 0
1, 6812, Note_on_c, 5, 61, 96
1, 6813, Note_off_c, 6, 45, 0
1, 6816, Note_off_c, 1, 73, 0
1, 6816, Note_on_c, 1, 69, 80
1, 6816, Note_off_c, 2, 66, 0
1, 6816, Note_on_c, 2, 61, 80
1, 6816, Note_off_c, 3, 57, 0
1, 6816, Note_on_c, 3, 54, 80
1, 6816, Note_off_c, 5, 61, 0
1, 6816, Note_on_c, 5, 62, 96
1, 6816, Note_on_c, 6, 42, 96
1, 6820, Note_off_c, 5, 62, 0
1, 6820, Note_on_c, 5, 61, 96
1, 6823, Note_off_c, 0, 78, 0
1, 6824, Note_off_c, 5, 61, 0
1, 6824, Note_on_c, 5, 62, 96
1, 6828, Note_on_c, 0, 76, 80
1, 6828, Note_off_c, 5, 62, 0
1, 6828, Note_on_c, 5, 61, 96
1, 6832, Note_off_c, 5, 61, 0
1, 6832, Note_on_c, 5, 62, 96
1, 6833, Note_off_c, 0, 76, 0
1, 6834, Note_on_c, 0, 74, 80
1, 6836, Note_off_c, 5, 62, 0
1, 6836, Note_on_c, 5, 61, 96
1, 6837, Note_off_c, 6, 42, 0
1, 6839, Note_off_c, 0, 74, 0
1, 6840, Note_on_c, 0, 73, 80
1, 6840, Note_off_c, 1, 69, 0
1, 6840, Note_on_c, 1, 68, 80
1, 6840, Note_off_c, 2, 61, 0
1, 6840, Note_on_c, 2, 61, 80
1, 6840, Note_off_c, 3, 54, 0
1, 6840, Note_on_c, 3, 53, 80
1, 6840, Note_off_c, 5, 61, 0
1, 6840, Note_on_c, 5, 62, 96
1, 6840, Note_on_c, 6, 41, 96
1, 6844, Note_off_c, 5, 62, 0
1, 6844, Note_on_c, 5, 61, 96
1, 6845, Note_off_c, 0, 73, 0
1, 6846, Note_on_c, 0, 71, 80
1, 6848, Note_off_c, 5, 61, 0
1, 6848, Note_on_c, 5, 62, 96
1, 6851, Note_off_c, 0, 71, 0
1, 6852, Note_on_c, 0, 69, 80
1, 6852, Note_off_c, 5, 62, 0
1, 6852, Note_on_c, 5, 61, 96
1, 6856, Note_off_c, 5, 61, 0
1, 6856, Note_on_c, 5, 62, 96
1, 6857, Note_off_c, 0, 69, 0
1, 6858, Note_on_c, 0, 68, 80
1, 6860, Note_off_c, 5, 62, 0
1, 6860, Note_on_c, 5, 61, 96
1, 6861, Note_off_c, 1, 68, 0
1, 6861, Note_off_c, 2, 61, 0
1, 6861, Note_off_c, 3, 53, 0
1, 6861, Note_off_c, 6, 41, 0
1, 6863, Note_off_c, 0, 68, 0
1, 6864, Note_on_c, 0, 69, 80
1, 6864, Note_on_c, 1, 66, 80
1, 6864, Note_on_c, 2, 61, 80
1, 6864, Note_on_c, 3, 54, 80
1, 6864, Note_off_c, 5, 61, 0
1, 6864, Note_on_c, 5, 62, 96
1, 6864, Note_on_c, 6, 42, 96
1, 6868, Note_off_c, 5, 62, 0
1, 6868, Note_on_c, 5, 61, 96
1, 6872, Note_off_c, 5, 61, 0
1, 6872, Note_on_c, 5, 62, 96
1, 6876, Note_off_c, 5, 62, 0
1, 6876, Note_on_c, 5, 61, 96
1, 6880, Note_off_c, 5, 61, 0
1, 6880, Note_on_c, 5, 62, 96
1, 6884, Note_off_c, 5, 62, 0
1, 6884, Note_on_c, 5, 61, 96
1, 6885, Note_off_c, 3, 54, 0
1, 6885, Note_off_c, 6, 42, 0
1, 6888, Note_off_c, 1, 66, 0
1, 6888, Note_on_c, 1, 66, 80
1, 6888, Note_off_c, 2, 61, 0
1, 6888, Note_on_c, 2, 57, 80
1, 6888, Note_on_c, 3, 42, 80
1, 6888, Note_off_c, 5, 61, 0
1, 6888, Note_on_c, 5, 62, 96
1, 6888, Note_on_c, 6, 42, 96
1, 6890, Note_off_c, 0, 69, 0
1, 6892, Note_off_c, 5, 62, 0
1, 6892, Note_on_c, 5, 61, 96
1, 6894, Note_on_c, 0, 68, 80
1, 6896, Note_off_c, 5, 61, 0
1, 6896, Note_on_c, 5, 62, 96
1, 6899, Note_off_c, 0, 68, 0
1, 6900, Note_on_c, 0, 69, 80
1, 6900, Note_off_c, 5, 62, 0
1, 6900, Note_on_c, 5, 61, 96
1, 6904, Note_off_c, 5, 61, 0
1, 6904, Note_on_c, 5, 62, 96
1, 6905, Note_off_c, 0, 69, 0
1, 6906, Note_on_c, 0, 71, 80
1, 6908, Note_off_c, 5, 62, 0
1, 6908, Note_on_c, 5, 61, 96
1, 6909, Note_off_c, 3, 42, 0
1, 6909, Note_off_c, 6, 42, 0
1, 6911, Note_off_c, 0, 71, 0
1, 6912, Note_on_c, 0, 69, 80
1, 6912, Note_off_c, 1, 66, 0
1, 6912, Note_on_c, 1, 65, 80
1, 6912, Note_off_c, 2, 57, 0
1, 6912, Note_on_c, 2, 59, 80
1, 6912, Note_on_c, 3, 44, 80
1, 6912, Note_off_c, 5, 61, 0
1, 6912, Note_on_c, 5, 62, 96
1, 6912, Note_on_c, 6, 44, 96
1, 6916, Note_off_c, 5, 62, 0
1, 6916, Note_on_c, 5, 61, 96
1, 6917, Note_off_c, 0, 69, 0
1, 6918, Note_on_c, 0, 68, 80
1, 6920, Note_off_c, 5, 61, 0
1, 6920, Note_on_c, 5, 62, 96
1, 6923, Note_off_c, 0, 68, 0
1, 6924, Note_on_c, 0, 66, 80
1, 6924, Note_off_c, 5, 62, 0
1, 6924, Note_on_c, 5, 61, 96
1, 6928, Note_off_c, 5, 61, 0
1, 6928, Note_on_c, 5, 62, 96
1, 6929, Note_off_c, 0, 66, 0
1, 6930, Note_on_c, 0, 65, 80
1, 6932, Note_off_c, 5, 62, 0
1, 6932, Note_on_c, 5, 61, 96
1, 6933, Note_off_c, 1, 65, 0
1, 6933, Note_off_c, 2, 59, 0
1, 6933, Note_off_c, 3, 44, 0
1, 6933, Note_off_c, 6, 44, 0
1, 6935, Note_off_c, 0, 65, 0
1, 6936, Note_on_c, 0, 66, 80
1, 6936, Note_on_c, 1, 73, 80
1, 6936, Note_on_c, 2, 57, 80
1, 6936, Note_on_c, 3, 45, 80
1, 6936, Note_off_c, 5, 61, 0
1, 6936, Note_on_c, 5, 62, 96
1, 6936, Note_on_c, 6, 45, 96
1, 6940, Note_off_c, 5, 62, 0
1, 6940, Note_on_c, 5, 61, 96
1, 6944, Note_off_c, 5, 61, 0
1, 6944, Note_on_c, 5, 62, 96
1, 6948, Note_off_c, 5, 62, 0
1, 6948, Note_on_c, 5, 61, 96
1, 6952, Note_off_c, 5, 61, 0
1, 6952, Note_on_c, 5, 62, 96
1, 6956, Note_off_c, 5, 62, 0
1, 6956, Note_on_c, 5, 61, 96
1, 6957, Note_off_c, 3, 45, 0
1, 6957, Note_off_c, 6, 45, 0
1, 6960, Note_off_c, 1, 73, 0
1, 6960, Note_on_c, 1, 66, 80
1, 6960, Note_off_c, 2, 57, 0
1, 6960, Note_on_c, 2, 57, 80
1, 6960, Note_on_c, 3, 47, 80
1, 6960, Note_off_c, 5, 61, 0
1, 6960, Note_on_c, 5, 62, 96
1, 6960, Note_on_c, 6, 47, 96
1, 6964, Note_off_c, 5, 62, 0
1, 6964, Note_on_c, 5, 61, 96
1, 6967, Note_off_c, 0, 66, 0
1, 6968, Note_off_c, 5, 61, 0
1, 6968, Note_on_c, 5, 62, 96
1, 6972, Note_on_c, 0, 68, 80
1, 6972, Note_off_c, 5, 62, 0
1, 6972, Note_on_c, 5, 61, 96
1, 6976, Note_off_c, 5, 61, 0
1, 6976, Note_on_c, 5, 62, 96
1, 6977, Note_off_c, 0, 68, 0
1, 6978, Note_on_c, 0, 69, 80
1, 6980, Note_off_c, 5, 62, 0
1, 6980, Note_on_c, 5, 61, 96
1, 6981, Note_off_c, 3, 47, 0
1, 6981, Note_off_c, 6, 47, 0
1, 6983, Note_off_c, 0, 69, 0
1, 6984, Note_on_c, 0, 71, 80
1, 6984, Note_off_c, 1, 66, 0
1, 6984, Note_on_c, 1, 65, 80
1, 6984, Note_off_c, 2, 57, 0
1, 6984, Note_on_c, 2, 56, 80
1, 6984, Note_on_c, 3, 49, 80
1, 6984, Note_off_c, 5, 61, 0
1, 6984, Note_on_c, 5, 62, 96
1, 6984, Note_on_c, 6, 49, 96
1, 6988, Note_off_c, 5, 62, 0
1, 6988, Note_on_c, 5, 61, 96
1, 6989, Note_off_c, 0, 71, 0
1, 6990, Note_on_c, 0, 73, 80
1, 6995, Note_off_c, 0, 73, 0
1, 6996, Note_on_c, 0, 75, 80
1, 7001, Note_off_c, 0, 75, 0
1, 7002, Note_on_c, 0, 77, 80
1, 7005, Note_off_c, 1, 65, 0
1, 7005, Note_off_c, 2, 56, 0
1, 7005, Note_off_c, 3, 49, 0
1, 7005, Note_off_c, 6, 49, 0
1, 7007, Note_off_c, 0, 77, 0
1, 7008, Note_on_c, 0, 78, 80
1, 7008, Note_on_c, 1, 69, 80
1, 7008, Note_on_c, 2, 54, 80
1, 7008, Note_on_c, 3, 42, 80
1, 7008, Note_on_c, 6, 42, 96
1, 7012, Note_off_c, 5, 61, 0
1, 7016, Note_on_c, 5, 66, 96
1, 7023, Note_off_c, 5, 66, 0
1, 7024, Note_on_c, 5, 65, 96
1, 7029, Note_off_c, 0, 78, 0
1, 7029, Note_off_c, 1, 69, 0
1, 7029, Note_off_c, 2, 54, 0
1, 7029, Note_off_c, 3, 42, 0
1, 7029, Note_off_c, 6, 42, 0
1, 7031, Note_off_c, 5, 65, 0
1, 7032, Note_on_c, 3, 45, 80
1, 7032, Note_on_c, 5, 66, 96
1, 7032, Note_on_c, 6, 45, 96
1, 7039, Note_off_c, 5, 66, 0
1, 7040, Note_on_c, 5, 68, 96
1, 7047, Note_off_c, 5, 68, 0
1, 7048, Note_on_c, 5, 69, 96
1, 7053, Note_off_c, 3, 45, 0
1, 7053, Note_off_c, 6, 45, 0
1, 7055, Note_off_c, 5, 69, 0
1, 7056, Note_on_c, 3, 42, 80
1, 7056, Note_on_c, 5, 69, 96
1, 7056, Note_on_c, 6, 42, 96
1, 7063, Note_off_c, 5, 69, 0
1, 7064, Note_on_c, 5, 68, 96
1, 7071, Note_off_c, 5, 68, 0
1, 7072, Note_on_c, 5, 66, 96
1, 7077, Note_off_c, 3, 42, 0
1, 7077, Note_off_c, 6, 42, 0
1, 7079, Note_off_c, 5, 66, 0
1, 7080, Note_on_c, 0, 74, 80
1, 7080, Note_on_c, 1, 68, 80
1, 7080, Note_on_c, 3, 47, 80
1, 7080, Note_on_c, 5, 74, 96
1, 7080, Note_on_c, 6, 47, 96
1, 7087, Note_off_c, 5, 74, 0
1, 7088, Note_on_c, 5, 66, 96
1, 7095, Note_off_c, 5, 66, 0
1, 7096, Note_on_c, 5, 65, 96
1, 7101, Note_off_c, 0, 74, 0
1, 7101, Note_off_c, 1, 68, 0
1, 7101, Note_off_c, 3, 47, 0
1, 7101, Note_off_c, 6, 47, 0
1, 7103, Note_off_c, 5, 65, 0
1, 7104, Note_on_c, 2, 59, 80
1, 7104, Note_on_c, 5, 66, 96
1, 7111, Note_off_c, 5, 66, 0
1, 7112, Note_on_c, 5, 68, 96
1, 7116, Note_off_c, 2, 59, 0
1, 7116, Note_on_c, 2, 61, 80
1, 7119, Note_off_c, 5, 68, 0
1, 7120, Note_on_c, 5, 69, 96
1, 7127, Note_off_c, 5, 69, 0
1, 7128, Note_off_c, 2, 61, 0
1, 7128, Note_on_c, 2, 59, 80
1, 7128, Note_on_c, 5, 69, 96
1, 7134, Note_off_c, 2, 59, 0
1, 7135, Note_off_c, 5, 69, 0
1, 7136, Note_on_c, 5, 68, 96
1, 7143, Note_off_c, 5, 68, 0
1, 7144, Note_on_c, 5, 66, 96
1, 7151, Note_off_c, 5, 66, 0
1, 7152, Note_on_c, 0, 73, 80
1, 7152, Note_on_c, 1, 68, 80
1, 7152, Note_on_c, 3, 49, 80
1, 7152, Note_on_c, 5, 77, 96
1, 7152, Note_on_c, 6, 49, 96
1, 7159, Note_off_c, 5, 77, 0
1, 7160, Note_on_c, 5, 66, 96
1, 7167, Note_off_c, 5, 66, 0
1, 7168, Note_on_c, 5, 65, 96
1, 7173, Note_off_c, 0, 73, 0
1, 7173, Note_off_c, 1, 68, 0
1, 7173, Note_off_c, 3, 49, 0
1, 7173, Note_off_c, 6, 49, 0
1, 7175, Note_off_c, 5, 65, 0
1, 7176, Note_on_c, 2, 61, 80
1, 7176, Note_on_c, 5, 66, 96
1, 7183, Note_off_c, 5, 66, 0
1, 7184, Note_on_c, 5, 68, 96
1, 7188, Note_off_c, 2, 61, 0
1, 7188, Note_on_c, 2, 62, 80
1, 7191, Note_off_c, 5, 68, 0
1, 7192, Note_on_c, 5, 69, 96
1, 7199, Note_off_c, 5, 69, 0
1, 7200, Note_off_c, 2, 62, 0
1, 7200, Note_on_c, 2, 61, 80
1, 7200, Note_on_c, 5, 69, 96
1, 7206, Note_off_c, 2, 61, 0
1, 7207, Note_off_c, 5, 69, 0
1, 7208, Note_on_c, 5, 68, 96
1, 7215, Note_off_c, 5, 68, 0
1, 7216, Note_on_c, 5, 66, 96
1, 7223, Note_off_c, 5, 66, 0
1, 7224, Note_on_c, 0, 71, 80
1, 7224, Note_on_c, 1, 66, 80
1, 7224, Note_on_c, 3, 50, 80
1, 7224, Note_on_c, 5, 78, 96
1, 7224, Note_on_c, 6, 50, 96
1, 7231, Note_off_c, 5, 78, 0
1, 7232, Note_on_c, 5, 77, 96
1, 7239, Note_off_c, 5, 77, 0
1, 7240, Note_on_c, 5, 78, 96
1, 7245, Note_off_c, 0, 71, 0
1, 7245, Note_off_c, 1, 66, 0
1, 7245, Note_off_c, 3, 50, 0
1, 7245, Note_off_c, 6, 50, 0
1, 7247, Note_off_c, 5, 78, 0
1, 7248, Note_on_c, 2, 62, 80
1, 7248, Note_on_c, 5, 83, 96
1, 7255, Note_off_c, 5, 83, 0
1, 7256, Note_on_c, 5, 81, 96
1, 7260, Note_off_c, 2, 62, 0
1, 7260, Note_on_c, 2, 64, 80
1, 7263, Note_off_c, 5, 81, 0
1, 7264, Note_on_c, 5, 80, 96
1, 7271, Note_off_c, 5, 80, 0
1, 7272, Note_off_c, 2, 64, 0
1, 7272, Note_on_c, 2, 62, 80
1, 7272, Note_on_c, 5, 81, 96
1, 7278, Note_off_c, 2, 62, 0
1, 7279, Note_off_c, 5, 81, 0
1, 7280, Note_on_c, 5, 80, 96
1, 7287, Note_off_c, 5, 80, 0
1, 7288, Note_on_c, 5, 78, 96
1, 7295, Note_off_c, 5, 78, 0
1, 7296, Note_on_c, 0, 71, 80
1, 7296, Note_on_c, 1, 68, 80
1, 7296, Note_on_c, 3, 49, 80
1, 7296, Note_on_c, 5, 77, 96
1, 7296, Note_on_c, 6, 49, 96
1, 7303, Note_off_c, 5, 77, 0
1, 7304, Note_on_c, 5, 75, 96
1, 7311, Note_off_c, 5, 75, 0
1, 7312, Note_on_c, 5, 73, 96
1, 7317, Note_off_c, 0, 71, 0
1, 7317, Note_off_c, 1, 68, 0
1, 7317, Note_off_c, 3, 49, 0
1, 7317, Note_off_c, 6, 49, 0
1, 7319, Note_off_c, 5, 73, 0
1, 7320, Note_on_c, 2, 65, 80
1, 7320, Note_on_c, 5, 74, 96
1, 7327, Note_off_c, 5, 74, 0
1, 7328, Note_on_c, 5, 73, 96
1, 7332, Note_off_c, 2, 65, 0
1, 7332, Note_on_c, 2, 66, 80
1, 7335, Note_off_c, 5, 73, 0
1, 7336, Note_on_c, 5, 71, 96
1, 7343, Note_off_c, 5, 71, 0
1, 7344, Note_off_c, 2, 66, 0
1, 7344, Note_on_c, 2, 65, 80
1, 7344, Note_on_c, 3, 47, 80
1, 7344, Note_on_c, 5, 73, 96
1, 7344, Note_on_c, 6, 47, 96
1, 7350, Note_off_c, 2, 65, 0
1, 7351, Note_off_c, 5, 73, 0
1, 7352, Note_on_c, 5, 71, 96
1, 7359, Note_off_c, 5, 71, 0
1, 7360, Note_on_c, 5, 69, 96
1, 7365, Note_off_c, 3, 47, 0
1, 7365, Note_off_c, 6, 47, 0
1, 7367, Note_off_c, 5, 69, 0
1, 7368, Note_on_c, 3, 46, 80
1, 7368, Note_on_c, 5, 68, 96
1, 7368, Note_on_c, 6, 46, 96
1, 7380, Note_off_c, 5, 68, 0
1, 7380, Note_on_c, 5, 66, 96
1, 7389, Note_off_c, 3, 46, 0
1, 7389, Note_off_c, 6, 46, 0
1, 7392, Note_on_c, 0, 73, 80
1, 7392, Note_on_c, 1, 66, 80
1, 7392, Note_on_c, 2, 58, 80
1, 7392, Note_on_c, 6, 58, 96
1, 7397, Note_off_c, 5, 66, 0
1, 7400, Note_on_c, 5, 65, 96
1, 7407, Note_off_c, 5, 65, 0
1, 7408, Note_on_c, 5, 66, 96
1, 7413, Note_off_c, 6, 58, 0
1, 7415, Note_off_c, 5, 66, 0
1, 7416, Note_off_c, 0, 73, 0
1, 7416, Note_on_c, 0, 73, 80
1, 7416, Note_off_c, 1, 66, 0
1, 7416, Note_on_c, 1, 61, 80
1, 7416, Note_off_c, 2, 58, 0
1, 7416, Note_on_c, 2, 58, 80
1, 7416, Note_on_c, 5, 67, 96
1, 7423, Note_off_c, 5, 67, 0
1, 7424, Note_on_c, 5, 66, 96
1, 7431, Note_off_c, 5, 66, 0
1, 7432, Note_on_c, 5, 65, 96
1, 7437, Note_off_c, 0, 73, 0
1, 7437, Note_off_c, 1, 61, 0
1, 7437, Note_off_c, 2, 58, 0
1, 7439, Note_off_c, 5, 65, 0
1, 7440, Note_on_c, 3, 42, 80
1, 7440, Note_on_c, 5, 65, 96
1, 7440, Note_on_c, 6, 42, 96
1, 7452, Note_off_c, 5, 65, 0
1, 7452, Note_on_c, 5, 66, 96
1, 7461, Note_off_c, 3, 42, 0
1, 7461, Note_off_c, 6, 42, 0
1, 7464, Note_on_c, 0, 73, 80
1, 7464, Note_on_c, 1, 70, 80
1, 7464, Note_on_c, 2, 54, 80
1, 7464, Note_on_c, 6, 54, 96
1, 7469, Note_off_c, 5, 66, 0
1, 7472, Note_on_c, 5, 73, 96
1, 7479, Note_off_c, 5, 73, 0
1, 7480, Note_on_c, 5, 74, 96
1, 7485, Note_off_c, 6, 54, 0
1, 7487, Note_off_c, 5, 74, 0
1, 7488, Note_off_c, 0, 73, 0
1, 7488, Note_on_c, 0, 73, 80
1, 7488, Note_off_c, 1, 70, 0
1, 7488, Note_on_c, 1, 70, 80
1, 7488, Note_off_c, 2, 54, 0
1, 7488, Note_on_c, 2, 54, 80
1, 7488, Note_on_c, 5, 76, 96
1, 7495, Note_off_c, 5, 76, 0
1, 7496, Note_on_c, 5, 74, 96
1, 7503, Note_off_c, 5, 74, 0
1, 7504, Note_on_c, 5, 73, 96
1, 7509, Note_off_c, 0, 73, 0
1, 7509, Note_off_c, 1, 70, 0
1, 7509, Note_off_c, 2, 54, 0
1, 7511, Note_off_c, 5, 73, 0
1, 7512, Note_on_c, 3, 47, 80
1, 7512, Note_on_c, 5, 73, 96
1, 7512, Note_on_c, 6, 47, 96
1, 7524, Note_off_c, 5, 73, 0
1, 7524, Note_on_c, 5, 74, 96
1, 7533, Note_off_c, 3, 47, 0
1, 7533, Note_off_c, 6, 47, 0
1, 7536, Note_on_c, 0, 71, 80
1, 7536, Note_on_c, 1, 66, 80
1, 7536, Note_on_c, 2, 59, 80
1, 7536, Note_on_c, 6, 59, 96
1, 7541, Note_off_c, 5, 74, 0
1, 7544, Note_on_c, 5, 66, 96
1, 7551, Note_off_c, 5, 66, 0
1, 7552, Note_on_c, 5, 68, 96
1, 7557, Note_off_c, 6, 59, 0
1, 7559, Note_off_c, 5, 68, 0
1, 7560, Note_off_c, 0, 71, 0
1, 7560, Note_on_c, 0, 71, 80
1, 7560, Note_off_c, 1, 66, 0
1, 7560, Note_on_c, 1, 66, 80
1, 7560, Note_off_c, 2, 59, 0
1, 7560, Note_on_c, 2, 59, 80
1, 7560, Note_on_c, 5, 69, 96
1, 7567, Note_off_c, 5, 69, 0
1, 7568, Note_on_c, 5, 68, 96
1, 7575, Note_off_c, 5, 68, 0
1, 7576, Note_on_c, 5, 66, 96
1, 7581, Note_off_c, 0, 71, 0
1, 7581, Note_off_c, 1, 66, 0
1, 7581, Note_off_c, 2, 59, 0
1, 7583, Note_off_c, 5, 66, 0
1, 7584, Note_on_c, 3, 44, 80
1, 7584, Note_on_c, 5, 66, 96
1, 7584, Note_on_c, 6, 44, 96
1, 7596, Note_off_c, 5, 66, 0
1, 7596, Note_on_c, 5, 65, 96
1, 7605, Note_off_c, 3, 44, 0
1, 7605, Note_off_c, 6, 44, 0
1, 7608, Note_on_c, 0, 74, 80
1, 7608, Note_on_c, 1, 71, 80
1, 7608, Note_on_c, 2, 56, 80
1, 7608, Note_on_c, 6, 56, 96
1, 7613, Note_off_c, 5, 65, 0
1, 7616, Note_on_c, 5, 71, 96
1, 7623, Note_off_c, 5, 71, 0
1, 7624, Note_on_c, 5, 73, 96
1, 7629, Note_off_c, 6, 56, 0
1, 7631, Note_off_c, 5, 73, 0
1, 7632, Note_off_c, 0, 74, 0
1, 7632, Note_on_c, 0, 74, 80
1, 7632, Note_off_c, 1, 71, 0
1, 7632, Note_on_c, 1, 71, 80
1, 7632, Note_off_c, 2, 56, 0
1, 7632, Note_on_c, 2, 56, 80
1, 7632, Note_on_c, 5, 74, 96
1, 7639, Note_off_c, 5, 74, 0
1, 7640, Note_on_c, 5, 73, 96
1, 7647, Note_off_c, 5, 73, 0
1, 7648, Note_on_c, 5, 71, 96
1, 7653, Note_off_c, 0, 74, 0
1, 7653, Note_off_c, 1, 71, 0
1, 7653, Note_off_c, 2, 56, 0
1, 7655, Note_off_c, 5, 71, 0
1, 7656, Note_on_c, 0, 65, 80
1, 7656, Note_on_c, 1, 71, 80
1, 7656, Note_on_c, 2, 61, 80
1, 7656, Note_on_c, 3, 49, 80
1, 7656, Note_on_c, 5, 71, 96
1, 7656, Note_on_c, 6, 49, 96
1, 7668, Note_off_c, 5, 71, 0
1, 7668, Note_on_c, 5, 80, 96
1, 7677, Note_off_c, 0, 65, 0
1, 7677, Note_off_c, 1, 71, 0
1, 7677, Note_off_c, 2, 61, 0
1, 7677, Note_off_c, 3, 49, 0
1, 7677, Note_off_c, 6, 49, 0
1, 7680, Note_on_c, 6, 53, 96
1, 7685, Note_off_c, 5, 80, 0
1, 7688, Note_on_c, 5, 73, 96
1, 7695, Note_off_c, 5, 73, 0
1, 7696, Note_on_c, 5, 75, 96
1, 7701, Note_off_c, 6, 53, 0
1, 7703, Note_off_c, 5, 75, 0
1, 7704, Note_on_c, 5, 77, 96
1, 7704, Note_on_c, 6, 49, 96
1, 7711, Note_off_c, 5, 77, 0
1, 7712, Note_on_c, 5, 78, 96
1, 7719, Note_off_c, 5, 78, 0
1, 7720, Note_on_c, 5, 80, 96
1, 7725, Note_off_c, 6, 49, 0
1, 7727, Note_off_c, 5, 80, 0
1, 7728, Note_on_c, 5, 81, 96
1, 7728, Note_on_c, 6, 54, 96
1, 7735, Note_off_c, 5, 81, 0
1, 7736, Note_on_c, 5, 80, 96
1, 7743, Note_off_c, 5, 80, 0
1, 7744, Note_on_c, 5, 78, 96
1, 7749, Note_off_c, 6, 54, 0
1, 7751, Note_off_c, 5, 78, 0
1, 7752, Note_on_c, 5, 78, 96
1, 7752, Note_on_c, 6, 59, 96
1, 7764, Note_off_c, 5, 78, 0
1, 7764, Note_on_c, 5, 79, 96
1, 7773, Note_off_c, 6, 59, 0
1, 7776, Note_on_c, 6, 61, 96
1, 7785, Note_off_c, 5, 79, 0
1, 7788, Note_on_c, 5, 78, 96
1, 7793, Note_off_c, 5, 78, 0
1, 7794, Note_on_c, 5, 77, 96
1, 7797, Note_off_c, 6, 61, 0
1, 7799, Note_off_c, 5, 77, 0
1, 7800, Note_on_c, 5, 78, 96
1, 7800, Note_on_c, 6, 62, 96
1, 7807, Note_off_c, 5, 78, 0
1, 7808, Note_on_c, 5, 76, 96
1, 7815, Note_off_c, 5, 76, 0
1, 7816, Note_on_c, 5, 74, 96
1, 7821, Note_off_c, 6, 62, 0
1, 7823, Note_off_c, 5, 74, 0
1, 7824, Note_on_c, 5, 74, 96
1, 7824, Note_on_c, 6, 57, 96
1, 7836, Note_off_c, 5, 74, 0
1, 7836, Note_on_c, 5, 73, 96
1, 7845, Note_off_c, 6, 57, 0
1, 7848, Note_on_c, 6, 54, 96
1, 7857, Note_off_c, 5, 73, 0
1, 7860, Note_on_c, 5, 78, 96
1, 7865, Note_off_c, 5, 78, 0
1, 7866, Note_on_c, 5, 76, 96
1, 7869, Note_off_c, 6, 54, 0
1, 7871, Note_off_c, 5, 76, 0
1, 7872, Note_on_c, 5, 74, 96
1, 7872, Note_on_c, 6, 59, 96
1, 7879, Note_off_c, 5, 74, 0
1, 7880, Note_on_c, 5, 73, 96
1, 7887, Note_off_c, 5, 73, 0
1, 7888, Note_on_c, 5, 71, 96
1, 7893, Note_off_c, 6, 59, 0
1, 7895, Note_off_c, 5, 71, 0
1, 7896, Note_on_c, 5, 69, 96
1, 7896, Note_on_c, 6, 61, 96
1, 7903, Note_off_c, 5, 69, 0
1, 7904, Note_on_c, 5, 68, 96
1, 7911, Note_off_c, 5, 68, 0
1, 7912, Note_on_c, 5, 66, 96
1, 7917, Note_off_c, 6, 61, 0
1, 7919, Note_off_c, 5, 66, 0
1, 7920, Note_on_c, 0, 68, 96
1, 7920, Note_on_c, 1, 65, 96
1, 7920, Note_on_c, 2, 61, 96
1, 7920, Note_on_c, 3, 49, 96
1, 7920, Note_on_c, 4, 37, 96
1, 7920, Note_on_c, 5, 71, 96
1, 7920, Note_on_c, 6, 49, 96
1, 7927, Note_off_c, 5, 71, 0
1, 7928, Note_on_c, 5, 69, 96
1, 7935, Note_off_c, 5, 69, 0
1, 7936, Note_on_c, 5, 68, 96
1, 7941, Note_off_c, 0, 68, 0
1, 7941, Note_off_c, 1, 65, 0
1, 7941, Note_off_c, 2, 61, 0
1, 7941, Note_off_c, 3, 49, 0
1, 7941, Note_off_c, 4, 37, 0
1, 7941, Note_off_c, 6, 49, 0
1, 7943, Note_off_c, 5, 68, 0
1, 7944, Note_on_c, 0, 69, 96
1, 7944, Note_on_c, 1, 66, 96
1, 7944, Note_on_c, 2, 61, 96
1, 7944, Note_on_c, 3, 42, 96
1, 7944, Note_on_c, 4, 30, 96
1, 7944, Note_on_c, 5, 66, 96
1, 7944, Note_on_c, 6, 42, 96
1, 7954, Note_off_c, 5, 66, 0
1, 7956, Note_off_c, 0, 69, 0
1, 7956, Note_on_c, 0, 65, 96
1, 7956, Note_on_c, 5, 65, 96
1, 7965, Note_off_c, 1, 66, 0
1, 7965, Note_off_c, 2, 61, 0
1, 7965, Note_off_c, 3, 42, 0
1, 7965, Note_off_c, 4, 30, 0
1, 7965, Note_off_c, 6, 42, 0
1, 7966, Note_off_c, 5, 65, 0
1, 7968, Note_off_c, 0, 65, 0
1, 7968, Note_on_c, 0, 66, 96
1, 7968, Note_on_c, 3, 54, 96
1, 7968, Note_on_c, 4, 42, 96
1, 7968, Note_on_c, 5, 66, 96
1, 7968, Note_on_c, 6, 54, 96
1, 7978, Note_off_c, 0, 66, 0
1, 7978, Note_off_c, 3, 54, 0
1, 7978, Note_off_c, 4, 42, 0
1, 7978, Note_off_c, 5, 66, 0
1, 7978, Note_off_c, 6, 54, 0
1, 7980, Note_on_c, 0, 69, 96
1, 7980, Note_on_c, 3, 53, 96
1, 7980, Note_on_c, 4, 41, 96
1, 7980, Note_on_c, 5, 69, 96
1, 7980, Note_on_c, 6, 53, 96
1, 7990, Note_off_c, 0, 69, 0
1, 7990, Note_off_c, 3, 53, 0
1, 7990, Note_off_c, 4, 41, 0
1, 7990, Note_off_c, 5, 69, 0
1, 7990, Note_off_c, 6, 53, 0
1, 7992, Note_on_c, 0, 62, 96
1, 7992, Note_on_c, 1, 69, 96
1, 7992, Note_on_c, 2, 66, 96
1, 7992, Note_on_c, 3, 54, 96
1, 7992, Note_on_c, 4, 42, 96
1, 7992, Note_on_c, 5, 62, 96
1, 7992, Note_on_c, 6, 54, 96
1, 8002, Note_off_c, 0, 62, 0
1, 8002, Note_off_c, 5, 62, 0
1, 8004, Note_on_c, 0, 66, 96
1, 8004, Note_on_c, 5, 66, 96
1, 8013, Note_off_c, 1, 69, 0
1, 8013, Note_off_c, 2, 66, 0
1, 8014, Note_off_c, 0, 66, 0
1, 8014, Note_off_c, 5, 66, 0
1, 8016, Note_on_c, 0, 71, 96
1, 8016, Note_on_c, 1, 68, 96
1, 8016, Note_on_c, 2, 62, 96
1, 8016, Note_on_c, 5, 71, 96
1, 8026, Note_off_c, 5, 71, 0
1, 8028, Note_off_c, 0, 71, 0
1, 8028, Note_on_c, 0, 66, 96
1, 8028, Note_on_c, 5, 66, 96
1, 8034, Note_off_c, 3, 54, 0
1, 8034, Note_off_c, 4, 42, 0
1, 8034, Note_off_c, 6, 54, 0
1, 8037, Note_off_c, 1, 68, 0
1, 8037, Note_off_c, 2, 62, 0
1, 8038, Note_off_c, 5, 66, 0
1, 8040, Note_off_c, 0, 66, 0
1, 8040, Note_on_c, 0, 68, 96
1, 8040, Note_on_c, 3, 52, 96
1, 8040, Note_on_c, 4, 40, 96
1, 8040, Note_on_c, 5, 68, 96
1, 8040, Note_on_c, 6, 52, 96
1, 8050, Note_off_c, 0, 68, 0
1, 8050, Note_off_c, 3, 52, 0
1, 8050, Note_off_c, 4, 40, 0
1, 8050, Note_off_c, 5, 68, 0
1, 8050, Note_off_c, 6, 52, 0
1, 8052, Note_on_c, 0, 71, 96
1, 8052, Note_on_c, 3, 51, 96
1, 8052, Note_on_c, 4, 39, 96
1, 8052, Note_on_c, 5, 71, 96
1, 8052, Note_on_c, 6, 51, 96
1, 8062, Note_off_c, 0, 71, 0
1, 8062, Note_off_c, 3, 51, 0
1, 8062, Note_off_c, 4, 39, 0
1, 8062, Note_off_c, 5, 71, 0
1, 8062, Note_off_c, 6, 51, 0
1, 8064, Note_on_c, 0, 64, 96
1, 8064, Note_on_c, 1, 73, 96
1, 8064, Note_on_c, 2, 68, 96
1, 8064, Note_on_c, 3, 52, 96
1, 8064, Note_on_c, 4, 40, 96
1, 8064, Note_on_c, 5, 64, 96
1, 8064, Note_on_c, 6, 52, 96
1, 8074, Note_off_c, 0, 64, 0
1, 8074, Note_off_c, 5, 64, 0
1, 8076, Note_on_c, 0, 68, 96
1, 8076, Note_on_c, 5, 68, 96
1, 8085, Note_off_c, 1, 73, 0
1, 8085, Note_off_c, 2, 68, 0
1, 8086, Note_off_c, 0, 68, 0
1, 8086, Note_off_c, 5, 68, 0
1, 8088, Note_on_c, 0, 73, 96
1, 8088, Note_on_c, 1, 70, 96
1, 8088, Note_on_c, 2, 66, 96
1, 8088, Note_on_c, 5, 73, 96
1, 8098, Note_off_c, 5, 73, 0
1, 8100, Note_off_c, 0, 73, 0
1, 8100, Note_on_c, 0, 68, 96
1, 8100, Note_on_c, 5, 68, 96
1, 8106, Note_off_c, 3, 52, 0
1, 8106, Note_off_c, 4, 40, 0
1, 8106, Note_off_c, 6, 52, 0
1, 8109, Note_off_c, 1, 70, 0
1, 8109, Note_off_c, 2, 66, 0
1, 8110, Note_off_c, 5, 68, 0
1, 8112, Note_off_c, 0, 68, 0
1, 8112, Note_on_c, 0, 70, 96
1, 8112, Note_on_c, 3, 49, 96
1, 8112, Note_on_c, 4, 37, 96
1, 8112, Note_on_c, 5, 70, 96
1, 8112, Note_on_c, 6, 49, 96
1, 8122, Note_off_c, 0, 70, 0
1, 8122, Note_off_c, 5, 70, 0
1, 8124, Note_on_c, 0, 73, 96
1, 8124, Note_on_c, 5, 73, 96
1, 8133, Note_off_c, 3, 49, 0
1, 8133, Note_off_c, 4, 37, 0
1, 8133, Note_off_c, 6, 49, 0
1, 8134, Note_off_c, 0, 73, 0
1, 8134, Note_off_c, 5, 73, 0
1, 8136, Note_on_c, 0, 66, 96
1, 8136, Note_on_c, 1, 70, 96
1, 8136, Note_on_c, 2, 66, 96
1, 8136, Note_on_c, 3, 54, 96
1, 8136, Note_on_c, 4, 42, 96
1, 8136, Note_on_c, 5, 66, 96
1, 8136, Note_on_c, 6, 54, 96
1, 8146, Note_off_c, 0, 66, 0
1, 8146, Note_off_c, 5, 66, 0
1, 8148, Note_on_c, 0, 70, 96
1, 8148, Note_on_c, 5, 70, 96
1, 8157, Note_off_c, 1, 70, 0
1, 8157, Note_off_c, 2, 66, 0
1, 8157, Note_off_c, 3, 54, 0
1, 8157, Note_off_c, 4, 42, 0
1, 8157, Note_off_c, 6, 54, 0
1, 8158, Note_off_c, 0, 70, 0
1, 8158, Note_off_c, 5, 70, 0
1, 8160, Note_on_c, 0, 73, 96
1, 8160, Note_on_c, 1, 71, 96
1, 8160, Note_on_c, 2, 66, 96
1, 8160, Note_on_c, 3, 47, 96
1, 8160, Note_on_c, 4, 35, 96
1, 8160, Note_on_c, 5, 74, 96
1, 8160, Note_on_c, 6, 47, 96
1, 8172, Note_off_c, 0, 73, 0
1, 8172, Note_on_c, 0, 74, 96
1, 8181, Note_off_c, 1, 71, 0
1, 8181, Note_off_c, 2, 66, 0
1, 8181, Note_off_c, 3, 47, 0
1, 8181, Note_off_c, 4, 35, 0
1, 8181, Note_off_c, 6, 47, 0
1, 8184, Note_on_c, 3, 49, 96
1, 8184, Note_on_c, 4, 37, 96
1, 8184, Note_on_c, 6, 49, 96
1, 8186, Note_off_c, 5, 74, 0
1, 8188, Note_off_c, 0, 74, 0
1, 8190, Note_on_c, 0, 76, 96
1, 8190, Note_on_c, 5, 76, 96
1, 8195, Note_off_c, 0, 76, 0
1, 8195, Note_off_c, 5, 76, 0
1, 8196, Note_on_c, 0, 74, 96
1, 8196, Note_on_c, 5, 74, 96
1, 8201, Note_off_c, 0, 74, 0
1, 8201, Note_off_c, 5, 74, 0
1, 8202, Note_on_c, 0, 73, 96
1, 8202, Note_on_c, 5, 73, 96
1, 8205, Note_off_c, 3, 49, 0
1, 8205, Note_off_c, 4, 37, 0
1, 8205, Note_off_c, 6, 49, 0
1, 8207, Note_off_c, 0, 73, 0
1, 8207, Note_off_c, 5, 73, 0
1, 8208, Note_on_c, 0, 71, 96
1, 8208, Note_on_c, 1, 66, 96
1, 8208, Note_on_c, 2, 59, 96
1, 8208, Note_on_c, 3, 50, 96
1, 8208, Note_on_c, 4, 38, 96
1, 8208, Note_on_c, 5, 71, 96
1, 8208, Note_on_c, 6, 50, 96
1, 8213, Note_off_c, 0, 71, 0
1, 8213, Note_off_c, 5, 71, 0
1, 8214, Note_on_c, 0, 69, 96
1, 8214, Note_on_c, 5, 69, 96
1, 8219, Note_off_c, 0, 69, 0
1, 8219, Note_off_c, 5, 69, 0
1, 8220, Note_on_c, 0, 68, 96
1, 8220, Note_on_c, 5, 68, 96
1, 8225, Note_off_c, 0, 68, 0
1, 8225, Note_off_c, 5, 68, 0
1, 8226, Note_on_c, 0, 66, 96
1, 8226, Note_on_c, 5, 66, 96
1, 8229, Note_off_c, 1, 66, 0
1, 8229, Note_off_c, 2, 59, 0
1, 8229, Note_off_c, 3, 50, 0
1, 8229, Note_off_c, 4, 38, 0
1, 8229, Note_off_c, 6, 50, 0
1, 8231, Note_off_c, 0, 66, 0
1, 8231, Note_off_c, 5, 66, 0
1, 8232, Note_on_c, 0, 68, 96
1, 8232, Note_on_c, 1, 64, 96
1, 8232, Note_on_c, 2, 59, 96
1, 8232, Note_on_c, 3, 40, 96
1, 8232, Note_on_c, 4, 28, 96
1, 8232, Note_on_c, 5, 68, 96
1, 8232, Note_on_c, 6, 40, 96
1, 8242, Note_off_c, 5, 68, 0
1, 8244, Note_off_c, 0, 68, 0
1, 8244, Note_on_c, 0, 63, 96
1, 8244, Note_on_c, 5, 63, 96
1, 8253, Note_off_c, 1, 64, 0
1, 8253, Note_off_c, 2, 59, 0
1, 8253, Note_off_c, 3, 40, 0
1, 8253, Note_off_c, 4, 28, 0
1, 8253, Note_off_c, 6, 40, 0
1, 8254, Note_off_c, 5, 63, 0
1, 8256, Note_off_c, 0, 63, 0
1, 8256, Note_on_c, 0, 64, 96
1, 8256, Note_on_c, 3, 52, 96
1, 8256, Note_on_c, 4, 40, 96
1, 8256, Note_on_c, 5, 64, 96
1, 8256, Note_on_c, 6, 52, 96
1, 8266, Note_off_c, 0, 64, 0
1, 8266, Note_off_c, 3, 52, 0
1, 8266, Note_off_c, 4, 40, 0
1, 8266, Note_off_c, 5, 64, 0
1, 8266, Note_off_c, 6, 52, 0
1, 8268, Note_on_c, 0, 68, 96
1, 8268, Note_on_c, 3, 51, 96
1, 8268, Note_on_c, 4, 39, 96
1, 8268, Note_on_c, 5, 68, 96
1, 8268, Note_on_c, 6, 51, 96
1, 8278, Note_off_c, 0, 68, 0
1, 8278, Note_off_c, 3, 51, 0
1, 8278, Note_off_c, 4, 39, 0
1, 8278, Note_off_c, 5, 68, 0
1, 8278, Note_off_c, 6, 51, 0
1, 8280, Note_on_c, 0, 61, 96
1, 8280, Note_on_c, 1, 68, 96
1, 8280, Note_on_c, 2, 64, 96
1, 8280, Note_on_c, 3, 52, 96
1, 8280, Note_on_c, 4, 40, 96
1, 8280, Note_on_c, 5, 61, 96
1, 8280, Note_on_c, 6, 52, 96
1, 8290, Note_off_c, 0, 61, 0
1, 8290, Note_off_c, 5, 61, 0
1, 8292, Note_on_c, 0, 64, 96
1, 8292, Note_on_c, 5, 64, 96
1, 8301, Note_off_c, 1, 68, 0
1, 8301, Note_off_c, 2, 64, 0
1, 8302, Note_off_c, 0, 64, 0
1, 8302, Note_off_c, 5, 64, 0
1, 8304, Note_on_c, 0, 69, 96
1, 8304, Note_on_c, 1, 66, 96
1, 8304, Note_on_c, 2, 61, 96
1, 8304, Note_on_c, 5, 69, 96
1, 8314, Note_off_c, 5, 69, 0
1, 8316, Note_off_c, 0, 69, 0
1, 8316, Note_on_c, 0, 64, 96
1, 8316, Note_on_c, 5, 64, 96
1, 8322, Note_off_c, 3, 52, 0
1, 8322, Note_off_c, 4, 40, 0
1, 8322, Note_off_c, 6, 52, 0
1, 8325, Note_off_c, 1, 66, 0
1, 8325, Note_off_c, 2, 61, 0
1, 8326, Note_off_c, 5, 64, 0
1, 8328, Note_off_c, 0, 64, 0
1, 8328, Note_on_c, 0, 66, 96
1, 8328, Note_on_c, 3, 50, 96
1, 8328, Note_on_c, 4, 38, 96
1, 8328, Note_on_c, 5, 66, 96
1, 8328, Note_on_c, 6, 50, 96
1, 8338, Note_off_c, 0, 66, 0
1, 8338, Note_off_c, 3, 50, 0
1, 8338, Note_off_c, 4, 38, 0
1, 8338, Note_off_c, 5, 66, 0
1, 8338, Note_off_c, 6, 50, 0
1, 8340, Note_on_c, 0, 69, 96
1, 8340, Note_on_c, 3, 49, 96
1, 8340, Note_on_c, 4, 37, 96
1, 8340, Note_on_c, 5, 69, 96
1, 8340, Note_on_c, 6, 49, 96
1, 8350, Note_off_c, 0, 69, 0
1, 8350, Note_off_c, 3, 49, 0
1, 8350, Note_off_c, 4, 37, 0
1, 8350, Note_off_c, 5, 69, 0
1, 8350, Note_off_c, 6, 49, 0
1, 8352, Note_on_c, 0, 62, 96
1, 8352, Note_on_c, 1, 71, 96
1, 8352, Note_on_c, 2, 66, 96
1, 8352, Note_on_c, 3, 50, 96
1, 8352, Note_on_c, 4, 38, 96
1, 8352, Note_on_c, 5, 62, 96
1, 8352, Note_on_c, 6, 50, 96
1, 8362, Note_off_c, 0, 62, 0
1, 8362, Note_off_c, 5, 62, 0
1, 8364, Note_on_c, 0, 66, 96
1, 8364, Note_on_c, 5, 66, 96
1, 8373, Note_off_c, 1, 71, 0
1, 8373, Note_off_c, 2, 66, 0
1, 8374, Note_off_c, 0, 66, 0
1, 8374, Note_off_c, 5, 66, 0
1, 8376, Note_on_c, 0, 71, 96
1, 8376, Note_on_c, 1, 68, 96
1, 8376, Note_on_c, 2, 64, 96
1, 8376, Note_on_c, 5, 71, 96
1, 8386, Note_off_c, 5, 71, 0
1, 8388, Note_off_c, 0, 71, 0
1, 8388, Note_on_c, 0, 66, 96
1, 8388, Note_on_c, 5, 66, 96
1, 8394, Note_off_c, 3, 50, 0
1, 8394, Note_off_c, 4, 38, 0
1, 8394, Note_off_c, 6, 50, 0
1, 8397, Note_off_c, 1, 68, 0
1, 8397, Note_off_c, 2, 64, 0
1, 8398, Note_off_c, 5, 66, 0
1, 8400, Note_off_c, 0, 66, 0
1, 8400, Note_on_c, 0, 68, 96
1, 8400, Note_on_c, 3, 47, 96
1, 8400, Note_on_c, 4, 35, 96
1, 8400, Note_on_c, 5, 68, 96
1, 8400, Note_on_c, 6, 47, 96
1, 8410, Note_off_c, 0, 68, 0
1, 8410, Note_off_c, 5, 68, 0
1, 8412, Note_on_c, 0, 71, 96
1, 8412, Note_on_c, 5, 71, 96
1, 8421, Note_off_c, 3, 47, 0
1, 8421, Note_off_c, 4, 35, 0
1, 8421, Note_off_c, 6, 47, 0
1, 8422, Note_off_c, 0, 71, 0
1, 8422, Note_off_c, 5, 71, 0
1, 8424, Note_on_c, 0, 64, 96
1, 8424, Note_on_c, 1, 68, 96
1, 8424, Note_on_c, 2, 64, 96
1, 8424, Note_on_c, 3, 52, 96
1, 8424, Note_on_c, 4, 40, 96
1, 8424, Note_on_c, 5, 64, 96
1, 8424, Note_on_c, 6, 52, 96
1, 8434, Note_off_c, 0, 64, 0
1, 8434, Note_off_c, 5, 64, 0
1, 8436, Note_on_c, 0, 68, 96
1, 8436, Note_on_c, 5, 68, 96
1, 8445, Note_off_c, 1, 68, 0
1, 8445, Note_off_c, 2, 64, 0
1, 8445, Note_off_c, 3, 52, 0
1, 8445, Note_off_c, 4, 40, 0
1, 8445, Note_off_c, 6, 52, 0
1, 8446, Note_off_c, 0, 68, 0
1, 8446, Note_off_c, 5, 68, 0
1, 8448, Note_on_c, 0, 73, 96
1, 8448, Note_on_c, 1, 69, 96
1, 8448, Note_on_c, 2, 64, 96
1, 8448, Note_on_c, 3, 45, 96
1, 8448, Note_on_c, 4, 33, 96
1, 8448, Note_on_c, 5, 73, 96
1, 8448, Note_on_c, 6, 45, 96
1, 8469, Note_off_c, 1, 69, 0
1, 8469, Note_off_c, 2, 64, 0
1, 8469, Note_off_c, 3, 45, 0
1, 8469, Note_off_c, 4, 33, 0
1, 8469, Note_off_c, 5, 73, 0
1, 8469, Note_off_c, 6, 45, 0
1, 8472, Note_on_c, 1, 64, 96
1, 8472, Note_on_c, 2, 61, 96
1, 8472, Note_on_c, 3, 57, 96
1, 8472, Note_on_c, 4, 45, 96
1, 8472, Note_on_c, 6, 57, 96
1, 8474, Note_off_c, 0, 73, 0
1, 8478, Note_on_c, 0, 74, 96
1, 8483, Note_off_c, 0, 74, 0
1, 8484, Note_on_c, 0, 73, 96
1, 8489, Note_off_c, 0, 73, 0
1, 8490, Note_on_c, 0, 71, 96
1, 8493, Note_off_c, 1, 64, 0
1, 8493, Note_off_c, 2, 61, 0
1, 8493, Note_off_c, 3, 57, 0
1, 8493, Note_off_c, 4, 45, 0
1, 8493, Note_off_c, 6, 57, 0
1, 8495, Note_off_c, 0, 71, 0
1, 8496, Note_on_c, 0, 69, 96
1, 8496, Note_on_c, 1, 73, 80
1, 8496, Note_on_c, 2, 64, 80
1, 8496, Note_on_c, 3, 56, 80
1, 8496, Note_on_c, 5, 73, 96
1, 8496, Note_on_c, 6, 56, 96
1, 8501, Note_off_c, 0, 69, 0
1, 8502, Note_on_c, 0, 68, 96
1, 8507, Note_off_c, 0, 68, 0
1, 8508, Note_on_c, 0, 66, 96
1, 8513, Note_off_c, 0, 66, 0
1, 8514, Note_on_c, 0, 64, 96
1, 8517, Note_off_c, 2, 64, 0
1, 8517, Note_off_c, 3, 56, 0
1, 8517, Note_off_c, 5, 73, 0
1, 8517, Note_off_c, 6, 56, 0
1, 8519, Note_off_c, 0, 64, 0
1, 8520, Note_on_c, 0, 66, 80
1, 8520, Note_on_c, 2, 69, 80
1, 8520, Note_on_c, 3, 54, 80
1, 8520, Note_on_c, 5, 75, 96
1, 8520, Note_on_c, 6, 54, 96
1, 8526, Note_off_c, 0, 66, 0
1, 8527, Note_off_c, 5, 75, 0
1, 8528, Note_on_c, 5, 76, 96
1, 8535, Note_off_c, 5, 76, 0
1, 8536, Note_on_c, 5, 78, 96
1, 8538, Note_off_c, 1, 73, 0
1, 8541, Note_off_c, 2, 69, 0
1, 8541, Note_off_c, 3, 54, 0
1, 8541, Note_off_c, 6, 54, 0
1, 8543, Note_off_c, 5, 78, 0
1, 8544, Note_on_c, 0, 75, 80
1, 8544, Note_on_c, 1, 72, 80
1, 8544, Note_on_c, 5, 69, 96
1, 8556, Note_off_c, 0, 75, 0
1, 8556, Note_on_c, 0, 76, 80
1, 8556, Note_off_c, 1, 72, 0
1, 8556, Note_on_c, 1, 73, 80
1, 8566, Note_off_c, 0, 76, 0
1, 8568, Note_on_c, 0, 78, 80
1, 8568, Note_off_c, 1, 73, 0
1, 8568, Note_on_c, 1, 75, 80
1, 8568, Note_on_c, 2, 66, 80
1, 8568, Note_on_c, 3, 51, 80
1, 8568, Note_on_c, 6, 51, 96
1, 8574, Note_off_c, 0, 78, 0
1, 8574, Note_off_c, 1, 75, 0
1, 8575, Note_off_c, 5, 69, 0
1, 8580, Note_on_c, 5, 68, 96
1, 8585, Note_off_c, 5, 68, 0
1, 8586, Note_on_c, 5, 66, 96
1, 8589, Note_off_c, 2, 66, 0
1, 8589, Note_off_c, 3, 51, 0
1, 8589, Note_off_c, 6, 51, 0
1, 8591, Note_off_c, 5, 66, 0
1, 8592, Note_on_c, 2, 63, 80
1, 8592, Note_on_c, 3, 48, 80
1, 8592, Note_on_c, 5, 68, 96
1, 8592, Note_on_c, 6, 48, 96
1, 8599, Note_off_c, 5, 68, 0
1, 8600, Note_on_c, 5, 72, 96
1, 8607, Note_off_c, 5, 72, 0
1, 8608, Note_on_c, 5, 75, 96
1, 8613, Note_off_c, 2, 63, 0
1, 8613, Note_off_c, 3, 48, 0
1, 8613, Note_off_c, 6, 48, 0
1, 8615, Note_off_c, 5, 75, 0
1, 8616, Note_on_c, 0, 75, 80
1, 8616, Note_on_c, 1, 72, 80
1, 8616, Note_on_c, 5, 78, 96
1, 8628, Note_off_c, 0, 75, 0
1, 8628, Note_on_c, 0, 76, 80
1, 8628, Note_off_c, 1, 72, 0
1, 8628, Note_on_c, 1, 73, 80
1, 8640, Note_off_c, 0, 76, 0
1, 8640, Note_on_c, 0, 78, 80
1, 8640, Note_off_c, 1, 73, 0
1, 8640, Note_on_c, 1, 75, 80
1, 8640, Note_on_c, 2, 72, 80
1, 8640, Note_on_c, 3, 44, 80
1, 8640, Note_on_c, 6, 44, 96
1, 8646, Note_off_c, 0, 78, 0
1, 8646, Note_off_c, 1, 75, 0
1, 8647, Note_off_c, 5, 78, 0
1, 8652, Note_on_c, 5, 76, 96
1, 8657, Note_off_c, 5, 76, 0
1, 8658, Note_on_c, 5, 75, 96
1, 8661, Note_off_c, 2, 72, 0
1, 8661, Note_off_c, 3, 44, 0
1, 8661, Note_off_c, 6, 44, 0
1, 8663, Note_off_c, 5, 75, 0
1, 8664, Note_on_c, 2, 68, 80
1, 8664, Note_on_c, 3, 49, 80
1, 8664, Note_on_c, 5, 76, 96
1, 8664, Note_on_c, 6, 49, 96
1, 8671, Note_off_c, 5, 76, 0
1, 8672, Note_on_c, 5, 78, 96
1, 8679, Note_off_c, 5, 78, 0
1, 8680, Note_on_c, 5, 80, 96
1, 8685, Note_off_c, 2, 68, 0
1, 8685, Note_off_c, 3, 49, 0
1, 8685, Note_off_c, 6, 49, 0
1, 8687, Note_off_c, 5, 80, 0
1, 8688, Note_on_c, 0, 76, 80
1, 8688, Note_on_c, 1, 73, 80
1, 8688, Note_on_c, 5, 71, 96
1, 8700, Note_off_c, 0, 76, 0
1, 8700, Note_on_c, 0, 78, 80
1, 8700, Note_off_c, 1, 73, 0
1, 8700, Note_on_c, 1, 75, 80
1, 8712, Note_off_c, 0, 78, 0
1, 8712, Note_on_c, 0, 80, 80
1, 8712, Note_off_c, 1, 75, 0
1, 8712, Note_on_c, 1, 76, 80
1, 8712, Note_on_c, 2, 68, 80
1, 8712, Note_on_c, 3, 49, 80
1, 8712, Note_on_c, 6, 49, 96
1, 8718, Note_off_c, 0, 80, 0
1, 8718, Note_off_c, 1, 76, 0
1, 8719, Note_off_c, 5, 71, 0
1, 8724, Note_on_c, 5, 69, 96
1, 8729, Note_off_c, 5, 69, 0
1, 8730, Note_on_c, 5, 68, 96
1, 8733, Note_off_c, 2, 68, 0
1, 8733, Note_off_c, 3, 49, 0
1, 8733, Note_off_c, 6, 49, 0
1, 8735, Note_off_c, 5, 68, 0
1, 8736, Note_on_c, 2, 64, 80
1, 8736, Note_on_c, 3, 37, 80
1, 8736, Note_on_c, 5, 69, 96
1, 8736, Note_on_c, 6, 37, 96
1, 8743, Note_off_c, 5, 69, 0
1, 8744, Note_on_c, 5, 73, 96
1, 8751, Note_off_c, 5, 73, 0
1, 8752, Note_on_c, 5, 76, 96
1, 8757, Note_off_c, 2, 64, 0
1, 8757, Note_off_c, 3, 37, 0
1, 8757, Note_off_c, 6, 37, 0
1, 8759, Note_off_c, 5, 76, 0
1, 8760, Note_on_c, 0, 76, 80
1, 8760, Note_on_c, 1, 73, 80
1, 8760, Note_on_c, 5, 80, 96
1, 8772, Note_off_c, 0, 76, 0
1, 8772, Note_on_c, 0, 78, 80
1, 8772, Note_off_c, 1, 73, 0
1, 8772, Note_on_c, 1, 75, 80
1, 8784, Note_off_c, 0, 78, 0
1, 8784, Note_on_c, 0, 80, 80
1, 8784, Note_off_c, 1, 75, 0
1, 8784, Note_on_c, 1, 76, 80
1, 8784, Note_on_c, 2, 69, 80
1, 8784, Note_on_c, 3, 49, 80
1, 8784, Note_on_c, 6, 49, 96
1, 8790, Note_off_c, 0, 80, 0
1, 8790, Note_off_c, 1, 76, 0
1, 8791, Note_off_c, 5, 80, 0
1, 8796, Note_on_c, 5, 78, 96
1, 8801, Note_off_c, 5, 78, 0
1, 8802, Note_on_c, 5, 76, 96
1, 8805, Note_off_c, 2, 69, 0
1, 8805, Note_off_c, 3, 49, 0
1, 8805, Note_off_c, 6, 49, 0
1, 8807, Note_off_c, 5, 76, 0
1, 8808, Note_on_c, 2, 69, 80
1, 8808, Note_on_c, 3, 51, 80
1, 8808, Note_on_c, 5, 78, 96
1, 8808, Note_on_c, 6, 51, 96
1, 8815, Note_off_c, 5, 78, 0
1, 8816, Note_on_c, 5, 80, 96
1, 8823, Note_off_c, 5, 80, 0
1, 8824, Note_on_c, 5, 81, 96
1, 8829, Note_off_c, 2, 69, 0
1, 8829, Note_off_c, 3, 51, 0
1, 8829, Note_off_c, 6, 51, 0
1, 8831, Note_off_c, 5, 81, 0
1, 8832, Note_on_c, 0, 78, 80
1, 8832, Note_on_c, 1, 75, 80
1, 8832, Note_on_c, 5, 73, 96
1, 8844, Note_off_c, 0, 78, 0
1, 8844, Note_on_c, 0, 80, 80
1, 8844, Note_off_c, 1, 75, 0
1, 8844, Note_on_c, 1, 76, 80
1, 8856, Note_off_c, 0, 80, 0
1, 8856, Note_on_c, 0, 81, 80
1, 8856, Note_off_c, 1, 76, 0
1, 8856, Note_on_c, 1, 78, 80
1, 8856, Note_on_c, 2, 66, 80
1, 8856, Note_on_c, 3, 51, 80
1, 8856, Note_on_c, 6, 51, 96
1, 8862, Note_off_c, 0, 81, 0
1, 8862, Note_off_c, 1, 78, 0
1, 8863, Note_off_c, 5, 73, 0
1, 8868, Note_on_c, 5, 72, 96
1, 8873, Note_off_c, 5, 72, 0
1, 8874, Note_on_c, 5, 70, 96
1, 8877, Note_off_c, 2, 66, 0
1, 8877, Note_off_c, 3, 51, 0
1, 8877, Note_off_c, 6, 51, 0
1, 8879, Note_off_c, 5, 70, 0
1, 8880, Note_on_c, 2, 66, 80
1, 8880, Note_on_c, 3, 39, 80
1, 8880, Note_on_c, 5, 72, 96
1, 8880, Note_on_c, 6, 39, 96
1, 8887, Note_off_c, 5, 72, 0
1, 8888, Note_on_c, 5, 75, 96
1, 8895, Note_off_c, 5, 75, 0
1, 8896, Note_on_c, 5, 78, 96
1, 8901, Note_off_c, 2, 66, 0
1, 8901, Note_off_c, 3, 39, 0
1, 8901, Note_off_c, 6, 39, 0
1, 8903, Note_off_c, 5, 78, 0
1, 8904, Note_on_c, 0, 78, 80
1, 8904, Note_on_c, 1, 75, 80
1, 8904, Note_on_c, 5, 81, 96
1, 8916, Note_off_c, 0, 78, 0
1, 8916, Note_on_c, 0, 80, 80
1, 8916, Note_off_c, 1, 75, 0
1, 8916, Note_on_c, 1, 76, 80
1, 8928, Note_off_c, 0, 80, 0
1, 8928, Note_on_c, 0, 81, 80
1, 8928, Note_off_c, 1, 76, 0
1, 8928, Note_on_c, 1, 78, 80
1, 8928, Note_on_c, 3, 51, 80
1, 8928, Note_on_c, 6, 51, 96
1, 8934, Note_off_c, 0, 81, 0
1, 8934, Note_off_c, 1, 78, 0
1, 8935, Note_off_c, 5, 81, 0
1, 8940, Note_on_c, 5, 80, 96
1, 8945, Note_off_c, 5, 80, 0
1, 8946, Note_on_c, 5, 78, 96
1, 8949, Note_off_c, 3, 51, 0
1, 8949, Note_off_c, 6, 51, 0
1, 8951, Note_off_c, 5, 78, 0
1, 8952, Note_on_c, 3, 52, 80
1, 8952, Note_on_c, 5, 80, 96
1, 8952, Note_on_c, 6, 52, 96
1, 8959, Note_off_c, 5, 80, 0
1, 8960, Note_on_c, 5, 78, 96
1, 8967, Note_off_c, 5, 78, 0
1, 8968, Note_on_c, 5, 76, 96
1, 8973, Note_off_c, 3, 52, 0
1, 8973, Note_off_c, 6, 52, 0
1, 8975, Note_off_c, 5, 76, 0
1, 8976, Note_on_c, 3, 57, 80
1, 8976, Note_on_c, 5, 75, 96
1, 8976, Note_on_c, 6, 57, 96
1, 8983, Note_off_c, 5, 75, 0
1, 8984, Note_on_c, 5, 76, 96
1, 8991, Note_off_c, 5, 76, 0
1, 8992, Note_on_c, 5, 78, 96
1, 8997, Note_off_c, 3, 57, 0
1, 8997, Note_off_c, 6, 57, 0
1, 8999, Note_off_c, 5, 78, 0
1, 9000, Note_on_c, 3, 54, 80
1, 9000, Note_on_c, 5, 76, 96
1, 9000, Note_on_c, 6, 54, 96
1, 9007, Note_off_c, 5, 76, 0
1, 9008, Note_on_c, 5, 75, 96
1, 9015, Note_off_c, 5, 75, 0
1, 9016, Note_on_c, 5, 73, 96
1, 9021, Note_off_c, 3, 54, 0
1, 9021, Note_off_c, 6, 54, 0
1, 9023, Note_off_c, 5, 73, 0
1, 9024, Note_on_c, 3, 56, 80
1, 9024, Note_on_c, 5, 69, 96
1, 9024, Note_on_c, 6, 56, 96
1, 9028, Note_off_c, 5, 69, 0
1, 9028, Note_on_c, 5, 68, 96
1, 9032, Note_off_c, 5, 68, 0
1, 9032, Note_on_c, 5, 69, 96
1, 9034, Note_off_c, 3, 56, 0
1, 9034, Note_off_c, 6, 56, 0
1, 9036, Note_on_c, 3, 57, 80
1, 9036, Note_off_c, 5, 69, 0
1, 9036, Note_on_c, 5, 68, 96
1, 9036, Note_on_c, 6, 57, 96
1, 9040, Note_off_c, 5, 68, 0
1, 9040, Note_on_c, 5, 69, 96
1, 9044, Note_off_c, 5, 69, 0
1, 9044, Note_on_c, 5, 68, 96
1, 9046, Note_off_c, 3, 57, 0
1, 9046, Note_off_c, 6, 57, 0
1, 9048, Note_on_c, 3, 56, 80
1, 9048, Note_off_c, 5, 68, 0
1, 9048, Note_on_c, 5, 69, 96
1, 9048, Note_on_c, 6, 56, 96
1, 9052, Note_off_c, 5, 69, 0
1, 9052, Note_on_c, 5, 68, 96
1, 9056, Note_off_c, 5, 68, 0
1, 9056, Note_on_c, 5, 69, 96
1, 9058, Note_off_c, 3, 56, 0
1, 9058, Note_off_c, 6, 56, 0
1, 9060, Note_on_c, 3, 54, 80
1, 9060, Note_off_c, 5, 69, 0
1, 9060, Note_on_c, 5, 68, 96
1, 9060, Note_on_c, 6, 54, 96
1, 9064, Note_off_c, 5, 68, 0
1, 9064, Note_on_c, 5, 69, 96
1, 9068, Note_off_c, 5, 69, 0
1, 9068, Note_on_c, 5, 68, 96
1, 9070, Note_off_c, 3, 54, 0
1, 9070, Note_off_c, 6, 54, 0
1, 9072, Note_on_c, 0, 75, 80
1, 9072, Note_on_c, 1, 72, 80
1, 9072, Note_on_c, 2, 68, 80
1, 9072, Note_on_c, 3, 52, 80
1, 9072, Note_off_c, 5, 68, 0
1, 9072, Note_on_c, 5, 69, 96
1, 9072, Note_on_c, 6, 52, 96
1, 9076, Note_off_c, 5, 69, 0
1, 9076, Note_on_c, 5, 68, 96
1, 9080, Note_off_c, 5, 68, 0
1, 9080, Note_on_c, 5, 69, 96
1, 9082, Note_off_c, 3, 52, 0
1, 9082, Note_off_c, 6, 52, 0
1, 9084, Note_on_c, 3, 51, 80
1, 9084, Note_off_c, 5, 69, 0
1, 9084, Note_on_c, 5, 68, 96
1, 9084, Note_on_c, 6, 51, 96
1, 9088, Note_off_c, 5, 68, 0
1, 9088, Note_on_c, 5, 69, 96
1, 9092, Note_off_c, 5, 69, 0
1, 9092, Note_on_c, 5, 68, 96
1, 9093, Note_off_c, 0, 75, 0
1, 9093, Note_off_c, 1, 72, 0
1, 9093, Note_off_c, 2, 68, 0
1, 9094, Note_off_c, 3, 51, 0
1, 9094, Note_off_c, 6, 51, 0
1, 9096, Note_on_c, 0, 76, 80
1, 9096, Note_on_c, 1, 73, 80
1, 9096, Note_on_c, 2, 68, 80
1, 9096, Note_on_c, 3, 49, 80
1, 9096, Note_off_c, 5, 68, 0
1, 9096, Note_on_c, 5, 69, 96
1, 9096, Note_on_c, 6, 49, 96
1, 9100, Note_off_c, 5, 69, 0
1, 9100, Note_on_c, 5, 68, 96
1, 9104, Note_off_c, 5, 68, 0
1, 9104, Note_on_c, 5, 69, 96
1, 9108, Note_off_c, 0, 76, 0
1, 9108, Note_on_c, 0, 72, 80
1, 9108, Note_off_c, 5, 69, 0
1, 9108, Note_on_c, 5, 68, 96
1, 9112, Note_off_c, 5, 68, 0
1, 9112, Note_on_c, 5, 69, 96
1, 9116, Note_off_c, 5, 69, 0
1, 9116, Note_on_c, 5, 68, 96
1, 9117, Note_off_c, 3, 49, 0
1, 9117, Note_off_c, 6, 49, 0
1, 9120, Note_off_c, 0, 72, 0
1, 9120, Note_on_c, 0, 73, 80
1, 9120, Note_off_c, 1, 73, 0
1, 9120, Note_on_c, 1, 68, 80
1, 9120, Note_off_c, 2, 68, 0
1, 9120, Note_on_c, 2, 61, 80
1, 9120, Note_off_c, 5, 68, 0
1, 9120, Note_on_c, 5, 69, 96
1, 9124, Note_off_c, 5, 69, 0
1, 9124, Note_on_c, 5, 68, 96
1, 9128, Note_off_c, 5, 68, 0
1, 9128, Note_on_c, 5, 69, 96
1, 9130, Note_off_c, 0, 73, 0
1, 9132, Note_on_c, 0, 76, 80
1, 9132, Note_off_c, 5, 69, 0
1, 9132, Note_on_c, 5, 68, 96
1, 9136, Note_off_c, 5, 68, 0
1, 9136, Note_on_c, 5, 69, 96
1, 9140, Note_off_c, 5, 69, 0
1, 9140, Note_on_c, 5, 68, 96
1, 9142, Note_off_c, 0, 76, 0
1, 9144, Note_on_c, 0, 68, 80
1, 9144, Note_off_c, 1, 68, 0
1, 9144, Note_on_c, 1, 73, 80
1, 9144, Note_off_c, 2, 61, 0
1, 9144, Note_on_c, 2, 61, 80
1, 9144, Note_off_c, 5, 68, 0
1, 9144, Note_on_c, 5, 69, 96
1, 9148, Note_off_c, 5, 69, 0
1, 9148, Note_on_c, 5, 68, 96
1, 9152, Note_off_c, 5, 68, 0
1, 9152, Note_on_c, 5, 69, 96
1, 9154, Note_off_c, 0, 68, 0
1, 9156, Note_on_c, 0, 73, 80
1, 9156, Note_off_c, 5, 69, 0
1, 9156, Note_on_c, 5, 68, 96
1, 9160, Note_off_c, 5, 68, 0
1, 9160, Note_on_c, 5, 69, 96
1, 9164, Note_off_c, 5, 69, 0
1, 9164, Note_on_c, 5, 68, 96
1, 9165, Note_off_c, 1, 73, 0
1, 9165, Note_off_c, 2, 61, 0
1, 9166, Note_off_c, 0, 73, 0
1, 9168, Note_on_c, 0, 78, 80
1, 9168, Note_on_c, 1, 72, 80
1, 9168, Note_on_c, 2, 63, 80
1, 9168, Note_off_c, 5, 68, 0
1, 9168, Note_on_c, 5, 69, 96
1, 9168, Note_on_c, 6, 51, 96
1, 9172, Note_off_c, 5, 69, 0
1, 9172, Note_on_c, 5, 68, 96
1, 9176, Note_off_c, 5, 68, 0
1, 9176, Note_on_c, 5, 69, 96
1, 9180, Note_off_c, 0, 78, 0
1, 9180, Note_on_c, 0, 72, 80
1, 9180, Note_off_c, 5, 69, 0
1, 9180, Note_on_c, 5, 68, 96
1, 9184, Note_off_c, 5, 68, 0
1, 9184, Note_on_c, 5, 69, 96
1, 9188, Note_off_c, 5, 69, 0
1, 9188, Note_on_c, 5, 68, 96
1, 9189, Note_off_c, 6, 51, 0
1, 9192, Note_off_c, 0, 72, 0
1, 9192, Note_on_c, 0, 73, 80
1, 9192, Note_off_c, 1, 72, 0
1, 9192, Note_on_c, 1, 66, 80
1, 9192, Note_off_c, 2, 63, 0
1, 9192, Note_on_c, 2, 63, 80
1, 9192, Note_off_c, 5, 68, 0
1, 9192, Note_on_c, 5, 69, 96
1, 9196, Note_off_c, 5, 69, 0
1, 9196, Note_on_c, 5, 68, 96
1, 9200, Note_off_c, 5, 68, 0
1, 9200, Note_on_c, 5, 69, 96
1, 9202, Note_off_c, 0, 73, 0
1, 9204, Note_on_c, 0, 76, 80
1, 9204, Note_off_c, 5, 69, 0
1, 9204, Note_on_c, 5, 68, 96
1, 9208, Note_off_c, 5, 68, 0
1, 9208, Note_on_c, 5, 69, 96
1, 9212, Note_off_c, 5, 69, 0
1, 9212, Note_on_c, 5, 68, 96
1, 9214, Note_off_c, 0, 76, 0
1, 9216, Note_on_c, 0, 68, 80
1, 9216, Note_off_c, 1, 66, 0
1, 9216, Note_on_c, 1, 72, 80
1, 9216, Note_off_c, 2, 63, 0
1, 9216, Note_on_c, 2, 63, 80
1, 9216, Note_off_c, 5, 68, 0
1, 9216, Note_on_c, 5, 69, 96
1, 9220, Note_off_c, 5, 69, 0
1, 9220, Note_on_c, 5, 68, 96
1, 9224, Note_off_c, 5, 68, 0
1, 9224, Note_on_c, 5, 69, 96
1, 9226, Note_off_c, 0, 68, 0
1, 9228, Note_on_c, 0, 73, 80
1, 9228, Note_off_c, 5, 69, 0
1, 9228, Note_on_c, 5, 68, 96
1, 9232, Note_off_c, 5, 68, 0
1, 9232, Note_on_c, 5, 69, 96
1, 9236, Note_off_c, 5, 69, 0
1, 9236, Note_on_c, 5, 68, 96
1, 9237, Note_off_c, 1, 72, 0
1, 9237, Note_off_c, 2, 63, 0
1, 9238, Note_off_c, 0, 73, 0
1, 9240, Note_on_c, 0, 80, 80
1, 9240, Note_on_c, 1, 73, 80
1, 9240, Note_on_c, 2, 64, 80
1, 9240, Note_off_c, 5, 68, 0
1, 9240, Note_on_c, 5, 69, 96
1, 9240, Note_on_c, 6, 52, 96
1, 9244, Note_off_c, 5, 69, 0
1, 9244, Note_on_c, 5, 68, 96
1, 9248, Note_off_c, 5, 68, 0
1, 9248, Note_on_c, 5, 69, 96
1, 9252, Note_off_c, 0, 80, 0
1, 9252, Note_on_c, 0, 72, 80
1, 9252, Note_off_c, 5, 69, 0
1, 9252, Note_on_c, 5, 68, 96
1, 9256, Note_off_c, 5, 68, 0
1, 9256, Note_on_c, 5, 69, 96
1, 9260, Note_off_c, 5, 69, 0
1, 9260, Note_on_c, 5, 68, 96
1, 9261, Note_off_c, 6, 52, 0
1, 9264, Note_off_c, 0, 72, 0
1, 9264, Note_on_c, 0, 73, 80
1, 9264, Note_off_c, 1, 73, 0
1, 9264, Note_on_c, 1, 68, 80
1, 9264, Note_off_c, 2, 64, 0
1, 9264, Note_on_c, 2, 64, 80
1, 9264, Note_off_c, 5, 68, 0
1, 9264, Note_on_c, 5, 69, 96
1, 9268, Note_off_c, 5, 69, 0
1, 9268, Note_on_c, 5, 68, 96
1, 9272, Note_off_c, 5, 68, 0
1, 9272, Note_on_c, 5, 69, 96
1, 9274, Note_off_c, 0, 73, 0
1, 9276, Note_on_c, 0, 76, 80
1, 9276, Note_off_c, 5, 69, 0
1, 9276, Note_on_c, 5, 68, 96
1, 9280, Note_off_c, 5, 68, 0
1, 9280, Note_on_c, 5, 69, 96
1, 9284, Note_off_c, 5, 69, 0
1, 9284, Note_on_c, 5, 68, 96
1, 9286, Note_off_c, 0, 76, 0
1, 9288, Note_on_c, 0, 68, 80
1, 9288, Note_off_c, 1, 68, 0
1, 9288, Note_on_c, 1, 73, 80
1, 9288, Note_off_c, 2, 64, 0
1, 9288, Note_on_c, 2, 64, 80
1, 9288, Note_off_c, 5, 68, 0
1, 9288, Note_on_c, 5, 69, 96
1, 9292, Note_off_c, 5, 69, 0
1, 9292, Note_on_c, 5, 68, 96
1, 9298, Note_off_c, 0, 68, 0
1, 9300, Note_on_c, 0, 73, 80
1, 9309, Note_off_c, 1, 73, 0
1, 9309, Note_off_c, 2, 64, 0
1, 9310, Note_off_c, 0, 73, 0
1, 9312, Note_on_c, 0, 81, 80
1, 9312, Note_on_c, 1, 73, 80
1, 9312, Note_on_c, 2, 66, 80
1, 9312, Note_on_c, 6, 54, 96
1, 9316, Note_off_c, 5, 68, 0
1, 9320, Note_on_c, 5, 66, 96
1, 9327, Note_off_c, 5, 66, 0
1, 9328, Note_on_c, 5, 65, 96
1, 9333, Note_off_c, 6, 54, 0
1, 9335, Note_off_c, 5, 65, 0
1, 9336, Note_on_c, 3, 42, 80
1, 9336, Note_on_c, 5, 66, 96
1, 9336, Note_on_c, 6, 42, 96
1, 9343, Note_off_c, 5, 66, 0
1, 9344, Note_on_c, 5, 68, 96
1, 9351, Note_off_c, 5, 68, 0
1, 9352, Note_on_c, 5, 69, 96
1, 9359, Note_off_c, 5, 69, 0
1, 9360, Note_off_c, 3, 42, 0
1, 9360, Note_on_c, 3, 42, 80
1, 9360, Note_on_c, 5, 71, 96
1, 9360, Note_off_c, 6, 42, 0
1, 9360, Note_on_c, 6, 42, 96
1, 9367, Note_off_c, 5, 71, 0
1, 9368, Note_on_c, 5, 73, 96
1, 9375, Note_off_c, 5, 73, 0
1, 9376, Note_on_c, 5, 74, 96
1, 9381, Note_off_c, 3, 42, 0
1, 9381, Note_off_c, 6, 42, 0
1, 9383, Note_off_c, 5, 74, 0
1, 9384, Note_on_c, 5, 76, 96
1, 9391, Note_off_c, 5, 76, 0
1, 9392, Note_on_c, 5, 73, 96
1, 9399, Note_off_c, 5, 73, 0
1, 9400, Note_on_c, 5, 74, 96
1, 9402, Note_off_c, 1, 73, 0
1, 9407, Note_off_c, 5, 74, 0
1, 9408, Note_on_c, 1, 74, 80
1, 9408, Note_on_c, 3, 42, 80
1, 9408, Note_on_c, 5, 69, 96
1, 9408, Note_on_c, 6, 42, 96
1, 9432, Note_off_c, 3, 42, 0
1, 9432, Note_on_c, 3, 42, 80
1, 9432, Note_off_c, 6, 42, 0
1, 9432, Note_on_c, 6, 42, 96
1, 9439, Note_off_c, 5, 69, 0
1, 9444, Note_on_c, 5, 73, 96
1, 9449, Note_off_c, 5, 73, 0
1, 9450, Note_on_c, 5, 74, 96
1, 9453, Note_off_c, 3, 42, 0
1, 9453, Note_off_c, 6, 42, 0
1, 9455, Note_off_c, 5, 74, 0
1, 9456, Note_on_c, 5, 78, 96
1, 9463, Note_off_c, 5, 78, 0
1, 9464, Note_on_c, 5, 73, 96
1, 9471, Note_off_c, 5, 73, 0
1, 9472, Note_on_c, 5, 74, 96
1, 9479, Note_off_c, 5, 74, 0
1, 9480, Note_on_c, 3, 42, 80
1, 9480, Note_on_c, 5, 69, 96
1, 9480, Note_on_c, 6, 42, 96
1, 9487, Note_off_c, 5, 69, 0
1, 9488, Note_on_c, 5, 73, 96
1, 9495, Note_off_c, 5, 73, 0
1, 9496, Note_on_c, 5, 74, 96
1, 9503, Note_off_c, 5, 74, 0
1, 9504, Note_off_c, 3, 42, 0
1, 9504, Note_on_c, 3, 42, 80
1, 9504, Note_on_c, 5, 66, 96
1, 9504, Note_off_c, 6, 42, 0
1, 9504, Note_on_c, 6, 42, 96
1, 9511, Note_off_c, 5, 66, 0
1, 9512, Note_on_c, 5, 73, 96
1, 9519, Note_off_c, 5, 73, 0
1, 9520, Note_on_c, 5, 74, 96
1, 9525, Note_off_c, 3, 42, 0
1, 9525, Note_off_c, 6, 42, 0
1, 9527, Note_off_c, 5, 74, 0
1, 9528, Note_on_c, 5, 76, 96
1, 9535, Note_off_c, 5, 76, 0
1, 9536, Note_on_c, 5, 73, 96
1, 9543, Note_off_c, 5, 73, 0
1, 9544, Note_on_c, 5, 74, 96
1, 9551, Note_off_c, 5, 74, 0
1, 9552, Note_on_c, 3, 42, 80
1, 9552, Note_on_c, 5, 69, 96
1, 9552, Note_on_c, 6, 42, 96
1, 9576, Note_off_c, 3, 42, 0
1, 9576, Note_on_c, 3, 42, 80
1, 9576, Note_off_c, 6, 42, 0
1, 9576, Note_on_c, 6, 42, 96
1, 9583, Note_off_c, 5, 69, 0
1, 9588, Note_on_c, 5, 73, 96
1, 9593, Note_off_c, 5, 73, 0
1, 9594, Note_on_c, 5, 74, 96
1, 9597, Note_off_c, 3, 42, 0
1, 9597, Note_off_c, 6, 42, 0
1, 9599, Note_off_c, 5, 74, 0
1, 9600, Note_on_c, 5, 78, 96
1, 9607, Note_off_c, 5, 78, 0
1, 9608, Note_on_c, 5, 73, 96
1, 9615, Note_off_c, 5, 73, 0
1, 9616, Note_on_c, 5, 74, 96
1, 9623, Note_off_c, 5, 74, 0
1, 9624, Note_off_c, 0, 81, 0
1, 9624, Note_off_c, 1, 74, 0
1, 9624, Note_off_c, 2, 66, 0
1, 9624, Note_on_c, 3, 54, 80
1, 9624, Note_on_c, 5, 69, 96
1, 9624, Note_on_c, 6, 54, 96
1, 9631, Note_off_c, 5, 69, 0
1, 9632, Note_on_c, 5, 73, 96
1, 9639, Note_off_c, 5, 73, 0
1, 9640, Note_on_c, 5, 74, 96
1, 9645, Note_off_c, 3, 54, 0
1, 9645, Note_off_c, 6, 54, 0
1, 9647, Note_off_c, 5, 74, 0
1, 9648, Note_on_c, 0, 68, 80
1, 9648, Note_on_c, 3, 48, 80
1, 9648, Note_on_c, 5, 66, 96
1, 9648, Note_on_c, 6, 48, 96
1, 9655, Note_off_c, 5, 66, 0
1, 9656, Note_on_c, 5, 73, 96
1, 9663, Note_off_c, 5, 73, 0
1, 9664, Note_on_c, 5, 75, 96
1, 9669, Note_off_c, 0, 68, 0
1, 9669, Note_off_c, 3, 48, 0
1, 9669, Note_off_c, 6, 48, 0
1, 9671, Note_off_c, 5, 75, 0
1, 9672, Note_on_c, 0, 61, 80
1, 9672, Note_on_c, 3, 49, 80
1, 9672, Note_on_c, 5, 76, 96
1, 9672, Note_on_c, 6, 49, 96
1, 9679, Note_off_c, 5, 76, 0
1, 9680, Note_on_c, 5, 78, 96
1, 9684, Note_off_c, 0, 61, 0
1, 9684, Note_on_c, 0, 63, 80
1, 9687, Note_off_c, 5, 78, 0
1, 9688, Note_on_c, 5, 80, 96
1, 9690, Note_off_c, 0, 63, 0
1, 9690, Note_on_c, 0, 64, 80
1, 9693, Note_off_c, 3, 49, 0
1, 9693, Note_off_c, 6, 49, 0
1, 9695, Note_off_c, 0, 64, 0
1, 9695, Note_off_c, 5, 80, 0
1, 9696, Note_on_c, 0, 66, 80
1, 9696, Note_on_c, 5, 81, 96
1, 9703, Note_off_c, 5, 81, 0
1, 9704, Note_on_c, 5, 80, 96
1, 9711, Note_off_c, 5, 80, 0
1, 9712, Note_on_c, 5, 78, 96
1, 9719, Note_off_c, 5, 78, 0
1, 9720, Note_on_c, 3, 48, 80
1, 9720, Note_on_c, 5, 78, 96
1, 9720, Note_on_c, 6, 48, 96
1, 9727, Note_off_c, 0, 66, 0
1, 9732, Note_on_c, 0, 64, 80
1, 9732, Note_off_c, 5, 78, 0
1, 9732, Note_on_c, 5, 80, 96
1, 9737, Note_off_c, 0, 64, 0
1, 9738, Note_on_c, 0, 63, 80
1, 9741, Note_off_c, 3, 48, 0
1, 9741, Note_off_c, 6, 48, 0
1, 9743, Note_off_c, 0, 63, 0
1, 9744, Note_on_c, 0, 64, 80
1, 9744, Note_on_c, 3, 49, 80
1, 9744, Note_on_c, 6, 49, 96
1, 9749, Note_off_c, 5, 80, 0
1, 9752, Note_on_c, 5, 78, 96
1, 9756, Note_off_c, 0, 64, 0
1, 9756, Note_on_c, 0, 66, 80
1, 9759, Note_off_c, 5, 78, 0
1, 9760, Note_on_c, 5, 76, 96
1, 9762, Note_off_c, 0, 66, 0
1, 9762, Note_on_c, 0, 68, 80
1, 9765, Note_off_c, 3, 49, 0
1, 9765, Note_off_c, 6, 49, 0
1, 9767, Note_off_c, 0, 68, 0
1, 9767, Note_off_c, 5, 76, 0
1, 9768, Note_on_c, 0, 69, 80
1, 9768, Note_on_c, 5, 75, 96
1, 9775, Note_off_c, 5, 75, 0
1, 9776, Note_on_c, 5, 76, 96
1, 9783, Note_off_c, 5, 76, 0
1, 9784, Note_on_c, 5, 78, 96
1, 9791, Note_off_c, 5, 78, 0
1, 9792, Note_on_c, 3, 51, 80
1, 9792, Note_on_c, 5, 72, 96
1, 9792, Note_on_c, 6, 51, 96
1, 9799, Note_off_c, 0, 69, 0
1, 9799, Note_off_c, 5, 72, 0
1, 9800, Note_on_c, 5, 73, 96
1, 9804, Note_on_c, 0, 68, 80
1, 9807, Note_off_c, 5, 73, 0
1, 9808, Note_on_c, 5, 75, 96
1, 9809, Note_off_c, 0, 68, 0
1, 9810, Note_on_c, 0, 66, 80
1, 9813, Note_off_c, 3, 51, 0
1, 9813, Note_off_c, 6, 51, 0
1, 9815, Note_off_c, 0, 66, 0
1, 9815, Note_off_c, 5, 75, 0
1, 9816, Note_on_c, 0, 68, 80
1, 9816, Note_on_c, 3, 52, 80
1, 9816, Note_on_c, 5, 68, 96
1, 9816, Note_on_c, 6, 52, 96
1, 9826, Note_off_c, 0, 68, 0
1, 9826, Note_off_c, 3, 52, 0
1, 9826, Note_off_c, 5, 68, 0
1, 9826, Note_off_c, 6, 52, 0
1, 9828, Note_on_c, 0, 73, 80
1, 9828, Note_on_c, 1, 73, 80
1, 9828, Note_on_c, 2, 69, 80
1, 9828, Note_on_c, 3, 54, 80
1, 9828, Note_on_c, 5, 73, 96
1, 9828, Note_on_c, 6, 54, 96
1, 9838, Note_off_c, 0, 73, 0
1, 9838, Note_off_c, 1, 73, 0
1, 9838, Note_off_c, 2, 69, 0
1, 9838, Note_off_c, 3, 54, 0
1, 9838, Note_off_c, 5, 73, 0
1, 9838, Note_off_c, 6, 54, 0
1, 9840, Note_on_c, 0, 76, 80
1, 9840, Note_on_c, 1, 73, 80
1, 9840, Note_on_c, 2, 68, 80
1, 9840, Note_on_c, 3, 56, 80
1, 9840, Note_on_c, 5, 76, 96
1, 9840, Note_on_c, 6, 56, 96
1, 9846, Note_off_c, 0, 76, 0
1, 9846, Note_off_c, 5, 76, 0
1, 9861, Note_off_c, 1, 73, 0
1, 9861, Note_off_c, 2, 68, 0
1, 9861, Note_off_c, 3, 56, 0
1, 9861, Note_off_c, 6, 56, 0
1, 9864, Note_on_c, 0, 75, 80
1, 9864, Note_on_c, 1, 72, 80
1, 9864, Note_on_c, 2, 66, 80
1, 9864, Note_on_c, 3, 44, 80
1, 9864, Note_on_c, 5, 76, 96
1, 9864, Note_on_c, 6, 44, 96
1, 9868, Note_off_c, 0, 75, 0
1, 9868, Note_on_c, 0, 76, 80
1, 9868, Note_off_c, 1, 72, 0
1, 9868, Note_on_c, 1, 73, 80
1, 9868, Note_off_c, 5, 76, 0
1, 9868, Note_on_c, 5, 75, 96
1, 9872, Note_off_c, 0, 76, 0
1, 9872, Note_on_c, 0, 75, 80
1, 9872, Note_off_c, 1, 73, 0
1, 9872, Note_on_c, 1, 72, 80
1, 9872, Note_off_c, 5, 75, 0
1, 9872, Note_on_c, 5, 73, 96
1, 9876, Note_off_c, 0, 75, 0
1, 9876, Note_on_c, 0, 76, 80
1, 9876, Note_off_c, 1, 72, 0
1, 9876, Note_on_c, 1, 73, 80
1, 9876, Note_off_c, 5, 73, 0
1, 9876, Note_on_c, 5, 75, 96
1, 9880, Note_off_c, 0, 76, 0
1, 9880, Note_on_c, 0, 75, 80
1, 9880, Note_off_c, 1, 73, 0
1, 9880, Note_on_c, 1, 72, 80
1, 9885, Note_off_c, 2, 66, 0
1, 9885, Note_off_c, 3, 44, 0
1, 9885, Note_off_c, 6, 44, 0
1, 9886, Note_off_c, 5, 75, 0
1, 9887, Note_off_c, 0, 75, 0
1, 9887, Note_off_c, 1, 72, 0
1, 9888, Note_on_c, 0, 73, 80
1, 9888, Note_on_c, 1, 68, 80
1, 9888, Note_on_c, 2, 64, 80
1, 9888, Note_on_c, 3, 49, 96
1, 9888, Note_on_c, 4, 37, 96
1, 9888, Note_on_c, 5, 73, 96
1, 9888, Note_on_c, 6, 49, 96
1, 9898, Note_off_c, 3, 49, 0
1, 9898, Note_off_c, 4, 37, 0
1, 9898, Note_off_c, 6, 49, 0
1, 9900, Note_on_c, 3, 56, 96
1, 9900, Note_on_c, 4, 44, 96
1, 9900, Note_on_c, 6, 56, 96
1, 9910, Note_off_c, 3, 56, 0
1, 9910, Note_off_c, 4, 44, 0
1, 9910, Note_off_c, 6, 56, 0
1, 9912, Note_on_c, 3, 61, 96
1, 9912, Note_on_c, 4, 49, 96
1, 9912, Note_on_c, 6, 61, 96
1, 9922, Note_off_c, 3, 61, 0
1, 9922, Note_off_c, 4, 49, 0
1, 9922, Note_off_c, 6, 61, 0
1, 9924, Note_on_c, 3, 62, 96
1, 9924, Note_on_c, 4, 50, 96
1, 9924, Note_on_c, 6, 62, 96
1, 9930, Note_off_c, 0, 73, 0
1, 9930, Note_off_c, 1, 68, 0
1, 9930, Note_off_c, 2, 64, 0
1, 9930, Note_off_c, 5, 73, 0
1, 9934, Note_off_c, 3, 62, 0
1, 9934, Note_off_c, 4, 50, 0
1, 9934, Note_off_c, 6, 62, 0
1, 9936, Note_on_c, 0, 76, 96
1, 9936, Note_on_c, 1, 69, 96
1, 9936, Note_on_c, 2, 64, 96
1, 9936, Note_on_c, 3, 61, 96
1, 9936, Note_on_c, 4, 49, 96
1, 9936, Note_on_c, 5, 76, 96
1, 9936, Note_on_c, 6, 61, 96
1, 9946, Note_off_c, 3, 61, 0
1, 9946, Note_off_c, 4, 49, 0
1, 9946, Note_off_c, 6, 61, 0
1, 9948, Note_on_c, 3, 59, 96
1, 9948, Note_on_c, 4, 47, 96
1, 9948, Note_on_c, 6, 59, 96
1, 9957, Note_off_c, 0, 76, 0
1, 9957, Note_off_c, 1, 69, 0
1, 9957, Note_off_c, 2, 64, 0
1, 9957, Note_off_c, 5, 76, 0
1, 9958, Note_off_c, 3, 59, 0
1, 9958, Note_off_c, 4, 47, 0
1, 9958, Note_off_c, 6, 59, 0
1, 9960, Note_on_c, 0, 81, 96
1, 9960, Note_on_c, 1, 73, 96
1, 9960, Note_on_c, 2, 64, 96
1, 9960, Note_on_c, 3, 57, 96
1, 9960, Note_on_c, 4, 45, 96
1, 9960, Note_on_c, 5, 81, 96
1, 9960, Note_on_c, 6, 57, 96
1, 9964, Note_off_c, 5, 81, 0
1, 9964, Note_on_c, 5, 80, 96
1, 9968, Note_off_c, 5, 80, 0
1, 9968, Note_on_c, 5, 81, 96
1, 9984, Note_off_c, 1, 73, 0
1, 9984, Note_on_c, 1, 73, 96
1, 9984, Note_off_c, 2, 64, 0
1, 9984, Note_on_c, 2, 64, 96
1, 9984, Note_off_c, 3, 57, 0
1, 9984, Note_on_c, 3, 57, 96
1, 9984, Note_off_c, 4, 45, 0
1, 9984, Note_on_c, 4, 45, 96
1, 9984, Note_off_c, 6, 57, 0
1, 9984, Note_on_c, 6, 57, 96
1, 9991, Note_off_c, 0, 81, 0
1, 9992, Note_off_c, 5, 81, 0
1, 9996, Note_on_c, 0, 80, 96
1, 9996, Note_on_c, 5, 80, 96
1, 10001, Note_off_c, 0, 80, 0
1, 10002, Note_on_c, 0, 78, 96
1, 10002, Note_off_c, 5, 80, 0
1, 10002, Note_on_c, 5, 78, 96
1, 10007, Note_off_c, 0, 78, 0
1, 10008, Note_on_c, 0, 76, 96
1, 10008, Note_off_c, 1, 73, 0
1, 10008, Note_on_c, 1, 71, 96
1, 10008, Note_off_c, 2, 64, 0
1, 10008, Note_on_c, 2, 64, 96
1, 10008, Note_off_c, 3, 57, 0
1, 10008, Note_on_c, 3, 56, 96
1, 10008, Note_off_c, 4, 45, 0
1, 10008, Note_on_c, 4, 44, 96
1, 10008, Note_off_c, 5, 78, 0
1, 10008, Note_on_c, 5, 76, 96
1, 10008, Note_off_c, 6, 57, 0
1, 10008, Note_on_c, 6, 56, 96
1, 10013, Note_off_c, 0, 76, 0
1, 10014, Note_on_c, 0, 74, 96
1, 10014, Note_off_c, 5, 76, 0
1, 10014, Note_on_c, 5, 74, 96
1, 10019, Note_off_c, 0, 74, 0
1, 10020, Note_on_c, 0, 73, 96
1, 10020, Note_off_c, 5, 74, 0
1, 10020, Note_on_c, 5, 73, 96
1, 10025, Note_off_c, 0, 73, 0
1, 10026, Note_on_c, 0, 71, 96
1, 10026, Note_off_c, 5, 73, 0
1, 10026, Note_on_c, 5, 71, 96
1, 10029, Note_off_c, 1, 71, 0
1, 10029, Note_off_c, 2, 64, 0
1, 10029, Note_off_c, 3, 56, 0
1, 10029, Note_off_c, 4, 44, 0
1, 10029, Note_off_c, 6, 56, 0
1, 10031, Note_off_c, 0, 71, 0
1, 10031, Note_off_c, 5, 71, 0
1, 10032, Note_on_c, 0, 73, 96
1, 10032, Note_on_c, 1, 69, 96
1, 10032, Note_on_c, 2, 64, 96
1, 10032, Note_on_c, 3, 57, 96
1, 10032, Note_on_c, 4, 45, 96
1, 10032, Note_on_c, 5, 71, 96
1, 10032, Note_on_c, 6, 57, 96
1, 10044, Note_off_c, 5, 71, 0
1, 10044, Note_on_c, 5, 73, 96
1, 10056, Note_off_c, 1, 69, 0
1, 10056, Note_on_c, 1, 69, 96
1, 10056, Note_off_c, 2, 64, 0
1, 10056, Note_on_c, 2, 64, 96
1, 10056, Note_off_c, 3, 57, 0
1, 10056, Note_on_c, 3, 57, 96
1, 10056, Note_off_c, 4, 45, 0
1, 10056, Note_on_c, 4, 45, 96
1, 10056, Note_off_c, 6, 57, 0
1, 10056, Note_on_c, 6, 57, 96
1, 10058, Note_off_c, 0, 73, 0
1, 10060, Note_off_c, 5, 73, 0
1, 10062, Note_on_c, 0, 71, 96
1, 10062, Note_on_c, 5, 71, 96
1, 10067, Note_off_c, 0, 71, 0
1, 10068, Note_on_c, 0, 73, 96
1, 10068, Note_off_c, 5, 71, 0
1, 10068, Note_on_c, 5, 73, 96
1, 10073, Note_off_c, 0, 73, 0
1, 10074, Note_on_c, 0, 74, 96
1, 10074, Note_off_c, 5, 73, 0
1, 10074, Note_on_c, 5, 74, 96
1, 10079, Note_off_c, 0, 74, 0
1, 10080, Note_on_c, 0, 73, 96
1, 10080, Note_off_c, 1, 69, 0
1, 10080, Note_on_c, 1, 68, 96
1, 10080, Note_off_c, 2, 64, 0
1, 10080, Note_on_c, 2, 64, 96
1, 10080, Note_off_c, 3, 57, 0
1, 10080, Note_on_c, 3, 52, 96
1, 10080, Note_off_c, 4, 45, 0
1, 10080, Note_on_c, 4, 40, 96
1, 10080, Note_off_c, 5, 74, 0
1, 10080, Note_on_c, 5, 73, 96
1, 10080, Note_off_c, 6, 57, 0
1, 10080, Note_on_c, 6, 52, 96
1, 10085, Note_off_c, 0, 73, 0
1, 10086, Note_on_c, 0, 71, 96
1, 10086, Note_off_c, 5, 73, 0
1, 10086, Note_on_c, 5, 71, 96
1, 10091, Note_off_c, 0, 71, 0
1, 10092, Note_on_c, 0, 69, 96
1, 10092, Note_off_c, 5, 71, 0
1, 10092, Note_on_c, 5, 69, 96
1, 10097, Note_off_c, 0, 69, 0
1, 10098, Note_on_c, 0, 68, 96
1, 10098, Note_off_c, 5, 69, 0
1, 10098, Note_on_c, 5, 68, 96
1, 10101, Note_off_c, 1, 68, 0
1, 10101, Note_off_c, 2, 64, 0
1, 10101, Note_off_c, 3, 52, 0
1, 10101, Note_off_c, 4, 40, 0
1, 10101, Note_off_c, 6, 52, 0
1, 10103, Note_off_c, 0, 68, 0
1, 10103, Note_off_c, 5, 68, 0
1, 10104, Note_on_c, 0, 69, 96
1, 10104, Note_on_c, 1, 66, 96
1, 10104, Note_on_c, 2, 61, 96
1, 10104, Note_on_c, 3, 54, 96
1, 10104, Note_on_c, 4, 42, 96
1, 10104, Note_on_c, 5, 68, 96
1, 10104, Note_on_c, 6, 54, 96
1, 10110, Note_off_c, 3, 54, 0
1, 10110, Note_off_c, 4, 42, 0
1, 10116, Note_off_c, 5, 68, 0
1, 10116, Note_on_c, 5, 69, 96
1, 10125, Note_off_c, 6, 54, 0
1, 10128, Note_off_c, 1, 66, 0
1, 10128, Note_on_c, 1, 66, 96
1, 10128, Note_off_c, 2, 61, 0
1, 10128, Note_on_c, 2, 59, 96
1, 10128, Note_on_c, 3, 50, 96
1, 10128, Note_on_c, 4, 38, 96
1, 10128, Note_on_c, 6, 50, 96
1, 10134, Note_off_c, 3, 50, 0
1, 10134, Note_off_c, 4, 38, 0
1, 10135, Note_off_c, 0, 69, 0
1, 10137, Note_off_c, 5, 69, 0
1, 10140, Note_on_c, 0, 68, 96
1, 10140, Note_on_c, 5, 68, 96
1, 10145, Note_off_c, 0, 68, 0
1, 10145, Note_off_c, 5, 68, 0
1, 10146, Note_on_c, 0, 66, 96
1, 10146, Note_on_c, 5, 66, 96
1, 10149, Note_off_c, 6, 50, 0
1, 10151, Note_off_c, 0, 66, 0
1, 10151, Note_off_c, 5, 66, 0
1, 10152, Note_on_c, 0, 64, 96
1, 10152, Note_off_c, 1, 66, 0
1, 10152, Note_on_c, 1, 68, 96
1, 10152, Note_off_c, 2, 59, 0
1, 10152, Note_on_c, 2, 59, 96
1, 10152, Note_on_c, 3, 52, 96
1, 10152, Note_on_c, 4, 40, 96
1, 10152, Note_on_c, 5, 64, 96
1, 10152, Note_on_c, 6, 52, 96
1, 10157, Note_off_c, 0, 64, 0
1, 10157, Note_off_c, 5, 64, 0
1, 10158, Note_on_c, 0, 62, 96
1, 10158, Note_off_c, 3, 52, 0
1, 10158, Note_off_c, 4, 40, 0
1, 10158, Note_on_c, 5, 62, 96
1, 10163, Note_off_c, 0, 62, 0
1, 10163, Note_off_c, 5, 62, 0
1, 10164, Note_on_c, 0, 61, 96
1, 10164, Note_on_c, 5, 61, 96
1, 10169, Note_off_c, 0, 61, 0
1, 10169, Note_off_c, 5, 61, 0
1, 10170, Note_on_c, 0, 59, 96
1, 10170, Note_on_c, 5, 59, 96
1, 10173, Note_off_c, 1, 68, 0
1, 10173, Note_off_c, 2, 59, 0
1, 10173, Note_off_c, 6, 52, 0
1, 10175, Note_off_c, 0, 59, 0
1, 10175, Note_off_c, 5, 59, 0
1, 10176, Note_on_c, 0, 57, 96
1, 10176, Note_on_c, 1, 69, 96
1, 10176, Note_on_c, 2, 61, 96
1, 10176, Note_on_c, 3, 45, 96
1, 10176, Note_on_c, 4, 33, 96
1, 10176, Note_on_c, 5, 57, 96
1, 10176, Note_on_c, 6, 45, 96
1, 10180, Note_off_c, 0, 57, 0
1, 10180, Note_on_c, 0, 59, 96
1, 10180, Note_off_c, 5, 57, 0
1, 10180, Note_on_c, 5, 59, 96
1, 10184, Note_off_c, 0, 59, 0
1, 10184, Note_on_c, 0, 57, 96
1, 10184, Note_off_c, 5, 59, 0
1, 10184, Note_on_c, 5, 57, 96
1, 10186, Note_off_c, 3, 45, 0
1, 10186, Note_off_c, 4, 33, 0
1, 10186, Note_off_c, 6, 45, 0
1, 10188, Note_off_c, 0, 57, 0
1, 10188, Note_on_c, 0, 59, 96
1, 10188, Note_on_c, 3, 47, 96
1, 10188, Note_on_c, 4, 35, 96
1, 10188, Note_off_c, 5, 57, 0
1, 10188, Note_on_c, 5, 59, 96
1, 10188, Note_on_c, 6, 47, 96
1, 10192, Note_off_c, 0, 59, 0
1, 10192, Note_on_c, 0, 57, 96
1, 10192, Note_off_c, 5, 59, 0
1, 10192, Note_on_c, 5, 57, 96
1, 10196, Note_off_c, 0, 57, 0
1, 10196, Note_on_c, 0, 59, 96
1, 10196, Note_off_c, 5, 57, 0
1, 10196, Note_on_c, 5, 59, 96
1, 10198, Note_off_c, 3, 47, 0
1, 10198, Note_off_c, 4, 35, 0
1, 10198, Note_off_c, 6, 47, 0
1, 10200, Note_off_c, 0, 59, 0
1, 10200, Note_on_c, 0, 57, 96
1, 10200, Note_on_c, 3, 49, 96
1, 10200, Note_on_c, 4, 37, 96
1, 10200, Note_off_c, 5, 59, 0
1, 10200, Note_on_c, 5, 57, 96
1, 10200, Note_on_c, 6, 49, 96
1, 10204, Note_off_c, 0, 57, 0
1, 10204, Note_on_c, 0, 59, 96
1, 10204, Note_off_c, 5, 57, 0
1, 10204, Note_on_c, 5, 59, 96
1, 10208, Note_off_c, 0, 59, 0
1, 10208, Note_on_c, 0, 57, 96
1, 10208, Note_off_c, 5, 59, 0
1, 10208, Note_on_c, 5, 57, 96
1, 10210, Note_off_c, 3, 49, 0
1, 10210, Note_off_c, 4, 37, 0
1, 10210, Note_off_c, 6, 49, 0
1, 10212, Note_off_c, 0, 57, 0
1, 10212, Note_on_c, 0, 59, 96
1, 10212, Note_on_c, 3, 50, 96
1, 10212, Note_on_c, 4, 38, 96
1, 10212, Note_off_c, 5, 57, 0
1, 10212, Note_on_c, 5, 59, 96
1, 10212, Note_on_c, 6, 50, 96
1, 10216, Note_off_c, 0, 59, 0
1, 10216, Note_on_c, 0, 57, 96
1, 10216, Note_off_c, 5, 59, 0
1, 10216, Note_on_c, 5, 57, 96
1, 10218, Note_off_c, 1, 69, 0
1, 10218, Note_off_c, 2, 61, 0
1, 10222, Note_off_c, 3, 50, 0
1, 10222, Note_off_c, 4, 38, 0
1, 10222, Note_off_c, 6, 50, 0
1, 10223, Note_off_c, 0, 57, 0
1, 10223, Note_off_c, 5, 57, 0
1, 10224, Note_on_c, 0, 69, 96
1, 10224, Note_on_c, 1, 64, 96
1, 10224, Note_on_c, 2, 61, 96
1, 10224, Note_on_c, 3, 52, 96
1, 10224, Note_on_c, 4, 40, 96
1, 10224, Note_on_c, 5, 69, 96
1, 10224, Note_on_c, 6, 52, 96
1, 10234, Note_off_c, 3, 52, 0
1, 10234, Note_off_c, 4, 40, 0
1, 10234, Note_off_c, 6, 52, 0
1, 10236, Note_on_c, 3, 54, 96
1, 10236, Note_on_c, 4, 42, 96
1, 10236, Note_on_c, 6, 54, 96
1, 10245, Note_off_c, 0, 69, 0
1, 10245, Note_off_c, 1, 64, 0
1, 10245, Note_off_c, 2, 61, 0
1, 10245, Note_off_c, 5, 69, 0
1, 10246, Note_off_c, 3, 54, 0
1, 10246, Note_off_c, 4, 42, 0
1, 10246, Note_off_c, 6, 54, 0
1, 10248, Note_on_c, 0, 64, 96
1, 10248, Note_on_c, 1, 64, 96
1, 10248, Note_on_c, 2, 59, 96
1, 10248, Note_on_c, 3, 56, 96
1, 10248, Note_on_c, 4, 44, 96
1, 10248, Note_on_c, 5, 64, 96
1, 10248, Note_on_c, 6, 56, 96
1, 10260, Note_off_c, 0, 64, 0
1, 10260, Note_on_c, 0, 71, 96
1, 10260, Note_off_c, 5, 64, 0
1, 10260, Note_on_c, 5, 71, 96
1, 10272, Note_off_c, 0, 71, 0
1, 10272, Note_on_c, 0, 73, 96
1, 10272, Note_off_c, 2, 59, 0
1, 10272, Note_on_c, 2, 57, 96
1, 10272, Note_off_c, 3, 56, 0
1, 10272, Note_on_c, 3, 54, 96
1, 10272, Note_off_c, 4, 44, 0
1, 10272, Note_on_c, 4, 42, 96
1, 10272, Note_off_c, 5, 71, 0
1, 10272, Note_on_c, 5, 73, 96
1, 10272, Note_off_c, 6, 56, 0
1, 10272, Note_on_c, 6, 54, 96
1, 10282, Note_off_c, 0, 73, 0
1, 10282, Note_off_c, 5, 73, 0
1, 10284, Note_on_c, 0, 69, 96
1, 10284, Note_on_c, 5, 69, 96
1, 10293, Note_off_c, 2, 57, 0
1, 10294, Note_off_c, 0, 69, 0
1, 10294, Note_off_c, 5, 69, 0
1, 10296, Note_on_c, 0, 71, 96
1, 10296, Note_on_c, 2, 64, 96
1, 10296, Note_off_c, 3, 54, 0
1, 10296, Note_on_c, 3, 56, 96
1, 10296, Note_off_c, 4, 42, 0
1, 10296, Note_on_c, 4, 44, 96
1, 10296, Note_on_c, 5, 71, 96
1, 10296, Note_off_c, 6, 54, 0
1, 10296, Note_on_c, 6, 56, 96
1, 10306, Note_off_c, 0, 71, 0
1, 10306, Note_off_c, 5, 71, 0
1, 10308, Note_on_c, 0, 74, 96
1, 10308, Note_on_c, 5, 74, 96
1, 10317, Note_off_c, 2, 64, 0
1, 10317, Note_off_c, 3, 56, 0
1, 10317, Note_off_c, 4, 44, 0
1, 10317, Note_off_c, 6, 56, 0
1, 10318, Note_off_c, 0, 74, 0
1, 10318, Note_off_c, 5, 74, 0
1, 10320, Note_on_c, 0, 64, 96
1, 10320, Note_on_c, 2, 61, 96
1, 10320, Note_on_c, 3, 57, 96
1, 10320, Note_on_c, 4, 45, 96
1, 10320, Note_on_c, 5, 64, 96
1, 10320, Note_on_c, 6, 57, 96
1, 10332, Note_off_c, 0, 64, 0
1, 10332, Note_on_c, 0, 73, 96
1, 10332, Note_off_c, 5, 64, 0
1, 10332, Note_on_c, 5, 73, 96
1, 10344, Note_off_c, 0, 73, 0
1, 10344, Note_on_c, 0, 74, 96
1, 10344, Note_off_c, 2, 61, 0
1, 10344, Note_on_c, 2, 59, 96
1, 10344, Note_off_c, 3, 57, 0
1, 10344, Note_on_c, 3, 56, 96
1, 10344, Note_off_c, 4, 45, 0
1, 10344, Note_on_c, 4, 44, 96
1, 10344, Note_off_c, 5, 73, 0
1, 10344, Note_on_c, 5, 74, 96
1, 10344, Note_off_c, 6, 57, 0
1, 10344, Note_on_c, 6, 56, 96
1, 10354, Note_off_c, 0, 74, 0
1, 10354, Note_off_c, 5, 74, 0
1, 10356, Note_on_c, 0, 71, 96
1, 10356, Note_on_c, 5, 71, 96
1, 10366, Note_off_c, 0, 71, 0
1, 10366, Note_off_c, 5, 71, 0
1, 10368, Note_on_c, 0, 73, 96
1, 10368, Note_off_c, 2, 59, 0
1, 10368, Note_on_c, 2, 57, 96
1, 10368, Note_off_c, 3, 56, 0
1, 10368, Note_on_c, 3, 57, 96
1, 10368, Note_off_c, 4, 44, 0
1, 10368, Note_on_c, 4, 45, 96
1, 10368, Note_on_c, 5, 73, 96
1, 10368, Note_off_c, 6, 56, 0
1, 10368, Note_on_c, 6, 57, 96
1, 10378, Note_off_c, 0, 73, 0
1, 10378, Note_off_c, 5, 73, 0
1, 10380, Note_on_c, 0, 76, 96
1, 10380, Note_on_c, 5, 76, 96
1, 10386, Note_off_c, 1, 64, 0
1, 10389, Note_off_c, 2, 57, 0
1, 10389, Note_off_c, 3, 57, 0
1, 10389, Note_off_c, 4, 45, 0
1, 10389, Note_off_c, 6, 57, 0
1, 10390, Note_off_c, 0, 76, 0
1, 10390, Note_off_c, 5, 76, 0
1, 10392, Note_on_c, 0, 69, 96
1, 10392, Note_on_c, 1, 62, 96
1, 10392, Note_on_c, 2, 69, 96
1, 10392, Note_on_c, 3, 54, 96
1, 10392, Note_on_c, 4, 42, 96
1, 10392, Note_on_c, 5, 69, 96
1, 10392, Note_on_c, 6, 54, 96
1, 10404, Note_off_c, 0, 69, 0
1, 10404, Note_on_c, 0, 74, 96
1, 10404, Note_off_c, 5, 69, 0
1, 10404, Note_on_c, 5, 74, 96
1, 10416, Note_off_c, 0, 74, 0
1, 10416, Note_on_c, 0, 76, 96
1, 10416, Note_off_c, 1, 62, 0
1, 10416, Note_on_c, 1, 61, 96
1, 10416, Note_off_c, 2, 69, 0
1, 10416, Note_on_c, 2, 69, 96
1, 10416, Note_off_c, 3, 54, 0
1, 10416, Note_on_c, 3, 57, 96
1, 10416, Note_off_c, 4, 42, 0
1, 10416, Note_on_c, 4, 45, 96
1, 10416, Note_off_c, 5, 74, 0
1, 10416, Note_on_c, 5, 76, 96
1, 10416, Note_off_c, 6, 54, 0
1, 10416, Note_on_c, 6, 57, 96
1, 10426, Note_off_c, 0, 76, 0
1, 10426, Note_off_c, 5, 76, 0
1, 10428, Note_on_c, 0, 73, 96
1, 10428, Note_on_c, 5, 73, 96
1, 10438, Note_off_c, 0, 73, 0
1, 10438, Note_off_c, 5, 73, 0
1, 10440, Note_on_c, 0, 74, 96
1, 10440, Note_off_c, 1, 61, 0
1, 10440, Note_on_c, 1, 69, 96
1, 10440, Note_off_c, 2, 69, 0
1, 10440, Note_on_c, 2, 66, 96
1, 10440, Note_off_c, 3, 57, 0
1, 10440, Note_on_c, 3, 50, 96
1, 10440, Note_off_c, 4, 45, 0
1, 10440, Note_on_c, 4, 38, 96
1, 10440, Note_on_c, 5, 74, 96
1, 10440, Note_off_c, 6, 57, 0
1, 10440, Note_on_c, 6, 50, 96
1, 10450, Note_off_c, 0, 74, 0
1, 10450, Note_off_c, 5, 74, 0
1, 10452, Note_on_c, 0, 78, 96
1, 10452, Note_on_c, 5, 78, 96
1, 10461, Note_off_c, 1, 69, 0
1, 10461, Note_off_c, 2, 66, 0
1, 10461, Note_off_c, 3, 50, 0
1, 10461, Note_off_c, 4, 38, 0
1, 10461, Note_off_c, 6, 50, 0
1, 10462, Note_off_c, 0, 78, 0
1, 10462, Note_off_c, 5, 78, 0
1, 10464, Note_on_c, 0, 73, 96
1, 10464, Note_on_c, 1, 68, 96
1, 10464, Note_on_c, 2, 64, 96
1, 10464, Note_on_c, 3, 52, 96
1, 10464, Note_on_c, 4, 40, 96
1, 10464, Note_on_c, 5, 73, 96
1, 10464, Note_on_c, 6, 52, 96
1, 10474, Note_off_c, 3, 52, 0
1, 10474, Note_off_c, 4, 40, 0
1, 10474, Note_off_c, 6, 52, 0
1, 10476, Note_on_c, 3, 54, 96
1, 10476, Note_on_c, 4, 42, 96
1, 10476, Note_on_c, 6, 54, 96
1, 10486, Note_off_c, 3, 54, 0
1, 10486, Note_off_c, 4, 42, 0
1, 10486, Note_off_c, 6, 54, 0
1, 10488, Note_off_c, 0, 73, 0
1, 10488, Note_on_c, 0, 71, 96
1, 10488, Note_on_c, 3, 52, 96
1, 10488, Note_on_c, 4, 40, 96
1, 10488, Note_off_c, 5, 73, 0
1, 10488, Note_on_c, 5, 71, 96
1, 10488, Note_on_c, 6, 52, 96
1, 10498, Note_off_c, 3, 52, 0
1, 10498, Note_off_c, 4, 40, 0
1, 10498, Note_off_c, 6, 52, 0
1, 10500, Note_on_c, 3, 50, 96
1, 10500, Note_on_c, 4, 38, 96
1, 10500, Note_on_c, 6, 50, 96
1, 10506, Note_off_c, 1, 68, 0
1, 10506, Note_off_c, 2, 64, 0
1, 10509, Note_off_c, 0, 71, 0
1, 10509, Note_off_c, 5, 71, 0
1, 10510, Note_off_c, 3, 50, 0
1, 10510, Note_off_c, 4, 38, 0
1, 10510, Note_off_c, 6, 50, 0
1, 10512, Note_on_c, 0, 71, 80
1, 10512, Note_on_c, 1, 68, 80
1, 10512, Note_on_c, 2, 64, 80
1, 10512, Note_on_c, 3, 49, 96
1, 10512, Note_on_c, 4, 37, 96
1, 10512, Note_on_c, 5, 76, 96
1, 10512, Note_on_c, 6, 49, 96
1, 10522, Note_off_c, 3, 49, 0
1, 10522, Note_off_c, 4, 37, 0
1, 10522, Note_off_c, 6, 49, 0
1, 10524, Note_on_c, 3, 47, 96
1, 10524, Note_on_c, 4, 35, 96
1, 10524, Note_on_c, 6, 47, 96
1, 10533, Note_off_c, 0, 71, 0
1, 10533, Note_off_c, 1, 68, 0
1, 10533, Note_off_c, 2, 64, 0
1, 10533, Note_off_c, 5, 76, 0
1, 10534, Note_off_c, 3, 47, 0
1, 10534, Note_off_c, 4, 35, 0
1, 10534, Note_off_c, 6, 47, 0
1, 10536, Note_on_c, 0, 73, 80
1, 10536, Note_on_c, 1, 69, 80
1, 10536, Note_on_c, 2, 64, 80
1, 10536, Note_on_c, 3, 45, 96
1, 10536, Note_on_c, 4, 33, 96
1, 10536, Note_on_c, 5, 74, 96
1, 10536, Note_on_c, 6, 45, 96
1, 10557, Note_off_c, 3, 45, 0
1, 10557, Note_off_c, 4, 33, 0
1, 10557, Note_off_c, 6, 45, 0
1, 10560, Note_off_c, 0, 73, 0
1, 10560, Note_on_c, 0, 76, 80
1, 10560, Note_off_c, 1, 69, 0
1, 10560, Note_on_c, 1, 69, 80
1, 10560, Note_off_c, 2, 64, 0
1, 10560, Note_on_c, 2, 69, 80
1, 10560, Note_off_c, 5, 74, 0
1, 10560, Note_on_c, 5, 73, 96
1, 10560, Note_on_c, 6, 57, 96
1, 10584, Note_off_c, 0, 76, 0
1, 10584, Note_on_c, 0, 76, 80
1, 10584, Note_off_c, 1, 69, 0
1, 10584, Note_on_c, 1, 69, 80
1, 10584, Note_off_c, 2, 69, 0
1, 10584, Note_on_c, 2, 69, 80
1, 10584, Note_off_c, 6, 57, 0
1, 10584, Note_on_c, 6, 57, 96
1, 10605, Note_off_c, 0, 76, 0
1, 10605, Note_off_c, 1, 69, 0
1, 10605, Note_off_c, 2, 69, 0
1, 10605, Note_off_c, 6, 57, 0
1, 10608, Note_on_c, 0, 80, 80
1, 10608, Note_on_c, 1, 68, 80
1, 10608, Note_on_c, 2, 64, 80
1, 10608, Note_on_c, 6, 52, 96
1, 10629, Note_off_c, 6, 52, 0
1, 10632, Note_off_c, 0, 80, 0
1, 10632, Note_on_c, 0, 80, 80
1, 10632, Note_off_c, 1, 68, 0
1, 10632, Note_on_c, 1, 68, 80
1, 10632, Note_off_c, 2, 64, 0
1, 10632, Note_on_c, 2, 64, 80
1, 10632, Note_on_c, 6, 64, 96
1, 10638, Note_off_c, 5, 73, 0
1, 10644, Note_on_c, 5, 74, 96
1, 10649, Note_off_c, 5, 74, 0
1, 10650, Note_on_c, 5, 76, 96
1, 10653, Note_off_c, 6, 64, 0
1, 10655, Note_off_c, 5, 76, 0
1, 10656, Note_off_c, 0, 80, 0
1, 10656, Note_on_c, 0, 80, 80
1, 10656, Note_off_c, 1, 68, 0
1, 10656, Note_on_c, 1, 68, 80
1, 10656, Note_off_c, 2, 64, 0
1, 10656, Note_on_c, 2, 64, 80
1, 10656, Note_on_c, 5, 74, 96
1, 10656, Note_on_c, 6, 64, 96
1, 10661, Note_off_c, 5, 74, 0
1, 10662, Note_on_c, 5, 73, 96
1, 10667, Note_off_c, 5, 73, 0
1, 10668, Note_on_c, 5, 71, 96
1, 10677, Note_off_c, 0, 80, 0
1, 10677, Note_off_c, 1, 68, 0
1, 10677, Note_off_c, 2, 64, 0
1, 10677, Note_off_c, 6, 64, 0
1, 10678, Note_off_c, 5, 71, 0
1, 10680, Note_on_c, 0, 81, 80
1, 10680, Note_on_c, 1, 73, 80
1, 10680, Note_on_c, 2, 66, 80
1, 10680, Note_on_c, 5, 71, 96
1, 10680, Note_on_c, 6, 54, 96
1, 10701, Note_off_c, 6, 54, 0
1, 10704, Note_off_c, 0, 81, 0
1, 10704, Note_on_c, 0, 81, 80
1, 10704, Note_off_c, 1, 73, 0
1, 10704, Note_on_c, 1, 73, 80
1, 10704, Note_off_c, 2, 66, 0
1, 10704, Note_on_c, 2, 66, 80
1, 10704, Note_off_c, 5, 71, 0
1, 10704, Note_on_c, 5, 69, 96
1, 10704, Note_on_c, 6, 66, 96
1, 10725, Note_off_c, 6, 66, 0
1, 10728, Note_off_c, 0, 81, 0
1, 10728, Note_on_c, 0, 81, 80
1, 10728, Note_off_c, 1, 73, 0
1, 10728, Note_on_c, 1, 73, 80
1, 10728, Note_off_c, 2, 66, 0
1, 10728, Note_on_c, 2, 66, 80
1, 10728, Note_on_c, 6, 66, 96
1, 10749, Note_off_c, 0, 81, 0
1, 10749, Note_off_c, 1, 73, 0
1, 10749, Note_off_c, 2, 66, 0
1, 10749, Note_off_c, 6, 66, 0
1, 10752, Note_on_c, 0, 69, 80
1, 10752, Note_on_c, 1, 76, 80
1, 10752, Note_on_c, 2, 61, 80
1, 10752, Note_on_c, 6, 49, 96
1, 10773, Note_off_c, 6, 49, 0
1, 10776, Note_off_c, 0, 69, 0
1, 10776, Note_on_c, 0, 69, 80
1, 10776, Note_off_c, 1, 76, 0
1, 10776, Note_on_c, 1, 76, 80
1, 10776, Note_off_c, 2, 61, 0
1, 10776, Note_on_c, 2, 61, 80
1, 10776, Note_on_c, 6, 61, 96
1, 10782, Note_off_c, 5, 69, 0
1, 10788, Note_on_c, 5, 69, 96
1, 10793, Note_off_c, 5, 69, 0
1, 10794, Note_on_c, 5, 71, 96
1, 10797, Note_off_c, 6, 61, 0
1, 10799, Note_off_c, 5, 71, 0
1, 10800, Note_off_c, 0, 69, 0
1, 10800, Note_on_c, 0, 69, 80
1, 10800, Note_off_c, 1, 76, 0
1, 10800, Note_on_c, 1, 76, 80
1, 10800, Note_off_c, 2, 61, 0
1, 10800, Note_on_c, 2, 61, 80
1, 10800, Note_on_c, 5, 73, 96
1, 10800, Note_on_c, 6, 61, 96
1, 10805, Note_off_c, 5, 73, 0
1, 10806, Note_on_c, 5, 74, 96
1, 10811, Note_off_c, 5, 74, 0
1, 10812, Note_on_c, 5, 76, 96
1, 10821, Note_off_c, 0, 69, 0
1, 10821, Note_off_c, 1, 76, 0
1, 10821, Note_off_c, 2, 61, 0
1, 10821, Note_off_c, 6, 61, 0
1, 10822, Note_off_c, 5, 76, 0
1, 10824, Note_on_c, 0, 69, 80
1, 10824, Note_on_c, 1, 74, 80
1, 10824, Note_on_c, 2, 62, 80
1, 10824, Note_on_c, 5, 78, 96
1, 10824, Note_on_c, 6, 50, 96
1, 10834, Note_off_c, 5, 78, 0
1, 10836, Note_on_c, 5, 80, 96
1, 10845, Note_off_c, 6, 50, 0
1, 10846, Note_off_c, 5, 80, 0
1, 10848, Note_off_c, 0, 69, 0
1, 10848, Note_on_c, 0, 71, 80
1, 10848, Note_off_c, 1, 74, 0
1, 10848, Note_on_c, 1, 76, 80
1, 10848, Note_off_c, 2, 62, 0
1, 10848, Note_on_c, 2, 62, 80
1, 10848, Note_on_c, 5, 81, 96
1, 10848, Note_on_c, 6, 62, 96
1, 10851, Note_off_c, 5, 81, 0
1, 10851, Note_on_c, 5, 80, 96
1, 10854, Note_off_c, 5, 80, 0
1, 10854, Note_on_c, 5, 81, 96
1, 10857, Note_off_c, 5, 81, 0
1, 10857, Note_on_c, 5, 80, 96
1, 10860, Note_off_c, 5, 80, 0
1, 10860, Note_on_c, 5, 78, 96
1, 10865, Note_off_c, 5, 78, 0
1, 10866, Note_on_c, 5, 80, 96
1, 10869, Note_off_c, 6, 62, 0
1, 10871, Note_off_c, 5, 80, 0
1, 10872, Note_off_c, 0, 71, 0
1, 10872, Note_on_c, 0, 73, 80
1, 10872, Note_off_c, 1, 76, 0
1, 10872, Note_on_c, 1, 64, 80
1, 10872, Note_off_c, 2, 62, 0
1, 10872, Note_on_c, 2, 61, 80
1, 10872, Note_on_c, 5, 81, 96
1, 10872, Note_on_c, 6, 61, 96
1, 10893, Note_off_c, 0, 73, 0
1, 10893, Note_off_c, 1, 64, 0
1, 10893, Note_off_c, 2, 61, 0
1, 10893, Note_off_c, 6, 61, 0
1, 10896, Note_on_c, 0, 74, 80
1, 10896, Note_on_c, 1, 66, 80
1, 10896, Note_on_c, 2, 59, 80
1, 10896, Note_on_c, 6, 59, 96
1, 10903, Note_off_c, 5, 81, 0
1, 10908, Note_on_c, 5, 80, 96
1, 10913, Note_off_c, 5, 80, 0
1, 10914, Note_on_c, 5, 81, 96
1, 10917, Note_off_c, 6, 59, 0
1, 10919, Note_off_c, 5, 81, 0
1, 10920, Note_off_c, 0, 74, 0
1, 10920, Note_on_c, 0, 68, 80
1, 10920, Note_off_c, 1, 66, 0
1, 10920, Note_on_c, 1, 64, 80
1, 10920, Note_off_c, 2, 59, 0
1, 10920, Note_on_c, 2, 64, 80
1, 10920, Note_on_c, 5, 83, 96
1, 10920, Note_on_c, 6, 52, 96
1, 10925, Note_off_c, 5, 83, 0
1, 10926, Note_on_c, 5, 81, 96
1, 10931, Note_off_c, 5, 81, 0
1, 10932, Note_on_c, 5, 80, 96
1, 10937, Note_off_c, 5, 80, 0
1, 10938, Note_on_c, 5, 78, 96
1, 10941, Note_off_c, 6, 52, 0
1, 10943, Note_off_c, 5, 78, 0
1, 10944, Note_off_c, 0, 68, 0
1, 10944, Note_on_c, 0, 68, 80
1, 10944, Note_off_c, 1, 64, 0
1, 10944, Note_on_c, 1, 64, 80
1, 10944, Note_off_c, 2, 64, 0
1, 10944, Note_on_c, 2, 59, 80
1, 10944, Note_on_c, 3, 40, 80
1, 10944, Note_on_c, 5, 76, 96
1, 10944, Note_on_c, 6, 40, 96
1, 10960, Note_off_c, 5, 76, 0
1, 10962, Note_on_c, 5, 74, 96
1, 10965, Note_off_c, 0, 68, 0
1, 10965, Note_off_c, 1, 64, 0
1, 10965, Note_off_c, 2, 59, 0
1, 10965, Note_off_c, 3, 40, 0
1, 10965, Note_off_c, 6, 40, 0
1, 10967, Note_off_c, 5, 74, 0
1, 10968, Note_on_c, 0, 69, 80
1, 10968, Note_on_c, 1, 64, 80
1, 10968, Note_on_c, 2, 57, 80
1, 10968, Note_on_c, 3, 45, 80
1, 10968, Note_on_c, 5, 74, 96
1, 10968, Note_on_c, 6, 45, 96
1, 10980, Note_off_c, 3, 45, 0
1, 10980, Note_on_c, 3, 49, 80
1, 10980, Note_off_c, 6, 45, 0
1, 10980, Note_on_c, 6, 49, 96
1, 10992, Note_off_c, 3, 49, 0
1, 10992, Note_on_c, 3, 52, 80
1, 10992, Note_off_c, 5, 74, 0
1, 10992, Note_on_c, 5, 73, 96
1, 10992, Note_off_c, 6, 49, 0
1, 10992, Note_on_c, 6, 52, 96
1, 11002, Note_off_c, 3, 52, 0
1, 11002, Note_off_c, 6, 52, 0
1, 11004, Note_on_c, 3, 47, 80
1, 11004, Note_on_c, 6, 47, 96
1, 11014, Note_off_c, 3, 47, 0
1, 11014, Note_off_c, 6, 47, 0
1, 11016, Note_on_c, 3, 49, 80
1, 11016, Note_on_c, 6, 49, 96
1, 11026, Note_off_c, 3, 49, 0
1, 11026, Note_off_c, 6, 49, 0
1, 11028, Note_on_c, 3, 52, 80
1, 11028, Note_on_c, 6, 52, 96
1, 11038, Note_off_c, 3, 52, 0
1, 11038, Note_off_c, 6, 52, 0
1, 11040, Note_on_c, 3, 57, 80
1, 11040, Note_on_c, 6, 57, 96
1, 11041, Note_off_c, 5, 73, 0
1, 11048, Note_off_c, 6, 57, 0
1, 11048, Note_on_c, 6, 57, 96
1, 11056, Note_on_c, 5, 59, 96
1, 11058, Note_off_c, 0, 69, 0
1, 11058, Note_off_c, 1, 64, 0
1, 11058, Note_off_c, 2, 57, 0
1, 11061, Note_off_c, 3, 57, 0
1, 11062, Note_off_c, 6, 57, 0
1, 11063, Note_off_c, 5, 59, 0
1, 11064, Note_on_c, 0, 64, 80
1, 11064, Note_on_c, 1, 57, 80
1, 11064, Note_on_c, 2, 61, 80
1, 11064, Note_on_c, 5, 61, 96
1, 11070, Note_off_c, 0, 64, 0
1, 11070, Note_off_c, 1, 57, 0
1, 11070, Note_off_c, 2, 61, 0
1, 11071, Note_off_c, 5, 61, 0
1, 11072, Note_on_c, 5, 62, 96
1, 11079, Note_off_c, 5, 62, 0
1, 11080, Note_on_c, 5, 64, 96
1, 11087, Note_off_c, 5, 64, 0
1, 11088, Note_on_c, 3, 49, 80
1, 11088, Note_on_c, 5, 64, 96
1, 11088, Note_on_c, 6, 49, 96
1, 11095, Note_off_c, 5, 64, 0
1, 11096, Note_on_c, 5, 66, 96
1, 11103, Note_off_c, 5, 66, 0
1, 11104, Note_on_c, 5, 67, 96
1, 11109, Note_off_c, 3, 49, 0
1, 11109, Note_off_c, 6, 49, 0
1, 11111, Note_off_c, 5, 67, 0
1, 11112, Note_on_c, 0, 66, 80
1, 11112, Note_on_c, 1, 57, 80
1, 11112, Note_on_c, 2, 50, 80
1, 11112, Note_on_c, 3, 50, 80
1, 11112, Note_on_c, 5, 66, 96
1, 11112, Note_on_c, 6, 50, 96
1, 11118, Note_off_c, 0, 66, 0
1, 11118, Note_off_c, 1, 57, 0
1, 11118, Note_off_c, 2, 50, 0
1, 11119, Note_off_c, 5, 66, 0
1, 11120, Note_on_c, 5, 59, 96
1, 11127, Note_off_c, 5, 59, 0
1, 11128, Note_on_c, 5, 61, 96
1, 11133, Note_off_c, 3, 50, 0
1, 11133, Note_off_c, 6, 50, 0
1, 11135, Note_off_c, 5, 61, 0
1, 11136, Note_on_c, 0, 71, 80
1, 11136, Note_on_c, 1, 62, 80
1, 11136, Note_on_c, 2, 54, 80
1, 11136, Note_on_c, 5, 62, 96
1, 11142, Note_off_c, 0, 71, 0
1, 11142, Note_off_c, 1, 62, 0
1, 11142, Note_off_c, 2, 54, 0
1, 11143, Note_off_c, 5, 62, 0
1, 11144, Note_on_c, 5, 64, 96
1, 11151, Note_off_c, 5, 64, 0
1, 11152, Note_on_c, 5, 66, 96
1, 11159, Note_off_c, 5, 66, 0
1, 11160, Note_on_c, 3, 47, 80
1, 11160, Note_on_c, 5, 66, 96
1, 11160, Note_on_c, 6, 47, 96
1, 11167, Note_off_c, 5, 66, 0
1, 11168, Note_on_c, 5, 68, 96
1, 11175, Note_off_c, 5, 68, 0
1, 11176, Note_on_c, 5, 69, 96
1, 11181, Note_off_c, 3, 47, 0
1, 11181, Note_off_c, 6, 47, 0
1, 11183, Note_off_c, 5, 69, 0
1, 11184, Note_on_c, 0, 68, 80
1, 11184, Note_on_c, 1, 59, 80
1, 11184, Note_on_c, 2, 52, 80
1, 11184, Note_on_c, 3, 52, 80
1, 11184, Note_on_c, 5, 68, 96
1, 11184, Note_on_c, 6, 52, 96
1, 11190, Note_off_c, 0, 68, 0
1, 11190, Note_off_c, 1, 59, 0
1, 11190, Note_off_c, 2, 52, 0
1, 11191, Note_off_c, 5, 68, 0
1, 11192, Note_on_c, 5, 61, 96
1, 11199, Note_off_c, 5, 61, 0
1, 11200, Note_on_c, 5, 62, 96
1, 11205, Note_off_c, 3, 52, 0
1, 11205, Note_off_c, 6, 52, 0
1, 11207, Note_off_c, 5, 62, 0
1, 11208, Note_on_c, 0, 73, 80
1, 11208, Note_on_c, 1, 64, 80
1, 11208, Note_on_c, 2, 56, 80
1, 11208, Note_on_c, 5, 64, 96
1, 11214, Note_off_c, 0, 73, 0
1, 11214, Note_off_c, 1, 64, 0
1, 11214, Note_off_c, 2, 56, 0
1, 11215, Note_off_c, 5, 64, 0
1, 11216, Note_on_c, 5, 66, 96
1, 11223, Note_off_c, 5, 66, 0
1, 11224, Note_on_c, 5, 68, 96
1, 11231, Note_off_c, 5, 68, 0
1, 11232, Note_on_c, 3, 49, 80
1, 11232, Note_on_c, 5, 68, 96
1, 11232, Note_on_c, 6, 49, 96
1, 11239, Note_off_c, 5, 68, 0
1, 11240, Note_on_c, 5, 69, 96
1, 11247, Note_off_c, 5, 69, 0
1, 11248, Note_on_c, 5, 71, 96
1, 11253, Note_off_c, 3, 49, 0
1, 11253, Note_off_c, 6, 49, 0
1, 11255, Note_off_c, 5, 71, 0
1, 11256, Note_on_c, 0, 69, 80
1, 11256, Note_on_c, 1, 61, 80
1, 11256, Note_on_c, 2, 54, 80
1, 11256, Note_on_c, 3, 42, 80
1, 11256, Note_on_c, 5, 71, 96
1, 11256, Note_on_c, 6, 42, 96
1, 11262, Note_off_c, 0, 69, 0
1, 11262, Note_off_c, 1, 61, 0
1, 11262, Note_off_c, 2, 54, 0
1, 11268, Note_off_c, 5, 71, 0
1, 11268, Note_on_c, 5, 69, 96
1, 11277, Note_off_c, 3, 42, 0
1, 11277, Note_off_c, 6, 42, 0
1, 11280, Note_on_c, 0, 73, 80
1, 11280, Note_on_c, 1, 69, 80
1, 11280, Note_on_c, 2, 49, 80
1, 11280, Note_on_c, 6, 54, 96
1, 11286, Note_off_c, 0, 73, 0
1, 11286, Note_off_c, 1, 69, 0
1, 11286, Note_off_c, 2, 49, 0
1, 11289, Note_off_c, 5, 69, 0
1, 11292, Note_on_c, 5, 68, 96
1, 11297, Note_off_c, 5, 68, 0
1, 11298, Note_on_c, 5, 69, 96
1, 11301, Note_off_c, 6, 54, 0
1, 11303, Note_off_c, 5, 69, 0
1, 11304, Note_on_c, 3, 53, 80
1, 11304, Note_on_c, 5, 71, 96
1, 11304, Note_on_c, 6, 53, 96
1, 11309, Note_off_c, 5, 71, 0
1, 11310, Note_on_c, 5, 69, 96
1, 11315, Note_off_c, 5, 69, 0
1, 11316, Note_on_c, 5, 68, 96
1, 11325, Note_off_c, 3, 53, 0
1, 11325, Note_off_c, 6, 53, 0
1, 11326, Note_off_c, 5, 68, 0
1, 11328, Note_on_c, 0, 69, 80
1, 11328, Note_on_c, 1, 66, 80
1, 11328, Note_on_c, 2, 61, 80
1, 11328, Note_on_c, 3, 54, 80
1, 11328, Note_on_c, 5, 68, 96
1, 11328, Note_on_c, 6, 54, 96
1, 11334, Note_off_c, 0, 69, 0
1, 11334, Note_off_c, 1, 66, 0
1, 11334, Note_off_c, 2, 61, 0
1, 11340, Note_off_c, 5, 68, 0
1, 11340, Note_on_c, 5, 69, 96
1, 11349, Note_off_c, 3, 54, 0
1, 11349, Note_off_c, 6, 54, 0
1, 11352, Note_on_c, 0, 66, 80
1, 11352, Note_on_c, 1, 59, 80
1, 11352, Note_on_c, 2, 66, 80
1, 11352, Note_on_c, 6, 51, 96
1, 11358, Note_off_c, 0, 66, 0
1, 11358, Note_off_c, 1, 59, 0
1, 11358, Note_off_c, 2, 66, 0
1, 11361, Note_off_c, 5, 69, 0
1, 11364, Note_on_c, 5, 69, 96
1, 11369, Note_off_c, 5, 69, 0
1, 11370, Note_on_c, 5, 71, 96
1, 11373, Note_off_c, 6, 51, 0
1, 11375, Note_off_c, 5, 71, 0
1, 11376, Note_on_c, 3, 47, 80
1, 11376, Note_on_c, 5, 72, 96
1, 11376, Note_on_c, 6, 47, 96
1, 11381, Note_off_c, 5, 72, 0
1, 11382, Note_on_c, 5, 71, 96
1, 11387, Note_off_c, 5, 71, 0
1, 11388, Note_on_c, 5, 69, 96
1, 11397, Note_off_c, 3, 47, 0
1, 11397, Note_off_c, 6, 47, 0
1, 11398, Note_off_c, 5, 69, 0
1, 11400, Note_on_c, 0, 67, 80
1, 11400, Note_on_c, 1, 64, 80
1, 11400, Note_on_c, 2, 59, 80
1, 11400, Note_on_c, 3, 40, 80
1, 11400, Note_on_c, 5, 69, 96
1, 11400, Note_on_c, 6, 40, 96
1, 11406, Note_off_c, 0, 67, 0
1, 11406, Note_off_c, 1, 64, 0
1, 11406, Note_off_c, 2, 59, 0
1, 11412, Note_off_c, 5, 69, 0
1, 11412, Note_on_c, 5, 67, 96
1, 11421, Note_off_c, 3, 40, 0
1, 11421, Note_off_c, 6, 40, 0
1, 11424, Note_on_c, 0, 71, 80
1, 11424, Note_on_c, 1, 67, 80
1, 11424, Note_on_c, 2, 52, 80
1, 11424, Note_on_c, 6, 52, 96
1, 11430, Note_off_c, 0, 71, 0
1, 11430, Note_off_c, 1, 67, 0
1, 11430, Note_off_c, 2, 52, 0
1, 11433, Note_off_c, 5, 67, 0
1, 11436, Note_on_c, 5, 66, 96
1, 11441, Note_off_c, 5, 66, 0
1, 11442, Note_on_c, 5, 67, 96
1, 11445, Note_off_c, 6, 52, 0
1, 11447, Note_off_c, 5, 67, 0
1, 11448, Note_on_c, 3, 51, 80
1, 11448, Note_on_c, 5, 69, 96
1, 11448, Note_on_c, 6, 51, 96
1, 11453, Note_off_c, 5, 69, 0
1, 11454, Note_on_c, 5, 67, 96
1, 11459, Note_off_c, 5, 67, 0
1, 11460, Note_on_c, 5, 66, 96
1, 11469, Note_off_c, 3, 51, 0
1, 11469, Note_off_c, 6, 51, 0
1, 11470, Note_off_c, 5, 66, 0
1, 11472, Note_on_c, 0, 67, 80
1, 11472, Note_on_c, 1, 64, 80
1, 11472, Note_on_c, 2, 59, 80
1, 11472, Note_on_c, 3, 52, 80
1, 11472, Note_on_c, 5, 66, 96
1, 11472, Note_on_c, 6, 52, 96
1, 11478, Note_off_c, 0, 67, 0
1, 11478, Note_off_c, 1, 64, 0
1, 11478, Note_off_c, 2, 59, 0
1, 11484, Note_off_c, 5, 66, 0
1, 11484, Note_on_c, 5, 67, 96
1, 11493, Note_off_c, 3, 52, 0
1, 11493, Note_off_c, 6, 52, 0
1, 11496, Note_on_c, 0, 64, 80
1, 11496, Note_on_c, 1, 57, 80
1, 11496, Note_on_c, 2, 64, 80
1, 11496, Note_on_c, 6, 49, 96
1, 11502, Note_off_c, 0, 64, 0
1, 11502, Note_off_c, 1, 57, 0
1, 11502, Note_off_c, 2, 64, 0
1, 11505, Note_off_c, 5, 67, 0
1, 11508, Note_on_c, 5, 67, 96
1, 11513, Note_off_c, 5, 67, 0
1, 11514, Note_on_c, 5, 69, 96
1, 11517, Note_off_c, 6, 49, 0
1, 11519, Note_off_c, 5, 69, 0
1, 11520, Note_on_c, 3, 45, 80
1, 11520, Note_on_c, 5, 71, 96
1, 11520, Note_on_c, 6, 45, 96
1, 11525, Note_off_c, 5, 71, 0
1, 11526, Note_on_c, 5, 69, 96
1, 11531, Note_off_c, 5, 69, 0
1, 11532, Note_on_c, 5, 67, 96
1, 11541, Note_off_c, 3, 45, 0
1, 11541, Note_off_c, 6, 45, 0
1, 11542, Note_off_c, 5, 67, 0
1, 11544, Note_on_c, 0, 66, 80
1, 11544, Note_on_c, 1, 62, 80
1, 11544, Note_on_c, 2, 57, 80
1, 11544, Note_on_c, 3, 50, 80
1, 11544, Note_on_c, 5, 66, 96
1, 11544, Note_on_c, 6, 50, 96
1, 11550, Note_off_c, 0, 66, 0
1, 11550, Note_off_c, 1, 62, 0
1, 11550, Note_off_c, 2, 57, 0
1, 11551, Note_off_c, 5, 66, 0
1, 11552, Note_on_c, 5, 74, 96
1, 11559, Note_off_c, 5, 74, 0
1, 11560, Note_on_c, 5, 73, 96
1, 11565, Note_off_c, 3, 50, 0
1, 11565, Note_off_c, 6, 50, 0
1, 11567, Note_off_c, 5, 73, 0
1, 11568, Note_on_c, 0, 74, 80
1, 11568, Note_on_c, 1, 66, 80
1, 11568, Note_on_c, 2, 62, 80
1, 11568, Note_on_c, 5, 71, 96
1, 11574, Note_off_c, 0, 74, 0
1, 11574, Note_off_c, 1, 66, 0
1, 11574, Note_off_c, 2, 62, 0
1, 11575, Note_off_c, 5, 71, 0
1, 11576, Note_on_c, 5, 69, 96
1, 11583, Note_off_c, 5, 69, 0
1, 11584, Note_on_c, 5, 68, 96
1, 11591, Note_off_c, 5, 68, 0
1, 11592, Note_on_c, 3, 47, 80
1, 11592, Note_on_c, 5, 68, 96
1, 11592, Note_on_c, 6, 47, 96
1, 11599, Note_off_c, 5, 68, 0
1, 11600, Note_on_c, 5, 66, 96
1, 11607, Note_off_c, 5, 66, 0
1, 11608, Note_on_c, 5, 64, 96
1, 11613, Note_off_c, 3, 47, 0
1, 11613, Note_off_c, 6, 47, 0
1, 11615, Note_off_c, 5, 64, 0
1, 11616, Note_on_c, 0, 64, 80
1, 11616, Note_on_c, 1, 61, 80
1, 11616, Note_on_c, 2, 56, 80
1, 11616, Note_on_c, 3, 49, 80
1, 11616, Note_on_c, 5, 64, 96
1, 11616, Note_on_c, 6, 49, 96
1, 11622, Note_off_c, 0, 64, 0
1, 11622, Note_off_c, 1, 61, 0
1, 11622, Note_off_c, 2, 56, 0
1, 11623, Note_off_c, 5, 64, 0
1, 11624, Note_on_c, 5, 73, 96
1, 11631, Note_off_c, 5, 73, 0
1, 11632, Note_on_c, 5, 71, 96
1, 11637, Note_off_c, 3, 49, 0
1, 11637, Note_off_c, 6, 49, 0
1, 11639, Note_off_c, 5, 71, 0
1, 11640, Note_on_c, 0, 73, 80
1, 11640, Note_on_c, 1, 64, 80
1, 11640, Note_on_c, 2, 61, 80
1, 11640, Note_on_c, 5, 69, 96
1, 11646, Note_off_c, 0, 73, 0
1, 11646, Note_off_c, 1, 64, 0
1, 11646, Note_off_c, 2, 61, 0
1, 11647, Note_off_c, 5, 69, 0
1, 11648, Note_on_c, 5, 68, 96
1, 11655, Note_off_c, 5, 68, 0
1, 11656, Note_on_c, 5, 66, 96
1, 11663, Note_off_c, 5, 66, 0
1, 11664, Note_on_c, 3, 45, 80
1, 11664, Note_on_c, 5, 66, 96
1, 11664, Note_on_c, 6, 45, 96
1, 11671, Note_off_c, 5, 66, 0
1, 11672, Note_on_c, 5, 64, 96
1, 11679, Note_off_c, 5, 64, 0
1, 11680, Note_on_c, 5, 62, 96
1, 11685, Note_off_c, 3, 45, 0
1, 11685, Note_off_c, 6, 45, 0
1, 11687, Note_off_c, 5, 62, 0
1, 11688, Note_on_c, 0, 62, 80
1, 11688, Note_on_c, 1, 59, 80
1, 11688, Note_on_c, 2, 54, 80
1, 11688, Note_on_c, 3, 47, 80
1, 11688, Note_on_c, 5, 62, 96
1, 11688, Note_on_c, 6, 47, 96
1, 11694, Note_off_c, 0, 62, 0
1, 11694, Note_off_c, 1, 59, 0
1, 11694, Note_off_c, 2, 54, 0
1, 11695, Note_off_c, 5, 62, 0
1, 11696, Note_on_c, 5, 71, 96
1, 11703, Note_off_c, 5, 71, 0
1, 11704, Note_on_c, 5, 69, 96
1, 11709, Note_off_c, 3, 47, 0
1, 11709, Note_off_c, 6, 47, 0
1, 11711, Note_off_c, 5, 69, 0
1, 11712, Note_on_c, 0, 71, 80
1, 11712, Note_on_c, 1, 62, 80
1, 11712, Note_on_c, 2, 59, 80
1, 11712, Note_on_c, 5, 68, 96
1, 11718, Note_off_c, 0, 71, 0
1, 11718, Note_off_c, 1, 62, 0
1, 11718, Note_off_c, 2, 59, 0
1, 11719, Note_off_c, 5, 68, 0
1, 11720, Note_on_c, 5, 66, 96
1, 11727, Note_off_c, 5, 66, 0
1, 11728, Note_on_c, 5, 64, 96
1, 11735, Note_off_c, 5, 64, 0
1, 11736, Note_on_c, 3, 44, 80
1, 11736, Note_on_c, 5, 64, 96
1, 11736, Note_on_c, 6, 44, 96
1, 11743, Note_off_c, 5, 64, 0
1, 11744, Note_on_c, 5, 62, 96
1, 11751, Note_off_c, 5, 62, 0
1, 11752, Note_on_c, 5, 61, 96
1, 11757, Note_off_c, 3, 44, 0
1, 11757, Note_off_c, 6, 44, 0
1, 11759, Note_off_c, 5, 61, 0
1, 11760, Note_on_c, 0, 61, 80
1, 11760, Note_on_c, 1, 57, 80
1, 11760, Note_on_c, 2, 52, 80
1, 11760, Note_on_c, 3, 45, 80
1, 11760, Note_on_c, 5, 61, 96
1, 11760, Note_on_c, 6, 45, 96
1, 11764, Note_off_c, 5, 61, 0
1, 11764, Note_on_c, 5, 59, 96
1, 11766, Note_off_c, 0, 61, 0
1, 11766, Note_off_c, 1, 57, 0
1, 11766, Note_off_c, 2, 52, 0
1, 11768, Note_off_c, 5, 59, 0
1, 11768, Note_on_c, 5, 61, 96
1, 11781, Note_off_c, 3, 45, 0
1, 11781, Note_off_c, 6, 45, 0
1, 11784, Note_on_c, 0, 69, 80
1, 11784, Note_on_c, 1, 64, 80
1, 11784, Note_on_c, 2, 61, 80
1, 11790, Note_off_c, 0, 69, 0
1, 11790, Note_off_c, 1, 64, 0
1, 11790, Note_off_c, 2, 61, 0
1, 11792, Note_off_c, 5, 61, 0
1, 11796, Note_on_c, 5, 63, 96
1, 11801, Note_off_c, 5, 63, 0
1, 11802, Note_on_c, 5, 64, 96
1, 11807, Note_off_c, 5, 64, 0
1, 11808, Note_on_c, 5, 66, 96
1, 11808, Note_on_c, 6, 57, 96
1, 11813, Note_off_c, 5, 66, 0
1, 11814, Note_on_c, 5, 64, 96
1, 11819, Note_off_c, 5, 64, 0
1, 11820, Note_on_c, 5, 63, 96
1, 11829, Note_off_c, 6, 57, 0
1, 11830, Note_off_c, 5, 63, 0
1, 11832, Note_on_c, 5, 72, 96
1, 11832, Note_on_c, 6, 51, 96
1, 11842, Note_off_c, 5, 72, 0
1, 11844, Note_on_c, 5, 71, 96
1, 11853, Note_off_c, 6, 51, 0
1, 11856, Note_on_c, 6, 52, 96
1, 11865, Note_off_c, 5, 71, 0
1, 11868, Note_on_c, 5, 69, 96
1, 11873, Note_off_c, 5, 69, 0
1, 11874, Note_on_c, 5, 68, 96
1, 11877, Note_off_c, 6, 52, 0
1, 11879, Note_off_c, 5, 68, 0
1, 11880, Note_on_c, 5, 69, 96
1, 11880, Note_on_c, 6, 60, 96
1, 11890, Note_off_c, 5, 69, 0
1, 11892, Note_on_c, 5, 66, 96
1, 11901, Note_off_c, 6, 60, 0
1, 11902, Note_off_c, 5, 66, 0
1, 11904, Note_on_c, 5, 63, 96
1, 11904, Note_on_c, 6, 54, 96
1, 11914, Note_off_c, 5, 63, 0
1, 11916, Note_on_c, 5, 64, 96
1, 11921, Note_off_c, 5, 64, 0
1, 11922, Note_on_c, 5, 66, 96
1, 11925, Note_off_c, 6, 54, 0
1, 11927, Note_off_c, 5, 66, 0
1, 11928, Note_on_c, 5, 64, 96
1, 11928, Note_on_c, 6, 56, 96
1, 11949, Note_off_c, 6, 56, 0
1, 11952, Note_on_c, 0, 74, 96
1, 11952, Note_on_c, 1, 71, 96
1, 11952, Note_on_c, 2, 64, 96
1, 11952, Note_on_c, 3, 52, 96
1, 11952, Note_on_c, 4, 40, 96
1, 11952, Note_on_c, 6, 52, 96
1, 11973, Note_off_c, 0, 74, 0
1, 11973, Note_off_c, 1, 71, 0
1, 11973, Note_off_c, 2, 64, 0
1, 11973, Note_off_c, 3, 52, 0
1, 11973, Note_off_c, 4, 40, 0
1, 11973, Note_off_c, 6, 52, 0
1, 11976, Note_on_c, 0, 73, 96
1, 11976, Note_on_c, 1, 69, 96
1, 11976, Note_on_c, 2, 64, 96
1, 11976, Note_on_c, 3, 57, 96
1, 11976, Note_on_c, 4, 45, 96
1, 11976, Note_on_c, 6, 57, 96
1, 11988, Note_off_c, 0, 73, 0
1, 11988, Note_on_c, 0, 76, 96
1, 12000, Note_off_c, 0, 76, 0
1, 12000, Note_on_c, 0, 80, 96
1, 12000, Note_off_c, 1, 69, 0
1, 12000, Note_on_c, 1, 71, 96
1, 12000, Note_off_c, 2, 64, 0
1, 12000, Note_on_c, 2, 62, 96
1, 12000, Note_off_c, 3, 57, 0
1, 12000, Note_on_c, 3, 57, 96
1, 12000, Note_off_c, 4, 45, 0
1, 12000, Note_on_c, 4, 45, 96
1, 12000, Note_off_c, 6, 57, 0
1, 12000, Note_on_c, 6, 57, 96
1, 12010, Note_off_c, 0, 80, 0
1, 12012, Note_on_c, 0, 83, 96
1, 12022, Note_off_c, 0, 83, 0
1, 12024, Note_on_c, 0, 81, 96
1, 12024, Note_off_c, 1, 71, 0
1, 12024, Note_on_c, 1, 73, 96
1, 12024, Note_off_c, 2, 62, 0
1, 12024, Note_on_c, 2, 64, 96
1, 12024, Note_off_c, 3, 57, 0
1, 12024, Note_on_c, 3, 57, 96
1, 12024, Note_off_c, 4, 45, 0
1, 12024, Note_on_c, 4, 45, 96
1, 12024, Note_off_c, 5, 64, 0
1, 12024, Note_off_c, 6, 57, 0
1, 12024, Note_on_c, 6, 57, 96
1, 12034, Note_off_c, 0, 81, 0
1, 12036, Note_on_c, 0, 78, 96
1, 12045, Note_off_c, 1, 73, 0
1, 12045, Note_off_c, 2, 64, 0
1, 12045, Note_off_c, 3, 57, 0
1, 12045, Note_off_c, 4, 45, 0
1, 12045, Note_off_c, 6, 57, 0
1, 12046, Note_off_c, 0, 78, 0
1, 12048, Note_on_c, 0, 75, 96
1, 12048, Note_on_c, 1, 71, 96
1, 12048, Note_on_c, 2, 66, 96
1, 12048, Note_on_c, 3, 57, 96
1, 12048, Note_on_c, 4, 45, 96
1, 12048, Note_on_c, 6, 57, 96
1, 12054, Note_off_c, 1, 71, 0
1, 12054, Note_off_c, 2, 66, 0
1, 12060, Note_off_c, 0, 75, 0
1, 12060, Note_on_c, 0, 76, 96
1, 12066, Note_off_c, 0, 76, 0
1, 12066, Note_on_c, 0, 78, 96
1, 12069, Note_off_c, 3, 57, 0
1, 12069, Note_off_c, 4, 45, 0
1, 12069, Note_off_c, 6, 57, 0
1, 12071, Note_off_c, 0, 78, 0
1, 12072, Note_on_c, 0, 76, 96
1, 12072, Note_on_c, 1, 64, 96
1, 12072, Note_on_c, 2, 71, 96
1, 12072, Note_on_c, 3, 56, 96
1, 12072, Note_on_c, 4, 44, 96
1, 12072, Note_on_c, 6, 56, 96
1, 12078, Note_off_c, 0, 76, 0
1, 12078, Note_off_c, 1, 64, 0
1, 12078, Note_off_c, 2, 71, 0
1, 12082, Note_off_c, 3, 56, 0
1, 12082, Note_off_c, 4, 44, 0
1, 12082, Note_off_c, 6, 56, 0
1, 12084, Note_on_c, 3, 54, 96
1, 12084, Note_on_c, 4, 42, 96
1, 12084, Note_on_c, 6, 54, 96
1, 12094, Note_off_c, 3, 54, 0
1, 12094, Note_off_c, 4, 42, 0
1, 12094, Note_off_c, 6, 54, 0
1, 12096, Note_on_c, 3, 52, 96
1, 12096, Note_on_c, 4, 40, 96
1, 12096, Note_on_c, 5, 76, 96
1, 12096, Note_on_c, 6, 52, 96
1, 12100, Note_off_c, 5, 76, 0
1, 12100, Note_on_c, 5, 74, 96
1, 12104, Note_off_c, 5, 74, 0
1, 12104, Note_on_c, 5, 76, 96
1, 12106, Note_off_c, 3, 52, 0
1, 12106, Note_off_c, 4, 40, 0
1, 12106, Note_off_c, 6, 52, 0
1, 12108, Note_on_c, 3, 50, 96
1, 12108, Note_on_c, 4, 38, 96
1, 12108, Note_on_c, 6, 50, 96
1, 12118, Note_off_c, 3, 50, 0
1, 12118, Note_off_c, 4, 38, 0
1, 12118, Note_off_c, 6, 50, 0
1, 12120, Note_on_c, 3, 49, 96
1, 12120, Note_on_c, 4, 37, 96
1, 12120, Note_on_c, 6, 49, 96
1, 12125, Note_off_c, 5, 76, 0
1, 12128, Note_on_c, 5, 73, 96
1, 12135, Note_off_c, 5, 73, 0
1, 12136, Note_on_c, 5, 74, 96
1, 12141, Note_off_c, 3, 49, 0
1, 12141, Note_off_c, 4, 37, 0
1, 12141, Note_off_c, 6, 49, 0
1, 12143, Note_off_c, 5, 74, 0
1, 12144, Note_on_c, 0, 80, 80
1, 12144, Note_on_c, 1, 74, 80
1, 12144, Note_on_c, 2, 59, 80
1, 12144, Note_on_c, 5, 76, 96
1, 12150, Note_off_c, 0, 80, 0
1, 12150, Note_off_c, 1, 74, 0
1, 12150, Note_off_c, 2, 59, 0
1, 12151, Note_off_c, 5, 76, 0
1, 12152, Note_on_c, 5, 78, 96
1, 12159, Note_off_c, 5, 78, 0
1, 12160, Note_on_c, 5, 80, 96
1, 12167, Note_off_c, 5, 80, 0
1, 12168, Note_on_c, 0, 81, 80
1, 12168, Note_on_c, 1, 73, 80
1, 12168, Note_on_c, 2, 57, 80
1, 12168, Note_on_c, 5, 81, 96
1, 12174, Note_off_c, 0, 81, 0
1, 12174, Note_off_c, 1, 73, 0
1, 12174, Note_off_c, 2, 57, 0
1, 12175, Note_off_c, 5, 81, 0
1, 12176, Note_on_c, 5, 80, 96
1, 12183, Note_off_c, 5, 80, 0
1, 12184, Note_on_c, 5, 81, 96
1, 12191, Note_off_c, 5, 81, 0
1, 12192, Note_on_c, 3, 47, 80
1, 12192, Note_on_c, 5, 76, 96
1, 12192, Note_on_c, 6, 47, 96
1, 12204, Note_off_c, 5, 76, 0
1, 12204, Note_on_c, 5, 74, 96
1, 12213, Note_off_c, 3, 47, 0
1, 12213, Note_off_c, 6, 47, 0
1, 12216, Note_on_c, 0, 83, 80
1, 12216, Note_on_c, 1, 74, 80
1, 12216, Note_on_c, 2, 57, 80
1, 12222, Note_off_c, 0, 83, 0
1, 12222, Note_off_c, 1, 74, 0
1, 12222, Note_off_c, 2, 57, 0
1, 12225, Note_off_c, 5, 74, 0
1, 12228, Note_on_c, 5, 74, 96
1, 12233, Note_off_c, 5, 74, 0
1, 12234, Note_on_c, 5, 76, 96
1, 12239, Note_off_c, 5, 76, 0
1, 12240, Note_on_c, 0, 74, 80
1, 12240, Note_on_c, 1, 71, 80
1, 12240, Note_on_c, 2, 56, 80
1, 12240, Note_on_c, 5, 78, 96
1, 12245, Note_off_c, 5, 78, 0
1, 12246, Note_off_c, 0, 74, 0
1, 12246, Note_off_c, 1, 71, 0
1, 12246, Note_off_c, 2, 56, 0
1, 12246, Note_on_c, 5, 76, 96
1, 12251, Note_off_c, 5, 76, 0
1, 12252, Note_on_c, 5, 74, 96
1, 12262, Note_off_c, 5, 74, 0
1, 12264, Note_on_c, 3, 45, 80
1, 12264, Note_on_c, 5, 74, 96
1, 12264, Note_on_c, 6, 45, 96
1, 12271, Note_off_c, 5, 74, 0
1, 12272, Note_on_c, 5, 73, 96
1, 12279, Note_off_c, 5, 73, 0
1, 12280, Note_on_c, 5, 71, 96
1, 12285, Note_off_c, 3, 45, 0
1, 12285, Note_off_c, 6, 45, 0
1, 12287, Note_off_c, 5, 71, 0
1, 12288, Note_on_c, 0, 73, 80
1, 12288, Note_on_c, 1, 69, 80
1, 12288, Note_on_c, 2, 66, 80
1, 12288, Note_on_c, 5, 73, 96
1, 12294, Note_off_c, 0, 73, 0
1, 12294, Note_off_c, 1, 69, 0
1, 12294, Note_off_c, 2, 66, 0
1, 12295, Note_off_c, 5, 73, 0
1, 12296, Note_on_c, 5, 76, 96
1, 12303, Note_off_c, 5, 76, 0
1, 12304, Note_on_c, 5, 80, 96
1, 12311, Note_off_c, 5, 80, 0
1, 12312, Note_on_c, 0, 81, 80
1, 12312, Note_on_c, 1, 73, 80
1, 12312, Note_on_c, 2, 64, 80
1, 12312, Note_on_c, 5, 81, 96
1, 12318, Note_off_c, 0, 81, 0
1, 12318, Note_off_c, 1, 73, 0
1, 12318, Note_off_c, 2, 64, 0
1, 12319, Note_off_c, 5, 81, 0
1, 12320, Note_on_c, 5, 80, 96
1, 12327, Note_off_c, 5, 80, 0
1, 12328, Note_on_c, 5, 81, 96
1, 12335, Note_off_c, 5, 81, 0
1, 12336, Note_on_c, 3, 50, 80
1, 12336, Note_on_c, 5, 73, 96
1, 12336, Note_on_c, 6, 50, 96
1, 12348, Note_off_c, 5, 73, 0
1, 12348, Note_on_c, 5, 71, 96
1, 12357, Note_off_c, 3, 50, 0
1, 12357, Note_off_c, 6, 50, 0
1, 12360, Note_on_c, 0, 71, 80
1, 12360, Note_on_c, 1, 66, 80
1, 12360, Note_on_c, 2, 62, 80
1, 12366, Note_off_c, 0, 71, 0
1, 12366, Note_off_c, 1, 66, 0
1, 12366, Note_off_c, 2, 62, 0
1, 12369, Note_off_c, 5, 71, 0
1, 12372, Note_on_c, 5, 71, 96
1, 12377, Note_off_c, 5, 71, 0
1, 12378, Note_on_c, 5, 73, 96
1, 12383, Note_off_c, 5, 73, 0
1, 12384, Note_on_c, 0, 81, 80
1, 12384, Note_on_c, 1, 71, 80
1, 12384, Note_on_c, 2, 61, 80
1, 12384, Note_on_c, 5, 74, 96
1, 12389, Note_off_c, 5, 74, 0
1, 12390, Note_off_c, 0, 81, 0
1, 12390, Note_off_c, 1, 71, 0
1, 12390, Note_off_c, 2, 61, 0
1, 12390, Note_on_c, 5, 73, 96
1, 12395, Note_off_c, 5, 73, 0
1, 12396, Note_on_c, 5, 71, 96
1, 12406, Note_off_c, 5, 71, 0
1, 12408, Note_on_c, 3, 50, 80
1, 12408, Note_on_c, 5, 69, 96
1, 12408, Note_on_c, 6, 50, 96
1, 12418, Note_off_c, 5, 69, 0
1, 12420, Note_on_c, 5, 68, 96
1, 12425, Note_off_c, 5, 68, 0
1, 12426, Note_on_c, 5, 69, 96
1, 12429, Note_off_c, 3, 50, 0
1, 12429, Note_off_c, 6, 50, 0
1, 12431, Note_off_c, 5, 69, 0
1, 12432, Note_on_c, 0, 80, 80
1, 12432, Note_on_c, 1, 71, 80
1, 12432, Note_on_c, 2, 62, 80
1, 12432, Note_on_c, 5, 71, 96
1, 12437, Note_off_c, 5, 71, 0
1, 12438, Note_off_c, 0, 80, 0
1, 12438, Note_off_c, 1, 71, 0
1, 12438, Note_off_c, 2, 62, 0
1, 12438, Note_on_c, 5, 73, 96
1, 12443, Note_off_c, 5, 73, 0
1, 12444, Note_on_c, 5, 74, 96
1, 12449, Note_off_c, 5, 74, 0
1, 12450, Note_on_c, 5, 76, 96
1, 12455, Note_off_c, 5, 76, 0
1, 12456, Note_on_c, 0, 83, 80
1, 12456, Note_on_c, 1, 64, 80
1, 12456, Note_on_c, 2, 56, 80
1, 12456, Note_on_c, 5, 78, 96
1, 12462, Note_off_c, 0, 83, 0
1, 12462, Note_off_c, 1, 64, 0
1, 12462, Note_off_c, 2, 56, 0
1, 12480, Note_on_c, 0, 81, 80
1, 12480, Note_on_c, 1, 69, 80
1, 12480, Note_on_c, 2, 61, 80
1, 12480, Note_on_c, 3, 49, 80
1, 12480, Note_on_c, 6, 49, 96
1, 12486, Note_off_c, 0, 81, 0
1, 12486, Note_off_c, 1, 69, 0
1, 12486, Note_off_c, 2, 61, 0
1, 12487, Note_off_c, 5, 78, 0
1, 12492, Note_on_c, 5, 76, 96
1, 12501, Note_off_c, 3, 49, 0
1, 12501, Note_off_c, 6, 49, 0
1, 12502, Note_off_c, 5, 76, 0
1, 12504, Note_on_c, 3, 50, 80
1, 12504, Note_on_c, 5, 69, 96
1, 12504, Note_on_c, 6, 50, 96
1, 12516, Note_off_c, 5, 69, 0
1, 12516, Note_on_c, 5, 68, 96
1, 12525, Note_off_c, 3, 50, 0
1, 12525, Note_off_c, 6, 50, 0
1, 12528, Note_on_c, 3, 52, 80
1, 12528, Note_on_c, 6, 52, 96
1, 12537, Note_off_c, 5, 68, 0
1, 12540, Note_on_c, 5, 69, 96
1, 12549, Note_off_c, 3, 52, 0
1, 12549, Note_off_c, 6, 52, 0
1, 12550, Note_off_c, 5, 69, 0
1, 12552, Note_on_c, 0, 57, 96
1, 12552, Note_on_c, 3, 45, 96
1, 12552, Note_on_c, 4, 33, 96
1, 12552, Note_on_c, 5, 69, 96
1, 12552, Note_on_c, 6, 45, 96
1, 12564, Note_off_c, 0, 57, 0
1, 12564, Note_on_c, 0, 61, 96
1, 12573, Note_off_c, 3, 45, 0
1, 12573, Note_off_c, 4, 33, 0
1, 12573, Note_off_c, 6, 45, 0
1, 12576, Note_off_c, 0, 61, 0
1, 12576, Note_on_c, 0, 64, 96
1, 12576, Note_on_c, 3, 57, 96
1, 12576, Note_on_c, 4, 45, 96
1, 12576, Note_on_c, 6, 57, 96
1, 12586, Note_off_c, 0, 64, 0
1, 12588, Note_on_c, 0, 59, 96
1, 12597, Note_off_c, 3, 57, 0
1, 12597, Note_off_c, 4, 45, 0
1, 12597, Note_off_c, 6, 57, 0
1, 12598, Note_off_c, 0, 59, 0
1, 12600, Note_on_c, 0, 61, 96
1, 12600, Note_on_c, 3, 52, 96
1, 12600, Note_on_c, 4, 40, 96
1, 12600, Note_on_c, 6, 52, 96
1, 12610, Note_off_c, 0, 61, 0
1, 12612, Note_on_c, 0, 64, 96
1, 12621, Note_off_c, 3, 52, 0
1, 12621, Note_off_c, 4, 40, 0
1, 12621, Note_off_c, 6, 52, 0
1, 12622, Note_off_c, 0, 64, 0
1, 12624, Note_on_c, 0, 69, 96
1, 12624, Note_on_c, 1, 64, 96
1, 12624, Note_on_c, 2, 61, 96
1, 12624, Note_on_c, 3, 49, 96
1, 12624, Note_on_c, 4, 37, 96
1, 12624, Note_on_c, 6, 49, 96
1, 12630, Note_off_c, 5, 69, 0
1, 12636, Note_off_c, 0, 69, 0
1, 12636, Note_on_c, 0, 73, 96
1, 12636, Note_off_c, 1, 64, 0
1, 12636, Note_on_c, 1, 69, 96
1, 12636, Note_off_c, 2, 61, 0
1, 12636, Note_on_c, 2, 64, 96
1, 12636, Note_on_c, 5, 73, 96
1, 12645, Note_off_c, 3, 49, 0
1, 12645, Note_off_c, 4, 37, 0
1, 12645, Note_off_c, 6, 49, 0
1, 12646, Note_off_c, 5, 73, 0
1, 12648, Note_off_c, 0, 73, 0
1, 12648, Note_on_c, 0, 76, 96
1, 12648, Note_off_c, 1, 69, 0
1, 12648, Note_on_c, 1, 73, 96
1, 12648, Note_off_c, 2, 64, 0
1, 12648, Note_on_c, 2, 69, 96
1, 12648, Note_on_c, 3, 45, 96
1, 12648, Note_on_c, 4, 33, 96
1, 12648, Note_on_c, 5, 76, 96
1, 12648, Note_on_c, 6, 45, 96
1, 12658, Note_off_c, 0, 76, 0
1, 12658, Note_off_c, 1, 73, 0
1, 12658, Note_off_c, 2, 69, 0
1, 12658, Note_off_c, 5, 76, 0
1, 12660, Note_on_c, 0, 71, 96
1, 12660, Note_on_c, 1, 68, 96
1, 12660, Note_on_c, 2, 62, 96
1, 12660, Note_on_c, 5, 71, 96
1, 12669, Note_off_c, 3, 45, 0
1, 12669, Note_off_c, 4, 33, 0
1, 12669, Note_off_c, 6, 45, 0
1, 12670, Note_off_c, 0, 71, 0
1, 12670, Note_off_c, 1, 68, 0
1, 12670, Note_off_c, 2, 62, 0
1, 12670, Note_off_c, 5, 71, 0
1, 12672, Note_on_c, 0, 73, 96
1, 12672, Note_on_c, 1, 69, 96
1, 12672, Note_on_c, 2, 64, 96
1, 12672, Note_on_c, 5, 73, 96
1, 12682, Note_off_c, 0, 73, 0
1, 12682, Note_off_c, 1, 69, 0
1, 12682, Note_off_c, 2, 64, 0
1, 12682, Note_off_c, 5, 73, 0
1, 12684, Note_on_c, 0, 76, 96
1, 12684, Note_on_c, 1, 73, 96
1, 12684, Note_on_c, 2, 69, 96
1, 12684, Note_on_c, 5, 76, 96
1, 12694, Note_off_c, 0, 76, 0
1, 12694, Note_off_c, 1, 73, 0
1, 12694, Note_off_c, 2, 69, 0
1, 12694, Note_off_c, 5, 76, 0
1, 12696, Note_on_c, 0, 81, 96
1, 12696, Note_on_c, 1, 76, 96
1, 12696, Note_on_c, 2, 73, 96
1, 12696, Note_on_c, 3, 45, 96
1, 12696, Note_on_c, 4, 33, 96
1, 12696, Note_on_c, 5, 81, 96
1, 12696, Note_on_c, 6, 45, 96
1, 12717, Note_off_c, 6, 45, 0
1, 12720, Note_off_c, 1, 76, 0
1, 12720, Note_on_c, 1, 73, 96
1, 12720, Note_off_c, 2, 73, 0
1, 12720, Note_on_c, 2, 64, 96
1, 12720, Note_off_c, 3, 45, 0
1, 12720, Note_on_c, 3, 57, 96
1, 12720, Note_off_c, 4, 33, 0
1, 12720, Note_on_c, 4, 45, 96
1, 12720, Note_on_c, 6, 57, 96
1, 12727, Note_off_c, 0, 81, 0
1, 12727, Note_off_c, 5, 81, 0
1, 12732, Note_on_c, 0, 80, 96
1, 12732, Note_on_c, 5, 80, 96
1, 12737, Note_off_c, 0, 80, 0
1, 12737, Note_off_c, 5, 80, 0
1, 12738, Note_on_c, 0, 78, 96
1, 12738, Note_on_c, 5, 78, 96
1, 12743, Note_off_c, 0, 78, 0
1, 12743, Note_off_c, 5, 78, 0
1, 12744, Note_on_c, 0, 76, 96
1, 12744, Note_off_c, 1, 73, 0
1, 12744, Note_on_c, 1, 71, 96
1, 12744, Note_off_c, 2, 64, 0
1, 12744, Note_on_c, 2, 64, 96
1, 12744, Note_off_c, 3, 57, 0
1, 12744, Note_on_c, 3, 56, 96
1, 12744, Note_off_c, 4, 45, 0
1, 12744, Note_on_c, 4, 44, 96
1, 12744, Note_on_c, 5, 76, 96
1, 12744, Note_off_c, 6, 57, 0
1, 12744, Note_on_c, 6, 56, 96
1, 12749, Note_off_c, 0, 76, 0
1, 12749, Note_off_c, 5, 76, 0
1, 12750, Note_on_c, 0, 74, 96
1, 12750, Note_on_c, 5, 74, 96
1, 12755, Note_off_c, 0, 74, 0
1, 12755, Note_off_c, 5, 74, 0
1, 12756, Note_on_c, 0, 73, 96
1, 12756, Note_on_c, 5, 73, 96
1, 12761, Note_off_c, 0, 73, 0
1, 12761, Note_off_c, 5, 73, 0
1, 12762, Note_on_c, 0, 71, 96
1, 12762, Note_on_c, 5, 71, 96
1, 12765, Note_off_c, 1, 71, 0
1, 12765, Note_off_c, 2, 64, 0
1, 12765, Note_off_c, 3, 56, 0
1, 12765, Note_off_c, 4, 44, 0
1, 12765, Note_off_c, 6, 56, 0
1, 12767, Note_off_c, 0, 71, 0
1, 12767, Note_off_c, 5, 71, 0
1, 12768, Note_on_c, 0, 73, 96
1, 12768, Note_on_c, 1, 69, 96
1, 12768, Note_on_c, 2, 64, 96
1, 12768, Note_on_c, 3, 57, 96
1, 12768, Note_on_c, 4, 45, 96
1, 12768, Note_on_c, 5, 71, 96
1, 12768, Note_on_c, 6, 57, 96
1, 12780, Note_off_c, 5, 71, 0
1, 12780, Note_on_c, 5, 73, 96
1, 12789, Note_off_c, 1, 69, 0
1, 12792, Note_on_c, 1, 69, 96
1, 12792, Note_off_c, 2, 64, 0
1, 12792, Note_on_c, 2, 64, 96
1, 12792, Note_off_c, 3, 57, 0
1, 12792, Note_on_c, 3, 57, 96
1, 12792, Note_off_c, 4, 45, 0
1, 12792, Note_on_c, 4, 45, 96
1, 12792, Note_off_c, 6, 57, 0
1, 12792, Note_on_c, 6, 57, 96
1, 12794, Note_off_c, 0, 73, 0
1, 12796, Note_off_c, 5, 73, 0
1, 12798, Note_on_c, 0, 71, 96
1, 12798, Note_on_c, 5, 71, 96
1, 12803, Note_off_c, 0, 71, 0
1, 12803, Note_off_c, 5, 71, 0
1, 12804, Note_on_c, 0, 73, 96
1, 12804, Note_on_c, 5, 73, 96
1, 12809, Note_off_c, 0, 73, 0
1, 12809, Note_off_c, 5, 73, 0
1, 12810, Note_on_c, 0, 74, 96
1, 12810, Note_on_c, 5, 74, 96
1, 12815, Note_off_c, 0, 74, 0
1, 12815, Note_off_c, 5, 74, 0
1, 12816, Note_on_c, 0, 73, 96
1, 12816, Note_off_c, 1, 69, 0
1, 12816, Note_on_c, 1, 68, 96
1, 12816, Note_off_c, 2, 64, 0
1, 12816, Note_on_c, 2, 64, 96
1, 12816, Note_off_c, 3, 57, 0
1, 12816, Note_on_c, 3, 52, 96
1, 12816, Note_off_c, 4, 45, 0
1, 12816, Note_on_c, 4, 40, 96
1, 12816, Note_on_c, 5, 73, 96
1, 12816, Note_off_c, 6, 57, 0
1, 12816, Note_on_c, 6, 52, 96
1, 12821, Note_off_c, 0, 73, 0
1, 12821, Note_off_c, 5, 73, 0
1, 12822, Note_on_c, 0, 71, 96
1, 12822, Note_on_c, 5, 71, 96
1, 12827, Note_off_c, 0, 71, 0
1, 12827, Note_off_c, 5, 71, 0
1, 12828, Note_on_c, 0, 69, 96
1, 12828, Note_on_c, 5, 69, 96
1, 12833, Note_off_c, 0, 69, 0
1, 12833, Note_off_c, 5, 69, 0
1, 12834, Note_on_c, 0, 68, 96
1, 12834, Note_on_c, 5, 68, 96
1, 12837, Note_off_c, 1, 68, 0
1, 12837, Note_off_c, 2, 64, 0
1, 12837, Note_off_c, 3, 52, 0
1, 12837, Note_off_c, 4, 40, 0
1, 12837, Note_off_c, 6, 52, 0
1, 12839, Note_off_c, 0, 68, 0
1, 12839, Note_off_c, 5, 68, 0
1, 12840, Note_on_c, 0, 69, 96
1, 12840, Note_on_c, 1, 66, 96
1, 12840, Note_on_c, 2, 61, 96
1, 12840, Note_on_c, 3, 54, 96
1, 12840, Note_on_c, 4, 42, 96
1, 12840, Note_on_c, 5, 68, 96
1, 12840, Note_on_c, 6, 54, 96
1, 12846, Note_off_c, 1, 66, 0
1, 12846, Note_off_c, 2, 61, 0
1, 12846, Note_off_c, 3, 54, 0
1, 12846, Note_off_c, 4, 42, 0
1, 12846, Note_off_c, 6, 54, 0
1, 12852, Note_off_c, 5, 68, 0
1, 12852, Note_on_c, 5, 69, 96
1, 12864, Note_on_c, 1, 66, 96
1, 12864, Note_on_c, 2, 59, 96
1, 12864, Note_on_c, 3, 50, 96
1, 12864, Note_on_c, 4, 38, 96
1, 12864, Note_on_c, 6, 50, 96
1, 12870, Note_off_c, 1, 66, 0
1, 12870, Note_off_c, 2, 59, 0
1, 12870, Note_off_c, 3, 50, 0
1, 12870, Note_off_c, 4, 38, 0
1, 12870, Note_off_c, 6, 50, 0
1, 12871, Note_off_c, 0, 69, 0
1, 12873, Note_off_c, 5, 69, 0
1, 12876, Note_on_c, 0, 68, 96
1, 12876, Note_on_c, 5, 68, 96
1, 12881, Note_off_c, 0, 68, 0
1, 12881, Note_off_c, 5, 68, 0
1, 12882, Note_on_c, 0, 66, 96
1, 12882, Note_on_c, 5, 66, 96
1, 12887, Note_off_c, 0, 66, 0
1, 12887, Note_off_c, 5, 66, 0
1, 12888, Note_on_c, 0, 64, 96
1, 12888, Note_on_c, 1, 68, 96
1, 12888, Note_on_c, 2, 59, 96
1, 12888, Note_on_c, 3, 52, 96
1, 12888, Note_on_c, 4, 40, 96
1, 12888, Note_on_c, 5, 64, 96
1, 12888, Note_on_c, 6, 52, 96
1, 12893, Note_off_c, 0, 64, 0
1, 12893, Note_off_c, 5, 64, 0
1, 12894, Note_on_c, 0, 62, 96
1, 12894, Note_off_c, 1, 68, 0
1, 12894, Note_off_c, 2, 59, 0
1, 12894, Note_off_c, 3, 52, 0
1, 12894, Note_off_c, 4, 40, 0
1, 12894, Note_on_c, 5, 62, 96
1, 12894, Note_off_c, 6, 52, 0
1, 12899, Note_off_c, 0, 62, 0
1, 12899, Note_off_c, 5, 62, 0
1, 12900, Note_on_c, 0, 61, 96
1, 12900, Note_on_c, 5, 61, 96
1, 12905, Note_off_c, 0, 61, 0
1, 12905, Note_off_c, 5, 61, 0
1, 12906, Note_on_c, 0, 59, 96
1, 12906, Note_on_c, 5, 59, 96
1, 12911, Note_off_c, 0, 59, 0
1, 12911, Note_off_c, 5, 59, 0
1, 12912, Note_on_c, 0, 57, 96
1, 12912, Note_on_c, 1, 69, 96
1, 12912, Note_on_c, 2, 61, 96
1, 12912, Note_on_c, 3, 45, 96
1, 12912, Note_on_c, 4, 33, 96
1, 12912, Note_on_c, 5, 57, 96
1, 12912, Note_on_c, 6, 45, 96
1, 12916, Note_off_c, 0, 57, 0
1, 12916, Note_on_c, 0, 59, 96
1, 12916, Note_off_c, 5, 57, 0
1, 12916, Note_on_c, 5, 59, 96
1, 12920, Note_off_c, 0, 59, 0
1, 12920, Note_on_c, 0, 57, 96
1, 12920, Note_off_c, 5, 59, 0
1, 12920, Note_on_c, 5, 57, 96
1, 12922, Note_off_c, 3, 45, 0
1, 12922, Note_off_c, 4, 33, 0
1, 12922, Note_off_c, 6, 45, 0
1, 12924, Note_off_c, 0, 57, 0
1, 12924, Note_on_c, 0, 59, 96
1, 12924, Note_on_c, 3, 47, 96
1, 12924, Note_on_c, 4, 35, 96
1, 12924, Note_off_c, 5, 57, 0
1, 12924, Note_on_c, 5, 59, 96
1, 12924, Note_on_c, 6, 47, 96
1, 12928, Note_off_c, 0, 59, 0
1, 12928, Note_on_c, 0, 57, 96
1, 12928, Note_off_c, 5, 59, 0
1, 12928, Note_on_c, 5, 57, 96
1, 12932, Note_off_c, 0, 57, 0
1, 12932, Note_on_c, 0, 59, 96
1, 12932, Note_off_c, 5, 57, 0
1, 12932, Note_on_c, 5, 59, 96
1, 12934, Note_off_c, 3, 47, 0
1, 12934, Note_off_c, 4, 35, 0
1, 12934, Note_off_c, 6, 47, 0
1, 12936, Note_off_c, 0, 59, 0
1, 12936, Note_on_c, 0, 57, 96
1, 12936, Note_on_c, 3, 49, 96
1, 12936, Note_on_c, 4, 37, 96
1, 12936, Note_off_c, 5, 59, 0
1, 12936, Note_on_c, 5, 57, 96
1, 12936, Note_on_c, 6, 49, 96
1, 12940, Note_off_c, 0, 57, 0
1, 12940, Note_on_c, 0, 59, 96
1, 12940, Note_off_c, 5, 57, 0
1, 12940, Note_on_c, 5, 59, 96
1, 12944, Note_off_c, 0, 59, 0
1, 12944, Note_on_c, 0, 57, 96
1, 12944, Note_off_c, 5, 59, 0
1, 12944, Note_on_c, 5, 57, 96
1, 12946, Note_off_c, 3, 49, 0
1, 12946, Note_off_c, 4, 37, 0
1, 12946, Note_off_c, 6, 49, 0
1, 12948, Note_on_c, 3, 50, 96
1, 12948, Note_on_c, 4, 38, 96
1, 12948, Note_on_c, 6, 50, 96
1, 12954, Note_off_c, 1, 69, 0
1, 12954, Note_off_c, 2, 61, 0
1, 12958, Note_off_c, 0, 57, 0
1, 12958, Note_off_c, 3, 50, 0
1, 12958, Note_off_c, 4, 38, 0
1, 12958, Note_off_c, 5, 57, 0
1, 12958, Note_off_c, 6, 50, 0
1, 12960, Note_on_c, 0, 69, 96
1, 12960, Note_on_c, 1, 64, 96
1, 12960, Note_on_c, 2, 61, 96
1, 12960, Note_on_c, 3, 52, 96
1, 12960, Note_on_c, 4, 40, 96
1, 12960, Note_on_c, 5, 69, 96
1, 12960, Note_on_c, 6, 52, 96
1, 12970, Note_off_c, 3, 52, 0
1, 12970, Note_off_c, 4, 40, 0
1, 12970, Note_off_c, 6, 52, 0
1, 12972, Note_on_c, 3, 54, 96
1, 12972, Note_on_c, 4, 42, 96
1, 12972, Note_on_c, 6, 54, 96
1, 12981, Note_off_c, 0, 69, 0
1, 12981, Note_off_c, 1, 64, 0
1, 12981, Note_off_c, 2, 61, 0
1, 12981, Note_off_c, 5, 69, 0
1, 12982, Note_off_c, 3, 54, 0
1, 12982, Note_off_c, 4, 42, 0
1, 12982, Note_off_c, 6, 54, 0
1, 12984, Note_on_c, 0, 64, 96
1, 12984, Note_on_c, 1, 64, 96
1, 12984, Note_on_c, 2, 59, 96
1, 12984, Note_on_c, 3, 56, 96
1, 12984, Note_on_c, 4, 44, 96
1, 12984, Note_on_c, 5, 64, 96
1, 12984, Note_on_c, 6, 56, 96
1, 12996, Note_off_c, 0, 64, 0
1, 12996, Note_on_c, 0, 71, 96
1, 12996, Note_off_c, 5, 64, 0
1, 12996, Note_on_c, 5, 71, 96
1, 13008, Note_off_c, 0, 71, 0
1, 13008, Note_on_c, 0, 73, 96
1, 13008, Note_off_c, 2, 59, 0
1, 13008, Note_on_c, 2, 57, 96
1, 13008, Note_off_c, 3, 56, 0
1, 13008, Note_on_c, 3, 54, 96
1, 13008, Note_off_c, 4, 44, 0
1, 13008, Note_on_c, 4, 42, 96
1, 13008, Note_off_c, 5, 71, 0
1, 13008, Note_on_c, 5, 73, 96
1, 13008, Note_off_c, 6, 56, 0
1, 13008, Note_on_c, 6, 54, 96
1, 13018, Note_off_c, 0, 73, 0
1, 13018, Note_off_c, 5, 73, 0
1, 13020, Note_on_c, 0, 69, 96
1, 13020, Note_on_c, 5, 69, 96
1, 13029, Note_off_c, 2, 57, 0
1, 13030, Note_off_c, 0, 69, 0
1, 13030, Note_off_c, 5, 69, 0
1, 13032, Note_on_c, 0, 71, 96
1, 13032, Note_on_c, 2, 64, 96
1, 13032, Note_off_c, 3, 54, 0
1, 13032, Note_on_c, 3, 56, 96
1, 13032, Note_off_c, 4, 42, 0
1, 13032, Note_on_c, 4, 44, 96
1, 13032, Note_on_c, 5, 71, 96
1, 13032, Note_off_c, 6, 54, 0
1, 13032, Note_on_c, 6, 56, 96
1, 13042, Note_off_c, 0, 71, 0
1, 13042, Note_off_c, 5, 71, 0
1, 13044, Note_on_c, 0, 74, 96
1, 13044, Note_on_c, 5, 74, 96
1, 13053, Note_off_c, 2, 64, 0
1, 13053, Note_off_c, 3, 56, 0
1, 13053, Note_off_c, 4, 44, 0
1, 13053, Note_off_c, 6, 56, 0
1, 13054, Note_off_c, 0, 74, 0
1, 13054, Note_off_c, 5, 74, 0
1, 13056, Note_on_c, 0, 64, 96
1, 13056, Note_on_c, 2, 61, 96
1, 13056, Note_on_c, 3, 57, 96
1, 13056, Note_on_c, 4, 45, 96
1, 13056, Note_on_c, 5, 64, 96
1, 13056, Note_on_c, 6, 57, 96
1, 13068, Note_off_c, 0, 64, 0
1, 13068, Note_on_c, 0, 73, 96
1, 13068, Note_off_c, 5, 64, 0
1, 13068, Note_on_c, 5, 73, 96
1, 13080, Note_off_c, 0, 73, 0
1, 13080, Note_on_c, 0, 74, 96
1, 13080, Note_off_c, 2, 61, 0
1, 13080, Note_on_c, 2, 59, 96
1, 13080, Note_off_c, 3, 57, 0
1, 13080, Note_on_c, 3, 56, 96
1, 13080, Note_off_c, 4, 45, 0
1, 13080, Note_on_c, 4, 44, 96
1, 13080, Note_off_c, 5, 73, 0
1, 13080, Note_on_c, 5, 74, 96
1, 13080, Note_off_c, 6, 57, 0
1, 13080, Note_on_c, 6, 56, 96
1, 13090, Note_off_c, 0, 74, 0
1, 13090, Note_off_c, 5, 74, 0
1, 13092, Note_on_c, 0, 71, 96
1, 13092, Note_on_c, 5, 71, 96
1, 13102, Note_off_c, 0, 71, 0
1, 13102, Note_off_c, 5, 71, 0
1, 13104, Note_on_c, 0, 73, 96
1, 13104, Note_off_c, 2, 59, 0
1, 13104, Note_on_c, 2, 57, 96
1, 13104, Note_off_c, 3, 56, 0
1, 13104, Note_on_c, 3, 57, 96
1, 13104, Note_off_c, 4, 44, 0
1, 13104, Note_on_c, 4, 45, 96
1, 13104, Note_on_c, 5, 73, 96
1, 13104, Note_off_c, 6, 56, 0
1, 13104, Note_on_c, 6, 57, 96
1, 13114, Note_off_c, 0, 73, 0
1, 13114, Note_off_c, 5, 73, 0
1, 13116, Note_on_c, 0, 76, 96
1, 13116, Note_on_c, 5, 76, 96
1, 13122, Note_off_c, 1, 64, 0
1, 13125, Note_off_c, 2, 57, 0
1, 13125, Note_off_c, 3, 57, 0
1, 13125, Note_off_c, 4, 45, 0
1, 13125, Note_off_c, 6, 57, 0
1, 13126, Note_off_c, 0, 76, 0
1, 13126, Note_off_c, 5, 76, 0
1, 13128, Note_on_c, 0, 69, 96
1, 13128, Note_on_c, 1, 62, 96
1, 13128, Note_on_c, 2, 69, 96
1, 13128, Note_on_c, 3, 54, 96
1, 13128, Note_on_c, 4, 42, 96
1, 13128, Note_on_c, 5, 69, 96
1, 13128, Note_on_c, 6, 54, 96
1, 13138, Note_off_c, 5, 69, 0
1, 13140, Note_off_c, 0, 69, 0
1, 13140, Note_on_c, 0, 74, 96
1, 13140, Note_on_c, 5, 74, 96
1, 13150, Note_off_c, 5, 74, 0
1, 13152, Note_off_c, 0, 74, 0
1, 13152, Note_on_c, 0, 76, 96
1, 13152, Note_off_c, 1, 62, 0
1, 13152, Note_on_c, 1, 61, 96
1, 13152, Note_off_c, 2, 69, 0
1, 13152, Note_on_c, 2, 69, 96
1, 13152, Note_off_c, 3, 54, 0
1, 13152, Note_on_c, 3, 57, 96
1, 13152, Note_off_c, 4, 42, 0
1, 13152, Note_on_c, 4, 45, 96
1, 13152, Note_on_c, 5, 76, 96
1, 13152, Note_off_c, 6, 54, 0
1, 13152, Note_on_c, 6, 57, 96
1, 13162, Note_off_c, 0, 76, 0
1, 13162, Note_off_c, 5, 76, 0
1, 13164, Note_on_c, 0, 73, 96
1, 13164, Note_on_c, 5, 73, 96
1, 13174, Note_off_c, 0, 73, 0
1, 13174, Note_off_c, 5, 73, 0
1, 13176, Note_on_c, 0, 74, 96
1, 13176, Note_off_c, 1, 61, 0
1, 13176, Note_on_c, 1, 69, 96
1, 13176, Note_off_c, 2, 69, 0
1, 13176, Note_on_c, 2, 66, 96
1, 13176, Note_off_c, 3, 57, 0
1, 13176, Note_on_c, 3, 50, 96
1, 13176, Note_off_c, 4, 45, 0
1, 13176, Note_on_c, 4, 38, 96
1, 13176, Note_on_c, 5, 74, 96
1, 13176, Note_off_c, 6, 57, 0
1, 13176, Note_on_c, 6, 50, 96
1, 13186, Note_off_c, 0, 74, 0
1, 13186, Note_off_c, 5, 74, 0
1, 13188, Note_on_c, 0, 78, 96
1, 13188, Note_on_c, 5, 78, 96
1, 13197, Note_off_c, 1, 69, 0
1, 13197, Note_off_c, 2, 66, 0
1, 13197, Note_off_c, 3, 50, 0
1, 13197, Note_off_c, 4, 38, 0
1, 13197, Note_off_c, 6, 50, 0
1, 13198, Note_off_c, 0, 78, 0
1, 13198, Note_off_c, 5, 78, 0
1, 13200, Note_on_c, 0, 73, 96
1, 13200, Note_on_c, 1, 68, 96
1, 13200, Note_on_c, 2, 64, 96
1, 13200, Note_on_c, 3, 52, 96
1, 13200, Note_on_c, 4, 40, 96
1, 13200, Note_on_c, 5, 73, 96
1, 13200, Note_on_c, 6, 52, 96
1, 13210, Note_off_c, 3, 52, 0
1, 13210, Note_off_c, 4, 40, 0
1, 13210, Note_off_c, 6, 52, 0
1, 13212, Note_on_c, 3, 54, 96
1, 13212, Note_on_c, 4, 42, 96
1, 13212, Note_on_c, 6, 54, 96
1, 13222, Note_off_c, 3, 54, 0
1, 13222, Note_off_c, 4, 42, 0
1, 13222, Note_off_c, 6, 54, 0
1, 13224, Note_off_c, 0, 73, 0
1, 13224, Note_on_c, 0, 71, 96
1, 13224, Note_on_c, 3, 52, 96
1, 13224, Note_on_c, 4, 40, 96
1, 13224, Note_off_c, 5, 73, 0
1, 13224, Note_on_c, 5, 71, 96
1, 13224, Note_on_c, 6, 52, 96
1, 13228, Note_off_c, 5, 71, 0
1, 13228, Note_on_c, 5, 73, 96
1, 13232, Note_off_c, 5, 73, 0
1, 13232, Note_on_c, 5, 71, 96
1, 13234, Note_off_c, 3, 52, 0
1, 13234, Note_off_c, 4, 40, 0
1, 13234, Note_off_c, 6, 52, 0
1, 13236, Note_on_c, 3, 50, 96
1, 13236, Note_on_c, 4, 38, 96
1, 13236, Note_off_c, 5, 71, 0
1, 13236, Note_on_c, 5, 73, 96
1, 13236, Note_on_c, 6, 50, 96
1, 13240, Note_off_c, 5, 73, 0
1, 13240, Note_on_c, 5, 71, 96
1, 13242, Note_off_c, 1, 68, 0
1, 13242, Note_off_c, 2, 64, 0
1, 13245, Note_off_c, 0, 71, 0
1, 13246, Note_off_c, 3, 50, 0
1, 13246, Note_off_c, 4, 38, 0
1, 13246, Note_off_c, 6, 50, 0
1, 13247, Note_off_c, 5, 71, 0
1, 13248, Note_on_c, 0, 76, 96
1, 13248, Note_on_c, 1, 69, 96
1, 13248, Note_on_c, 2, 64, 96
1, 13248, Note_on_c, 3, 49, 96
1, 13248, Note_on_c, 4, 37, 96
1, 13248, Note_on_c, 5, 76, 96
1, 13248, Note_on_c, 6, 49, 96
1, 13258, Note_off_c, 3, 49, 0
1, 13258, Note_off_c, 4, 37, 0
1, 13258, Note_off_c, 6, 49, 0
1, 13260, Note_on_c, 3, 47, 96
1, 13260, Note_on_c, 4, 35, 96
1, 13260, Note_on_c, 6, 47, 96
1, 13269, Note_off_c, 0, 76, 0
1, 13269, Note_off_c, 1, 69, 0
1, 13269, Note_off_c, 2, 64, 0
1, 13269, Note_off_c, 5, 76, 0
1, 13270, Note_off_c, 3, 47, 0
1, 13270, Note_off_c, 4, 35, 0
1, 13270, Note_off_c, 6, 47, 0
1, 13272, Note_on_c, 0, 81, 96
1, 13272, Note_on_c, 1, 73, 96
1, 13272, Note_on_c, 2, 64, 96
1, 13272, Note_on_c, 3, 45, 96
1, 13272, Note_on_c, 4, 33, 96
1, 13272, Note_on_c, 5, 81, 96
1, 13272, Note_on_c, 6, 45, 96
1, 13276, Note_off_c, 5, 81, 0
1, 13276, Note_on_c, 5, 80, 96
1, 13280, Note_off_c, 5, 80, 0
1, 13280, Note_on_c, 5, 81, 96
1, 13296, Note_off_c, 1, 73, 0
1, 13296, Note_on_c, 1, 73, 96
1, 13296, Note_off_c, 2, 64, 0
1, 13296, Note_on_c, 2, 64, 96
1, 13296, Note_off_c, 3, 45, 0
1, 13296, Note_on_c, 3, 45, 96
1, 13296, Note_off_c, 4, 33, 0
1, 13296, Note_on_c, 4, 33, 96
1, 13296, Note_off_c, 6, 45, 0
1, 13296, Note_on_c, 6, 45, 96
1, 13303, Note_off_c, 0, 81, 0
1, 13304, Note_off_c, 5, 81, 0
1, 13308, Note_on_c, 0, 80, 96
1, 13308, Note_on_c, 5, 80, 96
1, 13313, Note_off_c, 0, 80, 0
1, 13313, Note_off_c, 5, 80, 0
1, 13314, Note_on_c, 0, 78, 96
1, 13314, Note_on_c, 5, 78, 96
1, 13319, Note_off_c, 0, 78, 0
1, 13319, Note_off_c, 5, 78, 0
1, 13320, Note_on_c, 0, 76, 96
1, 13320, Note_off_c, 1, 73, 0
1, 13320, Note_on_c, 1, 71, 96
1, 13320, Note_off_c, 2, 64, 0
1, 13320, Note_on_c, 2, 64, 96
1, 13320, Note_off_c, 3, 45, 0
1, 13320, Note_on_c, 3, 44, 96
1, 13320, Note_off_c, 4, 33, 0
1, 13320, Note_on_c, 4, 32, 96
1, 13320, Note_on_c, 5, 76, 96
1, 13320, Note_off_c, 6, 45, 0
1, 13320, Note_on_c, 6, 44, 96
1, 13325, Note_off_c, 0, 76, 0
1, 13325, Note_off_c, 5, 76, 0
1, 13326, Note_on_c, 0, 74, 96
1, 13326, Note_on_c, 5, 74, 96
1, 13331, Note_off_c, 0, 74, 0
1, 13331, Note_off_c, 5, 74, 0
1, 13332, Note_on_c, 0, 73, 96
1, 13332, Note_on_c, 5, 73, 96
1, 13337, Note_off_c, 0, 73, 0
1, 13337, Note_off_c, 5, 73, 0
1, 13338, Note_on_c, 0, 71, 96
1, 13338, Note_on_c, 5, 71, 96
1, 13341, Note_off_c, 1, 71, 0
1, 13341, Note_off_c, 2, 64, 0
1, 13341, Note_off_c, 3, 44, 0
1, 13341, Note_off_c, 4, 32, 0
1, 13341, Note_off_c, 6, 44, 0
1, 13343, Note_off_c, 0, 71, 0
1, 13343, Note_off_c, 5, 71, 0
1, 13344, Note_on_c, 0, 73, 96
1, 13344, Note_on_c, 1, 69, 96
1, 13344, Note_on_c, 2, 64, 96
1, 13344, Note_on_c, 3, 45, 96
1, 13344, Note_on_c, 4, 33, 96
1, 13344, Note_on_c, 5, 71, 96
1, 13344, Note_on_c, 6, 45, 96
1, 13356, Note_off_c, 5, 71, 0
1, 13356, Note_on_c, 5, 73, 96
1, 13368, Note_off_c, 1, 69, 0
1, 13368, Note_on_c, 1, 69, 96
1, 13368, Note_off_c, 2, 64, 0
1, 13368, Note_on_c, 2, 64, 96
1, 13368, Note_off_c, 3, 45, 0
1, 13368, Note_on_c, 3, 45, 96
1, 13368, Note_off_c, 4, 33, 0
1, 13368, Note_on_c, 4, 33, 96
1, 13368, Note_off_c, 6, 45, 0
1, 13368, Note_on_c, 6, 45, 96
1, 13370, Note_off_c, 0, 73, 0
1, 13372, Note_off_c, 5, 73, 0
1, 13374, Note_on_c, 0, 71, 96
1, 13374, Note_on_c, 5, 71, 96
1, 13379, Note_off_c, 0, 71, 0
1, 13379, Note_off_c, 5, 71, 0
1, 13380, Note_on_c, 0, 73, 96
1, 13380, Note_on_c, 5, 73, 96
1, 13385, Note_off_c, 0, 73, 0
1, 13385, Note_off_c, 5, 73, 0
1, 13386, Note_on_c, 0, 74, 96
1, 13386, Note_on_c, 5, 74, 96
1, 13391, Note_off_c, 0, 74, 0
1, 13391, Note_off_c, 5, 74, 0
1, 13392, Note_on_c, 0, 73, 96
1, 13392, Note_off_c, 1, 69, 0
1, 13392, Note_on_c, 1, 68, 96
1, 13392, Note_off_c, 2, 64, 0
1, 13392, Note_on_c, 2, 64, 96
1, 13392, Note_off_c, 3, 45, 0
1, 13392, Note_on_c, 3, 40, 96
1, 13392, Note_off_c, 4, 33, 0
1, 13392, Note_on_c, 4, 28, 96
1, 13392, Note_on_c, 5, 73, 96
1, 13392, Note_off_c, 6, 45, 0
1, 13392, Note_on_c, 6, 40, 96
1, 13397, Note_off_c, 0, 73, 0
1, 13397, Note_off_c, 5, 73, 0
1, 13398, Note_on_c, 0, 71, 96
1, 13398, Note_on_c, 5, 71, 96
1, 13403, Note_off_c, 0, 71, 0
1, 13403, Note_off_c, 5, 71, 0
1, 13404, Note_on_c, 0, 69, 96
1, 13404, Note_on_c, 5, 69, 96
1, 13409, Note_off_c, 0, 69, 0
1, 13409, Note_off_c, 5, 69, 0
1, 13410, Note_on_c, 0, 68, 96
1, 13410, Note_on_c, 5, 68, 96
1, 13413, Note_off_c, 1, 68, 0
1, 13413, Note_off_c, 2, 64, 0
1, 13413, Note_off_c, 3, 40, 0
1, 13413, Note_off_c, 4, 28, 0
1, 13413, Note_off_c, 6, 40, 0
1, 13415, Note_off_c, 0, 68, 0
1, 13415, Note_off_c, 5, 68, 0
1, 13416, Note_on_c, 0, 69, 96
1, 13416, Note_on_c, 1, 66, 96
1, 13416, Note_on_c, 2, 61, 96
1, 13416, Note_on_c, 3, 42, 96
1, 13416, Note_on_c, 4, 30, 96
1, 13416, Note_on_c, 5, 68, 96
1, 13416, Note_on_c, 6, 42, 96
1, 13422, Note_off_c, 3, 42, 0
1, 13422, Note_off_c, 4, 30, 0
1, 13428, Note_off_c, 5, 68, 0
1, 13428, Note_on_c, 5, 69, 96
1, 13437, Note_off_c, 6, 42, 0
1, 13440, Note_off_c, 1, 66, 0
1, 13440, Note_on_c, 1, 66, 96
1, 13440, Note_off_c, 2, 61, 0
1, 13440, Note_on_c, 2, 59, 96
1, 13440, Note_on_c, 3, 38, 96
1, 13440, Note_on_c, 4, 26, 96
1, 13440, Note_on_c, 6, 38, 96
1, 13446, Note_off_c, 3, 38, 0
1, 13446, Note_off_c, 4, 26, 0
1, 13447, Note_off_c, 0, 69, 0
1, 13449, Note_off_c, 5, 69, 0
1, 13452, Note_on_c, 0, 68, 96
1, 13452, Note_on_c, 5, 68, 96
1, 13457, Note_off_c, 0, 68, 0
1, 13457, Note_off_c, 5, 68, 0
1, 13458, Note_on_c, 0, 66, 96
1, 13458, Note_on_c, 5, 66, 96
1, 13461, Note_off_c, 6, 38, 0
1, 13463, Note_off_c, 0, 66, 0
1, 13463, Note_off_c, 5, 66, 0
1, 13464, Note_on_c, 0, 64, 96
1, 13464, Note_off_c, 1, 66, 0
1, 13464, Note_on_c, 1, 68, 96
1, 13464, Note_off_c, 2, 59, 0
1, 13464, Note_on_c, 2, 59, 96
1, 13464, Note_on_c, 3, 40, 96
1, 13464, Note_on_c, 4, 28, 96
1, 13464, Note_on_c, 5, 64, 96
1, 13464, Note_on_c, 6, 40, 96
1, 13469, Note_off_c, 0, 64, 0
1, 13469, Note_off_c, 5, 64, 0
1, 13470, Note_on_c, 0, 62, 96
1, 13470, Note_off_c, 3, 40, 0
1, 13470, Note_off_c, 4, 28, 0
1, 13470, Note_on_c, 5, 62, 96
1, 13475, Note_off_c, 0, 62, 0
1, 13475, Note_off_c, 5, 62, 0
1, 13476, Note_on_c, 0, 61, 96
1, 13476, Note_on_c, 5, 61, 96
1, 13481, Note_off_c, 0, 61, 0
1, 13481, Note_off_c, 5, 61, 0
1, 13482, Note_on_c, 0, 59, 96
1, 13482, Note_on_c, 5, 59, 96
1, 13485, Note_off_c, 1, 68, 0
1, 13485, Note_off_c, 2, 59, 0
1, 13485, Note_off_c, 6, 40, 0
1, 13487, Note_off_c, 0, 59, 0
1, 13487, Note_off_c, 5, 59, 0
1, 13488, Note_on_c, 0, 57, 96
1, 13488, Note_on_c, 1, 69, 96
1, 13488, Note_on_c, 2, 61, 96
1, 13488, Note_on_c, 3, 45, 96
1, 13488, Note_on_c, 4, 33, 96
1, 13488, Note_on_c, 5, 57, 96
1, 13488, Note_on_c, 6, 45, 96
1, 13492, Note_off_c, 0, 57, 0
1, 13492, Note_on_c, 0, 59, 96
1, 13492, Note_off_c, 5, 57, 0
1, 13492, Note_on_c, 5, 59, 96
1, 13496, Note_off_c, 0, 59, 0
1, 13496, Note_on_c, 0, 57, 96
1, 13496, Note_off_c, 5, 59, 0
1, 13496, Note_on_c, 5, 57, 96
1, 13498, Note_off_c, 2, 61, 0
1, 13498, Note_off_c, 3, 45, 0
1, 13498, Note_off_c, 4, 33, 0
1, 13498, Note_off_c, 6, 45, 0
1, 13500, Note_off_c, 0, 57, 0
1, 13500, Note_on_c, 0, 59, 96
1, 13500, Note_on_c, 2, 59, 96
1, 13500, Note_on_c, 3, 44, 96
1, 13500, Note_on_c, 4, 32, 96
1, 13500, Note_off_c, 5, 57, 0
1, 13500, Note_on_c, 5, 59, 96
1, 13500, Note_on_c, 6, 44, 96
1, 13504, Note_off_c, 0, 59, 0
1, 13504, Note_on_c, 0, 57, 96
1, 13504, Note_off_c, 5, 59, 0
1, 13504, Note_on_c, 5, 57, 96
1, 13508, Note_off_c, 0, 57, 0
1, 13508, Note_on_c, 0, 59, 96
1, 13508, Note_off_c, 5, 57, 0
1, 13508, Note_on_c, 5, 59, 96
1, 13509, Note_off_c, 1, 69, 0
1, 13510, Note_off_c, 2, 59, 0
1, 13510, Note_off_c, 3, 44, 0
1, 13510, Note_off_c, 4, 32, 0
1, 13510, Note_off_c, 6, 44, 0
1, 13512, Note_off_c, 0, 59, 0
1, 13512, Note_on_c, 0, 57, 96
1, 13512, Note_on_c, 1, 64, 96
1, 13512, Note_on_c, 2, 61, 96
1, 13512, Note_on_c, 3, 45, 96
1, 13512, Note_on_c, 4, 33, 96
1, 13512, Note_off_c, 5, 59, 0
1, 13512, Note_on_c, 5, 57, 96
1, 13512, Note_on_c, 6, 45, 96
1, 13516, Note_off_c, 0, 57, 0
1, 13516, Note_on_c, 0, 59, 96
1, 13516, Note_off_c, 5, 57, 0
1, 13516, Note_on_c, 5, 59, 96
1, 13520, Note_off_c, 0, 59, 0
1, 13520, Note_on_c, 0, 57, 96
1, 13520, Note_off_c, 5, 59, 0
1, 13520, Note_on_c, 5, 57, 96
1, 13522, Note_off_c, 2, 61, 0
1, 13522, Note_off_c, 3, 45, 0
1, 13522, Note_off_c, 4, 33, 0
1, 13522, Note_off_c, 6, 45, 0
1, 13524, Note_on_c, 2, 62, 96
1, 13524, Note_on_c, 3, 47, 96
1, 13524, Note_on_c, 4, 35, 96
1, 13524, Note_on_c, 6, 47, 96
1, 13533, Note_off_c, 1, 64, 0
1, 13534, Note_off_c, 0, 57, 0
1, 13534, Note_off_c, 2, 62, 0
1, 13534, Note_off_c, 3, 47, 0
1, 13534, Note_off_c, 4, 35, 0
1, 13534, Note_off_c, 5, 57, 0
1, 13534, Note_off_c, 6, 47, 0
1, 13536, Note_on_c, 0, 76, 96
1, 13536, Note_on_c, 1, 69, 96
1, 13536, Note_on_c, 2, 64, 96
1, 13536, Note_on_c, 3, 49, 96
1, 13536, Note_on_c, 4, 37, 96
1, 13536, Note_on_c, 5, 76, 96
1, 13536, Note_on_c, 6, 49, 96
1, 13546, Note_off_c, 2, 64, 0
1, 13546, Note_off_c, 3, 49, 0
1, 13546, Note_off_c, 4, 37, 0
1, 13546, Note_off_c, 6, 49, 0
1, 13548, Note_on_c, 2, 61, 96
1, 13548, Note_on_c, 3, 45, 96
1, 13548, Note_on_c, 4, 33, 96
1, 13548, Note_on_c, 6, 45, 96
1, 13557, Note_off_c, 0, 76, 0
1, 13557, Note_off_c, 1, 69, 0
1, 13557, Note_off_c, 5, 76, 0
1, 13558, Note_off_c, 2, 61, 0
1, 13558, Note_off_c, 3, 45, 0
1, 13558, Note_off_c, 4, 33, 0
1, 13558, Note_off_c, 6, 45, 0
1, 13560, Note_on_c, 0, 78, 96
1, 13560, Note_on_c, 1, 69, 96
1, 13560, Note_on_c, 2, 62, 96
1, 13560, Note_on_c, 3, 50, 96
1, 13560, Note_on_c, 4, 38, 96
1, 13560, Note_on_c, 5, 78, 96
1, 13560, Note_on_c, 6, 50, 96
1, 13566, Note_off_c, 1, 69, 0
1, 13566, Note_off_c, 2, 62, 0
1, 13572, Note_off_c, 0, 78, 0
1, 13572, Note_on_c, 0, 73, 96
1, 13572, Note_off_c, 5, 78, 0
1, 13572, Note_on_c, 5, 73, 96
1, 13581, Note_off_c, 3, 50, 0
1, 13581, Note_off_c, 4, 38, 0
1, 13581, Note_off_c, 6, 50, 0
1, 13584, Note_off_c, 0, 73, 0
1, 13584, Note_on_c, 0, 74, 96
1, 13584, Note_on_c, 1, 71, 96
1, 13584, Note_on_c, 2, 66, 96
1, 13584, Note_on_c, 3, 38, 96
1, 13584, Note_on_c, 4, 26, 96
1, 13584, Note_off_c, 5, 73, 0
1, 13584, Note_on_c, 5, 74, 96
1, 13584, Note_on_c, 6, 38, 96
1, 13590, Note_off_c, 1, 71, 0
1, 13590, Note_off_c, 2, 66, 0
1, 13594, Note_off_c, 0, 74, 0
1, 13594, Note_off_c, 5, 74, 0
1, 13596, Note_on_c, 0, 78, 96
1, 13596, Note_on_c, 5, 78, 96
1, 13605, Note_off_c, 3, 38, 0
1, 13605, Note_off_c, 4, 26, 0
1, 13605, Note_off_c, 6, 38, 0
1, 13606, Note_off_c, 0, 78, 0
1, 13606, Note_off_c, 5, 78, 0
1, 13608, Note_on_c, 0, 71, 96
1, 13608, Note_on_c, 3, 50, 96
1, 13608, Note_on_c, 4, 38, 96
1, 13608, Note_on_c, 5, 71, 96
1, 13608, Note_on_c, 6, 50, 96
1, 13618, Note_off_c, 0, 71, 0
1, 13618, Note_off_c, 5, 71, 0
1, 13620, Note_on_c, 0, 74, 96
1, 13620, Note_on_c, 5, 74, 96
1, 13629, Note_off_c, 3, 50, 0
1, 13629, Note_off_c, 4, 38, 0
1, 13629, Note_off_c, 6, 50, 0
1, 13630, Note_off_c, 0, 74, 0
1, 13630, Note_off_c, 5, 74, 0
1, 13632, Note_on_c, 0, 80, 96
1, 13632, Note_on_c, 1, 76, 96
1, 13632, Note_on_c, 2, 59, 96
1, 13632, Note_on_c, 3, 52, 96
1, 13632, Note_on_c, 4, 40, 96
1, 13632, Note_on_c, 5, 80, 96
1, 13632, Note_on_c, 6, 52, 96
1, 13638, Note_off_c, 1, 76, 0
1, 13638, Note_off_c, 2, 59, 0
1, 13644, Note_off_c, 0, 80, 0
1, 13644, Note_on_c, 0, 73, 96
1, 13644, Note_off_c, 5, 80, 0
1, 13644, Note_on_c, 5, 73, 96
1, 13653, Note_off_c, 3, 52, 0
1, 13653, Note_off_c, 4, 40, 0
1, 13653, Note_off_c, 6, 52, 0
1, 13656, Note_off_c, 0, 73, 0
1, 13656, Note_on_c, 0, 74, 96
1, 13656, Note_on_c, 1, 71, 96
1, 13656, Note_on_c, 2, 68, 96
1, 13656, Note_on_c, 3, 40, 96
1, 13656, Note_on_c, 4, 28, 96
1, 13656, Note_off_c, 5, 73, 0
1, 13656, Note_on_c, 5, 74, 96
1, 13656, Note_on_c, 6, 40, 96
1, 13662, Note_off_c, 1, 71, 0
1, 13662, Note_off_c, 2, 68, 0
1, 13666, Note_off_c, 0, 74, 0
1, 13666, Note_off_c, 5, 74, 0
1, 13668, Note_on_c, 0, 78, 96
1, 13668, Note_on_c, 5, 78, 96
1, 13677, Note_off_c, 3, 40, 0
1, 13677, Note_off_c, 4, 28, 0
1, 13677, Note_off_c, 6, 40, 0
1, 13678, Note_off_c, 0, 78, 0
1, 13678, Note_off_c, 5, 78, 0
1, 13680, Note_on_c, 0, 71, 96
1, 13680, Note_on_c, 3, 52, 96
1, 13680, Note_on_c, 4, 40, 96
1, 13680, Note_on_c, 5, 71, 96
1, 13680, Note_on_c, 6, 52, 96
1, 13690, Note_off_c, 0, 71, 0
1, 13690, Note_off_c, 5, 71, 0
1, 13692, Note_on_c, 0, 74, 96
1, 13692, Note_on_c, 5, 74, 96
1, 13701, Note_off_c, 3, 52, 0
1, 13701, Note_off_c, 4, 40, 0
1, 13701, Note_off_c, 6, 52, 0
1, 13702, Note_off_c, 0, 74, 0
1, 13702, Note_off_c, 5, 74, 0
1, 13704, Note_on_c, 0, 81, 96
1, 13704, Note_on_c, 1, 66, 96
1, 13704, Note_on_c, 2, 73, 96
1, 13704, Note_on_c, 3, 54, 96
1, 13704, Note_on_c, 4, 42, 96
1, 13704, Note_on_c, 5, 81, 96
1, 13704, Note_on_c, 6, 54, 96
1, 13710, Note_off_c, 1, 66, 0
1, 13710, Note_off_c, 2, 73, 0
1, 13716, Note_off_c, 0, 81, 0
1, 13716, Note_on_c, 0, 73, 96
1, 13716, Note_off_c, 5, 81, 0
1, 13716, Note_on_c, 5, 73, 96
1, 13725, Note_off_c, 3, 54, 0
1, 13725, Note_off_c, 4, 42, 0
1, 13725, Note_off_c, 6, 54, 0
1, 13728, Note_off_c, 0, 73, 0
1, 13728, Note_on_c, 0, 74, 96
1, 13728, Note_on_c, 1, 69, 96
1, 13728, Note_on_c, 2, 66, 96
1, 13728, Note_on_c, 3, 42, 96
1, 13728, Note_on_c, 4, 30, 96
1, 13728, Note_off_c, 5, 73, 0
1, 13728, Note_on_c, 5, 74, 96
1, 13728, Note_on_c, 6, 42, 96
1, 13734, Note_off_c, 1, 69, 0
1, 13734, Note_off_c, 2, 66, 0
1, 13738, Note_off_c, 0, 74, 0
1, 13738, Note_off_c, 5, 74, 0
1, 13740, Note_on_c, 0, 78, 96
1, 13740, Note_on_c, 5, 78, 96
1, 13749, Note_off_c, 3, 42, 0
1, 13749, Note_off_c, 4, 30, 0
1, 13749, Note_off_c, 6, 42, 0
1, 13750, Note_off_c, 0, 78, 0
1, 13750, Note_off_c, 5, 78, 0
1, 13752, Note_on_c, 0, 71, 96
1, 13752, Note_on_c, 3, 54, 96
1, 13752, Note_on_c, 4, 42, 96
1, 13752, Note_on_c, 5, 71, 96
1, 13752, Note_on_c, 6, 54, 96
1, 13762, Note_off_c, 0, 71, 0
1, 13762, Note_off_c, 5, 71, 0
1, 13764, Note_on_c, 0, 74, 96
1, 13764, Note_on_c, 5, 74, 96
1, 13773, Note_off_c, 3, 54, 0
1, 13773, Note_off_c, 4, 42, 0
1, 13773, Note_off_c, 6, 54, 0
1, 13774, Note_off_c, 0, 74, 0
1, 13774, Note_off_c, 5, 74, 0
1, 13776, Note_on_c, 0, 83, 96
1, 13776, Note_on_c, 1, 76, 96
1, 13776, Note_on_c, 2, 59, 96
1, 13776, Note_on_c, 3, 56, 96
1, 13776, Note_on_c, 4, 44, 96
1, 13776, Note_on_c, 5, 74, 96
1, 13776, Note_on_c, 6, 56, 96
1, 13782, Note_off_c, 1, 76, 0
1, 13782, Note_off_c, 2, 59, 0
1, 13788, Note_off_c, 5, 74, 0
1, 13788, Note_on_c, 5, 83, 96
1, 13797, Note_off_c, 3, 56, 0
1, 13797, Note_off_c, 4, 44, 0
1, 13797, Note_off_c, 6, 56, 0
1, 13800, Note_on_c, 1, 71, 96
1, 13800, Note_on_c, 2, 64, 96
1, 13800, Note_on_c, 3, 44, 96
1, 13800, Note_on_c, 4, 32, 96
1, 13800, Note_on_c, 6, 44, 96
1, 13802, Note_off_c, 0, 83, 0
1, 13804, Note_off_c, 5, 83, 0
1, 13806, Note_on_c, 0, 81, 96
1, 13806, Note_off_c, 1, 71, 0
1, 13806, Note_off_c, 2, 64, 0
1, 13806, Note_on_c, 5, 81, 96
1, 13811, Note_off_c, 0, 81, 0
1, 13811, Note_off_c, 5, 81, 0
1, 13812, Note_on_c, 0, 80, 96
1, 13812, Note_on_c, 5, 80, 96
1, 13817, Note_off_c, 0, 80, 0
1, 13817, Note_off_c, 5, 80, 0
1, 13818, Note_on_c, 0, 78, 96
1, 13818, Note_on_c, 5, 78, 96
1, 13821, Note_off_c, 3, 44, 0
1, 13821, Note_off_c, 4, 32, 0
1, 13821, Note_off_c, 6, 44, 0
1, 13823, Note_off_c, 0, 78, 0
1, 13823, Note_off_c, 5, 78, 0
1, 13824, Note_on_c, 0, 76, 96
1, 13824, Note_on_c, 1, 71, 96
1, 13824, Note_on_c, 2, 64, 96
1, 13824, Note_on_c, 3, 56, 96
1, 13824, Note_on_c, 4, 44, 96
1, 13824, Note_on_c, 5, 76, 96
1, 13824, Note_on_c, 6, 56, 96
1, 13829, Note_off_c, 0, 76, 0
1, 13829, Note_off_c, 5, 76, 0
1, 13830, Note_on_c, 0, 74, 96
1, 13830, Note_off_c, 1, 71, 0
1, 13830, Note_off_c, 2, 64, 0
1, 13830, Note_on_c, 5, 74, 96
1, 13835, Note_off_c, 0, 74, 0
1, 13835, Note_off_c, 5, 74, 0
1, 13836, Note_on_c, 0, 73, 96
1, 13836, Note_on_c, 5, 73, 96
1, 13841, Note_off_c, 0, 73, 0
1, 13841, Note_off_c, 5, 73, 0
1, 13842, Note_on_c, 0, 71, 96
1, 13842, Note_on_c, 5, 71, 96
1, 13845, Note_off_c, 3, 56, 0
1, 13845, Note_off_c, 4, 44, 0
1, 13845, Note_off_c, 6, 56, 0
1, 13847, Note_off_c, 0, 71, 0
1, 13847, Note_off_c, 5, 71, 0
1, 13848, Note_on_c, 0, 73, 96
1, 13848, Note_on_c, 1, 69, 96
1, 13848, Note_on_c, 2, 64, 96
1, 13848, Note_on_c, 3, 57, 96
1, 13848, Note_on_c, 4, 45, 96
1, 13848, Note_on_c, 5, 73, 96
1, 13848, Note_on_c, 6, 57, 96
1, 13860, Note_off_c, 0, 73, 0
1, 13860, Note_on_c, 0, 76, 96
1, 13860, Note_off_c, 5, 73, 0
1, 13860, Note_on_c, 5, 76, 96
1, 13872, Note_off_c, 0, 76, 0
1, 13872, Note_on_c, 0, 80, 96
1, 13872, Note_off_c, 1, 69, 0
1, 13872, Note_on_c, 1, 71, 96
1, 13872, Note_off_c, 2, 64, 0
1, 13872, Note_on_c, 2, 62, 96
1, 13872, Note_off_c, 3, 57, 0
1, 13872, Note_on_c, 3, 57, 96
1, 13872, Note_off_c, 4, 45, 0
1, 13872, Note_on_c, 4, 45, 96
1, 13872, Note_off_c, 5, 76, 0
1, 13872, Note_on_c, 5, 80, 96
1, 13872, Note_off_c, 6, 57, 0
1, 13872, Note_on_c, 6, 57, 96
1, 13882, Note_off_c, 0, 80, 0
1, 13882, Note_off_c, 5, 80, 0
1, 13884, Note_on_c, 0, 83, 96
1, 13884, Note_on_c, 5, 83, 96
1, 13894, Note_off_c, 0, 83, 0
1, 13894, Note_off_c, 5, 83, 0
1, 13896, Note_on_c, 0, 81, 96
1, 13896, Note_off_c, 1, 71, 0
1, 13896, Note_on_c, 1, 73, 96
1, 13896, Note_off_c, 2, 62, 0
1, 13896, Note_on_c, 2, 64, 96
1, 13896, Note_off_c, 3, 57, 0
1, 13896, Note_on_c, 3, 57, 96
1, 13896, Note_off_c, 4, 45, 0
1, 13896, Note_on_c, 4, 45, 96
1, 13896, Note_on_c, 5, 81, 96
1, 13896, Note_off_c, 6, 57, 0
1, 13896, Note_on_c, 6, 57, 96
1, 13906, Note_off_c, 0, 81, 0
1, 13906, Note_off_c, 5, 81, 0
1, 13908, Note_on_c, 0, 78, 96
1, 13908, Note_on_c, 5, 78, 96
1, 13917, Note_off_c, 1, 73, 0
1, 13917, Note_off_c, 2, 64, 0
1, 13917, Note_off_c, 3, 57, 0
1, 13917, Note_off_c, 4, 45, 0
1, 13917, Note_off_c, 6, 57, 0
1, 13918, Note_off_c, 0, 78, 0
1, 13918, Note_off_c, 5, 78, 0
1, 13920, Note_on_c, 0, 75, 96
1, 13920, Note_on_c, 1, 71, 96
1, 13920, Note_on_c, 2, 66, 96
1, 13920, Note_on_c, 3, 57, 96
1, 13920, Note_on_c, 4, 45, 96
1, 13920, Note_on_c, 5, 75, 96
1, 13920, Note_on_c, 6, 57, 96
1, 13932, Note_off_c, 0, 75, 0
1, 13932, Note_on_c, 0, 76, 96
1, 13932, Note_off_c, 5, 75, 0
1, 13932, Note_on_c, 5, 76, 96
1, 13938, Note_off_c, 0, 76, 0
1, 13938, Note_on_c, 0, 78, 96
1, 13938, Note_off_c, 5, 76, 0
1, 13938, Note_on_c, 5, 78, 96
1, 13941, Note_off_c, 1, 71, 0
1, 13941, Note_off_c, 2, 66, 0
1, 13941, Note_off_c, 3, 57, 0
1, 13941, Note_off_c, 4, 45, 0
1, 13941, Note_off_c, 6, 57, 0
1, 13943, Note_off_c, 0, 78, 0
1, 13943, Note_off_c, 5, 78, 0
1, 13944, Note_on_c, 0, 76, 96
1, 13944, Note_on_c, 1, 71, 96
1, 13944, Note_on_c, 2, 59, 96
1, 13944, Note_on_c, 3, 56, 96
1, 13944, Note_on_c, 4, 44, 96
1, 13944, Note_on_c, 5, 76, 96
1, 13944, Note_on_c, 6, 56, 96
1, 13954, Note_off_c, 1, 71, 0
1, 13954, Note_off_c, 3, 56, 0
1, 13954, Note_off_c, 4, 44, 0
1, 13954, Note_off_c, 6, 56, 0
1, 13956, Note_on_c, 1, 69, 96
1, 13956, Note_on_c, 3, 54, 96
1, 13956, Note_on_c, 4, 42, 96
1, 13956, Note_on_c, 6, 54, 96
1, 13965, Note_off_c, 2, 59, 0
1, 13966, Note_off_c, 1, 69, 0
1, 13966, Note_off_c, 3, 54, 0
1, 13966, Note_off_c, 4, 42, 0
1, 13966, Note_off_c, 6, 54, 0
1, 13968, Note_on_c, 1, 71, 96
1, 13968, Note_on_c, 2, 64, 96
1, 13968, Note_on_c, 3, 56, 96
1, 13968, Note_on_c, 4, 44, 96
1, 13968, Note_on_c, 6, 56, 96
1, 13975, Note_off_c, 0, 76, 0
1, 13975, Note_off_c, 5, 76, 0
1, 13978, Note_off_c, 1, 71, 0
1, 13978, Note_off_c, 3, 56, 0
1, 13978, Note_off_c, 4, 44, 0
1, 13978, Note_off_c, 6, 56, 0
1, 13980, Note_on_c, 0, 74, 96
1, 13980, Note_on_c, 1, 68, 96
1, 13980, Note_on_c, 3, 52, 96
1, 13980, Note_on_c, 4, 40, 96
1, 13980, Note_on_c, 5, 74, 96
1, 13980, Note_on_c, 6, 52, 96
1, 13989, Note_off_c, 2, 64, 0
1, 13990, Note_off_c, 0, 74, 0
1, 13990, Note_off_c, 1, 68, 0
1, 13990, Note_off_c, 3, 52, 0
1, 13990, Note_off_c, 4, 40, 0
1, 13990, Note_off_c, 5, 74, 0
1, 13990, Note_off_c, 6, 52, 0
1, 13992, Note_on_c, 0, 73, 96
1, 13992, Note_on_c, 1, 69, 96
1, 13992, Note_on_c, 2, 64, 96
1, 13992, Note_on_c, 3, 57, 96
1, 13992, Note_on_c, 4, 45, 96
1, 13992, Note_on_c, 5, 73, 96
1, 13992, Note_on_c, 6, 57, 96
1, 14004, Note_off_c, 0, 73, 0
1, 14004, Note_on_c, 0, 69, 96
1, 14004, Note_off_c, 5, 73, 0
1, 14004, Note_on_c, 5, 69, 96
1, 14013, Note_off_c, 3, 57, 0
1, 14013, Note_off_c, 4, 45, 0
1, 14013, Note_off_c, 6, 57, 0
1, 14016, Note_off_c, 0, 69, 0
1, 14016, Note_on_c, 0, 68, 96
1, 14016, Note_off_c, 1, 69, 0
1, 14016, Note_on_c, 1, 62, 96
1, 14016, Note_off_c, 2, 64, 0
1, 14016, Note_on_c, 2, 64, 96
1, 14016, Note_on_c, 3, 45, 96
1, 14016, Note_on_c, 4, 33, 96
1, 14016, Note_off_c, 5, 69, 0
1, 14016, Note_on_c, 5, 68, 96
1, 14016, Note_on_c, 6, 45, 96
1, 14026, Note_off_c, 0, 68, 0
1, 14026, Note_off_c, 5, 68, 0
1, 14028, Note_on_c, 0, 71, 96
1, 14028, Note_on_c, 5, 71, 96
1, 14037, Note_off_c, 1, 62, 0
1, 14037, Note_off_c, 6, 45, 0
1, 14038, Note_off_c, 0, 71, 0
1, 14038, Note_off_c, 5, 71, 0
1, 14040, Note_on_c, 0, 69, 96
1, 14040, Note_on_c, 1, 61, 96
1, 14040, Note_off_c, 2, 64, 0
1, 14040, Note_on_c, 2, 64, 96
1, 14040, Note_off_c, 3, 45, 0
1, 14040, Note_on_c, 3, 45, 96
1, 14040, Note_off_c, 4, 33, 0
1, 14040, Note_on_c, 4, 33, 96
1, 14040, Note_on_c, 5, 69, 96
1, 14040, Note_on_c, 6, 45, 96
1, 14050, Note_off_c, 0, 69, 0
1, 14050, Note_off_c, 5, 69, 0
1, 14052, Note_on_c, 0, 66, 96
1, 14052, Note_on_c, 5, 66, 96
1, 14061, Note_off_c, 1, 61, 0
1, 14061, Note_off_c, 2, 64, 0
1, 14061, Note_off_c, 3, 45, 0
1, 14061, Note_off_c, 4, 33, 0
1, 14061, Note_off_c, 6, 45, 0
1, 14062, Note_off_c, 0, 66, 0
1, 14062, Note_off_c, 5, 66, 0
1, 14064, Note_on_c, 0, 63, 96
1, 14064, Note_on_c, 1, 59, 96
1, 14064, Note_on_c, 2, 66, 96
1, 14064, Note_on_c, 3, 45, 96
1, 14064, Note_on_c, 4, 33, 96
1, 14064, Note_on_c, 5, 63, 96
1, 14064, Note_on_c, 6, 45, 96
1, 14076, Note_off_c, 0, 63, 0
1, 14076, Note_on_c, 0, 64, 96
1, 14076, Note_off_c, 5, 63, 0
1, 14076, Note_on_c, 5, 64, 96
1, 14082, Note_off_c, 0, 64, 0
1, 14082, Note_on_c, 0, 66, 96
1, 14082, Note_off_c, 5, 64, 0
1, 14082, Note_on_c, 5, 66, 96
1, 14085, Note_off_c, 2, 66, 0
1, 14085, Note_off_c, 3, 45, 0
1, 14085, Note_off_c, 4, 33, 0
1, 14085, Note_off_c, 6, 45, 0
1, 14087, Note_off_c, 0, 66, 0
1, 14087, Note_off_c, 5, 66, 0
1, 14088, Note_on_c, 0, 64, 96
1, 14088, Note_off_c, 1, 59, 0
1, 14088, Note_on_c, 1, 59, 96
1, 14088, Note_on_c, 2, 59, 96
1, 14088, Note_on_c, 3, 44, 96
1, 14088, Note_on_c, 4, 32, 96
1, 14088, Note_on_c, 5, 64, 96
1, 14088, Note_on_c, 6, 44, 96
1, 14098, Note_off_c, 6, 44, 0
1, 14100, Note_off_c, 3, 44, 0
1, 14100, Note_on_c, 3, 42, 96
1, 14100, Note_off_c, 4, 32, 0
1, 14100, Note_on_c, 4, 30, 96
1, 14100, Note_on_c, 6, 42, 96
1, 14109, Note_off_c, 2, 59, 0
1, 14110, Note_off_c, 6, 42, 0
1, 14112, Note_off_c, 1, 59, 0
1, 14112, Note_on_c, 1, 59, 96
1, 14112, Note_on_c, 2, 56, 96
1, 14112, Note_off_c, 3, 42, 0
1, 14112, Note_on_c, 3, 40, 96
1, 14112, Note_off_c, 4, 30, 0
1, 14112, Note_on_c, 4, 28, 96
1, 14112, Note_on_c, 6, 40, 96
1, 14119, Note_off_c, 0, 64, 0
1, 14119, Note_off_c, 5, 64, 0
1, 14122, Note_off_c, 6, 40, 0
1, 14124, Note_on_c, 0, 66, 96
1, 14124, Note_off_c, 3, 40, 0
1, 14124, Note_on_c, 3, 38, 96
1, 14124, Note_off_c, 4, 28, 0
1, 14124, Note_on_c, 4, 26, 96
1, 14124, Note_on_c, 5, 66, 96
1, 14124, Note_on_c, 6, 38, 96
1, 14129, Note_off_c, 0, 66, 0
1, 14129, Note_off_c, 5, 66, 0
1, 14130, Note_on_c, 0, 68, 96
1, 14130, Note_on_c, 5, 68, 96
1, 14133, Note_off_c, 1, 59, 0
1, 14133, Note_off_c, 2, 56, 0
1, 14134, Note_off_c, 3, 38, 0
1, 14134, Note_off_c, 4, 26, 0
1, 14134, Note_off_c, 6, 38, 0
1, 14135, Note_off_c, 0, 68, 0
1, 14135, Note_off_c, 5, 68, 0
1, 14136, Note_on_c, 0, 69, 96
1, 14136, Note_on_c, 1, 64, 96
1, 14136, Note_on_c, 2, 52, 96
1, 14136, Note_on_c, 3, 37, 96
1, 14136, Note_on_c, 4, 25, 96
1, 14136, Note_on_c, 5, 69, 96
1, 14136, Note_on_c, 6, 37, 96
1, 14142, Note_off_c, 1, 64, 0
1, 14142, Note_off_c, 2, 52, 0
1, 14148, Note_off_c, 0, 69, 0
1, 14148, Note_on_c, 0, 71, 96
1, 14148, Note_off_c, 5, 69, 0
1, 14148, Note_on_c, 5, 71, 96
1, 14154, Note_off_c, 0, 71, 0
1, 14154, Note_on_c, 0, 73, 96
1, 14154, Note_off_c, 5, 71, 0
1, 14154, Note_on_c, 5, 73, 96
1, 14157, Note_off_c, 3, 37, 0
1, 14157, Note_off_c, 4, 25, 0
1, 14157, Note_off_c, 6, 37, 0
1, 14159, Note_off_c, 0, 73, 0
1, 14159, Note_off_c, 5, 73, 0
1, 14160, Note_on_c, 0, 74, 96
1, 14160, Note_on_c, 1, 66, 96
1, 14160, Note_on_c, 2, 57, 96
1, 14160, Note_on_c, 3, 42, 96
1, 14160, Note_on_c, 4, 30, 96
1, 14160, Note_on_c, 5, 74, 96
1, 14160, Note_on_c, 6, 42, 96
1, 14166, Note_off_c, 1, 66, 0
1, 14166, Note_off_c, 2, 57, 0
1, 14181, Note_off_c, 3, 42, 0
1, 14181, Note_off_c, 4, 30, 0
1, 14181, Note_off_c, 6, 42, 0
1, 14184, Note_on_c, 1, 64, 96
1, 14184, Note_on_c, 2, 59, 96
1, 14184, Note_on_c, 3, 44, 96
1, 14184, Note_on_c, 4, 32, 96
1, 14184, Note_on_c, 6, 44, 96
1, 14190, Note_off_c, 1, 64, 0
1, 14190, Note_off_c, 2, 59, 0
1, 14191, Note_off_c, 0, 74, 0
1, 14191, Note_off_c, 5, 74, 0
1, 14196, Note_on_c, 0, 73, 96
1, 14196, Note_on_c, 5, 73, 96
1, 14201, Note_off_c, 0, 73, 0
1, 14201, Note_off_c, 5, 73, 0
1, 14202, Note_on_c, 0, 71, 96
1, 14202, Note_on_c, 5, 71, 96
1, 14205, Note_off_c, 3, 44, 0
1, 14205, Note_off_c, 4, 32, 0
1, 14205, Note_off_c, 6, 44, 0
1, 14207, Note_off_c, 0, 71, 0
1, 14207, Note_off_c, 5, 71, 0
1, 14208, Note_on_c, 0, 73, 96
1, 14208, Note_on_c, 1, 64, 96
1, 14208, Note_on_c, 2, 57, 96
1, 14208, Note_on_c, 3, 45, 96
1, 14208, Note_on_c, 4, 33, 96
1, 14208, Note_on_c, 5, 73, 96
1, 14208, Note_on_c, 6, 45, 96
1, 14214, Note_off_c, 1, 64, 0
1, 14214, Note_off_c, 2, 57, 0
1, 14220, Note_off_c, 0, 73, 0
1, 14220, Note_on_c, 0, 74, 96
1, 14220, Note_off_c, 5, 73, 0
1, 14220, Note_on_c, 5, 74, 96
1, 14226, Note_off_c, 0, 74, 0
1, 14226, Note_on_c, 0, 76, 96
1, 14226, Note_off_c, 5, 74, 0
1, 14226, Note_on_c, 5, 76, 96
1, 14229, Note_off_c, 3, 45, 0
1, 14229, Note_off_c, 4, 33, 0
1, 14229, Note_off_c, 6, 45, 0
1, 14231, Note_off_c, 0, 76, 0
1, 14231, Note_off_c, 5, 76, 0
1, 14232, Note_on_c, 0, 78, 96
1, 14232, Note_on_c, 1, 62, 96
1, 14232, Note_on_c, 2, 57, 96
1, 14232, Note_on_c, 3, 38, 96
1, 14232, Note_on_c, 4, 26, 96
1, 14232, Note_on_c, 5, 78, 96
1, 14232, Note_on_c, 6, 38, 96
1, 14238, Note_off_c, 1, 62, 0
1, 14238, Note_off_c, 2, 57, 0
1, 14253, Note_off_c, 3, 38, 0
1, 14253, Note_off_c, 4, 26, 0
1, 14253, Note_off_c, 6, 38, 0
1, 14256, Note_on_c, 1, 69, 96
1, 14256, Note_on_c, 2, 62, 96
1, 14256, Note_on_c, 3, 50, 96
1, 14256, Note_on_c, 4, 38, 96
1, 14256, Note_on_c, 6, 50, 96
1, 14262, Note_off_c, 1, 69, 0
1, 14262, Note_off_c, 2, 62, 0
1, 14263, Note_off_c, 0, 78, 0
1, 14263, Note_off_c, 5, 78, 0
1, 14268, Note_on_c, 0, 76, 96
1, 14268, Note_on_c, 5, 76, 96
1, 14273, Note_off_c, 0, 76, 0
1, 14273, Note_off_c, 5, 76, 0
1, 14274, Note_on_c, 0, 74, 96
1, 14274, Note_on_c, 5, 74, 96
1, 14277, Note_off_c, 3, 50, 0
1, 14277, Note_off_c, 4, 38, 0
1, 14277, Note_off_c, 6, 50, 0
1, 14279, Note_off_c, 0, 74, 0
1, 14279, Note_off_c, 5, 74, 0
1, 14280, Note_on_c, 0, 76, 96
1, 14280, Note_on_c, 1, 69, 96
1, 14280, Note_on_c, 2, 61, 96
1, 14280, Note_on_c, 3, 57, 96
1, 14280, Note_on_c, 4, 45, 96
1, 14280, Note_on_c, 5, 76, 96
1, 14280, Note_on_c, 6, 57, 96
1, 14286, Note_off_c, 1, 69, 0
1, 14286, Note_off_c, 2, 61, 0
1, 14292, Note_off_c, 0, 76, 0
1, 14292, Note_on_c, 0, 78, 96
1, 14292, Note_off_c, 5, 76, 0
1, 14292, Note_on_c, 5, 78, 96
1, 14298, Note_off_c, 0, 78, 0
1, 14298, Note_on_c, 0, 80, 96
1, 14298, Note_off_c, 5, 78, 0
1, 14298, Note_on_c, 5, 80, 96
1, 14301, Note_off_c, 3, 57, 0
1, 14301, Note_off_c, 4, 45, 0
1, 14301, Note_off_c, 6, 57, 0
1, 14303, Note_off_c, 0, 80, 0
1, 14303, Note_off_c, 5, 80, 0
1, 14304, Note_on_c, 0, 81, 96
1, 14304, Note_on_c, 1, 69, 96
1, 14304, Note_on_c, 2, 64, 96
1, 14304, Note_on_c, 3, 49, 96
1, 14304, Note_on_c, 4, 37, 96
1, 14304, Note_on_c, 5, 81, 96
1, 14304, Note_on_c, 6, 49, 96
1, 14310, Note_off_c, 0, 81, 0
1, 14310, Note_off_c, 1, 69, 0
1, 14310, Note_off_c, 2, 64, 0
1, 14310, Note_off_c, 5, 81, 0
1, 14325, Note_off_c, 3, 49, 0
1, 14325, Note_off_c, 4, 37, 0
1, 14325, Note_off_c, 6, 49, 0
1, 14328, Note_on_c, 0, 73, 96
1, 14328, Note_on_c, 1, 68, 96
1, 14328, Note_on_c, 2, 64, 96
1, 14328, Note_on_c, 3, 52, 96
1, 14328, Note_on_c, 4, 40, 96
1, 14328, Note_on_c, 5, 73, 96
1, 14328, Note_on_c, 6, 52, 96
1, 14332, Note_off_c, 0, 73, 0
1, 14332, Note_on_c, 0, 71, 96
1, 14332, Note_off_c, 5, 73, 0
1, 14332, Note_on_c, 5, 71, 96
1, 14334, Note_off_c, 1, 68, 0
1, 14334, Note_off_c, 2, 64, 0
1, 14336, Note_off_c, 0, 71, 0
1, 14336, Note_on_c, 0, 73, 96
1, 14336, Note_off_c, 5, 71, 0
1, 14336, Note_on_c, 5, 69, 96
1, 14340, Note_off_c, 0, 73, 0
1, 14340, Note_on_c, 0, 71, 96
1, 14340, Note_off_c, 5, 69, 0
1, 14340, Note_on_c, 5, 71, 96
1, 14349, Note_off_c, 3, 52, 0
1, 14349, Note_off_c, 4, 40, 0
1, 14349, Note_off_c, 6, 52, 0
1, 14350, Note_off_c, 0, 71, 0
1, 14350, Note_off_c, 5, 71, 0
1, 14352, Note_on_c, 0, 69, 96
1, 14352, Note_on_c, 1, 64, 96
1, 14352, Note_on_c, 2, 61, 96
1, 14352, Note_on_c, 3, 45, 96
1, 14352, Note_on_c, 4, 33, 96
1, 14352, Note_on_c, 5, 69, 96
1, 14352, Note_on_c, 6, 45, 96
1, 14400, Note_off_c, 0, 69, 0
1, 14400, Note_off_c, 1, 64, 0
1, 14400, Note_off_c, 2, 61, 0
1, 14400, Note_off_c, 3, 45, 0
1, 14400, Note_off_c, 4, 33, 0
1, 14400, Note_off_c, 5, 69, 0
1, 14400, Note_off_c, 6, 45, 0
1, 14688, End_track
0, 0, End_of_file
