0, 0, Header, 1, 5, 1024
1, 0, Start_track
1, 0, Time_signature, 4, 2, 24, 8
1, 0, Key_signature, 1, "minor"
1, 0, Tempo, 625000
1, 32768, Time_signature, 2, 2, 24, 8
1, 34816, Time_signature, 4, 2, 24, 8
1, 43009, End_track
2, 0, Start_track
2, 0, Title_t, "Instrument 1"
2, 0, Note_on_c, 0, 71, 96
2, 2048, Note_off_c, 0, 71, 0
2, 2048, Note_on_c, 0, 74, 96
2, 4096, Note_off_c, 0, 74, 0
2, 4096, Note_on_c, 0, 71, 96
2, 5120, Note_off_c, 0, 71, 0
2, 5120, Note_on_c, 0, 71, 96
2, 6144, Note_off_c, 0, 71, 0
2, 6144, Note_on_c, 0, 71, 96
2, 7168, Note_off_c, 0, 71, 0
2, 7168, Note_on_c, 0, 71, 96
2, 8192, Note_off_c, 0, 71, 0
2, 8192, Note_on_c, 0, 72, 96
2, 10240, Note_off_c, 0, 72, 0
2, 10240, Note_on_c, 0, 71, 96
2, 12288, Note_off_c, 0, 71, 0
2, 12288, Note_on_c, 0, 69, 96
2, 14336, Note_off_c, 0, 69, 0
2, 14336, Note_on_c, 0, 69, 96
2, 16384, Note_off_c, 0, 69, 0
2, 16384, Note_on_c, 0, 67, 96
2, 20480, Note_off_c, 0, 67, 0
2, 20480, Note_on_c, 0, 71, 96
2, 22528, Note_off_c, 0, 71, 0
2, 22528, Note_on_c, 0, 74, 96
2, 24576, Note_off_c, 0, 74, 0
2, 24576, Note_on_c, 0, 69, 96
2, 25600, Note_off_c, 0, 69, 0
2, 25600, Note_on_c, 0, 69, 96
2, 26624, Note_off_c, 0, 69, 0
2, 26624, Note_on_c, 0, 69, 96
2, 27648, Note_off_c, 0, 69, 0
2, 27648, Note_on_c, 0, 69, 96
2, 28672, Note_off_c, 0, 69, 0
2, 28672, Note_on_c, 0, 69, 96
2, 29696, Note_off_c, 0, 69, 0
2, 29696, Note_on_c, 0, 69, 96
2, 30720, Note_off_c, 0, 69, 0
2, 30720, Note_on_c, 0, 69, 96
2, 31744, Note_off_c, 0, 69, 0
2, 31744, Note_on_c, 0, 69, 96
2, 32768, Note_off_c, 0, 69, 0
2, 32768, Note_on_c, 0, 64, 96
2, 34816, Note_off_c, 0, 64, 0
2, 34816, Note_on_c, 0, 67, 96
2, 36864, Note_off_c, 0, 67, 0
2, 36864, Note_on_c, 0, 66, 96
2, 38912, Note_off_c, 0, 66, 0
2, 38912, Note_on_c, 0, 64, 96
2, 43008, Note_off_c, 0, 64, 0
2, 43009, End_track
3, 0, Start_track
3, 0, Title_t, "Instrument 2"
3, 0, Note_on_c, 1, 64, 96
3, 2048, Note_off_c, 1, 64, 0
3, 2048, Note_on_c, 1, 62, 96
3, 4096, Note_off_c, 1, 62, 0
3, 4096, Note_on_c, 1, 62, 96
3, 5120, Note_off_c, 1, 62, 0
3, 5120, Note_on_c, 1, 63, 96
3, 6144, Note_off_c, 1, 63, 0
3, 6144, Note_on_c, 1, 64, 96
3, 7168, Note_off_c, 1, 64, 0
3, 7168, Note_on_c, 1, 66, 96
3, 8192, Note_off_c, 1, 66, 0
3, 8192, Note_on_c, 1, 64, 96
3, 9216, Note_off_c, 1, 64, 0
3, 9216, Note_on_c, 1, 62, 96
3, 11264, Note_off_c, 1, 62, 0
3, 11264, Note_on_c, 1, 62, 96
3, 12288, Note_off_c, 1, 62, 0
3, 12288, Note_on_c, 1, 64, 96
3, 14336, Note_off_c, 1, 64, 0
3, 14336, Note_on_c, 1, 62, 96
3, 16384, Note_off_c, 1, 62, 0
3, 16384, Note_on_c, 1, 62, 96
3, 20480, Note_off_c, 1, 62, 0
3, 20480, Note_on_c, 1, 62, 96
3, 24576, Note_off_c, 1, 62, 0
3, 24576, Note_on_c, 1, 62, 96
3, 32768, Note_off_c, 1, 62, 0
3, 32768, Note_on_c, 1, 64, 96
3, 34816, Note_off_c, 1, 64, 0
3, 34816, Note_on_c, 1, 64, 96
3, 36864, Note_off_c, 1, 64, 0
3, 36864, Note_on_c, 1, 63, 96
3, 38912, Note_off_c, 1, 63, 0
3, 38912, Note_on_c, 1, 59, 96
3, 43008, Note_off_c, 1, 59, 0
3, 43009, End_track
4, 0, Start_track
4, 0, Title_t, "Instrument 3"
4, 0, Note_on_c, 2, 55, 96
4, 2048, Note_off_c, 2, 55, 0
4, 2048, Note_on_c, 2, 57, 96
4, 4096, Note_off_c, 2, 57, 0
4, 4096, Note_on_c, 2, 59, 96
4, 5120, Note_off_c, 2, 59, 0
4, 5120, Note_on_c, 2, 57, 96
4, 6144, Note_off_c, 2, 57, 0
4, 6144, Note_on_c, 2, 55, 96
4, 7168, Note_off_c, 2, 55, 0
4, 7168, Note_on_c, 2, 54, 96
4, 8192, Note_off_c, 2, 54, 0
4, 8192, Note_on_c, 2, 55, 96
4, 9216, Note_off_c, 2, 55, 0
4, 9216, Note_on_c, 2, 57, 96
4, 11264, Note_off_c, 2, 57, 0
4, 11264, Note_on_c, 2, 55, 96
4, 12288, Note_off_c, 2, 55, 0
4, 12288, Note_on_c, 2, 55, 96
4, 14336, Note_off_c, 2, 55, 0
4, 14336, Note_on_c, 2, 54, 96
4, 16384, Note_off_c, 2, 54, 0
4, 16384, Note_on_c, 2, 59, 96
4, 20480, Note_off_c, 2, 59, 0
4, 20480, Note_on_c, 2, 55, 96
4, 24576, Note_off_c, 2, 55, 0
4, 24576, Note_on_c, 2, 54, 96
4, 32768, Note_off_c, 2, 54, 0
4, 32768, Note_on_c, 2, 57, 96
4, 34816, Note_off_c, 2, 57, 0
4, 34816, Note_on_c, 2, 59, 96
4, 37888, Note_off_c, 2, 59, 0
4, 37888, Note_on_c, 2, 57, 96
4, 38912, Note_off_c, 2, 57, 0
4, 38912, Note_on_c, 2, 55, 96
4, 43008, Note_off_c, 2, 55, 0
4, 43009, End_track
5, 0, Start_track
5, 0, Title_t, "Instrument 4"
5, 0, Note_on_c, 3, 52, 96
5, 2048, Note_off_c, 3, 52, 0
5, 2048, Note_on_c, 3, 54, 96
5, 4096, Note_off_c, 3, 54, 0
5, 4096, Note_on_c, 3, 55, 96
5, 5120, Note_off_c, 3, 55, 0
5, 5120, Note_on_c, 3, 54, 96
5, 6144, Note_off_c, 3, 54, 0
5, 6144, Note_on_c, 3, 52, 96
5, 7168, Note_off_c, 3, 52, 0
5, 7168, Note_on_c, 3, 51, 96
5, 8192, Note_off_c, 3, 51, 0
5, 8192, Note_on_c, 3, 52, 96
5, 9216, Note_off_c, 3, 52, 0
5, 9216, Note_on_c, 3, 54, 96
5, 10240, Note_off_c, 3, 54, 0
5, 10240, Note_on_c, 3, 55, 96
5, 11264, Note_off_c, 3, 55, 0
5, 11264, Note_on_c, 3, 52, 96
5, 12288, Note_off_c, 3, 52, 0
5, 12288, Note_on_c, 3, 48, 96
5, 13312, Note_off_c, 3, 48, 0
5, 13312, Note_on_c, 3, 45, 96
5, 14336, Note_off_c, 3, 45, 0
5, 14336, Note_on_c, 3, 50, 96
5, 16384, Note_off_c, 3, 50, 0
5, 16384, Note_on_c, 3, 43, 96
5, 20480, Note_off_c, 3, 43, 0
5, 20480, Note_on_c, 3, 55, 96
5, 22528, Note_off_c, 3, 55, 0
5, 22528, Note_on_c, 3, 47, 96
5, 24576, Note_off_c, 3, 47, 0
5, 24576, Note_on_c, 3, 50, 96
5, 32768, Note_off_c, 3, 50, 0
5, 32768, Note_on_c, 3, 48, 96
5, 34816, Note_off_c, 3, 48, 0
5, 34816, Note_on_c, 3, 47, 96
5, 35840, Note_off_c, 3, 47, 0
5, 35840, Note_on_c, 3, 45, 96
5, 36864, Note_off_c, 3, 45, 0
5, 36864, Note_on_c, 3, 47, 96
5, 38912, Note_off_c, 3, 47, 0
5, 38912, Note_on_c, 3, 40, 96
5, 43008, Note_off_c, 3, 40, 0
5, 43009, End_track
0, 0, End_of_file
