0, 0, Header, 1, 9, 1024
1, 0, Start_track
1, 0, Time_signature, 4, 2, 24, 8
1, 0, Key_signature, 2, "major"
1, 0, Tempo, 833333
1, 284672, End_track
2, 0, Start_track
2, 0, Title_t, "Instrument 1"
2, 52224, Note_on_c, 0, 66, 96
2, 53248, Note_off_c, 0, 66, 0
2, 53248, Note_on_c, 0, 71, 96
2, 54272, Note_off_c, 0, 71, 0
2, 54272, Note_on_c, 0, 69, 96
2, 55296, Note_off_c, 0, 69, 0
2, 55296, Note_on_c, 0, 67, 96
2, 56320, Note_off_c, 0, 67, 0
2, 56320, Note_on_c, 0, 66, 96
2, 57344, Note_off_c, 0, 66, 0
2, 57344, Note_on_c, 0, 64, 96
2, 59392, Note_off_c, 0, 64, 0
2, 59392, Note_on_c, 0, 66, 96
2, 61440, Note_off_c, 0, 66, 0
2, 68608, Note_on_c, 0, 73, 96
2, 69632, Note_off_c, 0, 73, 0
2, 69632, Note_on_c, 0, 74, 96
2, 70656, Note_off_c, 0, 74, 0
2, 70656, Note_on_c, 0, 74, 96
2, 71680, Note_off_c, 0, 74, 0
2, 71680, Note_on_c, 0, 73, 96
2, 72448, Note_off_c, 0, 73, 0
2, 72448, Note_on_c, 0, 74, 96
2, 72576, Note_off_c, 0, 74, 0
2, 72576, Note_on_c, 0, 76, 96
2, 72704, Note_off_c, 0, 76, 0
2, 72704, Note_on_c, 0, 73, 96
2, 73728, Note_off_c, 0, 73, 0
2, 73728, Note_on_c, 0, 71, 96
2, 75776, Note_off_c, 0, 71, 0
2, 125952, Note_on_c, 0, 66, 96
2, 126976, Note_off_c, 0, 66, 0
2, 126976, Note_on_c, 0, 71, 96
2, 128000, Note_off_c, 0, 71, 0
2, 128000, Note_on_c, 0, 69, 96
2, 129024, Note_off_c, 0, 69, 0
2, 129024, Note_on_c, 0, 67, 96
2, 130048, Note_off_c, 0, 67, 0
2, 130048, Note_on_c, 0, 66, 96
2, 131072, Note_off_c, 0, 66, 0
2, 131072, Note_on_c, 0, 64, 96
2, 133120, Note_off_c, 0, 64, 0
2, 133120, Note_on_c, 0, 66, 96
2, 135168, Note_off_c, 0, 66, 0
2, 142336, Note_on_c, 0, 73, 96
2, 143360, Note_off_c, 0, 73, 0
2, 143360, Note_on_c, 0, 74, 96
2, 144384, Note_off_c, 0, 74, 0
2, 144384, Note_on_c, 0, 74, 96
2, 145408, Note_off_c, 0, 74, 0
2, 145408, Note_on_c, 0, 73, 96
2, 146176, Note_off_c, 0, 73, 0
2, 146176, Note_on_c, 0, 74, 96
2, 146304, Note_off_c, 0, 74, 0
2, 146304, Note_on_c, 0, 76, 96
2, 146432, Note_off_c, 0, 76, 0
2, 146432, Note_on_c, 0, 73, 96
2, 147456, Note_off_c, 0, 73, 0
2, 147456, Note_on_c, 0, 71, 96
2, 149504, Note_off_c, 0, 71, 0
2, 166912, Note_on_c, 0, 74, 96
2, 167936, Note_off_c, 0, 74, 0
2, 167936, Note_on_c, 0, 73, 96
2, 168960, Note_off_c, 0, 73, 0
2, 168960, Note_on_c, 0, 69, 96
2, 169984, Note_off_c, 0, 69, 0
2, 169984, Note_on_c, 0, 71, 96
2, 171008, Note_off_c, 0, 71, 0
2, 171008, Note_on_c, 0, 73, 96
2, 172032, Note_off_c, 0, 73, 0
2, 172032, Note_on_c, 0, 74, 96
2, 174080, Note_off_c, 0, 74, 0
2, 174080, Note_on_c, 0, 74, 96
2, 176128, Note_off_c, 0, 74, 0
2, 181248, Note_on_c, 0, 69, 96
2, 182272, Note_off_c, 0, 69, 0
2, 182272, Note_on_c, 0, 71, 96
2, 183296, Note_off_c, 0, 71, 0
2, 183296, Note_on_c, 0, 69, 96
2, 184320, Note_off_c, 0, 69, 0
2, 184320, Note_on_c, 0, 67, 96
2, 185344, Note_off_c, 0, 67, 0
2, 185344, Note_on_c, 0, 67, 96
2, 185856, Note_off_c, 0, 67, 0
2, 185856, Note_on_c, 0, 66, 96
2, 186368, Note_off_c, 0, 66, 0
2, 186368, Note_on_c, 0, 66, 96
2, 188416, Note_off_c, 0, 66, 0
2, 199680, Note_on_c, 0, 74, 96
2, 200704, Note_off_c, 0, 74, 0
2, 200704, Note_on_c, 0, 73, 96
2, 201728, Note_off_c, 0, 73, 0
2, 201728, Note_on_c, 0, 76, 96
2, 202752, Note_off_c, 0, 76, 0
2, 202752, Note_on_c, 0, 74, 96
2, 203776, Note_off_c, 0, 74, 0
2, 203776, Note_on_c, 0, 73, 96
2, 204800, Note_off_c, 0, 73, 0
2, 204800, Note_on_c, 0, 71, 96
2, 206848, Note_off_c, 0, 71, 0
2, 206848, Note_on_c, 0, 73, 96
2, 208896, Note_off_c, 0, 73, 0
2, 228352, Note_on_c, 0, 66, 96
2, 229376, Note_off_c, 0, 66, 0
2, 229376, Note_on_c, 0, 67, 96
2, 230400, Note_off_c, 0, 67, 0
2, 230400, Note_on_c, 0, 66, 96
2, 231424, Note_off_c, 0, 66, 0
2, 231424, Note_on_c, 0, 64, 96
2, 232448, Note_off_c, 0, 64, 0
2, 232448, Note_on_c, 0, 69, 96
2, 233472, Note_off_c, 0, 69, 0
2, 233472, Note_on_c, 0, 66, 96
2, 237568, Note_off_c, 0, 66, 0
2, 284672, End_track
3, 0, Start_track
3, 0, Title_t, "Instrument 2"
3, 52224, Note_on_c, 1, 62, 96
3, 53248, Note_off_c, 1, 62, 0
3, 53248, Note_on_c, 1, 62, 96
3, 53760, Note_off_c, 1, 62, 0
3, 53760, Note_on_c, 1, 64, 96
3, 54272, Note_off_c, 1, 64, 0
3, 54272, Note_on_c, 1, 66, 96
3, 55296, Note_off_c, 1, 66, 0
3, 55296, Note_on_c, 1, 59, 96
3, 55808, Note_off_c, 1, 59, 0
3, 55808, Note_on_c, 1, 61, 96
3, 56320, Note_off_c, 1, 61, 0
3, 56320, Note_on_c, 1, 62, 96
3, 57344, Note_off_c, 1, 62, 0
3, 57344, Note_on_c, 1, 62, 96
3, 58368, Note_off_c, 1, 62, 0
3, 58368, Note_on_c, 1, 61, 96
3, 59392, Note_off_c, 1, 61, 0
3, 59392, Note_on_c, 1, 62, 96
3, 61440, Note_off_c, 1, 62, 0
3, 68608, Note_on_c, 1, 70, 96
3, 69632, Note_off_c, 1, 70, 0
3, 69632, Note_on_c, 1, 71, 96
3, 70656, Note_off_c, 1, 71, 0
3, 70656, Note_on_c, 1, 71, 96
3, 71680, Note_off_c, 1, 71, 0
3, 71680, Note_on_c, 1, 71, 96
3, 72704, Note_off_c, 1, 71, 0
3, 72704, Note_on_c, 1, 70, 96
3, 73728, Note_off_c, 1, 70, 0
3, 73728, Note_on_c, 1, 66, 96
3, 75776, Note_off_c, 1, 66, 0
3, 125952, Note_on_c, 1, 62, 96
3, 126976, Note_off_c, 1, 62, 0
3, 126976, Note_on_c, 1, 62, 96
3, 127488, Note_off_c, 1, 62, 0
3, 127488, Note_on_c, 1, 64, 96
3, 128000, Note_off_c, 1, 64, 0
3, 128000, Note_on_c, 1, 66, 96
3, 129024, Note_off_c, 1, 66, 0
3, 129024, Note_on_c, 1, 59, 96
3, 129536, Note_off_c, 1, 59, 0
3, 129536, Note_on_c, 1, 61, 96
3, 130048, Note_off_c, 1, 61, 0
3, 130048, Note_on_c, 1, 62, 96
3, 131072, Note_off_c, 1, 62, 0
3, 131072, Note_on_c, 1, 62, 96
3, 132096, Note_off_c, 1, 62, 0
3, 132096, Note_on_c, 1, 61, 96
3, 133120, Note_off_c, 1, 61, 0
3, 133120, Note_on_c, 1, 62, 96
3, 135168, Note_off_c, 1, 62, 0
3, 142336, Note_on_c, 1, 70, 96
3, 143360, Note_off_c, 1, 70, 0
3, 143360, Note_on_c, 1, 71, 96
3, 144384, Note_off_c, 1, 71, 0
3, 144384, Note_on_c, 1, 71, 96
3, 145408, Note_off_c, 1, 71, 0
3, 145408, Note_on_c, 1, 71, 96
3, 146432, Note_off_c, 1, 71, 0
3, 146432, Note_on_c, 1, 70, 96
3, 147456, Note_off_c, 1, 70, 0
3, 147456, Note_on_c, 1, 66, 96
3, 149504, Note_off_c, 1, 66, 0
3, 166912, Note_on_c, 1, 71, 96
3, 167936, Note_off_c, 1, 71, 0
3, 167936, Note_on_c, 1, 69, 96
3, 168960, Note_off_c, 1, 69, 0
3, 168960, Note_on_c, 1, 69, 96
3, 169472, Note_off_c, 1, 69, 0
3, 169472, Note_on_c, 1, 67, 96
3, 169728, Note_off_c, 1, 67, 0
3, 169728, Note_on_c, 1, 66, 96
3, 169984, Note_off_c, 1, 66, 0
3, 169984, Note_on_c, 1, 67, 96
3, 171008, Note_off_c, 1, 67, 0
3, 171008, Note_on_c, 1, 67, 96
3, 171520, Note_off_c, 1, 67, 0
3, 171520, Note_on_c, 1, 64, 96
3, 172032, Note_off_c, 1, 64, 0
3, 172032, Note_on_c, 1, 62, 96
3, 173568, Note_off_c, 1, 62, 0
3, 173568, Note_on_c, 1, 71, 96
3, 174080, Note_off_c, 1, 71, 0
3, 174080, Note_on_c, 1, 69, 96
3, 176128, Note_off_c, 1, 69, 0
3, 181248, Note_on_c, 1, 69, 96
3, 181760, Note_off_c, 1, 69, 0
3, 181760, Note_on_c, 1, 66, 96
3, 182272, Note_off_c, 1, 66, 0
3, 182272, Note_on_c, 1, 67, 96
3, 183296, Note_off_c, 1, 67, 0
3, 183296, Note_on_c, 1, 66, 96
3, 184320, Note_off_c, 1, 66, 0
3, 184320, Note_on_c, 1, 66, 96
3, 184832, Note_off_c, 1, 66, 0
3, 184832, Note_on_c, 1, 64, 96
3, 185344, Note_off_c, 1, 64, 0
3, 185344, Note_on_c, 1, 64, 96
3, 186368, Note_off_c, 1, 64, 0
3, 186368, Note_on_c, 1, 61, 96
3, 188416, Note_off_c, 1, 61, 0
3, 199680, Note_on_c, 1, 71, 96
3, 200704, Note_off_c, 1, 71, 0
3, 200704, Note_on_c, 1, 69, 96
3, 202240, Note_off_c, 1, 69, 0
3, 202240, Note_on_c, 1, 64, 96
3, 202752, Note_off_c, 1, 64, 0
3, 202752, Note_on_c, 1, 66, 96
3, 204288, Note_off_c, 1, 66, 0
3, 204288, Note_on_c, 1, 64, 96
3, 204800, Note_off_c, 1, 64, 0
3, 204800, Note_on_c, 1, 66, 96
3, 205312, Note_off_c, 1, 66, 0
3, 205312, Note_on_c, 1, 62, 96
3, 205824, Note_off_c, 1, 62, 0
3, 205824, Note_on_c, 1, 64, 96
3, 206848, Note_off_c, 1, 64, 0
3, 206848, Note_on_c, 1, 64, 96
3, 208896, Note_off_c, 1, 64, 0
3, 228352, Note_on_c, 1, 66, 96
3, 229376, Note_off_c, 1, 66, 0
3, 229376, Note_on_c, 1, 59, 96
3, 229888, Note_off_c, 1, 59, 0
3, 229888, Note_on_c, 1, 64, 96
3, 230400, Note_off_c, 1, 64, 0
3, 230400, Note_on_c, 1, 62, 96
3, 231424, Note_off_c, 1, 62, 0
3, 231424, Note_on_c, 1, 62, 96
3, 231936, Note_off_c, 1, 62, 0
3, 231936, Note_on_c, 1, 61, 96
3, 232192, Note_off_c, 1, 61, 0
3, 232192, Note_on_c, 1, 59, 96
3, 232448, Note_off_c, 1, 59, 0
3, 232448, Note_on_c, 1, 61, 96
3, 233472, Note_off_c, 1, 61, 0
3, 233472, Note_on_c, 1, 62, 96
3, 237568, Note_off_c, 1, 62, 0
3, 284672, End_track
4, 0, Start_track
4, 0, Title_t, "Instrument 3"
4, 52224, Note_on_c, 2, 57, 96
4, 53248, Note_off_c, 2, 57, 0
4, 53248, Note_on_c, 2, 59, 96
4, 53760, Note_off_c, 2, 59, 0
4, 53760, Note_on_c, 2, 61, 96
4, 54272, Note_off_c, 2, 61, 0
4, 54272, Note_on_c, 2, 62, 96
4, 55296, Note_off_c, 2, 62, 0
4, 55296, Note_on_c, 2, 55, 96
4, 56320, Note_off_c, 2, 55, 0
4, 56320, Note_on_c, 2, 57, 96
4, 57344, Note_off_c, 2, 57, 0
4, 57344, Note_on_c, 2, 59, 96
4, 57856, Note_off_c, 2, 59, 0
4, 57856, Note_on_c, 2, 55, 96
4, 58368, Note_off_c, 2, 55, 0
4, 58368, Note_on_c, 2, 52, 96
4, 58880, Note_off_c, 2, 52, 0
4, 58880, Note_on_c, 2, 57, 96
4, 59392, Note_off_c, 2, 57, 0
4, 59392, Note_on_c, 2, 57, 96
4, 61440, Note_off_c, 2, 57, 0
4, 68608, Note_on_c, 2, 66, 96
4, 69632, Note_off_c, 2, 66, 0
4, 69632, Note_on_c, 2, 66, 96
4, 70656, Note_off_c, 2, 66, 0
4, 70656, Note_on_c, 2, 62, 96
4, 71168, Note_off_c, 2, 62, 0
4, 71168, Note_on_c, 2, 66, 96
4, 71680, Note_off_c, 2, 66, 0
4, 71680, Note_on_c, 2, 67, 96
4, 72192, Note_off_c, 2, 67, 0
4, 72192, Note_on_c, 2, 64, 96
4, 72704, Note_off_c, 2, 64, 0
4, 72704, Note_on_c, 2, 66, 96
4, 73216, Note_off_c, 2, 66, 0
4, 73216, Note_on_c, 2, 61, 96
4, 73728, Note_off_c, 2, 61, 0
4, 73728, Note_on_c, 2, 62, 96
4, 75776, Note_off_c, 2, 62, 0
4, 125952, Note_on_c, 2, 57, 96
4, 126976, Note_off_c, 2, 57, 0
4, 126976, Note_on_c, 2, 59, 96
4, 127488, Note_off_c, 2, 59, 0
4, 127488, Note_on_c, 2, 61, 96
4, 128000, Note_off_c, 2, 61, 0
4, 128000, Note_on_c, 2, 62, 96
4, 129024, Note_off_c, 2, 62, 0
4, 129024, Note_on_c, 2, 55, 96
4, 130048, Note_off_c, 2, 55, 0
4, 130048, Note_on_c, 2, 57, 96
4, 131072, Note_off_c, 2, 57, 0
4, 131072, Note_on_c, 2, 59, 96
4, 131584, Note_off_c, 2, 59, 0
4, 131584, Note_on_c, 2, 55, 96
4, 132096, Note_off_c, 2, 55, 0
4, 132096, Note_on_c, 2, 52, 96
4, 132608, Note_off_c, 2, 52, 0
4, 132608, Note_on_c, 2, 57, 96
4, 133120, Note_off_c, 2, 57, 0
4, 133120, Note_on_c, 2, 57, 96
4, 135168, Note_off_c, 2, 57, 0
4, 142336, Note_on_c, 2, 66, 96
4, 143360, Note_off_c, 2, 66, 0
4, 143360, Note_on_c, 2, 66, 96
4, 144384, Note_off_c, 2, 66, 0
4, 144384, Note_on_c, 2, 62, 96
4, 144896, Note_off_c, 2, 62, 0
4, 144896, Note_on_c, 2, 66, 96
4, 145408, Note_off_c, 2, 66, 0
4, 145408, Note_on_c, 2, 67, 96
4, 145920, Note_off_c, 2, 67, 0
4, 145920, Note_on_c, 2, 64, 96
4, 146432, Note_off_c, 2, 64, 0
4, 146432, Note_on_c, 2, 66, 96
4, 146944, Note_off_c, 2, 66, 0
4, 146944, Note_on_c, 2, 61, 96
4, 147456, Note_off_c, 2, 61, 0
4, 147456, Note_on_c, 2, 62, 96
4, 149504, Note_off_c, 2, 62, 0
4, 166912, Note_on_c, 2, 64, 96
4, 167936, Note_off_c, 2, 64, 0
4, 167936, Note_on_c, 2, 64, 96
4, 168960, Note_off_c, 2, 64, 0
4, 168960, Note_on_c, 2, 62, 96
4, 169984, Note_off_c, 2, 62, 0
4, 169984, Note_on_c, 2, 62, 96
4, 171008, Note_off_c, 2, 62, 0
4, 171008, Note_on_c, 2, 64, 96
4, 171520, Note_off_c, 2, 64, 0
4, 171520, Note_on_c, 2, 61, 96
4, 172032, Note_off_c, 2, 61, 0
4, 172032, Note_on_c, 2, 66, 96
4, 173568, Note_off_c, 2, 66, 0
4, 173568, Note_on_c, 2, 59, 96
4, 174080, Note_off_c, 2, 59, 0
4, 174080, Note_on_c, 2, 66, 96
4, 176128, Note_off_c, 2, 66, 0
4, 181248, Note_on_c, 2, 62, 96
4, 182272, Note_off_c, 2, 62, 0
4, 182272, Note_on_c, 2, 62, 96
4, 183296, Note_off_c, 2, 62, 0
4, 183296, Note_on_c, 2, 62, 96
4, 184320, Note_off_c, 2, 62, 0
4, 184320, Note_on_c, 2, 59, 96
4, 185344, Note_off_c, 2, 59, 0
4, 185344, Note_on_c, 2, 59, 96
4, 185856, Note_off_c, 2, 59, 0
4, 185856, Note_on_c, 2, 58, 96
4, 186368, Note_off_c, 2, 58, 0
4, 186368, Note_on_c, 2, 58, 96
4, 188416, Note_off_c, 2, 58, 0
4, 199680, Note_on_c, 2, 64, 96
4, 200704, Note_off_c, 2, 64, 0
4, 200704, Note_on_c, 2, 64, 96
4, 202240, Note_off_c, 2, 64, 0
4, 202240, Note_on_c, 2, 59, 96
4, 202752, Note_off_c, 2, 59, 0
4, 202752, Note_on_c, 2, 57, 96
4, 204288, Note_off_c, 2, 57, 0
4, 204288, Note_on_c, 2, 57, 96
4, 204800, Note_off_c, 2, 57, 0
4, 204800, Note_on_c, 2, 57, 96
4, 205312, Note_off_c, 2, 57, 0
4, 205312, Note_on_c, 2, 59, 96
4, 205824, Note_off_c, 2, 59, 0
4, 205824, Note_on_c, 2, 56, 96
4, 206848, Note_off_c, 2, 56, 0
4, 206848, Note_on_c, 2, 57, 96
4, 208896, Note_off_c, 2, 57, 0
4, 228352, Note_on_c, 2, 62, 96
4, 229376, Note_off_c, 2, 62, 0
4, 229376, Note_on_c, 2, 62, 96
4, 229888, Note_off_c, 2, 62, 0
4, 229888, Note_on_c, 2, 61, 96
4, 230144, Note_off_c, 2, 61, 0
4, 230144, Note_on_c, 2, 59, 96
4, 230400, Note_off_c, 2, 59, 0
4, 230400, Note_on_c, 2, 57, 96
4, 231424, Note_off_c, 2, 57, 0
4, 231424, Note_on_c, 2, 57, 96
4, 232448, Note_off_c, 2, 57, 0
4, 232448, Note_on_c, 2, 57, 96
4, 233472, Note_off_c, 2, 57, 0
4, 233472, Note_on_c, 2, 57, 96
4, 237568, Note_off_c, 2, 57, 0
4, 284672, End_track
5, 0, Start_track
5, 0, Title_t, "Instrument 4"
5, 52224, Note_on_c, 3, 50, 96
5, 53248, Note_off_c, 3, 50, 0
5, 53248, Note_on_c, 3, 55, 96
5, 54272, Note_off_c, 3, 55, 0
5, 54272, Note_on_c, 3, 54, 96
5, 55296, Note_off_c, 3, 54, 0
5, 55296, Note_on_c, 3, 59, 96
5, 56320, Note_off_c, 3, 59, 0
5, 56320, Note_on_c, 3, 57, 96
5, 57344, Note_off_c, 3, 57, 0
5, 57344, Note_on_c, 3, 55, 96
5, 58368, Note_off_c, 3, 55, 0
5, 58368, Note_on_c, 3, 57, 96
5, 59392, Note_off_c, 3, 57, 0
5, 59392, Note_on_c, 3, 50, 96
5, 61440, Note_off_c, 3, 50, 0
5, 68608, Note_on_c, 3, 54, 96
5, 69632, Note_off_c, 3, 54, 0
5, 69632, Note_on_c, 3, 59, 96
5, 70144, Note_off_c, 3, 59, 0
5, 70144, Note_on_c, 3, 54, 96
5, 70656, Note_off_c, 3, 54, 0
5, 70656, Note_on_c, 3, 55, 96
5, 71168, Note_off_c, 3, 55, 0
5, 71168, Note_on_c, 3, 50, 96
5, 71680, Note_off_c, 3, 50, 0
5, 71680, Note_on_c, 3, 52, 96
5, 72192, Note_off_c, 3, 52, 0
5, 72192, Note_on_c, 3, 49, 96
5, 72704, Note_off_c, 3, 49, 0
5, 72704, Note_on_c, 3, 54, 96
5, 73728, Note_off_c, 3, 54, 0
5, 73728, Note_on_c, 3, 47, 96
5, 75776, Note_off_c, 3, 47, 0
5, 125952, Note_on_c, 3, 50, 96
5, 126976, Note_off_c, 3, 50, 0
5, 126976, Note_on_c, 3, 55, 96
5, 128000, Note_off_c, 3, 55, 0
5, 128000, Note_on_c, 3, 54, 96
5, 129024, Note_off_c, 3, 54, 0
5, 129024, Note_on_c, 3, 59, 96
5, 130048, Note_off_c, 3, 59, 0
5, 130048, Note_on_c, 3, 57, 96
5, 131072, Note_off_c, 3, 57, 0
5, 131072, Note_on_c, 3, 55, 96
5, 132096, Note_off_c, 3, 55, 0
5, 132096, Note_on_c, 3, 57, 96
5, 133120, Note_off_c, 3, 57, 0
5, 133120, Note_on_c, 3, 50, 96
5, 135168, Note_off_c, 3, 50, 0
5, 142336, Note_on_c, 3, 54, 96
5, 143360, Note_off_c, 3, 54, 0
5, 143360, Note_on_c, 3, 59, 96
5, 143872, Note_off_c, 3, 59, 0
5, 143872, Note_on_c, 3, 54, 96
5, 144384, Note_off_c, 3, 54, 0
5, 144384, Note_on_c, 3, 55, 96
5, 144896, Note_off_c, 3, 55, 0
5, 144896, Note_on_c, 3, 50, 96
5, 145408, Note_off_c, 3, 50, 0
5, 145408, Note_on_c, 3, 52, 96
5, 145920, Note_off_c, 3, 52, 0
5, 145920, Note_on_c, 3, 49, 96
5, 146432, Note_off_c, 3, 49, 0
5, 146432, Note_on_c, 3, 54, 96
5, 147456, Note_off_c, 3, 54, 0
5, 147456, Note_on_c, 3, 47, 96
5, 149504, Note_off_c, 3, 47, 0
5, 166912, Note_on_c, 3, 57, 96
5, 167424, Note_off_c, 3, 57, 0
5, 167424, Note_on_c, 3, 56, 96
5, 167936, Note_off_c, 3, 56, 0
5, 167936, Note_on_c, 3, 57, 96
5, 168448, Note_off_c, 3, 57, 0
5, 168448, Note_on_c, 3, 55, 96
5, 168960, Note_off_c, 3, 55, 0
5, 168960, Note_on_c, 3, 54, 96
5, 169472, Note_off_c, 3, 54, 0
5, 169472, Note_on_c, 3, 50, 96
5, 169984, Note_off_c, 3, 50, 0
5, 169984, Note_on_c, 3, 55, 96
5, 170496, Note_off_c, 3, 55, 0
5, 170496, Note_on_c, 3, 54, 96
5, 171008, Note_off_c, 3, 54, 0
5, 171008, Note_on_c, 3, 52, 96
5, 171520, Note_off_c, 3, 52, 0
5, 171520, Note_on_c, 3, 57, 96
5, 172032, Note_off_c, 3, 57, 0
5, 172032, Note_on_c, 3, 59, 96
5, 172544, Note_off_c, 3, 59, 0
5, 172544, Note_on_c, 3, 57, 96
5, 173056, Note_off_c, 3, 57, 0
5, 173056, Note_on_c, 3, 59, 96
5, 173568, Note_off_c, 3, 59, 0
5, 173568, Note_on_c, 3, 55, 96
5, 174080, Note_off_c, 3, 55, 0
5, 174080, Note_on_c, 3, 50, 96
5, 176128, Note_off_c, 3, 50, 0
5, 181248, Note_on_c, 3, 54, 96
5, 181760, Note_off_c, 3, 54, 0
5, 181760, Note_on_c, 3, 50, 96
5, 182272, Note_off_c, 3, 50, 0
5, 182272, Note_on_c, 3, 55, 96
5, 183296, Note_off_c, 3, 55, 0
5, 183296, Note_on_c, 3, 50, 96
5, 183808, Note_off_c, 3, 50, 0
5, 183808, Note_on_c, 3, 47, 96
5, 184320, Note_off_c, 3, 47, 0
5, 184320, Note_on_c, 3, 52, 96
5, 185344, Note_off_c, 3, 52, 0
5, 185344, Note_on_c, 3, 52, 96
5, 186368, Note_off_c, 3, 52, 0
5, 186368, Note_on_c, 3, 54, 96
5, 188416, Note_off_c, 3, 54, 0
5, 199680, Note_on_c, 3, 56, 96
5, 200192, Note_off_c, 3, 56, 0
5, 200192, Note_on_c, 3, 52, 96
5, 200704, Note_off_c, 3, 52, 0
5, 200704, Note_on_c, 3, 57, 96
5, 202240, Note_off_c, 3, 57, 0
5, 202240, Note_on_c, 3, 56, 96
5, 202752, Note_off_c, 3, 56, 0
5, 202752, Note_on_c, 3, 54, 96
5, 204288, Note_off_c, 3, 54, 0
5, 204288, Note_on_c, 3, 49, 96
5, 204800, Note_off_c, 3, 49, 0
5, 204800, Note_on_c, 3, 50, 96
5, 205312, Note_off_c, 3, 50, 0
5, 205312, Note_on_c, 3, 47, 96
5, 205824, Note_off_c, 3, 47, 0
5, 205824, Note_on_c, 3, 52, 96
5, 206848, Note_off_c, 3, 52, 0
5, 206848, Note_on_c, 3, 45, 96
5, 208896, Note_off_c, 3, 45, 0
5, 228352, Note_on_c, 3, 50, 96
5, 229376, Note_off_c, 3, 50, 0
5, 229376, Note_on_c, 3, 52, 96
5, 230400, Note_off_c, 3, 52, 0
5, 230400, Note_on_c, 3, 54, 96
5, 230912, Note_off_c, 3, 54, 0
5, 230912, Note_on_c, 3, 55, 96
5, 231424, Note_off_c, 3, 55, 0
5, 231424, Note_on_c, 3, 57, 96
5, 231936, Note_off_c, 3, 57, 0
5, 231936, Note_on_c, 3, 55, 96
5, 232448, Note_off_c, 3, 55, 0
5, 232448, Note_on_c, 3, 57, 96
5, 232960, Note_off_c, 3, 57, 0
5, 232960, Note_on_c, 3, 45, 96
5, 233472, Note_off_c, 3, 45, 0
5, 233472, Note_on_c, 3, 50, 96
5, 237568, Note_off_c, 3, 50, 0
5, 284672, End_track
6, 0, Start_track
6, 0, Title_t, "Instrument 5"
6, 4096, Note_on_c, 4, 50, 96
6, 4608, Note_off_c, 4, 50, 0
6, 4608, Note_on_c, 4, 38, 96
6, 5120, Note_off_c, 4, 38, 0
6, 8704, Note_on_c, 4, 50, 96
6, 8704, Note_on_c, 4, 50, 96
6, 8960, Note_off_c, 4, 50, 0
6, 8960, Note_on_c, 4, 49, 96
6, 9216, Note_off_c, 4, 50, 0
6, 9216, Note_on_c, 4, 45, 96
6, 9216, Note_off_c, 4, 49, 0
6, 9216, Note_on_c, 4, 50, 96
6, 9472, Note_off_c, 4, 50, 0
6, 9472, Note_on_c, 4, 52, 96
6, 9728, Note_off_c, 4, 45, 0
6, 9728, Note_on_c, 4, 50, 96
6, 9728, Note_off_c, 4, 52, 0
6, 9728, Note_on_c, 4, 54, 96
6, 9984, Note_off_c, 4, 54, 0
6, 9984, Note_on_c, 4, 55, 96
6, 10240, Note_off_c, 4, 50, 0
6, 10240, Note_on_c, 4, 45, 96
6, 10240, Note_off_c, 4, 55, 0
6, 10240, Note_on_c, 4, 57, 96
6, 10496, Note_off_c, 4, 57, 0
6, 10496, Note_on_c, 4, 55, 96
6, 10752, Note_off_c, 4, 45, 0
6, 10752, Note_on_c, 4, 45, 96
6, 10752, Note_off_c, 4, 55, 0
6, 10752, Note_on_c, 4, 57, 96
6, 11008, Note_off_c, 4, 57, 0
6, 11008, Note_on_c, 4, 59, 96
6, 11264, Note_off_c, 4, 45, 0
6, 11264, Note_off_c, 4, 59, 0
6, 11264, Note_on_c, 4, 57, 96
6, 11520, Note_off_c, 4, 57, 0
6, 11520, Note_on_c, 4, 55, 96
6, 11776, Note_off_c, 4, 55, 0
6, 11776, Note_on_c, 4, 54, 96
6, 12032, Note_off_c, 4, 54, 0
6, 12032, Note_on_c, 4, 52, 96
6, 12288, Note_off_c, 4, 52, 0
6, 12288, Note_on_c, 4, 50, 96
6, 12800, Note_off_c, 4, 50, 0
6, 12800, Note_on_c, 4, 38, 96
6, 13312, Note_off_c, 4, 38, 0
6, 16896, Note_on_c, 4, 50, 96
6, 16896, Note_on_c, 4, 50, 96
6, 17152, Note_off_c, 4, 50, 0
6, 17152, Note_on_c, 4, 49, 96
6, 17408, Note_off_c, 4, 50, 0
6, 17408, Note_on_c, 4, 45, 96
6, 17408, Note_off_c, 4, 49, 0
6, 17408, Note_on_c, 4, 50, 96
6, 17664, Note_off_c, 4, 50, 0
6, 17664, Note_on_c, 4, 52, 96
6, 17920, Note_off_c, 4, 45, 0
6, 17920, Note_on_c, 4, 50, 96
6, 17920, Note_off_c, 4, 52, 0
6, 17920, Note_on_c, 4, 54, 96
6, 18176, Note_off_c, 4, 54, 0
6, 18176, Note_on_c, 4, 55, 96
6, 18432, Note_off_c, 4, 50, 0
6, 18432, Note_on_c, 4, 45, 96
6, 18432, Note_off_c, 4, 55, 0
6, 18432, Note_on_c, 4, 57, 96
6, 18688, Note_off_c, 4, 57, 0
6, 18688, Note_on_c, 4, 55, 96
6, 18944, Note_off_c, 4, 45, 0
6, 18944, Note_on_c, 4, 45, 96
6, 18944, Note_off_c, 4, 55, 0
6, 18944, Note_on_c, 4, 57, 96
6, 19200, Note_off_c, 4, 57, 0
6, 19200, Note_on_c, 4, 59, 96
6, 19456, Note_off_c, 4, 45, 0
6, 19456, Note_off_c, 4, 59, 0
6, 19456, Note_on_c, 4, 57, 96
6, 19712, Note_off_c, 4, 57, 0
6, 19712, Note_on_c, 4, 55, 96
6, 19968, Note_off_c, 4, 55, 0
6, 19968, Note_on_c, 4, 54, 96
6, 20224, Note_off_c, 4, 54, 0
6, 20224, Note_on_c, 4, 52, 96
6, 20480, Note_off_c, 4, 52, 0
6, 20480, Note_on_c, 4, 50, 96
6, 20992, Note_off_c, 4, 50, 0
6, 20992, Note_on_c, 4, 49, 96
6, 21504, Note_off_c, 4, 49, 0
6, 21504, Note_on_c, 4, 50, 96
6, 22016, Note_off_c, 4, 50, 0
6, 22016, Note_on_c, 4, 49, 96
6, 22528, Note_off_c, 4, 49, 0
6, 22528, Note_on_c, 4, 50, 96
6, 23040, Note_on_c, 4, 50, 96
6, 23040, Note_off_c, 4, 50, 0
6, 23040, Note_on_c, 4, 62, 96
6, 23296, Note_off_c, 4, 50, 0
6, 23296, Note_on_c, 4, 50, 96
6, 23296, Note_off_c, 4, 62, 0
6, 23296, Note_on_c, 4, 61, 96
6, 23552, Note_off_c, 4, 50, 0
6, 23552, Note_on_c, 4, 50, 96
6, 23552, Note_off_c, 4, 61, 0
6, 23552, Note_on_c, 4, 62, 96
6, 24064, Note_off_c, 4, 50, 0
6, 24064, Note_off_c, 4, 62, 0
6, 24064, Note_on_c, 4, 59, 96
6, 24576, Note_off_c, 4, 59, 0
6, 24576, Note_on_c, 4, 49, 96
6, 25088, Note_off_c, 4, 49, 0
6, 25088, Note_on_c, 4, 47, 96
6, 25600, Note_off_c, 4, 47, 0
6, 25600, Note_on_c, 4, 49, 96
6, 26112, Note_off_c, 4, 49, 0
6, 26112, Note_on_c, 4, 47, 96
6, 26624, Note_off_c, 4, 47, 0
6, 26624, Note_on_c, 4, 49, 96
6, 27136, Note_on_c, 4, 45, 96
6, 27136, Note_off_c, 4, 49, 0
6, 27136, Note_on_c, 4, 61, 96
6, 27392, Note_off_c, 4, 45, 0
6, 27392, Note_on_c, 4, 45, 96
6, 27392, Note_off_c, 4, 61, 0
6, 27392, Note_on_c, 4, 59, 96
6, 27648, Note_off_c, 4, 45, 0
6, 27648, Note_on_c, 4, 45, 96
6, 27648, Note_off_c, 4, 59, 0
6, 27648, Note_on_c, 4, 61, 96
6, 28160, Note_off_c, 4, 45, 0
6, 28160, Note_off_c, 4, 61, 0
6, 28160, Note_on_c, 4, 57, 96
6, 28672, Note_off_c, 4, 57, 0
6, 28672, Note_on_c, 4, 47, 96
6, 29184, Note_off_c, 4, 47, 0
6, 29184, Note_on_c, 4, 59, 96
6, 29696, Note_off_c, 4, 59, 0
6, 29696, Note_on_c, 4, 57, 96
6, 30208, Note_off_c, 4, 57, 0
6, 30208, Note_on_c, 4, 45, 96
6, 30720, Note_off_c, 4, 45, 0
6, 30720, Note_on_c, 4, 43, 96
6, 31232, Note_off_c, 4, 43, 0
6, 31232, Note_on_c, 4, 55, 96
6, 31744, Note_off_c, 4, 55, 0
6, 31744, Note_on_c, 4, 54, 96
6, 32256, Note_off_c, 4, 54, 0
6, 32256, Note_on_c, 4, 42, 96
6, 32768, Note_off_c, 4, 42, 0
6, 32768, Note_on_c, 4, 40, 96
6, 33024, Note_off_c, 4, 40, 0
6, 33024, Note_on_c, 4, 42, 96
6, 33280, Note_off_c, 4, 42, 0
6, 33280, Note_on_c, 4, 43, 96
6, 33536, Note_off_c, 4, 43, 0
6, 33536, Note_on_c, 4, 45, 96
6, 33792, Note_off_c, 4, 45, 0
6, 33792, Note_on_c, 4, 47, 96
6, 34048, Note_off_c, 4, 47, 0
6, 34048, Note_on_c, 4, 49, 96
6, 34304, Note_off_c, 4, 49, 0
6, 34304, Note_on_c, 4, 50, 96
6, 34560, Note_off_c, 4, 50, 0
6, 34560, Note_on_c, 4, 47, 96
6, 34816, Note_off_c, 4, 47, 0
6, 34816, Note_on_c, 4, 49, 96
6, 35072, Note_off_c, 4, 49, 0
6, 35072, Note_on_c, 4, 45, 96
6, 35328, Note_on_c, 4, 45, 96
6, 35328, Note_off_c, 4, 45, 0
6, 35328, Note_on_c, 4, 49, 96
6, 35584, Note_off_c, 4, 45, 0
6, 35584, Note_on_c, 4, 45, 96
6, 35584, Note_off_c, 4, 49, 0
6, 35584, Note_on_c, 4, 52, 96
6, 35840, Note_off_c, 4, 45, 0
6, 35840, Note_on_c, 4, 45, 96
6, 35840, Note_off_c, 4, 52, 0
6, 35840, Note_on_c, 4, 57, 96
6, 36352, Note_off_c, 4, 45, 0
6, 36352, Note_on_c, 4, 45, 96
6, 36352, Note_off_c, 4, 57, 0
6, 36352, Note_on_c, 4, 49, 96
6, 36864, Note_off_c, 4, 45, 0
6, 36864, Note_off_c, 4, 49, 0
6, 36864, Note_on_c, 4, 50, 96
6, 36864, Note_on_c, 4, 50, 96
6, 37376, Note_off_c, 4, 50, 0
6, 37376, Note_on_c, 4, 50, 96
6, 37376, Note_off_c, 4, 50, 0
6, 37376, Note_on_c, 4, 47, 96
6, 37632, Note_off_c, 4, 50, 0
6, 37632, Note_on_c, 4, 50, 96
6, 37888, Note_off_c, 4, 50, 0
6, 37888, Note_on_c, 4, 50, 96
6, 37888, Note_off_c, 4, 47, 0
6, 37888, Note_on_c, 4, 43, 96
6, 38400, Note_off_c, 4, 50, 0
6, 38400, Note_on_c, 4, 45, 96
6, 38400, Note_off_c, 4, 43, 0
6, 38400, Note_on_c, 4, 45, 96
6, 38912, Note_off_c, 4, 45, 0
6, 38912, Note_on_c, 4, 50, 96
6, 38912, Note_off_c, 4, 45, 0
6, 38912, Note_on_c, 4, 47, 96
6, 39424, Note_off_c, 4, 50, 0
6, 39424, Note_off_c, 4, 47, 0
6, 39424, Note_on_c, 4, 59, 96
6, 39680, Note_off_c, 4, 59, 0
6, 39680, Note_on_c, 4, 57, 96
6, 39936, Note_off_c, 4, 57, 0
6, 39936, Note_on_c, 4, 59, 96
6, 40448, Note_off_c, 4, 59, 0
6, 40448, Note_on_c, 4, 47, 96
6, 40960, Note_off_c, 4, 47, 0
6, 40960, Note_on_c, 4, 50, 96
6, 40960, Note_on_c, 4, 42, 96
6, 41472, Note_off_c, 4, 50, 0
6, 41472, Note_off_c, 4, 42, 0
6, 41472, Note_on_c, 4, 54, 96
6, 41728, Note_off_c, 4, 54, 0
6, 41728, Note_on_c, 4, 52, 96
6, 41984, Note_off_c, 4, 52, 0
6, 41984, Note_on_c, 4, 54, 96
6, 42496, Note_off_c, 4, 54, 0
6, 42496, Note_on_c, 4, 50, 96
6, 43008, Note_off_c, 4, 50, 0
6, 43008, Note_on_c, 4, 55, 96
6, 43520, Note_off_c, 4, 55, 0
6, 43520, Note_on_c, 4, 43, 96
6, 44032, Note_off_c, 4, 43, 0
6, 44032, Note_on_c, 4, 42, 96
6, 44544, Note_off_c, 4, 42, 0
6, 44544, Note_on_c, 4, 54, 96
6, 45056, Note_off_c, 4, 54, 0
6, 45056, Note_on_c, 4, 52, 96
6, 45568, Note_off_c, 4, 52, 0
6, 45568, Note_on_c, 4, 40, 96
6, 46080, Note_off_c, 4, 40, 0
6, 46080, Note_on_c, 4, 38, 96
6, 46592, Note_off_c, 4, 38, 0
6, 46592, Note_on_c, 4, 50, 96
6, 47104, Note_off_c, 4, 50, 0
6, 47104, Note_on_c, 4, 49, 96
6, 47360, Note_off_c, 4, 49, 0
6, 47360, Note_on_c, 4, 62, 96
6, 47616, Note_off_c, 4, 62, 0
6, 47616, Note_on_c, 4, 61, 96
6, 47872, Note_off_c, 4, 61, 0
6, 47872, Note_on_c, 4, 59, 96
6, 48128, Note_off_c, 4, 59, 0
6, 48128, Note_on_c, 4, 57, 96
6, 48384, Note_off_c, 4, 57, 0
6, 48384, Note_on_c, 4, 55, 96
6, 48640, Note_off_c, 4, 55, 0
6, 48640, Note_on_c, 4, 54, 96
6, 48896, Note_off_c, 4, 54, 0
6, 48896, Note_on_c, 4, 52, 96
6, 49152, Note_off_c, 4, 52, 0
6, 49152, Note_on_c, 4, 50, 96
6, 49408, Note_off_c, 4, 50, 0
6, 49408, Note_on_c, 4, 49, 96
6, 49664, Note_on_c, 4, 50, 96
6, 49664, Note_off_c, 4, 49, 0
6, 49664, Note_on_c, 4, 47, 96
6, 49920, Note_off_c, 4, 50, 0
6, 49920, Note_on_c, 4, 50, 96
6, 49920, Note_off_c, 4, 47, 0
6, 49920, Note_on_c, 4, 45, 96
6, 50176, Note_off_c, 4, 50, 0
6, 50176, Note_on_c, 4, 50, 96
6, 50176, Note_off_c, 4, 45, 0
6, 50176, Note_on_c, 4, 43, 96
6, 50688, Note_off_c, 4, 50, 0
6, 50688, Note_on_c, 4, 45, 96
6, 50688, Note_off_c, 4, 43, 0
6, 50688, Note_on_c, 4, 45, 96
6, 51200, Note_off_c, 4, 45, 0
6, 51200, Note_on_c, 4, 50, 96
6, 51200, Note_off_c, 4, 45, 0
6, 51200, Note_on_c, 4, 38, 96
6, 51712, Note_off_c, 4, 38, 0
6, 51712, Note_on_c, 4, 50, 96
6, 51968, Note_off_c, 4, 50, 0
6, 51968, Note_on_c, 4, 52, 96
6, 52224, Note_off_c, 4, 50, 0
6, 52224, Note_off_c, 4, 52, 0
6, 52224, Note_on_c, 4, 50, 96
6, 52480, Note_off_c, 4, 50, 0
6, 52480, Note_on_c, 4, 48, 96
6, 52736, Note_off_c, 4, 48, 0
6, 52736, Note_on_c, 4, 47, 96
6, 52992, Note_off_c, 4, 47, 0
6, 52992, Note_on_c, 4, 45, 96
6, 53248, Note_off_c, 4, 45, 0
6, 53248, Note_on_c, 4, 43, 96
6, 53760, Note_off_c, 4, 43, 0
6, 53760, Note_on_c, 4, 55, 96
6, 54272, Note_off_c, 4, 55, 0
6, 54272, Note_on_c, 4, 54, 96
6, 54784, Note_off_c, 4, 54, 0
6, 54784, Note_on_c, 4, 42, 96
6, 55296, Note_off_c, 4, 42, 0
6, 55296, Note_on_c, 4, 47, 96
6, 55808, Note_off_c, 4, 47, 0
6, 55808, Note_on_c, 4, 59, 96
6, 56320, Note_off_c, 4, 59, 0
6, 56320, Note_on_c, 4, 57, 96
6, 56832, Note_off_c, 4, 57, 0
6, 56832, Note_on_c, 4, 45, 96
6, 57344, Note_off_c, 4, 45, 0
6, 57344, Note_on_c, 4, 43, 96
6, 57856, Note_off_c, 4, 43, 0
6, 57856, Note_on_c, 4, 55, 96
6, 58368, Note_off_c, 4, 55, 0
6, 58368, Note_on_c, 4, 57, 96
6, 58880, Note_off_c, 4, 57, 0
6, 58880, Note_on_c, 4, 45, 96
6, 59392, Note_off_c, 4, 45, 0
6, 59392, Note_on_c, 4, 50, 96
6, 59904, Note_off_c, 4, 50, 0
6, 59904, Note_on_c, 4, 54, 96
6, 60160, Note_off_c, 4, 54, 0
6, 60160, Note_on_c, 4, 52, 96
6, 60416, Note_off_c, 4, 52, 0
6, 60416, Note_on_c, 4, 50, 96
6, 60928, Note_off_c, 4, 50, 0
6, 60928, Note_on_c, 4, 49, 96
6, 61440, Note_off_c, 4, 49, 0
6, 61440, Note_on_c, 4, 47, 96
6, 61952, Note_off_c, 4, 47, 0
6, 61952, Note_on_c, 4, 59, 96
6, 62464, Note_off_c, 4, 59, 0
6, 66048, Note_on_c, 4, 47, 96
6, 66304, Note_off_c, 4, 47, 0
6, 66304, Note_on_c, 4, 46, 96
6, 66560, Note_off_c, 4, 46, 0
6, 66560, Note_on_c, 4, 47, 96
6, 66816, Note_off_c, 4, 47, 0
6, 66816, Note_on_c, 4, 49, 96
6, 67072, Note_off_c, 4, 49, 0
6, 67072, Note_on_c, 4, 50, 96
6, 67328, Note_off_c, 4, 50, 0
6, 67328, Note_on_c, 4, 52, 96
6, 67584, Note_off_c, 4, 52, 0
6, 67584, Note_on_c, 4, 54, 96
6, 67840, Note_off_c, 4, 54, 0
6, 67840, Note_on_c, 4, 52, 96
6, 68096, Note_off_c, 4, 52, 0
6, 68096, Note_on_c, 4, 54, 96
6, 68352, Note_off_c, 4, 54, 0
6, 68352, Note_on_c, 4, 55, 96
6, 68608, Note_off_c, 4, 55, 0
6, 68608, Note_on_c, 4, 54, 96
6, 68864, Note_off_c, 4, 54, 0
6, 68864, Note_on_c, 4, 52, 96
6, 69120, Note_off_c, 4, 52, 0
6, 69120, Note_on_c, 4, 50, 96
6, 69376, Note_off_c, 4, 50, 0
6, 69376, Note_on_c, 4, 49, 96
6, 69632, Note_off_c, 4, 49, 0
6, 69632, Note_on_c, 4, 47, 96
6, 70144, Note_off_c, 4, 47, 0
6, 70144, Note_on_c, 4, 59, 96
6, 70656, Note_off_c, 4, 59, 0
6, 70656, Note_on_c, 4, 55, 96
6, 71168, Note_off_c, 4, 55, 0
6, 71168, Note_on_c, 4, 50, 96
6, 71680, Note_off_c, 4, 50, 0
6, 71680, Note_on_c, 4, 52, 96
6, 72192, Note_off_c, 4, 52, 0
6, 72192, Note_on_c, 4, 49, 96
6, 72704, Note_off_c, 4, 49, 0
6, 72704, Note_on_c, 4, 54, 96
6, 73216, Note_off_c, 4, 54, 0
6, 73216, Note_on_c, 4, 42, 96
6, 73728, Note_off_c, 4, 42, 0
6, 73728, Note_on_c, 4, 47, 96
6, 74240, Note_off_c, 4, 47, 0
6, 74240, Note_on_c, 4, 54, 96
6, 74752, Note_off_c, 4, 54, 0
6, 74752, Note_on_c, 4, 59, 96
6, 75264, Note_off_c, 4, 59, 0
6, 75264, Note_on_c, 4, 54, 96
6, 75776, Note_off_c, 4, 54, 0
6, 75776, Note_on_c, 4, 55, 96
6, 76288, Note_off_c, 4, 55, 0
6, 76288, Note_on_c, 4, 52, 96
6, 76800, Note_off_c, 4, 52, 0
6, 76800, Note_on_c, 4, 57, 96
6, 77056, Note_off_c, 4, 57, 0
6, 77056, Note_on_c, 4, 55, 96
6, 77312, Note_off_c, 4, 55, 0
6, 77312, Note_on_c, 4, 54, 96
6, 77568, Note_off_c, 4, 54, 0
6, 77568, Note_on_c, 4, 52, 96
6, 77824, Note_off_c, 4, 52, 0
6, 77824, Note_on_c, 4, 50, 96
6, 78336, Note_off_c, 4, 50, 0
6, 78336, Note_on_c, 4, 38, 96
6, 78848, Note_off_c, 4, 38, 0
6, 82432, Note_on_c, 4, 50, 96
6, 82432, Note_on_c, 4, 50, 96
6, 82688, Note_off_c, 4, 50, 0
6, 82688, Note_on_c, 4, 49, 96
6, 82944, Note_off_c, 4, 50, 0
6, 82944, Note_on_c, 4, 45, 96
6, 82944, Note_off_c, 4, 49, 0
6, 82944, Note_on_c, 4, 50, 96
6, 83200, Note_off_c, 4, 50, 0
6, 83200, Note_on_c, 4, 52, 96
6, 83456, Note_off_c, 4, 45, 0
6, 83456, Note_on_c, 4, 50, 96
6, 83456, Note_off_c, 4, 52, 0
6, 83456, Note_on_c, 4, 54, 96
6, 83712, Note_off_c, 4, 54, 0
6, 83712, Note_on_c, 4, 55, 96
6, 83968, Note_off_c, 4, 50, 0
6, 83968, Note_on_c, 4, 45, 96
6, 83968, Note_off_c, 4, 55, 0
6, 83968, Note_on_c, 4, 57, 96
6, 84224, Note_off_c, 4, 57, 0
6, 84224, Note_on_c, 4, 55, 96
6, 84480, Note_off_c, 4, 45, 0
6, 84480, Note_on_c, 4, 45, 96
6, 84480, Note_off_c, 4, 55, 0
6, 84480, Note_on_c, 4, 57, 96
6, 84736, Note_off_c, 4, 57, 0
6, 84736, Note_on_c, 4, 59, 96
6, 84992, Note_off_c, 4, 45, 0
6, 84992, Note_off_c, 4, 59, 0
6, 84992, Note_on_c, 4, 57, 96
6, 85248, Note_off_c, 4, 57, 0
6, 85248, Note_on_c, 4, 55, 96
6, 85504, Note_off_c, 4, 55, 0
6, 85504, Note_on_c, 4, 54, 96
6, 85760, Note_off_c, 4, 54, 0
6, 85760, Note_on_c, 4, 52, 96
6, 86016, Note_off_c, 4, 52, 0
6, 86016, Note_on_c, 4, 50, 96
6, 86528, Note_off_c, 4, 50, 0
6, 86528, Note_on_c, 4, 38, 96
6, 87040, Note_off_c, 4, 38, 0
6, 90624, Note_on_c, 4, 50, 96
6, 90624, Note_on_c, 4, 50, 96
6, 90880, Note_off_c, 4, 50, 0
6, 90880, Note_on_c, 4, 49, 96
6, 91136, Note_off_c, 4, 50, 0
6, 91136, Note_on_c, 4, 45, 96
6, 91136, Note_off_c, 4, 49, 0
6, 91136, Note_on_c, 4, 50, 96
6, 91392, Note_off_c, 4, 50, 0
6, 91392, Note_on_c, 4, 52, 96
6, 91648, Note_off_c, 4, 45, 0
6, 91648, Note_on_c, 4, 50, 96
6, 91648, Note_off_c, 4, 52, 0
6, 91648, Note_on_c, 4, 54, 96
6, 91904, Note_off_c, 4, 54, 0
6, 91904, Note_on_c, 4, 55, 96
6, 92160, Note_off_c, 4, 50, 0
6, 92160, Note_on_c, 4, 45, 96
6, 92160, Note_off_c, 4, 55, 0
6, 92160, Note_on_c, 4, 57, 96
6, 92416, Note_off_c, 4, 57, 0
6, 92416, Note_on_c, 4, 55, 96
6, 92672, Note_off_c, 4, 45, 0
6, 92672, Note_on_c, 4, 45, 96
6, 92672, Note_off_c, 4, 55, 0
6, 92672, Note_on_c, 4, 57, 96
6, 92928, Note_off_c, 4, 57, 0
6, 92928, Note_on_c, 4, 59, 96
6, 93184, Note_off_c, 4, 45, 0
6, 93184, Note_off_c, 4, 59, 0
6, 93184, Note_on_c, 4, 57, 96
6, 93440, Note_off_c, 4, 57, 0
6, 93440, Note_on_c, 4, 55, 96
6, 93696, Note_off_c, 4, 55, 0
6, 93696, Note_on_c, 4, 54, 96
6, 93952, Note_off_c, 4, 54, 0
6, 93952, Note_on_c, 4, 52, 96
6, 94208, Note_off_c, 4, 52, 0
6, 94208, Note_on_c, 4, 50, 96
6, 94720, Note_off_c, 4, 50, 0
6, 94720, Note_on_c, 4, 49, 96
6, 95232, Note_off_c, 4, 49, 0
6, 95232, Note_on_c, 4, 50, 96
6, 95744, Note_off_c, 4, 50, 0
6, 95744, Note_on_c, 4, 49, 96
6, 96256, Note_off_c, 4, 49, 0
6, 96256, Note_on_c, 4, 50, 96
6, 96768, Note_on_c, 4, 50, 96
6, 96768, Note_off_c, 4, 50, 0
6, 96768, Note_on_c, 4, 62, 96
6, 97024, Note_off_c, 4, 50, 0
6, 97024, Note_on_c, 4, 50, 96
6, 97024, Note_off_c, 4, 62, 0
6, 97024, Note_on_c, 4, 61, 96
6, 97280, Note_off_c, 4, 50, 0
6, 97280, Note_on_c, 4, 50, 96
6, 97280, Note_off_c, 4, 61, 0
6, 97280, Note_on_c, 4, 62, 96
6, 97792, Note_off_c, 4, 50, 0
6, 97792, Note_off_c, 4, 62, 0
6, 97792, Note_on_c, 4, 59, 96
6, 98304, Note_off_c, 4, 59, 0
6, 98304, Note_on_c, 4, 49, 96
6, 98816, Note_off_c, 4, 49, 0
6, 98816, Note_on_c, 4, 47, 96
6, 99328, Note_off_c, 4, 47, 0
6, 99328, Note_on_c, 4, 49, 96
6, 99840, Note_off_c, 4, 49, 0
6, 99840, Note_on_c, 4, 47, 96
6, 100352, Note_off_c, 4, 47, 0
6, 100352, Note_on_c, 4, 49, 96
6, 100864, Note_on_c, 4, 45, 96
6, 100864, Note_off_c, 4, 49, 0
6, 100864, Note_on_c, 4, 61, 96
6, 101120, Note_off_c, 4, 45, 0
6, 101120, Note_on_c, 4, 45, 96
6, 101120, Note_off_c, 4, 61, 0
6, 101120, Note_on_c, 4, 59, 96
6, 101376, Note_off_c, 4, 45, 0
6, 101376, Note_on_c, 4, 45, 96
6, 101376, Note_off_c, 4, 59, 0
6, 101376, Note_on_c, 4, 61, 96
6, 101888, Note_off_c, 4, 45, 0
6, 101888, Note_off_c, 4, 61, 0
6, 101888, Note_on_c, 4, 57, 96
6, 102400, Note_off_c, 4, 57, 0
6, 102400, Note_on_c, 4, 47, 96
6, 102912, Note_off_c, 4, 47, 0
6, 102912, Note_on_c, 4, 59, 96
6, 103424, Note_off_c, 4, 59, 0
6, 103424, Note_on_c, 4, 57, 96
6, 103936, Note_off_c, 4, 57, 0
6, 103936, Note_on_c, 4, 45, 96
6, 104448, Note_off_c, 4, 45, 0
6, 104448, Note_on_c, 4, 43, 96
6, 104960, Note_off_c, 4, 43, 0
6, 104960, Note_on_c, 4, 55, 96
6, 105472, Note_off_c, 4, 55, 0
6, 105472, Note_on_c, 4, 54, 96
6, 105984, Note_off_c, 4, 54, 0
6, 105984, Note_on_c, 4, 42, 96
6, 106496, Note_off_c, 4, 42, 0
6, 106496, Note_on_c, 4, 40, 96
6, 106752, Note_off_c, 4, 40, 0
6, 106752, Note_on_c, 4, 42, 96
6, 107008, Note_off_c, 4, 42, 0
6, 107008, Note_on_c, 4, 43, 96
6, 107264, Note_off_c, 4, 43, 0
6, 107264, Note_on_c, 4, 45, 96
6, 107520, Note_off_c, 4, 45, 0
6, 107520, Note_on_c, 4, 47, 96
6, 107776, Note_off_c, 4, 47, 0
6, 107776, Note_on_c, 4, 49, 96
6, 108032, Note_off_c, 4, 49, 0
6, 108032, Note_on_c, 4, 50, 96
6, 108288, Note_off_c, 4, 50, 0
6, 108288, Note_on_c, 4, 47, 96
6, 108544, Note_off_c, 4, 47, 0
6, 108544, Note_on_c, 4, 49, 96
6, 108800, Note_off_c, 4, 49, 0
6, 108800, Note_on_c, 4, 45, 96
6, 109056, Note_on_c, 4, 45, 96
6, 109056, Note_off_c, 4, 45, 0
6, 109056, Note_on_c, 4, 49, 96
6, 109312, Note_off_c, 4, 45, 0
6, 109312, Note_on_c, 4, 45, 96
6, 109312, Note_off_c, 4, 49, 0
6, 109312, Note_on_c, 4, 52, 96
6, 109568, Note_off_c, 4, 45, 0
6, 109568, Note_on_c, 4, 45, 96
6, 109568, Note_off_c, 4, 52, 0
6, 109568, Note_on_c, 4, 57, 96
6, 110080, Note_off_c, 4, 45, 0
6, 110080, Note_on_c, 4, 45, 96
6, 110080, Note_off_c, 4, 57, 0
6, 110080, Note_on_c, 4, 49, 96
6, 110592, Note_off_c, 4, 45, 0
6, 110592, Note_off_c, 4, 49, 0
6, 110592, Note_on_c, 4, 50, 96
6, 110592, Note_on_c, 4, 50, 96
6, 111104, Note_off_c, 4, 50, 0
6, 111104, Note_on_c, 4, 50, 96
6, 111104, Note_off_c, 4, 50, 0
6, 111104, Note_on_c, 4, 47, 96
6, 111360, Note_off_c, 4, 50, 0
6, 111360, Note_on_c, 4, 50, 96
6, 111616, Note_off_c, 4, 50, 0
6, 111616, Note_on_c, 4, 50, 96
6, 111616, Note_off_c, 4, 47, 0
6, 111616, Note_on_c, 4, 43, 96
6, 112128, Note_off_c, 4, 50, 0
6, 112128, Note_on_c, 4, 45, 96
6, 112128, Note_off_c, 4, 43, 0
6, 112128, Note_on_c, 4, 45, 96
6, 112640, Note_off_c, 4, 45, 0
6, 112640, Note_on_c, 4, 50, 96
6, 112640, Note_off_c, 4, 45, 0
6, 112640, Note_on_c, 4, 47, 96
6, 113152, Note_off_c, 4, 50, 0
6, 113152, Note_off_c, 4, 47, 0
6, 113152, Note_on_c, 4, 59, 96
6, 113408, Note_off_c, 4, 59, 0
6, 113408, Note_on_c, 4, 57, 96
6, 113664, Note_off_c, 4, 57, 0
6, 113664, Note_on_c, 4, 59, 96
6, 114176, Note_off_c, 4, 59, 0
6, 114176, Note_on_c, 4, 47, 96
6, 114688, Note_off_c, 4, 47, 0
6, 114688, Note_on_c, 4, 50, 96
6, 114688, Note_on_c, 4, 42, 96
6, 115200, Note_off_c, 4, 50, 0
6, 115200, Note_off_c, 4, 42, 0
6, 115200, Note_on_c, 4, 54, 96
6, 115456, Note_off_c, 4, 54, 0
6, 115456, Note_on_c, 4, 52, 96
6, 115712, Note_off_c, 4, 52, 0
6, 115712, Note_on_c, 4, 54, 96
6, 116224, Note_off_c, 4, 54, 0
6, 116224, Note_on_c, 4, 50, 96
6, 116736, Note_off_c, 4, 50, 0
6, 116736, Note_on_c, 4, 55, 96
6, 117248, Note_off_c, 4, 55, 0
6, 117248, Note_on_c, 4, 43, 96
6, 117760, Note_off_c, 4, 43, 0
6, 117760, Note_on_c, 4, 42, 96
6, 118272, Note_off_c, 4, 42, 0
6, 118272, Note_on_c, 4, 54, 96
6, 118784, Note_off_c, 4, 54, 0
6, 118784, Note_on_c, 4, 52, 96
6, 119296, Note_off_c, 4, 52, 0
6, 119296, Note_on_c, 4, 40, 96
6, 119808, Note_off_c, 4, 40, 0
6, 119808, Note_on_c, 4, 38, 96
6, 120320, Note_off_c, 4, 38, 0
6, 120320, Note_on_c, 4, 50, 96
6, 120832, Note_off_c, 4, 50, 0
6, 120832, Note_on_c, 4, 49, 96
6, 121088, Note_off_c, 4, 49, 0
6, 121088, Note_on_c, 4, 62, 96
6, 121344, Note_off_c, 4, 62, 0
6, 121344, Note_on_c, 4, 61, 96
6, 121600, Note_off_c, 4, 61, 0
6, 121600, Note_on_c, 4, 59, 96
6, 121856, Note_off_c, 4, 59, 0
6, 121856, Note_on_c, 4, 57, 96
6, 122112, Note_off_c, 4, 57, 0
6, 122112, Note_on_c, 4, 55, 96
6, 122368, Note_off_c, 4, 55, 0
6, 122368, Note_on_c, 4, 54, 96
6, 122624, Note_off_c, 4, 54, 0
6, 122624, Note_on_c, 4, 52, 96
6, 122880, Note_off_c, 4, 52, 0
6, 122880, Note_on_c, 4, 50, 96
6, 123136, Note_off_c, 4, 50, 0
6, 123136, Note_on_c, 4, 49, 96
6, 123392, Note_on_c, 4, 50, 96
6, 123392, Note_off_c, 4, 49, 0
6, 123392, Note_on_c, 4, 47, 96
6, 123648, Note_off_c, 4, 50, 0
6, 123648, Note_on_c, 4, 50, 96
6, 123648, Note_off_c, 4, 47, 0
6, 123648, Note_on_c, 4, 45, 96
6, 123904, Note_off_c, 4, 50, 0
6, 123904, Note_on_c, 4, 50, 96
6, 123904, Note_off_c, 4, 45, 0
6, 123904, Note_on_c, 4, 43, 96
6, 124416, Note_off_c, 4, 50, 0
6, 124416, Note_on_c, 4, 45, 96
6, 124416, Note_off_c, 4, 43, 0
6, 124416, Note_on_c, 4, 45, 96
6, 124928, Note_off_c, 4, 45, 0
6, 124928, Note_on_c, 4, 50, 96
6, 124928, Note_off_c, 4, 45, 0
6, 124928, Note_on_c, 4, 38, 96
6, 125440, Note_off_c, 4, 38, 0
6, 125440, Note_on_c, 4, 50, 96
6, 125696, Note_off_c, 4, 50, 0
6, 125696, Note_on_c, 4, 52, 96
6, 125952, Note_off_c, 4, 50, 0
6, 125952, Note_off_c, 4, 52, 0
6, 125952, Note_on_c, 4, 50, 96
6, 126208, Note_off_c, 4, 50, 0
6, 126208, Note_on_c, 4, 48, 96
6, 126464, Note_off_c, 4, 48, 0
6, 126464, Note_on_c, 4, 47, 96
6, 126720, Note_off_c, 4, 47, 0
6, 126720, Note_on_c, 4, 45, 96
6, 126976, Note_off_c, 4, 45, 0
6, 126976, Note_on_c, 4, 43, 96
6, 127488, Note_off_c, 4, 43, 0
6, 127488, Note_on_c, 4, 55, 96
6, 128000, Note_off_c, 4, 55, 0
6, 128000, Note_on_c, 4, 54, 96
6, 128512, Note_off_c, 4, 54, 0
6, 128512, Note_on_c, 4, 42, 96
6, 129024, Note_off_c, 4, 42, 0
6, 129024, Note_on_c, 4, 47, 96
6, 129536, Note_off_c, 4, 47, 0
6, 129536, Note_on_c, 4, 59, 96
6, 130048, Note_off_c, 4, 59, 0
6, 130048, Note_on_c, 4, 57, 96
6, 130560, Note_off_c, 4, 57, 0
6, 130560, Note_on_c, 4, 45, 96
6, 131072, Note_off_c, 4, 45, 0
6, 131072, Note_on_c, 4, 43, 96
6, 131584, Note_off_c, 4, 43, 0
6, 131584, Note_on_c, 4, 55, 96
6, 132096, Note_off_c, 4, 55, 0
6, 132096, Note_on_c, 4, 57, 96
6, 132608, Note_off_c, 4, 57, 0
6, 132608, Note_on_c, 4, 45, 96
6, 133120, Note_off_c, 4, 45, 0
6, 133120, Note_on_c, 4, 50, 96
6, 133632, Note_off_c, 4, 50, 0
6, 133632, Note_on_c, 4, 54, 96
6, 133888, Note_off_c, 4, 54, 0
6, 133888, Note_on_c, 4, 52, 96
6, 134144, Note_off_c, 4, 52, 0
6, 134144, Note_on_c, 4, 50, 96
6, 134656, Note_off_c, 4, 50, 0
6, 134656, Note_on_c, 4, 49, 96
6, 135168, Note_off_c, 4, 49, 0
6, 135168, Note_on_c, 4, 47, 96
6, 135680, Note_off_c, 4, 47, 0
6, 135680, Note_on_c, 4, 59, 96
6, 136192, Note_off_c, 4, 59, 0
6, 139776, Note_on_c, 4, 47, 96
6, 140032, Note_off_c, 4, 47, 0
6, 140032, Note_on_c, 4, 46, 96
6, 140288, Note_off_c, 4, 46, 0
6, 140288, Note_on_c, 4, 47, 96
6, 140544, Note_off_c, 4, 47, 0
6, 140544, Note_on_c, 4, 49, 96
6, 140800, Note_off_c, 4, 49, 0
6, 140800, Note_on_c, 4, 50, 96
6, 141056, Note_off_c, 4, 50, 0
6, 141056, Note_on_c, 4, 52, 96
6, 141312, Note_off_c, 4, 52, 0
6, 141312, Note_on_c, 4, 54, 96
6, 141568, Note_off_c, 4, 54, 0
6, 141568, Note_on_c, 4, 52, 96
6, 141824, Note_off_c, 4, 52, 0
6, 141824, Note_on_c, 4, 54, 96
6, 142080, Note_off_c, 4, 54, 0
6, 142080, Note_on_c, 4, 55, 96
6, 142336, Note_off_c, 4, 55, 0
6, 142336, Note_on_c, 4, 54, 96
6, 142592, Note_off_c, 4, 54, 0
6, 142592, Note_on_c, 4, 52, 96
6, 142848, Note_off_c, 4, 52, 0
6, 142848, Note_on_c, 4, 50, 96
6, 143104, Note_off_c, 4, 50, 0
6, 143104, Note_on_c, 4, 49, 96
6, 143360, Note_off_c, 4, 49, 0
6, 143360, Note_on_c, 4, 47, 96
6, 143872, Note_off_c, 4, 47, 0
6, 143872, Note_on_c, 4, 59, 96
6, 144384, Note_off_c, 4, 59, 0
6, 144384, Note_on_c, 4, 55, 96
6, 144896, Note_off_c, 4, 55, 0
6, 144896, Note_on_c, 4, 50, 96
6, 145408, Note_off_c, 4, 50, 0
6, 145408, Note_on_c, 4, 52, 96
6, 145920, Note_off_c, 4, 52, 0
6, 145920, Note_on_c, 4, 49, 96
6, 146432, Note_off_c, 4, 49, 0
6, 146432, Note_on_c, 4, 54, 96
6, 146944, Note_off_c, 4, 54, 0
6, 146944, Note_on_c, 4, 42, 96
6, 147456, Note_off_c, 4, 42, 0
6, 147456, Note_on_c, 4, 47, 96
6, 147968, Note_off_c, 4, 47, 0
6, 147968, Note_on_c, 4, 54, 96
6, 148480, Note_off_c, 4, 54, 0
6, 148480, Note_on_c, 4, 59, 96
6, 148992, Note_off_c, 4, 59, 0
6, 148992, Note_on_c, 4, 54, 96
6, 149504, Note_off_c, 4, 54, 0
6, 149504, Note_on_c, 4, 55, 96
6, 150016, Note_off_c, 4, 55, 0
6, 150016, Note_on_c, 4, 52, 96
6, 150528, Note_off_c, 4, 52, 0
6, 150528, Note_on_c, 4, 57, 96
6, 150784, Note_off_c, 4, 57, 0
6, 150784, Note_on_c, 4, 55, 96
6, 151040, Note_off_c, 4, 55, 0
6, 151040, Note_on_c, 4, 54, 96
6, 151296, Note_off_c, 4, 54, 0
6, 151296, Note_on_c, 4, 52, 96
6, 151552, Note_off_c, 4, 52, 0
6, 151552, Note_on_c, 4, 50, 96
6, 152064, Note_off_c, 4, 50, 0
6, 152064, Note_on_c, 4, 38, 96
6, 152576, Note_off_c, 4, 38, 0
6, 156160, Note_on_c, 4, 50, 96
6, 156160, Note_on_c, 4, 50, 96
6, 156416, Note_off_c, 4, 50, 0
6, 156416, Note_on_c, 4, 49, 96
6, 156672, Note_off_c, 4, 50, 0
6, 156672, Note_on_c, 4, 45, 96
6, 156672, Note_off_c, 4, 49, 0
6, 156672, Note_on_c, 4, 50, 96
6, 156928, Note_off_c, 4, 50, 0
6, 156928, Note_on_c, 4, 52, 96
6, 157184, Note_off_c, 4, 45, 0
6, 157184, Note_on_c, 4, 50, 96
6, 157184, Note_off_c, 4, 52, 0
6, 157184, Note_on_c, 4, 54, 96
6, 157440, Note_off_c, 4, 54, 0
6, 157440, Note_on_c, 4, 55, 96
6, 157696, Note_off_c, 4, 50, 0
6, 157696, Note_on_c, 4, 45, 96
6, 157696, Note_off_c, 4, 55, 0
6, 157696, Note_on_c, 4, 57, 96
6, 157952, Note_off_c, 4, 57, 0
6, 157952, Note_on_c, 4, 55, 96
6, 158208, Note_off_c, 4, 45, 0
6, 158208, Note_on_c, 4, 45, 96
6, 158208, Note_off_c, 4, 55, 0
6, 158208, Note_on_c, 4, 57, 96
6, 158464, Note_off_c, 4, 57, 0
6, 158464, Note_on_c, 4, 59, 96
6, 158720, Note_off_c, 4, 45, 0
6, 158720, Note_off_c, 4, 59, 0
6, 158720, Note_on_c, 4, 57, 96
6, 158976, Note_off_c, 4, 57, 0
6, 158976, Note_on_c, 4, 55, 96
6, 159232, Note_off_c, 4, 55, 0
6, 159232, Note_on_c, 4, 54, 96
6, 159488, Note_off_c, 4, 54, 0
6, 159488, Note_on_c, 4, 52, 96
6, 159744, Note_off_c, 4, 52, 0
6, 159744, Note_on_c, 4, 50, 96
6, 160256, Note_off_c, 4, 50, 0
6, 160256, Note_on_c, 4, 38, 96
6, 160768, Note_off_c, 4, 38, 0
6, 164352, Note_on_c, 4, 50, 96
6, 164352, Note_on_c, 4, 50, 96
6, 164608, Note_off_c, 4, 50, 0
6, 164608, Note_on_c, 4, 49, 96
6, 164864, Note_off_c, 4, 50, 0
6, 164864, Note_on_c, 4, 45, 96
6, 164864, Note_off_c, 4, 49, 0
6, 164864, Note_on_c, 4, 50, 96
6, 165120, Note_off_c, 4, 50, 0
6, 165120, Note_on_c, 4, 52, 96
6, 165376, Note_off_c, 4, 45, 0
6, 165376, Note_on_c, 4, 50, 96
6, 165376, Note_off_c, 4, 52, 0
6, 165376, Note_on_c, 4, 54, 96
6, 165632, Note_off_c, 4, 54, 0
6, 165632, Note_on_c, 4, 55, 96
6, 165888, Note_off_c, 4, 50, 0
6, 165888, Note_on_c, 4, 45, 96
6, 165888, Note_off_c, 4, 55, 0
6, 165888, Note_on_c, 4, 57, 96
6, 166144, Note_off_c, 4, 57, 0
6, 166144, Note_on_c, 4, 56, 96
6, 166400, Note_off_c, 4, 45, 0
6, 166400, Note_on_c, 4, 45, 96
6, 166400, Note_off_c, 4, 56, 0
6, 166400, Note_on_c, 4, 57, 96
6, 166656, Note_off_c, 4, 57, 0
6, 166656, Note_on_c, 4, 59, 96
6, 166912, Note_off_c, 4, 45, 0
6, 166912, Note_off_c, 4, 59, 0
6, 166912, Note_on_c, 4, 57, 96
6, 167168, Note_off_c, 4, 57, 0
6, 167168, Note_on_c, 4, 56, 96
6, 167424, Note_off_c, 4, 56, 0
6, 167424, Note_on_c, 4, 54, 96
6, 167680, Note_off_c, 4, 54, 0
6, 167680, Note_on_c, 4, 52, 96
6, 167936, Note_off_c, 4, 52, 0
6, 167936, Note_on_c, 4, 57, 96
6, 168448, Note_off_c, 4, 57, 0
6, 168448, Note_on_c, 4, 55, 96
6, 168960, Note_off_c, 4, 55, 0
6, 168960, Note_on_c, 4, 54, 96
6, 169472, Note_off_c, 4, 54, 0
6, 169472, Note_on_c, 4, 50, 96
6, 169984, Note_off_c, 4, 50, 0
6, 169984, Note_on_c, 4, 55, 96
6, 170496, Note_off_c, 4, 55, 0
6, 170496, Note_on_c, 4, 54, 96
6, 171008, Note_off_c, 4, 54, 0
6, 171008, Note_on_c, 4, 52, 96
6, 171520, Note_off_c, 4, 52, 0
6, 171520, Note_on_c, 4, 57, 96
6, 172032, Note_off_c, 4, 57, 0
6, 172032, Note_on_c, 4, 59, 96
6, 172544, Note_off_c, 4, 59, 0
6, 172544, Note_on_c, 4, 57, 96
6, 173056, Note_off_c, 4, 57, 0
6, 173056, Note_on_c, 4, 59, 96
6, 173568, Note_off_c, 4, 59, 0
6, 173568, Note_on_c, 4, 55, 96
6, 174080, Note_off_c, 4, 55, 0
6, 174080, Note_on_c, 4, 50, 96
6, 174592, Note_on_c, 4, 50, 96
6, 174592, Note_off_c, 4, 50, 0
6, 174592, Note_on_c, 4, 62, 96
6, 174848, Note_off_c, 4, 50, 0
6, 174848, Note_on_c, 4, 50, 96
6, 174848, Note_off_c, 4, 62, 0
6, 174848, Note_on_c, 4, 61, 96
6, 175104, Note_off_c, 4, 50, 0
6, 175104, Note_on_c, 4, 50, 96
6, 175104, Note_off_c, 4, 61, 0
6, 175104, Note_on_c, 4, 62, 96
6, 175616, Note_off_c, 4, 50, 0
6, 175616, Note_off_c, 4, 62, 0
6, 175616, Note_on_c, 4, 59, 96
6, 176128, Note_off_c, 4, 59, 0
6, 176128, Note_on_c, 4, 49, 96
6, 176640, Note_off_c, 4, 49, 0
6, 176640, Note_on_c, 4, 47, 96
6, 177152, Note_off_c, 4, 47, 0
6, 177152, Note_on_c, 4, 49, 96
6, 177664, Note_off_c, 4, 49, 0
6, 177664, Note_on_c, 4, 47, 96
6, 178176, Note_off_c, 4, 47, 0
6, 178176, Note_on_c, 4, 49, 96
6, 178688, Note_on_c, 4, 45, 96
6, 178688, Note_off_c, 4, 49, 0
6, 178688, Note_on_c, 4, 61, 96
6, 178944, Note_off_c, 4, 45, 0
6, 178944, Note_on_c, 4, 45, 96
6, 178944, Note_off_c, 4, 61, 0
6, 178944, Note_on_c, 4, 59, 96
6, 179200, Note_off_c, 4, 45, 0
6, 179200, Note_on_c, 4, 45, 96
6, 179200, Note_off_c, 4, 59, 0
6, 179200, Note_on_c, 4, 61, 96
6, 179712, Note_off_c, 4, 45, 0
6, 179712, Note_off_c, 4, 61, 0
6, 179712, Note_on_c, 4, 57, 96
6, 180224, Note_off_c, 4, 57, 0
6, 180224, Note_on_c, 4, 47, 96
6, 180736, Note_off_c, 4, 47, 0
6, 180736, Note_on_c, 4, 59, 96
6, 181248, Note_off_c, 4, 59, 0
6, 181248, Note_on_c, 4, 54, 96
6, 181760, Note_off_c, 4, 54, 0
6, 181760, Note_on_c, 4, 50, 96
6, 182272, Note_off_c, 4, 50, 0
6, 182272, Note_on_c, 4, 43, 96
6, 182784, Note_off_c, 4, 43, 0
6, 182784, Note_on_c, 4, 55, 96
6, 183296, Note_off_c, 4, 55, 0
6, 183296, Note_on_c, 4, 50, 96
6, 183808, Note_off_c, 4, 50, 0
6, 183808, Note_on_c, 4, 47, 96
6, 184320, Note_off_c, 4, 47, 0
6, 184320, Note_on_c, 4, 40, 96
6, 184576, Note_off_c, 4, 40, 0
6, 184576, Note_on_c, 4, 42, 96
6, 184832, Note_off_c, 4, 42, 0
6, 184832, Note_on_c, 4, 43, 96
6, 185088, Note_off_c, 4, 43, 0
6, 185088, Note_on_c, 4, 45, 96
6, 185344, Note_off_c, 4, 45, 0
6, 185344, Note_on_c, 4, 47, 96
6, 185600, Note_off_c, 4, 47, 0
6, 185600, Note_on_c, 4, 50, 96
6, 185856, Note_off_c, 4, 50, 0
6, 185856, Note_on_c, 4, 49, 96
6, 186112, Note_off_c, 4, 49, 0
6, 186112, Note_on_c, 4, 47, 96
6, 186368, Note_off_c, 4, 47, 0
6, 186368, Note_on_c, 4, 46, 96
6, 186624, Note_off_c, 4, 46, 0
6, 186624, Note_on_c, 4, 42, 96
6, 186880, Note_off_c, 4, 42, 0
6, 186880, Note_on_c, 4, 46, 96
6, 187136, Note_off_c, 4, 46, 0
6, 187136, Note_on_c, 4, 49, 96
6, 187392, Note_off_c, 4, 49, 0
6, 187392, Note_on_c, 4, 54, 96
6, 187648, Note_off_c, 4, 54, 0
6, 187648, Note_on_c, 4, 52, 96
6, 187904, Note_off_c, 4, 52, 0
6, 187904, Note_on_c, 4, 50, 96
6, 188160, Note_off_c, 4, 50, 0
6, 188160, Note_on_c, 4, 49, 96
6, 188416, Note_off_c, 4, 49, 0
6, 188416, Note_on_c, 4, 47, 96
6, 188928, Note_off_c, 4, 47, 0
6, 188928, Note_on_c, 4, 59, 96
6, 189440, Note_off_c, 4, 59, 0
6, 193024, Note_on_c, 4, 47, 96
6, 193280, Note_off_c, 4, 47, 0
6, 193280, Note_on_c, 4, 46, 96
6, 193536, Note_off_c, 4, 46, 0
6, 193536, Note_on_c, 4, 47, 96
6, 193792, Note_off_c, 4, 47, 0
6, 193792, Note_on_c, 4, 49, 96
6, 194048, Note_off_c, 4, 49, 0
6, 194048, Note_on_c, 4, 50, 96
6, 194304, Note_off_c, 4, 50, 0
6, 194304, Note_on_c, 4, 52, 96
6, 194560, Note_off_c, 4, 52, 0
6, 194560, Note_on_c, 4, 54, 96
6, 194816, Note_off_c, 4, 54, 0
6, 194816, Note_on_c, 4, 52, 96
6, 195072, Note_off_c, 4, 52, 0
6, 195072, Note_on_c, 4, 54, 96
6, 195328, Note_off_c, 4, 54, 0
6, 195328, Note_on_c, 4, 55, 96
6, 195584, Note_off_c, 4, 55, 0
6, 195584, Note_on_c, 4, 54, 96
6, 195840, Note_off_c, 4, 54, 0
6, 195840, Note_on_c, 4, 52, 96
6, 196096, Note_off_c, 4, 52, 0
6, 196096, Note_on_c, 4, 50, 96
6, 196352, Note_off_c, 4, 50, 0
6, 196352, Note_on_c, 4, 49, 96
6, 196608, Note_off_c, 4, 49, 0
6, 196608, Note_on_c, 4, 47, 96
6, 197120, Note_off_c, 4, 47, 0
6, 197120, Note_on_c, 4, 46, 96
6, 197632, Note_off_c, 4, 46, 0
6, 197632, Note_on_c, 4, 47, 96
6, 198144, Note_off_c, 4, 47, 0
6, 198144, Note_on_c, 4, 45, 96
6, 198656, Note_off_c, 4, 45, 0
6, 198656, Note_on_c, 4, 44, 96
6, 199168, Note_off_c, 4, 44, 0
6, 199168, Note_on_c, 4, 56, 96
6, 199424, Note_off_c, 4, 56, 0
6, 199424, Note_on_c, 4, 54, 96
6, 199680, Note_off_c, 4, 54, 0
6, 199680, Note_on_c, 4, 56, 96
6, 200192, Note_off_c, 4, 56, 0
6, 200192, Note_on_c, 4, 52, 96
6, 200704, Note_off_c, 4, 52, 0
6, 200704, Note_on_c, 4, 45, 96
6, 201216, Note_off_c, 4, 45, 0
6, 201216, Note_on_c, 4, 44, 96
6, 201728, Note_off_c, 4, 44, 0
6, 201728, Note_on_c, 4, 45, 96
6, 202240, Note_off_c, 4, 45, 0
6, 202240, Note_on_c, 4, 44, 96
6, 202752, Note_off_c, 4, 44, 0
6, 202752, Note_on_c, 4, 42, 96
6, 203264, Note_off_c, 4, 42, 0
6, 203264, Note_on_c, 4, 54, 96
6, 203520, Note_off_c, 4, 54, 0
6, 203520, Note_on_c, 4, 52, 96
6, 203776, Note_off_c, 4, 52, 0
6, 203776, Note_on_c, 4, 54, 96
6, 204288, Note_off_c, 4, 54, 0
6, 204288, Note_on_c, 4, 49, 96
6, 204800, Note_off_c, 4, 49, 0
6, 204800, Note_on_c, 4, 50, 96
6, 205312, Note_off_c, 4, 50, 0
6, 205312, Note_on_c, 4, 47, 96
6, 205824, Note_off_c, 4, 47, 0
6, 205824, Note_on_c, 4, 52, 96
6, 206336, Note_off_c, 4, 52, 0
6, 206336, Note_on_c, 4, 40, 96
6, 206848, Note_off_c, 4, 40, 0
6, 206848, Note_on_c, 4, 45, 96
6, 207360, Note_off_c, 4, 45, 0
6, 207360, Note_on_c, 4, 57, 96
6, 207872, Note_off_c, 4, 57, 0
6, 211456, Note_on_c, 4, 45, 96
6, 211712, Note_off_c, 4, 45, 0
6, 211712, Note_on_c, 4, 44, 96
6, 211968, Note_off_c, 4, 44, 0
6, 211968, Note_on_c, 4, 45, 96
6, 212224, Note_off_c, 4, 45, 0
6, 212224, Note_on_c, 4, 47, 96
6, 212480, Note_off_c, 4, 47, 0
6, 212480, Note_on_c, 4, 49, 96
6, 212736, Note_off_c, 4, 49, 0
6, 212736, Note_on_c, 4, 50, 96
6, 212992, Note_off_c, 4, 50, 0
6, 212992, Note_on_c, 4, 52, 96
6, 213248, Note_off_c, 4, 52, 0
6, 213248, Note_on_c, 4, 54, 96
6, 213504, Note_off_c, 4, 54, 0
6, 213504, Note_on_c, 4, 56, 96
6, 213760, Note_off_c, 4, 56, 0
6, 213760, Note_on_c, 4, 54, 96
6, 214016, Note_off_c, 4, 54, 0
6, 214016, Note_on_c, 4, 53, 96
6, 214272, Note_off_c, 4, 53, 0
6, 214272, Note_on_c, 4, 51, 96
6, 214528, Note_off_c, 4, 51, 0
6, 214528, Note_on_c, 4, 53, 96
6, 214784, Note_off_c, 4, 53, 0
6, 214784, Note_on_c, 4, 49, 96
6, 215040, Note_off_c, 4, 49, 0
6, 215040, Note_on_c, 4, 54, 96
6, 215552, Note_off_c, 4, 54, 0
6, 215552, Note_on_c, 4, 42, 96
6, 216064, Note_off_c, 4, 42, 0
6, 219648, Note_on_c, 4, 42, 96
6, 219904, Note_off_c, 4, 42, 0
6, 219904, Note_on_c, 4, 40, 96
6, 220160, Note_off_c, 4, 40, 0
6, 220160, Note_on_c, 4, 42, 96
6, 220416, Note_off_c, 4, 42, 0
6, 220416, Note_on_c, 4, 44, 96
6, 220672, Note_off_c, 4, 44, 0
6, 220672, Note_on_c, 4, 46, 96
6, 220928, Note_off_c, 4, 46, 0
6, 220928, Note_on_c, 4, 42, 96
6, 221184, Note_off_c, 4, 42, 0
6, 221184, Note_on_c, 4, 47, 96
6, 221696, Note_off_c, 4, 47, 0
6, 221696, Note_on_c, 4, 59, 96
6, 222208, Note_off_c, 4, 59, 0
6, 223744, Note_on_c, 4, 40, 96
6, 224000, Note_off_c, 4, 40, 0
6, 224000, Note_on_c, 4, 38, 96
6, 224256, Note_off_c, 4, 38, 0
6, 224256, Note_on_c, 4, 40, 96
6, 224512, Note_off_c, 4, 40, 0
6, 224512, Note_on_c, 4, 42, 96
6, 224768, Note_off_c, 4, 42, 0
6, 224768, Note_on_c, 4, 44, 96
6, 225024, Note_off_c, 4, 44, 0
6, 225024, Note_on_c, 4, 40, 96
6, 225280, Note_off_c, 4, 40, 0
6, 225280, Note_on_c, 4, 45, 96
6, 225792, Note_off_c, 4, 45, 0
6, 225792, Note_on_c, 4, 57, 96
6, 226304, Note_off_c, 4, 57, 0
6, 227840, Note_on_c, 4, 38, 96
6, 228096, Note_off_c, 4, 38, 0
6, 228096, Note_on_c, 4, 36, 96
6, 228352, Note_off_c, 4, 36, 0
6, 228352, Note_on_c, 4, 38, 96
6, 228608, Note_off_c, 4, 38, 0
6, 228608, Note_on_c, 4, 40, 96
6, 228864, Note_off_c, 4, 40, 0
6, 228864, Note_on_c, 4, 42, 96
6, 229120, Note_off_c, 4, 42, 0
6, 229120, Note_on_c, 4, 38, 96
6, 229376, Note_off_c, 4, 38, 0
6, 229376, Note_on_c, 4, 40, 96
6, 229888, Note_off_c, 4, 40, 0
6, 229888, Note_on_c, 4, 52, 96
6, 230400, Note_off_c, 4, 52, 0
6, 230400, Note_on_c, 4, 54, 96
6, 230912, Note_off_c, 4, 54, 0
6, 230912, Note_on_c, 4, 55, 96
6, 231424, Note_off_c, 4, 55, 0
6, 231424, Note_on_c, 4, 57, 96
6, 231936, Note_off_c, 4, 57, 0
6, 231936, Note_on_c, 4, 55, 96
6, 232448, Note_off_c, 4, 55, 0
6, 232448, Note_on_c, 4, 57, 96
6, 232960, Note_off_c, 4, 57, 0
6, 232960, Note_on_c, 4, 45, 96
6, 233472, Note_off_c, 4, 45, 0
6, 233472, Note_on_c, 4, 50, 96
6, 233984, Note_off_c, 4, 50, 0
6, 233984, Note_on_c, 4, 38, 96
6, 234496, Note_off_c, 4, 38, 0
6, 238080, Note_on_c, 4, 50, 96
6, 238080, Note_on_c, 4, 50, 96
6, 238336, Note_off_c, 4, 50, 0
6, 238336, Note_on_c, 4, 49, 96
6, 238592, Note_off_c, 4, 50, 0
6, 238592, Note_on_c, 4, 45, 96
6, 238592, Note_off_c, 4, 49, 0
6, 238592, Note_on_c, 4, 50, 96
6, 238848, Note_off_c, 4, 50, 0
6, 238848, Note_on_c, 4, 52, 96
6, 239104, Note_off_c, 4, 45, 0
6, 239104, Note_on_c, 4, 50, 96
6, 239104, Note_off_c, 4, 52, 0
6, 239104, Note_on_c, 4, 54, 96
6, 239360, Note_off_c, 4, 54, 0
6, 239360, Note_on_c, 4, 55, 96
6, 239616, Note_off_c, 4, 50, 0
6, 239616, Note_on_c, 4, 45, 96
6, 239616, Note_off_c, 4, 55, 0
6, 239616, Note_on_c, 4, 57, 96
6, 239872, Note_off_c, 4, 57, 0
6, 239872, Note_on_c, 4, 55, 96
6, 240128, Note_off_c, 4, 45, 0
6, 240128, Note_on_c, 4, 45, 96
6, 240128, Note_off_c, 4, 55, 0
6, 240128, Note_on_c, 4, 57, 96
6, 240384, Note_off_c, 4, 57, 0
6, 240384, Note_on_c, 4, 59, 96
6, 240640, Note_off_c, 4, 45, 0
6, 240640, Note_off_c, 4, 59, 0
6, 240640, Note_on_c, 4, 57, 96
6, 240896, Note_off_c, 4, 57, 0
6, 240896, Note_on_c, 4, 55, 96
6, 241152, Note_off_c, 4, 55, 0
6, 241152, Note_on_c, 4, 54, 96
6, 241408, Note_off_c, 4, 54, 0
6, 241408, Note_on_c, 4, 52, 96
6, 241664, Note_off_c, 4, 52, 0
6, 241664, Note_on_c, 4, 50, 96
6, 242176, Note_off_c, 4, 50, 0
6, 242176, Note_on_c, 4, 38, 96
6, 242688, Note_off_c, 4, 38, 0
6, 246272, Note_on_c, 4, 50, 96
6, 246272, Note_on_c, 4, 50, 96
6, 246528, Note_off_c, 4, 50, 0
6, 246528, Note_on_c, 4, 49, 96
6, 246784, Note_off_c, 4, 50, 0
6, 246784, Note_on_c, 4, 45, 96
6, 246784, Note_off_c, 4, 49, 0
6, 246784, Note_on_c, 4, 50, 96
6, 247040, Note_off_c, 4, 50, 0
6, 247040, Note_on_c, 4, 52, 96
6, 247296, Note_off_c, 4, 45, 0
6, 247296, Note_on_c, 4, 50, 96
6, 247296, Note_off_c, 4, 52, 0
6, 247296, Note_on_c, 4, 54, 96
6, 247552, Note_off_c, 4, 54, 0
6, 247552, Note_on_c, 4, 55, 96
6, 247808, Note_off_c, 4, 50, 0
6, 247808, Note_on_c, 4, 45, 96
6, 247808, Note_off_c, 4, 55, 0
6, 247808, Note_on_c, 4, 57, 96
6, 248064, Note_off_c, 4, 57, 0
6, 248064, Note_on_c, 4, 55, 96
6, 248320, Note_off_c, 4, 45, 0
6, 248320, Note_on_c, 4, 45, 96
6, 248320, Note_off_c, 4, 55, 0
6, 248320, Note_on_c, 4, 57, 96
6, 248576, Note_off_c, 4, 57, 0
6, 248576, Note_on_c, 4, 59, 96
6, 248832, Note_off_c, 4, 45, 0
6, 248832, Note_off_c, 4, 59, 0
6, 248832, Note_on_c, 4, 57, 96
6, 249088, Note_off_c, 4, 57, 0
6, 249088, Note_on_c, 4, 55, 96
6, 249344, Note_off_c, 4, 55, 0
6, 249344, Note_on_c, 4, 54, 96
6, 249600, Note_off_c, 4, 54, 0
6, 249600, Note_on_c, 4, 52, 96
6, 249856, Note_off_c, 4, 52, 0
6, 249856, Note_on_c, 4, 50, 96
6, 250368, Note_off_c, 4, 50, 0
6, 250368, Note_on_c, 4, 49, 96
6, 250880, Note_off_c, 4, 49, 0
6, 250880, Note_on_c, 4, 50, 96
6, 251392, Note_off_c, 4, 50, 0
6, 251392, Note_on_c, 4, 49, 96
6, 251904, Note_off_c, 4, 49, 0
6, 251904, Note_on_c, 4, 50, 96
6, 252416, Note_on_c, 4, 50, 96
6, 252416, Note_off_c, 4, 50, 0
6, 252416, Note_on_c, 4, 62, 96
6, 252672, Note_off_c, 4, 50, 0
6, 252672, Note_on_c, 4, 50, 96
6, 252672, Note_off_c, 4, 62, 0
6, 252672, Note_on_c, 4, 61, 96
6, 252928, Note_off_c, 4, 50, 0
6, 252928, Note_on_c, 4, 50, 96
6, 252928, Note_off_c, 4, 61, 0
6, 252928, Note_on_c, 4, 62, 96
6, 253440, Note_off_c, 4, 50, 0
6, 253440, Note_off_c, 4, 62, 0
6, 253440, Note_on_c, 4, 59, 96
6, 253952, Note_off_c, 4, 59, 0
6, 253952, Note_on_c, 4, 49, 96
6, 254464, Note_off_c, 4, 49, 0
6, 254464, Note_on_c, 4, 47, 96
6, 254976, Note_off_c, 4, 47, 0
6, 254976, Note_on_c, 4, 49, 96
6, 255488, Note_off_c, 4, 49, 0
6, 255488, Note_on_c, 4, 47, 96
6, 256000, Note_off_c, 4, 47, 0
6, 256000, Note_on_c, 4, 49, 96
6, 256512, Note_on_c, 4, 45, 96
6, 256512, Note_off_c, 4, 49, 0
6, 256512, Note_on_c, 4, 61, 96
6, 256768, Note_off_c, 4, 45, 0
6, 256768, Note_on_c, 4, 45, 96
6, 256768, Note_off_c, 4, 61, 0
6, 256768, Note_on_c, 4, 59, 96
6, 257024, Note_off_c, 4, 45, 0
6, 257024, Note_on_c, 4, 45, 96
6, 257024, Note_off_c, 4, 59, 0
6, 257024, Note_on_c, 4, 61, 96
6, 257536, Note_off_c, 4, 45, 0
6, 257536, Note_off_c, 4, 61, 0
6, 257536, Note_on_c, 4, 57, 96
6, 258048, Note_off_c, 4, 57, 0
6, 258048, Note_on_c, 4, 47, 96
6, 258560, Note_off_c, 4, 47, 0
6, 258560, Note_on_c, 4, 59, 96
6, 259072, Note_off_c, 4, 59, 0
6, 259072, Note_on_c, 4, 57, 96
6, 259584, Note_off_c, 4, 57, 0
6, 259584, Note_on_c, 4, 45, 96
6, 260096, Note_off_c, 4, 45, 0
6, 260096, Note_on_c, 4, 43, 96
6, 260608, Note_off_c, 4, 43, 0
6, 260608, Note_on_c, 4, 55, 96
6, 261120, Note_off_c, 4, 55, 0
6, 261120, Note_on_c, 4, 54, 96
6, 261632, Note_off_c, 4, 54, 0
6, 261632, Note_on_c, 4, 42, 96
6, 262144, Note_off_c, 4, 42, 0
6, 262144, Note_on_c, 4, 40, 96
6, 262400, Note_off_c, 4, 40, 0
6, 262400, Note_on_c, 4, 42, 96
6, 262656, Note_off_c, 4, 42, 0
6, 262656, Note_on_c, 4, 43, 96
6, 262912, Note_off_c, 4, 43, 0
6, 262912, Note_on_c, 4, 45, 96
6, 263168, Note_off_c, 4, 45, 0
6, 263168, Note_on_c, 4, 47, 96
6, 263424, Note_off_c, 4, 47, 0
6, 263424, Note_on_c, 4, 49, 96
6, 263680, Note_off_c, 4, 49, 0
6, 263680, Note_on_c, 4, 50, 96
6, 263936, Note_off_c, 4, 50, 0
6, 263936, Note_on_c, 4, 47, 96
6, 264192, Note_off_c, 4, 47, 0
6, 264192, Note_on_c, 4, 49, 96
6, 264448, Note_off_c, 4, 49, 0
6, 264448, Note_on_c, 4, 45, 96
6, 264704, Note_on_c, 4, 45, 96
6, 264704, Note_off_c, 4, 45, 0
6, 264704, Note_on_c, 4, 49, 96
6, 264960, Note_off_c, 4, 45, 0
6, 264960, Note_on_c, 4, 45, 96
6, 264960, Note_off_c, 4, 49, 0
6, 264960, Note_on_c, 4, 52, 96
6, 265216, Note_off_c, 4, 45, 0
6, 265216, Note_on_c, 4, 45, 96
6, 265216, Note_off_c, 4, 52, 0
6, 265216, Note_on_c, 4, 57, 96
6, 265728, Note_off_c, 4, 45, 0
6, 265728, Note_on_c, 4, 45, 96
6, 265728, Note_off_c, 4, 57, 0
6, 265728, Note_on_c, 4, 49, 96
6, 266240, Note_off_c, 4, 45, 0
6, 266240, Note_off_c, 4, 49, 0
6, 266240, Note_on_c, 4, 50, 96
6, 266240, Note_on_c, 4, 50, 96
6, 266752, Note_off_c, 4, 50, 0
6, 266752, Note_on_c, 4, 50, 96
6, 266752, Note_off_c, 4, 50, 0
6, 266752, Note_on_c, 4, 47, 96
6, 267008, Note_off_c, 4, 50, 0
6, 267008, Note_on_c, 4, 50, 96
6, 267264, Note_off_c, 4, 50, 0
6, 267264, Note_on_c, 4, 50, 96
6, 267264, Note_off_c, 4, 47, 0
6, 267264, Note_on_c, 4, 43, 96
6, 267776, Note_off_c, 4, 50, 0
6, 267776, Note_on_c, 4, 45, 96
6, 267776, Note_off_c, 4, 43, 0
6, 267776, Note_on_c, 4, 45, 96
6, 268288, Note_off_c, 4, 45, 0
6, 268288, Note_on_c, 4, 50, 96
6, 268288, Note_off_c, 4, 45, 0
6, 268288, Note_on_c, 4, 47, 96
6, 268800, Note_off_c, 4, 50, 0
6, 268800, Note_off_c, 4, 47, 0
6, 268800, Note_on_c, 4, 59, 96
6, 269056, Note_off_c, 4, 59, 0
6, 269056, Note_on_c, 4, 57, 96
6, 269312, Note_off_c, 4, 57, 0
6, 269312, Note_on_c, 4, 59, 96
6, 269824, Note_off_c, 4, 59, 0
6, 269824, Note_on_c, 4, 47, 96
6, 270336, Note_off_c, 4, 47, 0
6, 270336, Note_on_c, 4, 50, 96
6, 270336, Note_on_c, 4, 42, 96
6, 270848, Note_off_c, 4, 50, 0
6, 270848, Note_off_c, 4, 42, 0
6, 270848, Note_on_c, 4, 54, 96
6, 271104, Note_off_c, 4, 54, 0
6, 271104, Note_on_c, 4, 52, 96
6, 271360, Note_off_c, 4, 52, 0
6, 271360, Note_on_c, 4, 54, 96
6, 271872, Note_off_c, 4, 54, 0
6, 271872, Note_on_c, 4, 50, 96
6, 272384, Note_off_c, 4, 50, 0
6, 272384, Note_on_c, 4, 55, 96
6, 272896, Note_off_c, 4, 55, 0
6, 272896, Note_on_c, 4, 43, 96
6, 273408, Note_off_c, 4, 43, 0
6, 273408, Note_on_c, 4, 42, 96
6, 273920, Note_off_c, 4, 42, 0
6, 273920, Note_on_c, 4, 54, 96
6, 274432, Note_off_c, 4, 54, 0
6, 274432, Note_on_c, 4, 52, 96
6, 274944, Note_off_c, 4, 52, 0
6, 274944, Note_on_c, 4, 40, 96
6, 275456, Note_off_c, 4, 40, 0
6, 275456, Note_on_c, 4, 38, 96
6, 275968, Note_off_c, 4, 38, 0
6, 275968, Note_on_c, 4, 50, 96
6, 276480, Note_off_c, 4, 50, 0
6, 276480, Note_on_c, 4, 49, 96
6, 276736, Note_off_c, 4, 49, 0
6, 276736, Note_on_c, 4, 62, 96
6, 276992, Note_off_c, 4, 62, 0
6, 276992, Note_on_c, 4, 61, 96
6, 277248, Note_off_c, 4, 61, 0
6, 277248, Note_on_c, 4, 59, 96
6, 277504, Note_off_c, 4, 59, 0
6, 277504, Note_on_c, 4, 57, 96
6, 277760, Note_off_c, 4, 57, 0
6, 277760, Note_on_c, 4, 55, 96
6, 278016, Note_off_c, 4, 55, 0
6, 278016, Note_on_c, 4, 54, 96
6, 278272, Note_off_c, 4, 54, 0
6, 278272, Note_on_c, 4, 52, 96
6, 278528, Note_off_c, 4, 52, 0
6, 278528, Note_on_c, 4, 50, 96
6, 278784, Note_off_c, 4, 50, 0
6, 278784, Note_on_c, 4, 49, 96
6, 279040, Note_on_c, 4, 50, 96
6, 279040, Note_off_c, 4, 49, 0
6, 279040, Note_on_c, 4, 47, 96
6, 279296, Note_off_c, 4, 50, 0
6, 279296, Note_on_c, 4, 50, 96
6, 279296, Note_off_c, 4, 47, 0
6, 279296, Note_on_c, 4, 45, 96
6, 279552, Note_off_c, 4, 50, 0
6, 279552, Note_on_c, 4, 50, 96
6, 279552, Note_off_c, 4, 45, 0
6, 279552, Note_on_c, 4, 43, 96
6, 280064, Note_off_c, 4, 50, 0
6, 280064, Note_on_c, 4, 45, 96
6, 280064, Note_off_c, 4, 43, 0
6, 280064, Note_on_c, 4, 45, 96
6, 280576, Note_off_c, 4, 45, 0
6, 280576, Note_on_c, 4, 50, 96
6, 280576, Note_off_c, 4, 45, 0
6, 280576, Note_on_c, 4, 38, 96
6, 284672, Note_off_c, 4, 50, 0
6, 284672, Note_off_c, 4, 38, 0
6, 284672, End_track
7, 0, Start_track
7, 0, Title_t, "Instrument 6"
7, 3584, Note_on_c, 5, 69, 96
7, 4096, Note_off_c, 5, 69, 0
7, 4096, Note_on_c, 5, 74, 96
7, 4352, Note_off_c, 5, 74, 0
7, 4352, Note_on_c, 5, 76, 96
7, 4608, Note_off_c, 5, 76, 0
7, 4608, Note_on_c, 5, 78, 96
7, 4864, Note_off_c, 5, 78, 0
7, 4864, Note_on_c, 5, 76, 96
7, 5120, Note_off_c, 5, 76, 0
7, 5120, Note_on_c, 5, 74, 96
7, 5632, Note_off_c, 5, 74, 0
7, 5632, Note_on_c, 5, 69, 96
7, 6144, Note_off_c, 5, 69, 0
7, 6144, Note_on_c, 5, 69, 96
7, 6656, Note_off_c, 5, 69, 0
7, 6656, Note_on_c, 5, 66, 96
7, 7168, Note_off_c, 5, 66, 0
7, 7168, Note_on_c, 5, 66, 96
7, 7680, Note_off_c, 5, 66, 0
7, 7680, Note_on_c, 5, 62, 96
7, 8192, Note_off_c, 5, 62, 0
7, 8192, Note_on_c, 5, 62, 96
7, 8704, Note_off_c, 5, 62, 0
7, 8704, Note_on_c, 5, 81, 96
7, 8704, Note_on_c, 5, 78, 96
7, 8704, Note_on_c, 5, 69, 96
7, 9216, Note_off_c, 5, 81, 0
7, 9216, Note_on_c, 5, 79, 96
7, 9216, Note_off_c, 5, 78, 0
7, 9216, Note_on_c, 5, 76, 96
7, 9216, Note_off_c, 5, 69, 0
7, 9216, Note_on_c, 5, 69, 96
7, 9728, Note_off_c, 5, 79, 0
7, 9728, Note_on_c, 5, 78, 96
7, 9728, Note_off_c, 5, 76, 0
7, 9728, Note_on_c, 5, 74, 96
7, 9728, Note_off_c, 5, 69, 0
7, 9728, Note_on_c, 5, 69, 96
7, 10240, Note_off_c, 5, 78, 0
7, 10240, Note_on_c, 5, 78, 96
7, 10240, Note_off_c, 5, 74, 0
7, 10240, Note_on_c, 5, 74, 96
7, 10240, Note_off_c, 5, 69, 0
7, 10240, Note_on_c, 5, 69, 96
7, 10752, Note_off_c, 5, 78, 0
7, 10752, Note_on_c, 5, 76, 96
7, 10752, Note_off_c, 5, 74, 0
7, 10752, Note_on_c, 5, 69, 96
7, 10752, Note_off_c, 5, 69, 0
7, 10752, Note_on_c, 5, 69, 96
7, 11264, Note_off_c, 5, 76, 0
7, 11264, Note_on_c, 5, 69, 96
7, 11264, Note_off_c, 5, 69, 0
7, 11264, Note_off_c, 5, 69, 0
7, 12288, Note_off_c, 5, 69, 0
7, 12288, Note_on_c, 5, 74, 96
7, 12544, Note_off_c, 5, 74, 0
7, 12544, Note_on_c, 5, 76, 96
7, 12800, Note_off_c, 5, 76, 0
7, 12800, Note_on_c, 5, 78, 96
7, 13568, Note_off_c, 5, 78, 0
7, 13568, Note_on_c, 5, 79, 96
7, 13824, Note_off_c, 5, 79, 0
7, 13824, Note_on_c, 5, 78, 96
7, 14080, Note_off_c, 5, 78, 0
7, 14080, Note_on_c, 5, 76, 96
7, 14336, Note_off_c, 5, 76, 0
7, 14336, Note_on_c, 5, 78, 96
7, 14592, Note_off_c, 5, 78, 0
7, 14592, Note_on_c, 5, 76, 96
7, 14848, Note_off_c, 5, 76, 0
7, 14848, Note_on_c, 5, 74, 96
7, 15616, Note_off_c, 5, 74, 0
7, 15616, Note_on_c, 5, 69, 96
7, 15872, Note_off_c, 5, 69, 0
7, 15872, Note_on_c, 5, 74, 96
7, 16128, Note_off_c, 5, 74, 0
7, 16128, Note_on_c, 5, 76, 96
7, 16384, Note_off_c, 5, 76, 0
7, 16384, Note_on_c, 5, 78, 96
7, 16640, Note_off_c, 5, 78, 0
7, 16640, Note_on_c, 5, 74, 96
7, 16896, Note_off_c, 5, 74, 0
7, 16896, Note_on_c, 5, 81, 96
7, 16896, Note_on_c, 5, 78, 96
7, 16896, Note_on_c, 5, 69, 96
7, 17408, Note_off_c, 5, 81, 0
7, 17408, Note_on_c, 5, 79, 96
7, 17408, Note_off_c, 5, 78, 0
7, 17408, Note_on_c, 5, 76, 96
7, 17408, Note_off_c, 5, 69, 0
7, 17408, Note_on_c, 5, 69, 96
7, 17920, Note_off_c, 5, 79, 0
7, 17920, Note_on_c, 5, 78, 96
7, 17920, Note_off_c, 5, 76, 0
7, 17920, Note_on_c, 5, 74, 96
7, 17920, Note_off_c, 5, 69, 0
7, 17920, Note_on_c, 5, 69, 96
7, 18432, Note_off_c, 5, 78, 0
7, 18432, Note_on_c, 5, 78, 96
7, 18432, Note_off_c, 5, 74, 0
7, 18432, Note_on_c, 5, 74, 96
7, 18432, Note_off_c, 5, 69, 0
7, 18432, Note_on_c, 5, 69, 96
7, 18944, Note_off_c, 5, 78, 0
7, 18944, Note_on_c, 5, 76, 96
7, 18944, Note_off_c, 5, 74, 0
7, 18944, Note_on_c, 5, 69, 96
7, 18944, Note_off_c, 5, 69, 0
7, 18944, Note_on_c, 5, 69, 96
7, 19456, Note_off_c, 5, 76, 0
7, 19456, Note_on_c, 5, 81, 96
7, 19456, Note_off_c, 5, 69, 0
7, 19456, Note_off_c, 5, 69, 0
7, 20480, Note_off_c, 5, 81, 0
7, 20480, Note_on_c, 5, 78, 96
7, 20736, Note_off_c, 5, 78, 0
7, 20736, Note_on_c, 5, 78, 96
7, 20992, Note_off_c, 5, 78, 0
7, 20992, Note_on_c, 5, 79, 96
7, 21248, Note_off_c, 5, 79, 0
7, 21248, Note_on_c, 5, 81, 96
7, 21504, Note_off_c, 5, 81, 0
7, 21504, Note_on_c, 5, 78, 96
7, 21760, Note_off_c, 5, 78, 0
7, 21760, Note_on_c, 5, 78, 96
7, 22016, Note_off_c, 5, 78, 0
7, 22016, Note_on_c, 5, 79, 96
7, 22272, Note_off_c, 5, 79, 0
7, 22272, Note_on_c, 5, 81, 96
7, 22528, Note_off_c, 5, 81, 0
7, 22528, Note_on_c, 5, 78, 96
7, 23040, Note_off_c, 5, 78, 0
7, 23040, Note_on_c, 5, 83, 96
7, 23040, Note_on_c, 5, 78, 96
7, 23040, Note_on_c, 5, 74, 96
7, 23296, Note_off_c, 5, 78, 0
7, 23296, Note_on_c, 5, 76, 96
7, 23296, Note_off_c, 5, 74, 0
7, 23296, Note_on_c, 5, 69, 96
7, 23552, Note_off_c, 5, 83, 0
7, 23552, Note_off_c, 5, 76, 0
7, 23552, Note_on_c, 5, 78, 96
7, 23552, Note_off_c, 5, 69, 0
7, 23552, Note_on_c, 5, 66, 96
7, 23808, Note_on_c, 5, 81, 96
7, 24064, Note_off_c, 5, 81, 0
7, 24064, Note_on_c, 5, 79, 96
7, 24064, Note_off_c, 5, 78, 0
7, 24064, Note_off_c, 5, 66, 0
7, 24320, Note_off_c, 5, 79, 0
7, 24320, Note_on_c, 5, 78, 96
7, 24576, Note_off_c, 5, 78, 0
7, 24576, Note_on_c, 5, 76, 96
7, 24832, Note_off_c, 5, 76, 0
7, 24832, Note_on_c, 5, 76, 96
7, 25088, Note_off_c, 5, 76, 0
7, 25088, Note_on_c, 5, 78, 96
7, 25344, Note_off_c, 5, 78, 0
7, 25344, Note_on_c, 5, 79, 96
7, 25600, Note_off_c, 5, 79, 0
7, 25600, Note_on_c, 5, 76, 96
7, 25856, Note_off_c, 5, 76, 0
7, 25856, Note_on_c, 5, 76, 96
7, 26112, Note_off_c, 5, 76, 0
7, 26112, Note_on_c, 5, 78, 96
7, 26368, Note_off_c, 5, 78, 0
7, 26368, Note_on_c, 5, 79, 96
7, 26624, Note_off_c, 5, 79, 0
7, 26624, Note_on_c, 5, 76, 96
7, 27136, Note_off_c, 5, 76, 0
7, 27136, Note_on_c, 5, 81, 96
7, 27136, Note_on_c, 5, 76, 96
7, 27136, Note_on_c, 5, 69, 96
7, 27392, Note_off_c, 5, 76, 0
7, 27392, Note_on_c, 5, 74, 96
7, 27392, Note_off_c, 5, 69, 0
7, 27392, Note_on_c, 5, 69, 96
7, 27648, Note_off_c, 5, 81, 0
7, 27648, Note_off_c, 5, 74, 0
7, 27648, Note_on_c, 5, 76, 96
7, 27648, Note_off_c, 5, 69, 0
7, 27648, Note_on_c, 5, 69, 96
7, 27904, Note_on_c, 5, 79, 96
7, 28160, Note_off_c, 5, 79, 0
7, 28160, Note_on_c, 5, 78, 96
7, 28160, Note_off_c, 5, 76, 0
7, 28160, Note_off_c, 5, 69, 0
7, 28416, Note_off_c, 5, 78, 0
7, 28416, Note_on_c, 5, 76, 96
7, 28672, Note_off_c, 5, 76, 0
7, 28672, Note_on_c, 5, 74, 96
7, 28928, Note_off_c, 5, 74, 0
7, 28928, Note_on_c, 5, 86, 96
7, 29184, Note_off_c, 5, 86, 0
7, 29184, Note_on_c, 5, 85, 96
7, 29440, Note_off_c, 5, 85, 0
7, 29440, Note_on_c, 5, 83, 96
7, 29696, Note_off_c, 5, 83, 0
7, 29696, Note_on_c, 5, 74, 96
7, 29952, Note_off_c, 5, 74, 0
7, 29952, Note_on_c, 5, 85, 96
7, 30208, Note_off_c, 5, 85, 0
7, 30208, Note_on_c, 5, 83, 96
7, 30464, Note_off_c, 5, 83, 0
7, 30464, Note_on_c, 5, 81, 96
7, 30720, Note_off_c, 5, 81, 0
7, 30720, Note_on_c, 5, 74, 96
7, 30976, Note_off_c, 5, 74, 0
7, 30976, Note_on_c, 5, 83, 96
7, 31232, Note_off_c, 5, 83, 0
7, 31232, Note_on_c, 5, 81, 96
7, 31488, Note_off_c, 5, 81, 0
7, 31488, Note_on_c, 5, 79, 96
7, 31744, Note_off_c, 5, 79, 0
7, 31744, Note_on_c, 5, 74, 96
7, 32000, Note_off_c, 5, 74, 0
7, 32000, Note_on_c, 5, 81, 96
7, 32256, Note_off_c, 5, 81, 0
7, 32256, Note_on_c, 5, 79, 96
7, 32512, Note_off_c, 5, 79, 0
7, 32512, Note_on_c, 5, 78, 96
7, 32768, Note_off_c, 5, 78, 0
7, 32768, Note_on_c, 5, 79, 96
7, 33280, Note_off_c, 5, 79, 0
7, 33280, Note_on_c, 5, 76, 96
7, 33792, Note_off_c, 5, 76, 0
7, 33792, Note_on_c, 5, 76, 96
7, 34304, Note_off_c, 5, 76, 0
7, 34304, Note_on_c, 5, 69, 96
7, 34816, Note_off_c, 5, 69, 0
7, 34816, Note_on_c, 5, 69, 96
7, 35328, Note_off_c, 5, 69, 0
7, 35328, Note_on_c, 5, 79, 96
7, 35328, Note_on_c, 5, 76, 96
7, 35328, Note_on_c, 5, 69, 96
7, 35584, Note_off_c, 5, 76, 0
7, 35584, Note_on_c, 5, 76, 96
7, 35584, Note_off_c, 5, 69, 0
7, 35584, Note_on_c, 5, 69, 96
7, 35840, Note_off_c, 5, 79, 0
7, 35840, Note_off_c, 5, 76, 0
7, 35840, Note_on_c, 5, 76, 96
7, 35840, Note_off_c, 5, 69, 0
7, 35840, Note_on_c, 5, 69, 96
7, 36352, Note_on_c, 5, 81, 96
7, 36352, Note_off_c, 5, 76, 0
7, 36352, Note_on_c, 5, 76, 96
7, 36352, Note_off_c, 5, 69, 0
7, 36352, Note_on_c, 5, 69, 96
7, 36864, Note_off_c, 5, 81, 0
7, 36864, Note_off_c, 5, 76, 0
7, 36864, Note_off_c, 5, 69, 0
7, 36864, Note_on_c, 5, 79, 96
7, 36864, Note_on_c, 5, 74, 96
7, 36864, Note_on_c, 5, 69, 96
7, 37120, Note_off_c, 5, 79, 0
7, 37120, Note_on_c, 5, 78, 96
7, 37376, Note_off_c, 5, 78, 0
7, 37376, Note_on_c, 5, 76, 96
7, 37376, Note_off_c, 5, 74, 0
7, 37376, Note_on_c, 5, 78, 96
7, 37376, Note_off_c, 5, 69, 0
7, 37376, Note_on_c, 5, 62, 96
7, 37632, Note_off_c, 5, 76, 0
7, 37632, Note_on_c, 5, 74, 96
7, 37632, Note_off_c, 5, 62, 0
7, 37632, Note_on_c, 5, 62, 96
7, 37888, Note_off_c, 5, 74, 0
7, 37888, Note_on_c, 5, 78, 96
7, 37888, Note_off_c, 5, 78, 0
7, 37888, Note_on_c, 5, 83, 96
7, 37888, Note_off_c, 5, 62, 0
7, 37888, Note_on_c, 5, 62, 96
7, 38400, Note_off_c, 5, 78, 0
7, 38400, Note_on_c, 5, 76, 96
7, 38400, Note_off_c, 5, 83, 0
7, 38400, Note_on_c, 5, 81, 96
7, 38400, Note_off_c, 5, 62, 0
7, 38400, Note_on_c, 5, 69, 96
7, 38656, Note_off_c, 5, 81, 0
7, 38656, Note_on_c, 5, 79, 96
7, 38912, Note_off_c, 5, 76, 0
7, 38912, Note_on_c, 5, 74, 96
7, 38912, Note_off_c, 5, 79, 0
7, 38912, Note_on_c, 5, 78, 96
7, 38912, Note_off_c, 5, 69, 0
7, 38912, Note_on_c, 5, 62, 96
7, 39424, Note_off_c, 5, 78, 0
7, 39424, Note_off_c, 5, 62, 0
7, 40192, Note_off_c, 5, 74, 0
7, 40192, Note_on_c, 5, 76, 96
7, 40320, Note_off_c, 5, 76, 0
7, 40320, Note_on_c, 5, 78, 96
7, 40448, Note_off_c, 5, 78, 0
7, 40448, Note_on_c, 5, 79, 96
7, 40704, Note_off_c, 5, 79, 0
7, 40704, Note_on_c, 5, 78, 96
7, 40832, Note_off_c, 5, 78, 0
7, 40832, Note_on_c, 5, 76, 96
7, 40960, Note_off_c, 5, 76, 0
7, 40960, Note_on_c, 5, 74, 96
7, 40960, Note_on_c, 5, 81, 96
7, 40960, Note_on_c, 5, 66, 96
7, 41472, Note_off_c, 5, 81, 0
7, 41472, Note_off_c, 5, 66, 0
7, 42240, Note_off_c, 5, 74, 0
7, 42240, Note_on_c, 5, 76, 96
7, 42368, Note_off_c, 5, 76, 0
7, 42368, Note_on_c, 5, 78, 96
7, 42496, Note_off_c, 5, 78, 0
7, 42496, Note_on_c, 5, 79, 96
7, 42752, Note_off_c, 5, 79, 0
7, 42752, Note_on_c, 5, 78, 96
7, 42880, Note_off_c, 5, 78, 0
7, 42880, Note_on_c, 5, 76, 96
7, 43008, Note_off_c, 5, 76, 0
7, 43008, Note_on_c, 5, 74, 96
7, 43264, Note_off_c, 5, 74, 0
7, 43264, Note_on_c, 5, 76, 96
7, 43392, Note_off_c, 5, 76, 0
7, 43392, Note_on_c, 5, 78, 96
7, 43520, Note_off_c, 5, 78, 0
7, 43520, Note_on_c, 5, 79, 96
7, 43776, Note_off_c, 5, 79, 0
7, 43776, Note_on_c, 5, 78, 96
7, 43904, Note_off_c, 5, 78, 0
7, 43904, Note_on_c, 5, 76, 96
7, 44032, Note_off_c, 5, 76, 0
7, 44032, Note_on_c, 5, 74, 96
7, 44288, Note_off_c, 5, 74, 0
7, 44288, Note_on_c, 5, 76, 96
7, 44416, Note_off_c, 5, 76, 0
7, 44416, Note_on_c, 5, 78, 96
7, 44544, Note_off_c, 5, 78, 0
7, 44544, Note_on_c, 5, 79, 96
7, 44800, Note_off_c, 5, 79, 0
7, 44800, Note_on_c, 5, 78, 96
7, 44928, Note_off_c, 5, 78, 0
7, 44928, Note_on_c, 5, 76, 96
7, 45056, Note_off_c, 5, 76, 0
7, 45056, Note_on_c, 5, 74, 96
7, 45568, Note_off_c, 5, 74, 0
7, 45568, Note_on_c, 5, 80, 96
7, 46080, Note_off_c, 5, 80, 0
7, 46336, Note_on_c, 5, 83, 96
7, 46592, Note_off_c, 5, 83, 0
7, 46592, Note_on_c, 5, 81, 96
7, 46848, Note_off_c, 5, 81, 0
7, 46848, Note_on_c, 5, 80, 96
7, 47104, Note_off_c, 5, 80, 0
7, 47104, Note_on_c, 5, 81, 96
7, 47616, Note_off_c, 5, 81, 0
7, 47616, Note_on_c, 5, 69, 96
7, 48128, Note_off_c, 5, 69, 0
7, 48640, Note_on_c, 5, 79, 96
7, 49152, Note_off_c, 5, 79, 0
7, 49152, Note_on_c, 5, 78, 96
7, 49664, Note_off_c, 5, 78, 0
7, 49664, Note_on_c, 5, 86, 96
7, 49664, Note_on_c, 5, 78, 96
7, 49664, Note_on_c, 5, 74, 96
7, 50176, Note_off_c, 5, 86, 0
7, 50176, Note_on_c, 5, 76, 96
7, 50176, Note_off_c, 5, 78, 0
7, 50176, Note_on_c, 5, 83, 96
7, 50176, Note_off_c, 5, 74, 0
7, 50176, Note_on_c, 5, 79, 96
7, 50688, Note_off_c, 5, 76, 0
7, 50688, Note_on_c, 5, 85, 96
7, 50688, Note_off_c, 5, 83, 0
7, 50688, Note_on_c, 5, 81, 96
7, 50688, Note_off_c, 5, 79, 0
7, 50688, Note_on_c, 5, 76, 96
7, 51200, Note_off_c, 5, 85, 0
7, 51200, Note_on_c, 5, 86, 96
7, 51200, Note_off_c, 5, 81, 0
7, 51200, Note_on_c, 5, 81, 96
7, 51200, Note_off_c, 5, 76, 0
7, 51200, Note_on_c, 5, 78, 96
7, 52224, Note_off_c, 5, 86, 0
7, 52224, Note_off_c, 5, 81, 0
7, 52224, Note_off_c, 5, 78, 0
7, 58880, Note_on_c, 5, 81, 96
7, 59136, Note_off_c, 5, 81, 0
7, 59136, Note_on_c, 5, 79, 96
7, 59392, Note_off_c, 5, 79, 0
7, 59392, Note_on_c, 5, 78, 96
7, 59648, Note_off_c, 5, 78, 0
7, 59648, Note_on_c, 5, 76, 96
7, 59904, Note_off_c, 5, 76, 0
7, 59904, Note_on_c, 5, 74, 96
7, 60160, Note_off_c, 5, 74, 0
7, 60160, Note_on_c, 5, 76, 96
7, 60416, Note_off_c, 5, 76, 0
7, 60416, Note_on_c, 5, 78, 96
7, 60672, Note_off_c, 5, 78, 0
7, 60672, Note_on_c, 5, 79, 96
7, 60928, Note_off_c, 5, 79, 0
7, 60928, Note_on_c, 5, 78, 96
7, 61184, Note_off_c, 5, 78, 0
7, 61184, Note_on_c, 5, 79, 96
7, 61440, Note_off_c, 5, 79, 0
7, 61440, Note_on_c, 5, 78, 96
7, 68608, Note_off_c, 5, 78, 0
7, 76800, Note_on_c, 5, 69, 96
7, 77824, Note_off_c, 5, 69, 0
7, 77824, Note_on_c, 5, 74, 96
7, 78080, Note_off_c, 5, 74, 0
7, 78080, Note_on_c, 5, 76, 96
7, 78336, Note_off_c, 5, 76, 0
7, 78336, Note_on_c, 5, 78, 96
7, 78592, Note_off_c, 5, 78, 0
7, 78592, Note_on_c, 5, 76, 96
7, 78848, Note_off_c, 5, 76, 0
7, 78848, Note_on_c, 5, 74, 96
7, 79360, Note_off_c, 5, 74, 0
7, 79360, Note_on_c, 5, 69, 96
7, 79872, Note_off_c, 5, 69, 0
7, 79872, Note_on_c, 5, 69, 96
7, 80384, Note_off_c, 5, 69, 0
7, 80384, Note_on_c, 5, 66, 96
7, 80896, Note_off_c, 5, 66, 0
7, 80896, Note_on_c, 5, 66, 96
7, 81408, Note_off_c, 5, 66, 0
7, 81408, Note_on_c, 5, 62, 96
7, 81920, Note_off_c, 5, 62, 0
7, 81920, Note_on_c, 5, 62, 96
7, 82432, Note_off_c, 5, 62, 0
7, 82432, Note_on_c, 5, 81, 96
7, 82432, Note_on_c, 5, 78, 96
7, 82432, Note_on_c, 5, 69, 96
7, 82944, Note_off_c, 5, 81, 0
7, 82944, Note_on_c, 5, 79, 96
7, 82944, Note_off_c, 5, 78, 0
7, 82944, Note_on_c, 5, 76, 96
7, 82944, Note_off_c, 5, 69, 0
7, 82944, Note_on_c, 5, 69, 96
7, 83456, Note_off_c, 5, 79, 0
7, 83456, Note_on_c, 5, 78, 96
7, 83456, Note_off_c, 5, 76, 0
7, 83456, Note_on_c, 5, 74, 96
7, 83456, Note_off_c, 5, 69, 0
7, 83456, Note_on_c, 5, 69, 96
7, 83968, Note_off_c, 5, 78, 0
7, 83968, Note_on_c, 5, 78, 96
7, 83968, Note_off_c, 5, 74, 0
7, 83968, Note_on_c, 5, 74, 96
7, 83968, Note_off_c, 5, 69, 0
7, 83968, Note_on_c, 5, 69, 96
7, 84480, Note_off_c, 5, 78, 0
7, 84480, Note_on_c, 5, 76, 96
7, 84480, Note_off_c, 5, 74, 0
7, 84480, Note_on_c, 5, 69, 96
7, 84480, Note_off_c, 5, 69, 0
7, 84480, Note_on_c, 5, 69, 96
7, 84992, Note_off_c, 5, 76, 0
7, 84992, Note_on_c, 5, 69, 96
7, 84992, Note_off_c, 5, 69, 0
7, 84992, Note_off_c, 5, 69, 0
7, 86016, Note_off_c, 5, 69, 0
7, 86016, Note_on_c, 5, 74, 96
7, 86272, Note_off_c, 5, 74, 0
7, 86272, Note_on_c, 5, 76, 96
7, 86528, Note_off_c, 5, 76, 0
7, 86528, Note_on_c, 5, 78, 96
7, 87296, Note_off_c, 5, 78, 0
7, 87296, Note_on_c, 5, 79, 96
7, 87552, Note_off_c, 5, 79, 0
7, 87552, Note_on_c, 5, 78, 96
7, 87808, Note_off_c, 5, 78, 0
7, 87808, Note_on_c, 5, 76, 96
7, 88064, Note_off_c, 5, 76, 0
7, 88064, Note_on_c, 5, 78, 96
7, 88320, Note_off_c, 5, 78, 0
7, 88320, Note_on_c, 5, 76, 96
7, 88576, Note_off_c, 5, 76, 0
7, 88576, Note_on_c, 5, 74, 96
7, 89344, Note_off_c, 5, 74, 0
7, 89344, Note_on_c, 5, 69, 96
7, 89600, Note_off_c, 5, 69, 0
7, 89600, Note_on_c, 5, 74, 96
7, 89856, Note_off_c, 5, 74, 0
7, 89856, Note_on_c, 5, 76, 96
7, 90112, Note_off_c, 5, 76, 0
7, 90112, Note_on_c, 5, 78, 96
7, 90368, Note_off_c, 5, 78, 0
7, 90368, Note_on_c, 5, 74, 96
7, 90624, Note_off_c, 5, 74, 0
7, 90624, Note_on_c, 5, 81, 96
7, 90624, Note_on_c, 5, 78, 96
7, 90624, Note_on_c, 5, 69, 96
7, 91136, Note_off_c, 5, 81, 0
7, 91136, Note_on_c, 5, 79, 96
7, 91136, Note_off_c, 5, 78, 0
7, 91136, Note_on_c, 5, 76, 96
7, 91136, Note_off_c, 5, 69, 0
7, 91136, Note_on_c, 5, 69, 96
7, 91648, Note_off_c, 5, 79, 0
7, 91648, Note_on_c, 5, 78, 96
7, 91648, Note_off_c, 5, 76, 0
7, 91648, Note_on_c, 5, 74, 96
7, 91648, Note_off_c, 5, 69, 0
7, 91648, Note_on_c, 5, 69, 96
7, 92160, Note_off_c, 5, 78, 0
7, 92160, Note_on_c, 5, 78, 96
7, 92160, Note_off_c, 5, 74, 0
7, 92160, Note_on_c, 5, 74, 96
7, 92160, Note_off_c, 5, 69, 0
7, 92160, Note_on_c, 5, 69, 96
7, 92672, Note_off_c, 5, 78, 0
7, 92672, Note_on_c, 5, 76, 96
7, 92672, Note_off_c, 5, 74, 0
7, 92672, Note_on_c, 5, 69, 96
7, 92672, Note_off_c, 5, 69, 0
7, 92672, Note_on_c, 5, 69, 96
7, 93184, Note_off_c, 5, 76, 0
7, 93184, Note_on_c, 5, 81, 96
7, 93184, Note_off_c, 5, 69, 0
7, 93184, Note_off_c, 5, 69, 0
7, 94208, Note_off_c, 5, 81, 0
7, 94208, Note_on_c, 5, 78, 96
7, 94464, Note_off_c, 5, 78, 0
7, 94464, Note_on_c, 5, 78, 96
7, 94720, Note_off_c, 5, 78, 0
7, 94720, Note_on_c, 5, 79, 96
7, 94976, Note_off_c, 5, 79, 0
7, 94976, Note_on_c, 5, 81, 96
7, 95232, Note_off_c, 5, 81, 0
7, 95232, Note_on_c, 5, 78, 96
7, 95488, Note_off_c, 5, 78, 0
7, 95488, Note_on_c, 5, 78, 96
7, 95744, Note_off_c, 5, 78, 0
7, 95744, Note_on_c, 5, 79, 96
7, 96000, Note_off_c, 5, 79, 0
7, 96000, Note_on_c, 5, 81, 96
7, 96256, Note_off_c, 5, 81, 0
7, 96256, Note_on_c, 5, 78, 96
7, 96768, Note_off_c, 5, 78, 0
7, 96768, Note_on_c, 5, 83, 96
7, 96768, Note_on_c, 5, 78, 96
7, 96768, Note_on_c, 5, 74, 96
7, 97024, Note_off_c, 5, 78, 0
7, 97024, Note_on_c, 5, 76, 96
7, 97024, Note_off_c, 5, 74, 0
7, 97024, Note_on_c, 5, 69, 96
7, 97280, Note_off_c, 5, 83, 0
7, 97280, Note_off_c, 5, 76, 0
7, 97280, Note_on_c, 5, 78, 96
7, 97280, Note_off_c, 5, 69, 0
7, 97280, Note_on_c, 5, 66, 96
7, 97536, Note_on_c, 5, 81, 96
7, 97792, Note_off_c, 5, 81, 0
7, 97792, Note_on_c, 5, 79, 96
7, 97792, Note_off_c, 5, 78, 0
7, 97792, Note_off_c, 5, 66, 0
7, 98048, Note_off_c, 5, 79, 0
7, 98048, Note_on_c, 5, 78, 96
7, 98304, Note_off_c, 5, 78, 0
7, 98304, Note_on_c, 5, 76, 96
7, 98560, Note_off_c, 5, 76, 0
7, 98560, Note_on_c, 5, 76, 96
7, 98816, Note_off_c, 5, 76, 0
7, 98816, Note_on_c, 5, 78, 96
7, 99072, Note_off_c, 5, 78, 0
7, 99072, Note_on_c, 5, 79, 96
7, 99328, Note_off_c, 5, 79, 0
7, 99328, Note_on_c, 5, 76, 96
7, 99584, Note_off_c, 5, 76, 0
7, 99584, Note_on_c, 5, 76, 96
7, 99840, Note_off_c, 5, 76, 0
7, 99840, Note_on_c, 5, 78, 96
7, 100096, Note_off_c, 5, 78, 0
7, 100096, Note_on_c, 5, 79, 96
7, 100352, Note_off_c, 5, 79, 0
7, 100352, Note_on_c, 5, 76, 96
7, 100864, Note_off_c, 5, 76, 0
7, 100864, Note_on_c, 5, 81, 96
7, 100864, Note_on_c, 5, 76, 96
7, 100864, Note_on_c, 5, 69, 96
7, 101120, Note_off_c, 5, 76, 0
7, 101120, Note_on_c, 5, 74, 96
7, 101120, Note_off_c, 5, 69, 0
7, 101120, Note_on_c, 5, 69, 96
7, 101376, Note_off_c, 5, 81, 0
7, 101376, Note_off_c, 5, 74, 0
7, 101376, Note_on_c, 5, 76, 96
7, 101376, Note_off_c, 5, 69, 0
7, 101376, Note_on_c, 5, 69, 96
7, 101632, Note_on_c, 5, 79, 96
7, 101888, Note_off_c, 5, 79, 0
7, 101888, Note_on_c, 5, 78, 96
7, 101888, Note_off_c, 5, 76, 0
7, 101888, Note_off_c, 5, 69, 0
7, 102144, Note_off_c, 5, 78, 0
7, 102144, Note_on_c, 5, 76, 96
7, 102400, Note_off_c, 5, 76, 0
7, 102400, Note_on_c, 5, 74, 96
7, 102656, Note_off_c, 5, 74, 0
7, 102656, Note_on_c, 5, 86, 96
7, 102912, Note_off_c, 5, 86, 0
7, 102912, Note_on_c, 5, 85, 96
7, 103168, Note_off_c, 5, 85, 0
7, 103168, Note_on_c, 5, 83, 96
7, 103424, Note_off_c, 5, 83, 0
7, 103424, Note_on_c, 5, 74, 96
7, 103680, Note_off_c, 5, 74, 0
7, 103680, Note_on_c, 5, 85, 96
7, 103936, Note_off_c, 5, 85, 0
7, 103936, Note_on_c, 5, 83, 96
7, 104192, Note_off_c, 5, 83, 0
7, 104192, Note_on_c, 5, 81, 96
7, 104448, Note_off_c, 5, 81, 0
7, 104448, Note_on_c, 5, 74, 96
7, 104704, Note_off_c, 5, 74, 0
7, 104704, Note_on_c, 5, 83, 96
7, 104960, Note_off_c, 5, 83, 0
7, 104960, Note_on_c, 5, 81, 96
7, 105216, Note_off_c, 5, 81, 0
7, 105216, Note_on_c, 5, 79, 96
7, 105472, Note_off_c, 5, 79, 0
7, 105472, Note_on_c, 5, 74, 96
7, 105728, Note_off_c, 5, 74, 0
7, 105728, Note_on_c, 5, 81, 96
7, 105984, Note_off_c, 5, 81, 0
7, 105984, Note_on_c, 5, 79, 96
7, 106240, Note_off_c, 5, 79, 0
7, 106240, Note_on_c, 5, 78, 96
7, 106496, Note_off_c, 5, 78, 0
7, 106496, Note_on_c, 5, 79, 96
7, 107008, Note_off_c, 5, 79, 0
7, 107008, Note_on_c, 5, 76, 96
7, 107520, Note_off_c, 5, 76, 0
7, 107520, Note_on_c, 5, 76, 96
7, 108032, Note_off_c, 5, 76, 0
7, 108032, Note_on_c, 5, 69, 96
7, 108544, Note_off_c, 5, 69, 0
7, 108544, Note_on_c, 5, 69, 96
7, 109056, Note_off_c, 5, 69, 0
7, 109056, Note_on_c, 5, 79, 96
7, 109056, Note_on_c, 5, 76, 96
7, 109056, Note_on_c, 5, 69, 96
7, 109312, Note_off_c, 5, 76, 0
7, 109312, Note_on_c, 5, 76, 96
7, 109312, Note_off_c, 5, 69, 0
7, 109312, Note_on_c, 5, 69, 96
7, 109568, Note_off_c, 5, 79, 0
7, 109568, Note_off_c, 5, 76, 0
7, 109568, Note_on_c, 5, 76, 96
7, 109568, Note_off_c, 5, 69, 0
7, 109568, Note_on_c, 5, 69, 96
7, 110080, Note_on_c, 5, 81, 96
7, 110080, Note_off_c, 5, 76, 0
7, 110080, Note_on_c, 5, 76, 96
7, 110080, Note_off_c, 5, 69, 0
7, 110080, Note_on_c, 5, 69, 96
7, 110592, Note_off_c, 5, 81, 0
7, 110592, Note_off_c, 5, 76, 0
7, 110592, Note_off_c, 5, 69, 0
7, 110592, Note_on_c, 5, 79, 96
7, 110592, Note_on_c, 5, 74, 96
7, 110592, Note_on_c, 5, 69, 96
7, 110848, Note_off_c, 5, 79, 0
7, 110848, Note_on_c, 5, 78, 96
7, 111104, Note_off_c, 5, 78, 0
7, 111104, Note_on_c, 5, 76, 96
7, 111104, Note_off_c, 5, 74, 0
7, 111104, Note_on_c, 5, 78, 96
7, 111104, Note_off_c, 5, 69, 0
7, 111104, Note_on_c, 5, 62, 96
7, 111360, Note_off_c, 5, 76, 0
7, 111360, Note_on_c, 5, 74, 96
7, 111360, Note_off_c, 5, 62, 0
7, 111360, Note_on_c, 5, 62, 96
7, 111616, Note_off_c, 5, 74, 0
7, 111616, Note_on_c, 5, 78, 96
7, 111616, Note_off_c, 5, 78, 0
7, 111616, Note_on_c, 5, 83, 96
7, 111616, Note_off_c, 5, 62, 0
7, 111616, Note_on_c, 5, 62, 96
7, 112128, Note_off_c, 5, 78, 0
7, 112128, Note_on_c, 5, 76, 96
7, 112128, Note_off_c, 5, 83, 0
7, 112128, Note_on_c, 5, 81, 96
7, 112128, Note_off_c, 5, 62, 0
7, 112128, Note_on_c, 5, 69, 96
7, 112384, Note_off_c, 5, 81, 0
7, 112384, Note_on_c, 5, 79, 96
7, 112640, Note_off_c, 5, 76, 0
7, 112640, Note_on_c, 5, 74, 96
7, 112640, Note_off_c, 5, 79, 0
7, 112640, Note_on_c, 5, 78, 96
7, 112640, Note_off_c, 5, 69, 0
7, 112640, Note_on_c, 5, 62, 96
7, 113152, Note_off_c, 5, 78, 0
7, 113152, Note_off_c, 5, 62, 0
7, 113920, Note_off_c, 5, 74, 0
7, 113920, Note_on_c, 5, 76, 96
7, 114048, Note_off_c, 5, 76, 0
7, 114048, Note_on_c, 5, 78, 96
7, 114176, Note_off_c, 5, 78, 0
7, 114176, Note_on_c, 5, 79, 96
7, 114432, Note_off_c, 5, 79, 0
7, 114432, Note_on_c, 5, 78, 96
7, 114560, Note_off_c, 5, 78, 0
7, 114560, Note_on_c, 5, 76, 96
7, 114688, Note_off_c, 5, 76, 0
7, 114688, Note_on_c, 5, 74, 96
7, 114688, Note_on_c, 5, 81, 96
7, 114688, Note_on_c, 5, 66, 96
7, 115200, Note_off_c, 5, 81, 0
7, 115200, Note_off_c, 5, 66, 0
7, 115968, Note_off_c, 5, 74, 0
7, 115968, Note_on_c, 5, 76, 96
7, 116096, Note_off_c, 5, 76, 0
7, 116096, Note_on_c, 5, 78, 96
7, 116224, Note_off_c, 5, 78, 0
7, 116224, Note_on_c, 5, 79, 96
7, 116480, Note_off_c, 5, 79, 0
7, 116480, Note_on_c, 5, 78, 96
7, 116608, Note_off_c, 5, 78, 0
7, 116608, Note_on_c, 5, 76, 96
7, 116736, Note_off_c, 5, 76, 0
7, 116736, Note_on_c, 5, 74, 96
7, 116992, Note_off_c, 5, 74, 0
7, 116992, Note_on_c, 5, 76, 96
7, 117120, Note_off_c, 5, 76, 0
7, 117120, Note_on_c, 5, 78, 96
7, 117248, Note_off_c, 5, 78, 0
7, 117248, Note_on_c, 5, 79, 96
7, 117504, Note_off_c, 5, 79, 0
7, 117504, Note_on_c, 5, 78, 96
7, 117632, Note_off_c, 5, 78, 0
7, 117632, Note_on_c, 5, 76, 96
7, 117760, Note_off_c, 5, 76, 0
7, 117760, Note_on_c, 5, 74, 96
7, 118016, Note_off_c, 5, 74, 0
7, 118016, Note_on_c, 5, 76, 96
7, 118144, Note_off_c, 5, 76, 0
7, 118144, Note_on_c, 5, 78, 96
7, 118272, Note_off_c, 5, 78, 0
7, 118272, Note_on_c, 5, 79, 96
7, 118528, Note_off_c, 5, 79, 0
7, 118528, Note_on_c, 5, 78, 96
7, 118656, Note_off_c, 5, 78, 0
7, 118656, Note_on_c, 5, 76, 96
7, 118784, Note_off_c, 5, 76, 0
7, 118784, Note_on_c, 5, 74, 96
7, 119296, Note_off_c, 5, 74, 0
7, 119296, Note_on_c, 5, 80, 96
7, 119808, Note_off_c, 5, 80, 0
7, 120064, Note_on_c, 5, 83, 96
7, 120320, Note_off_c, 5, 83, 0
7, 120320, Note_on_c, 5, 81, 96
7, 120576, Note_off_c, 5, 81, 0
7, 120576, Note_on_c, 5, 80, 96
7, 120832, Note_off_c, 5, 80, 0
7, 120832, Note_on_c, 5, 81, 96
7, 121344, Note_off_c, 5, 81, 0
7, 121344, Note_on_c, 5, 69, 96
7, 121856, Note_off_c, 5, 69, 0
7, 122368, Note_on_c, 5, 79, 96
7, 122880, Note_off_c, 5, 79, 0
7, 122880, Note_on_c, 5, 78, 96
7, 123392, Note_off_c, 5, 78, 0
7, 123392, Note_on_c, 5, 86, 96
7, 123392, Note_on_c, 5, 78, 96
7, 123392, Note_on_c, 5, 74, 96
7, 123904, Note_off_c, 5, 86, 0
7, 123904, Note_on_c, 5, 76, 96
7, 123904, Note_off_c, 5, 78, 0
7, 123904, Note_on_c, 5, 83, 96
7, 123904, Note_off_c, 5, 74, 0
7, 123904, Note_on_c, 5, 79, 96
7, 124416, Note_off_c, 5, 76, 0
7, 124416, Note_on_c, 5, 85, 96
7, 124416, Note_off_c, 5, 83, 0
7, 124416, Note_on_c, 5, 81, 96
7, 124416, Note_off_c, 5, 79, 0
7, 124416, Note_on_c, 5, 76, 96
7, 124928, Note_off_c, 5, 85, 0
7, 124928, Note_on_c, 5, 86, 96
7, 124928, Note_off_c, 5, 81, 0
7, 124928, Note_on_c, 5, 81, 96
7, 124928, Note_off_c, 5, 76, 0
7, 124928, Note_on_c, 5, 78, 96
7, 125952, Note_off_c, 5, 86, 0
7, 125952, Note_off_c, 5, 81, 0
7, 125952, Note_off_c, 5, 78, 0
7, 132608, Note_on_c, 5, 81, 96
7, 132864, Note_off_c, 5, 81, 0
7, 132864, Note_on_c, 5, 79, 96
7, 133120, Note_off_c, 5, 79, 0
7, 133120, Note_on_c, 5, 78, 96
7, 133376, Note_off_c, 5, 78, 0
7, 133376, Note_on_c, 5, 76, 96
7, 133632, Note_off_c, 5, 76, 0
7, 133632, Note_on_c, 5, 74, 96
7, 133888, Note_off_c, 5, 74, 0
7, 133888, Note_on_c, 5, 76, 96
7, 134144, Note_off_c, 5, 76, 0
7, 134144, Note_on_c, 5, 78, 96
7, 134400, Note_off_c, 5, 78, 0
7, 134400, Note_on_c, 5, 79, 96
7, 134656, Note_off_c, 5, 79, 0
7, 134656, Note_on_c, 5, 78, 96
7, 134912, Note_off_c, 5, 78, 0
7, 134912, Note_on_c, 5, 79, 96
7, 135168, Note_off_c, 5, 79, 0
7, 135168, Note_on_c, 5, 78, 96
7, 142336, Note_off_c, 5, 78, 0
7, 150528, Note_on_c, 5, 69, 96
7, 151552, Note_off_c, 5, 69, 0
7, 151552, Note_on_c, 5, 74, 96
7, 151808, Note_off_c, 5, 74, 0
7, 151808, Note_on_c, 5, 76, 96
7, 152064, Note_off_c, 5, 76, 0
7, 152064, Note_on_c, 5, 78, 96
7, 152320, Note_off_c, 5, 78, 0
7, 152320, Note_on_c, 5, 76, 96
7, 152576, Note_off_c, 5, 76, 0
7, 152576, Note_on_c, 5, 74, 96
7, 153088, Note_off_c, 5, 74, 0
7, 153088, Note_on_c, 5, 69, 96
7, 153600, Note_off_c, 5, 69, 0
7, 153600, Note_on_c, 5, 69, 96
7, 154112, Note_off_c, 5, 69, 0
7, 154112, Note_on_c, 5, 66, 96
7, 154624, Note_off_c, 5, 66, 0
7, 154624, Note_on_c, 5, 66, 96
7, 155136, Note_off_c, 5, 66, 0
7, 155136, Note_on_c, 5, 62, 96
7, 155648, Note_off_c, 5, 62, 0
7, 155648, Note_on_c, 5, 62, 96
7, 156160, Note_off_c, 5, 62, 0
7, 156160, Note_on_c, 5, 81, 96
7, 156160, Note_on_c, 5, 78, 96
7, 156160, Note_on_c, 5, 69, 96
7, 156672, Note_off_c, 5, 81, 0
7, 156672, Note_on_c, 5, 79, 96
7, 156672, Note_off_c, 5, 78, 0
7, 156672, Note_on_c, 5, 76, 96
7, 156672, Note_off_c, 5, 69, 0
7, 156672, Note_on_c, 5, 69, 96
7, 157184, Note_off_c, 5, 79, 0
7, 157184, Note_on_c, 5, 78, 96
7, 157184, Note_off_c, 5, 76, 0
7, 157184, Note_on_c, 5, 74, 96
7, 157184, Note_off_c, 5, 69, 0
7, 157184, Note_on_c, 5, 69, 96
7, 157696, Note_off_c, 5, 78, 0
7, 157696, Note_on_c, 5, 78, 96
7, 157696, Note_off_c, 5, 74, 0
7, 157696, Note_on_c, 5, 74, 96
7, 157696, Note_off_c, 5, 69, 0
7, 157696, Note_on_c, 5, 69, 96
7, 158208, Note_off_c, 5, 78, 0
7, 158208, Note_on_c, 5, 76, 96
7, 158208, Note_off_c, 5, 74, 0
7, 158208, Note_on_c, 5, 69, 96
7, 158208, Note_off_c, 5, 69, 0
7, 158208, Note_on_c, 5, 69, 96
7, 158720, Note_off_c, 5, 76, 0
7, 158720, Note_off_c, 5, 69, 0
7, 158720, Note_off_c, 5, 69, 0
7, 159232, Note_on_c, 5, 69, 96
7, 159744, Note_off_c, 5, 69, 0
7, 159744, Note_on_c, 5, 74, 96
7, 160000, Note_off_c, 5, 74, 0
7, 160000, Note_on_c, 5, 76, 96
7, 160256, Note_off_c, 5, 76, 0
7, 160256, Note_on_c, 5, 78, 96
7, 161024, Note_off_c, 5, 78, 0
7, 161024, Note_on_c, 5, 79, 96
7, 161280, Note_off_c, 5, 79, 0
7, 161280, Note_on_c, 5, 78, 96
7, 161536, Note_off_c, 5, 78, 0
7, 161536, Note_on_c, 5, 76, 96
7, 161792, Note_off_c, 5, 76, 0
7, 161792, Note_on_c, 5, 78, 96
7, 162048, Note_off_c, 5, 78, 0
7, 162048, Note_on_c, 5, 76, 96
7, 162304, Note_off_c, 5, 76, 0
7, 162304, Note_on_c, 5, 74, 96
7, 163072, Note_off_c, 5, 74, 0
7, 163072, Note_on_c, 5, 69, 96
7, 163328, Note_off_c, 5, 69, 0
7, 163328, Note_on_c, 5, 74, 96
7, 163584, Note_off_c, 5, 74, 0
7, 163584, Note_on_c, 5, 76, 96
7, 163840, Note_off_c, 5, 76, 0
7, 163840, Note_on_c, 5, 78, 96
7, 164096, Note_off_c, 5, 78, 0
7, 164096, Note_on_c, 5, 74, 96
7, 164352, Note_off_c, 5, 74, 0
7, 164352, Note_on_c, 5, 81, 96
7, 164352, Note_on_c, 5, 78, 96
7, 164352, Note_on_c, 5, 69, 96
7, 164864, Note_off_c, 5, 81, 0
7, 164864, Note_on_c, 5, 79, 96
7, 164864, Note_off_c, 5, 78, 0
7, 164864, Note_on_c, 5, 76, 96
7, 164864, Note_off_c, 5, 69, 0
7, 164864, Note_on_c, 5, 69, 96
7, 165376, Note_off_c, 5, 79, 0
7, 165376, Note_on_c, 5, 78, 96
7, 165376, Note_off_c, 5, 76, 0
7, 165376, Note_on_c, 5, 74, 96
7, 165376, Note_off_c, 5, 69, 0
7, 165376, Note_on_c, 5, 69, 96
7, 165888, Note_off_c, 5, 78, 0
7, 165888, Note_on_c, 5, 78, 96
7, 165888, Note_off_c, 5, 74, 0
7, 165888, Note_on_c, 5, 74, 96
7, 165888, Note_off_c, 5, 69, 0
7, 165888, Note_on_c, 5, 69, 96
7, 166400, Note_off_c, 5, 78, 0
7, 166400, Note_on_c, 5, 76, 96
7, 166400, Note_off_c, 5, 74, 0
7, 166400, Note_on_c, 5, 69, 96
7, 166400, Note_off_c, 5, 69, 0
7, 166400, Note_on_c, 5, 69, 96
7, 166912, Note_off_c, 5, 76, 0
7, 166912, Note_off_c, 5, 69, 0
7, 166912, Note_off_c, 5, 69, 0
7, 171008, Note_on_c, 5, 81, 96
7, 172032, Note_off_c, 5, 81, 0
7, 172032, Note_on_c, 5, 78, 96
7, 172288, Note_off_c, 5, 78, 0
7, 172288, Note_on_c, 5, 78, 96
7, 172544, Note_off_c, 5, 78, 0
7, 172544, Note_on_c, 5, 79, 96
7, 172800, Note_off_c, 5, 79, 0
7, 172800, Note_on_c, 5, 81, 96
7, 173056, Note_off_c, 5, 81, 0
7, 173056, Note_on_c, 5, 78, 96
7, 173312, Note_off_c, 5, 78, 0
7, 173312, Note_on_c, 5, 78, 96
7, 173568, Note_off_c, 5, 78, 0
7, 173568, Note_on_c, 5, 79, 96
7, 173824, Note_off_c, 5, 79, 0
7, 173824, Note_on_c, 5, 81, 96
7, 174080, Note_off_c, 5, 81, 0
7, 174080, Note_on_c, 5, 78, 96
7, 174592, Note_off_c, 5, 78, 0
7, 174592, Note_on_c, 5, 83, 96
7, 174592, Note_on_c, 5, 78, 96
7, 174592, Note_on_c, 5, 74, 96
7, 174848, Note_off_c, 5, 78, 0
7, 174848, Note_on_c, 5, 76, 96
7, 174848, Note_off_c, 5, 74, 0
7, 174848, Note_on_c, 5, 69, 96
7, 175104, Note_off_c, 5, 83, 0
7, 175104, Note_off_c, 5, 76, 0
7, 175104, Note_on_c, 5, 78, 96
7, 175104, Note_off_c, 5, 69, 0
7, 175104, Note_on_c, 5, 66, 96
7, 175360, Note_on_c, 5, 81, 96
7, 175616, Note_off_c, 5, 81, 0
7, 175616, Note_on_c, 5, 79, 96
7, 175616, Note_off_c, 5, 78, 0
7, 175616, Note_off_c, 5, 66, 0
7, 175872, Note_off_c, 5, 79, 0
7, 175872, Note_on_c, 5, 78, 96
7, 176128, Note_off_c, 5, 78, 0
7, 176128, Note_on_c, 5, 76, 96
7, 176384, Note_off_c, 5, 76, 0
7, 176384, Note_on_c, 5, 76, 96
7, 176640, Note_off_c, 5, 76, 0
7, 176640, Note_on_c, 5, 78, 96
7, 176896, Note_off_c, 5, 78, 0
7, 176896, Note_on_c, 5, 79, 96
7, 177152, Note_off_c, 5, 79, 0
7, 177152, Note_on_c, 5, 76, 96
7, 177408, Note_off_c, 5, 76, 0
7, 177408, Note_on_c, 5, 76, 96
7, 177664, Note_off_c, 5, 76, 0
7, 177664, Note_on_c, 5, 78, 96
7, 177920, Note_off_c, 5, 78, 0
7, 177920, Note_on_c, 5, 79, 96
7, 178176, Note_off_c, 5, 79, 0
7, 178176, Note_on_c, 5, 76, 96
7, 178688, Note_off_c, 5, 76, 0
7, 178688, Note_on_c, 5, 81, 96
7, 178688, Note_on_c, 5, 76, 96
7, 178688, Note_on_c, 5, 69, 96
7, 178944, Note_off_c, 5, 76, 0
7, 178944, Note_on_c, 5, 74, 96
7, 178944, Note_off_c, 5, 69, 0
7, 178944, Note_on_c, 5, 69, 96
7, 179200, Note_off_c, 5, 81, 0
7, 179200, Note_off_c, 5, 74, 0
7, 179200, Note_on_c, 5, 76, 96
7, 179200, Note_off_c, 5, 69, 0
7, 179200, Note_on_c, 5, 69, 96
7, 179456, Note_on_c, 5, 79, 96
7, 179712, Note_off_c, 5, 79, 0
7, 179712, Note_on_c, 5, 78, 96
7, 179712, Note_off_c, 5, 76, 0
7, 179712, Note_off_c, 5, 69, 0
7, 179968, Note_off_c, 5, 78, 0
7, 179968, Note_on_c, 5, 76, 96
7, 180224, Note_off_c, 5, 76, 0
7, 180224, Note_on_c, 5, 74, 96
7, 180480, Note_off_c, 5, 74, 0
7, 180480, Note_on_c, 5, 86, 96
7, 180736, Note_off_c, 5, 86, 0
7, 180736, Note_on_c, 5, 85, 96
7, 180992, Note_off_c, 5, 85, 0
7, 180992, Note_on_c, 5, 83, 96
7, 181248, Note_off_c, 5, 83, 0
7, 181248, Note_on_c, 5, 74, 96
7, 181504, Note_off_c, 5, 74, 0
7, 181504, Note_on_c, 5, 85, 96
7, 181760, Note_off_c, 5, 85, 0
7, 181760, Note_on_c, 5, 83, 96
7, 182016, Note_off_c, 5, 83, 0
7, 182016, Note_on_c, 5, 81, 96
7, 182272, Note_off_c, 5, 81, 0
7, 182272, Note_on_c, 5, 74, 96
7, 182528, Note_off_c, 5, 74, 0
7, 182528, Note_on_c, 5, 83, 96
7, 182784, Note_off_c, 5, 83, 0
7, 182784, Note_on_c, 5, 81, 96
7, 183040, Note_off_c, 5, 81, 0
7, 183040, Note_on_c, 5, 79, 96
7, 183296, Note_off_c, 5, 79, 0
7, 183296, Note_on_c, 5, 74, 96
7, 183552, Note_off_c, 5, 74, 0
7, 183552, Note_on_c, 5, 81, 96
7, 183808, Note_off_c, 5, 81, 0
7, 183808, Note_on_c, 5, 79, 96
7, 184064, Note_off_c, 5, 79, 0
7, 184064, Note_on_c, 5, 78, 96
7, 184320, Note_off_c, 5, 78, 0
7, 184320, Note_on_c, 5, 79, 96
7, 184832, Note_off_c, 5, 79, 0
7, 184832, Note_on_c, 5, 76, 96
7, 185344, Note_off_c, 5, 76, 0
7, 185344, Note_on_c, 5, 76, 96
7, 185856, Note_off_c, 5, 76, 0
7, 185856, Note_on_c, 5, 66, 96
7, 186368, Note_off_c, 5, 66, 0
7, 186368, Note_on_c, 5, 66, 96
7, 186880, Note_off_c, 5, 66, 0
7, 186880, Note_on_c, 5, 66, 96
7, 187392, Note_off_c, 5, 66, 0
7, 187392, Note_on_c, 5, 66, 96
7, 187904, Note_off_c, 5, 66, 0
7, 187904, Note_on_c, 5, 66, 96
7, 188416, Note_off_c, 5, 66, 0
7, 188416, Note_on_c, 5, 66, 96
7, 188928, Note_off_c, 5, 66, 0
7, 188928, Note_on_c, 5, 66, 96
7, 189440, Note_off_c, 5, 66, 0
7, 189440, Note_on_c, 5, 66, 96
7, 189952, Note_off_c, 5, 66, 0
7, 189952, Note_on_c, 5, 66, 96
7, 190464, Note_off_c, 5, 66, 0
7, 190464, Note_on_c, 5, 66, 96
7, 190976, Note_off_c, 5, 66, 0
7, 190976, Note_on_c, 5, 66, 96
7, 191488, Note_off_c, 5, 66, 0
7, 191488, Note_on_c, 5, 66, 96
7, 192000, Note_off_c, 5, 66, 0
7, 192000, Note_on_c, 5, 66, 96
7, 192512, Note_off_c, 5, 66, 0
7, 192512, Note_on_c, 5, 66, 96
7, 193024, Note_off_c, 5, 66, 0
7, 193024, Note_on_c, 5, 66, 96
7, 193280, Note_off_c, 5, 66, 0
7, 193280, Note_on_c, 5, 66, 96
7, 193536, Note_off_c, 5, 66, 0
7, 193536, Note_on_c, 5, 66, 96
7, 194048, Note_off_c, 5, 66, 0
7, 194048, Note_on_c, 5, 66, 96
7, 194560, Note_off_c, 5, 66, 0
7, 194560, Note_on_c, 5, 66, 96
7, 195584, Note_off_c, 5, 66, 0
7, 198144, Note_on_c, 5, 83, 96
7, 198656, Note_off_c, 5, 83, 0
7, 198656, Note_on_c, 5, 76, 96
7, 199168, Note_off_c, 5, 76, 0
7, 206336, Note_on_c, 5, 80, 96
7, 206848, Note_off_c, 5, 80, 0
7, 206848, Note_on_c, 5, 81, 96
7, 207104, Note_off_c, 5, 81, 0
7, 207104, Note_on_c, 5, 83, 96
7, 207360, Note_off_c, 5, 83, 0
7, 207360, Note_on_c, 5, 85, 96
7, 207616, Note_off_c, 5, 85, 0
7, 207616, Note_on_c, 5, 83, 96
7, 207872, Note_off_c, 5, 83, 0
7, 207872, Note_on_c, 5, 81, 96
7, 208384, Note_off_c, 5, 81, 0
7, 208384, Note_on_c, 5, 76, 96
7, 208896, Note_off_c, 5, 76, 0
7, 208896, Note_on_c, 5, 76, 96
7, 209408, Note_off_c, 5, 76, 0
7, 209408, Note_on_c, 5, 81, 96
7, 209920, Note_off_c, 5, 81, 0
7, 209920, Note_on_c, 5, 81, 96
7, 210432, Note_off_c, 5, 81, 0
7, 210432, Note_on_c, 5, 69, 96
7, 210944, Note_off_c, 5, 69, 0
7, 210944, Note_on_c, 5, 69, 96
7, 211456, Note_off_c, 5, 69, 0
7, 211456, Note_on_c, 5, 76, 96
7, 211712, Note_off_c, 5, 76, 0
7, 211712, Note_on_c, 5, 76, 96
7, 211968, Note_off_c, 5, 76, 0
7, 211968, Note_on_c, 5, 76, 96
7, 212480, Note_off_c, 5, 76, 0
7, 212480, Note_on_c, 5, 76, 96
7, 212992, Note_off_c, 5, 76, 0
7, 212992, Note_on_c, 5, 76, 96
7, 213248, Note_off_c, 5, 76, 0
7, 213248, Note_on_c, 5, 78, 96
7, 213504, Note_off_c, 5, 78, 0
7, 213504, Note_on_c, 5, 80, 96
7, 213760, Note_off_c, 5, 80, 0
7, 213760, Note_on_c, 5, 81, 96
7, 214016, Note_off_c, 5, 81, 0
7, 214016, Note_on_c, 5, 83, 96
7, 214528, Note_off_c, 5, 83, 0
7, 215552, Note_on_c, 5, 81, 96
7, 215808, Note_off_c, 5, 81, 0
7, 215808, Note_on_c, 5, 83, 96
7, 216064, Note_off_c, 5, 83, 0
7, 216064, Note_on_c, 5, 85, 96
7, 216576, Note_off_c, 5, 85, 0
7, 232704, Note_on_c, 5, 79, 96
7, 232960, Note_off_c, 5, 79, 0
7, 232960, Note_on_c, 5, 78, 96
7, 233216, Note_off_c, 5, 78, 0
7, 233216, Note_on_c, 5, 76, 96
7, 233472, Note_off_c, 5, 76, 0
7, 233472, Note_on_c, 5, 74, 96
7, 233728, Note_off_c, 5, 74, 0
7, 233728, Note_on_c, 5, 76, 96
7, 233984, Note_off_c, 5, 76, 0
7, 233984, Note_on_c, 5, 78, 96
7, 234240, Note_off_c, 5, 78, 0
7, 234240, Note_on_c, 5, 76, 96
7, 234496, Note_off_c, 5, 76, 0
7, 234496, Note_on_c, 5, 74, 96
7, 235008, Note_off_c, 5, 74, 0
7, 235008, Note_on_c, 5, 69, 96
7, 235520, Note_off_c, 5, 69, 0
7, 235520, Note_on_c, 5, 69, 96
7, 236032, Note_off_c, 5, 69, 0
7, 236032, Note_on_c, 5, 66, 96
7, 236544, Note_off_c, 5, 66, 0
7, 236544, Note_on_c, 5, 66, 96
7, 237056, Note_off_c, 5, 66, 0
7, 237056, Note_on_c, 5, 62, 96
7, 237568, Note_off_c, 5, 62, 0
7, 237568, Note_on_c, 5, 62, 96
7, 238080, Note_off_c, 5, 62, 0
7, 238080, Note_on_c, 5, 81, 96
7, 238592, Note_off_c, 5, 81, 0
7, 238592, Note_on_c, 5, 79, 96
7, 239104, Note_off_c, 5, 79, 0
7, 239104, Note_on_c, 5, 78, 96
7, 239616, Note_off_c, 5, 78, 0
7, 239616, Note_on_c, 5, 78, 96
7, 240128, Note_off_c, 5, 78, 0
7, 240128, Note_on_c, 5, 76, 96
7, 240640, Note_off_c, 5, 76, 0
7, 241152, Note_on_c, 5, 69, 96
7, 241664, Note_off_c, 5, 69, 0
7, 241664, Note_on_c, 5, 74, 96
7, 241920, Note_off_c, 5, 74, 0
7, 241920, Note_on_c, 5, 76, 96
7, 242176, Note_off_c, 5, 76, 0
7, 242176, Note_on_c, 5, 78, 96
7, 242944, Note_off_c, 5, 78, 0
7, 242944, Note_on_c, 5, 79, 96
7, 243200, Note_off_c, 5, 79, 0
7, 243200, Note_on_c, 5, 78, 96
7, 243456, Note_off_c, 5, 78, 0
7, 243456, Note_on_c, 5, 76, 96
7, 243712, Note_off_c, 5, 76, 0
7, 243712, Note_on_c, 5, 78, 96
7, 243968, Note_off_c, 5, 78, 0
7, 243968, Note_on_c, 5, 76, 96
7, 244224, Note_off_c, 5, 76, 0
7, 244224, Note_on_c, 5, 74, 96
7, 244992, Note_off_c, 5, 74, 0
7, 244992, Note_on_c, 5, 69, 96
7, 245248, Note_off_c, 5, 69, 0
7, 245248, Note_on_c, 5, 74, 96
7, 245504, Note_off_c, 5, 74, 0
7, 245504, Note_on_c, 5, 76, 96
7, 245760, Note_off_c, 5, 76, 0
7, 245760, Note_on_c, 5, 78, 96
7, 246016, Note_off_c, 5, 78, 0
7, 246016, Note_on_c, 5, 74, 96
7, 246272, Note_off_c, 5, 74, 0
7, 246272, Note_on_c, 5, 81, 96
7, 246784, Note_off_c, 5, 81, 0
7, 246784, Note_on_c, 5, 79, 96
7, 247296, Note_off_c, 5, 79, 0
7, 247296, Note_on_c, 5, 78, 96
7, 247808, Note_off_c, 5, 78, 0
7, 247808, Note_on_c, 5, 78, 96
7, 248320, Note_off_c, 5, 78, 0
7, 248320, Note_on_c, 5, 76, 96
7, 248832, Note_off_c, 5, 76, 0
7, 249344, Note_on_c, 5, 81, 96
7, 249856, Note_off_c, 5, 81, 0
7, 249856, Note_on_c, 5, 78, 96
7, 250112, Note_off_c, 5, 78, 0
7, 250112, Note_on_c, 5, 78, 96
7, 250368, Note_off_c, 5, 78, 0
7, 250368, Note_on_c, 5, 79, 96
7, 250624, Note_off_c, 5, 79, 0
7, 250624, Note_on_c, 5, 81, 96
7, 250880, Note_off_c, 5, 81, 0
7, 250880, Note_on_c, 5, 78, 96
7, 251136, Note_off_c, 5, 78, 0
7, 251136, Note_on_c, 5, 78, 96
7, 251392, Note_off_c, 5, 78, 0
7, 251392, Note_on_c, 5, 79, 96
7, 251648, Note_off_c, 5, 79, 0
7, 251648, Note_on_c, 5, 81, 96
7, 251904, Note_off_c, 5, 81, 0
7, 251904, Note_on_c, 5, 78, 96
7, 252416, Note_off_c, 5, 78, 0
7, 252416, Note_on_c, 5, 83, 96
7, 252928, Note_off_c, 5, 83, 0
7, 253184, Note_on_c, 5, 81, 96
7, 253440, Note_off_c, 5, 81, 0
7, 253440, Note_on_c, 5, 79, 96
7, 253696, Note_off_c, 5, 79, 0
7, 253696, Note_on_c, 5, 78, 96
7, 253952, Note_off_c, 5, 78, 0
7, 253952, Note_on_c, 5, 76, 96
7, 254208, Note_off_c, 5, 76, 0
7, 254208, Note_on_c, 5, 76, 96
7, 254464, Note_off_c, 5, 76, 0
7, 254464, Note_on_c, 5, 78, 96
7, 254720, Note_off_c, 5, 78, 0
7, 254720, Note_on_c, 5, 79, 96
7, 254976, Note_off_c, 5, 79, 0
7, 254976, Note_on_c, 5, 76, 96
7, 255232, Note_off_c, 5, 76, 0
7, 255232, Note_on_c, 5, 76, 96
7, 255488, Note_off_c, 5, 76, 0
7, 255488, Note_on_c, 5, 78, 96
7, 255744, Note_off_c, 5, 78, 0
7, 255744, Note_on_c, 5, 79, 96
7, 256000, Note_off_c, 5, 79, 0
7, 256000, Note_on_c, 5, 76, 96
7, 256512, Note_off_c, 5, 76, 0
7, 256512, Note_on_c, 5, 81, 96
7, 257024, Note_off_c, 5, 81, 0
7, 257280, Note_on_c, 5, 79, 96
7, 257536, Note_off_c, 5, 79, 0
7, 257536, Note_on_c, 5, 78, 96
7, 257792, Note_off_c, 5, 78, 0
7, 257792, Note_on_c, 5, 76, 96
7, 258048, Note_off_c, 5, 76, 0
7, 258048, Note_on_c, 5, 74, 96
7, 258304, Note_off_c, 5, 74, 0
7, 258304, Note_on_c, 5, 86, 96
7, 258560, Note_off_c, 5, 86, 0
7, 258560, Note_on_c, 5, 85, 96
7, 258816, Note_off_c, 5, 85, 0
7, 258816, Note_on_c, 5, 83, 96
7, 259072, Note_off_c, 5, 83, 0
7, 259072, Note_on_c, 5, 74, 96
7, 259328, Note_off_c, 5, 74, 0
7, 259328, Note_on_c, 5, 85, 96
7, 259584, Note_off_c, 5, 85, 0
7, 259584, Note_on_c, 5, 83, 96
7, 259840, Note_off_c, 5, 83, 0
7, 259840, Note_on_c, 5, 81, 96
7, 260096, Note_off_c, 5, 81, 0
7, 260096, Note_on_c, 5, 74, 96
7, 260352, Note_off_c, 5, 74, 0
7, 260352, Note_on_c, 5, 83, 96
7, 260608, Note_off_c, 5, 83, 0
7, 260608, Note_on_c, 5, 81, 96
7, 260864, Note_off_c, 5, 81, 0
7, 260864, Note_on_c, 5, 79, 96
7, 261120, Note_off_c, 5, 79, 0
7, 261120, Note_on_c, 5, 74, 96
7, 261376, Note_off_c, 5, 74, 0
7, 261376, Note_on_c, 5, 81, 96
7, 261632, Note_off_c, 5, 81, 0
7, 261632, Note_on_c, 5, 79, 96
7, 261888, Note_off_c, 5, 79, 0
7, 261888, Note_on_c, 5, 78, 96
7, 262144, Note_off_c, 5, 78, 0
7, 262144, Note_on_c, 5, 79, 96
7, 262656, Note_off_c, 5, 79, 0
7, 262656, Note_on_c, 5, 76, 96
7, 263168, Note_off_c, 5, 76, 0
7, 263168, Note_on_c, 5, 76, 96
7, 263680, Note_off_c, 5, 76, 0
7, 263680, Note_on_c, 5, 69, 96
7, 264192, Note_off_c, 5, 69, 0
7, 264192, Note_on_c, 5, 69, 96
7, 264704, Note_off_c, 5, 69, 0
7, 264704, Note_on_c, 5, 79, 96
7, 265216, Note_off_c, 5, 79, 0
7, 265728, Note_on_c, 5, 81, 96
7, 266240, Note_off_c, 5, 81, 0
7, 266240, Note_on_c, 5, 79, 96
7, 266496, Note_off_c, 5, 79, 0
7, 266496, Note_on_c, 5, 78, 96
7, 266752, Note_off_c, 5, 78, 0
7, 266752, Note_on_c, 5, 76, 96
7, 267008, Note_off_c, 5, 76, 0
7, 267008, Note_on_c, 5, 74, 96
7, 267264, Note_off_c, 5, 74, 0
7, 267264, Note_on_c, 5, 78, 96
7, 267776, Note_off_c, 5, 78, 0
7, 267776, Note_on_c, 5, 76, 96
7, 268288, Note_off_c, 5, 76, 0
7, 268288, Note_on_c, 5, 74, 96
7, 269568, Note_off_c, 5, 74, 0
7, 269568, Note_on_c, 5, 76, 96
7, 269696, Note_off_c, 5, 76, 0
7, 269696, Note_on_c, 5, 78, 96
7, 269824, Note_off_c, 5, 78, 0
7, 269824, Note_on_c, 5, 79, 96
7, 270080, Note_off_c, 5, 79, 0
7, 270080, Note_on_c, 5, 78, 96
7, 270208, Note_off_c, 5, 78, 0
7, 270208, Note_on_c, 5, 76, 96
7, 270336, Note_off_c, 5, 76, 0
7, 270336, Note_on_c, 5, 74, 96
7, 271616, Note_off_c, 5, 74, 0
7, 271616, Note_on_c, 5, 76, 96
7, 271744, Note_off_c, 5, 76, 0
7, 271744, Note_on_c, 5, 78, 96
7, 271872, Note_off_c, 5, 78, 0
7, 271872, Note_on_c, 5, 79, 96
7, 272128, Note_off_c, 5, 79, 0
7, 272128, Note_on_c, 5, 78, 96
7, 272256, Note_off_c, 5, 78, 0
7, 272256, Note_on_c, 5, 76, 96
7, 272384, Note_off_c, 5, 76, 0
7, 272384, Note_on_c, 5, 74, 96
7, 272640, Note_off_c, 5, 74, 0
7, 272640, Note_on_c, 5, 76, 96
7, 272768, Note_off_c, 5, 76, 0
7, 272768, Note_on_c, 5, 78, 96
7, 272896, Note_off_c, 5, 78, 0
7, 272896, Note_on_c, 5, 79, 96
7, 273152, Note_off_c, 5, 79, 0
7, 273152, Note_on_c, 5, 78, 96
7, 273280, Note_off_c, 5, 78, 0
7, 273280, Note_on_c, 5, 76, 96
7, 273408, Note_off_c, 5, 76, 0
7, 273408, Note_on_c, 5, 74, 96
7, 273664, Note_off_c, 5, 74, 0
7, 273664, Note_on_c, 5, 76, 96
7, 273792, Note_off_c, 5, 76, 0
7, 273792, Note_on_c, 5, 78, 96
7, 273920, Note_off_c, 5, 78, 0
7, 273920, Note_on_c, 5, 79, 96
7, 274176, Note_off_c, 5, 79, 0
7, 274176, Note_on_c, 5, 78, 96
7, 274304, Note_off_c, 5, 78, 0
7, 274304, Note_on_c, 5, 76, 96
7, 274432, Note_off_c, 5, 76, 0
7, 274432, Note_on_c, 5, 74, 96
7, 274944, Note_off_c, 5, 74, 0
7, 274944, Note_on_c, 5, 80, 96
7, 275456, Note_off_c, 5, 80, 0
7, 275712, Note_on_c, 5, 83, 96
7, 275968, Note_off_c, 5, 83, 0
7, 275968, Note_on_c, 5, 81, 96
7, 276224, Note_off_c, 5, 81, 0
7, 276224, Note_on_c, 5, 80, 96
7, 276480, Note_off_c, 5, 80, 0
7, 276480, Note_on_c, 5, 81, 96
7, 276992, Note_off_c, 5, 81, 0
7, 276992, Note_on_c, 5, 69, 96
7, 277504, Note_off_c, 5, 69, 0
7, 278016, Note_on_c, 5, 79, 96
7, 278528, Note_off_c, 5, 79, 0
7, 278528, Note_on_c, 5, 78, 96
7, 279040, Note_off_c, 5, 78, 0
7, 279040, Note_on_c, 5, 86, 96
7, 279552, Note_off_c, 5, 86, 0
7, 279552, Note_on_c, 5, 76, 96
7, 280064, Note_off_c, 5, 76, 0
7, 280064, Note_on_c, 5, 85, 96
7, 280576, Note_off_c, 5, 85, 0
7, 280576, Note_on_c, 5, 86, 96
7, 284672, Note_off_c, 5, 86, 0
7, 284672, End_track
8, 0, Start_track
8, 0, Title_t, "Instrument 7"
8, 5376, Note_on_c, 6, 69, 96
8, 5632, Note_off_c, 6, 69, 0
8, 5632, Note_on_c, 6, 71, 96
8, 5888, Note_off_c, 6, 71, 0
8, 5888, Note_on_c, 6, 73, 96
8, 6144, Note_off_c, 6, 73, 0
8, 6144, Note_on_c, 6, 74, 96
8, 6400, Note_off_c, 6, 74, 0
8, 6400, Note_on_c, 6, 69, 96
8, 6400, Note_on_c, 6, 69, 96
8, 6656, Note_off_c, 6, 69, 0
8, 6656, Note_on_c, 6, 74, 96
8, 6656, Note_off_c, 6, 69, 0
8, 6656, Note_on_c, 6, 71, 96
8, 6912, Note_off_c, 6, 74, 0
8, 6912, Note_on_c, 6, 76, 96
8, 6912, Note_off_c, 6, 71, 0
8, 6912, Note_on_c, 6, 73, 96
8, 7168, Note_off_c, 6, 76, 0
8, 7168, Note_on_c, 6, 78, 96
8, 7168, Note_off_c, 6, 73, 0
8, 7168, Note_on_c, 6, 74, 96
8, 7424, Note_off_c, 6, 78, 0
8, 7424, Note_on_c, 6, 74, 96
8, 7424, Note_off_c, 6, 74, 0
8, 7424, Note_on_c, 6, 69, 96
8, 7680, Note_off_c, 6, 74, 0
8, 7680, Note_on_c, 6, 78, 96
8, 7680, Note_off_c, 6, 69, 0
8, 7680, Note_on_c, 6, 74, 96
8, 7936, Note_off_c, 6, 78, 0
8, 7936, Note_on_c, 6, 79, 96
8, 7936, Note_off_c, 6, 74, 0
8, 7936, Note_on_c, 6, 76, 96
8, 8192, Note_off_c, 6, 79, 0
8, 8192, Note_off_c, 6, 76, 0
8, 8192, Note_on_c, 6, 81, 96
8, 8192, Note_on_c, 6, 78, 96
8, 8704, Note_off_c, 6, 81, 0
8, 8704, Note_on_c, 6, 81, 96
8, 8704, Note_off_c, 6, 78, 0
8, 8704, Note_on_c, 6, 78, 96
8, 9216, Note_off_c, 6, 81, 0
8, 9216, Note_on_c, 6, 79, 96
8, 9216, Note_off_c, 6, 78, 0
8, 9216, Note_on_c, 6, 76, 96
8, 9728, Note_off_c, 6, 79, 0
8, 9728, Note_on_c, 6, 78, 96
8, 9728, Note_off_c, 6, 76, 0
8, 9728, Note_on_c, 6, 74, 96
8, 10240, Note_off_c, 6, 78, 0
8, 10240, Note_on_c, 6, 78, 96
8, 10240, Note_off_c, 6, 74, 0
8, 10240, Note_on_c, 6, 74, 96
8, 10752, Note_off_c, 6, 78, 0
8, 10752, Note_on_c, 6, 76, 96
8, 10752, Note_off_c, 6, 74, 0
8, 10752, Note_on_c, 6, 73, 96
8, 11264, Note_off_c, 6, 76, 0
8, 11264, Note_off_c, 6, 73, 0
8, 12800, Note_on_c, 6, 74, 96
8, 13312, Note_off_c, 6, 74, 0
8, 13312, Note_on_c, 6, 74, 96
8, 13824, Note_on_c, 6, 74, 96
8, 13824, Note_off_c, 6, 74, 0
8, 13824, Note_on_c, 6, 69, 96
8, 14336, Note_off_c, 6, 74, 0
8, 14336, Note_on_c, 6, 74, 96
8, 14336, Note_off_c, 6, 69, 0
8, 14336, Note_on_c, 6, 69, 96
8, 14848, Note_off_c, 6, 74, 0
8, 14848, Note_on_c, 6, 69, 96
8, 14848, Note_off_c, 6, 69, 0
8, 14848, Note_on_c, 6, 66, 96
8, 15360, Note_off_c, 6, 69, 0
8, 15360, Note_on_c, 6, 69, 96
8, 15360, Note_off_c, 6, 66, 0
8, 15360, Note_on_c, 6, 66, 96
8, 15872, Note_off_c, 6, 69, 0
8, 15872, Note_on_c, 6, 66, 96
8, 15872, Note_off_c, 6, 66, 0
8, 15872, Note_on_c, 6, 62, 96
8, 16384, Note_off_c, 6, 66, 0
8, 16384, Note_off_c, 6, 62, 0
8, 16384, Note_on_c, 6, 66, 96
8, 16384, Note_on_c, 6, 62, 96
8, 16896, Note_off_c, 6, 66, 0
8, 16896, Note_on_c, 6, 81, 96
8, 16896, Note_off_c, 6, 62, 0
8, 16896, Note_on_c, 6, 78, 96
8, 17408, Note_off_c, 6, 81, 0
8, 17408, Note_on_c, 6, 79, 96
8, 17408, Note_off_c, 6, 78, 0
8, 17408, Note_on_c, 6, 76, 96
8, 17920, Note_off_c, 6, 79, 0
8, 17920, Note_on_c, 6, 78, 96
8, 17920, Note_off_c, 6, 76, 0
8, 17920, Note_on_c, 6, 74, 96
8, 18432, Note_off_c, 6, 78, 0
8, 18432, Note_on_c, 6, 78, 96
8, 18432, Note_off_c, 6, 74, 0
8, 18432, Note_on_c, 6, 74, 96
8, 18944, Note_off_c, 6, 78, 0
8, 18944, Note_on_c, 6, 76, 96
8, 18944, Note_off_c, 6, 74, 0
8, 18944, Note_on_c, 6, 73, 96
8, 19456, Note_off_c, 6, 76, 0
8, 19456, Note_off_c, 6, 73, 0
8, 20992, Note_on_c, 6, 76, 96
8, 20992, Note_on_c, 6, 69, 96
8, 21504, Note_off_c, 6, 76, 0
8, 21504, Note_on_c, 6, 78, 96
8, 21504, Note_off_c, 6, 69, 0
8, 21504, Note_on_c, 6, 69, 96
8, 22016, Note_off_c, 6, 78, 0
8, 22016, Note_off_c, 6, 69, 0
8, 23040, Note_on_c, 6, 83, 96
8, 23040, Note_on_c, 6, 78, 96
8, 23296, Note_off_c, 6, 83, 0
8, 23296, Note_on_c, 6, 81, 96
8, 23296, Note_off_c, 6, 78, 0
8, 23296, Note_on_c, 6, 76, 96
8, 23552, Note_off_c, 6, 81, 0
8, 23552, Note_on_c, 6, 83, 96
8, 23552, Note_off_c, 6, 76, 0
8, 23552, Note_on_c, 6, 78, 96
8, 24064, Note_off_c, 6, 83, 0
8, 24064, Note_off_c, 6, 78, 0
8, 25088, Note_on_c, 6, 74, 96
8, 25088, Note_on_c, 6, 69, 96
8, 25600, Note_off_c, 6, 74, 0
8, 25600, Note_on_c, 6, 76, 96
8, 25600, Note_off_c, 6, 69, 0
8, 25600, Note_on_c, 6, 69, 96
8, 26112, Note_off_c, 6, 76, 0
8, 26112, Note_off_c, 6, 69, 0
8, 27136, Note_on_c, 6, 81, 96
8, 27136, Note_on_c, 6, 76, 96
8, 27392, Note_off_c, 6, 81, 0
8, 27392, Note_on_c, 6, 79, 96
8, 27392, Note_off_c, 6, 76, 0
8, 27392, Note_on_c, 6, 74, 96
8, 27648, Note_off_c, 6, 79, 0
8, 27648, Note_on_c, 6, 81, 96
8, 27648, Note_off_c, 6, 74, 0
8, 27648, Note_on_c, 6, 76, 96
8, 28160, Note_off_c, 6, 81, 0
8, 28160, Note_off_c, 6, 76, 0
8, 29184, Note_on_c, 6, 78, 96
8, 29184, Note_on_c, 6, 74, 96
8, 29696, Note_off_c, 6, 78, 0
8, 29696, Note_on_c, 6, 78, 96
8, 29696, Note_off_c, 6, 74, 0
8, 29696, Note_on_c, 6, 74, 96
8, 30208, Note_off_c, 6, 78, 0
8, 30208, Note_on_c, 6, 78, 96
8, 30208, Note_off_c, 6, 74, 0
8, 30208, Note_on_c, 6, 74, 96
8, 30720, Note_off_c, 6, 78, 0
8, 30720, Note_off_c, 6, 74, 0
8, 31232, Note_on_c, 6, 79, 96
8, 31232, Note_on_c, 6, 74, 96
8, 31744, Note_off_c, 6, 79, 0
8, 31744, Note_on_c, 6, 81, 96
8, 31744, Note_off_c, 6, 74, 0
8, 31744, Note_on_c, 6, 78, 96
8, 32256, Note_off_c, 6, 81, 0
8, 32256, Note_on_c, 6, 81, 96
8, 32256, Note_off_c, 6, 78, 0
8, 32256, Note_on_c, 6, 78, 96
8, 32768, Note_off_c, 6, 81, 0
8, 32768, Note_off_c, 6, 78, 0
8, 33280, Note_on_c, 6, 83, 96
8, 33280, Note_on_c, 6, 79, 96
8, 33536, Note_off_c, 6, 83, 0
8, 33536, Note_on_c, 6, 81, 96
8, 33536, Note_off_c, 6, 79, 0
8, 33536, Note_on_c, 6, 78, 96
8, 33792, Note_off_c, 6, 81, 0
8, 33792, Note_on_c, 6, 79, 96
8, 33792, Note_off_c, 6, 78, 0
8, 33792, Note_on_c, 6, 76, 96
8, 34304, Note_off_c, 6, 79, 0
8, 34304, Note_off_c, 6, 76, 0
8, 35328, Note_on_c, 6, 79, 96
8, 35328, Note_on_c, 6, 69, 96
8, 35584, Note_off_c, 6, 79, 0
8, 35584, Note_on_c, 6, 78, 96
8, 35840, Note_off_c, 6, 78, 0
8, 35840, Note_on_c, 6, 79, 96
8, 35840, Note_off_c, 6, 69, 0
8, 35840, Note_on_c, 6, 73, 96
8, 36352, Note_off_c, 6, 79, 0
8, 36352, Note_on_c, 6, 81, 96
8, 36352, Note_off_c, 6, 73, 0
8, 36352, Note_on_c, 6, 76, 96
8, 36864, Note_off_c, 6, 81, 0
8, 36864, Note_off_c, 6, 76, 0
8, 36864, Note_on_c, 6, 79, 96
8, 36864, Note_on_c, 6, 74, 96
8, 37120, Note_off_c, 6, 79, 0
8, 37120, Note_on_c, 6, 78, 96
8, 37376, Note_off_c, 6, 78, 0
8, 37376, Note_on_c, 6, 76, 96
8, 37376, Note_off_c, 6, 74, 0
8, 37376, Note_on_c, 6, 74, 96
8, 37632, Note_off_c, 6, 76, 0
8, 37632, Note_on_c, 6, 74, 96
8, 37888, Note_off_c, 6, 74, 0
8, 37888, Note_on_c, 6, 78, 96
8, 37888, Note_off_c, 6, 74, 0
8, 37888, Note_on_c, 6, 74, 96
8, 38400, Note_off_c, 6, 78, 0
8, 38400, Note_on_c, 6, 76, 96
8, 38400, Note_off_c, 6, 74, 0
8, 38400, Note_on_c, 6, 73, 96
8, 38912, Note_off_c, 6, 76, 0
8, 38912, Note_on_c, 6, 74, 96
8, 38912, Note_off_c, 6, 73, 0
8, 38912, Note_on_c, 6, 74, 96
8, 39424, Note_off_c, 6, 74, 0
8, 39424, Note_on_c, 6, 86, 96
8, 39424, Note_off_c, 6, 74, 0
8, 39680, Note_off_c, 6, 86, 0
8, 39680, Note_on_c, 6, 85, 96
8, 39936, Note_off_c, 6, 85, 0
8, 39936, Note_on_c, 6, 86, 96
8, 40448, Note_off_c, 6, 86, 0
8, 40448, Note_on_c, 6, 74, 96
8, 40448, Note_on_c, 6, 74, 96
8, 40960, Note_off_c, 6, 74, 0
8, 40960, Note_off_c, 6, 74, 0
8, 40960, Note_on_c, 6, 74, 96
8, 40960, Note_on_c, 6, 69, 96
8, 41472, Note_off_c, 6, 74, 0
8, 41472, Note_on_c, 6, 81, 96
8, 41472, Note_off_c, 6, 69, 0
8, 41728, Note_off_c, 6, 81, 0
8, 41728, Note_on_c, 6, 79, 96
8, 41984, Note_off_c, 6, 79, 0
8, 41984, Note_on_c, 6, 81, 96
8, 42496, Note_off_c, 6, 81, 0
8, 42496, Note_on_c, 6, 74, 96
8, 42496, Note_on_c, 6, 81, 96
8, 43008, Note_off_c, 6, 74, 0
8, 43008, Note_on_c, 6, 83, 96
8, 43008, Note_off_c, 6, 81, 0
8, 43008, Note_on_c, 6, 79, 96
8, 43520, Note_off_c, 6, 83, 0
8, 43520, Note_off_c, 6, 79, 0
8, 44032, Note_on_c, 6, 81, 96
8, 44032, Note_on_c, 6, 74, 96
8, 44544, Note_off_c, 6, 81, 0
8, 44544, Note_off_c, 6, 74, 0
8, 45056, Note_on_c, 6, 80, 96
8, 45056, Note_on_c, 6, 74, 96
8, 45568, Note_off_c, 6, 80, 0
8, 45568, Note_on_c, 6, 74, 96
8, 45568, Note_off_c, 6, 74, 0
8, 45824, Note_off_c, 6, 74, 0
8, 45824, Note_on_c, 6, 73, 96
8, 46080, Note_off_c, 6, 73, 0
8, 46080, Note_on_c, 6, 71, 96
8, 46080, Note_on_c, 6, 68, 96
8, 46592, Note_off_c, 6, 71, 0
8, 46592, Note_on_c, 6, 83, 96
8, 46592, Note_off_c, 6, 68, 0
8, 47104, Note_off_c, 6, 83, 0
8, 47104, Note_on_c, 6, 81, 96
8, 47104, Note_on_c, 6, 64, 96
8, 47616, Note_off_c, 6, 81, 0
8, 47616, Note_on_c, 6, 69, 96
8, 47616, Note_off_c, 6, 64, 0
8, 47872, Note_off_c, 6, 69, 0
8, 47872, Note_on_c, 6, 71, 96
8, 48128, Note_off_c, 6, 71, 0
8, 48128, Note_on_c, 6, 73, 96
8, 48128, Note_on_c, 6, 76, 96
8, 48640, Note_off_c, 6, 73, 0
8, 48640, Note_on_c, 6, 79, 96
8, 48640, Note_off_c, 6, 76, 0
8, 49152, Note_off_c, 6, 79, 0
8, 49152, Note_on_c, 6, 78, 96
8, 49152, Note_on_c, 6, 69, 96
8, 49664, Note_off_c, 6, 78, 0
8, 49664, Note_on_c, 6, 86, 96
8, 49664, Note_off_c, 6, 69, 0
8, 49664, Note_on_c, 6, 78, 96
8, 50176, Note_off_c, 6, 86, 0
8, 50176, Note_on_c, 6, 76, 96
8, 50176, Note_off_c, 6, 78, 0
8, 50176, Note_on_c, 6, 79, 96
8, 50688, Note_off_c, 6, 76, 0
8, 50688, Note_on_c, 6, 85, 96
8, 50688, Note_off_c, 6, 79, 0
8, 50688, Note_on_c, 6, 76, 96
8, 51200, Note_off_c, 6, 85, 0
8, 51200, Note_on_c, 6, 74, 96
8, 51200, Note_off_c, 6, 76, 0
8, 51200, Note_on_c, 6, 74, 96
8, 52224, Note_off_c, 6, 74, 0
8, 52224, Note_on_c, 6, 66, 96
8, 52224, Note_off_c, 6, 74, 0
8, 52224, Note_on_c, 6, 66, 96
8, 53248, Note_off_c, 6, 66, 0
8, 53248, Note_off_c, 6, 66, 0
8, 53248, Note_on_c, 6, 71, 96
8, 53248, Note_on_c, 6, 71, 96
8, 54272, Note_off_c, 6, 71, 0
8, 54272, Note_on_c, 6, 69, 96
8, 54272, Note_off_c, 6, 71, 0
8, 54272, Note_on_c, 6, 69, 96
8, 55296, Note_off_c, 6, 69, 0
8, 55296, Note_on_c, 6, 67, 96
8, 55296, Note_off_c, 6, 69, 0
8, 55296, Note_on_c, 6, 67, 96
8, 56320, Note_off_c, 6, 67, 0
8, 56320, Note_on_c, 6, 66, 96
8, 56320, Note_off_c, 6, 67, 0
8, 56320, Note_on_c, 6, 66, 96
8, 57344, Note_off_c, 6, 66, 0
8, 57344, Note_off_c, 6, 66, 0
8, 57344, Note_on_c, 6, 64, 96
8, 57344, Note_on_c, 6, 64, 96
8, 59392, Note_off_c, 6, 64, 0
8, 59392, Note_on_c, 6, 66, 96
8, 59392, Note_off_c, 6, 64, 0
8, 59392, Note_on_c, 6, 66, 96
8, 60416, Note_off_c, 6, 66, 0
8, 60416, Note_off_c, 6, 66, 0
8, 62720, Note_on_c, 6, 66, 96
8, 62976, Note_off_c, 6, 66, 0
8, 62976, Note_on_c, 6, 68, 96
8, 63232, Note_off_c, 6, 68, 0
8, 63232, Note_on_c, 6, 70, 96
8, 63488, Note_off_c, 6, 70, 0
8, 63488, Note_on_c, 6, 71, 96
8, 63744, Note_off_c, 6, 71, 0
8, 63744, Note_on_c, 6, 66, 96
8, 63744, Note_on_c, 6, 66, 96
8, 64000, Note_off_c, 6, 66, 0
8, 64000, Note_on_c, 6, 71, 96
8, 64000, Note_off_c, 6, 66, 0
8, 64000, Note_on_c, 6, 68, 96
8, 64256, Note_off_c, 6, 71, 0
8, 64256, Note_on_c, 6, 73, 96
8, 64256, Note_off_c, 6, 68, 0
8, 64256, Note_on_c, 6, 70, 96
8, 64512, Note_off_c, 6, 73, 0
8, 64512, Note_on_c, 6, 74, 96
8, 64512, Note_off_c, 6, 70, 0
8, 64512, Note_on_c, 6, 71, 96
8, 64768, Note_off_c, 6, 74, 0
8, 64768, Note_on_c, 6, 71, 96
8, 64768, Note_off_c, 6, 71, 0
8, 64768, Note_on_c, 6, 66, 96
8, 65024, Note_off_c, 6, 71, 0
8, 65024, Note_on_c, 6, 74, 96
8, 65024, Note_off_c, 6, 66, 0
8, 65024, Note_on_c, 6, 71, 96
8, 65280, Note_off_c, 6, 74, 0
8, 65280, Note_on_c, 6, 76, 96
8, 65280, Note_off_c, 6, 71, 0
8, 65280, Note_on_c, 6, 73, 96
8, 65536, Note_off_c, 6, 76, 0
8, 65536, Note_off_c, 6, 73, 0
8, 65536, Note_on_c, 6, 78, 96
8, 65536, Note_on_c, 6, 74, 96
8, 66048, Note_off_c, 6, 78, 0
8, 66048, Note_on_c, 6, 78, 96
8, 66048, Note_off_c, 6, 74, 0
8, 66048, Note_on_c, 6, 74, 96
8, 66560, Note_off_c, 6, 78, 0
8, 66560, Note_on_c, 6, 76, 96
8, 66560, Note_off_c, 6, 74, 0
8, 66560, Note_on_c, 6, 73, 96
8, 67072, Note_off_c, 6, 76, 0
8, 67072, Note_on_c, 6, 74, 96
8, 67072, Note_off_c, 6, 73, 0
8, 67072, Note_on_c, 6, 71, 96
8, 67584, Note_off_c, 6, 74, 0
8, 67584, Note_on_c, 6, 74, 96
8, 67584, Note_off_c, 6, 71, 0
8, 67584, Note_on_c, 6, 71, 96
8, 68096, Note_off_c, 6, 74, 0
8, 68096, Note_on_c, 6, 73, 96
8, 68096, Note_off_c, 6, 71, 0
8, 68096, Note_on_c, 6, 70, 96
8, 68608, Note_off_c, 6, 73, 0
8, 68608, Note_on_c, 6, 73, 96
8, 68608, Note_off_c, 6, 70, 0
8, 68608, Note_on_c, 6, 73, 96
8, 69632, Note_off_c, 6, 73, 0
8, 69632, Note_off_c, 6, 73, 0
8, 69632, Note_on_c, 6, 74, 96
8, 69632, Note_on_c, 6, 74, 96
8, 70656, Note_off_c, 6, 74, 0
8, 70656, Note_on_c, 6, 74, 96
8, 70656, Note_off_c, 6, 74, 0
8, 70656, Note_on_c, 6, 74, 96
8, 71680, Note_off_c, 6, 74, 0
8, 71680, Note_on_c, 6, 73, 96
8, 71680, Note_off_c, 6, 74, 0
8, 71680, Note_on_c, 6, 73, 96
8, 72448, Note_off_c, 6, 73, 0
8, 72448, Note_on_c, 6, 74, 96
8, 72448, Note_off_c, 6, 73, 0
8, 72448, Note_on_c, 6, 74, 96
8, 72576, Note_off_c, 6, 74, 0
8, 72576, Note_on_c, 6, 76, 96
8, 72576, Note_off_c, 6, 74, 0
8, 72576, Note_on_c, 6, 76, 96
8, 72704, Note_off_c, 6, 76, 0
8, 72704, Note_on_c, 6, 73, 96
8, 72704, Note_off_c, 6, 76, 0
8, 72704, Note_on_c, 6, 73, 96
8, 73728, Note_off_c, 6, 73, 0
8, 73728, Note_off_c, 6, 73, 0
8, 73728, Note_on_c, 6, 71, 96
8, 73728, Note_on_c, 6, 71, 96
8, 76800, Note_off_c, 6, 71, 0
8, 76800, Note_off_c, 6, 71, 0
8, 79104, Note_on_c, 6, 69, 96
8, 79360, Note_off_c, 6, 69, 0
8, 79360, Note_on_c, 6, 71, 96
8, 79616, Note_off_c, 6, 71, 0
8, 79616, Note_on_c, 6, 73, 96
8, 79872, Note_off_c, 6, 73, 0
8, 79872, Note_on_c, 6, 74, 96
8, 80128, Note_off_c, 6, 74, 0
8, 80128, Note_on_c, 6, 69, 96
8, 80128, Note_on_c, 6, 69, 96
8, 80384, Note_off_c, 6, 69, 0
8, 80384, Note_on_c, 6, 74, 96
8, 80384, Note_off_c, 6, 69, 0
8, 80384, Note_on_c, 6, 71, 96
8, 80640, Note_off_c, 6, 74, 0
8, 80640, Note_on_c, 6, 76, 96
8, 80640, Note_off_c, 6, 71, 0
8, 80640, Note_on_c, 6, 73, 96
8, 80896, Note_off_c, 6, 76, 0
8, 80896, Note_on_c, 6, 78, 96
8, 80896, Note_off_c, 6, 73, 0
8, 80896, Note_on_c, 6, 74, 96
8, 81152, Note_off_c, 6, 78, 0
8, 81152, Note_on_c, 6, 74, 96
8, 81152, Note_off_c, 6, 74, 0
8, 81152, Note_on_c, 6, 69, 96
8, 81408, Note_off_c, 6, 74, 0
8, 81408, Note_on_c, 6, 78, 96
8, 81408, Note_off_c, 6, 69, 0
8, 81408, Note_on_c, 6, 74, 96
8, 81664, Note_off_c, 6, 78, 0
8, 81664, Note_on_c, 6, 79, 96
8, 81664, Note_off_c, 6, 74, 0
8, 81664, Note_on_c, 6, 76, 96
8, 81920, Note_off_c, 6, 79, 0
8, 81920, Note_off_c, 6, 76, 0
8, 81920, Note_on_c, 6, 81, 96
8, 81920, Note_on_c, 6, 78, 96
8, 82432, Note_off_c, 6, 81, 0
8, 82432, Note_on_c, 6, 81, 96
8, 82432, Note_off_c, 6, 78, 0
8, 82432, Note_on_c, 6, 78, 96
8, 82944, Note_off_c, 6, 81, 0
8, 82944, Note_on_c, 6, 79, 96
8, 82944, Note_off_c, 6, 78, 0
8, 82944, Note_on_c, 6, 76, 96
8, 83456, Note_off_c, 6, 79, 0
8, 83456, Note_on_c, 6, 78, 96
8, 83456, Note_off_c, 6, 76, 0
8, 83456, Note_on_c, 6, 74, 96
8, 83968, Note_off_c, 6, 78, 0
8, 83968, Note_on_c, 6, 78, 96
8, 83968, Note_off_c, 6, 74, 0
8, 83968, Note_on_c, 6, 74, 96
8, 84480, Note_off_c, 6, 78, 0
8, 84480, Note_on_c, 6, 76, 96
8, 84480, Note_off_c, 6, 74, 0
8, 84480, Note_on_c, 6, 73, 96
8, 84992, Note_off_c, 6, 76, 0
8, 84992, Note_off_c, 6, 73, 0
8, 86528, Note_on_c, 6, 74, 96
8, 87040, Note_off_c, 6, 74, 0
8, 87040, Note_on_c, 6, 74, 96
8, 87552, Note_on_c, 6, 74, 96
8, 87552, Note_off_c, 6, 74, 0
8, 87552, Note_on_c, 6, 69, 96
8, 88064, Note_off_c, 6, 74, 0
8, 88064, Note_on_c, 6, 74, 96
8, 88064, Note_off_c, 6, 69, 0
8, 88064, Note_on_c, 6, 69, 96
8, 88576, Note_off_c, 6, 74, 0
8, 88576, Note_on_c, 6, 69, 96
8, 88576, Note_off_c, 6, 69, 0
8, 88576, Note_on_c, 6, 66, 96
8, 89088, Note_off_c, 6, 69, 0
8, 89088, Note_on_c, 6, 69, 96
8, 89088, Note_off_c, 6, 66, 0
8, 89088, Note_on_c, 6, 66, 96
8, 89600, Note_off_c, 6, 69, 0
8, 89600, Note_on_c, 6, 66, 96
8, 89600, Note_off_c, 6, 66, 0
8, 89600, Note_on_c, 6, 62, 96
8, 90112, Note_off_c, 6, 66, 0
8, 90112, Note_off_c, 6, 62, 0
8, 90112, Note_on_c, 6, 66, 96
8, 90112, Note_on_c, 6, 62, 96
8, 90624, Note_off_c, 6, 66, 0
8, 90624, Note_on_c, 6, 81, 96
8, 90624, Note_off_c, 6, 62, 0
8, 90624, Note_on_c, 6, 78, 96
8, 91136, Note_off_c, 6, 81, 0
8, 91136, Note_on_c, 6, 79, 96
8, 91136, Note_off_c, 6, 78, 0
8, 91136, Note_on_c, 6, 76, 96
8, 91648, Note_off_c, 6, 79, 0
8, 91648, Note_on_c, 6, 78, 96
8, 91648, Note_off_c, 6, 76, 0
8, 91648, Note_on_c, 6, 74, 96
8, 92160, Note_off_c, 6, 78, 0
8, 92160, Note_on_c, 6, 78, 96
8, 92160, Note_off_c, 6, 74, 0
8, 92160, Note_on_c, 6, 74, 96
8, 92672, Note_off_c, 6, 78, 0
8, 92672, Note_on_c, 6, 76, 96
8, 92672, Note_off_c, 6, 74, 0
8, 92672, Note_on_c, 6, 73, 96
8, 93184, Note_off_c, 6, 76, 0
8, 93184, Note_off_c, 6, 73, 0
8, 94720, Note_on_c, 6, 76, 96
8, 94720, Note_on_c, 6, 69, 96
8, 95232, Note_off_c, 6, 76, 0
8, 95232, Note_on_c, 6, 78, 96
8, 95232, Note_off_c, 6, 69, 0
8, 95232, Note_on_c, 6, 69, 96
8, 95744, Note_off_c, 6, 78, 0
8, 95744, Note_off_c, 6, 69, 0
8, 96768, Note_on_c, 6, 83, 96
8, 96768, Note_on_c, 6, 78, 96
8, 97024, Note_off_c, 6, 83, 0
8, 97024, Note_on_c, 6, 81, 96
8, 97024, Note_off_c, 6, 78, 0
8, 97024, Note_on_c, 6, 76, 96
8, 97280, Note_off_c, 6, 81, 0
8, 97280, Note_on_c, 6, 83, 96
8, 97280, Note_off_c, 6, 76, 0
8, 97280, Note_on_c, 6, 78, 96
8, 97792, Note_off_c, 6, 83, 0
8, 97792, Note_off_c, 6, 78, 0
8, 98816, Note_on_c, 6, 74, 96
8, 98816, Note_on_c, 6, 69, 96
8, 99328, Note_off_c, 6, 74, 0
8, 99328, Note_on_c, 6, 76, 96
8, 99328, Note_off_c, 6, 69, 0
8, 99328, Note_on_c, 6, 69, 96
8, 99840, Note_off_c, 6, 76, 0
8, 99840, Note_off_c, 6, 69, 0
8, 100864, Note_on_c, 6, 81, 96
8, 100864, Note_on_c, 6, 76, 96
8, 101120, Note_off_c, 6, 81, 0
8, 101120, Note_on_c, 6, 79, 96
8, 101120, Note_off_c, 6, 76, 0
8, 101120, Note_on_c, 6, 74, 96
8, 101376, Note_off_c, 6, 79, 0
8, 101376, Note_on_c, 6, 81, 96
8, 101376, Note_off_c, 6, 74, 0
8, 101376, Note_on_c, 6, 76, 96
8, 101888, Note_off_c, 6, 81, 0
8, 101888, Note_off_c, 6, 76, 0
8, 102912, Note_on_c, 6, 78, 96
8, 102912, Note_on_c, 6, 74, 96
8, 103424, Note_off_c, 6, 78, 0
8, 103424, Note_on_c, 6, 78, 96
8, 103424, Note_off_c, 6, 74, 0
8, 103424, Note_on_c, 6, 74, 96
8, 103936, Note_off_c, 6, 78, 0
8, 103936, Note_on_c, 6, 78, 96
8, 103936, Note_off_c, 6, 74, 0
8, 103936, Note_on_c, 6, 74, 96
8, 104448, Note_off_c, 6, 78, 0
8, 104448, Note_off_c, 6, 74, 0
8, 104960, Note_on_c, 6, 79, 96
8, 104960, Note_on_c, 6, 74, 96
8, 105472, Note_off_c, 6, 79, 0
8, 105472, Note_on_c, 6, 81, 96
8, 105472, Note_off_c, 6, 74, 0
8, 105472, Note_on_c, 6, 78, 96
8, 105984, Note_off_c, 6, 81, 0
8, 105984, Note_on_c, 6, 81, 96
8, 105984, Note_off_c, 6, 78, 0
8, 105984, Note_on_c, 6, 78, 96
8, 106496, Note_off_c, 6, 81, 0
8, 106496, Note_off_c, 6, 78, 0
8, 107008, Note_on_c, 6, 83, 96
8, 107008, Note_on_c, 6, 79, 96
8, 107264, Note_off_c, 6, 83, 0
8, 107264, Note_on_c, 6, 81, 96
8, 107264, Note_off_c, 6, 79, 0
8, 107264, Note_on_c, 6, 78, 96
8, 107520, Note_off_c, 6, 81, 0
8, 107520, Note_on_c, 6, 79, 96
8, 107520, Note_off_c, 6, 78, 0
8, 107520, Note_on_c, 6, 76, 96
8, 108032, Note_off_c, 6, 79, 0
8, 108032, Note_off_c, 6, 76, 0
8, 109056, Note_on_c, 6, 79, 96
8, 109056, Note_on_c, 6, 69, 96
8, 109312, Note_off_c, 6, 79, 0
8, 109312, Note_on_c, 6, 78, 96
8, 109568, Note_off_c, 6, 78, 0
8, 109568, Note_on_c, 6, 79, 96
8, 109568, Note_off_c, 6, 69, 0
8, 109568, Note_on_c, 6, 73, 96
8, 110080, Note_off_c, 6, 79, 0
8, 110080, Note_on_c, 6, 81, 96
8, 110080, Note_off_c, 6, 73, 0
8, 110080, Note_on_c, 6, 76, 96
8, 110592, Note_off_c, 6, 81, 0
8, 110592, Note_off_c, 6, 76, 0
8, 110592, Note_on_c, 6, 79, 96
8, 110592, Note_on_c, 6, 74, 96
8, 110848, Note_off_c, 6, 79, 0
8, 110848, Note_on_c, 6, 78, 96
8, 111104, Note_off_c, 6, 78, 0
8, 111104, Note_on_c, 6, 76, 96
8, 111104, Note_off_c, 6, 74, 0
8, 111104, Note_on_c, 6, 74, 96
8, 111360, Note_off_c, 6, 76, 0
8, 111360, Note_on_c, 6, 74, 96
8, 111616, Note_off_c, 6, 74, 0
8, 111616, Note_on_c, 6, 78, 96
8, 111616, Note_off_c, 6, 74, 0
8, 111616, Note_on_c, 6, 74, 96
8, 112128, Note_off_c, 6, 78, 0
8, 112128, Note_on_c, 6, 76, 96
8, 112128, Note_off_c, 6, 74, 0
8, 112128, Note_on_c, 6, 73, 96
8, 112640, Note_off_c, 6, 76, 0
8, 112640, Note_on_c, 6, 74, 96
8, 112640, Note_off_c, 6, 73, 0
8, 112640, Note_on_c, 6, 74, 96
8, 113152, Note_off_c, 6, 74, 0
8, 113152, Note_on_c, 6, 86, 96
8, 113152, Note_off_c, 6, 74, 0
8, 113408, Note_off_c, 6, 86, 0
8, 113408, Note_on_c, 6, 85, 96
8, 113664, Note_off_c, 6, 85, 0
8, 113664, Note_on_c, 6, 86, 96
8, 114176, Note_off_c, 6, 86, 0
8, 114176, Note_on_c, 6, 74, 96
8, 114176, Note_on_c, 6, 74, 96
8, 114688, Note_off_c, 6, 74, 0
8, 114688, Note_off_c, 6, 74, 0
8, 114688, Note_on_c, 6, 74, 96
8, 114688, Note_on_c, 6, 69, 96
8, 115200, Note_off_c, 6, 74, 0
8, 115200, Note_on_c, 6, 81, 96
8, 115200, Note_off_c, 6, 69, 0
8, 115456, Note_off_c, 6, 81, 0
8, 115456, Note_on_c, 6, 79, 96
8, 115712, Note_off_c, 6, 79, 0
8, 115712, Note_on_c, 6, 81, 96
8, 116224, Note_off_c, 6, 81, 0
8, 116224, Note_on_c, 6, 74, 96
8, 116224, Note_on_c, 6, 81, 96
8, 116736, Note_off_c, 6, 74, 0
8, 116736, Note_on_c, 6, 83, 96
8, 116736, Note_off_c, 6, 81, 0
8, 116736, Note_on_c, 6, 79, 96
8, 117248, Note_off_c, 6, 83, 0
8, 117248, Note_off_c, 6, 79, 0
8, 117760, Note_on_c, 6, 81, 96
8, 117760, Note_on_c, 6, 74, 96
8, 118272, Note_off_c, 6, 81, 0
8, 118272, Note_off_c, 6, 74, 0
8, 118784, Note_on_c, 6, 80, 96
8, 118784, Note_on_c, 6, 74, 96
8, 119296, Note_off_c, 6, 80, 0
8, 119296, Note_on_c, 6, 74, 96
8, 119296, Note_off_c, 6, 74, 0
8, 119552, Note_off_c, 6, 74, 0
8, 119552, Note_on_c, 6, 73, 96
8, 119808, Note_off_c, 6, 73, 0
8, 119808, Note_on_c, 6, 71, 96
8, 119808, Note_on_c, 6, 68, 96
8, 120320, Note_off_c, 6, 71, 0
8, 120320, Note_on_c, 6, 83, 96
8, 120320, Note_off_c, 6, 68, 0
8, 120832, Note_off_c, 6, 83, 0
8, 120832, Note_on_c, 6, 81, 96
8, 120832, Note_on_c, 6, 64, 96
8, 121344, Note_off_c, 6, 81, 0
8, 121344, Note_on_c, 6, 69, 96
8, 121344, Note_off_c, 6, 64, 0
8, 121600, Note_off_c, 6, 69, 0
8, 121600, Note_on_c, 6, 71, 96
8, 121856, Note_off_c, 6, 71, 0
8, 121856, Note_on_c, 6, 73, 96
8, 121856, Note_on_c, 6, 76, 96
8, 122368, Note_off_c, 6, 73, 0
8, 122368, Note_on_c, 6, 79, 96
8, 122368, Note_off_c, 6, 76, 0
8, 122880, Note_off_c, 6, 79, 0
8, 122880, Note_on_c, 6, 78, 96
8, 122880, Note_on_c, 6, 69, 96
8, 123392, Note_off_c, 6, 78, 0
8, 123392, Note_on_c, 6, 86, 96
8, 123392, Note_off_c, 6, 69, 0
8, 123392, Note_on_c, 6, 78, 96
8, 123904, Note_off_c, 6, 86, 0
8, 123904, Note_on_c, 6, 76, 96
8, 123904, Note_off_c, 6, 78, 0
8, 123904, Note_on_c, 6, 79, 96
8, 124416, Note_off_c, 6, 76, 0
8, 124416, Note_on_c, 6, 85, 96
8, 124416, Note_off_c, 6, 79, 0
8, 124416, Note_on_c, 6, 76, 96
8, 124928, Note_off_c, 6, 85, 0
8, 124928, Note_on_c, 6, 74, 96
8, 124928, Note_off_c, 6, 76, 0
8, 124928, Note_on_c, 6, 74, 96
8, 125952, Note_off_c, 6, 74, 0
8, 125952, Note_on_c, 6, 66, 96
8, 125952, Note_off_c, 6, 74, 0
8, 125952, Note_on_c, 6, 66, 96
8, 126976, Note_off_c, 6, 66, 0
8, 126976, Note_off_c, 6, 66, 0
8, 126976, Note_on_c, 6, 71, 96
8, 126976, Note_on_c, 6, 71, 96
8, 128000, Note_off_c, 6, 71, 0
8, 128000, Note_on_c, 6, 69, 96
8, 128000, Note_off_c, 6, 71, 0
8, 128000, Note_on_c, 6, 69, 96
8, 129024, Note_off_c, 6, 69, 0
8, 129024, Note_on_c, 6, 67, 96
8, 129024, Note_off_c, 6, 69, 0
8, 129024, Note_on_c, 6, 67, 96
8, 130048, Note_off_c, 6, 67, 0
8, 130048, Note_on_c, 6, 66, 96
8, 130048, Note_off_c, 6, 67, 0
8, 130048, Note_on_c, 6, 66, 96
8, 131072, Note_off_c, 6, 66, 0
8, 131072, Note_off_c, 6, 66, 0
8, 131072, Note_on_c, 6, 64, 96
8, 131072, Note_on_c, 6, 64, 96
8, 133120, Note_off_c, 6, 64, 0
8, 133120, Note_on_c, 6, 66, 96
8, 133120, Note_off_c, 6, 64, 0
8, 133120, Note_on_c, 6, 66, 96
8, 134144, Note_off_c, 6, 66, 0
8, 134144, Note_off_c, 6, 66, 0
8, 136448, Note_on_c, 6, 66, 96
8, 136704, Note_off_c, 6, 66, 0
8, 136704, Note_on_c, 6, 68, 96
8, 136960, Note_off_c, 6, 68, 0
8, 136960, Note_on_c, 6, 70, 96
8, 137216, Note_off_c, 6, 70, 0
8, 137216, Note_on_c, 6, 71, 96
8, 137472, Note_off_c, 6, 71, 0
8, 137472, Note_on_c, 6, 66, 96
8, 137472, Note_on_c, 6, 66, 96
8, 137728, Note_off_c, 6, 66, 0
8, 137728, Note_on_c, 6, 71, 96
8, 137728, Note_off_c, 6, 66, 0
8, 137728, Note_on_c, 6, 68, 96
8, 137984, Note_off_c, 6, 71, 0
8, 137984, Note_on_c, 6, 73, 96
8, 137984, Note_off_c, 6, 68, 0
8, 137984, Note_on_c, 6, 70, 96
8, 138240, Note_off_c, 6, 73, 0
8, 138240, Note_on_c, 6, 74, 96
8, 138240, Note_off_c, 6, 70, 0
8, 138240, Note_on_c, 6, 71, 96
8, 138496, Note_off_c, 6, 74, 0
8, 138496, Note_on_c, 6, 71, 96
8, 138496, Note_off_c, 6, 71, 0
8, 138496, Note_on_c, 6, 66, 96
8, 138752, Note_off_c, 6, 71, 0
8, 138752, Note_on_c, 6, 74, 96
8, 138752, Note_off_c, 6, 66, 0
8, 138752, Note_on_c, 6, 71, 96
8, 139008, Note_off_c, 6, 74, 0
8, 139008, Note_on_c, 6, 76, 96
8, 139008, Note_off_c, 6, 71, 0
8, 139008, Note_on_c, 6, 73, 96
8, 139264, Note_off_c, 6, 76, 0
8, 139264, Note_off_c, 6, 73, 0
8, 139264, Note_on_c, 6, 78, 96
8, 139264, Note_on_c, 6, 74, 96
8, 139776, Note_off_c, 6, 78, 0
8, 139776, Note_on_c, 6, 78, 96
8, 139776, Note_off_c, 6, 74, 0
8, 139776, Note_on_c, 6, 74, 96
8, 140288, Note_off_c, 6, 78, 0
8, 140288, Note_on_c, 6, 76, 96
8, 140288, Note_off_c, 6, 74, 0
8, 140288, Note_on_c, 6, 73, 96
8, 140800, Note_off_c, 6, 76, 0
8, 140800, Note_on_c, 6, 74, 96
8, 140800, Note_off_c, 6, 73, 0
8, 140800, Note_on_c, 6, 71, 96
8, 141312, Note_off_c, 6, 74, 0
8, 141312, Note_on_c, 6, 74, 96
8, 141312, Note_off_c, 6, 71, 0
8, 141312, Note_on_c, 6, 71, 96
8, 141824, Note_off_c, 6, 74, 0
8, 141824, Note_on_c, 6, 73, 96
8, 141824, Note_off_c, 6, 71, 0
8, 141824, Note_on_c, 6, 70, 96
8, 142336, Note_off_c, 6, 73, 0
8, 142336, Note_on_c, 6, 73, 96
8, 142336, Note_off_c, 6, 70, 0
8, 142336, Note_on_c, 6, 73, 96
8, 143360, Note_off_c, 6, 73, 0
8, 143360, Note_off_c, 6, 73, 0
8, 143360, Note_on_c, 6, 74, 96
8, 143360, Note_on_c, 6, 74, 96
8, 144384, Note_off_c, 6, 74, 0
8, 144384, Note_on_c, 6, 74, 96
8, 144384, Note_off_c, 6, 74, 0
8, 144384, Note_on_c, 6, 74, 96
8, 145408, Note_off_c, 6, 74, 0
8, 145408, Note_on_c, 6, 73, 96
8, 145408, Note_off_c, 6, 74, 0
8, 145408, Note_on_c, 6, 73, 96
8, 146176, Note_off_c, 6, 73, 0
8, 146176, Note_on_c, 6, 74, 96
8, 146176, Note_off_c, 6, 73, 0
8, 146176, Note_on_c, 6, 74, 96
8, 146304, Note_off_c, 6, 74, 0
8, 146304, Note_on_c, 6, 76, 96
8, 146304, Note_off_c, 6, 74, 0
8, 146304, Note_on_c, 6, 76, 96
8, 146432, Note_off_c, 6, 76, 0
8, 146432, Note_on_c, 6, 73, 96
8, 146432, Note_off_c, 6, 76, 0
8, 146432, Note_on_c, 6, 73, 96
8, 147456, Note_off_c, 6, 73, 0
8, 147456, Note_off_c, 6, 73, 0
8, 147456, Note_on_c, 6, 71, 96
8, 147456, Note_on_c, 6, 71, 96
8, 150528, Note_off_c, 6, 71, 0
8, 150528, Note_off_c, 6, 71, 0
8, 152832, Note_on_c, 6, 69, 96
8, 153088, Note_off_c, 6, 69, 0
8, 153088, Note_on_c, 6, 71, 96
8, 153344, Note_off_c, 6, 71, 0
8, 153344, Note_on_c, 6, 73, 96
8, 153600, Note_off_c, 6, 73, 0
8, 153600, Note_on_c, 6, 74, 96
8, 153856, Note_off_c, 6, 74, 0
8, 153856, Note_on_c, 6, 69, 96
8, 153856, Note_on_c, 6, 69, 96
8, 154112, Note_off_c, 6, 69, 0
8, 154112, Note_on_c, 6, 74, 96
8, 154112, Note_off_c, 6, 69, 0
8, 154112, Note_on_c, 6, 71, 96
8, 154368, Note_off_c, 6, 74, 0
8, 154368, Note_on_c, 6, 76, 96
8, 154368, Note_off_c, 6, 71, 0
8, 154368, Note_on_c, 6, 73, 96
8, 154624, Note_off_c, 6, 76, 0
8, 154624, Note_on_c, 6, 78, 96
8, 154624, Note_off_c, 6, 73, 0
8, 154624, Note_on_c, 6, 74, 96
8, 154880, Note_off_c, 6, 78, 0
8, 154880, Note_on_c, 6, 74, 96
8, 154880, Note_off_c, 6, 74, 0
8, 154880, Note_on_c, 6, 69, 96
8, 155136, Note_off_c, 6, 74, 0
8, 155136, Note_on_c, 6, 78, 96
8, 155136, Note_off_c, 6, 69, 0
8, 155136, Note_on_c, 6, 74, 96
8, 155392, Note_off_c, 6, 78, 0
8, 155392, Note_on_c, 6, 79, 96
8, 155392, Note_off_c, 6, 74, 0
8, 155392, Note_on_c, 6, 76, 96
8, 155648, Note_off_c, 6, 79, 0
8, 155648, Note_off_c, 6, 76, 0
8, 155648, Note_on_c, 6, 81, 96
8, 155648, Note_on_c, 6, 78, 96
8, 156160, Note_off_c, 6, 81, 0
8, 156160, Note_on_c, 6, 81, 96
8, 156160, Note_off_c, 6, 78, 0
8, 156160, Note_on_c, 6, 78, 96
8, 156672, Note_off_c, 6, 81, 0
8, 156672, Note_on_c, 6, 79, 96
8, 156672, Note_off_c, 6, 78, 0
8, 156672, Note_on_c, 6, 76, 96
8, 157184, Note_off_c, 6, 79, 0
8, 157184, Note_on_c, 6, 78, 96
8, 157184, Note_off_c, 6, 76, 0
8, 157184, Note_on_c, 6, 74, 96
8, 157696, Note_off_c, 6, 78, 0
8, 157696, Note_on_c, 6, 78, 96
8, 157696, Note_off_c, 6, 74, 0
8, 157696, Note_on_c, 6, 74, 96
8, 158208, Note_off_c, 6, 78, 0
8, 158208, Note_on_c, 6, 76, 96
8, 158208, Note_off_c, 6, 74, 0
8, 158208, Note_on_c, 6, 73, 96
8, 158720, Note_off_c, 6, 76, 0
8, 158720, Note_off_c, 6, 73, 0
8, 160256, Note_on_c, 6, 74, 96
8, 160768, Note_off_c, 6, 74, 0
8, 160768, Note_on_c, 6, 74, 96
8, 161280, Note_on_c, 6, 74, 96
8, 161280, Note_off_c, 6, 74, 0
8, 161280, Note_on_c, 6, 69, 96
8, 161792, Note_off_c, 6, 74, 0
8, 161792, Note_on_c, 6, 74, 96
8, 161792, Note_off_c, 6, 69, 0
8, 161792, Note_on_c, 6, 69, 96
8, 162304, Note_off_c, 6, 74, 0
8, 162304, Note_on_c, 6, 69, 96
8, 162304, Note_off_c, 6, 69, 0
8, 162304, Note_on_c, 6, 66, 96
8, 162816, Note_off_c, 6, 69, 0
8, 162816, Note_on_c, 6, 69, 96
8, 162816, Note_off_c, 6, 66, 0
8, 162816, Note_on_c, 6, 66, 96
8, 163328, Note_off_c, 6, 69, 0
8, 163328, Note_on_c, 6, 66, 96
8, 163328, Note_off_c, 6, 66, 0
8, 163328, Note_on_c, 6, 62, 96
8, 163840, Note_off_c, 6, 66, 0
8, 163840, Note_off_c, 6, 62, 0
8, 163840, Note_on_c, 6, 66, 96
8, 163840, Note_on_c, 6, 62, 96
8, 164352, Note_off_c, 6, 66, 0
8, 164352, Note_on_c, 6, 81, 96
8, 164352, Note_off_c, 6, 62, 0
8, 164352, Note_on_c, 6, 78, 96
8, 164864, Note_off_c, 6, 81, 0
8, 164864, Note_on_c, 6, 79, 96
8, 164864, Note_off_c, 6, 78, 0
8, 164864, Note_on_c, 6, 76, 96
8, 165376, Note_off_c, 6, 79, 0
8, 165376, Note_on_c, 6, 78, 96
8, 165376, Note_off_c, 6, 76, 0
8, 165376, Note_on_c, 6, 74, 96
8, 165888, Note_off_c, 6, 78, 0
8, 165888, Note_on_c, 6, 76, 96
8, 165888, Note_off_c, 6, 74, 0
8, 165888, Note_on_c, 6, 74, 96
8, 166400, Note_off_c, 6, 76, 0
8, 166400, Note_on_c, 6, 76, 96
8, 166400, Note_off_c, 6, 74, 0
8, 166400, Note_on_c, 6, 73, 96
8, 166912, Note_off_c, 6, 76, 0
8, 166912, Note_on_c, 6, 74, 96
8, 166912, Note_off_c, 6, 73, 0
8, 166912, Note_on_c, 6, 74, 96
8, 167936, Note_off_c, 6, 74, 0
8, 167936, Note_off_c, 6, 74, 0
8, 167936, Note_on_c, 6, 73, 96
8, 167936, Note_on_c, 6, 73, 96
8, 168960, Note_off_c, 6, 73, 0
8, 168960, Note_on_c, 6, 69, 96
8, 168960, Note_off_c, 6, 73, 0
8, 168960, Note_on_c, 6, 69, 96
8, 169984, Note_off_c, 6, 69, 0
8, 169984, Note_on_c, 6, 71, 96
8, 169984, Note_off_c, 6, 69, 0
8, 169984, Note_on_c, 6, 71, 96
8, 171008, Note_off_c, 6, 71, 0
8, 171008, Note_on_c, 6, 73, 96
8, 171008, Note_off_c, 6, 71, 0
8, 171008, Note_on_c, 6, 73, 96
8, 172032, Note_off_c, 6, 73, 0
8, 172032, Note_off_c, 6, 73, 0
8, 172032, Note_on_c, 6, 74, 96
8, 172032, Note_on_c, 6, 74, 96
8, 174080, Note_off_c, 6, 74, 0
8, 174080, Note_on_c, 6, 74, 96
8, 174080, Note_off_c, 6, 74, 0
8, 174080, Note_on_c, 6, 74, 96
8, 174592, Note_off_c, 6, 74, 0
8, 174592, Note_on_c, 6, 83, 96
8, 174592, Note_off_c, 6, 74, 0
8, 174592, Note_on_c, 6, 83, 96
8, 174848, Note_off_c, 6, 83, 0
8, 174848, Note_on_c, 6, 81, 96
8, 174848, Note_off_c, 6, 83, 0
8, 174848, Note_on_c, 6, 81, 96
8, 175104, Note_off_c, 6, 81, 0
8, 175104, Note_on_c, 6, 83, 96
8, 175104, Note_off_c, 6, 81, 0
8, 175104, Note_on_c, 6, 83, 96
8, 175616, Note_off_c, 6, 83, 0
8, 175616, Note_off_c, 6, 83, 0
8, 176640, Note_on_c, 6, 74, 96
8, 177152, Note_off_c, 6, 74, 0
8, 177152, Note_on_c, 6, 76, 96
8, 177664, Note_off_c, 6, 76, 0
8, 178688, Note_on_c, 6, 81, 96
8, 178944, Note_off_c, 6, 81, 0
8, 178944, Note_on_c, 6, 79, 96
8, 179200, Note_off_c, 6, 79, 0
8, 179200, Note_on_c, 6, 81, 96
8, 179712, Note_off_c, 6, 81, 0
8, 181248, Note_on_c, 6, 69, 96
8, 182272, Note_off_c, 6, 69, 0
8, 182272, Note_on_c, 6, 71, 96
8, 183296, Note_off_c, 6, 71, 0
8, 183296, Note_on_c, 6, 69, 96
8, 184320, Note_off_c, 6, 69, 0
8, 184320, Note_on_c, 6, 67, 96
8, 185344, Note_off_c, 6, 67, 0
8, 185344, Note_on_c, 6, 67, 96
8, 185856, Note_off_c, 6, 67, 0
8, 185856, Note_on_c, 6, 66, 96
8, 186368, Note_off_c, 6, 66, 0
8, 186368, Note_on_c, 6, 66, 96
8, 187392, Note_off_c, 6, 66, 0
8, 187904, Note_on_c, 6, 78, 96
8, 188416, Note_off_c, 6, 78, 0
8, 188416, Note_on_c, 6, 83, 96
8, 188672, Note_off_c, 6, 83, 0
8, 188672, Note_on_c, 6, 85, 96
8, 188928, Note_off_c, 6, 85, 0
8, 188928, Note_on_c, 6, 86, 96
8, 189184, Note_off_c, 6, 86, 0
8, 189184, Note_on_c, 6, 85, 96
8, 189440, Note_off_c, 6, 85, 0
8, 189440, Note_on_c, 6, 83, 96
8, 189952, Note_off_c, 6, 83, 0
8, 189952, Note_on_c, 6, 78, 96
8, 190464, Note_off_c, 6, 78, 0
8, 190464, Note_on_c, 6, 78, 96
8, 190976, Note_off_c, 6, 78, 0
8, 190976, Note_on_c, 6, 74, 96
8, 191488, Note_off_c, 6, 74, 0
8, 191488, Note_on_c, 6, 74, 96
8, 192000, Note_off_c, 6, 74, 0
8, 192000, Note_on_c, 6, 71, 96
8, 192512, Note_off_c, 6, 71, 0
8, 192512, Note_on_c, 6, 71, 96
8, 193024, Note_off_c, 6, 71, 0
8, 193024, Note_on_c, 6, 78, 96
8, 193536, Note_off_c, 6, 78, 0
8, 193536, Note_on_c, 6, 76, 96
8, 194048, Note_off_c, 6, 76, 0
8, 194048, Note_on_c, 6, 74, 96
8, 194560, Note_off_c, 6, 74, 0
8, 194560, Note_on_c, 6, 74, 96
8, 195072, Note_off_c, 6, 74, 0
8, 195072, Note_on_c, 6, 73, 96
8, 195584, Note_off_c, 6, 73, 0
8, 197120, Note_on_c, 6, 73, 96
8, 197120, Note_on_c, 6, 67, 96
8, 197632, Note_off_c, 6, 73, 0
8, 197632, Note_on_c, 6, 74, 96
8, 197632, Note_off_c, 6, 67, 0
8, 197632, Note_on_c, 6, 66, 96
8, 198144, Note_off_c, 6, 74, 0
8, 198144, Note_off_c, 6, 66, 0
8, 199168, Note_on_c, 6, 83, 96
8, 199168, Note_on_c, 6, 76, 96
8, 199424, Note_off_c, 6, 83, 0
8, 199424, Note_on_c, 6, 81, 96
8, 199424, Note_off_c, 6, 76, 0
8, 199424, Note_on_c, 6, 78, 96
8, 199680, Note_off_c, 6, 81, 0
8, 199680, Note_on_c, 6, 83, 96
8, 199680, Note_off_c, 6, 78, 0
8, 199680, Note_on_c, 6, 76, 96
8, 200192, Note_off_c, 6, 83, 0
8, 200192, Note_on_c, 6, 74, 96
8, 200192, Note_off_c, 6, 76, 0
8, 200192, Note_on_c, 6, 74, 96
8, 200704, Note_off_c, 6, 74, 0
8, 200704, Note_off_c, 6, 74, 0
8, 200704, Note_on_c, 6, 73, 96
8, 200704, Note_on_c, 6, 73, 96
8, 201728, Note_off_c, 6, 73, 0
8, 201728, Note_on_c, 6, 76, 96
8, 201728, Note_off_c, 6, 73, 0
8, 201728, Note_on_c, 6, 76, 96
8, 202752, Note_off_c, 6, 76, 0
8, 202752, Note_on_c, 6, 74, 96
8, 202752, Note_off_c, 6, 76, 0
8, 202752, Note_on_c, 6, 74, 96
8, 203776, Note_off_c, 6, 74, 0
8, 203776, Note_on_c, 6, 73, 96
8, 203776, Note_off_c, 6, 74, 0
8, 203776, Note_on_c, 6, 73, 96
8, 204800, Note_off_c, 6, 73, 0
8, 204800, Note_off_c, 6, 73, 0
8, 204800, Note_on_c, 6, 71, 96
8, 204800, Note_on_c, 6, 71, 96
8, 206848, Note_off_c, 6, 71, 0
8, 206848, Note_on_c, 6, 73, 96
8, 206848, Note_off_c, 6, 71, 0
8, 206848, Note_on_c, 6, 73, 96
8, 207872, Note_off_c, 6, 73, 0
8, 207872, Note_off_c, 6, 73, 0
8, 284672, End_track
9, 0, Start_track
9, 0, Title_t, "Instrument 8"
9, 8704, Note_on_c, 7, 81, 96
9, 8704, Note_on_c, 7, 78, 96
9, 8704, Note_on_c, 7, 62, 96
9, 9216, Note_off_c, 7, 81, 0
9, 9216, Note_on_c, 7, 79, 96
9, 9216, Note_off_c, 7, 78, 0
9, 9216, Note_on_c, 7, 76, 96
9, 9216, Note_off_c, 7, 62, 0
9, 9216, Note_on_c, 7, 57, 96
9, 9728, Note_off_c, 7, 79, 0
9, 9728, Note_on_c, 7, 78, 96
9, 9728, Note_off_c, 7, 76, 0
9, 9728, Note_on_c, 7, 74, 96
9, 9728, Note_off_c, 7, 57, 0
9, 9728, Note_on_c, 7, 69, 96
9, 10240, Note_off_c, 7, 78, 0
9, 10240, Note_on_c, 7, 78, 96
9, 10240, Note_off_c, 7, 74, 0
9, 10240, Note_on_c, 7, 74, 96
9, 10240, Note_off_c, 7, 69, 0
9, 10240, Note_on_c, 7, 69, 96
9, 10752, Note_off_c, 7, 78, 0
9, 10752, Note_on_c, 7, 76, 96
9, 10752, Note_off_c, 7, 74, 0
9, 10752, Note_on_c, 7, 73, 96
9, 10752, Note_off_c, 7, 69, 0
9, 10752, Note_on_c, 7, 57, 96
9, 11264, Note_off_c, 7, 76, 0
9, 11264, Note_off_c, 7, 73, 0
9, 11264, Note_off_c, 7, 57, 0
9, 16896, Note_on_c, 7, 81, 96
9, 16896, Note_on_c, 7, 78, 96
9, 16896, Note_on_c, 7, 62, 96
9, 17408, Note_off_c, 7, 81, 0
9, 17408, Note_on_c, 7, 79, 96
9, 17408, Note_off_c, 7, 78, 0
9, 17408, Note_on_c, 7, 76, 96
9, 17408, Note_off_c, 7, 62, 0
9, 17408, Note_on_c, 7, 57, 96
9, 17920, Note_off_c, 7, 79, 0
9, 17920, Note_on_c, 7, 78, 96
9, 17920, Note_off_c, 7, 76, 0
9, 17920, Note_on_c, 7, 74, 96
9, 17920, Note_off_c, 7, 57, 0
9, 17920, Note_on_c, 7, 69, 96
9, 18432, Note_off_c, 7, 78, 0
9, 18432, Note_on_c, 7, 78, 96
9, 18432, Note_off_c, 7, 74, 0
9, 18432, Note_on_c, 7, 74, 96
9, 18432, Note_off_c, 7, 69, 0
9, 18432, Note_on_c, 7, 69, 96
9, 18944, Note_off_c, 7, 78, 0
9, 18944, Note_on_c, 7, 76, 96
9, 18944, Note_off_c, 7, 74, 0
9, 18944, Note_on_c, 7, 73, 96
9, 18944, Note_off_c, 7, 69, 0
9, 18944, Note_on_c, 7, 57, 96
9, 19456, Note_off_c, 7, 76, 0
9, 19456, Note_off_c, 7, 73, 0
9, 19456, Note_off_c, 7, 57, 0
9, 22016, Note_on_c, 7, 76, 96
9, 22016, Note_on_c, 7, 76, 96
9, 22016, Note_on_c, 7, 69, 96
9, 22528, Note_off_c, 7, 76, 0
9, 22528, Note_on_c, 7, 78, 96
9, 22528, Note_off_c, 7, 76, 0
9, 22528, Note_on_c, 7, 74, 96
9, 22528, Note_off_c, 7, 69, 0
9, 22528, Note_on_c, 7, 69, 96
9, 23040, Note_off_c, 7, 78, 0
9, 23040, Note_on_c, 7, 83, 96
9, 23040, Note_off_c, 7, 74, 0
9, 23040, Note_on_c, 7, 78, 96
9, 23040, Note_off_c, 7, 69, 0
9, 23040, Note_on_c, 7, 74, 96
9, 23296, Note_off_c, 7, 83, 0
9, 23296, Note_on_c, 7, 81, 96
9, 23296, Note_off_c, 7, 78, 0
9, 23296, Note_on_c, 7, 76, 96
9, 23296, Note_off_c, 7, 74, 0
9, 23296, Note_on_c, 7, 69, 96
9, 23552, Note_off_c, 7, 81, 0
9, 23552, Note_on_c, 7, 83, 96
9, 23552, Note_off_c, 7, 76, 0
9, 23552, Note_on_c, 7, 78, 96
9, 23552, Note_off_c, 7, 69, 0
9, 23552, Note_on_c, 7, 66, 96
9, 24064, Note_off_c, 7, 83, 0
9, 24064, Note_off_c, 7, 78, 0
9, 24064, Note_off_c, 7, 66, 0
9, 26112, Note_on_c, 7, 74, 96
9, 26112, Note_on_c, 7, 69, 96
9, 26112, Note_on_c, 7, 71, 96
9, 26624, Note_off_c, 7, 74, 0
9, 26624, Note_on_c, 7, 76, 96
9, 26624, Note_off_c, 7, 69, 0
9, 26624, Note_on_c, 7, 69, 96
9, 26624, Note_off_c, 7, 71, 0
9, 26624, Note_on_c, 7, 64, 96
9, 27136, Note_off_c, 7, 76, 0
9, 27136, Note_on_c, 7, 81, 96
9, 27136, Note_off_c, 7, 69, 0
9, 27136, Note_on_c, 7, 76, 96
9, 27136, Note_off_c, 7, 64, 0
9, 27136, Note_on_c, 7, 57, 96
9, 27392, Note_off_c, 7, 81, 0
9, 27392, Note_on_c, 7, 79, 96
9, 27392, Note_off_c, 7, 76, 0
9, 27392, Note_on_c, 7, 74, 96
9, 27392, Note_off_c, 7, 57, 0
9, 27392, Note_on_c, 7, 59, 96
9, 27648, Note_off_c, 7, 79, 0
9, 27648, Note_on_c, 7, 81, 96
9, 27648, Note_off_c, 7, 74, 0
9, 27648, Note_on_c, 7, 76, 96
9, 27648, Note_off_c, 7, 59, 0
9, 27648, Note_on_c, 7, 57, 96
9, 28160, Note_off_c, 7, 81, 0
9, 28160, Note_off_c, 7, 76, 0
9, 28160, Note_off_c, 7, 57, 0
9, 28672, Note_on_c, 7, 74, 96
9, 28672, Note_on_c, 7, 71, 96
9, 28672, Note_on_c, 7, 66, 96
9, 30720, Note_off_c, 7, 66, 0
9, 30720, Note_on_c, 7, 59, 96
9, 31744, Note_off_c, 7, 59, 0
9, 31744, Note_on_c, 7, 62, 96
9, 32768, Note_off_c, 7, 62, 0
9, 32768, Note_on_c, 7, 64, 96
9, 33280, Note_off_c, 7, 74, 0
9, 33280, Note_on_c, 7, 64, 96
9, 33280, Note_off_c, 7, 71, 0
9, 33280, Note_on_c, 7, 83, 96
9, 33280, Note_off_c, 7, 64, 0
9, 33280, Note_on_c, 7, 59, 96
9, 33536, Note_off_c, 7, 64, 0
9, 33536, Note_on_c, 7, 66, 96
9, 33792, Note_off_c, 7, 66, 0
9, 33792, Note_on_c, 7, 67, 96
9, 33792, Note_off_c, 7, 83, 0
9, 33792, Note_on_c, 7, 79, 96
9, 33792, Note_off_c, 7, 59, 0
9, 33792, Note_on_c, 7, 64, 96
9, 34048, Note_off_c, 7, 67, 0
9, 34048, Note_on_c, 7, 64, 96
9, 34304, Note_off_c, 7, 64, 0
9, 34304, Note_on_c, 7, 66, 96
9, 34304, Note_off_c, 7, 79, 0
9, 34304, Note_on_c, 7, 74, 96
9, 34304, Note_off_c, 7, 64, 0
9, 34304, Note_on_c, 7, 69, 96
9, 34560, Note_off_c, 7, 66, 0
9, 34560, Note_on_c, 7, 67, 96
9, 34816, Note_off_c, 7, 67, 0
9, 34816, Note_on_c, 7, 69, 96
9, 34816, Note_off_c, 7, 74, 0
9, 34816, Note_off_c, 7, 69, 0
9, 35072, Note_off_c, 7, 69, 0
9, 35072, Note_on_c, 7, 64, 96
9, 35328, Note_off_c, 7, 64, 0
9, 35328, Note_on_c, 7, 69, 96
9, 35328, Note_on_c, 7, 76, 96
9, 35328, Note_on_c, 7, 69, 96
9, 35584, Note_off_c, 7, 69, 0
9, 35584, Note_on_c, 7, 73, 96
9, 35840, Note_off_c, 7, 73, 0
9, 35840, Note_on_c, 7, 76, 96
9, 35840, Note_off_c, 7, 76, 0
9, 35840, Note_on_c, 7, 73, 96
9, 35840, Note_off_c, 7, 69, 0
9, 35840, Note_on_c, 7, 64, 96
9, 36096, Note_off_c, 7, 76, 0
9, 36096, Note_on_c, 7, 73, 96
9, 36352, Note_off_c, 7, 73, 0
9, 36352, Note_on_c, 7, 69, 96
9, 36352, Note_off_c, 7, 73, 0
9, 36352, Note_on_c, 7, 76, 96
9, 36352, Note_off_c, 7, 64, 0
9, 36352, Note_on_c, 7, 64, 96
9, 36608, Note_off_c, 7, 69, 0
9, 36608, Note_on_c, 7, 81, 96
9, 36864, Note_off_c, 7, 81, 0
9, 36864, Note_off_c, 7, 76, 0
9, 36864, Note_off_c, 7, 64, 0
9, 36864, Note_on_c, 7, 79, 96
9, 36864, Note_on_c, 7, 69, 96
9, 36864, Note_on_c, 7, 66, 96
9, 37120, Note_off_c, 7, 79, 0
9, 37120, Note_on_c, 7, 78, 96
9, 37376, Note_off_c, 7, 78, 0
9, 37376, Note_on_c, 7, 76, 96
9, 37376, Note_off_c, 7, 69, 0
9, 37376, Note_on_c, 7, 71, 96
9, 37376, Note_off_c, 7, 66, 0
9, 37376, Note_on_c, 7, 66, 96
9, 37632, Note_off_c, 7, 76, 0
9, 37632, Note_on_c, 7, 74, 96
9, 37888, Note_off_c, 7, 74, 0
9, 37888, Note_on_c, 7, 78, 96
9, 37888, Note_off_c, 7, 71, 0
9, 37888, Note_on_c, 7, 71, 96
9, 37888, Note_off_c, 7, 66, 0
9, 37888, Note_on_c, 7, 59, 96
9, 38400, Note_off_c, 7, 78, 0
9, 38400, Note_on_c, 7, 76, 96
9, 38400, Note_off_c, 7, 71, 0
9, 38400, Note_on_c, 7, 73, 96
9, 38400, Note_off_c, 7, 59, 0
9, 38400, Note_on_c, 7, 64, 96
9, 38912, Note_off_c, 7, 76, 0
9, 38912, Note_on_c, 7, 74, 96
9, 38912, Note_off_c, 7, 73, 0
9, 38912, Note_on_c, 7, 66, 96
9, 38912, Note_off_c, 7, 64, 0
9, 38912, Note_on_c, 7, 71, 96
9, 39424, Note_off_c, 7, 74, 0
9, 39424, Note_on_c, 7, 86, 96
9, 39424, Note_off_c, 7, 66, 0
9, 39424, Note_off_c, 7, 71, 0
9, 39680, Note_off_c, 7, 86, 0
9, 39680, Note_on_c, 7, 85, 96
9, 39936, Note_off_c, 7, 85, 0
9, 39936, Note_on_c, 7, 86, 96
9, 40448, Note_off_c, 7, 86, 0
9, 40448, Note_on_c, 7, 74, 96
9, 40448, Note_on_c, 7, 79, 96
9, 40448, Note_on_c, 7, 71, 96
9, 40960, Note_off_c, 7, 74, 0
9, 40960, Note_off_c, 7, 79, 0
9, 40960, Note_off_c, 7, 71, 0
9, 40960, Note_on_c, 7, 74, 96
9, 40960, Note_on_c, 7, 81, 96
9, 40960, Note_on_c, 7, 69, 96
9, 41472, Note_off_c, 7, 74, 0
9, 41472, Note_on_c, 7, 81, 96
9, 41472, Note_off_c, 7, 81, 0
9, 41472, Note_off_c, 7, 69, 0
9, 41728, Note_off_c, 7, 81, 0
9, 41728, Note_on_c, 7, 79, 96
9, 41984, Note_off_c, 7, 79, 0
9, 41984, Note_on_c, 7, 81, 96
9, 42496, Note_off_c, 7, 81, 0
9, 42496, Note_on_c, 7, 74, 96
9, 42496, Note_on_c, 7, 72, 96
9, 42496, Note_on_c, 7, 69, 96
9, 43008, Note_off_c, 7, 74, 0
9, 43008, Note_on_c, 7, 83, 96
9, 43008, Note_off_c, 7, 72, 0
9, 43008, Note_on_c, 7, 71, 96
9, 43008, Note_off_c, 7, 69, 0
9, 43008, Note_on_c, 7, 67, 96
9, 43520, Note_off_c, 7, 83, 0
9, 43520, Note_off_c, 7, 71, 0
9, 43520, Note_off_c, 7, 67, 0
9, 44032, Note_on_c, 7, 81, 96
9, 44032, Note_on_c, 7, 74, 96
9, 44032, Note_on_c, 7, 69, 96
9, 44544, Note_off_c, 7, 81, 0
9, 44544, Note_off_c, 7, 74, 0
9, 44544, Note_off_c, 7, 69, 0
9, 45056, Note_on_c, 7, 80, 96
9, 45056, Note_on_c, 7, 76, 96
9, 45056, Note_on_c, 7, 71, 96
9, 45568, Note_off_c, 7, 80, 0
9, 45568, Note_on_c, 7, 74, 96
9, 45568, Note_off_c, 7, 76, 0
9, 45568, Note_off_c, 7, 71, 0
9, 45824, Note_off_c, 7, 74, 0
9, 45824, Note_on_c, 7, 73, 96
9, 46080, Note_off_c, 7, 73, 0
9, 46080, Note_on_c, 7, 71, 96
9, 46080, Note_on_c, 7, 76, 96
9, 46080, Note_on_c, 7, 71, 96
9, 46592, Note_off_c, 7, 71, 0
9, 46592, Note_on_c, 7, 83, 96
9, 46592, Note_off_c, 7, 76, 0
9, 46592, Note_off_c, 7, 71, 0
9, 47104, Note_off_c, 7, 83, 0
9, 47104, Note_on_c, 7, 81, 96
9, 47104, Note_on_c, 7, 76, 96
9, 47104, Note_on_c, 7, 64, 96
9, 47616, Note_off_c, 7, 81, 0
9, 47616, Note_on_c, 7, 69, 96
9, 47616, Note_off_c, 7, 76, 0
9, 47616, Note_off_c, 7, 64, 0
9, 47872, Note_off_c, 7, 69, 0
9, 47872, Note_on_c, 7, 71, 96
9, 48128, Note_off_c, 7, 71, 0
9, 48128, Note_on_c, 7, 73, 96
9, 48128, Note_on_c, 7, 76, 96
9, 48128, Note_on_c, 7, 69, 96
9, 48640, Note_off_c, 7, 73, 0
9, 48640, Note_on_c, 7, 79, 96
9, 48640, Note_off_c, 7, 76, 0
9, 48640, Note_off_c, 7, 69, 0
9, 49152, Note_off_c, 7, 79, 0
9, 49152, Note_on_c, 7, 78, 96
9, 49152, Note_on_c, 7, 69, 96
9, 49152, Note_on_c, 7, 69, 96
9, 49664, Note_off_c, 7, 78, 0
9, 49664, Note_on_c, 7, 86, 96
9, 49664, Note_off_c, 7, 69, 0
9, 49664, Note_on_c, 7, 78, 96
9, 49664, Note_off_c, 7, 69, 0
9, 49664, Note_on_c, 7, 71, 96
9, 50176, Note_off_c, 7, 86, 0
9, 50176, Note_on_c, 7, 76, 96
9, 50176, Note_off_c, 7, 78, 0
9, 50176, Note_on_c, 7, 79, 96
9, 50176, Note_off_c, 7, 71, 0
9, 50176, Note_on_c, 7, 64, 96
9, 50688, Note_off_c, 7, 76, 0
9, 50688, Note_on_c, 7, 85, 96
9, 50688, Note_off_c, 7, 79, 0
9, 50688, Note_on_c, 7, 76, 96
9, 50688, Note_off_c, 7, 64, 0
9, 50688, Note_on_c, 7, 69, 96
9, 51200, Note_off_c, 7, 85, 0
9, 51200, Note_on_c, 7, 74, 96
9, 51200, Note_off_c, 7, 76, 0
9, 51200, Note_on_c, 7, 78, 96
9, 51200, Note_off_c, 7, 69, 0
9, 51200, Note_on_c, 7, 69, 96
9, 52224, Note_off_c, 7, 74, 0
9, 52224, Note_off_c, 7, 78, 0
9, 52224, Note_off_c, 7, 69, 0
9, 52480, Note_on_c, 7, 66, 96
9, 52480, Note_on_c, 7, 66, 96
9, 52480, Note_on_c, 7, 66, 96
9, 52736, Note_off_c, 7, 66, 0
9, 52736, Note_on_c, 7, 67, 96
9, 52736, Note_off_c, 7, 66, 0
9, 52736, Note_on_c, 7, 67, 96
9, 52736, Note_off_c, 7, 66, 0
9, 52736, Note_on_c, 7, 67, 96
9, 52992, Note_off_c, 7, 67, 0
9, 52992, Note_on_c, 7, 69, 96
9, 52992, Note_off_c, 7, 67, 0
9, 52992, Note_on_c, 7, 69, 96
9, 52992, Note_off_c, 7, 67, 0
9, 52992, Note_on_c, 7, 69, 96
9, 53248, Note_off_c, 7, 69, 0
9, 53248, Note_off_c, 7, 69, 0
9, 53248, Note_off_c, 7, 69, 0
9, 53248, Note_on_c, 7, 62, 96
9, 53248, Note_on_c, 7, 62, 96
9, 53248, Note_on_c, 7, 62, 96
9, 53504, Note_off_c, 7, 62, 0
9, 53504, Note_on_c, 7, 71, 96
9, 53504, Note_off_c, 7, 62, 0
9, 53504, Note_on_c, 7, 71, 96
9, 53504, Note_off_c, 7, 62, 0
9, 53504, Note_on_c, 7, 71, 96
9, 53760, Note_off_c, 7, 71, 0
9, 53760, Note_on_c, 7, 69, 96
9, 53760, Note_off_c, 7, 71, 0
9, 53760, Note_on_c, 7, 69, 96
9, 53760, Note_off_c, 7, 71, 0
9, 53760, Note_on_c, 7, 69, 96
9, 54016, Note_off_c, 7, 69, 0
9, 54016, Note_on_c, 7, 67, 96
9, 54016, Note_off_c, 7, 69, 0
9, 54016, Note_on_c, 7, 67, 96
9, 54016, Note_off_c, 7, 69, 0
9, 54016, Note_on_c, 7, 67, 96
9, 54272, Note_off_c, 7, 67, 0
9, 54272, Note_on_c, 7, 62, 96
9, 54272, Note_off_c, 7, 67, 0
9, 54272, Note_on_c, 7, 62, 96
9, 54272, Note_off_c, 7, 67, 0
9, 54272, Note_on_c, 7, 62, 96
9, 54528, Note_off_c, 7, 62, 0
9, 54528, Note_on_c, 7, 69, 96
9, 54528, Note_off_c, 7, 62, 0
9, 54528, Note_on_c, 7, 69, 96
9, 54528, Note_off_c, 7, 62, 0
9, 54528, Note_on_c, 7, 69, 96
9, 54784, Note_off_c, 7, 69, 0
9, 54784, Note_on_c, 7, 67, 96
9, 54784, Note_off_c, 7, 69, 0
9, 54784, Note_on_c, 7, 67, 96
9, 54784, Note_off_c, 7, 69, 0
9, 54784, Note_on_c, 7, 67, 96
9, 55040, Note_off_c, 7, 67, 0
9, 55040, Note_on_c, 7, 66, 96
9, 55040, Note_off_c, 7, 67, 0
9, 55040, Note_on_c, 7, 66, 96
9, 55040, Note_off_c, 7, 67, 0
9, 55040, Note_on_c, 7, 66, 96
9, 55296, Note_off_c, 7, 66, 0
9, 55296, Note_on_c, 7, 62, 96
9, 55296, Note_off_c, 7, 66, 0
9, 55296, Note_on_c, 7, 62, 96
9, 55296, Note_off_c, 7, 66, 0
9, 55296, Note_on_c, 7, 62, 96
9, 55552, Note_off_c, 7, 62, 0
9, 55552, Note_on_c, 7, 67, 96
9, 55552, Note_off_c, 7, 62, 0
9, 55552, Note_on_c, 7, 67, 96
9, 55552, Note_off_c, 7, 62, 0
9, 55552, Note_on_c, 7, 67, 96
9, 55808, Note_off_c, 7, 67, 0
9, 55808, Note_on_c, 7, 66, 96
9, 55808, Note_off_c, 7, 67, 0
9, 55808, Note_on_c, 7, 66, 96
9, 55808, Note_off_c, 7, 67, 0
9, 55808, Note_on_c, 7, 66, 96
9, 56064, Note_off_c, 7, 66, 0
9, 56064, Note_on_c, 7, 64, 96
9, 56064, Note_off_c, 7, 66, 0
9, 56064, Note_on_c, 7, 64, 96
9, 56064, Note_off_c, 7, 66, 0
9, 56064, Note_on_c, 7, 64, 96
9, 56320, Note_off_c, 7, 64, 0
9, 56320, Note_on_c, 7, 62, 96
9, 56320, Note_off_c, 7, 64, 0
9, 56320, Note_on_c, 7, 62, 96
9, 56320, Note_off_c, 7, 64, 0
9, 56320, Note_on_c, 7, 62, 96
9, 56576, Note_off_c, 7, 62, 0
9, 56576, Note_on_c, 7, 66, 96
9, 56576, Note_off_c, 7, 62, 0
9, 56576, Note_on_c, 7, 66, 96
9, 56576, Note_off_c, 7, 62, 0
9, 56576, Note_on_c, 7, 66, 96
9, 56832, Note_off_c, 7, 66, 0
9, 56832, Note_on_c, 7, 64, 96
9, 56832, Note_off_c, 7, 66, 0
9, 56832, Note_on_c, 7, 64, 96
9, 56832, Note_off_c, 7, 66, 0
9, 56832, Note_on_c, 7, 64, 96
9, 57088, Note_off_c, 7, 64, 0
9, 57088, Note_on_c, 7, 62, 96
9, 57088, Note_off_c, 7, 64, 0
9, 57088, Note_on_c, 7, 62, 96
9, 57088, Note_off_c, 7, 64, 0
9, 57088, Note_on_c, 7, 62, 96
9, 57344, Note_off_c, 7, 62, 0
9, 57344, Note_off_c, 7, 62, 0
9, 57344, Note_off_c, 7, 62, 0
9, 57344, Note_on_c, 7, 64, 96
9, 57344, Note_on_c, 7, 64, 96
9, 57344, Note_on_c, 7, 64, 96
9, 57600, Note_off_c, 7, 64, 0
9, 57600, Note_on_c, 7, 74, 96
9, 57600, Note_off_c, 7, 64, 0
9, 57600, Note_on_c, 7, 74, 96
9, 57600, Note_off_c, 7, 64, 0
9, 57600, Note_on_c, 7, 74, 96
9, 57856, Note_off_c, 7, 74, 0
9, 57856, Note_on_c, 7, 73, 96
9, 57856, Note_off_c, 7, 74, 0
9, 57856, Note_on_c, 7, 73, 96
9, 57856, Note_off_c, 7, 74, 0
9, 57856, Note_on_c, 7, 73, 96
9, 58112, Note_off_c, 7, 73, 0
9, 58112, Note_on_c, 7, 71, 96
9, 58112, Note_off_c, 7, 73, 0
9, 58112, Note_on_c, 7, 71, 96
9, 58112, Note_off_c, 7, 73, 0
9, 58112, Note_on_c, 7, 71, 96
9, 58368, Note_off_c, 7, 71, 0
9, 58368, Note_on_c, 7, 69, 96
9, 58368, Note_off_c, 7, 71, 0
9, 58368, Note_on_c, 7, 69, 96
9, 58368, Note_off_c, 7, 71, 0
9, 58368, Note_on_c, 7, 69, 96
9, 58624, Note_off_c, 7, 69, 0
9, 58624, Note_on_c, 7, 67, 96
9, 58624, Note_off_c, 7, 69, 0
9, 58624, Note_on_c, 7, 67, 96
9, 58624, Note_off_c, 7, 69, 0
9, 58624, Note_on_c, 7, 67, 96
9, 58880, Note_off_c, 7, 67, 0
9, 58880, Note_on_c, 7, 66, 96
9, 58880, Note_off_c, 7, 67, 0
9, 58880, Note_on_c, 7, 66, 96
9, 58880, Note_off_c, 7, 67, 0
9, 58880, Note_on_c, 7, 66, 96
9, 59136, Note_off_c, 7, 66, 0
9, 59136, Note_on_c, 7, 64, 96
9, 59136, Note_off_c, 7, 66, 0
9, 59136, Note_on_c, 7, 64, 96
9, 59136, Note_off_c, 7, 66, 0
9, 59136, Note_on_c, 7, 64, 96
9, 59392, Note_off_c, 7, 64, 0
9, 59392, Note_on_c, 7, 62, 96
9, 59392, Note_off_c, 7, 64, 0
9, 59392, Note_on_c, 7, 62, 96
9, 59392, Note_off_c, 7, 64, 0
9, 59392, Note_on_c, 7, 62, 96
9, 60416, Note_off_c, 7, 62, 0
9, 60416, Note_off_c, 7, 62, 0
9, 60416, Note_off_c, 7, 62, 0
9, 60928, Note_on_c, 7, 66, 96
9, 60928, Note_on_c, 7, 66, 96
9, 60928, Note_on_c, 7, 66, 96
9, 61440, Note_off_c, 7, 66, 0
9, 61440, Note_off_c, 7, 66, 0
9, 61440, Note_off_c, 7, 66, 0
9, 61440, Note_on_c, 7, 71, 96
9, 61440, Note_on_c, 7, 71, 96
9, 61440, Note_on_c, 7, 71, 96
9, 61696, Note_off_c, 7, 71, 0
9, 61696, Note_on_c, 7, 73, 96
9, 61696, Note_off_c, 7, 71, 0
9, 61696, Note_on_c, 7, 73, 96
9, 61696, Note_off_c, 7, 71, 0
9, 61696, Note_on_c, 7, 73, 96
9, 61952, Note_off_c, 7, 73, 0
9, 61952, Note_on_c, 7, 74, 96
9, 61952, Note_off_c, 7, 73, 0
9, 61952, Note_on_c, 7, 74, 96
9, 61952, Note_off_c, 7, 73, 0
9, 61952, Note_on_c, 7, 74, 96
9, 62208, Note_off_c, 7, 74, 0
9, 62208, Note_on_c, 7, 73, 96
9, 62208, Note_off_c, 7, 74, 0
9, 62208, Note_on_c, 7, 73, 96
9, 62208, Note_off_c, 7, 74, 0
9, 62208, Note_on_c, 7, 73, 96
9, 62464, Note_off_c, 7, 73, 0
9, 62464, Note_on_c, 7, 71, 96
9, 62464, Note_off_c, 7, 73, 0
9, 62464, Note_on_c, 7, 71, 96
9, 62464, Note_off_c, 7, 73, 0
9, 62464, Note_on_c, 7, 71, 96
9, 62976, Note_off_c, 7, 71, 0
9, 62976, Note_on_c, 7, 66, 96
9, 62976, Note_off_c, 7, 71, 0
9, 62976, Note_on_c, 7, 66, 96
9, 62976, Note_off_c, 7, 71, 0
9, 62976, Note_on_c, 7, 66, 96
9, 63488, Note_off_c, 7, 66, 0
9, 63488, Note_on_c, 7, 66, 96
9, 63488, Note_off_c, 7, 66, 0
9, 63488, Note_on_c, 7, 66, 96
9, 63488, Note_off_c, 7, 66, 0
9, 63488, Note_on_c, 7, 66, 96
9, 64000, Note_off_c, 7, 66, 0
9, 64000, Note_on_c, 7, 62, 96
9, 64000, Note_off_c, 7, 66, 0
9, 64000, Note_on_c, 7, 62, 96
9, 64000, Note_off_c, 7, 66, 0
9, 64000, Note_on_c, 7, 62, 96
9, 64512, Note_off_c, 7, 62, 0
9, 64512, Note_on_c, 7, 62, 96
9, 64512, Note_off_c, 7, 62, 0
9, 64512, Note_on_c, 7, 62, 96
9, 64512, Note_off_c, 7, 62, 0
9, 64512, Note_on_c, 7, 62, 96
9, 65024, Note_off_c, 7, 62, 0
9, 65024, Note_on_c, 7, 59, 96
9, 65024, Note_off_c, 7, 62, 0
9, 65024, Note_on_c, 7, 59, 96
9, 65024, Note_off_c, 7, 62, 0
9, 65024, Note_on_c, 7, 59, 96
9, 65536, Note_off_c, 7, 59, 0
9, 65536, Note_off_c, 7, 59, 0
9, 65536, Note_off_c, 7, 59, 0
9, 65536, Note_on_c, 7, 59, 96
9, 65536, Note_on_c, 7, 59, 96
9, 65536, Note_on_c, 7, 59, 96
9, 66048, Note_off_c, 7, 59, 0
9, 66048, Note_on_c, 7, 78, 96
9, 66048, Note_off_c, 7, 59, 0
9, 66048, Note_on_c, 7, 74, 96
9, 66048, Note_off_c, 7, 59, 0
9, 66048, Note_on_c, 7, 59, 96
9, 66560, Note_off_c, 7, 78, 0
9, 66560, Note_on_c, 7, 76, 96
9, 66560, Note_off_c, 7, 74, 0
9, 66560, Note_on_c, 7, 73, 96
9, 66560, Note_off_c, 7, 59, 0
9, 66560, Note_on_c, 7, 54, 96
9, 67072, Note_off_c, 7, 76, 0
9, 67072, Note_on_c, 7, 74, 96
9, 67072, Note_off_c, 7, 73, 0
9, 67072, Note_on_c, 7, 71, 96
9, 67072, Note_off_c, 7, 54, 0
9, 67072, Note_on_c, 7, 66, 96
9, 67584, Note_off_c, 7, 74, 0
9, 67584, Note_on_c, 7, 74, 96
9, 67584, Note_off_c, 7, 71, 0
9, 67584, Note_on_c, 7, 71, 96
9, 67584, Note_off_c, 7, 66, 0
9, 67584, Note_on_c, 7, 66, 96
9, 68096, Note_off_c, 7, 74, 0
9, 68096, Note_on_c, 7, 73, 96
9, 68096, Note_off_c, 7, 71, 0
9, 68096, Note_on_c, 7, 70, 96
9, 68096, Note_off_c, 7, 66, 0
9, 68096, Note_on_c, 7, 54, 96
9, 68608, Note_off_c, 7, 73, 0
9, 68608, Note_off_c, 7, 70, 0
9, 68608, Note_off_c, 7, 54, 0
9, 68864, Note_on_c, 7, 73, 96
9, 68864, Note_on_c, 7, 73, 96
9, 68864, Note_on_c, 7, 73, 96
9, 69120, Note_off_c, 7, 73, 0
9, 69120, Note_on_c, 7, 71, 96
9, 69120, Note_off_c, 7, 73, 0
9, 69120, Note_on_c, 7, 71, 96
9, 69120, Note_off_c, 7, 73, 0
9, 69120, Note_on_c, 7, 71, 96
9, 69376, Note_off_c, 7, 71, 0
9, 69376, Note_on_c, 7, 70, 96
9, 69376, Note_off_c, 7, 71, 0
9, 69376, Note_on_c, 7, 70, 96
9, 69376, Note_off_c, 7, 71, 0
9, 69376, Note_on_c, 7, 70, 96
9, 69632, Note_off_c, 7, 70, 0
9, 69632, Note_off_c, 7, 70, 0
9, 69632, Note_off_c, 7, 70, 0
9, 69632, Note_on_c, 7, 71, 96
9, 69632, Note_on_c, 7, 71, 96
9, 69632, Note_on_c, 7, 71, 96
9, 69888, Note_off_c, 7, 71, 0
9, 69888, Note_on_c, 7, 71, 96
9, 69888, Note_off_c, 7, 71, 0
9, 69888, Note_on_c, 7, 71, 96
9, 69888, Note_off_c, 7, 71, 0
9, 69888, Note_on_c, 7, 71, 96
9, 70144, Note_off_c, 7, 71, 0
9, 70144, Note_on_c, 7, 73, 96
9, 70144, Note_off_c, 7, 71, 0
9, 70144, Note_on_c, 7, 73, 96
9, 70144, Note_off_c, 7, 71, 0
9, 70144, Note_on_c, 7, 73, 96
9, 70400, Note_off_c, 7, 73, 0
9, 70400, Note_on_c, 7, 74, 96
9, 70400, Note_off_c, 7, 73, 0
9, 70400, Note_on_c, 7, 74, 96
9, 70400, Note_off_c, 7, 73, 0
9, 70400, Note_on_c, 7, 74, 96
9, 70656, Note_off_c, 7, 74, 0
9, 70656, Note_on_c, 7, 71, 96
9, 70656, Note_off_c, 7, 74, 0
9, 70656, Note_on_c, 7, 71, 96
9, 70656, Note_off_c, 7, 74, 0
9, 70656, Note_on_c, 7, 71, 96
9, 70912, Note_off_c, 7, 71, 0
9, 70912, Note_on_c, 7, 71, 96
9, 70912, Note_off_c, 7, 71, 0
9, 70912, Note_on_c, 7, 71, 96
9, 70912, Note_off_c, 7, 71, 0
9, 70912, Note_on_c, 7, 71, 96
9, 71168, Note_off_c, 7, 71, 0
9, 71168, Note_on_c, 7, 73, 96
9, 71168, Note_off_c, 7, 71, 0
9, 71168, Note_on_c, 7, 73, 96
9, 71168, Note_off_c, 7, 71, 0
9, 71168, Note_on_c, 7, 73, 96
9, 71424, Note_off_c, 7, 73, 0
9, 71424, Note_on_c, 7, 74, 96
9, 71424, Note_off_c, 7, 73, 0
9, 71424, Note_on_c, 7, 74, 96
9, 71424, Note_off_c, 7, 73, 0
9, 71424, Note_on_c, 7, 74, 96
9, 71680, Note_off_c, 7, 74, 0
9, 71680, Note_on_c, 7, 73, 96
9, 71680, Note_off_c, 7, 74, 0
9, 71680, Note_on_c, 7, 73, 96
9, 71680, Note_off_c, 7, 74, 0
9, 71680, Note_on_c, 7, 73, 96
9, 72192, Note_off_c, 7, 73, 0
9, 72192, Note_on_c, 7, 79, 96
9, 72192, Note_off_c, 7, 73, 0
9, 72192, Note_on_c, 7, 79, 96
9, 72192, Note_off_c, 7, 73, 0
9, 72192, Note_on_c, 7, 71, 96
9, 72704, Note_off_c, 7, 79, 0
9, 72704, Note_off_c, 7, 79, 0
9, 72704, Note_off_c, 7, 71, 0
9, 72704, Note_on_c, 7, 70, 96
9, 72960, Note_on_c, 7, 79, 96
9, 72960, Note_on_c, 7, 79, 96
9, 73216, Note_off_c, 7, 79, 0
9, 73216, Note_on_c, 7, 78, 96
9, 73216, Note_off_c, 7, 79, 0
9, 73216, Note_on_c, 7, 78, 96
9, 73472, Note_off_c, 7, 78, 0
9, 73472, Note_on_c, 7, 76, 96
9, 73472, Note_off_c, 7, 78, 0
9, 73472, Note_on_c, 7, 76, 96
9, 73728, Note_off_c, 7, 76, 0
9, 73728, Note_off_c, 7, 76, 0
9, 73728, Note_off_c, 7, 70, 0
9, 73728, Note_on_c, 7, 74, 96
9, 73728, Note_on_c, 7, 74, 96
9, 73728, Note_on_c, 7, 71, 96
9, 73984, Note_off_c, 7, 74, 0
9, 73984, Note_on_c, 7, 74, 96
9, 73984, Note_off_c, 7, 74, 0
9, 73984, Note_on_c, 7, 74, 96
9, 74240, Note_off_c, 7, 74, 0
9, 74240, Note_on_c, 7, 76, 96
9, 74240, Note_off_c, 7, 74, 0
9, 74240, Note_on_c, 7, 76, 96
9, 74496, Note_off_c, 7, 76, 0
9, 74496, Note_on_c, 7, 78, 96
9, 74496, Note_off_c, 7, 76, 0
9, 74496, Note_on_c, 7, 78, 96
9, 74752, Note_off_c, 7, 78, 0
9, 74752, Note_on_c, 7, 74, 96
9, 74752, Note_off_c, 7, 78, 0
9, 74752, Note_on_c, 7, 74, 96
9, 74752, Note_off_c, 7, 71, 0
9, 75008, Note_off_c, 7, 74, 0
9, 75008, Note_on_c, 7, 74, 96
9, 75008, Note_off_c, 7, 74, 0
9, 75008, Note_on_c, 7, 74, 96
9, 75264, Note_off_c, 7, 74, 0
9, 75264, Note_on_c, 7, 76, 96
9, 75264, Note_off_c, 7, 74, 0
9, 75264, Note_on_c, 7, 76, 96
9, 75264, Note_on_c, 7, 62, 96
9, 75520, Note_off_c, 7, 76, 0
9, 75520, Note_on_c, 7, 78, 96
9, 75520, Note_off_c, 7, 76, 0
9, 75520, Note_on_c, 7, 78, 96
9, 75776, Note_off_c, 7, 78, 0
9, 75776, Note_on_c, 7, 76, 96
9, 75776, Note_off_c, 7, 78, 0
9, 75776, Note_on_c, 7, 76, 96
9, 75776, Note_off_c, 7, 62, 0
9, 75776, Note_on_c, 7, 62, 96
9, 76288, Note_off_c, 7, 76, 0
9, 76288, Note_on_c, 7, 83, 96
9, 76288, Note_off_c, 7, 76, 0
9, 76288, Note_on_c, 7, 83, 96
9, 76288, Note_off_c, 7, 62, 0
9, 76288, Note_on_c, 7, 61, 96
9, 76544, Note_off_c, 7, 61, 0
9, 76544, Note_on_c, 7, 59, 96
9, 76800, Note_off_c, 7, 83, 0
9, 76800, Note_off_c, 7, 83, 0
9, 76800, Note_off_c, 7, 59, 0
9, 76800, Note_on_c, 7, 61, 96
9, 77056, Note_on_c, 7, 83, 96
9, 77056, Note_on_c, 7, 83, 96
9, 77312, Note_off_c, 7, 83, 0
9, 77312, Note_on_c, 7, 81, 96
9, 77312, Note_off_c, 7, 83, 0
9, 77312, Note_on_c, 7, 81, 96
9, 77568, Note_off_c, 7, 81, 0
9, 77568, Note_on_c, 7, 79, 96
9, 77568, Note_off_c, 7, 81, 0
9, 77568, Note_on_c, 7, 79, 96
9, 77568, Note_off_c, 7, 61, 0
9, 77568, Note_on_c, 7, 62, 96
9, 77824, Note_off_c, 7, 79, 0
9, 77824, Note_off_c, 7, 79, 0
9, 77824, Note_off_c, 7, 62, 0
9, 77824, Note_on_c, 7, 78, 96
9, 77824, Note_on_c, 7, 78, 96
9, 77824, Note_on_c, 7, 62, 96
9, 78336, Note_off_c, 7, 78, 0
9, 78336, Note_off_c, 7, 78, 0
9, 78336, Note_off_c, 7, 62, 0
9, 82432, Note_on_c, 7, 81, 96
9, 82432, Note_on_c, 7, 78, 96
9, 82432, Note_on_c, 7, 62, 96
9, 82944, Note_off_c, 7, 81, 0
9, 82944, Note_on_c, 7, 79, 96
9, 82944, Note_off_c, 7, 78, 0
9, 82944, Note_on_c, 7, 76, 96
9, 82944, Note_off_c, 7, 62, 0
9, 82944, Note_on_c, 7, 57, 96
9, 83456, Note_off_c, 7, 79, 0
9, 83456, Note_on_c, 7, 78, 96
9, 83456, Note_off_c, 7, 76, 0
9, 83456, Note_on_c, 7, 74, 96
9, 83456, Note_off_c, 7, 57, 0
9, 83456, Note_on_c, 7, 69, 96
9, 83968, Note_off_c, 7, 78, 0
9, 83968, Note_on_c, 7, 78, 96
9, 83968, Note_off_c, 7, 74, 0
9, 83968, Note_on_c, 7, 74, 96
9, 83968, Note_off_c, 7, 69, 0
9, 83968, Note_on_c, 7, 69, 96
9, 84480, Note_off_c, 7, 78, 0
9, 84480, Note_on_c, 7, 76, 96
9, 84480, Note_off_c, 7, 74, 0
9, 84480, Note_on_c, 7, 73, 96
9, 84480, Note_off_c, 7, 69, 0
9, 84480, Note_on_c, 7, 57, 96
9, 84992, Note_off_c, 7, 76, 0
9, 84992, Note_off_c, 7, 73, 0
9, 84992, Note_off_c, 7, 57, 0
9, 90624, Note_on_c, 7, 81, 96
9, 90624, Note_on_c, 7, 78, 96
9, 90624, Note_on_c, 7, 62, 96
9, 91136, Note_off_c, 7, 81, 0
9, 91136, Note_on_c, 7, 79, 96
9, 91136, Note_off_c, 7, 78, 0
9, 91136, Note_on_c, 7, 76, 96
9, 91136, Note_off_c, 7, 62, 0
9, 91136, Note_on_c, 7, 57, 96
9, 91648, Note_off_c, 7, 79, 0
9, 91648, Note_on_c, 7, 78, 96
9, 91648, Note_off_c, 7, 76, 0
9, 91648, Note_on_c, 7, 74, 96
9, 91648, Note_off_c, 7, 57, 0
9, 91648, Note_on_c, 7, 69, 96
9, 92160, Note_off_c, 7, 78, 0
9, 92160, Note_on_c, 7, 78, 96
9, 92160, Note_off_c, 7, 74, 0
9, 92160, Note_on_c, 7, 74, 96
9, 92160, Note_off_c, 7, 69, 0
9, 92160, Note_on_c, 7, 69, 96
9, 92672, Note_off_c, 7, 78, 0
9, 92672, Note_on_c, 7, 76, 96
9, 92672, Note_off_c, 7, 74, 0
9, 92672, Note_on_c, 7, 73, 96
9, 92672, Note_off_c, 7, 69, 0
9, 92672, Note_on_c, 7, 57, 96
9, 93184, Note_off_c, 7, 76, 0
9, 93184, Note_off_c, 7, 73, 0
9, 93184, Note_off_c, 7, 57, 0
9, 95744, Note_on_c, 7, 76, 96
9, 95744, Note_on_c, 7, 76, 96
9, 95744, Note_on_c, 7, 69, 96
9, 96256, Note_off_c, 7, 76, 0
9, 96256, Note_on_c, 7, 78, 96
9, 96256, Note_off_c, 7, 76, 0
9, 96256, Note_on_c, 7, 74, 96
9, 96256, Note_off_c, 7, 69, 0
9, 96256, Note_on_c, 7, 69, 96
9, 96768, Note_off_c, 7, 78, 0
9, 96768, Note_on_c, 7, 83, 96
9, 96768, Note_off_c, 7, 74, 0
9, 96768, Note_on_c, 7, 78, 96
9, 96768, Note_off_c, 7, 69, 0
9, 96768, Note_on_c, 7, 74, 96
9, 97024, Note_off_c, 7, 83, 0
9, 97024, Note_on_c, 7, 81, 96
9, 97024, Note_off_c, 7, 78, 0
9, 97024, Note_on_c, 7, 76, 96
9, 97024, Note_off_c, 7, 74, 0
9, 97024, Note_on_c, 7, 69, 96
9, 97280, Note_off_c, 7, 81, 0
9, 97280, Note_on_c, 7, 83, 96
9, 97280, Note_off_c, 7, 76, 0
9, 97280, Note_on_c, 7, 78, 96
9, 97280, Note_off_c, 7, 69, 0
9, 97280, Note_on_c, 7, 66, 96
9, 97792, Note_off_c, 7, 83, 0
9, 97792, Note_off_c, 7, 78, 0
9, 97792, Note_off_c, 7, 66, 0
9, 99840, Note_on_c, 7, 74, 96
9, 99840, Note_on_c, 7, 69, 96
9, 99840, Note_on_c, 7, 71, 96
9, 100352, Note_off_c, 7, 74, 0
9, 100352, Note_on_c, 7, 76, 96
9, 100352, Note_off_c, 7, 69, 0
9, 100352, Note_on_c, 7, 69, 96
9, 100352, Note_off_c, 7, 71, 0
9, 100352, Note_on_c, 7, 64, 96
9, 100864, Note_off_c, 7, 76, 0
9, 100864, Note_on_c, 7, 81, 96
9, 100864, Note_off_c, 7, 69, 0
9, 100864, Note_on_c, 7, 76, 96
9, 100864, Note_off_c, 7, 64, 0
9, 100864, Note_on_c, 7, 57, 96
9, 101120, Note_off_c, 7, 81, 0
9, 101120, Note_on_c, 7, 79, 96
9, 101120, Note_off_c, 7, 76, 0
9, 101120, Note_on_c, 7, 74, 96
9, 101120, Note_off_c, 7, 57, 0
9, 101120, Note_on_c, 7, 59, 96
9, 101376, Note_off_c, 7, 79, 0
9, 101376, Note_on_c, 7, 81, 96
9, 101376, Note_off_c, 7, 74, 0
9, 101376, Note_on_c, 7, 76, 96
9, 101376, Note_off_c, 7, 59, 0
9, 101376, Note_on_c, 7, 57, 96
9, 101888, Note_off_c, 7, 81, 0
9, 101888, Note_off_c, 7, 76, 0
9, 101888, Note_off_c, 7, 57, 0
9, 102400, Note_on_c, 7, 74, 96
9, 102400, Note_on_c, 7, 71, 96
9, 102400, Note_on_c, 7, 66, 96
9, 104448, Note_off_c, 7, 66, 0
9, 104448, Note_on_c, 7, 59, 96
9, 105472, Note_off_c, 7, 59, 0
9, 105472, Note_on_c, 7, 62, 96
9, 106496, Note_off_c, 7, 62, 0
9, 106496, Note_on_c, 7, 64, 96
9, 107008, Note_off_c, 7, 74, 0
9, 107008, Note_on_c, 7, 64, 96
9, 107008, Note_off_c, 7, 71, 0
9, 107008, Note_on_c, 7, 83, 96
9, 107008, Note_off_c, 7, 64, 0
9, 107008, Note_on_c, 7, 59, 96
9, 107264, Note_off_c, 7, 64, 0
9, 107264, Note_on_c, 7, 66, 96
9, 107520, Note_off_c, 7, 66, 0
9, 107520, Note_on_c, 7, 67, 96
9, 107520, Note_off_c, 7, 83, 0
9, 107520, Note_on_c, 7, 79, 96
9, 107520, Note_off_c, 7, 59, 0
9, 107520, Note_on_c, 7, 64, 96
9, 107776, Note_off_c, 7, 67, 0
9, 107776, Note_on_c, 7, 64, 96
9, 108032, Note_off_c, 7, 64, 0
9, 108032, Note_on_c, 7, 66, 96
9, 108032, Note_off_c, 7, 79, 0
9, 108032, Note_on_c, 7, 74, 96
9, 108032, Note_off_c, 7, 64, 0
9, 108032, Note_on_c, 7, 69, 96
9, 108288, Note_off_c, 7, 66, 0
9, 108288, Note_on_c, 7, 67, 96
9, 108544, Note_off_c, 7, 67, 0
9, 108544, Note_on_c, 7, 69, 96
9, 108544, Note_off_c, 7, 74, 0
9, 108544, Note_off_c, 7, 69, 0
9, 108800, Note_off_c, 7, 69, 0
9, 108800, Note_on_c, 7, 64, 96
9, 109056, Note_off_c, 7, 64, 0
9, 109056, Note_on_c, 7, 69, 96
9, 109056, Note_on_c, 7, 76, 96
9, 109056, Note_on_c, 7, 69, 96
9, 109312, Note_off_c, 7, 69, 0
9, 109312, Note_on_c, 7, 73, 96
9, 109568, Note_off_c, 7, 73, 0
9, 109568, Note_on_c, 7, 76, 96
9, 109568, Note_off_c, 7, 76, 0
9, 109568, Note_on_c, 7, 73, 96
9, 109568, Note_off_c, 7, 69, 0
9, 109568, Note_on_c, 7, 64, 96
9, 109824, Note_off_c, 7, 76, 0
9, 109824, Note_on_c, 7, 73, 96
9, 110080, Note_off_c, 7, 73, 0
9, 110080, Note_on_c, 7, 69, 96
9, 110080, Note_off_c, 7, 73, 0
9, 110080, Note_on_c, 7, 76, 96
9, 110080, Note_off_c, 7, 64, 0
9, 110080, Note_on_c, 7, 64, 96
9, 110336, Note_off_c, 7, 69, 0
9, 110336, Note_on_c, 7, 81, 96
9, 110592, Note_off_c, 7, 81, 0
9, 110592, Note_off_c, 7, 76, 0
9, 110592, Note_off_c, 7, 64, 0
9, 110592, Note_on_c, 7, 79, 96
9, 110592, Note_on_c, 7, 69, 96
9, 110592, Note_on_c, 7, 66, 96
9, 110848, Note_off_c, 7, 79, 0
9, 110848, Note_on_c, 7, 78, 96
9, 111104, Note_off_c, 7, 78, 0
9, 111104, Note_on_c, 7, 76, 96
9, 111104, Note_off_c, 7, 69, 0
9, 111104, Note_on_c, 7, 71, 96
9, 111104, Note_off_c, 7, 66, 0
9, 111104, Note_on_c, 7, 66, 96
9, 111360, Note_off_c, 7, 76, 0
9, 111360, Note_on_c, 7, 74, 96
9, 111616, Note_off_c, 7, 74, 0
9, 111616, Note_on_c, 7, 78, 96
9, 111616, Note_off_c, 7, 71, 0
9, 111616, Note_on_c, 7, 71, 96
9, 111616, Note_off_c, 7, 66, 0
9, 111616, Note_on_c, 7, 59, 96
9, 112128, Note_off_c, 7, 78, 0
9, 112128, Note_on_c, 7, 76, 96
9, 112128, Note_off_c, 7, 71, 0
9, 112128, Note_on_c, 7, 73, 96
9, 112128, Note_off_c, 7, 59, 0
9, 112128, Note_on_c, 7, 64, 96
9, 112640, Note_off_c, 7, 76, 0
9, 112640, Note_on_c, 7, 74, 96
9, 112640, Note_off_c, 7, 73, 0
9, 112640, Note_on_c, 7, 66, 96
9, 112640, Note_off_c, 7, 64, 0
9, 112640, Note_on_c, 7, 71, 96
9, 113152, Note_off_c, 7, 74, 0
9, 113152, Note_on_c, 7, 86, 96
9, 113152, Note_off_c, 7, 66, 0
9, 113152, Note_off_c, 7, 71, 0
9, 113408, Note_off_c, 7, 86, 0
9, 113408, Note_on_c, 7, 85, 96
9, 113664, Note_off_c, 7, 85, 0
9, 113664, Note_on_c, 7, 86, 96
9, 114176, Note_off_c, 7, 86, 0
9, 114176, Note_on_c, 7, 74, 96
9, 114176, Note_on_c, 7, 79, 96
9, 114176, Note_on_c, 7, 71, 96
9, 114688, Note_off_c, 7, 74, 0
9, 114688, Note_off_c, 7, 79, 0
9, 114688, Note_off_c, 7, 71, 0
9, 114688, Note_on_c, 7, 74, 96
9, 114688, Note_on_c, 7, 81, 96
9, 114688, Note_on_c, 7, 69, 96
9, 115200, Note_off_c, 7, 74, 0
9, 115200, Note_on_c, 7, 81, 96
9, 115200, Note_off_c, 7, 81, 0
9, 115200, Note_off_c, 7, 69, 0
9, 115456, Note_off_c, 7, 81, 0
9, 115456, Note_on_c, 7, 79, 96
9, 115712, Note_off_c, 7, 79, 0
9, 115712, Note_on_c, 7, 81, 96
9, 116224, Note_off_c, 7, 81, 0
9, 116224, Note_on_c, 7, 74, 96
9, 116224, Note_on_c, 7, 72, 96
9, 116224, Note_on_c, 7, 69, 96
9, 116736, Note_off_c, 7, 74, 0
9, 116736, Note_on_c, 7, 83, 96
9, 116736, Note_off_c, 7, 72, 0
9, 116736, Note_on_c, 7, 71, 96
9, 116736, Note_off_c, 7, 69, 0
9, 116736, Note_on_c, 7, 67, 96
9, 117248, Note_off_c, 7, 83, 0
9, 117248, Note_off_c, 7, 71, 0
9, 117248, Note_off_c, 7, 67, 0
9, 117760, Note_on_c, 7, 81, 96
9, 117760, Note_on_c, 7, 74, 96
9, 117760, Note_on_c, 7, 69, 96
9, 118272, Note_off_c, 7, 81, 0
9, 118272, Note_off_c, 7, 74, 0
9, 118272, Note_off_c, 7, 69, 0
9, 118784, Note_on_c, 7, 80, 96
9, 118784, Note_on_c, 7, 76, 96
9, 118784, Note_on_c, 7, 71, 96
9, 119296, Note_off_c, 7, 80, 0
9, 119296, Note_on_c, 7, 74, 96
9, 119296, Note_off_c, 7, 76, 0
9, 119296, Note_off_c, 7, 71, 0
9, 119552, Note_off_c, 7, 74, 0
9, 119552, Note_on_c, 7, 73, 96
9, 119808, Note_off_c, 7, 73, 0
9, 119808, Note_on_c, 7, 71, 96
9, 119808, Note_on_c, 7, 76, 96
9, 119808, Note_on_c, 7, 71, 96
9, 120320, Note_off_c, 7, 71, 0
9, 120320, Note_on_c, 7, 83, 96
9, 120320, Note_off_c, 7, 76, 0
9, 120320, Note_off_c, 7, 71, 0
9, 120832, Note_off_c, 7, 83, 0
9, 120832, Note_on_c, 7, 81, 96
9, 120832, Note_on_c, 7, 76, 96
9, 120832, Note_on_c, 7, 64, 96
9, 121344, Note_off_c, 7, 81, 0
9, 121344, Note_on_c, 7, 69, 96
9, 121344, Note_off_c, 7, 76, 0
9, 121344, Note_off_c, 7, 64, 0
9, 121600, Note_off_c, 7, 69, 0
9, 121600, Note_on_c, 7, 71, 96
9, 121856, Note_off_c, 7, 71, 0
9, 121856, Note_on_c, 7, 73, 96
9, 121856, Note_on_c, 7, 76, 96
9, 121856, Note_on_c, 7, 69, 96
9, 122368, Note_off_c, 7, 73, 0
9, 122368, Note_on_c, 7, 79, 96
9, 122368, Note_off_c, 7, 76, 0
9, 122368, Note_off_c, 7, 69, 0
9, 122880, Note_off_c, 7, 79, 0
9, 122880, Note_on_c, 7, 78, 96
9, 122880, Note_on_c, 7, 69, 96
9, 122880, Note_on_c, 7, 69, 96
9, 123392, Note_off_c, 7, 78, 0
9, 123392, Note_on_c, 7, 86, 96
9, 123392, Note_off_c, 7, 69, 0
9, 123392, Note_on_c, 7, 78, 96
9, 123392, Note_off_c, 7, 69, 0
9, 123392, Note_on_c, 7, 71, 96
9, 123904, Note_off_c, 7, 86, 0
9, 123904, Note_on_c, 7, 76, 96
9, 123904, Note_off_c, 7, 78, 0
9, 123904, Note_on_c, 7, 79, 96
9, 123904, Note_off_c, 7, 71, 0
9, 123904, Note_on_c, 7, 64, 96
9, 124416, Note_off_c, 7, 76, 0
9, 124416, Note_on_c, 7, 85, 96
9, 124416, Note_off_c, 7, 79, 0
9, 124416, Note_on_c, 7, 76, 96
9, 124416, Note_off_c, 7, 64, 0
9, 124416, Note_on_c, 7, 69, 96
9, 124928, Note_off_c, 7, 85, 0
9, 124928, Note_on_c, 7, 74, 96
9, 124928, Note_off_c, 7, 76, 0
9, 124928, Note_on_c, 7, 78, 96
9, 124928, Note_off_c, 7, 69, 0
9, 124928, Note_on_c, 7, 69, 96
9, 125952, Note_off_c, 7, 74, 0
9, 125952, Note_off_c, 7, 78, 0
9, 125952, Note_off_c, 7, 69, 0
9, 126208, Note_on_c, 7, 66, 96
9, 126208, Note_on_c, 7, 66, 96
9, 126208, Note_on_c, 7, 66, 96
9, 126464, Note_off_c, 7, 66, 0
9, 126464, Note_on_c, 7, 67, 96
9, 126464, Note_off_c, 7, 66, 0
9, 126464, Note_on_c, 7, 67, 96
9, 126464, Note_off_c, 7, 66, 0
9, 126464, Note_on_c, 7, 67, 96
9, 126720, Note_off_c, 7, 67, 0
9, 126720, Note_on_c, 7, 69, 96
9, 126720, Note_off_c, 7, 67, 0
9, 126720, Note_on_c, 7, 69, 96
9, 126720, Note_off_c, 7, 67, 0
9, 126720, Note_on_c, 7, 69, 96
9, 126976, Note_off_c, 7, 69, 0
9, 126976, Note_off_c, 7, 69, 0
9, 126976, Note_off_c, 7, 69, 0
9, 126976, Note_on_c, 7, 62, 96
9, 126976, Note_on_c, 7, 62, 96
9, 126976, Note_on_c, 7, 62, 96
9, 127232, Note_off_c, 7, 62, 0
9, 127232, Note_on_c, 7, 71, 96
9, 127232, Note_off_c, 7, 62, 0
9, 127232, Note_on_c, 7, 71, 96
9, 127232, Note_off_c, 7, 62, 0
9, 127232, Note_on_c, 7, 71, 96
9, 127488, Note_off_c, 7, 71, 0
9, 127488, Note_on_c, 7, 69, 96
9, 127488, Note_off_c, 7, 71, 0
9, 127488, Note_on_c, 7, 69, 96
9, 127488, Note_off_c, 7, 71, 0
9, 127488, Note_on_c, 7, 69, 96
9, 127744, Note_off_c, 7, 69, 0
9, 127744, Note_on_c, 7, 67, 96
9, 127744, Note_off_c, 7, 69, 0
9, 127744, Note_on_c, 7, 67, 96
9, 127744, Note_off_c, 7, 69, 0
9, 127744, Note_on_c, 7, 67, 96
9, 128000, Note_off_c, 7, 67, 0
9, 128000, Note_on_c, 7, 62, 96
9, 128000, Note_off_c, 7, 67, 0
9, 128000, Note_on_c, 7, 62, 96
9, 128000, Note_off_c, 7, 67, 0
9, 128000, Note_on_c, 7, 62, 96
9, 128256, Note_off_c, 7, 62, 0
9, 128256, Note_on_c, 7, 69, 96
9, 128256, Note_off_c, 7, 62, 0
9, 128256, Note_on_c, 7, 69, 96
9, 128256, Note_off_c, 7, 62, 0
9, 128256, Note_on_c, 7, 69, 96
9, 128512, Note_off_c, 7, 69, 0
9, 128512, Note_on_c, 7, 67, 96
9, 128512, Note_off_c, 7, 69, 0
9, 128512, Note_on_c, 7, 67, 96
9, 128512, Note_off_c, 7, 69, 0
9, 128512, Note_on_c, 7, 67, 96
9, 128768, Note_off_c, 7, 67, 0
9, 128768, Note_on_c, 7, 66, 96
9, 128768, Note_off_c, 7, 67, 0
9, 128768, Note_on_c, 7, 66, 96
9, 128768, Note_off_c, 7, 67, 0
9, 128768, Note_on_c, 7, 66, 96
9, 129024, Note_off_c, 7, 66, 0
9, 129024, Note_on_c, 7, 62, 96
9, 129024, Note_off_c, 7, 66, 0
9, 129024, Note_on_c, 7, 62, 96
9, 129024, Note_off_c, 7, 66, 0
9, 129024, Note_on_c, 7, 62, 96
9, 129280, Note_off_c, 7, 62, 0
9, 129280, Note_on_c, 7, 67, 96
9, 129280, Note_off_c, 7, 62, 0
9, 129280, Note_on_c, 7, 67, 96
9, 129280, Note_off_c, 7, 62, 0
9, 129280, Note_on_c, 7, 67, 96
9, 129536, Note_off_c, 7, 67, 0
9, 129536, Note_on_c, 7, 66, 96
9, 129536, Note_off_c, 7, 67, 0
9, 129536, Note_on_c, 7, 66, 96
9, 129536, Note_off_c, 7, 67, 0
9, 129536, Note_on_c, 7, 66, 96
9, 129792, Note_off_c, 7, 66, 0
9, 129792, Note_on_c, 7, 64, 96
9, 129792, Note_off_c, 7, 66, 0
9, 129792, Note_on_c, 7, 64, 96
9, 129792, Note_off_c, 7, 66, 0
9, 129792, Note_on_c, 7, 64, 96
9, 130048, Note_off_c, 7, 64, 0
9, 130048, Note_on_c, 7, 62, 96
9, 130048, Note_off_c, 7, 64, 0
9, 130048, Note_on_c, 7, 62, 96
9, 130048, Note_off_c, 7, 64, 0
9, 130048, Note_on_c, 7, 62, 96
9, 130304, Note_off_c, 7, 62, 0
9, 130304, Note_on_c, 7, 66, 96
9, 130304, Note_off_c, 7, 62, 0
9, 130304, Note_on_c, 7, 66, 96
9, 130304, Note_off_c, 7, 62, 0
9, 130304, Note_on_c, 7, 66, 96
9, 130560, Note_off_c, 7, 66, 0
9, 130560, Note_on_c, 7, 64, 96
9, 130560, Note_off_c, 7, 66, 0
9, 130560, Note_on_c, 7, 64, 96
9, 130560, Note_off_c, 7, 66, 0
9, 130560, Note_on_c, 7, 64, 96
9, 130816, Note_off_c, 7, 64, 0
9, 130816, Note_on_c, 7, 62, 96
9, 130816, Note_off_c, 7, 64, 0
9, 130816, Note_on_c, 7, 62, 96
9, 130816, Note_off_c, 7, 64, 0
9, 130816, Note_on_c, 7, 62, 96
9, 131072, Note_off_c, 7, 62, 0
9, 131072, Note_off_c, 7, 62, 0
9, 131072, Note_off_c, 7, 62, 0
9, 131072, Note_on_c, 7, 64, 96
9, 131072, Note_on_c, 7, 64, 96
9, 131072, Note_on_c, 7, 64, 96
9, 131328, Note_off_c, 7, 64, 0
9, 131328, Note_on_c, 7, 74, 96
9, 131328, Note_off_c, 7, 64, 0
9, 131328, Note_on_c, 7, 74, 96
9, 131328, Note_off_c, 7, 64, 0
9, 131328, Note_on_c, 7, 74, 96
9, 131584, Note_off_c, 7, 74, 0
9, 131584, Note_on_c, 7, 73, 96
9, 131584, Note_off_c, 7, 74, 0
9, 131584, Note_on_c, 7, 73, 96
9, 131584, Note_off_c, 7, 74, 0
9, 131584, Note_on_c, 7, 73, 96
9, 131840, Note_off_c, 7, 73, 0
9, 131840, Note_on_c, 7, 71, 96
9, 131840, Note_off_c, 7, 73, 0
9, 131840, Note_on_c, 7, 71, 96
9, 131840, Note_off_c, 7, 73, 0
9, 131840, Note_on_c, 7, 71, 96
9, 132096, Note_off_c, 7, 71, 0
9, 132096, Note_on_c, 7, 69, 96
9, 132096, Note_off_c, 7, 71, 0
9, 132096, Note_on_c, 7, 69, 96
9, 132096, Note_off_c, 7, 71, 0
9, 132096, Note_on_c, 7, 69, 96
9, 132352, Note_off_c, 7, 69, 0
9, 132352, Note_on_c, 7, 67, 96
9, 132352, Note_off_c, 7, 69, 0
9, 132352, Note_on_c, 7, 67, 96
9, 132352, Note_off_c, 7, 69, 0
9, 132352, Note_on_c, 7, 67, 96
9, 132608, Note_off_c, 7, 67, 0
9, 132608, Note_on_c, 7, 66, 96
9, 132608, Note_off_c, 7, 67, 0
9, 132608, Note_on_c, 7, 66, 96
9, 132608, Note_off_c, 7, 67, 0
9, 132608, Note_on_c, 7, 66, 96
9, 132864, Note_off_c, 7, 66, 0
9, 132864, Note_on_c, 7, 64, 96
9, 132864, Note_off_c, 7, 66, 0
9, 132864, Note_on_c, 7, 64, 96
9, 132864, Note_off_c, 7, 66, 0
9, 132864, Note_on_c, 7, 64, 96
9, 133120, Note_off_c, 7, 64, 0
9, 133120, Note_on_c, 7, 62, 96
9, 133120, Note_off_c, 7, 64, 0
9, 133120, Note_on_c, 7, 62, 96
9, 133120, Note_off_c, 7, 64, 0
9, 133120, Note_on_c, 7, 62, 96
9, 134144, Note_off_c, 7, 62, 0
9, 134144, Note_off_c, 7, 62, 0
9, 134144, Note_off_c, 7, 62, 0
9, 134656, Note_on_c, 7, 66, 96
9, 134656, Note_on_c, 7, 66, 96
9, 134656, Note_on_c, 7, 66, 96
9, 135168, Note_off_c, 7, 66, 0
9, 135168, Note_off_c, 7, 66, 0
9, 135168, Note_off_c, 7, 66, 0
9, 135168, Note_on_c, 7, 71, 96
9, 135168, Note_on_c, 7, 71, 96
9, 135168, Note_on_c, 7, 71, 96
9, 135424, Note_off_c, 7, 71, 0
9, 135424, Note_on_c, 7, 73, 96
9, 135424, Note_off_c, 7, 71, 0
9, 135424, Note_on_c, 7, 73, 96
9, 135424, Note_off_c, 7, 71, 0
9, 135424, Note_on_c, 7, 73, 96
9, 135680, Note_off_c, 7, 73, 0
9, 135680, Note_on_c, 7, 74, 96
9, 135680, Note_off_c, 7, 73, 0
9, 135680, Note_on_c, 7, 74, 96
9, 135680, Note_off_c, 7, 73, 0
9, 135680, Note_on_c, 7, 74, 96
9, 135936, Note_off_c, 7, 74, 0
9, 135936, Note_on_c, 7, 73, 96
9, 135936, Note_off_c, 7, 74, 0
9, 135936, Note_on_c, 7, 73, 96
9, 135936, Note_off_c, 7, 74, 0
9, 135936, Note_on_c, 7, 73, 96
9, 136192, Note_off_c, 7, 73, 0
9, 136192, Note_on_c, 7, 71, 96
9, 136192, Note_off_c, 7, 73, 0
9, 136192, Note_on_c, 7, 71, 96
9, 136192, Note_off_c, 7, 73, 0
9, 136192, Note_on_c, 7, 71, 96
9, 136704, Note_off_c, 7, 71, 0
9, 136704, Note_on_c, 7, 66, 96
9, 136704, Note_off_c, 7, 71, 0
9, 136704, Note_on_c, 7, 66, 96
9, 136704, Note_off_c, 7, 71, 0
9, 136704, Note_on_c, 7, 66, 96
9, 137216, Note_off_c, 7, 66, 0
9, 137216, Note_on_c, 7, 66, 96
9, 137216, Note_off_c, 7, 66, 0
9, 137216, Note_on_c, 7, 66, 96
9, 137216, Note_off_c, 7, 66, 0
9, 137216, Note_on_c, 7, 66, 96
9, 137728, Note_off_c, 7, 66, 0
9, 137728, Note_on_c, 7, 62, 96
9, 137728, Note_off_c, 7, 66, 0
9, 137728, Note_on_c, 7, 62, 96
9, 137728, Note_off_c, 7, 66, 0
9, 137728, Note_on_c, 7, 62, 96
9, 138240, Note_off_c, 7, 62, 0
9, 138240, Note_on_c, 7, 62, 96
9, 138240, Note_off_c, 7, 62, 0
9, 138240, Note_on_c, 7, 62, 96
9, 138240, Note_off_c, 7, 62, 0
9, 138240, Note_on_c, 7, 62, 96
9, 138752, Note_off_c, 7, 62, 0
9, 138752, Note_on_c, 7, 59, 96
9, 138752, Note_off_c, 7, 62, 0
9, 138752, Note_on_c, 7, 59, 96
9, 138752, Note_off_c, 7, 62, 0
9, 138752, Note_on_c, 7, 59, 96
9, 139264, Note_off_c, 7, 59, 0
9, 139264, Note_off_c, 7, 59, 0
9, 139264, Note_off_c, 7, 59, 0
9, 139264, Note_on_c, 7, 59, 96
9, 139264, Note_on_c, 7, 59, 96
9, 139264, Note_on_c, 7, 59, 96
9, 139776, Note_off_c, 7, 59, 0
9, 139776, Note_on_c, 7, 78, 96
9, 139776, Note_off_c, 7, 59, 0
9, 139776, Note_on_c, 7, 74, 96
9, 139776, Note_off_c, 7, 59, 0
9, 139776, Note_on_c, 7, 59, 96
9, 140288, Note_off_c, 7, 78, 0
9, 140288, Note_on_c, 7, 76, 96
9, 140288, Note_off_c, 7, 74, 0
9, 140288, Note_on_c, 7, 73, 96
9, 140288, Note_off_c, 7, 59, 0
9, 140288, Note_on_c, 7, 54, 96
9, 140800, Note_off_c, 7, 76, 0
9, 140800, Note_on_c, 7, 74, 96
9, 140800, Note_off_c, 7, 73, 0
9, 140800, Note_on_c, 7, 71, 96
9, 140800, Note_off_c, 7, 54, 0
9, 140800, Note_on_c, 7, 66, 96
9, 141312, Note_off_c, 7, 74, 0
9, 141312, Note_on_c, 7, 74, 96
9, 141312, Note_off_c, 7, 71, 0
9, 141312, Note_on_c, 7, 71, 96
9, 141312, Note_off_c, 7, 66, 0
9, 141312, Note_on_c, 7, 66, 96
9, 141824, Note_off_c, 7, 74, 0
9, 141824, Note_on_c, 7, 73, 96
9, 141824, Note_off_c, 7, 71, 0
9, 141824, Note_on_c, 7, 70, 96
9, 141824, Note_off_c, 7, 66, 0
9, 141824, Note_on_c, 7, 54, 96
9, 142336, Note_off_c, 7, 73, 0
9, 142336, Note_off_c, 7, 70, 0
9, 142336, Note_off_c, 7, 54, 0
9, 142592, Note_on_c, 7, 73, 96
9, 142592, Note_on_c, 7, 73, 96
9, 142592, Note_on_c, 7, 73, 96
9, 142848, Note_off_c, 7, 73, 0
9, 142848, Note_on_c, 7, 71, 96
9, 142848, Note_off_c, 7, 73, 0
9, 142848, Note_on_c, 7, 71, 96
9, 142848, Note_off_c, 7, 73, 0
9, 142848, Note_on_c, 7, 71, 96
9, 143104, Note_off_c, 7, 71, 0
9, 143104, Note_on_c, 7, 70, 96
9, 143104, Note_off_c, 7, 71, 0
9, 143104, Note_on_c, 7, 70, 96
9, 143104, Note_off_c, 7, 71, 0
9, 143104, Note_on_c, 7, 70, 96
9, 143360, Note_off_c, 7, 70, 0
9, 143360, Note_off_c, 7, 70, 0
9, 143360, Note_off_c, 7, 70, 0
9, 143360, Note_on_c, 7, 71, 96
9, 143360, Note_on_c, 7, 71, 96
9, 143360, Note_on_c, 7, 71, 96
9, 143616, Note_off_c, 7, 71, 0
9, 143616, Note_on_c, 7, 71, 96
9, 143616, Note_off_c, 7, 71, 0
9, 143616, Note_on_c, 7, 71, 96
9, 143616, Note_off_c, 7, 71, 0
9, 143616, Note_on_c, 7, 71, 96
9, 143872, Note_off_c, 7, 71, 0
9, 143872, Note_on_c, 7, 73, 96
9, 143872, Note_off_c, 7, 71, 0
9, 143872, Note_on_c, 7, 73, 96
9, 143872, Note_off_c, 7, 71, 0
9, 143872, Note_on_c, 7, 73, 96
9, 144128, Note_off_c, 7, 73, 0
9, 144128, Note_on_c, 7, 74, 96
9, 144128, Note_off_c, 7, 73, 0
9, 144128, Note_on_c, 7, 74, 96
9, 144128, Note_off_c, 7, 73, 0
9, 144128, Note_on_c, 7, 74, 96
9, 144384, Note_off_c, 7, 74, 0
9, 144384, Note_on_c, 7, 71, 96
9, 144384, Note_off_c, 7, 74, 0
9, 144384, Note_on_c, 7, 71, 96
9, 144384, Note_off_c, 7, 74, 0
9, 144384, Note_on_c, 7, 71, 96
9, 144640, Note_off_c, 7, 71, 0
9, 144640, Note_on_c, 7, 71, 96
9, 144640, Note_off_c, 7, 71, 0
9, 144640, Note_on_c, 7, 71, 96
9, 144640, Note_off_c, 7, 71, 0
9, 144640, Note_on_c, 7, 71, 96
9, 144896, Note_off_c, 7, 71, 0
9, 144896, Note_on_c, 7, 73, 96
9, 144896, Note_off_c, 7, 71, 0
9, 144896, Note_on_c, 7, 73, 96
9, 144896, Note_off_c, 7, 71, 0
9, 144896, Note_on_c, 7, 73, 96
9, 145152, Note_off_c, 7, 73, 0
9, 145152, Note_on_c, 7, 74, 96
9, 145152, Note_off_c, 7, 73, 0
9, 145152, Note_on_c, 7, 74, 96
9, 145152, Note_off_c, 7, 73, 0
9, 145152, Note_on_c, 7, 74, 96
9, 145408, Note_off_c, 7, 74, 0
9, 145408, Note_on_c, 7, 73, 96
9, 145408, Note_off_c, 7, 74, 0
9, 145408, Note_on_c, 7, 73, 96
9, 145408, Note_off_c, 7, 74, 0
9, 145408, Note_on_c, 7, 73, 96
9, 145920, Note_off_c, 7, 73, 0
9, 145920, Note_on_c, 7, 79, 96
9, 145920, Note_off_c, 7, 73, 0
9, 145920, Note_on_c, 7, 79, 96
9, 145920, Note_off_c, 7, 73, 0
9, 145920, Note_on_c, 7, 71, 96
9, 146432, Note_off_c, 7, 79, 0
9, 146432, Note_off_c, 7, 79, 0
9, 146432, Note_off_c, 7, 71, 0
9, 146432, Note_on_c, 7, 70, 96
9, 146688, Note_on_c, 7, 79, 96
9, 146688, Note_on_c, 7, 79, 96
9, 146944, Note_off_c, 7, 79, 0
9, 146944, Note_on_c, 7, 78, 96
9, 146944, Note_off_c, 7, 79, 0
9, 146944, Note_on_c, 7, 78, 96
9, 147200, Note_off_c, 7, 78, 0
9, 147200, Note_on_c, 7, 76, 96
9, 147200, Note_off_c, 7, 78, 0
9, 147200, Note_on_c, 7, 76, 96
9, 147456, Note_off_c, 7, 76, 0
9, 147456, Note_off_c, 7, 76, 0
9, 147456, Note_off_c, 7, 70, 0
9, 147456, Note_on_c, 7, 74, 96
9, 147456, Note_on_c, 7, 74, 96
9, 147456, Note_on_c, 7, 71, 96
9, 147712, Note_off_c, 7, 74, 0
9, 147712, Note_on_c, 7, 74, 96
9, 147712, Note_off_c, 7, 74, 0
9, 147712, Note_on_c, 7, 74, 96
9, 147968, Note_off_c, 7, 74, 0
9, 147968, Note_on_c, 7, 76, 96
9, 147968, Note_off_c, 7, 74, 0
9, 147968, Note_on_c, 7, 76, 96
9, 148224, Note_off_c, 7, 76, 0
9, 148224, Note_on_c, 7, 78, 96
9, 148224, Note_off_c, 7, 76, 0
9, 148224, Note_on_c, 7, 78, 96
9, 148480, Note_off_c, 7, 78, 0
9, 148480, Note_on_c, 7, 74, 96
9, 148480, Note_off_c, 7, 78, 0
9, 148480, Note_on_c, 7, 74, 96
9, 148480, Note_off_c, 7, 71, 0
9, 148736, Note_off_c, 7, 74, 0
9, 148736, Note_on_c, 7, 74, 96
9, 148736, Note_off_c, 7, 74, 0
9, 148736, Note_on_c, 7, 74, 96
9, 148992, Note_off_c, 7, 74, 0
9, 148992, Note_on_c, 7, 76, 96
9, 148992, Note_off_c, 7, 74, 0
9, 148992, Note_on_c, 7, 76, 96
9, 148992, Note_on_c, 7, 62, 96
9, 149248, Note_off_c, 7, 76, 0
9, 149248, Note_on_c, 7, 78, 96
9, 149248, Note_off_c, 7, 76, 0
9, 149248, Note_on_c, 7, 78, 96
9, 149504, Note_off_c, 7, 78, 0
9, 149504, Note_on_c, 7, 76, 96
9, 149504, Note_off_c, 7, 78, 0
9, 149504, Note_on_c, 7, 76, 96
9, 149504, Note_off_c, 7, 62, 0
9, 149504, Note_on_c, 7, 62, 96
9, 150016, Note_off_c, 7, 76, 0
9, 150016, Note_on_c, 7, 83, 96
9, 150016, Note_off_c, 7, 76, 0
9, 150016, Note_on_c, 7, 83, 96
9, 150016, Note_off_c, 7, 62, 0
9, 150016, Note_on_c, 7, 61, 96
9, 150272, Note_off_c, 7, 61, 0
9, 150272, Note_on_c, 7, 59, 96
9, 150528, Note_off_c, 7, 83, 0
9, 150528, Note_off_c, 7, 83, 0
9, 150528, Note_off_c, 7, 59, 0
9, 150528, Note_on_c, 7, 61, 96
9, 150784, Note_on_c, 7, 83, 96
9, 150784, Note_on_c, 7, 83, 96
9, 151040, Note_off_c, 7, 83, 0
9, 151040, Note_on_c, 7, 81, 96
9, 151040, Note_off_c, 7, 83, 0
9, 151040, Note_on_c, 7, 81, 96
9, 151296, Note_off_c, 7, 81, 0
9, 151296, Note_on_c, 7, 79, 96
9, 151296, Note_off_c, 7, 81, 0
9, 151296, Note_on_c, 7, 79, 96
9, 151296, Note_off_c, 7, 61, 0
9, 151296, Note_on_c, 7, 62, 96
9, 151552, Note_off_c, 7, 79, 0
9, 151552, Note_off_c, 7, 79, 0
9, 151552, Note_off_c, 7, 62, 0
9, 151552, Note_on_c, 7, 78, 96
9, 151552, Note_on_c, 7, 78, 96
9, 151552, Note_on_c, 7, 62, 96
9, 152064, Note_off_c, 7, 78, 0
9, 152064, Note_off_c, 7, 78, 0
9, 152064, Note_off_c, 7, 62, 0
9, 156160, Note_on_c, 7, 81, 96
9, 156160, Note_on_c, 7, 78, 96
9, 156160, Note_on_c, 7, 62, 96
9, 156672, Note_off_c, 7, 81, 0
9, 156672, Note_on_c, 7, 79, 96
9, 156672, Note_off_c, 7, 78, 0
9, 156672, Note_on_c, 7, 76, 96
9, 156672, Note_off_c, 7, 62, 0
9, 156672, Note_on_c, 7, 57, 96
9, 157184, Note_off_c, 7, 79, 0
9, 157184, Note_on_c, 7, 78, 96
9, 157184, Note_off_c, 7, 76, 0
9, 157184, Note_on_c, 7, 74, 96
9, 157184, Note_off_c, 7, 57, 0
9, 157184, Note_on_c, 7, 69, 96
9, 157696, Note_off_c, 7, 78, 0
9, 157696, Note_on_c, 7, 78, 96
9, 157696, Note_off_c, 7, 74, 0
9, 157696, Note_on_c, 7, 74, 96
9, 157696, Note_off_c, 7, 69, 0
9, 157696, Note_on_c, 7, 69, 96
9, 158208, Note_off_c, 7, 78, 0
9, 158208, Note_on_c, 7, 76, 96
9, 158208, Note_off_c, 7, 74, 0
9, 158208, Note_on_c, 7, 73, 96
9, 158208, Note_off_c, 7, 69, 0
9, 158208, Note_on_c, 7, 57, 96
9, 158720, Note_off_c, 7, 76, 0
9, 158720, Note_off_c, 7, 73, 0
9, 158720, Note_off_c, 7, 57, 0
9, 164352, Note_on_c, 7, 81, 96
9, 164352, Note_on_c, 7, 78, 96
9, 164352, Note_on_c, 7, 62, 96
9, 164864, Note_off_c, 7, 81, 0
9, 164864, Note_on_c, 7, 79, 96
9, 164864, Note_off_c, 7, 78, 0
9, 164864, Note_on_c, 7, 76, 96
9, 164864, Note_off_c, 7, 62, 0
9, 164864, Note_on_c, 7, 57, 96
9, 165376, Note_off_c, 7, 79, 0
9, 165376, Note_on_c, 7, 78, 96
9, 165376, Note_off_c, 7, 76, 0
9, 165376, Note_on_c, 7, 74, 96
9, 165376, Note_off_c, 7, 57, 0
9, 165376, Note_on_c, 7, 69, 96
9, 165888, Note_off_c, 7, 78, 0
9, 165888, Note_on_c, 7, 78, 96
9, 165888, Note_off_c, 7, 74, 0
9, 165888, Note_on_c, 7, 74, 96
9, 165888, Note_off_c, 7, 69, 0
9, 165888, Note_on_c, 7, 69, 96
9, 166400, Note_off_c, 7, 78, 0
9, 166400, Note_on_c, 7, 76, 96
9, 166400, Note_off_c, 7, 74, 0
9, 166400, Note_on_c, 7, 73, 96
9, 166400, Note_off_c, 7, 69, 0
9, 166400, Note_on_c, 7, 57, 96
9, 166912, Note_off_c, 7, 76, 0
9, 166912, Note_off_c, 7, 73, 0
9, 166912, Note_off_c, 7, 57, 0
9, 166912, Note_on_c, 7, 59, 96
9, 167168, Note_on_c, 7, 68, 96
9, 167168, Note_on_c, 7, 68, 96
9, 167424, Note_off_c, 7, 68, 0
9, 167424, Note_on_c, 7, 69, 96
9, 167424, Note_off_c, 7, 68, 0
9, 167424, Note_on_c, 7, 69, 96
9, 167424, Note_off_c, 7, 59, 0
9, 167424, Note_on_c, 7, 64, 96
9, 167680, Note_off_c, 7, 69, 0
9, 167680, Note_on_c, 7, 71, 96
9, 167680, Note_off_c, 7, 69, 0
9, 167680, Note_on_c, 7, 71, 96
9, 167936, Note_off_c, 7, 71, 0
9, 167936, Note_off_c, 7, 71, 0
9, 167936, Note_off_c, 7, 64, 0
9, 167936, Note_on_c, 7, 73, 96
9, 167936, Note_on_c, 7, 73, 96
9, 167936, Note_on_c, 7, 64, 96
9, 168192, Note_off_c, 7, 73, 0
9, 168192, Note_on_c, 7, 69, 96
9, 168192, Note_off_c, 7, 73, 0
9, 168192, Note_on_c, 7, 69, 96
9, 168448, Note_off_c, 7, 69, 0
9, 168448, Note_on_c, 7, 73, 96
9, 168448, Note_off_c, 7, 69, 0
9, 168448, Note_on_c, 7, 73, 96
9, 168448, Note_off_c, 7, 64, 0
9, 168448, Note_on_c, 7, 69, 96
9, 168704, Note_off_c, 7, 73, 0
9, 168704, Note_on_c, 7, 76, 96
9, 168704, Note_off_c, 7, 73, 0
9, 168704, Note_on_c, 7, 76, 96
9, 168960, Note_off_c, 7, 76, 0
9, 168960, Note_on_c, 7, 81, 96
9, 168960, Note_off_c, 7, 76, 0
9, 168960, Note_on_c, 7, 81, 96
9, 168960, Note_off_c, 7, 69, 0
9, 168960, Note_on_c, 7, 62, 96
9, 169216, Note_off_c, 7, 81, 0
9, 169216, Note_on_c, 7, 66, 96
9, 169216, Note_off_c, 7, 81, 0
9, 169216, Note_on_c, 7, 66, 96
9, 169472, Note_off_c, 7, 66, 0
9, 169472, Note_on_c, 7, 67, 96
9, 169472, Note_off_c, 7, 66, 0
9, 169472, Note_on_c, 7, 67, 96
9, 169472, Note_off_c, 7, 62, 0
9, 169472, Note_on_c, 7, 62, 96
9, 169728, Note_off_c, 7, 67, 0
9, 169728, Note_on_c, 7, 69, 96
9, 169728, Note_off_c, 7, 67, 0
9, 169728, Note_on_c, 7, 69, 96
9, 169984, Note_off_c, 7, 69, 0
9, 169984, Note_on_c, 7, 71, 96
9, 169984, Note_off_c, 7, 69, 0
9, 169984, Note_on_c, 7, 71, 96
9, 169984, Note_off_c, 7, 62, 0
9, 169984, Note_on_c, 7, 62, 96
9, 170240, Note_off_c, 7, 71, 0
9, 170240, Note_on_c, 7, 67, 96
9, 170240, Note_off_c, 7, 71, 0
9, 170240, Note_on_c, 7, 67, 96
9, 170496, Note_off_c, 7, 67, 0
9, 170496, Note_on_c, 7, 71, 96
9, 170496, Note_off_c, 7, 67, 0
9, 170496, Note_on_c, 7, 71, 96
9, 170496, Note_off_c, 7, 62, 0
9, 170496, Note_on_c, 7, 67, 96
9, 170752, Note_off_c, 7, 71, 0
9, 170752, Note_on_c, 7, 74, 96
9, 170752, Note_off_c, 7, 71, 0
9, 170752, Note_on_c, 7, 74, 96
9, 171008, Note_off_c, 7, 74, 0
9, 171008, Note_on_c, 7, 79, 96
9, 171008, Note_off_c, 7, 74, 0
9, 171008, Note_on_c, 7, 79, 96
9, 171008, Note_off_c, 7, 67, 0
9, 171008, Note_on_c, 7, 67, 96
9, 171520, Note_off_c, 7, 79, 0
9, 171520, Note_off_c, 7, 79, 0
9, 171520, Note_off_c, 7, 67, 0
9, 171520, Note_on_c, 7, 64, 96
9, 172032, Note_off_c, 7, 64, 0
9, 172032, Note_on_c, 7, 59, 96
9, 172544, Note_off_c, 7, 59, 0
9, 174592, Note_on_c, 7, 83, 96
9, 174592, Note_on_c, 7, 78, 96
9, 174592, Note_on_c, 7, 74, 96
9, 174848, Note_off_c, 7, 83, 0
9, 174848, Note_on_c, 7, 81, 96
9, 174848, Note_off_c, 7, 78, 0
9, 174848, Note_on_c, 7, 76, 96
9, 174848, Note_off_c, 7, 74, 0
9, 174848, Note_on_c, 7, 69, 96
9, 175104, Note_off_c, 7, 81, 0
9, 175104, Note_on_c, 7, 83, 96
9, 175104, Note_off_c, 7, 76, 0
9, 175104, Note_on_c, 7, 78, 96
9, 175104, Note_off_c, 7, 69, 0
9, 175104, Note_on_c, 7, 66, 96
9, 175616, Note_off_c, 7, 83, 0
9, 175616, Note_off_c, 7, 78, 0
9, 175616, Note_off_c, 7, 66, 0
9, 177664, Note_on_c, 7, 74, 96
9, 177664, Note_on_c, 7, 69, 96
9, 177664, Note_on_c, 7, 71, 96
9, 178176, Note_off_c, 7, 74, 0
9, 178176, Note_on_c, 7, 76, 96
9, 178176, Note_off_c, 7, 69, 0
9, 178176, Note_on_c, 7, 69, 96
9, 178176, Note_off_c, 7, 71, 0
9, 178176, Note_on_c, 7, 64, 96
9, 178688, Note_off_c, 7, 76, 0
9, 178688, Note_on_c, 7, 81, 96
9, 178688, Note_off_c, 7, 69, 0
9, 178688, Note_on_c, 7, 76, 96
9, 178688, Note_off_c, 7, 64, 0
9, 178688, Note_on_c, 7, 57, 96
9, 178944, Note_off_c, 7, 81, 0
9, 178944, Note_on_c, 7, 79, 96
9, 178944, Note_off_c, 7, 76, 0
9, 178944, Note_on_c, 7, 74, 96
9, 178944, Note_off_c, 7, 57, 0
9, 178944, Note_on_c, 7, 59, 96
9, 179200, Note_off_c, 7, 79, 0
9, 179200, Note_on_c, 7, 81, 96
9, 179200, Note_off_c, 7, 74, 0
9, 179200, Note_on_c, 7, 76, 96
9, 179200, Note_off_c, 7, 59, 0
9, 179200, Note_on_c, 7, 57, 96
9, 179712, Note_off_c, 7, 81, 0
9, 179712, Note_off_c, 7, 76, 0
9, 179712, Note_off_c, 7, 57, 0
9, 180736, Note_on_c, 7, 74, 96
9, 180736, Note_on_c, 7, 71, 96
9, 180736, Note_on_c, 7, 66, 96
9, 181248, Note_off_c, 7, 74, 0
9, 181248, Note_on_c, 7, 74, 96
9, 181248, Note_off_c, 7, 71, 0
9, 181248, Note_on_c, 7, 69, 96
9, 181248, Note_off_c, 7, 66, 0
9, 181248, Note_on_c, 7, 66, 96
9, 181760, Note_off_c, 7, 74, 0
9, 181760, Note_on_c, 7, 74, 96
9, 181760, Note_off_c, 7, 69, 0
9, 181760, Note_on_c, 7, 69, 96
9, 181760, Note_off_c, 7, 66, 0
9, 181760, Note_on_c, 7, 66, 96
9, 182272, Note_off_c, 7, 74, 0
9, 182272, Note_off_c, 7, 69, 0
9, 182272, Note_off_c, 7, 66, 0
9, 182784, Note_on_c, 7, 74, 96
9, 182784, Note_on_c, 7, 67, 96
9, 182784, Note_on_c, 7, 59, 96
9, 183296, Note_off_c, 7, 74, 0
9, 183296, Note_on_c, 7, 74, 96
9, 183296, Note_off_c, 7, 67, 0
9, 183296, Note_on_c, 7, 69, 96
9, 183296, Note_off_c, 7, 59, 0
9, 183296, Note_on_c, 7, 66, 96
9, 183808, Note_off_c, 7, 74, 0
9, 183808, Note_on_c, 7, 74, 96
9, 183808, Note_off_c, 7, 69, 0
9, 183808, Note_on_c, 7, 71, 96
9, 183808, Note_off_c, 7, 66, 0
9, 183808, Note_on_c, 7, 66, 96
9, 184320, Note_off_c, 7, 74, 0
9, 184320, Note_off_c, 7, 71, 0
9, 184320, Note_off_c, 7, 66, 0
9, 184832, Note_on_c, 7, 76, 96
9, 184832, Note_on_c, 7, 71, 96
9, 184832, Note_on_c, 7, 64, 96
9, 185344, Note_off_c, 7, 76, 0
9, 185344, Note_on_c, 7, 76, 96
9, 185344, Note_off_c, 7, 71, 0
9, 185344, Note_on_c, 7, 71, 96
9, 185344, Note_off_c, 7, 64, 0
9, 185344, Note_on_c, 7, 64, 96
9, 185856, Note_off_c, 7, 76, 0
9, 185856, Note_on_c, 7, 76, 96
9, 185856, Note_off_c, 7, 71, 0
9, 185856, Note_on_c, 7, 73, 96
9, 185856, Note_off_c, 7, 64, 0
9, 185856, Note_on_c, 7, 58, 96
9, 186368, Note_off_c, 7, 76, 0
9, 186368, Note_off_c, 7, 73, 0
9, 186368, Note_off_c, 7, 58, 0
9, 186880, Note_on_c, 7, 76, 96
9, 186880, Note_on_c, 7, 73, 96
9, 186880, Note_on_c, 7, 66, 96
9, 187392, Note_off_c, 7, 76, 0
9, 187392, Note_on_c, 7, 76, 96
9, 187392, Note_off_c, 7, 73, 0
9, 187392, Note_on_c, 7, 70, 96
9, 187392, Note_off_c, 7, 66, 0
9, 187392, Note_on_c, 7, 61, 96
9, 187904, Note_off_c, 7, 76, 0
9, 187904, Note_on_c, 7, 76, 96
9, 187904, Note_off_c, 7, 70, 0
9, 187904, Note_on_c, 7, 70, 96
9, 187904, Note_off_c, 7, 61, 0
9, 187904, Note_on_c, 7, 66, 96
9, 188416, Note_off_c, 7, 76, 0
9, 188416, Note_off_c, 7, 70, 0
9, 188416, Note_off_c, 7, 66, 0
9, 188416, Note_on_c, 7, 74, 96
9, 188416, Note_on_c, 7, 71, 96
9, 188416, Note_on_c, 7, 66, 96
9, 189440, Note_off_c, 7, 74, 0
9, 189440, Note_off_c, 7, 71, 0
9, 189440, Note_off_c, 7, 66, 0
9, 189696, Note_on_c, 7, 66, 96
9, 189952, Note_off_c, 7, 66, 0
9, 189952, Note_on_c, 7, 68, 96
9, 190208, Note_off_c, 7, 68, 0
9, 190208, Note_on_c, 7, 70, 96
9, 190464, Note_off_c, 7, 70, 0
9, 190464, Note_on_c, 7, 71, 96
9, 190720, Note_off_c, 7, 71, 0
9, 190720, Note_on_c, 7, 66, 96
9, 190720, Note_on_c, 7, 66, 96
9, 190976, Note_off_c, 7, 66, 0
9, 190976, Note_on_c, 7, 71, 96
9, 190976, Note_off_c, 7, 66, 0
9, 190976, Note_on_c, 7, 68, 96
9, 191232, Note_off_c, 7, 71, 0
9, 191232, Note_on_c, 7, 73, 96
9, 191232, Note_off_c, 7, 68, 0
9, 191232, Note_on_c, 7, 70, 96
9, 191488, Note_off_c, 7, 73, 0
9, 191488, Note_on_c, 7, 74, 96
9, 191488, Note_off_c, 7, 70, 0
9, 191488, Note_on_c, 7, 71, 96
9, 191744, Note_off_c, 7, 74, 0
9, 191744, Note_on_c, 7, 71, 96
9, 191744, Note_off_c, 7, 71, 0
9, 191744, Note_on_c, 7, 66, 96
9, 192000, Note_off_c, 7, 71, 0
9, 192000, Note_on_c, 7, 74, 96
9, 192000, Note_off_c, 7, 66, 0
9, 192000, Note_on_c, 7, 71, 96
9, 192256, Note_off_c, 7, 74, 0
9, 192256, Note_on_c, 7, 76, 96
9, 192256, Note_off_c, 7, 71, 0
9, 192256, Note_on_c, 7, 73, 96
9, 192512, Note_off_c, 7, 76, 0
9, 192512, Note_off_c, 7, 73, 0
9, 192512, Note_on_c, 7, 78, 96
9, 192512, Note_on_c, 7, 74, 96
9, 193024, Note_off_c, 7, 78, 0
9, 193024, Note_on_c, 7, 78, 96
9, 193024, Note_off_c, 7, 74, 0
9, 193024, Note_on_c, 7, 74, 96
9, 193024, Note_on_c, 7, 59, 96
9, 193536, Note_off_c, 7, 78, 0
9, 193536, Note_on_c, 7, 76, 96
9, 193536, Note_off_c, 7, 74, 0
9, 193536, Note_on_c, 7, 73, 96
9, 193536, Note_off_c, 7, 59, 0
9, 193536, Note_on_c, 7, 54, 96
9, 194048, Note_off_c, 7, 76, 0
9, 194048, Note_on_c, 7, 74, 96
9, 194048, Note_off_c, 7, 73, 0
9, 194048, Note_on_c, 7, 71, 96
9, 194048, Note_off_c, 7, 54, 0
9, 194048, Note_on_c, 7, 66, 96
9, 194560, Note_off_c, 7, 74, 0
9, 194560, Note_on_c, 7, 74, 96
9, 194560, Note_off_c, 7, 71, 0
9, 194560, Note_on_c, 7, 71, 96
9, 194560, Note_off_c, 7, 66, 0
9, 194560, Note_on_c, 7, 66, 96
9, 195072, Note_off_c, 7, 74, 0
9, 195072, Note_on_c, 7, 73, 96
9, 195072, Note_off_c, 7, 71, 0
9, 195072, Note_on_c, 7, 70, 96
9, 195072, Note_off_c, 7, 66, 0
9, 195072, Note_on_c, 7, 54, 96
9, 195584, Note_off_c, 7, 73, 0
9, 195584, Note_off_c, 7, 70, 0
9, 195584, Note_off_c, 7, 54, 0
9, 195840, Note_on_c, 7, 79, 96
9, 195840, Note_on_c, 7, 79, 96
9, 196096, Note_off_c, 7, 79, 0
9, 196096, Note_on_c, 7, 78, 96
9, 196096, Note_off_c, 7, 79, 0
9, 196096, Note_on_c, 7, 78, 96
9, 196352, Note_off_c, 7, 78, 0
9, 196352, Note_on_c, 7, 76, 96
9, 196352, Note_off_c, 7, 78, 0
9, 196352, Note_on_c, 7, 76, 96
9, 196608, Note_off_c, 7, 76, 0
9, 196608, Note_off_c, 7, 76, 0
9, 196608, Note_on_c, 7, 74, 96
9, 196608, Note_on_c, 7, 74, 96
9, 196864, Note_off_c, 7, 74, 0
9, 196864, Note_on_c, 7, 74, 96
9, 196864, Note_off_c, 7, 74, 0
9, 196864, Note_on_c, 7, 74, 96
9, 197120, Note_off_c, 7, 74, 0
9, 197120, Note_on_c, 7, 76, 96
9, 197120, Note_off_c, 7, 74, 0
9, 197120, Note_on_c, 7, 76, 96
9, 197376, Note_off_c, 7, 76, 0
9, 197376, Note_on_c, 7, 78, 96
9, 197376, Note_off_c, 7, 76, 0
9, 197376, Note_on_c, 7, 78, 96
9, 197632, Note_off_c, 7, 78, 0
9, 197632, Note_on_c, 7, 74, 96
9, 197632, Note_off_c, 7, 78, 0
9, 197632, Note_on_c, 7, 74, 96
9, 197888, Note_off_c, 7, 74, 0
9, 197888, Note_on_c, 7, 74, 96
9, 197888, Note_off_c, 7, 74, 0
9, 197888, Note_on_c, 7, 74, 96
9, 198144, Note_off_c, 7, 74, 0
9, 198144, Note_on_c, 7, 76, 96
9, 198144, Note_off_c, 7, 74, 0
9, 198144, Note_on_c, 7, 76, 96
9, 198400, Note_off_c, 7, 76, 0
9, 198400, Note_on_c, 7, 78, 96
9, 198400, Note_off_c, 7, 76, 0
9, 198400, Note_on_c, 7, 78, 96
9, 198656, Note_off_c, 7, 78, 0
9, 198656, Note_on_c, 7, 76, 96
9, 198656, Note_off_c, 7, 78, 0
9, 198656, Note_on_c, 7, 76, 96
9, 199168, Note_off_c, 7, 76, 0
9, 199168, Note_on_c, 7, 83, 96
9, 199168, Note_off_c, 7, 76, 0
9, 199168, Note_on_c, 7, 83, 96
9, 199168, Note_on_c, 7, 59, 96
9, 199424, Note_off_c, 7, 59, 0
9, 199424, Note_on_c, 7, 61, 96
9, 199680, Note_off_c, 7, 83, 0
9, 199680, Note_off_c, 7, 83, 0
9, 199680, Note_off_c, 7, 61, 0
9, 199680, Note_on_c, 7, 59, 96
9, 199936, Note_on_c, 7, 78, 96
9, 199936, Note_on_c, 7, 78, 96
9, 200192, Note_off_c, 7, 78, 0
9, 200192, Note_on_c, 7, 76, 96
9, 200192, Note_off_c, 7, 78, 0
9, 200192, Note_on_c, 7, 76, 96
9, 200192, Note_off_c, 7, 59, 0
9, 200192, Note_on_c, 7, 68, 96
9, 200448, Note_off_c, 7, 76, 0
9, 200448, Note_on_c, 7, 74, 96
9, 200448, Note_off_c, 7, 76, 0
9, 200448, Note_on_c, 7, 74, 96
9, 200704, Note_off_c, 7, 74, 0
9, 200704, Note_off_c, 7, 74, 0
9, 200704, Note_off_c, 7, 68, 0
9, 200704, Note_on_c, 7, 73, 96
9, 200704, Note_on_c, 7, 73, 96
9, 200704, Note_on_c, 7, 64, 96
9, 200960, Note_off_c, 7, 73, 0
9, 200960, Note_on_c, 7, 73, 96
9, 200960, Note_off_c, 7, 73, 0
9, 200960, Note_on_c, 7, 73, 96
9, 201216, Note_off_c, 7, 73, 0
9, 201216, Note_on_c, 7, 74, 96
9, 201216, Note_off_c, 7, 73, 0
9, 201216, Note_on_c, 7, 74, 96
9, 201216, Note_off_c, 7, 64, 0
9, 201216, Note_on_c, 7, 64, 96
9, 201472, Note_off_c, 7, 74, 0
9, 201472, Note_on_c, 7, 76, 96
9, 201472, Note_off_c, 7, 74, 0
9, 201472, Note_on_c, 7, 76, 96
9, 201728, Note_off_c, 7, 76, 0
9, 201728, Note_on_c, 7, 73, 96
9, 201728, Note_off_c, 7, 76, 0
9, 201728, Note_on_c, 7, 73, 96
9, 201728, Note_off_c, 7, 64, 0
9, 201728, Note_on_c, 7, 57, 96
9, 201984, Note_off_c, 7, 73, 0
9, 201984, Note_on_c, 7, 73, 96
9, 201984, Note_off_c, 7, 73, 0
9, 201984, Note_on_c, 7, 73, 96
9, 202240, Note_off_c, 7, 73, 0
9, 202240, Note_on_c, 7, 74, 96
9, 202240, Note_off_c, 7, 73, 0
9, 202240, Note_on_c, 7, 74, 96
9, 202240, Note_off_c, 7, 57, 0
9, 202240, Note_on_c, 7, 59, 96
9, 202496, Note_off_c, 7, 74, 0
9, 202496, Note_on_c, 7, 76, 96
9, 202496, Note_off_c, 7, 74, 0
9, 202496, Note_on_c, 7, 76, 96
9, 202752, Note_off_c, 7, 76, 0
9, 202752, Note_on_c, 7, 74, 96
9, 202752, Note_off_c, 7, 76, 0
9, 202752, Note_on_c, 7, 74, 96
9, 202752, Note_off_c, 7, 59, 0
9, 202752, Note_on_c, 7, 66, 96
9, 203264, Note_off_c, 7, 74, 0
9, 203264, Note_on_c, 7, 81, 96
9, 203264, Note_off_c, 7, 74, 0
9, 203264, Note_on_c, 7, 81, 96
9, 203264, Note_off_c, 7, 66, 0
9, 203264, Note_on_c, 7, 62, 96
9, 203776, Note_off_c, 7, 81, 0
9, 203776, Note_off_c, 7, 81, 0
9, 203776, Note_off_c, 7, 62, 0
9, 203776, Note_on_c, 7, 69, 96
9, 204032, Note_on_c, 7, 73, 96
9, 204032, Note_on_c, 7, 73, 96
9, 204288, Note_off_c, 7, 73, 0
9, 204288, Note_on_c, 7, 71, 96
9, 204288, Note_off_c, 7, 73, 0
9, 204288, Note_on_c, 7, 71, 96
9, 204288, Note_off_c, 7, 69, 0
9, 204288, Note_on_c, 7, 64, 96
9, 204544, Note_off_c, 7, 71, 0
9, 204544, Note_on_c, 7, 69, 96
9, 204544, Note_off_c, 7, 71, 0
9, 204544, Note_on_c, 7, 69, 96
9, 204800, Note_off_c, 7, 69, 0
9, 204800, Note_off_c, 7, 69, 0
9, 204800, Note_off_c, 7, 64, 0
9, 204800, Note_on_c, 7, 71, 96
9, 204800, Note_on_c, 7, 71, 96
9, 204800, Note_on_c, 7, 66, 96
9, 205056, Note_off_c, 7, 71, 0
9, 205056, Note_on_c, 7, 81, 96
9, 205056, Note_off_c, 7, 71, 0
9, 205056, Note_on_c, 7, 81, 96
9, 205312, Note_off_c, 7, 81, 0
9, 205312, Note_on_c, 7, 80, 96
9, 205312, Note_off_c, 7, 81, 0
9, 205312, Note_on_c, 7, 80, 96
9, 205312, Note_off_c, 7, 66, 0
9, 205312, Note_on_c, 7, 71, 96
9, 205568, Note_off_c, 7, 80, 0
9, 205568, Note_on_c, 7, 78, 96
9, 205568, Note_off_c, 7, 80, 0
9, 205568, Note_on_c, 7, 78, 96
9, 205824, Note_off_c, 7, 78, 0
9, 205824, Note_on_c, 7, 76, 96
9, 205824, Note_off_c, 7, 78, 0
9, 205824, Note_on_c, 7, 76, 96
9, 205824, Note_off_c, 7, 71, 0
9, 205824, Note_on_c, 7, 71, 96
9, 206080, Note_off_c, 7, 76, 0
9, 206080, Note_on_c, 7, 74, 96
9, 206080, Note_off_c, 7, 76, 0
9, 206080, Note_on_c, 7, 74, 96
9, 206336, Note_off_c, 7, 74, 0
9, 206336, Note_on_c, 7, 73, 96
9, 206336, Note_off_c, 7, 74, 0
9, 206336, Note_on_c, 7, 73, 96
9, 206336, Note_off_c, 7, 71, 0
9, 206336, Note_on_c, 7, 68, 96
9, 206592, Note_off_c, 7, 73, 0
9, 206592, Note_on_c, 7, 71, 96
9, 206592, Note_off_c, 7, 73, 0
9, 206592, Note_on_c, 7, 71, 96
9, 206848, Note_off_c, 7, 71, 0
9, 206848, Note_on_c, 7, 69, 96
9, 206848, Note_off_c, 7, 71, 0
9, 206848, Note_on_c, 7, 69, 96
9, 206848, Note_off_c, 7, 68, 0
9, 206848, Note_on_c, 7, 64, 96
9, 207872, Note_off_c, 7, 69, 0
9, 207872, Note_off_c, 7, 69, 0
9, 207872, Note_off_c, 7, 64, 0
9, 211456, Note_on_c, 7, 85, 96
9, 211456, Note_on_c, 7, 76, 96
9, 211456, Note_on_c, 7, 57, 96
9, 211968, Note_off_c, 7, 85, 0
9, 211968, Note_on_c, 7, 83, 96
9, 211968, Note_off_c, 7, 76, 0
9, 211968, Note_on_c, 7, 74, 96
9, 211968, Note_off_c, 7, 57, 0
9, 211968, Note_on_c, 7, 52, 96
9, 212480, Note_off_c, 7, 83, 0
9, 212480, Note_on_c, 7, 81, 96
9, 212480, Note_off_c, 7, 74, 0
9, 212480, Note_on_c, 7, 73, 96
9, 212480, Note_off_c, 7, 52, 0
9, 212480, Note_on_c, 7, 64, 96
9, 212992, Note_off_c, 7, 81, 0
9, 212992, Note_off_c, 7, 73, 0
9, 212992, Note_off_c, 7, 64, 0
9, 212992, Note_on_c, 7, 81, 96
9, 212992, Note_on_c, 7, 73, 96
9, 212992, Note_on_c, 7, 64, 96
9, 213504, Note_off_c, 7, 81, 0
9, 213504, Note_on_c, 7, 80, 96
9, 213504, Note_off_c, 7, 73, 0
9, 213504, Note_on_c, 7, 71, 96
9, 213504, Note_off_c, 7, 64, 0
9, 213504, Note_on_c, 7, 52, 96
9, 214016, Note_off_c, 7, 80, 0
9, 214016, Note_off_c, 7, 71, 0
9, 214016, Note_off_c, 7, 52, 0
9, 214528, Note_on_c, 7, 83, 96
9, 214528, Note_on_c, 7, 80, 96
9, 214528, Note_on_c, 7, 61, 96
9, 215040, Note_off_c, 7, 83, 0
9, 215040, Note_on_c, 7, 83, 96
9, 215040, Note_off_c, 7, 80, 0
9, 215040, Note_on_c, 7, 78, 96
9, 215040, Note_off_c, 7, 61, 0
9, 215040, Note_on_c, 7, 61, 96
9, 215552, Note_off_c, 7, 83, 0
9, 215552, Note_on_c, 7, 81, 96
9, 215552, Note_off_c, 7, 78, 0
9, 215552, Note_on_c, 7, 73, 96
9, 215552, Note_off_c, 7, 61, 0
9, 215552, Note_on_c, 7, 66, 96
9, 216064, Note_off_c, 7, 81, 0
9, 216064, Note_off_c, 7, 73, 0
9, 216064, Note_off_c, 7, 66, 0
9, 216320, Note_on_c, 7, 73, 96
9, 216576, Note_off_c, 7, 73, 0
9, 216576, Note_on_c, 7, 75, 96
9, 216832, Note_off_c, 7, 75, 0
9, 216832, Note_on_c, 7, 77, 96
9, 217088, Note_off_c, 7, 77, 0
9, 217088, Note_on_c, 7, 78, 96
9, 217344, Note_off_c, 7, 78, 0
9, 217344, Note_on_c, 7, 73, 96
9, 217344, Note_on_c, 7, 73, 96
9, 217600, Note_off_c, 7, 73, 0
9, 217600, Note_on_c, 7, 78, 96
9, 217600, Note_off_c, 7, 73, 0
9, 217600, Note_on_c, 7, 75, 96
9, 217856, Note_off_c, 7, 78, 0
9, 217856, Note_on_c, 7, 80, 96
9, 217856, Note_off_c, 7, 75, 0
9, 217856, Note_on_c, 7, 77, 96
9, 218112, Note_off_c, 7, 80, 0
9, 218112, Note_on_c, 7, 81, 96
9, 218112, Note_off_c, 7, 77, 0
9, 218112, Note_on_c, 7, 78, 96
9, 218368, Note_off_c, 7, 81, 0
9, 218368, Note_on_c, 7, 78, 96
9, 218368, Note_off_c, 7, 78, 0
9, 218368, Note_on_c, 7, 73, 96
9, 218624, Note_off_c, 7, 78, 0
9, 218624, Note_on_c, 7, 81, 96
9, 218624, Note_off_c, 7, 73, 0
9, 218624, Note_on_c, 7, 78, 96
9, 218880, Note_off_c, 7, 81, 0
9, 218880, Note_on_c, 7, 83, 96
9, 218880, Note_off_c, 7, 78, 0
9, 218880, Note_on_c, 7, 80, 96
9, 219136, Note_off_c, 7, 83, 0
9, 219136, Note_on_c, 7, 85, 96
9, 219136, Note_off_c, 7, 80, 0
9, 219136, Note_on_c, 7, 82, 96
9, 219648, Note_off_c, 7, 85, 0
9, 219648, Note_on_c, 7, 79, 96
9, 219648, Note_off_c, 7, 82, 0
9, 219648, Note_on_c, 7, 76, 96
9, 219648, Note_on_c, 7, 70, 96
9, 219904, Note_off_c, 7, 70, 0
9, 219904, Note_on_c, 7, 68, 96
9, 220160, Note_off_c, 7, 79, 0
9, 220160, Note_on_c, 7, 78, 96
9, 220160, Note_off_c, 7, 76, 0
9, 220160, Note_on_c, 7, 74, 96
9, 220160, Note_off_c, 7, 68, 0
9, 220160, Note_on_c, 7, 70, 96
9, 220416, Note_off_c, 7, 70, 0
9, 220416, Note_on_c, 7, 71, 96
9, 220672, Note_off_c, 7, 78, 0
9, 220672, Note_on_c, 7, 76, 96
9, 220672, Note_off_c, 7, 74, 0
9, 220672, Note_on_c, 7, 73, 96
9, 220672, Note_off_c, 7, 71, 0
9, 220672, Note_on_c, 7, 73, 96
9, 220928, Note_off_c, 7, 73, 0
9, 220928, Note_on_c, 7, 70, 96
9, 221184, Note_off_c, 7, 76, 0
9, 221184, Note_off_c, 7, 73, 0
9, 221184, Note_off_c, 7, 70, 0
9, 221184, Note_on_c, 7, 74, 96
9, 221184, Note_on_c, 7, 71, 96
9, 221184, Note_on_c, 7, 66, 96
9, 221440, Note_off_c, 7, 74, 0
9, 221440, Note_on_c, 7, 71, 96
9, 221440, Note_off_c, 7, 71, 0
9, 221440, Note_on_c, 7, 66, 96
9, 221696, Note_off_c, 7, 71, 0
9, 221696, Note_on_c, 7, 74, 96
9, 221696, Note_off_c, 7, 66, 0
9, 221696, Note_on_c, 7, 71, 96
9, 221696, Note_off_c, 7, 66, 0
9, 221696, Note_on_c, 7, 54, 96
9, 221952, Note_off_c, 7, 74, 0
9, 221952, Note_on_c, 7, 76, 96
9, 221952, Note_off_c, 7, 71, 0
9, 221952, Note_on_c, 7, 73, 96
9, 222208, Note_off_c, 7, 76, 0
9, 222208, Note_on_c, 7, 78, 96
9, 222208, Note_off_c, 7, 73, 0
9, 222208, Note_on_c, 7, 74, 96
9, 222208, Note_off_c, 7, 54, 0
9, 222464, Note_off_c, 7, 78, 0
9, 222464, Note_on_c, 7, 71, 96
9, 222464, Note_off_c, 7, 74, 0
9, 222464, Note_on_c, 7, 66, 96
9, 222720, Note_off_c, 7, 71, 0
9, 222720, Note_on_c, 7, 74, 96
9, 222720, Note_off_c, 7, 66, 0
9, 222720, Note_on_c, 7, 71, 96
9, 222976, Note_off_c, 7, 74, 0
9, 222976, Note_on_c, 7, 78, 96
9, 222976, Note_off_c, 7, 71, 0
9, 222976, Note_on_c, 7, 73, 96
9, 223232, Note_off_c, 7, 78, 0
9, 223232, Note_on_c, 7, 83, 96
9, 223232, Note_off_c, 7, 73, 0
9, 223232, Note_on_c, 7, 74, 96
9, 223744, Note_off_c, 7, 83, 0
9, 223744, Note_on_c, 7, 78, 96
9, 223744, Note_off_c, 7, 74, 0
9, 223744, Note_on_c, 7, 74, 96
9, 223744, Note_on_c, 7, 68, 96
9, 224000, Note_off_c, 7, 68, 0
9, 224000, Note_on_c, 7, 66, 96
9, 224256, Note_off_c, 7, 78, 0
9, 224256, Note_on_c, 7, 76, 96
9, 224256, Note_off_c, 7, 74, 0
9, 224256, Note_on_c, 7, 73, 96
9, 224256, Note_off_c, 7, 66, 0
9, 224256, Note_on_c, 7, 68, 96
9, 224512, Note_off_c, 7, 68, 0
9, 224512, Note_on_c, 7, 69, 96
9, 224768, Note_off_c, 7, 76, 0
9, 224768, Note_on_c, 7, 74, 96
9, 224768, Note_off_c, 7, 73, 0
9, 224768, Note_on_c, 7, 71, 96
9, 224768, Note_off_c, 7, 69, 0
9, 224768, Note_on_c, 7, 71, 96
9, 225024, Note_off_c, 7, 71, 0
9, 225024, Note_on_c, 7, 68, 96
9, 225280, Note_off_c, 7, 74, 0
9, 225280, Note_off_c, 7, 71, 0
9, 225280, Note_off_c, 7, 68, 0
9, 225280, Note_on_c, 7, 73, 96
9, 225280, Note_on_c, 7, 69, 96
9, 225280, Note_on_c, 7, 64, 96
9, 225536, Note_off_c, 7, 73, 0
9, 225536, Note_on_c, 7, 69, 96
9, 225536, Note_off_c, 7, 69, 0
9, 225536, Note_on_c, 7, 64, 96
9, 225792, Note_off_c, 7, 69, 0
9, 225792, Note_on_c, 7, 73, 96
9, 225792, Note_off_c, 7, 64, 0
9, 225792, Note_on_c, 7, 69, 96
9, 225792, Note_off_c, 7, 64, 0
9, 225792, Note_on_c, 7, 52, 96
9, 226048, Note_off_c, 7, 73, 0
9, 226048, Note_on_c, 7, 74, 96
9, 226048, Note_off_c, 7, 69, 0
9, 226048, Note_on_c, 7, 71, 96
9, 226304, Note_off_c, 7, 74, 0
9, 226304, Note_on_c, 7, 76, 96
9, 226304, Note_off_c, 7, 71, 0
9, 226304, Note_on_c, 7, 73, 96
9, 226304, Note_off_c, 7, 52, 0
9, 226560, Note_off_c, 7, 76, 0
9, 226560, Note_on_c, 7, 69, 96
9, 226560, Note_off_c, 7, 73, 0
9, 226560, Note_on_c, 7, 64, 96
9, 226816, Note_off_c, 7, 69, 0
9, 226816, Note_on_c, 7, 73, 96
9, 226816, Note_off_c, 7, 64, 0
9, 226816, Note_on_c, 7, 69, 96
9, 227072, Note_off_c, 7, 73, 0
9, 227072, Note_on_c, 7, 76, 96
9, 227072, Note_off_c, 7, 69, 0
9, 227072, Note_on_c, 7, 71, 96
9, 227328, Note_off_c, 7, 76, 0
9, 227328, Note_on_c, 7, 81, 96
9, 227328, Note_off_c, 7, 71, 0
9, 227328, Note_on_c, 7, 72, 96
9, 227840, Note_off_c, 7, 81, 0
9, 227840, Note_on_c, 7, 76, 96
9, 227840, Note_off_c, 7, 72, 0
9, 227840, Note_on_c, 7, 72, 96
9, 227840, Note_on_c, 7, 66, 96
9, 228096, Note_off_c, 7, 66, 0
9, 228096, Note_on_c, 7, 64, 96
9, 228352, Note_off_c, 7, 76, 0
9, 228352, Note_on_c, 7, 74, 96
9, 228352, Note_off_c, 7, 72, 0
9, 228352, Note_on_c, 7, 71, 96
9, 228352, Note_off_c, 7, 64, 0
9, 228352, Note_on_c, 7, 66, 96
9, 228608, Note_off_c, 7, 66, 0
9, 228608, Note_on_c, 7, 67, 96
9, 228864, Note_off_c, 7, 74, 0
9, 228864, Note_on_c, 7, 72, 96
9, 228864, Note_off_c, 7, 71, 0
9, 228864, Note_on_c, 7, 69, 96
9, 228864, Note_off_c, 7, 67, 0
9, 228864, Note_on_c, 7, 69, 96
9, 229120, Note_off_c, 7, 69, 0
9, 229120, Note_on_c, 7, 66, 96
9, 229376, Note_off_c, 7, 72, 0
9, 229376, Note_off_c, 7, 69, 0
9, 229376, Note_off_c, 7, 66, 0
9, 229376, Note_on_c, 7, 71, 96
9, 229376, Note_on_c, 7, 67, 96
9, 229376, Note_on_c, 7, 67, 96
9, 229632, Note_off_c, 7, 71, 0
9, 229632, Note_on_c, 7, 67, 96
9, 229632, Note_off_c, 7, 67, 0
9, 229632, Note_on_c, 7, 64, 96
9, 229888, Note_off_c, 7, 67, 0
9, 229888, Note_on_c, 7, 71, 96
9, 229888, Note_off_c, 7, 64, 0
9, 229888, Note_on_c, 7, 71, 96
9, 229888, Note_off_c, 7, 67, 0
9, 229888, Note_on_c, 7, 55, 96
9, 230144, Note_off_c, 7, 71, 0
9, 230144, Note_on_c, 7, 73, 96
9, 230144, Note_off_c, 7, 71, 0
9, 230144, Note_on_c, 7, 73, 96
9, 230400, Note_off_c, 7, 73, 0
9, 230400, Note_on_c, 7, 74, 96
9, 230400, Note_off_c, 7, 73, 0
9, 230400, Note_on_c, 7, 74, 96
9, 230400, Note_off_c, 7, 55, 0
9, 230400, Note_on_c, 7, 57, 96
9, 230656, Note_off_c, 7, 74, 0
9, 230656, Note_on_c, 7, 79, 96
9, 230656, Note_off_c, 7, 74, 0
9, 230656, Note_on_c, 7, 79, 96
9, 230912, Note_off_c, 7, 79, 0
9, 230912, Note_on_c, 7, 78, 96
9, 230912, Note_off_c, 7, 79, 0
9, 230912, Note_on_c, 7, 78, 96
9, 230912, Note_off_c, 7, 57, 0
9, 230912, Note_on_c, 7, 50, 96
9, 231168, Note_off_c, 7, 78, 0
9, 231168, Note_on_c, 7, 76, 96
9, 231168, Note_off_c, 7, 78, 0
9, 231168, Note_on_c, 7, 76, 96
9, 231424, Note_off_c, 7, 76, 0
9, 231424, Note_on_c, 7, 74, 96
9, 231424, Note_off_c, 7, 76, 0
9, 231424, Note_on_c, 7, 74, 96
9, 231424, Note_off_c, 7, 50, 0
9, 231424, Note_on_c, 7, 57, 96
9, 231680, Note_off_c, 7, 74, 0
9, 231680, Note_on_c, 7, 78, 96
9, 231680, Note_off_c, 7, 74, 0
9, 231680, Note_on_c, 7, 78, 96
9, 231936, Note_off_c, 7, 78, 0
9, 231936, Note_on_c, 7, 76, 96
9, 231936, Note_off_c, 7, 78, 0
9, 231936, Note_on_c, 7, 76, 96
9, 231936, Note_off_c, 7, 57, 0
9, 231936, Note_on_c, 7, 59, 96
9, 232192, Note_off_c, 7, 76, 0
9, 232192, Note_on_c, 7, 74, 96
9, 232192, Note_off_c, 7, 76, 0
9, 232192, Note_on_c, 7, 74, 96
9, 232448, Note_off_c, 7, 74, 0
9, 232448, Note_on_c, 7, 69, 96
9, 232448, Note_off_c, 7, 74, 0
9, 232448, Note_on_c, 7, 69, 96
9, 232448, Note_off_c, 7, 59, 0
9, 232448, Note_on_c, 7, 61, 96
9, 232704, Note_off_c, 7, 69, 0
9, 232704, Note_on_c, 7, 76, 96
9, 232704, Note_off_c, 7, 69, 0
9, 232704, Note_on_c, 7, 76, 96
9, 232960, Note_off_c, 7, 76, 0
9, 232960, Note_on_c, 7, 74, 96
9, 232960, Note_off_c, 7, 76, 0
9, 232960, Note_on_c, 7, 74, 96
9, 232960, Note_off_c, 7, 61, 0
9, 232960, Note_on_c, 7, 64, 96
9, 233216, Note_off_c, 7, 74, 0
9, 233216, Note_on_c, 7, 73, 96
9, 233216, Note_off_c, 7, 74, 0
9, 233216, Note_on_c, 7, 73, 96
9, 233472, Note_off_c, 7, 73, 0
9, 233472, Note_off_c, 7, 73, 0
9, 233472, Note_off_c, 7, 64, 0
9, 233472, Note_on_c, 7, 62, 96
9, 233472, Note_on_c, 7, 71, 96
9, 233472, Note_on_c, 7, 66, 96
9, 233984, Note_off_c, 7, 62, 0
9, 233984, Note_on_c, 7, 69, 96
9, 233984, Note_off_c, 7, 71, 0
9, 233984, Note_on_c, 7, 67, 96
9, 233984, Note_off_c, 7, 66, 0
9, 233984, Note_on_c, 7, 62, 96
9, 234496, Note_off_c, 7, 69, 0
9, 234496, Note_on_c, 7, 69, 96
9, 234496, Note_off_c, 7, 67, 0
9, 234496, Note_on_c, 7, 67, 96
9, 234496, Note_off_c, 7, 62, 0
9, 234496, Note_on_c, 7, 62, 96
9, 235008, Note_off_c, 7, 69, 0
9, 235008, Note_on_c, 7, 66, 96
9, 235008, Note_off_c, 7, 67, 0
9, 235008, Note_on_c, 7, 64, 96
9, 235008, Note_off_c, 7, 62, 0
9, 235008, Note_on_c, 7, 69, 96
9, 235520, Note_off_c, 7, 66, 0
9, 235520, Note_on_c, 7, 66, 96
9, 235520, Note_off_c, 7, 64, 0
9, 235520, Note_on_c, 7, 64, 96
9, 235520, Note_off_c, 7, 69, 0
9, 235520, Note_on_c, 7, 69, 96
9, 236032, Note_off_c, 7, 66, 0
9, 236032, Note_on_c, 7, 62, 96
9, 236032, Note_off_c, 7, 64, 0
9, 236032, Note_on_c, 7, 57, 96
9, 236032, Note_off_c, 7, 69, 0
9, 236032, Note_on_c, 7, 66, 96
9, 236544, Note_off_c, 7, 62, 0
9, 236544, Note_on_c, 7, 62, 96
9, 236544, Note_off_c, 7, 57, 0
9, 236544, Note_on_c, 7, 57, 96
9, 236544, Note_off_c, 7, 66, 0
9, 236544, Note_on_c, 7, 66, 96
9, 237056, Note_off_c, 7, 62, 0
9, 237056, Note_on_c, 7, 57, 96
9, 237056, Note_off_c, 7, 57, 0
9, 237056, Note_on_c, 7, 62, 96
9, 237056, Note_off_c, 7, 66, 0
9, 237056, Note_on_c, 7, 62, 96
9, 237568, Note_off_c, 7, 57, 0
9, 237568, Note_off_c, 7, 62, 0
9, 237568, Note_off_c, 7, 62, 0
9, 237568, Note_on_c, 7, 57, 96
9, 237568, Note_on_c, 7, 62, 96
9, 237568, Note_on_c, 7, 62, 96
9, 238080, Note_off_c, 7, 57, 0
9, 238080, Note_on_c, 7, 81, 96
9, 238080, Note_off_c, 7, 62, 0
9, 238080, Note_on_c, 7, 78, 96
9, 238080, Note_off_c, 7, 62, 0
9, 238080, Note_on_c, 7, 62, 96
9, 238592, Note_off_c, 7, 81, 0
9, 238592, Note_on_c, 7, 79, 96
9, 238592, Note_off_c, 7, 78, 0
9, 238592, Note_on_c, 7, 76, 96
9, 238592, Note_off_c, 7, 62, 0
9, 238592, Note_on_c, 7, 57, 96
9, 239104, Note_off_c, 7, 79, 0
9, 239104, Note_on_c, 7, 78, 96
9, 239104, Note_off_c, 7, 76, 0
9, 239104, Note_on_c, 7, 74, 96
9, 239104, Note_off_c, 7, 57, 0
9, 239104, Note_on_c, 7, 69, 96
9, 239616, Note_off_c, 7, 78, 0
9, 239616, Note_on_c, 7, 78, 96
9, 239616, Note_off_c, 7, 74, 0
9, 239616, Note_on_c, 7, 74, 96
9, 239616, Note_off_c, 7, 69, 0
9, 239616, Note_on_c, 7, 69, 96
9, 240128, Note_off_c, 7, 78, 0
9, 240128, Note_on_c, 7, 76, 96
9, 240128, Note_off_c, 7, 74, 0
9, 240128, Note_on_c, 7, 73, 96
9, 240128, Note_off_c, 7, 69, 0
9, 240128, Note_on_c, 7, 57, 96
9, 240640, Note_off_c, 7, 76, 0
9, 240640, Note_off_c, 7, 73, 0
9, 240640, Note_off_c, 7, 57, 0
9, 246272, Note_on_c, 7, 81, 96
9, 246272, Note_on_c, 7, 78, 96
9, 246272, Note_on_c, 7, 62, 96
9, 246784, Note_off_c, 7, 81, 0
9, 246784, Note_on_c, 7, 79, 96
9, 246784, Note_off_c, 7, 78, 0
9, 246784, Note_on_c, 7, 76, 96
9, 246784, Note_off_c, 7, 62, 0
9, 246784, Note_on_c, 7, 57, 96
9, 247296, Note_off_c, 7, 79, 0
9, 247296, Note_on_c, 7, 78, 96
9, 247296, Note_off_c, 7, 76, 0
9, 247296, Note_on_c, 7, 74, 96
9, 247296, Note_off_c, 7, 57, 0
9, 247296, Note_on_c, 7, 69, 96
9, 247808, Note_off_c, 7, 78, 0
9, 247808, Note_on_c, 7, 78, 96
9, 247808, Note_off_c, 7, 74, 0
9, 247808, Note_on_c, 7, 74, 96
9, 247808, Note_off_c, 7, 69, 0
9, 247808, Note_on_c, 7, 69, 96
9, 248320, Note_off_c, 7, 78, 0
9, 248320, Note_on_c, 7, 76, 96
9, 248320, Note_off_c, 7, 74, 0
9, 248320, Note_on_c, 7, 73, 96
9, 248320, Note_off_c, 7, 69, 0
9, 248320, Note_on_c, 7, 57, 96
9, 248832, Note_off_c, 7, 76, 0
9, 248832, Note_off_c, 7, 73, 0
9, 248832, Note_off_c, 7, 57, 0
9, 251392, Note_on_c, 7, 76, 96
9, 251392, Note_on_c, 7, 76, 96
9, 251392, Note_on_c, 7, 69, 96
9, 251904, Note_off_c, 7, 76, 0
9, 251904, Note_on_c, 7, 78, 96
9, 251904, Note_off_c, 7, 76, 0
9, 251904, Note_on_c, 7, 74, 96
9, 251904, Note_off_c, 7, 69, 0
9, 251904, Note_on_c, 7, 69, 96
9, 252416, Note_off_c, 7, 78, 0
9, 252416, Note_on_c, 7, 83, 96
9, 252416, Note_off_c, 7, 74, 0
9, 252416, Note_on_c, 7, 78, 96
9, 252416, Note_off_c, 7, 69, 0
9, 252416, Note_on_c, 7, 74, 96
9, 252672, Note_off_c, 7, 83, 0
9, 252672, Note_on_c, 7, 81, 96
9, 252672, Note_off_c, 7, 78, 0
9, 252672, Note_on_c, 7, 76, 96
9, 252672, Note_off_c, 7, 74, 0
9, 252672, Note_on_c, 7, 69, 96
9, 252928, Note_off_c, 7, 81, 0
9, 252928, Note_on_c, 7, 83, 96
9, 252928, Note_off_c, 7, 76, 0
9, 252928, Note_on_c, 7, 78, 96
9, 252928, Note_off_c, 7, 69, 0
9, 252928, Note_on_c, 7, 66, 96
9, 253440, Note_off_c, 7, 83, 0
9, 253440, Note_off_c, 7, 78, 0
9, 253440, Note_off_c, 7, 66, 0
9, 255488, Note_on_c, 7, 74, 96
9, 255488, Note_on_c, 7, 69, 96
9, 255488, Note_on_c, 7, 71, 96
9, 256000, Note_off_c, 7, 74, 0
9, 256000, Note_on_c, 7, 76, 96
9, 256000, Note_off_c, 7, 69, 0
9, 256000, Note_on_c, 7, 69, 96
9, 256000, Note_off_c, 7, 71, 0
9, 256000, Note_on_c, 7, 64, 96
9, 256512, Note_off_c, 7, 76, 0
9, 256512, Note_on_c, 7, 81, 96
9, 256512, Note_off_c, 7, 69, 0
9, 256512, Note_on_c, 7, 76, 96
9, 256512, Note_off_c, 7, 64, 0
9, 256512, Note_on_c, 7, 57, 96
9, 256768, Note_off_c, 7, 81, 0
9, 256768, Note_on_c, 7, 79, 96
9, 256768, Note_off_c, 7, 76, 0
9, 256768, Note_on_c, 7, 74, 96
9, 256768, Note_off_c, 7, 57, 0
9, 256768, Note_on_c, 7, 59, 96
9, 257024, Note_off_c, 7, 79, 0
9, 257024, Note_on_c, 7, 81, 96
9, 257024, Note_off_c, 7, 74, 0
9, 257024, Note_on_c, 7, 76, 96
9, 257024, Note_off_c, 7, 59, 0
9, 257024, Note_on_c, 7, 57, 96
9, 257536, Note_off_c, 7, 81, 0
9, 257536, Note_off_c, 7, 76, 0
9, 257536, Note_off_c, 7, 57, 0
9, 258048, Note_on_c, 7, 74, 96
9, 258048, Note_on_c, 7, 71, 96
9, 258048, Note_on_c, 7, 66, 96
9, 260096, Note_off_c, 7, 66, 0
9, 260096, Note_on_c, 7, 59, 96
9, 261120, Note_off_c, 7, 59, 0
9, 261120, Note_on_c, 7, 62, 96
9, 262144, Note_off_c, 7, 62, 0
9, 262144, Note_on_c, 7, 64, 96
9, 262656, Note_off_c, 7, 74, 0
9, 262656, Note_on_c, 7, 64, 96
9, 262656, Note_off_c, 7, 71, 0
9, 262656, Note_on_c, 7, 83, 96
9, 262656, Note_off_c, 7, 64, 0
9, 262656, Note_on_c, 7, 59, 96
9, 262912, Note_off_c, 7, 64, 0
9, 262912, Note_on_c, 7, 66, 96
9, 263168, Note_off_c, 7, 66, 0
9, 263168, Note_on_c, 7, 67, 96
9, 263168, Note_off_c, 7, 83, 0
9, 263168, Note_on_c, 7, 79, 96
9, 263168, Note_off_c, 7, 59, 0
9, 263168, Note_on_c, 7, 64, 96
9, 263424, Note_off_c, 7, 67, 0
9, 263424, Note_on_c, 7, 64, 96
9, 263680, Note_off_c, 7, 64, 0
9, 263680, Note_on_c, 7, 66, 96
9, 263680, Note_off_c, 7, 79, 0
9, 263680, Note_on_c, 7, 74, 96
9, 263680, Note_off_c, 7, 64, 0
9, 263680, Note_on_c, 7, 69, 96
9, 263936, Note_off_c, 7, 66, 0
9, 263936, Note_on_c, 7, 67, 96
9, 264192, Note_off_c, 7, 67, 0
9, 264192, Note_on_c, 7, 69, 96
9, 264192, Note_off_c, 7, 74, 0
9, 264192, Note_off_c, 7, 69, 0
9, 264448, Note_off_c, 7, 69, 0
9, 264448, Note_on_c, 7, 64, 96
9, 264704, Note_off_c, 7, 64, 0
9, 264704, Note_on_c, 7, 69, 96
9, 264704, Note_on_c, 7, 76, 96
9, 264704, Note_on_c, 7, 69, 96
9, 264960, Note_off_c, 7, 69, 0
9, 264960, Note_on_c, 7, 73, 96
9, 265216, Note_off_c, 7, 73, 0
9, 265216, Note_on_c, 7, 76, 96
9, 265216, Note_off_c, 7, 76, 0
9, 265216, Note_on_c, 7, 73, 96
9, 265216, Note_off_c, 7, 69, 0
9, 265216, Note_on_c, 7, 64, 96
9, 265472, Note_off_c, 7, 76, 0
9, 265472, Note_on_c, 7, 73, 96
9, 265728, Note_off_c, 7, 73, 0
9, 265728, Note_on_c, 7, 69, 96
9, 265728, Note_off_c, 7, 73, 0
9, 265728, Note_on_c, 7, 76, 96
9, 265728, Note_off_c, 7, 64, 0
9, 265728, Note_on_c, 7, 64, 96
9, 265984, Note_off_c, 7, 69, 0
9, 265984, Note_on_c, 7, 81, 96
9, 266240, Note_off_c, 7, 81, 0
9, 266240, Note_off_c, 7, 76, 0
9, 266240, Note_off_c, 7, 64, 0
9, 266240, Note_on_c, 7, 79, 96
9, 266240, Note_on_c, 7, 69, 96
9, 266240, Note_on_c, 7, 66, 96
9, 266496, Note_off_c, 7, 79, 0
9, 266496, Note_on_c, 7, 78, 96
9, 266752, Note_off_c, 7, 78, 0
9, 266752, Note_on_c, 7, 76, 96
9, 266752, Note_off_c, 7, 69, 0
9, 266752, Note_on_c, 7, 71, 96
9, 266752, Note_off_c, 7, 66, 0
9, 266752, Note_on_c, 7, 66, 96
9, 267008, Note_off_c, 7, 76, 0
9, 267008, Note_on_c, 7, 74, 96
9, 267264, Note_off_c, 7, 74, 0
9, 267264, Note_on_c, 7, 78, 96
9, 267264, Note_off_c, 7, 71, 0
9, 267264, Note_on_c, 7, 71, 96
9, 267264, Note_off_c, 7, 66, 0
9, 267264, Note_on_c, 7, 59, 96
9, 267776, Note_off_c, 7, 78, 0
9, 267776, Note_on_c, 7, 76, 96
9, 267776, Note_off_c, 7, 71, 0
9, 267776, Note_on_c, 7, 73, 96
9, 267776, Note_off_c, 7, 59, 0
9, 267776, Note_on_c, 7, 64, 96
9, 268288, Note_off_c, 7, 76, 0
9, 268288, Note_on_c, 7, 74, 96
9, 268288, Note_off_c, 7, 73, 0
9, 268288, Note_on_c, 7, 66, 96
9, 268288, Note_off_c, 7, 64, 0
9, 268288, Note_on_c, 7, 71, 96
9, 268800, Note_off_c, 7, 74, 0
9, 268800, Note_on_c, 7, 86, 96
9, 268800, Note_off_c, 7, 66, 0
9, 268800, Note_off_c, 7, 71, 0
9, 269056, Note_off_c, 7, 86, 0
9, 269056, Note_on_c, 7, 85, 96
9, 269312, Note_off_c, 7, 85, 0
9, 269312, Note_on_c, 7, 86, 96
9, 269824, Note_off_c, 7, 86, 0
9, 269824, Note_on_c, 7, 74, 96
9, 269824, Note_on_c, 7, 79, 96
9, 269824, Note_on_c, 7, 71, 96
9, 270336, Note_off_c, 7, 74, 0
9, 270336, Note_off_c, 7, 79, 0
9, 270336, Note_off_c, 7, 71, 0
9, 270336, Note_on_c, 7, 74, 96
9, 270336, Note_on_c, 7, 81, 96
9, 270336, Note_on_c, 7, 69, 96
9, 270848, Note_off_c, 7, 74, 0
9, 270848, Note_on_c, 7, 81, 96
9, 270848, Note_off_c, 7, 81, 0
9, 270848, Note_off_c, 7, 69, 0
9, 271104, Note_off_c, 7, 81, 0
9, 271104, Note_on_c, 7, 79, 96
9, 271360, Note_off_c, 7, 79, 0
9, 271360, Note_on_c, 7, 81, 96
9, 271872, Note_off_c, 7, 81, 0
9, 271872, Note_on_c, 7, 74, 96
9, 271872, Note_on_c, 7, 72, 96
9, 271872, Note_on_c, 7, 69, 96
9, 272384, Note_off_c, 7, 74, 0
9, 272384, Note_on_c, 7, 83, 96
9, 272384, Note_off_c, 7, 72, 0
9, 272384, Note_on_c, 7, 71, 96
9, 272384, Note_off_c, 7, 69, 0
9, 272384, Note_on_c, 7, 67, 96
9, 272896, Note_off_c, 7, 83, 0
9, 272896, Note_off_c, 7, 71, 0
9, 272896, Note_off_c, 7, 67, 0
9, 273408, Note_on_c, 7, 81, 96
9, 273408, Note_on_c, 7, 74, 96
9, 273408, Note_on_c, 7, 69, 96
9, 273920, Note_off_c, 7, 81, 0
9, 273920, Note_off_c, 7, 74, 0
9, 273920, Note_off_c, 7, 69, 0
9, 274432, Note_on_c, 7, 80, 96
9, 274432, Note_on_c, 7, 76, 96
9, 274432, Note_on_c, 7, 71, 96
9, 274944, Note_off_c, 7, 80, 0
9, 274944, Note_on_c, 7, 74, 96
9, 274944, Note_off_c, 7, 76, 0
9, 274944, Note_off_c, 7, 71, 0
9, 275200, Note_off_c, 7, 74, 0
9, 275200, Note_on_c, 7, 73, 96
9, 275456, Note_off_c, 7, 73, 0
9, 275456, Note_on_c, 7, 71, 96
9, 275456, Note_on_c, 7, 76, 96
9, 275456, Note_on_c, 7, 71, 96
9, 275968, Note_off_c, 7, 71, 0
9, 275968, Note_on_c, 7, 83, 96
9, 275968, Note_off_c, 7, 76, 0
9, 275968, Note_off_c, 7, 71, 0
9, 276480, Note_off_c, 7, 83, 0
9, 276480, Note_on_c, 7, 81, 96
9, 276480, Note_on_c, 7, 76, 96
9, 276480, Note_on_c, 7, 64, 96
9, 276992, Note_off_c, 7, 81, 0
9, 276992, Note_on_c, 7, 69, 96
9, 276992, Note_off_c, 7, 76, 0
9, 276992, Note_off_c, 7, 64, 0
9, 277248, Note_off_c, 7, 69, 0
9, 277248, Note_on_c, 7, 71, 96
9, 277504, Note_off_c, 7, 71, 0
9, 277504, Note_on_c, 7, 73, 96
9, 277504, Note_on_c, 7, 76, 96
9, 277504, Note_on_c, 7, 69, 96
9, 278016, Note_off_c, 7, 73, 0
9, 278016, Note_on_c, 7, 79, 96
9, 278016, Note_off_c, 7, 76, 0
9, 278016, Note_off_c, 7, 69, 0
9, 278528, Note_off_c, 7, 79, 0
9, 278528, Note_on_c, 7, 78, 96
9, 278528, Note_on_c, 7, 69, 96
9, 278528, Note_on_c, 7, 69, 96
9, 279040, Note_off_c, 7, 78, 0
9, 279040, Note_on_c, 7, 86, 96
9, 279040, Note_off_c, 7, 69, 0
9, 279040, Note_on_c, 7, 78, 96
9, 279040, Note_off_c, 7, 69, 0
9, 279040, Note_on_c, 7, 71, 96
9, 279552, Note_off_c, 7, 86, 0
9, 279552, Note_on_c, 7, 76, 96
9, 279552, Note_off_c, 7, 78, 0
9, 279552, Note_on_c, 7, 79, 96
9, 279552, Note_off_c, 7, 71, 0
9, 279552, Note_on_c, 7, 64, 96
9, 280064, Note_off_c, 7, 76, 0
9, 280064, Note_on_c, 7, 85, 96
9, 280064, Note_off_c, 7, 79, 0
9, 280064, Note_on_c, 7, 76, 96
9, 280064, Note_off_c, 7, 64, 0
9, 280064, Note_on_c, 7, 69, 96
9, 280576, Note_off_c, 7, 85, 0
9, 280576, Note_on_c, 7, 74, 96
9, 280576, Note_off_c, 7, 76, 0
9, 280576, Note_on_c, 7, 78, 96
9, 280576, Note_off_c, 7, 69, 0
9, 280576, Note_on_c, 7, 69, 96
9, 284672, Note_off_c, 7, 74, 0
9, 284672, Note_off_c, 7, 78, 0
9, 284672, Note_off_c, 7, 69, 0
9, 284672, End_track
0, 0, End_of_file
