0, 0, Header, 1, 4, 120
1, 0, Start_track
1, 0, Title_t, "untitled"
1, 0, Time_signature, 4, 2, 24, 8
1, 0, Key_signature, 0, "major"
1, 0, Tempo, 545455
1, 0, Marker_t, "tpinven1.pc"
1, 0, Marker_t, "Staff:0 "
1, 15, Tempo, 665336
1, 9465, Tempo, 661667
1, 9475, Tempo, 665336
1, 9480, Tempo, 669045
1, 9485, Tempo, 672797
1, 9490, Tempo, 676590
1, 9495, Tempo, 680426
1, 9500, Tempo, 684307
1, 9510, Tempo, 688231
1, 9515, Tempo, 692201
1, 9520, Tempo, 696217
1, 9525, Tempo, 700280
1, 9530, Tempo, 704391
1, 9535, Tempo, 708550
1, 9540, Tempo, 712758
1, 9550, Tempo, 717017
1, 9555, Tempo, 721327
1, 9560, Tempo, 725689
1, 9565, Tempo, 730105
1, 9570, Tempo, 734574
1, 9575, Tempo, 739098
1, 9580, Tempo, 743679
1, 9590, Tempo, 748316
1, 9595, Tempo, 753012
1, 9600, Tempo, 757767
1, 9605, Tempo, 762583
1, 9610, Tempo, 767460
1, 9615, Tempo, 772400
1, 9620, Tempo, 777403
1, 9630, Tempo, 782473
1, 9635, Tempo, 787608
1, 9640, Tempo, 792812
1, 9645, Tempo, 798085
1, 9650, Tempo, 803428
1, 9655, Tempo, 808843
1, 9660, Tempo, 814332
1, 9670, Tempo, 819896
1, 9675, Tempo, 825537
1, 9680, Tempo, 831255
1, 9685, Tempo, 837054
1, 9690, Tempo, 842933
1, 9695, Tempo, 848896
1, 9700, Tempo, 854944
1, 9710, Tempo, 861079
1, 9715, Tempo, 867303
1, 9720, Tempo, 873617
1, 9725, Tempo, 880023
1, 9730, Tempo, 886525
1, 9735, Tempo, 893123
1, 9740, Tempo, 899820
1, 9750, Tempo, 906618
1, 9755, Tempo, 913520
1, 9760, Tempo, 920528
1, 9765, Tempo, 927644
1, 9770, Tempo, 934871
1, 9775, Tempo, 942211
1, 9780, Tempo, 949668
1, 9790, Tempo, 957243
1, 9795, Tempo, 964940
1, 9800, Tempo, 972763
1, 9805, Tempo, 980713
1, 9810, Tempo, 988794
1, 9815, Tempo, 997009
1, 9820, Tempo, 1005362
1, 9830, Tempo, 1013856
1, 9835, Tempo, 1022495
1, 9840, Tempo, 1031282
1, 9845, Tempo, 1040222
1, 9850, Tempo, 1049318
1, 9855, Tempo, 1058574
1, 9865, Tempo, 1067996
1, 9870, Tempo, 1077586
1, 9875, Tempo, 1087350
1, 9880, Tempo, 1097293
1, 9885, Tempo, 1107420
1, 9890, Tempo, 1117735
1, 9895, Tempo, 1128244
1, 9905, Tempo, 1138952
1, 9910, Tempo, 1149866
1, 9915, Tempo, 1160991
1, 9920, Tempo, 1172333
1, 9925, Tempo, 1183899
1, 9930, Tempo, 1195695
1, 9935, Tempo, 1207729
1, 9945, Tempo, 1220008
1, 9950, Tempo, 1232539
1, 9955, Tempo, 1245330
1, 9960, Tempo, 1258389
1, 9965, Tempo, 1271725
1, 9970, Tempo, 1285347
1, 9975, Tempo, 1299264
1, 9985, Tempo, 1313485
1, 9990, Tempo, 1328021
1, 9995, Tempo, 1342883
1, 10000, Tempo, 1358081
1, 10005, Tempo, 1373626
1, 10010, Tempo, 1389532
1, 10015, Tempo, 1405811
1, 10025, Tempo, 1422475
1, 10030, Tempo, 1439539
1, 10035, Tempo, 1457018
1, 10040, Tempo, 1474926
1, 10045, Tempo, 1493280
1, 10050, Tempo, 1512097
1, 10055, Tempo, 1531394
1, 10065, Tempo, 1551189
1, 10070, Tempo, 1571503
1, 10075, Tempo, 1592357
1, 10080, Tempo, 1613771
1, 10085, Tempo, 1635769
1, 10090, Tempo, 1658375
1, 10095, Tempo, 1681614
1, 10105, Tempo, 1705514
1, 10110, Tempo, 1730104
1, 10115, Tempo, 1755413
1, 10120, Tempo, 1781473
1, 10125, Tempo, 1808318
1, 10130, Tempo, 1835985
1, 10135, Tempo, 1864512
1, 10145, Tempo, 1893939
1, 10150, Tempo, 1924310
1, 10155, Tempo, 1955671
1, 10160, Tempo, 1988072
1, 10165, Tempo, 2021563
1, 10170, Tempo, 2056203
1, 10175, Tempo, 2092050
1, 10185, Tempo, 2129170
1, 10190, Tempo, 2167630
1, 10195, Tempo, 2207506
1, 10200, Tempo, 2248876
1, 10205, Tempo, 2291826
1, 10210, Tempo, 2336449
1, 10215, Tempo, 2382844
1, 10720, Tempo, 2448980
1, 11230, Tempo, 2500000
1, 11230, End_track
2, 0, Start_track
2, 0, Title_t, "Track 2"
2, 0, Program_c, 0, 0
2, 0, Control_c, 0, 7, 100
2, 0, Control_c, 0, 10, 40
2, 30, Note_on_c, 0, 60, 64
2, 30, Control_c, 0, 7, 75
2, 60, Note_on_c, 0, 60, 0
2, 60, Note_on_c, 0, 62, 64
2, 90, Note_on_c, 0, 62, 0
2, 90, Note_on_c, 0, 64, 64
2, 110, Control_c, 0, 7, 76
2, 120, Note_on_c, 0, 64, 0
2, 120, Note_on_c, 0, 65, 64
2, 150, Note_on_c, 0, 65, 0
2, 150, Note_on_c, 0, 62, 64
2, 180, Note_on_c, 0, 62, 0
2, 180, Note_on_c, 0, 64, 54
2, 210, Note_on_c, 0, 64, 0
2, 210, Note_on_c, 0, 60, 54
2, 240, Note_on_c, 0, 60, 0
2, 240, Note_on_c, 0, 67, 54
2, 300, Note_on_c, 0, 67, 0
2, 300, Note_on_c, 0, 72, 54
2, 360, Note_on_c, 0, 72, 0
2, 360, Note_on_c, 0, 71, 54
2, 375, Note_on_c, 0, 71, 0
2, 375, Note_on_c, 0, 69, 54
2, 390, Note_on_c, 0, 69, 0
2, 390, Note_on_c, 0, 71, 54
2, 420, Note_on_c, 0, 71, 0
2, 420, Note_on_c, 0, 72, 54
2, 480, Note_on_c, 0, 72, 0
2, 480, Note_on_c, 0, 74, 54
2, 510, Note_on_c, 0, 74, 0
2, 510, Note_on_c, 0, 67, 54
2, 540, Note_on_c, 0, 67, 0
2, 540, Note_on_c, 0, 69, 54
2, 570, Note_on_c, 0, 69, 0
2, 570, Note_on_c, 0, 71, 54
2, 600, Note_on_c, 0, 71, 0
2, 600, Note_on_c, 0, 72, 54
2, 630, Note_on_c, 0, 72, 0
2, 630, Note_on_c, 0, 69, 54
2, 660, Note_on_c, 0, 69, 0
2, 660, Note_on_c, 0, 71, 54
2, 690, Note_on_c, 0, 71, 0
2, 690, Note_on_c, 0, 67, 54
2, 720, Note_on_c, 0, 67, 0
2, 720, Note_on_c, 0, 74, 54
2, 780, Note_on_c, 0, 74, 0
2, 780, Note_on_c, 0, 79, 54
2, 840, Note_on_c, 0, 79, 0
2, 840, Note_on_c, 0, 77, 54
2, 855, Note_on_c, 0, 77, 0
2, 855, Note_on_c, 0, 76, 54
2, 870, Note_on_c, 0, 76, 0
2, 870, Note_on_c, 0, 77, 54
2, 900, Note_on_c, 0, 77, 0
2, 900, Note_on_c, 0, 79, 90
2, 960, Note_on_c, 0, 79, 0
2, 960, Note_on_c, 0, 76, 54
2, 990, Note_on_c, 0, 76, 0
2, 990, Note_on_c, 0, 81, 54
2, 1020, Note_on_c, 0, 81, 0
2, 1020, Note_on_c, 0, 79, 54
2, 1050, Note_on_c, 0, 79, 0
2, 1050, Note_on_c, 0, 77, 54
2, 1080, Note_on_c, 0, 77, 0
2, 1080, Note_on_c, 0, 76, 54
2, 1110, Note_on_c, 0, 76, 0
2, 1110, Note_on_c, 0, 79, 54
2, 1140, Note_on_c, 0, 79, 0
2, 1140, Note_on_c, 0, 77, 54
2, 1170, Note_on_c, 0, 77, 0
2, 1170, Note_on_c, 0, 81, 54
2, 1200, Note_on_c, 0, 81, 0
2, 1200, Note_on_c, 0, 79, 54
2, 1210, Control_c, 0, 7, 74
2, 1230, Note_on_c, 0, 79, 0
2, 1230, Note_on_c, 0, 77, 54
2, 1250, Control_c, 0, 7, 75
2, 1260, Note_on_c, 0, 77, 0
2, 1260, Note_on_c, 0, 76, 54
2, 1290, Note_on_c, 0, 76, 0
2, 1290, Note_on_c, 0, 74, 54
2, 1290, Control_c, 0, 7, 76
2, 1320, Note_on_c, 0, 74, 0
2, 1320, Note_on_c, 0, 72, 54
2, 1320, Control_c, 0, 7, 77
2, 1350, Note_on_c, 0, 72, 0
2, 1350, Note_on_c, 0, 76, 54
2, 1360, Control_c, 0, 7, 78
2, 1380, Note_on_c, 0, 76, 0
2, 1380, Note_on_c, 0, 74, 54
2, 1390, Control_c, 0, 7, 79
2, 1410, Note_on_c, 0, 74, 0
2, 1410, Note_on_c, 0, 77, 54
2, 1430, Control_c, 0, 7, 80
2, 1440, Note_on_c, 0, 77, 0
2, 1440, Note_on_c, 0, 76, 54
2, 1460, Control_c, 0, 7, 81
2, 1470, Note_on_c, 0, 76, 0
2, 1470, Note_on_c, 0, 74, 54
2, 1500, Note_on_c, 0, 74, 0
2, 1500, Note_on_c, 0, 72, 54
2, 1500, Control_c, 0, 7, 82
2, 1530, Note_on_c, 0, 72, 0
2, 1530, Note_on_c, 0, 71, 54
2, 1530, Control_c, 0, 7, 83
2, 1560, Note_on_c, 0, 71, 0
2, 1560, Note_on_c, 0, 69, 54
2, 1570, Control_c, 0, 7, 84
2, 1590, Note_on_c, 0, 69, 0
2, 1590, Note_on_c, 0, 72, 54
2, 1610, Control_c, 0, 7, 85
2, 1620, Note_on_c, 0, 72, 0
2, 1620, Note_on_c, 0, 71, 54
2, 1640, Control_c, 0, 7, 86
2, 1650, Note_on_c, 0, 71, 0
2, 1650, Note_on_c, 0, 74, 54
2, 1680, Note_on_c, 0, 74, 0
2, 1680, Note_on_c, 0, 72, 54
2, 1680, Control_c, 0, 7, 87
2, 1710, Note_on_c, 0, 72, 0
2, 1710, Note_on_c, 0, 71, 54
2, 1710, Control_c, 0, 7, 88
2, 1740, Note_on_c, 0, 71, 0
2, 1740, Note_on_c, 0, 69, 54
2, 1750, Control_c, 0, 7, 89
2, 1770, Note_on_c, 0, 69, 0
2, 1770, Note_on_c, 0, 67, 54
2, 1780, Control_c, 0, 7, 90
2, 1800, Note_on_c, 0, 67, 0
2, 1800, Note_on_c, 0, 66, 54
2, 1820, Control_c, 0, 7, 91
2, 1830, Note_on_c, 0, 66, 0
2, 1830, Note_on_c, 0, 69, 54
2, 1850, Control_c, 0, 7, 92
2, 1860, Note_on_c, 0, 69, 0
2, 1860, Note_on_c, 0, 67, 54
2, 1890, Note_on_c, 0, 67, 0
2, 1890, Note_on_c, 0, 71, 54
2, 1890, Control_c, 0, 7, 93
2, 1920, Note_on_c, 0, 71, 0
2, 1920, Note_on_c, 0, 69, 54
2, 1930, Control_c, 0, 7, 94
2, 1960, Control_c, 0, 7, 95
2, 1980, Note_on_c, 0, 69, 0
2, 1980, Note_on_c, 0, 62, 54
2, 2000, Control_c, 0, 7, 96
2, 2010, Note_on_c, 0, 62, 0
2, 2030, Control_c, 0, 7, 97
2, 2040, Note_on_c, 0, 72, 54
2, 2055, Note_on_c, 0, 72, 0
2, 2055, Note_on_c, 0, 71, 54
2, 2070, Note_on_c, 0, 71, 0
2, 2070, Note_on_c, 0, 72, 54
2, 2070, Control_c, 0, 7, 98
2, 2100, Control_c, 0, 7, 99
2, 2130, Note_on_c, 0, 72, 0
2, 2130, Note_on_c, 0, 74, 54
2, 2140, Control_c, 0, 7, 100
2, 2160, Note_on_c, 0, 74, 0
2, 2160, Note_on_c, 0, 71, 54
2, 2170, Control_c, 0, 7, 101
2, 2190, Note_on_c, 0, 71, 0
2, 2190, Note_on_c, 0, 69, 54
2, 2220, Note_on_c, 0, 69, 0
2, 2220, Note_on_c, 0, 67, 54
2, 2250, Note_on_c, 0, 67, 0
2, 2250, Note_on_c, 0, 66, 54
2, 2280, Note_on_c, 0, 66, 0
2, 2280, Note_on_c, 0, 64, 54
2, 2310, Note_on_c, 0, 64, 0
2, 2310, Note_on_c, 0, 67, 54
2, 2340, Note_on_c, 0, 67, 0
2, 2340, Note_on_c, 0, 66, 54
2, 2370, Note_on_c, 0, 66, 0
2, 2370, Note_on_c, 0, 69, 54
2, 2400, Note_on_c, 0, 69, 0
2, 2400, Note_on_c, 0, 67, 54
2, 2430, Note_on_c, 0, 67, 0
2, 2430, Note_on_c, 0, 71, 54
2, 2460, Note_on_c, 0, 71, 0
2, 2460, Note_on_c, 0, 69, 54
2, 2490, Note_on_c, 0, 69, 0
2, 2490, Note_on_c, 0, 72, 54
2, 2520, Note_on_c, 0, 72, 0
2, 2520, Note_on_c, 0, 71, 54
2, 2550, Note_on_c, 0, 71, 0
2, 2550, Note_on_c, 0, 74, 54
2, 2580, Note_on_c, 0, 74, 0
2, 2580, Note_on_c, 0, 72, 54
2, 2610, Note_on_c, 0, 72, 0
2, 2610, Note_on_c, 0, 76, 54
2, 2640, Note_on_c, 0, 76, 0
2, 2640, Note_on_c, 0, 74, 54
2, 2670, Note_on_c, 0, 74, 0
2, 2670, Note_on_c, 0, 71, 54
2, 2685, Note_on_c, 0, 71, 0
2, 2685, Note_on_c, 0, 72, 54
2, 2700, Note_on_c, 0, 74, 54
2, 2701, Note_on_c, 0, 72, 0
2, 2730, Note_on_c, 0, 74, 0
2, 2730, Note_on_c, 0, 79, 54
2, 2760, Note_on_c, 0, 79, 0
2, 2760, Note_on_c, 0, 71, 54
2, 2775, Note_on_c, 0, 71, 0
2, 2775, Note_on_c, 0, 72, 54
2, 2790, Note_on_c, 0, 72, 0
2, 2790, Note_on_c, 0, 71, 54
2, 2820, Note_on_c, 0, 71, 0
2, 2820, Note_on_c, 0, 69, 54
2, 2850, Note_on_c, 0, 69, 0
2, 2850, Note_on_c, 0, 67, 54
2, 2880, Note_on_c, 0, 67, 0
2, 2880, Note_on_c, 0, 67, 54
2, 2940, Note_on_c, 0, 67, 0
2, 3130, Control_c, 0, 7, 71
2, 3150, Note_on_c, 0, 67, 54
2, 3180, Note_on_c, 0, 67, 0
2, 3180, Note_on_c, 0, 69, 54
2, 3210, Note_on_c, 0, 69, 0
2, 3210, Note_on_c, 0, 71, 54
2, 3220, Control_c, 0, 7, 72
2, 3240, Note_on_c, 0, 71, 0
2, 3240, Note_on_c, 0, 72, 54
2, 3270, Note_on_c, 0, 72, 0
2, 3270, Note_on_c, 0, 69, 54
2, 3300, Note_on_c, 0, 69, 0
2, 3300, Note_on_c, 0, 71, 54
2, 3330, Note_on_c, 0, 71, 0
2, 3330, Note_on_c, 0, 67, 54
2, 3360, Note_on_c, 0, 67, 0
2, 3360, Note_on_c, 0, 66, 54
2, 3420, Note_on_c, 0, 66, 0
2, 3630, Note_on_c, 0, 69, 54
2, 3660, Note_on_c, 0, 69, 0
2, 3660, Note_on_c, 0, 71, 54
2, 3690, Note_on_c, 0, 71, 0
2, 3690, Note_on_c, 0, 72, 54
2, 3720, Note_on_c, 0, 72, 0
2, 3720, Note_on_c, 0, 74, 54
2, 3750, Note_on_c, 0, 74, 0
2, 3750, Note_on_c, 0, 71, 54
2, 3780, Note_on_c, 0, 71, 0
2, 3780, Note_on_c, 0, 72, 54
2, 3810, Note_on_c, 0, 72, 0
2, 3810, Note_on_c, 0, 69, 54
2, 3840, Note_on_c, 0, 69, 0
2, 3840, Note_on_c, 0, 71, 54
2, 3900, Note_on_c, 0, 71, 0
2, 4110, Note_on_c, 0, 74, 54
2, 4140, Note_on_c, 0, 74, 0
2, 4140, Note_on_c, 0, 72, 54
2, 4170, Note_on_c, 0, 72, 0
2, 4170, Note_on_c, 0, 71, 54
2, 4200, Note_on_c, 0, 71, 0
2, 4200, Note_on_c, 0, 69, 54
2, 4230, Note_on_c, 0, 69, 0
2, 4230, Note_on_c, 0, 72, 54
2, 4260, Note_on_c, 0, 72, 0
2, 4260, Note_on_c, 0, 71, 54
2, 4290, Note_on_c, 0, 71, 0
2, 4290, Note_on_c, 0, 74, 54
2, 4320, Note_on_c, 0, 74, 0
2, 4320, Note_on_c, 0, 72, 54
2, 4380, Note_on_c, 0, 72, 0
2, 4590, Note_on_c, 0, 76, 54
2, 4620, Note_on_c, 0, 76, 0
2, 4620, Note_on_c, 0, 74, 54
2, 4650, Note_on_c, 0, 74, 0
2, 4650, Note_on_c, 0, 72, 54
2, 4680, Note_on_c, 0, 72, 0
2, 4680, Note_on_c, 0, 71, 54
2, 4710, Note_on_c, 0, 71, 0
2, 4710, Note_on_c, 0, 74, 54
2, 4740, Note_on_c, 0, 74, 0
2, 4740, Note_on_c, 0, 73, 54
2, 4770, Note_on_c, 0, 73, 0
2, 4770, Note_on_c, 0, 76, 54
2, 4800, Note_on_c, 0, 76, 0
2, 4800, Note_on_c, 0, 74, 54
2, 4860, Note_on_c, 0, 74, 0
2, 4860, Note_on_c, 0, 73, 54
2, 4920, Note_on_c, 0, 73, 0
2, 4920, Note_on_c, 0, 74, 54
2, 4930, Control_c, 0, 7, 75
2, 4970, Control_c, 0, 7, 76
2, 4980, Note_on_c, 0, 74, 0
2, 4980, Note_on_c, 0, 76, 54
2, 5000, Control_c, 0, 7, 77
2, 5040, Note_on_c, 0, 76, 0
2, 5040, Note_on_c, 0, 77, 54
2, 5040, Control_c, 0, 7, 78
2, 5070, Control_c, 0, 7, 79
2, 5100, Note_on_c, 0, 77, 0
2, 5100, Note_on_c, 0, 69, 54
2, 5100, Control_c, 0, 7, 80
2, 5140, Control_c, 0, 7, 81
2, 5160, Note_on_c, 0, 69, 0
2, 5160, Note_on_c, 0, 71, 54
2, 5170, Control_c, 0, 7, 82
2, 5210, Control_c, 0, 7, 83
2, 5220, Note_on_c, 0, 71, 0
2, 5220, Note_on_c, 0, 73, 54
2, 5240, Control_c, 0, 7, 84
2, 5270, Control_c, 0, 7, 85
2, 5280, Note_on_c, 0, 73, 0
2, 5280, Note_on_c, 0, 74, 54
2, 5310, Control_c, 0, 7, 86
2, 5340, Note_on_c, 0, 74, 0
2, 5340, Note_on_c, 0, 66, 54
2, 5340, Control_c, 0, 7, 87
2, 5380, Control_c, 0, 7, 88
2, 5400, Note_on_c, 0, 66, 0
2, 5400, Note_on_c, 0, 68, 54
2, 5410, Control_c, 0, 7, 89
2, 5440, Control_c, 0, 7, 90
2, 5460, Note_on_c, 0, 68, 0
2, 5460, Note_on_c, 0, 69, 54
2, 5480, Control_c, 0, 7, 91
2, 5510, Control_c, 0, 7, 92
2, 5520, Note_on_c, 0, 69, 0
2, 5520, Note_on_c, 0, 71, 54
2, 5540, Control_c, 0, 7, 93
2, 5580, Note_on_c, 0, 71, 0
2, 5580, Note_on_c, 0, 72, 54
2, 5580, Control_c, 0, 7, 94
2, 5610, Control_c, 0, 7, 95
2, 5640, Note_on_c, 0, 72, 0
2, 5640, Note_on_c, 0, 74, 54
2, 5650, Control_c, 0, 7, 96
2, 5680, Control_c, 0, 7, 97
2, 5710, Control_c, 0, 7, 98
2, 5750, Control_c, 0, 7, 99
2, 5780, Control_c, 0, 7, 100
2, 5790, Note_on_c, 0, 74, 0
2, 5790, Note_on_c, 0, 64, 54
2, 5820, Note_on_c, 0, 64, 0
2, 5820, Note_on_c, 0, 66, 54
2, 5820, Control_c, 0, 7, 101
2, 5850, Note_on_c, 0, 66, 0
2, 5850, Note_on_c, 0, 68, 54
2, 5850, Control_c, 0, 7, 102
2, 5880, Note_on_c, 0, 68, 0
2, 5880, Note_on_c, 0, 69, 54
2, 5880, Control_c, 0, 7, 103
2, 5910, Note_on_c, 0, 69, 0
2, 5910, Note_on_c, 0, 66, 54
2, 5920, Control_c, 0, 7, 104
2, 5940, Note_on_c, 0, 66, 0
2, 5940, Note_on_c, 0, 68, 54
2, 5950, Control_c, 0, 7, 105
2, 5970, Note_on_c, 0, 68, 0
2, 5970, Note_on_c, 0, 64, 54
2, 5980, Control_c, 0, 7, 106
2, 6000, Note_on_c, 0, 64, 0
2, 6000, Note_on_c, 0, 76, 54
2, 6030, Note_on_c, 0, 76, 0
2, 6030, Note_on_c, 0, 74, 54
2, 6060, Note_on_c, 0, 74, 0
2, 6060, Note_on_c, 0, 72, 54
2, 6090, Note_on_c, 0, 72, 0
2, 6090, Note_on_c, 0, 76, 54
2, 6120, Note_on_c, 0, 76, 0
2, 6120, Note_on_c, 0, 74, 54
2, 6150, Note_on_c, 0, 74, 0
2, 6150, Note_on_c, 0, 72, 54
2, 6180, Note_on_c, 0, 72, 0
2, 6180, Note_on_c, 0, 71, 54
2, 6210, Note_on_c, 0, 71, 0
2, 6210, Note_on_c, 0, 74, 54
2, 6240, Note_on_c, 0, 74, 0
2, 6240, Note_on_c, 0, 72, 54
2, 6270, Note_on_c, 0, 72, 0
2, 6270, Note_on_c, 0, 81, 54
2, 6300, Note_on_c, 0, 81, 0
2, 6300, Note_on_c, 0, 80, 54
2, 6330, Note_on_c, 0, 80, 0
2, 6330, Note_on_c, 0, 83, 54
2, 6360, Note_on_c, 0, 83, 0
2, 6360, Note_on_c, 0, 81, 54
2, 6390, Note_on_c, 0, 81, 0
2, 6390, Note_on_c, 0, 76, 54
2, 6420, Note_on_c, 0, 76, 0
2, 6420, Note_on_c, 0, 77, 54
2, 6450, Note_on_c, 0, 77, 0
2, 6450, Note_on_c, 0, 74, 54
2, 6480, Note_on_c, 0, 74, 0
2, 6480, Note_on_c, 0, 68, 54
2, 6510, Note_on_c, 0, 68, 0
2, 6510, Note_on_c, 0, 77, 54
2, 6540, Note_on_c, 0, 77, 0
2, 6540, Note_on_c, 0, 76, 54
2, 6570, Note_on_c, 0, 76, 0
2, 6570, Note_on_c, 0, 74, 54
2, 6600, Note_on_c, 0, 74, 0
2, 6600, Note_on_c, 0, 72, 54
2, 6615, Note_on_c, 0, 72, 0
2, 6615, Note_on_c, 0, 74, 54
2, 6630, Note_on_c, 0, 74, 0
2, 6630, Note_on_c, 0, 72, 54
2, 6660, Note_on_c, 0, 72, 0
2, 6660, Note_on_c, 0, 71, 54
2, 6690, Note_on_c, 0, 71, 0
2, 6690, Note_on_c, 0, 69, 54
2, 6720, Note_on_c, 0, 69, 0
2, 6720, Note_on_c, 0, 69, 90
2, 6740, Control_c, 0, 7, 73
2, 6750, Note_on_c, 0, 69, 0
2, 6750, Note_on_c, 0, 81, 54
2, 6780, Note_on_c, 0, 81, 0
2, 6780, Note_on_c, 0, 79, 54
2, 6810, Note_on_c, 0, 79, 0
2, 6810, Note_on_c, 0, 77, 54
2, 6840, Note_on_c, 0, 77, 0
2, 6840, Note_on_c, 0, 76, 54
2, 6870, Note_on_c, 0, 76, 0
2, 6870, Note_on_c, 0, 79, 54
2, 6900, Note_on_c, 0, 79, 0
2, 6900, Note_on_c, 0, 77, 54
2, 6930, Note_on_c, 0, 77, 0
2, 6930, Note_on_c, 0, 81, 54
2, 6960, Note_on_c, 0, 81, 0
2, 6960, Note_on_c, 0, 79, 54
2, 7230, Note_on_c, 0, 79, 0
2, 7230, Note_on_c, 0, 76, 54
2, 7260, Note_on_c, 0, 76, 0
2, 7260, Note_on_c, 0, 77, 54
2, 7290, Note_on_c, 0, 77, 0
2, 7290, Note_on_c, 0, 79, 54
2, 7320, Note_on_c, 0, 79, 0
2, 7320, Note_on_c, 0, 81, 54
2, 7350, Note_on_c, 0, 81, 0
2, 7350, Note_on_c, 0, 77, 54
2, 7380, Note_on_c, 0, 77, 0
2, 7380, Note_on_c, 0, 79, 54
2, 7410, Note_on_c, 0, 79, 0
2, 7410, Note_on_c, 0, 76, 54
2, 7440, Note_on_c, 0, 76, 0
2, 7440, Note_on_c, 0, 77, 54
2, 7670, Control_c, 0, 7, 73
2, 7710, Note_on_c, 0, 77, 0
2, 7710, Note_on_c, 0, 79, 54
2, 7720, Control_c, 0, 7, 74
2, 7740, Note_on_c, 0, 79, 0
2, 7740, Note_on_c, 0, 77, 54
2, 7770, Note_on_c, 0, 77, 0
2, 7770, Note_on_c, 0, 76, 54
2, 7770, Control_c, 0, 7, 75
2, 7800, Note_on_c, 0, 76, 0
2, 7800, Note_on_c, 0, 74, 54
2, 7820, Control_c, 0, 7, 76
2, 7830, Note_on_c, 0, 74, 0
2, 7830, Note_on_c, 0, 77, 54
2, 7860, Note_on_c, 0, 77, 0
2, 7860, Note_on_c, 0, 76, 54
2, 7870, Control_c, 0, 7, 77
2, 7890, Note_on_c, 0, 76, 0
2, 7890, Note_on_c, 0, 79, 54
2, 7910, Control_c, 0, 7, 78
2, 7920, Note_on_c, 0, 79, 0
2, 7920, Note_on_c, 0, 77, 54
2, 7960, Control_c, 0, 7, 79
2, 8010, Control_c, 0, 7, 80
2, 8060, Control_c, 0, 7, 81
2, 8110, Control_c, 0, 7, 82
2, 8150, Control_c, 0, 7, 83
2, 8190, Note_on_c, 0, 77, 0
2, 8190, Note_on_c, 0, 74, 54
2, 8200, Control_c, 0, 7, 84
2, 8220, Note_on_c, 0, 74, 0
2, 8220, Note_on_c, 0, 76, 54
2, 8250, Note_on_c, 0, 76, 0
2, 8250, Note_on_c, 0, 77, 54
2, 8250, Control_c, 0, 7, 85
2, 8280, Note_on_c, 0, 77, 0
2, 8280, Note_on_c, 0, 79, 54
2, 8300, Control_c, 0, 7, 86
2, 8310, Note_on_c, 0, 79, 0
2, 8310, Note_on_c, 0, 76, 54
2, 8340, Note_on_c, 0, 76, 0
2, 8340, Note_on_c, 0, 77, 54
2, 8350, Control_c, 0, 7, 87
2, 8370, Note_on_c, 0, 77, 0
2, 8370, Note_on_c, 0, 74, 54
2, 8390, Control_c, 0, 7, 88
2, 8400, Note_on_c, 0, 74, 0
2, 8400, Note_on_c, 0, 76, 54
2, 8440, Control_c, 0, 7, 89
2, 8490, Control_c, 0, 7, 90
2, 8540, Control_c, 0, 7, 91
2, 8590, Control_c, 0, 7, 92
2, 8630, Control_c, 0, 7, 93
2, 8670, Note_on_c, 0, 76, 0
2, 8670, Note_on_c, 0, 72, 54
2, 8680, Control_c, 0, 7, 94
2, 8700, Note_on_c, 0, 72, 0
2, 8700, Note_on_c, 0, 74, 54
2, 8730, Note_on_c, 0, 74, 0
2, 8730, Note_on_c, 0, 76, 54
2, 8730, Control_c, 0, 7, 95
2, 8760, Note_on_c, 0, 76, 0
2, 8760, Note_on_c, 0, 77, 54
2, 8780, Control_c, 0, 7, 96
2, 8790, Note_on_c, 0, 77, 0
2, 8790, Note_on_c, 0, 74, 54
2, 8820, Note_on_c, 0, 74, 0
2, 8820, Note_on_c, 0, 76, 54
2, 8830, Control_c, 0, 7, 97
2, 8850, Note_on_c, 0, 76, 0
2, 8850, Note_on_c, 0, 72, 54
2, 8870, Control_c, 0, 7, 98
2, 8880, Note_on_c, 0, 72, 0
2, 8880, Note_on_c, 0, 74, 54
2, 8910, Note_on_c, 0, 74, 0
2, 8910, Note_on_c, 0, 76, 54
2, 8920, Control_c, 0, 7, 99
2, 8940, Note_on_c, 0, 76, 0
2, 8940, Note_on_c, 0, 77, 54
2, 8970, Note_on_c, 0, 77, 0
2, 8970, Note_on_c, 0, 79, 54
2, 8970, Control_c, 0, 7, 100
2, 9000, Note_on_c, 0, 79, 0
2, 9000, Note_on_c, 0, 81, 54
2, 9020, Control_c, 0, 7, 101
2, 9030, Note_on_c, 0, 81, 0
2, 9030, Note_on_c, 0, 77, 54
2, 9060, Note_on_c, 0, 77, 0
2, 9060, Note_on_c, 0, 79, 54
2, 9070, Control_c, 0, 7, 102
2, 9090, Note_on_c, 0, 79, 0
2, 9090, Note_on_c, 0, 76, 54
2, 9110, Control_c, 0, 7, 103
2, 9120, Note_on_c, 0, 76, 0
2, 9120, Note_on_c, 0, 77, 54
2, 9150, Note_on_c, 0, 77, 0
2, 9150, Note_on_c, 0, 79, 54
2, 9160, Control_c, 0, 7, 104
2, 9180, Note_on_c, 0, 79, 0
2, 9180, Note_on_c, 0, 81, 54
2, 9210, Note_on_c, 0, 81, 0
2, 9210, Note_on_c, 0, 83, 54
2, 9210, Control_c, 0, 7, 105
2, 9240, Note_on_c, 0, 83, 0
2, 9240, Note_on_c, 0, 84, 54
2, 9260, Control_c, 0, 7, 106
2, 9270, Note_on_c, 0, 84, 0
2, 9270, Note_on_c, 0, 81, 54
2, 9300, Note_on_c, 0, 81, 0
2, 9300, Note_on_c, 0, 83, 54
2, 9310, Control_c, 0, 7, 107
2, 9330, Note_on_c, 0, 83, 0
2, 9330, Note_on_c, 0, 79, 54
2, 9350, Control_c, 0, 7, 109
2, 9360, Note_on_c, 0, 79, 0
2, 9360, Note_on_c, 0, 84, 54
2, 9380, Control_c, 0, 7, 108
2, 9410, Control_c, 0, 7, 107
2, 9420, Note_on_c, 0, 84, 0
2, 9420, Note_on_c, 0, 79, 90
2, 9440, Control_c, 0, 7, 106
2, 9470, Control_c, 0, 7, 105
2, 9480, Note_on_c, 0, 79, 0
2, 9480, Note_on_c, 0, 76, 90
2, 9500, Control_c, 0, 7, 104
2, 9520, Control_c, 0, 7, 103
2, 9540, Note_on_c, 0, 76, 0
2, 9540, Note_on_c, 0, 74, 54
2, 9550, Control_c, 0, 7, 102
2, 9570, Note_on_c, 0, 74, 0
2, 9570, Note_on_c, 0, 72, 54
2, 9580, Control_c, 0, 7, 101
2, 9600, Note_on_c, 0, 72, 0
2, 9600, Note_on_c, 0, 72, 54
2, 9610, Control_c, 0, 7, 100
2, 9630, Note_on_c, 0, 72, 0
2, 9630, Note_on_c, 0, 70, 54
2, 9640, Control_c, 0, 7, 99
2, 9660, Note_on_c, 0, 70, 0
2, 9660, Note_on_c, 0, 69, 54
2, 9670, Control_c, 0, 7, 98
2, 9690, Note_on_c, 0, 69, 0
2, 9690, Note_on_c, 0, 67, 54
2, 9690, Control_c, 0, 7, 97
2, 9720, Note_on_c, 0, 67, 0
2, 9720, Note_on_c, 0, 65, 54
2, 9720, Control_c, 0, 7, 96
2, 9750, Note_on_c, 0, 65, 0
2, 9750, Note_on_c, 0, 69, 54
2, 9750, Control_c, 0, 7, 95
2, 9780, Note_on_c, 0, 69, 0
2, 9780, Note_on_c, 0, 67, 54
2, 9780, Control_c, 0, 7, 94
2, 9810, Note_on_c, 0, 67, 0
2, 9810, Note_on_c, 0, 70, 54
2, 9810, Control_c, 0, 7, 93
2, 9840, Note_on_c, 0, 70, 0
2, 9840, Note_on_c, 0, 69, 54
2, 9840, Control_c, 0, 7, 92
2, 9860, Control_c, 0, 7, 91
2, 9870, Note_on_c, 0, 69, 0
2, 9870, Note_on_c, 0, 71, 54
2, 9890, Control_c, 0, 7, 90
2, 9900, Note_on_c, 0, 71, 0
2, 9900, Note_on_c, 0, 72, 54
2, 9920, Control_c, 0, 7, 89
2, 9930, Note_on_c, 0, 72, 0
2, 9930, Note_on_c, 0, 64, 54
2, 9950, Control_c, 0, 7, 88
2, 9960, Note_on_c, 0, 64, 0
2, 9960, Note_on_c, 0, 62, 54
2, 9980, Control_c, 0, 7, 87
2, 9990, Note_on_c, 0, 62, 0
2, 9990, Note_on_c, 0, 72, 54
2, 10010, Control_c, 0, 7, 86
2, 10020, Note_on_c, 0, 72, 0
2, 10020, Note_on_c, 0, 65, 54
2, 10030, Control_c, 0, 7, 85
2, 10050, Note_on_c, 0, 65, 0
2, 10050, Note_on_c, 0, 71, 54
2, 10060, Control_c, 0, 7, 84
2, 10080, Note_on_c, 0, 71, 0
2, 10080, Note_on_c, 0, 64, 54
2, 10080, Note_on_c, 0, 72, 54
2, 10090, Control_c, 0, 7, 83
2, 10120, Control_c, 0, 7, 82
2, 10150, Control_c, 0, 7, 81
2, 10180, Control_c, 0, 7, 80
2, 10200, Control_c, 0, 7, 79
2, 10230, Control_c, 0, 7, 78
2, 10260, Control_c, 0, 7, 77
2, 10290, Control_c, 0, 7, 76
2, 10320, Control_c, 0, 7, 75
2, 10350, Control_c, 0, 7, 74
2, 10370, Control_c, 0, 7, 73
2, 10400, Control_c, 0, 7, 72
2, 10430, Control_c, 0, 7, 71
2, 10460, Control_c, 0, 7, 70
2, 10490, Control_c, 0, 7, 69
2, 10520, Control_c, 0, 7, 68
2, 10540, Control_c, 0, 7, 67
2, 10560, Note_on_c, 0, 72, 0
2, 10560, Note_on_c, 0, 64, 0
2, 10560, End_track
3, 0, Start_track
3, 0, Title_t, "Track 4"
3, 0, Program_c, 2, 0
3, 0, Control_c, 2, 7, 100
3, 0, Control_c, 2, 10, 93
3, 10, Control_c, 2, 7, 83
3, 80, Control_c, 2, 7, 82
3, 140, Control_c, 2, 7, 81
3, 270, Note_on_c, 2, 48, 54
3, 300, Note_on_c, 2, 48, 0
3, 300, Note_on_c, 2, 50, 54
3, 330, Note_on_c, 2, 50, 0
3, 330, Note_on_c, 2, 52, 54
3, 360, Note_on_c, 2, 52, 0
3, 360, Note_on_c, 2, 53, 54
3, 390, Note_on_c, 2, 53, 0
3, 390, Note_on_c, 2, 50, 54
3, 420, Note_on_c, 2, 50, 0
3, 420, Note_on_c, 2, 52, 54
3, 450, Note_on_c, 2, 52, 0
3, 450, Note_on_c, 2, 48, 54
3, 480, Note_on_c, 2, 48, 0
3, 480, Note_on_c, 2, 55, 54
3, 540, Note_on_c, 2, 55, 0
3, 540, Note_on_c, 2, 43, 54
3, 570, Note_on_c, 2, 43, 0
3, 750, Note_on_c, 2, 55, 54
3, 780, Note_on_c, 2, 55, 0
3, 780, Note_on_c, 2, 57, 54
3, 810, Note_on_c, 2, 57, 0
3, 810, Note_on_c, 2, 59, 54
3, 840, Note_on_c, 2, 59, 0
3, 840, Note_on_c, 2, 60, 54
3, 870, Note_on_c, 2, 60, 0
3, 870, Note_on_c, 2, 57, 54
3, 900, Note_on_c, 2, 57, 0
3, 900, Note_on_c, 2, 59, 54
3, 930, Note_on_c, 2, 59, 0
3, 930, Note_on_c, 2, 55, 54
3, 940, Control_c, 2, 7, 75
3, 960, Note_on_c, 2, 55, 0
3, 960, Note_on_c, 2, 60, 54
3, 980, Control_c, 2, 7, 76
3, 1020, Note_on_c, 2, 60, 0
3, 1020, Note_on_c, 2, 47, 54
3, 1020, Control_c, 2, 7, 77
3, 1060, Control_c, 2, 7, 78
3, 1080, Note_on_c, 2, 47, 0
3, 1080, Note_on_c, 2, 48, 54
3, 1100, Control_c, 2, 7, 79
3, 1140, Note_on_c, 2, 48, 0
3, 1140, Note_on_c, 2, 50, 54
3, 1140, Control_c, 2, 7, 80
3, 1180, Control_c, 2, 7, 81
3, 1200, Note_on_c, 2, 50, 0
3, 1200, Note_on_c, 2, 52, 54
3, 1210, Control_c, 2, 7, 82
3, 1250, Control_c, 2, 7, 83
3, 1260, Note_on_c, 2, 52, 0
3, 1260, Note_on_c, 2, 43, 54
3, 1290, Control_c, 2, 7, 84
3, 1320, Note_on_c, 2, 43, 0
3, 1320, Note_on_c, 2, 45, 54
3, 1330, Control_c, 2, 7, 85
3, 1370, Control_c, 2, 7, 86
3, 1380, Note_on_c, 2, 45, 0
3, 1380, Note_on_c, 2, 47, 54
3, 1410, Control_c, 2, 7, 87
3, 1440, Note_on_c, 2, 47, 0
3, 1440, Note_on_c, 2, 48, 54
3, 1440, Control_c, 2, 7, 88
3, 1480, Control_c, 2, 7, 89
3, 1500, Note_on_c, 2, 48, 0
3, 1500, Note_on_c, 2, 40, 54
3, 1520, Control_c, 2, 7, 90
3, 1560, Note_on_c, 2, 40, 0
3, 1560, Note_on_c, 2, 42, 54
3, 1560, Control_c, 2, 7, 91
3, 1600, Control_c, 2, 7, 92
3, 1620, Note_on_c, 2, 42, 0
3, 1620, Note_on_c, 2, 43, 54
3, 1640, Control_c, 2, 7, 93
3, 1680, Note_on_c, 2, 43, 0
3, 1680, Note_on_c, 2, 45, 54
3, 1680, Control_c, 2, 7, 94
3, 1710, Control_c, 2, 7, 95
3, 1740, Note_on_c, 2, 45, 0
3, 1740, Note_on_c, 2, 47, 54
3, 1750, Control_c, 2, 7, 96
3, 1790, Control_c, 2, 7, 97
3, 1800, Note_on_c, 2, 47, 0
3, 1800, Note_on_c, 2, 48, 54
3, 1830, Control_c, 2, 7, 98
3, 1870, Control_c, 2, 7, 99
3, 1910, Control_c, 2, 7, 100
3, 1940, Control_c, 2, 7, 101
3, 1950, Note_on_c, 2, 48, 0
3, 1950, Note_on_c, 2, 38, 54
3, 1980, Note_on_c, 2, 38, 0
3, 1980, Note_on_c, 2, 40, 54
3, 1980, Control_c, 2, 7, 102
3, 2010, Note_on_c, 2, 40, 0
3, 2010, Note_on_c, 2, 42, 54
3, 2020, Control_c, 2, 7, 103
3, 2040, Note_on_c, 2, 42, 0
3, 2040, Note_on_c, 2, 43, 54
3, 2060, Control_c, 2, 7, 104
3, 2070, Note_on_c, 2, 43, 0
3, 2070, Note_on_c, 2, 40, 54
3, 2100, Note_on_c, 2, 40, 0
3, 2100, Note_on_c, 2, 42, 54
3, 2100, Control_c, 2, 7, 105
3, 2130, Note_on_c, 2, 42, 0
3, 2130, Note_on_c, 2, 38, 54
3, 2140, Control_c, 2, 7, 106
3, 2160, Note_on_c, 2, 38, 0
3, 2160, Note_on_c, 2, 43, 54
3, 2170, Control_c, 2, 7, 107
3, 2220, Note_on_c, 2, 43, 0
3, 2220, Note_on_c, 2, 47, 54
3, 2280, Note_on_c, 2, 47, 0
3, 2280, Note_on_c, 2, 48, 54
3, 2340, Note_on_c, 2, 48, 0
3, 2340, Note_on_c, 2, 50, 54
3, 2400, Note_on_c, 2, 50, 0
3, 2400, Note_on_c, 2, 52, 54
3, 2460, Note_on_c, 2, 52, 0
3, 2460, Note_on_c, 2, 54, 54
3, 2520, Note_on_c, 2, 54, 0
3, 2520, Note_on_c, 2, 55, 54
3, 2580, Note_on_c, 2, 55, 0
3, 2580, Note_on_c, 2, 52, 54
3, 2640, Note_on_c, 2, 52, 0
3, 2640, Note_on_c, 2, 47, 54
3, 2660, Control_c, 2, 7, 96
3, 2690, Control_c, 2, 7, 95
3, 2710, Control_c, 2, 7, 94
3, 2730, Note_on_c, 2, 47, 0
3, 2730, Note_on_c, 2, 48, 54
3, 2730, Control_c, 2, 7, 93
3, 2750, Control_c, 2, 7, 92
3, 2760, Note_on_c, 2, 48, 0
3, 2760, Note_on_c, 2, 50, 54
3, 2770, Control_c, 2, 7, 91
3, 2790, Control_c, 2, 7, 90
3, 2820, Note_on_c, 2, 50, 0
3, 2820, Note_on_c, 2, 38, 54
3, 2820, Control_c, 2, 7, 89
3, 2840, Control_c, 2, 7, 88
3, 2860, Control_c, 2, 7, 87
3, 2880, Note_on_c, 2, 38, 0
3, 2880, Control_c, 2, 7, 86
3, 2900, Control_c, 2, 7, 85
3, 2910, Note_on_c, 2, 43, 54
3, 2920, Control_c, 2, 7, 84
3, 2940, Note_on_c, 2, 43, 0
3, 2940, Note_on_c, 2, 45, 54
3, 2940, Control_c, 2, 7, 83
3, 2970, Note_on_c, 2, 45, 0
3, 2970, Note_on_c, 2, 47, 54
3, 3000, Note_on_c, 2, 47, 0
3, 3000, Note_on_c, 2, 48, 54
3, 3030, Note_on_c, 2, 48, 0
3, 3030, Note_on_c, 2, 45, 54
3, 3060, Note_on_c, 2, 45, 0
3, 3060, Note_on_c, 2, 47, 54
3, 3090, Note_on_c, 2, 47, 0
3, 3090, Note_on_c, 2, 43, 54
3, 3120, Note_on_c, 2, 43, 0
3, 3120, Note_on_c, 2, 50, 54
3, 3180, Note_on_c, 2, 50, 0
3, 3180, Note_on_c, 2, 55, 54
3, 3240, Note_on_c, 2, 55, 0
3, 3240, Note_on_c, 2, 54, 54
3, 3255, Note_on_c, 2, 54, 0
3, 3255, Note_on_c, 2, 53, 54
3, 3270, Note_on_c, 2, 53, 0
3, 3270, Note_on_c, 2, 54, 54
3, 3300, Note_on_c, 2, 54, 0
3, 3300, Note_on_c, 2, 55, 54
3, 3360, Note_on_c, 2, 55, 0
3, 3360, Note_on_c, 2, 57, 54
3, 3390, Note_on_c, 2, 57, 0
3, 3390, Note_on_c, 2, 38, 54
3, 3420, Note_on_c, 2, 38, 0
3, 3420, Note_on_c, 2, 40, 54
3, 3450, Note_on_c, 2, 40, 0
3, 3450, Note_on_c, 2, 42, 54
3, 3480, Note_on_c, 2, 42, 0
3, 3480, Note_on_c, 2, 43, 54
3, 3510, Note_on_c, 2, 43, 0
3, 3510, Note_on_c, 2, 40, 54
3, 3540, Note_on_c, 2, 40, 0
3, 3540, Note_on_c, 2, 42, 54
3, 3570, Note_on_c, 2, 42, 0
3, 3570, Note_on_c, 2, 38, 54
3, 3600, Note_on_c, 2, 38, 0
3, 3600, Note_on_c, 2, 45, 54
3, 3660, Note_on_c, 2, 45, 0
3, 3660, Note_on_c, 2, 50, 54
3, 3720, Note_on_c, 2, 50, 0
3, 3720, Note_on_c, 2, 48, 54
3, 3735, Note_on_c, 2, 48, 0
3, 3735, Note_on_c, 2, 47, 54
3, 3750, Note_on_c, 2, 47, 0
3, 3750, Note_on_c, 2, 48, 54
3, 3780, Note_on_c, 2, 48, 0
3, 3780, Note_on_c, 2, 50, 54
3, 3840, Note_on_c, 2, 50, 0
3, 3840, Note_on_c, 2, 43, 54
3, 3870, Note_on_c, 2, 43, 0
3, 3870, Note_on_c, 2, 55, 54
3, 3900, Note_on_c, 2, 55, 0
3, 3900, Note_on_c, 2, 53, 54
3, 3930, Note_on_c, 2, 53, 0
3, 3930, Note_on_c, 2, 52, 54
3, 3960, Note_on_c, 2, 52, 0
3, 3960, Note_on_c, 2, 50, 54
3, 3990, Note_on_c, 2, 50, 0
3, 3990, Note_on_c, 2, 53, 54
3, 4020, Note_on_c, 2, 53, 0
3, 4020, Note_on_c, 2, 52, 54
3, 4050, Note_on_c, 2, 52, 0
3, 4050, Note_on_c, 2, 55, 54
3, 4080, Note_on_c, 2, 55, 0
3, 4080, Note_on_c, 2, 53, 54
3, 4140, Note_on_c, 2, 53, 0
3, 4140, Note_on_c, 2, 52, 54
3, 4200, Note_on_c, 2, 52, 0
3, 4200, Note_on_c, 2, 53, 54
3, 4260, Note_on_c, 2, 53, 0
3, 4260, Note_on_c, 2, 50, 54
3, 4320, Note_on_c, 2, 50, 0
3, 4320, Note_on_c, 2, 52, 54
3, 4350, Note_on_c, 2, 52, 0
3, 4350, Note_on_c, 2, 57, 54
3, 4380, Note_on_c, 2, 57, 0
3, 4380, Note_on_c, 2, 55, 54
3, 4410, Note_on_c, 2, 55, 0
3, 4410, Note_on_c, 2, 53, 54
3, 4440, Note_on_c, 2, 53, 0
3, 4440, Note_on_c, 2, 52, 54
3, 4470, Note_on_c, 2, 52, 0
3, 4470, Note_on_c, 2, 55, 54
3, 4500, Note_on_c, 2, 55, 0
3, 4500, Note_on_c, 2, 53, 54
3, 4530, Note_on_c, 2, 53, 0
3, 4530, Note_on_c, 2, 57, 54
3, 4550, Control_c, 2, 7, 79
3, 4560, Note_on_c, 2, 57, 0
3, 4560, Note_on_c, 2, 55, 54
3, 4600, Control_c, 2, 7, 80
3, 4620, Note_on_c, 2, 55, 0
3, 4620, Note_on_c, 2, 53, 54
3, 4650, Control_c, 2, 7, 81
3, 4680, Note_on_c, 2, 53, 0
3, 4680, Note_on_c, 2, 55, 54
3, 4700, Control_c, 2, 7, 82
3, 4740, Note_on_c, 2, 55, 0
3, 4740, Note_on_c, 2, 52, 54
3, 4750, Control_c, 2, 7, 83
3, 4800, Note_on_c, 2, 52, 0
3, 4800, Note_on_c, 2, 53, 54
3, 4800, Control_c, 2, 7, 84
3, 4830, Note_on_c, 2, 53, 0
3, 4830, Note_on_c, 2, 58, 54
3, 4840, Control_c, 2, 7, 85
3, 4860, Note_on_c, 2, 58, 0
3, 4860, Note_on_c, 2, 57, 54
3, 4890, Note_on_c, 2, 57, 0
3, 4890, Note_on_c, 2, 55, 54
3, 4890, Control_c, 2, 7, 86
3, 4920, Note_on_c, 2, 55, 0
3, 4920, Note_on_c, 2, 53, 54
3, 4940, Control_c, 2, 7, 87
3, 4950, Note_on_c, 2, 53, 0
3, 4950, Note_on_c, 2, 57, 54
3, 4980, Note_on_c, 2, 57, 0
3, 4980, Note_on_c, 2, 55, 54
3, 4990, Control_c, 2, 7, 88
3, 5010, Note_on_c, 2, 55, 0
3, 5010, Note_on_c, 2, 58, 54
3, 5040, Note_on_c, 2, 58, 0
3, 5040, Note_on_c, 2, 57, 54
3, 5040, Control_c, 2, 7, 89
3, 5070, Note_on_c, 2, 57, 0
3, 5070, Note_on_c, 2, 55, 54
3, 5090, Control_c, 2, 7, 90
3, 5100, Note_on_c, 2, 55, 0
3, 5100, Note_on_c, 2, 53, 54
3, 5130, Note_on_c, 2, 53, 0
3, 5130, Note_on_c, 2, 52, 54
3, 5130, Control_c, 2, 7, 91
3, 5160, Note_on_c, 2, 52, 0
3, 5160, Note_on_c, 2, 50, 54
3, 5180, Control_c, 2, 7, 92
3, 5190, Note_on_c, 2, 50, 0
3, 5190, Note_on_c, 2, 53, 54
3, 5220, Note_on_c, 2, 53, 0
3, 5220, Note_on_c, 2, 52, 54
3, 5230, Control_c, 2, 7, 93
3, 5250, Note_on_c, 2, 52, 0
3, 5250, Note_on_c, 2, 55, 54
3, 5280, Note_on_c, 2, 55, 0
3, 5280, Note_on_c, 2, 53, 54
3, 5280, Control_c, 2, 7, 94
3, 5310, Note_on_c, 2, 53, 0
3, 5310, Note_on_c, 2, 52, 54
3, 5330, Control_c, 2, 7, 95
3, 5340, Note_on_c, 2, 52, 0
3, 5340, Note_on_c, 2, 50, 54
3, 5370, Note_on_c, 2, 50, 0
3, 5370, Note_on_c, 2, 48, 54
3, 5380, Control_c, 2, 7, 96
3, 5400, Note_on_c, 2, 48, 0
3, 5400, Note_on_c, 2, 47, 54
3, 5420, Control_c, 2, 7, 97
3, 5430, Note_on_c, 2, 47, 0
3, 5430, Note_on_c, 2, 50, 54
3, 5460, Note_on_c, 2, 50, 0
3, 5460, Note_on_c, 2, 48, 54
3, 5470, Control_c, 2, 7, 98
3, 5490, Note_on_c, 2, 48, 0
3, 5490, Note_on_c, 2, 52, 54
3, 5520, Note_on_c, 2, 52, 0
3, 5520, Note_on_c, 2, 50, 54
3, 5520, Control_c, 2, 7, 99
3, 5550, Note_on_c, 2, 50, 0
3, 5550, Note_on_c, 2, 48, 54
3, 5570, Control_c, 2, 7, 100
3, 5580, Note_on_c, 2, 48, 0
3, 5580, Note_on_c, 2, 47, 54
3, 5610, Note_on_c, 2, 47, 0
3, 5610, Note_on_c, 2, 45, 54
3, 5620, Control_c, 2, 7, 101
3, 5640, Note_on_c, 2, 45, 0
3, 5640, Note_on_c, 2, 44, 54
3, 5670, Note_on_c, 2, 44, 0
3, 5670, Note_on_c, 2, 47, 54
3, 5670, Control_c, 2, 7, 102
3, 5700, Note_on_c, 2, 47, 0
3, 5700, Note_on_c, 2, 45, 54
3, 5710, Control_c, 2, 7, 103
3, 5730, Note_on_c, 2, 45, 0
3, 5730, Note_on_c, 2, 48, 54
3, 5760, Note_on_c, 2, 48, 0
3, 5760, Note_on_c, 2, 47, 54
3, 5760, Control_c, 2, 7, 104
3, 5810, Control_c, 2, 7, 105
3, 5820, Note_on_c, 2, 47, 0
3, 5820, Note_on_c, 2, 40, 54
3, 5860, Control_c, 2, 7, 106
3, 5880, Note_on_c, 2, 40, 0
3, 5880, Note_on_c, 2, 50, 54
3, 5895, Note_on_c, 2, 50, 0
3, 5895, Note_on_c, 2, 49, 54
3, 5910, Note_on_c, 2, 49, 0
3, 5910, Note_on_c, 2, 50, 54
3, 5910, Control_c, 2, 7, 107
3, 5960, Control_c, 2, 7, 108
3, 5970, Note_on_c, 2, 50, 0
3, 5970, Note_on_c, 2, 52, 54
3, 6000, Note_on_c, 2, 52, 0
3, 6000, Note_on_c, 2, 48, 54
3, 6000, Control_c, 2, 7, 109
3, 6030, Note_on_c, 2, 48, 0
3, 6030, Note_on_c, 2, 47, 54
3, 6060, Note_on_c, 2, 47, 0
3, 6060, Note_on_c, 2, 45, 54
3, 6090, Note_on_c, 2, 45, 0
3, 6090, Note_on_c, 2, 43, 54
3, 6120, Note_on_c, 2, 43, 0
3, 6120, Note_on_c, 2, 42, 54
3, 6150, Note_on_c, 2, 42, 0
3, 6150, Note_on_c, 2, 45, 54
3, 6180, Note_on_c, 2, 45, 0
3, 6180, Note_on_c, 2, 44, 54
3, 6210, Note_on_c, 2, 44, 0
3, 6210, Note_on_c, 2, 47, 54
3, 6240, Note_on_c, 2, 47, 0
3, 6240, Note_on_c, 2, 45, 54
3, 6270, Note_on_c, 2, 45, 0
3, 6270, Note_on_c, 2, 48, 54
3, 6300, Note_on_c, 2, 48, 0
3, 6300, Note_on_c, 2, 47, 54
3, 6330, Note_on_c, 2, 47, 0
3, 6330, Note_on_c, 2, 50, 54
3, 6360, Note_on_c, 2, 50, 0
3, 6360, Note_on_c, 2, 48, 54
3, 6390, Note_on_c, 2, 48, 0
3, 6390, Note_on_c, 2, 52, 54
3, 6420, Note_on_c, 2, 52, 0
3, 6420, Note_on_c, 2, 50, 54
3, 6450, Note_on_c, 2, 50, 0
3, 6450, Note_on_c, 2, 53, 54
3, 6480, Note_on_c, 2, 53, 0
3, 6480, Note_on_c, 2, 52, 54
3, 6480, Control_c, 2, 7, 102
3, 6510, Control_c, 2, 7, 101
3, 6540, Note_on_c, 2, 52, 0
3, 6540, Note_on_c, 2, 45, 54
3, 6540, Control_c, 2, 7, 100
3, 6560, Control_c, 2, 7, 99
3, 6590, Control_c, 2, 7, 98
3, 6600, Note_on_c, 2, 45, 0
3, 6600, Note_on_c, 2, 52, 54
3, 6610, Control_c, 2, 7, 97
3, 6640, Control_c, 2, 7, 96
3, 6660, Note_on_c, 2, 52, 0
3, 6660, Note_on_c, 2, 40, 54
3, 6660, Control_c, 2, 7, 95
3, 6690, Control_c, 2, 7, 94
3, 6710, Control_c, 2, 7, 93
3, 6720, Note_on_c, 2, 40, 0
3, 6720, Note_on_c, 2, 57, 54
3, 6740, Control_c, 2, 7, 92
3, 6770, Control_c, 2, 7, 91
3, 6780, Note_on_c, 2, 57, 0
3, 6780, Note_on_c, 2, 45, 54
3, 6790, Control_c, 2, 7, 90
3, 6810, Note_on_c, 2, 45, 0
3, 6820, Control_c, 2, 7, 89
3, 6840, Control_c, 2, 7, 88
3, 6870, Control_c, 2, 7, 87
3, 6890, Control_c, 2, 7, 86
3, 6920, Control_c, 2, 7, 85
3, 6940, Control_c, 2, 7, 84
3, 6970, Control_c, 2, 7, 83
3, 6990, Note_on_c, 2, 52, 54
3, 6990, Control_c, 2, 7, 82
3, 7020, Note_on_c, 2, 52, 0
3, 7020, Note_on_c, 2, 50, 54
3, 7050, Note_on_c, 2, 50, 0
3, 7050, Note_on_c, 2, 48, 54
3, 7080, Note_on_c, 2, 48, 0
3, 7080, Note_on_c, 2, 47, 54
3, 7110, Note_on_c, 2, 47, 0
3, 7110, Note_on_c, 2, 50, 54
3, 7140, Note_on_c, 2, 50, 0
3, 7140, Note_on_c, 2, 49, 54
3, 7170, Note_on_c, 2, 49, 0
3, 7170, Note_on_c, 2, 52, 54
3, 7200, Note_on_c, 2, 52, 0
3, 7200, Note_on_c, 2, 50, 54
3, 7470, Note_on_c, 2, 50, 0
3, 7470, Note_on_c, 2, 45, 54
3, 7500, Note_on_c, 2, 45, 0
3, 7500, Note_on_c, 2, 47, 54
3, 7530, Note_on_c, 2, 47, 0
3, 7530, Note_on_c, 2, 48, 54
3, 7560, Note_on_c, 2, 48, 0
3, 7560, Note_on_c, 2, 50, 54
3, 7590, Note_on_c, 2, 50, 0
3, 7590, Note_on_c, 2, 47, 54
3, 7620, Note_on_c, 2, 47, 0
3, 7620, Note_on_c, 2, 48, 54
3, 7650, Note_on_c, 2, 48, 0
3, 7650, Note_on_c, 2, 45, 54
3, 7680, Note_on_c, 2, 45, 0
3, 7680, Note_on_c, 2, 47, 54
3, 7690, Control_c, 2, 7, 81
3, 7760, Control_c, 2, 7, 82
3, 7820, Control_c, 2, 7, 83
3, 7880, Control_c, 2, 7, 84
3, 7940, Control_c, 2, 7, 85
3, 7950, Note_on_c, 2, 47, 0
3, 7950, Note_on_c, 2, 50, 54
3, 7980, Note_on_c, 2, 50, 0
3, 7980, Note_on_c, 2, 48, 54
3, 8010, Note_on_c, 2, 48, 0
3, 8010, Note_on_c, 2, 47, 54
3, 8010, Control_c, 2, 7, 86
3, 8040, Note_on_c, 2, 47, 0
3, 8040, Note_on_c, 2, 45, 54
3, 8070, Note_on_c, 2, 45, 0
3, 8070, Note_on_c, 2, 48, 54
3, 8070, Control_c, 2, 7, 87
3, 8100, Note_on_c, 2, 48, 0
3, 8100, Note_on_c, 2, 47, 54
3, 8130, Note_on_c, 2, 47, 0
3, 8130, Note_on_c, 2, 50, 54
3, 8130, Control_c, 2, 7, 88
3, 8160, Note_on_c, 2, 50, 0
3, 8160, Note_on_c, 2, 48, 54
3, 8190, Control_c, 2, 7, 89
3, 8250, Control_c, 2, 7, 90
3, 8320, Control_c, 2, 7, 91
3, 8380, Control_c, 2, 7, 92
3, 8430, Note_on_c, 2, 48, 0
3, 8430, Note_on_c, 2, 43, 54
3, 8440, Control_c, 2, 7, 93
3, 8460, Note_on_c, 2, 43, 0
3, 8460, Note_on_c, 2, 45, 54
3, 8490, Note_on_c, 2, 45, 0
3, 8490, Note_on_c, 2, 46, 54
3, 8500, Control_c, 2, 7, 94
3, 8520, Note_on_c, 2, 46, 0
3, 8520, Note_on_c, 2, 48, 54
3, 8550, Note_on_c, 2, 48, 0
3, 8550, Note_on_c, 2, 45, 54
3, 8560, Control_c, 2, 7, 95
3, 8580, Note_on_c, 2, 45, 0
3, 8580, Note_on_c, 2, 46, 54
3, 8610, Note_on_c, 2, 46, 0
3, 8610, Note_on_c, 2, 43, 54
3, 8630, Control_c, 2, 7, 96
3, 8640, Note_on_c, 2, 43, 0
3, 8640, Note_on_c, 2, 45, 54
3, 8690, Control_c, 2, 7, 97
3, 8700, Note_on_c, 2, 45, 0
3, 8700, Note_on_c, 2, 46, 54
3, 8750, Control_c, 2, 7, 98
3, 8760, Note_on_c, 2, 46, 0
3, 8760, Note_on_c, 2, 45, 54
3, 8810, Control_c, 2, 7, 99
3, 8820, Note_on_c, 2, 45, 0
3, 8820, Note_on_c, 2, 43, 54
3, 8880, Note_on_c, 2, 43, 0
3, 8880, Note_on_c, 2, 41, 54
3, 8880, Control_c, 2, 7, 100
3, 8940, Note_on_c, 2, 41, 0
3, 8940, Note_on_c, 2, 50, 54
3, 8940, Control_c, 2, 7, 101
3, 9000, Note_on_c, 2, 50, 0
3, 9000, Note_on_c, 2, 48, 54
3, 9000, Control_c, 2, 7, 102
3, 9060, Note_on_c, 2, 48, 0
3, 9060, Note_on_c, 2, 46, 54
3, 9060, Control_c, 2, 7, 103
3, 9120, Note_on_c, 2, 46, 0
3, 9120, Note_on_c, 2, 45, 54
3, 9120, Control_c, 2, 7, 104
3, 9180, Note_on_c, 2, 45, 0
3, 9180, Note_on_c, 2, 53, 54
3, 9190, Control_c, 2, 7, 105
3, 9240, Note_on_c, 2, 53, 0
3, 9240, Note_on_c, 2, 52, 54
3, 9250, Control_c, 2, 7, 106
3, 9300, Note_on_c, 2, 52, 0
3, 9300, Note_on_c, 2, 50, 54
3, 9310, Control_c, 2, 7, 107
3, 9360, Note_on_c, 2, 50, 0
3, 9360, Note_on_c, 2, 52, 54
3, 9370, Control_c, 2, 7, 108
3, 9390, Note_on_c, 2, 52, 0
3, 9390, Note_on_c, 2, 50, 54
3, 9420, Note_on_c, 2, 50, 0
3, 9420, Note_on_c, 2, 52, 54
3, 9430, Control_c, 2, 7, 109
3, 9450, Note_on_c, 2, 52, 0
3, 9450, Note_on_c, 2, 53, 54
3, 9480, Note_on_c, 2, 53, 0
3, 9480, Note_on_c, 2, 55, 54
3, 9510, Note_on_c, 2, 55, 0
3, 9510, Note_on_c, 2, 52, 54
3, 9540, Note_on_c, 2, 52, 0
3, 9540, Note_on_c, 2, 53, 54
3, 9570, Note_on_c, 2, 53, 0
3, 9570, Note_on_c, 2, 50, 54
3, 9600, Note_on_c, 2, 50, 0
3, 9600, Note_on_c, 2, 52, 54
3, 9650, Control_c, 2, 7, 107
3, 9660, Note_on_c, 2, 52, 0
3, 9660, Note_on_c, 2, 48, 54
3, 9670, Control_c, 2, 7, 106
3, 9690, Control_c, 2, 7, 105
3, 9710, Control_c, 2, 7, 104
3, 9720, Note_on_c, 2, 48, 0
3, 9720, Note_on_c, 2, 50, 54
3, 9730, Control_c, 2, 7, 103
3, 9750, Control_c, 2, 7, 102
3, 9770, Control_c, 2, 7, 101
3, 9780, Note_on_c, 2, 50, 0
3, 9780, Note_on_c, 2, 52, 54
3, 9790, Control_c, 2, 7, 100
3, 9810, Control_c, 2, 7, 99
3, 9830, Control_c, 2, 7, 98
3, 9840, Note_on_c, 2, 52, 0
3, 9840, Note_on_c, 2, 53, 54
3, 9850, Control_c, 2, 7, 97
3, 9870, Note_on_c, 2, 53, 0
3, 9870, Note_on_c, 2, 50, 54
3, 9870, Control_c, 2, 7, 96
3, 9890, Control_c, 2, 7, 95
3, 9900, Note_on_c, 2, 50, 0
3, 9900, Note_on_c, 2, 52, 54
3, 9910, Control_c, 2, 7, 94
3, 9930, Note_on_c, 2, 52, 0
3, 9930, Note_on_c, 2, 53, 54
3, 9930, Control_c, 2, 7, 93
3, 9950, Control_c, 2, 7, 92
3, 9960, Note_on_c, 2, 53, 0
3, 9960, Note_on_c, 2, 55, 54
3, 9970, Control_c, 2, 7, 91
3, 9990, Control_c, 2, 7, 90
3, 10010, Control_c, 2, 7, 89
3, 10020, Note_on_c, 2, 55, 0
3, 10020, Note_on_c, 2, 43, 54
3, 10030, Control_c, 2, 7, 88
3, 10050, Control_c, 2, 7, 87
3, 10070, Control_c, 2, 7, 86
3, 10080, Note_on_c, 2, 43, 0
3, 10080, Note_on_c, 2, 48, 54
3, 10090, Control_c, 2, 7, 85
3, 10110, Control_c, 2, 7, 84
3, 10130, Control_c, 2, 7, 83
3, 10150, Control_c, 2, 7, 82
3, 10170, Control_c, 2, 7, 81
3, 10560, Note_on_c, 2, 48, 0
3, 10560, End_track
4, 0, Start_track
4, 0, End_track
0, 0, End_of_file
