0, 0, Header, 1, 4, 120
1, 0, Start_track
1, 0, Title_t, "untitled"
1, 0, Text_t, "Composed by Johann Sebastian Bach (1685-1750)\012"
1, 0, Text_t, "Programmed for MIDI by Lory Werths\012"
1, 0, Time_signature, 3, 2, 24, 8
1, 0, Key_signature, -2, "major"
1, 0, Tempo, 571429
1, 16800, Tempo, 571429
1, 16819, Tempo, 576923
1, 16838, Tempo, 582524
1, 16857, Tempo, 588235
1, 16876, Tempo, 594059
1, 16896, Tempo, 600000
1, 16915, Tempo, 606061
1, 16934, Tempo, 612245
1, 16953, Tempo, 618557
1, 16972, Tempo, 625000
1, 16992, Tempo, 631579
1, 17011, Tempo, 638298
1, 17030, Tempo, 645161
1, 17049, Tempo, 652174
1, 17068, Tempo, 659341
1, 17088, Tempo, 666667
1, 17107, Tempo, 674157
1, 17126, Tempo, 681818
1, 17145, Tempo, 689655
1, 17164, Tempo, 697674
1, 17184, Tempo, 705882
1, 17203, Tempo, 714286
1, 17222, Tempo, 722892
1, 17241, Tempo, 731707
1, 17260, Tempo, 740741
1, 17280, Tempo, 750000
1, 17280, End_track
2, 0, Start_track
2, 0, Control_c, 0, 0, 0
2, 0, Control_c, 0, 7, 110
2, 0, Control_c, 0, 10, 32
2, 0, Control_c, 0, 32, 0
2, 0, Program_c, 0, 6
2, 1, Control_c, 0, 0, 0
2, 2, Program_c, 0, 6
2, 120, Control_c, 0, 1, 30
2, 360, Note_on_c, 0, 70, 100
2, 479, Note_on_c, 0, 70, 0
2, 480, Note_on_c, 0, 70, 100
2, 599, Note_on_c, 0, 70, 0
2, 600, Note_on_c, 0, 65, 100
2, 689, Note_on_c, 0, 65, 0
2, 690, Note_on_c, 0, 67, 100
2, 719, Note_on_c, 0, 67, 0
2, 720, Note_on_c, 0, 65, 100
2, 839, Note_on_c, 0, 65, 0
2, 840, Note_on_c, 0, 63, 100
2, 959, Note_on_c, 0, 63, 0
2, 960, Note_on_c, 0, 62, 100
2, 1079, Note_on_c, 0, 62, 0
2, 1080, Note_on_c, 0, 60, 100
2, 1199, Note_on_c, 0, 60, 0
2, 1200, Note_on_c, 0, 72, 100
2, 1379, Note_on_c, 0, 72, 0
2, 1380, Note_on_c, 0, 74, 100
2, 1409, Note_on_c, 0, 74, 0
2, 1410, Note_on_c, 0, 75, 100
2, 1439, Note_on_c, 0, 75, 0
2, 1440, Note_on_c, 0, 70, 100
2, 1559, Note_on_c, 0, 70, 0
2, 1560, Note_on_c, 0, 69, 100
2, 1679, Note_on_c, 0, 69, 0
2, 1680, Note_on_c, 0, 70, 100
2, 1799, Note_on_c, 0, 70, 0
2, 1800, Note_on_c, 0, 72, 100
2, 1919, Note_on_c, 0, 72, 0
2, 1920, Note_on_c, 0, 65, 100
2, 2039, Note_on_c, 0, 65, 0
2, 2040, Note_on_c, 0, 75, 100
2, 2159, Note_on_c, 0, 75, 0
2, 2160, Note_on_c, 0, 74, 100
2, 2219, Note_on_c, 0, 74, 0
2, 2220, Note_on_c, 0, 72, 100
2, 2279, Note_on_c, 0, 72, 0
2, 2280, Note_on_c, 0, 70, 100
2, 2339, Note_on_c, 0, 70, 0
2, 2340, Note_on_c, 0, 69, 100
2, 2399, Note_on_c, 0, 69, 0
2, 2400, Note_on_c, 0, 70, 100
2, 2519, Note_on_c, 0, 70, 0
2, 2520, Note_on_c, 0, 75, 100
2, 2549, Note_on_c, 0, 75, 0
2, 2550, Note_on_c, 0, 77, 100
2, 2579, Note_on_c, 0, 77, 0
2, 2580, Note_on_c, 0, 79, 100
2, 2639, Note_on_c, 0, 79, 0
2, 2640, Note_on_c, 0, 77, 100
2, 2699, Note_on_c, 0, 77, 0
2, 2700, Note_on_c, 0, 75, 100
2, 2759, Note_on_c, 0, 75, 0
2, 2760, Note_on_c, 0, 74, 100
2, 2819, Note_on_c, 0, 74, 0
2, 2820, Note_on_c, 0, 75, 100
2, 2879, Note_on_c, 0, 75, 0
2, 2880, Note_on_c, 0, 72, 100
2, 3239, Note_on_c, 0, 72, 0
2, 3240, Note_on_c, 0, 70, 100
2, 3359, Note_on_c, 0, 70, 0
2, 3360, Note_on_c, 0, 70, 100
2, 3479, Note_on_c, 0, 70, 0
2, 3480, Note_on_c, 0, 65, 100
2, 3569, Note_on_c, 0, 65, 0
2, 3570, Note_on_c, 0, 67, 100
2, 3599, Note_on_c, 0, 67, 0
2, 3600, Note_on_c, 0, 65, 100
2, 3719, Note_on_c, 0, 65, 0
2, 3720, Note_on_c, 0, 63, 100
2, 3839, Note_on_c, 0, 63, 0
2, 3840, Note_on_c, 0, 62, 100
2, 3959, Note_on_c, 0, 62, 0
2, 3960, Note_on_c, 0, 60, 100
2, 4079, Note_on_c, 0, 60, 0
2, 4080, Note_on_c, 0, 72, 100
2, 4259, Note_on_c, 0, 72, 0
2, 4260, Note_on_c, 0, 74, 100
2, 4289, Note_on_c, 0, 74, 0
2, 4290, Note_on_c, 0, 75, 100
2, 4319, Note_on_c, 0, 75, 0
2, 4320, Note_on_c, 0, 70, 100
2, 4439, Note_on_c, 0, 70, 0
2, 4440, Note_on_c, 0, 69, 100
2, 4559, Note_on_c, 0, 69, 0
2, 4560, Note_on_c, 0, 70, 100
2, 4679, Note_on_c, 0, 70, 0
2, 4680, Note_on_c, 0, 72, 100
2, 4799, Note_on_c, 0, 72, 0
2, 4800, Note_on_c, 0, 65, 100
2, 4919, Note_on_c, 0, 65, 0
2, 4920, Note_on_c, 0, 75, 100
2, 5039, Note_on_c, 0, 75, 0
2, 5040, Note_on_c, 0, 74, 100
2, 5099, Note_on_c, 0, 74, 0
2, 5100, Note_on_c, 0, 72, 100
2, 5159, Note_on_c, 0, 72, 0
2, 5160, Note_on_c, 0, 70, 100
2, 5219, Note_on_c, 0, 70, 0
2, 5220, Note_on_c, 0, 69, 100
2, 5279, Note_on_c, 0, 69, 0
2, 5280, Note_on_c, 0, 70, 100
2, 5399, Note_on_c, 0, 70, 0
2, 5400, Note_on_c, 0, 75, 100
2, 5429, Note_on_c, 0, 75, 0
2, 5430, Note_on_c, 0, 77, 100
2, 5459, Note_on_c, 0, 77, 0
2, 5460, Note_on_c, 0, 79, 100
2, 5519, Note_on_c, 0, 79, 0
2, 5520, Note_on_c, 0, 77, 100
2, 5579, Note_on_c, 0, 77, 0
2, 5580, Note_on_c, 0, 75, 100
2, 5639, Note_on_c, 0, 75, 0
2, 5640, Note_on_c, 0, 74, 100
2, 5699, Note_on_c, 0, 74, 0
2, 5700, Note_on_c, 0, 75, 100
2, 5759, Note_on_c, 0, 75, 0
2, 5760, Note_on_c, 0, 72, 100
2, 6119, Note_on_c, 0, 72, 0
2, 6120, Note_on_c, 0, 69, 100
2, 6239, Note_on_c, 0, 69, 0
2, 6240, Note_on_c, 0, 69, 100
2, 6329, Note_on_c, 0, 69, 0
2, 6330, Note_on_c, 0, 70, 100
2, 6359, Note_on_c, 0, 70, 0
2, 6360, Note_on_c, 0, 72, 100
2, 6375, Note_on_c, 0, 72, 0
2, 6375, Note_on_c, 0, 70, 100
2, 6390, Note_on_c, 0, 70, 0
2, 6390, Note_on_c, 0, 72, 100
2, 6405, Note_on_c, 0, 72, 0
2, 6405, Note_on_c, 0, 70, 100
2, 6420, Note_on_c, 0, 70, 0
2, 6420, Note_on_c, 0, 72, 100
2, 6435, Note_on_c, 0, 72, 0
2, 6435, Note_on_c, 0, 70, 100
2, 6450, Note_on_c, 0, 70, 0
2, 6450, Note_on_c, 0, 69, 100
2, 6465, Note_on_c, 0, 69, 0
2, 6465, Note_on_c, 0, 70, 100
2, 6480, Note_on_c, 0, 70, 0
2, 6480, Note_on_c, 0, 72, 100
2, 6599, Note_on_c, 0, 72, 0
2, 6600, Note_on_c, 0, 70, 100
2, 6659, Note_on_c, 0, 70, 0
2, 6660, Note_on_c, 0, 69, 100
2, 6719, Note_on_c, 0, 69, 0
2, 6720, Note_on_c, 0, 67, 100
2, 6779, Note_on_c, 0, 67, 0
2, 6780, Note_on_c, 0, 65, 100
2, 6839, Note_on_c, 0, 65, 0
2, 6840, Note_on_c, 0, 70, 100
2, 6959, Note_on_c, 0, 70, 0
2, 6960, Note_on_c, 0, 69, 100
2, 7019, Note_on_c, 0, 69, 0
2, 7020, Note_on_c, 0, 67, 100
2, 7079, Note_on_c, 0, 67, 0
2, 7080, Note_on_c, 0, 69, 100
2, 7139, Note_on_c, 0, 69, 0
2, 7140, Note_on_c, 0, 65, 100
2, 7199, Note_on_c, 0, 65, 0
2, 7200, Note_on_c, 0, 67, 100
2, 7259, Note_on_c, 0, 67, 0
2, 7260, Note_on_c, 0, 65, 100
2, 7319, Note_on_c, 0, 65, 0
2, 7320, Note_on_c, 0, 64, 100
2, 7379, Note_on_c, 0, 64, 0
2, 7380, Note_on_c, 0, 62, 100
2, 7439, Note_on_c, 0, 62, 0
2, 7440, Note_on_c, 0, 64, 100
2, 7499, Note_on_c, 0, 64, 0
2, 7500, Note_on_c, 0, 60, 100
2, 7559, Note_on_c, 0, 60, 0
2, 7560, Note_on_c, 0, 60, 100
2, 7619, Note_on_c, 0, 60, 0
2, 7620, Note_on_c, 0, 62, 100
2, 7679, Note_on_c, 0, 62, 0
2, 7680, Note_on_c, 0, 64, 100
2, 7739, Note_on_c, 0, 64, 0
2, 7740, Note_on_c, 0, 65, 100
2, 7799, Note_on_c, 0, 65, 0
2, 7800, Note_on_c, 0, 67, 100
2, 7859, Note_on_c, 0, 67, 0
2, 7860, Note_on_c, 0, 69, 100
2, 7919, Note_on_c, 0, 69, 0
2, 7920, Note_on_c, 0, 70, 100
2, 8039, Note_on_c, 0, 70, 0
2, 8040, Note_on_c, 0, 76, 100
2, 8159, Note_on_c, 0, 76, 0
2, 8160, Note_on_c, 0, 76, 100
2, 8189, Note_on_c, 0, 76, 0
2, 8190, Note_on_c, 0, 77, 100
2, 8219, Note_on_c, 0, 77, 0
2, 8220, Note_on_c, 0, 79, 100
2, 8279, Note_on_c, 0, 79, 0
2, 8280, Note_on_c, 0, 72, 100
2, 8399, Note_on_c, 0, 72, 0
2, 8400, Note_on_c, 0, 70, 100
2, 8459, Note_on_c, 0, 70, 0
2, 8460, Note_on_c, 0, 69, 100
2, 8519, Note_on_c, 0, 69, 0
2, 8520, Note_on_c, 0, 67, 100
2, 8579, Note_on_c, 0, 67, 0
2, 8580, Note_on_c, 0, 69, 100
2, 8639, Note_on_c, 0, 69, 0
2, 8640, Note_on_c, 0, 65, 100
2, 8999, Note_on_c, 0, 65, 0
2, 9000, Note_on_c, 0, 65, 100
2, 9119, Note_on_c, 0, 65, 0
2, 9120, Note_on_c, 0, 70, 100
2, 9239, Note_on_c, 0, 70, 0
2, 9240, Note_on_c, 0, 70, 100
2, 9269, Note_on_c, 0, 70, 0
2, 9270, Note_on_c, 0, 72, 100
2, 9299, Note_on_c, 0, 72, 0
2, 9300, Note_on_c, 0, 74, 100
2, 9359, Note_on_c, 0, 74, 0
2, 9360, Note_on_c, 0, 65, 100
2, 9479, Note_on_c, 0, 65, 0
2, 9480, Note_on_c, 0, 72, 100
2, 9599, Note_on_c, 0, 72, 0
2, 9600, Note_on_c, 0, 72, 100
2, 9629, Note_on_c, 0, 72, 0
2, 9630, Note_on_c, 0, 74, 100
2, 9659, Note_on_c, 0, 74, 0
2, 9660, Note_on_c, 0, 75, 100
2, 9719, Note_on_c, 0, 75, 0
2, 9720, Note_on_c, 0, 74, 100
2, 9779, Note_on_c, 0, 74, 0
2, 9780, Note_on_c, 0, 77, 100
2, 9839, Note_on_c, 0, 77, 0
2, 9840, Note_on_c, 0, 75, 100
2, 9899, Note_on_c, 0, 75, 0
2, 9900, Note_on_c, 0, 74, 100
2, 9959, Note_on_c, 0, 74, 0
2, 9960, Note_on_c, 0, 72, 100
2, 10019, Note_on_c, 0, 72, 0
2, 10020, Note_on_c, 0, 70, 100
2, 10079, Note_on_c, 0, 70, 0
2, 10080, Note_on_c, 0, 69, 100
2, 10199, Note_on_c, 0, 69, 0
2, 10200, Note_on_c, 0, 67, 100
2, 10259, Note_on_c, 0, 67, 0
2, 10260, Note_on_c, 0, 69, 100
2, 10319, Note_on_c, 0, 69, 0
2, 10320, Note_on_c, 0, 65, 100
2, 10439, Note_on_c, 0, 65, 0
2, 10440, Note_on_c, 0, 70, 100
2, 10559, Note_on_c, 0, 70, 0
2, 10560, Note_on_c, 0, 70, 100
2, 10679, Note_on_c, 0, 70, 0
2, 10680, Note_on_c, 0, 69, 100
2, 10799, Note_on_c, 0, 69, 0
2, 10800, Note_on_c, 0, 67, 100
2, 10919, Note_on_c, 0, 67, 0
2, 10920, Note_on_c, 0, 65, 100
2, 10979, Note_on_c, 0, 65, 0
2, 10980, Note_on_c, 0, 63, 100
2, 11039, Note_on_c, 0, 63, 0
2, 11040, Note_on_c, 0, 62, 100
2, 11159, Note_on_c, 0, 62, 0
2, 11160, Note_on_c, 0, 75, 100
2, 11279, Note_on_c, 0, 75, 0
2, 11280, Note_on_c, 0, 74, 100
2, 11399, Note_on_c, 0, 74, 0
2, 11400, Note_on_c, 0, 72, 100
2, 11519, Note_on_c, 0, 72, 0
2, 11520, Note_on_c, 0, 70, 100
2, 11879, Note_on_c, 0, 70, 0
2, 11880, Note_on_c, 0, 69, 100
2, 11999, Note_on_c, 0, 69, 0
2, 12000, Note_on_c, 0, 69, 100
2, 12089, Note_on_c, 0, 69, 0
2, 12090, Note_on_c, 0, 70, 100
2, 12119, Note_on_c, 0, 70, 0
2, 12120, Note_on_c, 0, 72, 100
2, 12135, Note_on_c, 0, 72, 0
2, 12135, Note_on_c, 0, 70, 100
2, 12150, Note_on_c, 0, 70, 0
2, 12150, Note_on_c, 0, 72, 100
2, 12165, Note_on_c, 0, 72, 0
2, 12165, Note_on_c, 0, 70, 100
2, 12180, Note_on_c, 0, 70, 0
2, 12180, Note_on_c, 0, 72, 100
2, 12195, Note_on_c, 0, 72, 0
2, 12195, Note_on_c, 0, 70, 100
2, 12210, Note_on_c, 0, 70, 0
2, 12210, Note_on_c, 0, 69, 100
2, 12225, Note_on_c, 0, 69, 0
2, 12225, Note_on_c, 0, 70, 100
2, 12240, Note_on_c, 0, 70, 0
2, 12240, Note_on_c, 0, 72, 100
2, 12359, Note_on_c, 0, 72, 0
2, 12360, Note_on_c, 0, 70, 100
2, 12419, Note_on_c, 0, 70, 0
2, 12420, Note_on_c, 0, 69, 100
2, 12479, Note_on_c, 0, 69, 0
2, 12480, Note_on_c, 0, 67, 100
2, 12539, Note_on_c, 0, 67, 0
2, 12540, Note_on_c, 0, 65, 100
2, 12599, Note_on_c, 0, 65, 0
2, 12600, Note_on_c, 0, 70, 100
2, 12719, Note_on_c, 0, 70, 0
2, 12720, Note_on_c, 0, 69, 100
2, 12779, Note_on_c, 0, 69, 0
2, 12780, Note_on_c, 0, 67, 100
2, 12839, Note_on_c, 0, 67, 0
2, 12840, Note_on_c, 0, 69, 100
2, 12899, Note_on_c, 0, 69, 0
2, 12900, Note_on_c, 0, 65, 100
2, 12959, Note_on_c, 0, 65, 0
2, 12960, Note_on_c, 0, 67, 100
2, 13019, Note_on_c, 0, 67, 0
2, 13020, Note_on_c, 0, 65, 100
2, 13079, Note_on_c, 0, 65, 0
2, 13080, Note_on_c, 0, 64, 100
2, 13139, Note_on_c, 0, 64, 0
2, 13140, Note_on_c, 0, 62, 100
2, 13199, Note_on_c, 0, 62, 0
2, 13200, Note_on_c, 0, 64, 100
2, 13259, Note_on_c, 0, 64, 0
2, 13260, Note_on_c, 0, 60, 100
2, 13319, Note_on_c, 0, 60, 0
2, 13320, Note_on_c, 0, 60, 100
2, 13379, Note_on_c, 0, 60, 0
2, 13380, Note_on_c, 0, 62, 100
2, 13439, Note_on_c, 0, 62, 0
2, 13440, Note_on_c, 0, 64, 100
2, 13499, Note_on_c, 0, 64, 0
2, 13500, Note_on_c, 0, 65, 100
2, 13559, Note_on_c, 0, 65, 0
2, 13560, Note_on_c, 0, 67, 100
2, 13619, Note_on_c, 0, 67, 0
2, 13620, Note_on_c, 0, 69, 100
2, 13679, Note_on_c, 0, 69, 0
2, 13680, Note_on_c, 0, 70, 100
2, 13799, Note_on_c, 0, 70, 0
2, 13800, Note_on_c, 0, 76, 100
2, 13919, Note_on_c, 0, 76, 0
2, 13920, Note_on_c, 0, 76, 100
2, 13949, Note_on_c, 0, 76, 0
2, 13950, Note_on_c, 0, 77, 100
2, 13979, Note_on_c, 0, 77, 0
2, 13980, Note_on_c, 0, 79, 100
2, 14039, Note_on_c, 0, 79, 0
2, 14040, Note_on_c, 0, 72, 100
2, 14159, Note_on_c, 0, 72, 0
2, 14160, Note_on_c, 0, 70, 100
2, 14219, Note_on_c, 0, 70, 0
2, 14220, Note_on_c, 0, 69, 100
2, 14279, Note_on_c, 0, 69, 0
2, 14280, Note_on_c, 0, 67, 100
2, 14339, Note_on_c, 0, 67, 0
2, 14340, Note_on_c, 0, 69, 100
2, 14399, Note_on_c, 0, 69, 0
2, 14400, Note_on_c, 0, 65, 100
2, 14759, Note_on_c, 0, 65, 0
2, 14760, Note_on_c, 0, 65, 100
2, 14879, Note_on_c, 0, 65, 0
2, 14880, Note_on_c, 0, 70, 100
2, 14999, Note_on_c, 0, 70, 0
2, 15000, Note_on_c, 0, 70, 100
2, 15029, Note_on_c, 0, 70, 0
2, 15030, Note_on_c, 0, 72, 100
2, 15059, Note_on_c, 0, 72, 0
2, 15060, Note_on_c, 0, 74, 100
2, 15119, Note_on_c, 0, 74, 0
2, 15120, Note_on_c, 0, 65, 100
2, 15239, Note_on_c, 0, 65, 0
2, 15240, Note_on_c, 0, 72, 100
2, 15359, Note_on_c, 0, 72, 0
2, 15360, Note_on_c, 0, 72, 100
2, 15389, Note_on_c, 0, 72, 0
2, 15390, Note_on_c, 0, 74, 100
2, 15419, Note_on_c, 0, 74, 0
2, 15420, Note_on_c, 0, 75, 100
2, 15479, Note_on_c, 0, 75, 0
2, 15480, Note_on_c, 0, 74, 100
2, 15539, Note_on_c, 0, 74, 0
2, 15540, Note_on_c, 0, 77, 100
2, 15599, Note_on_c, 0, 77, 0
2, 15600, Note_on_c, 0, 75, 100
2, 15659, Note_on_c, 0, 75, 0
2, 15660, Note_on_c, 0, 74, 100
2, 15719, Note_on_c, 0, 74, 0
2, 15720, Note_on_c, 0, 72, 100
2, 15779, Note_on_c, 0, 72, 0
2, 15780, Note_on_c, 0, 70, 100
2, 15839, Note_on_c, 0, 70, 0
2, 15840, Note_on_c, 0, 69, 100
2, 15959, Note_on_c, 0, 69, 0
2, 15960, Note_on_c, 0, 67, 100
2, 16019, Note_on_c, 0, 67, 0
2, 16020, Note_on_c, 0, 69, 100
2, 16079, Note_on_c, 0, 69, 0
2, 16080, Note_on_c, 0, 65, 100
2, 16199, Note_on_c, 0, 65, 0
2, 16200, Note_on_c, 0, 70, 100
2, 16319, Note_on_c, 0, 70, 0
2, 16320, Note_on_c, 0, 70, 100
2, 16439, Note_on_c, 0, 70, 0
2, 16440, Note_on_c, 0, 69, 100
2, 16559, Note_on_c, 0, 69, 0
2, 16560, Note_on_c, 0, 67, 100
2, 16679, Note_on_c, 0, 67, 0
2, 16680, Note_on_c, 0, 65, 100
2, 16739, Note_on_c, 0, 65, 0
2, 16740, Note_on_c, 0, 63, 100
2, 16799, Note_on_c, 0, 63, 0
2, 16800, Note_on_c, 0, 62, 100
2, 16919, Note_on_c, 0, 62, 0
2, 16920, Note_on_c, 0, 75, 100
2, 17039, Note_on_c, 0, 75, 0
2, 17040, Note_on_c, 0, 74, 100
2, 17159, Note_on_c, 0, 74, 0
2, 17160, Note_on_c, 0, 72, 100
2, 17279, Note_on_c, 0, 72, 0
2, 17280, Note_on_c, 0, 70, 100
2, 17639, Note_on_c, 0, 70, 0
2, 17640, Control_c, 0, 1, 0
2, 17640, End_track
3, 0, Start_track
3, 0, Control_c, 1, 0, 0
3, 0, Control_c, 1, 7, 105
3, 0, Control_c, 1, 10, 95
3, 0, Control_c, 1, 32, 127
3, 0, Program_c, 1, 17
3, 1, Control_c, 1, 0, 127
3, 2, Program_c, 1, 17
3, 360, Note_on_c, 1, 46, 85
3, 419, Note_on_c, 1, 46, 0
3, 420, Note_on_c, 1, 48, 85
3, 479, Note_on_c, 1, 48, 0
3, 480, Note_on_c, 1, 50, 85
3, 539, Note_on_c, 1, 50, 0
3, 540, Note_on_c, 1, 48, 85
3, 599, Note_on_c, 1, 48, 0
3, 600, Note_on_c, 1, 50, 85
3, 659, Note_on_c, 1, 50, 0
3, 660, Note_on_c, 1, 46, 85
3, 719, Note_on_c, 1, 46, 0
3, 720, Note_on_c, 1, 48, 85
3, 779, Note_on_c, 1, 48, 0
3, 780, Note_on_c, 1, 46, 85
3, 839, Note_on_c, 1, 46, 0
3, 840, Note_on_c, 1, 48, 85
3, 899, Note_on_c, 1, 48, 0
3, 900, Note_on_c, 1, 41, 85
3, 959, Note_on_c, 1, 41, 0
3, 960, Note_on_c, 1, 46, 85
3, 1079, Note_on_c, 1, 46, 0
3, 1080, Note_on_c, 1, 39, 85
3, 1139, Note_on_c, 1, 39, 0
3, 1140, Note_on_c, 1, 55, 85
3, 1199, Note_on_c, 1, 55, 0
3, 1200, Note_on_c, 1, 53, 85
3, 1259, Note_on_c, 1, 53, 0
3, 1260, Note_on_c, 1, 51, 85
3, 1319, Note_on_c, 1, 51, 0
3, 1320, Note_on_c, 1, 50, 85
3, 1379, Note_on_c, 1, 50, 0
3, 1380, Note_on_c, 1, 48, 85
3, 1439, Note_on_c, 1, 48, 0
3, 1440, Note_on_c, 1, 53, 85
3, 1499, Note_on_c, 1, 53, 0
3, 1500, Note_on_c, 1, 48, 85
3, 1559, Note_on_c, 1, 48, 0
3, 1560, Note_on_c, 1, 51, 85
3, 1619, Note_on_c, 1, 51, 0
3, 1620, Note_on_c, 1, 50, 85
3, 1679, Note_on_c, 1, 50, 0
3, 1680, Note_on_c, 1, 48, 85
3, 1739, Note_on_c, 1, 48, 0
3, 1740, Note_on_c, 1, 46, 85
3, 1799, Note_on_c, 1, 46, 0
3, 1800, Note_on_c, 1, 45, 85
3, 1859, Note_on_c, 1, 45, 0
3, 1860, Note_on_c, 1, 48, 85
3, 1919, Note_on_c, 1, 48, 0
3, 1920, Note_on_c, 1, 46, 85
3, 1979, Note_on_c, 1, 46, 0
3, 1980, Note_on_c, 1, 45, 85
3, 2039, Note_on_c, 1, 45, 0
3, 2040, Note_on_c, 1, 43, 85
3, 2099, Note_on_c, 1, 43, 0
3, 2100, Note_on_c, 1, 41, 85
3, 2159, Note_on_c, 1, 41, 0
3, 2160, Note_on_c, 1, 46, 85
3, 2279, Note_on_c, 1, 46, 0
3, 2280, Note_on_c, 1, 48, 85
3, 2399, Note_on_c, 1, 48, 0
3, 2400, Note_on_c, 1, 50, 85
3, 2519, Note_on_c, 1, 50, 0
3, 2520, Note_on_c, 1, 43, 85
3, 2639, Note_on_c, 1, 43, 0
3, 2640, Note_on_c, 1, 45, 85
3, 2759, Note_on_c, 1, 45, 0
3, 2760, Note_on_c, 1, 46, 85
3, 2879, Note_on_c, 1, 46, 0
3, 2880, Note_on_c, 1, 41, 85
3, 2939, Note_on_c, 1, 41, 0
3, 2940, Note_on_c, 1, 40, 85
3, 2999, Note_on_c, 1, 40, 0
3, 3000, Note_on_c, 1, 41, 85
3, 3059, Note_on_c, 1, 41, 0
3, 3060, Note_on_c, 1, 43, 85
3, 3119, Note_on_c, 1, 43, 0
3, 3120, Note_on_c, 1, 45, 85
3, 3179, Note_on_c, 1, 45, 0
3, 3180, Note_on_c, 1, 41, 85
3, 3239, Note_on_c, 1, 41, 0
3, 3240, Note_on_c, 1, 46, 85
3, 3299, Note_on_c, 1, 46, 0
3, 3300, Note_on_c, 1, 48, 85
3, 3359, Note_on_c, 1, 48, 0
3, 3360, Note_on_c, 1, 50, 85
3, 3419, Note_on_c, 1, 50, 0
3, 3420, Note_on_c, 1, 48, 85
3, 3479, Note_on_c, 1, 48, 0
3, 3480, Note_on_c, 1, 50, 85
3, 3539, Note_on_c, 1, 50, 0
3, 3540, Note_on_c, 1, 46, 85
3, 3599, Note_on_c, 1, 46, 0
3, 3600, Note_on_c, 1, 48, 85
3, 3659, Note_on_c, 1, 48, 0
3, 3660, Note_on_c, 1, 46, 85
3, 3719, Note_on_c, 1, 46, 0
3, 3720, Note_on_c, 1, 48, 85
3, 3779, Note_on_c, 1, 48, 0
3, 3780, Note_on_c, 1, 41, 85
3, 3839, Note_on_c, 1, 41, 0
3, 3840, Note_on_c, 1, 46, 85
3, 3959, Note_on_c, 1, 46, 0
3, 3960, Note_on_c, 1, 39, 85
3, 4019, Note_on_c, 1, 39, 0
3, 4020, Note_on_c, 1, 55, 85
3, 4079, Note_on_c, 1, 55, 0
3, 4080, Note_on_c, 1, 53, 85
3, 4139, Note_on_c, 1, 53, 0
3, 4140, Note_on_c, 1, 51, 85
3, 4199, Note_on_c, 1, 51, 0
3, 4200, Note_on_c, 1, 50, 85
3, 4259, Note_on_c, 1, 50, 0
3, 4260, Note_on_c, 1, 48, 85
3, 4319, Note_on_c, 1, 48, 0
3, 4320, Note_on_c, 1, 53, 85
3, 4379, Note_on_c, 1, 53, 0
3, 4380, Note_on_c, 1, 48, 85
3, 4439, Note_on_c, 1, 48, 0
3, 4440, Note_on_c, 1, 51, 85
3, 4499, Note_on_c, 1, 51, 0
3, 4500, Note_on_c, 1, 50, 85
3, 4559, Note_on_c, 1, 50, 0
3, 4560, Note_on_c, 1, 48, 85
3, 4619, Note_on_c, 1, 48, 0
3, 4620, Note_on_c, 1, 46, 85
3, 4679, Note_on_c, 1, 46, 0
3, 4680, Note_on_c, 1, 45, 85
3, 4739, Note_on_c, 1, 45, 0
3, 4740, Note_on_c, 1, 48, 85
3, 4799, Note_on_c, 1, 48, 0
3, 4800, Note_on_c, 1, 46, 85
3, 4859, Note_on_c, 1, 46, 0
3, 4860, Note_on_c, 1, 45, 85
3, 4919, Note_on_c, 1, 45, 0
3, 4920, Note_on_c, 1, 43, 85
3, 4979, Note_on_c, 1, 43, 0
3, 4980, Note_on_c, 1, 41, 85
3, 5039, Note_on_c, 1, 41, 0
3, 5040, Note_on_c, 1, 46, 85
3, 5159, Note_on_c, 1, 46, 0
3, 5160, Note_on_c, 1, 48, 85
3, 5279, Note_on_c, 1, 48, 0
3, 5280, Note_on_c, 1, 50, 85
3, 5399, Note_on_c, 1, 50, 0
3, 5400, Note_on_c, 1, 43, 85
3, 5519, Note_on_c, 1, 43, 0
3, 5520, Note_on_c, 1, 45, 85
3, 5639, Note_on_c, 1, 45, 0
3, 5640, Note_on_c, 1, 46, 85
3, 5759, Note_on_c, 1, 46, 0
3, 5760, Note_on_c, 1, 41, 85
3, 5879, Note_on_c, 1, 41, 0
3, 5880, Note_on_c, 1, 45, 85
3, 5999, Note_on_c, 1, 45, 0
3, 6000, Note_on_c, 1, 48, 85
3, 6119, Note_on_c, 1, 48, 0
3, 6120, Note_on_c, 1, 53, 85
3, 6179, Note_on_c, 1, 53, 0
3, 6180, Note_on_c, 1, 51, 85
3, 6239, Note_on_c, 1, 51, 0
3, 6240, Note_on_c, 1, 50, 85
3, 6299, Note_on_c, 1, 50, 0
3, 6300, Note_on_c, 1, 48, 85
3, 6359, Note_on_c, 1, 48, 0
3, 6360, Note_on_c, 1, 50, 85
3, 6419, Note_on_c, 1, 50, 0
3, 6420, Note_on_c, 1, 46, 85
3, 6479, Note_on_c, 1, 46, 0
3, 6480, Note_on_c, 1, 53, 85
3, 6539, Note_on_c, 1, 53, 0
3, 6540, Note_on_c, 1, 41, 85
3, 6599, Note_on_c, 1, 41, 0
3, 6600, Note_on_c, 1, 43, 85
3, 6659, Note_on_c, 1, 43, 0
3, 6660, Note_on_c, 1, 45, 85
3, 6719, Note_on_c, 1, 45, 0
3, 6720, Note_on_c, 1, 46, 85
3, 6779, Note_on_c, 1, 46, 0
3, 6780, Note_on_c, 1, 48, 85
3, 6839, Note_on_c, 1, 48, 0
3, 6840, Note_on_c, 1, 50, 85
3, 6959, Note_on_c, 1, 50, 0
3, 6960, Note_on_c, 1, 52, 85
3, 7079, Note_on_c, 1, 52, 0
3, 7080, Note_on_c, 1, 53, 85
3, 7199, Note_on_c, 1, 53, 0
3, 7200, Note_on_c, 1, 48, 85
3, 7319, Note_on_c, 1, 48, 0
3, 7320, Note_on_c, 1, 60, 85
3, 7439, Note_on_c, 1, 60, 0
3, 7440, Note_on_c, 1, 58, 85
3, 7559, Note_on_c, 1, 58, 0
3, 7560, Note_on_c, 1, 57, 85
3, 7679, Note_on_c, 1, 57, 0
3, 7680, Note_on_c, 1, 55, 85
3, 7799, Note_on_c, 1, 55, 0
3, 7800, Note_on_c, 1, 53, 85
3, 7919, Note_on_c, 1, 53, 0
3, 7920, Note_on_c, 1, 52, 85
3, 7979, Note_on_c, 1, 52, 0
3, 7980, Note_on_c, 1, 50, 85
3, 8039, Note_on_c, 1, 50, 0
3, 8040, Note_on_c, 1, 48, 85
3, 8099, Note_on_c, 1, 48, 0
3, 8100, Note_on_c, 1, 46, 85
3, 8159, Note_on_c, 1, 46, 0
3, 8160, Note_on_c, 1, 45, 85
3, 8219, Note_on_c, 1, 45, 0
3, 8220, Note_on_c, 1, 43, 85
3, 8279, Note_on_c, 1, 43, 0
3, 8280, Note_on_c, 1, 45, 85
3, 8399, Note_on_c, 1, 45, 0
3, 8400, Note_on_c, 1, 46, 85
3, 8519, Note_on_c, 1, 46, 0
3, 8520, Note_on_c, 1, 48, 85
3, 8639, Note_on_c, 1, 48, 0
3, 8640, Note_on_c, 1, 41, 85
3, 8699, Note_on_c, 1, 41, 0
3, 8700, Note_on_c, 1, 48, 85
3, 8759, Note_on_c, 1, 48, 0
3, 8760, Note_on_c, 1, 53, 85
3, 8819, Note_on_c, 1, 53, 0
3, 8820, Note_on_c, 1, 50, 85
3, 8879, Note_on_c, 1, 50, 0
3, 8880, Note_on_c, 1, 51, 85
3, 8939, Note_on_c, 1, 51, 0
3, 8940, Note_on_c, 1, 48, 85
3, 8999, Note_on_c, 1, 48, 0
3, 9000, Note_on_c, 1, 50, 85
3, 9059, Note_on_c, 1, 50, 0
3, 9060, Note_on_c, 1, 53, 85
3, 9119, Note_on_c, 1, 53, 0
3, 9120, Note_on_c, 1, 51, 85
3, 9179, Note_on_c, 1, 51, 0
3, 9180, Note_on_c, 1, 50, 85
3, 9239, Note_on_c, 1, 50, 0
3, 9240, Note_on_c, 1, 48, 85
3, 9299, Note_on_c, 1, 48, 0
3, 9300, Note_on_c, 1, 46, 85
3, 9359, Note_on_c, 1, 46, 0
3, 9360, Note_on_c, 1, 45, 85
3, 9419, Note_on_c, 1, 45, 0
3, 9420, Note_on_c, 1, 48, 85
3, 9479, Note_on_c, 1, 48, 0
3, 9480, Note_on_c, 1, 46, 85
3, 9539, Note_on_c, 1, 46, 0
3, 9540, Note_on_c, 1, 45, 85
3, 9599, Note_on_c, 1, 45, 0
3, 9600, Note_on_c, 1, 43, 85
3, 9659, Note_on_c, 1, 43, 0
3, 9660, Note_on_c, 1, 41, 85
3, 9719, Note_on_c, 1, 41, 0
3, 9720, Note_on_c, 1, 46, 85
3, 9839, Note_on_c, 1, 46, 0
3, 9840, Note_on_c, 1, 43, 85
3, 9959, Note_on_c, 1, 43, 0
3, 9960, Note_on_c, 1, 39, 85
3, 10079, Note_on_c, 1, 39, 0
3, 10080, Note_on_c, 1, 41, 85
3, 10139, Note_on_c, 1, 41, 0
3, 10140, Note_on_c, 1, 53, 85
3, 10199, Note_on_c, 1, 53, 0
3, 10200, Note_on_c, 1, 51, 85
3, 10259, Note_on_c, 1, 51, 0
3, 10260, Note_on_c, 1, 50, 85
3, 10319, Note_on_c, 1, 50, 0
3, 10320, Note_on_c, 1, 51, 85
3, 10379, Note_on_c, 1, 51, 0
3, 10380, Note_on_c, 1, 48, 85
3, 10439, Note_on_c, 1, 48, 0
3, 10440, Note_on_c, 1, 50, 85
3, 10499, Note_on_c, 1, 50, 0
3, 10500, Note_on_c, 1, 48, 85
3, 10559, Note_on_c, 1, 48, 0
3, 10560, Note_on_c, 1, 50, 85
3, 10619, Note_on_c, 1, 50, 0
3, 10620, Note_on_c, 1, 46, 85
3, 10679, Note_on_c, 1, 46, 0
3, 10680, Note_on_c, 1, 48, 85
3, 10739, Note_on_c, 1, 48, 0
3, 10740, Note_on_c, 1, 50, 85
3, 10799, Note_on_c, 1, 50, 0
3, 10800, Note_on_c, 1, 51, 85
3, 10859, Note_on_c, 1, 51, 0
3, 10860, Note_on_c, 1, 53, 85
3, 10919, Note_on_c, 1, 53, 0
3, 10920, Note_on_c, 1, 55, 85
3, 10979, Note_on_c, 1, 55, 0
3, 10980, Note_on_c, 1, 57, 85
3, 11039, Note_on_c, 1, 57, 0
3, 11040, Note_on_c, 1, 58, 85
3, 11099, Note_on_c, 1, 58, 0
3, 11100, Note_on_c, 1, 57, 85
3, 11159, Note_on_c, 1, 57, 0
3, 11160, Note_on_c, 1, 55, 85
3, 11279, Note_on_c, 1, 55, 0
3, 11280, Note_on_c, 1, 51, 85
3, 11399, Note_on_c, 1, 51, 0
3, 11400, Note_on_c, 1, 53, 85
3, 11519, Note_on_c, 1, 53, 0
3, 11520, Note_on_c, 1, 46, 85
3, 11579, Note_on_c, 1, 46, 0
3, 11580, Note_on_c, 1, 45, 85
3, 11639, Note_on_c, 1, 45, 0
3, 11640, Note_on_c, 1, 46, 85
3, 11699, Note_on_c, 1, 46, 0
3, 11700, Note_on_c, 1, 48, 85
3, 11759, Note_on_c, 1, 48, 0
3, 11760, Note_on_c, 1, 50, 85
3, 11819, Note_on_c, 1, 50, 0
3, 11820, Note_on_c, 1, 51, 85
3, 11879, Note_on_c, 1, 51, 0
3, 11880, Note_on_c, 1, 53, 85
3, 11939, Note_on_c, 1, 53, 0
3, 11940, Note_on_c, 1, 51, 85
3, 11999, Note_on_c, 1, 51, 0
3, 12000, Note_on_c, 1, 50, 85
3, 12059, Note_on_c, 1, 50, 0
3, 12060, Note_on_c, 1, 48, 85
3, 12119, Note_on_c, 1, 48, 0
3, 12120, Note_on_c, 1, 50, 85
3, 12179, Note_on_c, 1, 50, 0
3, 12180, Note_on_c, 1, 46, 85
3, 12239, Note_on_c, 1, 46, 0
3, 12240, Note_on_c, 1, 53, 85
3, 12299, Note_on_c, 1, 53, 0
3, 12300, Note_on_c, 1, 41, 85
3, 12359, Note_on_c, 1, 41, 0
3, 12360, Note_on_c, 1, 43, 85
3, 12419, Note_on_c, 1, 43, 0
3, 12420, Note_on_c, 1, 45, 85
3, 12479, Note_on_c, 1, 45, 0
3, 12480, Note_on_c, 1, 46, 85
3, 12539, Note_on_c, 1, 46, 0
3, 12540, Note_on_c, 1, 48, 85
3, 12599, Note_on_c, 1, 48, 0
3, 12600, Note_on_c, 1, 50, 85
3, 12719, Note_on_c, 1, 50, 0
3, 12720, Note_on_c, 1, 52, 85
3, 12839, Note_on_c, 1, 52, 0
3, 12840, Note_on_c, 1, 53, 85
3, 12959, Note_on_c, 1, 53, 0
3, 12960, Note_on_c, 1, 48, 85
3, 13079, Note_on_c, 1, 48, 0
3, 13080, Note_on_c, 1, 60, 85
3, 13199, Note_on_c, 1, 60, 0
3, 13200, Note_on_c, 1, 58, 85
3, 13319, Note_on_c, 1, 58, 0
3, 13320, Note_on_c, 1, 57, 85
3, 13439, Note_on_c, 1, 57, 0
3, 13440, Note_on_c, 1, 55, 85
3, 13559, Note_on_c, 1, 55, 0
3, 13560, Note_on_c, 1, 53, 85
3, 13679, Note_on_c, 1, 53, 0
3, 13680, Note_on_c, 1, 52, 85
3, 13739, Note_on_c, 1, 52, 0
3, 13740, Note_on_c, 1, 50, 85
3, 13799, Note_on_c, 1, 50, 0
3, 13800, Note_on_c, 1, 48, 85
3, 13859, Note_on_c, 1, 48, 0
3, 13860, Note_on_c, 1, 46, 85
3, 13919, Note_on_c, 1, 46, 0
3, 13920, Note_on_c, 1, 45, 85
3, 13979, Note_on_c, 1, 45, 0
3, 13980, Note_on_c, 1, 43, 85
3, 14039, Note_on_c, 1, 43, 0
3, 14040, Note_on_c, 1, 45, 85
3, 14159, Note_on_c, 1, 45, 0
3, 14160, Note_on_c, 1, 46, 85
3, 14279, Note_on_c, 1, 46, 0
3, 14280, Note_on_c, 1, 48, 85
3, 14399, Note_on_c, 1, 48, 0
3, 14400, Note_on_c, 1, 41, 85
3, 14459, Note_on_c, 1, 41, 0
3, 14460, Note_on_c, 1, 48, 85
3, 14519, Note_on_c, 1, 48, 0
3, 14520, Note_on_c, 1, 53, 85
3, 14579, Note_on_c, 1, 53, 0
3, 14580, Note_on_c, 1, 50, 85
3, 14639, Note_on_c, 1, 50, 0
3, 14640, Note_on_c, 1, 51, 85
3, 14699, Note_on_c, 1, 51, 0
3, 14700, Note_on_c, 1, 48, 85
3, 14759, Note_on_c, 1, 48, 0
3, 14760, Note_on_c, 1, 50, 85
3, 14819, Note_on_c, 1, 50, 0
3, 14820, Note_on_c, 1, 53, 85
3, 14879, Note_on_c, 1, 53, 0
3, 14880, Note_on_c, 1, 51, 85
3, 14939, Note_on_c, 1, 51, 0
3, 14940, Note_on_c, 1, 50, 85
3, 14999, Note_on_c, 1, 50, 0
3, 15000, Note_on_c, 1, 48, 85
3, 15059, Note_on_c, 1, 48, 0
3, 15060, Note_on_c, 1, 46, 85
3, 15119, Note_on_c, 1, 46, 0
3, 15120, Note_on_c, 1, 45, 85
3, 15179, Note_on_c, 1, 45, 0
3, 15180, Note_on_c, 1, 48, 85
3, 15239, Note_on_c, 1, 48, 0
3, 15240, Note_on_c, 1, 46, 85
3, 15299, Note_on_c, 1, 46, 0
3, 15300, Note_on_c, 1, 45, 85
3, 15359, Note_on_c, 1, 45, 0
3, 15360, Note_on_c, 1, 43, 85
3, 15419, Note_on_c, 1, 43, 0
3, 15420, Note_on_c, 1, 41, 85
3, 15479, Note_on_c, 1, 41, 0
3, 15480, Note_on_c, 1, 46, 85
3, 15599, Note_on_c, 1, 46, 0
3, 15600, Note_on_c, 1, 43, 85
3, 15719, Note_on_c, 1, 43, 0
3, 15720, Note_on_c, 1, 39, 85
3, 15839, Note_on_c, 1, 39, 0
3, 15840, Note_on_c, 1, 41, 85
3, 15899, Note_on_c, 1, 41, 0
3, 15900, Note_on_c, 1, 53, 85
3, 15959, Note_on_c, 1, 53, 0
3, 15960, Note_on_c, 1, 51, 85
3, 16019, Note_on_c, 1, 51, 0
3, 16020, Note_on_c, 1, 50, 85
3, 16079, Note_on_c, 1, 50, 0
3, 16080, Note_on_c, 1, 51, 85
3, 16139, Note_on_c, 1, 51, 0
3, 16140, Note_on_c, 1, 48, 85
3, 16199, Note_on_c, 1, 48, 0
3, 16200, Note_on_c, 1, 50, 85
3, 16259, Note_on_c, 1, 50, 0
3, 16260, Note_on_c, 1, 48, 85
3, 16319, Note_on_c, 1, 48, 0
3, 16320, Note_on_c, 1, 50, 85
3, 16379, Note_on_c, 1, 50, 0
3, 16380, Note_on_c, 1, 46, 85
3, 16439, Note_on_c, 1, 46, 0
3, 16440, Note_on_c, 1, 48, 85
3, 16499, Note_on_c, 1, 48, 0
3, 16500, Note_on_c, 1, 50, 85
3, 16559, Note_on_c, 1, 50, 0
3, 16560, Note_on_c, 1, 51, 85
3, 16619, Note_on_c, 1, 51, 0
3, 16620, Note_on_c, 1, 53, 85
3, 16679, Note_on_c, 1, 53, 0
3, 16680, Note_on_c, 1, 55, 85
3, 16739, Note_on_c, 1, 55, 0
3, 16740, Note_on_c, 1, 57, 85
3, 16799, Note_on_c, 1, 57, 0
3, 16800, Note_on_c, 1, 58, 85
3, 16859, Note_on_c, 1, 58, 0
3, 16860, Note_on_c, 1, 57, 85
3, 16919, Note_on_c, 1, 57, 0
3, 16920, Note_on_c, 1, 55, 85
3, 17039, Note_on_c, 1, 55, 0
3, 17040, Note_on_c, 1, 51, 85
3, 17159, Note_on_c, 1, 51, 0
3, 17160, Note_on_c, 1, 53, 85
3, 17279, Note_on_c, 1, 53, 0
3, 17280, Note_on_c, 1, 46, 85
3, 17639, Note_on_c, 1, 46, 0
3, 17639, End_track
4, 0, Start_track
4, 0, End_track
0, 0, End_of_file
