0, 0, Header, 0, 1, 48
1, 0, Start_track
1, 0, Title_t, "J.S.Bach Concert for Harpsichord and Orchestra D minor BWV1052 2. Adagio"
1, 0, Time_signature, 3, 1, 24, 8
1, 0, Channel_prefix, 0
1, 0, Copyright_t, "Copyright 2001 by KCN"
1, 0, Channel_prefix, 0
1, 0, Title_t, "Violino I"
1, 0, Channel_prefix, 0
1, 0, Instrument_name_t, "Strings1"
1, 0, System_exclusive, 5, 126, 127, 9, 1, 247
1, 0, MIDI_port, 0
1, 0, Tempo, 833333
1, 0, Program_c, 0, 48
1, 0, Control_c, 0, 7, 110
1, 0, Note_on_c, 0, 67, 96
1, 0, Channel_prefix, 1
1, 0, Title_t, "Violino II"
1, 0, Channel_prefix, 1
1, 0, Instrument_name_t, "Strings1"
1, 0, MIDI_port, 0
1, 0, Program_c, 1, 48
1, 0, Control_c, 1, 7, 110
1, 0, Note_on_c, 1, 67, 96
1, 0, Channel_prefix, 2
1, 0, Title_t, "Viola"
1, 0, Channel_prefix, 2
1, 0, Instrument_name_t, "Strings1"
1, 0, MIDI_port, 0
1, 0, Program_c, 2, 48
1, 0, Control_c, 2, 7, 110
1, 0, Note_on_c, 2, 67, 96
1, 0, Channel_prefix, 3
1, 0, Title_t, "Continuo"
1, 0, Channel_prefix, 3
1, 0, Instrument_name_t, "Cello"
1, 0, MIDI_port, 0
1, 0, Program_c, 3, 42
1, 0, Note_on_c, 3, 55, 96
1, 0, Channel_prefix, 4
1, 0, Title_t, "Continuo"
1, 0, Channel_prefix, 4
1, 0, Instrument_name_t, "Contrabass"
1, 0, MIDI_port, 0
1, 0, Program_c, 4, 43
1, 0, Note_on_c, 4, 43, 96
1, 0, Channel_prefix, 5
1, 0, Title_t, "Cembalo"
1, 0, Channel_prefix, 5
1, 0, Instrument_name_t, "Harpsichord"
1, 0, MIDI_port, 0
1, 0, Program_c, 5, 6
1, 0, Channel_prefix, 6
1, 0, Title_t, "Cembalo"
1, 0, Channel_prefix, 6
1, 0, Instrument_name_t, "Harpsichord"
1, 0, MIDI_port, 0
1, 0, Program_c, 5, 6
1, 0, MIDI_port, 0
1, 0, Program_c, 6, 6
1, 0, Note_on_c, 6, 55, 96
1, 48, Note_off_c, 0, 67, 0
1, 48, Note_on_c, 0, 67, 96
1, 48, Note_off_c, 1, 67, 0
1, 48, Note_on_c, 1, 67, 96
1, 48, Note_off_c, 2, 67, 0
1, 48, Note_on_c, 2, 67, 96
1, 48, Note_off_c, 3, 55, 0
1, 48, Note_on_c, 3, 55, 96
1, 48, Note_off_c, 4, 43, 0
1, 48, Note_on_c, 4, 43, 96
1, 48, Note_off_c, 6, 55, 0
1, 48, Note_on_c, 6, 55, 96
1, 90, Note_off_c, 0, 67, 0
1, 90, Note_off_c, 1, 67, 0
1, 90, Note_off_c, 2, 67, 0
1, 90, Note_off_c, 3, 55, 0
1, 90, Note_off_c, 4, 43, 0
1, 90, Note_off_c, 6, 55, 0
1, 96, Note_on_c, 0, 70, 96
1, 96, Note_on_c, 1, 70, 96
1, 96, Note_on_c, 2, 70, 96
1, 96, Note_on_c, 3, 58, 96
1, 96, Note_on_c, 4, 46, 96
1, 96, Note_on_c, 6, 58, 96
1, 144, Note_off_c, 0, 70, 0
1, 144, Note_on_c, 0, 70, 96
1, 144, Note_off_c, 1, 70, 0
1, 144, Note_on_c, 1, 70, 96
1, 144, Note_off_c, 2, 70, 0
1, 144, Note_on_c, 2, 70, 96
1, 144, Note_off_c, 3, 58, 0
1, 144, Note_on_c, 3, 58, 96
1, 144, Note_off_c, 4, 46, 0
1, 144, Note_on_c, 4, 46, 96
1, 144, Note_off_c, 6, 58, 0
1, 144, Note_on_c, 6, 58, 96
1, 186, Note_off_c, 0, 70, 0
1, 186, Note_off_c, 1, 70, 0
1, 186, Note_off_c, 2, 70, 0
1, 186, Note_off_c, 3, 58, 0
1, 186, Note_off_c, 4, 46, 0
1, 186, Note_off_c, 6, 58, 0
1, 192, Note_on_c, 0, 74, 96
1, 192, Note_on_c, 1, 74, 96
1, 192, Note_on_c, 2, 74, 96
1, 192, Note_on_c, 3, 62, 96
1, 192, Note_on_c, 4, 50, 96
1, 192, Note_on_c, 6, 62, 96
1, 240, Note_off_c, 0, 74, 0
1, 240, Note_on_c, 0, 74, 96
1, 240, Note_off_c, 1, 74, 0
1, 240, Note_on_c, 1, 74, 96
1, 240, Note_off_c, 2, 74, 0
1, 240, Note_on_c, 2, 74, 96
1, 240, Note_off_c, 3, 62, 0
1, 240, Note_on_c, 3, 62, 96
1, 240, Note_off_c, 4, 50, 0
1, 240, Note_on_c, 4, 50, 96
1, 240, Note_off_c, 6, 62, 0
1, 240, Note_on_c, 6, 62, 96
1, 282, Note_off_c, 0, 74, 0
1, 282, Note_off_c, 1, 74, 0
1, 282, Note_off_c, 2, 74, 0
1, 282, Note_off_c, 3, 62, 0
1, 282, Note_off_c, 4, 50, 0
1, 282, Note_off_c, 6, 62, 0
1, 288, Note_on_c, 0, 63, 96
1, 288, Note_on_c, 1, 63, 96
1, 288, Note_on_c, 2, 63, 96
1, 288, Note_on_c, 3, 51, 96
1, 288, Note_on_c, 4, 39, 96
1, 288, Note_on_c, 6, 51, 96
1, 336, Note_off_c, 0, 63, 0
1, 336, Note_on_c, 0, 62, 96
1, 336, Note_off_c, 1, 63, 0
1, 336, Note_on_c, 1, 62, 96
1, 336, Note_off_c, 2, 63, 0
1, 336, Note_on_c, 2, 62, 96
1, 336, Note_off_c, 3, 51, 0
1, 336, Note_on_c, 3, 50, 96
1, 336, Note_off_c, 4, 39, 0
1, 336, Note_on_c, 4, 38, 96
1, 336, Note_off_c, 6, 51, 0
1, 336, Note_on_c, 6, 50, 96
1, 378, Note_off_c, 0, 62, 0
1, 378, Note_off_c, 1, 62, 0
1, 378, Note_off_c, 2, 62, 0
1, 378, Note_off_c, 3, 50, 0
1, 378, Note_off_c, 4, 38, 0
1, 378, Note_off_c, 6, 50, 0
1, 384, Note_on_c, 0, 62, 96
1, 384, Note_on_c, 1, 62, 96
1, 384, Note_on_c, 2, 62, 96
1, 384, Note_on_c, 3, 50, 96
1, 384, Note_on_c, 4, 38, 96
1, 384, Note_on_c, 6, 50, 96
1, 432, Note_off_c, 0, 62, 0
1, 432, Note_on_c, 0, 63, 96
1, 432, Note_off_c, 1, 62, 0
1, 432, Note_on_c, 1, 63, 96
1, 432, Note_off_c, 2, 62, 0
1, 432, Note_on_c, 2, 63, 96
1, 432, Note_off_c, 3, 50, 0
1, 432, Note_on_c, 3, 51, 96
1, 432, Note_off_c, 4, 38, 0
1, 432, Note_on_c, 4, 39, 96
1, 432, Note_off_c, 6, 50, 0
1, 432, Note_on_c, 6, 51, 96
1, 474, Note_off_c, 0, 63, 0
1, 474, Note_off_c, 1, 63, 0
1, 474, Note_off_c, 2, 63, 0
1, 474, Note_off_c, 3, 51, 0
1, 474, Note_off_c, 4, 39, 0
1, 474, Note_off_c, 6, 51, 0
1, 576, Note_on_c, 0, 69, 96
1, 576, Note_on_c, 1, 69, 96
1, 576, Note_on_c, 2, 69, 96
1, 576, Note_on_c, 3, 57, 96
1, 576, Note_on_c, 4, 45, 96
1, 576, Note_on_c, 6, 57, 96
1, 624, Note_off_c, 0, 69, 0
1, 624, Note_on_c, 0, 69, 96
1, 624, Note_off_c, 1, 69, 0
1, 624, Note_on_c, 1, 69, 96
1, 624, Note_off_c, 2, 69, 0
1, 624, Note_on_c, 2, 69, 96
1, 624, Note_off_c, 3, 57, 0
1, 624, Note_on_c, 3, 57, 96
1, 624, Note_off_c, 4, 45, 0
1, 624, Note_on_c, 4, 45, 96
1, 624, Note_off_c, 6, 57, 0
1, 624, Note_on_c, 6, 57, 96
1, 666, Note_off_c, 0, 69, 0
1, 666, Note_off_c, 1, 69, 0
1, 666, Note_off_c, 2, 69, 0
1, 666, Note_off_c, 3, 57, 0
1, 666, Note_off_c, 4, 45, 0
1, 666, Note_off_c, 6, 57, 0
1, 672, Note_on_c, 0, 72, 96
1, 672, Note_on_c, 1, 72, 96
1, 672, Note_on_c, 2, 72, 96
1, 672, Note_on_c, 3, 60, 96
1, 672, Note_on_c, 4, 48, 96
1, 672, Note_on_c, 6, 60, 96
1, 720, Note_off_c, 0, 72, 0
1, 720, Note_on_c, 0, 72, 96
1, 720, Note_off_c, 1, 72, 0
1, 720, Note_on_c, 1, 72, 96
1, 720, Note_off_c, 2, 72, 0
1, 720, Note_on_c, 2, 72, 96
1, 720, Note_off_c, 3, 60, 0
1, 720, Note_on_c, 3, 60, 96
1, 720, Note_off_c, 4, 48, 0
1, 720, Note_on_c, 4, 48, 96
1, 720, Note_off_c, 6, 60, 0
1, 720, Note_on_c, 6, 60, 96
1, 762, Note_off_c, 0, 72, 0
1, 762, Note_off_c, 1, 72, 0
1, 762, Note_off_c, 2, 72, 0
1, 762, Note_off_c, 3, 60, 0
1, 762, Note_off_c, 4, 48, 0
1, 762, Note_off_c, 6, 60, 0
1, 768, Note_on_c, 0, 75, 96
1, 768, Note_on_c, 1, 75, 96
1, 768, Note_on_c, 2, 75, 96
1, 768, Note_on_c, 3, 63, 96
1, 768, Note_on_c, 4, 51, 96
1, 768, Note_on_c, 6, 63, 96
1, 816, Note_off_c, 0, 75, 0
1, 816, Note_on_c, 0, 75, 96
1, 816, Note_off_c, 1, 75, 0
1, 816, Note_on_c, 1, 75, 96
1, 816, Note_off_c, 2, 75, 0
1, 816, Note_on_c, 2, 75, 96
1, 816, Note_off_c, 3, 63, 0
1, 816, Note_on_c, 3, 63, 96
1, 816, Note_off_c, 4, 51, 0
1, 816, Note_on_c, 4, 51, 96
1, 816, Note_off_c, 6, 63, 0
1, 816, Note_on_c, 6, 63, 96
1, 858, Note_off_c, 0, 75, 0
1, 858, Note_off_c, 1, 75, 0
1, 858, Note_off_c, 2, 75, 0
1, 858, Note_off_c, 3, 63, 0
1, 858, Note_off_c, 4, 51, 0
1, 858, Note_off_c, 6, 63, 0
1, 864, Note_on_c, 0, 66, 96
1, 864, Note_on_c, 1, 66, 96
1, 864, Note_on_c, 2, 66, 96
1, 864, Note_on_c, 3, 54, 96
1, 864, Note_on_c, 4, 42, 96
1, 864, Note_on_c, 6, 54, 96
1, 912, Note_off_c, 0, 66, 0
1, 912, Note_on_c, 0, 66, 96
1, 912, Note_off_c, 1, 66, 0
1, 912, Note_on_c, 1, 66, 96
1, 912, Note_off_c, 2, 66, 0
1, 912, Note_on_c, 2, 66, 96
1, 912, Note_off_c, 3, 54, 0
1, 912, Note_on_c, 3, 54, 96
1, 912, Note_off_c, 4, 42, 0
1, 912, Note_on_c, 4, 42, 96
1, 912, Note_off_c, 6, 54, 0
1, 912, Note_on_c, 6, 54, 96
1, 954, Note_off_c, 0, 66, 0
1, 954, Note_off_c, 1, 66, 0
1, 954, Note_off_c, 2, 66, 0
1, 954, Note_off_c, 3, 54, 0
1, 954, Note_off_c, 4, 42, 0
1, 954, Note_off_c, 6, 54, 0
1, 960, Note_on_c, 0, 69, 96
1, 960, Note_on_c, 1, 69, 96
1, 960, Note_on_c, 2, 69, 96
1, 960, Note_on_c, 3, 57, 96
1, 960, Note_on_c, 4, 45, 96
1, 960, Note_on_c, 6, 57, 96
1, 1008, Note_off_c, 0, 69, 0
1, 1008, Note_on_c, 0, 69, 96
1, 1008, Note_off_c, 1, 69, 0
1, 1008, Note_on_c, 1, 69, 96
1, 1008, Note_off_c, 2, 69, 0
1, 1008, Note_on_c, 2, 69, 96
1, 1008, Note_off_c, 3, 57, 0
1, 1008, Note_on_c, 3, 57, 96
1, 1008, Note_off_c, 4, 45, 0
1, 1008, Note_on_c, 4, 45, 96
1, 1008, Note_off_c, 6, 57, 0
1, 1008, Note_on_c, 6, 57, 96
1, 1050, Note_off_c, 0, 69, 0
1, 1050, Note_off_c, 1, 69, 0
1, 1050, Note_off_c, 2, 69, 0
1, 1050, Note_off_c, 3, 57, 0
1, 1050, Note_off_c, 4, 45, 0
1, 1050, Note_off_c, 6, 57, 0
1, 1056, Note_on_c, 0, 72, 96
1, 1056, Note_on_c, 1, 72, 96
1, 1056, Note_on_c, 2, 72, 96
1, 1056, Note_on_c, 3, 60, 96
1, 1056, Note_on_c, 4, 48, 96
1, 1056, Note_on_c, 6, 60, 96
1, 1104, Note_off_c, 0, 72, 0
1, 1104, Note_on_c, 0, 72, 96
1, 1104, Note_off_c, 1, 72, 0
1, 1104, Note_on_c, 1, 72, 96
1, 1104, Note_off_c, 2, 72, 0
1, 1104, Note_on_c, 2, 72, 96
1, 1104, Note_off_c, 3, 60, 0
1, 1104, Note_on_c, 3, 60, 96
1, 1104, Note_off_c, 4, 48, 0
1, 1104, Note_on_c, 4, 48, 96
1, 1104, Note_off_c, 6, 60, 0
1, 1104, Note_on_c, 6, 60, 96
1, 1146, Note_off_c, 0, 72, 0
1, 1146, Note_off_c, 1, 72, 0
1, 1146, Note_off_c, 2, 72, 0
1, 1146, Note_off_c, 3, 60, 0
1, 1146, Note_off_c, 4, 48, 0
1, 1146, Note_off_c, 6, 60, 0
1, 1152, Note_on_c, 0, 62, 96
1, 1152, Note_on_c, 1, 62, 96
1, 1152, Note_on_c, 2, 62, 96
1, 1152, Note_on_c, 3, 50, 96
1, 1152, Note_on_c, 4, 38, 96
1, 1152, Note_on_c, 6, 50, 96
1, 1200, Note_off_c, 0, 62, 0
1, 1200, Note_on_c, 0, 62, 96
1, 1200, Note_off_c, 1, 62, 0
1, 1200, Note_on_c, 1, 62, 96
1, 1200, Note_off_c, 2, 62, 0
1, 1200, Note_on_c, 2, 62, 96
1, 1200, Note_off_c, 3, 50, 0
1, 1200, Note_on_c, 3, 50, 96
1, 1200, Note_off_c, 4, 38, 0
1, 1200, Note_on_c, 4, 38, 96
1, 1200, Note_off_c, 6, 50, 0
1, 1200, Note_on_c, 6, 50, 96
1, 1242, Note_off_c, 0, 62, 0
1, 1242, Note_off_c, 1, 62, 0
1, 1242, Note_off_c, 2, 62, 0
1, 1242, Note_off_c, 3, 50, 0
1, 1242, Note_off_c, 4, 38, 0
1, 1242, Note_off_c, 6, 50, 0
1, 1248, Note_on_c, 0, 66, 96
1, 1248, Note_on_c, 1, 66, 96
1, 1248, Note_on_c, 2, 66, 96
1, 1248, Note_on_c, 3, 54, 96
1, 1248, Note_on_c, 4, 42, 96
1, 1248, Note_on_c, 6, 54, 96
1, 1296, Note_off_c, 0, 66, 0
1, 1296, Note_on_c, 0, 66, 96
1, 1296, Note_off_c, 1, 66, 0
1, 1296, Note_on_c, 1, 66, 96
1, 1296, Note_off_c, 2, 66, 0
1, 1296, Note_on_c, 2, 66, 96
1, 1296, Note_off_c, 3, 54, 0
1, 1296, Note_on_c, 3, 54, 96
1, 1296, Note_off_c, 4, 42, 0
1, 1296, Note_on_c, 4, 42, 96
1, 1296, Note_off_c, 6, 54, 0
1, 1296, Note_on_c, 6, 54, 96
1, 1338, Note_off_c, 0, 66, 0
1, 1338, Note_off_c, 1, 66, 0
1, 1338, Note_off_c, 2, 66, 0
1, 1338, Note_off_c, 3, 54, 0
1, 1338, Note_off_c, 4, 42, 0
1, 1338, Note_off_c, 6, 54, 0
1, 1344, Note_on_c, 0, 69, 96
1, 1344, Note_on_c, 1, 69, 96
1, 1344, Note_on_c, 2, 69, 96
1, 1344, Note_on_c, 3, 57, 96
1, 1344, Note_on_c, 4, 45, 96
1, 1344, Note_on_c, 6, 57, 96
1, 1392, Note_off_c, 0, 69, 0
1, 1392, Note_on_c, 0, 69, 96
1, 1392, Note_off_c, 1, 69, 0
1, 1392, Note_on_c, 1, 69, 96
1, 1392, Note_off_c, 2, 69, 0
1, 1392, Note_on_c, 2, 69, 96
1, 1392, Note_off_c, 3, 57, 0
1, 1392, Note_on_c, 3, 57, 96
1, 1392, Note_off_c, 4, 45, 0
1, 1392, Note_on_c, 4, 45, 96
1, 1392, Note_off_c, 6, 57, 0
1, 1392, Note_on_c, 6, 57, 96
1, 1434, Note_off_c, 0, 69, 0
1, 1434, Note_off_c, 1, 69, 0
1, 1434, Note_off_c, 2, 69, 0
1, 1434, Note_off_c, 3, 57, 0
1, 1434, Note_off_c, 4, 45, 0
1, 1434, Note_off_c, 6, 57, 0
1, 1440, Note_on_c, 0, 58, 96
1, 1440, Note_on_c, 1, 58, 96
1, 1440, Note_on_c, 2, 58, 96
1, 1440, Note_on_c, 3, 46, 96
1, 1440, Note_on_c, 4, 34, 96
1, 1440, Note_on_c, 6, 46, 96
1, 1488, Note_off_c, 0, 58, 0
1, 1488, Note_on_c, 0, 57, 96
1, 1488, Note_off_c, 1, 58, 0
1, 1488, Note_on_c, 1, 57, 96
1, 1488, Note_off_c, 2, 58, 0
1, 1488, Note_on_c, 2, 57, 96
1, 1488, Note_off_c, 3, 46, 0
1, 1488, Note_on_c, 3, 45, 96
1, 1488, Note_off_c, 4, 34, 0
1, 1488, Note_on_c, 4, 33, 96
1, 1488, Note_off_c, 6, 46, 0
1, 1488, Note_on_c, 6, 45, 96
1, 1536, Note_off_c, 0, 57, 0
1, 1536, Note_on_c, 0, 58, 96
1, 1536, Note_off_c, 1, 57, 0
1, 1536, Note_on_c, 1, 58, 96
1, 1536, Note_off_c, 2, 57, 0
1, 1536, Note_on_c, 2, 58, 96
1, 1536, Note_off_c, 3, 45, 0
1, 1536, Note_on_c, 3, 46, 96
1, 1536, Note_off_c, 4, 33, 0
1, 1536, Note_on_c, 4, 34, 96
1, 1536, Note_off_c, 6, 45, 0
1, 1536, Note_on_c, 6, 46, 96
1, 1578, Note_off_c, 0, 58, 0
1, 1578, Note_off_c, 1, 58, 0
1, 1578, Note_off_c, 2, 58, 0
1, 1578, Note_off_c, 3, 46, 0
1, 1578, Note_off_c, 4, 34, 0
1, 1578, Note_off_c, 6, 46, 0
1, 1584, Note_on_c, 0, 70, 96
1, 1584, Note_on_c, 1, 70, 96
1, 1584, Note_on_c, 2, 70, 96
1, 1584, Note_on_c, 3, 58, 96
1, 1584, Note_on_c, 4, 46, 96
1, 1584, Note_on_c, 6, 58, 96
1, 1596, Note_off_c, 6, 58, 0
1, 1626, Note_off_c, 0, 70, 0
1, 1626, Note_off_c, 1, 70, 0
1, 1626, Note_off_c, 2, 70, 0
1, 1626, Note_off_c, 3, 58, 0
1, 1626, Note_off_c, 4, 46, 0
1, 1632, Note_on_c, 0, 66, 96
1, 1632, Note_on_c, 1, 66, 96
1, 1632, Note_on_c, 2, 66, 96
1, 1632, Note_on_c, 3, 54, 96
1, 1632, Note_on_c, 4, 42, 96
1, 1632, Note_on_c, 6, 54, 96
1, 1674, Note_off_c, 0, 66, 0
1, 1674, Note_off_c, 1, 66, 0
1, 1674, Note_off_c, 2, 66, 0
1, 1674, Note_off_c, 3, 54, 0
1, 1674, Note_off_c, 4, 42, 0
1, 1680, Note_on_c, 0, 67, 96
1, 1680, Note_on_c, 1, 67, 96
1, 1680, Note_on_c, 2, 67, 96
1, 1680, Note_on_c, 3, 55, 96
1, 1680, Note_on_c, 4, 43, 96
1, 1680, Note_off_c, 6, 54, 0
1, 1680, Note_on_c, 6, 55, 96
1, 1722, Note_off_c, 0, 67, 0
1, 1722, Note_off_c, 1, 67, 0
1, 1722, Note_off_c, 2, 67, 0
1, 1722, Note_off_c, 3, 55, 0
1, 1722, Note_off_c, 4, 43, 0
1, 1722, Note_off_c, 6, 55, 0
1, 1728, Note_on_c, 0, 60, 96
1, 1728, Note_on_c, 1, 60, 96
1, 1728, Note_on_c, 2, 60, 96
1, 1728, Note_on_c, 3, 48, 96
1, 1728, Note_on_c, 4, 36, 96
1, 1728, Note_on_c, 6, 48, 96
1, 1776, Note_off_c, 0, 60, 0
1, 1776, Note_on_c, 0, 58, 96
1, 1776, Note_off_c, 1, 60, 0
1, 1776, Note_on_c, 1, 58, 96
1, 1776, Note_off_c, 2, 60, 0
1, 1776, Note_on_c, 2, 58, 96
1, 1776, Note_off_c, 3, 48, 0
1, 1776, Note_on_c, 3, 46, 96
1, 1776, Note_off_c, 4, 36, 0
1, 1776, Note_on_c, 4, 34, 96
1, 1776, Note_off_c, 6, 48, 0
1, 1776, Note_on_c, 6, 46, 96
1, 1824, Note_off_c, 0, 58, 0
1, 1824, Note_on_c, 0, 60, 96
1, 1824, Note_off_c, 1, 58, 0
1, 1824, Note_on_c, 1, 60, 96
1, 1824, Note_off_c, 2, 58, 0
1, 1824, Note_on_c, 2, 60, 96
1, 1824, Note_off_c, 3, 46, 0
1, 1824, Note_on_c, 3, 48, 96
1, 1824, Note_off_c, 4, 34, 0
1, 1824, Note_on_c, 4, 36, 96
1, 1824, Note_off_c, 6, 46, 0
1, 1824, Note_on_c, 6, 48, 96
1, 1866, Note_off_c, 0, 60, 0
1, 1866, Note_off_c, 1, 60, 0
1, 1866, Note_off_c, 2, 60, 0
1, 1866, Note_off_c, 3, 48, 0
1, 1866, Note_off_c, 4, 36, 0
1, 1866, Note_off_c, 6, 48, 0
1, 1872, Note_on_c, 0, 70, 96
1, 1872, Note_on_c, 1, 70, 96
1, 1872, Note_on_c, 2, 70, 96
1, 1872, Note_on_c, 3, 58, 96
1, 1872, Note_on_c, 4, 46, 96
1, 1872, Note_on_c, 6, 58, 96
1, 1884, Note_off_c, 6, 58, 0
1, 1914, Note_off_c, 0, 70, 0
1, 1914, Note_off_c, 1, 70, 0
1, 1914, Note_off_c, 2, 70, 0
1, 1914, Note_off_c, 3, 58, 0
1, 1914, Note_off_c, 4, 46, 0
1, 1920, Note_on_c, 0, 66, 96
1, 1920, Note_on_c, 1, 66, 96
1, 1920, Note_on_c, 2, 66, 96
1, 1920, Note_on_c, 3, 54, 96
1, 1920, Note_on_c, 4, 42, 96
1, 1920, Note_on_c, 6, 54, 96
1, 1962, Note_off_c, 0, 66, 0
1, 1962, Note_off_c, 1, 66, 0
1, 1962, Note_off_c, 2, 66, 0
1, 1962, Note_off_c, 3, 54, 0
1, 1962, Note_off_c, 4, 42, 0
1, 1968, Note_on_c, 0, 67, 96
1, 1968, Note_on_c, 1, 67, 96
1, 1968, Note_on_c, 2, 67, 96
1, 1968, Note_on_c, 3, 55, 96
1, 1968, Note_on_c, 4, 43, 96
1, 1968, Note_off_c, 6, 54, 0
1, 1968, Note_on_c, 6, 55, 96
1, 2010, Note_off_c, 0, 67, 0
1, 2010, Note_off_c, 1, 67, 0
1, 2010, Note_off_c, 2, 67, 0
1, 2010, Note_off_c, 3, 55, 0
1, 2010, Note_off_c, 4, 43, 0
1, 2010, Note_off_c, 6, 55, 0
1, 2016, Note_on_c, 0, 62, 96
1, 2016, Note_on_c, 1, 62, 96
1, 2016, Note_on_c, 2, 62, 96
1, 2016, Note_on_c, 3, 50, 96
1, 2016, Note_on_c, 4, 38, 96
1, 2016, Note_on_c, 6, 50, 96
1, 2064, Note_off_c, 0, 62, 0
1, 2064, Note_on_c, 0, 60, 96
1, 2064, Note_off_c, 1, 62, 0
1, 2064, Note_on_c, 1, 60, 96
1, 2064, Note_off_c, 2, 62, 0
1, 2064, Note_on_c, 2, 60, 96
1, 2064, Note_off_c, 3, 50, 0
1, 2064, Note_on_c, 3, 48, 96
1, 2064, Note_off_c, 4, 38, 0
1, 2064, Note_on_c, 4, 36, 96
1, 2064, Note_off_c, 6, 50, 0
1, 2064, Note_on_c, 6, 48, 96
1, 2112, Note_off_c, 0, 60, 0
1, 2112, Note_on_c, 0, 62, 96
1, 2112, Note_off_c, 1, 60, 0
1, 2112, Note_on_c, 1, 62, 96
1, 2112, Note_off_c, 2, 60, 0
1, 2112, Note_on_c, 2, 62, 96
1, 2112, Note_off_c, 3, 48, 0
1, 2112, Note_on_c, 3, 50, 96
1, 2112, Note_off_c, 4, 36, 0
1, 2112, Note_on_c, 4, 38, 96
1, 2112, Note_off_c, 6, 48, 0
1, 2112, Note_on_c, 6, 50, 96
1, 2154, Note_off_c, 0, 62, 0
1, 2154, Note_off_c, 1, 62, 0
1, 2154, Note_off_c, 2, 62, 0
1, 2154, Note_off_c, 3, 50, 0
1, 2154, Note_off_c, 4, 38, 0
1, 2154, Note_off_c, 6, 50, 0
1, 2160, Note_on_c, 0, 70, 96
1, 2160, Note_on_c, 1, 70, 96
1, 2160, Note_on_c, 2, 70, 96
1, 2160, Note_on_c, 3, 58, 96
1, 2160, Note_on_c, 4, 46, 96
1, 2160, Note_on_c, 6, 58, 96
1, 2172, Note_off_c, 6, 58, 0
1, 2202, Note_off_c, 0, 70, 0
1, 2202, Note_off_c, 1, 70, 0
1, 2202, Note_off_c, 2, 70, 0
1, 2202, Note_off_c, 3, 58, 0
1, 2202, Note_off_c, 4, 46, 0
1, 2208, Note_on_c, 0, 66, 96
1, 2208, Note_on_c, 1, 66, 96
1, 2208, Note_on_c, 2, 66, 96
1, 2208, Note_on_c, 3, 54, 96
1, 2208, Note_on_c, 4, 42, 96
1, 2208, Note_on_c, 6, 54, 96
1, 2250, Note_off_c, 0, 66, 0
1, 2250, Note_off_c, 1, 66, 0
1, 2250, Note_off_c, 2, 66, 0
1, 2250, Note_off_c, 3, 54, 0
1, 2250, Note_off_c, 4, 42, 0
1, 2256, Note_on_c, 0, 67, 96
1, 2256, Note_on_c, 1, 67, 96
1, 2256, Note_on_c, 2, 67, 96
1, 2256, Note_on_c, 3, 55, 96
1, 2256, Note_on_c, 4, 43, 96
1, 2256, Note_off_c, 6, 54, 0
1, 2256, Note_on_c, 6, 55, 96
1, 2298, Note_off_c, 0, 67, 0
1, 2298, Note_off_c, 1, 67, 0
1, 2298, Note_off_c, 2, 67, 0
1, 2298, Note_off_c, 3, 55, 0
1, 2298, Note_off_c, 4, 43, 0
1, 2298, Note_off_c, 6, 55, 0
1, 2304, Note_on_c, 0, 63, 96
1, 2304, Note_on_c, 1, 63, 96
1, 2304, Note_on_c, 2, 63, 96
1, 2304, Note_on_c, 3, 51, 96
1, 2304, Note_on_c, 4, 39, 96
1, 2304, Note_on_c, 6, 51, 96
1, 2388, Note_off_c, 0, 63, 0
1, 2388, Note_off_c, 1, 63, 0
1, 2388, Note_off_c, 2, 63, 0
1, 2388, Note_off_c, 3, 51, 0
1, 2388, Note_off_c, 4, 39, 0
1, 2388, Note_off_c, 6, 51, 0
1, 2448, Note_on_c, 0, 67, 96
1, 2448, Note_on_c, 1, 67, 96
1, 2448, Note_on_c, 2, 67, 96
1, 2448, Note_on_c, 3, 55, 96
1, 2448, Note_on_c, 4, 43, 96
1, 2448, Note_on_c, 6, 55, 96
1, 2490, Note_off_c, 0, 67, 0
1, 2490, Note_off_c, 1, 67, 0
1, 2490, Note_off_c, 2, 67, 0
1, 2490, Note_off_c, 3, 55, 0
1, 2490, Note_off_c, 4, 43, 0
1, 2496, Note_on_c, 0, 68, 96
1, 2496, Note_on_c, 1, 68, 96
1, 2496, Note_on_c, 2, 68, 96
1, 2496, Note_on_c, 3, 56, 96
1, 2496, Note_on_c, 4, 44, 96
1, 2496, Note_off_c, 6, 55, 0
1, 2496, Note_on_c, 6, 56, 96
1, 2538, Note_off_c, 0, 68, 0
1, 2538, Note_off_c, 1, 68, 0
1, 2538, Note_off_c, 2, 68, 0
1, 2538, Note_off_c, 3, 56, 0
1, 2538, Note_off_c, 4, 44, 0
1, 2544, Note_on_c, 0, 65, 96
1, 2544, Note_on_c, 1, 65, 96
1, 2544, Note_on_c, 2, 65, 96
1, 2544, Note_on_c, 3, 53, 96
1, 2544, Note_on_c, 4, 41, 96
1, 2544, Note_off_c, 6, 56, 0
1, 2544, Note_on_c, 6, 53, 96
1, 2586, Note_off_c, 0, 65, 0
1, 2586, Note_off_c, 1, 65, 0
1, 2586, Note_off_c, 2, 65, 0
1, 2586, Note_off_c, 3, 53, 0
1, 2586, Note_off_c, 4, 41, 0
1, 2586, Note_off_c, 6, 53, 0
1, 2592, Note_on_c, 0, 59, 96
1, 2592, Note_on_c, 1, 59, 96
1, 2592, Note_on_c, 2, 59, 96
1, 2592, Note_on_c, 3, 47, 96
1, 2592, Note_on_c, 4, 35, 96
1, 2592, Note_on_c, 6, 47, 96
1, 2640, Note_off_c, 0, 59, 0
1, 2640, Note_on_c, 0, 59, 96
1, 2640, Note_off_c, 1, 59, 0
1, 2640, Note_on_c, 1, 59, 96
1, 2640, Note_off_c, 2, 59, 0
1, 2640, Note_on_c, 2, 59, 96
1, 2640, Note_off_c, 3, 47, 0
1, 2640, Note_on_c, 3, 47, 96
1, 2640, Note_off_c, 4, 35, 0
1, 2640, Note_on_c, 4, 35, 96
1, 2640, Note_off_c, 6, 47, 0
1, 2640, Note_on_c, 6, 47, 96
1, 2682, Note_off_c, 0, 59, 0
1, 2682, Note_off_c, 1, 59, 0
1, 2682, Note_off_c, 2, 59, 0
1, 2682, Note_off_c, 3, 47, 0
1, 2682, Note_off_c, 4, 35, 0
1, 2682, Note_off_c, 6, 47, 0
1, 2688, Note_on_c, 0, 62, 96
1, 2688, Note_on_c, 1, 62, 96
1, 2688, Note_on_c, 2, 62, 96
1, 2688, Note_on_c, 3, 50, 96
1, 2688, Note_on_c, 4, 38, 96
1, 2688, Note_on_c, 6, 50, 96
1, 2736, Note_off_c, 0, 62, 0
1, 2736, Note_on_c, 0, 62, 96
1, 2736, Note_off_c, 1, 62, 0
1, 2736, Note_on_c, 1, 62, 96
1, 2736, Note_off_c, 2, 62, 0
1, 2736, Note_on_c, 2, 62, 96
1, 2736, Note_off_c, 3, 50, 0
1, 2736, Note_on_c, 3, 50, 96
1, 2736, Note_off_c, 4, 38, 0
1, 2736, Note_on_c, 4, 38, 96
1, 2736, Note_off_c, 6, 50, 0
1, 2736, Note_on_c, 6, 50, 96
1, 2778, Note_off_c, 0, 62, 0
1, 2778, Note_off_c, 1, 62, 0
1, 2778, Note_off_c, 2, 62, 0
1, 2778, Note_off_c, 3, 50, 0
1, 2778, Note_off_c, 4, 38, 0
1, 2778, Note_off_c, 6, 50, 0
1, 2784, Note_on_c, 0, 65, 96
1, 2784, Note_on_c, 1, 65, 96
1, 2784, Note_on_c, 2, 65, 96
1, 2784, Note_on_c, 3, 53, 96
1, 2784, Note_on_c, 4, 41, 96
1, 2784, Note_on_c, 6, 53, 96
1, 2832, Note_off_c, 0, 65, 0
1, 2832, Note_on_c, 0, 65, 96
1, 2832, Note_off_c, 1, 65, 0
1, 2832, Note_on_c, 1, 65, 96
1, 2832, Note_off_c, 2, 65, 0
1, 2832, Note_on_c, 2, 65, 96
1, 2832, Note_off_c, 3, 53, 0
1, 2832, Note_on_c, 3, 53, 96
1, 2832, Note_off_c, 4, 41, 0
1, 2832, Note_on_c, 4, 41, 96
1, 2832, Note_off_c, 6, 53, 0
1, 2832, Note_on_c, 6, 53, 96
1, 2874, Note_off_c, 0, 65, 0
1, 2874, Note_off_c, 1, 65, 0
1, 2874, Note_off_c, 2, 65, 0
1, 2874, Note_off_c, 3, 53, 0
1, 2874, Note_off_c, 4, 41, 0
1, 2874, Note_off_c, 6, 53, 0
1, 2880, Note_on_c, 0, 56, 96
1, 2880, Note_on_c, 1, 56, 96
1, 2880, Note_on_c, 2, 56, 96
1, 2880, Note_on_c, 3, 44, 96
1, 2880, Note_on_c, 4, 32, 96
1, 2880, Note_on_c, 6, 44, 96
1, 2964, Note_off_c, 0, 56, 0
1, 2964, Note_off_c, 1, 56, 0
1, 2964, Note_off_c, 2, 56, 0
1, 2964, Note_off_c, 3, 44, 0
1, 2964, Note_off_c, 4, 32, 0
1, 2964, Note_off_c, 6, 44, 0
1, 3024, Note_on_c, 0, 62, 96
1, 3024, Note_on_c, 1, 62, 96
1, 3024, Note_on_c, 2, 62, 96
1, 3024, Note_on_c, 3, 50, 96
1, 3024, Note_on_c, 4, 38, 96
1, 3024, Note_on_c, 6, 50, 96
1, 3066, Note_off_c, 0, 62, 0
1, 3066, Note_off_c, 1, 62, 0
1, 3066, Note_off_c, 2, 62, 0
1, 3066, Note_off_c, 3, 50, 0
1, 3066, Note_off_c, 4, 38, 0
1, 3072, Note_on_c, 0, 63, 96
1, 3072, Note_on_c, 1, 63, 96
1, 3072, Note_on_c, 2, 63, 96
1, 3072, Note_on_c, 3, 51, 96
1, 3072, Note_on_c, 4, 39, 96
1, 3072, Note_off_c, 6, 50, 0
1, 3072, Note_on_c, 6, 51, 96
1, 3114, Note_off_c, 0, 63, 0
1, 3114, Note_off_c, 1, 63, 0
1, 3114, Note_off_c, 2, 63, 0
1, 3114, Note_off_c, 3, 51, 0
1, 3114, Note_off_c, 4, 39, 0
1, 3120, Note_on_c, 0, 60, 96
1, 3120, Note_on_c, 1, 60, 96
1, 3120, Note_on_c, 2, 60, 96
1, 3120, Note_on_c, 3, 48, 96
1, 3120, Note_on_c, 4, 36, 96
1, 3120, Note_off_c, 6, 51, 0
1, 3120, Note_on_c, 6, 48, 96
1, 3162, Note_off_c, 0, 60, 0
1, 3162, Note_off_c, 1, 60, 0
1, 3162, Note_off_c, 2, 60, 0
1, 3162, Note_off_c, 3, 48, 0
1, 3162, Note_off_c, 4, 36, 0
1, 3162, Note_off_c, 6, 48, 0
1, 3168, Note_on_c, 0, 66, 96
1, 3168, Note_on_c, 1, 66, 96
1, 3168, Note_on_c, 2, 66, 96
1, 3168, Note_on_c, 3, 54, 96
1, 3168, Note_on_c, 4, 42, 96
1, 3168, Note_on_c, 6, 54, 96
1, 3210, Note_off_c, 0, 66, 0
1, 3210, Note_off_c, 1, 66, 0
1, 3210, Note_off_c, 2, 66, 0
1, 3210, Note_off_c, 3, 54, 0
1, 3210, Note_off_c, 4, 42, 0
1, 3216, Note_on_c, 0, 67, 96
1, 3216, Note_on_c, 1, 67, 96
1, 3216, Note_on_c, 2, 67, 96
1, 3216, Note_on_c, 3, 55, 96
1, 3216, Note_on_c, 4, 43, 96
1, 3216, Note_off_c, 6, 54, 0
1, 3216, Note_on_c, 6, 55, 96
1, 3258, Note_off_c, 0, 67, 0
1, 3258, Note_off_c, 1, 67, 0
1, 3258, Note_off_c, 2, 67, 0
1, 3258, Note_off_c, 3, 55, 0
1, 3258, Note_off_c, 4, 43, 0
1, 3258, Note_off_c, 6, 55, 0
1, 3264, Note_on_c, 0, 62, 96
1, 3264, Note_on_c, 1, 62, 96
1, 3264, Note_on_c, 2, 62, 96
1, 3264, Note_on_c, 3, 50, 96
1, 3264, Note_on_c, 4, 38, 96
1, 3264, Note_on_c, 6, 50, 96
1, 3348, Note_off_c, 0, 62, 0
1, 3348, Note_off_c, 1, 62, 0
1, 3348, Note_off_c, 2, 62, 0
1, 3348, Note_off_c, 3, 50, 0
1, 3348, Note_off_c, 4, 38, 0
1, 3348, Note_off_c, 6, 50, 0
1, 3360, Note_on_c, 0, 62, 96
1, 3360, Note_on_c, 1, 62, 96
1, 3360, Note_on_c, 2, 50, 96
1, 3360, Note_on_c, 3, 38, 96
1, 3360, Note_on_c, 4, 26, 96
1, 3360, Note_on_c, 6, 38, 96
1, 3444, Note_off_c, 0, 62, 0
1, 3444, Note_off_c, 1, 62, 0
1, 3444, Note_off_c, 2, 50, 0
1, 3444, Note_off_c, 3, 38, 0
1, 3444, Note_off_c, 4, 26, 0
1, 3444, Note_off_c, 6, 38, 0
1, 3456, Note_on_c, 0, 55, 96
1, 3456, Note_on_c, 1, 55, 96
1, 3456, Note_on_c, 2, 55, 96
1, 3456, Note_on_c, 3, 43, 96
1, 3456, Note_on_c, 4, 31, 96
1, 3456, Note_on_c, 5, 74, 96
1, 3456, Note_on_c, 6, 43, 96
1, 3540, Note_off_c, 0, 55, 0
1, 3540, Note_off_c, 1, 55, 0
1, 3540, Note_off_c, 2, 55, 0
1, 3540, Note_off_c, 3, 43, 0
1, 3540, Note_off_c, 4, 31, 0
1, 3540, Note_off_c, 5, 74, 0
1, 3540, Note_off_c, 6, 43, 0
1, 3552, Note_on_c, 5, 72, 96
1, 3600, Note_off_c, 5, 72, 0
1, 3600, Note_on_c, 5, 70, 96
1, 3648, Note_off_c, 5, 70, 0
1, 3648, Note_on_c, 5, 69, 96
1, 3672, Note_off_c, 5, 69, 0
1, 3672, Note_on_c, 5, 67, 96
1, 3696, Note_off_c, 5, 67, 0
1, 3696, Note_on_c, 5, 66, 96
1, 3738, Note_off_c, 5, 66, 0
1, 3744, Note_on_c, 0, 74, 80
1, 3744, Note_on_c, 1, 70, 80
1, 3744, Note_on_c, 2, 67, 80
1, 3744, Note_on_c, 3, 55, 80
1, 3744, Note_on_c, 4, 43, 80
1, 3744, Note_on_c, 5, 67, 96
1, 3744, Note_on_c, 6, 55, 96
1, 3792, Note_off_c, 3, 55, 0
1, 3792, Note_on_c, 3, 55, 80
1, 3792, Note_off_c, 4, 43, 0
1, 3792, Note_on_c, 4, 43, 80
1, 3792, Note_off_c, 5, 67, 0
1, 3792, Note_on_c, 5, 66, 96
1, 3792, Note_off_c, 6, 55, 0
1, 3792, Note_on_c, 6, 55, 96
1, 3828, Note_off_c, 0, 74, 0
1, 3828, Note_off_c, 1, 70, 0
1, 3828, Note_off_c, 2, 67, 0
1, 3834, Note_off_c, 3, 55, 0
1, 3834, Note_off_c, 4, 43, 0
1, 3834, Note_off_c, 5, 66, 0
1, 3834, Note_off_c, 6, 55, 0
1, 3840, Note_on_c, 0, 70, 80
1, 3840, Note_on_c, 1, 67, 80
1, 3840, Note_on_c, 2, 62, 80
1, 3840, Note_on_c, 3, 58, 80
1, 3840, Note_on_c, 4, 46, 80
1, 3840, Note_on_c, 5, 66, 96
1, 3840, Note_on_c, 6, 58, 96
1, 3888, Note_off_c, 3, 58, 0
1, 3888, Note_on_c, 3, 58, 80
1, 3888, Note_off_c, 4, 46, 0
1, 3888, Note_on_c, 4, 46, 80
1, 3888, Note_off_c, 5, 66, 0
1, 3888, Note_on_c, 5, 67, 96
1, 3888, Note_off_c, 6, 58, 0
1, 3888, Note_on_c, 6, 58, 96
1, 3924, Note_off_c, 0, 70, 0
1, 3924, Note_off_c, 1, 67, 0
1, 3924, Note_off_c, 2, 62, 0
1, 3930, Note_off_c, 3, 58, 0
1, 3930, Note_off_c, 4, 46, 0
1, 3930, Note_off_c, 5, 67, 0
1, 3930, Note_off_c, 6, 58, 0
1, 3936, Note_on_c, 0, 66, 80
1, 3936, Note_on_c, 1, 62, 80
1, 3936, Note_on_c, 2, 58, 80
1, 3936, Note_on_c, 3, 62, 80
1, 3936, Note_on_c, 4, 50, 80
1, 3936, Note_on_c, 6, 62, 96
1, 3984, Note_off_c, 1, 62, 0
1, 3984, Note_on_c, 1, 60, 80
1, 3984, Note_off_c, 2, 58, 0
1, 3984, Note_on_c, 2, 57, 80
1, 3984, Note_off_c, 3, 62, 0
1, 3984, Note_on_c, 3, 62, 80
1, 3984, Note_off_c, 4, 50, 0
1, 3984, Note_on_c, 4, 50, 80
1, 3984, Note_off_c, 6, 62, 0
1, 3984, Note_on_c, 6, 62, 96
1, 4020, Note_off_c, 0, 66, 0
1, 4026, Note_off_c, 1, 60, 0
1, 4026, Note_off_c, 2, 57, 0
1, 4026, Note_off_c, 3, 62, 0
1, 4026, Note_off_c, 4, 50, 0
1, 4026, Note_off_c, 6, 62, 0
1, 4032, Note_on_c, 0, 67, 80
1, 4032, Note_on_c, 1, 58, 80
1, 4032, Note_on_c, 2, 55, 80
1, 4032, Note_on_c, 3, 51, 80
1, 4032, Note_on_c, 4, 39, 80
1, 4032, Note_on_c, 5, 79, 96
1, 4032, Note_on_c, 6, 51, 96
1, 4080, Note_off_c, 0, 67, 0
1, 4080, Note_on_c, 0, 66, 80
1, 4080, Note_off_c, 3, 51, 0
1, 4080, Note_on_c, 3, 50, 80
1, 4080, Note_off_c, 4, 39, 0
1, 4080, Note_on_c, 4, 38, 80
1, 4080, Note_off_c, 6, 51, 0
1, 4080, Note_on_c, 6, 50, 96
1, 4116, Note_off_c, 1, 58, 0
1, 4116, Note_off_c, 2, 55, 0
1, 4116, Note_off_c, 5, 79, 0
1, 4122, Note_off_c, 0, 66, 0
1, 4122, Note_off_c, 3, 50, 0
1, 4122, Note_off_c, 4, 38, 0
1, 4122, Note_off_c, 6, 50, 0
1, 4128, Note_on_c, 0, 66, 80
1, 4128, Note_on_c, 3, 50, 80
1, 4128, Note_on_c, 4, 38, 80
1, 4128, Note_on_c, 5, 77, 96
1, 4128, Note_on_c, 6, 50, 96
1, 4176, Note_off_c, 0, 66, 0
1, 4176, Note_on_c, 0, 67, 80
1, 4176, Note_off_c, 3, 50, 0
1, 4176, Note_on_c, 3, 51, 80
1, 4176, Note_off_c, 4, 38, 0
1, 4176, Note_on_c, 4, 39, 80
1, 4176, Note_off_c, 5, 77, 0
1, 4176, Note_on_c, 5, 75, 96
1, 4176, Note_off_c, 6, 50, 0
1, 4176, Note_on_c, 6, 51, 96
1, 4218, Note_off_c, 0, 67, 0
1, 4218, Note_off_c, 3, 51, 0
1, 4218, Note_off_c, 4, 39, 0
1, 4218, Note_off_c, 6, 51, 0
1, 4224, Note_off_c, 5, 75, 0
1, 4224, Note_on_c, 5, 74, 96
1, 4248, Note_off_c, 5, 74, 0
1, 4248, Note_on_c, 5, 72, 96
1, 4272, Note_off_c, 5, 72, 0
1, 4272, Note_on_c, 5, 71, 96
1, 4314, Note_off_c, 5, 71, 0
1, 4320, Note_on_c, 0, 72, 80
1, 4320, Note_on_c, 1, 66, 80
1, 4320, Note_on_c, 2, 60, 80
1, 4320, Note_on_c, 3, 57, 80
1, 4320, Note_on_c, 4, 45, 80
1, 4320, Note_on_c, 5, 72, 96
1, 4320, Note_on_c, 6, 57, 96
1, 4368, Note_off_c, 3, 57, 0
1, 4368, Note_on_c, 3, 57, 80
1, 4368, Note_off_c, 4, 45, 0
1, 4368, Note_on_c, 4, 45, 80
1, 4368, Note_off_c, 5, 72, 0
1, 4368, Note_on_c, 5, 71, 96
1, 4368, Note_off_c, 6, 57, 0
1, 4368, Note_on_c, 6, 57, 96
1, 4404, Note_off_c, 0, 72, 0
1, 4404, Note_off_c, 1, 66, 0
1, 4404, Note_off_c, 2, 60, 0
1, 4410, Note_off_c, 3, 57, 0
1, 4410, Note_off_c, 4, 45, 0
1, 4410, Note_off_c, 5, 71, 0
1, 4410, Note_off_c, 6, 57, 0
1, 4416, Note_on_c, 0, 69, 80
1, 4416, Note_on_c, 1, 66, 80
1, 4416, Note_on_c, 2, 63, 80
1, 4416, Note_on_c, 3, 60, 80
1, 4416, Note_on_c, 4, 48, 80
1, 4416, Note_on_c, 5, 71, 96
1, 4416, Note_on_c, 6, 60, 96
1, 4464, Note_off_c, 1, 66, 0
1, 4464, Note_on_c, 1, 69, 80
1, 4464, Note_off_c, 3, 60, 0
1, 4464, Note_on_c, 3, 60, 80
1, 4464, Note_off_c, 4, 48, 0
1, 4464, Note_on_c, 4, 48, 80
1, 4464, Note_off_c, 5, 71, 0
1, 4464, Note_on_c, 5, 72, 96
1, 4464, Note_off_c, 6, 60, 0
1, 4464, Note_on_c, 6, 60, 96
1, 4500, Note_off_c, 0, 69, 0
1, 4500, Note_off_c, 2, 63, 0
1, 4506, Note_off_c, 1, 69, 0
1, 4506, Note_off_c, 3, 60, 0
1, 4506, Note_off_c, 4, 48, 0
1, 4506, Note_off_c, 6, 60, 0
1, 4512, Note_on_c, 0, 66, 80
1, 4512, Note_on_c, 1, 60, 80
1, 4512, Note_on_c, 2, 57, 80
1, 4512, Note_on_c, 3, 63, 80
1, 4512, Note_on_c, 4, 51, 80
1, 4512, Note_on_c, 6, 63, 96
1, 4560, Note_off_c, 1, 60, 0
1, 4560, Note_on_c, 1, 63, 80
1, 4560, Note_off_c, 3, 63, 0
1, 4560, Note_on_c, 3, 63, 80
1, 4560, Note_off_c, 4, 51, 0
1, 4560, Note_on_c, 4, 51, 80
1, 4560, Note_off_c, 6, 63, 0
1, 4560, Note_on_c, 6, 63, 96
1, 4596, Note_off_c, 0, 66, 0
1, 4596, Note_off_c, 2, 57, 0
1, 4602, Note_off_c, 1, 63, 0
1, 4602, Note_off_c, 3, 63, 0
1, 4602, Note_off_c, 4, 51, 0
1, 4602, Note_off_c, 6, 63, 0
1, 4608, Note_on_c, 0, 62, 80
1, 4608, Note_on_c, 1, 57, 80
1, 4608, Note_on_c, 2, 62, 80
1, 4608, Note_on_c, 3, 54, 80
1, 4608, Note_on_c, 4, 42, 80
1, 4608, Note_on_c, 6, 54, 96
1, 4656, Note_off_c, 0, 62, 0
1, 4656, Note_on_c, 0, 60, 80
1, 4656, Note_off_c, 3, 54, 0
1, 4656, Note_on_c, 3, 54, 80
1, 4656, Note_off_c, 4, 42, 0
1, 4656, Note_on_c, 4, 42, 80
1, 4656, Note_off_c, 6, 54, 0
1, 4656, Note_on_c, 6, 54, 96
1, 4674, Note_off_c, 5, 72, 0
1, 4692, Note_off_c, 1, 57, 0
1, 4692, Note_off_c, 2, 62, 0
1, 4698, Note_off_c, 0, 60, 0
1, 4698, Note_off_c, 3, 54, 0
1, 4698, Note_off_c, 4, 42, 0
1, 4698, Note_off_c, 6, 54, 0
1, 4704, Note_on_c, 0, 62, 80
1, 4704, Note_on_c, 3, 57, 80
1, 4704, Note_on_c, 4, 45, 80
1, 4704, Note_on_c, 5, 70, 96
1, 4704, Note_on_c, 6, 57, 96
1, 4752, Note_off_c, 3, 57, 0
1, 4752, Note_on_c, 3, 57, 80
1, 4752, Note_off_c, 4, 45, 0
1, 4752, Note_on_c, 4, 45, 80
1, 4752, Note_off_c, 5, 70, 0
1, 4752, Note_on_c, 5, 69, 96
1, 4752, Note_off_c, 6, 57, 0
1, 4752, Note_on_c, 6, 57, 96
1, 4788, Note_off_c, 0, 62, 0
1, 4794, Note_off_c, 3, 57, 0
1, 4794, Note_off_c, 4, 45, 0
1, 4794, Note_off_c, 6, 57, 0
1, 4800, Note_on_c, 3, 60, 80
1, 4800, Note_on_c, 4, 48, 80
1, 4800, Note_off_c, 5, 69, 0
1, 4800, Note_on_c, 5, 67, 96
1, 4800, Note_on_c, 6, 60, 96
1, 4848, Note_off_c, 3, 60, 0
1, 4848, Note_on_c, 3, 60, 80
1, 4848, Note_off_c, 4, 48, 0
1, 4848, Note_on_c, 4, 48, 80
1, 4848, Note_off_c, 5, 67, 0
1, 4848, Note_on_c, 5, 66, 96
1, 4848, Note_off_c, 6, 60, 0
1, 4848, Note_on_c, 6, 60, 96
1, 4858, Note_off_c, 5, 66, 0
1, 4860, Note_on_c, 5, 69, 96
1, 4870, Note_off_c, 5, 69, 0
1, 4872, Note_on_c, 5, 72, 96
1, 4882, Note_off_c, 5, 72, 0
1, 4884, Note_on_c, 5, 75, 96
1, 4890, Note_off_c, 3, 60, 0
1, 4890, Note_off_c, 4, 48, 0
1, 4890, Note_off_c, 6, 60, 0
1, 4894, Note_off_c, 5, 75, 0
1, 4896, Note_on_c, 0, 69, 80
1, 4896, Note_on_c, 1, 66, 80
1, 4896, Note_on_c, 2, 60, 80
1, 4896, Note_on_c, 3, 50, 80
1, 4896, Note_on_c, 4, 38, 80
1, 4896, Note_on_c, 5, 75, 96
1, 4896, Note_on_c, 6, 50, 96
1, 4944, Note_off_c, 0, 69, 0
1, 4944, Note_on_c, 0, 67, 80
1, 4944, Note_off_c, 3, 50, 0
1, 4944, Note_on_c, 3, 50, 80
1, 4944, Note_off_c, 4, 38, 0
1, 4944, Note_on_c, 4, 38, 80
1, 4944, Note_off_c, 6, 50, 0
1, 4944, Note_on_c, 6, 50, 96
1, 4980, Note_off_c, 1, 66, 0
1, 4980, Note_off_c, 2, 60, 0
1, 4980, Note_off_c, 5, 75, 0
1, 4986, Note_off_c, 0, 67, 0
1, 4986, Note_off_c, 3, 50, 0
1, 4986, Note_off_c, 4, 38, 0
1, 4986, Note_off_c, 6, 50, 0
1, 4992, Note_on_c, 0, 69, 80
1, 4992, Note_on_c, 3, 54, 80
1, 4992, Note_on_c, 4, 42, 80
1, 4992, Note_on_c, 5, 74, 96
1, 4992, Note_on_c, 6, 54, 96
1, 4995, Note_off_c, 5, 74, 0
1, 4995, Note_on_c, 5, 75, 96
1, 4998, Note_off_c, 5, 75, 0
1, 4998, Note_on_c, 5, 74, 96
1, 5001, Note_off_c, 5, 74, 0
1, 5001, Note_on_c, 5, 75, 96
1, 5004, Note_off_c, 5, 75, 0
1, 5004, Note_on_c, 5, 74, 96
1, 5007, Note_off_c, 5, 74, 0
1, 5007, Note_on_c, 5, 75, 96
1, 5010, Note_off_c, 5, 75, 0
1, 5010, Note_on_c, 5, 74, 96
1, 5013, Note_off_c, 5, 74, 0
1, 5013, Note_on_c, 5, 75, 96
1, 5016, Note_off_c, 5, 75, 0
1, 5016, Note_on_c, 5, 74, 96
1, 5019, Note_off_c, 5, 74, 0
1, 5019, Note_on_c, 5, 75, 96
1, 5022, Note_off_c, 5, 75, 0
1, 5022, Note_on_c, 5, 74, 96
1, 5025, Note_off_c, 5, 74, 0
1, 5025, Note_on_c, 5, 75, 96
1, 5028, Note_off_c, 5, 75, 0
1, 5028, Note_on_c, 5, 74, 96
1, 5038, Note_off_c, 5, 74, 0
1, 5040, Note_off_c, 3, 54, 0
1, 5040, Note_on_c, 3, 54, 80
1, 5040, Note_off_c, 4, 42, 0
1, 5040, Note_on_c, 4, 42, 80
1, 5040, Note_on_c, 5, 72, 96
1, 5040, Note_off_c, 6, 54, 0
1, 5040, Note_on_c, 6, 54, 96
1, 5076, Note_off_c, 0, 69, 0
1, 5082, Note_off_c, 3, 54, 0
1, 5082, Note_off_c, 4, 42, 0
1, 5082, Note_off_c, 6, 54, 0
1, 5088, Note_on_c, 3, 57, 80
1, 5088, Note_on_c, 4, 45, 80
1, 5088, Note_on_c, 6, 57, 96
1, 5136, Note_off_c, 3, 57, 0
1, 5136, Note_on_c, 3, 57, 80
1, 5136, Note_off_c, 4, 45, 0
1, 5136, Note_on_c, 4, 45, 80
1, 5136, Note_off_c, 6, 57, 0
1, 5136, Note_on_c, 6, 57, 96
1, 5145, Note_off_c, 5, 72, 0
1, 5160, Note_on_c, 5, 70, 96
1, 5170, Note_off_c, 5, 70, 0
1, 5172, Note_on_c, 5, 69, 96
1, 5178, Note_off_c, 3, 57, 0
1, 5178, Note_off_c, 4, 45, 0
1, 5178, Note_off_c, 6, 57, 0
1, 5182, Note_off_c, 5, 69, 0
1, 5184, Note_on_c, 0, 67, 80
1, 5184, Note_on_c, 1, 62, 80
1, 5184, Note_on_c, 2, 58, 80
1, 5184, Note_on_c, 3, 46, 80
1, 5184, Note_on_c, 4, 34, 80
1, 5184, Note_on_c, 5, 67, 96
1, 5184, Note_on_c, 6, 46, 96
1, 5232, Note_off_c, 3, 46, 0
1, 5232, Note_on_c, 3, 45, 80
1, 5232, Note_off_c, 4, 34, 0
1, 5232, Note_on_c, 4, 33, 80
1, 5232, Note_off_c, 6, 46, 0
1, 5232, Note_on_c, 6, 45, 96
1, 5256, Note_off_c, 5, 67, 0
1, 5256, Note_on_c, 5, 69, 96
1, 5268, Note_off_c, 0, 67, 0
1, 5268, Note_off_c, 1, 62, 0
1, 5268, Note_off_c, 2, 58, 0
1, 5268, Note_off_c, 5, 69, 0
1, 5268, Note_on_c, 5, 66, 96
1, 5278, Note_off_c, 5, 66, 0
1, 5280, Note_on_c, 0, 70, 80
1, 5280, Note_on_c, 1, 67, 80
1, 5280, Note_on_c, 2, 62, 80
1, 5280, Note_off_c, 3, 45, 0
1, 5280, Note_on_c, 3, 46, 80
1, 5280, Note_off_c, 4, 33, 0
1, 5280, Note_on_c, 4, 34, 80
1, 5280, Note_on_c, 5, 67, 96
1, 5280, Note_off_c, 6, 45, 0
1, 5280, Note_on_c, 6, 46, 96
1, 5322, Note_off_c, 3, 46, 0
1, 5322, Note_off_c, 4, 34, 0
1, 5322, Note_off_c, 6, 46, 0
1, 5328, Note_on_c, 3, 58, 80
1, 5328, Note_on_c, 4, 46, 80
1, 5328, Note_on_c, 6, 58, 96
1, 5340, Note_off_c, 6, 58, 0
1, 5364, Note_off_c, 0, 70, 0
1, 5364, Note_off_c, 1, 67, 0
1, 5364, Note_off_c, 2, 62, 0
1, 5364, Note_off_c, 5, 67, 0
1, 5370, Note_off_c, 3, 58, 0
1, 5370, Note_off_c, 4, 46, 0
1, 5376, Note_on_c, 0, 74, 80
1, 5376, Note_on_c, 1, 70, 80
1, 5376, Note_on_c, 2, 67, 80
1, 5376, Note_on_c, 3, 54, 80
1, 5376, Note_on_c, 4, 42, 80
1, 5376, Note_on_c, 6, 54, 96
1, 5418, Note_off_c, 3, 54, 0
1, 5418, Note_off_c, 4, 42, 0
1, 5424, Note_on_c, 3, 55, 80
1, 5424, Note_on_c, 4, 43, 80
1, 5424, Note_off_c, 6, 54, 0
1, 5424, Note_on_c, 6, 55, 96
1, 5460, Note_off_c, 0, 74, 0
1, 5460, Note_off_c, 1, 70, 0
1, 5460, Note_off_c, 2, 67, 0
1, 5466, Note_off_c, 3, 55, 0
1, 5466, Note_off_c, 4, 43, 0
1, 5466, Note_off_c, 6, 55, 0
1, 5472, Note_on_c, 0, 75, 80
1, 5472, Note_on_c, 1, 69, 80
1, 5472, Note_on_c, 2, 67, 80
1, 5472, Note_on_c, 3, 48, 80
1, 5472, Note_on_c, 4, 36, 80
1, 5472, Note_on_c, 5, 75, 96
1, 5472, Note_on_c, 6, 48, 96
1, 5496, Note_off_c, 5, 75, 0
1, 5496, Note_on_c, 5, 74, 96
1, 5517, Note_off_c, 5, 74, 0
1, 5520, Note_off_c, 3, 48, 0
1, 5520, Note_on_c, 3, 46, 80
1, 5520, Note_off_c, 4, 36, 0
1, 5520, Note_on_c, 4, 34, 80
1, 5520, Note_on_c, 5, 77, 96
1, 5520, Note_off_c, 6, 48, 0
1, 5520, Note_on_c, 6, 46, 96
1, 5544, Note_off_c, 5, 77, 0
1, 5544, Note_on_c, 5, 75, 96
1, 5556, Note_off_c, 0, 75, 0
1, 5565, Note_off_c, 5, 75, 0
1, 5568, Note_on_c, 0, 79, 80
1, 5568, Note_off_c, 3, 46, 0
1, 5568, Note_on_c, 3, 48, 80
1, 5568, Note_off_c, 4, 34, 0
1, 5568, Note_on_c, 4, 36, 80
1, 5568, Note_on_c, 5, 75, 96
1, 5568, Note_off_c, 6, 46, 0
1, 5568, Note_on_c, 6, 48, 96
1, 5610, Note_off_c, 3, 48, 0
1, 5610, Note_off_c, 4, 36, 0
1, 5610, Note_off_c, 6, 48, 0
1, 5616, Note_on_c, 3, 58, 80
1, 5616, Note_on_c, 4, 46, 80
1, 5616, Note_on_c, 6, 58, 96
1, 5628, Note_off_c, 6, 58, 0
1, 5652, Note_off_c, 0, 79, 0
1, 5652, Note_off_c, 5, 75, 0
1, 5658, Note_off_c, 3, 58, 0
1, 5658, Note_off_c, 4, 46, 0
1, 5664, Note_on_c, 0, 75, 80
1, 5664, Note_on_c, 3, 54, 80
1, 5664, Note_on_c, 4, 42, 80
1, 5664, Note_on_c, 6, 54, 96
1, 5706, Note_off_c, 3, 54, 0
1, 5706, Note_off_c, 4, 42, 0
1, 5712, Note_on_c, 3, 55, 80
1, 5712, Note_on_c, 4, 43, 80
1, 5712, Note_off_c, 6, 54, 0
1, 5712, Note_on_c, 6, 55, 96
1, 5748, Note_off_c, 0, 75, 0
1, 5748, Note_off_c, 2, 67, 0
1, 5754, Note_off_c, 3, 55, 0
1, 5754, Note_off_c, 4, 43, 0
1, 5754, Note_off_c, 6, 55, 0
1, 5760, Note_on_c, 0, 72, 80
1, 5760, Note_on_c, 2, 66, 80
1, 5760, Note_on_c, 3, 50, 80
1, 5760, Note_on_c, 4, 38, 80
1, 5760, Note_on_c, 5, 78, 96
1, 5760, Note_on_c, 6, 50, 96
1, 5802, Note_off_c, 5, 78, 0
1, 5808, Note_off_c, 3, 50, 0
1, 5808, Note_on_c, 3, 48, 80
1, 5808, Note_off_c, 4, 38, 0
1, 5808, Note_on_c, 4, 36, 80
1, 5808, Note_on_c, 5, 79, 96
1, 5808, Note_off_c, 6, 50, 0
1, 5808, Note_on_c, 6, 48, 96
1, 5820, Note_off_c, 5, 79, 0
1, 5820, Note_on_c, 5, 78, 96
1, 5832, Note_off_c, 5, 78, 0
1, 5832, Note_on_c, 5, 76, 96
1, 5844, Note_off_c, 0, 72, 0
1, 5844, Note_off_c, 1, 69, 0
1, 5844, Note_off_c, 2, 66, 0
1, 5844, Note_off_c, 5, 76, 0
1, 5844, Note_on_c, 5, 78, 96
1, 5856, Note_on_c, 0, 75, 80
1, 5856, Note_on_c, 1, 72, 80
1, 5856, Note_on_c, 2, 57, 80
1, 5856, Note_off_c, 3, 48, 0
1, 5856, Note_on_c, 3, 50, 80
1, 5856, Note_off_c, 4, 36, 0
1, 5856, Note_on_c, 4, 38, 80
1, 5856, Note_off_c, 5, 78, 0
1, 5856, Note_on_c, 5, 79, 96
1, 5856, Note_off_c, 6, 48, 0
1, 5856, Note_on_c, 6, 50, 96
1, 5859, Note_off_c, 5, 79, 0
1, 5859, Note_on_c, 5, 78, 96
1, 5862, Note_off_c, 5, 78, 0
1, 5862, Note_on_c, 5, 79, 96
1, 5865, Note_off_c, 5, 79, 0
1, 5865, Note_on_c, 5, 78, 96
1, 5868, Note_off_c, 5, 78, 0
1, 5868, Note_on_c, 5, 79, 96
1, 5871, Note_off_c, 5, 79, 0
1, 5871, Note_on_c, 5, 78, 96
1, 5874, Note_off_c, 5, 78, 0
1, 5874, Note_on_c, 5, 79, 96
1, 5877, Note_off_c, 5, 79, 0
1, 5877, Note_on_c, 5, 78, 96
1, 5880, Note_off_c, 5, 78, 0
1, 5880, Note_on_c, 5, 79, 96
1, 5883, Note_off_c, 5, 79, 0
1, 5883, Note_on_c, 5, 78, 96
1, 5886, Note_off_c, 5, 78, 0
1, 5886, Note_on_c, 5, 79, 96
1, 5889, Note_off_c, 5, 79, 0
1, 5889, Note_on_c, 5, 78, 96
1, 5892, Note_off_c, 5, 78, 0
1, 5892, Note_on_c, 5, 79, 96
1, 5895, Note_off_c, 5, 79, 0
1, 5895, Note_on_c, 5, 78, 96
1, 5898, Note_off_c, 3, 50, 0
1, 5898, Note_off_c, 4, 38, 0
1, 5898, Note_off_c, 5, 78, 0
1, 5898, Note_on_c, 5, 79, 96
1, 5898, Note_off_c, 6, 50, 0
1, 5901, Note_off_c, 5, 79, 0
1, 5901, Note_on_c, 5, 78, 96
1, 5904, Note_on_c, 3, 58, 80
1, 5904, Note_on_c, 4, 46, 80
1, 5904, Note_off_c, 5, 78, 0
1, 5904, Note_on_c, 5, 79, 96
1, 5904, Note_on_c, 6, 58, 96
1, 5907, Note_off_c, 5, 79, 0
1, 5907, Note_on_c, 5, 78, 96
1, 5910, Note_off_c, 5, 78, 0
1, 5910, Note_on_c, 5, 79, 96
1, 5913, Note_off_c, 5, 79, 0
1, 5913, Note_on_c, 5, 78, 96
1, 5916, Note_off_c, 5, 78, 0
1, 5916, Note_on_c, 5, 79, 96
1, 5916, Note_off_c, 6, 58, 0
1, 5919, Note_off_c, 5, 79, 0
1, 5919, Note_on_c, 5, 78, 96
1, 5922, Note_off_c, 5, 78, 0
1, 5922, Note_on_c, 5, 79, 96
1, 5925, Note_off_c, 5, 79, 0
1, 5925, Note_on_c, 5, 78, 96
1, 5928, Note_off_c, 5, 78, 0
1, 5928, Note_on_c, 5, 79, 96
1, 5931, Note_off_c, 5, 79, 0
1, 5931, Note_on_c, 5, 78, 96
1, 5934, Note_off_c, 5, 78, 0
1, 5934, Note_on_c, 5, 79, 96
1, 5937, Note_off_c, 5, 79, 0
1, 5937, Note_on_c, 5, 78, 96
1, 5940, Note_off_c, 0, 75, 0
1, 5940, Note_off_c, 1, 72, 0
1, 5940, Note_off_c, 2, 57, 0
1, 5940, Note_off_c, 5, 78, 0
1, 5940, Note_on_c, 5, 79, 96
1, 5943, Note_off_c, 5, 79, 0
1, 5943, Note_on_c, 5, 78, 96
1, 5946, Note_off_c, 3, 58, 0
1, 5946, Note_off_c, 4, 46, 0
1, 5946, Note_off_c, 5, 78, 0
1, 5946, Note_on_c, 5, 79, 96
1, 5949, Note_off_c, 5, 79, 0
1, 5949, Note_on_c, 5, 78, 96
1, 5952, Note_on_c, 0, 74, 80
1, 5952, Note_on_c, 1, 69, 80
1, 5952, Note_on_c, 2, 62, 80
1, 5952, Note_on_c, 3, 54, 80
1, 5952, Note_on_c, 4, 42, 80
1, 5952, Note_off_c, 5, 78, 0
1, 5952, Note_on_c, 5, 79, 96
1, 5952, Note_on_c, 6, 54, 96
1, 5955, Note_off_c, 5, 79, 0
1, 5955, Note_on_c, 5, 78, 96
1, 5958, Note_off_c, 5, 78, 0
1, 5958, Note_on_c, 5, 79, 96
1, 5961, Note_off_c, 5, 79, 0
1, 5961, Note_on_c, 5, 78, 96
1, 5964, Note_off_c, 5, 78, 0
1, 5964, Note_on_c, 5, 79, 96
1, 5967, Note_off_c, 5, 79, 0
1, 5967, Note_on_c, 5, 78, 96
1, 5970, Note_off_c, 5, 78, 0
1, 5970, Note_on_c, 5, 79, 96
1, 5973, Note_off_c, 5, 79, 0
1, 5973, Note_on_c, 5, 78, 96
1, 5976, Note_off_c, 5, 78, 0
1, 5976, Note_on_c, 5, 79, 96
1, 5979, Note_off_c, 5, 79, 0
1, 5979, Note_on_c, 5, 78, 96
1, 5994, Note_off_c, 3, 54, 0
1, 5994, Note_off_c, 4, 42, 0
1, 6000, Note_off_c, 0, 74, 0
1, 6000, Note_on_c, 0, 72, 80
1, 6000, Note_on_c, 3, 55, 80
1, 6000, Note_on_c, 4, 43, 80
1, 6000, Note_off_c, 5, 78, 0
1, 6000, Note_on_c, 5, 76, 96
1, 6000, Note_off_c, 6, 54, 0
1, 6000, Note_on_c, 6, 55, 96
1, 6024, Note_off_c, 5, 76, 0
1, 6024, Note_on_c, 5, 78, 96
1, 6036, Note_off_c, 1, 69, 0
1, 6036, Note_off_c, 2, 62, 0
1, 6042, Note_off_c, 0, 72, 0
1, 6042, Note_off_c, 3, 55, 0
1, 6042, Note_off_c, 4, 43, 0
1, 6042, Note_off_c, 6, 55, 0
1, 6045, Note_off_c, 5, 78, 0
1, 6048, Note_on_c, 0, 70, 80
1, 6048, Note_on_c, 1, 67, 80
1, 6048, Note_on_c, 2, 67, 80
1, 6048, Note_on_c, 3, 51, 80
1, 6048, Note_on_c, 4, 39, 80
1, 6048, Note_on_c, 5, 79, 96
1, 6048, Note_on_c, 6, 51, 96
1, 6096, Note_off_c, 0, 70, 0
1, 6096, Note_on_c, 0, 66, 80
1, 6096, Note_off_c, 5, 79, 0
1, 6096, Note_on_c, 5, 74, 96
1, 6132, Note_off_c, 1, 67, 0
1, 6132, Note_off_c, 2, 67, 0
1, 6132, Note_off_c, 3, 51, 0
1, 6132, Note_off_c, 4, 39, 0
1, 6132, Note_off_c, 6, 51, 0
1, 6138, Note_off_c, 0, 66, 0
1, 6138, Note_off_c, 5, 74, 0
1, 6144, Note_on_c, 0, 66, 80
1, 6144, Note_on_c, 5, 75, 96
1, 6192, Note_off_c, 0, 66, 0
1, 6192, Note_on_c, 0, 67, 80
1, 6192, Note_on_c, 3, 55, 80
1, 6192, Note_on_c, 4, 43, 80
1, 6192, Note_off_c, 5, 75, 0
1, 6192, Note_on_c, 5, 71, 96
1, 6192, Note_on_c, 6, 55, 96
1, 6234, Note_off_c, 0, 67, 0
1, 6234, Note_off_c, 3, 55, 0
1, 6234, Note_off_c, 4, 43, 0
1, 6234, Note_off_c, 5, 71, 0
1, 6240, Note_on_c, 3, 56, 80
1, 6240, Note_on_c, 4, 44, 80
1, 6240, Note_on_c, 5, 72, 96
1, 6240, Note_off_c, 6, 55, 0
1, 6240, Note_on_c, 6, 56, 96
1, 6282, Note_off_c, 3, 56, 0
1, 6282, Note_off_c, 4, 44, 0
1, 6288, Note_on_c, 3, 53, 80
1, 6288, Note_on_c, 4, 41, 80
1, 6288, Note_off_c, 5, 72, 0
1, 6288, Note_on_c, 5, 68, 96
1, 6288, Note_off_c, 6, 56, 0
1, 6288, Note_on_c, 6, 53, 96
1, 6330, Note_off_c, 3, 53, 0
1, 6330, Note_off_c, 4, 41, 0
1, 6330, Note_off_c, 5, 68, 0
1, 6330, Note_off_c, 6, 53, 0
1, 6336, Note_on_c, 0, 68, 80
1, 6336, Note_on_c, 1, 65, 80
1, 6336, Note_on_c, 2, 62, 80
1, 6336, Note_on_c, 3, 47, 80
1, 6336, Note_on_c, 4, 35, 80
1, 6336, Note_on_c, 5, 67, 96
1, 6336, Note_on_c, 6, 47, 96
1, 6384, Note_off_c, 3, 47, 0
1, 6384, Note_on_c, 3, 47, 80
1, 6384, Note_off_c, 4, 35, 0
1, 6384, Note_on_c, 4, 35, 80
1, 6384, Note_off_c, 5, 67, 0
1, 6384, Note_on_c, 5, 65, 96
1, 6384, Note_off_c, 6, 47, 0
1, 6384, Note_on_c, 6, 47, 96
1, 6420, Note_off_c, 0, 68, 0
1, 6420, Note_off_c, 1, 65, 0
1, 6420, Note_off_c, 2, 62, 0
1, 6426, Note_off_c, 3, 47, 0
1, 6426, Note_off_c, 4, 35, 0
1, 6426, Note_off_c, 6, 47, 0
1, 6432, Note_on_c, 0, 65, 80
1, 6432, Note_on_c, 1, 62, 80
1, 6432, Note_on_c, 2, 59, 80
1, 6432, Note_on_c, 3, 50, 80
1, 6432, Note_on_c, 4, 38, 80
1, 6432, Note_on_c, 6, 50, 96
1, 6480, Note_off_c, 3, 50, 0
1, 6480, Note_on_c, 3, 50, 80
1, 6480, Note_off_c, 4, 38, 0
1, 6480, Note_on_c, 4, 38, 80
1, 6480, Note_off_c, 6, 50, 0
1, 6480, Note_on_c, 6, 50, 96
1, 6516, Note_off_c, 0, 65, 0
1, 6516, Note_off_c, 1, 62, 0
1, 6516, Note_off_c, 2, 59, 0
1, 6522, Note_off_c, 3, 50, 0
1, 6522, Note_off_c, 4, 38, 0
1, 6522, Note_off_c, 6, 50, 0
1, 6528, Note_on_c, 0, 62, 80
1, 6528, Note_on_c, 1, 59, 80
1, 6528, Note_on_c, 2, 56, 80
1, 6528, Note_on_c, 3, 53, 80
1, 6528, Note_on_c, 4, 41, 80
1, 6528, Note_on_c, 6, 53, 96
1, 6576, Note_off_c, 3, 53, 0
1, 6576, Note_on_c, 3, 53, 80
1, 6576, Note_off_c, 4, 41, 0
1, 6576, Note_on_c, 4, 41, 80
1, 6576, Note_off_c, 6, 53, 0
1, 6576, Note_on_c, 6, 53, 96
1, 6612, Note_off_c, 0, 62, 0
1, 6612, Note_off_c, 1, 59, 0
1, 6612, Note_off_c, 2, 56, 0
1, 6618, Note_off_c, 3, 53, 0
1, 6618, Note_off_c, 4, 41, 0
1, 6618, Note_off_c, 6, 53, 0
1, 6624, Note_on_c, 0, 59, 80
1, 6624, Note_on_c, 1, 65, 80
1, 6624, Note_on_c, 2, 62, 80
1, 6624, Note_on_c, 3, 44, 80
1, 6624, Note_on_c, 4, 32, 80
1, 6624, Note_on_c, 6, 44, 96
1, 6660, Note_off_c, 5, 65, 0
1, 6672, Note_on_c, 5, 62, 96
1, 6708, Note_off_c, 0, 59, 0
1, 6708, Note_off_c, 1, 65, 0
1, 6708, Note_off_c, 2, 62, 0
1, 6708, Note_off_c, 3, 44, 0
1, 6708, Note_off_c, 4, 32, 0
1, 6708, Note_off_c, 6, 44, 0
1, 6720, Note_off_c, 5, 62, 0
1, 6720, Note_on_c, 5, 63, 96
1, 6762, Note_off_c, 5, 63, 0
1, 6768, Note_on_c, 0, 71, 80
1, 6768, Note_on_c, 1, 62, 80
1, 6768, Note_on_c, 2, 65, 80
1, 6768, Note_on_c, 3, 50, 80
1, 6768, Note_on_c, 4, 38, 80
1, 6768, Note_on_c, 5, 67, 96
1, 6768, Note_on_c, 6, 50, 96
1, 6792, Note_off_c, 5, 67, 0
1, 6792, Note_on_c, 5, 65, 96
1, 6810, Note_off_c, 0, 71, 0
1, 6810, Note_off_c, 1, 62, 0
1, 6810, Note_off_c, 2, 65, 0
1, 6810, Note_off_c, 3, 50, 0
1, 6810, Note_off_c, 4, 38, 0
1, 6813, Note_off_c, 5, 65, 0
1, 6816, Note_on_c, 0, 72, 80
1, 6816, Note_on_c, 1, 67, 80
1, 6816, Note_on_c, 2, 63, 80
1, 6816, Note_on_c, 3, 51, 80
1, 6816, Note_on_c, 4, 39, 80
1, 6816, Note_on_c, 5, 67, 96
1, 6816, Note_off_c, 6, 50, 0
1, 6816, Note_on_c, 6, 51, 96
1, 6858, Note_off_c, 0, 72, 0
1, 6858, Note_off_c, 1, 67, 0
1, 6858, Note_off_c, 2, 63, 0
1, 6858, Note_off_c, 3, 51, 0
1, 6858, Note_off_c, 4, 39, 0
1, 6858, Note_off_c, 5, 67, 0
1, 6864, Note_on_c, 0, 75, 80
1, 6864, Note_on_c, 1, 67, 80
1, 6864, Note_on_c, 2, 63, 80
1, 6864, Note_on_c, 3, 48, 80
1, 6864, Note_on_c, 4, 36, 80
1, 6864, Note_on_c, 5, 71, 96
1, 6864, Note_off_c, 6, 51, 0
1, 6864, Note_on_c, 6, 48, 96
1, 6888, Note_off_c, 5, 71, 0
1, 6888, Note_on_c, 5, 69, 96
1, 6906, Note_off_c, 0, 75, 0
1, 6906, Note_off_c, 1, 67, 0
1, 6906, Note_off_c, 2, 63, 0
1, 6906, Note_off_c, 3, 48, 0
1, 6906, Note_off_c, 4, 36, 0
1, 6906, Note_off_c, 6, 48, 0
1, 6909, Note_off_c, 5, 69, 0
1, 6912, Note_on_c, 0, 74, 80
1, 6912, Note_on_c, 1, 68, 80
1, 6912, Note_on_c, 2, 65, 80
1, 6912, Note_on_c, 3, 56, 80
1, 6912, Note_on_c, 4, 44, 80
1, 6912, Note_on_c, 5, 71, 96
1, 6912, Note_on_c, 6, 56, 96
1, 6954, Note_off_c, 1, 68, 0
1, 6954, Note_off_c, 3, 56, 0
1, 6954, Note_off_c, 4, 44, 0
1, 6954, Note_off_c, 5, 71, 0
1, 6954, Note_off_c, 6, 56, 0
1, 6960, Note_off_c, 0, 74, 0
1, 6960, Note_on_c, 0, 72, 80
1, 6960, Note_on_c, 1, 68, 80
1, 6960, Note_off_c, 2, 65, 0
1, 6960, Note_on_c, 2, 60, 80
1, 6960, Note_on_c, 3, 53, 80
1, 6960, Note_on_c, 4, 41, 80
1, 6960, Note_on_c, 5, 72, 96
1, 6960, Note_on_c, 6, 53, 96
1, 7002, Note_off_c, 0, 72, 0
1, 7002, Note_off_c, 1, 68, 0
1, 7002, Note_off_c, 2, 60, 0
1, 7002, Note_off_c, 3, 53, 0
1, 7002, Note_off_c, 4, 41, 0
1, 7002, Note_off_c, 5, 72, 0
1, 7002, Note_off_c, 6, 53, 0
1, 7008, Note_on_c, 0, 72, 80
1, 7008, Note_on_c, 1, 67, 80
1, 7008, Note_on_c, 2, 67, 80
1, 7008, Note_on_c, 3, 55, 80
1, 7008, Note_on_c, 4, 43, 80
1, 7008, Note_on_c, 5, 75, 96
1, 7008, Note_on_c, 6, 55, 96
1, 7056, Note_off_c, 2, 67, 0
1, 7056, Note_on_c, 2, 63, 80
1, 7092, Note_off_c, 0, 72, 0
1, 7092, Note_off_c, 3, 55, 0
1, 7092, Note_off_c, 4, 43, 0
1, 7092, Note_off_c, 6, 55, 0
1, 7098, Note_off_c, 2, 63, 0
1, 7104, Note_on_c, 0, 71, 80
1, 7104, Note_on_c, 2, 65, 80
1, 7104, Note_on_c, 3, 43, 80
1, 7104, Note_on_c, 4, 31, 80
1, 7104, Note_off_c, 5, 75, 0
1, 7104, Note_on_c, 5, 74, 96
1, 7104, Note_on_c, 6, 43, 96
1, 7107, Note_off_c, 5, 74, 0
1, 7107, Note_on_c, 5, 75, 96
1, 7110, Note_off_c, 5, 75, 0
1, 7110, Note_on_c, 5, 74, 96
1, 7113, Note_off_c, 5, 74, 0
1, 7113, Note_on_c, 5, 75, 96
1, 7116, Note_off_c, 5, 75, 0
1, 7116, Note_on_c, 5, 74, 96
1, 7119, Note_off_c, 5, 74, 0
1, 7119, Note_on_c, 5, 75, 96
1, 7122, Note_off_c, 5, 75, 0
1, 7122, Note_on_c, 5, 74, 96
1, 7128, Note_off_c, 5, 74, 0
1, 7128, Note_on_c, 5, 72, 96
1, 7152, Note_off_c, 2, 65, 0
1, 7152, Note_on_c, 2, 62, 80
1, 7152, Note_off_c, 5, 72, 0
1, 7152, Note_on_c, 5, 74, 96
1, 7176, Note_off_c, 1, 67, 0
1, 7188, Note_off_c, 0, 71, 0
1, 7188, Note_off_c, 3, 43, 0
1, 7188, Note_off_c, 4, 31, 0
1, 7188, Note_off_c, 6, 43, 0
1, 7194, Note_off_c, 2, 62, 0
1, 7194, Note_off_c, 5, 74, 0
1, 7200, Note_on_c, 0, 72, 80
1, 7200, Note_on_c, 1, 67, 80
1, 7200, Note_on_c, 2, 63, 80
1, 7200, Note_on_c, 3, 48, 80
1, 7200, Note_on_c, 4, 36, 80
1, 7200, Note_on_c, 5, 72, 96
1, 7200, Note_on_c, 6, 48, 96
1, 7284, Note_off_c, 0, 72, 0
1, 7284, Note_off_c, 1, 67, 0
1, 7284, Note_off_c, 2, 63, 0
1, 7284, Note_off_c, 3, 48, 0
1, 7284, Note_off_c, 4, 36, 0
1, 7284, Note_off_c, 5, 72, 0
1, 7284, Note_off_c, 6, 48, 0
1, 7296, Note_on_c, 5, 67, 96
1, 7380, Note_off_c, 5, 67, 0
1, 7392, Note_on_c, 5, 65, 96
1, 7440, Note_off_c, 5, 65, 0
1, 7440, Note_on_c, 5, 63, 96
1, 7482, Note_off_c, 5, 63, 0
1, 7488, Note_on_c, 0, 72, 80
1, 7488, Note_on_c, 1, 67, 80
1, 7488, Note_on_c, 2, 63, 80
1, 7488, Note_on_c, 3, 48, 80
1, 7488, Note_on_c, 4, 36, 80
1, 7488, Note_on_c, 5, 62, 96
1, 7488, Note_on_c, 6, 48, 96
1, 7512, Note_off_c, 5, 62, 0
1, 7512, Note_on_c, 5, 60, 96
1, 7533, Note_off_c, 5, 60, 0
1, 7536, Note_off_c, 3, 48, 0
1, 7536, Note_on_c, 3, 48, 80
1, 7536, Note_off_c, 4, 36, 0
1, 7536, Note_on_c, 4, 36, 80
1, 7536, Note_on_c, 5, 59, 96
1, 7536, Note_off_c, 6, 48, 0
1, 7536, Note_on_c, 6, 48, 96
1, 7572, Note_off_c, 0, 72, 0
1, 7572, Note_off_c, 1, 67, 0
1, 7572, Note_off_c, 2, 63, 0
1, 7578, Note_off_c, 3, 48, 0
1, 7578, Note_off_c, 4, 36, 0
1, 7578, Note_off_c, 5, 59, 0
1, 7578, Note_off_c, 6, 48, 0
1, 7584, Note_on_c, 0, 67, 80
1, 7584, Note_on_c, 1, 63, 80
1, 7584, Note_on_c, 2, 60, 80
1, 7584, Note_on_c, 3, 51, 80
1, 7584, Note_on_c, 4, 39, 80
1, 7584, Note_on_c, 5, 59, 96
1, 7584, Note_on_c, 6, 51, 96
1, 7632, Note_off_c, 3, 51, 0
1, 7632, Note_on_c, 3, 51, 80
1, 7632, Note_off_c, 4, 39, 0
1, 7632, Note_on_c, 4, 39, 80
1, 7632, Note_off_c, 5, 59, 0
1, 7632, Note_on_c, 5, 60, 96
1, 7632, Note_off_c, 6, 51, 0
1, 7632, Note_on_c, 6, 51, 96
1, 7668, Note_off_c, 0, 67, 0
1, 7668, Note_off_c, 1, 63, 0
1, 7668, Note_off_c, 2, 60, 0
1, 7674, Note_off_c, 3, 51, 0
1, 7674, Note_off_c, 4, 39, 0
1, 7674, Note_off_c, 5, 60, 0
1, 7674, Note_off_c, 6, 51, 0
1, 7680, Note_on_c, 0, 63, 80
1, 7680, Note_on_c, 1, 60, 80
1, 7680, Note_on_c, 2, 55, 80
1, 7680, Note_on_c, 3, 55, 80
1, 7680, Note_on_c, 4, 43, 80
1, 7680, Note_on_c, 6, 55, 96
1, 7728, Note_off_c, 3, 55, 0
1, 7728, Note_on_c, 3, 55, 80
1, 7728, Note_off_c, 4, 43, 0
1, 7728, Note_on_c, 4, 43, 80
1, 7728, Note_off_c, 6, 55, 0
1, 7728, Note_on_c, 6, 55, 96
1, 7764, Note_off_c, 0, 63, 0
1, 7764, Note_off_c, 1, 60, 0
1, 7764, Note_off_c, 2, 55, 0
1, 7770, Note_off_c, 3, 55, 0
1, 7770, Note_off_c, 4, 43, 0
1, 7770, Note_off_c, 6, 55, 0
1, 7776, Note_on_c, 0, 76, 80
1, 7776, Note_on_c, 1, 73, 80
1, 7776, Note_on_c, 2, 64, 80
1, 7776, Note_on_c, 3, 45, 80
1, 7776, Note_on_c, 4, 33, 80
1, 7776, Note_on_c, 5, 82, 96
1, 7776, Note_on_c, 6, 45, 96
1, 7824, Note_off_c, 3, 45, 0
1, 7824, Note_on_c, 3, 45, 80
1, 7824, Note_off_c, 4, 33, 0
1, 7824, Note_on_c, 4, 33, 80
1, 7824, Note_off_c, 6, 45, 0
1, 7824, Note_on_c, 6, 45, 96
1, 7828, Note_off_c, 5, 82, 0
1, 7836, Note_on_c, 5, 81, 96
1, 7846, Note_off_c, 5, 81, 0
1, 7848, Note_on_c, 5, 79, 96
1, 7858, Note_off_c, 5, 79, 0
1, 7860, Note_off_c, 0, 76, 0
1, 7860, Note_off_c, 1, 73, 0
1, 7860, Note_off_c, 2, 64, 0
1, 7860, Note_on_c, 5, 77, 96
1, 7866, Note_off_c, 3, 45, 0
1, 7866, Note_off_c, 4, 33, 0
1, 7866, Note_off_c, 6, 45, 0
1, 7870, Note_off_c, 5, 77, 0
1, 7872, Note_on_c, 0, 73, 80
1, 7872, Note_on_c, 1, 69, 80
1, 7872, Note_on_c, 2, 64, 80
1, 7872, Note_on_c, 3, 49, 80
1, 7872, Note_on_c, 4, 37, 80
1, 7872, Note_on_c, 5, 76, 96
1, 7872, Note_on_c, 6, 49, 96
1, 7896, Note_off_c, 5, 76, 0
1, 7896, Note_on_c, 5, 79, 96
1, 7920, Note_off_c, 3, 49, 0
1, 7920, Note_on_c, 3, 49, 80
1, 7920, Note_off_c, 4, 37, 0
1, 7920, Note_on_c, 4, 37, 80
1, 7920, Note_off_c, 5, 79, 0
1, 7920, Note_on_c, 5, 77, 96
1, 7920, Note_off_c, 6, 49, 0
1, 7920, Note_on_c, 6, 49, 96
1, 7944, Note_off_c, 5, 77, 0
1, 7944, Note_on_c, 5, 76, 96
1, 7956, Note_off_c, 0, 73, 0
1, 7956, Note_off_c, 1, 69, 0
1, 7956, Note_off_c, 2, 64, 0
1, 7962, Note_off_c, 3, 49, 0
1, 7962, Note_off_c, 4, 37, 0
1, 7962, Note_off_c, 6, 49, 0
1, 7968, Note_on_c, 0, 69, 80
1, 7968, Note_on_c, 1, 67, 80
1, 7968, Note_on_c, 2, 64, 80
1, 7968, Note_on_c, 3, 52, 80
1, 7968, Note_on_c, 4, 40, 80
1, 7968, Note_off_c, 5, 76, 0
1, 7968, Note_on_c, 5, 74, 96
1, 7968, Note_on_c, 6, 52, 96
1, 7992, Note_off_c, 5, 74, 0
1, 7992, Note_on_c, 5, 73, 96
1, 8016, Note_off_c, 2, 64, 0
1, 8016, Note_on_c, 2, 61, 80
1, 8016, Note_off_c, 3, 52, 0
1, 8016, Note_on_c, 3, 52, 80
1, 8016, Note_off_c, 4, 40, 0
1, 8016, Note_on_c, 4, 40, 80
1, 8016, Note_off_c, 5, 73, 0
1, 8016, Note_on_c, 5, 71, 96
1, 8016, Note_off_c, 6, 52, 0
1, 8016, Note_on_c, 6, 52, 96
1, 8040, Note_off_c, 5, 71, 0
1, 8040, Note_on_c, 5, 69, 96
1, 8052, Note_off_c, 0, 69, 0
1, 8052, Note_off_c, 1, 67, 0
1, 8058, Note_off_c, 2, 61, 0
1, 8058, Note_off_c, 3, 52, 0
1, 8058, Note_off_c, 4, 40, 0
1, 8058, Note_off_c, 6, 52, 0
1, 8061, Note_off_c, 5, 69, 0
1, 8064, Note_on_c, 0, 69, 80
1, 8064, Note_on_c, 1, 65, 80
1, 8064, Note_on_c, 2, 62, 80
1, 8064, Note_on_c, 3, 38, 80
1, 8064, Note_on_c, 4, 26, 80
1, 8064, Note_on_c, 5, 77, 96
1, 8064, Note_on_c, 6, 38, 96
1, 8076, Note_off_c, 5, 77, 0
1, 8076, Note_on_c, 5, 82, 96
1, 8088, Note_off_c, 5, 82, 0
1, 8088, Note_on_c, 5, 81, 96
1, 8148, Note_off_c, 0, 69, 0
1, 8148, Note_off_c, 1, 65, 0
1, 8148, Note_off_c, 2, 62, 0
1, 8148, Note_off_c, 3, 38, 0
1, 8148, Note_off_c, 4, 26, 0
1, 8148, Note_off_c, 6, 38, 0
1, 8151, Note_off_c, 5, 81, 0
1, 8160, Note_on_c, 5, 79, 96
1, 8184, Note_off_c, 5, 79, 0
1, 8184, Note_on_c, 5, 77, 96
1, 8226, Note_off_c, 5, 77, 0
1, 8232, Note_on_c, 5, 76, 96
1, 8253, Note_off_c, 5, 76, 0
1, 8256, Note_on_c, 5, 74, 96
1, 8277, Note_off_c, 5, 74, 0
1, 8280, Note_on_c, 5, 76, 96
1, 8301, Note_off_c, 5, 76, 0
1, 8304, Note_on_c, 5, 73, 96
1, 8346, Note_off_c, 5, 73, 0
1, 8352, Note_on_c, 0, 81, 80
1, 8352, Note_on_c, 1, 77, 80
1, 8352, Note_on_c, 2, 74, 80
1, 8352, Note_on_c, 3, 50, 80
1, 8352, Note_on_c, 4, 38, 80
1, 8352, Note_on_c, 5, 74, 96
1, 8352, Note_on_c, 6, 50, 96
1, 8400, Note_off_c, 3, 50, 0
1, 8400, Note_on_c, 3, 50, 80
1, 8400, Note_off_c, 4, 38, 0
1, 8400, Note_on_c, 4, 38, 80
1, 8400, Note_off_c, 6, 50, 0
1, 8400, Note_on_c, 6, 50, 96
1, 8404, Note_off_c, 5, 74, 0
1, 8412, Note_on_c, 5, 76, 96
1, 8422, Note_off_c, 5, 76, 0
1, 8424, Note_on_c, 5, 74, 96
1, 8434, Note_off_c, 5, 74, 0
1, 8436, Note_off_c, 0, 81, 0
1, 8436, Note_off_c, 1, 77, 0
1, 8436, Note_off_c, 2, 74, 0
1, 8436, Note_on_c, 5, 73, 96
1, 8442, Note_off_c, 3, 50, 0
1, 8442, Note_off_c, 4, 38, 0
1, 8442, Note_off_c, 6, 50, 0
1, 8446, Note_off_c, 5, 73, 0
1, 8448, Note_on_c, 0, 77, 80
1, 8448, Note_on_c, 1, 74, 80
1, 8448, Note_on_c, 2, 69, 80
1, 8448, Note_on_c, 3, 53, 80
1, 8448, Note_on_c, 4, 41, 80
1, 8448, Note_on_c, 5, 74, 96
1, 8448, Note_on_c, 6, 53, 96
1, 8496, Note_off_c, 3, 53, 0
1, 8496, Note_on_c, 3, 53, 80
1, 8496, Note_off_c, 4, 41, 0
1, 8496, Note_on_c, 4, 41, 80
1, 8496, Note_off_c, 6, 53, 0
1, 8496, Note_on_c, 6, 53, 96
1, 8532, Note_off_c, 0, 77, 0
1, 8532, Note_off_c, 1, 74, 0
1, 8532, Note_off_c, 2, 69, 0
1, 8532, Note_off_c, 5, 74, 0
1, 8538, Note_off_c, 3, 53, 0
1, 8538, Note_off_c, 4, 41, 0
1, 8538, Note_off_c, 6, 53, 0
1, 8544, Note_on_c, 0, 73, 80
1, 8544, Note_on_c, 1, 69, 80
1, 8544, Note_on_c, 2, 65, 80
1, 8544, Note_on_c, 3, 57, 80
1, 8544, Note_on_c, 4, 45, 80
1, 8544, Note_on_c, 6, 57, 96
1, 8592, Note_off_c, 1, 69, 0
1, 8592, Note_on_c, 1, 67, 80
1, 8592, Note_off_c, 2, 65, 0
1, 8592, Note_on_c, 2, 64, 80
1, 8592, Note_off_c, 3, 57, 0
1, 8592, Note_on_c, 3, 57, 80
1, 8592, Note_off_c, 4, 45, 0
1, 8592, Note_on_c, 4, 45, 80
1, 8592, Note_off_c, 6, 57, 0
1, 8592, Note_on_c, 6, 57, 96
1, 8628, Note_off_c, 0, 73, 0
1, 8634, Note_off_c, 1, 67, 0
1, 8634, Note_off_c, 2, 64, 0
1, 8634, Note_off_c, 3, 57, 0
1, 8634, Note_off_c, 4, 45, 0
1, 8634, Note_off_c, 6, 57, 0
1, 8640, Note_on_c, 0, 74, 80
1, 8640, Note_on_c, 1, 65, 80
1, 8640, Note_on_c, 2, 62, 80
1, 8640, Note_on_c, 3, 46, 80
1, 8640, Note_on_c, 4, 34, 80
1, 8640, Note_on_c, 5, 86, 96
1, 8640, Note_on_c, 6, 46, 96
1, 8688, Note_off_c, 0, 74, 0
1, 8688, Note_on_c, 0, 73, 80
1, 8688, Note_off_c, 3, 46, 0
1, 8688, Note_on_c, 3, 45, 80
1, 8688, Note_off_c, 4, 34, 0
1, 8688, Note_on_c, 4, 33, 80
1, 8688, Note_off_c, 6, 46, 0
1, 8688, Note_on_c, 6, 45, 96
1, 8724, Note_off_c, 1, 65, 0
1, 8724, Note_off_c, 2, 62, 0
1, 8724, Note_off_c, 5, 86, 0
1, 8730, Note_off_c, 0, 73, 0
1, 8730, Note_off_c, 3, 45, 0
1, 8730, Note_off_c, 4, 33, 0
1, 8730, Note_off_c, 6, 45, 0
1, 8736, Note_on_c, 0, 73, 80
1, 8736, Note_on_c, 3, 45, 80
1, 8736, Note_on_c, 4, 33, 80
1, 8736, Note_on_c, 5, 84, 96
1, 8736, Note_on_c, 6, 45, 96
1, 8784, Note_off_c, 0, 73, 0
1, 8784, Note_on_c, 0, 74, 80
1, 8784, Note_off_c, 3, 45, 0
1, 8784, Note_on_c, 3, 46, 80
1, 8784, Note_off_c, 4, 33, 0
1, 8784, Note_on_c, 4, 34, 80
1, 8784, Note_off_c, 5, 84, 0
1, 8784, Note_on_c, 5, 82, 96
1, 8784, Note_off_c, 6, 45, 0
1, 8784, Note_on_c, 6, 46, 96
1, 8826, Note_off_c, 0, 74, 0
1, 8826, Note_off_c, 3, 46, 0
1, 8826, Note_off_c, 4, 34, 0
1, 8826, Note_off_c, 5, 82, 0
1, 8826, Note_off_c, 6, 46, 0
1, 8832, Note_on_c, 5, 81, 96
1, 8856, Note_off_c, 5, 81, 0
1, 8856, Note_on_c, 5, 79, 96
1, 8880, Note_off_c, 5, 79, 0
1, 8880, Note_on_c, 5, 78, 96
1, 8922, Note_off_c, 5, 78, 0
1, 8928, Note_on_c, 0, 79, 80
1, 8928, Note_on_c, 1, 73, 80
1, 8928, Note_on_c, 2, 67, 80
1, 8928, Note_on_c, 3, 52, 80
1, 8928, Note_on_c, 4, 40, 80
1, 8928, Note_on_c, 5, 79, 96
1, 8928, Note_on_c, 6, 52, 96
1, 8952, Note_off_c, 5, 79, 0
1, 8952, Note_on_c, 5, 78, 96
1, 8973, Note_off_c, 5, 78, 0
1, 8976, Note_off_c, 3, 52, 0
1, 8976, Note_on_c, 3, 52, 80
1, 8976, Note_off_c, 4, 40, 0
1, 8976, Note_on_c, 4, 40, 80
1, 8976, Note_on_c, 5, 81, 96
1, 8976, Note_off_c, 6, 52, 0
1, 8976, Note_on_c, 6, 52, 96
1, 9000, Note_off_c, 5, 81, 0
1, 9000, Note_on_c, 5, 79, 96
1, 9012, Note_off_c, 0, 79, 0
1, 9012, Note_off_c, 1, 73, 0
1, 9012, Note_off_c, 2, 67, 0
1, 9018, Note_off_c, 3, 52, 0
1, 9018, Note_off_c, 4, 40, 0
1, 9018, Note_off_c, 6, 52, 0
1, 9021, Note_off_c, 5, 79, 0
1, 9024, Note_on_c, 0, 76, 80
1, 9024, Note_on_c, 1, 73, 80
1, 9024, Note_on_c, 2, 70, 80
1, 9024, Note_on_c, 3, 55, 80
1, 9024, Note_on_c, 4, 43, 80
1, 9024, Note_on_c, 5, 79, 96
1, 9024, Note_on_c, 6, 55, 96
1, 9027, Note_off_c, 5, 79, 0
1, 9027, Note_on_c, 5, 78, 96
1, 9030, Note_off_c, 5, 78, 0
1, 9030, Note_on_c, 5, 79, 96
1, 9072, Note_off_c, 1, 73, 0
1, 9072, Note_on_c, 1, 76, 80
1, 9072, Note_off_c, 3, 55, 0
1, 9072, Note_on_c, 3, 55, 80
1, 9072, Note_off_c, 4, 43, 0
1, 9072, Note_on_c, 4, 43, 80
1, 9072, Note_off_c, 6, 55, 0
1, 9072, Note_on_c, 6, 55, 96
1, 9108, Note_off_c, 0, 76, 0
1, 9108, Note_off_c, 2, 70, 0
1, 9114, Note_off_c, 1, 76, 0
1, 9114, Note_off_c, 3, 55, 0
1, 9114, Note_off_c, 4, 43, 0
1, 9114, Note_off_c, 6, 55, 0
1, 9120, Note_on_c, 0, 73, 80
1, 9120, Note_on_c, 1, 67, 80
1, 9120, Note_on_c, 2, 64, 80
1, 9120, Note_on_c, 3, 58, 80
1, 9120, Note_on_c, 4, 46, 80
1, 9120, Note_on_c, 6, 58, 96
1, 9168, Note_off_c, 1, 67, 0
1, 9168, Note_on_c, 1, 70, 80
1, 9168, Note_off_c, 3, 58, 0
1, 9168, Note_on_c, 3, 58, 80
1, 9168, Note_off_c, 4, 46, 0
1, 9168, Note_on_c, 4, 46, 80
1, 9168, Note_off_c, 6, 58, 0
1, 9168, Note_on_c, 6, 58, 96
1, 9204, Note_off_c, 0, 73, 0
1, 9204, Note_off_c, 2, 64, 0
1, 9210, Note_off_c, 1, 70, 0
1, 9210, Note_off_c, 3, 58, 0
1, 9210, Note_off_c, 4, 46, 0
1, 9210, Note_off_c, 6, 58, 0
1, 9216, Note_on_c, 0, 69, 80
1, 9216, Note_on_c, 1, 64, 80
1, 9216, Note_on_c, 2, 69, 80
1, 9216, Note_on_c, 3, 49, 80
1, 9216, Note_on_c, 4, 37, 80
1, 9216, Note_on_c, 6, 49, 96
1, 9264, Note_off_c, 0, 69, 0
1, 9264, Note_on_c, 0, 67, 80
1, 9264, Note_off_c, 3, 49, 0
1, 9264, Note_on_c, 3, 49, 80
1, 9264, Note_off_c, 4, 37, 0
1, 9264, Note_on_c, 4, 37, 80
1, 9264, Note_off_c, 6, 49, 0
1, 9264, Note_on_c, 6, 49, 96
1, 9300, Note_off_c, 1, 64, 0
1, 9300, Note_off_c, 2, 69, 0
1, 9306, Note_off_c, 0, 67, 0
1, 9306, Note_off_c, 3, 49, 0
1, 9306, Note_off_c, 4, 37, 0
1, 9306, Note_off_c, 6, 49, 0
1, 9312, Note_on_c, 0, 69, 80
1, 9312, Note_on_c, 3, 52, 80
1, 9312, Note_on_c, 4, 40, 80
1, 9312, Note_on_c, 6, 52, 96
1, 9324, Note_off_c, 5, 79, 0
1, 9336, Note_on_c, 5, 77, 96
1, 9357, Note_off_c, 5, 77, 0
1, 9360, Note_off_c, 3, 52, 0
1, 9360, Note_on_c, 3, 52, 80
1, 9360, Note_off_c, 4, 40, 0
1, 9360, Note_on_c, 4, 40, 80
1, 9360, Note_on_c, 5, 76, 96
1, 9360, Note_off_c, 6, 52, 0
1, 9360, Note_on_c, 6, 52, 96
1, 9396, Note_off_c, 0, 69, 0
1, 9402, Note_off_c, 3, 52, 0
1, 9402, Note_off_c, 4, 40, 0
1, 9402, Note_off_c, 6, 52, 0
1, 9408, Note_on_c, 3, 55, 80
1, 9408, Note_on_c, 4, 43, 80
1, 9408, Note_on_c, 6, 55, 96
1, 9423, Note_off_c, 5, 76, 0
1, 9432, Note_on_c, 5, 74, 96
1, 9453, Note_off_c, 5, 74, 0
1, 9456, Note_off_c, 3, 55, 0
1, 9456, Note_on_c, 3, 55, 80
1, 9456, Note_off_c, 4, 43, 0
1, 9456, Note_on_c, 4, 43, 80
1, 9456, Note_on_c, 5, 73, 96
1, 9456, Note_off_c, 6, 55, 0
1, 9456, Note_on_c, 6, 55, 96
1, 9477, Note_off_c, 5, 73, 0
1, 9480, Note_on_c, 5, 82, 96
1, 9498, Note_off_c, 3, 55, 0
1, 9498, Note_off_c, 4, 43, 0
1, 9498, Note_off_c, 6, 55, 0
1, 9504, Note_on_c, 0, 76, 80
1, 9504, Note_on_c, 1, 73, 80
1, 9504, Note_on_c, 2, 67, 80
1, 9504, Note_on_c, 3, 45, 80
1, 9504, Note_on_c, 4, 33, 80
1, 9504, Note_on_c, 6, 45, 96
1, 9511, Note_off_c, 5, 82, 0
1, 9516, Note_on_c, 5, 81, 96
1, 9526, Note_off_c, 5, 81, 0
1, 9528, Note_on_c, 5, 79, 96
1, 9538, Note_off_c, 5, 79, 0
1, 9540, Note_on_c, 5, 77, 96
1, 9550, Note_off_c, 5, 77, 0
1, 9552, Note_off_c, 0, 76, 0
1, 9552, Note_on_c, 0, 74, 80
1, 9552, Note_off_c, 3, 45, 0
1, 9552, Note_on_c, 3, 45, 80
1, 9552, Note_off_c, 4, 33, 0
1, 9552, Note_on_c, 4, 33, 80
1, 9552, Note_on_c, 5, 79, 96
1, 9552, Note_off_c, 6, 45, 0
1, 9552, Note_on_c, 6, 45, 96
1, 9573, Note_off_c, 5, 79, 0
1, 9576, Note_on_c, 5, 82, 96
1, 9588, Note_off_c, 1, 73, 0
1, 9588, Note_off_c, 2, 67, 0
1, 9594, Note_off_c, 0, 74, 0
1, 9594, Note_off_c, 3, 45, 0
1, 9594, Note_off_c, 4, 33, 0
1, 9594, Note_off_c, 6, 45, 0
1, 9600, Note_on_c, 0, 76, 80
1, 9600, Note_on_c, 3, 49, 80
1, 9600, Note_on_c, 4, 37, 80
1, 9600, Note_on_c, 6, 49, 96
1, 9607, Note_off_c, 5, 82, 0
1, 9612, Note_on_c, 5, 81, 96
1, 9622, Note_off_c, 5, 81, 0
1, 9624, Note_on_c, 5, 79, 96
1, 9634, Note_off_c, 5, 79, 0
1, 9636, Note_on_c, 5, 77, 96
1, 9646, Note_off_c, 5, 77, 0
1, 9648, Note_off_c, 3, 49, 0
1, 9648, Note_on_c, 3, 49, 80
1, 9648, Note_off_c, 4, 37, 0
1, 9648, Note_on_c, 4, 37, 80
1, 9648, Note_on_c, 5, 76, 96
1, 9648, Note_off_c, 6, 49, 0
1, 9648, Note_on_c, 6, 49, 96
1, 9669, Note_off_c, 5, 76, 0
1, 9672, Note_on_c, 5, 79, 96
1, 9684, Note_off_c, 0, 76, 0
1, 9690, Note_off_c, 3, 49, 0
1, 9690, Note_off_c, 4, 37, 0
1, 9690, Note_off_c, 6, 49, 0
1, 9696, Note_on_c, 3, 52, 80
1, 9696, Note_on_c, 4, 40, 80
1, 9696, Note_on_c, 6, 52, 96
1, 9703, Note_off_c, 5, 79, 0
1, 9708, Note_on_c, 5, 77, 96
1, 9718, Note_off_c, 5, 77, 0
1, 9720, Note_on_c, 5, 76, 96
1, 9730, Note_off_c, 5, 76, 0
1, 9732, Note_on_c, 5, 74, 96
1, 9742, Note_off_c, 5, 74, 0
1, 9744, Note_off_c, 3, 52, 0
1, 9744, Note_on_c, 3, 52, 80
1, 9744, Note_off_c, 4, 40, 0
1, 9744, Note_on_c, 4, 40, 80
1, 9744, Note_on_c, 5, 76, 96
1, 9744, Note_off_c, 6, 52, 0
1, 9744, Note_on_c, 6, 52, 96
1, 9765, Note_off_c, 5, 76, 0
1, 9768, Note_on_c, 5, 73, 96
1, 9786, Note_off_c, 3, 52, 0
1, 9786, Note_off_c, 4, 40, 0
1, 9786, Note_off_c, 6, 52, 0
1, 9789, Note_off_c, 5, 73, 0
1, 9792, Note_on_c, 0, 62, 80
1, 9792, Note_on_c, 1, 69, 80
1, 9792, Note_on_c, 2, 65, 80
1, 9792, Note_on_c, 3, 41, 80
1, 9792, Note_on_c, 4, 29, 80
1, 9792, Note_on_c, 5, 74, 96
1, 9792, Note_on_c, 6, 41, 96
1, 9840, Note_off_c, 3, 41, 0
1, 9840, Note_on_c, 3, 40, 80
1, 9840, Note_off_c, 4, 29, 0
1, 9840, Note_on_c, 4, 28, 80
1, 9840, Note_off_c, 6, 41, 0
1, 9840, Note_on_c, 6, 40, 96
1, 9864, Note_off_c, 5, 74, 0
1, 9864, Note_on_c, 5, 76, 96
1, 9876, Note_off_c, 0, 62, 0
1, 9876, Note_off_c, 1, 69, 0
1, 9876, Note_off_c, 2, 65, 0
1, 9876, Note_off_c, 5, 76, 0
1, 9876, Note_on_c, 5, 77, 96
1, 9886, Note_off_c, 5, 77, 0
1, 9888, Note_on_c, 0, 65, 80
1, 9888, Note_on_c, 1, 62, 80
1, 9888, Note_on_c, 2, 57, 80
1, 9888, Note_off_c, 3, 40, 0
1, 9888, Note_on_c, 3, 41, 80
1, 9888, Note_off_c, 4, 28, 0
1, 9888, Note_on_c, 4, 29, 80
1, 9888, Note_on_c, 5, 76, 96
1, 9888, Note_off_c, 6, 40, 0
1, 9888, Note_on_c, 6, 41, 96
1, 9930, Note_off_c, 3, 41, 0
1, 9930, Note_off_c, 4, 29, 0
1, 9930, Note_off_c, 6, 41, 0
1, 9936, Note_on_c, 3, 53, 80
1, 9936, Note_on_c, 4, 41, 80
1, 9936, Note_off_c, 5, 76, 0
1, 9936, Note_on_c, 5, 74, 96
1, 9936, Note_on_c, 6, 53, 96
1, 9948, Note_off_c, 6, 53, 0
1, 9972, Note_off_c, 0, 65, 0
1, 9972, Note_off_c, 1, 62, 0
1, 9972, Note_off_c, 2, 57, 0
1, 9978, Note_off_c, 3, 53, 0
1, 9978, Note_off_c, 4, 41, 0
1, 9984, Note_on_c, 0, 69, 80
1, 9984, Note_on_c, 1, 65, 80
1, 9984, Note_on_c, 2, 62, 80
1, 9984, Note_on_c, 3, 49, 80
1, 9984, Note_on_c, 4, 37, 80
1, 9984, Note_off_c, 5, 74, 0
1, 9984, Note_on_c, 6, 49, 96
1, 10026, Note_off_c, 3, 49, 0
1, 10026, Note_off_c, 4, 37, 0
1, 10032, Note_on_c, 3, 50, 80
1, 10032, Note_on_c, 4, 38, 80
1, 10032, Note_off_c, 6, 49, 0
1, 10032, Note_on_c, 6, 50, 96
1, 10068, Note_off_c, 0, 69, 0
1, 10068, Note_off_c, 1, 65, 0
1, 10068, Note_off_c, 2, 62, 0
1, 10074, Note_off_c, 3, 50, 0
1, 10074, Note_off_c, 4, 38, 0
1, 10074, Note_off_c, 6, 50, 0
1, 10080, Note_on_c, 0, 70, 80
1, 10080, Note_on_c, 1, 64, 80
1, 10080, Note_on_c, 2, 62, 80
1, 10080, Note_on_c, 3, 43, 80
1, 10080, Note_on_c, 4, 31, 80
1, 10080, Note_on_c, 5, 82, 96
1, 10080, Note_on_c, 6, 43, 96
1, 10104, Note_off_c, 5, 82, 0
1, 10104, Note_on_c, 5, 81, 96
1, 10125, Note_off_c, 5, 81, 0
1, 10128, Note_off_c, 3, 43, 0
1, 10128, Note_on_c, 3, 41, 80
1, 10128, Note_off_c, 4, 31, 0
1, 10128, Note_on_c, 4, 29, 80
1, 10128, Note_on_c, 5, 84, 96
1, 10128, Note_off_c, 6, 43, 0
1, 10128, Note_on_c, 6, 41, 96
1, 10152, Note_off_c, 5, 84, 0
1, 10152, Note_on_c, 5, 82, 96
1, 10164, Note_off_c, 0, 70, 0
1, 10173, Note_off_c, 5, 82, 0
1, 10176, Note_on_c, 0, 74, 80
1, 10176, Note_off_c, 3, 41, 0
1, 10176, Note_on_c, 3, 43, 80
1, 10176, Note_off_c, 4, 29, 0
1, 10176, Note_on_c, 4, 31, 80
1, 10176, Note_on_c, 5, 82, 96
1, 10176, Note_off_c, 6, 41, 0
1, 10176, Note_on_c, 6, 43, 96
1, 10218, Note_off_c, 3, 43, 0
1, 10218, Note_off_c, 4, 31, 0
1, 10218, Note_off_c, 6, 43, 0
1, 10224, Note_on_c, 3, 53, 80
1, 10224, Note_on_c, 4, 41, 80
1, 10224, Note_on_c, 6, 53, 96
1, 10236, Note_off_c, 6, 53, 0
1, 10260, Note_off_c, 0, 74, 0
1, 10266, Note_off_c, 3, 53, 0
1, 10266, Note_off_c, 4, 41, 0
1, 10272, Note_on_c, 0, 70, 80
1, 10272, Note_on_c, 3, 49, 80
1, 10272, Note_on_c, 4, 37, 80
1, 10272, Note_on_c, 6, 49, 96
1, 10284, Note_off_c, 5, 82, 0
1, 10296, Note_on_c, 5, 81, 96
1, 10314, Note_off_c, 3, 49, 0
1, 10314, Note_off_c, 4, 37, 0
1, 10317, Note_off_c, 5, 81, 0
1, 10320, Note_on_c, 3, 50, 80
1, 10320, Note_on_c, 4, 38, 80
1, 10320, Note_on_c, 5, 79, 96
1, 10320, Note_off_c, 6, 49, 0
1, 10320, Note_on_c, 6, 50, 96
1, 10330, Note_off_c, 5, 79, 0
1, 10332, Note_on_c, 5, 78, 96
1, 10342, Note_off_c, 5, 78, 0
1, 10344, Note_on_c, 5, 79, 96
1, 10354, Note_off_c, 5, 79, 0
1, 10356, Note_off_c, 0, 70, 0
1, 10356, Note_off_c, 2, 62, 0
1, 10356, Note_on_c, 5, 82, 96
1, 10362, Note_off_c, 3, 50, 0
1, 10362, Note_off_c, 4, 38, 0
1, 10362, Note_off_c, 6, 50, 0
1, 10366, Note_off_c, 5, 82, 0
1, 10368, Note_on_c, 0, 67, 80
1, 10368, Note_on_c, 2, 61, 80
1, 10368, Note_on_c, 3, 45, 80
1, 10368, Note_on_c, 4, 33, 80
1, 10368, Note_on_c, 5, 85, 96
1, 10368, Note_on_c, 6, 45, 96
1, 10416, Note_off_c, 3, 45, 0
1, 10416, Note_on_c, 3, 43, 80
1, 10416, Note_off_c, 4, 33, 0
1, 10416, Note_on_c, 4, 31, 80
1, 10416, Note_off_c, 5, 85, 0
1, 10416, Note_on_c, 5, 86, 96
1, 10416, Note_off_c, 6, 45, 0
1, 10416, Note_on_c, 6, 43, 96
1, 10428, Note_off_c, 5, 86, 0
1, 10428, Note_on_c, 5, 85, 96
1, 10440, Note_off_c, 5, 85, 0
1, 10440, Note_on_c, 5, 83, 96
1, 10452, Note_off_c, 0, 67, 0
1, 10452, Note_off_c, 1, 64, 0
1, 10452, Note_off_c, 2, 61, 0
1, 10452, Note_off_c, 5, 83, 0
1, 10452, Note_on_c, 5, 85, 96
1, 10462, Note_off_c, 5, 85, 0
1, 10464, Note_on_c, 0, 70, 80
1, 10464, Note_on_c, 1, 67, 80
1, 10464, Note_on_c, 2, 64, 80
1, 10464, Note_off_c, 3, 43, 0
1, 10464, Note_on_c, 3, 45, 80
1, 10464, Note_off_c, 4, 31, 0
1, 10464, Note_on_c, 4, 33, 80
1, 10464, Note_on_c, 5, 86, 96
1, 10464, Note_off_c, 6, 43, 0
1, 10464, Note_on_c, 6, 45, 96
1, 10467, Note_off_c, 5, 86, 0
1, 10467, Note_on_c, 5, 85, 96
1, 10470, Note_off_c, 5, 85, 0
1, 10470, Note_on_c, 5, 86, 96
1, 10473, Note_off_c, 5, 86, 0
1, 10473, Note_on_c, 5, 85, 96
1, 10476, Note_off_c, 5, 85, 0
1, 10476, Note_on_c, 5, 86, 96
1, 10479, Note_off_c, 5, 86, 0
1, 10479, Note_on_c, 5, 85, 96
1, 10482, Note_off_c, 5, 85, 0
1, 10482, Note_on_c, 5, 86, 96
1, 10485, Note_off_c, 5, 86, 0
1, 10485, Note_on_c, 5, 85, 96
1, 10488, Note_off_c, 5, 85, 0
1, 10488, Note_on_c, 5, 86, 96
1, 10491, Note_off_c, 5, 86, 0
1, 10491, Note_on_c, 5, 85, 96
1, 10494, Note_off_c, 5, 85, 0
1, 10494, Note_on_c, 5, 86, 96
1, 10497, Note_off_c, 5, 86, 0
1, 10497, Note_on_c, 5, 85, 96
1, 10500, Note_off_c, 5, 85, 0
1, 10500, Note_on_c, 5, 86, 96
1, 10503, Note_off_c, 5, 86, 0
1, 10503, Note_on_c, 5, 85, 96
1, 10506, Note_off_c, 3, 45, 0
1, 10506, Note_off_c, 4, 33, 0
1, 10506, Note_off_c, 5, 85, 0
1, 10506, Note_on_c, 5, 86, 96
1, 10506, Note_off_c, 6, 45, 0
1, 10509, Note_off_c, 5, 86, 0
1, 10509, Note_on_c, 5, 85, 96
1, 10512, Note_on_c, 3, 53, 80
1, 10512, Note_on_c, 4, 41, 80
1, 10512, Note_off_c, 5, 85, 0
1, 10512, Note_on_c, 5, 86, 96
1, 10512, Note_on_c, 6, 53, 96
1, 10515, Note_off_c, 5, 86, 0
1, 10515, Note_on_c, 5, 85, 96
1, 10518, Note_off_c, 5, 85, 0
1, 10518, Note_on_c, 5, 86, 96
1, 10521, Note_off_c, 5, 86, 0
1, 10521, Note_on_c, 5, 85, 96
1, 10524, Note_off_c, 5, 85, 0
1, 10524, Note_on_c, 5, 86, 96
1, 10524, Note_off_c, 6, 53, 0
1, 10527, Note_off_c, 5, 86, 0
1, 10527, Note_on_c, 5, 85, 96
1, 10530, Note_off_c, 5, 85, 0
1, 10530, Note_on_c, 5, 86, 96
1, 10533, Note_off_c, 5, 86, 0
1, 10533, Note_on_c, 5, 85, 96
1, 10536, Note_off_c, 5, 85, 0
1, 10536, Note_on_c, 5, 86, 96
1, 10539, Note_off_c, 5, 86, 0
1, 10539, Note_on_c, 5, 85, 96
1, 10542, Note_off_c, 5, 85, 0
1, 10542, Note_on_c, 5, 86, 96
1, 10545, Note_off_c, 5, 86, 0
1, 10545, Note_on_c, 5, 85, 96
1, 10548, Note_off_c, 0, 70, 0
1, 10548, Note_off_c, 1, 67, 0
1, 10548, Note_off_c, 2, 64, 0
1, 10548, Note_off_c, 5, 85, 0
1, 10548, Note_on_c, 5, 86, 96
1, 10551, Note_off_c, 5, 86, 0
1, 10551, Note_on_c, 5, 85, 96
1, 10554, Note_off_c, 3, 53, 0
1, 10554, Note_off_c, 4, 41, 0
1, 10554, Note_off_c, 5, 85, 0
1, 10554, Note_on_c, 5, 86, 96
1, 10557, Note_off_c, 5, 86, 0
1, 10557, Note_on_c, 5, 85, 96
1, 10560, Note_on_c, 0, 69, 80
1, 10560, Note_on_c, 1, 64, 80
1, 10560, Note_on_c, 2, 57, 80
1, 10560, Note_on_c, 3, 49, 80
1, 10560, Note_on_c, 4, 37, 80
1, 10560, Note_off_c, 5, 85, 0
1, 10560, Note_on_c, 5, 86, 96
1, 10560, Note_on_c, 6, 49, 96
1, 10563, Note_off_c, 5, 86, 0
1, 10563, Note_on_c, 5, 85, 96
1, 10566, Note_off_c, 5, 85, 0
1, 10566, Note_on_c, 5, 86, 96
1, 10569, Note_off_c, 5, 86, 0
1, 10569, Note_on_c, 5, 85, 96
1, 10572, Note_off_c, 5, 85, 0
1, 10572, Note_on_c, 5, 86, 96
1, 10575, Note_off_c, 5, 86, 0
1, 10575, Note_on_c, 5, 85, 96
1, 10578, Note_off_c, 5, 85, 0
1, 10578, Note_on_c, 5, 86, 96
1, 10581, Note_off_c, 5, 86, 0
1, 10581, Note_on_c, 5, 85, 96
1, 10584, Note_off_c, 5, 85, 0
1, 10584, Note_on_c, 5, 86, 96
1, 10587, Note_off_c, 5, 86, 0
1, 10587, Note_on_c, 5, 85, 96
1, 10602, Note_off_c, 3, 49, 0
1, 10602, Note_off_c, 4, 37, 0
1, 10608, Note_off_c, 0, 69, 0
1, 10608, Note_on_c, 0, 67, 80
1, 10608, Note_on_c, 3, 50, 80
1, 10608, Note_on_c, 4, 38, 80
1, 10608, Note_off_c, 5, 85, 0
1, 10608, Note_on_c, 5, 83, 96
1, 10608, Note_off_c, 6, 49, 0
1, 10608, Note_on_c, 6, 50, 96
1, 10632, Note_off_c, 5, 83, 0
1, 10632, Note_on_c, 5, 85, 96
1, 10644, Note_off_c, 1, 64, 0
1, 10644, Note_off_c, 2, 57, 0
1, 10650, Note_off_c, 0, 67, 0
1, 10650, Note_off_c, 3, 50, 0
1, 10650, Note_off_c, 4, 38, 0
1, 10650, Note_off_c, 6, 50, 0
1, 10653, Note_off_c, 5, 85, 0
1, 10656, Note_on_c, 0, 65, 80
1, 10656, Note_on_c, 1, 62, 80
1, 10656, Note_on_c, 2, 62, 80
1, 10656, Note_on_c, 3, 46, 80
1, 10656, Note_on_c, 4, 34, 80
1, 10656, Note_on_c, 5, 86, 96
1, 10656, Note_on_c, 6, 46, 96
1, 10704, Note_off_c, 0, 65, 0
1, 10704, Note_on_c, 0, 61, 80
1, 10704, Note_off_c, 5, 86, 0
1, 10704, Note_on_c, 5, 81, 96
1, 10740, Note_off_c, 1, 62, 0
1, 10740, Note_off_c, 2, 62, 0
1, 10740, Note_off_c, 3, 46, 0
1, 10740, Note_off_c, 4, 34, 0
1, 10740, Note_off_c, 6, 46, 0
1, 10746, Note_off_c, 0, 61, 0
1, 10746, Note_off_c, 5, 81, 0
1, 10752, Note_on_c, 0, 62, 80
1, 10752, Note_on_c, 5, 82, 96
1, 10800, Note_on_c, 3, 50, 80
1, 10800, Note_on_c, 4, 38, 80
1, 10800, Note_off_c, 5, 82, 0
1, 10800, Note_on_c, 5, 78, 96
1, 10800, Note_on_c, 6, 50, 96
1, 10836, Note_off_c, 0, 62, 0
1, 10842, Note_off_c, 3, 50, 0
1, 10842, Note_off_c, 4, 38, 0
1, 10842, Note_off_c, 5, 78, 0
1, 10848, Note_on_c, 3, 51, 80
1, 10848, Note_on_c, 4, 39, 80
1, 10848, Note_on_c, 5, 79, 96
1, 10848, Note_off_c, 6, 50, 0
1, 10848, Note_on_c, 6, 51, 96
1, 10890, Note_off_c, 3, 51, 0
1, 10890, Note_off_c, 4, 39, 0
1, 10890, Note_off_c, 5, 79, 0
1, 10896, Note_on_c, 3, 48, 80
1, 10896, Note_on_c, 4, 36, 80
1, 10896, Note_on_c, 5, 77, 96
1, 10896, Note_off_c, 6, 51, 0
1, 10896, Note_on_c, 6, 48, 96
1, 10920, Note_off_c, 5, 77, 0
1, 10920, Note_on_c, 5, 75, 96
1, 10938, Note_off_c, 3, 48, 0
1, 10938, Note_off_c, 4, 36, 0
1, 10938, Note_off_c, 6, 48, 0
1, 10941, Note_off_c, 5, 75, 0
1, 10944, Note_on_c, 0, 75, 80
1, 10944, Note_on_c, 1, 72, 80
1, 10944, Note_on_c, 2, 69, 80
1, 10944, Note_on_c, 3, 42, 80
1, 10944, Note_on_c, 4, 30, 80
1, 10944, Note_on_c, 5, 74, 96
1, 10944, Note_on_c, 6, 42, 96
1, 10992, Note_off_c, 3, 42, 0
1, 10992, Note_on_c, 3, 42, 80
1, 10992, Note_off_c, 4, 30, 0
1, 10992, Note_on_c, 4, 30, 80
1, 10992, Note_off_c, 5, 74, 0
1, 10992, Note_on_c, 5, 72, 96
1, 10992, Note_off_c, 6, 42, 0
1, 10992, Note_on_c, 6, 42, 96
1, 10995, Note_off_c, 5, 72, 0
1, 10995, Note_on_c, 5, 74, 96
1, 10998, Note_off_c, 5, 74, 0
1, 10998, Note_on_c, 5, 72, 96
1, 11001, Note_off_c, 5, 72, 0
1, 11001, Note_on_c, 5, 74, 96
1, 11004, Note_off_c, 5, 74, 0
1, 11004, Note_on_c, 5, 72, 96
1, 11007, Note_off_c, 5, 72, 0
1, 11007, Note_on_c, 5, 74, 96
1, 11010, Note_off_c, 5, 74, 0
1, 11010, Note_on_c, 5, 72, 96
1, 11013, Note_off_c, 5, 72, 0
1, 11013, Note_on_c, 5, 74, 96
1, 11016, Note_off_c, 5, 74, 0
1, 11016, Note_on_c, 5, 72, 96
1, 11019, Note_off_c, 5, 72, 0
1, 11019, Note_on_c, 5, 74, 96
1, 11022, Note_off_c, 5, 74, 0
1, 11022, Note_on_c, 5, 72, 96
1, 11025, Note_off_c, 5, 72, 0
1, 11025, Note_on_c, 5, 74, 96
1, 11028, Note_off_c, 0, 75, 0
1, 11028, Note_off_c, 1, 72, 0
1, 11028, Note_off_c, 2, 69, 0
1, 11028, Note_off_c, 5, 74, 0
1, 11028, Note_on_c, 5, 72, 96
1, 11031, Note_off_c, 5, 72, 0
1, 11031, Note_on_c, 5, 74, 96
1, 11034, Note_off_c, 3, 42, 0
1, 11034, Note_off_c, 4, 30, 0
1, 11034, Note_off_c, 5, 74, 0
1, 11034, Note_on_c, 5, 72, 96
1, 11034, Note_off_c, 6, 42, 0
1, 11037, Note_off_c, 5, 72, 0
1, 11037, Note_on_c, 5, 74, 96
1, 11040, Note_on_c, 0, 72, 80
1, 11040, Note_on_c, 1, 69, 80
1, 11040, Note_on_c, 2, 66, 80
1, 11040, Note_on_c, 3, 45, 80
1, 11040, Note_on_c, 4, 33, 80
1, 11040, Note_off_c, 5, 74, 0
1, 11040, Note_on_c, 5, 72, 96
1, 11040, Note_on_c, 6, 45, 96
1, 11043, Note_off_c, 5, 72, 0
1, 11043, Note_on_c, 5, 74, 96
1, 11046, Note_off_c, 5, 74, 0
1, 11046, Note_on_c, 5, 72, 96
1, 11049, Note_off_c, 5, 72, 0
1, 11049, Note_on_c, 5, 74, 96
1, 11052, Note_off_c, 5, 74, 0
1, 11052, Note_on_c, 5, 72, 96
1, 11055, Note_off_c, 5, 72, 0
1, 11055, Note_on_c, 5, 74, 96
1, 11058, Note_off_c, 5, 74, 0
1, 11058, Note_on_c, 5, 72, 96
1, 11061, Note_off_c, 5, 72, 0
1, 11061, Note_on_c, 5, 74, 96
1, 11064, Note_off_c, 5, 74, 0
1, 11064, Note_on_c, 5, 72, 96
1, 11067, Note_off_c, 5, 72, 0
1, 11067, Note_on_c, 5, 74, 96
1, 11070, Note_off_c, 5, 74, 0
1, 11070, Note_on_c, 5, 72, 96
1, 11073, Note_off_c, 5, 72, 0
1, 11073, Note_on_c, 5, 74, 96
1, 11076, Note_off_c, 5, 74, 0
1, 11076, Note_on_c, 5, 72, 96
1, 11079, Note_off_c, 5, 72, 0
1, 11079, Note_on_c, 5, 74, 96
1, 11082, Note_off_c, 5, 74, 0
1, 11082, Note_on_c, 5, 72, 96
1, 11085, Note_off_c, 5, 72, 0
1, 11085, Note_on_c, 5, 74, 96
1, 11088, Note_off_c, 3, 45, 0
1, 11088, Note_on_c, 3, 45, 80
1, 11088, Note_off_c, 4, 33, 0
1, 11088, Note_on_c, 4, 33, 80
1, 11088, Note_off_c, 5, 74, 0
1, 11088, Note_on_c, 5, 72, 96
1, 11088, Note_off_c, 6, 45, 0
1, 11088, Note_on_c, 6, 45, 96
1, 11091, Note_off_c, 5, 72, 0
1, 11091, Note_on_c, 5, 74, 96
1, 11094, Note_off_c, 5, 74, 0
1, 11094, Note_on_c, 5, 72, 96
1, 11097, Note_off_c, 5, 72, 0
1, 11097, Note_on_c, 5, 74, 96
1, 11100, Note_off_c, 5, 74, 0
1, 11100, Note_on_c, 5, 72, 96
1, 11103, Note_off_c, 5, 72, 0
1, 11103, Note_on_c, 5, 74, 96
1, 11106, Note_off_c, 5, 74, 0
1, 11106, Note_on_c, 5, 72, 96
1, 11109, Note_off_c, 5, 72, 0
1, 11109, Note_on_c, 5, 74, 96
1, 11112, Note_off_c, 5, 74, 0
1, 11112, Note_on_c, 5, 72, 96
1, 11115, Note_off_c, 5, 72, 0
1, 11115, Note_on_c, 5, 74, 96
1, 11118, Note_off_c, 5, 74, 0
1, 11118, Note_on_c, 5, 72, 96
1, 11121, Note_off_c, 5, 72, 0
1, 11121, Note_on_c, 5, 74, 96
1, 11124, Note_off_c, 0, 72, 0
1, 11124, Note_off_c, 1, 69, 0
1, 11124, Note_off_c, 2, 66, 0
1, 11124, Note_off_c, 5, 74, 0
1, 11124, Note_on_c, 5, 72, 96
1, 11127, Note_off_c, 5, 72, 0
1, 11127, Note_on_c, 5, 74, 96
1, 11130, Note_off_c, 3, 45, 0
1, 11130, Note_off_c, 4, 33, 0
1, 11130, Note_off_c, 5, 74, 0
1, 11130, Note_on_c, 5, 72, 96
1, 11130, Note_off_c, 6, 45, 0
1, 11133, Note_off_c, 5, 72, 0
1, 11133, Note_on_c, 5, 74, 96
1, 11136, Note_on_c, 0, 69, 80
1, 11136, Note_on_c, 1, 66, 80
1, 11136, Note_on_c, 2, 63, 80
1, 11136, Note_on_c, 3, 48, 80
1, 11136, Note_on_c, 4, 36, 80
1, 11136, Note_off_c, 5, 74, 0
1, 11136, Note_on_c, 5, 72, 96
1, 11136, Note_on_c, 6, 48, 96
1, 11139, Note_off_c, 5, 72, 0
1, 11139, Note_on_c, 5, 74, 96
1, 11142, Note_off_c, 5, 74, 0
1, 11142, Note_on_c, 5, 72, 96
1, 11145, Note_off_c, 5, 72, 0
1, 11145, Note_on_c, 5, 74, 96
1, 11148, Note_off_c, 5, 74, 0
1, 11148, Note_on_c, 5, 72, 96
1, 11151, Note_off_c, 5, 72, 0
1, 11151, Note_on_c, 5, 74, 96
1, 11154, Note_off_c, 5, 74, 0
1, 11154, Note_on_c, 5, 72, 96
1, 11157, Note_off_c, 5, 72, 0
1, 11157, Note_on_c, 5, 74, 96
1, 11160, Note_off_c, 5, 74, 0
1, 11160, Note_on_c, 5, 72, 96
1, 11163, Note_off_c, 5, 72, 0
1, 11163, Note_on_c, 5, 74, 96
1, 11166, Note_off_c, 5, 74, 0
1, 11166, Note_on_c, 5, 72, 96
1, 11169, Note_off_c, 5, 72, 0
1, 11169, Note_on_c, 5, 74, 96
1, 11172, Note_off_c, 5, 74, 0
1, 11172, Note_on_c, 5, 72, 96
1, 11175, Note_off_c, 5, 72, 0
1, 11175, Note_on_c, 5, 74, 96
1, 11178, Note_off_c, 5, 74, 0
1, 11178, Note_on_c, 5, 72, 96
1, 11181, Note_off_c, 5, 72, 0
1, 11181, Note_on_c, 5, 74, 96
1, 11184, Note_off_c, 3, 48, 0
1, 11184, Note_on_c, 3, 48, 80
1, 11184, Note_off_c, 4, 36, 0
1, 11184, Note_on_c, 4, 36, 80
1, 11184, Note_off_c, 5, 74, 0
1, 11184, Note_on_c, 5, 72, 96
1, 11184, Note_off_c, 6, 48, 0
1, 11184, Note_on_c, 6, 48, 96
1, 11187, Note_off_c, 5, 72, 0
1, 11187, Note_on_c, 5, 74, 96
1, 11190, Note_off_c, 5, 74, 0
1, 11190, Note_on_c, 5, 72, 96
1, 11193, Note_off_c, 5, 72, 0
1, 11193, Note_on_c, 5, 74, 96
1, 11196, Note_off_c, 5, 74, 0
1, 11196, Note_on_c, 5, 72, 96
1, 11199, Note_off_c, 5, 72, 0
1, 11199, Note_on_c, 5, 74, 96
1, 11202, Note_off_c, 5, 74, 0
1, 11202, Note_on_c, 5, 72, 96
1, 11205, Note_off_c, 5, 72, 0
1, 11205, Note_on_c, 5, 74, 96
1, 11208, Note_off_c, 5, 74, 0
1, 11208, Note_on_c, 5, 72, 96
1, 11211, Note_off_c, 5, 72, 0
1, 11211, Note_on_c, 5, 74, 96
1, 11214, Note_off_c, 5, 74, 0
1, 11214, Note_on_c, 5, 72, 96
1, 11217, Note_off_c, 5, 72, 0
1, 11217, Note_on_c, 5, 74, 96
1, 11220, Note_off_c, 0, 69, 0
1, 11220, Note_off_c, 1, 66, 0
1, 11220, Note_off_c, 2, 63, 0
1, 11220, Note_off_c, 5, 74, 0
1, 11220, Note_on_c, 5, 72, 96
1, 11223, Note_off_c, 5, 72, 0
1, 11223, Note_on_c, 5, 74, 96
1, 11226, Note_off_c, 3, 48, 0
1, 11226, Note_off_c, 4, 36, 0
1, 11226, Note_off_c, 5, 74, 0
1, 11226, Note_on_c, 5, 72, 96
1, 11226, Note_off_c, 6, 48, 0
1, 11229, Note_off_c, 5, 72, 0
1, 11229, Note_on_c, 5, 74, 96
1, 11232, Note_on_c, 0, 65, 80
1, 11232, Note_on_c, 1, 60, 80
1, 11232, Note_on_c, 2, 57, 80
1, 11232, Note_on_c, 3, 39, 80
1, 11232, Note_on_c, 4, 27, 80
1, 11232, Note_off_c, 5, 74, 0
1, 11232, Note_on_c, 5, 72, 96
1, 11232, Note_on_c, 6, 39, 96
1, 11274, Note_off_c, 5, 72, 0
1, 11280, Note_on_c, 5, 69, 96
1, 11316, Note_off_c, 0, 65, 0
1, 11316, Note_off_c, 1, 60, 0
1, 11316, Note_off_c, 2, 57, 0
1, 11316, Note_off_c, 3, 39, 0
1, 11316, Note_off_c, 4, 27, 0
1, 11316, Note_off_c, 6, 39, 0
1, 11322, Note_off_c, 5, 69, 0
1, 11328, Note_on_c, 5, 70, 96
1, 11340, Note_off_c, 5, 70, 0
1, 11340, Note_on_c, 5, 72, 96
1, 11352, Note_off_c, 5, 72, 0
1, 11352, Note_on_c, 5, 70, 96
1, 11364, Note_off_c, 5, 70, 0
1, 11364, Note_on_c, 5, 69, 96
1, 11376, Note_on_c, 0, 75, 80
1, 11376, Note_on_c, 1, 72, 80
1, 11376, Note_on_c, 2, 67, 80
1, 11376, Note_on_c, 3, 45, 80
1, 11376, Note_on_c, 4, 33, 80
1, 11376, Note_off_c, 5, 69, 0
1, 11376, Note_on_c, 5, 70, 96
1, 11376, Note_on_c, 6, 45, 96
1, 11400, Note_off_c, 5, 70, 0
1, 11400, Note_on_c, 5, 72, 96
1, 11418, Note_off_c, 0, 75, 0
1, 11418, Note_off_c, 1, 72, 0
1, 11418, Note_off_c, 2, 67, 0
1, 11418, Note_off_c, 3, 45, 0
1, 11418, Note_off_c, 4, 33, 0
1, 11421, Note_off_c, 5, 72, 0
1, 11424, Note_on_c, 0, 74, 80
1, 11424, Note_on_c, 1, 70, 80
1, 11424, Note_on_c, 2, 65, 80
1, 11424, Note_on_c, 3, 46, 80
1, 11424, Note_on_c, 4, 34, 80
1, 11424, Note_on_c, 5, 74, 96
1, 11424, Note_off_c, 6, 45, 0
1, 11424, Note_on_c, 6, 46, 96
1, 11436, Note_off_c, 5, 74, 0
1, 11436, Note_on_c, 5, 75, 96
1, 11448, Note_off_c, 5, 75, 0
1, 11448, Note_on_c, 5, 74, 96
1, 11460, Note_off_c, 5, 74, 0
1, 11460, Note_on_c, 5, 72, 96
1, 11466, Note_off_c, 0, 74, 0
1, 11466, Note_off_c, 1, 70, 0
1, 11466, Note_off_c, 2, 65, 0
1, 11466, Note_off_c, 3, 46, 0
1, 11466, Note_off_c, 4, 34, 0
1, 11472, Note_on_c, 0, 72, 80
1, 11472, Note_on_c, 1, 69, 80
1, 11472, Note_on_c, 2, 63, 80
1, 11472, Note_on_c, 3, 48, 80
1, 11472, Note_on_c, 4, 36, 80
1, 11472, Note_off_c, 5, 72, 0
1, 11472, Note_on_c, 5, 74, 96
1, 11472, Note_off_c, 6, 46, 0
1, 11472, Note_on_c, 6, 48, 96
1, 11496, Note_off_c, 5, 74, 0
1, 11496, Note_on_c, 5, 75, 96
1, 11514, Note_off_c, 0, 72, 0
1, 11514, Note_off_c, 1, 69, 0
1, 11514, Note_off_c, 2, 63, 0
1, 11514, Note_off_c, 3, 48, 0
1, 11514, Note_off_c, 4, 36, 0
1, 11514, Note_off_c, 6, 48, 0
1, 11517, Note_off_c, 5, 75, 0
1, 11520, Note_on_c, 0, 70, 80
1, 11520, Note_on_c, 1, 70, 80
1, 11520, Note_on_c, 2, 62, 80
1, 11520, Note_on_c, 3, 50, 80
1, 11520, Note_on_c, 4, 38, 80
1, 11520, Note_on_c, 5, 77, 96
1, 11520, Note_on_c, 6, 50, 96
1, 11530, Note_off_c, 5, 77, 0
1, 11532, Note_on_c, 5, 77, 96
1, 11542, Note_off_c, 5, 77, 0
1, 11544, Note_on_c, 5, 79, 96
1, 11554, Note_off_c, 5, 79, 0
1, 11556, Note_on_c, 5, 80, 96
1, 11562, Note_off_c, 3, 50, 0
1, 11562, Note_off_c, 4, 38, 0
1, 11562, Note_off_c, 6, 50, 0
1, 11566, Note_off_c, 5, 80, 0
1, 11568, Note_off_c, 2, 62, 0
1, 11568, Note_on_c, 2, 60, 80
1, 11568, Note_on_c, 3, 51, 80
1, 11568, Note_on_c, 4, 39, 80
1, 11568, Note_on_c, 5, 79, 96
1, 11568, Note_on_c, 6, 51, 96
1, 11589, Note_off_c, 5, 79, 0
1, 11592, Note_on_c, 5, 77, 96
1, 11604, Note_off_c, 1, 70, 0
1, 11610, Note_off_c, 2, 60, 0
1, 11610, Note_off_c, 3, 51, 0
1, 11610, Note_off_c, 4, 39, 0
1, 11610, Note_off_c, 6, 51, 0
1, 11613, Note_off_c, 5, 77, 0
1, 11616, Note_on_c, 1, 65, 80
1, 11616, Note_on_c, 2, 62, 80
1, 11616, Note_on_c, 3, 53, 80
1, 11616, Note_on_c, 4, 41, 80
1, 11616, Note_on_c, 5, 75, 96
1, 11616, Note_on_c, 6, 53, 96
1, 11646, Note_off_c, 0, 70, 0
1, 11664, Note_on_c, 0, 72, 80
1, 11664, Note_off_c, 2, 62, 0
1, 11664, Note_on_c, 2, 63, 80
1, 11664, Note_off_c, 5, 75, 0
1, 11664, Note_on_c, 5, 74, 96
1, 11700, Note_off_c, 1, 65, 0
1, 11700, Note_off_c, 3, 53, 0
1, 11700, Note_off_c, 4, 41, 0
1, 11700, Note_off_c, 6, 53, 0
1, 11706, Note_off_c, 0, 72, 0
1, 11706, Note_off_c, 2, 63, 0
1, 11712, Note_on_c, 0, 70, 80
1, 11712, Note_on_c, 1, 65, 80
1, 11712, Note_on_c, 2, 65, 80
1, 11712, Note_on_c, 3, 41, 80
1, 11712, Note_on_c, 4, 29, 80
1, 11712, Note_off_c, 5, 74, 0
1, 11712, Note_on_c, 5, 72, 96
1, 11712, Note_on_c, 6, 41, 96
1, 11715, Note_off_c, 0, 70, 0
1, 11715, Note_on_c, 0, 69, 80
1, 11715, Note_off_c, 5, 72, 0
1, 11715, Note_on_c, 5, 74, 96
1, 11718, Note_off_c, 0, 69, 0
1, 11718, Note_on_c, 0, 70, 80
1, 11718, Note_off_c, 5, 74, 0
1, 11718, Note_on_c, 5, 72, 96
1, 11721, Note_off_c, 0, 70, 0
1, 11721, Note_on_c, 0, 69, 80
1, 11721, Note_off_c, 5, 72, 0
1, 11721, Note_on_c, 5, 74, 96
1, 11724, Note_off_c, 0, 69, 0
1, 11724, Note_on_c, 0, 70, 80
1, 11724, Note_off_c, 5, 74, 0
1, 11724, Note_on_c, 5, 72, 96
1, 11727, Note_off_c, 0, 70, 0
1, 11727, Note_on_c, 0, 69, 80
1, 11727, Note_off_c, 5, 72, 0
1, 11727, Note_on_c, 5, 74, 96
1, 11730, Note_off_c, 0, 69, 0
1, 11730, Note_on_c, 0, 70, 80
1, 11730, Note_off_c, 5, 74, 0
1, 11730, Note_on_c, 5, 72, 96
1, 11733, Note_off_c, 0, 70, 0
1, 11733, Note_on_c, 0, 69, 80
1, 11736, Note_off_c, 0, 69, 0
1, 11736, Note_on_c, 0, 70, 80
1, 11736, Note_off_c, 5, 72, 0
1, 11736, Note_on_c, 5, 70, 96
1, 11739, Note_off_c, 0, 70, 0
1, 11739, Note_on_c, 0, 69, 80
1, 11742, Note_off_c, 0, 69, 0
1, 11742, Note_on_c, 0, 70, 80
1, 11745, Note_off_c, 0, 70, 0
1, 11745, Note_on_c, 0, 69, 80
1, 11748, Note_off_c, 0, 69, 0
1, 11748, Note_on_c, 0, 70, 80
1, 11751, Note_off_c, 0, 70, 0
1, 11751, Note_on_c, 0, 69, 80
1, 11754, Note_off_c, 0, 69, 0
1, 11754, Note_on_c, 0, 70, 80
1, 11757, Note_off_c, 0, 70, 0
1, 11757, Note_on_c, 0, 69, 80
1, 11760, Note_off_c, 0, 69, 0
1, 11760, Note_on_c, 0, 70, 80
1, 11760, Note_off_c, 2, 65, 0
1, 11760, Note_on_c, 2, 60, 80
1, 11760, Note_off_c, 5, 70, 0
1, 11760, Note_on_c, 5, 72, 96
1, 11763, Note_off_c, 0, 70, 0
1, 11763, Note_on_c, 0, 69, 80
1, 11766, Note_off_c, 0, 69, 0
1, 11766, Note_on_c, 0, 70, 80
1, 11769, Note_off_c, 0, 70, 0
1, 11769, Note_on_c, 0, 69, 80
1, 11772, Note_off_c, 0, 69, 0
1, 11772, Note_on_c, 0, 70, 80
1, 11775, Note_off_c, 0, 70, 0
1, 11775, Note_on_c, 0, 69, 80
1, 11778, Note_off_c, 0, 69, 0
1, 11778, Note_on_c, 0, 70, 80
1, 11781, Note_off_c, 0, 70, 0
1, 11781, Note_on_c, 0, 69, 80
1, 11784, Note_off_c, 0, 69, 0
1, 11784, Note_on_c, 0, 70, 80
1, 11787, Note_off_c, 0, 70, 0
1, 11787, Note_on_c, 0, 69, 80
1, 11796, Note_off_c, 1, 65, 0
1, 11796, Note_off_c, 3, 41, 0
1, 11796, Note_off_c, 4, 29, 0
1, 11796, Note_off_c, 6, 41, 0
1, 11802, Note_off_c, 2, 60, 0
1, 11802, Note_off_c, 5, 72, 0
1, 11805, Note_off_c, 0, 69, 0
1, 11808, Note_on_c, 0, 70, 80
1, 11808, Note_on_c, 1, 65, 80
1, 11808, Note_on_c, 2, 62, 80
1, 11808, Note_on_c, 3, 46, 80
1, 11808, Note_on_c, 4, 34, 80
1, 11808, Note_on_c, 5, 70, 96
1, 11808, Note_on_c, 6, 46, 96
1, 11829, Note_off_c, 5, 70, 0
1, 11832, Note_on_c, 5, 65, 96
1, 11853, Note_off_c, 5, 65, 0
1, 11856, Note_on_c, 5, 67, 96
1, 11877, Note_off_c, 5, 67, 0
1, 11880, Note_on_c, 5, 62, 96
1, 11892, Note_off_c, 0, 70, 0
1, 11892, Note_off_c, 1, 65, 0
1, 11892, Note_off_c, 2, 62, 0
1, 11892, Note_off_c, 3, 46, 0
1, 11892, Note_off_c, 4, 34, 0
1, 11892, Note_off_c, 6, 46, 0
1, 11901, Note_off_c, 5, 62, 0
1, 11904, Note_on_c, 5, 63, 96
1, 11925, Note_off_c, 5, 63, 0
1, 11928, Note_on_c, 5, 60, 96
1, 11949, Note_off_c, 5, 60, 0
1, 11952, Note_on_c, 5, 62, 96
1, 11973, Note_off_c, 5, 62, 0
1, 11976, Note_on_c, 5, 58, 96
1, 11997, Note_off_c, 5, 58, 0
1, 12000, Note_on_c, 5, 56, 96
1, 12021, Note_off_c, 5, 56, 0
1, 12024, Note_on_c, 5, 55, 96
1, 12045, Note_off_c, 5, 55, 0
1, 12048, Note_on_c, 5, 56, 96
1, 12069, Note_off_c, 5, 56, 0
1, 12072, Note_on_c, 5, 65, 96
1, 12093, Note_off_c, 5, 65, 0
1, 12096, Note_on_c, 0, 77, 80
1, 12096, Note_on_c, 1, 74, 80
1, 12096, Note_on_c, 2, 67, 80
1, 12096, Note_on_c, 3, 47, 80
1, 12096, Note_on_c, 4, 35, 80
1, 12096, Note_on_c, 5, 56, 96
1, 12096, Note_on_c, 5, 65, 96
1, 12096, Note_on_c, 6, 47, 96
1, 12144, Note_off_c, 3, 47, 0
1, 12144, Note_on_c, 3, 47, 80
1, 12144, Note_off_c, 4, 35, 0
1, 12144, Note_on_c, 4, 35, 80
1, 12144, Note_off_c, 5, 56, 0
1, 12144, Note_on_c, 5, 55, 96
1, 12144, Note_off_c, 6, 47, 0
1, 12144, Note_on_c, 6, 47, 96
1, 12168, Note_off_c, 0, 77, 0
1, 12168, Note_on_c, 0, 79, 80
1, 12180, Note_off_c, 0, 79, 0
1, 12180, Note_on_c, 0, 80, 80
1, 12180, Note_off_c, 1, 74, 0
1, 12180, Note_off_c, 2, 67, 0
1, 12186, Note_off_c, 3, 47, 0
1, 12186, Note_off_c, 4, 35, 0
1, 12186, Note_off_c, 6, 47, 0
1, 12190, Note_off_c, 0, 80, 0
1, 12192, Note_on_c, 0, 79, 80
1, 12192, Note_on_c, 1, 71, 80
1, 12192, Note_on_c, 2, 62, 80
1, 12192, Note_on_c, 3, 50, 80
1, 12192, Note_on_c, 4, 38, 80
1, 12192, Note_on_c, 6, 50, 96
1, 12240, Note_off_c, 0, 79, 0
1, 12240, Note_on_c, 0, 77, 80
1, 12240, Note_off_c, 3, 50, 0
1, 12240, Note_on_c, 3, 50, 80
1, 12240, Note_off_c, 4, 38, 0
1, 12240, Note_on_c, 4, 38, 80
1, 12240, Note_off_c, 6, 50, 0
1, 12240, Note_on_c, 6, 50, 96
1, 12276, Note_off_c, 1, 71, 0
1, 12276, Note_off_c, 2, 62, 0
1, 12282, Note_off_c, 0, 77, 0
1, 12282, Note_off_c, 3, 50, 0
1, 12282, Note_off_c, 4, 38, 0
1, 12282, Note_off_c, 6, 50, 0
1, 12288, Note_on_c, 0, 75, 80
1, 12288, Note_on_c, 1, 67, 80
1, 12288, Note_on_c, 2, 59, 80
1, 12288, Note_on_c, 3, 53, 80
1, 12288, Note_on_c, 4, 41, 80
1, 12288, Note_on_c, 6, 53, 96
1, 12336, Note_off_c, 0, 75, 0
1, 12336, Note_on_c, 0, 74, 80
1, 12336, Note_off_c, 3, 53, 0
1, 12336, Note_on_c, 3, 53, 80
1, 12336, Note_off_c, 4, 41, 0
1, 12336, Note_on_c, 4, 41, 80
1, 12336, Note_off_c, 6, 53, 0
1, 12336, Note_on_c, 6, 53, 96
1, 12372, Note_off_c, 1, 67, 0
1, 12372, Note_off_c, 2, 59, 0
1, 12378, Note_off_c, 0, 74, 0
1, 12378, Note_off_c, 3, 53, 0
1, 12378, Note_off_c, 4, 41, 0
1, 12378, Note_off_c, 6, 53, 0
1, 12384, Note_on_c, 0, 72, 80
1, 12384, Note_on_c, 1, 67, 80
1, 12384, Note_on_c, 2, 62, 80
1, 12384, Note_on_c, 3, 43, 80
1, 12384, Note_on_c, 4, 31, 80
1, 12384, Note_on_c, 6, 43, 96
1, 12396, Note_off_c, 5, 55, 0
1, 12396, Note_off_c, 5, 65, 0
1, 12408, Note_on_c, 5, 59, 96
1, 12429, Note_off_c, 5, 59, 0
1, 12432, Note_off_c, 0, 72, 0
1, 12432, Note_on_c, 0, 71, 80
1, 12432, Note_off_c, 3, 43, 0
1, 12432, Note_on_c, 3, 41, 80
1, 12432, Note_off_c, 4, 31, 0
1, 12432, Note_on_c, 4, 29, 80
1, 12432, Note_on_c, 5, 62, 96
1, 12432, Note_off_c, 6, 43, 0
1, 12432, Note_on_c, 6, 41, 96
1, 12453, Note_off_c, 5, 62, 0
1, 12456, Note_on_c, 5, 65, 96
1, 12468, Note_off_c, 1, 67, 0
1, 12468, Note_off_c, 2, 62, 0
1, 12474, Note_off_c, 0, 71, 0
1, 12474, Note_off_c, 3, 41, 0
1, 12474, Note_off_c, 4, 29, 0
1, 12474, Note_off_c, 6, 41, 0
1, 12477, Note_off_c, 5, 65, 0
1, 12480, Note_on_c, 3, 41, 80
1, 12480, Note_on_c, 4, 29, 80
1, 12480, Note_on_c, 5, 68, 96
1, 12480, Note_on_c, 6, 41, 96
1, 12501, Note_off_c, 5, 68, 0
1, 12504, Note_on_c, 5, 71, 96
1, 12525, Note_off_c, 5, 71, 0
1, 12528, Note_off_c, 3, 41, 0
1, 12528, Note_on_c, 3, 43, 80
1, 12528, Note_off_c, 4, 29, 0
1, 12528, Note_on_c, 4, 31, 80
1, 12528, Note_on_c, 5, 74, 96
1, 12528, Note_off_c, 6, 41, 0
1, 12528, Note_on_c, 6, 43, 96
1, 12549, Note_off_c, 5, 74, 0
1, 12552, Note_on_c, 5, 77, 96
1, 12570, Note_off_c, 3, 43, 0
1, 12570, Note_off_c, 4, 31, 0
1, 12570, Note_off_c, 6, 43, 0
1, 12573, Note_off_c, 5, 77, 0
1, 12576, Note_on_c, 5, 80, 96
1, 12600, Note_off_c, 5, 80, 0
1, 12600, Note_on_c, 5, 79, 96
1, 12624, Note_off_c, 5, 79, 0
1, 12624, Note_on_c, 5, 77, 96
1, 12636, Note_off_c, 5, 77, 0
1, 12636, Note_on_c, 5, 75, 96
1, 12648, Note_off_c, 5, 75, 0
1, 12648, Note_on_c, 5, 77, 96
1, 12660, Note_off_c, 5, 77, 0
1, 12660, Note_on_c, 5, 74, 96
1, 12670, Note_off_c, 5, 74, 0
1, 12672, Note_on_c, 0, 79, 80
1, 12672, Note_on_c, 1, 75, 80
1, 12672, Note_on_c, 2, 72, 80
1, 12672, Note_on_c, 3, 48, 80
1, 12672, Note_on_c, 4, 36, 80
1, 12672, Note_on_c, 5, 74, 96
1, 12672, Note_on_c, 6, 48, 96
1, 12720, Note_off_c, 3, 48, 0
1, 12720, Note_on_c, 3, 48, 80
1, 12720, Note_off_c, 4, 36, 0
1, 12720, Note_on_c, 4, 36, 80
1, 12720, Note_off_c, 5, 74, 0
1, 12720, Note_on_c, 5, 75, 96
1, 12720, Note_off_c, 6, 48, 0
1, 12720, Note_on_c, 6, 48, 96
1, 12723, Note_off_c, 5, 75, 0
1, 12723, Note_on_c, 5, 74, 96
1, 12726, Note_off_c, 5, 74, 0
1, 12726, Note_on_c, 5, 75, 96
1, 12756, Note_off_c, 0, 79, 0
1, 12756, Note_off_c, 1, 75, 0
1, 12756, Note_off_c, 2, 72, 0
1, 12762, Note_off_c, 3, 48, 0
1, 12762, Note_off_c, 4, 36, 0
1, 12762, Note_off_c, 6, 48, 0
1, 12768, Note_on_c, 0, 75, 80
1, 12768, Note_on_c, 1, 72, 80
1, 12768, Note_on_c, 2, 67, 80
1, 12768, Note_on_c, 3, 51, 80
1, 12768, Note_on_c, 4, 39, 80
1, 12768, Note_on_c, 6, 51, 96
1, 12816, Note_off_c, 3, 51, 0
1, 12816, Note_on_c, 3, 51, 80
1, 12816, Note_off_c, 4, 39, 0
1, 12816, Note_on_c, 4, 39, 80
1, 12816, Note_off_c, 6, 51, 0
1, 12816, Note_on_c, 6, 51, 96
1, 12852, Note_off_c, 0, 75, 0
1, 12852, Note_off_c, 1, 72, 0
1, 12852, Note_off_c, 2, 67, 0
1, 12858, Note_off_c, 3, 51, 0
1, 12858, Note_off_c, 4, 39, 0
1, 12858, Note_off_c, 6, 51, 0
1, 12864, Note_on_c, 0, 71, 80
1, 12864, Note_on_c, 1, 67, 80
1, 12864, Note_on_c, 2, 63, 80
1, 12864, Note_on_c, 3, 55, 80
1, 12864, Note_on_c, 4, 43, 80
1, 12864, Note_on_c, 6, 55, 96
1, 12912, Note_off_c, 1, 67, 0
1, 12912, Note_on_c, 1, 65, 80
1, 12912, Note_off_c, 2, 63, 0
1, 12912, Note_on_c, 2, 62, 80
1, 12912, Note_off_c, 3, 55, 0
1, 12912, Note_on_c, 3, 55, 80
1, 12912, Note_off_c, 4, 43, 0
1, 12912, Note_on_c, 4, 43, 80
1, 12912, Note_off_c, 6, 55, 0
1, 12912, Note_on_c, 6, 55, 96
1, 12948, Note_off_c, 0, 71, 0
1, 12954, Note_off_c, 1, 65, 0
1, 12954, Note_off_c, 2, 62, 0
1, 12954, Note_off_c, 3, 55, 0
1, 12954, Note_off_c, 4, 43, 0
1, 12954, Note_off_c, 6, 55, 0
1, 12960, Note_on_c, 0, 72, 80
1, 12960, Note_on_c, 1, 63, 80
1, 12960, Note_on_c, 2, 60, 80
1, 12960, Note_on_c, 3, 44, 80
1, 12960, Note_on_c, 4, 32, 80
1, 12960, Note_on_c, 6, 44, 96
1, 12972, Note_off_c, 5, 75, 0
1, 12984, Note_on_c, 5, 72, 96
1, 13008, Note_off_c, 0, 72, 0
1, 13008, Note_on_c, 0, 71, 80
1, 13008, Note_off_c, 3, 44, 0
1, 13008, Note_on_c, 3, 43, 80
1, 13008, Note_off_c, 4, 32, 0
1, 13008, Note_on_c, 4, 31, 80
1, 13008, Note_off_c, 6, 44, 0
1, 13008, Note_on_c, 6, 43, 96
1, 13026, Note_off_c, 5, 72, 0
1, 13032, Note_on_c, 5, 73, 96
1, 13042, Note_off_c, 5, 73, 0
1, 13044, Note_off_c, 1, 63, 0
1, 13044, Note_off_c, 2, 60, 0
1, 13044, Note_on_c, 5, 71, 96
1, 13050, Note_off_c, 0, 71, 0
1, 13050, Note_off_c, 3, 43, 0
1, 13050, Note_off_c, 4, 31, 0
1, 13050, Note_off_c, 6, 43, 0
1, 13054, Note_off_c, 5, 71, 0
1, 13056, Note_on_c, 0, 72, 80
1, 13056, Note_on_c, 3, 43, 80
1, 13056, Note_on_c, 4, 31, 80
1, 13056, Note_on_c, 5, 72, 96
1, 13056, Note_on_c, 6, 43, 96
1, 13068, Note_off_c, 5, 72, 0
1, 13068, Note_on_c, 5, 70, 96
1, 13080, Note_off_c, 5, 70, 0
1, 13080, Note_on_c, 5, 68, 96
1, 13092, Note_off_c, 5, 68, 0
1, 13092, Note_on_c, 5, 67, 96
1, 13104, Note_off_c, 3, 43, 0
1, 13104, Note_on_c, 3, 44, 80
1, 13104, Note_off_c, 4, 31, 0
1, 13104, Note_on_c, 4, 32, 80
1, 13104, Note_off_c, 5, 67, 0
1, 13104, Note_on_c, 5, 68, 96
1, 13104, Note_off_c, 6, 43, 0
1, 13104, Note_on_c, 6, 44, 96
1, 13125, Note_off_c, 5, 68, 0
1, 13128, Note_on_c, 5, 64, 96
1, 13140, Note_off_c, 0, 72, 0
1, 13146, Note_off_c, 3, 44, 0
1, 13146, Note_off_c, 4, 32, 0
1, 13146, Note_off_c, 6, 44, 0
1, 13149, Note_off_c, 5, 64, 0
1, 13152, Note_on_c, 5, 65, 96
1, 13173, Note_off_c, 5, 65, 0
1, 13176, Note_on_c, 5, 73, 96
1, 13200, Note_off_c, 5, 73, 0
1, 13200, Note_on_c, 5, 72, 96
1, 13224, Note_off_c, 5, 72, 0
1, 13224, Note_on_c, 5, 71, 96
1, 13245, Note_off_c, 5, 71, 0
1, 13248, Note_on_c, 0, 77, 80
1, 13248, Note_on_c, 1, 71, 80
1, 13248, Note_on_c, 2, 65, 80
1, 13248, Note_on_c, 3, 50, 80
1, 13248, Note_on_c, 4, 38, 80
1, 13248, Note_on_c, 5, 77, 96
1, 13248, Note_on_c, 5, 71, 96
1, 13248, Note_on_c, 6, 50, 96
1, 13296, Note_off_c, 3, 50, 0
1, 13296, Note_on_c, 3, 50, 80
1, 13296, Note_off_c, 4, 38, 0
1, 13296, Note_on_c, 4, 38, 80
1, 13296, Note_off_c, 6, 50, 0
1, 13296, Note_on_c, 6, 50, 96
1, 13332, Note_off_c, 0, 77, 0
1, 13332, Note_off_c, 1, 71, 0
1, 13332, Note_off_c, 2, 65, 0
1, 13338, Note_off_c, 3, 50, 0
1, 13338, Note_off_c, 4, 38, 0
1, 13338, Note_off_c, 6, 50, 0
1, 13344, Note_on_c, 0, 74, 80
1, 13344, Note_on_c, 1, 71, 80
1, 13344, Note_on_c, 2, 68, 80
1, 13344, Note_on_c, 3, 53, 80
1, 13344, Note_on_c, 4, 41, 80
1, 13344, Note_on_c, 6, 53, 96
1, 13392, Note_off_c, 1, 71, 0
1, 13392, Note_on_c, 1, 74, 80
1, 13392, Note_off_c, 3, 53, 0
1, 13392, Note_on_c, 3, 53, 80
1, 13392, Note_off_c, 4, 41, 0
1, 13392, Note_on_c, 4, 41, 80
1, 13392, Note_off_c, 6, 53, 0
1, 13392, Note_on_c, 6, 53, 96
1, 13428, Note_off_c, 0, 74, 0
1, 13428, Note_off_c, 2, 68, 0
1, 13434, Note_off_c, 1, 74, 0
1, 13434, Note_off_c, 3, 53, 0
1, 13434, Note_off_c, 4, 41, 0
1, 13434, Note_off_c, 6, 53, 0
1, 13440, Note_on_c, 0, 71, 80
1, 13440, Note_on_c, 1, 65, 80
1, 13440, Note_on_c, 2, 62, 80
1, 13440, Note_on_c, 3, 56, 80
1, 13440, Note_on_c, 4, 44, 80
1, 13440, Note_on_c, 6, 56, 96
1, 13488, Note_off_c, 1, 65, 0
1, 13488, Note_on_c, 1, 68, 80
1, 13488, Note_off_c, 3, 56, 0
1, 13488, Note_on_c, 3, 56, 80
1, 13488, Note_off_c, 4, 44, 0
1, 13488, Note_on_c, 4, 44, 80
1, 13488, Note_off_c, 6, 56, 0
1, 13488, Note_on_c, 6, 56, 96
1, 13524, Note_off_c, 0, 71, 0
1, 13524, Note_off_c, 2, 62, 0
1, 13530, Note_off_c, 1, 68, 0
1, 13530, Note_off_c, 3, 56, 0
1, 13530, Note_off_c, 4, 44, 0
1, 13530, Note_off_c, 6, 56, 0
1, 13536, Note_on_c, 0, 67, 80
1, 13536, Note_on_c, 1, 62, 80
1, 13536, Note_on_c, 2, 67, 80
1, 13536, Note_on_c, 3, 47, 80
1, 13536, Note_on_c, 4, 35, 80
1, 13536, Note_on_c, 6, 47, 96
1, 13548, Note_off_c, 5, 77, 0
1, 13548, Note_off_c, 5, 71, 0
1, 13560, Note_on_c, 5, 76, 96
1, 13584, Note_off_c, 0, 67, 0
1, 13584, Note_on_c, 0, 65, 80
1, 13584, Note_off_c, 3, 47, 0
1, 13584, Note_on_c, 3, 47, 80
1, 13584, Note_off_c, 4, 35, 0
1, 13584, Note_on_c, 4, 35, 80
1, 13584, Note_off_c, 5, 76, 0
1, 13584, Note_on_c, 5, 77, 96
1, 13584, Note_off_c, 6, 47, 0
1, 13584, Note_on_c, 6, 47, 96
1, 13608, Note_off_c, 5, 77, 0
1, 13608, Note_on_c, 5, 80, 96
1, 13620, Note_off_c, 1, 62, 0
1, 13620, Note_off_c, 2, 67, 0
1, 13626, Note_off_c, 0, 65, 0
1, 13626, Note_off_c, 3, 47, 0
1, 13626, Note_off_c, 4, 35, 0
1, 13626, Note_off_c, 6, 47, 0
1, 13629, Note_off_c, 5, 80, 0
1, 13632, Note_on_c, 0, 67, 80
1, 13632, Note_on_c, 3, 50, 80
1, 13632, Note_on_c, 4, 38, 80
1, 13632, Note_on_c, 5, 77, 96
1, 13632, Note_on_c, 6, 50, 96
1, 13653, Note_off_c, 5, 77, 0
1, 13656, Note_on_c, 5, 76, 96
1, 13677, Note_off_c, 5, 76, 0
1, 13680, Note_off_c, 3, 50, 0
1, 13680, Note_on_c, 3, 50, 80
1, 13680, Note_off_c, 4, 38, 0
1, 13680, Note_on_c, 4, 38, 80
1, 13680, Note_on_c, 5, 77, 96
1, 13680, Note_off_c, 6, 50, 0
1, 13680, Note_on_c, 6, 50, 96
1, 13683, Note_off_c, 5, 77, 0
1, 13683, Note_on_c, 5, 76, 96
1, 13686, Note_off_c, 5, 76, 0
1, 13686, Note_on_c, 5, 77, 96
1, 13702, Note_off_c, 5, 77, 0
1, 13704, Note_on_c, 5, 80, 96
1, 13716, Note_off_c, 0, 67, 0
1, 13716, Note_off_c, 5, 80, 0
1, 13716, Note_on_c, 5, 79, 96
1, 13722, Note_off_c, 3, 50, 0
1, 13722, Note_off_c, 4, 38, 0
1, 13722, Note_off_c, 6, 50, 0
1, 13728, Note_on_c, 3, 53, 80
1, 13728, Note_on_c, 4, 41, 80
1, 13728, Note_off_c, 5, 79, 0
1, 13728, Note_on_c, 5, 77, 96
1, 13728, Note_on_c, 6, 53, 96
1, 13740, Note_off_c, 5, 77, 0
1, 13740, Note_on_c, 5, 76, 96
1, 13752, Note_off_c, 5, 76, 0
1, 13752, Note_on_c, 5, 77, 96
1, 13776, Note_off_c, 3, 53, 0
1, 13776, Note_on_c, 3, 53, 80
1, 13776, Note_off_c, 4, 41, 0
1, 13776, Note_on_c, 4, 41, 80
1, 13776, Note_off_c, 5, 77, 0
1, 13776, Note_on_c, 5, 85, 96
1, 13776, Note_off_c, 6, 53, 0
1, 13776, Note_on_c, 6, 53, 96
1, 13807, Note_off_c, 5, 85, 0
1, 13812, Note_on_c, 5, 84, 96
1, 13818, Note_off_c, 3, 53, 0
1, 13818, Note_off_c, 4, 41, 0
1, 13818, Note_off_c, 6, 53, 0
1, 13822, Note_off_c, 5, 84, 0
1, 13824, Note_on_c, 0, 65, 80
1, 13824, Note_on_c, 1, 68, 80
1, 13824, Note_on_c, 2, 62, 80
1, 13824, Note_on_c, 3, 43, 80
1, 13824, Note_on_c, 4, 31, 80
1, 13824, Note_on_c, 5, 83, 96
1, 13824, Note_on_c, 6, 43, 96
1, 13836, Note_off_c, 5, 83, 0
1, 13836, Note_on_c, 5, 84, 96
1, 13848, Note_off_c, 5, 84, 0
1, 13848, Note_on_c, 5, 83, 96
1, 13860, Note_off_c, 5, 83, 0
1, 13860, Note_on_c, 5, 84, 96
1, 13872, Note_off_c, 3, 43, 0
1, 13872, Note_on_c, 3, 43, 80
1, 13872, Note_off_c, 4, 31, 0
1, 13872, Note_on_c, 4, 31, 80
1, 13872, Note_off_c, 5, 84, 0
1, 13872, Note_on_c, 5, 85, 96
1, 13872, Note_off_c, 6, 43, 0
1, 13872, Note_on_c, 6, 43, 96
1, 13875, Note_off_c, 5, 85, 0
1, 13875, Note_on_c, 5, 84, 96
1, 13878, Note_off_c, 5, 84, 0
1, 13878, Note_on_c, 5, 85, 96
1, 13881, Note_off_c, 5, 85, 0
1, 13881, Note_on_c, 5, 84, 96
1, 13884, Note_off_c, 5, 84, 0
1, 13884, Note_on_c, 5, 83, 96
1, 13894, Note_off_c, 5, 83, 0
1, 13896, Note_on_c, 5, 84, 96
1, 13908, Note_off_c, 0, 65, 0
1, 13908, Note_off_c, 1, 68, 0
1, 13908, Note_off_c, 2, 62, 0
1, 13914, Note_off_c, 3, 43, 0
1, 13914, Note_off_c, 4, 31, 0
1, 13914, Note_off_c, 6, 43, 0
1, 13917, Note_off_c, 5, 84, 0
1, 13920, Note_on_c, 0, 62, 80
1, 13920, Note_on_c, 1, 65, 80
1, 13920, Note_on_c, 2, 59, 80
1, 13920, Note_on_c, 3, 47, 80
1, 13920, Note_on_c, 4, 35, 80
1, 13920, Note_on_c, 5, 86, 96
1, 13920, Note_on_c, 6, 47, 96
1, 13968, Note_off_c, 3, 47, 0
1, 13968, Note_on_c, 3, 47, 80
1, 13968, Note_off_c, 4, 35, 0
1, 13968, Note_on_c, 4, 35, 80
1, 13968, Note_off_c, 6, 47, 0
1, 13968, Note_on_c, 6, 47, 96
1, 14004, Note_off_c, 0, 62, 0
1, 14004, Note_off_c, 1, 65, 0
1, 14004, Note_off_c, 2, 59, 0
1, 14010, Note_off_c, 3, 47, 0
1, 14010, Note_off_c, 4, 35, 0
1, 14010, Note_off_c, 6, 47, 0
1, 14016, Note_on_c, 0, 59, 80
1, 14016, Note_on_c, 1, 62, 80
1, 14016, Note_on_c, 2, 55, 80
1, 14016, Note_on_c, 3, 50, 80
1, 14016, Note_on_c, 4, 38, 80
1, 14016, Note_on_c, 6, 50, 96
1, 14064, Note_off_c, 3, 50, 0
1, 14064, Note_on_c, 3, 50, 80
1, 14064, Note_off_c, 4, 38, 0
1, 14064, Note_on_c, 4, 38, 80
1, 14064, Note_off_c, 6, 50, 0
1, 14064, Note_on_c, 6, 50, 96
1, 14100, Note_off_c, 0, 59, 0
1, 14100, Note_off_c, 1, 62, 0
1, 14100, Note_off_c, 2, 55, 0
1, 14106, Note_off_c, 3, 50, 0
1, 14106, Note_off_c, 4, 38, 0
1, 14106, Note_off_c, 6, 50, 0
1, 14112, Note_on_c, 0, 55, 80
1, 14112, Note_on_c, 1, 67, 80
1, 14112, Note_on_c, 2, 51, 80
1, 14112, Note_on_c, 3, 51, 80
1, 14112, Note_on_c, 4, 39, 80
1, 14112, Note_on_c, 6, 39, 96
1, 14124, Note_off_c, 5, 86, 0
1, 14136, Note_on_c, 5, 84, 96
1, 14157, Note_off_c, 5, 84, 0
1, 14160, Note_off_c, 3, 51, 0
1, 14160, Note_on_c, 3, 50, 80
1, 14160, Note_off_c, 4, 39, 0
1, 14160, Note_on_c, 4, 38, 80
1, 14160, Note_on_c, 5, 83, 96
1, 14160, Note_off_c, 6, 39, 0
1, 14160, Note_on_c, 6, 38, 96
1, 14181, Note_off_c, 5, 83, 0
1, 14184, Note_on_c, 5, 84, 96
1, 14196, Note_off_c, 0, 55, 0
1, 14196, Note_off_c, 1, 67, 0
1, 14196, Note_off_c, 2, 51, 0
1, 14205, Note_off_c, 5, 84, 0
1, 14208, Note_on_c, 0, 60, 80
1, 14208, Note_off_c, 3, 50, 0
1, 14208, Note_on_c, 3, 51, 80
1, 14208, Note_off_c, 4, 38, 0
1, 14208, Note_on_c, 4, 39, 80
1, 14208, Note_on_c, 5, 84, 96
1, 14208, Note_off_c, 6, 38, 0
1, 14208, Note_on_c, 6, 39, 96
1, 14229, Note_off_c, 5, 84, 0
1, 14232, Note_on_c, 5, 82, 96
1, 14250, Note_off_c, 3, 51, 0
1, 14250, Note_off_c, 4, 39, 0
1, 14250, Note_off_c, 6, 39, 0
1, 14253, Note_off_c, 5, 82, 0
1, 14256, Note_on_c, 3, 63, 80
1, 14256, Note_on_c, 4, 51, 80
1, 14256, Note_on_c, 5, 80, 96
1, 14256, Note_on_c, 6, 51, 96
1, 14268, Note_off_c, 6, 51, 0
1, 14277, Note_off_c, 5, 80, 0
1, 14280, Note_on_c, 5, 79, 96
1, 14290, Note_off_c, 5, 79, 0
1, 14292, Note_off_c, 0, 60, 0
1, 14292, Note_on_c, 5, 82, 96
1, 14298, Note_off_c, 3, 63, 0
1, 14298, Note_off_c, 4, 51, 0
1, 14302, Note_off_c, 5, 82, 0
1, 14304, Note_on_c, 0, 62, 80
1, 14304, Note_on_c, 3, 59, 80
1, 14304, Note_on_c, 4, 47, 80
1, 14304, Note_on_c, 5, 82, 96
1, 14304, Note_on_c, 6, 47, 96
1, 14346, Note_off_c, 3, 59, 0
1, 14346, Note_off_c, 4, 47, 0
1, 14352, Note_off_c, 0, 62, 0
1, 14352, Note_on_c, 0, 65, 80
1, 14352, Note_on_c, 3, 60, 80
1, 14352, Note_on_c, 4, 48, 80
1, 14352, Note_off_c, 5, 82, 0
1, 14352, Note_on_c, 5, 80, 96
1, 14352, Note_off_c, 6, 47, 0
1, 14352, Note_on_c, 6, 48, 96
1, 14376, Note_off_c, 0, 65, 0
1, 14376, Note_on_c, 0, 64, 80
1, 14394, Note_off_c, 3, 60, 0
1, 14394, Note_off_c, 4, 48, 0
1, 14394, Note_off_c, 6, 48, 0
1, 14397, Note_off_c, 0, 64, 0
1, 14400, Note_on_c, 0, 65, 80
1, 14400, Note_on_c, 1, 65, 80
1, 14400, Note_on_c, 2, 60, 80
1, 14400, Note_on_c, 3, 53, 80
1, 14400, Note_on_c, 4, 41, 80
1, 14400, Note_on_c, 6, 41, 96
1, 14436, Note_off_c, 5, 80, 0
1, 14448, Note_off_c, 0, 65, 0
1, 14448, Note_on_c, 0, 68, 80
1, 14448, Note_off_c, 3, 53, 0
1, 14448, Note_on_c, 3, 51, 80
1, 14448, Note_off_c, 4, 41, 0
1, 14448, Note_on_c, 4, 39, 80
1, 14448, Note_on_c, 5, 72, 96
1, 14448, Note_off_c, 6, 41, 0
1, 14448, Note_on_c, 6, 39, 96
1, 14472, Note_off_c, 0, 68, 0
1, 14472, Note_on_c, 0, 67, 80
1, 14484, Note_off_c, 1, 65, 0
1, 14484, Note_off_c, 2, 60, 0
1, 14490, Note_off_c, 5, 72, 0
1, 14493, Note_off_c, 0, 67, 0
1, 14496, Note_on_c, 0, 68, 80
1, 14496, Note_off_c, 3, 51, 0
1, 14496, Note_on_c, 3, 53, 80
1, 14496, Note_off_c, 4, 39, 0
1, 14496, Note_on_c, 4, 41, 80
1, 14496, Note_on_c, 5, 75, 96
1, 14496, Note_off_c, 6, 39, 0
1, 14496, Note_on_c, 6, 41, 96
1, 14508, Note_off_c, 5, 75, 0
1, 14508, Note_on_c, 5, 73, 96
1, 14518, Note_off_c, 5, 73, 0
1, 14520, Note_on_c, 5, 72, 96
1, 14538, Note_off_c, 3, 53, 0
1, 14538, Note_off_c, 4, 41, 0
1, 14538, Note_off_c, 6, 41, 0
1, 14541, Note_off_c, 5, 72, 0
1, 14544, Note_on_c, 3, 63, 80
1, 14544, Note_on_c, 4, 51, 80
1, 14544, Note_on_c, 5, 73, 96
1, 14544, Note_on_c, 6, 51, 96
1, 14556, Note_off_c, 6, 51, 0
1, 14565, Note_off_c, 5, 73, 0
1, 14568, Note_on_c, 5, 80, 96
1, 14580, Note_off_c, 0, 68, 0
1, 14586, Note_off_c, 3, 63, 0
1, 14586, Note_off_c, 4, 51, 0
1, 14592, Note_on_c, 0, 74, 80
1, 14592, Note_on_c, 3, 59, 80
1, 14592, Note_on_c, 4, 47, 80
1, 14592, Note_off_c, 5, 80, 0
1, 14592, Note_on_c, 5, 79, 96
1, 14592, Note_on_c, 6, 47, 96
1, 14616, Note_off_c, 5, 79, 0
1, 14616, Note_on_c, 5, 77, 96
1, 14634, Note_off_c, 3, 59, 0
1, 14634, Note_off_c, 4, 47, 0
1, 14640, Note_off_c, 0, 74, 0
1, 14640, Note_on_c, 0, 72, 80
1, 14640, Note_on_c, 3, 60, 80
1, 14640, Note_on_c, 4, 48, 80
1, 14640, Note_off_c, 5, 77, 0
1, 14640, Note_on_c, 5, 76, 96
1, 14640, Note_off_c, 6, 47, 0
1, 14640, Note_on_c, 6, 48, 96
1, 14664, Note_off_c, 5, 76, 0
1, 14664, Note_on_c, 5, 77, 96
1, 14682, Note_off_c, 0, 72, 0
1, 14682, Note_off_c, 3, 60, 0
1, 14682, Note_off_c, 4, 48, 0
1, 14682, Note_off_c, 6, 48, 0
1, 14685, Note_off_c, 5, 77, 0
1, 14688, Note_on_c, 0, 71, 80
1, 14688, Note_on_c, 1, 74, 80
1, 14688, Note_on_c, 2, 65, 80
1, 14688, Note_on_c, 3, 55, 80
1, 14688, Note_on_c, 4, 43, 80
1, 14688, Note_on_c, 5, 67, 96
1, 14688, Note_on_c, 6, 43, 96
1, 14712, Note_off_c, 5, 67, 0
1, 14712, Note_on_c, 5, 71, 96
1, 14724, Note_off_c, 5, 71, 0
1, 14724, Note_on_c, 5, 74, 96
1, 14736, Note_off_c, 3, 55, 0
1, 14736, Note_on_c, 3, 53, 80
1, 14736, Note_off_c, 4, 43, 0
1, 14736, Note_on_c, 4, 41, 80
1, 14736, Note_off_c, 5, 74, 0
1, 14736, Note_on_c, 5, 77, 96
1, 14736, Note_off_c, 6, 43, 0
1, 14736, Note_on_c, 6, 41, 96
1, 14772, Note_off_c, 0, 71, 0
1, 14778, Note_off_c, 5, 77, 0
1, 14784, Note_on_c, 0, 74, 80
1, 14784, Note_off_c, 3, 53, 0
1, 14784, Note_on_c, 3, 55, 80
1, 14784, Note_off_c, 4, 41, 0
1, 14784, Note_on_c, 4, 43, 80
1, 14784, Note_off_c, 6, 41, 0
1, 14784, Note_on_c, 6, 43, 96
1, 14826, Note_off_c, 3, 55, 0
1, 14826, Note_off_c, 4, 43, 0
1, 14826, Note_off_c, 6, 43, 0
1, 14832, Note_on_c, 3, 63, 80
1, 14832, Note_on_c, 4, 51, 80
1, 14832, Note_on_c, 5, 67, 96
1, 14832, Note_on_c, 6, 51, 96
1, 14844, Note_off_c, 6, 51, 0
1, 14868, Note_off_c, 0, 74, 0
1, 14874, Note_off_c, 3, 63, 0
1, 14874, Note_off_c, 4, 51, 0
1, 14874, Note_off_c, 5, 67, 0
1, 14880, Note_on_c, 0, 77, 80
1, 14880, Note_on_c, 3, 59, 80
1, 14880, Note_on_c, 4, 47, 80
1, 14880, Note_on_c, 5, 68, 96
1, 14880, Note_on_c, 6, 47, 96
1, 14922, Note_off_c, 3, 59, 0
1, 14922, Note_off_c, 4, 47, 0
1, 14922, Note_off_c, 5, 68, 0
1, 14928, Note_on_c, 3, 60, 80
1, 14928, Note_on_c, 4, 48, 80
1, 14928, Note_on_c, 5, 67, 96
1, 14928, Note_off_c, 6, 47, 0
1, 14928, Note_on_c, 6, 48, 96
1, 14964, Note_off_c, 0, 77, 0
1, 14964, Note_off_c, 1, 74, 0
1, 14964, Note_off_c, 2, 65, 0
1, 14970, Note_off_c, 3, 60, 0
1, 14970, Note_off_c, 4, 48, 0
1, 14970, Note_off_c, 5, 67, 0
1, 14970, Note_off_c, 6, 48, 0
1, 14976, Note_on_c, 0, 75, 80
1, 14976, Note_on_c, 1, 72, 80
1, 14976, Note_on_c, 2, 60, 80
1, 14976, Note_on_c, 3, 56, 80
1, 14976, Note_on_c, 4, 44, 80
1, 14976, Note_on_c, 5, 67, 96
1, 14976, Note_on_c, 6, 44, 96
1, 14997, Note_off_c, 5, 67, 0
1, 15000, Note_on_c, 5, 75, 96
1, 15010, Note_off_c, 5, 75, 0
1, 15012, Note_on_c, 5, 74, 96
1, 15022, Note_off_c, 5, 74, 0
1, 15024, Note_on_c, 5, 72, 96
1, 15045, Note_off_c, 5, 72, 0
1, 15048, Note_on_c, 5, 68, 96
1, 15060, Note_off_c, 0, 75, 0
1, 15060, Note_off_c, 1, 72, 0
1, 15060, Note_off_c, 2, 60, 0
1, 15060, Note_off_c, 3, 56, 0
1, 15060, Note_off_c, 4, 44, 0
1, 15060, Note_off_c, 6, 44, 0
1, 15069, Note_off_c, 5, 68, 0
1, 15072, Note_on_c, 5, 67, 96
1, 15096, Note_off_c, 5, 67, 0
1, 15096, Note_on_c, 5, 65, 96
1, 15120, Note_on_c, 3, 60, 80
1, 15120, Note_on_c, 4, 48, 80
1, 15120, Note_off_c, 5, 65, 0
1, 15120, Note_on_c, 5, 64, 96
1, 15120, Note_on_c, 6, 48, 96
1, 15141, Note_off_c, 5, 64, 0
1, 15144, Note_on_c, 5, 65, 96
1, 15162, Note_off_c, 3, 60, 0
1, 15162, Note_off_c, 4, 48, 0
1, 15165, Note_off_c, 5, 65, 0
1, 15168, Note_on_c, 3, 61, 80
1, 15168, Note_on_c, 4, 49, 80
1, 15168, Note_on_c, 5, 65, 96
1, 15168, Note_off_c, 6, 48, 0
1, 15168, Note_on_c, 6, 49, 96
1, 15189, Note_off_c, 5, 65, 0
1, 15192, Note_on_c, 5, 61, 96
1, 15210, Note_off_c, 3, 61, 0
1, 15210, Note_off_c, 4, 49, 0
1, 15213, Note_off_c, 5, 61, 0
1, 15216, Note_on_c, 3, 58, 80
1, 15216, Note_on_c, 4, 46, 80
1, 15216, Note_on_c, 5, 57, 96
1, 15216, Note_off_c, 6, 49, 0
1, 15216, Note_on_c, 6, 46, 96
1, 15237, Note_off_c, 5, 57, 0
1, 15240, Note_on_c, 5, 58, 96
1, 15258, Note_off_c, 3, 58, 0
1, 15258, Note_off_c, 4, 46, 0
1, 15258, Note_off_c, 6, 46, 0
1, 15261, Note_off_c, 5, 58, 0
1, 15264, Note_on_c, 0, 73, 80
1, 15264, Note_on_c, 1, 70, 80
1, 15264, Note_on_c, 2, 67, 80
1, 15264, Note_on_c, 3, 52, 80
1, 15264, Note_on_c, 4, 40, 80
1, 15264, Note_on_c, 5, 58, 96
1, 15264, Note_on_c, 6, 40, 96
1, 15267, Note_off_c, 5, 58, 0
1, 15267, Note_on_c, 5, 57, 96
1, 15270, Note_off_c, 5, 57, 0
1, 15270, Note_on_c, 5, 58, 96
1, 15312, Note_off_c, 3, 52, 0
1, 15312, Note_on_c, 3, 52, 80
1, 15312, Note_off_c, 4, 40, 0
1, 15312, Note_on_c, 4, 40, 80
1, 15312, Note_off_c, 6, 40, 0
1, 15312, Note_on_c, 6, 40, 96
1, 15348, Note_off_c, 0, 73, 0
1, 15348, Note_off_c, 1, 70, 0
1, 15348, Note_off_c, 2, 67, 0
1, 15354, Note_off_c, 3, 52, 0
1, 15354, Note_off_c, 4, 40, 0
1, 15354, Note_off_c, 6, 40, 0
1, 15360, Note_on_c, 0, 70, 80
1, 15360, Note_on_c, 1, 67, 80
1, 15360, Note_on_c, 2, 64, 80
1, 15360, Note_on_c, 3, 55, 80
1, 15360, Note_on_c, 4, 43, 80
1, 15360, Note_on_c, 6, 43, 96
1, 15408, Note_off_c, 3, 55, 0
1, 15408, Note_on_c, 3, 55, 80
1, 15408, Note_off_c, 4, 43, 0
1, 15408, Note_on_c, 4, 43, 80
1, 15408, Note_off_c, 6, 43, 0
1, 15408, Note_on_c, 6, 43, 96
1, 15444, Note_off_c, 0, 70, 0
1, 15444, Note_off_c, 1, 67, 0
1, 15444, Note_off_c, 2, 64, 0
1, 15450, Note_off_c, 3, 55, 0
1, 15450, Note_off_c, 4, 43, 0
1, 15450, Note_off_c, 6, 43, 0
1, 15456, Note_on_c, 0, 67, 80
1, 15456, Note_on_c, 1, 64, 80
1, 15456, Note_on_c, 2, 61, 80
1, 15456, Note_on_c, 3, 58, 80
1, 15456, Note_on_c, 4, 46, 80
1, 15456, Note_on_c, 6, 46, 96
1, 15504, Note_off_c, 3, 58, 0
1, 15504, Note_on_c, 3, 58, 80
1, 15504, Note_off_c, 4, 46, 0
1, 15504, Note_on_c, 4, 46, 80
1, 15504, Note_off_c, 6, 46, 0
1, 15504, Note_on_c, 6, 46, 96
1, 15540, Note_off_c, 0, 67, 0
1, 15540, Note_off_c, 1, 64, 0
1, 15540, Note_off_c, 2, 61, 0
1, 15546, Note_off_c, 3, 58, 0
1, 15546, Note_off_c, 4, 46, 0
1, 15546, Note_off_c, 6, 46, 0
1, 15552, Note_on_c, 0, 64, 80
1, 15552, Note_on_c, 1, 70, 80
1, 15552, Note_on_c, 2, 67, 80
1, 15552, Note_on_c, 3, 49, 80
1, 15552, Note_on_c, 4, 37, 80
1, 15552, Note_on_c, 6, 37, 96
1, 15588, Note_off_c, 5, 58, 0
1, 15600, Note_on_c, 5, 56, 96
1, 15603, Note_off_c, 5, 56, 0
1, 15603, Note_on_c, 5, 55, 96
1, 15606, Note_off_c, 5, 55, 0
1, 15606, Note_on_c, 5, 53, 96
1, 15609, Note_off_c, 5, 53, 0
1, 15609, Note_on_c, 5, 55, 96
1, 15636, Note_off_c, 0, 64, 0
1, 15636, Note_off_c, 1, 70, 0
1, 15636, Note_off_c, 2, 67, 0
1, 15636, Note_off_c, 3, 49, 0
1, 15636, Note_off_c, 4, 37, 0
1, 15636, Note_off_c, 6, 37, 0
1, 15643, Note_off_c, 5, 55, 0
1, 15648, Note_on_c, 5, 56, 96
1, 15669, Note_off_c, 5, 56, 0
1, 15672, Note_on_c, 5, 62, 96
1, 15696, Note_on_c, 0, 76, 80
1, 15696, Note_on_c, 1, 67, 80
1, 15696, Note_on_c, 2, 70, 80
1, 15696, Note_on_c, 3, 55, 80
1, 15696, Note_on_c, 4, 43, 80
1, 15696, Note_on_c, 6, 55, 96
1, 15714, Note_off_c, 5, 62, 0
1, 15720, Note_on_c, 5, 60, 96
1, 15738, Note_off_c, 1, 67, 0
1, 15738, Note_off_c, 2, 70, 0
1, 15738, Note_off_c, 3, 55, 0
1, 15738, Note_off_c, 4, 43, 0
1, 15741, Note_off_c, 5, 60, 0
1, 15744, Note_off_c, 0, 76, 0
1, 15744, Note_on_c, 0, 77, 80
1, 15744, Note_on_c, 1, 65, 80
1, 15744, Note_on_c, 2, 68, 80
1, 15744, Note_on_c, 3, 56, 80
1, 15744, Note_on_c, 4, 44, 80
1, 15744, Note_on_c, 5, 60, 96
1, 15744, Note_off_c, 6, 55, 0
1, 15744, Note_on_c, 6, 56, 96
1, 15765, Note_off_c, 5, 60, 0
1, 15768, Note_on_c, 5, 65, 96
1, 15786, Note_off_c, 1, 65, 0
1, 15786, Note_off_c, 2, 68, 0
1, 15786, Note_off_c, 3, 56, 0
1, 15786, Note_off_c, 4, 44, 0
1, 15792, Note_off_c, 0, 77, 0
1, 15792, Note_on_c, 0, 75, 80
1, 15792, Note_on_c, 1, 65, 80
1, 15792, Note_on_c, 2, 68, 80
1, 15792, Note_on_c, 3, 53, 80
1, 15792, Note_on_c, 4, 41, 80
1, 15792, Note_off_c, 6, 56, 0
1, 15792, Note_on_c, 6, 53, 96
1, 15834, Note_off_c, 0, 75, 0
1, 15834, Note_off_c, 1, 65, 0
1, 15834, Note_off_c, 2, 68, 0
1, 15834, Note_off_c, 3, 53, 0
1, 15834, Note_off_c, 4, 41, 0
1, 15834, Note_off_c, 6, 53, 0
1, 15840, Note_on_c, 0, 74, 80
1, 15840, Note_on_c, 1, 65, 80
1, 15840, Note_on_c, 2, 62, 80
1, 15840, Note_on_c, 3, 59, 80
1, 15840, Note_on_c, 4, 47, 80
1, 15840, Note_on_c, 6, 59, 96
1, 15852, Note_off_c, 5, 65, 0
1, 15864, Note_on_c, 5, 68, 96
1, 15882, Note_off_c, 3, 59, 0
1, 15882, Note_off_c, 4, 47, 0
1, 15882, Note_off_c, 6, 59, 0
1, 15885, Note_off_c, 5, 68, 0
1, 15888, Note_off_c, 0, 74, 0
1, 15888, Note_on_c, 0, 72, 80
1, 15888, Note_off_c, 1, 65, 0
1, 15888, Note_on_c, 1, 63, 80
1, 15888, Note_off_c, 2, 62, 0
1, 15888, Note_on_c, 2, 63, 80
1, 15888, Note_on_c, 3, 60, 80
1, 15888, Note_on_c, 4, 48, 80
1, 15888, Note_on_c, 5, 66, 96
1, 15888, Note_on_c, 6, 60, 96
1, 15909, Note_off_c, 5, 66, 0
1, 15912, Note_on_c, 5, 67, 96
1, 15930, Note_off_c, 0, 72, 0
1, 15930, Note_off_c, 1, 63, 0
1, 15930, Note_off_c, 2, 63, 0
1, 15930, Note_off_c, 3, 60, 0
1, 15930, Note_off_c, 4, 48, 0
1, 15930, Note_off_c, 6, 60, 0
1, 15933, Note_off_c, 5, 67, 0
1, 15936, Note_on_c, 0, 75, 80
1, 15936, Note_on_c, 1, 67, 80
1, 15936, Note_on_c, 2, 59, 80
1, 15936, Note_on_c, 3, 55, 80
1, 15936, Note_on_c, 4, 43, 80
1, 15936, Note_on_c, 5, 67, 96
1, 15936, Note_on_c, 6, 55, 96
1, 15960, Note_off_c, 5, 67, 0
1, 15960, Note_on_c, 5, 75, 96
1, 15984, Note_off_c, 2, 59, 0
1, 15984, Note_on_c, 2, 60, 80
1, 16008, Note_off_c, 5, 75, 0
1, 16008, Note_on_c, 5, 74, 96
1, 16020, Note_off_c, 1, 67, 0
1, 16020, Note_off_c, 3, 55, 0
1, 16020, Note_off_c, 4, 43, 0
1, 16020, Note_off_c, 6, 55, 0
1, 16026, Note_off_c, 2, 60, 0
1, 16032, Note_off_c, 0, 75, 0
1, 16032, Note_on_c, 0, 77, 80
1, 16032, Note_on_c, 1, 67, 80
1, 16032, Note_on_c, 2, 62, 80
1, 16032, Note_on_c, 3, 43, 80
1, 16032, Note_on_c, 4, 31, 80
1, 16032, Note_off_c, 5, 74, 0
1, 16032, Note_on_c, 5, 72, 96
1, 16032, Note_on_c, 6, 43, 96
1, 16035, Note_off_c, 5, 72, 0
1, 16035, Note_on_c, 5, 74, 96
1, 16038, Note_off_c, 5, 74, 0
1, 16038, Note_on_c, 5, 72, 96
1, 16041, Note_off_c, 5, 72, 0
1, 16041, Note_on_c, 5, 74, 96
1, 16044, Note_off_c, 5, 74, 0
1, 16044, Note_on_c, 5, 72, 96
1, 16047, Note_off_c, 5, 72, 0
1, 16047, Note_on_c, 5, 74, 96
1, 16050, Note_off_c, 5, 74, 0
1, 16050, Note_on_c, 5, 72, 96
1, 16056, Note_off_c, 5, 72, 0
1, 16056, Note_on_c, 5, 71, 96
1, 16074, Note_off_c, 0, 77, 0
1, 16080, Note_on_c, 0, 74, 80
1, 16080, Note_off_c, 2, 62, 0
1, 16080, Note_on_c, 2, 65, 80
1, 16080, Note_off_c, 5, 71, 0
1, 16080, Note_on_c, 5, 72, 96
1, 16116, Note_off_c, 1, 67, 0
1, 16116, Note_off_c, 3, 43, 0
1, 16116, Note_off_c, 4, 31, 0
1, 16116, Note_off_c, 6, 43, 0
1, 16122, Note_off_c, 0, 74, 0
1, 16122, Note_off_c, 2, 65, 0
1, 16122, Note_off_c, 5, 72, 0
1, 16128, Note_on_c, 0, 72, 80
1, 16128, Note_on_c, 1, 67, 80
1, 16128, Note_on_c, 2, 63, 80
1, 16128, Note_on_c, 3, 48, 80
1, 16128, Note_on_c, 4, 36, 80
1, 16128, Note_on_c, 5, 72, 96
1, 16128, Note_on_c, 6, 48, 96
1, 16180, Note_off_c, 5, 72, 0
1, 16188, Note_on_c, 5, 67, 96
1, 16198, Note_off_c, 5, 67, 0
1, 16200, Note_on_c, 5, 69, 96
1, 16210, Note_off_c, 5, 69, 0
1, 16212, Note_off_c, 0, 72, 0
1, 16212, Note_off_c, 1, 67, 0
1, 16212, Note_off_c, 2, 63, 0
1, 16212, Note_off_c, 3, 48, 0
1, 16212, Note_off_c, 4, 36, 0
1, 16212, Note_on_c, 5, 71, 96
1, 16212, Note_off_c, 6, 48, 0
1, 16222, Note_off_c, 5, 71, 0
1, 16224, Note_on_c, 5, 72, 96
1, 16236, Note_off_c, 5, 72, 0
1, 16236, Note_on_c, 5, 74, 96
1, 16248, Note_off_c, 5, 74, 0
1, 16248, Note_on_c, 5, 75, 96
1, 16260, Note_off_c, 5, 75, 0
1, 16260, Note_on_c, 5, 74, 96
1, 16272, Note_off_c, 5, 74, 0
1, 16272, Note_on_c, 5, 72, 96
1, 16284, Note_off_c, 5, 72, 0
1, 16284, Note_on_c, 5, 70, 96
1, 16296, Note_off_c, 5, 70, 0
1, 16296, Note_on_c, 5, 69, 96
1, 16308, Note_off_c, 5, 69, 0
1, 16308, Note_on_c, 5, 70, 96
1, 16320, Note_off_c, 5, 70, 0
1, 16320, Note_on_c, 5, 72, 96
1, 16332, Note_off_c, 5, 72, 0
1, 16332, Note_on_c, 5, 66, 96
1, 16344, Note_off_c, 5, 66, 0
1, 16344, Note_on_c, 5, 67, 96
1, 16356, Note_off_c, 5, 67, 0
1, 16356, Note_on_c, 5, 69, 96
1, 16368, Note_off_c, 5, 69, 0
1, 16368, Note_on_c, 5, 67, 96
1, 16380, Note_off_c, 5, 67, 0
1, 16380, Note_on_c, 5, 66, 96
1, 16392, Note_off_c, 5, 66, 0
1, 16392, Note_on_c, 5, 64, 96
1, 16404, Note_off_c, 5, 64, 0
1, 16404, Note_on_c, 5, 62, 96
1, 16414, Note_off_c, 5, 62, 0
1, 16416, Note_on_c, 0, 75, 80
1, 16416, Note_on_c, 1, 72, 80
1, 16416, Note_on_c, 2, 57, 80
1, 16416, Note_on_c, 3, 45, 80
1, 16416, Note_on_c, 4, 33, 80
1, 16416, Note_on_c, 5, 78, 96
1, 16416, Note_on_c, 6, 45, 96
1, 16464, Note_off_c, 3, 45, 0
1, 16464, Note_on_c, 3, 45, 80
1, 16464, Note_off_c, 4, 33, 0
1, 16464, Note_on_c, 4, 33, 80
1, 16464, Note_off_c, 6, 45, 0
1, 16464, Note_on_c, 6, 45, 96
1, 16500, Note_off_c, 0, 75, 0
1, 16500, Note_off_c, 1, 72, 0
1, 16500, Note_off_c, 2, 57, 0
1, 16506, Note_off_c, 3, 45, 0
1, 16506, Note_off_c, 4, 33, 0
1, 16506, Note_off_c, 6, 45, 0
1, 16512, Note_on_c, 0, 72, 80
1, 16512, Note_on_c, 1, 69, 80
1, 16512, Note_on_c, 2, 63, 80
1, 16512, Note_on_c, 3, 48, 80
1, 16512, Note_on_c, 4, 36, 80
1, 16512, Note_off_c, 5, 78, 0
1, 16512, Note_on_c, 6, 48, 96
1, 16524, Note_on_c, 5, 79, 96
1, 16534, Note_off_c, 5, 79, 0
1, 16536, Note_on_c, 5, 78, 96
1, 16546, Note_off_c, 5, 78, 0
1, 16548, Note_on_c, 5, 76, 96
1, 16558, Note_off_c, 5, 76, 0
1, 16560, Note_off_c, 3, 48, 0
1, 16560, Note_on_c, 3, 48, 80
1, 16560, Note_off_c, 4, 36, 0
1, 16560, Note_on_c, 4, 36, 80
1, 16560, Note_on_c, 5, 78, 96
1, 16560, Note_off_c, 6, 48, 0
1, 16560, Note_on_c, 6, 48, 96
1, 16581, Note_off_c, 5, 78, 0
1, 16584, Note_on_c, 5, 79, 96
1, 16596, Note_off_c, 0, 72, 0
1, 16596, Note_off_c, 1, 69, 0
1, 16596, Note_off_c, 2, 63, 0
1, 16602, Note_off_c, 3, 48, 0
1, 16602, Note_off_c, 4, 36, 0
1, 16602, Note_off_c, 6, 48, 0
1, 16605, Note_off_c, 5, 79, 0
1, 16608, Note_on_c, 0, 69, 80
1, 16608, Note_on_c, 1, 67, 80
1, 16608, Note_on_c, 2, 60, 80
1, 16608, Note_on_c, 3, 51, 80
1, 16608, Note_on_c, 4, 39, 80
1, 16608, Note_on_c, 5, 81, 96
1, 16608, Note_on_c, 6, 51, 96
1, 16611, Note_off_c, 5, 81, 0
1, 16611, Note_on_c, 5, 79, 96
1, 16614, Note_off_c, 5, 79, 0
1, 16614, Note_on_c, 5, 81, 96
1, 16617, Note_off_c, 5, 81, 0
1, 16617, Note_on_c, 5, 79, 96
1, 16620, Note_off_c, 5, 79, 0
1, 16620, Note_on_c, 5, 81, 96
1, 16623, Note_off_c, 5, 81, 0
1, 16623, Note_on_c, 5, 79, 96
1, 16626, Note_off_c, 5, 79, 0
1, 16626, Note_on_c, 5, 81, 96
1, 16629, Note_off_c, 5, 81, 0
1, 16629, Note_on_c, 5, 79, 96
1, 16632, Note_off_c, 5, 79, 0
1, 16632, Note_on_c, 5, 81, 96
1, 16635, Note_off_c, 5, 81, 0
1, 16635, Note_on_c, 5, 79, 96
1, 16638, Note_off_c, 5, 79, 0
1, 16638, Note_on_c, 5, 81, 96
1, 16641, Note_off_c, 5, 81, 0
1, 16641, Note_on_c, 5, 79, 96
1, 16644, Note_off_c, 5, 79, 0
1, 16644, Note_on_c, 5, 81, 96
1, 16647, Note_off_c, 5, 81, 0
1, 16647, Note_on_c, 5, 79, 96
1, 16650, Note_off_c, 5, 79, 0
1, 16650, Note_on_c, 5, 81, 96
1, 16653, Note_off_c, 5, 81, 0
1, 16653, Note_on_c, 5, 79, 96
1, 16656, Note_off_c, 3, 51, 0
1, 16656, Note_on_c, 3, 51, 80
1, 16656, Note_off_c, 4, 39, 0
1, 16656, Note_on_c, 4, 39, 80
1, 16656, Note_off_c, 5, 79, 0
1, 16656, Note_on_c, 5, 81, 96
1, 16656, Note_off_c, 6, 51, 0
1, 16656, Note_on_c, 6, 51, 96
1, 16659, Note_off_c, 5, 81, 0
1, 16659, Note_on_c, 5, 79, 96
1, 16677, Note_off_c, 5, 79, 0
1, 16680, Note_on_c, 5, 78, 96
1, 16690, Note_off_c, 5, 78, 0
1, 16692, Note_off_c, 0, 69, 0
1, 16692, Note_off_c, 1, 67, 0
1, 16692, Note_off_c, 2, 60, 0
1, 16692, Note_on_c, 5, 79, 96
1, 16698, Note_off_c, 3, 51, 0
1, 16698, Note_off_c, 4, 39, 0
1, 16698, Note_off_c, 6, 51, 0
1, 16702, Note_off_c, 5, 79, 0
1, 16704, Note_on_c, 0, 72, 80
1, 16704, Note_on_c, 1, 63, 80
1, 16704, Note_on_c, 2, 57, 80
1, 16704, Note_on_c, 3, 42, 80
1, 16704, Note_on_c, 4, 30, 80
1, 16704, Note_on_c, 5, 81, 96
1, 16704, Note_on_c, 6, 42, 96
1, 16728, Note_off_c, 5, 81, 0
1, 16728, Note_on_c, 5, 75, 96
1, 16752, Note_off_c, 3, 42, 0
1, 16752, Note_on_c, 3, 42, 80
1, 16752, Note_off_c, 4, 30, 0
1, 16752, Note_on_c, 4, 30, 80
1, 16752, Note_off_c, 5, 75, 0
1, 16752, Note_on_c, 5, 72, 96
1, 16752, Note_off_c, 6, 42, 0
1, 16752, Note_on_c, 6, 42, 96
1, 16776, Note_off_c, 5, 72, 0
1, 16776, Note_on_c, 5, 71, 96
1, 16788, Note_off_c, 0, 72, 0
1, 16788, Note_off_c, 1, 63, 0
1, 16788, Note_off_c, 2, 57, 0
1, 16794, Note_off_c, 3, 42, 0
1, 16794, Note_off_c, 4, 30, 0
1, 16794, Note_off_c, 6, 42, 0
1, 16800, Note_on_c, 0, 69, 80
1, 16800, Note_on_c, 1, 60, 80
1, 16800, Note_on_c, 2, 54, 80
1, 16800, Note_on_c, 3, 45, 80
1, 16800, Note_on_c, 4, 33, 80
1, 16800, Note_off_c, 5, 71, 0
1, 16800, Note_on_c, 5, 72, 96
1, 16800, Note_on_c, 6, 45, 96
1, 16824, Note_off_c, 5, 72, 0
1, 16824, Note_on_c, 5, 75, 96
1, 16848, Note_off_c, 3, 45, 0
1, 16848, Note_on_c, 3, 45, 80
1, 16848, Note_off_c, 4, 33, 0
1, 16848, Note_on_c, 4, 33, 80
1, 16848, Note_off_c, 5, 75, 0
1, 16848, Note_on_c, 5, 78, 96
1, 16848, Note_off_c, 6, 45, 0
1, 16848, Note_on_c, 6, 45, 96
1, 16872, Note_off_c, 5, 78, 0
1, 16872, Note_on_c, 5, 79, 96
1, 16884, Note_off_c, 0, 69, 0
1, 16884, Note_off_c, 1, 60, 0
1, 16884, Note_off_c, 2, 54, 0
1, 16890, Note_off_c, 3, 45, 0
1, 16890, Note_off_c, 4, 33, 0
1, 16890, Note_off_c, 6, 45, 0
1, 16896, Note_on_c, 0, 66, 80
1, 16896, Note_on_c, 1, 57, 80
1, 16896, Note_on_c, 2, 50, 80
1, 16896, Note_on_c, 3, 48, 80
1, 16896, Note_on_c, 4, 36, 80
1, 16896, Note_off_c, 5, 79, 0
1, 16896, Note_on_c, 5, 81, 96
1, 16896, Note_on_c, 6, 48, 96
1, 16908, Note_off_c, 5, 81, 0
1, 16908, Note_on_c, 5, 82, 96
1, 16920, Note_off_c, 5, 82, 0
1, 16920, Note_on_c, 5, 81, 96
1, 16932, Note_off_c, 5, 81, 0
1, 16932, Note_on_c, 5, 79, 96
1, 16944, Note_off_c, 3, 48, 0
1, 16944, Note_on_c, 3, 48, 80
1, 16944, Note_off_c, 4, 36, 0
1, 16944, Note_on_c, 4, 36, 80
1, 16944, Note_off_c, 5, 79, 0
1, 16944, Note_on_c, 5, 81, 96
1, 16944, Note_off_c, 6, 48, 0
1, 16944, Note_on_c, 6, 48, 96
1, 16968, Note_off_c, 5, 81, 0
1, 16968, Note_on_c, 5, 82, 96
1, 16980, Note_off_c, 0, 66, 0
1, 16980, Note_off_c, 1, 57, 0
1, 16980, Note_off_c, 2, 50, 0
1, 16986, Note_off_c, 3, 48, 0
1, 16986, Note_off_c, 4, 36, 0
1, 16986, Note_off_c, 6, 48, 0
1, 16989, Note_off_c, 5, 82, 0
1, 16992, Note_on_c, 0, 62, 80
1, 16992, Note_on_c, 1, 57, 80
1, 16992, Note_on_c, 2, 66, 80
1, 16992, Note_on_c, 3, 38, 80
1, 16992, Note_on_c, 4, 26, 80
1, 16992, Note_on_c, 5, 84, 96
1, 16992, Note_on_c, 6, 38, 96
1, 17004, Note_off_c, 5, 84, 0
1, 17004, Note_on_c, 5, 82, 96
1, 17016, Note_off_c, 5, 82, 0
1, 17016, Note_on_c, 5, 81, 96
1, 17028, Note_off_c, 5, 81, 0
1, 17028, Note_on_c, 5, 79, 96
1, 17040, Note_off_c, 5, 79, 0
1, 17040, Note_on_c, 5, 78, 96
1, 17052, Note_off_c, 5, 78, 0
1, 17052, Note_on_c, 5, 79, 96
1, 17064, Note_off_c, 5, 79, 0
1, 17064, Note_on_c, 5, 81, 96
1, 17076, Note_off_c, 0, 62, 0
1, 17076, Note_off_c, 1, 57, 0
1, 17076, Note_off_c, 2, 66, 0
1, 17076, Note_off_c, 3, 38, 0
1, 17076, Note_off_c, 4, 26, 0
1, 17076, Note_off_c, 6, 38, 0
1, 17085, Note_off_c, 5, 81, 0
1, 17088, Note_on_c, 5, 75, 96
1, 17112, Note_off_c, 5, 75, 0
1, 17112, Note_on_c, 5, 73, 96
1, 17154, Note_off_c, 5, 73, 0
1, 17160, Note_on_c, 5, 74, 96
1, 17181, Note_off_c, 5, 74, 0
1, 17184, Note_on_c, 5, 74, 96
1, 17196, Note_off_c, 5, 74, 0
1, 17196, Note_on_c, 5, 84, 96
1, 17220, Note_off_c, 5, 84, 0
1, 17220, Note_on_c, 5, 82, 96
1, 17226, Note_off_c, 5, 82, 0
1, 17226, Note_on_c, 5, 81, 96
1, 17232, Note_off_c, 5, 81, 0
1, 17232, Note_on_c, 5, 79, 96
1, 17256, Note_off_c, 5, 79, 0
1, 17256, Note_on_c, 5, 78, 96
1, 17277, Note_off_c, 5, 78, 0
1, 17280, Note_on_c, 0, 74, 80
1, 17280, Note_on_c, 1, 70, 80
1, 17280, Note_on_c, 2, 67, 80
1, 17280, Note_on_c, 3, 55, 80
1, 17280, Note_on_c, 4, 43, 80
1, 17280, Note_on_c, 5, 79, 96
1, 17280, Note_on_c, 6, 55, 96
1, 17328, Note_off_c, 3, 55, 0
1, 17328, Note_on_c, 3, 55, 80
1, 17328, Note_off_c, 4, 43, 0
1, 17328, Note_on_c, 4, 43, 80
1, 17328, Note_off_c, 6, 55, 0
1, 17328, Note_on_c, 6, 55, 96
1, 17343, Note_off_c, 5, 79, 0
1, 17352, Note_on_c, 5, 81, 96
1, 17358, Note_off_c, 5, 81, 0
1, 17358, Note_on_c, 5, 79, 96
1, 17364, Note_off_c, 0, 74, 0
1, 17364, Note_off_c, 1, 70, 0
1, 17364, Note_off_c, 2, 67, 0
1, 17364, Note_off_c, 5, 79, 0
1, 17364, Note_on_c, 5, 78, 96
1, 17370, Note_off_c, 3, 55, 0
1, 17370, Note_off_c, 4, 43, 0
1, 17370, Note_off_c, 6, 55, 0
1, 17374, Note_off_c, 5, 78, 0
1, 17376, Note_on_c, 0, 70, 80
1, 17376, Note_on_c, 1, 67, 80
1, 17376, Note_on_c, 2, 62, 80
1, 17376, Note_on_c, 3, 58, 80
1, 17376, Note_on_c, 4, 46, 80
1, 17376, Note_on_c, 5, 78, 96
1, 17376, Note_on_c, 6, 58, 96
1, 17424, Note_off_c, 3, 58, 0
1, 17424, Note_on_c, 3, 58, 80
1, 17424, Note_off_c, 4, 46, 0
1, 17424, Note_on_c, 4, 46, 80
1, 17424, Note_off_c, 5, 78, 0
1, 17424, Note_on_c, 5, 79, 96
1, 17424, Note_off_c, 6, 58, 0
1, 17424, Note_on_c, 6, 58, 96
1, 17460, Note_off_c, 0, 70, 0
1, 17460, Note_off_c, 1, 67, 0
1, 17460, Note_off_c, 2, 62, 0
1, 17466, Note_off_c, 3, 58, 0
1, 17466, Note_off_c, 4, 46, 0
1, 17466, Note_off_c, 6, 58, 0
1, 17472, Note_on_c, 0, 66, 80
1, 17472, Note_on_c, 1, 62, 80
1, 17472, Note_on_c, 2, 58, 80
1, 17472, Note_on_c, 3, 62, 80
1, 17472, Note_on_c, 4, 50, 80
1, 17472, Note_on_c, 6, 62, 96
1, 17520, Note_off_c, 1, 62, 0
1, 17520, Note_on_c, 1, 60, 80
1, 17520, Note_off_c, 2, 58, 0
1, 17520, Note_on_c, 2, 57, 80
1, 17520, Note_off_c, 3, 62, 0
1, 17520, Note_on_c, 3, 62, 80
1, 17520, Note_off_c, 4, 50, 0
1, 17520, Note_on_c, 4, 50, 80
1, 17520, Note_off_c, 6, 62, 0
1, 17520, Note_on_c, 6, 62, 96
1, 17556, Note_off_c, 0, 66, 0
1, 17562, Note_off_c, 1, 60, 0
1, 17562, Note_off_c, 2, 57, 0
1, 17562, Note_off_c, 3, 62, 0
1, 17562, Note_off_c, 4, 50, 0
1, 17562, Note_off_c, 6, 62, 0
1, 17568, Note_on_c, 0, 67, 80
1, 17568, Note_on_c, 1, 58, 80
1, 17568, Note_on_c, 2, 55, 80
1, 17568, Note_on_c, 3, 51, 80
1, 17568, Note_on_c, 4, 39, 80
1, 17568, Note_on_c, 6, 51, 96
1, 17580, Note_off_c, 5, 79, 0
1, 17592, Note_on_c, 5, 67, 96
1, 17616, Note_off_c, 0, 67, 0
1, 17616, Note_on_c, 0, 66, 80
1, 17616, Note_off_c, 3, 51, 0
1, 17616, Note_on_c, 3, 50, 80
1, 17616, Note_off_c, 4, 39, 0
1, 17616, Note_on_c, 4, 38, 80
1, 17616, Note_off_c, 5, 67, 0
1, 17616, Note_on_c, 5, 69, 96
1, 17616, Note_off_c, 6, 51, 0
1, 17616, Note_on_c, 6, 50, 96
1, 17640, Note_off_c, 5, 69, 0
1, 17640, Note_on_c, 5, 72, 96
1, 17652, Note_off_c, 1, 58, 0
1, 17652, Note_off_c, 2, 55, 0
1, 17652, Note_off_c, 5, 72, 0
1, 17652, Note_on_c, 5, 71, 96
1, 17658, Note_off_c, 0, 66, 0
1, 17658, Note_off_c, 3, 50, 0
1, 17658, Note_off_c, 4, 38, 0
1, 17658, Note_off_c, 6, 50, 0
1, 17662, Note_off_c, 5, 71, 0
1, 17664, Note_on_c, 0, 67, 80
1, 17664, Note_on_c, 3, 50, 80
1, 17664, Note_on_c, 4, 38, 80
1, 17664, Note_on_c, 5, 72, 96
1, 17664, Note_on_c, 6, 50, 96
1, 17676, Note_off_c, 5, 72, 0
1, 17676, Note_on_c, 5, 67, 96
1, 17688, Note_off_c, 5, 67, 0
1, 17688, Note_on_c, 5, 69, 96
1, 17700, Note_off_c, 5, 69, 0
1, 17700, Note_on_c, 5, 71, 96
1, 17712, Note_off_c, 3, 50, 0
1, 17712, Note_on_c, 3, 51, 80
1, 17712, Note_off_c, 4, 38, 0
1, 17712, Note_on_c, 4, 39, 80
1, 17712, Note_off_c, 5, 71, 0
1, 17712, Note_on_c, 5, 72, 96
1, 17712, Note_off_c, 6, 50, 0
1, 17712, Note_on_c, 6, 51, 96
1, 17733, Note_off_c, 5, 72, 0
1, 17736, Note_on_c, 5, 75, 96
1, 17748, Note_off_c, 0, 67, 0
1, 17748, Note_off_c, 5, 75, 0
1, 17748, Note_on_c, 5, 74, 96
1, 17754, Note_off_c, 3, 51, 0
1, 17754, Note_off_c, 4, 39, 0
1, 17754, Note_off_c, 6, 51, 0
1, 17758, Note_off_c, 5, 74, 0
1, 17760, Note_on_c, 5, 75, 96
1, 17796, Note_off_c, 5, 75, 0
1, 17796, Note_on_c, 5, 74, 96
1, 17800, Note_off_c, 5, 74, 0
1, 17800, Note_on_c, 5, 72, 96
1, 17804, Note_off_c, 5, 72, 0
1, 17804, Note_on_c, 5, 71, 96
1, 17808, Note_off_c, 5, 71, 0
1, 17808, Note_on_c, 5, 72, 96
1, 17832, Note_off_c, 5, 72, 0
1, 17832, Note_on_c, 5, 75, 96
1, 17844, Note_off_c, 5, 75, 0
1, 17844, Note_on_c, 5, 79, 96
1, 17854, Note_off_c, 5, 79, 0
1, 17856, Note_on_c, 0, 72, 80
1, 17856, Note_on_c, 1, 66, 80
1, 17856, Note_on_c, 2, 60, 80
1, 17856, Note_on_c, 3, 57, 80
1, 17856, Note_on_c, 4, 45, 80
1, 17856, Note_on_c, 5, 84, 96
1, 17856, Note_on_c, 6, 57, 96
1, 17904, Note_off_c, 3, 57, 0
1, 17904, Note_on_c, 3, 57, 80
1, 17904, Note_off_c, 4, 45, 0
1, 17904, Note_on_c, 4, 45, 80
1, 17904, Note_off_c, 6, 57, 0
1, 17904, Note_on_c, 6, 57, 96
1, 17940, Note_off_c, 0, 72, 0
1, 17940, Note_off_c, 1, 66, 0
1, 17940, Note_off_c, 2, 60, 0
1, 17946, Note_off_c, 3, 57, 0
1, 17946, Note_off_c, 4, 45, 0
1, 17946, Note_off_c, 6, 57, 0
1, 17952, Note_on_c, 0, 69, 80
1, 17952, Note_on_c, 1, 66, 80
1, 17952, Note_on_c, 2, 63, 80
1, 17952, Note_on_c, 3, 60, 80
1, 17952, Note_on_c, 4, 48, 80
1, 17952, Note_on_c, 6, 60, 96
1, 18000, Note_off_c, 1, 66, 0
1, 18000, Note_on_c, 1, 69, 80
1, 18000, Note_off_c, 3, 60, 0
1, 18000, Note_on_c, 3, 60, 80
1, 18000, Note_off_c, 4, 48, 0
1, 18000, Note_on_c, 4, 48, 80
1, 18000, Note_off_c, 6, 60, 0
1, 18000, Note_on_c, 6, 60, 96
1, 18036, Note_off_c, 0, 69, 0
1, 18036, Note_off_c, 2, 63, 0
1, 18042, Note_off_c, 1, 69, 0
1, 18042, Note_off_c, 3, 60, 0
1, 18042, Note_off_c, 4, 48, 0
1, 18042, Note_off_c, 6, 60, 0
1, 18048, Note_on_c, 0, 66, 80
1, 18048, Note_on_c, 1, 60, 80
1, 18048, Note_on_c, 2, 57, 80
1, 18048, Note_on_c, 3, 63, 80
1, 18048, Note_on_c, 4, 51, 80
1, 18048, Note_on_c, 6, 63, 96
1, 18096, Note_off_c, 1, 60, 0
1, 18096, Note_on_c, 1, 63, 80
1, 18096, Note_off_c, 3, 63, 0
1, 18096, Note_on_c, 3, 63, 80
1, 18096, Note_off_c, 4, 51, 0
1, 18096, Note_on_c, 4, 51, 80
1, 18096, Note_off_c, 6, 63, 0
1, 18096, Note_on_c, 6, 63, 96
1, 18132, Note_off_c, 0, 66, 0
1, 18132, Note_off_c, 2, 57, 0
1, 18138, Note_off_c, 1, 63, 0
1, 18138, Note_off_c, 3, 63, 0
1, 18138, Note_off_c, 4, 51, 0
1, 18138, Note_off_c, 6, 63, 0
1, 18144, Note_on_c, 0, 62, 80
1, 18144, Note_on_c, 1, 57, 80
1, 18144, Note_on_c, 2, 62, 80
1, 18144, Note_on_c, 3, 54, 80
1, 18144, Note_on_c, 4, 42, 80
1, 18144, Note_on_c, 6, 54, 96
1, 18192, Note_off_c, 0, 62, 0
1, 18192, Note_on_c, 0, 60, 80
1, 18192, Note_off_c, 3, 54, 0
1, 18192, Note_on_c, 3, 54, 80
1, 18192, Note_off_c, 4, 42, 0
1, 18192, Note_on_c, 4, 42, 80
1, 18192, Note_off_c, 6, 54, 0
1, 18192, Note_on_c, 6, 54, 96
1, 18228, Note_off_c, 1, 57, 0
1, 18228, Note_off_c, 2, 62, 0
1, 18234, Note_off_c, 0, 60, 0
1, 18234, Note_off_c, 3, 54, 0
1, 18234, Note_off_c, 4, 42, 0
1, 18234, Note_off_c, 6, 54, 0
1, 18240, Note_on_c, 0, 62, 80
1, 18240, Note_on_c, 3, 57, 80
1, 18240, Note_on_c, 4, 45, 80
1, 18240, Note_off_c, 5, 84, 0
1, 18240, Note_on_c, 6, 57, 96
1, 18252, Note_on_c, 5, 82, 96
1, 18262, Note_off_c, 5, 82, 0
1, 18264, Note_on_c, 5, 84, 96
1, 18274, Note_off_c, 5, 84, 0
1, 18276, Note_on_c, 5, 86, 96
1, 18286, Note_off_c, 5, 86, 0
1, 18288, Note_off_c, 3, 57, 0
1, 18288, Note_on_c, 3, 57, 80
1, 18288, Note_off_c, 4, 45, 0
1, 18288, Note_on_c, 4, 45, 80
1, 18288, Note_on_c, 5, 84, 96
1, 18288, Note_off_c, 6, 57, 0
1, 18288, Note_on_c, 6, 57, 96
1, 18298, Note_off_c, 5, 84, 0
1, 18300, Note_on_c, 5, 82, 96
1, 18310, Note_off_c, 5, 82, 0
1, 18312, Note_on_c, 5, 81, 96
1, 18322, Note_off_c, 5, 81, 0
1, 18324, Note_off_c, 0, 62, 0
1, 18324, Note_on_c, 5, 79, 96
1, 18330, Note_off_c, 3, 57, 0
1, 18330, Note_off_c, 4, 45, 0
1, 18330, Note_off_c, 6, 57, 0
1, 18334, Note_off_c, 5, 79, 0
1, 18336, Note_on_c, 3, 60, 80
1, 18336, Note_on_c, 4, 48, 80
1, 18336, Note_on_c, 5, 79, 96
1, 18336, Note_on_c, 6, 60, 96
1, 18384, Note_off_c, 3, 60, 0
1, 18384, Note_on_c, 3, 60, 80
1, 18384, Note_off_c, 4, 48, 0
1, 18384, Note_on_c, 4, 48, 80
1, 18384, Note_off_c, 5, 79, 0
1, 18384, Note_on_c, 5, 78, 96
1, 18384, Note_off_c, 6, 60, 0
1, 18384, Note_on_c, 6, 60, 96
1, 18426, Note_off_c, 3, 60, 0
1, 18426, Note_off_c, 4, 48, 0
1, 18426, Note_off_c, 6, 60, 0
1, 18432, Note_on_c, 0, 69, 80
1, 18432, Note_on_c, 1, 62, 80
1, 18432, Note_on_c, 2, 66, 80
1, 18432, Note_on_c, 3, 50, 80
1, 18432, Note_on_c, 4, 38, 80
1, 18432, Note_on_c, 6, 50, 96
1, 18436, Note_off_c, 5, 78, 0
1, 18444, Note_on_c, 5, 76, 96
1, 18454, Note_off_c, 5, 76, 0
1, 18456, Note_on_c, 5, 78, 96
1, 18466, Note_off_c, 5, 78, 0
1, 18468, Note_on_c, 5, 82, 96
1, 18478, Note_off_c, 5, 82, 0
1, 18480, Note_off_c, 0, 69, 0
1, 18480, Note_on_c, 0, 67, 80
1, 18480, Note_off_c, 3, 50, 0
1, 18480, Note_on_c, 3, 50, 80
1, 18480, Note_off_c, 4, 38, 0
1, 18480, Note_on_c, 4, 38, 80
1, 18480, Note_on_c, 5, 81, 96
1, 18480, Note_off_c, 6, 50, 0
1, 18480, Note_on_c, 6, 50, 96
1, 18490, Note_off_c, 5, 81, 0
1, 18492, Note_on_c, 5, 79, 96
1, 18502, Note_off_c, 5, 79, 0
1, 18504, Note_on_c, 5, 78, 96
1, 18514, Note_off_c, 5, 78, 0
1, 18516, Note_off_c, 1, 62, 0
1, 18516, Note_off_c, 2, 66, 0
1, 18516, Note_on_c, 5, 76, 96
1, 18522, Note_off_c, 0, 67, 0
1, 18522, Note_off_c, 3, 50, 0
1, 18522, Note_off_c, 4, 38, 0
1, 18522, Note_off_c, 6, 50, 0
1, 18526, Note_off_c, 5, 76, 0
1, 18528, Note_on_c, 0, 69, 80
1, 18528, Note_on_c, 3, 54, 80
1, 18528, Note_on_c, 4, 42, 80
1, 18528, Note_on_c, 5, 75, 96
1, 18528, Note_on_c, 6, 54, 96
1, 18576, Note_off_c, 3, 54, 0
1, 18576, Note_on_c, 3, 54, 80
1, 18576, Note_off_c, 4, 42, 0
1, 18576, Note_on_c, 4, 42, 80
1, 18576, Note_off_c, 6, 54, 0
1, 18576, Note_on_c, 6, 54, 96
1, 18580, Note_off_c, 5, 75, 0
1, 18588, Note_on_c, 5, 74, 96
1, 18598, Note_off_c, 5, 74, 0
1, 18600, Note_on_c, 5, 76, 96
1, 18610, Note_off_c, 5, 76, 0
1, 18612, Note_off_c, 0, 69, 0
1, 18612, Note_on_c, 5, 78, 96
1, 18618, Note_off_c, 3, 54, 0
1, 18618, Note_off_c, 4, 42, 0
1, 18618, Note_off_c, 6, 54, 0
1, 18622, Note_off_c, 5, 78, 0
1, 18624, Note_on_c, 3, 57, 80
1, 18624, Note_on_c, 4, 45, 80
1, 18624, Note_on_c, 5, 76, 96
1, 18624, Note_on_c, 6, 57, 96
1, 18636, Note_off_c, 5, 76, 0
1, 18636, Note_on_c, 5, 78, 96
1, 18648, Note_off_c, 5, 78, 0
1, 18648, Note_on_c, 5, 79, 96
1, 18669, Note_off_c, 5, 79, 0
1, 18672, Note_off_c, 3, 57, 0
1, 18672, Note_on_c, 3, 57, 80
1, 18672, Note_off_c, 4, 45, 0
1, 18672, Note_on_c, 4, 45, 80
1, 18672, Note_on_c, 5, 78, 96
1, 18672, Note_off_c, 6, 57, 0
1, 18672, Note_on_c, 6, 57, 96
1, 18675, Note_off_c, 5, 78, 0
1, 18675, Note_on_c, 5, 79, 96
1, 18678, Note_off_c, 5, 79, 0
1, 18678, Note_on_c, 5, 78, 96
1, 18681, Note_off_c, 5, 78, 0
1, 18681, Note_on_c, 5, 79, 96
1, 18684, Note_off_c, 5, 79, 0
1, 18684, Note_on_c, 5, 78, 96
1, 18687, Note_off_c, 5, 78, 0
1, 18687, Note_on_c, 5, 79, 96
1, 18690, Note_off_c, 5, 79, 0
1, 18690, Note_on_c, 5, 78, 96
1, 18693, Note_off_c, 5, 78, 0
1, 18693, Note_on_c, 5, 79, 96
1, 18696, Note_off_c, 5, 79, 0
1, 18696, Note_on_c, 5, 78, 96
1, 18706, Note_off_c, 5, 78, 0
1, 18708, Note_on_c, 5, 76, 96
1, 18713, Note_off_c, 5, 76, 0
1, 18714, Note_off_c, 3, 57, 0
1, 18714, Note_off_c, 4, 45, 0
1, 18714, Note_on_c, 5, 78, 96
1, 18714, Note_off_c, 6, 57, 0
1, 18719, Note_off_c, 5, 78, 0
1, 18720, Note_on_c, 0, 67, 80
1, 18720, Note_on_c, 1, 62, 80
1, 18720, Note_on_c, 2, 58, 80
1, 18720, Note_on_c, 3, 46, 80
1, 18720, Note_on_c, 4, 34, 80
1, 18720, Note_on_c, 5, 79, 96
1, 18720, Note_on_c, 6, 46, 96
1, 18768, Note_off_c, 2, 58, 0
1, 18768, Note_on_c, 2, 60, 80
1, 18768, Note_off_c, 3, 46, 0
1, 18768, Note_on_c, 3, 45, 80
1, 18768, Note_off_c, 4, 34, 0
1, 18768, Note_on_c, 4, 33, 80
1, 18768, Note_off_c, 6, 46, 0
1, 18768, Note_on_c, 6, 45, 96
1, 18804, Note_off_c, 0, 67, 0
1, 18804, Note_off_c, 1, 62, 0
1, 18816, Note_on_c, 0, 70, 80
1, 18816, Note_on_c, 1, 67, 80
1, 18816, Note_off_c, 2, 60, 0
1, 18816, Note_on_c, 2, 62, 80
1, 18816, Note_off_c, 3, 45, 0
1, 18816, Note_on_c, 3, 46, 80
1, 18816, Note_off_c, 4, 33, 0
1, 18816, Note_on_c, 4, 34, 80
1, 18816, Note_off_c, 6, 45, 0
1, 18816, Note_on_c, 6, 46, 96
1, 18828, Note_off_c, 5, 79, 0
1, 18840, Note_on_c, 5, 80, 96
1, 18858, Note_off_c, 2, 62, 0
1, 18858, Note_off_c, 3, 46, 0
1, 18858, Note_off_c, 4, 34, 0
1, 18858, Note_off_c, 6, 46, 0
1, 18861, Note_off_c, 5, 80, 0
1, 18864, Note_off_c, 0, 70, 0
1, 18864, Note_on_c, 0, 74, 80
1, 18864, Note_on_c, 2, 70, 80
1, 18864, Note_on_c, 3, 58, 80
1, 18864, Note_on_c, 4, 46, 80
1, 18864, Note_on_c, 5, 79, 96
1, 18864, Note_on_c, 6, 58, 96
1, 18876, Note_off_c, 6, 58, 0
1, 18885, Note_off_c, 5, 79, 0
1, 18888, Note_on_c, 5, 77, 96
1, 18900, Note_off_c, 1, 67, 0
1, 18906, Note_off_c, 0, 74, 0
1, 18906, Note_off_c, 2, 70, 0
1, 18906, Note_off_c, 3, 58, 0
1, 18906, Note_off_c, 4, 46, 0
1, 18909, Note_off_c, 5, 77, 0
1, 18912, Note_on_c, 0, 72, 80
1, 18912, Note_on_c, 1, 69, 80
1, 18912, Note_on_c, 2, 69, 80
1, 18912, Note_on_c, 3, 54, 80
1, 18912, Note_on_c, 4, 42, 80
1, 18912, Note_on_c, 5, 75, 96
1, 18912, Note_on_c, 6, 54, 96
1, 18924, Note_off_c, 5, 75, 0
1, 18924, Note_on_c, 5, 74, 96
1, 18954, Note_off_c, 3, 54, 0
1, 18954, Note_off_c, 4, 42, 0
1, 18955, Note_off_c, 5, 74, 0
1, 18960, Note_off_c, 0, 72, 0
1, 18960, Note_on_c, 0, 70, 80
1, 18960, Note_off_c, 1, 69, 0
1, 18960, Note_on_c, 1, 70, 80
1, 18960, Note_off_c, 2, 69, 0
1, 18960, Note_on_c, 2, 67, 80
1, 18960, Note_on_c, 3, 55, 80
1, 18960, Note_on_c, 4, 43, 80
1, 18960, Note_on_c, 5, 77, 96
1, 18960, Note_off_c, 6, 54, 0
1, 18960, Note_on_c, 6, 55, 96
1, 18972, Note_off_c, 5, 77, 0
1, 18972, Note_on_c, 5, 75, 96
1, 19002, Note_off_c, 0, 70, 0
1, 19002, Note_off_c, 1, 70, 0
1, 19002, Note_off_c, 2, 67, 0
1, 19002, Note_off_c, 3, 55, 0
1, 19002, Note_off_c, 4, 43, 0
1, 19002, Note_off_c, 6, 55, 0
1, 19003, Note_off_c, 5, 75, 0
1, 19008, Note_on_c, 0, 75, 80
1, 19008, Note_on_c, 1, 69, 80
1, 19008, Note_on_c, 2, 67, 80
1, 19008, Note_on_c, 3, 48, 80
1, 19008, Note_on_c, 4, 36, 80
1, 19008, Note_on_c, 5, 75, 96
1, 19008, Note_on_c, 6, 48, 96
1, 19056, Note_off_c, 3, 48, 0
1, 19056, Note_on_c, 3, 46, 80
1, 19056, Note_off_c, 4, 36, 0
1, 19056, Note_on_c, 4, 34, 80
1, 19056, Note_off_c, 6, 48, 0
1, 19056, Note_on_c, 6, 46, 96
1, 19092, Note_off_c, 0, 75, 0
1, 19104, Note_on_c, 0, 79, 80
1, 19104, Note_off_c, 3, 46, 0
1, 19104, Note_on_c, 3, 48, 80
1, 19104, Note_off_c, 4, 34, 0
1, 19104, Note_on_c, 4, 36, 80
1, 19104, Note_off_c, 6, 46, 0
1, 19104, Note_on_c, 6, 48, 96
1, 19116, Note_off_c, 5, 75, 0
1, 19128, Note_on_c, 5, 77, 96
1, 19146, Note_off_c, 3, 48, 0
1, 19146, Note_off_c, 4, 36, 0
1, 19146, Note_off_c, 6, 48, 0
1, 19152, Note_on_c, 3, 58, 80
1, 19152, Note_on_c, 4, 46, 80
1, 19152, Note_off_c, 5, 77, 0
1, 19152, Note_on_c, 5, 75, 96
1, 19152, Note_on_c, 6, 58, 96
1, 19164, Note_off_c, 6, 58, 0
1, 19176, Note_off_c, 5, 75, 0
1, 19176, Note_on_c, 5, 74, 96
1, 19188, Note_off_c, 0, 79, 0
1, 19194, Note_off_c, 3, 58, 0
1, 19194, Note_off_c, 4, 46, 0
1, 19197, Note_off_c, 5, 74, 0
1, 19200, Note_on_c, 0, 75, 80
1, 19200, Note_on_c, 3, 54, 80
1, 19200, Note_on_c, 4, 42, 80
1, 19200, Note_on_c, 5, 72, 96
1, 19200, Note_on_c, 6, 54, 96
1, 19212, Note_off_c, 5, 72, 0
1, 19212, Note_on_c, 5, 71, 96
1, 19242, Note_off_c, 3, 54, 0
1, 19242, Note_off_c, 4, 42, 0
1, 19243, Note_off_c, 5, 71, 0
1, 19248, Note_on_c, 3, 55, 80
1, 19248, Note_on_c, 4, 43, 80
1, 19248, Note_on_c, 5, 74, 96
1, 19248, Note_off_c, 6, 54, 0
1, 19248, Note_on_c, 6, 55, 96
1, 19260, Note_off_c, 5, 74, 0
1, 19260, Note_on_c, 5, 72, 96
1, 19284, Note_off_c, 0, 75, 0
1, 19284, Note_off_c, 2, 67, 0
1, 19290, Note_off_c, 3, 55, 0
1, 19290, Note_off_c, 4, 43, 0
1, 19290, Note_off_c, 6, 55, 0
1, 19291, Note_off_c, 5, 72, 0
1, 19296, Note_on_c, 0, 72, 80
1, 19296, Note_on_c, 2, 66, 80
1, 19296, Note_on_c, 3, 50, 80
1, 19296, Note_on_c, 4, 38, 80
1, 19296, Note_on_c, 5, 72, 96
1, 19296, Note_on_c, 6, 50, 96
1, 19344, Note_off_c, 3, 50, 0
1, 19344, Note_on_c, 3, 48, 80
1, 19344, Note_off_c, 4, 38, 0
1, 19344, Note_on_c, 4, 36, 80
1, 19344, Note_off_c, 6, 50, 0
1, 19344, Note_on_c, 6, 48, 96
1, 19380, Note_off_c, 0, 72, 0
1, 19380, Note_off_c, 1, 69, 0
1, 19380, Note_off_c, 2, 66, 0
1, 19392, Note_on_c, 0, 75, 80
1, 19392, Note_on_c, 1, 72, 80
1, 19392, Note_on_c, 2, 69, 80
1, 19392, Note_off_c, 3, 48, 0
1, 19392, Note_on_c, 3, 50, 80
1, 19392, Note_off_c, 4, 36, 0
1, 19392, Note_on_c, 4, 38, 80
1, 19392, Note_off_c, 6, 48, 0
1, 19392, Note_on_c, 6, 50, 96
1, 19404, Note_off_c, 5, 72, 0
1, 19416, Note_on_c, 5, 79, 96
1, 19434, Note_off_c, 3, 50, 0
1, 19434, Note_off_c, 4, 38, 0
1, 19434, Note_off_c, 6, 50, 0
1, 19437, Note_off_c, 5, 79, 0
1, 19440, Note_on_c, 3, 58, 80
1, 19440, Note_on_c, 4, 46, 80
1, 19440, Note_on_c, 5, 78, 96
1, 19440, Note_on_c, 6, 58, 96
1, 19452, Note_off_c, 6, 58, 0
1, 19461, Note_off_c, 5, 78, 0
1, 19464, Note_on_c, 5, 79, 96
1, 19474, Note_off_c, 5, 79, 0
1, 19476, Note_off_c, 0, 75, 0
1, 19476, Note_off_c, 1, 72, 0
1, 19476, Note_off_c, 2, 69, 0
1, 19476, Note_on_c, 5, 81, 96
1, 19482, Note_off_c, 3, 58, 0
1, 19482, Note_off_c, 4, 46, 0
1, 19486, Note_off_c, 5, 81, 0
1, 19488, Note_on_c, 0, 74, 80
1, 19488, Note_on_c, 1, 69, 80
1, 19488, Note_on_c, 2, 62, 80
1, 19488, Note_on_c, 3, 54, 80
1, 19488, Note_on_c, 4, 42, 80
1, 19488, Note_on_c, 5, 75, 96
1, 19488, Note_on_c, 6, 54, 96
1, 19512, Note_off_c, 0, 74, 0
1, 19512, Note_on_c, 0, 75, 80
1, 19512, Note_off_c, 5, 75, 0
1, 19512, Note_on_c, 5, 72, 96
1, 19530, Note_off_c, 3, 54, 0
1, 19530, Note_off_c, 4, 42, 0
1, 19536, Note_off_c, 0, 75, 0
1, 19536, Note_on_c, 0, 72, 80
1, 19536, Note_on_c, 3, 55, 80
1, 19536, Note_on_c, 4, 43, 80
1, 19536, Note_off_c, 5, 72, 0
1, 19536, Note_on_c, 5, 70, 96
1, 19536, Note_off_c, 6, 54, 0
1, 19536, Note_on_c, 6, 55, 96
1, 19539, Note_off_c, 5, 70, 0
1, 19539, Note_on_c, 5, 72, 96
1, 19542, Note_off_c, 5, 72, 0
1, 19542, Note_on_c, 5, 70, 96
1, 19545, Note_off_c, 5, 70, 0
1, 19545, Note_on_c, 5, 72, 96
1, 19548, Note_off_c, 5, 72, 0
1, 19548, Note_on_c, 5, 70, 96
1, 19551, Note_off_c, 5, 70, 0
1, 19551, Note_on_c, 5, 72, 96
1, 19554, Note_off_c, 5, 72, 0
1, 19554, Note_on_c, 5, 70, 96
1, 19560, Note_off_c, 5, 70, 0
1, 19560, Note_on_c, 5, 69, 96
1, 19572, Note_off_c, 1, 69, 0
1, 19572, Note_off_c, 2, 62, 0
1, 19578, Note_off_c, 0, 72, 0
1, 19578, Note_off_c, 3, 55, 0
1, 19578, Note_off_c, 4, 43, 0
1, 19578, Note_off_c, 6, 55, 0
1, 19581, Note_off_c, 5, 69, 0
1, 19584, Note_on_c, 0, 70, 80
1, 19584, Note_on_c, 1, 67, 80
1, 19584, Note_on_c, 2, 67, 80
1, 19584, Note_on_c, 3, 51, 80
1, 19584, Note_on_c, 4, 39, 80
1, 19584, Note_on_c, 5, 67, 96
1, 19584, Note_on_c, 6, 51, 96
1, 19608, Note_off_c, 0, 70, 0
1, 19608, Note_on_c, 0, 72, 80
1, 19608, Note_off_c, 5, 67, 0
1, 19608, Note_on_c, 5, 66, 96
1, 19632, Note_off_c, 0, 72, 0
1, 19632, Note_on_c, 0, 69, 80
1, 19632, Note_off_c, 5, 66, 0
1, 19632, Note_on_c, 5, 67, 96
1, 19635, Note_off_c, 5, 67, 0
1, 19635, Note_on_c, 5, 66, 96
1, 19638, Note_off_c, 5, 66, 0
1, 19638, Note_on_c, 5, 67, 96
1, 19656, Note_off_c, 5, 67, 0
1, 19656, Note_on_c, 5, 70, 96
1, 19668, Note_off_c, 1, 67, 0
1, 19668, Note_off_c, 2, 67, 0
1, 19668, Note_off_c, 3, 51, 0
1, 19668, Note_off_c, 4, 39, 0
1, 19668, Note_off_c, 6, 51, 0
1, 19674, Note_off_c, 0, 69, 0
1, 19677, Note_off_c, 5, 70, 0
1, 19680, Note_on_c, 0, 67, 80
1, 19680, Note_on_c, 5, 63, 96
1, 19704, Note_off_c, 5, 63, 0
1, 19704, Note_on_c, 5, 62, 96
1, 19728, Note_on_c, 3, 55, 80
1, 19728, Note_on_c, 4, 43, 80
1, 19728, Note_off_c, 5, 62, 0
1, 19728, Note_on_c, 5, 63, 96
1, 19728, Note_on_c, 6, 55, 96
1, 19731, Note_off_c, 5, 63, 0
1, 19731, Note_on_c, 5, 62, 96
1, 19734, Note_off_c, 5, 62, 0
1, 19734, Note_on_c, 5, 63, 96
1, 19752, Note_off_c, 5, 63, 0
1, 19752, Note_on_c, 5, 67, 96
1, 19764, Note_off_c, 0, 67, 0
1, 19770, Note_off_c, 3, 55, 0
1, 19770, Note_off_c, 4, 43, 0
1, 19773, Note_off_c, 5, 67, 0
1, 19776, Note_on_c, 3, 56, 80
1, 19776, Note_on_c, 4, 44, 80
1, 19776, Note_on_c, 5, 60, 96
1, 19776, Note_off_c, 6, 55, 0
1, 19776, Note_on_c, 6, 56, 96
1, 19800, Note_off_c, 5, 60, 0
1, 19800, Note_on_c, 5, 59, 96
1, 19818, Note_off_c, 3, 56, 0
1, 19818, Note_off_c, 4, 44, 0
1, 19824, Note_on_c, 3, 53, 80
1, 19824, Note_on_c, 4, 41, 80
1, 19824, Note_off_c, 5, 59, 0
1, 19824, Note_on_c, 5, 60, 96
1, 19824, Note_off_c, 6, 56, 0
1, 19824, Note_on_c, 6, 53, 96
1, 19827, Note_off_c, 5, 60, 0
1, 19827, Note_on_c, 5, 59, 96
1, 19830, Note_off_c, 5, 59, 0
1, 19830, Note_on_c, 5, 60, 96
1, 19848, Note_off_c, 5, 60, 0
1, 19848, Note_on_c, 5, 63, 96
1, 19866, Note_off_c, 3, 53, 0
1, 19866, Note_off_c, 4, 41, 0
1, 19866, Note_off_c, 6, 53, 0
1, 19869, Note_off_c, 5, 63, 0
1, 19872, Note_on_c, 0, 77, 80
1, 19872, Note_on_c, 1, 74, 80
1, 19872, Note_on_c, 2, 59, 80
1, 19872, Note_on_c, 3, 47, 80
1, 19872, Note_on_c, 4, 35, 80
1, 19872, Note_on_c, 5, 56, 96
1, 19872, Note_on_c, 6, 47, 96
1, 19896, Note_off_c, 5, 56, 0
1, 19896, Note_on_c, 5, 55, 96
1, 19920, Note_off_c, 3, 47, 0
1, 19920, Note_on_c, 3, 47, 80
1, 19920, Note_off_c, 4, 35, 0
1, 19920, Note_on_c, 4, 35, 80
1, 19920, Note_off_c, 5, 55, 0
1, 19920, Note_on_c, 5, 56, 96
1, 19920, Note_off_c, 6, 47, 0
1, 19920, Note_on_c, 6, 47, 96
1, 19944, Note_off_c, 5, 56, 0
1, 19944, Note_on_c, 5, 62, 96
1, 19956, Note_off_c, 2, 59, 0
1, 19962, Note_off_c, 3, 47, 0
1, 19962, Note_off_c, 4, 35, 0
1, 19962, Note_off_c, 6, 47, 0
1, 19965, Note_off_c, 5, 62, 0
1, 19968, Note_on_c, 2, 68, 80
1, 19968, Note_on_c, 3, 50, 80
1, 19968, Note_on_c, 4, 38, 80
1, 19968, Note_on_c, 5, 65, 96
1, 19968, Note_on_c, 6, 50, 96
1, 19992, Note_off_c, 5, 65, 0
1, 19992, Note_on_c, 5, 63, 96
1, 20016, Note_off_c, 3, 50, 0
1, 20016, Note_on_c, 3, 50, 80
1, 20016, Note_off_c, 4, 38, 0
1, 20016, Note_on_c, 4, 38, 80
1, 20016, Note_off_c, 5, 63, 0
1, 20016, Note_on_c, 5, 65, 96
1, 20016, Note_off_c, 6, 50, 0
1, 20016, Note_on_c, 6, 50, 96
1, 20040, Note_off_c, 5, 65, 0
1, 20040, Note_on_c, 5, 68, 96
1, 20052, Note_off_c, 2, 68, 0
1, 20058, Note_off_c, 3, 50, 0
1, 20058, Note_off_c, 4, 38, 0
1, 20058, Note_off_c, 6, 50, 0
1, 20061, Note_off_c, 5, 68, 0
1, 20064, Note_on_c, 2, 65, 80
1, 20064, Note_on_c, 3, 53, 80
1, 20064, Note_on_c, 4, 41, 80
1, 20064, Note_on_c, 5, 62, 96
1, 20064, Note_on_c, 6, 53, 96
1, 20088, Note_off_c, 5, 62, 0
1, 20088, Note_on_c, 5, 60, 96
1, 20112, Note_off_c, 3, 53, 0
1, 20112, Note_on_c, 3, 53, 80
1, 20112, Note_off_c, 4, 41, 0
1, 20112, Note_on_c, 4, 41, 80
1, 20112, Note_off_c, 5, 60, 0
1, 20112, Note_on_c, 5, 62, 96
1, 20112, Note_off_c, 6, 53, 0
1, 20112, Note_on_c, 6, 53, 96
1, 20136, Note_off_c, 5, 62, 0
1, 20136, Note_on_c, 5, 65, 96
1, 20148, Note_off_c, 2, 65, 0
1, 20154, Note_off_c, 3, 53, 0
1, 20154, Note_off_c, 4, 41, 0
1, 20154, Note_off_c, 6, 53, 0
1, 20157, Note_off_c, 5, 65, 0
1, 20160, Note_on_c, 2, 62, 80
1, 20160, Note_on_c, 3, 44, 80
1, 20160, Note_on_c, 4, 32, 80
1, 20160, Note_on_c, 5, 59, 96
1, 20160, Note_on_c, 6, 44, 96
1, 20184, Note_off_c, 5, 59, 0
1, 20184, Note_on_c, 5, 62, 96
1, 20208, Note_off_c, 5, 62, 0
1, 20208, Note_on_c, 5, 65, 96
1, 20232, Note_off_c, 5, 65, 0
1, 20232, Note_on_c, 5, 68, 96
1, 20244, Note_off_c, 0, 77, 0
1, 20244, Note_off_c, 1, 74, 0
1, 20244, Note_off_c, 2, 62, 0
1, 20244, Note_off_c, 3, 44, 0
1, 20244, Note_off_c, 4, 32, 0
1, 20244, Note_off_c, 6, 44, 0
1, 20253, Note_off_c, 5, 68, 0
1, 20256, Note_on_c, 5, 67, 96
1, 20277, Note_off_c, 5, 67, 0
1, 20280, Note_on_c, 5, 65, 96
1, 20301, Note_off_c, 5, 65, 0
1, 20304, Note_on_c, 0, 80, 80
1, 20304, Note_on_c, 1, 77, 80
1, 20304, Note_on_c, 2, 71, 80
1, 20304, Note_on_c, 3, 50, 80
1, 20304, Note_on_c, 4, 38, 80
1, 20304, Note_on_c, 5, 63, 96
1, 20304, Note_on_c, 6, 50, 96
1, 20307, Note_off_c, 5, 63, 0
1, 20307, Note_on_c, 5, 65, 96
1, 20310, Note_off_c, 5, 65, 0
1, 20310, Note_on_c, 5, 63, 96
1, 20313, Note_off_c, 5, 63, 0
1, 20313, Note_on_c, 5, 65, 96
1, 20316, Note_off_c, 5, 65, 0
1, 20316, Note_on_c, 5, 63, 96
1, 20319, Note_off_c, 5, 63, 0
1, 20319, Note_on_c, 5, 65, 96
1, 20322, Note_off_c, 5, 65, 0
1, 20322, Note_on_c, 5, 63, 96
1, 20327, Note_off_c, 5, 63, 0
1, 20328, Note_on_c, 5, 62, 96
1, 20346, Note_off_c, 0, 80, 0
1, 20346, Note_off_c, 1, 77, 0
1, 20346, Note_off_c, 2, 71, 0
1, 20346, Note_off_c, 3, 50, 0
1, 20346, Note_off_c, 4, 38, 0
1, 20349, Note_off_c, 5, 62, 0
1, 20352, Note_on_c, 0, 79, 80
1, 20352, Note_on_c, 1, 75, 80
1, 20352, Note_on_c, 2, 72, 80
1, 20352, Note_on_c, 3, 51, 80
1, 20352, Note_on_c, 4, 39, 80
1, 20352, Note_on_c, 5, 60, 96
1, 20352, Note_off_c, 6, 50, 0
1, 20352, Note_on_c, 6, 51, 96
1, 20373, Note_off_c, 5, 60, 0
1, 20376, Note_on_c, 5, 63, 96
1, 20394, Note_off_c, 3, 51, 0
1, 20394, Note_off_c, 4, 39, 0
1, 20397, Note_off_c, 5, 63, 0
1, 20400, Note_off_c, 0, 79, 0
1, 20400, Note_on_c, 0, 77, 80
1, 20400, Note_off_c, 1, 75, 0
1, 20400, Note_on_c, 1, 74, 80
1, 20400, Note_off_c, 2, 72, 0
1, 20400, Note_on_c, 2, 67, 80
1, 20400, Note_on_c, 3, 48, 80
1, 20400, Note_on_c, 4, 36, 80
1, 20400, Note_on_c, 5, 67, 96
1, 20400, Note_off_c, 6, 51, 0
1, 20400, Note_on_c, 6, 48, 96
1, 20421, Note_off_c, 5, 67, 0
1, 20424, Note_on_c, 5, 71, 96
1, 20442, Note_off_c, 0, 77, 0
1, 20442, Note_off_c, 1, 74, 0
1, 20442, Note_off_c, 2, 67, 0
1, 20442, Note_off_c, 3, 48, 0
1, 20442, Note_off_c, 4, 36, 0
1, 20442, Note_off_c, 6, 48, 0
1, 20445, Note_off_c, 5, 71, 0
1, 20448, Note_on_c, 0, 75, 80
1, 20448, Note_on_c, 1, 72, 80
1, 20448, Note_on_c, 2, 69, 80
1, 20448, Note_on_c, 3, 54, 80
1, 20448, Note_on_c, 4, 42, 80
1, 20448, Note_on_c, 5, 72, 96
1, 20448, Note_on_c, 6, 54, 96
1, 20472, Note_off_c, 5, 72, 0
1, 20472, Note_on_c, 5, 75, 96
1, 20496, Note_off_c, 0, 75, 0
1, 20496, Note_on_c, 0, 71, 80
1, 20496, Note_off_c, 1, 72, 0
1, 20496, Note_on_c, 1, 67, 80
1, 20496, Note_off_c, 2, 69, 0
1, 20496, Note_on_c, 2, 67, 80
1, 20496, Note_off_c, 3, 54, 0
1, 20496, Note_on_c, 3, 55, 80
1, 20496, Note_off_c, 4, 42, 0
1, 20496, Note_on_c, 4, 43, 80
1, 20496, Note_off_c, 5, 75, 0
1, 20496, Note_on_c, 5, 73, 96
1, 20496, Note_off_c, 6, 54, 0
1, 20496, Note_on_c, 6, 55, 96
1, 20517, Note_off_c, 5, 73, 0
1, 20520, Note_on_c, 5, 71, 96
1, 20538, Note_off_c, 0, 71, 0
1, 20538, Note_off_c, 1, 67, 0
1, 20538, Note_off_c, 2, 67, 0
1, 20538, Note_off_c, 3, 55, 0
1, 20538, Note_off_c, 4, 43, 0
1, 20538, Note_off_c, 6, 55, 0
1, 20541, Note_off_c, 5, 71, 0
1, 20544, Note_on_c, 0, 72, 80
1, 20544, Note_on_c, 1, 67, 80
1, 20544, Note_on_c, 2, 60, 80
1, 20544, Note_on_c, 3, 51, 80
1, 20544, Note_on_c, 4, 39, 80
1, 20544, Note_on_c, 5, 72, 96
1, 20544, Note_on_c, 6, 51, 96
1, 20565, Note_off_c, 5, 72, 0
1, 20568, Note_on_c, 5, 75, 96
1, 20589, Note_off_c, 5, 75, 0
1, 20592, Note_on_c, 5, 80, 96
1, 20613, Note_off_c, 5, 80, 0
1, 20616, Note_on_c, 5, 78, 96
1, 20628, Note_off_c, 0, 72, 0
1, 20628, Note_off_c, 1, 67, 0
1, 20628, Note_off_c, 2, 60, 0
1, 20628, Note_off_c, 3, 51, 0
1, 20628, Note_off_c, 4, 39, 0
1, 20628, Note_off_c, 6, 51, 0
1, 20637, Note_off_c, 5, 78, 0
1, 20640, Note_on_c, 5, 79, 96
1, 20661, Note_off_c, 5, 79, 0
1, 20664, Note_on_c, 5, 75, 96
1, 20685, Note_off_c, 5, 75, 0
1, 20688, Note_on_c, 5, 73, 96
1, 20709, Note_off_c, 5, 73, 0
1, 20712, Note_on_c, 5, 74, 96
1, 20733, Note_off_c, 5, 74, 0
1, 20736, Note_on_c, 0, 79, 80
1, 20736, Note_on_c, 1, 76, 80
1, 20736, Note_on_c, 2, 61, 80
1, 20736, Note_on_c, 3, 49, 80
1, 20736, Note_on_c, 4, 37, 80
1, 20736, Note_on_c, 5, 82, 96
1, 20736, Note_on_c, 6, 49, 96
1, 20757, Note_off_c, 5, 82, 0
1, 20760, Note_on_c, 5, 80, 96
1, 20781, Note_off_c, 5, 80, 0
1, 20784, Note_off_c, 0, 79, 0
1, 20784, Note_on_c, 0, 81, 80
1, 20784, Note_on_c, 5, 78, 96
1, 20805, Note_off_c, 5, 78, 0
1, 20808, Note_off_c, 0, 81, 0
1, 20808, Note_on_c, 0, 82, 80
1, 20808, Note_on_c, 5, 79, 96
1, 20820, Note_off_c, 1, 76, 0
1, 20820, Note_off_c, 2, 61, 0
1, 20820, Note_off_c, 3, 49, 0
1, 20820, Note_off_c, 4, 37, 0
1, 20820, Note_off_c, 6, 49, 0
1, 20829, Note_off_c, 0, 82, 0
1, 20829, Note_off_c, 5, 79, 0
1, 20832, Note_on_c, 0, 79, 80
1, 20832, Note_on_c, 1, 74, 80
1, 20832, Note_on_c, 2, 57, 80
1, 20832, Note_on_c, 3, 50, 80
1, 20832, Note_on_c, 4, 38, 80
1, 20832, Note_on_c, 5, 84, 96
1, 20832, Note_on_c, 6, 50, 96
1, 20880, Note_off_c, 2, 57, 0
1, 20880, Note_on_c, 2, 58, 80
1, 20916, Note_off_c, 1, 74, 0
1, 20916, Note_off_c, 3, 50, 0
1, 20916, Note_off_c, 4, 38, 0
1, 20916, Note_off_c, 6, 50, 0
1, 20922, Note_off_c, 2, 58, 0
1, 20928, Note_off_c, 0, 79, 0
1, 20928, Note_on_c, 0, 78, 80
1, 20928, Note_on_c, 1, 74, 80
1, 20928, Note_on_c, 2, 60, 80
1, 20928, Note_on_c, 3, 38, 80
1, 20928, Note_on_c, 4, 26, 80
1, 20928, Note_on_c, 6, 38, 96
1, 20952, Note_off_c, 5, 84, 0
1, 20964, Note_on_c, 5, 82, 96
1, 20974, Note_off_c, 5, 82, 0
1, 20976, Note_off_c, 2, 60, 0
1, 20976, Note_on_c, 2, 62, 80
1, 20976, Note_on_c, 5, 81, 96
1, 20986, Note_off_c, 5, 81, 0
1, 20988, Note_on_c, 5, 79, 96
1, 20991, Note_off_c, 0, 78, 0
1, 20998, Note_off_c, 5, 79, 0
1, 21000, Note_on_c, 0, 79, 80
1, 21000, Note_on_c, 5, 81, 96
1, 21012, Note_off_c, 1, 74, 0
1, 21012, Note_off_c, 3, 38, 0
1, 21012, Note_off_c, 4, 26, 0
1, 21012, Note_off_c, 6, 38, 0
1, 21018, Note_off_c, 2, 62, 0
1, 21021, Note_off_c, 0, 79, 0
1, 21021, Note_off_c, 5, 81, 0
1, 21024, Note_on_c, 0, 79, 80
1, 21024, Note_on_c, 1, 74, 80
1, 21024, Note_on_c, 2, 58, 80
1, 21024, Note_on_c, 3, 43, 80
1, 21024, Note_on_c, 4, 31, 80
1, 21024, Note_on_c, 5, 79, 96
1, 21024, Note_on_c, 6, 43, 96
1, 21076, Note_off_c, 5, 79, 0
1, 21084, Note_on_c, 5, 82, 96
1, 21094, Note_off_c, 5, 82, 0
1, 21096, Note_on_c, 5, 81, 96
1, 21106, Note_off_c, 5, 81, 0
1, 21108, Note_off_c, 0, 79, 0
1, 21108, Note_off_c, 1, 74, 0
1, 21108, Note_off_c, 2, 58, 0
1, 21108, Note_off_c, 3, 43, 0
1, 21108, Note_off_c, 4, 31, 0
1, 21108, Note_on_c, 5, 79, 96
1, 21108, Note_off_c, 6, 43, 0
1, 21118, Note_off_c, 5, 79, 0
1, 21120, Note_on_c, 5, 78, 96
1, 21130, Note_off_c, 5, 78, 0
1, 21132, Note_on_c, 5, 75, 96
1, 21142, Note_off_c, 5, 75, 0
1, 21144, Note_on_c, 5, 74, 96
1, 21154, Note_off_c, 5, 74, 0
1, 21156, Note_on_c, 5, 72, 96
1, 21166, Note_off_c, 5, 72, 0
1, 21168, Note_on_c, 5, 70, 96
1, 21178, Note_off_c, 5, 70, 0
1, 21180, Note_on_c, 5, 72, 96
1, 21190, Note_off_c, 5, 72, 0
1, 21192, Note_on_c, 5, 74, 96
1, 21195, Note_off_c, 5, 74, 0
1, 21195, Note_on_c, 5, 72, 96
1, 21198, Note_off_c, 5, 72, 0
1, 21198, Note_on_c, 5, 74, 96
1, 21201, Note_off_c, 5, 74, 0
1, 21201, Note_on_c, 5, 72, 96
1, 21204, Note_off_c, 5, 72, 0
1, 21204, Note_on_c, 5, 74, 96
1, 21207, Note_off_c, 5, 74, 0
1, 21207, Note_on_c, 5, 72, 96
1, 21210, Note_off_c, 5, 72, 0
1, 21210, Note_on_c, 5, 70, 96
1, 21213, Note_off_c, 5, 70, 0
1, 21213, Note_on_c, 5, 72, 96
1, 21216, Note_off_c, 5, 72, 0
1, 21216, Note_on_c, 5, 74, 96
1, 21221, Note_off_c, 5, 74, 0
1, 21222, Note_on_c, 5, 70, 96
1, 21227, Note_off_c, 5, 70, 0
1, 21228, Note_on_c, 5, 67, 96
1, 21233, Note_off_c, 5, 67, 0
1, 21234, Note_on_c, 5, 66, 96
1, 21239, Note_off_c, 5, 66, 0
1, 21240, Note_on_c, 5, 67, 96
1, 21245, Note_off_c, 5, 67, 0
1, 21246, Note_on_c, 5, 62, 96
1, 21251, Note_off_c, 5, 62, 0
1, 21252, Note_on_c, 5, 58, 96
1, 21257, Note_off_c, 5, 58, 0
1, 21258, Note_on_c, 5, 60, 96
1, 21263, Note_off_c, 5, 60, 0
1, 21264, Note_on_c, 5, 62, 96
1, 21269, Note_off_c, 5, 62, 0
1, 21270, Note_on_c, 5, 60, 96
1, 21275, Note_off_c, 5, 60, 0
1, 21276, Note_on_c, 5, 58, 96
1, 21281, Note_off_c, 5, 58, 0
1, 21282, Note_on_c, 5, 60, 96
1, 21287, Note_off_c, 5, 60, 0
1, 21288, Note_on_c, 5, 62, 96
1, 21298, Note_off_c, 5, 62, 0
1, 21300, Note_on_c, 5, 58, 96
1, 21310, Note_off_c, 5, 58, 0
1, 21312, Note_on_c, 0, 67, 96
1, 21312, Note_on_c, 1, 67, 96
1, 21312, Note_on_c, 2, 67, 96
1, 21312, Note_on_c, 3, 55, 96
1, 21312, Note_on_c, 4, 43, 96
1, 21312, Note_on_c, 6, 55, 96
1, 21324, Note_on_c, 5, 58, 96
1, 21334, Note_off_c, 5, 58, 0
1, 21336, Note_on_c, 5, 62, 96
1, 21346, Note_off_c, 5, 62, 0
1, 21348, Note_on_c, 5, 67, 96
1, 21358, Note_off_c, 5, 67, 0
1, 21360, Note_off_c, 0, 67, 0
1, 21360, Note_on_c, 0, 67, 96
1, 21360, Note_off_c, 1, 67, 0
1, 21360, Note_on_c, 1, 67, 96
1, 21360, Note_off_c, 2, 67, 0
1, 21360, Note_on_c, 2, 67, 96
1, 21360, Note_off_c, 3, 55, 0
1, 21360, Note_on_c, 3, 55, 96
1, 21360, Note_off_c, 4, 43, 0
1, 21360, Note_on_c, 4, 43, 96
1, 21360, Note_on_c, 5, 70, 96
1, 21360, Note_off_c, 6, 55, 0
1, 21360, Note_on_c, 6, 55, 96
1, 21370, Note_off_c, 5, 70, 0
1, 21372, Note_on_c, 5, 74, 96
1, 21382, Note_off_c, 5, 74, 0
1, 21384, Note_on_c, 5, 79, 96
1, 21402, Note_off_c, 0, 67, 0
1, 21402, Note_off_c, 1, 67, 0
1, 21402, Note_off_c, 2, 67, 0
1, 21402, Note_off_c, 3, 55, 0
1, 21402, Note_off_c, 4, 43, 0
1, 21402, Note_off_c, 6, 55, 0
1, 21405, Note_off_c, 5, 79, 0
1, 21408, Note_on_c, 0, 70, 96
1, 21408, Note_on_c, 1, 70, 96
1, 21408, Note_on_c, 2, 70, 96
1, 21408, Note_on_c, 3, 58, 96
1, 21408, Note_on_c, 4, 46, 96
1, 21408, Note_on_c, 6, 58, 96
1, 21456, Note_off_c, 0, 70, 0
1, 21456, Note_on_c, 0, 70, 96
1, 21456, Note_off_c, 1, 70, 0
1, 21456, Note_on_c, 1, 70, 96
1, 21456, Note_off_c, 2, 70, 0
1, 21456, Note_on_c, 2, 70, 96
1, 21456, Note_off_c, 3, 58, 0
1, 21456, Note_on_c, 3, 58, 96
1, 21456, Note_off_c, 4, 46, 0
1, 21456, Note_on_c, 4, 46, 96
1, 21456, Note_off_c, 6, 58, 0
1, 21456, Note_on_c, 6, 58, 96
1, 21498, Note_off_c, 0, 70, 0
1, 21498, Note_off_c, 1, 70, 0
1, 21498, Note_off_c, 2, 70, 0
1, 21498, Note_off_c, 3, 58, 0
1, 21498, Note_off_c, 4, 46, 0
1, 21498, Note_off_c, 6, 58, 0
1, 21504, Note_on_c, 0, 74, 96
1, 21504, Note_on_c, 1, 74, 96
1, 21504, Note_on_c, 2, 74, 96
1, 21504, Note_on_c, 3, 62, 96
1, 21504, Note_on_c, 4, 50, 96
1, 21504, Note_on_c, 6, 62, 96
1, 21552, Note_off_c, 0, 74, 0
1, 21552, Note_on_c, 0, 74, 96
1, 21552, Note_off_c, 1, 74, 0
1, 21552, Note_on_c, 1, 74, 96
1, 21552, Note_off_c, 2, 74, 0
1, 21552, Note_on_c, 2, 74, 96
1, 21552, Note_off_c, 3, 62, 0
1, 21552, Note_on_c, 3, 62, 96
1, 21552, Note_off_c, 4, 50, 0
1, 21552, Note_on_c, 4, 50, 96
1, 21552, Note_off_c, 6, 62, 0
1, 21552, Note_on_c, 6, 62, 96
1, 21594, Note_off_c, 0, 74, 0
1, 21594, Note_off_c, 1, 74, 0
1, 21594, Note_off_c, 2, 74, 0
1, 21594, Note_off_c, 3, 62, 0
1, 21594, Note_off_c, 4, 50, 0
1, 21594, Note_off_c, 6, 62, 0
1, 21600, Note_on_c, 0, 63, 96
1, 21600, Note_on_c, 1, 63, 96
1, 21600, Note_on_c, 2, 63, 96
1, 21600, Note_on_c, 3, 51, 96
1, 21600, Note_on_c, 4, 39, 96
1, 21600, Note_on_c, 6, 51, 96
1, 21648, Note_off_c, 0, 63, 0
1, 21648, Note_on_c, 0, 62, 96
1, 21648, Note_off_c, 1, 63, 0
1, 21648, Note_on_c, 1, 62, 96
1, 21648, Note_off_c, 2, 63, 0
1, 21648, Note_on_c, 2, 62, 96
1, 21648, Note_off_c, 3, 51, 0
1, 21648, Note_on_c, 3, 50, 96
1, 21648, Note_off_c, 4, 39, 0
1, 21648, Note_on_c, 4, 38, 96
1, 21648, Note_off_c, 6, 51, 0
1, 21648, Note_on_c, 6, 50, 96
1, 21690, Note_off_c, 0, 62, 0
1, 21690, Note_off_c, 1, 62, 0
1, 21690, Note_off_c, 2, 62, 0
1, 21690, Note_off_c, 3, 50, 0
1, 21690, Note_off_c, 4, 38, 0
1, 21690, Note_off_c, 6, 50, 0
1, 21696, Note_on_c, 0, 62, 96
1, 21696, Note_on_c, 1, 62, 96
1, 21696, Note_on_c, 2, 62, 96
1, 21696, Note_on_c, 3, 50, 96
1, 21696, Note_on_c, 4, 38, 96
1, 21696, Note_on_c, 6, 50, 96
1, 21744, Note_off_c, 0, 62, 0
1, 21744, Note_on_c, 0, 63, 96
1, 21744, Note_off_c, 1, 62, 0
1, 21744, Note_on_c, 1, 63, 96
1, 21744, Note_off_c, 2, 62, 0
1, 21744, Note_on_c, 2, 63, 96
1, 21744, Note_off_c, 3, 50, 0
1, 21744, Note_on_c, 3, 51, 96
1, 21744, Note_off_c, 4, 38, 0
1, 21744, Note_on_c, 4, 39, 96
1, 21744, Note_off_c, 6, 50, 0
1, 21744, Note_on_c, 6, 51, 96
1, 21786, Note_off_c, 0, 63, 0
1, 21786, Note_off_c, 1, 63, 0
1, 21786, Note_off_c, 2, 63, 0
1, 21786, Note_off_c, 3, 51, 0
1, 21786, Note_off_c, 4, 39, 0
1, 21786, Note_off_c, 6, 51, 0
1, 21888, Note_on_c, 0, 69, 96
1, 21888, Note_on_c, 1, 69, 96
1, 21888, Note_on_c, 2, 69, 96
1, 21888, Note_on_c, 3, 57, 96
1, 21888, Note_on_c, 4, 45, 96
1, 21888, Note_on_c, 6, 57, 96
1, 21936, Note_off_c, 0, 69, 0
1, 21936, Note_on_c, 0, 69, 96
1, 21936, Note_off_c, 1, 69, 0
1, 21936, Note_on_c, 1, 69, 96
1, 21936, Note_off_c, 2, 69, 0
1, 21936, Note_on_c, 2, 69, 96
1, 21936, Note_off_c, 3, 57, 0
1, 21936, Note_on_c, 3, 57, 96
1, 21936, Note_off_c, 4, 45, 0
1, 21936, Note_on_c, 4, 45, 96
1, 21936, Note_off_c, 6, 57, 0
1, 21936, Note_on_c, 6, 57, 96
1, 21978, Note_off_c, 0, 69, 0
1, 21978, Note_off_c, 1, 69, 0
1, 21978, Note_off_c, 2, 69, 0
1, 21978, Note_off_c, 3, 57, 0
1, 21978, Note_off_c, 4, 45, 0
1, 21978, Note_off_c, 6, 57, 0
1, 21984, Note_on_c, 0, 72, 96
1, 21984, Note_on_c, 1, 72, 96
1, 21984, Note_on_c, 2, 72, 96
1, 21984, Note_on_c, 3, 60, 96
1, 21984, Note_on_c, 4, 48, 96
1, 21984, Note_on_c, 6, 60, 96
1, 22032, Note_off_c, 0, 72, 0
1, 22032, Note_on_c, 0, 72, 96
1, 22032, Note_off_c, 1, 72, 0
1, 22032, Note_on_c, 1, 72, 96
1, 22032, Note_off_c, 2, 72, 0
1, 22032, Note_on_c, 2, 72, 96
1, 22032, Note_off_c, 3, 60, 0
1, 22032, Note_on_c, 3, 60, 96
1, 22032, Note_off_c, 4, 48, 0
1, 22032, Note_on_c, 4, 48, 96
1, 22032, Note_off_c, 6, 60, 0
1, 22032, Note_on_c, 6, 60, 96
1, 22074, Note_off_c, 0, 72, 0
1, 22074, Note_off_c, 1, 72, 0
1, 22074, Note_off_c, 2, 72, 0
1, 22074, Note_off_c, 3, 60, 0
1, 22074, Note_off_c, 4, 48, 0
1, 22074, Note_off_c, 6, 60, 0
1, 22080, Note_on_c, 0, 75, 96
1, 22080, Note_on_c, 1, 75, 96
1, 22080, Note_on_c, 2, 75, 96
1, 22080, Note_on_c, 3, 63, 96
1, 22080, Note_on_c, 4, 51, 96
1, 22080, Note_on_c, 6, 63, 96
1, 22128, Note_off_c, 0, 75, 0
1, 22128, Note_on_c, 0, 75, 96
1, 22128, Note_off_c, 1, 75, 0
1, 22128, Note_on_c, 1, 75, 96
1, 22128, Note_off_c, 2, 75, 0
1, 22128, Note_on_c, 2, 75, 96
1, 22128, Note_off_c, 3, 63, 0
1, 22128, Note_on_c, 3, 63, 96
1, 22128, Note_off_c, 4, 51, 0
1, 22128, Note_on_c, 4, 51, 96
1, 22128, Note_off_c, 6, 63, 0
1, 22128, Note_on_c, 6, 63, 96
1, 22170, Note_off_c, 0, 75, 0
1, 22170, Note_off_c, 1, 75, 0
1, 22170, Note_off_c, 2, 75, 0
1, 22170, Note_off_c, 3, 63, 0
1, 22170, Note_off_c, 4, 51, 0
1, 22170, Note_off_c, 6, 63, 0
1, 22176, Note_on_c, 0, 66, 96
1, 22176, Note_on_c, 1, 66, 96
1, 22176, Note_on_c, 2, 66, 96
1, 22176, Note_on_c, 3, 54, 96
1, 22176, Note_on_c, 4, 42, 96
1, 22176, Note_on_c, 6, 54, 96
1, 22224, Note_off_c, 0, 66, 0
1, 22224, Note_on_c, 0, 66, 96
1, 22224, Note_off_c, 1, 66, 0
1, 22224, Note_on_c, 1, 66, 96
1, 22224, Note_off_c, 2, 66, 0
1, 22224, Note_on_c, 2, 66, 96
1, 22224, Note_off_c, 3, 54, 0
1, 22224, Note_on_c, 3, 54, 96
1, 22224, Note_off_c, 4, 42, 0
1, 22224, Note_on_c, 4, 42, 96
1, 22224, Note_off_c, 6, 54, 0
1, 22224, Note_on_c, 6, 54, 96
1, 22266, Note_off_c, 0, 66, 0
1, 22266, Note_off_c, 1, 66, 0
1, 22266, Note_off_c, 2, 66, 0
1, 22266, Note_off_c, 3, 54, 0
1, 22266, Note_off_c, 4, 42, 0
1, 22266, Note_off_c, 6, 54, 0
1, 22272, Note_on_c, 0, 69, 96
1, 22272, Note_on_c, 1, 69, 96
1, 22272, Note_on_c, 2, 69, 96
1, 22272, Note_on_c, 3, 57, 96
1, 22272, Note_on_c, 4, 45, 96
1, 22272, Note_on_c, 6, 57, 96
1, 22320, Note_off_c, 0, 69, 0
1, 22320, Note_on_c, 0, 69, 96
1, 22320, Note_off_c, 1, 69, 0
1, 22320, Note_on_c, 1, 69, 96
1, 22320, Note_off_c, 2, 69, 0
1, 22320, Note_on_c, 2, 69, 96
1, 22320, Note_off_c, 3, 57, 0
1, 22320, Note_on_c, 3, 57, 96
1, 22320, Note_off_c, 4, 45, 0
1, 22320, Note_on_c, 4, 45, 96
1, 22320, Note_off_c, 6, 57, 0
1, 22320, Note_on_c, 6, 57, 96
1, 22362, Note_off_c, 0, 69, 0
1, 22362, Note_off_c, 1, 69, 0
1, 22362, Note_off_c, 2, 69, 0
1, 22362, Note_off_c, 3, 57, 0
1, 22362, Note_off_c, 4, 45, 0
1, 22362, Note_off_c, 6, 57, 0
1, 22368, Note_on_c, 0, 72, 96
1, 22368, Note_on_c, 1, 72, 96
1, 22368, Note_on_c, 2, 72, 96
1, 22368, Note_on_c, 3, 60, 96
1, 22368, Note_on_c, 4, 48, 96
1, 22368, Note_on_c, 6, 60, 96
1, 22416, Note_off_c, 0, 72, 0
1, 22416, Note_on_c, 0, 72, 96
1, 22416, Note_off_c, 1, 72, 0
1, 22416, Note_on_c, 1, 72, 96
1, 22416, Note_off_c, 2, 72, 0
1, 22416, Note_on_c, 2, 72, 96
1, 22416, Note_off_c, 3, 60, 0
1, 22416, Note_on_c, 3, 60, 96
1, 22416, Note_off_c, 4, 48, 0
1, 22416, Note_on_c, 4, 48, 96
1, 22416, Note_off_c, 6, 60, 0
1, 22416, Note_on_c, 6, 60, 96
1, 22458, Note_off_c, 0, 72, 0
1, 22458, Note_off_c, 1, 72, 0
1, 22458, Note_off_c, 2, 72, 0
1, 22458, Note_off_c, 3, 60, 0
1, 22458, Note_off_c, 4, 48, 0
1, 22458, Note_off_c, 6, 60, 0
1, 22464, Note_on_c, 0, 62, 96
1, 22464, Note_on_c, 1, 62, 96
1, 22464, Note_on_c, 2, 62, 96
1, 22464, Note_on_c, 3, 50, 96
1, 22464, Note_on_c, 4, 38, 96
1, 22464, Note_on_c, 6, 50, 96
1, 22512, Note_off_c, 0, 62, 0
1, 22512, Note_on_c, 0, 62, 96
1, 22512, Note_off_c, 1, 62, 0
1, 22512, Note_on_c, 1, 62, 96
1, 22512, Note_off_c, 2, 62, 0
1, 22512, Note_on_c, 2, 62, 96
1, 22512, Note_off_c, 3, 50, 0
1, 22512, Note_on_c, 3, 50, 96
1, 22512, Note_off_c, 4, 38, 0
1, 22512, Note_on_c, 4, 38, 96
1, 22512, Note_off_c, 6, 50, 0
1, 22512, Note_on_c, 6, 50, 96
1, 22554, Note_off_c, 0, 62, 0
1, 22554, Note_off_c, 1, 62, 0
1, 22554, Note_off_c, 2, 62, 0
1, 22554, Note_off_c, 3, 50, 0
1, 22554, Note_off_c, 4, 38, 0
1, 22554, Note_off_c, 6, 50, 0
1, 22560, Note_on_c, 0, 66, 96
1, 22560, Note_on_c, 1, 66, 96
1, 22560, Note_on_c, 2, 66, 96
1, 22560, Note_on_c, 3, 54, 96
1, 22560, Note_on_c, 4, 42, 96
1, 22560, Note_on_c, 6, 54, 96
1, 22608, Note_off_c, 0, 66, 0
1, 22608, Note_on_c, 0, 66, 96
1, 22608, Note_off_c, 1, 66, 0
1, 22608, Note_on_c, 1, 66, 96
1, 22608, Note_off_c, 2, 66, 0
1, 22608, Note_on_c, 2, 66, 96
1, 22608, Note_off_c, 3, 54, 0
1, 22608, Note_on_c, 3, 54, 96
1, 22608, Note_off_c, 4, 42, 0
1, 22608, Note_on_c, 4, 42, 96
1, 22608, Note_off_c, 6, 54, 0
1, 22608, Note_on_c, 6, 54, 96
1, 22650, Note_off_c, 0, 66, 0
1, 22650, Note_off_c, 1, 66, 0
1, 22650, Note_off_c, 2, 66, 0
1, 22650, Note_off_c, 3, 54, 0
1, 22650, Note_off_c, 4, 42, 0
1, 22650, Note_off_c, 6, 54, 0
1, 22656, Note_on_c, 0, 69, 96
1, 22656, Note_on_c, 1, 69, 96
1, 22656, Note_on_c, 2, 69, 96
1, 22656, Note_on_c, 3, 57, 96
1, 22656, Note_on_c, 4, 45, 96
1, 22656, Note_on_c, 6, 57, 96
1, 22704, Note_off_c, 0, 69, 0
1, 22704, Note_on_c, 0, 69, 96
1, 22704, Note_off_c, 1, 69, 0
1, 22704, Note_on_c, 1, 69, 96
1, 22704, Note_off_c, 2, 69, 0
1, 22704, Note_on_c, 2, 69, 96
1, 22704, Note_off_c, 3, 57, 0
1, 22704, Note_on_c, 3, 57, 96
1, 22704, Note_off_c, 4, 45, 0
1, 22704, Note_on_c, 4, 45, 96
1, 22704, Note_off_c, 6, 57, 0
1, 22704, Note_on_c, 6, 57, 96
1, 22746, Note_off_c, 0, 69, 0
1, 22746, Note_off_c, 1, 69, 0
1, 22746, Note_off_c, 2, 69, 0
1, 22746, Note_off_c, 3, 57, 0
1, 22746, Note_off_c, 4, 45, 0
1, 22746, Note_off_c, 6, 57, 0
1, 22752, Note_on_c, 0, 58, 96
1, 22752, Note_on_c, 1, 58, 96
1, 22752, Note_on_c, 2, 58, 96
1, 22752, Note_on_c, 3, 46, 96
1, 22752, Note_on_c, 4, 34, 96
1, 22752, Note_on_c, 6, 46, 96
1, 22800, Note_off_c, 0, 58, 0
1, 22800, Note_on_c, 0, 57, 96
1, 22800, Note_off_c, 1, 58, 0
1, 22800, Note_on_c, 1, 57, 96
1, 22800, Note_off_c, 2, 58, 0
1, 22800, Note_on_c, 2, 57, 96
1, 22800, Note_off_c, 3, 46, 0
1, 22800, Note_on_c, 3, 45, 96
1, 22800, Note_off_c, 4, 34, 0
1, 22800, Note_on_c, 4, 33, 96
1, 22800, Note_off_c, 6, 46, 0
1, 22800, Note_on_c, 6, 45, 96
1, 22848, Note_off_c, 0, 57, 0
1, 22848, Note_on_c, 0, 58, 96
1, 22848, Note_off_c, 1, 57, 0
1, 22848, Note_on_c, 1, 58, 96
1, 22848, Note_off_c, 2, 57, 0
1, 22848, Note_on_c, 2, 58, 96
1, 22848, Note_off_c, 3, 45, 0
1, 22848, Note_on_c, 3, 46, 96
1, 22848, Note_off_c, 4, 33, 0
1, 22848, Note_on_c, 4, 34, 96
1, 22848, Note_off_c, 6, 45, 0
1, 22848, Note_on_c, 6, 46, 96
1, 22890, Note_off_c, 0, 58, 0
1, 22890, Note_off_c, 1, 58, 0
1, 22890, Note_off_c, 2, 58, 0
1, 22890, Note_off_c, 3, 46, 0
1, 22890, Note_off_c, 4, 34, 0
1, 22890, Note_off_c, 6, 46, 0
1, 22896, Note_on_c, 0, 70, 96
1, 22896, Note_on_c, 1, 70, 96
1, 22896, Note_on_c, 2, 70, 96
1, 22896, Note_on_c, 3, 58, 96
1, 22896, Note_on_c, 4, 46, 96
1, 22896, Note_on_c, 6, 58, 96
1, 22908, Note_off_c, 6, 58, 0
1, 22938, Note_off_c, 0, 70, 0
1, 22938, Note_off_c, 1, 70, 0
1, 22938, Note_off_c, 2, 70, 0
1, 22938, Note_off_c, 3, 58, 0
1, 22938, Note_off_c, 4, 46, 0
1, 22944, Note_on_c, 0, 66, 96
1, 22944, Note_on_c, 1, 66, 96
1, 22944, Note_on_c, 2, 66, 96
1, 22944, Note_on_c, 3, 54, 96
1, 22944, Note_on_c, 4, 42, 96
1, 22944, Note_on_c, 6, 54, 96
1, 22986, Note_off_c, 0, 66, 0
1, 22986, Note_off_c, 1, 66, 0
1, 22986, Note_off_c, 2, 66, 0
1, 22986, Note_off_c, 3, 54, 0
1, 22986, Note_off_c, 4, 42, 0
1, 22986, Note_off_c, 6, 54, 0
1, 22992, Note_on_c, 0, 67, 96
1, 22992, Note_on_c, 1, 67, 96
1, 22992, Note_on_c, 2, 67, 96
1, 22992, Note_on_c, 3, 55, 96
1, 22992, Note_on_c, 4, 43, 96
1, 22992, Note_on_c, 6, 55, 96
1, 23034, Note_off_c, 0, 67, 0
1, 23034, Note_off_c, 1, 67, 0
1, 23034, Note_off_c, 2, 67, 0
1, 23034, Note_off_c, 3, 55, 0
1, 23034, Note_off_c, 4, 43, 0
1, 23034, Note_off_c, 6, 55, 0
1, 23040, Note_on_c, 0, 60, 96
1, 23040, Note_on_c, 1, 60, 96
1, 23040, Note_on_c, 2, 60, 96
1, 23040, Note_on_c, 3, 48, 96
1, 23040, Note_on_c, 4, 36, 96
1, 23040, Note_on_c, 6, 48, 96
1, 23088, Note_off_c, 0, 60, 0
1, 23088, Note_on_c, 0, 58, 96
1, 23088, Note_off_c, 1, 60, 0
1, 23088, Note_on_c, 1, 58, 96
1, 23088, Note_off_c, 2, 60, 0
1, 23088, Note_on_c, 2, 58, 96
1, 23088, Note_off_c, 3, 48, 0
1, 23088, Note_on_c, 3, 46, 96
1, 23088, Note_off_c, 4, 36, 0
1, 23088, Note_on_c, 4, 34, 96
1, 23088, Note_off_c, 6, 48, 0
1, 23088, Note_on_c, 6, 46, 96
1, 23136, Note_off_c, 0, 58, 0
1, 23136, Note_on_c, 0, 60, 96
1, 23136, Note_off_c, 1, 58, 0
1, 23136, Note_on_c, 1, 60, 96
1, 23136, Note_off_c, 2, 58, 0
1, 23136, Note_on_c, 2, 60, 96
1, 23136, Note_off_c, 3, 46, 0
1, 23136, Note_on_c, 3, 48, 96
1, 23136, Note_off_c, 4, 34, 0
1, 23136, Note_on_c, 4, 36, 96
1, 23136, Note_off_c, 6, 46, 0
1, 23136, Note_on_c, 6, 48, 96
1, 23178, Note_off_c, 0, 60, 0
1, 23178, Note_off_c, 1, 60, 0
1, 23178, Note_off_c, 2, 60, 0
1, 23178, Note_off_c, 3, 48, 0
1, 23178, Note_off_c, 4, 36, 0
1, 23178, Note_off_c, 6, 48, 0
1, 23184, Note_on_c, 0, 70, 96
1, 23184, Note_on_c, 1, 70, 96
1, 23184, Note_on_c, 2, 70, 96
1, 23184, Note_on_c, 3, 58, 96
1, 23184, Note_on_c, 4, 46, 96
1, 23184, Note_on_c, 6, 58, 96
1, 23196, Note_off_c, 6, 58, 0
1, 23226, Note_off_c, 0, 70, 0
1, 23226, Note_off_c, 1, 70, 0
1, 23226, Note_off_c, 2, 70, 0
1, 23226, Note_off_c, 3, 58, 0
1, 23226, Note_off_c, 4, 46, 0
1, 23232, Note_on_c, 0, 66, 96
1, 23232, Note_on_c, 1, 66, 96
1, 23232, Note_on_c, 2, 66, 96
1, 23232, Note_on_c, 3, 54, 96
1, 23232, Note_on_c, 4, 42, 96
1, 23232, Note_on_c, 6, 54, 96
1, 23274, Note_off_c, 0, 66, 0
1, 23274, Note_off_c, 1, 66, 0
1, 23274, Note_off_c, 2, 66, 0
1, 23274, Note_off_c, 3, 54, 0
1, 23274, Note_off_c, 4, 42, 0
1, 23274, Note_off_c, 6, 54, 0
1, 23280, Note_on_c, 0, 67, 96
1, 23280, Note_on_c, 1, 67, 96
1, 23280, Note_on_c, 2, 67, 96
1, 23280, Note_on_c, 3, 55, 96
1, 23280, Note_on_c, 4, 43, 96
1, 23280, Note_on_c, 6, 55, 96
1, 23322, Note_off_c, 0, 67, 0
1, 23322, Note_off_c, 1, 67, 0
1, 23322, Note_off_c, 2, 67, 0
1, 23322, Note_off_c, 3, 55, 0
1, 23322, Note_off_c, 4, 43, 0
1, 23322, Note_off_c, 6, 55, 0
1, 23328, Note_on_c, 0, 62, 96
1, 23328, Note_on_c, 1, 62, 96
1, 23328, Note_on_c, 2, 62, 96
1, 23328, Note_on_c, 3, 50, 96
1, 23328, Note_on_c, 4, 38, 96
1, 23328, Note_on_c, 6, 50, 96
1, 23376, Note_off_c, 0, 62, 0
1, 23376, Note_on_c, 0, 60, 96
1, 23376, Note_off_c, 1, 62, 0
1, 23376, Note_on_c, 1, 60, 96
1, 23376, Note_off_c, 2, 62, 0
1, 23376, Note_on_c, 2, 60, 96
1, 23376, Note_off_c, 3, 50, 0
1, 23376, Note_on_c, 3, 48, 96
1, 23376, Note_off_c, 4, 38, 0
1, 23376, Note_on_c, 4, 36, 96
1, 23376, Note_off_c, 6, 50, 0
1, 23376, Note_on_c, 6, 48, 96
1, 23424, Note_off_c, 0, 60, 0
1, 23424, Note_on_c, 0, 62, 96
1, 23424, Note_off_c, 1, 60, 0
1, 23424, Note_on_c, 1, 62, 96
1, 23424, Note_off_c, 2, 60, 0
1, 23424, Note_on_c, 2, 62, 96
1, 23424, Note_off_c, 3, 48, 0
1, 23424, Note_on_c, 3, 50, 96
1, 23424, Note_off_c, 4, 36, 0
1, 23424, Note_on_c, 4, 38, 96
1, 23424, Note_off_c, 6, 48, 0
1, 23424, Note_on_c, 6, 50, 96
1, 23466, Note_off_c, 0, 62, 0
1, 23466, Note_off_c, 1, 62, 0
1, 23466, Note_off_c, 2, 62, 0
1, 23466, Note_off_c, 3, 50, 0
1, 23466, Note_off_c, 4, 38, 0
1, 23466, Note_off_c, 6, 50, 0
1, 23472, Note_on_c, 0, 70, 96
1, 23472, Note_on_c, 1, 70, 96
1, 23472, Note_on_c, 2, 70, 96
1, 23472, Note_on_c, 3, 58, 96
1, 23472, Note_on_c, 4, 46, 96
1, 23472, Note_on_c, 6, 58, 96
1, 23484, Note_off_c, 6, 58, 0
1, 23514, Note_off_c, 0, 70, 0
1, 23514, Note_off_c, 1, 70, 0
1, 23514, Note_off_c, 2, 70, 0
1, 23514, Note_off_c, 3, 58, 0
1, 23514, Note_off_c, 4, 46, 0
1, 23520, Note_on_c, 0, 66, 96
1, 23520, Note_on_c, 1, 66, 96
1, 23520, Note_on_c, 2, 66, 96
1, 23520, Note_on_c, 3, 54, 96
1, 23520, Note_on_c, 4, 42, 96
1, 23520, Note_on_c, 6, 54, 96
1, 23562, Note_off_c, 0, 66, 0
1, 23562, Note_off_c, 1, 66, 0
1, 23562, Note_off_c, 2, 66, 0
1, 23562, Note_off_c, 3, 54, 0
1, 23562, Note_off_c, 4, 42, 0
1, 23562, Note_off_c, 6, 54, 0
1, 23568, Note_on_c, 0, 67, 96
1, 23568, Note_on_c, 1, 67, 96
1, 23568, Note_on_c, 2, 67, 96
1, 23568, Note_on_c, 3, 55, 96
1, 23568, Note_on_c, 4, 43, 96
1, 23568, Note_on_c, 6, 55, 96
1, 23610, Note_off_c, 0, 67, 0
1, 23610, Note_off_c, 1, 67, 0
1, 23610, Note_off_c, 2, 67, 0
1, 23610, Note_off_c, 3, 55, 0
1, 23610, Note_off_c, 4, 43, 0
1, 23610, Note_off_c, 6, 55, 0
1, 23616, Note_on_c, 0, 63, 96
1, 23616, Note_on_c, 1, 63, 96
1, 23616, Note_on_c, 2, 63, 96
1, 23616, Note_on_c, 3, 51, 96
1, 23616, Note_on_c, 4, 39, 96
1, 23616, Note_on_c, 6, 51, 96
1, 23700, Note_off_c, 0, 63, 0
1, 23700, Note_off_c, 1, 63, 0
1, 23700, Note_off_c, 2, 63, 0
1, 23700, Note_off_c, 3, 51, 0
1, 23700, Note_off_c, 4, 39, 0
1, 23700, Note_off_c, 6, 51, 0
1, 23760, Note_on_c, 0, 67, 96
1, 23760, Note_on_c, 1, 67, 96
1, 23760, Note_on_c, 2, 67, 96
1, 23760, Note_on_c, 3, 55, 96
1, 23760, Note_on_c, 4, 43, 96
1, 23760, Note_on_c, 6, 55, 96
1, 23802, Note_off_c, 0, 67, 0
1, 23802, Note_off_c, 1, 67, 0
1, 23802, Note_off_c, 2, 67, 0
1, 23802, Note_off_c, 3, 55, 0
1, 23802, Note_off_c, 4, 43, 0
1, 23808, Note_on_c, 0, 68, 96
1, 23808, Note_on_c, 1, 68, 96
1, 23808, Note_on_c, 2, 68, 96
1, 23808, Note_on_c, 3, 56, 96
1, 23808, Note_on_c, 4, 44, 96
1, 23808, Note_off_c, 6, 55, 0
1, 23808, Note_on_c, 6, 56, 96
1, 23850, Note_off_c, 0, 68, 0
1, 23850, Note_off_c, 1, 68, 0
1, 23850, Note_off_c, 2, 68, 0
1, 23850, Note_off_c, 3, 56, 0
1, 23850, Note_off_c, 4, 44, 0
1, 23856, Note_on_c, 0, 65, 96
1, 23856, Note_on_c, 1, 65, 96
1, 23856, Note_on_c, 2, 65, 96
1, 23856, Note_on_c, 3, 53, 96
1, 23856, Note_on_c, 4, 41, 96
1, 23856, Note_off_c, 6, 56, 0
1, 23856, Note_on_c, 6, 53, 96
1, 23898, Note_off_c, 0, 65, 0
1, 23898, Note_off_c, 1, 65, 0
1, 23898, Note_off_c, 2, 65, 0
1, 23898, Note_off_c, 3, 53, 0
1, 23898, Note_off_c, 4, 41, 0
1, 23898, Note_off_c, 6, 53, 0
1, 23904, Note_on_c, 0, 59, 96
1, 23904, Note_on_c, 1, 59, 96
1, 23904, Note_on_c, 2, 59, 96
1, 23904, Note_on_c, 3, 47, 96
1, 23904, Note_on_c, 4, 35, 96
1, 23904, Note_on_c, 6, 47, 96
1, 23952, Note_off_c, 0, 59, 0
1, 23952, Note_on_c, 0, 59, 96
1, 23952, Note_off_c, 1, 59, 0
1, 23952, Note_on_c, 1, 59, 96
1, 23952, Note_off_c, 2, 59, 0
1, 23952, Note_on_c, 2, 59, 96
1, 23952, Note_off_c, 3, 47, 0
1, 23952, Note_on_c, 3, 47, 96
1, 23952, Note_off_c, 4, 35, 0
1, 23952, Note_on_c, 4, 35, 96
1, 23952, Note_off_c, 6, 47, 0
1, 23952, Note_on_c, 6, 47, 96
1, 23994, Note_off_c, 0, 59, 0
1, 23994, Note_off_c, 1, 59, 0
1, 23994, Note_off_c, 2, 59, 0
1, 23994, Note_off_c, 3, 47, 0
1, 23994, Note_off_c, 4, 35, 0
1, 23994, Note_off_c, 6, 47, 0
1, 24000, Note_on_c, 0, 62, 96
1, 24000, Note_on_c, 1, 62, 96
1, 24000, Note_on_c, 2, 62, 96
1, 24000, Note_on_c, 3, 50, 96
1, 24000, Note_on_c, 4, 38, 96
1, 24000, Note_on_c, 6, 50, 96
1, 24048, Note_off_c, 0, 62, 0
1, 24048, Note_on_c, 0, 62, 96
1, 24048, Note_off_c, 1, 62, 0
1, 24048, Note_on_c, 1, 62, 96
1, 24048, Note_off_c, 2, 62, 0
1, 24048, Note_on_c, 2, 62, 96
1, 24048, Note_off_c, 3, 50, 0
1, 24048, Note_on_c, 3, 50, 96
1, 24048, Note_off_c, 4, 38, 0
1, 24048, Note_on_c, 4, 38, 96
1, 24048, Note_off_c, 6, 50, 0
1, 24048, Note_on_c, 6, 50, 96
1, 24090, Note_off_c, 0, 62, 0
1, 24090, Note_off_c, 1, 62, 0
1, 24090, Note_off_c, 2, 62, 0
1, 24090, Note_off_c, 3, 50, 0
1, 24090, Note_off_c, 4, 38, 0
1, 24090, Note_off_c, 6, 50, 0
1, 24096, Note_on_c, 0, 65, 96
1, 24096, Note_on_c, 1, 65, 96
1, 24096, Note_on_c, 2, 65, 96
1, 24096, Note_on_c, 3, 53, 96
1, 24096, Note_on_c, 4, 41, 96
1, 24096, Note_on_c, 6, 53, 96
1, 24144, Note_off_c, 0, 65, 0
1, 24144, Note_on_c, 0, 65, 96
1, 24144, Note_off_c, 1, 65, 0
1, 24144, Note_on_c, 1, 65, 96
1, 24144, Note_off_c, 2, 65, 0
1, 24144, Note_on_c, 2, 65, 96
1, 24144, Note_off_c, 3, 53, 0
1, 24144, Note_on_c, 3, 53, 96
1, 24144, Note_off_c, 4, 41, 0
1, 24144, Note_on_c, 4, 41, 96
1, 24144, Note_off_c, 6, 53, 0
1, 24144, Note_on_c, 6, 53, 96
1, 24186, Note_off_c, 0, 65, 0
1, 24186, Note_off_c, 1, 65, 0
1, 24186, Note_off_c, 2, 65, 0
1, 24186, Note_off_c, 3, 53, 0
1, 24186, Note_off_c, 4, 41, 0
1, 24186, Note_off_c, 6, 53, 0
1, 24192, Note_on_c, 0, 56, 96
1, 24192, Note_on_c, 1, 56, 96
1, 24192, Note_on_c, 2, 56, 96
1, 24192, Note_on_c, 3, 44, 96
1, 24192, Note_on_c, 4, 32, 96
1, 24192, Note_on_c, 6, 44, 96
1, 24276, Note_off_c, 0, 56, 0
1, 24276, Note_off_c, 1, 56, 0
1, 24276, Note_off_c, 2, 56, 0
1, 24276, Note_off_c, 3, 44, 0
1, 24276, Note_off_c, 4, 32, 0
1, 24276, Note_off_c, 6, 44, 0
1, 24336, Note_on_c, 0, 62, 96
1, 24336, Note_on_c, 1, 62, 96
1, 24336, Note_on_c, 2, 62, 96
1, 24336, Note_on_c, 3, 50, 96
1, 24336, Note_on_c, 4, 38, 96
1, 24336, Note_on_c, 6, 50, 96
1, 24378, Note_off_c, 0, 62, 0
1, 24378, Note_off_c, 1, 62, 0
1, 24378, Note_off_c, 2, 62, 0
1, 24378, Note_off_c, 3, 50, 0
1, 24378, Note_off_c, 4, 38, 0
1, 24378, Note_off_c, 6, 50, 0
1, 24384, Note_on_c, 0, 63, 96
1, 24384, Note_on_c, 1, 63, 96
1, 24384, Note_on_c, 2, 63, 96
1, 24384, Note_on_c, 3, 51, 96
1, 24384, Note_on_c, 4, 39, 96
1, 24384, Note_on_c, 6, 51, 96
1, 24426, Note_off_c, 0, 63, 0
1, 24426, Note_off_c, 1, 63, 0
1, 24426, Note_off_c, 2, 63, 0
1, 24426, Note_off_c, 3, 51, 0
1, 24426, Note_off_c, 4, 39, 0
1, 24426, Note_off_c, 6, 51, 0
1, 24432, Note_on_c, 0, 60, 96
1, 24432, Note_on_c, 1, 60, 96
1, 24432, Note_on_c, 2, 60, 96
1, 24432, Note_on_c, 3, 48, 96
1, 24432, Note_on_c, 4, 36, 96
1, 24432, Note_on_c, 6, 48, 96
1, 24474, Note_off_c, 0, 60, 0
1, 24474, Note_off_c, 1, 60, 0
1, 24474, Note_off_c, 2, 60, 0
1, 24474, Note_off_c, 3, 48, 0
1, 24474, Note_off_c, 4, 36, 0
1, 24474, Note_off_c, 6, 48, 0
1, 24480, Note_on_c, 0, 66, 96
1, 24480, Note_on_c, 1, 66, 96
1, 24480, Note_on_c, 2, 66, 96
1, 24480, Note_on_c, 3, 54, 96
1, 24480, Note_on_c, 4, 42, 96
1, 24480, Note_on_c, 6, 54, 96
1, 24522, Note_off_c, 0, 66, 0
1, 24522, Note_off_c, 1, 66, 0
1, 24522, Note_off_c, 2, 66, 0
1, 24522, Note_off_c, 3, 54, 0
1, 24522, Note_off_c, 4, 42, 0
1, 24522, Note_off_c, 6, 54, 0
1, 24528, Note_on_c, 0, 67, 96
1, 24528, Note_on_c, 1, 67, 96
1, 24528, Note_on_c, 2, 67, 96
1, 24528, Note_on_c, 3, 55, 96
1, 24528, Note_on_c, 4, 43, 96
1, 24528, Note_on_c, 6, 55, 96
1, 24570, Note_off_c, 0, 67, 0
1, 24570, Note_off_c, 1, 67, 0
1, 24570, Note_off_c, 2, 67, 0
1, 24570, Note_off_c, 3, 55, 0
1, 24570, Note_off_c, 4, 43, 0
1, 24570, Note_off_c, 6, 55, 0
1, 24576, Note_on_c, 0, 62, 96
1, 24576, Note_on_c, 1, 62, 96
1, 24576, Note_on_c, 2, 62, 96
1, 24576, Note_on_c, 3, 50, 96
1, 24576, Note_on_c, 4, 38, 96
1, 24576, Note_on_c, 6, 50, 96
1, 24660, Note_off_c, 0, 62, 0
1, 24660, Note_off_c, 1, 62, 0
1, 24660, Note_off_c, 2, 62, 0
1, 24660, Note_off_c, 3, 50, 0
1, 24660, Note_off_c, 4, 38, 0
1, 24660, Note_off_c, 6, 50, 0
1, 24672, Note_on_c, 0, 62, 96
1, 24672, Note_on_c, 1, 62, 96
1, 24672, Note_on_c, 2, 50, 96
1, 24672, Note_on_c, 3, 38, 96
1, 24672, Note_on_c, 4, 26, 96
1, 24672, Note_on_c, 6, 38, 96
1, 24756, Note_off_c, 0, 62, 0
1, 24756, Note_off_c, 1, 62, 0
1, 24756, Note_off_c, 2, 50, 0
1, 24756, Note_off_c, 3, 38, 0
1, 24756, Note_off_c, 4, 26, 0
1, 24756, Note_off_c, 6, 38, 0
1, 24768, Note_on_c, 0, 55, 96
1, 24768, Note_on_c, 1, 55, 96
1, 24768, Note_on_c, 2, 55, 96
1, 24768, Note_on_c, 3, 43, 96
1, 24768, Note_on_c, 4, 31, 96
1, 24768, Note_on_c, 6, 43, 96
1, 24864, Note_off_c, 0, 55, 0
1, 24864, Note_off_c, 1, 55, 0
1, 24864, Note_off_c, 2, 55, 0
1, 24864, Note_off_c, 3, 43, 0
1, 24864, Note_off_c, 4, 31, 0
1, 24864, Note_off_c, 6, 43, 0
1, 25056, End_track
0, 0, End_of_file
