0, 0, Header, 1, 4, 240
1, 0, Start_track
1, 0, Title_t, "untitled"
1, 0, Time_signature, 12, 4, 6, 8
1, 0, Key_signature, 0, "major"
1, 0, Tempo, 681818
1, 20940, Tempo, 697674
1, 21000, Tempo, 731707
1, 21060, Tempo, 750000
1, 21120, Tempo, 800000
1, 21180, Tempo, 845070
1, 21240, Tempo, 895522
1, 21300, Tempo, 1000000
1, 21360, Tempo, 1200000
1, 21420, Tempo, 1304348
1, 21420, End_track
2, 0, Start_track
2, 0, Title_t, "RH B"
2, 0, Program_c, 0, 0
2, 0, Note_on_c, 0, 66, 64
2, 60, Note_on_c, 0, 66, 0
2, 60, Note_on_c, 0, 70, 64
2, 120, Note_on_c, 0, 70, 0
2, 120, Note_on_c, 0, 73, 64
2, 180, Note_on_c, 0, 73, 0
2, 180, Note_on_c, 0, 70, 64
2, 240, Note_on_c, 0, 70, 0
2, 240, Note_on_c, 0, 66, 64
2, 300, Note_on_c, 0, 66, 0
2, 300, Note_on_c, 0, 73, 64
2, 350, Note_on_c, 0, 73, 0
2, 360, Note_on_c, 0, 75, 73
2, 382, Note_on_c, 0, 75, 0
2, 382, Note_on_c, 0, 73, 50
2, 404, Note_on_c, 0, 73, 0
2, 404, Note_on_c, 0, 75, 54
2, 426, Note_on_c, 0, 75, 0
2, 426, Note_on_c, 0, 73, 59
2, 448, Note_on_c, 0, 73, 0
2, 448, Note_on_c, 0, 75, 63
2, 470, Note_on_c, 0, 75, 0
2, 470, Note_on_c, 0, 73, 64
2, 780, Note_on_c, 0, 73, 0
2, 780, Note_on_c, 0, 70, 64
2, 840, Note_on_c, 0, 70, 0
2, 840, Note_on_c, 0, 71, 64
2, 960, Note_on_c, 0, 71, 0
2, 960, Note_on_c, 0, 73, 64
2, 1020, Note_on_c, 0, 73, 0
2, 1020, Note_on_c, 0, 70, 64
2, 1140, Note_on_c, 0, 70, 0
2, 1140, Note_on_c, 0, 75, 64
2, 1200, Note_on_c, 0, 75, 0
2, 1200, Note_on_c, 0, 68, 64
2, 1320, Note_on_c, 0, 68, 0
2, 1320, Note_on_c, 0, 70, 64
2, 1380, Note_on_c, 0, 70, 0
2, 1380, Note_on_c, 0, 66, 64
2, 1500, Note_on_c, 0, 66, 0
2, 1500, Note_on_c, 0, 71, 64
2, 1560, Note_on_c, 0, 71, 0
2, 1560, Note_on_c, 0, 65, 64
2, 1680, Note_on_c, 0, 65, 0
2, 1680, Note_on_c, 0, 71, 64
2, 1740, Note_on_c, 0, 71, 0
2, 1740, Note_on_c, 0, 63, 64
2, 1860, Note_on_c, 0, 63, 0
2, 1860, Note_on_c, 0, 71, 64
2, 1920, Note_on_c, 0, 71, 0
2, 1920, Note_on_c, 0, 61, 64
2, 1980, Note_on_c, 0, 61, 0
2, 1980, Note_on_c, 0, 65, 64
2, 2040, Note_on_c, 0, 65, 0
2, 2040, Note_on_c, 0, 68, 64
2, 2100, Note_on_c, 0, 68, 0
2, 2100, Note_on_c, 0, 71, 64
2, 2160, Note_on_c, 0, 71, 0
2, 2160, Note_on_c, 0, 70, 64
2, 2220, Note_on_c, 0, 70, 0
2, 2220, Note_on_c, 0, 66, 64
2, 2280, Note_on_c, 0, 66, 0
2, 2280, Note_on_c, 0, 72, 64
2, 2400, Note_on_c, 0, 72, 0
2, 2400, Note_on_c, 0, 66, 64
2, 2460, Note_on_c, 0, 66, 0
2, 2460, Note_on_c, 0, 73, 64
2, 2580, Note_on_c, 0, 73, 0
2, 2580, Note_on_c, 0, 66, 64
2, 2640, Note_on_c, 0, 66, 0
2, 2640, Note_on_c, 0, 75, 64
2, 2760, Note_on_c, 0, 75, 0
2, 2760, Note_on_c, 0, 68, 64
2, 2820, Note_on_c, 0, 68, 0
2, 2820, Note_on_c, 0, 77, 64
2, 2940, Note_on_c, 0, 77, 0
2, 2940, Note_on_c, 0, 80, 64
2, 3000, Note_on_c, 0, 80, 0
2, 3000, Note_on_c, 0, 73, 64
2, 3120, Note_on_c, 0, 73, 0
2, 3120, Note_on_c, 0, 75, 64
2, 3180, Note_on_c, 0, 75, 0
2, 3180, Note_on_c, 0, 72, 64
2, 3240, Note_on_c, 0, 72, 0
2, 3240, Note_on_c, 0, 73, 64
2, 3300, Note_on_c, 0, 73, 0
2, 3300, Note_on_c, 0, 77, 64
2, 3360, Note_on_c, 0, 77, 0
2, 3360, Note_on_c, 0, 73, 64
2, 3410, Note_on_c, 0, 73, 0
2, 3420, Note_on_c, 0, 73, 64
2, 3480, Note_on_c, 0, 73, 0
2, 3480, Note_on_c, 0, 77, 64
2, 3510, Note_on_c, 0, 77, 0
2, 3510, Note_on_c, 0, 75, 64
2, 3540, Note_on_c, 0, 75, 0
2, 3540, Note_on_c, 0, 73, 64
2, 3660, Note_on_c, 0, 73, 0
2, 3660, Note_on_c, 0, 82, 64
2, 3720, Note_on_c, 0, 82, 0
2, 3720, Note_on_c, 0, 73, 64
2, 3840, Note_on_c, 0, 73, 0
2, 3840, Note_on_c, 0, 75, 64
2, 3900, Note_on_c, 0, 75, 0
2, 3900, Note_on_c, 0, 72, 64
2, 3960, Note_on_c, 0, 72, 0
2, 3960, Note_on_c, 0, 73, 64
2, 4020, Note_on_c, 0, 73, 0
2, 4020, Note_on_c, 0, 77, 64
2, 4080, Note_on_c, 0, 77, 0
2, 4080, Note_on_c, 0, 80, 64
2, 4140, Note_on_c, 0, 80, 0
2, 4140, Note_on_c, 0, 77, 64
2, 4200, Note_on_c, 0, 77, 0
2, 4200, Note_on_c, 0, 73, 64
2, 4260, Note_on_c, 0, 73, 0
2, 4260, Note_on_c, 0, 80, 64
2, 4320, Note_on_c, 0, 80, 0
2, 4320, Note_on_c, 0, 78, 72
2, 4342, Note_on_c, 0, 78, 0
2, 4342, Note_on_c, 0, 80, 51
2, 4364, Note_on_c, 0, 80, 0
2, 4364, Note_on_c, 0, 82, 53
2, 4386, Note_on_c, 0, 82, 0
2, 4386, Note_on_c, 0, 80, 56
2, 4408, Note_on_c, 0, 80, 0
2, 4408, Note_on_c, 0, 82, 58
2, 4430, Note_on_c, 0, 82, 0
2, 4430, Note_on_c, 0, 80, 61
2, 4452, Note_on_c, 0, 80, 0
2, 4452, Note_on_c, 0, 82, 63
2, 4474, Note_on_c, 0, 82, 0
2, 4474, Note_on_c, 0, 80, 89
2, 4740, Note_on_c, 0, 80, 0
2, 4740, Note_on_c, 0, 77, 64
2, 4800, Note_on_c, 0, 77, 0
2, 4800, Note_on_c, 0, 78, 64
2, 4920, Note_on_c, 0, 78, 0
2, 4920, Note_on_c, 0, 80, 64
2, 4980, Note_on_c, 0, 80, 0
2, 4980, Note_on_c, 0, 77, 64
2, 5100, Note_on_c, 0, 77, 0
2, 5100, Note_on_c, 0, 82, 64
2, 5160, Note_on_c, 0, 82, 0
2, 5160, Note_on_c, 0, 75, 64
2, 5280, Note_on_c, 0, 75, 0
2, 5280, Note_on_c, 0, 77, 64
2, 5340, Note_on_c, 0, 77, 0
2, 5340, Note_on_c, 0, 74, 64
2, 5400, Note_on_c, 0, 74, 0
2, 5400, Note_on_c, 0, 78, 64
2, 5460, Note_on_c, 0, 78, 0
2, 5460, Note_on_c, 0, 70, 64
2, 5520, Note_on_c, 0, 70, 0
2, 5520, Note_on_c, 0, 71, 64
2, 5640, Note_on_c, 0, 71, 0
2, 5640, Note_on_c, 0, 73, 64
2, 5700, Note_on_c, 0, 73, 0
2, 5700, Note_on_c, 0, 70, 64
2, 5820, Note_on_c, 0, 70, 0
2, 5820, Note_on_c, 0, 75, 64
2, 5880, Note_on_c, 0, 75, 0
2, 5880, Note_on_c, 0, 68, 64
2, 6000, Note_on_c, 0, 68, 0
2, 6000, Note_on_c, 0, 70, 64
2, 6060, Note_on_c, 0, 70, 0
2, 6060, Note_on_c, 0, 66, 64
2, 6180, Note_on_c, 0, 66, 0
2, 6180, Note_on_c, 0, 71, 64
2, 6240, Note_on_c, 0, 71, 0
2, 6240, Note_on_c, 0, 64, 64
2, 6360, Note_on_c, 0, 64, 0
2, 6360, Note_on_c, 0, 66, 64
2, 6420, Note_on_c, 0, 66, 0
2, 6420, Note_on_c, 0, 63, 64
2, 6480, Note_on_c, 0, 63, 0
2, 6480, Note_on_c, 0, 68, 64
2, 6540, Note_on_c, 0, 68, 0
2, 6540, Note_on_c, 0, 62, 64
2, 6600, Note_on_c, 0, 62, 0
2, 6600, Note_on_c, 0, 63, 64
2, 6720, Note_on_c, 0, 63, 0
2, 6720, Note_on_c, 0, 62, 64
2, 6780, Note_on_c, 0, 62, 0
2, 6780, Note_on_c, 0, 68, 64
2, 6900, Note_on_c, 0, 68, 0
2, 6900, Note_on_c, 0, 65, 64
2, 6960, Note_on_c, 0, 65, 0
2, 6960, Note_on_c, 0, 71, 64
2, 7080, Note_on_c, 0, 71, 0
2, 7080, Note_on_c, 0, 68, 64
2, 7140, Note_on_c, 0, 68, 0
2, 7140, Note_on_c, 0, 77, 64
2, 7260, Note_on_c, 0, 77, 0
2, 7260, Note_on_c, 0, 65, 64
2, 7320, Note_on_c, 0, 65, 0
2, 7320, Note_on_c, 0, 66, 64
2, 7440, Note_on_c, 0, 66, 0
2, 7440, Note_on_c, 0, 70, 64
2, 7500, Note_on_c, 0, 70, 0
2, 7500, Note_on_c, 0, 75, 64
2, 7620, Note_on_c, 0, 75, 0
2, 7620, Note_on_c, 0, 65, 64
2, 7680, Note_on_c, 0, 65, 0
2, 7680, Note_on_c, 0, 68, 64
2, 7800, Note_on_c, 0, 68, 0
2, 7800, Note_on_c, 0, 70, 64
2, 7860, Note_on_c, 0, 70, 0
2, 7860, Note_on_c, 0, 74, 64
2, 7920, Note_on_c, 0, 74, 0
2, 7920, Note_on_c, 0, 77, 72
2, 7942, Note_on_c, 0, 77, 0
2, 7942, Note_on_c, 0, 75, 50
2, 7964, Note_on_c, 0, 75, 0
2, 7964, Note_on_c, 0, 77, 51
2, 7986, Note_on_c, 0, 77, 0
2, 7986, Note_on_c, 0, 75, 52
2, 8008, Note_on_c, 0, 75, 0
2, 8008, Note_on_c, 0, 77, 52
2, 8030, Note_on_c, 0, 77, 0
2, 8030, Note_on_c, 0, 75, 53
2, 8052, Note_on_c, 0, 75, 0
2, 8052, Note_on_c, 0, 77, 54
2, 8074, Note_on_c, 0, 77, 0
2, 8074, Note_on_c, 0, 75, 55
2, 8096, Note_on_c, 0, 75, 0
2, 8096, Note_on_c, 0, 77, 56
2, 8118, Note_on_c, 0, 77, 0
2, 8118, Note_on_c, 0, 75, 57
2, 8140, Note_on_c, 0, 75, 0
2, 8140, Note_on_c, 0, 77, 58
2, 8162, Note_on_c, 0, 77, 0
2, 8162, Note_on_c, 0, 75, 59
2, 8184, Note_on_c, 0, 75, 0
2, 8184, Note_on_c, 0, 77, 60
2, 8206, Note_on_c, 0, 77, 0
2, 8206, Note_on_c, 0, 75, 61
2, 8228, Note_on_c, 0, 75, 0
2, 8228, Note_on_c, 0, 77, 61
2, 8250, Note_on_c, 0, 77, 0
2, 8250, Note_on_c, 0, 75, 62
2, 8272, Note_on_c, 0, 75, 0
2, 8272, Note_on_c, 0, 77, 63
2, 8294, Note_on_c, 0, 77, 0
2, 8294, Note_on_c, 0, 75, 64
2, 8340, Note_on_c, 0, 75, 0
2, 8340, Note_on_c, 0, 78, 64
2, 8400, Note_on_c, 0, 78, 0
2, 8400, Note_on_c, 0, 82, 64
2, 8460, Note_on_c, 0, 82, 0
2, 8460, Note_on_c, 0, 78, 64
2, 8520, Note_on_c, 0, 78, 0
2, 8520, Note_on_c, 0, 75, 64
2, 8580, Note_on_c, 0, 75, 0
2, 8580, Note_on_c, 0, 81, 64
2, 8640, Note_on_c, 0, 81, 0
2, 8640, Note_on_c, 0, 82, 72
2, 8662, Note_on_c, 0, 82, 0
2, 8662, Note_on_c, 0, 81, 50
2, 8684, Note_on_c, 0, 81, 0
2, 8684, Note_on_c, 0, 82, 51
2, 8706, Note_on_c, 0, 82, 0
2, 8706, Note_on_c, 0, 81, 52
2, 8728, Note_on_c, 0, 81, 0
2, 8728, Note_on_c, 0, 82, 52
2, 8750, Note_on_c, 0, 82, 0
2, 8750, Note_on_c, 0, 81, 53
2, 8772, Note_on_c, 0, 81, 0
2, 8772, Note_on_c, 0, 82, 54
2, 8794, Note_on_c, 0, 82, 0
2, 8794, Note_on_c, 0, 81, 55
2, 8816, Note_on_c, 0, 81, 0
2, 8816, Note_on_c, 0, 82, 56
2, 8838, Note_on_c, 0, 82, 0
2, 8838, Note_on_c, 0, 81, 57
2, 8860, Note_on_c, 0, 81, 0
2, 8860, Note_on_c, 0, 82, 58
2, 8882, Note_on_c, 0, 82, 0
2, 8882, Note_on_c, 0, 81, 59
2, 8904, Note_on_c, 0, 81, 0
2, 8904, Note_on_c, 0, 82, 60
2, 8926, Note_on_c, 0, 82, 0
2, 8926, Note_on_c, 0, 81, 61
2, 8948, Note_on_c, 0, 81, 0
2, 8948, Note_on_c, 0, 82, 61
2, 8970, Note_on_c, 0, 82, 0
2, 8970, Note_on_c, 0, 81, 62
2, 8992, Note_on_c, 0, 81, 0
2, 8992, Note_on_c, 0, 82, 63
2, 9014, Note_on_c, 0, 82, 0
2, 9014, Note_on_c, 0, 81, 64
2, 9060, Note_on_c, 0, 81, 0
2, 9060, Note_on_c, 0, 82, 64
2, 9120, Note_on_c, 0, 82, 0
2, 9120, Note_on_c, 0, 84, 64
2, 9180, Note_on_c, 0, 84, 0
2, 9180, Note_on_c, 0, 77, 64
2, 9240, Note_on_c, 0, 77, 0
2, 9240, Note_on_c, 0, 78, 64
2, 9300, Note_on_c, 0, 78, 0
2, 9300, Note_on_c, 0, 75, 64
2, 9360, Note_on_c, 0, 75, 0
2, 9360, Note_on_c, 0, 73, 64
2, 9420, Note_on_c, 0, 73, 0
2, 9420, Note_on_c, 0, 77, 64
2, 9480, Note_on_c, 0, 77, 0
2, 9480, Note_on_c, 0, 70, 64
2, 9600, Note_on_c, 0, 70, 0
2, 9600, Note_on_c, 0, 72, 64
2, 9660, Note_on_c, 0, 72, 0
2, 9660, Note_on_c, 0, 69, 64
2, 9720, Note_on_c, 0, 69, 0
2, 9720, Note_on_c, 0, 70, 64
2, 9780, Note_on_c, 0, 70, 0
2, 9780, Note_on_c, 0, 73, 64
2, 9840, Note_on_c, 0, 73, 0
2, 9840, Note_on_c, 0, 70, 64
2, 9890, Note_on_c, 0, 70, 0
2, 9900, Note_on_c, 0, 70, 64
2, 9960, Note_on_c, 0, 70, 0
2, 9960, Note_on_c, 0, 73, 64
2, 9990, Note_on_c, 0, 73, 0
2, 9990, Note_on_c, 0, 72, 64
2, 10020, Note_on_c, 0, 72, 0
2, 10020, Note_on_c, 0, 70, 64
2, 10140, Note_on_c, 0, 70, 0
2, 10140, Note_on_c, 0, 78, 64
2, 10200, Note_on_c, 0, 78, 0
2, 10200, Note_on_c, 0, 70, 64
2, 10320, Note_on_c, 0, 70, 0
2, 10320, Note_on_c, 0, 72, 64
2, 10380, Note_on_c, 0, 72, 0
2, 10380, Note_on_c, 0, 69, 64
2, 10440, Note_on_c, 0, 69, 0
2, 10440, Note_on_c, 0, 70, 64
2, 10500, Note_on_c, 0, 70, 0
2, 10500, Note_on_c, 0, 73, 64
2, 10560, Note_on_c, 0, 73, 0
2, 10560, Note_on_c, 0, 77, 64
2, 10620, Note_on_c, 0, 77, 0
2, 10620, Note_on_c, 0, 73, 64
2, 10680, Note_on_c, 0, 73, 0
2, 10680, Note_on_c, 0, 70, 64
2, 10740, Note_on_c, 0, 70, 0
2, 10740, Note_on_c, 0, 79, 64
2, 10800, Note_on_c, 0, 79, 0
2, 10800, Note_on_c, 0, 80, 72
2, 10822, Note_on_c, 0, 80, 0
2, 10822, Note_on_c, 0, 79, 50
2, 10844, Note_on_c, 0, 79, 0
2, 10844, Note_on_c, 0, 80, 51
2, 10866, Note_on_c, 0, 80, 0
2, 10866, Note_on_c, 0, 79, 52
2, 10888, Note_on_c, 0, 79, 0
2, 10888, Note_on_c, 0, 80, 52
2, 10910, Note_on_c, 0, 80, 0
2, 10910, Note_on_c, 0, 79, 53
2, 10932, Note_on_c, 0, 79, 0
2, 10932, Note_on_c, 0, 80, 54
2, 10954, Note_on_c, 0, 80, 0
2, 10954, Note_on_c, 0, 79, 55
2, 10976, Note_on_c, 0, 79, 0
2, 10976, Note_on_c, 0, 80, 56
2, 10998, Note_on_c, 0, 80, 0
2, 10998, Note_on_c, 0, 79, 57
2, 11020, Note_on_c, 0, 79, 0
2, 11020, Note_on_c, 0, 80, 58
2, 11042, Note_on_c, 0, 80, 0
2, 11042, Note_on_c, 0, 79, 59
2, 11064, Note_on_c, 0, 79, 0
2, 11064, Note_on_c, 0, 80, 60
2, 11086, Note_on_c, 0, 80, 0
2, 11086, Note_on_c, 0, 79, 61
2, 11108, Note_on_c, 0, 79, 0
2, 11108, Note_on_c, 0, 80, 61
2, 11130, Note_on_c, 0, 80, 0
2, 11130, Note_on_c, 0, 79, 62
2, 11152, Note_on_c, 0, 79, 0
2, 11152, Note_on_c, 0, 80, 63
2, 11174, Note_on_c, 0, 80, 0
2, 11174, Note_on_c, 0, 79, 64
2, 11220, Note_on_c, 0, 79, 0
2, 11220, Note_on_c, 0, 82, 64
2, 11280, Note_on_c, 0, 82, 0
2, 11280, Note_on_c, 0, 75, 64
2, 11340, Note_on_c, 0, 75, 0
2, 11340, Note_on_c, 0, 73, 64
2, 11400, Note_on_c, 0, 73, 0
2, 11400, Note_on_c, 0, 71, 64
2, 11460, Note_on_c, 0, 71, 0
2, 11460, Note_on_c, 0, 70, 64
2, 11520, Note_on_c, 0, 70, 0
2, 11520, Note_on_c, 0, 71, 64
2, 11580, Note_on_c, 0, 71, 0
2, 11580, Note_on_c, 0, 75, 64
2, 11640, Note_on_c, 0, 75, 0
2, 11640, Note_on_c, 0, 68, 64
2, 11760, Note_on_c, 0, 68, 0
2, 11760, Note_on_c, 0, 70, 64
2, 11820, Note_on_c, 0, 70, 0
2, 11820, Note_on_c, 0, 67, 64
2, 11880, Note_on_c, 0, 67, 0
2, 11880, Note_on_c, 0, 68, 64
2, 11940, Note_on_c, 0, 68, 0
2, 11940, Note_on_c, 0, 71, 64
2, 12000, Note_on_c, 0, 71, 0
2, 12000, Note_on_c, 0, 68, 64
2, 12050, Note_on_c, 0, 68, 0
2, 12060, Note_on_c, 0, 68, 64
2, 12120, Note_on_c, 0, 68, 0
2, 12120, Note_on_c, 0, 71, 64
2, 12150, Note_on_c, 0, 71, 0
2, 12150, Note_on_c, 0, 70, 64
2, 12180, Note_on_c, 0, 70, 0
2, 12180, Note_on_c, 0, 68, 64
2, 12300, Note_on_c, 0, 68, 0
2, 12300, Note_on_c, 0, 76, 64
2, 12360, Note_on_c, 0, 76, 0
2, 12360, Note_on_c, 0, 68, 64
2, 12480, Note_on_c, 0, 68, 0
2, 12480, Note_on_c, 0, 70, 64
2, 12540, Note_on_c, 0, 70, 0
2, 12540, Note_on_c, 0, 67, 64
2, 12600, Note_on_c, 0, 67, 0
2, 12600, Note_on_c, 0, 68, 64
2, 12660, Note_on_c, 0, 68, 0
2, 12660, Note_on_c, 0, 71, 64
2, 12720, Note_on_c, 0, 71, 0
2, 12720, Note_on_c, 0, 75, 64
2, 12780, Note_on_c, 0, 75, 0
2, 12780, Note_on_c, 0, 71, 64
2, 12840, Note_on_c, 0, 71, 0
2, 12840, Note_on_c, 0, 68, 64
2, 12900, Note_on_c, 0, 68, 0
2, 12900, Note_on_c, 0, 77, 64
2, 12960, Note_on_c, 0, 77, 0
2, 12960, Note_on_c, 0, 78, 72
2, 12982, Note_on_c, 0, 78, 0
2, 12982, Note_on_c, 0, 77, 50
2, 13004, Note_on_c, 0, 77, 0
2, 13004, Note_on_c, 0, 78, 51
2, 13026, Note_on_c, 0, 78, 0
2, 13026, Note_on_c, 0, 77, 52
2, 13048, Note_on_c, 0, 77, 0
2, 13048, Note_on_c, 0, 78, 52
2, 13070, Note_on_c, 0, 78, 0
2, 13070, Note_on_c, 0, 77, 53
2, 13092, Note_on_c, 0, 77, 0
2, 13092, Note_on_c, 0, 78, 54
2, 13114, Note_on_c, 0, 78, 0
2, 13114, Note_on_c, 0, 77, 55
2, 13136, Note_on_c, 0, 77, 0
2, 13136, Note_on_c, 0, 78, 56
2, 13158, Note_on_c, 0, 78, 0
2, 13158, Note_on_c, 0, 77, 57
2, 13180, Note_on_c, 0, 77, 0
2, 13180, Note_on_c, 0, 78, 58
2, 13202, Note_on_c, 0, 78, 0
2, 13202, Note_on_c, 0, 77, 59
2, 13224, Note_on_c, 0, 77, 0
2, 13224, Note_on_c, 0, 78, 60
2, 13246, Note_on_c, 0, 78, 0
2, 13246, Note_on_c, 0, 77, 61
2, 13268, Note_on_c, 0, 77, 0
2, 13268, Note_on_c, 0, 78, 61
2, 13290, Note_on_c, 0, 78, 0
2, 13290, Note_on_c, 0, 77, 62
2, 13312, Note_on_c, 0, 77, 0
2, 13312, Note_on_c, 0, 78, 63
2, 13334, Note_on_c, 0, 78, 0
2, 13334, Note_on_c, 0, 77, 64
2, 13380, Note_on_c, 0, 77, 0
2, 13380, Note_on_c, 0, 73, 64
2, 13440, Note_on_c, 0, 73, 0
2, 13440, Note_on_c, 0, 77, 64
2, 13500, Note_on_c, 0, 77, 0
2, 13500, Note_on_c, 0, 80, 64
2, 13560, Note_on_c, 0, 80, 0
2, 13560, Note_on_c, 0, 77, 64
2, 13620, Note_on_c, 0, 77, 0
2, 13620, Note_on_c, 0, 80, 64
2, 13680, Note_on_c, 0, 80, 0
2, 13680, Note_on_c, 0, 83, 64
2, 14100, Note_on_c, 0, 83, 0
2, 14100, Note_on_c, 0, 80, 64
2, 14160, Note_on_c, 0, 80, 0
2, 14160, Note_on_c, 0, 82, 64
2, 14280, Note_on_c, 0, 82, 0
2, 14280, Note_on_c, 0, 83, 64
2, 14340, Note_on_c, 0, 83, 0
2, 14340, Note_on_c, 0, 80, 64
2, 14460, Note_on_c, 0, 80, 0
2, 14460, Note_on_c, 0, 77, 64
2, 14520, Note_on_c, 0, 77, 0
2, 14520, Note_on_c, 0, 78, 64
2, 14640, Note_on_c, 0, 78, 0
2, 14640, Note_on_c, 0, 80, 64
2, 14700, Note_on_c, 0, 80, 0
2, 14700, Note_on_c, 0, 77, 64
2, 14760, Note_on_c, 0, 77, 0
2, 14760, Note_on_c, 0, 78, 64
2, 14820, Note_on_c, 0, 78, 0
2, 14820, Note_on_c, 0, 70, 64
2, 14880, Note_on_c, 0, 70, 0
2, 14880, Note_on_c, 0, 71, 64
2, 15000, Note_on_c, 0, 71, 0
2, 15000, Note_on_c, 0, 73, 64
2, 15060, Note_on_c, 0, 73, 0
2, 15060, Note_on_c, 0, 70, 64
2, 15180, Note_on_c, 0, 70, 0
2, 15180, Note_on_c, 0, 75, 64
2, 15240, Note_on_c, 0, 75, 0
2, 15240, Note_on_c, 0, 68, 64
2, 15360, Note_on_c, 0, 68, 0
2, 15360, Note_on_c, 0, 70, 64
2, 15420, Note_on_c, 0, 70, 0
2, 15420, Note_on_c, 0, 66, 64
2, 15540, Note_on_c, 0, 66, 0
2, 15540, Note_on_c, 0, 65, 64
2, 15600, Note_on_c, 0, 65, 0
2, 15600, Note_on_c, 0, 71, 64
2, 15720, Note_on_c, 0, 71, 0
2, 15720, Note_on_c, 0, 68, 64
2, 15780, Note_on_c, 0, 68, 0
2, 15780, Note_on_c, 0, 75, 64
2, 15900, Note_on_c, 0, 75, 0
2, 15900, Note_on_c, 0, 71, 64
2, 15960, Note_on_c, 0, 71, 0
2, 15960, Note_on_c, 0, 80, 64
2, 16080, Note_on_c, 0, 80, 0
2, 16080, Note_on_c, 0, 77, 64
2, 16140, Note_on_c, 0, 77, 0
2, 16140, Note_on_c, 0, 71, 64
2, 16260, Note_on_c, 0, 71, 0
2, 16260, Note_on_c, 0, 68, 64
2, 16320, Note_on_c, 0, 68, 0
2, 16320, Note_on_c, 0, 73, 64
2, 16440, Note_on_c, 0, 73, 0
2, 16440, Note_on_c, 0, 70, 64
2, 16500, Note_on_c, 0, 70, 0
2, 16500, Note_on_c, 0, 66, 64
2, 16620, Note_on_c, 0, 66, 0
2, 16620, Note_on_c, 0, 63, 64
2, 16680, Note_on_c, 0, 63, 0
2, 16680, Note_on_c, 0, 71, 64
2, 16800, Note_on_c, 0, 71, 0
2, 16800, Note_on_c, 0, 68, 64
2, 16860, Note_on_c, 0, 68, 0
2, 16860, Note_on_c, 0, 65, 64
2, 16920, Note_on_c, 0, 65, 0
2, 16920, Note_on_c, 0, 66, 64
2, 17340, Note_on_c, 0, 66, 0
2, 17340, Note_on_c, 0, 58, 64
2, 17400, Note_on_c, 0, 58, 0
2, 17400, Note_on_c, 0, 59, 64
2, 17520, Note_on_c, 0, 59, 0
2, 17520, Note_on_c, 0, 61, 64
2, 17580, Note_on_c, 0, 61, 0
2, 17580, Note_on_c, 0, 58, 64
2, 17700, Note_on_c, 0, 58, 0
2, 17700, Note_on_c, 0, 63, 64
2, 17760, Note_on_c, 0, 63, 0
2, 17760, Note_on_c, 0, 56, 64
2, 17880, Note_on_c, 0, 56, 0
2, 17880, Note_on_c, 0, 58, 64
2, 17940, Note_on_c, 0, 58, 0
2, 17940, Note_on_c, 0, 54, 64
2, 18000, Note_on_c, 0, 54, 0
2, 18000, Note_on_c, 0, 59, 64
2, 18420, Note_on_c, 0, 59, 0
2, 18420, Note_on_c, 0, 65, 64
2, 18480, Note_on_c, 0, 65, 0
2, 18480, Note_on_c, 0, 68, 64
2, 18540, Note_on_c, 0, 68, 0
2, 18540, Note_on_c, 0, 65, 64
2, 18600, Note_on_c, 0, 65, 0
2, 18600, Note_on_c, 0, 59, 64
2, 18660, Note_on_c, 0, 59, 0
2, 18660, Note_on_c, 0, 68, 64
2, 18720, Note_on_c, 0, 68, 0
2, 18720, Note_on_c, 0, 57, 64
2, 18780, Note_on_c, 0, 57, 0
2, 18780, Note_on_c, 0, 61, 64
2, 18840, Note_on_c, 0, 61, 0
2, 18840, Note_on_c, 0, 66, 64
2, 18900, Note_on_c, 0, 66, 0
2, 18900, Note_on_c, 0, 59, 64
2, 18960, Note_on_c, 0, 59, 0
2, 18960, Note_on_c, 0, 65, 64
2, 19020, Note_on_c, 0, 65, 0
2, 19020, Note_on_c, 0, 68, 64
2, 19080, Note_on_c, 0, 68, 0
2, 19080, Note_on_c, 0, 61, 64
2, 19140, Note_on_c, 0, 61, 0
2, 19140, Note_on_c, 0, 66, 64
2, 19200, Note_on_c, 0, 66, 0
2, 19200, Note_on_c, 0, 69, 64
2, 19260, Note_on_c, 0, 69, 0
2, 19260, Note_on_c, 0, 62, 64
2, 19320, Note_on_c, 0, 62, 0
2, 19320, Note_on_c, 0, 68, 64
2, 19380, Note_on_c, 0, 68, 0
2, 19380, Note_on_c, 0, 71, 64
2, 19440, Note_on_c, 0, 71, 0
2, 19440, Note_on_c, 0, 65, 64
2, 19500, Note_on_c, 0, 65, 0
2, 19500, Note_on_c, 0, 71, 64
2, 19560, Note_on_c, 0, 71, 0
2, 19560, Note_on_c, 0, 74, 64
2, 19680, Note_on_c, 0, 74, 0
2, 19680, Note_on_c, 0, 71, 64
2, 19740, Note_on_c, 0, 71, 0
2, 19740, Note_on_c, 0, 77, 64
2, 19860, Note_on_c, 0, 77, 0
2, 19860, Note_on_c, 0, 74, 64
2, 19920, Note_on_c, 0, 74, 0
2, 19920, Note_on_c, 0, 80, 64
2, 20040, Note_on_c, 0, 80, 0
2, 20040, Note_on_c, 0, 77, 64
2, 20100, Note_on_c, 0, 77, 0
2, 20100, Note_on_c, 0, 83, 64
2, 20160, Note_on_c, 0, 83, 0
2, 20160, Note_on_c, 0, 82, 64
2, 20220, Note_on_c, 0, 82, 0
2, 20220, Note_on_c, 0, 73, 64
2, 20280, Note_on_c, 0, 73, 0
2, 20280, Note_on_c, 0, 78, 64
2, 20400, Note_on_c, 0, 78, 0
2, 20400, Note_on_c, 0, 80, 64
2, 20460, Note_on_c, 0, 80, 0
2, 20460, Note_on_c, 0, 77, 64
2, 20520, Note_on_c, 0, 77, 0
2, 20520, Note_on_c, 0, 78, 64
2, 20580, Note_on_c, 0, 78, 0
2, 20580, Note_on_c, 0, 70, 64
2, 20640, Note_on_c, 0, 70, 0
2, 20640, Note_on_c, 0, 78, 64
2, 20690, Note_on_c, 0, 78, 0
2, 20700, Note_on_c, 0, 78, 64
2, 20760, Note_on_c, 0, 78, 0
2, 20760, Note_on_c, 0, 82, 64
2, 20790, Note_on_c, 0, 82, 0
2, 20790, Note_on_c, 0, 80, 64
2, 20820, Note_on_c, 0, 80, 0
2, 20820, Note_on_c, 0, 78, 64
2, 20940, Note_on_c, 0, 78, 0
2, 20940, Note_on_c, 0, 68, 64
2, 21000, Note_on_c, 0, 68, 0
2, 21000, Note_on_c, 0, 78, 64
2, 21120, Note_on_c, 0, 78, 0
2, 21120, Note_on_c, 0, 80, 64
2, 21180, Note_on_c, 0, 80, 0
2, 21180, Note_on_c, 0, 77, 64
2, 21240, Note_on_c, 0, 77, 0
2, 21240, Note_on_c, 0, 78, 64
2, 21300, Note_on_c, 0, 78, 0
2, 21300, Note_on_c, 0, 73, 64
2, 21360, Note_on_c, 0, 73, 0
2, 21360, Note_on_c, 0, 70, 64
2, 21420, Note_on_c, 0, 70, 0
2, 21420, Note_on_c, 0, 66, 64
2, 21600, Note_on_c, 0, 66, 0
2, 21600, End_track
3, 0, Start_track
3, 0, Title_t, "LH B"
3, 0, Program_c, 1, 0
3, 360, Note_on_c, 1, 54, 64
3, 420, Note_on_c, 1, 54, 0
3, 420, Note_on_c, 1, 58, 64
3, 480, Note_on_c, 1, 58, 0
3, 480, Note_on_c, 1, 61, 64
3, 540, Note_on_c, 1, 61, 0
3, 540, Note_on_c, 1, 58, 64
3, 600, Note_on_c, 1, 58, 0
3, 600, Note_on_c, 1, 54, 64
3, 660, Note_on_c, 1, 54, 0
3, 660, Note_on_c, 1, 63, 64
3, 710, Note_on_c, 1, 63, 0
3, 720, Note_on_c, 1, 63, 64
3, 900, Note_on_c, 1, 63, 0
3, 900, Note_on_c, 1, 61, 64
3, 1080, Note_on_c, 1, 61, 0
3, 1080, Note_on_c, 1, 59, 64
3, 1260, Note_on_c, 1, 59, 0
3, 1260, Note_on_c, 1, 58, 64
3, 1440, Note_on_c, 1, 58, 0
3, 1440, Note_on_c, 1, 56, 64
3, 1620, Note_on_c, 1, 56, 0
3, 1620, Note_on_c, 1, 54, 64
3, 1800, Note_on_c, 1, 54, 0
3, 1800, Note_on_c, 1, 53, 64
3, 1980, Note_on_c, 1, 53, 0
3, 1980, Note_on_c, 1, 49, 64
3, 2160, Note_on_c, 1, 49, 0
3, 2160, Note_on_c, 1, 54, 64
3, 2340, Note_on_c, 1, 54, 0
3, 2340, Note_on_c, 1, 56, 64
3, 2520, Note_on_c, 1, 56, 0
3, 2520, Note_on_c, 1, 58, 64
3, 2700, Note_on_c, 1, 58, 0
3, 2700, Note_on_c, 1, 60, 64
3, 2880, Note_on_c, 1, 60, 0
3, 2880, Note_on_c, 1, 61, 64
3, 3060, Note_on_c, 1, 61, 0
3, 3060, Note_on_c, 1, 56, 64
3, 3240, Note_on_c, 1, 56, 0
3, 3240, Note_on_c, 1, 58, 64
3, 3420, Note_on_c, 1, 58, 0
3, 3420, Note_on_c, 1, 53, 64
3, 3600, Note_on_c, 1, 53, 0
3, 3600, Note_on_c, 1, 54, 64
3, 3780, Note_on_c, 1, 54, 0
3, 3780, Note_on_c, 1, 56, 64
3, 3960, Note_on_c, 1, 56, 0
3, 3960, Note_on_c, 1, 49, 64
3, 4140, Note_on_c, 1, 49, 0
3, 4320, Note_on_c, 1, 49, 64
3, 4380, Note_on_c, 1, 49, 0
3, 4380, Note_on_c, 1, 53, 64
3, 4440, Note_on_c, 1, 53, 0
3, 4440, Note_on_c, 1, 56, 64
3, 4500, Note_on_c, 1, 56, 0
3, 4500, Note_on_c, 1, 53, 64
3, 4560, Note_on_c, 1, 53, 0
3, 4560, Note_on_c, 1, 49, 64
3, 4620, Note_on_c, 1, 49, 0
3, 4620, Note_on_c, 1, 58, 64
3, 4670, Note_on_c, 1, 58, 0
3, 4680, Note_on_c, 1, 58, 64
3, 4860, Note_on_c, 1, 58, 0
3, 4860, Note_on_c, 1, 56, 64
3, 5040, Note_on_c, 1, 56, 0
3, 5040, Note_on_c, 1, 54, 64
3, 5220, Note_on_c, 1, 54, 0
3, 5220, Note_on_c, 1, 53, 64
3, 5400, Note_on_c, 1, 53, 0
3, 5400, Note_on_c, 1, 51, 64
3, 5580, Note_on_c, 1, 51, 0
3, 5580, Note_on_c, 1, 49, 64
3, 5760, Note_on_c, 1, 49, 0
3, 5760, Note_on_c, 1, 47, 64
3, 5940, Note_on_c, 1, 47, 0
3, 5940, Note_on_c, 1, 46, 64
3, 6120, Note_on_c, 1, 46, 0
3, 6120, Note_on_c, 1, 44, 64
3, 6300, Note_on_c, 1, 44, 0
3, 6300, Note_on_c, 1, 42, 64
3, 6480, Note_on_c, 1, 42, 0
3, 6480, Note_on_c, 1, 41, 64
3, 6660, Note_on_c, 1, 41, 0
3, 6660, Note_on_c, 1, 51, 64
3, 6840, Note_on_c, 1, 51, 0
3, 6840, Note_on_c, 1, 50, 64
3, 7020, Note_on_c, 1, 50, 0
3, 7020, Note_on_c, 1, 46, 64
3, 7200, Note_on_c, 1, 46, 0
3, 7200, Note_on_c, 1, 51, 64
3, 7380, Note_on_c, 1, 51, 0
3, 7380, Note_on_c, 1, 54, 64
3, 7560, Note_on_c, 1, 54, 0
3, 7560, Note_on_c, 1, 56, 64
3, 7740, Note_on_c, 1, 56, 0
3, 7740, Note_on_c, 1, 58, 64
3, 7920, Note_on_c, 1, 58, 0
3, 7920, Note_on_c, 1, 51, 64
3, 7980, Note_on_c, 1, 51, 0
3, 7980, Note_on_c, 1, 54, 64
3, 8040, Note_on_c, 1, 54, 0
3, 8040, Note_on_c, 1, 58, 64
3, 8100, Note_on_c, 1, 58, 0
3, 8100, Note_on_c, 1, 54, 64
3, 8160, Note_on_c, 1, 54, 0
3, 8160, Note_on_c, 1, 51, 64
3, 8220, Note_on_c, 1, 51, 0
3, 8220, Note_on_c, 1, 60, 80
3, 8280, Note_on_c, 1, 61, 72
3, 8284, Note_on_c, 1, 60, 0
3, 8302, Note_on_c, 1, 61, 0
3, 8302, Note_on_c, 1, 60, 50
3, 8324, Note_on_c, 1, 60, 0
3, 8324, Note_on_c, 1, 61, 51
3, 8346, Note_on_c, 1, 61, 0
3, 8346, Note_on_c, 1, 60, 52
3, 8368, Note_on_c, 1, 60, 0
3, 8368, Note_on_c, 1, 61, 52
3, 8390, Note_on_c, 1, 61, 0
3, 8390, Note_on_c, 1, 60, 53
3, 8412, Note_on_c, 1, 60, 0
3, 8412, Note_on_c, 1, 61, 54
3, 8434, Note_on_c, 1, 61, 0
3, 8434, Note_on_c, 1, 60, 55
3, 8456, Note_on_c, 1, 60, 0
3, 8456, Note_on_c, 1, 61, 56
3, 8478, Note_on_c, 1, 61, 0
3, 8478, Note_on_c, 1, 60, 57
3, 8500, Note_on_c, 1, 60, 0
3, 8500, Note_on_c, 1, 61, 58
3, 8522, Note_on_c, 1, 61, 0
3, 8522, Note_on_c, 1, 60, 59
3, 8544, Note_on_c, 1, 60, 0
3, 8544, Note_on_c, 1, 61, 60
3, 8566, Note_on_c, 1, 61, 0
3, 8566, Note_on_c, 1, 60, 61
3, 8588, Note_on_c, 1, 60, 0
3, 8588, Note_on_c, 1, 61, 61
3, 8610, Note_on_c, 1, 61, 0
3, 8610, Note_on_c, 1, 60, 62
3, 8632, Note_on_c, 1, 60, 0
3, 8632, Note_on_c, 1, 61, 63
3, 8654, Note_on_c, 1, 61, 0
3, 8654, Note_on_c, 1, 60, 64
3, 8700, Note_on_c, 1, 60, 0
3, 8700, Note_on_c, 1, 63, 64
3, 8760, Note_on_c, 1, 63, 0
3, 8760, Note_on_c, 1, 66, 64
3, 8820, Note_on_c, 1, 66, 0
3, 8820, Note_on_c, 1, 63, 64
3, 8880, Note_on_c, 1, 63, 0
3, 8880, Note_on_c, 1, 60, 64
3, 8940, Note_on_c, 1, 60, 0
3, 8940, Note_on_c, 1, 66, 64
3, 9000, Note_on_c, 1, 66, 0
3, 9000, Note_on_c, 1, 66, 64
3, 9060, Note_on_c, 1, 66, 0
3, 9060, Note_on_c, 1, 65, 64
3, 9120, Note_on_c, 1, 65, 0
3, 9120, Note_on_c, 1, 63, 64
3, 9180, Note_on_c, 1, 63, 0
3, 9180, Note_on_c, 1, 61, 64
3, 9240, Note_on_c, 1, 61, 0
3, 9240, Note_on_c, 1, 63, 64
3, 9300, Note_on_c, 1, 63, 0
3, 9300, Note_on_c, 1, 65, 64
3, 9360, Note_on_c, 1, 65, 0
3, 9360, Note_on_c, 1, 58, 64
3, 9540, Note_on_c, 1, 58, 0
3, 9540, Note_on_c, 1, 53, 64
3, 9720, Note_on_c, 1, 53, 0
3, 9720, Note_on_c, 1, 54, 64
3, 9900, Note_on_c, 1, 54, 0
3, 9900, Note_on_c, 1, 49, 64
3, 10080, Note_on_c, 1, 49, 0
3, 10080, Note_on_c, 1, 51, 64
3, 10260, Note_on_c, 1, 51, 0
3, 10260, Note_on_c, 1, 53, 64
3, 10440, Note_on_c, 1, 53, 0
3, 10440, Note_on_c, 1, 46, 64
3, 10620, Note_on_c, 1, 46, 0
3, 10800, Note_on_c, 1, 51, 64
3, 10860, Note_on_c, 1, 51, 0
3, 10860, Note_on_c, 1, 55, 64
3, 10920, Note_on_c, 1, 55, 0
3, 10920, Note_on_c, 1, 58, 64
3, 10980, Note_on_c, 1, 58, 0
3, 10980, Note_on_c, 1, 55, 64
3, 11040, Note_on_c, 1, 55, 0
3, 11040, Note_on_c, 1, 51, 64
3, 11100, Note_on_c, 1, 51, 0
3, 11100, Note_on_c, 1, 61, 64
3, 11150, Note_on_c, 1, 61, 0
3, 11160, Note_on_c, 1, 61, 64
3, 11340, Note_on_c, 1, 61, 0
3, 11340, Note_on_c, 1, 55, 64
3, 11520, Note_on_c, 1, 55, 0
3, 11520, Note_on_c, 1, 56, 64
3, 11700, Note_on_c, 1, 56, 0
3, 11700, Note_on_c, 1, 51, 64
3, 11880, Note_on_c, 1, 51, 0
3, 11880, Note_on_c, 1, 52, 64
3, 12060, Note_on_c, 1, 52, 0
3, 12060, Note_on_c, 1, 47, 64
3, 12240, Note_on_c, 1, 47, 0
3, 12240, Note_on_c, 1, 49, 64
3, 12420, Note_on_c, 1, 49, 0
3, 12420, Note_on_c, 1, 51, 64
3, 12600, Note_on_c, 1, 51, 0
3, 12600, Note_on_c, 1, 44, 64
3, 12780, Note_on_c, 1, 44, 0
3, 12960, Note_on_c, 1, 49, 64
3, 13020, Note_on_c, 1, 49, 0
3, 13020, Note_on_c, 1, 53, 64
3, 13080, Note_on_c, 1, 53, 0
3, 13080, Note_on_c, 1, 56, 64
3, 13140, Note_on_c, 1, 56, 0
3, 13140, Note_on_c, 1, 53, 64
3, 13200, Note_on_c, 1, 53, 0
3, 13200, Note_on_c, 1, 49, 64
3, 13260, Note_on_c, 1, 49, 0
3, 13260, Note_on_c, 1, 59, 64
3, 13310, Note_on_c, 1, 59, 0
3, 13320, Note_on_c, 1, 59, 64
3, 13560, Note_on_c, 1, 59, 0
3, 13560, Note_on_c, 1, 56, 64
3, 13620, Note_on_c, 1, 56, 0
3, 13620, Note_on_c, 1, 59, 64
3, 13680, Note_on_c, 1, 59, 0
3, 13680, Note_on_c, 1, 65, 64
3, 13740, Note_on_c, 1, 65, 0
3, 13740, Note_on_c, 1, 68, 64
3, 13800, Note_on_c, 1, 68, 0
3, 13800, Note_on_c, 1, 65, 64
3, 13860, Note_on_c, 1, 65, 0
3, 13860, Note_on_c, 1, 61, 64
3, 13920, Note_on_c, 1, 61, 0
3, 13920, Note_on_c, 1, 65, 64
3, 13980, Note_on_c, 1, 65, 0
3, 13980, Note_on_c, 1, 61, 64
3, 14040, Note_on_c, 1, 61, 0
3, 14040, Note_on_c, 1, 54, 64
3, 14220, Note_on_c, 1, 54, 0
3, 14220, Note_on_c, 1, 59, 64
3, 14400, Note_on_c, 1, 59, 0
3, 14400, Note_on_c, 1, 60, 64
3, 14580, Note_on_c, 1, 60, 0
3, 14580, Note_on_c, 1, 61, 64
3, 14760, Note_on_c, 1, 61, 0
3, 14760, Note_on_c, 1, 51, 64
3, 14940, Note_on_c, 1, 51, 0
3, 14940, Note_on_c, 1, 49, 64
3, 15120, Note_on_c, 1, 49, 0
3, 15120, Note_on_c, 1, 47, 64
3, 15300, Note_on_c, 1, 47, 0
3, 15300, Note_on_c, 1, 46, 64
3, 15480, Note_on_c, 1, 46, 0
3, 15480, Note_on_c, 1, 44, 64
3, 15660, Note_on_c, 1, 44, 0
3, 15660, Note_on_c, 1, 54, 64
3, 15840, Note_on_c, 1, 54, 0
3, 15840, Note_on_c, 1, 53, 64
3, 16020, Note_on_c, 1, 53, 0
3, 16020, Note_on_c, 1, 49, 64
3, 16200, Note_on_c, 1, 49, 0
3, 16200, Note_on_c, 1, 54, 64
3, 16380, Note_on_c, 1, 54, 0
3, 16380, Note_on_c, 1, 46, 64
3, 16560, Note_on_c, 1, 46, 0
3, 16560, Note_on_c, 1, 47, 64
3, 16740, Note_on_c, 1, 47, 0
3, 16740, Note_on_c, 1, 49, 64
3, 16920, Note_on_c, 1, 49, 0
3, 16920, Note_on_c, 1, 42, 64
3, 16980, Note_on_c, 1, 42, 0
3, 16980, Note_on_c, 1, 46, 64
3, 17040, Note_on_c, 1, 46, 0
3, 17040, Note_on_c, 1, 49, 64
3, 17100, Note_on_c, 1, 49, 0
3, 17100, Note_on_c, 1, 46, 64
3, 17160, Note_on_c, 1, 46, 0
3, 17160, Note_on_c, 1, 42, 64
3, 17220, Note_on_c, 1, 42, 0
3, 17220, Note_on_c, 1, 51, 64
3, 17270, Note_on_c, 1, 51, 0
3, 17280, Note_on_c, 1, 51, 64
3, 17460, Note_on_c, 1, 51, 0
3, 17460, Note_on_c, 1, 49, 64
3, 17640, Note_on_c, 1, 49, 0
3, 17640, Note_on_c, 1, 47, 64
3, 17820, Note_on_c, 1, 47, 0
3, 17820, Note_on_c, 1, 46, 64
3, 18000, Note_on_c, 1, 46, 0
3, 18000, Note_on_c, 1, 44, 64
3, 18060, Note_on_c, 1, 44, 0
3, 18060, Note_on_c, 1, 47, 64
3, 18120, Note_on_c, 1, 47, 0
3, 18120, Note_on_c, 1, 51, 64
3, 18180, Note_on_c, 1, 51, 0
3, 18180, Note_on_c, 1, 47, 64
3, 18240, Note_on_c, 1, 47, 0
3, 18240, Note_on_c, 1, 44, 64
3, 18300, Note_on_c, 1, 44, 0
3, 18300, Note_on_c, 1, 53, 64
3, 18360, Note_on_c, 1, 53, 0
3, 18360, Note_on_c, 1, 37, 64
3, 18900, Note_on_c, 1, 37, 0
3, 18900, Note_on_c, 1, 49, 64
3, 19080, Note_on_c, 1, 49, 0
3, 19080, Note_on_c, 1, 37, 64
3, 19260, Note_on_c, 1, 37, 0
3, 19260, Note_on_c, 1, 49, 64
3, 19440, Note_on_c, 1, 49, 0
3, 19440, Note_on_c, 1, 37, 64
3, 19620, Note_on_c, 1, 37, 0
3, 19620, Note_on_c, 1, 53, 64
3, 19800, Note_on_c, 1, 53, 0
3, 19800, Note_on_c, 1, 56, 64
3, 19980, Note_on_c, 1, 56, 0
3, 19980, Note_on_c, 1, 61, 64
3, 20160, Note_on_c, 1, 61, 0
3, 20160, Note_on_c, 1, 54, 64
3, 20340, Note_on_c, 1, 54, 0
3, 20340, Note_on_c, 1, 49, 64
3, 20520, Note_on_c, 1, 49, 0
3, 20520, Note_on_c, 1, 51, 64
3, 20700, Note_on_c, 1, 51, 0
3, 20700, Note_on_c, 1, 46, 64
3, 20880, Note_on_c, 1, 46, 0
3, 20880, Note_on_c, 1, 47, 64
3, 21060, Note_on_c, 1, 47, 0
3, 21060, Note_on_c, 1, 49, 64
3, 21240, Note_on_c, 1, 49, 0
3, 21240, Note_on_c, 1, 42, 64
3, 21600, Note_on_c, 1, 42, 0
3, 21600, End_track
4, 0, Start_track
4, 0, End_track
0, 0, End_of_file
