0, 0, Header, 1, 6, 1024
1, 0, Start_track
1, 0, Time_signature, 2, 1, 48, 8
1, 0, Key_signature, -1, "minor"
1, 0, Tempo, 434782
1, 376832, End_track
2, 0, Start_track
2, 0, Title_t, "Instrument 1"
2, 0, Note_on_c, 0, 67, 96
2, 512, Note_off_c, 0, 67, 0
2, 512, Note_on_c, 0, 66, 96
2, 1024, Note_off_c, 0, 66, 0
2, 1024, Note_on_c, 0, 67, 96
2, 1536, Note_off_c, 0, 67, 0
2, 1536, Note_on_c, 0, 62, 96
2, 2048, Note_off_c, 0, 62, 0
2, 2048, Note_on_c, 0, 74, 96
2, 2560, Note_off_c, 0, 74, 0
2, 2560, Note_on_c, 0, 69, 96
2, 3072, Note_off_c, 0, 69, 0
2, 3072, Note_on_c, 0, 70, 96
2, 3584, Note_off_c, 0, 70, 0
2, 3584, Note_on_c, 0, 67, 96
2, 4096, Note_off_c, 0, 67, 0
2, 4096, Note_on_c, 0, 66, 96
2, 4608, Note_off_c, 0, 66, 0
2, 4608, Note_on_c, 0, 64, 96
2, 5120, Note_off_c, 0, 64, 0
2, 5120, Note_on_c, 0, 66, 96
2, 5632, Note_off_c, 0, 66, 0
2, 5632, Note_on_c, 0, 62, 96
2, 6144, Note_off_c, 0, 62, 0
2, 6144, Note_on_c, 0, 74, 96
2, 6656, Note_off_c, 0, 74, 0
2, 6656, Note_on_c, 0, 69, 96
2, 7168, Note_off_c, 0, 69, 0
2, 7168, Note_on_c, 0, 70, 96
2, 7680, Note_off_c, 0, 70, 0
2, 7680, Note_on_c, 0, 67, 96
2, 8192, Note_off_c, 0, 67, 0
2, 8192, Note_on_c, 0, 75, 96
2, 8704, Note_off_c, 0, 75, 0
2, 8704, Note_on_c, 0, 69, 96
2, 9216, Note_off_c, 0, 69, 0
2, 9216, Note_on_c, 0, 70, 96
2, 9728, Note_off_c, 0, 70, 0
2, 9728, Note_on_c, 0, 67, 96
2, 10240, Note_off_c, 0, 67, 0
2, 10240, Note_on_c, 0, 66, 96
2, 10752, Note_off_c, 0, 66, 0
2, 10752, Note_on_c, 0, 74, 96
2, 11264, Note_off_c, 0, 74, 0
2, 11264, Note_on_c, 0, 69, 96
2, 11776, Note_off_c, 0, 69, 0
2, 11776, Note_on_c, 0, 72, 96
2, 12288, Note_off_c, 0, 72, 0
2, 12288, Note_on_c, 0, 70, 96
2, 13312, Note_off_c, 0, 70, 0
2, 13312, Note_on_c, 0, 74, 96
2, 14336, Note_off_c, 0, 74, 0
2, 14336, Note_on_c, 0, 73, 96
2, 15360, Note_off_c, 0, 73, 0
2, 15360, Note_on_c, 0, 74, 96
2, 16384, Note_off_c, 0, 74, 0
2, 16384, Note_on_c, 0, 76, 96
2, 17408, Note_off_c, 0, 76, 0
2, 17408, Note_on_c, 0, 81, 96
2, 18432, Note_off_c, 0, 81, 0
2, 18432, Note_on_c, 0, 73, 96
2, 19456, Note_off_c, 0, 73, 0
2, 19456, Note_on_c, 0, 74, 96
2, 20480, Note_off_c, 0, 74, 0
2, 20480, Note_on_c, 0, 79, 96
2, 21504, Note_off_c, 0, 79, 0
2, 21504, Note_on_c, 0, 81, 96
2, 22016, Note_off_c, 0, 81, 0
2, 22016, Note_on_c, 0, 82, 96
2, 22528, Note_off_c, 0, 82, 0
2, 22528, Note_on_c, 0, 81, 96
2, 23040, Note_off_c, 0, 81, 0
2, 23040, Note_on_c, 0, 77, 96
2, 23552, Note_off_c, 0, 77, 0
2, 23552, Note_on_c, 0, 79, 96
2, 24064, Note_off_c, 0, 79, 0
2, 24064, Note_on_c, 0, 76, 96
2, 24576, Note_off_c, 0, 76, 0
2, 24576, Note_on_c, 0, 74, 96
2, 25088, Note_off_c, 0, 74, 0
2, 25088, Note_on_c, 0, 76, 96
2, 25600, Note_off_c, 0, 76, 0
2, 25600, Note_on_c, 0, 77, 96
2, 26112, Note_off_c, 0, 77, 0
2, 26112, Note_on_c, 0, 79, 96
2, 26624, Note_off_c, 0, 79, 0
2, 26624, Note_on_c, 0, 77, 96
2, 27136, Note_off_c, 0, 77, 0
2, 27136, Note_on_c, 0, 75, 96
2, 27648, Note_off_c, 0, 75, 0
2, 27648, Note_on_c, 0, 74, 96
2, 28160, Note_off_c, 0, 74, 0
2, 28160, Note_on_c, 0, 72, 96
2, 28672, Note_off_c, 0, 72, 0
2, 28672, Note_on_c, 0, 71, 96
2, 29696, Note_off_c, 0, 71, 0
2, 29696, Note_on_c, 0, 79, 96
2, 30720, Note_off_c, 0, 79, 0
2, 30720, Note_on_c, 0, 67, 96
2, 31744, Note_off_c, 0, 67, 0
2, 31744, Note_on_c, 0, 71, 96
2, 32768, Note_off_c, 0, 71, 0
2, 32768, Note_on_c, 0, 72, 96
2, 33280, Note_off_c, 0, 72, 0
2, 33280, Note_on_c, 0, 74, 96
2, 33792, Note_off_c, 0, 74, 0
2, 33792, Note_on_c, 0, 75, 96
2, 34304, Note_off_c, 0, 75, 0
2, 34304, Note_on_c, 0, 77, 96
2, 34816, Note_off_c, 0, 77, 0
2, 34816, Note_on_c, 0, 75, 96
2, 35328, Note_off_c, 0, 75, 0
2, 35328, Note_on_c, 0, 74, 96
2, 35840, Note_off_c, 0, 74, 0
2, 35840, Note_on_c, 0, 72, 96
2, 36352, Note_off_c, 0, 72, 0
2, 36352, Note_on_c, 0, 70, 96
2, 36864, Note_off_c, 0, 70, 0
2, 36864, Note_on_c, 0, 69, 96
2, 37888, Note_off_c, 0, 69, 0
2, 37888, Note_on_c, 0, 77, 96
2, 38912, Note_off_c, 0, 77, 0
2, 38912, Note_on_c, 0, 65, 96
2, 39936, Note_off_c, 0, 65, 0
2, 39936, Note_on_c, 0, 69, 96
2, 40960, Note_off_c, 0, 69, 0
2, 40960, Note_on_c, 0, 70, 96
2, 41472, Note_off_c, 0, 70, 0
2, 41472, Note_on_c, 0, 72, 96
2, 41984, Note_off_c, 0, 72, 0
2, 41984, Note_on_c, 0, 74, 96
2, 42496, Note_off_c, 0, 74, 0
2, 42496, Note_on_c, 0, 75, 96
2, 43008, Note_off_c, 0, 75, 0
2, 43008, Note_on_c, 0, 74, 96
2, 43520, Note_off_c, 0, 74, 0
2, 43520, Note_on_c, 0, 72, 96
2, 44032, Note_off_c, 0, 72, 0
2, 44032, Note_on_c, 0, 70, 96
2, 44544, Note_off_c, 0, 70, 0
2, 44544, Note_on_c, 0, 69, 96
2, 45056, Note_off_c, 0, 69, 0
2, 45056, Note_on_c, 0, 67, 96
2, 45568, Note_off_c, 0, 67, 0
2, 45568, Note_on_c, 0, 70, 96
2, 46080, Note_off_c, 0, 70, 0
2, 46080, Note_on_c, 0, 72, 96
2, 46592, Note_off_c, 0, 72, 0
2, 46592, Note_on_c, 0, 74, 96
2, 47104, Note_off_c, 0, 74, 0
2, 47104, Note_on_c, 0, 72, 96
2, 47616, Note_off_c, 0, 72, 0
2, 47616, Note_on_c, 0, 70, 96
2, 48128, Note_off_c, 0, 70, 0
2, 48128, Note_on_c, 0, 69, 96
2, 48640, Note_off_c, 0, 69, 0
2, 48640, Note_on_c, 0, 67, 96
2, 49152, Note_off_c, 0, 67, 0
2, 49152, Note_on_c, 0, 66, 96
2, 50176, Note_off_c, 0, 66, 0
2, 50176, Note_on_c, 0, 74, 96
2, 51200, Note_off_c, 0, 74, 0
2, 51200, Note_on_c, 0, 62, 96
2, 52224, Note_off_c, 0, 62, 0
2, 52224, Note_on_c, 0, 66, 96
2, 53248, Note_off_c, 0, 66, 0
2, 53248, Note_on_c, 0, 67, 96
2, 54272, Note_off_c, 0, 67, 0
2, 54272, Note_on_c, 0, 75, 96
2, 55296, Note_off_c, 0, 75, 0
2, 55296, Note_on_c, 0, 69, 96
2, 56320, Note_off_c, 0, 69, 0
2, 56320, Note_on_c, 0, 74, 96
2, 57344, Note_off_c, 0, 74, 0
2, 57344, Note_on_c, 0, 70, 96
2, 59392, Note_off_c, 0, 70, 0
2, 59392, Note_on_c, 0, 69, 96
2, 60416, Note_off_c, 0, 69, 0
2, 60416, Note_on_c, 0, 74, 96
2, 61440, Note_off_c, 0, 74, 0
2, 61440, Note_on_c, 0, 72, 96
2, 62464, Note_off_c, 0, 72, 0
2, 64512, Note_on_c, 0, 70, 96
2, 65536, Note_off_c, 0, 70, 0
2, 65536, Note_on_c, 0, 66, 96
2, 66560, Note_off_c, 0, 66, 0
2, 68608, Note_on_c, 0, 78, 96
2, 69632, Note_off_c, 0, 78, 0
2, 69632, Note_on_c, 0, 79, 96
2, 70144, Note_off_c, 0, 79, 0
2, 70144, Note_on_c, 0, 81, 96
2, 70656, Note_off_c, 0, 81, 0
2, 70656, Note_on_c, 0, 82, 96
2, 71168, Note_off_c, 0, 82, 0
2, 71168, Note_on_c, 0, 84, 96
2, 71680, Note_off_c, 0, 84, 0
2, 71680, Note_on_c, 0, 82, 96
2, 72192, Note_off_c, 0, 82, 0
2, 72192, Note_on_c, 0, 81, 96
2, 72704, Note_off_c, 0, 81, 0
2, 72704, Note_on_c, 0, 79, 96
2, 73216, Note_off_c, 0, 79, 0
2, 73216, Note_on_c, 0, 77, 96
2, 73728, Note_off_c, 0, 77, 0
2, 73728, Note_on_c, 0, 75, 96
2, 74752, Note_off_c, 0, 75, 0
2, 74752, Note_on_c, 0, 84, 96
2, 75776, Note_off_c, 0, 84, 0
2, 75776, Note_on_c, 0, 72, 96
2, 76800, Note_off_c, 0, 72, 0
2, 76800, Note_on_c, 0, 76, 96
2, 77824, Note_off_c, 0, 76, 0
2, 77824, Note_on_c, 0, 77, 96
2, 78336, Note_off_c, 0, 77, 0
2, 78336, Note_on_c, 0, 79, 96
2, 78848, Note_off_c, 0, 79, 0
2, 78848, Note_on_c, 0, 81, 96
2, 79360, Note_off_c, 0, 81, 0
2, 79360, Note_on_c, 0, 82, 96
2, 79872, Note_off_c, 0, 82, 0
2, 79872, Note_on_c, 0, 81, 96
2, 80384, Note_off_c, 0, 81, 0
2, 80384, Note_on_c, 0, 79, 96
2, 80896, Note_off_c, 0, 79, 0
2, 80896, Note_on_c, 0, 77, 96
2, 81408, Note_off_c, 0, 77, 0
2, 81408, Note_on_c, 0, 75, 96
2, 81920, Note_off_c, 0, 75, 0
2, 81920, Note_on_c, 0, 74, 96
2, 82944, Note_off_c, 0, 74, 0
2, 82944, Note_on_c, 0, 82, 96
2, 83968, Note_off_c, 0, 82, 0
2, 83968, Note_on_c, 0, 70, 96
2, 84992, Note_off_c, 0, 70, 0
2, 84992, Note_on_c, 0, 74, 96
2, 86016, Note_off_c, 0, 74, 0
2, 86016, Note_on_c, 0, 75, 96
2, 87040, Note_off_c, 0, 75, 0
2, 87040, Note_on_c, 0, 79, 96
2, 88064, Note_off_c, 0, 79, 0
2, 88064, Note_on_c, 0, 72, 96
2, 89088, Note_off_c, 0, 72, 0
2, 89088, Note_on_c, 0, 76, 96
2, 90112, Note_off_c, 0, 76, 0
2, 90112, Note_on_c, 0, 77, 96
2, 91136, Note_off_c, 0, 77, 0
2, 91136, Note_on_c, 0, 81, 96
2, 92160, Note_off_c, 0, 81, 0
2, 92160, Note_on_c, 0, 74, 96
2, 93184, Note_off_c, 0, 74, 0
2, 93184, Note_on_c, 0, 78, 96
2, 94208, Note_off_c, 0, 78, 0
2, 94208, Note_on_c, 0, 79, 96
2, 96256, Note_off_c, 0, 79, 0
2, 98304, Note_on_c, 0, 74, 96
2, 98816, Note_off_c, 0, 74, 0
2, 98816, Note_on_c, 0, 72, 96
2, 99328, Note_off_c, 0, 72, 0
2, 99328, Note_on_c, 0, 74, 96
2, 99840, Note_off_c, 0, 74, 0
2, 99840, Note_on_c, 0, 75, 96
2, 100352, Note_off_c, 0, 75, 0
2, 100352, Note_on_c, 0, 74, 96
2, 100864, Note_off_c, 0, 74, 0
2, 100864, Note_on_c, 0, 70, 96
2, 101376, Note_off_c, 0, 70, 0
2, 101376, Note_on_c, 0, 72, 96
2, 101888, Note_off_c, 0, 72, 0
2, 101888, Note_on_c, 0, 69, 96
2, 102400, Note_off_c, 0, 69, 0
2, 102400, Note_on_c, 0, 67, 96
2, 103424, Note_off_c, 0, 67, 0
2, 103424, Note_on_c, 0, 70, 96
2, 104448, Note_off_c, 0, 70, 0
2, 104448, Note_on_c, 0, 72, 96
2, 105472, Note_off_c, 0, 72, 0
2, 105472, Note_on_c, 0, 75, 96
2, 106496, Note_off_c, 0, 75, 0
2, 106496, Note_on_c, 0, 65, 96
2, 107520, Note_off_c, 0, 65, 0
2, 110592, Note_on_c, 0, 74, 96
2, 111104, Note_off_c, 0, 74, 0
2, 111104, Note_on_c, 0, 72, 96
2, 111616, Note_off_c, 0, 72, 0
2, 111616, Note_on_c, 0, 74, 96
2, 112128, Note_off_c, 0, 74, 0
2, 112128, Note_on_c, 0, 67, 96
2, 112640, Note_off_c, 0, 67, 0
2, 112640, Note_on_c, 0, 79, 96
2, 113152, Note_off_c, 0, 79, 0
2, 113152, Note_on_c, 0, 74, 96
2, 113664, Note_off_c, 0, 74, 0
2, 113664, Note_on_c, 0, 75, 96
2, 114176, Note_off_c, 0, 75, 0
2, 114176, Note_on_c, 0, 72, 96
2, 114688, Note_off_c, 0, 72, 0
2, 114688, Note_on_c, 0, 71, 96
2, 115200, Note_off_c, 0, 71, 0
2, 115200, Note_on_c, 0, 69, 96
2, 115712, Note_off_c, 0, 69, 0
2, 115712, Note_on_c, 0, 71, 96
2, 116224, Note_off_c, 0, 71, 0
2, 116224, Note_on_c, 0, 67, 96
2, 116736, Note_off_c, 0, 67, 0
2, 116736, Note_on_c, 0, 79, 96
2, 117248, Note_off_c, 0, 79, 0
2, 117248, Note_on_c, 0, 74, 96
2, 117760, Note_off_c, 0, 74, 0
2, 117760, Note_on_c, 0, 75, 96
2, 118272, Note_off_c, 0, 75, 0
2, 118272, Note_on_c, 0, 72, 96
2, 118784, Note_off_c, 0, 72, 0
2, 118784, Note_on_c, 0, 81, 96
2, 119296, Note_off_c, 0, 81, 0
2, 119296, Note_on_c, 0, 74, 96
2, 119808, Note_off_c, 0, 74, 0
2, 119808, Note_on_c, 0, 75, 96
2, 120320, Note_off_c, 0, 75, 0
2, 120320, Note_on_c, 0, 72, 96
2, 120832, Note_off_c, 0, 72, 0
2, 120832, Note_on_c, 0, 71, 96
2, 121344, Note_off_c, 0, 71, 0
2, 121344, Note_on_c, 0, 79, 96
2, 121856, Note_off_c, 0, 79, 0
2, 121856, Note_on_c, 0, 74, 96
2, 122368, Note_off_c, 0, 74, 0
2, 122368, Note_on_c, 0, 77, 96
2, 122880, Note_off_c, 0, 77, 0
2, 122880, Note_on_c, 0, 75, 96
2, 128000, Note_off_c, 0, 75, 0
2, 128000, Note_on_c, 0, 72, 96
2, 129024, Note_off_c, 0, 72, 0
2, 129024, Note_on_c, 0, 69, 96
2, 130048, Note_off_c, 0, 69, 0
2, 130048, Note_on_c, 0, 72, 96
2, 131072, Note_off_c, 0, 72, 0
2, 131072, Note_on_c, 0, 74, 96
2, 136192, Note_off_c, 0, 74, 0
2, 136192, Note_on_c, 0, 70, 96
2, 137216, Note_off_c, 0, 70, 0
2, 137216, Note_on_c, 0, 67, 96
2, 138240, Note_off_c, 0, 67, 0
2, 138240, Note_on_c, 0, 70, 96
2, 139264, Note_off_c, 0, 70, 0
2, 139264, Note_on_c, 0, 72, 96
2, 145920, Note_off_c, 0, 72, 0
2, 145920, Note_on_c, 0, 69, 96
2, 146432, Note_off_c, 0, 69, 0
2, 146432, Note_on_c, 0, 70, 96
2, 146944, Note_off_c, 0, 70, 0
2, 146944, Note_on_c, 0, 72, 96
2, 147456, Note_off_c, 0, 72, 0
2, 147456, Note_on_c, 0, 70, 96
2, 147968, Note_off_c, 0, 70, 0
2, 147968, Note_on_c, 0, 69, 96
2, 148480, Note_off_c, 0, 69, 0
2, 148480, Note_on_c, 0, 67, 96
2, 148992, Note_off_c, 0, 67, 0
2, 148992, Note_on_c, 0, 66, 96
2, 149504, Note_off_c, 0, 66, 0
2, 149504, Note_on_c, 0, 67, 96
2, 150016, Note_off_c, 0, 67, 0
2, 150016, Note_on_c, 0, 62, 96
2, 150528, Note_off_c, 0, 62, 0
2, 150528, Note_on_c, 0, 63, 96
2, 151040, Note_off_c, 0, 63, 0
2, 151040, Note_on_c, 0, 65, 96
2, 151552, Note_off_c, 0, 65, 0
2, 151552, Note_on_c, 0, 63, 96
2, 154112, Note_off_c, 0, 63, 0
2, 154112, Note_on_c, 0, 67, 96
2, 154624, Note_off_c, 0, 67, 0
2, 154624, Note_on_c, 0, 65, 96
2, 155136, Note_off_c, 0, 65, 0
2, 155136, Note_on_c, 0, 63, 96
2, 155648, Note_off_c, 0, 63, 0
2, 155648, Note_on_c, 0, 62, 96
2, 156672, Note_off_c, 0, 62, 0
2, 156672, Note_on_c, 0, 64, 96
2, 157184, Note_off_c, 0, 64, 0
2, 157184, Note_on_c, 0, 66, 96
2, 157696, Note_off_c, 0, 66, 0
2, 157696, Note_on_c, 0, 67, 96
2, 160256, Note_off_c, 0, 67, 0
2, 160256, Note_on_c, 0, 69, 96
2, 160768, Note_off_c, 0, 69, 0
2, 160768, Note_on_c, 0, 70, 96
2, 161280, Note_off_c, 0, 70, 0
2, 161280, Note_on_c, 0, 69, 96
2, 161792, Note_off_c, 0, 69, 0
2, 161792, Note_on_c, 0, 70, 96
2, 162304, Note_off_c, 0, 70, 0
2, 162304, Note_on_c, 0, 72, 96
2, 162816, Note_off_c, 0, 72, 0
2, 162816, Note_on_c, 0, 74, 96
2, 163328, Note_off_c, 0, 74, 0
2, 163328, Note_on_c, 0, 70, 96
2, 163840, Note_off_c, 0, 70, 0
2, 163840, Note_on_c, 0, 75, 96
2, 164352, Note_off_c, 0, 75, 0
2, 164352, Note_on_c, 0, 79, 96
2, 164864, Note_off_c, 0, 79, 0
2, 164864, Note_on_c, 0, 77, 96
2, 165376, Note_off_c, 0, 77, 0
2, 165376, Note_on_c, 0, 75, 96
2, 165888, Note_off_c, 0, 75, 0
2, 165888, Note_on_c, 0, 74, 96
2, 166400, Note_off_c, 0, 74, 0
2, 166400, Note_on_c, 0, 72, 96
2, 166912, Note_off_c, 0, 72, 0
2, 166912, Note_on_c, 0, 70, 96
2, 167424, Note_off_c, 0, 70, 0
2, 167424, Note_on_c, 0, 69, 96
2, 167936, Note_off_c, 0, 69, 0
2, 167936, Note_on_c, 0, 70, 96
2, 168448, Note_off_c, 0, 70, 0
2, 168448, Note_on_c, 0, 69, 96
2, 168960, Note_off_c, 0, 69, 0
2, 168960, Note_on_c, 0, 70, 96
2, 169472, Note_off_c, 0, 70, 0
2, 169472, Note_on_c, 0, 65, 96
2, 169984, Note_off_c, 0, 65, 0
2, 169984, Note_on_c, 0, 77, 96
2, 170496, Note_off_c, 0, 77, 0
2, 170496, Note_on_c, 0, 72, 96
2, 171008, Note_off_c, 0, 72, 0
2, 171008, Note_on_c, 0, 74, 96
2, 171520, Note_off_c, 0, 74, 0
2, 171520, Note_on_c, 0, 70, 96
2, 172032, Note_off_c, 0, 70, 0
2, 172032, Note_on_c, 0, 69, 96
2, 172544, Note_off_c, 0, 69, 0
2, 172544, Note_on_c, 0, 67, 96
2, 173056, Note_off_c, 0, 67, 0
2, 173056, Note_on_c, 0, 69, 96
2, 173568, Note_off_c, 0, 69, 0
2, 173568, Note_on_c, 0, 65, 96
2, 174080, Note_off_c, 0, 65, 0
2, 174080, Note_on_c, 0, 77, 96
2, 174592, Note_off_c, 0, 77, 0
2, 174592, Note_on_c, 0, 72, 96
2, 175104, Note_off_c, 0, 72, 0
2, 175104, Note_on_c, 0, 74, 96
2, 175616, Note_off_c, 0, 74, 0
2, 175616, Note_on_c, 0, 70, 96
2, 176128, Note_off_c, 0, 70, 0
2, 176128, Note_on_c, 0, 79, 96
2, 176640, Note_off_c, 0, 79, 0
2, 176640, Note_on_c, 0, 72, 96
2, 177152, Note_off_c, 0, 72, 0
2, 177152, Note_on_c, 0, 74, 96
2, 177664, Note_off_c, 0, 74, 0
2, 177664, Note_on_c, 0, 70, 96
2, 178176, Note_off_c, 0, 70, 0
2, 178176, Note_on_c, 0, 69, 96
2, 178688, Note_off_c, 0, 69, 0
2, 178688, Note_on_c, 0, 77, 96
2, 179200, Note_off_c, 0, 77, 0
2, 179200, Note_on_c, 0, 72, 96
2, 179712, Note_off_c, 0, 72, 0
2, 179712, Note_on_c, 0, 75, 96
2, 180224, Note_off_c, 0, 75, 0
2, 180224, Note_on_c, 0, 74, 96
2, 181248, Note_off_c, 0, 74, 0
2, 181248, Note_on_c, 0, 65, 96
2, 182272, Note_off_c, 0, 65, 0
2, 182272, Note_on_c, 0, 63, 96
2, 183296, Note_off_c, 0, 63, 0
2, 183296, Note_on_c, 0, 62, 96
2, 184320, Note_off_c, 0, 62, 0
2, 184320, Note_on_c, 0, 72, 96
2, 184832, Note_off_c, 0, 72, 0
2, 184832, Note_on_c, 0, 74, 96
2, 185344, Note_off_c, 0, 74, 0
2, 185344, Note_on_c, 0, 72, 96
2, 185856, Note_off_c, 0, 72, 0
2, 185856, Note_on_c, 0, 77, 96
2, 186368, Note_off_c, 0, 77, 0
2, 186368, Note_on_c, 0, 65, 96
2, 186880, Note_off_c, 0, 65, 0
2, 186880, Note_on_c, 0, 70, 96
2, 187392, Note_off_c, 0, 70, 0
2, 187392, Note_on_c, 0, 69, 96
2, 187904, Note_off_c, 0, 69, 0
2, 187904, Note_on_c, 0, 72, 96
2, 188416, Note_off_c, 0, 72, 0
2, 188416, Note_on_c, 0, 64, 96
2, 188928, Note_off_c, 0, 64, 0
2, 188928, Note_on_c, 0, 70, 96
2, 189440, Note_off_c, 0, 70, 0
2, 189440, Note_on_c, 0, 69, 96
2, 189952, Note_off_c, 0, 69, 0
2, 189952, Note_on_c, 0, 72, 96
2, 190464, Note_off_c, 0, 72, 0
2, 190464, Note_on_c, 0, 70, 96
2, 190976, Note_off_c, 0, 70, 0
2, 190976, Note_on_c, 0, 65, 96
2, 191488, Note_off_c, 0, 65, 0
2, 191488, Note_on_c, 0, 70, 96
2, 192000, Note_off_c, 0, 70, 0
2, 192000, Note_on_c, 0, 67, 96
2, 192512, Note_off_c, 0, 67, 0
2, 192512, Note_on_c, 0, 65, 96
2, 193536, Note_off_c, 0, 65, 0
2, 193536, Note_on_c, 0, 77, 96
2, 194560, Note_off_c, 0, 77, 0
2, 194560, Note_on_c, 0, 79, 96
2, 195584, Note_off_c, 0, 79, 0
2, 195584, Note_on_c, 0, 77, 96
2, 196608, Note_off_c, 0, 77, 0
2, 196608, Note_on_c, 0, 75, 96
2, 197632, Note_off_c, 0, 75, 0
2, 197632, Note_on_c, 0, 70, 96
2, 198656, Note_off_c, 0, 70, 0
2, 198656, Note_on_c, 0, 79, 96
2, 199680, Note_off_c, 0, 79, 0
2, 199680, Note_on_c, 0, 77, 96
2, 200704, Note_off_c, 0, 77, 0
2, 200704, Note_on_c, 0, 72, 96
2, 201728, Note_off_c, 0, 72, 0
2, 201728, Note_on_c, 0, 70, 96
2, 202240, Note_off_c, 0, 70, 0
2, 202240, Note_on_c, 0, 69, 96
2, 202752, Note_off_c, 0, 69, 0
2, 202752, Note_on_c, 0, 70, 96
2, 203264, Note_off_c, 0, 70, 0
2, 203264, Note_on_c, 0, 74, 96
2, 203776, Note_off_c, 0, 74, 0
2, 203776, Note_on_c, 0, 72, 96
2, 204288, Note_off_c, 0, 72, 0
2, 204288, Note_on_c, 0, 75, 96
2, 204800, Note_off_c, 0, 75, 0
2, 204800, Note_on_c, 0, 77, 96
2, 205312, Note_off_c, 0, 77, 0
2, 205312, Note_on_c, 0, 75, 96
2, 205824, Note_off_c, 0, 75, 0
2, 205824, Note_on_c, 0, 74, 96
2, 206336, Note_off_c, 0, 74, 0
2, 206336, Note_on_c, 0, 72, 96
2, 206848, Note_off_c, 0, 72, 0
2, 206848, Note_on_c, 0, 74, 96
2, 207360, Note_off_c, 0, 74, 0
2, 207360, Note_on_c, 0, 76, 96
2, 207872, Note_off_c, 0, 76, 0
2, 207872, Note_on_c, 0, 77, 96
2, 208384, Note_off_c, 0, 77, 0
2, 208384, Note_on_c, 0, 79, 96
2, 208896, Note_off_c, 0, 79, 0
2, 208896, Note_on_c, 0, 81, 96
2, 209920, Note_off_c, 0, 81, 0
2, 209920, Note_on_c, 0, 72, 96
2, 210944, Note_off_c, 0, 72, 0
2, 210944, Note_on_c, 0, 84, 96
2, 211968, Note_off_c, 0, 84, 0
2, 211968, Note_on_c, 0, 81, 96
2, 212992, Note_off_c, 0, 81, 0
2, 212992, Note_on_c, 0, 79, 96
2, 213504, Note_off_c, 0, 79, 0
2, 213504, Note_on_c, 0, 77, 96
2, 214016, Note_off_c, 0, 77, 0
2, 214016, Note_on_c, 0, 75, 96
2, 214528, Note_off_c, 0, 75, 0
2, 214528, Note_on_c, 0, 74, 96
2, 215040, Note_off_c, 0, 74, 0
2, 215040, Note_on_c, 0, 75, 96
2, 215552, Note_off_c, 0, 75, 0
2, 215552, Note_on_c, 0, 77, 96
2, 216064, Note_off_c, 0, 77, 0
2, 216064, Note_on_c, 0, 79, 96
2, 216576, Note_off_c, 0, 79, 0
2, 216576, Note_on_c, 0, 81, 96
2, 217088, Note_off_c, 0, 81, 0
2, 217088, Note_on_c, 0, 82, 96
2, 217600, Note_off_c, 0, 82, 0
2, 217600, Note_on_c, 0, 81, 96
2, 218112, Note_off_c, 0, 81, 0
2, 218112, Note_on_c, 0, 79, 96
2, 218624, Note_off_c, 0, 79, 0
2, 218624, Note_on_c, 0, 78, 96
2, 219136, Note_off_c, 0, 78, 0
2, 219136, Note_on_c, 0, 79, 96
2, 219648, Note_off_c, 0, 79, 0
2, 219648, Note_on_c, 0, 82, 96
2, 220160, Note_off_c, 0, 82, 0
2, 220160, Note_on_c, 0, 81, 96
2, 220672, Note_off_c, 0, 81, 0
2, 220672, Note_on_c, 0, 79, 96
2, 221184, Note_off_c, 0, 79, 0
2, 221184, Note_on_c, 0, 77, 96
2, 221696, Note_off_c, 0, 77, 0
2, 221696, Note_on_c, 0, 75, 96
2, 222208, Note_off_c, 0, 75, 0
2, 222208, Note_on_c, 0, 74, 96
2, 222720, Note_off_c, 0, 74, 0
2, 222720, Note_on_c, 0, 72, 96
2, 223232, Note_off_c, 0, 72, 0
2, 223232, Note_on_c, 0, 71, 96
2, 223744, Note_off_c, 0, 71, 0
2, 225792, Note_on_c, 0, 74, 96
2, 226304, Note_off_c, 0, 74, 0
2, 226304, Note_on_c, 0, 72, 96
2, 226816, Note_off_c, 0, 72, 0
2, 226816, Note_on_c, 0, 70, 96
2, 227328, Note_off_c, 0, 70, 0
2, 227328, Note_on_c, 0, 69, 96
2, 227840, Note_off_c, 0, 69, 0
2, 230400, Note_on_c, 0, 74, 96
2, 231424, Note_off_c, 0, 74, 0
2, 231424, Note_on_c, 0, 75, 96
2, 231936, Note_off_c, 0, 75, 0
2, 231936, Note_on_c, 0, 74, 96
2, 232448, Note_off_c, 0, 74, 0
2, 232448, Note_on_c, 0, 75, 96
2, 232960, Note_off_c, 0, 75, 0
2, 232960, Note_on_c, 0, 72, 96
2, 233472, Note_off_c, 0, 72, 0
2, 233472, Note_on_c, 0, 77, 96
2, 233984, Note_off_c, 0, 77, 0
2, 233984, Note_on_c, 0, 75, 96
2, 234496, Note_off_c, 0, 75, 0
2, 234496, Note_on_c, 0, 77, 96
2, 235008, Note_off_c, 0, 77, 0
2, 235008, Note_on_c, 0, 74, 96
2, 235520, Note_off_c, 0, 74, 0
2, 235520, Note_on_c, 0, 79, 96
2, 238080, Note_off_c, 0, 79, 0
2, 238080, Note_on_c, 0, 78, 96
2, 238592, Note_off_c, 0, 78, 0
2, 238592, Note_on_c, 0, 79, 96
2, 240128, Note_off_c, 0, 79, 0
2, 240128, Note_on_c, 0, 81, 96
2, 240640, Note_off_c, 0, 81, 0
2, 240640, Note_on_c, 0, 78, 96
2, 241664, Note_off_c, 0, 78, 0
2, 241664, Note_on_c, 0, 79, 96
2, 242688, Note_off_c, 0, 79, 0
2, 242688, Note_on_c, 0, 74, 96
2, 243712, Note_off_c, 0, 74, 0
2, 243712, Note_on_c, 0, 75, 96
2, 244736, Note_off_c, 0, 75, 0
2, 244736, Note_on_c, 0, 74, 96
2, 245760, Note_off_c, 0, 74, 0
2, 245760, Note_on_c, 0, 72, 96
2, 246784, Note_off_c, 0, 72, 0
2, 246784, Note_on_c, 0, 67, 96
2, 247808, Note_off_c, 0, 67, 0
2, 247808, Note_on_c, 0, 75, 96
2, 248832, Note_off_c, 0, 75, 0
2, 248832, Note_on_c, 0, 74, 96
2, 249856, Note_off_c, 0, 74, 0
2, 249856, Note_on_c, 0, 69, 96
2, 250880, Note_off_c, 0, 69, 0
2, 250880, Note_on_c, 0, 67, 96
2, 251392, Note_off_c, 0, 67, 0
2, 251392, Note_on_c, 0, 66, 96
2, 251904, Note_off_c, 0, 66, 0
2, 251904, Note_on_c, 0, 67, 96
2, 252416, Note_off_c, 0, 67, 0
2, 252416, Note_on_c, 0, 70, 96
2, 252928, Note_off_c, 0, 70, 0
2, 252928, Note_on_c, 0, 69, 96
2, 253440, Note_off_c, 0, 69, 0
2, 253440, Note_on_c, 0, 72, 96
2, 253952, Note_off_c, 0, 72, 0
2, 253952, Note_on_c, 0, 74, 96
2, 260096, Note_off_c, 0, 74, 0
2, 278528, Note_on_c, 0, 74, 96
2, 279040, Note_off_c, 0, 74, 0
2, 279040, Note_on_c, 0, 76, 96
2, 279552, Note_off_c, 0, 76, 0
2, 279552, Note_on_c, 0, 74, 96
2, 280064, Note_off_c, 0, 74, 0
2, 280064, Note_on_c, 0, 81, 96
2, 280576, Note_off_c, 0, 81, 0
2, 280576, Note_on_c, 0, 69, 96
2, 281088, Note_off_c, 0, 69, 0
2, 281088, Note_on_c, 0, 73, 96
2, 281600, Note_off_c, 0, 73, 0
2, 281600, Note_on_c, 0, 71, 96
2, 282112, Note_off_c, 0, 71, 0
2, 282112, Note_on_c, 0, 74, 96
2, 282624, Note_off_c, 0, 74, 0
2, 282624, Note_on_c, 0, 76, 96
2, 283136, Note_off_c, 0, 76, 0
2, 283136, Note_on_c, 0, 77, 96
2, 283648, Note_off_c, 0, 77, 0
2, 283648, Note_on_c, 0, 76, 96
2, 284160, Note_off_c, 0, 76, 0
2, 284160, Note_on_c, 0, 81, 96
2, 284672, Note_off_c, 0, 81, 0
2, 284672, Note_on_c, 0, 69, 96
2, 285184, Note_off_c, 0, 69, 0
2, 285184, Note_on_c, 0, 74, 96
2, 285696, Note_off_c, 0, 74, 0
2, 285696, Note_on_c, 0, 73, 96
2, 286208, Note_off_c, 0, 73, 0
2, 286208, Note_on_c, 0, 76, 96
2, 286720, Note_off_c, 0, 76, 0
2, 286720, Note_on_c, 0, 77, 96
2, 287232, Note_off_c, 0, 77, 0
2, 287232, Note_on_c, 0, 79, 96
2, 287744, Note_off_c, 0, 79, 0
2, 287744, Note_on_c, 0, 77, 96
2, 288256, Note_off_c, 0, 77, 0
2, 288256, Note_on_c, 0, 81, 96
2, 288768, Note_off_c, 0, 81, 0
2, 288768, Note_on_c, 0, 69, 96
2, 289280, Note_off_c, 0, 69, 0
2, 289280, Note_on_c, 0, 76, 96
2, 289792, Note_off_c, 0, 76, 0
2, 289792, Note_on_c, 0, 74, 96
2, 290304, Note_off_c, 0, 74, 0
2, 290304, Note_on_c, 0, 77, 96
2, 290816, Note_off_c, 0, 77, 0
2, 290816, Note_on_c, 0, 73, 96
2, 291328, Note_off_c, 0, 73, 0
2, 291328, Note_on_c, 0, 79, 96
2, 291840, Note_off_c, 0, 79, 0
2, 291840, Note_on_c, 0, 77, 96
2, 292352, Note_off_c, 0, 77, 0
2, 292352, Note_on_c, 0, 81, 96
2, 292864, Note_off_c, 0, 81, 0
2, 292864, Note_on_c, 0, 82, 96
2, 293376, Note_off_c, 0, 82, 0
2, 293376, Note_on_c, 0, 74, 96
2, 293888, Note_off_c, 0, 74, 0
2, 293888, Note_on_c, 0, 79, 96
2, 294400, Note_off_c, 0, 79, 0
2, 294400, Note_on_c, 0, 76, 96
2, 294912, Note_off_c, 0, 76, 0
2, 294912, Note_on_c, 0, 77, 96
2, 299520, Note_off_c, 0, 77, 0
2, 299520, Note_on_c, 0, 75, 96
2, 300032, Note_off_c, 0, 75, 0
2, 300032, Note_on_c, 0, 74, 96
2, 300544, Note_off_c, 0, 74, 0
2, 300544, Note_on_c, 0, 75, 96
2, 301056, Note_off_c, 0, 75, 0
2, 301056, Note_on_c, 0, 77, 96
2, 301568, Note_off_c, 0, 77, 0
2, 301568, Note_on_c, 0, 79, 96
2, 302080, Note_off_c, 0, 79, 0
2, 302080, Note_on_c, 0, 81, 96
2, 302592, Note_off_c, 0, 81, 0
2, 302592, Note_on_c, 0, 83, 96
2, 303104, Note_off_c, 0, 83, 0
2, 303104, Note_on_c, 0, 84, 96
2, 303616, Note_off_c, 0, 84, 0
2, 303616, Note_on_c, 0, 80, 96
2, 304128, Note_off_c, 0, 80, 0
2, 304128, Note_on_c, 0, 79, 96
2, 304640, Note_off_c, 0, 79, 0
2, 304640, Note_on_c, 0, 77, 96
2, 305152, Note_off_c, 0, 77, 0
2, 305152, Note_on_c, 0, 75, 96
2, 305664, Note_off_c, 0, 75, 0
2, 305664, Note_on_c, 0, 74, 96
2, 306176, Note_off_c, 0, 74, 0
2, 306176, Note_on_c, 0, 72, 96
2, 306688, Note_off_c, 0, 72, 0
2, 306688, Note_on_c, 0, 70, 96
2, 307200, Note_off_c, 0, 70, 0
2, 307200, Note_on_c, 0, 69, 96
2, 307712, Note_off_c, 0, 69, 0
2, 307712, Note_on_c, 0, 70, 96
2, 308224, Note_off_c, 0, 70, 0
2, 308224, Note_on_c, 0, 72, 96
2, 308736, Note_off_c, 0, 72, 0
2, 308736, Note_on_c, 0, 70, 96
2, 309248, Note_off_c, 0, 70, 0
2, 309248, Note_on_c, 0, 69, 96
2, 309760, Note_off_c, 0, 69, 0
2, 309760, Note_on_c, 0, 67, 96
2, 310272, Note_off_c, 0, 67, 0
2, 310272, Note_on_c, 0, 65, 96
2, 310784, Note_off_c, 0, 65, 0
2, 310784, Note_on_c, 0, 63, 96
2, 311296, Note_off_c, 0, 63, 0
2, 311296, Note_on_c, 0, 62, 96
2, 312320, Note_off_c, 0, 62, 0
2, 312320, Note_on_c, 0, 70, 96
2, 313344, Note_off_c, 0, 70, 0
2, 313344, Note_on_c, 0, 58, 96
2, 314368, Note_off_c, 0, 58, 0
2, 314368, Note_on_c, 0, 62, 96
2, 315392, Note_off_c, 0, 62, 0
2, 315392, Note_on_c, 0, 63, 96
2, 315904, Note_off_c, 0, 63, 0
2, 315904, Note_on_c, 0, 65, 96
2, 316416, Note_off_c, 0, 65, 0
2, 316416, Note_on_c, 0, 67, 96
2, 316928, Note_off_c, 0, 67, 0
2, 316928, Note_on_c, 0, 68, 96
2, 317440, Note_off_c, 0, 68, 0
2, 317440, Note_on_c, 0, 67, 96
2, 317952, Note_off_c, 0, 67, 0
2, 317952, Note_on_c, 0, 65, 96
2, 318464, Note_off_c, 0, 65, 0
2, 318464, Note_on_c, 0, 63, 96
2, 318976, Note_off_c, 0, 63, 0
2, 318976, Note_on_c, 0, 62, 96
2, 319488, Note_off_c, 0, 62, 0
2, 319488, Note_on_c, 0, 60, 96
2, 320512, Note_off_c, 0, 60, 0
2, 327680, Note_on_c, 0, 67, 96
2, 328192, Note_off_c, 0, 67, 0
2, 328192, Note_on_c, 0, 69, 96
2, 328704, Note_off_c, 0, 69, 0
2, 328704, Note_on_c, 0, 67, 96
2, 329216, Note_off_c, 0, 67, 0
2, 329216, Note_on_c, 0, 74, 96
2, 329728, Note_off_c, 0, 74, 0
2, 329728, Note_on_c, 0, 62, 96
2, 330240, Note_off_c, 0, 62, 0
2, 330240, Note_on_c, 0, 66, 96
2, 330752, Note_off_c, 0, 66, 0
2, 330752, Note_on_c, 0, 64, 96
2, 331264, Note_off_c, 0, 64, 0
2, 331264, Note_on_c, 0, 67, 96
2, 331776, Note_off_c, 0, 67, 0
2, 331776, Note_on_c, 0, 69, 96
2, 332288, Note_off_c, 0, 69, 0
2, 332288, Note_on_c, 0, 70, 96
2, 332800, Note_off_c, 0, 70, 0
2, 332800, Note_on_c, 0, 69, 96
2, 333312, Note_off_c, 0, 69, 0
2, 333312, Note_on_c, 0, 74, 96
2, 333824, Note_off_c, 0, 74, 0
2, 333824, Note_on_c, 0, 62, 96
2, 334336, Note_off_c, 0, 62, 0
2, 334336, Note_on_c, 0, 67, 96
2, 334848, Note_off_c, 0, 67, 0
2, 334848, Note_on_c, 0, 66, 96
2, 335360, Note_off_c, 0, 66, 0
2, 335360, Note_on_c, 0, 69, 96
2, 335872, Note_off_c, 0, 69, 0
2, 335872, Note_on_c, 0, 62, 96
2, 336896, Note_off_c, 0, 62, 0
2, 336896, Note_on_c, 0, 74, 96
2, 337920, Note_off_c, 0, 74, 0
2, 337920, Note_on_c, 0, 66, 96
2, 338944, Note_off_c, 0, 66, 0
2, 338944, Note_on_c, 0, 67, 96
2, 342016, Note_off_c, 0, 67, 0
2, 343040, Note_on_c, 0, 66, 96
2, 343552, Note_off_c, 0, 66, 0
2, 343552, Note_on_c, 0, 69, 96
2, 344064, Note_off_c, 0, 69, 0
2, 344064, Note_on_c, 0, 67, 96
2, 345088, Note_off_c, 0, 67, 0
2, 345088, Note_on_c, 0, 77, 96
2, 346112, Note_off_c, 0, 77, 0
2, 346112, Note_on_c, 0, 75, 96
2, 347136, Note_off_c, 0, 75, 0
2, 347136, Note_on_c, 0, 74, 96
2, 348160, Note_off_c, 0, 74, 0
2, 348160, Note_on_c, 0, 72, 96
2, 348672, Note_off_c, 0, 72, 0
2, 348672, Note_on_c, 0, 71, 96
2, 349184, Note_off_c, 0, 71, 0
2, 349184, Note_on_c, 0, 72, 96
2, 349696, Note_off_c, 0, 72, 0
2, 349696, Note_on_c, 0, 67, 96
2, 350208, Note_off_c, 0, 67, 0
2, 350208, Note_on_c, 0, 79, 96
2, 350720, Note_off_c, 0, 79, 0
2, 350720, Note_on_c, 0, 74, 96
2, 351232, Note_off_c, 0, 74, 0
2, 351232, Note_on_c, 0, 75, 96
2, 351744, Note_off_c, 0, 75, 0
2, 351744, Note_on_c, 0, 72, 96
2, 352256, Note_off_c, 0, 72, 0
2, 352256, Note_on_c, 0, 71, 96
2, 352768, Note_off_c, 0, 71, 0
2, 352768, Note_on_c, 0, 69, 96
2, 353280, Note_off_c, 0, 69, 0
2, 353280, Note_on_c, 0, 71, 96
2, 353792, Note_off_c, 0, 71, 0
2, 353792, Note_on_c, 0, 67, 96
2, 354304, Note_off_c, 0, 67, 0
2, 354304, Note_on_c, 0, 79, 96
2, 354816, Note_off_c, 0, 79, 0
2, 354816, Note_on_c, 0, 74, 96
2, 355328, Note_off_c, 0, 74, 0
2, 355328, Note_on_c, 0, 75, 96
2, 355840, Note_off_c, 0, 75, 0
2, 355840, Note_on_c, 0, 72, 96
2, 356352, Note_off_c, 0, 72, 0
2, 356352, Note_on_c, 0, 80, 96
2, 356864, Note_off_c, 0, 80, 0
2, 356864, Note_on_c, 0, 74, 96
2, 357376, Note_off_c, 0, 74, 0
2, 357376, Note_on_c, 0, 75, 96
2, 357888, Note_off_c, 0, 75, 0
2, 357888, Note_on_c, 0, 72, 96
2, 358400, Note_off_c, 0, 72, 0
2, 358400, Note_on_c, 0, 71, 96
2, 358912, Note_off_c, 0, 71, 0
2, 358912, Note_on_c, 0, 79, 96
2, 359424, Note_off_c, 0, 79, 0
2, 359424, Note_on_c, 0, 74, 96
2, 359936, Note_off_c, 0, 74, 0
2, 359936, Note_on_c, 0, 77, 96
2, 360448, Note_off_c, 0, 77, 0
2, 360448, Note_on_c, 0, 75, 96
2, 365056, Note_off_c, 0, 75, 0
2, 365056, Note_on_c, 0, 73, 96
2, 365568, Note_off_c, 0, 73, 0
2, 365568, Note_on_c, 0, 74, 96
2, 367104, Note_off_c, 0, 74, 0
2, 367104, Note_on_c, 0, 78, 96
2, 367616, Note_off_c, 0, 78, 0
2, 367616, Note_on_c, 0, 79, 96
2, 369152, Note_off_c, 0, 79, 0
2, 369152, Note_on_c, 0, 78, 96
2, 369664, Note_off_c, 0, 78, 0
2, 369664, Note_on_c, 0, 79, 96
2, 370176, Note_off_c, 0, 79, 0
2, 370176, Note_on_c, 0, 70, 96
2, 370688, Note_off_c, 0, 70, 0
2, 370688, Note_on_c, 0, 72, 96
2, 371200, Note_off_c, 0, 72, 0
2, 371200, Note_on_c, 0, 81, 96
2, 371712, Note_off_c, 0, 81, 0
2, 371712, Note_on_c, 0, 69, 96
2, 372224, Note_off_c, 0, 69, 0
2, 372224, Note_on_c, 0, 72, 96
2, 372736, Note_off_c, 0, 72, 0
2, 372736, Note_on_c, 0, 71, 96
2, 376832, Note_off_c, 0, 71, 0
2, 376832, End_track
3, 0, Start_track
3, 0, Title_t, "Instrument 2"
3, 12288, Note_on_c, 1, 62, 96
3, 12800, Note_off_c, 1, 62, 0
3, 12800, Note_on_c, 1, 60, 96
3, 13312, Note_off_c, 1, 60, 0
3, 13312, Note_on_c, 1, 62, 96
3, 13824, Note_off_c, 1, 62, 0
3, 13824, Note_on_c, 1, 55, 96
3, 14336, Note_off_c, 1, 55, 0
3, 14336, Note_on_c, 1, 67, 96
3, 14848, Note_off_c, 1, 67, 0
3, 14848, Note_on_c, 1, 64, 96
3, 15360, Note_off_c, 1, 64, 0
3, 15360, Note_on_c, 1, 65, 96
3, 15872, Note_off_c, 1, 65, 0
3, 15872, Note_on_c, 1, 62, 96
3, 16384, Note_off_c, 1, 62, 0
3, 16384, Note_on_c, 1, 61, 96
3, 16896, Note_off_c, 1, 61, 0
3, 16896, Note_on_c, 1, 59, 96
3, 17408, Note_off_c, 1, 59, 0
3, 17408, Note_on_c, 1, 61, 96
3, 17920, Note_off_c, 1, 61, 0
3, 17920, Note_on_c, 1, 57, 96
3, 18432, Note_off_c, 1, 57, 0
3, 18432, Note_on_c, 1, 69, 96
3, 18944, Note_off_c, 1, 69, 0
3, 18944, Note_on_c, 1, 64, 96
3, 19456, Note_off_c, 1, 64, 0
3, 19456, Note_on_c, 1, 65, 96
3, 19968, Note_off_c, 1, 65, 0
3, 19968, Note_on_c, 1, 62, 96
3, 20480, Note_off_c, 1, 62, 0
3, 20480, Note_on_c, 1, 70, 96
3, 20992, Note_off_c, 1, 70, 0
3, 20992, Note_on_c, 1, 64, 96
3, 21504, Note_off_c, 1, 64, 0
3, 21504, Note_on_c, 1, 65, 96
3, 22016, Note_off_c, 1, 65, 0
3, 22016, Note_on_c, 1, 62, 96
3, 22528, Note_off_c, 1, 62, 0
3, 22528, Note_on_c, 1, 61, 96
3, 23040, Note_off_c, 1, 61, 0
3, 23040, Note_on_c, 1, 69, 96
3, 23552, Note_off_c, 1, 69, 0
3, 23552, Note_on_c, 1, 64, 96
3, 24064, Note_off_c, 1, 64, 0
3, 24064, Note_on_c, 1, 67, 96
3, 24576, Note_off_c, 1, 67, 0
3, 24576, Note_on_c, 1, 65, 96
3, 25600, Note_off_c, 1, 65, 0
3, 25600, Note_on_c, 1, 74, 96
3, 26624, Note_off_c, 1, 74, 0
3, 26624, Note_on_c, 1, 62, 96
3, 27648, Note_off_c, 1, 62, 0
3, 27648, Note_on_c, 1, 65, 96
3, 28672, Note_off_c, 1, 65, 0
3, 28672, Note_on_c, 1, 67, 96
3, 29184, Note_off_c, 1, 67, 0
3, 29184, Note_on_c, 1, 69, 96
3, 29696, Note_off_c, 1, 69, 0
3, 29696, Note_on_c, 1, 71, 96
3, 30208, Note_off_c, 1, 71, 0
3, 30208, Note_on_c, 1, 72, 96
3, 30720, Note_off_c, 1, 72, 0
3, 30720, Note_on_c, 1, 71, 96
3, 31232, Note_off_c, 1, 71, 0
3, 31232, Note_on_c, 1, 69, 96
3, 31744, Note_off_c, 1, 69, 0
3, 31744, Note_on_c, 1, 67, 96
3, 32256, Note_off_c, 1, 67, 0
3, 32256, Note_on_c, 1, 65, 96
3, 32768, Note_off_c, 1, 65, 0
3, 32768, Note_on_c, 1, 63, 96
3, 33792, Note_off_c, 1, 63, 0
3, 33792, Note_on_c, 1, 72, 96
3, 34816, Note_off_c, 1, 72, 0
3, 34816, Note_on_c, 1, 60, 96
3, 35840, Note_off_c, 1, 60, 0
3, 35840, Note_on_c, 1, 63, 96
3, 36864, Note_off_c, 1, 63, 0
3, 36864, Note_on_c, 1, 65, 96
3, 37376, Note_off_c, 1, 65, 0
3, 37376, Note_on_c, 1, 67, 96
3, 37888, Note_off_c, 1, 67, 0
3, 37888, Note_on_c, 1, 69, 96
3, 38400, Note_off_c, 1, 69, 0
3, 38400, Note_on_c, 1, 70, 96
3, 38912, Note_off_c, 1, 70, 0
3, 38912, Note_on_c, 1, 69, 96
3, 39424, Note_off_c, 1, 69, 0
3, 39424, Note_on_c, 1, 67, 96
3, 39936, Note_off_c, 1, 67, 0
3, 39936, Note_on_c, 1, 65, 96
3, 40448, Note_off_c, 1, 65, 0
3, 40448, Note_on_c, 1, 63, 96
3, 40960, Note_off_c, 1, 63, 0
3, 40960, Note_on_c, 1, 62, 96
3, 41984, Note_off_c, 1, 62, 0
3, 41984, Note_on_c, 1, 70, 96
3, 43008, Note_off_c, 1, 70, 0
3, 43008, Note_on_c, 1, 58, 96
3, 44032, Note_off_c, 1, 58, 0
3, 44032, Note_on_c, 1, 62, 96
3, 45056, Note_off_c, 1, 62, 0
3, 45056, Note_on_c, 1, 63, 96
3, 46080, Note_off_c, 1, 63, 0
3, 46080, Note_on_c, 1, 57, 96
3, 47104, Note_off_c, 1, 57, 0
3, 47104, Note_on_c, 1, 58, 96
3, 48128, Note_off_c, 1, 58, 0
3, 48128, Note_on_c, 1, 60, 96
3, 49152, Note_off_c, 1, 60, 0
3, 49152, Note_on_c, 1, 62, 96
3, 49664, Note_off_c, 1, 62, 0
3, 49664, Note_on_c, 1, 64, 96
3, 50176, Note_off_c, 1, 64, 0
3, 50176, Note_on_c, 1, 66, 96
3, 50688, Note_off_c, 1, 66, 0
3, 50688, Note_on_c, 1, 67, 96
3, 51200, Note_off_c, 1, 67, 0
3, 51200, Note_on_c, 1, 66, 96
3, 51712, Note_off_c, 1, 66, 0
3, 51712, Note_on_c, 1, 64, 96
3, 52224, Note_off_c, 1, 64, 0
3, 52224, Note_on_c, 1, 62, 96
3, 52736, Note_off_c, 1, 62, 0
3, 52736, Note_on_c, 1, 60, 96
3, 53248, Note_off_c, 1, 60, 0
3, 53248, Note_on_c, 1, 58, 96
3, 53760, Note_off_c, 1, 58, 0
3, 53760, Note_on_c, 1, 62, 96
3, 54272, Note_off_c, 1, 62, 0
3, 54272, Note_on_c, 1, 67, 96
3, 54784, Note_off_c, 1, 67, 0
3, 54784, Note_on_c, 1, 69, 96
3, 55296, Note_off_c, 1, 69, 0
3, 55296, Note_on_c, 1, 67, 96
3, 55808, Note_off_c, 1, 67, 0
3, 55808, Note_on_c, 1, 66, 96
3, 56320, Note_off_c, 1, 66, 0
3, 56320, Note_on_c, 1, 64, 96
3, 56832, Note_off_c, 1, 64, 0
3, 56832, Note_on_c, 1, 66, 96
3, 57344, Note_off_c, 1, 66, 0
3, 57344, Note_on_c, 1, 67, 96
3, 58368, Note_off_c, 1, 67, 0
3, 58368, Note_on_c, 1, 62, 96
3, 58880, Note_off_c, 1, 62, 0
3, 58880, Note_on_c, 1, 67, 96
3, 59392, Note_off_c, 1, 67, 0
3, 59392, Note_on_c, 1, 66, 96
3, 60416, Note_off_c, 1, 66, 0
3, 60416, Note_on_c, 1, 67, 96
3, 61440, Note_off_c, 1, 67, 0
3, 61440, Note_on_c, 1, 69, 96
3, 62464, Note_off_c, 1, 69, 0
3, 62464, Note_on_c, 1, 74, 96
3, 63488, Note_off_c, 1, 74, 0
3, 63488, Note_on_c, 1, 66, 96
3, 64512, Note_off_c, 1, 66, 0
3, 64512, Note_on_c, 1, 67, 96
3, 65536, Note_off_c, 1, 67, 0
3, 65536, Note_on_c, 1, 72, 96
3, 66560, Note_off_c, 1, 72, 0
3, 66560, Note_on_c, 1, 74, 96
3, 67072, Note_off_c, 1, 74, 0
3, 67072, Note_on_c, 1, 75, 96
3, 67584, Note_off_c, 1, 75, 0
3, 67584, Note_on_c, 1, 74, 96
3, 68096, Note_off_c, 1, 74, 0
3, 68096, Note_on_c, 1, 70, 96
3, 68608, Note_off_c, 1, 70, 0
3, 68608, Note_on_c, 1, 72, 96
3, 69120, Note_off_c, 1, 72, 0
3, 69120, Note_on_c, 1, 69, 96
3, 69632, Note_off_c, 1, 69, 0
3, 69632, Note_on_c, 1, 62, 96
3, 70656, Note_off_c, 1, 62, 0
3, 72704, Note_on_c, 1, 62, 96
3, 73728, Note_off_c, 1, 62, 0
3, 73728, Note_on_c, 1, 67, 96
3, 74752, Note_off_c, 1, 67, 0
3, 76800, Note_on_c, 1, 67, 96
3, 77824, Note_off_c, 1, 67, 0
3, 77824, Note_on_c, 1, 72, 96
3, 78848, Note_off_c, 1, 72, 0
3, 80896, Note_on_c, 1, 60, 96
3, 81920, Note_off_c, 1, 60, 0
3, 81920, Note_on_c, 1, 65, 96
3, 82944, Note_off_c, 1, 65, 0
3, 84992, Note_on_c, 1, 65, 96
3, 86016, Note_off_c, 1, 65, 0
3, 86016, Note_on_c, 1, 70, 96
3, 87040, Note_off_c, 1, 70, 0
3, 89088, Note_on_c, 1, 70, 96
3, 90112, Note_off_c, 1, 70, 0
3, 90112, Note_on_c, 1, 72, 96
3, 91136, Note_off_c, 1, 72, 0
3, 93184, Note_on_c, 1, 72, 96
3, 94208, Note_off_c, 1, 72, 0
3, 94208, Note_on_c, 1, 74, 96
3, 94720, Note_off_c, 1, 74, 0
3, 94720, Note_on_c, 1, 72, 96
3, 95232, Note_off_c, 1, 72, 0
3, 95232, Note_on_c, 1, 74, 96
3, 95744, Note_off_c, 1, 74, 0
3, 95744, Note_on_c, 1, 67, 96
3, 96256, Note_off_c, 1, 67, 0
3, 96256, Note_on_c, 1, 79, 96
3, 96768, Note_off_c, 1, 79, 0
3, 96768, Note_on_c, 1, 74, 96
3, 97280, Note_off_c, 1, 74, 0
3, 97280, Note_on_c, 1, 75, 96
3, 97792, Note_off_c, 1, 75, 0
3, 97792, Note_on_c, 1, 72, 96
3, 98304, Note_off_c, 1, 72, 0
3, 98304, Note_on_c, 1, 70, 96
3, 98816, Note_off_c, 1, 70, 0
3, 98816, Note_on_c, 1, 69, 96
3, 99328, Note_off_c, 1, 69, 0
3, 99328, Note_on_c, 1, 70, 96
3, 99840, Note_off_c, 1, 70, 0
3, 99840, Note_on_c, 1, 67, 96
3, 100352, Note_off_c, 1, 67, 0
3, 100352, Note_on_c, 1, 69, 96
3, 101376, Note_off_c, 1, 69, 0
3, 101376, Note_on_c, 1, 62, 96
3, 102400, Note_off_c, 1, 62, 0
3, 102400, Note_on_c, 1, 67, 96
3, 102912, Note_off_c, 1, 67, 0
3, 102912, Note_on_c, 1, 66, 96
3, 103424, Note_off_c, 1, 66, 0
3, 103424, Note_on_c, 1, 67, 96
3, 103936, Note_off_c, 1, 67, 0
3, 103936, Note_on_c, 1, 62, 96
3, 104448, Note_off_c, 1, 62, 0
3, 104448, Note_on_c, 1, 74, 96
3, 104960, Note_off_c, 1, 74, 0
3, 104960, Note_on_c, 1, 69, 96
3, 105472, Note_off_c, 1, 69, 0
3, 105472, Note_on_c, 1, 70, 96
3, 105984, Note_off_c, 1, 70, 0
3, 105984, Note_on_c, 1, 67, 96
3, 106496, Note_off_c, 1, 67, 0
3, 106496, Note_on_c, 1, 75, 96
3, 107008, Note_off_c, 1, 75, 0
3, 107008, Note_on_c, 1, 69, 96
3, 107520, Note_off_c, 1, 69, 0
3, 107520, Note_on_c, 1, 70, 96
3, 108032, Note_off_c, 1, 70, 0
3, 108032, Note_on_c, 1, 67, 96
3, 108544, Note_off_c, 1, 67, 0
3, 108544, Note_on_c, 1, 66, 96
3, 109056, Note_off_c, 1, 66, 0
3, 109056, Note_on_c, 1, 74, 96
3, 109568, Note_off_c, 1, 74, 0
3, 109568, Note_on_c, 1, 69, 96
3, 110080, Note_off_c, 1, 69, 0
3, 110080, Note_on_c, 1, 72, 96
3, 110592, Note_off_c, 1, 72, 0
3, 110592, Note_on_c, 1, 70, 96
3, 111616, Note_off_c, 1, 70, 0
3, 123392, Note_on_c, 1, 71, 96
3, 123904, Note_off_c, 1, 71, 0
3, 123904, Note_on_c, 1, 72, 96
3, 124416, Note_off_c, 1, 72, 0
3, 124416, Note_on_c, 1, 74, 96
3, 124928, Note_off_c, 1, 74, 0
3, 124928, Note_on_c, 1, 72, 96
3, 125440, Note_off_c, 1, 72, 0
3, 125440, Note_on_c, 1, 70, 96
3, 125952, Note_off_c, 1, 70, 0
3, 125952, Note_on_c, 1, 69, 96
3, 126464, Note_off_c, 1, 69, 0
3, 126464, Note_on_c, 1, 67, 96
3, 126976, Note_off_c, 1, 67, 0
3, 126976, Note_on_c, 1, 69, 96
3, 128000, Note_off_c, 1, 69, 0
3, 128000, Note_on_c, 1, 69, 96
3, 129024, Note_off_c, 1, 69, 0
3, 129024, Note_on_c, 1, 65, 96
3, 130048, Note_off_c, 1, 65, 0
3, 130048, Note_on_c, 1, 69, 96
3, 131072, Note_off_c, 1, 69, 0
3, 131072, Note_on_c, 1, 70, 96
3, 131584, Note_off_c, 1, 70, 0
3, 131584, Note_on_c, 1, 69, 96
3, 132096, Note_off_c, 1, 69, 0
3, 132096, Note_on_c, 1, 70, 96
3, 132608, Note_off_c, 1, 70, 0
3, 132608, Note_on_c, 1, 72, 96
3, 133120, Note_off_c, 1, 72, 0
3, 133120, Note_on_c, 1, 70, 96
3, 133632, Note_off_c, 1, 70, 0
3, 133632, Note_on_c, 1, 69, 96
3, 134144, Note_off_c, 1, 69, 0
3, 134144, Note_on_c, 1, 67, 96
3, 134656, Note_off_c, 1, 67, 0
3, 134656, Note_on_c, 1, 66, 96
3, 135168, Note_off_c, 1, 66, 0
3, 135168, Note_on_c, 1, 67, 96
3, 136192, Note_off_c, 1, 67, 0
3, 136192, Note_on_c, 1, 67, 96
3, 137216, Note_off_c, 1, 67, 0
3, 137216, Note_on_c, 1, 63, 96
3, 138240, Note_off_c, 1, 63, 0
3, 138240, Note_on_c, 1, 67, 96
3, 140288, Note_off_c, 1, 67, 0
3, 140288, Note_on_c, 1, 66, 96
3, 140800, Note_off_c, 1, 66, 0
3, 140800, Note_on_c, 1, 64, 96
3, 141312, Note_off_c, 1, 64, 0
3, 141312, Note_on_c, 1, 66, 96
3, 142336, Note_off_c, 1, 66, 0
3, 142336, Note_on_c, 1, 67, 96
3, 143360, Note_off_c, 1, 67, 0
3, 143360, Note_on_c, 1, 69, 96
3, 143872, Note_off_c, 1, 69, 0
3, 143872, Note_on_c, 1, 67, 96
3, 144384, Note_off_c, 1, 67, 0
3, 144384, Note_on_c, 1, 66, 96
3, 144896, Note_off_c, 1, 66, 0
3, 144896, Note_on_c, 1, 64, 96
3, 145408, Note_off_c, 1, 64, 0
3, 145408, Note_on_c, 1, 62, 96
3, 147968, Note_off_c, 1, 62, 0
3, 147968, Note_on_c, 1, 60, 96
3, 148480, Note_off_c, 1, 60, 0
3, 148480, Note_on_c, 1, 58, 96
3, 148992, Note_off_c, 1, 58, 0
3, 148992, Note_on_c, 1, 57, 96
3, 149504, Note_off_c, 1, 57, 0
3, 149504, Note_on_c, 1, 58, 96
3, 150528, Note_off_c, 1, 58, 0
3, 150528, Note_on_c, 1, 59, 96
3, 152064, Note_off_c, 1, 59, 0
3, 152064, Note_on_c, 1, 62, 96
3, 152576, Note_off_c, 1, 62, 0
3, 152576, Note_on_c, 1, 60, 96
3, 153088, Note_off_c, 1, 60, 0
3, 153088, Note_on_c, 1, 59, 96
3, 153600, Note_off_c, 1, 59, 0
3, 153600, Note_on_c, 1, 60, 96
3, 156672, Note_off_c, 1, 60, 0
3, 156672, Note_on_c, 1, 58, 96
3, 157184, Note_off_c, 1, 58, 0
3, 157184, Note_on_c, 1, 57, 96
3, 157696, Note_off_c, 1, 57, 0
3, 157696, Note_on_c, 1, 55, 96
3, 158720, Note_off_c, 1, 55, 0
3, 163840, Note_on_c, 1, 67, 96
3, 164352, Note_off_c, 1, 67, 0
3, 164352, Note_on_c, 1, 60, 96
3, 164864, Note_off_c, 1, 60, 0
3, 164864, Note_on_c, 1, 62, 96
3, 165376, Note_off_c, 1, 62, 0
3, 165376, Note_on_c, 1, 58, 96
3, 165888, Note_off_c, 1, 58, 0
3, 165888, Note_on_c, 1, 57, 96
3, 166400, Note_off_c, 1, 57, 0
3, 166400, Note_on_c, 1, 65, 96
3, 166912, Note_off_c, 1, 65, 0
3, 166912, Note_on_c, 1, 60, 96
3, 167424, Note_off_c, 1, 60, 0
3, 167424, Note_on_c, 1, 63, 96
3, 167936, Note_off_c, 1, 63, 0
3, 167936, Note_on_c, 1, 62, 96
3, 169984, Note_off_c, 1, 62, 0
3, 169984, Note_on_c, 1, 63, 96
3, 171008, Note_off_c, 1, 63, 0
3, 171008, Note_on_c, 1, 62, 96
3, 172032, Note_off_c, 1, 62, 0
3, 172032, Note_on_c, 1, 63, 96
3, 175104, Note_off_c, 1, 63, 0
3, 175104, Note_on_c, 1, 62, 96
3, 176128, Note_off_c, 1, 62, 0
3, 176128, Note_on_c, 1, 69, 96
3, 177152, Note_off_c, 1, 69, 0
3, 177152, Note_on_c, 1, 70, 96
3, 177664, Note_off_c, 1, 70, 0
3, 179200, Note_on_c, 1, 69, 96
3, 180224, Note_off_c, 1, 69, 0
3, 180224, Note_on_c, 1, 70, 96
3, 180736, Note_off_c, 1, 70, 0
3, 180736, Note_on_c, 1, 72, 96
3, 181248, Note_off_c, 1, 72, 0
3, 181248, Note_on_c, 1, 70, 96
3, 181760, Note_off_c, 1, 70, 0
3, 181760, Note_on_c, 1, 77, 96
3, 182272, Note_off_c, 1, 77, 0
3, 182272, Note_on_c, 1, 65, 96
3, 182784, Note_off_c, 1, 65, 0
3, 182784, Note_on_c, 1, 69, 96
3, 183296, Note_off_c, 1, 69, 0
3, 183296, Note_on_c, 1, 67, 96
3, 183808, Note_off_c, 1, 67, 0
3, 183808, Note_on_c, 1, 70, 96
3, 184320, Note_off_c, 1, 70, 0
3, 184320, Note_on_c, 1, 60, 96
3, 185344, Note_off_c, 1, 60, 0
3, 185344, Note_on_c, 1, 57, 96
3, 186368, Note_off_c, 1, 57, 0
3, 186368, Note_on_c, 1, 62, 96
3, 187392, Note_off_c, 1, 62, 0
3, 187392, Note_on_c, 1, 60, 96
3, 188416, Note_off_c, 1, 60, 0
3, 188416, Note_on_c, 1, 58, 96
3, 189952, Note_off_c, 1, 58, 0
3, 189952, Note_on_c, 1, 57, 96
3, 190464, Note_off_c, 1, 57, 0
3, 190464, Note_on_c, 1, 58, 96
3, 190976, Note_off_c, 1, 58, 0
3, 190976, Note_on_c, 1, 60, 96
3, 191488, Note_off_c, 1, 60, 0
3, 191488, Note_on_c, 1, 62, 96
3, 192000, Note_off_c, 1, 62, 0
3, 192000, Note_on_c, 1, 64, 96
3, 192512, Note_off_c, 1, 64, 0
3, 192512, Note_on_c, 1, 69, 96
3, 193536, Note_off_c, 1, 69, 0
3, 193536, Note_on_c, 1, 74, 96
3, 194560, Note_off_c, 1, 74, 0
3, 194560, Note_on_c, 1, 75, 96
3, 195584, Note_off_c, 1, 75, 0
3, 195584, Note_on_c, 1, 70, 96
3, 197632, Note_off_c, 1, 70, 0
3, 197632, Note_on_c, 1, 70, 96
3, 199680, Note_off_c, 1, 70, 0
3, 199680, Note_on_c, 1, 70, 96
3, 200704, Note_off_c, 1, 70, 0
3, 200704, Note_on_c, 1, 75, 96
3, 203776, Note_off_c, 1, 75, 0
3, 203776, Note_on_c, 1, 69, 96
3, 204800, Note_off_c, 1, 69, 0
3, 204800, Note_on_c, 1, 70, 96
3, 206848, Note_off_c, 1, 70, 0
3, 207872, Note_on_c, 1, 64, 96
3, 208896, Note_off_c, 1, 64, 0
3, 208896, Note_on_c, 1, 65, 96
3, 209408, Note_off_c, 1, 65, 0
3, 209408, Note_on_c, 1, 58, 96
3, 209920, Note_off_c, 1, 58, 0
3, 209920, Note_on_c, 1, 57, 96
3, 210432, Note_off_c, 1, 57, 0
3, 210432, Note_on_c, 1, 55, 96
3, 210944, Note_off_c, 1, 55, 0
3, 210944, Note_on_c, 1, 57, 96
3, 211456, Note_off_c, 1, 57, 0
3, 211456, Note_on_c, 1, 58, 96
3, 211968, Note_off_c, 1, 58, 0
3, 211968, Note_on_c, 1, 60, 96
3, 212480, Note_off_c, 1, 60, 0
3, 212480, Note_on_c, 1, 62, 96
3, 212992, Note_off_c, 1, 62, 0
3, 212992, Note_on_c, 1, 63, 96
3, 214016, Note_off_c, 1, 63, 0
3, 214016, Note_on_c, 1, 55, 96
3, 215040, Note_off_c, 1, 55, 0
3, 215040, Note_on_c, 1, 67, 96
3, 216064, Note_off_c, 1, 67, 0
3, 216064, Note_on_c, 1, 63, 96
3, 217088, Note_off_c, 1, 63, 0
3, 217088, Note_on_c, 1, 62, 96
3, 217600, Note_off_c, 1, 62, 0
3, 217600, Note_on_c, 1, 60, 96
3, 218112, Note_off_c, 1, 60, 0
3, 218112, Note_on_c, 1, 58, 96
3, 218624, Note_off_c, 1, 58, 0
3, 218624, Note_on_c, 1, 57, 96
3, 219136, Note_off_c, 1, 57, 0
3, 219136, Note_on_c, 1, 58, 96
3, 219648, Note_off_c, 1, 58, 0
3, 219648, Note_on_c, 1, 60, 96
3, 220160, Note_off_c, 1, 60, 0
3, 220160, Note_on_c, 1, 62, 96
3, 220672, Note_off_c, 1, 62, 0
3, 220672, Note_on_c, 1, 63, 96
3, 221184, Note_off_c, 1, 63, 0
3, 221184, Note_on_c, 1, 65, 96
3, 222208, Note_off_c, 1, 65, 0
3, 223744, Note_on_c, 1, 68, 96
3, 224256, Note_off_c, 1, 68, 0
3, 224256, Note_on_c, 1, 67, 96
3, 224768, Note_off_c, 1, 67, 0
3, 224768, Note_on_c, 1, 65, 96
3, 225280, Note_off_c, 1, 65, 0
3, 225280, Note_on_c, 1, 63, 96
3, 226304, Note_off_c, 1, 63, 0
3, 227840, Note_on_c, 1, 67, 96
3, 228352, Note_off_c, 1, 67, 0
3, 228352, Note_on_c, 1, 65, 96
3, 228864, Note_off_c, 1, 65, 0
3, 228864, Note_on_c, 1, 63, 96
3, 229376, Note_off_c, 1, 63, 0
3, 229376, Note_on_c, 1, 62, 96
3, 230400, Note_off_c, 1, 62, 0
3, 231424, Note_on_c, 1, 69, 96
3, 232448, Note_off_c, 1, 69, 0
3, 233472, Note_on_c, 1, 65, 96
3, 233984, Note_off_c, 1, 65, 0
3, 233984, Note_on_c, 1, 67, 96
3, 234496, Note_off_c, 1, 67, 0
3, 234496, Note_on_c, 1, 65, 96
3, 235008, Note_off_c, 1, 65, 0
3, 235008, Note_on_c, 1, 70, 96
3, 235520, Note_off_c, 1, 70, 0
3, 235520, Note_on_c, 1, 74, 96
3, 236032, Note_off_c, 1, 74, 0
3, 236032, Note_on_c, 1, 72, 96
3, 236544, Note_off_c, 1, 72, 0
3, 236544, Note_on_c, 1, 74, 96
3, 237056, Note_off_c, 1, 74, 0
3, 237056, Note_on_c, 1, 70, 96
3, 237568, Note_off_c, 1, 70, 0
3, 237568, Note_on_c, 1, 69, 96
3, 238592, Note_off_c, 1, 69, 0
3, 239104, Note_on_c, 1, 70, 96
3, 239616, Note_off_c, 1, 70, 0
3, 239616, Note_on_c, 1, 72, 96
3, 242688, Note_off_c, 1, 72, 0
3, 242688, Note_on_c, 1, 70, 96
3, 243200, Note_off_c, 1, 70, 0
3, 243200, Note_on_c, 1, 69, 96
3, 243712, Note_off_c, 1, 69, 0
3, 243712, Note_on_c, 1, 67, 96
3, 244736, Note_off_c, 1, 67, 0
3, 253952, Note_on_c, 1, 58, 96
3, 254976, Note_off_c, 1, 58, 0
3, 254976, Note_on_c, 1, 67, 96
3, 256000, Note_off_c, 1, 67, 0
3, 256000, Note_on_c, 1, 70, 96
3, 257024, Note_off_c, 1, 70, 0
3, 257024, Note_on_c, 1, 69, 96
3, 258048, Note_off_c, 1, 69, 0
3, 258048, Note_on_c, 1, 67, 96
3, 259072, Note_off_c, 1, 67, 0
3, 259072, Note_on_c, 1, 62, 96
3, 260096, Note_off_c, 1, 62, 0
3, 260096, Note_on_c, 1, 70, 96
3, 261120, Note_off_c, 1, 70, 0
3, 261120, Note_on_c, 1, 69, 96
3, 262144, Note_off_c, 1, 69, 0
3, 262144, Note_on_c, 1, 64, 96
3, 263168, Note_off_c, 1, 64, 0
3, 263168, Note_on_c, 1, 62, 96
3, 263680, Note_off_c, 1, 62, 0
3, 263680, Note_on_c, 1, 61, 96
3, 264192, Note_off_c, 1, 61, 0
3, 264192, Note_on_c, 1, 62, 96
3, 264704, Note_off_c, 1, 62, 0
3, 264704, Note_on_c, 1, 65, 96
3, 265216, Note_off_c, 1, 65, 0
3, 265216, Note_on_c, 1, 64, 96
3, 265728, Note_off_c, 1, 64, 0
3, 265728, Note_on_c, 1, 67, 96
3, 266240, Note_off_c, 1, 67, 0
3, 266240, Note_on_c, 1, 69, 96
3, 267264, Note_off_c, 1, 69, 0
3, 267264, Note_on_c, 1, 57, 96
3, 268288, Note_off_c, 1, 57, 0
3, 268288, Note_on_c, 1, 65, 96
3, 269312, Note_off_c, 1, 65, 0
3, 269312, Note_on_c, 1, 62, 96
3, 270336, Note_off_c, 1, 62, 0
3, 270336, Note_on_c, 1, 61, 96
3, 270848, Note_off_c, 1, 61, 0
3, 270848, Note_on_c, 1, 59, 96
3, 271360, Note_off_c, 1, 59, 0
3, 271360, Note_on_c, 1, 57, 96
3, 271872, Note_off_c, 1, 57, 0
3, 271872, Note_on_c, 1, 59, 96
3, 272384, Note_off_c, 1, 59, 0
3, 272384, Note_on_c, 1, 61, 96
3, 272896, Note_off_c, 1, 61, 0
3, 272896, Note_on_c, 1, 62, 96
3, 273408, Note_off_c, 1, 62, 0
3, 273408, Note_on_c, 1, 64, 96
3, 273920, Note_off_c, 1, 64, 0
3, 273920, Note_on_c, 1, 65, 96
3, 274432, Note_off_c, 1, 65, 0
3, 274432, Note_on_c, 1, 67, 96
3, 274944, Note_off_c, 1, 67, 0
3, 274944, Note_on_c, 1, 65, 96
3, 275456, Note_off_c, 1, 65, 0
3, 275456, Note_on_c, 1, 64, 96
3, 275968, Note_off_c, 1, 64, 0
3, 275968, Note_on_c, 1, 65, 96
3, 276480, Note_off_c, 1, 65, 0
3, 276480, Note_on_c, 1, 67, 96
3, 276992, Note_off_c, 1, 67, 0
3, 276992, Note_on_c, 1, 69, 96
3, 277504, Note_off_c, 1, 69, 0
3, 277504, Note_on_c, 1, 70, 96
3, 278016, Note_off_c, 1, 70, 0
3, 278016, Note_on_c, 1, 61, 96
3, 278528, Note_off_c, 1, 61, 0
3, 278528, Note_on_c, 1, 62, 96
3, 280576, Note_off_c, 1, 62, 0
3, 280576, Note_on_c, 1, 61, 96
3, 281600, Note_off_c, 1, 61, 0
3, 281600, Note_on_c, 1, 62, 96
3, 282112, Note_off_c, 1, 62, 0
3, 282112, Note_on_c, 1, 59, 96
3, 282624, Note_off_c, 1, 59, 0
3, 282624, Note_on_c, 1, 61, 96
3, 284672, Note_off_c, 1, 61, 0
3, 284672, Note_on_c, 1, 62, 96
3, 285696, Note_off_c, 1, 62, 0
3, 285696, Note_on_c, 1, 55, 96
3, 286720, Note_off_c, 1, 55, 0
3, 286720, Note_on_c, 1, 57, 96
3, 287744, Note_off_c, 1, 57, 0
3, 287744, Note_on_c, 1, 62, 96
3, 288768, Note_off_c, 1, 62, 0
3, 288768, Note_on_c, 1, 61, 96
3, 289792, Note_off_c, 1, 61, 0
3, 289792, Note_on_c, 1, 62, 96
3, 290816, Note_off_c, 1, 62, 0
3, 290816, Note_on_c, 1, 64, 96
3, 291840, Note_off_c, 1, 64, 0
3, 291840, Note_on_c, 1, 62, 96
3, 293888, Note_off_c, 1, 62, 0
3, 293888, Note_on_c, 1, 61, 96
3, 294912, Note_off_c, 1, 61, 0
3, 294912, Note_on_c, 1, 62, 96
3, 295424, Note_off_c, 1, 62, 0
3, 295424, Note_on_c, 1, 70, 96
3, 295936, Note_off_c, 1, 70, 0
3, 295936, Note_on_c, 1, 69, 96
3, 296448, Note_off_c, 1, 69, 0
3, 296448, Note_on_c, 1, 67, 96
3, 296960, Note_off_c, 1, 67, 0
3, 296960, Note_on_c, 1, 65, 96
3, 297472, Note_off_c, 1, 65, 0
3, 297472, Note_on_c, 1, 63, 96
3, 297984, Note_off_c, 1, 63, 0
3, 297984, Note_on_c, 1, 62, 96
3, 298496, Note_off_c, 1, 62, 0
3, 298496, Note_on_c, 1, 60, 96
3, 299008, Note_off_c, 1, 60, 0
3, 299008, Note_on_c, 1, 59, 96
3, 300032, Note_off_c, 1, 59, 0
3, 300032, Note_on_c, 1, 57, 96
3, 301056, Note_off_c, 1, 57, 0
3, 301056, Note_on_c, 1, 55, 96
3, 302080, Note_off_c, 1, 55, 0
3, 302080, Note_on_c, 1, 53, 96
3, 303104, Note_off_c, 1, 53, 0
3, 303104, Note_on_c, 1, 51, 96
3, 307712, Note_off_c, 1, 51, 0
3, 307712, Note_on_c, 1, 50, 96
3, 308224, Note_off_c, 1, 50, 0
3, 308224, Note_on_c, 1, 48, 96
3, 308736, Note_off_c, 1, 48, 0
3, 308736, Note_on_c, 1, 50, 96
3, 309248, Note_off_c, 1, 50, 0
3, 309248, Note_on_c, 1, 51, 96
3, 309760, Note_off_c, 1, 51, 0
3, 309760, Note_on_c, 1, 53, 96
3, 310272, Note_off_c, 1, 53, 0
3, 310272, Note_on_c, 1, 55, 96
3, 310784, Note_off_c, 1, 55, 0
3, 310784, Note_on_c, 1, 57, 96
3, 311296, Note_off_c, 1, 57, 0
3, 311296, Note_on_c, 1, 58, 96
3, 313344, Note_off_c, 1, 58, 0
3, 314368, Note_on_c, 1, 53, 96
3, 315392, Note_off_c, 1, 53, 0
3, 315392, Note_on_c, 1, 58, 96
3, 316416, Note_off_c, 1, 58, 0
3, 318464, Note_on_c, 1, 58, 96
3, 320000, Note_off_c, 1, 58, 0
3, 320000, Note_on_c, 1, 58, 96
3, 320512, Note_off_c, 1, 58, 0
3, 320512, Note_on_c, 1, 57, 96
3, 321024, Note_off_c, 1, 57, 0
3, 321024, Note_on_c, 1, 55, 96
3, 321536, Note_off_c, 1, 55, 0
3, 321536, Note_on_c, 1, 57, 96
3, 322048, Note_off_c, 1, 57, 0
3, 322048, Note_on_c, 1, 58, 96
3, 322560, Note_off_c, 1, 58, 0
3, 322560, Note_on_c, 1, 60, 96
3, 324096, Note_off_c, 1, 60, 0
3, 324096, Note_on_c, 1, 60, 96
3, 324608, Note_off_c, 1, 60, 0
3, 324608, Note_on_c, 1, 62, 96
3, 325120, Note_off_c, 1, 62, 0
3, 325120, Note_on_c, 1, 63, 96
3, 325632, Note_off_c, 1, 63, 0
3, 325632, Note_on_c, 1, 62, 96
3, 326144, Note_off_c, 1, 62, 0
3, 326144, Note_on_c, 1, 60, 96
3, 326656, Note_off_c, 1, 60, 0
3, 326656, Note_on_c, 1, 58, 96
3, 327168, Note_off_c, 1, 58, 0
3, 327168, Note_on_c, 1, 57, 96
3, 327680, Note_off_c, 1, 57, 0
3, 327680, Note_on_c, 1, 58, 96
3, 328704, Note_off_c, 1, 58, 0
3, 328704, Note_on_c, 1, 62, 96
3, 329728, Note_off_c, 1, 62, 0
3, 329728, Note_on_c, 1, 60, 96
3, 330752, Note_off_c, 1, 60, 0
3, 330752, Note_on_c, 1, 58, 96
3, 331776, Note_off_c, 1, 58, 0
3, 331776, Note_on_c, 1, 57, 96
3, 333824, Note_off_c, 1, 57, 0
3, 333824, Note_on_c, 1, 60, 96
3, 335872, Note_off_c, 1, 60, 0
3, 335872, Note_on_c, 1, 58, 96
3, 336896, Note_off_c, 1, 58, 0
3, 336896, Note_on_c, 1, 62, 96
3, 337920, Note_off_c, 1, 62, 0
3, 337920, Note_on_c, 1, 72, 96
3, 338944, Note_off_c, 1, 72, 0
3, 338944, Note_on_c, 1, 70, 96
3, 339968, Note_off_c, 1, 70, 0
3, 339968, Note_on_c, 1, 72, 96
3, 340992, Note_off_c, 1, 72, 0
3, 340992, Note_on_c, 1, 74, 96
3, 341504, Note_off_c, 1, 74, 0
3, 341504, Note_on_c, 1, 75, 96
3, 342016, Note_off_c, 1, 75, 0
3, 342016, Note_on_c, 1, 74, 96
3, 342528, Note_off_c, 1, 74, 0
3, 342528, Note_on_c, 1, 70, 96
3, 343040, Note_off_c, 1, 70, 0
3, 343040, Note_on_c, 1, 72, 96
3, 344064, Note_off_c, 1, 72, 0
3, 344064, Note_on_c, 1, 70, 96
3, 345088, Note_off_c, 1, 70, 0
3, 345088, Note_on_c, 1, 71, 96
3, 346112, Note_off_c, 1, 71, 0
3, 346112, Note_on_c, 1, 72, 96
3, 347136, Note_off_c, 1, 72, 0
3, 347136, Note_on_c, 1, 65, 96
3, 348160, Note_off_c, 1, 65, 0
3, 348160, Note_on_c, 1, 63, 96
3, 348672, Note_off_c, 1, 63, 0
3, 360448, Note_on_c, 1, 67, 96
3, 360960, Note_off_c, 1, 67, 0
3, 360960, Note_on_c, 1, 65, 96
3, 361472, Note_off_c, 1, 65, 0
3, 361472, Note_on_c, 1, 67, 96
3, 361984, Note_off_c, 1, 67, 0
3, 361984, Note_on_c, 1, 60, 96
3, 362496, Note_off_c, 1, 60, 0
3, 362496, Note_on_c, 1, 72, 96
3, 363008, Note_off_c, 1, 72, 0
3, 363008, Note_on_c, 1, 69, 96
3, 363520, Note_off_c, 1, 69, 0
3, 363520, Note_on_c, 1, 70, 96
3, 364032, Note_off_c, 1, 70, 0
3, 364032, Note_on_c, 1, 67, 96
3, 364544, Note_off_c, 1, 67, 0
3, 364544, Note_on_c, 1, 66, 96
3, 365056, Note_off_c, 1, 66, 0
3, 365056, Note_on_c, 1, 64, 96
3, 365568, Note_off_c, 1, 64, 0
3, 365568, Note_on_c, 1, 66, 96
3, 366080, Note_off_c, 1, 66, 0
3, 366080, Note_on_c, 1, 62, 96
3, 366592, Note_off_c, 1, 62, 0
3, 366592, Note_on_c, 1, 74, 96
3, 367104, Note_off_c, 1, 74, 0
3, 367104, Note_on_c, 1, 69, 96
3, 367616, Note_off_c, 1, 69, 0
3, 367616, Note_on_c, 1, 70, 96
3, 368128, Note_off_c, 1, 70, 0
3, 368128, Note_on_c, 1, 67, 96
3, 368640, Note_off_c, 1, 67, 0
3, 368640, Note_on_c, 1, 75, 96
3, 369152, Note_off_c, 1, 75, 0
3, 369152, Note_on_c, 1, 69, 96
3, 369664, Note_off_c, 1, 69, 0
3, 369664, Note_on_c, 1, 70, 96
3, 370176, Note_off_c, 1, 70, 0
3, 370176, Note_on_c, 1, 67, 96
3, 370688, Note_off_c, 1, 67, 0
3, 370688, Note_on_c, 1, 66, 96
3, 372736, Note_off_c, 1, 66, 0
3, 372736, Note_on_c, 1, 67, 96
3, 376832, Note_off_c, 1, 67, 0
3, 376832, End_track
4, 0, Start_track
4, 0, Title_t, "Instrument 3"
4, 57344, Note_on_c, 2, 55, 96
4, 57856, Note_off_c, 2, 55, 0
4, 57856, Note_on_c, 2, 54, 96
4, 58368, Note_off_c, 2, 54, 0
4, 58368, Note_on_c, 2, 55, 96
4, 58880, Note_off_c, 2, 55, 0
4, 58880, Note_on_c, 2, 50, 96
4, 59392, Note_off_c, 2, 50, 0
4, 59392, Note_on_c, 2, 62, 96
4, 59904, Note_off_c, 2, 62, 0
4, 59904, Note_on_c, 2, 57, 96
4, 60416, Note_off_c, 2, 57, 0
4, 60416, Note_on_c, 2, 58, 96
4, 60928, Note_off_c, 2, 58, 0
4, 60928, Note_on_c, 2, 55, 96
4, 61440, Note_off_c, 2, 55, 0
4, 61440, Note_on_c, 2, 54, 96
4, 61952, Note_off_c, 2, 54, 0
4, 61952, Note_on_c, 2, 52, 96
4, 62464, Note_off_c, 2, 52, 0
4, 62464, Note_on_c, 2, 54, 96
4, 62976, Note_off_c, 2, 54, 0
4, 62976, Note_on_c, 2, 50, 96
4, 63488, Note_off_c, 2, 50, 0
4, 63488, Note_on_c, 2, 62, 96
4, 64000, Note_off_c, 2, 62, 0
4, 64000, Note_on_c, 2, 57, 96
4, 64512, Note_off_c, 2, 57, 0
4, 64512, Note_on_c, 2, 58, 96
4, 65024, Note_off_c, 2, 58, 0
4, 65024, Note_on_c, 2, 55, 96
4, 65536, Note_off_c, 2, 55, 0
4, 65536, Note_on_c, 2, 63, 96
4, 66048, Note_off_c, 2, 63, 0
4, 66048, Note_on_c, 2, 57, 96
4, 66560, Note_off_c, 2, 57, 0
4, 66560, Note_on_c, 2, 58, 96
4, 67072, Note_off_c, 2, 58, 0
4, 67072, Note_on_c, 2, 55, 96
4, 67584, Note_off_c, 2, 55, 0
4, 67584, Note_on_c, 2, 54, 96
4, 68096, Note_off_c, 2, 54, 0
4, 68096, Note_on_c, 2, 62, 96
4, 68608, Note_off_c, 2, 62, 0
4, 68608, Note_on_c, 2, 57, 96
4, 69120, Note_off_c, 2, 57, 0
4, 69120, Note_on_c, 2, 60, 96
4, 69632, Note_off_c, 2, 60, 0
4, 69632, Note_on_c, 2, 58, 96
4, 70656, Note_off_c, 2, 58, 0
4, 70656, Note_on_c, 2, 67, 96
4, 71680, Note_off_c, 2, 67, 0
4, 71680, Note_on_c, 2, 55, 96
4, 72704, Note_off_c, 2, 55, 0
4, 72704, Note_on_c, 2, 58, 96
4, 73728, Note_off_c, 2, 58, 0
4, 73728, Note_on_c, 2, 60, 96
4, 74240, Note_off_c, 2, 60, 0
4, 74240, Note_on_c, 2, 62, 96
4, 74752, Note_off_c, 2, 62, 0
4, 74752, Note_on_c, 2, 63, 96
4, 75264, Note_off_c, 2, 63, 0
4, 75264, Note_on_c, 2, 65, 96
4, 75776, Note_off_c, 2, 65, 0
4, 75776, Note_on_c, 2, 63, 96
4, 76288, Note_off_c, 2, 63, 0
4, 76288, Note_on_c, 2, 62, 96
4, 76800, Note_off_c, 2, 62, 0
4, 76800, Note_on_c, 2, 60, 96
4, 77312, Note_off_c, 2, 60, 0
4, 77312, Note_on_c, 2, 58, 96
4, 77824, Note_off_c, 2, 58, 0
4, 77824, Note_on_c, 2, 57, 96
4, 78848, Note_off_c, 2, 57, 0
4, 78848, Note_on_c, 2, 65, 96
4, 79872, Note_off_c, 2, 65, 0
4, 79872, Note_on_c, 2, 53, 96
4, 80896, Note_off_c, 2, 53, 0
4, 80896, Note_on_c, 2, 57, 96
4, 81920, Note_off_c, 2, 57, 0
4, 81920, Note_on_c, 2, 58, 96
4, 82432, Note_off_c, 2, 58, 0
4, 82432, Note_on_c, 2, 60, 96
4, 82944, Note_off_c, 2, 60, 0
4, 82944, Note_on_c, 2, 62, 96
4, 83456, Note_off_c, 2, 62, 0
4, 83456, Note_on_c, 2, 63, 96
4, 83968, Note_off_c, 2, 63, 0
4, 83968, Note_on_c, 2, 62, 96
4, 84480, Note_off_c, 2, 62, 0
4, 84480, Note_on_c, 2, 60, 96
4, 84992, Note_off_c, 2, 60, 0
4, 84992, Note_on_c, 2, 58, 96
4, 85504, Note_off_c, 2, 58, 0
4, 85504, Note_on_c, 2, 56, 96
4, 86016, Note_off_c, 2, 56, 0
4, 86016, Note_on_c, 2, 55, 96
4, 86528, Note_off_c, 2, 55, 0
4, 86528, Note_on_c, 2, 58, 96
4, 87040, Note_off_c, 2, 58, 0
4, 87040, Note_on_c, 2, 60, 96
4, 87552, Note_off_c, 2, 60, 0
4, 87552, Note_on_c, 2, 62, 96
4, 88064, Note_off_c, 2, 62, 0
4, 88064, Note_on_c, 2, 60, 96
4, 88576, Note_off_c, 2, 60, 0
4, 88576, Note_on_c, 2, 58, 96
4, 89088, Note_off_c, 2, 58, 0
4, 89088, Note_on_c, 2, 57, 96
4, 89600, Note_off_c, 2, 57, 0
4, 89600, Note_on_c, 2, 55, 96
4, 90112, Note_off_c, 2, 55, 0
4, 90112, Note_on_c, 2, 57, 96
4, 90624, Note_off_c, 2, 57, 0
4, 90624, Note_on_c, 2, 60, 96
4, 91136, Note_off_c, 2, 60, 0
4, 91136, Note_on_c, 2, 62, 96
4, 91648, Note_off_c, 2, 62, 0
4, 91648, Note_on_c, 2, 63, 96
4, 92160, Note_off_c, 2, 63, 0
4, 92160, Note_on_c, 2, 62, 96
4, 92672, Note_off_c, 2, 62, 0
4, 92672, Note_on_c, 2, 60, 96
4, 93184, Note_off_c, 2, 60, 0
4, 93184, Note_on_c, 2, 58, 96
4, 93696, Note_off_c, 2, 58, 0
4, 93696, Note_on_c, 2, 57, 96
4, 94208, Note_off_c, 2, 57, 0
4, 94208, Note_on_c, 2, 58, 96
4, 94720, Note_off_c, 2, 58, 0
4, 94720, Note_on_c, 2, 57, 96
4, 95232, Note_off_c, 2, 57, 0
4, 95232, Note_on_c, 2, 55, 96
4, 95744, Note_off_c, 2, 55, 0
4, 95744, Note_on_c, 2, 57, 96
4, 96256, Note_off_c, 2, 57, 0
4, 96256, Note_on_c, 2, 58, 96
4, 96768, Note_off_c, 2, 58, 0
4, 96768, Note_on_c, 2, 62, 96
4, 97280, Note_off_c, 2, 62, 0
4, 97280, Note_on_c, 2, 60, 96
4, 97792, Note_off_c, 2, 60, 0
4, 97792, Note_on_c, 2, 63, 96
4, 98304, Note_off_c, 2, 63, 0
4, 98304, Note_on_c, 2, 62, 96
4, 100352, Note_off_c, 2, 62, 0
4, 103424, Note_on_c, 2, 55, 96
4, 104448, Note_off_c, 2, 55, 0
4, 104448, Note_on_c, 2, 54, 96
4, 105472, Note_off_c, 2, 54, 0
4, 105472, Note_on_c, 2, 55, 96
4, 106496, Note_off_c, 2, 55, 0
4, 106496, Note_on_c, 2, 60, 96
4, 107520, Note_off_c, 2, 60, 0
4, 107520, Note_on_c, 2, 62, 96
4, 108032, Note_off_c, 2, 62, 0
4, 108032, Note_on_c, 2, 63, 96
4, 108544, Note_off_c, 2, 63, 0
4, 108544, Note_on_c, 2, 62, 96
4, 109056, Note_off_c, 2, 62, 0
4, 109056, Note_on_c, 2, 58, 96
4, 109568, Note_off_c, 2, 58, 0
4, 109568, Note_on_c, 2, 60, 96
4, 110080, Note_off_c, 2, 60, 0
4, 110080, Note_on_c, 2, 57, 96
4, 110592, Note_off_c, 2, 57, 0
4, 110592, Note_on_c, 2, 58, 96
4, 111104, Note_off_c, 2, 58, 0
4, 111104, Note_on_c, 2, 57, 96
4, 111616, Note_off_c, 2, 57, 0
4, 111616, Note_on_c, 2, 55, 96
4, 112128, Note_off_c, 2, 55, 0
4, 112128, Note_on_c, 2, 57, 96
4, 112640, Note_off_c, 2, 57, 0
4, 112640, Note_on_c, 2, 59, 96
4, 113664, Note_off_c, 2, 59, 0
4, 113664, Note_on_c, 2, 60, 96
4, 114688, Note_off_c, 2, 60, 0
4, 114688, Note_on_c, 2, 62, 96
4, 115712, Note_off_c, 2, 62, 0
4, 115712, Note_on_c, 2, 67, 96
4, 116736, Note_off_c, 2, 67, 0
4, 116736, Note_on_c, 2, 59, 96
4, 117760, Note_off_c, 2, 59, 0
4, 117760, Note_on_c, 2, 60, 96
4, 118784, Note_off_c, 2, 60, 0
4, 118784, Note_on_c, 2, 65, 96
4, 119808, Note_off_c, 2, 65, 0
4, 119808, Note_on_c, 2, 67, 96
4, 120320, Note_off_c, 2, 67, 0
4, 120320, Note_on_c, 2, 68, 96
4, 120832, Note_off_c, 2, 68, 0
4, 120832, Note_on_c, 2, 67, 96
4, 121344, Note_off_c, 2, 67, 0
4, 121344, Note_on_c, 2, 63, 96
4, 121856, Note_off_c, 2, 63, 0
4, 121856, Note_on_c, 2, 65, 96
4, 122368, Note_off_c, 2, 65, 0
4, 122368, Note_on_c, 2, 62, 96
4, 122880, Note_off_c, 2, 62, 0
4, 122880, Note_on_c, 2, 60, 96
4, 123904, Note_off_c, 2, 60, 0
4, 123904, Note_on_c, 2, 55, 96
4, 124928, Note_off_c, 2, 55, 0
4, 124928, Note_on_c, 2, 48, 96
4, 125952, Note_off_c, 2, 48, 0
4, 125952, Note_on_c, 2, 51, 96
4, 126976, Note_off_c, 2, 51, 0
4, 126976, Note_on_c, 2, 53, 96
4, 127488, Note_off_c, 2, 53, 0
4, 127488, Note_on_c, 2, 51, 96
4, 128000, Note_off_c, 2, 51, 0
4, 128000, Note_on_c, 2, 53, 96
4, 128512, Note_off_c, 2, 53, 0
4, 128512, Note_on_c, 2, 55, 96
4, 129024, Note_off_c, 2, 55, 0
4, 129024, Note_on_c, 2, 53, 96
4, 129536, Note_off_c, 2, 53, 0
4, 129536, Note_on_c, 2, 51, 96
4, 130048, Note_off_c, 2, 51, 0
4, 130048, Note_on_c, 2, 50, 96
4, 130560, Note_off_c, 2, 50, 0
4, 130560, Note_on_c, 2, 48, 96
4, 131072, Note_off_c, 2, 48, 0
4, 131072, Note_on_c, 2, 46, 96
4, 132096, Note_off_c, 2, 46, 0
4, 132096, Note_on_c, 2, 58, 96
4, 133120, Note_off_c, 2, 58, 0
4, 133120, Note_on_c, 2, 46, 96
4, 134144, Note_off_c, 2, 46, 0
4, 134144, Note_on_c, 2, 50, 96
4, 135168, Note_off_c, 2, 50, 0
4, 135168, Note_on_c, 2, 51, 96
4, 135680, Note_off_c, 2, 51, 0
4, 135680, Note_on_c, 2, 50, 96
4, 136192, Note_off_c, 2, 50, 0
4, 136192, Note_on_c, 2, 51, 96
4, 136704, Note_off_c, 2, 51, 0
4, 136704, Note_on_c, 2, 53, 96
4, 137216, Note_off_c, 2, 53, 0
4, 137216, Note_on_c, 2, 51, 96
4, 137728, Note_off_c, 2, 51, 0
4, 137728, Note_on_c, 2, 50, 96
4, 138240, Note_off_c, 2, 50, 0
4, 138240, Note_on_c, 2, 48, 96
4, 138752, Note_off_c, 2, 48, 0
4, 138752, Note_on_c, 2, 46, 96
4, 139264, Note_off_c, 2, 46, 0
4, 139264, Note_on_c, 2, 45, 96
4, 139776, Note_off_c, 2, 45, 0
4, 139776, Note_on_c, 2, 43, 96
4, 140288, Note_off_c, 2, 43, 0
4, 140288, Note_on_c, 2, 45, 96
4, 140800, Note_off_c, 2, 45, 0
4, 140800, Note_on_c, 2, 46, 96
4, 141312, Note_off_c, 2, 46, 0
4, 141312, Note_on_c, 2, 45, 96
4, 141824, Note_off_c, 2, 45, 0
4, 141824, Note_on_c, 2, 43, 96
4, 142336, Note_off_c, 2, 43, 0
4, 142336, Note_on_c, 2, 42, 96
4, 142848, Note_off_c, 2, 42, 0
4, 142848, Note_on_c, 2, 40, 96
4, 143360, Note_off_c, 2, 40, 0
4, 143360, Note_on_c, 2, 42, 96
4, 144384, Note_off_c, 2, 42, 0
4, 144384, Note_on_c, 2, 50, 96
4, 145408, Note_off_c, 2, 50, 0
4, 145408, Note_on_c, 2, 54, 96
4, 146432, Note_off_c, 2, 54, 0
4, 146432, Note_on_c, 2, 50, 96
4, 147456, Note_off_c, 2, 50, 0
4, 147456, Note_on_c, 2, 55, 96
4, 153600, Note_off_c, 2, 55, 0
4, 155648, Note_on_c, 2, 55, 96
4, 156160, Note_off_c, 2, 55, 0
4, 156160, Note_on_c, 2, 54, 96
4, 156672, Note_off_c, 2, 54, 0
4, 156672, Note_on_c, 2, 55, 96
4, 157184, Note_off_c, 2, 55, 0
4, 157184, Note_on_c, 2, 50, 96
4, 157696, Note_off_c, 2, 50, 0
4, 157696, Note_on_c, 2, 62, 96
4, 158208, Note_off_c, 2, 62, 0
4, 158208, Note_on_c, 2, 57, 96
4, 158720, Note_off_c, 2, 57, 0
4, 158720, Note_on_c, 2, 58, 96
4, 159232, Note_off_c, 2, 58, 0
4, 159232, Note_on_c, 2, 55, 96
4, 159744, Note_off_c, 2, 55, 0
4, 159744, Note_on_c, 2, 63, 96
4, 160256, Note_off_c, 2, 63, 0
4, 160256, Note_on_c, 2, 60, 96
4, 160768, Note_off_c, 2, 60, 0
4, 160768, Note_on_c, 2, 62, 96
4, 161280, Note_off_c, 2, 62, 0
4, 161280, Note_on_c, 2, 63, 96
4, 161792, Note_off_c, 2, 63, 0
4, 161792, Note_on_c, 2, 62, 96
4, 162304, Note_off_c, 2, 62, 0
4, 162304, Note_on_c, 2, 60, 96
4, 162816, Note_off_c, 2, 60, 0
4, 162816, Note_on_c, 2, 58, 96
4, 163328, Note_off_c, 2, 58, 0
4, 163328, Note_on_c, 2, 57, 96
4, 163840, Note_off_c, 2, 57, 0
4, 163840, Note_on_c, 2, 55, 96
4, 165888, Note_off_c, 2, 55, 0
4, 165888, Note_on_c, 2, 53, 96
4, 168960, Note_off_c, 2, 53, 0
4, 168960, Note_on_c, 2, 58, 96
4, 169984, Note_off_c, 2, 58, 0
4, 169984, Note_on_c, 2, 57, 96
4, 171008, Note_off_c, 2, 57, 0
4, 171008, Note_on_c, 2, 58, 96
4, 172032, Note_off_c, 2, 58, 0
4, 172032, Note_on_c, 2, 60, 96
4, 173056, Note_off_c, 2, 60, 0
4, 173056, Note_on_c, 2, 65, 96
4, 174080, Note_off_c, 2, 65, 0
4, 174080, Note_on_c, 2, 57, 96
4, 175104, Note_off_c, 2, 57, 0
4, 175104, Note_on_c, 2, 58, 96
4, 176128, Note_off_c, 2, 58, 0
4, 176128, Note_on_c, 2, 63, 96
4, 177152, Note_off_c, 2, 63, 0
4, 177152, Note_on_c, 2, 65, 96
4, 177664, Note_off_c, 2, 65, 0
4, 177664, Note_on_c, 2, 67, 96
4, 178176, Note_off_c, 2, 67, 0
4, 178176, Note_on_c, 2, 65, 96
4, 178688, Note_off_c, 2, 65, 0
4, 178688, Note_on_c, 2, 62, 96
4, 179200, Note_off_c, 2, 62, 0
4, 179200, Note_on_c, 2, 63, 96
4, 179712, Note_off_c, 2, 63, 0
4, 179712, Note_on_c, 2, 60, 96
4, 180224, Note_off_c, 2, 60, 0
4, 180224, Note_on_c, 2, 58, 96
4, 181248, Note_off_c, 2, 58, 0
4, 181248, Note_on_c, 2, 62, 96
4, 182272, Note_off_c, 2, 62, 0
4, 182272, Note_on_c, 2, 60, 96
4, 183296, Note_off_c, 2, 60, 0
4, 183296, Note_on_c, 2, 58, 96
4, 184320, Note_off_c, 2, 58, 0
4, 184320, Note_on_c, 2, 57, 96
4, 185344, Note_off_c, 2, 57, 0
4, 185344, Note_on_c, 2, 53, 96
4, 186368, Note_off_c, 2, 53, 0
4, 187392, Note_on_c, 2, 53, 96
4, 188416, Note_off_c, 2, 53, 0
4, 188416, Note_on_c, 2, 55, 96
4, 192512, Note_off_c, 2, 55, 0
4, 192512, Note_on_c, 2, 53, 96
4, 193024, Note_off_c, 2, 53, 0
4, 193024, Note_on_c, 2, 55, 96
4, 193536, Note_off_c, 2, 55, 0
4, 193536, Note_on_c, 2, 53, 96
4, 194048, Note_off_c, 2, 53, 0
4, 194048, Note_on_c, 2, 58, 96
4, 194560, Note_off_c, 2, 58, 0
4, 194560, Note_on_c, 2, 46, 96
4, 195072, Note_off_c, 2, 46, 0
4, 195072, Note_on_c, 2, 51, 96
4, 195584, Note_off_c, 2, 51, 0
4, 195584, Note_on_c, 2, 50, 96
4, 196096, Note_off_c, 2, 50, 0
4, 196096, Note_on_c, 2, 53, 96
4, 196608, Note_off_c, 2, 53, 0
4, 196608, Note_on_c, 2, 55, 96
4, 197120, Note_off_c, 2, 55, 0
4, 197120, Note_on_c, 2, 57, 96
4, 197632, Note_off_c, 2, 57, 0
4, 197632, Note_on_c, 2, 55, 96
4, 198144, Note_off_c, 2, 55, 0
4, 198144, Note_on_c, 2, 58, 96
4, 198656, Note_off_c, 2, 58, 0
4, 198656, Note_on_c, 2, 46, 96
4, 199168, Note_off_c, 2, 46, 0
4, 199168, Note_on_c, 2, 51, 96
4, 199680, Note_off_c, 2, 51, 0
4, 199680, Note_on_c, 2, 50, 96
4, 200192, Note_off_c, 2, 50, 0
4, 200192, Note_on_c, 2, 53, 96
4, 200704, Note_off_c, 2, 53, 0
4, 200704, Note_on_c, 2, 45, 96
4, 201216, Note_off_c, 2, 45, 0
4, 201216, Note_on_c, 2, 51, 96
4, 201728, Note_off_c, 2, 51, 0
4, 201728, Note_on_c, 2, 50, 96
4, 202240, Note_off_c, 2, 50, 0
4, 202240, Note_on_c, 2, 53, 96
4, 202752, Note_off_c, 2, 53, 0
4, 202752, Note_on_c, 2, 55, 96
4, 203264, Note_off_c, 2, 55, 0
4, 203264, Note_on_c, 2, 46, 96
4, 203776, Note_off_c, 2, 46, 0
4, 203776, Note_on_c, 2, 51, 96
4, 204288, Note_off_c, 2, 51, 0
4, 204288, Note_on_c, 2, 48, 96
4, 204800, Note_off_c, 2, 48, 0
4, 204800, Note_on_c, 2, 50, 96
4, 205824, Note_off_c, 2, 50, 0
4, 205824, Note_on_c, 2, 46, 96
4, 206848, Note_off_c, 2, 46, 0
4, 206848, Note_on_c, 2, 58, 96
4, 207872, Note_off_c, 2, 58, 0
4, 207872, Note_on_c, 2, 55, 96
4, 208896, Note_off_c, 2, 55, 0
4, 208896, Note_on_c, 2, 53, 96
4, 210944, Note_off_c, 2, 53, 0
4, 211968, Note_on_c, 2, 53, 96
4, 212992, Note_off_c, 2, 53, 0
4, 212992, Note_on_c, 2, 60, 96
4, 215040, Note_off_c, 2, 60, 0
4, 216064, Note_on_c, 2, 60, 96
4, 217088, Note_off_c, 2, 60, 0
4, 217088, Note_on_c, 2, 55, 96
4, 219136, Note_off_c, 2, 55, 0
4, 220160, Note_on_c, 2, 55, 96
4, 221184, Note_off_c, 2, 55, 0
4, 221184, Note_on_c, 2, 62, 96
4, 222208, Note_off_c, 2, 62, 0
4, 222208, Note_on_c, 2, 65, 96
4, 223232, Note_off_c, 2, 65, 0
4, 223232, Note_on_c, 2, 55, 96
4, 224256, Note_off_c, 2, 55, 0
4, 224256, Note_on_c, 2, 59, 96
4, 225280, Note_off_c, 2, 59, 0
4, 225280, Note_on_c, 2, 60, 96
4, 226304, Note_off_c, 2, 60, 0
4, 226304, Note_on_c, 2, 63, 96
4, 227328, Note_off_c, 2, 63, 0
4, 227328, Note_on_c, 2, 53, 96
4, 228352, Note_off_c, 2, 53, 0
4, 228352, Note_on_c, 2, 57, 96
4, 229376, Note_off_c, 2, 57, 0
4, 229376, Note_on_c, 2, 58, 96
4, 229888, Note_off_c, 2, 58, 0
4, 229888, Note_on_c, 2, 60, 96
4, 230400, Note_off_c, 2, 60, 0
4, 230400, Note_on_c, 2, 58, 96
4, 230912, Note_off_c, 2, 58, 0
4, 230912, Note_on_c, 2, 65, 96
4, 231424, Note_off_c, 2, 65, 0
4, 231424, Note_on_c, 2, 53, 96
4, 231936, Note_off_c, 2, 53, 0
4, 231936, Note_on_c, 2, 58, 96
4, 232448, Note_off_c, 2, 58, 0
4, 232448, Note_on_c, 2, 57, 96
4, 232960, Note_off_c, 2, 57, 0
4, 232960, Note_on_c, 2, 60, 96
4, 233472, Note_off_c, 2, 60, 0
4, 233472, Note_on_c, 2, 58, 96
4, 234496, Note_off_c, 2, 58, 0
4, 235520, Note_on_c, 2, 58, 96
4, 236032, Note_off_c, 2, 58, 0
4, 236032, Note_on_c, 2, 63, 96
4, 236544, Note_off_c, 2, 63, 0
4, 236544, Note_on_c, 2, 62, 96
4, 237056, Note_off_c, 2, 62, 0
4, 237056, Note_on_c, 2, 67, 96
4, 237568, Note_off_c, 2, 67, 0
4, 237568, Note_on_c, 2, 57, 96
4, 238080, Note_off_c, 2, 57, 0
4, 238080, Note_on_c, 2, 63, 96
4, 238592, Note_off_c, 2, 63, 0
4, 238592, Note_on_c, 2, 62, 96
4, 239104, Note_off_c, 2, 62, 0
4, 239104, Note_on_c, 2, 67, 96
4, 239616, Note_off_c, 2, 67, 0
4, 239616, Note_on_c, 2, 69, 96
4, 240128, Note_off_c, 2, 69, 0
4, 240128, Note_on_c, 2, 62, 96
4, 240640, Note_off_c, 2, 62, 0
4, 240640, Note_on_c, 2, 63, 96
4, 241152, Note_off_c, 2, 63, 0
4, 241152, Note_on_c, 2, 60, 96
4, 241664, Note_off_c, 2, 60, 0
4, 241664, Note_on_c, 2, 62, 96
4, 242176, Note_off_c, 2, 62, 0
4, 242176, Note_on_c, 2, 63, 96
4, 242688, Note_off_c, 2, 63, 0
4, 242688, Note_on_c, 2, 62, 96
4, 243200, Note_off_c, 2, 62, 0
4, 243200, Note_on_c, 2, 67, 96
4, 243712, Note_off_c, 2, 67, 0
4, 243712, Note_on_c, 2, 55, 96
4, 244224, Note_off_c, 2, 55, 0
4, 244224, Note_on_c, 2, 60, 96
4, 244736, Note_off_c, 2, 60, 0
4, 244736, Note_on_c, 2, 58, 96
4, 245248, Note_off_c, 2, 58, 0
4, 245248, Note_on_c, 2, 62, 96
4, 245760, Note_off_c, 2, 62, 0
4, 245760, Note_on_c, 2, 63, 96
4, 246272, Note_off_c, 2, 63, 0
4, 246272, Note_on_c, 2, 65, 96
4, 246784, Note_off_c, 2, 65, 0
4, 246784, Note_on_c, 2, 63, 96
4, 247296, Note_off_c, 2, 63, 0
4, 247296, Note_on_c, 2, 67, 96
4, 247808, Note_off_c, 2, 67, 0
4, 247808, Note_on_c, 2, 55, 96
4, 248320, Note_off_c, 2, 55, 0
4, 248320, Note_on_c, 2, 60, 96
4, 248832, Note_off_c, 2, 60, 0
4, 248832, Note_on_c, 2, 58, 96
4, 249344, Note_off_c, 2, 58, 0
4, 249344, Note_on_c, 2, 62, 96
4, 249856, Note_off_c, 2, 62, 0
4, 249856, Note_on_c, 2, 54, 96
4, 250368, Note_off_c, 2, 54, 0
4, 250368, Note_on_c, 2, 60, 96
4, 250880, Note_off_c, 2, 60, 0
4, 250880, Note_on_c, 2, 58, 96
4, 251392, Note_off_c, 2, 58, 0
4, 251392, Note_on_c, 2, 62, 96
4, 251904, Note_off_c, 2, 62, 0
4, 251904, Note_on_c, 2, 63, 96
4, 252416, Note_off_c, 2, 63, 0
4, 252416, Note_on_c, 2, 55, 96
4, 252928, Note_off_c, 2, 55, 0
4, 252928, Note_on_c, 2, 60, 96
4, 253440, Note_off_c, 2, 60, 0
4, 253440, Note_on_c, 2, 57, 96
4, 253952, Note_off_c, 2, 57, 0
4, 253952, Note_on_c, 2, 55, 96
4, 254464, Note_off_c, 2, 55, 0
4, 254464, Note_on_c, 2, 57, 96
4, 254976, Note_off_c, 2, 57, 0
4, 254976, Note_on_c, 2, 55, 96
4, 255488, Note_off_c, 2, 55, 0
4, 255488, Note_on_c, 2, 62, 96
4, 256000, Note_off_c, 2, 62, 0
4, 256000, Note_on_c, 2, 50, 96
4, 256512, Note_off_c, 2, 50, 0
4, 256512, Note_on_c, 2, 55, 96
4, 257024, Note_off_c, 2, 55, 0
4, 257024, Note_on_c, 2, 54, 96
4, 257536, Note_off_c, 2, 54, 0
4, 257536, Note_on_c, 2, 57, 96
4, 258048, Note_off_c, 2, 57, 0
4, 258048, Note_on_c, 2, 58, 96
4, 258560, Note_off_c, 2, 58, 0
4, 258560, Note_on_c, 2, 60, 96
4, 259072, Note_off_c, 2, 60, 0
4, 259072, Note_on_c, 2, 58, 96
4, 259584, Note_off_c, 2, 58, 0
4, 259584, Note_on_c, 2, 62, 96
4, 260096, Note_off_c, 2, 62, 0
4, 260096, Note_on_c, 2, 50, 96
4, 260608, Note_off_c, 2, 50, 0
4, 260608, Note_on_c, 2, 55, 96
4, 261120, Note_off_c, 2, 55, 0
4, 261120, Note_on_c, 2, 53, 96
4, 261632, Note_off_c, 2, 53, 0
4, 261632, Note_on_c, 2, 57, 96
4, 262144, Note_off_c, 2, 57, 0
4, 262144, Note_on_c, 2, 49, 96
4, 262656, Note_off_c, 2, 49, 0
4, 262656, Note_on_c, 2, 55, 96
4, 263168, Note_off_c, 2, 55, 0
4, 263168, Note_on_c, 2, 53, 96
4, 263680, Note_off_c, 2, 53, 0
4, 263680, Note_on_c, 2, 57, 96
4, 264192, Note_off_c, 2, 57, 0
4, 264192, Note_on_c, 2, 58, 96
4, 264704, Note_off_c, 2, 58, 0
4, 264704, Note_on_c, 2, 50, 96
4, 265216, Note_off_c, 2, 50, 0
4, 265216, Note_on_c, 2, 55, 96
4, 265728, Note_off_c, 2, 55, 0
4, 265728, Note_on_c, 2, 52, 96
4, 266240, Note_off_c, 2, 52, 0
4, 266240, Note_on_c, 2, 53, 96
4, 266752, Note_off_c, 2, 53, 0
4, 266752, Note_on_c, 2, 52, 96
4, 267264, Note_off_c, 2, 52, 0
4, 267264, Note_on_c, 2, 50, 96
4, 267776, Note_off_c, 2, 50, 0
4, 267776, Note_on_c, 2, 49, 96
4, 268288, Note_off_c, 2, 49, 0
4, 268288, Note_on_c, 2, 50, 96
4, 268800, Note_off_c, 2, 50, 0
4, 268800, Note_on_c, 2, 52, 96
4, 269312, Note_off_c, 2, 52, 0
4, 269312, Note_on_c, 2, 53, 96
4, 269824, Note_off_c, 2, 53, 0
4, 269824, Note_on_c, 2, 55, 96
4, 270336, Note_off_c, 2, 55, 0
4, 270336, Note_on_c, 2, 57, 96
4, 271360, Note_off_c, 2, 57, 0
4, 271360, Note_on_c, 2, 45, 96
4, 272384, Note_off_c, 2, 45, 0
4, 272896, Note_on_c, 2, 57, 96
4, 273408, Note_off_c, 2, 57, 0
4, 273408, Note_on_c, 2, 55, 96
4, 273920, Note_off_c, 2, 55, 0
4, 273920, Note_on_c, 2, 53, 96
4, 274432, Note_off_c, 2, 53, 0
4, 274432, Note_on_c, 2, 52, 96
4, 274944, Note_off_c, 2, 52, 0
4, 274944, Note_on_c, 2, 50, 96
4, 275456, Note_off_c, 2, 50, 0
4, 275456, Note_on_c, 2, 49, 96
4, 275968, Note_off_c, 2, 49, 0
4, 275968, Note_on_c, 2, 50, 96
4, 276480, Note_off_c, 2, 50, 0
4, 276480, Note_on_c, 2, 52, 96
4, 276992, Note_off_c, 2, 52, 0
4, 276992, Note_on_c, 2, 53, 96
4, 277504, Note_off_c, 2, 53, 0
4, 277504, Note_on_c, 2, 55, 96
4, 278016, Note_off_c, 2, 55, 0
4, 278016, Note_on_c, 2, 57, 96
4, 278528, Note_off_c, 2, 57, 0
4, 278528, Note_on_c, 2, 58, 96
4, 279552, Note_off_c, 2, 58, 0
4, 279552, Note_on_c, 2, 53, 96
4, 280064, Note_off_c, 2, 53, 0
4, 280064, Note_on_c, 2, 55, 96
4, 280576, Note_off_c, 2, 55, 0
4, 280576, Note_on_c, 2, 57, 96
4, 283648, Note_off_c, 2, 57, 0
4, 283648, Note_on_c, 2, 55, 96
4, 284672, Note_off_c, 2, 55, 0
4, 284672, Note_on_c, 2, 53, 96
4, 285696, Note_off_c, 2, 53, 0
4, 285696, Note_on_c, 2, 52, 96
4, 286720, Note_off_c, 2, 52, 0
4, 286720, Note_on_c, 2, 50, 96
4, 288768, Note_off_c, 2, 50, 0
4, 288768, Note_on_c, 2, 55, 96
4, 289792, Note_off_c, 2, 55, 0
4, 289792, Note_on_c, 2, 53, 96
4, 290816, Note_off_c, 2, 53, 0
4, 290816, Note_on_c, 2, 58, 96
4, 291840, Note_off_c, 2, 58, 0
4, 291840, Note_on_c, 2, 57, 96
4, 292864, Note_off_c, 2, 57, 0
4, 292864, Note_on_c, 2, 55, 96
4, 293888, Note_off_c, 2, 55, 0
4, 293888, Note_on_c, 2, 57, 96
4, 294912, Note_off_c, 2, 57, 0
4, 294912, Note_on_c, 2, 50, 96
4, 296960, Note_off_c, 2, 50, 0
4, 297984, Note_on_c, 2, 50, 96
4, 299008, Note_off_c, 2, 50, 0
4, 299008, Note_on_c, 2, 55, 96
4, 300032, Note_off_c, 2, 55, 0
4, 300032, Note_on_c, 2, 53, 96
4, 301056, Note_off_c, 2, 53, 0
4, 301056, Note_on_c, 2, 51, 96
4, 302080, Note_off_c, 2, 51, 0
4, 302080, Note_on_c, 2, 50, 96
4, 303104, Note_off_c, 2, 50, 0
4, 303104, Note_on_c, 2, 48, 96
4, 304128, Note_off_c, 2, 48, 0
4, 304128, Note_on_c, 2, 46, 96
4, 305152, Note_off_c, 2, 46, 0
4, 305152, Note_on_c, 2, 45, 96
4, 306176, Note_off_c, 2, 45, 0
4, 306176, Note_on_c, 2, 43, 96
4, 307200, Note_off_c, 2, 43, 0
4, 307200, Note_on_c, 2, 41, 96
4, 309248, Note_off_c, 2, 41, 0
4, 311296, Note_on_c, 2, 46, 96
4, 311808, Note_off_c, 2, 46, 0
4, 311808, Note_on_c, 2, 48, 96
4, 312320, Note_off_c, 2, 48, 0
4, 312320, Note_on_c, 2, 50, 96
4, 312832, Note_off_c, 2, 50, 0
4, 312832, Note_on_c, 2, 51, 96
4, 313344, Note_off_c, 2, 51, 0
4, 313344, Note_on_c, 2, 50, 96
4, 313856, Note_off_c, 2, 50, 0
4, 313856, Note_on_c, 2, 48, 96
4, 314368, Note_off_c, 2, 48, 0
4, 314368, Note_on_c, 2, 46, 96
4, 314880, Note_off_c, 2, 46, 0
4, 314880, Note_on_c, 2, 45, 96
4, 315392, Note_off_c, 2, 45, 0
4, 315392, Note_on_c, 2, 43, 96
4, 316416, Note_off_c, 2, 43, 0
4, 316416, Note_on_c, 2, 51, 96
4, 317440, Note_off_c, 2, 51, 0
4, 317440, Note_on_c, 2, 39, 96
4, 318464, Note_off_c, 2, 39, 0
4, 318464, Note_on_c, 2, 43, 96
4, 319488, Note_off_c, 2, 43, 0
4, 319488, Note_on_c, 2, 45, 96
4, 320000, Note_off_c, 2, 45, 0
4, 320000, Note_on_c, 2, 46, 96
4, 320512, Note_off_c, 2, 46, 0
4, 320512, Note_on_c, 2, 48, 96
4, 321024, Note_off_c, 2, 48, 0
4, 321024, Note_on_c, 2, 50, 96
4, 321536, Note_off_c, 2, 50, 0
4, 321536, Note_on_c, 2, 48, 96
4, 322048, Note_off_c, 2, 48, 0
4, 322048, Note_on_c, 2, 46, 96
4, 322560, Note_off_c, 2, 46, 0
4, 322560, Note_on_c, 2, 45, 96
4, 323072, Note_off_c, 2, 45, 0
4, 323072, Note_on_c, 2, 43, 96
4, 323584, Note_off_c, 2, 43, 0
4, 323584, Note_on_c, 2, 42, 96
4, 324608, Note_off_c, 2, 42, 0
4, 324608, Note_on_c, 2, 50, 96
4, 325632, Note_off_c, 2, 50, 0
4, 325632, Note_on_c, 2, 38, 96
4, 326656, Note_off_c, 2, 38, 0
4, 326656, Note_on_c, 2, 54, 96
4, 327680, Note_off_c, 2, 54, 0
4, 327680, Note_on_c, 2, 55, 96
4, 328704, Note_off_c, 2, 55, 0
4, 328704, Note_on_c, 2, 58, 96
4, 329728, Note_off_c, 2, 58, 0
4, 329728, Note_on_c, 2, 57, 96
4, 330752, Note_off_c, 2, 57, 0
4, 330752, Note_on_c, 2, 55, 96
4, 331776, Note_off_c, 2, 55, 0
4, 331776, Note_on_c, 2, 50, 96
4, 332288, Note_off_c, 2, 50, 0
4, 332288, Note_on_c, 2, 48, 96
4, 332800, Note_off_c, 2, 48, 0
4, 332800, Note_on_c, 2, 50, 96
4, 333312, Note_off_c, 2, 50, 0
4, 333312, Note_on_c, 2, 45, 96
4, 333824, Note_off_c, 2, 45, 0
4, 333824, Note_on_c, 2, 57, 96
4, 334336, Note_off_c, 2, 57, 0
4, 334336, Note_on_c, 2, 52, 96
4, 334848, Note_off_c, 2, 52, 0
4, 334848, Note_on_c, 2, 54, 96
4, 335360, Note_off_c, 2, 54, 0
4, 335360, Note_on_c, 2, 50, 96
4, 335872, Note_off_c, 2, 50, 0
4, 335872, Note_on_c, 2, 55, 96
4, 336384, Note_off_c, 2, 55, 0
4, 336384, Note_on_c, 2, 54, 96
4, 336896, Note_off_c, 2, 54, 0
4, 336896, Note_on_c, 2, 55, 96
4, 337408, Note_off_c, 2, 55, 0
4, 337408, Note_on_c, 2, 50, 96
4, 337920, Note_off_c, 2, 50, 0
4, 337920, Note_on_c, 2, 62, 96
4, 338432, Note_off_c, 2, 62, 0
4, 338432, Note_on_c, 2, 57, 96
4, 338944, Note_off_c, 2, 57, 0
4, 338944, Note_on_c, 2, 58, 96
4, 339456, Note_off_c, 2, 58, 0
4, 339456, Note_on_c, 2, 55, 96
4, 339968, Note_off_c, 2, 55, 0
4, 339968, Note_on_c, 2, 63, 96
4, 340480, Note_off_c, 2, 63, 0
4, 340480, Note_on_c, 2, 57, 96
4, 340992, Note_off_c, 2, 57, 0
4, 340992, Note_on_c, 2, 58, 96
4, 341504, Note_off_c, 2, 58, 0
4, 341504, Note_on_c, 2, 55, 96
4, 342016, Note_off_c, 2, 55, 0
4, 342016, Note_on_c, 2, 54, 96
4, 342528, Note_off_c, 2, 54, 0
4, 342528, Note_on_c, 2, 62, 96
4, 343040, Note_off_c, 2, 62, 0
4, 343040, Note_on_c, 2, 57, 96
4, 343552, Note_off_c, 2, 57, 0
4, 343552, Note_on_c, 2, 60, 96
4, 344064, Note_off_c, 2, 60, 0
4, 344064, Note_on_c, 2, 62, 96
4, 344576, Note_off_c, 2, 62, 0
4, 344576, Note_on_c, 2, 63, 96
4, 345088, Note_off_c, 2, 63, 0
4, 345088, Note_on_c, 2, 62, 96
4, 345600, Note_off_c, 2, 62, 0
4, 345600, Note_on_c, 2, 67, 96
4, 346112, Note_off_c, 2, 67, 0
4, 346112, Note_on_c, 2, 55, 96
4, 346624, Note_off_c, 2, 55, 0
4, 346624, Note_on_c, 2, 60, 96
4, 347136, Note_off_c, 2, 60, 0
4, 347136, Note_on_c, 2, 59, 96
4, 347648, Note_off_c, 2, 59, 0
4, 347648, Note_on_c, 2, 62, 96
4, 348160, Note_off_c, 2, 62, 0
4, 348160, Note_on_c, 2, 63, 96
4, 348672, Note_off_c, 2, 63, 0
4, 348672, Note_on_c, 2, 65, 96
4, 349184, Note_off_c, 2, 65, 0
4, 349184, Note_on_c, 2, 63, 96
4, 349696, Note_off_c, 2, 63, 0
4, 349696, Note_on_c, 2, 67, 96
4, 350208, Note_off_c, 2, 67, 0
4, 350208, Note_on_c, 2, 55, 96
4, 350720, Note_off_c, 2, 55, 0
4, 350720, Note_on_c, 2, 59, 96
4, 351232, Note_off_c, 2, 59, 0
4, 351232, Note_on_c, 2, 57, 96
4, 351744, Note_off_c, 2, 57, 0
4, 351744, Note_on_c, 2, 60, 96
4, 352256, Note_off_c, 2, 60, 0
4, 352256, Note_on_c, 2, 62, 96
4, 352768, Note_off_c, 2, 62, 0
4, 352768, Note_on_c, 2, 63, 96
4, 353280, Note_off_c, 2, 63, 0
4, 353280, Note_on_c, 2, 62, 96
4, 353792, Note_off_c, 2, 62, 0
4, 353792, Note_on_c, 2, 65, 96
4, 354304, Note_off_c, 2, 65, 0
4, 354304, Note_on_c, 2, 55, 96
4, 354816, Note_off_c, 2, 55, 0
4, 354816, Note_on_c, 2, 59, 96
4, 355328, Note_off_c, 2, 59, 0
4, 355328, Note_on_c, 2, 57, 96
4, 355840, Note_off_c, 2, 57, 0
4, 355840, Note_on_c, 2, 60, 96
4, 356352, Note_off_c, 2, 60, 0
4, 356352, Note_on_c, 2, 59, 96
4, 356864, Note_off_c, 2, 59, 0
4, 356864, Note_on_c, 2, 62, 96
4, 357376, Note_off_c, 2, 62, 0
4, 357376, Note_on_c, 2, 60, 96
4, 357888, Note_off_c, 2, 60, 0
4, 357888, Note_on_c, 2, 63, 96
4, 358400, Note_off_c, 2, 63, 0
4, 358400, Note_on_c, 2, 62, 96
4, 358912, Note_off_c, 2, 62, 0
4, 358912, Note_on_c, 2, 60, 96
4, 359424, Note_off_c, 2, 60, 0
4, 359424, Note_on_c, 2, 59, 96
4, 359936, Note_off_c, 2, 59, 0
4, 359936, Note_on_c, 2, 62, 96
4, 360448, Note_off_c, 2, 62, 0
4, 360448, Note_on_c, 2, 60, 96
4, 361472, Note_off_c, 2, 60, 0
4, 361472, Note_on_c, 2, 58, 96
4, 362496, Note_off_c, 2, 58, 0
4, 362496, Note_on_c, 2, 57, 96
4, 363520, Note_off_c, 2, 57, 0
4, 363520, Note_on_c, 2, 55, 96
4, 364544, Note_off_c, 2, 55, 0
4, 364544, Note_on_c, 2, 57, 96
4, 366592, Note_off_c, 2, 57, 0
4, 366592, Note_on_c, 2, 58, 96
4, 368640, Note_off_c, 2, 58, 0
4, 368640, Note_on_c, 2, 60, 96
4, 369664, Note_off_c, 2, 60, 0
4, 369664, Note_on_c, 2, 62, 96
4, 370688, Note_off_c, 2, 62, 0
4, 370688, Note_on_c, 2, 63, 96
4, 372736, Note_off_c, 2, 63, 0
4, 372736, Note_on_c, 2, 62, 96
4, 376832, Note_off_c, 2, 62, 0
4, 376832, End_track
5, 0, Start_track
5, 0, Title_t, "Instrument 4"
5, 94208, Note_on_c, 3, 43, 96
5, 98304, Note_off_c, 3, 43, 0
5, 98304, Note_on_c, 3, 43, 96
5, 100352, Note_off_c, 3, 43, 0
5, 100352, Note_on_c, 3, 42, 96
5, 102400, Note_off_c, 3, 42, 0
5, 102400, Note_on_c, 3, 46, 96
5, 104448, Note_off_c, 3, 46, 0
5, 104448, Note_on_c, 3, 45, 96
5, 105472, Note_off_c, 3, 45, 0
5, 105472, Note_on_c, 3, 43, 96
5, 106496, Note_off_c, 3, 43, 0
5, 106496, Note_on_c, 3, 45, 96
5, 110592, Note_off_c, 3, 45, 0
5, 110592, Note_on_c, 3, 43, 96
5, 122880, Note_off_c, 3, 43, 0
5, 155648, Note_on_c, 3, 43, 96
5, 157696, Note_off_c, 3, 43, 0
5, 157696, Note_on_c, 3, 46, 96
5, 159744, Note_off_c, 3, 46, 0
5, 159744, Note_on_c, 3, 48, 96
5, 161792, Note_off_c, 3, 48, 0
5, 161792, Note_on_c, 3, 46, 96
5, 163840, Note_off_c, 3, 46, 0
5, 163840, Note_on_c, 3, 48, 96
5, 165888, Note_off_c, 3, 48, 0
5, 165888, Note_on_c, 3, 50, 96
5, 167936, Note_off_c, 3, 50, 0
5, 167936, Note_on_c, 3, 46, 96
5, 180224, Note_off_c, 3, 46, 0
5, 229376, Note_on_c, 3, 46, 96
5, 231424, Note_off_c, 3, 46, 0
5, 231424, Note_on_c, 3, 48, 96
5, 233472, Note_off_c, 3, 48, 0
5, 233472, Note_on_c, 3, 50, 96
5, 235520, Note_off_c, 3, 50, 0
5, 235520, Note_on_c, 3, 46, 96
5, 237568, Note_off_c, 3, 46, 0
5, 237568, Note_on_c, 3, 48, 96
5, 238592, Note_off_c, 3, 48, 0
5, 238592, Note_on_c, 3, 46, 96
5, 239616, Note_off_c, 3, 46, 0
5, 239616, Note_on_c, 3, 45, 96
5, 241664, Note_off_c, 3, 45, 0
5, 241664, Note_on_c, 3, 43, 96
5, 253952, Note_off_c, 3, 43, 0
5, 327680, Note_on_c, 3, 43, 96
5, 331776, Note_off_c, 3, 43, 0
5, 331776, Note_on_c, 3, 43, 96
5, 333824, Note_off_c, 3, 43, 0
5, 333824, Note_on_c, 3, 42, 96
5, 335872, Note_off_c, 3, 42, 0
5, 335872, Note_on_c, 3, 46, 96
5, 337920, Note_off_c, 3, 46, 0
5, 337920, Note_on_c, 3, 45, 96
5, 338944, Note_off_c, 3, 45, 0
5, 338944, Note_on_c, 3, 43, 96
5, 339968, Note_off_c, 3, 43, 0
5, 339968, Note_on_c, 3, 45, 96
5, 344064, Note_off_c, 3, 45, 0
5, 344064, Note_on_c, 3, 43, 96
5, 376832, Note_off_c, 3, 43, 0
5, 376832, End_track
6, 0, Start_track
6, 0, Title_t, "Instrument 5"
6, 94208, Note_on_c, 4, 31, 96
6, 98304, Note_off_c, 4, 31, 0
6, 98304, Note_on_c, 4, 31, 96
6, 100352, Note_off_c, 4, 31, 0
6, 100352, Note_on_c, 4, 30, 96
6, 102400, Note_off_c, 4, 30, 0
6, 102400, Note_on_c, 4, 34, 96
6, 104448, Note_off_c, 4, 34, 0
6, 104448, Note_on_c, 4, 33, 96
6, 105472, Note_off_c, 4, 33, 0
6, 105472, Note_on_c, 4, 31, 96
6, 106496, Note_off_c, 4, 31, 0
6, 106496, Note_on_c, 4, 33, 96
6, 110592, Note_off_c, 4, 33, 0
6, 110592, Note_on_c, 4, 31, 96
6, 122880, Note_off_c, 4, 31, 0
6, 155648, Note_on_c, 4, 31, 96
6, 157696, Note_off_c, 4, 31, 0
6, 157696, Note_on_c, 4, 34, 96
6, 159744, Note_off_c, 4, 34, 0
6, 159744, Note_on_c, 4, 36, 96
6, 161792, Note_off_c, 4, 36, 0
6, 161792, Note_on_c, 4, 34, 96
6, 163840, Note_off_c, 4, 34, 0
6, 163840, Note_on_c, 4, 36, 96
6, 165888, Note_off_c, 4, 36, 0
6, 165888, Note_on_c, 4, 38, 96
6, 167936, Note_off_c, 4, 38, 0
6, 167936, Note_on_c, 4, 34, 96
6, 180224, Note_off_c, 4, 34, 0
6, 229376, Note_on_c, 4, 34, 96
6, 231424, Note_off_c, 4, 34, 0
6, 231424, Note_on_c, 4, 36, 96
6, 233472, Note_off_c, 4, 36, 0
6, 233472, Note_on_c, 4, 38, 96
6, 235520, Note_off_c, 4, 38, 0
6, 235520, Note_on_c, 4, 34, 96
6, 237568, Note_off_c, 4, 34, 0
6, 237568, Note_on_c, 4, 36, 96
6, 238592, Note_off_c, 4, 36, 0
6, 238592, Note_on_c, 4, 34, 96
6, 239616, Note_off_c, 4, 34, 0
6, 239616, Note_on_c, 4, 33, 96
6, 241664, Note_off_c, 4, 33, 0
6, 241664, Note_on_c, 4, 31, 96
6, 253952, Note_off_c, 4, 31, 0
6, 327680, Note_on_c, 4, 31, 96
6, 331776, Note_off_c, 4, 31, 0
6, 331776, Note_on_c, 4, 31, 96
6, 333824, Note_off_c, 4, 31, 0
6, 333824, Note_on_c, 4, 30, 96
6, 335872, Note_off_c, 4, 30, 0
6, 335872, Note_on_c, 4, 34, 96
6, 337920, Note_off_c, 4, 34, 0
6, 337920, Note_on_c, 4, 33, 96
6, 338944, Note_off_c, 4, 33, 0
6, 338944, Note_on_c, 4, 31, 96
6, 339968, Note_off_c, 4, 31, 0
6, 339968, Note_on_c, 4, 33, 96
6, 344064, Note_off_c, 4, 33, 0
6, 344064, Note_on_c, 4, 31, 96
6, 376832, Note_off_c, 4, 31, 0
6, 376832, End_track
0, 0, End_of_file
