0, 0, Header, 1, 14, 240
1, 0, Start_track
1, 0, Sequencer_specific, 10, 0, 0, 91, 35, 1, 0, 5, 6, 42, 0
1, 0, Title_t, "J. S. Bach - Orchestral Suite No.1 in C Major"
1, 0, Instrument_name_t, "Conductor Track"
1, 0, SMPTE_offset, 96, 0, 3, 0, 0
1, 0, MIDI_port, 0
1, 0, Marker_t, "Originally Sequenced 14 Aug 1999"
1, 0, Tempo, 344827
1, 0, Time_signature, 1, 2, 24, 8
1, 0, Key_signature, 0, "major"
1, 240, Time_signature, 3, 2, 24, 8
1, 39120, Tempo, 344827
1, 39180, Tempo, 355029
1, 39240, Tempo, 368098
1, 39300, Tempo, 379746
1, 39360, Tempo, 392156
1, 39420, Tempo, 408163
1, 39480, Tempo, 422535
1, 39540, Tempo, 437956
1, 39600, Tempo, 458015
1, 39660, Tempo, 476190
1, 39720, Tempo, 495867
1, 39780, Tempo, 521739
1, 39840, Tempo, 1000000
1, 39840, Time_signature, 4, 2, 24, 8
1, 40320, Tempo, 3000000
1, 40560, Tempo, 344827
1, 40800, Time_signature, 3, 2, 24, 8
1, 79680, Tempo, 344827
1, 79740, Tempo, 355029
1, 79800, Tempo, 368098
1, 79860, Tempo, 379746
1, 79920, Tempo, 392156
1, 79980, Tempo, 408163
1, 80040, Tempo, 422535
1, 80100, Tempo, 437956
1, 80160, Tempo, 458015
1, 80220, Tempo, 476190
1, 80280, Tempo, 495867
1, 80340, Tempo, 521739
1, 80400, Tempo, 1000000
1, 80400, Time_signature, 4, 2, 24, 8
1, 80880, Tempo, 3000000
1, 81120, Tempo, 344827
1, 81360, Time_signature, 3, 2, 24, 8
1, 120240, Tempo, 344827
1, 120300, Tempo, 355029
1, 120360, Tempo, 368098
1, 120420, Tempo, 379746
1, 120480, Tempo, 392156
1, 120540, Tempo, 408163
1, 120600, Tempo, 422535
1, 120660, Tempo, 437956
1, 120720, Tempo, 458015
1, 120780, Tempo, 476190
1, 120840, Tempo, 495867
1, 120900, Tempo, 521739
1, 120960, Tempo, 2000000
1, 121440, Tempo, 2000000
1, 121680, Tempo, 2000000
1, 121680, End_track
2, 0, Start_track
2, 0, Title_t, "7th Movement - Passepied I and II"
2, 0, MIDI_port, 0
2, 0, End_track
3, 0, Start_track
3, 0, Title_t, "Sequenced by D. L. Viens 31 Dec 1999"
3, 0, MIDI_port, 0
3, 0, End_track
4, 0, Start_track
4, 0, Title_t, "dlviens@empire.net"
4, 0, MIDI_port, 0
4, 0, End_track
5, 0, Start_track
5, 0, MIDI_port, 0
5, 0, End_track
6, 0, Start_track
6, 0, Title_t, "Oboe I"
6, 0, MIDI_port, 0
6, 0, Program_c, 0, 68
6, 0, Control_c, 0, 10, 55
6, 0, Control_c, 0, 11, 127
6, 0, Control_c, 0, 7, 80
6, 0, Note_on_c, 0, 67, 76
6, 224, Note_on_c, 0, 67, 0
6, 240, Note_on_c, 0, 72, 76
6, 464, Note_on_c, 0, 72, 0
6, 480, Note_on_c, 0, 76, 76
6, 599, Note_on_c, 0, 76, 0
6, 600, Note_on_c, 0, 74, 76
6, 719, Note_on_c, 0, 74, 0
6, 720, Note_on_c, 0, 72, 76
6, 839, Note_on_c, 0, 72, 0
6, 840, Note_on_c, 0, 71, 76
6, 944, Note_on_c, 0, 71, 0
6, 960, Note_on_c, 0, 72, 76
6, 1064, Note_on_c, 0, 72, 0
6, 1080, Note_on_c, 0, 74, 76
6, 1184, Note_on_c, 0, 74, 0
6, 1200, Note_on_c, 0, 76, 76
6, 1304, Note_on_c, 0, 76, 0
6, 1320, Note_on_c, 0, 77, 76
6, 1424, Note_on_c, 0, 77, 0
6, 1440, Note_on_c, 0, 79, 76
6, 1904, Note_on_c, 0, 79, 0
6, 1920, Note_on_c, 0, 81, 76
6, 2144, Note_on_c, 0, 81, 0
6, 2160, Note_on_c, 0, 77, 76
6, 2384, Note_on_c, 0, 77, 0
6, 2400, Note_on_c, 0, 74, 76
6, 2429, Note_on_c, 0, 74, 0
6, 2430, Note_on_c, 0, 76, 76
6, 2459, Note_on_c, 0, 76, 0
6, 2460, Note_on_c, 0, 74, 76
6, 2489, Note_on_c, 0, 74, 0
6, 2490, Note_on_c, 0, 76, 76
6, 2519, Note_on_c, 0, 76, 0
6, 2520, Note_on_c, 0, 74, 76
6, 2549, Note_on_c, 0, 74, 0
6, 2550, Note_on_c, 0, 76, 76
6, 2579, Note_on_c, 0, 76, 0
6, 2580, Note_on_c, 0, 72, 76
6, 2609, Note_on_c, 0, 72, 0
6, 2610, Note_on_c, 0, 74, 76
6, 2639, Note_on_c, 0, 74, 0
6, 2640, Note_on_c, 0, 72, 76
6, 2759, Note_on_c, 0, 72, 0
6, 2760, Note_on_c, 0, 71, 76
6, 2879, Note_on_c, 0, 71, 0
6, 2880, Note_on_c, 0, 69, 76
6, 2999, Note_on_c, 0, 69, 0
6, 3000, Note_on_c, 0, 67, 76
6, 3104, Note_on_c, 0, 67, 0
6, 3120, Note_on_c, 0, 72, 76
6, 3344, Note_on_c, 0, 72, 0
6, 3360, Note_on_c, 0, 76, 76
6, 3479, Note_on_c, 0, 76, 0
6, 3480, Note_on_c, 0, 74, 76
6, 3599, Note_on_c, 0, 74, 0
6, 3600, Note_on_c, 0, 72, 76
6, 3719, Note_on_c, 0, 72, 0
6, 3720, Note_on_c, 0, 71, 76
6, 3824, Note_on_c, 0, 71, 0
6, 3840, Note_on_c, 0, 74, 76
6, 3959, Note_on_c, 0, 74, 0
6, 3960, Note_on_c, 0, 72, 76
6, 4079, Note_on_c, 0, 72, 0
6, 4080, Note_on_c, 0, 71, 76
6, 4199, Note_on_c, 0, 71, 0
6, 4200, Note_on_c, 0, 69, 76
6, 4304, Note_on_c, 0, 69, 0
6, 4320, Note_on_c, 0, 74, 76
6, 4784, Note_on_c, 0, 74, 0
6, 4800, Note_on_c, 0, 72, 76
6, 4904, Note_on_c, 0, 72, 0
6, 4920, Note_on_c, 0, 71, 76
6, 5024, Note_on_c, 0, 71, 0
6, 5040, Note_on_c, 0, 69, 76
6, 5144, Note_on_c, 0, 69, 0
6, 5160, Note_on_c, 0, 71, 76
6, 5264, Note_on_c, 0, 71, 0
6, 5280, Note_on_c, 0, 67, 76
6, 5744, Note_on_c, 0, 67, 0
6, 5760, Note_on_c, 0, 67, 76
6, 5984, Note_on_c, 0, 67, 0
6, 6000, Note_on_c, 0, 72, 76
6, 6224, Note_on_c, 0, 72, 0
6, 6240, Note_on_c, 0, 76, 76
6, 6359, Note_on_c, 0, 76, 0
6, 6360, Note_on_c, 0, 74, 76
6, 6479, Note_on_c, 0, 74, 0
6, 6480, Note_on_c, 0, 72, 76
6, 6599, Note_on_c, 0, 72, 0
6, 6600, Note_on_c, 0, 71, 76
6, 6704, Note_on_c, 0, 71, 0
6, 6720, Note_on_c, 0, 72, 76
6, 6824, Note_on_c, 0, 72, 0
6, 6840, Note_on_c, 0, 74, 76
6, 6944, Note_on_c, 0, 74, 0
6, 6960, Note_on_c, 0, 76, 76
6, 7064, Note_on_c, 0, 76, 0
6, 7080, Note_on_c, 0, 77, 76
6, 7184, Note_on_c, 0, 77, 0
6, 7200, Note_on_c, 0, 79, 76
6, 7664, Note_on_c, 0, 79, 0
6, 7680, Note_on_c, 0, 81, 76
6, 7904, Note_on_c, 0, 81, 0
6, 7920, Note_on_c, 0, 77, 76
6, 8144, Note_on_c, 0, 77, 0
6, 8160, Note_on_c, 0, 74, 76
6, 8189, Note_on_c, 0, 74, 0
6, 8190, Note_on_c, 0, 76, 76
6, 8219, Note_on_c, 0, 76, 0
6, 8220, Note_on_c, 0, 74, 76
6, 8249, Note_on_c, 0, 74, 0
6, 8250, Note_on_c, 0, 76, 76
6, 8279, Note_on_c, 0, 76, 0
6, 8280, Note_on_c, 0, 74, 76
6, 8309, Note_on_c, 0, 74, 0
6, 8310, Note_on_c, 0, 76, 76
6, 8339, Note_on_c, 0, 76, 0
6, 8340, Note_on_c, 0, 72, 76
6, 8369, Note_on_c, 0, 72, 0
6, 8370, Note_on_c, 0, 74, 76
6, 8399, Note_on_c, 0, 74, 0
6, 8400, Note_on_c, 0, 72, 76
6, 8519, Note_on_c, 0, 72, 0
6, 8520, Note_on_c, 0, 71, 76
6, 8639, Note_on_c, 0, 71, 0
6, 8640, Note_on_c, 0, 69, 76
6, 8759, Note_on_c, 0, 69, 0
6, 8760, Note_on_c, 0, 67, 76
6, 8864, Note_on_c, 0, 67, 0
6, 8880, Note_on_c, 0, 72, 76
6, 9104, Note_on_c, 0, 72, 0
6, 9120, Note_on_c, 0, 76, 76
6, 9239, Note_on_c, 0, 76, 0
6, 9240, Note_on_c, 0, 74, 76
6, 9359, Note_on_c, 0, 74, 0
6, 9360, Note_on_c, 0, 72, 76
6, 9479, Note_on_c, 0, 72, 0
6, 9480, Note_on_c, 0, 71, 76
6, 9584, Note_on_c, 0, 71, 0
6, 9600, Note_on_c, 0, 74, 76
6, 9719, Note_on_c, 0, 74, 0
6, 9720, Note_on_c, 0, 72, 76
6, 9839, Note_on_c, 0, 72, 0
6, 9840, Note_on_c, 0, 71, 76
6, 9959, Note_on_c, 0, 71, 0
6, 9960, Note_on_c, 0, 69, 76
6, 10064, Note_on_c, 0, 69, 0
6, 10080, Note_on_c, 0, 74, 76
6, 10544, Note_on_c, 0, 74, 0
6, 10560, Note_on_c, 0, 72, 76
6, 10664, Note_on_c, 0, 72, 0
6, 10680, Note_on_c, 0, 71, 76
6, 10784, Note_on_c, 0, 71, 0
6, 10800, Note_on_c, 0, 69, 76
6, 10904, Note_on_c, 0, 69, 0
6, 10920, Note_on_c, 0, 71, 76
6, 11024, Note_on_c, 0, 71, 0
6, 11040, Note_on_c, 0, 67, 76
6, 11504, Note_on_c, 0, 67, 0
6, 11520, Note_on_c, 0, 74, 76
6, 11744, Note_on_c, 0, 74, 0
6, 11760, Note_on_c, 0, 71, 76
6, 11984, Note_on_c, 0, 71, 0
6, 12000, Note_on_c, 0, 72, 76
6, 12119, Note_on_c, 0, 72, 0
6, 12120, Note_on_c, 0, 71, 76
6, 12239, Note_on_c, 0, 71, 0
6, 12240, Note_on_c, 0, 69, 76
6, 12359, Note_on_c, 0, 69, 0
6, 12360, Note_on_c, 0, 67, 76
6, 12464, Note_on_c, 0, 67, 0
6, 12480, Note_on_c, 0, 76, 76
6, 12599, Note_on_c, 0, 76, 0
6, 12600, Note_on_c, 0, 77, 76
6, 12719, Note_on_c, 0, 77, 0
6, 12720, Note_on_c, 0, 79, 76
6, 12839, Note_on_c, 0, 79, 0
6, 12840, Note_on_c, 0, 81, 76
6, 12944, Note_on_c, 0, 81, 0
6, 12960, Note_on_c, 0, 82, 76
6, 13424, Note_on_c, 0, 82, 0
6, 13440, Note_on_c, 0, 81, 76
6, 13664, Note_on_c, 0, 81, 0
6, 13680, Note_on_c, 0, 79, 76
6, 13904, Note_on_c, 0, 79, 0
6, 13920, Note_on_c, 0, 77, 76
6, 14144, Note_on_c, 0, 77, 0
6, 14160, Note_on_c, 0, 79, 76
6, 14279, Note_on_c, 0, 79, 0
6, 14280, Note_on_c, 0, 77, 76
6, 14399, Note_on_c, 0, 77, 0
6, 14400, Note_on_c, 0, 76, 76
6, 14519, Note_on_c, 0, 76, 0
6, 14520, Note_on_c, 0, 74, 76
6, 14624, Note_on_c, 0, 74, 0
6, 14640, Note_on_c, 0, 73, 76
6, 14744, Note_on_c, 0, 73, 0
6, 14760, Note_on_c, 0, 74, 76
6, 14864, Note_on_c, 0, 74, 0
6, 14880, Note_on_c, 0, 76, 76
6, 15104, Note_on_c, 0, 76, 0
6, 15120, Note_on_c, 0, 81, 76
6, 15584, Note_on_c, 0, 81, 0
6, 15600, Note_on_c, 0, 79, 76
6, 15719, Note_on_c, 0, 79, 0
6, 15720, Note_on_c, 0, 77, 76
6, 15839, Note_on_c, 0, 77, 0
6, 15840, Note_on_c, 0, 76, 76
6, 15959, Note_on_c, 0, 76, 0
6, 15960, Note_on_c, 0, 74, 76
6, 16064, Note_on_c, 0, 74, 0
6, 16080, Note_on_c, 0, 73, 76
6, 16199, Note_on_c, 0, 73, 0
6, 16200, Note_on_c, 0, 74, 76
6, 16319, Note_on_c, 0, 74, 0
6, 16320, Note_on_c, 0, 76, 76
6, 16439, Note_on_c, 0, 76, 0
6, 16440, Note_on_c, 0, 77, 76
6, 16544, Note_on_c, 0, 77, 0
6, 16560, Note_on_c, 0, 79, 76
6, 17024, Note_on_c, 0, 79, 0
6, 17040, Note_on_c, 0, 77, 76
6, 17159, Note_on_c, 0, 77, 0
6, 17160, Note_on_c, 0, 76, 76
6, 17279, Note_on_c, 0, 76, 0
6, 17280, Note_on_c, 0, 74, 76
6, 17399, Note_on_c, 0, 74, 0
6, 17400, Note_on_c, 0, 73, 76
6, 17504, Note_on_c, 0, 73, 0
6, 17520, Note_on_c, 0, 74, 76
6, 17624, Note_on_c, 0, 74, 0
6, 17640, Note_on_c, 0, 69, 76
6, 17744, Note_on_c, 0, 69, 0
6, 17760, Note_on_c, 0, 77, 76
6, 17879, Note_on_c, 0, 77, 0
6, 17880, Note_on_c, 0, 76, 76
6, 17999, Note_on_c, 0, 76, 0
6, 18000, Note_on_c, 0, 74, 76
6, 18119, Note_on_c, 0, 74, 0
6, 18120, Note_on_c, 0, 72, 76
6, 18224, Note_on_c, 0, 72, 0
6, 18240, Note_on_c, 0, 70, 76
6, 18359, Note_on_c, 0, 70, 0
6, 18360, Note_on_c, 0, 74, 76
6, 18464, Note_on_c, 0, 74, 0
6, 18480, Note_on_c, 0, 79, 76
6, 18584, Note_on_c, 0, 79, 0
6, 18600, Note_on_c, 0, 76, 76
6, 18704, Note_on_c, 0, 76, 0
6, 18720, Note_on_c, 0, 77, 76
6, 19064, Note_on_c, 0, 77, 0
6, 19080, Note_on_c, 0, 74, 76
6, 19184, Note_on_c, 0, 74, 0
6, 19200, Note_on_c, 0, 77, 76
6, 19319, Note_on_c, 0, 77, 0
6, 19320, Note_on_c, 0, 76, 76
6, 19424, Note_on_c, 0, 76, 0
6, 19440, Note_on_c, 0, 74, 76
6, 19559, Note_on_c, 0, 74, 0
6, 19560, Note_on_c, 0, 73, 76
6, 19664, Note_on_c, 0, 73, 0
6, 19680, Note_on_c, 0, 74, 76
6, 20144, Note_on_c, 0, 74, 0
6, 20160, Note_on_c, 0, 69, 76
6, 20264, Note_on_c, 0, 69, 0
6, 20280, Note_on_c, 0, 71, 76
6, 20384, Note_on_c, 0, 71, 0
6, 20400, Note_on_c, 0, 72, 76
6, 20624, Note_on_c, 0, 72, 0
6, 20640, Note_on_c, 0, 74, 76
6, 20759, Note_on_c, 0, 74, 0
6, 20760, Note_on_c, 0, 72, 76
6, 20879, Note_on_c, 0, 72, 0
6, 20880, Note_on_c, 0, 71, 76
6, 20999, Note_on_c, 0, 71, 0
6, 21000, Note_on_c, 0, 69, 76
6, 21104, Note_on_c, 0, 69, 0
6, 21120, Note_on_c, 0, 71, 76
6, 21224, Note_on_c, 0, 71, 0
6, 21240, Note_on_c, 0, 69, 76
6, 21344, Note_on_c, 0, 69, 0
6, 21360, Note_on_c, 0, 67, 76
6, 21464, Note_on_c, 0, 67, 0
6, 21480, Note_on_c, 0, 69, 76
6, 21584, Note_on_c, 0, 69, 0
6, 21600, Note_on_c, 0, 71, 76
6, 21704, Note_on_c, 0, 71, 0
6, 21720, Note_on_c, 0, 72, 76
6, 21824, Note_on_c, 0, 72, 0
6, 21840, Note_on_c, 0, 74, 76
6, 21944, Note_on_c, 0, 74, 0
6, 21960, Note_on_c, 0, 76, 76
6, 22064, Note_on_c, 0, 76, 0
6, 22080, Note_on_c, 0, 77, 76
6, 22304, Note_on_c, 0, 77, 0
6, 22320, Note_on_c, 0, 76, 76
6, 22544, Note_on_c, 0, 76, 0
6, 22560, Note_on_c, 0, 74, 76
6, 22664, Note_on_c, 0, 74, 0
6, 22680, Note_on_c, 0, 72, 76
6, 22784, Note_on_c, 0, 72, 0
6, 22800, Note_on_c, 0, 71, 76
6, 22904, Note_on_c, 0, 71, 0
6, 22920, Note_on_c, 0, 72, 76
6, 23024, Note_on_c, 0, 72, 0
6, 23040, Note_on_c, 0, 74, 76
6, 23144, Note_on_c, 0, 74, 0
6, 23160, Note_on_c, 0, 76, 76
6, 23264, Note_on_c, 0, 76, 0
6, 23280, Note_on_c, 0, 77, 76
6, 23384, Note_on_c, 0, 77, 0
6, 23400, Note_on_c, 0, 79, 76
6, 23504, Note_on_c, 0, 79, 0
6, 23520, Note_on_c, 0, 81, 76
6, 23744, Note_on_c, 0, 81, 0
6, 23760, Note_on_c, 0, 79, 76
6, 24224, Note_on_c, 0, 79, 0
6, 24240, Note_on_c, 0, 70, 76
6, 24344, Note_on_c, 0, 70, 0
6, 24360, Note_on_c, 0, 69, 76
6, 24464, Note_on_c, 0, 69, 0
6, 24480, Note_on_c, 0, 70, 76
6, 24584, Note_on_c, 0, 70, 0
6, 24600, Note_on_c, 0, 67, 76
6, 24704, Note_on_c, 0, 67, 0
6, 24720, Note_on_c, 0, 69, 76
6, 24944, Note_on_c, 0, 69, 0
6, 24960, Note_on_c, 0, 74, 76
6, 25184, Note_on_c, 0, 74, 0
6, 25200, Note_on_c, 0, 71, 76
6, 25424, Note_on_c, 0, 71, 0
6, 25440, Note_on_c, 0, 72, 76
6, 25904, Note_on_c, 0, 72, 0
6, 25920, Note_on_c, 0, 74, 76
6, 26144, Note_on_c, 0, 74, 0
6, 26160, Note_on_c, 0, 71, 76
6, 26384, Note_on_c, 0, 71, 0
6, 26400, Note_on_c, 0, 72, 76
6, 26519, Note_on_c, 0, 72, 0
6, 26520, Note_on_c, 0, 71, 76
6, 26639, Note_on_c, 0, 71, 0
6, 26640, Note_on_c, 0, 69, 76
6, 26759, Note_on_c, 0, 69, 0
6, 26760, Note_on_c, 0, 67, 76
6, 26864, Note_on_c, 0, 67, 0
6, 26880, Note_on_c, 0, 76, 76
6, 26999, Note_on_c, 0, 76, 0
6, 27000, Note_on_c, 0, 77, 76
6, 27119, Note_on_c, 0, 77, 0
6, 27120, Note_on_c, 0, 79, 76
6, 27239, Note_on_c, 0, 79, 0
6, 27240, Note_on_c, 0, 81, 76
6, 27344, Note_on_c, 0, 81, 0
6, 27360, Note_on_c, 0, 82, 76
6, 27824, Note_on_c, 0, 82, 0
6, 27840, Note_on_c, 0, 81, 76
6, 28064, Note_on_c, 0, 81, 0
6, 28080, Note_on_c, 0, 79, 76
6, 28304, Note_on_c, 0, 79, 0
6, 28320, Note_on_c, 0, 77, 76
6, 28544, Note_on_c, 0, 77, 0
6, 28560, Note_on_c, 0, 79, 76
6, 28679, Note_on_c, 0, 79, 0
6, 28680, Note_on_c, 0, 77, 76
6, 28799, Note_on_c, 0, 77, 0
6, 28800, Note_on_c, 0, 76, 76
6, 28919, Note_on_c, 0, 76, 0
6, 28920, Note_on_c, 0, 74, 76
6, 29024, Note_on_c, 0, 74, 0
6, 29040, Note_on_c, 0, 73, 76
6, 29144, Note_on_c, 0, 73, 0
6, 29160, Note_on_c, 0, 74, 76
6, 29264, Note_on_c, 0, 74, 0
6, 29280, Note_on_c, 0, 76, 76
6, 29504, Note_on_c, 0, 76, 0
6, 29520, Note_on_c, 0, 81, 76
6, 29984, Note_on_c, 0, 81, 0
6, 30000, Note_on_c, 0, 79, 76
6, 30119, Note_on_c, 0, 79, 0
6, 30120, Note_on_c, 0, 77, 76
6, 30239, Note_on_c, 0, 77, 0
6, 30240, Note_on_c, 0, 76, 76
6, 30359, Note_on_c, 0, 76, 0
6, 30360, Note_on_c, 0, 74, 76
6, 30464, Note_on_c, 0, 74, 0
6, 30480, Note_on_c, 0, 73, 76
6, 30599, Note_on_c, 0, 73, 0
6, 30600, Note_on_c, 0, 74, 76
6, 30719, Note_on_c, 0, 74, 0
6, 30720, Note_on_c, 0, 76, 76
6, 30839, Note_on_c, 0, 76, 0
6, 30840, Note_on_c, 0, 77, 76
6, 30944, Note_on_c, 0, 77, 0
6, 30960, Note_on_c, 0, 79, 76
6, 31424, Note_on_c, 0, 79, 0
6, 31440, Note_on_c, 0, 77, 76
6, 31559, Note_on_c, 0, 77, 0
6, 31560, Note_on_c, 0, 76, 76
6, 31679, Note_on_c, 0, 76, 0
6, 31680, Note_on_c, 0, 74, 76
6, 31799, Note_on_c, 0, 74, 0
6, 31800, Note_on_c, 0, 73, 76
6, 31904, Note_on_c, 0, 73, 0
6, 31920, Note_on_c, 0, 74, 76
6, 32024, Note_on_c, 0, 74, 0
6, 32040, Note_on_c, 0, 69, 76
6, 32144, Note_on_c, 0, 69, 0
6, 32160, Note_on_c, 0, 77, 76
6, 32279, Note_on_c, 0, 77, 0
6, 32280, Note_on_c, 0, 76, 76
6, 32399, Note_on_c, 0, 76, 0
6, 32400, Note_on_c, 0, 74, 76
6, 32519, Note_on_c, 0, 74, 0
6, 32520, Note_on_c, 0, 72, 76
6, 32624, Note_on_c, 0, 72, 0
6, 32640, Note_on_c, 0, 70, 76
6, 32759, Note_on_c, 0, 70, 0
6, 32760, Note_on_c, 0, 74, 76
6, 32864, Note_on_c, 0, 74, 0
6, 32880, Note_on_c, 0, 79, 76
6, 32984, Note_on_c, 0, 79, 0
6, 33000, Note_on_c, 0, 76, 76
6, 33104, Note_on_c, 0, 76, 0
6, 33120, Note_on_c, 0, 77, 76
6, 33464, Note_on_c, 0, 77, 0
6, 33480, Note_on_c, 0, 74, 76
6, 33584, Note_on_c, 0, 74, 0
6, 33600, Note_on_c, 0, 77, 76
6, 33719, Note_on_c, 0, 77, 0
6, 33720, Note_on_c, 0, 76, 76
6, 33824, Note_on_c, 0, 76, 0
6, 33840, Note_on_c, 0, 74, 76
6, 33959, Note_on_c, 0, 74, 0
6, 33960, Note_on_c, 0, 73, 76
6, 34064, Note_on_c, 0, 73, 0
6, 34080, Note_on_c, 0, 74, 76
6, 34544, Note_on_c, 0, 74, 0
6, 34560, Note_on_c, 0, 69, 76
6, 34664, Note_on_c, 0, 69, 0
6, 34680, Note_on_c, 0, 71, 76
6, 34784, Note_on_c, 0, 71, 0
6, 34800, Note_on_c, 0, 72, 76
6, 35024, Note_on_c, 0, 72, 0
6, 35040, Note_on_c, 0, 74, 76
6, 35159, Note_on_c, 0, 74, 0
6, 35160, Note_on_c, 0, 72, 76
6, 35279, Note_on_c, 0, 72, 0
6, 35280, Note_on_c, 0, 71, 76
6, 35399, Note_on_c, 0, 71, 0
6, 35400, Note_on_c, 0, 69, 76
6, 35504, Note_on_c, 0, 69, 0
6, 35520, Note_on_c, 0, 71, 76
6, 35624, Note_on_c, 0, 71, 0
6, 35640, Note_on_c, 0, 69, 76
6, 35744, Note_on_c, 0, 69, 0
6, 35760, Note_on_c, 0, 67, 76
6, 35864, Note_on_c, 0, 67, 0
6, 35880, Note_on_c, 0, 69, 76
6, 35984, Note_on_c, 0, 69, 0
6, 36000, Note_on_c, 0, 71, 76
6, 36104, Note_on_c, 0, 71, 0
6, 36120, Note_on_c, 0, 72, 76
6, 36224, Note_on_c, 0, 72, 0
6, 36240, Note_on_c, 0, 74, 76
6, 36344, Note_on_c, 0, 74, 0
6, 36360, Note_on_c, 0, 76, 76
6, 36464, Note_on_c, 0, 76, 0
6, 36480, Note_on_c, 0, 77, 76
6, 36704, Note_on_c, 0, 77, 0
6, 36720, Note_on_c, 0, 76, 76
6, 36944, Note_on_c, 0, 76, 0
6, 36960, Note_on_c, 0, 74, 76
6, 37064, Note_on_c, 0, 74, 0
6, 37080, Note_on_c, 0, 72, 76
6, 37184, Note_on_c, 0, 72, 0
6, 37200, Note_on_c, 0, 71, 76
6, 37304, Note_on_c, 0, 71, 0
6, 37320, Note_on_c, 0, 72, 76
6, 37424, Note_on_c, 0, 72, 0
6, 37440, Note_on_c, 0, 74, 76
6, 37544, Note_on_c, 0, 74, 0
6, 37560, Note_on_c, 0, 76, 76
6, 37664, Note_on_c, 0, 76, 0
6, 37680, Note_on_c, 0, 77, 76
6, 37784, Note_on_c, 0, 77, 0
6, 37800, Note_on_c, 0, 79, 76
6, 37904, Note_on_c, 0, 79, 0
6, 37920, Note_on_c, 0, 81, 76
6, 38144, Note_on_c, 0, 81, 0
6, 38160, Note_on_c, 0, 79, 76
6, 38624, Note_on_c, 0, 79, 0
6, 38640, Note_on_c, 0, 70, 76
6, 38744, Note_on_c, 0, 70, 0
6, 38760, Note_on_c, 0, 69, 76
6, 38864, Note_on_c, 0, 69, 0
6, 38880, Note_on_c, 0, 70, 76
6, 38984, Note_on_c, 0, 70, 0
6, 39000, Note_on_c, 0, 67, 76
6, 39104, Note_on_c, 0, 67, 0
6, 39120, Note_on_c, 0, 69, 76
6, 39344, Note_on_c, 0, 69, 0
6, 39360, Note_on_c, 0, 74, 76
6, 39584, Note_on_c, 0, 74, 0
6, 39600, Note_on_c, 0, 71, 76
6, 39824, Note_on_c, 0, 71, 0
6, 39840, Note_on_c, 0, 72, 76
6, 40319, Note_on_c, 0, 72, 0
6, 40560, Note_on_c, 0, 79, 68
6, 40664, Note_on_c, 0, 79, 0
6, 40680, Note_on_c, 0, 77, 68
6, 40784, Note_on_c, 0, 77, 0
6, 40800, Note_on_c, 0, 76, 68
6, 40919, Note_on_c, 0, 76, 0
6, 40920, Note_on_c, 0, 74, 68
6, 41039, Note_on_c, 0, 74, 0
6, 41040, Note_on_c, 0, 72, 68
6, 41159, Note_on_c, 0, 72, 0
6, 41160, Note_on_c, 0, 74, 68
6, 41279, Note_on_c, 0, 74, 0
6, 41280, Note_on_c, 0, 76, 68
6, 41399, Note_on_c, 0, 76, 0
6, 41400, Note_on_c, 0, 77, 68
6, 41504, Note_on_c, 0, 77, 0
6, 41520, Note_on_c, 0, 76, 68
6, 41639, Note_on_c, 0, 76, 0
6, 41640, Note_on_c, 0, 74, 68
6, 41759, Note_on_c, 0, 74, 0
6, 41760, Note_on_c, 0, 72, 68
6, 41879, Note_on_c, 0, 72, 0
6, 41880, Note_on_c, 0, 74, 68
6, 41999, Note_on_c, 0, 74, 0
6, 42000, Note_on_c, 0, 76, 68
6, 42119, Note_on_c, 0, 76, 0
6, 42120, Note_on_c, 0, 77, 68
6, 42224, Note_on_c, 0, 77, 0
6, 42240, Note_on_c, 0, 76, 68
6, 42359, Note_on_c, 0, 76, 0
6, 42360, Note_on_c, 0, 74, 68
6, 42479, Note_on_c, 0, 74, 0
6, 42480, Note_on_c, 0, 77, 68
6, 42599, Note_on_c, 0, 77, 0
6, 42600, Note_on_c, 0, 76, 68
6, 42719, Note_on_c, 0, 76, 0
6, 42720, Note_on_c, 0, 74, 68
6, 42839, Note_on_c, 0, 74, 0
6, 42840, Note_on_c, 0, 72, 68
6, 42944, Note_on_c, 0, 72, 0
6, 42960, Note_on_c, 0, 71, 68
6, 43079, Note_on_c, 0, 71, 0
6, 43080, Note_on_c, 0, 72, 68
6, 43199, Note_on_c, 0, 72, 0
6, 43200, Note_on_c, 0, 74, 68
6, 43319, Note_on_c, 0, 74, 0
6, 43320, Note_on_c, 0, 76, 68
6, 43439, Note_on_c, 0, 76, 0
6, 43440, Note_on_c, 0, 77, 68
6, 43559, Note_on_c, 0, 77, 0
6, 43560, Note_on_c, 0, 79, 68
6, 43664, Note_on_c, 0, 79, 0
6, 43680, Note_on_c, 0, 76, 68
6, 43799, Note_on_c, 0, 76, 0
6, 43800, Note_on_c, 0, 74, 68
6, 43919, Note_on_c, 0, 74, 0
6, 43920, Note_on_c, 0, 72, 68
6, 44039, Note_on_c, 0, 72, 0
6, 44040, Note_on_c, 0, 71, 68
6, 44159, Note_on_c, 0, 71, 0
6, 44160, Note_on_c, 0, 69, 68
6, 44279, Note_on_c, 0, 69, 0
6, 44280, Note_on_c, 0, 67, 68
6, 44384, Note_on_c, 0, 67, 0
6, 44400, Note_on_c, 0, 66, 68
6, 44504, Note_on_c, 0, 66, 0
6, 44520, Note_on_c, 0, 69, 68
6, 44624, Note_on_c, 0, 69, 0
6, 44640, Note_on_c, 0, 74, 68
6, 44744, Note_on_c, 0, 74, 0
6, 44760, Note_on_c, 0, 72, 68
6, 44864, Note_on_c, 0, 72, 0
6, 44880, Note_on_c, 0, 71, 68
6, 44984, Note_on_c, 0, 71, 0
6, 45000, Note_on_c, 0, 69, 68
6, 45104, Note_on_c, 0, 69, 0
6, 45120, Note_on_c, 0, 67, 68
6, 45344, Note_on_c, 0, 67, 0
6, 45360, Note_on_c, 0, 69, 68
6, 45584, Note_on_c, 0, 69, 0
6, 45600, Note_on_c, 0, 66, 68
6, 45824, Note_on_c, 0, 66, 0
6, 45840, Note_on_c, 0, 67, 68
6, 46304, Note_on_c, 0, 67, 0
6, 46320, Note_on_c, 0, 79, 68
6, 46424, Note_on_c, 0, 79, 0
6, 46440, Note_on_c, 0, 77, 68
6, 46544, Note_on_c, 0, 77, 0
6, 46560, Note_on_c, 0, 76, 68
6, 46679, Note_on_c, 0, 76, 0
6, 46680, Note_on_c, 0, 74, 68
6, 46799, Note_on_c, 0, 74, 0
6, 46800, Note_on_c, 0, 72, 68
6, 46919, Note_on_c, 0, 72, 0
6, 46920, Note_on_c, 0, 74, 68
6, 47039, Note_on_c, 0, 74, 0
6, 47040, Note_on_c, 0, 76, 68
6, 47159, Note_on_c, 0, 76, 0
6, 47160, Note_on_c, 0, 77, 68
6, 47264, Note_on_c, 0, 77, 0
6, 47280, Note_on_c, 0, 76, 68
6, 47399, Note_on_c, 0, 76, 0
6, 47400, Note_on_c, 0, 74, 68
6, 47519, Note_on_c, 0, 74, 0
6, 47520, Note_on_c, 0, 72, 68
6, 47639, Note_on_c, 0, 72, 0
6, 47640, Note_on_c, 0, 74, 68
6, 47759, Note_on_c, 0, 74, 0
6, 47760, Note_on_c, 0, 76, 68
6, 47879, Note_on_c, 0, 76, 0
6, 47880, Note_on_c, 0, 77, 68
6, 47984, Note_on_c, 0, 77, 0
6, 48000, Note_on_c, 0, 76, 68
6, 48119, Note_on_c, 0, 76, 0
6, 48120, Note_on_c, 0, 74, 68
6, 48239, Note_on_c, 0, 74, 0
6, 48240, Note_on_c, 0, 77, 68
6, 48359, Note_on_c, 0, 77, 0
6, 48360, Note_on_c, 0, 76, 68
6, 48479, Note_on_c, 0, 76, 0
6, 48480, Note_on_c, 0, 74, 68
6, 48599, Note_on_c, 0, 74, 0
6, 48600, Note_on_c, 0, 72, 68
6, 48704, Note_on_c, 0, 72, 0
6, 48720, Note_on_c, 0, 71, 68
6, 48839, Note_on_c, 0, 71, 0
6, 48840, Note_on_c, 0, 72, 68
6, 48959, Note_on_c, 0, 72, 0
6, 48960, Note_on_c, 0, 74, 68
6, 49079, Note_on_c, 0, 74, 0
6, 49080, Note_on_c, 0, 76, 68
6, 49199, Note_on_c, 0, 76, 0
6, 49200, Note_on_c, 0, 77, 68
6, 49319, Note_on_c, 0, 77, 0
6, 49320, Note_on_c, 0, 79, 68
6, 49424, Note_on_c, 0, 79, 0
6, 49440, Note_on_c, 0, 76, 68
6, 49559, Note_on_c, 0, 76, 0
6, 49560, Note_on_c, 0, 74, 68
6, 49679, Note_on_c, 0, 74, 0
6, 49680, Note_on_c, 0, 72, 68
6, 49799, Note_on_c, 0, 72, 0
6, 49800, Note_on_c, 0, 71, 68
6, 49919, Note_on_c, 0, 71, 0
6, 49920, Note_on_c, 0, 69, 68
6, 50039, Note_on_c, 0, 69, 0
6, 50040, Note_on_c, 0, 67, 68
6, 50144, Note_on_c, 0, 67, 0
6, 50160, Note_on_c, 0, 66, 68
6, 50264, Note_on_c, 0, 66, 0
6, 50280, Note_on_c, 0, 69, 68
6, 50384, Note_on_c, 0, 69, 0
6, 50400, Note_on_c, 0, 74, 68
6, 50504, Note_on_c, 0, 74, 0
6, 50520, Note_on_c, 0, 72, 68
6, 50624, Note_on_c, 0, 72, 0
6, 50640, Note_on_c, 0, 71, 68
6, 50744, Note_on_c, 0, 71, 0
6, 50760, Note_on_c, 0, 69, 68
6, 50864, Note_on_c, 0, 69, 0
6, 50880, Note_on_c, 0, 67, 68
6, 51104, Note_on_c, 0, 67, 0
6, 51120, Note_on_c, 0, 69, 68
6, 51344, Note_on_c, 0, 69, 0
6, 51360, Note_on_c, 0, 66, 68
6, 51584, Note_on_c, 0, 66, 0
6, 51600, Note_on_c, 0, 67, 68
6, 51704, Note_on_c, 0, 67, 0
6, 51720, Note_on_c, 0, 66, 68
6, 51824, Note_on_c, 0, 66, 0
6, 51840, Note_on_c, 0, 67, 68
6, 51944, Note_on_c, 0, 67, 0
6, 51960, Note_on_c, 0, 69, 68
6, 52064, Note_on_c, 0, 69, 0
6, 52080, Note_on_c, 0, 71, 68
6, 52184, Note_on_c, 0, 71, 0
6, 52200, Note_on_c, 0, 72, 68
6, 52304, Note_on_c, 0, 72, 0
6, 52320, Note_on_c, 0, 74, 68
6, 52439, Note_on_c, 0, 74, 0
6, 52440, Note_on_c, 0, 77, 68
6, 52559, Note_on_c, 0, 77, 0
6, 52560, Note_on_c, 0, 76, 68
6, 52679, Note_on_c, 0, 76, 0
6, 52680, Note_on_c, 0, 74, 68
6, 52799, Note_on_c, 0, 74, 0
6, 52800, Note_on_c, 0, 72, 68
6, 52919, Note_on_c, 0, 72, 0
6, 52920, Note_on_c, 0, 71, 68
6, 53024, Note_on_c, 0, 71, 0
6, 53040, Note_on_c, 0, 73, 68
6, 53159, Note_on_c, 0, 73, 0
6, 53160, Note_on_c, 0, 69, 68
6, 53279, Note_on_c, 0, 69, 0
6, 53280, Note_on_c, 0, 71, 68
6, 53399, Note_on_c, 0, 71, 0
6, 53400, Note_on_c, 0, 73, 68
6, 53519, Note_on_c, 0, 73, 0
6, 53520, Note_on_c, 0, 74, 68
6, 53639, Note_on_c, 0, 74, 0
6, 53640, Note_on_c, 0, 73, 68
6, 53744, Note_on_c, 0, 73, 0
6, 53760, Note_on_c, 0, 76, 68
6, 53879, Note_on_c, 0, 76, 0
6, 53880, Note_on_c, 0, 74, 68
6, 53984, Note_on_c, 0, 74, 0
6, 54000, Note_on_c, 0, 77, 68
6, 54119, Note_on_c, 0, 77, 0
6, 54120, Note_on_c, 0, 76, 68
6, 54224, Note_on_c, 0, 76, 0
6, 54240, Note_on_c, 0, 82, 68
6, 54359, Note_on_c, 0, 82, 0
6, 54360, Note_on_c, 0, 81, 68
6, 54464, Note_on_c, 0, 81, 0
6, 54480, Note_on_c, 0, 81, 68
6, 54599, Note_on_c, 0, 81, 0
6, 54600, Note_on_c, 0, 77, 68
6, 54719, Note_on_c, 0, 77, 0
6, 54720, Note_on_c, 0, 76, 68
6, 54839, Note_on_c, 0, 76, 0
6, 54840, Note_on_c, 0, 74, 68
6, 54959, Note_on_c, 0, 74, 0
6, 54960, Note_on_c, 0, 73, 68
6, 55079, Note_on_c, 0, 73, 0
6, 55080, Note_on_c, 0, 74, 68
6, 55184, Note_on_c, 0, 74, 0
6, 55200, Note_on_c, 0, 76, 68
6, 55319, Note_on_c, 0, 76, 0
6, 55320, Note_on_c, 0, 77, 68
6, 55439, Note_on_c, 0, 77, 0
6, 55440, Note_on_c, 0, 79, 68
6, 55559, Note_on_c, 0, 79, 0
6, 55560, Note_on_c, 0, 76, 68
6, 55664, Note_on_c, 0, 76, 0
6, 55680, Note_on_c, 0, 77, 68
6, 55799, Note_on_c, 0, 77, 0
6, 55800, Note_on_c, 0, 74, 68
6, 55904, Note_on_c, 0, 74, 0
6, 55920, Note_on_c, 0, 73, 68
6, 56039, Note_on_c, 0, 73, 0
6, 56040, Note_on_c, 0, 71, 68
6, 56159, Note_on_c, 0, 71, 0
6, 56160, Note_on_c, 0, 73, 68
6, 56279, Note_on_c, 0, 73, 0
6, 56280, Note_on_c, 0, 74, 68
6, 56399, Note_on_c, 0, 74, 0
6, 56400, Note_on_c, 0, 76, 68
6, 56519, Note_on_c, 0, 76, 0
6, 56520, Note_on_c, 0, 77, 68
6, 56624, Note_on_c, 0, 77, 0
6, 56640, Note_on_c, 0, 79, 68
6, 56759, Note_on_c, 0, 79, 0
6, 56760, Note_on_c, 0, 77, 68
6, 56879, Note_on_c, 0, 77, 0
6, 56880, Note_on_c, 0, 79, 68
6, 56999, Note_on_c, 0, 79, 0
6, 57000, Note_on_c, 0, 81, 68
6, 57119, Note_on_c, 0, 81, 0
6, 57120, Note_on_c, 0, 82, 68
6, 57239, Note_on_c, 0, 82, 0
6, 57240, Note_on_c, 0, 79, 68
6, 57344, Note_on_c, 0, 79, 0
6, 57360, Note_on_c, 0, 81, 68
6, 57479, Note_on_c, 0, 81, 0
6, 57480, Note_on_c, 0, 82, 68
6, 57599, Note_on_c, 0, 82, 0
6, 57600, Note_on_c, 0, 81, 68
6, 57719, Note_on_c, 0, 81, 0
6, 57720, Note_on_c, 0, 79, 68
6, 57839, Note_on_c, 0, 79, 0
6, 57840, Note_on_c, 0, 77, 68
6, 57959, Note_on_c, 0, 77, 0
6, 57960, Note_on_c, 0, 76, 68
6, 58064, Note_on_c, 0, 76, 0
6, 58080, Note_on_c, 0, 77, 68
6, 58904, Note_on_c, 0, 77, 0
6, 58920, Note_on_c, 0, 77, 68
6, 59039, Note_on_c, 0, 77, 0
6, 59040, Note_on_c, 0, 76, 68
6, 59159, Note_on_c, 0, 76, 0
6, 59160, Note_on_c, 0, 73, 68
6, 59279, Note_on_c, 0, 73, 0
6, 59280, Note_on_c, 0, 74, 68
6, 59399, Note_on_c, 0, 74, 0
6, 59400, Note_on_c, 0, 76, 68
6, 59504, Note_on_c, 0, 76, 0
6, 59520, Note_on_c, 0, 69, 68
6, 59744, Note_on_c, 0, 69, 0
6, 59760, Note_on_c, 0, 81, 68
6, 59984, Note_on_c, 0, 81, 0
6, 60000, Note_on_c, 0, 76, 68
6, 60029, Note_on_c, 0, 76, 0
6, 60030, Note_on_c, 0, 77, 68
6, 60059, Note_on_c, 0, 77, 0
6, 60060, Note_on_c, 0, 76, 68
6, 60089, Note_on_c, 0, 76, 0
6, 60090, Note_on_c, 0, 77, 68
6, 60119, Note_on_c, 0, 77, 0
6, 60120, Note_on_c, 0, 76, 68
6, 60149, Note_on_c, 0, 76, 0
6, 60150, Note_on_c, 0, 77, 68
6, 60179, Note_on_c, 0, 77, 0
6, 60180, Note_on_c, 0, 74, 68
6, 60209, Note_on_c, 0, 74, 0
6, 60210, Note_on_c, 0, 76, 68
6, 60239, Note_on_c, 0, 76, 0
6, 60240, Note_on_c, 0, 77, 68
6, 60359, Note_on_c, 0, 77, 0
6, 60360, Note_on_c, 0, 76, 68
6, 60479, Note_on_c, 0, 76, 0
6, 60480, Note_on_c, 0, 77, 68
6, 60599, Note_on_c, 0, 77, 0
6, 60600, Note_on_c, 0, 79, 68
6, 60719, Note_on_c, 0, 79, 0
6, 60720, Note_on_c, 0, 77, 68
6, 60839, Note_on_c, 0, 77, 0
6, 60840, Note_on_c, 0, 76, 68
6, 60944, Note_on_c, 0, 76, 0
6, 60960, Note_on_c, 0, 74, 68
6, 61784, Note_on_c, 0, 74, 0
6, 61800, Note_on_c, 0, 72, 68
6, 61919, Note_on_c, 0, 72, 0
6, 61920, Note_on_c, 0, 71, 68
6, 62039, Note_on_c, 0, 71, 0
6, 62040, Note_on_c, 0, 72, 68
6, 62159, Note_on_c, 0, 72, 0
6, 62160, Note_on_c, 0, 74, 68
6, 62279, Note_on_c, 0, 74, 0
6, 62280, Note_on_c, 0, 76, 68
6, 62384, Note_on_c, 0, 76, 0
6, 62400, Note_on_c, 0, 77, 68
6, 62519, Note_on_c, 0, 77, 0
6, 62520, Note_on_c, 0, 76, 68
6, 62639, Note_on_c, 0, 76, 0
6, 62640, Note_on_c, 0, 74, 68
6, 62759, Note_on_c, 0, 74, 0
6, 62760, Note_on_c, 0, 76, 68
6, 62879, Note_on_c, 0, 76, 0
6, 62880, Note_on_c, 0, 74, 68
6, 62999, Note_on_c, 0, 74, 0
6, 63000, Note_on_c, 0, 72, 68
6, 63104, Note_on_c, 0, 72, 0
6, 63120, Note_on_c, 0, 71, 68
6, 63239, Note_on_c, 0, 71, 0
6, 63240, Note_on_c, 0, 69, 68
6, 63359, Note_on_c, 0, 69, 0
6, 63360, Note_on_c, 0, 67, 68
6, 63479, Note_on_c, 0, 67, 0
6, 63480, Note_on_c, 0, 69, 68
6, 63599, Note_on_c, 0, 69, 0
6, 63600, Note_on_c, 0, 71, 68
6, 63719, Note_on_c, 0, 71, 0
6, 63720, Note_on_c, 0, 72, 68
6, 63824, Note_on_c, 0, 72, 0
6, 63840, Note_on_c, 0, 74, 68
6, 63959, Note_on_c, 0, 74, 0
6, 63960, Note_on_c, 0, 76, 68
6, 64079, Note_on_c, 0, 76, 0
6, 64080, Note_on_c, 0, 77, 68
6, 64199, Note_on_c, 0, 77, 0
6, 64200, Note_on_c, 0, 74, 68
6, 64319, Note_on_c, 0, 74, 0
6, 64320, Note_on_c, 0, 76, 68
6, 64439, Note_on_c, 0, 76, 0
6, 64440, Note_on_c, 0, 77, 68
6, 64544, Note_on_c, 0, 77, 0
6, 64560, Note_on_c, 0, 79, 68
6, 64679, Note_on_c, 0, 79, 0
6, 64680, Note_on_c, 0, 81, 68
6, 64799, Note_on_c, 0, 81, 0
6, 64800, Note_on_c, 0, 79, 68
6, 64919, Note_on_c, 0, 79, 0
6, 64920, Note_on_c, 0, 77, 68
6, 65039, Note_on_c, 0, 77, 0
6, 65040, Note_on_c, 0, 76, 68
6, 65159, Note_on_c, 0, 76, 0
6, 65160, Note_on_c, 0, 74, 68
6, 65264, Note_on_c, 0, 74, 0
6, 65280, Note_on_c, 0, 72, 68
6, 65399, Note_on_c, 0, 72, 0
6, 65400, Note_on_c, 0, 79, 68
6, 65519, Note_on_c, 0, 79, 0
6, 65520, Note_on_c, 0, 77, 68
6, 65639, Note_on_c, 0, 77, 0
6, 65640, Note_on_c, 0, 76, 68
6, 65759, Note_on_c, 0, 76, 0
6, 65760, Note_on_c, 0, 74, 68
6, 65879, Note_on_c, 0, 74, 0
6, 65880, Note_on_c, 0, 76, 68
6, 65984, Note_on_c, 0, 76, 0
6, 66000, Note_on_c, 0, 72, 68
6, 66119, Note_on_c, 0, 72, 0
6, 66120, Note_on_c, 0, 76, 68
6, 66239, Note_on_c, 0, 76, 0
6, 66240, Note_on_c, 0, 74, 68
6, 66359, Note_on_c, 0, 74, 0
6, 66360, Note_on_c, 0, 72, 68
6, 66479, Note_on_c, 0, 72, 0
6, 66480, Note_on_c, 0, 71, 68
6, 66599, Note_on_c, 0, 71, 0
6, 66600, Note_on_c, 0, 72, 68
6, 66704, Note_on_c, 0, 72, 0
6, 66720, Note_on_c, 0, 74, 68
6, 66839, Note_on_c, 0, 74, 0
6, 66840, Note_on_c, 0, 77, 68
6, 66959, Note_on_c, 0, 77, 0
6, 66960, Note_on_c, 0, 76, 68
6, 67079, Note_on_c, 0, 76, 0
6, 67080, Note_on_c, 0, 74, 68
6, 67199, Note_on_c, 0, 74, 0
6, 67200, Note_on_c, 0, 72, 68
6, 67319, Note_on_c, 0, 72, 0
6, 67320, Note_on_c, 0, 71, 68
6, 67424, Note_on_c, 0, 71, 0
6, 67440, Note_on_c, 0, 73, 68
6, 67559, Note_on_c, 0, 73, 0
6, 67560, Note_on_c, 0, 69, 68
6, 67679, Note_on_c, 0, 69, 0
6, 67680, Note_on_c, 0, 71, 68
6, 67799, Note_on_c, 0, 71, 0
6, 67800, Note_on_c, 0, 73, 68
6, 67919, Note_on_c, 0, 73, 0
6, 67920, Note_on_c, 0, 74, 68
6, 68039, Note_on_c, 0, 74, 0
6, 68040, Note_on_c, 0, 73, 68
6, 68144, Note_on_c, 0, 73, 0
6, 68160, Note_on_c, 0, 76, 68
6, 68279, Note_on_c, 0, 76, 0
6, 68280, Note_on_c, 0, 74, 68
6, 68384, Note_on_c, 0, 74, 0
6, 68400, Note_on_c, 0, 77, 68
6, 68519, Note_on_c, 0, 77, 0
6, 68520, Note_on_c, 0, 76, 68
6, 68624, Note_on_c, 0, 76, 0
6, 68640, Note_on_c, 0, 82, 68
6, 68759, Note_on_c, 0, 82, 0
6, 68760, Note_on_c, 0, 81, 68
6, 68864, Note_on_c, 0, 81, 0
6, 68880, Note_on_c, 0, 81, 68
6, 68999, Note_on_c, 0, 81, 0
6, 69000, Note_on_c, 0, 77, 68
6, 69119, Note_on_c, 0, 77, 0
6, 69120, Note_on_c, 0, 76, 68
6, 69239, Note_on_c, 0, 76, 0
6, 69240, Note_on_c, 0, 74, 68
6, 69359, Note_on_c, 0, 74, 0
6, 69360, Note_on_c, 0, 73, 68
6, 69479, Note_on_c, 0, 73, 0
6, 69480, Note_on_c, 0, 74, 68
6, 69584, Note_on_c, 0, 74, 0
6, 69600, Note_on_c, 0, 76, 68
6, 69719, Note_on_c, 0, 76, 0
6, 69720, Note_on_c, 0, 77, 68
6, 69839, Note_on_c, 0, 77, 0
6, 69840, Note_on_c, 0, 79, 68
6, 69959, Note_on_c, 0, 79, 0
6, 69960, Note_on_c, 0, 76, 68
6, 70064, Note_on_c, 0, 76, 0
6, 70080, Note_on_c, 0, 77, 68
6, 70199, Note_on_c, 0, 77, 0
6, 70200, Note_on_c, 0, 74, 68
6, 70304, Note_on_c, 0, 74, 0
6, 70320, Note_on_c, 0, 73, 68
6, 70439, Note_on_c, 0, 73, 0
6, 70440, Note_on_c, 0, 71, 68
6, 70559, Note_on_c, 0, 71, 0
6, 70560, Note_on_c, 0, 73, 68
6, 70679, Note_on_c, 0, 73, 0
6, 70680, Note_on_c, 0, 74, 68
6, 70799, Note_on_c, 0, 74, 0
6, 70800, Note_on_c, 0, 76, 68
6, 70919, Note_on_c, 0, 76, 0
6, 70920, Note_on_c, 0, 77, 68
6, 71024, Note_on_c, 0, 77, 0
6, 71040, Note_on_c, 0, 79, 68
6, 71159, Note_on_c, 0, 79, 0
6, 71160, Note_on_c, 0, 77, 68
6, 71279, Note_on_c, 0, 77, 0
6, 71280, Note_on_c, 0, 79, 68
6, 71399, Note_on_c, 0, 79, 0
6, 71400, Note_on_c, 0, 81, 68
6, 71519, Note_on_c, 0, 81, 0
6, 71520, Note_on_c, 0, 82, 68
6, 71639, Note_on_c, 0, 82, 0
6, 71640, Note_on_c, 0, 79, 68
6, 71744, Note_on_c, 0, 79, 0
6, 71760, Note_on_c, 0, 81, 68
6, 71879, Note_on_c, 0, 81, 0
6, 71880, Note_on_c, 0, 82, 68
6, 71999, Note_on_c, 0, 82, 0
6, 72000, Note_on_c, 0, 81, 68
6, 72119, Note_on_c, 0, 81, 0
6, 72120, Note_on_c, 0, 79, 68
6, 72239, Note_on_c, 0, 79, 0
6, 72240, Note_on_c, 0, 77, 68
6, 72359, Note_on_c, 0, 77, 0
6, 72360, Note_on_c, 0, 76, 68
6, 72464, Note_on_c, 0, 76, 0
6, 72480, Note_on_c, 0, 77, 68
6, 73304, Note_on_c, 0, 77, 0
6, 73320, Note_on_c, 0, 77, 68
6, 73439, Note_on_c, 0, 77, 0
6, 73440, Note_on_c, 0, 76, 68
6, 73559, Note_on_c, 0, 76, 0
6, 73560, Note_on_c, 0, 73, 68
6, 73679, Note_on_c, 0, 73, 0
6, 73680, Note_on_c, 0, 74, 68
6, 73799, Note_on_c, 0, 74, 0
6, 73800, Note_on_c, 0, 76, 68
6, 73904, Note_on_c, 0, 76, 0
6, 73920, Note_on_c, 0, 69, 68
6, 74144, Note_on_c, 0, 69, 0
6, 74160, Note_on_c, 0, 81, 68
6, 74384, Note_on_c, 0, 81, 0
6, 74400, Note_on_c, 0, 76, 68
6, 74429, Note_on_c, 0, 76, 0
6, 74430, Note_on_c, 0, 77, 68
6, 74459, Note_on_c, 0, 77, 0
6, 74460, Note_on_c, 0, 76, 68
6, 74489, Note_on_c, 0, 76, 0
6, 74490, Note_on_c, 0, 77, 68
6, 74519, Note_on_c, 0, 77, 0
6, 74520, Note_on_c, 0, 76, 68
6, 74549, Note_on_c, 0, 76, 0
6, 74550, Note_on_c, 0, 77, 68
6, 74579, Note_on_c, 0, 77, 0
6, 74580, Note_on_c, 0, 74, 68
6, 74609, Note_on_c, 0, 74, 0
6, 74610, Note_on_c, 0, 76, 68
6, 74639, Note_on_c, 0, 76, 0
6, 74640, Note_on_c, 0, 77, 68
6, 74759, Note_on_c, 0, 77, 0
6, 74760, Note_on_c, 0, 76, 68
6, 74879, Note_on_c, 0, 76, 0
6, 74880, Note_on_c, 0, 77, 68
6, 74999, Note_on_c, 0, 77, 0
6, 75000, Note_on_c, 0, 79, 68
6, 75119, Note_on_c, 0, 79, 0
6, 75120, Note_on_c, 0, 77, 68
6, 75239, Note_on_c, 0, 77, 0
6, 75240, Note_on_c, 0, 76, 68
6, 75344, Note_on_c, 0, 76, 0
6, 75360, Note_on_c, 0, 74, 68
6, 76184, Note_on_c, 0, 74, 0
6, 76200, Note_on_c, 0, 72, 68
6, 76319, Note_on_c, 0, 72, 0
6, 76320, Note_on_c, 0, 71, 68
6, 76439, Note_on_c, 0, 71, 0
6, 76440, Note_on_c, 0, 72, 68
6, 76559, Note_on_c, 0, 72, 0
6, 76560, Note_on_c, 0, 74, 68
6, 76679, Note_on_c, 0, 74, 0
6, 76680, Note_on_c, 0, 76, 68
6, 76784, Note_on_c, 0, 76, 0
6, 76800, Note_on_c, 0, 77, 68
6, 76919, Note_on_c, 0, 77, 0
6, 76920, Note_on_c, 0, 76, 68
6, 77039, Note_on_c, 0, 76, 0
6, 77040, Note_on_c, 0, 74, 68
6, 77159, Note_on_c, 0, 74, 0
6, 77160, Note_on_c, 0, 76, 68
6, 77279, Note_on_c, 0, 76, 0
6, 77280, Note_on_c, 0, 74, 68
6, 77399, Note_on_c, 0, 74, 0
6, 77400, Note_on_c, 0, 72, 68
6, 77504, Note_on_c, 0, 72, 0
6, 77520, Note_on_c, 0, 71, 68
6, 77639, Note_on_c, 0, 71, 0
6, 77640, Note_on_c, 0, 69, 68
6, 77759, Note_on_c, 0, 69, 0
6, 77760, Note_on_c, 0, 67, 68
6, 77879, Note_on_c, 0, 67, 0
6, 77880, Note_on_c, 0, 69, 68
6, 77999, Note_on_c, 0, 69, 0
6, 78000, Note_on_c, 0, 71, 68
6, 78119, Note_on_c, 0, 71, 0
6, 78120, Note_on_c, 0, 72, 68
6, 78224, Note_on_c, 0, 72, 0
6, 78240, Note_on_c, 0, 74, 68
6, 78359, Note_on_c, 0, 74, 0
6, 78360, Note_on_c, 0, 76, 68
6, 78479, Note_on_c, 0, 76, 0
6, 78480, Note_on_c, 0, 77, 68
6, 78599, Note_on_c, 0, 77, 0
6, 78600, Note_on_c, 0, 74, 68
6, 78719, Note_on_c, 0, 74, 0
6, 78720, Note_on_c, 0, 76, 68
6, 78839, Note_on_c, 0, 76, 0
6, 78840, Note_on_c, 0, 77, 68
6, 78944, Note_on_c, 0, 77, 0
6, 78960, Note_on_c, 0, 79, 68
6, 79079, Note_on_c, 0, 79, 0
6, 79080, Note_on_c, 0, 81, 68
6, 79199, Note_on_c, 0, 81, 0
6, 79200, Note_on_c, 0, 79, 68
6, 79319, Note_on_c, 0, 79, 0
6, 79320, Note_on_c, 0, 77, 68
6, 79439, Note_on_c, 0, 77, 0
6, 79440, Note_on_c, 0, 76, 68
6, 79559, Note_on_c, 0, 76, 0
6, 79560, Note_on_c, 0, 74, 68
6, 79664, Note_on_c, 0, 74, 0
6, 79680, Note_on_c, 0, 72, 68
6, 79799, Note_on_c, 0, 72, 0
6, 79800, Note_on_c, 0, 79, 68
6, 79919, Note_on_c, 0, 79, 0
6, 79920, Note_on_c, 0, 77, 68
6, 80039, Note_on_c, 0, 77, 0
6, 80040, Note_on_c, 0, 76, 68
6, 80159, Note_on_c, 0, 76, 0
6, 80160, Note_on_c, 0, 74, 68
6, 80279, Note_on_c, 0, 74, 0
6, 80280, Note_on_c, 0, 76, 68
6, 80384, Note_on_c, 0, 76, 0
6, 80400, Note_on_c, 0, 72, 68
6, 80879, Note_on_c, 0, 72, 0
6, 81120, Note_on_c, 0, 67, 76
6, 81344, Note_on_c, 0, 67, 0
6, 81360, Note_on_c, 0, 72, 76
6, 81584, Note_on_c, 0, 72, 0
6, 81600, Note_on_c, 0, 76, 76
6, 81719, Note_on_c, 0, 76, 0
6, 81720, Note_on_c, 0, 74, 76
6, 81839, Note_on_c, 0, 74, 0
6, 81840, Note_on_c, 0, 72, 76
6, 81959, Note_on_c, 0, 72, 0
6, 81960, Note_on_c, 0, 71, 76
6, 82064, Note_on_c, 0, 71, 0
6, 82080, Note_on_c, 0, 72, 76
6, 82184, Note_on_c, 0, 72, 0
6, 82200, Note_on_c, 0, 74, 76
6, 82304, Note_on_c, 0, 74, 0
6, 82320, Note_on_c, 0, 76, 76
6, 82424, Note_on_c, 0, 76, 0
6, 82440, Note_on_c, 0, 77, 76
6, 82544, Note_on_c, 0, 77, 0
6, 82560, Note_on_c, 0, 79, 76
6, 83024, Note_on_c, 0, 79, 0
6, 83040, Note_on_c, 0, 81, 76
6, 83264, Note_on_c, 0, 81, 0
6, 83280, Note_on_c, 0, 77, 76
6, 83504, Note_on_c, 0, 77, 0
6, 83520, Note_on_c, 0, 74, 76
6, 83549, Note_on_c, 0, 74, 0
6, 83550, Note_on_c, 0, 76, 76
6, 83579, Note_on_c, 0, 76, 0
6, 83580, Note_on_c, 0, 74, 76
6, 83609, Note_on_c, 0, 74, 0
6, 83610, Note_on_c, 0, 76, 76
6, 83639, Note_on_c, 0, 76, 0
6, 83640, Note_on_c, 0, 74, 76
6, 83669, Note_on_c, 0, 74, 0
6, 83670, Note_on_c, 0, 76, 76
6, 83699, Note_on_c, 0, 76, 0
6, 83700, Note_on_c, 0, 72, 76
6, 83729, Note_on_c, 0, 72, 0
6, 83730, Note_on_c, 0, 74, 76
6, 83759, Note_on_c, 0, 74, 0
6, 83760, Note_on_c, 0, 72, 76
6, 83879, Note_on_c, 0, 72, 0
6, 83880, Note_on_c, 0, 71, 76
6, 83999, Note_on_c, 0, 71, 0
6, 84000, Note_on_c, 0, 69, 76
6, 84119, Note_on_c, 0, 69, 0
6, 84120, Note_on_c, 0, 67, 76
6, 84224, Note_on_c, 0, 67, 0
6, 84240, Note_on_c, 0, 72, 76
6, 84464, Note_on_c, 0, 72, 0
6, 84480, Note_on_c, 0, 76, 76
6, 84599, Note_on_c, 0, 76, 0
6, 84600, Note_on_c, 0, 74, 76
6, 84719, Note_on_c, 0, 74, 0
6, 84720, Note_on_c, 0, 72, 76
6, 84839, Note_on_c, 0, 72, 0
6, 84840, Note_on_c, 0, 71, 76
6, 84944, Note_on_c, 0, 71, 0
6, 84960, Note_on_c, 0, 74, 76
6, 85079, Note_on_c, 0, 74, 0
6, 85080, Note_on_c, 0, 72, 76
6, 85199, Note_on_c, 0, 72, 0
6, 85200, Note_on_c, 0, 71, 76
6, 85319, Note_on_c, 0, 71, 0
6, 85320, Note_on_c, 0, 69, 76
6, 85424, Note_on_c, 0, 69, 0
6, 85440, Note_on_c, 0, 74, 76
6, 85904, Note_on_c, 0, 74, 0
6, 85920, Note_on_c, 0, 72, 76
6, 86024, Note_on_c, 0, 72, 0
6, 86040, Note_on_c, 0, 71, 76
6, 86144, Note_on_c, 0, 71, 0
6, 86160, Note_on_c, 0, 69, 76
6, 86264, Note_on_c, 0, 69, 0
6, 86280, Note_on_c, 0, 71, 76
6, 86384, Note_on_c, 0, 71, 0
6, 86400, Note_on_c, 0, 67, 76
6, 86864, Note_on_c, 0, 67, 0
6, 86880, Note_on_c, 0, 67, 76
6, 87104, Note_on_c, 0, 67, 0
6, 87120, Note_on_c, 0, 72, 76
6, 87344, Note_on_c, 0, 72, 0
6, 87360, Note_on_c, 0, 76, 76
6, 87479, Note_on_c, 0, 76, 0
6, 87480, Note_on_c, 0, 74, 76
6, 87599, Note_on_c, 0, 74, 0
6, 87600, Note_on_c, 0, 72, 76
6, 87719, Note_on_c, 0, 72, 0
6, 87720, Note_on_c, 0, 71, 76
6, 87824, Note_on_c, 0, 71, 0
6, 87840, Note_on_c, 0, 72, 76
6, 87944, Note_on_c, 0, 72, 0
6, 87960, Note_on_c, 0, 74, 76
6, 88064, Note_on_c, 0, 74, 0
6, 88080, Note_on_c, 0, 76, 76
6, 88184, Note_on_c, 0, 76, 0
6, 88200, Note_on_c, 0, 77, 76
6, 88304, Note_on_c, 0, 77, 0
6, 88320, Note_on_c, 0, 79, 76
6, 88784, Note_on_c, 0, 79, 0
6, 88800, Note_on_c, 0, 81, 76
6, 89024, Note_on_c, 0, 81, 0
6, 89040, Note_on_c, 0, 77, 76
6, 89264, Note_on_c, 0, 77, 0
6, 89280, Note_on_c, 0, 74, 76
6, 89309, Note_on_c, 0, 74, 0
6, 89310, Note_on_c, 0, 76, 76
6, 89339, Note_on_c, 0, 76, 0
6, 89340, Note_on_c, 0, 74, 76
6, 89369, Note_on_c, 0, 74, 0
6, 89370, Note_on_c, 0, 76, 76
6, 89399, Note_on_c, 0, 76, 0
6, 89400, Note_on_c, 0, 74, 76
6, 89429, Note_on_c, 0, 74, 0
6, 89430, Note_on_c, 0, 76, 76
6, 89459, Note_on_c, 0, 76, 0
6, 89460, Note_on_c, 0, 72, 76
6, 89489, Note_on_c, 0, 72, 0
6, 89490, Note_on_c, 0, 74, 76
6, 89519, Note_on_c, 0, 74, 0
6, 89520, Note_on_c, 0, 72, 76
6, 89639, Note_on_c, 0, 72, 0
6, 89640, Note_on_c, 0, 71, 76
6, 89759, Note_on_c, 0, 71, 0
6, 89760, Note_on_c, 0, 69, 76
6, 89879, Note_on_c, 0, 69, 0
6, 89880, Note_on_c, 0, 67, 76
6, 89984, Note_on_c, 0, 67, 0
6, 90000, Note_on_c, 0, 72, 76
6, 90224, Note_on_c, 0, 72, 0
6, 90240, Note_on_c, 0, 76, 76
6, 90359, Note_on_c, 0, 76, 0
6, 90360, Note_on_c, 0, 74, 76
6, 90479, Note_on_c, 0, 74, 0
6, 90480, Note_on_c, 0, 72, 76
6, 90599, Note_on_c, 0, 72, 0
6, 90600, Note_on_c, 0, 71, 76
6, 90704, Note_on_c, 0, 71, 0
6, 90720, Note_on_c, 0, 74, 76
6, 90839, Note_on_c, 0, 74, 0
6, 90840, Note_on_c, 0, 72, 76
6, 90959, Note_on_c, 0, 72, 0
6, 90960, Note_on_c, 0, 71, 76
6, 91079, Note_on_c, 0, 71, 0
6, 91080, Note_on_c, 0, 69, 76
6, 91184, Note_on_c, 0, 69, 0
6, 91200, Note_on_c, 0, 74, 76
6, 91664, Note_on_c, 0, 74, 0
6, 91680, Note_on_c, 0, 72, 76
6, 91784, Note_on_c, 0, 72, 0
6, 91800, Note_on_c, 0, 71, 76
6, 91904, Note_on_c, 0, 71, 0
6, 91920, Note_on_c, 0, 69, 76
6, 92024, Note_on_c, 0, 69, 0
6, 92040, Note_on_c, 0, 71, 76
6, 92144, Note_on_c, 0, 71, 0
6, 92160, Note_on_c, 0, 67, 76
6, 92624, Note_on_c, 0, 67, 0
6, 92640, Note_on_c, 0, 74, 76
6, 92864, Note_on_c, 0, 74, 0
6, 92880, Note_on_c, 0, 71, 76
6, 93104, Note_on_c, 0, 71, 0
6, 93120, Note_on_c, 0, 72, 76
6, 93239, Note_on_c, 0, 72, 0
6, 93240, Note_on_c, 0, 71, 76
6, 93359, Note_on_c, 0, 71, 0
6, 93360, Note_on_c, 0, 69, 76
6, 93479, Note_on_c, 0, 69, 0
6, 93480, Note_on_c, 0, 67, 76
6, 93584, Note_on_c, 0, 67, 0
6, 93600, Note_on_c, 0, 76, 76
6, 93719, Note_on_c, 0, 76, 0
6, 93720, Note_on_c, 0, 77, 76
6, 93839, Note_on_c, 0, 77, 0
6, 93840, Note_on_c, 0, 79, 76
6, 93959, Note_on_c, 0, 79, 0
6, 93960, Note_on_c, 0, 81, 76
6, 94064, Note_on_c, 0, 81, 0
6, 94080, Note_on_c, 0, 82, 76
6, 94544, Note_on_c, 0, 82, 0
6, 94560, Note_on_c, 0, 81, 76
6, 94784, Note_on_c, 0, 81, 0
6, 94800, Note_on_c, 0, 79, 76
6, 95024, Note_on_c, 0, 79, 0
6, 95040, Note_on_c, 0, 77, 76
6, 95264, Note_on_c, 0, 77, 0
6, 95280, Note_on_c, 0, 79, 76
6, 95399, Note_on_c, 0, 79, 0
6, 95400, Note_on_c, 0, 77, 76
6, 95519, Note_on_c, 0, 77, 0
6, 95520, Note_on_c, 0, 76, 76
6, 95639, Note_on_c, 0, 76, 0
6, 95640, Note_on_c, 0, 74, 76
6, 95744, Note_on_c, 0, 74, 0
6, 95760, Note_on_c, 0, 73, 76
6, 95864, Note_on_c, 0, 73, 0
6, 95880, Note_on_c, 0, 74, 76
6, 95984, Note_on_c, 0, 74, 0
6, 96000, Note_on_c, 0, 76, 76
6, 96224, Note_on_c, 0, 76, 0
6, 96240, Note_on_c, 0, 81, 76
6, 96704, Note_on_c, 0, 81, 0
6, 96720, Note_on_c, 0, 79, 76
6, 96839, Note_on_c, 0, 79, 0
6, 96840, Note_on_c, 0, 77, 76
6, 96959, Note_on_c, 0, 77, 0
6, 96960, Note_on_c, 0, 76, 76
6, 97079, Note_on_c, 0, 76, 0
6, 97080, Note_on_c, 0, 74, 76
6, 97184, Note_on_c, 0, 74, 0
6, 97200, Note_on_c, 0, 73, 76
6, 97319, Note_on_c, 0, 73, 0
6, 97320, Note_on_c, 0, 74, 76
6, 97439, Note_on_c, 0, 74, 0
6, 97440, Note_on_c, 0, 76, 76
6, 97559, Note_on_c, 0, 76, 0
6, 97560, Note_on_c, 0, 77, 76
6, 97664, Note_on_c, 0, 77, 0
6, 97680, Note_on_c, 0, 79, 76
6, 98144, Note_on_c, 0, 79, 0
6, 98160, Note_on_c, 0, 77, 76
6, 98279, Note_on_c, 0, 77, 0
6, 98280, Note_on_c, 0, 76, 76
6, 98399, Note_on_c, 0, 76, 0
6, 98400, Note_on_c, 0, 74, 76
6, 98519, Note_on_c, 0, 74, 0
6, 98520, Note_on_c, 0, 73, 76
6, 98624, Note_on_c, 0, 73, 0
6, 98640, Note_on_c, 0, 74, 76
6, 98744, Note_on_c, 0, 74, 0
6, 98760, Note_on_c, 0, 69, 76
6, 98864, Note_on_c, 0, 69, 0
6, 98880, Note_on_c, 0, 77, 76
6, 98999, Note_on_c, 0, 77, 0
6, 99000, Note_on_c, 0, 76, 76
6, 99119, Note_on_c, 0, 76, 0
6, 99120, Note_on_c, 0, 74, 76
6, 99239, Note_on_c, 0, 74, 0
6, 99240, Note_on_c, 0, 72, 76
6, 99344, Note_on_c, 0, 72, 0
6, 99360, Note_on_c, 0, 70, 76
6, 99479, Note_on_c, 0, 70, 0
6, 99480, Note_on_c, 0, 74, 76
6, 99584, Note_on_c, 0, 74, 0
6, 99600, Note_on_c, 0, 79, 76
6, 99704, Note_on_c, 0, 79, 0
6, 99720, Note_on_c, 0, 76, 76
6, 99824, Note_on_c, 0, 76, 0
6, 99840, Note_on_c, 0, 77, 76
6, 100184, Note_on_c, 0, 77, 0
6, 100200, Note_on_c, 0, 74, 76
6, 100304, Note_on_c, 0, 74, 0
6, 100320, Note_on_c, 0, 77, 76
6, 100439, Note_on_c, 0, 77, 0
6, 100440, Note_on_c, 0, 76, 76
6, 100544, Note_on_c, 0, 76, 0
6, 100560, Note_on_c, 0, 74, 76
6, 100679, Note_on_c, 0, 74, 0
6, 100680, Note_on_c, 0, 73, 76
6, 100784, Note_on_c, 0, 73, 0
6, 100800, Note_on_c, 0, 74, 76
6, 101264, Note_on_c, 0, 74, 0
6, 101280, Note_on_c, 0, 69, 76
6, 101384, Note_on_c, 0, 69, 0
6, 101400, Note_on_c, 0, 71, 76
6, 101504, Note_on_c, 0, 71, 0
6, 101520, Note_on_c, 0, 72, 76
6, 101744, Note_on_c, 0, 72, 0
6, 101760, Note_on_c, 0, 74, 76
6, 101879, Note_on_c, 0, 74, 0
6, 101880, Note_on_c, 0, 72, 76
6, 101999, Note_on_c, 0, 72, 0
6, 102000, Note_on_c, 0, 71, 76
6, 102119, Note_on_c, 0, 71, 0
6, 102120, Note_on_c, 0, 69, 76
6, 102224, Note_on_c, 0, 69, 0
6, 102240, Note_on_c, 0, 71, 76
6, 102344, Note_on_c, 0, 71, 0
6, 102360, Note_on_c, 0, 69, 76
6, 102464, Note_on_c, 0, 69, 0
6, 102480, Note_on_c, 0, 67, 76
6, 102584, Note_on_c, 0, 67, 0
6, 102600, Note_on_c, 0, 69, 76
6, 102704, Note_on_c, 0, 69, 0
6, 102720, Note_on_c, 0, 71, 76
6, 102824, Note_on_c, 0, 71, 0
6, 102840, Note_on_c, 0, 72, 76
6, 102944, Note_on_c, 0, 72, 0
6, 102960, Note_on_c, 0, 74, 76
6, 103064, Note_on_c, 0, 74, 0
6, 103080, Note_on_c, 0, 76, 76
6, 103184, Note_on_c, 0, 76, 0
6, 103200, Note_on_c, 0, 77, 76
6, 103424, Note_on_c, 0, 77, 0
6, 103440, Note_on_c, 0, 76, 76
6, 103664, Note_on_c, 0, 76, 0
6, 103680, Note_on_c, 0, 74, 76
6, 103784, Note_on_c, 0, 74, 0
6, 103800, Note_on_c, 0, 72, 76
6, 103904, Note_on_c, 0, 72, 0
6, 103920, Note_on_c, 0, 71, 76
6, 104024, Note_on_c, 0, 71, 0
6, 104040, Note_on_c, 0, 72, 76
6, 104144, Note_on_c, 0, 72, 0
6, 104160, Note_on_c, 0, 74, 76
6, 104264, Note_on_c, 0, 74, 0
6, 104280, Note_on_c, 0, 76, 76
6, 104384, Note_on_c, 0, 76, 0
6, 104400, Note_on_c, 0, 77, 76
6, 104504, Note_on_c, 0, 77, 0
6, 104520, Note_on_c, 0, 79, 76
6, 104624, Note_on_c, 0, 79, 0
6, 104640, Note_on_c, 0, 81, 76
6, 104864, Note_on_c, 0, 81, 0
6, 104880, Note_on_c, 0, 79, 76
6, 105344, Note_on_c, 0, 79, 0
6, 105360, Note_on_c, 0, 70, 76
6, 105464, Note_on_c, 0, 70, 0
6, 105480, Note_on_c, 0, 69, 76
6, 105584, Note_on_c, 0, 69, 0
6, 105600, Note_on_c, 0, 70, 76
6, 105704, Note_on_c, 0, 70, 0
6, 105720, Note_on_c, 0, 67, 76
6, 105824, Note_on_c, 0, 67, 0
6, 105840, Note_on_c, 0, 69, 76
6, 106064, Note_on_c, 0, 69, 0
6, 106080, Note_on_c, 0, 74, 76
6, 106304, Note_on_c, 0, 74, 0
6, 106320, Note_on_c, 0, 71, 76
6, 106544, Note_on_c, 0, 71, 0
6, 106560, Note_on_c, 0, 72, 76
6, 107024, Note_on_c, 0, 72, 0
6, 107040, Note_on_c, 0, 74, 76
6, 107264, Note_on_c, 0, 74, 0
6, 107280, Note_on_c, 0, 71, 76
6, 107504, Note_on_c, 0, 71, 0
6, 107520, Note_on_c, 0, 72, 76
6, 107639, Note_on_c, 0, 72, 0
6, 107640, Note_on_c, 0, 71, 76
6, 107759, Note_on_c, 0, 71, 0
6, 107760, Note_on_c, 0, 69, 76
6, 107879, Note_on_c, 0, 69, 0
6, 107880, Note_on_c, 0, 67, 76
6, 107984, Note_on_c, 0, 67, 0
6, 108000, Note_on_c, 0, 76, 76
6, 108119, Note_on_c, 0, 76, 0
6, 108120, Note_on_c, 0, 77, 76
6, 108239, Note_on_c, 0, 77, 0
6, 108240, Note_on_c, 0, 79, 76
6, 108359, Note_on_c, 0, 79, 0
6, 108360, Note_on_c, 0, 81, 76
6, 108464, Note_on_c, 0, 81, 0
6, 108480, Note_on_c, 0, 82, 76
6, 108944, Note_on_c, 0, 82, 0
6, 108960, Note_on_c, 0, 81, 76
6, 109184, Note_on_c, 0, 81, 0
6, 109200, Note_on_c, 0, 79, 76
6, 109424, Note_on_c, 0, 79, 0
6, 109440, Note_on_c, 0, 77, 76
6, 109664, Note_on_c, 0, 77, 0
6, 109680, Note_on_c, 0, 79, 76
6, 109799, Note_on_c, 0, 79, 0
6, 109800, Note_on_c, 0, 77, 76
6, 109919, Note_on_c, 0, 77, 0
6, 109920, Note_on_c, 0, 76, 76
6, 110039, Note_on_c, 0, 76, 0
6, 110040, Note_on_c, 0, 74, 76
6, 110144, Note_on_c, 0, 74, 0
6, 110160, Note_on_c, 0, 73, 76
6, 110264, Note_on_c, 0, 73, 0
6, 110280, Note_on_c, 0, 74, 76
6, 110384, Note_on_c, 0, 74, 0
6, 110400, Note_on_c, 0, 76, 76
6, 110624, Note_on_c, 0, 76, 0
6, 110640, Note_on_c, 0, 81, 76
6, 111104, Note_on_c, 0, 81, 0
6, 111120, Note_on_c, 0, 79, 76
6, 111239, Note_on_c, 0, 79, 0
6, 111240, Note_on_c, 0, 77, 76
6, 111359, Note_on_c, 0, 77, 0
6, 111360, Note_on_c, 0, 76, 76
6, 111479, Note_on_c, 0, 76, 0
6, 111480, Note_on_c, 0, 74, 76
6, 111584, Note_on_c, 0, 74, 0
6, 111600, Note_on_c, 0, 73, 76
6, 111719, Note_on_c, 0, 73, 0
6, 111720, Note_on_c, 0, 74, 76
6, 111839, Note_on_c, 0, 74, 0
6, 111840, Note_on_c, 0, 76, 76
6, 111959, Note_on_c, 0, 76, 0
6, 111960, Note_on_c, 0, 77, 76
6, 112064, Note_on_c, 0, 77, 0
6, 112080, Note_on_c, 0, 79, 76
6, 112544, Note_on_c, 0, 79, 0
6, 112560, Note_on_c, 0, 77, 76
6, 112679, Note_on_c, 0, 77, 0
6, 112680, Note_on_c, 0, 76, 76
6, 112799, Note_on_c, 0, 76, 0
6, 112800, Note_on_c, 0, 74, 76
6, 112919, Note_on_c, 0, 74, 0
6, 112920, Note_on_c, 0, 73, 76
6, 113024, Note_on_c, 0, 73, 0
6, 113040, Note_on_c, 0, 74, 76
6, 113144, Note_on_c, 0, 74, 0
6, 113160, Note_on_c, 0, 69, 76
6, 113264, Note_on_c, 0, 69, 0
6, 113280, Note_on_c, 0, 77, 76
6, 113399, Note_on_c, 0, 77, 0
6, 113400, Note_on_c, 0, 76, 76
6, 113519, Note_on_c, 0, 76, 0
6, 113520, Note_on_c, 0, 74, 76
6, 113639, Note_on_c, 0, 74, 0
6, 113640, Note_on_c, 0, 72, 76
6, 113744, Note_on_c, 0, 72, 0
6, 113760, Note_on_c, 0, 70, 76
6, 113879, Note_on_c, 0, 70, 0
6, 113880, Note_on_c, 0, 74, 76
6, 113984, Note_on_c, 0, 74, 0
6, 114000, Note_on_c, 0, 79, 76
6, 114104, Note_on_c, 0, 79, 0
6, 114120, Note_on_c, 0, 76, 76
6, 114224, Note_on_c, 0, 76, 0
6, 114240, Note_on_c, 0, 77, 76
6, 114584, Note_on_c, 0, 77, 0
6, 114600, Note_on_c, 0, 74, 76
6, 114704, Note_on_c, 0, 74, 0
6, 114720, Note_on_c, 0, 77, 76
6, 114839, Note_on_c, 0, 77, 0
6, 114840, Note_on_c, 0, 76, 76
6, 114944, Note_on_c, 0, 76, 0
6, 114960, Note_on_c, 0, 74, 76
6, 115079, Note_on_c, 0, 74, 0
6, 115080, Note_on_c, 0, 73, 76
6, 115184, Note_on_c, 0, 73, 0
6, 115200, Note_on_c, 0, 74, 76
6, 115664, Note_on_c, 0, 74, 0
6, 115680, Note_on_c, 0, 69, 76
6, 115784, Note_on_c, 0, 69, 0
6, 115800, Note_on_c, 0, 71, 76
6, 115904, Note_on_c, 0, 71, 0
6, 115920, Note_on_c, 0, 72, 76
6, 116144, Note_on_c, 0, 72, 0
6, 116160, Note_on_c, 0, 74, 76
6, 116279, Note_on_c, 0, 74, 0
6, 116280, Note_on_c, 0, 72, 76
6, 116399, Note_on_c, 0, 72, 0
6, 116400, Note_on_c, 0, 71, 76
6, 116519, Note_on_c, 0, 71, 0
6, 116520, Note_on_c, 0, 69, 76
6, 116624, Note_on_c, 0, 69, 0
6, 116640, Note_on_c, 0, 71, 76
6, 116744, Note_on_c, 0, 71, 0
6, 116760, Note_on_c, 0, 69, 76
6, 116864, Note_on_c, 0, 69, 0
6, 116880, Note_on_c, 0, 67, 76
6, 116984, Note_on_c, 0, 67, 0
6, 117000, Note_on_c, 0, 69, 76
6, 117104, Note_on_c, 0, 69, 0
6, 117120, Note_on_c, 0, 71, 76
6, 117224, Note_on_c, 0, 71, 0
6, 117240, Note_on_c, 0, 72, 76
6, 117344, Note_on_c, 0, 72, 0
6, 117360, Note_on_c, 0, 74, 76
6, 117464, Note_on_c, 0, 74, 0
6, 117480, Note_on_c, 0, 76, 76
6, 117584, Note_on_c, 0, 76, 0
6, 117600, Note_on_c, 0, 77, 76
6, 117824, Note_on_c, 0, 77, 0
6, 117840, Note_on_c, 0, 76, 76
6, 118064, Note_on_c, 0, 76, 0
6, 118080, Note_on_c, 0, 74, 76
6, 118184, Note_on_c, 0, 74, 0
6, 118200, Note_on_c, 0, 72, 76
6, 118304, Note_on_c, 0, 72, 0
6, 118320, Note_on_c, 0, 71, 76
6, 118424, Note_on_c, 0, 71, 0
6, 118440, Note_on_c, 0, 72, 76
6, 118544, Note_on_c, 0, 72, 0
6, 118560, Note_on_c, 0, 74, 76
6, 118664, Note_on_c, 0, 74, 0
6, 118680, Note_on_c, 0, 76, 76
6, 118784, Note_on_c, 0, 76, 0
6, 118800, Note_on_c, 0, 77, 76
6, 118904, Note_on_c, 0, 77, 0
6, 118920, Note_on_c, 0, 79, 76
6, 119024, Note_on_c, 0, 79, 0
6, 119040, Note_on_c, 0, 81, 76
6, 119264, Note_on_c, 0, 81, 0
6, 119280, Note_on_c, 0, 79, 76
6, 119744, Note_on_c, 0, 79, 0
6, 119760, Note_on_c, 0, 70, 76
6, 119864, Note_on_c, 0, 70, 0
6, 119880, Note_on_c, 0, 69, 76
6, 119984, Note_on_c, 0, 69, 0
6, 120000, Note_on_c, 0, 70, 76
6, 120104, Note_on_c, 0, 70, 0
6, 120120, Note_on_c, 0, 67, 76
6, 120224, Note_on_c, 0, 67, 0
6, 120240, Note_on_c, 0, 69, 76
6, 120464, Note_on_c, 0, 69, 0
6, 120480, Note_on_c, 0, 74, 76
6, 120704, Note_on_c, 0, 74, 0
6, 120720, Note_on_c, 0, 71, 76
6, 120944, Note_on_c, 0, 71, 0
6, 120960, Note_on_c, 0, 72, 76
6, 121439, Note_on_c, 0, 72, 0
6, 121439, End_track
7, 0, Start_track
7, 0, Title_t, "Oboe II"
7, 0, MIDI_port, 0
7, 0, Program_c, 1, 68
7, 0, Control_c, 1, 10, 65
7, 0, Control_c, 1, 11, 127
7, 0, Control_c, 1, 7, 80
7, 0, Note_on_c, 1, 67, 76
7, 224, Note_on_c, 1, 67, 0
7, 240, Note_on_c, 1, 72, 76
7, 464, Note_on_c, 1, 72, 0
7, 480, Note_on_c, 1, 76, 76
7, 599, Note_on_c, 1, 76, 0
7, 600, Note_on_c, 1, 74, 76
7, 719, Note_on_c, 1, 74, 0
7, 720, Note_on_c, 1, 72, 76
7, 839, Note_on_c, 1, 72, 0
7, 840, Note_on_c, 1, 71, 76
7, 944, Note_on_c, 1, 71, 0
7, 960, Note_on_c, 1, 72, 76
7, 1064, Note_on_c, 1, 72, 0
7, 1080, Note_on_c, 1, 74, 76
7, 1184, Note_on_c, 1, 74, 0
7, 1200, Note_on_c, 1, 76, 76
7, 1304, Note_on_c, 1, 76, 0
7, 1320, Note_on_c, 1, 77, 76
7, 1424, Note_on_c, 1, 77, 0
7, 1440, Note_on_c, 1, 79, 76
7, 1904, Note_on_c, 1, 79, 0
7, 1920, Note_on_c, 1, 81, 76
7, 2144, Note_on_c, 1, 81, 0
7, 2160, Note_on_c, 1, 77, 76
7, 2384, Note_on_c, 1, 77, 0
7, 2400, Note_on_c, 1, 74, 76
7, 2429, Note_on_c, 1, 74, 0
7, 2430, Note_on_c, 1, 76, 76
7, 2459, Note_on_c, 1, 76, 0
7, 2460, Note_on_c, 1, 74, 76
7, 2489, Note_on_c, 1, 74, 0
7, 2490, Note_on_c, 1, 76, 76
7, 2519, Note_on_c, 1, 76, 0
7, 2520, Note_on_c, 1, 74, 76
7, 2549, Note_on_c, 1, 74, 0
7, 2550, Note_on_c, 1, 76, 76
7, 2579, Note_on_c, 1, 76, 0
7, 2580, Note_on_c, 1, 72, 76
7, 2609, Note_on_c, 1, 72, 0
7, 2610, Note_on_c, 1, 74, 76
7, 2639, Note_on_c, 1, 74, 0
7, 2640, Note_on_c, 1, 72, 76
7, 2759, Note_on_c, 1, 72, 0
7, 2760, Note_on_c, 1, 71, 76
7, 2879, Note_on_c, 1, 71, 0
7, 2880, Note_on_c, 1, 69, 76
7, 2999, Note_on_c, 1, 69, 0
7, 3000, Note_on_c, 1, 67, 76
7, 3104, Note_on_c, 1, 67, 0
7, 3120, Note_on_c, 1, 72, 76
7, 3344, Note_on_c, 1, 72, 0
7, 3360, Note_on_c, 1, 76, 76
7, 3479, Note_on_c, 1, 76, 0
7, 3480, Note_on_c, 1, 74, 76
7, 3599, Note_on_c, 1, 74, 0
7, 3600, Note_on_c, 1, 72, 76
7, 3719, Note_on_c, 1, 72, 0
7, 3720, Note_on_c, 1, 71, 76
7, 3824, Note_on_c, 1, 71, 0
7, 3840, Note_on_c, 1, 74, 76
7, 3959, Note_on_c, 1, 74, 0
7, 3960, Note_on_c, 1, 72, 76
7, 4079, Note_on_c, 1, 72, 0
7, 4080, Note_on_c, 1, 71, 76
7, 4199, Note_on_c, 1, 71, 0
7, 4200, Note_on_c, 1, 69, 76
7, 4304, Note_on_c, 1, 69, 0
7, 4320, Note_on_c, 1, 74, 76
7, 4784, Note_on_c, 1, 74, 0
7, 4800, Note_on_c, 1, 72, 76
7, 4904, Note_on_c, 1, 72, 0
7, 4920, Note_on_c, 1, 71, 76
7, 5024, Note_on_c, 1, 71, 0
7, 5040, Note_on_c, 1, 69, 76
7, 5144, Note_on_c, 1, 69, 0
7, 5160, Note_on_c, 1, 71, 76
7, 5264, Note_on_c, 1, 71, 0
7, 5280, Note_on_c, 1, 67, 76
7, 5744, Note_on_c, 1, 67, 0
7, 5760, Note_on_c, 1, 67, 76
7, 5984, Note_on_c, 1, 67, 0
7, 6000, Note_on_c, 1, 72, 76
7, 6224, Note_on_c, 1, 72, 0
7, 6240, Note_on_c, 1, 76, 76
7, 6359, Note_on_c, 1, 76, 0
7, 6360, Note_on_c, 1, 74, 76
7, 6479, Note_on_c, 1, 74, 0
7, 6480, Note_on_c, 1, 72, 76
7, 6599, Note_on_c, 1, 72, 0
7, 6600, Note_on_c, 1, 71, 76
7, 6704, Note_on_c, 1, 71, 0
7, 6720, Note_on_c, 1, 72, 76
7, 6824, Note_on_c, 1, 72, 0
7, 6840, Note_on_c, 1, 74, 76
7, 6944, Note_on_c, 1, 74, 0
7, 6960, Note_on_c, 1, 76, 76
7, 7064, Note_on_c, 1, 76, 0
7, 7080, Note_on_c, 1, 77, 76
7, 7184, Note_on_c, 1, 77, 0
7, 7200, Note_on_c, 1, 79, 76
7, 7664, Note_on_c, 1, 79, 0
7, 7680, Note_on_c, 1, 81, 76
7, 7904, Note_on_c, 1, 81, 0
7, 7920, Note_on_c, 1, 77, 76
7, 8144, Note_on_c, 1, 77, 0
7, 8160, Note_on_c, 1, 74, 76
7, 8189, Note_on_c, 1, 74, 0
7, 8190, Note_on_c, 1, 76, 76
7, 8219, Note_on_c, 1, 76, 0
7, 8220, Note_on_c, 1, 74, 76
7, 8249, Note_on_c, 1, 74, 0
7, 8250, Note_on_c, 1, 76, 76
7, 8279, Note_on_c, 1, 76, 0
7, 8280, Note_on_c, 1, 74, 76
7, 8309, Note_on_c, 1, 74, 0
7, 8310, Note_on_c, 1, 76, 76
7, 8339, Note_on_c, 1, 76, 0
7, 8340, Note_on_c, 1, 72, 76
7, 8369, Note_on_c, 1, 72, 0
7, 8370, Note_on_c, 1, 74, 76
7, 8399, Note_on_c, 1, 74, 0
7, 8400, Note_on_c, 1, 72, 76
7, 8519, Note_on_c, 1, 72, 0
7, 8520, Note_on_c, 1, 71, 76
7, 8639, Note_on_c, 1, 71, 0
7, 8640, Note_on_c, 1, 69, 76
7, 8759, Note_on_c, 1, 69, 0
7, 8760, Note_on_c, 1, 67, 76
7, 8864, Note_on_c, 1, 67, 0
7, 8880, Note_on_c, 1, 72, 76
7, 9104, Note_on_c, 1, 72, 0
7, 9120, Note_on_c, 1, 76, 76
7, 9239, Note_on_c, 1, 76, 0
7, 9240, Note_on_c, 1, 74, 76
7, 9359, Note_on_c, 1, 74, 0
7, 9360, Note_on_c, 1, 72, 76
7, 9479, Note_on_c, 1, 72, 0
7, 9480, Note_on_c, 1, 71, 76
7, 9584, Note_on_c, 1, 71, 0
7, 9600, Note_on_c, 1, 74, 76
7, 9719, Note_on_c, 1, 74, 0
7, 9720, Note_on_c, 1, 72, 76
7, 9839, Note_on_c, 1, 72, 0
7, 9840, Note_on_c, 1, 71, 76
7, 9959, Note_on_c, 1, 71, 0
7, 9960, Note_on_c, 1, 69, 76
7, 10064, Note_on_c, 1, 69, 0
7, 10080, Note_on_c, 1, 74, 76
7, 10544, Note_on_c, 1, 74, 0
7, 10560, Note_on_c, 1, 72, 76
7, 10664, Note_on_c, 1, 72, 0
7, 10680, Note_on_c, 1, 71, 76
7, 10784, Note_on_c, 1, 71, 0
7, 10800, Note_on_c, 1, 69, 76
7, 10904, Note_on_c, 1, 69, 0
7, 10920, Note_on_c, 1, 71, 76
7, 11024, Note_on_c, 1, 71, 0
7, 11040, Note_on_c, 1, 67, 76
7, 11504, Note_on_c, 1, 67, 0
7, 11520, Note_on_c, 1, 74, 76
7, 11744, Note_on_c, 1, 74, 0
7, 11760, Note_on_c, 1, 71, 76
7, 11984, Note_on_c, 1, 71, 0
7, 12000, Note_on_c, 1, 72, 76
7, 12119, Note_on_c, 1, 72, 0
7, 12120, Note_on_c, 1, 71, 76
7, 12239, Note_on_c, 1, 71, 0
7, 12240, Note_on_c, 1, 69, 76
7, 12359, Note_on_c, 1, 69, 0
7, 12360, Note_on_c, 1, 67, 76
7, 12464, Note_on_c, 1, 67, 0
7, 12480, Note_on_c, 1, 76, 76
7, 12599, Note_on_c, 1, 76, 0
7, 12600, Note_on_c, 1, 77, 76
7, 12719, Note_on_c, 1, 77, 0
7, 12720, Note_on_c, 1, 79, 76
7, 12839, Note_on_c, 1, 79, 0
7, 12840, Note_on_c, 1, 81, 76
7, 12944, Note_on_c, 1, 81, 0
7, 12960, Note_on_c, 1, 82, 76
7, 13424, Note_on_c, 1, 82, 0
7, 13440, Note_on_c, 1, 81, 76
7, 13664, Note_on_c, 1, 81, 0
7, 13680, Note_on_c, 1, 79, 76
7, 13904, Note_on_c, 1, 79, 0
7, 13920, Note_on_c, 1, 77, 76
7, 14144, Note_on_c, 1, 77, 0
7, 14160, Note_on_c, 1, 79, 76
7, 14279, Note_on_c, 1, 79, 0
7, 14280, Note_on_c, 1, 77, 76
7, 14399, Note_on_c, 1, 77, 0
7, 14400, Note_on_c, 1, 76, 76
7, 14519, Note_on_c, 1, 76, 0
7, 14520, Note_on_c, 1, 74, 76
7, 14624, Note_on_c, 1, 74, 0
7, 14640, Note_on_c, 1, 73, 76
7, 14744, Note_on_c, 1, 73, 0
7, 14760, Note_on_c, 1, 74, 76
7, 14864, Note_on_c, 1, 74, 0
7, 14880, Note_on_c, 1, 76, 76
7, 15104, Note_on_c, 1, 76, 0
7, 15120, Note_on_c, 1, 81, 76
7, 15584, Note_on_c, 1, 81, 0
7, 15600, Note_on_c, 1, 79, 76
7, 15719, Note_on_c, 1, 79, 0
7, 15720, Note_on_c, 1, 77, 76
7, 15839, Note_on_c, 1, 77, 0
7, 15840, Note_on_c, 1, 76, 76
7, 15959, Note_on_c, 1, 76, 0
7, 15960, Note_on_c, 1, 74, 76
7, 16064, Note_on_c, 1, 74, 0
7, 16080, Note_on_c, 1, 73, 76
7, 16199, Note_on_c, 1, 73, 0
7, 16200, Note_on_c, 1, 74, 76
7, 16319, Note_on_c, 1, 74, 0
7, 16320, Note_on_c, 1, 76, 76
7, 16439, Note_on_c, 1, 76, 0
7, 16440, Note_on_c, 1, 77, 76
7, 16544, Note_on_c, 1, 77, 0
7, 16560, Note_on_c, 1, 79, 76
7, 17024, Note_on_c, 1, 79, 0
7, 17040, Note_on_c, 1, 77, 76
7, 17159, Note_on_c, 1, 77, 0
7, 17160, Note_on_c, 1, 76, 76
7, 17279, Note_on_c, 1, 76, 0
7, 17280, Note_on_c, 1, 74, 76
7, 17399, Note_on_c, 1, 74, 0
7, 17400, Note_on_c, 1, 73, 76
7, 17504, Note_on_c, 1, 73, 0
7, 17520, Note_on_c, 1, 74, 76
7, 17624, Note_on_c, 1, 74, 0
7, 17640, Note_on_c, 1, 69, 76
7, 17744, Note_on_c, 1, 69, 0
7, 17760, Note_on_c, 1, 77, 76
7, 17879, Note_on_c, 1, 77, 0
7, 17880, Note_on_c, 1, 76, 76
7, 17999, Note_on_c, 1, 76, 0
7, 18000, Note_on_c, 1, 74, 76
7, 18119, Note_on_c, 1, 74, 0
7, 18120, Note_on_c, 1, 72, 76
7, 18224, Note_on_c, 1, 72, 0
7, 18240, Note_on_c, 1, 70, 76
7, 18359, Note_on_c, 1, 70, 0
7, 18360, Note_on_c, 1, 74, 76
7, 18464, Note_on_c, 1, 74, 0
7, 18480, Note_on_c, 1, 79, 76
7, 18584, Note_on_c, 1, 79, 0
7, 18600, Note_on_c, 1, 76, 76
7, 18704, Note_on_c, 1, 76, 0
7, 18720, Note_on_c, 1, 77, 76
7, 19064, Note_on_c, 1, 77, 0
7, 19080, Note_on_c, 1, 74, 76
7, 19184, Note_on_c, 1, 74, 0
7, 19200, Note_on_c, 1, 77, 76
7, 19319, Note_on_c, 1, 77, 0
7, 19320, Note_on_c, 1, 76, 76
7, 19424, Note_on_c, 1, 76, 0
7, 19440, Note_on_c, 1, 74, 76
7, 19559, Note_on_c, 1, 74, 0
7, 19560, Note_on_c, 1, 73, 76
7, 19664, Note_on_c, 1, 73, 0
7, 19680, Note_on_c, 1, 74, 76
7, 20144, Note_on_c, 1, 74, 0
7, 20160, Note_on_c, 1, 69, 76
7, 20264, Note_on_c, 1, 69, 0
7, 20280, Note_on_c, 1, 71, 76
7, 20384, Note_on_c, 1, 71, 0
7, 20400, Note_on_c, 1, 72, 76
7, 20624, Note_on_c, 1, 72, 0
7, 20640, Note_on_c, 1, 74, 76
7, 20759, Note_on_c, 1, 74, 0
7, 20760, Note_on_c, 1, 72, 76
7, 20879, Note_on_c, 1, 72, 0
7, 20880, Note_on_c, 1, 71, 76
7, 20999, Note_on_c, 1, 71, 0
7, 21000, Note_on_c, 1, 69, 76
7, 21104, Note_on_c, 1, 69, 0
7, 21120, Note_on_c, 1, 71, 76
7, 21224, Note_on_c, 1, 71, 0
7, 21240, Note_on_c, 1, 69, 76
7, 21344, Note_on_c, 1, 69, 0
7, 21360, Note_on_c, 1, 67, 76
7, 21464, Note_on_c, 1, 67, 0
7, 21480, Note_on_c, 1, 69, 76
7, 21584, Note_on_c, 1, 69, 0
7, 21600, Note_on_c, 1, 71, 76
7, 21704, Note_on_c, 1, 71, 0
7, 21720, Note_on_c, 1, 72, 76
7, 21824, Note_on_c, 1, 72, 0
7, 21840, Note_on_c, 1, 74, 76
7, 21944, Note_on_c, 1, 74, 0
7, 21960, Note_on_c, 1, 76, 76
7, 22064, Note_on_c, 1, 76, 0
7, 22080, Note_on_c, 1, 77, 76
7, 22304, Note_on_c, 1, 77, 0
7, 22320, Note_on_c, 1, 76, 76
7, 22544, Note_on_c, 1, 76, 0
7, 22560, Note_on_c, 1, 74, 76
7, 22664, Note_on_c, 1, 74, 0
7, 22680, Note_on_c, 1, 72, 76
7, 22784, Note_on_c, 1, 72, 0
7, 22800, Note_on_c, 1, 71, 76
7, 22904, Note_on_c, 1, 71, 0
7, 22920, Note_on_c, 1, 72, 76
7, 23024, Note_on_c, 1, 72, 0
7, 23040, Note_on_c, 1, 74, 76
7, 23144, Note_on_c, 1, 74, 0
7, 23160, Note_on_c, 1, 76, 76
7, 23264, Note_on_c, 1, 76, 0
7, 23280, Note_on_c, 1, 77, 76
7, 23384, Note_on_c, 1, 77, 0
7, 23400, Note_on_c, 1, 79, 76
7, 23504, Note_on_c, 1, 79, 0
7, 23520, Note_on_c, 1, 81, 76
7, 23744, Note_on_c, 1, 81, 0
7, 23760, Note_on_c, 1, 79, 76
7, 24224, Note_on_c, 1, 79, 0
7, 24240, Note_on_c, 1, 70, 76
7, 24344, Note_on_c, 1, 70, 0
7, 24360, Note_on_c, 1, 69, 76
7, 24464, Note_on_c, 1, 69, 0
7, 24480, Note_on_c, 1, 70, 76
7, 24584, Note_on_c, 1, 70, 0
7, 24600, Note_on_c, 1, 67, 76
7, 24704, Note_on_c, 1, 67, 0
7, 24720, Note_on_c, 1, 69, 76
7, 24944, Note_on_c, 1, 69, 0
7, 24960, Note_on_c, 1, 74, 76
7, 25184, Note_on_c, 1, 74, 0
7, 25200, Note_on_c, 1, 71, 76
7, 25424, Note_on_c, 1, 71, 0
7, 25440, Note_on_c, 1, 72, 76
7, 25904, Note_on_c, 1, 72, 0
7, 25920, Note_on_c, 1, 74, 76
7, 26144, Note_on_c, 1, 74, 0
7, 26160, Note_on_c, 1, 71, 76
7, 26384, Note_on_c, 1, 71, 0
7, 26400, Note_on_c, 1, 72, 76
7, 26519, Note_on_c, 1, 72, 0
7, 26520, Note_on_c, 1, 71, 76
7, 26639, Note_on_c, 1, 71, 0
7, 26640, Note_on_c, 1, 69, 76
7, 26759, Note_on_c, 1, 69, 0
7, 26760, Note_on_c, 1, 67, 76
7, 26864, Note_on_c, 1, 67, 0
7, 26880, Note_on_c, 1, 76, 76
7, 26999, Note_on_c, 1, 76, 0
7, 27000, Note_on_c, 1, 77, 76
7, 27119, Note_on_c, 1, 77, 0
7, 27120, Note_on_c, 1, 79, 76
7, 27239, Note_on_c, 1, 79, 0
7, 27240, Note_on_c, 1, 81, 76
7, 27344, Note_on_c, 1, 81, 0
7, 27360, Note_on_c, 1, 82, 76
7, 27824, Note_on_c, 1, 82, 0
7, 27840, Note_on_c, 1, 81, 76
7, 28064, Note_on_c, 1, 81, 0
7, 28080, Note_on_c, 1, 79, 76
7, 28304, Note_on_c, 1, 79, 0
7, 28320, Note_on_c, 1, 77, 76
7, 28544, Note_on_c, 1, 77, 0
7, 28560, Note_on_c, 1, 79, 76
7, 28679, Note_on_c, 1, 79, 0
7, 28680, Note_on_c, 1, 77, 76
7, 28799, Note_on_c, 1, 77, 0
7, 28800, Note_on_c, 1, 76, 76
7, 28919, Note_on_c, 1, 76, 0
7, 28920, Note_on_c, 1, 74, 76
7, 29024, Note_on_c, 1, 74, 0
7, 29040, Note_on_c, 1, 73, 76
7, 29144, Note_on_c, 1, 73, 0
7, 29160, Note_on_c, 1, 74, 76
7, 29264, Note_on_c, 1, 74, 0
7, 29280, Note_on_c, 1, 76, 76
7, 29504, Note_on_c, 1, 76, 0
7, 29520, Note_on_c, 1, 81, 76
7, 29984, Note_on_c, 1, 81, 0
7, 30000, Note_on_c, 1, 79, 76
7, 30119, Note_on_c, 1, 79, 0
7, 30120, Note_on_c, 1, 77, 76
7, 30239, Note_on_c, 1, 77, 0
7, 30240, Note_on_c, 1, 76, 76
7, 30359, Note_on_c, 1, 76, 0
7, 30360, Note_on_c, 1, 74, 76
7, 30464, Note_on_c, 1, 74, 0
7, 30480, Note_on_c, 1, 73, 76
7, 30599, Note_on_c, 1, 73, 0
7, 30600, Note_on_c, 1, 74, 76
7, 30719, Note_on_c, 1, 74, 0
7, 30720, Note_on_c, 1, 76, 76
7, 30839, Note_on_c, 1, 76, 0
7, 30840, Note_on_c, 1, 77, 76
7, 30944, Note_on_c, 1, 77, 0
7, 30960, Note_on_c, 1, 79, 76
7, 31424, Note_on_c, 1, 79, 0
7, 31440, Note_on_c, 1, 77, 76
7, 31559, Note_on_c, 1, 77, 0
7, 31560, Note_on_c, 1, 76, 76
7, 31679, Note_on_c, 1, 76, 0
7, 31680, Note_on_c, 1, 74, 76
7, 31799, Note_on_c, 1, 74, 0
7, 31800, Note_on_c, 1, 73, 76
7, 31904, Note_on_c, 1, 73, 0
7, 31920, Note_on_c, 1, 74, 76
7, 32024, Note_on_c, 1, 74, 0
7, 32040, Note_on_c, 1, 69, 76
7, 32144, Note_on_c, 1, 69, 0
7, 32160, Note_on_c, 1, 77, 76
7, 32279, Note_on_c, 1, 77, 0
7, 32280, Note_on_c, 1, 76, 76
7, 32399, Note_on_c, 1, 76, 0
7, 32400, Note_on_c, 1, 74, 76
7, 32519, Note_on_c, 1, 74, 0
7, 32520, Note_on_c, 1, 72, 76
7, 32624, Note_on_c, 1, 72, 0
7, 32640, Note_on_c, 1, 70, 76
7, 32759, Note_on_c, 1, 70, 0
7, 32760, Note_on_c, 1, 74, 76
7, 32864, Note_on_c, 1, 74, 0
7, 32880, Note_on_c, 1, 79, 76
7, 32984, Note_on_c, 1, 79, 0
7, 33000, Note_on_c, 1, 76, 76
7, 33104, Note_on_c, 1, 76, 0
7, 33120, Note_on_c, 1, 77, 76
7, 33464, Note_on_c, 1, 77, 0
7, 33480, Note_on_c, 1, 74, 76
7, 33584, Note_on_c, 1, 74, 0
7, 33600, Note_on_c, 1, 77, 76
7, 33719, Note_on_c, 1, 77, 0
7, 33720, Note_on_c, 1, 76, 76
7, 33824, Note_on_c, 1, 76, 0
7, 33840, Note_on_c, 1, 74, 76
7, 33959, Note_on_c, 1, 74, 0
7, 33960, Note_on_c, 1, 73, 76
7, 34064, Note_on_c, 1, 73, 0
7, 34080, Note_on_c, 1, 74, 76
7, 34544, Note_on_c, 1, 74, 0
7, 34560, Note_on_c, 1, 69, 76
7, 34664, Note_on_c, 1, 69, 0
7, 34680, Note_on_c, 1, 71, 76
7, 34784, Note_on_c, 1, 71, 0
7, 34800, Note_on_c, 1, 72, 76
7, 35024, Note_on_c, 1, 72, 0
7, 35040, Note_on_c, 1, 74, 76
7, 35159, Note_on_c, 1, 74, 0
7, 35160, Note_on_c, 1, 72, 76
7, 35279, Note_on_c, 1, 72, 0
7, 35280, Note_on_c, 1, 71, 76
7, 35399, Note_on_c, 1, 71, 0
7, 35400, Note_on_c, 1, 69, 76
7, 35504, Note_on_c, 1, 69, 0
7, 35520, Note_on_c, 1, 71, 76
7, 35624, Note_on_c, 1, 71, 0
7, 35640, Note_on_c, 1, 69, 76
7, 35744, Note_on_c, 1, 69, 0
7, 35760, Note_on_c, 1, 67, 76
7, 35864, Note_on_c, 1, 67, 0
7, 35880, Note_on_c, 1, 69, 76
7, 35984, Note_on_c, 1, 69, 0
7, 36000, Note_on_c, 1, 71, 76
7, 36104, Note_on_c, 1, 71, 0
7, 36120, Note_on_c, 1, 72, 76
7, 36224, Note_on_c, 1, 72, 0
7, 36240, Note_on_c, 1, 74, 76
7, 36344, Note_on_c, 1, 74, 0
7, 36360, Note_on_c, 1, 76, 76
7, 36464, Note_on_c, 1, 76, 0
7, 36480, Note_on_c, 1, 77, 76
7, 36704, Note_on_c, 1, 77, 0
7, 36720, Note_on_c, 1, 76, 76
7, 36944, Note_on_c, 1, 76, 0
7, 36960, Note_on_c, 1, 74, 76
7, 37064, Note_on_c, 1, 74, 0
7, 37080, Note_on_c, 1, 72, 76
7, 37184, Note_on_c, 1, 72, 0
7, 37200, Note_on_c, 1, 71, 76
7, 37304, Note_on_c, 1, 71, 0
7, 37320, Note_on_c, 1, 72, 76
7, 37424, Note_on_c, 1, 72, 0
7, 37440, Note_on_c, 1, 74, 76
7, 37544, Note_on_c, 1, 74, 0
7, 37560, Note_on_c, 1, 76, 76
7, 37664, Note_on_c, 1, 76, 0
7, 37680, Note_on_c, 1, 77, 76
7, 37784, Note_on_c, 1, 77, 0
7, 37800, Note_on_c, 1, 79, 76
7, 37904, Note_on_c, 1, 79, 0
7, 37920, Note_on_c, 1, 81, 76
7, 38144, Note_on_c, 1, 81, 0
7, 38160, Note_on_c, 1, 79, 76
7, 38624, Note_on_c, 1, 79, 0
7, 38640, Note_on_c, 1, 70, 76
7, 38744, Note_on_c, 1, 70, 0
7, 38760, Note_on_c, 1, 69, 76
7, 38864, Note_on_c, 1, 69, 0
7, 38880, Note_on_c, 1, 70, 76
7, 38984, Note_on_c, 1, 70, 0
7, 39000, Note_on_c, 1, 67, 76
7, 39104, Note_on_c, 1, 67, 0
7, 39120, Note_on_c, 1, 69, 76
7, 39344, Note_on_c, 1, 69, 0
7, 39360, Note_on_c, 1, 74, 76
7, 39584, Note_on_c, 1, 74, 0
7, 39600, Note_on_c, 1, 71, 76
7, 39824, Note_on_c, 1, 71, 0
7, 39840, Note_on_c, 1, 72, 76
7, 40319, Note_on_c, 1, 72, 0
7, 40560, Note_on_c, 1, 79, 68
7, 40664, Note_on_c, 1, 79, 0
7, 40680, Note_on_c, 1, 77, 68
7, 40784, Note_on_c, 1, 77, 0
7, 40800, Note_on_c, 1, 76, 68
7, 40919, Note_on_c, 1, 76, 0
7, 40920, Note_on_c, 1, 74, 68
7, 41039, Note_on_c, 1, 74, 0
7, 41040, Note_on_c, 1, 72, 68
7, 41159, Note_on_c, 1, 72, 0
7, 41160, Note_on_c, 1, 74, 68
7, 41279, Note_on_c, 1, 74, 0
7, 41280, Note_on_c, 1, 76, 68
7, 41399, Note_on_c, 1, 76, 0
7, 41400, Note_on_c, 1, 77, 68
7, 41504, Note_on_c, 1, 77, 0
7, 41520, Note_on_c, 1, 76, 68
7, 41639, Note_on_c, 1, 76, 0
7, 41640, Note_on_c, 1, 74, 68
7, 41759, Note_on_c, 1, 74, 0
7, 41760, Note_on_c, 1, 72, 68
7, 41879, Note_on_c, 1, 72, 0
7, 41880, Note_on_c, 1, 74, 68
7, 41999, Note_on_c, 1, 74, 0
7, 42000, Note_on_c, 1, 76, 68
7, 42119, Note_on_c, 1, 76, 0
7, 42120, Note_on_c, 1, 77, 68
7, 42224, Note_on_c, 1, 77, 0
7, 42240, Note_on_c, 1, 76, 68
7, 42359, Note_on_c, 1, 76, 0
7, 42360, Note_on_c, 1, 74, 68
7, 42479, Note_on_c, 1, 74, 0
7, 42480, Note_on_c, 1, 77, 68
7, 42599, Note_on_c, 1, 77, 0
7, 42600, Note_on_c, 1, 76, 68
7, 42719, Note_on_c, 1, 76, 0
7, 42720, Note_on_c, 1, 74, 68
7, 42839, Note_on_c, 1, 74, 0
7, 42840, Note_on_c, 1, 72, 68
7, 42944, Note_on_c, 1, 72, 0
7, 42960, Note_on_c, 1, 71, 68
7, 43079, Note_on_c, 1, 71, 0
7, 43080, Note_on_c, 1, 72, 68
7, 43199, Note_on_c, 1, 72, 0
7, 43200, Note_on_c, 1, 74, 68
7, 43319, Note_on_c, 1, 74, 0
7, 43320, Note_on_c, 1, 76, 68
7, 43439, Note_on_c, 1, 76, 0
7, 43440, Note_on_c, 1, 77, 68
7, 43559, Note_on_c, 1, 77, 0
7, 43560, Note_on_c, 1, 79, 68
7, 43664, Note_on_c, 1, 79, 0
7, 43680, Note_on_c, 1, 76, 68
7, 43799, Note_on_c, 1, 76, 0
7, 43800, Note_on_c, 1, 74, 68
7, 43919, Note_on_c, 1, 74, 0
7, 43920, Note_on_c, 1, 72, 68
7, 44039, Note_on_c, 1, 72, 0
7, 44040, Note_on_c, 1, 71, 68
7, 44159, Note_on_c, 1, 71, 0
7, 44160, Note_on_c, 1, 69, 68
7, 44279, Note_on_c, 1, 69, 0
7, 44280, Note_on_c, 1, 67, 68
7, 44384, Note_on_c, 1, 67, 0
7, 44400, Note_on_c, 1, 66, 68
7, 44504, Note_on_c, 1, 66, 0
7, 44520, Note_on_c, 1, 69, 68
7, 44624, Note_on_c, 1, 69, 0
7, 44640, Note_on_c, 1, 74, 68
7, 44744, Note_on_c, 1, 74, 0
7, 44760, Note_on_c, 1, 72, 68
7, 44864, Note_on_c, 1, 72, 0
7, 44880, Note_on_c, 1, 71, 68
7, 44984, Note_on_c, 1, 71, 0
7, 45000, Note_on_c, 1, 69, 68
7, 45104, Note_on_c, 1, 69, 0
7, 45120, Note_on_c, 1, 67, 68
7, 45344, Note_on_c, 1, 67, 0
7, 45360, Note_on_c, 1, 69, 68
7, 45584, Note_on_c, 1, 69, 0
7, 45600, Note_on_c, 1, 66, 68
7, 45824, Note_on_c, 1, 66, 0
7, 45840, Note_on_c, 1, 67, 68
7, 46304, Note_on_c, 1, 67, 0
7, 46320, Note_on_c, 1, 79, 68
7, 46424, Note_on_c, 1, 79, 0
7, 46440, Note_on_c, 1, 77, 68
7, 46544, Note_on_c, 1, 77, 0
7, 46560, Note_on_c, 1, 76, 68
7, 46679, Note_on_c, 1, 76, 0
7, 46680, Note_on_c, 1, 74, 68
7, 46799, Note_on_c, 1, 74, 0
7, 46800, Note_on_c, 1, 72, 68
7, 46919, Note_on_c, 1, 72, 0
7, 46920, Note_on_c, 1, 74, 68
7, 47039, Note_on_c, 1, 74, 0
7, 47040, Note_on_c, 1, 76, 68
7, 47159, Note_on_c, 1, 76, 0
7, 47160, Note_on_c, 1, 77, 68
7, 47264, Note_on_c, 1, 77, 0
7, 47280, Note_on_c, 1, 76, 68
7, 47399, Note_on_c, 1, 76, 0
7, 47400, Note_on_c, 1, 74, 68
7, 47519, Note_on_c, 1, 74, 0
7, 47520, Note_on_c, 1, 72, 68
7, 47639, Note_on_c, 1, 72, 0
7, 47640, Note_on_c, 1, 74, 68
7, 47759, Note_on_c, 1, 74, 0
7, 47760, Note_on_c, 1, 76, 68
7, 47879, Note_on_c, 1, 76, 0
7, 47880, Note_on_c, 1, 77, 68
7, 47984, Note_on_c, 1, 77, 0
7, 48000, Note_on_c, 1, 76, 68
7, 48119, Note_on_c, 1, 76, 0
7, 48120, Note_on_c, 1, 74, 68
7, 48239, Note_on_c, 1, 74, 0
7, 48240, Note_on_c, 1, 77, 68
7, 48359, Note_on_c, 1, 77, 0
7, 48360, Note_on_c, 1, 76, 68
7, 48479, Note_on_c, 1, 76, 0
7, 48480, Note_on_c, 1, 74, 68
7, 48599, Note_on_c, 1, 74, 0
7, 48600, Note_on_c, 1, 72, 68
7, 48704, Note_on_c, 1, 72, 0
7, 48720, Note_on_c, 1, 71, 68
7, 48839, Note_on_c, 1, 71, 0
7, 48840, Note_on_c, 1, 72, 68
7, 48959, Note_on_c, 1, 72, 0
7, 48960, Note_on_c, 1, 74, 68
7, 49079, Note_on_c, 1, 74, 0
7, 49080, Note_on_c, 1, 76, 68
7, 49199, Note_on_c, 1, 76, 0
7, 49200, Note_on_c, 1, 77, 68
7, 49319, Note_on_c, 1, 77, 0
7, 49320, Note_on_c, 1, 79, 68
7, 49424, Note_on_c, 1, 79, 0
7, 49440, Note_on_c, 1, 76, 68
7, 49559, Note_on_c, 1, 76, 0
7, 49560, Note_on_c, 1, 74, 68
7, 49679, Note_on_c, 1, 74, 0
7, 49680, Note_on_c, 1, 72, 68
7, 49799, Note_on_c, 1, 72, 0
7, 49800, Note_on_c, 1, 71, 68
7, 49919, Note_on_c, 1, 71, 0
7, 49920, Note_on_c, 1, 69, 68
7, 50039, Note_on_c, 1, 69, 0
7, 50040, Note_on_c, 1, 67, 68
7, 50144, Note_on_c, 1, 67, 0
7, 50160, Note_on_c, 1, 66, 68
7, 50264, Note_on_c, 1, 66, 0
7, 50280, Note_on_c, 1, 69, 68
7, 50384, Note_on_c, 1, 69, 0
7, 50400, Note_on_c, 1, 74, 68
7, 50504, Note_on_c, 1, 74, 0
7, 50520, Note_on_c, 1, 72, 68
7, 50624, Note_on_c, 1, 72, 0
7, 50640, Note_on_c, 1, 71, 68
7, 50744, Note_on_c, 1, 71, 0
7, 50760, Note_on_c, 1, 69, 68
7, 50864, Note_on_c, 1, 69, 0
7, 50880, Note_on_c, 1, 67, 68
7, 51104, Note_on_c, 1, 67, 0
7, 51120, Note_on_c, 1, 69, 68
7, 51344, Note_on_c, 1, 69, 0
7, 51360, Note_on_c, 1, 66, 68
7, 51584, Note_on_c, 1, 66, 0
7, 51600, Note_on_c, 1, 67, 68
7, 51704, Note_on_c, 1, 67, 0
7, 51720, Note_on_c, 1, 66, 68
7, 51824, Note_on_c, 1, 66, 0
7, 51840, Note_on_c, 1, 67, 68
7, 51944, Note_on_c, 1, 67, 0
7, 51960, Note_on_c, 1, 69, 68
7, 52064, Note_on_c, 1, 69, 0
7, 52080, Note_on_c, 1, 71, 68
7, 52184, Note_on_c, 1, 71, 0
7, 52200, Note_on_c, 1, 72, 68
7, 52304, Note_on_c, 1, 72, 0
7, 52320, Note_on_c, 1, 74, 68
7, 52439, Note_on_c, 1, 74, 0
7, 52440, Note_on_c, 1, 77, 68
7, 52559, Note_on_c, 1, 77, 0
7, 52560, Note_on_c, 1, 76, 68
7, 52679, Note_on_c, 1, 76, 0
7, 52680, Note_on_c, 1, 74, 68
7, 52799, Note_on_c, 1, 74, 0
7, 52800, Note_on_c, 1, 72, 68
7, 52919, Note_on_c, 1, 72, 0
7, 52920, Note_on_c, 1, 71, 68
7, 53024, Note_on_c, 1, 71, 0
7, 53040, Note_on_c, 1, 73, 68
7, 53159, Note_on_c, 1, 73, 0
7, 53160, Note_on_c, 1, 69, 68
7, 53279, Note_on_c, 1, 69, 0
7, 53280, Note_on_c, 1, 71, 68
7, 53399, Note_on_c, 1, 71, 0
7, 53400, Note_on_c, 1, 73, 68
7, 53519, Note_on_c, 1, 73, 0
7, 53520, Note_on_c, 1, 74, 68
7, 53639, Note_on_c, 1, 74, 0
7, 53640, Note_on_c, 1, 73, 68
7, 53744, Note_on_c, 1, 73, 0
7, 53760, Note_on_c, 1, 76, 68
7, 53879, Note_on_c, 1, 76, 0
7, 53880, Note_on_c, 1, 74, 68
7, 53984, Note_on_c, 1, 74, 0
7, 54000, Note_on_c, 1, 77, 68
7, 54119, Note_on_c, 1, 77, 0
7, 54120, Note_on_c, 1, 76, 68
7, 54224, Note_on_c, 1, 76, 0
7, 54240, Note_on_c, 1, 82, 68
7, 54359, Note_on_c, 1, 82, 0
7, 54360, Note_on_c, 1, 81, 68
7, 54464, Note_on_c, 1, 81, 0
7, 54480, Note_on_c, 1, 81, 68
7, 54599, Note_on_c, 1, 81, 0
7, 54600, Note_on_c, 1, 77, 68
7, 54719, Note_on_c, 1, 77, 0
7, 54720, Note_on_c, 1, 76, 68
7, 54839, Note_on_c, 1, 76, 0
7, 54840, Note_on_c, 1, 74, 68
7, 54959, Note_on_c, 1, 74, 0
7, 54960, Note_on_c, 1, 73, 68
7, 55079, Note_on_c, 1, 73, 0
7, 55080, Note_on_c, 1, 74, 68
7, 55184, Note_on_c, 1, 74, 0
7, 55200, Note_on_c, 1, 76, 68
7, 55319, Note_on_c, 1, 76, 0
7, 55320, Note_on_c, 1, 77, 68
7, 55439, Note_on_c, 1, 77, 0
7, 55440, Note_on_c, 1, 79, 68
7, 55559, Note_on_c, 1, 79, 0
7, 55560, Note_on_c, 1, 76, 68
7, 55664, Note_on_c, 1, 76, 0
7, 55680, Note_on_c, 1, 77, 68
7, 55799, Note_on_c, 1, 77, 0
7, 55800, Note_on_c, 1, 74, 68
7, 55904, Note_on_c, 1, 74, 0
7, 55920, Note_on_c, 1, 73, 68
7, 56039, Note_on_c, 1, 73, 0
7, 56040, Note_on_c, 1, 71, 68
7, 56159, Note_on_c, 1, 71, 0
7, 56160, Note_on_c, 1, 73, 68
7, 56279, Note_on_c, 1, 73, 0
7, 56280, Note_on_c, 1, 74, 68
7, 56399, Note_on_c, 1, 74, 0
7, 56400, Note_on_c, 1, 76, 68
7, 56519, Note_on_c, 1, 76, 0
7, 56520, Note_on_c, 1, 77, 68
7, 56624, Note_on_c, 1, 77, 0
7, 56640, Note_on_c, 1, 79, 68
7, 56759, Note_on_c, 1, 79, 0
7, 56760, Note_on_c, 1, 77, 68
7, 56879, Note_on_c, 1, 77, 0
7, 56880, Note_on_c, 1, 79, 68
7, 56999, Note_on_c, 1, 79, 0
7, 57000, Note_on_c, 1, 81, 68
7, 57119, Note_on_c, 1, 81, 0
7, 57120, Note_on_c, 1, 82, 68
7, 57239, Note_on_c, 1, 82, 0
7, 57240, Note_on_c, 1, 79, 68
7, 57344, Note_on_c, 1, 79, 0
7, 57360, Note_on_c, 1, 81, 68
7, 57479, Note_on_c, 1, 81, 0
7, 57480, Note_on_c, 1, 82, 68
7, 57599, Note_on_c, 1, 82, 0
7, 57600, Note_on_c, 1, 81, 68
7, 57719, Note_on_c, 1, 81, 0
7, 57720, Note_on_c, 1, 79, 68
7, 57839, Note_on_c, 1, 79, 0
7, 57840, Note_on_c, 1, 77, 68
7, 57959, Note_on_c, 1, 77, 0
7, 57960, Note_on_c, 1, 76, 68
7, 58064, Note_on_c, 1, 76, 0
7, 58080, Note_on_c, 1, 77, 68
7, 58904, Note_on_c, 1, 77, 0
7, 58920, Note_on_c, 1, 77, 68
7, 59039, Note_on_c, 1, 77, 0
7, 59040, Note_on_c, 1, 76, 68
7, 59159, Note_on_c, 1, 76, 0
7, 59160, Note_on_c, 1, 73, 68
7, 59279, Note_on_c, 1, 73, 0
7, 59280, Note_on_c, 1, 74, 68
7, 59399, Note_on_c, 1, 74, 0
7, 59400, Note_on_c, 1, 76, 68
7, 59504, Note_on_c, 1, 76, 0
7, 59520, Note_on_c, 1, 69, 68
7, 59744, Note_on_c, 1, 69, 0
7, 59760, Note_on_c, 1, 81, 68
7, 59984, Note_on_c, 1, 81, 0
7, 60000, Note_on_c, 1, 76, 68
7, 60029, Note_on_c, 1, 76, 0
7, 60030, Note_on_c, 1, 77, 68
7, 60059, Note_on_c, 1, 77, 0
7, 60060, Note_on_c, 1, 76, 68
7, 60089, Note_on_c, 1, 76, 0
7, 60090, Note_on_c, 1, 77, 68
7, 60119, Note_on_c, 1, 77, 0
7, 60120, Note_on_c, 1, 76, 68
7, 60149, Note_on_c, 1, 76, 0
7, 60150, Note_on_c, 1, 77, 68
7, 60179, Note_on_c, 1, 77, 0
7, 60180, Note_on_c, 1, 74, 68
7, 60209, Note_on_c, 1, 74, 0
7, 60210, Note_on_c, 1, 76, 68
7, 60239, Note_on_c, 1, 76, 0
7, 60240, Note_on_c, 1, 77, 68
7, 60359, Note_on_c, 1, 77, 0
7, 60360, Note_on_c, 1, 76, 68
7, 60479, Note_on_c, 1, 76, 0
7, 60480, Note_on_c, 1, 77, 68
7, 60599, Note_on_c, 1, 77, 0
7, 60600, Note_on_c, 1, 79, 68
7, 60719, Note_on_c, 1, 79, 0
7, 60720, Note_on_c, 1, 77, 68
7, 60839, Note_on_c, 1, 77, 0
7, 60840, Note_on_c, 1, 76, 68
7, 60944, Note_on_c, 1, 76, 0
7, 60960, Note_on_c, 1, 74, 68
7, 61784, Note_on_c, 1, 74, 0
7, 61800, Note_on_c, 1, 72, 68
7, 61919, Note_on_c, 1, 72, 0
7, 61920, Note_on_c, 1, 71, 68
7, 62039, Note_on_c, 1, 71, 0
7, 62040, Note_on_c, 1, 72, 68
7, 62159, Note_on_c, 1, 72, 0
7, 62160, Note_on_c, 1, 74, 68
7, 62279, Note_on_c, 1, 74, 0
7, 62280, Note_on_c, 1, 76, 68
7, 62384, Note_on_c, 1, 76, 0
7, 62400, Note_on_c, 1, 77, 68
7, 62519, Note_on_c, 1, 77, 0
7, 62520, Note_on_c, 1, 76, 68
7, 62639, Note_on_c, 1, 76, 0
7, 62640, Note_on_c, 1, 74, 68
7, 62759, Note_on_c, 1, 74, 0
7, 62760, Note_on_c, 1, 76, 68
7, 62879, Note_on_c, 1, 76, 0
7, 62880, Note_on_c, 1, 74, 68
7, 62999, Note_on_c, 1, 74, 0
7, 63000, Note_on_c, 1, 72, 68
7, 63104, Note_on_c, 1, 72, 0
7, 63120, Note_on_c, 1, 71, 68
7, 63239, Note_on_c, 1, 71, 0
7, 63240, Note_on_c, 1, 69, 68
7, 63359, Note_on_c, 1, 69, 0
7, 63360, Note_on_c, 1, 67, 68
7, 63479, Note_on_c, 1, 67, 0
7, 63480, Note_on_c, 1, 69, 68
7, 63599, Note_on_c, 1, 69, 0
7, 63600, Note_on_c, 1, 71, 68
7, 63719, Note_on_c, 1, 71, 0
7, 63720, Note_on_c, 1, 72, 68
7, 63824, Note_on_c, 1, 72, 0
7, 63840, Note_on_c, 1, 74, 68
7, 63959, Note_on_c, 1, 74, 0
7, 63960, Note_on_c, 1, 76, 68
7, 64079, Note_on_c, 1, 76, 0
7, 64080, Note_on_c, 1, 77, 68
7, 64199, Note_on_c, 1, 77, 0
7, 64200, Note_on_c, 1, 74, 68
7, 64319, Note_on_c, 1, 74, 0
7, 64320, Note_on_c, 1, 76, 68
7, 64439, Note_on_c, 1, 76, 0
7, 64440, Note_on_c, 1, 77, 68
7, 64544, Note_on_c, 1, 77, 0
7, 64560, Note_on_c, 1, 79, 68
7, 64679, Note_on_c, 1, 79, 0
7, 64680, Note_on_c, 1, 81, 68
7, 64799, Note_on_c, 1, 81, 0
7, 64800, Note_on_c, 1, 79, 68
7, 64919, Note_on_c, 1, 79, 0
7, 64920, Note_on_c, 1, 77, 68
7, 65039, Note_on_c, 1, 77, 0
7, 65040, Note_on_c, 1, 76, 68
7, 65159, Note_on_c, 1, 76, 0
7, 65160, Note_on_c, 1, 74, 68
7, 65264, Note_on_c, 1, 74, 0
7, 65280, Note_on_c, 1, 72, 68
7, 65399, Note_on_c, 1, 72, 0
7, 65400, Note_on_c, 1, 79, 68
7, 65519, Note_on_c, 1, 79, 0
7, 65520, Note_on_c, 1, 77, 68
7, 65639, Note_on_c, 1, 77, 0
7, 65640, Note_on_c, 1, 76, 68
7, 65759, Note_on_c, 1, 76, 0
7, 65760, Note_on_c, 1, 74, 68
7, 65879, Note_on_c, 1, 74, 0
7, 65880, Note_on_c, 1, 76, 68
7, 65984, Note_on_c, 1, 76, 0
7, 66000, Note_on_c, 1, 72, 68
7, 66119, Note_on_c, 1, 72, 0
7, 66120, Note_on_c, 1, 76, 68
7, 66239, Note_on_c, 1, 76, 0
7, 66240, Note_on_c, 1, 74, 68
7, 66359, Note_on_c, 1, 74, 0
7, 66360, Note_on_c, 1, 72, 68
7, 66479, Note_on_c, 1, 72, 0
7, 66480, Note_on_c, 1, 71, 68
7, 66599, Note_on_c, 1, 71, 0
7, 66600, Note_on_c, 1, 72, 68
7, 66704, Note_on_c, 1, 72, 0
7, 66720, Note_on_c, 1, 74, 68
7, 66839, Note_on_c, 1, 74, 0
7, 66840, Note_on_c, 1, 77, 68
7, 66959, Note_on_c, 1, 77, 0
7, 66960, Note_on_c, 1, 76, 68
7, 67079, Note_on_c, 1, 76, 0
7, 67080, Note_on_c, 1, 74, 68
7, 67199, Note_on_c, 1, 74, 0
7, 67200, Note_on_c, 1, 72, 68
7, 67319, Note_on_c, 1, 72, 0
7, 67320, Note_on_c, 1, 71, 68
7, 67424, Note_on_c, 1, 71, 0
7, 67440, Note_on_c, 1, 73, 68
7, 67559, Note_on_c, 1, 73, 0
7, 67560, Note_on_c, 1, 69, 68
7, 67679, Note_on_c, 1, 69, 0
7, 67680, Note_on_c, 1, 71, 68
7, 67799, Note_on_c, 1, 71, 0
7, 67800, Note_on_c, 1, 73, 68
7, 67919, Note_on_c, 1, 73, 0
7, 67920, Note_on_c, 1, 74, 68
7, 68039, Note_on_c, 1, 74, 0
7, 68040, Note_on_c, 1, 73, 68
7, 68144, Note_on_c, 1, 73, 0
7, 68160, Note_on_c, 1, 76, 68
7, 68279, Note_on_c, 1, 76, 0
7, 68280, Note_on_c, 1, 74, 68
7, 68384, Note_on_c, 1, 74, 0
7, 68400, Note_on_c, 1, 77, 68
7, 68519, Note_on_c, 1, 77, 0
7, 68520, Note_on_c, 1, 76, 68
7, 68624, Note_on_c, 1, 76, 0
7, 68640, Note_on_c, 1, 82, 68
7, 68759, Note_on_c, 1, 82, 0
7, 68760, Note_on_c, 1, 81, 68
7, 68864, Note_on_c, 1, 81, 0
7, 68880, Note_on_c, 1, 81, 68
7, 68999, Note_on_c, 1, 81, 0
7, 69000, Note_on_c, 1, 77, 68
7, 69119, Note_on_c, 1, 77, 0
7, 69120, Note_on_c, 1, 76, 68
7, 69239, Note_on_c, 1, 76, 0
7, 69240, Note_on_c, 1, 74, 68
7, 69359, Note_on_c, 1, 74, 0
7, 69360, Note_on_c, 1, 73, 68
7, 69479, Note_on_c, 1, 73, 0
7, 69480, Note_on_c, 1, 74, 68
7, 69584, Note_on_c, 1, 74, 0
7, 69600, Note_on_c, 1, 76, 68
7, 69719, Note_on_c, 1, 76, 0
7, 69720, Note_on_c, 1, 77, 68
7, 69839, Note_on_c, 1, 77, 0
7, 69840, Note_on_c, 1, 79, 68
7, 69959, Note_on_c, 1, 79, 0
7, 69960, Note_on_c, 1, 76, 68
7, 70064, Note_on_c, 1, 76, 0
7, 70080, Note_on_c, 1, 77, 68
7, 70199, Note_on_c, 1, 77, 0
7, 70200, Note_on_c, 1, 74, 68
7, 70304, Note_on_c, 1, 74, 0
7, 70320, Note_on_c, 1, 73, 68
7, 70439, Note_on_c, 1, 73, 0
7, 70440, Note_on_c, 1, 71, 68
7, 70559, Note_on_c, 1, 71, 0
7, 70560, Note_on_c, 1, 73, 68
7, 70679, Note_on_c, 1, 73, 0
7, 70680, Note_on_c, 1, 74, 68
7, 70799, Note_on_c, 1, 74, 0
7, 70800, Note_on_c, 1, 76, 68
7, 70919, Note_on_c, 1, 76, 0
7, 70920, Note_on_c, 1, 77, 68
7, 71024, Note_on_c, 1, 77, 0
7, 71040, Note_on_c, 1, 79, 68
7, 71159, Note_on_c, 1, 79, 0
7, 71160, Note_on_c, 1, 77, 68
7, 71279, Note_on_c, 1, 77, 0
7, 71280, Note_on_c, 1, 79, 68
7, 71399, Note_on_c, 1, 79, 0
7, 71400, Note_on_c, 1, 81, 68
7, 71519, Note_on_c, 1, 81, 0
7, 71520, Note_on_c, 1, 82, 68
7, 71639, Note_on_c, 1, 82, 0
7, 71640, Note_on_c, 1, 79, 68
7, 71744, Note_on_c, 1, 79, 0
7, 71760, Note_on_c, 1, 81, 68
7, 71879, Note_on_c, 1, 81, 0
7, 71880, Note_on_c, 1, 82, 68
7, 71999, Note_on_c, 1, 82, 0
7, 72000, Note_on_c, 1, 81, 68
7, 72119, Note_on_c, 1, 81, 0
7, 72120, Note_on_c, 1, 79, 68
7, 72239, Note_on_c, 1, 79, 0
7, 72240, Note_on_c, 1, 77, 68
7, 72359, Note_on_c, 1, 77, 0
7, 72360, Note_on_c, 1, 76, 68
7, 72464, Note_on_c, 1, 76, 0
7, 72480, Note_on_c, 1, 77, 68
7, 73304, Note_on_c, 1, 77, 0
7, 73320, Note_on_c, 1, 77, 68
7, 73439, Note_on_c, 1, 77, 0
7, 73440, Note_on_c, 1, 76, 68
7, 73559, Note_on_c, 1, 76, 0
7, 73560, Note_on_c, 1, 73, 68
7, 73679, Note_on_c, 1, 73, 0
7, 73680, Note_on_c, 1, 74, 68
7, 73799, Note_on_c, 1, 74, 0
7, 73800, Note_on_c, 1, 76, 68
7, 73904, Note_on_c, 1, 76, 0
7, 73920, Note_on_c, 1, 69, 68
7, 74144, Note_on_c, 1, 69, 0
7, 74160, Note_on_c, 1, 81, 68
7, 74384, Note_on_c, 1, 81, 0
7, 74400, Note_on_c, 1, 76, 68
7, 74429, Note_on_c, 1, 76, 0
7, 74430, Note_on_c, 1, 77, 68
7, 74459, Note_on_c, 1, 77, 0
7, 74460, Note_on_c, 1, 76, 68
7, 74489, Note_on_c, 1, 76, 0
7, 74490, Note_on_c, 1, 77, 68
7, 74519, Note_on_c, 1, 77, 0
7, 74520, Note_on_c, 1, 76, 68
7, 74549, Note_on_c, 1, 76, 0
7, 74550, Note_on_c, 1, 77, 68
7, 74579, Note_on_c, 1, 77, 0
7, 74580, Note_on_c, 1, 74, 68
7, 74609, Note_on_c, 1, 74, 0
7, 74610, Note_on_c, 1, 76, 68
7, 74639, Note_on_c, 1, 76, 0
7, 74640, Note_on_c, 1, 77, 68
7, 74759, Note_on_c, 1, 77, 0
7, 74760, Note_on_c, 1, 76, 68
7, 74879, Note_on_c, 1, 76, 0
7, 74880, Note_on_c, 1, 77, 68
7, 74999, Note_on_c, 1, 77, 0
7, 75000, Note_on_c, 1, 79, 68
7, 75119, Note_on_c, 1, 79, 0
7, 75120, Note_on_c, 1, 77, 68
7, 75239, Note_on_c, 1, 77, 0
7, 75240, Note_on_c, 1, 76, 68
7, 75344, Note_on_c, 1, 76, 0
7, 75360, Note_on_c, 1, 74, 68
7, 76184, Note_on_c, 1, 74, 0
7, 76200, Note_on_c, 1, 72, 68
7, 76319, Note_on_c, 1, 72, 0
7, 76320, Note_on_c, 1, 71, 68
7, 76439, Note_on_c, 1, 71, 0
7, 76440, Note_on_c, 1, 72, 68
7, 76559, Note_on_c, 1, 72, 0
7, 76560, Note_on_c, 1, 74, 68
7, 76679, Note_on_c, 1, 74, 0
7, 76680, Note_on_c, 1, 76, 68
7, 76784, Note_on_c, 1, 76, 0
7, 76800, Note_on_c, 1, 77, 68
7, 76919, Note_on_c, 1, 77, 0
7, 76920, Note_on_c, 1, 76, 68
7, 77039, Note_on_c, 1, 76, 0
7, 77040, Note_on_c, 1, 74, 68
7, 77159, Note_on_c, 1, 74, 0
7, 77160, Note_on_c, 1, 76, 68
7, 77279, Note_on_c, 1, 76, 0
7, 77280, Note_on_c, 1, 74, 68
7, 77399, Note_on_c, 1, 74, 0
7, 77400, Note_on_c, 1, 72, 68
7, 77504, Note_on_c, 1, 72, 0
7, 77520, Note_on_c, 1, 71, 68
7, 77639, Note_on_c, 1, 71, 0
7, 77640, Note_on_c, 1, 69, 68
7, 77759, Note_on_c, 1, 69, 0
7, 77760, Note_on_c, 1, 67, 68
7, 77879, Note_on_c, 1, 67, 0
7, 77880, Note_on_c, 1, 69, 68
7, 77999, Note_on_c, 1, 69, 0
7, 78000, Note_on_c, 1, 71, 68
7, 78119, Note_on_c, 1, 71, 0
7, 78120, Note_on_c, 1, 72, 68
7, 78224, Note_on_c, 1, 72, 0
7, 78240, Note_on_c, 1, 74, 68
7, 78359, Note_on_c, 1, 74, 0
7, 78360, Note_on_c, 1, 76, 68
7, 78479, Note_on_c, 1, 76, 0
7, 78480, Note_on_c, 1, 77, 68
7, 78599, Note_on_c, 1, 77, 0
7, 78600, Note_on_c, 1, 74, 68
7, 78719, Note_on_c, 1, 74, 0
7, 78720, Note_on_c, 1, 76, 68
7, 78839, Note_on_c, 1, 76, 0
7, 78840, Note_on_c, 1, 77, 68
7, 78944, Note_on_c, 1, 77, 0
7, 78960, Note_on_c, 1, 79, 68
7, 79079, Note_on_c, 1, 79, 0
7, 79080, Note_on_c, 1, 81, 68
7, 79199, Note_on_c, 1, 81, 0
7, 79200, Note_on_c, 1, 79, 68
7, 79319, Note_on_c, 1, 79, 0
7, 79320, Note_on_c, 1, 77, 68
7, 79439, Note_on_c, 1, 77, 0
7, 79440, Note_on_c, 1, 76, 68
7, 79559, Note_on_c, 1, 76, 0
7, 79560, Note_on_c, 1, 74, 68
7, 79664, Note_on_c, 1, 74, 0
7, 79680, Note_on_c, 1, 72, 68
7, 79799, Note_on_c, 1, 72, 0
7, 79800, Note_on_c, 1, 79, 68
7, 79919, Note_on_c, 1, 79, 0
7, 79920, Note_on_c, 1, 77, 68
7, 80039, Note_on_c, 1, 77, 0
7, 80040, Note_on_c, 1, 76, 68
7, 80159, Note_on_c, 1, 76, 0
7, 80160, Note_on_c, 1, 74, 68
7, 80279, Note_on_c, 1, 74, 0
7, 80280, Note_on_c, 1, 76, 68
7, 80384, Note_on_c, 1, 76, 0
7, 80400, Note_on_c, 1, 72, 68
7, 80879, Note_on_c, 1, 72, 0
7, 81120, Note_on_c, 1, 67, 76
7, 81344, Note_on_c, 1, 67, 0
7, 81360, Note_on_c, 1, 72, 76
7, 81584, Note_on_c, 1, 72, 0
7, 81600, Note_on_c, 1, 76, 76
7, 81719, Note_on_c, 1, 76, 0
7, 81720, Note_on_c, 1, 74, 76
7, 81839, Note_on_c, 1, 74, 0
7, 81840, Note_on_c, 1, 72, 76
7, 81959, Note_on_c, 1, 72, 0
7, 81960, Note_on_c, 1, 71, 76
7, 82064, Note_on_c, 1, 71, 0
7, 82080, Note_on_c, 1, 72, 76
7, 82184, Note_on_c, 1, 72, 0
7, 82200, Note_on_c, 1, 74, 76
7, 82304, Note_on_c, 1, 74, 0
7, 82320, Note_on_c, 1, 76, 76
7, 82424, Note_on_c, 1, 76, 0
7, 82440, Note_on_c, 1, 77, 76
7, 82544, Note_on_c, 1, 77, 0
7, 82560, Note_on_c, 1, 79, 76
7, 83024, Note_on_c, 1, 79, 0
7, 83040, Note_on_c, 1, 81, 76
7, 83264, Note_on_c, 1, 81, 0
7, 83280, Note_on_c, 1, 77, 76
7, 83504, Note_on_c, 1, 77, 0
7, 83520, Note_on_c, 1, 74, 76
7, 83549, Note_on_c, 1, 74, 0
7, 83550, Note_on_c, 1, 76, 76
7, 83579, Note_on_c, 1, 76, 0
7, 83580, Note_on_c, 1, 74, 76
7, 83609, Note_on_c, 1, 74, 0
7, 83610, Note_on_c, 1, 76, 76
7, 83639, Note_on_c, 1, 76, 0
7, 83640, Note_on_c, 1, 74, 76
7, 83669, Note_on_c, 1, 74, 0
7, 83670, Note_on_c, 1, 76, 76
7, 83699, Note_on_c, 1, 76, 0
7, 83700, Note_on_c, 1, 72, 76
7, 83729, Note_on_c, 1, 72, 0
7, 83730, Note_on_c, 1, 74, 76
7, 83759, Note_on_c, 1, 74, 0
7, 83760, Note_on_c, 1, 72, 76
7, 83879, Note_on_c, 1, 72, 0
7, 83880, Note_on_c, 1, 71, 76
7, 83999, Note_on_c, 1, 71, 0
7, 84000, Note_on_c, 1, 69, 76
7, 84119, Note_on_c, 1, 69, 0
7, 84120, Note_on_c, 1, 67, 76
7, 84224, Note_on_c, 1, 67, 0
7, 84240, Note_on_c, 1, 72, 76
7, 84464, Note_on_c, 1, 72, 0
7, 84480, Note_on_c, 1, 76, 76
7, 84599, Note_on_c, 1, 76, 0
7, 84600, Note_on_c, 1, 74, 76
7, 84719, Note_on_c, 1, 74, 0
7, 84720, Note_on_c, 1, 72, 76
7, 84839, Note_on_c, 1, 72, 0
7, 84840, Note_on_c, 1, 71, 76
7, 84944, Note_on_c, 1, 71, 0
7, 84960, Note_on_c, 1, 74, 76
7, 85079, Note_on_c, 1, 74, 0
7, 85080, Note_on_c, 1, 72, 76
7, 85199, Note_on_c, 1, 72, 0
7, 85200, Note_on_c, 1, 71, 76
7, 85319, Note_on_c, 1, 71, 0
7, 85320, Note_on_c, 1, 69, 76
7, 85424, Note_on_c, 1, 69, 0
7, 85440, Note_on_c, 1, 74, 76
7, 85904, Note_on_c, 1, 74, 0
7, 85920, Note_on_c, 1, 72, 76
7, 86024, Note_on_c, 1, 72, 0
7, 86040, Note_on_c, 1, 71, 76
7, 86144, Note_on_c, 1, 71, 0
7, 86160, Note_on_c, 1, 69, 76
7, 86264, Note_on_c, 1, 69, 0
7, 86280, Note_on_c, 1, 71, 76
7, 86384, Note_on_c, 1, 71, 0
7, 86400, Note_on_c, 1, 67, 76
7, 86864, Note_on_c, 1, 67, 0
7, 86880, Note_on_c, 1, 67, 76
7, 87104, Note_on_c, 1, 67, 0
7, 87120, Note_on_c, 1, 72, 76
7, 87344, Note_on_c, 1, 72, 0
7, 87360, Note_on_c, 1, 76, 76
7, 87479, Note_on_c, 1, 76, 0
7, 87480, Note_on_c, 1, 74, 76
7, 87599, Note_on_c, 1, 74, 0
7, 87600, Note_on_c, 1, 72, 76
7, 87719, Note_on_c, 1, 72, 0
7, 87720, Note_on_c, 1, 71, 76
7, 87824, Note_on_c, 1, 71, 0
7, 87840, Note_on_c, 1, 72, 76
7, 87944, Note_on_c, 1, 72, 0
7, 87960, Note_on_c, 1, 74, 76
7, 88064, Note_on_c, 1, 74, 0
7, 88080, Note_on_c, 1, 76, 76
7, 88184, Note_on_c, 1, 76, 0
7, 88200, Note_on_c, 1, 77, 76
7, 88304, Note_on_c, 1, 77, 0
7, 88320, Note_on_c, 1, 79, 76
7, 88784, Note_on_c, 1, 79, 0
7, 88800, Note_on_c, 1, 81, 76
7, 89024, Note_on_c, 1, 81, 0
7, 89040, Note_on_c, 1, 77, 76
7, 89264, Note_on_c, 1, 77, 0
7, 89280, Note_on_c, 1, 74, 76
7, 89309, Note_on_c, 1, 74, 0
7, 89310, Note_on_c, 1, 76, 76
7, 89339, Note_on_c, 1, 76, 0
7, 89340, Note_on_c, 1, 74, 76
7, 89369, Note_on_c, 1, 74, 0
7, 89370, Note_on_c, 1, 76, 76
7, 89399, Note_on_c, 1, 76, 0
7, 89400, Note_on_c, 1, 74, 76
7, 89429, Note_on_c, 1, 74, 0
7, 89430, Note_on_c, 1, 76, 76
7, 89459, Note_on_c, 1, 76, 0
7, 89460, Note_on_c, 1, 72, 76
7, 89489, Note_on_c, 1, 72, 0
7, 89490, Note_on_c, 1, 74, 76
7, 89519, Note_on_c, 1, 74, 0
7, 89520, Note_on_c, 1, 72, 76
7, 89639, Note_on_c, 1, 72, 0
7, 89640, Note_on_c, 1, 71, 76
7, 89759, Note_on_c, 1, 71, 0
7, 89760, Note_on_c, 1, 69, 76
7, 89879, Note_on_c, 1, 69, 0
7, 89880, Note_on_c, 1, 67, 76
7, 89984, Note_on_c, 1, 67, 0
7, 90000, Note_on_c, 1, 72, 76
7, 90224, Note_on_c, 1, 72, 0
7, 90240, Note_on_c, 1, 76, 76
7, 90359, Note_on_c, 1, 76, 0
7, 90360, Note_on_c, 1, 74, 76
7, 90479, Note_on_c, 1, 74, 0
7, 90480, Note_on_c, 1, 72, 76
7, 90599, Note_on_c, 1, 72, 0
7, 90600, Note_on_c, 1, 71, 76
7, 90704, Note_on_c, 1, 71, 0
7, 90720, Note_on_c, 1, 74, 76
7, 90839, Note_on_c, 1, 74, 0
7, 90840, Note_on_c, 1, 72, 76
7, 90959, Note_on_c, 1, 72, 0
7, 90960, Note_on_c, 1, 71, 76
7, 91079, Note_on_c, 1, 71, 0
7, 91080, Note_on_c, 1, 69, 76
7, 91184, Note_on_c, 1, 69, 0
7, 91200, Note_on_c, 1, 74, 76
7, 91664, Note_on_c, 1, 74, 0
7, 91680, Note_on_c, 1, 72, 76
7, 91784, Note_on_c, 1, 72, 0
7, 91800, Note_on_c, 1, 71, 76
7, 91904, Note_on_c, 1, 71, 0
7, 91920, Note_on_c, 1, 69, 76
7, 92024, Note_on_c, 1, 69, 0
7, 92040, Note_on_c, 1, 71, 76
7, 92144, Note_on_c, 1, 71, 0
7, 92160, Note_on_c, 1, 67, 76
7, 92624, Note_on_c, 1, 67, 0
7, 92640, Note_on_c, 1, 74, 76
7, 92864, Note_on_c, 1, 74, 0
7, 92880, Note_on_c, 1, 71, 76
7, 93104, Note_on_c, 1, 71, 0
7, 93120, Note_on_c, 1, 72, 76
7, 93239, Note_on_c, 1, 72, 0
7, 93240, Note_on_c, 1, 71, 76
7, 93359, Note_on_c, 1, 71, 0
7, 93360, Note_on_c, 1, 69, 76
7, 93479, Note_on_c, 1, 69, 0
7, 93480, Note_on_c, 1, 67, 76
7, 93584, Note_on_c, 1, 67, 0
7, 93600, Note_on_c, 1, 76, 76
7, 93719, Note_on_c, 1, 76, 0
7, 93720, Note_on_c, 1, 77, 76
7, 93839, Note_on_c, 1, 77, 0
7, 93840, Note_on_c, 1, 79, 76
7, 93959, Note_on_c, 1, 79, 0
7, 93960, Note_on_c, 1, 81, 76
7, 94064, Note_on_c, 1, 81, 0
7, 94080, Note_on_c, 1, 82, 76
7, 94544, Note_on_c, 1, 82, 0
7, 94560, Note_on_c, 1, 81, 76
7, 94784, Note_on_c, 1, 81, 0
7, 94800, Note_on_c, 1, 79, 76
7, 95024, Note_on_c, 1, 79, 0
7, 95040, Note_on_c, 1, 77, 76
7, 95264, Note_on_c, 1, 77, 0
7, 95280, Note_on_c, 1, 79, 76
7, 95399, Note_on_c, 1, 79, 0
7, 95400, Note_on_c, 1, 77, 76
7, 95519, Note_on_c, 1, 77, 0
7, 95520, Note_on_c, 1, 76, 76
7, 95639, Note_on_c, 1, 76, 0
7, 95640, Note_on_c, 1, 74, 76
7, 95744, Note_on_c, 1, 74, 0
7, 95760, Note_on_c, 1, 73, 76
7, 95864, Note_on_c, 1, 73, 0
7, 95880, Note_on_c, 1, 74, 76
7, 95984, Note_on_c, 1, 74, 0
7, 96000, Note_on_c, 1, 76, 76
7, 96224, Note_on_c, 1, 76, 0
7, 96240, Note_on_c, 1, 81, 76
7, 96704, Note_on_c, 1, 81, 0
7, 96720, Note_on_c, 1, 79, 76
7, 96839, Note_on_c, 1, 79, 0
7, 96840, Note_on_c, 1, 77, 76
7, 96959, Note_on_c, 1, 77, 0
7, 96960, Note_on_c, 1, 76, 76
7, 97079, Note_on_c, 1, 76, 0
7, 97080, Note_on_c, 1, 74, 76
7, 97184, Note_on_c, 1, 74, 0
7, 97200, Note_on_c, 1, 73, 76
7, 97319, Note_on_c, 1, 73, 0
7, 97320, Note_on_c, 1, 74, 76
7, 97439, Note_on_c, 1, 74, 0
7, 97440, Note_on_c, 1, 76, 76
7, 97559, Note_on_c, 1, 76, 0
7, 97560, Note_on_c, 1, 77, 76
7, 97664, Note_on_c, 1, 77, 0
7, 97680, Note_on_c, 1, 79, 76
7, 98144, Note_on_c, 1, 79, 0
7, 98160, Note_on_c, 1, 77, 76
7, 98279, Note_on_c, 1, 77, 0
7, 98280, Note_on_c, 1, 76, 76
7, 98399, Note_on_c, 1, 76, 0
7, 98400, Note_on_c, 1, 74, 76
7, 98519, Note_on_c, 1, 74, 0
7, 98520, Note_on_c, 1, 73, 76
7, 98624, Note_on_c, 1, 73, 0
7, 98640, Note_on_c, 1, 74, 76
7, 98744, Note_on_c, 1, 74, 0
7, 98760, Note_on_c, 1, 69, 76
7, 98864, Note_on_c, 1, 69, 0
7, 98880, Note_on_c, 1, 77, 76
7, 98999, Note_on_c, 1, 77, 0
7, 99000, Note_on_c, 1, 76, 76
7, 99119, Note_on_c, 1, 76, 0
7, 99120, Note_on_c, 1, 74, 76
7, 99239, Note_on_c, 1, 74, 0
7, 99240, Note_on_c, 1, 72, 76
7, 99344, Note_on_c, 1, 72, 0
7, 99360, Note_on_c, 1, 70, 76
7, 99479, Note_on_c, 1, 70, 0
7, 99480, Note_on_c, 1, 74, 76
7, 99584, Note_on_c, 1, 74, 0
7, 99600, Note_on_c, 1, 79, 76
7, 99704, Note_on_c, 1, 79, 0
7, 99720, Note_on_c, 1, 76, 76
7, 99824, Note_on_c, 1, 76, 0
7, 99840, Note_on_c, 1, 77, 76
7, 100184, Note_on_c, 1, 77, 0
7, 100200, Note_on_c, 1, 74, 76
7, 100304, Note_on_c, 1, 74, 0
7, 100320, Note_on_c, 1, 77, 76
7, 100439, Note_on_c, 1, 77, 0
7, 100440, Note_on_c, 1, 76, 76
7, 100544, Note_on_c, 1, 76, 0
7, 100560, Note_on_c, 1, 74, 76
7, 100679, Note_on_c, 1, 74, 0
7, 100680, Note_on_c, 1, 73, 76
7, 100784, Note_on_c, 1, 73, 0
7, 100800, Note_on_c, 1, 74, 76
7, 101264, Note_on_c, 1, 74, 0
7, 101280, Note_on_c, 1, 69, 76
7, 101384, Note_on_c, 1, 69, 0
7, 101400, Note_on_c, 1, 71, 76
7, 101504, Note_on_c, 1, 71, 0
7, 101520, Note_on_c, 1, 72, 76
7, 101744, Note_on_c, 1, 72, 0
7, 101760, Note_on_c, 1, 74, 76
7, 101879, Note_on_c, 1, 74, 0
7, 101880, Note_on_c, 1, 72, 76
7, 101999, Note_on_c, 1, 72, 0
7, 102000, Note_on_c, 1, 71, 76
7, 102119, Note_on_c, 1, 71, 0
7, 102120, Note_on_c, 1, 69, 76
7, 102224, Note_on_c, 1, 69, 0
7, 102240, Note_on_c, 1, 71, 76
7, 102344, Note_on_c, 1, 71, 0
7, 102360, Note_on_c, 1, 69, 76
7, 102464, Note_on_c, 1, 69, 0
7, 102480, Note_on_c, 1, 67, 76
7, 102584, Note_on_c, 1, 67, 0
7, 102600, Note_on_c, 1, 69, 76
7, 102704, Note_on_c, 1, 69, 0
7, 102720, Note_on_c, 1, 71, 76
7, 102824, Note_on_c, 1, 71, 0
7, 102840, Note_on_c, 1, 72, 76
7, 102944, Note_on_c, 1, 72, 0
7, 102960, Note_on_c, 1, 74, 76
7, 103064, Note_on_c, 1, 74, 0
7, 103080, Note_on_c, 1, 76, 76
7, 103184, Note_on_c, 1, 76, 0
7, 103200, Note_on_c, 1, 77, 76
7, 103424, Note_on_c, 1, 77, 0
7, 103440, Note_on_c, 1, 76, 76
7, 103664, Note_on_c, 1, 76, 0
7, 103680, Note_on_c, 1, 74, 76
7, 103784, Note_on_c, 1, 74, 0
7, 103800, Note_on_c, 1, 72, 76
7, 103904, Note_on_c, 1, 72, 0
7, 103920, Note_on_c, 1, 71, 76
7, 104024, Note_on_c, 1, 71, 0
7, 104040, Note_on_c, 1, 72, 76
7, 104144, Note_on_c, 1, 72, 0
7, 104160, Note_on_c, 1, 74, 76
7, 104264, Note_on_c, 1, 74, 0
7, 104280, Note_on_c, 1, 76, 76
7, 104384, Note_on_c, 1, 76, 0
7, 104400, Note_on_c, 1, 77, 76
7, 104504, Note_on_c, 1, 77, 0
7, 104520, Note_on_c, 1, 79, 76
7, 104624, Note_on_c, 1, 79, 0
7, 104640, Note_on_c, 1, 81, 76
7, 104864, Note_on_c, 1, 81, 0
7, 104880, Note_on_c, 1, 79, 76
7, 105344, Note_on_c, 1, 79, 0
7, 105360, Note_on_c, 1, 70, 76
7, 105464, Note_on_c, 1, 70, 0
7, 105480, Note_on_c, 1, 69, 76
7, 105584, Note_on_c, 1, 69, 0
7, 105600, Note_on_c, 1, 70, 76
7, 105704, Note_on_c, 1, 70, 0
7, 105720, Note_on_c, 1, 67, 76
7, 105824, Note_on_c, 1, 67, 0
7, 105840, Note_on_c, 1, 69, 76
7, 106064, Note_on_c, 1, 69, 0
7, 106080, Note_on_c, 1, 74, 76
7, 106304, Note_on_c, 1, 74, 0
7, 106320, Note_on_c, 1, 71, 76
7, 106544, Note_on_c, 1, 71, 0
7, 106560, Note_on_c, 1, 72, 76
7, 107024, Note_on_c, 1, 72, 0
7, 107040, Note_on_c, 1, 74, 76
7, 107264, Note_on_c, 1, 74, 0
7, 107280, Note_on_c, 1, 71, 76
7, 107504, Note_on_c, 1, 71, 0
7, 107520, Note_on_c, 1, 72, 76
7, 107639, Note_on_c, 1, 72, 0
7, 107640, Note_on_c, 1, 71, 76
7, 107759, Note_on_c, 1, 71, 0
7, 107760, Note_on_c, 1, 69, 76
7, 107879, Note_on_c, 1, 69, 0
7, 107880, Note_on_c, 1, 67, 76
7, 107984, Note_on_c, 1, 67, 0
7, 108000, Note_on_c, 1, 76, 76
7, 108119, Note_on_c, 1, 76, 0
7, 108120, Note_on_c, 1, 77, 76
7, 108239, Note_on_c, 1, 77, 0
7, 108240, Note_on_c, 1, 79, 76
7, 108359, Note_on_c, 1, 79, 0
7, 108360, Note_on_c, 1, 81, 76
7, 108464, Note_on_c, 1, 81, 0
7, 108480, Note_on_c, 1, 82, 76
7, 108944, Note_on_c, 1, 82, 0
7, 108960, Note_on_c, 1, 81, 76
7, 109184, Note_on_c, 1, 81, 0
7, 109200, Note_on_c, 1, 79, 76
7, 109424, Note_on_c, 1, 79, 0
7, 109440, Note_on_c, 1, 77, 76
7, 109664, Note_on_c, 1, 77, 0
7, 109680, Note_on_c, 1, 79, 76
7, 109799, Note_on_c, 1, 79, 0
7, 109800, Note_on_c, 1, 77, 76
7, 109919, Note_on_c, 1, 77, 0
7, 109920, Note_on_c, 1, 76, 76
7, 110039, Note_on_c, 1, 76, 0
7, 110040, Note_on_c, 1, 74, 76
7, 110144, Note_on_c, 1, 74, 0
7, 110160, Note_on_c, 1, 73, 76
7, 110264, Note_on_c, 1, 73, 0
7, 110280, Note_on_c, 1, 74, 76
7, 110384, Note_on_c, 1, 74, 0
7, 110400, Note_on_c, 1, 76, 76
7, 110624, Note_on_c, 1, 76, 0
7, 110640, Note_on_c, 1, 81, 76
7, 111104, Note_on_c, 1, 81, 0
7, 111120, Note_on_c, 1, 79, 76
7, 111239, Note_on_c, 1, 79, 0
7, 111240, Note_on_c, 1, 77, 76
7, 111359, Note_on_c, 1, 77, 0
7, 111360, Note_on_c, 1, 76, 76
7, 111479, Note_on_c, 1, 76, 0
7, 111480, Note_on_c, 1, 74, 76
7, 111584, Note_on_c, 1, 74, 0
7, 111600, Note_on_c, 1, 73, 76
7, 111719, Note_on_c, 1, 73, 0
7, 111720, Note_on_c, 1, 74, 76
7, 111839, Note_on_c, 1, 74, 0
7, 111840, Note_on_c, 1, 76, 76
7, 111959, Note_on_c, 1, 76, 0
7, 111960, Note_on_c, 1, 77, 76
7, 112064, Note_on_c, 1, 77, 0
7, 112080, Note_on_c, 1, 79, 76
7, 112544, Note_on_c, 1, 79, 0
7, 112560, Note_on_c, 1, 77, 76
7, 112679, Note_on_c, 1, 77, 0
7, 112680, Note_on_c, 1, 76, 76
7, 112799, Note_on_c, 1, 76, 0
7, 112800, Note_on_c, 1, 74, 76
7, 112919, Note_on_c, 1, 74, 0
7, 112920, Note_on_c, 1, 73, 76
7, 113024, Note_on_c, 1, 73, 0
7, 113040, Note_on_c, 1, 74, 76
7, 113144, Note_on_c, 1, 74, 0
7, 113160, Note_on_c, 1, 69, 76
7, 113264, Note_on_c, 1, 69, 0
7, 113280, Note_on_c, 1, 77, 76
7, 113399, Note_on_c, 1, 77, 0
7, 113400, Note_on_c, 1, 76, 76
7, 113519, Note_on_c, 1, 76, 0
7, 113520, Note_on_c, 1, 74, 76
7, 113639, Note_on_c, 1, 74, 0
7, 113640, Note_on_c, 1, 72, 76
7, 113744, Note_on_c, 1, 72, 0
7, 113760, Note_on_c, 1, 70, 76
7, 113879, Note_on_c, 1, 70, 0
7, 113880, Note_on_c, 1, 74, 76
7, 113984, Note_on_c, 1, 74, 0
7, 114000, Note_on_c, 1, 79, 76
7, 114104, Note_on_c, 1, 79, 0
7, 114120, Note_on_c, 1, 76, 76
7, 114224, Note_on_c, 1, 76, 0
7, 114240, Note_on_c, 1, 77, 76
7, 114584, Note_on_c, 1, 77, 0
7, 114600, Note_on_c, 1, 74, 76
7, 114704, Note_on_c, 1, 74, 0
7, 114720, Note_on_c, 1, 77, 76
7, 114839, Note_on_c, 1, 77, 0
7, 114840, Note_on_c, 1, 76, 76
7, 114944, Note_on_c, 1, 76, 0
7, 114960, Note_on_c, 1, 74, 76
7, 115079, Note_on_c, 1, 74, 0
7, 115080, Note_on_c, 1, 73, 76
7, 115184, Note_on_c, 1, 73, 0
7, 115200, Note_on_c, 1, 74, 76
7, 115664, Note_on_c, 1, 74, 0
7, 115680, Note_on_c, 1, 69, 76
7, 115784, Note_on_c, 1, 69, 0
7, 115800, Note_on_c, 1, 71, 76
7, 115904, Note_on_c, 1, 71, 0
7, 115920, Note_on_c, 1, 72, 76
7, 116144, Note_on_c, 1, 72, 0
7, 116160, Note_on_c, 1, 74, 76
7, 116279, Note_on_c, 1, 74, 0
7, 116280, Note_on_c, 1, 72, 76
7, 116399, Note_on_c, 1, 72, 0
7, 116400, Note_on_c, 1, 71, 76
7, 116519, Note_on_c, 1, 71, 0
7, 116520, Note_on_c, 1, 69, 76
7, 116624, Note_on_c, 1, 69, 0
7, 116640, Note_on_c, 1, 71, 76
7, 116744, Note_on_c, 1, 71, 0
7, 116760, Note_on_c, 1, 69, 76
7, 116864, Note_on_c, 1, 69, 0
7, 116880, Note_on_c, 1, 67, 76
7, 116984, Note_on_c, 1, 67, 0
7, 117000, Note_on_c, 1, 69, 76
7, 117104, Note_on_c, 1, 69, 0
7, 117120, Note_on_c, 1, 71, 76
7, 117224, Note_on_c, 1, 71, 0
7, 117240, Note_on_c, 1, 72, 76
7, 117344, Note_on_c, 1, 72, 0
7, 117360, Note_on_c, 1, 74, 76
7, 117464, Note_on_c, 1, 74, 0
7, 117480, Note_on_c, 1, 76, 76
7, 117584, Note_on_c, 1, 76, 0
7, 117600, Note_on_c, 1, 77, 76
7, 117824, Note_on_c, 1, 77, 0
7, 117840, Note_on_c, 1, 76, 76
7, 118064, Note_on_c, 1, 76, 0
7, 118080, Note_on_c, 1, 74, 76
7, 118184, Note_on_c, 1, 74, 0
7, 118200, Note_on_c, 1, 72, 76
7, 118304, Note_on_c, 1, 72, 0
7, 118320, Note_on_c, 1, 71, 76
7, 118424, Note_on_c, 1, 71, 0
7, 118440, Note_on_c, 1, 72, 76
7, 118544, Note_on_c, 1, 72, 0
7, 118560, Note_on_c, 1, 74, 76
7, 118664, Note_on_c, 1, 74, 0
7, 118680, Note_on_c, 1, 76, 76
7, 118784, Note_on_c, 1, 76, 0
7, 118800, Note_on_c, 1, 77, 76
7, 118904, Note_on_c, 1, 77, 0
7, 118920, Note_on_c, 1, 79, 76
7, 119024, Note_on_c, 1, 79, 0
7, 119040, Note_on_c, 1, 81, 76
7, 119264, Note_on_c, 1, 81, 0
7, 119280, Note_on_c, 1, 79, 76
7, 119744, Note_on_c, 1, 79, 0
7, 119760, Note_on_c, 1, 70, 76
7, 119864, Note_on_c, 1, 70, 0
7, 119880, Note_on_c, 1, 69, 76
7, 119984, Note_on_c, 1, 69, 0
7, 120000, Note_on_c, 1, 70, 76
7, 120104, Note_on_c, 1, 70, 0
7, 120120, Note_on_c, 1, 67, 76
7, 120224, Note_on_c, 1, 67, 0
7, 120240, Note_on_c, 1, 69, 76
7, 120464, Note_on_c, 1, 69, 0
7, 120480, Note_on_c, 1, 74, 76
7, 120704, Note_on_c, 1, 74, 0
7, 120720, Note_on_c, 1, 71, 76
7, 120944, Note_on_c, 1, 71, 0
7, 120960, Note_on_c, 1, 72, 76
7, 121439, Note_on_c, 1, 72, 0
7, 121439, End_track
8, 0, Start_track
8, 0, Title_t, "Bassoon"
8, 0, MIDI_port, 0
8, 0, Program_c, 2, 70
8, 0, Control_c, 2, 10, 75
8, 0, Control_c, 2, 11, 127
8, 0, Control_c, 2, 7, 96
8, 0, Note_on_c, 2, 48, 76
8, 224, Note_on_c, 2, 48, 0
8, 240, Note_on_c, 2, 60, 76
8, 464, Note_on_c, 2, 60, 0
8, 480, Note_on_c, 2, 48, 76
8, 704, Note_on_c, 2, 48, 0
8, 720, Note_on_c, 2, 59, 76
8, 944, Note_on_c, 2, 59, 0
8, 960, Note_on_c, 2, 57, 76
8, 1184, Note_on_c, 2, 57, 0
8, 1200, Note_on_c, 2, 55, 76
8, 1424, Note_on_c, 2, 55, 0
8, 1440, Note_on_c, 2, 53, 76
8, 1664, Note_on_c, 2, 53, 0
8, 1680, Note_on_c, 2, 52, 76
8, 1904, Note_on_c, 2, 52, 0
8, 1920, Note_on_c, 2, 53, 76
8, 2144, Note_on_c, 2, 53, 0
8, 2160, Note_on_c, 2, 50, 76
8, 2384, Note_on_c, 2, 50, 0
8, 2400, Note_on_c, 2, 55, 76
8, 2624, Note_on_c, 2, 55, 0
8, 2640, Note_on_c, 2, 43, 76
8, 2864, Note_on_c, 2, 43, 0
8, 2880, Note_on_c, 2, 53, 76
8, 3104, Note_on_c, 2, 53, 0
8, 3120, Note_on_c, 2, 52, 76
8, 3344, Note_on_c, 2, 52, 0
8, 3360, Note_on_c, 2, 60, 76
8, 3584, Note_on_c, 2, 60, 0
8, 3600, Note_on_c, 2, 59, 76
8, 3824, Note_on_c, 2, 59, 0
8, 3840, Note_on_c, 2, 57, 76
8, 4064, Note_on_c, 2, 57, 0
8, 4080, Note_on_c, 2, 55, 76
8, 4304, Note_on_c, 2, 55, 0
8, 4320, Note_on_c, 2, 54, 76
8, 4544, Note_on_c, 2, 54, 0
8, 4560, Note_on_c, 2, 55, 76
8, 4784, Note_on_c, 2, 55, 0
8, 4800, Note_on_c, 2, 47, 76
8, 5024, Note_on_c, 2, 47, 0
8, 5040, Note_on_c, 2, 50, 76
8, 5264, Note_on_c, 2, 50, 0
8, 5280, Note_on_c, 2, 43, 76
8, 5504, Note_on_c, 2, 43, 0
8, 5520, Note_on_c, 2, 55, 76
8, 5624, Note_on_c, 2, 55, 0
8, 5640, Note_on_c, 2, 53, 76
8, 5744, Note_on_c, 2, 53, 0
8, 5760, Note_on_c, 2, 52, 76
8, 5864, Note_on_c, 2, 52, 0
8, 5880, Note_on_c, 2, 50, 76
8, 5984, Note_on_c, 2, 50, 0
8, 6000, Note_on_c, 2, 48, 76
8, 6224, Note_on_c, 2, 48, 0
8, 6240, Note_on_c, 2, 60, 76
8, 6464, Note_on_c, 2, 60, 0
8, 6480, Note_on_c, 2, 59, 76
8, 6704, Note_on_c, 2, 59, 0
8, 6720, Note_on_c, 2, 57, 76
8, 6944, Note_on_c, 2, 57, 0
8, 6960, Note_on_c, 2, 55, 76
8, 7184, Note_on_c, 2, 55, 0
8, 7200, Note_on_c, 2, 53, 76
8, 7424, Note_on_c, 2, 53, 0
8, 7440, Note_on_c, 2, 52, 76
8, 7664, Note_on_c, 2, 52, 0
8, 7680, Note_on_c, 2, 53, 76
8, 7904, Note_on_c, 2, 53, 0
8, 7920, Note_on_c, 2, 50, 76
8, 8144, Note_on_c, 2, 50, 0
8, 8160, Note_on_c, 2, 55, 76
8, 8384, Note_on_c, 2, 55, 0
8, 8400, Note_on_c, 2, 43, 76
8, 8624, Note_on_c, 2, 43, 0
8, 8640, Note_on_c, 2, 53, 76
8, 8864, Note_on_c, 2, 53, 0
8, 8880, Note_on_c, 2, 52, 76
8, 9104, Note_on_c, 2, 52, 0
8, 9120, Note_on_c, 2, 60, 76
8, 9344, Note_on_c, 2, 60, 0
8, 9360, Note_on_c, 2, 59, 76
8, 9584, Note_on_c, 2, 59, 0
8, 9600, Note_on_c, 2, 57, 76
8, 9824, Note_on_c, 2, 57, 0
8, 9840, Note_on_c, 2, 55, 76
8, 10064, Note_on_c, 2, 55, 0
8, 10080, Note_on_c, 2, 54, 76
8, 10304, Note_on_c, 2, 54, 0
8, 10320, Note_on_c, 2, 55, 76
8, 10544, Note_on_c, 2, 55, 0
8, 10560, Note_on_c, 2, 47, 76
8, 10784, Note_on_c, 2, 47, 0
8, 10800, Note_on_c, 2, 50, 76
8, 11024, Note_on_c, 2, 50, 0
8, 11040, Note_on_c, 2, 43, 76
8, 11504, Note_on_c, 2, 43, 0
8, 11520, Note_on_c, 2, 43, 76
8, 11744, Note_on_c, 2, 43, 0
8, 11760, Note_on_c, 2, 55, 76
8, 11984, Note_on_c, 2, 55, 0
8, 12000, Note_on_c, 2, 57, 76
8, 12224, Note_on_c, 2, 57, 0
8, 12240, Note_on_c, 2, 59, 76
8, 12464, Note_on_c, 2, 59, 0
8, 12480, Note_on_c, 2, 60, 76
8, 12704, Note_on_c, 2, 60, 0
8, 12720, Note_on_c, 2, 48, 76
8, 12944, Note_on_c, 2, 48, 0
8, 12960, Note_on_c, 2, 50, 76
8, 13184, Note_on_c, 2, 50, 0
8, 13200, Note_on_c, 2, 52, 76
8, 13424, Note_on_c, 2, 52, 0
8, 13440, Note_on_c, 2, 49, 76
8, 13664, Note_on_c, 2, 49, 0
8, 13680, Note_on_c, 2, 45, 76
8, 13904, Note_on_c, 2, 45, 0
8, 13920, Note_on_c, 2, 50, 76
8, 14144, Note_on_c, 2, 50, 0
8, 14160, Note_on_c, 2, 48, 76
8, 14384, Note_on_c, 2, 48, 0
8, 14400, Note_on_c, 2, 46, 76
8, 14624, Note_on_c, 2, 46, 0
8, 14640, Note_on_c, 2, 45, 76
8, 14864, Note_on_c, 2, 45, 0
8, 14880, Note_on_c, 2, 49, 76
8, 15104, Note_on_c, 2, 49, 0
8, 15120, Note_on_c, 2, 52, 76
8, 15344, Note_on_c, 2, 52, 0
8, 15360, Note_on_c, 2, 55, 76
8, 15839, Note_on_c, 2, 55, 0
8, 16080, Note_on_c, 2, 55, 76
8, 16304, Note_on_c, 2, 55, 0
8, 16320, Note_on_c, 2, 52, 76
8, 16544, Note_on_c, 2, 52, 0
8, 16560, Note_on_c, 2, 49, 76
8, 16784, Note_on_c, 2, 49, 0
8, 16800, Note_on_c, 2, 45, 76
8, 17279, Note_on_c, 2, 45, 0
8, 17520, Note_on_c, 2, 46, 76
8, 17744, Note_on_c, 2, 46, 0
8, 17760, Note_on_c, 2, 58, 76
8, 17984, Note_on_c, 2, 58, 0
8, 18000, Note_on_c, 2, 57, 76
8, 18224, Note_on_c, 2, 57, 0
8, 18240, Note_on_c, 2, 55, 76
8, 18464, Note_on_c, 2, 55, 0
8, 18480, Note_on_c, 2, 49, 76
8, 18704, Note_on_c, 2, 49, 0
8, 18720, Note_on_c, 2, 50, 76
8, 18944, Note_on_c, 2, 50, 0
8, 18960, Note_on_c, 2, 46, 76
8, 19184, Note_on_c, 2, 46, 0
8, 19200, Note_on_c, 2, 43, 76
8, 19424, Note_on_c, 2, 43, 0
8, 19440, Note_on_c, 2, 45, 76
8, 19664, Note_on_c, 2, 45, 0
8, 19680, Note_on_c, 2, 50, 76
8, 19904, Note_on_c, 2, 50, 0
8, 19920, Note_on_c, 2, 38, 76
8, 20144, Note_on_c, 2, 38, 0
8, 20160, Note_on_c, 2, 50, 76
8, 20384, Note_on_c, 2, 50, 0
8, 20400, Note_on_c, 2, 52, 76
8, 20624, Note_on_c, 2, 52, 0
8, 20640, Note_on_c, 2, 54, 76
8, 20864, Note_on_c, 2, 54, 0
8, 20880, Note_on_c, 2, 50, 76
8, 21104, Note_on_c, 2, 50, 0
8, 21120, Note_on_c, 2, 55, 76
8, 21344, Note_on_c, 2, 55, 0
8, 21360, Note_on_c, 2, 43, 76
8, 21584, Note_on_c, 2, 43, 0
8, 21600, Note_on_c, 2, 45, 76
8, 21824, Note_on_c, 2, 45, 0
8, 21840, Note_on_c, 2, 47, 76
8, 22064, Note_on_c, 2, 47, 0
8, 22080, Note_on_c, 2, 43, 76
8, 22304, Note_on_c, 2, 43, 0
8, 22320, Note_on_c, 2, 48, 76
8, 22544, Note_on_c, 2, 48, 0
8, 22560, Note_on_c, 2, 43, 76
8, 23024, Note_on_c, 2, 43, 0
8, 23040, Note_on_c, 2, 55, 76
8, 23264, Note_on_c, 2, 55, 0
8, 23280, Note_on_c, 2, 57, 76
8, 23384, Note_on_c, 2, 57, 0
8, 23400, Note_on_c, 2, 55, 76
8, 23504, Note_on_c, 2, 55, 0
8, 23520, Note_on_c, 2, 53, 76
8, 23624, Note_on_c, 2, 53, 0
8, 23640, Note_on_c, 2, 52, 76
8, 23744, Note_on_c, 2, 52, 0
8, 23760, Note_on_c, 2, 53, 76
8, 23864, Note_on_c, 2, 53, 0
8, 23880, Note_on_c, 2, 50, 76
8, 23984, Note_on_c, 2, 50, 0
8, 24000, Note_on_c, 2, 52, 76
8, 24224, Note_on_c, 2, 52, 0
8, 24240, Note_on_c, 2, 50, 76
8, 24464, Note_on_c, 2, 50, 0
8, 24480, Note_on_c, 2, 48, 76
8, 24704, Note_on_c, 2, 48, 0
8, 24720, Note_on_c, 2, 53, 76
8, 24944, Note_on_c, 2, 53, 0
8, 24960, Note_on_c, 2, 50, 76
8, 25184, Note_on_c, 2, 50, 0
8, 25200, Note_on_c, 2, 55, 76
8, 25424, Note_on_c, 2, 55, 0
8, 25440, Note_on_c, 2, 48, 76
8, 25904, Note_on_c, 2, 48, 0
8, 25920, Note_on_c, 2, 43, 76
8, 26144, Note_on_c, 2, 43, 0
8, 26160, Note_on_c, 2, 55, 76
8, 26384, Note_on_c, 2, 55, 0
8, 26400, Note_on_c, 2, 57, 76
8, 26624, Note_on_c, 2, 57, 0
8, 26640, Note_on_c, 2, 59, 76
8, 26864, Note_on_c, 2, 59, 0
8, 26880, Note_on_c, 2, 60, 76
8, 27104, Note_on_c, 2, 60, 0
8, 27120, Note_on_c, 2, 48, 76
8, 27344, Note_on_c, 2, 48, 0
8, 27360, Note_on_c, 2, 50, 76
8, 27584, Note_on_c, 2, 50, 0
8, 27600, Note_on_c, 2, 52, 76
8, 27824, Note_on_c, 2, 52, 0
8, 27840, Note_on_c, 2, 49, 76
8, 28064, Note_on_c, 2, 49, 0
8, 28080, Note_on_c, 2, 45, 76
8, 28304, Note_on_c, 2, 45, 0
8, 28320, Note_on_c, 2, 50, 76
8, 28544, Note_on_c, 2, 50, 0
8, 28560, Note_on_c, 2, 48, 76
8, 28784, Note_on_c, 2, 48, 0
8, 28800, Note_on_c, 2, 46, 76
8, 29024, Note_on_c, 2, 46, 0
8, 29040, Note_on_c, 2, 45, 76
8, 29264, Note_on_c, 2, 45, 0
8, 29280, Note_on_c, 2, 49, 76
8, 29504, Note_on_c, 2, 49, 0
8, 29520, Note_on_c, 2, 52, 76
8, 29744, Note_on_c, 2, 52, 0
8, 29760, Note_on_c, 2, 55, 76
8, 30239, Note_on_c, 2, 55, 0
8, 30480, Note_on_c, 2, 55, 76
8, 30704, Note_on_c, 2, 55, 0
8, 30720, Note_on_c, 2, 52, 76
8, 30944, Note_on_c, 2, 52, 0
8, 30960, Note_on_c, 2, 49, 76
8, 31184, Note_on_c, 2, 49, 0
8, 31200, Note_on_c, 2, 45, 76
8, 31679, Note_on_c, 2, 45, 0
8, 31920, Note_on_c, 2, 46, 76
8, 32144, Note_on_c, 2, 46, 0
8, 32160, Note_on_c, 2, 58, 76
8, 32384, Note_on_c, 2, 58, 0
8, 32400, Note_on_c, 2, 57, 76
8, 32624, Note_on_c, 2, 57, 0
8, 32640, Note_on_c, 2, 55, 76
8, 32864, Note_on_c, 2, 55, 0
8, 32880, Note_on_c, 2, 49, 76
8, 33104, Note_on_c, 2, 49, 0
8, 33120, Note_on_c, 2, 50, 76
8, 33344, Note_on_c, 2, 50, 0
8, 33360, Note_on_c, 2, 46, 76
8, 33584, Note_on_c, 2, 46, 0
8, 33600, Note_on_c, 2, 43, 76
8, 33824, Note_on_c, 2, 43, 0
8, 33840, Note_on_c, 2, 45, 76
8, 34064, Note_on_c, 2, 45, 0
8, 34080, Note_on_c, 2, 50, 76
8, 34304, Note_on_c, 2, 50, 0
8, 34320, Note_on_c, 2, 38, 76
8, 34544, Note_on_c, 2, 38, 0
8, 34560, Note_on_c, 2, 50, 76
8, 34784, Note_on_c, 2, 50, 0
8, 34800, Note_on_c, 2, 52, 76
8, 35024, Note_on_c, 2, 52, 0
8, 35040, Note_on_c, 2, 54, 76
8, 35264, Note_on_c, 2, 54, 0
8, 35280, Note_on_c, 2, 50, 76
8, 35504, Note_on_c, 2, 50, 0
8, 35520, Note_on_c, 2, 55, 76
8, 35744, Note_on_c, 2, 55, 0
8, 35760, Note_on_c, 2, 43, 76
8, 35984, Note_on_c, 2, 43, 0
8, 36000, Note_on_c, 2, 45, 76
8, 36224, Note_on_c, 2, 45, 0
8, 36240, Note_on_c, 2, 47, 76
8, 36464, Note_on_c, 2, 47, 0
8, 36480, Note_on_c, 2, 43, 76
8, 36704, Note_on_c, 2, 43, 0
8, 36720, Note_on_c, 2, 48, 76
8, 36944, Note_on_c, 2, 48, 0
8, 36960, Note_on_c, 2, 43, 76
8, 37424, Note_on_c, 2, 43, 0
8, 37440, Note_on_c, 2, 55, 76
8, 37664, Note_on_c, 2, 55, 0
8, 37680, Note_on_c, 2, 57, 76
8, 37784, Note_on_c, 2, 57, 0
8, 37800, Note_on_c, 2, 55, 76
8, 37904, Note_on_c, 2, 55, 0
8, 37920, Note_on_c, 2, 53, 76
8, 38024, Note_on_c, 2, 53, 0
8, 38040, Note_on_c, 2, 52, 76
8, 38144, Note_on_c, 2, 52, 0
8, 38160, Note_on_c, 2, 53, 76
8, 38264, Note_on_c, 2, 53, 0
8, 38280, Note_on_c, 2, 50, 76
8, 38384, Note_on_c, 2, 50, 0
8, 38400, Note_on_c, 2, 52, 76
8, 38624, Note_on_c, 2, 52, 0
8, 38640, Note_on_c, 2, 50, 76
8, 38864, Note_on_c, 2, 50, 0
8, 38880, Note_on_c, 2, 48, 76
8, 39104, Note_on_c, 2, 48, 0
8, 39120, Note_on_c, 2, 53, 76
8, 39344, Note_on_c, 2, 53, 0
8, 39360, Note_on_c, 2, 50, 76
8, 39584, Note_on_c, 2, 50, 0
8, 39600, Note_on_c, 2, 55, 76
8, 39824, Note_on_c, 2, 55, 0
8, 39840, Note_on_c, 2, 48, 76
8, 40319, Note_on_c, 2, 48, 0
8, 40800, Note_on_c, 2, 60, 68
8, 41039, Note_on_c, 2, 60, 0
8, 41040, Note_on_c, 2, 60, 68
8, 41279, Note_on_c, 2, 60, 0
8, 41280, Note_on_c, 2, 60, 68
8, 41504, Note_on_c, 2, 60, 0
8, 41520, Note_on_c, 2, 57, 68
8, 41759, Note_on_c, 2, 57, 0
8, 41760, Note_on_c, 2, 57, 68
8, 41999, Note_on_c, 2, 57, 0
8, 42000, Note_on_c, 2, 57, 68
8, 42224, Note_on_c, 2, 57, 0
8, 42240, Note_on_c, 2, 53, 68
8, 42479, Note_on_c, 2, 53, 0
8, 42480, Note_on_c, 2, 53, 68
8, 42719, Note_on_c, 2, 53, 0
8, 42720, Note_on_c, 2, 53, 68
8, 42944, Note_on_c, 2, 53, 0
8, 42960, Note_on_c, 2, 55, 68
8, 43199, Note_on_c, 2, 55, 0
8, 43200, Note_on_c, 2, 57, 68
8, 43439, Note_on_c, 2, 57, 0
8, 43440, Note_on_c, 2, 59, 68
8, 43664, Note_on_c, 2, 59, 0
8, 43680, Note_on_c, 2, 60, 68
8, 43919, Note_on_c, 2, 60, 0
8, 43920, Note_on_c, 2, 60, 68
8, 44159, Note_on_c, 2, 60, 0
8, 44160, Note_on_c, 2, 60, 68
8, 44384, Note_on_c, 2, 60, 0
8, 44400, Note_on_c, 2, 48, 68
8, 44639, Note_on_c, 2, 48, 0
8, 44640, Note_on_c, 2, 48, 68
8, 44879, Note_on_c, 2, 48, 0
8, 44880, Note_on_c, 2, 48, 68
8, 45104, Note_on_c, 2, 48, 0
8, 45120, Note_on_c, 2, 47, 68
8, 45359, Note_on_c, 2, 47, 0
8, 45360, Note_on_c, 2, 48, 68
8, 45599, Note_on_c, 2, 48, 0
8, 45600, Note_on_c, 2, 50, 68
8, 45824, Note_on_c, 2, 50, 0
8, 45840, Note_on_c, 2, 43, 68
8, 46319, Note_on_c, 2, 43, 0
8, 46560, Note_on_c, 2, 60, 68
8, 46799, Note_on_c, 2, 60, 0
8, 46800, Note_on_c, 2, 60, 68
8, 47039, Note_on_c, 2, 60, 0
8, 47040, Note_on_c, 2, 60, 68
8, 47264, Note_on_c, 2, 60, 0
8, 47280, Note_on_c, 2, 57, 68
8, 47519, Note_on_c, 2, 57, 0
8, 47520, Note_on_c, 2, 57, 68
8, 47759, Note_on_c, 2, 57, 0
8, 47760, Note_on_c, 2, 57, 68
8, 47984, Note_on_c, 2, 57, 0
8, 48000, Note_on_c, 2, 53, 68
8, 48239, Note_on_c, 2, 53, 0
8, 48240, Note_on_c, 2, 53, 68
8, 48479, Note_on_c, 2, 53, 0
8, 48480, Note_on_c, 2, 53, 68
8, 48704, Note_on_c, 2, 53, 0
8, 48720, Note_on_c, 2, 55, 68
8, 48959, Note_on_c, 2, 55, 0
8, 48960, Note_on_c, 2, 57, 68
8, 49199, Note_on_c, 2, 57, 0
8, 49200, Note_on_c, 2, 59, 68
8, 49424, Note_on_c, 2, 59, 0
8, 49440, Note_on_c, 2, 60, 68
8, 49679, Note_on_c, 2, 60, 0
8, 49680, Note_on_c, 2, 60, 68
8, 49919, Note_on_c, 2, 60, 0
8, 49920, Note_on_c, 2, 60, 68
8, 50144, Note_on_c, 2, 60, 0
8, 50160, Note_on_c, 2, 48, 68
8, 50399, Note_on_c, 2, 48, 0
8, 50400, Note_on_c, 2, 48, 68
8, 50639, Note_on_c, 2, 48, 0
8, 50640, Note_on_c, 2, 48, 68
8, 50864, Note_on_c, 2, 48, 0
8, 50880, Note_on_c, 2, 47, 68
8, 51119, Note_on_c, 2, 47, 0
8, 51120, Note_on_c, 2, 48, 68
8, 51359, Note_on_c, 2, 48, 0
8, 51360, Note_on_c, 2, 50, 68
8, 51584, Note_on_c, 2, 50, 0
8, 51600, Note_on_c, 2, 43, 68
8, 52079, Note_on_c, 2, 43, 0
8, 52320, Note_on_c, 2, 43, 68
8, 52559, Note_on_c, 2, 43, 0
8, 52560, Note_on_c, 2, 43, 68
8, 52799, Note_on_c, 2, 43, 0
8, 52800, Note_on_c, 2, 43, 68
8, 53024, Note_on_c, 2, 43, 0
8, 53040, Note_on_c, 2, 55, 68
8, 53279, Note_on_c, 2, 55, 0
8, 53280, Note_on_c, 2, 55, 68
8, 53519, Note_on_c, 2, 55, 0
8, 53520, Note_on_c, 2, 55, 68
8, 53744, Note_on_c, 2, 55, 0
8, 53760, Note_on_c, 2, 49, 68
8, 53999, Note_on_c, 2, 49, 0
8, 54000, Note_on_c, 2, 49, 68
8, 54239, Note_on_c, 2, 49, 0
8, 54240, Note_on_c, 2, 49, 68
8, 54464, Note_on_c, 2, 49, 0
8, 54480, Note_on_c, 2, 50, 68
8, 54719, Note_on_c, 2, 50, 0
8, 54720, Note_on_c, 2, 48, 68
8, 54959, Note_on_c, 2, 48, 0
8, 54960, Note_on_c, 2, 46, 68
8, 55184, Note_on_c, 2, 46, 0
8, 55200, Note_on_c, 2, 45, 68
8, 55439, Note_on_c, 2, 45, 0
8, 55440, Note_on_c, 2, 45, 68
8, 55679, Note_on_c, 2, 45, 0
8, 55680, Note_on_c, 2, 45, 68
8, 55904, Note_on_c, 2, 45, 0
8, 55920, Note_on_c, 2, 55, 68
8, 56159, Note_on_c, 2, 55, 0
8, 56160, Note_on_c, 2, 55, 68
8, 56399, Note_on_c, 2, 55, 0
8, 56400, Note_on_c, 2, 55, 68
8, 56624, Note_on_c, 2, 55, 0
8, 56640, Note_on_c, 2, 52, 68
8, 56879, Note_on_c, 2, 52, 0
8, 56880, Note_on_c, 2, 52, 68
8, 57119, Note_on_c, 2, 52, 0
8, 57120, Note_on_c, 2, 52, 68
8, 57344, Note_on_c, 2, 52, 0
8, 57360, Note_on_c, 2, 49, 68
8, 57599, Note_on_c, 2, 49, 0
8, 57600, Note_on_c, 2, 47, 68
8, 57839, Note_on_c, 2, 47, 0
8, 57840, Note_on_c, 2, 45, 68
8, 58064, Note_on_c, 2, 45, 0
8, 58080, Note_on_c, 2, 50, 68
8, 58319, Note_on_c, 2, 50, 0
8, 58320, Note_on_c, 2, 52, 68
8, 58559, Note_on_c, 2, 52, 0
8, 58560, Note_on_c, 2, 53, 68
8, 58784, Note_on_c, 2, 53, 0
8, 58800, Note_on_c, 2, 55, 68
8, 59039, Note_on_c, 2, 55, 0
8, 59040, Note_on_c, 2, 55, 68
8, 59279, Note_on_c, 2, 55, 0
8, 59280, Note_on_c, 2, 55, 68
8, 59504, Note_on_c, 2, 55, 0
8, 59520, Note_on_c, 2, 57, 68
8, 59759, Note_on_c, 2, 57, 0
8, 59760, Note_on_c, 2, 57, 68
8, 59999, Note_on_c, 2, 57, 0
8, 60000, Note_on_c, 2, 57, 68
8, 60224, Note_on_c, 2, 57, 0
8, 60240, Note_on_c, 2, 50, 68
8, 60464, Note_on_c, 2, 50, 0
8, 60480, Note_on_c, 2, 53, 68
8, 60704, Note_on_c, 2, 53, 0
8, 60720, Note_on_c, 2, 57, 68
8, 60944, Note_on_c, 2, 57, 0
8, 60960, Note_on_c, 2, 54, 68
8, 61199, Note_on_c, 2, 54, 0
8, 61200, Note_on_c, 2, 54, 68
8, 61439, Note_on_c, 2, 54, 0
8, 61440, Note_on_c, 2, 54, 68
8, 61664, Note_on_c, 2, 54, 0
8, 61680, Note_on_c, 2, 53, 68
8, 61919, Note_on_c, 2, 53, 0
8, 61920, Note_on_c, 2, 53, 68
8, 62159, Note_on_c, 2, 53, 0
8, 62160, Note_on_c, 2, 53, 68
8, 62384, Note_on_c, 2, 53, 0
8, 62400, Note_on_c, 2, 47, 68
8, 62639, Note_on_c, 2, 47, 0
8, 62640, Note_on_c, 2, 47, 68
8, 62879, Note_on_c, 2, 47, 0
8, 62880, Note_on_c, 2, 48, 68
8, 63104, Note_on_c, 2, 48, 0
8, 63120, Note_on_c, 2, 55, 68
8, 63359, Note_on_c, 2, 55, 0
8, 63360, Note_on_c, 2, 53, 68
8, 63599, Note_on_c, 2, 53, 0
8, 63600, Note_on_c, 2, 52, 68
8, 63824, Note_on_c, 2, 52, 0
8, 63840, Note_on_c, 2, 50, 68
8, 64079, Note_on_c, 2, 50, 0
8, 64080, Note_on_c, 2, 48, 68
8, 64319, Note_on_c, 2, 48, 0
8, 64320, Note_on_c, 2, 46, 68
8, 64544, Note_on_c, 2, 46, 0
8, 64560, Note_on_c, 2, 40, 68
8, 64799, Note_on_c, 2, 40, 0
8, 64800, Note_on_c, 2, 40, 68
8, 65039, Note_on_c, 2, 40, 0
8, 65040, Note_on_c, 2, 40, 68
8, 65264, Note_on_c, 2, 40, 0
8, 65280, Note_on_c, 2, 41, 68
8, 65504, Note_on_c, 2, 41, 0
8, 65520, Note_on_c, 2, 38, 68
8, 65744, Note_on_c, 2, 38, 0
8, 65760, Note_on_c, 2, 43, 68
8, 65984, Note_on_c, 2, 43, 0
8, 66000, Note_on_c, 2, 36, 68
8, 66479, Note_on_c, 2, 36, 0
8, 66720, Note_on_c, 2, 43, 68
8, 66959, Note_on_c, 2, 43, 0
8, 66960, Note_on_c, 2, 43, 68
8, 67199, Note_on_c, 2, 43, 0
8, 67200, Note_on_c, 2, 43, 68
8, 67424, Note_on_c, 2, 43, 0
8, 67440, Note_on_c, 2, 55, 68
8, 67679, Note_on_c, 2, 55, 0
8, 67680, Note_on_c, 2, 55, 68
8, 67919, Note_on_c, 2, 55, 0
8, 67920, Note_on_c, 2, 55, 68
8, 68144, Note_on_c, 2, 55, 0
8, 68160, Note_on_c, 2, 49, 68
8, 68399, Note_on_c, 2, 49, 0
8, 68400, Note_on_c, 2, 49, 68
8, 68639, Note_on_c, 2, 49, 0
8, 68640, Note_on_c, 2, 49, 68
8, 68864, Note_on_c, 2, 49, 0
8, 68880, Note_on_c, 2, 50, 68
8, 69119, Note_on_c, 2, 50, 0
8, 69120, Note_on_c, 2, 48, 68
8, 69359, Note_on_c, 2, 48, 0
8, 69360, Note_on_c, 2, 46, 68
8, 69584, Note_on_c, 2, 46, 0
8, 69600, Note_on_c, 2, 45, 68
8, 69839, Note_on_c, 2, 45, 0
8, 69840, Note_on_c, 2, 45, 68
8, 70079, Note_on_c, 2, 45, 0
8, 70080, Note_on_c, 2, 45, 68
8, 70304, Note_on_c, 2, 45, 0
8, 70320, Note_on_c, 2, 55, 68
8, 70559, Note_on_c, 2, 55, 0
8, 70560, Note_on_c, 2, 55, 68
8, 70799, Note_on_c, 2, 55, 0
8, 70800, Note_on_c, 2, 55, 68
8, 71024, Note_on_c, 2, 55, 0
8, 71040, Note_on_c, 2, 52, 68
8, 71279, Note_on_c, 2, 52, 0
8, 71280, Note_on_c, 2, 52, 68
8, 71519, Note_on_c, 2, 52, 0
8, 71520, Note_on_c, 2, 52, 68
8, 71744, Note_on_c, 2, 52, 0
8, 71760, Note_on_c, 2, 49, 68
8, 71999, Note_on_c, 2, 49, 0
8, 72000, Note_on_c, 2, 47, 68
8, 72239, Note_on_c, 2, 47, 0
8, 72240, Note_on_c, 2, 45, 68
8, 72464, Note_on_c, 2, 45, 0
8, 72480, Note_on_c, 2, 50, 68
8, 72719, Note_on_c, 2, 50, 0
8, 72720, Note_on_c, 2, 52, 68
8, 72959, Note_on_c, 2, 52, 0
8, 72960, Note_on_c, 2, 53, 68
8, 73184, Note_on_c, 2, 53, 0
8, 73200, Note_on_c, 2, 55, 68
8, 73439, Note_on_c, 2, 55, 0
8, 73440, Note_on_c, 2, 55, 68
8, 73679, Note_on_c, 2, 55, 0
8, 73680, Note_on_c, 2, 55, 68
8, 73904, Note_on_c, 2, 55, 0
8, 73920, Note_on_c, 2, 57, 68
8, 74159, Note_on_c, 2, 57, 0
8, 74160, Note_on_c, 2, 57, 68
8, 74399, Note_on_c, 2, 57, 0
8, 74400, Note_on_c, 2, 57, 68
8, 74624, Note_on_c, 2, 57, 0
8, 74640, Note_on_c, 2, 50, 68
8, 74864, Note_on_c, 2, 50, 0
8, 74880, Note_on_c, 2, 53, 68
8, 75104, Note_on_c, 2, 53, 0
8, 75120, Note_on_c, 2, 57, 68
8, 75344, Note_on_c, 2, 57, 0
8, 75360, Note_on_c, 2, 54, 68
8, 75599, Note_on_c, 2, 54, 0
8, 75600, Note_on_c, 2, 54, 68
8, 75839, Note_on_c, 2, 54, 0
8, 75840, Note_on_c, 2, 54, 68
8, 76064, Note_on_c, 2, 54, 0
8, 76080, Note_on_c, 2, 53, 68
8, 76319, Note_on_c, 2, 53, 0
8, 76320, Note_on_c, 2, 53, 68
8, 76559, Note_on_c, 2, 53, 0
8, 76560, Note_on_c, 2, 53, 68
8, 76784, Note_on_c, 2, 53, 0
8, 76800, Note_on_c, 2, 47, 68
8, 77039, Note_on_c, 2, 47, 0
8, 77040, Note_on_c, 2, 47, 68
8, 77279, Note_on_c, 2, 47, 0
8, 77280, Note_on_c, 2, 48, 68
8, 77504, Note_on_c, 2, 48, 0
8, 77520, Note_on_c, 2, 55, 68
8, 77759, Note_on_c, 2, 55, 0
8, 77760, Note_on_c, 2, 53, 68
8, 77999, Note_on_c, 2, 53, 0
8, 78000, Note_on_c, 2, 52, 68
8, 78224, Note_on_c, 2, 52, 0
8, 78240, Note_on_c, 2, 50, 68
8, 78479, Note_on_c, 2, 50, 0
8, 78480, Note_on_c, 2, 48, 68
8, 78719, Note_on_c, 2, 48, 0
8, 78720, Note_on_c, 2, 46, 68
8, 78944, Note_on_c, 2, 46, 0
8, 78960, Note_on_c, 2, 40, 68
8, 79199, Note_on_c, 2, 40, 0
8, 79200, Note_on_c, 2, 40, 68
8, 79439, Note_on_c, 2, 40, 0
8, 79440, Note_on_c, 2, 40, 68
8, 79664, Note_on_c, 2, 40, 0
8, 79680, Note_on_c, 2, 41, 68
8, 79904, Note_on_c, 2, 41, 0
8, 79920, Note_on_c, 2, 38, 68
8, 80144, Note_on_c, 2, 38, 0
8, 80160, Note_on_c, 2, 43, 68
8, 80384, Note_on_c, 2, 43, 0
8, 80400, Note_on_c, 2, 36, 68
8, 80879, Note_on_c, 2, 36, 0
8, 81120, Note_on_c, 2, 48, 76
8, 81344, Note_on_c, 2, 48, 0
8, 81360, Note_on_c, 2, 60, 76
8, 81584, Note_on_c, 2, 60, 0
8, 81600, Note_on_c, 2, 48, 76
8, 81824, Note_on_c, 2, 48, 0
8, 81840, Note_on_c, 2, 59, 76
8, 82064, Note_on_c, 2, 59, 0
8, 82080, Note_on_c, 2, 57, 76
8, 82304, Note_on_c, 2, 57, 0
8, 82320, Note_on_c, 2, 55, 76
8, 82544, Note_on_c, 2, 55, 0
8, 82560, Note_on_c, 2, 53, 76
8, 82784, Note_on_c, 2, 53, 0
8, 82800, Note_on_c, 2, 52, 76
8, 83024, Note_on_c, 2, 52, 0
8, 83040, Note_on_c, 2, 53, 76
8, 83264, Note_on_c, 2, 53, 0
8, 83280, Note_on_c, 2, 50, 76
8, 83504, Note_on_c, 2, 50, 0
8, 83520, Note_on_c, 2, 55, 76
8, 83744, Note_on_c, 2, 55, 0
8, 83760, Note_on_c, 2, 43, 76
8, 83984, Note_on_c, 2, 43, 0
8, 84000, Note_on_c, 2, 53, 76
8, 84224, Note_on_c, 2, 53, 0
8, 84240, Note_on_c, 2, 52, 76
8, 84464, Note_on_c, 2, 52, 0
8, 84480, Note_on_c, 2, 60, 76
8, 84704, Note_on_c, 2, 60, 0
8, 84720, Note_on_c, 2, 59, 76
8, 84944, Note_on_c, 2, 59, 0
8, 84960, Note_on_c, 2, 57, 76
8, 85184, Note_on_c, 2, 57, 0
8, 85200, Note_on_c, 2, 55, 76
8, 85424, Note_on_c, 2, 55, 0
8, 85440, Note_on_c, 2, 54, 76
8, 85664, Note_on_c, 2, 54, 0
8, 85680, Note_on_c, 2, 55, 76
8, 85904, Note_on_c, 2, 55, 0
8, 85920, Note_on_c, 2, 47, 76
8, 86144, Note_on_c, 2, 47, 0
8, 86160, Note_on_c, 2, 50, 76
8, 86384, Note_on_c, 2, 50, 0
8, 86400, Note_on_c, 2, 43, 76
8, 86624, Note_on_c, 2, 43, 0
8, 86640, Note_on_c, 2, 55, 76
8, 86744, Note_on_c, 2, 55, 0
8, 86760, Note_on_c, 2, 53, 76
8, 86864, Note_on_c, 2, 53, 0
8, 86880, Note_on_c, 2, 52, 76
8, 86984, Note_on_c, 2, 52, 0
8, 87000, Note_on_c, 2, 50, 76
8, 87104, Note_on_c, 2, 50, 0
8, 87120, Note_on_c, 2, 48, 76
8, 87344, Note_on_c, 2, 48, 0
8, 87360, Note_on_c, 2, 60, 76
8, 87584, Note_on_c, 2, 60, 0
8, 87600, Note_on_c, 2, 59, 76
8, 87824, Note_on_c, 2, 59, 0
8, 87840, Note_on_c, 2, 57, 76
8, 88064, Note_on_c, 2, 57, 0
8, 88080, Note_on_c, 2, 55, 76
8, 88304, Note_on_c, 2, 55, 0
8, 88320, Note_on_c, 2, 53, 76
8, 88544, Note_on_c, 2, 53, 0
8, 88560, Note_on_c, 2, 52, 76
8, 88784, Note_on_c, 2, 52, 0
8, 88800, Note_on_c, 2, 53, 76
8, 89024, Note_on_c, 2, 53, 0
8, 89040, Note_on_c, 2, 50, 76
8, 89264, Note_on_c, 2, 50, 0
8, 89280, Note_on_c, 2, 55, 76
8, 89504, Note_on_c, 2, 55, 0
8, 89520, Note_on_c, 2, 43, 76
8, 89744, Note_on_c, 2, 43, 0
8, 89760, Note_on_c, 2, 53, 76
8, 89984, Note_on_c, 2, 53, 0
8, 90000, Note_on_c, 2, 52, 76
8, 90224, Note_on_c, 2, 52, 0
8, 90240, Note_on_c, 2, 60, 76
8, 90464, Note_on_c, 2, 60, 0
8, 90480, Note_on_c, 2, 59, 76
8, 90704, Note_on_c, 2, 59, 0
8, 90720, Note_on_c, 2, 57, 76
8, 90944, Note_on_c, 2, 57, 0
8, 90960, Note_on_c, 2, 55, 76
8, 91184, Note_on_c, 2, 55, 0
8, 91200, Note_on_c, 2, 54, 76
8, 91424, Note_on_c, 2, 54, 0
8, 91440, Note_on_c, 2, 55, 76
8, 91664, Note_on_c, 2, 55, 0
8, 91680, Note_on_c, 2, 47, 76
8, 91904, Note_on_c, 2, 47, 0
8, 91920, Note_on_c, 2, 50, 76
8, 92144, Note_on_c, 2, 50, 0
8, 92160, Note_on_c, 2, 43, 76
8, 92624, Note_on_c, 2, 43, 0
8, 92640, Note_on_c, 2, 43, 76
8, 92864, Note_on_c, 2, 43, 0
8, 92880, Note_on_c, 2, 55, 76
8, 93104, Note_on_c, 2, 55, 0
8, 93120, Note_on_c, 2, 57, 76
8, 93344, Note_on_c, 2, 57, 0
8, 93360, Note_on_c, 2, 59, 76
8, 93584, Note_on_c, 2, 59, 0
8, 93600, Note_on_c, 2, 60, 76
8, 93824, Note_on_c, 2, 60, 0
8, 93840, Note_on_c, 2, 48, 76
8, 94064, Note_on_c, 2, 48, 0
8, 94080, Note_on_c, 2, 50, 76
8, 94304, Note_on_c, 2, 50, 0
8, 94320, Note_on_c, 2, 52, 76
8, 94544, Note_on_c, 2, 52, 0
8, 94560, Note_on_c, 2, 49, 76
8, 94784, Note_on_c, 2, 49, 0
8, 94800, Note_on_c, 2, 45, 76
8, 95024, Note_on_c, 2, 45, 0
8, 95040, Note_on_c, 2, 50, 76
8, 95264, Note_on_c, 2, 50, 0
8, 95280, Note_on_c, 2, 48, 76
8, 95504, Note_on_c, 2, 48, 0
8, 95520, Note_on_c, 2, 46, 76
8, 95744, Note_on_c, 2, 46, 0
8, 95760, Note_on_c, 2, 45, 76
8, 95984, Note_on_c, 2, 45, 0
8, 96000, Note_on_c, 2, 49, 76
8, 96224, Note_on_c, 2, 49, 0
8, 96240, Note_on_c, 2, 52, 76
8, 96464, Note_on_c, 2, 52, 0
8, 96480, Note_on_c, 2, 55, 76
8, 96959, Note_on_c, 2, 55, 0
8, 97200, Note_on_c, 2, 55, 76
8, 97424, Note_on_c, 2, 55, 0
8, 97440, Note_on_c, 2, 52, 76
8, 97664, Note_on_c, 2, 52, 0
8, 97680, Note_on_c, 2, 49, 76
8, 97904, Note_on_c, 2, 49, 0
8, 97920, Note_on_c, 2, 45, 76
8, 98399, Note_on_c, 2, 45, 0
8, 98640, Note_on_c, 2, 46, 76
8, 98864, Note_on_c, 2, 46, 0
8, 98880, Note_on_c, 2, 58, 76
8, 99104, Note_on_c, 2, 58, 0
8, 99120, Note_on_c, 2, 57, 76
8, 99344, Note_on_c, 2, 57, 0
8, 99360, Note_on_c, 2, 55, 76
8, 99584, Note_on_c, 2, 55, 0
8, 99600, Note_on_c, 2, 49, 76
8, 99824, Note_on_c, 2, 49, 0
8, 99840, Note_on_c, 2, 50, 76
8, 100064, Note_on_c, 2, 50, 0
8, 100080, Note_on_c, 2, 46, 76
8, 100304, Note_on_c, 2, 46, 0
8, 100320, Note_on_c, 2, 43, 76
8, 100544, Note_on_c, 2, 43, 0
8, 100560, Note_on_c, 2, 45, 76
8, 100784, Note_on_c, 2, 45, 0
8, 100800, Note_on_c, 2, 50, 76
8, 101024, Note_on_c, 2, 50, 0
8, 101040, Note_on_c, 2, 38, 76
8, 101264, Note_on_c, 2, 38, 0
8, 101280, Note_on_c, 2, 50, 76
8, 101504, Note_on_c, 2, 50, 0
8, 101520, Note_on_c, 2, 52, 76
8, 101744, Note_on_c, 2, 52, 0
8, 101760, Note_on_c, 2, 54, 76
8, 101984, Note_on_c, 2, 54, 0
8, 102000, Note_on_c, 2, 50, 76
8, 102224, Note_on_c, 2, 50, 0
8, 102240, Note_on_c, 2, 55, 76
8, 102464, Note_on_c, 2, 55, 0
8, 102480, Note_on_c, 2, 43, 76
8, 102704, Note_on_c, 2, 43, 0
8, 102720, Note_on_c, 2, 45, 76
8, 102944, Note_on_c, 2, 45, 0
8, 102960, Note_on_c, 2, 47, 76
8, 103184, Note_on_c, 2, 47, 0
8, 103200, Note_on_c, 2, 43, 76
8, 103424, Note_on_c, 2, 43, 0
8, 103440, Note_on_c, 2, 48, 76
8, 103664, Note_on_c, 2, 48, 0
8, 103680, Note_on_c, 2, 43, 76
8, 104144, Note_on_c, 2, 43, 0
8, 104160, Note_on_c, 2, 55, 76
8, 104384, Note_on_c, 2, 55, 0
8, 104400, Note_on_c, 2, 57, 76
8, 104504, Note_on_c, 2, 57, 0
8, 104520, Note_on_c, 2, 55, 76
8, 104624, Note_on_c, 2, 55, 0
8, 104640, Note_on_c, 2, 53, 76
8, 104744, Note_on_c, 2, 53, 0
8, 104760, Note_on_c, 2, 52, 76
8, 104864, Note_on_c, 2, 52, 0
8, 104880, Note_on_c, 2, 53, 76
8, 104984, Note_on_c, 2, 53, 0
8, 105000, Note_on_c, 2, 50, 76
8, 105104, Note_on_c, 2, 50, 0
8, 105120, Note_on_c, 2, 52, 76
8, 105344, Note_on_c, 2, 52, 0
8, 105360, Note_on_c, 2, 50, 76
8, 105584, Note_on_c, 2, 50, 0
8, 105600, Note_on_c, 2, 48, 76
8, 105824, Note_on_c, 2, 48, 0
8, 105840, Note_on_c, 2, 53, 76
8, 106064, Note_on_c, 2, 53, 0
8, 106080, Note_on_c, 2, 50, 76
8, 106304, Note_on_c, 2, 50, 0
8, 106320, Note_on_c, 2, 55, 76
8, 106544, Note_on_c, 2, 55, 0
8, 106560, Note_on_c, 2, 48, 76
8, 107024, Note_on_c, 2, 48, 0
8, 107040, Note_on_c, 2, 43, 76
8, 107264, Note_on_c, 2, 43, 0
8, 107280, Note_on_c, 2, 55, 76
8, 107504, Note_on_c, 2, 55, 0
8, 107520, Note_on_c, 2, 57, 76
8, 107744, Note_on_c, 2, 57, 0
8, 107760, Note_on_c, 2, 59, 76
8, 107984, Note_on_c, 2, 59, 0
8, 108000, Note_on_c, 2, 60, 76
8, 108224, Note_on_c, 2, 60, 0
8, 108240, Note_on_c, 2, 48, 76
8, 108464, Note_on_c, 2, 48, 0
8, 108480, Note_on_c, 2, 50, 76
8, 108704, Note_on_c, 2, 50, 0
8, 108720, Note_on_c, 2, 52, 76
8, 108944, Note_on_c, 2, 52, 0
8, 108960, Note_on_c, 2, 49, 76
8, 109184, Note_on_c, 2, 49, 0
8, 109200, Note_on_c, 2, 45, 76
8, 109424, Note_on_c, 2, 45, 0
8, 109440, Note_on_c, 2, 50, 76
8, 109664, Note_on_c, 2, 50, 0
8, 109680, Note_on_c, 2, 48, 76
8, 109904, Note_on_c, 2, 48, 0
8, 109920, Note_on_c, 2, 46, 76
8, 110144, Note_on_c, 2, 46, 0
8, 110160, Note_on_c, 2, 45, 76
8, 110384, Note_on_c, 2, 45, 0
8, 110400, Note_on_c, 2, 49, 76
8, 110624, Note_on_c, 2, 49, 0
8, 110640, Note_on_c, 2, 52, 76
8, 110864, Note_on_c, 2, 52, 0
8, 110880, Note_on_c, 2, 55, 76
8, 111359, Note_on_c, 2, 55, 0
8, 111600, Note_on_c, 2, 55, 76
8, 111824, Note_on_c, 2, 55, 0
8, 111840, Note_on_c, 2, 52, 76
8, 112064, Note_on_c, 2, 52, 0
8, 112080, Note_on_c, 2, 49, 76
8, 112304, Note_on_c, 2, 49, 0
8, 112320, Note_on_c, 2, 45, 76
8, 112799, Note_on_c, 2, 45, 0
8, 113040, Note_on_c, 2, 46, 76
8, 113264, Note_on_c, 2, 46, 0
8, 113280, Note_on_c, 2, 58, 76
8, 113504, Note_on_c, 2, 58, 0
8, 113520, Note_on_c, 2, 57, 76
8, 113744, Note_on_c, 2, 57, 0
8, 113760, Note_on_c, 2, 55, 76
8, 113984, Note_on_c, 2, 55, 0
8, 114000, Note_on_c, 2, 49, 76
8, 114224, Note_on_c, 2, 49, 0
8, 114240, Note_on_c, 2, 50, 76
8, 114464, Note_on_c, 2, 50, 0
8, 114480, Note_on_c, 2, 46, 76
8, 114704, Note_on_c, 2, 46, 0
8, 114720, Note_on_c, 2, 43, 76
8, 114944, Note_on_c, 2, 43, 0
8, 114960, Note_on_c, 2, 45, 76
8, 115184, Note_on_c, 2, 45, 0
8, 115200, Note_on_c, 2, 50, 76
8, 115424, Note_on_c, 2, 50, 0
8, 115440, Note_on_c, 2, 38, 76
8, 115664, Note_on_c, 2, 38, 0
8, 115680, Note_on_c, 2, 50, 76
8, 115904, Note_on_c, 2, 50, 0
8, 115920, Note_on_c, 2, 52, 76
8, 116144, Note_on_c, 2, 52, 0
8, 116160, Note_on_c, 2, 54, 76
8, 116384, Note_on_c, 2, 54, 0
8, 116400, Note_on_c, 2, 50, 76
8, 116624, Note_on_c, 2, 50, 0
8, 116640, Note_on_c, 2, 55, 76
8, 116864, Note_on_c, 2, 55, 0
8, 116880, Note_on_c, 2, 43, 76
8, 117104, Note_on_c, 2, 43, 0
8, 117120, Note_on_c, 2, 45, 76
8, 117344, Note_on_c, 2, 45, 0
8, 117360, Note_on_c, 2, 47, 76
8, 117584, Note_on_c, 2, 47, 0
8, 117600, Note_on_c, 2, 43, 76
8, 117824, Note_on_c, 2, 43, 0
8, 117840, Note_on_c, 2, 48, 76
8, 118064, Note_on_c, 2, 48, 0
8, 118080, Note_on_c, 2, 43, 76
8, 118544, Note_on_c, 2, 43, 0
8, 118560, Note_on_c, 2, 55, 76
8, 118784, Note_on_c, 2, 55, 0
8, 118800, Note_on_c, 2, 57, 76
8, 118904, Note_on_c, 2, 57, 0
8, 118920, Note_on_c, 2, 55, 76
8, 119024, Note_on_c, 2, 55, 0
8, 119040, Note_on_c, 2, 53, 76
8, 119144, Note_on_c, 2, 53, 0
8, 119160, Note_on_c, 2, 52, 76
8, 119264, Note_on_c, 2, 52, 0
8, 119280, Note_on_c, 2, 53, 76
8, 119384, Note_on_c, 2, 53, 0
8, 119400, Note_on_c, 2, 50, 76
8, 119504, Note_on_c, 2, 50, 0
8, 119520, Note_on_c, 2, 52, 76
8, 119744, Note_on_c, 2, 52, 0
8, 119760, Note_on_c, 2, 50, 76
8, 119984, Note_on_c, 2, 50, 0
8, 120000, Note_on_c, 2, 48, 76
8, 120224, Note_on_c, 2, 48, 0
8, 120240, Note_on_c, 2, 53, 76
8, 120464, Note_on_c, 2, 53, 0
8, 120480, Note_on_c, 2, 50, 76
8, 120704, Note_on_c, 2, 50, 0
8, 120720, Note_on_c, 2, 55, 76
8, 120944, Note_on_c, 2, 55, 0
8, 120960, Note_on_c, 2, 48, 76
8, 121439, Note_on_c, 2, 48, 0
8, 121439, End_track
9, 0, Start_track
9, 0, Title_t, "Violin I"
9, 0, MIDI_port, 0
9, 0, Program_c, 11, 48
9, 0, Control_c, 11, 10, 48
9, 0, Control_c, 11, 11, 127
9, 0, Control_c, 11, 7, 96
9, 0, Note_on_c, 11, 67, 76
9, 224, Note_on_c, 11, 67, 0
9, 240, Note_on_c, 11, 72, 76
9, 464, Note_on_c, 11, 72, 0
9, 480, Note_on_c, 11, 76, 76
9, 599, Note_on_c, 11, 76, 0
9, 600, Note_on_c, 11, 74, 76
9, 719, Note_on_c, 11, 74, 0
9, 720, Note_on_c, 11, 72, 76
9, 839, Note_on_c, 11, 72, 0
9, 840, Note_on_c, 11, 71, 76
9, 944, Note_on_c, 11, 71, 0
9, 960, Note_on_c, 11, 72, 76
9, 1064, Note_on_c, 11, 72, 0
9, 1080, Note_on_c, 11, 74, 76
9, 1184, Note_on_c, 11, 74, 0
9, 1200, Note_on_c, 11, 76, 76
9, 1304, Note_on_c, 11, 76, 0
9, 1320, Note_on_c, 11, 77, 76
9, 1424, Note_on_c, 11, 77, 0
9, 1440, Note_on_c, 11, 79, 76
9, 1904, Note_on_c, 11, 79, 0
9, 1920, Note_on_c, 11, 81, 76
9, 2144, Note_on_c, 11, 81, 0
9, 2160, Note_on_c, 11, 77, 76
9, 2384, Note_on_c, 11, 77, 0
9, 2400, Note_on_c, 11, 74, 76
9, 2624, Note_on_c, 11, 74, 0
9, 2640, Note_on_c, 11, 72, 76
9, 2759, Note_on_c, 11, 72, 0
9, 2760, Note_on_c, 11, 71, 76
9, 2879, Note_on_c, 11, 71, 0
9, 2880, Note_on_c, 11, 69, 76
9, 2999, Note_on_c, 11, 69, 0
9, 3000, Note_on_c, 11, 67, 76
9, 3104, Note_on_c, 11, 67, 0
9, 3120, Note_on_c, 11, 72, 76
9, 3344, Note_on_c, 11, 72, 0
9, 3360, Note_on_c, 11, 76, 76
9, 3479, Note_on_c, 11, 76, 0
9, 3480, Note_on_c, 11, 74, 76
9, 3599, Note_on_c, 11, 74, 0
9, 3600, Note_on_c, 11, 72, 76
9, 3719, Note_on_c, 11, 72, 0
9, 3720, Note_on_c, 11, 71, 76
9, 3824, Note_on_c, 11, 71, 0
9, 3840, Note_on_c, 11, 74, 76
9, 3959, Note_on_c, 11, 74, 0
9, 3960, Note_on_c, 11, 72, 76
9, 4079, Note_on_c, 11, 72, 0
9, 4080, Note_on_c, 11, 71, 76
9, 4199, Note_on_c, 11, 71, 0
9, 4200, Note_on_c, 11, 69, 76
9, 4304, Note_on_c, 11, 69, 0
9, 4320, Note_on_c, 11, 74, 76
9, 4784, Note_on_c, 11, 74, 0
9, 4800, Note_on_c, 11, 72, 76
9, 4904, Note_on_c, 11, 72, 0
9, 4920, Note_on_c, 11, 71, 76
9, 5024, Note_on_c, 11, 71, 0
9, 5040, Note_on_c, 11, 69, 76
9, 5144, Note_on_c, 11, 69, 0
9, 5160, Note_on_c, 11, 71, 76
9, 5264, Note_on_c, 11, 71, 0
9, 5280, Note_on_c, 11, 67, 76
9, 5744, Note_on_c, 11, 67, 0
9, 5760, Note_on_c, 11, 67, 76
9, 5984, Note_on_c, 11, 67, 0
9, 6000, Note_on_c, 11, 72, 76
9, 6224, Note_on_c, 11, 72, 0
9, 6240, Note_on_c, 11, 76, 76
9, 6359, Note_on_c, 11, 76, 0
9, 6360, Note_on_c, 11, 74, 76
9, 6479, Note_on_c, 11, 74, 0
9, 6480, Note_on_c, 11, 72, 76
9, 6599, Note_on_c, 11, 72, 0
9, 6600, Note_on_c, 11, 71, 76
9, 6704, Note_on_c, 11, 71, 0
9, 6720, Note_on_c, 11, 72, 76
9, 6824, Note_on_c, 11, 72, 0
9, 6840, Note_on_c, 11, 74, 76
9, 6944, Note_on_c, 11, 74, 0
9, 6960, Note_on_c, 11, 76, 76
9, 7064, Note_on_c, 11, 76, 0
9, 7080, Note_on_c, 11, 77, 76
9, 7184, Note_on_c, 11, 77, 0
9, 7200, Note_on_c, 11, 79, 76
9, 7664, Note_on_c, 11, 79, 0
9, 7680, Note_on_c, 11, 81, 76
9, 7904, Note_on_c, 11, 81, 0
9, 7920, Note_on_c, 11, 77, 76
9, 8144, Note_on_c, 11, 77, 0
9, 8160, Note_on_c, 11, 74, 76
9, 8384, Note_on_c, 11, 74, 0
9, 8400, Note_on_c, 11, 72, 76
9, 8519, Note_on_c, 11, 72, 0
9, 8520, Note_on_c, 11, 71, 76
9, 8639, Note_on_c, 11, 71, 0
9, 8640, Note_on_c, 11, 69, 76
9, 8759, Note_on_c, 11, 69, 0
9, 8760, Note_on_c, 11, 67, 76
9, 8864, Note_on_c, 11, 67, 0
9, 8880, Note_on_c, 11, 72, 76
9, 9104, Note_on_c, 11, 72, 0
9, 9120, Note_on_c, 11, 76, 76
9, 9239, Note_on_c, 11, 76, 0
9, 9240, Note_on_c, 11, 74, 76
9, 9359, Note_on_c, 11, 74, 0
9, 9360, Note_on_c, 11, 72, 76
9, 9479, Note_on_c, 11, 72, 0
9, 9480, Note_on_c, 11, 71, 76
9, 9584, Note_on_c, 11, 71, 0
9, 9600, Note_on_c, 11, 74, 76
9, 9719, Note_on_c, 11, 74, 0
9, 9720, Note_on_c, 11, 72, 76
9, 9839, Note_on_c, 11, 72, 0
9, 9840, Note_on_c, 11, 71, 76
9, 9959, Note_on_c, 11, 71, 0
9, 9960, Note_on_c, 11, 69, 76
9, 10064, Note_on_c, 11, 69, 0
9, 10080, Note_on_c, 11, 74, 76
9, 10544, Note_on_c, 11, 74, 0
9, 10560, Note_on_c, 11, 72, 76
9, 10664, Note_on_c, 11, 72, 0
9, 10680, Note_on_c, 11, 71, 76
9, 10784, Note_on_c, 11, 71, 0
9, 10800, Note_on_c, 11, 69, 76
9, 10904, Note_on_c, 11, 69, 0
9, 10920, Note_on_c, 11, 71, 76
9, 11024, Note_on_c, 11, 71, 0
9, 11040, Note_on_c, 11, 67, 76
9, 11504, Note_on_c, 11, 67, 0
9, 11520, Note_on_c, 11, 74, 76
9, 11744, Note_on_c, 11, 74, 0
9, 11760, Note_on_c, 11, 71, 76
9, 11984, Note_on_c, 11, 71, 0
9, 12000, Note_on_c, 11, 72, 76
9, 12119, Note_on_c, 11, 72, 0
9, 12120, Note_on_c, 11, 71, 76
9, 12239, Note_on_c, 11, 71, 0
9, 12240, Note_on_c, 11, 69, 76
9, 12359, Note_on_c, 11, 69, 0
9, 12360, Note_on_c, 11, 67, 76
9, 12464, Note_on_c, 11, 67, 0
9, 12480, Note_on_c, 11, 76, 76
9, 12599, Note_on_c, 11, 76, 0
9, 12600, Note_on_c, 11, 77, 76
9, 12719, Note_on_c, 11, 77, 0
9, 12720, Note_on_c, 11, 79, 76
9, 12839, Note_on_c, 11, 79, 0
9, 12840, Note_on_c, 11, 81, 76
9, 12944, Note_on_c, 11, 81, 0
9, 12960, Note_on_c, 11, 82, 76
9, 13424, Note_on_c, 11, 82, 0
9, 13440, Note_on_c, 11, 81, 76
9, 13664, Note_on_c, 11, 81, 0
9, 13680, Note_on_c, 11, 79, 76
9, 13904, Note_on_c, 11, 79, 0
9, 13920, Note_on_c, 11, 77, 76
9, 14144, Note_on_c, 11, 77, 0
9, 14160, Note_on_c, 11, 79, 76
9, 14279, Note_on_c, 11, 79, 0
9, 14280, Note_on_c, 11, 77, 76
9, 14399, Note_on_c, 11, 77, 0
9, 14400, Note_on_c, 11, 76, 76
9, 14519, Note_on_c, 11, 76, 0
9, 14520, Note_on_c, 11, 74, 76
9, 14624, Note_on_c, 11, 74, 0
9, 14640, Note_on_c, 11, 73, 76
9, 14744, Note_on_c, 11, 73, 0
9, 14760, Note_on_c, 11, 74, 76
9, 14864, Note_on_c, 11, 74, 0
9, 14880, Note_on_c, 11, 76, 76
9, 15104, Note_on_c, 11, 76, 0
9, 15120, Note_on_c, 11, 81, 76
9, 15584, Note_on_c, 11, 81, 0
9, 15600, Note_on_c, 11, 79, 76
9, 15719, Note_on_c, 11, 79, 0
9, 15720, Note_on_c, 11, 77, 76
9, 15839, Note_on_c, 11, 77, 0
9, 15840, Note_on_c, 11, 76, 76
9, 15959, Note_on_c, 11, 76, 0
9, 15960, Note_on_c, 11, 74, 76
9, 16064, Note_on_c, 11, 74, 0
9, 16080, Note_on_c, 11, 73, 76
9, 16199, Note_on_c, 11, 73, 0
9, 16200, Note_on_c, 11, 74, 76
9, 16319, Note_on_c, 11, 74, 0
9, 16320, Note_on_c, 11, 76, 76
9, 16439, Note_on_c, 11, 76, 0
9, 16440, Note_on_c, 11, 77, 76
9, 16544, Note_on_c, 11, 77, 0
9, 16560, Note_on_c, 11, 79, 76
9, 17024, Note_on_c, 11, 79, 0
9, 17040, Note_on_c, 11, 77, 76
9, 17159, Note_on_c, 11, 77, 0
9, 17160, Note_on_c, 11, 76, 76
9, 17279, Note_on_c, 11, 76, 0
9, 17280, Note_on_c, 11, 74, 76
9, 17399, Note_on_c, 11, 74, 0
9, 17400, Note_on_c, 11, 73, 76
9, 17504, Note_on_c, 11, 73, 0
9, 17520, Note_on_c, 11, 74, 76
9, 17624, Note_on_c, 11, 74, 0
9, 17640, Note_on_c, 11, 69, 76
9, 17744, Note_on_c, 11, 69, 0
9, 17760, Note_on_c, 11, 77, 76
9, 17879, Note_on_c, 11, 77, 0
9, 17880, Note_on_c, 11, 76, 76
9, 17999, Note_on_c, 11, 76, 0
9, 18000, Note_on_c, 11, 74, 76
9, 18119, Note_on_c, 11, 74, 0
9, 18120, Note_on_c, 11, 72, 76
9, 18224, Note_on_c, 11, 72, 0
9, 18240, Note_on_c, 11, 70, 76
9, 18359, Note_on_c, 11, 70, 0
9, 18360, Note_on_c, 11, 74, 76
9, 18464, Note_on_c, 11, 74, 0
9, 18480, Note_on_c, 11, 79, 76
9, 18584, Note_on_c, 11, 79, 0
9, 18600, Note_on_c, 11, 76, 76
9, 18704, Note_on_c, 11, 76, 0
9, 18720, Note_on_c, 11, 77, 76
9, 19064, Note_on_c, 11, 77, 0
9, 19080, Note_on_c, 11, 74, 76
9, 19184, Note_on_c, 11, 74, 0
9, 19200, Note_on_c, 11, 77, 76
9, 19319, Note_on_c, 11, 77, 0
9, 19320, Note_on_c, 11, 76, 76
9, 19424, Note_on_c, 11, 76, 0
9, 19440, Note_on_c, 11, 74, 76
9, 19559, Note_on_c, 11, 74, 0
9, 19560, Note_on_c, 11, 73, 76
9, 19664, Note_on_c, 11, 73, 0
9, 19680, Note_on_c, 11, 74, 76
9, 20144, Note_on_c, 11, 74, 0
9, 20160, Note_on_c, 11, 69, 76
9, 20264, Note_on_c, 11, 69, 0
9, 20280, Note_on_c, 11, 71, 76
9, 20384, Note_on_c, 11, 71, 0
9, 20400, Note_on_c, 11, 72, 76
9, 20624, Note_on_c, 11, 72, 0
9, 20640, Note_on_c, 11, 74, 76
9, 20759, Note_on_c, 11, 74, 0
9, 20760, Note_on_c, 11, 72, 76
9, 20879, Note_on_c, 11, 72, 0
9, 20880, Note_on_c, 11, 71, 76
9, 20999, Note_on_c, 11, 71, 0
9, 21000, Note_on_c, 11, 69, 76
9, 21104, Note_on_c, 11, 69, 0
9, 21120, Note_on_c, 11, 71, 76
9, 21224, Note_on_c, 11, 71, 0
9, 21240, Note_on_c, 11, 69, 76
9, 21344, Note_on_c, 11, 69, 0
9, 21360, Note_on_c, 11, 67, 76
9, 21464, Note_on_c, 11, 67, 0
9, 21480, Note_on_c, 11, 69, 76
9, 21584, Note_on_c, 11, 69, 0
9, 21600, Note_on_c, 11, 71, 76
9, 21704, Note_on_c, 11, 71, 0
9, 21720, Note_on_c, 11, 72, 76
9, 21824, Note_on_c, 11, 72, 0
9, 21840, Note_on_c, 11, 74, 76
9, 21944, Note_on_c, 11, 74, 0
9, 21960, Note_on_c, 11, 76, 76
9, 22064, Note_on_c, 11, 76, 0
9, 22080, Note_on_c, 11, 77, 76
9, 22304, Note_on_c, 11, 77, 0
9, 22320, Note_on_c, 11, 76, 76
9, 22544, Note_on_c, 11, 76, 0
9, 22560, Note_on_c, 11, 74, 76
9, 22664, Note_on_c, 11, 74, 0
9, 22680, Note_on_c, 11, 72, 76
9, 22784, Note_on_c, 11, 72, 0
9, 22800, Note_on_c, 11, 71, 76
9, 22904, Note_on_c, 11, 71, 0
9, 22920, Note_on_c, 11, 72, 76
9, 23024, Note_on_c, 11, 72, 0
9, 23040, Note_on_c, 11, 74, 76
9, 23144, Note_on_c, 11, 74, 0
9, 23160, Note_on_c, 11, 76, 76
9, 23264, Note_on_c, 11, 76, 0
9, 23280, Note_on_c, 11, 77, 76
9, 23384, Note_on_c, 11, 77, 0
9, 23400, Note_on_c, 11, 79, 76
9, 23504, Note_on_c, 11, 79, 0
9, 23520, Note_on_c, 11, 81, 76
9, 23744, Note_on_c, 11, 81, 0
9, 23760, Note_on_c, 11, 79, 76
9, 24224, Note_on_c, 11, 79, 0
9, 24240, Note_on_c, 11, 70, 76
9, 24344, Note_on_c, 11, 70, 0
9, 24360, Note_on_c, 11, 69, 76
9, 24464, Note_on_c, 11, 69, 0
9, 24480, Note_on_c, 11, 70, 76
9, 24584, Note_on_c, 11, 70, 0
9, 24600, Note_on_c, 11, 67, 76
9, 24704, Note_on_c, 11, 67, 0
9, 24720, Note_on_c, 11, 69, 76
9, 24944, Note_on_c, 11, 69, 0
9, 24960, Note_on_c, 11, 74, 76
9, 25184, Note_on_c, 11, 74, 0
9, 25200, Note_on_c, 11, 71, 76
9, 25424, Note_on_c, 11, 71, 0
9, 25440, Note_on_c, 11, 72, 76
9, 25904, Note_on_c, 11, 72, 0
9, 25920, Note_on_c, 11, 74, 76
9, 26144, Note_on_c, 11, 74, 0
9, 26160, Note_on_c, 11, 71, 76
9, 26384, Note_on_c, 11, 71, 0
9, 26400, Note_on_c, 11, 72, 76
9, 26519, Note_on_c, 11, 72, 0
9, 26520, Note_on_c, 11, 71, 76
9, 26639, Note_on_c, 11, 71, 0
9, 26640, Note_on_c, 11, 69, 76
9, 26759, Note_on_c, 11, 69, 0
9, 26760, Note_on_c, 11, 67, 76
9, 26864, Note_on_c, 11, 67, 0
9, 26880, Note_on_c, 11, 76, 76
9, 26999, Note_on_c, 11, 76, 0
9, 27000, Note_on_c, 11, 77, 76
9, 27119, Note_on_c, 11, 77, 0
9, 27120, Note_on_c, 11, 79, 76
9, 27239, Note_on_c, 11, 79, 0
9, 27240, Note_on_c, 11, 81, 76
9, 27344, Note_on_c, 11, 81, 0
9, 27360, Note_on_c, 11, 82, 76
9, 27824, Note_on_c, 11, 82, 0
9, 27840, Note_on_c, 11, 81, 76
9, 28064, Note_on_c, 11, 81, 0
9, 28080, Note_on_c, 11, 79, 76
9, 28304, Note_on_c, 11, 79, 0
9, 28320, Note_on_c, 11, 77, 76
9, 28544, Note_on_c, 11, 77, 0
9, 28560, Note_on_c, 11, 79, 76
9, 28679, Note_on_c, 11, 79, 0
9, 28680, Note_on_c, 11, 77, 76
9, 28799, Note_on_c, 11, 77, 0
9, 28800, Note_on_c, 11, 76, 76
9, 28919, Note_on_c, 11, 76, 0
9, 28920, Note_on_c, 11, 74, 76
9, 29024, Note_on_c, 11, 74, 0
9, 29040, Note_on_c, 11, 73, 76
9, 29144, Note_on_c, 11, 73, 0
9, 29160, Note_on_c, 11, 74, 76
9, 29264, Note_on_c, 11, 74, 0
9, 29280, Note_on_c, 11, 76, 76
9, 29504, Note_on_c, 11, 76, 0
9, 29520, Note_on_c, 11, 81, 76
9, 29984, Note_on_c, 11, 81, 0
9, 30000, Note_on_c, 11, 79, 76
9, 30119, Note_on_c, 11, 79, 0
9, 30120, Note_on_c, 11, 77, 76
9, 30239, Note_on_c, 11, 77, 0
9, 30240, Note_on_c, 11, 76, 76
9, 30359, Note_on_c, 11, 76, 0
9, 30360, Note_on_c, 11, 74, 76
9, 30464, Note_on_c, 11, 74, 0
9, 30480, Note_on_c, 11, 73, 76
9, 30599, Note_on_c, 11, 73, 0
9, 30600, Note_on_c, 11, 74, 76
9, 30719, Note_on_c, 11, 74, 0
9, 30720, Note_on_c, 11, 76, 76
9, 30839, Note_on_c, 11, 76, 0
9, 30840, Note_on_c, 11, 77, 76
9, 30944, Note_on_c, 11, 77, 0
9, 30960, Note_on_c, 11, 79, 76
9, 31424, Note_on_c, 11, 79, 0
9, 31440, Note_on_c, 11, 77, 76
9, 31559, Note_on_c, 11, 77, 0
9, 31560, Note_on_c, 11, 76, 76
9, 31679, Note_on_c, 11, 76, 0
9, 31680, Note_on_c, 11, 74, 76
9, 31799, Note_on_c, 11, 74, 0
9, 31800, Note_on_c, 11, 73, 76
9, 31904, Note_on_c, 11, 73, 0
9, 31920, Note_on_c, 11, 74, 76
9, 32024, Note_on_c, 11, 74, 0
9, 32040, Note_on_c, 11, 69, 76
9, 32144, Note_on_c, 11, 69, 0
9, 32160, Note_on_c, 11, 77, 76
9, 32279, Note_on_c, 11, 77, 0
9, 32280, Note_on_c, 11, 76, 76
9, 32399, Note_on_c, 11, 76, 0
9, 32400, Note_on_c, 11, 74, 76
9, 32519, Note_on_c, 11, 74, 0
9, 32520, Note_on_c, 11, 72, 76
9, 32624, Note_on_c, 11, 72, 0
9, 32640, Note_on_c, 11, 70, 76
9, 32759, Note_on_c, 11, 70, 0
9, 32760, Note_on_c, 11, 74, 76
9, 32864, Note_on_c, 11, 74, 0
9, 32880, Note_on_c, 11, 79, 76
9, 32984, Note_on_c, 11, 79, 0
9, 33000, Note_on_c, 11, 76, 76
9, 33104, Note_on_c, 11, 76, 0
9, 33120, Note_on_c, 11, 77, 76
9, 33464, Note_on_c, 11, 77, 0
9, 33480, Note_on_c, 11, 74, 76
9, 33584, Note_on_c, 11, 74, 0
9, 33600, Note_on_c, 11, 77, 76
9, 33719, Note_on_c, 11, 77, 0
9, 33720, Note_on_c, 11, 76, 76
9, 33824, Note_on_c, 11, 76, 0
9, 33840, Note_on_c, 11, 74, 76
9, 33959, Note_on_c, 11, 74, 0
9, 33960, Note_on_c, 11, 73, 76
9, 34064, Note_on_c, 11, 73, 0
9, 34080, Note_on_c, 11, 74, 76
9, 34544, Note_on_c, 11, 74, 0
9, 34560, Note_on_c, 11, 69, 76
9, 34664, Note_on_c, 11, 69, 0
9, 34680, Note_on_c, 11, 71, 76
9, 34784, Note_on_c, 11, 71, 0
9, 34800, Note_on_c, 11, 72, 76
9, 35024, Note_on_c, 11, 72, 0
9, 35040, Note_on_c, 11, 74, 76
9, 35159, Note_on_c, 11, 74, 0
9, 35160, Note_on_c, 11, 72, 76
9, 35279, Note_on_c, 11, 72, 0
9, 35280, Note_on_c, 11, 71, 76
9, 35399, Note_on_c, 11, 71, 0
9, 35400, Note_on_c, 11, 69, 76
9, 35504, Note_on_c, 11, 69, 0
9, 35520, Note_on_c, 11, 71, 76
9, 35624, Note_on_c, 11, 71, 0
9, 35640, Note_on_c, 11, 69, 76
9, 35744, Note_on_c, 11, 69, 0
9, 35760, Note_on_c, 11, 67, 76
9, 35864, Note_on_c, 11, 67, 0
9, 35880, Note_on_c, 11, 69, 76
9, 35984, Note_on_c, 11, 69, 0
9, 36000, Note_on_c, 11, 71, 76
9, 36104, Note_on_c, 11, 71, 0
9, 36120, Note_on_c, 11, 72, 76
9, 36224, Note_on_c, 11, 72, 0
9, 36240, Note_on_c, 11, 74, 76
9, 36344, Note_on_c, 11, 74, 0
9, 36360, Note_on_c, 11, 76, 76
9, 36464, Note_on_c, 11, 76, 0
9, 36480, Note_on_c, 11, 77, 76
9, 36704, Note_on_c, 11, 77, 0
9, 36720, Note_on_c, 11, 76, 76
9, 36944, Note_on_c, 11, 76, 0
9, 36960, Note_on_c, 11, 74, 76
9, 37064, Note_on_c, 11, 74, 0
9, 37080, Note_on_c, 11, 72, 76
9, 37184, Note_on_c, 11, 72, 0
9, 37200, Note_on_c, 11, 71, 76
9, 37304, Note_on_c, 11, 71, 0
9, 37320, Note_on_c, 11, 72, 76
9, 37424, Note_on_c, 11, 72, 0
9, 37440, Note_on_c, 11, 74, 76
9, 37544, Note_on_c, 11, 74, 0
9, 37560, Note_on_c, 11, 76, 76
9, 37664, Note_on_c, 11, 76, 0
9, 37680, Note_on_c, 11, 77, 76
9, 37784, Note_on_c, 11, 77, 0
9, 37800, Note_on_c, 11, 79, 76
9, 37904, Note_on_c, 11, 79, 0
9, 37920, Note_on_c, 11, 81, 76
9, 38144, Note_on_c, 11, 81, 0
9, 38160, Note_on_c, 11, 79, 76
9, 38624, Note_on_c, 11, 79, 0
9, 38640, Note_on_c, 11, 70, 76
9, 38744, Note_on_c, 11, 70, 0
9, 38760, Note_on_c, 11, 69, 76
9, 38864, Note_on_c, 11, 69, 0
9, 38880, Note_on_c, 11, 70, 76
9, 38984, Note_on_c, 11, 70, 0
9, 39000, Note_on_c, 11, 67, 76
9, 39104, Note_on_c, 11, 67, 0
9, 39120, Note_on_c, 11, 69, 76
9, 39344, Note_on_c, 11, 69, 0
9, 39360, Note_on_c, 11, 74, 76
9, 39584, Note_on_c, 11, 74, 0
9, 39600, Note_on_c, 11, 71, 76
9, 39824, Note_on_c, 11, 71, 0
9, 39840, Note_on_c, 11, 72, 76
9, 40319, Note_on_c, 11, 72, 0
9, 40560, Note_on_c, 11, 55, 68
9, 40784, Note_on_c, 11, 55, 0
9, 40800, Note_on_c, 11, 60, 68
9, 41024, Note_on_c, 11, 60, 0
9, 41040, Note_on_c, 11, 64, 68
9, 41159, Note_on_c, 11, 64, 0
9, 41160, Note_on_c, 11, 62, 68
9, 41279, Note_on_c, 11, 62, 0
9, 41280, Note_on_c, 11, 60, 68
9, 41399, Note_on_c, 11, 60, 0
9, 41400, Note_on_c, 11, 59, 68
9, 41504, Note_on_c, 11, 59, 0
9, 41520, Note_on_c, 11, 60, 68
9, 41639, Note_on_c, 11, 60, 0
9, 41640, Note_on_c, 11, 62, 68
9, 41759, Note_on_c, 11, 62, 0
9, 41760, Note_on_c, 11, 64, 68
9, 41879, Note_on_c, 11, 64, 0
9, 41880, Note_on_c, 11, 65, 68
9, 41984, Note_on_c, 11, 65, 0
9, 42000, Note_on_c, 11, 67, 68
9, 42464, Note_on_c, 11, 67, 0
9, 42480, Note_on_c, 11, 69, 68
9, 42704, Note_on_c, 11, 69, 0
9, 42720, Note_on_c, 11, 65, 68
9, 42944, Note_on_c, 11, 65, 0
9, 42960, Note_on_c, 11, 62, 68
9, 43184, Note_on_c, 11, 62, 0
9, 43200, Note_on_c, 11, 60, 68
9, 43319, Note_on_c, 11, 60, 0
9, 43320, Note_on_c, 11, 59, 68
9, 43439, Note_on_c, 11, 59, 0
9, 43440, Note_on_c, 11, 57, 68
9, 43559, Note_on_c, 11, 57, 0
9, 43560, Note_on_c, 11, 55, 68
9, 43664, Note_on_c, 11, 55, 0
9, 43680, Note_on_c, 11, 60, 68
9, 43904, Note_on_c, 11, 60, 0
9, 43920, Note_on_c, 11, 64, 68
9, 44039, Note_on_c, 11, 64, 0
9, 44040, Note_on_c, 11, 62, 68
9, 44159, Note_on_c, 11, 62, 0
9, 44160, Note_on_c, 11, 60, 68
9, 44279, Note_on_c, 11, 60, 0
9, 44280, Note_on_c, 11, 59, 68
9, 44384, Note_on_c, 11, 59, 0
9, 44400, Note_on_c, 11, 62, 68
9, 44519, Note_on_c, 11, 62, 0
9, 44520, Note_on_c, 11, 60, 68
9, 44624, Note_on_c, 11, 60, 0
9, 44640, Note_on_c, 11, 59, 68
9, 44759, Note_on_c, 11, 59, 0
9, 44760, Note_on_c, 11, 57, 68
9, 44864, Note_on_c, 11, 57, 0
9, 44880, Note_on_c, 11, 62, 68
9, 45344, Note_on_c, 11, 62, 0
9, 45360, Note_on_c, 11, 60, 68
9, 45479, Note_on_c, 11, 60, 0
9, 45480, Note_on_c, 11, 59, 68
9, 45584, Note_on_c, 11, 59, 0
9, 45600, Note_on_c, 11, 57, 68
9, 45719, Note_on_c, 11, 57, 0
9, 45720, Note_on_c, 11, 59, 68
9, 45824, Note_on_c, 11, 59, 0
9, 45840, Note_on_c, 11, 55, 68
9, 46304, Note_on_c, 11, 55, 0
9, 46320, Note_on_c, 11, 55, 68
9, 46544, Note_on_c, 11, 55, 0
9, 46560, Note_on_c, 11, 60, 68
9, 46784, Note_on_c, 11, 60, 0
9, 46800, Note_on_c, 11, 64, 68
9, 46919, Note_on_c, 11, 64, 0
9, 46920, Note_on_c, 11, 62, 68
9, 47039, Note_on_c, 11, 62, 0
9, 47040, Note_on_c, 11, 60, 68
9, 47159, Note_on_c, 11, 60, 0
9, 47160, Note_on_c, 11, 59, 68
9, 47264, Note_on_c, 11, 59, 0
9, 47280, Note_on_c, 11, 60, 68
9, 47399, Note_on_c, 11, 60, 0
9, 47400, Note_on_c, 11, 62, 68
9, 47519, Note_on_c, 11, 62, 0
9, 47520, Note_on_c, 11, 64, 68
9, 47639, Note_on_c, 11, 64, 0
9, 47640, Note_on_c, 11, 65, 68
9, 47744, Note_on_c, 11, 65, 0
9, 47760, Note_on_c, 11, 67, 68
9, 48224, Note_on_c, 11, 67, 0
9, 48240, Note_on_c, 11, 69, 68
9, 48464, Note_on_c, 11, 69, 0
9, 48480, Note_on_c, 11, 65, 68
9, 48704, Note_on_c, 11, 65, 0
9, 48720, Note_on_c, 11, 62, 68
9, 48944, Note_on_c, 11, 62, 0
9, 48960, Note_on_c, 11, 60, 68
9, 49079, Note_on_c, 11, 60, 0
9, 49080, Note_on_c, 11, 59, 68
9, 49199, Note_on_c, 11, 59, 0
9, 49200, Note_on_c, 11, 57, 68
9, 49319, Note_on_c, 11, 57, 0
9, 49320, Note_on_c, 11, 55, 68
9, 49424, Note_on_c, 11, 55, 0
9, 49440, Note_on_c, 11, 60, 68
9, 49664, Note_on_c, 11, 60, 0
9, 49680, Note_on_c, 11, 64, 68
9, 49799, Note_on_c, 11, 64, 0
9, 49800, Note_on_c, 11, 62, 68
9, 49919, Note_on_c, 11, 62, 0
9, 49920, Note_on_c, 11, 60, 68
9, 50039, Note_on_c, 11, 60, 0
9, 50040, Note_on_c, 11, 59, 68
9, 50144, Note_on_c, 11, 59, 0
9, 50160, Note_on_c, 11, 62, 68
9, 50279, Note_on_c, 11, 62, 0
9, 50280, Note_on_c, 11, 60, 68
9, 50384, Note_on_c, 11, 60, 0
9, 50400, Note_on_c, 11, 59, 68
9, 50519, Note_on_c, 11, 59, 0
9, 50520, Note_on_c, 11, 57, 68
9, 50624, Note_on_c, 11, 57, 0
9, 50640, Note_on_c, 11, 62, 68
9, 51104, Note_on_c, 11, 62, 0
9, 51120, Note_on_c, 11, 60, 68
9, 51239, Note_on_c, 11, 60, 0
9, 51240, Note_on_c, 11, 59, 68
9, 51344, Note_on_c, 11, 59, 0
9, 51360, Note_on_c, 11, 57, 68
9, 51479, Note_on_c, 11, 57, 0
9, 51480, Note_on_c, 11, 59, 68
9, 51584, Note_on_c, 11, 59, 0
9, 51600, Note_on_c, 11, 55, 68
9, 52064, Note_on_c, 11, 55, 0
9, 52080, Note_on_c, 11, 62, 68
9, 52304, Note_on_c, 11, 62, 0
9, 52320, Note_on_c, 11, 59, 68
9, 52544, Note_on_c, 11, 59, 0
9, 52560, Note_on_c, 11, 60, 68
9, 52679, Note_on_c, 11, 60, 0
9, 52680, Note_on_c, 11, 59, 68
9, 52799, Note_on_c, 11, 59, 0
9, 52800, Note_on_c, 11, 57, 68
9, 52919, Note_on_c, 11, 57, 0
9, 52920, Note_on_c, 11, 55, 68
9, 53024, Note_on_c, 11, 55, 0
9, 53040, Note_on_c, 11, 64, 68
9, 53144, Note_on_c, 11, 64, 0
9, 53160, Note_on_c, 11, 65, 68
9, 53264, Note_on_c, 11, 65, 0
9, 53280, Note_on_c, 11, 67, 68
9, 53384, Note_on_c, 11, 67, 0
9, 53400, Note_on_c, 11, 69, 68
9, 53504, Note_on_c, 11, 69, 0
9, 53520, Note_on_c, 11, 70, 68
9, 53984, Note_on_c, 11, 70, 0
9, 54000, Note_on_c, 11, 69, 68
9, 54224, Note_on_c, 11, 69, 0
9, 54240, Note_on_c, 11, 67, 68
9, 54464, Note_on_c, 11, 67, 0
9, 54480, Note_on_c, 11, 65, 68
9, 54704, Note_on_c, 11, 65, 0
9, 54720, Note_on_c, 11, 67, 68
9, 54839, Note_on_c, 11, 67, 0
9, 54840, Note_on_c, 11, 65, 68
9, 54959, Note_on_c, 11, 65, 0
9, 54960, Note_on_c, 11, 64, 68
9, 55079, Note_on_c, 11, 64, 0
9, 55080, Note_on_c, 11, 62, 68
9, 55184, Note_on_c, 11, 62, 0
9, 55200, Note_on_c, 11, 61, 68
9, 55304, Note_on_c, 11, 61, 0
9, 55320, Note_on_c, 11, 62, 68
9, 55424, Note_on_c, 11, 62, 0
9, 55440, Note_on_c, 11, 64, 68
9, 55664, Note_on_c, 11, 64, 0
9, 55680, Note_on_c, 11, 69, 68
9, 56144, Note_on_c, 11, 69, 0
9, 56160, Note_on_c, 11, 67, 68
9, 56279, Note_on_c, 11, 67, 0
9, 56280, Note_on_c, 11, 65, 68
9, 56399, Note_on_c, 11, 65, 0
9, 56400, Note_on_c, 11, 64, 68
9, 56519, Note_on_c, 11, 64, 0
9, 56520, Note_on_c, 11, 62, 68
9, 56624, Note_on_c, 11, 62, 0
9, 56640, Note_on_c, 11, 61, 68
9, 56759, Note_on_c, 11, 61, 0
9, 56760, Note_on_c, 11, 62, 68
9, 56879, Note_on_c, 11, 62, 0
9, 56880, Note_on_c, 11, 64, 68
9, 56999, Note_on_c, 11, 64, 0
9, 57000, Note_on_c, 11, 65, 68
9, 57104, Note_on_c, 11, 65, 0
9, 57120, Note_on_c, 11, 67, 68
9, 57584, Note_on_c, 11, 67, 0
9, 57600, Note_on_c, 11, 65, 68
9, 57719, Note_on_c, 11, 65, 0
9, 57720, Note_on_c, 11, 64, 68
9, 57839, Note_on_c, 11, 64, 0
9, 57840, Note_on_c, 11, 62, 68
9, 57959, Note_on_c, 11, 62, 0
9, 57960, Note_on_c, 11, 61, 68
9, 58064, Note_on_c, 11, 61, 0
9, 58080, Note_on_c, 11, 62, 68
9, 58184, Note_on_c, 11, 62, 0
9, 58200, Note_on_c, 11, 57, 68
9, 58304, Note_on_c, 11, 57, 0
9, 58320, Note_on_c, 11, 65, 68
9, 58439, Note_on_c, 11, 65, 0
9, 58440, Note_on_c, 11, 64, 68
9, 58559, Note_on_c, 11, 64, 0
9, 58560, Note_on_c, 11, 62, 68
9, 58679, Note_on_c, 11, 62, 0
9, 58680, Note_on_c, 11, 60, 68
9, 58784, Note_on_c, 11, 60, 0
9, 58800, Note_on_c, 11, 58, 68
9, 58919, Note_on_c, 11, 58, 0
9, 58920, Note_on_c, 11, 62, 68
9, 59039, Note_on_c, 11, 62, 0
9, 59040, Note_on_c, 11, 67, 68
9, 59144, Note_on_c, 11, 67, 0
9, 59160, Note_on_c, 11, 64, 68
9, 59264, Note_on_c, 11, 64, 0
9, 59280, Note_on_c, 11, 65, 68
9, 59624, Note_on_c, 11, 65, 0
9, 59640, Note_on_c, 11, 62, 68
9, 59744, Note_on_c, 11, 62, 0
9, 59760, Note_on_c, 11, 65, 68
9, 59879, Note_on_c, 11, 65, 0
9, 59880, Note_on_c, 11, 64, 68
9, 59984, Note_on_c, 11, 64, 0
9, 60000, Note_on_c, 11, 62, 68
9, 60119, Note_on_c, 11, 62, 0
9, 60120, Note_on_c, 11, 61, 68
9, 60224, Note_on_c, 11, 61, 0
9, 60240, Note_on_c, 11, 62, 68
9, 60704, Note_on_c, 11, 62, 0
9, 60720, Note_on_c, 11, 57, 68
9, 60824, Note_on_c, 11, 57, 0
9, 60840, Note_on_c, 11, 59, 68
9, 60944, Note_on_c, 11, 59, 0
9, 60960, Note_on_c, 11, 60, 68
9, 61184, Note_on_c, 11, 60, 0
9, 61200, Note_on_c, 11, 62, 68
9, 61319, Note_on_c, 11, 62, 0
9, 61320, Note_on_c, 11, 60, 68
9, 61439, Note_on_c, 11, 60, 0
9, 61440, Note_on_c, 11, 59, 68
9, 61559, Note_on_c, 11, 59, 0
9, 61560, Note_on_c, 11, 57, 68
9, 61664, Note_on_c, 11, 57, 0
9, 61680, Note_on_c, 11, 59, 68
9, 61784, Note_on_c, 11, 59, 0
9, 61800, Note_on_c, 11, 57, 68
9, 61904, Note_on_c, 11, 57, 0
9, 61920, Note_on_c, 11, 55, 68
9, 62024, Note_on_c, 11, 55, 0
9, 62040, Note_on_c, 11, 57, 68
9, 62144, Note_on_c, 11, 57, 0
9, 62160, Note_on_c, 11, 59, 68
9, 62264, Note_on_c, 11, 59, 0
9, 62280, Note_on_c, 11, 60, 68
9, 62384, Note_on_c, 11, 60, 0
9, 62400, Note_on_c, 11, 62, 68
9, 62504, Note_on_c, 11, 62, 0
9, 62520, Note_on_c, 11, 64, 68
9, 62624, Note_on_c, 11, 64, 0
9, 62640, Note_on_c, 11, 65, 68
9, 62864, Note_on_c, 11, 65, 0
9, 62880, Note_on_c, 11, 64, 68
9, 63104, Note_on_c, 11, 64, 0
9, 63120, Note_on_c, 11, 62, 68
9, 63224, Note_on_c, 11, 62, 0
9, 63240, Note_on_c, 11, 60, 68
9, 63344, Note_on_c, 11, 60, 0
9, 63360, Note_on_c, 11, 59, 68
9, 63464, Note_on_c, 11, 59, 0
9, 63480, Note_on_c, 11, 60, 68
9, 63584, Note_on_c, 11, 60, 0
9, 63600, Note_on_c, 11, 62, 68
9, 63704, Note_on_c, 11, 62, 0
9, 63720, Note_on_c, 11, 64, 68
9, 63824, Note_on_c, 11, 64, 0
9, 63840, Note_on_c, 11, 65, 68
9, 63944, Note_on_c, 11, 65, 0
9, 63960, Note_on_c, 11, 67, 68
9, 64064, Note_on_c, 11, 67, 0
9, 64080, Note_on_c, 11, 69, 68
9, 64304, Note_on_c, 11, 69, 0
9, 64320, Note_on_c, 11, 67, 68
9, 64784, Note_on_c, 11, 67, 0
9, 64800, Note_on_c, 11, 58, 68
9, 64919, Note_on_c, 11, 58, 0
9, 64920, Note_on_c, 11, 57, 68
9, 65039, Note_on_c, 11, 57, 0
9, 65040, Note_on_c, 11, 58, 68
9, 65159, Note_on_c, 11, 58, 0
9, 65160, Note_on_c, 11, 55, 68
9, 65264, Note_on_c, 11, 55, 0
9, 65280, Note_on_c, 11, 57, 68
9, 65504, Note_on_c, 11, 57, 0
9, 65520, Note_on_c, 11, 62, 68
9, 65744, Note_on_c, 11, 62, 0
9, 65760, Note_on_c, 11, 59, 68
9, 65789, Note_on_c, 11, 59, 0
9, 65790, Note_on_c, 11, 60, 68
9, 65819, Note_on_c, 11, 60, 0
9, 65820, Note_on_c, 11, 59, 68
9, 65849, Note_on_c, 11, 59, 0
9, 65850, Note_on_c, 11, 60, 68
9, 65879, Note_on_c, 11, 60, 0
9, 65880, Note_on_c, 11, 59, 68
9, 65909, Note_on_c, 11, 59, 0
9, 65910, Note_on_c, 11, 60, 68
9, 65939, Note_on_c, 11, 60, 0
9, 65940, Note_on_c, 11, 57, 68
9, 65969, Note_on_c, 11, 57, 0
9, 65970, Note_on_c, 11, 59, 68
9, 65999, Note_on_c, 11, 59, 0
9, 66000, Note_on_c, 11, 60, 68
9, 66464, Note_on_c, 11, 60, 0
9, 66480, Note_on_c, 11, 62, 68
9, 66704, Note_on_c, 11, 62, 0
9, 66720, Note_on_c, 11, 59, 68
9, 66944, Note_on_c, 11, 59, 0
9, 66960, Note_on_c, 11, 60, 68
9, 67079, Note_on_c, 11, 60, 0
9, 67080, Note_on_c, 11, 59, 68
9, 67199, Note_on_c, 11, 59, 0
9, 67200, Note_on_c, 11, 57, 68
9, 67319, Note_on_c, 11, 57, 0
9, 67320, Note_on_c, 11, 55, 68
9, 67424, Note_on_c, 11, 55, 0
9, 67440, Note_on_c, 11, 64, 68
9, 67544, Note_on_c, 11, 64, 0
9, 67560, Note_on_c, 11, 65, 68
9, 67664, Note_on_c, 11, 65, 0
9, 67680, Note_on_c, 11, 67, 68
9, 67784, Note_on_c, 11, 67, 0
9, 67800, Note_on_c, 11, 69, 68
9, 67904, Note_on_c, 11, 69, 0
9, 67920, Note_on_c, 11, 70, 68
9, 68384, Note_on_c, 11, 70, 0
9, 68400, Note_on_c, 11, 69, 68
9, 68624, Note_on_c, 11, 69, 0
9, 68640, Note_on_c, 11, 67, 68
9, 68864, Note_on_c, 11, 67, 0
9, 68880, Note_on_c, 11, 65, 68
9, 69104, Note_on_c, 11, 65, 0
9, 69120, Note_on_c, 11, 67, 68
9, 69239, Note_on_c, 11, 67, 0
9, 69240, Note_on_c, 11, 65, 68
9, 69359, Note_on_c, 11, 65, 0
9, 69360, Note_on_c, 11, 64, 68
9, 69479, Note_on_c, 11, 64, 0
9, 69480, Note_on_c, 11, 62, 68
9, 69584, Note_on_c, 11, 62, 0
9, 69600, Note_on_c, 11, 61, 68
9, 69704, Note_on_c, 11, 61, 0
9, 69720, Note_on_c, 11, 62, 68
9, 69824, Note_on_c, 11, 62, 0
9, 69840, Note_on_c, 11, 64, 68
9, 70064, Note_on_c, 11, 64, 0
9, 70080, Note_on_c, 11, 69, 68
9, 70544, Note_on_c, 11, 69, 0
9, 70560, Note_on_c, 11, 67, 68
9, 70679, Note_on_c, 11, 67, 0
9, 70680, Note_on_c, 11, 65, 68
9, 70799, Note_on_c, 11, 65, 0
9, 70800, Note_on_c, 11, 64, 68
9, 70919, Note_on_c, 11, 64, 0
9, 70920, Note_on_c, 11, 62, 68
9, 71024, Note_on_c, 11, 62, 0
9, 71040, Note_on_c, 11, 61, 68
9, 71159, Note_on_c, 11, 61, 0
9, 71160, Note_on_c, 11, 62, 68
9, 71279, Note_on_c, 11, 62, 0
9, 71280, Note_on_c, 11, 64, 68
9, 71399, Note_on_c, 11, 64, 0
9, 71400, Note_on_c, 11, 65, 68
9, 71504, Note_on_c, 11, 65, 0
9, 71520, Note_on_c, 11, 67, 68
9, 71984, Note_on_c, 11, 67, 0
9, 72000, Note_on_c, 11, 65, 68
9, 72119, Note_on_c, 11, 65, 0
9, 72120, Note_on_c, 11, 64, 68
9, 72239, Note_on_c, 11, 64, 0
9, 72240, Note_on_c, 11, 62, 68
9, 72359, Note_on_c, 11, 62, 0
9, 72360, Note_on_c, 11, 61, 68
9, 72464, Note_on_c, 11, 61, 0
9, 72480, Note_on_c, 11, 62, 68
9, 72584, Note_on_c, 11, 62, 0
9, 72600, Note_on_c, 11, 57, 68
9, 72704, Note_on_c, 11, 57, 0
9, 72720, Note_on_c, 11, 65, 68
9, 72839, Note_on_c, 11, 65, 0
9, 72840, Note_on_c, 11, 64, 68
9, 72959, Note_on_c, 11, 64, 0
9, 72960, Note_on_c, 11, 62, 68
9, 73079, Note_on_c, 11, 62, 0
9, 73080, Note_on_c, 11, 60, 68
9, 73184, Note_on_c, 11, 60, 0
9, 73200, Note_on_c, 11, 58, 68
9, 73319, Note_on_c, 11, 58, 0
9, 73320, Note_on_c, 11, 62, 68
9, 73439, Note_on_c, 11, 62, 0
9, 73440, Note_on_c, 11, 67, 68
9, 73544, Note_on_c, 11, 67, 0
9, 73560, Note_on_c, 11, 64, 68
9, 73664, Note_on_c, 11, 64, 0
9, 73680, Note_on_c, 11, 65, 68
9, 74024, Note_on_c, 11, 65, 0
9, 74040, Note_on_c, 11, 62, 68
9, 74144, Note_on_c, 11, 62, 0
9, 74160, Note_on_c, 11, 65, 68
9, 74279, Note_on_c, 11, 65, 0
9, 74280, Note_on_c, 11, 64, 68
9, 74384, Note_on_c, 11, 64, 0
9, 74400, Note_on_c, 11, 62, 68
9, 74519, Note_on_c, 11, 62, 0
9, 74520, Note_on_c, 11, 61, 68
9, 74624, Note_on_c, 11, 61, 0
9, 74640, Note_on_c, 11, 62, 68
9, 75104, Note_on_c, 11, 62, 0
9, 75120, Note_on_c, 11, 57, 68
9, 75224, Note_on_c, 11, 57, 0
9, 75240, Note_on_c, 11, 59, 68
9, 75344, Note_on_c, 11, 59, 0
9, 75360, Note_on_c, 11, 60, 68
9, 75584, Note_on_c, 11, 60, 0
9, 75600, Note_on_c, 11, 62, 68
9, 75719, Note_on_c, 11, 62, 0
9, 75720, Note_on_c, 11, 60, 68
9, 75839, Note_on_c, 11, 60, 0
9, 75840, Note_on_c, 11, 59, 68
9, 75959, Note_on_c, 11, 59, 0
9, 75960, Note_on_c, 11, 57, 68
9, 76064, Note_on_c, 11, 57, 0
9, 76080, Note_on_c, 11, 59, 68
9, 76184, Note_on_c, 11, 59, 0
9, 76200, Note_on_c, 11, 57, 68
9, 76304, Note_on_c, 11, 57, 0
9, 76320, Note_on_c, 11, 55, 68
9, 76424, Note_on_c, 11, 55, 0
9, 76440, Note_on_c, 11, 57, 68
9, 76544, Note_on_c, 11, 57, 0
9, 76560, Note_on_c, 11, 59, 68
9, 76664, Note_on_c, 11, 59, 0
9, 76680, Note_on_c, 11, 60, 68
9, 76784, Note_on_c, 11, 60, 0
9, 76800, Note_on_c, 11, 62, 68
9, 76904, Note_on_c, 11, 62, 0
9, 76920, Note_on_c, 11, 64, 68
9, 77024, Note_on_c, 11, 64, 0
9, 77040, Note_on_c, 11, 65, 68
9, 77264, Note_on_c, 11, 65, 0
9, 77280, Note_on_c, 11, 64, 68
9, 77504, Note_on_c, 11, 64, 0
9, 77520, Note_on_c, 11, 62, 68
9, 77624, Note_on_c, 11, 62, 0
9, 77640, Note_on_c, 11, 60, 68
9, 77744, Note_on_c, 11, 60, 0
9, 77760, Note_on_c, 11, 59, 68
9, 77864, Note_on_c, 11, 59, 0
9, 77880, Note_on_c, 11, 60, 68
9, 77984, Note_on_c, 11, 60, 0
9, 78000, Note_on_c, 11, 62, 68
9, 78104, Note_on_c, 11, 62, 0
9, 78120, Note_on_c, 11, 64, 68
9, 78224, Note_on_c, 11, 64, 0
9, 78240, Note_on_c, 11, 65, 68
9, 78344, Note_on_c, 11, 65, 0
9, 78360, Note_on_c, 11, 67, 68
9, 78464, Note_on_c, 11, 67, 0
9, 78480, Note_on_c, 11, 69, 68
9, 78704, Note_on_c, 11, 69, 0
9, 78720, Note_on_c, 11, 67, 68
9, 79184, Note_on_c, 11, 67, 0
9, 79200, Note_on_c, 11, 58, 68
9, 79319, Note_on_c, 11, 58, 0
9, 79320, Note_on_c, 11, 57, 68
9, 79439, Note_on_c, 11, 57, 0
9, 79440, Note_on_c, 11, 58, 68
9, 79559, Note_on_c, 11, 58, 0
9, 79560, Note_on_c, 11, 55, 68
9, 79664, Note_on_c, 11, 55, 0
9, 79680, Note_on_c, 11, 57, 68
9, 79904, Note_on_c, 11, 57, 0
9, 79920, Note_on_c, 11, 62, 68
9, 80144, Note_on_c, 11, 62, 0
9, 80160, Note_on_c, 11, 59, 68
9, 80189, Note_on_c, 11, 59, 0
9, 80190, Note_on_c, 11, 60, 68
9, 80219, Note_on_c, 11, 60, 0
9, 80220, Note_on_c, 11, 59, 68
9, 80249, Note_on_c, 11, 59, 0
9, 80250, Note_on_c, 11, 60, 68
9, 80279, Note_on_c, 11, 60, 0
9, 80280, Note_on_c, 11, 59, 68
9, 80309, Note_on_c, 11, 59, 0
9, 80310, Note_on_c, 11, 60, 68
9, 80339, Note_on_c, 11, 60, 0
9, 80340, Note_on_c, 11, 57, 68
9, 80369, Note_on_c, 11, 57, 0
9, 80370, Note_on_c, 11, 59, 68
9, 80399, Note_on_c, 11, 59, 0
9, 80400, Note_on_c, 11, 60, 68
9, 80879, Note_on_c, 11, 60, 0
9, 81120, Note_on_c, 11, 67, 76
9, 81344, Note_on_c, 11, 67, 0
9, 81360, Note_on_c, 11, 72, 76
9, 81584, Note_on_c, 11, 72, 0
9, 81600, Note_on_c, 11, 76, 76
9, 81719, Note_on_c, 11, 76, 0
9, 81720, Note_on_c, 11, 74, 76
9, 81839, Note_on_c, 11, 74, 0
9, 81840, Note_on_c, 11, 72, 76
9, 81959, Note_on_c, 11, 72, 0
9, 81960, Note_on_c, 11, 71, 76
9, 82064, Note_on_c, 11, 71, 0
9, 82080, Note_on_c, 11, 72, 76
9, 82184, Note_on_c, 11, 72, 0
9, 82200, Note_on_c, 11, 74, 76
9, 82304, Note_on_c, 11, 74, 0
9, 82320, Note_on_c, 11, 76, 76
9, 82424, Note_on_c, 11, 76, 0
9, 82440, Note_on_c, 11, 77, 76
9, 82544, Note_on_c, 11, 77, 0
9, 82560, Note_on_c, 11, 79, 76
9, 83024, Note_on_c, 11, 79, 0
9, 83040, Note_on_c, 11, 81, 76
9, 83264, Note_on_c, 11, 81, 0
9, 83280, Note_on_c, 11, 77, 76
9, 83504, Note_on_c, 11, 77, 0
9, 83520, Note_on_c, 11, 74, 76
9, 83744, Note_on_c, 11, 74, 0
9, 83760, Note_on_c, 11, 72, 76
9, 83879, Note_on_c, 11, 72, 0
9, 83880, Note_on_c, 11, 71, 76
9, 83999, Note_on_c, 11, 71, 0
9, 84000, Note_on_c, 11, 69, 76
9, 84119, Note_on_c, 11, 69, 0
9, 84120, Note_on_c, 11, 67, 76
9, 84224, Note_on_c, 11, 67, 0
9, 84240, Note_on_c, 11, 72, 76
9, 84464, Note_on_c, 11, 72, 0
9, 84480, Note_on_c, 11, 76, 76
9, 84599, Note_on_c, 11, 76, 0
9, 84600, Note_on_c, 11, 74, 76
9, 84719, Note_on_c, 11, 74, 0
9, 84720, Note_on_c, 11, 72, 76
9, 84839, Note_on_c, 11, 72, 0
9, 84840, Note_on_c, 11, 71, 76
9, 84944, Note_on_c, 11, 71, 0
9, 84960, Note_on_c, 11, 74, 76
9, 85079, Note_on_c, 11, 74, 0
9, 85080, Note_on_c, 11, 72, 76
9, 85199, Note_on_c, 11, 72, 0
9, 85200, Note_on_c, 11, 71, 76
9, 85319, Note_on_c, 11, 71, 0
9, 85320, Note_on_c, 11, 69, 76
9, 85424, Note_on_c, 11, 69, 0
9, 85440, Note_on_c, 11, 74, 76
9, 85904, Note_on_c, 11, 74, 0
9, 85920, Note_on_c, 11, 72, 76
9, 86024, Note_on_c, 11, 72, 0
9, 86040, Note_on_c, 11, 71, 76
9, 86144, Note_on_c, 11, 71, 0
9, 86160, Note_on_c, 11, 69, 76
9, 86264, Note_on_c, 11, 69, 0
9, 86280, Note_on_c, 11, 71, 76
9, 86384, Note_on_c, 11, 71, 0
9, 86400, Note_on_c, 11, 67, 76
9, 86864, Note_on_c, 11, 67, 0
9, 86880, Note_on_c, 11, 67, 76
9, 87104, Note_on_c, 11, 67, 0
9, 87120, Note_on_c, 11, 72, 76
9, 87344, Note_on_c, 11, 72, 0
9, 87360, Note_on_c, 11, 76, 76
9, 87479, Note_on_c, 11, 76, 0
9, 87480, Note_on_c, 11, 74, 76
9, 87599, Note_on_c, 11, 74, 0
9, 87600, Note_on_c, 11, 72, 76
9, 87719, Note_on_c, 11, 72, 0
9, 87720, Note_on_c, 11, 71, 76
9, 87824, Note_on_c, 11, 71, 0
9, 87840, Note_on_c, 11, 72, 76
9, 87944, Note_on_c, 11, 72, 0
9, 87960, Note_on_c, 11, 74, 76
9, 88064, Note_on_c, 11, 74, 0
9, 88080, Note_on_c, 11, 76, 76
9, 88184, Note_on_c, 11, 76, 0
9, 88200, Note_on_c, 11, 77, 76
9, 88304, Note_on_c, 11, 77, 0
9, 88320, Note_on_c, 11, 79, 76
9, 88784, Note_on_c, 11, 79, 0
9, 88800, Note_on_c, 11, 81, 76
9, 89024, Note_on_c, 11, 81, 0
9, 89040, Note_on_c, 11, 77, 76
9, 89264, Note_on_c, 11, 77, 0
9, 89280, Note_on_c, 11, 74, 76
9, 89504, Note_on_c, 11, 74, 0
9, 89520, Note_on_c, 11, 72, 76
9, 89639, Note_on_c, 11, 72, 0
9, 89640, Note_on_c, 11, 71, 76
9, 89759, Note_on_c, 11, 71, 0
9, 89760, Note_on_c, 11, 69, 76
9, 89879, Note_on_c, 11, 69, 0
9, 89880, Note_on_c, 11, 67, 76
9, 89984, Note_on_c, 11, 67, 0
9, 90000, Note_on_c, 11, 72, 76
9, 90224, Note_on_c, 11, 72, 0
9, 90240, Note_on_c, 11, 76, 76
9, 90359, Note_on_c, 11, 76, 0
9, 90360, Note_on_c, 11, 74, 76
9, 90479, Note_on_c, 11, 74, 0
9, 90480, Note_on_c, 11, 72, 76
9, 90599, Note_on_c, 11, 72, 0
9, 90600, Note_on_c, 11, 71, 76
9, 90704, Note_on_c, 11, 71, 0
9, 90720, Note_on_c, 11, 74, 76
9, 90839, Note_on_c, 11, 74, 0
9, 90840, Note_on_c, 11, 72, 76
9, 90959, Note_on_c, 11, 72, 0
9, 90960, Note_on_c, 11, 71, 76
9, 91079, Note_on_c, 11, 71, 0
9, 91080, Note_on_c, 11, 69, 76
9, 91184, Note_on_c, 11, 69, 0
9, 91200, Note_on_c, 11, 74, 76
9, 91664, Note_on_c, 11, 74, 0
9, 91680, Note_on_c, 11, 72, 76
9, 91784, Note_on_c, 11, 72, 0
9, 91800, Note_on_c, 11, 71, 76
9, 91904, Note_on_c, 11, 71, 0
9, 91920, Note_on_c, 11, 69, 76
9, 92024, Note_on_c, 11, 69, 0
9, 92040, Note_on_c, 11, 71, 76
9, 92144, Note_on_c, 11, 71, 0
9, 92160, Note_on_c, 11, 67, 76
9, 92624, Note_on_c, 11, 67, 0
9, 92640, Note_on_c, 11, 74, 76
9, 92864, Note_on_c, 11, 74, 0
9, 92880, Note_on_c, 11, 71, 76
9, 93104, Note_on_c, 11, 71, 0
9, 93120, Note_on_c, 11, 72, 76
9, 93239, Note_on_c, 11, 72, 0
9, 93240, Note_on_c, 11, 71, 76
9, 93359, Note_on_c, 11, 71, 0
9, 93360, Note_on_c, 11, 69, 76
9, 93479, Note_on_c, 11, 69, 0
9, 93480, Note_on_c, 11, 67, 76
9, 93584, Note_on_c, 11, 67, 0
9, 93600, Note_on_c, 11, 76, 76
9, 93719, Note_on_c, 11, 76, 0
9, 93720, Note_on_c, 11, 77, 76
9, 93839, Note_on_c, 11, 77, 0
9, 93840, Note_on_c, 11, 79, 76
9, 93959, Note_on_c, 11, 79, 0
9, 93960, Note_on_c, 11, 81, 76
9, 94064, Note_on_c, 11, 81, 0
9, 94080, Note_on_c, 11, 82, 76
9, 94544, Note_on_c, 11, 82, 0
9, 94560, Note_on_c, 11, 81, 76
9, 94784, Note_on_c, 11, 81, 0
9, 94800, Note_on_c, 11, 79, 76
9, 95024, Note_on_c, 11, 79, 0
9, 95040, Note_on_c, 11, 77, 76
9, 95264, Note_on_c, 11, 77, 0
9, 95280, Note_on_c, 11, 79, 76
9, 95399, Note_on_c, 11, 79, 0
9, 95400, Note_on_c, 11, 77, 76
9, 95519, Note_on_c, 11, 77, 0
9, 95520, Note_on_c, 11, 76, 76
9, 95639, Note_on_c, 11, 76, 0
9, 95640, Note_on_c, 11, 74, 76
9, 95744, Note_on_c, 11, 74, 0
9, 95760, Note_on_c, 11, 73, 76
9, 95864, Note_on_c, 11, 73, 0
9, 95880, Note_on_c, 11, 74, 76
9, 95984, Note_on_c, 11, 74, 0
9, 96000, Note_on_c, 11, 76, 76
9, 96224, Note_on_c, 11, 76, 0
9, 96240, Note_on_c, 11, 81, 76
9, 96704, Note_on_c, 11, 81, 0
9, 96720, Note_on_c, 11, 79, 76
9, 96839, Note_on_c, 11, 79, 0
9, 96840, Note_on_c, 11, 77, 76
9, 96959, Note_on_c, 11, 77, 0
9, 96960, Note_on_c, 11, 76, 76
9, 97079, Note_on_c, 11, 76, 0
9, 97080, Note_on_c, 11, 74, 76
9, 97184, Note_on_c, 11, 74, 0
9, 97200, Note_on_c, 11, 73, 76
9, 97319, Note_on_c, 11, 73, 0
9, 97320, Note_on_c, 11, 74, 76
9, 97439, Note_on_c, 11, 74, 0
9, 97440, Note_on_c, 11, 76, 76
9, 97559, Note_on_c, 11, 76, 0
9, 97560, Note_on_c, 11, 77, 76
9, 97664, Note_on_c, 11, 77, 0
9, 97680, Note_on_c, 11, 79, 76
9, 98144, Note_on_c, 11, 79, 0
9, 98160, Note_on_c, 11, 77, 76
9, 98279, Note_on_c, 11, 77, 0
9, 98280, Note_on_c, 11, 76, 76
9, 98399, Note_on_c, 11, 76, 0
9, 98400, Note_on_c, 11, 74, 76
9, 98519, Note_on_c, 11, 74, 0
9, 98520, Note_on_c, 11, 73, 76
9, 98624, Note_on_c, 11, 73, 0
9, 98640, Note_on_c, 11, 74, 76
9, 98744, Note_on_c, 11, 74, 0
9, 98760, Note_on_c, 11, 69, 76
9, 98864, Note_on_c, 11, 69, 0
9, 98880, Note_on_c, 11, 77, 76
9, 98999, Note_on_c, 11, 77, 0
9, 99000, Note_on_c, 11, 76, 76
9, 99119, Note_on_c, 11, 76, 0
9, 99120, Note_on_c, 11, 74, 76
9, 99239, Note_on_c, 11, 74, 0
9, 99240, Note_on_c, 11, 72, 76
9, 99344, Note_on_c, 11, 72, 0
9, 99360, Note_on_c, 11, 70, 76
9, 99479, Note_on_c, 11, 70, 0
9, 99480, Note_on_c, 11, 74, 76
9, 99584, Note_on_c, 11, 74, 0
9, 99600, Note_on_c, 11, 79, 76
9, 99704, Note_on_c, 11, 79, 0
9, 99720, Note_on_c, 11, 76, 76
9, 99824, Note_on_c, 11, 76, 0
9, 99840, Note_on_c, 11, 77, 76
9, 100184, Note_on_c, 11, 77, 0
9, 100200, Note_on_c, 11, 74, 76
9, 100304, Note_on_c, 11, 74, 0
9, 100320, Note_on_c, 11, 77, 76
9, 100439, Note_on_c, 11, 77, 0
9, 100440, Note_on_c, 11, 76, 76
9, 100544, Note_on_c, 11, 76, 0
9, 100560, Note_on_c, 11, 74, 76
9, 100679, Note_on_c, 11, 74, 0
9, 100680, Note_on_c, 11, 73, 76
9, 100784, Note_on_c, 11, 73, 0
9, 100800, Note_on_c, 11, 74, 76
9, 101264, Note_on_c, 11, 74, 0
9, 101280, Note_on_c, 11, 69, 76
9, 101384, Note_on_c, 11, 69, 0
9, 101400, Note_on_c, 11, 71, 76
9, 101504, Note_on_c, 11, 71, 0
9, 101520, Note_on_c, 11, 72, 76
9, 101744, Note_on_c, 11, 72, 0
9, 101760, Note_on_c, 11, 74, 76
9, 101879, Note_on_c, 11, 74, 0
9, 101880, Note_on_c, 11, 72, 76
9, 101999, Note_on_c, 11, 72, 0
9, 102000, Note_on_c, 11, 71, 76
9, 102119, Note_on_c, 11, 71, 0
9, 102120, Note_on_c, 11, 69, 76
9, 102224, Note_on_c, 11, 69, 0
9, 102240, Note_on_c, 11, 71, 76
9, 102344, Note_on_c, 11, 71, 0
9, 102360, Note_on_c, 11, 69, 76
9, 102464, Note_on_c, 11, 69, 0
9, 102480, Note_on_c, 11, 67, 76
9, 102584, Note_on_c, 11, 67, 0
9, 102600, Note_on_c, 11, 69, 76
9, 102704, Note_on_c, 11, 69, 0
9, 102720, Note_on_c, 11, 71, 76
9, 102824, Note_on_c, 11, 71, 0
9, 102840, Note_on_c, 11, 72, 76
9, 102944, Note_on_c, 11, 72, 0
9, 102960, Note_on_c, 11, 74, 76
9, 103064, Note_on_c, 11, 74, 0
9, 103080, Note_on_c, 11, 76, 76
9, 103184, Note_on_c, 11, 76, 0
9, 103200, Note_on_c, 11, 77, 76
9, 103424, Note_on_c, 11, 77, 0
9, 103440, Note_on_c, 11, 76, 76
9, 103664, Note_on_c, 11, 76, 0
9, 103680, Note_on_c, 11, 74, 76
9, 103784, Note_on_c, 11, 74, 0
9, 103800, Note_on_c, 11, 72, 76
9, 103904, Note_on_c, 11, 72, 0
9, 103920, Note_on_c, 11, 71, 76
9, 104024, Note_on_c, 11, 71, 0
9, 104040, Note_on_c, 11, 72, 76
9, 104144, Note_on_c, 11, 72, 0
9, 104160, Note_on_c, 11, 74, 76
9, 104264, Note_on_c, 11, 74, 0
9, 104280, Note_on_c, 11, 76, 76
9, 104384, Note_on_c, 11, 76, 0
9, 104400, Note_on_c, 11, 77, 76
9, 104504, Note_on_c, 11, 77, 0
9, 104520, Note_on_c, 11, 79, 76
9, 104624, Note_on_c, 11, 79, 0
9, 104640, Note_on_c, 11, 81, 76
9, 104864, Note_on_c, 11, 81, 0
9, 104880, Note_on_c, 11, 79, 76
9, 105344, Note_on_c, 11, 79, 0
9, 105360, Note_on_c, 11, 70, 76
9, 105464, Note_on_c, 11, 70, 0
9, 105480, Note_on_c, 11, 69, 76
9, 105584, Note_on_c, 11, 69, 0
9, 105600, Note_on_c, 11, 70, 76
9, 105704, Note_on_c, 11, 70, 0
9, 105720, Note_on_c, 11, 67, 76
9, 105824, Note_on_c, 11, 67, 0
9, 105840, Note_on_c, 11, 69, 76
9, 106064, Note_on_c, 11, 69, 0
9, 106080, Note_on_c, 11, 74, 76
9, 106304, Note_on_c, 11, 74, 0
9, 106320, Note_on_c, 11, 71, 76
9, 106544, Note_on_c, 11, 71, 0
9, 106560, Note_on_c, 11, 72, 76
9, 107024, Note_on_c, 11, 72, 0
9, 107040, Note_on_c, 11, 74, 76
9, 107264, Note_on_c, 11, 74, 0
9, 107280, Note_on_c, 11, 71, 76
9, 107504, Note_on_c, 11, 71, 0
9, 107520, Note_on_c, 11, 72, 76
9, 107639, Note_on_c, 11, 72, 0
9, 107640, Note_on_c, 11, 71, 76
9, 107759, Note_on_c, 11, 71, 0
9, 107760, Note_on_c, 11, 69, 76
9, 107879, Note_on_c, 11, 69, 0
9, 107880, Note_on_c, 11, 67, 76
9, 107984, Note_on_c, 11, 67, 0
9, 108000, Note_on_c, 11, 76, 76
9, 108119, Note_on_c, 11, 76, 0
9, 108120, Note_on_c, 11, 77, 76
9, 108239, Note_on_c, 11, 77, 0
9, 108240, Note_on_c, 11, 79, 76
9, 108359, Note_on_c, 11, 79, 0
9, 108360, Note_on_c, 11, 81, 76
9, 108464, Note_on_c, 11, 81, 0
9, 108480, Note_on_c, 11, 82, 76
9, 108944, Note_on_c, 11, 82, 0
9, 108960, Note_on_c, 11, 81, 76
9, 109184, Note_on_c, 11, 81, 0
9, 109200, Note_on_c, 11, 79, 76
9, 109424, Note_on_c, 11, 79, 0
9, 109440, Note_on_c, 11, 77, 76
9, 109664, Note_on_c, 11, 77, 0
9, 109680, Note_on_c, 11, 79, 76
9, 109799, Note_on_c, 11, 79, 0
9, 109800, Note_on_c, 11, 77, 76
9, 109919, Note_on_c, 11, 77, 0
9, 109920, Note_on_c, 11, 76, 76
9, 110039, Note_on_c, 11, 76, 0
9, 110040, Note_on_c, 11, 74, 76
9, 110144, Note_on_c, 11, 74, 0
9, 110160, Note_on_c, 11, 73, 76
9, 110264, Note_on_c, 11, 73, 0
9, 110280, Note_on_c, 11, 74, 76
9, 110384, Note_on_c, 11, 74, 0
9, 110400, Note_on_c, 11, 76, 76
9, 110624, Note_on_c, 11, 76, 0
9, 110640, Note_on_c, 11, 81, 76
9, 111104, Note_on_c, 11, 81, 0
9, 111120, Note_on_c, 11, 79, 76
9, 111239, Note_on_c, 11, 79, 0
9, 111240, Note_on_c, 11, 77, 76
9, 111359, Note_on_c, 11, 77, 0
9, 111360, Note_on_c, 11, 76, 76
9, 111479, Note_on_c, 11, 76, 0
9, 111480, Note_on_c, 11, 74, 76
9, 111584, Note_on_c, 11, 74, 0
9, 111600, Note_on_c, 11, 73, 76
9, 111719, Note_on_c, 11, 73, 0
9, 111720, Note_on_c, 11, 74, 76
9, 111839, Note_on_c, 11, 74, 0
9, 111840, Note_on_c, 11, 76, 76
9, 111959, Note_on_c, 11, 76, 0
9, 111960, Note_on_c, 11, 77, 76
9, 112064, Note_on_c, 11, 77, 0
9, 112080, Note_on_c, 11, 79, 76
9, 112544, Note_on_c, 11, 79, 0
9, 112560, Note_on_c, 11, 77, 76
9, 112679, Note_on_c, 11, 77, 0
9, 112680, Note_on_c, 11, 76, 76
9, 112799, Note_on_c, 11, 76, 0
9, 112800, Note_on_c, 11, 74, 76
9, 112919, Note_on_c, 11, 74, 0
9, 112920, Note_on_c, 11, 73, 76
9, 113024, Note_on_c, 11, 73, 0
9, 113040, Note_on_c, 11, 74, 76
9, 113144, Note_on_c, 11, 74, 0
9, 113160, Note_on_c, 11, 69, 76
9, 113264, Note_on_c, 11, 69, 0
9, 113280, Note_on_c, 11, 77, 76
9, 113399, Note_on_c, 11, 77, 0
9, 113400, Note_on_c, 11, 76, 76
9, 113519, Note_on_c, 11, 76, 0
9, 113520, Note_on_c, 11, 74, 76
9, 113639, Note_on_c, 11, 74, 0
9, 113640, Note_on_c, 11, 72, 76
9, 113744, Note_on_c, 11, 72, 0
9, 113760, Note_on_c, 11, 70, 76
9, 113879, Note_on_c, 11, 70, 0
9, 113880, Note_on_c, 11, 74, 76
9, 113984, Note_on_c, 11, 74, 0
9, 114000, Note_on_c, 11, 79, 76
9, 114104, Note_on_c, 11, 79, 0
9, 114120, Note_on_c, 11, 76, 76
9, 114224, Note_on_c, 11, 76, 0
9, 114240, Note_on_c, 11, 77, 76
9, 114584, Note_on_c, 11, 77, 0
9, 114600, Note_on_c, 11, 74, 76
9, 114704, Note_on_c, 11, 74, 0
9, 114720, Note_on_c, 11, 77, 76
9, 114839, Note_on_c, 11, 77, 0
9, 114840, Note_on_c, 11, 76, 76
9, 114944, Note_on_c, 11, 76, 0
9, 114960, Note_on_c, 11, 74, 76
9, 115079, Note_on_c, 11, 74, 0
9, 115080, Note_on_c, 11, 73, 76
9, 115184, Note_on_c, 11, 73, 0
9, 115200, Note_on_c, 11, 74, 76
9, 115664, Note_on_c, 11, 74, 0
9, 115680, Note_on_c, 11, 69, 76
9, 115784, Note_on_c, 11, 69, 0
9, 115800, Note_on_c, 11, 71, 76
9, 115904, Note_on_c, 11, 71, 0
9, 115920, Note_on_c, 11, 72, 76
9, 116144, Note_on_c, 11, 72, 0
9, 116160, Note_on_c, 11, 74, 76
9, 116279, Note_on_c, 11, 74, 0
9, 116280, Note_on_c, 11, 72, 76
9, 116399, Note_on_c, 11, 72, 0
9, 116400, Note_on_c, 11, 71, 76
9, 116519, Note_on_c, 11, 71, 0
9, 116520, Note_on_c, 11, 69, 76
9, 116624, Note_on_c, 11, 69, 0
9, 116640, Note_on_c, 11, 71, 76
9, 116744, Note_on_c, 11, 71, 0
9, 116760, Note_on_c, 11, 69, 76
9, 116864, Note_on_c, 11, 69, 0
9, 116880, Note_on_c, 11, 67, 76
9, 116984, Note_on_c, 11, 67, 0
9, 117000, Note_on_c, 11, 69, 76
9, 117104, Note_on_c, 11, 69, 0
9, 117120, Note_on_c, 11, 71, 76
9, 117224, Note_on_c, 11, 71, 0
9, 117240, Note_on_c, 11, 72, 76
9, 117344, Note_on_c, 11, 72, 0
9, 117360, Note_on_c, 11, 74, 76
9, 117464, Note_on_c, 11, 74, 0
9, 117480, Note_on_c, 11, 76, 76
9, 117584, Note_on_c, 11, 76, 0
9, 117600, Note_on_c, 11, 77, 76
9, 117824, Note_on_c, 11, 77, 0
9, 117840, Note_on_c, 11, 76, 76
9, 118064, Note_on_c, 11, 76, 0
9, 118080, Note_on_c, 11, 74, 76
9, 118184, Note_on_c, 11, 74, 0
9, 118200, Note_on_c, 11, 72, 76
9, 118304, Note_on_c, 11, 72, 0
9, 118320, Note_on_c, 11, 71, 76
9, 118424, Note_on_c, 11, 71, 0
9, 118440, Note_on_c, 11, 72, 76
9, 118544, Note_on_c, 11, 72, 0
9, 118560, Note_on_c, 11, 74, 76
9, 118664, Note_on_c, 11, 74, 0
9, 118680, Note_on_c, 11, 76, 76
9, 118784, Note_on_c, 11, 76, 0
9, 118800, Note_on_c, 11, 77, 76
9, 118904, Note_on_c, 11, 77, 0
9, 118920, Note_on_c, 11, 79, 76
9, 119024, Note_on_c, 11, 79, 0
9, 119040, Note_on_c, 11, 81, 76
9, 119264, Note_on_c, 11, 81, 0
9, 119280, Note_on_c, 11, 79, 76
9, 119744, Note_on_c, 11, 79, 0
9, 119760, Note_on_c, 11, 70, 76
9, 119864, Note_on_c, 11, 70, 0
9, 119880, Note_on_c, 11, 69, 76
9, 119984, Note_on_c, 11, 69, 0
9, 120000, Note_on_c, 11, 70, 76
9, 120104, Note_on_c, 11, 70, 0
9, 120120, Note_on_c, 11, 67, 76
9, 120224, Note_on_c, 11, 67, 0
9, 120240, Note_on_c, 11, 69, 76
9, 120464, Note_on_c, 11, 69, 0
9, 120480, Note_on_c, 11, 74, 76
9, 120704, Note_on_c, 11, 74, 0
9, 120720, Note_on_c, 11, 71, 76
9, 120944, Note_on_c, 11, 71, 0
9, 120960, Note_on_c, 11, 72, 76
9, 121439, Note_on_c, 11, 72, 0
9, 121439, End_track
10, 0, Start_track
10, 0, Title_t, "Violin II"
10, 0, MIDI_port, 0
10, 0, Program_c, 12, 48
10, 0, Control_c, 12, 10, 24
10, 0, Control_c, 12, 11, 127
10, 0, Control_c, 12, 7, 96
10, 0, Note_on_c, 12, 64, 76
10, 224, Note_on_c, 12, 64, 0
10, 240, Note_on_c, 12, 64, 76
10, 464, Note_on_c, 12, 64, 0
10, 480, Note_on_c, 12, 67, 76
10, 599, Note_on_c, 12, 67, 0
10, 600, Note_on_c, 12, 65, 76
10, 719, Note_on_c, 12, 65, 0
10, 720, Note_on_c, 12, 64, 76
10, 839, Note_on_c, 12, 64, 0
10, 840, Note_on_c, 12, 62, 76
10, 944, Note_on_c, 12, 62, 0
10, 960, Note_on_c, 12, 64, 76
10, 1064, Note_on_c, 12, 64, 0
10, 1080, Note_on_c, 12, 65, 76
10, 1184, Note_on_c, 12, 65, 0
10, 1200, Note_on_c, 12, 67, 76
10, 1304, Note_on_c, 12, 67, 0
10, 1320, Note_on_c, 12, 69, 76
10, 1424, Note_on_c, 12, 69, 0
10, 1440, Note_on_c, 12, 71, 76
10, 1664, Note_on_c, 12, 71, 0
10, 1680, Note_on_c, 12, 72, 76
10, 2144, Note_on_c, 12, 72, 0
10, 2160, Note_on_c, 12, 72, 76
10, 2384, Note_on_c, 12, 72, 0
10, 2400, Note_on_c, 12, 71, 76
10, 2624, Note_on_c, 12, 71, 0
10, 2640, Note_on_c, 12, 72, 76
10, 2864, Note_on_c, 12, 72, 0
10, 2880, Note_on_c, 12, 74, 76
10, 3104, Note_on_c, 12, 74, 0
10, 3120, Note_on_c, 12, 67, 76
10, 3584, Note_on_c, 12, 67, 0
10, 3600, Note_on_c, 12, 67, 76
10, 3824, Note_on_c, 12, 67, 0
10, 3840, Note_on_c, 12, 69, 76
10, 4304, Note_on_c, 12, 69, 0
10, 4320, Note_on_c, 12, 69, 76
10, 4544, Note_on_c, 12, 69, 0
10, 4560, Note_on_c, 12, 71, 76
10, 4784, Note_on_c, 12, 71, 0
10, 4800, Note_on_c, 12, 67, 76
10, 5024, Note_on_c, 12, 67, 0
10, 5040, Note_on_c, 12, 66, 76
10, 5264, Note_on_c, 12, 66, 0
10, 5280, Note_on_c, 12, 62, 76
10, 5744, Note_on_c, 12, 62, 0
10, 5760, Note_on_c, 12, 64, 76
10, 5984, Note_on_c, 12, 64, 0
10, 6000, Note_on_c, 12, 64, 76
10, 6224, Note_on_c, 12, 64, 0
10, 6240, Note_on_c, 12, 67, 76
10, 6359, Note_on_c, 12, 67, 0
10, 6360, Note_on_c, 12, 65, 76
10, 6479, Note_on_c, 12, 65, 0
10, 6480, Note_on_c, 12, 64, 76
10, 6599, Note_on_c, 12, 64, 0
10, 6600, Note_on_c, 12, 62, 76
10, 6704, Note_on_c, 12, 62, 0
10, 6720, Note_on_c, 12, 64, 76
10, 6824, Note_on_c, 12, 64, 0
10, 6840, Note_on_c, 12, 65, 76
10, 6944, Note_on_c, 12, 65, 0
10, 6960, Note_on_c, 12, 67, 76
10, 7064, Note_on_c, 12, 67, 0
10, 7080, Note_on_c, 12, 69, 76
10, 7184, Note_on_c, 12, 69, 0
10, 7200, Note_on_c, 12, 71, 76
10, 7424, Note_on_c, 12, 71, 0
10, 7440, Note_on_c, 12, 72, 76
10, 7904, Note_on_c, 12, 72, 0
10, 7920, Note_on_c, 12, 72, 76
10, 8144, Note_on_c, 12, 72, 0
10, 8160, Note_on_c, 12, 71, 76
10, 8384, Note_on_c, 12, 71, 0
10, 8400, Note_on_c, 12, 72, 76
10, 8624, Note_on_c, 12, 72, 0
10, 8640, Note_on_c, 12, 74, 76
10, 8864, Note_on_c, 12, 74, 0
10, 8880, Note_on_c, 12, 67, 76
10, 9344, Note_on_c, 12, 67, 0
10, 9360, Note_on_c, 12, 67, 76
10, 9584, Note_on_c, 12, 67, 0
10, 9600, Note_on_c, 12, 69, 76
10, 10064, Note_on_c, 12, 69, 0
10, 10080, Note_on_c, 12, 69, 76
10, 10304, Note_on_c, 12, 69, 0
10, 10320, Note_on_c, 12, 71, 76
10, 10544, Note_on_c, 12, 71, 0
10, 10560, Note_on_c, 12, 67, 76
10, 10784, Note_on_c, 12, 67, 0
10, 10800, Note_on_c, 12, 66, 76
10, 11024, Note_on_c, 12, 66, 0
10, 11040, Note_on_c, 12, 62, 76
10, 11504, Note_on_c, 12, 62, 0
10, 11520, Note_on_c, 12, 71, 76
10, 11744, Note_on_c, 12, 71, 0
10, 11760, Note_on_c, 12, 67, 76
10, 12224, Note_on_c, 12, 67, 0
10, 12240, Note_on_c, 12, 67, 76
10, 12464, Note_on_c, 12, 67, 0
10, 12480, Note_on_c, 12, 67, 76
10, 12704, Note_on_c, 12, 67, 0
10, 12720, Note_on_c, 12, 76, 76
10, 12944, Note_on_c, 12, 76, 0
10, 12960, Note_on_c, 12, 74, 76
10, 13184, Note_on_c, 12, 74, 0
10, 13200, Note_on_c, 12, 73, 76
10, 13424, Note_on_c, 12, 73, 0
10, 13440, Note_on_c, 12, 76, 76
10, 13664, Note_on_c, 12, 76, 0
10, 13680, Note_on_c, 12, 73, 76
10, 13904, Note_on_c, 12, 73, 0
10, 13920, Note_on_c, 12, 74, 76
10, 14384, Note_on_c, 12, 74, 0
10, 14400, Note_on_c, 12, 67, 76
10, 14624, Note_on_c, 12, 67, 0
10, 14640, Note_on_c, 12, 69, 76
10, 14879, Note_on_c, 12, 69, 0
10, 15120, Note_on_c, 12, 69, 76
10, 15224, Note_on_c, 12, 69, 0
10, 15240, Note_on_c, 12, 71, 76
10, 15344, Note_on_c, 12, 71, 0
10, 15360, Note_on_c, 12, 73, 76
10, 15464, Note_on_c, 12, 73, 0
10, 15480, Note_on_c, 12, 74, 76
10, 15584, Note_on_c, 12, 74, 0
10, 15600, Note_on_c, 12, 76, 76
10, 15824, Note_on_c, 12, 76, 0
10, 15840, Note_on_c, 12, 81, 76
10, 16304, Note_on_c, 12, 81, 0
10, 16320, Note_on_c, 12, 79, 76
10, 16439, Note_on_c, 12, 79, 0
10, 16440, Note_on_c, 12, 77, 76
10, 16559, Note_on_c, 12, 77, 0
10, 16560, Note_on_c, 12, 76, 76
10, 16679, Note_on_c, 12, 76, 0
10, 16680, Note_on_c, 12, 74, 76
10, 16784, Note_on_c, 12, 74, 0
10, 16800, Note_on_c, 12, 73, 76
10, 17024, Note_on_c, 12, 73, 0
10, 17040, Note_on_c, 12, 69, 76
10, 17279, Note_on_c, 12, 69, 0
10, 17520, Note_on_c, 12, 65, 76
10, 17984, Note_on_c, 12, 65, 0
10, 18000, Note_on_c, 12, 65, 76
10, 18224, Note_on_c, 12, 65, 0
10, 18240, Note_on_c, 12, 67, 76
10, 18464, Note_on_c, 12, 67, 0
10, 18480, Note_on_c, 12, 69, 76
10, 18704, Note_on_c, 12, 69, 0
10, 18720, Note_on_c, 12, 69, 76
10, 18944, Note_on_c, 12, 69, 0
10, 18960, Note_on_c, 12, 74, 76
10, 19184, Note_on_c, 12, 74, 0
10, 19200, Note_on_c, 12, 70, 76
10, 19424, Note_on_c, 12, 70, 0
10, 19440, Note_on_c, 12, 69, 76
10, 19664, Note_on_c, 12, 69, 0
10, 19680, Note_on_c, 12, 69, 76
10, 20144, Note_on_c, 12, 69, 0
10, 20160, Note_on_c, 12, 66, 76
10, 20384, Note_on_c, 12, 66, 0
10, 20400, Note_on_c, 12, 67, 76
10, 20624, Note_on_c, 12, 67, 0
10, 20640, Note_on_c, 12, 69, 76
10, 20864, Note_on_c, 12, 69, 0
10, 20880, Note_on_c, 12, 66, 76
10, 21104, Note_on_c, 12, 66, 0
10, 21120, Note_on_c, 12, 67, 76
10, 21584, Note_on_c, 12, 67, 0
10, 21600, Note_on_c, 12, 65, 76
10, 22064, Note_on_c, 12, 65, 0
10, 22080, Note_on_c, 12, 71, 76
10, 22304, Note_on_c, 12, 71, 0
10, 22320, Note_on_c, 12, 72, 76
10, 22544, Note_on_c, 12, 72, 0
10, 22560, Note_on_c, 12, 71, 76
10, 22664, Note_on_c, 12, 71, 0
10, 22680, Note_on_c, 12, 69, 76
10, 22784, Note_on_c, 12, 69, 0
10, 22800, Note_on_c, 12, 67, 76
10, 22904, Note_on_c, 12, 67, 0
10, 22920, Note_on_c, 12, 69, 76
10, 23024, Note_on_c, 12, 69, 0
10, 23040, Note_on_c, 12, 71, 76
10, 23144, Note_on_c, 12, 71, 0
10, 23160, Note_on_c, 12, 67, 76
10, 23264, Note_on_c, 12, 67, 0
10, 23280, Note_on_c, 12, 72, 76
10, 23744, Note_on_c, 12, 72, 0
10, 23760, Note_on_c, 12, 71, 76
10, 23984, Note_on_c, 12, 71, 0
10, 24000, Note_on_c, 12, 72, 76
10, 24224, Note_on_c, 12, 72, 0
10, 24240, Note_on_c, 12, 65, 76
10, 24464, Note_on_c, 12, 65, 0
10, 24480, Note_on_c, 12, 64, 76
10, 24704, Note_on_c, 12, 64, 0
10, 24720, Note_on_c, 12, 65, 76
10, 24944, Note_on_c, 12, 65, 0
10, 24960, Note_on_c, 12, 69, 76
10, 25184, Note_on_c, 12, 69, 0
10, 25200, Note_on_c, 12, 67, 76
10, 25424, Note_on_c, 12, 67, 0
10, 25440, Note_on_c, 12, 67, 76
10, 25904, Note_on_c, 12, 67, 0
10, 25920, Note_on_c, 12, 71, 76
10, 26144, Note_on_c, 12, 71, 0
10, 26160, Note_on_c, 12, 67, 76
10, 26624, Note_on_c, 12, 67, 0
10, 26640, Note_on_c, 12, 67, 76
10, 26864, Note_on_c, 12, 67, 0
10, 26880, Note_on_c, 12, 67, 76
10, 27104, Note_on_c, 12, 67, 0
10, 27120, Note_on_c, 12, 76, 76
10, 27344, Note_on_c, 12, 76, 0
10, 27360, Note_on_c, 12, 74, 76
10, 27584, Note_on_c, 12, 74, 0
10, 27600, Note_on_c, 12, 73, 76
10, 27824, Note_on_c, 12, 73, 0
10, 27840, Note_on_c, 12, 76, 76
10, 28064, Note_on_c, 12, 76, 0
10, 28080, Note_on_c, 12, 73, 76
10, 28304, Note_on_c, 12, 73, 0
10, 28320, Note_on_c, 12, 74, 76
10, 28784, Note_on_c, 12, 74, 0
10, 28800, Note_on_c, 12, 67, 76
10, 29024, Note_on_c, 12, 67, 0
10, 29040, Note_on_c, 12, 69, 76
10, 29279, Note_on_c, 12, 69, 0
10, 29520, Note_on_c, 12, 69, 76
10, 29624, Note_on_c, 12, 69, 0
10, 29640, Note_on_c, 12, 71, 76
10, 29744, Note_on_c, 12, 71, 0
10, 29760, Note_on_c, 12, 73, 76
10, 29864, Note_on_c, 12, 73, 0
10, 29880, Note_on_c, 12, 74, 76
10, 29984, Note_on_c, 12, 74, 0
10, 30000, Note_on_c, 12, 76, 76
10, 30224, Note_on_c, 12, 76, 0
10, 30240, Note_on_c, 12, 81, 76
10, 30704, Note_on_c, 12, 81, 0
10, 30720, Note_on_c, 12, 79, 76
10, 30839, Note_on_c, 12, 79, 0
10, 30840, Note_on_c, 12, 77, 76
10, 30959, Note_on_c, 12, 77, 0
10, 30960, Note_on_c, 12, 76, 76
10, 31079, Note_on_c, 12, 76, 0
10, 31080, Note_on_c, 12, 74, 76
10, 31184, Note_on_c, 12, 74, 0
10, 31200, Note_on_c, 12, 73, 76
10, 31424, Note_on_c, 12, 73, 0
10, 31440, Note_on_c, 12, 69, 76
10, 31679, Note_on_c, 12, 69, 0
10, 31920, Note_on_c, 12, 65, 76
10, 32384, Note_on_c, 12, 65, 0
10, 32400, Note_on_c, 12, 65, 76
10, 32624, Note_on_c, 12, 65, 0
10, 32640, Note_on_c, 12, 67, 76
10, 32864, Note_on_c, 12, 67, 0
10, 32880, Note_on_c, 12, 69, 76
10, 33104, Note_on_c, 12, 69, 0
10, 33120, Note_on_c, 12, 69, 76
10, 33344, Note_on_c, 12, 69, 0
10, 33360, Note_on_c, 12, 74, 76
10, 33584, Note_on_c, 12, 74, 0
10, 33600, Note_on_c, 12, 70, 76
10, 33824, Note_on_c, 12, 70, 0
10, 33840, Note_on_c, 12, 69, 76
10, 34064, Note_on_c, 12, 69, 0
10, 34080, Note_on_c, 12, 69, 76
10, 34544, Note_on_c, 12, 69, 0
10, 34560, Note_on_c, 12, 66, 76
10, 34784, Note_on_c, 12, 66, 0
10, 34800, Note_on_c, 12, 67, 76
10, 35024, Note_on_c, 12, 67, 0
10, 35040, Note_on_c, 12, 69, 76
10, 35264, Note_on_c, 12, 69, 0
10, 35280, Note_on_c, 12, 66, 76
10, 35504, Note_on_c, 12, 66, 0
10, 35520, Note_on_c, 12, 67, 76
10, 35984, Note_on_c, 12, 67, 0
10, 36000, Note_on_c, 12, 65, 76
10, 36464, Note_on_c, 12, 65, 0
10, 36480, Note_on_c, 12, 71, 76
10, 36704, Note_on_c, 12, 71, 0
10, 36720, Note_on_c, 12, 72, 76
10, 36944, Note_on_c, 12, 72, 0
10, 36960, Note_on_c, 12, 71, 76
10, 37064, Note_on_c, 12, 71, 0
10, 37080, Note_on_c, 12, 69, 76
10, 37184, Note_on_c, 12, 69, 0
10, 37200, Note_on_c, 12, 67, 76
10, 37304, Note_on_c, 12, 67, 0
10, 37320, Note_on_c, 12, 69, 76
10, 37424, Note_on_c, 12, 69, 0
10, 37440, Note_on_c, 12, 71, 76
10, 37544, Note_on_c, 12, 71, 0
10, 37560, Note_on_c, 12, 67, 76
10, 37664, Note_on_c, 12, 67, 0
10, 37680, Note_on_c, 12, 72, 76
10, 38144, Note_on_c, 12, 72, 0
10, 38160, Note_on_c, 12, 71, 76
10, 38384, Note_on_c, 12, 71, 0
10, 38400, Note_on_c, 12, 72, 76
10, 38624, Note_on_c, 12, 72, 0
10, 38640, Note_on_c, 12, 65, 76
10, 38864, Note_on_c, 12, 65, 0
10, 38880, Note_on_c, 12, 64, 76
10, 39104, Note_on_c, 12, 64, 0
10, 39120, Note_on_c, 12, 65, 76
10, 39344, Note_on_c, 12, 65, 0
10, 39360, Note_on_c, 12, 69, 76
10, 39584, Note_on_c, 12, 69, 0
10, 39600, Note_on_c, 12, 67, 76
10, 39824, Note_on_c, 12, 67, 0
10, 39840, Note_on_c, 12, 67, 76
10, 40319, Note_on_c, 12, 67, 0
10, 40560, Note_on_c, 12, 55, 68
10, 40784, Note_on_c, 12, 55, 0
10, 40800, Note_on_c, 12, 60, 68
10, 41024, Note_on_c, 12, 60, 0
10, 41040, Note_on_c, 12, 64, 68
10, 41159, Note_on_c, 12, 64, 0
10, 41160, Note_on_c, 12, 62, 68
10, 41279, Note_on_c, 12, 62, 0
10, 41280, Note_on_c, 12, 60, 68
10, 41399, Note_on_c, 12, 60, 0
10, 41400, Note_on_c, 12, 59, 68
10, 41504, Note_on_c, 12, 59, 0
10, 41520, Note_on_c, 12, 60, 68
10, 41639, Note_on_c, 12, 60, 0
10, 41640, Note_on_c, 12, 62, 68
10, 41759, Note_on_c, 12, 62, 0
10, 41760, Note_on_c, 12, 64, 68
10, 41879, Note_on_c, 12, 64, 0
10, 41880, Note_on_c, 12, 65, 68
10, 41984, Note_on_c, 12, 65, 0
10, 42000, Note_on_c, 12, 67, 68
10, 42464, Note_on_c, 12, 67, 0
10, 42480, Note_on_c, 12, 69, 68
10, 42704, Note_on_c, 12, 69, 0
10, 42720, Note_on_c, 12, 65, 68
10, 42944, Note_on_c, 12, 65, 0
10, 42960, Note_on_c, 12, 62, 68
10, 43184, Note_on_c, 12, 62, 0
10, 43200, Note_on_c, 12, 60, 68
10, 43319, Note_on_c, 12, 60, 0
10, 43320, Note_on_c, 12, 59, 68
10, 43439, Note_on_c, 12, 59, 0
10, 43440, Note_on_c, 12, 57, 68
10, 43559, Note_on_c, 12, 57, 0
10, 43560, Note_on_c, 12, 55, 68
10, 43664, Note_on_c, 12, 55, 0
10, 43680, Note_on_c, 12, 60, 68
10, 43904, Note_on_c, 12, 60, 0
10, 43920, Note_on_c, 12, 64, 68
10, 44039, Note_on_c, 12, 64, 0
10, 44040, Note_on_c, 12, 62, 68
10, 44159, Note_on_c, 12, 62, 0
10, 44160, Note_on_c, 12, 60, 68
10, 44279, Note_on_c, 12, 60, 0
10, 44280, Note_on_c, 12, 59, 68
10, 44384, Note_on_c, 12, 59, 0
10, 44400, Note_on_c, 12, 62, 68
10, 44519, Note_on_c, 12, 62, 0
10, 44520, Note_on_c, 12, 60, 68
10, 44624, Note_on_c, 12, 60, 0
10, 44640, Note_on_c, 12, 59, 68
10, 44759, Note_on_c, 12, 59, 0
10, 44760, Note_on_c, 12, 57, 68
10, 44864, Note_on_c, 12, 57, 0
10, 44880, Note_on_c, 12, 62, 68
10, 45344, Note_on_c, 12, 62, 0
10, 45360, Note_on_c, 12, 60, 68
10, 45479, Note_on_c, 12, 60, 0
10, 45480, Note_on_c, 12, 59, 68
10, 45584, Note_on_c, 12, 59, 0
10, 45600, Note_on_c, 12, 57, 68
10, 45719, Note_on_c, 12, 57, 0
10, 45720, Note_on_c, 12, 59, 68
10, 45824, Note_on_c, 12, 59, 0
10, 45840, Note_on_c, 12, 55, 68
10, 46304, Note_on_c, 12, 55, 0
10, 46320, Note_on_c, 12, 55, 68
10, 46544, Note_on_c, 12, 55, 0
10, 46560, Note_on_c, 12, 60, 68
10, 46784, Note_on_c, 12, 60, 0
10, 46800, Note_on_c, 12, 64, 68
10, 46919, Note_on_c, 12, 64, 0
10, 46920, Note_on_c, 12, 62, 68
10, 47039, Note_on_c, 12, 62, 0
10, 47040, Note_on_c, 12, 60, 68
10, 47159, Note_on_c, 12, 60, 0
10, 47160, Note_on_c, 12, 59, 68
10, 47264, Note_on_c, 12, 59, 0
10, 47280, Note_on_c, 12, 60, 68
10, 47399, Note_on_c, 12, 60, 0
10, 47400, Note_on_c, 12, 62, 68
10, 47519, Note_on_c, 12, 62, 0
10, 47520, Note_on_c, 12, 64, 68
10, 47639, Note_on_c, 12, 64, 0
10, 47640, Note_on_c, 12, 65, 68
10, 47744, Note_on_c, 12, 65, 0
10, 47760, Note_on_c, 12, 67, 68
10, 48224, Note_on_c, 12, 67, 0
10, 48240, Note_on_c, 12, 69, 68
10, 48464, Note_on_c, 12, 69, 0
10, 48480, Note_on_c, 12, 65, 68
10, 48704, Note_on_c, 12, 65, 0
10, 48720, Note_on_c, 12, 62, 68
10, 48944, Note_on_c, 12, 62, 0
10, 48960, Note_on_c, 12, 60, 68
10, 49079, Note_on_c, 12, 60, 0
10, 49080, Note_on_c, 12, 59, 68
10, 49199, Note_on_c, 12, 59, 0
10, 49200, Note_on_c, 12, 57, 68
10, 49319, Note_on_c, 12, 57, 0
10, 49320, Note_on_c, 12, 55, 68
10, 49424, Note_on_c, 12, 55, 0
10, 49440, Note_on_c, 12, 60, 68
10, 49664, Note_on_c, 12, 60, 0
10, 49680, Note_on_c, 12, 64, 68
10, 49799, Note_on_c, 12, 64, 0
10, 49800, Note_on_c, 12, 62, 68
10, 49919, Note_on_c, 12, 62, 0
10, 49920, Note_on_c, 12, 60, 68
10, 50039, Note_on_c, 12, 60, 0
10, 50040, Note_on_c, 12, 59, 68
10, 50144, Note_on_c, 12, 59, 0
10, 50160, Note_on_c, 12, 62, 68
10, 50279, Note_on_c, 12, 62, 0
10, 50280, Note_on_c, 12, 60, 68
10, 50384, Note_on_c, 12, 60, 0
10, 50400, Note_on_c, 12, 59, 68
10, 50519, Note_on_c, 12, 59, 0
10, 50520, Note_on_c, 12, 57, 68
10, 50624, Note_on_c, 12, 57, 0
10, 50640, Note_on_c, 12, 62, 68
10, 51104, Note_on_c, 12, 62, 0
10, 51120, Note_on_c, 12, 60, 68
10, 51239, Note_on_c, 12, 60, 0
10, 51240, Note_on_c, 12, 59, 68
10, 51344, Note_on_c, 12, 59, 0
10, 51360, Note_on_c, 12, 57, 68
10, 51479, Note_on_c, 12, 57, 0
10, 51480, Note_on_c, 12, 59, 68
10, 51584, Note_on_c, 12, 59, 0
10, 51600, Note_on_c, 12, 55, 68
10, 52064, Note_on_c, 12, 55, 0
10, 52080, Note_on_c, 12, 62, 68
10, 52304, Note_on_c, 12, 62, 0
10, 52320, Note_on_c, 12, 59, 68
10, 52544, Note_on_c, 12, 59, 0
10, 52560, Note_on_c, 12, 60, 68
10, 52679, Note_on_c, 12, 60, 0
10, 52680, Note_on_c, 12, 59, 68
10, 52799, Note_on_c, 12, 59, 0
10, 52800, Note_on_c, 12, 57, 68
10, 52919, Note_on_c, 12, 57, 0
10, 52920, Note_on_c, 12, 55, 68
10, 53024, Note_on_c, 12, 55, 0
10, 53040, Note_on_c, 12, 64, 68
10, 53144, Note_on_c, 12, 64, 0
10, 53160, Note_on_c, 12, 65, 68
10, 53264, Note_on_c, 12, 65, 0
10, 53280, Note_on_c, 12, 67, 68
10, 53384, Note_on_c, 12, 67, 0
10, 53400, Note_on_c, 12, 69, 68
10, 53504, Note_on_c, 12, 69, 0
10, 53520, Note_on_c, 12, 70, 68
10, 53984, Note_on_c, 12, 70, 0
10, 54000, Note_on_c, 12, 69, 68
10, 54224, Note_on_c, 12, 69, 0
10, 54240, Note_on_c, 12, 67, 68
10, 54464, Note_on_c, 12, 67, 0
10, 54480, Note_on_c, 12, 65, 68
10, 54704, Note_on_c, 12, 65, 0
10, 54720, Note_on_c, 12, 67, 68
10, 54839, Note_on_c, 12, 67, 0
10, 54840, Note_on_c, 12, 65, 68
10, 54959, Note_on_c, 12, 65, 0
10, 54960, Note_on_c, 12, 64, 68
10, 55079, Note_on_c, 12, 64, 0
10, 55080, Note_on_c, 12, 62, 68
10, 55184, Note_on_c, 12, 62, 0
10, 55200, Note_on_c, 12, 61, 68
10, 55304, Note_on_c, 12, 61, 0
10, 55320, Note_on_c, 12, 62, 68
10, 55424, Note_on_c, 12, 62, 0
10, 55440, Note_on_c, 12, 64, 68
10, 55664, Note_on_c, 12, 64, 0
10, 55680, Note_on_c, 12, 69, 68
10, 56144, Note_on_c, 12, 69, 0
10, 56160, Note_on_c, 12, 67, 68
10, 56279, Note_on_c, 12, 67, 0
10, 56280, Note_on_c, 12, 65, 68
10, 56399, Note_on_c, 12, 65, 0
10, 56400, Note_on_c, 12, 64, 68
10, 56519, Note_on_c, 12, 64, 0
10, 56520, Note_on_c, 12, 62, 68
10, 56624, Note_on_c, 12, 62, 0
10, 56640, Note_on_c, 12, 61, 68
10, 56759, Note_on_c, 12, 61, 0
10, 56760, Note_on_c, 12, 62, 68
10, 56879, Note_on_c, 12, 62, 0
10, 56880, Note_on_c, 12, 64, 68
10, 56999, Note_on_c, 12, 64, 0
10, 57000, Note_on_c, 12, 65, 68
10, 57104, Note_on_c, 12, 65, 0
10, 57120, Note_on_c, 12, 67, 68
10, 57584, Note_on_c, 12, 67, 0
10, 57600, Note_on_c, 12, 65, 68
10, 57719, Note_on_c, 12, 65, 0
10, 57720, Note_on_c, 12, 64, 68
10, 57839, Note_on_c, 12, 64, 0
10, 57840, Note_on_c, 12, 62, 68
10, 57959, Note_on_c, 12, 62, 0
10, 57960, Note_on_c, 12, 61, 68
10, 58064, Note_on_c, 12, 61, 0
10, 58080, Note_on_c, 12, 62, 68
10, 58184, Note_on_c, 12, 62, 0
10, 58200, Note_on_c, 12, 57, 68
10, 58304, Note_on_c, 12, 57, 0
10, 58320, Note_on_c, 12, 65, 68
10, 58439, Note_on_c, 12, 65, 0
10, 58440, Note_on_c, 12, 64, 68
10, 58559, Note_on_c, 12, 64, 0
10, 58560, Note_on_c, 12, 62, 68
10, 58679, Note_on_c, 12, 62, 0
10, 58680, Note_on_c, 12, 60, 68
10, 58784, Note_on_c, 12, 60, 0
10, 58800, Note_on_c, 12, 58, 68
10, 58919, Note_on_c, 12, 58, 0
10, 58920, Note_on_c, 12, 62, 68
10, 59039, Note_on_c, 12, 62, 0
10, 59040, Note_on_c, 12, 67, 68
10, 59144, Note_on_c, 12, 67, 0
10, 59160, Note_on_c, 12, 64, 68
10, 59264, Note_on_c, 12, 64, 0
10, 59280, Note_on_c, 12, 65, 68
10, 59624, Note_on_c, 12, 65, 0
10, 59640, Note_on_c, 12, 62, 68
10, 59744, Note_on_c, 12, 62, 0
10, 59760, Note_on_c, 12, 65, 68
10, 59879, Note_on_c, 12, 65, 0
10, 59880, Note_on_c, 12, 64, 68
10, 59984, Note_on_c, 12, 64, 0
10, 60000, Note_on_c, 12, 62, 68
10, 60119, Note_on_c, 12, 62, 0
10, 60120, Note_on_c, 12, 61, 68
10, 60224, Note_on_c, 12, 61, 0
10, 60240, Note_on_c, 12, 62, 68
10, 60704, Note_on_c, 12, 62, 0
10, 60720, Note_on_c, 12, 57, 68
10, 60824, Note_on_c, 12, 57, 0
10, 60840, Note_on_c, 12, 59, 68
10, 60944, Note_on_c, 12, 59, 0
10, 60960, Note_on_c, 12, 60, 68
10, 61184, Note_on_c, 12, 60, 0
10, 61200, Note_on_c, 12, 62, 68
10, 61319, Note_on_c, 12, 62, 0
10, 61320, Note_on_c, 12, 60, 68
10, 61439, Note_on_c, 12, 60, 0
10, 61440, Note_on_c, 12, 59, 68
10, 61559, Note_on_c, 12, 59, 0
10, 61560, Note_on_c, 12, 57, 68
10, 61664, Note_on_c, 12, 57, 0
10, 61680, Note_on_c, 12, 59, 68
10, 61784, Note_on_c, 12, 59, 0
10, 61800, Note_on_c, 12, 57, 68
10, 61904, Note_on_c, 12, 57, 0
10, 61920, Note_on_c, 12, 55, 68
10, 62024, Note_on_c, 12, 55, 0
10, 62040, Note_on_c, 12, 57, 68
10, 62144, Note_on_c, 12, 57, 0
10, 62160, Note_on_c, 12, 59, 68
10, 62264, Note_on_c, 12, 59, 0
10, 62280, Note_on_c, 12, 60, 68
10, 62384, Note_on_c, 12, 60, 0
10, 62400, Note_on_c, 12, 62, 68
10, 62504, Note_on_c, 12, 62, 0
10, 62520, Note_on_c, 12, 64, 68
10, 62624, Note_on_c, 12, 64, 0
10, 62640, Note_on_c, 12, 65, 68
10, 62864, Note_on_c, 12, 65, 0
10, 62880, Note_on_c, 12, 64, 68
10, 63104, Note_on_c, 12, 64, 0
10, 63120, Note_on_c, 12, 62, 68
10, 63224, Note_on_c, 12, 62, 0
10, 63240, Note_on_c, 12, 60, 68
10, 63344, Note_on_c, 12, 60, 0
10, 63360, Note_on_c, 12, 59, 68
10, 63464, Note_on_c, 12, 59, 0
10, 63480, Note_on_c, 12, 60, 68
10, 63584, Note_on_c, 12, 60, 0
10, 63600, Note_on_c, 12, 62, 68
10, 63704, Note_on_c, 12, 62, 0
10, 63720, Note_on_c, 12, 64, 68
10, 63824, Note_on_c, 12, 64, 0
10, 63840, Note_on_c, 12, 65, 68
10, 63944, Note_on_c, 12, 65, 0
10, 63960, Note_on_c, 12, 67, 68
10, 64064, Note_on_c, 12, 67, 0
10, 64080, Note_on_c, 12, 69, 68
10, 64304, Note_on_c, 12, 69, 0
10, 64320, Note_on_c, 12, 67, 68
10, 64784, Note_on_c, 12, 67, 0
10, 64800, Note_on_c, 12, 58, 68
10, 64919, Note_on_c, 12, 58, 0
10, 64920, Note_on_c, 12, 57, 68
10, 65039, Note_on_c, 12, 57, 0
10, 65040, Note_on_c, 12, 58, 68
10, 65159, Note_on_c, 12, 58, 0
10, 65160, Note_on_c, 12, 55, 68
10, 65264, Note_on_c, 12, 55, 0
10, 65280, Note_on_c, 12, 57, 68
10, 65504, Note_on_c, 12, 57, 0
10, 65520, Note_on_c, 12, 62, 68
10, 65744, Note_on_c, 12, 62, 0
10, 65760, Note_on_c, 12, 59, 68
10, 65789, Note_on_c, 12, 59, 0
10, 65790, Note_on_c, 12, 60, 68
10, 65819, Note_on_c, 12, 60, 0
10, 65820, Note_on_c, 12, 59, 68
10, 65849, Note_on_c, 12, 59, 0
10, 65850, Note_on_c, 12, 60, 68
10, 65879, Note_on_c, 12, 60, 0
10, 65880, Note_on_c, 12, 59, 68
10, 65909, Note_on_c, 12, 59, 0
10, 65910, Note_on_c, 12, 60, 68
10, 65939, Note_on_c, 12, 60, 0
10, 65940, Note_on_c, 12, 57, 68
10, 65969, Note_on_c, 12, 57, 0
10, 65970, Note_on_c, 12, 59, 68
10, 65999, Note_on_c, 12, 59, 0
10, 66000, Note_on_c, 12, 60, 68
10, 66464, Note_on_c, 12, 60, 0
10, 66480, Note_on_c, 12, 62, 68
10, 66704, Note_on_c, 12, 62, 0
10, 66720, Note_on_c, 12, 59, 68
10, 66944, Note_on_c, 12, 59, 0
10, 66960, Note_on_c, 12, 60, 68
10, 67079, Note_on_c, 12, 60, 0
10, 67080, Note_on_c, 12, 59, 68
10, 67199, Note_on_c, 12, 59, 0
10, 67200, Note_on_c, 12, 57, 68
10, 67319, Note_on_c, 12, 57, 0
10, 67320, Note_on_c, 12, 55, 68
10, 67424, Note_on_c, 12, 55, 0
10, 67440, Note_on_c, 12, 64, 68
10, 67544, Note_on_c, 12, 64, 0
10, 67560, Note_on_c, 12, 65, 68
10, 67664, Note_on_c, 12, 65, 0
10, 67680, Note_on_c, 12, 67, 68
10, 67784, Note_on_c, 12, 67, 0
10, 67800, Note_on_c, 12, 69, 68
10, 67904, Note_on_c, 12, 69, 0
10, 67920, Note_on_c, 12, 70, 68
10, 68384, Note_on_c, 12, 70, 0
10, 68400, Note_on_c, 12, 69, 68
10, 68624, Note_on_c, 12, 69, 0
10, 68640, Note_on_c, 12, 67, 68
10, 68864, Note_on_c, 12, 67, 0
10, 68880, Note_on_c, 12, 65, 68
10, 69104, Note_on_c, 12, 65, 0
10, 69120, Note_on_c, 12, 67, 68
10, 69239, Note_on_c, 12, 67, 0
10, 69240, Note_on_c, 12, 65, 68
10, 69359, Note_on_c, 12, 65, 0
10, 69360, Note_on_c, 12, 64, 68
10, 69479, Note_on_c, 12, 64, 0
10, 69480, Note_on_c, 12, 62, 68
10, 69584, Note_on_c, 12, 62, 0
10, 69600, Note_on_c, 12, 61, 68
10, 69704, Note_on_c, 12, 61, 0
10, 69720, Note_on_c, 12, 62, 68
10, 69824, Note_on_c, 12, 62, 0
10, 69840, Note_on_c, 12, 64, 68
10, 70064, Note_on_c, 12, 64, 0
10, 70080, Note_on_c, 12, 69, 68
10, 70544, Note_on_c, 12, 69, 0
10, 70560, Note_on_c, 12, 67, 68
10, 70679, Note_on_c, 12, 67, 0
10, 70680, Note_on_c, 12, 65, 68
10, 70799, Note_on_c, 12, 65, 0
10, 70800, Note_on_c, 12, 64, 68
10, 70919, Note_on_c, 12, 64, 0
10, 70920, Note_on_c, 12, 62, 68
10, 71024, Note_on_c, 12, 62, 0
10, 71040, Note_on_c, 12, 61, 68
10, 71159, Note_on_c, 12, 61, 0
10, 71160, Note_on_c, 12, 62, 68
10, 71279, Note_on_c, 12, 62, 0
10, 71280, Note_on_c, 12, 64, 68
10, 71399, Note_on_c, 12, 64, 0
10, 71400, Note_on_c, 12, 65, 68
10, 71504, Note_on_c, 12, 65, 0
10, 71520, Note_on_c, 12, 67, 68
10, 71984, Note_on_c, 12, 67, 0
10, 72000, Note_on_c, 12, 65, 68
10, 72119, Note_on_c, 12, 65, 0
10, 72120, Note_on_c, 12, 64, 68
10, 72239, Note_on_c, 12, 64, 0
10, 72240, Note_on_c, 12, 62, 68
10, 72359, Note_on_c, 12, 62, 0
10, 72360, Note_on_c, 12, 61, 68
10, 72464, Note_on_c, 12, 61, 0
10, 72480, Note_on_c, 12, 62, 68
10, 72584, Note_on_c, 12, 62, 0
10, 72600, Note_on_c, 12, 57, 68
10, 72704, Note_on_c, 12, 57, 0
10, 72720, Note_on_c, 12, 65, 68
10, 72839, Note_on_c, 12, 65, 0
10, 72840, Note_on_c, 12, 64, 68
10, 72959, Note_on_c, 12, 64, 0
10, 72960, Note_on_c, 12, 62, 68
10, 73079, Note_on_c, 12, 62, 0
10, 73080, Note_on_c, 12, 60, 68
10, 73184, Note_on_c, 12, 60, 0
10, 73200, Note_on_c, 12, 58, 68
10, 73319, Note_on_c, 12, 58, 0
10, 73320, Note_on_c, 12, 62, 68
10, 73439, Note_on_c, 12, 62, 0
10, 73440, Note_on_c, 12, 67, 68
10, 73544, Note_on_c, 12, 67, 0
10, 73560, Note_on_c, 12, 64, 68
10, 73664, Note_on_c, 12, 64, 0
10, 73680, Note_on_c, 12, 65, 68
10, 74024, Note_on_c, 12, 65, 0
10, 74040, Note_on_c, 12, 62, 68
10, 74144, Note_on_c, 12, 62, 0
10, 74160, Note_on_c, 12, 65, 68
10, 74279, Note_on_c, 12, 65, 0
10, 74280, Note_on_c, 12, 64, 68
10, 74384, Note_on_c, 12, 64, 0
10, 74400, Note_on_c, 12, 62, 68
10, 74519, Note_on_c, 12, 62, 0
10, 74520, Note_on_c, 12, 61, 68
10, 74624, Note_on_c, 12, 61, 0
10, 74640, Note_on_c, 12, 62, 68
10, 75104, Note_on_c, 12, 62, 0
10, 75120, Note_on_c, 12, 57, 68
10, 75224, Note_on_c, 12, 57, 0
10, 75240, Note_on_c, 12, 59, 68
10, 75344, Note_on_c, 12, 59, 0
10, 75360, Note_on_c, 12, 60, 68
10, 75584, Note_on_c, 12, 60, 0
10, 75600, Note_on_c, 12, 62, 68
10, 75719, Note_on_c, 12, 62, 0
10, 75720, Note_on_c, 12, 60, 68
10, 75839, Note_on_c, 12, 60, 0
10, 75840, Note_on_c, 12, 59, 68
10, 75959, Note_on_c, 12, 59, 0
10, 75960, Note_on_c, 12, 57, 68
10, 76064, Note_on_c, 12, 57, 0
10, 76080, Note_on_c, 12, 59, 68
10, 76184, Note_on_c, 12, 59, 0
10, 76200, Note_on_c, 12, 57, 68
10, 76304, Note_on_c, 12, 57, 0
10, 76320, Note_on_c, 12, 55, 68
10, 76424, Note_on_c, 12, 55, 0
10, 76440, Note_on_c, 12, 57, 68
10, 76544, Note_on_c, 12, 57, 0
10, 76560, Note_on_c, 12, 59, 68
10, 76664, Note_on_c, 12, 59, 0
10, 76680, Note_on_c, 12, 60, 68
10, 76784, Note_on_c, 12, 60, 0
10, 76800, Note_on_c, 12, 62, 68
10, 76904, Note_on_c, 12, 62, 0
10, 76920, Note_on_c, 12, 64, 68
10, 77024, Note_on_c, 12, 64, 0
10, 77040, Note_on_c, 12, 65, 68
10, 77264, Note_on_c, 12, 65, 0
10, 77280, Note_on_c, 12, 64, 68
10, 77504, Note_on_c, 12, 64, 0
10, 77520, Note_on_c, 12, 62, 68
10, 77624, Note_on_c, 12, 62, 0
10, 77640, Note_on_c, 12, 60, 68
10, 77744, Note_on_c, 12, 60, 0
10, 77760, Note_on_c, 12, 59, 68
10, 77864, Note_on_c, 12, 59, 0
10, 77880, Note_on_c, 12, 60, 68
10, 77984, Note_on_c, 12, 60, 0
10, 78000, Note_on_c, 12, 62, 68
10, 78104, Note_on_c, 12, 62, 0
10, 78120, Note_on_c, 12, 64, 68
10, 78224, Note_on_c, 12, 64, 0
10, 78240, Note_on_c, 12, 65, 68
10, 78344, Note_on_c, 12, 65, 0
10, 78360, Note_on_c, 12, 67, 68
10, 78464, Note_on_c, 12, 67, 0
10, 78480, Note_on_c, 12, 69, 68
10, 78704, Note_on_c, 12, 69, 0
10, 78720, Note_on_c, 12, 67, 68
10, 79184, Note_on_c, 12, 67, 0
10, 79200, Note_on_c, 12, 58, 68
10, 79319, Note_on_c, 12, 58, 0
10, 79320, Note_on_c, 12, 57, 68
10, 79439, Note_on_c, 12, 57, 0
10, 79440, Note_on_c, 12, 58, 68
10, 79559, Note_on_c, 12, 58, 0
10, 79560, Note_on_c, 12, 55, 68
10, 79664, Note_on_c, 12, 55, 0
10, 79680, Note_on_c, 12, 57, 68
10, 79904, Note_on_c, 12, 57, 0
10, 79920, Note_on_c, 12, 62, 68
10, 80144, Note_on_c, 12, 62, 0
10, 80160, Note_on_c, 12, 59, 68
10, 80189, Note_on_c, 12, 59, 0
10, 80190, Note_on_c, 12, 60, 68
10, 80219, Note_on_c, 12, 60, 0
10, 80220, Note_on_c, 12, 59, 68
10, 80249, Note_on_c, 12, 59, 0
10, 80250, Note_on_c, 12, 60, 68
10, 80279, Note_on_c, 12, 60, 0
10, 80280, Note_on_c, 12, 59, 68
10, 80309, Note_on_c, 12, 59, 0
10, 80310, Note_on_c, 12, 60, 68
10, 80339, Note_on_c, 12, 60, 0
10, 80340, Note_on_c, 12, 57, 68
10, 80369, Note_on_c, 12, 57, 0
10, 80370, Note_on_c, 12, 59, 68
10, 80399, Note_on_c, 12, 59, 0
10, 80400, Note_on_c, 12, 60, 68
10, 80879, Note_on_c, 12, 60, 0
10, 81120, Note_on_c, 12, 64, 76
10, 81344, Note_on_c, 12, 64, 0
10, 81360, Note_on_c, 12, 64, 76
10, 81584, Note_on_c, 12, 64, 0
10, 81600, Note_on_c, 12, 67, 76
10, 81719, Note_on_c, 12, 67, 0
10, 81720, Note_on_c, 12, 65, 76
10, 81839, Note_on_c, 12, 65, 0
10, 81840, Note_on_c, 12, 64, 76
10, 81959, Note_on_c, 12, 64, 0
10, 81960, Note_on_c, 12, 62, 76
10, 82064, Note_on_c, 12, 62, 0
10, 82080, Note_on_c, 12, 64, 76
10, 82184, Note_on_c, 12, 64, 0
10, 82200, Note_on_c, 12, 65, 76
10, 82304, Note_on_c, 12, 65, 0
10, 82320, Note_on_c, 12, 67, 76
10, 82424, Note_on_c, 12, 67, 0
10, 82440, Note_on_c, 12, 69, 76
10, 82544, Note_on_c, 12, 69, 0
10, 82560, Note_on_c, 12, 71, 76
10, 82784, Note_on_c, 12, 71, 0
10, 82800, Note_on_c, 12, 72, 76
10, 83264, Note_on_c, 12, 72, 0
10, 83280, Note_on_c, 12, 72, 76
10, 83504, Note_on_c, 12, 72, 0
10, 83520, Note_on_c, 12, 71, 76
10, 83744, Note_on_c, 12, 71, 0
10, 83760, Note_on_c, 12, 72, 76
10, 83984, Note_on_c, 12, 72, 0
10, 84000, Note_on_c, 12, 74, 76
10, 84224, Note_on_c, 12, 74, 0
10, 84240, Note_on_c, 12, 67, 76
10, 84704, Note_on_c, 12, 67, 0
10, 84720, Note_on_c, 12, 67, 76
10, 84944, Note_on_c, 12, 67, 0
10, 84960, Note_on_c, 12, 69, 76
10, 85424, Note_on_c, 12, 69, 0
10, 85440, Note_on_c, 12, 69, 76
10, 85664, Note_on_c, 12, 69, 0
10, 85680, Note_on_c, 12, 71, 76
10, 85904, Note_on_c, 12, 71, 0
10, 85920, Note_on_c, 12, 67, 76
10, 86144, Note_on_c, 12, 67, 0
10, 86160, Note_on_c, 12, 66, 76
10, 86384, Note_on_c, 12, 66, 0
10, 86400, Note_on_c, 12, 62, 76
10, 86864, Note_on_c, 12, 62, 0
10, 86880, Note_on_c, 12, 64, 76
10, 87104, Note_on_c, 12, 64, 0
10, 87120, Note_on_c, 12, 64, 76
10, 87344, Note_on_c, 12, 64, 0
10, 87360, Note_on_c, 12, 67, 76
10, 87479, Note_on_c, 12, 67, 0
10, 87480, Note_on_c, 12, 65, 76
10, 87599, Note_on_c, 12, 65, 0
10, 87600, Note_on_c, 12, 64, 76
10, 87719, Note_on_c, 12, 64, 0
10, 87720, Note_on_c, 12, 62, 76
10, 87824, Note_on_c, 12, 62, 0
10, 87840, Note_on_c, 12, 64, 76
10, 87944, Note_on_c, 12, 64, 0
10, 87960, Note_on_c, 12, 65, 76
10, 88064, Note_on_c, 12, 65, 0
10, 88080, Note_on_c, 12, 67, 76
10, 88184, Note_on_c, 12, 67, 0
10, 88200, Note_on_c, 12, 69, 76
10, 88304, Note_on_c, 12, 69, 0
10, 88320, Note_on_c, 12, 71, 76
10, 88544, Note_on_c, 12, 71, 0
10, 88560, Note_on_c, 12, 72, 76
10, 89024, Note_on_c, 12, 72, 0
10, 89040, Note_on_c, 12, 72, 76
10, 89264, Note_on_c, 12, 72, 0
10, 89280, Note_on_c, 12, 71, 76
10, 89504, Note_on_c, 12, 71, 0
10, 89520, Note_on_c, 12, 72, 76
10, 89744, Note_on_c, 12, 72, 0
10, 89760, Note_on_c, 12, 74, 76
10, 89984, Note_on_c, 12, 74, 0
10, 90000, Note_on_c, 12, 67, 76
10, 90464, Note_on_c, 12, 67, 0
10, 90480, Note_on_c, 12, 67, 76
10, 90704, Note_on_c, 12, 67, 0
10, 90720, Note_on_c, 12, 69, 76
10, 91184, Note_on_c, 12, 69, 0
10, 91200, Note_on_c, 12, 69, 76
10, 91424, Note_on_c, 12, 69, 0
10, 91440, Note_on_c, 12, 71, 76
10, 91664, Note_on_c, 12, 71, 0
10, 91680, Note_on_c, 12, 67, 76
10, 91904, Note_on_c, 12, 67, 0
10, 91920, Note_on_c, 12, 66, 76
10, 92144, Note_on_c, 12, 66, 0
10, 92160, Note_on_c, 12, 62, 76
10, 92624, Note_on_c, 12, 62, 0
10, 92640, Note_on_c, 12, 71, 76
10, 92864, Note_on_c, 12, 71, 0
10, 92880, Note_on_c, 12, 67, 76
10, 93344, Note_on_c, 12, 67, 0
10, 93360, Note_on_c, 12, 67, 76
10, 93584, Note_on_c, 12, 67, 0
10, 93600, Note_on_c, 12, 67, 76
10, 93824, Note_on_c, 12, 67, 0
10, 93840, Note_on_c, 12, 76, 76
10, 94064, Note_on_c, 12, 76, 0
10, 94080, Note_on_c, 12, 74, 76
10, 94304, Note_on_c, 12, 74, 0
10, 94320, Note_on_c, 12, 73, 76
10, 94544, Note_on_c, 12, 73, 0
10, 94560, Note_on_c, 12, 76, 76
10, 94784, Note_on_c, 12, 76, 0
10, 94800, Note_on_c, 12, 73, 76
10, 95024, Note_on_c, 12, 73, 0
10, 95040, Note_on_c, 12, 74, 76
10, 95504, Note_on_c, 12, 74, 0
10, 95520, Note_on_c, 12, 67, 76
10, 95744, Note_on_c, 12, 67, 0
10, 95760, Note_on_c, 12, 69, 76
10, 95999, Note_on_c, 12, 69, 0
10, 96240, Note_on_c, 12, 69, 76
10, 96344, Note_on_c, 12, 69, 0
10, 96360, Note_on_c, 12, 71, 76
10, 96464, Note_on_c, 12, 71, 0
10, 96480, Note_on_c, 12, 73, 76
10, 96584, Note_on_c, 12, 73, 0
10, 96600, Note_on_c, 12, 74, 76
10, 96704, Note_on_c, 12, 74, 0
10, 96720, Note_on_c, 12, 76, 76
10, 96944, Note_on_c, 12, 76, 0
10, 96960, Note_on_c, 12, 81, 76
10, 97424, Note_on_c, 12, 81, 0
10, 97440, Note_on_c, 12, 79, 76
10, 97559, Note_on_c, 12, 79, 0
10, 97560, Note_on_c, 12, 77, 76
10, 97679, Note_on_c, 12, 77, 0
10, 97680, Note_on_c, 12, 76, 76
10, 97799, Note_on_c, 12, 76, 0
10, 97800, Note_on_c, 12, 74, 76
10, 97904, Note_on_c, 12, 74, 0
10, 97920, Note_on_c, 12, 73, 76
10, 98144, Note_on_c, 12, 73, 0
10, 98160, Note_on_c, 12, 69, 76
10, 98399, Note_on_c, 12, 69, 0
10, 98640, Note_on_c, 12, 65, 76
10, 99104, Note_on_c, 12, 65, 0
10, 99120, Note_on_c, 12, 65, 76
10, 99344, Note_on_c, 12, 65, 0
10, 99360, Note_on_c, 12, 67, 76
10, 99584, Note_on_c, 12, 67, 0
10, 99600, Note_on_c, 12, 69, 76
10, 99824, Note_on_c, 12, 69, 0
10, 99840, Note_on_c, 12, 69, 76
10, 100064, Note_on_c, 12, 69, 0
10, 100080, Note_on_c, 12, 74, 76
10, 100304, Note_on_c, 12, 74, 0
10, 100320, Note_on_c, 12, 70, 76
10, 100544, Note_on_c, 12, 70, 0
10, 100560, Note_on_c, 12, 69, 76
10, 100784, Note_on_c, 12, 69, 0
10, 100800, Note_on_c, 12, 69, 76
10, 101264, Note_on_c, 12, 69, 0
10, 101280, Note_on_c, 12, 66, 76
10, 101504, Note_on_c, 12, 66, 0
10, 101520, Note_on_c, 12, 67, 76
10, 101744, Note_on_c, 12, 67, 0
10, 101760, Note_on_c, 12, 69, 76
10, 101984, Note_on_c, 12, 69, 0
10, 102000, Note_on_c, 12, 66, 76
10, 102224, Note_on_c, 12, 66, 0
10, 102240, Note_on_c, 12, 67, 76
10, 102704, Note_on_c, 12, 67, 0
10, 102720, Note_on_c, 12, 65, 76
10, 103184, Note_on_c, 12, 65, 0
10, 103200, Note_on_c, 12, 71, 76
10, 103424, Note_on_c, 12, 71, 0
10, 103440, Note_on_c, 12, 72, 76
10, 103664, Note_on_c, 12, 72, 0
10, 103680, Note_on_c, 12, 71, 76
10, 103784, Note_on_c, 12, 71, 0
10, 103800, Note_on_c, 12, 69, 76
10, 103904, Note_on_c, 12, 69, 0
10, 103920, Note_on_c, 12, 67, 76
10, 104024, Note_on_c, 12, 67, 0
10, 104040, Note_on_c, 12, 69, 76
10, 104144, Note_on_c, 12, 69, 0
10, 104160, Note_on_c, 12, 71, 76
10, 104264, Note_on_c, 12, 71, 0
10, 104280, Note_on_c, 12, 67, 76
10, 104384, Note_on_c, 12, 67, 0
10, 104400, Note_on_c, 12, 72, 76
10, 104864, Note_on_c, 12, 72, 0
10, 104880, Note_on_c, 12, 71, 76
10, 105104, Note_on_c, 12, 71, 0
10, 105120, Note_on_c, 12, 72, 76
10, 105344, Note_on_c, 12, 72, 0
10, 105360, Note_on_c, 12, 65, 76
10, 105584, Note_on_c, 12, 65, 0
10, 105600, Note_on_c, 12, 64, 76
10, 105824, Note_on_c, 12, 64, 0
10, 105840, Note_on_c, 12, 65, 76
10, 106064, Note_on_c, 12, 65, 0
10, 106080, Note_on_c, 12, 69, 76
10, 106304, Note_on_c, 12, 69, 0
10, 106320, Note_on_c, 12, 67, 76
10, 106544, Note_on_c, 12, 67, 0
10, 106560, Note_on_c, 12, 67, 76
10, 107024, Note_on_c, 12, 67, 0
10, 107040, Note_on_c, 12, 71, 76
10, 107264, Note_on_c, 12, 71, 0
10, 107280, Note_on_c, 12, 67, 76
10, 107744, Note_on_c, 12, 67, 0
10, 107760, Note_on_c, 12, 67, 76
10, 107984, Note_on_c, 12, 67, 0
10, 108000, Note_on_c, 12, 67, 76
10, 108224, Note_on_c, 12, 67, 0
10, 108240, Note_on_c, 12, 76, 76
10, 108464, Note_on_c, 12, 76, 0
10, 108480, Note_on_c, 12, 74, 76
10, 108704, Note_on_c, 12, 74, 0
10, 108720, Note_on_c, 12, 73, 76
10, 108944, Note_on_c, 12, 73, 0
10, 108960, Note_on_c, 12, 76, 76
10, 109184, Note_on_c, 12, 76, 0
10, 109200, Note_on_c, 12, 73, 76
10, 109424, Note_on_c, 12, 73, 0
10, 109440, Note_on_c, 12, 74, 76
10, 109904, Note_on_c, 12, 74, 0
10, 109920, Note_on_c, 12, 67, 76
10, 110144, Note_on_c, 12, 67, 0
10, 110160, Note_on_c, 12, 69, 76
10, 110399, Note_on_c, 12, 69, 0
10, 110640, Note_on_c, 12, 69, 76
10, 110744, Note_on_c, 12, 69, 0
10, 110760, Note_on_c, 12, 71, 76
10, 110864, Note_on_c, 12, 71, 0
10, 110880, Note_on_c, 12, 73, 76
10, 110984, Note_on_c, 12, 73, 0
10, 111000, Note_on_c, 12, 74, 76
10, 111104, Note_on_c, 12, 74, 0
10, 111120, Note_on_c, 12, 76, 76
10, 111344, Note_on_c, 12, 76, 0
10, 111360, Note_on_c, 12, 81, 76
10, 111824, Note_on_c, 12, 81, 0
10, 111840, Note_on_c, 12, 79, 76
10, 111959, Note_on_c, 12, 79, 0
10, 111960, Note_on_c, 12, 77, 76
10, 112079, Note_on_c, 12, 77, 0
10, 112080, Note_on_c, 12, 76, 76
10, 112199, Note_on_c, 12, 76, 0
10, 112200, Note_on_c, 12, 74, 76
10, 112304, Note_on_c, 12, 74, 0
10, 112320, Note_on_c, 12, 73, 76
10, 112544, Note_on_c, 12, 73, 0
10, 112560, Note_on_c, 12, 69, 76
10, 112799, Note_on_c, 12, 69, 0
10, 113040, Note_on_c, 12, 65, 76
10, 113504, Note_on_c, 12, 65, 0
10, 113520, Note_on_c, 12, 65, 76
10, 113744, Note_on_c, 12, 65, 0
10, 113760, Note_on_c, 12, 67, 76
10, 113984, Note_on_c, 12, 67, 0
10, 114000, Note_on_c, 12, 69, 76
10, 114224, Note_on_c, 12, 69, 0
10, 114240, Note_on_c, 12, 69, 76
10, 114464, Note_on_c, 12, 69, 0
10, 114480, Note_on_c, 12, 74, 76
10, 114704, Note_on_c, 12, 74, 0
10, 114720, Note_on_c, 12, 70, 76
10, 114944, Note_on_c, 12, 70, 0
10, 114960, Note_on_c, 12, 69, 76
10, 115184, Note_on_c, 12, 69, 0
10, 115200, Note_on_c, 12, 69, 76
10, 115664, Note_on_c, 12, 69, 0
10, 115680, Note_on_c, 12, 66, 76
10, 115904, Note_on_c, 12, 66, 0
10, 115920, Note_on_c, 12, 67, 76
10, 116144, Note_on_c, 12, 67, 0
10, 116160, Note_on_c, 12, 69, 76
10, 116384, Note_on_c, 12, 69, 0
10, 116400, Note_on_c, 12, 66, 76
10, 116624, Note_on_c, 12, 66, 0
10, 116640, Note_on_c, 12, 67, 76
10, 117104, Note_on_c, 12, 67, 0
10, 117120, Note_on_c, 12, 65, 76
10, 117584, Note_on_c, 12, 65, 0
10, 117600, Note_on_c, 12, 71, 76
10, 117824, Note_on_c, 12, 71, 0
10, 117840, Note_on_c, 12, 72, 76
10, 118064, Note_on_c, 12, 72, 0
10, 118080, Note_on_c, 12, 71, 76
10, 118184, Note_on_c, 12, 71, 0
10, 118200, Note_on_c, 12, 69, 76
10, 118304, Note_on_c, 12, 69, 0
10, 118320, Note_on_c, 12, 67, 76
10, 118424, Note_on_c, 12, 67, 0
10, 118440, Note_on_c, 12, 69, 76
10, 118544, Note_on_c, 12, 69, 0
10, 118560, Note_on_c, 12, 71, 76
10, 118664, Note_on_c, 12, 71, 0
10, 118680, Note_on_c, 12, 67, 76
10, 118784, Note_on_c, 12, 67, 0
10, 118800, Note_on_c, 12, 72, 76
10, 119264, Note_on_c, 12, 72, 0
10, 119280, Note_on_c, 12, 71, 76
10, 119504, Note_on_c, 12, 71, 0
10, 119520, Note_on_c, 12, 72, 76
10, 119744, Note_on_c, 12, 72, 0
10, 119760, Note_on_c, 12, 65, 76
10, 119984, Note_on_c, 12, 65, 0
10, 120000, Note_on_c, 12, 64, 76
10, 120224, Note_on_c, 12, 64, 0
10, 120240, Note_on_c, 12, 65, 76
10, 120464, Note_on_c, 12, 65, 0
10, 120480, Note_on_c, 12, 69, 76
10, 120704, Note_on_c, 12, 69, 0
10, 120720, Note_on_c, 12, 67, 76
10, 120944, Note_on_c, 12, 67, 0
10, 120960, Note_on_c, 12, 67, 76
10, 121439, Note_on_c, 12, 67, 0
10, 121439, End_track
11, 0, Start_track
11, 0, Title_t, "Viola"
11, 0, MIDI_port, 0
11, 0, Program_c, 13, 48
11, 0, Control_c, 13, 10, 70
11, 0, Control_c, 13, 11, 127
11, 0, Control_c, 13, 7, 96
11, 0, Note_on_c, 13, 60, 76
11, 224, Note_on_c, 13, 60, 0
11, 240, Note_on_c, 13, 55, 76
11, 704, Note_on_c, 13, 55, 0
11, 720, Note_on_c, 13, 55, 76
11, 944, Note_on_c, 13, 55, 0
11, 960, Note_on_c, 13, 60, 76
11, 1424, Note_on_c, 13, 60, 0
11, 1440, Note_on_c, 13, 62, 76
11, 1664, Note_on_c, 13, 62, 0
11, 1680, Note_on_c, 13, 64, 76
11, 1904, Note_on_c, 13, 64, 0
11, 1920, Note_on_c, 13, 60, 76
11, 2144, Note_on_c, 13, 60, 0
11, 2160, Note_on_c, 13, 65, 76
11, 2384, Note_on_c, 13, 65, 0
11, 2400, Note_on_c, 13, 67, 76
11, 2624, Note_on_c, 13, 67, 0
11, 2640, Note_on_c, 13, 69, 76
11, 2864, Note_on_c, 13, 69, 0
11, 2880, Note_on_c, 13, 71, 76
11, 3104, Note_on_c, 13, 71, 0
11, 3120, Note_on_c, 13, 72, 76
11, 3344, Note_on_c, 13, 72, 0
11, 3360, Note_on_c, 13, 60, 76
11, 3584, Note_on_c, 13, 60, 0
11, 3600, Note_on_c, 13, 62, 76
11, 3824, Note_on_c, 13, 62, 0
11, 3840, Note_on_c, 13, 64, 76
11, 4304, Note_on_c, 13, 64, 0
11, 4320, Note_on_c, 13, 62, 76
11, 4544, Note_on_c, 13, 62, 0
11, 4560, Note_on_c, 13, 67, 76
11, 4784, Note_on_c, 13, 67, 0
11, 4800, Note_on_c, 13, 62, 76
11, 5024, Note_on_c, 13, 62, 0
11, 5040, Note_on_c, 13, 60, 76
11, 5264, Note_on_c, 13, 60, 0
11, 5280, Note_on_c, 13, 59, 76
11, 5744, Note_on_c, 13, 59, 0
11, 5760, Note_on_c, 13, 60, 76
11, 5984, Note_on_c, 13, 60, 0
11, 6000, Note_on_c, 13, 55, 76
11, 6464, Note_on_c, 13, 55, 0
11, 6480, Note_on_c, 13, 55, 76
11, 6704, Note_on_c, 13, 55, 0
11, 6720, Note_on_c, 13, 60, 76
11, 7184, Note_on_c, 13, 60, 0
11, 7200, Note_on_c, 13, 62, 76
11, 7424, Note_on_c, 13, 62, 0
11, 7440, Note_on_c, 13, 64, 76
11, 7664, Note_on_c, 13, 64, 0
11, 7680, Note_on_c, 13, 60, 76
11, 7904, Note_on_c, 13, 60, 0
11, 7920, Note_on_c, 13, 65, 76
11, 8144, Note_on_c, 13, 65, 0
11, 8160, Note_on_c, 13, 67, 76
11, 8384, Note_on_c, 13, 67, 0
11, 8400, Note_on_c, 13, 69, 76
11, 8624, Note_on_c, 13, 69, 0
11, 8640, Note_on_c, 13, 71, 76
11, 8864, Note_on_c, 13, 71, 0
11, 8880, Note_on_c, 13, 72, 76
11, 9104, Note_on_c, 13, 72, 0
11, 9120, Note_on_c, 13, 60, 76
11, 9344, Note_on_c, 13, 60, 0
11, 9360, Note_on_c, 13, 62, 76
11, 9584, Note_on_c, 13, 62, 0
11, 9600, Note_on_c, 13, 64, 76
11, 10064, Note_on_c, 13, 64, 0
11, 10080, Note_on_c, 13, 62, 76
11, 10304, Note_on_c, 13, 62, 0
11, 10320, Note_on_c, 13, 67, 76
11, 10544, Note_on_c, 13, 67, 0
11, 10560, Note_on_c, 13, 62, 76
11, 10784, Note_on_c, 13, 62, 0
11, 10800, Note_on_c, 13, 60, 76
11, 11024, Note_on_c, 13, 60, 0
11, 11040, Note_on_c, 13, 59, 76
11, 11504, Note_on_c, 13, 59, 0
11, 11520, Note_on_c, 13, 67, 76
11, 11744, Note_on_c, 13, 67, 0
11, 11760, Note_on_c, 13, 62, 76
11, 12224, Note_on_c, 13, 62, 0
11, 12240, Note_on_c, 13, 62, 76
11, 12464, Note_on_c, 13, 62, 0
11, 12480, Note_on_c, 13, 60, 76
11, 12704, Note_on_c, 13, 60, 0
11, 12720, Note_on_c, 13, 72, 76
11, 12944, Note_on_c, 13, 72, 0
11, 12960, Note_on_c, 13, 65, 76
11, 13184, Note_on_c, 13, 65, 0
11, 13200, Note_on_c, 13, 64, 76
11, 13424, Note_on_c, 13, 64, 0
11, 13440, Note_on_c, 13, 57, 76
11, 13664, Note_on_c, 13, 57, 0
11, 13680, Note_on_c, 13, 69, 76
11, 13904, Note_on_c, 13, 69, 0
11, 13920, Note_on_c, 13, 69, 76
11, 14384, Note_on_c, 13, 69, 0
11, 14400, Note_on_c, 13, 70, 76
11, 14624, Note_on_c, 13, 70, 0
11, 14640, Note_on_c, 13, 64, 76
11, 14864, Note_on_c, 13, 64, 0
11, 14880, Note_on_c, 13, 57, 76
11, 14984, Note_on_c, 13, 57, 0
11, 15000, Note_on_c, 13, 59, 76
11, 15104, Note_on_c, 13, 59, 0
11, 15120, Note_on_c, 13, 61, 76
11, 15224, Note_on_c, 13, 61, 0
11, 15240, Note_on_c, 13, 62, 76
11, 15344, Note_on_c, 13, 62, 0
11, 15360, Note_on_c, 13, 64, 76
11, 15584, Note_on_c, 13, 64, 0
11, 15600, Note_on_c, 13, 69, 76
11, 15824, Note_on_c, 13, 69, 0
11, 15840, Note_on_c, 13, 67, 76
11, 15944, Note_on_c, 13, 67, 0
11, 15960, Note_on_c, 13, 65, 76
11, 16064, Note_on_c, 13, 65, 0
11, 16080, Note_on_c, 13, 64, 76
11, 16184, Note_on_c, 13, 64, 0
11, 16200, Note_on_c, 13, 62, 76
11, 16304, Note_on_c, 13, 62, 0
11, 16320, Note_on_c, 13, 61, 76
11, 16424, Note_on_c, 13, 61, 0
11, 16440, Note_on_c, 13, 62, 76
11, 16544, Note_on_c, 13, 62, 0
11, 16560, Note_on_c, 13, 64, 76
11, 16784, Note_on_c, 13, 64, 0
11, 16800, Note_on_c, 13, 64, 76
11, 17024, Note_on_c, 13, 64, 0
11, 17040, Note_on_c, 13, 61, 76
11, 17279, Note_on_c, 13, 61, 0
11, 17520, Note_on_c, 13, 62, 76
11, 17984, Note_on_c, 13, 62, 0
11, 18000, Note_on_c, 13, 62, 76
11, 18224, Note_on_c, 13, 62, 0
11, 18240, Note_on_c, 13, 62, 76
11, 18464, Note_on_c, 13, 62, 0
11, 18480, Note_on_c, 13, 64, 76
11, 18704, Note_on_c, 13, 64, 0
11, 18720, Note_on_c, 13, 62, 76
11, 18944, Note_on_c, 13, 62, 0
11, 18960, Note_on_c, 13, 65, 76
11, 19184, Note_on_c, 13, 65, 0
11, 19200, Note_on_c, 13, 67, 76
11, 19424, Note_on_c, 13, 67, 0
11, 19440, Note_on_c, 13, 64, 76
11, 19664, Note_on_c, 13, 64, 0
11, 19680, Note_on_c, 13, 65, 76
11, 20144, Note_on_c, 13, 65, 0
11, 20160, Note_on_c, 13, 62, 76
11, 20384, Note_on_c, 13, 62, 0
11, 20400, Note_on_c, 13, 60, 76
11, 20624, Note_on_c, 13, 60, 0
11, 20640, Note_on_c, 13, 57, 76
11, 20864, Note_on_c, 13, 57, 0
11, 20880, Note_on_c, 13, 62, 76
11, 21104, Note_on_c, 13, 62, 0
11, 21120, Note_on_c, 13, 62, 76
11, 21584, Note_on_c, 13, 62, 0
11, 21600, Note_on_c, 13, 60, 76
11, 21824, Note_on_c, 13, 60, 0
11, 21840, Note_on_c, 13, 55, 76
11, 22064, Note_on_c, 13, 55, 0
11, 22080, Note_on_c, 13, 67, 76
11, 22304, Note_on_c, 13, 67, 0
11, 22320, Note_on_c, 13, 67, 76
11, 22544, Note_on_c, 13, 67, 0
11, 22560, Note_on_c, 13, 67, 76
11, 22784, Note_on_c, 13, 67, 0
11, 22800, Note_on_c, 13, 62, 76
11, 23024, Note_on_c, 13, 62, 0
11, 23040, Note_on_c, 13, 67, 76
11, 23264, Note_on_c, 13, 67, 0
11, 23280, Note_on_c, 13, 60, 76
11, 23504, Note_on_c, 13, 60, 0
11, 23520, Note_on_c, 13, 65, 76
11, 23744, Note_on_c, 13, 65, 0
11, 23760, Note_on_c, 13, 62, 76
11, 23984, Note_on_c, 13, 62, 0
11, 24000, Note_on_c, 13, 67, 76
11, 24224, Note_on_c, 13, 67, 0
11, 24240, Note_on_c, 13, 65, 76
11, 24464, Note_on_c, 13, 65, 0
11, 24480, Note_on_c, 13, 67, 76
11, 24704, Note_on_c, 13, 67, 0
11, 24720, Note_on_c, 13, 60, 76
11, 24944, Note_on_c, 13, 60, 0
11, 24960, Note_on_c, 13, 65, 76
11, 25184, Note_on_c, 13, 65, 0
11, 25200, Note_on_c, 13, 62, 76
11, 25424, Note_on_c, 13, 62, 0
11, 25440, Note_on_c, 13, 64, 76
11, 25904, Note_on_c, 13, 64, 0
11, 25920, Note_on_c, 13, 67, 76
11, 26144, Note_on_c, 13, 67, 0
11, 26160, Note_on_c, 13, 62, 76
11, 26624, Note_on_c, 13, 62, 0
11, 26640, Note_on_c, 13, 62, 76
11, 26864, Note_on_c, 13, 62, 0
11, 26880, Note_on_c, 13, 60, 76
11, 27104, Note_on_c, 13, 60, 0
11, 27120, Note_on_c, 13, 72, 76
11, 27344, Note_on_c, 13, 72, 0
11, 27360, Note_on_c, 13, 65, 76
11, 27584, Note_on_c, 13, 65, 0
11, 27600, Note_on_c, 13, 64, 76
11, 27824, Note_on_c, 13, 64, 0
11, 27840, Note_on_c, 13, 57, 76
11, 28064, Note_on_c, 13, 57, 0
11, 28080, Note_on_c, 13, 69, 76
11, 28304, Note_on_c, 13, 69, 0
11, 28320, Note_on_c, 13, 69, 76
11, 28784, Note_on_c, 13, 69, 0
11, 28800, Note_on_c, 13, 70, 76
11, 29024, Note_on_c, 13, 70, 0
11, 29040, Note_on_c, 13, 64, 76
11, 29264, Note_on_c, 13, 64, 0
11, 29280, Note_on_c, 13, 57, 76
11, 29384, Note_on_c, 13, 57, 0
11, 29400, Note_on_c, 13, 59, 76
11, 29504, Note_on_c, 13, 59, 0
11, 29520, Note_on_c, 13, 61, 76
11, 29624, Note_on_c, 13, 61, 0
11, 29640, Note_on_c, 13, 62, 76
11, 29744, Note_on_c, 13, 62, 0
11, 29760, Note_on_c, 13, 64, 76
11, 29984, Note_on_c, 13, 64, 0
11, 30000, Note_on_c, 13, 69, 76
11, 30224, Note_on_c, 13, 69, 0
11, 30240, Note_on_c, 13, 67, 76
11, 30344, Note_on_c, 13, 67, 0
11, 30360, Note_on_c, 13, 65, 76
11, 30464, Note_on_c, 13, 65, 0
11, 30480, Note_on_c, 13, 64, 76
11, 30584, Note_on_c, 13, 64, 0
11, 30600, Note_on_c, 13, 62, 76
11, 30704, Note_on_c, 13, 62, 0
11, 30720, Note_on_c, 13, 61, 76
11, 30824, Note_on_c, 13, 61, 0
11, 30840, Note_on_c, 13, 62, 76
11, 30944, Note_on_c, 13, 62, 0
11, 30960, Note_on_c, 13, 64, 76
11, 31184, Note_on_c, 13, 64, 0
11, 31200, Note_on_c, 13, 64, 76
11, 31424, Note_on_c, 13, 64, 0
11, 31440, Note_on_c, 13, 61, 76
11, 31679, Note_on_c, 13, 61, 0
11, 31920, Note_on_c, 13, 62, 76
11, 32384, Note_on_c, 13, 62, 0
11, 32400, Note_on_c, 13, 62, 76
11, 32624, Note_on_c, 13, 62, 0
11, 32640, Note_on_c, 13, 62, 76
11, 32864, Note_on_c, 13, 62, 0
11, 32880, Note_on_c, 13, 64, 76
11, 33104, Note_on_c, 13, 64, 0
11, 33120, Note_on_c, 13, 62, 76
11, 33344, Note_on_c, 13, 62, 0
11, 33360, Note_on_c, 13, 65, 76
11, 33584, Note_on_c, 13, 65, 0
11, 33600, Note_on_c, 13, 67, 76
11, 33824, Note_on_c, 13, 67, 0
11, 33840, Note_on_c, 13, 64, 76
11, 34064, Note_on_c, 13, 64, 0
11, 34080, Note_on_c, 13, 65, 76
11, 34544, Note_on_c, 13, 65, 0
11, 34560, Note_on_c, 13, 62, 76
11, 34784, Note_on_c, 13, 62, 0
11, 34800, Note_on_c, 13, 60, 76
11, 35024, Note_on_c, 13, 60, 0
11, 35040, Note_on_c, 13, 57, 76
11, 35264, Note_on_c, 13, 57, 0
11, 35280, Note_on_c, 13, 62, 76
11, 35504, Note_on_c, 13, 62, 0
11, 35520, Note_on_c, 13, 62, 76
11, 35984, Note_on_c, 13, 62, 0
11, 36000, Note_on_c, 13, 60, 76
11, 36224, Note_on_c, 13, 60, 0
11, 36240, Note_on_c, 13, 55, 76
11, 36464, Note_on_c, 13, 55, 0
11, 36480, Note_on_c, 13, 67, 76
11, 36704, Note_on_c, 13, 67, 0
11, 36720, Note_on_c, 13, 67, 76
11, 36944, Note_on_c, 13, 67, 0
11, 36960, Note_on_c, 13, 67, 76
11, 37184, Note_on_c, 13, 67, 0
11, 37200, Note_on_c, 13, 62, 76
11, 37424, Note_on_c, 13, 62, 0
11, 37440, Note_on_c, 13, 67, 76
11, 37664, Note_on_c, 13, 67, 0
11, 37680, Note_on_c, 13, 60, 76
11, 37904, Note_on_c, 13, 60, 0
11, 37920, Note_on_c, 13, 65, 76
11, 38144, Note_on_c, 13, 65, 0
11, 38160, Note_on_c, 13, 62, 76
11, 38384, Note_on_c, 13, 62, 0
11, 38400, Note_on_c, 13, 67, 76
11, 38624, Note_on_c, 13, 67, 0
11, 38640, Note_on_c, 13, 65, 76
11, 38864, Note_on_c, 13, 65, 0
11, 38880, Note_on_c, 13, 67, 76
11, 39104, Note_on_c, 13, 67, 0
11, 39120, Note_on_c, 13, 60, 76
11, 39344, Note_on_c, 13, 60, 0
11, 39360, Note_on_c, 13, 65, 76
11, 39584, Note_on_c, 13, 65, 0
11, 39600, Note_on_c, 13, 62, 76
11, 39824, Note_on_c, 13, 62, 0
11, 39840, Note_on_c, 13, 64, 76
11, 40319, Note_on_c, 13, 64, 0
11, 40560, Note_on_c, 13, 55, 68
11, 40784, Note_on_c, 13, 55, 0
11, 40800, Note_on_c, 13, 60, 68
11, 41024, Note_on_c, 13, 60, 0
11, 41040, Note_on_c, 13, 64, 68
11, 41159, Note_on_c, 13, 64, 0
11, 41160, Note_on_c, 13, 62, 68
11, 41279, Note_on_c, 13, 62, 0
11, 41280, Note_on_c, 13, 60, 68
11, 41399, Note_on_c, 13, 60, 0
11, 41400, Note_on_c, 13, 59, 68
11, 41504, Note_on_c, 13, 59, 0
11, 41520, Note_on_c, 13, 60, 68
11, 41639, Note_on_c, 13, 60, 0
11, 41640, Note_on_c, 13, 62, 68
11, 41759, Note_on_c, 13, 62, 0
11, 41760, Note_on_c, 13, 64, 68
11, 41879, Note_on_c, 13, 64, 0
11, 41880, Note_on_c, 13, 65, 68
11, 41984, Note_on_c, 13, 65, 0
11, 42000, Note_on_c, 13, 67, 68
11, 42464, Note_on_c, 13, 67, 0
11, 42480, Note_on_c, 13, 69, 68
11, 42704, Note_on_c, 13, 69, 0
11, 42720, Note_on_c, 13, 65, 68
11, 42944, Note_on_c, 13, 65, 0
11, 42960, Note_on_c, 13, 62, 68
11, 43184, Note_on_c, 13, 62, 0
11, 43200, Note_on_c, 13, 60, 68
11, 43319, Note_on_c, 13, 60, 0
11, 43320, Note_on_c, 13, 59, 68
11, 43439, Note_on_c, 13, 59, 0
11, 43440, Note_on_c, 13, 57, 68
11, 43559, Note_on_c, 13, 57, 0
11, 43560, Note_on_c, 13, 55, 68
11, 43664, Note_on_c, 13, 55, 0
11, 43680, Note_on_c, 13, 60, 68
11, 43904, Note_on_c, 13, 60, 0
11, 43920, Note_on_c, 13, 64, 68
11, 44039, Note_on_c, 13, 64, 0
11, 44040, Note_on_c, 13, 62, 68
11, 44159, Note_on_c, 13, 62, 0
11, 44160, Note_on_c, 13, 60, 68
11, 44279, Note_on_c, 13, 60, 0
11, 44280, Note_on_c, 13, 59, 68
11, 44384, Note_on_c, 13, 59, 0
11, 44400, Note_on_c, 13, 62, 68
11, 44519, Note_on_c, 13, 62, 0
11, 44520, Note_on_c, 13, 60, 68
11, 44624, Note_on_c, 13, 60, 0
11, 44640, Note_on_c, 13, 59, 68
11, 44759, Note_on_c, 13, 59, 0
11, 44760, Note_on_c, 13, 57, 68
11, 44864, Note_on_c, 13, 57, 0
11, 44880, Note_on_c, 13, 62, 68
11, 45344, Note_on_c, 13, 62, 0
11, 45360, Note_on_c, 13, 60, 68
11, 45479, Note_on_c, 13, 60, 0
11, 45480, Note_on_c, 13, 59, 68
11, 45584, Note_on_c, 13, 59, 0
11, 45600, Note_on_c, 13, 57, 68
11, 45719, Note_on_c, 13, 57, 0
11, 45720, Note_on_c, 13, 59, 68
11, 45824, Note_on_c, 13, 59, 0
11, 45840, Note_on_c, 13, 55, 68
11, 46304, Note_on_c, 13, 55, 0
11, 46320, Note_on_c, 13, 55, 68
11, 46544, Note_on_c, 13, 55, 0
11, 46560, Note_on_c, 13, 60, 68
11, 46784, Note_on_c, 13, 60, 0
11, 46800, Note_on_c, 13, 64, 68
11, 46919, Note_on_c, 13, 64, 0
11, 46920, Note_on_c, 13, 62, 68
11, 47039, Note_on_c, 13, 62, 0
11, 47040, Note_on_c, 13, 60, 68
11, 47159, Note_on_c, 13, 60, 0
11, 47160, Note_on_c, 13, 59, 68
11, 47264, Note_on_c, 13, 59, 0
11, 47280, Note_on_c, 13, 60, 68
11, 47399, Note_on_c, 13, 60, 0
11, 47400, Note_on_c, 13, 62, 68
11, 47519, Note_on_c, 13, 62, 0
11, 47520, Note_on_c, 13, 64, 68
11, 47639, Note_on_c, 13, 64, 0
11, 47640, Note_on_c, 13, 65, 68
11, 47744, Note_on_c, 13, 65, 0
11, 47760, Note_on_c, 13, 67, 68
11, 48224, Note_on_c, 13, 67, 0
11, 48240, Note_on_c, 13, 69, 68
11, 48464, Note_on_c, 13, 69, 0
11, 48480, Note_on_c, 13, 65, 68
11, 48704, Note_on_c, 13, 65, 0
11, 48720, Note_on_c, 13, 62, 68
11, 48944, Note_on_c, 13, 62, 0
11, 48960, Note_on_c, 13, 60, 68
11, 49079, Note_on_c, 13, 60, 0
11, 49080, Note_on_c, 13, 59, 68
11, 49199, Note_on_c, 13, 59, 0
11, 49200, Note_on_c, 13, 57, 68
11, 49319, Note_on_c, 13, 57, 0
11, 49320, Note_on_c, 13, 55, 68
11, 49424, Note_on_c, 13, 55, 0
11, 49440, Note_on_c, 13, 60, 68
11, 49664, Note_on_c, 13, 60, 0
11, 49680, Note_on_c, 13, 64, 68
11, 49799, Note_on_c, 13, 64, 0
11, 49800, Note_on_c, 13, 62, 68
11, 49919, Note_on_c, 13, 62, 0
11, 49920, Note_on_c, 13, 60, 68
11, 50039, Note_on_c, 13, 60, 0
11, 50040, Note_on_c, 13, 59, 68
11, 50144, Note_on_c, 13, 59, 0
11, 50160, Note_on_c, 13, 62, 68
11, 50279, Note_on_c, 13, 62, 0
11, 50280, Note_on_c, 13, 60, 68
11, 50384, Note_on_c, 13, 60, 0
11, 50400, Note_on_c, 13, 59, 68
11, 50519, Note_on_c, 13, 59, 0
11, 50520, Note_on_c, 13, 57, 68
11, 50624, Note_on_c, 13, 57, 0
11, 50640, Note_on_c, 13, 62, 68
11, 51104, Note_on_c, 13, 62, 0
11, 51120, Note_on_c, 13, 60, 68
11, 51239, Note_on_c, 13, 60, 0
11, 51240, Note_on_c, 13, 59, 68
11, 51344, Note_on_c, 13, 59, 0
11, 51360, Note_on_c, 13, 57, 68
11, 51479, Note_on_c, 13, 57, 0
11, 51480, Note_on_c, 13, 59, 68
11, 51584, Note_on_c, 13, 59, 0
11, 51600, Note_on_c, 13, 55, 68
11, 52064, Note_on_c, 13, 55, 0
11, 52080, Note_on_c, 13, 62, 68
11, 52304, Note_on_c, 13, 62, 0
11, 52320, Note_on_c, 13, 59, 68
11, 52544, Note_on_c, 13, 59, 0
11, 52560, Note_on_c, 13, 60, 68
11, 52679, Note_on_c, 13, 60, 0
11, 52680, Note_on_c, 13, 59, 68
11, 52799, Note_on_c, 13, 59, 0
11, 52800, Note_on_c, 13, 57, 68
11, 52919, Note_on_c, 13, 57, 0
11, 52920, Note_on_c, 13, 55, 68
11, 53024, Note_on_c, 13, 55, 0
11, 53040, Note_on_c, 13, 64, 68
11, 53144, Note_on_c, 13, 64, 0
11, 53160, Note_on_c, 13, 65, 68
11, 53264, Note_on_c, 13, 65, 0
11, 53280, Note_on_c, 13, 67, 68
11, 53384, Note_on_c, 13, 67, 0
11, 53400, Note_on_c, 13, 69, 68
11, 53504, Note_on_c, 13, 69, 0
11, 53520, Note_on_c, 13, 70, 68
11, 53984, Note_on_c, 13, 70, 0
11, 54000, Note_on_c, 13, 69, 68
11, 54224, Note_on_c, 13, 69, 0
11, 54240, Note_on_c, 13, 67, 68
11, 54464, Note_on_c, 13, 67, 0
11, 54480, Note_on_c, 13, 65, 68
11, 54704, Note_on_c, 13, 65, 0
11, 54720, Note_on_c, 13, 67, 68
11, 54839, Note_on_c, 13, 67, 0
11, 54840, Note_on_c, 13, 65, 68
11, 54959, Note_on_c, 13, 65, 0
11, 54960, Note_on_c, 13, 64, 68
11, 55079, Note_on_c, 13, 64, 0
11, 55080, Note_on_c, 13, 62, 68
11, 55184, Note_on_c, 13, 62, 0
11, 55200, Note_on_c, 13, 61, 68
11, 55304, Note_on_c, 13, 61, 0
11, 55320, Note_on_c, 13, 62, 68
11, 55424, Note_on_c, 13, 62, 0
11, 55440, Note_on_c, 13, 64, 68
11, 55664, Note_on_c, 13, 64, 0
11, 55680, Note_on_c, 13, 69, 68
11, 56144, Note_on_c, 13, 69, 0
11, 56160, Note_on_c, 13, 67, 68
11, 56279, Note_on_c, 13, 67, 0
11, 56280, Note_on_c, 13, 65, 68
11, 56399, Note_on_c, 13, 65, 0
11, 56400, Note_on_c, 13, 64, 68
11, 56519, Note_on_c, 13, 64, 0
11, 56520, Note_on_c, 13, 62, 68
11, 56624, Note_on_c, 13, 62, 0
11, 56640, Note_on_c, 13, 61, 68
11, 56759, Note_on_c, 13, 61, 0
11, 56760, Note_on_c, 13, 62, 68
11, 56879, Note_on_c, 13, 62, 0
11, 56880, Note_on_c, 13, 64, 68
11, 56999, Note_on_c, 13, 64, 0
11, 57000, Note_on_c, 13, 65, 68
11, 57104, Note_on_c, 13, 65, 0
11, 57120, Note_on_c, 13, 67, 68
11, 57584, Note_on_c, 13, 67, 0
11, 57600, Note_on_c, 13, 65, 68
11, 57719, Note_on_c, 13, 65, 0
11, 57720, Note_on_c, 13, 64, 68
11, 57839, Note_on_c, 13, 64, 0
11, 57840, Note_on_c, 13, 62, 68
11, 57959, Note_on_c, 13, 62, 0
11, 57960, Note_on_c, 13, 61, 68
11, 58064, Note_on_c, 13, 61, 0
11, 58080, Note_on_c, 13, 62, 68
11, 58184, Note_on_c, 13, 62, 0
11, 58200, Note_on_c, 13, 57, 68
11, 58304, Note_on_c, 13, 57, 0
11, 58320, Note_on_c, 13, 65, 68
11, 58439, Note_on_c, 13, 65, 0
11, 58440, Note_on_c, 13, 64, 68
11, 58559, Note_on_c, 13, 64, 0
11, 58560, Note_on_c, 13, 62, 68
11, 58679, Note_on_c, 13, 62, 0
11, 58680, Note_on_c, 13, 60, 68
11, 58784, Note_on_c, 13, 60, 0
11, 58800, Note_on_c, 13, 58, 68
11, 58919, Note_on_c, 13, 58, 0
11, 58920, Note_on_c, 13, 62, 68
11, 59039, Note_on_c, 13, 62, 0
11, 59040, Note_on_c, 13, 67, 68
11, 59144, Note_on_c, 13, 67, 0
11, 59160, Note_on_c, 13, 64, 68
11, 59264, Note_on_c, 13, 64, 0
11, 59280, Note_on_c, 13, 65, 68
11, 59624, Note_on_c, 13, 65, 0
11, 59640, Note_on_c, 13, 62, 68
11, 59744, Note_on_c, 13, 62, 0
11, 59760, Note_on_c, 13, 65, 68
11, 59879, Note_on_c, 13, 65, 0
11, 59880, Note_on_c, 13, 64, 68
11, 59984, Note_on_c, 13, 64, 0
11, 60000, Note_on_c, 13, 62, 68
11, 60119, Note_on_c, 13, 62, 0
11, 60120, Note_on_c, 13, 61, 68
11, 60224, Note_on_c, 13, 61, 0
11, 60240, Note_on_c, 13, 62, 68
11, 60704, Note_on_c, 13, 62, 0
11, 60720, Note_on_c, 13, 57, 68
11, 60824, Note_on_c, 13, 57, 0
11, 60840, Note_on_c, 13, 59, 68
11, 60944, Note_on_c, 13, 59, 0
11, 60960, Note_on_c, 13, 60, 68
11, 61184, Note_on_c, 13, 60, 0
11, 61200, Note_on_c, 13, 62, 68
11, 61319, Note_on_c, 13, 62, 0
11, 61320, Note_on_c, 13, 60, 68
11, 61439, Note_on_c, 13, 60, 0
11, 61440, Note_on_c, 13, 59, 68
11, 61559, Note_on_c, 13, 59, 0
11, 61560, Note_on_c, 13, 57, 68
11, 61664, Note_on_c, 13, 57, 0
11, 61680, Note_on_c, 13, 59, 68
11, 61784, Note_on_c, 13, 59, 0
11, 61800, Note_on_c, 13, 57, 68
11, 61904, Note_on_c, 13, 57, 0
11, 61920, Note_on_c, 13, 55, 68
11, 62024, Note_on_c, 13, 55, 0
11, 62040, Note_on_c, 13, 57, 68
11, 62144, Note_on_c, 13, 57, 0
11, 62160, Note_on_c, 13, 59, 68
11, 62264, Note_on_c, 13, 59, 0
11, 62280, Note_on_c, 13, 60, 68
11, 62384, Note_on_c, 13, 60, 0
11, 62400, Note_on_c, 13, 62, 68
11, 62504, Note_on_c, 13, 62, 0
11, 62520, Note_on_c, 13, 64, 68
11, 62624, Note_on_c, 13, 64, 0
11, 62640, Note_on_c, 13, 65, 68
11, 62864, Note_on_c, 13, 65, 0
11, 62880, Note_on_c, 13, 64, 68
11, 63104, Note_on_c, 13, 64, 0
11, 63120, Note_on_c, 13, 62, 68
11, 63224, Note_on_c, 13, 62, 0
11, 63240, Note_on_c, 13, 60, 68
11, 63344, Note_on_c, 13, 60, 0
11, 63360, Note_on_c, 13, 59, 68
11, 63464, Note_on_c, 13, 59, 0
11, 63480, Note_on_c, 13, 60, 68
11, 63584, Note_on_c, 13, 60, 0
11, 63600, Note_on_c, 13, 62, 68
11, 63704, Note_on_c, 13, 62, 0
11, 63720, Note_on_c, 13, 64, 68
11, 63824, Note_on_c, 13, 64, 0
11, 63840, Note_on_c, 13, 65, 68
11, 63944, Note_on_c, 13, 65, 0
11, 63960, Note_on_c, 13, 67, 68
11, 64064, Note_on_c, 13, 67, 0
11, 64080, Note_on_c, 13, 69, 68
11, 64304, Note_on_c, 13, 69, 0
11, 64320, Note_on_c, 13, 67, 68
11, 64784, Note_on_c, 13, 67, 0
11, 64800, Note_on_c, 13, 58, 68
11, 64919, Note_on_c, 13, 58, 0
11, 64920, Note_on_c, 13, 57, 68
11, 65039, Note_on_c, 13, 57, 0
11, 65040, Note_on_c, 13, 58, 68
11, 65159, Note_on_c, 13, 58, 0
11, 65160, Note_on_c, 13, 55, 68
11, 65264, Note_on_c, 13, 55, 0
11, 65280, Note_on_c, 13, 57, 68
11, 65504, Note_on_c, 13, 57, 0
11, 65520, Note_on_c, 13, 62, 68
11, 65744, Note_on_c, 13, 62, 0
11, 65760, Note_on_c, 13, 59, 68
11, 65789, Note_on_c, 13, 59, 0
11, 65790, Note_on_c, 13, 60, 68
11, 65819, Note_on_c, 13, 60, 0
11, 65820, Note_on_c, 13, 59, 68
11, 65849, Note_on_c, 13, 59, 0
11, 65850, Note_on_c, 13, 60, 68
11, 65879, Note_on_c, 13, 60, 0
11, 65880, Note_on_c, 13, 59, 68
11, 65909, Note_on_c, 13, 59, 0
11, 65910, Note_on_c, 13, 60, 68
11, 65939, Note_on_c, 13, 60, 0
11, 65940, Note_on_c, 13, 57, 68
11, 65969, Note_on_c, 13, 57, 0
11, 65970, Note_on_c, 13, 59, 68
11, 65999, Note_on_c, 13, 59, 0
11, 66000, Note_on_c, 13, 60, 68
11, 66464, Note_on_c, 13, 60, 0
11, 66480, Note_on_c, 13, 62, 68
11, 66704, Note_on_c, 13, 62, 0
11, 66720, Note_on_c, 13, 59, 68
11, 66944, Note_on_c, 13, 59, 0
11, 66960, Note_on_c, 13, 60, 68
11, 67079, Note_on_c, 13, 60, 0
11, 67080, Note_on_c, 13, 59, 68
11, 67199, Note_on_c, 13, 59, 0
11, 67200, Note_on_c, 13, 57, 68
11, 67319, Note_on_c, 13, 57, 0
11, 67320, Note_on_c, 13, 55, 68
11, 67424, Note_on_c, 13, 55, 0
11, 67440, Note_on_c, 13, 64, 68
11, 67544, Note_on_c, 13, 64, 0
11, 67560, Note_on_c, 13, 65, 68
11, 67664, Note_on_c, 13, 65, 0
11, 67680, Note_on_c, 13, 67, 68
11, 67784, Note_on_c, 13, 67, 0
11, 67800, Note_on_c, 13, 69, 68
11, 67904, Note_on_c, 13, 69, 0
11, 67920, Note_on_c, 13, 70, 68
11, 68384, Note_on_c, 13, 70, 0
11, 68400, Note_on_c, 13, 69, 68
11, 68624, Note_on_c, 13, 69, 0
11, 68640, Note_on_c, 13, 67, 68
11, 68864, Note_on_c, 13, 67, 0
11, 68880, Note_on_c, 13, 65, 68
11, 69104, Note_on_c, 13, 65, 0
11, 69120, Note_on_c, 13, 67, 68
11, 69239, Note_on_c, 13, 67, 0
11, 69240, Note_on_c, 13, 65, 68
11, 69359, Note_on_c, 13, 65, 0
11, 69360, Note_on_c, 13, 64, 68
11, 69479, Note_on_c, 13, 64, 0
11, 69480, Note_on_c, 13, 62, 68
11, 69584, Note_on_c, 13, 62, 0
11, 69600, Note_on_c, 13, 61, 68
11, 69704, Note_on_c, 13, 61, 0
11, 69720, Note_on_c, 13, 62, 68
11, 69824, Note_on_c, 13, 62, 0
11, 69840, Note_on_c, 13, 64, 68
11, 70064, Note_on_c, 13, 64, 0
11, 70080, Note_on_c, 13, 69, 68
11, 70544, Note_on_c, 13, 69, 0
11, 70560, Note_on_c, 13, 67, 68
11, 70679, Note_on_c, 13, 67, 0
11, 70680, Note_on_c, 13, 65, 68
11, 70799, Note_on_c, 13, 65, 0
11, 70800, Note_on_c, 13, 64, 68
11, 70919, Note_on_c, 13, 64, 0
11, 70920, Note_on_c, 13, 62, 68
11, 71024, Note_on_c, 13, 62, 0
11, 71040, Note_on_c, 13, 61, 68
11, 71159, Note_on_c, 13, 61, 0
11, 71160, Note_on_c, 13, 62, 68
11, 71279, Note_on_c, 13, 62, 0
11, 71280, Note_on_c, 13, 64, 68
11, 71399, Note_on_c, 13, 64, 0
11, 71400, Note_on_c, 13, 65, 68
11, 71504, Note_on_c, 13, 65, 0
11, 71520, Note_on_c, 13, 67, 68
11, 71984, Note_on_c, 13, 67, 0
11, 72000, Note_on_c, 13, 65, 68
11, 72119, Note_on_c, 13, 65, 0
11, 72120, Note_on_c, 13, 64, 68
11, 72239, Note_on_c, 13, 64, 0
11, 72240, Note_on_c, 13, 62, 68
11, 72359, Note_on_c, 13, 62, 0
11, 72360, Note_on_c, 13, 61, 68
11, 72464, Note_on_c, 13, 61, 0
11, 72480, Note_on_c, 13, 62, 68
11, 72584, Note_on_c, 13, 62, 0
11, 72600, Note_on_c, 13, 57, 68
11, 72704, Note_on_c, 13, 57, 0
11, 72720, Note_on_c, 13, 65, 68
11, 72839, Note_on_c, 13, 65, 0
11, 72840, Note_on_c, 13, 64, 68
11, 72959, Note_on_c, 13, 64, 0
11, 72960, Note_on_c, 13, 62, 68
11, 73079, Note_on_c, 13, 62, 0
11, 73080, Note_on_c, 13, 60, 68
11, 73184, Note_on_c, 13, 60, 0
11, 73200, Note_on_c, 13, 58, 68
11, 73319, Note_on_c, 13, 58, 0
11, 73320, Note_on_c, 13, 62, 68
11, 73439, Note_on_c, 13, 62, 0
11, 73440, Note_on_c, 13, 67, 68
11, 73544, Note_on_c, 13, 67, 0
11, 73560, Note_on_c, 13, 64, 68
11, 73664, Note_on_c, 13, 64, 0
11, 73680, Note_on_c, 13, 65, 68
11, 74024, Note_on_c, 13, 65, 0
11, 74040, Note_on_c, 13, 62, 68
11, 74144, Note_on_c, 13, 62, 0
11, 74160, Note_on_c, 13, 65, 68
11, 74279, Note_on_c, 13, 65, 0
11, 74280, Note_on_c, 13, 64, 68
11, 74384, Note_on_c, 13, 64, 0
11, 74400, Note_on_c, 13, 62, 68
11, 74519, Note_on_c, 13, 62, 0
11, 74520, Note_on_c, 13, 61, 68
11, 74624, Note_on_c, 13, 61, 0
11, 74640, Note_on_c, 13, 62, 68
11, 75104, Note_on_c, 13, 62, 0
11, 75120, Note_on_c, 13, 57, 68
11, 75224, Note_on_c, 13, 57, 0
11, 75240, Note_on_c, 13, 59, 68
11, 75344, Note_on_c, 13, 59, 0
11, 75360, Note_on_c, 13, 60, 68
11, 75584, Note_on_c, 13, 60, 0
11, 75600, Note_on_c, 13, 62, 68
11, 75719, Note_on_c, 13, 62, 0
11, 75720, Note_on_c, 13, 60, 68
11, 75839, Note_on_c, 13, 60, 0
11, 75840, Note_on_c, 13, 59, 68
11, 75959, Note_on_c, 13, 59, 0
11, 75960, Note_on_c, 13, 57, 68
11, 76064, Note_on_c, 13, 57, 0
11, 76080, Note_on_c, 13, 59, 68
11, 76184, Note_on_c, 13, 59, 0
11, 76200, Note_on_c, 13, 57, 68
11, 76304, Note_on_c, 13, 57, 0
11, 76320, Note_on_c, 13, 55, 68
11, 76424, Note_on_c, 13, 55, 0
11, 76440, Note_on_c, 13, 57, 68
11, 76544, Note_on_c, 13, 57, 0
11, 76560, Note_on_c, 13, 59, 68
11, 76664, Note_on_c, 13, 59, 0
11, 76680, Note_on_c, 13, 60, 68
11, 76784, Note_on_c, 13, 60, 0
11, 76800, Note_on_c, 13, 62, 68
11, 76904, Note_on_c, 13, 62, 0
11, 76920, Note_on_c, 13, 64, 68
11, 77024, Note_on_c, 13, 64, 0
11, 77040, Note_on_c, 13, 65, 68
11, 77264, Note_on_c, 13, 65, 0
11, 77280, Note_on_c, 13, 64, 68
11, 77504, Note_on_c, 13, 64, 0
11, 77520, Note_on_c, 13, 62, 68
11, 77624, Note_on_c, 13, 62, 0
11, 77640, Note_on_c, 13, 60, 68
11, 77744, Note_on_c, 13, 60, 0
11, 77760, Note_on_c, 13, 59, 68
11, 77864, Note_on_c, 13, 59, 0
11, 77880, Note_on_c, 13, 60, 68
11, 77984, Note_on_c, 13, 60, 0
11, 78000, Note_on_c, 13, 62, 68
11, 78104, Note_on_c, 13, 62, 0
11, 78120, Note_on_c, 13, 64, 68
11, 78224, Note_on_c, 13, 64, 0
11, 78240, Note_on_c, 13, 65, 68
11, 78344, Note_on_c, 13, 65, 0
11, 78360, Note_on_c, 13, 67, 68
11, 78464, Note_on_c, 13, 67, 0
11, 78480, Note_on_c, 13, 69, 68
11, 78704, Note_on_c, 13, 69, 0
11, 78720, Note_on_c, 13, 67, 68
11, 79184, Note_on_c, 13, 67, 0
11, 79200, Note_on_c, 13, 58, 68
11, 79319, Note_on_c, 13, 58, 0
11, 79320, Note_on_c, 13, 57, 68
11, 79439, Note_on_c, 13, 57, 0
11, 79440, Note_on_c, 13, 58, 68
11, 79559, Note_on_c, 13, 58, 0
11, 79560, Note_on_c, 13, 55, 68
11, 79664, Note_on_c, 13, 55, 0
11, 79680, Note_on_c, 13, 57, 68
11, 79904, Note_on_c, 13, 57, 0
11, 79920, Note_on_c, 13, 62, 68
11, 80144, Note_on_c, 13, 62, 0
11, 80160, Note_on_c, 13, 59, 68
11, 80189, Note_on_c, 13, 59, 0
11, 80190, Note_on_c, 13, 60, 68
11, 80219, Note_on_c, 13, 60, 0
11, 80220, Note_on_c, 13, 59, 68
11, 80249, Note_on_c, 13, 59, 0
11, 80250, Note_on_c, 13, 60, 68
11, 80279, Note_on_c, 13, 60, 0
11, 80280, Note_on_c, 13, 59, 68
11, 80309, Note_on_c, 13, 59, 0
11, 80310, Note_on_c, 13, 60, 68
11, 80339, Note_on_c, 13, 60, 0
11, 80340, Note_on_c, 13, 57, 68
11, 80369, Note_on_c, 13, 57, 0
11, 80370, Note_on_c, 13, 59, 68
11, 80399, Note_on_c, 13, 59, 0
11, 80400, Note_on_c, 13, 60, 68
11, 80879, Note_on_c, 13, 60, 0
11, 81120, Note_on_c, 13, 60, 76
11, 81344, Note_on_c, 13, 60, 0
11, 81360, Note_on_c, 13, 55, 76
11, 81824, Note_on_c, 13, 55, 0
11, 81840, Note_on_c, 13, 55, 76
11, 82064, Note_on_c, 13, 55, 0
11, 82080, Note_on_c, 13, 60, 76
11, 82544, Note_on_c, 13, 60, 0
11, 82560, Note_on_c, 13, 62, 76
11, 82784, Note_on_c, 13, 62, 0
11, 82800, Note_on_c, 13, 64, 76
11, 83024, Note_on_c, 13, 64, 0
11, 83040, Note_on_c, 13, 60, 76
11, 83264, Note_on_c, 13, 60, 0
11, 83280, Note_on_c, 13, 65, 76
11, 83504, Note_on_c, 13, 65, 0
11, 83520, Note_on_c, 13, 67, 76
11, 83744, Note_on_c, 13, 67, 0
11, 83760, Note_on_c, 13, 69, 76
11, 83984, Note_on_c, 13, 69, 0
11, 84000, Note_on_c, 13, 71, 76
11, 84224, Note_on_c, 13, 71, 0
11, 84240, Note_on_c, 13, 72, 76
11, 84464, Note_on_c, 13, 72, 0
11, 84480, Note_on_c, 13, 60, 76
11, 84704, Note_on_c, 13, 60, 0
11, 84720, Note_on_c, 13, 62, 76
11, 84944, Note_on_c, 13, 62, 0
11, 84960, Note_on_c, 13, 64, 76
11, 85424, Note_on_c, 13, 64, 0
11, 85440, Note_on_c, 13, 62, 76
11, 85664, Note_on_c, 13, 62, 0
11, 85680, Note_on_c, 13, 67, 76
11, 85904, Note_on_c, 13, 67, 0
11, 85920, Note_on_c, 13, 62, 76
11, 86144, Note_on_c, 13, 62, 0
11, 86160, Note_on_c, 13, 60, 76
11, 86384, Note_on_c, 13, 60, 0
11, 86400, Note_on_c, 13, 59, 76
11, 86864, Note_on_c, 13, 59, 0
11, 86880, Note_on_c, 13, 60, 76
11, 87104, Note_on_c, 13, 60, 0
11, 87120, Note_on_c, 13, 55, 76
11, 87584, Note_on_c, 13, 55, 0
11, 87600, Note_on_c, 13, 55, 76
11, 87824, Note_on_c, 13, 55, 0
11, 87840, Note_on_c, 13, 60, 76
11, 88304, Note_on_c, 13, 60, 0
11, 88320, Note_on_c, 13, 62, 76
11, 88544, Note_on_c, 13, 62, 0
11, 88560, Note_on_c, 13, 64, 76
11, 88784, Note_on_c, 13, 64, 0
11, 88800, Note_on_c, 13, 60, 76
11, 89024, Note_on_c, 13, 60, 0
11, 89040, Note_on_c, 13, 65, 76
11, 89264, Note_on_c, 13, 65, 0
11, 89280, Note_on_c, 13, 67, 76
11, 89504, Note_on_c, 13, 67, 0
11, 89520, Note_on_c, 13, 69, 76
11, 89744, Note_on_c, 13, 69, 0
11, 89760, Note_on_c, 13, 71, 76
11, 89984, Note_on_c, 13, 71, 0
11, 90000, Note_on_c, 13, 72, 76
11, 90224, Note_on_c, 13, 72, 0
11, 90240, Note_on_c, 13, 60, 76
11, 90464, Note_on_c, 13, 60, 0
11, 90480, Note_on_c, 13, 62, 76
11, 90704, Note_on_c, 13, 62, 0
11, 90720, Note_on_c, 13, 64, 76
11, 91184, Note_on_c, 13, 64, 0
11, 91200, Note_on_c, 13, 62, 76
11, 91424, Note_on_c, 13, 62, 0
11, 91440, Note_on_c, 13, 67, 76
11, 91664, Note_on_c, 13, 67, 0
11, 91680, Note_on_c, 13, 62, 76
11, 91904, Note_on_c, 13, 62, 0
11, 91920, Note_on_c, 13, 60, 76
11, 92144, Note_on_c, 13, 60, 0
11, 92160, Note_on_c, 13, 59, 76
11, 92624, Note_on_c, 13, 59, 0
11, 92640, Note_on_c, 13, 67, 76
11, 92864, Note_on_c, 13, 67, 0
11, 92880, Note_on_c, 13, 62, 76
11, 93344, Note_on_c, 13, 62, 0
11, 93360, Note_on_c, 13, 62, 76
11, 93584, Note_on_c, 13, 62, 0
11, 93600, Note_on_c, 13, 60, 76
11, 93824, Note_on_c, 13, 60, 0
11, 93840, Note_on_c, 13, 72, 76
11, 94064, Note_on_c, 13, 72, 0
11, 94080, Note_on_c, 13, 65, 76
11, 94304, Note_on_c, 13, 65, 0
11, 94320, Note_on_c, 13, 64, 76
11, 94544, Note_on_c, 13, 64, 0
11, 94560, Note_on_c, 13, 57, 76
11, 94784, Note_on_c, 13, 57, 0
11, 94800, Note_on_c, 13, 69, 76
11, 95024, Note_on_c, 13, 69, 0
11, 95040, Note_on_c, 13, 69, 76
11, 95504, Note_on_c, 13, 69, 0
11, 95520, Note_on_c, 13, 70, 76
11, 95744, Note_on_c, 13, 70, 0
11, 95760, Note_on_c, 13, 64, 76
11, 95984, Note_on_c, 13, 64, 0
11, 96000, Note_on_c, 13, 57, 76
11, 96104, Note_on_c, 13, 57, 0
11, 96120, Note_on_c, 13, 59, 76
11, 96224, Note_on_c, 13, 59, 0
11, 96240, Note_on_c, 13, 61, 76
11, 96344, Note_on_c, 13, 61, 0
11, 96360, Note_on_c, 13, 62, 76
11, 96464, Note_on_c, 13, 62, 0
11, 96480, Note_on_c, 13, 64, 76
11, 96704, Note_on_c, 13, 64, 0
11, 96720, Note_on_c, 13, 69, 76
11, 96944, Note_on_c, 13, 69, 0
11, 96960, Note_on_c, 13, 67, 76
11, 97064, Note_on_c, 13, 67, 0
11, 97080, Note_on_c, 13, 65, 76
11, 97184, Note_on_c, 13, 65, 0
11, 97200, Note_on_c, 13, 64, 76
11, 97304, Note_on_c, 13, 64, 0
11, 97320, Note_on_c, 13, 62, 76
11, 97424, Note_on_c, 13, 62, 0
11, 97440, Note_on_c, 13, 61, 76
11, 97544, Note_on_c, 13, 61, 0
11, 97560, Note_on_c, 13, 62, 76
11, 97664, Note_on_c, 13, 62, 0
11, 97680, Note_on_c, 13, 64, 76
11, 97904, Note_on_c, 13, 64, 0
11, 97920, Note_on_c, 13, 64, 76
11, 98144, Note_on_c, 13, 64, 0
11, 98160, Note_on_c, 13, 61, 76
11, 98399, Note_on_c, 13, 61, 0
11, 98640, Note_on_c, 13, 62, 76
11, 99104, Note_on_c, 13, 62, 0
11, 99120, Note_on_c, 13, 62, 76
11, 99344, Note_on_c, 13, 62, 0
11, 99360, Note_on_c, 13, 62, 76
11, 99584, Note_on_c, 13, 62, 0
11, 99600, Note_on_c, 13, 64, 76
11, 99824, Note_on_c, 13, 64, 0
11, 99840, Note_on_c, 13, 62, 76
11, 100064, Note_on_c, 13, 62, 0
11, 100080, Note_on_c, 13, 65, 76
11, 100304, Note_on_c, 13, 65, 0
11, 100320, Note_on_c, 13, 67, 76
11, 100544, Note_on_c, 13, 67, 0
11, 100560, Note_on_c, 13, 64, 76
11, 100784, Note_on_c, 13, 64, 0
11, 100800, Note_on_c, 13, 65, 76
11, 101264, Note_on_c, 13, 65, 0
11, 101280, Note_on_c, 13, 62, 76
11, 101504, Note_on_c, 13, 62, 0
11, 101520, Note_on_c, 13, 60, 76
11, 101744, Note_on_c, 13, 60, 0
11, 101760, Note_on_c, 13, 57, 76
11, 101984, Note_on_c, 13, 57, 0
11, 102000, Note_on_c, 13, 62, 76
11, 102224, Note_on_c, 13, 62, 0
11, 102240, Note_on_c, 13, 62, 76
11, 102704, Note_on_c, 13, 62, 0
11, 102720, Note_on_c, 13, 60, 76
11, 102944, Note_on_c, 13, 60, 0
11, 102960, Note_on_c, 13, 55, 76
11, 103184, Note_on_c, 13, 55, 0
11, 103200, Note_on_c, 13, 67, 76
11, 103424, Note_on_c, 13, 67, 0
11, 103440, Note_on_c, 13, 67, 76
11, 103664, Note_on_c, 13, 67, 0
11, 103680, Note_on_c, 13, 67, 76
11, 103904, Note_on_c, 13, 67, 0
11, 103920, Note_on_c, 13, 62, 76
11, 104144, Note_on_c, 13, 62, 0
11, 104160, Note_on_c, 13, 67, 76
11, 104384, Note_on_c, 13, 67, 0
11, 104400, Note_on_c, 13, 60, 76
11, 104624, Note_on_c, 13, 60, 0
11, 104640, Note_on_c, 13, 65, 76
11, 104864, Note_on_c, 13, 65, 0
11, 104880, Note_on_c, 13, 62, 76
11, 105104, Note_on_c, 13, 62, 0
11, 105120, Note_on_c, 13, 67, 76
11, 105344, Note_on_c, 13, 67, 0
11, 105360, Note_on_c, 13, 65, 76
11, 105584, Note_on_c, 13, 65, 0
11, 105600, Note_on_c, 13, 67, 76
11, 105824, Note_on_c, 13, 67, 0
11, 105840, Note_on_c, 13, 60, 76
11, 106064, Note_on_c, 13, 60, 0
11, 106080, Note_on_c, 13, 65, 76
11, 106304, Note_on_c, 13, 65, 0
11, 106320, Note_on_c, 13, 62, 76
11, 106544, Note_on_c, 13, 62, 0
11, 106560, Note_on_c, 13, 64, 76
11, 107024, Note_on_c, 13, 64, 0
11, 107040, Note_on_c, 13, 67, 76
11, 107264, Note_on_c, 13, 67, 0
11, 107280, Note_on_c, 13, 62, 76
11, 107744, Note_on_c, 13, 62, 0
11, 107760, Note_on_c, 13, 62, 76
11, 107984, Note_on_c, 13, 62, 0
11, 108000, Note_on_c, 13, 60, 76
11, 108224, Note_on_c, 13, 60, 0
11, 108240, Note_on_c, 13, 72, 76
11, 108464, Note_on_c, 13, 72, 0
11, 108480, Note_on_c, 13, 65, 76
11, 108704, Note_on_c, 13, 65, 0
11, 108720, Note_on_c, 13, 64, 76
11, 108944, Note_on_c, 13, 64, 0
11, 108960, Note_on_c, 13, 57, 76
11, 109184, Note_on_c, 13, 57, 0
11, 109200, Note_on_c, 13, 69, 76
11, 109424, Note_on_c, 13, 69, 0
11, 109440, Note_on_c, 13, 69, 76
11, 109904, Note_on_c, 13, 69, 0
11, 109920, Note_on_c, 13, 70, 76
11, 110144, Note_on_c, 13, 70, 0
11, 110160, Note_on_c, 13, 64, 76
11, 110384, Note_on_c, 13, 64, 0
11, 110400, Note_on_c, 13, 57, 76
11, 110504, Note_on_c, 13, 57, 0
11, 110520, Note_on_c, 13, 59, 76
11, 110624, Note_on_c, 13, 59, 0
11, 110640, Note_on_c, 13, 61, 76
11, 110744, Note_on_c, 13, 61, 0
11, 110760, Note_on_c, 13, 62, 76
11, 110864, Note_on_c, 13, 62, 0
11, 110880, Note_on_c, 13, 64, 76
11, 111104, Note_on_c, 13, 64, 0
11, 111120, Note_on_c, 13, 69, 76
11, 111344, Note_on_c, 13, 69, 0
11, 111360, Note_on_c, 13, 67, 76
11, 111464, Note_on_c, 13, 67, 0
11, 111480, Note_on_c, 13, 65, 76
11, 111584, Note_on_c, 13, 65, 0
11, 111600, Note_on_c, 13, 64, 76
11, 111704, Note_on_c, 13, 64, 0
11, 111720, Note_on_c, 13, 62, 76
11, 111824, Note_on_c, 13, 62, 0
11, 111840, Note_on_c, 13, 61, 76
11, 111944, Note_on_c, 13, 61, 0
11, 111960, Note_on_c, 13, 62, 76
11, 112064, Note_on_c, 13, 62, 0
11, 112080, Note_on_c, 13, 64, 76
11, 112304, Note_on_c, 13, 64, 0
11, 112320, Note_on_c, 13, 64, 76
11, 112544, Note_on_c, 13, 64, 0
11, 112560, Note_on_c, 13, 61, 76
11, 112799, Note_on_c, 13, 61, 0
11, 113040, Note_on_c, 13, 62, 76
11, 113504, Note_on_c, 13, 62, 0
11, 113520, Note_on_c, 13, 62, 76
11, 113744, Note_on_c, 13, 62, 0
11, 113760, Note_on_c, 13, 62, 76
11, 113984, Note_on_c, 13, 62, 0
11, 114000, Note_on_c, 13, 64, 76
11, 114224, Note_on_c, 13, 64, 0
11, 114240, Note_on_c, 13, 62, 76
11, 114464, Note_on_c, 13, 62, 0
11, 114480, Note_on_c, 13, 65, 76
11, 114704, Note_on_c, 13, 65, 0
11, 114720, Note_on_c, 13, 67, 76
11, 114944, Note_on_c, 13, 67, 0
11, 114960, Note_on_c, 13, 64, 76
11, 115184, Note_on_c, 13, 64, 0
11, 115200, Note_on_c, 13, 65, 76
11, 115664, Note_on_c, 13, 65, 0
11, 115680, Note_on_c, 13, 62, 76
11, 115904, Note_on_c, 13, 62, 0
11, 115920, Note_on_c, 13, 60, 76
11, 116144, Note_on_c, 13, 60, 0
11, 116160, Note_on_c, 13, 57, 76
11, 116384, Note_on_c, 13, 57, 0
11, 116400, Note_on_c, 13, 62, 76
11, 116624, Note_on_c, 13, 62, 0
11, 116640, Note_on_c, 13, 62, 76
11, 117104, Note_on_c, 13, 62, 0
11, 117120, Note_on_c, 13, 60, 76
11, 117344, Note_on_c, 13, 60, 0
11, 117360, Note_on_c, 13, 55, 76
11, 117584, Note_on_c, 13, 55, 0
11, 117600, Note_on_c, 13, 67, 76
11, 117824, Note_on_c, 13, 67, 0
11, 117840, Note_on_c, 13, 67, 76
11, 118064, Note_on_c, 13, 67, 0
11, 118080, Note_on_c, 13, 67, 76
11, 118304, Note_on_c, 13, 67, 0
11, 118320, Note_on_c, 13, 62, 76
11, 118544, Note_on_c, 13, 62, 0
11, 118560, Note_on_c, 13, 67, 76
11, 118784, Note_on_c, 13, 67, 0
11, 118800, Note_on_c, 13, 60, 76
11, 119024, Note_on_c, 13, 60, 0
11, 119040, Note_on_c, 13, 65, 76
11, 119264, Note_on_c, 13, 65, 0
11, 119280, Note_on_c, 13, 62, 76
11, 119504, Note_on_c, 13, 62, 0
11, 119520, Note_on_c, 13, 67, 76
11, 119744, Note_on_c, 13, 67, 0
11, 119760, Note_on_c, 13, 65, 76
11, 119984, Note_on_c, 13, 65, 0
11, 120000, Note_on_c, 13, 67, 76
11, 120224, Note_on_c, 13, 67, 0
11, 120240, Note_on_c, 13, 60, 76
11, 120464, Note_on_c, 13, 60, 0
11, 120480, Note_on_c, 13, 65, 76
11, 120704, Note_on_c, 13, 65, 0
11, 120720, Note_on_c, 13, 62, 76
11, 120944, Note_on_c, 13, 62, 0
11, 120960, Note_on_c, 13, 64, 76
11, 121439, Note_on_c, 13, 64, 0
11, 121439, End_track
12, 0, Start_track
12, 0, Title_t, "Cello"
12, 0, MIDI_port, 0
12, 0, Program_c, 14, 48
12, 0, Control_c, 14, 10, 90
12, 0, Control_c, 14, 11, 127
12, 0, Control_c, 14, 7, 96
12, 0, Note_on_c, 14, 48, 76
12, 224, Note_on_c, 14, 48, 0
12, 240, Note_on_c, 14, 60, 76
12, 464, Note_on_c, 14, 60, 0
12, 480, Note_on_c, 14, 48, 76
12, 704, Note_on_c, 14, 48, 0
12, 720, Note_on_c, 14, 59, 76
12, 944, Note_on_c, 14, 59, 0
12, 960, Note_on_c, 14, 57, 76
12, 1184, Note_on_c, 14, 57, 0
12, 1200, Note_on_c, 14, 55, 76
12, 1424, Note_on_c, 14, 55, 0
12, 1440, Note_on_c, 14, 53, 76
12, 1664, Note_on_c, 14, 53, 0
12, 1680, Note_on_c, 14, 52, 76
12, 1904, Note_on_c, 14, 52, 0
12, 1920, Note_on_c, 14, 53, 76
12, 2144, Note_on_c, 14, 53, 0
12, 2160, Note_on_c, 14, 50, 76
12, 2384, Note_on_c, 14, 50, 0
12, 2400, Note_on_c, 14, 55, 76
12, 2624, Note_on_c, 14, 55, 0
12, 2640, Note_on_c, 14, 43, 76
12, 2864, Note_on_c, 14, 43, 0
12, 2880, Note_on_c, 14, 53, 76
12, 3104, Note_on_c, 14, 53, 0
12, 3120, Note_on_c, 14, 52, 76
12, 3344, Note_on_c, 14, 52, 0
12, 3360, Note_on_c, 14, 60, 76
12, 3584, Note_on_c, 14, 60, 0
12, 3600, Note_on_c, 14, 59, 76
12, 3824, Note_on_c, 14, 59, 0
12, 3840, Note_on_c, 14, 57, 76
12, 4064, Note_on_c, 14, 57, 0
12, 4080, Note_on_c, 14, 55, 76
12, 4304, Note_on_c, 14, 55, 0
12, 4320, Note_on_c, 14, 54, 76
12, 4544, Note_on_c, 14, 54, 0
12, 4560, Note_on_c, 14, 55, 76
12, 4784, Note_on_c, 14, 55, 0
12, 4800, Note_on_c, 14, 47, 76
12, 5024, Note_on_c, 14, 47, 0
12, 5040, Note_on_c, 14, 50, 76
12, 5264, Note_on_c, 14, 50, 0
12, 5280, Note_on_c, 14, 43, 76
12, 5504, Note_on_c, 14, 43, 0
12, 5520, Note_on_c, 14, 55, 76
12, 5624, Note_on_c, 14, 55, 0
12, 5640, Note_on_c, 14, 53, 76
12, 5744, Note_on_c, 14, 53, 0
12, 5760, Note_on_c, 14, 52, 76
12, 5864, Note_on_c, 14, 52, 0
12, 5880, Note_on_c, 14, 50, 76
12, 5984, Note_on_c, 14, 50, 0
12, 6000, Note_on_c, 14, 48, 76
12, 6224, Note_on_c, 14, 48, 0
12, 6240, Note_on_c, 14, 60, 76
12, 6464, Note_on_c, 14, 60, 0
12, 6480, Note_on_c, 14, 59, 76
12, 6704, Note_on_c, 14, 59, 0
12, 6720, Note_on_c, 14, 57, 76
12, 6944, Note_on_c, 14, 57, 0
12, 6960, Note_on_c, 14, 55, 76
12, 7184, Note_on_c, 14, 55, 0
12, 7200, Note_on_c, 14, 53, 76
12, 7424, Note_on_c, 14, 53, 0
12, 7440, Note_on_c, 14, 52, 76
12, 7664, Note_on_c, 14, 52, 0
12, 7680, Note_on_c, 14, 53, 76
12, 7904, Note_on_c, 14, 53, 0
12, 7920, Note_on_c, 14, 50, 76
12, 8144, Note_on_c, 14, 50, 0
12, 8160, Note_on_c, 14, 55, 76
12, 8384, Note_on_c, 14, 55, 0
12, 8400, Note_on_c, 14, 43, 76
12, 8624, Note_on_c, 14, 43, 0
12, 8640, Note_on_c, 14, 53, 76
12, 8864, Note_on_c, 14, 53, 0
12, 8880, Note_on_c, 14, 52, 76
12, 9104, Note_on_c, 14, 52, 0
12, 9120, Note_on_c, 14, 60, 76
12, 9344, Note_on_c, 14, 60, 0
12, 9360, Note_on_c, 14, 59, 76
12, 9584, Note_on_c, 14, 59, 0
12, 9600, Note_on_c, 14, 57, 76
12, 9824, Note_on_c, 14, 57, 0
12, 9840, Note_on_c, 14, 55, 76
12, 10064, Note_on_c, 14, 55, 0
12, 10080, Note_on_c, 14, 54, 76
12, 10304, Note_on_c, 14, 54, 0
12, 10320, Note_on_c, 14, 55, 76
12, 10544, Note_on_c, 14, 55, 0
12, 10560, Note_on_c, 14, 47, 76
12, 10784, Note_on_c, 14, 47, 0
12, 10800, Note_on_c, 14, 50, 76
12, 11024, Note_on_c, 14, 50, 0
12, 11040, Note_on_c, 14, 43, 76
12, 11504, Note_on_c, 14, 43, 0
12, 11520, Note_on_c, 14, 43, 76
12, 11744, Note_on_c, 14, 43, 0
12, 11760, Note_on_c, 14, 55, 76
12, 11984, Note_on_c, 14, 55, 0
12, 12000, Note_on_c, 14, 57, 76
12, 12224, Note_on_c, 14, 57, 0
12, 12240, Note_on_c, 14, 59, 76
12, 12464, Note_on_c, 14, 59, 0
12, 12480, Note_on_c, 14, 60, 76
12, 12704, Note_on_c, 14, 60, 0
12, 12720, Note_on_c, 14, 48, 76
12, 12944, Note_on_c, 14, 48, 0
12, 12960, Note_on_c, 14, 50, 76
12, 13184, Note_on_c, 14, 50, 0
12, 13200, Note_on_c, 14, 52, 76
12, 13424, Note_on_c, 14, 52, 0
12, 13440, Note_on_c, 14, 49, 76
12, 13664, Note_on_c, 14, 49, 0
12, 13680, Note_on_c, 14, 45, 76
12, 13904, Note_on_c, 14, 45, 0
12, 13920, Note_on_c, 14, 50, 76
12, 14144, Note_on_c, 14, 50, 0
12, 14160, Note_on_c, 14, 48, 76
12, 14384, Note_on_c, 14, 48, 0
12, 14400, Note_on_c, 14, 46, 76
12, 14624, Note_on_c, 14, 46, 0
12, 14640, Note_on_c, 14, 45, 76
12, 14864, Note_on_c, 14, 45, 0
12, 14880, Note_on_c, 14, 49, 76
12, 15104, Note_on_c, 14, 49, 0
12, 15120, Note_on_c, 14, 52, 76
12, 15344, Note_on_c, 14, 52, 0
12, 15360, Note_on_c, 14, 55, 76
12, 15839, Note_on_c, 14, 55, 0
12, 16080, Note_on_c, 14, 55, 76
12, 16304, Note_on_c, 14, 55, 0
12, 16320, Note_on_c, 14, 52, 76
12, 16544, Note_on_c, 14, 52, 0
12, 16560, Note_on_c, 14, 49, 76
12, 16784, Note_on_c, 14, 49, 0
12, 16800, Note_on_c, 14, 45, 76
12, 17279, Note_on_c, 14, 45, 0
12, 17520, Note_on_c, 14, 46, 76
12, 17744, Note_on_c, 14, 46, 0
12, 17760, Note_on_c, 14, 58, 76
12, 17984, Note_on_c, 14, 58, 0
12, 18000, Note_on_c, 14, 57, 76
12, 18224, Note_on_c, 14, 57, 0
12, 18240, Note_on_c, 14, 55, 76
12, 18464, Note_on_c, 14, 55, 0
12, 18480, Note_on_c, 14, 49, 76
12, 18704, Note_on_c, 14, 49, 0
12, 18720, Note_on_c, 14, 50, 76
12, 18944, Note_on_c, 14, 50, 0
12, 18960, Note_on_c, 14, 46, 76
12, 19184, Note_on_c, 14, 46, 0
12, 19200, Note_on_c, 14, 43, 76
12, 19424, Note_on_c, 14, 43, 0
12, 19440, Note_on_c, 14, 45, 76
12, 19664, Note_on_c, 14, 45, 0
12, 19680, Note_on_c, 14, 50, 76
12, 19904, Note_on_c, 14, 50, 0
12, 19920, Note_on_c, 14, 38, 76
12, 20144, Note_on_c, 14, 38, 0
12, 20160, Note_on_c, 14, 50, 76
12, 20384, Note_on_c, 14, 50, 0
12, 20400, Note_on_c, 14, 52, 76
12, 20624, Note_on_c, 14, 52, 0
12, 20640, Note_on_c, 14, 54, 76
12, 20864, Note_on_c, 14, 54, 0
12, 20880, Note_on_c, 14, 50, 76
12, 21104, Note_on_c, 14, 50, 0
12, 21120, Note_on_c, 14, 55, 76
12, 21344, Note_on_c, 14, 55, 0
12, 21360, Note_on_c, 14, 43, 76
12, 21584, Note_on_c, 14, 43, 0
12, 21600, Note_on_c, 14, 45, 76
12, 21824, Note_on_c, 14, 45, 0
12, 21840, Note_on_c, 14, 47, 76
12, 22064, Note_on_c, 14, 47, 0
12, 22080, Note_on_c, 14, 43, 76
12, 22304, Note_on_c, 14, 43, 0
12, 22320, Note_on_c, 14, 48, 76
12, 22544, Note_on_c, 14, 48, 0
12, 22560, Note_on_c, 14, 43, 76
12, 23024, Note_on_c, 14, 43, 0
12, 23040, Note_on_c, 14, 55, 76
12, 23264, Note_on_c, 14, 55, 0
12, 23280, Note_on_c, 14, 57, 76
12, 23384, Note_on_c, 14, 57, 0
12, 23400, Note_on_c, 14, 55, 76
12, 23504, Note_on_c, 14, 55, 0
12, 23520, Note_on_c, 14, 53, 76
12, 23624, Note_on_c, 14, 53, 0
12, 23640, Note_on_c, 14, 52, 76
12, 23744, Note_on_c, 14, 52, 0
12, 23760, Note_on_c, 14, 53, 76
12, 23864, Note_on_c, 14, 53, 0
12, 23880, Note_on_c, 14, 50, 76
12, 23984, Note_on_c, 14, 50, 0
12, 24000, Note_on_c, 14, 52, 76
12, 24224, Note_on_c, 14, 52, 0
12, 24240, Note_on_c, 14, 50, 76
12, 24464, Note_on_c, 14, 50, 0
12, 24480, Note_on_c, 14, 48, 76
12, 24704, Note_on_c, 14, 48, 0
12, 24720, Note_on_c, 14, 53, 76
12, 24944, Note_on_c, 14, 53, 0
12, 24960, Note_on_c, 14, 50, 76
12, 25184, Note_on_c, 14, 50, 0
12, 25200, Note_on_c, 14, 55, 76
12, 25424, Note_on_c, 14, 55, 0
12, 25440, Note_on_c, 14, 48, 76
12, 25904, Note_on_c, 14, 48, 0
12, 25920, Note_on_c, 14, 43, 76
12, 26144, Note_on_c, 14, 43, 0
12, 26160, Note_on_c, 14, 55, 76
12, 26384, Note_on_c, 14, 55, 0
12, 26400, Note_on_c, 14, 57, 76
12, 26624, Note_on_c, 14, 57, 0
12, 26640, Note_on_c, 14, 59, 76
12, 26864, Note_on_c, 14, 59, 0
12, 26880, Note_on_c, 14, 60, 76
12, 27104, Note_on_c, 14, 60, 0
12, 27120, Note_on_c, 14, 48, 76
12, 27344, Note_on_c, 14, 48, 0
12, 27360, Note_on_c, 14, 50, 76
12, 27584, Note_on_c, 14, 50, 0
12, 27600, Note_on_c, 14, 52, 76
12, 27824, Note_on_c, 14, 52, 0
12, 27840, Note_on_c, 14, 49, 76
12, 28064, Note_on_c, 14, 49, 0
12, 28080, Note_on_c, 14, 45, 76
12, 28304, Note_on_c, 14, 45, 0
12, 28320, Note_on_c, 14, 50, 76
12, 28544, Note_on_c, 14, 50, 0
12, 28560, Note_on_c, 14, 48, 76
12, 28784, Note_on_c, 14, 48, 0
12, 28800, Note_on_c, 14, 46, 76
12, 29024, Note_on_c, 14, 46, 0
12, 29040, Note_on_c, 14, 45, 76
12, 29264, Note_on_c, 14, 45, 0
12, 29280, Note_on_c, 14, 49, 76
12, 29504, Note_on_c, 14, 49, 0
12, 29520, Note_on_c, 14, 52, 76
12, 29744, Note_on_c, 14, 52, 0
12, 29760, Note_on_c, 14, 55, 76
12, 30239, Note_on_c, 14, 55, 0
12, 30480, Note_on_c, 14, 55, 76
12, 30704, Note_on_c, 14, 55, 0
12, 30720, Note_on_c, 14, 52, 76
12, 30944, Note_on_c, 14, 52, 0
12, 30960, Note_on_c, 14, 49, 76
12, 31184, Note_on_c, 14, 49, 0
12, 31200, Note_on_c, 14, 45, 76
12, 31679, Note_on_c, 14, 45, 0
12, 31920, Note_on_c, 14, 46, 76
12, 32144, Note_on_c, 14, 46, 0
12, 32160, Note_on_c, 14, 58, 76
12, 32384, Note_on_c, 14, 58, 0
12, 32400, Note_on_c, 14, 57, 76
12, 32624, Note_on_c, 14, 57, 0
12, 32640, Note_on_c, 14, 55, 76
12, 32864, Note_on_c, 14, 55, 0
12, 32880, Note_on_c, 14, 49, 76
12, 33104, Note_on_c, 14, 49, 0
12, 33120, Note_on_c, 14, 50, 76
12, 33344, Note_on_c, 14, 50, 0
12, 33360, Note_on_c, 14, 46, 76
12, 33584, Note_on_c, 14, 46, 0
12, 33600, Note_on_c, 14, 43, 76
12, 33824, Note_on_c, 14, 43, 0
12, 33840, Note_on_c, 14, 45, 76
12, 34064, Note_on_c, 14, 45, 0
12, 34080, Note_on_c, 14, 50, 76
12, 34304, Note_on_c, 14, 50, 0
12, 34320, Note_on_c, 14, 38, 76
12, 34544, Note_on_c, 14, 38, 0
12, 34560, Note_on_c, 14, 50, 76
12, 34784, Note_on_c, 14, 50, 0
12, 34800, Note_on_c, 14, 52, 76
12, 35024, Note_on_c, 14, 52, 0
12, 35040, Note_on_c, 14, 54, 76
12, 35264, Note_on_c, 14, 54, 0
12, 35280, Note_on_c, 14, 50, 76
12, 35504, Note_on_c, 14, 50, 0
12, 35520, Note_on_c, 14, 55, 76
12, 35744, Note_on_c, 14, 55, 0
12, 35760, Note_on_c, 14, 43, 76
12, 35984, Note_on_c, 14, 43, 0
12, 36000, Note_on_c, 14, 45, 76
12, 36224, Note_on_c, 14, 45, 0
12, 36240, Note_on_c, 14, 47, 76
12, 36464, Note_on_c, 14, 47, 0
12, 36480, Note_on_c, 14, 43, 76
12, 36704, Note_on_c, 14, 43, 0
12, 36720, Note_on_c, 14, 48, 76
12, 36944, Note_on_c, 14, 48, 0
12, 36960, Note_on_c, 14, 43, 76
12, 37424, Note_on_c, 14, 43, 0
12, 37440, Note_on_c, 14, 55, 76
12, 37664, Note_on_c, 14, 55, 0
12, 37680, Note_on_c, 14, 57, 76
12, 37784, Note_on_c, 14, 57, 0
12, 37800, Note_on_c, 14, 55, 76
12, 37904, Note_on_c, 14, 55, 0
12, 37920, Note_on_c, 14, 53, 76
12, 38024, Note_on_c, 14, 53, 0
12, 38040, Note_on_c, 14, 52, 76
12, 38144, Note_on_c, 14, 52, 0
12, 38160, Note_on_c, 14, 53, 76
12, 38264, Note_on_c, 14, 53, 0
12, 38280, Note_on_c, 14, 50, 76
12, 38384, Note_on_c, 14, 50, 0
12, 38400, Note_on_c, 14, 52, 76
12, 38624, Note_on_c, 14, 52, 0
12, 38640, Note_on_c, 14, 50, 76
12, 38864, Note_on_c, 14, 50, 0
12, 38880, Note_on_c, 14, 48, 76
12, 39104, Note_on_c, 14, 48, 0
12, 39120, Note_on_c, 14, 53, 76
12, 39344, Note_on_c, 14, 53, 0
12, 39360, Note_on_c, 14, 50, 76
12, 39584, Note_on_c, 14, 50, 0
12, 39600, Note_on_c, 14, 55, 76
12, 39824, Note_on_c, 14, 55, 0
12, 39840, Note_on_c, 14, 48, 76
12, 40319, Note_on_c, 14, 48, 0
12, 40800, Note_on_c, 14, 60, 68
12, 41039, Note_on_c, 14, 60, 0
12, 41040, Note_on_c, 14, 60, 68
12, 41279, Note_on_c, 14, 60, 0
12, 41280, Note_on_c, 14, 60, 68
12, 41504, Note_on_c, 14, 60, 0
12, 41520, Note_on_c, 14, 57, 68
12, 41759, Note_on_c, 14, 57, 0
12, 41760, Note_on_c, 14, 57, 68
12, 41999, Note_on_c, 14, 57, 0
12, 42000, Note_on_c, 14, 57, 68
12, 42224, Note_on_c, 14, 57, 0
12, 42240, Note_on_c, 14, 53, 68
12, 42479, Note_on_c, 14, 53, 0
12, 42480, Note_on_c, 14, 53, 68
12, 42719, Note_on_c, 14, 53, 0
12, 42720, Note_on_c, 14, 53, 68
12, 42944, Note_on_c, 14, 53, 0
12, 42960, Note_on_c, 14, 55, 68
12, 43199, Note_on_c, 14, 55, 0
12, 43200, Note_on_c, 14, 57, 68
12, 43439, Note_on_c, 14, 57, 0
12, 43440, Note_on_c, 14, 59, 68
12, 43664, Note_on_c, 14, 59, 0
12, 43680, Note_on_c, 14, 60, 68
12, 43919, Note_on_c, 14, 60, 0
12, 43920, Note_on_c, 14, 60, 68
12, 44159, Note_on_c, 14, 60, 0
12, 44160, Note_on_c, 14, 60, 68
12, 44384, Note_on_c, 14, 60, 0
12, 44400, Note_on_c, 14, 48, 68
12, 44639, Note_on_c, 14, 48, 0
12, 44640, Note_on_c, 14, 48, 68
12, 44879, Note_on_c, 14, 48, 0
12, 44880, Note_on_c, 14, 48, 68
12, 45104, Note_on_c, 14, 48, 0
12, 45120, Note_on_c, 14, 47, 68
12, 45359, Note_on_c, 14, 47, 0
12, 45360, Note_on_c, 14, 48, 68
12, 45599, Note_on_c, 14, 48, 0
12, 45600, Note_on_c, 14, 50, 68
12, 45824, Note_on_c, 14, 50, 0
12, 45840, Note_on_c, 14, 43, 68
12, 46319, Note_on_c, 14, 43, 0
12, 46560, Note_on_c, 14, 60, 68
12, 46799, Note_on_c, 14, 60, 0
12, 46800, Note_on_c, 14, 60, 68
12, 47039, Note_on_c, 14, 60, 0
12, 47040, Note_on_c, 14, 60, 68
12, 47264, Note_on_c, 14, 60, 0
12, 47280, Note_on_c, 14, 57, 68
12, 47519, Note_on_c, 14, 57, 0
12, 47520, Note_on_c, 14, 57, 68
12, 47759, Note_on_c, 14, 57, 0
12, 47760, Note_on_c, 14, 57, 68
12, 47984, Note_on_c, 14, 57, 0
12, 48000, Note_on_c, 14, 53, 68
12, 48239, Note_on_c, 14, 53, 0
12, 48240, Note_on_c, 14, 53, 68
12, 48479, Note_on_c, 14, 53, 0
12, 48480, Note_on_c, 14, 53, 68
12, 48704, Note_on_c, 14, 53, 0
12, 48720, Note_on_c, 14, 55, 68
12, 48959, Note_on_c, 14, 55, 0
12, 48960, Note_on_c, 14, 57, 68
12, 49199, Note_on_c, 14, 57, 0
12, 49200, Note_on_c, 14, 59, 68
12, 49424, Note_on_c, 14, 59, 0
12, 49440, Note_on_c, 14, 60, 68
12, 49679, Note_on_c, 14, 60, 0
12, 49680, Note_on_c, 14, 60, 68
12, 49919, Note_on_c, 14, 60, 0
12, 49920, Note_on_c, 14, 60, 68
12, 50144, Note_on_c, 14, 60, 0
12, 50160, Note_on_c, 14, 48, 68
12, 50399, Note_on_c, 14, 48, 0
12, 50400, Note_on_c, 14, 48, 68
12, 50639, Note_on_c, 14, 48, 0
12, 50640, Note_on_c, 14, 48, 68
12, 50864, Note_on_c, 14, 48, 0
12, 50880, Note_on_c, 14, 47, 68
12, 51119, Note_on_c, 14, 47, 0
12, 51120, Note_on_c, 14, 48, 68
12, 51359, Note_on_c, 14, 48, 0
12, 51360, Note_on_c, 14, 50, 68
12, 51584, Note_on_c, 14, 50, 0
12, 51600, Note_on_c, 14, 43, 68
12, 52079, Note_on_c, 14, 43, 0
12, 52320, Note_on_c, 14, 43, 68
12, 52559, Note_on_c, 14, 43, 0
12, 52560, Note_on_c, 14, 43, 68
12, 52799, Note_on_c, 14, 43, 0
12, 52800, Note_on_c, 14, 43, 68
12, 53024, Note_on_c, 14, 43, 0
12, 53040, Note_on_c, 14, 55, 68
12, 53279, Note_on_c, 14, 55, 0
12, 53280, Note_on_c, 14, 55, 68
12, 53519, Note_on_c, 14, 55, 0
12, 53520, Note_on_c, 14, 55, 68
12, 53744, Note_on_c, 14, 55, 0
12, 53760, Note_on_c, 14, 49, 68
12, 53999, Note_on_c, 14, 49, 0
12, 54000, Note_on_c, 14, 49, 68
12, 54239, Note_on_c, 14, 49, 0
12, 54240, Note_on_c, 14, 49, 68
12, 54464, Note_on_c, 14, 49, 0
12, 54480, Note_on_c, 14, 50, 68
12, 54719, Note_on_c, 14, 50, 0
12, 54720, Note_on_c, 14, 48, 68
12, 54959, Note_on_c, 14, 48, 0
12, 54960, Note_on_c, 14, 46, 68
12, 55184, Note_on_c, 14, 46, 0
12, 55200, Note_on_c, 14, 45, 68
12, 55439, Note_on_c, 14, 45, 0
12, 55440, Note_on_c, 14, 45, 68
12, 55679, Note_on_c, 14, 45, 0
12, 55680, Note_on_c, 14, 45, 68
12, 55904, Note_on_c, 14, 45, 0
12, 55920, Note_on_c, 14, 55, 68
12, 56159, Note_on_c, 14, 55, 0
12, 56160, Note_on_c, 14, 55, 68
12, 56399, Note_on_c, 14, 55, 0
12, 56400, Note_on_c, 14, 55, 68
12, 56624, Note_on_c, 14, 55, 0
12, 56640, Note_on_c, 14, 52, 68
12, 56879, Note_on_c, 14, 52, 0
12, 56880, Note_on_c, 14, 52, 68
12, 57119, Note_on_c, 14, 52, 0
12, 57120, Note_on_c, 14, 52, 68
12, 57344, Note_on_c, 14, 52, 0
12, 57360, Note_on_c, 14, 49, 68
12, 57599, Note_on_c, 14, 49, 0
12, 57600, Note_on_c, 14, 47, 68
12, 57839, Note_on_c, 14, 47, 0
12, 57840, Note_on_c, 14, 45, 68
12, 58064, Note_on_c, 14, 45, 0
12, 58080, Note_on_c, 14, 50, 68
12, 58319, Note_on_c, 14, 50, 0
12, 58320, Note_on_c, 14, 52, 68
12, 58559, Note_on_c, 14, 52, 0
12, 58560, Note_on_c, 14, 53, 68
12, 58784, Note_on_c, 14, 53, 0
12, 58800, Note_on_c, 14, 55, 68
12, 59039, Note_on_c, 14, 55, 0
12, 59040, Note_on_c, 14, 55, 68
12, 59279, Note_on_c, 14, 55, 0
12, 59280, Note_on_c, 14, 55, 68
12, 59504, Note_on_c, 14, 55, 0
12, 59520, Note_on_c, 14, 57, 68
12, 59759, Note_on_c, 14, 57, 0
12, 59760, Note_on_c, 14, 57, 68
12, 59999, Note_on_c, 14, 57, 0
12, 60000, Note_on_c, 14, 57, 68
12, 60224, Note_on_c, 14, 57, 0
12, 60240, Note_on_c, 14, 50, 68
12, 60464, Note_on_c, 14, 50, 0
12, 60480, Note_on_c, 14, 53, 68
12, 60704, Note_on_c, 14, 53, 0
12, 60720, Note_on_c, 14, 57, 68
12, 60944, Note_on_c, 14, 57, 0
12, 60960, Note_on_c, 14, 54, 68
12, 61199, Note_on_c, 14, 54, 0
12, 61200, Note_on_c, 14, 54, 68
12, 61439, Note_on_c, 14, 54, 0
12, 61440, Note_on_c, 14, 54, 68
12, 61664, Note_on_c, 14, 54, 0
12, 61680, Note_on_c, 14, 53, 68
12, 61919, Note_on_c, 14, 53, 0
12, 61920, Note_on_c, 14, 53, 68
12, 62159, Note_on_c, 14, 53, 0
12, 62160, Note_on_c, 14, 53, 68
12, 62384, Note_on_c, 14, 53, 0
12, 62400, Note_on_c, 14, 47, 68
12, 62639, Note_on_c, 14, 47, 0
12, 62640, Note_on_c, 14, 47, 68
12, 62879, Note_on_c, 14, 47, 0
12, 62880, Note_on_c, 14, 48, 68
12, 63104, Note_on_c, 14, 48, 0
12, 63120, Note_on_c, 14, 55, 68
12, 63359, Note_on_c, 14, 55, 0
12, 63360, Note_on_c, 14, 53, 68
12, 63599, Note_on_c, 14, 53, 0
12, 63600, Note_on_c, 14, 52, 68
12, 63824, Note_on_c, 14, 52, 0
12, 63840, Note_on_c, 14, 50, 68
12, 64079, Note_on_c, 14, 50, 0
12, 64080, Note_on_c, 14, 48, 68
12, 64319, Note_on_c, 14, 48, 0
12, 64320, Note_on_c, 14, 46, 68
12, 64544, Note_on_c, 14, 46, 0
12, 64560, Note_on_c, 14, 40, 68
12, 64799, Note_on_c, 14, 40, 0
12, 64800, Note_on_c, 14, 40, 68
12, 65039, Note_on_c, 14, 40, 0
12, 65040, Note_on_c, 14, 40, 68
12, 65264, Note_on_c, 14, 40, 0
12, 65280, Note_on_c, 14, 41, 68
12, 65504, Note_on_c, 14, 41, 0
12, 65520, Note_on_c, 14, 38, 68
12, 65744, Note_on_c, 14, 38, 0
12, 65760, Note_on_c, 14, 43, 68
12, 65984, Note_on_c, 14, 43, 0
12, 66000, Note_on_c, 14, 36, 68
12, 66479, Note_on_c, 14, 36, 0
12, 66720, Note_on_c, 14, 43, 68
12, 66959, Note_on_c, 14, 43, 0
12, 66960, Note_on_c, 14, 43, 68
12, 67199, Note_on_c, 14, 43, 0
12, 67200, Note_on_c, 14, 43, 68
12, 67424, Note_on_c, 14, 43, 0
12, 67440, Note_on_c, 14, 55, 68
12, 67679, Note_on_c, 14, 55, 0
12, 67680, Note_on_c, 14, 55, 68
12, 67919, Note_on_c, 14, 55, 0
12, 67920, Note_on_c, 14, 55, 68
12, 68144, Note_on_c, 14, 55, 0
12, 68160, Note_on_c, 14, 49, 68
12, 68399, Note_on_c, 14, 49, 0
12, 68400, Note_on_c, 14, 49, 68
12, 68639, Note_on_c, 14, 49, 0
12, 68640, Note_on_c, 14, 49, 68
12, 68864, Note_on_c, 14, 49, 0
12, 68880, Note_on_c, 14, 50, 68
12, 69119, Note_on_c, 14, 50, 0
12, 69120, Note_on_c, 14, 48, 68
12, 69359, Note_on_c, 14, 48, 0
12, 69360, Note_on_c, 14, 46, 68
12, 69584, Note_on_c, 14, 46, 0
12, 69600, Note_on_c, 14, 45, 68
12, 69839, Note_on_c, 14, 45, 0
12, 69840, Note_on_c, 14, 45, 68
12, 70079, Note_on_c, 14, 45, 0
12, 70080, Note_on_c, 14, 45, 68
12, 70304, Note_on_c, 14, 45, 0
12, 70320, Note_on_c, 14, 55, 68
12, 70559, Note_on_c, 14, 55, 0
12, 70560, Note_on_c, 14, 55, 68
12, 70799, Note_on_c, 14, 55, 0
12, 70800, Note_on_c, 14, 55, 68
12, 71024, Note_on_c, 14, 55, 0
12, 71040, Note_on_c, 14, 52, 68
12, 71279, Note_on_c, 14, 52, 0
12, 71280, Note_on_c, 14, 52, 68
12, 71519, Note_on_c, 14, 52, 0
12, 71520, Note_on_c, 14, 52, 68
12, 71744, Note_on_c, 14, 52, 0
12, 71760, Note_on_c, 14, 49, 68
12, 71999, Note_on_c, 14, 49, 0
12, 72000, Note_on_c, 14, 47, 68
12, 72239, Note_on_c, 14, 47, 0
12, 72240, Note_on_c, 14, 45, 68
12, 72464, Note_on_c, 14, 45, 0
12, 72480, Note_on_c, 14, 50, 68
12, 72719, Note_on_c, 14, 50, 0
12, 72720, Note_on_c, 14, 52, 68
12, 72959, Note_on_c, 14, 52, 0
12, 72960, Note_on_c, 14, 53, 68
12, 73184, Note_on_c, 14, 53, 0
12, 73200, Note_on_c, 14, 55, 68
12, 73439, Note_on_c, 14, 55, 0
12, 73440, Note_on_c, 14, 55, 68
12, 73679, Note_on_c, 14, 55, 0
12, 73680, Note_on_c, 14, 55, 68
12, 73904, Note_on_c, 14, 55, 0
12, 73920, Note_on_c, 14, 57, 68
12, 74159, Note_on_c, 14, 57, 0
12, 74160, Note_on_c, 14, 57, 68
12, 74399, Note_on_c, 14, 57, 0
12, 74400, Note_on_c, 14, 57, 68
12, 74624, Note_on_c, 14, 57, 0
12, 74640, Note_on_c, 14, 50, 68
12, 74864, Note_on_c, 14, 50, 0
12, 74880, Note_on_c, 14, 53, 68
12, 75104, Note_on_c, 14, 53, 0
12, 75120, Note_on_c, 14, 57, 68
12, 75344, Note_on_c, 14, 57, 0
12, 75360, Note_on_c, 14, 54, 68
12, 75599, Note_on_c, 14, 54, 0
12, 75600, Note_on_c, 14, 54, 68
12, 75839, Note_on_c, 14, 54, 0
12, 75840, Note_on_c, 14, 54, 68
12, 76064, Note_on_c, 14, 54, 0
12, 76080, Note_on_c, 14, 53, 68
12, 76319, Note_on_c, 14, 53, 0
12, 76320, Note_on_c, 14, 53, 68
12, 76559, Note_on_c, 14, 53, 0
12, 76560, Note_on_c, 14, 53, 68
12, 76784, Note_on_c, 14, 53, 0
12, 76800, Note_on_c, 14, 47, 68
12, 77039, Note_on_c, 14, 47, 0
12, 77040, Note_on_c, 14, 47, 68
12, 77279, Note_on_c, 14, 47, 0
12, 77280, Note_on_c, 14, 48, 68
12, 77504, Note_on_c, 14, 48, 0
12, 77520, Note_on_c, 14, 55, 68
12, 77759, Note_on_c, 14, 55, 0
12, 77760, Note_on_c, 14, 53, 68
12, 77999, Note_on_c, 14, 53, 0
12, 78000, Note_on_c, 14, 52, 68
12, 78224, Note_on_c, 14, 52, 0
12, 78240, Note_on_c, 14, 50, 68
12, 78479, Note_on_c, 14, 50, 0
12, 78480, Note_on_c, 14, 48, 68
12, 78719, Note_on_c, 14, 48, 0
12, 78720, Note_on_c, 14, 46, 68
12, 78944, Note_on_c, 14, 46, 0
12, 78960, Note_on_c, 14, 40, 68
12, 79199, Note_on_c, 14, 40, 0
12, 79200, Note_on_c, 14, 40, 68
12, 79439, Note_on_c, 14, 40, 0
12, 79440, Note_on_c, 14, 40, 68
12, 79664, Note_on_c, 14, 40, 0
12, 79680, Note_on_c, 14, 41, 68
12, 79904, Note_on_c, 14, 41, 0
12, 79920, Note_on_c, 14, 38, 68
12, 80144, Note_on_c, 14, 38, 0
12, 80160, Note_on_c, 14, 43, 68
12, 80384, Note_on_c, 14, 43, 0
12, 80400, Note_on_c, 14, 36, 68
12, 80879, Note_on_c, 14, 36, 0
12, 81120, Note_on_c, 14, 48, 76
12, 81344, Note_on_c, 14, 48, 0
12, 81360, Note_on_c, 14, 60, 76
12, 81584, Note_on_c, 14, 60, 0
12, 81600, Note_on_c, 14, 48, 76
12, 81824, Note_on_c, 14, 48, 0
12, 81840, Note_on_c, 14, 59, 76
12, 82064, Note_on_c, 14, 59, 0
12, 82080, Note_on_c, 14, 57, 76
12, 82304, Note_on_c, 14, 57, 0
12, 82320, Note_on_c, 14, 55, 76
12, 82544, Note_on_c, 14, 55, 0
12, 82560, Note_on_c, 14, 53, 76
12, 82784, Note_on_c, 14, 53, 0
12, 82800, Note_on_c, 14, 52, 76
12, 83024, Note_on_c, 14, 52, 0
12, 83040, Note_on_c, 14, 53, 76
12, 83264, Note_on_c, 14, 53, 0
12, 83280, Note_on_c, 14, 50, 76
12, 83504, Note_on_c, 14, 50, 0
12, 83520, Note_on_c, 14, 55, 76
12, 83744, Note_on_c, 14, 55, 0
12, 83760, Note_on_c, 14, 43, 76
12, 83984, Note_on_c, 14, 43, 0
12, 84000, Note_on_c, 14, 53, 76
12, 84224, Note_on_c, 14, 53, 0
12, 84240, Note_on_c, 14, 52, 76
12, 84464, Note_on_c, 14, 52, 0
12, 84480, Note_on_c, 14, 60, 76
12, 84704, Note_on_c, 14, 60, 0
12, 84720, Note_on_c, 14, 59, 76
12, 84944, Note_on_c, 14, 59, 0
12, 84960, Note_on_c, 14, 57, 76
12, 85184, Note_on_c, 14, 57, 0
12, 85200, Note_on_c, 14, 55, 76
12, 85424, Note_on_c, 14, 55, 0
12, 85440, Note_on_c, 14, 54, 76
12, 85664, Note_on_c, 14, 54, 0
12, 85680, Note_on_c, 14, 55, 76
12, 85904, Note_on_c, 14, 55, 0
12, 85920, Note_on_c, 14, 47, 76
12, 86144, Note_on_c, 14, 47, 0
12, 86160, Note_on_c, 14, 50, 76
12, 86384, Note_on_c, 14, 50, 0
12, 86400, Note_on_c, 14, 43, 76
12, 86624, Note_on_c, 14, 43, 0
12, 86640, Note_on_c, 14, 55, 76
12, 86744, Note_on_c, 14, 55, 0
12, 86760, Note_on_c, 14, 53, 76
12, 86864, Note_on_c, 14, 53, 0
12, 86880, Note_on_c, 14, 52, 76
12, 86984, Note_on_c, 14, 52, 0
12, 87000, Note_on_c, 14, 50, 76
12, 87104, Note_on_c, 14, 50, 0
12, 87120, Note_on_c, 14, 48, 76
12, 87344, Note_on_c, 14, 48, 0
12, 87360, Note_on_c, 14, 60, 76
12, 87584, Note_on_c, 14, 60, 0
12, 87600, Note_on_c, 14, 59, 76
12, 87824, Note_on_c, 14, 59, 0
12, 87840, Note_on_c, 14, 57, 76
12, 88064, Note_on_c, 14, 57, 0
12, 88080, Note_on_c, 14, 55, 76
12, 88304, Note_on_c, 14, 55, 0
12, 88320, Note_on_c, 14, 53, 76
12, 88544, Note_on_c, 14, 53, 0
12, 88560, Note_on_c, 14, 52, 76
12, 88784, Note_on_c, 14, 52, 0
12, 88800, Note_on_c, 14, 53, 76
12, 89024, Note_on_c, 14, 53, 0
12, 89040, Note_on_c, 14, 50, 76
12, 89264, Note_on_c, 14, 50, 0
12, 89280, Note_on_c, 14, 55, 76
12, 89504, Note_on_c, 14, 55, 0
12, 89520, Note_on_c, 14, 43, 76
12, 89744, Note_on_c, 14, 43, 0
12, 89760, Note_on_c, 14, 53, 76
12, 89984, Note_on_c, 14, 53, 0
12, 90000, Note_on_c, 14, 52, 76
12, 90224, Note_on_c, 14, 52, 0
12, 90240, Note_on_c, 14, 60, 76
12, 90464, Note_on_c, 14, 60, 0
12, 90480, Note_on_c, 14, 59, 76
12, 90704, Note_on_c, 14, 59, 0
12, 90720, Note_on_c, 14, 57, 76
12, 90944, Note_on_c, 14, 57, 0
12, 90960, Note_on_c, 14, 55, 76
12, 91184, Note_on_c, 14, 55, 0
12, 91200, Note_on_c, 14, 54, 76
12, 91424, Note_on_c, 14, 54, 0
12, 91440, Note_on_c, 14, 55, 76
12, 91664, Note_on_c, 14, 55, 0
12, 91680, Note_on_c, 14, 47, 76
12, 91904, Note_on_c, 14, 47, 0
12, 91920, Note_on_c, 14, 50, 76
12, 92144, Note_on_c, 14, 50, 0
12, 92160, Note_on_c, 14, 43, 76
12, 92624, Note_on_c, 14, 43, 0
12, 92640, Note_on_c, 14, 43, 76
12, 92864, Note_on_c, 14, 43, 0
12, 92880, Note_on_c, 14, 55, 76
12, 93104, Note_on_c, 14, 55, 0
12, 93120, Note_on_c, 14, 57, 76
12, 93344, Note_on_c, 14, 57, 0
12, 93360, Note_on_c, 14, 59, 76
12, 93584, Note_on_c, 14, 59, 0
12, 93600, Note_on_c, 14, 60, 76
12, 93824, Note_on_c, 14, 60, 0
12, 93840, Note_on_c, 14, 48, 76
12, 94064, Note_on_c, 14, 48, 0
12, 94080, Note_on_c, 14, 50, 76
12, 94304, Note_on_c, 14, 50, 0
12, 94320, Note_on_c, 14, 52, 76
12, 94544, Note_on_c, 14, 52, 0
12, 94560, Note_on_c, 14, 49, 76
12, 94784, Note_on_c, 14, 49, 0
12, 94800, Note_on_c, 14, 45, 76
12, 95024, Note_on_c, 14, 45, 0
12, 95040, Note_on_c, 14, 50, 76
12, 95264, Note_on_c, 14, 50, 0
12, 95280, Note_on_c, 14, 48, 76
12, 95504, Note_on_c, 14, 48, 0
12, 95520, Note_on_c, 14, 46, 76
12, 95744, Note_on_c, 14, 46, 0
12, 95760, Note_on_c, 14, 45, 76
12, 95984, Note_on_c, 14, 45, 0
12, 96000, Note_on_c, 14, 49, 76
12, 96224, Note_on_c, 14, 49, 0
12, 96240, Note_on_c, 14, 52, 76
12, 96464, Note_on_c, 14, 52, 0
12, 96480, Note_on_c, 14, 55, 76
12, 96959, Note_on_c, 14, 55, 0
12, 97200, Note_on_c, 14, 55, 76
12, 97424, Note_on_c, 14, 55, 0
12, 97440, Note_on_c, 14, 52, 76
12, 97664, Note_on_c, 14, 52, 0
12, 97680, Note_on_c, 14, 49, 76
12, 97904, Note_on_c, 14, 49, 0
12, 97920, Note_on_c, 14, 45, 76
12, 98399, Note_on_c, 14, 45, 0
12, 98640, Note_on_c, 14, 46, 76
12, 98864, Note_on_c, 14, 46, 0
12, 98880, Note_on_c, 14, 58, 76
12, 99104, Note_on_c, 14, 58, 0
12, 99120, Note_on_c, 14, 57, 76
12, 99344, Note_on_c, 14, 57, 0
12, 99360, Note_on_c, 14, 55, 76
12, 99584, Note_on_c, 14, 55, 0
12, 99600, Note_on_c, 14, 49, 76
12, 99824, Note_on_c, 14, 49, 0
12, 99840, Note_on_c, 14, 50, 76
12, 100064, Note_on_c, 14, 50, 0
12, 100080, Note_on_c, 14, 46, 76
12, 100304, Note_on_c, 14, 46, 0
12, 100320, Note_on_c, 14, 43, 76
12, 100544, Note_on_c, 14, 43, 0
12, 100560, Note_on_c, 14, 45, 76
12, 100784, Note_on_c, 14, 45, 0
12, 100800, Note_on_c, 14, 50, 76
12, 101024, Note_on_c, 14, 50, 0
12, 101040, Note_on_c, 14, 38, 76
12, 101264, Note_on_c, 14, 38, 0
12, 101280, Note_on_c, 14, 50, 76
12, 101504, Note_on_c, 14, 50, 0
12, 101520, Note_on_c, 14, 52, 76
12, 101744, Note_on_c, 14, 52, 0
12, 101760, Note_on_c, 14, 54, 76
12, 101984, Note_on_c, 14, 54, 0
12, 102000, Note_on_c, 14, 50, 76
12, 102224, Note_on_c, 14, 50, 0
12, 102240, Note_on_c, 14, 55, 76
12, 102464, Note_on_c, 14, 55, 0
12, 102480, Note_on_c, 14, 43, 76
12, 102704, Note_on_c, 14, 43, 0
12, 102720, Note_on_c, 14, 45, 76
12, 102944, Note_on_c, 14, 45, 0
12, 102960, Note_on_c, 14, 47, 76
12, 103184, Note_on_c, 14, 47, 0
12, 103200, Note_on_c, 14, 43, 76
12, 103424, Note_on_c, 14, 43, 0
12, 103440, Note_on_c, 14, 48, 76
12, 103664, Note_on_c, 14, 48, 0
12, 103680, Note_on_c, 14, 43, 76
12, 104144, Note_on_c, 14, 43, 0
12, 104160, Note_on_c, 14, 55, 76
12, 104384, Note_on_c, 14, 55, 0
12, 104400, Note_on_c, 14, 57, 76
12, 104504, Note_on_c, 14, 57, 0
12, 104520, Note_on_c, 14, 55, 76
12, 104624, Note_on_c, 14, 55, 0
12, 104640, Note_on_c, 14, 53, 76
12, 104744, Note_on_c, 14, 53, 0
12, 104760, Note_on_c, 14, 52, 76
12, 104864, Note_on_c, 14, 52, 0
12, 104880, Note_on_c, 14, 53, 76
12, 104984, Note_on_c, 14, 53, 0
12, 105000, Note_on_c, 14, 50, 76
12, 105104, Note_on_c, 14, 50, 0
12, 105120, Note_on_c, 14, 52, 76
12, 105344, Note_on_c, 14, 52, 0
12, 105360, Note_on_c, 14, 50, 76
12, 105584, Note_on_c, 14, 50, 0
12, 105600, Note_on_c, 14, 48, 76
12, 105824, Note_on_c, 14, 48, 0
12, 105840, Note_on_c, 14, 53, 76
12, 106064, Note_on_c, 14, 53, 0
12, 106080, Note_on_c, 14, 50, 76
12, 106304, Note_on_c, 14, 50, 0
12, 106320, Note_on_c, 14, 55, 76
12, 106544, Note_on_c, 14, 55, 0
12, 106560, Note_on_c, 14, 48, 76
12, 107024, Note_on_c, 14, 48, 0
12, 107040, Note_on_c, 14, 43, 76
12, 107264, Note_on_c, 14, 43, 0
12, 107280, Note_on_c, 14, 55, 76
12, 107504, Note_on_c, 14, 55, 0
12, 107520, Note_on_c, 14, 57, 76
12, 107744, Note_on_c, 14, 57, 0
12, 107760, Note_on_c, 14, 59, 76
12, 107984, Note_on_c, 14, 59, 0
12, 108000, Note_on_c, 14, 60, 76
12, 108224, Note_on_c, 14, 60, 0
12, 108240, Note_on_c, 14, 48, 76
12, 108464, Note_on_c, 14, 48, 0
12, 108480, Note_on_c, 14, 50, 76
12, 108704, Note_on_c, 14, 50, 0
12, 108720, Note_on_c, 14, 52, 76
12, 108944, Note_on_c, 14, 52, 0
12, 108960, Note_on_c, 14, 49, 76
12, 109184, Note_on_c, 14, 49, 0
12, 109200, Note_on_c, 14, 45, 76
12, 109424, Note_on_c, 14, 45, 0
12, 109440, Note_on_c, 14, 50, 76
12, 109664, Note_on_c, 14, 50, 0
12, 109680, Note_on_c, 14, 48, 76
12, 109904, Note_on_c, 14, 48, 0
12, 109920, Note_on_c, 14, 46, 76
12, 110144, Note_on_c, 14, 46, 0
12, 110160, Note_on_c, 14, 45, 76
12, 110384, Note_on_c, 14, 45, 0
12, 110400, Note_on_c, 14, 49, 76
12, 110624, Note_on_c, 14, 49, 0
12, 110640, Note_on_c, 14, 52, 76
12, 110864, Note_on_c, 14, 52, 0
12, 110880, Note_on_c, 14, 55, 76
12, 111359, Note_on_c, 14, 55, 0
12, 111600, Note_on_c, 14, 55, 76
12, 111824, Note_on_c, 14, 55, 0
12, 111840, Note_on_c, 14, 52, 76
12, 112064, Note_on_c, 14, 52, 0
12, 112080, Note_on_c, 14, 49, 76
12, 112304, Note_on_c, 14, 49, 0
12, 112320, Note_on_c, 14, 45, 76
12, 112799, Note_on_c, 14, 45, 0
12, 113040, Note_on_c, 14, 46, 76
12, 113264, Note_on_c, 14, 46, 0
12, 113280, Note_on_c, 14, 58, 76
12, 113504, Note_on_c, 14, 58, 0
12, 113520, Note_on_c, 14, 57, 76
12, 113744, Note_on_c, 14, 57, 0
12, 113760, Note_on_c, 14, 55, 76
12, 113984, Note_on_c, 14, 55, 0
12, 114000, Note_on_c, 14, 49, 76
12, 114224, Note_on_c, 14, 49, 0
12, 114240, Note_on_c, 14, 50, 76
12, 114464, Note_on_c, 14, 50, 0
12, 114480, Note_on_c, 14, 46, 76
12, 114704, Note_on_c, 14, 46, 0
12, 114720, Note_on_c, 14, 43, 76
12, 114944, Note_on_c, 14, 43, 0
12, 114960, Note_on_c, 14, 45, 76
12, 115184, Note_on_c, 14, 45, 0
12, 115200, Note_on_c, 14, 50, 76
12, 115424, Note_on_c, 14, 50, 0
12, 115440, Note_on_c, 14, 38, 76
12, 115664, Note_on_c, 14, 38, 0
12, 115680, Note_on_c, 14, 50, 76
12, 115904, Note_on_c, 14, 50, 0
12, 115920, Note_on_c, 14, 52, 76
12, 116144, Note_on_c, 14, 52, 0
12, 116160, Note_on_c, 14, 54, 76
12, 116384, Note_on_c, 14, 54, 0
12, 116400, Note_on_c, 14, 50, 76
12, 116624, Note_on_c, 14, 50, 0
12, 116640, Note_on_c, 14, 55, 76
12, 116864, Note_on_c, 14, 55, 0
12, 116880, Note_on_c, 14, 43, 76
12, 117104, Note_on_c, 14, 43, 0
12, 117120, Note_on_c, 14, 45, 76
12, 117344, Note_on_c, 14, 45, 0
12, 117360, Note_on_c, 14, 47, 76
12, 117584, Note_on_c, 14, 47, 0
12, 117600, Note_on_c, 14, 43, 76
12, 117824, Note_on_c, 14, 43, 0
12, 117840, Note_on_c, 14, 48, 76
12, 118064, Note_on_c, 14, 48, 0
12, 118080, Note_on_c, 14, 43, 76
12, 118544, Note_on_c, 14, 43, 0
12, 118560, Note_on_c, 14, 55, 76
12, 118784, Note_on_c, 14, 55, 0
12, 118800, Note_on_c, 14, 57, 76
12, 118904, Note_on_c, 14, 57, 0
12, 118920, Note_on_c, 14, 55, 76
12, 119024, Note_on_c, 14, 55, 0
12, 119040, Note_on_c, 14, 53, 76
12, 119144, Note_on_c, 14, 53, 0
12, 119160, Note_on_c, 14, 52, 76
12, 119264, Note_on_c, 14, 52, 0
12, 119280, Note_on_c, 14, 53, 76
12, 119384, Note_on_c, 14, 53, 0
12, 119400, Note_on_c, 14, 50, 76
12, 119504, Note_on_c, 14, 50, 0
12, 119520, Note_on_c, 14, 52, 76
12, 119744, Note_on_c, 14, 52, 0
12, 119760, Note_on_c, 14, 50, 76
12, 119984, Note_on_c, 14, 50, 0
12, 120000, Note_on_c, 14, 48, 76
12, 120224, Note_on_c, 14, 48, 0
12, 120240, Note_on_c, 14, 53, 76
12, 120464, Note_on_c, 14, 53, 0
12, 120480, Note_on_c, 14, 50, 76
12, 120704, Note_on_c, 14, 50, 0
12, 120720, Note_on_c, 14, 55, 76
12, 120944, Note_on_c, 14, 55, 0
12, 120960, Note_on_c, 14, 48, 76
12, 121439, Note_on_c, 14, 48, 0
12, 121439, End_track
13, 0, Start_track
13, 0, Title_t, "Harpsichord "
13, 0, MIDI_port, 0
13, 0, Control_c, 15, 10, 64
13, 0, Control_c, 15, 11, 127
13, 0, Control_c, 15, 7, 72
13, 0, Program_c, 15, 6
13, 0, Note_on_c, 15, 48, 76
13, 0, Note_on_c, 15, 60, 76
13, 0, Note_on_c, 15, 64, 76
13, 0, Note_on_c, 15, 67, 76
13, 239, Note_on_c, 15, 48, 0
13, 239, Note_on_c, 15, 60, 0
13, 239, Note_on_c, 15, 64, 0
13, 239, Note_on_c, 15, 67, 0
13, 240, Note_on_c, 15, 76, 76
13, 240, Note_on_c, 15, 72, 76
13, 240, Note_on_c, 15, 79, 76
13, 240, Note_on_c, 15, 60, 76
13, 479, Note_on_c, 15, 76, 0
13, 479, Note_on_c, 15, 72, 0
13, 479, Note_on_c, 15, 79, 0
13, 479, Note_on_c, 15, 60, 0
13, 480, Note_on_c, 15, 60, 76
13, 480, Note_on_c, 15, 48, 76
13, 480, Note_on_c, 15, 64, 76
13, 480, Note_on_c, 15, 67, 76
13, 719, Note_on_c, 15, 60, 0
13, 719, Note_on_c, 15, 48, 0
13, 719, Note_on_c, 15, 64, 0
13, 719, Note_on_c, 15, 67, 0
13, 720, Note_on_c, 15, 71, 76
13, 720, Note_on_c, 15, 59, 76
13, 720, Note_on_c, 15, 79, 76
13, 720, Note_on_c, 15, 74, 76
13, 959, Note_on_c, 15, 71, 0
13, 959, Note_on_c, 15, 59, 0
13, 959, Note_on_c, 15, 79, 0
13, 959, Note_on_c, 15, 74, 0
13, 960, Note_on_c, 15, 69, 76
13, 960, Note_on_c, 15, 57, 76
13, 960, Note_on_c, 15, 72, 76
13, 960, Note_on_c, 15, 76, 76
13, 1199, Note_on_c, 15, 69, 0
13, 1199, Note_on_c, 15, 57, 0
13, 1199, Note_on_c, 15, 72, 0
13, 1199, Note_on_c, 15, 76, 0
13, 1200, Note_on_c, 15, 67, 76
13, 1200, Note_on_c, 15, 71, 76
13, 1200, Note_on_c, 15, 74, 76
13, 1200, Note_on_c, 15, 55, 76
13, 1439, Note_on_c, 15, 67, 0
13, 1439, Note_on_c, 15, 71, 0
13, 1439, Note_on_c, 15, 74, 0
13, 1439, Note_on_c, 15, 55, 0
13, 1440, Note_on_c, 15, 53, 76
13, 1440, Note_on_c, 15, 65, 76
13, 1440, Note_on_c, 15, 71, 76
13, 1440, Note_on_c, 15, 74, 76
13, 1440, Note_on_c, 15, 67, 76
13, 1679, Note_on_c, 15, 53, 0
13, 1679, Note_on_c, 15, 65, 0
13, 1679, Note_on_c, 15, 71, 0
13, 1679, Note_on_c, 15, 74, 0
13, 1679, Note_on_c, 15, 67, 0
13, 1680, Note_on_c, 15, 72, 76
13, 1680, Note_on_c, 15, 67, 76
13, 1680, Note_on_c, 15, 64, 76
13, 1680, Note_on_c, 15, 52, 76
13, 1919, Note_on_c, 15, 72, 0
13, 1919, Note_on_c, 15, 67, 0
13, 1919, Note_on_c, 15, 64, 0
13, 1919, Note_on_c, 15, 52, 0
13, 1920, Note_on_c, 15, 69, 76
13, 1920, Note_on_c, 15, 72, 76
13, 1920, Note_on_c, 15, 53, 76
13, 1920, Note_on_c, 15, 65, 76
13, 2159, Note_on_c, 15, 69, 0
13, 2159, Note_on_c, 15, 72, 0
13, 2159, Note_on_c, 15, 53, 0
13, 2159, Note_on_c, 15, 65, 0
13, 2160, Note_on_c, 15, 62, 76
13, 2160, Note_on_c, 15, 69, 76
13, 2160, Note_on_c, 15, 50, 76
13, 2160, Note_on_c, 15, 65, 76
13, 2399, Note_on_c, 15, 62, 0
13, 2399, Note_on_c, 15, 69, 0
13, 2399, Note_on_c, 15, 50, 0
13, 2399, Note_on_c, 15, 65, 0
13, 2400, Note_on_c, 15, 71, 76
13, 2400, Note_on_c, 15, 55, 76
13, 2400, Note_on_c, 15, 74, 76
13, 2400, Note_on_c, 15, 67, 76
13, 2639, Note_on_c, 15, 71, 0
13, 2639, Note_on_c, 15, 55, 0
13, 2639, Note_on_c, 15, 74, 0
13, 2639, Note_on_c, 15, 67, 0
13, 2640, Note_on_c, 15, 43, 76
13, 2640, Note_on_c, 15, 62, 76
13, 2640, Note_on_c, 15, 55, 76
13, 2640, Note_on_c, 15, 59, 76
13, 2879, Note_on_c, 15, 43, 0
13, 2879, Note_on_c, 15, 62, 0
13, 2879, Note_on_c, 15, 55, 0
13, 2879, Note_on_c, 15, 59, 0
13, 2880, Note_on_c, 15, 59, 76
13, 2880, Note_on_c, 15, 62, 76
13, 2880, Note_on_c, 15, 53, 76
13, 3119, Note_on_c, 15, 59, 0
13, 3119, Note_on_c, 15, 62, 0
13, 3119, Note_on_c, 15, 53, 0
13, 3120, Note_on_c, 15, 52, 76
13, 3120, Note_on_c, 15, 64, 76
13, 3120, Note_on_c, 15, 67, 76
13, 3120, Note_on_c, 15, 72, 76
13, 3359, Note_on_c, 15, 52, 0
13, 3359, Note_on_c, 15, 64, 0
13, 3359, Note_on_c, 15, 67, 0
13, 3359, Note_on_c, 15, 72, 0
13, 3360, Note_on_c, 15, 76, 76
13, 3360, Note_on_c, 15, 79, 76
13, 3360, Note_on_c, 15, 72, 76
13, 3360, Note_on_c, 15, 60, 76
13, 3599, Note_on_c, 15, 76, 0
13, 3599, Note_on_c, 15, 79, 0
13, 3599, Note_on_c, 15, 72, 0
13, 3599, Note_on_c, 15, 60, 0
13, 3600, Note_on_c, 15, 71, 76
13, 3600, Note_on_c, 15, 79, 76
13, 3600, Note_on_c, 15, 59, 76
13, 3600, Note_on_c, 15, 74, 76
13, 3839, Note_on_c, 15, 71, 0
13, 3839, Note_on_c, 15, 79, 0
13, 3839, Note_on_c, 15, 59, 0
13, 3839, Note_on_c, 15, 74, 0
13, 3840, Note_on_c, 15, 76, 76
13, 3840, Note_on_c, 15, 72, 76
13, 3840, Note_on_c, 15, 57, 76
13, 3840, Note_on_c, 15, 69, 76
13, 4079, Note_on_c, 15, 76, 0
13, 4079, Note_on_c, 15, 72, 0
13, 4079, Note_on_c, 15, 57, 0
13, 4079, Note_on_c, 15, 69, 0
13, 4080, Note_on_c, 15, 67, 76
13, 4080, Note_on_c, 15, 71, 76
13, 4080, Note_on_c, 15, 55, 76
13, 4080, Note_on_c, 15, 74, 76
13, 4319, Note_on_c, 15, 67, 0
13, 4319, Note_on_c, 15, 71, 0
13, 4319, Note_on_c, 15, 55, 0
13, 4319, Note_on_c, 15, 74, 0
13, 4320, Note_on_c, 15, 66, 76
13, 4320, Note_on_c, 15, 74, 76
13, 4320, Note_on_c, 15, 69, 76
13, 4320, Note_on_c, 15, 54, 76
13, 4559, Note_on_c, 15, 66, 0
13, 4559, Note_on_c, 15, 74, 0
13, 4559, Note_on_c, 15, 69, 0
13, 4559, Note_on_c, 15, 54, 0
13, 4560, Note_on_c, 15, 71, 76
13, 4560, Note_on_c, 15, 74, 76
13, 4560, Note_on_c, 15, 67, 76
13, 4560, Note_on_c, 15, 55, 76
13, 4799, Note_on_c, 15, 71, 0
13, 4799, Note_on_c, 15, 74, 0
13, 4799, Note_on_c, 15, 67, 0
13, 4799, Note_on_c, 15, 55, 0
13, 4800, Note_on_c, 15, 59, 76
13, 4800, Note_on_c, 15, 67, 76
13, 4800, Note_on_c, 15, 47, 76
13, 4800, Note_on_c, 15, 62, 76
13, 5039, Note_on_c, 15, 59, 0
13, 5039, Note_on_c, 15, 67, 0
13, 5039, Note_on_c, 15, 47, 0
13, 5039, Note_on_c, 15, 62, 0
13, 5040, Note_on_c, 15, 50, 76
13, 5040, Note_on_c, 15, 69, 76
13, 5040, Note_on_c, 15, 66, 76
13, 5040, Note_on_c, 15, 62, 76
13, 5279, Note_on_c, 15, 50, 0
13, 5279, Note_on_c, 15, 69, 0
13, 5279, Note_on_c, 15, 66, 0
13, 5279, Note_on_c, 15, 62, 0
13, 5280, Note_on_c, 15, 55, 76
13, 5280, Note_on_c, 15, 59, 76
13, 5280, Note_on_c, 15, 62, 76
13, 5280, Note_on_c, 15, 43, 76
13, 5519, Note_on_c, 15, 55, 0
13, 5519, Note_on_c, 15, 59, 0
13, 5519, Note_on_c, 15, 62, 0
13, 5519, Note_on_c, 15, 43, 0
13, 5520, Note_on_c, 15, 67, 76
13, 5520, Note_on_c, 15, 71, 76
13, 5520, Note_on_c, 15, 74, 76
13, 5520, Note_on_c, 15, 55, 76
13, 5639, Note_on_c, 15, 67, 0
13, 5639, Note_on_c, 15, 71, 0
13, 5639, Note_on_c, 15, 74, 0
13, 5639, Note_on_c, 15, 55, 0
13, 5640, Note_on_c, 15, 65, 76
13, 5640, Note_on_c, 15, 72, 76
13, 5640, Note_on_c, 15, 69, 76
13, 5640, Note_on_c, 15, 53, 76
13, 5759, Note_on_c, 15, 65, 0
13, 5759, Note_on_c, 15, 72, 0
13, 5759, Note_on_c, 15, 69, 0
13, 5759, Note_on_c, 15, 53, 0
13, 5760, Note_on_c, 15, 64, 76
13, 5760, Note_on_c, 15, 52, 76
13, 5760, Note_on_c, 15, 67, 76
13, 5760, Note_on_c, 15, 71, 76
13, 5879, Note_on_c, 15, 64, 0
13, 5879, Note_on_c, 15, 52, 0
13, 5879, Note_on_c, 15, 67, 0
13, 5879, Note_on_c, 15, 71, 0
13, 5880, Note_on_c, 15, 62, 76
13, 5880, Note_on_c, 15, 69, 76
13, 5880, Note_on_c, 15, 65, 76
13, 5880, Note_on_c, 15, 50, 76
13, 5999, Note_on_c, 15, 62, 0
13, 5999, Note_on_c, 15, 69, 0
13, 5999, Note_on_c, 15, 65, 0
13, 5999, Note_on_c, 15, 50, 0
13, 6000, Note_on_c, 15, 60, 76
13, 6000, Note_on_c, 15, 67, 76
13, 6000, Note_on_c, 15, 48, 76
13, 6000, Note_on_c, 15, 64, 76
13, 6239, Note_on_c, 15, 60, 0
13, 6239, Note_on_c, 15, 67, 0
13, 6239, Note_on_c, 15, 48, 0
13, 6239, Note_on_c, 15, 64, 0
13, 6240, Note_on_c, 15, 60, 76
13, 6240, Note_on_c, 15, 72, 76
13, 6240, Note_on_c, 15, 76, 76
13, 6240, Note_on_c, 15, 79, 76
13, 6479, Note_on_c, 15, 60, 0
13, 6479, Note_on_c, 15, 72, 0
13, 6479, Note_on_c, 15, 76, 0
13, 6479, Note_on_c, 15, 79, 0
13, 6480, Note_on_c, 15, 71, 76
13, 6480, Note_on_c, 15, 59, 76
13, 6480, Note_on_c, 15, 79, 76
13, 6480, Note_on_c, 15, 74, 76
13, 6719, Note_on_c, 15, 71, 0
13, 6719, Note_on_c, 15, 59, 0
13, 6719, Note_on_c, 15, 79, 0
13, 6719, Note_on_c, 15, 74, 0
13, 6720, Note_on_c, 15, 72, 76
13, 6720, Note_on_c, 15, 57, 76
13, 6720, Note_on_c, 15, 69, 76
13, 6720, Note_on_c, 15, 76, 76
13, 6959, Note_on_c, 15, 72, 0
13, 6959, Note_on_c, 15, 57, 0
13, 6959, Note_on_c, 15, 69, 0
13, 6959, Note_on_c, 15, 76, 0
13, 6960, Note_on_c, 15, 74, 76
13, 6960, Note_on_c, 15, 55, 76
13, 6960, Note_on_c, 15, 67, 76
13, 6960, Note_on_c, 15, 71, 76
13, 7199, Note_on_c, 15, 74, 0
13, 7199, Note_on_c, 15, 55, 0
13, 7199, Note_on_c, 15, 67, 0
13, 7199, Note_on_c, 15, 71, 0
13, 7200, Note_on_c, 15, 67, 76
13, 7200, Note_on_c, 15, 74, 76
13, 7200, Note_on_c, 15, 53, 76
13, 7200, Note_on_c, 15, 65, 76
13, 7200, Note_on_c, 15, 71, 76
13, 7439, Note_on_c, 15, 67, 0
13, 7439, Note_on_c, 15, 74, 0
13, 7439, Note_on_c, 15, 53, 0
13, 7439, Note_on_c, 15, 65, 0
13, 7439, Note_on_c, 15, 71, 0
13, 7440, Note_on_c, 15, 64, 76
13, 7440, Note_on_c, 15, 67, 76
13, 7440, Note_on_c, 15, 72, 76
13, 7440, Note_on_c, 15, 52, 76
13, 7679, Note_on_c, 15, 64, 0
13, 7679, Note_on_c, 15, 67, 0
13, 7679, Note_on_c, 15, 72, 0
13, 7679, Note_on_c, 15, 52, 0
13, 7680, Note_on_c, 15, 53, 76
13, 7680, Note_on_c, 15, 65, 76
13, 7680, Note_on_c, 15, 69, 76
13, 7680, Note_on_c, 15, 72, 76
13, 7919, Note_on_c, 15, 53, 0
13, 7919, Note_on_c, 15, 65, 0
13, 7919, Note_on_c, 15, 69, 0
13, 7919, Note_on_c, 15, 72, 0
13, 7920, Note_on_c, 15, 50, 76
13, 7920, Note_on_c, 15, 69, 76
13, 7920, Note_on_c, 15, 65, 76
13, 7920, Note_on_c, 15, 62, 76
13, 8159, Note_on_c, 15, 50, 0
13, 8159, Note_on_c, 15, 69, 0
13, 8159, Note_on_c, 15, 65, 0
13, 8159, Note_on_c, 15, 62, 0
13, 8160, Note_on_c, 15, 55, 76
13, 8160, Note_on_c, 15, 67, 76
13, 8160, Note_on_c, 15, 71, 76
13, 8160, Note_on_c, 15, 74, 76
13, 8399, Note_on_c, 15, 55, 0
13, 8399, Note_on_c, 15, 67, 0
13, 8399, Note_on_c, 15, 71, 0
13, 8399, Note_on_c, 15, 74, 0
13, 8400, Note_on_c, 15, 43, 76
13, 8400, Note_on_c, 15, 59, 76
13, 8400, Note_on_c, 15, 55, 76
13, 8400, Note_on_c, 15, 62, 76
13, 8639, Note_on_c, 15, 43, 0
13, 8639, Note_on_c, 15, 59, 0
13, 8639, Note_on_c, 15, 55, 0
13, 8639, Note_on_c, 15, 62, 0
13, 8640, Note_on_c, 15, 53, 76
13, 8640, Note_on_c, 15, 59, 76
13, 8640, Note_on_c, 15, 62, 76
13, 8879, Note_on_c, 15, 53, 0
13, 8879, Note_on_c, 15, 59, 0
13, 8879, Note_on_c, 15, 62, 0
13, 8880, Note_on_c, 15, 64, 76
13, 8880, Note_on_c, 15, 67, 76
13, 8880, Note_on_c, 15, 72, 76
13, 8880, Note_on_c, 15, 52, 76
13, 9119, Note_on_c, 15, 64, 0
13, 9119, Note_on_c, 15, 67, 0
13, 9119, Note_on_c, 15, 72, 0
13, 9119, Note_on_c, 15, 52, 0
13, 9120, Note_on_c, 15, 60, 76
13, 9120, Note_on_c, 15, 76, 76
13, 9120, Note_on_c, 15, 79, 76
13, 9120, Note_on_c, 15, 72, 76
13, 9359, Note_on_c, 15, 60, 0
13, 9359, Note_on_c, 15, 76, 0
13, 9359, Note_on_c, 15, 79, 0
13, 9359, Note_on_c, 15, 72, 0
13, 9360, Note_on_c, 15, 79, 76
13, 9360, Note_on_c, 15, 59, 76
13, 9360, Note_on_c, 15, 71, 76
13, 9360, Note_on_c, 15, 74, 76
13, 9599, Note_on_c, 15, 79, 0
13, 9599, Note_on_c, 15, 59, 0
13, 9599, Note_on_c, 15, 71, 0
13, 9599, Note_on_c, 15, 74, 0
13, 9600, Note_on_c, 15, 72, 76
13, 9600, Note_on_c, 15, 69, 76
13, 9600, Note_on_c, 15, 76, 76
13, 9600, Note_on_c, 15, 57, 76
13, 9839, Note_on_c, 15, 72, 0
13, 9839, Note_on_c, 15, 69, 0
13, 9839, Note_on_c, 15, 76, 0
13, 9839, Note_on_c, 15, 57, 0
13, 9840, Note_on_c, 15, 71, 76
13, 9840, Note_on_c, 15, 55, 76
13, 9840, Note_on_c, 15, 67, 76
13, 9840, Note_on_c, 15, 74, 76
13, 10079, Note_on_c, 15, 71, 0
13, 10079, Note_on_c, 15, 55, 0
13, 10079, Note_on_c, 15, 67, 0
13, 10079, Note_on_c, 15, 74, 0
13, 10080, Note_on_c, 15, 74, 76
13, 10080, Note_on_c, 15, 69, 76
13, 10080, Note_on_c, 15, 54, 76
13, 10080, Note_on_c, 15, 66, 76
13, 10319, Note_on_c, 15, 74, 0
13, 10319, Note_on_c, 15, 69, 0
13, 10319, Note_on_c, 15, 54, 0
13, 10319, Note_on_c, 15, 66, 0
13, 10320, Note_on_c, 15, 71, 76
13, 10320, Note_on_c, 15, 67, 76
13, 10320, Note_on_c, 15, 55, 76
13, 10320, Note_on_c, 15, 74, 76
13, 10559, Note_on_c, 15, 71, 0
13, 10559, Note_on_c, 15, 67, 0
13, 10559, Note_on_c, 15, 55, 0
13, 10559, Note_on_c, 15, 74, 0
13, 10560, Note_on_c, 15, 59, 76
13, 10560, Note_on_c, 15, 67, 76
13, 10560, Note_on_c, 15, 47, 76
13, 10560, Note_on_c, 15, 62, 76
13, 10799, Note_on_c, 15, 59, 0
13, 10799, Note_on_c, 15, 67, 0
13, 10799, Note_on_c, 15, 47, 0
13, 10799, Note_on_c, 15, 62, 0
13, 10800, Note_on_c, 15, 62, 76
13, 10800, Note_on_c, 15, 66, 76
13, 10800, Note_on_c, 15, 69, 76
13, 10800, Note_on_c, 15, 50, 76
13, 11039, Note_on_c, 15, 62, 0
13, 11039, Note_on_c, 15, 66, 0
13, 11039, Note_on_c, 15, 69, 0
13, 11039, Note_on_c, 15, 50, 0
13, 11040, Note_on_c, 15, 43, 76
13, 11040, Note_on_c, 15, 62, 76
13, 11040, Note_on_c, 15, 55, 76
13, 11040, Note_on_c, 15, 59, 76
13, 11519, Note_on_c, 15, 43, 0
13, 11519, Note_on_c, 15, 62, 0
13, 11519, Note_on_c, 15, 55, 0
13, 11519, Note_on_c, 15, 59, 0
13, 11520, Note_on_c, 15, 59, 76
13, 11520, Note_on_c, 15, 55, 76
13, 11520, Note_on_c, 15, 43, 76
13, 11520, Note_on_c, 15, 62, 76
13, 11759, Note_on_c, 15, 59, 0
13, 11759, Note_on_c, 15, 55, 0
13, 11759, Note_on_c, 15, 43, 0
13, 11759, Note_on_c, 15, 62, 0
13, 11760, Note_on_c, 15, 67, 76
13, 11760, Note_on_c, 15, 55, 76
13, 11760, Note_on_c, 15, 71, 76
13, 11760, Note_on_c, 15, 74, 76
13, 11999, Note_on_c, 15, 67, 0
13, 11999, Note_on_c, 15, 55, 0
13, 11999, Note_on_c, 15, 71, 0
13, 11999, Note_on_c, 15, 74, 0
13, 12000, Note_on_c, 15, 57, 76
13, 12000, Note_on_c, 15, 69, 76
13, 12000, Note_on_c, 15, 72, 76
13, 12000, Note_on_c, 15, 76, 76
13, 12239, Note_on_c, 15, 57, 0
13, 12239, Note_on_c, 15, 69, 0
13, 12239, Note_on_c, 15, 72, 0
13, 12239, Note_on_c, 15, 76, 0
13, 12240, Note_on_c, 15, 71, 76
13, 12240, Note_on_c, 15, 79, 76
13, 12240, Note_on_c, 15, 74, 76
13, 12240, Note_on_c, 15, 59, 76
13, 12479, Note_on_c, 15, 71, 0
13, 12479, Note_on_c, 15, 79, 0
13, 12479, Note_on_c, 15, 74, 0
13, 12479, Note_on_c, 15, 59, 0
13, 12480, Note_on_c, 15, 79, 76
13, 12480, Note_on_c, 15, 60, 76
13, 12480, Note_on_c, 15, 76, 76
13, 12480, Note_on_c, 15, 72, 76
13, 12719, Note_on_c, 15, 79, 0
13, 12719, Note_on_c, 15, 60, 0
13, 12719, Note_on_c, 15, 76, 0
13, 12719, Note_on_c, 15, 72, 0
13, 12720, Note_on_c, 15, 60, 76
13, 12720, Note_on_c, 15, 69, 76
13, 12720, Note_on_c, 15, 48, 76
13, 12720, Note_on_c, 15, 64, 76
13, 12959, Note_on_c, 15, 60, 0
13, 12959, Note_on_c, 15, 69, 0
13, 12959, Note_on_c, 15, 48, 0
13, 12959, Note_on_c, 15, 64, 0
13, 12960, Note_on_c, 15, 70, 76
13, 12960, Note_on_c, 15, 50, 76
13, 12960, Note_on_c, 15, 62, 76
13, 12960, Note_on_c, 15, 65, 76
13, 13199, Note_on_c, 15, 70, 0
13, 13199, Note_on_c, 15, 50, 0
13, 13199, Note_on_c, 15, 62, 0
13, 13199, Note_on_c, 15, 65, 0
13, 13200, Note_on_c, 15, 67, 76
13, 13200, Note_on_c, 15, 70, 76
13, 13200, Note_on_c, 15, 64, 76
13, 13200, Note_on_c, 15, 72, 76
13, 13200, Note_on_c, 15, 52, 76
13, 13439, Note_on_c, 15, 67, 0
13, 13439, Note_on_c, 15, 70, 0
13, 13439, Note_on_c, 15, 64, 0
13, 13439, Note_on_c, 15, 72, 0
13, 13439, Note_on_c, 15, 52, 0
13, 13440, Note_on_c, 15, 67, 76
13, 13440, Note_on_c, 15, 49, 76
13, 13440, Note_on_c, 15, 61, 76
13, 13440, Note_on_c, 15, 69, 76
13, 13440, Note_on_c, 15, 64, 76
13, 13679, Note_on_c, 15, 67, 0
13, 13679, Note_on_c, 15, 49, 0
13, 13679, Note_on_c, 15, 61, 0
13, 13679, Note_on_c, 15, 69, 0
13, 13679, Note_on_c, 15, 64, 0
13, 13680, Note_on_c, 15, 67, 76
13, 13680, Note_on_c, 15, 64, 76
13, 13680, Note_on_c, 15, 57, 76
13, 13680, Note_on_c, 15, 45, 76
13, 13680, Note_on_c, 15, 61, 76
13, 13919, Note_on_c, 15, 67, 0
13, 13919, Note_on_c, 15, 64, 0
13, 13919, Note_on_c, 15, 57, 0
13, 13919, Note_on_c, 15, 45, 0
13, 13919, Note_on_c, 15, 61, 0
13, 13920, Note_on_c, 15, 62, 76
13, 13920, Note_on_c, 15, 65, 76
13, 13920, Note_on_c, 15, 69, 76
13, 13920, Note_on_c, 15, 50, 76
13, 14159, Note_on_c, 15, 62, 0
13, 14159, Note_on_c, 15, 65, 0
13, 14159, Note_on_c, 15, 69, 0
13, 14159, Note_on_c, 15, 50, 0
13, 14160, Note_on_c, 15, 60, 76
13, 14160, Note_on_c, 15, 67, 76
13, 14160, Note_on_c, 15, 64, 76
13, 14160, Note_on_c, 15, 48, 76
13, 14399, Note_on_c, 15, 60, 0
13, 14399, Note_on_c, 15, 67, 0
13, 14399, Note_on_c, 15, 64, 0
13, 14399, Note_on_c, 15, 48, 0
13, 14400, Note_on_c, 15, 46, 76
13, 14400, Note_on_c, 15, 67, 76
13, 14400, Note_on_c, 15, 62, 76
13, 14400, Note_on_c, 15, 58, 76
13, 14639, Note_on_c, 15, 46, 0
13, 14639, Note_on_c, 15, 67, 0
13, 14639, Note_on_c, 15, 62, 0
13, 14639, Note_on_c, 15, 58, 0
13, 14640, Note_on_c, 15, 57, 76
13, 14640, Note_on_c, 15, 45, 76
13, 14640, Note_on_c, 15, 61, 76
13, 14640, Note_on_c, 15, 64, 76
13, 14879, Note_on_c, 15, 57, 0
13, 14879, Note_on_c, 15, 45, 0
13, 14879, Note_on_c, 15, 61, 0
13, 14879, Note_on_c, 15, 64, 0
13, 14880, Note_on_c, 15, 67, 76
13, 14880, Note_on_c, 15, 49, 76
13, 14880, Note_on_c, 15, 64, 76
13, 14880, Note_on_c, 15, 61, 76
13, 15119, Note_on_c, 15, 67, 0
13, 15119, Note_on_c, 15, 49, 0
13, 15119, Note_on_c, 15, 64, 0
13, 15119, Note_on_c, 15, 61, 0
13, 15120, Note_on_c, 15, 64, 76
13, 15120, Note_on_c, 15, 67, 76
13, 15120, Note_on_c, 15, 71, 76
13, 15120, Note_on_c, 15, 52, 76
13, 15359, Note_on_c, 15, 64, 0
13, 15359, Note_on_c, 15, 67, 0
13, 15359, Note_on_c, 15, 71, 0
13, 15359, Note_on_c, 15, 52, 0
13, 15360, Note_on_c, 15, 76, 76
13, 15360, Note_on_c, 15, 55, 76
13, 15360, Note_on_c, 15, 69, 76
13, 15360, Note_on_c, 15, 67, 76
13, 15360, Note_on_c, 15, 73, 76
13, 15839, Note_on_c, 15, 76, 0
13, 15839, Note_on_c, 15, 55, 0
13, 15839, Note_on_c, 15, 69, 0
13, 15839, Note_on_c, 15, 67, 0
13, 15839, Note_on_c, 15, 73, 0
13, 16080, Note_on_c, 15, 74, 76
13, 16080, Note_on_c, 15, 71, 76
13, 16080, Note_on_c, 15, 55, 76
13, 16080, Note_on_c, 15, 67, 76
13, 16319, Note_on_c, 15, 74, 0
13, 16319, Note_on_c, 15, 71, 0
13, 16319, Note_on_c, 15, 55, 0
13, 16319, Note_on_c, 15, 67, 0
13, 16320, Note_on_c, 15, 71, 76
13, 16320, Note_on_c, 15, 52, 76
13, 16320, Note_on_c, 15, 64, 76
13, 16320, Note_on_c, 15, 67, 76
13, 16559, Note_on_c, 15, 71, 0
13, 16559, Note_on_c, 15, 52, 0
13, 16559, Note_on_c, 15, 64, 0
13, 16559, Note_on_c, 15, 67, 0
13, 16560, Note_on_c, 15, 61, 76
13, 16560, Note_on_c, 15, 67, 76
13, 16560, Note_on_c, 15, 64, 76
13, 16560, Note_on_c, 15, 49, 76
13, 16799, Note_on_c, 15, 61, 0
13, 16799, Note_on_c, 15, 67, 0
13, 16799, Note_on_c, 15, 64, 0
13, 16799, Note_on_c, 15, 49, 0
13, 16800, Note_on_c, 15, 60, 76
13, 16800, Note_on_c, 15, 45, 76
13, 16800, Note_on_c, 15, 64, 76
13, 16800, Note_on_c, 15, 57, 76
13, 17279, Note_on_c, 15, 60, 0
13, 17279, Note_on_c, 15, 45, 0
13, 17279, Note_on_c, 15, 64, 0
13, 17279, Note_on_c, 15, 57, 0
13, 17520, Note_on_c, 15, 62, 76
13, 17520, Note_on_c, 15, 58, 76
13, 17520, Note_on_c, 15, 46, 76
13, 17520, Note_on_c, 15, 65, 76
13, 17759, Note_on_c, 15, 62, 0
13, 17759, Note_on_c, 15, 58, 0
13, 17759, Note_on_c, 15, 46, 0
13, 17759, Note_on_c, 15, 65, 0
13, 17760, Note_on_c, 15, 70, 76
13, 17760, Note_on_c, 15, 74, 76
13, 17760, Note_on_c, 15, 77, 76
13, 17760, Note_on_c, 15, 58, 76
13, 17999, Note_on_c, 15, 70, 0
13, 17999, Note_on_c, 15, 74, 0
13, 17999, Note_on_c, 15, 77, 0
13, 17999, Note_on_c, 15, 58, 0
13, 18000, Note_on_c, 15, 77, 76
13, 18000, Note_on_c, 15, 57, 76
13, 18000, Note_on_c, 15, 74, 76
13, 18000, Note_on_c, 15, 69, 76
13, 18239, Note_on_c, 15, 77, 0
13, 18239, Note_on_c, 15, 57, 0
13, 18239, Note_on_c, 15, 74, 0
13, 18239, Note_on_c, 15, 69, 0
13, 18240, Note_on_c, 15, 70, 76
13, 18240, Note_on_c, 15, 67, 76
13, 18240, Note_on_c, 15, 55, 76
13, 18240, Note_on_c, 15, 74, 76
13, 18479, Note_on_c, 15, 70, 0
13, 18479, Note_on_c, 15, 67, 0
13, 18479, Note_on_c, 15, 55, 0
13, 18479, Note_on_c, 15, 74, 0
13, 18480, Note_on_c, 15, 69, 76
13, 18480, Note_on_c, 15, 49, 76
13, 18480, Note_on_c, 15, 67, 76
13, 18480, Note_on_c, 15, 64, 76
13, 18480, Note_on_c, 15, 61, 76
13, 18719, Note_on_c, 15, 69, 0
13, 18719, Note_on_c, 15, 49, 0
13, 18719, Note_on_c, 15, 67, 0
13, 18719, Note_on_c, 15, 64, 0
13, 18719, Note_on_c, 15, 61, 0
13, 18720, Note_on_c, 15, 50, 76
13, 18720, Note_on_c, 15, 65, 76
13, 18720, Note_on_c, 15, 62, 76
13, 18720, Note_on_c, 15, 69, 76
13, 18959, Note_on_c, 15, 50, 0
13, 18959, Note_on_c, 15, 65, 0
13, 18959, Note_on_c, 15, 62, 0
13, 18959, Note_on_c, 15, 69, 0
13, 18960, Note_on_c, 15, 65, 76
13, 18960, Note_on_c, 15, 58, 76
13, 18960, Note_on_c, 15, 62, 76
13, 18960, Note_on_c, 15, 46, 76
13, 19199, Note_on_c, 15, 65, 0
13, 19199, Note_on_c, 15, 58, 0
13, 19199, Note_on_c, 15, 62, 0
13, 19199, Note_on_c, 15, 46, 0
13, 19200, Note_on_c, 15, 43, 76
13, 19200, Note_on_c, 15, 64, 76
13, 19200, Note_on_c, 15, 58, 76
13, 19200, Note_on_c, 15, 55, 76
13, 19439, Note_on_c, 15, 43, 0
13, 19439, Note_on_c, 15, 64, 0
13, 19439, Note_on_c, 15, 58, 0
13, 19439, Note_on_c, 15, 55, 0
13, 19440, Note_on_c, 15, 57, 76
13, 19440, Note_on_c, 15, 61, 76
13, 19440, Note_on_c, 15, 45, 76
13, 19440, Note_on_c, 15, 64, 76
13, 19679, Note_on_c, 15, 57, 0
13, 19679, Note_on_c, 15, 61, 0
13, 19679, Note_on_c, 15, 45, 0
13, 19679, Note_on_c, 15, 64, 0
13, 19680, Note_on_c, 15, 65, 76
13, 19680, Note_on_c, 15, 50, 76
13, 19680, Note_on_c, 15, 62, 76
13, 19680, Note_on_c, 15, 69, 76
13, 19919, Note_on_c, 15, 65, 0
13, 19919, Note_on_c, 15, 50, 0
13, 19919, Note_on_c, 15, 62, 0
13, 19919, Note_on_c, 15, 69, 0
13, 19920, Note_on_c, 15, 50, 76
13, 19920, Note_on_c, 15, 38, 76
13, 19920, Note_on_c, 15, 53, 76
13, 19920, Note_on_c, 15, 57, 76
13, 20159, Note_on_c, 15, 50, 0
13, 20159, Note_on_c, 15, 38, 0
13, 20159, Note_on_c, 15, 53, 0
13, 20159, Note_on_c, 15, 57, 0
13, 20160, Note_on_c, 15, 62, 76
13, 20160, Note_on_c, 15, 69, 76
13, 20160, Note_on_c, 15, 50, 76
13, 20160, Note_on_c, 15, 66, 76
13, 20399, Note_on_c, 15, 62, 0
13, 20399, Note_on_c, 15, 69, 0
13, 20399, Note_on_c, 15, 50, 0
13, 20399, Note_on_c, 15, 66, 0
13, 20400, Note_on_c, 15, 67, 76
13, 20400, Note_on_c, 15, 64, 76
13, 20400, Note_on_c, 15, 72, 76
13, 20400, Note_on_c, 15, 52, 76
13, 20639, Note_on_c, 15, 67, 0
13, 20639, Note_on_c, 15, 64, 0
13, 20639, Note_on_c, 15, 72, 0
13, 20639, Note_on_c, 15, 52, 0
13, 20640, Note_on_c, 15, 54, 76
13, 20640, Note_on_c, 15, 66, 76
13, 20640, Note_on_c, 15, 69, 76
13, 20640, Note_on_c, 15, 74, 76
13, 20879, Note_on_c, 15, 54, 0
13, 20879, Note_on_c, 15, 66, 0
13, 20879, Note_on_c, 15, 69, 0
13, 20879, Note_on_c, 15, 74, 0
13, 20880, Note_on_c, 15, 69, 76
13, 20880, Note_on_c, 15, 50, 76
13, 20880, Note_on_c, 15, 62, 76
13, 20880, Note_on_c, 15, 72, 76
13, 20880, Note_on_c, 15, 66, 76
13, 21119, Note_on_c, 15, 69, 0
13, 21119, Note_on_c, 15, 50, 0
13, 21119, Note_on_c, 15, 62, 0
13, 21119, Note_on_c, 15, 72, 0
13, 21119, Note_on_c, 15, 66, 0
13, 21120, Note_on_c, 15, 67, 76
13, 21120, Note_on_c, 15, 71, 76
13, 21120, Note_on_c, 15, 74, 76
13, 21120, Note_on_c, 15, 55, 76
13, 21359, Note_on_c, 15, 67, 0
13, 21359, Note_on_c, 15, 71, 0
13, 21359, Note_on_c, 15, 74, 0
13, 21359, Note_on_c, 15, 55, 0
13, 21360, Note_on_c, 15, 55, 76
13, 21360, Note_on_c, 15, 59, 76
13, 21360, Note_on_c, 15, 43, 76
13, 21360, Note_on_c, 15, 62, 76
13, 21599, Note_on_c, 15, 55, 0
13, 21599, Note_on_c, 15, 59, 0
13, 21599, Note_on_c, 15, 43, 0
13, 21599, Note_on_c, 15, 62, 0
13, 21600, Note_on_c, 15, 45, 76
13, 21600, Note_on_c, 15, 65, 76
13, 21600, Note_on_c, 15, 57, 76
13, 21600, Note_on_c, 15, 60, 76
13, 21839, Note_on_c, 15, 45, 0
13, 21839, Note_on_c, 15, 65, 0
13, 21839, Note_on_c, 15, 57, 0
13, 21839, Note_on_c, 15, 60, 0
13, 21840, Note_on_c, 15, 62, 76
13, 21840, Note_on_c, 15, 67, 76
13, 21840, Note_on_c, 15, 47, 76
13, 21840, Note_on_c, 15, 59, 76
13, 21840, Note_on_c, 15, 65, 76
13, 22079, Note_on_c, 15, 62, 0
13, 22079, Note_on_c, 15, 67, 0
13, 22079, Note_on_c, 15, 47, 0
13, 22079, Note_on_c, 15, 59, 0
13, 22079, Note_on_c, 15, 65, 0
13, 22080, Note_on_c, 15, 65, 76
13, 22080, Note_on_c, 15, 62, 76
13, 22080, Note_on_c, 15, 43, 76
13, 22080, Note_on_c, 15, 59, 76
13, 22080, Note_on_c, 15, 55, 76
13, 22319, Note_on_c, 15, 65, 0
13, 22319, Note_on_c, 15, 62, 0
13, 22319, Note_on_c, 15, 43, 0
13, 22319, Note_on_c, 15, 59, 0
13, 22319, Note_on_c, 15, 55, 0
13, 22320, Note_on_c, 15, 48, 76
13, 22320, Note_on_c, 15, 67, 76
13, 22320, Note_on_c, 15, 64, 76
13, 22320, Note_on_c, 15, 60, 76
13, 22559, Note_on_c, 15, 48, 0
13, 22559, Note_on_c, 15, 67, 0
13, 22559, Note_on_c, 15, 64, 0
13, 22559, Note_on_c, 15, 60, 0
13, 22560, Note_on_c, 15, 62, 76
13, 22560, Note_on_c, 15, 59, 76
13, 22560, Note_on_c, 15, 43, 76
13, 22560, Note_on_c, 15, 55, 76
13, 23039, Note_on_c, 15, 62, 0
13, 23039, Note_on_c, 15, 59, 0
13, 23039, Note_on_c, 15, 43, 0
13, 23039, Note_on_c, 15, 55, 0
13, 23040, Note_on_c, 15, 67, 76
13, 23040, Note_on_c, 15, 71, 76
13, 23040, Note_on_c, 15, 74, 76
13, 23040, Note_on_c, 15, 55, 76
13, 23279, Note_on_c, 15, 67, 0
13, 23279, Note_on_c, 15, 71, 0
13, 23279, Note_on_c, 15, 74, 0
13, 23279, Note_on_c, 15, 55, 0
13, 23280, Note_on_c, 15, 77, 76
13, 23280, Note_on_c, 15, 57, 76
13, 23280, Note_on_c, 15, 69, 76
13, 23280, Note_on_c, 15, 72, 76
13, 23399, Note_on_c, 15, 77, 0
13, 23399, Note_on_c, 15, 57, 0
13, 23399, Note_on_c, 15, 69, 0
13, 23399, Note_on_c, 15, 72, 0
13, 23400, Note_on_c, 15, 74, 76
13, 23400, Note_on_c, 15, 55, 76
13, 23400, Note_on_c, 15, 67, 76
13, 23400, Note_on_c, 15, 71, 76
13, 23519, Note_on_c, 15, 74, 0
13, 23519, Note_on_c, 15, 55, 0
13, 23519, Note_on_c, 15, 67, 0
13, 23519, Note_on_c, 15, 71, 0
13, 23520, Note_on_c, 15, 69, 76
13, 23520, Note_on_c, 15, 53, 76
13, 23520, Note_on_c, 15, 65, 76
13, 23520, Note_on_c, 15, 72, 76
13, 23639, Note_on_c, 15, 69, 0
13, 23639, Note_on_c, 15, 53, 0
13, 23639, Note_on_c, 15, 65, 0
13, 23639, Note_on_c, 15, 72, 0
13, 23640, Note_on_c, 15, 52, 76
13, 23640, Note_on_c, 15, 64, 76
13, 23640, Note_on_c, 15, 67, 76
13, 23640, Note_on_c, 15, 71, 76
13, 23759, Note_on_c, 15, 52, 0
13, 23759, Note_on_c, 15, 64, 0
13, 23759, Note_on_c, 15, 67, 0
13, 23759, Note_on_c, 15, 71, 0
13, 23760, Note_on_c, 15, 74, 76
13, 23760, Note_on_c, 15, 71, 76
13, 23760, Note_on_c, 15, 53, 76
13, 23760, Note_on_c, 15, 65, 76
13, 23760, Note_on_c, 15, 67, 76
13, 23879, Note_on_c, 15, 74, 0
13, 23879, Note_on_c, 15, 71, 0
13, 23879, Note_on_c, 15, 53, 0
13, 23879, Note_on_c, 15, 65, 0
13, 23879, Note_on_c, 15, 67, 0
13, 23880, Note_on_c, 15, 50, 76
13, 23880, Note_on_c, 15, 62, 76
13, 23880, Note_on_c, 15, 65, 76
13, 23880, Note_on_c, 15, 69, 76
13, 23999, Note_on_c, 15, 50, 0
13, 23999, Note_on_c, 15, 62, 0
13, 23999, Note_on_c, 15, 65, 0
13, 23999, Note_on_c, 15, 69, 0
13, 24000, Note_on_c, 15, 52, 76
13, 24000, Note_on_c, 15, 64, 76
13, 24000, Note_on_c, 15, 67, 76
13, 24000, Note_on_c, 15, 72, 76
13, 24239, Note_on_c, 15, 52, 0
13, 24239, Note_on_c, 15, 64, 0
13, 24239, Note_on_c, 15, 67, 0
13, 24239, Note_on_c, 15, 72, 0
13, 24240, Note_on_c, 15, 62, 76
13, 24240, Note_on_c, 15, 65, 76
13, 24240, Note_on_c, 15, 70, 76
13, 24240, Note_on_c, 15, 50, 76
13, 24479, Note_on_c, 15, 62, 0
13, 24479, Note_on_c, 15, 65, 0
13, 24479, Note_on_c, 15, 70, 0
13, 24479, Note_on_c, 15, 50, 0
13, 24480, Note_on_c, 15, 70, 76
13, 24480, Note_on_c, 15, 48, 76
13, 24480, Note_on_c, 15, 64, 76
13, 24480, Note_on_c, 15, 67, 76
13, 24480, Note_on_c, 15, 60, 76
13, 24719, Note_on_c, 15, 70, 0
13, 24719, Note_on_c, 15, 48, 0
13, 24719, Note_on_c, 15, 64, 0
13, 24719, Note_on_c, 15, 67, 0
13, 24719, Note_on_c, 15, 60, 0
13, 24720, Note_on_c, 15, 69, 76
13, 24720, Note_on_c, 15, 53, 76
13, 24720, Note_on_c, 15, 72, 76
13, 24720, Note_on_c, 15, 65, 76
13, 24959, Note_on_c, 15, 69, 0
13, 24959, Note_on_c, 15, 53, 0
13, 24959, Note_on_c, 15, 72, 0
13, 24959, Note_on_c, 15, 65, 0
13, 24960, Note_on_c, 15, 69, 76
13, 24960, Note_on_c, 15, 62, 76
13, 24960, Note_on_c, 15, 65, 76
13, 24960, Note_on_c, 15, 50, 76
13, 25199, Note_on_c, 15, 69, 0
13, 25199, Note_on_c, 15, 62, 0
13, 25199, Note_on_c, 15, 65, 0
13, 25199, Note_on_c, 15, 50, 0
13, 25200, Note_on_c, 15, 71, 76
13, 25200, Note_on_c, 15, 74, 76
13, 25200, Note_on_c, 15, 55, 76
13, 25200, Note_on_c, 15, 67, 76
13, 25439, Note_on_c, 15, 71, 0
13, 25439, Note_on_c, 15, 74, 0
13, 25439, Note_on_c, 15, 55, 0
13, 25439, Note_on_c, 15, 67, 0
13, 25440, Note_on_c, 15, 64, 76
13, 25440, Note_on_c, 15, 48, 76
13, 25440, Note_on_c, 15, 60, 76
13, 25440, Note_on_c, 15, 67, 76
13, 25919, Note_on_c, 15, 64, 0
13, 25919, Note_on_c, 15, 48, 0
13, 25919, Note_on_c, 15, 60, 0
13, 25919, Note_on_c, 15, 67, 0
13, 25920, Note_on_c, 15, 43, 76
13, 25920, Note_on_c, 15, 62, 76
13, 25920, Note_on_c, 15, 55, 76
13, 25920, Note_on_c, 15, 59, 76
13, 26159, Note_on_c, 15, 43, 0
13, 26159, Note_on_c, 15, 62, 0
13, 26159, Note_on_c, 15, 55, 0
13, 26159, Note_on_c, 15, 59, 0
13, 26160, Note_on_c, 15, 67, 76
13, 26160, Note_on_c, 15, 71, 76
13, 26160, Note_on_c, 15, 74, 76
13, 26160, Note_on_c, 15, 55, 76
13, 26399, Note_on_c, 15, 67, 0
13, 26399, Note_on_c, 15, 71, 0
13, 26399, Note_on_c, 15, 74, 0
13, 26399, Note_on_c, 15, 55, 0
13, 26400, Note_on_c, 15, 69, 76
13, 26400, Note_on_c, 15, 72, 76
13, 26400, Note_on_c, 15, 76, 76
13, 26400, Note_on_c, 15, 57, 76
13, 26639, Note_on_c, 15, 69, 0
13, 26639, Note_on_c, 15, 72, 0
13, 26639, Note_on_c, 15, 76, 0
13, 26639, Note_on_c, 15, 57, 0
13, 26640, Note_on_c, 15, 59, 76
13, 26640, Note_on_c, 15, 71, 76
13, 26640, Note_on_c, 15, 79, 76
13, 26640, Note_on_c, 15, 74, 76
13, 26879, Note_on_c, 15, 59, 0
13, 26879, Note_on_c, 15, 71, 0
13, 26879, Note_on_c, 15, 79, 0
13, 26879, Note_on_c, 15, 74, 0
13, 26880, Note_on_c, 15, 72, 76
13, 26880, Note_on_c, 15, 60, 76
13, 26880, Note_on_c, 15, 76, 76
13, 26880, Note_on_c, 15, 79, 76
13, 27119, Note_on_c, 15, 72, 0
13, 27119, Note_on_c, 15, 60, 0
13, 27119, Note_on_c, 15, 76, 0
13, 27119, Note_on_c, 15, 79, 0
13, 27120, Note_on_c, 15, 69, 76
13, 27120, Note_on_c, 15, 60, 76
13, 27120, Note_on_c, 15, 64, 76
13, 27120, Note_on_c, 15, 48, 76
13, 27359, Note_on_c, 15, 69, 0
13, 27359, Note_on_c, 15, 60, 0
13, 27359, Note_on_c, 15, 64, 0
13, 27359, Note_on_c, 15, 48, 0
13, 27360, Note_on_c, 15, 65, 76
13, 27360, Note_on_c, 15, 50, 76
13, 27360, Note_on_c, 15, 70, 76
13, 27360, Note_on_c, 15, 62, 76
13, 27599, Note_on_c, 15, 65, 0
13, 27599, Note_on_c, 15, 50, 0
13, 27599, Note_on_c, 15, 70, 0
13, 27599, Note_on_c, 15, 62, 0
13, 27600, Note_on_c, 15, 67, 76
13, 27600, Note_on_c, 15, 72, 76
13, 27600, Note_on_c, 15, 52, 76
13, 27600, Note_on_c, 15, 64, 76
13, 27600, Note_on_c, 15, 70, 76
13, 27839, Note_on_c, 15, 67, 0
13, 27839, Note_on_c, 15, 72, 0
13, 27839, Note_on_c, 15, 52, 0
13, 27839, Note_on_c, 15, 64, 0
13, 27839, Note_on_c, 15, 70, 0
13, 27840, Note_on_c, 15, 69, 76
13, 27840, Note_on_c, 15, 49, 76
13, 27840, Note_on_c, 15, 61, 76
13, 27840, Note_on_c, 15, 67, 76
13, 27840, Note_on_c, 15, 64, 76
13, 28079, Note_on_c, 15, 69, 0
13, 28079, Note_on_c, 15, 49, 0
13, 28079, Note_on_c, 15, 61, 0
13, 28079, Note_on_c, 15, 67, 0
13, 28079, Note_on_c, 15, 64, 0
13, 28080, Note_on_c, 15, 57, 76
13, 28080, Note_on_c, 15, 64, 76
13, 28080, Note_on_c, 15, 61, 76
13, 28080, Note_on_c, 15, 67, 76
13, 28080, Note_on_c, 15, 45, 76
13, 28319, Note_on_c, 15, 57, 0
13, 28319, Note_on_c, 15, 64, 0
13, 28319, Note_on_c, 15, 61, 0
13, 28319, Note_on_c, 15, 67, 0
13, 28319, Note_on_c, 15, 45, 0
13, 28320, Note_on_c, 15, 62, 76
13, 28320, Note_on_c, 15, 65, 76
13, 28320, Note_on_c, 15, 69, 76
13, 28320, Note_on_c, 15, 50, 76
13, 28559, Note_on_c, 15, 62, 0
13, 28559, Note_on_c, 15, 65, 0
13, 28559, Note_on_c, 15, 69, 0
13, 28559, Note_on_c, 15, 50, 0
13, 28560, Note_on_c, 15, 67, 76
13, 28560, Note_on_c, 15, 48, 76
13, 28560, Note_on_c, 15, 64, 76
13, 28560, Note_on_c, 15, 60, 76
13, 28799, Note_on_c, 15, 67, 0
13, 28799, Note_on_c, 15, 48, 0
13, 28799, Note_on_c, 15, 64, 0
13, 28799, Note_on_c, 15, 60, 0
13, 28800, Note_on_c, 15, 58, 76
13, 28800, Note_on_c, 15, 67, 76
13, 28800, Note_on_c, 15, 62, 76
13, 28800, Note_on_c, 15, 46, 76
13, 29039, Note_on_c, 15, 58, 0
13, 29039, Note_on_c, 15, 67, 0
13, 29039, Note_on_c, 15, 62, 0
13, 29039, Note_on_c, 15, 46, 0
13, 29040, Note_on_c, 15, 61, 76
13, 29040, Note_on_c, 15, 64, 76
13, 29040, Note_on_c, 15, 57, 76
13, 29040, Note_on_c, 15, 45, 76
13, 29279, Note_on_c, 15, 61, 0
13, 29279, Note_on_c, 15, 64, 0
13, 29279, Note_on_c, 15, 57, 0
13, 29279, Note_on_c, 15, 45, 0
13, 29280, Note_on_c, 15, 67, 76
13, 29280, Note_on_c, 15, 61, 76
13, 29280, Note_on_c, 15, 49, 76
13, 29280, Note_on_c, 15, 64, 76
13, 29519, Note_on_c, 15, 67, 0
13, 29519, Note_on_c, 15, 61, 0
13, 29519, Note_on_c, 15, 49, 0
13, 29519, Note_on_c, 15, 64, 0
13, 29520, Note_on_c, 15, 52, 76
13, 29520, Note_on_c, 15, 67, 76
13, 29520, Note_on_c, 15, 64, 76
13, 29520, Note_on_c, 15, 71, 76
13, 29759, Note_on_c, 15, 52, 0
13, 29759, Note_on_c, 15, 67, 0
13, 29759, Note_on_c, 15, 64, 0
13, 29759, Note_on_c, 15, 71, 0
13, 29760, Note_on_c, 15, 73, 76
13, 29760, Note_on_c, 15, 69, 76
13, 29760, Note_on_c, 15, 67, 76
13, 29760, Note_on_c, 15, 55, 76
13, 29760, Note_on_c, 15, 76, 76
13, 30239, Note_on_c, 15, 73, 0
13, 30239, Note_on_c, 15, 69, 0
13, 30239, Note_on_c, 15, 67, 0
13, 30239, Note_on_c, 15, 55, 0
13, 30239, Note_on_c, 15, 76, 0
13, 30480, Note_on_c, 15, 71, 76
13, 30480, Note_on_c, 15, 67, 76
13, 30480, Note_on_c, 15, 74, 76
13, 30480, Note_on_c, 15, 55, 76
13, 30719, Note_on_c, 15, 71, 0
13, 30719, Note_on_c, 15, 67, 0
13, 30719, Note_on_c, 15, 74, 0
13, 30719, Note_on_c, 15, 55, 0
13, 30720, Note_on_c, 15, 52, 76
13, 30720, Note_on_c, 15, 67, 76
13, 30720, Note_on_c, 15, 71, 76
13, 30720, Note_on_c, 15, 64, 76
13, 30959, Note_on_c, 15, 52, 0
13, 30959, Note_on_c, 15, 67, 0
13, 30959, Note_on_c, 15, 71, 0
13, 30959, Note_on_c, 15, 64, 0
13, 30960, Note_on_c, 15, 64, 76
13, 30960, Note_on_c, 15, 61, 76
13, 30960, Note_on_c, 15, 49, 76
13, 30960, Note_on_c, 15, 67, 76
13, 31199, Note_on_c, 15, 64, 0
13, 31199, Note_on_c, 15, 61, 0
13, 31199, Note_on_c, 15, 49, 0
13, 31199, Note_on_c, 15, 67, 0
13, 31200, Note_on_c, 15, 57, 76
13, 31200, Note_on_c, 15, 45, 76
13, 31200, Note_on_c, 15, 64, 76
13, 31200, Note_on_c, 15, 60, 76
13, 31679, Note_on_c, 15, 57, 0
13, 31679, Note_on_c, 15, 45, 0
13, 31679, Note_on_c, 15, 64, 0
13, 31679, Note_on_c, 15, 60, 0
13, 31920, Note_on_c, 15, 65, 76
13, 31920, Note_on_c, 15, 58, 76
13, 31920, Note_on_c, 15, 62, 76
13, 31920, Note_on_c, 15, 46, 76
13, 32159, Note_on_c, 15, 65, 0
13, 32159, Note_on_c, 15, 58, 0
13, 32159, Note_on_c, 15, 62, 0
13, 32159, Note_on_c, 15, 46, 0
13, 32160, Note_on_c, 15, 58, 76
13, 32160, Note_on_c, 15, 74, 76
13, 32160, Note_on_c, 15, 70, 76
13, 32160, Note_on_c, 15, 77, 76
13, 32399, Note_on_c, 15, 58, 0
13, 32399, Note_on_c, 15, 74, 0
13, 32399, Note_on_c, 15, 70, 0
13, 32399, Note_on_c, 15, 77, 0
13, 32400, Note_on_c, 15, 74, 76
13, 32400, Note_on_c, 15, 69, 76
13, 32400, Note_on_c, 15, 77, 76
13, 32400, Note_on_c, 15, 57, 76
13, 32639, Note_on_c, 15, 74, 0
13, 32639, Note_on_c, 15, 69, 0
13, 32639, Note_on_c, 15, 77, 0
13, 32639, Note_on_c, 15, 57, 0
13, 32640, Note_on_c, 15, 67, 76
13, 32640, Note_on_c, 15, 55, 76
13, 32640, Note_on_c, 15, 74, 76
13, 32640, Note_on_c, 15, 70, 76
13, 32879, Note_on_c, 15, 67, 0
13, 32879, Note_on_c, 15, 55, 0
13, 32879, Note_on_c, 15, 74, 0
13, 32879, Note_on_c, 15, 70, 0
13, 32880, Note_on_c, 15, 69, 76
13, 32880, Note_on_c, 15, 61, 76
13, 32880, Note_on_c, 15, 67, 76
13, 32880, Note_on_c, 15, 49, 76
13, 32880, Note_on_c, 15, 64, 76
13, 33119, Note_on_c, 15, 69, 0
13, 33119, Note_on_c, 15, 61, 0
13, 33119, Note_on_c, 15, 67, 0
13, 33119, Note_on_c, 15, 49, 0
13, 33119, Note_on_c, 15, 64, 0
13, 33120, Note_on_c, 15, 65, 76
13, 33120, Note_on_c, 15, 50, 76
13, 33120, Note_on_c, 15, 62, 76
13, 33120, Note_on_c, 15, 69, 76
13, 33359, Note_on_c, 15, 65, 0
13, 33359, Note_on_c, 15, 50, 0
13, 33359, Note_on_c, 15, 62, 0
13, 33359, Note_on_c, 15, 69, 0
13, 33360, Note_on_c, 15, 46, 76
13, 33360, Note_on_c, 15, 65, 76
13, 33360, Note_on_c, 15, 58, 76
13, 33360, Note_on_c, 15, 62, 76
13, 33599, Note_on_c, 15, 46, 0
13, 33599, Note_on_c, 15, 65, 0
13, 33599, Note_on_c, 15, 58, 0
13, 33599, Note_on_c, 15, 62, 0
13, 33600, Note_on_c, 15, 55, 76
13, 33600, Note_on_c, 15, 58, 76
13, 33600, Note_on_c, 15, 64, 76
13, 33600, Note_on_c, 15, 43, 76
13, 33839, Note_on_c, 15, 55, 0
13, 33839, Note_on_c, 15, 58, 0
13, 33839, Note_on_c, 15, 64, 0
13, 33839, Note_on_c, 15, 43, 0
13, 33840, Note_on_c, 15, 64, 76
13, 33840, Note_on_c, 15, 61, 76
13, 33840, Note_on_c, 15, 45, 76
13, 33840, Note_on_c, 15, 57, 76
13, 34079, Note_on_c, 15, 64, 0
13, 34079, Note_on_c, 15, 61, 0
13, 34079, Note_on_c, 15, 45, 0
13, 34079, Note_on_c, 15, 57, 0
13, 34080, Note_on_c, 15, 50, 76
13, 34080, Note_on_c, 15, 62, 76
13, 34080, Note_on_c, 15, 69, 76
13, 34080, Note_on_c, 15, 65, 76
13, 34319, Note_on_c, 15, 50, 0
13, 34319, Note_on_c, 15, 62, 0
13, 34319, Note_on_c, 15, 69, 0
13, 34319, Note_on_c, 15, 65, 0
13, 34320, Note_on_c, 15, 50, 76
13, 34320, Note_on_c, 15, 38, 76
13, 34320, Note_on_c, 15, 57, 76
13, 34320, Note_on_c, 15, 53, 76
13, 34559, Note_on_c, 15, 50, 0
13, 34559, Note_on_c, 15, 38, 0
13, 34559, Note_on_c, 15, 57, 0
13, 34559, Note_on_c, 15, 53, 0
13, 34560, Note_on_c, 15, 66, 76
13, 34560, Note_on_c, 15, 69, 76
13, 34560, Note_on_c, 15, 62, 76
13, 34560, Note_on_c, 15, 50, 76
13, 34799, Note_on_c, 15, 66, 0
13, 34799, Note_on_c, 15, 69, 0
13, 34799, Note_on_c, 15, 62, 0
13, 34799, Note_on_c, 15, 50, 0
13, 34800, Note_on_c, 15, 67, 76
13, 34800, Note_on_c, 15, 64, 76
13, 34800, Note_on_c, 15, 52, 76
13, 34800, Note_on_c, 15, 72, 76
13, 35039, Note_on_c, 15, 67, 0
13, 35039, Note_on_c, 15, 64, 0
13, 35039, Note_on_c, 15, 52, 0
13, 35039, Note_on_c, 15, 72, 0
13, 35040, Note_on_c, 15, 66, 76
13, 35040, Note_on_c, 15, 54, 76
13, 35040, Note_on_c, 15, 69, 76
13, 35040, Note_on_c, 15, 74, 76
13, 35279, Note_on_c, 15, 66, 0
13, 35279, Note_on_c, 15, 54, 0
13, 35279, Note_on_c, 15, 69, 0
13, 35279, Note_on_c, 15, 74, 0
13, 35280, Note_on_c, 15, 50, 76
13, 35280, Note_on_c, 15, 62, 76
13, 35280, Note_on_c, 15, 66, 76
13, 35280, Note_on_c, 15, 72, 76
13, 35280, Note_on_c, 15, 69, 76
13, 35519, Note_on_c, 15, 50, 0
13, 35519, Note_on_c, 15, 62, 0
13, 35519, Note_on_c, 15, 66, 0
13, 35519, Note_on_c, 15, 72, 0
13, 35519, Note_on_c, 15, 69, 0
13, 35520, Note_on_c, 15, 55, 76
13, 35520, Note_on_c, 15, 74, 76
13, 35520, Note_on_c, 15, 67, 76
13, 35520, Note_on_c, 15, 71, 76
13, 35759, Note_on_c, 15, 55, 0
13, 35759, Note_on_c, 15, 74, 0
13, 35759, Note_on_c, 15, 67, 0
13, 35759, Note_on_c, 15, 71, 0
13, 35760, Note_on_c, 15, 59, 76
13, 35760, Note_on_c, 15, 62, 76
13, 35760, Note_on_c, 15, 43, 76
13, 35760, Note_on_c, 15, 55, 76
13, 35999, Note_on_c, 15, 59, 0
13, 35999, Note_on_c, 15, 62, 0
13, 35999, Note_on_c, 15, 43, 0
13, 35999, Note_on_c, 15, 55, 0
13, 36000, Note_on_c, 15, 60, 76
13, 36000, Note_on_c, 15, 57, 76
13, 36000, Note_on_c, 15, 45, 76
13, 36000, Note_on_c, 15, 65, 76
13, 36239, Note_on_c, 15, 60, 0
13, 36239, Note_on_c, 15, 57, 0
13, 36239, Note_on_c, 15, 45, 0
13, 36239, Note_on_c, 15, 65, 0
13, 36240, Note_on_c, 15, 62, 76
13, 36240, Note_on_c, 15, 67, 76
13, 36240, Note_on_c, 15, 65, 76
13, 36240, Note_on_c, 15, 59, 76
13, 36240, Note_on_c, 15, 47, 76
13, 36479, Note_on_c, 15, 62, 0
13, 36479, Note_on_c, 15, 67, 0
13, 36479, Note_on_c, 15, 65, 0
13, 36479, Note_on_c, 15, 59, 0
13, 36479, Note_on_c, 15, 47, 0
13, 36480, Note_on_c, 15, 65, 76
13, 36480, Note_on_c, 15, 62, 76
13, 36480, Note_on_c, 15, 59, 76
13, 36480, Note_on_c, 15, 55, 76
13, 36480, Note_on_c, 15, 43, 76
13, 36719, Note_on_c, 15, 65, 0
13, 36719, Note_on_c, 15, 62, 0
13, 36719, Note_on_c, 15, 59, 0
13, 36719, Note_on_c, 15, 55, 0
13, 36719, Note_on_c, 15, 43, 0
13, 36720, Note_on_c, 15, 67, 76
13, 36720, Note_on_c, 15, 48, 76
13, 36720, Note_on_c, 15, 64, 76
13, 36720, Note_on_c, 15, 60, 76
13, 36959, Note_on_c, 15, 67, 0
13, 36959, Note_on_c, 15, 48, 0
13, 36959, Note_on_c, 15, 64, 0
13, 36959, Note_on_c, 15, 60, 0
13, 36960, Note_on_c, 15, 62, 76
13, 36960, Note_on_c, 15, 43, 76
13, 36960, Note_on_c, 15, 59, 76
13, 36960, Note_on_c, 15, 55, 76
13, 37439, Note_on_c, 15, 62, 0
13, 37439, Note_on_c, 15, 43, 0
13, 37439, Note_on_c, 15, 59, 0
13, 37439, Note_on_c, 15, 55, 0
13, 37440, Note_on_c, 15, 67, 76
13, 37440, Note_on_c, 15, 55, 76
13, 37440, Note_on_c, 15, 71, 76
13, 37440, Note_on_c, 15, 74, 76
13, 37679, Note_on_c, 15, 67, 0
13, 37679, Note_on_c, 15, 55, 0
13, 37679, Note_on_c, 15, 71, 0
13, 37679, Note_on_c, 15, 74, 0
13, 37680, Note_on_c, 15, 69, 76
13, 37680, Note_on_c, 15, 72, 76
13, 37680, Note_on_c, 15, 77, 76
13, 37680, Note_on_c, 15, 57, 76
13, 37799, Note_on_c, 15, 69, 0
13, 37799, Note_on_c, 15, 72, 0
13, 37799, Note_on_c, 15, 77, 0
13, 37799, Note_on_c, 15, 57, 0
13, 37800, Note_on_c, 15, 55, 76
13, 37800, Note_on_c, 15, 74, 76
13, 37800, Note_on_c, 15, 71, 76
13, 37800, Note_on_c, 15, 67, 76
13, 37919, Note_on_c, 15, 55, 0
13, 37919, Note_on_c, 15, 74, 0
13, 37919, Note_on_c, 15, 71, 0
13, 37919, Note_on_c, 15, 67, 0
13, 37920, Note_on_c, 15, 69, 76
13, 37920, Note_on_c, 15, 72, 76
13, 37920, Note_on_c, 15, 53, 76
13, 37920, Note_on_c, 15, 65, 76
13, 38039, Note_on_c, 15, 69, 0
13, 38039, Note_on_c, 15, 72, 0
13, 38039, Note_on_c, 15, 53, 0
13, 38039, Note_on_c, 15, 65, 0
13, 38040, Note_on_c, 15, 71, 76
13, 38040, Note_on_c, 15, 64, 76
13, 38040, Note_on_c, 15, 67, 76
13, 38040, Note_on_c, 15, 52, 76
13, 38159, Note_on_c, 15, 71, 0
13, 38159, Note_on_c, 15, 64, 0
13, 38159, Note_on_c, 15, 67, 0
13, 38159, Note_on_c, 15, 52, 0
13, 38160, Note_on_c, 15, 67, 76
13, 38160, Note_on_c, 15, 53, 76
13, 38160, Note_on_c, 15, 65, 76
13, 38160, Note_on_c, 15, 74, 76
13, 38160, Note_on_c, 15, 71, 76
13, 38279, Note_on_c, 15, 67, 0
13, 38279, Note_on_c, 15, 53, 0
13, 38279, Note_on_c, 15, 65, 0
13, 38279, Note_on_c, 15, 74, 0
13, 38279, Note_on_c, 15, 71, 0
13, 38280, Note_on_c, 15, 69, 76
13, 38280, Note_on_c, 15, 62, 76
13, 38280, Note_on_c, 15, 65, 76
13, 38280, Note_on_c, 15, 50, 76
13, 38399, Note_on_c, 15, 69, 0
13, 38399, Note_on_c, 15, 62, 0
13, 38399, Note_on_c, 15, 65, 0
13, 38399, Note_on_c, 15, 50, 0
13, 38400, Note_on_c, 15, 67, 76
13, 38400, Note_on_c, 15, 52, 76
13, 38400, Note_on_c, 15, 72, 76
13, 38400, Note_on_c, 15, 64, 76
13, 38639, Note_on_c, 15, 67, 0
13, 38639, Note_on_c, 15, 52, 0
13, 38639, Note_on_c, 15, 72, 0
13, 38639, Note_on_c, 15, 64, 0
13, 38640, Note_on_c, 15, 70, 76
13, 38640, Note_on_c, 15, 50, 76
13, 38640, Note_on_c, 15, 62, 76
13, 38640, Note_on_c, 15, 65, 76
13, 38879, Note_on_c, 15, 70, 0
13, 38879, Note_on_c, 15, 50, 0
13, 38879, Note_on_c, 15, 62, 0
13, 38879, Note_on_c, 15, 65, 0
13, 38880, Note_on_c, 15, 64, 76
13, 38880, Note_on_c, 15, 60, 76
13, 38880, Note_on_c, 15, 67, 76
13, 38880, Note_on_c, 15, 48, 76
13, 38880, Note_on_c, 15, 70, 76
13, 39119, Note_on_c, 15, 64, 0
13, 39119, Note_on_c, 15, 60, 0
13, 39119, Note_on_c, 15, 67, 0
13, 39119, Note_on_c, 15, 48, 0
13, 39119, Note_on_c, 15, 70, 0
13, 39120, Note_on_c, 15, 65, 76
13, 39120, Note_on_c, 15, 69, 76
13, 39120, Note_on_c, 15, 53, 76
13, 39120, Note_on_c, 15, 72, 76
13, 39359, Note_on_c, 15, 65, 0
13, 39359, Note_on_c, 15, 69, 0
13, 39359, Note_on_c, 15, 53, 0
13, 39359, Note_on_c, 15, 72, 0
13, 39360, Note_on_c, 15, 69, 76
13, 39360, Note_on_c, 15, 50, 76
13, 39360, Note_on_c, 15, 62, 76
13, 39360, Note_on_c, 15, 65, 76
13, 39599, Note_on_c, 15, 69, 0
13, 39599, Note_on_c, 15, 50, 0
13, 39599, Note_on_c, 15, 62, 0
13, 39599, Note_on_c, 15, 65, 0
13, 39600, Note_on_c, 15, 74, 76
13, 39600, Note_on_c, 15, 67, 76
13, 39600, Note_on_c, 15, 71, 76
13, 39600, Note_on_c, 15, 55, 76
13, 39839, Note_on_c, 15, 74, 0
13, 39839, Note_on_c, 15, 67, 0
13, 39839, Note_on_c, 15, 71, 0
13, 39839, Note_on_c, 15, 55, 0
13, 39840, Note_on_c, 15, 60, 76
13, 39840, Note_on_c, 15, 64, 76
13, 39840, Note_on_c, 15, 48, 76
13, 39840, Note_on_c, 15, 67, 76
13, 40319, Note_on_c, 15, 60, 0
13, 40319, Note_on_c, 15, 64, 0
13, 40319, Note_on_c, 15, 48, 0
13, 40319, Note_on_c, 15, 67, 0
13, 40800, Note_on_c, 15, 72, 76
13, 40800, Note_on_c, 15, 76, 76
13, 40800, Note_on_c, 15, 60, 76
13, 40800, Note_on_c, 15, 79, 76
13, 41039, Note_on_c, 15, 72, 0
13, 41039, Note_on_c, 15, 76, 0
13, 41039, Note_on_c, 15, 60, 0
13, 41039, Note_on_c, 15, 79, 0
13, 41040, Note_on_c, 15, 72, 76
13, 41040, Note_on_c, 15, 79, 76
13, 41040, Note_on_c, 15, 76, 76
13, 41040, Note_on_c, 15, 60, 76
13, 41279, Note_on_c, 15, 72, 0
13, 41279, Note_on_c, 15, 79, 0
13, 41279, Note_on_c, 15, 76, 0
13, 41279, Note_on_c, 15, 60, 0
13, 41280, Note_on_c, 15, 79, 76
13, 41280, Note_on_c, 15, 72, 76
13, 41280, Note_on_c, 15, 60, 76
13, 41280, Note_on_c, 15, 76, 76
13, 41519, Note_on_c, 15, 79, 0
13, 41519, Note_on_c, 15, 72, 0
13, 41519, Note_on_c, 15, 60, 0
13, 41519, Note_on_c, 15, 76, 0
13, 41520, Note_on_c, 15, 57, 76
13, 41520, Note_on_c, 15, 72, 76
13, 41520, Note_on_c, 15, 69, 76
13, 41520, Note_on_c, 15, 76, 76
13, 41759, Note_on_c, 15, 57, 0
13, 41759, Note_on_c, 15, 72, 0
13, 41759, Note_on_c, 15, 69, 0
13, 41759, Note_on_c, 15, 76, 0
13, 41760, Note_on_c, 15, 72, 76
13, 41760, Note_on_c, 15, 76, 76
13, 41760, Note_on_c, 15, 69, 76
13, 41760, Note_on_c, 15, 57, 76
13, 41999, Note_on_c, 15, 72, 0
13, 41999, Note_on_c, 15, 76, 0
13, 41999, Note_on_c, 15, 69, 0
13, 41999, Note_on_c, 15, 57, 0
13, 42000, Note_on_c, 15, 72, 76
13, 42000, Note_on_c, 15, 69, 76
13, 42000, Note_on_c, 15, 76, 76
13, 42000, Note_on_c, 15, 57, 76
13, 42239, Note_on_c, 15, 72, 0
13, 42239, Note_on_c, 15, 69, 0
13, 42239, Note_on_c, 15, 76, 0
13, 42239, Note_on_c, 15, 57, 0
13, 42240, Note_on_c, 15, 74, 76
13, 42240, Note_on_c, 15, 65, 76
13, 42240, Note_on_c, 15, 53, 76
13, 42240, Note_on_c, 15, 69, 76
13, 42479, Note_on_c, 15, 74, 0
13, 42479, Note_on_c, 15, 65, 0
13, 42479, Note_on_c, 15, 53, 0
13, 42479, Note_on_c, 15, 69, 0
13, 42480, Note_on_c, 15, 69, 76
13, 42480, Note_on_c, 15, 65, 76
13, 42480, Note_on_c, 15, 53, 76
13, 42480, Note_on_c, 15, 74, 76
13, 42719, Note_on_c, 15, 69, 0
13, 42719, Note_on_c, 15, 65, 0
13, 42719, Note_on_c, 15, 53, 0
13, 42719, Note_on_c, 15, 74, 0
13, 42720, Note_on_c, 15, 53, 76
13, 42720, Note_on_c, 15, 74, 76
13, 42720, Note_on_c, 15, 69, 76
13, 42720, Note_on_c, 15, 65, 76
13, 42959, Note_on_c, 15, 53, 0
13, 42959, Note_on_c, 15, 74, 0
13, 42959, Note_on_c, 15, 69, 0
13, 42959, Note_on_c, 15, 65, 0
13, 42960, Note_on_c, 15, 71, 76
13, 42960, Note_on_c, 15, 55, 76
13, 42960, Note_on_c, 15, 67, 76
13, 42960, Note_on_c, 15, 74, 76
13, 43199, Note_on_c, 15, 71, 0
13, 43199, Note_on_c, 15, 55, 0
13, 43199, Note_on_c, 15, 67, 0
13, 43199, Note_on_c, 15, 74, 0
13, 43200, Note_on_c, 15, 57, 76
13, 43200, Note_on_c, 15, 69, 76
13, 43200, Note_on_c, 15, 72, 76
13, 43200, Note_on_c, 15, 76, 76
13, 43439, Note_on_c, 15, 57, 0
13, 43439, Note_on_c, 15, 69, 0
13, 43439, Note_on_c, 15, 72, 0
13, 43439, Note_on_c, 15, 76, 0
13, 43440, Note_on_c, 15, 59, 76
13, 43440, Note_on_c, 15, 71, 76
13, 43440, Note_on_c, 15, 74, 76
13, 43440, Note_on_c, 15, 79, 76
13, 43679, Note_on_c, 15, 59, 0
13, 43679, Note_on_c, 15, 71, 0
13, 43679, Note_on_c, 15, 74, 0
13, 43679, Note_on_c, 15, 79, 0
13, 43680, Note_on_c, 15, 72, 76
13, 43680, Note_on_c, 15, 79, 76
13, 43680, Note_on_c, 15, 76, 76
13, 43680, Note_on_c, 15, 60, 76
13, 43919, Note_on_c, 15, 72, 0
13, 43919, Note_on_c, 15, 79, 0
13, 43919, Note_on_c, 15, 76, 0
13, 43919, Note_on_c, 15, 60, 0
13, 43920, Note_on_c, 15, 72, 76
13, 43920, Note_on_c, 15, 76, 76
13, 43920, Note_on_c, 15, 60, 76
13, 43920, Note_on_c, 15, 79, 76
13, 44159, Note_on_c, 15, 72, 0
13, 44159, Note_on_c, 15, 76, 0
13, 44159, Note_on_c, 15, 60, 0
13, 44159, Note_on_c, 15, 79, 0
13, 44160, Note_on_c, 15, 72, 76
13, 44160, Note_on_c, 15, 81, 76
13, 44160, Note_on_c, 15, 60, 76
13, 44160, Note_on_c, 15, 76, 76
13, 44399, Note_on_c, 15, 72, 0
13, 44399, Note_on_c, 15, 81, 0
13, 44399, Note_on_c, 15, 60, 0
13, 44399, Note_on_c, 15, 76, 0
13, 44400, Note_on_c, 15, 66, 76
13, 44400, Note_on_c, 15, 48, 76
13, 44400, Note_on_c, 15, 60, 76
13, 44400, Note_on_c, 15, 62, 76
13, 44639, Note_on_c, 15, 66, 0
13, 44639, Note_on_c, 15, 48, 0
13, 44639, Note_on_c, 15, 60, 0
13, 44639, Note_on_c, 15, 62, 0
13, 44640, Note_on_c, 15, 60, 76
13, 44640, Note_on_c, 15, 66, 76
13, 44640, Note_on_c, 15, 48, 76
13, 44640, Note_on_c, 15, 62, 76
13, 44879, Note_on_c, 15, 60, 0
13, 44879, Note_on_c, 15, 66, 0
13, 44879, Note_on_c, 15, 48, 0
13, 44879, Note_on_c, 15, 62, 0
13, 44880, Note_on_c, 15, 48, 76
13, 44880, Note_on_c, 15, 60, 76
13, 44880, Note_on_c, 15, 62, 76
13, 44880, Note_on_c, 15, 66, 76
13, 45119, Note_on_c, 15, 48, 0
13, 45119, Note_on_c, 15, 60, 0
13, 45119, Note_on_c, 15, 62, 0
13, 45119, Note_on_c, 15, 66, 0
13, 45120, Note_on_c, 15, 47, 76
13, 45120, Note_on_c, 15, 62, 76
13, 45120, Note_on_c, 15, 59, 76
13, 45120, Note_on_c, 15, 67, 76
13, 45359, Note_on_c, 15, 47, 0
13, 45359, Note_on_c, 15, 62, 0
13, 45359, Note_on_c, 15, 59, 0
13, 45359, Note_on_c, 15, 67, 0
13, 45360, Note_on_c, 15, 64, 76
13, 45360, Note_on_c, 15, 67, 76
13, 45360, Note_on_c, 15, 60, 76
13, 45360, Note_on_c, 15, 48, 76
13, 45360, Note_on_c, 15, 69, 76
13, 45599, Note_on_c, 15, 64, 0
13, 45599, Note_on_c, 15, 67, 0
13, 45599, Note_on_c, 15, 60, 0
13, 45599, Note_on_c, 15, 48, 0
13, 45599, Note_on_c, 15, 69, 0
13, 45600, Note_on_c, 15, 50, 76
13, 45600, Note_on_c, 15, 69, 76
13, 45600, Note_on_c, 15, 62, 76
13, 45600, Note_on_c, 15, 66, 76
13, 45839, Note_on_c, 15, 50, 0
13, 45839, Note_on_c, 15, 69, 0
13, 45839, Note_on_c, 15, 62, 0
13, 45839, Note_on_c, 15, 66, 0
13, 45840, Note_on_c, 15, 62, 76
13, 45840, Note_on_c, 15, 59, 76
13, 45840, Note_on_c, 15, 55, 76
13, 45840, Note_on_c, 15, 43, 76
13, 46319, Note_on_c, 15, 62, 0
13, 46319, Note_on_c, 15, 59, 0
13, 46319, Note_on_c, 15, 55, 0
13, 46319, Note_on_c, 15, 43, 0
13, 46560, Note_on_c, 15, 60, 76
13, 46560, Note_on_c, 15, 72, 76
13, 46560, Note_on_c, 15, 76, 76
13, 46560, Note_on_c, 15, 79, 76
13, 46799, Note_on_c, 15, 60, 0
13, 46799, Note_on_c, 15, 72, 0
13, 46799, Note_on_c, 15, 76, 0
13, 46799, Note_on_c, 15, 79, 0
13, 46800, Note_on_c, 15, 76, 76
13, 46800, Note_on_c, 15, 79, 76
13, 46800, Note_on_c, 15, 60, 76
13, 46800, Note_on_c, 15, 72, 76
13, 47039, Note_on_c, 15, 76, 0
13, 47039, Note_on_c, 15, 79, 0
13, 47039, Note_on_c, 15, 60, 0
13, 47039, Note_on_c, 15, 72, 0
13, 47040, Note_on_c, 15, 79, 76
13, 47040, Note_on_c, 15, 72, 76
13, 47040, Note_on_c, 15, 76, 76
13, 47040, Note_on_c, 15, 60, 76
13, 47279, Note_on_c, 15, 79, 0
13, 47279, Note_on_c, 15, 72, 0
13, 47279, Note_on_c, 15, 76, 0
13, 47279, Note_on_c, 15, 60, 0
13, 47280, Note_on_c, 15, 76, 76
13, 47280, Note_on_c, 15, 72, 76
13, 47280, Note_on_c, 15, 57, 76
13, 47280, Note_on_c, 15, 69, 76
13, 47519, Note_on_c, 15, 76, 0
13, 47519, Note_on_c, 15, 72, 0
13, 47519, Note_on_c, 15, 57, 0
13, 47519, Note_on_c, 15, 69, 0
13, 47520, Note_on_c, 15, 72, 76
13, 47520, Note_on_c, 15, 76, 76
13, 47520, Note_on_c, 15, 57, 76
13, 47520, Note_on_c, 15, 69, 76
13, 47759, Note_on_c, 15, 72, 0
13, 47759, Note_on_c, 15, 76, 0
13, 47759, Note_on_c, 15, 57, 0
13, 47759, Note_on_c, 15, 69, 0
13, 47760, Note_on_c, 15, 69, 76
13, 47760, Note_on_c, 15, 57, 76
13, 47760, Note_on_c, 15, 76, 76
13, 47760, Note_on_c, 15, 72, 76
13, 47999, Note_on_c, 15, 69, 0
13, 47999, Note_on_c, 15, 57, 0
13, 47999, Note_on_c, 15, 76, 0
13, 47999, Note_on_c, 15, 72, 0
13, 48000, Note_on_c, 15, 53, 76
13, 48000, Note_on_c, 15, 69, 76
13, 48000, Note_on_c, 15, 65, 76
13, 48000, Note_on_c, 15, 74, 76
13, 48239, Note_on_c, 15, 53, 0
13, 48239, Note_on_c, 15, 69, 0
13, 48239, Note_on_c, 15, 65, 0
13, 48239, Note_on_c, 15, 74, 0
13, 48240, Note_on_c, 15, 69, 76
13, 48240, Note_on_c, 15, 65, 76
13, 48240, Note_on_c, 15, 53, 76
13, 48240, Note_on_c, 15, 74, 76
13, 48479, Note_on_c, 15, 69, 0
13, 48479, Note_on_c, 15, 65, 0
13, 48479, Note_on_c, 15, 53, 0
13, 48479, Note_on_c, 15, 74, 0
13, 48480, Note_on_c, 15, 69, 76
13, 48480, Note_on_c, 15, 74, 76
13, 48480, Note_on_c, 15, 65, 76
13, 48480, Note_on_c, 15, 53, 76
13, 48719, Note_on_c, 15, 69, 0
13, 48719, Note_on_c, 15, 74, 0
13, 48719, Note_on_c, 15, 65, 0
13, 48719, Note_on_c, 15, 53, 0
13, 48720, Note_on_c, 15, 71, 76
13, 48720, Note_on_c, 15, 67, 76
13, 48720, Note_on_c, 15, 55, 76
13, 48720, Note_on_c, 15, 74, 76
13, 48959, Note_on_c, 15, 71, 0
13, 48959, Note_on_c, 15, 67, 0
13, 48959, Note_on_c, 15, 55, 0
13, 48959, Note_on_c, 15, 74, 0
13, 48960, Note_on_c, 15, 57, 76
13, 48960, Note_on_c, 15, 72, 76
13, 48960, Note_on_c, 15, 76, 76
13, 48960, Note_on_c, 15, 69, 76
13, 49199, Note_on_c, 15, 57, 0
13, 49199, Note_on_c, 15, 72, 0
13, 49199, Note_on_c, 15, 76, 0
13, 49199, Note_on_c, 15, 69, 0
13, 49200, Note_on_c, 15, 74, 76
13, 49200, Note_on_c, 15, 79, 76
13, 49200, Note_on_c, 15, 59, 76
13, 49200, Note_on_c, 15, 71, 76
13, 49439, Note_on_c, 15, 74, 0
13, 49439, Note_on_c, 15, 79, 0
13, 49439, Note_on_c, 15, 59, 0
13, 49439, Note_on_c, 15, 71, 0
13, 49440, Note_on_c, 15, 72, 76
13, 49440, Note_on_c, 15, 76, 76
13, 49440, Note_on_c, 15, 60, 76
13, 49440, Note_on_c, 15, 79, 76
13, 49679, Note_on_c, 15, 72, 0
13, 49679, Note_on_c, 15, 76, 0
13, 49679, Note_on_c, 15, 60, 0
13, 49679, Note_on_c, 15, 79, 0
13, 49680, Note_on_c, 15, 72, 76
13, 49680, Note_on_c, 15, 76, 76
13, 49680, Note_on_c, 15, 79, 76
13, 49680, Note_on_c, 15, 60, 76
13, 49919, Note_on_c, 15, 72, 0
13, 49919, Note_on_c, 15, 76, 0
13, 49919, Note_on_c, 15, 79, 0
13, 49919, Note_on_c, 15, 60, 0
13, 49920, Note_on_c, 15, 60, 76
13, 49920, Note_on_c, 15, 76, 76
13, 49920, Note_on_c, 15, 81, 76
13, 49920, Note_on_c, 15, 72, 76
13, 50159, Note_on_c, 15, 60, 0
13, 50159, Note_on_c, 15, 76, 0
13, 50159, Note_on_c, 15, 81, 0
13, 50159, Note_on_c, 15, 72, 0
13, 50160, Note_on_c, 15, 66, 76
13, 50160, Note_on_c, 15, 60, 76
13, 50160, Note_on_c, 15, 48, 76
13, 50160, Note_on_c, 15, 62, 76
13, 50399, Note_on_c, 15, 66, 0
13, 50399, Note_on_c, 15, 60, 0
13, 50399, Note_on_c, 15, 48, 0
13, 50399, Note_on_c, 15, 62, 0
13, 50400, Note_on_c, 15, 62, 76
13, 50400, Note_on_c, 15, 60, 76
13, 50400, Note_on_c, 15, 48, 76
13, 50400, Note_on_c, 15, 66, 76
13, 50639, Note_on_c, 15, 62, 0
13, 50639, Note_on_c, 15, 60, 0
13, 50639, Note_on_c, 15, 48, 0
13, 50639, Note_on_c, 15, 66, 0
13, 50640, Note_on_c, 15, 66, 76
13, 50640, Note_on_c, 15, 48, 76
13, 50640, Note_on_c, 15, 62, 76
13, 50640, Note_on_c, 15, 60, 76
13, 50879, Note_on_c, 15, 66, 0
13, 50879, Note_on_c, 15, 48, 0
13, 50879, Note_on_c, 15, 62, 0
13, 50879, Note_on_c, 15, 60, 0
13, 50880, Note_on_c, 15, 62, 76
13, 50880, Note_on_c, 15, 59, 76
13, 50880, Note_on_c, 15, 47, 76
13, 50880, Note_on_c, 15, 67, 76
13, 51119, Note_on_c, 15, 62, 0
13, 51119, Note_on_c, 15, 59, 0
13, 51119, Note_on_c, 15, 47, 0
13, 51119, Note_on_c, 15, 67, 0
13, 51120, Note_on_c, 15, 69, 76
13, 51120, Note_on_c, 15, 60, 76
13, 51120, Note_on_c, 15, 67, 76
13, 51120, Note_on_c, 15, 64, 76
13, 51120, Note_on_c, 15, 48, 76
13, 51359, Note_on_c, 15, 69, 0
13, 51359, Note_on_c, 15, 60, 0
13, 51359, Note_on_c, 15, 67, 0
13, 51359, Note_on_c, 15, 64, 0
13, 51359, Note_on_c, 15, 48, 0
13, 51360, Note_on_c, 15, 62, 76
13, 51360, Note_on_c, 15, 50, 76
13, 51360, Note_on_c, 15, 66, 76
13, 51360, Note_on_c, 15, 69, 76
13, 51599, Note_on_c, 15, 62, 0
13, 51599, Note_on_c, 15, 50, 0
13, 51599, Note_on_c, 15, 66, 0
13, 51599, Note_on_c, 15, 69, 0
13, 51600, Note_on_c, 15, 59, 76
13, 51600, Note_on_c, 15, 55, 76
13, 51600, Note_on_c, 15, 43, 76
13, 51600, Note_on_c, 15, 62, 76
13, 52079, Note_on_c, 15, 59, 0
13, 52079, Note_on_c, 15, 55, 0
13, 52079, Note_on_c, 15, 43, 0
13, 52079, Note_on_c, 15, 62, 0
13, 52320, Note_on_c, 15, 59, 76
13, 52320, Note_on_c, 15, 62, 76
13, 52320, Note_on_c, 15, 43, 76
13, 52320, Note_on_c, 15, 55, 76
13, 52559, Note_on_c, 15, 59, 0
13, 52559, Note_on_c, 15, 62, 0
13, 52559, Note_on_c, 15, 43, 0
13, 52559, Note_on_c, 15, 55, 0
13, 52560, Note_on_c, 15, 43, 76
13, 52560, Note_on_c, 15, 59, 76
13, 52560, Note_on_c, 15, 62, 76
13, 52560, Note_on_c, 15, 55, 76
13, 52799, Note_on_c, 15, 43, 0
13, 52799, Note_on_c, 15, 59, 0
13, 52799, Note_on_c, 15, 62, 0
13, 52799, Note_on_c, 15, 55, 0
13, 52800, Note_on_c, 15, 62, 76
13, 52800, Note_on_c, 15, 43, 76
13, 52800, Note_on_c, 15, 55, 76
13, 52800, Note_on_c, 15, 59, 76
13, 53039, Note_on_c, 15, 62, 0
13, 53039, Note_on_c, 15, 43, 0
13, 53039, Note_on_c, 15, 55, 0
13, 53039, Note_on_c, 15, 59, 0
13, 53040, Note_on_c, 15, 73, 76
13, 53040, Note_on_c, 15, 55, 76
13, 53040, Note_on_c, 15, 67, 76
13, 53040, Note_on_c, 15, 76, 76
13, 53279, Note_on_c, 15, 73, 0
13, 53279, Note_on_c, 15, 55, 0
13, 53279, Note_on_c, 15, 67, 0
13, 53279, Note_on_c, 15, 76, 0
13, 53280, Note_on_c, 15, 55, 76
13, 53280, Note_on_c, 15, 76, 76
13, 53280, Note_on_c, 15, 67, 76
13, 53280, Note_on_c, 15, 73, 76
13, 53519, Note_on_c, 15, 55, 0
13, 53519, Note_on_c, 15, 76, 0
13, 53519, Note_on_c, 15, 67, 0
13, 53519, Note_on_c, 15, 73, 0
13, 53520, Note_on_c, 15, 67, 76
13, 53520, Note_on_c, 15, 76, 76
13, 53520, Note_on_c, 15, 73, 76
13, 53520, Note_on_c, 15, 55, 76
13, 53759, Note_on_c, 15, 67, 0
13, 53759, Note_on_c, 15, 76, 0
13, 53759, Note_on_c, 15, 73, 0
13, 53759, Note_on_c, 15, 55, 0
13, 53760, Note_on_c, 15, 64, 76
13, 53760, Note_on_c, 15, 70, 76
13, 53760, Note_on_c, 15, 49, 76
13, 53760, Note_on_c, 15, 67, 76
13, 53760, Note_on_c, 15, 61, 76
13, 53999, Note_on_c, 15, 64, 0
13, 53999, Note_on_c, 15, 70, 0
13, 53999, Note_on_c, 15, 49, 0
13, 53999, Note_on_c, 15, 67, 0
13, 53999, Note_on_c, 15, 61, 0
13, 54000, Note_on_c, 15, 69, 76
13, 54000, Note_on_c, 15, 61, 76
13, 54000, Note_on_c, 15, 64, 76
13, 54000, Note_on_c, 15, 49, 76
13, 54239, Note_on_c, 15, 69, 0
13, 54239, Note_on_c, 15, 61, 0
13, 54239, Note_on_c, 15, 64, 0
13, 54239, Note_on_c, 15, 49, 0
13, 54240, Note_on_c, 15, 67, 76
13, 54240, Note_on_c, 15, 64, 76
13, 54240, Note_on_c, 15, 49, 76
13, 54240, Note_on_c, 15, 61, 76
13, 54479, Note_on_c, 15, 67, 0
13, 54479, Note_on_c, 15, 64, 0
13, 54479, Note_on_c, 15, 49, 0
13, 54479, Note_on_c, 15, 61, 0
13, 54480, Note_on_c, 15, 62, 76
13, 54480, Note_on_c, 15, 65, 76
13, 54480, Note_on_c, 15, 50, 76
13, 54480, Note_on_c, 15, 69, 76
13, 54719, Note_on_c, 15, 62, 0
13, 54719, Note_on_c, 15, 65, 0
13, 54719, Note_on_c, 15, 50, 0
13, 54719, Note_on_c, 15, 69, 0
13, 54720, Note_on_c, 15, 67, 76
13, 54720, Note_on_c, 15, 64, 76
13, 54720, Note_on_c, 15, 60, 76
13, 54720, Note_on_c, 15, 48, 76
13, 54959, Note_on_c, 15, 67, 0
13, 54959, Note_on_c, 15, 64, 0
13, 54959, Note_on_c, 15, 60, 0
13, 54959, Note_on_c, 15, 48, 0
13, 54960, Note_on_c, 15, 58, 76
13, 54960, Note_on_c, 15, 62, 76
13, 54960, Note_on_c, 15, 46, 76
13, 54960, Note_on_c, 15, 67, 76
13, 55199, Note_on_c, 15, 58, 0
13, 55199, Note_on_c, 15, 62, 0
13, 55199, Note_on_c, 15, 46, 0
13, 55199, Note_on_c, 15, 67, 0
13, 55200, Note_on_c, 15, 45, 76
13, 55200, Note_on_c, 15, 57, 76
13, 55200, Note_on_c, 15, 61, 76
13, 55200, Note_on_c, 15, 64, 76
13, 55439, Note_on_c, 15, 45, 0
13, 55439, Note_on_c, 15, 57, 0
13, 55439, Note_on_c, 15, 61, 0
13, 55439, Note_on_c, 15, 64, 0
13, 55440, Note_on_c, 15, 57, 76
13, 55440, Note_on_c, 15, 45, 76
13, 55440, Note_on_c, 15, 64, 76
13, 55440, Note_on_c, 15, 61, 76
13, 55679, Note_on_c, 15, 57, 0
13, 55679, Note_on_c, 15, 45, 0
13, 55679, Note_on_c, 15, 64, 0
13, 55679, Note_on_c, 15, 61, 0
13, 55680, Note_on_c, 15, 45, 76
13, 55680, Note_on_c, 15, 62, 76
13, 55680, Note_on_c, 15, 65, 76
13, 55680, Note_on_c, 15, 57, 76
13, 55919, Note_on_c, 15, 45, 0
13, 55919, Note_on_c, 15, 62, 0
13, 55919, Note_on_c, 15, 65, 0
13, 55919, Note_on_c, 15, 57, 0
13, 55920, Note_on_c, 15, 76, 76
13, 55920, Note_on_c, 15, 55, 76
13, 55920, Note_on_c, 15, 73, 76
13, 55920, Note_on_c, 15, 67, 76
13, 56159, Note_on_c, 15, 76, 0
13, 56159, Note_on_c, 15, 55, 0
13, 56159, Note_on_c, 15, 73, 0
13, 56159, Note_on_c, 15, 67, 0
13, 56160, Note_on_c, 15, 67, 76
13, 56160, Note_on_c, 15, 73, 76
13, 56160, Note_on_c, 15, 55, 76
13, 56160, Note_on_c, 15, 76, 76
13, 56399, Note_on_c, 15, 67, 0
13, 56399, Note_on_c, 15, 73, 0
13, 56399, Note_on_c, 15, 55, 0
13, 56399, Note_on_c, 15, 76, 0
13, 56400, Note_on_c, 15, 76, 76
13, 56400, Note_on_c, 15, 55, 76
13, 56400, Note_on_c, 15, 67, 76
13, 56400, Note_on_c, 15, 73, 76
13, 56639, Note_on_c, 15, 76, 0
13, 56639, Note_on_c, 15, 55, 0
13, 56639, Note_on_c, 15, 67, 0
13, 56639, Note_on_c, 15, 73, 0
13, 56640, Note_on_c, 15, 64, 76
13, 56640, Note_on_c, 15, 67, 76
13, 56640, Note_on_c, 15, 52, 76
13, 56640, Note_on_c, 15, 73, 76
13, 56879, Note_on_c, 15, 64, 0
13, 56879, Note_on_c, 15, 67, 0
13, 56879, Note_on_c, 15, 52, 0
13, 56879, Note_on_c, 15, 73, 0
13, 56880, Note_on_c, 15, 73, 76
13, 56880, Note_on_c, 15, 64, 76
13, 56880, Note_on_c, 15, 52, 76
13, 56880, Note_on_c, 15, 67, 76
13, 57119, Note_on_c, 15, 73, 0
13, 57119, Note_on_c, 15, 64, 0
13, 57119, Note_on_c, 15, 52, 0
13, 57119, Note_on_c, 15, 67, 0
13, 57120, Note_on_c, 15, 67, 76
13, 57120, Note_on_c, 15, 73, 76
13, 57120, Note_on_c, 15, 64, 76
13, 57120, Note_on_c, 15, 52, 76
13, 57359, Note_on_c, 15, 67, 0
13, 57359, Note_on_c, 15, 73, 0
13, 57359, Note_on_c, 15, 64, 0
13, 57359, Note_on_c, 15, 52, 0
13, 57360, Note_on_c, 15, 64, 76
13, 57360, Note_on_c, 15, 69, 76
13, 57360, Note_on_c, 15, 67, 76
13, 57360, Note_on_c, 15, 61, 76
13, 57360, Note_on_c, 15, 49, 76
13, 57599, Note_on_c, 15, 64, 0
13, 57599, Note_on_c, 15, 69, 0
13, 57599, Note_on_c, 15, 67, 0
13, 57599, Note_on_c, 15, 61, 0
13, 57599, Note_on_c, 15, 49, 0
13, 57600, Note_on_c, 15, 59, 76
13, 57600, Note_on_c, 15, 62, 76
13, 57600, Note_on_c, 15, 47, 76
13, 57600, Note_on_c, 15, 65, 76
13, 57839, Note_on_c, 15, 59, 0
13, 57839, Note_on_c, 15, 62, 0
13, 57839, Note_on_c, 15, 47, 0
13, 57839, Note_on_c, 15, 65, 0
13, 57840, Note_on_c, 15, 61, 76
13, 57840, Note_on_c, 15, 57, 76
13, 57840, Note_on_c, 15, 64, 76
13, 57840, Note_on_c, 15, 45, 76
13, 58079, Note_on_c, 15, 61, 0
13, 58079, Note_on_c, 15, 57, 0
13, 58079, Note_on_c, 15, 64, 0
13, 58079, Note_on_c, 15, 45, 0
13, 58080, Note_on_c, 15, 65, 76
13, 58080, Note_on_c, 15, 69, 76
13, 58080, Note_on_c, 15, 62, 76
13, 58080, Note_on_c, 15, 50, 76
13, 58319, Note_on_c, 15, 65, 0
13, 58319, Note_on_c, 15, 69, 0
13, 58319, Note_on_c, 15, 62, 0
13, 58319, Note_on_c, 15, 50, 0
13, 58320, Note_on_c, 15, 67, 76
13, 58320, Note_on_c, 15, 71, 76
13, 58320, Note_on_c, 15, 52, 76
13, 58320, Note_on_c, 15, 64, 76
13, 58559, Note_on_c, 15, 67, 0
13, 58559, Note_on_c, 15, 71, 0
13, 58559, Note_on_c, 15, 52, 0
13, 58559, Note_on_c, 15, 64, 0
13, 58560, Note_on_c, 15, 65, 76
13, 58560, Note_on_c, 15, 69, 76
13, 58560, Note_on_c, 15, 72, 76
13, 58560, Note_on_c, 15, 53, 76
13, 58799, Note_on_c, 15, 65, 0
13, 58799, Note_on_c, 15, 69, 0
13, 58799, Note_on_c, 15, 72, 0
13, 58799, Note_on_c, 15, 53, 0
13, 58800, Note_on_c, 15, 55, 76
13, 58800, Note_on_c, 15, 74, 76
13, 58800, Note_on_c, 15, 77, 76
13, 58800, Note_on_c, 15, 67, 76
13, 58800, Note_on_c, 15, 70, 76
13, 59039, Note_on_c, 15, 55, 0
13, 59039, Note_on_c, 15, 74, 0
13, 59039, Note_on_c, 15, 77, 0
13, 59039, Note_on_c, 15, 67, 0
13, 59039, Note_on_c, 15, 70, 0
13, 59040, Note_on_c, 15, 55, 76
13, 59040, Note_on_c, 15, 74, 76
13, 59040, Note_on_c, 15, 67, 76
13, 59040, Note_on_c, 15, 70, 76
13, 59040, Note_on_c, 15, 77, 76
13, 59279, Note_on_c, 15, 55, 0
13, 59279, Note_on_c, 15, 74, 0
13, 59279, Note_on_c, 15, 67, 0
13, 59279, Note_on_c, 15, 70, 0
13, 59279, Note_on_c, 15, 77, 0
13, 59280, Note_on_c, 15, 74, 76
13, 59280, Note_on_c, 15, 70, 76
13, 59280, Note_on_c, 15, 67, 76
13, 59280, Note_on_c, 15, 55, 76
13, 59280, Note_on_c, 15, 77, 76
13, 59519, Note_on_c, 15, 74, 0
13, 59519, Note_on_c, 15, 70, 0
13, 59519, Note_on_c, 15, 67, 0
13, 59519, Note_on_c, 15, 55, 0
13, 59519, Note_on_c, 15, 77, 0
13, 59520, Note_on_c, 15, 74, 76
13, 59520, Note_on_c, 15, 69, 76
13, 59520, Note_on_c, 15, 77, 76
13, 59520, Note_on_c, 15, 57, 76
13, 59759, Note_on_c, 15, 74, 0
13, 59759, Note_on_c, 15, 69, 0
13, 59759, Note_on_c, 15, 77, 0
13, 59759, Note_on_c, 15, 57, 0
13, 59760, Note_on_c, 15, 57, 76
13, 59760, Note_on_c, 15, 74, 76
13, 59760, Note_on_c, 15, 69, 76
13, 59760, Note_on_c, 15, 77, 76
13, 59999, Note_on_c, 15, 57, 0
13, 59999, Note_on_c, 15, 74, 0
13, 59999, Note_on_c, 15, 69, 0
13, 59999, Note_on_c, 15, 77, 0
13, 60000, Note_on_c, 15, 57, 76
13, 60000, Note_on_c, 15, 73, 76
13, 60000, Note_on_c, 15, 76, 76
13, 60000, Note_on_c, 15, 69, 76
13, 60239, Note_on_c, 15, 57, 0
13, 60239, Note_on_c, 15, 73, 0
13, 60239, Note_on_c, 15, 76, 0
13, 60239, Note_on_c, 15, 69, 0
13, 60240, Note_on_c, 15, 65, 76
13, 60240, Note_on_c, 15, 69, 76
13, 60240, Note_on_c, 15, 62, 76
13, 60240, Note_on_c, 15, 50, 76
13, 60479, Note_on_c, 15, 65, 0
13, 60479, Note_on_c, 15, 69, 0
13, 60479, Note_on_c, 15, 62, 0
13, 60479, Note_on_c, 15, 50, 0
13, 60480, Note_on_c, 15, 53, 76
13, 60480, Note_on_c, 15, 72, 76
13, 60480, Note_on_c, 15, 65, 76
13, 60480, Note_on_c, 15, 69, 76
13, 60719, Note_on_c, 15, 53, 0
13, 60719, Note_on_c, 15, 72, 0
13, 60719, Note_on_c, 15, 65, 0
13, 60719, Note_on_c, 15, 69, 0
13, 60720, Note_on_c, 15, 76, 76
13, 60720, Note_on_c, 15, 69, 76
13, 60720, Note_on_c, 15, 57, 76
13, 60720, Note_on_c, 15, 72, 76
13, 60959, Note_on_c, 15, 76, 0
13, 60959, Note_on_c, 15, 69, 0
13, 60959, Note_on_c, 15, 57, 0
13, 60959, Note_on_c, 15, 72, 0
13, 60960, Note_on_c, 15, 72, 76
13, 60960, Note_on_c, 15, 66, 76
13, 60960, Note_on_c, 15, 54, 76
13, 60960, Note_on_c, 15, 69, 76
13, 60960, Note_on_c, 15, 74, 76
13, 61199, Note_on_c, 15, 72, 0
13, 61199, Note_on_c, 15, 66, 0
13, 61199, Note_on_c, 15, 54, 0
13, 61199, Note_on_c, 15, 69, 0
13, 61199, Note_on_c, 15, 74, 0
13, 61200, Note_on_c, 15, 69, 76
13, 61200, Note_on_c, 15, 74, 76
13, 61200, Note_on_c, 15, 66, 76
13, 61200, Note_on_c, 15, 54, 76
13, 61200, Note_on_c, 15, 72, 76
13, 61439, Note_on_c, 15, 69, 0
13, 61439, Note_on_c, 15, 74, 0
13, 61439, Note_on_c, 15, 66, 0
13, 61439, Note_on_c, 15, 54, 0
13, 61439, Note_on_c, 15, 72, 0
13, 61440, Note_on_c, 15, 74, 76
13, 61440, Note_on_c, 15, 69, 76
13, 61440, Note_on_c, 15, 66, 76
13, 61440, Note_on_c, 15, 72, 76
13, 61440, Note_on_c, 15, 54, 76
13, 61679, Note_on_c, 15, 74, 0
13, 61679, Note_on_c, 15, 69, 0
13, 61679, Note_on_c, 15, 66, 0
13, 61679, Note_on_c, 15, 72, 0
13, 61679, Note_on_c, 15, 54, 0
13, 61680, Note_on_c, 15, 71, 76
13, 61680, Note_on_c, 15, 53, 76
13, 61680, Note_on_c, 15, 65, 76
13, 61680, Note_on_c, 15, 67, 76
13, 61680, Note_on_c, 15, 74, 76
13, 61919, Note_on_c, 15, 71, 0
13, 61919, Note_on_c, 15, 53, 0
13, 61919, Note_on_c, 15, 65, 0
13, 61919, Note_on_c, 15, 67, 0
13, 61919, Note_on_c, 15, 74, 0
13, 61920, Note_on_c, 15, 74, 76
13, 61920, Note_on_c, 15, 53, 76
13, 61920, Note_on_c, 15, 67, 76
13, 61920, Note_on_c, 15, 71, 76
13, 61920, Note_on_c, 15, 65, 76
13, 62159, Note_on_c, 15, 74, 0
13, 62159, Note_on_c, 15, 53, 0
13, 62159, Note_on_c, 15, 67, 0
13, 62159, Note_on_c, 15, 71, 0
13, 62159, Note_on_c, 15, 65, 0
13, 62160, Note_on_c, 15, 67, 76
13, 62160, Note_on_c, 15, 71, 76
13, 62160, Note_on_c, 15, 74, 76
13, 62160, Note_on_c, 15, 53, 76
13, 62160, Note_on_c, 15, 65, 76
13, 62399, Note_on_c, 15, 67, 0
13, 62399, Note_on_c, 15, 71, 0
13, 62399, Note_on_c, 15, 74, 0
13, 62399, Note_on_c, 15, 53, 0
13, 62399, Note_on_c, 15, 65, 0
13, 62400, Note_on_c, 15, 47, 76
13, 62400, Note_on_c, 15, 65, 76
13, 62400, Note_on_c, 15, 67, 76
13, 62400, Note_on_c, 15, 62, 76
13, 62400, Note_on_c, 15, 59, 76
13, 62639, Note_on_c, 15, 47, 0
13, 62639, Note_on_c, 15, 65, 0
13, 62639, Note_on_c, 15, 67, 0
13, 62639, Note_on_c, 15, 62, 0
13, 62639, Note_on_c, 15, 59, 0
13, 62640, Note_on_c, 15, 59, 76
13, 62640, Note_on_c, 15, 47, 76
13, 62640, Note_on_c, 15, 67, 76
13, 62640, Note_on_c, 15, 62, 76
13, 62640, Note_on_c, 15, 65, 76
13, 62879, Note_on_c, 15, 59, 0
13, 62879, Note_on_c, 15, 47, 0
13, 62879, Note_on_c, 15, 67, 0
13, 62879, Note_on_c, 15, 62, 0
13, 62879, Note_on_c, 15, 65, 0
13, 62880, Note_on_c, 15, 64, 76
13, 62880, Note_on_c, 15, 67, 76
13, 62880, Note_on_c, 15, 48, 76
13, 62880, Note_on_c, 15, 60, 76
13, 63119, Note_on_c, 15, 64, 0
13, 63119, Note_on_c, 15, 67, 0
13, 63119, Note_on_c, 15, 48, 0
13, 63119, Note_on_c, 15, 60, 0
13, 63120, Note_on_c, 15, 71, 76
13, 63120, Note_on_c, 15, 67, 76
13, 63120, Note_on_c, 15, 74, 76
13, 63120, Note_on_c, 15, 55, 76
13, 63359, Note_on_c, 15, 71, 0
13, 63359, Note_on_c, 15, 67, 0
13, 63359, Note_on_c, 15, 74, 0
13, 63359, Note_on_c, 15, 55, 0
13, 63360, Note_on_c, 15, 65, 76
13, 63360, Note_on_c, 15, 69, 76
13, 63360, Note_on_c, 15, 53, 76
13, 63360, Note_on_c, 15, 72, 76
13, 63599, Note_on_c, 15, 65, 0
13, 63599, Note_on_c, 15, 69, 0
13, 63599, Note_on_c, 15, 53, 0
13, 63599, Note_on_c, 15, 72, 0
13, 63600, Note_on_c, 15, 72, 76
13, 63600, Note_on_c, 15, 67, 76
13, 63600, Note_on_c, 15, 64, 76
13, 63600, Note_on_c, 15, 52, 76
13, 63839, Note_on_c, 15, 72, 0
13, 63839, Note_on_c, 15, 67, 0
13, 63839, Note_on_c, 15, 64, 0
13, 63839, Note_on_c, 15, 52, 0
13, 63840, Note_on_c, 15, 50, 76
13, 63840, Note_on_c, 15, 65, 76
13, 63840, Note_on_c, 15, 69, 76
13, 63840, Note_on_c, 15, 62, 76
13, 64079, Note_on_c, 15, 50, 0
13, 64079, Note_on_c, 15, 65, 0
13, 64079, Note_on_c, 15, 69, 0
13, 64079, Note_on_c, 15, 62, 0
13, 64080, Note_on_c, 15, 60, 76
13, 64080, Note_on_c, 15, 48, 76
13, 64080, Note_on_c, 15, 67, 76
13, 64080, Note_on_c, 15, 64, 76
13, 64319, Note_on_c, 15, 60, 0
13, 64319, Note_on_c, 15, 48, 0
13, 64319, Note_on_c, 15, 67, 0
13, 64319, Note_on_c, 15, 64, 0
13, 64320, Note_on_c, 15, 64, 76
13, 64320, Note_on_c, 15, 67, 76
13, 64320, Note_on_c, 15, 60, 76
13, 64320, Note_on_c, 15, 58, 76
13, 64320, Note_on_c, 15, 46, 76
13, 64559, Note_on_c, 15, 64, 0
13, 64559, Note_on_c, 15, 67, 0
13, 64559, Note_on_c, 15, 60, 0
13, 64559, Note_on_c, 15, 58, 0
13, 64559, Note_on_c, 15, 46, 0
13, 64560, Note_on_c, 15, 60, 76
13, 64560, Note_on_c, 15, 55, 76
13, 64560, Note_on_c, 15, 52, 76
13, 64560, Note_on_c, 15, 58, 76
13, 64560, Note_on_c, 15, 40, 76
13, 64799, Note_on_c, 15, 60, 0
13, 64799, Note_on_c, 15, 55, 0
13, 64799, Note_on_c, 15, 52, 0
13, 64799, Note_on_c, 15, 58, 0
13, 64799, Note_on_c, 15, 40, 0
13, 64800, Note_on_c, 15, 58, 76
13, 64800, Note_on_c, 15, 40, 76
13, 64800, Note_on_c, 15, 52, 76
13, 64800, Note_on_c, 15, 55, 76
13, 64800, Note_on_c, 15, 60, 76
13, 65039, Note_on_c, 15, 58, 0
13, 65039, Note_on_c, 15, 40, 0
13, 65039, Note_on_c, 15, 52, 0
13, 65039, Note_on_c, 15, 55, 0
13, 65039, Note_on_c, 15, 60, 0
13, 65040, Note_on_c, 15, 40, 76
13, 65040, Note_on_c, 15, 52, 76
13, 65040, Note_on_c, 15, 55, 76
13, 65040, Note_on_c, 15, 58, 76
13, 65040, Note_on_c, 15, 60, 76
13, 65279, Note_on_c, 15, 40, 0
13, 65279, Note_on_c, 15, 52, 0
13, 65279, Note_on_c, 15, 55, 0
13, 65279, Note_on_c, 15, 58, 0
13, 65279, Note_on_c, 15, 60, 0
13, 65280, Note_on_c, 15, 41, 76
13, 65280, Note_on_c, 15, 53, 76
13, 65280, Note_on_c, 15, 57, 76
13, 65280, Note_on_c, 15, 60, 76
13, 65519, Note_on_c, 15, 41, 0
13, 65519, Note_on_c, 15, 53, 0
13, 65519, Note_on_c, 15, 57, 0
13, 65519, Note_on_c, 15, 60, 0
13, 65520, Note_on_c, 15, 50, 76
13, 65520, Note_on_c, 15, 57, 76
13, 65520, Note_on_c, 15, 53, 76
13, 65520, Note_on_c, 15, 38, 76
13, 65759, Note_on_c, 15, 50, 0
13, 65759, Note_on_c, 15, 57, 0
13, 65759, Note_on_c, 15, 53, 0
13, 65759, Note_on_c, 15, 38, 0
13, 65760, Note_on_c, 15, 43, 76
13, 65760, Note_on_c, 15, 62, 76
13, 65760, Note_on_c, 15, 55, 76
13, 65760, Note_on_c, 15, 59, 76
13, 65999, Note_on_c, 15, 43, 0
13, 65999, Note_on_c, 15, 62, 0
13, 65999, Note_on_c, 15, 55, 0
13, 65999, Note_on_c, 15, 59, 0
13, 66000, Note_on_c, 15, 55, 76
13, 66000, Note_on_c, 15, 52, 76
13, 66000, Note_on_c, 15, 36, 76
13, 66000, Note_on_c, 15, 48, 76
13, 66479, Note_on_c, 15, 55, 0
13, 66479, Note_on_c, 15, 52, 0
13, 66479, Note_on_c, 15, 36, 0
13, 66479, Note_on_c, 15, 48, 0
13, 66720, Note_on_c, 15, 43, 76
13, 66720, Note_on_c, 15, 62, 76
13, 66720, Note_on_c, 15, 55, 76
13, 66720, Note_on_c, 15, 59, 76
13, 66959, Note_on_c, 15, 43, 0
13, 66959, Note_on_c, 15, 62, 0
13, 66959, Note_on_c, 15, 55, 0
13, 66959, Note_on_c, 15, 59, 0
13, 66960, Note_on_c, 15, 59, 76
13, 66960, Note_on_c, 15, 62, 76
13, 66960, Note_on_c, 15, 55, 76
13, 66960, Note_on_c, 15, 43, 76
13, 67199, Note_on_c, 15, 59, 0
13, 67199, Note_on_c, 15, 62, 0
13, 67199, Note_on_c, 15, 55, 0
13, 67199, Note_on_c, 15, 43, 0
13, 67200, Note_on_c, 15, 55, 76
13, 67200, Note_on_c, 15, 62, 76
13, 67200, Note_on_c, 15, 43, 76
13, 67200, Note_on_c, 15, 59, 76
13, 67439, Note_on_c, 15, 55, 0
13, 67439, Note_on_c, 15, 62, 0
13, 67439, Note_on_c, 15, 43, 0
13, 67439, Note_on_c, 15, 59, 0
13, 67440, Note_on_c, 15, 67, 76
13, 67440, Note_on_c, 15, 73, 76
13, 67440, Note_on_c, 15, 76, 76
13, 67440, Note_on_c, 15, 55, 76
13, 67679, Note_on_c, 15, 67, 0
13, 67679, Note_on_c, 15, 73, 0
13, 67679, Note_on_c, 15, 76, 0
13, 67679, Note_on_c, 15, 55, 0
13, 67680, Note_on_c, 15, 55, 76
13, 67680, Note_on_c, 15, 73, 76
13, 67680, Note_on_c, 15, 67, 76
13, 67680, Note_on_c, 15, 76, 76
13, 67919, Note_on_c, 15, 55, 0
13, 67919, Note_on_c, 15, 73, 0
13, 67919, Note_on_c, 15, 67, 0
13, 67919, Note_on_c, 15, 76, 0
13, 67920, Note_on_c, 15, 67, 76
13, 67920, Note_on_c, 15, 73, 76
13, 67920, Note_on_c, 15, 76, 76
13, 67920, Note_on_c, 15, 55, 76
13, 68159, Note_on_c, 15, 67, 0
13, 68159, Note_on_c, 15, 73, 0
13, 68159, Note_on_c, 15, 76, 0
13, 68159, Note_on_c, 15, 55, 0
13, 68160, Note_on_c, 15, 67, 76
13, 68160, Note_on_c, 15, 64, 76
13, 68160, Note_on_c, 15, 49, 76
13, 68160, Note_on_c, 15, 61, 76
13, 68160, Note_on_c, 15, 70, 76
13, 68399, Note_on_c, 15, 67, 0
13, 68399, Note_on_c, 15, 64, 0
13, 68399, Note_on_c, 15, 49, 0
13, 68399, Note_on_c, 15, 61, 0
13, 68399, Note_on_c, 15, 70, 0
13, 68400, Note_on_c, 15, 49, 76
13, 68400, Note_on_c, 15, 61, 76
13, 68400, Note_on_c, 15, 64, 76
13, 68400, Note_on_c, 15, 69, 76
13, 68639, Note_on_c, 15, 49, 0
13, 68639, Note_on_c, 15, 61, 0
13, 68639, Note_on_c, 15, 64, 0
13, 68639, Note_on_c, 15, 69, 0
13, 68640, Note_on_c, 15, 67, 76
13, 68640, Note_on_c, 15, 61, 76
13, 68640, Note_on_c, 15, 64, 76
13, 68640, Note_on_c, 15, 49, 76
13, 68879, Note_on_c, 15, 67, 0
13, 68879, Note_on_c, 15, 61, 0
13, 68879, Note_on_c, 15, 64, 0
13, 68879, Note_on_c, 15, 49, 0
13, 68880, Note_on_c, 15, 69, 76
13, 68880, Note_on_c, 15, 65, 76
13, 68880, Note_on_c, 15, 50, 76
13, 68880, Note_on_c, 15, 62, 76
13, 69119, Note_on_c, 15, 69, 0
13, 69119, Note_on_c, 15, 65, 0
13, 69119, Note_on_c, 15, 50, 0
13, 69119, Note_on_c, 15, 62, 0
13, 69120, Note_on_c, 15, 60, 76
13, 69120, Note_on_c, 15, 48, 76
13, 69120, Note_on_c, 15, 64, 76
13, 69120, Note_on_c, 15, 67, 76
13, 69359, Note_on_c, 15, 60, 0
13, 69359, Note_on_c, 15, 48, 0
13, 69359, Note_on_c, 15, 64, 0
13, 69359, Note_on_c, 15, 67, 0
13, 69360, Note_on_c, 15, 58, 76
13, 69360, Note_on_c, 15, 46, 76
13, 69360, Note_on_c, 15, 67, 76
13, 69360, Note_on_c, 15, 62, 76
13, 69599, Note_on_c, 15, 58, 0
13, 69599, Note_on_c, 15, 46, 0
13, 69599, Note_on_c, 15, 67, 0
13, 69599, Note_on_c, 15, 62, 0
13, 69600, Note_on_c, 15, 57, 76
13, 69600, Note_on_c, 15, 61, 76
13, 69600, Note_on_c, 15, 45, 76
13, 69600, Note_on_c, 15, 64, 76
13, 69839, Note_on_c, 15, 57, 0
13, 69839, Note_on_c, 15, 61, 0
13, 69839, Note_on_c, 15, 45, 0
13, 69839, Note_on_c, 15, 64, 0
13, 69840, Note_on_c, 15, 57, 76
13, 69840, Note_on_c, 15, 61, 76
13, 69840, Note_on_c, 15, 64, 76
13, 69840, Note_on_c, 15, 45, 76
13, 70079, Note_on_c, 15, 57, 0
13, 70079, Note_on_c, 15, 61, 0
13, 70079, Note_on_c, 15, 64, 0
13, 70079, Note_on_c, 15, 45, 0
13, 70080, Note_on_c, 15, 62, 76
13, 70080, Note_on_c, 15, 45, 76
13, 70080, Note_on_c, 15, 57, 76
13, 70080, Note_on_c, 15, 65, 76
13, 70319, Note_on_c, 15, 62, 0
13, 70319, Note_on_c, 15, 45, 0
13, 70319, Note_on_c, 15, 57, 0
13, 70319, Note_on_c, 15, 65, 0
13, 70320, Note_on_c, 15, 76, 76
13, 70320, Note_on_c, 15, 73, 76
13, 70320, Note_on_c, 15, 67, 76
13, 70320, Note_on_c, 15, 55, 76
13, 70559, Note_on_c, 15, 76, 0
13, 70559, Note_on_c, 15, 73, 0
13, 70559, Note_on_c, 15, 67, 0
13, 70559, Note_on_c, 15, 55, 0
13, 70560, Note_on_c, 15, 55, 76
13, 70560, Note_on_c, 15, 67, 76
13, 70560, Note_on_c, 15, 73, 76
13, 70560, Note_on_c, 15, 76, 76
13, 70799, Note_on_c, 15, 55, 0
13, 70799, Note_on_c, 15, 67, 0
13, 70799, Note_on_c, 15, 73, 0
13, 70799, Note_on_c, 15, 76, 0
13, 70800, Note_on_c, 15, 76, 76
13, 70800, Note_on_c, 15, 73, 76
13, 70800, Note_on_c, 15, 67, 76
13, 70800, Note_on_c, 15, 55, 76
13, 71039, Note_on_c, 15, 76, 0
13, 71039, Note_on_c, 15, 73, 0
13, 71039, Note_on_c, 15, 67, 0
13, 71039, Note_on_c, 15, 55, 0
13, 71040, Note_on_c, 15, 64, 76
13, 71040, Note_on_c, 15, 52, 76
13, 71040, Note_on_c, 15, 67, 76
13, 71040, Note_on_c, 15, 73, 76
13, 71279, Note_on_c, 15, 64, 0
13, 71279, Note_on_c, 15, 52, 0
13, 71279, Note_on_c, 15, 67, 0
13, 71279, Note_on_c, 15, 73, 0
13, 71280, Note_on_c, 15, 64, 76
13, 71280, Note_on_c, 15, 73, 76
13, 71280, Note_on_c, 15, 67, 76
13, 71280, Note_on_c, 15, 52, 76
13, 71519, Note_on_c, 15, 64, 0
13, 71519, Note_on_c, 15, 73, 0
13, 71519, Note_on_c, 15, 67, 0
13, 71519, Note_on_c, 15, 52, 0
13, 71520, Note_on_c, 15, 73, 76
13, 71520, Note_on_c, 15, 52, 76
13, 71520, Note_on_c, 15, 67, 76
13, 71520, Note_on_c, 15, 64, 76
13, 71759, Note_on_c, 15, 73, 0
13, 71759, Note_on_c, 15, 52, 0
13, 71759, Note_on_c, 15, 67, 0
13, 71759, Note_on_c, 15, 64, 0
13, 71760, Note_on_c, 15, 64, 76
13, 71760, Note_on_c, 15, 69, 76
13, 71760, Note_on_c, 15, 49, 76
13, 71760, Note_on_c, 15, 67, 76
13, 71760, Note_on_c, 15, 61, 76
13, 71999, Note_on_c, 15, 64, 0
13, 71999, Note_on_c, 15, 69, 0
13, 71999, Note_on_c, 15, 49, 0
13, 71999, Note_on_c, 15, 67, 0
13, 71999, Note_on_c, 15, 61, 0
13, 72000, Note_on_c, 15, 65, 76
13, 72000, Note_on_c, 15, 62, 76
13, 72000, Note_on_c, 15, 59, 76
13, 72000, Note_on_c, 15, 47, 76
13, 72239, Note_on_c, 15, 65, 0
13, 72239, Note_on_c, 15, 62, 0
13, 72239, Note_on_c, 15, 59, 0
13, 72239, Note_on_c, 15, 47, 0
13, 72240, Note_on_c, 15, 64, 76
13, 72240, Note_on_c, 15, 57, 76
13, 72240, Note_on_c, 15, 61, 76
13, 72240, Note_on_c, 15, 45, 76
13, 72479, Note_on_c, 15, 64, 0
13, 72479, Note_on_c, 15, 57, 0
13, 72479, Note_on_c, 15, 61, 0
13, 72479, Note_on_c, 15, 45, 0
13, 72480, Note_on_c, 15, 69, 76
13, 72480, Note_on_c, 15, 65, 76
13, 72480, Note_on_c, 15, 50, 76
13, 72480, Note_on_c, 15, 62, 76
13, 72719, Note_on_c, 15, 69, 0
13, 72719, Note_on_c, 15, 65, 0
13, 72719, Note_on_c, 15, 50, 0
13, 72719, Note_on_c, 15, 62, 0
13, 72720, Note_on_c, 15, 71, 76
13, 72720, Note_on_c, 15, 67, 76
13, 72720, Note_on_c, 15, 64, 76
13, 72720, Note_on_c, 15, 52, 76
13, 72959, Note_on_c, 15, 71, 0
13, 72959, Note_on_c, 15, 67, 0
13, 72959, Note_on_c, 15, 64, 0
13, 72959, Note_on_c, 15, 52, 0
13, 72960, Note_on_c, 15, 53, 76
13, 72960, Note_on_c, 15, 72, 76
13, 72960, Note_on_c, 15, 65, 76
13, 72960, Note_on_c, 15, 69, 76
13, 73199, Note_on_c, 15, 53, 0
13, 73199, Note_on_c, 15, 72, 0
13, 73199, Note_on_c, 15, 65, 0
13, 73199, Note_on_c, 15, 69, 0
13, 73200, Note_on_c, 15, 55, 76
13, 73200, Note_on_c, 15, 67, 76
13, 73200, Note_on_c, 15, 74, 76
13, 73200, Note_on_c, 15, 70, 76
13, 73200, Note_on_c, 15, 77, 76
13, 73439, Note_on_c, 15, 55, 0
13, 73439, Note_on_c, 15, 67, 0
13, 73439, Note_on_c, 15, 74, 0
13, 73439, Note_on_c, 15, 70, 0
13, 73439, Note_on_c, 15, 77, 0
13, 73440, Note_on_c, 15, 77, 76
13, 73440, Note_on_c, 15, 67, 76
13, 73440, Note_on_c, 15, 70, 76
13, 73440, Note_on_c, 15, 74, 76
13, 73440, Note_on_c, 15, 55, 76
13, 73679, Note_on_c, 15, 77, 0
13, 73679, Note_on_c, 15, 67, 0
13, 73679, Note_on_c, 15, 70, 0
13, 73679, Note_on_c, 15, 74, 0
13, 73679, Note_on_c, 15, 55, 0
13, 73680, Note_on_c, 15, 77, 76
13, 73680, Note_on_c, 15, 55, 76
13, 73680, Note_on_c, 15, 67, 76
13, 73680, Note_on_c, 15, 70, 76
13, 73680, Note_on_c, 15, 74, 76
13, 73919, Note_on_c, 15, 77, 0
13, 73919, Note_on_c, 15, 55, 0
13, 73919, Note_on_c, 15, 67, 0
13, 73919, Note_on_c, 15, 70, 0
13, 73919, Note_on_c, 15, 74, 0
13, 73920, Note_on_c, 15, 77, 76
13, 73920, Note_on_c, 15, 57, 76
13, 73920, Note_on_c, 15, 74, 76
13, 73920, Note_on_c, 15, 69, 76
13, 74159, Note_on_c, 15, 77, 0
13, 74159, Note_on_c, 15, 57, 0
13, 74159, Note_on_c, 15, 74, 0
13, 74159, Note_on_c, 15, 69, 0
13, 74160, Note_on_c, 15, 69, 76
13, 74160, Note_on_c, 15, 74, 76
13, 74160, Note_on_c, 15, 77, 76
13, 74160, Note_on_c, 15, 57, 76
13, 74399, Note_on_c, 15, 69, 0
13, 74399, Note_on_c, 15, 74, 0
13, 74399, Note_on_c, 15, 77, 0
13, 74399, Note_on_c, 15, 57, 0
13, 74400, Note_on_c, 15, 73, 76
13, 74400, Note_on_c, 15, 69, 76
13, 74400, Note_on_c, 15, 57, 76
13, 74400, Note_on_c, 15, 76, 76
13, 74639, Note_on_c, 15, 73, 0
13, 74639, Note_on_c, 15, 69, 0
13, 74639, Note_on_c, 15, 57, 0
13, 74639, Note_on_c, 15, 76, 0
13, 74640, Note_on_c, 15, 65, 76
13, 74640, Note_on_c, 15, 62, 76
13, 74640, Note_on_c, 15, 50, 76
13, 74640, Note_on_c, 15, 69, 76
13, 74879, Note_on_c, 15, 65, 0
13, 74879, Note_on_c, 15, 62, 0
13, 74879, Note_on_c, 15, 50, 0
13, 74879, Note_on_c, 15, 69, 0
13, 74880, Note_on_c, 15, 53, 76
13, 74880, Note_on_c, 15, 69, 76
13, 74880, Note_on_c, 15, 65, 76
13, 74880, Note_on_c, 15, 72, 76
13, 75119, Note_on_c, 15, 53, 0
13, 75119, Note_on_c, 15, 69, 0
13, 75119, Note_on_c, 15, 65, 0
13, 75119, Note_on_c, 15, 72, 0
13, 75120, Note_on_c, 15, 69, 76
13, 75120, Note_on_c, 15, 72, 76
13, 75120, Note_on_c, 15, 57, 76
13, 75120, Note_on_c, 15, 76, 76
13, 75359, Note_on_c, 15, 69, 0
13, 75359, Note_on_c, 15, 72, 0
13, 75359, Note_on_c, 15, 57, 0
13, 75359, Note_on_c, 15, 76, 0
13, 75360, Note_on_c, 15, 69, 76
13, 75360, Note_on_c, 15, 54, 76
13, 75360, Note_on_c, 15, 74, 76
13, 75360, Note_on_c, 15, 72, 76
13, 75360, Note_on_c, 15, 66, 76
13, 75599, Note_on_c, 15, 69, 0
13, 75599, Note_on_c, 15, 54, 0
13, 75599, Note_on_c, 15, 74, 0
13, 75599, Note_on_c, 15, 72, 0
13, 75599, Note_on_c, 15, 66, 0
13, 75600, Note_on_c, 15, 72, 76
13, 75600, Note_on_c, 15, 69, 76
13, 75600, Note_on_c, 15, 74, 76
13, 75600, Note_on_c, 15, 66, 76
13, 75600, Note_on_c, 15, 54, 76
13, 75839, Note_on_c, 15, 72, 0
13, 75839, Note_on_c, 15, 69, 0
13, 75839, Note_on_c, 15, 74, 0
13, 75839, Note_on_c, 15, 66, 0
13, 75839, Note_on_c, 15, 54, 0
13, 75840, Note_on_c, 15, 69, 76
13, 75840, Note_on_c, 15, 72, 76
13, 75840, Note_on_c, 15, 66, 76
13, 75840, Note_on_c, 15, 54, 76
13, 75840, Note_on_c, 15, 74, 76
13, 76079, Note_on_c, 15, 69, 0
13, 76079, Note_on_c, 15, 72, 0
13, 76079, Note_on_c, 15, 66, 0
13, 76079, Note_on_c, 15, 54, 0
13, 76079, Note_on_c, 15, 74, 0
13, 76080, Note_on_c, 15, 53, 76
13, 76080, Note_on_c, 15, 74, 76
13, 76080, Note_on_c, 15, 65, 76
13, 76080, Note_on_c, 15, 71, 76
13, 76080, Note_on_c, 15, 67, 76
13, 76319, Note_on_c, 15, 53, 0
13, 76319, Note_on_c, 15, 74, 0
13, 76319, Note_on_c, 15, 65, 0
13, 76319, Note_on_c, 15, 71, 0
13, 76319, Note_on_c, 15, 67, 0
13, 76320, Note_on_c, 15, 71, 76
13, 76320, Note_on_c, 15, 65, 76
13, 76320, Note_on_c, 15, 74, 76
13, 76320, Note_on_c, 15, 67, 76
13, 76320, Note_on_c, 15, 53, 76
13, 76559, Note_on_c, 15, 71, 0
13, 76559, Note_on_c, 15, 65, 0
13, 76559, Note_on_c, 15, 74, 0
13, 76559, Note_on_c, 15, 67, 0
13, 76559, Note_on_c, 15, 53, 0
13, 76560, Note_on_c, 15, 74, 76
13, 76560, Note_on_c, 15, 53, 76
13, 76560, Note_on_c, 15, 71, 76
13, 76560, Note_on_c, 15, 67, 76
13, 76560, Note_on_c, 15, 65, 76
13, 76799, Note_on_c, 15, 74, 0
13, 76799, Note_on_c, 15, 53, 0
13, 76799, Note_on_c, 15, 71, 0
13, 76799, Note_on_c, 15, 67, 0
13, 76799, Note_on_c, 15, 65, 0
13, 76800, Note_on_c, 15, 47, 76
13, 76800, Note_on_c, 15, 65, 76
13, 76800, Note_on_c, 15, 67, 76
13, 76800, Note_on_c, 15, 62, 76
13, 76800, Note_on_c, 15, 59, 76
13, 77039, Note_on_c, 15, 47, 0
13, 77039, Note_on_c, 15, 65, 0
13, 77039, Note_on_c, 15, 67, 0
13, 77039, Note_on_c, 15, 62, 0
13, 77039, Note_on_c, 15, 59, 0
13, 77040, Note_on_c, 15, 47, 76
13, 77040, Note_on_c, 15, 65, 76
13, 77040, Note_on_c, 15, 59, 76
13, 77040, Note_on_c, 15, 67, 76
13, 77040, Note_on_c, 15, 62, 76
13, 77279, Note_on_c, 15, 47, 0
13, 77279, Note_on_c, 15, 65, 0
13, 77279, Note_on_c, 15, 59, 0
13, 77279, Note_on_c, 15, 67, 0
13, 77279, Note_on_c, 15, 62, 0
13, 77280, Note_on_c, 15, 64, 76
13, 77280, Note_on_c, 15, 60, 76
13, 77280, Note_on_c, 15, 67, 76
13, 77280, Note_on_c, 15, 48, 76
13, 77519, Note_on_c, 15, 64, 0
13, 77519, Note_on_c, 15, 60, 0
13, 77519, Note_on_c, 15, 67, 0
13, 77519, Note_on_c, 15, 48, 0
13, 77520, Note_on_c, 15, 55, 76
13, 77520, Note_on_c, 15, 71, 76
13, 77520, Note_on_c, 15, 67, 76
13, 77520, Note_on_c, 15, 74, 76
13, 77759, Note_on_c, 15, 55, 0
13, 77759, Note_on_c, 15, 71, 0
13, 77759, Note_on_c, 15, 67, 0
13, 77759, Note_on_c, 15, 74, 0
13, 77760, Note_on_c, 15, 65, 76
13, 77760, Note_on_c, 15, 53, 76
13, 77760, Note_on_c, 15, 69, 76
13, 77760, Note_on_c, 15, 72, 76
13, 77999, Note_on_c, 15, 65, 0
13, 77999, Note_on_c, 15, 53, 0
13, 77999, Note_on_c, 15, 69, 0
13, 77999, Note_on_c, 15, 72, 0
13, 78000, Note_on_c, 15, 67, 76
13, 78000, Note_on_c, 15, 72, 76
13, 78000, Note_on_c, 15, 52, 76
13, 78000, Note_on_c, 15, 64, 76
13, 78239, Note_on_c, 15, 67, 0
13, 78239, Note_on_c, 15, 72, 0
13, 78239, Note_on_c, 15, 52, 0
13, 78239, Note_on_c, 15, 64, 0
13, 78240, Note_on_c, 15, 65, 76
13, 78240, Note_on_c, 15, 69, 76
13, 78240, Note_on_c, 15, 62, 76
13, 78240, Note_on_c, 15, 50, 76
13, 78479, Note_on_c, 15, 65, 0
13, 78479, Note_on_c, 15, 69, 0
13, 78479, Note_on_c, 15, 62, 0
13, 78479, Note_on_c, 15, 50, 0
13, 78480, Note_on_c, 15, 67, 76
13, 78480, Note_on_c, 15, 64, 76
13, 78480, Note_on_c, 15, 48, 76
13, 78480, Note_on_c, 15, 60, 76
13, 78719, Note_on_c, 15, 67, 0
13, 78719, Note_on_c, 15, 64, 0
13, 78719, Note_on_c, 15, 48, 0
13, 78719, Note_on_c, 15, 60, 0
13, 78720, Note_on_c, 15, 58, 76
13, 78720, Note_on_c, 15, 64, 76
13, 78720, Note_on_c, 15, 60, 76
13, 78720, Note_on_c, 15, 67, 76
13, 78720, Note_on_c, 15, 46, 76
13, 78959, Note_on_c, 15, 58, 0
13, 78959, Note_on_c, 15, 64, 0
13, 78959, Note_on_c, 15, 60, 0
13, 78959, Note_on_c, 15, 67, 0
13, 78959, Note_on_c, 15, 46, 0
13, 78960, Note_on_c, 15, 60, 76
13, 78960, Note_on_c, 15, 58, 76
13, 78960, Note_on_c, 15, 55, 76
13, 78960, Note_on_c, 15, 40, 76
13, 78960, Note_on_c, 15, 52, 76
13, 79199, Note_on_c, 15, 60, 0
13, 79199, Note_on_c, 15, 58, 0
13, 79199, Note_on_c, 15, 55, 0
13, 79199, Note_on_c, 15, 40, 0
13, 79199, Note_on_c, 15, 52, 0
13, 79200, Note_on_c, 15, 60, 76
13, 79200, Note_on_c, 15, 58, 76
13, 79200, Note_on_c, 15, 52, 76
13, 79200, Note_on_c, 15, 40, 76
13, 79200, Note_on_c, 15, 55, 76
13, 79439, Note_on_c, 15, 60, 0
13, 79439, Note_on_c, 15, 58, 0
13, 79439, Note_on_c, 15, 52, 0
13, 79439, Note_on_c, 15, 40, 0
13, 79439, Note_on_c, 15, 55, 0
13, 79440, Note_on_c, 15, 60, 76
13, 79440, Note_on_c, 15, 55, 76
13, 79440, Note_on_c, 15, 58, 76
13, 79440, Note_on_c, 15, 52, 76
13, 79440, Note_on_c, 15, 40, 76
13, 79679, Note_on_c, 15, 60, 0
13, 79679, Note_on_c, 15, 55, 0
13, 79679, Note_on_c, 15, 58, 0
13, 79679, Note_on_c, 15, 52, 0
13, 79679, Note_on_c, 15, 40, 0
13, 79680, Note_on_c, 15, 53, 76
13, 79680, Note_on_c, 15, 60, 76
13, 79680, Note_on_c, 15, 57, 76
13, 79680, Note_on_c, 15, 41, 76
13, 79919, Note_on_c, 15, 53, 0
13, 79919, Note_on_c, 15, 60, 0
13, 79919, Note_on_c, 15, 57, 0
13, 79919, Note_on_c, 15, 41, 0
13, 79920, Note_on_c, 15, 57, 76
13, 79920, Note_on_c, 15, 38, 76
13, 79920, Note_on_c, 15, 50, 76
13, 79920, Note_on_c, 15, 53, 76
13, 80159, Note_on_c, 15, 57, 0
13, 80159, Note_on_c, 15, 38, 0
13, 80159, Note_on_c, 15, 50, 0
13, 80159, Note_on_c, 15, 53, 0
13, 80160, Note_on_c, 15, 43, 76
13, 80160, Note_on_c, 15, 59, 76
13, 80160, Note_on_c, 15, 62, 76
13, 80160, Note_on_c, 15, 55, 76
13, 80399, Note_on_c, 15, 43, 0
13, 80399, Note_on_c, 15, 59, 0
13, 80399, Note_on_c, 15, 62, 0
13, 80399, Note_on_c, 15, 55, 0
13, 80400, Note_on_c, 15, 36, 76
13, 80400, Note_on_c, 15, 52, 76
13, 80400, Note_on_c, 15, 48, 76
13, 80400, Note_on_c, 15, 55, 76
13, 80879, Note_on_c, 15, 36, 0
13, 80879, Note_on_c, 15, 52, 0
13, 80879, Note_on_c, 15, 48, 0
13, 80879, Note_on_c, 15, 55, 0
13, 81120, Note_on_c, 15, 48, 76
13, 81120, Note_on_c, 15, 67, 76
13, 81120, Note_on_c, 15, 60, 76
13, 81120, Note_on_c, 15, 64, 76
13, 81359, Note_on_c, 15, 48, 0
13, 81359, Note_on_c, 15, 67, 0
13, 81359, Note_on_c, 15, 60, 0
13, 81359, Note_on_c, 15, 64, 0
13, 81360, Note_on_c, 15, 79, 76
13, 81360, Note_on_c, 15, 60, 76
13, 81360, Note_on_c, 15, 72, 76
13, 81360, Note_on_c, 15, 76, 76
13, 81599, Note_on_c, 15, 79, 0
13, 81599, Note_on_c, 15, 60, 0
13, 81599, Note_on_c, 15, 72, 0
13, 81599, Note_on_c, 15, 76, 0
13, 81600, Note_on_c, 15, 48, 76
13, 81600, Note_on_c, 15, 64, 76
13, 81600, Note_on_c, 15, 67, 76
13, 81600, Note_on_c, 15, 60, 76
13, 81839, Note_on_c, 15, 48, 0
13, 81839, Note_on_c, 15, 64, 0
13, 81839, Note_on_c, 15, 67, 0
13, 81839, Note_on_c, 15, 60, 0
13, 81840, Note_on_c, 15, 74, 76
13, 81840, Note_on_c, 15, 79, 76
13, 81840, Note_on_c, 15, 59, 76
13, 81840, Note_on_c, 15, 71, 76
13, 82079, Note_on_c, 15, 74, 0
13, 82079, Note_on_c, 15, 79, 0
13, 82079, Note_on_c, 15, 59, 0
13, 82079, Note_on_c, 15, 71, 0
13, 82080, Note_on_c, 15, 76, 76
13, 82080, Note_on_c, 15, 57, 76
13, 82080, Note_on_c, 15, 69, 76
13, 82080, Note_on_c, 15, 72, 76
13, 82319, Note_on_c, 15, 76, 0
13, 82319, Note_on_c, 15, 57, 0
13, 82319, Note_on_c, 15, 69, 0
13, 82319, Note_on_c, 15, 72, 0
13, 82320, Note_on_c, 15, 67, 76
13, 82320, Note_on_c, 15, 74, 76
13, 82320, Note_on_c, 15, 71, 76
13, 82320, Note_on_c, 15, 55, 76
13, 82559, Note_on_c, 15, 67, 0
13, 82559, Note_on_c, 15, 74, 0
13, 82559, Note_on_c, 15, 71, 0
13, 82559, Note_on_c, 15, 55, 0
13, 82560, Note_on_c, 15, 65, 76
13, 82560, Note_on_c, 15, 74, 76
13, 82560, Note_on_c, 15, 53, 76
13, 82560, Note_on_c, 15, 67, 76
13, 82560, Note_on_c, 15, 71, 76
13, 82799, Note_on_c, 15, 65, 0
13, 82799, Note_on_c, 15, 74, 0
13, 82799, Note_on_c, 15, 53, 0
13, 82799, Note_on_c, 15, 67, 0
13, 82799, Note_on_c, 15, 71, 0
13, 82800, Note_on_c, 15, 52, 76
13, 82800, Note_on_c, 15, 67, 76
13, 82800, Note_on_c, 15, 64, 76
13, 82800, Note_on_c, 15, 72, 76
13, 83039, Note_on_c, 15, 52, 0
13, 83039, Note_on_c, 15, 67, 0
13, 83039, Note_on_c, 15, 64, 0
13, 83039, Note_on_c, 15, 72, 0
13, 83040, Note_on_c, 15, 69, 76
13, 83040, Note_on_c, 15, 72, 76
13, 83040, Note_on_c, 15, 53, 76
13, 83040, Note_on_c, 15, 65, 76
13, 83279, Note_on_c, 15, 69, 0
13, 83279, Note_on_c, 15, 72, 0
13, 83279, Note_on_c, 15, 53, 0
13, 83279, Note_on_c, 15, 65, 0
13, 83280, Note_on_c, 15, 69, 76
13, 83280, Note_on_c, 15, 62, 76
13, 83280, Note_on_c, 15, 65, 76
13, 83280, Note_on_c, 15, 50, 76
13, 83519, Note_on_c, 15, 69, 0
13, 83519, Note_on_c, 15, 62, 0
13, 83519, Note_on_c, 15, 65, 0
13, 83519, Note_on_c, 15, 50, 0
13, 83520, Note_on_c, 15, 67, 76
13, 83520, Note_on_c, 15, 71, 76
13, 83520, Note_on_c, 15, 55, 76
13, 83520, Note_on_c, 15, 74, 76
13, 83759, Note_on_c, 15, 67, 0
13, 83759, Note_on_c, 15, 71, 0
13, 83759, Note_on_c, 15, 55, 0
13, 83759, Note_on_c, 15, 74, 0
13, 83760, Note_on_c, 15, 43, 76
13, 83760, Note_on_c, 15, 55, 76
13, 83760, Note_on_c, 15, 59, 76
13, 83760, Note_on_c, 15, 62, 76
13, 83999, Note_on_c, 15, 43, 0
13, 83999, Note_on_c, 15, 55, 0
13, 83999, Note_on_c, 15, 59, 0
13, 83999, Note_on_c, 15, 62, 0
13, 84000, Note_on_c, 15, 59, 76
13, 84000, Note_on_c, 15, 53, 76
13, 84000, Note_on_c, 15, 62, 76
13, 84239, Note_on_c, 15, 59, 0
13, 84239, Note_on_c, 15, 53, 0
13, 84239, Note_on_c, 15, 62, 0
13, 84240, Note_on_c, 15, 72, 76
13, 84240, Note_on_c, 15, 52, 76
13, 84240, Note_on_c, 15, 64, 76
13, 84240, Note_on_c, 15, 67, 76
13, 84479, Note_on_c, 15, 72, 0
13, 84479, Note_on_c, 15, 52, 0
13, 84479, Note_on_c, 15, 64, 0
13, 84479, Note_on_c, 15, 67, 0
13, 84480, Note_on_c, 15, 76, 76
13, 84480, Note_on_c, 15, 79, 76
13, 84480, Note_on_c, 15, 72, 76
13, 84480, Note_on_c, 15, 60, 76
13, 84719, Note_on_c, 15, 76, 0
13, 84719, Note_on_c, 15, 79, 0
13, 84719, Note_on_c, 15, 72, 0
13, 84719, Note_on_c, 15, 60, 0
13, 84720, Note_on_c, 15, 71, 76
13, 84720, Note_on_c, 15, 79, 76
13, 84720, Note_on_c, 15, 59, 76
13, 84720, Note_on_c, 15, 74, 76
13, 84959, Note_on_c, 15, 71, 0
13, 84959, Note_on_c, 15, 79, 0
13, 84959, Note_on_c, 15, 59, 0
13, 84959, Note_on_c, 15, 74, 0
13, 84960, Note_on_c, 15, 69, 76
13, 84960, Note_on_c, 15, 76, 76
13, 84960, Note_on_c, 15, 72, 76
13, 84960, Note_on_c, 15, 57, 76
13, 85199, Note_on_c, 15, 69, 0
13, 85199, Note_on_c, 15, 76, 0
13, 85199, Note_on_c, 15, 72, 0
13, 85199, Note_on_c, 15, 57, 0
13, 85200, Note_on_c, 15, 67, 76
13, 85200, Note_on_c, 15, 71, 76
13, 85200, Note_on_c, 15, 55, 76
13, 85200, Note_on_c, 15, 74, 76
13, 85439, Note_on_c, 15, 67, 0
13, 85439, Note_on_c, 15, 71, 0
13, 85439, Note_on_c, 15, 55, 0
13, 85439, Note_on_c, 15, 74, 0
13, 85440, Note_on_c, 15, 69, 76
13, 85440, Note_on_c, 15, 54, 76
13, 85440, Note_on_c, 15, 74, 76
13, 85440, Note_on_c, 15, 66, 76
13, 85679, Note_on_c, 15, 69, 0
13, 85679, Note_on_c, 15, 54, 0
13, 85679, Note_on_c, 15, 74, 0
13, 85679, Note_on_c, 15, 66, 0
13, 85680, Note_on_c, 15, 55, 76
13, 85680, Note_on_c, 15, 67, 76
13, 85680, Note_on_c, 15, 71, 76
13, 85680, Note_on_c, 15, 74, 76
13, 85919, Note_on_c, 15, 55, 0
13, 85919, Note_on_c, 15, 67, 0
13, 85919, Note_on_c, 15, 71, 0
13, 85919, Note_on_c, 15, 74, 0
13, 85920, Note_on_c, 15, 62, 76
13, 85920, Note_on_c, 15, 59, 76
13, 85920, Note_on_c, 15, 67, 76
13, 85920, Note_on_c, 15, 47, 76
13, 86159, Note_on_c, 15, 62, 0
13, 86159, Note_on_c, 15, 59, 0
13, 86159, Note_on_c, 15, 67, 0
13, 86159, Note_on_c, 15, 47, 0
13, 86160, Note_on_c, 15, 69, 76
13, 86160, Note_on_c, 15, 50, 76
13, 86160, Note_on_c, 15, 62, 76
13, 86160, Note_on_c, 15, 66, 76
13, 86399, Note_on_c, 15, 69, 0
13, 86399, Note_on_c, 15, 50, 0
13, 86399, Note_on_c, 15, 62, 0
13, 86399, Note_on_c, 15, 66, 0
13, 86400, Note_on_c, 15, 43, 76
13, 86400, Note_on_c, 15, 59, 76
13, 86400, Note_on_c, 15, 55, 76
13, 86400, Note_on_c, 15, 62, 76
13, 86639, Note_on_c, 15, 43, 0
13, 86639, Note_on_c, 15, 59, 0
13, 86639, Note_on_c, 15, 55, 0
13, 86639, Note_on_c, 15, 62, 0
13, 86640, Note_on_c, 15, 71, 76
13, 86640, Note_on_c, 15, 74, 76
13, 86640, Note_on_c, 15, 67, 76
13, 86640, Note_on_c, 15, 55, 76
13, 86759, Note_on_c, 15, 71, 0
13, 86759, Note_on_c, 15, 74, 0
13, 86759, Note_on_c, 15, 67, 0
13, 86759, Note_on_c, 15, 55, 0
13, 86760, Note_on_c, 15, 65, 76
13, 86760, Note_on_c, 15, 72, 76
13, 86760, Note_on_c, 15, 53, 76
13, 86760, Note_on_c, 15, 69, 76
13, 86879, Note_on_c, 15, 65, 0
13, 86879, Note_on_c, 15, 72, 0
13, 86879, Note_on_c, 15, 53, 0
13, 86879, Note_on_c, 15, 69, 0
13, 86880, Note_on_c, 15, 67, 76
13, 86880, Note_on_c, 15, 64, 76
13, 86880, Note_on_c, 15, 52, 76
13, 86880, Note_on_c, 15, 71, 76
13, 86999, Note_on_c, 15, 67, 0
13, 86999, Note_on_c, 15, 64, 0
13, 86999, Note_on_c, 15, 52, 0
13, 86999, Note_on_c, 15, 71, 0
13, 87000, Note_on_c, 15, 65, 76
13, 87000, Note_on_c, 15, 62, 76
13, 87000, Note_on_c, 15, 69, 76
13, 87000, Note_on_c, 15, 50, 76
13, 87119, Note_on_c, 15, 65, 0
13, 87119, Note_on_c, 15, 62, 0
13, 87119, Note_on_c, 15, 69, 0
13, 87119, Note_on_c, 15, 50, 0
13, 87120, Note_on_c, 15, 60, 76
13, 87120, Note_on_c, 15, 64, 76
13, 87120, Note_on_c, 15, 67, 76
13, 87120, Note_on_c, 15, 48, 76
13, 87359, Note_on_c, 15, 60, 0
13, 87359, Note_on_c, 15, 64, 0
13, 87359, Note_on_c, 15, 67, 0
13, 87359, Note_on_c, 15, 48, 0
13, 87360, Note_on_c, 15, 76, 76
13, 87360, Note_on_c, 15, 79, 76
13, 87360, Note_on_c, 15, 72, 76
13, 87360, Note_on_c, 15, 60, 76
13, 87599, Note_on_c, 15, 76, 0
13, 87599, Note_on_c, 15, 79, 0
13, 87599, Note_on_c, 15, 72, 0
13, 87599, Note_on_c, 15, 60, 0
13, 87600, Note_on_c, 15, 79, 76
13, 87600, Note_on_c, 15, 71, 76
13, 87600, Note_on_c, 15, 74, 76
13, 87600, Note_on_c, 15, 59, 76
13, 87839, Note_on_c, 15, 79, 0
13, 87839, Note_on_c, 15, 71, 0
13, 87839, Note_on_c, 15, 74, 0
13, 87839, Note_on_c, 15, 59, 0
13, 87840, Note_on_c, 15, 72, 76
13, 87840, Note_on_c, 15, 57, 76
13, 87840, Note_on_c, 15, 76, 76
13, 87840, Note_on_c, 15, 69, 76
13, 88079, Note_on_c, 15, 72, 0
13, 88079, Note_on_c, 15, 57, 0
13, 88079, Note_on_c, 15, 76, 0
13, 88079, Note_on_c, 15, 69, 0
13, 88080, Note_on_c, 15, 71, 76
13, 88080, Note_on_c, 15, 55, 76
13, 88080, Note_on_c, 15, 67, 76
13, 88080, Note_on_c, 15, 74, 76
13, 88319, Note_on_c, 15, 71, 0
13, 88319, Note_on_c, 15, 55, 0
13, 88319, Note_on_c, 15, 67, 0
13, 88319, Note_on_c, 15, 74, 0
13, 88320, Note_on_c, 15, 65, 76
13, 88320, Note_on_c, 15, 74, 76
13, 88320, Note_on_c, 15, 67, 76
13, 88320, Note_on_c, 15, 71, 76
13, 88320, Note_on_c, 15, 53, 76
13, 88559, Note_on_c, 15, 65, 0
13, 88559, Note_on_c, 15, 74, 0
13, 88559, Note_on_c, 15, 67, 0
13, 88559, Note_on_c, 15, 71, 0
13, 88559, Note_on_c, 15, 53, 0
13, 88560, Note_on_c, 15, 72, 76
13, 88560, Note_on_c, 15, 52, 76
13, 88560, Note_on_c, 15, 67, 76
13, 88560, Note_on_c, 15, 64, 76
13, 88799, Note_on_c, 15, 72, 0
13, 88799, Note_on_c, 15, 52, 0
13, 88799, Note_on_c, 15, 67, 0
13, 88799, Note_on_c, 15, 64, 0
13, 88800, Note_on_c, 15, 72, 76
13, 88800, Note_on_c, 15, 65, 76
13, 88800, Note_on_c, 15, 69, 76
13, 88800, Note_on_c, 15, 53, 76
13, 89039, Note_on_c, 15, 72, 0
13, 89039, Note_on_c, 15, 65, 0
13, 89039, Note_on_c, 15, 69, 0
13, 89039, Note_on_c, 15, 53, 0
13, 89040, Note_on_c, 15, 62, 76
13, 89040, Note_on_c, 15, 65, 76
13, 89040, Note_on_c, 15, 50, 76
13, 89040, Note_on_c, 15, 69, 76
13, 89279, Note_on_c, 15, 62, 0
13, 89279, Note_on_c, 15, 65, 0
13, 89279, Note_on_c, 15, 50, 0
13, 89279, Note_on_c, 15, 69, 0
13, 89280, Note_on_c, 15, 55, 76
13, 89280, Note_on_c, 15, 71, 76
13, 89280, Note_on_c, 15, 74, 76
13, 89280, Note_on_c, 15, 67, 76
13, 89519, Note_on_c, 15, 55, 0
13, 89519, Note_on_c, 15, 71, 0
13, 89519, Note_on_c, 15, 74, 0
13, 89519, Note_on_c, 15, 67, 0
13, 89520, Note_on_c, 15, 62, 76
13, 89520, Note_on_c, 15, 43, 76
13, 89520, Note_on_c, 15, 59, 76
13, 89520, Note_on_c, 15, 55, 76
13, 89759, Note_on_c, 15, 62, 0
13, 89759, Note_on_c, 15, 43, 0
13, 89759, Note_on_c, 15, 59, 0
13, 89759, Note_on_c, 15, 55, 0
13, 89760, Note_on_c, 15, 59, 76
13, 89760, Note_on_c, 15, 62, 76
13, 89760, Note_on_c, 15, 53, 76
13, 89999, Note_on_c, 15, 59, 0
13, 89999, Note_on_c, 15, 62, 0
13, 89999, Note_on_c, 15, 53, 0
13, 90000, Note_on_c, 15, 52, 76
13, 90000, Note_on_c, 15, 64, 76
13, 90000, Note_on_c, 15, 67, 76
13, 90000, Note_on_c, 15, 72, 76
13, 90239, Note_on_c, 15, 52, 0
13, 90239, Note_on_c, 15, 64, 0
13, 90239, Note_on_c, 15, 67, 0
13, 90239, Note_on_c, 15, 72, 0
13, 90240, Note_on_c, 15, 72, 76
13, 90240, Note_on_c, 15, 76, 76
13, 90240, Note_on_c, 15, 60, 76
13, 90240, Note_on_c, 15, 79, 76
13, 90479, Note_on_c, 15, 72, 0
13, 90479, Note_on_c, 15, 76, 0
13, 90479, Note_on_c, 15, 60, 0
13, 90479, Note_on_c, 15, 79, 0
13, 90480, Note_on_c, 15, 74, 76
13, 90480, Note_on_c, 15, 71, 76
13, 90480, Note_on_c, 15, 59, 76
13, 90480, Note_on_c, 15, 79, 76
13, 90719, Note_on_c, 15, 74, 0
13, 90719, Note_on_c, 15, 71, 0
13, 90719, Note_on_c, 15, 59, 0
13, 90719, Note_on_c, 15, 79, 0
13, 90720, Note_on_c, 15, 57, 76
13, 90720, Note_on_c, 15, 72, 76
13, 90720, Note_on_c, 15, 69, 76
13, 90720, Note_on_c, 15, 76, 76
13, 90959, Note_on_c, 15, 57, 0
13, 90959, Note_on_c, 15, 72, 0
13, 90959, Note_on_c, 15, 69, 0
13, 90959, Note_on_c, 15, 76, 0
13, 90960, Note_on_c, 15, 67, 76
13, 90960, Note_on_c, 15, 74, 76
13, 90960, Note_on_c, 15, 71, 76
13, 90960, Note_on_c, 15, 55, 76
13, 91199, Note_on_c, 15, 67, 0
13, 91199, Note_on_c, 15, 74, 0
13, 91199, Note_on_c, 15, 71, 0
13, 91199, Note_on_c, 15, 55, 0
13, 91200, Note_on_c, 15, 66, 76
13, 91200, Note_on_c, 15, 69, 76
13, 91200, Note_on_c, 15, 74, 76
13, 91200, Note_on_c, 15, 54, 76
13, 91439, Note_on_c, 15, 66, 0
13, 91439, Note_on_c, 15, 69, 0
13, 91439, Note_on_c, 15, 74, 0
13, 91439, Note_on_c, 15, 54, 0
13, 91440, Note_on_c, 15, 74, 76
13, 91440, Note_on_c, 15, 55, 76
13, 91440, Note_on_c, 15, 67, 76
13, 91440, Note_on_c, 15, 71, 76
13, 91679, Note_on_c, 15, 74, 0
13, 91679, Note_on_c, 15, 55, 0
13, 91679, Note_on_c, 15, 67, 0
13, 91679, Note_on_c, 15, 71, 0
13, 91680, Note_on_c, 15, 67, 76
13, 91680, Note_on_c, 15, 59, 76
13, 91680, Note_on_c, 15, 47, 76
13, 91680, Note_on_c, 15, 62, 76
13, 91919, Note_on_c, 15, 67, 0
13, 91919, Note_on_c, 15, 59, 0
13, 91919, Note_on_c, 15, 47, 0
13, 91919, Note_on_c, 15, 62, 0
13, 91920, Note_on_c, 15, 69, 76
13, 91920, Note_on_c, 15, 50, 76
13, 91920, Note_on_c, 15, 66, 76
13, 91920, Note_on_c, 15, 62, 76
13, 92159, Note_on_c, 15, 69, 0
13, 92159, Note_on_c, 15, 50, 0
13, 92159, Note_on_c, 15, 66, 0
13, 92159, Note_on_c, 15, 62, 0
13, 92160, Note_on_c, 15, 62, 76
13, 92160, Note_on_c, 15, 59, 76
13, 92160, Note_on_c, 15, 43, 76
13, 92160, Note_on_c, 15, 55, 76
13, 92639, Note_on_c, 15, 62, 0
13, 92639, Note_on_c, 15, 59, 0
13, 92639, Note_on_c, 15, 43, 0
13, 92639, Note_on_c, 15, 55, 0
13, 92640, Note_on_c, 15, 43, 76
13, 92640, Note_on_c, 15, 55, 76
13, 92640, Note_on_c, 15, 59, 76
13, 92640, Note_on_c, 15, 62, 76
13, 92879, Note_on_c, 15, 43, 0
13, 92879, Note_on_c, 15, 55, 0
13, 92879, Note_on_c, 15, 59, 0
13, 92879, Note_on_c, 15, 62, 0
13, 92880, Note_on_c, 15, 67, 76
13, 92880, Note_on_c, 15, 55, 76
13, 92880, Note_on_c, 15, 74, 76
13, 92880, Note_on_c, 15, 71, 76
13, 93119, Note_on_c, 15, 67, 0
13, 93119, Note_on_c, 15, 55, 0
13, 93119, Note_on_c, 15, 74, 0
13, 93119, Note_on_c, 15, 71, 0
13, 93120, Note_on_c, 15, 72, 76
13, 93120, Note_on_c, 15, 69, 76
13, 93120, Note_on_c, 15, 76, 76
13, 93120, Note_on_c, 15, 57, 76
13, 93359, Note_on_c, 15, 72, 0
13, 93359, Note_on_c, 15, 69, 0
13, 93359, Note_on_c, 15, 76, 0
13, 93359, Note_on_c, 15, 57, 0
13, 93360, Note_on_c, 15, 79, 76
13, 93360, Note_on_c, 15, 74, 76
13, 93360, Note_on_c, 15, 71, 76
13, 93360, Note_on_c, 15, 59, 76
13, 93599, Note_on_c, 15, 79, 0
13, 93599, Note_on_c, 15, 74, 0
13, 93599, Note_on_c, 15, 71, 0
13, 93599, Note_on_c, 15, 59, 0
13, 93600, Note_on_c, 15, 79, 76
13, 93600, Note_on_c, 15, 76, 76
13, 93600, Note_on_c, 15, 60, 76
13, 93600, Note_on_c, 15, 72, 76
13, 93839, Note_on_c, 15, 79, 0
13, 93839, Note_on_c, 15, 76, 0
13, 93839, Note_on_c, 15, 60, 0
13, 93839, Note_on_c, 15, 72, 0
13, 93840, Note_on_c, 15, 60, 76
13, 93840, Note_on_c, 15, 69, 76
13, 93840, Note_on_c, 15, 64, 76
13, 93840, Note_on_c, 15, 48, 76
13, 94079, Note_on_c, 15, 60, 0
13, 94079, Note_on_c, 15, 69, 0
13, 94079, Note_on_c, 15, 64, 0
13, 94079, Note_on_c, 15, 48, 0
13, 94080, Note_on_c, 15, 62, 76
13, 94080, Note_on_c, 15, 70, 76
13, 94080, Note_on_c, 15, 50, 76
13, 94080, Note_on_c, 15, 65, 76
13, 94319, Note_on_c, 15, 62, 0
13, 94319, Note_on_c, 15, 70, 0
13, 94319, Note_on_c, 15, 50, 0
13, 94319, Note_on_c, 15, 65, 0
13, 94320, Note_on_c, 15, 52, 76
13, 94320, Note_on_c, 15, 64, 76
13, 94320, Note_on_c, 15, 70, 76
13, 94320, Note_on_c, 15, 67, 76
13, 94320, Note_on_c, 15, 72, 76
13, 94559, Note_on_c, 15, 52, 0
13, 94559, Note_on_c, 15, 64, 0
13, 94559, Note_on_c, 15, 70, 0
13, 94559, Note_on_c, 15, 67, 0
13, 94559, Note_on_c, 15, 72, 0
13, 94560, Note_on_c, 15, 69, 76
13, 94560, Note_on_c, 15, 61, 76
13, 94560, Note_on_c, 15, 67, 76
13, 94560, Note_on_c, 15, 64, 76
13, 94560, Note_on_c, 15, 49, 76
13, 94799, Note_on_c, 15, 69, 0
13, 94799, Note_on_c, 15, 61, 0
13, 94799, Note_on_c, 15, 67, 0
13, 94799, Note_on_c, 15, 64, 0
13, 94799, Note_on_c, 15, 49, 0
13, 94800, Note_on_c, 15, 67, 76
13, 94800, Note_on_c, 15, 45, 76
13, 94800, Note_on_c, 15, 64, 76
13, 94800, Note_on_c, 15, 61, 76
13, 94800, Note_on_c, 15, 57, 76
13, 95039, Note_on_c, 15, 67, 0
13, 95039, Note_on_c, 15, 45, 0
13, 95039, Note_on_c, 15, 64, 0
13, 95039, Note_on_c, 15, 61, 0
13, 95039, Note_on_c, 15, 57, 0
13, 95040, Note_on_c, 15, 65, 76
13, 95040, Note_on_c, 15, 69, 76
13, 95040, Note_on_c, 15, 62, 76
13, 95040, Note_on_c, 15, 50, 76
13, 95279, Note_on_c, 15, 65, 0
13, 95279, Note_on_c, 15, 69, 0
13, 95279, Note_on_c, 15, 62, 0
13, 95279, Note_on_c, 15, 50, 0
13, 95280, Note_on_c, 15, 67, 76
13, 95280, Note_on_c, 15, 64, 76
13, 95280, Note_on_c, 15, 60, 76
13, 95280, Note_on_c, 15, 48, 76
13, 95519, Note_on_c, 15, 67, 0
13, 95519, Note_on_c, 15, 64, 0
13, 95519, Note_on_c, 15, 60, 0
13, 95519, Note_on_c, 15, 48, 0
13, 95520, Note_on_c, 15, 58, 76
13, 95520, Note_on_c, 15, 67, 76
13, 95520, Note_on_c, 15, 46, 76
13, 95520, Note_on_c, 15, 62, 76
13, 95759, Note_on_c, 15, 58, 0
13, 95759, Note_on_c, 15, 67, 0
13, 95759, Note_on_c, 15, 46, 0
13, 95759, Note_on_c, 15, 62, 0
13, 95760, Note_on_c, 15, 61, 76
13, 95760, Note_on_c, 15, 45, 76
13, 95760, Note_on_c, 15, 57, 76
13, 95760, Note_on_c, 15, 64, 76
13, 95999, Note_on_c, 15, 61, 0
13, 95999, Note_on_c, 15, 45, 0
13, 95999, Note_on_c, 15, 57, 0
13, 95999, Note_on_c, 15, 64, 0
13, 96000, Note_on_c, 15, 61, 76
13, 96000, Note_on_c, 15, 49, 76
13, 96000, Note_on_c, 15, 64, 76
13, 96000, Note_on_c, 15, 67, 76
13, 96239, Note_on_c, 15, 61, 0
13, 96239, Note_on_c, 15, 49, 0
13, 96239, Note_on_c, 15, 64, 0
13, 96239, Note_on_c, 15, 67, 0
13, 96240, Note_on_c, 15, 52, 76
13, 96240, Note_on_c, 15, 71, 76
13, 96240, Note_on_c, 15, 64, 76
13, 96240, Note_on_c, 15, 67, 76
13, 96479, Note_on_c, 15, 52, 0
13, 96479, Note_on_c, 15, 71, 0
13, 96479, Note_on_c, 15, 64, 0
13, 96479, Note_on_c, 15, 67, 0
13, 96480, Note_on_c, 15, 76, 76
13, 96480, Note_on_c, 15, 69, 76
13, 96480, Note_on_c, 15, 67, 76
13, 96480, Note_on_c, 15, 55, 76
13, 96480, Note_on_c, 15, 73, 76
13, 96959, Note_on_c, 15, 76, 0
13, 96959, Note_on_c, 15, 69, 0
13, 96959, Note_on_c, 15, 67, 0
13, 96959, Note_on_c, 15, 55, 0
13, 96959, Note_on_c, 15, 73, 0
13, 97200, Note_on_c, 15, 67, 76
13, 97200, Note_on_c, 15, 55, 76
13, 97200, Note_on_c, 15, 74, 76
13, 97200, Note_on_c, 15, 71, 76
13, 97439, Note_on_c, 15, 67, 0
13, 97439, Note_on_c, 15, 55, 0
13, 97439, Note_on_c, 15, 74, 0
13, 97439, Note_on_c, 15, 71, 0
13, 97440, Note_on_c, 15, 64, 76
13, 97440, Note_on_c, 15, 52, 76
13, 97440, Note_on_c, 15, 67, 76
13, 97440, Note_on_c, 15, 71, 76
13, 97679, Note_on_c, 15, 64, 0
13, 97679, Note_on_c, 15, 52, 0
13, 97679, Note_on_c, 15, 67, 0
13, 97679, Note_on_c, 15, 71, 0
13, 97680, Note_on_c, 15, 64, 76
13, 97680, Note_on_c, 15, 49, 76
13, 97680, Note_on_c, 15, 61, 76
13, 97680, Note_on_c, 15, 67, 76
13, 97919, Note_on_c, 15, 64, 0
13, 97919, Note_on_c, 15, 49, 0
13, 97919, Note_on_c, 15, 61, 0
13, 97919, Note_on_c, 15, 67, 0
13, 97920, Note_on_c, 15, 60, 76
13, 97920, Note_on_c, 15, 57, 76
13, 97920, Note_on_c, 15, 64, 76
13, 97920, Note_on_c, 15, 45, 76
13, 98399, Note_on_c, 15, 60, 0
13, 98399, Note_on_c, 15, 57, 0
13, 98399, Note_on_c, 15, 64, 0
13, 98399, Note_on_c, 15, 45, 0
13, 98640, Note_on_c, 15, 65, 76
13, 98640, Note_on_c, 15, 58, 76
13, 98640, Note_on_c, 15, 62, 76
13, 98640, Note_on_c, 15, 46, 76
13, 98879, Note_on_c, 15, 65, 0
13, 98879, Note_on_c, 15, 58, 0
13, 98879, Note_on_c, 15, 62, 0
13, 98879, Note_on_c, 15, 46, 0
13, 98880, Note_on_c, 15, 70, 76
13, 98880, Note_on_c, 15, 58, 76
13, 98880, Note_on_c, 15, 74, 76
13, 98880, Note_on_c, 15, 77, 76
13, 99119, Note_on_c, 15, 70, 0
13, 99119, Note_on_c, 15, 58, 0
13, 99119, Note_on_c, 15, 74, 0
13, 99119, Note_on_c, 15, 77, 0
13, 99120, Note_on_c, 15, 77, 76
13, 99120, Note_on_c, 15, 57, 76
13, 99120, Note_on_c, 15, 74, 76
13, 99120, Note_on_c, 15, 69, 76
13, 99359, Note_on_c, 15, 77, 0
13, 99359, Note_on_c, 15, 57, 0
13, 99359, Note_on_c, 15, 74, 0
13, 99359, Note_on_c, 15, 69, 0
13, 99360, Note_on_c, 15, 55, 76
13, 99360, Note_on_c, 15, 67, 76
13, 99360, Note_on_c, 15, 70, 76
13, 99360, Note_on_c, 15, 74, 76
13, 99599, Note_on_c, 15, 55, 0
13, 99599, Note_on_c, 15, 67, 0
13, 99599, Note_on_c, 15, 70, 0
13, 99599, Note_on_c, 15, 74, 0
13, 99600, Note_on_c, 15, 67, 76
13, 99600, Note_on_c, 15, 49, 76
13, 99600, Note_on_c, 15, 64, 76
13, 99600, Note_on_c, 15, 61, 76
13, 99600, Note_on_c, 15, 69, 76
13, 99839, Note_on_c, 15, 67, 0
13, 99839, Note_on_c, 15, 49, 0
13, 99839, Note_on_c, 15, 64, 0
13, 99839, Note_on_c, 15, 61, 0
13, 99839, Note_on_c, 15, 69, 0
13, 99840, Note_on_c, 15, 62, 76
13, 99840, Note_on_c, 15, 69, 76
13, 99840, Note_on_c, 15, 65, 76
13, 99840, Note_on_c, 15, 50, 76
13, 100079, Note_on_c, 15, 62, 0
13, 100079, Note_on_c, 15, 69, 0
13, 100079, Note_on_c, 15, 65, 0
13, 100079, Note_on_c, 15, 50, 0
13, 100080, Note_on_c, 15, 65, 76
13, 100080, Note_on_c, 15, 46, 76
13, 100080, Note_on_c, 15, 62, 76
13, 100080, Note_on_c, 15, 58, 76
13, 100319, Note_on_c, 15, 65, 0
13, 100319, Note_on_c, 15, 46, 0
13, 100319, Note_on_c, 15, 62, 0
13, 100319, Note_on_c, 15, 58, 0
13, 100320, Note_on_c, 15, 58, 76
13, 100320, Note_on_c, 15, 55, 76
13, 100320, Note_on_c, 15, 43, 76
13, 100320, Note_on_c, 15, 64, 76
13, 100559, Note_on_c, 15, 58, 0
13, 100559, Note_on_c, 15, 55, 0
13, 100559, Note_on_c, 15, 43, 0
13, 100559, Note_on_c, 15, 64, 0
13, 100560, Note_on_c, 15, 64, 76
13, 100560, Note_on_c, 15, 57, 76
13, 100560, Note_on_c, 15, 45, 76
13, 100560, Note_on_c, 15, 61, 76
13, 100799, Note_on_c, 15, 64, 0
13, 100799, Note_on_c, 15, 57, 0
13, 100799, Note_on_c, 15, 45, 0
13, 100799, Note_on_c, 15, 61, 0
13, 100800, Note_on_c, 15, 69, 76
13, 100800, Note_on_c, 15, 65, 76
13, 100800, Note_on_c, 15, 50, 76
13, 100800, Note_on_c, 15, 62, 76
13, 101039, Note_on_c, 15, 69, 0
13, 101039, Note_on_c, 15, 65, 0
13, 101039, Note_on_c, 15, 50, 0
13, 101039, Note_on_c, 15, 62, 0
13, 101040, Note_on_c, 15, 50, 76
13, 101040, Note_on_c, 15, 53, 76
13, 101040, Note_on_c, 15, 57, 76
13, 101040, Note_on_c, 15, 38, 76
13, 101279, Note_on_c, 15, 50, 0
13, 101279, Note_on_c, 15, 53, 0
13, 101279, Note_on_c, 15, 57, 0
13, 101279, Note_on_c, 15, 38, 0
13, 101280, Note_on_c, 15, 69, 76
13, 101280, Note_on_c, 15, 66, 76
13, 101280, Note_on_c, 15, 62, 76
13, 101280, Note_on_c, 15, 50, 76
13, 101519, Note_on_c, 15, 69, 0
13, 101519, Note_on_c, 15, 66, 0
13, 101519, Note_on_c, 15, 62, 0
13, 101519, Note_on_c, 15, 50, 0
13, 101520, Note_on_c, 15, 52, 76
13, 101520, Note_on_c, 15, 64, 76
13, 101520, Note_on_c, 15, 72, 76
13, 101520, Note_on_c, 15, 67, 76
13, 101759, Note_on_c, 15, 52, 0
13, 101759, Note_on_c, 15, 64, 0
13, 101759, Note_on_c, 15, 72, 0
13, 101759, Note_on_c, 15, 67, 0
13, 101760, Note_on_c, 15, 54, 76
13, 101760, Note_on_c, 15, 66, 76
13, 101760, Note_on_c, 15, 74, 76
13, 101760, Note_on_c, 15, 69, 76
13, 101999, Note_on_c, 15, 54, 0
13, 101999, Note_on_c, 15, 66, 0
13, 101999, Note_on_c, 15, 74, 0
13, 101999, Note_on_c, 15, 69, 0
13, 102000, Note_on_c, 15, 69, 76
13, 102000, Note_on_c, 15, 66, 76
13, 102000, Note_on_c, 15, 50, 76
13, 102000, Note_on_c, 15, 72, 76
13, 102000, Note_on_c, 15, 62, 76
13, 102239, Note_on_c, 15, 69, 0
13, 102239, Note_on_c, 15, 66, 0
13, 102239, Note_on_c, 15, 50, 0
13, 102239, Note_on_c, 15, 72, 0
13, 102239, Note_on_c, 15, 62, 0
13, 102240, Note_on_c, 15, 67, 76
13, 102240, Note_on_c, 15, 55, 76
13, 102240, Note_on_c, 15, 71, 76
13, 102240, Note_on_c, 15, 74, 76
13, 102479, Note_on_c, 15, 67, 0
13, 102479, Note_on_c, 15, 55, 0
13, 102479, Note_on_c, 15, 71, 0
13, 102479, Note_on_c, 15, 74, 0
13, 102480, Note_on_c, 15, 55, 76
13, 102480, Note_on_c, 15, 59, 76
13, 102480, Note_on_c, 15, 43, 76
13, 102480, Note_on_c, 15, 62, 76
13, 102719, Note_on_c, 15, 55, 0
13, 102719, Note_on_c, 15, 59, 0
13, 102719, Note_on_c, 15, 43, 0
13, 102719, Note_on_c, 15, 62, 0
13, 102720, Note_on_c, 15, 65, 76
13, 102720, Note_on_c, 15, 45, 76
13, 102720, Note_on_c, 15, 57, 76
13, 102720, Note_on_c, 15, 60, 76
13, 102959, Note_on_c, 15, 65, 0
13, 102959, Note_on_c, 15, 45, 0
13, 102959, Note_on_c, 15, 57, 0
13, 102959, Note_on_c, 15, 60, 0
13, 102960, Note_on_c, 15, 47, 76
13, 102960, Note_on_c, 15, 59, 76
13, 102960, Note_on_c, 15, 62, 76
13, 102960, Note_on_c, 15, 67, 76
13, 102960, Note_on_c, 15, 65, 76
13, 103199, Note_on_c, 15, 47, 0
13, 103199, Note_on_c, 15, 59, 0
13, 103199, Note_on_c, 15, 62, 0
13, 103199, Note_on_c, 15, 67, 0
13, 103199, Note_on_c, 15, 65, 0
13, 103200, Note_on_c, 15, 65, 76
13, 103200, Note_on_c, 15, 62, 76
13, 103200, Note_on_c, 15, 55, 76
13, 103200, Note_on_c, 15, 59, 76
13, 103200, Note_on_c, 15, 43, 76
13, 103439, Note_on_c, 15, 65, 0
13, 103439, Note_on_c, 15, 62, 0
13, 103439, Note_on_c, 15, 55, 0
13, 103439, Note_on_c, 15, 59, 0
13, 103439, Note_on_c, 15, 43, 0
13, 103440, Note_on_c, 15, 48, 76
13, 103440, Note_on_c, 15, 64, 76
13, 103440, Note_on_c, 15, 67, 76
13, 103440, Note_on_c, 15, 60, 76
13, 103679, Note_on_c, 15, 48, 0
13, 103679, Note_on_c, 15, 64, 0
13, 103679, Note_on_c, 15, 67, 0
13, 103679, Note_on_c, 15, 60, 0
13, 103680, Note_on_c, 15, 55, 76
13, 103680, Note_on_c, 15, 62, 76
13, 103680, Note_on_c, 15, 59, 76
13, 103680, Note_on_c, 15, 43, 76
13, 104159, Note_on_c, 15, 55, 0
13, 104159, Note_on_c, 15, 62, 0
13, 104159, Note_on_c, 15, 59, 0
13, 104159, Note_on_c, 15, 43, 0
13, 104160, Note_on_c, 15, 71, 76
13, 104160, Note_on_c, 15, 74, 76
13, 104160, Note_on_c, 15, 55, 76
13, 104160, Note_on_c, 15, 67, 76
13, 104399, Note_on_c, 15, 71, 0
13, 104399, Note_on_c, 15, 74, 0
13, 104399, Note_on_c, 15, 55, 0
13, 104399, Note_on_c, 15, 67, 0
13, 104400, Note_on_c, 15, 69, 76
13, 104400, Note_on_c, 15, 77, 76
13, 104400, Note_on_c, 15, 57, 76
13, 104400, Note_on_c, 15, 72, 76
13, 104519, Note_on_c, 15, 69, 0
13, 104519, Note_on_c, 15, 77, 0
13, 104519, Note_on_c, 15, 57, 0
13, 104519, Note_on_c, 15, 72, 0
13, 104520, Note_on_c, 15, 74, 76
13, 104520, Note_on_c, 15, 67, 76
13, 104520, Note_on_c, 15, 71, 76
13, 104520, Note_on_c, 15, 55, 76
13, 104639, Note_on_c, 15, 74, 0
13, 104639, Note_on_c, 15, 67, 0
13, 104639, Note_on_c, 15, 71, 0
13, 104639, Note_on_c, 15, 55, 0
13, 104640, Note_on_c, 15, 72, 76
13, 104640, Note_on_c, 15, 53, 76
13, 104640, Note_on_c, 15, 69, 76
13, 104640, Note_on_c, 15, 65, 76
13, 104759, Note_on_c, 15, 72, 0
13, 104759, Note_on_c, 15, 53, 0
13, 104759, Note_on_c, 15, 69, 0
13, 104759, Note_on_c, 15, 65, 0
13, 104760, Note_on_c, 15, 71, 76
13, 104760, Note_on_c, 15, 52, 76
13, 104760, Note_on_c, 15, 64, 76
13, 104760, Note_on_c, 15, 67, 76
13, 104879, Note_on_c, 15, 71, 0
13, 104879, Note_on_c, 15, 52, 0
13, 104879, Note_on_c, 15, 64, 0
13, 104879, Note_on_c, 15, 67, 0
13, 104880, Note_on_c, 15, 53, 76
13, 104880, Note_on_c, 15, 74, 76
13, 104880, Note_on_c, 15, 65, 76
13, 104880, Note_on_c, 15, 71, 76
13, 104880, Note_on_c, 15, 67, 76
13, 104999, Note_on_c, 15, 53, 0
13, 104999, Note_on_c, 15, 74, 0
13, 104999, Note_on_c, 15, 65, 0
13, 104999, Note_on_c, 15, 71, 0
13, 104999, Note_on_c, 15, 67, 0
13, 105000, Note_on_c, 15, 65, 76
13, 105000, Note_on_c, 15, 50, 76
13, 105000, Note_on_c, 15, 62, 76
13, 105000, Note_on_c, 15, 69, 76
13, 105119, Note_on_c, 15, 65, 0
13, 105119, Note_on_c, 15, 50, 0
13, 105119, Note_on_c, 15, 62, 0
13, 105119, Note_on_c, 15, 69, 0
13, 105120, Note_on_c, 15, 64, 76
13, 105120, Note_on_c, 15, 67, 76
13, 105120, Note_on_c, 15, 52, 76
13, 105120, Note_on_c, 15, 72, 76
13, 105359, Note_on_c, 15, 64, 0
13, 105359, Note_on_c, 15, 67, 0
13, 105359, Note_on_c, 15, 52, 0
13, 105359, Note_on_c, 15, 72, 0
13, 105360, Note_on_c, 15, 50, 76
13, 105360, Note_on_c, 15, 62, 76
13, 105360, Note_on_c, 15, 70, 76
13, 105360, Note_on_c, 15, 65, 76
13, 105599, Note_on_c, 15, 50, 0
13, 105599, Note_on_c, 15, 62, 0
13, 105599, Note_on_c, 15, 70, 0
13, 105599, Note_on_c, 15, 65, 0
13, 105600, Note_on_c, 15, 64, 76
13, 105600, Note_on_c, 15, 70, 76
13, 105600, Note_on_c, 15, 48, 76
13, 105600, Note_on_c, 15, 67, 76
13, 105600, Note_on_c, 15, 60, 76
13, 105839, Note_on_c, 15, 64, 0
13, 105839, Note_on_c, 15, 70, 0
13, 105839, Note_on_c, 15, 48, 0
13, 105839, Note_on_c, 15, 67, 0
13, 105839, Note_on_c, 15, 60, 0
13, 105840, Note_on_c, 15, 65, 76
13, 105840, Note_on_c, 15, 72, 76
13, 105840, Note_on_c, 15, 53, 76
13, 105840, Note_on_c, 15, 69, 76
13, 106079, Note_on_c, 15, 65, 0
13, 106079, Note_on_c, 15, 72, 0
13, 106079, Note_on_c, 15, 53, 0
13, 106079, Note_on_c, 15, 69, 0
13, 106080, Note_on_c, 15, 69, 76
13, 106080, Note_on_c, 15, 50, 76
13, 106080, Note_on_c, 15, 65, 76
13, 106080, Note_on_c, 15, 62, 76
13, 106319, Note_on_c, 15, 69, 0
13, 106319, Note_on_c, 15, 50, 0
13, 106319, Note_on_c, 15, 65, 0
13, 106319, Note_on_c, 15, 62, 0
13, 106320, Note_on_c, 15, 71, 76
13, 106320, Note_on_c, 15, 74, 76
13, 106320, Note_on_c, 15, 55, 76
13, 106320, Note_on_c, 15, 67, 76
13, 106559, Note_on_c, 15, 71, 0
13, 106559, Note_on_c, 15, 74, 0
13, 106559, Note_on_c, 15, 55, 0
13, 106559, Note_on_c, 15, 67, 0
13, 106560, Note_on_c, 15, 67, 76
13, 106560, Note_on_c, 15, 48, 76
13, 106560, Note_on_c, 15, 60, 76
13, 106560, Note_on_c, 15, 64, 76
13, 107039, Note_on_c, 15, 67, 0
13, 107039, Note_on_c, 15, 48, 0
13, 107039, Note_on_c, 15, 60, 0
13, 107039, Note_on_c, 15, 64, 0
13, 107040, Note_on_c, 15, 43, 76
13, 107040, Note_on_c, 15, 55, 76
13, 107040, Note_on_c, 15, 59, 76
13, 107040, Note_on_c, 15, 62, 76
13, 107279, Note_on_c, 15, 43, 0
13, 107279, Note_on_c, 15, 55, 0
13, 107279, Note_on_c, 15, 59, 0
13, 107279, Note_on_c, 15, 62, 0
13, 107280, Note_on_c, 15, 67, 76
13, 107280, Note_on_c, 15, 71, 76
13, 107280, Note_on_c, 15, 74, 76
13, 107280, Note_on_c, 15, 55, 76
13, 107519, Note_on_c, 15, 67, 0
13, 107519, Note_on_c, 15, 71, 0
13, 107519, Note_on_c, 15, 74, 0
13, 107519, Note_on_c, 15, 55, 0
13, 107520, Note_on_c, 15, 69, 76
13, 107520, Note_on_c, 15, 57, 76
13, 107520, Note_on_c, 15, 76, 76
13, 107520, Note_on_c, 15, 72, 76
13, 107759, Note_on_c, 15, 69, 0
13, 107759, Note_on_c, 15, 57, 0
13, 107759, Note_on_c, 15, 76, 0
13, 107759, Note_on_c, 15, 72, 0
13, 107760, Note_on_c, 15, 74, 76
13, 107760, Note_on_c, 15, 71, 76
13, 107760, Note_on_c, 15, 59, 76
13, 107760, Note_on_c, 15, 79, 76
13, 107999, Note_on_c, 15, 74, 0
13, 107999, Note_on_c, 15, 71, 0
13, 107999, Note_on_c, 15, 59, 0
13, 107999, Note_on_c, 15, 79, 0
13, 108000, Note_on_c, 15, 72, 76
13, 108000, Note_on_c, 15, 76, 76
13, 108000, Note_on_c, 15, 79, 76
13, 108000, Note_on_c, 15, 60, 76
13, 108239, Note_on_c, 15, 72, 0
13, 108239, Note_on_c, 15, 76, 0
13, 108239, Note_on_c, 15, 79, 0
13, 108239, Note_on_c, 15, 60, 0
13, 108240, Note_on_c, 15, 60, 76
13, 108240, Note_on_c, 15, 69, 76
13, 108240, Note_on_c, 15, 48, 76
13, 108240, Note_on_c, 15, 64, 76
13, 108479, Note_on_c, 15, 60, 0
13, 108479, Note_on_c, 15, 69, 0
13, 108479, Note_on_c, 15, 48, 0
13, 108479, Note_on_c, 15, 64, 0
13, 108480, Note_on_c, 15, 70, 76
13, 108480, Note_on_c, 15, 65, 76
13, 108480, Note_on_c, 15, 62, 76
13, 108480, Note_on_c, 15, 50, 76
13, 108719, Note_on_c, 15, 70, 0
13, 108719, Note_on_c, 15, 65, 0
13, 108719, Note_on_c, 15, 62, 0
13, 108719, Note_on_c, 15, 50, 0
13, 108720, Note_on_c, 15, 67, 76
13, 108720, Note_on_c, 15, 72, 76
13, 108720, Note_on_c, 15, 52, 76
13, 108720, Note_on_c, 15, 64, 76
13, 108720, Note_on_c, 15, 70, 76
13, 108959, Note_on_c, 15, 67, 0
13, 108959, Note_on_c, 15, 72, 0
13, 108959, Note_on_c, 15, 52, 0
13, 108959, Note_on_c, 15, 64, 0
13, 108959, Note_on_c, 15, 70, 0
13, 108960, Note_on_c, 15, 64, 76
13, 108960, Note_on_c, 15, 69, 76
13, 108960, Note_on_c, 15, 49, 76
13, 108960, Note_on_c, 15, 67, 76
13, 108960, Note_on_c, 15, 61, 76
13, 109199, Note_on_c, 15, 64, 0
13, 109199, Note_on_c, 15, 69, 0
13, 109199, Note_on_c, 15, 49, 0
13, 109199, Note_on_c, 15, 67, 0
13, 109199, Note_on_c, 15, 61, 0
13, 109200, Note_on_c, 15, 45, 76
13, 109200, Note_on_c, 15, 64, 76
13, 109200, Note_on_c, 15, 67, 76
13, 109200, Note_on_c, 15, 61, 76
13, 109200, Note_on_c, 15, 57, 76
13, 109439, Note_on_c, 15, 45, 0
13, 109439, Note_on_c, 15, 64, 0
13, 109439, Note_on_c, 15, 67, 0
13, 109439, Note_on_c, 15, 61, 0
13, 109439, Note_on_c, 15, 57, 0
13, 109440, Note_on_c, 15, 62, 76
13, 109440, Note_on_c, 15, 65, 76
13, 109440, Note_on_c, 15, 69, 76
13, 109440, Note_on_c, 15, 50, 76
13, 109679, Note_on_c, 15, 62, 0
13, 109679, Note_on_c, 15, 65, 0
13, 109679, Note_on_c, 15, 69, 0
13, 109679, Note_on_c, 15, 50, 0
13, 109680, Note_on_c, 15, 60, 76
13, 109680, Note_on_c, 15, 67, 76
13, 109680, Note_on_c, 15, 48, 76
13, 109680, Note_on_c, 15, 64, 76
13, 109919, Note_on_c, 15, 60, 0
13, 109919, Note_on_c, 15, 67, 0
13, 109919, Note_on_c, 15, 48, 0
13, 109919, Note_on_c, 15, 64, 0
13, 109920, Note_on_c, 15, 67, 76
13, 109920, Note_on_c, 15, 46, 76
13, 109920, Note_on_c, 15, 58, 76
13, 109920, Note_on_c, 15, 62, 76
13, 110159, Note_on_c, 15, 67, 0
13, 110159, Note_on_c, 15, 46, 0
13, 110159, Note_on_c, 15, 58, 0
13, 110159, Note_on_c, 15, 62, 0
13, 110160, Note_on_c, 15, 61, 76
13, 110160, Note_on_c, 15, 64, 76
13, 110160, Note_on_c, 15, 45, 76
13, 110160, Note_on_c, 15, 57, 76
13, 110399, Note_on_c, 15, 61, 0
13, 110399, Note_on_c, 15, 64, 0
13, 110399, Note_on_c, 15, 45, 0
13, 110399, Note_on_c, 15, 57, 0
13, 110400, Note_on_c, 15, 67, 76
13, 110400, Note_on_c, 15, 64, 76
13, 110400, Note_on_c, 15, 61, 76
13, 110400, Note_on_c, 15, 49, 76
13, 110639, Note_on_c, 15, 67, 0
13, 110639, Note_on_c, 15, 64, 0
13, 110639, Note_on_c, 15, 61, 0
13, 110639, Note_on_c, 15, 49, 0
13, 110640, Note_on_c, 15, 52, 76
13, 110640, Note_on_c, 15, 67, 76
13, 110640, Note_on_c, 15, 64, 76
13, 110640, Note_on_c, 15, 71, 76
13, 110879, Note_on_c, 15, 52, 0
13, 110879, Note_on_c, 15, 67, 0
13, 110879, Note_on_c, 15, 64, 0
13, 110879, Note_on_c, 15, 71, 0
13, 110880, Note_on_c, 15, 73, 76
13, 110880, Note_on_c, 15, 55, 76
13, 110880, Note_on_c, 15, 76, 76
13, 110880, Note_on_c, 15, 67, 76
13, 110880, Note_on_c, 15, 69, 76
13, 111359, Note_on_c, 15, 73, 0
13, 111359, Note_on_c, 15, 55, 0
13, 111359, Note_on_c, 15, 76, 0
13, 111359, Note_on_c, 15, 67, 0
13, 111359, Note_on_c, 15, 69, 0
13, 111600, Note_on_c, 15, 55, 76
13, 111600, Note_on_c, 15, 67, 76
13, 111600, Note_on_c, 15, 74, 76
13, 111600, Note_on_c, 15, 71, 76
13, 111839, Note_on_c, 15, 55, 0
13, 111839, Note_on_c, 15, 67, 0
13, 111839, Note_on_c, 15, 74, 0
13, 111839, Note_on_c, 15, 71, 0
13, 111840, Note_on_c, 15, 67, 76
13, 111840, Note_on_c, 15, 71, 76
13, 111840, Note_on_c, 15, 52, 76
13, 111840, Note_on_c, 15, 64, 76
13, 112079, Note_on_c, 15, 67, 0
13, 112079, Note_on_c, 15, 71, 0
13, 112079, Note_on_c, 15, 52, 0
13, 112079, Note_on_c, 15, 64, 0
13, 112080, Note_on_c, 15, 67, 76
13, 112080, Note_on_c, 15, 49, 76
13, 112080, Note_on_c, 15, 64, 76
13, 112080, Note_on_c, 15, 61, 76
13, 112319, Note_on_c, 15, 67, 0
13, 112319, Note_on_c, 15, 49, 0
13, 112319, Note_on_c, 15, 64, 0
13, 112319, Note_on_c, 15, 61, 0
13, 112320, Note_on_c, 15, 64, 76
13, 112320, Note_on_c, 15, 57, 76
13, 112320, Note_on_c, 15, 60, 76
13, 112320, Note_on_c, 15, 45, 76
13, 112799, Note_on_c, 15, 64, 0
13, 112799, Note_on_c, 15, 57, 0
13, 112799, Note_on_c, 15, 60, 0
13, 112799, Note_on_c, 15, 45, 0
13, 113040, Note_on_c, 15, 65, 76
13, 113040, Note_on_c, 15, 46, 76
13, 113040, Note_on_c, 15, 58, 76
13, 113040, Note_on_c, 15, 62, 76
13, 113279, Note_on_c, 15, 65, 0
13, 113279, Note_on_c, 15, 46, 0
13, 113279, Note_on_c, 15, 58, 0
13, 113279, Note_on_c, 15, 62, 0
13, 113280, Note_on_c, 15, 58, 76
13, 113280, Note_on_c, 15, 77, 76
13, 113280, Note_on_c, 15, 70, 76
13, 113280, Note_on_c, 15, 74, 76
13, 113519, Note_on_c, 15, 58, 0
13, 113519, Note_on_c, 15, 77, 0
13, 113519, Note_on_c, 15, 70, 0
13, 113519, Note_on_c, 15, 74, 0
13, 113520, Note_on_c, 15, 57, 76
13, 113520, Note_on_c, 15, 77, 76
13, 113520, Note_on_c, 15, 74, 76
13, 113520, Note_on_c, 15, 69, 76
13, 113759, Note_on_c, 15, 57, 0
13, 113759, Note_on_c, 15, 77, 0
13, 113759, Note_on_c, 15, 74, 0
13, 113759, Note_on_c, 15, 69, 0
13, 113760, Note_on_c, 15, 70, 76
13, 113760, Note_on_c, 15, 55, 76
13, 113760, Note_on_c, 15, 74, 76
13, 113760, Note_on_c, 15, 67, 76
13, 113999, Note_on_c, 15, 70, 0
13, 113999, Note_on_c, 15, 55, 0
13, 113999, Note_on_c, 15, 74, 0
13, 113999, Note_on_c, 15, 67, 0
13, 114000, Note_on_c, 15, 61, 76
13, 114000, Note_on_c, 15, 49, 76
13, 114000, Note_on_c, 15, 64, 76
13, 114000, Note_on_c, 15, 67, 76
13, 114000, Note_on_c, 15, 69, 76
13, 114239, Note_on_c, 15, 61, 0
13, 114239, Note_on_c, 15, 49, 0
13, 114239, Note_on_c, 15, 64, 0
13, 114239, Note_on_c, 15, 67, 0
13, 114239, Note_on_c, 15, 69, 0
13, 114240, Note_on_c, 15, 50, 76
13, 114240, Note_on_c, 15, 69, 76
13, 114240, Note_on_c, 15, 62, 76
13, 114240, Note_on_c, 15, 65, 76
13, 114479, Note_on_c, 15, 50, 0
13, 114479, Note_on_c, 15, 69, 0
13, 114479, Note_on_c, 15, 62, 0
13, 114479, Note_on_c, 15, 65, 0
13, 114480, Note_on_c, 15, 65, 76
13, 114480, Note_on_c, 15, 46, 76
13, 114480, Note_on_c, 15, 58, 76
13, 114480, Note_on_c, 15, 62, 76
13, 114719, Note_on_c, 15, 65, 0
13, 114719, Note_on_c, 15, 46, 0
13, 114719, Note_on_c, 15, 58, 0
13, 114719, Note_on_c, 15, 62, 0
13, 114720, Note_on_c, 15, 55, 76
13, 114720, Note_on_c, 15, 64, 76
13, 114720, Note_on_c, 15, 43, 76
13, 114720, Note_on_c, 15, 58, 76
13, 114959, Note_on_c, 15, 55, 0
13, 114959, Note_on_c, 15, 64, 0
13, 114959, Note_on_c, 15, 43, 0
13, 114959, Note_on_c, 15, 58, 0
13, 114960, Note_on_c, 15, 64, 76
13, 114960, Note_on_c, 15, 61, 76
13, 114960, Note_on_c, 15, 57, 76
13, 114960, Note_on_c, 15, 45, 76
13, 115199, Note_on_c, 15, 64, 0
13, 115199, Note_on_c, 15, 61, 0
13, 115199, Note_on_c, 15, 57, 0
13, 115199, Note_on_c, 15, 45, 0
13, 115200, Note_on_c, 15, 50, 76
13, 115200, Note_on_c, 15, 65, 76
13, 115200, Note_on_c, 15, 69, 76
13, 115200, Note_on_c, 15, 62, 76
13, 115439, Note_on_c, 15, 50, 0
13, 115439, Note_on_c, 15, 65, 0
13, 115439, Note_on_c, 15, 69, 0
13, 115439, Note_on_c, 15, 62, 0
13, 115440, Note_on_c, 15, 38, 76
13, 115440, Note_on_c, 15, 53, 76
13, 115440, Note_on_c, 15, 57, 76
13, 115440, Note_on_c, 15, 50, 76
13, 115679, Note_on_c, 15, 38, 0
13, 115679, Note_on_c, 15, 53, 0
13, 115679, Note_on_c, 15, 57, 0
13, 115679, Note_on_c, 15, 50, 0
13, 115680, Note_on_c, 15, 69, 76
13, 115680, Note_on_c, 15, 62, 76
13, 115680, Note_on_c, 15, 50, 76
13, 115680, Note_on_c, 15, 66, 76
13, 115919, Note_on_c, 15, 69, 0
13, 115919, Note_on_c, 15, 62, 0
13, 115919, Note_on_c, 15, 50, 0
13, 115919, Note_on_c, 15, 66, 0
13, 115920, Note_on_c, 15, 67, 76
13, 115920, Note_on_c, 15, 64, 76
13, 115920, Note_on_c, 15, 52, 76
13, 115920, Note_on_c, 15, 72, 76
13, 116159, Note_on_c, 15, 67, 0
13, 116159, Note_on_c, 15, 64, 0
13, 116159, Note_on_c, 15, 52, 0
13, 116159, Note_on_c, 15, 72, 0
13, 116160, Note_on_c, 15, 66, 76
13, 116160, Note_on_c, 15, 69, 76
13, 116160, Note_on_c, 15, 74, 76
13, 116160, Note_on_c, 15, 54, 76
13, 116399, Note_on_c, 15, 66, 0
13, 116399, Note_on_c, 15, 69, 0
13, 116399, Note_on_c, 15, 74, 0
13, 116399, Note_on_c, 15, 54, 0
13, 116400, Note_on_c, 15, 72, 76
13, 116400, Note_on_c, 15, 62, 76
13, 116400, Note_on_c, 15, 50, 76
13, 116400, Note_on_c, 15, 66, 76
13, 116400, Note_on_c, 15, 69, 76
13, 116639, Note_on_c, 15, 72, 0
13, 116639, Note_on_c, 15, 62, 0
13, 116639, Note_on_c, 15, 50, 0
13, 116639, Note_on_c, 15, 66, 0
13, 116639, Note_on_c, 15, 69, 0
13, 116640, Note_on_c, 15, 71, 76
13, 116640, Note_on_c, 15, 67, 76
13, 116640, Note_on_c, 15, 74, 76
13, 116640, Note_on_c, 15, 55, 76
13, 116879, Note_on_c, 15, 71, 0
13, 116879, Note_on_c, 15, 67, 0
13, 116879, Note_on_c, 15, 74, 0
13, 116879, Note_on_c, 15, 55, 0
13, 116880, Note_on_c, 15, 55, 76
13, 116880, Note_on_c, 15, 59, 76
13, 116880, Note_on_c, 15, 43, 76
13, 116880, Note_on_c, 15, 62, 76
13, 117119, Note_on_c, 15, 55, 0
13, 117119, Note_on_c, 15, 59, 0
13, 117119, Note_on_c, 15, 43, 0
13, 117119, Note_on_c, 15, 62, 0
13, 117120, Note_on_c, 15, 57, 76
13, 117120, Note_on_c, 15, 45, 76
13, 117120, Note_on_c, 15, 60, 76
13, 117120, Note_on_c, 15, 65, 76
13, 117359, Note_on_c, 15, 57, 0
13, 117359, Note_on_c, 15, 45, 0
13, 117359, Note_on_c, 15, 60, 0
13, 117359, Note_on_c, 15, 65, 0
13, 117360, Note_on_c, 15, 62, 76
13, 117360, Note_on_c, 15, 65, 76
13, 117360, Note_on_c, 15, 47, 76
13, 117360, Note_on_c, 15, 59, 76
13, 117360, Note_on_c, 15, 67, 76
13, 117599, Note_on_c, 15, 62, 0
13, 117599, Note_on_c, 15, 65, 0
13, 117599, Note_on_c, 15, 47, 0
13, 117599, Note_on_c, 15, 59, 0
13, 117599, Note_on_c, 15, 67, 0
13, 117600, Note_on_c, 15, 62, 76
13, 117600, Note_on_c, 15, 43, 76
13, 117600, Note_on_c, 15, 65, 76
13, 117600, Note_on_c, 15, 59, 76
13, 117600, Note_on_c, 15, 55, 76
13, 117839, Note_on_c, 15, 62, 0
13, 117839, Note_on_c, 15, 43, 0
13, 117839, Note_on_c, 15, 65, 0
13, 117839, Note_on_c, 15, 59, 0
13, 117839, Note_on_c, 15, 55, 0
13, 117840, Note_on_c, 15, 60, 76
13, 117840, Note_on_c, 15, 48, 76
13, 117840, Note_on_c, 15, 67, 76
13, 117840, Note_on_c, 15, 64, 76
13, 118079, Note_on_c, 15, 60, 0
13, 118079, Note_on_c, 15, 48, 0
13, 118079, Note_on_c, 15, 67, 0
13, 118079, Note_on_c, 15, 64, 0
13, 118080, Note_on_c, 15, 55, 76
13, 118080, Note_on_c, 15, 43, 76
13, 118080, Note_on_c, 15, 62, 76
13, 118080, Note_on_c, 15, 59, 76
13, 118559, Note_on_c, 15, 55, 0
13, 118559, Note_on_c, 15, 43, 0
13, 118559, Note_on_c, 15, 62, 0
13, 118559, Note_on_c, 15, 59, 0
13, 118560, Note_on_c, 15, 74, 76
13, 118560, Note_on_c, 15, 71, 76
13, 118560, Note_on_c, 15, 55, 76
13, 118560, Note_on_c, 15, 67, 76
13, 118799, Note_on_c, 15, 74, 0
13, 118799, Note_on_c, 15, 71, 0
13, 118799, Note_on_c, 15, 55, 0
13, 118799, Note_on_c, 15, 67, 0
13, 118800, Note_on_c, 15, 77, 76
13, 118800, Note_on_c, 15, 57, 76
13, 118800, Note_on_c, 15, 69, 76
13, 118800, Note_on_c, 15, 72, 76
13, 118919, Note_on_c, 15, 77, 0
13, 118919, Note_on_c, 15, 57, 0
13, 118919, Note_on_c, 15, 69, 0
13, 118919, Note_on_c, 15, 72, 0
13, 118920, Note_on_c, 15, 71, 76
13, 118920, Note_on_c, 15, 55, 76
13, 118920, Note_on_c, 15, 67, 76
13, 118920, Note_on_c, 15, 74, 76
13, 119039, Note_on_c, 15, 71, 0
13, 119039, Note_on_c, 15, 55, 0
13, 119039, Note_on_c, 15, 67, 0
13, 119039, Note_on_c, 15, 74, 0
13, 119040, Note_on_c, 15, 65, 76
13, 119040, Note_on_c, 15, 69, 76
13, 119040, Note_on_c, 15, 72, 76
13, 119040, Note_on_c, 15, 53, 76
13, 119159, Note_on_c, 15, 65, 0
13, 119159, Note_on_c, 15, 69, 0
13, 119159, Note_on_c, 15, 72, 0
13, 119159, Note_on_c, 15, 53, 0
13, 119160, Note_on_c, 15, 64, 76
13, 119160, Note_on_c, 15, 71, 76
13, 119160, Note_on_c, 15, 67, 76
13, 119160, Note_on_c, 15, 52, 76
13, 119279, Note_on_c, 15, 64, 0
13, 119279, Note_on_c, 15, 71, 0
13, 119279, Note_on_c, 15, 67, 0
13, 119279, Note_on_c, 15, 52, 0
13, 119280, Note_on_c, 15, 53, 76
13, 119280, Note_on_c, 15, 71, 76
13, 119280, Note_on_c, 15, 65, 76
13, 119280, Note_on_c, 15, 74, 76
13, 119280, Note_on_c, 15, 67, 76
13, 119399, Note_on_c, 15, 53, 0
13, 119399, Note_on_c, 15, 71, 0
13, 119399, Note_on_c, 15, 65, 0
13, 119399, Note_on_c, 15, 74, 0
13, 119399, Note_on_c, 15, 67, 0
13, 119400, Note_on_c, 15, 50, 76
13, 119400, Note_on_c, 15, 62, 76
13, 119400, Note_on_c, 15, 65, 76
13, 119400, Note_on_c, 15, 69, 76
13, 119519, Note_on_c, 15, 50, 0
13, 119519, Note_on_c, 15, 62, 0
13, 119519, Note_on_c, 15, 65, 0
13, 119519, Note_on_c, 15, 69, 0
13, 119520, Note_on_c, 15, 64, 76
13, 119520, Note_on_c, 15, 72, 76
13, 119520, Note_on_c, 15, 52, 76
13, 119520, Note_on_c, 15, 67, 76
13, 119759, Note_on_c, 15, 64, 0
13, 119759, Note_on_c, 15, 72, 0
13, 119759, Note_on_c, 15, 52, 0
13, 119759, Note_on_c, 15, 67, 0
13, 119760, Note_on_c, 15, 70, 76
13, 119760, Note_on_c, 15, 62, 76
13, 119760, Note_on_c, 15, 50, 76
13, 119760, Note_on_c, 15, 65, 76
13, 119999, Note_on_c, 15, 70, 0
13, 119999, Note_on_c, 15, 62, 0
13, 119999, Note_on_c, 15, 50, 0
13, 119999, Note_on_c, 15, 65, 0
13, 120000, Note_on_c, 15, 64, 76
13, 120000, Note_on_c, 15, 70, 76
13, 120000, Note_on_c, 15, 60, 76
13, 120000, Note_on_c, 15, 48, 76
13, 120000, Note_on_c, 15, 67, 76
13, 120239, Note_on_c, 15, 64, 0
13, 120239, Note_on_c, 15, 70, 0
13, 120239, Note_on_c, 15, 60, 0
13, 120239, Note_on_c, 15, 48, 0
13, 120239, Note_on_c, 15, 67, 0
13, 120240, Note_on_c, 15, 65, 76
13, 120240, Note_on_c, 15, 69, 76
13, 120240, Note_on_c, 15, 72, 76
13, 120240, Note_on_c, 15, 53, 76
13, 120479, Note_on_c, 15, 65, 0
13, 120479, Note_on_c, 15, 69, 0
13, 120479, Note_on_c, 15, 72, 0
13, 120479, Note_on_c, 15, 53, 0
13, 120480, Note_on_c, 15, 62, 76
13, 120480, Note_on_c, 15, 69, 76
13, 120480, Note_on_c, 15, 50, 76
13, 120480, Note_on_c, 15, 65, 76
13, 120719, Note_on_c, 15, 62, 0
13, 120719, Note_on_c, 15, 69, 0
13, 120719, Note_on_c, 15, 50, 0
13, 120719, Note_on_c, 15, 65, 0
13, 120720, Note_on_c, 15, 71, 76
13, 120720, Note_on_c, 15, 67, 76
13, 120720, Note_on_c, 15, 74, 76
13, 120720, Note_on_c, 15, 55, 76
13, 120959, Note_on_c, 15, 71, 0
13, 120959, Note_on_c, 15, 67, 0
13, 120959, Note_on_c, 15, 74, 0
13, 120959, Note_on_c, 15, 55, 0
13, 120960, Note_on_c, 15, 64, 76
13, 120960, Note_on_c, 15, 60, 76
13, 120960, Note_on_c, 15, 67, 76
13, 120960, Note_on_c, 15, 48, 76
13, 121439, Note_on_c, 15, 64, 0
13, 121439, Note_on_c, 15, 60, 0
13, 121439, Note_on_c, 15, 67, 0
13, 121439, Note_on_c, 15, 48, 0
13, 121439, End_track
14, 0, Start_track
14, 0, Title_t, "Johann Sebastian Bach - Orchestral Suite No. 1 in C Major, BWV1066 - No. 7 Passepied I and II"
14, 0, MIDI_port, 0
14, 0, End_track
0, 0, End_of_file
