0, 0, Header, 1, 14, 240
1, 0, Start_track
1, 0, Sequencer_specific, 10, 0, 0, 91, 35, 1, 0, 5, 6, 42, 0
1, 0, Title_t, "J. S. Bach - Orchestral Suite No.1 in C Major"
1, 0, Instrument_name_t, "Conductor Track"
1, 0, SMPTE_offset, 96, 0, 3, 0, 0
1, 0, MIDI_port, 0
1, 0, Marker_t, "Originally Sequenced 14 Aug 1999"
1, 0, Tempo, 1111111
1, 0, Key_signature, 0, "major"
1, 0, Time_signature, 4, 2, 24, 8
1, 29760, Tempo, 555555
1, 109440, Tempo, 1111111
1, 123840, Tempo, 555555
1, 203520, Tempo, 1111111
1, 217920, Tempo, 1250000
1, 218880, Tempo, 1000000
1, 220080, Tempo, 1000000
1, 220080, End_track
2, 0, Start_track
2, 0, Title_t, "1st Movement - Overture"
2, 0, MIDI_port, 0
2, 0, End_track
3, 0, Start_track
3, 0, Title_t, "Sequenced by D. L. Viens 19 Jan 2001"
3, 0, MIDI_port, 0
3, 0, End_track
4, 0, Start_track
4, 0, Title_t, "dlviens@empire.net"
4, 0, MIDI_port, 0
4, 0, End_track
5, 0, Start_track
5, 0, MIDI_port, 0
5, 0, End_track
6, 0, Start_track
6, 0, Title_t, "Oboe I"
6, 0, MIDI_port, 0
6, 0, Program_c, 0, 68
6, 0, Control_c, 0, 10, 55
6, 0, Control_c, 0, 11, 127
6, 0, Control_c, 0, 7, 80
6, 0, Note_on_c, 0, 76, 76
6, 531, Note_on_c, 0, 76, 0
6, 540, Note_on_c, 0, 74, 76
6, 591, Note_on_c, 0, 74, 0
6, 600, Note_on_c, 0, 76, 76
6, 651, Note_on_c, 0, 76, 0
6, 660, Note_on_c, 0, 77, 76
6, 711, Note_on_c, 0, 77, 0
6, 720, Note_on_c, 0, 79, 76
6, 771, Note_on_c, 0, 79, 0
6, 780, Note_on_c, 0, 77, 76
6, 831, Note_on_c, 0, 77, 0
6, 840, Note_on_c, 0, 79, 76
6, 891, Note_on_c, 0, 79, 0
6, 900, Note_on_c, 0, 81, 76
6, 951, Note_on_c, 0, 81, 0
6, 960, Note_on_c, 0, 74, 76
6, 1251, Note_on_c, 0, 74, 0
6, 1260, Note_on_c, 0, 74, 76
6, 1311, Note_on_c, 0, 74, 0
6, 1320, Note_on_c, 0, 76, 76
6, 1371, Note_on_c, 0, 76, 0
6, 1380, Note_on_c, 0, 77, 76
6, 1431, Note_on_c, 0, 77, 0
6, 1440, Note_on_c, 0, 79, 76
6, 1491, Note_on_c, 0, 79, 0
6, 1500, Note_on_c, 0, 77, 76
6, 1551, Note_on_c, 0, 77, 0
6, 1560, Note_on_c, 0, 76, 76
6, 1611, Note_on_c, 0, 76, 0
6, 1620, Note_on_c, 0, 77, 76
6, 1671, Note_on_c, 0, 77, 0
6, 1680, Note_on_c, 0, 79, 76
6, 1731, Note_on_c, 0, 79, 0
6, 1740, Note_on_c, 0, 76, 76
6, 1791, Note_on_c, 0, 76, 0
6, 1800, Note_on_c, 0, 77, 76
6, 1851, Note_on_c, 0, 77, 0
6, 1860, Note_on_c, 0, 79, 76
6, 1911, Note_on_c, 0, 79, 0
6, 1920, Note_on_c, 0, 72, 76
6, 2091, Note_on_c, 0, 72, 0
6, 2100, Note_on_c, 0, 69, 76
6, 2129, Note_on_c, 0, 69, 0
6, 2130, Note_on_c, 0, 71, 76
6, 2159, Note_on_c, 0, 71, 0
6, 2160, Note_on_c, 0, 72, 76
6, 2331, Note_on_c, 0, 72, 0
6, 2340, Note_on_c, 0, 74, 76
6, 2369, Note_on_c, 0, 74, 0
6, 2370, Note_on_c, 0, 76, 76
6, 2399, Note_on_c, 0, 76, 0
6, 2400, Note_on_c, 0, 77, 76
6, 2751, Note_on_c, 0, 77, 0
6, 2760, Note_on_c, 0, 77, 76
6, 2871, Note_on_c, 0, 77, 0
6, 2880, Note_on_c, 0, 77, 76
6, 2931, Note_on_c, 0, 77, 0
6, 2940, Note_on_c, 0, 79, 76
6, 2991, Note_on_c, 0, 79, 0
6, 3000, Note_on_c, 0, 77, 76
6, 3051, Note_on_c, 0, 77, 0
6, 3060, Note_on_c, 0, 76, 76
6, 3111, Note_on_c, 0, 76, 0
6, 3120, Note_on_c, 0, 77, 76
6, 3171, Note_on_c, 0, 77, 0
6, 3180, Note_on_c, 0, 76, 76
6, 3231, Note_on_c, 0, 76, 0
6, 3240, Note_on_c, 0, 74, 76
6, 3291, Note_on_c, 0, 74, 0
6, 3300, Note_on_c, 0, 76, 76
6, 3351, Note_on_c, 0, 76, 0
6, 3360, Note_on_c, 0, 76, 76
6, 3711, Note_on_c, 0, 76, 0
6, 3720, Note_on_c, 0, 74, 76
6, 3831, Note_on_c, 0, 74, 0
6, 3840, Note_on_c, 0, 74, 76
6, 4011, Note_on_c, 0, 74, 0
6, 4020, Note_on_c, 0, 67, 76
6, 4071, Note_on_c, 0, 67, 0
6, 4080, Note_on_c, 0, 69, 76
6, 4109, Note_on_c, 0, 69, 0
6, 4110, Note_on_c, 0, 71, 76
6, 4139, Note_on_c, 0, 71, 0
6, 4140, Note_on_c, 0, 72, 76
6, 4169, Note_on_c, 0, 72, 0
6, 4170, Note_on_c, 0, 74, 76
6, 4199, Note_on_c, 0, 74, 0
6, 4200, Note_on_c, 0, 76, 76
6, 4229, Note_on_c, 0, 76, 0
6, 4230, Note_on_c, 0, 78, 76
6, 4259, Note_on_c, 0, 78, 0
6, 4260, Note_on_c, 0, 79, 76
6, 4289, Note_on_c, 0, 79, 0
6, 4290, Note_on_c, 0, 81, 76
6, 4319, Note_on_c, 0, 81, 0
6, 4320, Note_on_c, 0, 83, 76
6, 4671, Note_on_c, 0, 83, 0
6, 4680, Note_on_c, 0, 83, 76
6, 4791, Note_on_c, 0, 83, 0
6, 4800, Note_on_c, 0, 83, 76
6, 4971, Note_on_c, 0, 83, 0
6, 4980, Note_on_c, 0, 79, 76
6, 5031, Note_on_c, 0, 79, 0
6, 5040, Note_on_c, 0, 78, 76
6, 5211, Note_on_c, 0, 78, 0
6, 5220, Note_on_c, 0, 76, 76
6, 5271, Note_on_c, 0, 76, 0
6, 5280, Note_on_c, 0, 81, 76
6, 5631, Note_on_c, 0, 81, 0
6, 5640, Note_on_c, 0, 81, 76
6, 5751, Note_on_c, 0, 81, 0
6, 5760, Note_on_c, 0, 81, 76
6, 5931, Note_on_c, 0, 81, 0
6, 5940, Note_on_c, 0, 83, 76
6, 5969, Note_on_c, 0, 83, 0
6, 5970, Note_on_c, 0, 81, 76
6, 5999, Note_on_c, 0, 81, 0
6, 6000, Note_on_c, 0, 79, 76
6, 6171, Note_on_c, 0, 79, 0
6, 6180, Note_on_c, 0, 81, 76
6, 6209, Note_on_c, 0, 81, 0
6, 6210, Note_on_c, 0, 78, 76
6, 6239, Note_on_c, 0, 78, 0
6, 6240, Note_on_c, 0, 79, 76
6, 6591, Note_on_c, 0, 79, 0
6, 6600, Note_on_c, 0, 79, 76
6, 6711, Note_on_c, 0, 79, 0
6, 6720, Note_on_c, 0, 79, 76
6, 7011, Note_on_c, 0, 79, 0
6, 7020, Note_on_c, 0, 78, 76
6, 7071, Note_on_c, 0, 78, 0
6, 7080, Note_on_c, 0, 76, 76
6, 7131, Note_on_c, 0, 76, 0
6, 7140, Note_on_c, 0, 78, 76
6, 7191, Note_on_c, 0, 78, 0
6, 7200, Note_on_c, 0, 79, 76
6, 7251, Note_on_c, 0, 79, 0
6, 7260, Note_on_c, 0, 78, 76
6, 7311, Note_on_c, 0, 78, 0
6, 7320, Note_on_c, 0, 79, 76
6, 7371, Note_on_c, 0, 79, 0
6, 7380, Note_on_c, 0, 83, 76
6, 7431, Note_on_c, 0, 83, 0
6, 7440, Note_on_c, 0, 81, 76
6, 7491, Note_on_c, 0, 81, 0
6, 7500, Note_on_c, 0, 79, 76
6, 7551, Note_on_c, 0, 79, 0
6, 7560, Note_on_c, 0, 78, 76
6, 7611, Note_on_c, 0, 78, 0
6, 7620, Note_on_c, 0, 79, 76
6, 7671, Note_on_c, 0, 79, 0
6, 7680, Note_on_c, 0, 78, 76
6, 7694, Note_on_c, 0, 78, 0
6, 7695, Note_on_c, 0, 79, 76
6, 7709, Note_on_c, 0, 79, 0
6, 7710, Note_on_c, 0, 78, 76
6, 7724, Note_on_c, 0, 78, 0
6, 7725, Note_on_c, 0, 79, 76
6, 7739, Note_on_c, 0, 79, 0
6, 7740, Note_on_c, 0, 78, 76
6, 7754, Note_on_c, 0, 78, 0
6, 7755, Note_on_c, 0, 79, 76
6, 7769, Note_on_c, 0, 79, 0
6, 7770, Note_on_c, 0, 78, 76
6, 7784, Note_on_c, 0, 78, 0
6, 7785, Note_on_c, 0, 79, 76
6, 7799, Note_on_c, 0, 79, 0
6, 7800, Note_on_c, 0, 78, 76
6, 7814, Note_on_c, 0, 78, 0
6, 7815, Note_on_c, 0, 79, 76
6, 7829, Note_on_c, 0, 79, 0
6, 7830, Note_on_c, 0, 76, 76
6, 7844, Note_on_c, 0, 76, 0
6, 7845, Note_on_c, 0, 78, 76
6, 7859, Note_on_c, 0, 78, 0
6, 7860, Note_on_c, 0, 76, 76
6, 7889, Note_on_c, 0, 76, 0
6, 7890, Note_on_c, 0, 74, 76
6, 7919, Note_on_c, 0, 74, 0
6, 7920, Note_on_c, 0, 81, 76
6, 8091, Note_on_c, 0, 81, 0
6, 8100, Note_on_c, 0, 72, 76
6, 8151, Note_on_c, 0, 72, 0
6, 8160, Note_on_c, 0, 71, 76
6, 8331, Note_on_c, 0, 71, 0
6, 8340, Note_on_c, 0, 72, 76
6, 8359, Note_on_c, 0, 72, 0
6, 8360, Note_on_c, 0, 71, 76
6, 8379, Note_on_c, 0, 71, 0
6, 8380, Note_on_c, 0, 72, 76
6, 8399, Note_on_c, 0, 72, 0
6, 8400, Note_on_c, 0, 72, 76
6, 8414, Note_on_c, 0, 72, 0
6, 8415, Note_on_c, 0, 74, 76
6, 8429, Note_on_c, 0, 74, 0
6, 8430, Note_on_c, 0, 72, 76
6, 8444, Note_on_c, 0, 72, 0
6, 8445, Note_on_c, 0, 74, 76
6, 8459, Note_on_c, 0, 74, 0
6, 8460, Note_on_c, 0, 72, 76
6, 8474, Note_on_c, 0, 72, 0
6, 8475, Note_on_c, 0, 74, 76
6, 8489, Note_on_c, 0, 74, 0
6, 8490, Note_on_c, 0, 72, 76
6, 8504, Note_on_c, 0, 72, 0
6, 8505, Note_on_c, 0, 74, 76
6, 8519, Note_on_c, 0, 74, 0
6, 8520, Note_on_c, 0, 72, 76
6, 8534, Note_on_c, 0, 72, 0
6, 8535, Note_on_c, 0, 74, 76
6, 8549, Note_on_c, 0, 74, 0
6, 8550, Note_on_c, 0, 72, 76
6, 8564, Note_on_c, 0, 72, 0
6, 8565, Note_on_c, 0, 74, 76
6, 8579, Note_on_c, 0, 74, 0
6, 8580, Note_on_c, 0, 71, 76
6, 8609, Note_on_c, 0, 71, 0
6, 8610, Note_on_c, 0, 72, 76
6, 8639, Note_on_c, 0, 72, 0
6, 8640, Note_on_c, 0, 74, 76
6, 8811, Note_on_c, 0, 74, 0
6, 8820, Note_on_c, 0, 76, 76
6, 8871, Note_on_c, 0, 76, 0
6, 8880, Note_on_c, 0, 74, 76
6, 8909, Note_on_c, 0, 74, 0
6, 8910, Note_on_c, 0, 72, 76
6, 8939, Note_on_c, 0, 72, 0
6, 8940, Note_on_c, 0, 71, 76
6, 8969, Note_on_c, 0, 71, 0
6, 8970, Note_on_c, 0, 69, 76
6, 8999, Note_on_c, 0, 69, 0
6, 9000, Note_on_c, 0, 67, 76
6, 9029, Note_on_c, 0, 67, 0
6, 9030, Note_on_c, 0, 65, 76
6, 9059, Note_on_c, 0, 65, 0
6, 9075, Note_on_c, 0, 64, 76
6, 9120, Note_on_c, 0, 65, 76
6, 9126, Note_on_c, 0, 64, 0
6, 9471, Note_on_c, 0, 65, 0
6, 9480, Note_on_c, 0, 65, 76
6, 9591, Note_on_c, 0, 65, 0
6, 9600, Note_on_c, 0, 65, 76
6, 9771, Note_on_c, 0, 65, 0
6, 9780, Note_on_c, 0, 64, 76
6, 9809, Note_on_c, 0, 64, 0
6, 9810, Note_on_c, 0, 62, 76
6, 9839, Note_on_c, 0, 62, 0
6, 9840, Note_on_c, 0, 64, 76
6, 10011, Note_on_c, 0, 64, 0
6, 10020, Note_on_c, 0, 66, 76
6, 10071, Note_on_c, 0, 66, 0
6, 10080, Note_on_c, 0, 67, 76
6, 10431, Note_on_c, 0, 67, 0
6, 10440, Note_on_c, 0, 67, 76
6, 10551, Note_on_c, 0, 67, 0
6, 10560, Note_on_c, 0, 67, 76
6, 10731, Note_on_c, 0, 67, 0
6, 10740, Note_on_c, 0, 66, 76
6, 10769, Note_on_c, 0, 66, 0
6, 10770, Note_on_c, 0, 64, 76
6, 10799, Note_on_c, 0, 64, 0
6, 10800, Note_on_c, 0, 72, 76
6, 10971, Note_on_c, 0, 72, 0
6, 10980, Note_on_c, 0, 71, 76
6, 11009, Note_on_c, 0, 71, 0
6, 11010, Note_on_c, 0, 69, 76
6, 11039, Note_on_c, 0, 69, 0
6, 11040, Note_on_c, 0, 78, 76
6, 11211, Note_on_c, 0, 78, 0
6, 11220, Note_on_c, 0, 76, 76
6, 11249, Note_on_c, 0, 76, 0
6, 11250, Note_on_c, 0, 74, 76
6, 11279, Note_on_c, 0, 74, 0
6, 11280, Note_on_c, 0, 81, 76
6, 11451, Note_on_c, 0, 81, 0
6, 11460, Note_on_c, 0, 72, 76
6, 11511, Note_on_c, 0, 72, 0
6, 11520, Note_on_c, 0, 71, 76
6, 11811, Note_on_c, 0, 71, 0
6, 11820, Note_on_c, 0, 69, 76
6, 11871, Note_on_c, 0, 69, 0
6, 11880, Note_on_c, 0, 67, 76
6, 11931, Note_on_c, 0, 67, 0
6, 11940, Note_on_c, 0, 66, 76
6, 11991, Note_on_c, 0, 66, 0
6, 12000, Note_on_c, 0, 67, 76
6, 12051, Note_on_c, 0, 67, 0
6, 12060, Note_on_c, 0, 62, 76
6, 12111, Note_on_c, 0, 62, 0
6, 12120, Note_on_c, 0, 64, 76
6, 12171, Note_on_c, 0, 64, 0
6, 12180, Note_on_c, 0, 66, 76
6, 12231, Note_on_c, 0, 66, 0
6, 12240, Note_on_c, 0, 67, 76
6, 12291, Note_on_c, 0, 67, 0
6, 12300, Note_on_c, 0, 69, 76
6, 12351, Note_on_c, 0, 69, 0
6, 12360, Note_on_c, 0, 71, 76
6, 12411, Note_on_c, 0, 71, 0
6, 12420, Note_on_c, 0, 72, 76
6, 12471, Note_on_c, 0, 72, 0
6, 12480, Note_on_c, 0, 74, 76
6, 12771, Note_on_c, 0, 74, 0
6, 12780, Note_on_c, 0, 72, 76
6, 12831, Note_on_c, 0, 72, 0
6, 12840, Note_on_c, 0, 74, 76
6, 12891, Note_on_c, 0, 74, 0
6, 12900, Note_on_c, 0, 76, 76
6, 12951, Note_on_c, 0, 76, 0
6, 12960, Note_on_c, 0, 66, 76
6, 12974, Note_on_c, 0, 66, 0
6, 12975, Note_on_c, 0, 67, 76
6, 12989, Note_on_c, 0, 67, 0
6, 12990, Note_on_c, 0, 66, 76
6, 13004, Note_on_c, 0, 66, 0
6, 13005, Note_on_c, 0, 67, 76
6, 13019, Note_on_c, 0, 67, 0
6, 13020, Note_on_c, 0, 66, 76
6, 13034, Note_on_c, 0, 66, 0
6, 13035, Note_on_c, 0, 67, 76
6, 13049, Note_on_c, 0, 67, 0
6, 13050, Note_on_c, 0, 66, 76
6, 13064, Note_on_c, 0, 66, 0
6, 13065, Note_on_c, 0, 67, 76
6, 13079, Note_on_c, 0, 67, 0
6, 13080, Note_on_c, 0, 66, 76
6, 13094, Note_on_c, 0, 66, 0
6, 13095, Note_on_c, 0, 67, 76
6, 13109, Note_on_c, 0, 67, 0
6, 13110, Note_on_c, 0, 66, 76
6, 13124, Note_on_c, 0, 66, 0
6, 13125, Note_on_c, 0, 67, 76
6, 13139, Note_on_c, 0, 67, 0
6, 13140, Note_on_c, 0, 66, 76
6, 13154, Note_on_c, 0, 66, 0
6, 13155, Note_on_c, 0, 67, 76
6, 13169, Note_on_c, 0, 67, 0
6, 13170, Note_on_c, 0, 64, 76
6, 13184, Note_on_c, 0, 64, 0
6, 13185, Note_on_c, 0, 66, 76
6, 13244, Note_on_c, 0, 66, 0
6, 13260, Note_on_c, 0, 67, 76
6, 13311, Note_on_c, 0, 67, 0
6, 13320, Note_on_c, 0, 69, 76
6, 13371, Note_on_c, 0, 69, 0
6, 13380, Note_on_c, 0, 71, 76
6, 13431, Note_on_c, 0, 71, 0
6, 13440, Note_on_c, 0, 72, 76
6, 13611, Note_on_c, 0, 72, 0
6, 13620, Note_on_c, 0, 69, 76
6, 13671, Note_on_c, 0, 69, 0
6, 13680, Note_on_c, 0, 71, 76
6, 13851, Note_on_c, 0, 71, 0
6, 13860, Note_on_c, 0, 72, 76
6, 13911, Note_on_c, 0, 72, 0
6, 13920, Note_on_c, 0, 69, 76
6, 14271, Note_on_c, 0, 69, 0
6, 14280, Note_on_c, 0, 67, 76
6, 14391, Note_on_c, 0, 67, 0
6, 14400, Note_on_c, 0, 67, 76
6, 15351, Note_on_c, 0, 67, 0
6, 15360, Note_on_c, 0, 76, 76
6, 15891, Note_on_c, 0, 76, 0
6, 15900, Note_on_c, 0, 74, 76
6, 15951, Note_on_c, 0, 74, 0
6, 15960, Note_on_c, 0, 76, 76
6, 16011, Note_on_c, 0, 76, 0
6, 16020, Note_on_c, 0, 77, 76
6, 16071, Note_on_c, 0, 77, 0
6, 16080, Note_on_c, 0, 79, 76
6, 16131, Note_on_c, 0, 79, 0
6, 16140, Note_on_c, 0, 77, 76
6, 16191, Note_on_c, 0, 77, 0
6, 16200, Note_on_c, 0, 79, 76
6, 16251, Note_on_c, 0, 79, 0
6, 16260, Note_on_c, 0, 81, 76
6, 16311, Note_on_c, 0, 81, 0
6, 16320, Note_on_c, 0, 74, 76
6, 16611, Note_on_c, 0, 74, 0
6, 16620, Note_on_c, 0, 74, 76
6, 16671, Note_on_c, 0, 74, 0
6, 16680, Note_on_c, 0, 76, 76
6, 16731, Note_on_c, 0, 76, 0
6, 16740, Note_on_c, 0, 77, 76
6, 16791, Note_on_c, 0, 77, 0
6, 16800, Note_on_c, 0, 79, 76
6, 16851, Note_on_c, 0, 79, 0
6, 16860, Note_on_c, 0, 77, 76
6, 16911, Note_on_c, 0, 77, 0
6, 16920, Note_on_c, 0, 76, 76
6, 16971, Note_on_c, 0, 76, 0
6, 16980, Note_on_c, 0, 77, 76
6, 17031, Note_on_c, 0, 77, 0
6, 17040, Note_on_c, 0, 79, 76
6, 17091, Note_on_c, 0, 79, 0
6, 17100, Note_on_c, 0, 76, 76
6, 17151, Note_on_c, 0, 76, 0
6, 17160, Note_on_c, 0, 77, 76
6, 17211, Note_on_c, 0, 77, 0
6, 17220, Note_on_c, 0, 79, 76
6, 17271, Note_on_c, 0, 79, 0
6, 17280, Note_on_c, 0, 72, 76
6, 17451, Note_on_c, 0, 72, 0
6, 17460, Note_on_c, 0, 69, 76
6, 17489, Note_on_c, 0, 69, 0
6, 17490, Note_on_c, 0, 71, 76
6, 17519, Note_on_c, 0, 71, 0
6, 17520, Note_on_c, 0, 72, 76
6, 17691, Note_on_c, 0, 72, 0
6, 17700, Note_on_c, 0, 74, 76
6, 17729, Note_on_c, 0, 74, 0
6, 17730, Note_on_c, 0, 76, 76
6, 17759, Note_on_c, 0, 76, 0
6, 17760, Note_on_c, 0, 77, 76
6, 18111, Note_on_c, 0, 77, 0
6, 18120, Note_on_c, 0, 77, 76
6, 18231, Note_on_c, 0, 77, 0
6, 18240, Note_on_c, 0, 77, 76
6, 18291, Note_on_c, 0, 77, 0
6, 18300, Note_on_c, 0, 79, 76
6, 18351, Note_on_c, 0, 79, 0
6, 18360, Note_on_c, 0, 77, 76
6, 18411, Note_on_c, 0, 77, 0
6, 18420, Note_on_c, 0, 76, 76
6, 18471, Note_on_c, 0, 76, 0
6, 18480, Note_on_c, 0, 77, 76
6, 18531, Note_on_c, 0, 77, 0
6, 18540, Note_on_c, 0, 76, 76
6, 18591, Note_on_c, 0, 76, 0
6, 18600, Note_on_c, 0, 74, 76
6, 18651, Note_on_c, 0, 74, 0
6, 18660, Note_on_c, 0, 76, 76
6, 18711, Note_on_c, 0, 76, 0
6, 18720, Note_on_c, 0, 76, 76
6, 19071, Note_on_c, 0, 76, 0
6, 19080, Note_on_c, 0, 74, 76
6, 19191, Note_on_c, 0, 74, 0
6, 19200, Note_on_c, 0, 74, 76
6, 19371, Note_on_c, 0, 74, 0
6, 19380, Note_on_c, 0, 67, 76
6, 19431, Note_on_c, 0, 67, 0
6, 19440, Note_on_c, 0, 69, 76
6, 19469, Note_on_c, 0, 69, 0
6, 19470, Note_on_c, 0, 71, 76
6, 19499, Note_on_c, 0, 71, 0
6, 19500, Note_on_c, 0, 72, 76
6, 19529, Note_on_c, 0, 72, 0
6, 19530, Note_on_c, 0, 74, 76
6, 19559, Note_on_c, 0, 74, 0
6, 19560, Note_on_c, 0, 76, 76
6, 19589, Note_on_c, 0, 76, 0
6, 19590, Note_on_c, 0, 78, 76
6, 19619, Note_on_c, 0, 78, 0
6, 19620, Note_on_c, 0, 79, 76
6, 19649, Note_on_c, 0, 79, 0
6, 19650, Note_on_c, 0, 81, 76
6, 19679, Note_on_c, 0, 81, 0
6, 19680, Note_on_c, 0, 83, 76
6, 20031, Note_on_c, 0, 83, 0
6, 20040, Note_on_c, 0, 83, 76
6, 20151, Note_on_c, 0, 83, 0
6, 20160, Note_on_c, 0, 83, 76
6, 20331, Note_on_c, 0, 83, 0
6, 20340, Note_on_c, 0, 79, 76
6, 20391, Note_on_c, 0, 79, 0
6, 20400, Note_on_c, 0, 78, 76
6, 20571, Note_on_c, 0, 78, 0
6, 20580, Note_on_c, 0, 76, 76
6, 20631, Note_on_c, 0, 76, 0
6, 20640, Note_on_c, 0, 81, 76
6, 20991, Note_on_c, 0, 81, 0
6, 21000, Note_on_c, 0, 81, 76
6, 21111, Note_on_c, 0, 81, 0
6, 21120, Note_on_c, 0, 81, 76
6, 21291, Note_on_c, 0, 81, 0
6, 21300, Note_on_c, 0, 83, 76
6, 21329, Note_on_c, 0, 83, 0
6, 21330, Note_on_c, 0, 81, 76
6, 21359, Note_on_c, 0, 81, 0
6, 21360, Note_on_c, 0, 79, 76
6, 21531, Note_on_c, 0, 79, 0
6, 21540, Note_on_c, 0, 81, 76
6, 21569, Note_on_c, 0, 81, 0
6, 21570, Note_on_c, 0, 78, 76
6, 21599, Note_on_c, 0, 78, 0
6, 21600, Note_on_c, 0, 79, 76
6, 21951, Note_on_c, 0, 79, 0
6, 21960, Note_on_c, 0, 79, 76
6, 22071, Note_on_c, 0, 79, 0
6, 22080, Note_on_c, 0, 79, 76
6, 22371, Note_on_c, 0, 79, 0
6, 22380, Note_on_c, 0, 78, 76
6, 22431, Note_on_c, 0, 78, 0
6, 22440, Note_on_c, 0, 76, 76
6, 22491, Note_on_c, 0, 76, 0
6, 22500, Note_on_c, 0, 78, 76
6, 22551, Note_on_c, 0, 78, 0
6, 22560, Note_on_c, 0, 79, 76
6, 22611, Note_on_c, 0, 79, 0
6, 22620, Note_on_c, 0, 78, 76
6, 22671, Note_on_c, 0, 78, 0
6, 22680, Note_on_c, 0, 79, 76
6, 22731, Note_on_c, 0, 79, 0
6, 22740, Note_on_c, 0, 83, 76
6, 22791, Note_on_c, 0, 83, 0
6, 22800, Note_on_c, 0, 81, 76
6, 22851, Note_on_c, 0, 81, 0
6, 22860, Note_on_c, 0, 79, 76
6, 22911, Note_on_c, 0, 79, 0
6, 22920, Note_on_c, 0, 78, 76
6, 22971, Note_on_c, 0, 78, 0
6, 22980, Note_on_c, 0, 79, 76
6, 23031, Note_on_c, 0, 79, 0
6, 23040, Note_on_c, 0, 78, 76
6, 23054, Note_on_c, 0, 78, 0
6, 23055, Note_on_c, 0, 79, 76
6, 23069, Note_on_c, 0, 79, 0
6, 23070, Note_on_c, 0, 78, 76
6, 23084, Note_on_c, 0, 78, 0
6, 23085, Note_on_c, 0, 79, 76
6, 23099, Note_on_c, 0, 79, 0
6, 23100, Note_on_c, 0, 78, 76
6, 23114, Note_on_c, 0, 78, 0
6, 23115, Note_on_c, 0, 79, 76
6, 23129, Note_on_c, 0, 79, 0
6, 23130, Note_on_c, 0, 78, 76
6, 23144, Note_on_c, 0, 78, 0
6, 23145, Note_on_c, 0, 79, 76
6, 23159, Note_on_c, 0, 79, 0
6, 23160, Note_on_c, 0, 78, 76
6, 23174, Note_on_c, 0, 78, 0
6, 23175, Note_on_c, 0, 79, 76
6, 23189, Note_on_c, 0, 79, 0
6, 23190, Note_on_c, 0, 76, 76
6, 23204, Note_on_c, 0, 76, 0
6, 23205, Note_on_c, 0, 78, 76
6, 23219, Note_on_c, 0, 78, 0
6, 23220, Note_on_c, 0, 76, 76
6, 23249, Note_on_c, 0, 76, 0
6, 23250, Note_on_c, 0, 74, 76
6, 23279, Note_on_c, 0, 74, 0
6, 23280, Note_on_c, 0, 81, 76
6, 23451, Note_on_c, 0, 81, 0
6, 23460, Note_on_c, 0, 72, 76
6, 23511, Note_on_c, 0, 72, 0
6, 23520, Note_on_c, 0, 71, 76
6, 23691, Note_on_c, 0, 71, 0
6, 23700, Note_on_c, 0, 72, 76
6, 23719, Note_on_c, 0, 72, 0
6, 23720, Note_on_c, 0, 71, 76
6, 23739, Note_on_c, 0, 71, 0
6, 23740, Note_on_c, 0, 72, 76
6, 23759, Note_on_c, 0, 72, 0
6, 23760, Note_on_c, 0, 72, 76
6, 23774, Note_on_c, 0, 72, 0
6, 23775, Note_on_c, 0, 74, 76
6, 23789, Note_on_c, 0, 74, 0
6, 23790, Note_on_c, 0, 72, 76
6, 23804, Note_on_c, 0, 72, 0
6, 23805, Note_on_c, 0, 74, 76
6, 23819, Note_on_c, 0, 74, 0
6, 23820, Note_on_c, 0, 72, 76
6, 23834, Note_on_c, 0, 72, 0
6, 23835, Note_on_c, 0, 74, 76
6, 23849, Note_on_c, 0, 74, 0
6, 23850, Note_on_c, 0, 72, 76
6, 23864, Note_on_c, 0, 72, 0
6, 23865, Note_on_c, 0, 74, 76
6, 23879, Note_on_c, 0, 74, 0
6, 23880, Note_on_c, 0, 72, 76
6, 23894, Note_on_c, 0, 72, 0
6, 23895, Note_on_c, 0, 74, 76
6, 23909, Note_on_c, 0, 74, 0
6, 23910, Note_on_c, 0, 72, 76
6, 23924, Note_on_c, 0, 72, 0
6, 23925, Note_on_c, 0, 74, 76
6, 23939, Note_on_c, 0, 74, 0
6, 23940, Note_on_c, 0, 71, 76
6, 23969, Note_on_c, 0, 71, 0
6, 23970, Note_on_c, 0, 72, 76
6, 23999, Note_on_c, 0, 72, 0
6, 24000, Note_on_c, 0, 74, 76
6, 24171, Note_on_c, 0, 74, 0
6, 24180, Note_on_c, 0, 76, 76
6, 24231, Note_on_c, 0, 76, 0
6, 24240, Note_on_c, 0, 74, 76
6, 24269, Note_on_c, 0, 74, 0
6, 24270, Note_on_c, 0, 72, 76
6, 24299, Note_on_c, 0, 72, 0
6, 24300, Note_on_c, 0, 71, 76
6, 24329, Note_on_c, 0, 71, 0
6, 24330, Note_on_c, 0, 69, 76
6, 24359, Note_on_c, 0, 69, 0
6, 24360, Note_on_c, 0, 67, 76
6, 24389, Note_on_c, 0, 67, 0
6, 24390, Note_on_c, 0, 65, 76
6, 24419, Note_on_c, 0, 65, 0
6, 24435, Note_on_c, 0, 64, 76
6, 24480, Note_on_c, 0, 65, 76
6, 24486, Note_on_c, 0, 64, 0
6, 24831, Note_on_c, 0, 65, 0
6, 24840, Note_on_c, 0, 65, 76
6, 24951, Note_on_c, 0, 65, 0
6, 24960, Note_on_c, 0, 65, 76
6, 25131, Note_on_c, 0, 65, 0
6, 25140, Note_on_c, 0, 64, 76
6, 25169, Note_on_c, 0, 64, 0
6, 25170, Note_on_c, 0, 62, 76
6, 25199, Note_on_c, 0, 62, 0
6, 25200, Note_on_c, 0, 64, 76
6, 25371, Note_on_c, 0, 64, 0
6, 25380, Note_on_c, 0, 66, 76
6, 25431, Note_on_c, 0, 66, 0
6, 25440, Note_on_c, 0, 67, 76
6, 25791, Note_on_c, 0, 67, 0
6, 25800, Note_on_c, 0, 67, 76
6, 25911, Note_on_c, 0, 67, 0
6, 25920, Note_on_c, 0, 67, 76
6, 26091, Note_on_c, 0, 67, 0
6, 26100, Note_on_c, 0, 66, 76
6, 26129, Note_on_c, 0, 66, 0
6, 26130, Note_on_c, 0, 64, 76
6, 26159, Note_on_c, 0, 64, 0
6, 26160, Note_on_c, 0, 72, 76
6, 26331, Note_on_c, 0, 72, 0
6, 26340, Note_on_c, 0, 71, 76
6, 26369, Note_on_c, 0, 71, 0
6, 26370, Note_on_c, 0, 69, 76
6, 26399, Note_on_c, 0, 69, 0
6, 26400, Note_on_c, 0, 78, 76
6, 26571, Note_on_c, 0, 78, 0
6, 26580, Note_on_c, 0, 76, 76
6, 26609, Note_on_c, 0, 76, 0
6, 26610, Note_on_c, 0, 74, 76
6, 26639, Note_on_c, 0, 74, 0
6, 26640, Note_on_c, 0, 81, 76
6, 26811, Note_on_c, 0, 81, 0
6, 26820, Note_on_c, 0, 72, 76
6, 26871, Note_on_c, 0, 72, 0
6, 26880, Note_on_c, 0, 71, 76
6, 27171, Note_on_c, 0, 71, 0
6, 27180, Note_on_c, 0, 69, 76
6, 27231, Note_on_c, 0, 69, 0
6, 27240, Note_on_c, 0, 67, 76
6, 27291, Note_on_c, 0, 67, 0
6, 27300, Note_on_c, 0, 66, 76
6, 27351, Note_on_c, 0, 66, 0
6, 27360, Note_on_c, 0, 67, 76
6, 27411, Note_on_c, 0, 67, 0
6, 27420, Note_on_c, 0, 62, 76
6, 27471, Note_on_c, 0, 62, 0
6, 27480, Note_on_c, 0, 64, 76
6, 27531, Note_on_c, 0, 64, 0
6, 27540, Note_on_c, 0, 66, 76
6, 27591, Note_on_c, 0, 66, 0
6, 27600, Note_on_c, 0, 67, 76
6, 27651, Note_on_c, 0, 67, 0
6, 27660, Note_on_c, 0, 69, 76
6, 27711, Note_on_c, 0, 69, 0
6, 27720, Note_on_c, 0, 71, 76
6, 27771, Note_on_c, 0, 71, 0
6, 27780, Note_on_c, 0, 72, 76
6, 27831, Note_on_c, 0, 72, 0
6, 27840, Note_on_c, 0, 74, 76
6, 28131, Note_on_c, 0, 74, 0
6, 28140, Note_on_c, 0, 72, 76
6, 28191, Note_on_c, 0, 72, 0
6, 28200, Note_on_c, 0, 74, 76
6, 28251, Note_on_c, 0, 74, 0
6, 28260, Note_on_c, 0, 76, 76
6, 28311, Note_on_c, 0, 76, 0
6, 28320, Note_on_c, 0, 66, 76
6, 28334, Note_on_c, 0, 66, 0
6, 28335, Note_on_c, 0, 67, 76
6, 28349, Note_on_c, 0, 67, 0
6, 28350, Note_on_c, 0, 66, 76
6, 28364, Note_on_c, 0, 66, 0
6, 28365, Note_on_c, 0, 67, 76
6, 28379, Note_on_c, 0, 67, 0
6, 28380, Note_on_c, 0, 66, 76
6, 28394, Note_on_c, 0, 66, 0
6, 28395, Note_on_c, 0, 67, 76
6, 28409, Note_on_c, 0, 67, 0
6, 28410, Note_on_c, 0, 66, 76
6, 28424, Note_on_c, 0, 66, 0
6, 28425, Note_on_c, 0, 67, 76
6, 28439, Note_on_c, 0, 67, 0
6, 28440, Note_on_c, 0, 66, 76
6, 28454, Note_on_c, 0, 66, 0
6, 28455, Note_on_c, 0, 67, 76
6, 28469, Note_on_c, 0, 67, 0
6, 28470, Note_on_c, 0, 66, 76
6, 28484, Note_on_c, 0, 66, 0
6, 28485, Note_on_c, 0, 67, 76
6, 28499, Note_on_c, 0, 67, 0
6, 28500, Note_on_c, 0, 66, 76
6, 28514, Note_on_c, 0, 66, 0
6, 28515, Note_on_c, 0, 67, 76
6, 28529, Note_on_c, 0, 67, 0
6, 28530, Note_on_c, 0, 64, 76
6, 28544, Note_on_c, 0, 64, 0
6, 28545, Note_on_c, 0, 66, 76
6, 28604, Note_on_c, 0, 66, 0
6, 28620, Note_on_c, 0, 67, 76
6, 28671, Note_on_c, 0, 67, 0
6, 28680, Note_on_c, 0, 69, 76
6, 28731, Note_on_c, 0, 69, 0
6, 28740, Note_on_c, 0, 71, 76
6, 28791, Note_on_c, 0, 71, 0
6, 28800, Note_on_c, 0, 72, 76
6, 28971, Note_on_c, 0, 72, 0
6, 28980, Note_on_c, 0, 69, 76
6, 29031, Note_on_c, 0, 69, 0
6, 29040, Note_on_c, 0, 71, 76
6, 29211, Note_on_c, 0, 71, 0
6, 29220, Note_on_c, 0, 72, 76
6, 29271, Note_on_c, 0, 72, 0
6, 29280, Note_on_c, 0, 69, 76
6, 29631, Note_on_c, 0, 69, 0
6, 29640, Note_on_c, 0, 67, 76
6, 29751, Note_on_c, 0, 67, 0
6, 29760, Note_on_c, 0, 67, 76
6, 29864, Note_on_c, 0, 67, 0
6, 29880, Note_on_c, 0, 79, 76
6, 29984, Note_on_c, 0, 79, 0
6, 30000, Note_on_c, 0, 79, 76
6, 30104, Note_on_c, 0, 79, 0
6, 30120, Note_on_c, 0, 79, 76
6, 30224, Note_on_c, 0, 79, 0
6, 30240, Note_on_c, 0, 76, 76
6, 30344, Note_on_c, 0, 76, 0
6, 30360, Note_on_c, 0, 77, 76
6, 30404, Note_on_c, 0, 77, 0
6, 30420, Note_on_c, 0, 79, 76
6, 30464, Note_on_c, 0, 79, 0
6, 30480, Note_on_c, 0, 81, 76
6, 30584, Note_on_c, 0, 81, 0
6, 30600, Note_on_c, 0, 77, 76
6, 30704, Note_on_c, 0, 77, 0
6, 30720, Note_on_c, 0, 74, 76
6, 30824, Note_on_c, 0, 74, 0
6, 30840, Note_on_c, 0, 79, 76
6, 30944, Note_on_c, 0, 79, 0
6, 30960, Note_on_c, 0, 67, 76
6, 31064, Note_on_c, 0, 67, 0
6, 31080, Note_on_c, 0, 77, 76
6, 31184, Note_on_c, 0, 77, 0
6, 31200, Note_on_c, 0, 76, 76
6, 31244, Note_on_c, 0, 76, 0
6, 31260, Note_on_c, 0, 74, 76
6, 31304, Note_on_c, 0, 74, 0
6, 31320, Note_on_c, 0, 72, 76
6, 31364, Note_on_c, 0, 72, 0
6, 31380, Note_on_c, 0, 74, 76
6, 31424, Note_on_c, 0, 74, 0
6, 31440, Note_on_c, 0, 76, 76
6, 31484, Note_on_c, 0, 76, 0
6, 31500, Note_on_c, 0, 74, 76
6, 31544, Note_on_c, 0, 74, 0
6, 31560, Note_on_c, 0, 76, 76
6, 31604, Note_on_c, 0, 76, 0
6, 31620, Note_on_c, 0, 78, 76
6, 31664, Note_on_c, 0, 78, 0
6, 31680, Note_on_c, 0, 79, 76
6, 31844, Note_on_c, 0, 79, 0
6, 31860, Note_on_c, 0, 74, 76
6, 31904, Note_on_c, 0, 74, 0
6, 31920, Note_on_c, 0, 79, 76
6, 32084, Note_on_c, 0, 79, 0
6, 32100, Note_on_c, 0, 79, 76
6, 32144, Note_on_c, 0, 79, 0
6, 32160, Note_on_c, 0, 79, 76
6, 32324, Note_on_c, 0, 79, 0
6, 32340, Note_on_c, 0, 78, 76
6, 32359, Note_on_c, 0, 78, 0
6, 32360, Note_on_c, 0, 76, 76
6, 32379, Note_on_c, 0, 76, 0
6, 32380, Note_on_c, 0, 78, 76
6, 32399, Note_on_c, 0, 78, 0
6, 32400, Note_on_c, 0, 78, 76
6, 32564, Note_on_c, 0, 78, 0
6, 32580, Note_on_c, 0, 79, 76
6, 32624, Note_on_c, 0, 79, 0
6, 32640, Note_on_c, 0, 79, 76
6, 32744, Note_on_c, 0, 79, 0
6, 32760, Note_on_c, 0, 77, 76
6, 32804, Note_on_c, 0, 77, 0
6, 32820, Note_on_c, 0, 76, 76
6, 32864, Note_on_c, 0, 76, 0
6, 32880, Note_on_c, 0, 74, 76
6, 32924, Note_on_c, 0, 74, 0
6, 32940, Note_on_c, 0, 71, 76
6, 32984, Note_on_c, 0, 71, 0
6, 33000, Note_on_c, 0, 72, 76
6, 33044, Note_on_c, 0, 72, 0
6, 33060, Note_on_c, 0, 74, 76
6, 33104, Note_on_c, 0, 74, 0
6, 33120, Note_on_c, 0, 67, 76
6, 33224, Note_on_c, 0, 67, 0
6, 33240, Note_on_c, 0, 79, 76
6, 33344, Note_on_c, 0, 79, 0
6, 33360, Note_on_c, 0, 76, 76
6, 33464, Note_on_c, 0, 76, 0
6, 33480, Note_on_c, 0, 81, 76
6, 33584, Note_on_c, 0, 81, 0
6, 33600, Note_on_c, 0, 77, 76
6, 33644, Note_on_c, 0, 77, 0
6, 33660, Note_on_c, 0, 79, 76
6, 33704, Note_on_c, 0, 79, 0
6, 33720, Note_on_c, 0, 77, 76
6, 33764, Note_on_c, 0, 77, 0
6, 33780, Note_on_c, 0, 76, 76
6, 33824, Note_on_c, 0, 76, 0
6, 33840, Note_on_c, 0, 74, 76
6, 33884, Note_on_c, 0, 74, 0
6, 33900, Note_on_c, 0, 77, 76
6, 33944, Note_on_c, 0, 77, 0
6, 33960, Note_on_c, 0, 76, 76
6, 34004, Note_on_c, 0, 76, 0
6, 34020, Note_on_c, 0, 74, 76
6, 34064, Note_on_c, 0, 74, 0
6, 34080, Note_on_c, 0, 79, 76
6, 34124, Note_on_c, 0, 79, 0
6, 34140, Note_on_c, 0, 77, 76
6, 34184, Note_on_c, 0, 77, 0
6, 34200, Note_on_c, 0, 76, 76
6, 34244, Note_on_c, 0, 76, 0
6, 34260, Note_on_c, 0, 74, 76
6, 34304, Note_on_c, 0, 74, 0
6, 34320, Note_on_c, 0, 72, 76
6, 34364, Note_on_c, 0, 72, 0
6, 34380, Note_on_c, 0, 71, 76
6, 34424, Note_on_c, 0, 71, 0
6, 34440, Note_on_c, 0, 72, 76
6, 34484, Note_on_c, 0, 72, 0
6, 34500, Note_on_c, 0, 69, 76
6, 34544, Note_on_c, 0, 69, 0
6, 34560, Note_on_c, 0, 74, 76
6, 34664, Note_on_c, 0, 74, 0
6, 34680, Note_on_c, 0, 76, 76
6, 34724, Note_on_c, 0, 76, 0
6, 34740, Note_on_c, 0, 78, 76
6, 34784, Note_on_c, 0, 78, 0
6, 34800, Note_on_c, 0, 79, 76
6, 34904, Note_on_c, 0, 79, 0
6, 34920, Note_on_c, 0, 81, 76
6, 34964, Note_on_c, 0, 81, 0
6, 34980, Note_on_c, 0, 83, 76
6, 35024, Note_on_c, 0, 83, 0
6, 35040, Note_on_c, 0, 84, 76
6, 35204, Note_on_c, 0, 84, 0
6, 35220, Note_on_c, 0, 83, 76
6, 35264, Note_on_c, 0, 83, 0
6, 35280, Note_on_c, 0, 81, 76
6, 35309, Note_on_c, 0, 81, 0
6, 35310, Note_on_c, 0, 83, 76
6, 35339, Note_on_c, 0, 83, 0
6, 35340, Note_on_c, 0, 81, 76
6, 35369, Note_on_c, 0, 81, 0
6, 35370, Note_on_c, 0, 83, 76
6, 35399, Note_on_c, 0, 83, 0
6, 35400, Note_on_c, 0, 79, 76
6, 35429, Note_on_c, 0, 79, 0
6, 35430, Note_on_c, 0, 81, 76
6, 35459, Note_on_c, 0, 81, 0
6, 35460, Note_on_c, 0, 79, 76
6, 35504, Note_on_c, 0, 79, 0
6, 35520, Note_on_c, 0, 79, 76
6, 35624, Note_on_c, 0, 79, 0
6, 35640, Note_on_c, 0, 77, 76
6, 35684, Note_on_c, 0, 77, 0
6, 35700, Note_on_c, 0, 76, 76
6, 35744, Note_on_c, 0, 76, 0
6, 35760, Note_on_c, 0, 74, 76
6, 35804, Note_on_c, 0, 74, 0
6, 35820, Note_on_c, 0, 76, 76
6, 35864, Note_on_c, 0, 76, 0
6, 35880, Note_on_c, 0, 77, 76
6, 35924, Note_on_c, 0, 77, 0
6, 35940, Note_on_c, 0, 74, 76
6, 35984, Note_on_c, 0, 74, 0
6, 36000, Note_on_c, 0, 76, 76
6, 36044, Note_on_c, 0, 76, 0
6, 36060, Note_on_c, 0, 79, 76
6, 36104, Note_on_c, 0, 79, 0
6, 36120, Note_on_c, 0, 77, 76
6, 36164, Note_on_c, 0, 77, 0
6, 36180, Note_on_c, 0, 79, 76
6, 36224, Note_on_c, 0, 79, 0
6, 36240, Note_on_c, 0, 81, 76
6, 36284, Note_on_c, 0, 81, 0
6, 36300, Note_on_c, 0, 79, 76
6, 36344, Note_on_c, 0, 79, 0
6, 36360, Note_on_c, 0, 77, 76
6, 36404, Note_on_c, 0, 77, 0
6, 36420, Note_on_c, 0, 76, 76
6, 36464, Note_on_c, 0, 76, 0
6, 36480, Note_on_c, 0, 74, 76
6, 36524, Note_on_c, 0, 74, 0
6, 36540, Note_on_c, 0, 77, 76
6, 36584, Note_on_c, 0, 77, 0
6, 36600, Note_on_c, 0, 76, 76
6, 36644, Note_on_c, 0, 76, 0
6, 36660, Note_on_c, 0, 77, 76
6, 36704, Note_on_c, 0, 77, 0
6, 36720, Note_on_c, 0, 79, 76
6, 36764, Note_on_c, 0, 79, 0
6, 36780, Note_on_c, 0, 77, 76
6, 36824, Note_on_c, 0, 77, 0
6, 36840, Note_on_c, 0, 76, 76
6, 36884, Note_on_c, 0, 76, 0
6, 36900, Note_on_c, 0, 74, 76
6, 36944, Note_on_c, 0, 74, 0
6, 36960, Note_on_c, 0, 72, 76
6, 37004, Note_on_c, 0, 72, 0
6, 37020, Note_on_c, 0, 76, 76
6, 37064, Note_on_c, 0, 76, 0
6, 37080, Note_on_c, 0, 74, 76
6, 37124, Note_on_c, 0, 74, 0
6, 37140, Note_on_c, 0, 76, 76
6, 37184, Note_on_c, 0, 76, 0
6, 37200, Note_on_c, 0, 77, 76
6, 37244, Note_on_c, 0, 77, 0
6, 37260, Note_on_c, 0, 76, 76
6, 37304, Note_on_c, 0, 76, 0
6, 37320, Note_on_c, 0, 74, 76
6, 37364, Note_on_c, 0, 74, 0
6, 37380, Note_on_c, 0, 72, 76
6, 37424, Note_on_c, 0, 72, 0
6, 37440, Note_on_c, 0, 71, 76
6, 37484, Note_on_c, 0, 71, 0
6, 37500, Note_on_c, 0, 74, 76
6, 37544, Note_on_c, 0, 74, 0
6, 37560, Note_on_c, 0, 72, 76
6, 37604, Note_on_c, 0, 72, 0
6, 37620, Note_on_c, 0, 74, 76
6, 37664, Note_on_c, 0, 74, 0
6, 37680, Note_on_c, 0, 76, 76
6, 37724, Note_on_c, 0, 76, 0
6, 37740, Note_on_c, 0, 74, 76
6, 37784, Note_on_c, 0, 74, 0
6, 37800, Note_on_c, 0, 72, 76
6, 37844, Note_on_c, 0, 72, 0
6, 37860, Note_on_c, 0, 71, 76
6, 37904, Note_on_c, 0, 71, 0
6, 37920, Note_on_c, 0, 69, 76
6, 37964, Note_on_c, 0, 69, 0
6, 37980, Note_on_c, 0, 72, 76
6, 38024, Note_on_c, 0, 72, 0
6, 38040, Note_on_c, 0, 71, 76
6, 38084, Note_on_c, 0, 71, 0
6, 38100, Note_on_c, 0, 72, 76
6, 38144, Note_on_c, 0, 72, 0
6, 38160, Note_on_c, 0, 74, 76
6, 38204, Note_on_c, 0, 74, 0
6, 38220, Note_on_c, 0, 72, 76
6, 38264, Note_on_c, 0, 72, 0
6, 38280, Note_on_c, 0, 71, 76
6, 38324, Note_on_c, 0, 71, 0
6, 38340, Note_on_c, 0, 69, 76
6, 38384, Note_on_c, 0, 69, 0
6, 38400, Note_on_c, 0, 71, 76
6, 38504, Note_on_c, 0, 71, 0
6, 38520, Note_on_c, 0, 79, 76
6, 38624, Note_on_c, 0, 79, 0
6, 38640, Note_on_c, 0, 79, 76
6, 38744, Note_on_c, 0, 79, 0
6, 38760, Note_on_c, 0, 79, 76
6, 38864, Note_on_c, 0, 79, 0
6, 38880, Note_on_c, 0, 76, 76
6, 38984, Note_on_c, 0, 76, 0
6, 39000, Note_on_c, 0, 77, 76
6, 39044, Note_on_c, 0, 77, 0
6, 39060, Note_on_c, 0, 79, 76
6, 39104, Note_on_c, 0, 79, 0
6, 39120, Note_on_c, 0, 81, 76
6, 39224, Note_on_c, 0, 81, 0
6, 39240, Note_on_c, 0, 77, 76
6, 39344, Note_on_c, 0, 77, 0
6, 39360, Note_on_c, 0, 74, 76
6, 39464, Note_on_c, 0, 74, 0
6, 39480, Note_on_c, 0, 79, 76
6, 39584, Note_on_c, 0, 79, 0
6, 39600, Note_on_c, 0, 67, 76
6, 39704, Note_on_c, 0, 67, 0
6, 39720, Note_on_c, 0, 77, 76
6, 39824, Note_on_c, 0, 77, 0
6, 39840, Note_on_c, 0, 76, 76
6, 40004, Note_on_c, 0, 76, 0
6, 40020, Note_on_c, 0, 74, 76
6, 40064, Note_on_c, 0, 74, 0
6, 40080, Note_on_c, 0, 74, 76
6, 40244, Note_on_c, 0, 74, 0
6, 40260, Note_on_c, 0, 72, 76
6, 40304, Note_on_c, 0, 72, 0
6, 40320, Note_on_c, 0, 72, 76
6, 40424, Note_on_c, 0, 72, 0
6, 41040, Note_on_c, 0, 81, 76
6, 41504, Note_on_c, 0, 81, 0
6, 41520, Note_on_c, 0, 80, 76
6, 41744, Note_on_c, 0, 80, 0
6, 41760, Note_on_c, 0, 81, 76
6, 41864, Note_on_c, 0, 81, 0
6, 41880, Note_on_c, 0, 76, 76
6, 41984, Note_on_c, 0, 76, 0
6, 42000, Note_on_c, 0, 76, 76
6, 42104, Note_on_c, 0, 76, 0
6, 42120, Note_on_c, 0, 76, 76
6, 42224, Note_on_c, 0, 76, 0
6, 42240, Note_on_c, 0, 72, 76
6, 42344, Note_on_c, 0, 72, 0
6, 42360, Note_on_c, 0, 74, 76
6, 42404, Note_on_c, 0, 74, 0
6, 42420, Note_on_c, 0, 76, 76
6, 42464, Note_on_c, 0, 76, 0
6, 42480, Note_on_c, 0, 77, 76
6, 42584, Note_on_c, 0, 77, 0
6, 42600, Note_on_c, 0, 74, 76
6, 42704, Note_on_c, 0, 74, 0
6, 42720, Note_on_c, 0, 71, 76
6, 42824, Note_on_c, 0, 71, 0
6, 42840, Note_on_c, 0, 76, 76
6, 42944, Note_on_c, 0, 76, 0
6, 42960, Note_on_c, 0, 64, 76
6, 43064, Note_on_c, 0, 64, 0
6, 43080, Note_on_c, 0, 74, 76
6, 43184, Note_on_c, 0, 74, 0
6, 43200, Note_on_c, 0, 72, 76
6, 43244, Note_on_c, 0, 72, 0
6, 43260, Note_on_c, 0, 71, 76
6, 43304, Note_on_c, 0, 71, 0
6, 43320, Note_on_c, 0, 69, 76
6, 43364, Note_on_c, 0, 69, 0
6, 43380, Note_on_c, 0, 71, 76
6, 43424, Note_on_c, 0, 71, 0
6, 43440, Note_on_c, 0, 72, 76
6, 43484, Note_on_c, 0, 72, 0
6, 43500, Note_on_c, 0, 71, 76
6, 43544, Note_on_c, 0, 71, 0
6, 43560, Note_on_c, 0, 72, 76
6, 43604, Note_on_c, 0, 72, 0
6, 43620, Note_on_c, 0, 74, 76
6, 43664, Note_on_c, 0, 74, 0
6, 43680, Note_on_c, 0, 71, 76
6, 43724, Note_on_c, 0, 71, 0
6, 43740, Note_on_c, 0, 74, 76
6, 43784, Note_on_c, 0, 74, 0
6, 43800, Note_on_c, 0, 72, 76
6, 43844, Note_on_c, 0, 72, 0
6, 43860, Note_on_c, 0, 74, 76
6, 43904, Note_on_c, 0, 74, 0
6, 43920, Note_on_c, 0, 76, 76
6, 43964, Note_on_c, 0, 76, 0
6, 43980, Note_on_c, 0, 79, 76
6, 44024, Note_on_c, 0, 79, 0
6, 44040, Note_on_c, 0, 78, 76
6, 44084, Note_on_c, 0, 78, 0
6, 44100, Note_on_c, 0, 79, 76
6, 44144, Note_on_c, 0, 79, 0
6, 44160, Note_on_c, 0, 81, 76
6, 44204, Note_on_c, 0, 81, 0
6, 44220, Note_on_c, 0, 79, 76
6, 44264, Note_on_c, 0, 79, 0
6, 44280, Note_on_c, 0, 78, 76
6, 44324, Note_on_c, 0, 78, 0
6, 44340, Note_on_c, 0, 79, 76
6, 44384, Note_on_c, 0, 79, 0
6, 44400, Note_on_c, 0, 81, 76
6, 44444, Note_on_c, 0, 81, 0
6, 44460, Note_on_c, 0, 83, 76
6, 44504, Note_on_c, 0, 83, 0
6, 44520, Note_on_c, 0, 80, 76
6, 44564, Note_on_c, 0, 80, 0
6, 44580, Note_on_c, 0, 81, 76
6, 44624, Note_on_c, 0, 81, 0
6, 44640, Note_on_c, 0, 83, 76
6, 44684, Note_on_c, 0, 83, 0
6, 44700, Note_on_c, 0, 81, 76
6, 44744, Note_on_c, 0, 81, 0
6, 44760, Note_on_c, 0, 80, 76
6, 44804, Note_on_c, 0, 80, 0
6, 44820, Note_on_c, 0, 78, 76
6, 44864, Note_on_c, 0, 78, 0
6, 44880, Note_on_c, 0, 76, 76
6, 44924, Note_on_c, 0, 76, 0
6, 44940, Note_on_c, 0, 74, 76
6, 44984, Note_on_c, 0, 74, 0
6, 45000, Note_on_c, 0, 76, 76
6, 45044, Note_on_c, 0, 76, 0
6, 45060, Note_on_c, 0, 77, 76
6, 45104, Note_on_c, 0, 77, 0
6, 45120, Note_on_c, 0, 72, 76
6, 45344, Note_on_c, 0, 72, 0
6, 45360, Note_on_c, 0, 71, 76
6, 45389, Note_on_c, 0, 71, 0
6, 45390, Note_on_c, 0, 72, 76
6, 45419, Note_on_c, 0, 72, 0
6, 45420, Note_on_c, 0, 71, 76
6, 45449, Note_on_c, 0, 71, 0
6, 45450, Note_on_c, 0, 72, 76
6, 45479, Note_on_c, 0, 72, 0
6, 45480, Note_on_c, 0, 71, 76
6, 45509, Note_on_c, 0, 71, 0
6, 45510, Note_on_c, 0, 72, 76
6, 45539, Note_on_c, 0, 72, 0
6, 45540, Note_on_c, 0, 69, 76
6, 45569, Note_on_c, 0, 69, 0
6, 45570, Note_on_c, 0, 71, 76
6, 45599, Note_on_c, 0, 71, 0
6, 45600, Note_on_c, 0, 69, 76
6, 45644, Note_on_c, 0, 69, 0
6, 45660, Note_on_c, 0, 72, 76
6, 45704, Note_on_c, 0, 72, 0
6, 45720, Note_on_c, 0, 74, 76
6, 45764, Note_on_c, 0, 74, 0
6, 45780, Note_on_c, 0, 76, 76
6, 45824, Note_on_c, 0, 76, 0
6, 45840, Note_on_c, 0, 77, 76
6, 45944, Note_on_c, 0, 77, 0
6, 45960, Note_on_c, 0, 74, 76
6, 46064, Note_on_c, 0, 74, 0
6, 46080, Note_on_c, 0, 71, 76
6, 46184, Note_on_c, 0, 71, 0
6, 46200, Note_on_c, 0, 76, 76
6, 46304, Note_on_c, 0, 76, 0
6, 46320, Note_on_c, 0, 64, 76
6, 46424, Note_on_c, 0, 64, 0
6, 46440, Note_on_c, 0, 76, 76
6, 46544, Note_on_c, 0, 76, 0
6, 46560, Note_on_c, 0, 69, 76
6, 46664, Note_on_c, 0, 69, 0
6, 46680, Note_on_c, 0, 71, 76
6, 46724, Note_on_c, 0, 71, 0
6, 46740, Note_on_c, 0, 72, 76
6, 46784, Note_on_c, 0, 72, 0
6, 46800, Note_on_c, 0, 74, 76
6, 47084, Note_on_c, 0, 74, 0
6, 47100, Note_on_c, 0, 77, 76
6, 47144, Note_on_c, 0, 77, 0
6, 47160, Note_on_c, 0, 76, 76
6, 47204, Note_on_c, 0, 76, 0
6, 47220, Note_on_c, 0, 74, 76
6, 47264, Note_on_c, 0, 74, 0
6, 47280, Note_on_c, 0, 72, 76
6, 47324, Note_on_c, 0, 72, 0
6, 47340, Note_on_c, 0, 71, 76
6, 47384, Note_on_c, 0, 71, 0
6, 47400, Note_on_c, 0, 72, 76
6, 47444, Note_on_c, 0, 72, 0
6, 47460, Note_on_c, 0, 69, 76
6, 47504, Note_on_c, 0, 69, 0
6, 47520, Note_on_c, 0, 81, 76
6, 47684, Note_on_c, 0, 81, 0
6, 47700, Note_on_c, 0, 83, 76
6, 47744, Note_on_c, 0, 83, 0
6, 47760, Note_on_c, 0, 80, 76
6, 47924, Note_on_c, 0, 80, 0
6, 47940, Note_on_c, 0, 81, 76
6, 47984, Note_on_c, 0, 81, 0
6, 48000, Note_on_c, 0, 81, 76
6, 48044, Note_on_c, 0, 81, 0
6, 48060, Note_on_c, 0, 83, 76
6, 48104, Note_on_c, 0, 83, 0
6, 48120, Note_on_c, 0, 84, 76
6, 48164, Note_on_c, 0, 84, 0
6, 48180, Note_on_c, 0, 83, 76
6, 48224, Note_on_c, 0, 83, 0
6, 48240, Note_on_c, 0, 81, 76
6, 48284, Note_on_c, 0, 81, 0
6, 48300, Note_on_c, 0, 79, 76
6, 48344, Note_on_c, 0, 79, 0
6, 48360, Note_on_c, 0, 81, 76
6, 48404, Note_on_c, 0, 81, 0
6, 48420, Note_on_c, 0, 78, 76
6, 48464, Note_on_c, 0, 78, 0
6, 48480, Note_on_c, 0, 83, 76
6, 48584, Note_on_c, 0, 83, 0
6, 48600, Note_on_c, 0, 71, 76
6, 48704, Note_on_c, 0, 71, 0
6, 48720, Note_on_c, 0, 76, 76
6, 48884, Note_on_c, 0, 76, 0
6, 48900, Note_on_c, 0, 76, 76
6, 48944, Note_on_c, 0, 76, 0
6, 48960, Note_on_c, 0, 76, 76
6, 49004, Note_on_c, 0, 76, 0
6, 49020, Note_on_c, 0, 79, 76
6, 49064, Note_on_c, 0, 79, 0
6, 49080, Note_on_c, 0, 78, 76
6, 49124, Note_on_c, 0, 78, 0
6, 49140, Note_on_c, 0, 76, 76
6, 49184, Note_on_c, 0, 76, 0
6, 49200, Note_on_c, 0, 75, 76
6, 49244, Note_on_c, 0, 75, 0
6, 49260, Note_on_c, 0, 73, 76
6, 49304, Note_on_c, 0, 73, 0
6, 49320, Note_on_c, 0, 75, 76
6, 49364, Note_on_c, 0, 75, 0
6, 49380, Note_on_c, 0, 71, 76
6, 49424, Note_on_c, 0, 71, 0
6, 49440, Note_on_c, 0, 83, 76
6, 49484, Note_on_c, 0, 83, 0
6, 49500, Note_on_c, 0, 81, 76
6, 49544, Note_on_c, 0, 81, 0
6, 49560, Note_on_c, 0, 79, 76
6, 49604, Note_on_c, 0, 79, 0
6, 49620, Note_on_c, 0, 78, 76
6, 49664, Note_on_c, 0, 78, 0
6, 49680, Note_on_c, 0, 76, 76
6, 49724, Note_on_c, 0, 76, 0
6, 49740, Note_on_c, 0, 74, 76
6, 49784, Note_on_c, 0, 74, 0
6, 49800, Note_on_c, 0, 72, 76
6, 49844, Note_on_c, 0, 72, 0
6, 49860, Note_on_c, 0, 71, 76
6, 49904, Note_on_c, 0, 71, 0
6, 49920, Note_on_c, 0, 69, 76
6, 49964, Note_on_c, 0, 69, 0
6, 49980, Note_on_c, 0, 72, 76
6, 50024, Note_on_c, 0, 72, 0
6, 50040, Note_on_c, 0, 74, 76
6, 50084, Note_on_c, 0, 74, 0
6, 50100, Note_on_c, 0, 76, 76
6, 50144, Note_on_c, 0, 76, 0
6, 50160, Note_on_c, 0, 74, 76
6, 50204, Note_on_c, 0, 74, 0
6, 50220, Note_on_c, 0, 72, 76
6, 50264, Note_on_c, 0, 72, 0
6, 50280, Note_on_c, 0, 71, 76
6, 50324, Note_on_c, 0, 71, 0
6, 50340, Note_on_c, 0, 69, 76
6, 50384, Note_on_c, 0, 69, 0
6, 50400, Note_on_c, 0, 74, 76
6, 50564, Note_on_c, 0, 74, 0
6, 50580, Note_on_c, 0, 76, 76
6, 50624, Note_on_c, 0, 76, 0
6, 50640, Note_on_c, 0, 72, 76
6, 50804, Note_on_c, 0, 72, 0
6, 50820, Note_on_c, 0, 71, 76
6, 50864, Note_on_c, 0, 71, 0
6, 50880, Note_on_c, 0, 72, 76
6, 51044, Note_on_c, 0, 72, 0
6, 51060, Note_on_c, 0, 74, 76
6, 51104, Note_on_c, 0, 74, 0
6, 51120, Note_on_c, 0, 71, 76
6, 51284, Note_on_c, 0, 71, 0
6, 51300, Note_on_c, 0, 69, 76
6, 51344, Note_on_c, 0, 69, 0
6, 51360, Note_on_c, 0, 69, 76
6, 51404, Note_on_c, 0, 69, 0
6, 51420, Note_on_c, 0, 76, 76
6, 51464, Note_on_c, 0, 76, 0
6, 51480, Note_on_c, 0, 78, 76
6, 51524, Note_on_c, 0, 78, 0
6, 51540, Note_on_c, 0, 80, 76
6, 51584, Note_on_c, 0, 80, 0
6, 51600, Note_on_c, 0, 81, 76
6, 51884, Note_on_c, 0, 81, 0
6, 51900, Note_on_c, 0, 84, 76
6, 51944, Note_on_c, 0, 84, 0
6, 51960, Note_on_c, 0, 83, 76
6, 52004, Note_on_c, 0, 83, 0
6, 52020, Note_on_c, 0, 81, 76
6, 52064, Note_on_c, 0, 81, 0
6, 52080, Note_on_c, 0, 80, 76
6, 52124, Note_on_c, 0, 80, 0
6, 52140, Note_on_c, 0, 81, 76
6, 52184, Note_on_c, 0, 81, 0
6, 52200, Note_on_c, 0, 83, 76
6, 52244, Note_on_c, 0, 83, 0
6, 52260, Note_on_c, 0, 80, 76
6, 52304, Note_on_c, 0, 80, 0
6, 52320, Note_on_c, 0, 76, 76
6, 52424, Note_on_c, 0, 76, 0
6, 52440, Note_on_c, 0, 76, 76
6, 52544, Note_on_c, 0, 76, 0
6, 52560, Note_on_c, 0, 76, 76
6, 52664, Note_on_c, 0, 76, 0
6, 52680, Note_on_c, 0, 76, 76
6, 52784, Note_on_c, 0, 76, 0
6, 52800, Note_on_c, 0, 72, 76
6, 52904, Note_on_c, 0, 72, 0
6, 52920, Note_on_c, 0, 74, 76
6, 52964, Note_on_c, 0, 74, 0
6, 52980, Note_on_c, 0, 76, 76
6, 53024, Note_on_c, 0, 76, 0
6, 53040, Note_on_c, 0, 77, 76
6, 53144, Note_on_c, 0, 77, 0
6, 53160, Note_on_c, 0, 74, 76
6, 53264, Note_on_c, 0, 74, 0
6, 53280, Note_on_c, 0, 71, 76
6, 53384, Note_on_c, 0, 71, 0
6, 53400, Note_on_c, 0, 76, 76
6, 53504, Note_on_c, 0, 76, 0
6, 53520, Note_on_c, 0, 64, 76
6, 53624, Note_on_c, 0, 64, 0
6, 53640, Note_on_c, 0, 74, 76
6, 53744, Note_on_c, 0, 74, 0
6, 53760, Note_on_c, 0, 72, 76
6, 53924, Note_on_c, 0, 72, 0
6, 53940, Note_on_c, 0, 71, 76
6, 53984, Note_on_c, 0, 71, 0
6, 54000, Note_on_c, 0, 71, 76
6, 54164, Note_on_c, 0, 71, 0
6, 54180, Note_on_c, 0, 69, 76
6, 54224, Note_on_c, 0, 69, 0
6, 54240, Note_on_c, 0, 69, 76
6, 54359, Note_on_c, 0, 69, 0
6, 54780, Note_on_c, 0, 84, 76
6, 54824, Note_on_c, 0, 84, 0
6, 54840, Note_on_c, 0, 83, 76
6, 54884, Note_on_c, 0, 83, 0
6, 54900, Note_on_c, 0, 81, 76
6, 54944, Note_on_c, 0, 81, 0
6, 54960, Note_on_c, 0, 79, 76
6, 55004, Note_on_c, 0, 79, 0
6, 55020, Note_on_c, 0, 78, 76
6, 55064, Note_on_c, 0, 78, 0
6, 55080, Note_on_c, 0, 79, 76
6, 55124, Note_on_c, 0, 79, 0
6, 55140, Note_on_c, 0, 76, 76
6, 55184, Note_on_c, 0, 76, 0
6, 55200, Note_on_c, 0, 81, 76
6, 55244, Note_on_c, 0, 81, 0
6, 55260, Note_on_c, 0, 83, 76
6, 55304, Note_on_c, 0, 83, 0
6, 55320, Note_on_c, 0, 81, 76
6, 55364, Note_on_c, 0, 81, 0
6, 55380, Note_on_c, 0, 79, 76
6, 55424, Note_on_c, 0, 79, 0
6, 55440, Note_on_c, 0, 78, 76
6, 55484, Note_on_c, 0, 78, 0
6, 55500, Note_on_c, 0, 76, 76
6, 55544, Note_on_c, 0, 76, 0
6, 55560, Note_on_c, 0, 78, 76
6, 55604, Note_on_c, 0, 78, 0
6, 55620, Note_on_c, 0, 71, 76
6, 55664, Note_on_c, 0, 71, 0
6, 55680, Note_on_c, 0, 79, 76
6, 56399, Note_on_c, 0, 79, 0
6, 56700, Note_on_c, 0, 82, 76
6, 56744, Note_on_c, 0, 82, 0
6, 56760, Note_on_c, 0, 81, 76
6, 56804, Note_on_c, 0, 81, 0
6, 56820, Note_on_c, 0, 79, 76
6, 56864, Note_on_c, 0, 79, 0
6, 56880, Note_on_c, 0, 77, 76
6, 56924, Note_on_c, 0, 77, 0
6, 56940, Note_on_c, 0, 76, 76
6, 56984, Note_on_c, 0, 76, 0
6, 57000, Note_on_c, 0, 77, 76
6, 57044, Note_on_c, 0, 77, 0
6, 57060, Note_on_c, 0, 74, 76
6, 57104, Note_on_c, 0, 74, 0
6, 57120, Note_on_c, 0, 79, 76
6, 57164, Note_on_c, 0, 79, 0
6, 57180, Note_on_c, 0, 81, 76
6, 57224, Note_on_c, 0, 81, 0
6, 57240, Note_on_c, 0, 79, 76
6, 57284, Note_on_c, 0, 79, 0
6, 57300, Note_on_c, 0, 77, 76
6, 57344, Note_on_c, 0, 77, 0
6, 57360, Note_on_c, 0, 76, 76
6, 57404, Note_on_c, 0, 76, 0
6, 57420, Note_on_c, 0, 74, 76
6, 57464, Note_on_c, 0, 74, 0
6, 57480, Note_on_c, 0, 76, 76
6, 57524, Note_on_c, 0, 76, 0
6, 57540, Note_on_c, 0, 69, 76
6, 57584, Note_on_c, 0, 69, 0
6, 57600, Note_on_c, 0, 77, 76
6, 58319, Note_on_c, 0, 77, 0
6, 58620, Note_on_c, 0, 81, 76
6, 58664, Note_on_c, 0, 81, 0
6, 58680, Note_on_c, 0, 79, 76
6, 58724, Note_on_c, 0, 79, 0
6, 58740, Note_on_c, 0, 77, 76
6, 58784, Note_on_c, 0, 77, 0
6, 58800, Note_on_c, 0, 76, 76
6, 58844, Note_on_c, 0, 76, 0
6, 58860, Note_on_c, 0, 74, 76
6, 58904, Note_on_c, 0, 74, 0
6, 58920, Note_on_c, 0, 76, 76
6, 58964, Note_on_c, 0, 76, 0
6, 58980, Note_on_c, 0, 72, 76
6, 59024, Note_on_c, 0, 72, 0
6, 59040, Note_on_c, 0, 77, 76
6, 59084, Note_on_c, 0, 77, 0
6, 59100, Note_on_c, 0, 79, 76
6, 59144, Note_on_c, 0, 79, 0
6, 59160, Note_on_c, 0, 77, 76
6, 59204, Note_on_c, 0, 77, 0
6, 59220, Note_on_c, 0, 76, 76
6, 59264, Note_on_c, 0, 76, 0
6, 59280, Note_on_c, 0, 74, 76
6, 59324, Note_on_c, 0, 74, 0
6, 59340, Note_on_c, 0, 72, 76
6, 59384, Note_on_c, 0, 72, 0
6, 59400, Note_on_c, 0, 74, 76
6, 59444, Note_on_c, 0, 74, 0
6, 59460, Note_on_c, 0, 67, 76
6, 59504, Note_on_c, 0, 67, 0
6, 59520, Note_on_c, 0, 76, 76
6, 59564, Note_on_c, 0, 76, 0
6, 59580, Note_on_c, 0, 74, 76
6, 59624, Note_on_c, 0, 74, 0
6, 59640, Note_on_c, 0, 72, 76
6, 59684, Note_on_c, 0, 72, 0
6, 59700, Note_on_c, 0, 74, 76
6, 59744, Note_on_c, 0, 74, 0
6, 59760, Note_on_c, 0, 76, 76
6, 59804, Note_on_c, 0, 76, 0
6, 59820, Note_on_c, 0, 74, 76
6, 59864, Note_on_c, 0, 74, 0
6, 59880, Note_on_c, 0, 76, 76
6, 59924, Note_on_c, 0, 76, 0
6, 59940, Note_on_c, 0, 78, 76
6, 59984, Note_on_c, 0, 78, 0
6, 60000, Note_on_c, 0, 79, 76
6, 60164, Note_on_c, 0, 79, 0
6, 60180, Note_on_c, 0, 74, 76
6, 60224, Note_on_c, 0, 74, 0
6, 60240, Note_on_c, 0, 79, 76
6, 60404, Note_on_c, 0, 79, 0
6, 60420, Note_on_c, 0, 79, 76
6, 60464, Note_on_c, 0, 79, 0
6, 60480, Note_on_c, 0, 79, 76
6, 60644, Note_on_c, 0, 79, 0
6, 60660, Note_on_c, 0, 78, 76
6, 60679, Note_on_c, 0, 78, 0
6, 60680, Note_on_c, 0, 76, 76
6, 60699, Note_on_c, 0, 76, 0
6, 60700, Note_on_c, 0, 78, 76
6, 60719, Note_on_c, 0, 78, 0
6, 60720, Note_on_c, 0, 78, 76
6, 60749, Note_on_c, 0, 78, 0
6, 60750, Note_on_c, 0, 79, 76
6, 60779, Note_on_c, 0, 79, 0
6, 60780, Note_on_c, 0, 78, 76
6, 60809, Note_on_c, 0, 78, 0
6, 60810, Note_on_c, 0, 79, 76
6, 60839, Note_on_c, 0, 79, 0
6, 60840, Note_on_c, 0, 76, 76
6, 60869, Note_on_c, 0, 76, 0
6, 60870, Note_on_c, 0, 78, 76
6, 60899, Note_on_c, 0, 78, 0
6, 60900, Note_on_c, 0, 79, 76
6, 60944, Note_on_c, 0, 79, 0
6, 60960, Note_on_c, 0, 79, 76
6, 61199, Note_on_c, 0, 79, 0
6, 61320, Note_on_c, 0, 76, 76
6, 61484, Note_on_c, 0, 76, 0
6, 61500, Note_on_c, 0, 79, 76
6, 61544, Note_on_c, 0, 79, 0
6, 61560, Note_on_c, 0, 78, 76
6, 61604, Note_on_c, 0, 78, 0
6, 61620, Note_on_c, 0, 76, 76
6, 61664, Note_on_c, 0, 76, 0
6, 61680, Note_on_c, 0, 74, 76
6, 61724, Note_on_c, 0, 74, 0
6, 61740, Note_on_c, 0, 72, 76
6, 61784, Note_on_c, 0, 72, 0
6, 61800, Note_on_c, 0, 71, 76
6, 61844, Note_on_c, 0, 71, 0
6, 61860, Note_on_c, 0, 69, 76
6, 61904, Note_on_c, 0, 69, 0
6, 61920, Note_on_c, 0, 67, 76
6, 61964, Note_on_c, 0, 67, 0
6, 61980, Note_on_c, 0, 71, 76
6, 62024, Note_on_c, 0, 71, 0
6, 62040, Note_on_c, 0, 69, 76
6, 62084, Note_on_c, 0, 69, 0
6, 62100, Note_on_c, 0, 67, 76
6, 62144, Note_on_c, 0, 67, 0
6, 62160, Note_on_c, 0, 72, 76
6, 62204, Note_on_c, 0, 72, 0
6, 62220, Note_on_c, 0, 76, 76
6, 62264, Note_on_c, 0, 76, 0
6, 62280, Note_on_c, 0, 74, 76
6, 62324, Note_on_c, 0, 74, 0
6, 62340, Note_on_c, 0, 72, 76
6, 62384, Note_on_c, 0, 72, 0
6, 62400, Note_on_c, 0, 81, 76
6, 62504, Note_on_c, 0, 81, 0
6, 62520, Note_on_c, 0, 74, 76
6, 62624, Note_on_c, 0, 74, 0
6, 62640, Note_on_c, 0, 79, 76
6, 62804, Note_on_c, 0, 79, 0
6, 62820, Note_on_c, 0, 79, 76
6, 62864, Note_on_c, 0, 79, 0
6, 62880, Note_on_c, 0, 79, 76
6, 62924, Note_on_c, 0, 79, 0
6, 62940, Note_on_c, 0, 78, 76
6, 62984, Note_on_c, 0, 78, 0
6, 63000, Note_on_c, 0, 79, 76
6, 63044, Note_on_c, 0, 79, 0
6, 63060, Note_on_c, 0, 76, 76
6, 63104, Note_on_c, 0, 76, 0
6, 63120, Note_on_c, 0, 78, 76
6, 63284, Note_on_c, 0, 78, 0
6, 63300, Note_on_c, 0, 78, 76
6, 63344, Note_on_c, 0, 78, 0
6, 63360, Note_on_c, 0, 78, 76
6, 63464, Note_on_c, 0, 78, 0
6, 63480, Note_on_c, 0, 71, 76
6, 63584, Note_on_c, 0, 71, 0
6, 63600, Note_on_c, 0, 76, 76
6, 63764, Note_on_c, 0, 76, 0
6, 63780, Note_on_c, 0, 76, 76
6, 63824, Note_on_c, 0, 76, 0
6, 63840, Note_on_c, 0, 76, 76
6, 63884, Note_on_c, 0, 76, 0
6, 63900, Note_on_c, 0, 74, 76
6, 63944, Note_on_c, 0, 74, 0
6, 63960, Note_on_c, 0, 76, 76
6, 64004, Note_on_c, 0, 76, 0
6, 64020, Note_on_c, 0, 72, 76
6, 64064, Note_on_c, 0, 72, 0
6, 64080, Note_on_c, 0, 74, 76
6, 64244, Note_on_c, 0, 74, 0
6, 64260, Note_on_c, 0, 74, 76
6, 64304, Note_on_c, 0, 74, 0
6, 64320, Note_on_c, 0, 74, 76
6, 64424, Note_on_c, 0, 74, 0
6, 64440, Note_on_c, 0, 67, 76
6, 64544, Note_on_c, 0, 67, 0
6, 64560, Note_on_c, 0, 72, 76
6, 64724, Note_on_c, 0, 72, 0
6, 64740, Note_on_c, 0, 72, 76
6, 64784, Note_on_c, 0, 72, 0
6, 64800, Note_on_c, 0, 72, 76
6, 64844, Note_on_c, 0, 72, 0
6, 64860, Note_on_c, 0, 76, 76
6, 64904, Note_on_c, 0, 76, 0
6, 64920, Note_on_c, 0, 74, 76
6, 64964, Note_on_c, 0, 74, 0
6, 64980, Note_on_c, 0, 72, 76
6, 65024, Note_on_c, 0, 72, 0
6, 65040, Note_on_c, 0, 71, 76
6, 65084, Note_on_c, 0, 71, 0
6, 65100, Note_on_c, 0, 69, 76
6, 65144, Note_on_c, 0, 69, 0
6, 65160, Note_on_c, 0, 67, 76
6, 65204, Note_on_c, 0, 67, 0
6, 65220, Note_on_c, 0, 66, 76
6, 65264, Note_on_c, 0, 66, 0
6, 65280, Note_on_c, 0, 67, 76
6, 65324, Note_on_c, 0, 67, 0
6, 65340, Note_on_c, 0, 71, 76
6, 65384, Note_on_c, 0, 71, 0
6, 65400, Note_on_c, 0, 76, 76
6, 65444, Note_on_c, 0, 76, 0
6, 65460, Note_on_c, 0, 74, 76
6, 65504, Note_on_c, 0, 74, 0
6, 65520, Note_on_c, 0, 72, 76
6, 65564, Note_on_c, 0, 72, 0
6, 65580, Note_on_c, 0, 71, 76
6, 65624, Note_on_c, 0, 71, 0
6, 65640, Note_on_c, 0, 69, 76
6, 65684, Note_on_c, 0, 69, 0
6, 65700, Note_on_c, 0, 67, 76
6, 65744, Note_on_c, 0, 67, 0
6, 65760, Note_on_c, 0, 78, 76
6, 65804, Note_on_c, 0, 78, 0
6, 65820, Note_on_c, 0, 76, 76
6, 65864, Note_on_c, 0, 76, 0
6, 65880, Note_on_c, 0, 74, 76
6, 65924, Note_on_c, 0, 74, 0
6, 65940, Note_on_c, 0, 76, 76
6, 65984, Note_on_c, 0, 76, 0
6, 66000, Note_on_c, 0, 78, 76
6, 66044, Note_on_c, 0, 78, 0
6, 66060, Note_on_c, 0, 76, 76
6, 66104, Note_on_c, 0, 76, 0
6, 66120, Note_on_c, 0, 78, 76
6, 66164, Note_on_c, 0, 78, 0
6, 66180, Note_on_c, 0, 74, 76
6, 66224, Note_on_c, 0, 74, 0
6, 66240, Note_on_c, 0, 79, 76
6, 66404, Note_on_c, 0, 79, 0
6, 66420, Note_on_c, 0, 81, 76
6, 66464, Note_on_c, 0, 81, 0
6, 66480, Note_on_c, 0, 78, 76
6, 66644, Note_on_c, 0, 78, 0
6, 66660, Note_on_c, 0, 79, 76
6, 66704, Note_on_c, 0, 79, 0
6, 66720, Note_on_c, 0, 79, 76
6, 66959, Note_on_c, 0, 79, 0
6, 67440, Note_on_c, 0, 79, 76
6, 67904, Note_on_c, 0, 79, 0
6, 67920, Note_on_c, 0, 78, 76
6, 68144, Note_on_c, 0, 78, 0
6, 68160, Note_on_c, 0, 79, 76
6, 68264, Note_on_c, 0, 79, 0
6, 68280, Note_on_c, 0, 74, 76
6, 68384, Note_on_c, 0, 74, 0
6, 68400, Note_on_c, 0, 74, 76
6, 68504, Note_on_c, 0, 74, 0
6, 68520, Note_on_c, 0, 74, 76
6, 68624, Note_on_c, 0, 74, 0
6, 68640, Note_on_c, 0, 71, 76
6, 68744, Note_on_c, 0, 71, 0
6, 68760, Note_on_c, 0, 72, 76
6, 68804, Note_on_c, 0, 72, 0
6, 68820, Note_on_c, 0, 74, 76
6, 68864, Note_on_c, 0, 74, 0
6, 68880, Note_on_c, 0, 76, 76
6, 68984, Note_on_c, 0, 76, 0
6, 69000, Note_on_c, 0, 72, 76
6, 69104, Note_on_c, 0, 72, 0
6, 69120, Note_on_c, 0, 69, 76
6, 69224, Note_on_c, 0, 69, 0
6, 69240, Note_on_c, 0, 74, 76
6, 69344, Note_on_c, 0, 74, 0
6, 69360, Note_on_c, 0, 62, 76
6, 69464, Note_on_c, 0, 62, 0
6, 69480, Note_on_c, 0, 72, 76
6, 69584, Note_on_c, 0, 72, 0
6, 69600, Note_on_c, 0, 71, 76
6, 69839, Note_on_c, 0, 71, 0
6, 70140, Note_on_c, 0, 84, 76
6, 70184, Note_on_c, 0, 84, 0
6, 70200, Note_on_c, 0, 83, 76
6, 70244, Note_on_c, 0, 83, 0
6, 70260, Note_on_c, 0, 81, 76
6, 70304, Note_on_c, 0, 81, 0
6, 70320, Note_on_c, 0, 79, 76
6, 70364, Note_on_c, 0, 79, 0
6, 70380, Note_on_c, 0, 78, 76
6, 70424, Note_on_c, 0, 78, 0
6, 70440, Note_on_c, 0, 79, 76
6, 70484, Note_on_c, 0, 79, 0
6, 70500, Note_on_c, 0, 76, 76
6, 70544, Note_on_c, 0, 76, 0
6, 70560, Note_on_c, 0, 81, 76
6, 70604, Note_on_c, 0, 81, 0
6, 70620, Note_on_c, 0, 83, 76
6, 70664, Note_on_c, 0, 83, 0
6, 70680, Note_on_c, 0, 81, 76
6, 70724, Note_on_c, 0, 81, 0
6, 70740, Note_on_c, 0, 79, 76
6, 70784, Note_on_c, 0, 79, 0
6, 70800, Note_on_c, 0, 78, 76
6, 70844, Note_on_c, 0, 78, 0
6, 70860, Note_on_c, 0, 76, 76
6, 70904, Note_on_c, 0, 76, 0
6, 70920, Note_on_c, 0, 78, 76
6, 70964, Note_on_c, 0, 78, 0
6, 70980, Note_on_c, 0, 71, 76
6, 71024, Note_on_c, 0, 71, 0
6, 71040, Note_on_c, 0, 83, 76
6, 71084, Note_on_c, 0, 83, 0
6, 71100, Note_on_c, 0, 81, 76
6, 71144, Note_on_c, 0, 81, 0
6, 71160, Note_on_c, 0, 79, 76
6, 71204, Note_on_c, 0, 79, 0
6, 71220, Note_on_c, 0, 78, 76
6, 71264, Note_on_c, 0, 78, 0
6, 71280, Note_on_c, 0, 76, 76
6, 72224, Note_on_c, 0, 76, 0
6, 72240, Note_on_c, 0, 75, 76
6, 72269, Note_on_c, 0, 75, 0
6, 72270, Note_on_c, 0, 76, 76
6, 72299, Note_on_c, 0, 76, 0
6, 72300, Note_on_c, 0, 75, 76
6, 72329, Note_on_c, 0, 75, 0
6, 72330, Note_on_c, 0, 76, 76
6, 72359, Note_on_c, 0, 76, 0
6, 72360, Note_on_c, 0, 75, 76
6, 72389, Note_on_c, 0, 75, 0
6, 72390, Note_on_c, 0, 76, 76
6, 72419, Note_on_c, 0, 76, 0
6, 72420, Note_on_c, 0, 72, 76
6, 72449, Note_on_c, 0, 72, 0
6, 72450, Note_on_c, 0, 75, 76
6, 72479, Note_on_c, 0, 75, 0
6, 72480, Note_on_c, 0, 76, 76
6, 72584, Note_on_c, 0, 76, 0
6, 72600, Note_on_c, 0, 71, 76
6, 72704, Note_on_c, 0, 71, 0
6, 72720, Note_on_c, 0, 76, 76
6, 72824, Note_on_c, 0, 76, 0
6, 72840, Note_on_c, 0, 78, 76
6, 72944, Note_on_c, 0, 78, 0
6, 72960, Note_on_c, 0, 79, 76
6, 73544, Note_on_c, 0, 79, 0
6, 73560, Note_on_c, 0, 69, 76
6, 73664, Note_on_c, 0, 69, 0
6, 73680, Note_on_c, 0, 76, 76
6, 73784, Note_on_c, 0, 76, 0
6, 73800, Note_on_c, 0, 79, 76
6, 73904, Note_on_c, 0, 79, 0
6, 73920, Note_on_c, 0, 78, 76
6, 74504, Note_on_c, 0, 78, 0
6, 74520, Note_on_c, 0, 83, 76
6, 74624, Note_on_c, 0, 83, 0
6, 74640, Note_on_c, 0, 83, 76
6, 74744, Note_on_c, 0, 83, 0
6, 74760, Note_on_c, 0, 83, 76
6, 74864, Note_on_c, 0, 83, 0
6, 74880, Note_on_c, 0, 76, 76
6, 74984, Note_on_c, 0, 76, 0
6, 75000, Note_on_c, 0, 78, 76
6, 75044, Note_on_c, 0, 78, 0
6, 75060, Note_on_c, 0, 79, 76
6, 75104, Note_on_c, 0, 79, 0
6, 75120, Note_on_c, 0, 81, 76
6, 75464, Note_on_c, 0, 81, 0
6, 75480, Note_on_c, 0, 79, 76
6, 75524, Note_on_c, 0, 79, 0
6, 75540, Note_on_c, 0, 78, 76
6, 75584, Note_on_c, 0, 78, 0
6, 75600, Note_on_c, 0, 79, 76
6, 75704, Note_on_c, 0, 79, 0
6, 75720, Note_on_c, 0, 84, 76
6, 75824, Note_on_c, 0, 84, 0
6, 75840, Note_on_c, 0, 78, 76
6, 76124, Note_on_c, 0, 78, 0
6, 76140, Note_on_c, 0, 78, 76
6, 76184, Note_on_c, 0, 78, 0
6, 76200, Note_on_c, 0, 80, 76
6, 76244, Note_on_c, 0, 80, 0
6, 76260, Note_on_c, 0, 81, 76
6, 76304, Note_on_c, 0, 81, 0
6, 76320, Note_on_c, 0, 83, 76
6, 76364, Note_on_c, 0, 83, 0
6, 76380, Note_on_c, 0, 81, 76
6, 76424, Note_on_c, 0, 81, 0
6, 76440, Note_on_c, 0, 80, 76
6, 76484, Note_on_c, 0, 80, 0
6, 76500, Note_on_c, 0, 78, 76
6, 76544, Note_on_c, 0, 78, 0
6, 76560, Note_on_c, 0, 76, 76
6, 76604, Note_on_c, 0, 76, 0
6, 76620, Note_on_c, 0, 81, 76
6, 76664, Note_on_c, 0, 81, 0
6, 76680, Note_on_c, 0, 83, 76
6, 76724, Note_on_c, 0, 83, 0
6, 76740, Note_on_c, 0, 84, 76
6, 76784, Note_on_c, 0, 84, 0
6, 76800, Note_on_c, 0, 74, 76
6, 77324, Note_on_c, 0, 74, 0
6, 77340, Note_on_c, 0, 77, 76
6, 77384, Note_on_c, 0, 77, 0
6, 77400, Note_on_c, 0, 76, 76
6, 77444, Note_on_c, 0, 76, 0
6, 77460, Note_on_c, 0, 74, 76
6, 77504, Note_on_c, 0, 74, 0
6, 77520, Note_on_c, 0, 72, 76
6, 77564, Note_on_c, 0, 72, 0
6, 77580, Note_on_c, 0, 71, 76
6, 77624, Note_on_c, 0, 71, 0
6, 77640, Note_on_c, 0, 72, 76
6, 77684, Note_on_c, 0, 72, 0
6, 77700, Note_on_c, 0, 69, 76
6, 77744, Note_on_c, 0, 69, 0
6, 77760, Note_on_c, 0, 81, 76
6, 78464, Note_on_c, 0, 81, 0
6, 78480, Note_on_c, 0, 80, 76
6, 78704, Note_on_c, 0, 80, 0
6, 78720, Note_on_c, 0, 81, 76
6, 79244, Note_on_c, 0, 81, 0
6, 79260, Note_on_c, 0, 82, 76
6, 79304, Note_on_c, 0, 82, 0
6, 79320, Note_on_c, 0, 81, 76
6, 79364, Note_on_c, 0, 81, 0
6, 79380, Note_on_c, 0, 79, 76
6, 79424, Note_on_c, 0, 79, 0
6, 79440, Note_on_c, 0, 78, 76
6, 79484, Note_on_c, 0, 78, 0
6, 79500, Note_on_c, 0, 76, 76
6, 79544, Note_on_c, 0, 76, 0
6, 79560, Note_on_c, 0, 78, 76
6, 79604, Note_on_c, 0, 78, 0
6, 79620, Note_on_c, 0, 74, 76
6, 79664, Note_on_c, 0, 74, 0
6, 79680, Note_on_c, 0, 79, 76
6, 80384, Note_on_c, 0, 79, 0
6, 80400, Note_on_c, 0, 78, 76
6, 80624, Note_on_c, 0, 78, 0
6, 80640, Note_on_c, 0, 79, 76
6, 81164, Note_on_c, 0, 79, 0
6, 81180, Note_on_c, 0, 81, 76
6, 81224, Note_on_c, 0, 81, 0
6, 81240, Note_on_c, 0, 79, 76
6, 81284, Note_on_c, 0, 79, 0
6, 81300, Note_on_c, 0, 77, 76
6, 81344, Note_on_c, 0, 77, 0
6, 81360, Note_on_c, 0, 76, 76
6, 81404, Note_on_c, 0, 76, 0
6, 81420, Note_on_c, 0, 74, 76
6, 81464, Note_on_c, 0, 74, 0
6, 81480, Note_on_c, 0, 76, 76
6, 81524, Note_on_c, 0, 76, 0
6, 81540, Note_on_c, 0, 72, 76
6, 81584, Note_on_c, 0, 72, 0
6, 81600, Note_on_c, 0, 77, 76
6, 82304, Note_on_c, 0, 77, 0
6, 82320, Note_on_c, 0, 76, 76
6, 82544, Note_on_c, 0, 76, 0
6, 82560, Note_on_c, 0, 77, 76
6, 82664, Note_on_c, 0, 77, 0
6, 82680, Note_on_c, 0, 65, 76
6, 82724, Note_on_c, 0, 65, 0
6, 82740, Note_on_c, 0, 67, 76
6, 82784, Note_on_c, 0, 67, 0
6, 82800, Note_on_c, 0, 69, 76
6, 82844, Note_on_c, 0, 69, 0
6, 82860, Note_on_c, 0, 67, 76
6, 82904, Note_on_c, 0, 67, 0
6, 82920, Note_on_c, 0, 69, 76
6, 82964, Note_on_c, 0, 69, 0
6, 82980, Note_on_c, 0, 71, 76
6, 83024, Note_on_c, 0, 71, 0
6, 83040, Note_on_c, 0, 72, 76
6, 83204, Note_on_c, 0, 72, 0
6, 83220, Note_on_c, 0, 67, 76
6, 83264, Note_on_c, 0, 67, 0
6, 83280, Note_on_c, 0, 72, 76
6, 83444, Note_on_c, 0, 72, 0
6, 83460, Note_on_c, 0, 72, 76
6, 83504, Note_on_c, 0, 72, 0
6, 83520, Note_on_c, 0, 72, 76
6, 83684, Note_on_c, 0, 72, 0
6, 83700, Note_on_c, 0, 71, 76
6, 83719, Note_on_c, 0, 71, 0
6, 83720, Note_on_c, 0, 69, 76
6, 83739, Note_on_c, 0, 69, 0
6, 83740, Note_on_c, 0, 71, 76
6, 83759, Note_on_c, 0, 71, 0
6, 83760, Note_on_c, 0, 71, 76
6, 83924, Note_on_c, 0, 71, 0
6, 83940, Note_on_c, 0, 72, 76
6, 83984, Note_on_c, 0, 72, 0
6, 84000, Note_on_c, 0, 72, 76
6, 84239, Note_on_c, 0, 72, 0
6, 84360, Note_on_c, 0, 81, 76
6, 84524, Note_on_c, 0, 81, 0
6, 84540, Note_on_c, 0, 84, 76
6, 84584, Note_on_c, 0, 84, 0
6, 84600, Note_on_c, 0, 83, 76
6, 84644, Note_on_c, 0, 83, 0
6, 84660, Note_on_c, 0, 81, 76
6, 84704, Note_on_c, 0, 81, 0
6, 84720, Note_on_c, 0, 79, 76
6, 84764, Note_on_c, 0, 79, 0
6, 84780, Note_on_c, 0, 77, 76
6, 84824, Note_on_c, 0, 77, 0
6, 84840, Note_on_c, 0, 76, 76
6, 84884, Note_on_c, 0, 76, 0
6, 84900, Note_on_c, 0, 74, 76
6, 84944, Note_on_c, 0, 74, 0
6, 84960, Note_on_c, 0, 72, 76
6, 85004, Note_on_c, 0, 72, 0
6, 85020, Note_on_c, 0, 76, 76
6, 85064, Note_on_c, 0, 76, 0
6, 85080, Note_on_c, 0, 74, 76
6, 85124, Note_on_c, 0, 74, 0
6, 85140, Note_on_c, 0, 72, 76
6, 85184, Note_on_c, 0, 72, 0
6, 85200, Note_on_c, 0, 77, 76
6, 85364, Note_on_c, 0, 77, 0
6, 85380, Note_on_c, 0, 77, 76
6, 85424, Note_on_c, 0, 77, 0
6, 85440, Note_on_c, 0, 77, 76
6, 85484, Note_on_c, 0, 77, 0
6, 85500, Note_on_c, 0, 76, 76
6, 85544, Note_on_c, 0, 76, 0
6, 85560, Note_on_c, 0, 74, 76
6, 85604, Note_on_c, 0, 74, 0
6, 85620, Note_on_c, 0, 76, 76
6, 85664, Note_on_c, 0, 76, 0
6, 85680, Note_on_c, 0, 76, 76
6, 85709, Note_on_c, 0, 76, 0
6, 85710, Note_on_c, 0, 77, 76
6, 85739, Note_on_c, 0, 77, 0
6, 85740, Note_on_c, 0, 76, 76
6, 85769, Note_on_c, 0, 76, 0
6, 85770, Note_on_c, 0, 77, 76
6, 85799, Note_on_c, 0, 77, 0
6, 85800, Note_on_c, 0, 74, 76
6, 85829, Note_on_c, 0, 74, 0
6, 85830, Note_on_c, 0, 76, 76
6, 85859, Note_on_c, 0, 76, 0
6, 85860, Note_on_c, 0, 76, 76
6, 85904, Note_on_c, 0, 76, 0
6, 85920, Note_on_c, 0, 76, 76
6, 85964, Note_on_c, 0, 76, 0
6, 85980, Note_on_c, 0, 69, 76
6, 86024, Note_on_c, 0, 69, 0
6, 86040, Note_on_c, 0, 71, 76
6, 86084, Note_on_c, 0, 71, 0
6, 86100, Note_on_c, 0, 72, 76
6, 86144, Note_on_c, 0, 72, 0
6, 86160, Note_on_c, 0, 74, 76
6, 86324, Note_on_c, 0, 74, 0
6, 86340, Note_on_c, 0, 74, 76
6, 86384, Note_on_c, 0, 74, 0
6, 86400, Note_on_c, 0, 74, 76
6, 86444, Note_on_c, 0, 74, 0
6, 86460, Note_on_c, 0, 72, 76
6, 86504, Note_on_c, 0, 72, 0
6, 86520, Note_on_c, 0, 74, 76
6, 86564, Note_on_c, 0, 74, 0
6, 86580, Note_on_c, 0, 71, 76
6, 86624, Note_on_c, 0, 71, 0
6, 86640, Note_on_c, 0, 72, 76
6, 86684, Note_on_c, 0, 72, 0
6, 86700, Note_on_c, 0, 76, 76
6, 86744, Note_on_c, 0, 76, 0
6, 86760, Note_on_c, 0, 74, 76
6, 86804, Note_on_c, 0, 74, 0
6, 86820, Note_on_c, 0, 76, 76
6, 86864, Note_on_c, 0, 76, 0
6, 86880, Note_on_c, 0, 77, 76
6, 86924, Note_on_c, 0, 77, 0
6, 86940, Note_on_c, 0, 79, 76
6, 86984, Note_on_c, 0, 79, 0
6, 87000, Note_on_c, 0, 77, 76
6, 87044, Note_on_c, 0, 77, 0
6, 87060, Note_on_c, 0, 76, 76
6, 87104, Note_on_c, 0, 76, 0
6, 87120, Note_on_c, 0, 74, 76
6, 87164, Note_on_c, 0, 74, 0
6, 87180, Note_on_c, 0, 72, 76
6, 87224, Note_on_c, 0, 72, 0
6, 87240, Note_on_c, 0, 74, 76
6, 87284, Note_on_c, 0, 74, 0
6, 87300, Note_on_c, 0, 71, 76
6, 87344, Note_on_c, 0, 71, 0
6, 87360, Note_on_c, 0, 72, 76
6, 87404, Note_on_c, 0, 72, 0
6, 87420, Note_on_c, 0, 74, 76
6, 87464, Note_on_c, 0, 74, 0
6, 87480, Note_on_c, 0, 76, 76
6, 87524, Note_on_c, 0, 76, 0
6, 87540, Note_on_c, 0, 77, 76
6, 87584, Note_on_c, 0, 77, 0
6, 87600, Note_on_c, 0, 79, 76
6, 87644, Note_on_c, 0, 79, 0
6, 87660, Note_on_c, 0, 81, 76
6, 87704, Note_on_c, 0, 81, 0
6, 87720, Note_on_c, 0, 82, 76
6, 87764, Note_on_c, 0, 82, 0
6, 87780, Note_on_c, 0, 79, 76
6, 87824, Note_on_c, 0, 79, 0
6, 87840, Note_on_c, 0, 81, 76
6, 87884, Note_on_c, 0, 81, 0
6, 87900, Note_on_c, 0, 82, 76
6, 87944, Note_on_c, 0, 82, 0
6, 87960, Note_on_c, 0, 81, 76
6, 88004, Note_on_c, 0, 81, 0
6, 88020, Note_on_c, 0, 79, 76
6, 88064, Note_on_c, 0, 79, 0
6, 88080, Note_on_c, 0, 77, 76
6, 88124, Note_on_c, 0, 77, 0
6, 88140, Note_on_c, 0, 76, 76
6, 88184, Note_on_c, 0, 76, 0
6, 88200, Note_on_c, 0, 74, 76
6, 88244, Note_on_c, 0, 74, 0
6, 88260, Note_on_c, 0, 72, 76
6, 88304, Note_on_c, 0, 72, 0
6, 88320, Note_on_c, 0, 71, 76
6, 88439, Note_on_c, 0, 71, 0
6, 88860, Note_on_c, 0, 81, 76
6, 88904, Note_on_c, 0, 81, 0
6, 88920, Note_on_c, 0, 79, 76
6, 88964, Note_on_c, 0, 79, 0
6, 88980, Note_on_c, 0, 77, 76
6, 89024, Note_on_c, 0, 77, 0
6, 89040, Note_on_c, 0, 76, 76
6, 89084, Note_on_c, 0, 76, 0
6, 89100, Note_on_c, 0, 74, 76
6, 89144, Note_on_c, 0, 74, 0
6, 89160, Note_on_c, 0, 76, 76
6, 89204, Note_on_c, 0, 76, 0
6, 89220, Note_on_c, 0, 72, 76
6, 89264, Note_on_c, 0, 72, 0
6, 89280, Note_on_c, 0, 77, 76
6, 89324, Note_on_c, 0, 77, 0
6, 89340, Note_on_c, 0, 79, 76
6, 89384, Note_on_c, 0, 79, 0
6, 89400, Note_on_c, 0, 77, 76
6, 89444, Note_on_c, 0, 77, 0
6, 89460, Note_on_c, 0, 76, 76
6, 89504, Note_on_c, 0, 76, 0
6, 89520, Note_on_c, 0, 74, 76
6, 89564, Note_on_c, 0, 74, 0
6, 89580, Note_on_c, 0, 72, 76
6, 89624, Note_on_c, 0, 72, 0
6, 89640, Note_on_c, 0, 74, 76
6, 89684, Note_on_c, 0, 74, 0
6, 89700, Note_on_c, 0, 67, 76
6, 89744, Note_on_c, 0, 67, 0
6, 89760, Note_on_c, 0, 76, 76
6, 89804, Note_on_c, 0, 76, 0
6, 89820, Note_on_c, 0, 74, 76
6, 89864, Note_on_c, 0, 74, 0
6, 89880, Note_on_c, 0, 72, 76
6, 89924, Note_on_c, 0, 72, 0
6, 89940, Note_on_c, 0, 74, 76
6, 89984, Note_on_c, 0, 74, 0
6, 90000, Note_on_c, 0, 76, 76
6, 90044, Note_on_c, 0, 76, 0
6, 90060, Note_on_c, 0, 74, 76
6, 90104, Note_on_c, 0, 74, 0
6, 90120, Note_on_c, 0, 76, 76
6, 90164, Note_on_c, 0, 76, 0
6, 90180, Note_on_c, 0, 78, 76
6, 90224, Note_on_c, 0, 78, 0
6, 90240, Note_on_c, 0, 79, 76
6, 90404, Note_on_c, 0, 79, 0
6, 90420, Note_on_c, 0, 74, 76
6, 90464, Note_on_c, 0, 74, 0
6, 90480, Note_on_c, 0, 79, 76
6, 90644, Note_on_c, 0, 79, 0
6, 90660, Note_on_c, 0, 79, 76
6, 90704, Note_on_c, 0, 79, 0
6, 90720, Note_on_c, 0, 79, 76
6, 90884, Note_on_c, 0, 79, 0
6, 90900, Note_on_c, 0, 78, 76
6, 90919, Note_on_c, 0, 78, 0
6, 90920, Note_on_c, 0, 76, 76
6, 90939, Note_on_c, 0, 76, 0
6, 90940, Note_on_c, 0, 78, 76
6, 90959, Note_on_c, 0, 78, 0
6, 90960, Note_on_c, 0, 78, 76
6, 90989, Note_on_c, 0, 78, 0
6, 90990, Note_on_c, 0, 79, 76
6, 91019, Note_on_c, 0, 79, 0
6, 91020, Note_on_c, 0, 78, 76
6, 91049, Note_on_c, 0, 78, 0
6, 91050, Note_on_c, 0, 79, 76
6, 91079, Note_on_c, 0, 79, 0
6, 91080, Note_on_c, 0, 76, 76
6, 91109, Note_on_c, 0, 76, 0
6, 91110, Note_on_c, 0, 78, 76
6, 91139, Note_on_c, 0, 78, 0
6, 91140, Note_on_c, 0, 79, 76
6, 91184, Note_on_c, 0, 79, 0
6, 91200, Note_on_c, 0, 79, 76
6, 91304, Note_on_c, 0, 79, 0
6, 91320, Note_on_c, 0, 77, 76
6, 91364, Note_on_c, 0, 77, 0
6, 91380, Note_on_c, 0, 76, 76
6, 91424, Note_on_c, 0, 76, 0
6, 91440, Note_on_c, 0, 74, 76
6, 91484, Note_on_c, 0, 74, 0
6, 91500, Note_on_c, 0, 71, 76
6, 91544, Note_on_c, 0, 71, 0
6, 91560, Note_on_c, 0, 72, 76
6, 91604, Note_on_c, 0, 72, 0
6, 91620, Note_on_c, 0, 74, 76
6, 91664, Note_on_c, 0, 74, 0
6, 91680, Note_on_c, 0, 67, 76
6, 91784, Note_on_c, 0, 67, 0
6, 91800, Note_on_c, 0, 79, 76
6, 91904, Note_on_c, 0, 79, 0
6, 91920, Note_on_c, 0, 76, 76
6, 92024, Note_on_c, 0, 76, 0
6, 92040, Note_on_c, 0, 81, 76
6, 92144, Note_on_c, 0, 81, 0
6, 92160, Note_on_c, 0, 77, 76
6, 92204, Note_on_c, 0, 77, 0
6, 92220, Note_on_c, 0, 79, 76
6, 92264, Note_on_c, 0, 79, 0
6, 92280, Note_on_c, 0, 77, 76
6, 92324, Note_on_c, 0, 77, 0
6, 92340, Note_on_c, 0, 76, 76
6, 92384, Note_on_c, 0, 76, 0
6, 92400, Note_on_c, 0, 74, 76
6, 92444, Note_on_c, 0, 74, 0
6, 92460, Note_on_c, 0, 77, 76
6, 92504, Note_on_c, 0, 77, 0
6, 92520, Note_on_c, 0, 76, 76
6, 92564, Note_on_c, 0, 76, 0
6, 92580, Note_on_c, 0, 74, 76
6, 92624, Note_on_c, 0, 74, 0
6, 92640, Note_on_c, 0, 79, 76
6, 92684, Note_on_c, 0, 79, 0
6, 92700, Note_on_c, 0, 77, 76
6, 92744, Note_on_c, 0, 77, 0
6, 92760, Note_on_c, 0, 76, 76
6, 92804, Note_on_c, 0, 76, 0
6, 92820, Note_on_c, 0, 74, 76
6, 92864, Note_on_c, 0, 74, 0
6, 92880, Note_on_c, 0, 72, 76
6, 92924, Note_on_c, 0, 72, 0
6, 92940, Note_on_c, 0, 71, 76
6, 92984, Note_on_c, 0, 71, 0
6, 93000, Note_on_c, 0, 72, 76
6, 93044, Note_on_c, 0, 72, 0
6, 93060, Note_on_c, 0, 69, 76
6, 93104, Note_on_c, 0, 69, 0
6, 93120, Note_on_c, 0, 74, 76
6, 93224, Note_on_c, 0, 74, 0
6, 93240, Note_on_c, 0, 76, 76
6, 93284, Note_on_c, 0, 76, 0
6, 93300, Note_on_c, 0, 78, 76
6, 93344, Note_on_c, 0, 78, 0
6, 93360, Note_on_c, 0, 79, 76
6, 93464, Note_on_c, 0, 79, 0
6, 93480, Note_on_c, 0, 81, 76
6, 93524, Note_on_c, 0, 81, 0
6, 93540, Note_on_c, 0, 83, 76
6, 93584, Note_on_c, 0, 83, 0
6, 93600, Note_on_c, 0, 84, 76
6, 93764, Note_on_c, 0, 84, 0
6, 93780, Note_on_c, 0, 83, 76
6, 93824, Note_on_c, 0, 83, 0
6, 93840, Note_on_c, 0, 81, 76
6, 93869, Note_on_c, 0, 81, 0
6, 93870, Note_on_c, 0, 83, 76
6, 93899, Note_on_c, 0, 83, 0
6, 93900, Note_on_c, 0, 81, 76
6, 93929, Note_on_c, 0, 81, 0
6, 93930, Note_on_c, 0, 83, 76
6, 93959, Note_on_c, 0, 83, 0
6, 93960, Note_on_c, 0, 79, 76
6, 93989, Note_on_c, 0, 79, 0
6, 93990, Note_on_c, 0, 81, 76
6, 94019, Note_on_c, 0, 81, 0
6, 94020, Note_on_c, 0, 79, 76
6, 94064, Note_on_c, 0, 79, 0
6, 94080, Note_on_c, 0, 79, 76
6, 94184, Note_on_c, 0, 79, 0
6, 94200, Note_on_c, 0, 77, 76
6, 94244, Note_on_c, 0, 77, 0
6, 94260, Note_on_c, 0, 76, 76
6, 94304, Note_on_c, 0, 76, 0
6, 94320, Note_on_c, 0, 74, 76
6, 94364, Note_on_c, 0, 74, 0
6, 94380, Note_on_c, 0, 76, 76
6, 94424, Note_on_c, 0, 76, 0
6, 94440, Note_on_c, 0, 77, 76
6, 94484, Note_on_c, 0, 77, 0
6, 94500, Note_on_c, 0, 74, 76
6, 94544, Note_on_c, 0, 74, 0
6, 94560, Note_on_c, 0, 76, 76
6, 94664, Note_on_c, 0, 76, 0
6, 94680, Note_on_c, 0, 72, 76
6, 94784, Note_on_c, 0, 72, 0
6, 94800, Note_on_c, 0, 84, 76
6, 94964, Note_on_c, 0, 84, 0
6, 94980, Note_on_c, 0, 84, 76
6, 95024, Note_on_c, 0, 84, 0
6, 95040, Note_on_c, 0, 84, 76
6, 95084, Note_on_c, 0, 84, 0
6, 95100, Note_on_c, 0, 82, 76
6, 95144, Note_on_c, 0, 82, 0
6, 95160, Note_on_c, 0, 84, 76
6, 95204, Note_on_c, 0, 84, 0
6, 95220, Note_on_c, 0, 81, 76
6, 95264, Note_on_c, 0, 81, 0
6, 95280, Note_on_c, 0, 82, 76
6, 95444, Note_on_c, 0, 82, 0
6, 95460, Note_on_c, 0, 82, 76
6, 95504, Note_on_c, 0, 82, 0
6, 95520, Note_on_c, 0, 82, 76
6, 95624, Note_on_c, 0, 82, 0
6, 95640, Note_on_c, 0, 76, 76
6, 95744, Note_on_c, 0, 76, 0
6, 95760, Note_on_c, 0, 81, 76
6, 95924, Note_on_c, 0, 81, 0
6, 95940, Note_on_c, 0, 81, 76
6, 95984, Note_on_c, 0, 81, 0
6, 96000, Note_on_c, 0, 81, 76
6, 96044, Note_on_c, 0, 81, 0
6, 96060, Note_on_c, 0, 79, 76
6, 96104, Note_on_c, 0, 79, 0
6, 96120, Note_on_c, 0, 81, 76
6, 96164, Note_on_c, 0, 81, 0
6, 96180, Note_on_c, 0, 77, 76
6, 96224, Note_on_c, 0, 77, 0
6, 96240, Note_on_c, 0, 79, 76
6, 96404, Note_on_c, 0, 79, 0
6, 96420, Note_on_c, 0, 79, 76
6, 96464, Note_on_c, 0, 79, 0
6, 96480, Note_on_c, 0, 79, 76
6, 96584, Note_on_c, 0, 79, 0
6, 96600, Note_on_c, 0, 72, 76
6, 96704, Note_on_c, 0, 72, 0
6, 96720, Note_on_c, 0, 77, 76
6, 96884, Note_on_c, 0, 77, 0
6, 96900, Note_on_c, 0, 77, 76
6, 96944, Note_on_c, 0, 77, 0
6, 96960, Note_on_c, 0, 77, 76
6, 97004, Note_on_c, 0, 77, 0
6, 97020, Note_on_c, 0, 81, 76
6, 97064, Note_on_c, 0, 81, 0
6, 97080, Note_on_c, 0, 79, 76
6, 97124, Note_on_c, 0, 79, 0
6, 97140, Note_on_c, 0, 77, 76
6, 97184, Note_on_c, 0, 77, 0
6, 97200, Note_on_c, 0, 76, 76
6, 97244, Note_on_c, 0, 76, 0
6, 97260, Note_on_c, 0, 74, 76
6, 97304, Note_on_c, 0, 74, 0
6, 97320, Note_on_c, 0, 72, 76
6, 97364, Note_on_c, 0, 72, 0
6, 97380, Note_on_c, 0, 71, 76
6, 97424, Note_on_c, 0, 71, 0
6, 97440, Note_on_c, 0, 72, 76
6, 97484, Note_on_c, 0, 72, 0
6, 97500, Note_on_c, 0, 76, 76
6, 97544, Note_on_c, 0, 76, 0
6, 97560, Note_on_c, 0, 81, 76
6, 97604, Note_on_c, 0, 81, 0
6, 97620, Note_on_c, 0, 79, 76
6, 97664, Note_on_c, 0, 79, 0
6, 97680, Note_on_c, 0, 77, 76
6, 97724, Note_on_c, 0, 77, 0
6, 97740, Note_on_c, 0, 76, 76
6, 97784, Note_on_c, 0, 76, 0
6, 97800, Note_on_c, 0, 74, 76
6, 97844, Note_on_c, 0, 74, 0
6, 97860, Note_on_c, 0, 72, 76
6, 97904, Note_on_c, 0, 72, 0
6, 97920, Note_on_c, 0, 71, 76
6, 97964, Note_on_c, 0, 71, 0
6, 97980, Note_on_c, 0, 69, 76
6, 98024, Note_on_c, 0, 69, 0
6, 98040, Note_on_c, 0, 67, 76
6, 98084, Note_on_c, 0, 67, 0
6, 98100, Note_on_c, 0, 69, 76
6, 98144, Note_on_c, 0, 69, 0
6, 98160, Note_on_c, 0, 71, 76
6, 98204, Note_on_c, 0, 71, 0
6, 98220, Note_on_c, 0, 69, 76
6, 98264, Note_on_c, 0, 69, 0
6, 98280, Note_on_c, 0, 71, 76
6, 98324, Note_on_c, 0, 71, 0
6, 98340, Note_on_c, 0, 67, 76
6, 98384, Note_on_c, 0, 67, 0
6, 98400, Note_on_c, 0, 72, 76
6, 98564, Note_on_c, 0, 72, 0
6, 98580, Note_on_c, 0, 74, 76
6, 98624, Note_on_c, 0, 74, 0
6, 98640, Note_on_c, 0, 71, 76
6, 98804, Note_on_c, 0, 71, 0
6, 98820, Note_on_c, 0, 72, 76
6, 98864, Note_on_c, 0, 72, 0
6, 98880, Note_on_c, 0, 72, 76
6, 98984, Note_on_c, 0, 72, 0
6, 99000, Note_on_c, 0, 79, 76
6, 99104, Note_on_c, 0, 79, 0
6, 99120, Note_on_c, 0, 79, 76
6, 99224, Note_on_c, 0, 79, 0
6, 99240, Note_on_c, 0, 79, 76
6, 99344, Note_on_c, 0, 79, 0
6, 99360, Note_on_c, 0, 76, 76
6, 99464, Note_on_c, 0, 76, 0
6, 99480, Note_on_c, 0, 77, 76
6, 99524, Note_on_c, 0, 77, 0
6, 99540, Note_on_c, 0, 79, 76
6, 99584, Note_on_c, 0, 79, 0
6, 99600, Note_on_c, 0, 81, 76
6, 99704, Note_on_c, 0, 81, 0
6, 99720, Note_on_c, 0, 77, 76
6, 99824, Note_on_c, 0, 77, 0
6, 99840, Note_on_c, 0, 74, 76
6, 99944, Note_on_c, 0, 74, 0
6, 99960, Note_on_c, 0, 79, 76
6, 100064, Note_on_c, 0, 79, 0
6, 100080, Note_on_c, 0, 67, 76
6, 100184, Note_on_c, 0, 67, 0
6, 100200, Note_on_c, 0, 77, 76
6, 100304, Note_on_c, 0, 77, 0
6, 100320, Note_on_c, 0, 76, 76
6, 100559, Note_on_c, 0, 76, 0
6, 101040, Note_on_c, 0, 72, 76
6, 101504, Note_on_c, 0, 72, 0
6, 101520, Note_on_c, 0, 71, 76
6, 101744, Note_on_c, 0, 71, 0
6, 101760, Note_on_c, 0, 72, 76
6, 101804, Note_on_c, 0, 72, 0
6, 101820, Note_on_c, 0, 79, 76
6, 101864, Note_on_c, 0, 79, 0
6, 101880, Note_on_c, 0, 77, 76
6, 101924, Note_on_c, 0, 77, 0
6, 101940, Note_on_c, 0, 79, 76
6, 101984, Note_on_c, 0, 79, 0
6, 102000, Note_on_c, 0, 81, 76
6, 102044, Note_on_c, 0, 81, 0
6, 102060, Note_on_c, 0, 79, 76
6, 102104, Note_on_c, 0, 79, 0
6, 102120, Note_on_c, 0, 77, 76
6, 102164, Note_on_c, 0, 77, 0
6, 102180, Note_on_c, 0, 76, 76
6, 102224, Note_on_c, 0, 76, 0
6, 102240, Note_on_c, 0, 74, 76
6, 102284, Note_on_c, 0, 74, 0
6, 102300, Note_on_c, 0, 77, 76
6, 102344, Note_on_c, 0, 77, 0
6, 102360, Note_on_c, 0, 76, 76
6, 102404, Note_on_c, 0, 76, 0
6, 102420, Note_on_c, 0, 77, 76
6, 102464, Note_on_c, 0, 77, 0
6, 102480, Note_on_c, 0, 79, 76
6, 102524, Note_on_c, 0, 79, 0
6, 102540, Note_on_c, 0, 77, 76
6, 102584, Note_on_c, 0, 77, 0
6, 102600, Note_on_c, 0, 76, 76
6, 102644, Note_on_c, 0, 76, 0
6, 102660, Note_on_c, 0, 74, 76
6, 102704, Note_on_c, 0, 74, 0
6, 102720, Note_on_c, 0, 72, 76
6, 102764, Note_on_c, 0, 72, 0
6, 102780, Note_on_c, 0, 76, 76
6, 102824, Note_on_c, 0, 76, 0
6, 102840, Note_on_c, 0, 74, 76
6, 102884, Note_on_c, 0, 74, 0
6, 102900, Note_on_c, 0, 76, 76
6, 102944, Note_on_c, 0, 76, 0
6, 102960, Note_on_c, 0, 77, 76
6, 103124, Note_on_c, 0, 77, 0
6, 103140, Note_on_c, 0, 77, 76
6, 103184, Note_on_c, 0, 77, 0
6, 103200, Note_on_c, 0, 77, 76
6, 103244, Note_on_c, 0, 77, 0
6, 103260, Note_on_c, 0, 76, 76
6, 103304, Note_on_c, 0, 76, 0
6, 103320, Note_on_c, 0, 77, 76
6, 103364, Note_on_c, 0, 77, 0
6, 103380, Note_on_c, 0, 74, 76
6, 103424, Note_on_c, 0, 74, 0
6, 103440, Note_on_c, 0, 76, 76
6, 103484, Note_on_c, 0, 76, 0
6, 103500, Note_on_c, 0, 79, 76
6, 103544, Note_on_c, 0, 79, 0
6, 103560, Note_on_c, 0, 77, 76
6, 103604, Note_on_c, 0, 77, 0
6, 103620, Note_on_c, 0, 79, 76
6, 103664, Note_on_c, 0, 79, 0
6, 103680, Note_on_c, 0, 81, 76
6, 103964, Note_on_c, 0, 81, 0
6, 103980, Note_on_c, 0, 74, 76
6, 104024, Note_on_c, 0, 74, 0
6, 104040, Note_on_c, 0, 76, 76
6, 104084, Note_on_c, 0, 76, 0
6, 104100, Note_on_c, 0, 77, 76
6, 104144, Note_on_c, 0, 77, 0
6, 104160, Note_on_c, 0, 79, 76
6, 104444, Note_on_c, 0, 79, 0
6, 104460, Note_on_c, 0, 72, 76
6, 104504, Note_on_c, 0, 72, 0
6, 104520, Note_on_c, 0, 74, 76
6, 104564, Note_on_c, 0, 74, 0
6, 104580, Note_on_c, 0, 76, 76
6, 104624, Note_on_c, 0, 76, 0
6, 104640, Note_on_c, 0, 77, 76
6, 104684, Note_on_c, 0, 77, 0
6, 104700, Note_on_c, 0, 76, 76
6, 104744, Note_on_c, 0, 76, 0
6, 104760, Note_on_c, 0, 74, 76
6, 104804, Note_on_c, 0, 74, 0
6, 104820, Note_on_c, 0, 72, 76
6, 104864, Note_on_c, 0, 72, 0
6, 104880, Note_on_c, 0, 71, 76
6, 104924, Note_on_c, 0, 71, 0
6, 104940, Note_on_c, 0, 74, 76
6, 104984, Note_on_c, 0, 74, 0
6, 105000, Note_on_c, 0, 76, 76
6, 105044, Note_on_c, 0, 76, 0
6, 105060, Note_on_c, 0, 77, 76
6, 105104, Note_on_c, 0, 77, 0
6, 105120, Note_on_c, 0, 76, 76
6, 105164, Note_on_c, 0, 76, 0
6, 105180, Note_on_c, 0, 79, 76
6, 105224, Note_on_c, 0, 79, 0
6, 105240, Note_on_c, 0, 77, 76
6, 105284, Note_on_c, 0, 77, 0
6, 105300, Note_on_c, 0, 79, 76
6, 105344, Note_on_c, 0, 79, 0
6, 105360, Note_on_c, 0, 81, 76
6, 105404, Note_on_c, 0, 81, 0
6, 105420, Note_on_c, 0, 79, 76
6, 105464, Note_on_c, 0, 79, 0
6, 105480, Note_on_c, 0, 77, 76
6, 105524, Note_on_c, 0, 77, 0
6, 105540, Note_on_c, 0, 76, 76
6, 105584, Note_on_c, 0, 76, 0
6, 105600, Note_on_c, 0, 74, 76
6, 105644, Note_on_c, 0, 74, 0
6, 105660, Note_on_c, 0, 77, 76
6, 105704, Note_on_c, 0, 77, 0
6, 105720, Note_on_c, 0, 76, 76
6, 105764, Note_on_c, 0, 76, 0
6, 105780, Note_on_c, 0, 77, 76
6, 105824, Note_on_c, 0, 77, 0
6, 105840, Note_on_c, 0, 79, 76
6, 105884, Note_on_c, 0, 79, 0
6, 105900, Note_on_c, 0, 77, 76
6, 105944, Note_on_c, 0, 77, 0
6, 105960, Note_on_c, 0, 76, 76
6, 106004, Note_on_c, 0, 76, 0
6, 106020, Note_on_c, 0, 74, 76
6, 106064, Note_on_c, 0, 74, 0
6, 106080, Note_on_c, 0, 72, 76
6, 106124, Note_on_c, 0, 72, 0
6, 106140, Note_on_c, 0, 76, 76
6, 106184, Note_on_c, 0, 76, 0
6, 106200, Note_on_c, 0, 74, 76
6, 106244, Note_on_c, 0, 74, 0
6, 106260, Note_on_c, 0, 76, 76
6, 106304, Note_on_c, 0, 76, 0
6, 106320, Note_on_c, 0, 77, 76
6, 106364, Note_on_c, 0, 77, 0
6, 106380, Note_on_c, 0, 76, 76
6, 106424, Note_on_c, 0, 76, 0
6, 106440, Note_on_c, 0, 74, 76
6, 106484, Note_on_c, 0, 74, 0
6, 106500, Note_on_c, 0, 72, 76
6, 106544, Note_on_c, 0, 72, 0
6, 106560, Note_on_c, 0, 71, 76
6, 106604, Note_on_c, 0, 71, 0
6, 106620, Note_on_c, 0, 74, 76
6, 106664, Note_on_c, 0, 74, 0
6, 106680, Note_on_c, 0, 72, 76
6, 106724, Note_on_c, 0, 72, 0
6, 106740, Note_on_c, 0, 74, 76
6, 106784, Note_on_c, 0, 74, 0
6, 106800, Note_on_c, 0, 76, 76
6, 106844, Note_on_c, 0, 76, 0
6, 106860, Note_on_c, 0, 74, 76
6, 106904, Note_on_c, 0, 74, 0
6, 106920, Note_on_c, 0, 72, 76
6, 106964, Note_on_c, 0, 72, 0
6, 106980, Note_on_c, 0, 71, 76
6, 107024, Note_on_c, 0, 71, 0
6, 107040, Note_on_c, 0, 69, 76
6, 107084, Note_on_c, 0, 69, 0
6, 107100, Note_on_c, 0, 72, 76
6, 107144, Note_on_c, 0, 72, 0
6, 107160, Note_on_c, 0, 71, 76
6, 107204, Note_on_c, 0, 71, 0
6, 107220, Note_on_c, 0, 72, 76
6, 107264, Note_on_c, 0, 72, 0
6, 107280, Note_on_c, 0, 74, 76
6, 107324, Note_on_c, 0, 74, 0
6, 107340, Note_on_c, 0, 72, 76
6, 107384, Note_on_c, 0, 72, 0
6, 107400, Note_on_c, 0, 71, 76
6, 107444, Note_on_c, 0, 71, 0
6, 107460, Note_on_c, 0, 69, 76
6, 107504, Note_on_c, 0, 69, 0
6, 107520, Note_on_c, 0, 71, 76
6, 107624, Note_on_c, 0, 71, 0
6, 107640, Note_on_c, 0, 79, 76
6, 107744, Note_on_c, 0, 79, 0
6, 107760, Note_on_c, 0, 79, 76
6, 107864, Note_on_c, 0, 79, 0
6, 107880, Note_on_c, 0, 79, 76
6, 107984, Note_on_c, 0, 79, 0
6, 108000, Note_on_c, 0, 76, 76
6, 108104, Note_on_c, 0, 76, 0
6, 108120, Note_on_c, 0, 77, 76
6, 108164, Note_on_c, 0, 77, 0
6, 108180, Note_on_c, 0, 79, 76
6, 108224, Note_on_c, 0, 79, 0
6, 108240, Note_on_c, 0, 81, 76
6, 108344, Note_on_c, 0, 81, 0
6, 108360, Note_on_c, 0, 77, 76
6, 108464, Note_on_c, 0, 77, 0
6, 108480, Note_on_c, 0, 74, 76
6, 108584, Note_on_c, 0, 74, 0
6, 108600, Note_on_c, 0, 79, 76
6, 108704, Note_on_c, 0, 79, 0
6, 108720, Note_on_c, 0, 67, 76
6, 108824, Note_on_c, 0, 67, 0
6, 108840, Note_on_c, 0, 77, 76
6, 108944, Note_on_c, 0, 77, 0
6, 108960, Note_on_c, 0, 76, 76
6, 109124, Note_on_c, 0, 76, 0
6, 109140, Note_on_c, 0, 74, 76
6, 109184, Note_on_c, 0, 74, 0
6, 109200, Note_on_c, 0, 74, 76
6, 109229, Note_on_c, 0, 74, 0
6, 109230, Note_on_c, 0, 76, 76
6, 109259, Note_on_c, 0, 76, 0
6, 109260, Note_on_c, 0, 74, 76
6, 109289, Note_on_c, 0, 74, 0
6, 109290, Note_on_c, 0, 76, 76
6, 109319, Note_on_c, 0, 76, 0
6, 109320, Note_on_c, 0, 72, 76
6, 109349, Note_on_c, 0, 72, 0
6, 109350, Note_on_c, 0, 74, 76
6, 109379, Note_on_c, 0, 74, 0
6, 109380, Note_on_c, 0, 72, 76
6, 109424, Note_on_c, 0, 72, 0
6, 109440, Note_on_c, 0, 72, 76
6, 109731, Note_on_c, 0, 72, 0
6, 109740, Note_on_c, 0, 72, 76
6, 109791, Note_on_c, 0, 72, 0
6, 109800, Note_on_c, 0, 70, 76
6, 109851, Note_on_c, 0, 70, 0
6, 109860, Note_on_c, 0, 69, 76
6, 109911, Note_on_c, 0, 69, 0
6, 109920, Note_on_c, 0, 67, 76
6, 110271, Note_on_c, 0, 67, 0
6, 110280, Note_on_c, 0, 69, 76
6, 110391, Note_on_c, 0, 69, 0
6, 110400, Note_on_c, 0, 70, 76
6, 110571, Note_on_c, 0, 70, 0
6, 110580, Note_on_c, 0, 70, 76
6, 110631, Note_on_c, 0, 70, 0
6, 110640, Note_on_c, 0, 72, 76
6, 110811, Note_on_c, 0, 72, 0
6, 110820, Note_on_c, 0, 74, 76
6, 110871, Note_on_c, 0, 74, 0
6, 110880, Note_on_c, 0, 67, 76
6, 111051, Note_on_c, 0, 67, 0
6, 111060, Note_on_c, 0, 67, 76
6, 111111, Note_on_c, 0, 67, 0
6, 111120, Note_on_c, 0, 69, 76
6, 111291, Note_on_c, 0, 69, 0
6, 111300, Note_on_c, 0, 70, 76
6, 111351, Note_on_c, 0, 70, 0
6, 111360, Note_on_c, 0, 69, 76
6, 111651, Note_on_c, 0, 69, 0
6, 111660, Note_on_c, 0, 69, 76
6, 111711, Note_on_c, 0, 69, 0
6, 111720, Note_on_c, 0, 71, 76
6, 111771, Note_on_c, 0, 71, 0
6, 111780, Note_on_c, 0, 73, 76
6, 111831, Note_on_c, 0, 73, 0
6, 111840, Note_on_c, 0, 74, 76
6, 111891, Note_on_c, 0, 74, 0
6, 111900, Note_on_c, 0, 73, 76
6, 111951, Note_on_c, 0, 73, 0
6, 111960, Note_on_c, 0, 74, 76
6, 112011, Note_on_c, 0, 74, 0
6, 112020, Note_on_c, 0, 76, 76
6, 112071, Note_on_c, 0, 76, 0
6, 112080, Note_on_c, 0, 77, 76
6, 112131, Note_on_c, 0, 77, 0
6, 112140, Note_on_c, 0, 76, 76
6, 112191, Note_on_c, 0, 76, 0
6, 112200, Note_on_c, 0, 77, 76
6, 112251, Note_on_c, 0, 77, 0
6, 112260, Note_on_c, 0, 74, 76
6, 112311, Note_on_c, 0, 74, 0
6, 112320, Note_on_c, 0, 79, 76
6, 112671, Note_on_c, 0, 79, 0
6, 112680, Note_on_c, 0, 79, 76
6, 112791, Note_on_c, 0, 79, 0
6, 112800, Note_on_c, 0, 79, 76
6, 112971, Note_on_c, 0, 79, 0
6, 112980, Note_on_c, 0, 81, 76
6, 113009, Note_on_c, 0, 81, 0
6, 113010, Note_on_c, 0, 82, 76
6, 113039, Note_on_c, 0, 82, 0
6, 113040, Note_on_c, 0, 81, 76
6, 113211, Note_on_c, 0, 81, 0
6, 113220, Note_on_c, 0, 79, 76
6, 113239, Note_on_c, 0, 79, 0
6, 113240, Note_on_c, 0, 77, 76
6, 113259, Note_on_c, 0, 77, 0
6, 113260, Note_on_c, 0, 76, 76
6, 113279, Note_on_c, 0, 76, 0
6, 113280, Note_on_c, 0, 77, 76
6, 113451, Note_on_c, 0, 77, 0
6, 113460, Note_on_c, 0, 74, 76
6, 113511, Note_on_c, 0, 74, 0
6, 113520, Note_on_c, 0, 77, 76
6, 113691, Note_on_c, 0, 77, 0
6, 113700, Note_on_c, 0, 81, 76
6, 113751, Note_on_c, 0, 81, 0
6, 113760, Note_on_c, 0, 78, 76
6, 113774, Note_on_c, 0, 78, 0
6, 113775, Note_on_c, 0, 79, 76
6, 113789, Note_on_c, 0, 79, 0
6, 113790, Note_on_c, 0, 78, 76
6, 113804, Note_on_c, 0, 78, 0
6, 113805, Note_on_c, 0, 79, 76
6, 113819, Note_on_c, 0, 79, 0
6, 113820, Note_on_c, 0, 78, 76
6, 113834, Note_on_c, 0, 78, 0
6, 113835, Note_on_c, 0, 79, 76
6, 113849, Note_on_c, 0, 79, 0
6, 113850, Note_on_c, 0, 78, 76
6, 113864, Note_on_c, 0, 78, 0
6, 113865, Note_on_c, 0, 79, 76
6, 113879, Note_on_c, 0, 79, 0
6, 113880, Note_on_c, 0, 78, 76
6, 113894, Note_on_c, 0, 78, 0
6, 113895, Note_on_c, 0, 79, 76
6, 113909, Note_on_c, 0, 79, 0
6, 113910, Note_on_c, 0, 78, 76
6, 113924, Note_on_c, 0, 78, 0
6, 113925, Note_on_c, 0, 79, 76
6, 113939, Note_on_c, 0, 79, 0
6, 113940, Note_on_c, 0, 78, 76
6, 113954, Note_on_c, 0, 78, 0
6, 113955, Note_on_c, 0, 79, 76
6, 113969, Note_on_c, 0, 79, 0
6, 113970, Note_on_c, 0, 78, 76
6, 113984, Note_on_c, 0, 78, 0
6, 113985, Note_on_c, 0, 79, 76
6, 113999, Note_on_c, 0, 79, 0
6, 114000, Note_on_c, 0, 78, 76
6, 114014, Note_on_c, 0, 78, 0
6, 114015, Note_on_c, 0, 79, 76
6, 114029, Note_on_c, 0, 79, 0
6, 114030, Note_on_c, 0, 78, 76
6, 114044, Note_on_c, 0, 78, 0
6, 114045, Note_on_c, 0, 79, 76
6, 114059, Note_on_c, 0, 79, 0
6, 114060, Note_on_c, 0, 78, 76
6, 114074, Note_on_c, 0, 78, 0
6, 114075, Note_on_c, 0, 79, 76
6, 114089, Note_on_c, 0, 79, 0
6, 114090, Note_on_c, 0, 78, 76
6, 114104, Note_on_c, 0, 78, 0
6, 114105, Note_on_c, 0, 79, 76
6, 114119, Note_on_c, 0, 79, 0
6, 114120, Note_on_c, 0, 76, 76
6, 114171, Note_on_c, 0, 76, 0
6, 114180, Note_on_c, 0, 78, 76
6, 114231, Note_on_c, 0, 78, 0
6, 114240, Note_on_c, 0, 79, 76
6, 114771, Note_on_c, 0, 79, 0
6, 114780, Note_on_c, 0, 81, 76
6, 114831, Note_on_c, 0, 81, 0
6, 114840, Note_on_c, 0, 79, 76
6, 114891, Note_on_c, 0, 79, 0
6, 114900, Note_on_c, 0, 77, 76
6, 114951, Note_on_c, 0, 77, 0
6, 114960, Note_on_c, 0, 76, 76
6, 115011, Note_on_c, 0, 76, 0
6, 115020, Note_on_c, 0, 74, 76
6, 115071, Note_on_c, 0, 74, 0
6, 115080, Note_on_c, 0, 76, 76
6, 115131, Note_on_c, 0, 76, 0
6, 115140, Note_on_c, 0, 72, 76
6, 115191, Note_on_c, 0, 72, 0
6, 115200, Note_on_c, 0, 81, 76
6, 115731, Note_on_c, 0, 81, 0
6, 115740, Note_on_c, 0, 79, 76
6, 115791, Note_on_c, 0, 79, 0
6, 115800, Note_on_c, 0, 81, 76
6, 115851, Note_on_c, 0, 81, 0
6, 115860, Note_on_c, 0, 83, 76
6, 115911, Note_on_c, 0, 83, 0
6, 115920, Note_on_c, 0, 84, 76
6, 115971, Note_on_c, 0, 84, 0
6, 115980, Note_on_c, 0, 81, 76
6, 116031, Note_on_c, 0, 81, 0
6, 116040, Note_on_c, 0, 83, 76
6, 116091, Note_on_c, 0, 83, 0
6, 116100, Note_on_c, 0, 84, 76
6, 116151, Note_on_c, 0, 84, 0
6, 116160, Note_on_c, 0, 77, 76
6, 116211, Note_on_c, 0, 77, 0
6, 116220, Note_on_c, 0, 76, 76
6, 116271, Note_on_c, 0, 76, 0
6, 116280, Note_on_c, 0, 77, 76
6, 116331, Note_on_c, 0, 77, 0
6, 116340, Note_on_c, 0, 79, 76
6, 116391, Note_on_c, 0, 79, 0
6, 116400, Note_on_c, 0, 81, 76
6, 116451, Note_on_c, 0, 81, 0
6, 116460, Note_on_c, 0, 77, 76
6, 116511, Note_on_c, 0, 77, 0
6, 116520, Note_on_c, 0, 79, 76
6, 116571, Note_on_c, 0, 79, 0
6, 116580, Note_on_c, 0, 81, 76
6, 116631, Note_on_c, 0, 81, 0
6, 116640, Note_on_c, 0, 71, 76
6, 116991, Note_on_c, 0, 71, 0
6, 117000, Note_on_c, 0, 72, 76
6, 117111, Note_on_c, 0, 72, 0
6, 117120, Note_on_c, 0, 74, 76
6, 117171, Note_on_c, 0, 74, 0
6, 117180, Note_on_c, 0, 71, 76
6, 117231, Note_on_c, 0, 71, 0
6, 117240, Note_on_c, 0, 67, 76
6, 117291, Note_on_c, 0, 67, 0
6, 117300, Note_on_c, 0, 69, 76
6, 117351, Note_on_c, 0, 69, 0
6, 117360, Note_on_c, 0, 71, 76
6, 117411, Note_on_c, 0, 71, 0
6, 117420, Note_on_c, 0, 72, 76
6, 117471, Note_on_c, 0, 72, 0
6, 117480, Note_on_c, 0, 74, 76
6, 117531, Note_on_c, 0, 74, 0
6, 117540, Note_on_c, 0, 76, 76
6, 117591, Note_on_c, 0, 76, 0
6, 117600, Note_on_c, 0, 77, 76
6, 117951, Note_on_c, 0, 77, 0
6, 117960, Note_on_c, 0, 77, 76
6, 118071, Note_on_c, 0, 77, 0
6, 118080, Note_on_c, 0, 77, 76
6, 118251, Note_on_c, 0, 77, 0
6, 118260, Note_on_c, 0, 76, 76
6, 118289, Note_on_c, 0, 76, 0
6, 118290, Note_on_c, 0, 74, 76
6, 118319, Note_on_c, 0, 74, 0
6, 118320, Note_on_c, 0, 76, 76
6, 118491, Note_on_c, 0, 76, 0
6, 118500, Note_on_c, 0, 77, 76
6, 118529, Note_on_c, 0, 77, 0
6, 118530, Note_on_c, 0, 79, 76
6, 118559, Note_on_c, 0, 79, 0
6, 118560, Note_on_c, 0, 70, 76
6, 118911, Note_on_c, 0, 70, 0
6, 118920, Note_on_c, 0, 70, 76
6, 119031, Note_on_c, 0, 70, 0
6, 119040, Note_on_c, 0, 70, 76
6, 119211, Note_on_c, 0, 70, 0
6, 119220, Note_on_c, 0, 69, 76
6, 119249, Note_on_c, 0, 69, 0
6, 119250, Note_on_c, 0, 67, 76
6, 119279, Note_on_c, 0, 67, 0
6, 119280, Note_on_c, 0, 69, 76
6, 119451, Note_on_c, 0, 69, 0
6, 119460, Note_on_c, 0, 71, 76
6, 119511, Note_on_c, 0, 71, 0
6, 119520, Note_on_c, 0, 72, 76
6, 119871, Note_on_c, 0, 72, 0
6, 119880, Note_on_c, 0, 72, 76
6, 119991, Note_on_c, 0, 72, 0
6, 120000, Note_on_c, 0, 72, 76
6, 120171, Note_on_c, 0, 72, 0
6, 120180, Note_on_c, 0, 71, 76
6, 120209, Note_on_c, 0, 71, 0
6, 120210, Note_on_c, 0, 69, 76
6, 120239, Note_on_c, 0, 69, 0
6, 120240, Note_on_c, 0, 77, 76
6, 120411, Note_on_c, 0, 77, 0
6, 120420, Note_on_c, 0, 76, 76
6, 120449, Note_on_c, 0, 76, 0
6, 120450, Note_on_c, 0, 74, 76
6, 120479, Note_on_c, 0, 74, 0
6, 120480, Note_on_c, 0, 83, 76
6, 120651, Note_on_c, 0, 83, 0
6, 120660, Note_on_c, 0, 81, 76
6, 120689, Note_on_c, 0, 81, 0
6, 120690, Note_on_c, 0, 79, 76
6, 120719, Note_on_c, 0, 79, 0
6, 120720, Note_on_c, 0, 86, 76
6, 120891, Note_on_c, 0, 86, 0
6, 120900, Note_on_c, 0, 77, 76
6, 120951, Note_on_c, 0, 77, 0
6, 120960, Note_on_c, 0, 77, 76
6, 121251, Note_on_c, 0, 77, 0
6, 121260, Note_on_c, 0, 81, 76
6, 121311, Note_on_c, 0, 81, 0
6, 121320, Note_on_c, 0, 79, 76
6, 121371, Note_on_c, 0, 79, 0
6, 121380, Note_on_c, 0, 77, 76
6, 121431, Note_on_c, 0, 77, 0
6, 121440, Note_on_c, 0, 76, 76
6, 121491, Note_on_c, 0, 76, 0
6, 121500, Note_on_c, 0, 72, 76
6, 121551, Note_on_c, 0, 72, 0
6, 121560, Note_on_c, 0, 74, 76
6, 121611, Note_on_c, 0, 74, 0
6, 121620, Note_on_c, 0, 76, 76
6, 121671, Note_on_c, 0, 76, 0
6, 121680, Note_on_c, 0, 77, 76
6, 121731, Note_on_c, 0, 77, 0
6, 121740, Note_on_c, 0, 79, 76
6, 121791, Note_on_c, 0, 79, 0
6, 121800, Note_on_c, 0, 81, 76
6, 121851, Note_on_c, 0, 81, 0
6, 121860, Note_on_c, 0, 82, 76
6, 121911, Note_on_c, 0, 82, 0
6, 121920, Note_on_c, 0, 81, 76
6, 121971, Note_on_c, 0, 81, 0
6, 121980, Note_on_c, 0, 79, 76
6, 122031, Note_on_c, 0, 79, 0
6, 122040, Note_on_c, 0, 77, 76
6, 122091, Note_on_c, 0, 77, 0
6, 122100, Note_on_c, 0, 76, 76
6, 122151, Note_on_c, 0, 76, 0
6, 122160, Note_on_c, 0, 77, 76
6, 122211, Note_on_c, 0, 77, 0
6, 122220, Note_on_c, 0, 74, 76
6, 122271, Note_on_c, 0, 74, 0
6, 122280, Note_on_c, 0, 76, 76
6, 122331, Note_on_c, 0, 76, 0
6, 122340, Note_on_c, 0, 77, 76
6, 122391, Note_on_c, 0, 77, 0
6, 122400, Note_on_c, 0, 67, 76
6, 122721, Note_on_c, 0, 67, 0
6, 122730, Note_on_c, 0, 69, 76
6, 122759, Note_on_c, 0, 69, 0
6, 122760, Note_on_c, 0, 71, 76
6, 122789, Note_on_c, 0, 71, 0
6, 122790, Note_on_c, 0, 72, 76
6, 122819, Note_on_c, 0, 72, 0
6, 122820, Note_on_c, 0, 74, 76
6, 122849, Note_on_c, 0, 74, 0
6, 122850, Note_on_c, 0, 76, 76
6, 122879, Note_on_c, 0, 76, 0
6, 122880, Note_on_c, 0, 77, 76
6, 123051, Note_on_c, 0, 77, 0
6, 123060, Note_on_c, 0, 74, 76
6, 123111, Note_on_c, 0, 74, 0
6, 123120, Note_on_c, 0, 76, 76
6, 123291, Note_on_c, 0, 76, 0
6, 123300, Note_on_c, 0, 77, 76
6, 123351, Note_on_c, 0, 77, 0
6, 123360, Note_on_c, 0, 74, 76
6, 123711, Note_on_c, 0, 74, 0
6, 123720, Note_on_c, 0, 72, 76
6, 123831, Note_on_c, 0, 72, 0
6, 123840, Note_on_c, 0, 72, 76
6, 123944, Note_on_c, 0, 72, 0
6, 123960, Note_on_c, 0, 79, 76
6, 124064, Note_on_c, 0, 79, 0
6, 124080, Note_on_c, 0, 79, 76
6, 124184, Note_on_c, 0, 79, 0
6, 124200, Note_on_c, 0, 79, 76
6, 124304, Note_on_c, 0, 79, 0
6, 124320, Note_on_c, 0, 76, 76
6, 124424, Note_on_c, 0, 76, 0
6, 124440, Note_on_c, 0, 77, 76
6, 124484, Note_on_c, 0, 77, 0
6, 124500, Note_on_c, 0, 79, 76
6, 124544, Note_on_c, 0, 79, 0
6, 124560, Note_on_c, 0, 81, 76
6, 124664, Note_on_c, 0, 81, 0
6, 124680, Note_on_c, 0, 77, 76
6, 124784, Note_on_c, 0, 77, 0
6, 124800, Note_on_c, 0, 74, 76
6, 124904, Note_on_c, 0, 74, 0
6, 124920, Note_on_c, 0, 79, 76
6, 125024, Note_on_c, 0, 79, 0
6, 125040, Note_on_c, 0, 67, 76
6, 125144, Note_on_c, 0, 67, 0
6, 125160, Note_on_c, 0, 77, 76
6, 125264, Note_on_c, 0, 77, 0
6, 125280, Note_on_c, 0, 76, 76
6, 125324, Note_on_c, 0, 76, 0
6, 125340, Note_on_c, 0, 74, 76
6, 125384, Note_on_c, 0, 74, 0
6, 125400, Note_on_c, 0, 72, 76
6, 125444, Note_on_c, 0, 72, 0
6, 125460, Note_on_c, 0, 74, 76
6, 125504, Note_on_c, 0, 74, 0
6, 125520, Note_on_c, 0, 76, 76
6, 125564, Note_on_c, 0, 76, 0
6, 125580, Note_on_c, 0, 74, 76
6, 125624, Note_on_c, 0, 74, 0
6, 125640, Note_on_c, 0, 76, 76
6, 125684, Note_on_c, 0, 76, 0
6, 125700, Note_on_c, 0, 78, 76
6, 125744, Note_on_c, 0, 78, 0
6, 125760, Note_on_c, 0, 79, 76
6, 125924, Note_on_c, 0, 79, 0
6, 125940, Note_on_c, 0, 74, 76
6, 125984, Note_on_c, 0, 74, 0
6, 126000, Note_on_c, 0, 79, 76
6, 126164, Note_on_c, 0, 79, 0
6, 126180, Note_on_c, 0, 79, 76
6, 126224, Note_on_c, 0, 79, 0
6, 126240, Note_on_c, 0, 79, 76
6, 126404, Note_on_c, 0, 79, 0
6, 126420, Note_on_c, 0, 78, 76
6, 126439, Note_on_c, 0, 78, 0
6, 126440, Note_on_c, 0, 76, 76
6, 126459, Note_on_c, 0, 76, 0
6, 126460, Note_on_c, 0, 78, 76
6, 126479, Note_on_c, 0, 78, 0
6, 126480, Note_on_c, 0, 78, 76
6, 126644, Note_on_c, 0, 78, 0
6, 126660, Note_on_c, 0, 79, 76
6, 126704, Note_on_c, 0, 79, 0
6, 126720, Note_on_c, 0, 79, 76
6, 126824, Note_on_c, 0, 79, 0
6, 126840, Note_on_c, 0, 77, 76
6, 126884, Note_on_c, 0, 77, 0
6, 126900, Note_on_c, 0, 76, 76
6, 126944, Note_on_c, 0, 76, 0
6, 126960, Note_on_c, 0, 74, 76
6, 127004, Note_on_c, 0, 74, 0
6, 127020, Note_on_c, 0, 71, 76
6, 127064, Note_on_c, 0, 71, 0
6, 127080, Note_on_c, 0, 72, 76
6, 127124, Note_on_c, 0, 72, 0
6, 127140, Note_on_c, 0, 74, 76
6, 127184, Note_on_c, 0, 74, 0
6, 127200, Note_on_c, 0, 67, 76
6, 127304, Note_on_c, 0, 67, 0
6, 127320, Note_on_c, 0, 79, 76
6, 127424, Note_on_c, 0, 79, 0
6, 127440, Note_on_c, 0, 76, 76
6, 127544, Note_on_c, 0, 76, 0
6, 127560, Note_on_c, 0, 81, 76
6, 127664, Note_on_c, 0, 81, 0
6, 127680, Note_on_c, 0, 77, 76
6, 127724, Note_on_c, 0, 77, 0
6, 127740, Note_on_c, 0, 79, 76
6, 127784, Note_on_c, 0, 79, 0
6, 127800, Note_on_c, 0, 77, 76
6, 127844, Note_on_c, 0, 77, 0
6, 127860, Note_on_c, 0, 76, 76
6, 127904, Note_on_c, 0, 76, 0
6, 127920, Note_on_c, 0, 74, 76
6, 127964, Note_on_c, 0, 74, 0
6, 127980, Note_on_c, 0, 77, 76
6, 128024, Note_on_c, 0, 77, 0
6, 128040, Note_on_c, 0, 76, 76
6, 128084, Note_on_c, 0, 76, 0
6, 128100, Note_on_c, 0, 74, 76
6, 128144, Note_on_c, 0, 74, 0
6, 128160, Note_on_c, 0, 79, 76
6, 128204, Note_on_c, 0, 79, 0
6, 128220, Note_on_c, 0, 77, 76
6, 128264, Note_on_c, 0, 77, 0
6, 128280, Note_on_c, 0, 76, 76
6, 128324, Note_on_c, 0, 76, 0
6, 128340, Note_on_c, 0, 74, 76
6, 128384, Note_on_c, 0, 74, 0
6, 128400, Note_on_c, 0, 72, 76
6, 128444, Note_on_c, 0, 72, 0
6, 128460, Note_on_c, 0, 71, 76
6, 128504, Note_on_c, 0, 71, 0
6, 128520, Note_on_c, 0, 72, 76
6, 128564, Note_on_c, 0, 72, 0
6, 128580, Note_on_c, 0, 69, 76
6, 128624, Note_on_c, 0, 69, 0
6, 128640, Note_on_c, 0, 74, 76
6, 128744, Note_on_c, 0, 74, 0
6, 128760, Note_on_c, 0, 76, 76
6, 128804, Note_on_c, 0, 76, 0
6, 128820, Note_on_c, 0, 78, 76
6, 128864, Note_on_c, 0, 78, 0
6, 128880, Note_on_c, 0, 79, 76
6, 128984, Note_on_c, 0, 79, 0
6, 129000, Note_on_c, 0, 81, 76
6, 129044, Note_on_c, 0, 81, 0
6, 129060, Note_on_c, 0, 83, 76
6, 129104, Note_on_c, 0, 83, 0
6, 129120, Note_on_c, 0, 84, 76
6, 129284, Note_on_c, 0, 84, 0
6, 129300, Note_on_c, 0, 83, 76
6, 129344, Note_on_c, 0, 83, 0
6, 129360, Note_on_c, 0, 81, 76
6, 129389, Note_on_c, 0, 81, 0
6, 129390, Note_on_c, 0, 83, 76
6, 129419, Note_on_c, 0, 83, 0
6, 129420, Note_on_c, 0, 81, 76
6, 129449, Note_on_c, 0, 81, 0
6, 129450, Note_on_c, 0, 83, 76
6, 129479, Note_on_c, 0, 83, 0
6, 129480, Note_on_c, 0, 79, 76
6, 129509, Note_on_c, 0, 79, 0
6, 129510, Note_on_c, 0, 81, 76
6, 129539, Note_on_c, 0, 81, 0
6, 129540, Note_on_c, 0, 79, 76
6, 129584, Note_on_c, 0, 79, 0
6, 129600, Note_on_c, 0, 79, 76
6, 129704, Note_on_c, 0, 79, 0
6, 129720, Note_on_c, 0, 77, 76
6, 129764, Note_on_c, 0, 77, 0
6, 129780, Note_on_c, 0, 76, 76
6, 129824, Note_on_c, 0, 76, 0
6, 129840, Note_on_c, 0, 74, 76
6, 129884, Note_on_c, 0, 74, 0
6, 129900, Note_on_c, 0, 76, 76
6, 129944, Note_on_c, 0, 76, 0
6, 129960, Note_on_c, 0, 77, 76
6, 130004, Note_on_c, 0, 77, 0
6, 130020, Note_on_c, 0, 74, 76
6, 130064, Note_on_c, 0, 74, 0
6, 130080, Note_on_c, 0, 76, 76
6, 130124, Note_on_c, 0, 76, 0
6, 130140, Note_on_c, 0, 79, 76
6, 130184, Note_on_c, 0, 79, 0
6, 130200, Note_on_c, 0, 77, 76
6, 130244, Note_on_c, 0, 77, 0
6, 130260, Note_on_c, 0, 79, 76
6, 130304, Note_on_c, 0, 79, 0
6, 130320, Note_on_c, 0, 81, 76
6, 130364, Note_on_c, 0, 81, 0
6, 130380, Note_on_c, 0, 79, 76
6, 130424, Note_on_c, 0, 79, 0
6, 130440, Note_on_c, 0, 77, 76
6, 130484, Note_on_c, 0, 77, 0
6, 130500, Note_on_c, 0, 76, 76
6, 130544, Note_on_c, 0, 76, 0
6, 130560, Note_on_c, 0, 74, 76
6, 130604, Note_on_c, 0, 74, 0
6, 130620, Note_on_c, 0, 77, 76
6, 130664, Note_on_c, 0, 77, 0
6, 130680, Note_on_c, 0, 76, 76
6, 130724, Note_on_c, 0, 76, 0
6, 130740, Note_on_c, 0, 77, 76
6, 130784, Note_on_c, 0, 77, 0
6, 130800, Note_on_c, 0, 79, 76
6, 130844, Note_on_c, 0, 79, 0
6, 130860, Note_on_c, 0, 77, 76
6, 130904, Note_on_c, 0, 77, 0
6, 130920, Note_on_c, 0, 76, 76
6, 130964, Note_on_c, 0, 76, 0
6, 130980, Note_on_c, 0, 74, 76
6, 131024, Note_on_c, 0, 74, 0
6, 131040, Note_on_c, 0, 72, 76
6, 131084, Note_on_c, 0, 72, 0
6, 131100, Note_on_c, 0, 76, 76
6, 131144, Note_on_c, 0, 76, 0
6, 131160, Note_on_c, 0, 74, 76
6, 131204, Note_on_c, 0, 74, 0
6, 131220, Note_on_c, 0, 76, 76
6, 131264, Note_on_c, 0, 76, 0
6, 131280, Note_on_c, 0, 77, 76
6, 131324, Note_on_c, 0, 77, 0
6, 131340, Note_on_c, 0, 76, 76
6, 131384, Note_on_c, 0, 76, 0
6, 131400, Note_on_c, 0, 74, 76
6, 131444, Note_on_c, 0, 74, 0
6, 131460, Note_on_c, 0, 72, 76
6, 131504, Note_on_c, 0, 72, 0
6, 131520, Note_on_c, 0, 71, 76
6, 131564, Note_on_c, 0, 71, 0
6, 131580, Note_on_c, 0, 74, 76
6, 131624, Note_on_c, 0, 74, 0
6, 131640, Note_on_c, 0, 72, 76
6, 131684, Note_on_c, 0, 72, 0
6, 131700, Note_on_c, 0, 74, 76
6, 131744, Note_on_c, 0, 74, 0
6, 131760, Note_on_c, 0, 76, 76
6, 131804, Note_on_c, 0, 76, 0
6, 131820, Note_on_c, 0, 74, 76
6, 131864, Note_on_c, 0, 74, 0
6, 131880, Note_on_c, 0, 72, 76
6, 131924, Note_on_c, 0, 72, 0
6, 131940, Note_on_c, 0, 71, 76
6, 131984, Note_on_c, 0, 71, 0
6, 132000, Note_on_c, 0, 69, 76
6, 132044, Note_on_c, 0, 69, 0
6, 132060, Note_on_c, 0, 72, 76
6, 132104, Note_on_c, 0, 72, 0
6, 132120, Note_on_c, 0, 71, 76
6, 132164, Note_on_c, 0, 71, 0
6, 132180, Note_on_c, 0, 72, 76
6, 132224, Note_on_c, 0, 72, 0
6, 132240, Note_on_c, 0, 74, 76
6, 132284, Note_on_c, 0, 74, 0
6, 132300, Note_on_c, 0, 72, 76
6, 132344, Note_on_c, 0, 72, 0
6, 132360, Note_on_c, 0, 71, 76
6, 132404, Note_on_c, 0, 71, 0
6, 132420, Note_on_c, 0, 69, 76
6, 132464, Note_on_c, 0, 69, 0
6, 132480, Note_on_c, 0, 71, 76
6, 132584, Note_on_c, 0, 71, 0
6, 132600, Note_on_c, 0, 79, 76
6, 132704, Note_on_c, 0, 79, 0
6, 132720, Note_on_c, 0, 79, 76
6, 132824, Note_on_c, 0, 79, 0
6, 132840, Note_on_c, 0, 79, 76
6, 132944, Note_on_c, 0, 79, 0
6, 132960, Note_on_c, 0, 76, 76
6, 133064, Note_on_c, 0, 76, 0
6, 133080, Note_on_c, 0, 77, 76
6, 133124, Note_on_c, 0, 77, 0
6, 133140, Note_on_c, 0, 79, 76
6, 133184, Note_on_c, 0, 79, 0
6, 133200, Note_on_c, 0, 81, 76
6, 133304, Note_on_c, 0, 81, 0
6, 133320, Note_on_c, 0, 77, 76
6, 133424, Note_on_c, 0, 77, 0
6, 133440, Note_on_c, 0, 74, 76
6, 133544, Note_on_c, 0, 74, 0
6, 133560, Note_on_c, 0, 79, 76
6, 133664, Note_on_c, 0, 79, 0
6, 133680, Note_on_c, 0, 67, 76
6, 133784, Note_on_c, 0, 67, 0
6, 133800, Note_on_c, 0, 77, 76
6, 133904, Note_on_c, 0, 77, 0
6, 133920, Note_on_c, 0, 76, 76
6, 134084, Note_on_c, 0, 76, 0
6, 134100, Note_on_c, 0, 74, 76
6, 134144, Note_on_c, 0, 74, 0
6, 134160, Note_on_c, 0, 74, 76
6, 134324, Note_on_c, 0, 74, 0
6, 134340, Note_on_c, 0, 72, 76
6, 134384, Note_on_c, 0, 72, 0
6, 134400, Note_on_c, 0, 72, 76
6, 134504, Note_on_c, 0, 72, 0
6, 135120, Note_on_c, 0, 81, 76
6, 135584, Note_on_c, 0, 81, 0
6, 135600, Note_on_c, 0, 80, 76
6, 135824, Note_on_c, 0, 80, 0
6, 135840, Note_on_c, 0, 81, 76
6, 135944, Note_on_c, 0, 81, 0
6, 135960, Note_on_c, 0, 76, 76
6, 136064, Note_on_c, 0, 76, 0
6, 136080, Note_on_c, 0, 76, 76
6, 136184, Note_on_c, 0, 76, 0
6, 136200, Note_on_c, 0, 76, 76
6, 136304, Note_on_c, 0, 76, 0
6, 136320, Note_on_c, 0, 72, 76
6, 136424, Note_on_c, 0, 72, 0
6, 136440, Note_on_c, 0, 74, 76
6, 136484, Note_on_c, 0, 74, 0
6, 136500, Note_on_c, 0, 76, 76
6, 136544, Note_on_c, 0, 76, 0
6, 136560, Note_on_c, 0, 77, 76
6, 136664, Note_on_c, 0, 77, 0
6, 136680, Note_on_c, 0, 74, 76
6, 136784, Note_on_c, 0, 74, 0
6, 136800, Note_on_c, 0, 71, 76
6, 136904, Note_on_c, 0, 71, 0
6, 136920, Note_on_c, 0, 76, 76
6, 137024, Note_on_c, 0, 76, 0
6, 137040, Note_on_c, 0, 64, 76
6, 137144, Note_on_c, 0, 64, 0
6, 137160, Note_on_c, 0, 74, 76
6, 137264, Note_on_c, 0, 74, 0
6, 137280, Note_on_c, 0, 72, 76
6, 137324, Note_on_c, 0, 72, 0
6, 137340, Note_on_c, 0, 71, 76
6, 137384, Note_on_c, 0, 71, 0
6, 137400, Note_on_c, 0, 69, 76
6, 137444, Note_on_c, 0, 69, 0
6, 137460, Note_on_c, 0, 71, 76
6, 137504, Note_on_c, 0, 71, 0
6, 137520, Note_on_c, 0, 72, 76
6, 137564, Note_on_c, 0, 72, 0
6, 137580, Note_on_c, 0, 71, 76
6, 137624, Note_on_c, 0, 71, 0
6, 137640, Note_on_c, 0, 72, 76
6, 137684, Note_on_c, 0, 72, 0
6, 137700, Note_on_c, 0, 74, 76
6, 137744, Note_on_c, 0, 74, 0
6, 137760, Note_on_c, 0, 71, 76
6, 137804, Note_on_c, 0, 71, 0
6, 137820, Note_on_c, 0, 74, 76
6, 137864, Note_on_c, 0, 74, 0
6, 137880, Note_on_c, 0, 72, 76
6, 137924, Note_on_c, 0, 72, 0
6, 137940, Note_on_c, 0, 74, 76
6, 137984, Note_on_c, 0, 74, 0
6, 138000, Note_on_c, 0, 76, 76
6, 138044, Note_on_c, 0, 76, 0
6, 138060, Note_on_c, 0, 79, 76
6, 138104, Note_on_c, 0, 79, 0
6, 138120, Note_on_c, 0, 78, 76
6, 138164, Note_on_c, 0, 78, 0
6, 138180, Note_on_c, 0, 79, 76
6, 138224, Note_on_c, 0, 79, 0
6, 138240, Note_on_c, 0, 81, 76
6, 138284, Note_on_c, 0, 81, 0
6, 138300, Note_on_c, 0, 79, 76
6, 138344, Note_on_c, 0, 79, 0
6, 138360, Note_on_c, 0, 78, 76
6, 138404, Note_on_c, 0, 78, 0
6, 138420, Note_on_c, 0, 79, 76
6, 138464, Note_on_c, 0, 79, 0
6, 138480, Note_on_c, 0, 81, 76
6, 138524, Note_on_c, 0, 81, 0
6, 138540, Note_on_c, 0, 83, 76
6, 138584, Note_on_c, 0, 83, 0
6, 138600, Note_on_c, 0, 80, 76
6, 138644, Note_on_c, 0, 80, 0
6, 138660, Note_on_c, 0, 81, 76
6, 138704, Note_on_c, 0, 81, 0
6, 138720, Note_on_c, 0, 83, 76
6, 138764, Note_on_c, 0, 83, 0
6, 138780, Note_on_c, 0, 81, 76
6, 138824, Note_on_c, 0, 81, 0
6, 138840, Note_on_c, 0, 80, 76
6, 138884, Note_on_c, 0, 80, 0
6, 138900, Note_on_c, 0, 78, 76
6, 138944, Note_on_c, 0, 78, 0
6, 138960, Note_on_c, 0, 76, 76
6, 139004, Note_on_c, 0, 76, 0
6, 139020, Note_on_c, 0, 74, 76
6, 139064, Note_on_c, 0, 74, 0
6, 139080, Note_on_c, 0, 76, 76
6, 139124, Note_on_c, 0, 76, 0
6, 139140, Note_on_c, 0, 77, 76
6, 139184, Note_on_c, 0, 77, 0
6, 139200, Note_on_c, 0, 72, 76
6, 139424, Note_on_c, 0, 72, 0
6, 139440, Note_on_c, 0, 71, 76
6, 139469, Note_on_c, 0, 71, 0
6, 139470, Note_on_c, 0, 72, 76
6, 139499, Note_on_c, 0, 72, 0
6, 139500, Note_on_c, 0, 71, 76
6, 139529, Note_on_c, 0, 71, 0
6, 139530, Note_on_c, 0, 72, 76
6, 139559, Note_on_c, 0, 72, 0
6, 139560, Note_on_c, 0, 71, 76
6, 139589, Note_on_c, 0, 71, 0
6, 139590, Note_on_c, 0, 72, 76
6, 139619, Note_on_c, 0, 72, 0
6, 139620, Note_on_c, 0, 69, 76
6, 139649, Note_on_c, 0, 69, 0
6, 139650, Note_on_c, 0, 71, 76
6, 139679, Note_on_c, 0, 71, 0
6, 139680, Note_on_c, 0, 69, 76
6, 139724, Note_on_c, 0, 69, 0
6, 139740, Note_on_c, 0, 72, 76
6, 139784, Note_on_c, 0, 72, 0
6, 139800, Note_on_c, 0, 74, 76
6, 139844, Note_on_c, 0, 74, 0
6, 139860, Note_on_c, 0, 76, 76
6, 139904, Note_on_c, 0, 76, 0
6, 139920, Note_on_c, 0, 77, 76
6, 140024, Note_on_c, 0, 77, 0
6, 140040, Note_on_c, 0, 74, 76
6, 140144, Note_on_c, 0, 74, 0
6, 140160, Note_on_c, 0, 71, 76
6, 140264, Note_on_c, 0, 71, 0
6, 140280, Note_on_c, 0, 76, 76
6, 140384, Note_on_c, 0, 76, 0
6, 140400, Note_on_c, 0, 64, 76
6, 140504, Note_on_c, 0, 64, 0
6, 140520, Note_on_c, 0, 76, 76
6, 140624, Note_on_c, 0, 76, 0
6, 140640, Note_on_c, 0, 69, 76
6, 140744, Note_on_c, 0, 69, 0
6, 140760, Note_on_c, 0, 71, 76
6, 140804, Note_on_c, 0, 71, 0
6, 140820, Note_on_c, 0, 72, 76
6, 140864, Note_on_c, 0, 72, 0
6, 140880, Note_on_c, 0, 74, 76
6, 141164, Note_on_c, 0, 74, 0
6, 141180, Note_on_c, 0, 77, 76
6, 141224, Note_on_c, 0, 77, 0
6, 141240, Note_on_c, 0, 76, 76
6, 141284, Note_on_c, 0, 76, 0
6, 141300, Note_on_c, 0, 74, 76
6, 141344, Note_on_c, 0, 74, 0
6, 141360, Note_on_c, 0, 72, 76
6, 141404, Note_on_c, 0, 72, 0
6, 141420, Note_on_c, 0, 71, 76
6, 141464, Note_on_c, 0, 71, 0
6, 141480, Note_on_c, 0, 72, 76
6, 141524, Note_on_c, 0, 72, 0
6, 141540, Note_on_c, 0, 69, 76
6, 141584, Note_on_c, 0, 69, 0
6, 141600, Note_on_c, 0, 81, 76
6, 141764, Note_on_c, 0, 81, 0
6, 141780, Note_on_c, 0, 83, 76
6, 141824, Note_on_c, 0, 83, 0
6, 141840, Note_on_c, 0, 80, 76
6, 142004, Note_on_c, 0, 80, 0
6, 142020, Note_on_c, 0, 81, 76
6, 142064, Note_on_c, 0, 81, 0
6, 142080, Note_on_c, 0, 81, 76
6, 142124, Note_on_c, 0, 81, 0
6, 142140, Note_on_c, 0, 83, 76
6, 142184, Note_on_c, 0, 83, 0
6, 142200, Note_on_c, 0, 84, 76
6, 142244, Note_on_c, 0, 84, 0
6, 142260, Note_on_c, 0, 83, 76
6, 142304, Note_on_c, 0, 83, 0
6, 142320, Note_on_c, 0, 81, 76
6, 142364, Note_on_c, 0, 81, 0
6, 142380, Note_on_c, 0, 79, 76
6, 142424, Note_on_c, 0, 79, 0
6, 142440, Note_on_c, 0, 81, 76
6, 142484, Note_on_c, 0, 81, 0
6, 142500, Note_on_c, 0, 78, 76
6, 142544, Note_on_c, 0, 78, 0
6, 142560, Note_on_c, 0, 83, 76
6, 142664, Note_on_c, 0, 83, 0
6, 142680, Note_on_c, 0, 71, 76
6, 142784, Note_on_c, 0, 71, 0
6, 142800, Note_on_c, 0, 76, 76
6, 142964, Note_on_c, 0, 76, 0
6, 142980, Note_on_c, 0, 76, 76
6, 143024, Note_on_c, 0, 76, 0
6, 143040, Note_on_c, 0, 76, 76
6, 143084, Note_on_c, 0, 76, 0
6, 143100, Note_on_c, 0, 79, 76
6, 143144, Note_on_c, 0, 79, 0
6, 143160, Note_on_c, 0, 78, 76
6, 143204, Note_on_c, 0, 78, 0
6, 143220, Note_on_c, 0, 76, 76
6, 143264, Note_on_c, 0, 76, 0
6, 143280, Note_on_c, 0, 75, 76
6, 143324, Note_on_c, 0, 75, 0
6, 143340, Note_on_c, 0, 73, 76
6, 143384, Note_on_c, 0, 73, 0
6, 143400, Note_on_c, 0, 75, 76
6, 143444, Note_on_c, 0, 75, 0
6, 143460, Note_on_c, 0, 71, 76
6, 143504, Note_on_c, 0, 71, 0
6, 143520, Note_on_c, 0, 83, 76
6, 143564, Note_on_c, 0, 83, 0
6, 143580, Note_on_c, 0, 81, 76
6, 143624, Note_on_c, 0, 81, 0
6, 143640, Note_on_c, 0, 79, 76
6, 143684, Note_on_c, 0, 79, 0
6, 143700, Note_on_c, 0, 78, 76
6, 143744, Note_on_c, 0, 78, 0
6, 143760, Note_on_c, 0, 76, 76
6, 143804, Note_on_c, 0, 76, 0
6, 143820, Note_on_c, 0, 74, 76
6, 143864, Note_on_c, 0, 74, 0
6, 143880, Note_on_c, 0, 72, 76
6, 143924, Note_on_c, 0, 72, 0
6, 143940, Note_on_c, 0, 71, 76
6, 143984, Note_on_c, 0, 71, 0
6, 144000, Note_on_c, 0, 69, 76
6, 144044, Note_on_c, 0, 69, 0
6, 144060, Note_on_c, 0, 72, 76
6, 144104, Note_on_c, 0, 72, 0
6, 144120, Note_on_c, 0, 74, 76
6, 144164, Note_on_c, 0, 74, 0
6, 144180, Note_on_c, 0, 76, 76
6, 144224, Note_on_c, 0, 76, 0
6, 144240, Note_on_c, 0, 74, 76
6, 144284, Note_on_c, 0, 74, 0
6, 144300, Note_on_c, 0, 72, 76
6, 144344, Note_on_c, 0, 72, 0
6, 144360, Note_on_c, 0, 71, 76
6, 144404, Note_on_c, 0, 71, 0
6, 144420, Note_on_c, 0, 69, 76
6, 144464, Note_on_c, 0, 69, 0
6, 144480, Note_on_c, 0, 74, 76
6, 144644, Note_on_c, 0, 74, 0
6, 144660, Note_on_c, 0, 76, 76
6, 144704, Note_on_c, 0, 76, 0
6, 144720, Note_on_c, 0, 72, 76
6, 144884, Note_on_c, 0, 72, 0
6, 144900, Note_on_c, 0, 71, 76
6, 144944, Note_on_c, 0, 71, 0
6, 144960, Note_on_c, 0, 72, 76
6, 145124, Note_on_c, 0, 72, 0
6, 145140, Note_on_c, 0, 74, 76
6, 145184, Note_on_c, 0, 74, 0
6, 145200, Note_on_c, 0, 71, 76
6, 145364, Note_on_c, 0, 71, 0
6, 145380, Note_on_c, 0, 69, 76
6, 145424, Note_on_c, 0, 69, 0
6, 145440, Note_on_c, 0, 69, 76
6, 145484, Note_on_c, 0, 69, 0
6, 145500, Note_on_c, 0, 76, 76
6, 145544, Note_on_c, 0, 76, 0
6, 145560, Note_on_c, 0, 78, 76
6, 145604, Note_on_c, 0, 78, 0
6, 145620, Note_on_c, 0, 80, 76
6, 145664, Note_on_c, 0, 80, 0
6, 145680, Note_on_c, 0, 81, 76
6, 145964, Note_on_c, 0, 81, 0
6, 145980, Note_on_c, 0, 84, 76
6, 146024, Note_on_c, 0, 84, 0
6, 146040, Note_on_c, 0, 83, 76
6, 146084, Note_on_c, 0, 83, 0
6, 146100, Note_on_c, 0, 81, 76
6, 146144, Note_on_c, 0, 81, 0
6, 146160, Note_on_c, 0, 80, 76
6, 146204, Note_on_c, 0, 80, 0
6, 146220, Note_on_c, 0, 81, 76
6, 146264, Note_on_c, 0, 81, 0
6, 146280, Note_on_c, 0, 83, 76
6, 146324, Note_on_c, 0, 83, 0
6, 146340, Note_on_c, 0, 80, 76
6, 146384, Note_on_c, 0, 80, 0
6, 146400, Note_on_c, 0, 76, 76
6, 146504, Note_on_c, 0, 76, 0
6, 146520, Note_on_c, 0, 76, 76
6, 146624, Note_on_c, 0, 76, 0
6, 146640, Note_on_c, 0, 76, 76
6, 146744, Note_on_c, 0, 76, 0
6, 146760, Note_on_c, 0, 76, 76
6, 146864, Note_on_c, 0, 76, 0
6, 146880, Note_on_c, 0, 72, 76
6, 146984, Note_on_c, 0, 72, 0
6, 147000, Note_on_c, 0, 74, 76
6, 147044, Note_on_c, 0, 74, 0
6, 147060, Note_on_c, 0, 76, 76
6, 147104, Note_on_c, 0, 76, 0
6, 147120, Note_on_c, 0, 77, 76
6, 147224, Note_on_c, 0, 77, 0
6, 147240, Note_on_c, 0, 74, 76
6, 147344, Note_on_c, 0, 74, 0
6, 147360, Note_on_c, 0, 71, 76
6, 147464, Note_on_c, 0, 71, 0
6, 147480, Note_on_c, 0, 76, 76
6, 147584, Note_on_c, 0, 76, 0
6, 147600, Note_on_c, 0, 64, 76
6, 147704, Note_on_c, 0, 64, 0
6, 147720, Note_on_c, 0, 74, 76
6, 147824, Note_on_c, 0, 74, 0
6, 147840, Note_on_c, 0, 72, 76
6, 148004, Note_on_c, 0, 72, 0
6, 148020, Note_on_c, 0, 71, 76
6, 148064, Note_on_c, 0, 71, 0
6, 148080, Note_on_c, 0, 71, 76
6, 148244, Note_on_c, 0, 71, 0
6, 148260, Note_on_c, 0, 69, 76
6, 148304, Note_on_c, 0, 69, 0
6, 148320, Note_on_c, 0, 69, 76
6, 148439, Note_on_c, 0, 69, 0
6, 148860, Note_on_c, 0, 84, 76
6, 148904, Note_on_c, 0, 84, 0
6, 148920, Note_on_c, 0, 83, 76
6, 148964, Note_on_c, 0, 83, 0
6, 148980, Note_on_c, 0, 81, 76
6, 149024, Note_on_c, 0, 81, 0
6, 149040, Note_on_c, 0, 79, 76
6, 149084, Note_on_c, 0, 79, 0
6, 149100, Note_on_c, 0, 78, 76
6, 149144, Note_on_c, 0, 78, 0
6, 149160, Note_on_c, 0, 79, 76
6, 149204, Note_on_c, 0, 79, 0
6, 149220, Note_on_c, 0, 76, 76
6, 149264, Note_on_c, 0, 76, 0
6, 149280, Note_on_c, 0, 81, 76
6, 149324, Note_on_c, 0, 81, 0
6, 149340, Note_on_c, 0, 83, 76
6, 149384, Note_on_c, 0, 83, 0
6, 149400, Note_on_c, 0, 81, 76
6, 149444, Note_on_c, 0, 81, 0
6, 149460, Note_on_c, 0, 79, 76
6, 149504, Note_on_c, 0, 79, 0
6, 149520, Note_on_c, 0, 78, 76
6, 149564, Note_on_c, 0, 78, 0
6, 149580, Note_on_c, 0, 76, 76
6, 149624, Note_on_c, 0, 76, 0
6, 149640, Note_on_c, 0, 78, 76
6, 149684, Note_on_c, 0, 78, 0
6, 149700, Note_on_c, 0, 71, 76
6, 149744, Note_on_c, 0, 71, 0
6, 149760, Note_on_c, 0, 79, 76
6, 150479, Note_on_c, 0, 79, 0
6, 150780, Note_on_c, 0, 82, 76
6, 150824, Note_on_c, 0, 82, 0
6, 150840, Note_on_c, 0, 81, 76
6, 150884, Note_on_c, 0, 81, 0
6, 150900, Note_on_c, 0, 79, 76
6, 150944, Note_on_c, 0, 79, 0
6, 150960, Note_on_c, 0, 77, 76
6, 151004, Note_on_c, 0, 77, 0
6, 151020, Note_on_c, 0, 76, 76
6, 151064, Note_on_c, 0, 76, 0
6, 151080, Note_on_c, 0, 77, 76
6, 151124, Note_on_c, 0, 77, 0
6, 151140, Note_on_c, 0, 74, 76
6, 151184, Note_on_c, 0, 74, 0
6, 151200, Note_on_c, 0, 79, 76
6, 151244, Note_on_c, 0, 79, 0
6, 151260, Note_on_c, 0, 81, 76
6, 151304, Note_on_c, 0, 81, 0
6, 151320, Note_on_c, 0, 79, 76
6, 151364, Note_on_c, 0, 79, 0
6, 151380, Note_on_c, 0, 77, 76
6, 151424, Note_on_c, 0, 77, 0
6, 151440, Note_on_c, 0, 76, 76
6, 151484, Note_on_c, 0, 76, 0
6, 151500, Note_on_c, 0, 74, 76
6, 151544, Note_on_c, 0, 74, 0
6, 151560, Note_on_c, 0, 76, 76
6, 151604, Note_on_c, 0, 76, 0
6, 151620, Note_on_c, 0, 69, 76
6, 151664, Note_on_c, 0, 69, 0
6, 151680, Note_on_c, 0, 77, 76
6, 152399, Note_on_c, 0, 77, 0
6, 152700, Note_on_c, 0, 81, 76
6, 152744, Note_on_c, 0, 81, 0
6, 152760, Note_on_c, 0, 79, 76
6, 152804, Note_on_c, 0, 79, 0
6, 152820, Note_on_c, 0, 77, 76
6, 152864, Note_on_c, 0, 77, 0
6, 152880, Note_on_c, 0, 76, 76
6, 152924, Note_on_c, 0, 76, 0
6, 152940, Note_on_c, 0, 74, 76
6, 152984, Note_on_c, 0, 74, 0
6, 153000, Note_on_c, 0, 76, 76
6, 153044, Note_on_c, 0, 76, 0
6, 153060, Note_on_c, 0, 72, 76
6, 153104, Note_on_c, 0, 72, 0
6, 153120, Note_on_c, 0, 77, 76
6, 153164, Note_on_c, 0, 77, 0
6, 153180, Note_on_c, 0, 79, 76
6, 153224, Note_on_c, 0, 79, 0
6, 153240, Note_on_c, 0, 77, 76
6, 153284, Note_on_c, 0, 77, 0
6, 153300, Note_on_c, 0, 76, 76
6, 153344, Note_on_c, 0, 76, 0
6, 153360, Note_on_c, 0, 74, 76
6, 153404, Note_on_c, 0, 74, 0
6, 153420, Note_on_c, 0, 72, 76
6, 153464, Note_on_c, 0, 72, 0
6, 153480, Note_on_c, 0, 74, 76
6, 153524, Note_on_c, 0, 74, 0
6, 153540, Note_on_c, 0, 67, 76
6, 153584, Note_on_c, 0, 67, 0
6, 153600, Note_on_c, 0, 76, 76
6, 153644, Note_on_c, 0, 76, 0
6, 153660, Note_on_c, 0, 74, 76
6, 153704, Note_on_c, 0, 74, 0
6, 153720, Note_on_c, 0, 72, 76
6, 153764, Note_on_c, 0, 72, 0
6, 153780, Note_on_c, 0, 74, 76
6, 153824, Note_on_c, 0, 74, 0
6, 153840, Note_on_c, 0, 76, 76
6, 153884, Note_on_c, 0, 76, 0
6, 153900, Note_on_c, 0, 74, 76
6, 153944, Note_on_c, 0, 74, 0
6, 153960, Note_on_c, 0, 76, 76
6, 154004, Note_on_c, 0, 76, 0
6, 154020, Note_on_c, 0, 78, 76
6, 154064, Note_on_c, 0, 78, 0
6, 154080, Note_on_c, 0, 79, 76
6, 154244, Note_on_c, 0, 79, 0
6, 154260, Note_on_c, 0, 74, 76
6, 154304, Note_on_c, 0, 74, 0
6, 154320, Note_on_c, 0, 79, 76
6, 154484, Note_on_c, 0, 79, 0
6, 154500, Note_on_c, 0, 79, 76
6, 154544, Note_on_c, 0, 79, 0
6, 154560, Note_on_c, 0, 79, 76
6, 154724, Note_on_c, 0, 79, 0
6, 154740, Note_on_c, 0, 78, 76
6, 154759, Note_on_c, 0, 78, 0
6, 154760, Note_on_c, 0, 76, 76
6, 154779, Note_on_c, 0, 76, 0
6, 154780, Note_on_c, 0, 78, 76
6, 154799, Note_on_c, 0, 78, 0
6, 154800, Note_on_c, 0, 78, 76
6, 154829, Note_on_c, 0, 78, 0
6, 154830, Note_on_c, 0, 79, 76
6, 154859, Note_on_c, 0, 79, 0
6, 154860, Note_on_c, 0, 78, 76
6, 154889, Note_on_c, 0, 78, 0
6, 154890, Note_on_c, 0, 79, 76
6, 154919, Note_on_c, 0, 79, 0
6, 154920, Note_on_c, 0, 76, 76
6, 154949, Note_on_c, 0, 76, 0
6, 154950, Note_on_c, 0, 78, 76
6, 154979, Note_on_c, 0, 78, 0
6, 154980, Note_on_c, 0, 79, 76
6, 155024, Note_on_c, 0, 79, 0
6, 155040, Note_on_c, 0, 79, 76
6, 155279, Note_on_c, 0, 79, 0
6, 155400, Note_on_c, 0, 76, 76
6, 155564, Note_on_c, 0, 76, 0
6, 155580, Note_on_c, 0, 79, 76
6, 155624, Note_on_c, 0, 79, 0
6, 155640, Note_on_c, 0, 78, 76
6, 155684, Note_on_c, 0, 78, 0
6, 155700, Note_on_c, 0, 76, 76
6, 155744, Note_on_c, 0, 76, 0
6, 155760, Note_on_c, 0, 74, 76
6, 155804, Note_on_c, 0, 74, 0
6, 155820, Note_on_c, 0, 72, 76
6, 155864, Note_on_c, 0, 72, 0
6, 155880, Note_on_c, 0, 71, 76
6, 155924, Note_on_c, 0, 71, 0
6, 155940, Note_on_c, 0, 69, 76
6, 155984, Note_on_c, 0, 69, 0
6, 156000, Note_on_c, 0, 67, 76
6, 156044, Note_on_c, 0, 67, 0
6, 156060, Note_on_c, 0, 71, 76
6, 156104, Note_on_c, 0, 71, 0
6, 156120, Note_on_c, 0, 69, 76
6, 156164, Note_on_c, 0, 69, 0
6, 156180, Note_on_c, 0, 67, 76
6, 156224, Note_on_c, 0, 67, 0
6, 156240, Note_on_c, 0, 72, 76
6, 156284, Note_on_c, 0, 72, 0
6, 156300, Note_on_c, 0, 76, 76
6, 156344, Note_on_c, 0, 76, 0
6, 156360, Note_on_c, 0, 74, 76
6, 156404, Note_on_c, 0, 74, 0
6, 156420, Note_on_c, 0, 72, 76
6, 156464, Note_on_c, 0, 72, 0
6, 156480, Note_on_c, 0, 81, 76
6, 156584, Note_on_c, 0, 81, 0
6, 156600, Note_on_c, 0, 74, 76
6, 156704, Note_on_c, 0, 74, 0
6, 156720, Note_on_c, 0, 79, 76
6, 156884, Note_on_c, 0, 79, 0
6, 156900, Note_on_c, 0, 79, 76
6, 156944, Note_on_c, 0, 79, 0
6, 156960, Note_on_c, 0, 79, 76
6, 157004, Note_on_c, 0, 79, 0
6, 157020, Note_on_c, 0, 78, 76
6, 157064, Note_on_c, 0, 78, 0
6, 157080, Note_on_c, 0, 79, 76
6, 157124, Note_on_c, 0, 79, 0
6, 157140, Note_on_c, 0, 76, 76
6, 157184, Note_on_c, 0, 76, 0
6, 157200, Note_on_c, 0, 78, 76
6, 157364, Note_on_c, 0, 78, 0
6, 157380, Note_on_c, 0, 78, 76
6, 157424, Note_on_c, 0, 78, 0
6, 157440, Note_on_c, 0, 78, 76
6, 157544, Note_on_c, 0, 78, 0
6, 157560, Note_on_c, 0, 71, 76
6, 157664, Note_on_c, 0, 71, 0
6, 157680, Note_on_c, 0, 76, 76
6, 157844, Note_on_c, 0, 76, 0
6, 157860, Note_on_c, 0, 76, 76
6, 157904, Note_on_c, 0, 76, 0
6, 157920, Note_on_c, 0, 76, 76
6, 157964, Note_on_c, 0, 76, 0
6, 157980, Note_on_c, 0, 74, 76
6, 158024, Note_on_c, 0, 74, 0
6, 158040, Note_on_c, 0, 76, 76
6, 158084, Note_on_c, 0, 76, 0
6, 158100, Note_on_c, 0, 72, 76
6, 158144, Note_on_c, 0, 72, 0
6, 158160, Note_on_c, 0, 74, 76
6, 158324, Note_on_c, 0, 74, 0
6, 158340, Note_on_c, 0, 74, 76
6, 158384, Note_on_c, 0, 74, 0
6, 158400, Note_on_c, 0, 74, 76
6, 158504, Note_on_c, 0, 74, 0
6, 158520, Note_on_c, 0, 67, 76
6, 158624, Note_on_c, 0, 67, 0
6, 158640, Note_on_c, 0, 72, 76
6, 158804, Note_on_c, 0, 72, 0
6, 158820, Note_on_c, 0, 72, 76
6, 158864, Note_on_c, 0, 72, 0
6, 158880, Note_on_c, 0, 72, 76
6, 158924, Note_on_c, 0, 72, 0
6, 158940, Note_on_c, 0, 76, 76
6, 158984, Note_on_c, 0, 76, 0
6, 159000, Note_on_c, 0, 74, 76
6, 159044, Note_on_c, 0, 74, 0
6, 159060, Note_on_c, 0, 72, 76
6, 159104, Note_on_c, 0, 72, 0
6, 159120, Note_on_c, 0, 71, 76
6, 159164, Note_on_c, 0, 71, 0
6, 159180, Note_on_c, 0, 69, 76
6, 159224, Note_on_c, 0, 69, 0
6, 159240, Note_on_c, 0, 67, 76
6, 159284, Note_on_c, 0, 67, 0
6, 159300, Note_on_c, 0, 66, 76
6, 159344, Note_on_c, 0, 66, 0
6, 159360, Note_on_c, 0, 67, 76
6, 159404, Note_on_c, 0, 67, 0
6, 159420, Note_on_c, 0, 71, 76
6, 159464, Note_on_c, 0, 71, 0
6, 159480, Note_on_c, 0, 76, 76
6, 159524, Note_on_c, 0, 76, 0
6, 159540, Note_on_c, 0, 74, 76
6, 159584, Note_on_c, 0, 74, 0
6, 159600, Note_on_c, 0, 72, 76
6, 159644, Note_on_c, 0, 72, 0
6, 159660, Note_on_c, 0, 71, 76
6, 159704, Note_on_c, 0, 71, 0
6, 159720, Note_on_c, 0, 69, 76
6, 159764, Note_on_c, 0, 69, 0
6, 159780, Note_on_c, 0, 67, 76
6, 159824, Note_on_c, 0, 67, 0
6, 159840, Note_on_c, 0, 78, 76
6, 159884, Note_on_c, 0, 78, 0
6, 159900, Note_on_c, 0, 76, 76
6, 159944, Note_on_c, 0, 76, 0
6, 159960, Note_on_c, 0, 74, 76
6, 160004, Note_on_c, 0, 74, 0
6, 160020, Note_on_c, 0, 76, 76
6, 160064, Note_on_c, 0, 76, 0
6, 160080, Note_on_c, 0, 78, 76
6, 160124, Note_on_c, 0, 78, 0
6, 160140, Note_on_c, 0, 76, 76
6, 160184, Note_on_c, 0, 76, 0
6, 160200, Note_on_c, 0, 78, 76
6, 160244, Note_on_c, 0, 78, 0
6, 160260, Note_on_c, 0, 74, 76
6, 160304, Note_on_c, 0, 74, 0
6, 160320, Note_on_c, 0, 79, 76
6, 160484, Note_on_c, 0, 79, 0
6, 160500, Note_on_c, 0, 81, 76
6, 160544, Note_on_c, 0, 81, 0
6, 160560, Note_on_c, 0, 78, 76
6, 160724, Note_on_c, 0, 78, 0
6, 160740, Note_on_c, 0, 79, 76
6, 160784, Note_on_c, 0, 79, 0
6, 160800, Note_on_c, 0, 79, 76
6, 161039, Note_on_c, 0, 79, 0
6, 161520, Note_on_c, 0, 79, 76
6, 161984, Note_on_c, 0, 79, 0
6, 162000, Note_on_c, 0, 78, 76
6, 162224, Note_on_c, 0, 78, 0
6, 162240, Note_on_c, 0, 79, 76
6, 162344, Note_on_c, 0, 79, 0
6, 162360, Note_on_c, 0, 74, 76
6, 162464, Note_on_c, 0, 74, 0
6, 162480, Note_on_c, 0, 74, 76
6, 162584, Note_on_c, 0, 74, 0
6, 162600, Note_on_c, 0, 74, 76
6, 162704, Note_on_c, 0, 74, 0
6, 162720, Note_on_c, 0, 71, 76
6, 162824, Note_on_c, 0, 71, 0
6, 162840, Note_on_c, 0, 72, 76
6, 162884, Note_on_c, 0, 72, 0
6, 162900, Note_on_c, 0, 74, 76
6, 162944, Note_on_c, 0, 74, 0
6, 162960, Note_on_c, 0, 76, 76
6, 163064, Note_on_c, 0, 76, 0
6, 163080, Note_on_c, 0, 72, 76
6, 163184, Note_on_c, 0, 72, 0
6, 163200, Note_on_c, 0, 69, 76
6, 163304, Note_on_c, 0, 69, 0
6, 163320, Note_on_c, 0, 74, 76
6, 163424, Note_on_c, 0, 74, 0
6, 163440, Note_on_c, 0, 62, 76
6, 163544, Note_on_c, 0, 62, 0
6, 163560, Note_on_c, 0, 72, 76
6, 163664, Note_on_c, 0, 72, 0
6, 163680, Note_on_c, 0, 71, 76
6, 163919, Note_on_c, 0, 71, 0
6, 164220, Note_on_c, 0, 84, 76
6, 164264, Note_on_c, 0, 84, 0
6, 164280, Note_on_c, 0, 83, 76
6, 164324, Note_on_c, 0, 83, 0
6, 164340, Note_on_c, 0, 81, 76
6, 164384, Note_on_c, 0, 81, 0
6, 164400, Note_on_c, 0, 79, 76
6, 164444, Note_on_c, 0, 79, 0
6, 164460, Note_on_c, 0, 78, 76
6, 164504, Note_on_c, 0, 78, 0
6, 164520, Note_on_c, 0, 79, 76
6, 164564, Note_on_c, 0, 79, 0
6, 164580, Note_on_c, 0, 76, 76
6, 164624, Note_on_c, 0, 76, 0
6, 164640, Note_on_c, 0, 81, 76
6, 164684, Note_on_c, 0, 81, 0
6, 164700, Note_on_c, 0, 83, 76
6, 164744, Note_on_c, 0, 83, 0
6, 164760, Note_on_c, 0, 81, 76
6, 164804, Note_on_c, 0, 81, 0
6, 164820, Note_on_c, 0, 79, 76
6, 164864, Note_on_c, 0, 79, 0
6, 164880, Note_on_c, 0, 78, 76
6, 164924, Note_on_c, 0, 78, 0
6, 164940, Note_on_c, 0, 76, 76
6, 164984, Note_on_c, 0, 76, 0
6, 165000, Note_on_c, 0, 78, 76
6, 165044, Note_on_c, 0, 78, 0
6, 165060, Note_on_c, 0, 71, 76
6, 165104, Note_on_c, 0, 71, 0
6, 165120, Note_on_c, 0, 83, 76
6, 165164, Note_on_c, 0, 83, 0
6, 165180, Note_on_c, 0, 81, 76
6, 165224, Note_on_c, 0, 81, 0
6, 165240, Note_on_c, 0, 79, 76
6, 165284, Note_on_c, 0, 79, 0
6, 165300, Note_on_c, 0, 78, 76
6, 165344, Note_on_c, 0, 78, 0
6, 165360, Note_on_c, 0, 76, 76
6, 166304, Note_on_c, 0, 76, 0
6, 166320, Note_on_c, 0, 75, 76
6, 166349, Note_on_c, 0, 75, 0
6, 166350, Note_on_c, 0, 76, 76
6, 166379, Note_on_c, 0, 76, 0
6, 166380, Note_on_c, 0, 75, 76
6, 166409, Note_on_c, 0, 75, 0
6, 166410, Note_on_c, 0, 76, 76
6, 166439, Note_on_c, 0, 76, 0
6, 166440, Note_on_c, 0, 75, 76
6, 166469, Note_on_c, 0, 75, 0
6, 166470, Note_on_c, 0, 76, 76
6, 166499, Note_on_c, 0, 76, 0
6, 166500, Note_on_c, 0, 72, 76
6, 166529, Note_on_c, 0, 72, 0
6, 166530, Note_on_c, 0, 75, 76
6, 166559, Note_on_c, 0, 75, 0
6, 166560, Note_on_c, 0, 76, 76
6, 166664, Note_on_c, 0, 76, 0
6, 166680, Note_on_c, 0, 71, 76
6, 166784, Note_on_c, 0, 71, 0
6, 166800, Note_on_c, 0, 76, 76
6, 166904, Note_on_c, 0, 76, 0
6, 166920, Note_on_c, 0, 78, 76
6, 167024, Note_on_c, 0, 78, 0
6, 167040, Note_on_c, 0, 79, 76
6, 167624, Note_on_c, 0, 79, 0
6, 167640, Note_on_c, 0, 69, 76
6, 167744, Note_on_c, 0, 69, 0
6, 167760, Note_on_c, 0, 76, 76
6, 167864, Note_on_c, 0, 76, 0
6, 167880, Note_on_c, 0, 79, 76
6, 167984, Note_on_c, 0, 79, 0
6, 168000, Note_on_c, 0, 78, 76
6, 168584, Note_on_c, 0, 78, 0
6, 168600, Note_on_c, 0, 83, 76
6, 168704, Note_on_c, 0, 83, 0
6, 168720, Note_on_c, 0, 83, 76
6, 168824, Note_on_c, 0, 83, 0
6, 168840, Note_on_c, 0, 83, 76
6, 168944, Note_on_c, 0, 83, 0
6, 168960, Note_on_c, 0, 76, 76
6, 169064, Note_on_c, 0, 76, 0
6, 169080, Note_on_c, 0, 78, 76
6, 169124, Note_on_c, 0, 78, 0
6, 169140, Note_on_c, 0, 79, 76
6, 169184, Note_on_c, 0, 79, 0
6, 169200, Note_on_c, 0, 81, 76
6, 169544, Note_on_c, 0, 81, 0
6, 169560, Note_on_c, 0, 79, 76
6, 169604, Note_on_c, 0, 79, 0
6, 169620, Note_on_c, 0, 78, 76
6, 169664, Note_on_c, 0, 78, 0
6, 169680, Note_on_c, 0, 79, 76
6, 169784, Note_on_c, 0, 79, 0
6, 169800, Note_on_c, 0, 84, 76
6, 169904, Note_on_c, 0, 84, 0
6, 169920, Note_on_c, 0, 78, 76
6, 170204, Note_on_c, 0, 78, 0
6, 170220, Note_on_c, 0, 78, 76
6, 170264, Note_on_c, 0, 78, 0
6, 170280, Note_on_c, 0, 80, 76
6, 170324, Note_on_c, 0, 80, 0
6, 170340, Note_on_c, 0, 81, 76
6, 170384, Note_on_c, 0, 81, 0
6, 170400, Note_on_c, 0, 83, 76
6, 170444, Note_on_c, 0, 83, 0
6, 170460, Note_on_c, 0, 81, 76
6, 170504, Note_on_c, 0, 81, 0
6, 170520, Note_on_c, 0, 80, 76
6, 170564, Note_on_c, 0, 80, 0
6, 170580, Note_on_c, 0, 78, 76
6, 170624, Note_on_c, 0, 78, 0
6, 170640, Note_on_c, 0, 76, 76
6, 170684, Note_on_c, 0, 76, 0
6, 170700, Note_on_c, 0, 81, 76
6, 170744, Note_on_c, 0, 81, 0
6, 170760, Note_on_c, 0, 83, 76
6, 170804, Note_on_c, 0, 83, 0
6, 170820, Note_on_c, 0, 84, 76
6, 170864, Note_on_c, 0, 84, 0
6, 170880, Note_on_c, 0, 74, 76
6, 171404, Note_on_c, 0, 74, 0
6, 171420, Note_on_c, 0, 77, 76
6, 171464, Note_on_c, 0, 77, 0
6, 171480, Note_on_c, 0, 76, 76
6, 171524, Note_on_c, 0, 76, 0
6, 171540, Note_on_c, 0, 74, 76
6, 171584, Note_on_c, 0, 74, 0
6, 171600, Note_on_c, 0, 72, 76
6, 171644, Note_on_c, 0, 72, 0
6, 171660, Note_on_c, 0, 71, 76
6, 171704, Note_on_c, 0, 71, 0
6, 171720, Note_on_c, 0, 72, 76
6, 171764, Note_on_c, 0, 72, 0
6, 171780, Note_on_c, 0, 69, 76
6, 171824, Note_on_c, 0, 69, 0
6, 171840, Note_on_c, 0, 81, 76
6, 172544, Note_on_c, 0, 81, 0
6, 172560, Note_on_c, 0, 80, 76
6, 172784, Note_on_c, 0, 80, 0
6, 172800, Note_on_c, 0, 81, 76
6, 173324, Note_on_c, 0, 81, 0
6, 173340, Note_on_c, 0, 82, 76
6, 173384, Note_on_c, 0, 82, 0
6, 173400, Note_on_c, 0, 81, 76
6, 173444, Note_on_c, 0, 81, 0
6, 173460, Note_on_c, 0, 79, 76
6, 173504, Note_on_c, 0, 79, 0
6, 173520, Note_on_c, 0, 78, 76
6, 173564, Note_on_c, 0, 78, 0
6, 173580, Note_on_c, 0, 76, 76
6, 173624, Note_on_c, 0, 76, 0
6, 173640, Note_on_c, 0, 78, 76
6, 173684, Note_on_c, 0, 78, 0
6, 173700, Note_on_c, 0, 74, 76
6, 173744, Note_on_c, 0, 74, 0
6, 173760, Note_on_c, 0, 79, 76
6, 174464, Note_on_c, 0, 79, 0
6, 174480, Note_on_c, 0, 78, 76
6, 174704, Note_on_c, 0, 78, 0
6, 174720, Note_on_c, 0, 79, 76
6, 175244, Note_on_c, 0, 79, 0
6, 175260, Note_on_c, 0, 81, 76
6, 175304, Note_on_c, 0, 81, 0
6, 175320, Note_on_c, 0, 79, 76
6, 175364, Note_on_c, 0, 79, 0
6, 175380, Note_on_c, 0, 77, 76
6, 175424, Note_on_c, 0, 77, 0
6, 175440, Note_on_c, 0, 76, 76
6, 175484, Note_on_c, 0, 76, 0
6, 175500, Note_on_c, 0, 74, 76
6, 175544, Note_on_c, 0, 74, 0
6, 175560, Note_on_c, 0, 76, 76
6, 175604, Note_on_c, 0, 76, 0
6, 175620, Note_on_c, 0, 72, 76
6, 175664, Note_on_c, 0, 72, 0
6, 175680, Note_on_c, 0, 77, 76
6, 176384, Note_on_c, 0, 77, 0
6, 176400, Note_on_c, 0, 76, 76
6, 176624, Note_on_c, 0, 76, 0
6, 176640, Note_on_c, 0, 77, 76
6, 176744, Note_on_c, 0, 77, 0
6, 176760, Note_on_c, 0, 65, 76
6, 176804, Note_on_c, 0, 65, 0
6, 176820, Note_on_c, 0, 67, 76
6, 176864, Note_on_c, 0, 67, 0
6, 176880, Note_on_c, 0, 69, 76
6, 176924, Note_on_c, 0, 69, 0
6, 176940, Note_on_c, 0, 67, 76
6, 176984, Note_on_c, 0, 67, 0
6, 177000, Note_on_c, 0, 69, 76
6, 177044, Note_on_c, 0, 69, 0
6, 177060, Note_on_c, 0, 71, 76
6, 177104, Note_on_c, 0, 71, 0
6, 177120, Note_on_c, 0, 72, 76
6, 177284, Note_on_c, 0, 72, 0
6, 177300, Note_on_c, 0, 67, 76
6, 177344, Note_on_c, 0, 67, 0
6, 177360, Note_on_c, 0, 72, 76
6, 177524, Note_on_c, 0, 72, 0
6, 177540, Note_on_c, 0, 72, 76
6, 177584, Note_on_c, 0, 72, 0
6, 177600, Note_on_c, 0, 72, 76
6, 177764, Note_on_c, 0, 72, 0
6, 177780, Note_on_c, 0, 71, 76
6, 177799, Note_on_c, 0, 71, 0
6, 177800, Note_on_c, 0, 69, 76
6, 177819, Note_on_c, 0, 69, 0
6, 177820, Note_on_c, 0, 71, 76
6, 177839, Note_on_c, 0, 71, 0
6, 177840, Note_on_c, 0, 71, 76
6, 178004, Note_on_c, 0, 71, 0
6, 178020, Note_on_c, 0, 72, 76
6, 178064, Note_on_c, 0, 72, 0
6, 178080, Note_on_c, 0, 72, 76
6, 178319, Note_on_c, 0, 72, 0
6, 178440, Note_on_c, 0, 81, 76
6, 178604, Note_on_c, 0, 81, 0
6, 178620, Note_on_c, 0, 84, 76
6, 178664, Note_on_c, 0, 84, 0
6, 178680, Note_on_c, 0, 83, 76
6, 178724, Note_on_c, 0, 83, 0
6, 178740, Note_on_c, 0, 81, 76
6, 178784, Note_on_c, 0, 81, 0
6, 178800, Note_on_c, 0, 79, 76
6, 178844, Note_on_c, 0, 79, 0
6, 178860, Note_on_c, 0, 77, 76
6, 178904, Note_on_c, 0, 77, 0
6, 178920, Note_on_c, 0, 76, 76
6, 178964, Note_on_c, 0, 76, 0
6, 178980, Note_on_c, 0, 74, 76
6, 179024, Note_on_c, 0, 74, 0
6, 179040, Note_on_c, 0, 72, 76
6, 179084, Note_on_c, 0, 72, 0
6, 179100, Note_on_c, 0, 76, 76
6, 179144, Note_on_c, 0, 76, 0
6, 179160, Note_on_c, 0, 74, 76
6, 179204, Note_on_c, 0, 74, 0
6, 179220, Note_on_c, 0, 72, 76
6, 179264, Note_on_c, 0, 72, 0
6, 179280, Note_on_c, 0, 77, 76
6, 179444, Note_on_c, 0, 77, 0
6, 179460, Note_on_c, 0, 77, 76
6, 179504, Note_on_c, 0, 77, 0
6, 179520, Note_on_c, 0, 77, 76
6, 179564, Note_on_c, 0, 77, 0
6, 179580, Note_on_c, 0, 76, 76
6, 179624, Note_on_c, 0, 76, 0
6, 179640, Note_on_c, 0, 74, 76
6, 179684, Note_on_c, 0, 74, 0
6, 179700, Note_on_c, 0, 76, 76
6, 179744, Note_on_c, 0, 76, 0
6, 179760, Note_on_c, 0, 76, 76
6, 179789, Note_on_c, 0, 76, 0
6, 179790, Note_on_c, 0, 77, 76
6, 179819, Note_on_c, 0, 77, 0
6, 179820, Note_on_c, 0, 76, 76
6, 179849, Note_on_c, 0, 76, 0
6, 179850, Note_on_c, 0, 77, 76
6, 179879, Note_on_c, 0, 77, 0
6, 179880, Note_on_c, 0, 74, 76
6, 179909, Note_on_c, 0, 74, 0
6, 179910, Note_on_c, 0, 76, 76
6, 179939, Note_on_c, 0, 76, 0
6, 179940, Note_on_c, 0, 76, 76
6, 179984, Note_on_c, 0, 76, 0
6, 180000, Note_on_c, 0, 76, 76
6, 180044, Note_on_c, 0, 76, 0
6, 180060, Note_on_c, 0, 69, 76
6, 180104, Note_on_c, 0, 69, 0
6, 180120, Note_on_c, 0, 71, 76
6, 180164, Note_on_c, 0, 71, 0
6, 180180, Note_on_c, 0, 72, 76
6, 180224, Note_on_c, 0, 72, 0
6, 180240, Note_on_c, 0, 74, 76
6, 180404, Note_on_c, 0, 74, 0
6, 180420, Note_on_c, 0, 74, 76
6, 180464, Note_on_c, 0, 74, 0
6, 180480, Note_on_c, 0, 74, 76
6, 180524, Note_on_c, 0, 74, 0
6, 180540, Note_on_c, 0, 72, 76
6, 180584, Note_on_c, 0, 72, 0
6, 180600, Note_on_c, 0, 74, 76
6, 180644, Note_on_c, 0, 74, 0
6, 180660, Note_on_c, 0, 71, 76
6, 180704, Note_on_c, 0, 71, 0
6, 180720, Note_on_c, 0, 72, 76
6, 180764, Note_on_c, 0, 72, 0
6, 180780, Note_on_c, 0, 76, 76
6, 180824, Note_on_c, 0, 76, 0
6, 180840, Note_on_c, 0, 74, 76
6, 180884, Note_on_c, 0, 74, 0
6, 180900, Note_on_c, 0, 76, 76
6, 180944, Note_on_c, 0, 76, 0
6, 180960, Note_on_c, 0, 77, 76
6, 181004, Note_on_c, 0, 77, 0
6, 181020, Note_on_c, 0, 79, 76
6, 181064, Note_on_c, 0, 79, 0
6, 181080, Note_on_c, 0, 77, 76
6, 181124, Note_on_c, 0, 77, 0
6, 181140, Note_on_c, 0, 76, 76
6, 181184, Note_on_c, 0, 76, 0
6, 181200, Note_on_c, 0, 74, 76
6, 181244, Note_on_c, 0, 74, 0
6, 181260, Note_on_c, 0, 72, 76
6, 181304, Note_on_c, 0, 72, 0
6, 181320, Note_on_c, 0, 74, 76
6, 181364, Note_on_c, 0, 74, 0
6, 181380, Note_on_c, 0, 71, 76
6, 181424, Note_on_c, 0, 71, 0
6, 181440, Note_on_c, 0, 72, 76
6, 181484, Note_on_c, 0, 72, 0
6, 181500, Note_on_c, 0, 74, 76
6, 181544, Note_on_c, 0, 74, 0
6, 181560, Note_on_c, 0, 76, 76
6, 181604, Note_on_c, 0, 76, 0
6, 181620, Note_on_c, 0, 77, 76
6, 181664, Note_on_c, 0, 77, 0
6, 181680, Note_on_c, 0, 79, 76
6, 181724, Note_on_c, 0, 79, 0
6, 181740, Note_on_c, 0, 81, 76
6, 181784, Note_on_c, 0, 81, 0
6, 181800, Note_on_c, 0, 82, 76
6, 181844, Note_on_c, 0, 82, 0
6, 181860, Note_on_c, 0, 79, 76
6, 181904, Note_on_c, 0, 79, 0
6, 181920, Note_on_c, 0, 81, 76
6, 181964, Note_on_c, 0, 81, 0
6, 181980, Note_on_c, 0, 82, 76
6, 182024, Note_on_c, 0, 82, 0
6, 182040, Note_on_c, 0, 81, 76
6, 182084, Note_on_c, 0, 81, 0
6, 182100, Note_on_c, 0, 79, 76
6, 182144, Note_on_c, 0, 79, 0
6, 182160, Note_on_c, 0, 77, 76
6, 182204, Note_on_c, 0, 77, 0
6, 182220, Note_on_c, 0, 76, 76
6, 182264, Note_on_c, 0, 76, 0
6, 182280, Note_on_c, 0, 74, 76
6, 182324, Note_on_c, 0, 74, 0
6, 182340, Note_on_c, 0, 72, 76
6, 182384, Note_on_c, 0, 72, 0
6, 182400, Note_on_c, 0, 71, 76
6, 182519, Note_on_c, 0, 71, 0
6, 182940, Note_on_c, 0, 81, 76
6, 182984, Note_on_c, 0, 81, 0
6, 183000, Note_on_c, 0, 79, 76
6, 183044, Note_on_c, 0, 79, 0
6, 183060, Note_on_c, 0, 77, 76
6, 183104, Note_on_c, 0, 77, 0
6, 183120, Note_on_c, 0, 76, 76
6, 183164, Note_on_c, 0, 76, 0
6, 183180, Note_on_c, 0, 74, 76
6, 183224, Note_on_c, 0, 74, 0
6, 183240, Note_on_c, 0, 76, 76
6, 183284, Note_on_c, 0, 76, 0
6, 183300, Note_on_c, 0, 72, 76
6, 183344, Note_on_c, 0, 72, 0
6, 183360, Note_on_c, 0, 77, 76
6, 183404, Note_on_c, 0, 77, 0
6, 183420, Note_on_c, 0, 79, 76
6, 183464, Note_on_c, 0, 79, 0
6, 183480, Note_on_c, 0, 77, 76
6, 183524, Note_on_c, 0, 77, 0
6, 183540, Note_on_c, 0, 76, 76
6, 183584, Note_on_c, 0, 76, 0
6, 183600, Note_on_c, 0, 74, 76
6, 183644, Note_on_c, 0, 74, 0
6, 183660, Note_on_c, 0, 72, 76
6, 183704, Note_on_c, 0, 72, 0
6, 183720, Note_on_c, 0, 74, 76
6, 183764, Note_on_c, 0, 74, 0
6, 183780, Note_on_c, 0, 67, 76
6, 183824, Note_on_c, 0, 67, 0
6, 183840, Note_on_c, 0, 76, 76
6, 183884, Note_on_c, 0, 76, 0
6, 183900, Note_on_c, 0, 74, 76
6, 183944, Note_on_c, 0, 74, 0
6, 183960, Note_on_c, 0, 72, 76
6, 184004, Note_on_c, 0, 72, 0
6, 184020, Note_on_c, 0, 74, 76
6, 184064, Note_on_c, 0, 74, 0
6, 184080, Note_on_c, 0, 76, 76
6, 184124, Note_on_c, 0, 76, 0
6, 184140, Note_on_c, 0, 74, 76
6, 184184, Note_on_c, 0, 74, 0
6, 184200, Note_on_c, 0, 76, 76
6, 184244, Note_on_c, 0, 76, 0
6, 184260, Note_on_c, 0, 78, 76
6, 184304, Note_on_c, 0, 78, 0
6, 184320, Note_on_c, 0, 79, 76
6, 184484, Note_on_c, 0, 79, 0
6, 184500, Note_on_c, 0, 74, 76
6, 184544, Note_on_c, 0, 74, 0
6, 184560, Note_on_c, 0, 79, 76
6, 184724, Note_on_c, 0, 79, 0
6, 184740, Note_on_c, 0, 79, 76
6, 184784, Note_on_c, 0, 79, 0
6, 184800, Note_on_c, 0, 79, 76
6, 184964, Note_on_c, 0, 79, 0
6, 184980, Note_on_c, 0, 78, 76
6, 184999, Note_on_c, 0, 78, 0
6, 185000, Note_on_c, 0, 76, 76
6, 185019, Note_on_c, 0, 76, 0
6, 185020, Note_on_c, 0, 78, 76
6, 185039, Note_on_c, 0, 78, 0
6, 185040, Note_on_c, 0, 78, 76
6, 185069, Note_on_c, 0, 78, 0
6, 185070, Note_on_c, 0, 79, 76
6, 185099, Note_on_c, 0, 79, 0
6, 185100, Note_on_c, 0, 78, 76
6, 185129, Note_on_c, 0, 78, 0
6, 185130, Note_on_c, 0, 79, 76
6, 185159, Note_on_c, 0, 79, 0
6, 185160, Note_on_c, 0, 76, 76
6, 185189, Note_on_c, 0, 76, 0
6, 185190, Note_on_c, 0, 78, 76
6, 185219, Note_on_c, 0, 78, 0
6, 185220, Note_on_c, 0, 79, 76
6, 185264, Note_on_c, 0, 79, 0
6, 185280, Note_on_c, 0, 79, 76
6, 185384, Note_on_c, 0, 79, 0
6, 185400, Note_on_c, 0, 77, 76
6, 185444, Note_on_c, 0, 77, 0
6, 185460, Note_on_c, 0, 76, 76
6, 185504, Note_on_c, 0, 76, 0
6, 185520, Note_on_c, 0, 74, 76
6, 185564, Note_on_c, 0, 74, 0
6, 185580, Note_on_c, 0, 71, 76
6, 185624, Note_on_c, 0, 71, 0
6, 185640, Note_on_c, 0, 72, 76
6, 185684, Note_on_c, 0, 72, 0
6, 185700, Note_on_c, 0, 74, 76
6, 185744, Note_on_c, 0, 74, 0
6, 185760, Note_on_c, 0, 67, 76
6, 185864, Note_on_c, 0, 67, 0
6, 185880, Note_on_c, 0, 79, 76
6, 185984, Note_on_c, 0, 79, 0
6, 186000, Note_on_c, 0, 76, 76
6, 186104, Note_on_c, 0, 76, 0
6, 186120, Note_on_c, 0, 81, 76
6, 186224, Note_on_c, 0, 81, 0
6, 186240, Note_on_c, 0, 77, 76
6, 186284, Note_on_c, 0, 77, 0
6, 186300, Note_on_c, 0, 79, 76
6, 186344, Note_on_c, 0, 79, 0
6, 186360, Note_on_c, 0, 77, 76
6, 186404, Note_on_c, 0, 77, 0
6, 186420, Note_on_c, 0, 76, 76
6, 186464, Note_on_c, 0, 76, 0
6, 186480, Note_on_c, 0, 74, 76
6, 186524, Note_on_c, 0, 74, 0
6, 186540, Note_on_c, 0, 77, 76
6, 186584, Note_on_c, 0, 77, 0
6, 186600, Note_on_c, 0, 76, 76
6, 186644, Note_on_c, 0, 76, 0
6, 186660, Note_on_c, 0, 74, 76
6, 186704, Note_on_c, 0, 74, 0
6, 186720, Note_on_c, 0, 79, 76
6, 186764, Note_on_c, 0, 79, 0
6, 186780, Note_on_c, 0, 77, 76
6, 186824, Note_on_c, 0, 77, 0
6, 186840, Note_on_c, 0, 76, 76
6, 186884, Note_on_c, 0, 76, 0
6, 186900, Note_on_c, 0, 74, 76
6, 186944, Note_on_c, 0, 74, 0
6, 186960, Note_on_c, 0, 72, 76
6, 187004, Note_on_c, 0, 72, 0
6, 187020, Note_on_c, 0, 71, 76
6, 187064, Note_on_c, 0, 71, 0
6, 187080, Note_on_c, 0, 72, 76
6, 187124, Note_on_c, 0, 72, 0
6, 187140, Note_on_c, 0, 69, 76
6, 187184, Note_on_c, 0, 69, 0
6, 187200, Note_on_c, 0, 74, 76
6, 187304, Note_on_c, 0, 74, 0
6, 187320, Note_on_c, 0, 76, 76
6, 187364, Note_on_c, 0, 76, 0
6, 187380, Note_on_c, 0, 78, 76
6, 187424, Note_on_c, 0, 78, 0
6, 187440, Note_on_c, 0, 79, 76
6, 187544, Note_on_c, 0, 79, 0
6, 187560, Note_on_c, 0, 81, 76
6, 187604, Note_on_c, 0, 81, 0
6, 187620, Note_on_c, 0, 83, 76
6, 187664, Note_on_c, 0, 83, 0
6, 187680, Note_on_c, 0, 84, 76
6, 187844, Note_on_c, 0, 84, 0
6, 187860, Note_on_c, 0, 83, 76
6, 187904, Note_on_c, 0, 83, 0
6, 187920, Note_on_c, 0, 81, 76
6, 187949, Note_on_c, 0, 81, 0
6, 187950, Note_on_c, 0, 83, 76
6, 187979, Note_on_c, 0, 83, 0
6, 187980, Note_on_c, 0, 81, 76
6, 188009, Note_on_c, 0, 81, 0
6, 188010, Note_on_c, 0, 83, 76
6, 188039, Note_on_c, 0, 83, 0
6, 188040, Note_on_c, 0, 79, 76
6, 188069, Note_on_c, 0, 79, 0
6, 188070, Note_on_c, 0, 81, 76
6, 188099, Note_on_c, 0, 81, 0
6, 188100, Note_on_c, 0, 79, 76
6, 188144, Note_on_c, 0, 79, 0
6, 188160, Note_on_c, 0, 79, 76
6, 188264, Note_on_c, 0, 79, 0
6, 188280, Note_on_c, 0, 77, 76
6, 188324, Note_on_c, 0, 77, 0
6, 188340, Note_on_c, 0, 76, 76
6, 188384, Note_on_c, 0, 76, 0
6, 188400, Note_on_c, 0, 74, 76
6, 188444, Note_on_c, 0, 74, 0
6, 188460, Note_on_c, 0, 76, 76
6, 188504, Note_on_c, 0, 76, 0
6, 188520, Note_on_c, 0, 77, 76
6, 188564, Note_on_c, 0, 77, 0
6, 188580, Note_on_c, 0, 74, 76
6, 188624, Note_on_c, 0, 74, 0
6, 188640, Note_on_c, 0, 76, 76
6, 188744, Note_on_c, 0, 76, 0
6, 188760, Note_on_c, 0, 72, 76
6, 188864, Note_on_c, 0, 72, 0
6, 188880, Note_on_c, 0, 84, 76
6, 189044, Note_on_c, 0, 84, 0
6, 189060, Note_on_c, 0, 84, 76
6, 189104, Note_on_c, 0, 84, 0
6, 189120, Note_on_c, 0, 84, 76
6, 189164, Note_on_c, 0, 84, 0
6, 189180, Note_on_c, 0, 82, 76
6, 189224, Note_on_c, 0, 82, 0
6, 189240, Note_on_c, 0, 84, 76
6, 189284, Note_on_c, 0, 84, 0
6, 189300, Note_on_c, 0, 81, 76
6, 189344, Note_on_c, 0, 81, 0
6, 189360, Note_on_c, 0, 82, 76
6, 189524, Note_on_c, 0, 82, 0
6, 189540, Note_on_c, 0, 82, 76
6, 189584, Note_on_c, 0, 82, 0
6, 189600, Note_on_c, 0, 82, 76
6, 189704, Note_on_c, 0, 82, 0
6, 189720, Note_on_c, 0, 76, 76
6, 189824, Note_on_c, 0, 76, 0
6, 189840, Note_on_c, 0, 81, 76
6, 190004, Note_on_c, 0, 81, 0
6, 190020, Note_on_c, 0, 81, 76
6, 190064, Note_on_c, 0, 81, 0
6, 190080, Note_on_c, 0, 81, 76
6, 190124, Note_on_c, 0, 81, 0
6, 190140, Note_on_c, 0, 79, 76
6, 190184, Note_on_c, 0, 79, 0
6, 190200, Note_on_c, 0, 81, 76
6, 190244, Note_on_c, 0, 81, 0
6, 190260, Note_on_c, 0, 77, 76
6, 190304, Note_on_c, 0, 77, 0
6, 190320, Note_on_c, 0, 79, 76
6, 190484, Note_on_c, 0, 79, 0
6, 190500, Note_on_c, 0, 79, 76
6, 190544, Note_on_c, 0, 79, 0
6, 190560, Note_on_c, 0, 79, 76
6, 190664, Note_on_c, 0, 79, 0
6, 190680, Note_on_c, 0, 72, 76
6, 190784, Note_on_c, 0, 72, 0
6, 190800, Note_on_c, 0, 77, 76
6, 190964, Note_on_c, 0, 77, 0
6, 190980, Note_on_c, 0, 77, 76
6, 191024, Note_on_c, 0, 77, 0
6, 191040, Note_on_c, 0, 77, 76
6, 191084, Note_on_c, 0, 77, 0
6, 191100, Note_on_c, 0, 81, 76
6, 191144, Note_on_c, 0, 81, 0
6, 191160, Note_on_c, 0, 79, 76
6, 191204, Note_on_c, 0, 79, 0
6, 191220, Note_on_c, 0, 77, 76
6, 191264, Note_on_c, 0, 77, 0
6, 191280, Note_on_c, 0, 76, 76
6, 191324, Note_on_c, 0, 76, 0
6, 191340, Note_on_c, 0, 74, 76
6, 191384, Note_on_c, 0, 74, 0
6, 191400, Note_on_c, 0, 72, 76
6, 191444, Note_on_c, 0, 72, 0
6, 191460, Note_on_c, 0, 71, 76
6, 191504, Note_on_c, 0, 71, 0
6, 191520, Note_on_c, 0, 72, 76
6, 191564, Note_on_c, 0, 72, 0
6, 191580, Note_on_c, 0, 76, 76
6, 191624, Note_on_c, 0, 76, 0
6, 191640, Note_on_c, 0, 81, 76
6, 191684, Note_on_c, 0, 81, 0
6, 191700, Note_on_c, 0, 79, 76
6, 191744, Note_on_c, 0, 79, 0
6, 191760, Note_on_c, 0, 77, 76
6, 191804, Note_on_c, 0, 77, 0
6, 191820, Note_on_c, 0, 76, 76
6, 191864, Note_on_c, 0, 76, 0
6, 191880, Note_on_c, 0, 74, 76
6, 191924, Note_on_c, 0, 74, 0
6, 191940, Note_on_c, 0, 72, 76
6, 191984, Note_on_c, 0, 72, 0
6, 192000, Note_on_c, 0, 71, 76
6, 192044, Note_on_c, 0, 71, 0
6, 192060, Note_on_c, 0, 69, 76
6, 192104, Note_on_c, 0, 69, 0
6, 192120, Note_on_c, 0, 67, 76
6, 192164, Note_on_c, 0, 67, 0
6, 192180, Note_on_c, 0, 69, 76
6, 192224, Note_on_c, 0, 69, 0
6, 192240, Note_on_c, 0, 71, 76
6, 192284, Note_on_c, 0, 71, 0
6, 192300, Note_on_c, 0, 69, 76
6, 192344, Note_on_c, 0, 69, 0
6, 192360, Note_on_c, 0, 71, 76
6, 192404, Note_on_c, 0, 71, 0
6, 192420, Note_on_c, 0, 67, 76
6, 192464, Note_on_c, 0, 67, 0
6, 192480, Note_on_c, 0, 72, 76
6, 192644, Note_on_c, 0, 72, 0
6, 192660, Note_on_c, 0, 74, 76
6, 192704, Note_on_c, 0, 74, 0
6, 192720, Note_on_c, 0, 71, 76
6, 192884, Note_on_c, 0, 71, 0
6, 192900, Note_on_c, 0, 72, 76
6, 192944, Note_on_c, 0, 72, 0
6, 192960, Note_on_c, 0, 72, 76
6, 193064, Note_on_c, 0, 72, 0
6, 193080, Note_on_c, 0, 79, 76
6, 193184, Note_on_c, 0, 79, 0
6, 193200, Note_on_c, 0, 79, 76
6, 193304, Note_on_c, 0, 79, 0
6, 193320, Note_on_c, 0, 79, 76
6, 193424, Note_on_c, 0, 79, 0
6, 193440, Note_on_c, 0, 76, 76
6, 193544, Note_on_c, 0, 76, 0
6, 193560, Note_on_c, 0, 77, 76
6, 193604, Note_on_c, 0, 77, 0
6, 193620, Note_on_c, 0, 79, 76
6, 193664, Note_on_c, 0, 79, 0
6, 193680, Note_on_c, 0, 81, 76
6, 193784, Note_on_c, 0, 81, 0
6, 193800, Note_on_c, 0, 77, 76
6, 193904, Note_on_c, 0, 77, 0
6, 193920, Note_on_c, 0, 74, 76
6, 194024, Note_on_c, 0, 74, 0
6, 194040, Note_on_c, 0, 79, 76
6, 194144, Note_on_c, 0, 79, 0
6, 194160, Note_on_c, 0, 67, 76
6, 194264, Note_on_c, 0, 67, 0
6, 194280, Note_on_c, 0, 77, 76
6, 194384, Note_on_c, 0, 77, 0
6, 194400, Note_on_c, 0, 76, 76
6, 194639, Note_on_c, 0, 76, 0
6, 195120, Note_on_c, 0, 72, 76
6, 195584, Note_on_c, 0, 72, 0
6, 195600, Note_on_c, 0, 71, 76
6, 195824, Note_on_c, 0, 71, 0
6, 195840, Note_on_c, 0, 72, 76
6, 195884, Note_on_c, 0, 72, 0
6, 195900, Note_on_c, 0, 79, 76
6, 195944, Note_on_c, 0, 79, 0
6, 195960, Note_on_c, 0, 77, 76
6, 196004, Note_on_c, 0, 77, 0
6, 196020, Note_on_c, 0, 79, 76
6, 196064, Note_on_c, 0, 79, 0
6, 196080, Note_on_c, 0, 81, 76
6, 196124, Note_on_c, 0, 81, 0
6, 196140, Note_on_c, 0, 79, 76
6, 196184, Note_on_c, 0, 79, 0
6, 196200, Note_on_c, 0, 77, 76
6, 196244, Note_on_c, 0, 77, 0
6, 196260, Note_on_c, 0, 76, 76
6, 196304, Note_on_c, 0, 76, 0
6, 196320, Note_on_c, 0, 74, 76
6, 196364, Note_on_c, 0, 74, 0
6, 196380, Note_on_c, 0, 77, 76
6, 196424, Note_on_c, 0, 77, 0
6, 196440, Note_on_c, 0, 76, 76
6, 196484, Note_on_c, 0, 76, 0
6, 196500, Note_on_c, 0, 77, 76
6, 196544, Note_on_c, 0, 77, 0
6, 196560, Note_on_c, 0, 79, 76
6, 196604, Note_on_c, 0, 79, 0
6, 196620, Note_on_c, 0, 77, 76
6, 196664, Note_on_c, 0, 77, 0
6, 196680, Note_on_c, 0, 76, 76
6, 196724, Note_on_c, 0, 76, 0
6, 196740, Note_on_c, 0, 74, 76
6, 196784, Note_on_c, 0, 74, 0
6, 196800, Note_on_c, 0, 72, 76
6, 196844, Note_on_c, 0, 72, 0
6, 196860, Note_on_c, 0, 76, 76
6, 196904, Note_on_c, 0, 76, 0
6, 196920, Note_on_c, 0, 74, 76
6, 196964, Note_on_c, 0, 74, 0
6, 196980, Note_on_c, 0, 76, 76
6, 197024, Note_on_c, 0, 76, 0
6, 197040, Note_on_c, 0, 77, 76
6, 197204, Note_on_c, 0, 77, 0
6, 197220, Note_on_c, 0, 77, 76
6, 197264, Note_on_c, 0, 77, 0
6, 197280, Note_on_c, 0, 77, 76
6, 197324, Note_on_c, 0, 77, 0
6, 197340, Note_on_c, 0, 76, 76
6, 197384, Note_on_c, 0, 76, 0
6, 197400, Note_on_c, 0, 77, 76
6, 197444, Note_on_c, 0, 77, 0
6, 197460, Note_on_c, 0, 74, 76
6, 197504, Note_on_c, 0, 74, 0
6, 197520, Note_on_c, 0, 76, 76
6, 197564, Note_on_c, 0, 76, 0
6, 197580, Note_on_c, 0, 79, 76
6, 197624, Note_on_c, 0, 79, 0
6, 197640, Note_on_c, 0, 77, 76
6, 197684, Note_on_c, 0, 77, 0
6, 197700, Note_on_c, 0, 79, 76
6, 197744, Note_on_c, 0, 79, 0
6, 197760, Note_on_c, 0, 81, 76
6, 198044, Note_on_c, 0, 81, 0
6, 198060, Note_on_c, 0, 74, 76
6, 198104, Note_on_c, 0, 74, 0
6, 198120, Note_on_c, 0, 76, 76
6, 198164, Note_on_c, 0, 76, 0
6, 198180, Note_on_c, 0, 77, 76
6, 198224, Note_on_c, 0, 77, 0
6, 198240, Note_on_c, 0, 79, 76
6, 198524, Note_on_c, 0, 79, 0
6, 198540, Note_on_c, 0, 72, 76
6, 198584, Note_on_c, 0, 72, 0
6, 198600, Note_on_c, 0, 74, 76
6, 198644, Note_on_c, 0, 74, 0
6, 198660, Note_on_c, 0, 76, 76
6, 198704, Note_on_c, 0, 76, 0
6, 198720, Note_on_c, 0, 77, 76
6, 198764, Note_on_c, 0, 77, 0
6, 198780, Note_on_c, 0, 76, 76
6, 198824, Note_on_c, 0, 76, 0
6, 198840, Note_on_c, 0, 74, 76
6, 198884, Note_on_c, 0, 74, 0
6, 198900, Note_on_c, 0, 72, 76
6, 198944, Note_on_c, 0, 72, 0
6, 198960, Note_on_c, 0, 71, 76
6, 199004, Note_on_c, 0, 71, 0
6, 199020, Note_on_c, 0, 74, 76
6, 199064, Note_on_c, 0, 74, 0
6, 199080, Note_on_c, 0, 76, 76
6, 199124, Note_on_c, 0, 76, 0
6, 199140, Note_on_c, 0, 77, 76
6, 199184, Note_on_c, 0, 77, 0
6, 199200, Note_on_c, 0, 76, 76
6, 199244, Note_on_c, 0, 76, 0
6, 199260, Note_on_c, 0, 79, 76
6, 199304, Note_on_c, 0, 79, 0
6, 199320, Note_on_c, 0, 77, 76
6, 199364, Note_on_c, 0, 77, 0
6, 199380, Note_on_c, 0, 79, 76
6, 199424, Note_on_c, 0, 79, 0
6, 199440, Note_on_c, 0, 81, 76
6, 199484, Note_on_c, 0, 81, 0
6, 199500, Note_on_c, 0, 79, 76
6, 199544, Note_on_c, 0, 79, 0
6, 199560, Note_on_c, 0, 77, 76
6, 199604, Note_on_c, 0, 77, 0
6, 199620, Note_on_c, 0, 76, 76
6, 199664, Note_on_c, 0, 76, 0
6, 199680, Note_on_c, 0, 74, 76
6, 199724, Note_on_c, 0, 74, 0
6, 199740, Note_on_c, 0, 77, 76
6, 199784, Note_on_c, 0, 77, 0
6, 199800, Note_on_c, 0, 76, 76
6, 199844, Note_on_c, 0, 76, 0
6, 199860, Note_on_c, 0, 77, 76
6, 199904, Note_on_c, 0, 77, 0
6, 199920, Note_on_c, 0, 79, 76
6, 199964, Note_on_c, 0, 79, 0
6, 199980, Note_on_c, 0, 77, 76
6, 200024, Note_on_c, 0, 77, 0
6, 200040, Note_on_c, 0, 76, 76
6, 200084, Note_on_c, 0, 76, 0
6, 200100, Note_on_c, 0, 74, 76
6, 200144, Note_on_c, 0, 74, 0
6, 200160, Note_on_c, 0, 72, 76
6, 200204, Note_on_c, 0, 72, 0
6, 200220, Note_on_c, 0, 76, 76
6, 200264, Note_on_c, 0, 76, 0
6, 200280, Note_on_c, 0, 74, 76
6, 200324, Note_on_c, 0, 74, 0
6, 200340, Note_on_c, 0, 76, 76
6, 200384, Note_on_c, 0, 76, 0
6, 200400, Note_on_c, 0, 77, 76
6, 200444, Note_on_c, 0, 77, 0
6, 200460, Note_on_c, 0, 76, 76
6, 200504, Note_on_c, 0, 76, 0
6, 200520, Note_on_c, 0, 74, 76
6, 200564, Note_on_c, 0, 74, 0
6, 200580, Note_on_c, 0, 72, 76
6, 200624, Note_on_c, 0, 72, 0
6, 200640, Note_on_c, 0, 71, 76
6, 200684, Note_on_c, 0, 71, 0
6, 200700, Note_on_c, 0, 74, 76
6, 200744, Note_on_c, 0, 74, 0
6, 200760, Note_on_c, 0, 72, 76
6, 200804, Note_on_c, 0, 72, 0
6, 200820, Note_on_c, 0, 74, 76
6, 200864, Note_on_c, 0, 74, 0
6, 200880, Note_on_c, 0, 76, 76
6, 200924, Note_on_c, 0, 76, 0
6, 200940, Note_on_c, 0, 74, 76
6, 200984, Note_on_c, 0, 74, 0
6, 201000, Note_on_c, 0, 72, 76
6, 201044, Note_on_c, 0, 72, 0
6, 201060, Note_on_c, 0, 71, 76
6, 201104, Note_on_c, 0, 71, 0
6, 201120, Note_on_c, 0, 69, 76
6, 201164, Note_on_c, 0, 69, 0
6, 201180, Note_on_c, 0, 72, 76
6, 201224, Note_on_c, 0, 72, 0
6, 201240, Note_on_c, 0, 71, 76
6, 201284, Note_on_c, 0, 71, 0
6, 201300, Note_on_c, 0, 72, 76
6, 201344, Note_on_c, 0, 72, 0
6, 201360, Note_on_c, 0, 74, 76
6, 201404, Note_on_c, 0, 74, 0
6, 201420, Note_on_c, 0, 72, 76
6, 201464, Note_on_c, 0, 72, 0
6, 201480, Note_on_c, 0, 71, 76
6, 201524, Note_on_c, 0, 71, 0
6, 201540, Note_on_c, 0, 69, 76
6, 201584, Note_on_c, 0, 69, 0
6, 201600, Note_on_c, 0, 71, 76
6, 201704, Note_on_c, 0, 71, 0
6, 201720, Note_on_c, 0, 79, 76
6, 201824, Note_on_c, 0, 79, 0
6, 201840, Note_on_c, 0, 79, 76
6, 201944, Note_on_c, 0, 79, 0
6, 201960, Note_on_c, 0, 79, 76
6, 202064, Note_on_c, 0, 79, 0
6, 202080, Note_on_c, 0, 76, 76
6, 202184, Note_on_c, 0, 76, 0
6, 202200, Note_on_c, 0, 77, 76
6, 202244, Note_on_c, 0, 77, 0
6, 202260, Note_on_c, 0, 79, 76
6, 202304, Note_on_c, 0, 79, 0
6, 202320, Note_on_c, 0, 81, 76
6, 202424, Note_on_c, 0, 81, 0
6, 202440, Note_on_c, 0, 77, 76
6, 202544, Note_on_c, 0, 77, 0
6, 202560, Note_on_c, 0, 74, 76
6, 202664, Note_on_c, 0, 74, 0
6, 202680, Note_on_c, 0, 79, 76
6, 202784, Note_on_c, 0, 79, 0
6, 202800, Note_on_c, 0, 67, 76
6, 202904, Note_on_c, 0, 67, 0
6, 202920, Note_on_c, 0, 77, 76
6, 203024, Note_on_c, 0, 77, 0
6, 203040, Note_on_c, 0, 76, 76
6, 203204, Note_on_c, 0, 76, 0
6, 203220, Note_on_c, 0, 74, 76
6, 203264, Note_on_c, 0, 74, 0
6, 203280, Note_on_c, 0, 74, 76
6, 203309, Note_on_c, 0, 74, 0
6, 203310, Note_on_c, 0, 76, 76
6, 203339, Note_on_c, 0, 76, 0
6, 203340, Note_on_c, 0, 74, 76
6, 203369, Note_on_c, 0, 74, 0
6, 203370, Note_on_c, 0, 76, 76
6, 203399, Note_on_c, 0, 76, 0
6, 203400, Note_on_c, 0, 72, 76
6, 203429, Note_on_c, 0, 72, 0
6, 203430, Note_on_c, 0, 74, 76
6, 203459, Note_on_c, 0, 74, 0
6, 203460, Note_on_c, 0, 72, 76
6, 203504, Note_on_c, 0, 72, 0
6, 203520, Note_on_c, 0, 72, 76
6, 203811, Note_on_c, 0, 72, 0
6, 203820, Note_on_c, 0, 72, 76
6, 203871, Note_on_c, 0, 72, 0
6, 203880, Note_on_c, 0, 70, 76
6, 203931, Note_on_c, 0, 70, 0
6, 203940, Note_on_c, 0, 69, 76
6, 203991, Note_on_c, 0, 69, 0
6, 204000, Note_on_c, 0, 67, 76
6, 204351, Note_on_c, 0, 67, 0
6, 204360, Note_on_c, 0, 69, 76
6, 204471, Note_on_c, 0, 69, 0
6, 204480, Note_on_c, 0, 70, 76
6, 204651, Note_on_c, 0, 70, 0
6, 204660, Note_on_c, 0, 70, 76
6, 204711, Note_on_c, 0, 70, 0
6, 204720, Note_on_c, 0, 72, 76
6, 204891, Note_on_c, 0, 72, 0
6, 204900, Note_on_c, 0, 74, 76
6, 204951, Note_on_c, 0, 74, 0
6, 204960, Note_on_c, 0, 67, 76
6, 205131, Note_on_c, 0, 67, 0
6, 205140, Note_on_c, 0, 67, 76
6, 205191, Note_on_c, 0, 67, 0
6, 205200, Note_on_c, 0, 69, 76
6, 205371, Note_on_c, 0, 69, 0
6, 205380, Note_on_c, 0, 70, 76
6, 205431, Note_on_c, 0, 70, 0
6, 205440, Note_on_c, 0, 69, 76
6, 205731, Note_on_c, 0, 69, 0
6, 205740, Note_on_c, 0, 69, 76
6, 205791, Note_on_c, 0, 69, 0
6, 205800, Note_on_c, 0, 71, 76
6, 205851, Note_on_c, 0, 71, 0
6, 205860, Note_on_c, 0, 73, 76
6, 205911, Note_on_c, 0, 73, 0
6, 205920, Note_on_c, 0, 74, 76
6, 205971, Note_on_c, 0, 74, 0
6, 205980, Note_on_c, 0, 73, 76
6, 206031, Note_on_c, 0, 73, 0
6, 206040, Note_on_c, 0, 74, 76
6, 206091, Note_on_c, 0, 74, 0
6, 206100, Note_on_c, 0, 76, 76
6, 206151, Note_on_c, 0, 76, 0
6, 206160, Note_on_c, 0, 77, 76
6, 206211, Note_on_c, 0, 77, 0
6, 206220, Note_on_c, 0, 76, 76
6, 206271, Note_on_c, 0, 76, 0
6, 206280, Note_on_c, 0, 77, 76
6, 206331, Note_on_c, 0, 77, 0
6, 206340, Note_on_c, 0, 74, 76
6, 206391, Note_on_c, 0, 74, 0
6, 206400, Note_on_c, 0, 79, 76
6, 206751, Note_on_c, 0, 79, 0
6, 206760, Note_on_c, 0, 79, 76
6, 206871, Note_on_c, 0, 79, 0
6, 206880, Note_on_c, 0, 79, 76
6, 207051, Note_on_c, 0, 79, 0
6, 207060, Note_on_c, 0, 81, 76
6, 207089, Note_on_c, 0, 81, 0
6, 207090, Note_on_c, 0, 82, 76
6, 207119, Note_on_c, 0, 82, 0
6, 207120, Note_on_c, 0, 81, 76
6, 207291, Note_on_c, 0, 81, 0
6, 207300, Note_on_c, 0, 79, 76
6, 207319, Note_on_c, 0, 79, 0
6, 207320, Note_on_c, 0, 77, 76
6, 207339, Note_on_c, 0, 77, 0
6, 207340, Note_on_c, 0, 76, 76
6, 207359, Note_on_c, 0, 76, 0
6, 207360, Note_on_c, 0, 77, 76
6, 207531, Note_on_c, 0, 77, 0
6, 207540, Note_on_c, 0, 74, 76
6, 207591, Note_on_c, 0, 74, 0
6, 207600, Note_on_c, 0, 77, 76
6, 207771, Note_on_c, 0, 77, 0
6, 207780, Note_on_c, 0, 81, 76
6, 207831, Note_on_c, 0, 81, 0
6, 207840, Note_on_c, 0, 78, 76
6, 207854, Note_on_c, 0, 78, 0
6, 207855, Note_on_c, 0, 79, 76
6, 207869, Note_on_c, 0, 79, 0
6, 207870, Note_on_c, 0, 78, 76
6, 207884, Note_on_c, 0, 78, 0
6, 207885, Note_on_c, 0, 79, 76
6, 207899, Note_on_c, 0, 79, 0
6, 207900, Note_on_c, 0, 78, 76
6, 207914, Note_on_c, 0, 78, 0
6, 207915, Note_on_c, 0, 79, 76
6, 207929, Note_on_c, 0, 79, 0
6, 207930, Note_on_c, 0, 78, 76
6, 207944, Note_on_c, 0, 78, 0
6, 207945, Note_on_c, 0, 79, 76
6, 207959, Note_on_c, 0, 79, 0
6, 207960, Note_on_c, 0, 78, 76
6, 207974, Note_on_c, 0, 78, 0
6, 207975, Note_on_c, 0, 79, 76
6, 207989, Note_on_c, 0, 79, 0
6, 207990, Note_on_c, 0, 78, 76
6, 208004, Note_on_c, 0, 78, 0
6, 208005, Note_on_c, 0, 79, 76
6, 208019, Note_on_c, 0, 79, 0
6, 208020, Note_on_c, 0, 78, 76
6, 208034, Note_on_c, 0, 78, 0
6, 208035, Note_on_c, 0, 79, 76
6, 208049, Note_on_c, 0, 79, 0
6, 208050, Note_on_c, 0, 78, 76
6, 208064, Note_on_c, 0, 78, 0
6, 208065, Note_on_c, 0, 79, 76
6, 208079, Note_on_c, 0, 79, 0
6, 208080, Note_on_c, 0, 78, 76
6, 208094, Note_on_c, 0, 78, 0
6, 208095, Note_on_c, 0, 79, 76
6, 208109, Note_on_c, 0, 79, 0
6, 208110, Note_on_c, 0, 78, 76
6, 208124, Note_on_c, 0, 78, 0
6, 208125, Note_on_c, 0, 79, 76
6, 208139, Note_on_c, 0, 79, 0
6, 208140, Note_on_c, 0, 78, 76
6, 208154, Note_on_c, 0, 78, 0
6, 208155, Note_on_c, 0, 79, 76
6, 208169, Note_on_c, 0, 79, 0
6, 208170, Note_on_c, 0, 78, 76
6, 208184, Note_on_c, 0, 78, 0
6, 208185, Note_on_c, 0, 79, 76
6, 208199, Note_on_c, 0, 79, 0
6, 208200, Note_on_c, 0, 76, 76
6, 208251, Note_on_c, 0, 76, 0
6, 208260, Note_on_c, 0, 78, 76
6, 208311, Note_on_c, 0, 78, 0
6, 208320, Note_on_c, 0, 79, 76
6, 208851, Note_on_c, 0, 79, 0
6, 208860, Note_on_c, 0, 81, 76
6, 208911, Note_on_c, 0, 81, 0
6, 208920, Note_on_c, 0, 79, 76
6, 208971, Note_on_c, 0, 79, 0
6, 208980, Note_on_c, 0, 77, 76
6, 209031, Note_on_c, 0, 77, 0
6, 209040, Note_on_c, 0, 76, 76
6, 209091, Note_on_c, 0, 76, 0
6, 209100, Note_on_c, 0, 74, 76
6, 209151, Note_on_c, 0, 74, 0
6, 209160, Note_on_c, 0, 76, 76
6, 209211, Note_on_c, 0, 76, 0
6, 209220, Note_on_c, 0, 72, 76
6, 209271, Note_on_c, 0, 72, 0
6, 209280, Note_on_c, 0, 81, 76
6, 209811, Note_on_c, 0, 81, 0
6, 209820, Note_on_c, 0, 79, 76
6, 209871, Note_on_c, 0, 79, 0
6, 209880, Note_on_c, 0, 81, 76
6, 209931, Note_on_c, 0, 81, 0
6, 209940, Note_on_c, 0, 83, 76
6, 209991, Note_on_c, 0, 83, 0
6, 210000, Note_on_c, 0, 84, 76
6, 210051, Note_on_c, 0, 84, 0
6, 210060, Note_on_c, 0, 81, 76
6, 210111, Note_on_c, 0, 81, 0
6, 210120, Note_on_c, 0, 83, 76
6, 210171, Note_on_c, 0, 83, 0
6, 210180, Note_on_c, 0, 84, 76
6, 210231, Note_on_c, 0, 84, 0
6, 210240, Note_on_c, 0, 77, 76
6, 210291, Note_on_c, 0, 77, 0
6, 210300, Note_on_c, 0, 76, 76
6, 210351, Note_on_c, 0, 76, 0
6, 210360, Note_on_c, 0, 77, 76
6, 210411, Note_on_c, 0, 77, 0
6, 210420, Note_on_c, 0, 79, 76
6, 210471, Note_on_c, 0, 79, 0
6, 210480, Note_on_c, 0, 81, 76
6, 210531, Note_on_c, 0, 81, 0
6, 210540, Note_on_c, 0, 77, 76
6, 210591, Note_on_c, 0, 77, 0
6, 210600, Note_on_c, 0, 79, 76
6, 210651, Note_on_c, 0, 79, 0
6, 210660, Note_on_c, 0, 81, 76
6, 210711, Note_on_c, 0, 81, 0
6, 210720, Note_on_c, 0, 71, 76
6, 211071, Note_on_c, 0, 71, 0
6, 211080, Note_on_c, 0, 72, 76
6, 211191, Note_on_c, 0, 72, 0
6, 211200, Note_on_c, 0, 74, 76
6, 211251, Note_on_c, 0, 74, 0
6, 211260, Note_on_c, 0, 71, 76
6, 211311, Note_on_c, 0, 71, 0
6, 211320, Note_on_c, 0, 67, 76
6, 211371, Note_on_c, 0, 67, 0
6, 211380, Note_on_c, 0, 69, 76
6, 211431, Note_on_c, 0, 69, 0
6, 211440, Note_on_c, 0, 71, 76
6, 211491, Note_on_c, 0, 71, 0
6, 211500, Note_on_c, 0, 72, 76
6, 211551, Note_on_c, 0, 72, 0
6, 211560, Note_on_c, 0, 74, 76
6, 211611, Note_on_c, 0, 74, 0
6, 211620, Note_on_c, 0, 76, 76
6, 211671, Note_on_c, 0, 76, 0
6, 211680, Note_on_c, 0, 77, 76
6, 212031, Note_on_c, 0, 77, 0
6, 212040, Note_on_c, 0, 77, 76
6, 212151, Note_on_c, 0, 77, 0
6, 212160, Note_on_c, 0, 77, 76
6, 212331, Note_on_c, 0, 77, 0
6, 212340, Note_on_c, 0, 76, 76
6, 212369, Note_on_c, 0, 76, 0
6, 212370, Note_on_c, 0, 74, 76
6, 212399, Note_on_c, 0, 74, 0
6, 212400, Note_on_c, 0, 76, 76
6, 212571, Note_on_c, 0, 76, 0
6, 212580, Note_on_c, 0, 77, 76
6, 212609, Note_on_c, 0, 77, 0
6, 212610, Note_on_c, 0, 79, 76
6, 212639, Note_on_c, 0, 79, 0
6, 212640, Note_on_c, 0, 70, 76
6, 212991, Note_on_c, 0, 70, 0
6, 213000, Note_on_c, 0, 70, 76
6, 213111, Note_on_c, 0, 70, 0
6, 213120, Note_on_c, 0, 70, 76
6, 213291, Note_on_c, 0, 70, 0
6, 213300, Note_on_c, 0, 69, 76
6, 213329, Note_on_c, 0, 69, 0
6, 213330, Note_on_c, 0, 67, 76
6, 213359, Note_on_c, 0, 67, 0
6, 213360, Note_on_c, 0, 69, 76
6, 213531, Note_on_c, 0, 69, 0
6, 213540, Note_on_c, 0, 71, 76
6, 213591, Note_on_c, 0, 71, 0
6, 213600, Note_on_c, 0, 72, 76
6, 213951, Note_on_c, 0, 72, 0
6, 213960, Note_on_c, 0, 72, 76
6, 214071, Note_on_c, 0, 72, 0
6, 214080, Note_on_c, 0, 72, 76
6, 214251, Note_on_c, 0, 72, 0
6, 214260, Note_on_c, 0, 71, 76
6, 214289, Note_on_c, 0, 71, 0
6, 214290, Note_on_c, 0, 69, 76
6, 214319, Note_on_c, 0, 69, 0
6, 214320, Note_on_c, 0, 77, 76
6, 214491, Note_on_c, 0, 77, 0
6, 214500, Note_on_c, 0, 76, 76
6, 214529, Note_on_c, 0, 76, 0
6, 214530, Note_on_c, 0, 74, 76
6, 214559, Note_on_c, 0, 74, 0
6, 214560, Note_on_c, 0, 83, 76
6, 214731, Note_on_c, 0, 83, 0
6, 214740, Note_on_c, 0, 81, 76
6, 214769, Note_on_c, 0, 81, 0
6, 214770, Note_on_c, 0, 79, 76
6, 214799, Note_on_c, 0, 79, 0
6, 214800, Note_on_c, 0, 86, 76
6, 214971, Note_on_c, 0, 86, 0
6, 214980, Note_on_c, 0, 77, 76
6, 215031, Note_on_c, 0, 77, 0
6, 215040, Note_on_c, 0, 77, 76
6, 215331, Note_on_c, 0, 77, 0
6, 215340, Note_on_c, 0, 81, 76
6, 215391, Note_on_c, 0, 81, 0
6, 215400, Note_on_c, 0, 79, 76
6, 215451, Note_on_c, 0, 79, 0
6, 215460, Note_on_c, 0, 77, 76
6, 215511, Note_on_c, 0, 77, 0
6, 215520, Note_on_c, 0, 76, 76
6, 215571, Note_on_c, 0, 76, 0
6, 215580, Note_on_c, 0, 72, 76
6, 215631, Note_on_c, 0, 72, 0
6, 215640, Note_on_c, 0, 74, 76
6, 215691, Note_on_c, 0, 74, 0
6, 215700, Note_on_c, 0, 76, 76
6, 215751, Note_on_c, 0, 76, 0
6, 215760, Note_on_c, 0, 77, 76
6, 215811, Note_on_c, 0, 77, 0
6, 215820, Note_on_c, 0, 79, 76
6, 215871, Note_on_c, 0, 79, 0
6, 215880, Note_on_c, 0, 81, 76
6, 215931, Note_on_c, 0, 81, 0
6, 215940, Note_on_c, 0, 82, 76
6, 215991, Note_on_c, 0, 82, 0
6, 216000, Note_on_c, 0, 81, 76
6, 216051, Note_on_c, 0, 81, 0
6, 216060, Note_on_c, 0, 79, 76
6, 216111, Note_on_c, 0, 79, 0
6, 216120, Note_on_c, 0, 77, 76
6, 216171, Note_on_c, 0, 77, 0
6, 216180, Note_on_c, 0, 76, 76
6, 216231, Note_on_c, 0, 76, 0
6, 216240, Note_on_c, 0, 77, 76
6, 216291, Note_on_c, 0, 77, 0
6, 216300, Note_on_c, 0, 74, 76
6, 216351, Note_on_c, 0, 74, 0
6, 216360, Note_on_c, 0, 76, 76
6, 216411, Note_on_c, 0, 76, 0
6, 216420, Note_on_c, 0, 77, 76
6, 216471, Note_on_c, 0, 77, 0
6, 216480, Note_on_c, 0, 67, 76
6, 216801, Note_on_c, 0, 67, 0
6, 216810, Note_on_c, 0, 69, 76
6, 216839, Note_on_c, 0, 69, 0
6, 216840, Note_on_c, 0, 71, 76
6, 216869, Note_on_c, 0, 71, 0
6, 216870, Note_on_c, 0, 72, 76
6, 216899, Note_on_c, 0, 72, 0
6, 216900, Note_on_c, 0, 74, 76
6, 216929, Note_on_c, 0, 74, 0
6, 216930, Note_on_c, 0, 76, 76
6, 216959, Note_on_c, 0, 76, 0
6, 216960, Note_on_c, 0, 77, 76
6, 217131, Note_on_c, 0, 77, 0
6, 217140, Note_on_c, 0, 74, 76
6, 217191, Note_on_c, 0, 74, 0
6, 217200, Note_on_c, 0, 76, 76
6, 217371, Note_on_c, 0, 76, 0
6, 217380, Note_on_c, 0, 77, 76
6, 217431, Note_on_c, 0, 77, 0
6, 217440, Note_on_c, 0, 74, 76
6, 217791, Note_on_c, 0, 74, 0
6, 217800, Note_on_c, 0, 72, 76
6, 217911, Note_on_c, 0, 72, 0
6, 217920, Note_on_c, 0, 72, 76
6, 218879, Note_on_c, 0, 72, 0
6, 218879, End_track
7, 0, Start_track
7, 0, Title_t, "Oboe II"
7, 0, MIDI_port, 0
7, 0, Program_c, 1, 68
7, 0, Control_c, 1, 10, 65
7, 0, Control_c, 1, 11, 127
7, 0, Control_c, 1, 7, 80
7, 0, Note_on_c, 1, 76, 76
7, 531, Note_on_c, 1, 76, 0
7, 540, Note_on_c, 1, 74, 76
7, 591, Note_on_c, 1, 74, 0
7, 600, Note_on_c, 1, 76, 76
7, 651, Note_on_c, 1, 76, 0
7, 660, Note_on_c, 1, 77, 76
7, 711, Note_on_c, 1, 77, 0
7, 720, Note_on_c, 1, 79, 76
7, 771, Note_on_c, 1, 79, 0
7, 780, Note_on_c, 1, 77, 76
7, 831, Note_on_c, 1, 77, 0
7, 840, Note_on_c, 1, 79, 76
7, 891, Note_on_c, 1, 79, 0
7, 900, Note_on_c, 1, 81, 76
7, 951, Note_on_c, 1, 81, 0
7, 960, Note_on_c, 1, 74, 76
7, 1251, Note_on_c, 1, 74, 0
7, 1260, Note_on_c, 1, 74, 76
7, 1311, Note_on_c, 1, 74, 0
7, 1320, Note_on_c, 1, 76, 76
7, 1371, Note_on_c, 1, 76, 0
7, 1380, Note_on_c, 1, 77, 76
7, 1431, Note_on_c, 1, 77, 0
7, 1440, Note_on_c, 1, 79, 76
7, 1491, Note_on_c, 1, 79, 0
7, 1500, Note_on_c, 1, 77, 76
7, 1551, Note_on_c, 1, 77, 0
7, 1560, Note_on_c, 1, 76, 76
7, 1611, Note_on_c, 1, 76, 0
7, 1620, Note_on_c, 1, 77, 76
7, 1671, Note_on_c, 1, 77, 0
7, 1680, Note_on_c, 1, 79, 76
7, 1731, Note_on_c, 1, 79, 0
7, 1740, Note_on_c, 1, 76, 76
7, 1791, Note_on_c, 1, 76, 0
7, 1800, Note_on_c, 1, 77, 76
7, 1851, Note_on_c, 1, 77, 0
7, 1860, Note_on_c, 1, 79, 76
7, 1911, Note_on_c, 1, 79, 0
7, 1920, Note_on_c, 1, 72, 76
7, 2091, Note_on_c, 1, 72, 0
7, 2100, Note_on_c, 1, 69, 76
7, 2129, Note_on_c, 1, 69, 0
7, 2130, Note_on_c, 1, 71, 76
7, 2159, Note_on_c, 1, 71, 0
7, 2160, Note_on_c, 1, 72, 76
7, 2331, Note_on_c, 1, 72, 0
7, 2340, Note_on_c, 1, 74, 76
7, 2369, Note_on_c, 1, 74, 0
7, 2370, Note_on_c, 1, 76, 76
7, 2399, Note_on_c, 1, 76, 0
7, 2400, Note_on_c, 1, 77, 76
7, 2751, Note_on_c, 1, 77, 0
7, 2760, Note_on_c, 1, 77, 76
7, 2871, Note_on_c, 1, 77, 0
7, 2880, Note_on_c, 1, 77, 76
7, 2931, Note_on_c, 1, 77, 0
7, 2940, Note_on_c, 1, 79, 76
7, 2991, Note_on_c, 1, 79, 0
7, 3000, Note_on_c, 1, 77, 76
7, 3051, Note_on_c, 1, 77, 0
7, 3060, Note_on_c, 1, 76, 76
7, 3111, Note_on_c, 1, 76, 0
7, 3120, Note_on_c, 1, 77, 76
7, 3171, Note_on_c, 1, 77, 0
7, 3180, Note_on_c, 1, 76, 76
7, 3231, Note_on_c, 1, 76, 0
7, 3240, Note_on_c, 1, 74, 76
7, 3291, Note_on_c, 1, 74, 0
7, 3300, Note_on_c, 1, 76, 76
7, 3351, Note_on_c, 1, 76, 0
7, 3360, Note_on_c, 1, 76, 76
7, 3711, Note_on_c, 1, 76, 0
7, 3720, Note_on_c, 1, 74, 76
7, 3831, Note_on_c, 1, 74, 0
7, 3840, Note_on_c, 1, 74, 76
7, 4011, Note_on_c, 1, 74, 0
7, 4020, Note_on_c, 1, 67, 76
7, 4071, Note_on_c, 1, 67, 0
7, 4080, Note_on_c, 1, 69, 76
7, 4109, Note_on_c, 1, 69, 0
7, 4110, Note_on_c, 1, 71, 76
7, 4139, Note_on_c, 1, 71, 0
7, 4140, Note_on_c, 1, 72, 76
7, 4169, Note_on_c, 1, 72, 0
7, 4170, Note_on_c, 1, 74, 76
7, 4199, Note_on_c, 1, 74, 0
7, 4200, Note_on_c, 1, 76, 76
7, 4229, Note_on_c, 1, 76, 0
7, 4230, Note_on_c, 1, 78, 76
7, 4259, Note_on_c, 1, 78, 0
7, 4260, Note_on_c, 1, 79, 76
7, 4289, Note_on_c, 1, 79, 0
7, 4290, Note_on_c, 1, 81, 76
7, 4319, Note_on_c, 1, 81, 0
7, 4320, Note_on_c, 1, 83, 76
7, 4671, Note_on_c, 1, 83, 0
7, 4680, Note_on_c, 1, 83, 76
7, 4791, Note_on_c, 1, 83, 0
7, 4800, Note_on_c, 1, 83, 76
7, 4971, Note_on_c, 1, 83, 0
7, 4980, Note_on_c, 1, 79, 76
7, 5031, Note_on_c, 1, 79, 0
7, 5040, Note_on_c, 1, 78, 76
7, 5211, Note_on_c, 1, 78, 0
7, 5220, Note_on_c, 1, 76, 76
7, 5271, Note_on_c, 1, 76, 0
7, 5280, Note_on_c, 1, 81, 76
7, 5631, Note_on_c, 1, 81, 0
7, 5640, Note_on_c, 1, 81, 76
7, 5751, Note_on_c, 1, 81, 0
7, 5760, Note_on_c, 1, 81, 76
7, 5931, Note_on_c, 1, 81, 0
7, 5940, Note_on_c, 1, 83, 76
7, 5969, Note_on_c, 1, 83, 0
7, 5970, Note_on_c, 1, 81, 76
7, 5999, Note_on_c, 1, 81, 0
7, 6000, Note_on_c, 1, 79, 76
7, 6171, Note_on_c, 1, 79, 0
7, 6180, Note_on_c, 1, 81, 76
7, 6209, Note_on_c, 1, 81, 0
7, 6210, Note_on_c, 1, 78, 76
7, 6239, Note_on_c, 1, 78, 0
7, 6240, Note_on_c, 1, 79, 76
7, 6591, Note_on_c, 1, 79, 0
7, 6600, Note_on_c, 1, 79, 76
7, 6711, Note_on_c, 1, 79, 0
7, 6720, Note_on_c, 1, 79, 76
7, 7011, Note_on_c, 1, 79, 0
7, 7020, Note_on_c, 1, 78, 76
7, 7071, Note_on_c, 1, 78, 0
7, 7080, Note_on_c, 1, 76, 76
7, 7131, Note_on_c, 1, 76, 0
7, 7140, Note_on_c, 1, 78, 76
7, 7191, Note_on_c, 1, 78, 0
7, 7200, Note_on_c, 1, 79, 76
7, 7251, Note_on_c, 1, 79, 0
7, 7260, Note_on_c, 1, 78, 76
7, 7311, Note_on_c, 1, 78, 0
7, 7320, Note_on_c, 1, 79, 76
7, 7371, Note_on_c, 1, 79, 0
7, 7380, Note_on_c, 1, 83, 76
7, 7431, Note_on_c, 1, 83, 0
7, 7440, Note_on_c, 1, 81, 76
7, 7491, Note_on_c, 1, 81, 0
7, 7500, Note_on_c, 1, 79, 76
7, 7551, Note_on_c, 1, 79, 0
7, 7560, Note_on_c, 1, 78, 76
7, 7611, Note_on_c, 1, 78, 0
7, 7620, Note_on_c, 1, 79, 76
7, 7671, Note_on_c, 1, 79, 0
7, 7680, Note_on_c, 1, 78, 76
7, 7694, Note_on_c, 1, 78, 0
7, 7695, Note_on_c, 1, 79, 76
7, 7709, Note_on_c, 1, 79, 0
7, 7710, Note_on_c, 1, 78, 76
7, 7724, Note_on_c, 1, 78, 0
7, 7725, Note_on_c, 1, 79, 76
7, 7739, Note_on_c, 1, 79, 0
7, 7740, Note_on_c, 1, 78, 76
7, 7754, Note_on_c, 1, 78, 0
7, 7755, Note_on_c, 1, 79, 76
7, 7769, Note_on_c, 1, 79, 0
7, 7770, Note_on_c, 1, 78, 76
7, 7784, Note_on_c, 1, 78, 0
7, 7785, Note_on_c, 1, 79, 76
7, 7799, Note_on_c, 1, 79, 0
7, 7800, Note_on_c, 1, 78, 76
7, 7814, Note_on_c, 1, 78, 0
7, 7815, Note_on_c, 1, 79, 76
7, 7829, Note_on_c, 1, 79, 0
7, 7830, Note_on_c, 1, 76, 76
7, 7844, Note_on_c, 1, 76, 0
7, 7845, Note_on_c, 1, 78, 76
7, 7859, Note_on_c, 1, 78, 0
7, 7860, Note_on_c, 1, 76, 76
7, 7889, Note_on_c, 1, 76, 0
7, 7890, Note_on_c, 1, 74, 76
7, 7919, Note_on_c, 1, 74, 0
7, 7920, Note_on_c, 1, 81, 76
7, 8091, Note_on_c, 1, 81, 0
7, 8100, Note_on_c, 1, 72, 76
7, 8151, Note_on_c, 1, 72, 0
7, 8160, Note_on_c, 1, 71, 76
7, 8331, Note_on_c, 1, 71, 0
7, 8340, Note_on_c, 1, 72, 76
7, 8359, Note_on_c, 1, 72, 0
7, 8360, Note_on_c, 1, 71, 76
7, 8379, Note_on_c, 1, 71, 0
7, 8380, Note_on_c, 1, 72, 76
7, 8399, Note_on_c, 1, 72, 0
7, 8400, Note_on_c, 1, 72, 76
7, 8414, Note_on_c, 1, 72, 0
7, 8415, Note_on_c, 1, 74, 76
7, 8429, Note_on_c, 1, 74, 0
7, 8430, Note_on_c, 1, 72, 76
7, 8444, Note_on_c, 1, 72, 0
7, 8445, Note_on_c, 1, 74, 76
7, 8459, Note_on_c, 1, 74, 0
7, 8460, Note_on_c, 1, 72, 76
7, 8474, Note_on_c, 1, 72, 0
7, 8475, Note_on_c, 1, 74, 76
7, 8489, Note_on_c, 1, 74, 0
7, 8490, Note_on_c, 1, 72, 76
7, 8504, Note_on_c, 1, 72, 0
7, 8505, Note_on_c, 1, 74, 76
7, 8519, Note_on_c, 1, 74, 0
7, 8520, Note_on_c, 1, 72, 76
7, 8534, Note_on_c, 1, 72, 0
7, 8535, Note_on_c, 1, 74, 76
7, 8549, Note_on_c, 1, 74, 0
7, 8550, Note_on_c, 1, 72, 76
7, 8564, Note_on_c, 1, 72, 0
7, 8565, Note_on_c, 1, 74, 76
7, 8579, Note_on_c, 1, 74, 0
7, 8580, Note_on_c, 1, 71, 76
7, 8609, Note_on_c, 1, 71, 0
7, 8610, Note_on_c, 1, 72, 76
7, 8639, Note_on_c, 1, 72, 0
7, 8640, Note_on_c, 1, 74, 76
7, 8811, Note_on_c, 1, 74, 0
7, 8820, Note_on_c, 1, 76, 76
7, 8871, Note_on_c, 1, 76, 0
7, 8880, Note_on_c, 1, 74, 76
7, 8909, Note_on_c, 1, 74, 0
7, 8910, Note_on_c, 1, 72, 76
7, 8939, Note_on_c, 1, 72, 0
7, 8940, Note_on_c, 1, 71, 76
7, 8969, Note_on_c, 1, 71, 0
7, 8970, Note_on_c, 1, 69, 76
7, 8999, Note_on_c, 1, 69, 0
7, 9000, Note_on_c, 1, 67, 76
7, 9029, Note_on_c, 1, 67, 0
7, 9030, Note_on_c, 1, 65, 76
7, 9059, Note_on_c, 1, 65, 0
7, 9075, Note_on_c, 1, 64, 76
7, 9120, Note_on_c, 1, 65, 76
7, 9126, Note_on_c, 1, 64, 0
7, 9471, Note_on_c, 1, 65, 0
7, 9480, Note_on_c, 1, 65, 76
7, 9591, Note_on_c, 1, 65, 0
7, 9600, Note_on_c, 1, 65, 76
7, 9771, Note_on_c, 1, 65, 0
7, 9780, Note_on_c, 1, 64, 76
7, 9809, Note_on_c, 1, 64, 0
7, 9810, Note_on_c, 1, 62, 76
7, 9839, Note_on_c, 1, 62, 0
7, 9840, Note_on_c, 1, 64, 76
7, 10011, Note_on_c, 1, 64, 0
7, 10020, Note_on_c, 1, 66, 76
7, 10071, Note_on_c, 1, 66, 0
7, 10080, Note_on_c, 1, 67, 76
7, 10431, Note_on_c, 1, 67, 0
7, 10440, Note_on_c, 1, 67, 76
7, 10551, Note_on_c, 1, 67, 0
7, 10560, Note_on_c, 1, 67, 76
7, 10731, Note_on_c, 1, 67, 0
7, 10740, Note_on_c, 1, 66, 76
7, 10769, Note_on_c, 1, 66, 0
7, 10770, Note_on_c, 1, 64, 76
7, 10799, Note_on_c, 1, 64, 0
7, 10800, Note_on_c, 1, 72, 76
7, 10971, Note_on_c, 1, 72, 0
7, 10980, Note_on_c, 1, 71, 76
7, 11009, Note_on_c, 1, 71, 0
7, 11010, Note_on_c, 1, 69, 76
7, 11039, Note_on_c, 1, 69, 0
7, 11040, Note_on_c, 1, 78, 76
7, 11211, Note_on_c, 1, 78, 0
7, 11220, Note_on_c, 1, 76, 76
7, 11249, Note_on_c, 1, 76, 0
7, 11250, Note_on_c, 1, 74, 76
7, 11279, Note_on_c, 1, 74, 0
7, 11280, Note_on_c, 1, 81, 76
7, 11451, Note_on_c, 1, 81, 0
7, 11460, Note_on_c, 1, 72, 76
7, 11511, Note_on_c, 1, 72, 0
7, 11520, Note_on_c, 1, 71, 76
7, 11811, Note_on_c, 1, 71, 0
7, 11820, Note_on_c, 1, 69, 76
7, 11871, Note_on_c, 1, 69, 0
7, 11880, Note_on_c, 1, 67, 76
7, 11931, Note_on_c, 1, 67, 0
7, 11940, Note_on_c, 1, 66, 76
7, 11991, Note_on_c, 1, 66, 0
7, 12000, Note_on_c, 1, 67, 76
7, 12051, Note_on_c, 1, 67, 0
7, 12060, Note_on_c, 1, 62, 76
7, 12111, Note_on_c, 1, 62, 0
7, 12120, Note_on_c, 1, 64, 76
7, 12171, Note_on_c, 1, 64, 0
7, 12180, Note_on_c, 1, 66, 76
7, 12231, Note_on_c, 1, 66, 0
7, 12240, Note_on_c, 1, 67, 76
7, 12291, Note_on_c, 1, 67, 0
7, 12300, Note_on_c, 1, 69, 76
7, 12351, Note_on_c, 1, 69, 0
7, 12360, Note_on_c, 1, 71, 76
7, 12411, Note_on_c, 1, 71, 0
7, 12420, Note_on_c, 1, 72, 76
7, 12471, Note_on_c, 1, 72, 0
7, 12480, Note_on_c, 1, 74, 76
7, 12771, Note_on_c, 1, 74, 0
7, 12780, Note_on_c, 1, 72, 76
7, 12831, Note_on_c, 1, 72, 0
7, 12840, Note_on_c, 1, 74, 76
7, 12891, Note_on_c, 1, 74, 0
7, 12900, Note_on_c, 1, 76, 76
7, 12951, Note_on_c, 1, 76, 0
7, 12960, Note_on_c, 1, 66, 76
7, 12974, Note_on_c, 1, 66, 0
7, 12975, Note_on_c, 1, 67, 76
7, 12989, Note_on_c, 1, 67, 0
7, 12990, Note_on_c, 1, 66, 76
7, 13004, Note_on_c, 1, 66, 0
7, 13005, Note_on_c, 1, 67, 76
7, 13019, Note_on_c, 1, 67, 0
7, 13020, Note_on_c, 1, 66, 76
7, 13034, Note_on_c, 1, 66, 0
7, 13035, Note_on_c, 1, 67, 76
7, 13049, Note_on_c, 1, 67, 0
7, 13050, Note_on_c, 1, 66, 76
7, 13064, Note_on_c, 1, 66, 0
7, 13065, Note_on_c, 1, 67, 76
7, 13079, Note_on_c, 1, 67, 0
7, 13080, Note_on_c, 1, 66, 76
7, 13094, Note_on_c, 1, 66, 0
7, 13095, Note_on_c, 1, 67, 76
7, 13109, Note_on_c, 1, 67, 0
7, 13110, Note_on_c, 1, 66, 76
7, 13124, Note_on_c, 1, 66, 0
7, 13125, Note_on_c, 1, 67, 76
7, 13139, Note_on_c, 1, 67, 0
7, 13140, Note_on_c, 1, 66, 76
7, 13154, Note_on_c, 1, 66, 0
7, 13155, Note_on_c, 1, 67, 76
7, 13169, Note_on_c, 1, 67, 0
7, 13170, Note_on_c, 1, 64, 76
7, 13184, Note_on_c, 1, 64, 0
7, 13185, Note_on_c, 1, 66, 76
7, 13244, Note_on_c, 1, 66, 0
7, 13260, Note_on_c, 1, 67, 76
7, 13311, Note_on_c, 1, 67, 0
7, 13320, Note_on_c, 1, 69, 76
7, 13371, Note_on_c, 1, 69, 0
7, 13380, Note_on_c, 1, 71, 76
7, 13431, Note_on_c, 1, 71, 0
7, 13440, Note_on_c, 1, 72, 76
7, 13611, Note_on_c, 1, 72, 0
7, 13620, Note_on_c, 1, 69, 76
7, 13671, Note_on_c, 1, 69, 0
7, 13680, Note_on_c, 1, 71, 76
7, 13851, Note_on_c, 1, 71, 0
7, 13860, Note_on_c, 1, 72, 76
7, 13911, Note_on_c, 1, 72, 0
7, 13920, Note_on_c, 1, 69, 76
7, 14271, Note_on_c, 1, 69, 0
7, 14280, Note_on_c, 1, 67, 76
7, 14391, Note_on_c, 1, 67, 0
7, 14400, Note_on_c, 1, 67, 76
7, 15351, Note_on_c, 1, 67, 0
7, 15360, Note_on_c, 1, 76, 76
7, 15891, Note_on_c, 1, 76, 0
7, 15900, Note_on_c, 1, 74, 76
7, 15951, Note_on_c, 1, 74, 0
7, 15960, Note_on_c, 1, 76, 76
7, 16011, Note_on_c, 1, 76, 0
7, 16020, Note_on_c, 1, 77, 76
7, 16071, Note_on_c, 1, 77, 0
7, 16080, Note_on_c, 1, 79, 76
7, 16131, Note_on_c, 1, 79, 0
7, 16140, Note_on_c, 1, 77, 76
7, 16191, Note_on_c, 1, 77, 0
7, 16200, Note_on_c, 1, 79, 76
7, 16251, Note_on_c, 1, 79, 0
7, 16260, Note_on_c, 1, 81, 76
7, 16311, Note_on_c, 1, 81, 0
7, 16320, Note_on_c, 1, 74, 76
7, 16611, Note_on_c, 1, 74, 0
7, 16620, Note_on_c, 1, 74, 76
7, 16671, Note_on_c, 1, 74, 0
7, 16680, Note_on_c, 1, 76, 76
7, 16731, Note_on_c, 1, 76, 0
7, 16740, Note_on_c, 1, 77, 76
7, 16791, Note_on_c, 1, 77, 0
7, 16800, Note_on_c, 1, 79, 76
7, 16851, Note_on_c, 1, 79, 0
7, 16860, Note_on_c, 1, 77, 76
7, 16911, Note_on_c, 1, 77, 0
7, 16920, Note_on_c, 1, 76, 76
7, 16971, Note_on_c, 1, 76, 0
7, 16980, Note_on_c, 1, 77, 76
7, 17031, Note_on_c, 1, 77, 0
7, 17040, Note_on_c, 1, 79, 76
7, 17091, Note_on_c, 1, 79, 0
7, 17100, Note_on_c, 1, 76, 76
7, 17151, Note_on_c, 1, 76, 0
7, 17160, Note_on_c, 1, 77, 76
7, 17211, Note_on_c, 1, 77, 0
7, 17220, Note_on_c, 1, 79, 76
7, 17271, Note_on_c, 1, 79, 0
7, 17280, Note_on_c, 1, 72, 76
7, 17451, Note_on_c, 1, 72, 0
7, 17460, Note_on_c, 1, 69, 76
7, 17489, Note_on_c, 1, 69, 0
7, 17490, Note_on_c, 1, 71, 76
7, 17519, Note_on_c, 1, 71, 0
7, 17520, Note_on_c, 1, 72, 76
7, 17691, Note_on_c, 1, 72, 0
7, 17700, Note_on_c, 1, 74, 76
7, 17729, Note_on_c, 1, 74, 0
7, 17730, Note_on_c, 1, 76, 76
7, 17759, Note_on_c, 1, 76, 0
7, 17760, Note_on_c, 1, 77, 76
7, 18111, Note_on_c, 1, 77, 0
7, 18120, Note_on_c, 1, 77, 76
7, 18231, Note_on_c, 1, 77, 0
7, 18240, Note_on_c, 1, 77, 76
7, 18291, Note_on_c, 1, 77, 0
7, 18300, Note_on_c, 1, 79, 76
7, 18351, Note_on_c, 1, 79, 0
7, 18360, Note_on_c, 1, 77, 76
7, 18411, Note_on_c, 1, 77, 0
7, 18420, Note_on_c, 1, 76, 76
7, 18471, Note_on_c, 1, 76, 0
7, 18480, Note_on_c, 1, 77, 76
7, 18531, Note_on_c, 1, 77, 0
7, 18540, Note_on_c, 1, 76, 76
7, 18591, Note_on_c, 1, 76, 0
7, 18600, Note_on_c, 1, 74, 76
7, 18651, Note_on_c, 1, 74, 0
7, 18660, Note_on_c, 1, 76, 76
7, 18711, Note_on_c, 1, 76, 0
7, 18720, Note_on_c, 1, 76, 76
7, 19071, Note_on_c, 1, 76, 0
7, 19080, Note_on_c, 1, 74, 76
7, 19191, Note_on_c, 1, 74, 0
7, 19200, Note_on_c, 1, 74, 76
7, 19371, Note_on_c, 1, 74, 0
7, 19380, Note_on_c, 1, 67, 76
7, 19431, Note_on_c, 1, 67, 0
7, 19440, Note_on_c, 1, 69, 76
7, 19469, Note_on_c, 1, 69, 0
7, 19470, Note_on_c, 1, 71, 76
7, 19499, Note_on_c, 1, 71, 0
7, 19500, Note_on_c, 1, 72, 76
7, 19529, Note_on_c, 1, 72, 0
7, 19530, Note_on_c, 1, 74, 76
7, 19559, Note_on_c, 1, 74, 0
7, 19560, Note_on_c, 1, 76, 76
7, 19589, Note_on_c, 1, 76, 0
7, 19590, Note_on_c, 1, 78, 76
7, 19619, Note_on_c, 1, 78, 0
7, 19620, Note_on_c, 1, 79, 76
7, 19649, Note_on_c, 1, 79, 0
7, 19650, Note_on_c, 1, 81, 76
7, 19679, Note_on_c, 1, 81, 0
7, 19680, Note_on_c, 1, 83, 76
7, 20031, Note_on_c, 1, 83, 0
7, 20040, Note_on_c, 1, 83, 76
7, 20151, Note_on_c, 1, 83, 0
7, 20160, Note_on_c, 1, 83, 76
7, 20331, Note_on_c, 1, 83, 0
7, 20340, Note_on_c, 1, 79, 76
7, 20391, Note_on_c, 1, 79, 0
7, 20400, Note_on_c, 1, 78, 76
7, 20571, Note_on_c, 1, 78, 0
7, 20580, Note_on_c, 1, 76, 76
7, 20631, Note_on_c, 1, 76, 0
7, 20640, Note_on_c, 1, 81, 76
7, 20991, Note_on_c, 1, 81, 0
7, 21000, Note_on_c, 1, 81, 76
7, 21111, Note_on_c, 1, 81, 0
7, 21120, Note_on_c, 1, 81, 76
7, 21291, Note_on_c, 1, 81, 0
7, 21300, Note_on_c, 1, 83, 76
7, 21329, Note_on_c, 1, 83, 0
7, 21330, Note_on_c, 1, 81, 76
7, 21359, Note_on_c, 1, 81, 0
7, 21360, Note_on_c, 1, 79, 76
7, 21531, Note_on_c, 1, 79, 0
7, 21540, Note_on_c, 1, 81, 76
7, 21569, Note_on_c, 1, 81, 0
7, 21570, Note_on_c, 1, 78, 76
7, 21599, Note_on_c, 1, 78, 0
7, 21600, Note_on_c, 1, 79, 76
7, 21951, Note_on_c, 1, 79, 0
7, 21960, Note_on_c, 1, 79, 76
7, 22071, Note_on_c, 1, 79, 0
7, 22080, Note_on_c, 1, 79, 76
7, 22371, Note_on_c, 1, 79, 0
7, 22380, Note_on_c, 1, 78, 76
7, 22431, Note_on_c, 1, 78, 0
7, 22440, Note_on_c, 1, 76, 76
7, 22491, Note_on_c, 1, 76, 0
7, 22500, Note_on_c, 1, 78, 76
7, 22551, Note_on_c, 1, 78, 0
7, 22560, Note_on_c, 1, 79, 76
7, 22611, Note_on_c, 1, 79, 0
7, 22620, Note_on_c, 1, 78, 76
7, 22671, Note_on_c, 1, 78, 0
7, 22680, Note_on_c, 1, 79, 76
7, 22731, Note_on_c, 1, 79, 0
7, 22740, Note_on_c, 1, 83, 76
7, 22791, Note_on_c, 1, 83, 0
7, 22800, Note_on_c, 1, 81, 76
7, 22851, Note_on_c, 1, 81, 0
7, 22860, Note_on_c, 1, 79, 76
7, 22911, Note_on_c, 1, 79, 0
7, 22920, Note_on_c, 1, 78, 76
7, 22971, Note_on_c, 1, 78, 0
7, 22980, Note_on_c, 1, 79, 76
7, 23031, Note_on_c, 1, 79, 0
7, 23040, Note_on_c, 1, 78, 76
7, 23054, Note_on_c, 1, 78, 0
7, 23055, Note_on_c, 1, 79, 76
7, 23069, Note_on_c, 1, 79, 0
7, 23070, Note_on_c, 1, 78, 76
7, 23084, Note_on_c, 1, 78, 0
7, 23085, Note_on_c, 1, 79, 76
7, 23099, Note_on_c, 1, 79, 0
7, 23100, Note_on_c, 1, 78, 76
7, 23114, Note_on_c, 1, 78, 0
7, 23115, Note_on_c, 1, 79, 76
7, 23129, Note_on_c, 1, 79, 0
7, 23130, Note_on_c, 1, 78, 76
7, 23144, Note_on_c, 1, 78, 0
7, 23145, Note_on_c, 1, 79, 76
7, 23159, Note_on_c, 1, 79, 0
7, 23160, Note_on_c, 1, 78, 76
7, 23174, Note_on_c, 1, 78, 0
7, 23175, Note_on_c, 1, 79, 76
7, 23189, Note_on_c, 1, 79, 0
7, 23190, Note_on_c, 1, 76, 76
7, 23204, Note_on_c, 1, 76, 0
7, 23205, Note_on_c, 1, 78, 76
7, 23219, Note_on_c, 1, 78, 0
7, 23220, Note_on_c, 1, 76, 76
7, 23249, Note_on_c, 1, 76, 0
7, 23250, Note_on_c, 1, 74, 76
7, 23279, Note_on_c, 1, 74, 0
7, 23280, Note_on_c, 1, 81, 76
7, 23451, Note_on_c, 1, 81, 0
7, 23460, Note_on_c, 1, 72, 76
7, 23511, Note_on_c, 1, 72, 0
7, 23520, Note_on_c, 1, 71, 76
7, 23691, Note_on_c, 1, 71, 0
7, 23700, Note_on_c, 1, 72, 76
7, 23719, Note_on_c, 1, 72, 0
7, 23720, Note_on_c, 1, 71, 76
7, 23739, Note_on_c, 1, 71, 0
7, 23740, Note_on_c, 1, 72, 76
7, 23759, Note_on_c, 1, 72, 0
7, 23760, Note_on_c, 1, 72, 76
7, 23774, Note_on_c, 1, 72, 0
7, 23775, Note_on_c, 1, 74, 76
7, 23789, Note_on_c, 1, 74, 0
7, 23790, Note_on_c, 1, 72, 76
7, 23804, Note_on_c, 1, 72, 0
7, 23805, Note_on_c, 1, 74, 76
7, 23819, Note_on_c, 1, 74, 0
7, 23820, Note_on_c, 1, 72, 76
7, 23834, Note_on_c, 1, 72, 0
7, 23835, Note_on_c, 1, 74, 76
7, 23849, Note_on_c, 1, 74, 0
7, 23850, Note_on_c, 1, 72, 76
7, 23864, Note_on_c, 1, 72, 0
7, 23865, Note_on_c, 1, 74, 76
7, 23879, Note_on_c, 1, 74, 0
7, 23880, Note_on_c, 1, 72, 76
7, 23894, Note_on_c, 1, 72, 0
7, 23895, Note_on_c, 1, 74, 76
7, 23909, Note_on_c, 1, 74, 0
7, 23910, Note_on_c, 1, 72, 76
7, 23924, Note_on_c, 1, 72, 0
7, 23925, Note_on_c, 1, 74, 76
7, 23939, Note_on_c, 1, 74, 0
7, 23940, Note_on_c, 1, 71, 76
7, 23969, Note_on_c, 1, 71, 0
7, 23970, Note_on_c, 1, 72, 76
7, 23999, Note_on_c, 1, 72, 0
7, 24000, Note_on_c, 1, 74, 76
7, 24171, Note_on_c, 1, 74, 0
7, 24180, Note_on_c, 1, 76, 76
7, 24231, Note_on_c, 1, 76, 0
7, 24240, Note_on_c, 1, 74, 76
7, 24269, Note_on_c, 1, 74, 0
7, 24270, Note_on_c, 1, 72, 76
7, 24299, Note_on_c, 1, 72, 0
7, 24300, Note_on_c, 1, 71, 76
7, 24329, Note_on_c, 1, 71, 0
7, 24330, Note_on_c, 1, 69, 76
7, 24359, Note_on_c, 1, 69, 0
7, 24360, Note_on_c, 1, 67, 76
7, 24389, Note_on_c, 1, 67, 0
7, 24390, Note_on_c, 1, 65, 76
7, 24419, Note_on_c, 1, 65, 0
7, 24435, Note_on_c, 1, 64, 76
7, 24480, Note_on_c, 1, 65, 76
7, 24486, Note_on_c, 1, 64, 0
7, 24831, Note_on_c, 1, 65, 0
7, 24840, Note_on_c, 1, 65, 76
7, 24951, Note_on_c, 1, 65, 0
7, 24960, Note_on_c, 1, 65, 76
7, 25131, Note_on_c, 1, 65, 0
7, 25140, Note_on_c, 1, 64, 76
7, 25169, Note_on_c, 1, 64, 0
7, 25170, Note_on_c, 1, 62, 76
7, 25199, Note_on_c, 1, 62, 0
7, 25200, Note_on_c, 1, 64, 76
7, 25371, Note_on_c, 1, 64, 0
7, 25380, Note_on_c, 1, 66, 76
7, 25431, Note_on_c, 1, 66, 0
7, 25440, Note_on_c, 1, 67, 76
7, 25791, Note_on_c, 1, 67, 0
7, 25800, Note_on_c, 1, 67, 76
7, 25911, Note_on_c, 1, 67, 0
7, 25920, Note_on_c, 1, 67, 76
7, 26091, Note_on_c, 1, 67, 0
7, 26100, Note_on_c, 1, 66, 76
7, 26129, Note_on_c, 1, 66, 0
7, 26130, Note_on_c, 1, 64, 76
7, 26159, Note_on_c, 1, 64, 0
7, 26160, Note_on_c, 1, 72, 76
7, 26331, Note_on_c, 1, 72, 0
7, 26340, Note_on_c, 1, 71, 76
7, 26369, Note_on_c, 1, 71, 0
7, 26370, Note_on_c, 1, 69, 76
7, 26399, Note_on_c, 1, 69, 0
7, 26400, Note_on_c, 1, 78, 76
7, 26571, Note_on_c, 1, 78, 0
7, 26580, Note_on_c, 1, 76, 76
7, 26609, Note_on_c, 1, 76, 0
7, 26610, Note_on_c, 1, 74, 76
7, 26639, Note_on_c, 1, 74, 0
7, 26640, Note_on_c, 1, 81, 76
7, 26811, Note_on_c, 1, 81, 0
7, 26820, Note_on_c, 1, 72, 76
7, 26871, Note_on_c, 1, 72, 0
7, 26880, Note_on_c, 1, 71, 76
7, 27171, Note_on_c, 1, 71, 0
7, 27180, Note_on_c, 1, 69, 76
7, 27231, Note_on_c, 1, 69, 0
7, 27240, Note_on_c, 1, 67, 76
7, 27291, Note_on_c, 1, 67, 0
7, 27300, Note_on_c, 1, 66, 76
7, 27351, Note_on_c, 1, 66, 0
7, 27360, Note_on_c, 1, 67, 76
7, 27411, Note_on_c, 1, 67, 0
7, 27420, Note_on_c, 1, 62, 76
7, 27471, Note_on_c, 1, 62, 0
7, 27480, Note_on_c, 1, 64, 76
7, 27531, Note_on_c, 1, 64, 0
7, 27540, Note_on_c, 1, 66, 76
7, 27591, Note_on_c, 1, 66, 0
7, 27600, Note_on_c, 1, 67, 76
7, 27651, Note_on_c, 1, 67, 0
7, 27660, Note_on_c, 1, 69, 76
7, 27711, Note_on_c, 1, 69, 0
7, 27720, Note_on_c, 1, 71, 76
7, 27771, Note_on_c, 1, 71, 0
7, 27780, Note_on_c, 1, 72, 76
7, 27831, Note_on_c, 1, 72, 0
7, 27840, Note_on_c, 1, 74, 76
7, 28131, Note_on_c, 1, 74, 0
7, 28140, Note_on_c, 1, 72, 76
7, 28191, Note_on_c, 1, 72, 0
7, 28200, Note_on_c, 1, 74, 76
7, 28251, Note_on_c, 1, 74, 0
7, 28260, Note_on_c, 1, 76, 76
7, 28311, Note_on_c, 1, 76, 0
7, 28320, Note_on_c, 1, 66, 76
7, 28334, Note_on_c, 1, 66, 0
7, 28335, Note_on_c, 1, 67, 76
7, 28349, Note_on_c, 1, 67, 0
7, 28350, Note_on_c, 1, 66, 76
7, 28364, Note_on_c, 1, 66, 0
7, 28365, Note_on_c, 1, 67, 76
7, 28379, Note_on_c, 1, 67, 0
7, 28380, Note_on_c, 1, 66, 76
7, 28394, Note_on_c, 1, 66, 0
7, 28395, Note_on_c, 1, 67, 76
7, 28409, Note_on_c, 1, 67, 0
7, 28410, Note_on_c, 1, 66, 76
7, 28424, Note_on_c, 1, 66, 0
7, 28425, Note_on_c, 1, 67, 76
7, 28439, Note_on_c, 1, 67, 0
7, 28440, Note_on_c, 1, 66, 76
7, 28454, Note_on_c, 1, 66, 0
7, 28455, Note_on_c, 1, 67, 76
7, 28469, Note_on_c, 1, 67, 0
7, 28470, Note_on_c, 1, 66, 76
7, 28484, Note_on_c, 1, 66, 0
7, 28485, Note_on_c, 1, 67, 76
7, 28499, Note_on_c, 1, 67, 0
7, 28500, Note_on_c, 1, 66, 76
7, 28514, Note_on_c, 1, 66, 0
7, 28515, Note_on_c, 1, 67, 76
7, 28529, Note_on_c, 1, 67, 0
7, 28530, Note_on_c, 1, 64, 76
7, 28544, Note_on_c, 1, 64, 0
7, 28545, Note_on_c, 1, 66, 76
7, 28604, Note_on_c, 1, 66, 0
7, 28620, Note_on_c, 1, 67, 76
7, 28671, Note_on_c, 1, 67, 0
7, 28680, Note_on_c, 1, 69, 76
7, 28731, Note_on_c, 1, 69, 0
7, 28740, Note_on_c, 1, 71, 76
7, 28791, Note_on_c, 1, 71, 0
7, 28800, Note_on_c, 1, 72, 76
7, 28971, Note_on_c, 1, 72, 0
7, 28980, Note_on_c, 1, 69, 76
7, 29031, Note_on_c, 1, 69, 0
7, 29040, Note_on_c, 1, 71, 76
7, 29211, Note_on_c, 1, 71, 0
7, 29220, Note_on_c, 1, 72, 76
7, 29271, Note_on_c, 1, 72, 0
7, 29280, Note_on_c, 1, 69, 76
7, 29631, Note_on_c, 1, 69, 0
7, 29640, Note_on_c, 1, 67, 76
7, 29751, Note_on_c, 1, 67, 0
7, 29760, Note_on_c, 1, 67, 76
7, 29864, Note_on_c, 1, 67, 0
7, 29880, Note_on_c, 1, 79, 76
7, 29984, Note_on_c, 1, 79, 0
7, 30000, Note_on_c, 1, 79, 76
7, 30104, Note_on_c, 1, 79, 0
7, 30120, Note_on_c, 1, 79, 76
7, 30224, Note_on_c, 1, 79, 0
7, 30240, Note_on_c, 1, 76, 76
7, 30344, Note_on_c, 1, 76, 0
7, 30360, Note_on_c, 1, 77, 76
7, 30404, Note_on_c, 1, 77, 0
7, 30420, Note_on_c, 1, 79, 76
7, 30464, Note_on_c, 1, 79, 0
7, 30480, Note_on_c, 1, 81, 76
7, 30584, Note_on_c, 1, 81, 0
7, 30600, Note_on_c, 1, 77, 76
7, 30704, Note_on_c, 1, 77, 0
7, 30720, Note_on_c, 1, 74, 76
7, 30824, Note_on_c, 1, 74, 0
7, 30840, Note_on_c, 1, 79, 76
7, 30944, Note_on_c, 1, 79, 0
7, 30960, Note_on_c, 1, 67, 76
7, 31064, Note_on_c, 1, 67, 0
7, 31080, Note_on_c, 1, 77, 76
7, 31184, Note_on_c, 1, 77, 0
7, 31200, Note_on_c, 1, 76, 76
7, 31244, Note_on_c, 1, 76, 0
7, 31260, Note_on_c, 1, 74, 76
7, 31304, Note_on_c, 1, 74, 0
7, 31320, Note_on_c, 1, 72, 76
7, 31364, Note_on_c, 1, 72, 0
7, 31380, Note_on_c, 1, 74, 76
7, 31424, Note_on_c, 1, 74, 0
7, 31440, Note_on_c, 1, 76, 76
7, 31484, Note_on_c, 1, 76, 0
7, 31500, Note_on_c, 1, 74, 76
7, 31544, Note_on_c, 1, 74, 0
7, 31560, Note_on_c, 1, 76, 76
7, 31604, Note_on_c, 1, 76, 0
7, 31620, Note_on_c, 1, 78, 76
7, 31664, Note_on_c, 1, 78, 0
7, 31680, Note_on_c, 1, 79, 76
7, 31844, Note_on_c, 1, 79, 0
7, 31860, Note_on_c, 1, 74, 76
7, 31904, Note_on_c, 1, 74, 0
7, 31920, Note_on_c, 1, 79, 76
7, 32084, Note_on_c, 1, 79, 0
7, 32100, Note_on_c, 1, 79, 76
7, 32144, Note_on_c, 1, 79, 0
7, 32160, Note_on_c, 1, 79, 76
7, 32324, Note_on_c, 1, 79, 0
7, 32340, Note_on_c, 1, 78, 76
7, 32359, Note_on_c, 1, 78, 0
7, 32360, Note_on_c, 1, 76, 76
7, 32379, Note_on_c, 1, 76, 0
7, 32380, Note_on_c, 1, 78, 76
7, 32399, Note_on_c, 1, 78, 0
7, 32400, Note_on_c, 1, 78, 76
7, 32564, Note_on_c, 1, 78, 0
7, 32580, Note_on_c, 1, 79, 76
7, 32624, Note_on_c, 1, 79, 0
7, 32640, Note_on_c, 1, 79, 76
7, 32744, Note_on_c, 1, 79, 0
7, 32760, Note_on_c, 1, 77, 76
7, 32804, Note_on_c, 1, 77, 0
7, 32820, Note_on_c, 1, 76, 76
7, 32864, Note_on_c, 1, 76, 0
7, 32880, Note_on_c, 1, 74, 76
7, 32924, Note_on_c, 1, 74, 0
7, 32940, Note_on_c, 1, 71, 76
7, 32984, Note_on_c, 1, 71, 0
7, 33000, Note_on_c, 1, 72, 76
7, 33044, Note_on_c, 1, 72, 0
7, 33060, Note_on_c, 1, 74, 76
7, 33104, Note_on_c, 1, 74, 0
7, 33120, Note_on_c, 1, 67, 76
7, 33224, Note_on_c, 1, 67, 0
7, 33240, Note_on_c, 1, 79, 76
7, 33344, Note_on_c, 1, 79, 0
7, 33360, Note_on_c, 1, 76, 76
7, 33464, Note_on_c, 1, 76, 0
7, 33480, Note_on_c, 1, 81, 76
7, 33584, Note_on_c, 1, 81, 0
7, 33600, Note_on_c, 1, 77, 76
7, 33644, Note_on_c, 1, 77, 0
7, 33660, Note_on_c, 1, 79, 76
7, 33704, Note_on_c, 1, 79, 0
7, 33720, Note_on_c, 1, 77, 76
7, 33764, Note_on_c, 1, 77, 0
7, 33780, Note_on_c, 1, 76, 76
7, 33824, Note_on_c, 1, 76, 0
7, 33840, Note_on_c, 1, 74, 76
7, 33884, Note_on_c, 1, 74, 0
7, 33900, Note_on_c, 1, 77, 76
7, 33944, Note_on_c, 1, 77, 0
7, 33960, Note_on_c, 1, 76, 76
7, 34004, Note_on_c, 1, 76, 0
7, 34020, Note_on_c, 1, 74, 76
7, 34064, Note_on_c, 1, 74, 0
7, 34080, Note_on_c, 1, 79, 76
7, 34124, Note_on_c, 1, 79, 0
7, 34140, Note_on_c, 1, 77, 76
7, 34184, Note_on_c, 1, 77, 0
7, 34200, Note_on_c, 1, 76, 76
7, 34244, Note_on_c, 1, 76, 0
7, 34260, Note_on_c, 1, 74, 76
7, 34304, Note_on_c, 1, 74, 0
7, 34320, Note_on_c, 1, 72, 76
7, 34364, Note_on_c, 1, 72, 0
7, 34380, Note_on_c, 1, 71, 76
7, 34424, Note_on_c, 1, 71, 0
7, 34440, Note_on_c, 1, 72, 76
7, 34484, Note_on_c, 1, 72, 0
7, 34500, Note_on_c, 1, 69, 76
7, 34544, Note_on_c, 1, 69, 0
7, 34560, Note_on_c, 1, 74, 76
7, 34664, Note_on_c, 1, 74, 0
7, 34680, Note_on_c, 1, 76, 76
7, 34724, Note_on_c, 1, 76, 0
7, 34740, Note_on_c, 1, 78, 76
7, 34784, Note_on_c, 1, 78, 0
7, 34800, Note_on_c, 1, 79, 76
7, 34904, Note_on_c, 1, 79, 0
7, 34920, Note_on_c, 1, 81, 76
7, 34964, Note_on_c, 1, 81, 0
7, 34980, Note_on_c, 1, 83, 76
7, 35024, Note_on_c, 1, 83, 0
7, 35040, Note_on_c, 1, 84, 76
7, 35204, Note_on_c, 1, 84, 0
7, 35220, Note_on_c, 1, 83, 76
7, 35264, Note_on_c, 1, 83, 0
7, 35280, Note_on_c, 1, 81, 76
7, 35309, Note_on_c, 1, 81, 0
7, 35310, Note_on_c, 1, 83, 76
7, 35339, Note_on_c, 1, 83, 0
7, 35340, Note_on_c, 1, 81, 76
7, 35369, Note_on_c, 1, 81, 0
7, 35370, Note_on_c, 1, 83, 76
7, 35399, Note_on_c, 1, 83, 0
7, 35400, Note_on_c, 1, 79, 76
7, 35429, Note_on_c, 1, 79, 0
7, 35430, Note_on_c, 1, 81, 76
7, 35459, Note_on_c, 1, 81, 0
7, 35460, Note_on_c, 1, 79, 76
7, 35504, Note_on_c, 1, 79, 0
7, 35520, Note_on_c, 1, 79, 76
7, 35624, Note_on_c, 1, 79, 0
7, 35640, Note_on_c, 1, 77, 76
7, 35684, Note_on_c, 1, 77, 0
7, 35700, Note_on_c, 1, 76, 76
7, 35744, Note_on_c, 1, 76, 0
7, 35760, Note_on_c, 1, 74, 76
7, 35804, Note_on_c, 1, 74, 0
7, 35820, Note_on_c, 1, 76, 76
7, 35864, Note_on_c, 1, 76, 0
7, 35880, Note_on_c, 1, 77, 76
7, 35924, Note_on_c, 1, 77, 0
7, 35940, Note_on_c, 1, 74, 76
7, 35984, Note_on_c, 1, 74, 0
7, 36000, Note_on_c, 1, 76, 76
7, 36044, Note_on_c, 1, 76, 0
7, 36060, Note_on_c, 1, 79, 76
7, 36104, Note_on_c, 1, 79, 0
7, 36120, Note_on_c, 1, 77, 76
7, 36164, Note_on_c, 1, 77, 0
7, 36180, Note_on_c, 1, 79, 76
7, 36224, Note_on_c, 1, 79, 0
7, 36240, Note_on_c, 1, 81, 76
7, 36284, Note_on_c, 1, 81, 0
7, 36300, Note_on_c, 1, 79, 76
7, 36344, Note_on_c, 1, 79, 0
7, 36360, Note_on_c, 1, 77, 76
7, 36404, Note_on_c, 1, 77, 0
7, 36420, Note_on_c, 1, 76, 76
7, 36464, Note_on_c, 1, 76, 0
7, 36480, Note_on_c, 1, 74, 76
7, 36524, Note_on_c, 1, 74, 0
7, 36540, Note_on_c, 1, 77, 76
7, 36584, Note_on_c, 1, 77, 0
7, 36600, Note_on_c, 1, 76, 76
7, 36644, Note_on_c, 1, 76, 0
7, 36660, Note_on_c, 1, 77, 76
7, 36704, Note_on_c, 1, 77, 0
7, 36720, Note_on_c, 1, 79, 76
7, 36764, Note_on_c, 1, 79, 0
7, 36780, Note_on_c, 1, 77, 76
7, 36824, Note_on_c, 1, 77, 0
7, 36840, Note_on_c, 1, 76, 76
7, 36884, Note_on_c, 1, 76, 0
7, 36900, Note_on_c, 1, 74, 76
7, 36944, Note_on_c, 1, 74, 0
7, 36960, Note_on_c, 1, 72, 76
7, 37004, Note_on_c, 1, 72, 0
7, 37020, Note_on_c, 1, 76, 76
7, 37064, Note_on_c, 1, 76, 0
7, 37080, Note_on_c, 1, 74, 76
7, 37124, Note_on_c, 1, 74, 0
7, 37140, Note_on_c, 1, 76, 76
7, 37184, Note_on_c, 1, 76, 0
7, 37200, Note_on_c, 1, 77, 76
7, 37244, Note_on_c, 1, 77, 0
7, 37260, Note_on_c, 1, 76, 76
7, 37304, Note_on_c, 1, 76, 0
7, 37320, Note_on_c, 1, 74, 76
7, 37364, Note_on_c, 1, 74, 0
7, 37380, Note_on_c, 1, 72, 76
7, 37424, Note_on_c, 1, 72, 0
7, 37440, Note_on_c, 1, 71, 76
7, 37484, Note_on_c, 1, 71, 0
7, 37500, Note_on_c, 1, 74, 76
7, 37544, Note_on_c, 1, 74, 0
7, 37560, Note_on_c, 1, 72, 76
7, 37604, Note_on_c, 1, 72, 0
7, 37620, Note_on_c, 1, 74, 76
7, 37664, Note_on_c, 1, 74, 0
7, 37680, Note_on_c, 1, 76, 76
7, 37724, Note_on_c, 1, 76, 0
7, 37740, Note_on_c, 1, 74, 76
7, 37784, Note_on_c, 1, 74, 0
7, 37800, Note_on_c, 1, 72, 76
7, 37844, Note_on_c, 1, 72, 0
7, 37860, Note_on_c, 1, 71, 76
7, 37904, Note_on_c, 1, 71, 0
7, 37920, Note_on_c, 1, 69, 76
7, 37964, Note_on_c, 1, 69, 0
7, 37980, Note_on_c, 1, 72, 76
7, 38024, Note_on_c, 1, 72, 0
7, 38040, Note_on_c, 1, 71, 76
7, 38084, Note_on_c, 1, 71, 0
7, 38100, Note_on_c, 1, 72, 76
7, 38144, Note_on_c, 1, 72, 0
7, 38160, Note_on_c, 1, 74, 76
7, 38204, Note_on_c, 1, 74, 0
7, 38220, Note_on_c, 1, 72, 76
7, 38264, Note_on_c, 1, 72, 0
7, 38280, Note_on_c, 1, 71, 76
7, 38324, Note_on_c, 1, 71, 0
7, 38340, Note_on_c, 1, 69, 76
7, 38384, Note_on_c, 1, 69, 0
7, 38400, Note_on_c, 1, 71, 76
7, 38504, Note_on_c, 1, 71, 0
7, 38520, Note_on_c, 1, 79, 76
7, 38624, Note_on_c, 1, 79, 0
7, 38640, Note_on_c, 1, 79, 76
7, 38744, Note_on_c, 1, 79, 0
7, 38760, Note_on_c, 1, 79, 76
7, 38864, Note_on_c, 1, 79, 0
7, 38880, Note_on_c, 1, 76, 76
7, 38984, Note_on_c, 1, 76, 0
7, 39000, Note_on_c, 1, 77, 76
7, 39044, Note_on_c, 1, 77, 0
7, 39060, Note_on_c, 1, 79, 76
7, 39104, Note_on_c, 1, 79, 0
7, 39120, Note_on_c, 1, 81, 76
7, 39224, Note_on_c, 1, 81, 0
7, 39240, Note_on_c, 1, 77, 76
7, 39344, Note_on_c, 1, 77, 0
7, 39360, Note_on_c, 1, 74, 76
7, 39464, Note_on_c, 1, 74, 0
7, 39480, Note_on_c, 1, 79, 76
7, 39584, Note_on_c, 1, 79, 0
7, 39600, Note_on_c, 1, 67, 76
7, 39704, Note_on_c, 1, 67, 0
7, 39720, Note_on_c, 1, 77, 76
7, 39824, Note_on_c, 1, 77, 0
7, 39840, Note_on_c, 1, 76, 76
7, 40004, Note_on_c, 1, 76, 0
7, 40020, Note_on_c, 1, 74, 76
7, 40064, Note_on_c, 1, 74, 0
7, 40080, Note_on_c, 1, 74, 76
7, 40244, Note_on_c, 1, 74, 0
7, 40260, Note_on_c, 1, 72, 76
7, 40304, Note_on_c, 1, 72, 0
7, 40320, Note_on_c, 1, 72, 76
7, 40424, Note_on_c, 1, 72, 0
7, 40440, Note_on_c, 1, 76, 76
7, 40544, Note_on_c, 1, 76, 0
7, 40560, Note_on_c, 1, 76, 76
7, 40664, Note_on_c, 1, 76, 0
7, 40680, Note_on_c, 1, 76, 76
7, 40784, Note_on_c, 1, 76, 0
7, 40800, Note_on_c, 1, 72, 76
7, 40904, Note_on_c, 1, 72, 0
7, 40920, Note_on_c, 1, 74, 76
7, 40964, Note_on_c, 1, 74, 0
7, 40980, Note_on_c, 1, 76, 76
7, 41024, Note_on_c, 1, 76, 0
7, 41040, Note_on_c, 1, 77, 76
7, 41144, Note_on_c, 1, 77, 0
7, 41160, Note_on_c, 1, 74, 76
7, 41264, Note_on_c, 1, 74, 0
7, 41280, Note_on_c, 1, 71, 76
7, 41384, Note_on_c, 1, 71, 0
7, 41400, Note_on_c, 1, 76, 76
7, 41504, Note_on_c, 1, 76, 0
7, 41520, Note_on_c, 1, 64, 76
7, 41624, Note_on_c, 1, 64, 0
7, 41640, Note_on_c, 1, 74, 76
7, 41744, Note_on_c, 1, 74, 0
7, 41760, Note_on_c, 1, 72, 76
7, 41984, Note_on_c, 1, 72, 0
7, 42480, Note_on_c, 1, 81, 76
7, 42944, Note_on_c, 1, 81, 0
7, 42960, Note_on_c, 1, 80, 76
7, 43184, Note_on_c, 1, 80, 0
7, 43200, Note_on_c, 1, 81, 76
7, 43424, Note_on_c, 1, 81, 0
7, 43440, Note_on_c, 1, 77, 76
7, 43904, Note_on_c, 1, 77, 0
7, 43920, Note_on_c, 1, 76, 76
7, 44384, Note_on_c, 1, 76, 0
7, 44400, Note_on_c, 1, 74, 76
7, 44864, Note_on_c, 1, 74, 0
7, 44880, Note_on_c, 1, 72, 76
7, 44984, Note_on_c, 1, 72, 0
7, 45000, Note_on_c, 1, 71, 76
7, 45104, Note_on_c, 1, 71, 0
7, 45120, Note_on_c, 1, 69, 76
7, 45344, Note_on_c, 1, 69, 0
7, 45360, Note_on_c, 1, 68, 76
7, 45584, Note_on_c, 1, 68, 0
7, 45600, Note_on_c, 1, 69, 76
7, 45644, Note_on_c, 1, 69, 0
7, 45660, Note_on_c, 1, 72, 76
7, 45704, Note_on_c, 1, 72, 0
7, 45720, Note_on_c, 1, 74, 76
7, 45764, Note_on_c, 1, 74, 0
7, 45780, Note_on_c, 1, 76, 76
7, 45824, Note_on_c, 1, 76, 0
7, 45840, Note_on_c, 1, 77, 76
7, 45944, Note_on_c, 1, 77, 0
7, 45960, Note_on_c, 1, 74, 76
7, 46064, Note_on_c, 1, 74, 0
7, 46080, Note_on_c, 1, 71, 76
7, 46184, Note_on_c, 1, 71, 0
7, 46200, Note_on_c, 1, 76, 76
7, 46304, Note_on_c, 1, 76, 0
7, 46320, Note_on_c, 1, 64, 76
7, 46424, Note_on_c, 1, 64, 0
7, 46440, Note_on_c, 1, 76, 76
7, 46544, Note_on_c, 1, 76, 0
7, 46560, Note_on_c, 1, 69, 76
7, 46664, Note_on_c, 1, 69, 0
7, 46680, Note_on_c, 1, 71, 76
7, 46724, Note_on_c, 1, 71, 0
7, 46740, Note_on_c, 1, 72, 76
7, 46784, Note_on_c, 1, 72, 0
7, 46800, Note_on_c, 1, 74, 76
7, 47084, Note_on_c, 1, 74, 0
7, 47100, Note_on_c, 1, 77, 76
7, 47144, Note_on_c, 1, 77, 0
7, 47160, Note_on_c, 1, 76, 76
7, 47204, Note_on_c, 1, 76, 0
7, 47220, Note_on_c, 1, 74, 76
7, 47264, Note_on_c, 1, 74, 0
7, 47280, Note_on_c, 1, 72, 76
7, 47324, Note_on_c, 1, 72, 0
7, 47340, Note_on_c, 1, 71, 76
7, 47384, Note_on_c, 1, 71, 0
7, 47400, Note_on_c, 1, 72, 76
7, 47444, Note_on_c, 1, 72, 0
7, 47460, Note_on_c, 1, 69, 76
7, 47504, Note_on_c, 1, 69, 0
7, 47520, Note_on_c, 1, 81, 76
7, 47684, Note_on_c, 1, 81, 0
7, 47700, Note_on_c, 1, 83, 76
7, 47744, Note_on_c, 1, 83, 0
7, 47760, Note_on_c, 1, 80, 76
7, 47924, Note_on_c, 1, 80, 0
7, 47940, Note_on_c, 1, 81, 76
7, 47984, Note_on_c, 1, 81, 0
7, 48000, Note_on_c, 1, 81, 76
7, 48044, Note_on_c, 1, 81, 0
7, 48060, Note_on_c, 1, 83, 76
7, 48104, Note_on_c, 1, 83, 0
7, 48120, Note_on_c, 1, 84, 76
7, 48164, Note_on_c, 1, 84, 0
7, 48180, Note_on_c, 1, 83, 76
7, 48224, Note_on_c, 1, 83, 0
7, 48240, Note_on_c, 1, 81, 76
7, 48284, Note_on_c, 1, 81, 0
7, 48300, Note_on_c, 1, 79, 76
7, 48344, Note_on_c, 1, 79, 0
7, 48360, Note_on_c, 1, 81, 76
7, 48404, Note_on_c, 1, 81, 0
7, 48420, Note_on_c, 1, 78, 76
7, 48464, Note_on_c, 1, 78, 0
7, 48480, Note_on_c, 1, 83, 76
7, 48584, Note_on_c, 1, 83, 0
7, 48600, Note_on_c, 1, 71, 76
7, 48704, Note_on_c, 1, 71, 0
7, 48720, Note_on_c, 1, 76, 76
7, 48884, Note_on_c, 1, 76, 0
7, 48900, Note_on_c, 1, 76, 76
7, 48944, Note_on_c, 1, 76, 0
7, 48960, Note_on_c, 1, 76, 76
7, 49004, Note_on_c, 1, 76, 0
7, 49020, Note_on_c, 1, 79, 76
7, 49064, Note_on_c, 1, 79, 0
7, 49080, Note_on_c, 1, 78, 76
7, 49124, Note_on_c, 1, 78, 0
7, 49140, Note_on_c, 1, 76, 76
7, 49184, Note_on_c, 1, 76, 0
7, 49200, Note_on_c, 1, 75, 76
7, 49244, Note_on_c, 1, 75, 0
7, 49260, Note_on_c, 1, 73, 76
7, 49304, Note_on_c, 1, 73, 0
7, 49320, Note_on_c, 1, 75, 76
7, 49364, Note_on_c, 1, 75, 0
7, 49380, Note_on_c, 1, 71, 76
7, 49424, Note_on_c, 1, 71, 0
7, 49440, Note_on_c, 1, 83, 76
7, 49484, Note_on_c, 1, 83, 0
7, 49500, Note_on_c, 1, 81, 76
7, 49544, Note_on_c, 1, 81, 0
7, 49560, Note_on_c, 1, 79, 76
7, 49604, Note_on_c, 1, 79, 0
7, 49620, Note_on_c, 1, 78, 76
7, 49664, Note_on_c, 1, 78, 0
7, 49680, Note_on_c, 1, 76, 76
7, 49724, Note_on_c, 1, 76, 0
7, 49740, Note_on_c, 1, 74, 76
7, 49784, Note_on_c, 1, 74, 0
7, 49800, Note_on_c, 1, 72, 76
7, 49844, Note_on_c, 1, 72, 0
7, 49860, Note_on_c, 1, 71, 76
7, 49904, Note_on_c, 1, 71, 0
7, 49920, Note_on_c, 1, 69, 76
7, 49964, Note_on_c, 1, 69, 0
7, 49980, Note_on_c, 1, 72, 76
7, 50024, Note_on_c, 1, 72, 0
7, 50040, Note_on_c, 1, 74, 76
7, 50084, Note_on_c, 1, 74, 0
7, 50100, Note_on_c, 1, 76, 76
7, 50144, Note_on_c, 1, 76, 0
7, 50160, Note_on_c, 1, 74, 76
7, 50204, Note_on_c, 1, 74, 0
7, 50220, Note_on_c, 1, 72, 76
7, 50264, Note_on_c, 1, 72, 0
7, 50280, Note_on_c, 1, 71, 76
7, 50324, Note_on_c, 1, 71, 0
7, 50340, Note_on_c, 1, 69, 76
7, 50384, Note_on_c, 1, 69, 0
7, 50400, Note_on_c, 1, 74, 76
7, 50564, Note_on_c, 1, 74, 0
7, 50580, Note_on_c, 1, 76, 76
7, 50624, Note_on_c, 1, 76, 0
7, 50640, Note_on_c, 1, 72, 76
7, 50804, Note_on_c, 1, 72, 0
7, 50820, Note_on_c, 1, 71, 76
7, 50864, Note_on_c, 1, 71, 0
7, 50880, Note_on_c, 1, 72, 76
7, 51044, Note_on_c, 1, 72, 0
7, 51060, Note_on_c, 1, 74, 76
7, 51104, Note_on_c, 1, 74, 0
7, 51120, Note_on_c, 1, 71, 76
7, 51284, Note_on_c, 1, 71, 0
7, 51300, Note_on_c, 1, 69, 76
7, 51344, Note_on_c, 1, 69, 0
7, 51360, Note_on_c, 1, 69, 76
7, 51404, Note_on_c, 1, 69, 0
7, 51420, Note_on_c, 1, 76, 76
7, 51464, Note_on_c, 1, 76, 0
7, 51480, Note_on_c, 1, 78, 76
7, 51524, Note_on_c, 1, 78, 0
7, 51540, Note_on_c, 1, 80, 76
7, 51584, Note_on_c, 1, 80, 0
7, 51600, Note_on_c, 1, 81, 76
7, 51884, Note_on_c, 1, 81, 0
7, 51900, Note_on_c, 1, 84, 76
7, 51944, Note_on_c, 1, 84, 0
7, 51960, Note_on_c, 1, 83, 76
7, 52004, Note_on_c, 1, 83, 0
7, 52020, Note_on_c, 1, 81, 76
7, 52064, Note_on_c, 1, 81, 0
7, 52080, Note_on_c, 1, 80, 76
7, 52124, Note_on_c, 1, 80, 0
7, 52140, Note_on_c, 1, 81, 76
7, 52184, Note_on_c, 1, 81, 0
7, 52200, Note_on_c, 1, 83, 76
7, 52244, Note_on_c, 1, 83, 0
7, 52260, Note_on_c, 1, 80, 76
7, 52304, Note_on_c, 1, 80, 0
7, 52320, Note_on_c, 1, 76, 76
7, 52424, Note_on_c, 1, 76, 0
7, 52440, Note_on_c, 1, 76, 76
7, 52544, Note_on_c, 1, 76, 0
7, 52560, Note_on_c, 1, 76, 76
7, 52664, Note_on_c, 1, 76, 0
7, 52680, Note_on_c, 1, 76, 76
7, 52784, Note_on_c, 1, 76, 0
7, 52800, Note_on_c, 1, 72, 76
7, 52904, Note_on_c, 1, 72, 0
7, 52920, Note_on_c, 1, 74, 76
7, 52964, Note_on_c, 1, 74, 0
7, 52980, Note_on_c, 1, 76, 76
7, 53024, Note_on_c, 1, 76, 0
7, 53040, Note_on_c, 1, 77, 76
7, 53144, Note_on_c, 1, 77, 0
7, 53160, Note_on_c, 1, 74, 76
7, 53264, Note_on_c, 1, 74, 0
7, 53280, Note_on_c, 1, 71, 76
7, 53384, Note_on_c, 1, 71, 0
7, 53400, Note_on_c, 1, 76, 76
7, 53504, Note_on_c, 1, 76, 0
7, 53520, Note_on_c, 1, 64, 76
7, 53624, Note_on_c, 1, 64, 0
7, 53640, Note_on_c, 1, 74, 76
7, 53744, Note_on_c, 1, 74, 0
7, 53760, Note_on_c, 1, 72, 76
7, 53924, Note_on_c, 1, 72, 0
7, 53940, Note_on_c, 1, 71, 76
7, 53984, Note_on_c, 1, 71, 0
7, 54000, Note_on_c, 1, 71, 76
7, 54164, Note_on_c, 1, 71, 0
7, 54180, Note_on_c, 1, 69, 76
7, 54224, Note_on_c, 1, 69, 0
7, 54240, Note_on_c, 1, 69, 76
7, 54284, Note_on_c, 1, 69, 0
7, 54300, Note_on_c, 1, 77, 76
7, 54344, Note_on_c, 1, 77, 0
7, 54360, Note_on_c, 1, 76, 76
7, 54404, Note_on_c, 1, 76, 0
7, 54420, Note_on_c, 1, 74, 76
7, 54464, Note_on_c, 1, 74, 0
7, 54480, Note_on_c, 1, 72, 76
7, 54524, Note_on_c, 1, 72, 0
7, 54540, Note_on_c, 1, 71, 76
7, 54584, Note_on_c, 1, 71, 0
7, 54600, Note_on_c, 1, 72, 76
7, 54644, Note_on_c, 1, 72, 0
7, 54660, Note_on_c, 1, 69, 76
7, 54704, Note_on_c, 1, 69, 0
7, 54720, Note_on_c, 1, 76, 76
7, 55424, Note_on_c, 1, 76, 0
7, 55440, Note_on_c, 1, 75, 76
7, 55664, Note_on_c, 1, 75, 0
7, 55680, Note_on_c, 1, 76, 76
7, 56204, Note_on_c, 1, 76, 0
7, 56220, Note_on_c, 1, 77, 76
7, 56264, Note_on_c, 1, 77, 0
7, 56280, Note_on_c, 1, 76, 76
7, 56324, Note_on_c, 1, 76, 0
7, 56340, Note_on_c, 1, 74, 76
7, 56384, Note_on_c, 1, 74, 0
7, 56400, Note_on_c, 1, 73, 76
7, 56444, Note_on_c, 1, 73, 0
7, 56460, Note_on_c, 1, 71, 76
7, 56504, Note_on_c, 1, 71, 0
7, 56520, Note_on_c, 1, 73, 76
7, 56564, Note_on_c, 1, 73, 0
7, 56580, Note_on_c, 1, 69, 76
7, 56624, Note_on_c, 1, 69, 0
7, 56640, Note_on_c, 1, 74, 76
7, 57344, Note_on_c, 1, 74, 0
7, 57360, Note_on_c, 1, 73, 76
7, 57584, Note_on_c, 1, 73, 0
7, 57600, Note_on_c, 1, 74, 76
7, 58124, Note_on_c, 1, 74, 0
7, 58140, Note_on_c, 1, 76, 76
7, 58184, Note_on_c, 1, 76, 0
7, 58200, Note_on_c, 1, 74, 76
7, 58244, Note_on_c, 1, 74, 0
7, 58260, Note_on_c, 1, 72, 76
7, 58304, Note_on_c, 1, 72, 0
7, 58320, Note_on_c, 1, 71, 76
7, 58364, Note_on_c, 1, 71, 0
7, 58380, Note_on_c, 1, 69, 76
7, 58424, Note_on_c, 1, 69, 0
7, 58440, Note_on_c, 1, 71, 76
7, 58484, Note_on_c, 1, 71, 0
7, 58500, Note_on_c, 1, 67, 76
7, 58544, Note_on_c, 1, 67, 0
7, 58560, Note_on_c, 1, 72, 76
7, 59264, Note_on_c, 1, 72, 0
7, 59280, Note_on_c, 1, 71, 76
7, 59504, Note_on_c, 1, 71, 0
7, 59520, Note_on_c, 1, 72, 76
7, 59564, Note_on_c, 1, 72, 0
7, 59580, Note_on_c, 1, 71, 76
7, 59624, Note_on_c, 1, 71, 0
7, 59640, Note_on_c, 1, 72, 76
7, 59684, Note_on_c, 1, 72, 0
7, 59700, Note_on_c, 1, 74, 76
7, 59744, Note_on_c, 1, 74, 0
7, 59760, Note_on_c, 1, 76, 76
7, 59804, Note_on_c, 1, 76, 0
7, 59820, Note_on_c, 1, 74, 76
7, 59864, Note_on_c, 1, 74, 0
7, 59880, Note_on_c, 1, 76, 76
7, 59924, Note_on_c, 1, 76, 0
7, 59940, Note_on_c, 1, 78, 76
7, 59984, Note_on_c, 1, 78, 0
7, 60000, Note_on_c, 1, 79, 76
7, 60164, Note_on_c, 1, 79, 0
7, 60180, Note_on_c, 1, 74, 76
7, 60224, Note_on_c, 1, 74, 0
7, 60240, Note_on_c, 1, 79, 76
7, 60404, Note_on_c, 1, 79, 0
7, 60420, Note_on_c, 1, 79, 76
7, 60464, Note_on_c, 1, 79, 0
7, 60480, Note_on_c, 1, 79, 76
7, 60644, Note_on_c, 1, 79, 0
7, 60660, Note_on_c, 1, 78, 76
7, 60679, Note_on_c, 1, 78, 0
7, 60680, Note_on_c, 1, 76, 76
7, 60699, Note_on_c, 1, 76, 0
7, 60700, Note_on_c, 1, 78, 76
7, 60719, Note_on_c, 1, 78, 0
7, 60720, Note_on_c, 1, 78, 76
7, 60749, Note_on_c, 1, 78, 0
7, 60750, Note_on_c, 1, 79, 76
7, 60779, Note_on_c, 1, 79, 0
7, 60780, Note_on_c, 1, 78, 76
7, 60809, Note_on_c, 1, 78, 0
7, 60810, Note_on_c, 1, 79, 76
7, 60839, Note_on_c, 1, 79, 0
7, 60840, Note_on_c, 1, 76, 76
7, 60869, Note_on_c, 1, 76, 0
7, 60870, Note_on_c, 1, 78, 76
7, 60899, Note_on_c, 1, 78, 0
7, 60900, Note_on_c, 1, 79, 76
7, 60944, Note_on_c, 1, 79, 0
7, 60960, Note_on_c, 1, 79, 76
7, 61199, Note_on_c, 1, 79, 0
7, 61320, Note_on_c, 1, 76, 76
7, 61484, Note_on_c, 1, 76, 0
7, 61500, Note_on_c, 1, 79, 76
7, 61544, Note_on_c, 1, 79, 0
7, 61560, Note_on_c, 1, 78, 76
7, 61604, Note_on_c, 1, 78, 0
7, 61620, Note_on_c, 1, 76, 76
7, 61664, Note_on_c, 1, 76, 0
7, 61680, Note_on_c, 1, 74, 76
7, 61724, Note_on_c, 1, 74, 0
7, 61740, Note_on_c, 1, 72, 76
7, 61784, Note_on_c, 1, 72, 0
7, 61800, Note_on_c, 1, 71, 76
7, 61844, Note_on_c, 1, 71, 0
7, 61860, Note_on_c, 1, 69, 76
7, 61904, Note_on_c, 1, 69, 0
7, 61920, Note_on_c, 1, 67, 76
7, 61964, Note_on_c, 1, 67, 0
7, 61980, Note_on_c, 1, 71, 76
7, 62024, Note_on_c, 1, 71, 0
7, 62040, Note_on_c, 1, 69, 76
7, 62084, Note_on_c, 1, 69, 0
7, 62100, Note_on_c, 1, 67, 76
7, 62144, Note_on_c, 1, 67, 0
7, 62160, Note_on_c, 1, 72, 76
7, 62204, Note_on_c, 1, 72, 0
7, 62220, Note_on_c, 1, 76, 76
7, 62264, Note_on_c, 1, 76, 0
7, 62280, Note_on_c, 1, 74, 76
7, 62324, Note_on_c, 1, 74, 0
7, 62340, Note_on_c, 1, 72, 76
7, 62384, Note_on_c, 1, 72, 0
7, 62400, Note_on_c, 1, 81, 76
7, 62504, Note_on_c, 1, 81, 0
7, 62520, Note_on_c, 1, 74, 76
7, 62624, Note_on_c, 1, 74, 0
7, 62640, Note_on_c, 1, 79, 76
7, 62804, Note_on_c, 1, 79, 0
7, 62820, Note_on_c, 1, 79, 76
7, 62864, Note_on_c, 1, 79, 0
7, 62880, Note_on_c, 1, 79, 76
7, 62924, Note_on_c, 1, 79, 0
7, 62940, Note_on_c, 1, 78, 76
7, 62984, Note_on_c, 1, 78, 0
7, 63000, Note_on_c, 1, 79, 76
7, 63044, Note_on_c, 1, 79, 0
7, 63060, Note_on_c, 1, 76, 76
7, 63104, Note_on_c, 1, 76, 0
7, 63120, Note_on_c, 1, 78, 76
7, 63284, Note_on_c, 1, 78, 0
7, 63300, Note_on_c, 1, 78, 76
7, 63344, Note_on_c, 1, 78, 0
7, 63360, Note_on_c, 1, 78, 76
7, 63464, Note_on_c, 1, 78, 0
7, 63480, Note_on_c, 1, 71, 76
7, 63584, Note_on_c, 1, 71, 0
7, 63600, Note_on_c, 1, 76, 76
7, 63764, Note_on_c, 1, 76, 0
7, 63780, Note_on_c, 1, 76, 76
7, 63824, Note_on_c, 1, 76, 0
7, 63840, Note_on_c, 1, 76, 76
7, 63884, Note_on_c, 1, 76, 0
7, 63900, Note_on_c, 1, 74, 76
7, 63944, Note_on_c, 1, 74, 0
7, 63960, Note_on_c, 1, 76, 76
7, 64004, Note_on_c, 1, 76, 0
7, 64020, Note_on_c, 1, 72, 76
7, 64064, Note_on_c, 1, 72, 0
7, 64080, Note_on_c, 1, 74, 76
7, 64244, Note_on_c, 1, 74, 0
7, 64260, Note_on_c, 1, 74, 76
7, 64304, Note_on_c, 1, 74, 0
7, 64320, Note_on_c, 1, 74, 76
7, 64424, Note_on_c, 1, 74, 0
7, 64440, Note_on_c, 1, 67, 76
7, 64544, Note_on_c, 1, 67, 0
7, 64560, Note_on_c, 1, 72, 76
7, 64724, Note_on_c, 1, 72, 0
7, 64740, Note_on_c, 1, 72, 76
7, 64784, Note_on_c, 1, 72, 0
7, 64800, Note_on_c, 1, 72, 76
7, 64844, Note_on_c, 1, 72, 0
7, 64860, Note_on_c, 1, 76, 76
7, 64904, Note_on_c, 1, 76, 0
7, 64920, Note_on_c, 1, 74, 76
7, 64964, Note_on_c, 1, 74, 0
7, 64980, Note_on_c, 1, 72, 76
7, 65024, Note_on_c, 1, 72, 0
7, 65040, Note_on_c, 1, 71, 76
7, 65084, Note_on_c, 1, 71, 0
7, 65100, Note_on_c, 1, 69, 76
7, 65144, Note_on_c, 1, 69, 0
7, 65160, Note_on_c, 1, 67, 76
7, 65204, Note_on_c, 1, 67, 0
7, 65220, Note_on_c, 1, 66, 76
7, 65264, Note_on_c, 1, 66, 0
7, 65280, Note_on_c, 1, 67, 76
7, 65324, Note_on_c, 1, 67, 0
7, 65340, Note_on_c, 1, 71, 76
7, 65384, Note_on_c, 1, 71, 0
7, 65400, Note_on_c, 1, 76, 76
7, 65444, Note_on_c, 1, 76, 0
7, 65460, Note_on_c, 1, 74, 76
7, 65504, Note_on_c, 1, 74, 0
7, 65520, Note_on_c, 1, 72, 76
7, 65564, Note_on_c, 1, 72, 0
7, 65580, Note_on_c, 1, 71, 76
7, 65624, Note_on_c, 1, 71, 0
7, 65640, Note_on_c, 1, 69, 76
7, 65684, Note_on_c, 1, 69, 0
7, 65700, Note_on_c, 1, 67, 76
7, 65744, Note_on_c, 1, 67, 0
7, 65760, Note_on_c, 1, 78, 76
7, 65804, Note_on_c, 1, 78, 0
7, 65820, Note_on_c, 1, 76, 76
7, 65864, Note_on_c, 1, 76, 0
7, 65880, Note_on_c, 1, 74, 76
7, 65924, Note_on_c, 1, 74, 0
7, 65940, Note_on_c, 1, 76, 76
7, 65984, Note_on_c, 1, 76, 0
7, 66000, Note_on_c, 1, 78, 76
7, 66044, Note_on_c, 1, 78, 0
7, 66060, Note_on_c, 1, 76, 76
7, 66104, Note_on_c, 1, 76, 0
7, 66120, Note_on_c, 1, 78, 76
7, 66164, Note_on_c, 1, 78, 0
7, 66180, Note_on_c, 1, 74, 76
7, 66224, Note_on_c, 1, 74, 0
7, 66240, Note_on_c, 1, 79, 76
7, 66404, Note_on_c, 1, 79, 0
7, 66420, Note_on_c, 1, 81, 76
7, 66464, Note_on_c, 1, 81, 0
7, 66480, Note_on_c, 1, 78, 76
7, 66644, Note_on_c, 1, 78, 0
7, 66660, Note_on_c, 1, 79, 76
7, 66704, Note_on_c, 1, 79, 0
7, 66720, Note_on_c, 1, 79, 76
7, 66824, Note_on_c, 1, 79, 0
7, 66840, Note_on_c, 1, 74, 76
7, 66944, Note_on_c, 1, 74, 0
7, 66960, Note_on_c, 1, 74, 76
7, 67064, Note_on_c, 1, 74, 0
7, 67080, Note_on_c, 1, 74, 76
7, 67184, Note_on_c, 1, 74, 0
7, 67200, Note_on_c, 1, 71, 76
7, 67304, Note_on_c, 1, 71, 0
7, 67320, Note_on_c, 1, 72, 76
7, 67364, Note_on_c, 1, 72, 0
7, 67380, Note_on_c, 1, 74, 76
7, 67424, Note_on_c, 1, 74, 0
7, 67440, Note_on_c, 1, 76, 76
7, 67544, Note_on_c, 1, 76, 0
7, 67560, Note_on_c, 1, 72, 76
7, 67664, Note_on_c, 1, 72, 0
7, 67680, Note_on_c, 1, 69, 76
7, 67784, Note_on_c, 1, 69, 0
7, 67800, Note_on_c, 1, 74, 76
7, 67904, Note_on_c, 1, 74, 0
7, 67920, Note_on_c, 1, 62, 76
7, 68024, Note_on_c, 1, 62, 0
7, 68040, Note_on_c, 1, 72, 76
7, 68144, Note_on_c, 1, 72, 0
7, 68160, Note_on_c, 1, 71, 76
7, 68399, Note_on_c, 1, 71, 0
7, 68880, Note_on_c, 1, 79, 76
7, 69344, Note_on_c, 1, 79, 0
7, 69360, Note_on_c, 1, 78, 76
7, 69584, Note_on_c, 1, 78, 0
7, 69600, Note_on_c, 1, 79, 76
7, 69644, Note_on_c, 1, 79, 0
7, 69660, Note_on_c, 1, 83, 76
7, 69704, Note_on_c, 1, 83, 0
7, 69720, Note_on_c, 1, 81, 76
7, 69764, Note_on_c, 1, 81, 0
7, 69780, Note_on_c, 1, 79, 76
7, 69824, Note_on_c, 1, 79, 0
7, 69840, Note_on_c, 1, 78, 76
7, 69884, Note_on_c, 1, 78, 0
7, 69900, Note_on_c, 1, 76, 76
7, 69944, Note_on_c, 1, 76, 0
7, 69960, Note_on_c, 1, 78, 76
7, 70004, Note_on_c, 1, 78, 0
7, 70020, Note_on_c, 1, 74, 76
7, 70064, Note_on_c, 1, 74, 0
7, 70080, Note_on_c, 1, 76, 76
7, 70784, Note_on_c, 1, 76, 0
7, 70800, Note_on_c, 1, 75, 76
7, 71024, Note_on_c, 1, 75, 0
7, 71040, Note_on_c, 1, 76, 76
7, 71144, Note_on_c, 1, 76, 0
7, 71160, Note_on_c, 1, 76, 76
7, 71204, Note_on_c, 1, 76, 0
7, 71220, Note_on_c, 1, 75, 76
7, 71264, Note_on_c, 1, 75, 0
7, 71280, Note_on_c, 1, 76, 76
7, 71384, Note_on_c, 1, 76, 0
7, 71400, Note_on_c, 1, 71, 76
7, 71504, Note_on_c, 1, 71, 0
7, 71520, Note_on_c, 1, 64, 76
7, 71624, Note_on_c, 1, 64, 0
7, 71640, Note_on_c, 1, 66, 76
7, 71684, Note_on_c, 1, 66, 0
7, 71700, Note_on_c, 1, 67, 76
7, 71744, Note_on_c, 1, 67, 0
7, 71760, Note_on_c, 1, 69, 76
7, 71804, Note_on_c, 1, 69, 0
7, 71820, Note_on_c, 1, 67, 76
7, 71864, Note_on_c, 1, 67, 0
7, 71880, Note_on_c, 1, 66, 76
7, 71924, Note_on_c, 1, 66, 0
7, 71940, Note_on_c, 1, 64, 76
7, 71984, Note_on_c, 1, 64, 0
7, 72000, Note_on_c, 1, 71, 76
7, 72104, Note_on_c, 1, 71, 0
7, 72120, Note_on_c, 1, 69, 76
7, 72224, Note_on_c, 1, 69, 0
7, 72240, Note_on_c, 1, 67, 76
7, 72344, Note_on_c, 1, 67, 0
7, 72360, Note_on_c, 1, 66, 76
7, 72464, Note_on_c, 1, 66, 0
7, 72480, Note_on_c, 1, 64, 76
7, 72719, Note_on_c, 1, 64, 0
7, 73080, Note_on_c, 1, 71, 76
7, 73184, Note_on_c, 1, 71, 0
7, 73200, Note_on_c, 1, 76, 76
7, 73304, Note_on_c, 1, 76, 0
7, 73320, Note_on_c, 1, 74, 76
7, 73424, Note_on_c, 1, 74, 0
7, 73440, Note_on_c, 1, 72, 76
7, 74024, Note_on_c, 1, 72, 0
7, 74040, Note_on_c, 1, 62, 76
7, 74144, Note_on_c, 1, 62, 0
7, 74160, Note_on_c, 1, 69, 76
7, 74264, Note_on_c, 1, 69, 0
7, 74280, Note_on_c, 1, 72, 76
7, 74384, Note_on_c, 1, 72, 0
7, 74400, Note_on_c, 1, 71, 76
7, 74639, Note_on_c, 1, 71, 0
7, 75000, Note_on_c, 1, 78, 76
7, 75104, Note_on_c, 1, 78, 0
7, 75120, Note_on_c, 1, 78, 76
7, 75224, Note_on_c, 1, 78, 0
7, 75240, Note_on_c, 1, 78, 76
7, 75344, Note_on_c, 1, 78, 0
7, 75360, Note_on_c, 1, 71, 76
7, 75464, Note_on_c, 1, 71, 0
7, 75480, Note_on_c, 1, 73, 76
7, 75524, Note_on_c, 1, 73, 0
7, 75540, Note_on_c, 1, 75, 76
7, 75584, Note_on_c, 1, 75, 0
7, 75600, Note_on_c, 1, 76, 76
7, 75944, Note_on_c, 1, 76, 0
7, 75960, Note_on_c, 1, 74, 76
7, 76004, Note_on_c, 1, 74, 0
7, 76020, Note_on_c, 1, 72, 76
7, 76064, Note_on_c, 1, 72, 0
7, 76080, Note_on_c, 1, 74, 76
7, 76544, Note_on_c, 1, 74, 0
7, 76560, Note_on_c, 1, 72, 76
7, 76844, Note_on_c, 1, 72, 0
7, 76860, Note_on_c, 1, 72, 76
7, 76904, Note_on_c, 1, 72, 0
7, 76920, Note_on_c, 1, 71, 76
7, 76964, Note_on_c, 1, 71, 0
7, 76980, Note_on_c, 1, 69, 76
7, 77024, Note_on_c, 1, 69, 0
7, 77040, Note_on_c, 1, 68, 76
7, 77084, Note_on_c, 1, 68, 0
7, 77100, Note_on_c, 1, 69, 76
7, 77144, Note_on_c, 1, 69, 0
7, 77160, Note_on_c, 1, 71, 76
7, 77204, Note_on_c, 1, 71, 0
7, 77220, Note_on_c, 1, 68, 76
7, 77264, Note_on_c, 1, 68, 0
7, 77280, Note_on_c, 1, 64, 76
7, 77384, Note_on_c, 1, 64, 0
7, 77400, Note_on_c, 1, 68, 76
7, 77504, Note_on_c, 1, 68, 0
7, 77520, Note_on_c, 1, 69, 76
7, 77804, Note_on_c, 1, 69, 0
7, 77820, Note_on_c, 1, 77, 76
7, 77864, Note_on_c, 1, 77, 0
7, 77880, Note_on_c, 1, 76, 76
7, 77924, Note_on_c, 1, 76, 0
7, 77940, Note_on_c, 1, 74, 76
7, 77984, Note_on_c, 1, 74, 0
7, 78000, Note_on_c, 1, 72, 76
7, 78044, Note_on_c, 1, 72, 0
7, 78060, Note_on_c, 1, 71, 76
7, 78104, Note_on_c, 1, 71, 0
7, 78120, Note_on_c, 1, 72, 76
7, 78164, Note_on_c, 1, 72, 0
7, 78180, Note_on_c, 1, 69, 76
7, 78224, Note_on_c, 1, 69, 0
7, 78240, Note_on_c, 1, 74, 76
7, 78284, Note_on_c, 1, 74, 0
7, 78300, Note_on_c, 1, 76, 76
7, 78344, Note_on_c, 1, 76, 0
7, 78360, Note_on_c, 1, 74, 76
7, 78404, Note_on_c, 1, 74, 0
7, 78420, Note_on_c, 1, 72, 76
7, 78464, Note_on_c, 1, 72, 0
7, 78480, Note_on_c, 1, 71, 76
7, 78524, Note_on_c, 1, 71, 0
7, 78540, Note_on_c, 1, 69, 76
7, 78584, Note_on_c, 1, 69, 0
7, 78600, Note_on_c, 1, 71, 76
7, 78644, Note_on_c, 1, 71, 0
7, 78660, Note_on_c, 1, 64, 76
7, 78704, Note_on_c, 1, 64, 0
7, 78720, Note_on_c, 1, 72, 76
7, 79439, Note_on_c, 1, 72, 0
7, 79740, Note_on_c, 1, 75, 76
7, 79784, Note_on_c, 1, 75, 0
7, 79800, Note_on_c, 1, 74, 76
7, 79844, Note_on_c, 1, 74, 0
7, 79860, Note_on_c, 1, 72, 76
7, 79904, Note_on_c, 1, 72, 0
7, 79920, Note_on_c, 1, 70, 76
7, 79964, Note_on_c, 1, 70, 0
7, 79980, Note_on_c, 1, 69, 76
7, 80024, Note_on_c, 1, 69, 0
7, 80040, Note_on_c, 1, 70, 76
7, 80084, Note_on_c, 1, 70, 0
7, 80100, Note_on_c, 1, 67, 76
7, 80144, Note_on_c, 1, 67, 0
7, 80160, Note_on_c, 1, 72, 76
7, 80204, Note_on_c, 1, 72, 0
7, 80220, Note_on_c, 1, 74, 76
7, 80264, Note_on_c, 1, 74, 0
7, 80280, Note_on_c, 1, 72, 76
7, 80324, Note_on_c, 1, 72, 0
7, 80340, Note_on_c, 1, 70, 76
7, 80384, Note_on_c, 1, 70, 0
7, 80400, Note_on_c, 1, 69, 76
7, 80444, Note_on_c, 1, 69, 0
7, 80460, Note_on_c, 1, 67, 76
7, 80504, Note_on_c, 1, 67, 0
7, 80520, Note_on_c, 1, 69, 76
7, 80564, Note_on_c, 1, 69, 0
7, 80580, Note_on_c, 1, 62, 76
7, 80624, Note_on_c, 1, 62, 0
7, 80640, Note_on_c, 1, 70, 76
7, 81359, Note_on_c, 1, 70, 0
7, 81660, Note_on_c, 1, 74, 76
7, 81704, Note_on_c, 1, 74, 0
7, 81720, Note_on_c, 1, 72, 76
7, 81764, Note_on_c, 1, 72, 0
7, 81780, Note_on_c, 1, 70, 76
7, 81824, Note_on_c, 1, 70, 0
7, 81840, Note_on_c, 1, 69, 76
7, 81884, Note_on_c, 1, 69, 0
7, 81900, Note_on_c, 1, 67, 76
7, 81944, Note_on_c, 1, 67, 0
7, 81960, Note_on_c, 1, 69, 76
7, 82004, Note_on_c, 1, 69, 0
7, 82020, Note_on_c, 1, 65, 76
7, 82064, Note_on_c, 1, 65, 0
7, 82080, Note_on_c, 1, 70, 76
7, 82124, Note_on_c, 1, 70, 0
7, 82140, Note_on_c, 1, 72, 76
7, 82184, Note_on_c, 1, 72, 0
7, 82200, Note_on_c, 1, 70, 76
7, 82244, Note_on_c, 1, 70, 0
7, 82260, Note_on_c, 1, 69, 76
7, 82304, Note_on_c, 1, 69, 0
7, 82320, Note_on_c, 1, 67, 76
7, 82364, Note_on_c, 1, 67, 0
7, 82380, Note_on_c, 1, 65, 76
7, 82424, Note_on_c, 1, 65, 0
7, 82440, Note_on_c, 1, 67, 76
7, 82484, Note_on_c, 1, 67, 0
7, 82500, Note_on_c, 1, 60, 76
7, 82544, Note_on_c, 1, 60, 0
7, 82560, Note_on_c, 1, 69, 76
7, 82604, Note_on_c, 1, 69, 0
7, 82620, Note_on_c, 1, 67, 76
7, 82664, Note_on_c, 1, 67, 0
7, 82680, Note_on_c, 1, 65, 76
7, 82724, Note_on_c, 1, 65, 0
7, 82740, Note_on_c, 1, 67, 76
7, 82784, Note_on_c, 1, 67, 0
7, 82800, Note_on_c, 1, 69, 76
7, 82844, Note_on_c, 1, 69, 0
7, 82860, Note_on_c, 1, 67, 76
7, 82904, Note_on_c, 1, 67, 0
7, 82920, Note_on_c, 1, 69, 76
7, 82964, Note_on_c, 1, 69, 0
7, 82980, Note_on_c, 1, 71, 76
7, 83024, Note_on_c, 1, 71, 0
7, 83040, Note_on_c, 1, 72, 76
7, 83204, Note_on_c, 1, 72, 0
7, 83220, Note_on_c, 1, 67, 76
7, 83264, Note_on_c, 1, 67, 0
7, 83280, Note_on_c, 1, 72, 76
7, 83444, Note_on_c, 1, 72, 0
7, 83460, Note_on_c, 1, 72, 76
7, 83504, Note_on_c, 1, 72, 0
7, 83520, Note_on_c, 1, 72, 76
7, 83684, Note_on_c, 1, 72, 0
7, 83700, Note_on_c, 1, 71, 76
7, 83719, Note_on_c, 1, 71, 0
7, 83720, Note_on_c, 1, 69, 76
7, 83739, Note_on_c, 1, 69, 0
7, 83740, Note_on_c, 1, 71, 76
7, 83759, Note_on_c, 1, 71, 0
7, 83760, Note_on_c, 1, 71, 76
7, 83924, Note_on_c, 1, 71, 0
7, 83940, Note_on_c, 1, 72, 76
7, 83984, Note_on_c, 1, 72, 0
7, 84000, Note_on_c, 1, 72, 76
7, 84239, Note_on_c, 1, 72, 0
7, 84360, Note_on_c, 1, 81, 76
7, 84524, Note_on_c, 1, 81, 0
7, 84540, Note_on_c, 1, 84, 76
7, 84584, Note_on_c, 1, 84, 0
7, 84600, Note_on_c, 1, 83, 76
7, 84644, Note_on_c, 1, 83, 0
7, 84660, Note_on_c, 1, 81, 76
7, 84704, Note_on_c, 1, 81, 0
7, 84720, Note_on_c, 1, 79, 76
7, 84764, Note_on_c, 1, 79, 0
7, 84780, Note_on_c, 1, 77, 76
7, 84824, Note_on_c, 1, 77, 0
7, 84840, Note_on_c, 1, 76, 76
7, 84884, Note_on_c, 1, 76, 0
7, 84900, Note_on_c, 1, 74, 76
7, 84944, Note_on_c, 1, 74, 0
7, 84960, Note_on_c, 1, 72, 76
7, 85004, Note_on_c, 1, 72, 0
7, 85020, Note_on_c, 1, 76, 76
7, 85064, Note_on_c, 1, 76, 0
7, 85080, Note_on_c, 1, 74, 76
7, 85124, Note_on_c, 1, 74, 0
7, 85140, Note_on_c, 1, 72, 76
7, 85184, Note_on_c, 1, 72, 0
7, 85200, Note_on_c, 1, 77, 76
7, 85364, Note_on_c, 1, 77, 0
7, 85380, Note_on_c, 1, 77, 76
7, 85424, Note_on_c, 1, 77, 0
7, 85440, Note_on_c, 1, 77, 76
7, 85484, Note_on_c, 1, 77, 0
7, 85500, Note_on_c, 1, 76, 76
7, 85544, Note_on_c, 1, 76, 0
7, 85560, Note_on_c, 1, 74, 76
7, 85604, Note_on_c, 1, 74, 0
7, 85620, Note_on_c, 1, 76, 76
7, 85664, Note_on_c, 1, 76, 0
7, 85680, Note_on_c, 1, 76, 76
7, 85709, Note_on_c, 1, 76, 0
7, 85710, Note_on_c, 1, 77, 76
7, 85739, Note_on_c, 1, 77, 0
7, 85740, Note_on_c, 1, 76, 76
7, 85769, Note_on_c, 1, 76, 0
7, 85770, Note_on_c, 1, 77, 76
7, 85799, Note_on_c, 1, 77, 0
7, 85800, Note_on_c, 1, 74, 76
7, 85829, Note_on_c, 1, 74, 0
7, 85830, Note_on_c, 1, 76, 76
7, 85859, Note_on_c, 1, 76, 0
7, 85860, Note_on_c, 1, 76, 76
7, 85904, Note_on_c, 1, 76, 0
7, 85920, Note_on_c, 1, 76, 76
7, 85964, Note_on_c, 1, 76, 0
7, 85980, Note_on_c, 1, 69, 76
7, 86024, Note_on_c, 1, 69, 0
7, 86040, Note_on_c, 1, 71, 76
7, 86084, Note_on_c, 1, 71, 0
7, 86100, Note_on_c, 1, 72, 76
7, 86144, Note_on_c, 1, 72, 0
7, 86160, Note_on_c, 1, 74, 76
7, 86324, Note_on_c, 1, 74, 0
7, 86340, Note_on_c, 1, 74, 76
7, 86384, Note_on_c, 1, 74, 0
7, 86400, Note_on_c, 1, 74, 76
7, 86444, Note_on_c, 1, 74, 0
7, 86460, Note_on_c, 1, 72, 76
7, 86504, Note_on_c, 1, 72, 0
7, 86520, Note_on_c, 1, 74, 76
7, 86564, Note_on_c, 1, 74, 0
7, 86580, Note_on_c, 1, 71, 76
7, 86624, Note_on_c, 1, 71, 0
7, 86640, Note_on_c, 1, 72, 76
7, 86684, Note_on_c, 1, 72, 0
7, 86700, Note_on_c, 1, 76, 76
7, 86744, Note_on_c, 1, 76, 0
7, 86760, Note_on_c, 1, 74, 76
7, 86804, Note_on_c, 1, 74, 0
7, 86820, Note_on_c, 1, 76, 76
7, 86864, Note_on_c, 1, 76, 0
7, 86880, Note_on_c, 1, 77, 76
7, 86924, Note_on_c, 1, 77, 0
7, 86940, Note_on_c, 1, 79, 76
7, 86984, Note_on_c, 1, 79, 0
7, 87000, Note_on_c, 1, 77, 76
7, 87044, Note_on_c, 1, 77, 0
7, 87060, Note_on_c, 1, 76, 76
7, 87104, Note_on_c, 1, 76, 0
7, 87120, Note_on_c, 1, 74, 76
7, 87164, Note_on_c, 1, 74, 0
7, 87180, Note_on_c, 1, 72, 76
7, 87224, Note_on_c, 1, 72, 0
7, 87240, Note_on_c, 1, 74, 76
7, 87284, Note_on_c, 1, 74, 0
7, 87300, Note_on_c, 1, 71, 76
7, 87344, Note_on_c, 1, 71, 0
7, 87360, Note_on_c, 1, 72, 76
7, 87404, Note_on_c, 1, 72, 0
7, 87420, Note_on_c, 1, 74, 76
7, 87464, Note_on_c, 1, 74, 0
7, 87480, Note_on_c, 1, 76, 76
7, 87524, Note_on_c, 1, 76, 0
7, 87540, Note_on_c, 1, 77, 76
7, 87584, Note_on_c, 1, 77, 0
7, 87600, Note_on_c, 1, 79, 76
7, 87644, Note_on_c, 1, 79, 0
7, 87660, Note_on_c, 1, 81, 76
7, 87704, Note_on_c, 1, 81, 0
7, 87720, Note_on_c, 1, 82, 76
7, 87764, Note_on_c, 1, 82, 0
7, 87780, Note_on_c, 1, 79, 76
7, 87824, Note_on_c, 1, 79, 0
7, 87840, Note_on_c, 1, 81, 76
7, 87884, Note_on_c, 1, 81, 0
7, 87900, Note_on_c, 1, 82, 76
7, 87944, Note_on_c, 1, 82, 0
7, 87960, Note_on_c, 1, 81, 76
7, 88004, Note_on_c, 1, 81, 0
7, 88020, Note_on_c, 1, 79, 76
7, 88064, Note_on_c, 1, 79, 0
7, 88080, Note_on_c, 1, 77, 76
7, 88124, Note_on_c, 1, 77, 0
7, 88140, Note_on_c, 1, 76, 76
7, 88184, Note_on_c, 1, 76, 0
7, 88200, Note_on_c, 1, 74, 76
7, 88244, Note_on_c, 1, 74, 0
7, 88260, Note_on_c, 1, 72, 76
7, 88304, Note_on_c, 1, 72, 0
7, 88320, Note_on_c, 1, 71, 76
7, 88364, Note_on_c, 1, 71, 0
7, 88380, Note_on_c, 1, 76, 76
7, 88424, Note_on_c, 1, 76, 0
7, 88440, Note_on_c, 1, 74, 76
7, 88484, Note_on_c, 1, 74, 0
7, 88500, Note_on_c, 1, 72, 76
7, 88544, Note_on_c, 1, 72, 0
7, 88560, Note_on_c, 1, 71, 76
7, 88604, Note_on_c, 1, 71, 0
7, 88620, Note_on_c, 1, 69, 76
7, 88664, Note_on_c, 1, 69, 0
7, 88680, Note_on_c, 1, 71, 76
7, 88724, Note_on_c, 1, 71, 0
7, 88740, Note_on_c, 1, 67, 76
7, 88784, Note_on_c, 1, 67, 0
7, 88800, Note_on_c, 1, 72, 76
7, 89504, Note_on_c, 1, 72, 0
7, 89520, Note_on_c, 1, 71, 76
7, 89744, Note_on_c, 1, 71, 0
7, 89760, Note_on_c, 1, 72, 76
7, 89804, Note_on_c, 1, 72, 0
7, 89820, Note_on_c, 1, 71, 76
7, 89864, Note_on_c, 1, 71, 0
7, 89880, Note_on_c, 1, 72, 76
7, 89924, Note_on_c, 1, 72, 0
7, 89940, Note_on_c, 1, 74, 76
7, 89984, Note_on_c, 1, 74, 0
7, 90000, Note_on_c, 1, 76, 76
7, 90044, Note_on_c, 1, 76, 0
7, 90060, Note_on_c, 1, 74, 76
7, 90104, Note_on_c, 1, 74, 0
7, 90120, Note_on_c, 1, 76, 76
7, 90164, Note_on_c, 1, 76, 0
7, 90180, Note_on_c, 1, 78, 76
7, 90224, Note_on_c, 1, 78, 0
7, 90240, Note_on_c, 1, 79, 76
7, 90404, Note_on_c, 1, 79, 0
7, 90420, Note_on_c, 1, 74, 76
7, 90464, Note_on_c, 1, 74, 0
7, 90480, Note_on_c, 1, 79, 76
7, 90644, Note_on_c, 1, 79, 0
7, 90660, Note_on_c, 1, 79, 76
7, 90704, Note_on_c, 1, 79, 0
7, 90720, Note_on_c, 1, 79, 76
7, 90884, Note_on_c, 1, 79, 0
7, 90900, Note_on_c, 1, 78, 76
7, 90919, Note_on_c, 1, 78, 0
7, 90920, Note_on_c, 1, 76, 76
7, 90939, Note_on_c, 1, 76, 0
7, 90940, Note_on_c, 1, 78, 76
7, 90959, Note_on_c, 1, 78, 0
7, 90960, Note_on_c, 1, 78, 76
7, 90989, Note_on_c, 1, 78, 0
7, 90990, Note_on_c, 1, 79, 76
7, 91019, Note_on_c, 1, 79, 0
7, 91020, Note_on_c, 1, 78, 76
7, 91049, Note_on_c, 1, 78, 0
7, 91050, Note_on_c, 1, 79, 76
7, 91079, Note_on_c, 1, 79, 0
7, 91080, Note_on_c, 1, 76, 76
7, 91109, Note_on_c, 1, 76, 0
7, 91110, Note_on_c, 1, 78, 76
7, 91139, Note_on_c, 1, 78, 0
7, 91140, Note_on_c, 1, 79, 76
7, 91184, Note_on_c, 1, 79, 0
7, 91200, Note_on_c, 1, 79, 76
7, 91304, Note_on_c, 1, 79, 0
7, 91320, Note_on_c, 1, 77, 76
7, 91364, Note_on_c, 1, 77, 0
7, 91380, Note_on_c, 1, 76, 76
7, 91424, Note_on_c, 1, 76, 0
7, 91440, Note_on_c, 1, 74, 76
7, 91484, Note_on_c, 1, 74, 0
7, 91500, Note_on_c, 1, 71, 76
7, 91544, Note_on_c, 1, 71, 0
7, 91560, Note_on_c, 1, 72, 76
7, 91604, Note_on_c, 1, 72, 0
7, 91620, Note_on_c, 1, 74, 76
7, 91664, Note_on_c, 1, 74, 0
7, 91680, Note_on_c, 1, 67, 76
7, 91784, Note_on_c, 1, 67, 0
7, 91800, Note_on_c, 1, 79, 76
7, 91904, Note_on_c, 1, 79, 0
7, 91920, Note_on_c, 1, 76, 76
7, 92024, Note_on_c, 1, 76, 0
7, 92040, Note_on_c, 1, 81, 76
7, 92144, Note_on_c, 1, 81, 0
7, 92160, Note_on_c, 1, 77, 76
7, 92204, Note_on_c, 1, 77, 0
7, 92220, Note_on_c, 1, 79, 76
7, 92264, Note_on_c, 1, 79, 0
7, 92280, Note_on_c, 1, 77, 76
7, 92324, Note_on_c, 1, 77, 0
7, 92340, Note_on_c, 1, 76, 76
7, 92384, Note_on_c, 1, 76, 0
7, 92400, Note_on_c, 1, 74, 76
7, 92444, Note_on_c, 1, 74, 0
7, 92460, Note_on_c, 1, 77, 76
7, 92504, Note_on_c, 1, 77, 0
7, 92520, Note_on_c, 1, 76, 76
7, 92564, Note_on_c, 1, 76, 0
7, 92580, Note_on_c, 1, 74, 76
7, 92624, Note_on_c, 1, 74, 0
7, 92640, Note_on_c, 1, 79, 76
7, 92684, Note_on_c, 1, 79, 0
7, 92700, Note_on_c, 1, 77, 76
7, 92744, Note_on_c, 1, 77, 0
7, 92760, Note_on_c, 1, 76, 76
7, 92804, Note_on_c, 1, 76, 0
7, 92820, Note_on_c, 1, 74, 76
7, 92864, Note_on_c, 1, 74, 0
7, 92880, Note_on_c, 1, 72, 76
7, 92924, Note_on_c, 1, 72, 0
7, 92940, Note_on_c, 1, 71, 76
7, 92984, Note_on_c, 1, 71, 0
7, 93000, Note_on_c, 1, 72, 76
7, 93044, Note_on_c, 1, 72, 0
7, 93060, Note_on_c, 1, 69, 76
7, 93104, Note_on_c, 1, 69, 0
7, 93120, Note_on_c, 1, 74, 76
7, 93224, Note_on_c, 1, 74, 0
7, 93240, Note_on_c, 1, 76, 76
7, 93284, Note_on_c, 1, 76, 0
7, 93300, Note_on_c, 1, 78, 76
7, 93344, Note_on_c, 1, 78, 0
7, 93360, Note_on_c, 1, 79, 76
7, 93464, Note_on_c, 1, 79, 0
7, 93480, Note_on_c, 1, 81, 76
7, 93524, Note_on_c, 1, 81, 0
7, 93540, Note_on_c, 1, 83, 76
7, 93584, Note_on_c, 1, 83, 0
7, 93600, Note_on_c, 1, 84, 76
7, 93764, Note_on_c, 1, 84, 0
7, 93780, Note_on_c, 1, 83, 76
7, 93824, Note_on_c, 1, 83, 0
7, 93840, Note_on_c, 1, 81, 76
7, 93869, Note_on_c, 1, 81, 0
7, 93870, Note_on_c, 1, 83, 76
7, 93899, Note_on_c, 1, 83, 0
7, 93900, Note_on_c, 1, 81, 76
7, 93929, Note_on_c, 1, 81, 0
7, 93930, Note_on_c, 1, 83, 76
7, 93959, Note_on_c, 1, 83, 0
7, 93960, Note_on_c, 1, 79, 76
7, 93989, Note_on_c, 1, 79, 0
7, 93990, Note_on_c, 1, 81, 76
7, 94019, Note_on_c, 1, 81, 0
7, 94020, Note_on_c, 1, 79, 76
7, 94064, Note_on_c, 1, 79, 0
7, 94080, Note_on_c, 1, 79, 76
7, 94184, Note_on_c, 1, 79, 0
7, 94200, Note_on_c, 1, 77, 76
7, 94244, Note_on_c, 1, 77, 0
7, 94260, Note_on_c, 1, 76, 76
7, 94304, Note_on_c, 1, 76, 0
7, 94320, Note_on_c, 1, 74, 76
7, 94364, Note_on_c, 1, 74, 0
7, 94380, Note_on_c, 1, 76, 76
7, 94424, Note_on_c, 1, 76, 0
7, 94440, Note_on_c, 1, 77, 76
7, 94484, Note_on_c, 1, 77, 0
7, 94500, Note_on_c, 1, 74, 76
7, 94544, Note_on_c, 1, 74, 0
7, 94560, Note_on_c, 1, 76, 76
7, 94664, Note_on_c, 1, 76, 0
7, 94680, Note_on_c, 1, 72, 76
7, 94784, Note_on_c, 1, 72, 0
7, 94800, Note_on_c, 1, 84, 76
7, 94964, Note_on_c, 1, 84, 0
7, 94980, Note_on_c, 1, 84, 76
7, 95024, Note_on_c, 1, 84, 0
7, 95040, Note_on_c, 1, 84, 76
7, 95084, Note_on_c, 1, 84, 0
7, 95100, Note_on_c, 1, 82, 76
7, 95144, Note_on_c, 1, 82, 0
7, 95160, Note_on_c, 1, 84, 76
7, 95204, Note_on_c, 1, 84, 0
7, 95220, Note_on_c, 1, 81, 76
7, 95264, Note_on_c, 1, 81, 0
7, 95280, Note_on_c, 1, 82, 76
7, 95444, Note_on_c, 1, 82, 0
7, 95460, Note_on_c, 1, 82, 76
7, 95504, Note_on_c, 1, 82, 0
7, 95520, Note_on_c, 1, 82, 76
7, 95624, Note_on_c, 1, 82, 0
7, 95640, Note_on_c, 1, 76, 76
7, 95744, Note_on_c, 1, 76, 0
7, 95760, Note_on_c, 1, 81, 76
7, 95924, Note_on_c, 1, 81, 0
7, 95940, Note_on_c, 1, 81, 76
7, 95984, Note_on_c, 1, 81, 0
7, 96000, Note_on_c, 1, 81, 76
7, 96044, Note_on_c, 1, 81, 0
7, 96060, Note_on_c, 1, 79, 76
7, 96104, Note_on_c, 1, 79, 0
7, 96120, Note_on_c, 1, 81, 76
7, 96164, Note_on_c, 1, 81, 0
7, 96180, Note_on_c, 1, 77, 76
7, 96224, Note_on_c, 1, 77, 0
7, 96240, Note_on_c, 1, 79, 76
7, 96404, Note_on_c, 1, 79, 0
7, 96420, Note_on_c, 1, 79, 76
7, 96464, Note_on_c, 1, 79, 0
7, 96480, Note_on_c, 1, 79, 76
7, 96584, Note_on_c, 1, 79, 0
7, 96600, Note_on_c, 1, 72, 76
7, 96704, Note_on_c, 1, 72, 0
7, 96720, Note_on_c, 1, 77, 76
7, 96884, Note_on_c, 1, 77, 0
7, 96900, Note_on_c, 1, 77, 76
7, 96944, Note_on_c, 1, 77, 0
7, 96960, Note_on_c, 1, 77, 76
7, 97004, Note_on_c, 1, 77, 0
7, 97020, Note_on_c, 1, 81, 76
7, 97064, Note_on_c, 1, 81, 0
7, 97080, Note_on_c, 1, 79, 76
7, 97124, Note_on_c, 1, 79, 0
7, 97140, Note_on_c, 1, 77, 76
7, 97184, Note_on_c, 1, 77, 0
7, 97200, Note_on_c, 1, 76, 76
7, 97244, Note_on_c, 1, 76, 0
7, 97260, Note_on_c, 1, 74, 76
7, 97304, Note_on_c, 1, 74, 0
7, 97320, Note_on_c, 1, 72, 76
7, 97364, Note_on_c, 1, 72, 0
7, 97380, Note_on_c, 1, 71, 76
7, 97424, Note_on_c, 1, 71, 0
7, 97440, Note_on_c, 1, 72, 76
7, 97484, Note_on_c, 1, 72, 0
7, 97500, Note_on_c, 1, 76, 76
7, 97544, Note_on_c, 1, 76, 0
7, 97560, Note_on_c, 1, 81, 76
7, 97604, Note_on_c, 1, 81, 0
7, 97620, Note_on_c, 1, 79, 76
7, 97664, Note_on_c, 1, 79, 0
7, 97680, Note_on_c, 1, 77, 76
7, 97724, Note_on_c, 1, 77, 0
7, 97740, Note_on_c, 1, 76, 76
7, 97784, Note_on_c, 1, 76, 0
7, 97800, Note_on_c, 1, 74, 76
7, 97844, Note_on_c, 1, 74, 0
7, 97860, Note_on_c, 1, 72, 76
7, 97904, Note_on_c, 1, 72, 0
7, 97920, Note_on_c, 1, 71, 76
7, 97964, Note_on_c, 1, 71, 0
7, 97980, Note_on_c, 1, 69, 76
7, 98024, Note_on_c, 1, 69, 0
7, 98040, Note_on_c, 1, 67, 76
7, 98084, Note_on_c, 1, 67, 0
7, 98100, Note_on_c, 1, 69, 76
7, 98144, Note_on_c, 1, 69, 0
7, 98160, Note_on_c, 1, 71, 76
7, 98204, Note_on_c, 1, 71, 0
7, 98220, Note_on_c, 1, 69, 76
7, 98264, Note_on_c, 1, 69, 0
7, 98280, Note_on_c, 1, 71, 76
7, 98324, Note_on_c, 1, 71, 0
7, 98340, Note_on_c, 1, 67, 76
7, 98384, Note_on_c, 1, 67, 0
7, 98400, Note_on_c, 1, 72, 76
7, 98564, Note_on_c, 1, 72, 0
7, 98580, Note_on_c, 1, 74, 76
7, 98624, Note_on_c, 1, 74, 0
7, 98640, Note_on_c, 1, 71, 76
7, 98804, Note_on_c, 1, 71, 0
7, 98820, Note_on_c, 1, 72, 76
7, 98864, Note_on_c, 1, 72, 0
7, 98880, Note_on_c, 1, 72, 76
7, 99119, Note_on_c, 1, 72, 0
7, 99600, Note_on_c, 1, 72, 76
7, 100064, Note_on_c, 1, 72, 0
7, 100080, Note_on_c, 1, 71, 76
7, 100304, Note_on_c, 1, 71, 0
7, 100320, Note_on_c, 1, 72, 76
7, 100424, Note_on_c, 1, 72, 0
7, 100440, Note_on_c, 1, 79, 76
7, 100544, Note_on_c, 1, 79, 0
7, 100560, Note_on_c, 1, 79, 76
7, 100664, Note_on_c, 1, 79, 0
7, 100680, Note_on_c, 1, 79, 76
7, 100784, Note_on_c, 1, 79, 0
7, 100800, Note_on_c, 1, 76, 76
7, 100904, Note_on_c, 1, 76, 0
7, 100920, Note_on_c, 1, 77, 76
7, 100964, Note_on_c, 1, 77, 0
7, 100980, Note_on_c, 1, 79, 76
7, 101024, Note_on_c, 1, 79, 0
7, 101040, Note_on_c, 1, 81, 76
7, 101144, Note_on_c, 1, 81, 0
7, 101160, Note_on_c, 1, 77, 76
7, 101264, Note_on_c, 1, 77, 0
7, 101280, Note_on_c, 1, 74, 76
7, 101384, Note_on_c, 1, 74, 0
7, 101400, Note_on_c, 1, 79, 76
7, 101504, Note_on_c, 1, 79, 0
7, 101520, Note_on_c, 1, 67, 76
7, 101624, Note_on_c, 1, 67, 0
7, 101640, Note_on_c, 1, 77, 76
7, 101744, Note_on_c, 1, 77, 0
7, 101760, Note_on_c, 1, 76, 76
7, 101804, Note_on_c, 1, 76, 0
7, 101820, Note_on_c, 1, 79, 76
7, 101864, Note_on_c, 1, 79, 0
7, 101880, Note_on_c, 1, 77, 76
7, 101924, Note_on_c, 1, 77, 0
7, 101940, Note_on_c, 1, 79, 76
7, 101984, Note_on_c, 1, 79, 0
7, 102000, Note_on_c, 1, 81, 76
7, 102044, Note_on_c, 1, 81, 0
7, 102060, Note_on_c, 1, 79, 76
7, 102104, Note_on_c, 1, 79, 0
7, 102120, Note_on_c, 1, 77, 76
7, 102164, Note_on_c, 1, 77, 0
7, 102180, Note_on_c, 1, 76, 76
7, 102224, Note_on_c, 1, 76, 0
7, 102240, Note_on_c, 1, 74, 76
7, 102284, Note_on_c, 1, 74, 0
7, 102300, Note_on_c, 1, 77, 76
7, 102344, Note_on_c, 1, 77, 0
7, 102360, Note_on_c, 1, 76, 76
7, 102404, Note_on_c, 1, 76, 0
7, 102420, Note_on_c, 1, 77, 76
7, 102464, Note_on_c, 1, 77, 0
7, 102480, Note_on_c, 1, 79, 76
7, 102524, Note_on_c, 1, 79, 0
7, 102540, Note_on_c, 1, 77, 76
7, 102584, Note_on_c, 1, 77, 0
7, 102600, Note_on_c, 1, 76, 76
7, 102644, Note_on_c, 1, 76, 0
7, 102660, Note_on_c, 1, 74, 76
7, 102704, Note_on_c, 1, 74, 0
7, 102720, Note_on_c, 1, 72, 76
7, 102764, Note_on_c, 1, 72, 0
7, 102780, Note_on_c, 1, 76, 76
7, 102824, Note_on_c, 1, 76, 0
7, 102840, Note_on_c, 1, 74, 76
7, 102884, Note_on_c, 1, 74, 0
7, 102900, Note_on_c, 1, 76, 76
7, 102944, Note_on_c, 1, 76, 0
7, 102960, Note_on_c, 1, 77, 76
7, 103124, Note_on_c, 1, 77, 0
7, 103140, Note_on_c, 1, 77, 76
7, 103184, Note_on_c, 1, 77, 0
7, 103200, Note_on_c, 1, 77, 76
7, 103244, Note_on_c, 1, 77, 0
7, 103260, Note_on_c, 1, 76, 76
7, 103304, Note_on_c, 1, 76, 0
7, 103320, Note_on_c, 1, 77, 76
7, 103364, Note_on_c, 1, 77, 0
7, 103380, Note_on_c, 1, 74, 76
7, 103424, Note_on_c, 1, 74, 0
7, 103440, Note_on_c, 1, 76, 76
7, 103484, Note_on_c, 1, 76, 0
7, 103500, Note_on_c, 1, 79, 76
7, 103544, Note_on_c, 1, 79, 0
7, 103560, Note_on_c, 1, 77, 76
7, 103604, Note_on_c, 1, 77, 0
7, 103620, Note_on_c, 1, 79, 76
7, 103664, Note_on_c, 1, 79, 0
7, 103680, Note_on_c, 1, 81, 76
7, 103964, Note_on_c, 1, 81, 0
7, 103980, Note_on_c, 1, 74, 76
7, 104024, Note_on_c, 1, 74, 0
7, 104040, Note_on_c, 1, 76, 76
7, 104084, Note_on_c, 1, 76, 0
7, 104100, Note_on_c, 1, 77, 76
7, 104144, Note_on_c, 1, 77, 0
7, 104160, Note_on_c, 1, 79, 76
7, 104444, Note_on_c, 1, 79, 0
7, 104460, Note_on_c, 1, 72, 76
7, 104504, Note_on_c, 1, 72, 0
7, 104520, Note_on_c, 1, 74, 76
7, 104564, Note_on_c, 1, 74, 0
7, 104580, Note_on_c, 1, 76, 76
7, 104624, Note_on_c, 1, 76, 0
7, 104640, Note_on_c, 1, 77, 76
7, 104684, Note_on_c, 1, 77, 0
7, 104700, Note_on_c, 1, 76, 76
7, 104744, Note_on_c, 1, 76, 0
7, 104760, Note_on_c, 1, 74, 76
7, 104804, Note_on_c, 1, 74, 0
7, 104820, Note_on_c, 1, 72, 76
7, 104864, Note_on_c, 1, 72, 0
7, 104880, Note_on_c, 1, 71, 76
7, 104924, Note_on_c, 1, 71, 0
7, 104940, Note_on_c, 1, 74, 76
7, 104984, Note_on_c, 1, 74, 0
7, 105000, Note_on_c, 1, 76, 76
7, 105044, Note_on_c, 1, 76, 0
7, 105060, Note_on_c, 1, 77, 76
7, 105104, Note_on_c, 1, 77, 0
7, 105120, Note_on_c, 1, 76, 76
7, 105164, Note_on_c, 1, 76, 0
7, 105180, Note_on_c, 1, 79, 76
7, 105224, Note_on_c, 1, 79, 0
7, 105240, Note_on_c, 1, 77, 76
7, 105284, Note_on_c, 1, 77, 0
7, 105300, Note_on_c, 1, 79, 76
7, 105344, Note_on_c, 1, 79, 0
7, 105360, Note_on_c, 1, 81, 76
7, 105404, Note_on_c, 1, 81, 0
7, 105420, Note_on_c, 1, 79, 76
7, 105464, Note_on_c, 1, 79, 0
7, 105480, Note_on_c, 1, 77, 76
7, 105524, Note_on_c, 1, 77, 0
7, 105540, Note_on_c, 1, 76, 76
7, 105584, Note_on_c, 1, 76, 0
7, 105600, Note_on_c, 1, 74, 76
7, 105644, Note_on_c, 1, 74, 0
7, 105660, Note_on_c, 1, 77, 76
7, 105704, Note_on_c, 1, 77, 0
7, 105720, Note_on_c, 1, 76, 76
7, 105764, Note_on_c, 1, 76, 0
7, 105780, Note_on_c, 1, 77, 76
7, 105824, Note_on_c, 1, 77, 0
7, 105840, Note_on_c, 1, 79, 76
7, 105884, Note_on_c, 1, 79, 0
7, 105900, Note_on_c, 1, 77, 76
7, 105944, Note_on_c, 1, 77, 0
7, 105960, Note_on_c, 1, 76, 76
7, 106004, Note_on_c, 1, 76, 0
7, 106020, Note_on_c, 1, 74, 76
7, 106064, Note_on_c, 1, 74, 0
7, 106080, Note_on_c, 1, 72, 76
7, 106124, Note_on_c, 1, 72, 0
7, 106140, Note_on_c, 1, 76, 76
7, 106184, Note_on_c, 1, 76, 0
7, 106200, Note_on_c, 1, 74, 76
7, 106244, Note_on_c, 1, 74, 0
7, 106260, Note_on_c, 1, 76, 76
7, 106304, Note_on_c, 1, 76, 0
7, 106320, Note_on_c, 1, 77, 76
7, 106364, Note_on_c, 1, 77, 0
7, 106380, Note_on_c, 1, 76, 76
7, 106424, Note_on_c, 1, 76, 0
7, 106440, Note_on_c, 1, 74, 76
7, 106484, Note_on_c, 1, 74, 0
7, 106500, Note_on_c, 1, 72, 76
7, 106544, Note_on_c, 1, 72, 0
7, 106560, Note_on_c, 1, 71, 76
7, 106604, Note_on_c, 1, 71, 0
7, 106620, Note_on_c, 1, 74, 76
7, 106664, Note_on_c, 1, 74, 0
7, 106680, Note_on_c, 1, 72, 76
7, 106724, Note_on_c, 1, 72, 0
7, 106740, Note_on_c, 1, 74, 76
7, 106784, Note_on_c, 1, 74, 0
7, 106800, Note_on_c, 1, 76, 76
7, 106844, Note_on_c, 1, 76, 0
7, 106860, Note_on_c, 1, 74, 76
7, 106904, Note_on_c, 1, 74, 0
7, 106920, Note_on_c, 1, 72, 76
7, 106964, Note_on_c, 1, 72, 0
7, 106980, Note_on_c, 1, 71, 76
7, 107024, Note_on_c, 1, 71, 0
7, 107040, Note_on_c, 1, 69, 76
7, 107084, Note_on_c, 1, 69, 0
7, 107100, Note_on_c, 1, 72, 76
7, 107144, Note_on_c, 1, 72, 0
7, 107160, Note_on_c, 1, 71, 76
7, 107204, Note_on_c, 1, 71, 0
7, 107220, Note_on_c, 1, 72, 76
7, 107264, Note_on_c, 1, 72, 0
7, 107280, Note_on_c, 1, 74, 76
7, 107324, Note_on_c, 1, 74, 0
7, 107340, Note_on_c, 1, 72, 76
7, 107384, Note_on_c, 1, 72, 0
7, 107400, Note_on_c, 1, 71, 76
7, 107444, Note_on_c, 1, 71, 0
7, 107460, Note_on_c, 1, 69, 76
7, 107504, Note_on_c, 1, 69, 0
7, 107520, Note_on_c, 1, 71, 76
7, 107624, Note_on_c, 1, 71, 0
7, 107640, Note_on_c, 1, 79, 76
7, 107744, Note_on_c, 1, 79, 0
7, 107760, Note_on_c, 1, 79, 76
7, 107864, Note_on_c, 1, 79, 0
7, 107880, Note_on_c, 1, 79, 76
7, 107984, Note_on_c, 1, 79, 0
7, 108000, Note_on_c, 1, 76, 76
7, 108104, Note_on_c, 1, 76, 0
7, 108120, Note_on_c, 1, 77, 76
7, 108164, Note_on_c, 1, 77, 0
7, 108180, Note_on_c, 1, 79, 76
7, 108224, Note_on_c, 1, 79, 0
7, 108240, Note_on_c, 1, 81, 76
7, 108344, Note_on_c, 1, 81, 0
7, 108360, Note_on_c, 1, 77, 76
7, 108464, Note_on_c, 1, 77, 0
7, 108480, Note_on_c, 1, 74, 76
7, 108584, Note_on_c, 1, 74, 0
7, 108600, Note_on_c, 1, 79, 76
7, 108704, Note_on_c, 1, 79, 0
7, 108720, Note_on_c, 1, 67, 76
7, 108824, Note_on_c, 1, 67, 0
7, 108840, Note_on_c, 1, 77, 76
7, 108944, Note_on_c, 1, 77, 0
7, 108960, Note_on_c, 1, 76, 76
7, 109124, Note_on_c, 1, 76, 0
7, 109140, Note_on_c, 1, 74, 76
7, 109184, Note_on_c, 1, 74, 0
7, 109200, Note_on_c, 1, 74, 76
7, 109229, Note_on_c, 1, 74, 0
7, 109230, Note_on_c, 1, 76, 76
7, 109259, Note_on_c, 1, 76, 0
7, 109260, Note_on_c, 1, 74, 76
7, 109289, Note_on_c, 1, 74, 0
7, 109290, Note_on_c, 1, 76, 76
7, 109319, Note_on_c, 1, 76, 0
7, 109320, Note_on_c, 1, 72, 76
7, 109349, Note_on_c, 1, 72, 0
7, 109350, Note_on_c, 1, 74, 76
7, 109379, Note_on_c, 1, 74, 0
7, 109380, Note_on_c, 1, 72, 76
7, 109424, Note_on_c, 1, 72, 0
7, 109440, Note_on_c, 1, 72, 76
7, 109731, Note_on_c, 1, 72, 0
7, 109740, Note_on_c, 1, 72, 76
7, 109791, Note_on_c, 1, 72, 0
7, 109800, Note_on_c, 1, 70, 76
7, 109851, Note_on_c, 1, 70, 0
7, 109860, Note_on_c, 1, 69, 76
7, 109911, Note_on_c, 1, 69, 0
7, 109920, Note_on_c, 1, 67, 76
7, 110271, Note_on_c, 1, 67, 0
7, 110280, Note_on_c, 1, 69, 76
7, 110391, Note_on_c, 1, 69, 0
7, 110400, Note_on_c, 1, 70, 76
7, 110571, Note_on_c, 1, 70, 0
7, 110580, Note_on_c, 1, 70, 76
7, 110631, Note_on_c, 1, 70, 0
7, 110640, Note_on_c, 1, 72, 76
7, 110811, Note_on_c, 1, 72, 0
7, 110820, Note_on_c, 1, 74, 76
7, 110871, Note_on_c, 1, 74, 0
7, 110880, Note_on_c, 1, 67, 76
7, 111051, Note_on_c, 1, 67, 0
7, 111060, Note_on_c, 1, 67, 76
7, 111111, Note_on_c, 1, 67, 0
7, 111120, Note_on_c, 1, 69, 76
7, 111291, Note_on_c, 1, 69, 0
7, 111300, Note_on_c, 1, 70, 76
7, 111351, Note_on_c, 1, 70, 0
7, 111360, Note_on_c, 1, 69, 76
7, 111651, Note_on_c, 1, 69, 0
7, 111660, Note_on_c, 1, 69, 76
7, 111711, Note_on_c, 1, 69, 0
7, 111720, Note_on_c, 1, 71, 76
7, 111771, Note_on_c, 1, 71, 0
7, 111780, Note_on_c, 1, 73, 76
7, 111831, Note_on_c, 1, 73, 0
7, 111840, Note_on_c, 1, 74, 76
7, 111891, Note_on_c, 1, 74, 0
7, 111900, Note_on_c, 1, 73, 76
7, 111951, Note_on_c, 1, 73, 0
7, 111960, Note_on_c, 1, 74, 76
7, 112011, Note_on_c, 1, 74, 0
7, 112020, Note_on_c, 1, 76, 76
7, 112071, Note_on_c, 1, 76, 0
7, 112080, Note_on_c, 1, 77, 76
7, 112131, Note_on_c, 1, 77, 0
7, 112140, Note_on_c, 1, 76, 76
7, 112191, Note_on_c, 1, 76, 0
7, 112200, Note_on_c, 1, 77, 76
7, 112251, Note_on_c, 1, 77, 0
7, 112260, Note_on_c, 1, 74, 76
7, 112311, Note_on_c, 1, 74, 0
7, 112320, Note_on_c, 1, 79, 76
7, 112671, Note_on_c, 1, 79, 0
7, 112680, Note_on_c, 1, 79, 76
7, 112791, Note_on_c, 1, 79, 0
7, 112800, Note_on_c, 1, 79, 76
7, 112971, Note_on_c, 1, 79, 0
7, 112980, Note_on_c, 1, 81, 76
7, 113009, Note_on_c, 1, 81, 0
7, 113010, Note_on_c, 1, 82, 76
7, 113039, Note_on_c, 1, 82, 0
7, 113040, Note_on_c, 1, 81, 76
7, 113211, Note_on_c, 1, 81, 0
7, 113220, Note_on_c, 1, 79, 76
7, 113239, Note_on_c, 1, 79, 0
7, 113240, Note_on_c, 1, 77, 76
7, 113259, Note_on_c, 1, 77, 0
7, 113260, Note_on_c, 1, 76, 76
7, 113279, Note_on_c, 1, 76, 0
7, 113280, Note_on_c, 1, 77, 76
7, 113451, Note_on_c, 1, 77, 0
7, 113460, Note_on_c, 1, 74, 76
7, 113511, Note_on_c, 1, 74, 0
7, 113520, Note_on_c, 1, 77, 76
7, 113691, Note_on_c, 1, 77, 0
7, 113700, Note_on_c, 1, 81, 76
7, 113751, Note_on_c, 1, 81, 0
7, 113760, Note_on_c, 1, 78, 76
7, 113774, Note_on_c, 1, 78, 0
7, 113775, Note_on_c, 1, 79, 76
7, 113789, Note_on_c, 1, 79, 0
7, 113790, Note_on_c, 1, 78, 76
7, 113804, Note_on_c, 1, 78, 0
7, 113805, Note_on_c, 1, 79, 76
7, 113819, Note_on_c, 1, 79, 0
7, 113820, Note_on_c, 1, 78, 76
7, 113834, Note_on_c, 1, 78, 0
7, 113835, Note_on_c, 1, 79, 76
7, 113849, Note_on_c, 1, 79, 0
7, 113850, Note_on_c, 1, 78, 76
7, 113864, Note_on_c, 1, 78, 0
7, 113865, Note_on_c, 1, 79, 76
7, 113879, Note_on_c, 1, 79, 0
7, 113880, Note_on_c, 1, 78, 76
7, 113894, Note_on_c, 1, 78, 0
7, 113895, Note_on_c, 1, 79, 76
7, 113909, Note_on_c, 1, 79, 0
7, 113910, Note_on_c, 1, 78, 76
7, 113924, Note_on_c, 1, 78, 0
7, 113925, Note_on_c, 1, 79, 76
7, 113939, Note_on_c, 1, 79, 0
7, 113940, Note_on_c, 1, 78, 76
7, 113954, Note_on_c, 1, 78, 0
7, 113955, Note_on_c, 1, 79, 76
7, 113969, Note_on_c, 1, 79, 0
7, 113970, Note_on_c, 1, 78, 76
7, 113984, Note_on_c, 1, 78, 0
7, 113985, Note_on_c, 1, 79, 76
7, 113999, Note_on_c, 1, 79, 0
7, 114000, Note_on_c, 1, 78, 76
7, 114014, Note_on_c, 1, 78, 0
7, 114015, Note_on_c, 1, 79, 76
7, 114029, Note_on_c, 1, 79, 0
7, 114030, Note_on_c, 1, 78, 76
7, 114044, Note_on_c, 1, 78, 0
7, 114045, Note_on_c, 1, 79, 76
7, 114059, Note_on_c, 1, 79, 0
7, 114060, Note_on_c, 1, 78, 76
7, 114074, Note_on_c, 1, 78, 0
7, 114075, Note_on_c, 1, 79, 76
7, 114089, Note_on_c, 1, 79, 0
7, 114090, Note_on_c, 1, 78, 76
7, 114104, Note_on_c, 1, 78, 0
7, 114105, Note_on_c, 1, 79, 76
7, 114119, Note_on_c, 1, 79, 0
7, 114120, Note_on_c, 1, 76, 76
7, 114171, Note_on_c, 1, 76, 0
7, 114180, Note_on_c, 1, 78, 76
7, 114231, Note_on_c, 1, 78, 0
7, 114240, Note_on_c, 1, 79, 76
7, 114771, Note_on_c, 1, 79, 0
7, 114780, Note_on_c, 1, 81, 76
7, 114831, Note_on_c, 1, 81, 0
7, 114840, Note_on_c, 1, 79, 76
7, 114891, Note_on_c, 1, 79, 0
7, 114900, Note_on_c, 1, 77, 76
7, 114951, Note_on_c, 1, 77, 0
7, 114960, Note_on_c, 1, 76, 76
7, 115011, Note_on_c, 1, 76, 0
7, 115020, Note_on_c, 1, 74, 76
7, 115071, Note_on_c, 1, 74, 0
7, 115080, Note_on_c, 1, 76, 76
7, 115131, Note_on_c, 1, 76, 0
7, 115140, Note_on_c, 1, 72, 76
7, 115191, Note_on_c, 1, 72, 0
7, 115200, Note_on_c, 1, 81, 76
7, 115731, Note_on_c, 1, 81, 0
7, 115740, Note_on_c, 1, 79, 76
7, 115791, Note_on_c, 1, 79, 0
7, 115800, Note_on_c, 1, 81, 76
7, 115851, Note_on_c, 1, 81, 0
7, 115860, Note_on_c, 1, 83, 76
7, 115911, Note_on_c, 1, 83, 0
7, 115920, Note_on_c, 1, 84, 76
7, 115971, Note_on_c, 1, 84, 0
7, 115980, Note_on_c, 1, 81, 76
7, 116031, Note_on_c, 1, 81, 0
7, 116040, Note_on_c, 1, 83, 76
7, 116091, Note_on_c, 1, 83, 0
7, 116100, Note_on_c, 1, 84, 76
7, 116151, Note_on_c, 1, 84, 0
7, 116160, Note_on_c, 1, 77, 76
7, 116211, Note_on_c, 1, 77, 0
7, 116220, Note_on_c, 1, 76, 76
7, 116271, Note_on_c, 1, 76, 0
7, 116280, Note_on_c, 1, 77, 76
7, 116331, Note_on_c, 1, 77, 0
7, 116340, Note_on_c, 1, 79, 76
7, 116391, Note_on_c, 1, 79, 0
7, 116400, Note_on_c, 1, 81, 76
7, 116451, Note_on_c, 1, 81, 0
7, 116460, Note_on_c, 1, 77, 76
7, 116511, Note_on_c, 1, 77, 0
7, 116520, Note_on_c, 1, 79, 76
7, 116571, Note_on_c, 1, 79, 0
7, 116580, Note_on_c, 1, 81, 76
7, 116631, Note_on_c, 1, 81, 0
7, 116640, Note_on_c, 1, 71, 76
7, 116991, Note_on_c, 1, 71, 0
7, 117000, Note_on_c, 1, 72, 76
7, 117111, Note_on_c, 1, 72, 0
7, 117120, Note_on_c, 1, 74, 76
7, 117171, Note_on_c, 1, 74, 0
7, 117180, Note_on_c, 1, 71, 76
7, 117231, Note_on_c, 1, 71, 0
7, 117240, Note_on_c, 1, 67, 76
7, 117291, Note_on_c, 1, 67, 0
7, 117300, Note_on_c, 1, 69, 76
7, 117351, Note_on_c, 1, 69, 0
7, 117360, Note_on_c, 1, 71, 76
7, 117411, Note_on_c, 1, 71, 0
7, 117420, Note_on_c, 1, 72, 76
7, 117471, Note_on_c, 1, 72, 0
7, 117480, Note_on_c, 1, 74, 76
7, 117531, Note_on_c, 1, 74, 0
7, 117540, Note_on_c, 1, 76, 76
7, 117591, Note_on_c, 1, 76, 0
7, 117600, Note_on_c, 1, 77, 76
7, 117951, Note_on_c, 1, 77, 0
7, 117960, Note_on_c, 1, 77, 76
7, 118071, Note_on_c, 1, 77, 0
7, 118080, Note_on_c, 1, 77, 76
7, 118251, Note_on_c, 1, 77, 0
7, 118260, Note_on_c, 1, 76, 76
7, 118289, Note_on_c, 1, 76, 0
7, 118290, Note_on_c, 1, 74, 76
7, 118319, Note_on_c, 1, 74, 0
7, 118320, Note_on_c, 1, 76, 76
7, 118491, Note_on_c, 1, 76, 0
7, 118500, Note_on_c, 1, 77, 76
7, 118529, Note_on_c, 1, 77, 0
7, 118530, Note_on_c, 1, 79, 76
7, 118559, Note_on_c, 1, 79, 0
7, 118560, Note_on_c, 1, 70, 76
7, 118911, Note_on_c, 1, 70, 0
7, 118920, Note_on_c, 1, 70, 76
7, 119031, Note_on_c, 1, 70, 0
7, 119040, Note_on_c, 1, 70, 76
7, 119211, Note_on_c, 1, 70, 0
7, 119220, Note_on_c, 1, 69, 76
7, 119249, Note_on_c, 1, 69, 0
7, 119250, Note_on_c, 1, 67, 76
7, 119279, Note_on_c, 1, 67, 0
7, 119280, Note_on_c, 1, 69, 76
7, 119451, Note_on_c, 1, 69, 0
7, 119460, Note_on_c, 1, 71, 76
7, 119511, Note_on_c, 1, 71, 0
7, 119520, Note_on_c, 1, 72, 76
7, 119871, Note_on_c, 1, 72, 0
7, 119880, Note_on_c, 1, 72, 76
7, 119991, Note_on_c, 1, 72, 0
7, 120000, Note_on_c, 1, 72, 76
7, 120171, Note_on_c, 1, 72, 0
7, 120180, Note_on_c, 1, 71, 76
7, 120209, Note_on_c, 1, 71, 0
7, 120210, Note_on_c, 1, 69, 76
7, 120239, Note_on_c, 1, 69, 0
7, 120240, Note_on_c, 1, 77, 76
7, 120411, Note_on_c, 1, 77, 0
7, 120420, Note_on_c, 1, 76, 76
7, 120449, Note_on_c, 1, 76, 0
7, 120450, Note_on_c, 1, 74, 76
7, 120479, Note_on_c, 1, 74, 0
7, 120480, Note_on_c, 1, 83, 76
7, 120651, Note_on_c, 1, 83, 0
7, 120660, Note_on_c, 1, 81, 76
7, 120689, Note_on_c, 1, 81, 0
7, 120690, Note_on_c, 1, 79, 76
7, 120719, Note_on_c, 1, 79, 0
7, 120720, Note_on_c, 1, 86, 76
7, 120891, Note_on_c, 1, 86, 0
7, 120900, Note_on_c, 1, 77, 76
7, 120951, Note_on_c, 1, 77, 0
7, 120960, Note_on_c, 1, 77, 76
7, 121251, Note_on_c, 1, 77, 0
7, 121260, Note_on_c, 1, 81, 76
7, 121311, Note_on_c, 1, 81, 0
7, 121320, Note_on_c, 1, 79, 76
7, 121371, Note_on_c, 1, 79, 0
7, 121380, Note_on_c, 1, 77, 76
7, 121431, Note_on_c, 1, 77, 0
7, 121440, Note_on_c, 1, 76, 76
7, 121491, Note_on_c, 1, 76, 0
7, 121500, Note_on_c, 1, 72, 76
7, 121551, Note_on_c, 1, 72, 0
7, 121560, Note_on_c, 1, 74, 76
7, 121611, Note_on_c, 1, 74, 0
7, 121620, Note_on_c, 1, 76, 76
7, 121671, Note_on_c, 1, 76, 0
7, 121680, Note_on_c, 1, 77, 76
7, 121731, Note_on_c, 1, 77, 0
7, 121740, Note_on_c, 1, 79, 76
7, 121791, Note_on_c, 1, 79, 0
7, 121800, Note_on_c, 1, 81, 76
7, 121851, Note_on_c, 1, 81, 0
7, 121860, Note_on_c, 1, 82, 76
7, 121911, Note_on_c, 1, 82, 0
7, 121920, Note_on_c, 1, 81, 76
7, 121971, Note_on_c, 1, 81, 0
7, 121980, Note_on_c, 1, 79, 76
7, 122031, Note_on_c, 1, 79, 0
7, 122040, Note_on_c, 1, 77, 76
7, 122091, Note_on_c, 1, 77, 0
7, 122100, Note_on_c, 1, 76, 76
7, 122151, Note_on_c, 1, 76, 0
7, 122160, Note_on_c, 1, 77, 76
7, 122211, Note_on_c, 1, 77, 0
7, 122220, Note_on_c, 1, 74, 76
7, 122271, Note_on_c, 1, 74, 0
7, 122280, Note_on_c, 1, 76, 76
7, 122331, Note_on_c, 1, 76, 0
7, 122340, Note_on_c, 1, 77, 76
7, 122391, Note_on_c, 1, 77, 0
7, 122400, Note_on_c, 1, 67, 76
7, 122721, Note_on_c, 1, 67, 0
7, 122730, Note_on_c, 1, 69, 76
7, 122759, Note_on_c, 1, 69, 0
7, 122760, Note_on_c, 1, 71, 76
7, 122789, Note_on_c, 1, 71, 0
7, 122790, Note_on_c, 1, 72, 76
7, 122819, Note_on_c, 1, 72, 0
7, 122820, Note_on_c, 1, 74, 76
7, 122849, Note_on_c, 1, 74, 0
7, 122850, Note_on_c, 1, 76, 76
7, 122879, Note_on_c, 1, 76, 0
7, 122880, Note_on_c, 1, 77, 76
7, 123051, Note_on_c, 1, 77, 0
7, 123060, Note_on_c, 1, 74, 76
7, 123111, Note_on_c, 1, 74, 0
7, 123120, Note_on_c, 1, 76, 76
7, 123291, Note_on_c, 1, 76, 0
7, 123300, Note_on_c, 1, 77, 76
7, 123351, Note_on_c, 1, 77, 0
7, 123360, Note_on_c, 1, 74, 76
7, 123711, Note_on_c, 1, 74, 0
7, 123720, Note_on_c, 1, 72, 76
7, 123831, Note_on_c, 1, 72, 0
7, 123840, Note_on_c, 1, 72, 76
7, 123944, Note_on_c, 1, 72, 0
7, 123960, Note_on_c, 1, 79, 76
7, 124064, Note_on_c, 1, 79, 0
7, 124080, Note_on_c, 1, 79, 76
7, 124184, Note_on_c, 1, 79, 0
7, 124200, Note_on_c, 1, 79, 76
7, 124304, Note_on_c, 1, 79, 0
7, 124320, Note_on_c, 1, 76, 76
7, 124424, Note_on_c, 1, 76, 0
7, 124440, Note_on_c, 1, 77, 76
7, 124484, Note_on_c, 1, 77, 0
7, 124500, Note_on_c, 1, 79, 76
7, 124544, Note_on_c, 1, 79, 0
7, 124560, Note_on_c, 1, 81, 76
7, 124664, Note_on_c, 1, 81, 0
7, 124680, Note_on_c, 1, 77, 76
7, 124784, Note_on_c, 1, 77, 0
7, 124800, Note_on_c, 1, 74, 76
7, 124904, Note_on_c, 1, 74, 0
7, 124920, Note_on_c, 1, 79, 76
7, 125024, Note_on_c, 1, 79, 0
7, 125040, Note_on_c, 1, 67, 76
7, 125144, Note_on_c, 1, 67, 0
7, 125160, Note_on_c, 1, 77, 76
7, 125264, Note_on_c, 1, 77, 0
7, 125280, Note_on_c, 1, 76, 76
7, 125324, Note_on_c, 1, 76, 0
7, 125340, Note_on_c, 1, 74, 76
7, 125384, Note_on_c, 1, 74, 0
7, 125400, Note_on_c, 1, 72, 76
7, 125444, Note_on_c, 1, 72, 0
7, 125460, Note_on_c, 1, 74, 76
7, 125504, Note_on_c, 1, 74, 0
7, 125520, Note_on_c, 1, 76, 76
7, 125564, Note_on_c, 1, 76, 0
7, 125580, Note_on_c, 1, 74, 76
7, 125624, Note_on_c, 1, 74, 0
7, 125640, Note_on_c, 1, 76, 76
7, 125684, Note_on_c, 1, 76, 0
7, 125700, Note_on_c, 1, 78, 76
7, 125744, Note_on_c, 1, 78, 0
7, 125760, Note_on_c, 1, 79, 76
7, 125924, Note_on_c, 1, 79, 0
7, 125940, Note_on_c, 1, 74, 76
7, 125984, Note_on_c, 1, 74, 0
7, 126000, Note_on_c, 1, 79, 76
7, 126164, Note_on_c, 1, 79, 0
7, 126180, Note_on_c, 1, 79, 76
7, 126224, Note_on_c, 1, 79, 0
7, 126240, Note_on_c, 1, 79, 76
7, 126404, Note_on_c, 1, 79, 0
7, 126420, Note_on_c, 1, 78, 76
7, 126439, Note_on_c, 1, 78, 0
7, 126440, Note_on_c, 1, 76, 76
7, 126459, Note_on_c, 1, 76, 0
7, 126460, Note_on_c, 1, 78, 76
7, 126479, Note_on_c, 1, 78, 0
7, 126480, Note_on_c, 1, 78, 76
7, 126644, Note_on_c, 1, 78, 0
7, 126660, Note_on_c, 1, 79, 76
7, 126704, Note_on_c, 1, 79, 0
7, 126720, Note_on_c, 1, 79, 76
7, 126824, Note_on_c, 1, 79, 0
7, 126840, Note_on_c, 1, 77, 76
7, 126884, Note_on_c, 1, 77, 0
7, 126900, Note_on_c, 1, 76, 76
7, 126944, Note_on_c, 1, 76, 0
7, 126960, Note_on_c, 1, 74, 76
7, 127004, Note_on_c, 1, 74, 0
7, 127020, Note_on_c, 1, 71, 76
7, 127064, Note_on_c, 1, 71, 0
7, 127080, Note_on_c, 1, 72, 76
7, 127124, Note_on_c, 1, 72, 0
7, 127140, Note_on_c, 1, 74, 76
7, 127184, Note_on_c, 1, 74, 0
7, 127200, Note_on_c, 1, 67, 76
7, 127304, Note_on_c, 1, 67, 0
7, 127320, Note_on_c, 1, 79, 76
7, 127424, Note_on_c, 1, 79, 0
7, 127440, Note_on_c, 1, 76, 76
7, 127544, Note_on_c, 1, 76, 0
7, 127560, Note_on_c, 1, 81, 76
7, 127664, Note_on_c, 1, 81, 0
7, 127680, Note_on_c, 1, 77, 76
7, 127724, Note_on_c, 1, 77, 0
7, 127740, Note_on_c, 1, 79, 76
7, 127784, Note_on_c, 1, 79, 0
7, 127800, Note_on_c, 1, 77, 76
7, 127844, Note_on_c, 1, 77, 0
7, 127860, Note_on_c, 1, 76, 76
7, 127904, Note_on_c, 1, 76, 0
7, 127920, Note_on_c, 1, 74, 76
7, 127964, Note_on_c, 1, 74, 0
7, 127980, Note_on_c, 1, 77, 76
7, 128024, Note_on_c, 1, 77, 0
7, 128040, Note_on_c, 1, 76, 76
7, 128084, Note_on_c, 1, 76, 0
7, 128100, Note_on_c, 1, 74, 76
7, 128144, Note_on_c, 1, 74, 0
7, 128160, Note_on_c, 1, 79, 76
7, 128204, Note_on_c, 1, 79, 0
7, 128220, Note_on_c, 1, 77, 76
7, 128264, Note_on_c, 1, 77, 0
7, 128280, Note_on_c, 1, 76, 76
7, 128324, Note_on_c, 1, 76, 0
7, 128340, Note_on_c, 1, 74, 76
7, 128384, Note_on_c, 1, 74, 0
7, 128400, Note_on_c, 1, 72, 76
7, 128444, Note_on_c, 1, 72, 0
7, 128460, Note_on_c, 1, 71, 76
7, 128504, Note_on_c, 1, 71, 0
7, 128520, Note_on_c, 1, 72, 76
7, 128564, Note_on_c, 1, 72, 0
7, 128580, Note_on_c, 1, 69, 76
7, 128624, Note_on_c, 1, 69, 0
7, 128640, Note_on_c, 1, 74, 76
7, 128744, Note_on_c, 1, 74, 0
7, 128760, Note_on_c, 1, 76, 76
7, 128804, Note_on_c, 1, 76, 0
7, 128820, Note_on_c, 1, 78, 76
7, 128864, Note_on_c, 1, 78, 0
7, 128880, Note_on_c, 1, 79, 76
7, 128984, Note_on_c, 1, 79, 0
7, 129000, Note_on_c, 1, 81, 76
7, 129044, Note_on_c, 1, 81, 0
7, 129060, Note_on_c, 1, 83, 76
7, 129104, Note_on_c, 1, 83, 0
7, 129120, Note_on_c, 1, 84, 76
7, 129284, Note_on_c, 1, 84, 0
7, 129300, Note_on_c, 1, 83, 76
7, 129344, Note_on_c, 1, 83, 0
7, 129360, Note_on_c, 1, 81, 76
7, 129389, Note_on_c, 1, 81, 0
7, 129390, Note_on_c, 1, 83, 76
7, 129419, Note_on_c, 1, 83, 0
7, 129420, Note_on_c, 1, 81, 76
7, 129449, Note_on_c, 1, 81, 0
7, 129450, Note_on_c, 1, 83, 76
7, 129479, Note_on_c, 1, 83, 0
7, 129480, Note_on_c, 1, 79, 76
7, 129509, Note_on_c, 1, 79, 0
7, 129510, Note_on_c, 1, 81, 76
7, 129539, Note_on_c, 1, 81, 0
7, 129540, Note_on_c, 1, 79, 76
7, 129584, Note_on_c, 1, 79, 0
7, 129600, Note_on_c, 1, 79, 76
7, 129704, Note_on_c, 1, 79, 0
7, 129720, Note_on_c, 1, 77, 76
7, 129764, Note_on_c, 1, 77, 0
7, 129780, Note_on_c, 1, 76, 76
7, 129824, Note_on_c, 1, 76, 0
7, 129840, Note_on_c, 1, 74, 76
7, 129884, Note_on_c, 1, 74, 0
7, 129900, Note_on_c, 1, 76, 76
7, 129944, Note_on_c, 1, 76, 0
7, 129960, Note_on_c, 1, 77, 76
7, 130004, Note_on_c, 1, 77, 0
7, 130020, Note_on_c, 1, 74, 76
7, 130064, Note_on_c, 1, 74, 0
7, 130080, Note_on_c, 1, 76, 76
7, 130124, Note_on_c, 1, 76, 0
7, 130140, Note_on_c, 1, 79, 76
7, 130184, Note_on_c, 1, 79, 0
7, 130200, Note_on_c, 1, 77, 76
7, 130244, Note_on_c, 1, 77, 0
7, 130260, Note_on_c, 1, 79, 76
7, 130304, Note_on_c, 1, 79, 0
7, 130320, Note_on_c, 1, 81, 76
7, 130364, Note_on_c, 1, 81, 0
7, 130380, Note_on_c, 1, 79, 76
7, 130424, Note_on_c, 1, 79, 0
7, 130440, Note_on_c, 1, 77, 76
7, 130484, Note_on_c, 1, 77, 0
7, 130500, Note_on_c, 1, 76, 76
7, 130544, Note_on_c, 1, 76, 0
7, 130560, Note_on_c, 1, 74, 76
7, 130604, Note_on_c, 1, 74, 0
7, 130620, Note_on_c, 1, 77, 76
7, 130664, Note_on_c, 1, 77, 0
7, 130680, Note_on_c, 1, 76, 76
7, 130724, Note_on_c, 1, 76, 0
7, 130740, Note_on_c, 1, 77, 76
7, 130784, Note_on_c, 1, 77, 0
7, 130800, Note_on_c, 1, 79, 76
7, 130844, Note_on_c, 1, 79, 0
7, 130860, Note_on_c, 1, 77, 76
7, 130904, Note_on_c, 1, 77, 0
7, 130920, Note_on_c, 1, 76, 76
7, 130964, Note_on_c, 1, 76, 0
7, 130980, Note_on_c, 1, 74, 76
7, 131024, Note_on_c, 1, 74, 0
7, 131040, Note_on_c, 1, 72, 76
7, 131084, Note_on_c, 1, 72, 0
7, 131100, Note_on_c, 1, 76, 76
7, 131144, Note_on_c, 1, 76, 0
7, 131160, Note_on_c, 1, 74, 76
7, 131204, Note_on_c, 1, 74, 0
7, 131220, Note_on_c, 1, 76, 76
7, 131264, Note_on_c, 1, 76, 0
7, 131280, Note_on_c, 1, 77, 76
7, 131324, Note_on_c, 1, 77, 0
7, 131340, Note_on_c, 1, 76, 76
7, 131384, Note_on_c, 1, 76, 0
7, 131400, Note_on_c, 1, 74, 76
7, 131444, Note_on_c, 1, 74, 0
7, 131460, Note_on_c, 1, 72, 76
7, 131504, Note_on_c, 1, 72, 0
7, 131520, Note_on_c, 1, 71, 76
7, 131564, Note_on_c, 1, 71, 0
7, 131580, Note_on_c, 1, 74, 76
7, 131624, Note_on_c, 1, 74, 0
7, 131640, Note_on_c, 1, 72, 76
7, 131684, Note_on_c, 1, 72, 0
7, 131700, Note_on_c, 1, 74, 76
7, 131744, Note_on_c, 1, 74, 0
7, 131760, Note_on_c, 1, 76, 76
7, 131804, Note_on_c, 1, 76, 0
7, 131820, Note_on_c, 1, 74, 76
7, 131864, Note_on_c, 1, 74, 0
7, 131880, Note_on_c, 1, 72, 76
7, 131924, Note_on_c, 1, 72, 0
7, 131940, Note_on_c, 1, 71, 76
7, 131984, Note_on_c, 1, 71, 0
7, 132000, Note_on_c, 1, 69, 76
7, 132044, Note_on_c, 1, 69, 0
7, 132060, Note_on_c, 1, 72, 76
7, 132104, Note_on_c, 1, 72, 0
7, 132120, Note_on_c, 1, 71, 76
7, 132164, Note_on_c, 1, 71, 0
7, 132180, Note_on_c, 1, 72, 76
7, 132224, Note_on_c, 1, 72, 0
7, 132240, Note_on_c, 1, 74, 76
7, 132284, Note_on_c, 1, 74, 0
7, 132300, Note_on_c, 1, 72, 76
7, 132344, Note_on_c, 1, 72, 0
7, 132360, Note_on_c, 1, 71, 76
7, 132404, Note_on_c, 1, 71, 0
7, 132420, Note_on_c, 1, 69, 76
7, 132464, Note_on_c, 1, 69, 0
7, 132480, Note_on_c, 1, 71, 76
7, 132584, Note_on_c, 1, 71, 0
7, 132600, Note_on_c, 1, 79, 76
7, 132704, Note_on_c, 1, 79, 0
7, 132720, Note_on_c, 1, 79, 76
7, 132824, Note_on_c, 1, 79, 0
7, 132840, Note_on_c, 1, 79, 76
7, 132944, Note_on_c, 1, 79, 0
7, 132960, Note_on_c, 1, 76, 76
7, 133064, Note_on_c, 1, 76, 0
7, 133080, Note_on_c, 1, 77, 76
7, 133124, Note_on_c, 1, 77, 0
7, 133140, Note_on_c, 1, 79, 76
7, 133184, Note_on_c, 1, 79, 0
7, 133200, Note_on_c, 1, 81, 76
7, 133304, Note_on_c, 1, 81, 0
7, 133320, Note_on_c, 1, 77, 76
7, 133424, Note_on_c, 1, 77, 0
7, 133440, Note_on_c, 1, 74, 76
7, 133544, Note_on_c, 1, 74, 0
7, 133560, Note_on_c, 1, 79, 76
7, 133664, Note_on_c, 1, 79, 0
7, 133680, Note_on_c, 1, 67, 76
7, 133784, Note_on_c, 1, 67, 0
7, 133800, Note_on_c, 1, 77, 76
7, 133904, Note_on_c, 1, 77, 0
7, 133920, Note_on_c, 1, 76, 76
7, 134084, Note_on_c, 1, 76, 0
7, 134100, Note_on_c, 1, 74, 76
7, 134144, Note_on_c, 1, 74, 0
7, 134160, Note_on_c, 1, 74, 76
7, 134324, Note_on_c, 1, 74, 0
7, 134340, Note_on_c, 1, 72, 76
7, 134384, Note_on_c, 1, 72, 0
7, 134400, Note_on_c, 1, 72, 76
7, 134504, Note_on_c, 1, 72, 0
7, 134520, Note_on_c, 1, 76, 76
7, 134624, Note_on_c, 1, 76, 0
7, 134640, Note_on_c, 1, 76, 76
7, 134744, Note_on_c, 1, 76, 0
7, 134760, Note_on_c, 1, 76, 76
7, 134864, Note_on_c, 1, 76, 0
7, 134880, Note_on_c, 1, 72, 76
7, 134984, Note_on_c, 1, 72, 0
7, 135000, Note_on_c, 1, 74, 76
7, 135044, Note_on_c, 1, 74, 0
7, 135060, Note_on_c, 1, 76, 76
7, 135104, Note_on_c, 1, 76, 0
7, 135120, Note_on_c, 1, 77, 76
7, 135224, Note_on_c, 1, 77, 0
7, 135240, Note_on_c, 1, 74, 76
7, 135344, Note_on_c, 1, 74, 0
7, 135360, Note_on_c, 1, 71, 76
7, 135464, Note_on_c, 1, 71, 0
7, 135480, Note_on_c, 1, 76, 76
7, 135584, Note_on_c, 1, 76, 0
7, 135600, Note_on_c, 1, 64, 76
7, 135704, Note_on_c, 1, 64, 0
7, 135720, Note_on_c, 1, 74, 76
7, 135824, Note_on_c, 1, 74, 0
7, 135840, Note_on_c, 1, 72, 76
7, 136064, Note_on_c, 1, 72, 0
7, 136560, Note_on_c, 1, 81, 76
7, 137024, Note_on_c, 1, 81, 0
7, 137040, Note_on_c, 1, 80, 76
7, 137264, Note_on_c, 1, 80, 0
7, 137280, Note_on_c, 1, 81, 76
7, 137504, Note_on_c, 1, 81, 0
7, 137520, Note_on_c, 1, 77, 76
7, 137984, Note_on_c, 1, 77, 0
7, 138000, Note_on_c, 1, 76, 76
7, 138464, Note_on_c, 1, 76, 0
7, 138480, Note_on_c, 1, 74, 76
7, 138944, Note_on_c, 1, 74, 0
7, 138960, Note_on_c, 1, 72, 76
7, 139064, Note_on_c, 1, 72, 0
7, 139080, Note_on_c, 1, 71, 76
7, 139184, Note_on_c, 1, 71, 0
7, 139200, Note_on_c, 1, 69, 76
7, 139424, Note_on_c, 1, 69, 0
7, 139440, Note_on_c, 1, 68, 76
7, 139664, Note_on_c, 1, 68, 0
7, 139680, Note_on_c, 1, 69, 76
7, 139724, Note_on_c, 1, 69, 0
7, 139740, Note_on_c, 1, 72, 76
7, 139784, Note_on_c, 1, 72, 0
7, 139800, Note_on_c, 1, 74, 76
7, 139844, Note_on_c, 1, 74, 0
7, 139860, Note_on_c, 1, 76, 76
7, 139904, Note_on_c, 1, 76, 0
7, 139920, Note_on_c, 1, 77, 76
7, 140024, Note_on_c, 1, 77, 0
7, 140040, Note_on_c, 1, 74, 76
7, 140144, Note_on_c, 1, 74, 0
7, 140160, Note_on_c, 1, 71, 76
7, 140264, Note_on_c, 1, 71, 0
7, 140280, Note_on_c, 1, 76, 76
7, 140384, Note_on_c, 1, 76, 0
7, 140400, Note_on_c, 1, 64, 76
7, 140504, Note_on_c, 1, 64, 0
7, 140520, Note_on_c, 1, 76, 76
7, 140624, Note_on_c, 1, 76, 0
7, 140640, Note_on_c, 1, 69, 76
7, 140744, Note_on_c, 1, 69, 0
7, 140760, Note_on_c, 1, 71, 76
7, 140804, Note_on_c, 1, 71, 0
7, 140820, Note_on_c, 1, 72, 76
7, 140864, Note_on_c, 1, 72, 0
7, 140880, Note_on_c, 1, 74, 76
7, 141164, Note_on_c, 1, 74, 0
7, 141180, Note_on_c, 1, 77, 76
7, 141224, Note_on_c, 1, 77, 0
7, 141240, Note_on_c, 1, 76, 76
7, 141284, Note_on_c, 1, 76, 0
7, 141300, Note_on_c, 1, 74, 76
7, 141344, Note_on_c, 1, 74, 0
7, 141360, Note_on_c, 1, 72, 76
7, 141404, Note_on_c, 1, 72, 0
7, 141420, Note_on_c, 1, 71, 76
7, 141464, Note_on_c, 1, 71, 0
7, 141480, Note_on_c, 1, 72, 76
7, 141524, Note_on_c, 1, 72, 0
7, 141540, Note_on_c, 1, 69, 76
7, 141584, Note_on_c, 1, 69, 0
7, 141600, Note_on_c, 1, 81, 76
7, 141764, Note_on_c, 1, 81, 0
7, 141780, Note_on_c, 1, 83, 76
7, 141824, Note_on_c, 1, 83, 0
7, 141840, Note_on_c, 1, 80, 76
7, 142004, Note_on_c, 1, 80, 0
7, 142020, Note_on_c, 1, 81, 76
7, 142064, Note_on_c, 1, 81, 0
7, 142080, Note_on_c, 1, 81, 76
7, 142124, Note_on_c, 1, 81, 0
7, 142140, Note_on_c, 1, 83, 76
7, 142184, Note_on_c, 1, 83, 0
7, 142200, Note_on_c, 1, 84, 76
7, 142244, Note_on_c, 1, 84, 0
7, 142260, Note_on_c, 1, 83, 76
7, 142304, Note_on_c, 1, 83, 0
7, 142320, Note_on_c, 1, 81, 76
7, 142364, Note_on_c, 1, 81, 0
7, 142380, Note_on_c, 1, 79, 76
7, 142424, Note_on_c, 1, 79, 0
7, 142440, Note_on_c, 1, 81, 76
7, 142484, Note_on_c, 1, 81, 0
7, 142500, Note_on_c, 1, 78, 76
7, 142544, Note_on_c, 1, 78, 0
7, 142560, Note_on_c, 1, 83, 76
7, 142664, Note_on_c, 1, 83, 0
7, 142680, Note_on_c, 1, 71, 76
7, 142784, Note_on_c, 1, 71, 0
7, 142800, Note_on_c, 1, 76, 76
7, 142964, Note_on_c, 1, 76, 0
7, 142980, Note_on_c, 1, 76, 76
7, 143024, Note_on_c, 1, 76, 0
7, 143040, Note_on_c, 1, 76, 76
7, 143084, Note_on_c, 1, 76, 0
7, 143100, Note_on_c, 1, 79, 76
7, 143144, Note_on_c, 1, 79, 0
7, 143160, Note_on_c, 1, 78, 76
7, 143204, Note_on_c, 1, 78, 0
7, 143220, Note_on_c, 1, 76, 76
7, 143264, Note_on_c, 1, 76, 0
7, 143280, Note_on_c, 1, 75, 76
7, 143324, Note_on_c, 1, 75, 0
7, 143340, Note_on_c, 1, 73, 76
7, 143384, Note_on_c, 1, 73, 0
7, 143400, Note_on_c, 1, 75, 76
7, 143444, Note_on_c, 1, 75, 0
7, 143460, Note_on_c, 1, 71, 76
7, 143504, Note_on_c, 1, 71, 0
7, 143520, Note_on_c, 1, 83, 76
7, 143564, Note_on_c, 1, 83, 0
7, 143580, Note_on_c, 1, 81, 76
7, 143624, Note_on_c, 1, 81, 0
7, 143640, Note_on_c, 1, 79, 76
7, 143684, Note_on_c, 1, 79, 0
7, 143700, Note_on_c, 1, 78, 76
7, 143744, Note_on_c, 1, 78, 0
7, 143760, Note_on_c, 1, 76, 76
7, 143804, Note_on_c, 1, 76, 0
7, 143820, Note_on_c, 1, 74, 76
7, 143864, Note_on_c, 1, 74, 0
7, 143880, Note_on_c, 1, 72, 76
7, 143924, Note_on_c, 1, 72, 0
7, 143940, Note_on_c, 1, 71, 76
7, 143984, Note_on_c, 1, 71, 0
7, 144000, Note_on_c, 1, 69, 76
7, 144044, Note_on_c, 1, 69, 0
7, 144060, Note_on_c, 1, 72, 76
7, 144104, Note_on_c, 1, 72, 0
7, 144120, Note_on_c, 1, 74, 76
7, 144164, Note_on_c, 1, 74, 0
7, 144180, Note_on_c, 1, 76, 76
7, 144224, Note_on_c, 1, 76, 0
7, 144240, Note_on_c, 1, 74, 76
7, 144284, Note_on_c, 1, 74, 0
7, 144300, Note_on_c, 1, 72, 76
7, 144344, Note_on_c, 1, 72, 0
7, 144360, Note_on_c, 1, 71, 76
7, 144404, Note_on_c, 1, 71, 0
7, 144420, Note_on_c, 1, 69, 76
7, 144464, Note_on_c, 1, 69, 0
7, 144480, Note_on_c, 1, 74, 76
7, 144644, Note_on_c, 1, 74, 0
7, 144660, Note_on_c, 1, 76, 76
7, 144704, Note_on_c, 1, 76, 0
7, 144720, Note_on_c, 1, 72, 76
7, 144884, Note_on_c, 1, 72, 0
7, 144900, Note_on_c, 1, 71, 76
7, 144944, Note_on_c, 1, 71, 0
7, 144960, Note_on_c, 1, 72, 76
7, 145124, Note_on_c, 1, 72, 0
7, 145140, Note_on_c, 1, 74, 76
7, 145184, Note_on_c, 1, 74, 0
7, 145200, Note_on_c, 1, 71, 76
7, 145364, Note_on_c, 1, 71, 0
7, 145380, Note_on_c, 1, 69, 76
7, 145424, Note_on_c, 1, 69, 0
7, 145440, Note_on_c, 1, 69, 76
7, 145484, Note_on_c, 1, 69, 0
7, 145500, Note_on_c, 1, 76, 76
7, 145544, Note_on_c, 1, 76, 0
7, 145560, Note_on_c, 1, 78, 76
7, 145604, Note_on_c, 1, 78, 0
7, 145620, Note_on_c, 1, 80, 76
7, 145664, Note_on_c, 1, 80, 0
7, 145680, Note_on_c, 1, 81, 76
7, 145964, Note_on_c, 1, 81, 0
7, 145980, Note_on_c, 1, 84, 76
7, 146024, Note_on_c, 1, 84, 0
7, 146040, Note_on_c, 1, 83, 76
7, 146084, Note_on_c, 1, 83, 0
7, 146100, Note_on_c, 1, 81, 76
7, 146144, Note_on_c, 1, 81, 0
7, 146160, Note_on_c, 1, 80, 76
7, 146204, Note_on_c, 1, 80, 0
7, 146220, Note_on_c, 1, 81, 76
7, 146264, Note_on_c, 1, 81, 0
7, 146280, Note_on_c, 1, 83, 76
7, 146324, Note_on_c, 1, 83, 0
7, 146340, Note_on_c, 1, 80, 76
7, 146384, Note_on_c, 1, 80, 0
7, 146400, Note_on_c, 1, 76, 76
7, 146504, Note_on_c, 1, 76, 0
7, 146520, Note_on_c, 1, 76, 76
7, 146624, Note_on_c, 1, 76, 0
7, 146640, Note_on_c, 1, 76, 76
7, 146744, Note_on_c, 1, 76, 0
7, 146760, Note_on_c, 1, 76, 76
7, 146864, Note_on_c, 1, 76, 0
7, 146880, Note_on_c, 1, 72, 76
7, 146984, Note_on_c, 1, 72, 0
7, 147000, Note_on_c, 1, 74, 76
7, 147044, Note_on_c, 1, 74, 0
7, 147060, Note_on_c, 1, 76, 76
7, 147104, Note_on_c, 1, 76, 0
7, 147120, Note_on_c, 1, 77, 76
7, 147224, Note_on_c, 1, 77, 0
7, 147240, Note_on_c, 1, 74, 76
7, 147344, Note_on_c, 1, 74, 0
7, 147360, Note_on_c, 1, 71, 76
7, 147464, Note_on_c, 1, 71, 0
7, 147480, Note_on_c, 1, 76, 76
7, 147584, Note_on_c, 1, 76, 0
7, 147600, Note_on_c, 1, 64, 76
7, 147704, Note_on_c, 1, 64, 0
7, 147720, Note_on_c, 1, 74, 76
7, 147824, Note_on_c, 1, 74, 0
7, 147840, Note_on_c, 1, 72, 76
7, 148004, Note_on_c, 1, 72, 0
7, 148020, Note_on_c, 1, 71, 76
7, 148064, Note_on_c, 1, 71, 0
7, 148080, Note_on_c, 1, 71, 76
7, 148244, Note_on_c, 1, 71, 0
7, 148260, Note_on_c, 1, 69, 76
7, 148304, Note_on_c, 1, 69, 0
7, 148320, Note_on_c, 1, 69, 76
7, 148364, Note_on_c, 1, 69, 0
7, 148380, Note_on_c, 1, 77, 76
7, 148424, Note_on_c, 1, 77, 0
7, 148440, Note_on_c, 1, 76, 76
7, 148484, Note_on_c, 1, 76, 0
7, 148500, Note_on_c, 1, 74, 76
7, 148544, Note_on_c, 1, 74, 0
7, 148560, Note_on_c, 1, 72, 76
7, 148604, Note_on_c, 1, 72, 0
7, 148620, Note_on_c, 1, 71, 76
7, 148664, Note_on_c, 1, 71, 0
7, 148680, Note_on_c, 1, 72, 76
7, 148724, Note_on_c, 1, 72, 0
7, 148740, Note_on_c, 1, 69, 76
7, 148784, Note_on_c, 1, 69, 0
7, 148800, Note_on_c, 1, 76, 76
7, 149504, Note_on_c, 1, 76, 0
7, 149520, Note_on_c, 1, 75, 76
7, 149744, Note_on_c, 1, 75, 0
7, 149760, Note_on_c, 1, 76, 76
7, 150284, Note_on_c, 1, 76, 0
7, 150300, Note_on_c, 1, 77, 76
7, 150344, Note_on_c, 1, 77, 0
7, 150360, Note_on_c, 1, 76, 76
7, 150404, Note_on_c, 1, 76, 0
7, 150420, Note_on_c, 1, 74, 76
7, 150464, Note_on_c, 1, 74, 0
7, 150480, Note_on_c, 1, 73, 76
7, 150524, Note_on_c, 1, 73, 0
7, 150540, Note_on_c, 1, 71, 76
7, 150584, Note_on_c, 1, 71, 0
7, 150600, Note_on_c, 1, 73, 76
7, 150644, Note_on_c, 1, 73, 0
7, 150660, Note_on_c, 1, 69, 76
7, 150704, Note_on_c, 1, 69, 0
7, 150720, Note_on_c, 1, 74, 76
7, 151424, Note_on_c, 1, 74, 0
7, 151440, Note_on_c, 1, 73, 76
7, 151664, Note_on_c, 1, 73, 0
7, 151680, Note_on_c, 1, 74, 76
7, 152204, Note_on_c, 1, 74, 0
7, 152220, Note_on_c, 1, 76, 76
7, 152264, Note_on_c, 1, 76, 0
7, 152280, Note_on_c, 1, 74, 76
7, 152324, Note_on_c, 1, 74, 0
7, 152340, Note_on_c, 1, 72, 76
7, 152384, Note_on_c, 1, 72, 0
7, 152400, Note_on_c, 1, 71, 76
7, 152444, Note_on_c, 1, 71, 0
7, 152460, Note_on_c, 1, 69, 76
7, 152504, Note_on_c, 1, 69, 0
7, 152520, Note_on_c, 1, 71, 76
7, 152564, Note_on_c, 1, 71, 0
7, 152580, Note_on_c, 1, 67, 76
7, 152624, Note_on_c, 1, 67, 0
7, 152640, Note_on_c, 1, 72, 76
7, 153344, Note_on_c, 1, 72, 0
7, 153360, Note_on_c, 1, 71, 76
7, 153584, Note_on_c, 1, 71, 0
7, 153600, Note_on_c, 1, 72, 76
7, 153644, Note_on_c, 1, 72, 0
7, 153660, Note_on_c, 1, 71, 76
7, 153704, Note_on_c, 1, 71, 0
7, 153720, Note_on_c, 1, 72, 76
7, 153764, Note_on_c, 1, 72, 0
7, 153780, Note_on_c, 1, 74, 76
7, 153824, Note_on_c, 1, 74, 0
7, 153840, Note_on_c, 1, 76, 76
7, 153884, Note_on_c, 1, 76, 0
7, 153900, Note_on_c, 1, 74, 76
7, 153944, Note_on_c, 1, 74, 0
7, 153960, Note_on_c, 1, 76, 76
7, 154004, Note_on_c, 1, 76, 0
7, 154020, Note_on_c, 1, 78, 76
7, 154064, Note_on_c, 1, 78, 0
7, 154080, Note_on_c, 1, 79, 76
7, 154244, Note_on_c, 1, 79, 0
7, 154260, Note_on_c, 1, 74, 76
7, 154304, Note_on_c, 1, 74, 0
7, 154320, Note_on_c, 1, 79, 76
7, 154484, Note_on_c, 1, 79, 0
7, 154500, Note_on_c, 1, 79, 76
7, 154544, Note_on_c, 1, 79, 0
7, 154560, Note_on_c, 1, 79, 76
7, 154724, Note_on_c, 1, 79, 0
7, 154740, Note_on_c, 1, 78, 76
7, 154759, Note_on_c, 1, 78, 0
7, 154760, Note_on_c, 1, 76, 76
7, 154779, Note_on_c, 1, 76, 0
7, 154780, Note_on_c, 1, 78, 76
7, 154799, Note_on_c, 1, 78, 0
7, 154800, Note_on_c, 1, 78, 76
7, 154829, Note_on_c, 1, 78, 0
7, 154830, Note_on_c, 1, 79, 76
7, 154859, Note_on_c, 1, 79, 0
7, 154860, Note_on_c, 1, 78, 76
7, 154889, Note_on_c, 1, 78, 0
7, 154890, Note_on_c, 1, 79, 76
7, 154919, Note_on_c, 1, 79, 0
7, 154920, Note_on_c, 1, 76, 76
7, 154949, Note_on_c, 1, 76, 0
7, 154950, Note_on_c, 1, 78, 76
7, 154979, Note_on_c, 1, 78, 0
7, 154980, Note_on_c, 1, 79, 76
7, 155024, Note_on_c, 1, 79, 0
7, 155040, Note_on_c, 1, 79, 76
7, 155279, Note_on_c, 1, 79, 0
7, 155400, Note_on_c, 1, 76, 76
7, 155564, Note_on_c, 1, 76, 0
7, 155580, Note_on_c, 1, 79, 76
7, 155624, Note_on_c, 1, 79, 0
7, 155640, Note_on_c, 1, 78, 76
7, 155684, Note_on_c, 1, 78, 0
7, 155700, Note_on_c, 1, 76, 76
7, 155744, Note_on_c, 1, 76, 0
7, 155760, Note_on_c, 1, 74, 76
7, 155804, Note_on_c, 1, 74, 0
7, 155820, Note_on_c, 1, 72, 76
7, 155864, Note_on_c, 1, 72, 0
7, 155880, Note_on_c, 1, 71, 76
7, 155924, Note_on_c, 1, 71, 0
7, 155940, Note_on_c, 1, 69, 76
7, 155984, Note_on_c, 1, 69, 0
7, 156000, Note_on_c, 1, 67, 76
7, 156044, Note_on_c, 1, 67, 0
7, 156060, Note_on_c, 1, 71, 76
7, 156104, Note_on_c, 1, 71, 0
7, 156120, Note_on_c, 1, 69, 76
7, 156164, Note_on_c, 1, 69, 0
7, 156180, Note_on_c, 1, 67, 76
7, 156224, Note_on_c, 1, 67, 0
7, 156240, Note_on_c, 1, 72, 76
7, 156284, Note_on_c, 1, 72, 0
7, 156300, Note_on_c, 1, 76, 76
7, 156344, Note_on_c, 1, 76, 0
7, 156360, Note_on_c, 1, 74, 76
7, 156404, Note_on_c, 1, 74, 0
7, 156420, Note_on_c, 1, 72, 76
7, 156464, Note_on_c, 1, 72, 0
7, 156480, Note_on_c, 1, 81, 76
7, 156584, Note_on_c, 1, 81, 0
7, 156600, Note_on_c, 1, 74, 76
7, 156704, Note_on_c, 1, 74, 0
7, 156720, Note_on_c, 1, 79, 76
7, 156884, Note_on_c, 1, 79, 0
7, 156900, Note_on_c, 1, 79, 76
7, 156944, Note_on_c, 1, 79, 0
7, 156960, Note_on_c, 1, 79, 76
7, 157004, Note_on_c, 1, 79, 0
7, 157020, Note_on_c, 1, 78, 76
7, 157064, Note_on_c, 1, 78, 0
7, 157080, Note_on_c, 1, 79, 76
7, 157124, Note_on_c, 1, 79, 0
7, 157140, Note_on_c, 1, 76, 76
7, 157184, Note_on_c, 1, 76, 0
7, 157200, Note_on_c, 1, 78, 76
7, 157364, Note_on_c, 1, 78, 0
7, 157380, Note_on_c, 1, 78, 76
7, 157424, Note_on_c, 1, 78, 0
7, 157440, Note_on_c, 1, 78, 76
7, 157544, Note_on_c, 1, 78, 0
7, 157560, Note_on_c, 1, 71, 76
7, 157664, Note_on_c, 1, 71, 0
7, 157680, Note_on_c, 1, 76, 76
7, 157844, Note_on_c, 1, 76, 0
7, 157860, Note_on_c, 1, 76, 76
7, 157904, Note_on_c, 1, 76, 0
7, 157920, Note_on_c, 1, 76, 76
7, 157964, Note_on_c, 1, 76, 0
7, 157980, Note_on_c, 1, 74, 76
7, 158024, Note_on_c, 1, 74, 0
7, 158040, Note_on_c, 1, 76, 76
7, 158084, Note_on_c, 1, 76, 0
7, 158100, Note_on_c, 1, 72, 76
7, 158144, Note_on_c, 1, 72, 0
7, 158160, Note_on_c, 1, 74, 76
7, 158324, Note_on_c, 1, 74, 0
7, 158340, Note_on_c, 1, 74, 76
7, 158384, Note_on_c, 1, 74, 0
7, 158400, Note_on_c, 1, 74, 76
7, 158504, Note_on_c, 1, 74, 0
7, 158520, Note_on_c, 1, 67, 76
7, 158624, Note_on_c, 1, 67, 0
7, 158640, Note_on_c, 1, 72, 76
7, 158804, Note_on_c, 1, 72, 0
7, 158820, Note_on_c, 1, 72, 76
7, 158864, Note_on_c, 1, 72, 0
7, 158880, Note_on_c, 1, 72, 76
7, 158924, Note_on_c, 1, 72, 0
7, 158940, Note_on_c, 1, 76, 76
7, 158984, Note_on_c, 1, 76, 0
7, 159000, Note_on_c, 1, 74, 76
7, 159044, Note_on_c, 1, 74, 0
7, 159060, Note_on_c, 1, 72, 76
7, 159104, Note_on_c, 1, 72, 0
7, 159120, Note_on_c, 1, 71, 76
7, 159164, Note_on_c, 1, 71, 0
7, 159180, Note_on_c, 1, 69, 76
7, 159224, Note_on_c, 1, 69, 0
7, 159240, Note_on_c, 1, 67, 76
7, 159284, Note_on_c, 1, 67, 0
7, 159300, Note_on_c, 1, 66, 76
7, 159344, Note_on_c, 1, 66, 0
7, 159360, Note_on_c, 1, 67, 76
7, 159404, Note_on_c, 1, 67, 0
7, 159420, Note_on_c, 1, 71, 76
7, 159464, Note_on_c, 1, 71, 0
7, 159480, Note_on_c, 1, 76, 76
7, 159524, Note_on_c, 1, 76, 0
7, 159540, Note_on_c, 1, 74, 76
7, 159584, Note_on_c, 1, 74, 0
7, 159600, Note_on_c, 1, 72, 76
7, 159644, Note_on_c, 1, 72, 0
7, 159660, Note_on_c, 1, 71, 76
7, 159704, Note_on_c, 1, 71, 0
7, 159720, Note_on_c, 1, 69, 76
7, 159764, Note_on_c, 1, 69, 0
7, 159780, Note_on_c, 1, 67, 76
7, 159824, Note_on_c, 1, 67, 0
7, 159840, Note_on_c, 1, 78, 76
7, 159884, Note_on_c, 1, 78, 0
7, 159900, Note_on_c, 1, 76, 76
7, 159944, Note_on_c, 1, 76, 0
7, 159960, Note_on_c, 1, 74, 76
7, 160004, Note_on_c, 1, 74, 0
7, 160020, Note_on_c, 1, 76, 76
7, 160064, Note_on_c, 1, 76, 0
7, 160080, Note_on_c, 1, 78, 76
7, 160124, Note_on_c, 1, 78, 0
7, 160140, Note_on_c, 1, 76, 76
7, 160184, Note_on_c, 1, 76, 0
7, 160200, Note_on_c, 1, 78, 76
7, 160244, Note_on_c, 1, 78, 0
7, 160260, Note_on_c, 1, 74, 76
7, 160304, Note_on_c, 1, 74, 0
7, 160320, Note_on_c, 1, 79, 76
7, 160484, Note_on_c, 1, 79, 0
7, 160500, Note_on_c, 1, 81, 76
7, 160544, Note_on_c, 1, 81, 0
7, 160560, Note_on_c, 1, 78, 76
7, 160724, Note_on_c, 1, 78, 0
7, 160740, Note_on_c, 1, 79, 76
7, 160784, Note_on_c, 1, 79, 0
7, 160800, Note_on_c, 1, 79, 76
7, 160904, Note_on_c, 1, 79, 0
7, 160920, Note_on_c, 1, 74, 76
7, 161024, Note_on_c, 1, 74, 0
7, 161040, Note_on_c, 1, 74, 76
7, 161144, Note_on_c, 1, 74, 0
7, 161160, Note_on_c, 1, 74, 76
7, 161264, Note_on_c, 1, 74, 0
7, 161280, Note_on_c, 1, 71, 76
7, 161384, Note_on_c, 1, 71, 0
7, 161400, Note_on_c, 1, 72, 76
7, 161444, Note_on_c, 1, 72, 0
7, 161460, Note_on_c, 1, 74, 76
7, 161504, Note_on_c, 1, 74, 0
7, 161520, Note_on_c, 1, 76, 76
7, 161624, Note_on_c, 1, 76, 0
7, 161640, Note_on_c, 1, 72, 76
7, 161744, Note_on_c, 1, 72, 0
7, 161760, Note_on_c, 1, 69, 76
7, 161864, Note_on_c, 1, 69, 0
7, 161880, Note_on_c, 1, 74, 76
7, 161984, Note_on_c, 1, 74, 0
7, 162000, Note_on_c, 1, 62, 76
7, 162104, Note_on_c, 1, 62, 0
7, 162120, Note_on_c, 1, 72, 76
7, 162224, Note_on_c, 1, 72, 0
7, 162240, Note_on_c, 1, 71, 76
7, 162479, Note_on_c, 1, 71, 0
7, 162960, Note_on_c, 1, 79, 76
7, 163424, Note_on_c, 1, 79, 0
7, 163440, Note_on_c, 1, 78, 76
7, 163664, Note_on_c, 1, 78, 0
7, 163680, Note_on_c, 1, 79, 76
7, 163724, Note_on_c, 1, 79, 0
7, 163740, Note_on_c, 1, 83, 76
7, 163784, Note_on_c, 1, 83, 0
7, 163800, Note_on_c, 1, 81, 76
7, 163844, Note_on_c, 1, 81, 0
7, 163860, Note_on_c, 1, 79, 76
7, 163904, Note_on_c, 1, 79, 0
7, 163920, Note_on_c, 1, 78, 76
7, 163964, Note_on_c, 1, 78, 0
7, 163980, Note_on_c, 1, 76, 76
7, 164024, Note_on_c, 1, 76, 0
7, 164040, Note_on_c, 1, 78, 76
7, 164084, Note_on_c, 1, 78, 0
7, 164100, Note_on_c, 1, 74, 76
7, 164144, Note_on_c, 1, 74, 0
7, 164160, Note_on_c, 1, 76, 76
7, 164864, Note_on_c, 1, 76, 0
7, 164880, Note_on_c, 1, 75, 76
7, 165104, Note_on_c, 1, 75, 0
7, 165120, Note_on_c, 1, 76, 76
7, 165224, Note_on_c, 1, 76, 0
7, 165240, Note_on_c, 1, 76, 76
7, 165284, Note_on_c, 1, 76, 0
7, 165300, Note_on_c, 1, 75, 76
7, 165344, Note_on_c, 1, 75, 0
7, 165360, Note_on_c, 1, 76, 76
7, 165464, Note_on_c, 1, 76, 0
7, 165480, Note_on_c, 1, 71, 76
7, 165584, Note_on_c, 1, 71, 0
7, 165600, Note_on_c, 1, 64, 76
7, 165704, Note_on_c, 1, 64, 0
7, 165720, Note_on_c, 1, 66, 76
7, 165764, Note_on_c, 1, 66, 0
7, 165780, Note_on_c, 1, 67, 76
7, 165824, Note_on_c, 1, 67, 0
7, 165840, Note_on_c, 1, 69, 76
7, 165884, Note_on_c, 1, 69, 0
7, 165900, Note_on_c, 1, 67, 76
7, 165944, Note_on_c, 1, 67, 0
7, 165960, Note_on_c, 1, 66, 76
7, 166004, Note_on_c, 1, 66, 0
7, 166020, Note_on_c, 1, 64, 76
7, 166064, Note_on_c, 1, 64, 0
7, 166080, Note_on_c, 1, 71, 76
7, 166184, Note_on_c, 1, 71, 0
7, 166200, Note_on_c, 1, 69, 76
7, 166304, Note_on_c, 1, 69, 0
7, 166320, Note_on_c, 1, 67, 76
7, 166424, Note_on_c, 1, 67, 0
7, 166440, Note_on_c, 1, 66, 76
7, 166544, Note_on_c, 1, 66, 0
7, 166560, Note_on_c, 1, 64, 76
7, 166799, Note_on_c, 1, 64, 0
7, 167160, Note_on_c, 1, 71, 76
7, 167264, Note_on_c, 1, 71, 0
7, 167280, Note_on_c, 1, 76, 76
7, 167384, Note_on_c, 1, 76, 0
7, 167400, Note_on_c, 1, 74, 76
7, 167504, Note_on_c, 1, 74, 0
7, 167520, Note_on_c, 1, 72, 76
7, 168104, Note_on_c, 1, 72, 0
7, 168120, Note_on_c, 1, 62, 76
7, 168224, Note_on_c, 1, 62, 0
7, 168240, Note_on_c, 1, 69, 76
7, 168344, Note_on_c, 1, 69, 0
7, 168360, Note_on_c, 1, 72, 76
7, 168464, Note_on_c, 1, 72, 0
7, 168480, Note_on_c, 1, 71, 76
7, 168719, Note_on_c, 1, 71, 0
7, 169080, Note_on_c, 1, 78, 76
7, 169184, Note_on_c, 1, 78, 0
7, 169200, Note_on_c, 1, 78, 76
7, 169304, Note_on_c, 1, 78, 0
7, 169320, Note_on_c, 1, 78, 76
7, 169424, Note_on_c, 1, 78, 0
7, 169440, Note_on_c, 1, 71, 76
7, 169544, Note_on_c, 1, 71, 0
7, 169560, Note_on_c, 1, 73, 76
7, 169604, Note_on_c, 1, 73, 0
7, 169620, Note_on_c, 1, 75, 76
7, 169664, Note_on_c, 1, 75, 0
7, 169680, Note_on_c, 1, 76, 76
7, 170024, Note_on_c, 1, 76, 0
7, 170040, Note_on_c, 1, 74, 76
7, 170084, Note_on_c, 1, 74, 0
7, 170100, Note_on_c, 1, 72, 76
7, 170144, Note_on_c, 1, 72, 0
7, 170160, Note_on_c, 1, 74, 76
7, 170624, Note_on_c, 1, 74, 0
7, 170640, Note_on_c, 1, 72, 76
7, 170924, Note_on_c, 1, 72, 0
7, 170940, Note_on_c, 1, 72, 76
7, 170984, Note_on_c, 1, 72, 0
7, 171000, Note_on_c, 1, 71, 76
7, 171044, Note_on_c, 1, 71, 0
7, 171060, Note_on_c, 1, 69, 76
7, 171104, Note_on_c, 1, 69, 0
7, 171120, Note_on_c, 1, 68, 76
7, 171164, Note_on_c, 1, 68, 0
7, 171180, Note_on_c, 1, 69, 76
7, 171224, Note_on_c, 1, 69, 0
7, 171240, Note_on_c, 1, 71, 76
7, 171284, Note_on_c, 1, 71, 0
7, 171300, Note_on_c, 1, 68, 76
7, 171344, Note_on_c, 1, 68, 0
7, 171360, Note_on_c, 1, 64, 76
7, 171464, Note_on_c, 1, 64, 0
7, 171480, Note_on_c, 1, 68, 76
7, 171584, Note_on_c, 1, 68, 0
7, 171600, Note_on_c, 1, 69, 76
7, 171884, Note_on_c, 1, 69, 0
7, 171900, Note_on_c, 1, 77, 76
7, 171944, Note_on_c, 1, 77, 0
7, 171960, Note_on_c, 1, 76, 76
7, 172004, Note_on_c, 1, 76, 0
7, 172020, Note_on_c, 1, 74, 76
7, 172064, Note_on_c, 1, 74, 0
7, 172080, Note_on_c, 1, 72, 76
7, 172124, Note_on_c, 1, 72, 0
7, 172140, Note_on_c, 1, 71, 76
7, 172184, Note_on_c, 1, 71, 0
7, 172200, Note_on_c, 1, 72, 76
7, 172244, Note_on_c, 1, 72, 0
7, 172260, Note_on_c, 1, 69, 76
7, 172304, Note_on_c, 1, 69, 0
7, 172320, Note_on_c, 1, 74, 76
7, 172364, Note_on_c, 1, 74, 0
7, 172380, Note_on_c, 1, 76, 76
7, 172424, Note_on_c, 1, 76, 0
7, 172440, Note_on_c, 1, 74, 76
7, 172484, Note_on_c, 1, 74, 0
7, 172500, Note_on_c, 1, 72, 76
7, 172544, Note_on_c, 1, 72, 0
7, 172560, Note_on_c, 1, 71, 76
7, 172604, Note_on_c, 1, 71, 0
7, 172620, Note_on_c, 1, 69, 76
7, 172664, Note_on_c, 1, 69, 0
7, 172680, Note_on_c, 1, 71, 76
7, 172724, Note_on_c, 1, 71, 0
7, 172740, Note_on_c, 1, 64, 76
7, 172784, Note_on_c, 1, 64, 0
7, 172800, Note_on_c, 1, 72, 76
7, 173519, Note_on_c, 1, 72, 0
7, 173820, Note_on_c, 1, 75, 76
7, 173864, Note_on_c, 1, 75, 0
7, 173880, Note_on_c, 1, 74, 76
7, 173924, Note_on_c, 1, 74, 0
7, 173940, Note_on_c, 1, 72, 76
7, 173984, Note_on_c, 1, 72, 0
7, 174000, Note_on_c, 1, 70, 76
7, 174044, Note_on_c, 1, 70, 0
7, 174060, Note_on_c, 1, 69, 76
7, 174104, Note_on_c, 1, 69, 0
7, 174120, Note_on_c, 1, 70, 76
7, 174164, Note_on_c, 1, 70, 0
7, 174180, Note_on_c, 1, 67, 76
7, 174224, Note_on_c, 1, 67, 0
7, 174240, Note_on_c, 1, 72, 76
7, 174284, Note_on_c, 1, 72, 0
7, 174300, Note_on_c, 1, 74, 76
7, 174344, Note_on_c, 1, 74, 0
7, 174360, Note_on_c, 1, 72, 76
7, 174404, Note_on_c, 1, 72, 0
7, 174420, Note_on_c, 1, 70, 76
7, 174464, Note_on_c, 1, 70, 0
7, 174480, Note_on_c, 1, 69, 76
7, 174524, Note_on_c, 1, 69, 0
7, 174540, Note_on_c, 1, 67, 76
7, 174584, Note_on_c, 1, 67, 0
7, 174600, Note_on_c, 1, 69, 76
7, 174644, Note_on_c, 1, 69, 0
7, 174660, Note_on_c, 1, 62, 76
7, 174704, Note_on_c, 1, 62, 0
7, 174720, Note_on_c, 1, 70, 76
7, 175439, Note_on_c, 1, 70, 0
7, 175740, Note_on_c, 1, 74, 76
7, 175784, Note_on_c, 1, 74, 0
7, 175800, Note_on_c, 1, 72, 76
7, 175844, Note_on_c, 1, 72, 0
7, 175860, Note_on_c, 1, 70, 76
7, 175904, Note_on_c, 1, 70, 0
7, 175920, Note_on_c, 1, 69, 76
7, 175964, Note_on_c, 1, 69, 0
7, 175980, Note_on_c, 1, 67, 76
7, 176024, Note_on_c, 1, 67, 0
7, 176040, Note_on_c, 1, 69, 76
7, 176084, Note_on_c, 1, 69, 0
7, 176100, Note_on_c, 1, 65, 76
7, 176144, Note_on_c, 1, 65, 0
7, 176160, Note_on_c, 1, 70, 76
7, 176204, Note_on_c, 1, 70, 0
7, 176220, Note_on_c, 1, 72, 76
7, 176264, Note_on_c, 1, 72, 0
7, 176280, Note_on_c, 1, 70, 76
7, 176324, Note_on_c, 1, 70, 0
7, 176340, Note_on_c, 1, 69, 76
7, 176384, Note_on_c, 1, 69, 0
7, 176400, Note_on_c, 1, 67, 76
7, 176444, Note_on_c, 1, 67, 0
7, 176460, Note_on_c, 1, 65, 76
7, 176504, Note_on_c, 1, 65, 0
7, 176520, Note_on_c, 1, 67, 76
7, 176564, Note_on_c, 1, 67, 0
7, 176580, Note_on_c, 1, 60, 76
7, 176624, Note_on_c, 1, 60, 0
7, 176640, Note_on_c, 1, 69, 76
7, 176684, Note_on_c, 1, 69, 0
7, 176700, Note_on_c, 1, 67, 76
7, 176744, Note_on_c, 1, 67, 0
7, 176760, Note_on_c, 1, 65, 76
7, 176804, Note_on_c, 1, 65, 0
7, 176820, Note_on_c, 1, 67, 76
7, 176864, Note_on_c, 1, 67, 0
7, 176880, Note_on_c, 1, 69, 76
7, 176924, Note_on_c, 1, 69, 0
7, 176940, Note_on_c, 1, 67, 76
7, 176984, Note_on_c, 1, 67, 0
7, 177000, Note_on_c, 1, 69, 76
7, 177044, Note_on_c, 1, 69, 0
7, 177060, Note_on_c, 1, 71, 76
7, 177104, Note_on_c, 1, 71, 0
7, 177120, Note_on_c, 1, 72, 76
7, 177284, Note_on_c, 1, 72, 0
7, 177300, Note_on_c, 1, 67, 76
7, 177344, Note_on_c, 1, 67, 0
7, 177360, Note_on_c, 1, 72, 76
7, 177524, Note_on_c, 1, 72, 0
7, 177540, Note_on_c, 1, 72, 76
7, 177584, Note_on_c, 1, 72, 0
7, 177600, Note_on_c, 1, 72, 76
7, 177764, Note_on_c, 1, 72, 0
7, 177780, Note_on_c, 1, 71, 76
7, 177799, Note_on_c, 1, 71, 0
7, 177800, Note_on_c, 1, 69, 76
7, 177819, Note_on_c, 1, 69, 0
7, 177820, Note_on_c, 1, 71, 76
7, 177839, Note_on_c, 1, 71, 0
7, 177840, Note_on_c, 1, 71, 76
7, 178004, Note_on_c, 1, 71, 0
7, 178020, Note_on_c, 1, 72, 76
7, 178064, Note_on_c, 1, 72, 0
7, 178080, Note_on_c, 1, 72, 76
7, 178319, Note_on_c, 1, 72, 0
7, 178440, Note_on_c, 1, 81, 76
7, 178604, Note_on_c, 1, 81, 0
7, 178620, Note_on_c, 1, 84, 76
7, 178664, Note_on_c, 1, 84, 0
7, 178680, Note_on_c, 1, 83, 76
7, 178724, Note_on_c, 1, 83, 0
7, 178740, Note_on_c, 1, 81, 76
7, 178784, Note_on_c, 1, 81, 0
7, 178800, Note_on_c, 1, 79, 76
7, 178844, Note_on_c, 1, 79, 0
7, 178860, Note_on_c, 1, 77, 76
7, 178904, Note_on_c, 1, 77, 0
7, 178920, Note_on_c, 1, 76, 76
7, 178964, Note_on_c, 1, 76, 0
7, 178980, Note_on_c, 1, 74, 76
7, 179024, Note_on_c, 1, 74, 0
7, 179040, Note_on_c, 1, 72, 76
7, 179084, Note_on_c, 1, 72, 0
7, 179100, Note_on_c, 1, 76, 76
7, 179144, Note_on_c, 1, 76, 0
7, 179160, Note_on_c, 1, 74, 76
7, 179204, Note_on_c, 1, 74, 0
7, 179220, Note_on_c, 1, 72, 76
7, 179264, Note_on_c, 1, 72, 0
7, 179280, Note_on_c, 1, 77, 76
7, 179444, Note_on_c, 1, 77, 0
7, 179460, Note_on_c, 1, 77, 76
7, 179504, Note_on_c, 1, 77, 0
7, 179520, Note_on_c, 1, 77, 76
7, 179564, Note_on_c, 1, 77, 0
7, 179580, Note_on_c, 1, 76, 76
7, 179624, Note_on_c, 1, 76, 0
7, 179640, Note_on_c, 1, 74, 76
7, 179684, Note_on_c, 1, 74, 0
7, 179700, Note_on_c, 1, 76, 76
7, 179744, Note_on_c, 1, 76, 0
7, 179760, Note_on_c, 1, 76, 76
7, 179789, Note_on_c, 1, 76, 0
7, 179790, Note_on_c, 1, 77, 76
7, 179819, Note_on_c, 1, 77, 0
7, 179820, Note_on_c, 1, 76, 76
7, 179849, Note_on_c, 1, 76, 0
7, 179850, Note_on_c, 1, 77, 76
7, 179879, Note_on_c, 1, 77, 0
7, 179880, Note_on_c, 1, 74, 76
7, 179909, Note_on_c, 1, 74, 0
7, 179910, Note_on_c, 1, 76, 76
7, 179939, Note_on_c, 1, 76, 0
7, 179940, Note_on_c, 1, 76, 76
7, 179984, Note_on_c, 1, 76, 0
7, 180000, Note_on_c, 1, 76, 76
7, 180044, Note_on_c, 1, 76, 0
7, 180060, Note_on_c, 1, 69, 76
7, 180104, Note_on_c, 1, 69, 0
7, 180120, Note_on_c, 1, 71, 76
7, 180164, Note_on_c, 1, 71, 0
7, 180180, Note_on_c, 1, 72, 76
7, 180224, Note_on_c, 1, 72, 0
7, 180240, Note_on_c, 1, 74, 76
7, 180404, Note_on_c, 1, 74, 0
7, 180420, Note_on_c, 1, 74, 76
7, 180464, Note_on_c, 1, 74, 0
7, 180480, Note_on_c, 1, 74, 76
7, 180524, Note_on_c, 1, 74, 0
7, 180540, Note_on_c, 1, 72, 76
7, 180584, Note_on_c, 1, 72, 0
7, 180600, Note_on_c, 1, 74, 76
7, 180644, Note_on_c, 1, 74, 0
7, 180660, Note_on_c, 1, 71, 76
7, 180704, Note_on_c, 1, 71, 0
7, 180720, Note_on_c, 1, 72, 76
7, 180764, Note_on_c, 1, 72, 0
7, 180780, Note_on_c, 1, 76, 76
7, 180824, Note_on_c, 1, 76, 0
7, 180840, Note_on_c, 1, 74, 76
7, 180884, Note_on_c, 1, 74, 0
7, 180900, Note_on_c, 1, 76, 76
7, 180944, Note_on_c, 1, 76, 0
7, 180960, Note_on_c, 1, 77, 76
7, 181004, Note_on_c, 1, 77, 0
7, 181020, Note_on_c, 1, 79, 76
7, 181064, Note_on_c, 1, 79, 0
7, 181080, Note_on_c, 1, 77, 76
7, 181124, Note_on_c, 1, 77, 0
7, 181140, Note_on_c, 1, 76, 76
7, 181184, Note_on_c, 1, 76, 0
7, 181200, Note_on_c, 1, 74, 76
7, 181244, Note_on_c, 1, 74, 0
7, 181260, Note_on_c, 1, 72, 76
7, 181304, Note_on_c, 1, 72, 0
7, 181320, Note_on_c, 1, 74, 76
7, 181364, Note_on_c, 1, 74, 0
7, 181380, Note_on_c, 1, 71, 76
7, 181424, Note_on_c, 1, 71, 0
7, 181440, Note_on_c, 1, 72, 76
7, 181484, Note_on_c, 1, 72, 0
7, 181500, Note_on_c, 1, 74, 76
7, 181544, Note_on_c, 1, 74, 0
7, 181560, Note_on_c, 1, 76, 76
7, 181604, Note_on_c, 1, 76, 0
7, 181620, Note_on_c, 1, 77, 76
7, 181664, Note_on_c, 1, 77, 0
7, 181680, Note_on_c, 1, 79, 76
7, 181724, Note_on_c, 1, 79, 0
7, 181740, Note_on_c, 1, 81, 76
7, 181784, Note_on_c, 1, 81, 0
7, 181800, Note_on_c, 1, 82, 76
7, 181844, Note_on_c, 1, 82, 0
7, 181860, Note_on_c, 1, 79, 76
7, 181904, Note_on_c, 1, 79, 0
7, 181920, Note_on_c, 1, 81, 76
7, 181964, Note_on_c, 1, 81, 0
7, 181980, Note_on_c, 1, 82, 76
7, 182024, Note_on_c, 1, 82, 0
7, 182040, Note_on_c, 1, 81, 76
7, 182084, Note_on_c, 1, 81, 0
7, 182100, Note_on_c, 1, 79, 76
7, 182144, Note_on_c, 1, 79, 0
7, 182160, Note_on_c, 1, 77, 76
7, 182204, Note_on_c, 1, 77, 0
7, 182220, Note_on_c, 1, 76, 76
7, 182264, Note_on_c, 1, 76, 0
7, 182280, Note_on_c, 1, 74, 76
7, 182324, Note_on_c, 1, 74, 0
7, 182340, Note_on_c, 1, 72, 76
7, 182384, Note_on_c, 1, 72, 0
7, 182400, Note_on_c, 1, 71, 76
7, 182444, Note_on_c, 1, 71, 0
7, 182460, Note_on_c, 1, 76, 76
7, 182504, Note_on_c, 1, 76, 0
7, 182520, Note_on_c, 1, 74, 76
7, 182564, Note_on_c, 1, 74, 0
7, 182580, Note_on_c, 1, 72, 76
7, 182624, Note_on_c, 1, 72, 0
7, 182640, Note_on_c, 1, 71, 76
7, 182684, Note_on_c, 1, 71, 0
7, 182700, Note_on_c, 1, 69, 76
7, 182744, Note_on_c, 1, 69, 0
7, 182760, Note_on_c, 1, 71, 76
7, 182804, Note_on_c, 1, 71, 0
7, 182820, Note_on_c, 1, 67, 76
7, 182864, Note_on_c, 1, 67, 0
7, 182880, Note_on_c, 1, 72, 76
7, 183584, Note_on_c, 1, 72, 0
7, 183600, Note_on_c, 1, 71, 76
7, 183824, Note_on_c, 1, 71, 0
7, 183840, Note_on_c, 1, 72, 76
7, 183884, Note_on_c, 1, 72, 0
7, 183900, Note_on_c, 1, 71, 76
7, 183944, Note_on_c, 1, 71, 0
7, 183960, Note_on_c, 1, 72, 76
7, 184004, Note_on_c, 1, 72, 0
7, 184020, Note_on_c, 1, 74, 76
7, 184064, Note_on_c, 1, 74, 0
7, 184080, Note_on_c, 1, 76, 76
7, 184124, Note_on_c, 1, 76, 0
7, 184140, Note_on_c, 1, 74, 76
7, 184184, Note_on_c, 1, 74, 0
7, 184200, Note_on_c, 1, 76, 76
7, 184244, Note_on_c, 1, 76, 0
7, 184260, Note_on_c, 1, 78, 76
7, 184304, Note_on_c, 1, 78, 0
7, 184320, Note_on_c, 1, 79, 76
7, 184484, Note_on_c, 1, 79, 0
7, 184500, Note_on_c, 1, 74, 76
7, 184544, Note_on_c, 1, 74, 0
7, 184560, Note_on_c, 1, 79, 76
7, 184724, Note_on_c, 1, 79, 0
7, 184740, Note_on_c, 1, 79, 76
7, 184784, Note_on_c, 1, 79, 0
7, 184800, Note_on_c, 1, 79, 76
7, 184964, Note_on_c, 1, 79, 0
7, 184980, Note_on_c, 1, 78, 76
7, 184999, Note_on_c, 1, 78, 0
7, 185000, Note_on_c, 1, 76, 76
7, 185019, Note_on_c, 1, 76, 0
7, 185020, Note_on_c, 1, 78, 76
7, 185039, Note_on_c, 1, 78, 0
7, 185040, Note_on_c, 1, 78, 76
7, 185069, Note_on_c, 1, 78, 0
7, 185070, Note_on_c, 1, 79, 76
7, 185099, Note_on_c, 1, 79, 0
7, 185100, Note_on_c, 1, 78, 76
7, 185129, Note_on_c, 1, 78, 0
7, 185130, Note_on_c, 1, 79, 76
7, 185159, Note_on_c, 1, 79, 0
7, 185160, Note_on_c, 1, 76, 76
7, 185189, Note_on_c, 1, 76, 0
7, 185190, Note_on_c, 1, 78, 76
7, 185219, Note_on_c, 1, 78, 0
7, 185220, Note_on_c, 1, 79, 76
7, 185264, Note_on_c, 1, 79, 0
7, 185280, Note_on_c, 1, 79, 76
7, 185384, Note_on_c, 1, 79, 0
7, 185400, Note_on_c, 1, 77, 76
7, 185444, Note_on_c, 1, 77, 0
7, 185460, Note_on_c, 1, 76, 76
7, 185504, Note_on_c, 1, 76, 0
7, 185520, Note_on_c, 1, 74, 76
7, 185564, Note_on_c, 1, 74, 0
7, 185580, Note_on_c, 1, 71, 76
7, 185624, Note_on_c, 1, 71, 0
7, 185640, Note_on_c, 1, 72, 76
7, 185684, Note_on_c, 1, 72, 0
7, 185700, Note_on_c, 1, 74, 76
7, 185744, Note_on_c, 1, 74, 0
7, 185760, Note_on_c, 1, 67, 76
7, 185864, Note_on_c, 1, 67, 0
7, 185880, Note_on_c, 1, 79, 76
7, 185984, Note_on_c, 1, 79, 0
7, 186000, Note_on_c, 1, 76, 76
7, 186104, Note_on_c, 1, 76, 0
7, 186120, Note_on_c, 1, 81, 76
7, 186224, Note_on_c, 1, 81, 0
7, 186240, Note_on_c, 1, 77, 76
7, 186284, Note_on_c, 1, 77, 0
7, 186300, Note_on_c, 1, 79, 76
7, 186344, Note_on_c, 1, 79, 0
7, 186360, Note_on_c, 1, 77, 76
7, 186404, Note_on_c, 1, 77, 0
7, 186420, Note_on_c, 1, 76, 76
7, 186464, Note_on_c, 1, 76, 0
7, 186480, Note_on_c, 1, 74, 76
7, 186524, Note_on_c, 1, 74, 0
7, 186540, Note_on_c, 1, 77, 76
7, 186584, Note_on_c, 1, 77, 0
7, 186600, Note_on_c, 1, 76, 76
7, 186644, Note_on_c, 1, 76, 0
7, 186660, Note_on_c, 1, 74, 76
7, 186704, Note_on_c, 1, 74, 0
7, 186720, Note_on_c, 1, 79, 76
7, 186764, Note_on_c, 1, 79, 0
7, 186780, Note_on_c, 1, 77, 76
7, 186824, Note_on_c, 1, 77, 0
7, 186840, Note_on_c, 1, 76, 76
7, 186884, Note_on_c, 1, 76, 0
7, 186900, Note_on_c, 1, 74, 76
7, 186944, Note_on_c, 1, 74, 0
7, 186960, Note_on_c, 1, 72, 76
7, 187004, Note_on_c, 1, 72, 0
7, 187020, Note_on_c, 1, 71, 76
7, 187064, Note_on_c, 1, 71, 0
7, 187080, Note_on_c, 1, 72, 76
7, 187124, Note_on_c, 1, 72, 0
7, 187140, Note_on_c, 1, 69, 76
7, 187184, Note_on_c, 1, 69, 0
7, 187200, Note_on_c, 1, 74, 76
7, 187304, Note_on_c, 1, 74, 0
7, 187320, Note_on_c, 1, 76, 76
7, 187364, Note_on_c, 1, 76, 0
7, 187380, Note_on_c, 1, 78, 76
7, 187424, Note_on_c, 1, 78, 0
7, 187440, Note_on_c, 1, 79, 76
7, 187544, Note_on_c, 1, 79, 0
7, 187560, Note_on_c, 1, 81, 76
7, 187604, Note_on_c, 1, 81, 0
7, 187620, Note_on_c, 1, 83, 76
7, 187664, Note_on_c, 1, 83, 0
7, 187680, Note_on_c, 1, 84, 76
7, 187844, Note_on_c, 1, 84, 0
7, 187860, Note_on_c, 1, 83, 76
7, 187904, Note_on_c, 1, 83, 0
7, 187920, Note_on_c, 1, 81, 76
7, 187949, Note_on_c, 1, 81, 0
7, 187950, Note_on_c, 1, 83, 76
7, 187979, Note_on_c, 1, 83, 0
7, 187980, Note_on_c, 1, 81, 76
7, 188009, Note_on_c, 1, 81, 0
7, 188010, Note_on_c, 1, 83, 76
7, 188039, Note_on_c, 1, 83, 0
7, 188040, Note_on_c, 1, 79, 76
7, 188069, Note_on_c, 1, 79, 0
7, 188070, Note_on_c, 1, 81, 76
7, 188099, Note_on_c, 1, 81, 0
7, 188100, Note_on_c, 1, 79, 76
7, 188144, Note_on_c, 1, 79, 0
7, 188160, Note_on_c, 1, 79, 76
7, 188264, Note_on_c, 1, 79, 0
7, 188280, Note_on_c, 1, 77, 76
7, 188324, Note_on_c, 1, 77, 0
7, 188340, Note_on_c, 1, 76, 76
7, 188384, Note_on_c, 1, 76, 0
7, 188400, Note_on_c, 1, 74, 76
7, 188444, Note_on_c, 1, 74, 0
7, 188460, Note_on_c, 1, 76, 76
7, 188504, Note_on_c, 1, 76, 0
7, 188520, Note_on_c, 1, 77, 76
7, 188564, Note_on_c, 1, 77, 0
7, 188580, Note_on_c, 1, 74, 76
7, 188624, Note_on_c, 1, 74, 0
7, 188640, Note_on_c, 1, 76, 76
7, 188744, Note_on_c, 1, 76, 0
7, 188760, Note_on_c, 1, 72, 76
7, 188864, Note_on_c, 1, 72, 0
7, 188880, Note_on_c, 1, 84, 76
7, 189044, Note_on_c, 1, 84, 0
7, 189060, Note_on_c, 1, 84, 76
7, 189104, Note_on_c, 1, 84, 0
7, 189120, Note_on_c, 1, 84, 76
7, 189164, Note_on_c, 1, 84, 0
7, 189180, Note_on_c, 1, 82, 76
7, 189224, Note_on_c, 1, 82, 0
7, 189240, Note_on_c, 1, 84, 76
7, 189284, Note_on_c, 1, 84, 0
7, 189300, Note_on_c, 1, 81, 76
7, 189344, Note_on_c, 1, 81, 0
7, 189360, Note_on_c, 1, 82, 76
7, 189524, Note_on_c, 1, 82, 0
7, 189540, Note_on_c, 1, 82, 76
7, 189584, Note_on_c, 1, 82, 0
7, 189600, Note_on_c, 1, 82, 76
7, 189704, Note_on_c, 1, 82, 0
7, 189720, Note_on_c, 1, 76, 76
7, 189824, Note_on_c, 1, 76, 0
7, 189840, Note_on_c, 1, 81, 76
7, 190004, Note_on_c, 1, 81, 0
7, 190020, Note_on_c, 1, 81, 76
7, 190064, Note_on_c, 1, 81, 0
7, 190080, Note_on_c, 1, 81, 76
7, 190124, Note_on_c, 1, 81, 0
7, 190140, Note_on_c, 1, 79, 76
7, 190184, Note_on_c, 1, 79, 0
7, 190200, Note_on_c, 1, 81, 76
7, 190244, Note_on_c, 1, 81, 0
7, 190260, Note_on_c, 1, 77, 76
7, 190304, Note_on_c, 1, 77, 0
7, 190320, Note_on_c, 1, 79, 76
7, 190484, Note_on_c, 1, 79, 0
7, 190500, Note_on_c, 1, 79, 76
7, 190544, Note_on_c, 1, 79, 0
7, 190560, Note_on_c, 1, 79, 76
7, 190664, Note_on_c, 1, 79, 0
7, 190680, Note_on_c, 1, 72, 76
7, 190784, Note_on_c, 1, 72, 0
7, 190800, Note_on_c, 1, 77, 76
7, 190964, Note_on_c, 1, 77, 0
7, 190980, Note_on_c, 1, 77, 76
7, 191024, Note_on_c, 1, 77, 0
7, 191040, Note_on_c, 1, 77, 76
7, 191084, Note_on_c, 1, 77, 0
7, 191100, Note_on_c, 1, 81, 76
7, 191144, Note_on_c, 1, 81, 0
7, 191160, Note_on_c, 1, 79, 76
7, 191204, Note_on_c, 1, 79, 0
7, 191220, Note_on_c, 1, 77, 76
7, 191264, Note_on_c, 1, 77, 0
7, 191280, Note_on_c, 1, 76, 76
7, 191324, Note_on_c, 1, 76, 0
7, 191340, Note_on_c, 1, 74, 76
7, 191384, Note_on_c, 1, 74, 0
7, 191400, Note_on_c, 1, 72, 76
7, 191444, Note_on_c, 1, 72, 0
7, 191460, Note_on_c, 1, 71, 76
7, 191504, Note_on_c, 1, 71, 0
7, 191520, Note_on_c, 1, 72, 76
7, 191564, Note_on_c, 1, 72, 0
7, 191580, Note_on_c, 1, 76, 76
7, 191624, Note_on_c, 1, 76, 0
7, 191640, Note_on_c, 1, 81, 76
7, 191684, Note_on_c, 1, 81, 0
7, 191700, Note_on_c, 1, 79, 76
7, 191744, Note_on_c, 1, 79, 0
7, 191760, Note_on_c, 1, 77, 76
7, 191804, Note_on_c, 1, 77, 0
7, 191820, Note_on_c, 1, 76, 76
7, 191864, Note_on_c, 1, 76, 0
7, 191880, Note_on_c, 1, 74, 76
7, 191924, Note_on_c, 1, 74, 0
7, 191940, Note_on_c, 1, 72, 76
7, 191984, Note_on_c, 1, 72, 0
7, 192000, Note_on_c, 1, 71, 76
7, 192044, Note_on_c, 1, 71, 0
7, 192060, Note_on_c, 1, 69, 76
7, 192104, Note_on_c, 1, 69, 0
7, 192120, Note_on_c, 1, 67, 76
7, 192164, Note_on_c, 1, 67, 0
7, 192180, Note_on_c, 1, 69, 76
7, 192224, Note_on_c, 1, 69, 0
7, 192240, Note_on_c, 1, 71, 76
7, 192284, Note_on_c, 1, 71, 0
7, 192300, Note_on_c, 1, 69, 76
7, 192344, Note_on_c, 1, 69, 0
7, 192360, Note_on_c, 1, 71, 76
7, 192404, Note_on_c, 1, 71, 0
7, 192420, Note_on_c, 1, 67, 76
7, 192464, Note_on_c, 1, 67, 0
7, 192480, Note_on_c, 1, 72, 76
7, 192644, Note_on_c, 1, 72, 0
7, 192660, Note_on_c, 1, 74, 76
7, 192704, Note_on_c, 1, 74, 0
7, 192720, Note_on_c, 1, 71, 76
7, 192884, Note_on_c, 1, 71, 0
7, 192900, Note_on_c, 1, 72, 76
7, 192944, Note_on_c, 1, 72, 0
7, 192960, Note_on_c, 1, 72, 76
7, 193199, Note_on_c, 1, 72, 0
7, 193680, Note_on_c, 1, 72, 76
7, 194144, Note_on_c, 1, 72, 0
7, 194160, Note_on_c, 1, 71, 76
7, 194384, Note_on_c, 1, 71, 0
7, 194400, Note_on_c, 1, 72, 76
7, 194504, Note_on_c, 1, 72, 0
7, 194520, Note_on_c, 1, 79, 76
7, 194624, Note_on_c, 1, 79, 0
7, 194640, Note_on_c, 1, 79, 76
7, 194744, Note_on_c, 1, 79, 0
7, 194760, Note_on_c, 1, 79, 76
7, 194864, Note_on_c, 1, 79, 0
7, 194880, Note_on_c, 1, 76, 76
7, 194984, Note_on_c, 1, 76, 0
7, 195000, Note_on_c, 1, 77, 76
7, 195044, Note_on_c, 1, 77, 0
7, 195060, Note_on_c, 1, 79, 76
7, 195104, Note_on_c, 1, 79, 0
7, 195120, Note_on_c, 1, 81, 76
7, 195224, Note_on_c, 1, 81, 0
7, 195240, Note_on_c, 1, 77, 76
7, 195344, Note_on_c, 1, 77, 0
7, 195360, Note_on_c, 1, 74, 76
7, 195464, Note_on_c, 1, 74, 0
7, 195480, Note_on_c, 1, 79, 76
7, 195584, Note_on_c, 1, 79, 0
7, 195600, Note_on_c, 1, 67, 76
7, 195704, Note_on_c, 1, 67, 0
7, 195720, Note_on_c, 1, 77, 76
7, 195824, Note_on_c, 1, 77, 0
7, 195840, Note_on_c, 1, 76, 76
7, 195884, Note_on_c, 1, 76, 0
7, 195900, Note_on_c, 1, 79, 76
7, 195944, Note_on_c, 1, 79, 0
7, 195960, Note_on_c, 1, 77, 76
7, 196004, Note_on_c, 1, 77, 0
7, 196020, Note_on_c, 1, 79, 76
7, 196064, Note_on_c, 1, 79, 0
7, 196080, Note_on_c, 1, 81, 76
7, 196124, Note_on_c, 1, 81, 0
7, 196140, Note_on_c, 1, 79, 76
7, 196184, Note_on_c, 1, 79, 0
7, 196200, Note_on_c, 1, 77, 76
7, 196244, Note_on_c, 1, 77, 0
7, 196260, Note_on_c, 1, 76, 76
7, 196304, Note_on_c, 1, 76, 0
7, 196320, Note_on_c, 1, 74, 76
7, 196364, Note_on_c, 1, 74, 0
7, 196380, Note_on_c, 1, 77, 76
7, 196424, Note_on_c, 1, 77, 0
7, 196440, Note_on_c, 1, 76, 76
7, 196484, Note_on_c, 1, 76, 0
7, 196500, Note_on_c, 1, 77, 76
7, 196544, Note_on_c, 1, 77, 0
7, 196560, Note_on_c, 1, 79, 76
7, 196604, Note_on_c, 1, 79, 0
7, 196620, Note_on_c, 1, 77, 76
7, 196664, Note_on_c, 1, 77, 0
7, 196680, Note_on_c, 1, 76, 76
7, 196724, Note_on_c, 1, 76, 0
7, 196740, Note_on_c, 1, 74, 76
7, 196784, Note_on_c, 1, 74, 0
7, 196800, Note_on_c, 1, 72, 76
7, 196844, Note_on_c, 1, 72, 0
7, 196860, Note_on_c, 1, 76, 76
7, 196904, Note_on_c, 1, 76, 0
7, 196920, Note_on_c, 1, 74, 76
7, 196964, Note_on_c, 1, 74, 0
7, 196980, Note_on_c, 1, 76, 76
7, 197024, Note_on_c, 1, 76, 0
7, 197040, Note_on_c, 1, 77, 76
7, 197204, Note_on_c, 1, 77, 0
7, 197220, Note_on_c, 1, 77, 76
7, 197264, Note_on_c, 1, 77, 0
7, 197280, Note_on_c, 1, 77, 76
7, 197324, Note_on_c, 1, 77, 0
7, 197340, Note_on_c, 1, 76, 76
7, 197384, Note_on_c, 1, 76, 0
7, 197400, Note_on_c, 1, 77, 76
7, 197444, Note_on_c, 1, 77, 0
7, 197460, Note_on_c, 1, 74, 76
7, 197504, Note_on_c, 1, 74, 0
7, 197520, Note_on_c, 1, 76, 76
7, 197564, Note_on_c, 1, 76, 0
7, 197580, Note_on_c, 1, 79, 76
7, 197624, Note_on_c, 1, 79, 0
7, 197640, Note_on_c, 1, 77, 76
7, 197684, Note_on_c, 1, 77, 0
7, 197700, Note_on_c, 1, 79, 76
7, 197744, Note_on_c, 1, 79, 0
7, 197760, Note_on_c, 1, 81, 76
7, 198044, Note_on_c, 1, 81, 0
7, 198060, Note_on_c, 1, 74, 76
7, 198104, Note_on_c, 1, 74, 0
7, 198120, Note_on_c, 1, 76, 76
7, 198164, Note_on_c, 1, 76, 0
7, 198180, Note_on_c, 1, 77, 76
7, 198224, Note_on_c, 1, 77, 0
7, 198240, Note_on_c, 1, 79, 76
7, 198524, Note_on_c, 1, 79, 0
7, 198540, Note_on_c, 1, 72, 76
7, 198584, Note_on_c, 1, 72, 0
7, 198600, Note_on_c, 1, 74, 76
7, 198644, Note_on_c, 1, 74, 0
7, 198660, Note_on_c, 1, 76, 76
7, 198704, Note_on_c, 1, 76, 0
7, 198720, Note_on_c, 1, 77, 76
7, 198764, Note_on_c, 1, 77, 0
7, 198780, Note_on_c, 1, 76, 76
7, 198824, Note_on_c, 1, 76, 0
7, 198840, Note_on_c, 1, 74, 76
7, 198884, Note_on_c, 1, 74, 0
7, 198900, Note_on_c, 1, 72, 76
7, 198944, Note_on_c, 1, 72, 0
7, 198960, Note_on_c, 1, 71, 76
7, 199004, Note_on_c, 1, 71, 0
7, 199020, Note_on_c, 1, 74, 76
7, 199064, Note_on_c, 1, 74, 0
7, 199080, Note_on_c, 1, 76, 76
7, 199124, Note_on_c, 1, 76, 0
7, 199140, Note_on_c, 1, 77, 76
7, 199184, Note_on_c, 1, 77, 0
7, 199200, Note_on_c, 1, 76, 76
7, 199244, Note_on_c, 1, 76, 0
7, 199260, Note_on_c, 1, 79, 76
7, 199304, Note_on_c, 1, 79, 0
7, 199320, Note_on_c, 1, 77, 76
7, 199364, Note_on_c, 1, 77, 0
7, 199380, Note_on_c, 1, 79, 76
7, 199424, Note_on_c, 1, 79, 0
7, 199440, Note_on_c, 1, 81, 76
7, 199484, Note_on_c, 1, 81, 0
7, 199500, Note_on_c, 1, 79, 76
7, 199544, Note_on_c, 1, 79, 0
7, 199560, Note_on_c, 1, 77, 76
7, 199604, Note_on_c, 1, 77, 0
7, 199620, Note_on_c, 1, 76, 76
7, 199664, Note_on_c, 1, 76, 0
7, 199680, Note_on_c, 1, 74, 76
7, 199724, Note_on_c, 1, 74, 0
7, 199740, Note_on_c, 1, 77, 76
7, 199784, Note_on_c, 1, 77, 0
7, 199800, Note_on_c, 1, 76, 76
7, 199844, Note_on_c, 1, 76, 0
7, 199860, Note_on_c, 1, 77, 76
7, 199904, Note_on_c, 1, 77, 0
7, 199920, Note_on_c, 1, 79, 76
7, 199964, Note_on_c, 1, 79, 0
7, 199980, Note_on_c, 1, 77, 76
7, 200024, Note_on_c, 1, 77, 0
7, 200040, Note_on_c, 1, 76, 76
7, 200084, Note_on_c, 1, 76, 0
7, 200100, Note_on_c, 1, 74, 76
7, 200144, Note_on_c, 1, 74, 0
7, 200160, Note_on_c, 1, 72, 76
7, 200204, Note_on_c, 1, 72, 0
7, 200220, Note_on_c, 1, 76, 76
7, 200264, Note_on_c, 1, 76, 0
7, 200280, Note_on_c, 1, 74, 76
7, 200324, Note_on_c, 1, 74, 0
7, 200340, Note_on_c, 1, 76, 76
7, 200384, Note_on_c, 1, 76, 0
7, 200400, Note_on_c, 1, 77, 76
7, 200444, Note_on_c, 1, 77, 0
7, 200460, Note_on_c, 1, 76, 76
7, 200504, Note_on_c, 1, 76, 0
7, 200520, Note_on_c, 1, 74, 76
7, 200564, Note_on_c, 1, 74, 0
7, 200580, Note_on_c, 1, 72, 76
7, 200624, Note_on_c, 1, 72, 0
7, 200640, Note_on_c, 1, 71, 76
7, 200684, Note_on_c, 1, 71, 0
7, 200700, Note_on_c, 1, 74, 76
7, 200744, Note_on_c, 1, 74, 0
7, 200760, Note_on_c, 1, 72, 76
7, 200804, Note_on_c, 1, 72, 0
7, 200820, Note_on_c, 1, 74, 76
7, 200864, Note_on_c, 1, 74, 0
7, 200880, Note_on_c, 1, 76, 76
7, 200924, Note_on_c, 1, 76, 0
7, 200940, Note_on_c, 1, 74, 76
7, 200984, Note_on_c, 1, 74, 0
7, 201000, Note_on_c, 1, 72, 76
7, 201044, Note_on_c, 1, 72, 0
7, 201060, Note_on_c, 1, 71, 76
7, 201104, Note_on_c, 1, 71, 0
7, 201120, Note_on_c, 1, 69, 76
7, 201164, Note_on_c, 1, 69, 0
7, 201180, Note_on_c, 1, 72, 76
7, 201224, Note_on_c, 1, 72, 0
7, 201240, Note_on_c, 1, 71, 76
7, 201284, Note_on_c, 1, 71, 0
7, 201300, Note_on_c, 1, 72, 76
7, 201344, Note_on_c, 1, 72, 0
7, 201360, Note_on_c, 1, 74, 76
7, 201404, Note_on_c, 1, 74, 0
7, 201420, Note_on_c, 1, 72, 76
7, 201464, Note_on_c, 1, 72, 0
7, 201480, Note_on_c, 1, 71, 76
7, 201524, Note_on_c, 1, 71, 0
7, 201540, Note_on_c, 1, 69, 76
7, 201584, Note_on_c, 1, 69, 0
7, 201600, Note_on_c, 1, 71, 76
7, 201704, Note_on_c, 1, 71, 0
7, 201720, Note_on_c, 1, 79, 76
7, 201824, Note_on_c, 1, 79, 0
7, 201840, Note_on_c, 1, 79, 76
7, 201944, Note_on_c, 1, 79, 0
7, 201960, Note_on_c, 1, 79, 76
7, 202064, Note_on_c, 1, 79, 0
7, 202080, Note_on_c, 1, 76, 76
7, 202184, Note_on_c, 1, 76, 0
7, 202200, Note_on_c, 1, 77, 76
7, 202244, Note_on_c, 1, 77, 0
7, 202260, Note_on_c, 1, 79, 76
7, 202304, Note_on_c, 1, 79, 0
7, 202320, Note_on_c, 1, 81, 76
7, 202424, Note_on_c, 1, 81, 0
7, 202440, Note_on_c, 1, 77, 76
7, 202544, Note_on_c, 1, 77, 0
7, 202560, Note_on_c, 1, 74, 76
7, 202664, Note_on_c, 1, 74, 0
7, 202680, Note_on_c, 1, 79, 76
7, 202784, Note_on_c, 1, 79, 0
7, 202800, Note_on_c, 1, 67, 76
7, 202904, Note_on_c, 1, 67, 0
7, 202920, Note_on_c, 1, 77, 76
7, 203024, Note_on_c, 1, 77, 0
7, 203040, Note_on_c, 1, 76, 76
7, 203204, Note_on_c, 1, 76, 0
7, 203220, Note_on_c, 1, 74, 76
7, 203264, Note_on_c, 1, 74, 0
7, 203280, Note_on_c, 1, 74, 76
7, 203309, Note_on_c, 1, 74, 0
7, 203310, Note_on_c, 1, 76, 76
7, 203339, Note_on_c, 1, 76, 0
7, 203340, Note_on_c, 1, 74, 76
7, 203369, Note_on_c, 1, 74, 0
7, 203370, Note_on_c, 1, 76, 76
7, 203399, Note_on_c, 1, 76, 0
7, 203400, Note_on_c, 1, 72, 76
7, 203429, Note_on_c, 1, 72, 0
7, 203430, Note_on_c, 1, 74, 76
7, 203459, Note_on_c, 1, 74, 0
7, 203460, Note_on_c, 1, 72, 76
7, 203504, Note_on_c, 1, 72, 0
7, 203520, Note_on_c, 1, 72, 76
7, 203811, Note_on_c, 1, 72, 0
7, 203820, Note_on_c, 1, 72, 76
7, 203871, Note_on_c, 1, 72, 0
7, 203880, Note_on_c, 1, 70, 76
7, 203931, Note_on_c, 1, 70, 0
7, 203940, Note_on_c, 1, 69, 76
7, 203991, Note_on_c, 1, 69, 0
7, 204000, Note_on_c, 1, 67, 76
7, 204351, Note_on_c, 1, 67, 0
7, 204360, Note_on_c, 1, 69, 76
7, 204471, Note_on_c, 1, 69, 0
7, 204480, Note_on_c, 1, 70, 76
7, 204651, Note_on_c, 1, 70, 0
7, 204660, Note_on_c, 1, 70, 76
7, 204711, Note_on_c, 1, 70, 0
7, 204720, Note_on_c, 1, 72, 76
7, 204891, Note_on_c, 1, 72, 0
7, 204900, Note_on_c, 1, 74, 76
7, 204951, Note_on_c, 1, 74, 0
7, 204960, Note_on_c, 1, 67, 76
7, 205131, Note_on_c, 1, 67, 0
7, 205140, Note_on_c, 1, 67, 76
7, 205191, Note_on_c, 1, 67, 0
7, 205200, Note_on_c, 1, 69, 76
7, 205371, Note_on_c, 1, 69, 0
7, 205380, Note_on_c, 1, 70, 76
7, 205431, Note_on_c, 1, 70, 0
7, 205440, Note_on_c, 1, 69, 76
7, 205731, Note_on_c, 1, 69, 0
7, 205740, Note_on_c, 1, 69, 76
7, 205791, Note_on_c, 1, 69, 0
7, 205800, Note_on_c, 1, 71, 76
7, 205851, Note_on_c, 1, 71, 0
7, 205860, Note_on_c, 1, 73, 76
7, 205911, Note_on_c, 1, 73, 0
7, 205920, Note_on_c, 1, 74, 76
7, 205971, Note_on_c, 1, 74, 0
7, 205980, Note_on_c, 1, 73, 76
7, 206031, Note_on_c, 1, 73, 0
7, 206040, Note_on_c, 1, 74, 76
7, 206091, Note_on_c, 1, 74, 0
7, 206100, Note_on_c, 1, 76, 76
7, 206151, Note_on_c, 1, 76, 0
7, 206160, Note_on_c, 1, 77, 76
7, 206211, Note_on_c, 1, 77, 0
7, 206220, Note_on_c, 1, 76, 76
7, 206271, Note_on_c, 1, 76, 0
7, 206280, Note_on_c, 1, 77, 76
7, 206331, Note_on_c, 1, 77, 0
7, 206340, Note_on_c, 1, 74, 76
7, 206391, Note_on_c, 1, 74, 0
7, 206400, Note_on_c, 1, 79, 76
7, 206751, Note_on_c, 1, 79, 0
7, 206760, Note_on_c, 1, 79, 76
7, 206871, Note_on_c, 1, 79, 0
7, 206880, Note_on_c, 1, 79, 76
7, 207051, Note_on_c, 1, 79, 0
7, 207060, Note_on_c, 1, 81, 76
7, 207089, Note_on_c, 1, 81, 0
7, 207090, Note_on_c, 1, 82, 76
7, 207119, Note_on_c, 1, 82, 0
7, 207120, Note_on_c, 1, 81, 76
7, 207291, Note_on_c, 1, 81, 0
7, 207300, Note_on_c, 1, 79, 76
7, 207319, Note_on_c, 1, 79, 0
7, 207320, Note_on_c, 1, 77, 76
7, 207339, Note_on_c, 1, 77, 0
7, 207340, Note_on_c, 1, 76, 76
7, 207359, Note_on_c, 1, 76, 0
7, 207360, Note_on_c, 1, 77, 76
7, 207531, Note_on_c, 1, 77, 0
7, 207540, Note_on_c, 1, 74, 76
7, 207591, Note_on_c, 1, 74, 0
7, 207600, Note_on_c, 1, 77, 76
7, 207771, Note_on_c, 1, 77, 0
7, 207780, Note_on_c, 1, 81, 76
7, 207831, Note_on_c, 1, 81, 0
7, 207840, Note_on_c, 1, 78, 76
7, 207854, Note_on_c, 1, 78, 0
7, 207855, Note_on_c, 1, 79, 76
7, 207869, Note_on_c, 1, 79, 0
7, 207870, Note_on_c, 1, 78, 76
7, 207884, Note_on_c, 1, 78, 0
7, 207885, Note_on_c, 1, 79, 76
7, 207899, Note_on_c, 1, 79, 0
7, 207900, Note_on_c, 1, 78, 76
7, 207914, Note_on_c, 1, 78, 0
7, 207915, Note_on_c, 1, 79, 76
7, 207929, Note_on_c, 1, 79, 0
7, 207930, Note_on_c, 1, 78, 76
7, 207944, Note_on_c, 1, 78, 0
7, 207945, Note_on_c, 1, 79, 76
7, 207959, Note_on_c, 1, 79, 0
7, 207960, Note_on_c, 1, 78, 76
7, 207974, Note_on_c, 1, 78, 0
7, 207975, Note_on_c, 1, 79, 76
7, 207989, Note_on_c, 1, 79, 0
7, 207990, Note_on_c, 1, 78, 76
7, 208004, Note_on_c, 1, 78, 0
7, 208005, Note_on_c, 1, 79, 76
7, 208019, Note_on_c, 1, 79, 0
7, 208020, Note_on_c, 1, 78, 76
7, 208034, Note_on_c, 1, 78, 0
7, 208035, Note_on_c, 1, 79, 76
7, 208049, Note_on_c, 1, 79, 0
7, 208050, Note_on_c, 1, 78, 76
7, 208064, Note_on_c, 1, 78, 0
7, 208065, Note_on_c, 1, 79, 76
7, 208079, Note_on_c, 1, 79, 0
7, 208080, Note_on_c, 1, 78, 76
7, 208094, Note_on_c, 1, 78, 0
7, 208095, Note_on_c, 1, 79, 76
7, 208109, Note_on_c, 1, 79, 0
7, 208110, Note_on_c, 1, 78, 76
7, 208124, Note_on_c, 1, 78, 0
7, 208125, Note_on_c, 1, 79, 76
7, 208139, Note_on_c, 1, 79, 0
7, 208140, Note_on_c, 1, 78, 76
7, 208154, Note_on_c, 1, 78, 0
7, 208155, Note_on_c, 1, 79, 76
7, 208169, Note_on_c, 1, 79, 0
7, 208170, Note_on_c, 1, 78, 76
7, 208184, Note_on_c, 1, 78, 0
7, 208185, Note_on_c, 1, 79, 76
7, 208199, Note_on_c, 1, 79, 0
7, 208200, Note_on_c, 1, 76, 76
7, 208251, Note_on_c, 1, 76, 0
7, 208260, Note_on_c, 1, 78, 76
7, 208311, Note_on_c, 1, 78, 0
7, 208320, Note_on_c, 1, 79, 76
7, 208851, Note_on_c, 1, 79, 0
7, 208860, Note_on_c, 1, 81, 76
7, 208911, Note_on_c, 1, 81, 0
7, 208920, Note_on_c, 1, 79, 76
7, 208971, Note_on_c, 1, 79, 0
7, 208980, Note_on_c, 1, 77, 76
7, 209031, Note_on_c, 1, 77, 0
7, 209040, Note_on_c, 1, 76, 76
7, 209091, Note_on_c, 1, 76, 0
7, 209100, Note_on_c, 1, 74, 76
7, 209151, Note_on_c, 1, 74, 0
7, 209160, Note_on_c, 1, 76, 76
7, 209211, Note_on_c, 1, 76, 0
7, 209220, Note_on_c, 1, 72, 76
7, 209271, Note_on_c, 1, 72, 0
7, 209280, Note_on_c, 1, 81, 76
7, 209811, Note_on_c, 1, 81, 0
7, 209820, Note_on_c, 1, 79, 76
7, 209871, Note_on_c, 1, 79, 0
7, 209880, Note_on_c, 1, 81, 76
7, 209931, Note_on_c, 1, 81, 0
7, 209940, Note_on_c, 1, 83, 76
7, 209991, Note_on_c, 1, 83, 0
7, 210000, Note_on_c, 1, 84, 76
7, 210051, Note_on_c, 1, 84, 0
7, 210060, Note_on_c, 1, 81, 76
7, 210111, Note_on_c, 1, 81, 0
7, 210120, Note_on_c, 1, 83, 76
7, 210171, Note_on_c, 1, 83, 0
7, 210180, Note_on_c, 1, 84, 76
7, 210231, Note_on_c, 1, 84, 0
7, 210240, Note_on_c, 1, 77, 76
7, 210291, Note_on_c, 1, 77, 0
7, 210300, Note_on_c, 1, 76, 76
7, 210351, Note_on_c, 1, 76, 0
7, 210360, Note_on_c, 1, 77, 76
7, 210411, Note_on_c, 1, 77, 0
7, 210420, Note_on_c, 1, 79, 76
7, 210471, Note_on_c, 1, 79, 0
7, 210480, Note_on_c, 1, 81, 76
7, 210531, Note_on_c, 1, 81, 0
7, 210540, Note_on_c, 1, 77, 76
7, 210591, Note_on_c, 1, 77, 0
7, 210600, Note_on_c, 1, 79, 76
7, 210651, Note_on_c, 1, 79, 0
7, 210660, Note_on_c, 1, 81, 76
7, 210711, Note_on_c, 1, 81, 0
7, 210720, Note_on_c, 1, 71, 76
7, 211071, Note_on_c, 1, 71, 0
7, 211080, Note_on_c, 1, 72, 76
7, 211191, Note_on_c, 1, 72, 0
7, 211200, Note_on_c, 1, 74, 76
7, 211251, Note_on_c, 1, 74, 0
7, 211260, Note_on_c, 1, 71, 76
7, 211311, Note_on_c, 1, 71, 0
7, 211320, Note_on_c, 1, 67, 76
7, 211371, Note_on_c, 1, 67, 0
7, 211380, Note_on_c, 1, 69, 76
7, 211431, Note_on_c, 1, 69, 0
7, 211440, Note_on_c, 1, 71, 76
7, 211491, Note_on_c, 1, 71, 0
7, 211500, Note_on_c, 1, 72, 76
7, 211551, Note_on_c, 1, 72, 0
7, 211560, Note_on_c, 1, 74, 76
7, 211611, Note_on_c, 1, 74, 0
7, 211620, Note_on_c, 1, 76, 76
7, 211671, Note_on_c, 1, 76, 0
7, 211680, Note_on_c, 1, 77, 76
7, 212031, Note_on_c, 1, 77, 0
7, 212040, Note_on_c, 1, 77, 76
7, 212151, Note_on_c, 1, 77, 0
7, 212160, Note_on_c, 1, 77, 76
7, 212331, Note_on_c, 1, 77, 0
7, 212340, Note_on_c, 1, 76, 76
7, 212369, Note_on_c, 1, 76, 0
7, 212370, Note_on_c, 1, 74, 76
7, 212399, Note_on_c, 1, 74, 0
7, 212400, Note_on_c, 1, 76, 76
7, 212571, Note_on_c, 1, 76, 0
7, 212580, Note_on_c, 1, 77, 76
7, 212609, Note_on_c, 1, 77, 0
7, 212610, Note_on_c, 1, 79, 76
7, 212639, Note_on_c, 1, 79, 0
7, 212640, Note_on_c, 1, 70, 76
7, 212991, Note_on_c, 1, 70, 0
7, 213000, Note_on_c, 1, 70, 76
7, 213111, Note_on_c, 1, 70, 0
7, 213120, Note_on_c, 1, 70, 76
7, 213291, Note_on_c, 1, 70, 0
7, 213300, Note_on_c, 1, 69, 76
7, 213329, Note_on_c, 1, 69, 0
7, 213330, Note_on_c, 1, 67, 76
7, 213359, Note_on_c, 1, 67, 0
7, 213360, Note_on_c, 1, 69, 76
7, 213531, Note_on_c, 1, 69, 0
7, 213540, Note_on_c, 1, 71, 76
7, 213591, Note_on_c, 1, 71, 0
7, 213600, Note_on_c, 1, 72, 76
7, 213951, Note_on_c, 1, 72, 0
7, 213960, Note_on_c, 1, 72, 76
7, 214071, Note_on_c, 1, 72, 0
7, 214080, Note_on_c, 1, 72, 76
7, 214251, Note_on_c, 1, 72, 0
7, 214260, Note_on_c, 1, 71, 76
7, 214289, Note_on_c, 1, 71, 0
7, 214290, Note_on_c, 1, 69, 76
7, 214319, Note_on_c, 1, 69, 0
7, 214320, Note_on_c, 1, 77, 76
7, 214491, Note_on_c, 1, 77, 0
7, 214500, Note_on_c, 1, 76, 76
7, 214529, Note_on_c, 1, 76, 0
7, 214530, Note_on_c, 1, 74, 76
7, 214559, Note_on_c, 1, 74, 0
7, 214560, Note_on_c, 1, 83, 76
7, 214731, Note_on_c, 1, 83, 0
7, 214740, Note_on_c, 1, 81, 76
7, 214769, Note_on_c, 1, 81, 0
7, 214770, Note_on_c, 1, 79, 76
7, 214799, Note_on_c, 1, 79, 0
7, 214800, Note_on_c, 1, 86, 76
7, 214971, Note_on_c, 1, 86, 0
7, 214980, Note_on_c, 1, 77, 76
7, 215031, Note_on_c, 1, 77, 0
7, 215040, Note_on_c, 1, 77, 76
7, 215331, Note_on_c, 1, 77, 0
7, 215340, Note_on_c, 1, 81, 76
7, 215391, Note_on_c, 1, 81, 0
7, 215400, Note_on_c, 1, 79, 76
7, 215451, Note_on_c, 1, 79, 0
7, 215460, Note_on_c, 1, 77, 76
7, 215511, Note_on_c, 1, 77, 0
7, 215520, Note_on_c, 1, 76, 76
7, 215571, Note_on_c, 1, 76, 0
7, 215580, Note_on_c, 1, 72, 76
7, 215631, Note_on_c, 1, 72, 0
7, 215640, Note_on_c, 1, 74, 76
7, 215691, Note_on_c, 1, 74, 0
7, 215700, Note_on_c, 1, 76, 76
7, 215751, Note_on_c, 1, 76, 0
7, 215760, Note_on_c, 1, 77, 76
7, 215811, Note_on_c, 1, 77, 0
7, 215820, Note_on_c, 1, 79, 76
7, 215871, Note_on_c, 1, 79, 0
7, 215880, Note_on_c, 1, 81, 76
7, 215931, Note_on_c, 1, 81, 0
7, 215940, Note_on_c, 1, 82, 76
7, 215991, Note_on_c, 1, 82, 0
7, 216000, Note_on_c, 1, 81, 76
7, 216051, Note_on_c, 1, 81, 0
7, 216060, Note_on_c, 1, 79, 76
7, 216111, Note_on_c, 1, 79, 0
7, 216120, Note_on_c, 1, 77, 76
7, 216171, Note_on_c, 1, 77, 0
7, 216180, Note_on_c, 1, 76, 76
7, 216231, Note_on_c, 1, 76, 0
7, 216240, Note_on_c, 1, 77, 76
7, 216291, Note_on_c, 1, 77, 0
7, 216300, Note_on_c, 1, 74, 76
7, 216351, Note_on_c, 1, 74, 0
7, 216360, Note_on_c, 1, 76, 76
7, 216411, Note_on_c, 1, 76, 0
7, 216420, Note_on_c, 1, 77, 76
7, 216471, Note_on_c, 1, 77, 0
7, 216480, Note_on_c, 1, 67, 76
7, 216801, Note_on_c, 1, 67, 0
7, 216810, Note_on_c, 1, 69, 76
7, 216839, Note_on_c, 1, 69, 0
7, 216840, Note_on_c, 1, 71, 76
7, 216869, Note_on_c, 1, 71, 0
7, 216870, Note_on_c, 1, 72, 76
7, 216899, Note_on_c, 1, 72, 0
7, 216900, Note_on_c, 1, 74, 76
7, 216929, Note_on_c, 1, 74, 0
7, 216930, Note_on_c, 1, 76, 76
7, 216959, Note_on_c, 1, 76, 0
7, 216960, Note_on_c, 1, 77, 76
7, 217131, Note_on_c, 1, 77, 0
7, 217140, Note_on_c, 1, 74, 76
7, 217191, Note_on_c, 1, 74, 0
7, 217200, Note_on_c, 1, 76, 76
7, 217371, Note_on_c, 1, 76, 0
7, 217380, Note_on_c, 1, 77, 76
7, 217431, Note_on_c, 1, 77, 0
7, 217440, Note_on_c, 1, 74, 76
7, 217791, Note_on_c, 1, 74, 0
7, 217800, Note_on_c, 1, 72, 76
7, 217911, Note_on_c, 1, 72, 0
7, 217920, Note_on_c, 1, 72, 76
7, 218879, Note_on_c, 1, 72, 0
7, 218879, End_track
8, 0, Start_track
8, 0, Title_t, "Bassoon"
8, 0, MIDI_port, 0
8, 0, Program_c, 2, 70
8, 0, Control_c, 2, 10, 75
8, 0, Control_c, 2, 11, 127
8, 0, Control_c, 2, 7, 96
8, 0, Note_on_c, 2, 36, 76
8, 291, Note_on_c, 2, 36, 0
8, 300, Note_on_c, 2, 55, 76
8, 351, Note_on_c, 2, 55, 0
8, 360, Note_on_c, 2, 57, 76
8, 411, Note_on_c, 2, 57, 0
8, 420, Note_on_c, 2, 59, 76
8, 471, Note_on_c, 2, 59, 0
8, 480, Note_on_c, 2, 60, 76
8, 1131, Note_on_c, 2, 60, 0
8, 1140, Note_on_c, 2, 60, 76
8, 1191, Note_on_c, 2, 60, 0
8, 1200, Note_on_c, 2, 59, 76
8, 1371, Note_on_c, 2, 59, 0
8, 1380, Note_on_c, 2, 57, 76
8, 1431, Note_on_c, 2, 57, 0
8, 1440, Note_on_c, 2, 59, 76
8, 1611, Note_on_c, 2, 59, 0
8, 1620, Note_on_c, 2, 57, 76
8, 1671, Note_on_c, 2, 57, 0
8, 1680, Note_on_c, 2, 59, 76
8, 1851, Note_on_c, 2, 59, 0
8, 1860, Note_on_c, 2, 55, 76
8, 1911, Note_on_c, 2, 55, 0
8, 1920, Note_on_c, 2, 57, 76
8, 2211, Note_on_c, 2, 57, 0
8, 2220, Note_on_c, 2, 57, 76
8, 2271, Note_on_c, 2, 57, 0
8, 2280, Note_on_c, 2, 59, 76
8, 2331, Note_on_c, 2, 59, 0
8, 2340, Note_on_c, 2, 60, 76
8, 2391, Note_on_c, 2, 60, 0
8, 2400, Note_on_c, 2, 62, 76
8, 2451, Note_on_c, 2, 62, 0
8, 2460, Note_on_c, 2, 60, 76
8, 2511, Note_on_c, 2, 60, 0
8, 2520, Note_on_c, 2, 59, 76
8, 2571, Note_on_c, 2, 59, 0
8, 2580, Note_on_c, 2, 60, 76
8, 2631, Note_on_c, 2, 60, 0
8, 2640, Note_on_c, 2, 62, 76
8, 2691, Note_on_c, 2, 62, 0
8, 2700, Note_on_c, 2, 59, 76
8, 2751, Note_on_c, 2, 59, 0
8, 2760, Note_on_c, 2, 60, 76
8, 2811, Note_on_c, 2, 60, 0
8, 2820, Note_on_c, 2, 62, 76
8, 2871, Note_on_c, 2, 62, 0
8, 2880, Note_on_c, 2, 55, 76
8, 3051, Note_on_c, 2, 55, 0
8, 3060, Note_on_c, 2, 57, 76
8, 3111, Note_on_c, 2, 57, 0
8, 3120, Note_on_c, 2, 59, 76
8, 3291, Note_on_c, 2, 59, 0
8, 3300, Note_on_c, 2, 55, 76
8, 3351, Note_on_c, 2, 55, 0
8, 3360, Note_on_c, 2, 60, 76
8, 3591, Note_on_c, 2, 60, 0
8, 3600, Note_on_c, 2, 48, 76
8, 3831, Note_on_c, 2, 48, 0
8, 3840, Note_on_c, 2, 55, 76
8, 4371, Note_on_c, 2, 55, 0
8, 4380, Note_on_c, 2, 54, 76
8, 4431, Note_on_c, 2, 54, 0
8, 4440, Note_on_c, 2, 55, 76
8, 4491, Note_on_c, 2, 55, 0
8, 4500, Note_on_c, 2, 57, 76
8, 4551, Note_on_c, 2, 57, 0
8, 4560, Note_on_c, 2, 59, 76
8, 4611, Note_on_c, 2, 59, 0
8, 4620, Note_on_c, 2, 55, 76
8, 4671, Note_on_c, 2, 55, 0
8, 4680, Note_on_c, 2, 57, 76
8, 4731, Note_on_c, 2, 57, 0
8, 4740, Note_on_c, 2, 59, 76
8, 4791, Note_on_c, 2, 59, 0
8, 4800, Note_on_c, 2, 48, 76
8, 5331, Note_on_c, 2, 48, 0
8, 5340, Note_on_c, 2, 47, 76
8, 5391, Note_on_c, 2, 47, 0
8, 5400, Note_on_c, 2, 45, 76
8, 5451, Note_on_c, 2, 45, 0
8, 5460, Note_on_c, 2, 47, 76
8, 5511, Note_on_c, 2, 47, 0
8, 5520, Note_on_c, 2, 48, 76
8, 5571, Note_on_c, 2, 48, 0
8, 5580, Note_on_c, 2, 45, 76
8, 5631, Note_on_c, 2, 45, 0
8, 5640, Note_on_c, 2, 47, 76
8, 5691, Note_on_c, 2, 47, 0
8, 5700, Note_on_c, 2, 48, 76
8, 5751, Note_on_c, 2, 48, 0
8, 5760, Note_on_c, 2, 40, 76
8, 5991, Note_on_c, 2, 40, 0
8, 6000, Note_on_c, 2, 52, 76
8, 6291, Note_on_c, 2, 52, 0
8, 6300, Note_on_c, 2, 50, 76
8, 6351, Note_on_c, 2, 50, 0
8, 6360, Note_on_c, 2, 52, 76
8, 6411, Note_on_c, 2, 52, 0
8, 6420, Note_on_c, 2, 54, 76
8, 6471, Note_on_c, 2, 54, 0
8, 6480, Note_on_c, 2, 55, 76
8, 6531, Note_on_c, 2, 55, 0
8, 6540, Note_on_c, 2, 54, 76
8, 6591, Note_on_c, 2, 54, 0
8, 6600, Note_on_c, 2, 55, 76
8, 6651, Note_on_c, 2, 55, 0
8, 6660, Note_on_c, 2, 52, 76
8, 6711, Note_on_c, 2, 52, 0
8, 6720, Note_on_c, 2, 61, 76
8, 7371, Note_on_c, 2, 61, 0
8, 7380, Note_on_c, 2, 59, 76
8, 7431, Note_on_c, 2, 59, 0
8, 7440, Note_on_c, 2, 61, 76
8, 7611, Note_on_c, 2, 61, 0
8, 7620, Note_on_c, 2, 57, 76
8, 7671, Note_on_c, 2, 57, 0
8, 7680, Note_on_c, 2, 62, 76
8, 8331, Note_on_c, 2, 62, 0
8, 8340, Note_on_c, 2, 64, 76
8, 8391, Note_on_c, 2, 64, 0
8, 8400, Note_on_c, 2, 62, 76
8, 8571, Note_on_c, 2, 62, 0
8, 8580, Note_on_c, 2, 60, 76
8, 8631, Note_on_c, 2, 60, 0
8, 8640, Note_on_c, 2, 59, 76
8, 9171, Note_on_c, 2, 59, 0
8, 9180, Note_on_c, 2, 57, 76
8, 9231, Note_on_c, 2, 57, 0
8, 9240, Note_on_c, 2, 55, 76
8, 9291, Note_on_c, 2, 55, 0
8, 9300, Note_on_c, 2, 57, 76
8, 9351, Note_on_c, 2, 57, 0
8, 9360, Note_on_c, 2, 59, 76
8, 9411, Note_on_c, 2, 59, 0
8, 9420, Note_on_c, 2, 55, 76
8, 9471, Note_on_c, 2, 55, 0
8, 9480, Note_on_c, 2, 57, 76
8, 9531, Note_on_c, 2, 57, 0
8, 9540, Note_on_c, 2, 59, 76
8, 9591, Note_on_c, 2, 59, 0
8, 9600, Note_on_c, 2, 48, 76
8, 10131, Note_on_c, 2, 48, 0
8, 10140, Note_on_c, 2, 47, 76
8, 10191, Note_on_c, 2, 47, 0
8, 10200, Note_on_c, 2, 48, 76
8, 10251, Note_on_c, 2, 48, 0
8, 10260, Note_on_c, 2, 50, 76
8, 10311, Note_on_c, 2, 50, 0
8, 10320, Note_on_c, 2, 52, 76
8, 10371, Note_on_c, 2, 52, 0
8, 10380, Note_on_c, 2, 48, 76
8, 10431, Note_on_c, 2, 48, 0
8, 10440, Note_on_c, 2, 50, 76
8, 10491, Note_on_c, 2, 50, 0
8, 10500, Note_on_c, 2, 52, 76
8, 10551, Note_on_c, 2, 52, 0
8, 10560, Note_on_c, 2, 45, 76
8, 11091, Note_on_c, 2, 45, 0
8, 11100, Note_on_c, 2, 43, 76
8, 11151, Note_on_c, 2, 43, 0
8, 11160, Note_on_c, 2, 45, 76
8, 11211, Note_on_c, 2, 45, 0
8, 11220, Note_on_c, 2, 47, 76
8, 11271, Note_on_c, 2, 47, 0
8, 11280, Note_on_c, 2, 48, 76
8, 11331, Note_on_c, 2, 48, 0
8, 11340, Note_on_c, 2, 47, 76
8, 11391, Note_on_c, 2, 47, 0
8, 11400, Note_on_c, 2, 48, 76
8, 11451, Note_on_c, 2, 48, 0
8, 11460, Note_on_c, 2, 50, 76
8, 11511, Note_on_c, 2, 50, 0
8, 11520, Note_on_c, 2, 52, 76
8, 11751, Note_on_c, 2, 52, 0
8, 11760, Note_on_c, 2, 64, 76
8, 11991, Note_on_c, 2, 64, 0
8, 12000, Note_on_c, 2, 62, 76
8, 12231, Note_on_c, 2, 62, 0
8, 12240, Note_on_c, 2, 60, 76
8, 12471, Note_on_c, 2, 60, 0
8, 12480, Note_on_c, 2, 59, 76
8, 12711, Note_on_c, 2, 59, 0
8, 12720, Note_on_c, 2, 47, 76
8, 12951, Note_on_c, 2, 47, 0
8, 12960, Note_on_c, 2, 45, 76
8, 13191, Note_on_c, 2, 45, 0
8, 13200, Note_on_c, 2, 43, 76
8, 13431, Note_on_c, 2, 43, 0
8, 13440, Note_on_c, 2, 42, 76
8, 13671, Note_on_c, 2, 42, 0
8, 13680, Note_on_c, 2, 43, 76
8, 13851, Note_on_c, 2, 43, 0
8, 13860, Note_on_c, 2, 48, 76
8, 13911, Note_on_c, 2, 48, 0
8, 13920, Note_on_c, 2, 50, 76
8, 14151, Note_on_c, 2, 50, 0
8, 14160, Note_on_c, 2, 38, 76
8, 14391, Note_on_c, 2, 38, 0
8, 14400, Note_on_c, 2, 43, 76
8, 14691, Note_on_c, 2, 43, 0
8, 14700, Note_on_c, 2, 42, 76
8, 14751, Note_on_c, 2, 42, 0
8, 14760, Note_on_c, 2, 43, 76
8, 14811, Note_on_c, 2, 43, 0
8, 14820, Note_on_c, 2, 45, 76
8, 14871, Note_on_c, 2, 45, 0
8, 14880, Note_on_c, 2, 47, 76
8, 14931, Note_on_c, 2, 47, 0
8, 14940, Note_on_c, 2, 45, 76
8, 14991, Note_on_c, 2, 45, 0
8, 15000, Note_on_c, 2, 43, 76
8, 15051, Note_on_c, 2, 43, 0
8, 15060, Note_on_c, 2, 45, 76
8, 15111, Note_on_c, 2, 45, 0
8, 15120, Note_on_c, 2, 47, 76
8, 15171, Note_on_c, 2, 47, 0
8, 15180, Note_on_c, 2, 43, 76
8, 15231, Note_on_c, 2, 43, 0
8, 15240, Note_on_c, 2, 45, 76
8, 15291, Note_on_c, 2, 45, 0
8, 15300, Note_on_c, 2, 47, 76
8, 15351, Note_on_c, 2, 47, 0
8, 15360, Note_on_c, 2, 48, 76
8, 15651, Note_on_c, 2, 48, 0
8, 15660, Note_on_c, 2, 55, 76
8, 15711, Note_on_c, 2, 55, 0
8, 15720, Note_on_c, 2, 57, 76
8, 15771, Note_on_c, 2, 57, 0
8, 15780, Note_on_c, 2, 59, 76
8, 15831, Note_on_c, 2, 59, 0
8, 15840, Note_on_c, 2, 60, 76
8, 16491, Note_on_c, 2, 60, 0
8, 16500, Note_on_c, 2, 60, 76
8, 16551, Note_on_c, 2, 60, 0
8, 16560, Note_on_c, 2, 59, 76
8, 16731, Note_on_c, 2, 59, 0
8, 16740, Note_on_c, 2, 57, 76
8, 16791, Note_on_c, 2, 57, 0
8, 16800, Note_on_c, 2, 59, 76
8, 16971, Note_on_c, 2, 59, 0
8, 16980, Note_on_c, 2, 57, 76
8, 17031, Note_on_c, 2, 57, 0
8, 17040, Note_on_c, 2, 59, 76
8, 17211, Note_on_c, 2, 59, 0
8, 17220, Note_on_c, 2, 55, 76
8, 17271, Note_on_c, 2, 55, 0
8, 17280, Note_on_c, 2, 57, 76
8, 17571, Note_on_c, 2, 57, 0
8, 17580, Note_on_c, 2, 57, 76
8, 17631, Note_on_c, 2, 57, 0
8, 17640, Note_on_c, 2, 59, 76
8, 17691, Note_on_c, 2, 59, 0
8, 17700, Note_on_c, 2, 60, 76
8, 17751, Note_on_c, 2, 60, 0
8, 17760, Note_on_c, 2, 62, 76
8, 17811, Note_on_c, 2, 62, 0
8, 17820, Note_on_c, 2, 60, 76
8, 17871, Note_on_c, 2, 60, 0
8, 17880, Note_on_c, 2, 59, 76
8, 17931, Note_on_c, 2, 59, 0
8, 17940, Note_on_c, 2, 60, 76
8, 17991, Note_on_c, 2, 60, 0
8, 18000, Note_on_c, 2, 62, 76
8, 18051, Note_on_c, 2, 62, 0
8, 18060, Note_on_c, 2, 59, 76
8, 18111, Note_on_c, 2, 59, 0
8, 18120, Note_on_c, 2, 60, 76
8, 18171, Note_on_c, 2, 60, 0
8, 18180, Note_on_c, 2, 62, 76
8, 18231, Note_on_c, 2, 62, 0
8, 18240, Note_on_c, 2, 55, 76
8, 18411, Note_on_c, 2, 55, 0
8, 18420, Note_on_c, 2, 57, 76
8, 18471, Note_on_c, 2, 57, 0
8, 18480, Note_on_c, 2, 59, 76
8, 18651, Note_on_c, 2, 59, 0
8, 18660, Note_on_c, 2, 55, 76
8, 18711, Note_on_c, 2, 55, 0
8, 18720, Note_on_c, 2, 60, 76
8, 18951, Note_on_c, 2, 60, 0
8, 18960, Note_on_c, 2, 48, 76
8, 19191, Note_on_c, 2, 48, 0
8, 19200, Note_on_c, 2, 55, 76
8, 19731, Note_on_c, 2, 55, 0
8, 19740, Note_on_c, 2, 54, 76
8, 19791, Note_on_c, 2, 54, 0
8, 19800, Note_on_c, 2, 55, 76
8, 19851, Note_on_c, 2, 55, 0
8, 19860, Note_on_c, 2, 57, 76
8, 19911, Note_on_c, 2, 57, 0
8, 19920, Note_on_c, 2, 59, 76
8, 19971, Note_on_c, 2, 59, 0
8, 19980, Note_on_c, 2, 55, 76
8, 20031, Note_on_c, 2, 55, 0
8, 20040, Note_on_c, 2, 57, 76
8, 20091, Note_on_c, 2, 57, 0
8, 20100, Note_on_c, 2, 59, 76
8, 20151, Note_on_c, 2, 59, 0
8, 20160, Note_on_c, 2, 48, 76
8, 20691, Note_on_c, 2, 48, 0
8, 20700, Note_on_c, 2, 47, 76
8, 20751, Note_on_c, 2, 47, 0
8, 20760, Note_on_c, 2, 45, 76
8, 20811, Note_on_c, 2, 45, 0
8, 20820, Note_on_c, 2, 47, 76
8, 20871, Note_on_c, 2, 47, 0
8, 20880, Note_on_c, 2, 48, 76
8, 20931, Note_on_c, 2, 48, 0
8, 20940, Note_on_c, 2, 45, 76
8, 20991, Note_on_c, 2, 45, 0
8, 21000, Note_on_c, 2, 47, 76
8, 21051, Note_on_c, 2, 47, 0
8, 21060, Note_on_c, 2, 48, 76
8, 21111, Note_on_c, 2, 48, 0
8, 21120, Note_on_c, 2, 40, 76
8, 21351, Note_on_c, 2, 40, 0
8, 21360, Note_on_c, 2, 52, 76
8, 21651, Note_on_c, 2, 52, 0
8, 21660, Note_on_c, 2, 50, 76
8, 21711, Note_on_c, 2, 50, 0
8, 21720, Note_on_c, 2, 52, 76
8, 21771, Note_on_c, 2, 52, 0
8, 21780, Note_on_c, 2, 54, 76
8, 21831, Note_on_c, 2, 54, 0
8, 21840, Note_on_c, 2, 55, 76
8, 21891, Note_on_c, 2, 55, 0
8, 21900, Note_on_c, 2, 54, 76
8, 21951, Note_on_c, 2, 54, 0
8, 21960, Note_on_c, 2, 55, 76
8, 22011, Note_on_c, 2, 55, 0
8, 22020, Note_on_c, 2, 52, 76
8, 22071, Note_on_c, 2, 52, 0
8, 22080, Note_on_c, 2, 61, 76
8, 22731, Note_on_c, 2, 61, 0
8, 22740, Note_on_c, 2, 59, 76
8, 22791, Note_on_c, 2, 59, 0
8, 22800, Note_on_c, 2, 61, 76
8, 22971, Note_on_c, 2, 61, 0
8, 22980, Note_on_c, 2, 57, 76
8, 23031, Note_on_c, 2, 57, 0
8, 23040, Note_on_c, 2, 62, 76
8, 23691, Note_on_c, 2, 62, 0
8, 23700, Note_on_c, 2, 64, 76
8, 23751, Note_on_c, 2, 64, 0
8, 23760, Note_on_c, 2, 62, 76
8, 23931, Note_on_c, 2, 62, 0
8, 23940, Note_on_c, 2, 60, 76
8, 23991, Note_on_c, 2, 60, 0
8, 24000, Note_on_c, 2, 59, 76
8, 24531, Note_on_c, 2, 59, 0
8, 24540, Note_on_c, 2, 57, 76
8, 24591, Note_on_c, 2, 57, 0
8, 24600, Note_on_c, 2, 55, 76
8, 24651, Note_on_c, 2, 55, 0
8, 24660, Note_on_c, 2, 57, 76
8, 24711, Note_on_c, 2, 57, 0
8, 24720, Note_on_c, 2, 59, 76
8, 24771, Note_on_c, 2, 59, 0
8, 24780, Note_on_c, 2, 55, 76
8, 24831, Note_on_c, 2, 55, 0
8, 24840, Note_on_c, 2, 57, 76
8, 24891, Note_on_c, 2, 57, 0
8, 24900, Note_on_c, 2, 59, 76
8, 24951, Note_on_c, 2, 59, 0
8, 24960, Note_on_c, 2, 48, 76
8, 25491, Note_on_c, 2, 48, 0
8, 25500, Note_on_c, 2, 47, 76
8, 25551, Note_on_c, 2, 47, 0
8, 25560, Note_on_c, 2, 48, 76
8, 25611, Note_on_c, 2, 48, 0
8, 25620, Note_on_c, 2, 50, 76
8, 25671, Note_on_c, 2, 50, 0
8, 25680, Note_on_c, 2, 52, 76
8, 25731, Note_on_c, 2, 52, 0
8, 25740, Note_on_c, 2, 48, 76
8, 25791, Note_on_c, 2, 48, 0
8, 25800, Note_on_c, 2, 50, 76
8, 25851, Note_on_c, 2, 50, 0
8, 25860, Note_on_c, 2, 52, 76
8, 25911, Note_on_c, 2, 52, 0
8, 25920, Note_on_c, 2, 45, 76
8, 26451, Note_on_c, 2, 45, 0
8, 26460, Note_on_c, 2, 43, 76
8, 26511, Note_on_c, 2, 43, 0
8, 26520, Note_on_c, 2, 45, 76
8, 26571, Note_on_c, 2, 45, 0
8, 26580, Note_on_c, 2, 47, 76
8, 26631, Note_on_c, 2, 47, 0
8, 26640, Note_on_c, 2, 48, 76
8, 26691, Note_on_c, 2, 48, 0
8, 26700, Note_on_c, 2, 47, 76
8, 26751, Note_on_c, 2, 47, 0
8, 26760, Note_on_c, 2, 48, 76
8, 26811, Note_on_c, 2, 48, 0
8, 26820, Note_on_c, 2, 50, 76
8, 26871, Note_on_c, 2, 50, 0
8, 26880, Note_on_c, 2, 52, 76
8, 27111, Note_on_c, 2, 52, 0
8, 27120, Note_on_c, 2, 64, 76
8, 27351, Note_on_c, 2, 64, 0
8, 27360, Note_on_c, 2, 62, 76
8, 27591, Note_on_c, 2, 62, 0
8, 27600, Note_on_c, 2, 60, 76
8, 27831, Note_on_c, 2, 60, 0
8, 27840, Note_on_c, 2, 59, 76
8, 28071, Note_on_c, 2, 59, 0
8, 28080, Note_on_c, 2, 47, 76
8, 28311, Note_on_c, 2, 47, 0
8, 28320, Note_on_c, 2, 45, 76
8, 28551, Note_on_c, 2, 45, 0
8, 28560, Note_on_c, 2, 43, 76
8, 28791, Note_on_c, 2, 43, 0
8, 28800, Note_on_c, 2, 42, 76
8, 29031, Note_on_c, 2, 42, 0
8, 29040, Note_on_c, 2, 43, 76
8, 29211, Note_on_c, 2, 43, 0
8, 29220, Note_on_c, 2, 48, 76
8, 29271, Note_on_c, 2, 48, 0
8, 29280, Note_on_c, 2, 50, 76
8, 29511, Note_on_c, 2, 50, 0
8, 29520, Note_on_c, 2, 38, 76
8, 29751, Note_on_c, 2, 38, 0
8, 29760, Note_on_c, 2, 43, 76
8, 29879, Note_on_c, 2, 43, 0
8, 34200, Note_on_c, 2, 60, 76
8, 34304, Note_on_c, 2, 60, 0
8, 34320, Note_on_c, 2, 60, 76
8, 34424, Note_on_c, 2, 60, 0
8, 34440, Note_on_c, 2, 60, 76
8, 34544, Note_on_c, 2, 60, 0
8, 34560, Note_on_c, 2, 59, 76
8, 34664, Note_on_c, 2, 59, 0
8, 34680, Note_on_c, 2, 60, 76
8, 34724, Note_on_c, 2, 60, 0
8, 34740, Note_on_c, 2, 62, 76
8, 34784, Note_on_c, 2, 62, 0
8, 34800, Note_on_c, 2, 64, 76
8, 34904, Note_on_c, 2, 64, 0
8, 34920, Note_on_c, 2, 60, 76
8, 35024, Note_on_c, 2, 60, 0
8, 35040, Note_on_c, 2, 57, 76
8, 35144, Note_on_c, 2, 57, 0
8, 35160, Note_on_c, 2, 62, 76
8, 35264, Note_on_c, 2, 62, 0
8, 35280, Note_on_c, 2, 50, 76
8, 35384, Note_on_c, 2, 50, 0
8, 35400, Note_on_c, 2, 60, 76
8, 35504, Note_on_c, 2, 60, 0
8, 35520, Note_on_c, 2, 59, 76
8, 35564, Note_on_c, 2, 59, 0
8, 35580, Note_on_c, 2, 57, 76
8, 35624, Note_on_c, 2, 57, 0
8, 35640, Note_on_c, 2, 55, 76
8, 35684, Note_on_c, 2, 55, 0
8, 35700, Note_on_c, 2, 57, 76
8, 35744, Note_on_c, 2, 57, 0
8, 35760, Note_on_c, 2, 59, 76
8, 35804, Note_on_c, 2, 59, 0
8, 35820, Note_on_c, 2, 55, 76
8, 35864, Note_on_c, 2, 55, 0
8, 35880, Note_on_c, 2, 57, 76
8, 35924, Note_on_c, 2, 57, 0
8, 35940, Note_on_c, 2, 59, 76
8, 35984, Note_on_c, 2, 59, 0
8, 36000, Note_on_c, 2, 60, 76
8, 36104, Note_on_c, 2, 60, 0
8, 36120, Note_on_c, 2, 55, 76
8, 36224, Note_on_c, 2, 55, 0
8, 36240, Note_on_c, 2, 60, 76
8, 36404, Note_on_c, 2, 60, 0
8, 36420, Note_on_c, 2, 60, 76
8, 36464, Note_on_c, 2, 60, 0
8, 36480, Note_on_c, 2, 60, 76
8, 36524, Note_on_c, 2, 60, 0
8, 36540, Note_on_c, 2, 59, 76
8, 36584, Note_on_c, 2, 59, 0
8, 36600, Note_on_c, 2, 60, 76
8, 36644, Note_on_c, 2, 60, 0
8, 36660, Note_on_c, 2, 57, 76
8, 36704, Note_on_c, 2, 57, 0
8, 36720, Note_on_c, 2, 59, 76
8, 36884, Note_on_c, 2, 59, 0
8, 36900, Note_on_c, 2, 59, 76
8, 36944, Note_on_c, 2, 59, 0
8, 36960, Note_on_c, 2, 59, 76
8, 37064, Note_on_c, 2, 59, 0
8, 37080, Note_on_c, 2, 52, 76
8, 37184, Note_on_c, 2, 52, 0
8, 37200, Note_on_c, 2, 57, 76
8, 37364, Note_on_c, 2, 57, 0
8, 37380, Note_on_c, 2, 57, 76
8, 37424, Note_on_c, 2, 57, 0
8, 37440, Note_on_c, 2, 57, 76
8, 37484, Note_on_c, 2, 57, 0
8, 37500, Note_on_c, 2, 55, 76
8, 37544, Note_on_c, 2, 55, 0
8, 37560, Note_on_c, 2, 57, 76
8, 37604, Note_on_c, 2, 57, 0
8, 37620, Note_on_c, 2, 53, 76
8, 37664, Note_on_c, 2, 53, 0
8, 37680, Note_on_c, 2, 55, 76
8, 37844, Note_on_c, 2, 55, 0
8, 37860, Note_on_c, 2, 55, 76
8, 37904, Note_on_c, 2, 55, 0
8, 37920, Note_on_c, 2, 55, 76
8, 38024, Note_on_c, 2, 55, 0
8, 38040, Note_on_c, 2, 48, 76
8, 38144, Note_on_c, 2, 48, 0
8, 38160, Note_on_c, 2, 53, 76
8, 38324, Note_on_c, 2, 53, 0
8, 38340, Note_on_c, 2, 53, 76
8, 38384, Note_on_c, 2, 53, 0
8, 38400, Note_on_c, 2, 53, 76
8, 38444, Note_on_c, 2, 53, 0
8, 38460, Note_on_c, 2, 52, 76
8, 38504, Note_on_c, 2, 52, 0
8, 38520, Note_on_c, 2, 53, 76
8, 38564, Note_on_c, 2, 53, 0
8, 38580, Note_on_c, 2, 50, 76
8, 38624, Note_on_c, 2, 50, 0
8, 38640, Note_on_c, 2, 52, 76
8, 38684, Note_on_c, 2, 52, 0
8, 38700, Note_on_c, 2, 53, 76
8, 38744, Note_on_c, 2, 53, 0
8, 38760, Note_on_c, 2, 55, 76
8, 38804, Note_on_c, 2, 55, 0
8, 38820, Note_on_c, 2, 52, 76
8, 38864, Note_on_c, 2, 52, 0
8, 38880, Note_on_c, 2, 57, 76
8, 38924, Note_on_c, 2, 57, 0
8, 38940, Note_on_c, 2, 58, 76
8, 38984, Note_on_c, 2, 58, 0
8, 39000, Note_on_c, 2, 57, 76
8, 39044, Note_on_c, 2, 57, 0
8, 39060, Note_on_c, 2, 55, 76
8, 39104, Note_on_c, 2, 55, 0
8, 39120, Note_on_c, 2, 53, 76
8, 39164, Note_on_c, 2, 53, 0
8, 39180, Note_on_c, 2, 52, 76
8, 39224, Note_on_c, 2, 52, 0
8, 39240, Note_on_c, 2, 50, 76
8, 39284, Note_on_c, 2, 50, 0
8, 39300, Note_on_c, 2, 48, 76
8, 39344, Note_on_c, 2, 48, 0
8, 39360, Note_on_c, 2, 47, 76
8, 39404, Note_on_c, 2, 47, 0
8, 39420, Note_on_c, 2, 45, 76
8, 39464, Note_on_c, 2, 45, 0
8, 39480, Note_on_c, 2, 43, 76
8, 39524, Note_on_c, 2, 43, 0
8, 39540, Note_on_c, 2, 45, 76
8, 39584, Note_on_c, 2, 45, 0
8, 39600, Note_on_c, 2, 47, 76
8, 39644, Note_on_c, 2, 47, 0
8, 39660, Note_on_c, 2, 45, 76
8, 39704, Note_on_c, 2, 45, 0
8, 39720, Note_on_c, 2, 47, 76
8, 39764, Note_on_c, 2, 47, 0
8, 39780, Note_on_c, 2, 43, 76
8, 39824, Note_on_c, 2, 43, 0
8, 39840, Note_on_c, 2, 48, 76
8, 39944, Note_on_c, 2, 48, 0
8, 39960, Note_on_c, 2, 53, 76
8, 40064, Note_on_c, 2, 53, 0
8, 40080, Note_on_c, 2, 55, 76
8, 40184, Note_on_c, 2, 55, 0
8, 40200, Note_on_c, 2, 43, 76
8, 40304, Note_on_c, 2, 43, 0
8, 40320, Note_on_c, 2, 48, 76
8, 40364, Note_on_c, 2, 48, 0
8, 40380, Note_on_c, 2, 47, 76
8, 40424, Note_on_c, 2, 47, 0
8, 40440, Note_on_c, 2, 48, 76
8, 40484, Note_on_c, 2, 48, 0
8, 40500, Note_on_c, 2, 50, 76
8, 40544, Note_on_c, 2, 50, 0
8, 40560, Note_on_c, 2, 48, 76
8, 40604, Note_on_c, 2, 48, 0
8, 40620, Note_on_c, 2, 50, 76
8, 40664, Note_on_c, 2, 50, 0
8, 40680, Note_on_c, 2, 52, 76
8, 40724, Note_on_c, 2, 52, 0
8, 40740, Note_on_c, 2, 48, 76
8, 40784, Note_on_c, 2, 48, 0
8, 40800, Note_on_c, 2, 53, 76
8, 40844, Note_on_c, 2, 53, 0
8, 40860, Note_on_c, 2, 55, 76
8, 40904, Note_on_c, 2, 55, 0
8, 40920, Note_on_c, 2, 53, 76
8, 40964, Note_on_c, 2, 53, 0
8, 40980, Note_on_c, 2, 52, 76
8, 41024, Note_on_c, 2, 52, 0
8, 41040, Note_on_c, 2, 50, 76
8, 41084, Note_on_c, 2, 50, 0
8, 41100, Note_on_c, 2, 52, 76
8, 41144, Note_on_c, 2, 52, 0
8, 41160, Note_on_c, 2, 53, 76
8, 41204, Note_on_c, 2, 53, 0
8, 41220, Note_on_c, 2, 50, 76
8, 41264, Note_on_c, 2, 50, 0
8, 41280, Note_on_c, 2, 52, 76
8, 41324, Note_on_c, 2, 52, 0
8, 41340, Note_on_c, 2, 50, 76
8, 41384, Note_on_c, 2, 50, 0
8, 41400, Note_on_c, 2, 52, 76
8, 41444, Note_on_c, 2, 52, 0
8, 41460, Note_on_c, 2, 53, 76
8, 41504, Note_on_c, 2, 53, 0
8, 41520, Note_on_c, 2, 52, 76
8, 41564, Note_on_c, 2, 52, 0
8, 41580, Note_on_c, 2, 50, 76
8, 41624, Note_on_c, 2, 50, 0
8, 41640, Note_on_c, 2, 48, 76
8, 41684, Note_on_c, 2, 48, 0
8, 41700, Note_on_c, 2, 47, 76
8, 41744, Note_on_c, 2, 47, 0
8, 41760, Note_on_c, 2, 45, 76
8, 41804, Note_on_c, 2, 45, 0
8, 41820, Note_on_c, 2, 47, 76
8, 41864, Note_on_c, 2, 47, 0
8, 41880, Note_on_c, 2, 48, 76
8, 41924, Note_on_c, 2, 48, 0
8, 41940, Note_on_c, 2, 50, 76
8, 41984, Note_on_c, 2, 50, 0
8, 42000, Note_on_c, 2, 52, 76
8, 42044, Note_on_c, 2, 52, 0
8, 42060, Note_on_c, 2, 54, 76
8, 42104, Note_on_c, 2, 54, 0
8, 42120, Note_on_c, 2, 56, 76
8, 42164, Note_on_c, 2, 56, 0
8, 42180, Note_on_c, 2, 52, 76
8, 42224, Note_on_c, 2, 52, 0
8, 42240, Note_on_c, 2, 57, 76
8, 42284, Note_on_c, 2, 57, 0
8, 42300, Note_on_c, 2, 55, 76
8, 42344, Note_on_c, 2, 55, 0
8, 42360, Note_on_c, 2, 53, 76
8, 42404, Note_on_c, 2, 53, 0
8, 42420, Note_on_c, 2, 52, 76
8, 42464, Note_on_c, 2, 52, 0
8, 42480, Note_on_c, 2, 50, 76
8, 42524, Note_on_c, 2, 50, 0
8, 42540, Note_on_c, 2, 52, 76
8, 42584, Note_on_c, 2, 52, 0
8, 42600, Note_on_c, 2, 53, 76
8, 42644, Note_on_c, 2, 53, 0
8, 42660, Note_on_c, 2, 50, 76
8, 42704, Note_on_c, 2, 50, 0
8, 42720, Note_on_c, 2, 52, 76
8, 42764, Note_on_c, 2, 52, 0
8, 42780, Note_on_c, 2, 50, 76
8, 42824, Note_on_c, 2, 50, 0
8, 42840, Note_on_c, 2, 52, 76
8, 42884, Note_on_c, 2, 52, 0
8, 42900, Note_on_c, 2, 53, 76
8, 42944, Note_on_c, 2, 53, 0
8, 42960, Note_on_c, 2, 52, 76
8, 43004, Note_on_c, 2, 52, 0
8, 43020, Note_on_c, 2, 50, 76
8, 43064, Note_on_c, 2, 50, 0
8, 43080, Note_on_c, 2, 48, 76
8, 43124, Note_on_c, 2, 48, 0
8, 43140, Note_on_c, 2, 47, 76
8, 43184, Note_on_c, 2, 47, 0
8, 43200, Note_on_c, 2, 45, 76
8, 43304, Note_on_c, 2, 45, 0
8, 43320, Note_on_c, 2, 57, 76
8, 43424, Note_on_c, 2, 57, 0
8, 43440, Note_on_c, 2, 57, 76
8, 43544, Note_on_c, 2, 57, 0
8, 43560, Note_on_c, 2, 57, 76
8, 43664, Note_on_c, 2, 57, 0
8, 43680, Note_on_c, 2, 55, 76
8, 43784, Note_on_c, 2, 55, 0
8, 43800, Note_on_c, 2, 57, 76
8, 43844, Note_on_c, 2, 57, 0
8, 43860, Note_on_c, 2, 59, 76
8, 43904, Note_on_c, 2, 59, 0
8, 43920, Note_on_c, 2, 60, 76
8, 44024, Note_on_c, 2, 60, 0
8, 44040, Note_on_c, 2, 57, 76
8, 44144, Note_on_c, 2, 57, 0
8, 44160, Note_on_c, 2, 54, 76
8, 44264, Note_on_c, 2, 54, 0
8, 44280, Note_on_c, 2, 59, 76
8, 44384, Note_on_c, 2, 59, 0
8, 44400, Note_on_c, 2, 47, 76
8, 44504, Note_on_c, 2, 47, 0
8, 44520, Note_on_c, 2, 59, 76
8, 44624, Note_on_c, 2, 59, 0
8, 44640, Note_on_c, 2, 56, 76
8, 44744, Note_on_c, 2, 56, 0
8, 44760, Note_on_c, 2, 52, 76
8, 44864, Note_on_c, 2, 52, 0
8, 44880, Note_on_c, 2, 57, 76
8, 44984, Note_on_c, 2, 57, 0
8, 45000, Note_on_c, 2, 50, 76
8, 45104, Note_on_c, 2, 50, 0
8, 45120, Note_on_c, 2, 52, 76
8, 45344, Note_on_c, 2, 52, 0
8, 45360, Note_on_c, 2, 40, 76
8, 45584, Note_on_c, 2, 40, 0
8, 45600, Note_on_c, 2, 45, 76
8, 45839, Note_on_c, 2, 45, 0
8, 46620, Note_on_c, 2, 60, 76
8, 46664, Note_on_c, 2, 60, 0
8, 46680, Note_on_c, 2, 59, 76
8, 46724, Note_on_c, 2, 59, 0
8, 46740, Note_on_c, 2, 57, 76
8, 46784, Note_on_c, 2, 57, 0
8, 46800, Note_on_c, 2, 56, 76
8, 46844, Note_on_c, 2, 56, 0
8, 46860, Note_on_c, 2, 57, 76
8, 46904, Note_on_c, 2, 57, 0
8, 46920, Note_on_c, 2, 56, 76
8, 46964, Note_on_c, 2, 56, 0
8, 46980, Note_on_c, 2, 54, 76
8, 47024, Note_on_c, 2, 54, 0
8, 47040, Note_on_c, 2, 52, 76
8, 47084, Note_on_c, 2, 52, 0
8, 47100, Note_on_c, 2, 62, 76
8, 47144, Note_on_c, 2, 62, 0
8, 47160, Note_on_c, 2, 60, 76
8, 47204, Note_on_c, 2, 60, 0
8, 47220, Note_on_c, 2, 59, 76
8, 47264, Note_on_c, 2, 59, 0
8, 47280, Note_on_c, 2, 57, 76
8, 47324, Note_on_c, 2, 57, 0
8, 47340, Note_on_c, 2, 59, 76
8, 47384, Note_on_c, 2, 59, 0
8, 47400, Note_on_c, 2, 57, 76
8, 47444, Note_on_c, 2, 57, 0
8, 47460, Note_on_c, 2, 55, 76
8, 47504, Note_on_c, 2, 55, 0
8, 47520, Note_on_c, 2, 53, 76
8, 47564, Note_on_c, 2, 53, 0
8, 47580, Note_on_c, 2, 52, 76
8, 47624, Note_on_c, 2, 52, 0
8, 47640, Note_on_c, 2, 53, 76
8, 47684, Note_on_c, 2, 53, 0
8, 47700, Note_on_c, 2, 50, 76
8, 47744, Note_on_c, 2, 50, 0
8, 47760, Note_on_c, 2, 52, 76
8, 47864, Note_on_c, 2, 52, 0
8, 47880, Note_on_c, 2, 40, 76
8, 47984, Note_on_c, 2, 40, 0
8, 48000, Note_on_c, 2, 45, 76
8, 48104, Note_on_c, 2, 45, 0
8, 48120, Note_on_c, 2, 57, 76
8, 48224, Note_on_c, 2, 57, 0
8, 48240, Note_on_c, 2, 57, 76
8, 48344, Note_on_c, 2, 57, 0
8, 48360, Note_on_c, 2, 57, 76
8, 48464, Note_on_c, 2, 57, 0
8, 48480, Note_on_c, 2, 55, 76
8, 48584, Note_on_c, 2, 55, 0
8, 48600, Note_on_c, 2, 57, 76
8, 48644, Note_on_c, 2, 57, 0
8, 48660, Note_on_c, 2, 59, 76
8, 48704, Note_on_c, 2, 59, 0
8, 48720, Note_on_c, 2, 60, 76
8, 48824, Note_on_c, 2, 60, 0
8, 48840, Note_on_c, 2, 57, 76
8, 48944, Note_on_c, 2, 57, 0
8, 48960, Note_on_c, 2, 54, 76
8, 49064, Note_on_c, 2, 54, 0
8, 49080, Note_on_c, 2, 59, 76
8, 49184, Note_on_c, 2, 59, 0
8, 49200, Note_on_c, 2, 47, 76
8, 49304, Note_on_c, 2, 47, 0
8, 49320, Note_on_c, 2, 59, 76
8, 49424, Note_on_c, 2, 59, 0
8, 49440, Note_on_c, 2, 52, 76
8, 49679, Note_on_c, 2, 52, 0
8, 51000, Note_on_c, 2, 52, 76
8, 51104, Note_on_c, 2, 52, 0
8, 51120, Note_on_c, 2, 52, 76
8, 51224, Note_on_c, 2, 52, 0
8, 51240, Note_on_c, 2, 52, 76
8, 51344, Note_on_c, 2, 52, 0
8, 51360, Note_on_c, 2, 48, 76
8, 51464, Note_on_c, 2, 48, 0
8, 51480, Note_on_c, 2, 50, 76
8, 51524, Note_on_c, 2, 50, 0
8, 51540, Note_on_c, 2, 52, 76
8, 51584, Note_on_c, 2, 52, 0
8, 51600, Note_on_c, 2, 53, 76
8, 51704, Note_on_c, 2, 53, 0
8, 51720, Note_on_c, 2, 50, 76
8, 51824, Note_on_c, 2, 50, 0
8, 51840, Note_on_c, 2, 47, 76
8, 51944, Note_on_c, 2, 47, 0
8, 51960, Note_on_c, 2, 52, 76
8, 52064, Note_on_c, 2, 52, 0
8, 52080, Note_on_c, 2, 40, 76
8, 52184, Note_on_c, 2, 40, 0
8, 52200, Note_on_c, 2, 50, 76
8, 52304, Note_on_c, 2, 50, 0
8, 52320, Note_on_c, 2, 48, 76
8, 52364, Note_on_c, 2, 48, 0
8, 52380, Note_on_c, 2, 47, 76
8, 52424, Note_on_c, 2, 47, 0
8, 52440, Note_on_c, 2, 45, 76
8, 52484, Note_on_c, 2, 45, 0
8, 52500, Note_on_c, 2, 47, 76
8, 52544, Note_on_c, 2, 47, 0
8, 52560, Note_on_c, 2, 48, 76
8, 52604, Note_on_c, 2, 48, 0
8, 52620, Note_on_c, 2, 50, 76
8, 52664, Note_on_c, 2, 50, 0
8, 52680, Note_on_c, 2, 52, 76
8, 52724, Note_on_c, 2, 52, 0
8, 52740, Note_on_c, 2, 48, 76
8, 52784, Note_on_c, 2, 48, 0
8, 52800, Note_on_c, 2, 53, 76
8, 52844, Note_on_c, 2, 53, 0
8, 52860, Note_on_c, 2, 55, 76
8, 52904, Note_on_c, 2, 55, 0
8, 52920, Note_on_c, 2, 53, 76
8, 52964, Note_on_c, 2, 53, 0
8, 52980, Note_on_c, 2, 52, 76
8, 53024, Note_on_c, 2, 52, 0
8, 53040, Note_on_c, 2, 50, 76
8, 53084, Note_on_c, 2, 50, 0
8, 53100, Note_on_c, 2, 48, 76
8, 53144, Note_on_c, 2, 48, 0
8, 53160, Note_on_c, 2, 50, 76
8, 53204, Note_on_c, 2, 50, 0
8, 53220, Note_on_c, 2, 47, 76
8, 53264, Note_on_c, 2, 47, 0
8, 53280, Note_on_c, 2, 52, 76
8, 53324, Note_on_c, 2, 52, 0
8, 53340, Note_on_c, 2, 53, 76
8, 53384, Note_on_c, 2, 53, 0
8, 53400, Note_on_c, 2, 52, 76
8, 53444, Note_on_c, 2, 52, 0
8, 53460, Note_on_c, 2, 50, 76
8, 53504, Note_on_c, 2, 50, 0
8, 53520, Note_on_c, 2, 48, 76
8, 53564, Note_on_c, 2, 48, 0
8, 53580, Note_on_c, 2, 50, 76
8, 53624, Note_on_c, 2, 50, 0
8, 53640, Note_on_c, 2, 48, 76
8, 53684, Note_on_c, 2, 48, 0
8, 53700, Note_on_c, 2, 47, 76
8, 53744, Note_on_c, 2, 47, 0
8, 53760, Note_on_c, 2, 45, 76
8, 53864, Note_on_c, 2, 45, 0
8, 53880, Note_on_c, 2, 50, 76
8, 53984, Note_on_c, 2, 50, 0
8, 54000, Note_on_c, 2, 52, 76
8, 54104, Note_on_c, 2, 52, 0
8, 54120, Note_on_c, 2, 40, 76
8, 54224, Note_on_c, 2, 40, 0
8, 54240, Note_on_c, 2, 45, 76
8, 54479, Note_on_c, 2, 45, 0
8, 55740, Note_on_c, 2, 60, 76
8, 55784, Note_on_c, 2, 60, 0
8, 55800, Note_on_c, 2, 59, 76
8, 55844, Note_on_c, 2, 59, 0
8, 55860, Note_on_c, 2, 57, 76
8, 55904, Note_on_c, 2, 57, 0
8, 55920, Note_on_c, 2, 55, 76
8, 55964, Note_on_c, 2, 55, 0
8, 55980, Note_on_c, 2, 54, 76
8, 56024, Note_on_c, 2, 54, 0
8, 56040, Note_on_c, 2, 55, 76
8, 56084, Note_on_c, 2, 55, 0
8, 56100, Note_on_c, 2, 52, 76
8, 56144, Note_on_c, 2, 52, 0
8, 56160, Note_on_c, 2, 57, 76
8, 56264, Note_on_c, 2, 57, 0
8, 56280, Note_on_c, 2, 45, 76
8, 56399, Note_on_c, 2, 45, 0
8, 57660, Note_on_c, 2, 58, 76
8, 57704, Note_on_c, 2, 58, 0
8, 57720, Note_on_c, 2, 57, 76
8, 57764, Note_on_c, 2, 57, 0
8, 57780, Note_on_c, 2, 55, 76
8, 57824, Note_on_c, 2, 55, 0
8, 57840, Note_on_c, 2, 53, 76
8, 57884, Note_on_c, 2, 53, 0
8, 57900, Note_on_c, 2, 52, 76
8, 57944, Note_on_c, 2, 52, 0
8, 57960, Note_on_c, 2, 53, 76
8, 58004, Note_on_c, 2, 53, 0
8, 58020, Note_on_c, 2, 50, 76
8, 58064, Note_on_c, 2, 50, 0
8, 58080, Note_on_c, 2, 55, 76
8, 58184, Note_on_c, 2, 55, 0
8, 58200, Note_on_c, 2, 43, 76
8, 58319, Note_on_c, 2, 43, 0
8, 60060, Note_on_c, 2, 53, 76
8, 60104, Note_on_c, 2, 53, 0
8, 60120, Note_on_c, 2, 52, 76
8, 60164, Note_on_c, 2, 52, 0
8, 60180, Note_on_c, 2, 50, 76
8, 60224, Note_on_c, 2, 50, 0
8, 60240, Note_on_c, 2, 48, 76
8, 60284, Note_on_c, 2, 48, 0
8, 60300, Note_on_c, 2, 47, 76
8, 60344, Note_on_c, 2, 47, 0
8, 60360, Note_on_c, 2, 48, 76
8, 60404, Note_on_c, 2, 48, 0
8, 60420, Note_on_c, 2, 45, 76
8, 60464, Note_on_c, 2, 45, 0
8, 60480, Note_on_c, 2, 50, 76
8, 60584, Note_on_c, 2, 50, 0
8, 60600, Note_on_c, 2, 38, 76
8, 60719, Note_on_c, 2, 38, 0
8, 61080, Note_on_c, 2, 55, 76
8, 61184, Note_on_c, 2, 55, 0
8, 61200, Note_on_c, 2, 55, 76
8, 61304, Note_on_c, 2, 55, 0
8, 61320, Note_on_c, 2, 55, 76
8, 61424, Note_on_c, 2, 55, 0
8, 61440, Note_on_c, 2, 54, 76
8, 61544, Note_on_c, 2, 54, 0
8, 61560, Note_on_c, 2, 55, 76
8, 61604, Note_on_c, 2, 55, 0
8, 61620, Note_on_c, 2, 57, 76
8, 61664, Note_on_c, 2, 57, 0
8, 61680, Note_on_c, 2, 59, 76
8, 61784, Note_on_c, 2, 59, 0
8, 61800, Note_on_c, 2, 55, 76
8, 61904, Note_on_c, 2, 55, 0
8, 61920, Note_on_c, 2, 52, 76
8, 62024, Note_on_c, 2, 52, 0
8, 62040, Note_on_c, 2, 57, 76
8, 62144, Note_on_c, 2, 57, 0
8, 62160, Note_on_c, 2, 45, 76
8, 62264, Note_on_c, 2, 45, 0
8, 62280, Note_on_c, 2, 55, 76
8, 62384, Note_on_c, 2, 55, 0
8, 62400, Note_on_c, 2, 54, 76
8, 62504, Note_on_c, 2, 54, 0
8, 62520, Note_on_c, 2, 55, 76
8, 62564, Note_on_c, 2, 55, 0
8, 62580, Note_on_c, 2, 57, 76
8, 62624, Note_on_c, 2, 57, 0
8, 62640, Note_on_c, 2, 59, 76
8, 62684, Note_on_c, 2, 59, 0
8, 62700, Note_on_c, 2, 60, 76
8, 62744, Note_on_c, 2, 60, 0
8, 62760, Note_on_c, 2, 62, 76
8, 62804, Note_on_c, 2, 62, 0
8, 62820, Note_on_c, 2, 64, 76
8, 62864, Note_on_c, 2, 64, 0
8, 62880, Note_on_c, 2, 57, 76
8, 62924, Note_on_c, 2, 57, 0
8, 62940, Note_on_c, 2, 60, 76
8, 62984, Note_on_c, 2, 60, 0
8, 63000, Note_on_c, 2, 59, 76
8, 63044, Note_on_c, 2, 59, 0
8, 63060, Note_on_c, 2, 60, 76
8, 63104, Note_on_c, 2, 60, 0
8, 63120, Note_on_c, 2, 62, 76
8, 63164, Note_on_c, 2, 62, 0
8, 63180, Note_on_c, 2, 60, 76
8, 63224, Note_on_c, 2, 60, 0
8, 63240, Note_on_c, 2, 59, 76
8, 63284, Note_on_c, 2, 59, 0
8, 63300, Note_on_c, 2, 57, 76
8, 63344, Note_on_c, 2, 57, 0
8, 63360, Note_on_c, 2, 55, 76
8, 63404, Note_on_c, 2, 55, 0
8, 63420, Note_on_c, 2, 59, 76
8, 63464, Note_on_c, 2, 59, 0
8, 63480, Note_on_c, 2, 57, 76
8, 63524, Note_on_c, 2, 57, 0
8, 63540, Note_on_c, 2, 59, 76
8, 63584, Note_on_c, 2, 59, 0
8, 63600, Note_on_c, 2, 60, 76
8, 63644, Note_on_c, 2, 60, 0
8, 63660, Note_on_c, 2, 59, 76
8, 63704, Note_on_c, 2, 59, 0
8, 63720, Note_on_c, 2, 57, 76
8, 63764, Note_on_c, 2, 57, 0
8, 63780, Note_on_c, 2, 55, 76
8, 63824, Note_on_c, 2, 55, 0
8, 63840, Note_on_c, 2, 54, 76
8, 63884, Note_on_c, 2, 54, 0
8, 63900, Note_on_c, 2, 57, 76
8, 63944, Note_on_c, 2, 57, 0
8, 63960, Note_on_c, 2, 55, 76
8, 64004, Note_on_c, 2, 55, 0
8, 64020, Note_on_c, 2, 57, 76
8, 64064, Note_on_c, 2, 57, 0
8, 64080, Note_on_c, 2, 59, 76
8, 64124, Note_on_c, 2, 59, 0
8, 64140, Note_on_c, 2, 57, 76
8, 64184, Note_on_c, 2, 57, 0
8, 64200, Note_on_c, 2, 55, 76
8, 64244, Note_on_c, 2, 55, 0
8, 64260, Note_on_c, 2, 54, 76
8, 64304, Note_on_c, 2, 54, 0
8, 64320, Note_on_c, 2, 52, 76
8, 64364, Note_on_c, 2, 52, 0
8, 64380, Note_on_c, 2, 55, 76
8, 64424, Note_on_c, 2, 55, 0
8, 64440, Note_on_c, 2, 54, 76
8, 64484, Note_on_c, 2, 54, 0
8, 64500, Note_on_c, 2, 55, 76
8, 64544, Note_on_c, 2, 55, 0
8, 64560, Note_on_c, 2, 57, 76
8, 64604, Note_on_c, 2, 57, 0
8, 64620, Note_on_c, 2, 55, 76
8, 64664, Note_on_c, 2, 55, 0
8, 64680, Note_on_c, 2, 54, 76
8, 64724, Note_on_c, 2, 54, 0
8, 64740, Note_on_c, 2, 52, 76
8, 64784, Note_on_c, 2, 52, 0
8, 64800, Note_on_c, 2, 50, 76
8, 64904, Note_on_c, 2, 50, 0
8, 64920, Note_on_c, 2, 62, 76
8, 65024, Note_on_c, 2, 62, 0
8, 65040, Note_on_c, 2, 62, 76
8, 65144, Note_on_c, 2, 62, 0
8, 65160, Note_on_c, 2, 62, 76
8, 65264, Note_on_c, 2, 62, 0
8, 65280, Note_on_c, 2, 59, 76
8, 65384, Note_on_c, 2, 59, 0
8, 65400, Note_on_c, 2, 60, 76
8, 65444, Note_on_c, 2, 60, 0
8, 65460, Note_on_c, 2, 62, 76
8, 65504, Note_on_c, 2, 62, 0
8, 65520, Note_on_c, 2, 64, 76
8, 65624, Note_on_c, 2, 64, 0
8, 65640, Note_on_c, 2, 60, 76
8, 65744, Note_on_c, 2, 60, 0
8, 65760, Note_on_c, 2, 57, 76
8, 65864, Note_on_c, 2, 57, 0
8, 65880, Note_on_c, 2, 62, 76
8, 65984, Note_on_c, 2, 62, 0
8, 66000, Note_on_c, 2, 50, 76
8, 66104, Note_on_c, 2, 50, 0
8, 66120, Note_on_c, 2, 60, 76
8, 66224, Note_on_c, 2, 60, 0
8, 66240, Note_on_c, 2, 59, 76
8, 66344, Note_on_c, 2, 59, 0
8, 66360, Note_on_c, 2, 55, 76
8, 66464, Note_on_c, 2, 55, 0
8, 66480, Note_on_c, 2, 62, 76
8, 66584, Note_on_c, 2, 62, 0
8, 66600, Note_on_c, 2, 50, 76
8, 66704, Note_on_c, 2, 50, 0
8, 66720, Note_on_c, 2, 43, 76
8, 66764, Note_on_c, 2, 43, 0
8, 66780, Note_on_c, 2, 59, 76
8, 66824, Note_on_c, 2, 59, 0
8, 66840, Note_on_c, 2, 57, 76
8, 66884, Note_on_c, 2, 57, 0
8, 66900, Note_on_c, 2, 55, 76
8, 66944, Note_on_c, 2, 55, 0
8, 66960, Note_on_c, 2, 54, 76
8, 67004, Note_on_c, 2, 54, 0
8, 67020, Note_on_c, 2, 52, 76
8, 67064, Note_on_c, 2, 52, 0
8, 67080, Note_on_c, 2, 54, 76
8, 67124, Note_on_c, 2, 54, 0
8, 67140, Note_on_c, 2, 50, 76
8, 67184, Note_on_c, 2, 50, 0
8, 67200, Note_on_c, 2, 52, 76
8, 67244, Note_on_c, 2, 52, 0
8, 67260, Note_on_c, 2, 54, 76
8, 67304, Note_on_c, 2, 54, 0
8, 67320, Note_on_c, 2, 52, 76
8, 67364, Note_on_c, 2, 52, 0
8, 67380, Note_on_c, 2, 50, 76
8, 67424, Note_on_c, 2, 50, 0
8, 67440, Note_on_c, 2, 48, 76
8, 67484, Note_on_c, 2, 48, 0
8, 67500, Note_on_c, 2, 47, 76
8, 67544, Note_on_c, 2, 47, 0
8, 67560, Note_on_c, 2, 48, 76
8, 67604, Note_on_c, 2, 48, 0
8, 67620, Note_on_c, 2, 45, 76
8, 67664, Note_on_c, 2, 45, 0
8, 67680, Note_on_c, 2, 50, 76
8, 67724, Note_on_c, 2, 50, 0
8, 67740, Note_on_c, 2, 48, 76
8, 67784, Note_on_c, 2, 48, 0
8, 67800, Note_on_c, 2, 50, 76
8, 67844, Note_on_c, 2, 50, 0
8, 67860, Note_on_c, 2, 52, 76
8, 67904, Note_on_c, 2, 52, 0
8, 67920, Note_on_c, 2, 50, 76
8, 67964, Note_on_c, 2, 50, 0
8, 67980, Note_on_c, 2, 48, 76
8, 68024, Note_on_c, 2, 48, 0
8, 68040, Note_on_c, 2, 47, 76
8, 68084, Note_on_c, 2, 47, 0
8, 68100, Note_on_c, 2, 45, 76
8, 68144, Note_on_c, 2, 45, 0
8, 68160, Note_on_c, 2, 43, 76
8, 68204, Note_on_c, 2, 43, 0
8, 68220, Note_on_c, 2, 45, 76
8, 68264, Note_on_c, 2, 45, 0
8, 68280, Note_on_c, 2, 47, 76
8, 68324, Note_on_c, 2, 47, 0
8, 68340, Note_on_c, 2, 48, 76
8, 68384, Note_on_c, 2, 48, 0
8, 68400, Note_on_c, 2, 50, 76
8, 68444, Note_on_c, 2, 50, 0
8, 68460, Note_on_c, 2, 52, 76
8, 68504, Note_on_c, 2, 52, 0
8, 68520, Note_on_c, 2, 54, 76
8, 68564, Note_on_c, 2, 54, 0
8, 68580, Note_on_c, 2, 50, 76
8, 68624, Note_on_c, 2, 50, 0
8, 68640, Note_on_c, 2, 55, 76
8, 68684, Note_on_c, 2, 55, 0
8, 68700, Note_on_c, 2, 54, 76
8, 68744, Note_on_c, 2, 54, 0
8, 68760, Note_on_c, 2, 52, 76
8, 68804, Note_on_c, 2, 52, 0
8, 68820, Note_on_c, 2, 50, 76
8, 68864, Note_on_c, 2, 50, 0
8, 68880, Note_on_c, 2, 48, 76
8, 68924, Note_on_c, 2, 48, 0
8, 68940, Note_on_c, 2, 50, 76
8, 68984, Note_on_c, 2, 50, 0
8, 69000, Note_on_c, 2, 52, 76
8, 69044, Note_on_c, 2, 52, 0
8, 69060, Note_on_c, 2, 48, 76
8, 69104, Note_on_c, 2, 48, 0
8, 69120, Note_on_c, 2, 50, 76
8, 69164, Note_on_c, 2, 50, 0
8, 69180, Note_on_c, 2, 48, 76
8, 69224, Note_on_c, 2, 48, 0
8, 69240, Note_on_c, 2, 50, 76
8, 69284, Note_on_c, 2, 50, 0
8, 69300, Note_on_c, 2, 52, 76
8, 69344, Note_on_c, 2, 52, 0
8, 69360, Note_on_c, 2, 50, 76
8, 69404, Note_on_c, 2, 50, 0
8, 69420, Note_on_c, 2, 48, 76
8, 69464, Note_on_c, 2, 48, 0
8, 69480, Note_on_c, 2, 47, 76
8, 69524, Note_on_c, 2, 47, 0
8, 69540, Note_on_c, 2, 45, 76
8, 69584, Note_on_c, 2, 45, 0
8, 69600, Note_on_c, 2, 43, 76
8, 69704, Note_on_c, 2, 43, 0
8, 69720, Note_on_c, 2, 59, 76
8, 69824, Note_on_c, 2, 59, 0
8, 69840, Note_on_c, 2, 59, 76
8, 69944, Note_on_c, 2, 59, 0
8, 69960, Note_on_c, 2, 59, 76
8, 70064, Note_on_c, 2, 59, 0
8, 70080, Note_on_c, 2, 55, 76
8, 70184, Note_on_c, 2, 55, 0
8, 70200, Note_on_c, 2, 57, 76
8, 70244, Note_on_c, 2, 57, 0
8, 70260, Note_on_c, 2, 59, 76
8, 70304, Note_on_c, 2, 59, 0
8, 70320, Note_on_c, 2, 60, 76
8, 70424, Note_on_c, 2, 60, 0
8, 70440, Note_on_c, 2, 57, 76
8, 70544, Note_on_c, 2, 57, 0
8, 70560, Note_on_c, 2, 54, 76
8, 70664, Note_on_c, 2, 54, 0
8, 70680, Note_on_c, 2, 59, 76
8, 70784, Note_on_c, 2, 59, 0
8, 70800, Note_on_c, 2, 47, 76
8, 70904, Note_on_c, 2, 47, 0
8, 70920, Note_on_c, 2, 57, 76
8, 71024, Note_on_c, 2, 57, 0
8, 71040, Note_on_c, 2, 55, 76
8, 71084, Note_on_c, 2, 55, 0
8, 71100, Note_on_c, 2, 54, 76
8, 71144, Note_on_c, 2, 54, 0
8, 71160, Note_on_c, 2, 52, 76
8, 71204, Note_on_c, 2, 52, 0
8, 71220, Note_on_c, 2, 54, 76
8, 71264, Note_on_c, 2, 54, 0
8, 71280, Note_on_c, 2, 55, 76
8, 71324, Note_on_c, 2, 55, 0
8, 71340, Note_on_c, 2, 57, 76
8, 71384, Note_on_c, 2, 57, 0
8, 71400, Note_on_c, 2, 59, 76
8, 71444, Note_on_c, 2, 59, 0
8, 71460, Note_on_c, 2, 55, 76
8, 71504, Note_on_c, 2, 55, 0
8, 71520, Note_on_c, 2, 60, 76
8, 71564, Note_on_c, 2, 60, 0
8, 71580, Note_on_c, 2, 62, 76
8, 71624, Note_on_c, 2, 62, 0
8, 71640, Note_on_c, 2, 60, 76
8, 71684, Note_on_c, 2, 60, 0
8, 71700, Note_on_c, 2, 59, 76
8, 71744, Note_on_c, 2, 59, 0
8, 71760, Note_on_c, 2, 57, 76
8, 71804, Note_on_c, 2, 57, 0
8, 71820, Note_on_c, 2, 59, 76
8, 71864, Note_on_c, 2, 59, 0
8, 71880, Note_on_c, 2, 60, 76
8, 71924, Note_on_c, 2, 60, 0
8, 71940, Note_on_c, 2, 57, 76
8, 71984, Note_on_c, 2, 57, 0
8, 72000, Note_on_c, 2, 59, 76
8, 72044, Note_on_c, 2, 59, 0
8, 72060, Note_on_c, 2, 57, 76
8, 72104, Note_on_c, 2, 57, 0
8, 72120, Note_on_c, 2, 59, 76
8, 72164, Note_on_c, 2, 59, 0
8, 72180, Note_on_c, 2, 60, 76
8, 72224, Note_on_c, 2, 60, 0
8, 72240, Note_on_c, 2, 59, 76
8, 72284, Note_on_c, 2, 59, 0
8, 72300, Note_on_c, 2, 57, 76
8, 72344, Note_on_c, 2, 57, 0
8, 72360, Note_on_c, 2, 55, 76
8, 72404, Note_on_c, 2, 55, 0
8, 72420, Note_on_c, 2, 54, 76
8, 72464, Note_on_c, 2, 54, 0
8, 72480, Note_on_c, 2, 55, 76
8, 72524, Note_on_c, 2, 55, 0
8, 72540, Note_on_c, 2, 54, 76
8, 72584, Note_on_c, 2, 54, 0
8, 72600, Note_on_c, 2, 55, 76
8, 72644, Note_on_c, 2, 55, 0
8, 72660, Note_on_c, 2, 57, 76
8, 72704, Note_on_c, 2, 57, 0
8, 72720, Note_on_c, 2, 55, 76
8, 72764, Note_on_c, 2, 55, 0
8, 72780, Note_on_c, 2, 54, 76
8, 72824, Note_on_c, 2, 54, 0
8, 72840, Note_on_c, 2, 52, 76
8, 72884, Note_on_c, 2, 52, 0
8, 72900, Note_on_c, 2, 51, 76
8, 72944, Note_on_c, 2, 51, 0
8, 72960, Note_on_c, 2, 52, 76
8, 73004, Note_on_c, 2, 52, 0
8, 73020, Note_on_c, 2, 51, 76
8, 73064, Note_on_c, 2, 51, 0
8, 73080, Note_on_c, 2, 52, 76
8, 73124, Note_on_c, 2, 52, 0
8, 73140, Note_on_c, 2, 54, 76
8, 73184, Note_on_c, 2, 54, 0
8, 73200, Note_on_c, 2, 55, 76
8, 73244, Note_on_c, 2, 55, 0
8, 73260, Note_on_c, 2, 57, 76
8, 73304, Note_on_c, 2, 57, 0
8, 73320, Note_on_c, 2, 59, 76
8, 73364, Note_on_c, 2, 59, 0
8, 73380, Note_on_c, 2, 55, 76
8, 73424, Note_on_c, 2, 55, 0
8, 73440, Note_on_c, 2, 57, 76
8, 73484, Note_on_c, 2, 57, 0
8, 73500, Note_on_c, 2, 55, 76
8, 73544, Note_on_c, 2, 55, 0
8, 73560, Note_on_c, 2, 57, 76
8, 73604, Note_on_c, 2, 57, 0
8, 73620, Note_on_c, 2, 59, 76
8, 73664, Note_on_c, 2, 59, 0
8, 73680, Note_on_c, 2, 57, 76
8, 73724, Note_on_c, 2, 57, 0
8, 73740, Note_on_c, 2, 55, 76
8, 73784, Note_on_c, 2, 55, 0
8, 73800, Note_on_c, 2, 54, 76
8, 73844, Note_on_c, 2, 54, 0
8, 73860, Note_on_c, 2, 52, 76
8, 73904, Note_on_c, 2, 52, 0
8, 73920, Note_on_c, 2, 50, 76
8, 73964, Note_on_c, 2, 50, 0
8, 73980, Note_on_c, 2, 48, 76
8, 74024, Note_on_c, 2, 48, 0
8, 74040, Note_on_c, 2, 50, 76
8, 74084, Note_on_c, 2, 50, 0
8, 74100, Note_on_c, 2, 52, 76
8, 74144, Note_on_c, 2, 52, 0
8, 74160, Note_on_c, 2, 54, 76
8, 74204, Note_on_c, 2, 54, 0
8, 74220, Note_on_c, 2, 55, 76
8, 74264, Note_on_c, 2, 55, 0
8, 74280, Note_on_c, 2, 57, 76
8, 74324, Note_on_c, 2, 57, 0
8, 74340, Note_on_c, 2, 54, 76
8, 74384, Note_on_c, 2, 54, 0
8, 74400, Note_on_c, 2, 55, 76
8, 74444, Note_on_c, 2, 55, 0
8, 74460, Note_on_c, 2, 54, 76
8, 74504, Note_on_c, 2, 54, 0
8, 74520, Note_on_c, 2, 55, 76
8, 74564, Note_on_c, 2, 55, 0
8, 74580, Note_on_c, 2, 57, 76
8, 74624, Note_on_c, 2, 57, 0
8, 74640, Note_on_c, 2, 55, 76
8, 74684, Note_on_c, 2, 55, 0
8, 74700, Note_on_c, 2, 54, 76
8, 74744, Note_on_c, 2, 54, 0
8, 74760, Note_on_c, 2, 52, 76
8, 74804, Note_on_c, 2, 52, 0
8, 74820, Note_on_c, 2, 50, 76
8, 74864, Note_on_c, 2, 50, 0
8, 74880, Note_on_c, 2, 48, 76
8, 74924, Note_on_c, 2, 48, 0
8, 74940, Note_on_c, 2, 50, 76
8, 74984, Note_on_c, 2, 50, 0
8, 75000, Note_on_c, 2, 48, 76
8, 75044, Note_on_c, 2, 48, 0
8, 75060, Note_on_c, 2, 47, 76
8, 75104, Note_on_c, 2, 47, 0
8, 75120, Note_on_c, 2, 45, 76
8, 75164, Note_on_c, 2, 45, 0
8, 75180, Note_on_c, 2, 43, 76
8, 75224, Note_on_c, 2, 43, 0
8, 75240, Note_on_c, 2, 42, 76
8, 75284, Note_on_c, 2, 42, 0
8, 75300, Note_on_c, 2, 40, 76
8, 75344, Note_on_c, 2, 40, 0
8, 75360, Note_on_c, 2, 39, 76
8, 75464, Note_on_c, 2, 39, 0
8, 75480, Note_on_c, 2, 47, 76
8, 75584, Note_on_c, 2, 47, 0
8, 75600, Note_on_c, 2, 48, 76
8, 75704, Note_on_c, 2, 48, 0
8, 75720, Note_on_c, 2, 47, 76
8, 75824, Note_on_c, 2, 47, 0
8, 75840, Note_on_c, 2, 45, 76
8, 75944, Note_on_c, 2, 45, 0
8, 75960, Note_on_c, 2, 42, 76
8, 76064, Note_on_c, 2, 42, 0
8, 76080, Note_on_c, 2, 47, 76
8, 76184, Note_on_c, 2, 47, 0
8, 76200, Note_on_c, 2, 45, 76
8, 76304, Note_on_c, 2, 45, 0
8, 76320, Note_on_c, 2, 44, 76
8, 76424, Note_on_c, 2, 44, 0
8, 76440, Note_on_c, 2, 52, 76
8, 76544, Note_on_c, 2, 52, 0
8, 76560, Note_on_c, 2, 57, 76
8, 76664, Note_on_c, 2, 57, 0
8, 76680, Note_on_c, 2, 55, 76
8, 76784, Note_on_c, 2, 55, 0
8, 76800, Note_on_c, 2, 54, 76
8, 76904, Note_on_c, 2, 54, 0
8, 76920, Note_on_c, 2, 62, 76
8, 76964, Note_on_c, 2, 62, 0
8, 76980, Note_on_c, 2, 60, 76
8, 77024, Note_on_c, 2, 60, 0
8, 77040, Note_on_c, 2, 59, 76
8, 77144, Note_on_c, 2, 59, 0
8, 77160, Note_on_c, 2, 57, 76
8, 77264, Note_on_c, 2, 57, 0
8, 77280, Note_on_c, 2, 56, 76
8, 77384, Note_on_c, 2, 56, 0
8, 77400, Note_on_c, 2, 52, 76
8, 77504, Note_on_c, 2, 52, 0
8, 77520, Note_on_c, 2, 57, 76
8, 77624, Note_on_c, 2, 57, 0
8, 77640, Note_on_c, 2, 60, 76
8, 77744, Note_on_c, 2, 60, 0
8, 77760, Note_on_c, 2, 65, 76
8, 77864, Note_on_c, 2, 65, 0
8, 77880, Note_on_c, 2, 56, 76
8, 77984, Note_on_c, 2, 56, 0
8, 78000, Note_on_c, 2, 57, 76
8, 78104, Note_on_c, 2, 57, 0
8, 78120, Note_on_c, 2, 53, 76
8, 78224, Note_on_c, 2, 53, 0
8, 78240, Note_on_c, 2, 50, 76
8, 78344, Note_on_c, 2, 50, 0
8, 78360, Note_on_c, 2, 47, 76
8, 78464, Note_on_c, 2, 47, 0
8, 78480, Note_on_c, 2, 52, 76
8, 78584, Note_on_c, 2, 52, 0
8, 78600, Note_on_c, 2, 40, 76
8, 78704, Note_on_c, 2, 40, 0
8, 78720, Note_on_c, 2, 45, 76
8, 78824, Note_on_c, 2, 45, 0
8, 78840, Note_on_c, 2, 64, 76
8, 78884, Note_on_c, 2, 64, 0
8, 78900, Note_on_c, 2, 62, 76
8, 78944, Note_on_c, 2, 62, 0
8, 78960, Note_on_c, 2, 60, 76
8, 79004, Note_on_c, 2, 60, 0
8, 79020, Note_on_c, 2, 59, 76
8, 79064, Note_on_c, 2, 59, 0
8, 79080, Note_on_c, 2, 60, 76
8, 79124, Note_on_c, 2, 60, 0
8, 79140, Note_on_c, 2, 57, 76
8, 79184, Note_on_c, 2, 57, 0
8, 79200, Note_on_c, 2, 62, 76
8, 79304, Note_on_c, 2, 62, 0
8, 79320, Note_on_c, 2, 50, 76
8, 79424, Note_on_c, 2, 50, 0
8, 79440, Note_on_c, 2, 62, 76
8, 79544, Note_on_c, 2, 62, 0
8, 79560, Note_on_c, 2, 58, 76
8, 79664, Note_on_c, 2, 58, 0
8, 79680, Note_on_c, 2, 63, 76
8, 79784, Note_on_c, 2, 63, 0
8, 79800, Note_on_c, 2, 54, 76
8, 79904, Note_on_c, 2, 54, 0
8, 79920, Note_on_c, 2, 55, 76
8, 80024, Note_on_c, 2, 55, 0
8, 80040, Note_on_c, 2, 51, 76
8, 80144, Note_on_c, 2, 51, 0
8, 80160, Note_on_c, 2, 48, 76
8, 80264, Note_on_c, 2, 48, 0
8, 80280, Note_on_c, 2, 45, 76
8, 80384, Note_on_c, 2, 45, 0
8, 80400, Note_on_c, 2, 50, 76
8, 80504, Note_on_c, 2, 50, 0
8, 80520, Note_on_c, 2, 38, 76
8, 80624, Note_on_c, 2, 38, 0
8, 80640, Note_on_c, 2, 43, 76
8, 80744, Note_on_c, 2, 43, 0
8, 80760, Note_on_c, 2, 62, 76
8, 80804, Note_on_c, 2, 62, 0
8, 80820, Note_on_c, 2, 60, 76
8, 80864, Note_on_c, 2, 60, 0
8, 80880, Note_on_c, 2, 58, 76
8, 80924, Note_on_c, 2, 58, 0
8, 80940, Note_on_c, 2, 57, 76
8, 80984, Note_on_c, 2, 57, 0
8, 81000, Note_on_c, 2, 58, 76
8, 81044, Note_on_c, 2, 58, 0
8, 81060, Note_on_c, 2, 55, 76
8, 81104, Note_on_c, 2, 55, 0
8, 81120, Note_on_c, 2, 60, 76
8, 81224, Note_on_c, 2, 60, 0
8, 81240, Note_on_c, 2, 48, 76
8, 81344, Note_on_c, 2, 48, 0
8, 81360, Note_on_c, 2, 60, 76
8, 81464, Note_on_c, 2, 60, 0
8, 81480, Note_on_c, 2, 57, 76
8, 81584, Note_on_c, 2, 57, 0
8, 81600, Note_on_c, 2, 62, 76
8, 81704, Note_on_c, 2, 62, 0
8, 81720, Note_on_c, 2, 52, 76
8, 81824, Note_on_c, 2, 52, 0
8, 81840, Note_on_c, 2, 53, 76
8, 81944, Note_on_c, 2, 53, 0
8, 81960, Note_on_c, 2, 50, 76
8, 82064, Note_on_c, 2, 50, 0
8, 82080, Note_on_c, 2, 46, 76
8, 82184, Note_on_c, 2, 46, 0
8, 82200, Note_on_c, 2, 43, 76
8, 82304, Note_on_c, 2, 43, 0
8, 82320, Note_on_c, 2, 48, 76
8, 82424, Note_on_c, 2, 48, 0
8, 82440, Note_on_c, 2, 36, 76
8, 82544, Note_on_c, 2, 36, 0
8, 82560, Note_on_c, 2, 41, 76
8, 82679, Note_on_c, 2, 41, 0
8, 83100, Note_on_c, 2, 58, 76
8, 83144, Note_on_c, 2, 58, 0
8, 83160, Note_on_c, 2, 57, 76
8, 83204, Note_on_c, 2, 57, 0
8, 83220, Note_on_c, 2, 55, 76
8, 83264, Note_on_c, 2, 55, 0
8, 83280, Note_on_c, 2, 53, 76
8, 83324, Note_on_c, 2, 53, 0
8, 83340, Note_on_c, 2, 52, 76
8, 83384, Note_on_c, 2, 52, 0
8, 83400, Note_on_c, 2, 53, 76
8, 83444, Note_on_c, 2, 53, 0
8, 83460, Note_on_c, 2, 50, 76
8, 83504, Note_on_c, 2, 50, 0
8, 83520, Note_on_c, 2, 55, 76
8, 83624, Note_on_c, 2, 55, 0
8, 83640, Note_on_c, 2, 43, 76
8, 83759, Note_on_c, 2, 43, 0
8, 84120, Note_on_c, 2, 60, 76
8, 84224, Note_on_c, 2, 60, 0
8, 84240, Note_on_c, 2, 60, 76
8, 84344, Note_on_c, 2, 60, 0
8, 84360, Note_on_c, 2, 60, 76
8, 84464, Note_on_c, 2, 60, 0
8, 84480, Note_on_c, 2, 59, 76
8, 84584, Note_on_c, 2, 59, 0
8, 84600, Note_on_c, 2, 60, 76
8, 84644, Note_on_c, 2, 60, 0
8, 84660, Note_on_c, 2, 62, 76
8, 84704, Note_on_c, 2, 62, 0
8, 84720, Note_on_c, 2, 64, 76
8, 84824, Note_on_c, 2, 64, 0
8, 84840, Note_on_c, 2, 60, 76
8, 84944, Note_on_c, 2, 60, 0
8, 84960, Note_on_c, 2, 57, 76
8, 85064, Note_on_c, 2, 57, 0
8, 85080, Note_on_c, 2, 62, 76
8, 85184, Note_on_c, 2, 62, 0
8, 85200, Note_on_c, 2, 50, 76
8, 85304, Note_on_c, 2, 50, 0
8, 85320, Note_on_c, 2, 60, 76
8, 85424, Note_on_c, 2, 60, 0
8, 85440, Note_on_c, 2, 59, 76
8, 85544, Note_on_c, 2, 59, 0
8, 85560, Note_on_c, 2, 55, 76
8, 85664, Note_on_c, 2, 55, 0
8, 85680, Note_on_c, 2, 60, 76
8, 85784, Note_on_c, 2, 60, 0
8, 85800, Note_on_c, 2, 48, 76
8, 85904, Note_on_c, 2, 48, 0
8, 85920, Note_on_c, 2, 41, 76
8, 86024, Note_on_c, 2, 41, 0
8, 86040, Note_on_c, 2, 53, 76
8, 86144, Note_on_c, 2, 53, 0
8, 86160, Note_on_c, 2, 53, 76
8, 86264, Note_on_c, 2, 53, 0
8, 86280, Note_on_c, 2, 53, 76
8, 86384, Note_on_c, 2, 53, 0
8, 86400, Note_on_c, 2, 52, 76
8, 86504, Note_on_c, 2, 52, 0
8, 86520, Note_on_c, 2, 53, 76
8, 86564, Note_on_c, 2, 53, 0
8, 86580, Note_on_c, 2, 55, 76
8, 86624, Note_on_c, 2, 55, 0
8, 86640, Note_on_c, 2, 57, 76
8, 86744, Note_on_c, 2, 57, 0
8, 86760, Note_on_c, 2, 53, 76
8, 86864, Note_on_c, 2, 53, 0
8, 86880, Note_on_c, 2, 50, 76
8, 86984, Note_on_c, 2, 50, 0
8, 87000, Note_on_c, 2, 55, 76
8, 87104, Note_on_c, 2, 55, 0
8, 87120, Note_on_c, 2, 43, 76
8, 87224, Note_on_c, 2, 43, 0
8, 87240, Note_on_c, 2, 53, 76
8, 87344, Note_on_c, 2, 53, 0
8, 87360, Note_on_c, 2, 52, 76
8, 87464, Note_on_c, 2, 52, 0
8, 87480, Note_on_c, 2, 55, 76
8, 87584, Note_on_c, 2, 55, 0
8, 87600, Note_on_c, 2, 52, 76
8, 87704, Note_on_c, 2, 52, 0
8, 87720, Note_on_c, 2, 48, 76
8, 87824, Note_on_c, 2, 48, 0
8, 87840, Note_on_c, 2, 53, 76
8, 87944, Note_on_c, 2, 53, 0
8, 87960, Note_on_c, 2, 50, 76
8, 88064, Note_on_c, 2, 50, 0
8, 88080, Note_on_c, 2, 52, 76
8, 88184, Note_on_c, 2, 52, 0
8, 88200, Note_on_c, 2, 53, 76
8, 88304, Note_on_c, 2, 53, 0
8, 88320, Note_on_c, 2, 55, 76
8, 88559, Note_on_c, 2, 55, 0
8, 92760, Note_on_c, 2, 60, 76
8, 92864, Note_on_c, 2, 60, 0
8, 92880, Note_on_c, 2, 60, 76
8, 92984, Note_on_c, 2, 60, 0
8, 93000, Note_on_c, 2, 60, 76
8, 93104, Note_on_c, 2, 60, 0
8, 93120, Note_on_c, 2, 59, 76
8, 93224, Note_on_c, 2, 59, 0
8, 93240, Note_on_c, 2, 60, 76
8, 93284, Note_on_c, 2, 60, 0
8, 93300, Note_on_c, 2, 62, 76
8, 93344, Note_on_c, 2, 62, 0
8, 93360, Note_on_c, 2, 64, 76
8, 93464, Note_on_c, 2, 64, 0
8, 93480, Note_on_c, 2, 60, 76
8, 93584, Note_on_c, 2, 60, 0
8, 93600, Note_on_c, 2, 57, 76
8, 93704, Note_on_c, 2, 57, 0
8, 93720, Note_on_c, 2, 62, 76
8, 93824, Note_on_c, 2, 62, 0
8, 93840, Note_on_c, 2, 50, 76
8, 93944, Note_on_c, 2, 50, 0
8, 93960, Note_on_c, 2, 60, 76
8, 94064, Note_on_c, 2, 60, 0
8, 94080, Note_on_c, 2, 59, 76
8, 94124, Note_on_c, 2, 59, 0
8, 94140, Note_on_c, 2, 57, 76
8, 94184, Note_on_c, 2, 57, 0
8, 94200, Note_on_c, 2, 55, 76
8, 94244, Note_on_c, 2, 55, 0
8, 94260, Note_on_c, 2, 57, 76
8, 94304, Note_on_c, 2, 57, 0
8, 94320, Note_on_c, 2, 59, 76
8, 94364, Note_on_c, 2, 59, 0
8, 94380, Note_on_c, 2, 55, 76
8, 94424, Note_on_c, 2, 55, 0
8, 94440, Note_on_c, 2, 57, 76
8, 94484, Note_on_c, 2, 57, 0
8, 94500, Note_on_c, 2, 59, 76
8, 94544, Note_on_c, 2, 59, 0
8, 94560, Note_on_c, 2, 60, 76
8, 94604, Note_on_c, 2, 60, 0
8, 94620, Note_on_c, 2, 62, 76
8, 94664, Note_on_c, 2, 62, 0
8, 94680, Note_on_c, 2, 60, 76
8, 94724, Note_on_c, 2, 60, 0
8, 94740, Note_on_c, 2, 59, 76
8, 94784, Note_on_c, 2, 59, 0
8, 94800, Note_on_c, 2, 57, 76
8, 94844, Note_on_c, 2, 57, 0
8, 94860, Note_on_c, 2, 55, 76
8, 94904, Note_on_c, 2, 55, 0
8, 94920, Note_on_c, 2, 53, 76
8, 94964, Note_on_c, 2, 53, 0
8, 94980, Note_on_c, 2, 52, 76
8, 95024, Note_on_c, 2, 52, 0
8, 95040, Note_on_c, 2, 50, 76
8, 95084, Note_on_c, 2, 50, 0
8, 95100, Note_on_c, 2, 53, 76
8, 95144, Note_on_c, 2, 53, 0
8, 95160, Note_on_c, 2, 52, 76
8, 95204, Note_on_c, 2, 52, 0
8, 95220, Note_on_c, 2, 53, 76
8, 95264, Note_on_c, 2, 53, 0
8, 95280, Note_on_c, 2, 55, 76
8, 95324, Note_on_c, 2, 55, 0
8, 95340, Note_on_c, 2, 53, 76
8, 95384, Note_on_c, 2, 53, 0
8, 95400, Note_on_c, 2, 52, 76
8, 95444, Note_on_c, 2, 52, 0
8, 95460, Note_on_c, 2, 50, 76
8, 95504, Note_on_c, 2, 50, 0
8, 95520, Note_on_c, 2, 48, 76
8, 95564, Note_on_c, 2, 48, 0
8, 95580, Note_on_c, 2, 52, 76
8, 95624, Note_on_c, 2, 52, 0
8, 95640, Note_on_c, 2, 50, 76
8, 95684, Note_on_c, 2, 50, 0
8, 95700, Note_on_c, 2, 52, 76
8, 95744, Note_on_c, 2, 52, 0
8, 95760, Note_on_c, 2, 53, 76
8, 95804, Note_on_c, 2, 53, 0
8, 95820, Note_on_c, 2, 52, 76
8, 95864, Note_on_c, 2, 52, 0
8, 95880, Note_on_c, 2, 50, 76
8, 95924, Note_on_c, 2, 50, 0
8, 95940, Note_on_c, 2, 48, 76
8, 95984, Note_on_c, 2, 48, 0
8, 96000, Note_on_c, 2, 47, 76
8, 96044, Note_on_c, 2, 47, 0
8, 96060, Note_on_c, 2, 50, 76
8, 96104, Note_on_c, 2, 50, 0
8, 96120, Note_on_c, 2, 48, 76
8, 96164, Note_on_c, 2, 48, 0
8, 96180, Note_on_c, 2, 50, 76
8, 96224, Note_on_c, 2, 50, 0
8, 96240, Note_on_c, 2, 52, 76
8, 96284, Note_on_c, 2, 52, 0
8, 96300, Note_on_c, 2, 50, 76
8, 96344, Note_on_c, 2, 50, 0
8, 96360, Note_on_c, 2, 48, 76
8, 96404, Note_on_c, 2, 48, 0
8, 96420, Note_on_c, 2, 47, 76
8, 96464, Note_on_c, 2, 47, 0
8, 96480, Note_on_c, 2, 45, 76
8, 96524, Note_on_c, 2, 45, 0
8, 96540, Note_on_c, 2, 48, 76
8, 96584, Note_on_c, 2, 48, 0
8, 96600, Note_on_c, 2, 47, 76
8, 96644, Note_on_c, 2, 47, 0
8, 96660, Note_on_c, 2, 48, 76
8, 96704, Note_on_c, 2, 48, 0
8, 96720, Note_on_c, 2, 50, 76
8, 96764, Note_on_c, 2, 50, 0
8, 96780, Note_on_c, 2, 48, 76
8, 96824, Note_on_c, 2, 48, 0
8, 96840, Note_on_c, 2, 47, 76
8, 96884, Note_on_c, 2, 47, 0
8, 96900, Note_on_c, 2, 45, 76
8, 96944, Note_on_c, 2, 45, 0
8, 96960, Note_on_c, 2, 43, 76
8, 97064, Note_on_c, 2, 43, 0
8, 97080, Note_on_c, 2, 55, 76
8, 97184, Note_on_c, 2, 55, 0
8, 97200, Note_on_c, 2, 55, 76
8, 97304, Note_on_c, 2, 55, 0
8, 97320, Note_on_c, 2, 55, 76
8, 97424, Note_on_c, 2, 55, 0
8, 97440, Note_on_c, 2, 52, 76
8, 97544, Note_on_c, 2, 52, 0
8, 97560, Note_on_c, 2, 53, 76
8, 97604, Note_on_c, 2, 53, 0
8, 97620, Note_on_c, 2, 55, 76
8, 97664, Note_on_c, 2, 55, 0
8, 97680, Note_on_c, 2, 57, 76
8, 97784, Note_on_c, 2, 57, 0
8, 97800, Note_on_c, 2, 53, 76
8, 97904, Note_on_c, 2, 53, 0
8, 97920, Note_on_c, 2, 50, 76
8, 98024, Note_on_c, 2, 50, 0
8, 98040, Note_on_c, 2, 55, 76
8, 98144, Note_on_c, 2, 55, 0
8, 98160, Note_on_c, 2, 43, 76
8, 98264, Note_on_c, 2, 43, 0
8, 98280, Note_on_c, 2, 53, 76
8, 98384, Note_on_c, 2, 53, 0
8, 98400, Note_on_c, 2, 52, 76
8, 98504, Note_on_c, 2, 52, 0
8, 98520, Note_on_c, 2, 48, 76
8, 98624, Note_on_c, 2, 48, 0
8, 98640, Note_on_c, 2, 55, 76
8, 98744, Note_on_c, 2, 55, 0
8, 98760, Note_on_c, 2, 43, 76
8, 98864, Note_on_c, 2, 43, 0
8, 98880, Note_on_c, 2, 48, 76
8, 99119, Note_on_c, 2, 48, 0
8, 99420, Note_on_c, 2, 58, 76
8, 99464, Note_on_c, 2, 58, 0
8, 99480, Note_on_c, 2, 57, 76
8, 99524, Note_on_c, 2, 57, 0
8, 99540, Note_on_c, 2, 55, 76
8, 99584, Note_on_c, 2, 55, 0
8, 99600, Note_on_c, 2, 53, 76
8, 99644, Note_on_c, 2, 53, 0
8, 99660, Note_on_c, 2, 52, 76
8, 99704, Note_on_c, 2, 52, 0
8, 99720, Note_on_c, 2, 53, 76
8, 99764, Note_on_c, 2, 53, 0
8, 99780, Note_on_c, 2, 50, 76
8, 99824, Note_on_c, 2, 50, 0
8, 99840, Note_on_c, 2, 55, 76
8, 99884, Note_on_c, 2, 55, 0
8, 99900, Note_on_c, 2, 53, 76
8, 99944, Note_on_c, 2, 53, 0
8, 99960, Note_on_c, 2, 55, 76
8, 100004, Note_on_c, 2, 55, 0
8, 100020, Note_on_c, 2, 57, 76
8, 100064, Note_on_c, 2, 57, 0
8, 100080, Note_on_c, 2, 55, 76
8, 100124, Note_on_c, 2, 55, 0
8, 100140, Note_on_c, 2, 53, 76
8, 100184, Note_on_c, 2, 53, 0
8, 100200, Note_on_c, 2, 52, 76
8, 100244, Note_on_c, 2, 52, 0
8, 100260, Note_on_c, 2, 50, 76
8, 100304, Note_on_c, 2, 50, 0
8, 100320, Note_on_c, 2, 48, 76
8, 100559, Note_on_c, 2, 48, 0
8, 101880, Note_on_c, 2, 60, 76
8, 101984, Note_on_c, 2, 60, 0
8, 102000, Note_on_c, 2, 60, 76
8, 102104, Note_on_c, 2, 60, 0
8, 102120, Note_on_c, 2, 60, 76
8, 102224, Note_on_c, 2, 60, 0
8, 102240, Note_on_c, 2, 59, 76
8, 102344, Note_on_c, 2, 59, 0
8, 102360, Note_on_c, 2, 60, 76
8, 102404, Note_on_c, 2, 60, 0
8, 102420, Note_on_c, 2, 62, 76
8, 102464, Note_on_c, 2, 62, 0
8, 102480, Note_on_c, 2, 64, 76
8, 102584, Note_on_c, 2, 64, 0
8, 102600, Note_on_c, 2, 60, 76
8, 102704, Note_on_c, 2, 60, 0
8, 102720, Note_on_c, 2, 57, 76
8, 102824, Note_on_c, 2, 57, 0
8, 102840, Note_on_c, 2, 62, 76
8, 102944, Note_on_c, 2, 62, 0
8, 102960, Note_on_c, 2, 50, 76
8, 103064, Note_on_c, 2, 50, 0
8, 103080, Note_on_c, 2, 60, 76
8, 103184, Note_on_c, 2, 60, 0
8, 103200, Note_on_c, 2, 59, 76
8, 103304, Note_on_c, 2, 59, 0
8, 103320, Note_on_c, 2, 55, 76
8, 103424, Note_on_c, 2, 55, 0
8, 103440, Note_on_c, 2, 60, 76
8, 103544, Note_on_c, 2, 60, 0
8, 103560, Note_on_c, 2, 48, 76
8, 103664, Note_on_c, 2, 48, 0
8, 103680, Note_on_c, 2, 53, 76
8, 103724, Note_on_c, 2, 53, 0
8, 103740, Note_on_c, 2, 57, 76
8, 103784, Note_on_c, 2, 57, 0
8, 103800, Note_on_c, 2, 55, 76
8, 103844, Note_on_c, 2, 55, 0
8, 103860, Note_on_c, 2, 57, 76
8, 103904, Note_on_c, 2, 57, 0
8, 103920, Note_on_c, 2, 58, 76
8, 103964, Note_on_c, 2, 58, 0
8, 103980, Note_on_c, 2, 57, 76
8, 104024, Note_on_c, 2, 57, 0
8, 104040, Note_on_c, 2, 55, 76
8, 104084, Note_on_c, 2, 55, 0
8, 104100, Note_on_c, 2, 53, 76
8, 104144, Note_on_c, 2, 53, 0
8, 104160, Note_on_c, 2, 52, 76
8, 104204, Note_on_c, 2, 52, 0
8, 104220, Note_on_c, 2, 55, 76
8, 104264, Note_on_c, 2, 55, 0
8, 104280, Note_on_c, 2, 53, 76
8, 104324, Note_on_c, 2, 53, 0
8, 104340, Note_on_c, 2, 55, 76
8, 104384, Note_on_c, 2, 55, 0
8, 104400, Note_on_c, 2, 57, 76
8, 104444, Note_on_c, 2, 57, 0
8, 104460, Note_on_c, 2, 55, 76
8, 104504, Note_on_c, 2, 55, 0
8, 104520, Note_on_c, 2, 53, 76
8, 104564, Note_on_c, 2, 53, 0
8, 104580, Note_on_c, 2, 52, 76
8, 104624, Note_on_c, 2, 52, 0
8, 104640, Note_on_c, 2, 50, 76
8, 104744, Note_on_c, 2, 50, 0
8, 104760, Note_on_c, 2, 52, 76
8, 104804, Note_on_c, 2, 52, 0
8, 104820, Note_on_c, 2, 53, 76
8, 104864, Note_on_c, 2, 53, 0
8, 104880, Note_on_c, 2, 55, 76
8, 104984, Note_on_c, 2, 55, 0
8, 105000, Note_on_c, 2, 43, 76
8, 105104, Note_on_c, 2, 43, 0
8, 105120, Note_on_c, 2, 48, 76
8, 105164, Note_on_c, 2, 48, 0
8, 105180, Note_on_c, 2, 55, 76
8, 105224, Note_on_c, 2, 55, 0
8, 105240, Note_on_c, 2, 57, 76
8, 105284, Note_on_c, 2, 57, 0
8, 105300, Note_on_c, 2, 59, 76
8, 105344, Note_on_c, 2, 59, 0
8, 105360, Note_on_c, 2, 60, 76
8, 105524, Note_on_c, 2, 60, 0
8, 105540, Note_on_c, 2, 60, 76
8, 105584, Note_on_c, 2, 60, 0
8, 105600, Note_on_c, 2, 60, 76
8, 105644, Note_on_c, 2, 60, 0
8, 105660, Note_on_c, 2, 59, 76
8, 105704, Note_on_c, 2, 59, 0
8, 105720, Note_on_c, 2, 60, 76
8, 105764, Note_on_c, 2, 60, 0
8, 105780, Note_on_c, 2, 57, 76
8, 105824, Note_on_c, 2, 57, 0
8, 105840, Note_on_c, 2, 59, 76
8, 106004, Note_on_c, 2, 59, 0
8, 106020, Note_on_c, 2, 59, 76
8, 106064, Note_on_c, 2, 59, 0
8, 106080, Note_on_c, 2, 59, 76
8, 106184, Note_on_c, 2, 59, 0
8, 106200, Note_on_c, 2, 52, 76
8, 106304, Note_on_c, 2, 52, 0
8, 106320, Note_on_c, 2, 57, 76
8, 106484, Note_on_c, 2, 57, 0
8, 106500, Note_on_c, 2, 57, 76
8, 106544, Note_on_c, 2, 57, 0
8, 106560, Note_on_c, 2, 57, 76
8, 106604, Note_on_c, 2, 57, 0
8, 106620, Note_on_c, 2, 55, 76
8, 106664, Note_on_c, 2, 55, 0
8, 106680, Note_on_c, 2, 57, 76
8, 106724, Note_on_c, 2, 57, 0
8, 106740, Note_on_c, 2, 53, 76
8, 106784, Note_on_c, 2, 53, 0
8, 106800, Note_on_c, 2, 55, 76
8, 106964, Note_on_c, 2, 55, 0
8, 106980, Note_on_c, 2, 55, 76
8, 107024, Note_on_c, 2, 55, 0
8, 107040, Note_on_c, 2, 55, 76
8, 107144, Note_on_c, 2, 55, 0
8, 107160, Note_on_c, 2, 48, 76
8, 107264, Note_on_c, 2, 48, 0
8, 107280, Note_on_c, 2, 53, 76
8, 107444, Note_on_c, 2, 53, 0
8, 107460, Note_on_c, 2, 53, 76
8, 107504, Note_on_c, 2, 53, 0
8, 107520, Note_on_c, 2, 53, 76
8, 107564, Note_on_c, 2, 53, 0
8, 107580, Note_on_c, 2, 52, 76
8, 107624, Note_on_c, 2, 52, 0
8, 107640, Note_on_c, 2, 53, 76
8, 107684, Note_on_c, 2, 53, 0
8, 107700, Note_on_c, 2, 50, 76
8, 107744, Note_on_c, 2, 50, 0
8, 107760, Note_on_c, 2, 52, 76
8, 107804, Note_on_c, 2, 52, 0
8, 107820, Note_on_c, 2, 53, 76
8, 107864, Note_on_c, 2, 53, 0
8, 107880, Note_on_c, 2, 55, 76
8, 107924, Note_on_c, 2, 55, 0
8, 107940, Note_on_c, 2, 52, 76
8, 107984, Note_on_c, 2, 52, 0
8, 108000, Note_on_c, 2, 57, 76
8, 108044, Note_on_c, 2, 57, 0
8, 108060, Note_on_c, 2, 58, 76
8, 108104, Note_on_c, 2, 58, 0
8, 108120, Note_on_c, 2, 57, 76
8, 108164, Note_on_c, 2, 57, 0
8, 108180, Note_on_c, 2, 55, 76
8, 108224, Note_on_c, 2, 55, 0
8, 108240, Note_on_c, 2, 53, 76
8, 108284, Note_on_c, 2, 53, 0
8, 108300, Note_on_c, 2, 52, 76
8, 108344, Note_on_c, 2, 52, 0
8, 108360, Note_on_c, 2, 50, 76
8, 108404, Note_on_c, 2, 50, 0
8, 108420, Note_on_c, 2, 48, 76
8, 108464, Note_on_c, 2, 48, 0
8, 108480, Note_on_c, 2, 47, 76
8, 108524, Note_on_c, 2, 47, 0
8, 108540, Note_on_c, 2, 45, 76
8, 108584, Note_on_c, 2, 45, 0
8, 108600, Note_on_c, 2, 43, 76
8, 108644, Note_on_c, 2, 43, 0
8, 108660, Note_on_c, 2, 45, 76
8, 108704, Note_on_c, 2, 45, 0
8, 108720, Note_on_c, 2, 47, 76
8, 108764, Note_on_c, 2, 47, 0
8, 108780, Note_on_c, 2, 45, 76
8, 108824, Note_on_c, 2, 45, 0
8, 108840, Note_on_c, 2, 47, 76
8, 108884, Note_on_c, 2, 47, 0
8, 108900, Note_on_c, 2, 43, 76
8, 108944, Note_on_c, 2, 43, 0
8, 108960, Note_on_c, 2, 48, 76
8, 109064, Note_on_c, 2, 48, 0
8, 109080, Note_on_c, 2, 53, 76
8, 109184, Note_on_c, 2, 53, 0
8, 109200, Note_on_c, 2, 55, 76
8, 109304, Note_on_c, 2, 55, 0
8, 109320, Note_on_c, 2, 43, 76
8, 109424, Note_on_c, 2, 43, 0
8, 109440, Note_on_c, 2, 36, 76
8, 110031, Note_on_c, 2, 36, 0
8, 110040, Note_on_c, 2, 48, 76
8, 110091, Note_on_c, 2, 48, 0
8, 110100, Note_on_c, 2, 50, 76
8, 110151, Note_on_c, 2, 50, 0
8, 110160, Note_on_c, 2, 52, 76
8, 110211, Note_on_c, 2, 52, 0
8, 110220, Note_on_c, 2, 50, 76
8, 110271, Note_on_c, 2, 50, 0
8, 110280, Note_on_c, 2, 52, 76
8, 110331, Note_on_c, 2, 52, 0
8, 110340, Note_on_c, 2, 53, 76
8, 110391, Note_on_c, 2, 53, 0
8, 110400, Note_on_c, 2, 55, 76
8, 110691, Note_on_c, 2, 55, 0
8, 110700, Note_on_c, 2, 55, 76
8, 110751, Note_on_c, 2, 55, 0
8, 110760, Note_on_c, 2, 57, 76
8, 110811, Note_on_c, 2, 57, 0
8, 110820, Note_on_c, 2, 58, 76
8, 110871, Note_on_c, 2, 58, 0
8, 110880, Note_on_c, 2, 60, 76
8, 110931, Note_on_c, 2, 60, 0
8, 110940, Note_on_c, 2, 58, 76
8, 110991, Note_on_c, 2, 58, 0
8, 111000, Note_on_c, 2, 57, 76
8, 111051, Note_on_c, 2, 57, 0
8, 111060, Note_on_c, 2, 58, 76
8, 111111, Note_on_c, 2, 58, 0
8, 111120, Note_on_c, 2, 60, 76
8, 111171, Note_on_c, 2, 60, 0
8, 111180, Note_on_c, 2, 57, 76
8, 111231, Note_on_c, 2, 57, 0
8, 111240, Note_on_c, 2, 58, 76
8, 111291, Note_on_c, 2, 58, 0
8, 111300, Note_on_c, 2, 60, 76
8, 111351, Note_on_c, 2, 60, 0
8, 111360, Note_on_c, 2, 53, 76
8, 111531, Note_on_c, 2, 53, 0
8, 111540, Note_on_c, 2, 50, 76
8, 111569, Note_on_c, 2, 50, 0
8, 111570, Note_on_c, 2, 52, 76
8, 111599, Note_on_c, 2, 52, 0
8, 111600, Note_on_c, 2, 53, 76
8, 111771, Note_on_c, 2, 53, 0
8, 111780, Note_on_c, 2, 55, 76
8, 111809, Note_on_c, 2, 55, 0
8, 111810, Note_on_c, 2, 57, 76
8, 111839, Note_on_c, 2, 57, 0
8, 111840, Note_on_c, 2, 58, 76
8, 112191, Note_on_c, 2, 58, 0
8, 112200, Note_on_c, 2, 58, 76
8, 112311, Note_on_c, 2, 58, 0
8, 112320, Note_on_c, 2, 58, 76
8, 112371, Note_on_c, 2, 58, 0
8, 112380, Note_on_c, 2, 60, 76
8, 112431, Note_on_c, 2, 60, 0
8, 112440, Note_on_c, 2, 58, 76
8, 112491, Note_on_c, 2, 58, 0
8, 112500, Note_on_c, 2, 57, 76
8, 112551, Note_on_c, 2, 57, 0
8, 112560, Note_on_c, 2, 58, 76
8, 112611, Note_on_c, 2, 58, 0
8, 112620, Note_on_c, 2, 55, 76
8, 112671, Note_on_c, 2, 55, 0
8, 112680, Note_on_c, 2, 57, 76
8, 112731, Note_on_c, 2, 57, 0
8, 112740, Note_on_c, 2, 58, 76
8, 112791, Note_on_c, 2, 58, 0
8, 112800, Note_on_c, 2, 57, 76
8, 113031, Note_on_c, 2, 57, 0
8, 113040, Note_on_c, 2, 45, 76
8, 113271, Note_on_c, 2, 45, 0
8, 113280, Note_on_c, 2, 50, 76
8, 113601, Note_on_c, 2, 50, 0
8, 113610, Note_on_c, 2, 52, 76
8, 113639, Note_on_c, 2, 52, 0
8, 113640, Note_on_c, 2, 53, 76
8, 113669, Note_on_c, 2, 53, 0
8, 113670, Note_on_c, 2, 55, 76
8, 113699, Note_on_c, 2, 55, 0
8, 113700, Note_on_c, 2, 57, 76
8, 113729, Note_on_c, 2, 57, 0
8, 113730, Note_on_c, 2, 59, 76
8, 113759, Note_on_c, 2, 59, 0
8, 113760, Note_on_c, 2, 60, 76
8, 113811, Note_on_c, 2, 60, 0
8, 113820, Note_on_c, 2, 59, 76
8, 113871, Note_on_c, 2, 59, 0
8, 113880, Note_on_c, 2, 60, 76
8, 113931, Note_on_c, 2, 60, 0
8, 113940, Note_on_c, 2, 64, 76
8, 113991, Note_on_c, 2, 64, 0
8, 114000, Note_on_c, 2, 62, 76
8, 114051, Note_on_c, 2, 62, 0
8, 114060, Note_on_c, 2, 60, 76
8, 114111, Note_on_c, 2, 60, 0
8, 114120, Note_on_c, 2, 59, 76
8, 114171, Note_on_c, 2, 59, 0
8, 114180, Note_on_c, 2, 60, 76
8, 114231, Note_on_c, 2, 60, 0
8, 114240, Note_on_c, 2, 59, 76
8, 114411, Note_on_c, 2, 59, 0
8, 114420, Note_on_c, 2, 57, 76
8, 114471, Note_on_c, 2, 57, 0
8, 114480, Note_on_c, 2, 59, 76
8, 114651, Note_on_c, 2, 59, 0
8, 114660, Note_on_c, 2, 55, 76
8, 114711, Note_on_c, 2, 55, 0
8, 114720, Note_on_c, 2, 64, 76
8, 115071, Note_on_c, 2, 64, 0
8, 115080, Note_on_c, 2, 64, 76
8, 115191, Note_on_c, 2, 64, 0
8, 115200, Note_on_c, 2, 64, 76
8, 115371, Note_on_c, 2, 64, 0
8, 115380, Note_on_c, 2, 65, 76
8, 115409, Note_on_c, 2, 65, 0
8, 115410, Note_on_c, 2, 64, 76
8, 115439, Note_on_c, 2, 64, 0
8, 115440, Note_on_c, 2, 62, 76
8, 115611, Note_on_c, 2, 62, 0
8, 115620, Note_on_c, 2, 64, 76
8, 115649, Note_on_c, 2, 64, 0
8, 115650, Note_on_c, 2, 60, 76
8, 115679, Note_on_c, 2, 60, 0
8, 115680, Note_on_c, 2, 62, 76
8, 116031, Note_on_c, 2, 62, 0
8, 116040, Note_on_c, 2, 62, 76
8, 116151, Note_on_c, 2, 62, 0
8, 116160, Note_on_c, 2, 62, 76
8, 116451, Note_on_c, 2, 62, 0
8, 116460, Note_on_c, 2, 60, 76
8, 116511, Note_on_c, 2, 60, 0
8, 116520, Note_on_c, 2, 59, 76
8, 116571, Note_on_c, 2, 59, 0
8, 116580, Note_on_c, 2, 60, 76
8, 116631, Note_on_c, 2, 60, 0
8, 116640, Note_on_c, 2, 62, 76
8, 116691, Note_on_c, 2, 62, 0
8, 116700, Note_on_c, 2, 60, 76
8, 116751, Note_on_c, 2, 60, 0
8, 116760, Note_on_c, 2, 62, 76
8, 116811, Note_on_c, 2, 62, 0
8, 116820, Note_on_c, 2, 65, 76
8, 116871, Note_on_c, 2, 65, 0
8, 116880, Note_on_c, 2, 64, 76
8, 116931, Note_on_c, 2, 64, 0
8, 116940, Note_on_c, 2, 62, 76
8, 116991, Note_on_c, 2, 62, 0
8, 117000, Note_on_c, 2, 60, 76
8, 117051, Note_on_c, 2, 60, 0
8, 117060, Note_on_c, 2, 62, 76
8, 117111, Note_on_c, 2, 62, 0
8, 117120, Note_on_c, 2, 59, 76
8, 117134, Note_on_c, 2, 59, 0
8, 117135, Note_on_c, 2, 60, 76
8, 117149, Note_on_c, 2, 60, 0
8, 117150, Note_on_c, 2, 59, 76
8, 117164, Note_on_c, 2, 59, 0
8, 117165, Note_on_c, 2, 60, 76
8, 117179, Note_on_c, 2, 60, 0
8, 117180, Note_on_c, 2, 59, 76
8, 117194, Note_on_c, 2, 59, 0
8, 117195, Note_on_c, 2, 60, 76
8, 117209, Note_on_c, 2, 60, 0
8, 117210, Note_on_c, 2, 59, 76
8, 117224, Note_on_c, 2, 59, 0
8, 117225, Note_on_c, 2, 60, 76
8, 117239, Note_on_c, 2, 60, 0
8, 117240, Note_on_c, 2, 59, 76
8, 117254, Note_on_c, 2, 59, 0
8, 117255, Note_on_c, 2, 60, 76
8, 117269, Note_on_c, 2, 60, 0
8, 117270, Note_on_c, 2, 59, 76
8, 117284, Note_on_c, 2, 59, 0
8, 117285, Note_on_c, 2, 60, 76
8, 117299, Note_on_c, 2, 60, 0
8, 117300, Note_on_c, 2, 59, 76
8, 117314, Note_on_c, 2, 59, 0
8, 117315, Note_on_c, 2, 60, 76
8, 117329, Note_on_c, 2, 60, 0
8, 117330, Note_on_c, 2, 59, 76
8, 117344, Note_on_c, 2, 59, 0
8, 117345, Note_on_c, 2, 60, 76
8, 117359, Note_on_c, 2, 60, 0
8, 117360, Note_on_c, 2, 59, 76
8, 117374, Note_on_c, 2, 59, 0
8, 117375, Note_on_c, 2, 60, 76
8, 117389, Note_on_c, 2, 60, 0
8, 117390, Note_on_c, 2, 59, 76
8, 117404, Note_on_c, 2, 59, 0
8, 117405, Note_on_c, 2, 60, 76
8, 117419, Note_on_c, 2, 60, 0
8, 117420, Note_on_c, 2, 59, 76
8, 117434, Note_on_c, 2, 59, 0
8, 117435, Note_on_c, 2, 60, 76
8, 117449, Note_on_c, 2, 60, 0
8, 117450, Note_on_c, 2, 59, 76
8, 117464, Note_on_c, 2, 59, 0
8, 117465, Note_on_c, 2, 60, 76
8, 117479, Note_on_c, 2, 60, 0
8, 117480, Note_on_c, 2, 59, 76
8, 117494, Note_on_c, 2, 59, 0
8, 117495, Note_on_c, 2, 60, 76
8, 117509, Note_on_c, 2, 60, 0
8, 117510, Note_on_c, 2, 59, 76
8, 117524, Note_on_c, 2, 59, 0
8, 117525, Note_on_c, 2, 60, 76
8, 117539, Note_on_c, 2, 60, 0
8, 117540, Note_on_c, 2, 59, 76
8, 117554, Note_on_c, 2, 59, 0
8, 117555, Note_on_c, 2, 60, 76
8, 117569, Note_on_c, 2, 60, 0
8, 117570, Note_on_c, 2, 57, 76
8, 117584, Note_on_c, 2, 57, 0
8, 117585, Note_on_c, 2, 59, 76
8, 117651, Note_on_c, 2, 59, 0
8, 117660, Note_on_c, 2, 60, 76
8, 117711, Note_on_c, 2, 60, 0
8, 117720, Note_on_c, 2, 59, 76
8, 117771, Note_on_c, 2, 59, 0
8, 117780, Note_on_c, 2, 57, 76
8, 117831, Note_on_c, 2, 57, 0
8, 117840, Note_on_c, 2, 55, 76
8, 117891, Note_on_c, 2, 55, 0
8, 117900, Note_on_c, 2, 53, 76
8, 117951, Note_on_c, 2, 53, 0
8, 117960, Note_on_c, 2, 52, 76
8, 118011, Note_on_c, 2, 52, 0
8, 118020, Note_on_c, 2, 50, 76
8, 118071, Note_on_c, 2, 50, 0
8, 118080, Note_on_c, 2, 48, 76
8, 118611, Note_on_c, 2, 48, 0
8, 118620, Note_on_c, 2, 46, 76
8, 118671, Note_on_c, 2, 46, 0
8, 118680, Note_on_c, 2, 45, 76
8, 118731, Note_on_c, 2, 45, 0
8, 118740, Note_on_c, 2, 46, 76
8, 118791, Note_on_c, 2, 46, 0
8, 118800, Note_on_c, 2, 48, 76
8, 118851, Note_on_c, 2, 48, 0
8, 118860, Note_on_c, 2, 45, 76
8, 118911, Note_on_c, 2, 45, 0
8, 118920, Note_on_c, 2, 46, 76
8, 118971, Note_on_c, 2, 46, 0
8, 118980, Note_on_c, 2, 48, 76
8, 119031, Note_on_c, 2, 48, 0
8, 119040, Note_on_c, 2, 41, 76
8, 119571, Note_on_c, 2, 41, 0
8, 119580, Note_on_c, 2, 40, 76
8, 119631, Note_on_c, 2, 40, 0
8, 119640, Note_on_c, 2, 41, 76
8, 119691, Note_on_c, 2, 41, 0
8, 119700, Note_on_c, 2, 43, 76
8, 119751, Note_on_c, 2, 43, 0
8, 119760, Note_on_c, 2, 45, 76
8, 119811, Note_on_c, 2, 45, 0
8, 119820, Note_on_c, 2, 41, 76
8, 119871, Note_on_c, 2, 41, 0
8, 119880, Note_on_c, 2, 43, 76
8, 119931, Note_on_c, 2, 43, 0
8, 119940, Note_on_c, 2, 45, 76
8, 119991, Note_on_c, 2, 45, 0
8, 120000, Note_on_c, 2, 38, 76
8, 120531, Note_on_c, 2, 38, 0
8, 120540, Note_on_c, 2, 36, 76
8, 120591, Note_on_c, 2, 36, 0
8, 120600, Note_on_c, 2, 38, 76
8, 120651, Note_on_c, 2, 38, 0
8, 120660, Note_on_c, 2, 40, 76
8, 120711, Note_on_c, 2, 40, 0
8, 120720, Note_on_c, 2, 41, 76
8, 120771, Note_on_c, 2, 41, 0
8, 120780, Note_on_c, 2, 40, 76
8, 120831, Note_on_c, 2, 40, 0
8, 120840, Note_on_c, 2, 41, 76
8, 120891, Note_on_c, 2, 41, 0
8, 120900, Note_on_c, 2, 38, 76
8, 120951, Note_on_c, 2, 38, 0
8, 120960, Note_on_c, 2, 43, 76
8, 121131, Note_on_c, 2, 43, 0
8, 121140, Note_on_c, 2, 43, 76
8, 121191, Note_on_c, 2, 43, 0
8, 121200, Note_on_c, 2, 45, 76
8, 121371, Note_on_c, 2, 45, 0
8, 121380, Note_on_c, 2, 47, 76
8, 121431, Note_on_c, 2, 47, 0
8, 121440, Note_on_c, 2, 48, 76
8, 121611, Note_on_c, 2, 48, 0
8, 121620, Note_on_c, 2, 48, 76
8, 121671, Note_on_c, 2, 48, 0
8, 121680, Note_on_c, 2, 50, 76
8, 121851, Note_on_c, 2, 50, 0
8, 121860, Note_on_c, 2, 52, 76
8, 121911, Note_on_c, 2, 52, 0
8, 121920, Note_on_c, 2, 53, 76
8, 122451, Note_on_c, 2, 53, 0
8, 122460, Note_on_c, 2, 55, 76
8, 122511, Note_on_c, 2, 55, 0
8, 122520, Note_on_c, 2, 53, 76
8, 122571, Note_on_c, 2, 53, 0
8, 122580, Note_on_c, 2, 52, 76
8, 122631, Note_on_c, 2, 52, 0
8, 122640, Note_on_c, 2, 50, 76
8, 122691, Note_on_c, 2, 50, 0
8, 122700, Note_on_c, 2, 48, 76
8, 122751, Note_on_c, 2, 48, 0
8, 122760, Note_on_c, 2, 47, 76
8, 122811, Note_on_c, 2, 47, 0
8, 122820, Note_on_c, 2, 45, 76
8, 122871, Note_on_c, 2, 45, 0
8, 122880, Note_on_c, 2, 43, 76
8, 123051, Note_on_c, 2, 43, 0
8, 123060, Note_on_c, 2, 47, 76
8, 123111, Note_on_c, 2, 47, 0
8, 123120, Note_on_c, 2, 48, 76
8, 123291, Note_on_c, 2, 48, 0
8, 123300, Note_on_c, 2, 41, 76
8, 123351, Note_on_c, 2, 41, 0
8, 123360, Note_on_c, 2, 43, 76
8, 123591, Note_on_c, 2, 43, 0
8, 123600, Note_on_c, 2, 43, 76
8, 123831, Note_on_c, 2, 43, 0
8, 123840, Note_on_c, 2, 36, 76
8, 123959, Note_on_c, 2, 36, 0
8, 128280, Note_on_c, 2, 60, 76
8, 128384, Note_on_c, 2, 60, 0
8, 128400, Note_on_c, 2, 60, 76
8, 128504, Note_on_c, 2, 60, 0
8, 128520, Note_on_c, 2, 60, 76
8, 128624, Note_on_c, 2, 60, 0
8, 128640, Note_on_c, 2, 59, 76
8, 128744, Note_on_c, 2, 59, 0
8, 128760, Note_on_c, 2, 60, 76
8, 128804, Note_on_c, 2, 60, 0
8, 128820, Note_on_c, 2, 62, 76
8, 128864, Note_on_c, 2, 62, 0
8, 128880, Note_on_c, 2, 64, 76
8, 128984, Note_on_c, 2, 64, 0
8, 129000, Note_on_c, 2, 60, 76
8, 129104, Note_on_c, 2, 60, 0
8, 129120, Note_on_c, 2, 57, 76
8, 129224, Note_on_c, 2, 57, 0
8, 129240, Note_on_c, 2, 62, 76
8, 129344, Note_on_c, 2, 62, 0
8, 129360, Note_on_c, 2, 50, 76
8, 129464, Note_on_c, 2, 50, 0
8, 129480, Note_on_c, 2, 60, 76
8, 129584, Note_on_c, 2, 60, 0
8, 129600, Note_on_c, 2, 59, 76
8, 129644, Note_on_c, 2, 59, 0
8, 129660, Note_on_c, 2, 57, 76
8, 129704, Note_on_c, 2, 57, 0
8, 129720, Note_on_c, 2, 55, 76
8, 129764, Note_on_c, 2, 55, 0
8, 129780, Note_on_c, 2, 57, 76
8, 129824, Note_on_c, 2, 57, 0
8, 129840, Note_on_c, 2, 59, 76
8, 129884, Note_on_c, 2, 59, 0
8, 129900, Note_on_c, 2, 55, 76
8, 129944, Note_on_c, 2, 55, 0
8, 129960, Note_on_c, 2, 57, 76
8, 130004, Note_on_c, 2, 57, 0
8, 130020, Note_on_c, 2, 59, 76
8, 130064, Note_on_c, 2, 59, 0
8, 130080, Note_on_c, 2, 60, 76
8, 130184, Note_on_c, 2, 60, 0
8, 130200, Note_on_c, 2, 55, 76
8, 130304, Note_on_c, 2, 55, 0
8, 130320, Note_on_c, 2, 60, 76
8, 130484, Note_on_c, 2, 60, 0
8, 130500, Note_on_c, 2, 60, 76
8, 130544, Note_on_c, 2, 60, 0
8, 130560, Note_on_c, 2, 60, 76
8, 130604, Note_on_c, 2, 60, 0
8, 130620, Note_on_c, 2, 59, 76
8, 130664, Note_on_c, 2, 59, 0
8, 130680, Note_on_c, 2, 60, 76
8, 130724, Note_on_c, 2, 60, 0
8, 130740, Note_on_c, 2, 57, 76
8, 130784, Note_on_c, 2, 57, 0
8, 130800, Note_on_c, 2, 59, 76
8, 130964, Note_on_c, 2, 59, 0
8, 130980, Note_on_c, 2, 59, 76
8, 131024, Note_on_c, 2, 59, 0
8, 131040, Note_on_c, 2, 59, 76
8, 131144, Note_on_c, 2, 59, 0
8, 131160, Note_on_c, 2, 52, 76
8, 131264, Note_on_c, 2, 52, 0
8, 131280, Note_on_c, 2, 57, 76
8, 131444, Note_on_c, 2, 57, 0
8, 131460, Note_on_c, 2, 57, 76
8, 131504, Note_on_c, 2, 57, 0
8, 131520, Note_on_c, 2, 57, 76
8, 131564, Note_on_c, 2, 57, 0
8, 131580, Note_on_c, 2, 55, 76
8, 131624, Note_on_c, 2, 55, 0
8, 131640, Note_on_c, 2, 57, 76
8, 131684, Note_on_c, 2, 57, 0
8, 131700, Note_on_c, 2, 53, 76
8, 131744, Note_on_c, 2, 53, 0
8, 131760, Note_on_c, 2, 55, 76
8, 131924, Note_on_c, 2, 55, 0
8, 131940, Note_on_c, 2, 55, 76
8, 131984, Note_on_c, 2, 55, 0
8, 132000, Note_on_c, 2, 55, 76
8, 132104, Note_on_c, 2, 55, 0
8, 132120, Note_on_c, 2, 48, 76
8, 132224, Note_on_c, 2, 48, 0
8, 132240, Note_on_c, 2, 53, 76
8, 132404, Note_on_c, 2, 53, 0
8, 132420, Note_on_c, 2, 53, 76
8, 132464, Note_on_c, 2, 53, 0
8, 132480, Note_on_c, 2, 53, 76
8, 132524, Note_on_c, 2, 53, 0
8, 132540, Note_on_c, 2, 52, 76
8, 132584, Note_on_c, 2, 52, 0
8, 132600, Note_on_c, 2, 53, 76
8, 132644, Note_on_c, 2, 53, 0
8, 132660, Note_on_c, 2, 50, 76
8, 132704, Note_on_c, 2, 50, 0
8, 132720, Note_on_c, 2, 52, 76
8, 132764, Note_on_c, 2, 52, 0
8, 132780, Note_on_c, 2, 53, 76
8, 132824, Note_on_c, 2, 53, 0
8, 132840, Note_on_c, 2, 55, 76
8, 132884, Note_on_c, 2, 55, 0
8, 132900, Note_on_c, 2, 52, 76
8, 132944, Note_on_c, 2, 52, 0
8, 132960, Note_on_c, 2, 57, 76
8, 133004, Note_on_c, 2, 57, 0
8, 133020, Note_on_c, 2, 58, 76
8, 133064, Note_on_c, 2, 58, 0
8, 133080, Note_on_c, 2, 57, 76
8, 133124, Note_on_c, 2, 57, 0
8, 133140, Note_on_c, 2, 55, 76
8, 133184, Note_on_c, 2, 55, 0
8, 133200, Note_on_c, 2, 53, 76
8, 133244, Note_on_c, 2, 53, 0
8, 133260, Note_on_c, 2, 52, 76
8, 133304, Note_on_c, 2, 52, 0
8, 133320, Note_on_c, 2, 50, 76
8, 133364, Note_on_c, 2, 50, 0
8, 133380, Note_on_c, 2, 48, 76
8, 133424, Note_on_c, 2, 48, 0
8, 133440, Note_on_c, 2, 47, 76
8, 133484, Note_on_c, 2, 47, 0
8, 133500, Note_on_c, 2, 45, 76
8, 133544, Note_on_c, 2, 45, 0
8, 133560, Note_on_c, 2, 43, 76
8, 133604, Note_on_c, 2, 43, 0
8, 133620, Note_on_c, 2, 45, 76
8, 133664, Note_on_c, 2, 45, 0
8, 133680, Note_on_c, 2, 47, 76
8, 133724, Note_on_c, 2, 47, 0
8, 133740, Note_on_c, 2, 45, 76
8, 133784, Note_on_c, 2, 45, 0
8, 133800, Note_on_c, 2, 47, 76
8, 133844, Note_on_c, 2, 47, 0
8, 133860, Note_on_c, 2, 43, 76
8, 133904, Note_on_c, 2, 43, 0
8, 133920, Note_on_c, 2, 48, 76
8, 134024, Note_on_c, 2, 48, 0
8, 134040, Note_on_c, 2, 53, 76
8, 134144, Note_on_c, 2, 53, 0
8, 134160, Note_on_c, 2, 55, 76
8, 134264, Note_on_c, 2, 55, 0
8, 134280, Note_on_c, 2, 43, 76
8, 134384, Note_on_c, 2, 43, 0
8, 134400, Note_on_c, 2, 48, 76
8, 134444, Note_on_c, 2, 48, 0
8, 134460, Note_on_c, 2, 47, 76
8, 134504, Note_on_c, 2, 47, 0
8, 134520, Note_on_c, 2, 48, 76
8, 134564, Note_on_c, 2, 48, 0
8, 134580, Note_on_c, 2, 50, 76
8, 134624, Note_on_c, 2, 50, 0
8, 134640, Note_on_c, 2, 48, 76
8, 134684, Note_on_c, 2, 48, 0
8, 134700, Note_on_c, 2, 50, 76
8, 134744, Note_on_c, 2, 50, 0
8, 134760, Note_on_c, 2, 52, 76
8, 134804, Note_on_c, 2, 52, 0
8, 134820, Note_on_c, 2, 48, 76
8, 134864, Note_on_c, 2, 48, 0
8, 134880, Note_on_c, 2, 53, 76
8, 134924, Note_on_c, 2, 53, 0
8, 134940, Note_on_c, 2, 55, 76
8, 134984, Note_on_c, 2, 55, 0
8, 135000, Note_on_c, 2, 53, 76
8, 135044, Note_on_c, 2, 53, 0
8, 135060, Note_on_c, 2, 52, 76
8, 135104, Note_on_c, 2, 52, 0
8, 135120, Note_on_c, 2, 50, 76
8, 135164, Note_on_c, 2, 50, 0
8, 135180, Note_on_c, 2, 52, 76
8, 135224, Note_on_c, 2, 52, 0
8, 135240, Note_on_c, 2, 53, 76
8, 135284, Note_on_c, 2, 53, 0
8, 135300, Note_on_c, 2, 50, 76
8, 135344, Note_on_c, 2, 50, 0
8, 135360, Note_on_c, 2, 52, 76
8, 135404, Note_on_c, 2, 52, 0
8, 135420, Note_on_c, 2, 50, 76
8, 135464, Note_on_c, 2, 50, 0
8, 135480, Note_on_c, 2, 52, 76
8, 135524, Note_on_c, 2, 52, 0
8, 135540, Note_on_c, 2, 53, 76
8, 135584, Note_on_c, 2, 53, 0
8, 135600, Note_on_c, 2, 52, 76
8, 135644, Note_on_c, 2, 52, 0
8, 135660, Note_on_c, 2, 50, 76
8, 135704, Note_on_c, 2, 50, 0
8, 135720, Note_on_c, 2, 48, 76
8, 135764, Note_on_c, 2, 48, 0
8, 135780, Note_on_c, 2, 47, 76
8, 135824, Note_on_c, 2, 47, 0
8, 135840, Note_on_c, 2, 45, 76
8, 135884, Note_on_c, 2, 45, 0
8, 135900, Note_on_c, 2, 47, 76
8, 135944, Note_on_c, 2, 47, 0
8, 135960, Note_on_c, 2, 48, 76
8, 136004, Note_on_c, 2, 48, 0
8, 136020, Note_on_c, 2, 50, 76
8, 136064, Note_on_c, 2, 50, 0
8, 136080, Note_on_c, 2, 52, 76
8, 136124, Note_on_c, 2, 52, 0
8, 136140, Note_on_c, 2, 54, 76
8, 136184, Note_on_c, 2, 54, 0
8, 136200, Note_on_c, 2, 56, 76
8, 136244, Note_on_c, 2, 56, 0
8, 136260, Note_on_c, 2, 52, 76
8, 136304, Note_on_c, 2, 52, 0
8, 136320, Note_on_c, 2, 57, 76
8, 136364, Note_on_c, 2, 57, 0
8, 136380, Note_on_c, 2, 55, 76
8, 136424, Note_on_c, 2, 55, 0
8, 136440, Note_on_c, 2, 53, 76
8, 136484, Note_on_c, 2, 53, 0
8, 136500, Note_on_c, 2, 52, 76
8, 136544, Note_on_c, 2, 52, 0
8, 136560, Note_on_c, 2, 50, 76
8, 136604, Note_on_c, 2, 50, 0
8, 136620, Note_on_c, 2, 52, 76
8, 136664, Note_on_c, 2, 52, 0
8, 136680, Note_on_c, 2, 53, 76
8, 136724, Note_on_c, 2, 53, 0
8, 136740, Note_on_c, 2, 50, 76
8, 136784, Note_on_c, 2, 50, 0
8, 136800, Note_on_c, 2, 52, 76
8, 136844, Note_on_c, 2, 52, 0
8, 136860, Note_on_c, 2, 50, 76
8, 136904, Note_on_c, 2, 50, 0
8, 136920, Note_on_c, 2, 52, 76
8, 136964, Note_on_c, 2, 52, 0
8, 136980, Note_on_c, 2, 53, 76
8, 137024, Note_on_c, 2, 53, 0
8, 137040, Note_on_c, 2, 52, 76
8, 137084, Note_on_c, 2, 52, 0
8, 137100, Note_on_c, 2, 50, 76
8, 137144, Note_on_c, 2, 50, 0
8, 137160, Note_on_c, 2, 48, 76
8, 137204, Note_on_c, 2, 48, 0
8, 137220, Note_on_c, 2, 47, 76
8, 137264, Note_on_c, 2, 47, 0
8, 137280, Note_on_c, 2, 45, 76
8, 137384, Note_on_c, 2, 45, 0
8, 137400, Note_on_c, 2, 57, 76
8, 137504, Note_on_c, 2, 57, 0
8, 137520, Note_on_c, 2, 57, 76
8, 137624, Note_on_c, 2, 57, 0
8, 137640, Note_on_c, 2, 57, 76
8, 137744, Note_on_c, 2, 57, 0
8, 137760, Note_on_c, 2, 55, 76
8, 137864, Note_on_c, 2, 55, 0
8, 137880, Note_on_c, 2, 57, 76
8, 137924, Note_on_c, 2, 57, 0
8, 137940, Note_on_c, 2, 59, 76
8, 137984, Note_on_c, 2, 59, 0
8, 138000, Note_on_c, 2, 60, 76
8, 138104, Note_on_c, 2, 60, 0
8, 138120, Note_on_c, 2, 57, 76
8, 138224, Note_on_c, 2, 57, 0
8, 138240, Note_on_c, 2, 54, 76
8, 138344, Note_on_c, 2, 54, 0
8, 138360, Note_on_c, 2, 59, 76
8, 138464, Note_on_c, 2, 59, 0
8, 138480, Note_on_c, 2, 47, 76
8, 138584, Note_on_c, 2, 47, 0
8, 138600, Note_on_c, 2, 59, 76
8, 138704, Note_on_c, 2, 59, 0
8, 138720, Note_on_c, 2, 56, 76
8, 138824, Note_on_c, 2, 56, 0
8, 138840, Note_on_c, 2, 52, 76
8, 138944, Note_on_c, 2, 52, 0
8, 138960, Note_on_c, 2, 57, 76
8, 139064, Note_on_c, 2, 57, 0
8, 139080, Note_on_c, 2, 50, 76
8, 139184, Note_on_c, 2, 50, 0
8, 139200, Note_on_c, 2, 52, 76
8, 139424, Note_on_c, 2, 52, 0
8, 139440, Note_on_c, 2, 40, 76
8, 139664, Note_on_c, 2, 40, 0
8, 139680, Note_on_c, 2, 45, 76
8, 139919, Note_on_c, 2, 45, 0
8, 140700, Note_on_c, 2, 60, 76
8, 140744, Note_on_c, 2, 60, 0
8, 140760, Note_on_c, 2, 59, 76
8, 140804, Note_on_c, 2, 59, 0
8, 140820, Note_on_c, 2, 57, 76
8, 140864, Note_on_c, 2, 57, 0
8, 140880, Note_on_c, 2, 56, 76
8, 140924, Note_on_c, 2, 56, 0
8, 140940, Note_on_c, 2, 57, 76
8, 140984, Note_on_c, 2, 57, 0
8, 141000, Note_on_c, 2, 56, 76
8, 141044, Note_on_c, 2, 56, 0
8, 141060, Note_on_c, 2, 54, 76
8, 141104, Note_on_c, 2, 54, 0
8, 141120, Note_on_c, 2, 52, 76
8, 141164, Note_on_c, 2, 52, 0
8, 141180, Note_on_c, 2, 62, 76
8, 141224, Note_on_c, 2, 62, 0
8, 141240, Note_on_c, 2, 60, 76
8, 141284, Note_on_c, 2, 60, 0
8, 141300, Note_on_c, 2, 59, 76
8, 141344, Note_on_c, 2, 59, 0
8, 141360, Note_on_c, 2, 57, 76
8, 141404, Note_on_c, 2, 57, 0
8, 141420, Note_on_c, 2, 59, 76
8, 141464, Note_on_c, 2, 59, 0
8, 141480, Note_on_c, 2, 57, 76
8, 141524, Note_on_c, 2, 57, 0
8, 141540, Note_on_c, 2, 55, 76
8, 141584, Note_on_c, 2, 55, 0
8, 141600, Note_on_c, 2, 53, 76
8, 141644, Note_on_c, 2, 53, 0
8, 141660, Note_on_c, 2, 52, 76
8, 141704, Note_on_c, 2, 52, 0
8, 141720, Note_on_c, 2, 53, 76
8, 141764, Note_on_c, 2, 53, 0
8, 141780, Note_on_c, 2, 50, 76
8, 141824, Note_on_c, 2, 50, 0
8, 141840, Note_on_c, 2, 52, 76
8, 141944, Note_on_c, 2, 52, 0
8, 141960, Note_on_c, 2, 40, 76
8, 142064, Note_on_c, 2, 40, 0
8, 142080, Note_on_c, 2, 45, 76
8, 142184, Note_on_c, 2, 45, 0
8, 142200, Note_on_c, 2, 57, 76
8, 142304, Note_on_c, 2, 57, 0
8, 142320, Note_on_c, 2, 57, 76
8, 142424, Note_on_c, 2, 57, 0
8, 142440, Note_on_c, 2, 57, 76
8, 142544, Note_on_c, 2, 57, 0
8, 142560, Note_on_c, 2, 55, 76
8, 142664, Note_on_c, 2, 55, 0
8, 142680, Note_on_c, 2, 57, 76
8, 142724, Note_on_c, 2, 57, 0
8, 142740, Note_on_c, 2, 59, 76
8, 142784, Note_on_c, 2, 59, 0
8, 142800, Note_on_c, 2, 60, 76
8, 142904, Note_on_c, 2, 60, 0
8, 142920, Note_on_c, 2, 57, 76
8, 143024, Note_on_c, 2, 57, 0
8, 143040, Note_on_c, 2, 54, 76
8, 143144, Note_on_c, 2, 54, 0
8, 143160, Note_on_c, 2, 59, 76
8, 143264, Note_on_c, 2, 59, 0
8, 143280, Note_on_c, 2, 47, 76
8, 143384, Note_on_c, 2, 47, 0
8, 143400, Note_on_c, 2, 59, 76
8, 143504, Note_on_c, 2, 59, 0
8, 143520, Note_on_c, 2, 52, 76
8, 143759, Note_on_c, 2, 52, 0
8, 145080, Note_on_c, 2, 52, 76
8, 145184, Note_on_c, 2, 52, 0
8, 145200, Note_on_c, 2, 52, 76
8, 145304, Note_on_c, 2, 52, 0
8, 145320, Note_on_c, 2, 52, 76
8, 145424, Note_on_c, 2, 52, 0
8, 145440, Note_on_c, 2, 48, 76
8, 145544, Note_on_c, 2, 48, 0
8, 145560, Note_on_c, 2, 50, 76
8, 145604, Note_on_c, 2, 50, 0
8, 145620, Note_on_c, 2, 52, 76
8, 145664, Note_on_c, 2, 52, 0
8, 145680, Note_on_c, 2, 53, 76
8, 145784, Note_on_c, 2, 53, 0
8, 145800, Note_on_c, 2, 50, 76
8, 145904, Note_on_c, 2, 50, 0
8, 145920, Note_on_c, 2, 47, 76
8, 146024, Note_on_c, 2, 47, 0
8, 146040, Note_on_c, 2, 52, 76
8, 146144, Note_on_c, 2, 52, 0
8, 146160, Note_on_c, 2, 40, 76
8, 146264, Note_on_c, 2, 40, 0
8, 146280, Note_on_c, 2, 50, 76
8, 146384, Note_on_c, 2, 50, 0
8, 146400, Note_on_c, 2, 48, 76
8, 146444, Note_on_c, 2, 48, 0
8, 146460, Note_on_c, 2, 47, 76
8, 146504, Note_on_c, 2, 47, 0
8, 146520, Note_on_c, 2, 45, 76
8, 146564, Note_on_c, 2, 45, 0
8, 146580, Note_on_c, 2, 47, 76
8, 146624, Note_on_c, 2, 47, 0
8, 146640, Note_on_c, 2, 48, 76
8, 146684, Note_on_c, 2, 48, 0
8, 146700, Note_on_c, 2, 50, 76
8, 146744, Note_on_c, 2, 50, 0
8, 146760, Note_on_c, 2, 52, 76
8, 146804, Note_on_c, 2, 52, 0
8, 146820, Note_on_c, 2, 48, 76
8, 146864, Note_on_c, 2, 48, 0
8, 146880, Note_on_c, 2, 53, 76
8, 146924, Note_on_c, 2, 53, 0
8, 146940, Note_on_c, 2, 55, 76
8, 146984, Note_on_c, 2, 55, 0
8, 147000, Note_on_c, 2, 53, 76
8, 147044, Note_on_c, 2, 53, 0
8, 147060, Note_on_c, 2, 52, 76
8, 147104, Note_on_c, 2, 52, 0
8, 147120, Note_on_c, 2, 50, 76
8, 147164, Note_on_c, 2, 50, 0
8, 147180, Note_on_c, 2, 48, 76
8, 147224, Note_on_c, 2, 48, 0
8, 147240, Note_on_c, 2, 50, 76
8, 147284, Note_on_c, 2, 50, 0
8, 147300, Note_on_c, 2, 47, 76
8, 147344, Note_on_c, 2, 47, 0
8, 147360, Note_on_c, 2, 52, 76
8, 147404, Note_on_c, 2, 52, 0
8, 147420, Note_on_c, 2, 53, 76
8, 147464, Note_on_c, 2, 53, 0
8, 147480, Note_on_c, 2, 52, 76
8, 147524, Note_on_c, 2, 52, 0
8, 147540, Note_on_c, 2, 50, 76
8, 147584, Note_on_c, 2, 50, 0
8, 147600, Note_on_c, 2, 48, 76
8, 147644, Note_on_c, 2, 48, 0
8, 147660, Note_on_c, 2, 50, 76
8, 147704, Note_on_c, 2, 50, 0
8, 147720, Note_on_c, 2, 48, 76
8, 147764, Note_on_c, 2, 48, 0
8, 147780, Note_on_c, 2, 47, 76
8, 147824, Note_on_c, 2, 47, 0
8, 147840, Note_on_c, 2, 45, 76
8, 147944, Note_on_c, 2, 45, 0
8, 147960, Note_on_c, 2, 50, 76
8, 148064, Note_on_c, 2, 50, 0
8, 148080, Note_on_c, 2, 52, 76
8, 148184, Note_on_c, 2, 52, 0
8, 148200, Note_on_c, 2, 40, 76
8, 148304, Note_on_c, 2, 40, 0
8, 148320, Note_on_c, 2, 45, 76
8, 148559, Note_on_c, 2, 45, 0
8, 149820, Note_on_c, 2, 60, 76
8, 149864, Note_on_c, 2, 60, 0
8, 149880, Note_on_c, 2, 59, 76
8, 149924, Note_on_c, 2, 59, 0
8, 149940, Note_on_c, 2, 57, 76
8, 149984, Note_on_c, 2, 57, 0
8, 150000, Note_on_c, 2, 55, 76
8, 150044, Note_on_c, 2, 55, 0
8, 150060, Note_on_c, 2, 54, 76
8, 150104, Note_on_c, 2, 54, 0
8, 150120, Note_on_c, 2, 55, 76
8, 150164, Note_on_c, 2, 55, 0
8, 150180, Note_on_c, 2, 52, 76
8, 150224, Note_on_c, 2, 52, 0
8, 150240, Note_on_c, 2, 57, 76
8, 150344, Note_on_c, 2, 57, 0
8, 150360, Note_on_c, 2, 45, 76
8, 150479, Note_on_c, 2, 45, 0
8, 151740, Note_on_c, 2, 58, 76
8, 151784, Note_on_c, 2, 58, 0
8, 151800, Note_on_c, 2, 57, 76
8, 151844, Note_on_c, 2, 57, 0
8, 151860, Note_on_c, 2, 55, 76
8, 151904, Note_on_c, 2, 55, 0
8, 151920, Note_on_c, 2, 53, 76
8, 151964, Note_on_c, 2, 53, 0
8, 151980, Note_on_c, 2, 52, 76
8, 152024, Note_on_c, 2, 52, 0
8, 152040, Note_on_c, 2, 53, 76
8, 152084, Note_on_c, 2, 53, 0
8, 152100, Note_on_c, 2, 50, 76
8, 152144, Note_on_c, 2, 50, 0
8, 152160, Note_on_c, 2, 55, 76
8, 152264, Note_on_c, 2, 55, 0
8, 152280, Note_on_c, 2, 43, 76
8, 152399, Note_on_c, 2, 43, 0
8, 154140, Note_on_c, 2, 53, 76
8, 154184, Note_on_c, 2, 53, 0
8, 154200, Note_on_c, 2, 52, 76
8, 154244, Note_on_c, 2, 52, 0
8, 154260, Note_on_c, 2, 50, 76
8, 154304, Note_on_c, 2, 50, 0
8, 154320, Note_on_c, 2, 48, 76
8, 154364, Note_on_c, 2, 48, 0
8, 154380, Note_on_c, 2, 47, 76
8, 154424, Note_on_c, 2, 47, 0
8, 154440, Note_on_c, 2, 48, 76
8, 154484, Note_on_c, 2, 48, 0
8, 154500, Note_on_c, 2, 45, 76
8, 154544, Note_on_c, 2, 45, 0
8, 154560, Note_on_c, 2, 50, 76
8, 154664, Note_on_c, 2, 50, 0
8, 154680, Note_on_c, 2, 38, 76
8, 154799, Note_on_c, 2, 38, 0
8, 155160, Note_on_c, 2, 55, 76
8, 155264, Note_on_c, 2, 55, 0
8, 155280, Note_on_c, 2, 55, 76
8, 155384, Note_on_c, 2, 55, 0
8, 155400, Note_on_c, 2, 55, 76
8, 155504, Note_on_c, 2, 55, 0
8, 155520, Note_on_c, 2, 54, 76
8, 155624, Note_on_c, 2, 54, 0
8, 155640, Note_on_c, 2, 55, 76
8, 155684, Note_on_c, 2, 55, 0
8, 155700, Note_on_c, 2, 57, 76
8, 155744, Note_on_c, 2, 57, 0
8, 155760, Note_on_c, 2, 59, 76
8, 155864, Note_on_c, 2, 59, 0
8, 155880, Note_on_c, 2, 55, 76
8, 155984, Note_on_c, 2, 55, 0
8, 156000, Note_on_c, 2, 52, 76
8, 156104, Note_on_c, 2, 52, 0
8, 156120, Note_on_c, 2, 57, 76
8, 156224, Note_on_c, 2, 57, 0
8, 156240, Note_on_c, 2, 45, 76
8, 156344, Note_on_c, 2, 45, 0
8, 156360, Note_on_c, 2, 55, 76
8, 156464, Note_on_c, 2, 55, 0
8, 156480, Note_on_c, 2, 54, 76
8, 156584, Note_on_c, 2, 54, 0
8, 156600, Note_on_c, 2, 55, 76
8, 156644, Note_on_c, 2, 55, 0
8, 156660, Note_on_c, 2, 57, 76
8, 156704, Note_on_c, 2, 57, 0
8, 156720, Note_on_c, 2, 59, 76
8, 156764, Note_on_c, 2, 59, 0
8, 156780, Note_on_c, 2, 60, 76
8, 156824, Note_on_c, 2, 60, 0
8, 156840, Note_on_c, 2, 62, 76
8, 156884, Note_on_c, 2, 62, 0
8, 156900, Note_on_c, 2, 64, 76
8, 156944, Note_on_c, 2, 64, 0
8, 156960, Note_on_c, 2, 57, 76
8, 157004, Note_on_c, 2, 57, 0
8, 157020, Note_on_c, 2, 60, 76
8, 157064, Note_on_c, 2, 60, 0
8, 157080, Note_on_c, 2, 59, 76
8, 157124, Note_on_c, 2, 59, 0
8, 157140, Note_on_c, 2, 60, 76
8, 157184, Note_on_c, 2, 60, 0
8, 157200, Note_on_c, 2, 62, 76
8, 157244, Note_on_c, 2, 62, 0
8, 157260, Note_on_c, 2, 60, 76
8, 157304, Note_on_c, 2, 60, 0
8, 157320, Note_on_c, 2, 59, 76
8, 157364, Note_on_c, 2, 59, 0
8, 157380, Note_on_c, 2, 57, 76
8, 157424, Note_on_c, 2, 57, 0
8, 157440, Note_on_c, 2, 55, 76
8, 157484, Note_on_c, 2, 55, 0
8, 157500, Note_on_c, 2, 59, 76
8, 157544, Note_on_c, 2, 59, 0
8, 157560, Note_on_c, 2, 57, 76
8, 157604, Note_on_c, 2, 57, 0
8, 157620, Note_on_c, 2, 59, 76
8, 157664, Note_on_c, 2, 59, 0
8, 157680, Note_on_c, 2, 60, 76
8, 157724, Note_on_c, 2, 60, 0
8, 157740, Note_on_c, 2, 59, 76
8, 157784, Note_on_c, 2, 59, 0
8, 157800, Note_on_c, 2, 57, 76
8, 157844, Note_on_c, 2, 57, 0
8, 157860, Note_on_c, 2, 55, 76
8, 157904, Note_on_c, 2, 55, 0
8, 157920, Note_on_c, 2, 54, 76
8, 157964, Note_on_c, 2, 54, 0
8, 157980, Note_on_c, 2, 57, 76
8, 158024, Note_on_c, 2, 57, 0
8, 158040, Note_on_c, 2, 55, 76
8, 158084, Note_on_c, 2, 55, 0
8, 158100, Note_on_c, 2, 57, 76
8, 158144, Note_on_c, 2, 57, 0
8, 158160, Note_on_c, 2, 59, 76
8, 158204, Note_on_c, 2, 59, 0
8, 158220, Note_on_c, 2, 57, 76
8, 158264, Note_on_c, 2, 57, 0
8, 158280, Note_on_c, 2, 55, 76
8, 158324, Note_on_c, 2, 55, 0
8, 158340, Note_on_c, 2, 54, 76
8, 158384, Note_on_c, 2, 54, 0
8, 158400, Note_on_c, 2, 52, 76
8, 158444, Note_on_c, 2, 52, 0
8, 158460, Note_on_c, 2, 55, 76
8, 158504, Note_on_c, 2, 55, 0
8, 158520, Note_on_c, 2, 54, 76
8, 158564, Note_on_c, 2, 54, 0
8, 158580, Note_on_c, 2, 55, 76
8, 158624, Note_on_c, 2, 55, 0
8, 158640, Note_on_c, 2, 57, 76
8, 158684, Note_on_c, 2, 57, 0
8, 158700, Note_on_c, 2, 55, 76
8, 158744, Note_on_c, 2, 55, 0
8, 158760, Note_on_c, 2, 54, 76
8, 158804, Note_on_c, 2, 54, 0
8, 158820, Note_on_c, 2, 52, 76
8, 158864, Note_on_c, 2, 52, 0
8, 158880, Note_on_c, 2, 50, 76
8, 158984, Note_on_c, 2, 50, 0
8, 159000, Note_on_c, 2, 62, 76
8, 159104, Note_on_c, 2, 62, 0
8, 159120, Note_on_c, 2, 62, 76
8, 159224, Note_on_c, 2, 62, 0
8, 159240, Note_on_c, 2, 62, 76
8, 159344, Note_on_c, 2, 62, 0
8, 159360, Note_on_c, 2, 59, 76
8, 159464, Note_on_c, 2, 59, 0
8, 159480, Note_on_c, 2, 60, 76
8, 159524, Note_on_c, 2, 60, 0
8, 159540, Note_on_c, 2, 62, 76
8, 159584, Note_on_c, 2, 62, 0
8, 159600, Note_on_c, 2, 64, 76
8, 159704, Note_on_c, 2, 64, 0
8, 159720, Note_on_c, 2, 60, 76
8, 159824, Note_on_c, 2, 60, 0
8, 159840, Note_on_c, 2, 57, 76
8, 159944, Note_on_c, 2, 57, 0
8, 159960, Note_on_c, 2, 62, 76
8, 160064, Note_on_c, 2, 62, 0
8, 160080, Note_on_c, 2, 50, 76
8, 160184, Note_on_c, 2, 50, 0
8, 160200, Note_on_c, 2, 60, 76
8, 160304, Note_on_c, 2, 60, 0
8, 160320, Note_on_c, 2, 59, 76
8, 160424, Note_on_c, 2, 59, 0
8, 160440, Note_on_c, 2, 55, 76
8, 160544, Note_on_c, 2, 55, 0
8, 160560, Note_on_c, 2, 62, 76
8, 160664, Note_on_c, 2, 62, 0
8, 160680, Note_on_c, 2, 50, 76
8, 160784, Note_on_c, 2, 50, 0
8, 160800, Note_on_c, 2, 43, 76
8, 160844, Note_on_c, 2, 43, 0
8, 160860, Note_on_c, 2, 59, 76
8, 160904, Note_on_c, 2, 59, 0
8, 160920, Note_on_c, 2, 57, 76
8, 160964, Note_on_c, 2, 57, 0
8, 160980, Note_on_c, 2, 55, 76
8, 161024, Note_on_c, 2, 55, 0
8, 161040, Note_on_c, 2, 54, 76
8, 161084, Note_on_c, 2, 54, 0
8, 161100, Note_on_c, 2, 52, 76
8, 161144, Note_on_c, 2, 52, 0
8, 161160, Note_on_c, 2, 54, 76
8, 161204, Note_on_c, 2, 54, 0
8, 161220, Note_on_c, 2, 50, 76
8, 161264, Note_on_c, 2, 50, 0
8, 161280, Note_on_c, 2, 52, 76
8, 161324, Note_on_c, 2, 52, 0
8, 161340, Note_on_c, 2, 54, 76
8, 161384, Note_on_c, 2, 54, 0
8, 161400, Note_on_c, 2, 52, 76
8, 161444, Note_on_c, 2, 52, 0
8, 161460, Note_on_c, 2, 50, 76
8, 161504, Note_on_c, 2, 50, 0
8, 161520, Note_on_c, 2, 48, 76
8, 161564, Note_on_c, 2, 48, 0
8, 161580, Note_on_c, 2, 47, 76
8, 161624, Note_on_c, 2, 47, 0
8, 161640, Note_on_c, 2, 48, 76
8, 161684, Note_on_c, 2, 48, 0
8, 161700, Note_on_c, 2, 45, 76
8, 161744, Note_on_c, 2, 45, 0
8, 161760, Note_on_c, 2, 50, 76
8, 161804, Note_on_c, 2, 50, 0
8, 161820, Note_on_c, 2, 48, 76
8, 161864, Note_on_c, 2, 48, 0
8, 161880, Note_on_c, 2, 50, 76
8, 161924, Note_on_c, 2, 50, 0
8, 161940, Note_on_c, 2, 52, 76
8, 161984, Note_on_c, 2, 52, 0
8, 162000, Note_on_c, 2, 50, 76
8, 162044, Note_on_c, 2, 50, 0
8, 162060, Note_on_c, 2, 48, 76
8, 162104, Note_on_c, 2, 48, 0
8, 162120, Note_on_c, 2, 47, 76
8, 162164, Note_on_c, 2, 47, 0
8, 162180, Note_on_c, 2, 45, 76
8, 162224, Note_on_c, 2, 45, 0
8, 162240, Note_on_c, 2, 43, 76
8, 162284, Note_on_c, 2, 43, 0
8, 162300, Note_on_c, 2, 45, 76
8, 162344, Note_on_c, 2, 45, 0
8, 162360, Note_on_c, 2, 47, 76
8, 162404, Note_on_c, 2, 47, 0
8, 162420, Note_on_c, 2, 48, 76
8, 162464, Note_on_c, 2, 48, 0
8, 162480, Note_on_c, 2, 50, 76
8, 162524, Note_on_c, 2, 50, 0
8, 162540, Note_on_c, 2, 52, 76
8, 162584, Note_on_c, 2, 52, 0
8, 162600, Note_on_c, 2, 54, 76
8, 162644, Note_on_c, 2, 54, 0
8, 162660, Note_on_c, 2, 50, 76
8, 162704, Note_on_c, 2, 50, 0
8, 162720, Note_on_c, 2, 55, 76
8, 162764, Note_on_c, 2, 55, 0
8, 162780, Note_on_c, 2, 54, 76
8, 162824, Note_on_c, 2, 54, 0
8, 162840, Note_on_c, 2, 52, 76
8, 162884, Note_on_c, 2, 52, 0
8, 162900, Note_on_c, 2, 50, 76
8, 162944, Note_on_c, 2, 50, 0
8, 162960, Note_on_c, 2, 48, 76
8, 163004, Note_on_c, 2, 48, 0
8, 163020, Note_on_c, 2, 50, 76
8, 163064, Note_on_c, 2, 50, 0
8, 163080, Note_on_c, 2, 52, 76
8, 163124, Note_on_c, 2, 52, 0
8, 163140, Note_on_c, 2, 48, 76
8, 163184, Note_on_c, 2, 48, 0
8, 163200, Note_on_c, 2, 50, 76
8, 163244, Note_on_c, 2, 50, 0
8, 163260, Note_on_c, 2, 48, 76
8, 163304, Note_on_c, 2, 48, 0
8, 163320, Note_on_c, 2, 50, 76
8, 163364, Note_on_c, 2, 50, 0
8, 163380, Note_on_c, 2, 52, 76
8, 163424, Note_on_c, 2, 52, 0
8, 163440, Note_on_c, 2, 50, 76
8, 163484, Note_on_c, 2, 50, 0
8, 163500, Note_on_c, 2, 48, 76
8, 163544, Note_on_c, 2, 48, 0
8, 163560, Note_on_c, 2, 47, 76
8, 163604, Note_on_c, 2, 47, 0
8, 163620, Note_on_c, 2, 45, 76
8, 163664, Note_on_c, 2, 45, 0
8, 163680, Note_on_c, 2, 43, 76
8, 163784, Note_on_c, 2, 43, 0
8, 163800, Note_on_c, 2, 59, 76
8, 163904, Note_on_c, 2, 59, 0
8, 163920, Note_on_c, 2, 59, 76
8, 164024, Note_on_c, 2, 59, 0
8, 164040, Note_on_c, 2, 59, 76
8, 164144, Note_on_c, 2, 59, 0
8, 164160, Note_on_c, 2, 55, 76
8, 164264, Note_on_c, 2, 55, 0
8, 164280, Note_on_c, 2, 57, 76
8, 164324, Note_on_c, 2, 57, 0
8, 164340, Note_on_c, 2, 59, 76
8, 164384, Note_on_c, 2, 59, 0
8, 164400, Note_on_c, 2, 60, 76
8, 164504, Note_on_c, 2, 60, 0
8, 164520, Note_on_c, 2, 57, 76
8, 164624, Note_on_c, 2, 57, 0
8, 164640, Note_on_c, 2, 54, 76
8, 164744, Note_on_c, 2, 54, 0
8, 164760, Note_on_c, 2, 59, 76
8, 164864, Note_on_c, 2, 59, 0
8, 164880, Note_on_c, 2, 47, 76
8, 164984, Note_on_c, 2, 47, 0
8, 165000, Note_on_c, 2, 57, 76
8, 165104, Note_on_c, 2, 57, 0
8, 165120, Note_on_c, 2, 55, 76
8, 165164, Note_on_c, 2, 55, 0
8, 165180, Note_on_c, 2, 54, 76
8, 165224, Note_on_c, 2, 54, 0
8, 165240, Note_on_c, 2, 52, 76
8, 165284, Note_on_c, 2, 52, 0
8, 165300, Note_on_c, 2, 54, 76
8, 165344, Note_on_c, 2, 54, 0
8, 165360, Note_on_c, 2, 55, 76
8, 165404, Note_on_c, 2, 55, 0
8, 165420, Note_on_c, 2, 57, 76
8, 165464, Note_on_c, 2, 57, 0
8, 165480, Note_on_c, 2, 59, 76
8, 165524, Note_on_c, 2, 59, 0
8, 165540, Note_on_c, 2, 55, 76
8, 165584, Note_on_c, 2, 55, 0
8, 165600, Note_on_c, 2, 60, 76
8, 165644, Note_on_c, 2, 60, 0
8, 165660, Note_on_c, 2, 62, 76
8, 165704, Note_on_c, 2, 62, 0
8, 165720, Note_on_c, 2, 60, 76
8, 165764, Note_on_c, 2, 60, 0
8, 165780, Note_on_c, 2, 59, 76
8, 165824, Note_on_c, 2, 59, 0
8, 165840, Note_on_c, 2, 57, 76
8, 165884, Note_on_c, 2, 57, 0
8, 165900, Note_on_c, 2, 59, 76
8, 165944, Note_on_c, 2, 59, 0
8, 165960, Note_on_c, 2, 60, 76
8, 166004, Note_on_c, 2, 60, 0
8, 166020, Note_on_c, 2, 57, 76
8, 166064, Note_on_c, 2, 57, 0
8, 166080, Note_on_c, 2, 59, 76
8, 166124, Note_on_c, 2, 59, 0
8, 166140, Note_on_c, 2, 57, 76
8, 166184, Note_on_c, 2, 57, 0
8, 166200, Note_on_c, 2, 59, 76
8, 166244, Note_on_c, 2, 59, 0
8, 166260, Note_on_c, 2, 60, 76
8, 166304, Note_on_c, 2, 60, 0
8, 166320, Note_on_c, 2, 59, 76
8, 166364, Note_on_c, 2, 59, 0
8, 166380, Note_on_c, 2, 57, 76
8, 166424, Note_on_c, 2, 57, 0
8, 166440, Note_on_c, 2, 55, 76
8, 166484, Note_on_c, 2, 55, 0
8, 166500, Note_on_c, 2, 54, 76
8, 166544, Note_on_c, 2, 54, 0
8, 166560, Note_on_c, 2, 55, 76
8, 166604, Note_on_c, 2, 55, 0
8, 166620, Note_on_c, 2, 54, 76
8, 166664, Note_on_c, 2, 54, 0
8, 166680, Note_on_c, 2, 55, 76
8, 166724, Note_on_c, 2, 55, 0
8, 166740, Note_on_c, 2, 57, 76
8, 166784, Note_on_c, 2, 57, 0
8, 166800, Note_on_c, 2, 55, 76
8, 166844, Note_on_c, 2, 55, 0
8, 166860, Note_on_c, 2, 54, 76
8, 166904, Note_on_c, 2, 54, 0
8, 166920, Note_on_c, 2, 52, 76
8, 166964, Note_on_c, 2, 52, 0
8, 166980, Note_on_c, 2, 51, 76
8, 167024, Note_on_c, 2, 51, 0
8, 167040, Note_on_c, 2, 52, 76
8, 167084, Note_on_c, 2, 52, 0
8, 167100, Note_on_c, 2, 51, 76
8, 167144, Note_on_c, 2, 51, 0
8, 167160, Note_on_c, 2, 52, 76
8, 167204, Note_on_c, 2, 52, 0
8, 167220, Note_on_c, 2, 54, 76
8, 167264, Note_on_c, 2, 54, 0
8, 167280, Note_on_c, 2, 55, 76
8, 167324, Note_on_c, 2, 55, 0
8, 167340, Note_on_c, 2, 57, 76
8, 167384, Note_on_c, 2, 57, 0
8, 167400, Note_on_c, 2, 59, 76
8, 167444, Note_on_c, 2, 59, 0
8, 167460, Note_on_c, 2, 55, 76
8, 167504, Note_on_c, 2, 55, 0
8, 167520, Note_on_c, 2, 57, 76
8, 167564, Note_on_c, 2, 57, 0
8, 167580, Note_on_c, 2, 55, 76
8, 167624, Note_on_c, 2, 55, 0
8, 167640, Note_on_c, 2, 57, 76
8, 167684, Note_on_c, 2, 57, 0
8, 167700, Note_on_c, 2, 59, 76
8, 167744, Note_on_c, 2, 59, 0
8, 167760, Note_on_c, 2, 57, 76
8, 167804, Note_on_c, 2, 57, 0
8, 167820, Note_on_c, 2, 55, 76
8, 167864, Note_on_c, 2, 55, 0
8, 167880, Note_on_c, 2, 54, 76
8, 167924, Note_on_c, 2, 54, 0
8, 167940, Note_on_c, 2, 52, 76
8, 167984, Note_on_c, 2, 52, 0
8, 168000, Note_on_c, 2, 50, 76
8, 168044, Note_on_c, 2, 50, 0
8, 168060, Note_on_c, 2, 48, 76
8, 168104, Note_on_c, 2, 48, 0
8, 168120, Note_on_c, 2, 50, 76
8, 168164, Note_on_c, 2, 50, 0
8, 168180, Note_on_c, 2, 52, 76
8, 168224, Note_on_c, 2, 52, 0
8, 168240, Note_on_c, 2, 54, 76
8, 168284, Note_on_c, 2, 54, 0
8, 168300, Note_on_c, 2, 55, 76
8, 168344, Note_on_c, 2, 55, 0
8, 168360, Note_on_c, 2, 57, 76
8, 168404, Note_on_c, 2, 57, 0
8, 168420, Note_on_c, 2, 54, 76
8, 168464, Note_on_c, 2, 54, 0
8, 168480, Note_on_c, 2, 55, 76
8, 168524, Note_on_c, 2, 55, 0
8, 168540, Note_on_c, 2, 54, 76
8, 168584, Note_on_c, 2, 54, 0
8, 168600, Note_on_c, 2, 55, 76
8, 168644, Note_on_c, 2, 55, 0
8, 168660, Note_on_c, 2, 57, 76
8, 168704, Note_on_c, 2, 57, 0
8, 168720, Note_on_c, 2, 55, 76
8, 168764, Note_on_c, 2, 55, 0
8, 168780, Note_on_c, 2, 54, 76
8, 168824, Note_on_c, 2, 54, 0
8, 168840, Note_on_c, 2, 52, 76
8, 168884, Note_on_c, 2, 52, 0
8, 168900, Note_on_c, 2, 50, 76
8, 168944, Note_on_c, 2, 50, 0
8, 168960, Note_on_c, 2, 48, 76
8, 169004, Note_on_c, 2, 48, 0
8, 169020, Note_on_c, 2, 50, 76
8, 169064, Note_on_c, 2, 50, 0
8, 169080, Note_on_c, 2, 48, 76
8, 169124, Note_on_c, 2, 48, 0
8, 169140, Note_on_c, 2, 47, 76
8, 169184, Note_on_c, 2, 47, 0
8, 169200, Note_on_c, 2, 45, 76
8, 169244, Note_on_c, 2, 45, 0
8, 169260, Note_on_c, 2, 43, 76
8, 169304, Note_on_c, 2, 43, 0
8, 169320, Note_on_c, 2, 42, 76
8, 169364, Note_on_c, 2, 42, 0
8, 169380, Note_on_c, 2, 40, 76
8, 169424, Note_on_c, 2, 40, 0
8, 169440, Note_on_c, 2, 39, 76
8, 169544, Note_on_c, 2, 39, 0
8, 169560, Note_on_c, 2, 47, 76
8, 169664, Note_on_c, 2, 47, 0
8, 169680, Note_on_c, 2, 48, 76
8, 169784, Note_on_c, 2, 48, 0
8, 169800, Note_on_c, 2, 47, 76
8, 169904, Note_on_c, 2, 47, 0
8, 169920, Note_on_c, 2, 45, 76
8, 170024, Note_on_c, 2, 45, 0
8, 170040, Note_on_c, 2, 42, 76
8, 170144, Note_on_c, 2, 42, 0
8, 170160, Note_on_c, 2, 47, 76
8, 170264, Note_on_c, 2, 47, 0
8, 170280, Note_on_c, 2, 45, 76
8, 170384, Note_on_c, 2, 45, 0
8, 170400, Note_on_c, 2, 44, 76
8, 170504, Note_on_c, 2, 44, 0
8, 170520, Note_on_c, 2, 52, 76
8, 170624, Note_on_c, 2, 52, 0
8, 170640, Note_on_c, 2, 57, 76
8, 170744, Note_on_c, 2, 57, 0
8, 170760, Note_on_c, 2, 55, 76
8, 170864, Note_on_c, 2, 55, 0
8, 170880, Note_on_c, 2, 54, 76
8, 170984, Note_on_c, 2, 54, 0
8, 171000, Note_on_c, 2, 62, 76
8, 171044, Note_on_c, 2, 62, 0
8, 171060, Note_on_c, 2, 60, 76
8, 171104, Note_on_c, 2, 60, 0
8, 171120, Note_on_c, 2, 59, 76
8, 171224, Note_on_c, 2, 59, 0
8, 171240, Note_on_c, 2, 57, 76
8, 171344, Note_on_c, 2, 57, 0
8, 171360, Note_on_c, 2, 56, 76
8, 171464, Note_on_c, 2, 56, 0
8, 171480, Note_on_c, 2, 52, 76
8, 171584, Note_on_c, 2, 52, 0
8, 171600, Note_on_c, 2, 57, 76
8, 171704, Note_on_c, 2, 57, 0
8, 171720, Note_on_c, 2, 60, 76
8, 171824, Note_on_c, 2, 60, 0
8, 171840, Note_on_c, 2, 65, 76
8, 171944, Note_on_c, 2, 65, 0
8, 171960, Note_on_c, 2, 56, 76
8, 172064, Note_on_c, 2, 56, 0
8, 172080, Note_on_c, 2, 57, 76
8, 172184, Note_on_c, 2, 57, 0
8, 172200, Note_on_c, 2, 53, 76
8, 172304, Note_on_c, 2, 53, 0
8, 172320, Note_on_c, 2, 50, 76
8, 172424, Note_on_c, 2, 50, 0
8, 172440, Note_on_c, 2, 47, 76
8, 172544, Note_on_c, 2, 47, 0
8, 172560, Note_on_c, 2, 52, 76
8, 172664, Note_on_c, 2, 52, 0
8, 172680, Note_on_c, 2, 40, 76
8, 172784, Note_on_c, 2, 40, 0
8, 172800, Note_on_c, 2, 45, 76
8, 172904, Note_on_c, 2, 45, 0
8, 172920, Note_on_c, 2, 64, 76
8, 172964, Note_on_c, 2, 64, 0
8, 172980, Note_on_c, 2, 62, 76
8, 173024, Note_on_c, 2, 62, 0
8, 173040, Note_on_c, 2, 60, 76
8, 173084, Note_on_c, 2, 60, 0
8, 173100, Note_on_c, 2, 59, 76
8, 173144, Note_on_c, 2, 59, 0
8, 173160, Note_on_c, 2, 60, 76
8, 173204, Note_on_c, 2, 60, 0
8, 173220, Note_on_c, 2, 57, 76
8, 173264, Note_on_c, 2, 57, 0
8, 173280, Note_on_c, 2, 62, 76
8, 173384, Note_on_c, 2, 62, 0
8, 173400, Note_on_c, 2, 50, 76
8, 173504, Note_on_c, 2, 50, 0
8, 173520, Note_on_c, 2, 62, 76
8, 173624, Note_on_c, 2, 62, 0
8, 173640, Note_on_c, 2, 58, 76
8, 173744, Note_on_c, 2, 58, 0
8, 173760, Note_on_c, 2, 63, 76
8, 173864, Note_on_c, 2, 63, 0
8, 173880, Note_on_c, 2, 54, 76
8, 173984, Note_on_c, 2, 54, 0
8, 174000, Note_on_c, 2, 55, 76
8, 174104, Note_on_c, 2, 55, 0
8, 174120, Note_on_c, 2, 51, 76
8, 174224, Note_on_c, 2, 51, 0
8, 174240, Note_on_c, 2, 48, 76
8, 174344, Note_on_c, 2, 48, 0
8, 174360, Note_on_c, 2, 45, 76
8, 174464, Note_on_c, 2, 45, 0
8, 174480, Note_on_c, 2, 50, 76
8, 174584, Note_on_c, 2, 50, 0
8, 174600, Note_on_c, 2, 38, 76
8, 174704, Note_on_c, 2, 38, 0
8, 174720, Note_on_c, 2, 43, 76
8, 174824, Note_on_c, 2, 43, 0
8, 174840, Note_on_c, 2, 62, 76
8, 174884, Note_on_c, 2, 62, 0
8, 174900, Note_on_c, 2, 60, 76
8, 174944, Note_on_c, 2, 60, 0
8, 174960, Note_on_c, 2, 58, 76
8, 175004, Note_on_c, 2, 58, 0
8, 175020, Note_on_c, 2, 57, 76
8, 175064, Note_on_c, 2, 57, 0
8, 175080, Note_on_c, 2, 58, 76
8, 175124, Note_on_c, 2, 58, 0
8, 175140, Note_on_c, 2, 55, 76
8, 175184, Note_on_c, 2, 55, 0
8, 175200, Note_on_c, 2, 60, 76
8, 175304, Note_on_c, 2, 60, 0
8, 175320, Note_on_c, 2, 48, 76
8, 175424, Note_on_c, 2, 48, 0
8, 175440, Note_on_c, 2, 60, 76
8, 175544, Note_on_c, 2, 60, 0
8, 175560, Note_on_c, 2, 57, 76
8, 175664, Note_on_c, 2, 57, 0
8, 175680, Note_on_c, 2, 62, 76
8, 175784, Note_on_c, 2, 62, 0
8, 175800, Note_on_c, 2, 52, 76
8, 175904, Note_on_c, 2, 52, 0
8, 175920, Note_on_c, 2, 53, 76
8, 176024, Note_on_c, 2, 53, 0
8, 176040, Note_on_c, 2, 50, 76
8, 176144, Note_on_c, 2, 50, 0
8, 176160, Note_on_c, 2, 46, 76
8, 176264, Note_on_c, 2, 46, 0
8, 176280, Note_on_c, 2, 43, 76
8, 176384, Note_on_c, 2, 43, 0
8, 176400, Note_on_c, 2, 48, 76
8, 176504, Note_on_c, 2, 48, 0
8, 176520, Note_on_c, 2, 36, 76
8, 176624, Note_on_c, 2, 36, 0
8, 176640, Note_on_c, 2, 41, 76
8, 176759, Note_on_c, 2, 41, 0
8, 177180, Note_on_c, 2, 58, 76
8, 177224, Note_on_c, 2, 58, 0
8, 177240, Note_on_c, 2, 57, 76
8, 177284, Note_on_c, 2, 57, 0
8, 177300, Note_on_c, 2, 55, 76
8, 177344, Note_on_c, 2, 55, 0
8, 177360, Note_on_c, 2, 53, 76
8, 177404, Note_on_c, 2, 53, 0
8, 177420, Note_on_c, 2, 52, 76
8, 177464, Note_on_c, 2, 52, 0
8, 177480, Note_on_c, 2, 53, 76
8, 177524, Note_on_c, 2, 53, 0
8, 177540, Note_on_c, 2, 50, 76
8, 177584, Note_on_c, 2, 50, 0
8, 177600, Note_on_c, 2, 55, 76
8, 177704, Note_on_c, 2, 55, 0
8, 177720, Note_on_c, 2, 43, 76
8, 177839, Note_on_c, 2, 43, 0
8, 178200, Note_on_c, 2, 60, 76
8, 178304, Note_on_c, 2, 60, 0
8, 178320, Note_on_c, 2, 60, 76
8, 178424, Note_on_c, 2, 60, 0
8, 178440, Note_on_c, 2, 60, 76
8, 178544, Note_on_c, 2, 60, 0
8, 178560, Note_on_c, 2, 59, 76
8, 178664, Note_on_c, 2, 59, 0
8, 178680, Note_on_c, 2, 60, 76
8, 178724, Note_on_c, 2, 60, 0
8, 178740, Note_on_c, 2, 62, 76
8, 178784, Note_on_c, 2, 62, 0
8, 178800, Note_on_c, 2, 64, 76
8, 178904, Note_on_c, 2, 64, 0
8, 178920, Note_on_c, 2, 60, 76
8, 179024, Note_on_c, 2, 60, 0
8, 179040, Note_on_c, 2, 57, 76
8, 179144, Note_on_c, 2, 57, 0
8, 179160, Note_on_c, 2, 62, 76
8, 179264, Note_on_c, 2, 62, 0
8, 179280, Note_on_c, 2, 50, 76
8, 179384, Note_on_c, 2, 50, 0
8, 179400, Note_on_c, 2, 60, 76
8, 179504, Note_on_c, 2, 60, 0
8, 179520, Note_on_c, 2, 59, 76
8, 179624, Note_on_c, 2, 59, 0
8, 179640, Note_on_c, 2, 55, 76
8, 179744, Note_on_c, 2, 55, 0
8, 179760, Note_on_c, 2, 60, 76
8, 179864, Note_on_c, 2, 60, 0
8, 179880, Note_on_c, 2, 48, 76
8, 179984, Note_on_c, 2, 48, 0
8, 180000, Note_on_c, 2, 41, 76
8, 180104, Note_on_c, 2, 41, 0
8, 180120, Note_on_c, 2, 53, 76
8, 180224, Note_on_c, 2, 53, 0
8, 180240, Note_on_c, 2, 53, 76
8, 180344, Note_on_c, 2, 53, 0
8, 180360, Note_on_c, 2, 53, 76
8, 180464, Note_on_c, 2, 53, 0
8, 180480, Note_on_c, 2, 52, 76
8, 180584, Note_on_c, 2, 52, 0
8, 180600, Note_on_c, 2, 53, 76
8, 180644, Note_on_c, 2, 53, 0
8, 180660, Note_on_c, 2, 55, 76
8, 180704, Note_on_c, 2, 55, 0
8, 180720, Note_on_c, 2, 57, 76
8, 180824, Note_on_c, 2, 57, 0
8, 180840, Note_on_c, 2, 53, 76
8, 180944, Note_on_c, 2, 53, 0
8, 180960, Note_on_c, 2, 50, 76
8, 181064, Note_on_c, 2, 50, 0
8, 181080, Note_on_c, 2, 55, 76
8, 181184, Note_on_c, 2, 55, 0
8, 181200, Note_on_c, 2, 43, 76
8, 181304, Note_on_c, 2, 43, 0
8, 181320, Note_on_c, 2, 53, 76
8, 181424, Note_on_c, 2, 53, 0
8, 181440, Note_on_c, 2, 52, 76
8, 181544, Note_on_c, 2, 52, 0
8, 181560, Note_on_c, 2, 55, 76
8, 181664, Note_on_c, 2, 55, 0
8, 181680, Note_on_c, 2, 52, 76
8, 181784, Note_on_c, 2, 52, 0
8, 181800, Note_on_c, 2, 48, 76
8, 181904, Note_on_c, 2, 48, 0
8, 181920, Note_on_c, 2, 53, 76
8, 182024, Note_on_c, 2, 53, 0
8, 182040, Note_on_c, 2, 50, 76
8, 182144, Note_on_c, 2, 50, 0
8, 182160, Note_on_c, 2, 52, 76
8, 182264, Note_on_c, 2, 52, 0
8, 182280, Note_on_c, 2, 53, 76
8, 182384, Note_on_c, 2, 53, 0
8, 182400, Note_on_c, 2, 55, 76
8, 182639, Note_on_c, 2, 55, 0
8, 186840, Note_on_c, 2, 60, 76
8, 186944, Note_on_c, 2, 60, 0
8, 186960, Note_on_c, 2, 60, 76
8, 187064, Note_on_c, 2, 60, 0
8, 187080, Note_on_c, 2, 60, 76
8, 187184, Note_on_c, 2, 60, 0
8, 187200, Note_on_c, 2, 59, 76
8, 187304, Note_on_c, 2, 59, 0
8, 187320, Note_on_c, 2, 60, 76
8, 187364, Note_on_c, 2, 60, 0
8, 187380, Note_on_c, 2, 62, 76
8, 187424, Note_on_c, 2, 62, 0
8, 187440, Note_on_c, 2, 64, 76
8, 187544, Note_on_c, 2, 64, 0
8, 187560, Note_on_c, 2, 60, 76
8, 187664, Note_on_c, 2, 60, 0
8, 187680, Note_on_c, 2, 57, 76
8, 187784, Note_on_c, 2, 57, 0
8, 187800, Note_on_c, 2, 62, 76
8, 187904, Note_on_c, 2, 62, 0
8, 187920, Note_on_c, 2, 50, 76
8, 188024, Note_on_c, 2, 50, 0
8, 188040, Note_on_c, 2, 60, 76
8, 188144, Note_on_c, 2, 60, 0
8, 188160, Note_on_c, 2, 59, 76
8, 188204, Note_on_c, 2, 59, 0
8, 188220, Note_on_c, 2, 57, 76
8, 188264, Note_on_c, 2, 57, 0
8, 188280, Note_on_c, 2, 55, 76
8, 188324, Note_on_c, 2, 55, 0
8, 188340, Note_on_c, 2, 57, 76
8, 188384, Note_on_c, 2, 57, 0
8, 188400, Note_on_c, 2, 59, 76
8, 188444, Note_on_c, 2, 59, 0
8, 188460, Note_on_c, 2, 55, 76
8, 188504, Note_on_c, 2, 55, 0
8, 188520, Note_on_c, 2, 57, 76
8, 188564, Note_on_c, 2, 57, 0
8, 188580, Note_on_c, 2, 59, 76
8, 188624, Note_on_c, 2, 59, 0
8, 188640, Note_on_c, 2, 60, 76
8, 188684, Note_on_c, 2, 60, 0
8, 188700, Note_on_c, 2, 62, 76
8, 188744, Note_on_c, 2, 62, 0
8, 188760, Note_on_c, 2, 60, 76
8, 188804, Note_on_c, 2, 60, 0
8, 188820, Note_on_c, 2, 59, 76
8, 188864, Note_on_c, 2, 59, 0
8, 188880, Note_on_c, 2, 57, 76
8, 188924, Note_on_c, 2, 57, 0
8, 188940, Note_on_c, 2, 55, 76
8, 188984, Note_on_c, 2, 55, 0
8, 189000, Note_on_c, 2, 53, 76
8, 189044, Note_on_c, 2, 53, 0
8, 189060, Note_on_c, 2, 52, 76
8, 189104, Note_on_c, 2, 52, 0
8, 189120, Note_on_c, 2, 50, 76
8, 189164, Note_on_c, 2, 50, 0
8, 189180, Note_on_c, 2, 53, 76
8, 189224, Note_on_c, 2, 53, 0
8, 189240, Note_on_c, 2, 52, 76
8, 189284, Note_on_c, 2, 52, 0
8, 189300, Note_on_c, 2, 53, 76
8, 189344, Note_on_c, 2, 53, 0
8, 189360, Note_on_c, 2, 55, 76
8, 189404, Note_on_c, 2, 55, 0
8, 189420, Note_on_c, 2, 53, 76
8, 189464, Note_on_c, 2, 53, 0
8, 189480, Note_on_c, 2, 52, 76
8, 189524, Note_on_c, 2, 52, 0
8, 189540, Note_on_c, 2, 50, 76
8, 189584, Note_on_c, 2, 50, 0
8, 189600, Note_on_c, 2, 48, 76
8, 189644, Note_on_c, 2, 48, 0
8, 189660, Note_on_c, 2, 52, 76
8, 189704, Note_on_c, 2, 52, 0
8, 189720, Note_on_c, 2, 50, 76
8, 189764, Note_on_c, 2, 50, 0
8, 189780, Note_on_c, 2, 52, 76
8, 189824, Note_on_c, 2, 52, 0
8, 189840, Note_on_c, 2, 53, 76
8, 189884, Note_on_c, 2, 53, 0
8, 189900, Note_on_c, 2, 52, 76
8, 189944, Note_on_c, 2, 52, 0
8, 189960, Note_on_c, 2, 50, 76
8, 190004, Note_on_c, 2, 50, 0
8, 190020, Note_on_c, 2, 48, 76
8, 190064, Note_on_c, 2, 48, 0
8, 190080, Note_on_c, 2, 47, 76
8, 190124, Note_on_c, 2, 47, 0
8, 190140, Note_on_c, 2, 50, 76
8, 190184, Note_on_c, 2, 50, 0
8, 190200, Note_on_c, 2, 48, 76
8, 190244, Note_on_c, 2, 48, 0
8, 190260, Note_on_c, 2, 50, 76
8, 190304, Note_on_c, 2, 50, 0
8, 190320, Note_on_c, 2, 52, 76
8, 190364, Note_on_c, 2, 52, 0
8, 190380, Note_on_c, 2, 50, 76
8, 190424, Note_on_c, 2, 50, 0
8, 190440, Note_on_c, 2, 48, 76
8, 190484, Note_on_c, 2, 48, 0
8, 190500, Note_on_c, 2, 47, 76
8, 190544, Note_on_c, 2, 47, 0
8, 190560, Note_on_c, 2, 45, 76
8, 190604, Note_on_c, 2, 45, 0
8, 190620, Note_on_c, 2, 48, 76
8, 190664, Note_on_c, 2, 48, 0
8, 190680, Note_on_c, 2, 47, 76
8, 190724, Note_on_c, 2, 47, 0
8, 190740, Note_on_c, 2, 48, 76
8, 190784, Note_on_c, 2, 48, 0
8, 190800, Note_on_c, 2, 50, 76
8, 190844, Note_on_c, 2, 50, 0
8, 190860, Note_on_c, 2, 48, 76
8, 190904, Note_on_c, 2, 48, 0
8, 190920, Note_on_c, 2, 47, 76
8, 190964, Note_on_c, 2, 47, 0
8, 190980, Note_on_c, 2, 45, 76
8, 191024, Note_on_c, 2, 45, 0
8, 191040, Note_on_c, 2, 43, 76
8, 191144, Note_on_c, 2, 43, 0
8, 191160, Note_on_c, 2, 55, 76
8, 191264, Note_on_c, 2, 55, 0
8, 191280, Note_on_c, 2, 55, 76
8, 191384, Note_on_c, 2, 55, 0
8, 191400, Note_on_c, 2, 55, 76
8, 191504, Note_on_c, 2, 55, 0
8, 191520, Note_on_c, 2, 52, 76
8, 191624, Note_on_c, 2, 52, 0
8, 191640, Note_on_c, 2, 53, 76
8, 191684, Note_on_c, 2, 53, 0
8, 191700, Note_on_c, 2, 55, 76
8, 191744, Note_on_c, 2, 55, 0
8, 191760, Note_on_c, 2, 57, 76
8, 191864, Note_on_c, 2, 57, 0
8, 191880, Note_on_c, 2, 53, 76
8, 191984, Note_on_c, 2, 53, 0
8, 192000, Note_on_c, 2, 50, 76
8, 192104, Note_on_c, 2, 50, 0
8, 192120, Note_on_c, 2, 55, 76
8, 192224, Note_on_c, 2, 55, 0
8, 192240, Note_on_c, 2, 43, 76
8, 192344, Note_on_c, 2, 43, 0
8, 192360, Note_on_c, 2, 53, 76
8, 192464, Note_on_c, 2, 53, 0
8, 192480, Note_on_c, 2, 52, 76
8, 192584, Note_on_c, 2, 52, 0
8, 192600, Note_on_c, 2, 48, 76
8, 192704, Note_on_c, 2, 48, 0
8, 192720, Note_on_c, 2, 55, 76
8, 192824, Note_on_c, 2, 55, 0
8, 192840, Note_on_c, 2, 43, 76
8, 192944, Note_on_c, 2, 43, 0
8, 192960, Note_on_c, 2, 48, 76
8, 193199, Note_on_c, 2, 48, 0
8, 193500, Note_on_c, 2, 58, 76
8, 193544, Note_on_c, 2, 58, 0
8, 193560, Note_on_c, 2, 57, 76
8, 193604, Note_on_c, 2, 57, 0
8, 193620, Note_on_c, 2, 55, 76
8, 193664, Note_on_c, 2, 55, 0
8, 193680, Note_on_c, 2, 53, 76
8, 193724, Note_on_c, 2, 53, 0
8, 193740, Note_on_c, 2, 52, 76
8, 193784, Note_on_c, 2, 52, 0
8, 193800, Note_on_c, 2, 53, 76
8, 193844, Note_on_c, 2, 53, 0
8, 193860, Note_on_c, 2, 50, 76
8, 193904, Note_on_c, 2, 50, 0
8, 193920, Note_on_c, 2, 55, 76
8, 193964, Note_on_c, 2, 55, 0
8, 193980, Note_on_c, 2, 53, 76
8, 194024, Note_on_c, 2, 53, 0
8, 194040, Note_on_c, 2, 55, 76
8, 194084, Note_on_c, 2, 55, 0
8, 194100, Note_on_c, 2, 57, 76
8, 194144, Note_on_c, 2, 57, 0
8, 194160, Note_on_c, 2, 55, 76
8, 194204, Note_on_c, 2, 55, 0
8, 194220, Note_on_c, 2, 53, 76
8, 194264, Note_on_c, 2, 53, 0
8, 194280, Note_on_c, 2, 52, 76
8, 194324, Note_on_c, 2, 52, 0
8, 194340, Note_on_c, 2, 50, 76
8, 194384, Note_on_c, 2, 50, 0
8, 194400, Note_on_c, 2, 48, 76
8, 194639, Note_on_c, 2, 48, 0
8, 195960, Note_on_c, 2, 60, 76
8, 196064, Note_on_c, 2, 60, 0
8, 196080, Note_on_c, 2, 60, 76
8, 196184, Note_on_c, 2, 60, 0
8, 196200, Note_on_c, 2, 60, 76
8, 196304, Note_on_c, 2, 60, 0
8, 196320, Note_on_c, 2, 59, 76
8, 196424, Note_on_c, 2, 59, 0
8, 196440, Note_on_c, 2, 60, 76
8, 196484, Note_on_c, 2, 60, 0
8, 196500, Note_on_c, 2, 62, 76
8, 196544, Note_on_c, 2, 62, 0
8, 196560, Note_on_c, 2, 64, 76
8, 196664, Note_on_c, 2, 64, 0
8, 196680, Note_on_c, 2, 60, 76
8, 196784, Note_on_c, 2, 60, 0
8, 196800, Note_on_c, 2, 57, 76
8, 196904, Note_on_c, 2, 57, 0
8, 196920, Note_on_c, 2, 62, 76
8, 197024, Note_on_c, 2, 62, 0
8, 197040, Note_on_c, 2, 50, 76
8, 197144, Note_on_c, 2, 50, 0
8, 197160, Note_on_c, 2, 60, 76
8, 197264, Note_on_c, 2, 60, 0
8, 197280, Note_on_c, 2, 59, 76
8, 197384, Note_on_c, 2, 59, 0
8, 197400, Note_on_c, 2, 55, 76
8, 197504, Note_on_c, 2, 55, 0
8, 197520, Note_on_c, 2, 60, 76
8, 197624, Note_on_c, 2, 60, 0
8, 197640, Note_on_c, 2, 48, 76
8, 197744, Note_on_c, 2, 48, 0
8, 197760, Note_on_c, 2, 53, 76
8, 197804, Note_on_c, 2, 53, 0
8, 197820, Note_on_c, 2, 57, 76
8, 197864, Note_on_c, 2, 57, 0
8, 197880, Note_on_c, 2, 55, 76
8, 197924, Note_on_c, 2, 55, 0
8, 197940, Note_on_c, 2, 57, 76
8, 197984, Note_on_c, 2, 57, 0
8, 198000, Note_on_c, 2, 58, 76
8, 198044, Note_on_c, 2, 58, 0
8, 198060, Note_on_c, 2, 57, 76
8, 198104, Note_on_c, 2, 57, 0
8, 198120, Note_on_c, 2, 55, 76
8, 198164, Note_on_c, 2, 55, 0
8, 198180, Note_on_c, 2, 53, 76
8, 198224, Note_on_c, 2, 53, 0
8, 198240, Note_on_c, 2, 52, 76
8, 198284, Note_on_c, 2, 52, 0
8, 198300, Note_on_c, 2, 55, 76
8, 198344, Note_on_c, 2, 55, 0
8, 198360, Note_on_c, 2, 53, 76
8, 198404, Note_on_c, 2, 53, 0
8, 198420, Note_on_c, 2, 55, 76
8, 198464, Note_on_c, 2, 55, 0
8, 198480, Note_on_c, 2, 57, 76
8, 198524, Note_on_c, 2, 57, 0
8, 198540, Note_on_c, 2, 55, 76
8, 198584, Note_on_c, 2, 55, 0
8, 198600, Note_on_c, 2, 53, 76
8, 198644, Note_on_c, 2, 53, 0
8, 198660, Note_on_c, 2, 52, 76
8, 198704, Note_on_c, 2, 52, 0
8, 198720, Note_on_c, 2, 50, 76
8, 198824, Note_on_c, 2, 50, 0
8, 198840, Note_on_c, 2, 52, 76
8, 198884, Note_on_c, 2, 52, 0
8, 198900, Note_on_c, 2, 53, 76
8, 198944, Note_on_c, 2, 53, 0
8, 198960, Note_on_c, 2, 55, 76
8, 199064, Note_on_c, 2, 55, 0
8, 199080, Note_on_c, 2, 43, 76
8, 199184, Note_on_c, 2, 43, 0
8, 199200, Note_on_c, 2, 48, 76
8, 199244, Note_on_c, 2, 48, 0
8, 199260, Note_on_c, 2, 55, 76
8, 199304, Note_on_c, 2, 55, 0
8, 199320, Note_on_c, 2, 57, 76
8, 199364, Note_on_c, 2, 57, 0
8, 199380, Note_on_c, 2, 59, 76
8, 199424, Note_on_c, 2, 59, 0
8, 199440, Note_on_c, 2, 60, 76
8, 199604, Note_on_c, 2, 60, 0
8, 199620, Note_on_c, 2, 60, 76
8, 199664, Note_on_c, 2, 60, 0
8, 199680, Note_on_c, 2, 60, 76
8, 199724, Note_on_c, 2, 60, 0
8, 199740, Note_on_c, 2, 59, 76
8, 199784, Note_on_c, 2, 59, 0
8, 199800, Note_on_c, 2, 60, 76
8, 199844, Note_on_c, 2, 60, 0
8, 199860, Note_on_c, 2, 57, 76
8, 199904, Note_on_c, 2, 57, 0
8, 199920, Note_on_c, 2, 59, 76
8, 200084, Note_on_c, 2, 59, 0
8, 200100, Note_on_c, 2, 59, 76
8, 200144, Note_on_c, 2, 59, 0
8, 200160, Note_on_c, 2, 59, 76
8, 200264, Note_on_c, 2, 59, 0
8, 200280, Note_on_c, 2, 52, 76
8, 200384, Note_on_c, 2, 52, 0
8, 200400, Note_on_c, 2, 57, 76
8, 200564, Note_on_c, 2, 57, 0
8, 200580, Note_on_c, 2, 57, 76
8, 200624, Note_on_c, 2, 57, 0
8, 200640, Note_on_c, 2, 57, 76
8, 200684, Note_on_c, 2, 57, 0
8, 200700, Note_on_c, 2, 55, 76
8, 200744, Note_on_c, 2, 55, 0
8, 200760, Note_on_c, 2, 57, 76
8, 200804, Note_on_c, 2, 57, 0
8, 200820, Note_on_c, 2, 53, 76
8, 200864, Note_on_c, 2, 53, 0
8, 200880, Note_on_c, 2, 55, 76
8, 201044, Note_on_c, 2, 55, 0
8, 201060, Note_on_c, 2, 55, 76
8, 201104, Note_on_c, 2, 55, 0
8, 201120, Note_on_c, 2, 55, 76
8, 201224, Note_on_c, 2, 55, 0
8, 201240, Note_on_c, 2, 48, 76
8, 201344, Note_on_c, 2, 48, 0
8, 201360, Note_on_c, 2, 53, 76
8, 201524, Note_on_c, 2, 53, 0
8, 201540, Note_on_c, 2, 53, 76
8, 201584, Note_on_c, 2, 53, 0
8, 201600, Note_on_c, 2, 53, 76
8, 201644, Note_on_c, 2, 53, 0
8, 201660, Note_on_c, 2, 52, 76
8, 201704, Note_on_c, 2, 52, 0
8, 201720, Note_on_c, 2, 53, 76
8, 201764, Note_on_c, 2, 53, 0
8, 201780, Note_on_c, 2, 50, 76
8, 201824, Note_on_c, 2, 50, 0
8, 201840, Note_on_c, 2, 52, 76
8, 201884, Note_on_c, 2, 52, 0
8, 201900, Note_on_c, 2, 53, 76
8, 201944, Note_on_c, 2, 53, 0
8, 201960, Note_on_c, 2, 55, 76
8, 202004, Note_on_c, 2, 55, 0
8, 202020, Note_on_c, 2, 52, 76
8, 202064, Note_on_c, 2, 52, 0
8, 202080, Note_on_c, 2, 57, 76
8, 202124, Note_on_c, 2, 57, 0
8, 202140, Note_on_c, 2, 58, 76
8, 202184, Note_on_c, 2, 58, 0
8, 202200, Note_on_c, 2, 57, 76
8, 202244, Note_on_c, 2, 57, 0
8, 202260, Note_on_c, 2, 55, 76
8, 202304, Note_on_c, 2, 55, 0
8, 202320, Note_on_c, 2, 53, 76
8, 202364, Note_on_c, 2, 53, 0
8, 202380, Note_on_c, 2, 52, 76
8, 202424, Note_on_c, 2, 52, 0
8, 202440, Note_on_c, 2, 50, 76
8, 202484, Note_on_c, 2, 50, 0
8, 202500, Note_on_c, 2, 48, 76
8, 202544, Note_on_c, 2, 48, 0
8, 202560, Note_on_c, 2, 47, 76
8, 202604, Note_on_c, 2, 47, 0
8, 202620, Note_on_c, 2, 45, 76
8, 202664, Note_on_c, 2, 45, 0
8, 202680, Note_on_c, 2, 43, 76
8, 202724, Note_on_c, 2, 43, 0
8, 202740, Note_on_c, 2, 45, 76
8, 202784, Note_on_c, 2, 45, 0
8, 202800, Note_on_c, 2, 47, 76
8, 202844, Note_on_c, 2, 47, 0
8, 202860, Note_on_c, 2, 45, 76
8, 202904, Note_on_c, 2, 45, 0
8, 202920, Note_on_c, 2, 47, 76
8, 202964, Note_on_c, 2, 47, 0
8, 202980, Note_on_c, 2, 43, 76
8, 203024, Note_on_c, 2, 43, 0
8, 203040, Note_on_c, 2, 48, 76
8, 203144, Note_on_c, 2, 48, 0
8, 203160, Note_on_c, 2, 53, 76
8, 203264, Note_on_c, 2, 53, 0
8, 203280, Note_on_c, 2, 55, 76
8, 203384, Note_on_c, 2, 55, 0
8, 203400, Note_on_c, 2, 43, 76
8, 203504, Note_on_c, 2, 43, 0
8, 203520, Note_on_c, 2, 36, 76
8, 204111, Note_on_c, 2, 36, 0
8, 204120, Note_on_c, 2, 48, 76
8, 204171, Note_on_c, 2, 48, 0
8, 204180, Note_on_c, 2, 50, 76
8, 204231, Note_on_c, 2, 50, 0
8, 204240, Note_on_c, 2, 52, 76
8, 204291, Note_on_c, 2, 52, 0
8, 204300, Note_on_c, 2, 50, 76
8, 204351, Note_on_c, 2, 50, 0
8, 204360, Note_on_c, 2, 52, 76
8, 204411, Note_on_c, 2, 52, 0
8, 204420, Note_on_c, 2, 53, 76
8, 204471, Note_on_c, 2, 53, 0
8, 204480, Note_on_c, 2, 55, 76
8, 204771, Note_on_c, 2, 55, 0
8, 204780, Note_on_c, 2, 55, 76
8, 204831, Note_on_c, 2, 55, 0
8, 204840, Note_on_c, 2, 57, 76
8, 204891, Note_on_c, 2, 57, 0
8, 204900, Note_on_c, 2, 58, 76
8, 204951, Note_on_c, 2, 58, 0
8, 204960, Note_on_c, 2, 60, 76
8, 205011, Note_on_c, 2, 60, 0
8, 205020, Note_on_c, 2, 58, 76
8, 205071, Note_on_c, 2, 58, 0
8, 205080, Note_on_c, 2, 57, 76
8, 205131, Note_on_c, 2, 57, 0
8, 205140, Note_on_c, 2, 58, 76
8, 205191, Note_on_c, 2, 58, 0
8, 205200, Note_on_c, 2, 60, 76
8, 205251, Note_on_c, 2, 60, 0
8, 205260, Note_on_c, 2, 57, 76
8, 205311, Note_on_c, 2, 57, 0
8, 205320, Note_on_c, 2, 58, 76
8, 205371, Note_on_c, 2, 58, 0
8, 205380, Note_on_c, 2, 60, 76
8, 205431, Note_on_c, 2, 60, 0
8, 205440, Note_on_c, 2, 53, 76
8, 205611, Note_on_c, 2, 53, 0
8, 205620, Note_on_c, 2, 50, 76
8, 205649, Note_on_c, 2, 50, 0
8, 205650, Note_on_c, 2, 52, 76
8, 205679, Note_on_c, 2, 52, 0
8, 205680, Note_on_c, 2, 53, 76
8, 205851, Note_on_c, 2, 53, 0
8, 205860, Note_on_c, 2, 55, 76
8, 205889, Note_on_c, 2, 55, 0
8, 205890, Note_on_c, 2, 57, 76
8, 205919, Note_on_c, 2, 57, 0
8, 205920, Note_on_c, 2, 58, 76
8, 206271, Note_on_c, 2, 58, 0
8, 206280, Note_on_c, 2, 58, 76
8, 206391, Note_on_c, 2, 58, 0
8, 206400, Note_on_c, 2, 58, 76
8, 206451, Note_on_c, 2, 58, 0
8, 206460, Note_on_c, 2, 60, 76
8, 206511, Note_on_c, 2, 60, 0
8, 206520, Note_on_c, 2, 58, 76
8, 206571, Note_on_c, 2, 58, 0
8, 206580, Note_on_c, 2, 57, 76
8, 206631, Note_on_c, 2, 57, 0
8, 206640, Note_on_c, 2, 58, 76
8, 206691, Note_on_c, 2, 58, 0
8, 206700, Note_on_c, 2, 55, 76
8, 206751, Note_on_c, 2, 55, 0
8, 206760, Note_on_c, 2, 57, 76
8, 206811, Note_on_c, 2, 57, 0
8, 206820, Note_on_c, 2, 58, 76
8, 206871, Note_on_c, 2, 58, 0
8, 206880, Note_on_c, 2, 57, 76
8, 207111, Note_on_c, 2, 57, 0
8, 207120, Note_on_c, 2, 45, 76
8, 207351, Note_on_c, 2, 45, 0
8, 207360, Note_on_c, 2, 50, 76
8, 207681, Note_on_c, 2, 50, 0
8, 207690, Note_on_c, 2, 52, 76
8, 207719, Note_on_c, 2, 52, 0
8, 207720, Note_on_c, 2, 53, 76
8, 207749, Note_on_c, 2, 53, 0
8, 207750, Note_on_c, 2, 55, 76
8, 207779, Note_on_c, 2, 55, 0
8, 207780, Note_on_c, 2, 57, 76
8, 207809, Note_on_c, 2, 57, 0
8, 207810, Note_on_c, 2, 59, 76
8, 207839, Note_on_c, 2, 59, 0
8, 207840, Note_on_c, 2, 60, 76
8, 207891, Note_on_c, 2, 60, 0
8, 207900, Note_on_c, 2, 59, 76
8, 207951, Note_on_c, 2, 59, 0
8, 207960, Note_on_c, 2, 60, 76
8, 208011, Note_on_c, 2, 60, 0
8, 208020, Note_on_c, 2, 64, 76
8, 208071, Note_on_c, 2, 64, 0
8, 208080, Note_on_c, 2, 62, 76
8, 208131, Note_on_c, 2, 62, 0
8, 208140, Note_on_c, 2, 60, 76
8, 208191, Note_on_c, 2, 60, 0
8, 208200, Note_on_c, 2, 59, 76
8, 208251, Note_on_c, 2, 59, 0
8, 208260, Note_on_c, 2, 60, 76
8, 208311, Note_on_c, 2, 60, 0
8, 208320, Note_on_c, 2, 59, 76
8, 208491, Note_on_c, 2, 59, 0
8, 208500, Note_on_c, 2, 57, 76
8, 208551, Note_on_c, 2, 57, 0
8, 208560, Note_on_c, 2, 59, 76
8, 208731, Note_on_c, 2, 59, 0
8, 208740, Note_on_c, 2, 55, 76
8, 208791, Note_on_c, 2, 55, 0
8, 208800, Note_on_c, 2, 64, 76
8, 209151, Note_on_c, 2, 64, 0
8, 209160, Note_on_c, 2, 64, 76
8, 209271, Note_on_c, 2, 64, 0
8, 209280, Note_on_c, 2, 64, 76
8, 209451, Note_on_c, 2, 64, 0
8, 209460, Note_on_c, 2, 65, 76
8, 209489, Note_on_c, 2, 65, 0
8, 209490, Note_on_c, 2, 64, 76
8, 209519, Note_on_c, 2, 64, 0
8, 209520, Note_on_c, 2, 62, 76
8, 209691, Note_on_c, 2, 62, 0
8, 209700, Note_on_c, 2, 64, 76
8, 209729, Note_on_c, 2, 64, 0
8, 209730, Note_on_c, 2, 60, 76
8, 209759, Note_on_c, 2, 60, 0
8, 209760, Note_on_c, 2, 62, 76
8, 210111, Note_on_c, 2, 62, 0
8, 210120, Note_on_c, 2, 62, 76
8, 210231, Note_on_c, 2, 62, 0
8, 210240, Note_on_c, 2, 62, 76
8, 210531, Note_on_c, 2, 62, 0
8, 210540, Note_on_c, 2, 60, 76
8, 210591, Note_on_c, 2, 60, 0
8, 210600, Note_on_c, 2, 59, 76
8, 210651, Note_on_c, 2, 59, 0
8, 210660, Note_on_c, 2, 60, 76
8, 210711, Note_on_c, 2, 60, 0
8, 210720, Note_on_c, 2, 62, 76
8, 210771, Note_on_c, 2, 62, 0
8, 210780, Note_on_c, 2, 60, 76
8, 210831, Note_on_c, 2, 60, 0
8, 210840, Note_on_c, 2, 62, 76
8, 210891, Note_on_c, 2, 62, 0
8, 210900, Note_on_c, 2, 65, 76
8, 210951, Note_on_c, 2, 65, 0
8, 210960, Note_on_c, 2, 64, 76
8, 211011, Note_on_c, 2, 64, 0
8, 211020, Note_on_c, 2, 62, 76
8, 211071, Note_on_c, 2, 62, 0
8, 211080, Note_on_c, 2, 60, 76
8, 211131, Note_on_c, 2, 60, 0
8, 211140, Note_on_c, 2, 62, 76
8, 211191, Note_on_c, 2, 62, 0
8, 211200, Note_on_c, 2, 59, 76
8, 211214, Note_on_c, 2, 59, 0
8, 211215, Note_on_c, 2, 60, 76
8, 211229, Note_on_c, 2, 60, 0
8, 211230, Note_on_c, 2, 59, 76
8, 211244, Note_on_c, 2, 59, 0
8, 211245, Note_on_c, 2, 60, 76
8, 211259, Note_on_c, 2, 60, 0
8, 211260, Note_on_c, 2, 59, 76
8, 211274, Note_on_c, 2, 59, 0
8, 211275, Note_on_c, 2, 60, 76
8, 211289, Note_on_c, 2, 60, 0
8, 211290, Note_on_c, 2, 59, 76
8, 211304, Note_on_c, 2, 59, 0
8, 211305, Note_on_c, 2, 60, 76
8, 211319, Note_on_c, 2, 60, 0
8, 211320, Note_on_c, 2, 59, 76
8, 211334, Note_on_c, 2, 59, 0
8, 211335, Note_on_c, 2, 60, 76
8, 211349, Note_on_c, 2, 60, 0
8, 211350, Note_on_c, 2, 59, 76
8, 211364, Note_on_c, 2, 59, 0
8, 211365, Note_on_c, 2, 60, 76
8, 211379, Note_on_c, 2, 60, 0
8, 211380, Note_on_c, 2, 59, 76
8, 211394, Note_on_c, 2, 59, 0
8, 211395, Note_on_c, 2, 60, 76
8, 211409, Note_on_c, 2, 60, 0
8, 211410, Note_on_c, 2, 59, 76
8, 211424, Note_on_c, 2, 59, 0
8, 211425, Note_on_c, 2, 60, 76
8, 211439, Note_on_c, 2, 60, 0
8, 211440, Note_on_c, 2, 59, 76
8, 211454, Note_on_c, 2, 59, 0
8, 211455, Note_on_c, 2, 60, 76
8, 211469, Note_on_c, 2, 60, 0
8, 211470, Note_on_c, 2, 59, 76
8, 211484, Note_on_c, 2, 59, 0
8, 211485, Note_on_c, 2, 60, 76
8, 211499, Note_on_c, 2, 60, 0
8, 211500, Note_on_c, 2, 59, 76
8, 211514, Note_on_c, 2, 59, 0
8, 211515, Note_on_c, 2, 60, 76
8, 211529, Note_on_c, 2, 60, 0
8, 211530, Note_on_c, 2, 59, 76
8, 211544, Note_on_c, 2, 59, 0
8, 211545, Note_on_c, 2, 60, 76
8, 211559, Note_on_c, 2, 60, 0
8, 211560, Note_on_c, 2, 59, 76
8, 211574, Note_on_c, 2, 59, 0
8, 211575, Note_on_c, 2, 60, 76
8, 211589, Note_on_c, 2, 60, 0
8, 211590, Note_on_c, 2, 59, 76
8, 211604, Note_on_c, 2, 59, 0
8, 211605, Note_on_c, 2, 60, 76
8, 211619, Note_on_c, 2, 60, 0
8, 211620, Note_on_c, 2, 59, 76
8, 211634, Note_on_c, 2, 59, 0
8, 211635, Note_on_c, 2, 60, 76
8, 211649, Note_on_c, 2, 60, 0
8, 211650, Note_on_c, 2, 57, 76
8, 211664, Note_on_c, 2, 57, 0
8, 211665, Note_on_c, 2, 59, 76
8, 211731, Note_on_c, 2, 59, 0
8, 211740, Note_on_c, 2, 60, 76
8, 211791, Note_on_c, 2, 60, 0
8, 211800, Note_on_c, 2, 59, 76
8, 211851, Note_on_c, 2, 59, 0
8, 211860, Note_on_c, 2, 57, 76
8, 211911, Note_on_c, 2, 57, 0
8, 211920, Note_on_c, 2, 55, 76
8, 211971, Note_on_c, 2, 55, 0
8, 211980, Note_on_c, 2, 53, 76
8, 212031, Note_on_c, 2, 53, 0
8, 212040, Note_on_c, 2, 52, 76
8, 212091, Note_on_c, 2, 52, 0
8, 212100, Note_on_c, 2, 50, 76
8, 212151, Note_on_c, 2, 50, 0
8, 212160, Note_on_c, 2, 48, 76
8, 212691, Note_on_c, 2, 48, 0
8, 212700, Note_on_c, 2, 46, 76
8, 212751, Note_on_c, 2, 46, 0
8, 212760, Note_on_c, 2, 45, 76
8, 212811, Note_on_c, 2, 45, 0
8, 212820, Note_on_c, 2, 46, 76
8, 212871, Note_on_c, 2, 46, 0
8, 212880, Note_on_c, 2, 48, 76
8, 212931, Note_on_c, 2, 48, 0
8, 212940, Note_on_c, 2, 45, 76
8, 212991, Note_on_c, 2, 45, 0
8, 213000, Note_on_c, 2, 46, 76
8, 213051, Note_on_c, 2, 46, 0
8, 213060, Note_on_c, 2, 48, 76
8, 213111, Note_on_c, 2, 48, 0
8, 213120, Note_on_c, 2, 41, 76
8, 213651, Note_on_c, 2, 41, 0
8, 213660, Note_on_c, 2, 40, 76
8, 213711, Note_on_c, 2, 40, 0
8, 213720, Note_on_c, 2, 41, 76
8, 213771, Note_on_c, 2, 41, 0
8, 213780, Note_on_c, 2, 43, 76
8, 213831, Note_on_c, 2, 43, 0
8, 213840, Note_on_c, 2, 45, 76
8, 213891, Note_on_c, 2, 45, 0
8, 213900, Note_on_c, 2, 41, 76
8, 213951, Note_on_c, 2, 41, 0
8, 213960, Note_on_c, 2, 43, 76
8, 214011, Note_on_c, 2, 43, 0
8, 214020, Note_on_c, 2, 45, 76
8, 214071, Note_on_c, 2, 45, 0
8, 214080, Note_on_c, 2, 38, 76
8, 214611, Note_on_c, 2, 38, 0
8, 214620, Note_on_c, 2, 36, 76
8, 214671, Note_on_c, 2, 36, 0
8, 214680, Note_on_c, 2, 38, 76
8, 214731, Note_on_c, 2, 38, 0
8, 214740, Note_on_c, 2, 40, 76
8, 214791, Note_on_c, 2, 40, 0
8, 214800, Note_on_c, 2, 41, 76
8, 214851, Note_on_c, 2, 41, 0
8, 214860, Note_on_c, 2, 40, 76
8, 214911, Note_on_c, 2, 40, 0
8, 214920, Note_on_c, 2, 41, 76
8, 214971, Note_on_c, 2, 41, 0
8, 214980, Note_on_c, 2, 38, 76
8, 215031, Note_on_c, 2, 38, 0
8, 215040, Note_on_c, 2, 43, 76
8, 215211, Note_on_c, 2, 43, 0
8, 215220, Note_on_c, 2, 43, 76
8, 215271, Note_on_c, 2, 43, 0
8, 215280, Note_on_c, 2, 45, 76
8, 215451, Note_on_c, 2, 45, 0
8, 215460, Note_on_c, 2, 47, 76
8, 215511, Note_on_c, 2, 47, 0
8, 215520, Note_on_c, 2, 48, 76
8, 215691, Note_on_c, 2, 48, 0
8, 215700, Note_on_c, 2, 48, 76
8, 215751, Note_on_c, 2, 48, 0
8, 215760, Note_on_c, 2, 50, 76
8, 215931, Note_on_c, 2, 50, 0
8, 215940, Note_on_c, 2, 52, 76
8, 215991, Note_on_c, 2, 52, 0
8, 216000, Note_on_c, 2, 53, 76
8, 216531, Note_on_c, 2, 53, 0
8, 216540, Note_on_c, 2, 55, 76
8, 216591, Note_on_c, 2, 55, 0
8, 216600, Note_on_c, 2, 53, 76
8, 216651, Note_on_c, 2, 53, 0
8, 216660, Note_on_c, 2, 52, 76
8, 216711, Note_on_c, 2, 52, 0
8, 216720, Note_on_c, 2, 50, 76
8, 216771, Note_on_c, 2, 50, 0
8, 216780, Note_on_c, 2, 48, 76
8, 216831, Note_on_c, 2, 48, 0
8, 216840, Note_on_c, 2, 47, 76
8, 216891, Note_on_c, 2, 47, 0
8, 216900, Note_on_c, 2, 45, 76
8, 216951, Note_on_c, 2, 45, 0
8, 216960, Note_on_c, 2, 43, 76
8, 217131, Note_on_c, 2, 43, 0
8, 217140, Note_on_c, 2, 47, 76
8, 217191, Note_on_c, 2, 47, 0
8, 217200, Note_on_c, 2, 48, 76
8, 217371, Note_on_c, 2, 48, 0
8, 217380, Note_on_c, 2, 41, 76
8, 217431, Note_on_c, 2, 41, 0
8, 217440, Note_on_c, 2, 43, 76
8, 217671, Note_on_c, 2, 43, 0
8, 217680, Note_on_c, 2, 43, 76
8, 217911, Note_on_c, 2, 43, 0
8, 217920, Note_on_c, 2, 36, 76
8, 218879, Note_on_c, 2, 36, 0
8, 218879, End_track
9, 0, Start_track
9, 0, Title_t, "Violin I"
9, 0, MIDI_port, 0
9, 0, Program_c, 11, 48
9, 0, Control_c, 11, 10, 48
9, 0, Control_c, 11, 11, 127
9, 0, Control_c, 11, 7, 96
9, 0, Note_on_c, 11, 76, 76
9, 531, Note_on_c, 11, 76, 0
9, 540, Note_on_c, 11, 74, 76
9, 591, Note_on_c, 11, 74, 0
9, 600, Note_on_c, 11, 76, 76
9, 651, Note_on_c, 11, 76, 0
9, 660, Note_on_c, 11, 77, 76
9, 711, Note_on_c, 11, 77, 0
9, 720, Note_on_c, 11, 79, 76
9, 771, Note_on_c, 11, 79, 0
9, 780, Note_on_c, 11, 77, 76
9, 831, Note_on_c, 11, 77, 0
9, 840, Note_on_c, 11, 79, 76
9, 891, Note_on_c, 11, 79, 0
9, 900, Note_on_c, 11, 81, 76
9, 951, Note_on_c, 11, 81, 0
9, 960, Note_on_c, 11, 74, 76
9, 1251, Note_on_c, 11, 74, 0
9, 1260, Note_on_c, 11, 74, 76
9, 1311, Note_on_c, 11, 74, 0
9, 1320, Note_on_c, 11, 76, 76
9, 1371, Note_on_c, 11, 76, 0
9, 1380, Note_on_c, 11, 77, 76
9, 1431, Note_on_c, 11, 77, 0
9, 1440, Note_on_c, 11, 79, 76
9, 1491, Note_on_c, 11, 79, 0
9, 1500, Note_on_c, 11, 77, 76
9, 1551, Note_on_c, 11, 77, 0
9, 1560, Note_on_c, 11, 76, 76
9, 1611, Note_on_c, 11, 76, 0
9, 1620, Note_on_c, 11, 77, 76
9, 1671, Note_on_c, 11, 77, 0
9, 1680, Note_on_c, 11, 79, 76
9, 1731, Note_on_c, 11, 79, 0
9, 1740, Note_on_c, 11, 76, 76
9, 1791, Note_on_c, 11, 76, 0
9, 1800, Note_on_c, 11, 77, 76
9, 1851, Note_on_c, 11, 77, 0
9, 1860, Note_on_c, 11, 79, 76
9, 1911, Note_on_c, 11, 79, 0
9, 1920, Note_on_c, 11, 72, 76
9, 2091, Note_on_c, 11, 72, 0
9, 2100, Note_on_c, 11, 69, 76
9, 2129, Note_on_c, 11, 69, 0
9, 2130, Note_on_c, 11, 71, 76
9, 2159, Note_on_c, 11, 71, 0
9, 2160, Note_on_c, 11, 72, 76
9, 2331, Note_on_c, 11, 72, 0
9, 2340, Note_on_c, 11, 74, 76
9, 2369, Note_on_c, 11, 74, 0
9, 2370, Note_on_c, 11, 76, 76
9, 2399, Note_on_c, 11, 76, 0
9, 2400, Note_on_c, 11, 77, 76
9, 2751, Note_on_c, 11, 77, 0
9, 2760, Note_on_c, 11, 77, 76
9, 2871, Note_on_c, 11, 77, 0
9, 2880, Note_on_c, 11, 77, 76
9, 2931, Note_on_c, 11, 77, 0
9, 2940, Note_on_c, 11, 79, 76
9, 2991, Note_on_c, 11, 79, 0
9, 3000, Note_on_c, 11, 77, 76
9, 3051, Note_on_c, 11, 77, 0
9, 3060, Note_on_c, 11, 76, 76
9, 3111, Note_on_c, 11, 76, 0
9, 3120, Note_on_c, 11, 77, 76
9, 3171, Note_on_c, 11, 77, 0
9, 3180, Note_on_c, 11, 76, 76
9, 3231, Note_on_c, 11, 76, 0
9, 3240, Note_on_c, 11, 74, 76
9, 3291, Note_on_c, 11, 74, 0
9, 3300, Note_on_c, 11, 76, 76
9, 3351, Note_on_c, 11, 76, 0
9, 3360, Note_on_c, 11, 76, 76
9, 3374, Note_on_c, 11, 76, 0
9, 3375, Note_on_c, 11, 77, 76
9, 3389, Note_on_c, 11, 77, 0
9, 3390, Note_on_c, 11, 76, 76
9, 3404, Note_on_c, 11, 76, 0
9, 3405, Note_on_c, 11, 77, 76
9, 3419, Note_on_c, 11, 77, 0
9, 3420, Note_on_c, 11, 76, 76
9, 3434, Note_on_c, 11, 76, 0
9, 3435, Note_on_c, 11, 77, 76
9, 3449, Note_on_c, 11, 77, 0
9, 3450, Note_on_c, 11, 76, 76
9, 3464, Note_on_c, 11, 76, 0
9, 3465, Note_on_c, 11, 77, 76
9, 3479, Note_on_c, 11, 77, 0
9, 3480, Note_on_c, 11, 76, 76
9, 3494, Note_on_c, 11, 76, 0
9, 3495, Note_on_c, 11, 77, 76
9, 3509, Note_on_c, 11, 77, 0
9, 3510, Note_on_c, 11, 76, 76
9, 3524, Note_on_c, 11, 76, 0
9, 3525, Note_on_c, 11, 77, 76
9, 3539, Note_on_c, 11, 77, 0
9, 3540, Note_on_c, 11, 76, 76
9, 3554, Note_on_c, 11, 76, 0
9, 3555, Note_on_c, 11, 77, 76
9, 3569, Note_on_c, 11, 77, 0
9, 3570, Note_on_c, 11, 76, 76
9, 3584, Note_on_c, 11, 76, 0
9, 3585, Note_on_c, 11, 77, 76
9, 3599, Note_on_c, 11, 77, 0
9, 3600, Note_on_c, 11, 76, 76
9, 3614, Note_on_c, 11, 76, 0
9, 3615, Note_on_c, 11, 77, 76
9, 3629, Note_on_c, 11, 77, 0
9, 3630, Note_on_c, 11, 76, 76
9, 3644, Note_on_c, 11, 76, 0
9, 3645, Note_on_c, 11, 77, 76
9, 3659, Note_on_c, 11, 77, 0
9, 3660, Note_on_c, 11, 76, 76
9, 3674, Note_on_c, 11, 76, 0
9, 3675, Note_on_c, 11, 77, 76
9, 3689, Note_on_c, 11, 77, 0
9, 3690, Note_on_c, 11, 74, 76
9, 3704, Note_on_c, 11, 74, 0
9, 3705, Note_on_c, 11, 76, 76
9, 3719, Note_on_c, 11, 76, 0
9, 3720, Note_on_c, 11, 74, 76
9, 3831, Note_on_c, 11, 74, 0
9, 3840, Note_on_c, 11, 74, 76
9, 4011, Note_on_c, 11, 74, 0
9, 4020, Note_on_c, 11, 67, 76
9, 4071, Note_on_c, 11, 67, 0
9, 4080, Note_on_c, 11, 69, 76
9, 4109, Note_on_c, 11, 69, 0
9, 4110, Note_on_c, 11, 71, 76
9, 4139, Note_on_c, 11, 71, 0
9, 4140, Note_on_c, 11, 72, 76
9, 4169, Note_on_c, 11, 72, 0
9, 4170, Note_on_c, 11, 74, 76
9, 4199, Note_on_c, 11, 74, 0
9, 4200, Note_on_c, 11, 76, 76
9, 4229, Note_on_c, 11, 76, 0
9, 4230, Note_on_c, 11, 78, 76
9, 4259, Note_on_c, 11, 78, 0
9, 4260, Note_on_c, 11, 79, 76
9, 4289, Note_on_c, 11, 79, 0
9, 4290, Note_on_c, 11, 81, 76
9, 4319, Note_on_c, 11, 81, 0
9, 4320, Note_on_c, 11, 83, 76
9, 4671, Note_on_c, 11, 83, 0
9, 4680, Note_on_c, 11, 83, 76
9, 4791, Note_on_c, 11, 83, 0
9, 4800, Note_on_c, 11, 83, 76
9, 4971, Note_on_c, 11, 83, 0
9, 4980, Note_on_c, 11, 79, 76
9, 5031, Note_on_c, 11, 79, 0
9, 5040, Note_on_c, 11, 78, 76
9, 5211, Note_on_c, 11, 78, 0
9, 5220, Note_on_c, 11, 76, 76
9, 5271, Note_on_c, 11, 76, 0
9, 5280, Note_on_c, 11, 81, 76
9, 5631, Note_on_c, 11, 81, 0
9, 5640, Note_on_c, 11, 81, 76
9, 5751, Note_on_c, 11, 81, 0
9, 5760, Note_on_c, 11, 81, 76
9, 5931, Note_on_c, 11, 81, 0
9, 5940, Note_on_c, 11, 83, 76
9, 5969, Note_on_c, 11, 83, 0
9, 5970, Note_on_c, 11, 81, 76
9, 5999, Note_on_c, 11, 81, 0
9, 6000, Note_on_c, 11, 79, 76
9, 6171, Note_on_c, 11, 79, 0
9, 6180, Note_on_c, 11, 81, 76
9, 6209, Note_on_c, 11, 81, 0
9, 6210, Note_on_c, 11, 78, 76
9, 6239, Note_on_c, 11, 78, 0
9, 6240, Note_on_c, 11, 79, 76
9, 6591, Note_on_c, 11, 79, 0
9, 6600, Note_on_c, 11, 79, 76
9, 6711, Note_on_c, 11, 79, 0
9, 6720, Note_on_c, 11, 79, 76
9, 7011, Note_on_c, 11, 79, 0
9, 7020, Note_on_c, 11, 78, 76
9, 7071, Note_on_c, 11, 78, 0
9, 7080, Note_on_c, 11, 76, 76
9, 7131, Note_on_c, 11, 76, 0
9, 7140, Note_on_c, 11, 78, 76
9, 7191, Note_on_c, 11, 78, 0
9, 7200, Note_on_c, 11, 79, 76
9, 7251, Note_on_c, 11, 79, 0
9, 7260, Note_on_c, 11, 78, 76
9, 7311, Note_on_c, 11, 78, 0
9, 7320, Note_on_c, 11, 79, 76
9, 7371, Note_on_c, 11, 79, 0
9, 7380, Note_on_c, 11, 83, 76
9, 7431, Note_on_c, 11, 83, 0
9, 7440, Note_on_c, 11, 81, 76
9, 7491, Note_on_c, 11, 81, 0
9, 7500, Note_on_c, 11, 79, 76
9, 7551, Note_on_c, 11, 79, 0
9, 7560, Note_on_c, 11, 78, 76
9, 7611, Note_on_c, 11, 78, 0
9, 7620, Note_on_c, 11, 79, 76
9, 7671, Note_on_c, 11, 79, 0
9, 7680, Note_on_c, 11, 78, 76
9, 7694, Note_on_c, 11, 78, 0
9, 7695, Note_on_c, 11, 79, 76
9, 7709, Note_on_c, 11, 79, 0
9, 7710, Note_on_c, 11, 78, 76
9, 7724, Note_on_c, 11, 78, 0
9, 7725, Note_on_c, 11, 79, 76
9, 7739, Note_on_c, 11, 79, 0
9, 7740, Note_on_c, 11, 78, 76
9, 7754, Note_on_c, 11, 78, 0
9, 7755, Note_on_c, 11, 79, 76
9, 7769, Note_on_c, 11, 79, 0
9, 7770, Note_on_c, 11, 78, 76
9, 7784, Note_on_c, 11, 78, 0
9, 7785, Note_on_c, 11, 79, 76
9, 7799, Note_on_c, 11, 79, 0
9, 7800, Note_on_c, 11, 78, 76
9, 7814, Note_on_c, 11, 78, 0
9, 7815, Note_on_c, 11, 79, 76
9, 7829, Note_on_c, 11, 79, 0
9, 7830, Note_on_c, 11, 76, 76
9, 7844, Note_on_c, 11, 76, 0
9, 7845, Note_on_c, 11, 78, 76
9, 7859, Note_on_c, 11, 78, 0
9, 7860, Note_on_c, 11, 76, 76
9, 7889, Note_on_c, 11, 76, 0
9, 7890, Note_on_c, 11, 74, 76
9, 7919, Note_on_c, 11, 74, 0
9, 7920, Note_on_c, 11, 81, 76
9, 8091, Note_on_c, 11, 81, 0
9, 8100, Note_on_c, 11, 72, 76
9, 8151, Note_on_c, 11, 72, 0
9, 8160, Note_on_c, 11, 71, 76
9, 8331, Note_on_c, 11, 71, 0
9, 8340, Note_on_c, 11, 72, 76
9, 8359, Note_on_c, 11, 72, 0
9, 8360, Note_on_c, 11, 71, 76
9, 8379, Note_on_c, 11, 71, 0
9, 8380, Note_on_c, 11, 72, 76
9, 8399, Note_on_c, 11, 72, 0
9, 8400, Note_on_c, 11, 72, 76
9, 8414, Note_on_c, 11, 72, 0
9, 8415, Note_on_c, 11, 74, 76
9, 8429, Note_on_c, 11, 74, 0
9, 8430, Note_on_c, 11, 72, 76
9, 8444, Note_on_c, 11, 72, 0
9, 8445, Note_on_c, 11, 74, 76
9, 8459, Note_on_c, 11, 74, 0
9, 8460, Note_on_c, 11, 72, 76
9, 8474, Note_on_c, 11, 72, 0
9, 8475, Note_on_c, 11, 74, 76
9, 8489, Note_on_c, 11, 74, 0
9, 8490, Note_on_c, 11, 72, 76
9, 8504, Note_on_c, 11, 72, 0
9, 8505, Note_on_c, 11, 74, 76
9, 8519, Note_on_c, 11, 74, 0
9, 8520, Note_on_c, 11, 72, 76
9, 8534, Note_on_c, 11, 72, 0
9, 8535, Note_on_c, 11, 74, 76
9, 8549, Note_on_c, 11, 74, 0
9, 8550, Note_on_c, 11, 72, 76
9, 8564, Note_on_c, 11, 72, 0
9, 8565, Note_on_c, 11, 74, 76
9, 8579, Note_on_c, 11, 74, 0
9, 8580, Note_on_c, 11, 71, 76
9, 8609, Note_on_c, 11, 71, 0
9, 8610, Note_on_c, 11, 72, 76
9, 8639, Note_on_c, 11, 72, 0
9, 8640, Note_on_c, 11, 74, 76
9, 8811, Note_on_c, 11, 74, 0
9, 8820, Note_on_c, 11, 76, 76
9, 8871, Note_on_c, 11, 76, 0
9, 8880, Note_on_c, 11, 74, 76
9, 8909, Note_on_c, 11, 74, 0
9, 8910, Note_on_c, 11, 72, 76
9, 8939, Note_on_c, 11, 72, 0
9, 8940, Note_on_c, 11, 71, 76
9, 8969, Note_on_c, 11, 71, 0
9, 8970, Note_on_c, 11, 69, 76
9, 8999, Note_on_c, 11, 69, 0
9, 9000, Note_on_c, 11, 67, 76
9, 9029, Note_on_c, 11, 67, 0
9, 9030, Note_on_c, 11, 65, 76
9, 9059, Note_on_c, 11, 65, 0
9, 9075, Note_on_c, 11, 64, 76
9, 9120, Note_on_c, 11, 65, 76
9, 9126, Note_on_c, 11, 64, 0
9, 9471, Note_on_c, 11, 65, 0
9, 9480, Note_on_c, 11, 65, 76
9, 9591, Note_on_c, 11, 65, 0
9, 9600, Note_on_c, 11, 65, 76
9, 9614, Note_on_c, 11, 65, 0
9, 9615, Note_on_c, 11, 67, 76
9, 9629, Note_on_c, 11, 67, 0
9, 9630, Note_on_c, 11, 65, 76
9, 9644, Note_on_c, 11, 65, 0
9, 9645, Note_on_c, 11, 67, 76
9, 9659, Note_on_c, 11, 67, 0
9, 9660, Note_on_c, 11, 65, 76
9, 9674, Note_on_c, 11, 65, 0
9, 9675, Note_on_c, 11, 67, 76
9, 9689, Note_on_c, 11, 67, 0
9, 9690, Note_on_c, 11, 65, 76
9, 9704, Note_on_c, 11, 65, 0
9, 9705, Note_on_c, 11, 67, 76
9, 9719, Note_on_c, 11, 67, 0
9, 9720, Note_on_c, 11, 65, 76
9, 9734, Note_on_c, 11, 65, 0
9, 9735, Note_on_c, 11, 67, 76
9, 9749, Note_on_c, 11, 67, 0
9, 9750, Note_on_c, 11, 64, 76
9, 9764, Note_on_c, 11, 64, 0
9, 9765, Note_on_c, 11, 65, 76
9, 9779, Note_on_c, 11, 65, 0
9, 9780, Note_on_c, 11, 64, 76
9, 9809, Note_on_c, 11, 64, 0
9, 9810, Note_on_c, 11, 62, 76
9, 9839, Note_on_c, 11, 62, 0
9, 9840, Note_on_c, 11, 64, 76
9, 10011, Note_on_c, 11, 64, 0
9, 10020, Note_on_c, 11, 66, 76
9, 10071, Note_on_c, 11, 66, 0
9, 10080, Note_on_c, 11, 67, 76
9, 10431, Note_on_c, 11, 67, 0
9, 10440, Note_on_c, 11, 67, 76
9, 10551, Note_on_c, 11, 67, 0
9, 10560, Note_on_c, 11, 67, 76
9, 10731, Note_on_c, 11, 67, 0
9, 10740, Note_on_c, 11, 66, 76
9, 10769, Note_on_c, 11, 66, 0
9, 10770, Note_on_c, 11, 64, 76
9, 10799, Note_on_c, 11, 64, 0
9, 10800, Note_on_c, 11, 72, 76
9, 10971, Note_on_c, 11, 72, 0
9, 10980, Note_on_c, 11, 71, 76
9, 11009, Note_on_c, 11, 71, 0
9, 11010, Note_on_c, 11, 69, 76
9, 11039, Note_on_c, 11, 69, 0
9, 11040, Note_on_c, 11, 78, 76
9, 11211, Note_on_c, 11, 78, 0
9, 11220, Note_on_c, 11, 76, 76
9, 11249, Note_on_c, 11, 76, 0
9, 11250, Note_on_c, 11, 74, 76
9, 11279, Note_on_c, 11, 74, 0
9, 11280, Note_on_c, 11, 81, 76
9, 11451, Note_on_c, 11, 81, 0
9, 11460, Note_on_c, 11, 72, 76
9, 11511, Note_on_c, 11, 72, 0
9, 11520, Note_on_c, 11, 71, 76
9, 11811, Note_on_c, 11, 71, 0
9, 11820, Note_on_c, 11, 69, 76
9, 11871, Note_on_c, 11, 69, 0
9, 11880, Note_on_c, 11, 67, 76
9, 11931, Note_on_c, 11, 67, 0
9, 11940, Note_on_c, 11, 66, 76
9, 11991, Note_on_c, 11, 66, 0
9, 12000, Note_on_c, 11, 67, 76
9, 12051, Note_on_c, 11, 67, 0
9, 12060, Note_on_c, 11, 62, 76
9, 12111, Note_on_c, 11, 62, 0
9, 12120, Note_on_c, 11, 64, 76
9, 12171, Note_on_c, 11, 64, 0
9, 12180, Note_on_c, 11, 66, 76
9, 12231, Note_on_c, 11, 66, 0
9, 12240, Note_on_c, 11, 67, 76
9, 12291, Note_on_c, 11, 67, 0
9, 12300, Note_on_c, 11, 69, 76
9, 12351, Note_on_c, 11, 69, 0
9, 12360, Note_on_c, 11, 71, 76
9, 12411, Note_on_c, 11, 71, 0
9, 12420, Note_on_c, 11, 72, 76
9, 12471, Note_on_c, 11, 72, 0
9, 12480, Note_on_c, 11, 74, 76
9, 12771, Note_on_c, 11, 74, 0
9, 12780, Note_on_c, 11, 72, 76
9, 12831, Note_on_c, 11, 72, 0
9, 12840, Note_on_c, 11, 74, 76
9, 12891, Note_on_c, 11, 74, 0
9, 12900, Note_on_c, 11, 76, 76
9, 12951, Note_on_c, 11, 76, 0
9, 12960, Note_on_c, 11, 66, 76
9, 12974, Note_on_c, 11, 66, 0
9, 12975, Note_on_c, 11, 67, 76
9, 12989, Note_on_c, 11, 67, 0
9, 12990, Note_on_c, 11, 66, 76
9, 13004, Note_on_c, 11, 66, 0
9, 13005, Note_on_c, 11, 67, 76
9, 13019, Note_on_c, 11, 67, 0
9, 13020, Note_on_c, 11, 66, 76
9, 13034, Note_on_c, 11, 66, 0
9, 13035, Note_on_c, 11, 67, 76
9, 13049, Note_on_c, 11, 67, 0
9, 13050, Note_on_c, 11, 66, 76
9, 13064, Note_on_c, 11, 66, 0
9, 13065, Note_on_c, 11, 67, 76
9, 13079, Note_on_c, 11, 67, 0
9, 13080, Note_on_c, 11, 66, 76
9, 13094, Note_on_c, 11, 66, 0
9, 13095, Note_on_c, 11, 67, 76
9, 13109, Note_on_c, 11, 67, 0
9, 13110, Note_on_c, 11, 66, 76
9, 13124, Note_on_c, 11, 66, 0
9, 13125, Note_on_c, 11, 67, 76
9, 13139, Note_on_c, 11, 67, 0
9, 13140, Note_on_c, 11, 66, 76
9, 13154, Note_on_c, 11, 66, 0
9, 13155, Note_on_c, 11, 67, 76
9, 13169, Note_on_c, 11, 67, 0
9, 13170, Note_on_c, 11, 64, 76
9, 13184, Note_on_c, 11, 64, 0
9, 13185, Note_on_c, 11, 66, 76
9, 13244, Note_on_c, 11, 66, 0
9, 13260, Note_on_c, 11, 67, 76
9, 13311, Note_on_c, 11, 67, 0
9, 13320, Note_on_c, 11, 69, 76
9, 13371, Note_on_c, 11, 69, 0
9, 13380, Note_on_c, 11, 71, 76
9, 13431, Note_on_c, 11, 71, 0
9, 13440, Note_on_c, 11, 72, 76
9, 13611, Note_on_c, 11, 72, 0
9, 13620, Note_on_c, 11, 69, 76
9, 13671, Note_on_c, 11, 69, 0
9, 13680, Note_on_c, 11, 71, 76
9, 13851, Note_on_c, 11, 71, 0
9, 13860, Note_on_c, 11, 72, 76
9, 13911, Note_on_c, 11, 72, 0
9, 13920, Note_on_c, 11, 69, 76
9, 13934, Note_on_c, 11, 69, 0
9, 13935, Note_on_c, 11, 71, 76
9, 13949, Note_on_c, 11, 71, 0
9, 13950, Note_on_c, 11, 69, 76
9, 13964, Note_on_c, 11, 69, 0
9, 13965, Note_on_c, 11, 71, 76
9, 13979, Note_on_c, 11, 71, 0
9, 13980, Note_on_c, 11, 69, 76
9, 13994, Note_on_c, 11, 69, 0
9, 13995, Note_on_c, 11, 71, 76
9, 14009, Note_on_c, 11, 71, 0
9, 14010, Note_on_c, 11, 69, 76
9, 14024, Note_on_c, 11, 69, 0
9, 14025, Note_on_c, 11, 71, 76
9, 14039, Note_on_c, 11, 71, 0
9, 14040, Note_on_c, 11, 69, 76
9, 14054, Note_on_c, 11, 69, 0
9, 14055, Note_on_c, 11, 71, 76
9, 14069, Note_on_c, 11, 71, 0
9, 14070, Note_on_c, 11, 69, 76
9, 14084, Note_on_c, 11, 69, 0
9, 14085, Note_on_c, 11, 71, 76
9, 14099, Note_on_c, 11, 71, 0
9, 14100, Note_on_c, 11, 69, 76
9, 14114, Note_on_c, 11, 69, 0
9, 14115, Note_on_c, 11, 71, 76
9, 14129, Note_on_c, 11, 71, 0
9, 14130, Note_on_c, 11, 69, 76
9, 14144, Note_on_c, 11, 69, 0
9, 14145, Note_on_c, 11, 71, 76
9, 14159, Note_on_c, 11, 71, 0
9, 14160, Note_on_c, 11, 69, 76
9, 14174, Note_on_c, 11, 69, 0
9, 14175, Note_on_c, 11, 71, 76
9, 14189, Note_on_c, 11, 71, 0
9, 14190, Note_on_c, 11, 69, 76
9, 14204, Note_on_c, 11, 69, 0
9, 14205, Note_on_c, 11, 71, 76
9, 14219, Note_on_c, 11, 71, 0
9, 14220, Note_on_c, 11, 69, 76
9, 14234, Note_on_c, 11, 69, 0
9, 14235, Note_on_c, 11, 71, 76
9, 14249, Note_on_c, 11, 71, 0
9, 14250, Note_on_c, 11, 67, 76
9, 14264, Note_on_c, 11, 67, 0
9, 14265, Note_on_c, 11, 69, 76
9, 14279, Note_on_c, 11, 69, 0
9, 14280, Note_on_c, 11, 67, 76
9, 14391, Note_on_c, 11, 67, 0
9, 14400, Note_on_c, 11, 67, 76
9, 15351, Note_on_c, 11, 67, 0
9, 15360, Note_on_c, 11, 76, 76
9, 15891, Note_on_c, 11, 76, 0
9, 15900, Note_on_c, 11, 74, 76
9, 15951, Note_on_c, 11, 74, 0
9, 15960, Note_on_c, 11, 76, 76
9, 16011, Note_on_c, 11, 76, 0
9, 16020, Note_on_c, 11, 77, 76
9, 16071, Note_on_c, 11, 77, 0
9, 16080, Note_on_c, 11, 79, 76
9, 16131, Note_on_c, 11, 79, 0
9, 16140, Note_on_c, 11, 77, 76
9, 16191, Note_on_c, 11, 77, 0
9, 16200, Note_on_c, 11, 79, 76
9, 16251, Note_on_c, 11, 79, 0
9, 16260, Note_on_c, 11, 81, 76
9, 16311, Note_on_c, 11, 81, 0
9, 16320, Note_on_c, 11, 74, 76
9, 16611, Note_on_c, 11, 74, 0
9, 16620, Note_on_c, 11, 74, 76
9, 16671, Note_on_c, 11, 74, 0
9, 16680, Note_on_c, 11, 76, 76
9, 16731, Note_on_c, 11, 76, 0
9, 16740, Note_on_c, 11, 77, 76
9, 16791, Note_on_c, 11, 77, 0
9, 16800, Note_on_c, 11, 79, 76
9, 16851, Note_on_c, 11, 79, 0
9, 16860, Note_on_c, 11, 77, 76
9, 16911, Note_on_c, 11, 77, 0
9, 16920, Note_on_c, 11, 76, 76
9, 16971, Note_on_c, 11, 76, 0
9, 16980, Note_on_c, 11, 77, 76
9, 17031, Note_on_c, 11, 77, 0
9, 17040, Note_on_c, 11, 79, 76
9, 17091, Note_on_c, 11, 79, 0
9, 17100, Note_on_c, 11, 76, 76
9, 17151, Note_on_c, 11, 76, 0
9, 17160, Note_on_c, 11, 77, 76
9, 17211, Note_on_c, 11, 77, 0
9, 17220, Note_on_c, 11, 79, 76
9, 17271, Note_on_c, 11, 79, 0
9, 17280, Note_on_c, 11, 72, 76
9, 17451, Note_on_c, 11, 72, 0
9, 17460, Note_on_c, 11, 69, 76
9, 17489, Note_on_c, 11, 69, 0
9, 17490, Note_on_c, 11, 71, 76
9, 17519, Note_on_c, 11, 71, 0
9, 17520, Note_on_c, 11, 72, 76
9, 17691, Note_on_c, 11, 72, 0
9, 17700, Note_on_c, 11, 74, 76
9, 17729, Note_on_c, 11, 74, 0
9, 17730, Note_on_c, 11, 76, 76
9, 17759, Note_on_c, 11, 76, 0
9, 17760, Note_on_c, 11, 77, 76
9, 18111, Note_on_c, 11, 77, 0
9, 18120, Note_on_c, 11, 77, 76
9, 18231, Note_on_c, 11, 77, 0
9, 18240, Note_on_c, 11, 77, 76
9, 18291, Note_on_c, 11, 77, 0
9, 18300, Note_on_c, 11, 79, 76
9, 18351, Note_on_c, 11, 79, 0
9, 18360, Note_on_c, 11, 77, 76
9, 18411, Note_on_c, 11, 77, 0
9, 18420, Note_on_c, 11, 76, 76
9, 18471, Note_on_c, 11, 76, 0
9, 18480, Note_on_c, 11, 77, 76
9, 18531, Note_on_c, 11, 77, 0
9, 18540, Note_on_c, 11, 76, 76
9, 18591, Note_on_c, 11, 76, 0
9, 18600, Note_on_c, 11, 74, 76
9, 18651, Note_on_c, 11, 74, 0
9, 18660, Note_on_c, 11, 76, 76
9, 18711, Note_on_c, 11, 76, 0
9, 18720, Note_on_c, 11, 76, 76
9, 18734, Note_on_c, 11, 76, 0
9, 18735, Note_on_c, 11, 77, 76
9, 18749, Note_on_c, 11, 77, 0
9, 18750, Note_on_c, 11, 76, 76
9, 18764, Note_on_c, 11, 76, 0
9, 18765, Note_on_c, 11, 77, 76
9, 18779, Note_on_c, 11, 77, 0
9, 18780, Note_on_c, 11, 76, 76
9, 18794, Note_on_c, 11, 76, 0
9, 18795, Note_on_c, 11, 77, 76
9, 18809, Note_on_c, 11, 77, 0
9, 18810, Note_on_c, 11, 76, 76
9, 18824, Note_on_c, 11, 76, 0
9, 18825, Note_on_c, 11, 77, 76
9, 18839, Note_on_c, 11, 77, 0
9, 18840, Note_on_c, 11, 76, 76
9, 18854, Note_on_c, 11, 76, 0
9, 18855, Note_on_c, 11, 77, 76
9, 18869, Note_on_c, 11, 77, 0
9, 18870, Note_on_c, 11, 76, 76
9, 18884, Note_on_c, 11, 76, 0
9, 18885, Note_on_c, 11, 77, 76
9, 18899, Note_on_c, 11, 77, 0
9, 18900, Note_on_c, 11, 76, 76
9, 18914, Note_on_c, 11, 76, 0
9, 18915, Note_on_c, 11, 77, 76
9, 18929, Note_on_c, 11, 77, 0
9, 18930, Note_on_c, 11, 76, 76
9, 18944, Note_on_c, 11, 76, 0
9, 18945, Note_on_c, 11, 77, 76
9, 18959, Note_on_c, 11, 77, 0
9, 18960, Note_on_c, 11, 76, 76
9, 18974, Note_on_c, 11, 76, 0
9, 18975, Note_on_c, 11, 77, 76
9, 18989, Note_on_c, 11, 77, 0
9, 18990, Note_on_c, 11, 76, 76
9, 19004, Note_on_c, 11, 76, 0
9, 19005, Note_on_c, 11, 77, 76
9, 19019, Note_on_c, 11, 77, 0
9, 19020, Note_on_c, 11, 76, 76
9, 19034, Note_on_c, 11, 76, 0
9, 19035, Note_on_c, 11, 77, 76
9, 19049, Note_on_c, 11, 77, 0
9, 19050, Note_on_c, 11, 74, 76
9, 19064, Note_on_c, 11, 74, 0
9, 19065, Note_on_c, 11, 76, 76
9, 19079, Note_on_c, 11, 76, 0
9, 19080, Note_on_c, 11, 74, 76
9, 19191, Note_on_c, 11, 74, 0
9, 19200, Note_on_c, 11, 74, 76
9, 19371, Note_on_c, 11, 74, 0
9, 19380, Note_on_c, 11, 67, 76
9, 19431, Note_on_c, 11, 67, 0
9, 19440, Note_on_c, 11, 69, 76
9, 19469, Note_on_c, 11, 69, 0
9, 19470, Note_on_c, 11, 71, 76
9, 19499, Note_on_c, 11, 71, 0
9, 19500, Note_on_c, 11, 72, 76
9, 19529, Note_on_c, 11, 72, 0
9, 19530, Note_on_c, 11, 74, 76
9, 19559, Note_on_c, 11, 74, 0
9, 19560, Note_on_c, 11, 76, 76
9, 19589, Note_on_c, 11, 76, 0
9, 19590, Note_on_c, 11, 78, 76
9, 19619, Note_on_c, 11, 78, 0
9, 19620, Note_on_c, 11, 79, 76
9, 19649, Note_on_c, 11, 79, 0
9, 19650, Note_on_c, 11, 81, 76
9, 19679, Note_on_c, 11, 81, 0
9, 19680, Note_on_c, 11, 83, 76
9, 20031, Note_on_c, 11, 83, 0
9, 20040, Note_on_c, 11, 83, 76
9, 20151, Note_on_c, 11, 83, 0
9, 20160, Note_on_c, 11, 83, 76
9, 20331, Note_on_c, 11, 83, 0
9, 20340, Note_on_c, 11, 79, 76
9, 20391, Note_on_c, 11, 79, 0
9, 20400, Note_on_c, 11, 78, 76
9, 20571, Note_on_c, 11, 78, 0
9, 20580, Note_on_c, 11, 76, 76
9, 20631, Note_on_c, 11, 76, 0
9, 20640, Note_on_c, 11, 81, 76
9, 20991, Note_on_c, 11, 81, 0
9, 21000, Note_on_c, 11, 81, 76
9, 21111, Note_on_c, 11, 81, 0
9, 21120, Note_on_c, 11, 81, 76
9, 21291, Note_on_c, 11, 81, 0
9, 21300, Note_on_c, 11, 83, 76
9, 21329, Note_on_c, 11, 83, 0
9, 21330, Note_on_c, 11, 81, 76
9, 21359, Note_on_c, 11, 81, 0
9, 21360, Note_on_c, 11, 79, 76
9, 21531, Note_on_c, 11, 79, 0
9, 21540, Note_on_c, 11, 81, 76
9, 21569, Note_on_c, 11, 81, 0
9, 21570, Note_on_c, 11, 78, 76
9, 21599, Note_on_c, 11, 78, 0
9, 21600, Note_on_c, 11, 79, 76
9, 21951, Note_on_c, 11, 79, 0
9, 21960, Note_on_c, 11, 79, 76
9, 22071, Note_on_c, 11, 79, 0
9, 22080, Note_on_c, 11, 79, 76
9, 22371, Note_on_c, 11, 79, 0
9, 22380, Note_on_c, 11, 78, 76
9, 22431, Note_on_c, 11, 78, 0
9, 22440, Note_on_c, 11, 76, 76
9, 22491, Note_on_c, 11, 76, 0
9, 22500, Note_on_c, 11, 78, 76
9, 22551, Note_on_c, 11, 78, 0
9, 22560, Note_on_c, 11, 79, 76
9, 22611, Note_on_c, 11, 79, 0
9, 22620, Note_on_c, 11, 78, 76
9, 22671, Note_on_c, 11, 78, 0
9, 22680, Note_on_c, 11, 79, 76
9, 22731, Note_on_c, 11, 79, 0
9, 22740, Note_on_c, 11, 83, 76
9, 22791, Note_on_c, 11, 83, 0
9, 22800, Note_on_c, 11, 81, 76
9, 22851, Note_on_c, 11, 81, 0
9, 22860, Note_on_c, 11, 79, 76
9, 22911, Note_on_c, 11, 79, 0
9, 22920, Note_on_c, 11, 78, 76
9, 22971, Note_on_c, 11, 78, 0
9, 22980, Note_on_c, 11, 79, 76
9, 23031, Note_on_c, 11, 79, 0
9, 23040, Note_on_c, 11, 78, 76
9, 23054, Note_on_c, 11, 78, 0
9, 23055, Note_on_c, 11, 79, 76
9, 23069, Note_on_c, 11, 79, 0
9, 23070, Note_on_c, 11, 78, 76
9, 23084, Note_on_c, 11, 78, 0
9, 23085, Note_on_c, 11, 79, 76
9, 23099, Note_on_c, 11, 79, 0
9, 23100, Note_on_c, 11, 78, 76
9, 23114, Note_on_c, 11, 78, 0
9, 23115, Note_on_c, 11, 79, 76
9, 23129, Note_on_c, 11, 79, 0
9, 23130, Note_on_c, 11, 78, 76
9, 23144, Note_on_c, 11, 78, 0
9, 23145, Note_on_c, 11, 79, 76
9, 23159, Note_on_c, 11, 79, 0
9, 23160, Note_on_c, 11, 78, 76
9, 23174, Note_on_c, 11, 78, 0
9, 23175, Note_on_c, 11, 79, 76
9, 23189, Note_on_c, 11, 79, 0
9, 23190, Note_on_c, 11, 76, 76
9, 23204, Note_on_c, 11, 76, 0
9, 23205, Note_on_c, 11, 78, 76
9, 23219, Note_on_c, 11, 78, 0
9, 23220, Note_on_c, 11, 76, 76
9, 23249, Note_on_c, 11, 76, 0
9, 23250, Note_on_c, 11, 74, 76
9, 23279, Note_on_c, 11, 74, 0
9, 23280, Note_on_c, 11, 81, 76
9, 23451, Note_on_c, 11, 81, 0
9, 23460, Note_on_c, 11, 72, 76
9, 23511, Note_on_c, 11, 72, 0
9, 23520, Note_on_c, 11, 71, 76
9, 23691, Note_on_c, 11, 71, 0
9, 23700, Note_on_c, 11, 72, 76
9, 23719, Note_on_c, 11, 72, 0
9, 23720, Note_on_c, 11, 71, 76
9, 23739, Note_on_c, 11, 71, 0
9, 23740, Note_on_c, 11, 72, 76
9, 23759, Note_on_c, 11, 72, 0
9, 23760, Note_on_c, 11, 72, 76
9, 23774, Note_on_c, 11, 72, 0
9, 23775, Note_on_c, 11, 74, 76
9, 23789, Note_on_c, 11, 74, 0
9, 23790, Note_on_c, 11, 72, 76
9, 23804, Note_on_c, 11, 72, 0
9, 23805, Note_on_c, 11, 74, 76
9, 23819, Note_on_c, 11, 74, 0
9, 23820, Note_on_c, 11, 72, 76
9, 23834, Note_on_c, 11, 72, 0
9, 23835, Note_on_c, 11, 74, 76
9, 23849, Note_on_c, 11, 74, 0
9, 23850, Note_on_c, 11, 72, 76
9, 23864, Note_on_c, 11, 72, 0
9, 23865, Note_on_c, 11, 74, 76
9, 23879, Note_on_c, 11, 74, 0
9, 23880, Note_on_c, 11, 72, 76
9, 23894, Note_on_c, 11, 72, 0
9, 23895, Note_on_c, 11, 74, 76
9, 23909, Note_on_c, 11, 74, 0
9, 23910, Note_on_c, 11, 72, 76
9, 23924, Note_on_c, 11, 72, 0
9, 23925, Note_on_c, 11, 74, 76
9, 23939, Note_on_c, 11, 74, 0
9, 23940, Note_on_c, 11, 71, 76
9, 23969, Note_on_c, 11, 71, 0
9, 23970, Note_on_c, 11, 72, 76
9, 23999, Note_on_c, 11, 72, 0
9, 24000, Note_on_c, 11, 74, 76
9, 24171, Note_on_c, 11, 74, 0
9, 24180, Note_on_c, 11, 76, 76
9, 24231, Note_on_c, 11, 76, 0
9, 24240, Note_on_c, 11, 74, 76
9, 24269, Note_on_c, 11, 74, 0
9, 24270, Note_on_c, 11, 72, 76
9, 24299, Note_on_c, 11, 72, 0
9, 24300, Note_on_c, 11, 71, 76
9, 24329, Note_on_c, 11, 71, 0
9, 24330, Note_on_c, 11, 69, 76
9, 24359, Note_on_c, 11, 69, 0
9, 24360, Note_on_c, 11, 67, 76
9, 24389, Note_on_c, 11, 67, 0
9, 24390, Note_on_c, 11, 65, 76
9, 24419, Note_on_c, 11, 65, 0
9, 24435, Note_on_c, 11, 64, 76
9, 24480, Note_on_c, 11, 65, 76
9, 24486, Note_on_c, 11, 64, 0
9, 24831, Note_on_c, 11, 65, 0
9, 24840, Note_on_c, 11, 65, 76
9, 24951, Note_on_c, 11, 65, 0
9, 24960, Note_on_c, 11, 65, 76
9, 24974, Note_on_c, 11, 65, 0
9, 24975, Note_on_c, 11, 67, 76
9, 24989, Note_on_c, 11, 67, 0
9, 24990, Note_on_c, 11, 65, 76
9, 25004, Note_on_c, 11, 65, 0
9, 25005, Note_on_c, 11, 67, 76
9, 25019, Note_on_c, 11, 67, 0
9, 25020, Note_on_c, 11, 65, 76
9, 25034, Note_on_c, 11, 65, 0
9, 25035, Note_on_c, 11, 67, 76
9, 25049, Note_on_c, 11, 67, 0
9, 25050, Note_on_c, 11, 65, 76
9, 25064, Note_on_c, 11, 65, 0
9, 25065, Note_on_c, 11, 67, 76
9, 25079, Note_on_c, 11, 67, 0
9, 25080, Note_on_c, 11, 65, 76
9, 25094, Note_on_c, 11, 65, 0
9, 25095, Note_on_c, 11, 67, 76
9, 25109, Note_on_c, 11, 67, 0
9, 25110, Note_on_c, 11, 64, 76
9, 25124, Note_on_c, 11, 64, 0
9, 25125, Note_on_c, 11, 65, 76
9, 25139, Note_on_c, 11, 65, 0
9, 25140, Note_on_c, 11, 64, 76
9, 25169, Note_on_c, 11, 64, 0
9, 25170, Note_on_c, 11, 62, 76
9, 25199, Note_on_c, 11, 62, 0
9, 25200, Note_on_c, 11, 64, 76
9, 25371, Note_on_c, 11, 64, 0
9, 25380, Note_on_c, 11, 66, 76
9, 25431, Note_on_c, 11, 66, 0
9, 25440, Note_on_c, 11, 67, 76
9, 25791, Note_on_c, 11, 67, 0
9, 25800, Note_on_c, 11, 67, 76
9, 25911, Note_on_c, 11, 67, 0
9, 25920, Note_on_c, 11, 67, 76
9, 26091, Note_on_c, 11, 67, 0
9, 26100, Note_on_c, 11, 66, 76
9, 26129, Note_on_c, 11, 66, 0
9, 26130, Note_on_c, 11, 64, 76
9, 26159, Note_on_c, 11, 64, 0
9, 26160, Note_on_c, 11, 72, 76
9, 26331, Note_on_c, 11, 72, 0
9, 26340, Note_on_c, 11, 71, 76
9, 26369, Note_on_c, 11, 71, 0
9, 26370, Note_on_c, 11, 69, 76
9, 26399, Note_on_c, 11, 69, 0
9, 26400, Note_on_c, 11, 78, 76
9, 26571, Note_on_c, 11, 78, 0
9, 26580, Note_on_c, 11, 76, 76
9, 26609, Note_on_c, 11, 76, 0
9, 26610, Note_on_c, 11, 74, 76
9, 26639, Note_on_c, 11, 74, 0
9, 26640, Note_on_c, 11, 81, 76
9, 26811, Note_on_c, 11, 81, 0
9, 26820, Note_on_c, 11, 72, 76
9, 26871, Note_on_c, 11, 72, 0
9, 26880, Note_on_c, 11, 71, 76
9, 27171, Note_on_c, 11, 71, 0
9, 27180, Note_on_c, 11, 69, 76
9, 27231, Note_on_c, 11, 69, 0
9, 27240, Note_on_c, 11, 67, 76
9, 27291, Note_on_c, 11, 67, 0
9, 27300, Note_on_c, 11, 66, 76
9, 27351, Note_on_c, 11, 66, 0
9, 27360, Note_on_c, 11, 67, 76
9, 27411, Note_on_c, 11, 67, 0
9, 27420, Note_on_c, 11, 62, 76
9, 27471, Note_on_c, 11, 62, 0
9, 27480, Note_on_c, 11, 64, 76
9, 27531, Note_on_c, 11, 64, 0
9, 27540, Note_on_c, 11, 66, 76
9, 27591, Note_on_c, 11, 66, 0
9, 27600, Note_on_c, 11, 67, 76
9, 27651, Note_on_c, 11, 67, 0
9, 27660, Note_on_c, 11, 69, 76
9, 27711, Note_on_c, 11, 69, 0
9, 27720, Note_on_c, 11, 71, 76
9, 27771, Note_on_c, 11, 71, 0
9, 27780, Note_on_c, 11, 72, 76
9, 27831, Note_on_c, 11, 72, 0
9, 27840, Note_on_c, 11, 74, 76
9, 28131, Note_on_c, 11, 74, 0
9, 28140, Note_on_c, 11, 72, 76
9, 28191, Note_on_c, 11, 72, 0
9, 28200, Note_on_c, 11, 74, 76
9, 28251, Note_on_c, 11, 74, 0
9, 28260, Note_on_c, 11, 76, 76
9, 28311, Note_on_c, 11, 76, 0
9, 28320, Note_on_c, 11, 66, 76
9, 28334, Note_on_c, 11, 66, 0
9, 28335, Note_on_c, 11, 67, 76
9, 28349, Note_on_c, 11, 67, 0
9, 28350, Note_on_c, 11, 66, 76
9, 28364, Note_on_c, 11, 66, 0
9, 28365, Note_on_c, 11, 67, 76
9, 28379, Note_on_c, 11, 67, 0
9, 28380, Note_on_c, 11, 66, 76
9, 28394, Note_on_c, 11, 66, 0
9, 28395, Note_on_c, 11, 67, 76
9, 28409, Note_on_c, 11, 67, 0
9, 28410, Note_on_c, 11, 66, 76
9, 28424, Note_on_c, 11, 66, 0
9, 28425, Note_on_c, 11, 67, 76
9, 28439, Note_on_c, 11, 67, 0
9, 28440, Note_on_c, 11, 66, 76
9, 28454, Note_on_c, 11, 66, 0
9, 28455, Note_on_c, 11, 67, 76
9, 28469, Note_on_c, 11, 67, 0
9, 28470, Note_on_c, 11, 66, 76
9, 28484, Note_on_c, 11, 66, 0
9, 28485, Note_on_c, 11, 67, 76
9, 28499, Note_on_c, 11, 67, 0
9, 28500, Note_on_c, 11, 66, 76
9, 28514, Note_on_c, 11, 66, 0
9, 28515, Note_on_c, 11, 67, 76
9, 28529, Note_on_c, 11, 67, 0
9, 28530, Note_on_c, 11, 64, 76
9, 28544, Note_on_c, 11, 64, 0
9, 28545, Note_on_c, 11, 66, 76
9, 28604, Note_on_c, 11, 66, 0
9, 28620, Note_on_c, 11, 67, 76
9, 28671, Note_on_c, 11, 67, 0
9, 28680, Note_on_c, 11, 69, 76
9, 28731, Note_on_c, 11, 69, 0
9, 28740, Note_on_c, 11, 71, 76
9, 28791, Note_on_c, 11, 71, 0
9, 28800, Note_on_c, 11, 72, 76
9, 28971, Note_on_c, 11, 72, 0
9, 28980, Note_on_c, 11, 69, 76
9, 29031, Note_on_c, 11, 69, 0
9, 29040, Note_on_c, 11, 71, 76
9, 29211, Note_on_c, 11, 71, 0
9, 29220, Note_on_c, 11, 72, 76
9, 29271, Note_on_c, 11, 72, 0
9, 29280, Note_on_c, 11, 69, 76
9, 29294, Note_on_c, 11, 69, 0
9, 29295, Note_on_c, 11, 71, 76
9, 29309, Note_on_c, 11, 71, 0
9, 29310, Note_on_c, 11, 69, 76
9, 29324, Note_on_c, 11, 69, 0
9, 29325, Note_on_c, 11, 71, 76
9, 29339, Note_on_c, 11, 71, 0
9, 29340, Note_on_c, 11, 69, 76
9, 29354, Note_on_c, 11, 69, 0
9, 29355, Note_on_c, 11, 71, 76
9, 29369, Note_on_c, 11, 71, 0
9, 29370, Note_on_c, 11, 69, 76
9, 29384, Note_on_c, 11, 69, 0
9, 29385, Note_on_c, 11, 71, 76
9, 29399, Note_on_c, 11, 71, 0
9, 29400, Note_on_c, 11, 69, 76
9, 29414, Note_on_c, 11, 69, 0
9, 29415, Note_on_c, 11, 71, 76
9, 29429, Note_on_c, 11, 71, 0
9, 29430, Note_on_c, 11, 69, 76
9, 29444, Note_on_c, 11, 69, 0
9, 29445, Note_on_c, 11, 71, 76
9, 29459, Note_on_c, 11, 71, 0
9, 29460, Note_on_c, 11, 69, 76
9, 29474, Note_on_c, 11, 69, 0
9, 29475, Note_on_c, 11, 71, 76
9, 29489, Note_on_c, 11, 71, 0
9, 29490, Note_on_c, 11, 69, 76
9, 29504, Note_on_c, 11, 69, 0
9, 29505, Note_on_c, 11, 71, 76
9, 29519, Note_on_c, 11, 71, 0
9, 29520, Note_on_c, 11, 69, 76
9, 29534, Note_on_c, 11, 69, 0
9, 29535, Note_on_c, 11, 71, 76
9, 29549, Note_on_c, 11, 71, 0
9, 29550, Note_on_c, 11, 69, 76
9, 29564, Note_on_c, 11, 69, 0
9, 29565, Note_on_c, 11, 71, 76
9, 29579, Note_on_c, 11, 71, 0
9, 29580, Note_on_c, 11, 69, 76
9, 29594, Note_on_c, 11, 69, 0
9, 29595, Note_on_c, 11, 71, 76
9, 29609, Note_on_c, 11, 71, 0
9, 29610, Note_on_c, 11, 67, 76
9, 29624, Note_on_c, 11, 67, 0
9, 29625, Note_on_c, 11, 69, 76
9, 29639, Note_on_c, 11, 69, 0
9, 29640, Note_on_c, 11, 67, 76
9, 29751, Note_on_c, 11, 67, 0
9, 29760, Note_on_c, 11, 67, 76
9, 29864, Note_on_c, 11, 67, 0
9, 29880, Note_on_c, 11, 79, 76
9, 29984, Note_on_c, 11, 79, 0
9, 30000, Note_on_c, 11, 79, 76
9, 30104, Note_on_c, 11, 79, 0
9, 30120, Note_on_c, 11, 79, 76
9, 30224, Note_on_c, 11, 79, 0
9, 30240, Note_on_c, 11, 76, 76
9, 30344, Note_on_c, 11, 76, 0
9, 30360, Note_on_c, 11, 77, 76
9, 30404, Note_on_c, 11, 77, 0
9, 30420, Note_on_c, 11, 79, 76
9, 30464, Note_on_c, 11, 79, 0
9, 30480, Note_on_c, 11, 81, 76
9, 30584, Note_on_c, 11, 81, 0
9, 30600, Note_on_c, 11, 77, 76
9, 30704, Note_on_c, 11, 77, 0
9, 30720, Note_on_c, 11, 74, 76
9, 30824, Note_on_c, 11, 74, 0
9, 30840, Note_on_c, 11, 79, 76
9, 30944, Note_on_c, 11, 79, 0
9, 30960, Note_on_c, 11, 67, 76
9, 31064, Note_on_c, 11, 67, 0
9, 31080, Note_on_c, 11, 77, 76
9, 31184, Note_on_c, 11, 77, 0
9, 31200, Note_on_c, 11, 76, 76
9, 31244, Note_on_c, 11, 76, 0
9, 31260, Note_on_c, 11, 74, 76
9, 31304, Note_on_c, 11, 74, 0
9, 31320, Note_on_c, 11, 72, 76
9, 31364, Note_on_c, 11, 72, 0
9, 31380, Note_on_c, 11, 74, 76
9, 31424, Note_on_c, 11, 74, 0
9, 31440, Note_on_c, 11, 76, 76
9, 31484, Note_on_c, 11, 76, 0
9, 31500, Note_on_c, 11, 74, 76
9, 31544, Note_on_c, 11, 74, 0
9, 31560, Note_on_c, 11, 76, 76
9, 31604, Note_on_c, 11, 76, 0
9, 31620, Note_on_c, 11, 78, 76
9, 31664, Note_on_c, 11, 78, 0
9, 31680, Note_on_c, 11, 79, 76
9, 31844, Note_on_c, 11, 79, 0
9, 31860, Note_on_c, 11, 74, 76
9, 31904, Note_on_c, 11, 74, 0
9, 31920, Note_on_c, 11, 79, 76
9, 32084, Note_on_c, 11, 79, 0
9, 32100, Note_on_c, 11, 79, 76
9, 32144, Note_on_c, 11, 79, 0
9, 32160, Note_on_c, 11, 79, 76
9, 32324, Note_on_c, 11, 79, 0
9, 32340, Note_on_c, 11, 78, 76
9, 32359, Note_on_c, 11, 78, 0
9, 32360, Note_on_c, 11, 76, 76
9, 32379, Note_on_c, 11, 76, 0
9, 32380, Note_on_c, 11, 78, 76
9, 32399, Note_on_c, 11, 78, 0
9, 32400, Note_on_c, 11, 78, 76
9, 32429, Note_on_c, 11, 78, 0
9, 32430, Note_on_c, 11, 79, 76
9, 32459, Note_on_c, 11, 79, 0
9, 32460, Note_on_c, 11, 78, 76
9, 32489, Note_on_c, 11, 78, 0
9, 32490, Note_on_c, 11, 79, 76
9, 32519, Note_on_c, 11, 79, 0
9, 32520, Note_on_c, 11, 76, 76
9, 32549, Note_on_c, 11, 76, 0
9, 32550, Note_on_c, 11, 78, 76
9, 32579, Note_on_c, 11, 78, 0
9, 32580, Note_on_c, 11, 79, 76
9, 32624, Note_on_c, 11, 79, 0
9, 32640, Note_on_c, 11, 79, 76
9, 32744, Note_on_c, 11, 79, 0
9, 32760, Note_on_c, 11, 77, 76
9, 32804, Note_on_c, 11, 77, 0
9, 32820, Note_on_c, 11, 76, 76
9, 32864, Note_on_c, 11, 76, 0
9, 32880, Note_on_c, 11, 74, 76
9, 32924, Note_on_c, 11, 74, 0
9, 32940, Note_on_c, 11, 71, 76
9, 32984, Note_on_c, 11, 71, 0
9, 33000, Note_on_c, 11, 72, 76
9, 33044, Note_on_c, 11, 72, 0
9, 33060, Note_on_c, 11, 74, 76
9, 33104, Note_on_c, 11, 74, 0
9, 33120, Note_on_c, 11, 67, 76
9, 33224, Note_on_c, 11, 67, 0
9, 33240, Note_on_c, 11, 79, 76
9, 33344, Note_on_c, 11, 79, 0
9, 33360, Note_on_c, 11, 76, 76
9, 33464, Note_on_c, 11, 76, 0
9, 33480, Note_on_c, 11, 81, 76
9, 33584, Note_on_c, 11, 81, 0
9, 33600, Note_on_c, 11, 77, 76
9, 33644, Note_on_c, 11, 77, 0
9, 33660, Note_on_c, 11, 79, 76
9, 33704, Note_on_c, 11, 79, 0
9, 33720, Note_on_c, 11, 77, 76
9, 33764, Note_on_c, 11, 77, 0
9, 33780, Note_on_c, 11, 76, 76
9, 33824, Note_on_c, 11, 76, 0
9, 33840, Note_on_c, 11, 74, 76
9, 33884, Note_on_c, 11, 74, 0
9, 33900, Note_on_c, 11, 77, 76
9, 33944, Note_on_c, 11, 77, 0
9, 33960, Note_on_c, 11, 76, 76
9, 34004, Note_on_c, 11, 76, 0
9, 34020, Note_on_c, 11, 74, 76
9, 34064, Note_on_c, 11, 74, 0
9, 34080, Note_on_c, 11, 79, 76
9, 34124, Note_on_c, 11, 79, 0
9, 34140, Note_on_c, 11, 77, 76
9, 34184, Note_on_c, 11, 77, 0
9, 34200, Note_on_c, 11, 76, 76
9, 34244, Note_on_c, 11, 76, 0
9, 34260, Note_on_c, 11, 74, 76
9, 34304, Note_on_c, 11, 74, 0
9, 34320, Note_on_c, 11, 72, 76
9, 34364, Note_on_c, 11, 72, 0
9, 34380, Note_on_c, 11, 71, 76
9, 34424, Note_on_c, 11, 71, 0
9, 34440, Note_on_c, 11, 72, 76
9, 34484, Note_on_c, 11, 72, 0
9, 34500, Note_on_c, 11, 69, 76
9, 34544, Note_on_c, 11, 69, 0
9, 34560, Note_on_c, 11, 74, 76
9, 34664, Note_on_c, 11, 74, 0
9, 34680, Note_on_c, 11, 76, 76
9, 34724, Note_on_c, 11, 76, 0
9, 34740, Note_on_c, 11, 78, 76
9, 34784, Note_on_c, 11, 78, 0
9, 34800, Note_on_c, 11, 79, 76
9, 34904, Note_on_c, 11, 79, 0
9, 34920, Note_on_c, 11, 81, 76
9, 34964, Note_on_c, 11, 81, 0
9, 34980, Note_on_c, 11, 83, 76
9, 35024, Note_on_c, 11, 83, 0
9, 35040, Note_on_c, 11, 84, 76
9, 35204, Note_on_c, 11, 84, 0
9, 35220, Note_on_c, 11, 83, 76
9, 35264, Note_on_c, 11, 83, 0
9, 35280, Note_on_c, 11, 81, 76
9, 35309, Note_on_c, 11, 81, 0
9, 35310, Note_on_c, 11, 83, 76
9, 35339, Note_on_c, 11, 83, 0
9, 35340, Note_on_c, 11, 81, 76
9, 35369, Note_on_c, 11, 81, 0
9, 35370, Note_on_c, 11, 83, 76
9, 35399, Note_on_c, 11, 83, 0
9, 35400, Note_on_c, 11, 79, 76
9, 35429, Note_on_c, 11, 79, 0
9, 35430, Note_on_c, 11, 81, 76
9, 35459, Note_on_c, 11, 81, 0
9, 35460, Note_on_c, 11, 79, 76
9, 35504, Note_on_c, 11, 79, 0
9, 35520, Note_on_c, 11, 79, 76
9, 35624, Note_on_c, 11, 79, 0
9, 35640, Note_on_c, 11, 77, 76
9, 35684, Note_on_c, 11, 77, 0
9, 35700, Note_on_c, 11, 76, 76
9, 35744, Note_on_c, 11, 76, 0
9, 35760, Note_on_c, 11, 74, 76
9, 35804, Note_on_c, 11, 74, 0
9, 35820, Note_on_c, 11, 76, 76
9, 35864, Note_on_c, 11, 76, 0
9, 35880, Note_on_c, 11, 77, 76
9, 35924, Note_on_c, 11, 77, 0
9, 35940, Note_on_c, 11, 74, 76
9, 35984, Note_on_c, 11, 74, 0
9, 36000, Note_on_c, 11, 76, 76
9, 36044, Note_on_c, 11, 76, 0
9, 36060, Note_on_c, 11, 79, 76
9, 36104, Note_on_c, 11, 79, 0
9, 36120, Note_on_c, 11, 77, 76
9, 36164, Note_on_c, 11, 77, 0
9, 36180, Note_on_c, 11, 79, 76
9, 36224, Note_on_c, 11, 79, 0
9, 36240, Note_on_c, 11, 81, 76
9, 36284, Note_on_c, 11, 81, 0
9, 36300, Note_on_c, 11, 79, 76
9, 36344, Note_on_c, 11, 79, 0
9, 36360, Note_on_c, 11, 77, 76
9, 36404, Note_on_c, 11, 77, 0
9, 36420, Note_on_c, 11, 76, 76
9, 36464, Note_on_c, 11, 76, 0
9, 36480, Note_on_c, 11, 74, 76
9, 36524, Note_on_c, 11, 74, 0
9, 36540, Note_on_c, 11, 77, 76
9, 36584, Note_on_c, 11, 77, 0
9, 36600, Note_on_c, 11, 76, 76
9, 36644, Note_on_c, 11, 76, 0
9, 36660, Note_on_c, 11, 77, 76
9, 36704, Note_on_c, 11, 77, 0
9, 36720, Note_on_c, 11, 79, 76
9, 36764, Note_on_c, 11, 79, 0
9, 36780, Note_on_c, 11, 77, 76
9, 36824, Note_on_c, 11, 77, 0
9, 36840, Note_on_c, 11, 76, 76
9, 36884, Note_on_c, 11, 76, 0
9, 36900, Note_on_c, 11, 74, 76
9, 36944, Note_on_c, 11, 74, 0
9, 36960, Note_on_c, 11, 72, 76
9, 37004, Note_on_c, 11, 72, 0
9, 37020, Note_on_c, 11, 76, 76
9, 37064, Note_on_c, 11, 76, 0
9, 37080, Note_on_c, 11, 74, 76
9, 37124, Note_on_c, 11, 74, 0
9, 37140, Note_on_c, 11, 76, 76
9, 37184, Note_on_c, 11, 76, 0
9, 37200, Note_on_c, 11, 77, 76
9, 37244, Note_on_c, 11, 77, 0
9, 37260, Note_on_c, 11, 76, 76
9, 37304, Note_on_c, 11, 76, 0
9, 37320, Note_on_c, 11, 74, 76
9, 37364, Note_on_c, 11, 74, 0
9, 37380, Note_on_c, 11, 72, 76
9, 37424, Note_on_c, 11, 72, 0
9, 37440, Note_on_c, 11, 71, 76
9, 37484, Note_on_c, 11, 71, 0
9, 37500, Note_on_c, 11, 74, 76
9, 37544, Note_on_c, 11, 74, 0
9, 37560, Note_on_c, 11, 72, 76
9, 37604, Note_on_c, 11, 72, 0
9, 37620, Note_on_c, 11, 74, 76
9, 37664, Note_on_c, 11, 74, 0
9, 37680, Note_on_c, 11, 76, 76
9, 37724, Note_on_c, 11, 76, 0
9, 37740, Note_on_c, 11, 74, 76
9, 37784, Note_on_c, 11, 74, 0
9, 37800, Note_on_c, 11, 72, 76
9, 37844, Note_on_c, 11, 72, 0
9, 37860, Note_on_c, 11, 71, 76
9, 37904, Note_on_c, 11, 71, 0
9, 37920, Note_on_c, 11, 69, 76
9, 37964, Note_on_c, 11, 69, 0
9, 37980, Note_on_c, 11, 72, 76
9, 38024, Note_on_c, 11, 72, 0
9, 38040, Note_on_c, 11, 71, 76
9, 38084, Note_on_c, 11, 71, 0
9, 38100, Note_on_c, 11, 72, 76
9, 38144, Note_on_c, 11, 72, 0
9, 38160, Note_on_c, 11, 74, 76
9, 38204, Note_on_c, 11, 74, 0
9, 38220, Note_on_c, 11, 72, 76
9, 38264, Note_on_c, 11, 72, 0
9, 38280, Note_on_c, 11, 71, 76
9, 38324, Note_on_c, 11, 71, 0
9, 38340, Note_on_c, 11, 69, 76
9, 38384, Note_on_c, 11, 69, 0
9, 38400, Note_on_c, 11, 71, 76
9, 38504, Note_on_c, 11, 71, 0
9, 38520, Note_on_c, 11, 79, 76
9, 38624, Note_on_c, 11, 79, 0
9, 38640, Note_on_c, 11, 79, 76
9, 38744, Note_on_c, 11, 79, 0
9, 38760, Note_on_c, 11, 79, 76
9, 38864, Note_on_c, 11, 79, 0
9, 38880, Note_on_c, 11, 76, 76
9, 38984, Note_on_c, 11, 76, 0
9, 39000, Note_on_c, 11, 77, 76
9, 39044, Note_on_c, 11, 77, 0
9, 39060, Note_on_c, 11, 79, 76
9, 39104, Note_on_c, 11, 79, 0
9, 39120, Note_on_c, 11, 81, 76
9, 39224, Note_on_c, 11, 81, 0
9, 39240, Note_on_c, 11, 77, 76
9, 39344, Note_on_c, 11, 77, 0
9, 39360, Note_on_c, 11, 74, 76
9, 39464, Note_on_c, 11, 74, 0
9, 39480, Note_on_c, 11, 79, 76
9, 39584, Note_on_c, 11, 79, 0
9, 39600, Note_on_c, 11, 67, 76
9, 39704, Note_on_c, 11, 67, 0
9, 39720, Note_on_c, 11, 77, 76
9, 39824, Note_on_c, 11, 77, 0
9, 39840, Note_on_c, 11, 76, 76
9, 40004, Note_on_c, 11, 76, 0
9, 40020, Note_on_c, 11, 74, 76
9, 40064, Note_on_c, 11, 74, 0
9, 40080, Note_on_c, 11, 74, 76
9, 40109, Note_on_c, 11, 74, 0
9, 40110, Note_on_c, 11, 76, 76
9, 40139, Note_on_c, 11, 76, 0
9, 40140, Note_on_c, 11, 74, 76
9, 40169, Note_on_c, 11, 74, 0
9, 40170, Note_on_c, 11, 76, 76
9, 40199, Note_on_c, 11, 76, 0
9, 40200, Note_on_c, 11, 72, 76
9, 40229, Note_on_c, 11, 72, 0
9, 40230, Note_on_c, 11, 74, 76
9, 40259, Note_on_c, 11, 74, 0
9, 40260, Note_on_c, 11, 72, 76
9, 40304, Note_on_c, 11, 72, 0
9, 40320, Note_on_c, 11, 72, 76
9, 40439, Note_on_c, 11, 72, 0
9, 45240, Note_on_c, 11, 76, 76
9, 45344, Note_on_c, 11, 76, 0
9, 45360, Note_on_c, 11, 76, 76
9, 45464, Note_on_c, 11, 76, 0
9, 45480, Note_on_c, 11, 76, 76
9, 45584, Note_on_c, 11, 76, 0
9, 45600, Note_on_c, 11, 72, 76
9, 45704, Note_on_c, 11, 72, 0
9, 45720, Note_on_c, 11, 74, 76
9, 45764, Note_on_c, 11, 74, 0
9, 45780, Note_on_c, 11, 76, 76
9, 45824, Note_on_c, 11, 76, 0
9, 45840, Note_on_c, 11, 77, 76
9, 45944, Note_on_c, 11, 77, 0
9, 45960, Note_on_c, 11, 74, 76
9, 46064, Note_on_c, 11, 74, 0
9, 46080, Note_on_c, 11, 71, 76
9, 46184, Note_on_c, 11, 71, 0
9, 46200, Note_on_c, 11, 76, 76
9, 46304, Note_on_c, 11, 76, 0
9, 46320, Note_on_c, 11, 64, 76
9, 46424, Note_on_c, 11, 64, 0
9, 46440, Note_on_c, 11, 76, 76
9, 46544, Note_on_c, 11, 76, 0
9, 46560, Note_on_c, 11, 69, 76
9, 46664, Note_on_c, 11, 69, 0
9, 46680, Note_on_c, 11, 71, 76
9, 46724, Note_on_c, 11, 71, 0
9, 46740, Note_on_c, 11, 72, 76
9, 46784, Note_on_c, 11, 72, 0
9, 46800, Note_on_c, 11, 74, 76
9, 47084, Note_on_c, 11, 74, 0
9, 47100, Note_on_c, 11, 77, 76
9, 47144, Note_on_c, 11, 77, 0
9, 47160, Note_on_c, 11, 76, 76
9, 47204, Note_on_c, 11, 76, 0
9, 47220, Note_on_c, 11, 74, 76
9, 47264, Note_on_c, 11, 74, 0
9, 47280, Note_on_c, 11, 72, 76
9, 47324, Note_on_c, 11, 72, 0
9, 47340, Note_on_c, 11, 71, 76
9, 47384, Note_on_c, 11, 71, 0
9, 47400, Note_on_c, 11, 72, 76
9, 47444, Note_on_c, 11, 72, 0
9, 47460, Note_on_c, 11, 69, 76
9, 47504, Note_on_c, 11, 69, 0
9, 47520, Note_on_c, 11, 81, 76
9, 47684, Note_on_c, 11, 81, 0
9, 47700, Note_on_c, 11, 83, 76
9, 47744, Note_on_c, 11, 83, 0
9, 47760, Note_on_c, 11, 80, 76
9, 47789, Note_on_c, 11, 80, 0
9, 47790, Note_on_c, 11, 81, 76
9, 47819, Note_on_c, 11, 81, 0
9, 47820, Note_on_c, 11, 80, 76
9, 47849, Note_on_c, 11, 80, 0
9, 47850, Note_on_c, 11, 81, 76
9, 47879, Note_on_c, 11, 81, 0
9, 47880, Note_on_c, 11, 77, 76
9, 47909, Note_on_c, 11, 77, 0
9, 47910, Note_on_c, 11, 80, 76
9, 47939, Note_on_c, 11, 80, 0
9, 47940, Note_on_c, 11, 81, 76
9, 47984, Note_on_c, 11, 81, 0
9, 48000, Note_on_c, 11, 81, 76
9, 48044, Note_on_c, 11, 81, 0
9, 48060, Note_on_c, 11, 83, 76
9, 48104, Note_on_c, 11, 83, 0
9, 48120, Note_on_c, 11, 84, 76
9, 48164, Note_on_c, 11, 84, 0
9, 48180, Note_on_c, 11, 83, 76
9, 48224, Note_on_c, 11, 83, 0
9, 48240, Note_on_c, 11, 81, 76
9, 48284, Note_on_c, 11, 81, 0
9, 48300, Note_on_c, 11, 79, 76
9, 48344, Note_on_c, 11, 79, 0
9, 48360, Note_on_c, 11, 81, 76
9, 48404, Note_on_c, 11, 81, 0
9, 48420, Note_on_c, 11, 78, 76
9, 48464, Note_on_c, 11, 78, 0
9, 48480, Note_on_c, 11, 83, 76
9, 48584, Note_on_c, 11, 83, 0
9, 48600, Note_on_c, 11, 71, 76
9, 48704, Note_on_c, 11, 71, 0
9, 48720, Note_on_c, 11, 76, 76
9, 48884, Note_on_c, 11, 76, 0
9, 48900, Note_on_c, 11, 76, 76
9, 48944, Note_on_c, 11, 76, 0
9, 48960, Note_on_c, 11, 76, 76
9, 49004, Note_on_c, 11, 76, 0
9, 49020, Note_on_c, 11, 79, 76
9, 49064, Note_on_c, 11, 79, 0
9, 49080, Note_on_c, 11, 78, 76
9, 49124, Note_on_c, 11, 78, 0
9, 49140, Note_on_c, 11, 76, 76
9, 49184, Note_on_c, 11, 76, 0
9, 49200, Note_on_c, 11, 75, 76
9, 49244, Note_on_c, 11, 75, 0
9, 49260, Note_on_c, 11, 73, 76
9, 49304, Note_on_c, 11, 73, 0
9, 49320, Note_on_c, 11, 75, 76
9, 49364, Note_on_c, 11, 75, 0
9, 49380, Note_on_c, 11, 71, 76
9, 49424, Note_on_c, 11, 71, 0
9, 49440, Note_on_c, 11, 83, 76
9, 49484, Note_on_c, 11, 83, 0
9, 49500, Note_on_c, 11, 81, 76
9, 49544, Note_on_c, 11, 81, 0
9, 49560, Note_on_c, 11, 79, 76
9, 49604, Note_on_c, 11, 79, 0
9, 49620, Note_on_c, 11, 78, 76
9, 49664, Note_on_c, 11, 78, 0
9, 49680, Note_on_c, 11, 76, 76
9, 49724, Note_on_c, 11, 76, 0
9, 49740, Note_on_c, 11, 74, 76
9, 49784, Note_on_c, 11, 74, 0
9, 49800, Note_on_c, 11, 72, 76
9, 49844, Note_on_c, 11, 72, 0
9, 49860, Note_on_c, 11, 71, 76
9, 49904, Note_on_c, 11, 71, 0
9, 49920, Note_on_c, 11, 69, 76
9, 49964, Note_on_c, 11, 69, 0
9, 49980, Note_on_c, 11, 72, 76
9, 50024, Note_on_c, 11, 72, 0
9, 50040, Note_on_c, 11, 74, 76
9, 50084, Note_on_c, 11, 74, 0
9, 50100, Note_on_c, 11, 76, 76
9, 50144, Note_on_c, 11, 76, 0
9, 50160, Note_on_c, 11, 74, 76
9, 50204, Note_on_c, 11, 74, 0
9, 50220, Note_on_c, 11, 72, 76
9, 50264, Note_on_c, 11, 72, 0
9, 50280, Note_on_c, 11, 71, 76
9, 50324, Note_on_c, 11, 71, 0
9, 50340, Note_on_c, 11, 69, 76
9, 50384, Note_on_c, 11, 69, 0
9, 50400, Note_on_c, 11, 74, 76
9, 50564, Note_on_c, 11, 74, 0
9, 50580, Note_on_c, 11, 76, 76
9, 50624, Note_on_c, 11, 76, 0
9, 50640, Note_on_c, 11, 72, 76
9, 50804, Note_on_c, 11, 72, 0
9, 50820, Note_on_c, 11, 71, 76
9, 50864, Note_on_c, 11, 71, 0
9, 50880, Note_on_c, 11, 72, 76
9, 51044, Note_on_c, 11, 72, 0
9, 51060, Note_on_c, 11, 74, 76
9, 51104, Note_on_c, 11, 74, 0
9, 51120, Note_on_c, 11, 71, 76
9, 51284, Note_on_c, 11, 71, 0
9, 51300, Note_on_c, 11, 69, 76
9, 51344, Note_on_c, 11, 69, 0
9, 51360, Note_on_c, 11, 69, 76
9, 51404, Note_on_c, 11, 69, 0
9, 51420, Note_on_c, 11, 76, 76
9, 51464, Note_on_c, 11, 76, 0
9, 51480, Note_on_c, 11, 78, 76
9, 51524, Note_on_c, 11, 78, 0
9, 51540, Note_on_c, 11, 80, 76
9, 51584, Note_on_c, 11, 80, 0
9, 51600, Note_on_c, 11, 81, 76
9, 51884, Note_on_c, 11, 81, 0
9, 51900, Note_on_c, 11, 84, 76
9, 51944, Note_on_c, 11, 84, 0
9, 51960, Note_on_c, 11, 83, 76
9, 52004, Note_on_c, 11, 83, 0
9, 52020, Note_on_c, 11, 81, 76
9, 52064, Note_on_c, 11, 81, 0
9, 52080, Note_on_c, 11, 80, 76
9, 52124, Note_on_c, 11, 80, 0
9, 52140, Note_on_c, 11, 81, 76
9, 52184, Note_on_c, 11, 81, 0
9, 52200, Note_on_c, 11, 83, 76
9, 52244, Note_on_c, 11, 83, 0
9, 52260, Note_on_c, 11, 80, 76
9, 52304, Note_on_c, 11, 80, 0
9, 52320, Note_on_c, 11, 76, 76
9, 52424, Note_on_c, 11, 76, 0
9, 52440, Note_on_c, 11, 76, 76
9, 52544, Note_on_c, 11, 76, 0
9, 52560, Note_on_c, 11, 76, 76
9, 52664, Note_on_c, 11, 76, 0
9, 52680, Note_on_c, 11, 76, 76
9, 52784, Note_on_c, 11, 76, 0
9, 52800, Note_on_c, 11, 72, 76
9, 52904, Note_on_c, 11, 72, 0
9, 52920, Note_on_c, 11, 74, 76
9, 52964, Note_on_c, 11, 74, 0
9, 52980, Note_on_c, 11, 76, 76
9, 53024, Note_on_c, 11, 76, 0
9, 53040, Note_on_c, 11, 77, 76
9, 53144, Note_on_c, 11, 77, 0
9, 53160, Note_on_c, 11, 74, 76
9, 53264, Note_on_c, 11, 74, 0
9, 53280, Note_on_c, 11, 71, 76
9, 53384, Note_on_c, 11, 71, 0
9, 53400, Note_on_c, 11, 76, 76
9, 53504, Note_on_c, 11, 76, 0
9, 53520, Note_on_c, 11, 64, 76
9, 53624, Note_on_c, 11, 64, 0
9, 53640, Note_on_c, 11, 74, 76
9, 53744, Note_on_c, 11, 74, 0
9, 53760, Note_on_c, 11, 72, 76
9, 53924, Note_on_c, 11, 72, 0
9, 53940, Note_on_c, 11, 71, 76
9, 53984, Note_on_c, 11, 71, 0
9, 54000, Note_on_c, 11, 71, 76
9, 54029, Note_on_c, 11, 71, 0
9, 54030, Note_on_c, 11, 72, 76
9, 54059, Note_on_c, 11, 72, 0
9, 54060, Note_on_c, 11, 71, 76
9, 54089, Note_on_c, 11, 71, 0
9, 54090, Note_on_c, 11, 72, 76
9, 54119, Note_on_c, 11, 72, 0
9, 54120, Note_on_c, 11, 69, 76
9, 54149, Note_on_c, 11, 69, 0
9, 54150, Note_on_c, 11, 71, 76
9, 54179, Note_on_c, 11, 71, 0
9, 54180, Note_on_c, 11, 69, 76
9, 54224, Note_on_c, 11, 69, 0
9, 54240, Note_on_c, 11, 69, 76
9, 54344, Note_on_c, 11, 69, 0
9, 54360, Note_on_c, 11, 69, 76
9, 54464, Note_on_c, 11, 69, 0
9, 54480, Note_on_c, 11, 69, 76
9, 54584, Note_on_c, 11, 69, 0
9, 54600, Note_on_c, 11, 69, 76
9, 54704, Note_on_c, 11, 69, 0
9, 54720, Note_on_c, 11, 67, 76
9, 54824, Note_on_c, 11, 67, 0
9, 54840, Note_on_c, 11, 69, 76
9, 54884, Note_on_c, 11, 69, 0
9, 54900, Note_on_c, 11, 71, 76
9, 54944, Note_on_c, 11, 71, 0
9, 54960, Note_on_c, 11, 72, 76
9, 55064, Note_on_c, 11, 72, 0
9, 55080, Note_on_c, 11, 69, 76
9, 55184, Note_on_c, 11, 69, 0
9, 55200, Note_on_c, 11, 66, 76
9, 55304, Note_on_c, 11, 66, 0
9, 55320, Note_on_c, 11, 71, 76
9, 55424, Note_on_c, 11, 71, 0
9, 55440, Note_on_c, 11, 59, 76
9, 55544, Note_on_c, 11, 59, 0
9, 55560, Note_on_c, 11, 71, 76
9, 55664, Note_on_c, 11, 71, 0
9, 55680, Note_on_c, 11, 64, 76
9, 55784, Note_on_c, 11, 64, 0
9, 55800, Note_on_c, 11, 76, 76
9, 55904, Note_on_c, 11, 76, 0
9, 55920, Note_on_c, 11, 76, 76
9, 56024, Note_on_c, 11, 76, 0
9, 56040, Note_on_c, 11, 76, 76
9, 56144, Note_on_c, 11, 76, 0
9, 56160, Note_on_c, 11, 73, 76
9, 56264, Note_on_c, 11, 73, 0
9, 56280, Note_on_c, 11, 69, 76
9, 56384, Note_on_c, 11, 69, 0
9, 56400, Note_on_c, 11, 69, 76
9, 56504, Note_on_c, 11, 69, 0
9, 56520, Note_on_c, 11, 69, 76
9, 56624, Note_on_c, 11, 69, 0
9, 56640, Note_on_c, 11, 65, 76
9, 56744, Note_on_c, 11, 65, 0
9, 56760, Note_on_c, 11, 67, 76
9, 56804, Note_on_c, 11, 67, 0
9, 56820, Note_on_c, 11, 69, 76
9, 56864, Note_on_c, 11, 69, 0
9, 56880, Note_on_c, 11, 70, 76
9, 56984, Note_on_c, 11, 70, 0
9, 57000, Note_on_c, 11, 67, 76
9, 57104, Note_on_c, 11, 67, 0
9, 57120, Note_on_c, 11, 64, 76
9, 57224, Note_on_c, 11, 64, 0
9, 57240, Note_on_c, 11, 69, 76
9, 57344, Note_on_c, 11, 69, 0
9, 57360, Note_on_c, 11, 57, 76
9, 57464, Note_on_c, 11, 57, 0
9, 57480, Note_on_c, 11, 69, 76
9, 57584, Note_on_c, 11, 69, 0
9, 57600, Note_on_c, 11, 62, 76
9, 57704, Note_on_c, 11, 62, 0
9, 57720, Note_on_c, 11, 74, 76
9, 57824, Note_on_c, 11, 74, 0
9, 57840, Note_on_c, 11, 74, 76
9, 57944, Note_on_c, 11, 74, 0
9, 57960, Note_on_c, 11, 74, 76
9, 58064, Note_on_c, 11, 74, 0
9, 58080, Note_on_c, 11, 71, 76
9, 58184, Note_on_c, 11, 71, 0
9, 58200, Note_on_c, 11, 67, 76
9, 58304, Note_on_c, 11, 67, 0
9, 58320, Note_on_c, 11, 67, 76
9, 58424, Note_on_c, 11, 67, 0
9, 58440, Note_on_c, 11, 67, 76
9, 58544, Note_on_c, 11, 67, 0
9, 58560, Note_on_c, 11, 64, 76
9, 58664, Note_on_c, 11, 64, 0
9, 58680, Note_on_c, 11, 65, 76
9, 58724, Note_on_c, 11, 65, 0
9, 58740, Note_on_c, 11, 67, 76
9, 58784, Note_on_c, 11, 67, 0
9, 58800, Note_on_c, 11, 69, 76
9, 58904, Note_on_c, 11, 69, 0
9, 58920, Note_on_c, 11, 65, 76
9, 59024, Note_on_c, 11, 65, 0
9, 59040, Note_on_c, 11, 62, 76
9, 59144, Note_on_c, 11, 62, 0
9, 59160, Note_on_c, 11, 67, 76
9, 59264, Note_on_c, 11, 67, 0
9, 59280, Note_on_c, 11, 55, 76
9, 59384, Note_on_c, 11, 55, 0
9, 59400, Note_on_c, 11, 67, 76
9, 59504, Note_on_c, 11, 67, 0
9, 59520, Note_on_c, 11, 60, 76
9, 59624, Note_on_c, 11, 60, 0
9, 59640, Note_on_c, 11, 72, 76
9, 59684, Note_on_c, 11, 72, 0
9, 59700, Note_on_c, 11, 74, 76
9, 59744, Note_on_c, 11, 74, 0
9, 59760, Note_on_c, 11, 76, 76
9, 59804, Note_on_c, 11, 76, 0
9, 59820, Note_on_c, 11, 74, 76
9, 59864, Note_on_c, 11, 74, 0
9, 59880, Note_on_c, 11, 76, 76
9, 59924, Note_on_c, 11, 76, 0
9, 59940, Note_on_c, 11, 78, 76
9, 59984, Note_on_c, 11, 78, 0
9, 60000, Note_on_c, 11, 79, 76
9, 60164, Note_on_c, 11, 79, 0
9, 60180, Note_on_c, 11, 74, 76
9, 60224, Note_on_c, 11, 74, 0
9, 60240, Note_on_c, 11, 79, 76
9, 60404, Note_on_c, 11, 79, 0
9, 60420, Note_on_c, 11, 79, 76
9, 60464, Note_on_c, 11, 79, 0
9, 60480, Note_on_c, 11, 79, 76
9, 60644, Note_on_c, 11, 79, 0
9, 60660, Note_on_c, 11, 78, 76
9, 60679, Note_on_c, 11, 78, 0
9, 60680, Note_on_c, 11, 76, 76
9, 60699, Note_on_c, 11, 76, 0
9, 60700, Note_on_c, 11, 78, 76
9, 60719, Note_on_c, 11, 78, 0
9, 60720, Note_on_c, 11, 78, 76
9, 60749, Note_on_c, 11, 78, 0
9, 60750, Note_on_c, 11, 79, 76
9, 60779, Note_on_c, 11, 79, 0
9, 60780, Note_on_c, 11, 78, 76
9, 60809, Note_on_c, 11, 78, 0
9, 60810, Note_on_c, 11, 79, 76
9, 60839, Note_on_c, 11, 79, 0
9, 60840, Note_on_c, 11, 76, 76
9, 60869, Note_on_c, 11, 76, 0
9, 60870, Note_on_c, 11, 78, 76
9, 60899, Note_on_c, 11, 78, 0
9, 60900, Note_on_c, 11, 79, 76
9, 60944, Note_on_c, 11, 79, 0
9, 60960, Note_on_c, 11, 79, 76
9, 61199, Note_on_c, 11, 79, 0
9, 61320, Note_on_c, 11, 76, 76
9, 61484, Note_on_c, 11, 76, 0
9, 61500, Note_on_c, 11, 79, 76
9, 61544, Note_on_c, 11, 79, 0
9, 61560, Note_on_c, 11, 78, 76
9, 61604, Note_on_c, 11, 78, 0
9, 61620, Note_on_c, 11, 76, 76
9, 61664, Note_on_c, 11, 76, 0
9, 61680, Note_on_c, 11, 74, 76
9, 61724, Note_on_c, 11, 74, 0
9, 61740, Note_on_c, 11, 72, 76
9, 61784, Note_on_c, 11, 72, 0
9, 61800, Note_on_c, 11, 71, 76
9, 61844, Note_on_c, 11, 71, 0
9, 61860, Note_on_c, 11, 69, 76
9, 61904, Note_on_c, 11, 69, 0
9, 61920, Note_on_c, 11, 67, 76
9, 61964, Note_on_c, 11, 67, 0
9, 61980, Note_on_c, 11, 71, 76
9, 62024, Note_on_c, 11, 71, 0
9, 62040, Note_on_c, 11, 69, 76
9, 62084, Note_on_c, 11, 69, 0
9, 62100, Note_on_c, 11, 67, 76
9, 62144, Note_on_c, 11, 67, 0
9, 62160, Note_on_c, 11, 72, 76
9, 62204, Note_on_c, 11, 72, 0
9, 62220, Note_on_c, 11, 76, 76
9, 62264, Note_on_c, 11, 76, 0
9, 62280, Note_on_c, 11, 74, 76
9, 62324, Note_on_c, 11, 74, 0
9, 62340, Note_on_c, 11, 72, 76
9, 62384, Note_on_c, 11, 72, 0
9, 62400, Note_on_c, 11, 81, 76
9, 62504, Note_on_c, 11, 81, 0
9, 62520, Note_on_c, 11, 74, 76
9, 62624, Note_on_c, 11, 74, 0
9, 62640, Note_on_c, 11, 79, 76
9, 62804, Note_on_c, 11, 79, 0
9, 62820, Note_on_c, 11, 79, 76
9, 62864, Note_on_c, 11, 79, 0
9, 62880, Note_on_c, 11, 79, 76
9, 62924, Note_on_c, 11, 79, 0
9, 62940, Note_on_c, 11, 78, 76
9, 62984, Note_on_c, 11, 78, 0
9, 63000, Note_on_c, 11, 79, 76
9, 63044, Note_on_c, 11, 79, 0
9, 63060, Note_on_c, 11, 76, 76
9, 63104, Note_on_c, 11, 76, 0
9, 63120, Note_on_c, 11, 78, 76
9, 63284, Note_on_c, 11, 78, 0
9, 63300, Note_on_c, 11, 78, 76
9, 63344, Note_on_c, 11, 78, 0
9, 63360, Note_on_c, 11, 78, 76
9, 63464, Note_on_c, 11, 78, 0
9, 63480, Note_on_c, 11, 71, 76
9, 63584, Note_on_c, 11, 71, 0
9, 63600, Note_on_c, 11, 76, 76
9, 63764, Note_on_c, 11, 76, 0
9, 63780, Note_on_c, 11, 76, 76
9, 63824, Note_on_c, 11, 76, 0
9, 63840, Note_on_c, 11, 76, 76
9, 63884, Note_on_c, 11, 76, 0
9, 63900, Note_on_c, 11, 74, 76
9, 63944, Note_on_c, 11, 74, 0
9, 63960, Note_on_c, 11, 76, 76
9, 64004, Note_on_c, 11, 76, 0
9, 64020, Note_on_c, 11, 72, 76
9, 64064, Note_on_c, 11, 72, 0
9, 64080, Note_on_c, 11, 74, 76
9, 64244, Note_on_c, 11, 74, 0
9, 64260, Note_on_c, 11, 74, 76
9, 64304, Note_on_c, 11, 74, 0
9, 64320, Note_on_c, 11, 74, 76
9, 64424, Note_on_c, 11, 74, 0
9, 64440, Note_on_c, 11, 67, 76
9, 64544, Note_on_c, 11, 67, 0
9, 64560, Note_on_c, 11, 72, 76
9, 64724, Note_on_c, 11, 72, 0
9, 64740, Note_on_c, 11, 72, 76
9, 64784, Note_on_c, 11, 72, 0
9, 64800, Note_on_c, 11, 72, 76
9, 64844, Note_on_c, 11, 72, 0
9, 64860, Note_on_c, 11, 76, 76
9, 64904, Note_on_c, 11, 76, 0
9, 64920, Note_on_c, 11, 74, 76
9, 64964, Note_on_c, 11, 74, 0
9, 64980, Note_on_c, 11, 72, 76
9, 65024, Note_on_c, 11, 72, 0
9, 65040, Note_on_c, 11, 71, 76
9, 65084, Note_on_c, 11, 71, 0
9, 65100, Note_on_c, 11, 69, 76
9, 65144, Note_on_c, 11, 69, 0
9, 65160, Note_on_c, 11, 67, 76
9, 65204, Note_on_c, 11, 67, 0
9, 65220, Note_on_c, 11, 66, 76
9, 65264, Note_on_c, 11, 66, 0
9, 65280, Note_on_c, 11, 67, 76
9, 65324, Note_on_c, 11, 67, 0
9, 65340, Note_on_c, 11, 71, 76
9, 65384, Note_on_c, 11, 71, 0
9, 65400, Note_on_c, 11, 76, 76
9, 65444, Note_on_c, 11, 76, 0
9, 65460, Note_on_c, 11, 74, 76
9, 65504, Note_on_c, 11, 74, 0
9, 65520, Note_on_c, 11, 72, 76
9, 65564, Note_on_c, 11, 72, 0
9, 65580, Note_on_c, 11, 71, 76
9, 65624, Note_on_c, 11, 71, 0
9, 65640, Note_on_c, 11, 69, 76
9, 65684, Note_on_c, 11, 69, 0
9, 65700, Note_on_c, 11, 67, 76
9, 65744, Note_on_c, 11, 67, 0
9, 65760, Note_on_c, 11, 78, 76
9, 65804, Note_on_c, 11, 78, 0
9, 65820, Note_on_c, 11, 76, 76
9, 65864, Note_on_c, 11, 76, 0
9, 65880, Note_on_c, 11, 74, 76
9, 65924, Note_on_c, 11, 74, 0
9, 65940, Note_on_c, 11, 76, 76
9, 65984, Note_on_c, 11, 76, 0
9, 66000, Note_on_c, 11, 78, 76
9, 66044, Note_on_c, 11, 78, 0
9, 66060, Note_on_c, 11, 76, 76
9, 66104, Note_on_c, 11, 76, 0
9, 66120, Note_on_c, 11, 78, 76
9, 66164, Note_on_c, 11, 78, 0
9, 66180, Note_on_c, 11, 74, 76
9, 66224, Note_on_c, 11, 74, 0
9, 66240, Note_on_c, 11, 79, 76
9, 66404, Note_on_c, 11, 79, 0
9, 66420, Note_on_c, 11, 81, 76
9, 66464, Note_on_c, 11, 81, 0
9, 66480, Note_on_c, 11, 78, 76
9, 66509, Note_on_c, 11, 78, 0
9, 66510, Note_on_c, 11, 79, 76
9, 66539, Note_on_c, 11, 79, 0
9, 66540, Note_on_c, 11, 78, 76
9, 66569, Note_on_c, 11, 78, 0
9, 66570, Note_on_c, 11, 79, 76
9, 66599, Note_on_c, 11, 79, 0
9, 66600, Note_on_c, 11, 76, 76
9, 66629, Note_on_c, 11, 76, 0
9, 66630, Note_on_c, 11, 78, 76
9, 66659, Note_on_c, 11, 78, 0
9, 66660, Note_on_c, 11, 79, 76
9, 66704, Note_on_c, 11, 79, 0
9, 66720, Note_on_c, 11, 79, 76
9, 66959, Note_on_c, 11, 79, 0
9, 71160, Note_on_c, 11, 71, 76
9, 71264, Note_on_c, 11, 71, 0
9, 71280, Note_on_c, 11, 71, 76
9, 71384, Note_on_c, 11, 71, 0
9, 71400, Note_on_c, 11, 71, 76
9, 71504, Note_on_c, 11, 71, 0
9, 71520, Note_on_c, 11, 67, 76
9, 71624, Note_on_c, 11, 67, 0
9, 71640, Note_on_c, 11, 69, 76
9, 71684, Note_on_c, 11, 69, 0
9, 71700, Note_on_c, 11, 71, 76
9, 71744, Note_on_c, 11, 71, 0
9, 71760, Note_on_c, 11, 72, 76
9, 71864, Note_on_c, 11, 72, 0
9, 71880, Note_on_c, 11, 69, 76
9, 71984, Note_on_c, 11, 69, 0
9, 72000, Note_on_c, 11, 66, 76
9, 72104, Note_on_c, 11, 66, 0
9, 72120, Note_on_c, 11, 71, 76
9, 72224, Note_on_c, 11, 71, 0
9, 72240, Note_on_c, 11, 59, 76
9, 72344, Note_on_c, 11, 59, 0
9, 72360, Note_on_c, 11, 71, 76
9, 72464, Note_on_c, 11, 71, 0
9, 72480, Note_on_c, 11, 71, 76
9, 72719, Note_on_c, 11, 71, 0
9, 75420, Note_on_c, 11, 72, 76
9, 75464, Note_on_c, 11, 72, 0
9, 75480, Note_on_c, 11, 71, 76
9, 75524, Note_on_c, 11, 71, 0
9, 75540, Note_on_c, 11, 69, 76
9, 75584, Note_on_c, 11, 69, 0
9, 75600, Note_on_c, 11, 67, 76
9, 75644, Note_on_c, 11, 67, 0
9, 75660, Note_on_c, 11, 66, 76
9, 75704, Note_on_c, 11, 66, 0
9, 75720, Note_on_c, 11, 67, 76
9, 75764, Note_on_c, 11, 67, 0
9, 75780, Note_on_c, 11, 64, 76
9, 75824, Note_on_c, 11, 64, 0
9, 75840, Note_on_c, 11, 72, 76
9, 75884, Note_on_c, 11, 72, 0
9, 75900, Note_on_c, 11, 71, 76
9, 75944, Note_on_c, 11, 71, 0
9, 75960, Note_on_c, 11, 69, 76
9, 76004, Note_on_c, 11, 69, 0
9, 76020, Note_on_c, 11, 67, 76
9, 76064, Note_on_c, 11, 67, 0
9, 76080, Note_on_c, 11, 66, 76
9, 76184, Note_on_c, 11, 66, 0
9, 76200, Note_on_c, 11, 71, 76
9, 76304, Note_on_c, 11, 71, 0
9, 76320, Note_on_c, 11, 64, 76
9, 76559, Note_on_c, 11, 64, 0
9, 77400, Note_on_c, 11, 76, 76
9, 77504, Note_on_c, 11, 76, 0
9, 77520, Note_on_c, 11, 76, 76
9, 77624, Note_on_c, 11, 76, 0
9, 77640, Note_on_c, 11, 76, 76
9, 77744, Note_on_c, 11, 76, 0
9, 77760, Note_on_c, 11, 72, 76
9, 77864, Note_on_c, 11, 72, 0
9, 77880, Note_on_c, 11, 74, 76
9, 77924, Note_on_c, 11, 74, 0
9, 77940, Note_on_c, 11, 76, 76
9, 77984, Note_on_c, 11, 76, 0
9, 78000, Note_on_c, 11, 77, 76
9, 78104, Note_on_c, 11, 77, 0
9, 78120, Note_on_c, 11, 74, 76
9, 78224, Note_on_c, 11, 74, 0
9, 78240, Note_on_c, 11, 71, 76
9, 78344, Note_on_c, 11, 71, 0
9, 78360, Note_on_c, 11, 74, 76
9, 78464, Note_on_c, 11, 74, 0
9, 78480, Note_on_c, 11, 64, 76
9, 78584, Note_on_c, 11, 64, 0
9, 78600, Note_on_c, 11, 74, 76
9, 78704, Note_on_c, 11, 74, 0
9, 78720, Note_on_c, 11, 72, 76
9, 78824, Note_on_c, 11, 72, 0
9, 78840, Note_on_c, 11, 81, 76
9, 78944, Note_on_c, 11, 81, 0
9, 78960, Note_on_c, 11, 81, 76
9, 79064, Note_on_c, 11, 81, 0
9, 79080, Note_on_c, 11, 81, 76
9, 79184, Note_on_c, 11, 81, 0
9, 79200, Note_on_c, 11, 78, 76
9, 79304, Note_on_c, 11, 78, 0
9, 79320, Note_on_c, 11, 74, 76
9, 79424, Note_on_c, 11, 74, 0
9, 79440, Note_on_c, 11, 74, 76
9, 79544, Note_on_c, 11, 74, 0
9, 79560, Note_on_c, 11, 74, 76
9, 79664, Note_on_c, 11, 74, 0
9, 79680, Note_on_c, 11, 70, 76
9, 79784, Note_on_c, 11, 70, 0
9, 79800, Note_on_c, 11, 72, 76
9, 79844, Note_on_c, 11, 72, 0
9, 79860, Note_on_c, 11, 74, 76
9, 79904, Note_on_c, 11, 74, 0
9, 79920, Note_on_c, 11, 75, 76
9, 80024, Note_on_c, 11, 75, 0
9, 80040, Note_on_c, 11, 72, 76
9, 80144, Note_on_c, 11, 72, 0
9, 80160, Note_on_c, 11, 69, 76
9, 80264, Note_on_c, 11, 69, 0
9, 80280, Note_on_c, 11, 72, 76
9, 80384, Note_on_c, 11, 72, 0
9, 80400, Note_on_c, 11, 62, 76
9, 80504, Note_on_c, 11, 62, 0
9, 80520, Note_on_c, 11, 72, 76
9, 80624, Note_on_c, 11, 72, 0
9, 80640, Note_on_c, 11, 70, 76
9, 80744, Note_on_c, 11, 70, 0
9, 80760, Note_on_c, 11, 79, 76
9, 80864, Note_on_c, 11, 79, 0
9, 80880, Note_on_c, 11, 79, 76
9, 80984, Note_on_c, 11, 79, 0
9, 81000, Note_on_c, 11, 79, 76
9, 81104, Note_on_c, 11, 79, 0
9, 81120, Note_on_c, 11, 76, 76
9, 81224, Note_on_c, 11, 76, 0
9, 81240, Note_on_c, 11, 72, 76
9, 81344, Note_on_c, 11, 72, 0
9, 81360, Note_on_c, 11, 72, 76
9, 81464, Note_on_c, 11, 72, 0
9, 81480, Note_on_c, 11, 72, 76
9, 81584, Note_on_c, 11, 72, 0
9, 81600, Note_on_c, 11, 69, 76
9, 81704, Note_on_c, 11, 69, 0
9, 81720, Note_on_c, 11, 70, 76
9, 81764, Note_on_c, 11, 70, 0
9, 81780, Note_on_c, 11, 72, 76
9, 81824, Note_on_c, 11, 72, 0
9, 81840, Note_on_c, 11, 74, 76
9, 81944, Note_on_c, 11, 74, 0
9, 81960, Note_on_c, 11, 70, 76
9, 82064, Note_on_c, 11, 70, 0
9, 82080, Note_on_c, 11, 67, 76
9, 82184, Note_on_c, 11, 67, 0
9, 82200, Note_on_c, 11, 70, 76
9, 82304, Note_on_c, 11, 70, 0
9, 82320, Note_on_c, 11, 60, 76
9, 82424, Note_on_c, 11, 60, 0
9, 82440, Note_on_c, 11, 70, 76
9, 82544, Note_on_c, 11, 70, 0
9, 82560, Note_on_c, 11, 69, 76
9, 82604, Note_on_c, 11, 69, 0
9, 82620, Note_on_c, 11, 67, 76
9, 82664, Note_on_c, 11, 67, 0
9, 82680, Note_on_c, 11, 65, 76
9, 82724, Note_on_c, 11, 65, 0
9, 82740, Note_on_c, 11, 67, 76
9, 82784, Note_on_c, 11, 67, 0
9, 82800, Note_on_c, 11, 69, 76
9, 82844, Note_on_c, 11, 69, 0
9, 82860, Note_on_c, 11, 67, 76
9, 82904, Note_on_c, 11, 67, 0
9, 82920, Note_on_c, 11, 69, 76
9, 82964, Note_on_c, 11, 69, 0
9, 82980, Note_on_c, 11, 71, 76
9, 83024, Note_on_c, 11, 71, 0
9, 83040, Note_on_c, 11, 72, 76
9, 83204, Note_on_c, 11, 72, 0
9, 83220, Note_on_c, 11, 67, 76
9, 83264, Note_on_c, 11, 67, 0
9, 83280, Note_on_c, 11, 72, 76
9, 83444, Note_on_c, 11, 72, 0
9, 83460, Note_on_c, 11, 72, 76
9, 83504, Note_on_c, 11, 72, 0
9, 83520, Note_on_c, 11, 72, 76
9, 83684, Note_on_c, 11, 72, 0
9, 83700, Note_on_c, 11, 71, 76
9, 83719, Note_on_c, 11, 71, 0
9, 83720, Note_on_c, 11, 69, 76
9, 83739, Note_on_c, 11, 69, 0
9, 83740, Note_on_c, 11, 71, 76
9, 83759, Note_on_c, 11, 71, 0
9, 83760, Note_on_c, 11, 71, 76
9, 83789, Note_on_c, 11, 71, 0
9, 83790, Note_on_c, 11, 72, 76
9, 83819, Note_on_c, 11, 72, 0
9, 83820, Note_on_c, 11, 71, 76
9, 83849, Note_on_c, 11, 71, 0
9, 83850, Note_on_c, 11, 72, 76
9, 83879, Note_on_c, 11, 72, 0
9, 83880, Note_on_c, 11, 69, 76
9, 83909, Note_on_c, 11, 69, 0
9, 83910, Note_on_c, 11, 71, 76
9, 83939, Note_on_c, 11, 71, 0
9, 83940, Note_on_c, 11, 72, 76
9, 83984, Note_on_c, 11, 72, 0
9, 84000, Note_on_c, 11, 72, 76
9, 84239, Note_on_c, 11, 72, 0
9, 84360, Note_on_c, 11, 81, 76
9, 84524, Note_on_c, 11, 81, 0
9, 84540, Note_on_c, 11, 84, 76
9, 84584, Note_on_c, 11, 84, 0
9, 84600, Note_on_c, 11, 83, 76
9, 84644, Note_on_c, 11, 83, 0
9, 84660, Note_on_c, 11, 81, 76
9, 84704, Note_on_c, 11, 81, 0
9, 84720, Note_on_c, 11, 79, 76
9, 84764, Note_on_c, 11, 79, 0
9, 84780, Note_on_c, 11, 77, 76
9, 84824, Note_on_c, 11, 77, 0
9, 84840, Note_on_c, 11, 76, 76
9, 84884, Note_on_c, 11, 76, 0
9, 84900, Note_on_c, 11, 74, 76
9, 84944, Note_on_c, 11, 74, 0
9, 84960, Note_on_c, 11, 72, 76
9, 85004, Note_on_c, 11, 72, 0
9, 85020, Note_on_c, 11, 76, 76
9, 85064, Note_on_c, 11, 76, 0
9, 85080, Note_on_c, 11, 74, 76
9, 85124, Note_on_c, 11, 74, 0
9, 85140, Note_on_c, 11, 72, 76
9, 85184, Note_on_c, 11, 72, 0
9, 85200, Note_on_c, 11, 77, 76
9, 85364, Note_on_c, 11, 77, 0
9, 85380, Note_on_c, 11, 77, 76
9, 85424, Note_on_c, 11, 77, 0
9, 85440, Note_on_c, 11, 77, 76
9, 85484, Note_on_c, 11, 77, 0
9, 85500, Note_on_c, 11, 76, 76
9, 85544, Note_on_c, 11, 76, 0
9, 85560, Note_on_c, 11, 74, 76
9, 85604, Note_on_c, 11, 74, 0
9, 85620, Note_on_c, 11, 76, 76
9, 85664, Note_on_c, 11, 76, 0
9, 85680, Note_on_c, 11, 76, 76
9, 85709, Note_on_c, 11, 76, 0
9, 85710, Note_on_c, 11, 77, 76
9, 85739, Note_on_c, 11, 77, 0
9, 85740, Note_on_c, 11, 76, 76
9, 85769, Note_on_c, 11, 76, 0
9, 85770, Note_on_c, 11, 77, 76
9, 85799, Note_on_c, 11, 77, 0
9, 85800, Note_on_c, 11, 74, 76
9, 85829, Note_on_c, 11, 74, 0
9, 85830, Note_on_c, 11, 76, 76
9, 85859, Note_on_c, 11, 76, 0
9, 85860, Note_on_c, 11, 76, 76
9, 85904, Note_on_c, 11, 76, 0
9, 85920, Note_on_c, 11, 76, 76
9, 85964, Note_on_c, 11, 76, 0
9, 85980, Note_on_c, 11, 69, 76
9, 86024, Note_on_c, 11, 69, 0
9, 86040, Note_on_c, 11, 71, 76
9, 86084, Note_on_c, 11, 71, 0
9, 86100, Note_on_c, 11, 72, 76
9, 86144, Note_on_c, 11, 72, 0
9, 86160, Note_on_c, 11, 74, 76
9, 86324, Note_on_c, 11, 74, 0
9, 86340, Note_on_c, 11, 74, 76
9, 86384, Note_on_c, 11, 74, 0
9, 86400, Note_on_c, 11, 74, 76
9, 86444, Note_on_c, 11, 74, 0
9, 86460, Note_on_c, 11, 72, 76
9, 86504, Note_on_c, 11, 72, 0
9, 86520, Note_on_c, 11, 74, 76
9, 86564, Note_on_c, 11, 74, 0
9, 86580, Note_on_c, 11, 71, 76
9, 86624, Note_on_c, 11, 71, 0
9, 86640, Note_on_c, 11, 72, 76
9, 86684, Note_on_c, 11, 72, 0
9, 86700, Note_on_c, 11, 76, 76
9, 86744, Note_on_c, 11, 76, 0
9, 86760, Note_on_c, 11, 74, 76
9, 86804, Note_on_c, 11, 74, 0
9, 86820, Note_on_c, 11, 76, 76
9, 86864, Note_on_c, 11, 76, 0
9, 86880, Note_on_c, 11, 77, 76
9, 86924, Note_on_c, 11, 77, 0
9, 86940, Note_on_c, 11, 79, 76
9, 86984, Note_on_c, 11, 79, 0
9, 87000, Note_on_c, 11, 77, 76
9, 87044, Note_on_c, 11, 77, 0
9, 87060, Note_on_c, 11, 76, 76
9, 87104, Note_on_c, 11, 76, 0
9, 87120, Note_on_c, 11, 74, 76
9, 87164, Note_on_c, 11, 74, 0
9, 87180, Note_on_c, 11, 72, 76
9, 87224, Note_on_c, 11, 72, 0
9, 87240, Note_on_c, 11, 74, 76
9, 87284, Note_on_c, 11, 74, 0
9, 87300, Note_on_c, 11, 71, 76
9, 87344, Note_on_c, 11, 71, 0
9, 87360, Note_on_c, 11, 72, 76
9, 87404, Note_on_c, 11, 72, 0
9, 87420, Note_on_c, 11, 74, 76
9, 87464, Note_on_c, 11, 74, 0
9, 87480, Note_on_c, 11, 76, 76
9, 87524, Note_on_c, 11, 76, 0
9, 87540, Note_on_c, 11, 77, 76
9, 87584, Note_on_c, 11, 77, 0
9, 87600, Note_on_c, 11, 79, 76
9, 87644, Note_on_c, 11, 79, 0
9, 87660, Note_on_c, 11, 81, 76
9, 87704, Note_on_c, 11, 81, 0
9, 87720, Note_on_c, 11, 82, 76
9, 87764, Note_on_c, 11, 82, 0
9, 87780, Note_on_c, 11, 79, 76
9, 87824, Note_on_c, 11, 79, 0
9, 87840, Note_on_c, 11, 81, 76
9, 87884, Note_on_c, 11, 81, 0
9, 87900, Note_on_c, 11, 82, 76
9, 87944, Note_on_c, 11, 82, 0
9, 87960, Note_on_c, 11, 81, 76
9, 88004, Note_on_c, 11, 81, 0
9, 88020, Note_on_c, 11, 79, 76
9, 88064, Note_on_c, 11, 79, 0
9, 88080, Note_on_c, 11, 77, 76
9, 88124, Note_on_c, 11, 77, 0
9, 88140, Note_on_c, 11, 76, 76
9, 88184, Note_on_c, 11, 76, 0
9, 88200, Note_on_c, 11, 74, 76
9, 88244, Note_on_c, 11, 74, 0
9, 88260, Note_on_c, 11, 72, 76
9, 88304, Note_on_c, 11, 72, 0
9, 88320, Note_on_c, 11, 71, 76
9, 88424, Note_on_c, 11, 71, 0
9, 88440, Note_on_c, 11, 79, 76
9, 88544, Note_on_c, 11, 79, 0
9, 88560, Note_on_c, 11, 79, 76
9, 88664, Note_on_c, 11, 79, 0
9, 88680, Note_on_c, 11, 79, 76
9, 88784, Note_on_c, 11, 79, 0
9, 88800, Note_on_c, 11, 76, 76
9, 88904, Note_on_c, 11, 76, 0
9, 88920, Note_on_c, 11, 77, 76
9, 88964, Note_on_c, 11, 77, 0
9, 88980, Note_on_c, 11, 79, 76
9, 89024, Note_on_c, 11, 79, 0
9, 89040, Note_on_c, 11, 81, 76
9, 89144, Note_on_c, 11, 81, 0
9, 89160, Note_on_c, 11, 77, 76
9, 89264, Note_on_c, 11, 77, 0
9, 89280, Note_on_c, 11, 74, 76
9, 89384, Note_on_c, 11, 74, 0
9, 89400, Note_on_c, 11, 79, 76
9, 89504, Note_on_c, 11, 79, 0
9, 89520, Note_on_c, 11, 67, 76
9, 89624, Note_on_c, 11, 67, 0
9, 89640, Note_on_c, 11, 77, 76
9, 89744, Note_on_c, 11, 77, 0
9, 89760, Note_on_c, 11, 76, 76
9, 89804, Note_on_c, 11, 76, 0
9, 89820, Note_on_c, 11, 74, 76
9, 89864, Note_on_c, 11, 74, 0
9, 89880, Note_on_c, 11, 72, 76
9, 89924, Note_on_c, 11, 72, 0
9, 89940, Note_on_c, 11, 74, 76
9, 89984, Note_on_c, 11, 74, 0
9, 90000, Note_on_c, 11, 76, 76
9, 90044, Note_on_c, 11, 76, 0
9, 90060, Note_on_c, 11, 74, 76
9, 90104, Note_on_c, 11, 74, 0
9, 90120, Note_on_c, 11, 76, 76
9, 90164, Note_on_c, 11, 76, 0
9, 90180, Note_on_c, 11, 78, 76
9, 90224, Note_on_c, 11, 78, 0
9, 90240, Note_on_c, 11, 79, 76
9, 90404, Note_on_c, 11, 79, 0
9, 90420, Note_on_c, 11, 74, 76
9, 90464, Note_on_c, 11, 74, 0
9, 90480, Note_on_c, 11, 79, 76
9, 90644, Note_on_c, 11, 79, 0
9, 90660, Note_on_c, 11, 79, 76
9, 90704, Note_on_c, 11, 79, 0
9, 90720, Note_on_c, 11, 79, 76
9, 90884, Note_on_c, 11, 79, 0
9, 90900, Note_on_c, 11, 78, 76
9, 90919, Note_on_c, 11, 78, 0
9, 90920, Note_on_c, 11, 76, 76
9, 90939, Note_on_c, 11, 76, 0
9, 90940, Note_on_c, 11, 78, 76
9, 90959, Note_on_c, 11, 78, 0
9, 90960, Note_on_c, 11, 78, 76
9, 90989, Note_on_c, 11, 78, 0
9, 90990, Note_on_c, 11, 79, 76
9, 91019, Note_on_c, 11, 79, 0
9, 91020, Note_on_c, 11, 78, 76
9, 91049, Note_on_c, 11, 78, 0
9, 91050, Note_on_c, 11, 79, 76
9, 91079, Note_on_c, 11, 79, 0
9, 91080, Note_on_c, 11, 76, 76
9, 91109, Note_on_c, 11, 76, 0
9, 91110, Note_on_c, 11, 78, 76
9, 91139, Note_on_c, 11, 78, 0
9, 91140, Note_on_c, 11, 79, 76
9, 91184, Note_on_c, 11, 79, 0
9, 91200, Note_on_c, 11, 79, 76
9, 91304, Note_on_c, 11, 79, 0
9, 91320, Note_on_c, 11, 77, 76
9, 91364, Note_on_c, 11, 77, 0
9, 91380, Note_on_c, 11, 76, 76
9, 91424, Note_on_c, 11, 76, 0
9, 91440, Note_on_c, 11, 74, 76
9, 91484, Note_on_c, 11, 74, 0
9, 91500, Note_on_c, 11, 71, 76
9, 91544, Note_on_c, 11, 71, 0
9, 91560, Note_on_c, 11, 72, 76
9, 91604, Note_on_c, 11, 72, 0
9, 91620, Note_on_c, 11, 74, 76
9, 91664, Note_on_c, 11, 74, 0
9, 91680, Note_on_c, 11, 67, 76
9, 91784, Note_on_c, 11, 67, 0
9, 91800, Note_on_c, 11, 79, 76
9, 91904, Note_on_c, 11, 79, 0
9, 91920, Note_on_c, 11, 76, 76
9, 92024, Note_on_c, 11, 76, 0
9, 92040, Note_on_c, 11, 81, 76
9, 92144, Note_on_c, 11, 81, 0
9, 92160, Note_on_c, 11, 77, 76
9, 92204, Note_on_c, 11, 77, 0
9, 92220, Note_on_c, 11, 79, 76
9, 92264, Note_on_c, 11, 79, 0
9, 92280, Note_on_c, 11, 77, 76
9, 92324, Note_on_c, 11, 77, 0
9, 92340, Note_on_c, 11, 76, 76
9, 92384, Note_on_c, 11, 76, 0
9, 92400, Note_on_c, 11, 74, 76
9, 92444, Note_on_c, 11, 74, 0
9, 92460, Note_on_c, 11, 77, 76
9, 92504, Note_on_c, 11, 77, 0
9, 92520, Note_on_c, 11, 76, 76
9, 92564, Note_on_c, 11, 76, 0
9, 92580, Note_on_c, 11, 74, 76
9, 92624, Note_on_c, 11, 74, 0
9, 92640, Note_on_c, 11, 79, 76
9, 92684, Note_on_c, 11, 79, 0
9, 92700, Note_on_c, 11, 77, 76
9, 92744, Note_on_c, 11, 77, 0
9, 92760, Note_on_c, 11, 76, 76
9, 92804, Note_on_c, 11, 76, 0
9, 92820, Note_on_c, 11, 74, 76
9, 92864, Note_on_c, 11, 74, 0
9, 92880, Note_on_c, 11, 72, 76
9, 92924, Note_on_c, 11, 72, 0
9, 92940, Note_on_c, 11, 71, 76
9, 92984, Note_on_c, 11, 71, 0
9, 93000, Note_on_c, 11, 72, 76
9, 93044, Note_on_c, 11, 72, 0
9, 93060, Note_on_c, 11, 69, 76
9, 93104, Note_on_c, 11, 69, 0
9, 93120, Note_on_c, 11, 74, 76
9, 93224, Note_on_c, 11, 74, 0
9, 93240, Note_on_c, 11, 76, 76
9, 93284, Note_on_c, 11, 76, 0
9, 93300, Note_on_c, 11, 78, 76
9, 93344, Note_on_c, 11, 78, 0
9, 93360, Note_on_c, 11, 79, 76
9, 93464, Note_on_c, 11, 79, 0
9, 93480, Note_on_c, 11, 81, 76
9, 93524, Note_on_c, 11, 81, 0
9, 93540, Note_on_c, 11, 83, 76
9, 93584, Note_on_c, 11, 83, 0
9, 93600, Note_on_c, 11, 84, 76
9, 93764, Note_on_c, 11, 84, 0
9, 93780, Note_on_c, 11, 83, 76
9, 93824, Note_on_c, 11, 83, 0
9, 93840, Note_on_c, 11, 81, 76
9, 93869, Note_on_c, 11, 81, 0
9, 93870, Note_on_c, 11, 83, 76
9, 93899, Note_on_c, 11, 83, 0
9, 93900, Note_on_c, 11, 81, 76
9, 93929, Note_on_c, 11, 81, 0
9, 93930, Note_on_c, 11, 83, 76
9, 93959, Note_on_c, 11, 83, 0
9, 93960, Note_on_c, 11, 79, 76
9, 93989, Note_on_c, 11, 79, 0
9, 93990, Note_on_c, 11, 81, 76
9, 94019, Note_on_c, 11, 81, 0
9, 94020, Note_on_c, 11, 79, 76
9, 94064, Note_on_c, 11, 79, 0
9, 94080, Note_on_c, 11, 79, 76
9, 94184, Note_on_c, 11, 79, 0
9, 94200, Note_on_c, 11, 77, 76
9, 94244, Note_on_c, 11, 77, 0
9, 94260, Note_on_c, 11, 76, 76
9, 94304, Note_on_c, 11, 76, 0
9, 94320, Note_on_c, 11, 74, 76
9, 94364, Note_on_c, 11, 74, 0
9, 94380, Note_on_c, 11, 76, 76
9, 94424, Note_on_c, 11, 76, 0
9, 94440, Note_on_c, 11, 77, 76
9, 94484, Note_on_c, 11, 77, 0
9, 94500, Note_on_c, 11, 74, 76
9, 94544, Note_on_c, 11, 74, 0
9, 94560, Note_on_c, 11, 76, 76
9, 94664, Note_on_c, 11, 76, 0
9, 94680, Note_on_c, 11, 72, 76
9, 94784, Note_on_c, 11, 72, 0
9, 94800, Note_on_c, 11, 84, 76
9, 94964, Note_on_c, 11, 84, 0
9, 94980, Note_on_c, 11, 84, 76
9, 95024, Note_on_c, 11, 84, 0
9, 95040, Note_on_c, 11, 84, 76
9, 95084, Note_on_c, 11, 84, 0
9, 95100, Note_on_c, 11, 82, 76
9, 95144, Note_on_c, 11, 82, 0
9, 95160, Note_on_c, 11, 84, 76
9, 95204, Note_on_c, 11, 84, 0
9, 95220, Note_on_c, 11, 81, 76
9, 95264, Note_on_c, 11, 81, 0
9, 95280, Note_on_c, 11, 82, 76
9, 95444, Note_on_c, 11, 82, 0
9, 95460, Note_on_c, 11, 82, 76
9, 95504, Note_on_c, 11, 82, 0
9, 95520, Note_on_c, 11, 82, 76
9, 95624, Note_on_c, 11, 82, 0
9, 95640, Note_on_c, 11, 76, 76
9, 95744, Note_on_c, 11, 76, 0
9, 95760, Note_on_c, 11, 81, 76
9, 95924, Note_on_c, 11, 81, 0
9, 95940, Note_on_c, 11, 81, 76
9, 95984, Note_on_c, 11, 81, 0
9, 96000, Note_on_c, 11, 81, 76
9, 96044, Note_on_c, 11, 81, 0
9, 96060, Note_on_c, 11, 79, 76
9, 96104, Note_on_c, 11, 79, 0
9, 96120, Note_on_c, 11, 81, 76
9, 96164, Note_on_c, 11, 81, 0
9, 96180, Note_on_c, 11, 77, 76
9, 96224, Note_on_c, 11, 77, 0
9, 96240, Note_on_c, 11, 79, 76
9, 96404, Note_on_c, 11, 79, 0
9, 96420, Note_on_c, 11, 79, 76
9, 96464, Note_on_c, 11, 79, 0
9, 96480, Note_on_c, 11, 79, 76
9, 96584, Note_on_c, 11, 79, 0
9, 96600, Note_on_c, 11, 72, 76
9, 96704, Note_on_c, 11, 72, 0
9, 96720, Note_on_c, 11, 77, 76
9, 96884, Note_on_c, 11, 77, 0
9, 96900, Note_on_c, 11, 77, 76
9, 96944, Note_on_c, 11, 77, 0
9, 96960, Note_on_c, 11, 77, 76
9, 97004, Note_on_c, 11, 77, 0
9, 97020, Note_on_c, 11, 81, 76
9, 97064, Note_on_c, 11, 81, 0
9, 97080, Note_on_c, 11, 79, 76
9, 97124, Note_on_c, 11, 79, 0
9, 97140, Note_on_c, 11, 77, 76
9, 97184, Note_on_c, 11, 77, 0
9, 97200, Note_on_c, 11, 76, 76
9, 97244, Note_on_c, 11, 76, 0
9, 97260, Note_on_c, 11, 74, 76
9, 97304, Note_on_c, 11, 74, 0
9, 97320, Note_on_c, 11, 72, 76
9, 97364, Note_on_c, 11, 72, 0
9, 97380, Note_on_c, 11, 71, 76
9, 97424, Note_on_c, 11, 71, 0
9, 97440, Note_on_c, 11, 72, 76
9, 97484, Note_on_c, 11, 72, 0
9, 97500, Note_on_c, 11, 76, 76
9, 97544, Note_on_c, 11, 76, 0
9, 97560, Note_on_c, 11, 81, 76
9, 97604, Note_on_c, 11, 81, 0
9, 97620, Note_on_c, 11, 79, 76
9, 97664, Note_on_c, 11, 79, 0
9, 97680, Note_on_c, 11, 77, 76
9, 97724, Note_on_c, 11, 77, 0
9, 97740, Note_on_c, 11, 76, 76
9, 97784, Note_on_c, 11, 76, 0
9, 97800, Note_on_c, 11, 74, 76
9, 97844, Note_on_c, 11, 74, 0
9, 97860, Note_on_c, 11, 72, 76
9, 97904, Note_on_c, 11, 72, 0
9, 97920, Note_on_c, 11, 71, 76
9, 97964, Note_on_c, 11, 71, 0
9, 97980, Note_on_c, 11, 69, 76
9, 98024, Note_on_c, 11, 69, 0
9, 98040, Note_on_c, 11, 67, 76
9, 98084, Note_on_c, 11, 67, 0
9, 98100, Note_on_c, 11, 69, 76
9, 98144, Note_on_c, 11, 69, 0
9, 98160, Note_on_c, 11, 71, 76
9, 98204, Note_on_c, 11, 71, 0
9, 98220, Note_on_c, 11, 69, 76
9, 98264, Note_on_c, 11, 69, 0
9, 98280, Note_on_c, 11, 71, 76
9, 98324, Note_on_c, 11, 71, 0
9, 98340, Note_on_c, 11, 67, 76
9, 98384, Note_on_c, 11, 67, 0
9, 98400, Note_on_c, 11, 72, 76
9, 98564, Note_on_c, 11, 72, 0
9, 98580, Note_on_c, 11, 74, 76
9, 98624, Note_on_c, 11, 74, 0
9, 98640, Note_on_c, 11, 71, 76
9, 98669, Note_on_c, 11, 71, 0
9, 98670, Note_on_c, 11, 72, 76
9, 98699, Note_on_c, 11, 72, 0
9, 98700, Note_on_c, 11, 71, 76
9, 98729, Note_on_c, 11, 71, 0
9, 98730, Note_on_c, 11, 72, 76
9, 98759, Note_on_c, 11, 72, 0
9, 98760, Note_on_c, 11, 69, 76
9, 98789, Note_on_c, 11, 69, 0
9, 98790, Note_on_c, 11, 71, 76
9, 98819, Note_on_c, 11, 71, 0
9, 98820, Note_on_c, 11, 72, 76
9, 98864, Note_on_c, 11, 72, 0
9, 98880, Note_on_c, 11, 72, 76
9, 98924, Note_on_c, 11, 72, 0
9, 98940, Note_on_c, 11, 77, 76
9, 98984, Note_on_c, 11, 77, 0
9, 99000, Note_on_c, 11, 76, 76
9, 99044, Note_on_c, 11, 76, 0
9, 99060, Note_on_c, 11, 74, 76
9, 99104, Note_on_c, 11, 74, 0
9, 99120, Note_on_c, 11, 72, 76
9, 99164, Note_on_c, 11, 72, 0
9, 99180, Note_on_c, 11, 70, 76
9, 99224, Note_on_c, 11, 70, 0
9, 99240, Note_on_c, 11, 72, 76
9, 99284, Note_on_c, 11, 72, 0
9, 99300, Note_on_c, 11, 69, 76
9, 99344, Note_on_c, 11, 69, 0
9, 99360, Note_on_c, 11, 70, 76
9, 99479, Note_on_c, 11, 70, 0
9, 100380, Note_on_c, 11, 59, 76
9, 100424, Note_on_c, 11, 59, 0
9, 100440, Note_on_c, 11, 60, 76
9, 100484, Note_on_c, 11, 60, 0
9, 100500, Note_on_c, 11, 62, 76
9, 100544, Note_on_c, 11, 62, 0
9, 100560, Note_on_c, 11, 64, 76
9, 100604, Note_on_c, 11, 64, 0
9, 100620, Note_on_c, 11, 62, 76
9, 100664, Note_on_c, 11, 62, 0
9, 100680, Note_on_c, 11, 64, 76
9, 100724, Note_on_c, 11, 64, 0
9, 100740, Note_on_c, 11, 65, 76
9, 100784, Note_on_c, 11, 65, 0
9, 100800, Note_on_c, 11, 67, 76
9, 100844, Note_on_c, 11, 67, 0
9, 100860, Note_on_c, 11, 70, 76
9, 100904, Note_on_c, 11, 70, 0
9, 100920, Note_on_c, 11, 69, 76
9, 100964, Note_on_c, 11, 69, 0
9, 100980, Note_on_c, 11, 67, 76
9, 101024, Note_on_c, 11, 67, 0
9, 101040, Note_on_c, 11, 65, 76
9, 101084, Note_on_c, 11, 65, 0
9, 101100, Note_on_c, 11, 64, 76
9, 101144, Note_on_c, 11, 64, 0
9, 101160, Note_on_c, 11, 65, 76
9, 101204, Note_on_c, 11, 65, 0
9, 101220, Note_on_c, 11, 62, 76
9, 101264, Note_on_c, 11, 62, 0
9, 101280, Note_on_c, 11, 67, 76
9, 101324, Note_on_c, 11, 67, 0
9, 101340, Note_on_c, 11, 65, 76
9, 101384, Note_on_c, 11, 65, 0
9, 101400, Note_on_c, 11, 67, 76
9, 101444, Note_on_c, 11, 67, 0
9, 101460, Note_on_c, 11, 69, 76
9, 101504, Note_on_c, 11, 69, 0
9, 101520, Note_on_c, 11, 67, 76
9, 101564, Note_on_c, 11, 67, 0
9, 101580, Note_on_c, 11, 65, 76
9, 101624, Note_on_c, 11, 65, 0
9, 101640, Note_on_c, 11, 64, 76
9, 101684, Note_on_c, 11, 64, 0
9, 101700, Note_on_c, 11, 62, 76
9, 101744, Note_on_c, 11, 62, 0
9, 101760, Note_on_c, 11, 60, 76
9, 101804, Note_on_c, 11, 60, 0
9, 101820, Note_on_c, 11, 76, 76
9, 101864, Note_on_c, 11, 76, 0
9, 101880, Note_on_c, 11, 77, 76
9, 101924, Note_on_c, 11, 77, 0
9, 101940, Note_on_c, 11, 79, 76
9, 101984, Note_on_c, 11, 79, 0
9, 102000, Note_on_c, 11, 81, 76
9, 102044, Note_on_c, 11, 81, 0
9, 102060, Note_on_c, 11, 79, 76
9, 102104, Note_on_c, 11, 79, 0
9, 102120, Note_on_c, 11, 77, 76
9, 102164, Note_on_c, 11, 77, 0
9, 102180, Note_on_c, 11, 76, 76
9, 102224, Note_on_c, 11, 76, 0
9, 102240, Note_on_c, 11, 74, 76
9, 102284, Note_on_c, 11, 74, 0
9, 102300, Note_on_c, 11, 77, 76
9, 102344, Note_on_c, 11, 77, 0
9, 102360, Note_on_c, 11, 76, 76
9, 102404, Note_on_c, 11, 76, 0
9, 102420, Note_on_c, 11, 77, 76
9, 102464, Note_on_c, 11, 77, 0
9, 102480, Note_on_c, 11, 79, 76
9, 102524, Note_on_c, 11, 79, 0
9, 102540, Note_on_c, 11, 77, 76
9, 102584, Note_on_c, 11, 77, 0
9, 102600, Note_on_c, 11, 76, 76
9, 102644, Note_on_c, 11, 76, 0
9, 102660, Note_on_c, 11, 74, 76
9, 102704, Note_on_c, 11, 74, 0
9, 102720, Note_on_c, 11, 72, 76
9, 102764, Note_on_c, 11, 72, 0
9, 102780, Note_on_c, 11, 76, 76
9, 102824, Note_on_c, 11, 76, 0
9, 102840, Note_on_c, 11, 74, 76
9, 102884, Note_on_c, 11, 74, 0
9, 102900, Note_on_c, 11, 76, 76
9, 102944, Note_on_c, 11, 76, 0
9, 102960, Note_on_c, 11, 77, 76
9, 103124, Note_on_c, 11, 77, 0
9, 103140, Note_on_c, 11, 77, 76
9, 103184, Note_on_c, 11, 77, 0
9, 103200, Note_on_c, 11, 77, 76
9, 103244, Note_on_c, 11, 77, 0
9, 103260, Note_on_c, 11, 76, 76
9, 103304, Note_on_c, 11, 76, 0
9, 103320, Note_on_c, 11, 77, 76
9, 103364, Note_on_c, 11, 77, 0
9, 103380, Note_on_c, 11, 74, 76
9, 103424, Note_on_c, 11, 74, 0
9, 103440, Note_on_c, 11, 76, 76
9, 103484, Note_on_c, 11, 76, 0
9, 103500, Note_on_c, 11, 79, 76
9, 103544, Note_on_c, 11, 79, 0
9, 103560, Note_on_c, 11, 77, 76
9, 103604, Note_on_c, 11, 77, 0
9, 103620, Note_on_c, 11, 79, 76
9, 103664, Note_on_c, 11, 79, 0
9, 103680, Note_on_c, 11, 81, 76
9, 103964, Note_on_c, 11, 81, 0
9, 103980, Note_on_c, 11, 74, 76
9, 104024, Note_on_c, 11, 74, 0
9, 104040, Note_on_c, 11, 76, 76
9, 104084, Note_on_c, 11, 76, 0
9, 104100, Note_on_c, 11, 77, 76
9, 104144, Note_on_c, 11, 77, 0
9, 104160, Note_on_c, 11, 79, 76
9, 104444, Note_on_c, 11, 79, 0
9, 104460, Note_on_c, 11, 72, 76
9, 104504, Note_on_c, 11, 72, 0
9, 104520, Note_on_c, 11, 74, 76
9, 104564, Note_on_c, 11, 74, 0
9, 104580, Note_on_c, 11, 76, 76
9, 104624, Note_on_c, 11, 76, 0
9, 104640, Note_on_c, 11, 77, 76
9, 104684, Note_on_c, 11, 77, 0
9, 104700, Note_on_c, 11, 76, 76
9, 104744, Note_on_c, 11, 76, 0
9, 104760, Note_on_c, 11, 74, 76
9, 104804, Note_on_c, 11, 74, 0
9, 104820, Note_on_c, 11, 72, 76
9, 104864, Note_on_c, 11, 72, 0
9, 104880, Note_on_c, 11, 71, 76
9, 104924, Note_on_c, 11, 71, 0
9, 104940, Note_on_c, 11, 74, 76
9, 104984, Note_on_c, 11, 74, 0
9, 105000, Note_on_c, 11, 76, 76
9, 105044, Note_on_c, 11, 76, 0
9, 105060, Note_on_c, 11, 77, 76
9, 105104, Note_on_c, 11, 77, 0
9, 105120, Note_on_c, 11, 76, 76
9, 105164, Note_on_c, 11, 76, 0
9, 105180, Note_on_c, 11, 79, 76
9, 105224, Note_on_c, 11, 79, 0
9, 105240, Note_on_c, 11, 77, 76
9, 105284, Note_on_c, 11, 77, 0
9, 105300, Note_on_c, 11, 79, 76
9, 105344, Note_on_c, 11, 79, 0
9, 105360, Note_on_c, 11, 81, 76
9, 105404, Note_on_c, 11, 81, 0
9, 105420, Note_on_c, 11, 79, 76
9, 105464, Note_on_c, 11, 79, 0
9, 105480, Note_on_c, 11, 77, 76
9, 105524, Note_on_c, 11, 77, 0
9, 105540, Note_on_c, 11, 76, 76
9, 105584, Note_on_c, 11, 76, 0
9, 105600, Note_on_c, 11, 74, 76
9, 105644, Note_on_c, 11, 74, 0
9, 105660, Note_on_c, 11, 77, 76
9, 105704, Note_on_c, 11, 77, 0
9, 105720, Note_on_c, 11, 76, 76
9, 105764, Note_on_c, 11, 76, 0
9, 105780, Note_on_c, 11, 77, 76
9, 105824, Note_on_c, 11, 77, 0
9, 105840, Note_on_c, 11, 79, 76
9, 105884, Note_on_c, 11, 79, 0
9, 105900, Note_on_c, 11, 77, 76
9, 105944, Note_on_c, 11, 77, 0
9, 105960, Note_on_c, 11, 76, 76
9, 106004, Note_on_c, 11, 76, 0
9, 106020, Note_on_c, 11, 74, 76
9, 106064, Note_on_c, 11, 74, 0
9, 106080, Note_on_c, 11, 72, 76
9, 106124, Note_on_c, 11, 72, 0
9, 106140, Note_on_c, 11, 76, 76
9, 106184, Note_on_c, 11, 76, 0
9, 106200, Note_on_c, 11, 74, 76
9, 106244, Note_on_c, 11, 74, 0
9, 106260, Note_on_c, 11, 76, 76
9, 106304, Note_on_c, 11, 76, 0
9, 106320, Note_on_c, 11, 77, 76
9, 106364, Note_on_c, 11, 77, 0
9, 106380, Note_on_c, 11, 76, 76
9, 106424, Note_on_c, 11, 76, 0
9, 106440, Note_on_c, 11, 74, 76
9, 106484, Note_on_c, 11, 74, 0
9, 106500, Note_on_c, 11, 72, 76
9, 106544, Note_on_c, 11, 72, 0
9, 106560, Note_on_c, 11, 71, 76
9, 106604, Note_on_c, 11, 71, 0
9, 106620, Note_on_c, 11, 74, 76
9, 106664, Note_on_c, 11, 74, 0
9, 106680, Note_on_c, 11, 72, 76
9, 106724, Note_on_c, 11, 72, 0
9, 106740, Note_on_c, 11, 74, 76
9, 106784, Note_on_c, 11, 74, 0
9, 106800, Note_on_c, 11, 76, 76
9, 106844, Note_on_c, 11, 76, 0
9, 106860, Note_on_c, 11, 74, 76
9, 106904, Note_on_c, 11, 74, 0
9, 106920, Note_on_c, 11, 72, 76
9, 106964, Note_on_c, 11, 72, 0
9, 106980, Note_on_c, 11, 71, 76
9, 107024, Note_on_c, 11, 71, 0
9, 107040, Note_on_c, 11, 69, 76
9, 107084, Note_on_c, 11, 69, 0
9, 107100, Note_on_c, 11, 72, 76
9, 107144, Note_on_c, 11, 72, 0
9, 107160, Note_on_c, 11, 71, 76
9, 107204, Note_on_c, 11, 71, 0
9, 107220, Note_on_c, 11, 72, 76
9, 107264, Note_on_c, 11, 72, 0
9, 107280, Note_on_c, 11, 74, 76
9, 107324, Note_on_c, 11, 74, 0
9, 107340, Note_on_c, 11, 72, 76
9, 107384, Note_on_c, 11, 72, 0
9, 107400, Note_on_c, 11, 71, 76
9, 107444, Note_on_c, 11, 71, 0
9, 107460, Note_on_c, 11, 69, 76
9, 107504, Note_on_c, 11, 69, 0
9, 107520, Note_on_c, 11, 71, 76
9, 107624, Note_on_c, 11, 71, 0
9, 107640, Note_on_c, 11, 79, 76
9, 107744, Note_on_c, 11, 79, 0
9, 107760, Note_on_c, 11, 79, 76
9, 107864, Note_on_c, 11, 79, 0
9, 107880, Note_on_c, 11, 79, 76
9, 107984, Note_on_c, 11, 79, 0
9, 108000, Note_on_c, 11, 76, 76
9, 108104, Note_on_c, 11, 76, 0
9, 108120, Note_on_c, 11, 77, 76
9, 108164, Note_on_c, 11, 77, 0
9, 108180, Note_on_c, 11, 79, 76
9, 108224, Note_on_c, 11, 79, 0
9, 108240, Note_on_c, 11, 81, 76
9, 108344, Note_on_c, 11, 81, 0
9, 108360, Note_on_c, 11, 77, 76
9, 108464, Note_on_c, 11, 77, 0
9, 108480, Note_on_c, 11, 74, 76
9, 108584, Note_on_c, 11, 74, 0
9, 108600, Note_on_c, 11, 79, 76
9, 108704, Note_on_c, 11, 79, 0
9, 108720, Note_on_c, 11, 67, 76
9, 108824, Note_on_c, 11, 67, 0
9, 108840, Note_on_c, 11, 77, 76
9, 108944, Note_on_c, 11, 77, 0
9, 108960, Note_on_c, 11, 76, 76
9, 109124, Note_on_c, 11, 76, 0
9, 109140, Note_on_c, 11, 74, 76
9, 109184, Note_on_c, 11, 74, 0
9, 109200, Note_on_c, 11, 74, 76
9, 109229, Note_on_c, 11, 74, 0
9, 109230, Note_on_c, 11, 76, 76
9, 109259, Note_on_c, 11, 76, 0
9, 109260, Note_on_c, 11, 74, 76
9, 109289, Note_on_c, 11, 74, 0
9, 109290, Note_on_c, 11, 76, 76
9, 109319, Note_on_c, 11, 76, 0
9, 109320, Note_on_c, 11, 72, 76
9, 109349, Note_on_c, 11, 72, 0
9, 109350, Note_on_c, 11, 74, 76
9, 109379, Note_on_c, 11, 74, 0
9, 109380, Note_on_c, 11, 72, 76
9, 109424, Note_on_c, 11, 72, 0
9, 109440, Note_on_c, 11, 72, 76
9, 109731, Note_on_c, 11, 72, 0
9, 109740, Note_on_c, 11, 72, 76
9, 109791, Note_on_c, 11, 72, 0
9, 109800, Note_on_c, 11, 70, 76
9, 109851, Note_on_c, 11, 70, 0
9, 109860, Note_on_c, 11, 69, 76
9, 109911, Note_on_c, 11, 69, 0
9, 109920, Note_on_c, 11, 67, 76
9, 110271, Note_on_c, 11, 67, 0
9, 110280, Note_on_c, 11, 69, 76
9, 110391, Note_on_c, 11, 69, 0
9, 110400, Note_on_c, 11, 70, 76
9, 110571, Note_on_c, 11, 70, 0
9, 110580, Note_on_c, 11, 70, 76
9, 110631, Note_on_c, 11, 70, 0
9, 110640, Note_on_c, 11, 72, 76
9, 110811, Note_on_c, 11, 72, 0
9, 110820, Note_on_c, 11, 74, 76
9, 110871, Note_on_c, 11, 74, 0
9, 110880, Note_on_c, 11, 67, 76
9, 111051, Note_on_c, 11, 67, 0
9, 111060, Note_on_c, 11, 67, 76
9, 111111, Note_on_c, 11, 67, 0
9, 111120, Note_on_c, 11, 69, 76
9, 111291, Note_on_c, 11, 69, 0
9, 111300, Note_on_c, 11, 70, 76
9, 111351, Note_on_c, 11, 70, 0
9, 111360, Note_on_c, 11, 69, 76
9, 111651, Note_on_c, 11, 69, 0
9, 111660, Note_on_c, 11, 69, 76
9, 111711, Note_on_c, 11, 69, 0
9, 111720, Note_on_c, 11, 71, 76
9, 111771, Note_on_c, 11, 71, 0
9, 111780, Note_on_c, 11, 73, 76
9, 111831, Note_on_c, 11, 73, 0
9, 111840, Note_on_c, 11, 74, 76
9, 111891, Note_on_c, 11, 74, 0
9, 111900, Note_on_c, 11, 73, 76
9, 111951, Note_on_c, 11, 73, 0
9, 111960, Note_on_c, 11, 74, 76
9, 112011, Note_on_c, 11, 74, 0
9, 112020, Note_on_c, 11, 76, 76
9, 112071, Note_on_c, 11, 76, 0
9, 112080, Note_on_c, 11, 77, 76
9, 112131, Note_on_c, 11, 77, 0
9, 112140, Note_on_c, 11, 76, 76
9, 112191, Note_on_c, 11, 76, 0
9, 112200, Note_on_c, 11, 77, 76
9, 112251, Note_on_c, 11, 77, 0
9, 112260, Note_on_c, 11, 74, 76
9, 112311, Note_on_c, 11, 74, 0
9, 112320, Note_on_c, 11, 79, 76
9, 112671, Note_on_c, 11, 79, 0
9, 112680, Note_on_c, 11, 79, 76
9, 112791, Note_on_c, 11, 79, 0
9, 112800, Note_on_c, 11, 79, 76
9, 112971, Note_on_c, 11, 79, 0
9, 112980, Note_on_c, 11, 81, 76
9, 113009, Note_on_c, 11, 81, 0
9, 113010, Note_on_c, 11, 82, 76
9, 113039, Note_on_c, 11, 82, 0
9, 113040, Note_on_c, 11, 81, 76
9, 113211, Note_on_c, 11, 81, 0
9, 113220, Note_on_c, 11, 79, 76
9, 113239, Note_on_c, 11, 79, 0
9, 113240, Note_on_c, 11, 77, 76
9, 113259, Note_on_c, 11, 77, 0
9, 113260, Note_on_c, 11, 76, 76
9, 113279, Note_on_c, 11, 76, 0
9, 113280, Note_on_c, 11, 77, 76
9, 113451, Note_on_c, 11, 77, 0
9, 113460, Note_on_c, 11, 74, 76
9, 113511, Note_on_c, 11, 74, 0
9, 113520, Note_on_c, 11, 77, 76
9, 113691, Note_on_c, 11, 77, 0
9, 113700, Note_on_c, 11, 81, 76
9, 113751, Note_on_c, 11, 81, 0
9, 113760, Note_on_c, 11, 78, 76
9, 113774, Note_on_c, 11, 78, 0
9, 113775, Note_on_c, 11, 79, 76
9, 113789, Note_on_c, 11, 79, 0
9, 113790, Note_on_c, 11, 78, 76
9, 113804, Note_on_c, 11, 78, 0
9, 113805, Note_on_c, 11, 79, 76
9, 113819, Note_on_c, 11, 79, 0
9, 113820, Note_on_c, 11, 78, 76
9, 113834, Note_on_c, 11, 78, 0
9, 113835, Note_on_c, 11, 79, 76
9, 113849, Note_on_c, 11, 79, 0
9, 113850, Note_on_c, 11, 78, 76
9, 113864, Note_on_c, 11, 78, 0
9, 113865, Note_on_c, 11, 79, 76
9, 113879, Note_on_c, 11, 79, 0
9, 113880, Note_on_c, 11, 78, 76
9, 113894, Note_on_c, 11, 78, 0
9, 113895, Note_on_c, 11, 79, 76
9, 113909, Note_on_c, 11, 79, 0
9, 113910, Note_on_c, 11, 78, 76
9, 113924, Note_on_c, 11, 78, 0
9, 113925, Note_on_c, 11, 79, 76
9, 113939, Note_on_c, 11, 79, 0
9, 113940, Note_on_c, 11, 78, 76
9, 113954, Note_on_c, 11, 78, 0
9, 113955, Note_on_c, 11, 79, 76
9, 113969, Note_on_c, 11, 79, 0
9, 113970, Note_on_c, 11, 78, 76
9, 113984, Note_on_c, 11, 78, 0
9, 113985, Note_on_c, 11, 79, 76
9, 113999, Note_on_c, 11, 79, 0
9, 114000, Note_on_c, 11, 78, 76
9, 114014, Note_on_c, 11, 78, 0
9, 114015, Note_on_c, 11, 79, 76
9, 114029, Note_on_c, 11, 79, 0
9, 114030, Note_on_c, 11, 78, 76
9, 114044, Note_on_c, 11, 78, 0
9, 114045, Note_on_c, 11, 79, 76
9, 114059, Note_on_c, 11, 79, 0
9, 114060, Note_on_c, 11, 78, 76
9, 114074, Note_on_c, 11, 78, 0
9, 114075, Note_on_c, 11, 79, 76
9, 114089, Note_on_c, 11, 79, 0
9, 114090, Note_on_c, 11, 78, 76
9, 114104, Note_on_c, 11, 78, 0
9, 114105, Note_on_c, 11, 79, 76
9, 114119, Note_on_c, 11, 79, 0
9, 114120, Note_on_c, 11, 76, 76
9, 114171, Note_on_c, 11, 76, 0
9, 114180, Note_on_c, 11, 78, 76
9, 114231, Note_on_c, 11, 78, 0
9, 114240, Note_on_c, 11, 79, 76
9, 114771, Note_on_c, 11, 79, 0
9, 114780, Note_on_c, 11, 81, 76
9, 114831, Note_on_c, 11, 81, 0
9, 114840, Note_on_c, 11, 79, 76
9, 114891, Note_on_c, 11, 79, 0
9, 114900, Note_on_c, 11, 77, 76
9, 114951, Note_on_c, 11, 77, 0
9, 114960, Note_on_c, 11, 76, 76
9, 115011, Note_on_c, 11, 76, 0
9, 115020, Note_on_c, 11, 74, 76
9, 115071, Note_on_c, 11, 74, 0
9, 115080, Note_on_c, 11, 76, 76
9, 115131, Note_on_c, 11, 76, 0
9, 115140, Note_on_c, 11, 72, 76
9, 115191, Note_on_c, 11, 72, 0
9, 115200, Note_on_c, 11, 81, 76
9, 115731, Note_on_c, 11, 81, 0
9, 115740, Note_on_c, 11, 79, 76
9, 115791, Note_on_c, 11, 79, 0
9, 115800, Note_on_c, 11, 81, 76
9, 115851, Note_on_c, 11, 81, 0
9, 115860, Note_on_c, 11, 83, 76
9, 115911, Note_on_c, 11, 83, 0
9, 115920, Note_on_c, 11, 84, 76
9, 115971, Note_on_c, 11, 84, 0
9, 115980, Note_on_c, 11, 81, 76
9, 116031, Note_on_c, 11, 81, 0
9, 116040, Note_on_c, 11, 83, 76
9, 116091, Note_on_c, 11, 83, 0
9, 116100, Note_on_c, 11, 84, 76
9, 116151, Note_on_c, 11, 84, 0
9, 116160, Note_on_c, 11, 77, 76
9, 116211, Note_on_c, 11, 77, 0
9, 116220, Note_on_c, 11, 76, 76
9, 116271, Note_on_c, 11, 76, 0
9, 116280, Note_on_c, 11, 77, 76
9, 116331, Note_on_c, 11, 77, 0
9, 116340, Note_on_c, 11, 79, 76
9, 116391, Note_on_c, 11, 79, 0
9, 116400, Note_on_c, 11, 81, 76
9, 116451, Note_on_c, 11, 81, 0
9, 116460, Note_on_c, 11, 77, 76
9, 116511, Note_on_c, 11, 77, 0
9, 116520, Note_on_c, 11, 79, 76
9, 116571, Note_on_c, 11, 79, 0
9, 116580, Note_on_c, 11, 81, 76
9, 116631, Note_on_c, 11, 81, 0
9, 116640, Note_on_c, 11, 71, 76
9, 116991, Note_on_c, 11, 71, 0
9, 117000, Note_on_c, 11, 72, 76
9, 117111, Note_on_c, 11, 72, 0
9, 117120, Note_on_c, 11, 74, 76
9, 117171, Note_on_c, 11, 74, 0
9, 117180, Note_on_c, 11, 71, 76
9, 117231, Note_on_c, 11, 71, 0
9, 117240, Note_on_c, 11, 67, 76
9, 117291, Note_on_c, 11, 67, 0
9, 117300, Note_on_c, 11, 69, 76
9, 117351, Note_on_c, 11, 69, 0
9, 117360, Note_on_c, 11, 71, 76
9, 117411, Note_on_c, 11, 71, 0
9, 117420, Note_on_c, 11, 72, 76
9, 117471, Note_on_c, 11, 72, 0
9, 117480, Note_on_c, 11, 74, 76
9, 117531, Note_on_c, 11, 74, 0
9, 117540, Note_on_c, 11, 76, 76
9, 117591, Note_on_c, 11, 76, 0
9, 117600, Note_on_c, 11, 77, 76
9, 117951, Note_on_c, 11, 77, 0
9, 117960, Note_on_c, 11, 77, 76
9, 118071, Note_on_c, 11, 77, 0
9, 118080, Note_on_c, 11, 77, 76
9, 118094, Note_on_c, 11, 77, 0
9, 118095, Note_on_c, 11, 79, 76
9, 118109, Note_on_c, 11, 79, 0
9, 118110, Note_on_c, 11, 77, 76
9, 118124, Note_on_c, 11, 77, 0
9, 118125, Note_on_c, 11, 79, 76
9, 118139, Note_on_c, 11, 79, 0
9, 118140, Note_on_c, 11, 77, 76
9, 118154, Note_on_c, 11, 77, 0
9, 118155, Note_on_c, 11, 79, 76
9, 118169, Note_on_c, 11, 79, 0
9, 118170, Note_on_c, 11, 77, 76
9, 118184, Note_on_c, 11, 77, 0
9, 118185, Note_on_c, 11, 79, 76
9, 118199, Note_on_c, 11, 79, 0
9, 118200, Note_on_c, 11, 77, 76
9, 118214, Note_on_c, 11, 77, 0
9, 118215, Note_on_c, 11, 79, 76
9, 118229, Note_on_c, 11, 79, 0
9, 118230, Note_on_c, 11, 76, 76
9, 118244, Note_on_c, 11, 76, 0
9, 118245, Note_on_c, 11, 77, 76
9, 118259, Note_on_c, 11, 77, 0
9, 118260, Note_on_c, 11, 76, 76
9, 118289, Note_on_c, 11, 76, 0
9, 118290, Note_on_c, 11, 74, 76
9, 118319, Note_on_c, 11, 74, 0
9, 118320, Note_on_c, 11, 76, 76
9, 118491, Note_on_c, 11, 76, 0
9, 118500, Note_on_c, 11, 77, 76
9, 118529, Note_on_c, 11, 77, 0
9, 118530, Note_on_c, 11, 79, 76
9, 118559, Note_on_c, 11, 79, 0
9, 118560, Note_on_c, 11, 70, 76
9, 118911, Note_on_c, 11, 70, 0
9, 118920, Note_on_c, 11, 70, 76
9, 119031, Note_on_c, 11, 70, 0
9, 119040, Note_on_c, 11, 70, 76
9, 119054, Note_on_c, 11, 70, 0
9, 119055, Note_on_c, 11, 72, 76
9, 119069, Note_on_c, 11, 72, 0
9, 119070, Note_on_c, 11, 70, 76
9, 119084, Note_on_c, 11, 70, 0
9, 119085, Note_on_c, 11, 72, 76
9, 119099, Note_on_c, 11, 72, 0
9, 119100, Note_on_c, 11, 70, 76
9, 119114, Note_on_c, 11, 70, 0
9, 119115, Note_on_c, 11, 72, 76
9, 119129, Note_on_c, 11, 72, 0
9, 119130, Note_on_c, 11, 70, 76
9, 119144, Note_on_c, 11, 70, 0
9, 119145, Note_on_c, 11, 72, 76
9, 119159, Note_on_c, 11, 72, 0
9, 119160, Note_on_c, 11, 70, 76
9, 119174, Note_on_c, 11, 70, 0
9, 119175, Note_on_c, 11, 72, 76
9, 119189, Note_on_c, 11, 72, 0
9, 119190, Note_on_c, 11, 69, 76
9, 119204, Note_on_c, 11, 69, 0
9, 119205, Note_on_c, 11, 70, 76
9, 119219, Note_on_c, 11, 70, 0
9, 119220, Note_on_c, 11, 69, 76
9, 119249, Note_on_c, 11, 69, 0
9, 119250, Note_on_c, 11, 67, 76
9, 119279, Note_on_c, 11, 67, 0
9, 119280, Note_on_c, 11, 69, 76
9, 119451, Note_on_c, 11, 69, 0
9, 119460, Note_on_c, 11, 71, 76
9, 119511, Note_on_c, 11, 71, 0
9, 119520, Note_on_c, 11, 72, 76
9, 119871, Note_on_c, 11, 72, 0
9, 119880, Note_on_c, 11, 72, 76
9, 119991, Note_on_c, 11, 72, 0
9, 120000, Note_on_c, 11, 72, 76
9, 120014, Note_on_c, 11, 72, 0
9, 120015, Note_on_c, 11, 74, 76
9, 120029, Note_on_c, 11, 74, 0
9, 120030, Note_on_c, 11, 72, 76
9, 120044, Note_on_c, 11, 72, 0
9, 120045, Note_on_c, 11, 74, 76
9, 120059, Note_on_c, 11, 74, 0
9, 120060, Note_on_c, 11, 72, 76
9, 120074, Note_on_c, 11, 72, 0
9, 120075, Note_on_c, 11, 74, 76
9, 120089, Note_on_c, 11, 74, 0
9, 120090, Note_on_c, 11, 72, 76
9, 120104, Note_on_c, 11, 72, 0
9, 120105, Note_on_c, 11, 74, 76
9, 120119, Note_on_c, 11, 74, 0
9, 120120, Note_on_c, 11, 72, 76
9, 120134, Note_on_c, 11, 72, 0
9, 120135, Note_on_c, 11, 74, 76
9, 120149, Note_on_c, 11, 74, 0
9, 120150, Note_on_c, 11, 71, 76
9, 120164, Note_on_c, 11, 71, 0
9, 120165, Note_on_c, 11, 72, 76
9, 120179, Note_on_c, 11, 72, 0
9, 120180, Note_on_c, 11, 71, 76
9, 120209, Note_on_c, 11, 71, 0
9, 120210, Note_on_c, 11, 69, 76
9, 120239, Note_on_c, 11, 69, 0
9, 120240, Note_on_c, 11, 77, 76
9, 120254, Note_on_c, 11, 77, 0
9, 120255, Note_on_c, 11, 79, 76
9, 120269, Note_on_c, 11, 79, 0
9, 120270, Note_on_c, 11, 77, 76
9, 120284, Note_on_c, 11, 77, 0
9, 120285, Note_on_c, 11, 79, 76
9, 120299, Note_on_c, 11, 79, 0
9, 120300, Note_on_c, 11, 77, 76
9, 120314, Note_on_c, 11, 77, 0
9, 120315, Note_on_c, 11, 79, 76
9, 120329, Note_on_c, 11, 79, 0
9, 120330, Note_on_c, 11, 77, 76
9, 120344, Note_on_c, 11, 77, 0
9, 120345, Note_on_c, 11, 79, 76
9, 120359, Note_on_c, 11, 79, 0
9, 120360, Note_on_c, 11, 77, 76
9, 120374, Note_on_c, 11, 77, 0
9, 120375, Note_on_c, 11, 79, 76
9, 120389, Note_on_c, 11, 79, 0
9, 120390, Note_on_c, 11, 76, 76
9, 120404, Note_on_c, 11, 76, 0
9, 120405, Note_on_c, 11, 77, 76
9, 120419, Note_on_c, 11, 77, 0
9, 120420, Note_on_c, 11, 76, 76
9, 120449, Note_on_c, 11, 76, 0
9, 120450, Note_on_c, 11, 74, 76
9, 120479, Note_on_c, 11, 74, 0
9, 120480, Note_on_c, 11, 83, 76
9, 120494, Note_on_c, 11, 83, 0
9, 120495, Note_on_c, 11, 84, 76
9, 120509, Note_on_c, 11, 84, 0
9, 120510, Note_on_c, 11, 83, 76
9, 120524, Note_on_c, 11, 83, 0
9, 120525, Note_on_c, 11, 84, 76
9, 120539, Note_on_c, 11, 84, 0
9, 120540, Note_on_c, 11, 83, 76
9, 120554, Note_on_c, 11, 83, 0
9, 120555, Note_on_c, 11, 84, 76
9, 120569, Note_on_c, 11, 84, 0
9, 120570, Note_on_c, 11, 83, 76
9, 120584, Note_on_c, 11, 83, 0
9, 120585, Note_on_c, 11, 84, 76
9, 120599, Note_on_c, 11, 84, 0
9, 120600, Note_on_c, 11, 83, 76
9, 120614, Note_on_c, 11, 83, 0
9, 120615, Note_on_c, 11, 84, 76
9, 120629, Note_on_c, 11, 84, 0
9, 120630, Note_on_c, 11, 81, 76
9, 120644, Note_on_c, 11, 81, 0
9, 120645, Note_on_c, 11, 83, 76
9, 120659, Note_on_c, 11, 83, 0
9, 120660, Note_on_c, 11, 81, 76
9, 120689, Note_on_c, 11, 81, 0
9, 120690, Note_on_c, 11, 79, 76
9, 120719, Note_on_c, 11, 79, 0
9, 120720, Note_on_c, 11, 86, 76
9, 120891, Note_on_c, 11, 86, 0
9, 120900, Note_on_c, 11, 77, 76
9, 120951, Note_on_c, 11, 77, 0
9, 120960, Note_on_c, 11, 77, 76
9, 121251, Note_on_c, 11, 77, 0
9, 121260, Note_on_c, 11, 81, 76
9, 121311, Note_on_c, 11, 81, 0
9, 121320, Note_on_c, 11, 79, 76
9, 121371, Note_on_c, 11, 79, 0
9, 121380, Note_on_c, 11, 77, 76
9, 121431, Note_on_c, 11, 77, 0
9, 121440, Note_on_c, 11, 76, 76
9, 121491, Note_on_c, 11, 76, 0
9, 121500, Note_on_c, 11, 72, 76
9, 121551, Note_on_c, 11, 72, 0
9, 121560, Note_on_c, 11, 74, 76
9, 121611, Note_on_c, 11, 74, 0
9, 121620, Note_on_c, 11, 76, 76
9, 121671, Note_on_c, 11, 76, 0
9, 121680, Note_on_c, 11, 77, 76
9, 121731, Note_on_c, 11, 77, 0
9, 121740, Note_on_c, 11, 79, 76
9, 121791, Note_on_c, 11, 79, 0
9, 121800, Note_on_c, 11, 81, 76
9, 121851, Note_on_c, 11, 81, 0
9, 121860, Note_on_c, 11, 82, 76
9, 121911, Note_on_c, 11, 82, 0
9, 121920, Note_on_c, 11, 81, 76
9, 121971, Note_on_c, 11, 81, 0
9, 121980, Note_on_c, 11, 79, 76
9, 122031, Note_on_c, 11, 79, 0
9, 122040, Note_on_c, 11, 77, 76
9, 122091, Note_on_c, 11, 77, 0
9, 122100, Note_on_c, 11, 76, 76
9, 122151, Note_on_c, 11, 76, 0
9, 122160, Note_on_c, 11, 77, 76
9, 122211, Note_on_c, 11, 77, 0
9, 122220, Note_on_c, 11, 74, 76
9, 122271, Note_on_c, 11, 74, 0
9, 122280, Note_on_c, 11, 76, 76
9, 122331, Note_on_c, 11, 76, 0
9, 122340, Note_on_c, 11, 77, 76
9, 122391, Note_on_c, 11, 77, 0
9, 122400, Note_on_c, 11, 67, 76
9, 122721, Note_on_c, 11, 67, 0
9, 122730, Note_on_c, 11, 69, 76
9, 122759, Note_on_c, 11, 69, 0
9, 122760, Note_on_c, 11, 71, 76
9, 122789, Note_on_c, 11, 71, 0
9, 122790, Note_on_c, 11, 72, 76
9, 122819, Note_on_c, 11, 72, 0
9, 122820, Note_on_c, 11, 74, 76
9, 122849, Note_on_c, 11, 74, 0
9, 122850, Note_on_c, 11, 76, 76
9, 122879, Note_on_c, 11, 76, 0
9, 122880, Note_on_c, 11, 77, 76
9, 123051, Note_on_c, 11, 77, 0
9, 123060, Note_on_c, 11, 74, 76
9, 123111, Note_on_c, 11, 74, 0
9, 123120, Note_on_c, 11, 76, 76
9, 123291, Note_on_c, 11, 76, 0
9, 123300, Note_on_c, 11, 77, 76
9, 123351, Note_on_c, 11, 77, 0
9, 123360, Note_on_c, 11, 74, 76
9, 123374, Note_on_c, 11, 74, 0
9, 123375, Note_on_c, 11, 76, 76
9, 123389, Note_on_c, 11, 76, 0
9, 123390, Note_on_c, 11, 74, 76
9, 123404, Note_on_c, 11, 74, 0
9, 123405, Note_on_c, 11, 76, 76
9, 123419, Note_on_c, 11, 76, 0
9, 123420, Note_on_c, 11, 74, 76
9, 123434, Note_on_c, 11, 74, 0
9, 123435, Note_on_c, 11, 76, 76
9, 123449, Note_on_c, 11, 76, 0
9, 123450, Note_on_c, 11, 74, 76
9, 123464, Note_on_c, 11, 74, 0
9, 123465, Note_on_c, 11, 76, 76
9, 123479, Note_on_c, 11, 76, 0
9, 123480, Note_on_c, 11, 74, 76
9, 123494, Note_on_c, 11, 74, 0
9, 123495, Note_on_c, 11, 76, 76
9, 123509, Note_on_c, 11, 76, 0
9, 123510, Note_on_c, 11, 74, 76
9, 123524, Note_on_c, 11, 74, 0
9, 123525, Note_on_c, 11, 76, 76
9, 123539, Note_on_c, 11, 76, 0
9, 123540, Note_on_c, 11, 74, 76
9, 123554, Note_on_c, 11, 74, 0
9, 123555, Note_on_c, 11, 76, 76
9, 123569, Note_on_c, 11, 76, 0
9, 123570, Note_on_c, 11, 74, 76
9, 123584, Note_on_c, 11, 74, 0
9, 123585, Note_on_c, 11, 76, 76
9, 123599, Note_on_c, 11, 76, 0
9, 123600, Note_on_c, 11, 74, 76
9, 123614, Note_on_c, 11, 74, 0
9, 123615, Note_on_c, 11, 76, 76
9, 123629, Note_on_c, 11, 76, 0
9, 123630, Note_on_c, 11, 74, 76
9, 123644, Note_on_c, 11, 74, 0
9, 123645, Note_on_c, 11, 76, 76
9, 123659, Note_on_c, 11, 76, 0
9, 123660, Note_on_c, 11, 74, 76
9, 123674, Note_on_c, 11, 74, 0
9, 123675, Note_on_c, 11, 76, 76
9, 123689, Note_on_c, 11, 76, 0
9, 123690, Note_on_c, 11, 72, 76
9, 123704, Note_on_c, 11, 72, 0
9, 123705, Note_on_c, 11, 74, 76
9, 123719, Note_on_c, 11, 74, 0
9, 123720, Note_on_c, 11, 72, 76
9, 123831, Note_on_c, 11, 72, 0
9, 123840, Note_on_c, 11, 72, 76
9, 123944, Note_on_c, 11, 72, 0
9, 123960, Note_on_c, 11, 79, 76
9, 124064, Note_on_c, 11, 79, 0
9, 124080, Note_on_c, 11, 79, 76
9, 124184, Note_on_c, 11, 79, 0
9, 124200, Note_on_c, 11, 79, 76
9, 124304, Note_on_c, 11, 79, 0
9, 124320, Note_on_c, 11, 76, 76
9, 124424, Note_on_c, 11, 76, 0
9, 124440, Note_on_c, 11, 77, 76
9, 124484, Note_on_c, 11, 77, 0
9, 124500, Note_on_c, 11, 79, 76
9, 124544, Note_on_c, 11, 79, 0
9, 124560, Note_on_c, 11, 81, 76
9, 124664, Note_on_c, 11, 81, 0
9, 124680, Note_on_c, 11, 77, 76
9, 124784, Note_on_c, 11, 77, 0
9, 124800, Note_on_c, 11, 74, 76
9, 124904, Note_on_c, 11, 74, 0
9, 124920, Note_on_c, 11, 79, 76
9, 125024, Note_on_c, 11, 79, 0
9, 125040, Note_on_c, 11, 67, 76
9, 125144, Note_on_c, 11, 67, 0
9, 125160, Note_on_c, 11, 77, 76
9, 125264, Note_on_c, 11, 77, 0
9, 125280, Note_on_c, 11, 76, 76
9, 125324, Note_on_c, 11, 76, 0
9, 125340, Note_on_c, 11, 74, 76
9, 125384, Note_on_c, 11, 74, 0
9, 125400, Note_on_c, 11, 72, 76
9, 125444, Note_on_c, 11, 72, 0
9, 125460, Note_on_c, 11, 74, 76
9, 125504, Note_on_c, 11, 74, 0
9, 125520, Note_on_c, 11, 76, 76
9, 125564, Note_on_c, 11, 76, 0
9, 125580, Note_on_c, 11, 74, 76
9, 125624, Note_on_c, 11, 74, 0
9, 125640, Note_on_c, 11, 76, 76
9, 125684, Note_on_c, 11, 76, 0
9, 125700, Note_on_c, 11, 78, 76
9, 125744, Note_on_c, 11, 78, 0
9, 125760, Note_on_c, 11, 79, 76
9, 125924, Note_on_c, 11, 79, 0
9, 125940, Note_on_c, 11, 74, 76
9, 125984, Note_on_c, 11, 74, 0
9, 126000, Note_on_c, 11, 79, 76
9, 126164, Note_on_c, 11, 79, 0
9, 126180, Note_on_c, 11, 79, 76
9, 126224, Note_on_c, 11, 79, 0
9, 126240, Note_on_c, 11, 79, 76
9, 126404, Note_on_c, 11, 79, 0
9, 126420, Note_on_c, 11, 78, 76
9, 126439, Note_on_c, 11, 78, 0
9, 126440, Note_on_c, 11, 76, 76
9, 126459, Note_on_c, 11, 76, 0
9, 126460, Note_on_c, 11, 78, 76
9, 126479, Note_on_c, 11, 78, 0
9, 126480, Note_on_c, 11, 78, 76
9, 126509, Note_on_c, 11, 78, 0
9, 126510, Note_on_c, 11, 79, 76
9, 126539, Note_on_c, 11, 79, 0
9, 126540, Note_on_c, 11, 78, 76
9, 126569, Note_on_c, 11, 78, 0
9, 126570, Note_on_c, 11, 79, 76
9, 126599, Note_on_c, 11, 79, 0
9, 126600, Note_on_c, 11, 76, 76
9, 126629, Note_on_c, 11, 76, 0
9, 126630, Note_on_c, 11, 78, 76
9, 126659, Note_on_c, 11, 78, 0
9, 126660, Note_on_c, 11, 79, 76
9, 126704, Note_on_c, 11, 79, 0
9, 126720, Note_on_c, 11, 79, 76
9, 126824, Note_on_c, 11, 79, 0
9, 126840, Note_on_c, 11, 77, 76
9, 126884, Note_on_c, 11, 77, 0
9, 126900, Note_on_c, 11, 76, 76
9, 126944, Note_on_c, 11, 76, 0
9, 126960, Note_on_c, 11, 74, 76
9, 127004, Note_on_c, 11, 74, 0
9, 127020, Note_on_c, 11, 71, 76
9, 127064, Note_on_c, 11, 71, 0
9, 127080, Note_on_c, 11, 72, 76
9, 127124, Note_on_c, 11, 72, 0
9, 127140, Note_on_c, 11, 74, 76
9, 127184, Note_on_c, 11, 74, 0
9, 127200, Note_on_c, 11, 67, 76
9, 127304, Note_on_c, 11, 67, 0
9, 127320, Note_on_c, 11, 79, 76
9, 127424, Note_on_c, 11, 79, 0
9, 127440, Note_on_c, 11, 76, 76
9, 127544, Note_on_c, 11, 76, 0
9, 127560, Note_on_c, 11, 81, 76
9, 127664, Note_on_c, 11, 81, 0
9, 127680, Note_on_c, 11, 77, 76
9, 127724, Note_on_c, 11, 77, 0
9, 127740, Note_on_c, 11, 79, 76
9, 127784, Note_on_c, 11, 79, 0
9, 127800, Note_on_c, 11, 77, 76
9, 127844, Note_on_c, 11, 77, 0
9, 127860, Note_on_c, 11, 76, 76
9, 127904, Note_on_c, 11, 76, 0
9, 127920, Note_on_c, 11, 74, 76
9, 127964, Note_on_c, 11, 74, 0
9, 127980, Note_on_c, 11, 77, 76
9, 128024, Note_on_c, 11, 77, 0
9, 128040, Note_on_c, 11, 76, 76
9, 128084, Note_on_c, 11, 76, 0
9, 128100, Note_on_c, 11, 74, 76
9, 128144, Note_on_c, 11, 74, 0
9, 128160, Note_on_c, 11, 79, 76
9, 128204, Note_on_c, 11, 79, 0
9, 128220, Note_on_c, 11, 77, 76
9, 128264, Note_on_c, 11, 77, 0
9, 128280, Note_on_c, 11, 76, 76
9, 128324, Note_on_c, 11, 76, 0
9, 128340, Note_on_c, 11, 74, 76
9, 128384, Note_on_c, 11, 74, 0
9, 128400, Note_on_c, 11, 72, 76
9, 128444, Note_on_c, 11, 72, 0
9, 128460, Note_on_c, 11, 71, 76
9, 128504, Note_on_c, 11, 71, 0
9, 128520, Note_on_c, 11, 72, 76
9, 128564, Note_on_c, 11, 72, 0
9, 128580, Note_on_c, 11, 69, 76
9, 128624, Note_on_c, 11, 69, 0
9, 128640, Note_on_c, 11, 74, 76
9, 128744, Note_on_c, 11, 74, 0
9, 128760, Note_on_c, 11, 76, 76
9, 128804, Note_on_c, 11, 76, 0
9, 128820, Note_on_c, 11, 78, 76
9, 128864, Note_on_c, 11, 78, 0
9, 128880, Note_on_c, 11, 79, 76
9, 128984, Note_on_c, 11, 79, 0
9, 129000, Note_on_c, 11, 81, 76
9, 129044, Note_on_c, 11, 81, 0
9, 129060, Note_on_c, 11, 83, 76
9, 129104, Note_on_c, 11, 83, 0
9, 129120, Note_on_c, 11, 84, 76
9, 129284, Note_on_c, 11, 84, 0
9, 129300, Note_on_c, 11, 83, 76
9, 129344, Note_on_c, 11, 83, 0
9, 129360, Note_on_c, 11, 81, 76
9, 129389, Note_on_c, 11, 81, 0
9, 129390, Note_on_c, 11, 83, 76
9, 129419, Note_on_c, 11, 83, 0
9, 129420, Note_on_c, 11, 81, 76
9, 129449, Note_on_c, 11, 81, 0
9, 129450, Note_on_c, 11, 83, 76
9, 129479, Note_on_c, 11, 83, 0
9, 129480, Note_on_c, 11, 79, 76
9, 129509, Note_on_c, 11, 79, 0
9, 129510, Note_on_c, 11, 81, 76
9, 129539, Note_on_c, 11, 81, 0
9, 129540, Note_on_c, 11, 79, 76
9, 129584, Note_on_c, 11, 79, 0
9, 129600, Note_on_c, 11, 79, 76
9, 129704, Note_on_c, 11, 79, 0
9, 129720, Note_on_c, 11, 77, 76
9, 129764, Note_on_c, 11, 77, 0
9, 129780, Note_on_c, 11, 76, 76
9, 129824, Note_on_c, 11, 76, 0
9, 129840, Note_on_c, 11, 74, 76
9, 129884, Note_on_c, 11, 74, 0
9, 129900, Note_on_c, 11, 76, 76
9, 129944, Note_on_c, 11, 76, 0
9, 129960, Note_on_c, 11, 77, 76
9, 130004, Note_on_c, 11, 77, 0
9, 130020, Note_on_c, 11, 74, 76
9, 130064, Note_on_c, 11, 74, 0
9, 130080, Note_on_c, 11, 76, 76
9, 130124, Note_on_c, 11, 76, 0
9, 130140, Note_on_c, 11, 79, 76
9, 130184, Note_on_c, 11, 79, 0
9, 130200, Note_on_c, 11, 77, 76
9, 130244, Note_on_c, 11, 77, 0
9, 130260, Note_on_c, 11, 79, 76
9, 130304, Note_on_c, 11, 79, 0
9, 130320, Note_on_c, 11, 81, 76
9, 130364, Note_on_c, 11, 81, 0
9, 130380, Note_on_c, 11, 79, 76
9, 130424, Note_on_c, 11, 79, 0
9, 130440, Note_on_c, 11, 77, 76
9, 130484, Note_on_c, 11, 77, 0
9, 130500, Note_on_c, 11, 76, 76
9, 130544, Note_on_c, 11, 76, 0
9, 130560, Note_on_c, 11, 74, 76
9, 130604, Note_on_c, 11, 74, 0
9, 130620, Note_on_c, 11, 77, 76
9, 130664, Note_on_c, 11, 77, 0
9, 130680, Note_on_c, 11, 76, 76
9, 130724, Note_on_c, 11, 76, 0
9, 130740, Note_on_c, 11, 77, 76
9, 130784, Note_on_c, 11, 77, 0
9, 130800, Note_on_c, 11, 79, 76
9, 130844, Note_on_c, 11, 79, 0
9, 130860, Note_on_c, 11, 77, 76
9, 130904, Note_on_c, 11, 77, 0
9, 130920, Note_on_c, 11, 76, 76
9, 130964, Note_on_c, 11, 76, 0
9, 130980, Note_on_c, 11, 74, 76
9, 131024, Note_on_c, 11, 74, 0
9, 131040, Note_on_c, 11, 72, 76
9, 131084, Note_on_c, 11, 72, 0
9, 131100, Note_on_c, 11, 76, 76
9, 131144, Note_on_c, 11, 76, 0
9, 131160, Note_on_c, 11, 74, 76
9, 131204, Note_on_c, 11, 74, 0
9, 131220, Note_on_c, 11, 76, 76
9, 131264, Note_on_c, 11, 76, 0
9, 131280, Note_on_c, 11, 77, 76
9, 131324, Note_on_c, 11, 77, 0
9, 131340, Note_on_c, 11, 76, 76
9, 131384, Note_on_c, 11, 76, 0
9, 131400, Note_on_c, 11, 74, 76
9, 131444, Note_on_c, 11, 74, 0
9, 131460, Note_on_c, 11, 72, 76
9, 131504, Note_on_c, 11, 72, 0
9, 131520, Note_on_c, 11, 71, 76
9, 131564, Note_on_c, 11, 71, 0
9, 131580, Note_on_c, 11, 74, 76
9, 131624, Note_on_c, 11, 74, 0
9, 131640, Note_on_c, 11, 72, 76
9, 131684, Note_on_c, 11, 72, 0
9, 131700, Note_on_c, 11, 74, 76
9, 131744, Note_on_c, 11, 74, 0
9, 131760, Note_on_c, 11, 76, 76
9, 131804, Note_on_c, 11, 76, 0
9, 131820, Note_on_c, 11, 74, 76
9, 131864, Note_on_c, 11, 74, 0
9, 131880, Note_on_c, 11, 72, 76
9, 131924, Note_on_c, 11, 72, 0
9, 131940, Note_on_c, 11, 71, 76
9, 131984, Note_on_c, 11, 71, 0
9, 132000, Note_on_c, 11, 69, 76
9, 132044, Note_on_c, 11, 69, 0
9, 132060, Note_on_c, 11, 72, 76
9, 132104, Note_on_c, 11, 72, 0
9, 132120, Note_on_c, 11, 71, 76
9, 132164, Note_on_c, 11, 71, 0
9, 132180, Note_on_c, 11, 72, 76
9, 132224, Note_on_c, 11, 72, 0
9, 132240, Note_on_c, 11, 74, 76
9, 132284, Note_on_c, 11, 74, 0
9, 132300, Note_on_c, 11, 72, 76
9, 132344, Note_on_c, 11, 72, 0
9, 132360, Note_on_c, 11, 71, 76
9, 132404, Note_on_c, 11, 71, 0
9, 132420, Note_on_c, 11, 69, 76
9, 132464, Note_on_c, 11, 69, 0
9, 132480, Note_on_c, 11, 71, 76
9, 132584, Note_on_c, 11, 71, 0
9, 132600, Note_on_c, 11, 79, 76
9, 132704, Note_on_c, 11, 79, 0
9, 132720, Note_on_c, 11, 79, 76
9, 132824, Note_on_c, 11, 79, 0
9, 132840, Note_on_c, 11, 79, 76
9, 132944, Note_on_c, 11, 79, 0
9, 132960, Note_on_c, 11, 76, 76
9, 133064, Note_on_c, 11, 76, 0
9, 133080, Note_on_c, 11, 77, 76
9, 133124, Note_on_c, 11, 77, 0
9, 133140, Note_on_c, 11, 79, 76
9, 133184, Note_on_c, 11, 79, 0
9, 133200, Note_on_c, 11, 81, 76
9, 133304, Note_on_c, 11, 81, 0
9, 133320, Note_on_c, 11, 77, 76
9, 133424, Note_on_c, 11, 77, 0
9, 133440, Note_on_c, 11, 74, 76
9, 133544, Note_on_c, 11, 74, 0
9, 133560, Note_on_c, 11, 79, 76
9, 133664, Note_on_c, 11, 79, 0
9, 133680, Note_on_c, 11, 67, 76
9, 133784, Note_on_c, 11, 67, 0
9, 133800, Note_on_c, 11, 77, 76
9, 133904, Note_on_c, 11, 77, 0
9, 133920, Note_on_c, 11, 76, 76
9, 134084, Note_on_c, 11, 76, 0
9, 134100, Note_on_c, 11, 74, 76
9, 134144, Note_on_c, 11, 74, 0
9, 134160, Note_on_c, 11, 74, 76
9, 134189, Note_on_c, 11, 74, 0
9, 134190, Note_on_c, 11, 76, 76
9, 134219, Note_on_c, 11, 76, 0
9, 134220, Note_on_c, 11, 74, 76
9, 134249, Note_on_c, 11, 74, 0
9, 134250, Note_on_c, 11, 76, 76
9, 134279, Note_on_c, 11, 76, 0
9, 134280, Note_on_c, 11, 72, 76
9, 134309, Note_on_c, 11, 72, 0
9, 134310, Note_on_c, 11, 74, 76
9, 134339, Note_on_c, 11, 74, 0
9, 134340, Note_on_c, 11, 72, 76
9, 134384, Note_on_c, 11, 72, 0
9, 134400, Note_on_c, 11, 72, 76
9, 134519, Note_on_c, 11, 72, 0
9, 139320, Note_on_c, 11, 76, 76
9, 139424, Note_on_c, 11, 76, 0
9, 139440, Note_on_c, 11, 76, 76
9, 139544, Note_on_c, 11, 76, 0
9, 139560, Note_on_c, 11, 76, 76
9, 139664, Note_on_c, 11, 76, 0
9, 139680, Note_on_c, 11, 72, 76
9, 139784, Note_on_c, 11, 72, 0
9, 139800, Note_on_c, 11, 74, 76
9, 139844, Note_on_c, 11, 74, 0
9, 139860, Note_on_c, 11, 76, 76
9, 139904, Note_on_c, 11, 76, 0
9, 139920, Note_on_c, 11, 77, 76
9, 140024, Note_on_c, 11, 77, 0
9, 140040, Note_on_c, 11, 74, 76
9, 140144, Note_on_c, 11, 74, 0
9, 140160, Note_on_c, 11, 71, 76
9, 140264, Note_on_c, 11, 71, 0
9, 140280, Note_on_c, 11, 76, 76
9, 140384, Note_on_c, 11, 76, 0
9, 140400, Note_on_c, 11, 64, 76
9, 140504, Note_on_c, 11, 64, 0
9, 140520, Note_on_c, 11, 76, 76
9, 140624, Note_on_c, 11, 76, 0
9, 140640, Note_on_c, 11, 69, 76
9, 140744, Note_on_c, 11, 69, 0
9, 140760, Note_on_c, 11, 71, 76
9, 140804, Note_on_c, 11, 71, 0
9, 140820, Note_on_c, 11, 72, 76
9, 140864, Note_on_c, 11, 72, 0
9, 140880, Note_on_c, 11, 74, 76
9, 141164, Note_on_c, 11, 74, 0
9, 141180, Note_on_c, 11, 77, 76
9, 141224, Note_on_c, 11, 77, 0
9, 141240, Note_on_c, 11, 76, 76
9, 141284, Note_on_c, 11, 76, 0
9, 141300, Note_on_c, 11, 74, 76
9, 141344, Note_on_c, 11, 74, 0
9, 141360, Note_on_c, 11, 72, 76
9, 141404, Note_on_c, 11, 72, 0
9, 141420, Note_on_c, 11, 71, 76
9, 141464, Note_on_c, 11, 71, 0
9, 141480, Note_on_c, 11, 72, 76
9, 141524, Note_on_c, 11, 72, 0
9, 141540, Note_on_c, 11, 69, 76
9, 141584, Note_on_c, 11, 69, 0
9, 141600, Note_on_c, 11, 81, 76
9, 141764, Note_on_c, 11, 81, 0
9, 141780, Note_on_c, 11, 83, 76
9, 141824, Note_on_c, 11, 83, 0
9, 141840, Note_on_c, 11, 80, 76
9, 141869, Note_on_c, 11, 80, 0
9, 141870, Note_on_c, 11, 81, 76
9, 141899, Note_on_c, 11, 81, 0
9, 141900, Note_on_c, 11, 80, 76
9, 141929, Note_on_c, 11, 80, 0
9, 141930, Note_on_c, 11, 81, 76
9, 141959, Note_on_c, 11, 81, 0
9, 141960, Note_on_c, 11, 77, 76
9, 141989, Note_on_c, 11, 77, 0
9, 141990, Note_on_c, 11, 80, 76
9, 142019, Note_on_c, 11, 80, 0
9, 142020, Note_on_c, 11, 81, 76
9, 142064, Note_on_c, 11, 81, 0
9, 142080, Note_on_c, 11, 81, 76
9, 142124, Note_on_c, 11, 81, 0
9, 142140, Note_on_c, 11, 83, 76
9, 142184, Note_on_c, 11, 83, 0
9, 142200, Note_on_c, 11, 84, 76
9, 142244, Note_on_c, 11, 84, 0
9, 142260, Note_on_c, 11, 83, 76
9, 142304, Note_on_c, 11, 83, 0
9, 142320, Note_on_c, 11, 81, 76
9, 142364, Note_on_c, 11, 81, 0
9, 142380, Note_on_c, 11, 79, 76
9, 142424, Note_on_c, 11, 79, 0
9, 142440, Note_on_c, 11, 81, 76
9, 142484, Note_on_c, 11, 81, 0
9, 142500, Note_on_c, 11, 78, 76
9, 142544, Note_on_c, 11, 78, 0
9, 142560, Note_on_c, 11, 83, 76
9, 142664, Note_on_c, 11, 83, 0
9, 142680, Note_on_c, 11, 71, 76
9, 142784, Note_on_c, 11, 71, 0
9, 142800, Note_on_c, 11, 76, 76
9, 142964, Note_on_c, 11, 76, 0
9, 142980, Note_on_c, 11, 76, 76
9, 143024, Note_on_c, 11, 76, 0
9, 143040, Note_on_c, 11, 76, 76
9, 143084, Note_on_c, 11, 76, 0
9, 143100, Note_on_c, 11, 79, 76
9, 143144, Note_on_c, 11, 79, 0
9, 143160, Note_on_c, 11, 78, 76
9, 143204, Note_on_c, 11, 78, 0
9, 143220, Note_on_c, 11, 76, 76
9, 143264, Note_on_c, 11, 76, 0
9, 143280, Note_on_c, 11, 75, 76
9, 143324, Note_on_c, 11, 75, 0
9, 143340, Note_on_c, 11, 73, 76
9, 143384, Note_on_c, 11, 73, 0
9, 143400, Note_on_c, 11, 75, 76
9, 143444, Note_on_c, 11, 75, 0
9, 143460, Note_on_c, 11, 71, 76
9, 143504, Note_on_c, 11, 71, 0
9, 143520, Note_on_c, 11, 83, 76
9, 143564, Note_on_c, 11, 83, 0
9, 143580, Note_on_c, 11, 81, 76
9, 143624, Note_on_c, 11, 81, 0
9, 143640, Note_on_c, 11, 79, 76
9, 143684, Note_on_c, 11, 79, 0
9, 143700, Note_on_c, 11, 78, 76
9, 143744, Note_on_c, 11, 78, 0
9, 143760, Note_on_c, 11, 76, 76
9, 143804, Note_on_c, 11, 76, 0
9, 143820, Note_on_c, 11, 74, 76
9, 143864, Note_on_c, 11, 74, 0
9, 143880, Note_on_c, 11, 72, 76
9, 143924, Note_on_c, 11, 72, 0
9, 143940, Note_on_c, 11, 71, 76
9, 143984, Note_on_c, 11, 71, 0
9, 144000, Note_on_c, 11, 69, 76
9, 144044, Note_on_c, 11, 69, 0
9, 144060, Note_on_c, 11, 72, 76
9, 144104, Note_on_c, 11, 72, 0
9, 144120, Note_on_c, 11, 74, 76
9, 144164, Note_on_c, 11, 74, 0
9, 144180, Note_on_c, 11, 76, 76
9, 144224, Note_on_c, 11, 76, 0
9, 144240, Note_on_c, 11, 74, 76
9, 144284, Note_on_c, 11, 74, 0
9, 144300, Note_on_c, 11, 72, 76
9, 144344, Note_on_c, 11, 72, 0
9, 144360, Note_on_c, 11, 71, 76
9, 144404, Note_on_c, 11, 71, 0
9, 144420, Note_on_c, 11, 69, 76
9, 144464, Note_on_c, 11, 69, 0
9, 144480, Note_on_c, 11, 74, 76
9, 144644, Note_on_c, 11, 74, 0
9, 144660, Note_on_c, 11, 76, 76
9, 144704, Note_on_c, 11, 76, 0
9, 144720, Note_on_c, 11, 72, 76
9, 144884, Note_on_c, 11, 72, 0
9, 144900, Note_on_c, 11, 71, 76
9, 144944, Note_on_c, 11, 71, 0
9, 144960, Note_on_c, 11, 72, 76
9, 145124, Note_on_c, 11, 72, 0
9, 145140, Note_on_c, 11, 74, 76
9, 145184, Note_on_c, 11, 74, 0
9, 145200, Note_on_c, 11, 71, 76
9, 145364, Note_on_c, 11, 71, 0
9, 145380, Note_on_c, 11, 69, 76
9, 145424, Note_on_c, 11, 69, 0
9, 145440, Note_on_c, 11, 69, 76
9, 145484, Note_on_c, 11, 69, 0
9, 145500, Note_on_c, 11, 76, 76
9, 145544, Note_on_c, 11, 76, 0
9, 145560, Note_on_c, 11, 78, 76
9, 145604, Note_on_c, 11, 78, 0
9, 145620, Note_on_c, 11, 80, 76
9, 145664, Note_on_c, 11, 80, 0
9, 145680, Note_on_c, 11, 81, 76
9, 145964, Note_on_c, 11, 81, 0
9, 145980, Note_on_c, 11, 84, 76
9, 146024, Note_on_c, 11, 84, 0
9, 146040, Note_on_c, 11, 83, 76
9, 146084, Note_on_c, 11, 83, 0
9, 146100, Note_on_c, 11, 81, 76
9, 146144, Note_on_c, 11, 81, 0
9, 146160, Note_on_c, 11, 80, 76
9, 146204, Note_on_c, 11, 80, 0
9, 146220, Note_on_c, 11, 81, 76
9, 146264, Note_on_c, 11, 81, 0
9, 146280, Note_on_c, 11, 83, 76
9, 146324, Note_on_c, 11, 83, 0
9, 146340, Note_on_c, 11, 80, 76
9, 146384, Note_on_c, 11, 80, 0
9, 146400, Note_on_c, 11, 76, 76
9, 146504, Note_on_c, 11, 76, 0
9, 146520, Note_on_c, 11, 76, 76
9, 146624, Note_on_c, 11, 76, 0
9, 146640, Note_on_c, 11, 76, 76
9, 146744, Note_on_c, 11, 76, 0
9, 146760, Note_on_c, 11, 76, 76
9, 146864, Note_on_c, 11, 76, 0
9, 146880, Note_on_c, 11, 72, 76
9, 146984, Note_on_c, 11, 72, 0
9, 147000, Note_on_c, 11, 74, 76
9, 147044, Note_on_c, 11, 74, 0
9, 147060, Note_on_c, 11, 76, 76
9, 147104, Note_on_c, 11, 76, 0
9, 147120, Note_on_c, 11, 77, 76
9, 147224, Note_on_c, 11, 77, 0
9, 147240, Note_on_c, 11, 74, 76
9, 147344, Note_on_c, 11, 74, 0
9, 147360, Note_on_c, 11, 71, 76
9, 147464, Note_on_c, 11, 71, 0
9, 147480, Note_on_c, 11, 76, 76
9, 147584, Note_on_c, 11, 76, 0
9, 147600, Note_on_c, 11, 64, 76
9, 147704, Note_on_c, 11, 64, 0
9, 147720, Note_on_c, 11, 74, 76
9, 147824, Note_on_c, 11, 74, 0
9, 147840, Note_on_c, 11, 72, 76
9, 148004, Note_on_c, 11, 72, 0
9, 148020, Note_on_c, 11, 71, 76
9, 148064, Note_on_c, 11, 71, 0
9, 148080, Note_on_c, 11, 71, 76
9, 148109, Note_on_c, 11, 71, 0
9, 148110, Note_on_c, 11, 72, 76
9, 148139, Note_on_c, 11, 72, 0
9, 148140, Note_on_c, 11, 71, 76
9, 148169, Note_on_c, 11, 71, 0
9, 148170, Note_on_c, 11, 72, 76
9, 148199, Note_on_c, 11, 72, 0
9, 148200, Note_on_c, 11, 69, 76
9, 148229, Note_on_c, 11, 69, 0
9, 148230, Note_on_c, 11, 71, 76
9, 148259, Note_on_c, 11, 71, 0
9, 148260, Note_on_c, 11, 69, 76
9, 148304, Note_on_c, 11, 69, 0
9, 148320, Note_on_c, 11, 69, 76
9, 148424, Note_on_c, 11, 69, 0
9, 148440, Note_on_c, 11, 69, 76
9, 148544, Note_on_c, 11, 69, 0
9, 148560, Note_on_c, 11, 69, 76
9, 148664, Note_on_c, 11, 69, 0
9, 148680, Note_on_c, 11, 69, 76
9, 148784, Note_on_c, 11, 69, 0
9, 148800, Note_on_c, 11, 67, 76
9, 148904, Note_on_c, 11, 67, 0
9, 148920, Note_on_c, 11, 69, 76
9, 148964, Note_on_c, 11, 69, 0
9, 148980, Note_on_c, 11, 71, 76
9, 149024, Note_on_c, 11, 71, 0
9, 149040, Note_on_c, 11, 72, 76
9, 149144, Note_on_c, 11, 72, 0
9, 149160, Note_on_c, 11, 69, 76
9, 149264, Note_on_c, 11, 69, 0
9, 149280, Note_on_c, 11, 66, 76
9, 149384, Note_on_c, 11, 66, 0
9, 149400, Note_on_c, 11, 71, 76
9, 149504, Note_on_c, 11, 71, 0
9, 149520, Note_on_c, 11, 59, 76
9, 149624, Note_on_c, 11, 59, 0
9, 149640, Note_on_c, 11, 71, 76
9, 149744, Note_on_c, 11, 71, 0
9, 149760, Note_on_c, 11, 64, 76
9, 149864, Note_on_c, 11, 64, 0
9, 149880, Note_on_c, 11, 76, 76
9, 149984, Note_on_c, 11, 76, 0
9, 150000, Note_on_c, 11, 76, 76
9, 150104, Note_on_c, 11, 76, 0
9, 150120, Note_on_c, 11, 76, 76
9, 150224, Note_on_c, 11, 76, 0
9, 150240, Note_on_c, 11, 73, 76
9, 150344, Note_on_c, 11, 73, 0
9, 150360, Note_on_c, 11, 69, 76
9, 150464, Note_on_c, 11, 69, 0
9, 150480, Note_on_c, 11, 69, 76
9, 150584, Note_on_c, 11, 69, 0
9, 150600, Note_on_c, 11, 69, 76
9, 150704, Note_on_c, 11, 69, 0
9, 150720, Note_on_c, 11, 65, 76
9, 150824, Note_on_c, 11, 65, 0
9, 150840, Note_on_c, 11, 67, 76
9, 150884, Note_on_c, 11, 67, 0
9, 150900, Note_on_c, 11, 69, 76
9, 150944, Note_on_c, 11, 69, 0
9, 150960, Note_on_c, 11, 70, 76
9, 151064, Note_on_c, 11, 70, 0
9, 151080, Note_on_c, 11, 67, 76
9, 151184, Note_on_c, 11, 67, 0
9, 151200, Note_on_c, 11, 64, 76
9, 151304, Note_on_c, 11, 64, 0
9, 151320, Note_on_c, 11, 69, 76
9, 151424, Note_on_c, 11, 69, 0
9, 151440, Note_on_c, 11, 57, 76
9, 151544, Note_on_c, 11, 57, 0
9, 151560, Note_on_c, 11, 69, 76
9, 151664, Note_on_c, 11, 69, 0
9, 151680, Note_on_c, 11, 62, 76
9, 151784, Note_on_c, 11, 62, 0
9, 151800, Note_on_c, 11, 74, 76
9, 151904, Note_on_c, 11, 74, 0
9, 151920, Note_on_c, 11, 74, 76
9, 152024, Note_on_c, 11, 74, 0
9, 152040, Note_on_c, 11, 74, 76
9, 152144, Note_on_c, 11, 74, 0
9, 152160, Note_on_c, 11, 71, 76
9, 152264, Note_on_c, 11, 71, 0
9, 152280, Note_on_c, 11, 67, 76
9, 152384, Note_on_c, 11, 67, 0
9, 152400, Note_on_c, 11, 67, 76
9, 152504, Note_on_c, 11, 67, 0
9, 152520, Note_on_c, 11, 67, 76
9, 152624, Note_on_c, 11, 67, 0
9, 152640, Note_on_c, 11, 64, 76
9, 152744, Note_on_c, 11, 64, 0
9, 152760, Note_on_c, 11, 65, 76
9, 152804, Note_on_c, 11, 65, 0
9, 152820, Note_on_c, 11, 67, 76
9, 152864, Note_on_c, 11, 67, 0
9, 152880, Note_on_c, 11, 69, 76
9, 152984, Note_on_c, 11, 69, 0
9, 153000, Note_on_c, 11, 65, 76
9, 153104, Note_on_c, 11, 65, 0
9, 153120, Note_on_c, 11, 62, 76
9, 153224, Note_on_c, 11, 62, 0
9, 153240, Note_on_c, 11, 67, 76
9, 153344, Note_on_c, 11, 67, 0
9, 153360, Note_on_c, 11, 55, 76
9, 153464, Note_on_c, 11, 55, 0
9, 153480, Note_on_c, 11, 67, 76
9, 153584, Note_on_c, 11, 67, 0
9, 153600, Note_on_c, 11, 60, 76
9, 153704, Note_on_c, 11, 60, 0
9, 153720, Note_on_c, 11, 72, 76
9, 153764, Note_on_c, 11, 72, 0
9, 153780, Note_on_c, 11, 74, 76
9, 153824, Note_on_c, 11, 74, 0
9, 153840, Note_on_c, 11, 76, 76
9, 153884, Note_on_c, 11, 76, 0
9, 153900, Note_on_c, 11, 74, 76
9, 153944, Note_on_c, 11, 74, 0
9, 153960, Note_on_c, 11, 76, 76
9, 154004, Note_on_c, 11, 76, 0
9, 154020, Note_on_c, 11, 78, 76
9, 154064, Note_on_c, 11, 78, 0
9, 154080, Note_on_c, 11, 79, 76
9, 154244, Note_on_c, 11, 79, 0
9, 154260, Note_on_c, 11, 74, 76
9, 154304, Note_on_c, 11, 74, 0
9, 154320, Note_on_c, 11, 79, 76
9, 154484, Note_on_c, 11, 79, 0
9, 154500, Note_on_c, 11, 79, 76
9, 154544, Note_on_c, 11, 79, 0
9, 154560, Note_on_c, 11, 79, 76
9, 154724, Note_on_c, 11, 79, 0
9, 154740, Note_on_c, 11, 78, 76
9, 154759, Note_on_c, 11, 78, 0
9, 154760, Note_on_c, 11, 76, 76
9, 154779, Note_on_c, 11, 76, 0
9, 154780, Note_on_c, 11, 78, 76
9, 154799, Note_on_c, 11, 78, 0
9, 154800, Note_on_c, 11, 78, 76
9, 154829, Note_on_c, 11, 78, 0
9, 154830, Note_on_c, 11, 79, 76
9, 154859, Note_on_c, 11, 79, 0
9, 154860, Note_on_c, 11, 78, 76
9, 154889, Note_on_c, 11, 78, 0
9, 154890, Note_on_c, 11, 79, 76
9, 154919, Note_on_c, 11, 79, 0
9, 154920, Note_on_c, 11, 76, 76
9, 154949, Note_on_c, 11, 76, 0
9, 154950, Note_on_c, 11, 78, 76
9, 154979, Note_on_c, 11, 78, 0
9, 154980, Note_on_c, 11, 79, 76
9, 155024, Note_on_c, 11, 79, 0
9, 155040, Note_on_c, 11, 79, 76
9, 155279, Note_on_c, 11, 79, 0
9, 155400, Note_on_c, 11, 76, 76
9, 155564, Note_on_c, 11, 76, 0
9, 155580, Note_on_c, 11, 79, 76
9, 155624, Note_on_c, 11, 79, 0
9, 155640, Note_on_c, 11, 78, 76
9, 155684, Note_on_c, 11, 78, 0
9, 155700, Note_on_c, 11, 76, 76
9, 155744, Note_on_c, 11, 76, 0
9, 155760, Note_on_c, 11, 74, 76
9, 155804, Note_on_c, 11, 74, 0
9, 155820, Note_on_c, 11, 72, 76
9, 155864, Note_on_c, 11, 72, 0
9, 155880, Note_on_c, 11, 71, 76
9, 155924, Note_on_c, 11, 71, 0
9, 155940, Note_on_c, 11, 69, 76
9, 155984, Note_on_c, 11, 69, 0
9, 156000, Note_on_c, 11, 67, 76
9, 156044, Note_on_c, 11, 67, 0
9, 156060, Note_on_c, 11, 71, 76
9, 156104, Note_on_c, 11, 71, 0
9, 156120, Note_on_c, 11, 69, 76
9, 156164, Note_on_c, 11, 69, 0
9, 156180, Note_on_c, 11, 67, 76
9, 156224, Note_on_c, 11, 67, 0
9, 156240, Note_on_c, 11, 72, 76
9, 156284, Note_on_c, 11, 72, 0
9, 156300, Note_on_c, 11, 76, 76
9, 156344, Note_on_c, 11, 76, 0
9, 156360, Note_on_c, 11, 74, 76
9, 156404, Note_on_c, 11, 74, 0
9, 156420, Note_on_c, 11, 72, 76
9, 156464, Note_on_c, 11, 72, 0
9, 156480, Note_on_c, 11, 81, 76
9, 156584, Note_on_c, 11, 81, 0
9, 156600, Note_on_c, 11, 74, 76
9, 156704, Note_on_c, 11, 74, 0
9, 156720, Note_on_c, 11, 79, 76
9, 156884, Note_on_c, 11, 79, 0
9, 156900, Note_on_c, 11, 79, 76
9, 156944, Note_on_c, 11, 79, 0
9, 156960, Note_on_c, 11, 79, 76
9, 157004, Note_on_c, 11, 79, 0
9, 157020, Note_on_c, 11, 78, 76
9, 157064, Note_on_c, 11, 78, 0
9, 157080, Note_on_c, 11, 79, 76
9, 157124, Note_on_c, 11, 79, 0
9, 157140, Note_on_c, 11, 76, 76
9, 157184, Note_on_c, 11, 76, 0
9, 157200, Note_on_c, 11, 78, 76
9, 157364, Note_on_c, 11, 78, 0
9, 157380, Note_on_c, 11, 78, 76
9, 157424, Note_on_c, 11, 78, 0
9, 157440, Note_on_c, 11, 78, 76
9, 157544, Note_on_c, 11, 78, 0
9, 157560, Note_on_c, 11, 71, 76
9, 157664, Note_on_c, 11, 71, 0
9, 157680, Note_on_c, 11, 76, 76
9, 157844, Note_on_c, 11, 76, 0
9, 157860, Note_on_c, 11, 76, 76
9, 157904, Note_on_c, 11, 76, 0
9, 157920, Note_on_c, 11, 76, 76
9, 157964, Note_on_c, 11, 76, 0
9, 157980, Note_on_c, 11, 74, 76
9, 158024, Note_on_c, 11, 74, 0
9, 158040, Note_on_c, 11, 76, 76
9, 158084, Note_on_c, 11, 76, 0
9, 158100, Note_on_c, 11, 72, 76
9, 158144, Note_on_c, 11, 72, 0
9, 158160, Note_on_c, 11, 74, 76
9, 158324, Note_on_c, 11, 74, 0
9, 158340, Note_on_c, 11, 74, 76
9, 158384, Note_on_c, 11, 74, 0
9, 158400, Note_on_c, 11, 74, 76
9, 158504, Note_on_c, 11, 74, 0
9, 158520, Note_on_c, 11, 67, 76
9, 158624, Note_on_c, 11, 67, 0
9, 158640, Note_on_c, 11, 72, 76
9, 158804, Note_on_c, 11, 72, 0
9, 158820, Note_on_c, 11, 72, 76
9, 158864, Note_on_c, 11, 72, 0
9, 158880, Note_on_c, 11, 72, 76
9, 158924, Note_on_c, 11, 72, 0
9, 158940, Note_on_c, 11, 76, 76
9, 158984, Note_on_c, 11, 76, 0
9, 159000, Note_on_c, 11, 74, 76
9, 159044, Note_on_c, 11, 74, 0
9, 159060, Note_on_c, 11, 72, 76
9, 159104, Note_on_c, 11, 72, 0
9, 159120, Note_on_c, 11, 71, 76
9, 159164, Note_on_c, 11, 71, 0
9, 159180, Note_on_c, 11, 69, 76
9, 159224, Note_on_c, 11, 69, 0
9, 159240, Note_on_c, 11, 67, 76
9, 159284, Note_on_c, 11, 67, 0
9, 159300, Note_on_c, 11, 66, 76
9, 159344, Note_on_c, 11, 66, 0
9, 159360, Note_on_c, 11, 67, 76
9, 159404, Note_on_c, 11, 67, 0
9, 159420, Note_on_c, 11, 71, 76
9, 159464, Note_on_c, 11, 71, 0
9, 159480, Note_on_c, 11, 76, 76
9, 159524, Note_on_c, 11, 76, 0
9, 159540, Note_on_c, 11, 74, 76
9, 159584, Note_on_c, 11, 74, 0
9, 159600, Note_on_c, 11, 72, 76
9, 159644, Note_on_c, 11, 72, 0
9, 159660, Note_on_c, 11, 71, 76
9, 159704, Note_on_c, 11, 71, 0
9, 159720, Note_on_c, 11, 69, 76
9, 159764, Note_on_c, 11, 69, 0
9, 159780, Note_on_c, 11, 67, 76
9, 159824, Note_on_c, 11, 67, 0
9, 159840, Note_on_c, 11, 78, 76
9, 159884, Note_on_c, 11, 78, 0
9, 159900, Note_on_c, 11, 76, 76
9, 159944, Note_on_c, 11, 76, 0
9, 159960, Note_on_c, 11, 74, 76
9, 160004, Note_on_c, 11, 74, 0
9, 160020, Note_on_c, 11, 76, 76
9, 160064, Note_on_c, 11, 76, 0
9, 160080, Note_on_c, 11, 78, 76
9, 160124, Note_on_c, 11, 78, 0
9, 160140, Note_on_c, 11, 76, 76
9, 160184, Note_on_c, 11, 76, 0
9, 160200, Note_on_c, 11, 78, 76
9, 160244, Note_on_c, 11, 78, 0
9, 160260, Note_on_c, 11, 74, 76
9, 160304, Note_on_c, 11, 74, 0
9, 160320, Note_on_c, 11, 79, 76
9, 160484, Note_on_c, 11, 79, 0
9, 160500, Note_on_c, 11, 81, 76
9, 160544, Note_on_c, 11, 81, 0
9, 160560, Note_on_c, 11, 78, 76
9, 160589, Note_on_c, 11, 78, 0
9, 160590, Note_on_c, 11, 79, 76
9, 160619, Note_on_c, 11, 79, 0
9, 160620, Note_on_c, 11, 78, 76
9, 160649, Note_on_c, 11, 78, 0
9, 160650, Note_on_c, 11, 79, 76
9, 160679, Note_on_c, 11, 79, 0
9, 160680, Note_on_c, 11, 76, 76
9, 160709, Note_on_c, 11, 76, 0
9, 160710, Note_on_c, 11, 78, 76
9, 160739, Note_on_c, 11, 78, 0
9, 160740, Note_on_c, 11, 79, 76
9, 160784, Note_on_c, 11, 79, 0
9, 160800, Note_on_c, 11, 79, 76
9, 161039, Note_on_c, 11, 79, 0
9, 165240, Note_on_c, 11, 71, 76
9, 165344, Note_on_c, 11, 71, 0
9, 165360, Note_on_c, 11, 71, 76
9, 165464, Note_on_c, 11, 71, 0
9, 165480, Note_on_c, 11, 71, 76
9, 165584, Note_on_c, 11, 71, 0
9, 165600, Note_on_c, 11, 67, 76
9, 165704, Note_on_c, 11, 67, 0
9, 165720, Note_on_c, 11, 69, 76
9, 165764, Note_on_c, 11, 69, 0
9, 165780, Note_on_c, 11, 71, 76
9, 165824, Note_on_c, 11, 71, 0
9, 165840, Note_on_c, 11, 72, 76
9, 165944, Note_on_c, 11, 72, 0
9, 165960, Note_on_c, 11, 69, 76
9, 166064, Note_on_c, 11, 69, 0
9, 166080, Note_on_c, 11, 66, 76
9, 166184, Note_on_c, 11, 66, 0
9, 166200, Note_on_c, 11, 71, 76
9, 166304, Note_on_c, 11, 71, 0
9, 166320, Note_on_c, 11, 59, 76
9, 166424, Note_on_c, 11, 59, 0
9, 166440, Note_on_c, 11, 71, 76
9, 166544, Note_on_c, 11, 71, 0
9, 166560, Note_on_c, 11, 71, 76
9, 166799, Note_on_c, 11, 71, 0
9, 169500, Note_on_c, 11, 72, 76
9, 169544, Note_on_c, 11, 72, 0
9, 169560, Note_on_c, 11, 71, 76
9, 169604, Note_on_c, 11, 71, 0
9, 169620, Note_on_c, 11, 69, 76
9, 169664, Note_on_c, 11, 69, 0
9, 169680, Note_on_c, 11, 67, 76
9, 169724, Note_on_c, 11, 67, 0
9, 169740, Note_on_c, 11, 66, 76
9, 169784, Note_on_c, 11, 66, 0
9, 169800, Note_on_c, 11, 67, 76
9, 169844, Note_on_c, 11, 67, 0
9, 169860, Note_on_c, 11, 64, 76
9, 169904, Note_on_c, 11, 64, 0
9, 169920, Note_on_c, 11, 72, 76
9, 169964, Note_on_c, 11, 72, 0
9, 169980, Note_on_c, 11, 71, 76
9, 170024, Note_on_c, 11, 71, 0
9, 170040, Note_on_c, 11, 69, 76
9, 170084, Note_on_c, 11, 69, 0
9, 170100, Note_on_c, 11, 67, 76
9, 170144, Note_on_c, 11, 67, 0
9, 170160, Note_on_c, 11, 66, 76
9, 170264, Note_on_c, 11, 66, 0
9, 170280, Note_on_c, 11, 71, 76
9, 170384, Note_on_c, 11, 71, 0
9, 170400, Note_on_c, 11, 64, 76
9, 170639, Note_on_c, 11, 64, 0
9, 171480, Note_on_c, 11, 76, 76
9, 171584, Note_on_c, 11, 76, 0
9, 171600, Note_on_c, 11, 76, 76
9, 171704, Note_on_c, 11, 76, 0
9, 171720, Note_on_c, 11, 76, 76
9, 171824, Note_on_c, 11, 76, 0
9, 171840, Note_on_c, 11, 72, 76
9, 171944, Note_on_c, 11, 72, 0
9, 171960, Note_on_c, 11, 74, 76
9, 172004, Note_on_c, 11, 74, 0
9, 172020, Note_on_c, 11, 76, 76
9, 172064, Note_on_c, 11, 76, 0
9, 172080, Note_on_c, 11, 77, 76
9, 172184, Note_on_c, 11, 77, 0
9, 172200, Note_on_c, 11, 74, 76
9, 172304, Note_on_c, 11, 74, 0
9, 172320, Note_on_c, 11, 71, 76
9, 172424, Note_on_c, 11, 71, 0
9, 172440, Note_on_c, 11, 74, 76
9, 172544, Note_on_c, 11, 74, 0
9, 172560, Note_on_c, 11, 64, 76
9, 172664, Note_on_c, 11, 64, 0
9, 172680, Note_on_c, 11, 74, 76
9, 172784, Note_on_c, 11, 74, 0
9, 172800, Note_on_c, 11, 72, 76
9, 172904, Note_on_c, 11, 72, 0
9, 172920, Note_on_c, 11, 81, 76
9, 173024, Note_on_c, 11, 81, 0
9, 173040, Note_on_c, 11, 81, 76
9, 173144, Note_on_c, 11, 81, 0
9, 173160, Note_on_c, 11, 81, 76
9, 173264, Note_on_c, 11, 81, 0
9, 173280, Note_on_c, 11, 78, 76
9, 173384, Note_on_c, 11, 78, 0
9, 173400, Note_on_c, 11, 74, 76
9, 173504, Note_on_c, 11, 74, 0
9, 173520, Note_on_c, 11, 74, 76
9, 173624, Note_on_c, 11, 74, 0
9, 173640, Note_on_c, 11, 74, 76
9, 173744, Note_on_c, 11, 74, 0
9, 173760, Note_on_c, 11, 70, 76
9, 173864, Note_on_c, 11, 70, 0
9, 173880, Note_on_c, 11, 72, 76
9, 173924, Note_on_c, 11, 72, 0
9, 173940, Note_on_c, 11, 74, 76
9, 173984, Note_on_c, 11, 74, 0
9, 174000, Note_on_c, 11, 75, 76
9, 174104, Note_on_c, 11, 75, 0
9, 174120, Note_on_c, 11, 72, 76
9, 174224, Note_on_c, 11, 72, 0
9, 174240, Note_on_c, 11, 69, 76
9, 174344, Note_on_c, 11, 69, 0
9, 174360, Note_on_c, 11, 72, 76
9, 174464, Note_on_c, 11, 72, 0
9, 174480, Note_on_c, 11, 62, 76
9, 174584, Note_on_c, 11, 62, 0
9, 174600, Note_on_c, 11, 72, 76
9, 174704, Note_on_c, 11, 72, 0
9, 174720, Note_on_c, 11, 70, 76
9, 174824, Note_on_c, 11, 70, 0
9, 174840, Note_on_c, 11, 79, 76
9, 174944, Note_on_c, 11, 79, 0
9, 174960, Note_on_c, 11, 79, 76
9, 175064, Note_on_c, 11, 79, 0
9, 175080, Note_on_c, 11, 79, 76
9, 175184, Note_on_c, 11, 79, 0
9, 175200, Note_on_c, 11, 76, 76
9, 175304, Note_on_c, 11, 76, 0
9, 175320, Note_on_c, 11, 72, 76
9, 175424, Note_on_c, 11, 72, 0
9, 175440, Note_on_c, 11, 72, 76
9, 175544, Note_on_c, 11, 72, 0
9, 175560, Note_on_c, 11, 72, 76
9, 175664, Note_on_c, 11, 72, 0
9, 175680, Note_on_c, 11, 69, 76
9, 175784, Note_on_c, 11, 69, 0
9, 175800, Note_on_c, 11, 70, 76
9, 175844, Note_on_c, 11, 70, 0
9, 175860, Note_on_c, 11, 72, 76
9, 175904, Note_on_c, 11, 72, 0
9, 175920, Note_on_c, 11, 74, 76
9, 176024, Note_on_c, 11, 74, 0
9, 176040, Note_on_c, 11, 70, 76
9, 176144, Note_on_c, 11, 70, 0
9, 176160, Note_on_c, 11, 67, 76
9, 176264, Note_on_c, 11, 67, 0
9, 176280, Note_on_c, 11, 70, 76
9, 176384, Note_on_c, 11, 70, 0
9, 176400, Note_on_c, 11, 60, 76
9, 176504, Note_on_c, 11, 60, 0
9, 176520, Note_on_c, 11, 70, 76
9, 176624, Note_on_c, 11, 70, 0
9, 176640, Note_on_c, 11, 69, 76
9, 176684, Note_on_c, 11, 69, 0
9, 176700, Note_on_c, 11, 67, 76
9, 176744, Note_on_c, 11, 67, 0
9, 176760, Note_on_c, 11, 65, 76
9, 176804, Note_on_c, 11, 65, 0
9, 176820, Note_on_c, 11, 67, 76
9, 176864, Note_on_c, 11, 67, 0
9, 176880, Note_on_c, 11, 69, 76
9, 176924, Note_on_c, 11, 69, 0
9, 176940, Note_on_c, 11, 67, 76
9, 176984, Note_on_c, 11, 67, 0
9, 177000, Note_on_c, 11, 69, 76
9, 177044, Note_on_c, 11, 69, 0
9, 177060, Note_on_c, 11, 71, 76
9, 177104, Note_on_c, 11, 71, 0
9, 177120, Note_on_c, 11, 72, 76
9, 177284, Note_on_c, 11, 72, 0
9, 177300, Note_on_c, 11, 67, 76
9, 177344, Note_on_c, 11, 67, 0
9, 177360, Note_on_c, 11, 72, 76
9, 177524, Note_on_c, 11, 72, 0
9, 177540, Note_on_c, 11, 72, 76
9, 177584, Note_on_c, 11, 72, 0
9, 177600, Note_on_c, 11, 72, 76
9, 177764, Note_on_c, 11, 72, 0
9, 177780, Note_on_c, 11, 71, 76
9, 177799, Note_on_c, 11, 71, 0
9, 177800, Note_on_c, 11, 69, 76
9, 177819, Note_on_c, 11, 69, 0
9, 177820, Note_on_c, 11, 71, 76
9, 177839, Note_on_c, 11, 71, 0
9, 177840, Note_on_c, 11, 71, 76
9, 177869, Note_on_c, 11, 71, 0
9, 177870, Note_on_c, 11, 72, 76
9, 177899, Note_on_c, 11, 72, 0
9, 177900, Note_on_c, 11, 71, 76
9, 177929, Note_on_c, 11, 71, 0
9, 177930, Note_on_c, 11, 72, 76
9, 177959, Note_on_c, 11, 72, 0
9, 177960, Note_on_c, 11, 69, 76
9, 177989, Note_on_c, 11, 69, 0
9, 177990, Note_on_c, 11, 71, 76
9, 178019, Note_on_c, 11, 71, 0
9, 178020, Note_on_c, 11, 72, 76
9, 178064, Note_on_c, 11, 72, 0
9, 178080, Note_on_c, 11, 72, 76
9, 178319, Note_on_c, 11, 72, 0
9, 178440, Note_on_c, 11, 81, 76
9, 178604, Note_on_c, 11, 81, 0
9, 178620, Note_on_c, 11, 84, 76
9, 178664, Note_on_c, 11, 84, 0
9, 178680, Note_on_c, 11, 83, 76
9, 178724, Note_on_c, 11, 83, 0
9, 178740, Note_on_c, 11, 81, 76
9, 178784, Note_on_c, 11, 81, 0
9, 178800, Note_on_c, 11, 79, 76
9, 178844, Note_on_c, 11, 79, 0
9, 178860, Note_on_c, 11, 77, 76
9, 178904, Note_on_c, 11, 77, 0
9, 178920, Note_on_c, 11, 76, 76
9, 178964, Note_on_c, 11, 76, 0
9, 178980, Note_on_c, 11, 74, 76
9, 179024, Note_on_c, 11, 74, 0
9, 179040, Note_on_c, 11, 72, 76
9, 179084, Note_on_c, 11, 72, 0
9, 179100, Note_on_c, 11, 76, 76
9, 179144, Note_on_c, 11, 76, 0
9, 179160, Note_on_c, 11, 74, 76
9, 179204, Note_on_c, 11, 74, 0
9, 179220, Note_on_c, 11, 72, 76
9, 179264, Note_on_c, 11, 72, 0
9, 179280, Note_on_c, 11, 77, 76
9, 179444, Note_on_c, 11, 77, 0
9, 179460, Note_on_c, 11, 77, 76
9, 179504, Note_on_c, 11, 77, 0
9, 179520, Note_on_c, 11, 77, 76
9, 179564, Note_on_c, 11, 77, 0
9, 179580, Note_on_c, 11, 76, 76
9, 179624, Note_on_c, 11, 76, 0
9, 179640, Note_on_c, 11, 74, 76
9, 179684, Note_on_c, 11, 74, 0
9, 179700, Note_on_c, 11, 76, 76
9, 179744, Note_on_c, 11, 76, 0
9, 179760, Note_on_c, 11, 76, 76
9, 179789, Note_on_c, 11, 76, 0
9, 179790, Note_on_c, 11, 77, 76
9, 179819, Note_on_c, 11, 77, 0
9, 179820, Note_on_c, 11, 76, 76
9, 179849, Note_on_c, 11, 76, 0
9, 179850, Note_on_c, 11, 77, 76
9, 179879, Note_on_c, 11, 77, 0
9, 179880, Note_on_c, 11, 74, 76
9, 179909, Note_on_c, 11, 74, 0
9, 179910, Note_on_c, 11, 76, 76
9, 179939, Note_on_c, 11, 76, 0
9, 179940, Note_on_c, 11, 76, 76
9, 179984, Note_on_c, 11, 76, 0
9, 180000, Note_on_c, 11, 76, 76
9, 180044, Note_on_c, 11, 76, 0
9, 180060, Note_on_c, 11, 69, 76
9, 180104, Note_on_c, 11, 69, 0
9, 180120, Note_on_c, 11, 71, 76
9, 180164, Note_on_c, 11, 71, 0
9, 180180, Note_on_c, 11, 72, 76
9, 180224, Note_on_c, 11, 72, 0
9, 180240, Note_on_c, 11, 74, 76
9, 180404, Note_on_c, 11, 74, 0
9, 180420, Note_on_c, 11, 74, 76
9, 180464, Note_on_c, 11, 74, 0
9, 180480, Note_on_c, 11, 74, 76
9, 180524, Note_on_c, 11, 74, 0
9, 180540, Note_on_c, 11, 72, 76
9, 180584, Note_on_c, 11, 72, 0
9, 180600, Note_on_c, 11, 74, 76
9, 180644, Note_on_c, 11, 74, 0
9, 180660, Note_on_c, 11, 71, 76
9, 180704, Note_on_c, 11, 71, 0
9, 180720, Note_on_c, 11, 72, 76
9, 180764, Note_on_c, 11, 72, 0
9, 180780, Note_on_c, 11, 76, 76
9, 180824, Note_on_c, 11, 76, 0
9, 180840, Note_on_c, 11, 74, 76
9, 180884, Note_on_c, 11, 74, 0
9, 180900, Note_on_c, 11, 76, 76
9, 180944, Note_on_c, 11, 76, 0
9, 180960, Note_on_c, 11, 77, 76
9, 181004, Note_on_c, 11, 77, 0
9, 181020, Note_on_c, 11, 79, 76
9, 181064, Note_on_c, 11, 79, 0
9, 181080, Note_on_c, 11, 77, 76
9, 181124, Note_on_c, 11, 77, 0
9, 181140, Note_on_c, 11, 76, 76
9, 181184, Note_on_c, 11, 76, 0
9, 181200, Note_on_c, 11, 74, 76
9, 181244, Note_on_c, 11, 74, 0
9, 181260, Note_on_c, 11, 72, 76
9, 181304, Note_on_c, 11, 72, 0
9, 181320, Note_on_c, 11, 74, 76
9, 181364, Note_on_c, 11, 74, 0
9, 181380, Note_on_c, 11, 71, 76
9, 181424, Note_on_c, 11, 71, 0
9, 181440, Note_on_c, 11, 72, 76
9, 181484, Note_on_c, 11, 72, 0
9, 181500, Note_on_c, 11, 74, 76
9, 181544, Note_on_c, 11, 74, 0
9, 181560, Note_on_c, 11, 76, 76
9, 181604, Note_on_c, 11, 76, 0
9, 181620, Note_on_c, 11, 77, 76
9, 181664, Note_on_c, 11, 77, 0
9, 181680, Note_on_c, 11, 79, 76
9, 181724, Note_on_c, 11, 79, 0
9, 181740, Note_on_c, 11, 81, 76
9, 181784, Note_on_c, 11, 81, 0
9, 181800, Note_on_c, 11, 82, 76
9, 181844, Note_on_c, 11, 82, 0
9, 181860, Note_on_c, 11, 79, 76
9, 181904, Note_on_c, 11, 79, 0
9, 181920, Note_on_c, 11, 81, 76
9, 181964, Note_on_c, 11, 81, 0
9, 181980, Note_on_c, 11, 82, 76
9, 182024, Note_on_c, 11, 82, 0
9, 182040, Note_on_c, 11, 81, 76
9, 182084, Note_on_c, 11, 81, 0
9, 182100, Note_on_c, 11, 79, 76
9, 182144, Note_on_c, 11, 79, 0
9, 182160, Note_on_c, 11, 77, 76
9, 182204, Note_on_c, 11, 77, 0
9, 182220, Note_on_c, 11, 76, 76
9, 182264, Note_on_c, 11, 76, 0
9, 182280, Note_on_c, 11, 74, 76
9, 182324, Note_on_c, 11, 74, 0
9, 182340, Note_on_c, 11, 72, 76
9, 182384, Note_on_c, 11, 72, 0
9, 182400, Note_on_c, 11, 71, 76
9, 182504, Note_on_c, 11, 71, 0
9, 182520, Note_on_c, 11, 79, 76
9, 182624, Note_on_c, 11, 79, 0
9, 182640, Note_on_c, 11, 79, 76
9, 182744, Note_on_c, 11, 79, 0
9, 182760, Note_on_c, 11, 79, 76
9, 182864, Note_on_c, 11, 79, 0
9, 182880, Note_on_c, 11, 76, 76
9, 182984, Note_on_c, 11, 76, 0
9, 183000, Note_on_c, 11, 77, 76
9, 183044, Note_on_c, 11, 77, 0
9, 183060, Note_on_c, 11, 79, 76
9, 183104, Note_on_c, 11, 79, 0
9, 183120, Note_on_c, 11, 81, 76
9, 183224, Note_on_c, 11, 81, 0
9, 183240, Note_on_c, 11, 77, 76
9, 183344, Note_on_c, 11, 77, 0
9, 183360, Note_on_c, 11, 74, 76
9, 183464, Note_on_c, 11, 74, 0
9, 183480, Note_on_c, 11, 79, 76
9, 183584, Note_on_c, 11, 79, 0
9, 183600, Note_on_c, 11, 67, 76
9, 183704, Note_on_c, 11, 67, 0
9, 183720, Note_on_c, 11, 77, 76
9, 183824, Note_on_c, 11, 77, 0
9, 183840, Note_on_c, 11, 76, 76
9, 183884, Note_on_c, 11, 76, 0
9, 183900, Note_on_c, 11, 74, 76
9, 183944, Note_on_c, 11, 74, 0
9, 183960, Note_on_c, 11, 72, 76
9, 184004, Note_on_c, 11, 72, 0
9, 184020, Note_on_c, 11, 74, 76
9, 184064, Note_on_c, 11, 74, 0
9, 184080, Note_on_c, 11, 76, 76
9, 184124, Note_on_c, 11, 76, 0
9, 184140, Note_on_c, 11, 74, 76
9, 184184, Note_on_c, 11, 74, 0
9, 184200, Note_on_c, 11, 76, 76
9, 184244, Note_on_c, 11, 76, 0
9, 184260, Note_on_c, 11, 78, 76
9, 184304, Note_on_c, 11, 78, 0
9, 184320, Note_on_c, 11, 79, 76
9, 184484, Note_on_c, 11, 79, 0
9, 184500, Note_on_c, 11, 74, 76
9, 184544, Note_on_c, 11, 74, 0
9, 184560, Note_on_c, 11, 79, 76
9, 184724, Note_on_c, 11, 79, 0
9, 184740, Note_on_c, 11, 79, 76
9, 184784, Note_on_c, 11, 79, 0
9, 184800, Note_on_c, 11, 79, 76
9, 184964, Note_on_c, 11, 79, 0
9, 184980, Note_on_c, 11, 78, 76
9, 184999, Note_on_c, 11, 78, 0
9, 185000, Note_on_c, 11, 76, 76
9, 185019, Note_on_c, 11, 76, 0
9, 185020, Note_on_c, 11, 78, 76
9, 185039, Note_on_c, 11, 78, 0
9, 185040, Note_on_c, 11, 78, 76
9, 185069, Note_on_c, 11, 78, 0
9, 185070, Note_on_c, 11, 79, 76
9, 185099, Note_on_c, 11, 79, 0
9, 185100, Note_on_c, 11, 78, 76
9, 185129, Note_on_c, 11, 78, 0
9, 185130, Note_on_c, 11, 79, 76
9, 185159, Note_on_c, 11, 79, 0
9, 185160, Note_on_c, 11, 76, 76
9, 185189, Note_on_c, 11, 76, 0
9, 185190, Note_on_c, 11, 78, 76
9, 185219, Note_on_c, 11, 78, 0
9, 185220, Note_on_c, 11, 79, 76
9, 185264, Note_on_c, 11, 79, 0
9, 185280, Note_on_c, 11, 79, 76
9, 185384, Note_on_c, 11, 79, 0
9, 185400, Note_on_c, 11, 77, 76
9, 185444, Note_on_c, 11, 77, 0
9, 185460, Note_on_c, 11, 76, 76
9, 185504, Note_on_c, 11, 76, 0
9, 185520, Note_on_c, 11, 74, 76
9, 185564, Note_on_c, 11, 74, 0
9, 185580, Note_on_c, 11, 71, 76
9, 185624, Note_on_c, 11, 71, 0
9, 185640, Note_on_c, 11, 72, 76
9, 185684, Note_on_c, 11, 72, 0
9, 185700, Note_on_c, 11, 74, 76
9, 185744, Note_on_c, 11, 74, 0
9, 185760, Note_on_c, 11, 67, 76
9, 185864, Note_on_c, 11, 67, 0
9, 185880, Note_on_c, 11, 79, 76
9, 185984, Note_on_c, 11, 79, 0
9, 186000, Note_on_c, 11, 76, 76
9, 186104, Note_on_c, 11, 76, 0
9, 186120, Note_on_c, 11, 81, 76
9, 186224, Note_on_c, 11, 81, 0
9, 186240, Note_on_c, 11, 77, 76
9, 186284, Note_on_c, 11, 77, 0
9, 186300, Note_on_c, 11, 79, 76
9, 186344, Note_on_c, 11, 79, 0
9, 186360, Note_on_c, 11, 77, 76
9, 186404, Note_on_c, 11, 77, 0
9, 186420, Note_on_c, 11, 76, 76
9, 186464, Note_on_c, 11, 76, 0
9, 186480, Note_on_c, 11, 74, 76
9, 186524, Note_on_c, 11, 74, 0
9, 186540, Note_on_c, 11, 77, 76
9, 186584, Note_on_c, 11, 77, 0
9, 186600, Note_on_c, 11, 76, 76
9, 186644, Note_on_c, 11, 76, 0
9, 186660, Note_on_c, 11, 74, 76
9, 186704, Note_on_c, 11, 74, 0
9, 186720, Note_on_c, 11, 79, 76
9, 186764, Note_on_c, 11, 79, 0
9, 186780, Note_on_c, 11, 77, 76
9, 186824, Note_on_c, 11, 77, 0
9, 186840, Note_on_c, 11, 76, 76
9, 186884, Note_on_c, 11, 76, 0
9, 186900, Note_on_c, 11, 74, 76
9, 186944, Note_on_c, 11, 74, 0
9, 186960, Note_on_c, 11, 72, 76
9, 187004, Note_on_c, 11, 72, 0
9, 187020, Note_on_c, 11, 71, 76
9, 187064, Note_on_c, 11, 71, 0
9, 187080, Note_on_c, 11, 72, 76
9, 187124, Note_on_c, 11, 72, 0
9, 187140, Note_on_c, 11, 69, 76
9, 187184, Note_on_c, 11, 69, 0
9, 187200, Note_on_c, 11, 74, 76
9, 187304, Note_on_c, 11, 74, 0
9, 187320, Note_on_c, 11, 76, 76
9, 187364, Note_on_c, 11, 76, 0
9, 187380, Note_on_c, 11, 78, 76
9, 187424, Note_on_c, 11, 78, 0
9, 187440, Note_on_c, 11, 79, 76
9, 187544, Note_on_c, 11, 79, 0
9, 187560, Note_on_c, 11, 81, 76
9, 187604, Note_on_c, 11, 81, 0
9, 187620, Note_on_c, 11, 83, 76
9, 187664, Note_on_c, 11, 83, 0
9, 187680, Note_on_c, 11, 84, 76
9, 187844, Note_on_c, 11, 84, 0
9, 187860, Note_on_c, 11, 83, 76
9, 187904, Note_on_c, 11, 83, 0
9, 187920, Note_on_c, 11, 81, 76
9, 187949, Note_on_c, 11, 81, 0
9, 187950, Note_on_c, 11, 83, 76
9, 187979, Note_on_c, 11, 83, 0
9, 187980, Note_on_c, 11, 81, 76
9, 188009, Note_on_c, 11, 81, 0
9, 188010, Note_on_c, 11, 83, 76
9, 188039, Note_on_c, 11, 83, 0
9, 188040, Note_on_c, 11, 79, 76
9, 188069, Note_on_c, 11, 79, 0
9, 188070, Note_on_c, 11, 81, 76
9, 188099, Note_on_c, 11, 81, 0
9, 188100, Note_on_c, 11, 79, 76
9, 188144, Note_on_c, 11, 79, 0
9, 188160, Note_on_c, 11, 79, 76
9, 188264, Note_on_c, 11, 79, 0
9, 188280, Note_on_c, 11, 77, 76
9, 188324, Note_on_c, 11, 77, 0
9, 188340, Note_on_c, 11, 76, 76
9, 188384, Note_on_c, 11, 76, 0
9, 188400, Note_on_c, 11, 74, 76
9, 188444, Note_on_c, 11, 74, 0
9, 188460, Note_on_c, 11, 76, 76
9, 188504, Note_on_c, 11, 76, 0
9, 188520, Note_on_c, 11, 77, 76
9, 188564, Note_on_c, 11, 77, 0
9, 188580, Note_on_c, 11, 74, 76
9, 188624, Note_on_c, 11, 74, 0
9, 188640, Note_on_c, 11, 76, 76
9, 188744, Note_on_c, 11, 76, 0
9, 188760, Note_on_c, 11, 72, 76
9, 188864, Note_on_c, 11, 72, 0
9, 188880, Note_on_c, 11, 84, 76
9, 189044, Note_on_c, 11, 84, 0
9, 189060, Note_on_c, 11, 84, 76
9, 189104, Note_on_c, 11, 84, 0
9, 189120, Note_on_c, 11, 84, 76
9, 189164, Note_on_c, 11, 84, 0
9, 189180, Note_on_c, 11, 82, 76
9, 189224, Note_on_c, 11, 82, 0
9, 189240, Note_on_c, 11, 84, 76
9, 189284, Note_on_c, 11, 84, 0
9, 189300, Note_on_c, 11, 81, 76
9, 189344, Note_on_c, 11, 81, 0
9, 189360, Note_on_c, 11, 82, 76
9, 189524, Note_on_c, 11, 82, 0
9, 189540, Note_on_c, 11, 82, 76
9, 189584, Note_on_c, 11, 82, 0
9, 189600, Note_on_c, 11, 82, 76
9, 189704, Note_on_c, 11, 82, 0
9, 189720, Note_on_c, 11, 76, 76
9, 189824, Note_on_c, 11, 76, 0
9, 189840, Note_on_c, 11, 81, 76
9, 190004, Note_on_c, 11, 81, 0
9, 190020, Note_on_c, 11, 81, 76
9, 190064, Note_on_c, 11, 81, 0
9, 190080, Note_on_c, 11, 81, 76
9, 190124, Note_on_c, 11, 81, 0
9, 190140, Note_on_c, 11, 79, 76
9, 190184, Note_on_c, 11, 79, 0
9, 190200, Note_on_c, 11, 81, 76
9, 190244, Note_on_c, 11, 81, 0
9, 190260, Note_on_c, 11, 77, 76
9, 190304, Note_on_c, 11, 77, 0
9, 190320, Note_on_c, 11, 79, 76
9, 190484, Note_on_c, 11, 79, 0
9, 190500, Note_on_c, 11, 79, 76
9, 190544, Note_on_c, 11, 79, 0
9, 190560, Note_on_c, 11, 79, 76
9, 190664, Note_on_c, 11, 79, 0
9, 190680, Note_on_c, 11, 72, 76
9, 190784, Note_on_c, 11, 72, 0
9, 190800, Note_on_c, 11, 77, 76
9, 190964, Note_on_c, 11, 77, 0
9, 190980, Note_on_c, 11, 77, 76
9, 191024, Note_on_c, 11, 77, 0
9, 191040, Note_on_c, 11, 77, 76
9, 191084, Note_on_c, 11, 77, 0
9, 191100, Note_on_c, 11, 81, 76
9, 191144, Note_on_c, 11, 81, 0
9, 191160, Note_on_c, 11, 79, 76
9, 191204, Note_on_c, 11, 79, 0
9, 191220, Note_on_c, 11, 77, 76
9, 191264, Note_on_c, 11, 77, 0
9, 191280, Note_on_c, 11, 76, 76
9, 191324, Note_on_c, 11, 76, 0
9, 191340, Note_on_c, 11, 74, 76
9, 191384, Note_on_c, 11, 74, 0
9, 191400, Note_on_c, 11, 72, 76
9, 191444, Note_on_c, 11, 72, 0
9, 191460, Note_on_c, 11, 71, 76
9, 191504, Note_on_c, 11, 71, 0
9, 191520, Note_on_c, 11, 72, 76
9, 191564, Note_on_c, 11, 72, 0
9, 191580, Note_on_c, 11, 76, 76
9, 191624, Note_on_c, 11, 76, 0
9, 191640, Note_on_c, 11, 81, 76
9, 191684, Note_on_c, 11, 81, 0
9, 191700, Note_on_c, 11, 79, 76
9, 191744, Note_on_c, 11, 79, 0
9, 191760, Note_on_c, 11, 77, 76
9, 191804, Note_on_c, 11, 77, 0
9, 191820, Note_on_c, 11, 76, 76
9, 191864, Note_on_c, 11, 76, 0
9, 191880, Note_on_c, 11, 74, 76
9, 191924, Note_on_c, 11, 74, 0
9, 191940, Note_on_c, 11, 72, 76
9, 191984, Note_on_c, 11, 72, 0
9, 192000, Note_on_c, 11, 71, 76
9, 192044, Note_on_c, 11, 71, 0
9, 192060, Note_on_c, 11, 69, 76
9, 192104, Note_on_c, 11, 69, 0
9, 192120, Note_on_c, 11, 67, 76
9, 192164, Note_on_c, 11, 67, 0
9, 192180, Note_on_c, 11, 69, 76
9, 192224, Note_on_c, 11, 69, 0
9, 192240, Note_on_c, 11, 71, 76
9, 192284, Note_on_c, 11, 71, 0
9, 192300, Note_on_c, 11, 69, 76
9, 192344, Note_on_c, 11, 69, 0
9, 192360, Note_on_c, 11, 71, 76
9, 192404, Note_on_c, 11, 71, 0
9, 192420, Note_on_c, 11, 67, 76
9, 192464, Note_on_c, 11, 67, 0
9, 192480, Note_on_c, 11, 72, 76
9, 192644, Note_on_c, 11, 72, 0
9, 192660, Note_on_c, 11, 74, 76
9, 192704, Note_on_c, 11, 74, 0
9, 192720, Note_on_c, 11, 71, 76
9, 192749, Note_on_c, 11, 71, 0
9, 192750, Note_on_c, 11, 72, 76
9, 192779, Note_on_c, 11, 72, 0
9, 192780, Note_on_c, 11, 71, 76
9, 192809, Note_on_c, 11, 71, 0
9, 192810, Note_on_c, 11, 72, 76
9, 192839, Note_on_c, 11, 72, 0
9, 192840, Note_on_c, 11, 69, 76
9, 192869, Note_on_c, 11, 69, 0
9, 192870, Note_on_c, 11, 71, 76
9, 192899, Note_on_c, 11, 71, 0
9, 192900, Note_on_c, 11, 72, 76
9, 192944, Note_on_c, 11, 72, 0
9, 192960, Note_on_c, 11, 72, 76
9, 193004, Note_on_c, 11, 72, 0
9, 193020, Note_on_c, 11, 77, 76
9, 193064, Note_on_c, 11, 77, 0
9, 193080, Note_on_c, 11, 76, 76
9, 193124, Note_on_c, 11, 76, 0
9, 193140, Note_on_c, 11, 74, 76
9, 193184, Note_on_c, 11, 74, 0
9, 193200, Note_on_c, 11, 72, 76
9, 193244, Note_on_c, 11, 72, 0
9, 193260, Note_on_c, 11, 70, 76
9, 193304, Note_on_c, 11, 70, 0
9, 193320, Note_on_c, 11, 72, 76
9, 193364, Note_on_c, 11, 72, 0
9, 193380, Note_on_c, 11, 69, 76
9, 193424, Note_on_c, 11, 69, 0
9, 193440, Note_on_c, 11, 70, 76
9, 193559, Note_on_c, 11, 70, 0
9, 194460, Note_on_c, 11, 59, 76
9, 194504, Note_on_c, 11, 59, 0
9, 194520, Note_on_c, 11, 60, 76
9, 194564, Note_on_c, 11, 60, 0
9, 194580, Note_on_c, 11, 62, 76
9, 194624, Note_on_c, 11, 62, 0
9, 194640, Note_on_c, 11, 64, 76
9, 194684, Note_on_c, 11, 64, 0
9, 194700, Note_on_c, 11, 62, 76
9, 194744, Note_on_c, 11, 62, 0
9, 194760, Note_on_c, 11, 64, 76
9, 194804, Note_on_c, 11, 64, 0
9, 194820, Note_on_c, 11, 65, 76
9, 194864, Note_on_c, 11, 65, 0
9, 194880, Note_on_c, 11, 67, 76
9, 194924, Note_on_c, 11, 67, 0
9, 194940, Note_on_c, 11, 70, 76
9, 194984, Note_on_c, 11, 70, 0
9, 195000, Note_on_c, 11, 69, 76
9, 195044, Note_on_c, 11, 69, 0
9, 195060, Note_on_c, 11, 67, 76
9, 195104, Note_on_c, 11, 67, 0
9, 195120, Note_on_c, 11, 65, 76
9, 195164, Note_on_c, 11, 65, 0
9, 195180, Note_on_c, 11, 64, 76
9, 195224, Note_on_c, 11, 64, 0
9, 195240, Note_on_c, 11, 65, 76
9, 195284, Note_on_c, 11, 65, 0
9, 195300, Note_on_c, 11, 62, 76
9, 195344, Note_on_c, 11, 62, 0
9, 195360, Note_on_c, 11, 67, 76
9, 195404, Note_on_c, 11, 67, 0
9, 195420, Note_on_c, 11, 65, 76
9, 195464, Note_on_c, 11, 65, 0
9, 195480, Note_on_c, 11, 67, 76
9, 195524, Note_on_c, 11, 67, 0
9, 195540, Note_on_c, 11, 69, 76
9, 195584, Note_on_c, 11, 69, 0
9, 195600, Note_on_c, 11, 67, 76
9, 195644, Note_on_c, 11, 67, 0
9, 195660, Note_on_c, 11, 65, 76
9, 195704, Note_on_c, 11, 65, 0
9, 195720, Note_on_c, 11, 64, 76
9, 195764, Note_on_c, 11, 64, 0
9, 195780, Note_on_c, 11, 62, 76
9, 195824, Note_on_c, 11, 62, 0
9, 195840, Note_on_c, 11, 60, 76
9, 195884, Note_on_c, 11, 60, 0
9, 195900, Note_on_c, 11, 76, 76
9, 195944, Note_on_c, 11, 76, 0
9, 195960, Note_on_c, 11, 77, 76
9, 196004, Note_on_c, 11, 77, 0
9, 196020, Note_on_c, 11, 79, 76
9, 196064, Note_on_c, 11, 79, 0
9, 196080, Note_on_c, 11, 81, 76
9, 196124, Note_on_c, 11, 81, 0
9, 196140, Note_on_c, 11, 79, 76
9, 196184, Note_on_c, 11, 79, 0
9, 196200, Note_on_c, 11, 77, 76
9, 196244, Note_on_c, 11, 77, 0
9, 196260, Note_on_c, 11, 76, 76
9, 196304, Note_on_c, 11, 76, 0
9, 196320, Note_on_c, 11, 74, 76
9, 196364, Note_on_c, 11, 74, 0
9, 196380, Note_on_c, 11, 77, 76
9, 196424, Note_on_c, 11, 77, 0
9, 196440, Note_on_c, 11, 76, 76
9, 196484, Note_on_c, 11, 76, 0
9, 196500, Note_on_c, 11, 77, 76
9, 196544, Note_on_c, 11, 77, 0
9, 196560, Note_on_c, 11, 79, 76
9, 196604, Note_on_c, 11, 79, 0
9, 196620, Note_on_c, 11, 77, 76
9, 196664, Note_on_c, 11, 77, 0
9, 196680, Note_on_c, 11, 76, 76
9, 196724, Note_on_c, 11, 76, 0
9, 196740, Note_on_c, 11, 74, 76
9, 196784, Note_on_c, 11, 74, 0
9, 196800, Note_on_c, 11, 72, 76
9, 196844, Note_on_c, 11, 72, 0
9, 196860, Note_on_c, 11, 76, 76
9, 196904, Note_on_c, 11, 76, 0
9, 196920, Note_on_c, 11, 74, 76
9, 196964, Note_on_c, 11, 74, 0
9, 196980, Note_on_c, 11, 76, 76
9, 197024, Note_on_c, 11, 76, 0
9, 197040, Note_on_c, 11, 77, 76
9, 197204, Note_on_c, 11, 77, 0
9, 197220, Note_on_c, 11, 77, 76
9, 197264, Note_on_c, 11, 77, 0
9, 197280, Note_on_c, 11, 77, 76
9, 197324, Note_on_c, 11, 77, 0
9, 197340, Note_on_c, 11, 76, 76
9, 197384, Note_on_c, 11, 76, 0
9, 197400, Note_on_c, 11, 77, 76
9, 197444, Note_on_c, 11, 77, 0
9, 197460, Note_on_c, 11, 74, 76
9, 197504, Note_on_c, 11, 74, 0
9, 197520, Note_on_c, 11, 76, 76
9, 197564, Note_on_c, 11, 76, 0
9, 197580, Note_on_c, 11, 79, 76
9, 197624, Note_on_c, 11, 79, 0
9, 197640, Note_on_c, 11, 77, 76
9, 197684, Note_on_c, 11, 77, 0
9, 197700, Note_on_c, 11, 79, 76
9, 197744, Note_on_c, 11, 79, 0
9, 197760, Note_on_c, 11, 81, 76
9, 198044, Note_on_c, 11, 81, 0
9, 198060, Note_on_c, 11, 74, 76
9, 198104, Note_on_c, 11, 74, 0
9, 198120, Note_on_c, 11, 76, 76
9, 198164, Note_on_c, 11, 76, 0
9, 198180, Note_on_c, 11, 77, 76
9, 198224, Note_on_c, 11, 77, 0
9, 198240, Note_on_c, 11, 79, 76
9, 198524, Note_on_c, 11, 79, 0
9, 198540, Note_on_c, 11, 72, 76
9, 198584, Note_on_c, 11, 72, 0
9, 198600, Note_on_c, 11, 74, 76
9, 198644, Note_on_c, 11, 74, 0
9, 198660, Note_on_c, 11, 76, 76
9, 198704, Note_on_c, 11, 76, 0
9, 198720, Note_on_c, 11, 77, 76
9, 198764, Note_on_c, 11, 77, 0
9, 198780, Note_on_c, 11, 76, 76
9, 198824, Note_on_c, 11, 76, 0
9, 198840, Note_on_c, 11, 74, 76
9, 198884, Note_on_c, 11, 74, 0
9, 198900, Note_on_c, 11, 72, 76
9, 198944, Note_on_c, 11, 72, 0
9, 198960, Note_on_c, 11, 71, 76
9, 199004, Note_on_c, 11, 71, 0
9, 199020, Note_on_c, 11, 74, 76
9, 199064, Note_on_c, 11, 74, 0
9, 199080, Note_on_c, 11, 76, 76
9, 199124, Note_on_c, 11, 76, 0
9, 199140, Note_on_c, 11, 77, 76
9, 199184, Note_on_c, 11, 77, 0
9, 199200, Note_on_c, 11, 76, 76
9, 199244, Note_on_c, 11, 76, 0
9, 199260, Note_on_c, 11, 79, 76
9, 199304, Note_on_c, 11, 79, 0
9, 199320, Note_on_c, 11, 77, 76
9, 199364, Note_on_c, 11, 77, 0
9, 199380, Note_on_c, 11, 79, 76
9, 199424, Note_on_c, 11, 79, 0
9, 199440, Note_on_c, 11, 81, 76
9, 199484, Note_on_c, 11, 81, 0
9, 199500, Note_on_c, 11, 79, 76
9, 199544, Note_on_c, 11, 79, 0
9, 199560, Note_on_c, 11, 77, 76
9, 199604, Note_on_c, 11, 77, 0
9, 199620, Note_on_c, 11, 76, 76
9, 199664, Note_on_c, 11, 76, 0
9, 199680, Note_on_c, 11, 74, 76
9, 199724, Note_on_c, 11, 74, 0
9, 199740, Note_on_c, 11, 77, 76
9, 199784, Note_on_c, 11, 77, 0
9, 199800, Note_on_c, 11, 76, 76
9, 199844, Note_on_c, 11, 76, 0
9, 199860, Note_on_c, 11, 77, 76
9, 199904, Note_on_c, 11, 77, 0
9, 199920, Note_on_c, 11, 79, 76
9, 199964, Note_on_c, 11, 79, 0
9, 199980, Note_on_c, 11, 77, 76
9, 200024, Note_on_c, 11, 77, 0
9, 200040, Note_on_c, 11, 76, 76
9, 200084, Note_on_c, 11, 76, 0
9, 200100, Note_on_c, 11, 74, 76
9, 200144, Note_on_c, 11, 74, 0
9, 200160, Note_on_c, 11, 72, 76
9, 200204, Note_on_c, 11, 72, 0
9, 200220, Note_on_c, 11, 76, 76
9, 200264, Note_on_c, 11, 76, 0
9, 200280, Note_on_c, 11, 74, 76
9, 200324, Note_on_c, 11, 74, 0
9, 200340, Note_on_c, 11, 76, 76
9, 200384, Note_on_c, 11, 76, 0
9, 200400, Note_on_c, 11, 77, 76
9, 200444, Note_on_c, 11, 77, 0
9, 200460, Note_on_c, 11, 76, 76
9, 200504, Note_on_c, 11, 76, 0
9, 200520, Note_on_c, 11, 74, 76
9, 200564, Note_on_c, 11, 74, 0
9, 200580, Note_on_c, 11, 72, 76
9, 200624, Note_on_c, 11, 72, 0
9, 200640, Note_on_c, 11, 71, 76
9, 200684, Note_on_c, 11, 71, 0
9, 200700, Note_on_c, 11, 74, 76
9, 200744, Note_on_c, 11, 74, 0
9, 200760, Note_on_c, 11, 72, 76
9, 200804, Note_on_c, 11, 72, 0
9, 200820, Note_on_c, 11, 74, 76
9, 200864, Note_on_c, 11, 74, 0
9, 200880, Note_on_c, 11, 76, 76
9, 200924, Note_on_c, 11, 76, 0
9, 200940, Note_on_c, 11, 74, 76
9, 200984, Note_on_c, 11, 74, 0
9, 201000, Note_on_c, 11, 72, 76
9, 201044, Note_on_c, 11, 72, 0
9, 201060, Note_on_c, 11, 71, 76
9, 201104, Note_on_c, 11, 71, 0
9, 201120, Note_on_c, 11, 69, 76
9, 201164, Note_on_c, 11, 69, 0
9, 201180, Note_on_c, 11, 72, 76
9, 201224, Note_on_c, 11, 72, 0
9, 201240, Note_on_c, 11, 71, 76
9, 201284, Note_on_c, 11, 71, 0
9, 201300, Note_on_c, 11, 72, 76
9, 201344, Note_on_c, 11, 72, 0
9, 201360, Note_on_c, 11, 74, 76
9, 201404, Note_on_c, 11, 74, 0
9, 201420, Note_on_c, 11, 72, 76
9, 201464, Note_on_c, 11, 72, 0
9, 201480, Note_on_c, 11, 71, 76
9, 201524, Note_on_c, 11, 71, 0
9, 201540, Note_on_c, 11, 69, 76
9, 201584, Note_on_c, 11, 69, 0
9, 201600, Note_on_c, 11, 71, 76
9, 201704, Note_on_c, 11, 71, 0
9, 201720, Note_on_c, 11, 79, 76
9, 201824, Note_on_c, 11, 79, 0
9, 201840, Note_on_c, 11, 79, 76
9, 201944, Note_on_c, 11, 79, 0
9, 201960, Note_on_c, 11, 79, 76
9, 202064, Note_on_c, 11, 79, 0
9, 202080, Note_on_c, 11, 76, 76
9, 202184, Note_on_c, 11, 76, 0
9, 202200, Note_on_c, 11, 77, 76
9, 202244, Note_on_c, 11, 77, 0
9, 202260, Note_on_c, 11, 79, 76
9, 202304, Note_on_c, 11, 79, 0
9, 202320, Note_on_c, 11, 81, 76
9, 202424, Note_on_c, 11, 81, 0
9, 202440, Note_on_c, 11, 77, 76
9, 202544, Note_on_c, 11, 77, 0
9, 202560, Note_on_c, 11, 74, 76
9, 202664, Note_on_c, 11, 74, 0
9, 202680, Note_on_c, 11, 79, 76
9, 202784, Note_on_c, 11, 79, 0
9, 202800, Note_on_c, 11, 67, 76
9, 202904, Note_on_c, 11, 67, 0
9, 202920, Note_on_c, 11, 77, 76
9, 203024, Note_on_c, 11, 77, 0
9, 203040, Note_on_c, 11, 76, 76
9, 203204, Note_on_c, 11, 76, 0
9, 203220, Note_on_c, 11, 74, 76
9, 203264, Note_on_c, 11, 74, 0
9, 203280, Note_on_c, 11, 74, 76
9, 203309, Note_on_c, 11, 74, 0
9, 203310, Note_on_c, 11, 76, 76
9, 203339, Note_on_c, 11, 76, 0
9, 203340, Note_on_c, 11, 74, 76
9, 203369, Note_on_c, 11, 74, 0
9, 203370, Note_on_c, 11, 76, 76
9, 203399, Note_on_c, 11, 76, 0
9, 203400, Note_on_c, 11, 72, 76
9, 203429, Note_on_c, 11, 72, 0
9, 203430, Note_on_c, 11, 74, 76
9, 203459, Note_on_c, 11, 74, 0
9, 203460, Note_on_c, 11, 72, 76
9, 203504, Note_on_c, 11, 72, 0
9, 203520, Note_on_c, 11, 72, 76
9, 203811, Note_on_c, 11, 72, 0
9, 203820, Note_on_c, 11, 72, 76
9, 203871, Note_on_c, 11, 72, 0
9, 203880, Note_on_c, 11, 70, 76
9, 203931, Note_on_c, 11, 70, 0
9, 203940, Note_on_c, 11, 69, 76
9, 203991, Note_on_c, 11, 69, 0
9, 204000, Note_on_c, 11, 67, 76
9, 204351, Note_on_c, 11, 67, 0
9, 204360, Note_on_c, 11, 69, 76
9, 204471, Note_on_c, 11, 69, 0
9, 204480, Note_on_c, 11, 70, 76
9, 204651, Note_on_c, 11, 70, 0
9, 204660, Note_on_c, 11, 70, 76
9, 204711, Note_on_c, 11, 70, 0
9, 204720, Note_on_c, 11, 72, 76
9, 204891, Note_on_c, 11, 72, 0
9, 204900, Note_on_c, 11, 74, 76
9, 204951, Note_on_c, 11, 74, 0
9, 204960, Note_on_c, 11, 67, 76
9, 205131, Note_on_c, 11, 67, 0
9, 205140, Note_on_c, 11, 67, 76
9, 205191, Note_on_c, 11, 67, 0
9, 205200, Note_on_c, 11, 69, 76
9, 205371, Note_on_c, 11, 69, 0
9, 205380, Note_on_c, 11, 70, 76
9, 205431, Note_on_c, 11, 70, 0
9, 205440, Note_on_c, 11, 69, 76
9, 205731, Note_on_c, 11, 69, 0
9, 205740, Note_on_c, 11, 69, 76
9, 205791, Note_on_c, 11, 69, 0
9, 205800, Note_on_c, 11, 71, 76
9, 205851, Note_on_c, 11, 71, 0
9, 205860, Note_on_c, 11, 73, 76
9, 205911, Note_on_c, 11, 73, 0
9, 205920, Note_on_c, 11, 74, 76
9, 205971, Note_on_c, 11, 74, 0
9, 205980, Note_on_c, 11, 73, 76
9, 206031, Note_on_c, 11, 73, 0
9, 206040, Note_on_c, 11, 74, 76
9, 206091, Note_on_c, 11, 74, 0
9, 206100, Note_on_c, 11, 76, 76
9, 206151, Note_on_c, 11, 76, 0
9, 206160, Note_on_c, 11, 77, 76
9, 206211, Note_on_c, 11, 77, 0
9, 206220, Note_on_c, 11, 76, 76
9, 206271, Note_on_c, 11, 76, 0
9, 206280, Note_on_c, 11, 77, 76
9, 206331, Note_on_c, 11, 77, 0
9, 206340, Note_on_c, 11, 74, 76
9, 206391, Note_on_c, 11, 74, 0
9, 206400, Note_on_c, 11, 79, 76
9, 206751, Note_on_c, 11, 79, 0
9, 206760, Note_on_c, 11, 79, 76
9, 206871, Note_on_c, 11, 79, 0
9, 206880, Note_on_c, 11, 79, 76
9, 207051, Note_on_c, 11, 79, 0
9, 207060, Note_on_c, 11, 81, 76
9, 207089, Note_on_c, 11, 81, 0
9, 207090, Note_on_c, 11, 82, 76
9, 207119, Note_on_c, 11, 82, 0
9, 207120, Note_on_c, 11, 81, 76
9, 207291, Note_on_c, 11, 81, 0
9, 207300, Note_on_c, 11, 79, 76
9, 207319, Note_on_c, 11, 79, 0
9, 207320, Note_on_c, 11, 77, 76
9, 207339, Note_on_c, 11, 77, 0
9, 207340, Note_on_c, 11, 76, 76
9, 207359, Note_on_c, 11, 76, 0
9, 207360, Note_on_c, 11, 77, 76
9, 207531, Note_on_c, 11, 77, 0
9, 207540, Note_on_c, 11, 74, 76
9, 207591, Note_on_c, 11, 74, 0
9, 207600, Note_on_c, 11, 77, 76
9, 207771, Note_on_c, 11, 77, 0
9, 207780, Note_on_c, 11, 81, 76
9, 207831, Note_on_c, 11, 81, 0
9, 207840, Note_on_c, 11, 78, 76
9, 207854, Note_on_c, 11, 78, 0
9, 207855, Note_on_c, 11, 79, 76
9, 207869, Note_on_c, 11, 79, 0
9, 207870, Note_on_c, 11, 78, 76
9, 207884, Note_on_c, 11, 78, 0
9, 207885, Note_on_c, 11, 79, 76
9, 207899, Note_on_c, 11, 79, 0
9, 207900, Note_on_c, 11, 78, 76
9, 207914, Note_on_c, 11, 78, 0
9, 207915, Note_on_c, 11, 79, 76
9, 207929, Note_on_c, 11, 79, 0
9, 207930, Note_on_c, 11, 78, 76
9, 207944, Note_on_c, 11, 78, 0
9, 207945, Note_on_c, 11, 79, 76
9, 207959, Note_on_c, 11, 79, 0
9, 207960, Note_on_c, 11, 78, 76
9, 207974, Note_on_c, 11, 78, 0
9, 207975, Note_on_c, 11, 79, 76
9, 207989, Note_on_c, 11, 79, 0
9, 207990, Note_on_c, 11, 78, 76
9, 208004, Note_on_c, 11, 78, 0
9, 208005, Note_on_c, 11, 79, 76
9, 208019, Note_on_c, 11, 79, 0
9, 208020, Note_on_c, 11, 78, 76
9, 208034, Note_on_c, 11, 78, 0
9, 208035, Note_on_c, 11, 79, 76
9, 208049, Note_on_c, 11, 79, 0
9, 208050, Note_on_c, 11, 78, 76
9, 208064, Note_on_c, 11, 78, 0
9, 208065, Note_on_c, 11, 79, 76
9, 208079, Note_on_c, 11, 79, 0
9, 208080, Note_on_c, 11, 78, 76
9, 208094, Note_on_c, 11, 78, 0
9, 208095, Note_on_c, 11, 79, 76
9, 208109, Note_on_c, 11, 79, 0
9, 208110, Note_on_c, 11, 78, 76
9, 208124, Note_on_c, 11, 78, 0
9, 208125, Note_on_c, 11, 79, 76
9, 208139, Note_on_c, 11, 79, 0
9, 208140, Note_on_c, 11, 78, 76
9, 208154, Note_on_c, 11, 78, 0
9, 208155, Note_on_c, 11, 79, 76
9, 208169, Note_on_c, 11, 79, 0
9, 208170, Note_on_c, 11, 78, 76
9, 208184, Note_on_c, 11, 78, 0
9, 208185, Note_on_c, 11, 79, 76
9, 208199, Note_on_c, 11, 79, 0
9, 208200, Note_on_c, 11, 76, 76
9, 208251, Note_on_c, 11, 76, 0
9, 208260, Note_on_c, 11, 78, 76
9, 208311, Note_on_c, 11, 78, 0
9, 208320, Note_on_c, 11, 79, 76
9, 208851, Note_on_c, 11, 79, 0
9, 208860, Note_on_c, 11, 81, 76
9, 208911, Note_on_c, 11, 81, 0
9, 208920, Note_on_c, 11, 79, 76
9, 208971, Note_on_c, 11, 79, 0
9, 208980, Note_on_c, 11, 77, 76
9, 209031, Note_on_c, 11, 77, 0
9, 209040, Note_on_c, 11, 76, 76
9, 209091, Note_on_c, 11, 76, 0
9, 209100, Note_on_c, 11, 74, 76
9, 209151, Note_on_c, 11, 74, 0
9, 209160, Note_on_c, 11, 76, 76
9, 209211, Note_on_c, 11, 76, 0
9, 209220, Note_on_c, 11, 72, 76
9, 209271, Note_on_c, 11, 72, 0
9, 209280, Note_on_c, 11, 81, 76
9, 209811, Note_on_c, 11, 81, 0
9, 209820, Note_on_c, 11, 79, 76
9, 209871, Note_on_c, 11, 79, 0
9, 209880, Note_on_c, 11, 81, 76
9, 209931, Note_on_c, 11, 81, 0
9, 209940, Note_on_c, 11, 83, 76
9, 209991, Note_on_c, 11, 83, 0
9, 210000, Note_on_c, 11, 84, 76
9, 210051, Note_on_c, 11, 84, 0
9, 210060, Note_on_c, 11, 81, 76
9, 210111, Note_on_c, 11, 81, 0
9, 210120, Note_on_c, 11, 83, 76
9, 210171, Note_on_c, 11, 83, 0
9, 210180, Note_on_c, 11, 84, 76
9, 210231, Note_on_c, 11, 84, 0
9, 210240, Note_on_c, 11, 77, 76
9, 210291, Note_on_c, 11, 77, 0
9, 210300, Note_on_c, 11, 76, 76
9, 210351, Note_on_c, 11, 76, 0
9, 210360, Note_on_c, 11, 77, 76
9, 210411, Note_on_c, 11, 77, 0
9, 210420, Note_on_c, 11, 79, 76
9, 210471, Note_on_c, 11, 79, 0
9, 210480, Note_on_c, 11, 81, 76
9, 210531, Note_on_c, 11, 81, 0
9, 210540, Note_on_c, 11, 77, 76
9, 210591, Note_on_c, 11, 77, 0
9, 210600, Note_on_c, 11, 79, 76
9, 210651, Note_on_c, 11, 79, 0
9, 210660, Note_on_c, 11, 81, 76
9, 210711, Note_on_c, 11, 81, 0
9, 210720, Note_on_c, 11, 71, 76
9, 211071, Note_on_c, 11, 71, 0
9, 211080, Note_on_c, 11, 72, 76
9, 211191, Note_on_c, 11, 72, 0
9, 211200, Note_on_c, 11, 74, 76
9, 211251, Note_on_c, 11, 74, 0
9, 211260, Note_on_c, 11, 71, 76
9, 211311, Note_on_c, 11, 71, 0
9, 211320, Note_on_c, 11, 67, 76
9, 211371, Note_on_c, 11, 67, 0
9, 211380, Note_on_c, 11, 69, 76
9, 211431, Note_on_c, 11, 69, 0
9, 211440, Note_on_c, 11, 71, 76
9, 211491, Note_on_c, 11, 71, 0
9, 211500, Note_on_c, 11, 72, 76
9, 211551, Note_on_c, 11, 72, 0
9, 211560, Note_on_c, 11, 74, 76
9, 211611, Note_on_c, 11, 74, 0
9, 211620, Note_on_c, 11, 76, 76
9, 211671, Note_on_c, 11, 76, 0
9, 211680, Note_on_c, 11, 77, 76
9, 212031, Note_on_c, 11, 77, 0
9, 212040, Note_on_c, 11, 77, 76
9, 212151, Note_on_c, 11, 77, 0
9, 212160, Note_on_c, 11, 77, 76
9, 212174, Note_on_c, 11, 77, 0
9, 212175, Note_on_c, 11, 79, 76
9, 212189, Note_on_c, 11, 79, 0
9, 212190, Note_on_c, 11, 77, 76
9, 212204, Note_on_c, 11, 77, 0
9, 212205, Note_on_c, 11, 79, 76
9, 212219, Note_on_c, 11, 79, 0
9, 212220, Note_on_c, 11, 77, 76
9, 212234, Note_on_c, 11, 77, 0
9, 212235, Note_on_c, 11, 79, 76
9, 212249, Note_on_c, 11, 79, 0
9, 212250, Note_on_c, 11, 77, 76
9, 212264, Note_on_c, 11, 77, 0
9, 212265, Note_on_c, 11, 79, 76
9, 212279, Note_on_c, 11, 79, 0
9, 212280, Note_on_c, 11, 77, 76
9, 212294, Note_on_c, 11, 77, 0
9, 212295, Note_on_c, 11, 79, 76
9, 212309, Note_on_c, 11, 79, 0
9, 212310, Note_on_c, 11, 76, 76
9, 212324, Note_on_c, 11, 76, 0
9, 212325, Note_on_c, 11, 77, 76
9, 212339, Note_on_c, 11, 77, 0
9, 212340, Note_on_c, 11, 76, 76
9, 212369, Note_on_c, 11, 76, 0
9, 212370, Note_on_c, 11, 74, 76
9, 212399, Note_on_c, 11, 74, 0
9, 212400, Note_on_c, 11, 76, 76
9, 212571, Note_on_c, 11, 76, 0
9, 212580, Note_on_c, 11, 77, 76
9, 212609, Note_on_c, 11, 77, 0
9, 212610, Note_on_c, 11, 79, 76
9, 212639, Note_on_c, 11, 79, 0
9, 212640, Note_on_c, 11, 70, 76
9, 212991, Note_on_c, 11, 70, 0
9, 213000, Note_on_c, 11, 70, 76
9, 213111, Note_on_c, 11, 70, 0
9, 213120, Note_on_c, 11, 70, 76
9, 213134, Note_on_c, 11, 70, 0
9, 213135, Note_on_c, 11, 72, 76
9, 213149, Note_on_c, 11, 72, 0
9, 213150, Note_on_c, 11, 70, 76
9, 213164, Note_on_c, 11, 70, 0
9, 213165, Note_on_c, 11, 72, 76
9, 213179, Note_on_c, 11, 72, 0
9, 213180, Note_on_c, 11, 70, 76
9, 213194, Note_on_c, 11, 70, 0
9, 213195, Note_on_c, 11, 72, 76
9, 213209, Note_on_c, 11, 72, 0
9, 213210, Note_on_c, 11, 70, 76
9, 213224, Note_on_c, 11, 70, 0
9, 213225, Note_on_c, 11, 72, 76
9, 213239, Note_on_c, 11, 72, 0
9, 213240, Note_on_c, 11, 70, 76
9, 213254, Note_on_c, 11, 70, 0
9, 213255, Note_on_c, 11, 72, 76
9, 213269, Note_on_c, 11, 72, 0
9, 213270, Note_on_c, 11, 69, 76
9, 213284, Note_on_c, 11, 69, 0
9, 213285, Note_on_c, 11, 70, 76
9, 213299, Note_on_c, 11, 70, 0
9, 213300, Note_on_c, 11, 69, 76
9, 213329, Note_on_c, 11, 69, 0
9, 213330, Note_on_c, 11, 67, 76
9, 213359, Note_on_c, 11, 67, 0
9, 213360, Note_on_c, 11, 69, 76
9, 213531, Note_on_c, 11, 69, 0
9, 213540, Note_on_c, 11, 71, 76
9, 213591, Note_on_c, 11, 71, 0
9, 213600, Note_on_c, 11, 72, 76
9, 213951, Note_on_c, 11, 72, 0
9, 213960, Note_on_c, 11, 72, 76
9, 214071, Note_on_c, 11, 72, 0
9, 214080, Note_on_c, 11, 72, 76
9, 214094, Note_on_c, 11, 72, 0
9, 214095, Note_on_c, 11, 74, 76
9, 214109, Note_on_c, 11, 74, 0
9, 214110, Note_on_c, 11, 72, 76
9, 214124, Note_on_c, 11, 72, 0
9, 214125, Note_on_c, 11, 74, 76
9, 214139, Note_on_c, 11, 74, 0
9, 214140, Note_on_c, 11, 72, 76
9, 214154, Note_on_c, 11, 72, 0
9, 214155, Note_on_c, 11, 74, 76
9, 214169, Note_on_c, 11, 74, 0
9, 214170, Note_on_c, 11, 72, 76
9, 214184, Note_on_c, 11, 72, 0
9, 214185, Note_on_c, 11, 74, 76
9, 214199, Note_on_c, 11, 74, 0
9, 214200, Note_on_c, 11, 72, 76
9, 214214, Note_on_c, 11, 72, 0
9, 214215, Note_on_c, 11, 74, 76
9, 214229, Note_on_c, 11, 74, 0
9, 214230, Note_on_c, 11, 71, 76
9, 214244, Note_on_c, 11, 71, 0
9, 214245, Note_on_c, 11, 72, 76
9, 214259, Note_on_c, 11, 72, 0
9, 214260, Note_on_c, 11, 71, 76
9, 214289, Note_on_c, 11, 71, 0
9, 214290, Note_on_c, 11, 69, 76
9, 214319, Note_on_c, 11, 69, 0
9, 214320, Note_on_c, 11, 77, 76
9, 214334, Note_on_c, 11, 77, 0
9, 214335, Note_on_c, 11, 79, 76
9, 214349, Note_on_c, 11, 79, 0
9, 214350, Note_on_c, 11, 77, 76
9, 214364, Note_on_c, 11, 77, 0
9, 214365, Note_on_c, 11, 79, 76
9, 214379, Note_on_c, 11, 79, 0
9, 214380, Note_on_c, 11, 77, 76
9, 214394, Note_on_c, 11, 77, 0
9, 214395, Note_on_c, 11, 79, 76
9, 214409, Note_on_c, 11, 79, 0
9, 214410, Note_on_c, 11, 77, 76
9, 214424, Note_on_c, 11, 77, 0
9, 214425, Note_on_c, 11, 79, 76
9, 214439, Note_on_c, 11, 79, 0
9, 214440, Note_on_c, 11, 77, 76
9, 214454, Note_on_c, 11, 77, 0
9, 214455, Note_on_c, 11, 79, 76
9, 214469, Note_on_c, 11, 79, 0
9, 214470, Note_on_c, 11, 76, 76
9, 214484, Note_on_c, 11, 76, 0
9, 214485, Note_on_c, 11, 77, 76
9, 214499, Note_on_c, 11, 77, 0
9, 214500, Note_on_c, 11, 76, 76
9, 214529, Note_on_c, 11, 76, 0
9, 214530, Note_on_c, 11, 74, 76
9, 214559, Note_on_c, 11, 74, 0
9, 214560, Note_on_c, 11, 83, 76
9, 214574, Note_on_c, 11, 83, 0
9, 214575, Note_on_c, 11, 84, 76
9, 214589, Note_on_c, 11, 84, 0
9, 214590, Note_on_c, 11, 83, 76
9, 214604, Note_on_c, 11, 83, 0
9, 214605, Note_on_c, 11, 84, 76
9, 214619, Note_on_c, 11, 84, 0
9, 214620, Note_on_c, 11, 83, 76
9, 214634, Note_on_c, 11, 83, 0
9, 214635, Note_on_c, 11, 84, 76
9, 214649, Note_on_c, 11, 84, 0
9, 214650, Note_on_c, 11, 83, 76
9, 214664, Note_on_c, 11, 83, 0
9, 214665, Note_on_c, 11, 84, 76
9, 214679, Note_on_c, 11, 84, 0
9, 214680, Note_on_c, 11, 83, 76
9, 214694, Note_on_c, 11, 83, 0
9, 214695, Note_on_c, 11, 84, 76
9, 214709, Note_on_c, 11, 84, 0
9, 214710, Note_on_c, 11, 81, 76
9, 214724, Note_on_c, 11, 81, 0
9, 214725, Note_on_c, 11, 83, 76
9, 214739, Note_on_c, 11, 83, 0
9, 214740, Note_on_c, 11, 81, 76
9, 214769, Note_on_c, 11, 81, 0
9, 214770, Note_on_c, 11, 79, 76
9, 214799, Note_on_c, 11, 79, 0
9, 214800, Note_on_c, 11, 86, 76
9, 214971, Note_on_c, 11, 86, 0
9, 214980, Note_on_c, 11, 77, 76
9, 215031, Note_on_c, 11, 77, 0
9, 215040, Note_on_c, 11, 77, 76
9, 215331, Note_on_c, 11, 77, 0
9, 215340, Note_on_c, 11, 81, 76
9, 215391, Note_on_c, 11, 81, 0
9, 215400, Note_on_c, 11, 79, 76
9, 215451, Note_on_c, 11, 79, 0
9, 215460, Note_on_c, 11, 77, 76
9, 215511, Note_on_c, 11, 77, 0
9, 215520, Note_on_c, 11, 76, 76
9, 215571, Note_on_c, 11, 76, 0
9, 215580, Note_on_c, 11, 72, 76
9, 215631, Note_on_c, 11, 72, 0
9, 215640, Note_on_c, 11, 74, 76
9, 215691, Note_on_c, 11, 74, 0
9, 215700, Note_on_c, 11, 76, 76
9, 215751, Note_on_c, 11, 76, 0
9, 215760, Note_on_c, 11, 77, 76
9, 215811, Note_on_c, 11, 77, 0
9, 215820, Note_on_c, 11, 79, 76
9, 215871, Note_on_c, 11, 79, 0
9, 215880, Note_on_c, 11, 81, 76
9, 215931, Note_on_c, 11, 81, 0
9, 215940, Note_on_c, 11, 82, 76
9, 215991, Note_on_c, 11, 82, 0
9, 216000, Note_on_c, 11, 81, 76
9, 216051, Note_on_c, 11, 81, 0
9, 216060, Note_on_c, 11, 79, 76
9, 216111, Note_on_c, 11, 79, 0
9, 216120, Note_on_c, 11, 77, 76
9, 216171, Note_on_c, 11, 77, 0
9, 216180, Note_on_c, 11, 76, 76
9, 216231, Note_on_c, 11, 76, 0
9, 216240, Note_on_c, 11, 77, 76
9, 216291, Note_on_c, 11, 77, 0
9, 216300, Note_on_c, 11, 74, 76
9, 216351, Note_on_c, 11, 74, 0
9, 216360, Note_on_c, 11, 76, 76
9, 216411, Note_on_c, 11, 76, 0
9, 216420, Note_on_c, 11, 77, 76
9, 216471, Note_on_c, 11, 77, 0
9, 216480, Note_on_c, 11, 67, 76
9, 216801, Note_on_c, 11, 67, 0
9, 216810, Note_on_c, 11, 69, 76
9, 216839, Note_on_c, 11, 69, 0
9, 216840, Note_on_c, 11, 71, 76
9, 216869, Note_on_c, 11, 71, 0
9, 216870, Note_on_c, 11, 72, 76
9, 216899, Note_on_c, 11, 72, 0
9, 216900, Note_on_c, 11, 74, 76
9, 216929, Note_on_c, 11, 74, 0
9, 216930, Note_on_c, 11, 76, 76
9, 216959, Note_on_c, 11, 76, 0
9, 216960, Note_on_c, 11, 77, 76
9, 217131, Note_on_c, 11, 77, 0
9, 217140, Note_on_c, 11, 74, 76
9, 217191, Note_on_c, 11, 74, 0
9, 217200, Note_on_c, 11, 76, 76
9, 217371, Note_on_c, 11, 76, 0
9, 217380, Note_on_c, 11, 77, 76
9, 217431, Note_on_c, 11, 77, 0
9, 217440, Note_on_c, 11, 74, 76
9, 217454, Note_on_c, 11, 74, 0
9, 217455, Note_on_c, 11, 76, 76
9, 217469, Note_on_c, 11, 76, 0
9, 217470, Note_on_c, 11, 74, 76
9, 217484, Note_on_c, 11, 74, 0
9, 217485, Note_on_c, 11, 76, 76
9, 217499, Note_on_c, 11, 76, 0
9, 217500, Note_on_c, 11, 74, 76
9, 217514, Note_on_c, 11, 74, 0
9, 217515, Note_on_c, 11, 76, 76
9, 217529, Note_on_c, 11, 76, 0
9, 217530, Note_on_c, 11, 74, 76
9, 217544, Note_on_c, 11, 74, 0
9, 217545, Note_on_c, 11, 76, 76
9, 217559, Note_on_c, 11, 76, 0
9, 217560, Note_on_c, 11, 74, 76
9, 217574, Note_on_c, 11, 74, 0
9, 217575, Note_on_c, 11, 76, 76
9, 217589, Note_on_c, 11, 76, 0
9, 217590, Note_on_c, 11, 74, 76
9, 217604, Note_on_c, 11, 74, 0
9, 217605, Note_on_c, 11, 76, 76
9, 217619, Note_on_c, 11, 76, 0
9, 217620, Note_on_c, 11, 74, 76
9, 217634, Note_on_c, 11, 74, 0
9, 217635, Note_on_c, 11, 76, 76
9, 217649, Note_on_c, 11, 76, 0
9, 217650, Note_on_c, 11, 74, 76
9, 217664, Note_on_c, 11, 74, 0
9, 217665, Note_on_c, 11, 76, 76
9, 217679, Note_on_c, 11, 76, 0
9, 217680, Note_on_c, 11, 74, 76
9, 217694, Note_on_c, 11, 74, 0
9, 217695, Note_on_c, 11, 76, 76
9, 217709, Note_on_c, 11, 76, 0
9, 217710, Note_on_c, 11, 74, 76
9, 217724, Note_on_c, 11, 74, 0
9, 217725, Note_on_c, 11, 76, 76
9, 217739, Note_on_c, 11, 76, 0
9, 217740, Note_on_c, 11, 74, 76
9, 217754, Note_on_c, 11, 74, 0
9, 217755, Note_on_c, 11, 76, 76
9, 217769, Note_on_c, 11, 76, 0
9, 217770, Note_on_c, 11, 72, 76
9, 217784, Note_on_c, 11, 72, 0
9, 217785, Note_on_c, 11, 74, 76
9, 217799, Note_on_c, 11, 74, 0
9, 217800, Note_on_c, 11, 72, 76
9, 217911, Note_on_c, 11, 72, 0
9, 217920, Note_on_c, 11, 72, 76
9, 218879, Note_on_c, 11, 72, 0
9, 218879, End_track
10, 0, Start_track
10, 0, Title_t, "Violin II"
10, 0, MIDI_port, 0
10, 0, Program_c, 12, 48
10, 0, Control_c, 12, 10, 24
10, 0, Control_c, 12, 11, 127
10, 0, Control_c, 12, 7, 96
10, 0, Note_on_c, 12, 72, 76
10, 291, Note_on_c, 12, 72, 0
10, 300, Note_on_c, 12, 71, 76
10, 351, Note_on_c, 12, 71, 0
10, 360, Note_on_c, 12, 72, 76
10, 411, Note_on_c, 12, 72, 0
10, 420, Note_on_c, 12, 74, 76
10, 471, Note_on_c, 12, 74, 0
10, 480, Note_on_c, 12, 76, 76
10, 651, Note_on_c, 12, 76, 0
10, 660, Note_on_c, 12, 74, 76
10, 711, Note_on_c, 12, 74, 0
10, 720, Note_on_c, 12, 76, 76
10, 891, Note_on_c, 12, 76, 0
10, 900, Note_on_c, 12, 72, 76
10, 951, Note_on_c, 12, 72, 0
10, 960, Note_on_c, 12, 69, 76
10, 1311, Note_on_c, 12, 69, 0
10, 1320, Note_on_c, 12, 69, 76
10, 1431, Note_on_c, 12, 69, 0
10, 1440, Note_on_c, 12, 74, 76
10, 1611, Note_on_c, 12, 74, 0
10, 1620, Note_on_c, 12, 72, 76
10, 1671, Note_on_c, 12, 72, 0
10, 1680, Note_on_c, 12, 74, 76
10, 1851, Note_on_c, 12, 74, 0
10, 1860, Note_on_c, 12, 71, 76
10, 1911, Note_on_c, 12, 71, 0
10, 1920, Note_on_c, 12, 64, 76
10, 2151, Note_on_c, 12, 64, 0
10, 2160, Note_on_c, 12, 69, 76
10, 2571, Note_on_c, 12, 69, 0
10, 2580, Note_on_c, 12, 69, 76
10, 2631, Note_on_c, 12, 69, 0
10, 2640, Note_on_c, 12, 71, 76
10, 2811, Note_on_c, 12, 71, 0
10, 2820, Note_on_c, 12, 72, 76
10, 2871, Note_on_c, 12, 72, 0
10, 2880, Note_on_c, 12, 71, 76
10, 3051, Note_on_c, 12, 71, 0
10, 3060, Note_on_c, 12, 72, 76
10, 3111, Note_on_c, 12, 72, 0
10, 3120, Note_on_c, 12, 74, 76
10, 3291, Note_on_c, 12, 74, 0
10, 3300, Note_on_c, 12, 71, 76
10, 3351, Note_on_c, 12, 71, 0
10, 3360, Note_on_c, 12, 72, 76
10, 3711, Note_on_c, 12, 72, 0
10, 3720, Note_on_c, 12, 74, 76
10, 3831, Note_on_c, 12, 74, 0
10, 3840, Note_on_c, 12, 71, 76
10, 4491, Note_on_c, 12, 71, 0
10, 4500, Note_on_c, 12, 72, 76
10, 4551, Note_on_c, 12, 72, 0
10, 4560, Note_on_c, 12, 74, 76
10, 4731, Note_on_c, 12, 74, 0
10, 4740, Note_on_c, 12, 67, 76
10, 4791, Note_on_c, 12, 67, 0
10, 4800, Note_on_c, 12, 76, 76
10, 5451, Note_on_c, 12, 76, 0
10, 5460, Note_on_c, 12, 74, 76
10, 5511, Note_on_c, 12, 74, 0
10, 5520, Note_on_c, 12, 76, 76
10, 5691, Note_on_c, 12, 76, 0
10, 5700, Note_on_c, 12, 78, 76
10, 5751, Note_on_c, 12, 78, 0
10, 5760, Note_on_c, 12, 71, 76
10, 6411, Note_on_c, 12, 71, 0
10, 6420, Note_on_c, 12, 71, 76
10, 6471, Note_on_c, 12, 71, 0
10, 6480, Note_on_c, 12, 76, 76
10, 6651, Note_on_c, 12, 76, 0
10, 6660, Note_on_c, 12, 74, 76
10, 6711, Note_on_c, 12, 74, 0
10, 6720, Note_on_c, 12, 76, 76
10, 7371, Note_on_c, 12, 76, 0
10, 7380, Note_on_c, 12, 74, 76
10, 7431, Note_on_c, 12, 74, 0
10, 7440, Note_on_c, 12, 76, 76
10, 7611, Note_on_c, 12, 76, 0
10, 7620, Note_on_c, 12, 73, 76
10, 7671, Note_on_c, 12, 73, 0
10, 7680, Note_on_c, 12, 74, 76
10, 8031, Note_on_c, 12, 74, 0
10, 8040, Note_on_c, 12, 66, 76
10, 8151, Note_on_c, 12, 66, 0
10, 8160, Note_on_c, 12, 67, 76
10, 8331, Note_on_c, 12, 67, 0
10, 8340, Note_on_c, 12, 69, 76
10, 8359, Note_on_c, 12, 69, 0
10, 8360, Note_on_c, 12, 67, 76
10, 8379, Note_on_c, 12, 67, 0
10, 8380, Note_on_c, 12, 69, 76
10, 8399, Note_on_c, 12, 69, 0
10, 8400, Note_on_c, 12, 69, 76
10, 8414, Note_on_c, 12, 69, 0
10, 8415, Note_on_c, 12, 71, 76
10, 8429, Note_on_c, 12, 71, 0
10, 8430, Note_on_c, 12, 69, 76
10, 8444, Note_on_c, 12, 69, 0
10, 8445, Note_on_c, 12, 71, 76
10, 8459, Note_on_c, 12, 71, 0
10, 8460, Note_on_c, 12, 69, 76
10, 8474, Note_on_c, 12, 69, 0
10, 8475, Note_on_c, 12, 71, 76
10, 8489, Note_on_c, 12, 71, 0
10, 8490, Note_on_c, 12, 69, 76
10, 8504, Note_on_c, 12, 69, 0
10, 8505, Note_on_c, 12, 71, 76
10, 8519, Note_on_c, 12, 71, 0
10, 8520, Note_on_c, 12, 69, 76
10, 8534, Note_on_c, 12, 69, 0
10, 8535, Note_on_c, 12, 71, 76
10, 8549, Note_on_c, 12, 71, 0
10, 8550, Note_on_c, 12, 69, 76
10, 8564, Note_on_c, 12, 69, 0
10, 8565, Note_on_c, 12, 71, 76
10, 8579, Note_on_c, 12, 71, 0
10, 8580, Note_on_c, 12, 67, 76
10, 8609, Note_on_c, 12, 67, 0
10, 8610, Note_on_c, 12, 69, 76
10, 8639, Note_on_c, 12, 69, 0
10, 8640, Note_on_c, 12, 71, 76
10, 8991, Note_on_c, 12, 71, 0
10, 9000, Note_on_c, 12, 74, 76
10, 9111, Note_on_c, 12, 74, 0
10, 9120, Note_on_c, 12, 62, 76
10, 9471, Note_on_c, 12, 62, 0
10, 9480, Note_on_c, 12, 62, 76
10, 9591, Note_on_c, 12, 62, 0
10, 9600, Note_on_c, 12, 62, 76
10, 9771, Note_on_c, 12, 62, 0
10, 9780, Note_on_c, 12, 55, 76
10, 9831, Note_on_c, 12, 55, 0
10, 9840, Note_on_c, 12, 60, 76
10, 10011, Note_on_c, 12, 60, 0
10, 10020, Note_on_c, 12, 62, 76
10, 10071, Note_on_c, 12, 62, 0
10, 10080, Note_on_c, 12, 64, 76
10, 10251, Note_on_c, 12, 64, 0
10, 10260, Note_on_c, 12, 62, 76
10, 10311, Note_on_c, 12, 62, 0
10, 10320, Note_on_c, 12, 60, 76
10, 10491, Note_on_c, 12, 60, 0
10, 10500, Note_on_c, 12, 59, 76
10, 10551, Note_on_c, 12, 59, 0
10, 10560, Note_on_c, 12, 60, 76
10, 10791, Note_on_c, 12, 60, 0
10, 10800, Note_on_c, 12, 64, 76
10, 11031, Note_on_c, 12, 64, 0
10, 11040, Note_on_c, 12, 69, 76
10, 11391, Note_on_c, 12, 69, 0
10, 11400, Note_on_c, 12, 66, 76
10, 11511, Note_on_c, 12, 66, 0
10, 11520, Note_on_c, 12, 67, 76
10, 11691, Note_on_c, 12, 67, 0
10, 11700, Note_on_c, 12, 66, 76
10, 11751, Note_on_c, 12, 66, 0
10, 11760, Note_on_c, 12, 67, 76
10, 11931, Note_on_c, 12, 67, 0
10, 11940, Note_on_c, 12, 69, 76
10, 11991, Note_on_c, 12, 69, 0
10, 12000, Note_on_c, 12, 71, 76
10, 12171, Note_on_c, 12, 71, 0
10, 12180, Note_on_c, 12, 72, 76
10, 12231, Note_on_c, 12, 72, 0
10, 12240, Note_on_c, 12, 71, 76
10, 12411, Note_on_c, 12, 71, 0
10, 12420, Note_on_c, 12, 69, 76
10, 12471, Note_on_c, 12, 69, 0
10, 12480, Note_on_c, 12, 67, 76
10, 12651, Note_on_c, 12, 67, 0
10, 12660, Note_on_c, 12, 67, 76
10, 12711, Note_on_c, 12, 67, 0
10, 12720, Note_on_c, 12, 69, 76
10, 12891, Note_on_c, 12, 69, 0
10, 12900, Note_on_c, 12, 71, 76
10, 12951, Note_on_c, 12, 71, 0
10, 12960, Note_on_c, 12, 72, 76
10, 13131, Note_on_c, 12, 72, 0
10, 13140, Note_on_c, 12, 74, 76
10, 13191, Note_on_c, 12, 74, 0
10, 13200, Note_on_c, 12, 72, 76
10, 13371, Note_on_c, 12, 72, 0
10, 13380, Note_on_c, 12, 71, 76
10, 13431, Note_on_c, 12, 71, 0
10, 13440, Note_on_c, 12, 69, 76
10, 13611, Note_on_c, 12, 69, 0
10, 13620, Note_on_c, 12, 62, 76
10, 13671, Note_on_c, 12, 62, 0
10, 13680, Note_on_c, 12, 67, 76
10, 13851, Note_on_c, 12, 67, 0
10, 13860, Note_on_c, 12, 69, 76
10, 13911, Note_on_c, 12, 69, 0
10, 13920, Note_on_c, 12, 66, 76
10, 14264, Note_on_c, 12, 66, 0
10, 14280, Note_on_c, 12, 67, 76
10, 14391, Note_on_c, 12, 67, 0
10, 14400, Note_on_c, 12, 62, 76
10, 15351, Note_on_c, 12, 62, 0
10, 15360, Note_on_c, 12, 72, 76
10, 15651, Note_on_c, 12, 72, 0
10, 15660, Note_on_c, 12, 71, 76
10, 15711, Note_on_c, 12, 71, 0
10, 15720, Note_on_c, 12, 72, 76
10, 15771, Note_on_c, 12, 72, 0
10, 15780, Note_on_c, 12, 74, 76
10, 15831, Note_on_c, 12, 74, 0
10, 15840, Note_on_c, 12, 76, 76
10, 16011, Note_on_c, 12, 76, 0
10, 16020, Note_on_c, 12, 74, 76
10, 16071, Note_on_c, 12, 74, 0
10, 16080, Note_on_c, 12, 76, 76
10, 16251, Note_on_c, 12, 76, 0
10, 16260, Note_on_c, 12, 72, 76
10, 16311, Note_on_c, 12, 72, 0
10, 16320, Note_on_c, 12, 69, 76
10, 16671, Note_on_c, 12, 69, 0
10, 16680, Note_on_c, 12, 69, 76
10, 16791, Note_on_c, 12, 69, 0
10, 16800, Note_on_c, 12, 74, 76
10, 16971, Note_on_c, 12, 74, 0
10, 16980, Note_on_c, 12, 72, 76
10, 17031, Note_on_c, 12, 72, 0
10, 17040, Note_on_c, 12, 74, 76
10, 17211, Note_on_c, 12, 74, 0
10, 17220, Note_on_c, 12, 71, 76
10, 17271, Note_on_c, 12, 71, 0
10, 17280, Note_on_c, 12, 64, 76
10, 17511, Note_on_c, 12, 64, 0
10, 17520, Note_on_c, 12, 69, 76
10, 17931, Note_on_c, 12, 69, 0
10, 17940, Note_on_c, 12, 69, 76
10, 17991, Note_on_c, 12, 69, 0
10, 18000, Note_on_c, 12, 71, 76
10, 18171, Note_on_c, 12, 71, 0
10, 18180, Note_on_c, 12, 72, 76
10, 18231, Note_on_c, 12, 72, 0
10, 18240, Note_on_c, 12, 71, 76
10, 18411, Note_on_c, 12, 71, 0
10, 18420, Note_on_c, 12, 72, 76
10, 18471, Note_on_c, 12, 72, 0
10, 18480, Note_on_c, 12, 74, 76
10, 18651, Note_on_c, 12, 74, 0
10, 18660, Note_on_c, 12, 71, 76
10, 18711, Note_on_c, 12, 71, 0
10, 18720, Note_on_c, 12, 72, 76
10, 19071, Note_on_c, 12, 72, 0
10, 19080, Note_on_c, 12, 74, 76
10, 19191, Note_on_c, 12, 74, 0
10, 19200, Note_on_c, 12, 71, 76
10, 19851, Note_on_c, 12, 71, 0
10, 19860, Note_on_c, 12, 72, 76
10, 19911, Note_on_c, 12, 72, 0
10, 19920, Note_on_c, 12, 74, 76
10, 20091, Note_on_c, 12, 74, 0
10, 20100, Note_on_c, 12, 67, 76
10, 20151, Note_on_c, 12, 67, 0
10, 20160, Note_on_c, 12, 76, 76
10, 20811, Note_on_c, 12, 76, 0
10, 20820, Note_on_c, 12, 74, 76
10, 20871, Note_on_c, 12, 74, 0
10, 20880, Note_on_c, 12, 76, 76
10, 21051, Note_on_c, 12, 76, 0
10, 21060, Note_on_c, 12, 78, 76
10, 21111, Note_on_c, 12, 78, 0
10, 21120, Note_on_c, 12, 71, 76
10, 21771, Note_on_c, 12, 71, 0
10, 21780, Note_on_c, 12, 71, 76
10, 21831, Note_on_c, 12, 71, 0
10, 21840, Note_on_c, 12, 76, 76
10, 22011, Note_on_c, 12, 76, 0
10, 22020, Note_on_c, 12, 74, 76
10, 22071, Note_on_c, 12, 74, 0
10, 22080, Note_on_c, 12, 76, 76
10, 22731, Note_on_c, 12, 76, 0
10, 22740, Note_on_c, 12, 74, 76
10, 22791, Note_on_c, 12, 74, 0
10, 22800, Note_on_c, 12, 76, 76
10, 22971, Note_on_c, 12, 76, 0
10, 22980, Note_on_c, 12, 73, 76
10, 23031, Note_on_c, 12, 73, 0
10, 23040, Note_on_c, 12, 74, 76
10, 23391, Note_on_c, 12, 74, 0
10, 23400, Note_on_c, 12, 66, 76
10, 23511, Note_on_c, 12, 66, 0
10, 23520, Note_on_c, 12, 67, 76
10, 23691, Note_on_c, 12, 67, 0
10, 23700, Note_on_c, 12, 69, 76
10, 23719, Note_on_c, 12, 69, 0
10, 23720, Note_on_c, 12, 67, 76
10, 23739, Note_on_c, 12, 67, 0
10, 23740, Note_on_c, 12, 69, 76
10, 23759, Note_on_c, 12, 69, 0
10, 23760, Note_on_c, 12, 69, 76
10, 23774, Note_on_c, 12, 69, 0
10, 23775, Note_on_c, 12, 71, 76
10, 23789, Note_on_c, 12, 71, 0
10, 23790, Note_on_c, 12, 69, 76
10, 23804, Note_on_c, 12, 69, 0
10, 23805, Note_on_c, 12, 71, 76
10, 23819, Note_on_c, 12, 71, 0
10, 23820, Note_on_c, 12, 69, 76
10, 23834, Note_on_c, 12, 69, 0
10, 23835, Note_on_c, 12, 71, 76
10, 23849, Note_on_c, 12, 71, 0
10, 23850, Note_on_c, 12, 69, 76
10, 23864, Note_on_c, 12, 69, 0
10, 23865, Note_on_c, 12, 71, 76
10, 23879, Note_on_c, 12, 71, 0
10, 23880, Note_on_c, 12, 69, 76
10, 23894, Note_on_c, 12, 69, 0
10, 23895, Note_on_c, 12, 71, 76
10, 23909, Note_on_c, 12, 71, 0
10, 23910, Note_on_c, 12, 69, 76
10, 23924, Note_on_c, 12, 69, 0
10, 23925, Note_on_c, 12, 71, 76
10, 23939, Note_on_c, 12, 71, 0
10, 23940, Note_on_c, 12, 67, 76
10, 23969, Note_on_c, 12, 67, 0
10, 23970, Note_on_c, 12, 69, 76
10, 23999, Note_on_c, 12, 69, 0
10, 24000, Note_on_c, 12, 71, 76
10, 24351, Note_on_c, 12, 71, 0
10, 24360, Note_on_c, 12, 74, 76
10, 24471, Note_on_c, 12, 74, 0
10, 24480, Note_on_c, 12, 62, 76
10, 24831, Note_on_c, 12, 62, 0
10, 24840, Note_on_c, 12, 62, 76
10, 24951, Note_on_c, 12, 62, 0
10, 24960, Note_on_c, 12, 62, 76
10, 25131, Note_on_c, 12, 62, 0
10, 25140, Note_on_c, 12, 55, 76
10, 25191, Note_on_c, 12, 55, 0
10, 25200, Note_on_c, 12, 60, 76
10, 25371, Note_on_c, 12, 60, 0
10, 25380, Note_on_c, 12, 62, 76
10, 25431, Note_on_c, 12, 62, 0
10, 25440, Note_on_c, 12, 64, 76
10, 25611, Note_on_c, 12, 64, 0
10, 25620, Note_on_c, 12, 62, 76
10, 25671, Note_on_c, 12, 62, 0
10, 25680, Note_on_c, 12, 60, 76
10, 25851, Note_on_c, 12, 60, 0
10, 25860, Note_on_c, 12, 59, 76
10, 25911, Note_on_c, 12, 59, 0
10, 25920, Note_on_c, 12, 60, 76
10, 26151, Note_on_c, 12, 60, 0
10, 26160, Note_on_c, 12, 64, 76
10, 26391, Note_on_c, 12, 64, 0
10, 26400, Note_on_c, 12, 69, 76
10, 26751, Note_on_c, 12, 69, 0
10, 26760, Note_on_c, 12, 66, 76
10, 26871, Note_on_c, 12, 66, 0
10, 26880, Note_on_c, 12, 67, 76
10, 27051, Note_on_c, 12, 67, 0
10, 27060, Note_on_c, 12, 66, 76
10, 27111, Note_on_c, 12, 66, 0
10, 27120, Note_on_c, 12, 67, 76
10, 27291, Note_on_c, 12, 67, 0
10, 27300, Note_on_c, 12, 69, 76
10, 27351, Note_on_c, 12, 69, 0
10, 27360, Note_on_c, 12, 71, 76
10, 27531, Note_on_c, 12, 71, 0
10, 27540, Note_on_c, 12, 72, 76
10, 27591, Note_on_c, 12, 72, 0
10, 27600, Note_on_c, 12, 71, 76
10, 27771, Note_on_c, 12, 71, 0
10, 27780, Note_on_c, 12, 69, 76
10, 27831, Note_on_c, 12, 69, 0
10, 27840, Note_on_c, 12, 67, 76
10, 28011, Note_on_c, 12, 67, 0
10, 28020, Note_on_c, 12, 67, 76
10, 28071, Note_on_c, 12, 67, 0
10, 28080, Note_on_c, 12, 69, 76
10, 28251, Note_on_c, 12, 69, 0
10, 28260, Note_on_c, 12, 71, 76
10, 28311, Note_on_c, 12, 71, 0
10, 28320, Note_on_c, 12, 72, 76
10, 28491, Note_on_c, 12, 72, 0
10, 28500, Note_on_c, 12, 74, 76
10, 28551, Note_on_c, 12, 74, 0
10, 28560, Note_on_c, 12, 72, 76
10, 28731, Note_on_c, 12, 72, 0
10, 28740, Note_on_c, 12, 71, 76
10, 28791, Note_on_c, 12, 71, 0
10, 28800, Note_on_c, 12, 69, 76
10, 28971, Note_on_c, 12, 69, 0
10, 28980, Note_on_c, 12, 62, 76
10, 29031, Note_on_c, 12, 62, 0
10, 29040, Note_on_c, 12, 67, 76
10, 29211, Note_on_c, 12, 67, 0
10, 29220, Note_on_c, 12, 69, 76
10, 29271, Note_on_c, 12, 69, 0
10, 29280, Note_on_c, 12, 66, 76
10, 29631, Note_on_c, 12, 66, 0
10, 29640, Note_on_c, 12, 67, 76
10, 29751, Note_on_c, 12, 67, 0
10, 29760, Note_on_c, 12, 62, 76
10, 29999, Note_on_c, 12, 62, 0
10, 31320, Note_on_c, 12, 72, 76
10, 31424, Note_on_c, 12, 72, 0
10, 31440, Note_on_c, 12, 72, 76
10, 31544, Note_on_c, 12, 72, 0
10, 31560, Note_on_c, 12, 72, 76
10, 31664, Note_on_c, 12, 72, 0
10, 31680, Note_on_c, 12, 71, 76
10, 31784, Note_on_c, 12, 71, 0
10, 31800, Note_on_c, 12, 72, 76
10, 31844, Note_on_c, 12, 72, 0
10, 31860, Note_on_c, 12, 74, 76
10, 31904, Note_on_c, 12, 74, 0
10, 31920, Note_on_c, 12, 76, 76
10, 32024, Note_on_c, 12, 76, 0
10, 32040, Note_on_c, 12, 72, 76
10, 32144, Note_on_c, 12, 72, 0
10, 32160, Note_on_c, 12, 69, 76
10, 32264, Note_on_c, 12, 69, 0
10, 32280, Note_on_c, 12, 74, 76
10, 32384, Note_on_c, 12, 74, 0
10, 32400, Note_on_c, 12, 62, 76
10, 32504, Note_on_c, 12, 62, 0
10, 32520, Note_on_c, 12, 72, 76
10, 32624, Note_on_c, 12, 72, 0
10, 32640, Note_on_c, 12, 71, 76
10, 32684, Note_on_c, 12, 71, 0
10, 32700, Note_on_c, 12, 69, 76
10, 32744, Note_on_c, 12, 69, 0
10, 32760, Note_on_c, 12, 67, 76
10, 32804, Note_on_c, 12, 67, 0
10, 32820, Note_on_c, 12, 69, 76
10, 32864, Note_on_c, 12, 69, 0
10, 32880, Note_on_c, 12, 71, 76
10, 32924, Note_on_c, 12, 71, 0
10, 32940, Note_on_c, 12, 67, 76
10, 32984, Note_on_c, 12, 67, 0
10, 33000, Note_on_c, 12, 69, 76
10, 33044, Note_on_c, 12, 69, 0
10, 33060, Note_on_c, 12, 71, 76
10, 33104, Note_on_c, 12, 71, 0
10, 33120, Note_on_c, 12, 72, 76
10, 33284, Note_on_c, 12, 72, 0
10, 33300, Note_on_c, 12, 67, 76
10, 33344, Note_on_c, 12, 67, 0
10, 33360, Note_on_c, 12, 72, 76
10, 33524, Note_on_c, 12, 72, 0
10, 33540, Note_on_c, 12, 72, 76
10, 33584, Note_on_c, 12, 72, 0
10, 33600, Note_on_c, 12, 72, 76
10, 33644, Note_on_c, 12, 72, 0
10, 33660, Note_on_c, 12, 71, 76
10, 33704, Note_on_c, 12, 71, 0
10, 33720, Note_on_c, 12, 69, 76
10, 33764, Note_on_c, 12, 69, 0
10, 33780, Note_on_c, 12, 71, 76
10, 33824, Note_on_c, 12, 71, 0
10, 33840, Note_on_c, 12, 71, 76
10, 33869, Note_on_c, 12, 71, 0
10, 33870, Note_on_c, 12, 72, 76
10, 33899, Note_on_c, 12, 72, 0
10, 33900, Note_on_c, 12, 71, 76
10, 33929, Note_on_c, 12, 71, 0
10, 33930, Note_on_c, 12, 72, 76
10, 33959, Note_on_c, 12, 72, 0
10, 33960, Note_on_c, 12, 69, 76
10, 33989, Note_on_c, 12, 69, 0
10, 33990, Note_on_c, 12, 71, 76
10, 34019, Note_on_c, 12, 71, 0
10, 34020, Note_on_c, 12, 72, 76
10, 34064, Note_on_c, 12, 72, 0
10, 34080, Note_on_c, 12, 72, 76
10, 34184, Note_on_c, 12, 72, 0
10, 34200, Note_on_c, 12, 67, 76
10, 34244, Note_on_c, 12, 67, 0
10, 34260, Note_on_c, 12, 65, 76
10, 34304, Note_on_c, 12, 65, 0
10, 34320, Note_on_c, 12, 67, 76
10, 34424, Note_on_c, 12, 67, 0
10, 34440, Note_on_c, 12, 76, 76
10, 34544, Note_on_c, 12, 76, 0
10, 34560, Note_on_c, 12, 74, 76
10, 34604, Note_on_c, 12, 74, 0
10, 34620, Note_on_c, 12, 72, 76
10, 34664, Note_on_c, 12, 72, 0
10, 34680, Note_on_c, 12, 71, 76
10, 34724, Note_on_c, 12, 71, 0
10, 34740, Note_on_c, 12, 69, 76
10, 34784, Note_on_c, 12, 69, 0
10, 34800, Note_on_c, 12, 67, 76
10, 34904, Note_on_c, 12, 67, 0
10, 34920, Note_on_c, 12, 76, 76
10, 34964, Note_on_c, 12, 76, 0
10, 34980, Note_on_c, 12, 74, 76
10, 35024, Note_on_c, 12, 74, 0
10, 35040, Note_on_c, 12, 76, 76
10, 35144, Note_on_c, 12, 76, 0
10, 35160, Note_on_c, 12, 69, 76
10, 35264, Note_on_c, 12, 69, 0
10, 35280, Note_on_c, 12, 74, 76
10, 35324, Note_on_c, 12, 74, 0
10, 35340, Note_on_c, 12, 72, 76
10, 35384, Note_on_c, 12, 72, 0
10, 35400, Note_on_c, 12, 71, 76
10, 35444, Note_on_c, 12, 71, 0
10, 35460, Note_on_c, 12, 72, 76
10, 35504, Note_on_c, 12, 72, 0
10, 35520, Note_on_c, 12, 74, 76
10, 35804, Note_on_c, 12, 74, 0
10, 35820, Note_on_c, 12, 71, 76
10, 35864, Note_on_c, 12, 71, 0
10, 35880, Note_on_c, 12, 72, 76
10, 35924, Note_on_c, 12, 72, 0
10, 35940, Note_on_c, 12, 74, 76
10, 35984, Note_on_c, 12, 74, 0
10, 36000, Note_on_c, 12, 67, 76
10, 36164, Note_on_c, 12, 67, 0
10, 36180, Note_on_c, 12, 74, 76
10, 36224, Note_on_c, 12, 74, 0
10, 36240, Note_on_c, 12, 72, 76
10, 36284, Note_on_c, 12, 72, 0
10, 36300, Note_on_c, 12, 71, 76
10, 36344, Note_on_c, 12, 71, 0
10, 36360, Note_on_c, 12, 69, 76
10, 36404, Note_on_c, 12, 69, 0
10, 36420, Note_on_c, 12, 67, 76
10, 36464, Note_on_c, 12, 67, 0
10, 36480, Note_on_c, 12, 65, 76
10, 36644, Note_on_c, 12, 65, 0
10, 36660, Note_on_c, 12, 72, 76
10, 36704, Note_on_c, 12, 72, 0
10, 36720, Note_on_c, 12, 71, 76
10, 36764, Note_on_c, 12, 71, 0
10, 36780, Note_on_c, 12, 69, 76
10, 36824, Note_on_c, 12, 69, 0
10, 36840, Note_on_c, 12, 67, 76
10, 36884, Note_on_c, 12, 67, 0
10, 36900, Note_on_c, 12, 65, 76
10, 36944, Note_on_c, 12, 65, 0
10, 36960, Note_on_c, 12, 64, 76
10, 37124, Note_on_c, 12, 64, 0
10, 37140, Note_on_c, 12, 71, 76
10, 37184, Note_on_c, 12, 71, 0
10, 37200, Note_on_c, 12, 69, 76
10, 37244, Note_on_c, 12, 69, 0
10, 37260, Note_on_c, 12, 67, 76
10, 37304, Note_on_c, 12, 67, 0
10, 37320, Note_on_c, 12, 65, 76
10, 37364, Note_on_c, 12, 65, 0
10, 37380, Note_on_c, 12, 64, 76
10, 37424, Note_on_c, 12, 64, 0
10, 37440, Note_on_c, 12, 62, 76
10, 37604, Note_on_c, 12, 62, 0
10, 37620, Note_on_c, 12, 69, 76
10, 37664, Note_on_c, 12, 69, 0
10, 37680, Note_on_c, 12, 67, 76
10, 37724, Note_on_c, 12, 67, 0
10, 37740, Note_on_c, 12, 65, 76
10, 37784, Note_on_c, 12, 65, 0
10, 37800, Note_on_c, 12, 64, 76
10, 37844, Note_on_c, 12, 64, 0
10, 37860, Note_on_c, 12, 62, 76
10, 37904, Note_on_c, 12, 62, 0
10, 37920, Note_on_c, 12, 60, 76
10, 38084, Note_on_c, 12, 60, 0
10, 38100, Note_on_c, 12, 67, 76
10, 38144, Note_on_c, 12, 67, 0
10, 38160, Note_on_c, 12, 65, 76
10, 38204, Note_on_c, 12, 65, 0
10, 38220, Note_on_c, 12, 64, 76
10, 38264, Note_on_c, 12, 64, 0
10, 38280, Note_on_c, 12, 62, 76
10, 38324, Note_on_c, 12, 62, 0
10, 38340, Note_on_c, 12, 60, 76
10, 38384, Note_on_c, 12, 60, 0
10, 38400, Note_on_c, 12, 67, 76
10, 38504, Note_on_c, 12, 67, 0
10, 38520, Note_on_c, 12, 71, 76
10, 38624, Note_on_c, 12, 71, 0
10, 38640, Note_on_c, 12, 67, 76
10, 38684, Note_on_c, 12, 67, 0
10, 38700, Note_on_c, 12, 69, 76
10, 38744, Note_on_c, 12, 69, 0
10, 38760, Note_on_c, 12, 71, 76
10, 38804, Note_on_c, 12, 71, 0
10, 38820, Note_on_c, 12, 67, 76
10, 38864, Note_on_c, 12, 67, 0
10, 38880, Note_on_c, 12, 72, 76
10, 38924, Note_on_c, 12, 72, 0
10, 38940, Note_on_c, 12, 74, 76
10, 38984, Note_on_c, 12, 74, 0
10, 39000, Note_on_c, 12, 72, 76
10, 39044, Note_on_c, 12, 72, 0
10, 39060, Note_on_c, 12, 70, 76
10, 39104, Note_on_c, 12, 70, 0
10, 39120, Note_on_c, 12, 69, 76
10, 39224, Note_on_c, 12, 69, 0
10, 39240, Note_on_c, 12, 69, 76
10, 39344, Note_on_c, 12, 69, 0
10, 39360, Note_on_c, 12, 74, 76
10, 39404, Note_on_c, 12, 74, 0
10, 39420, Note_on_c, 12, 72, 76
10, 39464, Note_on_c, 12, 72, 0
10, 39480, Note_on_c, 12, 71, 76
10, 39524, Note_on_c, 12, 71, 0
10, 39540, Note_on_c, 12, 72, 76
10, 39584, Note_on_c, 12, 72, 0
10, 39600, Note_on_c, 12, 74, 76
10, 39644, Note_on_c, 12, 74, 0
10, 39660, Note_on_c, 12, 72, 76
10, 39704, Note_on_c, 12, 72, 0
10, 39720, Note_on_c, 12, 74, 76
10, 39764, Note_on_c, 12, 74, 0
10, 39780, Note_on_c, 12, 71, 76
10, 39824, Note_on_c, 12, 71, 0
10, 39840, Note_on_c, 12, 72, 76
10, 40004, Note_on_c, 12, 72, 0
10, 40020, Note_on_c, 12, 74, 76
10, 40064, Note_on_c, 12, 74, 0
10, 40080, Note_on_c, 12, 71, 76
10, 40244, Note_on_c, 12, 71, 0
10, 40260, Note_on_c, 12, 67, 76
10, 40304, Note_on_c, 12, 67, 0
10, 40320, Note_on_c, 12, 67, 76
10, 40439, Note_on_c, 12, 67, 0
10, 45720, Note_on_c, 12, 69, 76
10, 45824, Note_on_c, 12, 69, 0
10, 45840, Note_on_c, 12, 69, 76
10, 45944, Note_on_c, 12, 69, 0
10, 45960, Note_on_c, 12, 69, 76
10, 46064, Note_on_c, 12, 69, 0
10, 46080, Note_on_c, 12, 67, 76
10, 46184, Note_on_c, 12, 67, 0
10, 46200, Note_on_c, 12, 69, 76
10, 46244, Note_on_c, 12, 69, 0
10, 46260, Note_on_c, 12, 71, 76
10, 46304, Note_on_c, 12, 71, 0
10, 46320, Note_on_c, 12, 72, 76
10, 46424, Note_on_c, 12, 72, 0
10, 46440, Note_on_c, 12, 69, 76
10, 46544, Note_on_c, 12, 69, 0
10, 46560, Note_on_c, 12, 66, 76
10, 46664, Note_on_c, 12, 66, 0
10, 46680, Note_on_c, 12, 71, 76
10, 46784, Note_on_c, 12, 71, 0
10, 46800, Note_on_c, 12, 59, 76
10, 46904, Note_on_c, 12, 59, 0
10, 46920, Note_on_c, 12, 69, 76
10, 47024, Note_on_c, 12, 69, 0
10, 47040, Note_on_c, 12, 68, 76
10, 47144, Note_on_c, 12, 68, 0
10, 47160, Note_on_c, 12, 69, 76
10, 47204, Note_on_c, 12, 69, 0
10, 47220, Note_on_c, 12, 71, 76
10, 47264, Note_on_c, 12, 71, 0
10, 47280, Note_on_c, 12, 72, 76
10, 47384, Note_on_c, 12, 72, 0
10, 47400, Note_on_c, 12, 76, 76
10, 47504, Note_on_c, 12, 76, 0
10, 47520, Note_on_c, 12, 72, 76
10, 47624, Note_on_c, 12, 72, 0
10, 47640, Note_on_c, 12, 77, 76
10, 47744, Note_on_c, 12, 77, 0
10, 47760, Note_on_c, 12, 71, 76
10, 47864, Note_on_c, 12, 71, 0
10, 47880, Note_on_c, 12, 74, 76
10, 47984, Note_on_c, 12, 74, 0
10, 48000, Note_on_c, 12, 72, 76
10, 48044, Note_on_c, 12, 72, 0
10, 48060, Note_on_c, 12, 74, 76
10, 48104, Note_on_c, 12, 74, 0
10, 48120, Note_on_c, 12, 76, 76
10, 48164, Note_on_c, 12, 76, 0
10, 48180, Note_on_c, 12, 74, 76
10, 48224, Note_on_c, 12, 74, 0
10, 48240, Note_on_c, 12, 72, 76
10, 48284, Note_on_c, 12, 72, 0
10, 48300, Note_on_c, 12, 71, 76
10, 48344, Note_on_c, 12, 71, 0
10, 48360, Note_on_c, 12, 72, 76
10, 48404, Note_on_c, 12, 72, 0
10, 48420, Note_on_c, 12, 69, 76
10, 48464, Note_on_c, 12, 69, 0
10, 48480, Note_on_c, 12, 64, 76
10, 48524, Note_on_c, 12, 64, 0
10, 48540, Note_on_c, 12, 72, 76
10, 48584, Note_on_c, 12, 72, 0
10, 48600, Note_on_c, 12, 71, 76
10, 48644, Note_on_c, 12, 71, 0
10, 48660, Note_on_c, 12, 69, 76
10, 48704, Note_on_c, 12, 69, 0
10, 48720, Note_on_c, 12, 67, 76
10, 48764, Note_on_c, 12, 67, 0
10, 48780, Note_on_c, 12, 66, 76
10, 48824, Note_on_c, 12, 66, 0
10, 48840, Note_on_c, 12, 67, 76
10, 48884, Note_on_c, 12, 67, 0
10, 48900, Note_on_c, 12, 64, 76
10, 48944, Note_on_c, 12, 64, 0
10, 48960, Note_on_c, 12, 69, 76
10, 49064, Note_on_c, 12, 69, 0
10, 49080, Note_on_c, 12, 69, 76
10, 49184, Note_on_c, 12, 69, 0
10, 49200, Note_on_c, 12, 69, 76
10, 49304, Note_on_c, 12, 69, 0
10, 49320, Note_on_c, 12, 69, 76
10, 49424, Note_on_c, 12, 69, 0
10, 49440, Note_on_c, 12, 67, 76
10, 49544, Note_on_c, 12, 67, 0
10, 49560, Note_on_c, 12, 69, 76
10, 49604, Note_on_c, 12, 69, 0
10, 49620, Note_on_c, 12, 71, 76
10, 49664, Note_on_c, 12, 71, 0
10, 49680, Note_on_c, 12, 72, 76
10, 49784, Note_on_c, 12, 72, 0
10, 49800, Note_on_c, 12, 69, 76
10, 49904, Note_on_c, 12, 69, 0
10, 49920, Note_on_c, 12, 66, 76
10, 50024, Note_on_c, 12, 66, 0
10, 50040, Note_on_c, 12, 71, 76
10, 50144, Note_on_c, 12, 71, 0
10, 50160, Note_on_c, 12, 59, 76
10, 50264, Note_on_c, 12, 59, 0
10, 50280, Note_on_c, 12, 69, 76
10, 50384, Note_on_c, 12, 69, 0
10, 50400, Note_on_c, 12, 68, 76
10, 50504, Note_on_c, 12, 68, 0
10, 50520, Note_on_c, 12, 64, 76
10, 50624, Note_on_c, 12, 64, 0
10, 50640, Note_on_c, 12, 69, 76
10, 51044, Note_on_c, 12, 69, 0
10, 51060, Note_on_c, 12, 71, 76
10, 51104, Note_on_c, 12, 71, 0
10, 51120, Note_on_c, 12, 68, 76
10, 51284, Note_on_c, 12, 68, 0
10, 51300, Note_on_c, 12, 69, 76
10, 51344, Note_on_c, 12, 69, 0
10, 51360, Note_on_c, 12, 69, 76
10, 51644, Note_on_c, 12, 69, 0
10, 51660, Note_on_c, 12, 69, 76
10, 51704, Note_on_c, 12, 69, 0
10, 51720, Note_on_c, 12, 71, 76
10, 51764, Note_on_c, 12, 71, 0
10, 51780, Note_on_c, 12, 72, 76
10, 51824, Note_on_c, 12, 72, 0
10, 51840, Note_on_c, 12, 74, 76
10, 51884, Note_on_c, 12, 74, 0
10, 51900, Note_on_c, 12, 76, 76
10, 51944, Note_on_c, 12, 76, 0
10, 51960, Note_on_c, 12, 74, 76
10, 52004, Note_on_c, 12, 74, 0
10, 52020, Note_on_c, 12, 72, 76
10, 52064, Note_on_c, 12, 72, 0
10, 52080, Note_on_c, 12, 71, 76
10, 52124, Note_on_c, 12, 71, 0
10, 52140, Note_on_c, 12, 69, 76
10, 52184, Note_on_c, 12, 69, 0
10, 52200, Note_on_c, 12, 68, 76
10, 52244, Note_on_c, 12, 68, 0
10, 52260, Note_on_c, 12, 71, 76
10, 52304, Note_on_c, 12, 71, 0
10, 52320, Note_on_c, 12, 69, 76
10, 52364, Note_on_c, 12, 69, 0
10, 52380, Note_on_c, 12, 71, 76
10, 52424, Note_on_c, 12, 71, 0
10, 52440, Note_on_c, 12, 72, 76
10, 52484, Note_on_c, 12, 72, 0
10, 52500, Note_on_c, 12, 74, 76
10, 52544, Note_on_c, 12, 74, 0
10, 52560, Note_on_c, 12, 76, 76
10, 52604, Note_on_c, 12, 76, 0
10, 52620, Note_on_c, 12, 78, 76
10, 52664, Note_on_c, 12, 78, 0
10, 52680, Note_on_c, 12, 80, 76
10, 52724, Note_on_c, 12, 80, 0
10, 52740, Note_on_c, 12, 76, 76
10, 52784, Note_on_c, 12, 76, 0
10, 52800, Note_on_c, 12, 81, 76
10, 52904, Note_on_c, 12, 81, 0
10, 52920, Note_on_c, 12, 69, 76
10, 53024, Note_on_c, 12, 69, 0
10, 53040, Note_on_c, 12, 74, 76
10, 53384, Note_on_c, 12, 74, 0
10, 53400, Note_on_c, 12, 72, 76
10, 53444, Note_on_c, 12, 72, 0
10, 53460, Note_on_c, 12, 71, 76
10, 53504, Note_on_c, 12, 71, 0
10, 53520, Note_on_c, 12, 76, 76
10, 53624, Note_on_c, 12, 76, 0
10, 53640, Note_on_c, 12, 68, 76
10, 53744, Note_on_c, 12, 68, 0
10, 53760, Note_on_c, 12, 69, 76
10, 53924, Note_on_c, 12, 69, 0
10, 53940, Note_on_c, 12, 71, 76
10, 53984, Note_on_c, 12, 71, 0
10, 54000, Note_on_c, 12, 68, 76
10, 54164, Note_on_c, 12, 68, 0
10, 54180, Note_on_c, 12, 69, 76
10, 54224, Note_on_c, 12, 69, 0
10, 54240, Note_on_c, 12, 69, 76
10, 54344, Note_on_c, 12, 69, 0
10, 54360, Note_on_c, 12, 69, 76
10, 54464, Note_on_c, 12, 69, 0
10, 54480, Note_on_c, 12, 69, 76
10, 54584, Note_on_c, 12, 69, 0
10, 54600, Note_on_c, 12, 69, 76
10, 54704, Note_on_c, 12, 69, 0
10, 54720, Note_on_c, 12, 67, 76
10, 54824, Note_on_c, 12, 67, 0
10, 54840, Note_on_c, 12, 69, 76
10, 54884, Note_on_c, 12, 69, 0
10, 54900, Note_on_c, 12, 71, 76
10, 54944, Note_on_c, 12, 71, 0
10, 54960, Note_on_c, 12, 72, 76
10, 55064, Note_on_c, 12, 72, 0
10, 55080, Note_on_c, 12, 69, 76
10, 55184, Note_on_c, 12, 69, 0
10, 55200, Note_on_c, 12, 66, 76
10, 55304, Note_on_c, 12, 66, 0
10, 55320, Note_on_c, 12, 71, 76
10, 55424, Note_on_c, 12, 71, 0
10, 55440, Note_on_c, 12, 59, 76
10, 55544, Note_on_c, 12, 59, 0
10, 55560, Note_on_c, 12, 71, 76
10, 55664, Note_on_c, 12, 71, 0
10, 55680, Note_on_c, 12, 64, 76
10, 55784, Note_on_c, 12, 64, 0
10, 55800, Note_on_c, 12, 71, 76
10, 55904, Note_on_c, 12, 71, 0
10, 55920, Note_on_c, 12, 71, 76
10, 56024, Note_on_c, 12, 71, 0
10, 56040, Note_on_c, 12, 71, 76
10, 56144, Note_on_c, 12, 71, 0
10, 56160, Note_on_c, 12, 69, 76
10, 56264, Note_on_c, 12, 69, 0
10, 56280, Note_on_c, 12, 69, 76
10, 56384, Note_on_c, 12, 69, 0
10, 56400, Note_on_c, 12, 69, 76
10, 56504, Note_on_c, 12, 69, 0
10, 56520, Note_on_c, 12, 69, 76
10, 56624, Note_on_c, 12, 69, 0
10, 56640, Note_on_c, 12, 65, 76
10, 56744, Note_on_c, 12, 65, 0
10, 56760, Note_on_c, 12, 67, 76
10, 56804, Note_on_c, 12, 67, 0
10, 56820, Note_on_c, 12, 69, 76
10, 56864, Note_on_c, 12, 69, 0
10, 56880, Note_on_c, 12, 70, 76
10, 56984, Note_on_c, 12, 70, 0
10, 57000, Note_on_c, 12, 67, 76
10, 57104, Note_on_c, 12, 67, 0
10, 57120, Note_on_c, 12, 64, 76
10, 57224, Note_on_c, 12, 64, 0
10, 57240, Note_on_c, 12, 69, 76
10, 57344, Note_on_c, 12, 69, 0
10, 57360, Note_on_c, 12, 57, 76
10, 57464, Note_on_c, 12, 57, 0
10, 57480, Note_on_c, 12, 69, 76
10, 57584, Note_on_c, 12, 69, 0
10, 57600, Note_on_c, 12, 62, 76
10, 57704, Note_on_c, 12, 62, 0
10, 57720, Note_on_c, 12, 69, 76
10, 57824, Note_on_c, 12, 69, 0
10, 57840, Note_on_c, 12, 69, 76
10, 57944, Note_on_c, 12, 69, 0
10, 57960, Note_on_c, 12, 69, 76
10, 58064, Note_on_c, 12, 69, 0
10, 58080, Note_on_c, 12, 67, 76
10, 58184, Note_on_c, 12, 67, 0
10, 58200, Note_on_c, 12, 67, 76
10, 58304, Note_on_c, 12, 67, 0
10, 58320, Note_on_c, 12, 67, 76
10, 58424, Note_on_c, 12, 67, 0
10, 58440, Note_on_c, 12, 67, 76
10, 58544, Note_on_c, 12, 67, 0
10, 58560, Note_on_c, 12, 64, 76
10, 58664, Note_on_c, 12, 64, 0
10, 58680, Note_on_c, 12, 65, 76
10, 58724, Note_on_c, 12, 65, 0
10, 58740, Note_on_c, 12, 67, 76
10, 58784, Note_on_c, 12, 67, 0
10, 58800, Note_on_c, 12, 69, 76
10, 58904, Note_on_c, 12, 69, 0
10, 58920, Note_on_c, 12, 65, 76
10, 59024, Note_on_c, 12, 65, 0
10, 59040, Note_on_c, 12, 62, 76
10, 59144, Note_on_c, 12, 62, 0
10, 59160, Note_on_c, 12, 67, 76
10, 59264, Note_on_c, 12, 67, 0
10, 59280, Note_on_c, 12, 55, 76
10, 59384, Note_on_c, 12, 55, 0
10, 59400, Note_on_c, 12, 67, 76
10, 59504, Note_on_c, 12, 67, 0
10, 59520, Note_on_c, 12, 60, 76
10, 59624, Note_on_c, 12, 60, 0
10, 59640, Note_on_c, 12, 72, 76
10, 59744, Note_on_c, 12, 72, 0
10, 59760, Note_on_c, 12, 72, 76
10, 59864, Note_on_c, 12, 72, 0
10, 59880, Note_on_c, 12, 72, 76
10, 59984, Note_on_c, 12, 72, 0
10, 60000, Note_on_c, 12, 71, 76
10, 60104, Note_on_c, 12, 71, 0
10, 60120, Note_on_c, 12, 72, 76
10, 60164, Note_on_c, 12, 72, 0
10, 60180, Note_on_c, 12, 74, 76
10, 60224, Note_on_c, 12, 74, 0
10, 60240, Note_on_c, 12, 76, 76
10, 60344, Note_on_c, 12, 76, 0
10, 60360, Note_on_c, 12, 72, 76
10, 60464, Note_on_c, 12, 72, 0
10, 60480, Note_on_c, 12, 69, 76
10, 60584, Note_on_c, 12, 69, 0
10, 60600, Note_on_c, 12, 74, 76
10, 60704, Note_on_c, 12, 74, 0
10, 60720, Note_on_c, 12, 62, 76
10, 60824, Note_on_c, 12, 62, 0
10, 60840, Note_on_c, 12, 74, 76
10, 61004, Note_on_c, 12, 74, 0
10, 61020, Note_on_c, 12, 62, 76
10, 61064, Note_on_c, 12, 62, 0
10, 61080, Note_on_c, 12, 64, 76
10, 61124, Note_on_c, 12, 64, 0
10, 61140, Note_on_c, 12, 66, 76
10, 61184, Note_on_c, 12, 66, 0
10, 61200, Note_on_c, 12, 67, 76
10, 61244, Note_on_c, 12, 67, 0
10, 61260, Note_on_c, 12, 71, 76
10, 61304, Note_on_c, 12, 71, 0
10, 61320, Note_on_c, 12, 69, 76
10, 61364, Note_on_c, 12, 69, 0
10, 61380, Note_on_c, 12, 71, 76
10, 61424, Note_on_c, 12, 71, 0
10, 61440, Note_on_c, 12, 72, 76
10, 61484, Note_on_c, 12, 72, 0
10, 61500, Note_on_c, 12, 71, 76
10, 61544, Note_on_c, 12, 71, 0
10, 61560, Note_on_c, 12, 69, 76
10, 61604, Note_on_c, 12, 69, 0
10, 61620, Note_on_c, 12, 67, 76
10, 61664, Note_on_c, 12, 67, 0
10, 61680, Note_on_c, 12, 66, 76
10, 61784, Note_on_c, 12, 66, 0
10, 61800, Note_on_c, 12, 67, 76
10, 61844, Note_on_c, 12, 67, 0
10, 61860, Note_on_c, 12, 69, 76
10, 61904, Note_on_c, 12, 69, 0
10, 61920, Note_on_c, 12, 71, 76
10, 61964, Note_on_c, 12, 71, 0
10, 61980, Note_on_c, 12, 67, 76
10, 62024, Note_on_c, 12, 67, 0
10, 62040, Note_on_c, 12, 66, 76
10, 62084, Note_on_c, 12, 66, 0
10, 62100, Note_on_c, 12, 67, 76
10, 62144, Note_on_c, 12, 67, 0
10, 62160, Note_on_c, 12, 69, 76
10, 62204, Note_on_c, 12, 69, 0
10, 62220, Note_on_c, 12, 67, 76
10, 62264, Note_on_c, 12, 67, 0
10, 62280, Note_on_c, 12, 66, 76
10, 62324, Note_on_c, 12, 66, 0
10, 62340, Note_on_c, 12, 64, 76
10, 62384, Note_on_c, 12, 64, 0
10, 62400, Note_on_c, 12, 62, 76
10, 62639, Note_on_c, 12, 62, 0
10, 62700, Note_on_c, 12, 71, 76
10, 62744, Note_on_c, 12, 71, 0
10, 62760, Note_on_c, 12, 69, 76
10, 62804, Note_on_c, 12, 69, 0
10, 62820, Note_on_c, 12, 67, 76
10, 62864, Note_on_c, 12, 67, 0
10, 62880, Note_on_c, 12, 72, 76
10, 63044, Note_on_c, 12, 72, 0
10, 63060, Note_on_c, 12, 72, 76
10, 63104, Note_on_c, 12, 72, 0
10, 63120, Note_on_c, 12, 72, 76
10, 63164, Note_on_c, 12, 72, 0
10, 63180, Note_on_c, 12, 76, 76
10, 63224, Note_on_c, 12, 76, 0
10, 63240, Note_on_c, 12, 74, 76
10, 63284, Note_on_c, 12, 74, 0
10, 63300, Note_on_c, 12, 72, 76
10, 63344, Note_on_c, 12, 72, 0
10, 63360, Note_on_c, 12, 71, 76
10, 63644, Note_on_c, 12, 71, 0
10, 63660, Note_on_c, 12, 74, 76
10, 63704, Note_on_c, 12, 74, 0
10, 63720, Note_on_c, 12, 72, 76
10, 63764, Note_on_c, 12, 72, 0
10, 63780, Note_on_c, 12, 71, 76
10, 63824, Note_on_c, 12, 71, 0
10, 63840, Note_on_c, 12, 69, 76
10, 64004, Note_on_c, 12, 69, 0
10, 64020, Note_on_c, 12, 69, 76
10, 64064, Note_on_c, 12, 69, 0
10, 64080, Note_on_c, 12, 69, 76
10, 64124, Note_on_c, 12, 69, 0
10, 64140, Note_on_c, 12, 72, 76
10, 64184, Note_on_c, 12, 72, 0
10, 64200, Note_on_c, 12, 71, 76
10, 64244, Note_on_c, 12, 71, 0
10, 64260, Note_on_c, 12, 69, 76
10, 64304, Note_on_c, 12, 69, 0
10, 64320, Note_on_c, 12, 67, 76
10, 64604, Note_on_c, 12, 67, 0
10, 64620, Note_on_c, 12, 71, 76
10, 64664, Note_on_c, 12, 71, 0
10, 64680, Note_on_c, 12, 69, 76
10, 64724, Note_on_c, 12, 69, 0
10, 64740, Note_on_c, 12, 67, 76
10, 64784, Note_on_c, 12, 67, 0
10, 64800, Note_on_c, 12, 66, 76
10, 64904, Note_on_c, 12, 66, 0
10, 64920, Note_on_c, 12, 69, 76
10, 65024, Note_on_c, 12, 69, 0
10, 65040, Note_on_c, 12, 66, 76
10, 65144, Note_on_c, 12, 66, 0
10, 65160, Note_on_c, 12, 62, 76
10, 65264, Note_on_c, 12, 62, 0
10, 65280, Note_on_c, 12, 67, 76
10, 65519, Note_on_c, 12, 67, 0
10, 65580, Note_on_c, 12, 67, 76
10, 65624, Note_on_c, 12, 67, 0
10, 65640, Note_on_c, 12, 69, 76
10, 65684, Note_on_c, 12, 69, 0
10, 65700, Note_on_c, 12, 71, 76
10, 65744, Note_on_c, 12, 71, 0
10, 65760, Note_on_c, 12, 72, 76
10, 65804, Note_on_c, 12, 72, 0
10, 65820, Note_on_c, 12, 69, 76
10, 65864, Note_on_c, 12, 69, 0
10, 65880, Note_on_c, 12, 71, 76
10, 65924, Note_on_c, 12, 71, 0
10, 65940, Note_on_c, 12, 72, 76
10, 65984, Note_on_c, 12, 72, 0
10, 66000, Note_on_c, 12, 74, 76
10, 66164, Note_on_c, 12, 74, 0
10, 66180, Note_on_c, 12, 74, 76
10, 66224, Note_on_c, 12, 74, 0
10, 66240, Note_on_c, 12, 74, 76
10, 66284, Note_on_c, 12, 74, 0
10, 66300, Note_on_c, 12, 72, 76
10, 66344, Note_on_c, 12, 72, 0
10, 66360, Note_on_c, 12, 71, 76
10, 66404, Note_on_c, 12, 71, 0
10, 66420, Note_on_c, 12, 72, 76
10, 66464, Note_on_c, 12, 72, 0
10, 66480, Note_on_c, 12, 69, 76
10, 66644, Note_on_c, 12, 69, 0
10, 66660, Note_on_c, 12, 71, 76
10, 66704, Note_on_c, 12, 71, 0
10, 66720, Note_on_c, 12, 71, 76
10, 66959, Note_on_c, 12, 71, 0
10, 71160, Note_on_c, 12, 71, 76
10, 71264, Note_on_c, 12, 71, 0
10, 71280, Note_on_c, 12, 71, 76
10, 71384, Note_on_c, 12, 71, 0
10, 71400, Note_on_c, 12, 71, 76
10, 71504, Note_on_c, 12, 71, 0
10, 71520, Note_on_c, 12, 67, 76
10, 71624, Note_on_c, 12, 67, 0
10, 71640, Note_on_c, 12, 69, 76
10, 71684, Note_on_c, 12, 69, 0
10, 71700, Note_on_c, 12, 71, 76
10, 71744, Note_on_c, 12, 71, 0
10, 71760, Note_on_c, 12, 72, 76
10, 71864, Note_on_c, 12, 72, 0
10, 71880, Note_on_c, 12, 69, 76
10, 71984, Note_on_c, 12, 69, 0
10, 72000, Note_on_c, 12, 66, 76
10, 72104, Note_on_c, 12, 66, 0
10, 72120, Note_on_c, 12, 71, 76
10, 72224, Note_on_c, 12, 71, 0
10, 72240, Note_on_c, 12, 59, 76
10, 72344, Note_on_c, 12, 59, 0
10, 72360, Note_on_c, 12, 69, 76
10, 72464, Note_on_c, 12, 69, 0
10, 72480, Note_on_c, 12, 67, 76
10, 72719, Note_on_c, 12, 67, 0
10, 75420, Note_on_c, 12, 72, 76
10, 75464, Note_on_c, 12, 72, 0
10, 75480, Note_on_c, 12, 71, 76
10, 75524, Note_on_c, 12, 71, 0
10, 75540, Note_on_c, 12, 69, 76
10, 75584, Note_on_c, 12, 69, 0
10, 75600, Note_on_c, 12, 67, 76
10, 75644, Note_on_c, 12, 67, 0
10, 75660, Note_on_c, 12, 66, 76
10, 75704, Note_on_c, 12, 66, 0
10, 75720, Note_on_c, 12, 67, 76
10, 75764, Note_on_c, 12, 67, 0
10, 75780, Note_on_c, 12, 64, 76
10, 75824, Note_on_c, 12, 64, 0
10, 75840, Note_on_c, 12, 72, 76
10, 75884, Note_on_c, 12, 72, 0
10, 75900, Note_on_c, 12, 71, 76
10, 75944, Note_on_c, 12, 71, 0
10, 75960, Note_on_c, 12, 69, 76
10, 76004, Note_on_c, 12, 69, 0
10, 76020, Note_on_c, 12, 67, 76
10, 76064, Note_on_c, 12, 67, 0
10, 76080, Note_on_c, 12, 66, 76
10, 76184, Note_on_c, 12, 66, 0
10, 76200, Note_on_c, 12, 71, 76
10, 76304, Note_on_c, 12, 71, 0
10, 76320, Note_on_c, 12, 64, 76
10, 76559, Note_on_c, 12, 64, 0
10, 77400, Note_on_c, 12, 76, 76
10, 77504, Note_on_c, 12, 76, 0
10, 77520, Note_on_c, 12, 76, 76
10, 77624, Note_on_c, 12, 76, 0
10, 77640, Note_on_c, 12, 76, 76
10, 77744, Note_on_c, 12, 76, 0
10, 77760, Note_on_c, 12, 72, 76
10, 77864, Note_on_c, 12, 72, 0
10, 77880, Note_on_c, 12, 74, 76
10, 77924, Note_on_c, 12, 74, 0
10, 77940, Note_on_c, 12, 76, 76
10, 77984, Note_on_c, 12, 76, 0
10, 78000, Note_on_c, 12, 77, 76
10, 78104, Note_on_c, 12, 77, 0
10, 78120, Note_on_c, 12, 74, 76
10, 78224, Note_on_c, 12, 74, 0
10, 78240, Note_on_c, 12, 71, 76
10, 78344, Note_on_c, 12, 71, 0
10, 78360, Note_on_c, 12, 74, 76
10, 78464, Note_on_c, 12, 74, 0
10, 78480, Note_on_c, 12, 64, 76
10, 78584, Note_on_c, 12, 64, 0
10, 78600, Note_on_c, 12, 74, 76
10, 78704, Note_on_c, 12, 74, 0
10, 78720, Note_on_c, 12, 72, 76
10, 78824, Note_on_c, 12, 72, 0
10, 78840, Note_on_c, 12, 76, 76
10, 78944, Note_on_c, 12, 76, 0
10, 78960, Note_on_c, 12, 76, 76
10, 79064, Note_on_c, 12, 76, 0
10, 79080, Note_on_c, 12, 76, 76
10, 79184, Note_on_c, 12, 76, 0
10, 79200, Note_on_c, 12, 74, 76
10, 79304, Note_on_c, 12, 74, 0
10, 79320, Note_on_c, 12, 74, 76
10, 79424, Note_on_c, 12, 74, 0
10, 79440, Note_on_c, 12, 74, 76
10, 79544, Note_on_c, 12, 74, 0
10, 79560, Note_on_c, 12, 74, 76
10, 79664, Note_on_c, 12, 74, 0
10, 79680, Note_on_c, 12, 70, 76
10, 79784, Note_on_c, 12, 70, 0
10, 79800, Note_on_c, 12, 72, 76
10, 79844, Note_on_c, 12, 72, 0
10, 79860, Note_on_c, 12, 74, 76
10, 79904, Note_on_c, 12, 74, 0
10, 79920, Note_on_c, 12, 75, 76
10, 80024, Note_on_c, 12, 75, 0
10, 80040, Note_on_c, 12, 72, 76
10, 80144, Note_on_c, 12, 72, 0
10, 80160, Note_on_c, 12, 69, 76
10, 80264, Note_on_c, 12, 69, 0
10, 80280, Note_on_c, 12, 72, 76
10, 80384, Note_on_c, 12, 72, 0
10, 80400, Note_on_c, 12, 62, 76
10, 80504, Note_on_c, 12, 62, 0
10, 80520, Note_on_c, 12, 72, 76
10, 80624, Note_on_c, 12, 72, 0
10, 80640, Note_on_c, 12, 70, 76
10, 80744, Note_on_c, 12, 70, 0
10, 80760, Note_on_c, 12, 74, 76
10, 80864, Note_on_c, 12, 74, 0
10, 80880, Note_on_c, 12, 74, 76
10, 80984, Note_on_c, 12, 74, 0
10, 81000, Note_on_c, 12, 74, 76
10, 81104, Note_on_c, 12, 74, 0
10, 81120, Note_on_c, 12, 72, 76
10, 81224, Note_on_c, 12, 72, 0
10, 81240, Note_on_c, 12, 72, 76
10, 81344, Note_on_c, 12, 72, 0
10, 81360, Note_on_c, 12, 72, 76
10, 81464, Note_on_c, 12, 72, 0
10, 81480, Note_on_c, 12, 72, 76
10, 81584, Note_on_c, 12, 72, 0
10, 81600, Note_on_c, 12, 69, 76
10, 81704, Note_on_c, 12, 69, 0
10, 81720, Note_on_c, 12, 70, 76
10, 81764, Note_on_c, 12, 70, 0
10, 81780, Note_on_c, 12, 72, 76
10, 81824, Note_on_c, 12, 72, 0
10, 81840, Note_on_c, 12, 74, 76
10, 81944, Note_on_c, 12, 74, 0
10, 81960, Note_on_c, 12, 70, 76
10, 82064, Note_on_c, 12, 70, 0
10, 82080, Note_on_c, 12, 67, 76
10, 82184, Note_on_c, 12, 67, 0
10, 82200, Note_on_c, 12, 70, 76
10, 82304, Note_on_c, 12, 70, 0
10, 82320, Note_on_c, 12, 60, 76
10, 82424, Note_on_c, 12, 60, 0
10, 82440, Note_on_c, 12, 70, 76
10, 82544, Note_on_c, 12, 70, 0
10, 82560, Note_on_c, 12, 69, 76
10, 82664, Note_on_c, 12, 69, 0
10, 82680, Note_on_c, 12, 77, 76
10, 82784, Note_on_c, 12, 77, 0
10, 82800, Note_on_c, 12, 77, 76
10, 82904, Note_on_c, 12, 77, 0
10, 82920, Note_on_c, 12, 77, 76
10, 83024, Note_on_c, 12, 77, 0
10, 83040, Note_on_c, 12, 76, 76
10, 83144, Note_on_c, 12, 76, 0
10, 83160, Note_on_c, 12, 77, 76
10, 83204, Note_on_c, 12, 77, 0
10, 83220, Note_on_c, 12, 79, 76
10, 83264, Note_on_c, 12, 79, 0
10, 83280, Note_on_c, 12, 81, 76
10, 83384, Note_on_c, 12, 81, 0
10, 83400, Note_on_c, 12, 77, 76
10, 83504, Note_on_c, 12, 77, 0
10, 83520, Note_on_c, 12, 74, 76
10, 83624, Note_on_c, 12, 74, 0
10, 83640, Note_on_c, 12, 79, 76
10, 83744, Note_on_c, 12, 79, 0
10, 83760, Note_on_c, 12, 67, 76
10, 83864, Note_on_c, 12, 67, 0
10, 83880, Note_on_c, 12, 79, 76
10, 84044, Note_on_c, 12, 79, 0
10, 84060, Note_on_c, 12, 67, 76
10, 84104, Note_on_c, 12, 67, 0
10, 84120, Note_on_c, 12, 69, 76
10, 84164, Note_on_c, 12, 69, 0
10, 84180, Note_on_c, 12, 71, 76
10, 84224, Note_on_c, 12, 71, 0
10, 84240, Note_on_c, 12, 72, 76
10, 84284, Note_on_c, 12, 72, 0
10, 84300, Note_on_c, 12, 76, 76
10, 84344, Note_on_c, 12, 76, 0
10, 84360, Note_on_c, 12, 74, 76
10, 84404, Note_on_c, 12, 74, 0
10, 84420, Note_on_c, 12, 76, 76
10, 84464, Note_on_c, 12, 76, 0
10, 84480, Note_on_c, 12, 77, 76
10, 84524, Note_on_c, 12, 77, 0
10, 84540, Note_on_c, 12, 76, 76
10, 84584, Note_on_c, 12, 76, 0
10, 84600, Note_on_c, 12, 74, 76
10, 84644, Note_on_c, 12, 74, 0
10, 84660, Note_on_c, 12, 72, 76
10, 84704, Note_on_c, 12, 72, 0
10, 84720, Note_on_c, 12, 71, 76
10, 84824, Note_on_c, 12, 71, 0
10, 84840, Note_on_c, 12, 72, 76
10, 84884, Note_on_c, 12, 72, 0
10, 84900, Note_on_c, 12, 74, 76
10, 84944, Note_on_c, 12, 74, 0
10, 84960, Note_on_c, 12, 76, 76
10, 85004, Note_on_c, 12, 76, 0
10, 85020, Note_on_c, 12, 72, 76
10, 85064, Note_on_c, 12, 72, 0
10, 85080, Note_on_c, 12, 71, 76
10, 85124, Note_on_c, 12, 71, 0
10, 85140, Note_on_c, 12, 72, 76
10, 85184, Note_on_c, 12, 72, 0
10, 85200, Note_on_c, 12, 74, 76
10, 85244, Note_on_c, 12, 74, 0
10, 85260, Note_on_c, 12, 72, 76
10, 85304, Note_on_c, 12, 72, 0
10, 85320, Note_on_c, 12, 71, 76
10, 85364, Note_on_c, 12, 71, 0
10, 85380, Note_on_c, 12, 69, 76
10, 85424, Note_on_c, 12, 69, 0
10, 85440, Note_on_c, 12, 67, 76
10, 85544, Note_on_c, 12, 67, 0
10, 85560, Note_on_c, 12, 71, 76
10, 85664, Note_on_c, 12, 71, 0
10, 85680, Note_on_c, 12, 72, 76
10, 85724, Note_on_c, 12, 72, 0
10, 85740, Note_on_c, 12, 74, 76
10, 85784, Note_on_c, 12, 74, 0
10, 85800, Note_on_c, 12, 76, 76
10, 85844, Note_on_c, 12, 76, 0
10, 85860, Note_on_c, 12, 72, 76
10, 85904, Note_on_c, 12, 72, 0
10, 85920, Note_on_c, 12, 69, 76
10, 86204, Note_on_c, 12, 69, 0
10, 86220, Note_on_c, 12, 67, 76
10, 86264, Note_on_c, 12, 67, 0
10, 86280, Note_on_c, 12, 69, 76
10, 86324, Note_on_c, 12, 69, 0
10, 86340, Note_on_c, 12, 65, 76
10, 86384, Note_on_c, 12, 65, 0
10, 86400, Note_on_c, 12, 67, 76
10, 86684, Note_on_c, 12, 67, 0
10, 86700, Note_on_c, 12, 64, 76
10, 86744, Note_on_c, 12, 64, 0
10, 86760, Note_on_c, 12, 65, 76
10, 86804, Note_on_c, 12, 65, 0
10, 86820, Note_on_c, 12, 67, 76
10, 86864, Note_on_c, 12, 67, 0
10, 86880, Note_on_c, 12, 69, 76
10, 86984, Note_on_c, 12, 69, 0
10, 87000, Note_on_c, 12, 71, 76
10, 87044, Note_on_c, 12, 71, 0
10, 87060, Note_on_c, 12, 72, 76
10, 87104, Note_on_c, 12, 72, 0
10, 87120, Note_on_c, 12, 71, 76
10, 87224, Note_on_c, 12, 71, 0
10, 87240, Note_on_c, 12, 74, 76
10, 87344, Note_on_c, 12, 74, 0
10, 87360, Note_on_c, 12, 67, 76
10, 87464, Note_on_c, 12, 67, 0
10, 87480, Note_on_c, 12, 72, 76
10, 87524, Note_on_c, 12, 72, 0
10, 87540, Note_on_c, 12, 74, 76
10, 87584, Note_on_c, 12, 74, 0
10, 87600, Note_on_c, 12, 76, 76
10, 87644, Note_on_c, 12, 76, 0
10, 87660, Note_on_c, 12, 77, 76
10, 87704, Note_on_c, 12, 77, 0
10, 87720, Note_on_c, 12, 74, 76
10, 87764, Note_on_c, 12, 74, 0
10, 87780, Note_on_c, 12, 76, 76
10, 87824, Note_on_c, 12, 76, 0
10, 87840, Note_on_c, 12, 77, 76
10, 88004, Note_on_c, 12, 77, 0
10, 88020, Note_on_c, 12, 76, 76
10, 88064, Note_on_c, 12, 76, 0
10, 88080, Note_on_c, 12, 74, 76
10, 88124, Note_on_c, 12, 74, 0
10, 88140, Note_on_c, 12, 72, 76
10, 88184, Note_on_c, 12, 72, 0
10, 88200, Note_on_c, 12, 71, 76
10, 88244, Note_on_c, 12, 71, 0
10, 88260, Note_on_c, 12, 69, 76
10, 88304, Note_on_c, 12, 69, 0
10, 88320, Note_on_c, 12, 67, 76
10, 88439, Note_on_c, 12, 67, 0
10, 89880, Note_on_c, 12, 72, 76
10, 89984, Note_on_c, 12, 72, 0
10, 90000, Note_on_c, 12, 72, 76
10, 90104, Note_on_c, 12, 72, 0
10, 90120, Note_on_c, 12, 72, 76
10, 90224, Note_on_c, 12, 72, 0
10, 90240, Note_on_c, 12, 71, 76
10, 90344, Note_on_c, 12, 71, 0
10, 90360, Note_on_c, 12, 72, 76
10, 90404, Note_on_c, 12, 72, 0
10, 90420, Note_on_c, 12, 74, 76
10, 90464, Note_on_c, 12, 74, 0
10, 90480, Note_on_c, 12, 76, 76
10, 90584, Note_on_c, 12, 76, 0
10, 90600, Note_on_c, 12, 72, 76
10, 90704, Note_on_c, 12, 72, 0
10, 90720, Note_on_c, 12, 69, 76
10, 90824, Note_on_c, 12, 69, 0
10, 90840, Note_on_c, 12, 74, 76
10, 90944, Note_on_c, 12, 74, 0
10, 90960, Note_on_c, 12, 62, 76
10, 91064, Note_on_c, 12, 62, 0
10, 91080, Note_on_c, 12, 72, 76
10, 91184, Note_on_c, 12, 72, 0
10, 91200, Note_on_c, 12, 71, 76
10, 91244, Note_on_c, 12, 71, 0
10, 91260, Note_on_c, 12, 69, 76
10, 91304, Note_on_c, 12, 69, 0
10, 91320, Note_on_c, 12, 67, 76
10, 91364, Note_on_c, 12, 67, 0
10, 91380, Note_on_c, 12, 69, 76
10, 91424, Note_on_c, 12, 69, 0
10, 91440, Note_on_c, 12, 71, 76
10, 91484, Note_on_c, 12, 71, 0
10, 91500, Note_on_c, 12, 67, 76
10, 91544, Note_on_c, 12, 67, 0
10, 91560, Note_on_c, 12, 69, 76
10, 91604, Note_on_c, 12, 69, 0
10, 91620, Note_on_c, 12, 71, 76
10, 91664, Note_on_c, 12, 71, 0
10, 91680, Note_on_c, 12, 72, 76
10, 91844, Note_on_c, 12, 72, 0
10, 91860, Note_on_c, 12, 67, 76
10, 91904, Note_on_c, 12, 67, 0
10, 91920, Note_on_c, 12, 72, 76
10, 92084, Note_on_c, 12, 72, 0
10, 92100, Note_on_c, 12, 72, 76
10, 92144, Note_on_c, 12, 72, 0
10, 92160, Note_on_c, 12, 72, 76
10, 92324, Note_on_c, 12, 72, 0
10, 92340, Note_on_c, 12, 71, 76
10, 92359, Note_on_c, 12, 71, 0
10, 92360, Note_on_c, 12, 69, 76
10, 92379, Note_on_c, 12, 69, 0
10, 92380, Note_on_c, 12, 71, 76
10, 92399, Note_on_c, 12, 71, 0
10, 92400, Note_on_c, 12, 71, 76
10, 92429, Note_on_c, 12, 71, 0
10, 92430, Note_on_c, 12, 72, 76
10, 92459, Note_on_c, 12, 72, 0
10, 92460, Note_on_c, 12, 71, 76
10, 92489, Note_on_c, 12, 71, 0
10, 92490, Note_on_c, 12, 72, 76
10, 92519, Note_on_c, 12, 72, 0
10, 92520, Note_on_c, 12, 69, 76
10, 92549, Note_on_c, 12, 69, 0
10, 92550, Note_on_c, 12, 71, 76
10, 92579, Note_on_c, 12, 71, 0
10, 92580, Note_on_c, 12, 72, 76
10, 92624, Note_on_c, 12, 72, 0
10, 92640, Note_on_c, 12, 72, 76
10, 92744, Note_on_c, 12, 72, 0
10, 92760, Note_on_c, 12, 67, 76
10, 92804, Note_on_c, 12, 67, 0
10, 92820, Note_on_c, 12, 65, 76
10, 92864, Note_on_c, 12, 65, 0
10, 92880, Note_on_c, 12, 67, 76
10, 92984, Note_on_c, 12, 67, 0
10, 93000, Note_on_c, 12, 76, 76
10, 93104, Note_on_c, 12, 76, 0
10, 93120, Note_on_c, 12, 74, 76
10, 93164, Note_on_c, 12, 74, 0
10, 93180, Note_on_c, 12, 72, 76
10, 93224, Note_on_c, 12, 72, 0
10, 93240, Note_on_c, 12, 71, 76
10, 93284, Note_on_c, 12, 71, 0
10, 93300, Note_on_c, 12, 69, 76
10, 93344, Note_on_c, 12, 69, 0
10, 93360, Note_on_c, 12, 67, 76
10, 93464, Note_on_c, 12, 67, 0
10, 93480, Note_on_c, 12, 76, 76
10, 93524, Note_on_c, 12, 76, 0
10, 93540, Note_on_c, 12, 74, 76
10, 93584, Note_on_c, 12, 74, 0
10, 93600, Note_on_c, 12, 76, 76
10, 93704, Note_on_c, 12, 76, 0
10, 93720, Note_on_c, 12, 69, 76
10, 93824, Note_on_c, 12, 69, 0
10, 93840, Note_on_c, 12, 74, 76
10, 93884, Note_on_c, 12, 74, 0
10, 93900, Note_on_c, 12, 72, 76
10, 93944, Note_on_c, 12, 72, 0
10, 93960, Note_on_c, 12, 71, 76
10, 94004, Note_on_c, 12, 71, 0
10, 94020, Note_on_c, 12, 72, 76
10, 94064, Note_on_c, 12, 72, 0
10, 94080, Note_on_c, 12, 74, 76
10, 94364, Note_on_c, 12, 74, 0
10, 94380, Note_on_c, 12, 71, 76
10, 94424, Note_on_c, 12, 71, 0
10, 94440, Note_on_c, 12, 72, 76
10, 94484, Note_on_c, 12, 72, 0
10, 94500, Note_on_c, 12, 74, 76
10, 94544, Note_on_c, 12, 74, 0
10, 94560, Note_on_c, 12, 67, 76
10, 94799, Note_on_c, 12, 67, 0
10, 94860, Note_on_c, 12, 76, 76
10, 94904, Note_on_c, 12, 76, 0
10, 94920, Note_on_c, 12, 74, 76
10, 94964, Note_on_c, 12, 74, 0
10, 94980, Note_on_c, 12, 72, 76
10, 95024, Note_on_c, 12, 72, 0
10, 95040, Note_on_c, 12, 77, 76
10, 95204, Note_on_c, 12, 77, 0
10, 95220, Note_on_c, 12, 77, 76
10, 95264, Note_on_c, 12, 77, 0
10, 95280, Note_on_c, 12, 77, 76
10, 95324, Note_on_c, 12, 77, 0
10, 95340, Note_on_c, 12, 81, 76
10, 95384, Note_on_c, 12, 81, 0
10, 95400, Note_on_c, 12, 79, 76
10, 95444, Note_on_c, 12, 79, 0
10, 95460, Note_on_c, 12, 77, 76
10, 95504, Note_on_c, 12, 77, 0
10, 95520, Note_on_c, 12, 76, 76
10, 95804, Note_on_c, 12, 76, 0
10, 95820, Note_on_c, 12, 79, 76
10, 95864, Note_on_c, 12, 79, 0
10, 95880, Note_on_c, 12, 77, 76
10, 95924, Note_on_c, 12, 77, 0
10, 95940, Note_on_c, 12, 76, 76
10, 95984, Note_on_c, 12, 76, 0
10, 96000, Note_on_c, 12, 74, 76
10, 96164, Note_on_c, 12, 74, 0
10, 96180, Note_on_c, 12, 74, 76
10, 96224, Note_on_c, 12, 74, 0
10, 96240, Note_on_c, 12, 74, 76
10, 96284, Note_on_c, 12, 74, 0
10, 96300, Note_on_c, 12, 77, 76
10, 96344, Note_on_c, 12, 77, 0
10, 96360, Note_on_c, 12, 76, 76
10, 96404, Note_on_c, 12, 76, 0
10, 96420, Note_on_c, 12, 74, 76
10, 96464, Note_on_c, 12, 74, 0
10, 96480, Note_on_c, 12, 72, 76
10, 96764, Note_on_c, 12, 72, 0
10, 96780, Note_on_c, 12, 76, 76
10, 96824, Note_on_c, 12, 76, 0
10, 96840, Note_on_c, 12, 74, 76
10, 96884, Note_on_c, 12, 74, 0
10, 96900, Note_on_c, 12, 72, 76
10, 96944, Note_on_c, 12, 72, 0
10, 96960, Note_on_c, 12, 71, 76
10, 97064, Note_on_c, 12, 71, 0
10, 97080, Note_on_c, 12, 74, 76
10, 97184, Note_on_c, 12, 74, 0
10, 97200, Note_on_c, 12, 71, 76
10, 97304, Note_on_c, 12, 71, 0
10, 97320, Note_on_c, 12, 67, 76
10, 97424, Note_on_c, 12, 67, 0
10, 97440, Note_on_c, 12, 72, 76
10, 97679, Note_on_c, 12, 72, 0
10, 97740, Note_on_c, 12, 60, 76
10, 97784, Note_on_c, 12, 60, 0
10, 97800, Note_on_c, 12, 62, 76
10, 97844, Note_on_c, 12, 62, 0
10, 97860, Note_on_c, 12, 64, 76
10, 97904, Note_on_c, 12, 64, 0
10, 97920, Note_on_c, 12, 65, 76
10, 97964, Note_on_c, 12, 65, 0
10, 97980, Note_on_c, 12, 62, 76
10, 98024, Note_on_c, 12, 62, 0
10, 98040, Note_on_c, 12, 64, 76
10, 98084, Note_on_c, 12, 64, 0
10, 98100, Note_on_c, 12, 65, 76
10, 98144, Note_on_c, 12, 65, 0
10, 98160, Note_on_c, 12, 67, 76
10, 98324, Note_on_c, 12, 67, 0
10, 98340, Note_on_c, 12, 67, 76
10, 98384, Note_on_c, 12, 67, 0
10, 98400, Note_on_c, 12, 67, 76
10, 98444, Note_on_c, 12, 67, 0
10, 98460, Note_on_c, 12, 65, 76
10, 98504, Note_on_c, 12, 65, 0
10, 98520, Note_on_c, 12, 64, 76
10, 98564, Note_on_c, 12, 64, 0
10, 98580, Note_on_c, 12, 65, 76
10, 98624, Note_on_c, 12, 65, 0
10, 98640, Note_on_c, 12, 62, 76
10, 98804, Note_on_c, 12, 62, 0
10, 98820, Note_on_c, 12, 64, 76
10, 98864, Note_on_c, 12, 64, 0
10, 98880, Note_on_c, 12, 64, 76
10, 98924, Note_on_c, 12, 64, 0
10, 98940, Note_on_c, 12, 69, 76
10, 98984, Note_on_c, 12, 69, 0
10, 99000, Note_on_c, 12, 67, 76
10, 99044, Note_on_c, 12, 67, 0
10, 99060, Note_on_c, 12, 65, 76
10, 99104, Note_on_c, 12, 65, 0
10, 99120, Note_on_c, 12, 64, 76
10, 99164, Note_on_c, 12, 64, 0
10, 99180, Note_on_c, 12, 62, 76
10, 99224, Note_on_c, 12, 62, 0
10, 99240, Note_on_c, 12, 64, 76
10, 99284, Note_on_c, 12, 64, 0
10, 99300, Note_on_c, 12, 60, 76
10, 99344, Note_on_c, 12, 60, 0
10, 99360, Note_on_c, 12, 67, 76
10, 99479, Note_on_c, 12, 67, 0
10, 100380, Note_on_c, 12, 59, 76
10, 100424, Note_on_c, 12, 59, 0
10, 100440, Note_on_c, 12, 60, 76
10, 100484, Note_on_c, 12, 60, 0
10, 100500, Note_on_c, 12, 62, 76
10, 100544, Note_on_c, 12, 62, 0
10, 100560, Note_on_c, 12, 64, 76
10, 100604, Note_on_c, 12, 64, 0
10, 100620, Note_on_c, 12, 62, 76
10, 100664, Note_on_c, 12, 62, 0
10, 100680, Note_on_c, 12, 64, 76
10, 100724, Note_on_c, 12, 64, 0
10, 100740, Note_on_c, 12, 65, 76
10, 100784, Note_on_c, 12, 65, 0
10, 100800, Note_on_c, 12, 67, 76
10, 100844, Note_on_c, 12, 67, 0
10, 100860, Note_on_c, 12, 70, 76
10, 100904, Note_on_c, 12, 70, 0
10, 100920, Note_on_c, 12, 69, 76
10, 100964, Note_on_c, 12, 69, 0
10, 100980, Note_on_c, 12, 67, 76
10, 101024, Note_on_c, 12, 67, 0
10, 101040, Note_on_c, 12, 65, 76
10, 101084, Note_on_c, 12, 65, 0
10, 101100, Note_on_c, 12, 64, 76
10, 101144, Note_on_c, 12, 64, 0
10, 101160, Note_on_c, 12, 65, 76
10, 101204, Note_on_c, 12, 65, 0
10, 101220, Note_on_c, 12, 62, 76
10, 101264, Note_on_c, 12, 62, 0
10, 101280, Note_on_c, 12, 67, 76
10, 101324, Note_on_c, 12, 67, 0
10, 101340, Note_on_c, 12, 65, 76
10, 101384, Note_on_c, 12, 65, 0
10, 101400, Note_on_c, 12, 67, 76
10, 101444, Note_on_c, 12, 67, 0
10, 101460, Note_on_c, 12, 69, 76
10, 101504, Note_on_c, 12, 69, 0
10, 101520, Note_on_c, 12, 67, 76
10, 101564, Note_on_c, 12, 67, 0
10, 101580, Note_on_c, 12, 65, 76
10, 101624, Note_on_c, 12, 65, 0
10, 101640, Note_on_c, 12, 64, 76
10, 101684, Note_on_c, 12, 64, 0
10, 101700, Note_on_c, 12, 62, 76
10, 101744, Note_on_c, 12, 62, 0
10, 101760, Note_on_c, 12, 60, 76
10, 101864, Note_on_c, 12, 60, 0
10, 101880, Note_on_c, 12, 76, 76
10, 101984, Note_on_c, 12, 76, 0
10, 102000, Note_on_c, 12, 72, 76
10, 102104, Note_on_c, 12, 72, 0
10, 102120, Note_on_c, 12, 69, 76
10, 102344, Note_on_c, 12, 69, 0
10, 102360, Note_on_c, 12, 67, 76
10, 102404, Note_on_c, 12, 67, 0
10, 102420, Note_on_c, 12, 65, 76
10, 102464, Note_on_c, 12, 65, 0
10, 102480, Note_on_c, 12, 64, 76
10, 102584, Note_on_c, 12, 64, 0
10, 102600, Note_on_c, 12, 67, 76
10, 102704, Note_on_c, 12, 67, 0
10, 102720, Note_on_c, 12, 69, 76
10, 103004, Note_on_c, 12, 69, 0
10, 103020, Note_on_c, 12, 69, 76
10, 103064, Note_on_c, 12, 69, 0
10, 103080, Note_on_c, 12, 71, 76
10, 103124, Note_on_c, 12, 71, 0
10, 103140, Note_on_c, 12, 72, 76
10, 103184, Note_on_c, 12, 72, 0
10, 103200, Note_on_c, 12, 74, 76
10, 103244, Note_on_c, 12, 74, 0
10, 103260, Note_on_c, 12, 72, 76
10, 103304, Note_on_c, 12, 72, 0
10, 103320, Note_on_c, 12, 74, 76
10, 103364, Note_on_c, 12, 74, 0
10, 103380, Note_on_c, 12, 71, 76
10, 103424, Note_on_c, 12, 71, 0
10, 103440, Note_on_c, 12, 72, 76
10, 103724, Note_on_c, 12, 72, 0
10, 103740, Note_on_c, 12, 72, 76
10, 103784, Note_on_c, 12, 72, 0
10, 103800, Note_on_c, 12, 70, 76
10, 103844, Note_on_c, 12, 70, 0
10, 103860, Note_on_c, 12, 72, 76
10, 103904, Note_on_c, 12, 72, 0
10, 103920, Note_on_c, 12, 74, 76
10, 104204, Note_on_c, 12, 74, 0
10, 104220, Note_on_c, 12, 76, 76
10, 104264, Note_on_c, 12, 76, 0
10, 104280, Note_on_c, 12, 74, 76
10, 104324, Note_on_c, 12, 74, 0
10, 104340, Note_on_c, 12, 76, 76
10, 104384, Note_on_c, 12, 76, 0
10, 104400, Note_on_c, 12, 72, 76
10, 104744, Note_on_c, 12, 72, 0
10, 104760, Note_on_c, 12, 71, 76
10, 104804, Note_on_c, 12, 71, 0
10, 104820, Note_on_c, 12, 69, 76
10, 104864, Note_on_c, 12, 69, 0
10, 104880, Note_on_c, 12, 67, 76
10, 104984, Note_on_c, 12, 67, 0
10, 105000, Note_on_c, 12, 71, 76
10, 105104, Note_on_c, 12, 71, 0
10, 105120, Note_on_c, 12, 72, 76
10, 105284, Note_on_c, 12, 72, 0
10, 105300, Note_on_c, 12, 74, 76
10, 105344, Note_on_c, 12, 74, 0
10, 105360, Note_on_c, 12, 72, 76
10, 105404, Note_on_c, 12, 72, 0
10, 105420, Note_on_c, 12, 71, 76
10, 105464, Note_on_c, 12, 71, 0
10, 105480, Note_on_c, 12, 69, 76
10, 105524, Note_on_c, 12, 69, 0
10, 105540, Note_on_c, 12, 67, 76
10, 105584, Note_on_c, 12, 67, 0
10, 105600, Note_on_c, 12, 65, 76
10, 105764, Note_on_c, 12, 65, 0
10, 105780, Note_on_c, 12, 72, 76
10, 105824, Note_on_c, 12, 72, 0
10, 105840, Note_on_c, 12, 71, 76
10, 105884, Note_on_c, 12, 71, 0
10, 105900, Note_on_c, 12, 69, 76
10, 105944, Note_on_c, 12, 69, 0
10, 105960, Note_on_c, 12, 67, 76
10, 106004, Note_on_c, 12, 67, 0
10, 106020, Note_on_c, 12, 65, 76
10, 106064, Note_on_c, 12, 65, 0
10, 106080, Note_on_c, 12, 64, 76
10, 106244, Note_on_c, 12, 64, 0
10, 106260, Note_on_c, 12, 71, 76
10, 106304, Note_on_c, 12, 71, 0
10, 106320, Note_on_c, 12, 69, 76
10, 106364, Note_on_c, 12, 69, 0
10, 106380, Note_on_c, 12, 67, 76
10, 106424, Note_on_c, 12, 67, 0
10, 106440, Note_on_c, 12, 65, 76
10, 106484, Note_on_c, 12, 65, 0
10, 106500, Note_on_c, 12, 64, 76
10, 106544, Note_on_c, 12, 64, 0
10, 106560, Note_on_c, 12, 62, 76
10, 106724, Note_on_c, 12, 62, 0
10, 106740, Note_on_c, 12, 69, 76
10, 106784, Note_on_c, 12, 69, 0
10, 106800, Note_on_c, 12, 67, 76
10, 106844, Note_on_c, 12, 67, 0
10, 106860, Note_on_c, 12, 65, 76
10, 106904, Note_on_c, 12, 65, 0
10, 106920, Note_on_c, 12, 64, 76
10, 106964, Note_on_c, 12, 64, 0
10, 106980, Note_on_c, 12, 62, 76
10, 107024, Note_on_c, 12, 62, 0
10, 107040, Note_on_c, 12, 60, 76
10, 107204, Note_on_c, 12, 60, 0
10, 107220, Note_on_c, 12, 67, 76
10, 107264, Note_on_c, 12, 67, 0
10, 107280, Note_on_c, 12, 65, 76
10, 107324, Note_on_c, 12, 65, 0
10, 107340, Note_on_c, 12, 64, 76
10, 107384, Note_on_c, 12, 64, 0
10, 107400, Note_on_c, 12, 62, 76
10, 107444, Note_on_c, 12, 62, 0
10, 107460, Note_on_c, 12, 60, 76
10, 107504, Note_on_c, 12, 60, 0
10, 107520, Note_on_c, 12, 67, 76
10, 107624, Note_on_c, 12, 67, 0
10, 107640, Note_on_c, 12, 71, 76
10, 107744, Note_on_c, 12, 71, 0
10, 107760, Note_on_c, 12, 67, 76
10, 107804, Note_on_c, 12, 67, 0
10, 107820, Note_on_c, 12, 69, 76
10, 107864, Note_on_c, 12, 69, 0
10, 107880, Note_on_c, 12, 71, 76
10, 107924, Note_on_c, 12, 71, 0
10, 107940, Note_on_c, 12, 67, 76
10, 107984, Note_on_c, 12, 67, 0
10, 108000, Note_on_c, 12, 72, 76
10, 108044, Note_on_c, 12, 72, 0
10, 108060, Note_on_c, 12, 74, 76
10, 108104, Note_on_c, 12, 74, 0
10, 108120, Note_on_c, 12, 72, 76
10, 108164, Note_on_c, 12, 72, 0
10, 108180, Note_on_c, 12, 70, 76
10, 108224, Note_on_c, 12, 70, 0
10, 108240, Note_on_c, 12, 69, 76
10, 108344, Note_on_c, 12, 69, 0
10, 108360, Note_on_c, 12, 69, 76
10, 108464, Note_on_c, 12, 69, 0
10, 108480, Note_on_c, 12, 74, 76
10, 108524, Note_on_c, 12, 74, 0
10, 108540, Note_on_c, 12, 72, 76
10, 108584, Note_on_c, 12, 72, 0
10, 108600, Note_on_c, 12, 71, 76
10, 108644, Note_on_c, 12, 71, 0
10, 108660, Note_on_c, 12, 72, 76
10, 108704, Note_on_c, 12, 72, 0
10, 108720, Note_on_c, 12, 74, 76
10, 108764, Note_on_c, 12, 74, 0
10, 108780, Note_on_c, 12, 72, 76
10, 108824, Note_on_c, 12, 72, 0
10, 108840, Note_on_c, 12, 74, 76
10, 108884, Note_on_c, 12, 74, 0
10, 108900, Note_on_c, 12, 71, 76
10, 108944, Note_on_c, 12, 71, 0
10, 108960, Note_on_c, 12, 72, 76
10, 109124, Note_on_c, 12, 72, 0
10, 109140, Note_on_c, 12, 74, 76
10, 109184, Note_on_c, 12, 74, 0
10, 109200, Note_on_c, 12, 71, 76
10, 109364, Note_on_c, 12, 71, 0
10, 109380, Note_on_c, 12, 67, 76
10, 109424, Note_on_c, 12, 67, 0
10, 109440, Note_on_c, 12, 67, 76
10, 109611, Note_on_c, 12, 67, 0
10, 109620, Note_on_c, 12, 65, 76
10, 109671, Note_on_c, 12, 65, 0
10, 109680, Note_on_c, 12, 64, 76
10, 109851, Note_on_c, 12, 64, 0
10, 109860, Note_on_c, 12, 65, 76
10, 109911, Note_on_c, 12, 65, 0
10, 109920, Note_on_c, 12, 67, 76
10, 110211, Note_on_c, 12, 67, 0
10, 110220, Note_on_c, 12, 67, 76
10, 110271, Note_on_c, 12, 67, 0
10, 110280, Note_on_c, 12, 65, 76
10, 110331, Note_on_c, 12, 65, 0
10, 110340, Note_on_c, 12, 64, 76
10, 110391, Note_on_c, 12, 64, 0
10, 110400, Note_on_c, 12, 62, 76
10, 110571, Note_on_c, 12, 62, 0
10, 110580, Note_on_c, 12, 65, 76
10, 110631, Note_on_c, 12, 65, 0
10, 110640, Note_on_c, 12, 64, 76
10, 110811, Note_on_c, 12, 64, 0
10, 110820, Note_on_c, 12, 62, 76
10, 110871, Note_on_c, 12, 62, 0
10, 110880, Note_on_c, 12, 60, 76
10, 111051, Note_on_c, 12, 60, 0
10, 111060, Note_on_c, 12, 62, 76
10, 111089, Note_on_c, 12, 62, 0
10, 111090, Note_on_c, 12, 64, 76
10, 111119, Note_on_c, 12, 64, 0
10, 111120, Note_on_c, 12, 64, 76
10, 111134, Note_on_c, 12, 64, 0
10, 111135, Note_on_c, 12, 65, 76
10, 111149, Note_on_c, 12, 65, 0
10, 111150, Note_on_c, 12, 64, 76
10, 111164, Note_on_c, 12, 64, 0
10, 111165, Note_on_c, 12, 65, 76
10, 111179, Note_on_c, 12, 65, 0
10, 111180, Note_on_c, 12, 64, 76
10, 111194, Note_on_c, 12, 64, 0
10, 111195, Note_on_c, 12, 65, 76
10, 111209, Note_on_c, 12, 65, 0
10, 111210, Note_on_c, 12, 64, 76
10, 111224, Note_on_c, 12, 64, 0
10, 111225, Note_on_c, 12, 65, 76
10, 111239, Note_on_c, 12, 65, 0
10, 111240, Note_on_c, 12, 64, 76
10, 111254, Note_on_c, 12, 64, 0
10, 111255, Note_on_c, 12, 65, 76
10, 111269, Note_on_c, 12, 65, 0
10, 111270, Note_on_c, 12, 64, 76
10, 111284, Note_on_c, 12, 64, 0
10, 111285, Note_on_c, 12, 65, 76
10, 111299, Note_on_c, 12, 65, 0
10, 111300, Note_on_c, 12, 62, 76
10, 111329, Note_on_c, 12, 62, 0
10, 111330, Note_on_c, 12, 64, 76
10, 111359, Note_on_c, 12, 64, 0
10, 111360, Note_on_c, 12, 65, 76
10, 111531, Note_on_c, 12, 65, 0
10, 111540, Note_on_c, 12, 69, 76
10, 111591, Note_on_c, 12, 69, 0
10, 111600, Note_on_c, 12, 65, 76
10, 111771, Note_on_c, 12, 65, 0
10, 111780, Note_on_c, 12, 64, 76
10, 111831, Note_on_c, 12, 64, 0
10, 111840, Note_on_c, 12, 62, 76
10, 112011, Note_on_c, 12, 62, 0
10, 112020, Note_on_c, 12, 69, 76
10, 112071, Note_on_c, 12, 69, 0
10, 112080, Note_on_c, 12, 74, 76
10, 112491, Note_on_c, 12, 74, 0
10, 112500, Note_on_c, 12, 77, 76
10, 112551, Note_on_c, 12, 77, 0
10, 112560, Note_on_c, 12, 76, 76
10, 112731, Note_on_c, 12, 76, 0
10, 112740, Note_on_c, 12, 74, 76
10, 112791, Note_on_c, 12, 74, 0
10, 112800, Note_on_c, 12, 73, 76
10, 112814, Note_on_c, 12, 73, 0
10, 112815, Note_on_c, 12, 74, 76
10, 112829, Note_on_c, 12, 74, 0
10, 112830, Note_on_c, 12, 73, 76
10, 112844, Note_on_c, 12, 73, 0
10, 112845, Note_on_c, 12, 74, 76
10, 112859, Note_on_c, 12, 74, 0
10, 112860, Note_on_c, 12, 73, 76
10, 112874, Note_on_c, 12, 73, 0
10, 112875, Note_on_c, 12, 74, 76
10, 112889, Note_on_c, 12, 74, 0
10, 112890, Note_on_c, 12, 73, 76
10, 112904, Note_on_c, 12, 73, 0
10, 112905, Note_on_c, 12, 74, 76
10, 112919, Note_on_c, 12, 74, 0
10, 112920, Note_on_c, 12, 73, 76
10, 112934, Note_on_c, 12, 73, 0
10, 112935, Note_on_c, 12, 74, 76
10, 112949, Note_on_c, 12, 74, 0
10, 112950, Note_on_c, 12, 73, 76
10, 112964, Note_on_c, 12, 73, 0
10, 112965, Note_on_c, 12, 74, 76
10, 112979, Note_on_c, 12, 74, 0
10, 112980, Note_on_c, 12, 73, 76
10, 112994, Note_on_c, 12, 73, 0
10, 112995, Note_on_c, 12, 74, 76
10, 113009, Note_on_c, 12, 74, 0
10, 113010, Note_on_c, 12, 73, 76
10, 113024, Note_on_c, 12, 73, 0
10, 113025, Note_on_c, 12, 74, 76
10, 113039, Note_on_c, 12, 74, 0
10, 113040, Note_on_c, 12, 73, 76
10, 113054, Note_on_c, 12, 73, 0
10, 113055, Note_on_c, 12, 74, 76
10, 113069, Note_on_c, 12, 74, 0
10, 113070, Note_on_c, 12, 73, 76
10, 113084, Note_on_c, 12, 73, 0
10, 113085, Note_on_c, 12, 74, 76
10, 113099, Note_on_c, 12, 74, 0
10, 113100, Note_on_c, 12, 73, 76
10, 113114, Note_on_c, 12, 73, 0
10, 113115, Note_on_c, 12, 74, 76
10, 113129, Note_on_c, 12, 74, 0
10, 113130, Note_on_c, 12, 71, 76
10, 113144, Note_on_c, 12, 71, 0
10, 113145, Note_on_c, 12, 73, 76
10, 113159, Note_on_c, 12, 73, 0
10, 113160, Note_on_c, 12, 73, 76
10, 113271, Note_on_c, 12, 73, 0
10, 113280, Note_on_c, 12, 74, 76
10, 113451, Note_on_c, 12, 74, 0
10, 113460, Note_on_c, 12, 69, 76
10, 113511, Note_on_c, 12, 69, 0
10, 113520, Note_on_c, 12, 74, 76
10, 113691, Note_on_c, 12, 74, 0
10, 113700, Note_on_c, 12, 72, 76
10, 113751, Note_on_c, 12, 72, 0
10, 113760, Note_on_c, 12, 69, 76
10, 113774, Note_on_c, 12, 69, 0
10, 113775, Note_on_c, 12, 71, 76
10, 113789, Note_on_c, 12, 71, 0
10, 113790, Note_on_c, 12, 69, 76
10, 113804, Note_on_c, 12, 69, 0
10, 113805, Note_on_c, 12, 71, 76
10, 113819, Note_on_c, 12, 71, 0
10, 113820, Note_on_c, 12, 69, 76
10, 113834, Note_on_c, 12, 69, 0
10, 113835, Note_on_c, 12, 71, 76
10, 113849, Note_on_c, 12, 71, 0
10, 113850, Note_on_c, 12, 69, 76
10, 113864, Note_on_c, 12, 69, 0
10, 113865, Note_on_c, 12, 71, 76
10, 113879, Note_on_c, 12, 71, 0
10, 113880, Note_on_c, 12, 69, 76
10, 113894, Note_on_c, 12, 69, 0
10, 113895, Note_on_c, 12, 71, 76
10, 113909, Note_on_c, 12, 71, 0
10, 113910, Note_on_c, 12, 69, 76
10, 113924, Note_on_c, 12, 69, 0
10, 113925, Note_on_c, 12, 71, 76
10, 113939, Note_on_c, 12, 71, 0
10, 113940, Note_on_c, 12, 69, 76
10, 113954, Note_on_c, 12, 69, 0
10, 113955, Note_on_c, 12, 71, 76
10, 113969, Note_on_c, 12, 71, 0
10, 113970, Note_on_c, 12, 69, 76
10, 113984, Note_on_c, 12, 69, 0
10, 113985, Note_on_c, 12, 71, 76
10, 113999, Note_on_c, 12, 71, 0
10, 114000, Note_on_c, 12, 69, 76
10, 114014, Note_on_c, 12, 69, 0
10, 114015, Note_on_c, 12, 71, 76
10, 114029, Note_on_c, 12, 71, 0
10, 114030, Note_on_c, 12, 69, 76
10, 114044, Note_on_c, 12, 69, 0
10, 114045, Note_on_c, 12, 71, 76
10, 114059, Note_on_c, 12, 71, 0
10, 114060, Note_on_c, 12, 69, 76
10, 114074, Note_on_c, 12, 69, 0
10, 114075, Note_on_c, 12, 71, 76
10, 114089, Note_on_c, 12, 71, 0
10, 114090, Note_on_c, 12, 67, 76
10, 114104, Note_on_c, 12, 67, 0
10, 114105, Note_on_c, 12, 69, 76
10, 114119, Note_on_c, 12, 69, 0
10, 114120, Note_on_c, 12, 69, 76
10, 114231, Note_on_c, 12, 69, 0
10, 114240, Note_on_c, 12, 74, 76
10, 114411, Note_on_c, 12, 74, 0
10, 114420, Note_on_c, 12, 72, 76
10, 114471, Note_on_c, 12, 72, 0
10, 114480, Note_on_c, 12, 74, 76
10, 114651, Note_on_c, 12, 74, 0
10, 114660, Note_on_c, 12, 71, 76
10, 114711, Note_on_c, 12, 71, 0
10, 114720, Note_on_c, 12, 72, 76
10, 114891, Note_on_c, 12, 72, 0
10, 114900, Note_on_c, 12, 74, 76
10, 114951, Note_on_c, 12, 74, 0
10, 114960, Note_on_c, 12, 76, 76
10, 115131, Note_on_c, 12, 76, 0
10, 115140, Note_on_c, 12, 79, 76
10, 115191, Note_on_c, 12, 79, 0
10, 115200, Note_on_c, 12, 72, 76
10, 115371, Note_on_c, 12, 72, 0
10, 115380, Note_on_c, 12, 72, 76
10, 115431, Note_on_c, 12, 72, 0
10, 115440, Note_on_c, 12, 77, 76
10, 115611, Note_on_c, 12, 77, 0
10, 115620, Note_on_c, 12, 76, 76
10, 115671, Note_on_c, 12, 76, 0
10, 115680, Note_on_c, 12, 77, 76
10, 115971, Note_on_c, 12, 77, 0
10, 115980, Note_on_c, 12, 76, 76
10, 116031, Note_on_c, 12, 76, 0
10, 116040, Note_on_c, 12, 74, 76
10, 116091, Note_on_c, 12, 74, 0
10, 116100, Note_on_c, 12, 72, 76
10, 116151, Note_on_c, 12, 72, 0
10, 116160, Note_on_c, 12, 71, 76
10, 116511, Note_on_c, 12, 71, 0
10, 116520, Note_on_c, 12, 74, 76
10, 116631, Note_on_c, 12, 74, 0
10, 116640, Note_on_c, 12, 67, 76
10, 116991, Note_on_c, 12, 67, 0
10, 117000, Note_on_c, 12, 67, 76
10, 117111, Note_on_c, 12, 67, 0
10, 117120, Note_on_c, 12, 67, 76
10, 117411, Note_on_c, 12, 67, 0
10, 117420, Note_on_c, 12, 69, 76
10, 117471, Note_on_c, 12, 69, 0
10, 117480, Note_on_c, 12, 71, 76
10, 117531, Note_on_c, 12, 71, 0
10, 117540, Note_on_c, 12, 72, 76
10, 117591, Note_on_c, 12, 72, 0
10, 117600, Note_on_c, 12, 74, 76
10, 117951, Note_on_c, 12, 74, 0
10, 117960, Note_on_c, 12, 74, 76
10, 118071, Note_on_c, 12, 74, 0
10, 118080, Note_on_c, 12, 74, 76
10, 118251, Note_on_c, 12, 74, 0
10, 118260, Note_on_c, 12, 72, 76
10, 118289, Note_on_c, 12, 72, 0
10, 118290, Note_on_c, 12, 71, 76
10, 118319, Note_on_c, 12, 71, 0
10, 118320, Note_on_c, 12, 72, 76
10, 118491, Note_on_c, 12, 72, 0
10, 118500, Note_on_c, 12, 69, 76
10, 118551, Note_on_c, 12, 69, 0
10, 118560, Note_on_c, 12, 67, 76
10, 118911, Note_on_c, 12, 67, 0
10, 118920, Note_on_c, 12, 67, 76
10, 119031, Note_on_c, 12, 67, 0
10, 119040, Note_on_c, 12, 67, 76
10, 119211, Note_on_c, 12, 67, 0
10, 119220, Note_on_c, 12, 65, 76
10, 119249, Note_on_c, 12, 65, 0
10, 119250, Note_on_c, 12, 64, 76
10, 119279, Note_on_c, 12, 64, 0
10, 119280, Note_on_c, 12, 65, 76
10, 119451, Note_on_c, 12, 65, 0
10, 119460, Note_on_c, 12, 67, 76
10, 119511, Note_on_c, 12, 67, 0
10, 119520, Note_on_c, 12, 69, 76
10, 119691, Note_on_c, 12, 69, 0
10, 119700, Note_on_c, 12, 67, 76
10, 119751, Note_on_c, 12, 67, 0
10, 119760, Note_on_c, 12, 65, 76
10, 119931, Note_on_c, 12, 65, 0
10, 119940, Note_on_c, 12, 64, 76
10, 119991, Note_on_c, 12, 64, 0
10, 120000, Note_on_c, 12, 65, 76
10, 120231, Note_on_c, 12, 65, 0
10, 120240, Note_on_c, 12, 69, 76
10, 120471, Note_on_c, 12, 69, 0
10, 120480, Note_on_c, 12, 74, 76
10, 120831, Note_on_c, 12, 74, 0
10, 120840, Note_on_c, 12, 72, 76
10, 120951, Note_on_c, 12, 72, 0
10, 120960, Note_on_c, 12, 71, 76
10, 121131, Note_on_c, 12, 71, 0
10, 121140, Note_on_c, 12, 71, 76
10, 121191, Note_on_c, 12, 71, 0
10, 121200, Note_on_c, 12, 72, 76
10, 121371, Note_on_c, 12, 72, 0
10, 121380, Note_on_c, 12, 74, 76
10, 121431, Note_on_c, 12, 74, 0
10, 121440, Note_on_c, 12, 67, 76
10, 121611, Note_on_c, 12, 67, 0
10, 121620, Note_on_c, 12, 70, 76
10, 121671, Note_on_c, 12, 70, 0
10, 121680, Note_on_c, 12, 69, 76
10, 121851, Note_on_c, 12, 69, 0
10, 121860, Note_on_c, 12, 67, 76
10, 121911, Note_on_c, 12, 67, 0
10, 121920, Note_on_c, 12, 65, 76
10, 122091, Note_on_c, 12, 65, 0
10, 122100, Note_on_c, 12, 67, 76
10, 122151, Note_on_c, 12, 67, 0
10, 122160, Note_on_c, 12, 69, 76
10, 122331, Note_on_c, 12, 69, 0
10, 122340, Note_on_c, 12, 65, 76
10, 122391, Note_on_c, 12, 65, 0
10, 122400, Note_on_c, 12, 62, 76
10, 122571, Note_on_c, 12, 62, 0
10, 122580, Note_on_c, 12, 67, 76
10, 122631, Note_on_c, 12, 67, 0
10, 122640, Note_on_c, 12, 74, 76
10, 122811, Note_on_c, 12, 74, 0
10, 122820, Note_on_c, 12, 72, 76
10, 122871, Note_on_c, 12, 72, 0
10, 122880, Note_on_c, 12, 71, 76
10, 123051, Note_on_c, 12, 71, 0
10, 123060, Note_on_c, 12, 74, 76
10, 123111, Note_on_c, 12, 74, 0
10, 123120, Note_on_c, 12, 72, 76
10, 123291, Note_on_c, 12, 72, 0
10, 123300, Note_on_c, 12, 74, 76
10, 123351, Note_on_c, 12, 74, 0
10, 123360, Note_on_c, 12, 71, 76
10, 123711, Note_on_c, 12, 71, 0
10, 123720, Note_on_c, 12, 67, 76
10, 123831, Note_on_c, 12, 67, 0
10, 123840, Note_on_c, 12, 67, 76
10, 123959, Note_on_c, 12, 67, 0
10, 125400, Note_on_c, 12, 72, 76
10, 125504, Note_on_c, 12, 72, 0
10, 125520, Note_on_c, 12, 72, 76
10, 125624, Note_on_c, 12, 72, 0
10, 125640, Note_on_c, 12, 72, 76
10, 125744, Note_on_c, 12, 72, 0
10, 125760, Note_on_c, 12, 71, 76
10, 125864, Note_on_c, 12, 71, 0
10, 125880, Note_on_c, 12, 72, 76
10, 125924, Note_on_c, 12, 72, 0
10, 125940, Note_on_c, 12, 74, 76
10, 125984, Note_on_c, 12, 74, 0
10, 126000, Note_on_c, 12, 76, 76
10, 126104, Note_on_c, 12, 76, 0
10, 126120, Note_on_c, 12, 72, 76
10, 126224, Note_on_c, 12, 72, 0
10, 126240, Note_on_c, 12, 69, 76
10, 126344, Note_on_c, 12, 69, 0
10, 126360, Note_on_c, 12, 74, 76
10, 126464, Note_on_c, 12, 74, 0
10, 126480, Note_on_c, 12, 62, 76
10, 126584, Note_on_c, 12, 62, 0
10, 126600, Note_on_c, 12, 72, 76
10, 126704, Note_on_c, 12, 72, 0
10, 126720, Note_on_c, 12, 71, 76
10, 126764, Note_on_c, 12, 71, 0
10, 126780, Note_on_c, 12, 69, 76
10, 126824, Note_on_c, 12, 69, 0
10, 126840, Note_on_c, 12, 67, 76
10, 126884, Note_on_c, 12, 67, 0
10, 126900, Note_on_c, 12, 69, 76
10, 126944, Note_on_c, 12, 69, 0
10, 126960, Note_on_c, 12, 71, 76
10, 127004, Note_on_c, 12, 71, 0
10, 127020, Note_on_c, 12, 67, 76
10, 127064, Note_on_c, 12, 67, 0
10, 127080, Note_on_c, 12, 69, 76
10, 127124, Note_on_c, 12, 69, 0
10, 127140, Note_on_c, 12, 71, 76
10, 127184, Note_on_c, 12, 71, 0
10, 127200, Note_on_c, 12, 72, 76
10, 127364, Note_on_c, 12, 72, 0
10, 127380, Note_on_c, 12, 67, 76
10, 127424, Note_on_c, 12, 67, 0
10, 127440, Note_on_c, 12, 72, 76
10, 127604, Note_on_c, 12, 72, 0
10, 127620, Note_on_c, 12, 72, 76
10, 127664, Note_on_c, 12, 72, 0
10, 127680, Note_on_c, 12, 72, 76
10, 127724, Note_on_c, 12, 72, 0
10, 127740, Note_on_c, 12, 71, 76
10, 127784, Note_on_c, 12, 71, 0
10, 127800, Note_on_c, 12, 69, 76
10, 127844, Note_on_c, 12, 69, 0
10, 127860, Note_on_c, 12, 71, 76
10, 127904, Note_on_c, 12, 71, 0
10, 127920, Note_on_c, 12, 71, 76
10, 127949, Note_on_c, 12, 71, 0
10, 127950, Note_on_c, 12, 72, 76
10, 127979, Note_on_c, 12, 72, 0
10, 127980, Note_on_c, 12, 71, 76
10, 128009, Note_on_c, 12, 71, 0
10, 128010, Note_on_c, 12, 72, 76
10, 128039, Note_on_c, 12, 72, 0
10, 128040, Note_on_c, 12, 69, 76
10, 128069, Note_on_c, 12, 69, 0
10, 128070, Note_on_c, 12, 71, 76
10, 128099, Note_on_c, 12, 71, 0
10, 128100, Note_on_c, 12, 72, 76
10, 128144, Note_on_c, 12, 72, 0
10, 128160, Note_on_c, 12, 72, 76
10, 128264, Note_on_c, 12, 72, 0
10, 128280, Note_on_c, 12, 67, 76
10, 128324, Note_on_c, 12, 67, 0
10, 128340, Note_on_c, 12, 65, 76
10, 128384, Note_on_c, 12, 65, 0
10, 128400, Note_on_c, 12, 67, 76
10, 128504, Note_on_c, 12, 67, 0
10, 128520, Note_on_c, 12, 76, 76
10, 128624, Note_on_c, 12, 76, 0
10, 128640, Note_on_c, 12, 74, 76
10, 128684, Note_on_c, 12, 74, 0
10, 128700, Note_on_c, 12, 72, 76
10, 128744, Note_on_c, 12, 72, 0
10, 128760, Note_on_c, 12, 71, 76
10, 128804, Note_on_c, 12, 71, 0
10, 128820, Note_on_c, 12, 69, 76
10, 128864, Note_on_c, 12, 69, 0
10, 128880, Note_on_c, 12, 67, 76
10, 128984, Note_on_c, 12, 67, 0
10, 129000, Note_on_c, 12, 76, 76
10, 129044, Note_on_c, 12, 76, 0
10, 129060, Note_on_c, 12, 74, 76
10, 129104, Note_on_c, 12, 74, 0
10, 129120, Note_on_c, 12, 76, 76
10, 129224, Note_on_c, 12, 76, 0
10, 129240, Note_on_c, 12, 69, 76
10, 129344, Note_on_c, 12, 69, 0
10, 129360, Note_on_c, 12, 74, 76
10, 129404, Note_on_c, 12, 74, 0
10, 129420, Note_on_c, 12, 72, 76
10, 129464, Note_on_c, 12, 72, 0
10, 129480, Note_on_c, 12, 71, 76
10, 129524, Note_on_c, 12, 71, 0
10, 129540, Note_on_c, 12, 72, 76
10, 129584, Note_on_c, 12, 72, 0
10, 129600, Note_on_c, 12, 74, 76
10, 129884, Note_on_c, 12, 74, 0
10, 129900, Note_on_c, 12, 71, 76
10, 129944, Note_on_c, 12, 71, 0
10, 129960, Note_on_c, 12, 72, 76
10, 130004, Note_on_c, 12, 72, 0
10, 130020, Note_on_c, 12, 74, 76
10, 130064, Note_on_c, 12, 74, 0
10, 130080, Note_on_c, 12, 67, 76
10, 130244, Note_on_c, 12, 67, 0
10, 130260, Note_on_c, 12, 74, 76
10, 130304, Note_on_c, 12, 74, 0
10, 130320, Note_on_c, 12, 72, 76
10, 130364, Note_on_c, 12, 72, 0
10, 130380, Note_on_c, 12, 71, 76
10, 130424, Note_on_c, 12, 71, 0
10, 130440, Note_on_c, 12, 69, 76
10, 130484, Note_on_c, 12, 69, 0
10, 130500, Note_on_c, 12, 67, 76
10, 130544, Note_on_c, 12, 67, 0
10, 130560, Note_on_c, 12, 65, 76
10, 130724, Note_on_c, 12, 65, 0
10, 130740, Note_on_c, 12, 72, 76
10, 130784, Note_on_c, 12, 72, 0
10, 130800, Note_on_c, 12, 71, 76
10, 130844, Note_on_c, 12, 71, 0
10, 130860, Note_on_c, 12, 69, 76
10, 130904, Note_on_c, 12, 69, 0
10, 130920, Note_on_c, 12, 67, 76
10, 130964, Note_on_c, 12, 67, 0
10, 130980, Note_on_c, 12, 65, 76
10, 131024, Note_on_c, 12, 65, 0
10, 131040, Note_on_c, 12, 64, 76
10, 131204, Note_on_c, 12, 64, 0
10, 131220, Note_on_c, 12, 71, 76
10, 131264, Note_on_c, 12, 71, 0
10, 131280, Note_on_c, 12, 69, 76
10, 131324, Note_on_c, 12, 69, 0
10, 131340, Note_on_c, 12, 67, 76
10, 131384, Note_on_c, 12, 67, 0
10, 131400, Note_on_c, 12, 65, 76
10, 131444, Note_on_c, 12, 65, 0
10, 131460, Note_on_c, 12, 64, 76
10, 131504, Note_on_c, 12, 64, 0
10, 131520, Note_on_c, 12, 62, 76
10, 131684, Note_on_c, 12, 62, 0
10, 131700, Note_on_c, 12, 69, 76
10, 131744, Note_on_c, 12, 69, 0
10, 131760, Note_on_c, 12, 67, 76
10, 131804, Note_on_c, 12, 67, 0
10, 131820, Note_on_c, 12, 65, 76
10, 131864, Note_on_c, 12, 65, 0
10, 131880, Note_on_c, 12, 64, 76
10, 131924, Note_on_c, 12, 64, 0
10, 131940, Note_on_c, 12, 62, 76
10, 131984, Note_on_c, 12, 62, 0
10, 132000, Note_on_c, 12, 60, 76
10, 132164, Note_on_c, 12, 60, 0
10, 132180, Note_on_c, 12, 67, 76
10, 132224, Note_on_c, 12, 67, 0
10, 132240, Note_on_c, 12, 65, 76
10, 132284, Note_on_c, 12, 65, 0
10, 132300, Note_on_c, 12, 64, 76
10, 132344, Note_on_c, 12, 64, 0
10, 132360, Note_on_c, 12, 62, 76
10, 132404, Note_on_c, 12, 62, 0
10, 132420, Note_on_c, 12, 60, 76
10, 132464, Note_on_c, 12, 60, 0
10, 132480, Note_on_c, 12, 67, 76
10, 132584, Note_on_c, 12, 67, 0
10, 132600, Note_on_c, 12, 71, 76
10, 132704, Note_on_c, 12, 71, 0
10, 132720, Note_on_c, 12, 67, 76
10, 132764, Note_on_c, 12, 67, 0
10, 132780, Note_on_c, 12, 69, 76
10, 132824, Note_on_c, 12, 69, 0
10, 132840, Note_on_c, 12, 71, 76
10, 132884, Note_on_c, 12, 71, 0
10, 132900, Note_on_c, 12, 67, 76
10, 132944, Note_on_c, 12, 67, 0
10, 132960, Note_on_c, 12, 72, 76
10, 133004, Note_on_c, 12, 72, 0
10, 133020, Note_on_c, 12, 74, 76
10, 133064, Note_on_c, 12, 74, 0
10, 133080, Note_on_c, 12, 72, 76
10, 133124, Note_on_c, 12, 72, 0
10, 133140, Note_on_c, 12, 70, 76
10, 133184, Note_on_c, 12, 70, 0
10, 133200, Note_on_c, 12, 69, 76
10, 133304, Note_on_c, 12, 69, 0
10, 133320, Note_on_c, 12, 69, 76
10, 133424, Note_on_c, 12, 69, 0
10, 133440, Note_on_c, 12, 74, 76
10, 133484, Note_on_c, 12, 74, 0
10, 133500, Note_on_c, 12, 72, 76
10, 133544, Note_on_c, 12, 72, 0
10, 133560, Note_on_c, 12, 71, 76
10, 133604, Note_on_c, 12, 71, 0
10, 133620, Note_on_c, 12, 72, 76
10, 133664, Note_on_c, 12, 72, 0
10, 133680, Note_on_c, 12, 74, 76
10, 133724, Note_on_c, 12, 74, 0
10, 133740, Note_on_c, 12, 72, 76
10, 133784, Note_on_c, 12, 72, 0
10, 133800, Note_on_c, 12, 74, 76
10, 133844, Note_on_c, 12, 74, 0
10, 133860, Note_on_c, 12, 71, 76
10, 133904, Note_on_c, 12, 71, 0
10, 133920, Note_on_c, 12, 72, 76
10, 134084, Note_on_c, 12, 72, 0
10, 134100, Note_on_c, 12, 74, 76
10, 134144, Note_on_c, 12, 74, 0
10, 134160, Note_on_c, 12, 71, 76
10, 134324, Note_on_c, 12, 71, 0
10, 134340, Note_on_c, 12, 67, 76
10, 134384, Note_on_c, 12, 67, 0
10, 134400, Note_on_c, 12, 67, 76
10, 134519, Note_on_c, 12, 67, 0
10, 139800, Note_on_c, 12, 69, 76
10, 139904, Note_on_c, 12, 69, 0
10, 139920, Note_on_c, 12, 69, 76
10, 140024, Note_on_c, 12, 69, 0
10, 140040, Note_on_c, 12, 69, 76
10, 140144, Note_on_c, 12, 69, 0
10, 140160, Note_on_c, 12, 67, 76
10, 140264, Note_on_c, 12, 67, 0
10, 140280, Note_on_c, 12, 69, 76
10, 140324, Note_on_c, 12, 69, 0
10, 140340, Note_on_c, 12, 71, 76
10, 140384, Note_on_c, 12, 71, 0
10, 140400, Note_on_c, 12, 72, 76
10, 140504, Note_on_c, 12, 72, 0
10, 140520, Note_on_c, 12, 69, 76
10, 140624, Note_on_c, 12, 69, 0
10, 140640, Note_on_c, 12, 66, 76
10, 140744, Note_on_c, 12, 66, 0
10, 140760, Note_on_c, 12, 71, 76
10, 140864, Note_on_c, 12, 71, 0
10, 140880, Note_on_c, 12, 59, 76
10, 140984, Note_on_c, 12, 59, 0
10, 141000, Note_on_c, 12, 69, 76
10, 141104, Note_on_c, 12, 69, 0
10, 141120, Note_on_c, 12, 68, 76
10, 141224, Note_on_c, 12, 68, 0
10, 141240, Note_on_c, 12, 69, 76
10, 141284, Note_on_c, 12, 69, 0
10, 141300, Note_on_c, 12, 71, 76
10, 141344, Note_on_c, 12, 71, 0
10, 141360, Note_on_c, 12, 72, 76
10, 141464, Note_on_c, 12, 72, 0
10, 141480, Note_on_c, 12, 76, 76
10, 141584, Note_on_c, 12, 76, 0
10, 141600, Note_on_c, 12, 72, 76
10, 141704, Note_on_c, 12, 72, 0
10, 141720, Note_on_c, 12, 77, 76
10, 141824, Note_on_c, 12, 77, 0
10, 141840, Note_on_c, 12, 71, 76
10, 141944, Note_on_c, 12, 71, 0
10, 141960, Note_on_c, 12, 74, 76
10, 142064, Note_on_c, 12, 74, 0
10, 142080, Note_on_c, 12, 72, 76
10, 142124, Note_on_c, 12, 72, 0
10, 142140, Note_on_c, 12, 74, 76
10, 142184, Note_on_c, 12, 74, 0
10, 142200, Note_on_c, 12, 76, 76
10, 142244, Note_on_c, 12, 76, 0
10, 142260, Note_on_c, 12, 74, 76
10, 142304, Note_on_c, 12, 74, 0
10, 142320, Note_on_c, 12, 72, 76
10, 142364, Note_on_c, 12, 72, 0
10, 142380, Note_on_c, 12, 71, 76
10, 142424, Note_on_c, 12, 71, 0
10, 142440, Note_on_c, 12, 72, 76
10, 142484, Note_on_c, 12, 72, 0
10, 142500, Note_on_c, 12, 69, 76
10, 142544, Note_on_c, 12, 69, 0
10, 142560, Note_on_c, 12, 64, 76
10, 142604, Note_on_c, 12, 64, 0
10, 142620, Note_on_c, 12, 72, 76
10, 142664, Note_on_c, 12, 72, 0
10, 142680, Note_on_c, 12, 71, 76
10, 142724, Note_on_c, 12, 71, 0
10, 142740, Note_on_c, 12, 69, 76
10, 142784, Note_on_c, 12, 69, 0
10, 142800, Note_on_c, 12, 67, 76
10, 142844, Note_on_c, 12, 67, 0
10, 142860, Note_on_c, 12, 66, 76
10, 142904, Note_on_c, 12, 66, 0
10, 142920, Note_on_c, 12, 67, 76
10, 142964, Note_on_c, 12, 67, 0
10, 142980, Note_on_c, 12, 64, 76
10, 143024, Note_on_c, 12, 64, 0
10, 143040, Note_on_c, 12, 69, 76
10, 143144, Note_on_c, 12, 69, 0
10, 143160, Note_on_c, 12, 69, 76
10, 143264, Note_on_c, 12, 69, 0
10, 143280, Note_on_c, 12, 69, 76
10, 143384, Note_on_c, 12, 69, 0
10, 143400, Note_on_c, 12, 69, 76
10, 143504, Note_on_c, 12, 69, 0
10, 143520, Note_on_c, 12, 67, 76
10, 143624, Note_on_c, 12, 67, 0
10, 143640, Note_on_c, 12, 69, 76
10, 143684, Note_on_c, 12, 69, 0
10, 143700, Note_on_c, 12, 71, 76
10, 143744, Note_on_c, 12, 71, 0
10, 143760, Note_on_c, 12, 72, 76
10, 143864, Note_on_c, 12, 72, 0
10, 143880, Note_on_c, 12, 69, 76
10, 143984, Note_on_c, 12, 69, 0
10, 144000, Note_on_c, 12, 66, 76
10, 144104, Note_on_c, 12, 66, 0
10, 144120, Note_on_c, 12, 71, 76
10, 144224, Note_on_c, 12, 71, 0
10, 144240, Note_on_c, 12, 59, 76
10, 144344, Note_on_c, 12, 59, 0
10, 144360, Note_on_c, 12, 69, 76
10, 144464, Note_on_c, 12, 69, 0
10, 144480, Note_on_c, 12, 68, 76
10, 144584, Note_on_c, 12, 68, 0
10, 144600, Note_on_c, 12, 64, 76
10, 144704, Note_on_c, 12, 64, 0
10, 144720, Note_on_c, 12, 69, 76
10, 145124, Note_on_c, 12, 69, 0
10, 145140, Note_on_c, 12, 71, 76
10, 145184, Note_on_c, 12, 71, 0
10, 145200, Note_on_c, 12, 68, 76
10, 145364, Note_on_c, 12, 68, 0
10, 145380, Note_on_c, 12, 69, 76
10, 145424, Note_on_c, 12, 69, 0
10, 145440, Note_on_c, 12, 69, 76
10, 145724, Note_on_c, 12, 69, 0
10, 145740, Note_on_c, 12, 69, 76
10, 145784, Note_on_c, 12, 69, 0
10, 145800, Note_on_c, 12, 71, 76
10, 145844, Note_on_c, 12, 71, 0
10, 145860, Note_on_c, 12, 72, 76
10, 145904, Note_on_c, 12, 72, 0
10, 145920, Note_on_c, 12, 74, 76
10, 145964, Note_on_c, 12, 74, 0
10, 145980, Note_on_c, 12, 76, 76
10, 146024, Note_on_c, 12, 76, 0
10, 146040, Note_on_c, 12, 74, 76
10, 146084, Note_on_c, 12, 74, 0
10, 146100, Note_on_c, 12, 72, 76
10, 146144, Note_on_c, 12, 72, 0
10, 146160, Note_on_c, 12, 71, 76
10, 146204, Note_on_c, 12, 71, 0
10, 146220, Note_on_c, 12, 69, 76
10, 146264, Note_on_c, 12, 69, 0
10, 146280, Note_on_c, 12, 68, 76
10, 146324, Note_on_c, 12, 68, 0
10, 146340, Note_on_c, 12, 71, 76
10, 146384, Note_on_c, 12, 71, 0
10, 146400, Note_on_c, 12, 69, 76
10, 146444, Note_on_c, 12, 69, 0
10, 146460, Note_on_c, 12, 71, 76
10, 146504, Note_on_c, 12, 71, 0
10, 146520, Note_on_c, 12, 72, 76
10, 146564, Note_on_c, 12, 72, 0
10, 146580, Note_on_c, 12, 74, 76
10, 146624, Note_on_c, 12, 74, 0
10, 146640, Note_on_c, 12, 76, 76
10, 146684, Note_on_c, 12, 76, 0
10, 146700, Note_on_c, 12, 78, 76
10, 146744, Note_on_c, 12, 78, 0
10, 146760, Note_on_c, 12, 80, 76
10, 146804, Note_on_c, 12, 80, 0
10, 146820, Note_on_c, 12, 76, 76
10, 146864, Note_on_c, 12, 76, 0
10, 146880, Note_on_c, 12, 81, 76
10, 146984, Note_on_c, 12, 81, 0
10, 147000, Note_on_c, 12, 69, 76
10, 147104, Note_on_c, 12, 69, 0
10, 147120, Note_on_c, 12, 74, 76
10, 147464, Note_on_c, 12, 74, 0
10, 147480, Note_on_c, 12, 72, 76
10, 147524, Note_on_c, 12, 72, 0
10, 147540, Note_on_c, 12, 71, 76
10, 147584, Note_on_c, 12, 71, 0
10, 147600, Note_on_c, 12, 76, 76
10, 147704, Note_on_c, 12, 76, 0
10, 147720, Note_on_c, 12, 68, 76
10, 147824, Note_on_c, 12, 68, 0
10, 147840, Note_on_c, 12, 69, 76
10, 148004, Note_on_c, 12, 69, 0
10, 148020, Note_on_c, 12, 71, 76
10, 148064, Note_on_c, 12, 71, 0
10, 148080, Note_on_c, 12, 68, 76
10, 148244, Note_on_c, 12, 68, 0
10, 148260, Note_on_c, 12, 69, 76
10, 148304, Note_on_c, 12, 69, 0
10, 148320, Note_on_c, 12, 69, 76
10, 148424, Note_on_c, 12, 69, 0
10, 148440, Note_on_c, 12, 69, 76
10, 148544, Note_on_c, 12, 69, 0
10, 148560, Note_on_c, 12, 69, 76
10, 148664, Note_on_c, 12, 69, 0
10, 148680, Note_on_c, 12, 69, 76
10, 148784, Note_on_c, 12, 69, 0
10, 148800, Note_on_c, 12, 67, 76
10, 148904, Note_on_c, 12, 67, 0
10, 148920, Note_on_c, 12, 69, 76
10, 148964, Note_on_c, 12, 69, 0
10, 148980, Note_on_c, 12, 71, 76
10, 149024, Note_on_c, 12, 71, 0
10, 149040, Note_on_c, 12, 72, 76
10, 149144, Note_on_c, 12, 72, 0
10, 149160, Note_on_c, 12, 69, 76
10, 149264, Note_on_c, 12, 69, 0
10, 149280, Note_on_c, 12, 66, 76
10, 149384, Note_on_c, 12, 66, 0
10, 149400, Note_on_c, 12, 71, 76
10, 149504, Note_on_c, 12, 71, 0
10, 149520, Note_on_c, 12, 59, 76
10, 149624, Note_on_c, 12, 59, 0
10, 149640, Note_on_c, 12, 71, 76
10, 149744, Note_on_c, 12, 71, 0
10, 149760, Note_on_c, 12, 64, 76
10, 149864, Note_on_c, 12, 64, 0
10, 149880, Note_on_c, 12, 71, 76
10, 149984, Note_on_c, 12, 71, 0
10, 150000, Note_on_c, 12, 71, 76
10, 150104, Note_on_c, 12, 71, 0
10, 150120, Note_on_c, 12, 71, 76
10, 150224, Note_on_c, 12, 71, 0
10, 150240, Note_on_c, 12, 69, 76
10, 150344, Note_on_c, 12, 69, 0
10, 150360, Note_on_c, 12, 69, 76
10, 150464, Note_on_c, 12, 69, 0
10, 150480, Note_on_c, 12, 69, 76
10, 150584, Note_on_c, 12, 69, 0
10, 150600, Note_on_c, 12, 69, 76
10, 150704, Note_on_c, 12, 69, 0
10, 150720, Note_on_c, 12, 65, 76
10, 150824, Note_on_c, 12, 65, 0
10, 150840, Note_on_c, 12, 67, 76
10, 150884, Note_on_c, 12, 67, 0
10, 150900, Note_on_c, 12, 69, 76
10, 150944, Note_on_c, 12, 69, 0
10, 150960, Note_on_c, 12, 70, 76
10, 151064, Note_on_c, 12, 70, 0
10, 151080, Note_on_c, 12, 67, 76
10, 151184, Note_on_c, 12, 67, 0
10, 151200, Note_on_c, 12, 64, 76
10, 151304, Note_on_c, 12, 64, 0
10, 151320, Note_on_c, 12, 69, 76
10, 151424, Note_on_c, 12, 69, 0
10, 151440, Note_on_c, 12, 57, 76
10, 151544, Note_on_c, 12, 57, 0
10, 151560, Note_on_c, 12, 69, 76
10, 151664, Note_on_c, 12, 69, 0
10, 151680, Note_on_c, 12, 62, 76
10, 151784, Note_on_c, 12, 62, 0
10, 151800, Note_on_c, 12, 69, 76
10, 151904, Note_on_c, 12, 69, 0
10, 151920, Note_on_c, 12, 69, 76
10, 152024, Note_on_c, 12, 69, 0
10, 152040, Note_on_c, 12, 69, 76
10, 152144, Note_on_c, 12, 69, 0
10, 152160, Note_on_c, 12, 67, 76
10, 152264, Note_on_c, 12, 67, 0
10, 152280, Note_on_c, 12, 67, 76
10, 152384, Note_on_c, 12, 67, 0
10, 152400, Note_on_c, 12, 67, 76
10, 152504, Note_on_c, 12, 67, 0
10, 152520, Note_on_c, 12, 67, 76
10, 152624, Note_on_c, 12, 67, 0
10, 152640, Note_on_c, 12, 64, 76
10, 152744, Note_on_c, 12, 64, 0
10, 152760, Note_on_c, 12, 65, 76
10, 152804, Note_on_c, 12, 65, 0
10, 152820, Note_on_c, 12, 67, 76
10, 152864, Note_on_c, 12, 67, 0
10, 152880, Note_on_c, 12, 69, 76
10, 152984, Note_on_c, 12, 69, 0
10, 153000, Note_on_c, 12, 65, 76
10, 153104, Note_on_c, 12, 65, 0
10, 153120, Note_on_c, 12, 62, 76
10, 153224, Note_on_c, 12, 62, 0
10, 153240, Note_on_c, 12, 67, 76
10, 153344, Note_on_c, 12, 67, 0
10, 153360, Note_on_c, 12, 55, 76
10, 153464, Note_on_c, 12, 55, 0
10, 153480, Note_on_c, 12, 67, 76
10, 153584, Note_on_c, 12, 67, 0
10, 153600, Note_on_c, 12, 60, 76
10, 153704, Note_on_c, 12, 60, 0
10, 153720, Note_on_c, 12, 72, 76
10, 153824, Note_on_c, 12, 72, 0
10, 153840, Note_on_c, 12, 72, 76
10, 153944, Note_on_c, 12, 72, 0
10, 153960, Note_on_c, 12, 72, 76
10, 154064, Note_on_c, 12, 72, 0
10, 154080, Note_on_c, 12, 71, 76
10, 154184, Note_on_c, 12, 71, 0
10, 154200, Note_on_c, 12, 72, 76
10, 154244, Note_on_c, 12, 72, 0
10, 154260, Note_on_c, 12, 74, 76
10, 154304, Note_on_c, 12, 74, 0
10, 154320, Note_on_c, 12, 76, 76
10, 154424, Note_on_c, 12, 76, 0
10, 154440, Note_on_c, 12, 72, 76
10, 154544, Note_on_c, 12, 72, 0
10, 154560, Note_on_c, 12, 69, 76
10, 154664, Note_on_c, 12, 69, 0
10, 154680, Note_on_c, 12, 74, 76
10, 154784, Note_on_c, 12, 74, 0
10, 154800, Note_on_c, 12, 62, 76
10, 154904, Note_on_c, 12, 62, 0
10, 154920, Note_on_c, 12, 74, 76
10, 155084, Note_on_c, 12, 74, 0
10, 155100, Note_on_c, 12, 62, 76
10, 155144, Note_on_c, 12, 62, 0
10, 155160, Note_on_c, 12, 64, 76
10, 155204, Note_on_c, 12, 64, 0
10, 155220, Note_on_c, 12, 66, 76
10, 155264, Note_on_c, 12, 66, 0
10, 155280, Note_on_c, 12, 67, 76
10, 155324, Note_on_c, 12, 67, 0
10, 155340, Note_on_c, 12, 71, 76
10, 155384, Note_on_c, 12, 71, 0
10, 155400, Note_on_c, 12, 69, 76
10, 155444, Note_on_c, 12, 69, 0
10, 155460, Note_on_c, 12, 71, 76
10, 155504, Note_on_c, 12, 71, 0
10, 155520, Note_on_c, 12, 72, 76
10, 155564, Note_on_c, 12, 72, 0
10, 155580, Note_on_c, 12, 71, 76
10, 155624, Note_on_c, 12, 71, 0
10, 155640, Note_on_c, 12, 69, 76
10, 155684, Note_on_c, 12, 69, 0
10, 155700, Note_on_c, 12, 67, 76
10, 155744, Note_on_c, 12, 67, 0
10, 155760, Note_on_c, 12, 66, 76
10, 155864, Note_on_c, 12, 66, 0
10, 155880, Note_on_c, 12, 67, 76
10, 155924, Note_on_c, 12, 67, 0
10, 155940, Note_on_c, 12, 69, 76
10, 155984, Note_on_c, 12, 69, 0
10, 156000, Note_on_c, 12, 71, 76
10, 156044, Note_on_c, 12, 71, 0
10, 156060, Note_on_c, 12, 67, 76
10, 156104, Note_on_c, 12, 67, 0
10, 156120, Note_on_c, 12, 66, 76
10, 156164, Note_on_c, 12, 66, 0
10, 156180, Note_on_c, 12, 67, 76
10, 156224, Note_on_c, 12, 67, 0
10, 156240, Note_on_c, 12, 69, 76
10, 156284, Note_on_c, 12, 69, 0
10, 156300, Note_on_c, 12, 67, 76
10, 156344, Note_on_c, 12, 67, 0
10, 156360, Note_on_c, 12, 66, 76
10, 156404, Note_on_c, 12, 66, 0
10, 156420, Note_on_c, 12, 64, 76
10, 156464, Note_on_c, 12, 64, 0
10, 156480, Note_on_c, 12, 62, 76
10, 156719, Note_on_c, 12, 62, 0
10, 156780, Note_on_c, 12, 71, 76
10, 156824, Note_on_c, 12, 71, 0
10, 156840, Note_on_c, 12, 69, 76
10, 156884, Note_on_c, 12, 69, 0
10, 156900, Note_on_c, 12, 67, 76
10, 156944, Note_on_c, 12, 67, 0
10, 156960, Note_on_c, 12, 72, 76
10, 157124, Note_on_c, 12, 72, 0
10, 157140, Note_on_c, 12, 72, 76
10, 157184, Note_on_c, 12, 72, 0
10, 157200, Note_on_c, 12, 72, 76
10, 157244, Note_on_c, 12, 72, 0
10, 157260, Note_on_c, 12, 76, 76
10, 157304, Note_on_c, 12, 76, 0
10, 157320, Note_on_c, 12, 74, 76
10, 157364, Note_on_c, 12, 74, 0
10, 157380, Note_on_c, 12, 72, 76
10, 157424, Note_on_c, 12, 72, 0
10, 157440, Note_on_c, 12, 71, 76
10, 157724, Note_on_c, 12, 71, 0
10, 157740, Note_on_c, 12, 74, 76
10, 157784, Note_on_c, 12, 74, 0
10, 157800, Note_on_c, 12, 72, 76
10, 157844, Note_on_c, 12, 72, 0
10, 157860, Note_on_c, 12, 71, 76
10, 157904, Note_on_c, 12, 71, 0
10, 157920, Note_on_c, 12, 69, 76
10, 158084, Note_on_c, 12, 69, 0
10, 158100, Note_on_c, 12, 69, 76
10, 158144, Note_on_c, 12, 69, 0
10, 158160, Note_on_c, 12, 69, 76
10, 158204, Note_on_c, 12, 69, 0
10, 158220, Note_on_c, 12, 72, 76
10, 158264, Note_on_c, 12, 72, 0
10, 158280, Note_on_c, 12, 71, 76
10, 158324, Note_on_c, 12, 71, 0
10, 158340, Note_on_c, 12, 69, 76
10, 158384, Note_on_c, 12, 69, 0
10, 158400, Note_on_c, 12, 67, 76
10, 158684, Note_on_c, 12, 67, 0
10, 158700, Note_on_c, 12, 71, 76
10, 158744, Note_on_c, 12, 71, 0
10, 158760, Note_on_c, 12, 69, 76
10, 158804, Note_on_c, 12, 69, 0
10, 158820, Note_on_c, 12, 67, 76
10, 158864, Note_on_c, 12, 67, 0
10, 158880, Note_on_c, 12, 66, 76
10, 158984, Note_on_c, 12, 66, 0
10, 159000, Note_on_c, 12, 69, 76
10, 159104, Note_on_c, 12, 69, 0
10, 159120, Note_on_c, 12, 66, 76
10, 159224, Note_on_c, 12, 66, 0
10, 159240, Note_on_c, 12, 62, 76
10, 159344, Note_on_c, 12, 62, 0
10, 159360, Note_on_c, 12, 67, 76
10, 159599, Note_on_c, 12, 67, 0
10, 159660, Note_on_c, 12, 67, 76
10, 159704, Note_on_c, 12, 67, 0
10, 159720, Note_on_c, 12, 69, 76
10, 159764, Note_on_c, 12, 69, 0
10, 159780, Note_on_c, 12, 71, 76
10, 159824, Note_on_c, 12, 71, 0
10, 159840, Note_on_c, 12, 72, 76
10, 159884, Note_on_c, 12, 72, 0
10, 159900, Note_on_c, 12, 69, 76
10, 159944, Note_on_c, 12, 69, 0
10, 159960, Note_on_c, 12, 71, 76
10, 160004, Note_on_c, 12, 71, 0
10, 160020, Note_on_c, 12, 72, 76
10, 160064, Note_on_c, 12, 72, 0
10, 160080, Note_on_c, 12, 74, 76
10, 160244, Note_on_c, 12, 74, 0
10, 160260, Note_on_c, 12, 74, 76
10, 160304, Note_on_c, 12, 74, 0
10, 160320, Note_on_c, 12, 74, 76
10, 160364, Note_on_c, 12, 74, 0
10, 160380, Note_on_c, 12, 72, 76
10, 160424, Note_on_c, 12, 72, 0
10, 160440, Note_on_c, 12, 71, 76
10, 160484, Note_on_c, 12, 71, 0
10, 160500, Note_on_c, 12, 72, 76
10, 160544, Note_on_c, 12, 72, 0
10, 160560, Note_on_c, 12, 69, 76
10, 160724, Note_on_c, 12, 69, 0
10, 160740, Note_on_c, 12, 71, 76
10, 160784, Note_on_c, 12, 71, 0
10, 160800, Note_on_c, 12, 71, 76
10, 161039, Note_on_c, 12, 71, 0
10, 165240, Note_on_c, 12, 71, 76
10, 165344, Note_on_c, 12, 71, 0
10, 165360, Note_on_c, 12, 71, 76
10, 165464, Note_on_c, 12, 71, 0
10, 165480, Note_on_c, 12, 71, 76
10, 165584, Note_on_c, 12, 71, 0
10, 165600, Note_on_c, 12, 67, 76
10, 165704, Note_on_c, 12, 67, 0
10, 165720, Note_on_c, 12, 69, 76
10, 165764, Note_on_c, 12, 69, 0
10, 165780, Note_on_c, 12, 71, 76
10, 165824, Note_on_c, 12, 71, 0
10, 165840, Note_on_c, 12, 72, 76
10, 165944, Note_on_c, 12, 72, 0
10, 165960, Note_on_c, 12, 69, 76
10, 166064, Note_on_c, 12, 69, 0
10, 166080, Note_on_c, 12, 66, 76
10, 166184, Note_on_c, 12, 66, 0
10, 166200, Note_on_c, 12, 71, 76
10, 166304, Note_on_c, 12, 71, 0
10, 166320, Note_on_c, 12, 59, 76
10, 166424, Note_on_c, 12, 59, 0
10, 166440, Note_on_c, 12, 69, 76
10, 166544, Note_on_c, 12, 69, 0
10, 166560, Note_on_c, 12, 67, 76
10, 166799, Note_on_c, 12, 67, 0
10, 169500, Note_on_c, 12, 72, 76
10, 169544, Note_on_c, 12, 72, 0
10, 169560, Note_on_c, 12, 71, 76
10, 169604, Note_on_c, 12, 71, 0
10, 169620, Note_on_c, 12, 69, 76
10, 169664, Note_on_c, 12, 69, 0
10, 169680, Note_on_c, 12, 67, 76
10, 169724, Note_on_c, 12, 67, 0
10, 169740, Note_on_c, 12, 66, 76
10, 169784, Note_on_c, 12, 66, 0
10, 169800, Note_on_c, 12, 67, 76
10, 169844, Note_on_c, 12, 67, 0
10, 169860, Note_on_c, 12, 64, 76
10, 169904, Note_on_c, 12, 64, 0
10, 169920, Note_on_c, 12, 72, 76
10, 169964, Note_on_c, 12, 72, 0
10, 169980, Note_on_c, 12, 71, 76
10, 170024, Note_on_c, 12, 71, 0
10, 170040, Note_on_c, 12, 69, 76
10, 170084, Note_on_c, 12, 69, 0
10, 170100, Note_on_c, 12, 67, 76
10, 170144, Note_on_c, 12, 67, 0
10, 170160, Note_on_c, 12, 66, 76
10, 170264, Note_on_c, 12, 66, 0
10, 170280, Note_on_c, 12, 71, 76
10, 170384, Note_on_c, 12, 71, 0
10, 170400, Note_on_c, 12, 64, 76
10, 170639, Note_on_c, 12, 64, 0
10, 171480, Note_on_c, 12, 76, 76
10, 171584, Note_on_c, 12, 76, 0
10, 171600, Note_on_c, 12, 76, 76
10, 171704, Note_on_c, 12, 76, 0
10, 171720, Note_on_c, 12, 76, 76
10, 171824, Note_on_c, 12, 76, 0
10, 171840, Note_on_c, 12, 72, 76
10, 171944, Note_on_c, 12, 72, 0
10, 171960, Note_on_c, 12, 74, 76
10, 172004, Note_on_c, 12, 74, 0
10, 172020, Note_on_c, 12, 76, 76
10, 172064, Note_on_c, 12, 76, 0
10, 172080, Note_on_c, 12, 77, 76
10, 172184, Note_on_c, 12, 77, 0
10, 172200, Note_on_c, 12, 74, 76
10, 172304, Note_on_c, 12, 74, 0
10, 172320, Note_on_c, 12, 71, 76
10, 172424, Note_on_c, 12, 71, 0
10, 172440, Note_on_c, 12, 74, 76
10, 172544, Note_on_c, 12, 74, 0
10, 172560, Note_on_c, 12, 64, 76
10, 172664, Note_on_c, 12, 64, 0
10, 172680, Note_on_c, 12, 74, 76
10, 172784, Note_on_c, 12, 74, 0
10, 172800, Note_on_c, 12, 72, 76
10, 172904, Note_on_c, 12, 72, 0
10, 172920, Note_on_c, 12, 76, 76
10, 173024, Note_on_c, 12, 76, 0
10, 173040, Note_on_c, 12, 76, 76
10, 173144, Note_on_c, 12, 76, 0
10, 173160, Note_on_c, 12, 76, 76
10, 173264, Note_on_c, 12, 76, 0
10, 173280, Note_on_c, 12, 74, 76
10, 173384, Note_on_c, 12, 74, 0
10, 173400, Note_on_c, 12, 74, 76
10, 173504, Note_on_c, 12, 74, 0
10, 173520, Note_on_c, 12, 74, 76
10, 173624, Note_on_c, 12, 74, 0
10, 173640, Note_on_c, 12, 74, 76
10, 173744, Note_on_c, 12, 74, 0
10, 173760, Note_on_c, 12, 70, 76
10, 173864, Note_on_c, 12, 70, 0
10, 173880, Note_on_c, 12, 72, 76
10, 173924, Note_on_c, 12, 72, 0
10, 173940, Note_on_c, 12, 74, 76
10, 173984, Note_on_c, 12, 74, 0
10, 174000, Note_on_c, 12, 75, 76
10, 174104, Note_on_c, 12, 75, 0
10, 174120, Note_on_c, 12, 72, 76
10, 174224, Note_on_c, 12, 72, 0
10, 174240, Note_on_c, 12, 69, 76
10, 174344, Note_on_c, 12, 69, 0
10, 174360, Note_on_c, 12, 72, 76
10, 174464, Note_on_c, 12, 72, 0
10, 174480, Note_on_c, 12, 62, 76
10, 174584, Note_on_c, 12, 62, 0
10, 174600, Note_on_c, 12, 72, 76
10, 174704, Note_on_c, 12, 72, 0
10, 174720, Note_on_c, 12, 70, 76
10, 174824, Note_on_c, 12, 70, 0
10, 174840, Note_on_c, 12, 74, 76
10, 174944, Note_on_c, 12, 74, 0
10, 174960, Note_on_c, 12, 74, 76
10, 175064, Note_on_c, 12, 74, 0
10, 175080, Note_on_c, 12, 74, 76
10, 175184, Note_on_c, 12, 74, 0
10, 175200, Note_on_c, 12, 72, 76
10, 175304, Note_on_c, 12, 72, 0
10, 175320, Note_on_c, 12, 72, 76
10, 175424, Note_on_c, 12, 72, 0
10, 175440, Note_on_c, 12, 72, 76
10, 175544, Note_on_c, 12, 72, 0
10, 175560, Note_on_c, 12, 72, 76
10, 175664, Note_on_c, 12, 72, 0
10, 175680, Note_on_c, 12, 69, 76
10, 175784, Note_on_c, 12, 69, 0
10, 175800, Note_on_c, 12, 70, 76
10, 175844, Note_on_c, 12, 70, 0
10, 175860, Note_on_c, 12, 72, 76
10, 175904, Note_on_c, 12, 72, 0
10, 175920, Note_on_c, 12, 74, 76
10, 176024, Note_on_c, 12, 74, 0
10, 176040, Note_on_c, 12, 70, 76
10, 176144, Note_on_c, 12, 70, 0
10, 176160, Note_on_c, 12, 67, 76
10, 176264, Note_on_c, 12, 67, 0
10, 176280, Note_on_c, 12, 70, 76
10, 176384, Note_on_c, 12, 70, 0
10, 176400, Note_on_c, 12, 60, 76
10, 176504, Note_on_c, 12, 60, 0
10, 176520, Note_on_c, 12, 70, 76
10, 176624, Note_on_c, 12, 70, 0
10, 176640, Note_on_c, 12, 69, 76
10, 176744, Note_on_c, 12, 69, 0
10, 176760, Note_on_c, 12, 77, 76
10, 176864, Note_on_c, 12, 77, 0
10, 176880, Note_on_c, 12, 77, 76
10, 176984, Note_on_c, 12, 77, 0
10, 177000, Note_on_c, 12, 77, 76
10, 177104, Note_on_c, 12, 77, 0
10, 177120, Note_on_c, 12, 76, 76
10, 177224, Note_on_c, 12, 76, 0
10, 177240, Note_on_c, 12, 77, 76
10, 177284, Note_on_c, 12, 77, 0
10, 177300, Note_on_c, 12, 79, 76
10, 177344, Note_on_c, 12, 79, 0
10, 177360, Note_on_c, 12, 81, 76
10, 177464, Note_on_c, 12, 81, 0
10, 177480, Note_on_c, 12, 77, 76
10, 177584, Note_on_c, 12, 77, 0
10, 177600, Note_on_c, 12, 74, 76
10, 177704, Note_on_c, 12, 74, 0
10, 177720, Note_on_c, 12, 79, 76
10, 177824, Note_on_c, 12, 79, 0
10, 177840, Note_on_c, 12, 67, 76
10, 177944, Note_on_c, 12, 67, 0
10, 177960, Note_on_c, 12, 79, 76
10, 178124, Note_on_c, 12, 79, 0
10, 178140, Note_on_c, 12, 67, 76
10, 178184, Note_on_c, 12, 67, 0
10, 178200, Note_on_c, 12, 69, 76
10, 178244, Note_on_c, 12, 69, 0
10, 178260, Note_on_c, 12, 71, 76
10, 178304, Note_on_c, 12, 71, 0
10, 178320, Note_on_c, 12, 72, 76
10, 178364, Note_on_c, 12, 72, 0
10, 178380, Note_on_c, 12, 76, 76
10, 178424, Note_on_c, 12, 76, 0
10, 178440, Note_on_c, 12, 74, 76
10, 178484, Note_on_c, 12, 74, 0
10, 178500, Note_on_c, 12, 76, 76
10, 178544, Note_on_c, 12, 76, 0
10, 178560, Note_on_c, 12, 77, 76
10, 178604, Note_on_c, 12, 77, 0
10, 178620, Note_on_c, 12, 76, 76
10, 178664, Note_on_c, 12, 76, 0
10, 178680, Note_on_c, 12, 74, 76
10, 178724, Note_on_c, 12, 74, 0
10, 178740, Note_on_c, 12, 72, 76
10, 178784, Note_on_c, 12, 72, 0
10, 178800, Note_on_c, 12, 71, 76
10, 178904, Note_on_c, 12, 71, 0
10, 178920, Note_on_c, 12, 72, 76
10, 178964, Note_on_c, 12, 72, 0
10, 178980, Note_on_c, 12, 74, 76
10, 179024, Note_on_c, 12, 74, 0
10, 179040, Note_on_c, 12, 76, 76
10, 179084, Note_on_c, 12, 76, 0
10, 179100, Note_on_c, 12, 72, 76
10, 179144, Note_on_c, 12, 72, 0
10, 179160, Note_on_c, 12, 71, 76
10, 179204, Note_on_c, 12, 71, 0
10, 179220, Note_on_c, 12, 72, 76
10, 179264, Note_on_c, 12, 72, 0
10, 179280, Note_on_c, 12, 74, 76
10, 179324, Note_on_c, 12, 74, 0
10, 179340, Note_on_c, 12, 72, 76
10, 179384, Note_on_c, 12, 72, 0
10, 179400, Note_on_c, 12, 71, 76
10, 179444, Note_on_c, 12, 71, 0
10, 179460, Note_on_c, 12, 69, 76
10, 179504, Note_on_c, 12, 69, 0
10, 179520, Note_on_c, 12, 67, 76
10, 179624, Note_on_c, 12, 67, 0
10, 179640, Note_on_c, 12, 71, 76
10, 179744, Note_on_c, 12, 71, 0
10, 179760, Note_on_c, 12, 72, 76
10, 179804, Note_on_c, 12, 72, 0
10, 179820, Note_on_c, 12, 74, 76
10, 179864, Note_on_c, 12, 74, 0
10, 179880, Note_on_c, 12, 76, 76
10, 179924, Note_on_c, 12, 76, 0
10, 179940, Note_on_c, 12, 72, 76
10, 179984, Note_on_c, 12, 72, 0
10, 180000, Note_on_c, 12, 69, 76
10, 180284, Note_on_c, 12, 69, 0
10, 180300, Note_on_c, 12, 67, 76
10, 180344, Note_on_c, 12, 67, 0
10, 180360, Note_on_c, 12, 69, 76
10, 180404, Note_on_c, 12, 69, 0
10, 180420, Note_on_c, 12, 65, 76
10, 180464, Note_on_c, 12, 65, 0
10, 180480, Note_on_c, 12, 67, 76
10, 180764, Note_on_c, 12, 67, 0
10, 180780, Note_on_c, 12, 64, 76
10, 180824, Note_on_c, 12, 64, 0
10, 180840, Note_on_c, 12, 65, 76
10, 180884, Note_on_c, 12, 65, 0
10, 180900, Note_on_c, 12, 67, 76
10, 180944, Note_on_c, 12, 67, 0
10, 180960, Note_on_c, 12, 69, 76
10, 181064, Note_on_c, 12, 69, 0
10, 181080, Note_on_c, 12, 71, 76
10, 181124, Note_on_c, 12, 71, 0
10, 181140, Note_on_c, 12, 72, 76
10, 181184, Note_on_c, 12, 72, 0
10, 181200, Note_on_c, 12, 71, 76
10, 181304, Note_on_c, 12, 71, 0
10, 181320, Note_on_c, 12, 74, 76
10, 181424, Note_on_c, 12, 74, 0
10, 181440, Note_on_c, 12, 67, 76
10, 181544, Note_on_c, 12, 67, 0
10, 181560, Note_on_c, 12, 72, 76
10, 181604, Note_on_c, 12, 72, 0
10, 181620, Note_on_c, 12, 74, 76
10, 181664, Note_on_c, 12, 74, 0
10, 181680, Note_on_c, 12, 76, 76
10, 181724, Note_on_c, 12, 76, 0
10, 181740, Note_on_c, 12, 77, 76
10, 181784, Note_on_c, 12, 77, 0
10, 181800, Note_on_c, 12, 74, 76
10, 181844, Note_on_c, 12, 74, 0
10, 181860, Note_on_c, 12, 76, 76
10, 181904, Note_on_c, 12, 76, 0
10, 181920, Note_on_c, 12, 77, 76
10, 182084, Note_on_c, 12, 77, 0
10, 182100, Note_on_c, 12, 76, 76
10, 182144, Note_on_c, 12, 76, 0
10, 182160, Note_on_c, 12, 74, 76
10, 182204, Note_on_c, 12, 74, 0
10, 182220, Note_on_c, 12, 72, 76
10, 182264, Note_on_c, 12, 72, 0
10, 182280, Note_on_c, 12, 71, 76
10, 182324, Note_on_c, 12, 71, 0
10, 182340, Note_on_c, 12, 69, 76
10, 182384, Note_on_c, 12, 69, 0
10, 182400, Note_on_c, 12, 67, 76
10, 182519, Note_on_c, 12, 67, 0
10, 183960, Note_on_c, 12, 72, 76
10, 184064, Note_on_c, 12, 72, 0
10, 184080, Note_on_c, 12, 72, 76
10, 184184, Note_on_c, 12, 72, 0
10, 184200, Note_on_c, 12, 72, 76
10, 184304, Note_on_c, 12, 72, 0
10, 184320, Note_on_c, 12, 71, 76
10, 184424, Note_on_c, 12, 71, 0
10, 184440, Note_on_c, 12, 72, 76
10, 184484, Note_on_c, 12, 72, 0
10, 184500, Note_on_c, 12, 74, 76
10, 184544, Note_on_c, 12, 74, 0
10, 184560, Note_on_c, 12, 76, 76
10, 184664, Note_on_c, 12, 76, 0
10, 184680, Note_on_c, 12, 72, 76
10, 184784, Note_on_c, 12, 72, 0
10, 184800, Note_on_c, 12, 69, 76
10, 184904, Note_on_c, 12, 69, 0
10, 184920, Note_on_c, 12, 74, 76
10, 185024, Note_on_c, 12, 74, 0
10, 185040, Note_on_c, 12, 62, 76
10, 185144, Note_on_c, 12, 62, 0
10, 185160, Note_on_c, 12, 72, 76
10, 185264, Note_on_c, 12, 72, 0
10, 185280, Note_on_c, 12, 71, 76
10, 185324, Note_on_c, 12, 71, 0
10, 185340, Note_on_c, 12, 69, 76
10, 185384, Note_on_c, 12, 69, 0
10, 185400, Note_on_c, 12, 67, 76
10, 185444, Note_on_c, 12, 67, 0
10, 185460, Note_on_c, 12, 69, 76
10, 185504, Note_on_c, 12, 69, 0
10, 185520, Note_on_c, 12, 71, 76
10, 185564, Note_on_c, 12, 71, 0
10, 185580, Note_on_c, 12, 67, 76
10, 185624, Note_on_c, 12, 67, 0
10, 185640, Note_on_c, 12, 69, 76
10, 185684, Note_on_c, 12, 69, 0
10, 185700, Note_on_c, 12, 71, 76
10, 185744, Note_on_c, 12, 71, 0
10, 185760, Note_on_c, 12, 72, 76
10, 185924, Note_on_c, 12, 72, 0
10, 185940, Note_on_c, 12, 67, 76
10, 185984, Note_on_c, 12, 67, 0
10, 186000, Note_on_c, 12, 72, 76
10, 186164, Note_on_c, 12, 72, 0
10, 186180, Note_on_c, 12, 72, 76
10, 186224, Note_on_c, 12, 72, 0
10, 186240, Note_on_c, 12, 72, 76
10, 186404, Note_on_c, 12, 72, 0
10, 186420, Note_on_c, 12, 71, 76
10, 186439, Note_on_c, 12, 71, 0
10, 186440, Note_on_c, 12, 69, 76
10, 186459, Note_on_c, 12, 69, 0
10, 186460, Note_on_c, 12, 71, 76
10, 186479, Note_on_c, 12, 71, 0
10, 186480, Note_on_c, 12, 71, 76
10, 186509, Note_on_c, 12, 71, 0
10, 186510, Note_on_c, 12, 72, 76
10, 186539, Note_on_c, 12, 72, 0
10, 186540, Note_on_c, 12, 71, 76
10, 186569, Note_on_c, 12, 71, 0
10, 186570, Note_on_c, 12, 72, 76
10, 186599, Note_on_c, 12, 72, 0
10, 186600, Note_on_c, 12, 69, 76
10, 186629, Note_on_c, 12, 69, 0
10, 186630, Note_on_c, 12, 71, 76
10, 186659, Note_on_c, 12, 71, 0
10, 186660, Note_on_c, 12, 72, 76
10, 186704, Note_on_c, 12, 72, 0
10, 186720, Note_on_c, 12, 72, 76
10, 186824, Note_on_c, 12, 72, 0
10, 186840, Note_on_c, 12, 67, 76
10, 186884, Note_on_c, 12, 67, 0
10, 186900, Note_on_c, 12, 65, 76
10, 186944, Note_on_c, 12, 65, 0
10, 186960, Note_on_c, 12, 67, 76
10, 187064, Note_on_c, 12, 67, 0
10, 187080, Note_on_c, 12, 76, 76
10, 187184, Note_on_c, 12, 76, 0
10, 187200, Note_on_c, 12, 74, 76
10, 187244, Note_on_c, 12, 74, 0
10, 187260, Note_on_c, 12, 72, 76
10, 187304, Note_on_c, 12, 72, 0
10, 187320, Note_on_c, 12, 71, 76
10, 187364, Note_on_c, 12, 71, 0
10, 187380, Note_on_c, 12, 69, 76
10, 187424, Note_on_c, 12, 69, 0
10, 187440, Note_on_c, 12, 67, 76
10, 187544, Note_on_c, 12, 67, 0
10, 187560, Note_on_c, 12, 76, 76
10, 187604, Note_on_c, 12, 76, 0
10, 187620, Note_on_c, 12, 74, 76
10, 187664, Note_on_c, 12, 74, 0
10, 187680, Note_on_c, 12, 76, 76
10, 187784, Note_on_c, 12, 76, 0
10, 187800, Note_on_c, 12, 69, 76
10, 187904, Note_on_c, 12, 69, 0
10, 187920, Note_on_c, 12, 74, 76
10, 187964, Note_on_c, 12, 74, 0
10, 187980, Note_on_c, 12, 72, 76
10, 188024, Note_on_c, 12, 72, 0
10, 188040, Note_on_c, 12, 71, 76
10, 188084, Note_on_c, 12, 71, 0
10, 188100, Note_on_c, 12, 72, 76
10, 188144, Note_on_c, 12, 72, 0
10, 188160, Note_on_c, 12, 74, 76
10, 188444, Note_on_c, 12, 74, 0
10, 188460, Note_on_c, 12, 71, 76
10, 188504, Note_on_c, 12, 71, 0
10, 188520, Note_on_c, 12, 72, 76
10, 188564, Note_on_c, 12, 72, 0
10, 188580, Note_on_c, 12, 74, 76
10, 188624, Note_on_c, 12, 74, 0
10, 188640, Note_on_c, 12, 67, 76
10, 188879, Note_on_c, 12, 67, 0
10, 188940, Note_on_c, 12, 76, 76
10, 188984, Note_on_c, 12, 76, 0
10, 189000, Note_on_c, 12, 74, 76
10, 189044, Note_on_c, 12, 74, 0
10, 189060, Note_on_c, 12, 72, 76
10, 189104, Note_on_c, 12, 72, 0
10, 189120, Note_on_c, 12, 77, 76
10, 189284, Note_on_c, 12, 77, 0
10, 189300, Note_on_c, 12, 77, 76
10, 189344, Note_on_c, 12, 77, 0
10, 189360, Note_on_c, 12, 77, 76
10, 189404, Note_on_c, 12, 77, 0
10, 189420, Note_on_c, 12, 81, 76
10, 189464, Note_on_c, 12, 81, 0
10, 189480, Note_on_c, 12, 79, 76
10, 189524, Note_on_c, 12, 79, 0
10, 189540, Note_on_c, 12, 77, 76
10, 189584, Note_on_c, 12, 77, 0
10, 189600, Note_on_c, 12, 76, 76
10, 189884, Note_on_c, 12, 76, 0
10, 189900, Note_on_c, 12, 79, 76
10, 189944, Note_on_c, 12, 79, 0
10, 189960, Note_on_c, 12, 77, 76
10, 190004, Note_on_c, 12, 77, 0
10, 190020, Note_on_c, 12, 76, 76
10, 190064, Note_on_c, 12, 76, 0
10, 190080, Note_on_c, 12, 74, 76
10, 190244, Note_on_c, 12, 74, 0
10, 190260, Note_on_c, 12, 74, 76
10, 190304, Note_on_c, 12, 74, 0
10, 190320, Note_on_c, 12, 74, 76
10, 190364, Note_on_c, 12, 74, 0
10, 190380, Note_on_c, 12, 77, 76
10, 190424, Note_on_c, 12, 77, 0
10, 190440, Note_on_c, 12, 76, 76
10, 190484, Note_on_c, 12, 76, 0
10, 190500, Note_on_c, 12, 74, 76
10, 190544, Note_on_c, 12, 74, 0
10, 190560, Note_on_c, 12, 72, 76
10, 190844, Note_on_c, 12, 72, 0
10, 190860, Note_on_c, 12, 76, 76
10, 190904, Note_on_c, 12, 76, 0
10, 190920, Note_on_c, 12, 74, 76
10, 190964, Note_on_c, 12, 74, 0
10, 190980, Note_on_c, 12, 72, 76
10, 191024, Note_on_c, 12, 72, 0
10, 191040, Note_on_c, 12, 71, 76
10, 191144, Note_on_c, 12, 71, 0
10, 191160, Note_on_c, 12, 74, 76
10, 191264, Note_on_c, 12, 74, 0
10, 191280, Note_on_c, 12, 71, 76
10, 191384, Note_on_c, 12, 71, 0
10, 191400, Note_on_c, 12, 67, 76
10, 191504, Note_on_c, 12, 67, 0
10, 191520, Note_on_c, 12, 72, 76
10, 191759, Note_on_c, 12, 72, 0
10, 191820, Note_on_c, 12, 60, 76
10, 191864, Note_on_c, 12, 60, 0
10, 191880, Note_on_c, 12, 62, 76
10, 191924, Note_on_c, 12, 62, 0
10, 191940, Note_on_c, 12, 64, 76
10, 191984, Note_on_c, 12, 64, 0
10, 192000, Note_on_c, 12, 65, 76
10, 192044, Note_on_c, 12, 65, 0
10, 192060, Note_on_c, 12, 62, 76
10, 192104, Note_on_c, 12, 62, 0
10, 192120, Note_on_c, 12, 64, 76
10, 192164, Note_on_c, 12, 64, 0
10, 192180, Note_on_c, 12, 65, 76
10, 192224, Note_on_c, 12, 65, 0
10, 192240, Note_on_c, 12, 67, 76
10, 192404, Note_on_c, 12, 67, 0
10, 192420, Note_on_c, 12, 67, 76
10, 192464, Note_on_c, 12, 67, 0
10, 192480, Note_on_c, 12, 67, 76
10, 192524, Note_on_c, 12, 67, 0
10, 192540, Note_on_c, 12, 65, 76
10, 192584, Note_on_c, 12, 65, 0
10, 192600, Note_on_c, 12, 64, 76
10, 192644, Note_on_c, 12, 64, 0
10, 192660, Note_on_c, 12, 65, 76
10, 192704, Note_on_c, 12, 65, 0
10, 192720, Note_on_c, 12, 62, 76
10, 192884, Note_on_c, 12, 62, 0
10, 192900, Note_on_c, 12, 64, 76
10, 192944, Note_on_c, 12, 64, 0
10, 192960, Note_on_c, 12, 64, 76
10, 193004, Note_on_c, 12, 64, 0
10, 193020, Note_on_c, 12, 69, 76
10, 193064, Note_on_c, 12, 69, 0
10, 193080, Note_on_c, 12, 67, 76
10, 193124, Note_on_c, 12, 67, 0
10, 193140, Note_on_c, 12, 65, 76
10, 193184, Note_on_c, 12, 65, 0
10, 193200, Note_on_c, 12, 64, 76
10, 193244, Note_on_c, 12, 64, 0
10, 193260, Note_on_c, 12, 62, 76
10, 193304, Note_on_c, 12, 62, 0
10, 193320, Note_on_c, 12, 64, 76
10, 193364, Note_on_c, 12, 64, 0
10, 193380, Note_on_c, 12, 60, 76
10, 193424, Note_on_c, 12, 60, 0
10, 193440, Note_on_c, 12, 67, 76
10, 193559, Note_on_c, 12, 67, 0
10, 194460, Note_on_c, 12, 59, 76
10, 194504, Note_on_c, 12, 59, 0
10, 194520, Note_on_c, 12, 60, 76
10, 194564, Note_on_c, 12, 60, 0
10, 194580, Note_on_c, 12, 62, 76
10, 194624, Note_on_c, 12, 62, 0
10, 194640, Note_on_c, 12, 64, 76
10, 194684, Note_on_c, 12, 64, 0
10, 194700, Note_on_c, 12, 62, 76
10, 194744, Note_on_c, 12, 62, 0
10, 194760, Note_on_c, 12, 64, 76
10, 194804, Note_on_c, 12, 64, 0
10, 194820, Note_on_c, 12, 65, 76
10, 194864, Note_on_c, 12, 65, 0
10, 194880, Note_on_c, 12, 67, 76
10, 194924, Note_on_c, 12, 67, 0
10, 194940, Note_on_c, 12, 70, 76
10, 194984, Note_on_c, 12, 70, 0
10, 195000, Note_on_c, 12, 69, 76
10, 195044, Note_on_c, 12, 69, 0
10, 195060, Note_on_c, 12, 67, 76
10, 195104, Note_on_c, 12, 67, 0
10, 195120, Note_on_c, 12, 65, 76
10, 195164, Note_on_c, 12, 65, 0
10, 195180, Note_on_c, 12, 64, 76
10, 195224, Note_on_c, 12, 64, 0
10, 195240, Note_on_c, 12, 65, 76
10, 195284, Note_on_c, 12, 65, 0
10, 195300, Note_on_c, 12, 62, 76
10, 195344, Note_on_c, 12, 62, 0
10, 195360, Note_on_c, 12, 67, 76
10, 195404, Note_on_c, 12, 67, 0
10, 195420, Note_on_c, 12, 65, 76
10, 195464, Note_on_c, 12, 65, 0
10, 195480, Note_on_c, 12, 67, 76
10, 195524, Note_on_c, 12, 67, 0
10, 195540, Note_on_c, 12, 69, 76
10, 195584, Note_on_c, 12, 69, 0
10, 195600, Note_on_c, 12, 67, 76
10, 195644, Note_on_c, 12, 67, 0
10, 195660, Note_on_c, 12, 65, 76
10, 195704, Note_on_c, 12, 65, 0
10, 195720, Note_on_c, 12, 64, 76
10, 195764, Note_on_c, 12, 64, 0
10, 195780, Note_on_c, 12, 62, 76
10, 195824, Note_on_c, 12, 62, 0
10, 195840, Note_on_c, 12, 60, 76
10, 195944, Note_on_c, 12, 60, 0
10, 195960, Note_on_c, 12, 76, 76
10, 196064, Note_on_c, 12, 76, 0
10, 196080, Note_on_c, 12, 72, 76
10, 196184, Note_on_c, 12, 72, 0
10, 196200, Note_on_c, 12, 69, 76
10, 196424, Note_on_c, 12, 69, 0
10, 196440, Note_on_c, 12, 67, 76
10, 196484, Note_on_c, 12, 67, 0
10, 196500, Note_on_c, 12, 65, 76
10, 196544, Note_on_c, 12, 65, 0
10, 196560, Note_on_c, 12, 64, 76
10, 196664, Note_on_c, 12, 64, 0
10, 196680, Note_on_c, 12, 67, 76
10, 196784, Note_on_c, 12, 67, 0
10, 196800, Note_on_c, 12, 69, 76
10, 197084, Note_on_c, 12, 69, 0
10, 197100, Note_on_c, 12, 69, 76
10, 197144, Note_on_c, 12, 69, 0
10, 197160, Note_on_c, 12, 71, 76
10, 197204, Note_on_c, 12, 71, 0
10, 197220, Note_on_c, 12, 72, 76
10, 197264, Note_on_c, 12, 72, 0
10, 197280, Note_on_c, 12, 74, 76
10, 197324, Note_on_c, 12, 74, 0
10, 197340, Note_on_c, 12, 72, 76
10, 197384, Note_on_c, 12, 72, 0
10, 197400, Note_on_c, 12, 74, 76
10, 197444, Note_on_c, 12, 74, 0
10, 197460, Note_on_c, 12, 71, 76
10, 197504, Note_on_c, 12, 71, 0
10, 197520, Note_on_c, 12, 72, 76
10, 197804, Note_on_c, 12, 72, 0
10, 197820, Note_on_c, 12, 72, 76
10, 197864, Note_on_c, 12, 72, 0
10, 197880, Note_on_c, 12, 70, 76
10, 197924, Note_on_c, 12, 70, 0
10, 197940, Note_on_c, 12, 72, 76
10, 197984, Note_on_c, 12, 72, 0
10, 198000, Note_on_c, 12, 74, 76
10, 198284, Note_on_c, 12, 74, 0
10, 198300, Note_on_c, 12, 76, 76
10, 198344, Note_on_c, 12, 76, 0
10, 198360, Note_on_c, 12, 74, 76
10, 198404, Note_on_c, 12, 74, 0
10, 198420, Note_on_c, 12, 76, 76
10, 198464, Note_on_c, 12, 76, 0
10, 198480, Note_on_c, 12, 72, 76
10, 198824, Note_on_c, 12, 72, 0
10, 198840, Note_on_c, 12, 71, 76
10, 198884, Note_on_c, 12, 71, 0
10, 198900, Note_on_c, 12, 69, 76
10, 198944, Note_on_c, 12, 69, 0
10, 198960, Note_on_c, 12, 67, 76
10, 199064, Note_on_c, 12, 67, 0
10, 199080, Note_on_c, 12, 71, 76
10, 199184, Note_on_c, 12, 71, 0
10, 199200, Note_on_c, 12, 72, 76
10, 199364, Note_on_c, 12, 72, 0
10, 199380, Note_on_c, 12, 74, 76
10, 199424, Note_on_c, 12, 74, 0
10, 199440, Note_on_c, 12, 72, 76
10, 199484, Note_on_c, 12, 72, 0
10, 199500, Note_on_c, 12, 71, 76
10, 199544, Note_on_c, 12, 71, 0
10, 199560, Note_on_c, 12, 69, 76
10, 199604, Note_on_c, 12, 69, 0
10, 199620, Note_on_c, 12, 67, 76
10, 199664, Note_on_c, 12, 67, 0
10, 199680, Note_on_c, 12, 65, 76
10, 199844, Note_on_c, 12, 65, 0
10, 199860, Note_on_c, 12, 72, 76
10, 199904, Note_on_c, 12, 72, 0
10, 199920, Note_on_c, 12, 71, 76
10, 199964, Note_on_c, 12, 71, 0
10, 199980, Note_on_c, 12, 69, 76
10, 200024, Note_on_c, 12, 69, 0
10, 200040, Note_on_c, 12, 67, 76
10, 200084, Note_on_c, 12, 67, 0
10, 200100, Note_on_c, 12, 65, 76
10, 200144, Note_on_c, 12, 65, 0
10, 200160, Note_on_c, 12, 64, 76
10, 200324, Note_on_c, 12, 64, 0
10, 200340, Note_on_c, 12, 71, 76
10, 200384, Note_on_c, 12, 71, 0
10, 200400, Note_on_c, 12, 69, 76
10, 200444, Note_on_c, 12, 69, 0
10, 200460, Note_on_c, 12, 67, 76
10, 200504, Note_on_c, 12, 67, 0
10, 200520, Note_on_c, 12, 65, 76
10, 200564, Note_on_c, 12, 65, 0
10, 200580, Note_on_c, 12, 64, 76
10, 200624, Note_on_c, 12, 64, 0
10, 200640, Note_on_c, 12, 62, 76
10, 200804, Note_on_c, 12, 62, 0
10, 200820, Note_on_c, 12, 69, 76
10, 200864, Note_on_c, 12, 69, 0
10, 200880, Note_on_c, 12, 67, 76
10, 200924, Note_on_c, 12, 67, 0
10, 200940, Note_on_c, 12, 65, 76
10, 200984, Note_on_c, 12, 65, 0
10, 201000, Note_on_c, 12, 64, 76
10, 201044, Note_on_c, 12, 64, 0
10, 201060, Note_on_c, 12, 62, 76
10, 201104, Note_on_c, 12, 62, 0
10, 201120, Note_on_c, 12, 60, 76
10, 201284, Note_on_c, 12, 60, 0
10, 201300, Note_on_c, 12, 67, 76
10, 201344, Note_on_c, 12, 67, 0
10, 201360, Note_on_c, 12, 65, 76
10, 201404, Note_on_c, 12, 65, 0
10, 201420, Note_on_c, 12, 64, 76
10, 201464, Note_on_c, 12, 64, 0
10, 201480, Note_on_c, 12, 62, 76
10, 201524, Note_on_c, 12, 62, 0
10, 201540, Note_on_c, 12, 60, 76
10, 201584, Note_on_c, 12, 60, 0
10, 201600, Note_on_c, 12, 67, 76
10, 201704, Note_on_c, 12, 67, 0
10, 201720, Note_on_c, 12, 71, 76
10, 201824, Note_on_c, 12, 71, 0
10, 201840, Note_on_c, 12, 67, 76
10, 201884, Note_on_c, 12, 67, 0
10, 201900, Note_on_c, 12, 69, 76
10, 201944, Note_on_c, 12, 69, 0
10, 201960, Note_on_c, 12, 71, 76
10, 202004, Note_on_c, 12, 71, 0
10, 202020, Note_on_c, 12, 67, 76
10, 202064, Note_on_c, 12, 67, 0
10, 202080, Note_on_c, 12, 72, 76
10, 202124, Note_on_c, 12, 72, 0
10, 202140, Note_on_c, 12, 74, 76
10, 202184, Note_on_c, 12, 74, 0
10, 202200, Note_on_c, 12, 72, 76
10, 202244, Note_on_c, 12, 72, 0
10, 202260, Note_on_c, 12, 70, 76
10, 202304, Note_on_c, 12, 70, 0
10, 202320, Note_on_c, 12, 69, 76
10, 202424, Note_on_c, 12, 69, 0
10, 202440, Note_on_c, 12, 69, 76
10, 202544, Note_on_c, 12, 69, 0
10, 202560, Note_on_c, 12, 74, 76
10, 202604, Note_on_c, 12, 74, 0
10, 202620, Note_on_c, 12, 72, 76
10, 202664, Note_on_c, 12, 72, 0
10, 202680, Note_on_c, 12, 71, 76
10, 202724, Note_on_c, 12, 71, 0
10, 202740, Note_on_c, 12, 72, 76
10, 202784, Note_on_c, 12, 72, 0
10, 202800, Note_on_c, 12, 74, 76
10, 202844, Note_on_c, 12, 74, 0
10, 202860, Note_on_c, 12, 72, 76
10, 202904, Note_on_c, 12, 72, 0
10, 202920, Note_on_c, 12, 74, 76
10, 202964, Note_on_c, 12, 74, 0
10, 202980, Note_on_c, 12, 71, 76
10, 203024, Note_on_c, 12, 71, 0
10, 203040, Note_on_c, 12, 72, 76
10, 203204, Note_on_c, 12, 72, 0
10, 203220, Note_on_c, 12, 74, 76
10, 203264, Note_on_c, 12, 74, 0
10, 203280, Note_on_c, 12, 71, 76
10, 203444, Note_on_c, 12, 71, 0
10, 203460, Note_on_c, 12, 67, 76
10, 203504, Note_on_c, 12, 67, 0
10, 203520, Note_on_c, 12, 67, 76
10, 203691, Note_on_c, 12, 67, 0
10, 203700, Note_on_c, 12, 65, 76
10, 203751, Note_on_c, 12, 65, 0
10, 203760, Note_on_c, 12, 64, 76
10, 203931, Note_on_c, 12, 64, 0
10, 203940, Note_on_c, 12, 65, 76
10, 203991, Note_on_c, 12, 65, 0
10, 204000, Note_on_c, 12, 67, 76
10, 204291, Note_on_c, 12, 67, 0
10, 204300, Note_on_c, 12, 67, 76
10, 204351, Note_on_c, 12, 67, 0
10, 204360, Note_on_c, 12, 65, 76
10, 204411, Note_on_c, 12, 65, 0
10, 204420, Note_on_c, 12, 64, 76
10, 204471, Note_on_c, 12, 64, 0
10, 204480, Note_on_c, 12, 62, 76
10, 204651, Note_on_c, 12, 62, 0
10, 204660, Note_on_c, 12, 65, 76
10, 204711, Note_on_c, 12, 65, 0
10, 204720, Note_on_c, 12, 64, 76
10, 204891, Note_on_c, 12, 64, 0
10, 204900, Note_on_c, 12, 62, 76
10, 204951, Note_on_c, 12, 62, 0
10, 204960, Note_on_c, 12, 60, 76
10, 205131, Note_on_c, 12, 60, 0
10, 205140, Note_on_c, 12, 62, 76
10, 205169, Note_on_c, 12, 62, 0
10, 205170, Note_on_c, 12, 64, 76
10, 205199, Note_on_c, 12, 64, 0
10, 205200, Note_on_c, 12, 64, 76
10, 205214, Note_on_c, 12, 64, 0
10, 205215, Note_on_c, 12, 65, 76
10, 205229, Note_on_c, 12, 65, 0
10, 205230, Note_on_c, 12, 64, 76
10, 205244, Note_on_c, 12, 64, 0
10, 205245, Note_on_c, 12, 65, 76
10, 205259, Note_on_c, 12, 65, 0
10, 205260, Note_on_c, 12, 64, 76
10, 205274, Note_on_c, 12, 64, 0
10, 205275, Note_on_c, 12, 65, 76
10, 205289, Note_on_c, 12, 65, 0
10, 205290, Note_on_c, 12, 64, 76
10, 205304, Note_on_c, 12, 64, 0
10, 205305, Note_on_c, 12, 65, 76
10, 205319, Note_on_c, 12, 65, 0
10, 205320, Note_on_c, 12, 64, 76
10, 205334, Note_on_c, 12, 64, 0
10, 205335, Note_on_c, 12, 65, 76
10, 205349, Note_on_c, 12, 65, 0
10, 205350, Note_on_c, 12, 64, 76
10, 205364, Note_on_c, 12, 64, 0
10, 205365, Note_on_c, 12, 65, 76
10, 205379, Note_on_c, 12, 65, 0
10, 205380, Note_on_c, 12, 62, 76
10, 205409, Note_on_c, 12, 62, 0
10, 205410, Note_on_c, 12, 64, 76
10, 205439, Note_on_c, 12, 64, 0
10, 205440, Note_on_c, 12, 65, 76
10, 205611, Note_on_c, 12, 65, 0
10, 205620, Note_on_c, 12, 69, 76
10, 205671, Note_on_c, 12, 69, 0
10, 205680, Note_on_c, 12, 65, 76
10, 205851, Note_on_c, 12, 65, 0
10, 205860, Note_on_c, 12, 64, 76
10, 205911, Note_on_c, 12, 64, 0
10, 205920, Note_on_c, 12, 62, 76
10, 206091, Note_on_c, 12, 62, 0
10, 206100, Note_on_c, 12, 69, 76
10, 206151, Note_on_c, 12, 69, 0
10, 206160, Note_on_c, 12, 74, 76
10, 206571, Note_on_c, 12, 74, 0
10, 206580, Note_on_c, 12, 77, 76
10, 206631, Note_on_c, 12, 77, 0
10, 206640, Note_on_c, 12, 76, 76
10, 206811, Note_on_c, 12, 76, 0
10, 206820, Note_on_c, 12, 74, 76
10, 206871, Note_on_c, 12, 74, 0
10, 206880, Note_on_c, 12, 73, 76
10, 206894, Note_on_c, 12, 73, 0
10, 206895, Note_on_c, 12, 74, 76
10, 206909, Note_on_c, 12, 74, 0
10, 206910, Note_on_c, 12, 73, 76
10, 206924, Note_on_c, 12, 73, 0
10, 206925, Note_on_c, 12, 74, 76
10, 206939, Note_on_c, 12, 74, 0
10, 206940, Note_on_c, 12, 73, 76
10, 206954, Note_on_c, 12, 73, 0
10, 206955, Note_on_c, 12, 74, 76
10, 206969, Note_on_c, 12, 74, 0
10, 206970, Note_on_c, 12, 73, 76
10, 206984, Note_on_c, 12, 73, 0
10, 206985, Note_on_c, 12, 74, 76
10, 206999, Note_on_c, 12, 74, 0
10, 207000, Note_on_c, 12, 73, 76
10, 207014, Note_on_c, 12, 73, 0
10, 207015, Note_on_c, 12, 74, 76
10, 207029, Note_on_c, 12, 74, 0
10, 207030, Note_on_c, 12, 73, 76
10, 207044, Note_on_c, 12, 73, 0
10, 207045, Note_on_c, 12, 74, 76
10, 207059, Note_on_c, 12, 74, 0
10, 207060, Note_on_c, 12, 73, 76
10, 207074, Note_on_c, 12, 73, 0
10, 207075, Note_on_c, 12, 74, 76
10, 207089, Note_on_c, 12, 74, 0
10, 207090, Note_on_c, 12, 73, 76
10, 207104, Note_on_c, 12, 73, 0
10, 207105, Note_on_c, 12, 74, 76
10, 207119, Note_on_c, 12, 74, 0
10, 207120, Note_on_c, 12, 73, 76
10, 207134, Note_on_c, 12, 73, 0
10, 207135, Note_on_c, 12, 74, 76
10, 207149, Note_on_c, 12, 74, 0
10, 207150, Note_on_c, 12, 73, 76
10, 207164, Note_on_c, 12, 73, 0
10, 207165, Note_on_c, 12, 74, 76
10, 207179, Note_on_c, 12, 74, 0
10, 207180, Note_on_c, 12, 73, 76
10, 207194, Note_on_c, 12, 73, 0
10, 207195, Note_on_c, 12, 74, 76
10, 207209, Note_on_c, 12, 74, 0
10, 207210, Note_on_c, 12, 71, 76
10, 207224, Note_on_c, 12, 71, 0
10, 207225, Note_on_c, 12, 73, 76
10, 207239, Note_on_c, 12, 73, 0
10, 207240, Note_on_c, 12, 73, 76
10, 207351, Note_on_c, 12, 73, 0
10, 207360, Note_on_c, 12, 74, 76
10, 207531, Note_on_c, 12, 74, 0
10, 207540, Note_on_c, 12, 69, 76
10, 207591, Note_on_c, 12, 69, 0
10, 207600, Note_on_c, 12, 74, 76
10, 207771, Note_on_c, 12, 74, 0
10, 207780, Note_on_c, 12, 72, 76
10, 207831, Note_on_c, 12, 72, 0
10, 207840, Note_on_c, 12, 69, 76
10, 207854, Note_on_c, 12, 69, 0
10, 207855, Note_on_c, 12, 71, 76
10, 207869, Note_on_c, 12, 71, 0
10, 207870, Note_on_c, 12, 69, 76
10, 207884, Note_on_c, 12, 69, 0
10, 207885, Note_on_c, 12, 71, 76
10, 207899, Note_on_c, 12, 71, 0
10, 207900, Note_on_c, 12, 69, 76
10, 207914, Note_on_c, 12, 69, 0
10, 207915, Note_on_c, 12, 71, 76
10, 207929, Note_on_c, 12, 71, 0
10, 207930, Note_on_c, 12, 69, 76
10, 207944, Note_on_c, 12, 69, 0
10, 207945, Note_on_c, 12, 71, 76
10, 207959, Note_on_c, 12, 71, 0
10, 207960, Note_on_c, 12, 69, 76
10, 207974, Note_on_c, 12, 69, 0
10, 207975, Note_on_c, 12, 71, 76
10, 207989, Note_on_c, 12, 71, 0
10, 207990, Note_on_c, 12, 69, 76
10, 208004, Note_on_c, 12, 69, 0
10, 208005, Note_on_c, 12, 71, 76
10, 208019, Note_on_c, 12, 71, 0
10, 208020, Note_on_c, 12, 69, 76
10, 208034, Note_on_c, 12, 69, 0
10, 208035, Note_on_c, 12, 71, 76
10, 208049, Note_on_c, 12, 71, 0
10, 208050, Note_on_c, 12, 69, 76
10, 208064, Note_on_c, 12, 69, 0
10, 208065, Note_on_c, 12, 71, 76
10, 208079, Note_on_c, 12, 71, 0
10, 208080, Note_on_c, 12, 69, 76
10, 208094, Note_on_c, 12, 69, 0
10, 208095, Note_on_c, 12, 71, 76
10, 208109, Note_on_c, 12, 71, 0
10, 208110, Note_on_c, 12, 69, 76
10, 208124, Note_on_c, 12, 69, 0
10, 208125, Note_on_c, 12, 71, 76
10, 208139, Note_on_c, 12, 71, 0
10, 208140, Note_on_c, 12, 69, 76
10, 208154, Note_on_c, 12, 69, 0
10, 208155, Note_on_c, 12, 71, 76
10, 208169, Note_on_c, 12, 71, 0
10, 208170, Note_on_c, 12, 67, 76
10, 208184, Note_on_c, 12, 67, 0
10, 208185, Note_on_c, 12, 69, 76
10, 208199, Note_on_c, 12, 69, 0
10, 208200, Note_on_c, 12, 69, 76
10, 208311, Note_on_c, 12, 69, 0
10, 208320, Note_on_c, 12, 74, 76
10, 208491, Note_on_c, 12, 74, 0
10, 208500, Note_on_c, 12, 72, 76
10, 208551, Note_on_c, 12, 72, 0
10, 208560, Note_on_c, 12, 74, 76
10, 208731, Note_on_c, 12, 74, 0
10, 208740, Note_on_c, 12, 71, 76
10, 208791, Note_on_c, 12, 71, 0
10, 208800, Note_on_c, 12, 72, 76
10, 208971, Note_on_c, 12, 72, 0
10, 208980, Note_on_c, 12, 74, 76
10, 209031, Note_on_c, 12, 74, 0
10, 209040, Note_on_c, 12, 76, 76
10, 209211, Note_on_c, 12, 76, 0
10, 209220, Note_on_c, 12, 79, 76
10, 209271, Note_on_c, 12, 79, 0
10, 209280, Note_on_c, 12, 72, 76
10, 209451, Note_on_c, 12, 72, 0
10, 209460, Note_on_c, 12, 72, 76
10, 209511, Note_on_c, 12, 72, 0
10, 209520, Note_on_c, 12, 77, 76
10, 209691, Note_on_c, 12, 77, 0
10, 209700, Note_on_c, 12, 76, 76
10, 209751, Note_on_c, 12, 76, 0
10, 209760, Note_on_c, 12, 77, 76
10, 210051, Note_on_c, 12, 77, 0
10, 210060, Note_on_c, 12, 76, 76
10, 210111, Note_on_c, 12, 76, 0
10, 210120, Note_on_c, 12, 74, 76
10, 210171, Note_on_c, 12, 74, 0
10, 210180, Note_on_c, 12, 72, 76
10, 210231, Note_on_c, 12, 72, 0
10, 210240, Note_on_c, 12, 71, 76
10, 210591, Note_on_c, 12, 71, 0
10, 210600, Note_on_c, 12, 74, 76
10, 210711, Note_on_c, 12, 74, 0
10, 210720, Note_on_c, 12, 67, 76
10, 211071, Note_on_c, 12, 67, 0
10, 211080, Note_on_c, 12, 67, 76
10, 211191, Note_on_c, 12, 67, 0
10, 211200, Note_on_c, 12, 67, 76
10, 211491, Note_on_c, 12, 67, 0
10, 211500, Note_on_c, 12, 69, 76
10, 211551, Note_on_c, 12, 69, 0
10, 211560, Note_on_c, 12, 71, 76
10, 211611, Note_on_c, 12, 71, 0
10, 211620, Note_on_c, 12, 72, 76
10, 211671, Note_on_c, 12, 72, 0
10, 211680, Note_on_c, 12, 74, 76
10, 212031, Note_on_c, 12, 74, 0
10, 212040, Note_on_c, 12, 74, 76
10, 212151, Note_on_c, 12, 74, 0
10, 212160, Note_on_c, 12, 74, 76
10, 212331, Note_on_c, 12, 74, 0
10, 212340, Note_on_c, 12, 72, 76
10, 212369, Note_on_c, 12, 72, 0
10, 212370, Note_on_c, 12, 71, 76
10, 212399, Note_on_c, 12, 71, 0
10, 212400, Note_on_c, 12, 72, 76
10, 212571, Note_on_c, 12, 72, 0
10, 212580, Note_on_c, 12, 69, 76
10, 212631, Note_on_c, 12, 69, 0
10, 212640, Note_on_c, 12, 67, 76
10, 212991, Note_on_c, 12, 67, 0
10, 213000, Note_on_c, 12, 67, 76
10, 213111, Note_on_c, 12, 67, 0
10, 213120, Note_on_c, 12, 67, 76
10, 213291, Note_on_c, 12, 67, 0
10, 213300, Note_on_c, 12, 65, 76
10, 213329, Note_on_c, 12, 65, 0
10, 213330, Note_on_c, 12, 64, 76
10, 213359, Note_on_c, 12, 64, 0
10, 213360, Note_on_c, 12, 65, 76
10, 213531, Note_on_c, 12, 65, 0
10, 213540, Note_on_c, 12, 67, 76
10, 213591, Note_on_c, 12, 67, 0
10, 213600, Note_on_c, 12, 69, 76
10, 213771, Note_on_c, 12, 69, 0
10, 213780, Note_on_c, 12, 67, 76
10, 213831, Note_on_c, 12, 67, 0
10, 213840, Note_on_c, 12, 65, 76
10, 214011, Note_on_c, 12, 65, 0
10, 214020, Note_on_c, 12, 64, 76
10, 214071, Note_on_c, 12, 64, 0
10, 214080, Note_on_c, 12, 65, 76
10, 214311, Note_on_c, 12, 65, 0
10, 214320, Note_on_c, 12, 69, 76
10, 214551, Note_on_c, 12, 69, 0
10, 214560, Note_on_c, 12, 74, 76
10, 214911, Note_on_c, 12, 74, 0
10, 214920, Note_on_c, 12, 72, 76
10, 215031, Note_on_c, 12, 72, 0
10, 215040, Note_on_c, 12, 71, 76
10, 215211, Note_on_c, 12, 71, 0
10, 215220, Note_on_c, 12, 71, 76
10, 215271, Note_on_c, 12, 71, 0
10, 215280, Note_on_c, 12, 72, 76
10, 215451, Note_on_c, 12, 72, 0
10, 215460, Note_on_c, 12, 74, 76
10, 215511, Note_on_c, 12, 74, 0
10, 215520, Note_on_c, 12, 67, 76
10, 215691, Note_on_c, 12, 67, 0
10, 215700, Note_on_c, 12, 70, 76
10, 215751, Note_on_c, 12, 70, 0
10, 215760, Note_on_c, 12, 69, 76
10, 215931, Note_on_c, 12, 69, 0
10, 215940, Note_on_c, 12, 67, 76
10, 215991, Note_on_c, 12, 67, 0
10, 216000, Note_on_c, 12, 65, 76
10, 216171, Note_on_c, 12, 65, 0
10, 216180, Note_on_c, 12, 67, 76
10, 216231, Note_on_c, 12, 67, 0
10, 216240, Note_on_c, 12, 69, 76
10, 216411, Note_on_c, 12, 69, 0
10, 216420, Note_on_c, 12, 65, 76
10, 216471, Note_on_c, 12, 65, 0
10, 216480, Note_on_c, 12, 62, 76
10, 216651, Note_on_c, 12, 62, 0
10, 216660, Note_on_c, 12, 67, 76
10, 216711, Note_on_c, 12, 67, 0
10, 216720, Note_on_c, 12, 74, 76
10, 216891, Note_on_c, 12, 74, 0
10, 216900, Note_on_c, 12, 72, 76
10, 216951, Note_on_c, 12, 72, 0
10, 216960, Note_on_c, 12, 71, 76
10, 217131, Note_on_c, 12, 71, 0
10, 217140, Note_on_c, 12, 74, 76
10, 217191, Note_on_c, 12, 74, 0
10, 217200, Note_on_c, 12, 72, 76
10, 217371, Note_on_c, 12, 72, 0
10, 217380, Note_on_c, 12, 74, 76
10, 217431, Note_on_c, 12, 74, 0
10, 217440, Note_on_c, 12, 71, 76
10, 217791, Note_on_c, 12, 71, 0
10, 217800, Note_on_c, 12, 67, 76
10, 217911, Note_on_c, 12, 67, 0
10, 217920, Note_on_c, 12, 67, 76
10, 218879, Note_on_c, 12, 67, 0
10, 218879, End_track
11, 0, Start_track
11, 0, Title_t, "Viola"
11, 0, MIDI_port, 0
11, 0, Program_c, 13, 48
11, 0, Control_c, 13, 10, 70
11, 0, Control_c, 13, 11, 127
11, 0, Control_c, 13, 7, 96
11, 0, Note_on_c, 13, 67, 76
11, 651, Note_on_c, 13, 67, 0
11, 660, Note_on_c, 13, 67, 76
11, 711, Note_on_c, 13, 67, 0
11, 720, Note_on_c, 13, 60, 76
11, 891, Note_on_c, 13, 60, 0
11, 900, Note_on_c, 13, 64, 76
11, 951, Note_on_c, 13, 64, 0
11, 960, Note_on_c, 13, 65, 76
11, 1311, Note_on_c, 13, 65, 0
11, 1320, Note_on_c, 13, 69, 76
11, 1431, Note_on_c, 13, 69, 0
11, 1440, Note_on_c, 13, 67, 76
11, 1611, Note_on_c, 13, 67, 0
11, 1620, Note_on_c, 13, 69, 76
11, 1671, Note_on_c, 13, 69, 0
11, 1680, Note_on_c, 13, 67, 76
11, 1851, Note_on_c, 13, 67, 0
11, 1860, Note_on_c, 13, 65, 76
11, 1911, Note_on_c, 13, 65, 0
11, 1920, Note_on_c, 13, 64, 76
11, 2271, Note_on_c, 13, 64, 0
11, 2280, Note_on_c, 13, 64, 76
11, 2391, Note_on_c, 13, 64, 0
11, 2400, Note_on_c, 13, 62, 76
11, 2751, Note_on_c, 13, 62, 0
11, 2760, Note_on_c, 13, 62, 76
11, 2871, Note_on_c, 13, 62, 0
11, 2880, Note_on_c, 13, 62, 76
11, 3111, Note_on_c, 13, 62, 0
11, 3120, Note_on_c, 13, 67, 76
11, 3351, Note_on_c, 13, 67, 0
11, 3360, Note_on_c, 13, 67, 76
11, 3711, Note_on_c, 13, 67, 0
11, 3720, Note_on_c, 13, 67, 76
11, 3831, Note_on_c, 13, 67, 0
11, 3840, Note_on_c, 13, 67, 76
11, 4491, Note_on_c, 13, 67, 0
11, 4500, Note_on_c, 13, 62, 76
11, 4551, Note_on_c, 13, 62, 0
11, 4560, Note_on_c, 13, 67, 76
11, 4731, Note_on_c, 13, 67, 0
11, 4740, Note_on_c, 13, 66, 76
11, 4791, Note_on_c, 13, 66, 0
11, 4800, Note_on_c, 13, 64, 76
11, 4971, Note_on_c, 13, 64, 0
11, 4980, Note_on_c, 13, 67, 76
11, 5031, Note_on_c, 13, 67, 0
11, 5040, Note_on_c, 13, 69, 76
11, 5211, Note_on_c, 13, 69, 0
11, 5220, Note_on_c, 13, 71, 76
11, 5271, Note_on_c, 13, 71, 0
11, 5280, Note_on_c, 13, 72, 76
11, 5451, Note_on_c, 13, 72, 0
11, 5460, Note_on_c, 13, 71, 76
11, 5511, Note_on_c, 13, 71, 0
11, 5520, Note_on_c, 13, 69, 76
11, 5691, Note_on_c, 13, 69, 0
11, 5700, Note_on_c, 13, 57, 76
11, 5751, Note_on_c, 13, 57, 0
11, 5760, Note_on_c, 13, 64, 76
11, 6411, Note_on_c, 13, 64, 0
11, 6420, Note_on_c, 13, 64, 76
11, 6471, Note_on_c, 13, 64, 0
11, 6480, Note_on_c, 13, 71, 76
11, 6651, Note_on_c, 13, 71, 0
11, 6660, Note_on_c, 13, 71, 76
11, 6711, Note_on_c, 13, 71, 0
11, 6720, Note_on_c, 13, 69, 76
11, 7371, Note_on_c, 13, 69, 0
11, 7380, Note_on_c, 13, 62, 76
11, 7431, Note_on_c, 13, 62, 0
11, 7440, Note_on_c, 13, 69, 76
11, 7611, Note_on_c, 13, 69, 0
11, 7620, Note_on_c, 13, 69, 76
11, 7671, Note_on_c, 13, 69, 0
11, 7680, Note_on_c, 13, 69, 76
11, 7851, Note_on_c, 13, 69, 0
11, 7860, Note_on_c, 13, 67, 76
11, 7911, Note_on_c, 13, 67, 0
11, 7920, Note_on_c, 13, 66, 76
11, 8091, Note_on_c, 13, 66, 0
11, 8100, Note_on_c, 13, 69, 76
11, 8151, Note_on_c, 13, 69, 0
11, 8160, Note_on_c, 13, 62, 76
11, 8331, Note_on_c, 13, 62, 0
11, 8340, Note_on_c, 13, 67, 76
11, 8391, Note_on_c, 13, 67, 0
11, 8400, Note_on_c, 13, 66, 76
11, 8571, Note_on_c, 13, 66, 0
11, 8580, Note_on_c, 13, 69, 76
11, 8631, Note_on_c, 13, 69, 0
11, 8640, Note_on_c, 13, 67, 76
11, 9231, Note_on_c, 13, 67, 0
11, 9240, Note_on_c, 13, 59, 76
11, 9291, Note_on_c, 13, 59, 0
11, 9300, Note_on_c, 13, 60, 76
11, 9351, Note_on_c, 13, 60, 0
11, 9360, Note_on_c, 13, 62, 76
11, 9411, Note_on_c, 13, 62, 0
11, 9420, Note_on_c, 13, 59, 76
11, 9471, Note_on_c, 13, 59, 0
11, 9480, Note_on_c, 13, 60, 76
11, 9531, Note_on_c, 13, 60, 0
11, 9540, Note_on_c, 13, 62, 76
11, 9591, Note_on_c, 13, 62, 0
11, 9600, Note_on_c, 13, 55, 76
11, 10251, Note_on_c, 13, 55, 0
11, 10260, Note_on_c, 13, 55, 76
11, 10311, Note_on_c, 13, 55, 0
11, 10320, Note_on_c, 13, 60, 76
11, 10491, Note_on_c, 13, 60, 0
11, 10500, Note_on_c, 13, 62, 76
11, 10551, Note_on_c, 13, 62, 0
11, 10560, Note_on_c, 13, 64, 76
11, 10791, Note_on_c, 13, 64, 0
11, 10800, Note_on_c, 13, 57, 76
11, 11031, Note_on_c, 13, 57, 0
11, 11040, Note_on_c, 13, 60, 76
11, 11391, Note_on_c, 13, 60, 0
11, 11400, Note_on_c, 13, 57, 76
11, 11511, Note_on_c, 13, 57, 0
11, 11520, Note_on_c, 13, 64, 76
11, 11871, Note_on_c, 13, 64, 0
11, 11880, Note_on_c, 13, 59, 76
11, 11991, Note_on_c, 13, 59, 0
11, 12000, Note_on_c, 13, 64, 76
11, 12171, Note_on_c, 13, 64, 0
11, 12180, Note_on_c, 13, 62, 76
11, 12231, Note_on_c, 13, 62, 0
11, 12240, Note_on_c, 13, 64, 76
11, 12411, Note_on_c, 13, 64, 0
11, 12420, Note_on_c, 13, 60, 76
11, 12471, Note_on_c, 13, 60, 0
11, 12480, Note_on_c, 13, 67, 76
11, 12831, Note_on_c, 13, 67, 0
11, 12840, Note_on_c, 13, 62, 76
11, 12951, Note_on_c, 13, 62, 0
11, 12960, Note_on_c, 13, 69, 76
11, 13131, Note_on_c, 13, 69, 0
11, 13140, Note_on_c, 13, 67, 76
11, 13191, Note_on_c, 13, 67, 0
11, 13200, Note_on_c, 13, 69, 76
11, 13371, Note_on_c, 13, 69, 0
11, 13380, Note_on_c, 13, 64, 76
11, 13431, Note_on_c, 13, 64, 0
11, 13440, Note_on_c, 13, 57, 76
11, 13611, Note_on_c, 13, 57, 0
11, 13620, Note_on_c, 13, 69, 76
11, 13671, Note_on_c, 13, 69, 0
11, 13680, Note_on_c, 13, 62, 76
11, 13851, Note_on_c, 13, 62, 0
11, 13860, Note_on_c, 13, 64, 76
11, 13911, Note_on_c, 13, 64, 0
11, 13920, Note_on_c, 13, 62, 76
11, 14151, Note_on_c, 13, 62, 0
11, 14160, Note_on_c, 13, 60, 76
11, 14391, Note_on_c, 13, 60, 0
11, 14400, Note_on_c, 13, 59, 76
11, 15351, Note_on_c, 13, 59, 0
11, 15360, Note_on_c, 13, 67, 76
11, 16011, Note_on_c, 13, 67, 0
11, 16020, Note_on_c, 13, 67, 76
11, 16071, Note_on_c, 13, 67, 0
11, 16080, Note_on_c, 13, 60, 76
11, 16251, Note_on_c, 13, 60, 0
11, 16260, Note_on_c, 13, 64, 76
11, 16311, Note_on_c, 13, 64, 0
11, 16320, Note_on_c, 13, 65, 76
11, 16671, Note_on_c, 13, 65, 0
11, 16680, Note_on_c, 13, 69, 76
11, 16791, Note_on_c, 13, 69, 0
11, 16800, Note_on_c, 13, 67, 76
11, 16971, Note_on_c, 13, 67, 0
11, 16980, Note_on_c, 13, 69, 76
11, 17031, Note_on_c, 13, 69, 0
11, 17040, Note_on_c, 13, 67, 76
11, 17211, Note_on_c, 13, 67, 0
11, 17220, Note_on_c, 13, 65, 76
11, 17271, Note_on_c, 13, 65, 0
11, 17280, Note_on_c, 13, 64, 76
11, 17631, Note_on_c, 13, 64, 0
11, 17640, Note_on_c, 13, 64, 76
11, 17751, Note_on_c, 13, 64, 0
11, 17760, Note_on_c, 13, 62, 76
11, 18111, Note_on_c, 13, 62, 0
11, 18120, Note_on_c, 13, 62, 76
11, 18231, Note_on_c, 13, 62, 0
11, 18240, Note_on_c, 13, 62, 76
11, 18471, Note_on_c, 13, 62, 0
11, 18480, Note_on_c, 13, 67, 76
11, 18711, Note_on_c, 13, 67, 0
11, 18720, Note_on_c, 13, 67, 76
11, 19071, Note_on_c, 13, 67, 0
11, 19080, Note_on_c, 13, 67, 76
11, 19191, Note_on_c, 13, 67, 0
11, 19200, Note_on_c, 13, 67, 76
11, 19851, Note_on_c, 13, 67, 0
11, 19860, Note_on_c, 13, 62, 76
11, 19911, Note_on_c, 13, 62, 0
11, 19920, Note_on_c, 13, 67, 76
11, 20091, Note_on_c, 13, 67, 0
11, 20100, Note_on_c, 13, 66, 76
11, 20151, Note_on_c, 13, 66, 0
11, 20160, Note_on_c, 13, 64, 76
11, 20331, Note_on_c, 13, 64, 0
11, 20340, Note_on_c, 13, 67, 76
11, 20391, Note_on_c, 13, 67, 0
11, 20400, Note_on_c, 13, 69, 76
11, 20571, Note_on_c, 13, 69, 0
11, 20580, Note_on_c, 13, 71, 76
11, 20631, Note_on_c, 13, 71, 0
11, 20640, Note_on_c, 13, 72, 76
11, 20811, Note_on_c, 13, 72, 0
11, 20820, Note_on_c, 13, 71, 76
11, 20871, Note_on_c, 13, 71, 0
11, 20880, Note_on_c, 13, 69, 76
11, 21051, Note_on_c, 13, 69, 0
11, 21060, Note_on_c, 13, 57, 76
11, 21111, Note_on_c, 13, 57, 0
11, 21120, Note_on_c, 13, 64, 76
11, 21771, Note_on_c, 13, 64, 0
11, 21780, Note_on_c, 13, 64, 76
11, 21831, Note_on_c, 13, 64, 0
11, 21840, Note_on_c, 13, 71, 76
11, 22011, Note_on_c, 13, 71, 0
11, 22020, Note_on_c, 13, 71, 76
11, 22071, Note_on_c, 13, 71, 0
11, 22080, Note_on_c, 13, 69, 76
11, 22731, Note_on_c, 13, 69, 0
11, 22740, Note_on_c, 13, 62, 76
11, 22791, Note_on_c, 13, 62, 0
11, 22800, Note_on_c, 13, 69, 76
11, 22971, Note_on_c, 13, 69, 0
11, 22980, Note_on_c, 13, 69, 76
11, 23031, Note_on_c, 13, 69, 0
11, 23040, Note_on_c, 13, 69, 76
11, 23211, Note_on_c, 13, 69, 0
11, 23220, Note_on_c, 13, 67, 76
11, 23271, Note_on_c, 13, 67, 0
11, 23280, Note_on_c, 13, 66, 76
11, 23451, Note_on_c, 13, 66, 0
11, 23460, Note_on_c, 13, 69, 76
11, 23511, Note_on_c, 13, 69, 0
11, 23520, Note_on_c, 13, 62, 76
11, 23691, Note_on_c, 13, 62, 0
11, 23700, Note_on_c, 13, 67, 76
11, 23751, Note_on_c, 13, 67, 0
11, 23760, Note_on_c, 13, 66, 76
11, 23931, Note_on_c, 13, 66, 0
11, 23940, Note_on_c, 13, 69, 76
11, 23991, Note_on_c, 13, 69, 0
11, 24000, Note_on_c, 13, 67, 76
11, 24591, Note_on_c, 13, 67, 0
11, 24600, Note_on_c, 13, 59, 76
11, 24651, Note_on_c, 13, 59, 0
11, 24660, Note_on_c, 13, 60, 76
11, 24711, Note_on_c, 13, 60, 0
11, 24720, Note_on_c, 13, 62, 76
11, 24771, Note_on_c, 13, 62, 0
11, 24780, Note_on_c, 13, 59, 76
11, 24831, Note_on_c, 13, 59, 0
11, 24840, Note_on_c, 13, 60, 76
11, 24891, Note_on_c, 13, 60, 0
11, 24900, Note_on_c, 13, 62, 76
11, 24951, Note_on_c, 13, 62, 0
11, 24960, Note_on_c, 13, 55, 76
11, 25611, Note_on_c, 13, 55, 0
11, 25620, Note_on_c, 13, 55, 76
11, 25671, Note_on_c, 13, 55, 0
11, 25680, Note_on_c, 13, 60, 76
11, 25851, Note_on_c, 13, 60, 0
11, 25860, Note_on_c, 13, 62, 76
11, 25911, Note_on_c, 13, 62, 0
11, 25920, Note_on_c, 13, 64, 76
11, 26151, Note_on_c, 13, 64, 0
11, 26160, Note_on_c, 13, 57, 76
11, 26391, Note_on_c, 13, 57, 0
11, 26400, Note_on_c, 13, 60, 76
11, 26751, Note_on_c, 13, 60, 0
11, 26760, Note_on_c, 13, 57, 76
11, 26871, Note_on_c, 13, 57, 0
11, 26880, Note_on_c, 13, 64, 76
11, 27231, Note_on_c, 13, 64, 0
11, 27240, Note_on_c, 13, 59, 76
11, 27351, Note_on_c, 13, 59, 0
11, 27360, Note_on_c, 13, 64, 76
11, 27531, Note_on_c, 13, 64, 0
11, 27540, Note_on_c, 13, 62, 76
11, 27591, Note_on_c, 13, 62, 0
11, 27600, Note_on_c, 13, 64, 76
11, 27771, Note_on_c, 13, 64, 0
11, 27780, Note_on_c, 13, 60, 76
11, 27831, Note_on_c, 13, 60, 0
11, 27840, Note_on_c, 13, 67, 76
11, 28191, Note_on_c, 13, 67, 0
11, 28200, Note_on_c, 13, 62, 76
11, 28311, Note_on_c, 13, 62, 0
11, 28320, Note_on_c, 13, 69, 76
11, 28491, Note_on_c, 13, 69, 0
11, 28500, Note_on_c, 13, 67, 76
11, 28551, Note_on_c, 13, 67, 0
11, 28560, Note_on_c, 13, 69, 76
11, 28731, Note_on_c, 13, 69, 0
11, 28740, Note_on_c, 13, 64, 76
11, 28791, Note_on_c, 13, 64, 0
11, 28800, Note_on_c, 13, 57, 76
11, 28971, Note_on_c, 13, 57, 0
11, 28980, Note_on_c, 13, 69, 76
11, 29031, Note_on_c, 13, 69, 0
11, 29040, Note_on_c, 13, 62, 76
11, 29211, Note_on_c, 13, 62, 0
11, 29220, Note_on_c, 13, 64, 76
11, 29271, Note_on_c, 13, 64, 0
11, 29280, Note_on_c, 13, 62, 76
11, 29511, Note_on_c, 13, 62, 0
11, 29520, Note_on_c, 13, 60, 76
11, 29751, Note_on_c, 13, 60, 0
11, 29760, Note_on_c, 13, 59, 76
11, 29999, Note_on_c, 13, 59, 0
11, 32760, Note_on_c, 13, 67, 76
11, 32864, Note_on_c, 13, 67, 0
11, 32880, Note_on_c, 13, 67, 76
11, 32984, Note_on_c, 13, 67, 0
11, 33000, Note_on_c, 13, 67, 76
11, 33104, Note_on_c, 13, 67, 0
11, 33120, Note_on_c, 13, 64, 76
11, 33224, Note_on_c, 13, 64, 0
11, 33240, Note_on_c, 13, 65, 76
11, 33284, Note_on_c, 13, 65, 0
11, 33300, Note_on_c, 13, 67, 76
11, 33344, Note_on_c, 13, 67, 0
11, 33360, Note_on_c, 13, 69, 76
11, 33464, Note_on_c, 13, 69, 0
11, 33480, Note_on_c, 13, 65, 76
11, 33584, Note_on_c, 13, 65, 0
11, 33600, Note_on_c, 13, 62, 76
11, 33704, Note_on_c, 13, 62, 0
11, 33720, Note_on_c, 13, 67, 76
11, 33824, Note_on_c, 13, 67, 0
11, 33840, Note_on_c, 13, 55, 76
11, 33944, Note_on_c, 13, 55, 0
11, 33960, Note_on_c, 13, 65, 76
11, 34064, Note_on_c, 13, 65, 0
11, 34080, Note_on_c, 13, 64, 76
11, 34124, Note_on_c, 13, 64, 0
11, 34140, Note_on_c, 13, 62, 76
11, 34184, Note_on_c, 13, 62, 0
11, 34200, Note_on_c, 13, 60, 76
11, 34244, Note_on_c, 13, 60, 0
11, 34260, Note_on_c, 13, 62, 76
11, 34304, Note_on_c, 13, 62, 0
11, 34320, Note_on_c, 13, 64, 76
11, 34364, Note_on_c, 13, 64, 0
11, 34380, Note_on_c, 13, 62, 76
11, 34424, Note_on_c, 13, 62, 0
11, 34440, Note_on_c, 13, 64, 76
11, 34484, Note_on_c, 13, 64, 0
11, 34500, Note_on_c, 13, 66, 76
11, 34544, Note_on_c, 13, 66, 0
11, 34560, Note_on_c, 13, 67, 76
11, 34724, Note_on_c, 13, 67, 0
11, 34740, Note_on_c, 13, 62, 76
11, 34784, Note_on_c, 13, 62, 0
11, 34800, Note_on_c, 13, 67, 76
11, 34964, Note_on_c, 13, 67, 0
11, 34980, Note_on_c, 13, 67, 76
11, 35024, Note_on_c, 13, 67, 0
11, 35040, Note_on_c, 13, 67, 76
11, 35204, Note_on_c, 13, 67, 0
11, 35220, Note_on_c, 13, 66, 76
11, 35239, Note_on_c, 13, 66, 0
11, 35240, Note_on_c, 13, 64, 76
11, 35259, Note_on_c, 13, 64, 0
11, 35260, Note_on_c, 13, 66, 76
11, 35279, Note_on_c, 13, 66, 0
11, 35280, Note_on_c, 13, 66, 76
11, 35309, Note_on_c, 13, 66, 0
11, 35310, Note_on_c, 13, 67, 76
11, 35339, Note_on_c, 13, 67, 0
11, 35340, Note_on_c, 13, 66, 76
11, 35369, Note_on_c, 13, 66, 0
11, 35370, Note_on_c, 13, 67, 76
11, 35399, Note_on_c, 13, 67, 0
11, 35400, Note_on_c, 13, 64, 76
11, 35429, Note_on_c, 13, 64, 0
11, 35430, Note_on_c, 13, 66, 76
11, 35459, Note_on_c, 13, 66, 0
11, 35460, Note_on_c, 13, 67, 76
11, 35504, Note_on_c, 13, 67, 0
11, 35520, Note_on_c, 13, 67, 76
11, 35564, Note_on_c, 13, 67, 0
11, 35580, Note_on_c, 13, 69, 76
11, 35624, Note_on_c, 13, 69, 0
11, 35640, Note_on_c, 13, 71, 76
11, 35684, Note_on_c, 13, 71, 0
11, 35700, Note_on_c, 13, 72, 76
11, 35744, Note_on_c, 13, 72, 0
11, 35760, Note_on_c, 13, 74, 76
11, 35864, Note_on_c, 13, 74, 0
11, 35880, Note_on_c, 13, 67, 76
11, 35984, Note_on_c, 13, 67, 0
11, 36000, Note_on_c, 13, 72, 76
11, 36224, Note_on_c, 13, 72, 0
11, 36240, Note_on_c, 13, 64, 76
11, 36404, Note_on_c, 13, 64, 0
11, 36420, Note_on_c, 13, 64, 76
11, 36464, Note_on_c, 13, 64, 0
11, 36480, Note_on_c, 13, 69, 76
11, 36584, Note_on_c, 13, 69, 0
11, 36600, Note_on_c, 13, 57, 76
11, 36704, Note_on_c, 13, 57, 0
11, 36720, Note_on_c, 13, 62, 76
11, 36884, Note_on_c, 13, 62, 0
11, 36900, Note_on_c, 13, 62, 76
11, 36944, Note_on_c, 13, 62, 0
11, 36960, Note_on_c, 13, 67, 76
11, 37064, Note_on_c, 13, 67, 0
11, 37080, Note_on_c, 13, 55, 76
11, 37184, Note_on_c, 13, 55, 0
11, 37200, Note_on_c, 13, 60, 76
11, 37364, Note_on_c, 13, 60, 0
11, 37380, Note_on_c, 13, 60, 76
11, 37424, Note_on_c, 13, 60, 0
11, 37440, Note_on_c, 13, 65, 76
11, 37544, Note_on_c, 13, 65, 0
11, 37560, Note_on_c, 13, 53, 76
11, 37664, Note_on_c, 13, 53, 0
11, 37680, Note_on_c, 13, 59, 76
11, 37844, Note_on_c, 13, 59, 0
11, 37860, Note_on_c, 13, 59, 76
11, 37904, Note_on_c, 13, 59, 0
11, 37920, Note_on_c, 13, 64, 76
11, 38024, Note_on_c, 13, 64, 0
11, 38040, Note_on_c, 13, 52, 76
11, 38144, Note_on_c, 13, 52, 0
11, 38160, Note_on_c, 13, 57, 76
11, 38324, Note_on_c, 13, 57, 0
11, 38340, Note_on_c, 13, 57, 76
11, 38384, Note_on_c, 13, 57, 0
11, 38400, Note_on_c, 13, 62, 76
11, 38444, Note_on_c, 13, 62, 0
11, 38460, Note_on_c, 13, 60, 76
11, 38504, Note_on_c, 13, 60, 0
11, 38520, Note_on_c, 13, 62, 76
11, 38564, Note_on_c, 13, 62, 0
11, 38580, Note_on_c, 13, 59, 76
11, 38624, Note_on_c, 13, 59, 0
11, 38640, Note_on_c, 13, 64, 76
11, 38744, Note_on_c, 13, 64, 0
11, 38760, Note_on_c, 13, 62, 76
11, 38864, Note_on_c, 13, 62, 0
11, 38880, Note_on_c, 13, 60, 76
11, 38984, Note_on_c, 13, 60, 0
11, 39000, Note_on_c, 13, 62, 76
11, 39044, Note_on_c, 13, 62, 0
11, 39060, Note_on_c, 13, 64, 76
11, 39104, Note_on_c, 13, 64, 0
11, 39120, Note_on_c, 13, 65, 76
11, 39224, Note_on_c, 13, 65, 0
11, 39240, Note_on_c, 13, 65, 76
11, 39344, Note_on_c, 13, 65, 0
11, 39360, Note_on_c, 13, 67, 76
11, 39464, Note_on_c, 13, 67, 0
11, 39480, Note_on_c, 13, 62, 76
11, 39584, Note_on_c, 13, 62, 0
11, 39600, Note_on_c, 13, 67, 76
11, 39704, Note_on_c, 13, 67, 0
11, 39720, Note_on_c, 13, 71, 76
11, 39824, Note_on_c, 13, 71, 0
11, 39840, Note_on_c, 13, 67, 76
11, 39944, Note_on_c, 13, 67, 0
11, 39960, Note_on_c, 13, 69, 76
11, 40064, Note_on_c, 13, 69, 0
11, 40080, Note_on_c, 13, 62, 76
11, 40184, Note_on_c, 13, 62, 0
11, 40200, Note_on_c, 13, 67, 76
11, 40304, Note_on_c, 13, 67, 0
11, 40320, Note_on_c, 13, 64, 76
11, 40439, Note_on_c, 13, 64, 0
11, 45660, Note_on_c, 13, 57, 76
11, 45704, Note_on_c, 13, 57, 0
11, 45720, Note_on_c, 13, 59, 76
11, 45764, Note_on_c, 13, 59, 0
11, 45780, Note_on_c, 13, 60, 76
11, 45824, Note_on_c, 13, 60, 0
11, 45840, Note_on_c, 13, 62, 76
11, 45884, Note_on_c, 13, 62, 0
11, 45900, Note_on_c, 13, 59, 76
11, 45944, Note_on_c, 13, 59, 0
11, 45960, Note_on_c, 13, 60, 76
11, 46004, Note_on_c, 13, 60, 0
11, 46020, Note_on_c, 13, 62, 76
11, 46064, Note_on_c, 13, 62, 0
11, 46080, Note_on_c, 13, 64, 76
11, 46124, Note_on_c, 13, 64, 0
11, 46140, Note_on_c, 13, 65, 76
11, 46184, Note_on_c, 13, 65, 0
11, 46200, Note_on_c, 13, 64, 76
11, 46244, Note_on_c, 13, 64, 0
11, 46260, Note_on_c, 13, 62, 76
11, 46304, Note_on_c, 13, 62, 0
11, 46320, Note_on_c, 13, 60, 76
11, 46364, Note_on_c, 13, 60, 0
11, 46380, Note_on_c, 13, 62, 76
11, 46424, Note_on_c, 13, 62, 0
11, 46440, Note_on_c, 13, 64, 76
11, 46484, Note_on_c, 13, 64, 0
11, 46500, Note_on_c, 13, 60, 76
11, 46544, Note_on_c, 13, 60, 0
11, 46560, Note_on_c, 13, 62, 76
11, 46664, Note_on_c, 13, 62, 0
11, 46680, Note_on_c, 13, 62, 76
11, 46784, Note_on_c, 13, 62, 0
11, 46800, Note_on_c, 13, 62, 76
11, 46904, Note_on_c, 13, 62, 0
11, 46920, Note_on_c, 13, 62, 76
11, 47024, Note_on_c, 13, 62, 0
11, 47040, Note_on_c, 13, 59, 76
11, 47144, Note_on_c, 13, 59, 0
11, 47160, Note_on_c, 13, 60, 76
11, 47204, Note_on_c, 13, 60, 0
11, 47220, Note_on_c, 13, 62, 76
11, 47264, Note_on_c, 13, 62, 0
11, 47280, Note_on_c, 13, 64, 76
11, 47384, Note_on_c, 13, 64, 0
11, 47400, Note_on_c, 13, 60, 76
11, 47504, Note_on_c, 13, 60, 0
11, 47520, Note_on_c, 13, 57, 76
11, 47624, Note_on_c, 13, 57, 0
11, 47640, Note_on_c, 13, 62, 76
11, 47744, Note_on_c, 13, 62, 0
11, 47760, Note_on_c, 13, 52, 76
11, 47864, Note_on_c, 13, 52, 0
11, 47880, Note_on_c, 13, 64, 76
11, 47984, Note_on_c, 13, 64, 0
11, 48000, Note_on_c, 13, 64, 76
11, 48104, Note_on_c, 13, 64, 0
11, 48120, Note_on_c, 13, 69, 76
11, 48224, Note_on_c, 13, 69, 0
11, 48240, Note_on_c, 13, 64, 76
11, 48344, Note_on_c, 13, 64, 0
11, 48360, Note_on_c, 13, 66, 76
11, 48464, Note_on_c, 13, 66, 0
11, 48480, Note_on_c, 13, 67, 76
11, 48584, Note_on_c, 13, 67, 0
11, 48600, Note_on_c, 13, 63, 76
11, 48704, Note_on_c, 13, 63, 0
11, 48720, Note_on_c, 13, 64, 76
11, 48884, Note_on_c, 13, 64, 0
11, 48900, Note_on_c, 13, 64, 76
11, 48944, Note_on_c, 13, 64, 0
11, 48960, Note_on_c, 13, 66, 76
11, 49004, Note_on_c, 13, 66, 0
11, 49020, Note_on_c, 13, 64, 76
11, 49064, Note_on_c, 13, 64, 0
11, 49080, Note_on_c, 13, 63, 76
11, 49124, Note_on_c, 13, 63, 0
11, 49140, Note_on_c, 13, 64, 76
11, 49184, Note_on_c, 13, 64, 0
11, 49200, Note_on_c, 13, 66, 76
11, 49244, Note_on_c, 13, 66, 0
11, 49260, Note_on_c, 13, 67, 76
11, 49304, Note_on_c, 13, 67, 0
11, 49320, Note_on_c, 13, 64, 76
11, 49364, Note_on_c, 13, 64, 0
11, 49380, Note_on_c, 13, 66, 76
11, 49424, Note_on_c, 13, 66, 0
11, 49440, Note_on_c, 13, 67, 76
11, 49544, Note_on_c, 13, 67, 0
11, 49560, Note_on_c, 13, 64, 76
11, 49664, Note_on_c, 13, 64, 0
11, 49680, Note_on_c, 13, 69, 76
11, 50024, Note_on_c, 13, 69, 0
11, 50040, Note_on_c, 13, 68, 76
11, 50084, Note_on_c, 13, 68, 0
11, 50100, Note_on_c, 13, 66, 76
11, 50144, Note_on_c, 13, 66, 0
11, 50160, Note_on_c, 13, 68, 76
11, 50264, Note_on_c, 13, 68, 0
11, 50280, Note_on_c, 13, 69, 76
11, 50384, Note_on_c, 13, 69, 0
11, 50400, Note_on_c, 13, 71, 76
11, 50444, Note_on_c, 13, 71, 0
11, 50460, Note_on_c, 13, 69, 76
11, 50504, Note_on_c, 13, 69, 0
11, 50520, Note_on_c, 13, 71, 76
11, 50564, Note_on_c, 13, 71, 0
11, 50580, Note_on_c, 13, 68, 76
11, 50624, Note_on_c, 13, 68, 0
11, 50640, Note_on_c, 13, 69, 76
11, 50684, Note_on_c, 13, 69, 0
11, 50700, Note_on_c, 13, 71, 76
11, 50744, Note_on_c, 13, 71, 0
11, 50760, Note_on_c, 13, 72, 76
11, 50804, Note_on_c, 13, 72, 0
11, 50820, Note_on_c, 13, 74, 76
11, 50864, Note_on_c, 13, 74, 0
11, 50880, Note_on_c, 13, 76, 76
11, 50924, Note_on_c, 13, 76, 0
11, 50940, Note_on_c, 13, 71, 76
11, 50984, Note_on_c, 13, 71, 0
11, 51000, Note_on_c, 13, 72, 76
11, 51044, Note_on_c, 13, 72, 0
11, 51060, Note_on_c, 13, 69, 76
11, 51104, Note_on_c, 13, 69, 0
11, 51120, Note_on_c, 13, 64, 76
11, 51404, Note_on_c, 13, 64, 0
11, 51420, Note_on_c, 13, 62, 76
11, 51464, Note_on_c, 13, 62, 0
11, 51480, Note_on_c, 13, 60, 76
11, 51524, Note_on_c, 13, 60, 0
11, 51540, Note_on_c, 13, 59, 76
11, 51584, Note_on_c, 13, 59, 0
11, 51600, Note_on_c, 13, 57, 76
11, 51644, Note_on_c, 13, 57, 0
11, 51660, Note_on_c, 13, 60, 76
11, 51704, Note_on_c, 13, 60, 0
11, 51720, Note_on_c, 13, 62, 76
11, 51764, Note_on_c, 13, 62, 0
11, 51780, Note_on_c, 13, 64, 76
11, 51824, Note_on_c, 13, 64, 0
11, 51840, Note_on_c, 13, 65, 76
11, 51944, Note_on_c, 13, 65, 0
11, 51960, Note_on_c, 13, 56, 76
11, 52064, Note_on_c, 13, 56, 0
11, 52080, Note_on_c, 13, 59, 76
11, 52184, Note_on_c, 13, 59, 0
11, 52200, Note_on_c, 13, 64, 76
11, 52304, Note_on_c, 13, 64, 0
11, 52320, Note_on_c, 13, 64, 76
11, 52424, Note_on_c, 13, 64, 0
11, 52440, Note_on_c, 13, 69, 76
11, 52484, Note_on_c, 13, 69, 0
11, 52500, Note_on_c, 13, 68, 76
11, 52544, Note_on_c, 13, 68, 0
11, 52560, Note_on_c, 13, 69, 76
11, 52664, Note_on_c, 13, 69, 0
11, 52680, Note_on_c, 13, 72, 76
11, 52724, Note_on_c, 13, 72, 0
11, 52740, Note_on_c, 13, 71, 76
11, 52784, Note_on_c, 13, 71, 0
11, 52800, Note_on_c, 13, 69, 76
11, 52844, Note_on_c, 13, 69, 0
11, 52860, Note_on_c, 13, 71, 76
11, 52904, Note_on_c, 13, 71, 0
11, 52920, Note_on_c, 13, 69, 76
11, 52964, Note_on_c, 13, 69, 0
11, 52980, Note_on_c, 13, 67, 76
11, 53024, Note_on_c, 13, 67, 0
11, 53040, Note_on_c, 13, 65, 76
11, 53084, Note_on_c, 13, 65, 0
11, 53100, Note_on_c, 13, 64, 76
11, 53144, Note_on_c, 13, 64, 0
11, 53160, Note_on_c, 13, 65, 76
11, 53204, Note_on_c, 13, 65, 0
11, 53220, Note_on_c, 13, 62, 76
11, 53264, Note_on_c, 13, 62, 0
11, 53280, Note_on_c, 13, 56, 76
11, 53384, Note_on_c, 13, 56, 0
11, 53400, Note_on_c, 13, 68, 76
11, 53504, Note_on_c, 13, 68, 0
11, 53520, Note_on_c, 13, 69, 76
11, 53624, Note_on_c, 13, 69, 0
11, 53640, Note_on_c, 13, 71, 76
11, 53744, Note_on_c, 13, 71, 0
11, 53760, Note_on_c, 13, 64, 76
11, 53864, Note_on_c, 13, 64, 0
11, 53880, Note_on_c, 13, 65, 76
11, 53984, Note_on_c, 13, 65, 0
11, 54000, Note_on_c, 13, 64, 76
11, 54104, Note_on_c, 13, 64, 0
11, 54120, Note_on_c, 13, 62, 76
11, 54224, Note_on_c, 13, 62, 0
11, 54240, Note_on_c, 13, 60, 76
11, 54344, Note_on_c, 13, 60, 0
11, 54360, Note_on_c, 13, 69, 76
11, 54464, Note_on_c, 13, 69, 0
11, 54480, Note_on_c, 13, 69, 76
11, 54584, Note_on_c, 13, 69, 0
11, 54600, Note_on_c, 13, 69, 76
11, 54704, Note_on_c, 13, 69, 0
11, 54720, Note_on_c, 13, 67, 76
11, 54824, Note_on_c, 13, 67, 0
11, 54840, Note_on_c, 13, 69, 76
11, 54884, Note_on_c, 13, 69, 0
11, 54900, Note_on_c, 13, 71, 76
11, 54944, Note_on_c, 13, 71, 0
11, 54960, Note_on_c, 13, 72, 76
11, 55064, Note_on_c, 13, 72, 0
11, 55080, Note_on_c, 13, 69, 76
11, 55184, Note_on_c, 13, 69, 0
11, 55200, Note_on_c, 13, 66, 76
11, 55304, Note_on_c, 13, 66, 0
11, 55320, Note_on_c, 13, 71, 76
11, 55424, Note_on_c, 13, 71, 0
11, 55440, Note_on_c, 13, 59, 76
11, 55544, Note_on_c, 13, 59, 0
11, 55560, Note_on_c, 13, 71, 76
11, 55664, Note_on_c, 13, 71, 0
11, 55680, Note_on_c, 13, 64, 76
11, 55784, Note_on_c, 13, 64, 0
11, 55800, Note_on_c, 13, 67, 76
11, 55904, Note_on_c, 13, 67, 0
11, 55920, Note_on_c, 13, 67, 76
11, 56024, Note_on_c, 13, 67, 0
11, 56040, Note_on_c, 13, 67, 76
11, 56144, Note_on_c, 13, 67, 0
11, 56160, Note_on_c, 13, 64, 76
11, 56264, Note_on_c, 13, 64, 0
11, 56280, Note_on_c, 13, 69, 76
11, 56384, Note_on_c, 13, 69, 0
11, 56400, Note_on_c, 13, 69, 76
11, 56504, Note_on_c, 13, 69, 0
11, 56520, Note_on_c, 13, 69, 76
11, 56624, Note_on_c, 13, 69, 0
11, 56640, Note_on_c, 13, 65, 76
11, 56744, Note_on_c, 13, 65, 0
11, 56760, Note_on_c, 13, 67, 76
11, 56804, Note_on_c, 13, 67, 0
11, 56820, Note_on_c, 13, 69, 76
11, 56864, Note_on_c, 13, 69, 0
11, 56880, Note_on_c, 13, 70, 76
11, 56984, Note_on_c, 13, 70, 0
11, 57000, Note_on_c, 13, 67, 76
11, 57104, Note_on_c, 13, 67, 0
11, 57120, Note_on_c, 13, 64, 76
11, 57224, Note_on_c, 13, 64, 0
11, 57240, Note_on_c, 13, 69, 76
11, 57344, Note_on_c, 13, 69, 0
11, 57360, Note_on_c, 13, 57, 76
11, 57464, Note_on_c, 13, 57, 0
11, 57480, Note_on_c, 13, 69, 76
11, 57584, Note_on_c, 13, 69, 0
11, 57600, Note_on_c, 13, 62, 76
11, 57704, Note_on_c, 13, 62, 0
11, 57720, Note_on_c, 13, 65, 76
11, 57824, Note_on_c, 13, 65, 0
11, 57840, Note_on_c, 13, 65, 76
11, 57944, Note_on_c, 13, 65, 0
11, 57960, Note_on_c, 13, 65, 76
11, 58064, Note_on_c, 13, 65, 0
11, 58080, Note_on_c, 13, 62, 76
11, 58184, Note_on_c, 13, 62, 0
11, 58200, Note_on_c, 13, 67, 76
11, 58304, Note_on_c, 13, 67, 0
11, 58320, Note_on_c, 13, 67, 76
11, 58424, Note_on_c, 13, 67, 0
11, 58440, Note_on_c, 13, 67, 76
11, 58544, Note_on_c, 13, 67, 0
11, 58560, Note_on_c, 13, 64, 76
11, 58664, Note_on_c, 13, 64, 0
11, 58680, Note_on_c, 13, 65, 76
11, 58724, Note_on_c, 13, 65, 0
11, 58740, Note_on_c, 13, 67, 76
11, 58784, Note_on_c, 13, 67, 0
11, 58800, Note_on_c, 13, 69, 76
11, 58904, Note_on_c, 13, 69, 0
11, 58920, Note_on_c, 13, 65, 76
11, 59024, Note_on_c, 13, 65, 0
11, 59040, Note_on_c, 13, 62, 76
11, 59144, Note_on_c, 13, 62, 0
11, 59160, Note_on_c, 13, 67, 76
11, 59264, Note_on_c, 13, 67, 0
11, 59280, Note_on_c, 13, 55, 76
11, 59384, Note_on_c, 13, 55, 0
11, 59400, Note_on_c, 13, 67, 76
11, 59504, Note_on_c, 13, 67, 0
11, 59520, Note_on_c, 13, 60, 76
11, 59564, Note_on_c, 13, 60, 0
11, 59580, Note_on_c, 13, 65, 76
11, 59624, Note_on_c, 13, 65, 0
11, 59640, Note_on_c, 13, 64, 76
11, 59684, Note_on_c, 13, 64, 0
11, 59700, Note_on_c, 13, 62, 76
11, 59744, Note_on_c, 13, 62, 0
11, 59760, Note_on_c, 13, 60, 76
11, 59804, Note_on_c, 13, 60, 0
11, 59820, Note_on_c, 13, 59, 76
11, 59864, Note_on_c, 13, 59, 0
11, 59880, Note_on_c, 13, 60, 76
11, 59924, Note_on_c, 13, 60, 0
11, 59940, Note_on_c, 13, 57, 76
11, 59984, Note_on_c, 13, 57, 0
11, 60000, Note_on_c, 13, 64, 76
11, 60044, Note_on_c, 13, 64, 0
11, 60060, Note_on_c, 13, 62, 76
11, 60104, Note_on_c, 13, 62, 0
11, 60120, Note_on_c, 13, 64, 76
11, 60164, Note_on_c, 13, 64, 0
11, 60180, Note_on_c, 13, 66, 76
11, 60224, Note_on_c, 13, 66, 0
11, 60240, Note_on_c, 13, 67, 76
11, 60344, Note_on_c, 13, 67, 0
11, 60360, Note_on_c, 13, 64, 76
11, 60464, Note_on_c, 13, 64, 0
11, 60480, Note_on_c, 13, 62, 76
11, 60584, Note_on_c, 13, 62, 0
11, 60600, Note_on_c, 13, 62, 76
11, 60704, Note_on_c, 13, 62, 0
11, 60720, Note_on_c, 13, 62, 76
11, 60824, Note_on_c, 13, 62, 0
11, 60840, Note_on_c, 13, 62, 76
11, 60944, Note_on_c, 13, 62, 0
11, 60960, Note_on_c, 13, 59, 76
11, 61064, Note_on_c, 13, 59, 0
11, 61080, Note_on_c, 13, 60, 76
11, 61124, Note_on_c, 13, 60, 0
11, 61140, Note_on_c, 13, 62, 76
11, 61184, Note_on_c, 13, 62, 0
11, 61200, Note_on_c, 13, 64, 76
11, 61304, Note_on_c, 13, 64, 0
11, 61320, Note_on_c, 13, 60, 76
11, 61424, Note_on_c, 13, 60, 0
11, 61440, Note_on_c, 13, 57, 76
11, 61544, Note_on_c, 13, 57, 0
11, 61560, Note_on_c, 13, 62, 76
11, 61664, Note_on_c, 13, 62, 0
11, 61680, Note_on_c, 13, 50, 76
11, 61784, Note_on_c, 13, 50, 0
11, 61800, Note_on_c, 13, 62, 76
11, 62024, Note_on_c, 13, 62, 0
11, 62040, Note_on_c, 13, 60, 76
11, 62084, Note_on_c, 13, 60, 0
11, 62100, Note_on_c, 13, 59, 76
11, 62144, Note_on_c, 13, 59, 0
11, 62160, Note_on_c, 13, 60, 76
11, 62444, Note_on_c, 13, 60, 0
11, 62460, Note_on_c, 13, 57, 76
11, 62504, Note_on_c, 13, 57, 0
11, 62520, Note_on_c, 13, 59, 76
11, 62564, Note_on_c, 13, 59, 0
11, 62580, Note_on_c, 13, 60, 76
11, 62624, Note_on_c, 13, 60, 0
11, 62640, Note_on_c, 13, 62, 76
11, 62684, Note_on_c, 13, 62, 0
11, 62700, Note_on_c, 13, 64, 76
11, 62744, Note_on_c, 13, 64, 0
11, 62760, Note_on_c, 13, 66, 76
11, 62804, Note_on_c, 13, 66, 0
11, 62820, Note_on_c, 13, 67, 76
11, 62864, Note_on_c, 13, 67, 0
11, 62880, Note_on_c, 13, 69, 76
11, 62984, Note_on_c, 13, 69, 0
11, 63000, Note_on_c, 13, 57, 76
11, 63119, Note_on_c, 13, 57, 0
11, 63240, Note_on_c, 13, 62, 76
11, 63404, Note_on_c, 13, 62, 0
11, 63420, Note_on_c, 13, 67, 76
11, 63464, Note_on_c, 13, 67, 0
11, 63480, Note_on_c, 13, 66, 76
11, 63524, Note_on_c, 13, 66, 0
11, 63540, Note_on_c, 13, 67, 76
11, 63584, Note_on_c, 13, 67, 0
11, 63600, Note_on_c, 13, 64, 76
11, 63704, Note_on_c, 13, 64, 0
11, 63720, Note_on_c, 13, 69, 76
11, 63944, Note_on_c, 13, 69, 0
11, 63960, Note_on_c, 13, 72, 76
11, 64064, Note_on_c, 13, 72, 0
11, 64080, Note_on_c, 13, 66, 76
11, 64184, Note_on_c, 13, 66, 0
11, 64200, Note_on_c, 13, 71, 76
11, 64364, Note_on_c, 13, 71, 0
11, 64380, Note_on_c, 13, 64, 76
11, 64424, Note_on_c, 13, 64, 0
11, 64440, Note_on_c, 13, 62, 76
11, 64484, Note_on_c, 13, 62, 0
11, 64500, Note_on_c, 13, 64, 76
11, 64544, Note_on_c, 13, 64, 0
11, 64560, Note_on_c, 13, 60, 76
11, 64664, Note_on_c, 13, 60, 0
11, 64680, Note_on_c, 13, 69, 76
11, 64844, Note_on_c, 13, 69, 0
11, 64860, Note_on_c, 13, 67, 76
11, 64904, Note_on_c, 13, 67, 0
11, 64920, Note_on_c, 13, 66, 76
11, 64964, Note_on_c, 13, 66, 0
11, 64980, Note_on_c, 13, 64, 76
11, 65024, Note_on_c, 13, 64, 0
11, 65040, Note_on_c, 13, 62, 76
11, 65084, Note_on_c, 13, 62, 0
11, 65100, Note_on_c, 13, 60, 76
11, 65144, Note_on_c, 13, 60, 0
11, 65160, Note_on_c, 13, 59, 76
11, 65204, Note_on_c, 13, 59, 0
11, 65220, Note_on_c, 13, 57, 76
11, 65264, Note_on_c, 13, 57, 0
11, 65280, Note_on_c, 13, 62, 76
11, 65384, Note_on_c, 13, 62, 0
11, 65400, Note_on_c, 13, 64, 76
11, 65444, Note_on_c, 13, 64, 0
11, 65460, Note_on_c, 13, 66, 76
11, 65504, Note_on_c, 13, 66, 0
11, 65520, Note_on_c, 13, 67, 76
11, 65624, Note_on_c, 13, 67, 0
11, 65640, Note_on_c, 13, 64, 76
11, 65744, Note_on_c, 13, 64, 0
11, 65760, Note_on_c, 13, 69, 76
11, 65804, Note_on_c, 13, 69, 0
11, 65820, Note_on_c, 13, 67, 76
11, 65864, Note_on_c, 13, 67, 0
11, 65880, Note_on_c, 13, 66, 76
11, 65924, Note_on_c, 13, 66, 0
11, 65940, Note_on_c, 13, 64, 76
11, 65984, Note_on_c, 13, 64, 0
11, 66000, Note_on_c, 13, 62, 76
11, 66044, Note_on_c, 13, 62, 0
11, 66060, Note_on_c, 13, 60, 76
11, 66104, Note_on_c, 13, 60, 0
11, 66120, Note_on_c, 13, 59, 76
11, 66164, Note_on_c, 13, 59, 0
11, 66180, Note_on_c, 13, 57, 76
11, 66224, Note_on_c, 13, 57, 0
11, 66240, Note_on_c, 13, 55, 76
11, 66344, Note_on_c, 13, 55, 0
11, 66360, Note_on_c, 13, 62, 76
11, 66464, Note_on_c, 13, 62, 0
11, 66480, Note_on_c, 13, 62, 76
11, 66584, Note_on_c, 13, 62, 0
11, 66600, Note_on_c, 13, 62, 76
11, 66704, Note_on_c, 13, 62, 0
11, 66720, Note_on_c, 13, 62, 76
11, 66959, Note_on_c, 13, 62, 0
11, 71160, Note_on_c, 13, 71, 76
11, 71264, Note_on_c, 13, 71, 0
11, 71280, Note_on_c, 13, 71, 76
11, 71384, Note_on_c, 13, 71, 0
11, 71400, Note_on_c, 13, 71, 76
11, 71504, Note_on_c, 13, 71, 0
11, 71520, Note_on_c, 13, 67, 76
11, 71624, Note_on_c, 13, 67, 0
11, 71640, Note_on_c, 13, 69, 76
11, 71684, Note_on_c, 13, 69, 0
11, 71700, Note_on_c, 13, 71, 76
11, 71744, Note_on_c, 13, 71, 0
11, 71760, Note_on_c, 13, 72, 76
11, 71864, Note_on_c, 13, 72, 0
11, 71880, Note_on_c, 13, 69, 76
11, 71984, Note_on_c, 13, 69, 0
11, 72000, Note_on_c, 13, 66, 76
11, 72104, Note_on_c, 13, 66, 0
11, 72120, Note_on_c, 13, 71, 76
11, 72224, Note_on_c, 13, 71, 0
11, 72240, Note_on_c, 13, 59, 76
11, 72344, Note_on_c, 13, 59, 0
11, 72360, Note_on_c, 13, 59, 76
11, 72464, Note_on_c, 13, 59, 0
11, 72480, Note_on_c, 13, 64, 76
11, 72719, Note_on_c, 13, 64, 0
11, 75420, Note_on_c, 13, 72, 76
11, 75464, Note_on_c, 13, 72, 0
11, 75480, Note_on_c, 13, 71, 76
11, 75524, Note_on_c, 13, 71, 0
11, 75540, Note_on_c, 13, 69, 76
11, 75584, Note_on_c, 13, 69, 0
11, 75600, Note_on_c, 13, 67, 76
11, 75644, Note_on_c, 13, 67, 0
11, 75660, Note_on_c, 13, 66, 76
11, 75704, Note_on_c, 13, 66, 0
11, 75720, Note_on_c, 13, 67, 76
11, 75764, Note_on_c, 13, 67, 0
11, 75780, Note_on_c, 13, 64, 76
11, 75824, Note_on_c, 13, 64, 0
11, 75840, Note_on_c, 13, 72, 76
11, 75884, Note_on_c, 13, 72, 0
11, 75900, Note_on_c, 13, 71, 76
11, 75944, Note_on_c, 13, 71, 0
11, 75960, Note_on_c, 13, 69, 76
11, 76004, Note_on_c, 13, 69, 0
11, 76020, Note_on_c, 13, 67, 76
11, 76064, Note_on_c, 13, 67, 0
11, 76080, Note_on_c, 13, 66, 76
11, 76184, Note_on_c, 13, 66, 0
11, 76200, Note_on_c, 13, 71, 76
11, 76304, Note_on_c, 13, 71, 0
11, 76320, Note_on_c, 13, 64, 76
11, 76559, Note_on_c, 13, 64, 0
11, 78840, Note_on_c, 13, 72, 76
11, 78944, Note_on_c, 13, 72, 0
11, 78960, Note_on_c, 13, 72, 76
11, 79064, Note_on_c, 13, 72, 0
11, 79080, Note_on_c, 13, 72, 76
11, 79184, Note_on_c, 13, 72, 0
11, 79200, Note_on_c, 13, 69, 76
11, 79319, Note_on_c, 13, 69, 0
11, 80760, Note_on_c, 13, 70, 76
11, 80864, Note_on_c, 13, 70, 0
11, 80880, Note_on_c, 13, 70, 76
11, 80984, Note_on_c, 13, 70, 0
11, 81000, Note_on_c, 13, 70, 76
11, 81104, Note_on_c, 13, 70, 0
11, 81120, Note_on_c, 13, 67, 76
11, 81239, Note_on_c, 13, 67, 0
11, 82620, Note_on_c, 13, 70, 76
11, 82664, Note_on_c, 13, 70, 0
11, 82680, Note_on_c, 13, 69, 76
11, 82724, Note_on_c, 13, 69, 0
11, 82740, Note_on_c, 13, 67, 76
11, 82784, Note_on_c, 13, 67, 0
11, 82800, Note_on_c, 13, 65, 76
11, 82844, Note_on_c, 13, 65, 0
11, 82860, Note_on_c, 13, 64, 76
11, 82904, Note_on_c, 13, 64, 0
11, 82920, Note_on_c, 13, 65, 76
11, 82964, Note_on_c, 13, 65, 0
11, 82980, Note_on_c, 13, 62, 76
11, 83024, Note_on_c, 13, 62, 0
11, 83040, Note_on_c, 13, 69, 76
11, 83084, Note_on_c, 13, 69, 0
11, 83100, Note_on_c, 13, 67, 76
11, 83144, Note_on_c, 13, 67, 0
11, 83160, Note_on_c, 13, 69, 76
11, 83204, Note_on_c, 13, 69, 0
11, 83220, Note_on_c, 13, 70, 76
11, 83264, Note_on_c, 13, 70, 0
11, 83280, Note_on_c, 13, 72, 76
11, 83384, Note_on_c, 13, 72, 0
11, 83400, Note_on_c, 13, 69, 76
11, 83504, Note_on_c, 13, 69, 0
11, 83520, Note_on_c, 13, 67, 76
11, 83624, Note_on_c, 13, 67, 0
11, 83640, Note_on_c, 13, 67, 76
11, 83744, Note_on_c, 13, 67, 0
11, 83760, Note_on_c, 13, 67, 76
11, 83864, Note_on_c, 13, 67, 0
11, 83880, Note_on_c, 13, 67, 76
11, 83984, Note_on_c, 13, 67, 0
11, 84000, Note_on_c, 13, 64, 76
11, 84104, Note_on_c, 13, 64, 0
11, 84120, Note_on_c, 13, 65, 76
11, 84164, Note_on_c, 13, 65, 0
11, 84180, Note_on_c, 13, 67, 76
11, 84224, Note_on_c, 13, 67, 0
11, 84240, Note_on_c, 13, 69, 76
11, 84344, Note_on_c, 13, 69, 0
11, 84360, Note_on_c, 13, 65, 76
11, 84464, Note_on_c, 13, 65, 0
11, 84480, Note_on_c, 13, 62, 76
11, 84584, Note_on_c, 13, 62, 0
11, 84600, Note_on_c, 13, 67, 76
11, 84704, Note_on_c, 13, 67, 0
11, 84720, Note_on_c, 13, 55, 76
11, 84824, Note_on_c, 13, 55, 0
11, 84840, Note_on_c, 13, 67, 76
11, 85064, Note_on_c, 13, 67, 0
11, 85080, Note_on_c, 13, 65, 76
11, 85124, Note_on_c, 13, 65, 0
11, 85140, Note_on_c, 13, 64, 76
11, 85184, Note_on_c, 13, 64, 0
11, 85200, Note_on_c, 13, 65, 76
11, 85244, Note_on_c, 13, 65, 0
11, 85260, Note_on_c, 13, 64, 76
11, 85304, Note_on_c, 13, 64, 0
11, 85320, Note_on_c, 13, 62, 76
11, 85364, Note_on_c, 13, 62, 0
11, 85380, Note_on_c, 13, 60, 76
11, 85424, Note_on_c, 13, 60, 0
11, 85440, Note_on_c, 13, 62, 76
11, 85544, Note_on_c, 13, 62, 0
11, 85560, Note_on_c, 13, 67, 76
11, 85664, Note_on_c, 13, 67, 0
11, 85680, Note_on_c, 13, 67, 76
11, 85724, Note_on_c, 13, 67, 0
11, 85740, Note_on_c, 13, 65, 76
11, 85784, Note_on_c, 13, 65, 0
11, 85800, Note_on_c, 13, 67, 76
11, 85844, Note_on_c, 13, 67, 0
11, 85860, Note_on_c, 13, 64, 76
11, 85904, Note_on_c, 13, 64, 0
11, 85920, Note_on_c, 13, 60, 76
11, 86024, Note_on_c, 13, 60, 0
11, 86040, Note_on_c, 13, 62, 76
11, 86084, Note_on_c, 13, 62, 0
11, 86100, Note_on_c, 13, 64, 76
11, 86144, Note_on_c, 13, 64, 0
11, 86160, Note_on_c, 13, 65, 76
11, 86204, Note_on_c, 13, 65, 0
11, 86220, Note_on_c, 13, 64, 76
11, 86264, Note_on_c, 13, 64, 0
11, 86280, Note_on_c, 13, 65, 76
11, 86324, Note_on_c, 13, 65, 0
11, 86340, Note_on_c, 13, 62, 76
11, 86384, Note_on_c, 13, 62, 0
11, 86400, Note_on_c, 13, 59, 76
11, 86504, Note_on_c, 13, 59, 0
11, 86520, Note_on_c, 13, 64, 76
11, 86624, Note_on_c, 13, 64, 0
11, 86640, Note_on_c, 13, 60, 76
11, 86744, Note_on_c, 13, 60, 0
11, 86760, Note_on_c, 13, 57, 76
11, 86864, Note_on_c, 13, 57, 0
11, 86880, Note_on_c, 13, 62, 76
11, 87044, Note_on_c, 13, 62, 0
11, 87060, Note_on_c, 13, 64, 76
11, 87104, Note_on_c, 13, 64, 0
11, 87120, Note_on_c, 13, 65, 76
11, 87224, Note_on_c, 13, 65, 0
11, 87240, Note_on_c, 13, 67, 76
11, 87284, Note_on_c, 13, 67, 0
11, 87300, Note_on_c, 13, 62, 76
11, 87344, Note_on_c, 13, 62, 0
11, 87360, Note_on_c, 13, 64, 76
11, 87464, Note_on_c, 13, 64, 0
11, 87480, Note_on_c, 13, 60, 76
11, 87584, Note_on_c, 13, 60, 0
11, 87600, Note_on_c, 13, 72, 76
11, 87704, Note_on_c, 13, 72, 0
11, 87720, Note_on_c, 13, 67, 76
11, 87824, Note_on_c, 13, 67, 0
11, 87840, Note_on_c, 13, 60, 76
11, 87944, Note_on_c, 13, 60, 0
11, 87960, Note_on_c, 13, 65, 76
11, 88064, Note_on_c, 13, 65, 0
11, 88080, Note_on_c, 13, 67, 76
11, 88184, Note_on_c, 13, 67, 0
11, 88200, Note_on_c, 13, 69, 76
11, 88304, Note_on_c, 13, 69, 0
11, 88320, Note_on_c, 13, 62, 76
11, 88559, Note_on_c, 13, 62, 0
11, 91320, Note_on_c, 13, 67, 76
11, 91424, Note_on_c, 13, 67, 0
11, 91440, Note_on_c, 13, 67, 76
11, 91544, Note_on_c, 13, 67, 0
11, 91560, Note_on_c, 13, 67, 76
11, 91664, Note_on_c, 13, 67, 0
11, 91680, Note_on_c, 13, 64, 76
11, 91784, Note_on_c, 13, 64, 0
11, 91800, Note_on_c, 13, 65, 76
11, 91844, Note_on_c, 13, 65, 0
11, 91860, Note_on_c, 13, 67, 76
11, 91904, Note_on_c, 13, 67, 0
11, 91920, Note_on_c, 13, 69, 76
11, 92024, Note_on_c, 13, 69, 0
11, 92040, Note_on_c, 13, 65, 76
11, 92144, Note_on_c, 13, 65, 0
11, 92160, Note_on_c, 13, 62, 76
11, 92264, Note_on_c, 13, 62, 0
11, 92280, Note_on_c, 13, 67, 76
11, 92384, Note_on_c, 13, 67, 0
11, 92400, Note_on_c, 13, 55, 76
11, 92504, Note_on_c, 13, 55, 0
11, 92520, Note_on_c, 13, 65, 76
11, 92624, Note_on_c, 13, 65, 0
11, 92640, Note_on_c, 13, 64, 76
11, 92684, Note_on_c, 13, 64, 0
11, 92700, Note_on_c, 13, 62, 76
11, 92744, Note_on_c, 13, 62, 0
11, 92760, Note_on_c, 13, 60, 76
11, 92804, Note_on_c, 13, 60, 0
11, 92820, Note_on_c, 13, 62, 76
11, 92864, Note_on_c, 13, 62, 0
11, 92880, Note_on_c, 13, 64, 76
11, 92924, Note_on_c, 13, 64, 0
11, 92940, Note_on_c, 13, 62, 76
11, 92984, Note_on_c, 13, 62, 0
11, 93000, Note_on_c, 13, 64, 76
11, 93044, Note_on_c, 13, 64, 0
11, 93060, Note_on_c, 13, 66, 76
11, 93104, Note_on_c, 13, 66, 0
11, 93120, Note_on_c, 13, 67, 76
11, 93224, Note_on_c, 13, 67, 0
11, 93240, Note_on_c, 13, 62, 76
11, 93344, Note_on_c, 13, 62, 0
11, 93360, Note_on_c, 13, 67, 76
11, 93524, Note_on_c, 13, 67, 0
11, 93540, Note_on_c, 13, 67, 76
11, 93584, Note_on_c, 13, 67, 0
11, 93600, Note_on_c, 13, 67, 76
11, 93764, Note_on_c, 13, 67, 0
11, 93780, Note_on_c, 13, 66, 76
11, 93799, Note_on_c, 13, 66, 0
11, 93800, Note_on_c, 13, 64, 76
11, 93819, Note_on_c, 13, 64, 0
11, 93820, Note_on_c, 13, 66, 76
11, 93839, Note_on_c, 13, 66, 0
11, 93840, Note_on_c, 13, 66, 76
11, 94004, Note_on_c, 13, 66, 0
11, 94020, Note_on_c, 13, 67, 76
11, 94064, Note_on_c, 13, 67, 0
11, 94080, Note_on_c, 13, 67, 76
11, 94124, Note_on_c, 13, 67, 0
11, 94140, Note_on_c, 13, 69, 76
11, 94184, Note_on_c, 13, 69, 0
11, 94200, Note_on_c, 13, 71, 76
11, 94244, Note_on_c, 13, 71, 0
11, 94260, Note_on_c, 13, 72, 76
11, 94304, Note_on_c, 13, 72, 0
11, 94320, Note_on_c, 13, 74, 76
11, 94424, Note_on_c, 13, 74, 0
11, 94440, Note_on_c, 13, 67, 76
11, 94544, Note_on_c, 13, 67, 0
11, 94560, Note_on_c, 13, 72, 76
11, 94604, Note_on_c, 13, 72, 0
11, 94620, Note_on_c, 13, 71, 76
11, 94664, Note_on_c, 13, 71, 0
11, 94680, Note_on_c, 13, 69, 76
11, 94724, Note_on_c, 13, 69, 0
11, 94740, Note_on_c, 13, 67, 76
11, 94784, Note_on_c, 13, 67, 0
11, 94800, Note_on_c, 13, 65, 76
11, 94904, Note_on_c, 13, 65, 0
11, 94920, Note_on_c, 13, 67, 76
11, 95024, Note_on_c, 13, 67, 0
11, 95040, Note_on_c, 13, 69, 76
11, 95084, Note_on_c, 13, 69, 0
11, 95100, Note_on_c, 13, 74, 76
11, 95144, Note_on_c, 13, 74, 0
11, 95160, Note_on_c, 13, 72, 76
11, 95204, Note_on_c, 13, 72, 0
11, 95220, Note_on_c, 13, 74, 76
11, 95264, Note_on_c, 13, 74, 0
11, 95280, Note_on_c, 13, 62, 76
11, 95384, Note_on_c, 13, 62, 0
11, 95400, Note_on_c, 13, 67, 76
11, 95564, Note_on_c, 13, 67, 0
11, 95580, Note_on_c, 13, 72, 76
11, 95624, Note_on_c, 13, 72, 0
11, 95640, Note_on_c, 13, 70, 76
11, 95684, Note_on_c, 13, 70, 0
11, 95700, Note_on_c, 13, 72, 76
11, 95744, Note_on_c, 13, 72, 0
11, 95760, Note_on_c, 13, 60, 76
11, 95864, Note_on_c, 13, 60, 0
11, 95880, Note_on_c, 13, 65, 76
11, 96044, Note_on_c, 13, 65, 0
11, 96060, Note_on_c, 13, 71, 76
11, 96104, Note_on_c, 13, 71, 0
11, 96120, Note_on_c, 13, 69, 76
11, 96164, Note_on_c, 13, 69, 0
11, 96180, Note_on_c, 13, 71, 76
11, 96224, Note_on_c, 13, 71, 0
11, 96240, Note_on_c, 13, 59, 76
11, 96344, Note_on_c, 13, 59, 0
11, 96360, Note_on_c, 13, 64, 76
11, 96524, Note_on_c, 13, 64, 0
11, 96540, Note_on_c, 13, 69, 76
11, 96584, Note_on_c, 13, 69, 0
11, 96600, Note_on_c, 13, 67, 76
11, 96644, Note_on_c, 13, 67, 0
11, 96660, Note_on_c, 13, 69, 76
11, 96704, Note_on_c, 13, 69, 0
11, 96720, Note_on_c, 13, 57, 76
11, 96824, Note_on_c, 13, 57, 0
11, 96840, Note_on_c, 13, 62, 76
11, 97004, Note_on_c, 13, 62, 0
11, 97020, Note_on_c, 13, 72, 76
11, 97064, Note_on_c, 13, 72, 0
11, 97080, Note_on_c, 13, 71, 76
11, 97124, Note_on_c, 13, 71, 0
11, 97140, Note_on_c, 13, 69, 76
11, 97184, Note_on_c, 13, 69, 0
11, 97200, Note_on_c, 13, 67, 76
11, 97244, Note_on_c, 13, 67, 0
11, 97260, Note_on_c, 13, 65, 76
11, 97304, Note_on_c, 13, 65, 0
11, 97320, Note_on_c, 13, 64, 76
11, 97364, Note_on_c, 13, 64, 0
11, 97380, Note_on_c, 13, 62, 76
11, 97424, Note_on_c, 13, 62, 0
11, 97440, Note_on_c, 13, 67, 76
11, 97544, Note_on_c, 13, 67, 0
11, 97560, Note_on_c, 13, 69, 76
11, 97604, Note_on_c, 13, 69, 0
11, 97620, Note_on_c, 13, 71, 76
11, 97664, Note_on_c, 13, 71, 0
11, 97680, Note_on_c, 13, 72, 76
11, 97784, Note_on_c, 13, 72, 0
11, 97800, Note_on_c, 13, 57, 76
11, 97904, Note_on_c, 13, 57, 0
11, 97920, Note_on_c, 13, 62, 76
11, 97964, Note_on_c, 13, 62, 0
11, 97980, Note_on_c, 13, 60, 76
11, 98024, Note_on_c, 13, 60, 0
11, 98040, Note_on_c, 13, 59, 76
11, 98084, Note_on_c, 13, 59, 0
11, 98100, Note_on_c, 13, 57, 76
11, 98144, Note_on_c, 13, 57, 0
11, 98160, Note_on_c, 13, 55, 76
11, 98204, Note_on_c, 13, 55, 0
11, 98220, Note_on_c, 13, 53, 76
11, 98264, Note_on_c, 13, 53, 0
11, 98280, Note_on_c, 13, 52, 76
11, 98324, Note_on_c, 13, 52, 0
11, 98340, Note_on_c, 13, 50, 76
11, 98384, Note_on_c, 13, 50, 0
11, 98400, Note_on_c, 13, 48, 76
11, 98504, Note_on_c, 13, 48, 0
11, 98520, Note_on_c, 13, 55, 76
11, 98624, Note_on_c, 13, 55, 0
11, 98640, Note_on_c, 13, 55, 76
11, 98744, Note_on_c, 13, 55, 0
11, 98760, Note_on_c, 13, 55, 76
11, 98864, Note_on_c, 13, 55, 0
11, 98880, Note_on_c, 13, 55, 76
11, 99119, Note_on_c, 13, 55, 0
11, 100380, Note_on_c, 13, 59, 76
11, 100424, Note_on_c, 13, 59, 0
11, 100440, Note_on_c, 13, 60, 76
11, 100484, Note_on_c, 13, 60, 0
11, 100500, Note_on_c, 13, 62, 76
11, 100544, Note_on_c, 13, 62, 0
11, 100560, Note_on_c, 13, 64, 76
11, 100604, Note_on_c, 13, 64, 0
11, 100620, Note_on_c, 13, 62, 76
11, 100664, Note_on_c, 13, 62, 0
11, 100680, Note_on_c, 13, 64, 76
11, 100724, Note_on_c, 13, 64, 0
11, 100740, Note_on_c, 13, 65, 76
11, 100784, Note_on_c, 13, 65, 0
11, 100800, Note_on_c, 13, 67, 76
11, 100844, Note_on_c, 13, 67, 0
11, 100860, Note_on_c, 13, 70, 76
11, 100904, Note_on_c, 13, 70, 0
11, 100920, Note_on_c, 13, 69, 76
11, 100964, Note_on_c, 13, 69, 0
11, 100980, Note_on_c, 13, 67, 76
11, 101024, Note_on_c, 13, 67, 0
11, 101040, Note_on_c, 13, 65, 76
11, 101084, Note_on_c, 13, 65, 0
11, 101100, Note_on_c, 13, 64, 76
11, 101144, Note_on_c, 13, 64, 0
11, 101160, Note_on_c, 13, 65, 76
11, 101204, Note_on_c, 13, 65, 0
11, 101220, Note_on_c, 13, 62, 76
11, 101264, Note_on_c, 13, 62, 0
11, 101280, Note_on_c, 13, 67, 76
11, 101324, Note_on_c, 13, 67, 0
11, 101340, Note_on_c, 13, 65, 76
11, 101384, Note_on_c, 13, 65, 0
11, 101400, Note_on_c, 13, 67, 76
11, 101444, Note_on_c, 13, 67, 0
11, 101460, Note_on_c, 13, 69, 76
11, 101504, Note_on_c, 13, 69, 0
11, 101520, Note_on_c, 13, 67, 76
11, 101564, Note_on_c, 13, 67, 0
11, 101580, Note_on_c, 13, 65, 76
11, 101624, Note_on_c, 13, 65, 0
11, 101640, Note_on_c, 13, 64, 76
11, 101684, Note_on_c, 13, 64, 0
11, 101700, Note_on_c, 13, 62, 76
11, 101744, Note_on_c, 13, 62, 0
11, 101760, Note_on_c, 13, 60, 76
11, 101999, Note_on_c, 13, 60, 0
11, 102120, Note_on_c, 13, 64, 76
11, 102224, Note_on_c, 13, 64, 0
11, 102240, Note_on_c, 13, 65, 76
11, 102344, Note_on_c, 13, 65, 0
11, 102360, Note_on_c, 13, 62, 76
11, 102464, Note_on_c, 13, 62, 0
11, 102480, Note_on_c, 13, 59, 76
11, 102584, Note_on_c, 13, 59, 0
11, 102600, Note_on_c, 13, 60, 76
11, 102644, Note_on_c, 13, 60, 0
11, 102660, Note_on_c, 13, 62, 76
11, 102704, Note_on_c, 13, 62, 0
11, 102720, Note_on_c, 13, 64, 76
11, 102764, Note_on_c, 13, 64, 0
11, 102780, Note_on_c, 13, 67, 76
11, 102824, Note_on_c, 13, 67, 0
11, 102840, Note_on_c, 13, 65, 76
11, 102884, Note_on_c, 13, 65, 0
11, 102900, Note_on_c, 13, 64, 76
11, 102944, Note_on_c, 13, 64, 0
11, 102960, Note_on_c, 13, 62, 76
11, 103004, Note_on_c, 13, 62, 0
11, 103020, Note_on_c, 13, 60, 76
11, 103064, Note_on_c, 13, 60, 0
11, 103080, Note_on_c, 13, 59, 76
11, 103124, Note_on_c, 13, 59, 0
11, 103140, Note_on_c, 13, 57, 76
11, 103184, Note_on_c, 13, 57, 0
11, 103200, Note_on_c, 13, 55, 76
11, 103304, Note_on_c, 13, 55, 0
11, 103320, Note_on_c, 13, 67, 76
11, 103484, Note_on_c, 13, 67, 0
11, 103500, Note_on_c, 13, 64, 76
11, 103544, Note_on_c, 13, 64, 0
11, 103560, Note_on_c, 13, 62, 76
11, 103604, Note_on_c, 13, 62, 0
11, 103620, Note_on_c, 13, 64, 76
11, 103664, Note_on_c, 13, 64, 0
11, 103680, Note_on_c, 13, 65, 76
11, 103964, Note_on_c, 13, 65, 0
11, 103980, Note_on_c, 13, 65, 76
11, 104024, Note_on_c, 13, 65, 0
11, 104040, Note_on_c, 13, 67, 76
11, 104084, Note_on_c, 13, 67, 0
11, 104100, Note_on_c, 13, 69, 76
11, 104144, Note_on_c, 13, 69, 0
11, 104160, Note_on_c, 13, 67, 76
11, 104204, Note_on_c, 13, 67, 0
11, 104220, Note_on_c, 13, 67, 76
11, 104264, Note_on_c, 13, 67, 0
11, 104280, Note_on_c, 13, 69, 76
11, 104324, Note_on_c, 13, 69, 0
11, 104340, Note_on_c, 13, 70, 76
11, 104384, Note_on_c, 13, 70, 0
11, 104400, Note_on_c, 13, 64, 76
11, 104504, Note_on_c, 13, 64, 0
11, 104520, Note_on_c, 13, 69, 76
11, 104684, Note_on_c, 13, 69, 0
11, 104700, Note_on_c, 13, 67, 76
11, 104744, Note_on_c, 13, 67, 0
11, 104760, Note_on_c, 13, 65, 76
11, 104804, Note_on_c, 13, 65, 0
11, 104820, Note_on_c, 13, 64, 76
11, 104864, Note_on_c, 13, 64, 0
11, 104880, Note_on_c, 13, 62, 76
11, 104984, Note_on_c, 13, 62, 0
11, 105000, Note_on_c, 13, 67, 76
11, 105104, Note_on_c, 13, 67, 0
11, 105120, Note_on_c, 13, 67, 76
11, 105344, Note_on_c, 13, 67, 0
11, 105360, Note_on_c, 13, 64, 76
11, 105524, Note_on_c, 13, 64, 0
11, 105540, Note_on_c, 13, 64, 76
11, 105584, Note_on_c, 13, 64, 0
11, 105600, Note_on_c, 13, 69, 76
11, 105704, Note_on_c, 13, 69, 0
11, 105720, Note_on_c, 13, 57, 76
11, 105824, Note_on_c, 13, 57, 0
11, 105840, Note_on_c, 13, 62, 76
11, 106004, Note_on_c, 13, 62, 0
11, 106020, Note_on_c, 13, 62, 76
11, 106064, Note_on_c, 13, 62, 0
11, 106080, Note_on_c, 13, 67, 76
11, 106184, Note_on_c, 13, 67, 0
11, 106200, Note_on_c, 13, 55, 76
11, 106304, Note_on_c, 13, 55, 0
11, 106320, Note_on_c, 13, 60, 76
11, 106484, Note_on_c, 13, 60, 0
11, 106500, Note_on_c, 13, 60, 76
11, 106544, Note_on_c, 13, 60, 0
11, 106560, Note_on_c, 13, 65, 76
11, 106664, Note_on_c, 13, 65, 0
11, 106680, Note_on_c, 13, 53, 76
11, 106784, Note_on_c, 13, 53, 0
11, 106800, Note_on_c, 13, 59, 76
11, 106964, Note_on_c, 13, 59, 0
11, 106980, Note_on_c, 13, 59, 76
11, 107024, Note_on_c, 13, 59, 0
11, 107040, Note_on_c, 13, 64, 76
11, 107144, Note_on_c, 13, 64, 0
11, 107160, Note_on_c, 13, 52, 76
11, 107264, Note_on_c, 13, 52, 0
11, 107280, Note_on_c, 13, 57, 76
11, 107444, Note_on_c, 13, 57, 0
11, 107460, Note_on_c, 13, 57, 76
11, 107504, Note_on_c, 13, 57, 0
11, 107520, Note_on_c, 13, 62, 76
11, 107564, Note_on_c, 13, 62, 0
11, 107580, Note_on_c, 13, 60, 76
11, 107624, Note_on_c, 13, 60, 0
11, 107640, Note_on_c, 13, 62, 76
11, 107684, Note_on_c, 13, 62, 0
11, 107700, Note_on_c, 13, 59, 76
11, 107744, Note_on_c, 13, 59, 0
11, 107760, Note_on_c, 13, 64, 76
11, 107864, Note_on_c, 13, 64, 0
11, 107880, Note_on_c, 13, 62, 76
11, 107984, Note_on_c, 13, 62, 0
11, 108000, Note_on_c, 13, 60, 76
11, 108104, Note_on_c, 13, 60, 0
11, 108120, Note_on_c, 13, 62, 76
11, 108164, Note_on_c, 13, 62, 0
11, 108180, Note_on_c, 13, 64, 76
11, 108224, Note_on_c, 13, 64, 0
11, 108240, Note_on_c, 13, 65, 76
11, 108344, Note_on_c, 13, 65, 0
11, 108360, Note_on_c, 13, 65, 76
11, 108464, Note_on_c, 13, 65, 0
11, 108480, Note_on_c, 13, 67, 76
11, 108584, Note_on_c, 13, 67, 0
11, 108600, Note_on_c, 13, 62, 76
11, 108704, Note_on_c, 13, 62, 0
11, 108720, Note_on_c, 13, 67, 76
11, 108824, Note_on_c, 13, 67, 0
11, 108840, Note_on_c, 13, 71, 76
11, 108944, Note_on_c, 13, 71, 0
11, 108960, Note_on_c, 13, 67, 76
11, 109064, Note_on_c, 13, 67, 0
11, 109080, Note_on_c, 13, 69, 76
11, 109184, Note_on_c, 13, 69, 0
11, 109200, Note_on_c, 13, 62, 76
11, 109304, Note_on_c, 13, 62, 0
11, 109320, Note_on_c, 13, 67, 76
11, 109424, Note_on_c, 13, 67, 0
11, 109440, Note_on_c, 13, 64, 76
11, 109611, Note_on_c, 13, 64, 0
11, 109620, Note_on_c, 13, 62, 76
11, 109671, Note_on_c, 13, 62, 0
11, 109680, Note_on_c, 13, 60, 76
11, 109851, Note_on_c, 13, 60, 0
11, 109860, Note_on_c, 13, 62, 76
11, 109911, Note_on_c, 13, 62, 0
11, 109920, Note_on_c, 13, 64, 76
11, 110211, Note_on_c, 13, 64, 0
11, 110220, Note_on_c, 13, 64, 76
11, 110271, Note_on_c, 13, 64, 0
11, 110280, Note_on_c, 13, 62, 76
11, 110331, Note_on_c, 13, 62, 0
11, 110340, Note_on_c, 13, 60, 76
11, 110391, Note_on_c, 13, 60, 0
11, 110400, Note_on_c, 13, 67, 76
11, 110571, Note_on_c, 13, 67, 0
11, 110580, Note_on_c, 13, 69, 76
11, 110631, Note_on_c, 13, 69, 0
11, 110640, Note_on_c, 13, 67, 76
11, 110811, Note_on_c, 13, 67, 0
11, 110820, Note_on_c, 13, 65, 76
11, 110871, Note_on_c, 13, 65, 0
11, 110880, Note_on_c, 13, 64, 76
11, 111051, Note_on_c, 13, 64, 0
11, 111060, Note_on_c, 13, 62, 76
11, 111111, Note_on_c, 13, 62, 0
11, 111120, Note_on_c, 13, 60, 76
11, 111291, Note_on_c, 13, 60, 0
11, 111300, Note_on_c, 13, 60, 76
11, 111351, Note_on_c, 13, 60, 0
11, 111360, Note_on_c, 13, 60, 76
11, 111531, Note_on_c, 13, 60, 0
11, 111540, Note_on_c, 13, 65, 76
11, 111591, Note_on_c, 13, 65, 0
11, 111600, Note_on_c, 13, 69, 76
11, 111771, Note_on_c, 13, 69, 0
11, 111780, Note_on_c, 13, 67, 76
11, 111831, Note_on_c, 13, 67, 0
11, 111840, Note_on_c, 13, 65, 76
11, 112191, Note_on_c, 13, 65, 0
11, 112200, Note_on_c, 13, 62, 76
11, 112311, Note_on_c, 13, 62, 0
11, 112320, Note_on_c, 13, 70, 76
11, 112671, Note_on_c, 13, 70, 0
11, 112680, Note_on_c, 13, 70, 76
11, 112791, Note_on_c, 13, 70, 0
11, 112800, Note_on_c, 13, 64, 76
11, 113031, Note_on_c, 13, 64, 0
11, 113040, Note_on_c, 13, 69, 76
11, 113271, Note_on_c, 13, 69, 0
11, 113280, Note_on_c, 13, 69, 76
11, 113451, Note_on_c, 13, 69, 0
11, 113460, Note_on_c, 13, 65, 76
11, 113511, Note_on_c, 13, 65, 0
11, 113520, Note_on_c, 13, 62, 76
11, 113691, Note_on_c, 13, 62, 0
11, 113700, Note_on_c, 13, 57, 76
11, 113751, Note_on_c, 13, 57, 0
11, 113760, Note_on_c, 13, 62, 76
11, 114111, Note_on_c, 13, 62, 0
11, 114120, Note_on_c, 13, 62, 76
11, 114231, Note_on_c, 13, 62, 0
11, 114240, Note_on_c, 13, 62, 76
11, 114411, Note_on_c, 13, 62, 0
11, 114420, Note_on_c, 13, 69, 76
11, 114471, Note_on_c, 13, 69, 0
11, 114480, Note_on_c, 13, 67, 76
11, 114651, Note_on_c, 13, 67, 0
11, 114660, Note_on_c, 13, 65, 76
11, 114711, Note_on_c, 13, 65, 0
11, 114720, Note_on_c, 13, 64, 76
11, 114891, Note_on_c, 13, 64, 0
11, 114900, Note_on_c, 13, 65, 76
11, 114951, Note_on_c, 13, 65, 0
11, 114960, Note_on_c, 13, 67, 76
11, 115131, Note_on_c, 13, 67, 0
11, 115140, Note_on_c, 13, 64, 76
11, 115191, Note_on_c, 13, 64, 0
11, 115200, Note_on_c, 13, 65, 76
11, 115371, Note_on_c, 13, 65, 0
11, 115380, Note_on_c, 13, 69, 76
11, 115431, Note_on_c, 13, 69, 0
11, 115440, Note_on_c, 13, 74, 76
11, 115611, Note_on_c, 13, 74, 0
11, 115620, Note_on_c, 13, 69, 76
11, 115671, Note_on_c, 13, 69, 0
11, 115680, Note_on_c, 13, 62, 76
11, 115971, Note_on_c, 13, 62, 0
11, 115980, Note_on_c, 13, 60, 76
11, 116031, Note_on_c, 13, 60, 0
11, 116040, Note_on_c, 13, 62, 76
11, 116091, Note_on_c, 13, 62, 0
11, 116100, Note_on_c, 13, 64, 76
11, 116151, Note_on_c, 13, 64, 0
11, 116160, Note_on_c, 13, 65, 76
11, 116211, Note_on_c, 13, 65, 0
11, 116220, Note_on_c, 13, 67, 76
11, 116271, Note_on_c, 13, 67, 0
11, 116280, Note_on_c, 13, 69, 76
11, 116331, Note_on_c, 13, 69, 0
11, 116340, Note_on_c, 13, 67, 76
11, 116391, Note_on_c, 13, 67, 0
11, 116400, Note_on_c, 13, 65, 76
11, 116451, Note_on_c, 13, 65, 0
11, 116460, Note_on_c, 13, 64, 76
11, 116511, Note_on_c, 13, 64, 0
11, 116520, Note_on_c, 13, 62, 76
11, 116571, Note_on_c, 13, 62, 0
11, 116580, Note_on_c, 13, 64, 76
11, 116631, Note_on_c, 13, 64, 0
11, 116640, Note_on_c, 13, 65, 76
11, 116991, Note_on_c, 13, 65, 0
11, 117000, Note_on_c, 13, 64, 76
11, 117111, Note_on_c, 13, 64, 0
11, 117120, Note_on_c, 13, 62, 76
11, 117291, Note_on_c, 13, 62, 0
11, 117300, Note_on_c, 13, 64, 76
11, 117351, Note_on_c, 13, 64, 0
11, 117360, Note_on_c, 13, 62, 76
11, 117531, Note_on_c, 13, 62, 0
11, 117540, Note_on_c, 13, 60, 76
11, 117591, Note_on_c, 13, 60, 0
11, 117600, Note_on_c, 13, 59, 76
11, 117771, Note_on_c, 13, 59, 0
11, 117780, Note_on_c, 13, 62, 76
11, 117831, Note_on_c, 13, 62, 0
11, 117840, Note_on_c, 13, 67, 76
11, 118011, Note_on_c, 13, 67, 0
11, 118020, Note_on_c, 13, 71, 76
11, 118071, Note_on_c, 13, 71, 0
11, 118080, Note_on_c, 13, 71, 76
11, 118251, Note_on_c, 13, 71, 0
11, 118260, Note_on_c, 13, 67, 76
11, 118311, Note_on_c, 13, 67, 0
11, 118320, Note_on_c, 13, 60, 76
11, 118491, Note_on_c, 13, 60, 0
11, 118500, Note_on_c, 13, 62, 76
11, 118551, Note_on_c, 13, 62, 0
11, 118560, Note_on_c, 13, 64, 76
11, 118911, Note_on_c, 13, 64, 0
11, 118920, Note_on_c, 13, 64, 76
11, 119031, Note_on_c, 13, 64, 0
11, 119040, Note_on_c, 13, 64, 76
11, 119211, Note_on_c, 13, 64, 0
11, 119220, Note_on_c, 13, 60, 76
11, 119271, Note_on_c, 13, 60, 0
11, 119280, Note_on_c, 13, 65, 76
11, 119451, Note_on_c, 13, 65, 0
11, 119460, Note_on_c, 13, 64, 76
11, 119511, Note_on_c, 13, 64, 0
11, 119520, Note_on_c, 13, 62, 76
11, 119691, Note_on_c, 13, 62, 0
11, 119700, Note_on_c, 13, 64, 76
11, 119751, Note_on_c, 13, 64, 0
11, 119760, Note_on_c, 13, 65, 76
11, 119931, Note_on_c, 13, 65, 0
11, 119940, Note_on_c, 13, 67, 76
11, 119991, Note_on_c, 13, 67, 0
11, 120000, Note_on_c, 13, 69, 76
11, 120231, Note_on_c, 13, 69, 0
11, 120240, Note_on_c, 13, 62, 76
11, 120471, Note_on_c, 13, 62, 0
11, 120480, Note_on_c, 13, 65, 76
11, 120831, Note_on_c, 13, 65, 0
11, 120840, Note_on_c, 13, 69, 76
11, 120951, Note_on_c, 13, 69, 0
11, 120960, Note_on_c, 13, 62, 76
11, 121131, Note_on_c, 13, 62, 0
11, 121140, Note_on_c, 13, 65, 76
11, 121191, Note_on_c, 13, 65, 0
11, 121200, Note_on_c, 13, 64, 76
11, 121371, Note_on_c, 13, 64, 0
11, 121380, Note_on_c, 13, 62, 76
11, 121431, Note_on_c, 13, 62, 0
11, 121440, Note_on_c, 13, 60, 76
11, 121791, Note_on_c, 13, 60, 0
11, 121800, Note_on_c, 13, 60, 76
11, 121911, Note_on_c, 13, 60, 0
11, 121920, Note_on_c, 13, 60, 76
11, 122091, Note_on_c, 13, 60, 0
11, 122100, Note_on_c, 13, 57, 76
11, 122151, Note_on_c, 13, 57, 0
11, 122160, Note_on_c, 13, 62, 76
11, 122331, Note_on_c, 13, 62, 0
11, 122340, Note_on_c, 13, 60, 76
11, 122391, Note_on_c, 13, 60, 0
11, 122400, Note_on_c, 13, 59, 76
11, 122571, Note_on_c, 13, 59, 0
11, 122580, Note_on_c, 13, 60, 76
11, 122631, Note_on_c, 13, 60, 0
11, 122640, Note_on_c, 13, 59, 76
11, 122811, Note_on_c, 13, 59, 0
11, 122820, Note_on_c, 13, 60, 76
11, 122871, Note_on_c, 13, 60, 0
11, 122880, Note_on_c, 13, 62, 76
11, 123051, Note_on_c, 13, 62, 0
11, 123060, Note_on_c, 13, 55, 76
11, 123111, Note_on_c, 13, 55, 0
11, 123120, Note_on_c, 13, 67, 76
11, 123291, Note_on_c, 13, 67, 0
11, 123300, Note_on_c, 13, 69, 76
11, 123351, Note_on_c, 13, 69, 0
11, 123360, Note_on_c, 13, 67, 76
11, 123591, Note_on_c, 13, 67, 0
11, 123600, Note_on_c, 13, 62, 76
11, 123831, Note_on_c, 13, 62, 0
11, 123840, Note_on_c, 13, 64, 76
11, 124079, Note_on_c, 13, 64, 0
11, 126840, Note_on_c, 13, 67, 76
11, 126944, Note_on_c, 13, 67, 0
11, 126960, Note_on_c, 13, 67, 76
11, 127064, Note_on_c, 13, 67, 0
11, 127080, Note_on_c, 13, 67, 76
11, 127184, Note_on_c, 13, 67, 0
11, 127200, Note_on_c, 13, 64, 76
11, 127304, Note_on_c, 13, 64, 0
11, 127320, Note_on_c, 13, 65, 76
11, 127364, Note_on_c, 13, 65, 0
11, 127380, Note_on_c, 13, 67, 76
11, 127424, Note_on_c, 13, 67, 0
11, 127440, Note_on_c, 13, 69, 76
11, 127544, Note_on_c, 13, 69, 0
11, 127560, Note_on_c, 13, 65, 76
11, 127664, Note_on_c, 13, 65, 0
11, 127680, Note_on_c, 13, 62, 76
11, 127784, Note_on_c, 13, 62, 0
11, 127800, Note_on_c, 13, 67, 76
11, 127904, Note_on_c, 13, 67, 0
11, 127920, Note_on_c, 13, 55, 76
11, 128024, Note_on_c, 13, 55, 0
11, 128040, Note_on_c, 13, 65, 76
11, 128144, Note_on_c, 13, 65, 0
11, 128160, Note_on_c, 13, 64, 76
11, 128204, Note_on_c, 13, 64, 0
11, 128220, Note_on_c, 13, 62, 76
11, 128264, Note_on_c, 13, 62, 0
11, 128280, Note_on_c, 13, 60, 76
11, 128324, Note_on_c, 13, 60, 0
11, 128340, Note_on_c, 13, 62, 76
11, 128384, Note_on_c, 13, 62, 0
11, 128400, Note_on_c, 13, 64, 76
11, 128444, Note_on_c, 13, 64, 0
11, 128460, Note_on_c, 13, 62, 76
11, 128504, Note_on_c, 13, 62, 0
11, 128520, Note_on_c, 13, 64, 76
11, 128564, Note_on_c, 13, 64, 0
11, 128580, Note_on_c, 13, 66, 76
11, 128624, Note_on_c, 13, 66, 0
11, 128640, Note_on_c, 13, 67, 76
11, 128804, Note_on_c, 13, 67, 0
11, 128820, Note_on_c, 13, 62, 76
11, 128864, Note_on_c, 13, 62, 0
11, 128880, Note_on_c, 13, 67, 76
11, 129044, Note_on_c, 13, 67, 0
11, 129060, Note_on_c, 13, 67, 76
11, 129104, Note_on_c, 13, 67, 0
11, 129120, Note_on_c, 13, 67, 76
11, 129284, Note_on_c, 13, 67, 0
11, 129300, Note_on_c, 13, 66, 76
11, 129319, Note_on_c, 13, 66, 0
11, 129320, Note_on_c, 13, 64, 76
11, 129339, Note_on_c, 13, 64, 0
11, 129340, Note_on_c, 13, 66, 76
11, 129359, Note_on_c, 13, 66, 0
11, 129360, Note_on_c, 13, 66, 76
11, 129389, Note_on_c, 13, 66, 0
11, 129390, Note_on_c, 13, 67, 76
11, 129419, Note_on_c, 13, 67, 0
11, 129420, Note_on_c, 13, 66, 76
11, 129449, Note_on_c, 13, 66, 0
11, 129450, Note_on_c, 13, 67, 76
11, 129479, Note_on_c, 13, 67, 0
11, 129480, Note_on_c, 13, 64, 76
11, 129509, Note_on_c, 13, 64, 0
11, 129510, Note_on_c, 13, 66, 76
11, 129539, Note_on_c, 13, 66, 0
11, 129540, Note_on_c, 13, 67, 76
11, 129584, Note_on_c, 13, 67, 0
11, 129600, Note_on_c, 13, 67, 76
11, 129644, Note_on_c, 13, 67, 0
11, 129660, Note_on_c, 13, 69, 76
11, 129704, Note_on_c, 13, 69, 0
11, 129720, Note_on_c, 13, 71, 76
11, 129764, Note_on_c, 13, 71, 0
11, 129780, Note_on_c, 13, 72, 76
11, 129824, Note_on_c, 13, 72, 0
11, 129840, Note_on_c, 13, 74, 76
11, 129944, Note_on_c, 13, 74, 0
11, 129960, Note_on_c, 13, 67, 76
11, 130064, Note_on_c, 13, 67, 0
11, 130080, Note_on_c, 13, 72, 76
11, 130304, Note_on_c, 13, 72, 0
11, 130320, Note_on_c, 13, 64, 76
11, 130484, Note_on_c, 13, 64, 0
11, 130500, Note_on_c, 13, 64, 76
11, 130544, Note_on_c, 13, 64, 0
11, 130560, Note_on_c, 13, 69, 76
11, 130664, Note_on_c, 13, 69, 0
11, 130680, Note_on_c, 13, 57, 76
11, 130784, Note_on_c, 13, 57, 0
11, 130800, Note_on_c, 13, 62, 76
11, 130964, Note_on_c, 13, 62, 0
11, 130980, Note_on_c, 13, 62, 76
11, 131024, Note_on_c, 13, 62, 0
11, 131040, Note_on_c, 13, 67, 76
11, 131144, Note_on_c, 13, 67, 0
11, 131160, Note_on_c, 13, 55, 76
11, 131264, Note_on_c, 13, 55, 0
11, 131280, Note_on_c, 13, 60, 76
11, 131444, Note_on_c, 13, 60, 0
11, 131460, Note_on_c, 13, 60, 76
11, 131504, Note_on_c, 13, 60, 0
11, 131520, Note_on_c, 13, 65, 76
11, 131624, Note_on_c, 13, 65, 0
11, 131640, Note_on_c, 13, 53, 76
11, 131744, Note_on_c, 13, 53, 0
11, 131760, Note_on_c, 13, 59, 76
11, 131924, Note_on_c, 13, 59, 0
11, 131940, Note_on_c, 13, 59, 76
11, 131984, Note_on_c, 13, 59, 0
11, 132000, Note_on_c, 13, 64, 76
11, 132104, Note_on_c, 13, 64, 0
11, 132120, Note_on_c, 13, 52, 76
11, 132224, Note_on_c, 13, 52, 0
11, 132240, Note_on_c, 13, 57, 76
11, 132404, Note_on_c, 13, 57, 0
11, 132420, Note_on_c, 13, 57, 76
11, 132464, Note_on_c, 13, 57, 0
11, 132480, Note_on_c, 13, 62, 76
11, 132524, Note_on_c, 13, 62, 0
11, 132540, Note_on_c, 13, 60, 76
11, 132584, Note_on_c, 13, 60, 0
11, 132600, Note_on_c, 13, 62, 76
11, 132644, Note_on_c, 13, 62, 0
11, 132660, Note_on_c, 13, 59, 76
11, 132704, Note_on_c, 13, 59, 0
11, 132720, Note_on_c, 13, 64, 76
11, 132824, Note_on_c, 13, 64, 0
11, 132840, Note_on_c, 13, 62, 76
11, 132944, Note_on_c, 13, 62, 0
11, 132960, Note_on_c, 13, 60, 76
11, 133064, Note_on_c, 13, 60, 0
11, 133080, Note_on_c, 13, 62, 76
11, 133124, Note_on_c, 13, 62, 0
11, 133140, Note_on_c, 13, 64, 76
11, 133184, Note_on_c, 13, 64, 0
11, 133200, Note_on_c, 13, 65, 76
11, 133304, Note_on_c, 13, 65, 0
11, 133320, Note_on_c, 13, 65, 76
11, 133424, Note_on_c, 13, 65, 0
11, 133440, Note_on_c, 13, 67, 76
11, 133544, Note_on_c, 13, 67, 0
11, 133560, Note_on_c, 13, 62, 76
11, 133664, Note_on_c, 13, 62, 0
11, 133680, Note_on_c, 13, 67, 76
11, 133784, Note_on_c, 13, 67, 0
11, 133800, Note_on_c, 13, 71, 76
11, 133904, Note_on_c, 13, 71, 0
11, 133920, Note_on_c, 13, 67, 76
11, 134024, Note_on_c, 13, 67, 0
11, 134040, Note_on_c, 13, 69, 76
11, 134144, Note_on_c, 13, 69, 0
11, 134160, Note_on_c, 13, 62, 76
11, 134264, Note_on_c, 13, 62, 0
11, 134280, Note_on_c, 13, 67, 76
11, 134384, Note_on_c, 13, 67, 0
11, 134400, Note_on_c, 13, 64, 76
11, 134519, Note_on_c, 13, 64, 0
11, 139740, Note_on_c, 13, 57, 76
11, 139784, Note_on_c, 13, 57, 0
11, 139800, Note_on_c, 13, 59, 76
11, 139844, Note_on_c, 13, 59, 0
11, 139860, Note_on_c, 13, 60, 76
11, 139904, Note_on_c, 13, 60, 0
11, 139920, Note_on_c, 13, 62, 76
11, 139964, Note_on_c, 13, 62, 0
11, 139980, Note_on_c, 13, 59, 76
11, 140024, Note_on_c, 13, 59, 0
11, 140040, Note_on_c, 13, 60, 76
11, 140084, Note_on_c, 13, 60, 0
11, 140100, Note_on_c, 13, 62, 76
11, 140144, Note_on_c, 13, 62, 0
11, 140160, Note_on_c, 13, 64, 76
11, 140204, Note_on_c, 13, 64, 0
11, 140220, Note_on_c, 13, 65, 76
11, 140264, Note_on_c, 13, 65, 0
11, 140280, Note_on_c, 13, 64, 76
11, 140324, Note_on_c, 13, 64, 0
11, 140340, Note_on_c, 13, 62, 76
11, 140384, Note_on_c, 13, 62, 0
11, 140400, Note_on_c, 13, 60, 76
11, 140444, Note_on_c, 13, 60, 0
11, 140460, Note_on_c, 13, 62, 76
11, 140504, Note_on_c, 13, 62, 0
11, 140520, Note_on_c, 13, 64, 76
11, 140564, Note_on_c, 13, 64, 0
11, 140580, Note_on_c, 13, 60, 76
11, 140624, Note_on_c, 13, 60, 0
11, 140640, Note_on_c, 13, 62, 76
11, 140744, Note_on_c, 13, 62, 0
11, 140760, Note_on_c, 13, 62, 76
11, 140864, Note_on_c, 13, 62, 0
11, 140880, Note_on_c, 13, 62, 76
11, 140984, Note_on_c, 13, 62, 0
11, 141000, Note_on_c, 13, 62, 76
11, 141104, Note_on_c, 13, 62, 0
11, 141120, Note_on_c, 13, 59, 76
11, 141224, Note_on_c, 13, 59, 0
11, 141240, Note_on_c, 13, 60, 76
11, 141284, Note_on_c, 13, 60, 0
11, 141300, Note_on_c, 13, 62, 76
11, 141344, Note_on_c, 13, 62, 0
11, 141360, Note_on_c, 13, 64, 76
11, 141464, Note_on_c, 13, 64, 0
11, 141480, Note_on_c, 13, 60, 76
11, 141584, Note_on_c, 13, 60, 0
11, 141600, Note_on_c, 13, 57, 76
11, 141704, Note_on_c, 13, 57, 0
11, 141720, Note_on_c, 13, 62, 76
11, 141824, Note_on_c, 13, 62, 0
11, 141840, Note_on_c, 13, 52, 76
11, 141944, Note_on_c, 13, 52, 0
11, 141960, Note_on_c, 13, 64, 76
11, 142064, Note_on_c, 13, 64, 0
11, 142080, Note_on_c, 13, 64, 76
11, 142184, Note_on_c, 13, 64, 0
11, 142200, Note_on_c, 13, 69, 76
11, 142304, Note_on_c, 13, 69, 0
11, 142320, Note_on_c, 13, 64, 76
11, 142424, Note_on_c, 13, 64, 0
11, 142440, Note_on_c, 13, 66, 76
11, 142544, Note_on_c, 13, 66, 0
11, 142560, Note_on_c, 13, 67, 76
11, 142664, Note_on_c, 13, 67, 0
11, 142680, Note_on_c, 13, 63, 76
11, 142784, Note_on_c, 13, 63, 0
11, 142800, Note_on_c, 13, 64, 76
11, 142964, Note_on_c, 13, 64, 0
11, 142980, Note_on_c, 13, 64, 76
11, 143024, Note_on_c, 13, 64, 0
11, 143040, Note_on_c, 13, 66, 76
11, 143084, Note_on_c, 13, 66, 0
11, 143100, Note_on_c, 13, 64, 76
11, 143144, Note_on_c, 13, 64, 0
11, 143160, Note_on_c, 13, 63, 76
11, 143204, Note_on_c, 13, 63, 0
11, 143220, Note_on_c, 13, 64, 76
11, 143264, Note_on_c, 13, 64, 0
11, 143280, Note_on_c, 13, 66, 76
11, 143324, Note_on_c, 13, 66, 0
11, 143340, Note_on_c, 13, 67, 76
11, 143384, Note_on_c, 13, 67, 0
11, 143400, Note_on_c, 13, 64, 76
11, 143444, Note_on_c, 13, 64, 0
11, 143460, Note_on_c, 13, 66, 76
11, 143504, Note_on_c, 13, 66, 0
11, 143520, Note_on_c, 13, 67, 76
11, 143624, Note_on_c, 13, 67, 0
11, 143640, Note_on_c, 13, 64, 76
11, 143744, Note_on_c, 13, 64, 0
11, 143760, Note_on_c, 13, 69, 76
11, 144104, Note_on_c, 13, 69, 0
11, 144120, Note_on_c, 13, 68, 76
11, 144164, Note_on_c, 13, 68, 0
11, 144180, Note_on_c, 13, 66, 76
11, 144224, Note_on_c, 13, 66, 0
11, 144240, Note_on_c, 13, 68, 76
11, 144344, Note_on_c, 13, 68, 0
11, 144360, Note_on_c, 13, 69, 76
11, 144464, Note_on_c, 13, 69, 0
11, 144480, Note_on_c, 13, 71, 76
11, 144524, Note_on_c, 13, 71, 0
11, 144540, Note_on_c, 13, 69, 76
11, 144584, Note_on_c, 13, 69, 0
11, 144600, Note_on_c, 13, 71, 76
11, 144644, Note_on_c, 13, 71, 0
11, 144660, Note_on_c, 13, 68, 76
11, 144704, Note_on_c, 13, 68, 0
11, 144720, Note_on_c, 13, 69, 76
11, 144764, Note_on_c, 13, 69, 0
11, 144780, Note_on_c, 13, 71, 76
11, 144824, Note_on_c, 13, 71, 0
11, 144840, Note_on_c, 13, 72, 76
11, 144884, Note_on_c, 13, 72, 0
11, 144900, Note_on_c, 13, 74, 76
11, 144944, Note_on_c, 13, 74, 0
11, 144960, Note_on_c, 13, 76, 76
11, 145004, Note_on_c, 13, 76, 0
11, 145020, Note_on_c, 13, 71, 76
11, 145064, Note_on_c, 13, 71, 0
11, 145080, Note_on_c, 13, 72, 76
11, 145124, Note_on_c, 13, 72, 0
11, 145140, Note_on_c, 13, 69, 76
11, 145184, Note_on_c, 13, 69, 0
11, 145200, Note_on_c, 13, 64, 76
11, 145484, Note_on_c, 13, 64, 0
11, 145500, Note_on_c, 13, 62, 76
11, 145544, Note_on_c, 13, 62, 0
11, 145560, Note_on_c, 13, 60, 76
11, 145604, Note_on_c, 13, 60, 0
11, 145620, Note_on_c, 13, 59, 76
11, 145664, Note_on_c, 13, 59, 0
11, 145680, Note_on_c, 13, 57, 76
11, 145724, Note_on_c, 13, 57, 0
11, 145740, Note_on_c, 13, 60, 76
11, 145784, Note_on_c, 13, 60, 0
11, 145800, Note_on_c, 13, 62, 76
11, 145844, Note_on_c, 13, 62, 0
11, 145860, Note_on_c, 13, 64, 76
11, 145904, Note_on_c, 13, 64, 0
11, 145920, Note_on_c, 13, 65, 76
11, 146024, Note_on_c, 13, 65, 0
11, 146040, Note_on_c, 13, 56, 76
11, 146144, Note_on_c, 13, 56, 0
11, 146160, Note_on_c, 13, 59, 76
11, 146264, Note_on_c, 13, 59, 0
11, 146280, Note_on_c, 13, 64, 76
11, 146384, Note_on_c, 13, 64, 0
11, 146400, Note_on_c, 13, 64, 76
11, 146504, Note_on_c, 13, 64, 0
11, 146520, Note_on_c, 13, 69, 76
11, 146564, Note_on_c, 13, 69, 0
11, 146580, Note_on_c, 13, 68, 76
11, 146624, Note_on_c, 13, 68, 0
11, 146640, Note_on_c, 13, 69, 76
11, 146744, Note_on_c, 13, 69, 0
11, 146760, Note_on_c, 13, 72, 76
11, 146804, Note_on_c, 13, 72, 0
11, 146820, Note_on_c, 13, 71, 76
11, 146864, Note_on_c, 13, 71, 0
11, 146880, Note_on_c, 13, 69, 76
11, 146924, Note_on_c, 13, 69, 0
11, 146940, Note_on_c, 13, 71, 76
11, 146984, Note_on_c, 13, 71, 0
11, 147000, Note_on_c, 13, 69, 76
11, 147044, Note_on_c, 13, 69, 0
11, 147060, Note_on_c, 13, 67, 76
11, 147104, Note_on_c, 13, 67, 0
11, 147120, Note_on_c, 13, 65, 76
11, 147164, Note_on_c, 13, 65, 0
11, 147180, Note_on_c, 13, 64, 76
11, 147224, Note_on_c, 13, 64, 0
11, 147240, Note_on_c, 13, 65, 76
11, 147284, Note_on_c, 13, 65, 0
11, 147300, Note_on_c, 13, 62, 76
11, 147344, Note_on_c, 13, 62, 0
11, 147360, Note_on_c, 13, 56, 76
11, 147464, Note_on_c, 13, 56, 0
11, 147480, Note_on_c, 13, 68, 76
11, 147584, Note_on_c, 13, 68, 0
11, 147600, Note_on_c, 13, 69, 76
11, 147704, Note_on_c, 13, 69, 0
11, 147720, Note_on_c, 13, 71, 76
11, 147824, Note_on_c, 13, 71, 0
11, 147840, Note_on_c, 13, 64, 76
11, 147944, Note_on_c, 13, 64, 0
11, 147960, Note_on_c, 13, 65, 76
11, 148064, Note_on_c, 13, 65, 0
11, 148080, Note_on_c, 13, 64, 76
11, 148184, Note_on_c, 13, 64, 0
11, 148200, Note_on_c, 13, 62, 76
11, 148304, Note_on_c, 13, 62, 0
11, 148320, Note_on_c, 13, 60, 76
11, 148424, Note_on_c, 13, 60, 0
11, 148440, Note_on_c, 13, 69, 76
11, 148544, Note_on_c, 13, 69, 0
11, 148560, Note_on_c, 13, 69, 76
11, 148664, Note_on_c, 13, 69, 0
11, 148680, Note_on_c, 13, 69, 76
11, 148784, Note_on_c, 13, 69, 0
11, 148800, Note_on_c, 13, 67, 76
11, 148904, Note_on_c, 13, 67, 0
11, 148920, Note_on_c, 13, 69, 76
11, 148964, Note_on_c, 13, 69, 0
11, 148980, Note_on_c, 13, 71, 76
11, 149024, Note_on_c, 13, 71, 0
11, 149040, Note_on_c, 13, 72, 76
11, 149144, Note_on_c, 13, 72, 0
11, 149160, Note_on_c, 13, 69, 76
11, 149264, Note_on_c, 13, 69, 0
11, 149280, Note_on_c, 13, 66, 76
11, 149384, Note_on_c, 13, 66, 0
11, 149400, Note_on_c, 13, 71, 76
11, 149504, Note_on_c, 13, 71, 0
11, 149520, Note_on_c, 13, 59, 76
11, 149624, Note_on_c, 13, 59, 0
11, 149640, Note_on_c, 13, 71, 76
11, 149744, Note_on_c, 13, 71, 0
11, 149760, Note_on_c, 13, 64, 76
11, 149864, Note_on_c, 13, 64, 0
11, 149880, Note_on_c, 13, 67, 76
11, 149984, Note_on_c, 13, 67, 0
11, 150000, Note_on_c, 13, 67, 76
11, 150104, Note_on_c, 13, 67, 0
11, 150120, Note_on_c, 13, 67, 76
11, 150224, Note_on_c, 13, 67, 0
11, 150240, Note_on_c, 13, 64, 76
11, 150344, Note_on_c, 13, 64, 0
11, 150360, Note_on_c, 13, 69, 76
11, 150464, Note_on_c, 13, 69, 0
11, 150480, Note_on_c, 13, 69, 76
11, 150584, Note_on_c, 13, 69, 0
11, 150600, Note_on_c, 13, 69, 76
11, 150704, Note_on_c, 13, 69, 0
11, 150720, Note_on_c, 13, 65, 76
11, 150824, Note_on_c, 13, 65, 0
11, 150840, Note_on_c, 13, 67, 76
11, 150884, Note_on_c, 13, 67, 0
11, 150900, Note_on_c, 13, 69, 76
11, 150944, Note_on_c, 13, 69, 0
11, 150960, Note_on_c, 13, 70, 76
11, 151064, Note_on_c, 13, 70, 0
11, 151080, Note_on_c, 13, 67, 76
11, 151184, Note_on_c, 13, 67, 0
11, 151200, Note_on_c, 13, 64, 76
11, 151304, Note_on_c, 13, 64, 0
11, 151320, Note_on_c, 13, 69, 76
11, 151424, Note_on_c, 13, 69, 0
11, 151440, Note_on_c, 13, 57, 76
11, 151544, Note_on_c, 13, 57, 0
11, 151560, Note_on_c, 13, 69, 76
11, 151664, Note_on_c, 13, 69, 0
11, 151680, Note_on_c, 13, 62, 76
11, 151784, Note_on_c, 13, 62, 0
11, 151800, Note_on_c, 13, 65, 76
11, 151904, Note_on_c, 13, 65, 0
11, 151920, Note_on_c, 13, 65, 76
11, 152024, Note_on_c, 13, 65, 0
11, 152040, Note_on_c, 13, 65, 76
11, 152144, Note_on_c, 13, 65, 0
11, 152160, Note_on_c, 13, 62, 76
11, 152264, Note_on_c, 13, 62, 0
11, 152280, Note_on_c, 13, 67, 76
11, 152384, Note_on_c, 13, 67, 0
11, 152400, Note_on_c, 13, 67, 76
11, 152504, Note_on_c, 13, 67, 0
11, 152520, Note_on_c, 13, 67, 76
11, 152624, Note_on_c, 13, 67, 0
11, 152640, Note_on_c, 13, 64, 76
11, 152744, Note_on_c, 13, 64, 0
11, 152760, Note_on_c, 13, 65, 76
11, 152804, Note_on_c, 13, 65, 0
11, 152820, Note_on_c, 13, 67, 76
11, 152864, Note_on_c, 13, 67, 0
11, 152880, Note_on_c, 13, 69, 76
11, 152984, Note_on_c, 13, 69, 0
11, 153000, Note_on_c, 13, 65, 76
11, 153104, Note_on_c, 13, 65, 0
11, 153120, Note_on_c, 13, 62, 76
11, 153224, Note_on_c, 13, 62, 0
11, 153240, Note_on_c, 13, 67, 76
11, 153344, Note_on_c, 13, 67, 0
11, 153360, Note_on_c, 13, 55, 76
11, 153464, Note_on_c, 13, 55, 0
11, 153480, Note_on_c, 13, 67, 76
11, 153584, Note_on_c, 13, 67, 0
11, 153600, Note_on_c, 13, 60, 76
11, 153644, Note_on_c, 13, 60, 0
11, 153660, Note_on_c, 13, 65, 76
11, 153704, Note_on_c, 13, 65, 0
11, 153720, Note_on_c, 13, 64, 76
11, 153764, Note_on_c, 13, 64, 0
11, 153780, Note_on_c, 13, 62, 76
11, 153824, Note_on_c, 13, 62, 0
11, 153840, Note_on_c, 13, 60, 76
11, 153884, Note_on_c, 13, 60, 0
11, 153900, Note_on_c, 13, 59, 76
11, 153944, Note_on_c, 13, 59, 0
11, 153960, Note_on_c, 13, 60, 76
11, 154004, Note_on_c, 13, 60, 0
11, 154020, Note_on_c, 13, 57, 76
11, 154064, Note_on_c, 13, 57, 0
11, 154080, Note_on_c, 13, 64, 76
11, 154124, Note_on_c, 13, 64, 0
11, 154140, Note_on_c, 13, 62, 76
11, 154184, Note_on_c, 13, 62, 0
11, 154200, Note_on_c, 13, 64, 76
11, 154244, Note_on_c, 13, 64, 0
11, 154260, Note_on_c, 13, 66, 76
11, 154304, Note_on_c, 13, 66, 0
11, 154320, Note_on_c, 13, 67, 76
11, 154424, Note_on_c, 13, 67, 0
11, 154440, Note_on_c, 13, 64, 76
11, 154544, Note_on_c, 13, 64, 0
11, 154560, Note_on_c, 13, 62, 76
11, 154664, Note_on_c, 13, 62, 0
11, 154680, Note_on_c, 13, 62, 76
11, 154784, Note_on_c, 13, 62, 0
11, 154800, Note_on_c, 13, 62, 76
11, 154904, Note_on_c, 13, 62, 0
11, 154920, Note_on_c, 13, 62, 76
11, 155024, Note_on_c, 13, 62, 0
11, 155040, Note_on_c, 13, 59, 76
11, 155144, Note_on_c, 13, 59, 0
11, 155160, Note_on_c, 13, 60, 76
11, 155204, Note_on_c, 13, 60, 0
11, 155220, Note_on_c, 13, 62, 76
11, 155264, Note_on_c, 13, 62, 0
11, 155280, Note_on_c, 13, 64, 76
11, 155384, Note_on_c, 13, 64, 0
11, 155400, Note_on_c, 13, 60, 76
11, 155504, Note_on_c, 13, 60, 0
11, 155520, Note_on_c, 13, 57, 76
11, 155624, Note_on_c, 13, 57, 0
11, 155640, Note_on_c, 13, 62, 76
11, 155744, Note_on_c, 13, 62, 0
11, 155760, Note_on_c, 13, 50, 76
11, 155864, Note_on_c, 13, 50, 0
11, 155880, Note_on_c, 13, 62, 76
11, 156104, Note_on_c, 13, 62, 0
11, 156120, Note_on_c, 13, 60, 76
11, 156164, Note_on_c, 13, 60, 0
11, 156180, Note_on_c, 13, 59, 76
11, 156224, Note_on_c, 13, 59, 0
11, 156240, Note_on_c, 13, 60, 76
11, 156524, Note_on_c, 13, 60, 0
11, 156540, Note_on_c, 13, 57, 76
11, 156584, Note_on_c, 13, 57, 0
11, 156600, Note_on_c, 13, 59, 76
11, 156644, Note_on_c, 13, 59, 0
11, 156660, Note_on_c, 13, 60, 76
11, 156704, Note_on_c, 13, 60, 0
11, 156720, Note_on_c, 13, 62, 76
11, 156764, Note_on_c, 13, 62, 0
11, 156780, Note_on_c, 13, 64, 76
11, 156824, Note_on_c, 13, 64, 0
11, 156840, Note_on_c, 13, 66, 76
11, 156884, Note_on_c, 13, 66, 0
11, 156900, Note_on_c, 13, 67, 76
11, 156944, Note_on_c, 13, 67, 0
11, 156960, Note_on_c, 13, 69, 76
11, 157064, Note_on_c, 13, 69, 0
11, 157080, Note_on_c, 13, 57, 76
11, 157199, Note_on_c, 13, 57, 0
11, 157320, Note_on_c, 13, 62, 76
11, 157484, Note_on_c, 13, 62, 0
11, 157500, Note_on_c, 13, 67, 76
11, 157544, Note_on_c, 13, 67, 0
11, 157560, Note_on_c, 13, 66, 76
11, 157604, Note_on_c, 13, 66, 0
11, 157620, Note_on_c, 13, 67, 76
11, 157664, Note_on_c, 13, 67, 0
11, 157680, Note_on_c, 13, 64, 76
11, 157784, Note_on_c, 13, 64, 0
11, 157800, Note_on_c, 13, 69, 76
11, 158024, Note_on_c, 13, 69, 0
11, 158040, Note_on_c, 13, 72, 76
11, 158144, Note_on_c, 13, 72, 0
11, 158160, Note_on_c, 13, 66, 76
11, 158264, Note_on_c, 13, 66, 0
11, 158280, Note_on_c, 13, 71, 76
11, 158444, Note_on_c, 13, 71, 0
11, 158460, Note_on_c, 13, 64, 76
11, 158504, Note_on_c, 13, 64, 0
11, 158520, Note_on_c, 13, 62, 76
11, 158564, Note_on_c, 13, 62, 0
11, 158580, Note_on_c, 13, 64, 76
11, 158624, Note_on_c, 13, 64, 0
11, 158640, Note_on_c, 13, 60, 76
11, 158744, Note_on_c, 13, 60, 0
11, 158760, Note_on_c, 13, 69, 76
11, 158924, Note_on_c, 13, 69, 0
11, 158940, Note_on_c, 13, 67, 76
11, 158984, Note_on_c, 13, 67, 0
11, 159000, Note_on_c, 13, 66, 76
11, 159044, Note_on_c, 13, 66, 0
11, 159060, Note_on_c, 13, 64, 76
11, 159104, Note_on_c, 13, 64, 0
11, 159120, Note_on_c, 13, 62, 76
11, 159164, Note_on_c, 13, 62, 0
11, 159180, Note_on_c, 13, 60, 76
11, 159224, Note_on_c, 13, 60, 0
11, 159240, Note_on_c, 13, 59, 76
11, 159284, Note_on_c, 13, 59, 0
11, 159300, Note_on_c, 13, 57, 76
11, 159344, Note_on_c, 13, 57, 0
11, 159360, Note_on_c, 13, 62, 76
11, 159464, Note_on_c, 13, 62, 0
11, 159480, Note_on_c, 13, 64, 76
11, 159524, Note_on_c, 13, 64, 0
11, 159540, Note_on_c, 13, 66, 76
11, 159584, Note_on_c, 13, 66, 0
11, 159600, Note_on_c, 13, 67, 76
11, 159704, Note_on_c, 13, 67, 0
11, 159720, Note_on_c, 13, 64, 76
11, 159824, Note_on_c, 13, 64, 0
11, 159840, Note_on_c, 13, 69, 76
11, 159884, Note_on_c, 13, 69, 0
11, 159900, Note_on_c, 13, 67, 76
11, 159944, Note_on_c, 13, 67, 0
11, 159960, Note_on_c, 13, 66, 76
11, 160004, Note_on_c, 13, 66, 0
11, 160020, Note_on_c, 13, 64, 76
11, 160064, Note_on_c, 13, 64, 0
11, 160080, Note_on_c, 13, 62, 76
11, 160124, Note_on_c, 13, 62, 0
11, 160140, Note_on_c, 13, 60, 76
11, 160184, Note_on_c, 13, 60, 0
11, 160200, Note_on_c, 13, 59, 76
11, 160244, Note_on_c, 13, 59, 0
11, 160260, Note_on_c, 13, 57, 76
11, 160304, Note_on_c, 13, 57, 0
11, 160320, Note_on_c, 13, 55, 76
11, 160424, Note_on_c, 13, 55, 0
11, 160440, Note_on_c, 13, 62, 76
11, 160544, Note_on_c, 13, 62, 0
11, 160560, Note_on_c, 13, 62, 76
11, 160664, Note_on_c, 13, 62, 0
11, 160680, Note_on_c, 13, 62, 76
11, 160784, Note_on_c, 13, 62, 0
11, 160800, Note_on_c, 13, 62, 76
11, 161039, Note_on_c, 13, 62, 0
11, 165240, Note_on_c, 13, 71, 76
11, 165344, Note_on_c, 13, 71, 0
11, 165360, Note_on_c, 13, 71, 76
11, 165464, Note_on_c, 13, 71, 0
11, 165480, Note_on_c, 13, 71, 76
11, 165584, Note_on_c, 13, 71, 0
11, 165600, Note_on_c, 13, 67, 76
11, 165704, Note_on_c, 13, 67, 0
11, 165720, Note_on_c, 13, 69, 76
11, 165764, Note_on_c, 13, 69, 0
11, 165780, Note_on_c, 13, 71, 76
11, 165824, Note_on_c, 13, 71, 0
11, 165840, Note_on_c, 13, 72, 76
11, 165944, Note_on_c, 13, 72, 0
11, 165960, Note_on_c, 13, 69, 76
11, 166064, Note_on_c, 13, 69, 0
11, 166080, Note_on_c, 13, 66, 76
11, 166184, Note_on_c, 13, 66, 0
11, 166200, Note_on_c, 13, 71, 76
11, 166304, Note_on_c, 13, 71, 0
11, 166320, Note_on_c, 13, 59, 76
11, 166424, Note_on_c, 13, 59, 0
11, 166440, Note_on_c, 13, 59, 76
11, 166544, Note_on_c, 13, 59, 0
11, 166560, Note_on_c, 13, 64, 76
11, 166799, Note_on_c, 13, 64, 0
11, 169500, Note_on_c, 13, 72, 76
11, 169544, Note_on_c, 13, 72, 0
11, 169560, Note_on_c, 13, 71, 76
11, 169604, Note_on_c, 13, 71, 0
11, 169620, Note_on_c, 13, 69, 76
11, 169664, Note_on_c, 13, 69, 0
11, 169680, Note_on_c, 13, 67, 76
11, 169724, Note_on_c, 13, 67, 0
11, 169740, Note_on_c, 13, 66, 76
11, 169784, Note_on_c, 13, 66, 0
11, 169800, Note_on_c, 13, 67, 76
11, 169844, Note_on_c, 13, 67, 0
11, 169860, Note_on_c, 13, 64, 76
11, 169904, Note_on_c, 13, 64, 0
11, 169920, Note_on_c, 13, 72, 76
11, 169964, Note_on_c, 13, 72, 0
11, 169980, Note_on_c, 13, 71, 76
11, 170024, Note_on_c, 13, 71, 0
11, 170040, Note_on_c, 13, 69, 76
11, 170084, Note_on_c, 13, 69, 0
11, 170100, Note_on_c, 13, 67, 76
11, 170144, Note_on_c, 13, 67, 0
11, 170160, Note_on_c, 13, 66, 76
11, 170264, Note_on_c, 13, 66, 0
11, 170280, Note_on_c, 13, 71, 76
11, 170384, Note_on_c, 13, 71, 0
11, 170400, Note_on_c, 13, 64, 76
11, 170639, Note_on_c, 13, 64, 0
11, 172920, Note_on_c, 13, 72, 76
11, 173024, Note_on_c, 13, 72, 0
11, 173040, Note_on_c, 13, 72, 76
11, 173144, Note_on_c, 13, 72, 0
11, 173160, Note_on_c, 13, 72, 76
11, 173264, Note_on_c, 13, 72, 0
11, 173280, Note_on_c, 13, 69, 76
11, 173399, Note_on_c, 13, 69, 0
11, 174840, Note_on_c, 13, 70, 76
11, 174944, Note_on_c, 13, 70, 0
11, 174960, Note_on_c, 13, 70, 76
11, 175064, Note_on_c, 13, 70, 0
11, 175080, Note_on_c, 13, 70, 76
11, 175184, Note_on_c, 13, 70, 0
11, 175200, Note_on_c, 13, 67, 76
11, 175319, Note_on_c, 13, 67, 0
11, 176700, Note_on_c, 13, 70, 76
11, 176744, Note_on_c, 13, 70, 0
11, 176760, Note_on_c, 13, 69, 76
11, 176804, Note_on_c, 13, 69, 0
11, 176820, Note_on_c, 13, 67, 76
11, 176864, Note_on_c, 13, 67, 0
11, 176880, Note_on_c, 13, 65, 76
11, 176924, Note_on_c, 13, 65, 0
11, 176940, Note_on_c, 13, 64, 76
11, 176984, Note_on_c, 13, 64, 0
11, 177000, Note_on_c, 13, 65, 76
11, 177044, Note_on_c, 13, 65, 0
11, 177060, Note_on_c, 13, 62, 76
11, 177104, Note_on_c, 13, 62, 0
11, 177120, Note_on_c, 13, 69, 76
11, 177164, Note_on_c, 13, 69, 0
11, 177180, Note_on_c, 13, 67, 76
11, 177224, Note_on_c, 13, 67, 0
11, 177240, Note_on_c, 13, 69, 76
11, 177284, Note_on_c, 13, 69, 0
11, 177300, Note_on_c, 13, 70, 76
11, 177344, Note_on_c, 13, 70, 0
11, 177360, Note_on_c, 13, 72, 76
11, 177464, Note_on_c, 13, 72, 0
11, 177480, Note_on_c, 13, 69, 76
11, 177584, Note_on_c, 13, 69, 0
11, 177600, Note_on_c, 13, 67, 76
11, 177704, Note_on_c, 13, 67, 0
11, 177720, Note_on_c, 13, 67, 76
11, 177824, Note_on_c, 13, 67, 0
11, 177840, Note_on_c, 13, 67, 76
11, 177944, Note_on_c, 13, 67, 0
11, 177960, Note_on_c, 13, 67, 76
11, 178064, Note_on_c, 13, 67, 0
11, 178080, Note_on_c, 13, 64, 76
11, 178184, Note_on_c, 13, 64, 0
11, 178200, Note_on_c, 13, 65, 76
11, 178244, Note_on_c, 13, 65, 0
11, 178260, Note_on_c, 13, 67, 76
11, 178304, Note_on_c, 13, 67, 0
11, 178320, Note_on_c, 13, 69, 76
11, 178424, Note_on_c, 13, 69, 0
11, 178440, Note_on_c, 13, 65, 76
11, 178544, Note_on_c, 13, 65, 0
11, 178560, Note_on_c, 13, 62, 76
11, 178664, Note_on_c, 13, 62, 0
11, 178680, Note_on_c, 13, 67, 76
11, 178784, Note_on_c, 13, 67, 0
11, 178800, Note_on_c, 13, 55, 76
11, 178904, Note_on_c, 13, 55, 0
11, 178920, Note_on_c, 13, 67, 76
11, 179144, Note_on_c, 13, 67, 0
11, 179160, Note_on_c, 13, 65, 76
11, 179204, Note_on_c, 13, 65, 0
11, 179220, Note_on_c, 13, 64, 76
11, 179264, Note_on_c, 13, 64, 0
11, 179280, Note_on_c, 13, 65, 76
11, 179324, Note_on_c, 13, 65, 0
11, 179340, Note_on_c, 13, 64, 76
11, 179384, Note_on_c, 13, 64, 0
11, 179400, Note_on_c, 13, 62, 76
11, 179444, Note_on_c, 13, 62, 0
11, 179460, Note_on_c, 13, 60, 76
11, 179504, Note_on_c, 13, 60, 0
11, 179520, Note_on_c, 13, 62, 76
11, 179624, Note_on_c, 13, 62, 0
11, 179640, Note_on_c, 13, 67, 76
11, 179744, Note_on_c, 13, 67, 0
11, 179760, Note_on_c, 13, 67, 76
11, 179804, Note_on_c, 13, 67, 0
11, 179820, Note_on_c, 13, 65, 76
11, 179864, Note_on_c, 13, 65, 0
11, 179880, Note_on_c, 13, 67, 76
11, 179924, Note_on_c, 13, 67, 0
11, 179940, Note_on_c, 13, 64, 76
11, 179984, Note_on_c, 13, 64, 0
11, 180000, Note_on_c, 13, 60, 76
11, 180104, Note_on_c, 13, 60, 0
11, 180120, Note_on_c, 13, 62, 76
11, 180164, Note_on_c, 13, 62, 0
11, 180180, Note_on_c, 13, 64, 76
11, 180224, Note_on_c, 13, 64, 0
11, 180240, Note_on_c, 13, 65, 76
11, 180284, Note_on_c, 13, 65, 0
11, 180300, Note_on_c, 13, 64, 76
11, 180344, Note_on_c, 13, 64, 0
11, 180360, Note_on_c, 13, 65, 76
11, 180404, Note_on_c, 13, 65, 0
11, 180420, Note_on_c, 13, 62, 76
11, 180464, Note_on_c, 13, 62, 0
11, 180480, Note_on_c, 13, 59, 76
11, 180584, Note_on_c, 13, 59, 0
11, 180600, Note_on_c, 13, 64, 76
11, 180704, Note_on_c, 13, 64, 0
11, 180720, Note_on_c, 13, 60, 76
11, 180824, Note_on_c, 13, 60, 0
11, 180840, Note_on_c, 13, 57, 76
11, 180944, Note_on_c, 13, 57, 0
11, 180960, Note_on_c, 13, 62, 76
11, 181124, Note_on_c, 13, 62, 0
11, 181140, Note_on_c, 13, 64, 76
11, 181184, Note_on_c, 13, 64, 0
11, 181200, Note_on_c, 13, 65, 76
11, 181304, Note_on_c, 13, 65, 0
11, 181320, Note_on_c, 13, 67, 76
11, 181364, Note_on_c, 13, 67, 0
11, 181380, Note_on_c, 13, 62, 76
11, 181424, Note_on_c, 13, 62, 0
11, 181440, Note_on_c, 13, 64, 76
11, 181544, Note_on_c, 13, 64, 0
11, 181560, Note_on_c, 13, 60, 76
11, 181664, Note_on_c, 13, 60, 0
11, 181680, Note_on_c, 13, 72, 76
11, 181784, Note_on_c, 13, 72, 0
11, 181800, Note_on_c, 13, 67, 76
11, 181904, Note_on_c, 13, 67, 0
11, 181920, Note_on_c, 13, 60, 76
11, 182024, Note_on_c, 13, 60, 0
11, 182040, Note_on_c, 13, 65, 76
11, 182144, Note_on_c, 13, 65, 0
11, 182160, Note_on_c, 13, 67, 76
11, 182264, Note_on_c, 13, 67, 0
11, 182280, Note_on_c, 13, 69, 76
11, 182384, Note_on_c, 13, 69, 0
11, 182400, Note_on_c, 13, 62, 76
11, 182639, Note_on_c, 13, 62, 0
11, 185400, Note_on_c, 13, 67, 76
11, 185504, Note_on_c, 13, 67, 0
11, 185520, Note_on_c, 13, 67, 76
11, 185624, Note_on_c, 13, 67, 0
11, 185640, Note_on_c, 13, 67, 76
11, 185744, Note_on_c, 13, 67, 0
11, 185760, Note_on_c, 13, 64, 76
11, 185864, Note_on_c, 13, 64, 0
11, 185880, Note_on_c, 13, 65, 76
11, 185924, Note_on_c, 13, 65, 0
11, 185940, Note_on_c, 13, 67, 76
11, 185984, Note_on_c, 13, 67, 0
11, 186000, Note_on_c, 13, 69, 76
11, 186104, Note_on_c, 13, 69, 0
11, 186120, Note_on_c, 13, 65, 76
11, 186224, Note_on_c, 13, 65, 0
11, 186240, Note_on_c, 13, 62, 76
11, 186344, Note_on_c, 13, 62, 0
11, 186360, Note_on_c, 13, 67, 76
11, 186464, Note_on_c, 13, 67, 0
11, 186480, Note_on_c, 13, 55, 76
11, 186584, Note_on_c, 13, 55, 0
11, 186600, Note_on_c, 13, 65, 76
11, 186704, Note_on_c, 13, 65, 0
11, 186720, Note_on_c, 13, 64, 76
11, 186764, Note_on_c, 13, 64, 0
11, 186780, Note_on_c, 13, 62, 76
11, 186824, Note_on_c, 13, 62, 0
11, 186840, Note_on_c, 13, 60, 76
11, 186884, Note_on_c, 13, 60, 0
11, 186900, Note_on_c, 13, 62, 76
11, 186944, Note_on_c, 13, 62, 0
11, 186960, Note_on_c, 13, 64, 76
11, 187004, Note_on_c, 13, 64, 0
11, 187020, Note_on_c, 13, 62, 76
11, 187064, Note_on_c, 13, 62, 0
11, 187080, Note_on_c, 13, 64, 76
11, 187124, Note_on_c, 13, 64, 0
11, 187140, Note_on_c, 13, 66, 76
11, 187184, Note_on_c, 13, 66, 0
11, 187200, Note_on_c, 13, 67, 76
11, 187304, Note_on_c, 13, 67, 0
11, 187320, Note_on_c, 13, 62, 76
11, 187424, Note_on_c, 13, 62, 0
11, 187440, Note_on_c, 13, 67, 76
11, 187604, Note_on_c, 13, 67, 0
11, 187620, Note_on_c, 13, 67, 76
11, 187664, Note_on_c, 13, 67, 0
11, 187680, Note_on_c, 13, 67, 76
11, 187844, Note_on_c, 13, 67, 0
11, 187860, Note_on_c, 13, 66, 76
11, 187879, Note_on_c, 13, 66, 0
11, 187880, Note_on_c, 13, 64, 76
11, 187899, Note_on_c, 13, 64, 0
11, 187900, Note_on_c, 13, 66, 76
11, 187919, Note_on_c, 13, 66, 0
11, 187920, Note_on_c, 13, 66, 76
11, 188084, Note_on_c, 13, 66, 0
11, 188100, Note_on_c, 13, 67, 76
11, 188144, Note_on_c, 13, 67, 0
11, 188160, Note_on_c, 13, 67, 76
11, 188204, Note_on_c, 13, 67, 0
11, 188220, Note_on_c, 13, 69, 76
11, 188264, Note_on_c, 13, 69, 0
11, 188280, Note_on_c, 13, 71, 76
11, 188324, Note_on_c, 13, 71, 0
11, 188340, Note_on_c, 13, 72, 76
11, 188384, Note_on_c, 13, 72, 0
11, 188400, Note_on_c, 13, 74, 76
11, 188504, Note_on_c, 13, 74, 0
11, 188520, Note_on_c, 13, 67, 76
11, 188624, Note_on_c, 13, 67, 0
11, 188640, Note_on_c, 13, 72, 76
11, 188684, Note_on_c, 13, 72, 0
11, 188700, Note_on_c, 13, 71, 76
11, 188744, Note_on_c, 13, 71, 0
11, 188760, Note_on_c, 13, 69, 76
11, 188804, Note_on_c, 13, 69, 0
11, 188820, Note_on_c, 13, 67, 76
11, 188864, Note_on_c, 13, 67, 0
11, 188880, Note_on_c, 13, 65, 76
11, 188984, Note_on_c, 13, 65, 0
11, 189000, Note_on_c, 13, 67, 76
11, 189104, Note_on_c, 13, 67, 0
11, 189120, Note_on_c, 13, 69, 76
11, 189164, Note_on_c, 13, 69, 0
11, 189180, Note_on_c, 13, 74, 76
11, 189224, Note_on_c, 13, 74, 0
11, 189240, Note_on_c, 13, 72, 76
11, 189284, Note_on_c, 13, 72, 0
11, 189300, Note_on_c, 13, 74, 76
11, 189344, Note_on_c, 13, 74, 0
11, 189360, Note_on_c, 13, 62, 76
11, 189464, Note_on_c, 13, 62, 0
11, 189480, Note_on_c, 13, 67, 76
11, 189644, Note_on_c, 13, 67, 0
11, 189660, Note_on_c, 13, 72, 76
11, 189704, Note_on_c, 13, 72, 0
11, 189720, Note_on_c, 13, 70, 76
11, 189764, Note_on_c, 13, 70, 0
11, 189780, Note_on_c, 13, 72, 76
11, 189824, Note_on_c, 13, 72, 0
11, 189840, Note_on_c, 13, 60, 76
11, 189944, Note_on_c, 13, 60, 0
11, 189960, Note_on_c, 13, 65, 76
11, 190124, Note_on_c, 13, 65, 0
11, 190140, Note_on_c, 13, 71, 76
11, 190184, Note_on_c, 13, 71, 0
11, 190200, Note_on_c, 13, 69, 76
11, 190244, Note_on_c, 13, 69, 0
11, 190260, Note_on_c, 13, 71, 76
11, 190304, Note_on_c, 13, 71, 0
11, 190320, Note_on_c, 13, 59, 76
11, 190424, Note_on_c, 13, 59, 0
11, 190440, Note_on_c, 13, 64, 76
11, 190604, Note_on_c, 13, 64, 0
11, 190620, Note_on_c, 13, 69, 76
11, 190664, Note_on_c, 13, 69, 0
11, 190680, Note_on_c, 13, 67, 76
11, 190724, Note_on_c, 13, 67, 0
11, 190740, Note_on_c, 13, 69, 76
11, 190784, Note_on_c, 13, 69, 0
11, 190800, Note_on_c, 13, 57, 76
11, 190904, Note_on_c, 13, 57, 0
11, 190920, Note_on_c, 13, 62, 76
11, 191084, Note_on_c, 13, 62, 0
11, 191100, Note_on_c, 13, 72, 76
11, 191144, Note_on_c, 13, 72, 0
11, 191160, Note_on_c, 13, 71, 76
11, 191204, Note_on_c, 13, 71, 0
11, 191220, Note_on_c, 13, 69, 76
11, 191264, Note_on_c, 13, 69, 0
11, 191280, Note_on_c, 13, 67, 76
11, 191324, Note_on_c, 13, 67, 0
11, 191340, Note_on_c, 13, 65, 76
11, 191384, Note_on_c, 13, 65, 0
11, 191400, Note_on_c, 13, 64, 76
11, 191444, Note_on_c, 13, 64, 0
11, 191460, Note_on_c, 13, 62, 76
11, 191504, Note_on_c, 13, 62, 0
11, 191520, Note_on_c, 13, 67, 76
11, 191624, Note_on_c, 13, 67, 0
11, 191640, Note_on_c, 13, 69, 76
11, 191684, Note_on_c, 13, 69, 0
11, 191700, Note_on_c, 13, 71, 76
11, 191744, Note_on_c, 13, 71, 0
11, 191760, Note_on_c, 13, 72, 76
11, 191864, Note_on_c, 13, 72, 0
11, 191880, Note_on_c, 13, 57, 76
11, 191984, Note_on_c, 13, 57, 0
11, 192000, Note_on_c, 13, 62, 76
11, 192044, Note_on_c, 13, 62, 0
11, 192060, Note_on_c, 13, 60, 76
11, 192104, Note_on_c, 13, 60, 0
11, 192120, Note_on_c, 13, 59, 76
11, 192164, Note_on_c, 13, 59, 0
11, 192180, Note_on_c, 13, 57, 76
11, 192224, Note_on_c, 13, 57, 0
11, 192240, Note_on_c, 13, 55, 76
11, 192284, Note_on_c, 13, 55, 0
11, 192300, Note_on_c, 13, 53, 76
11, 192344, Note_on_c, 13, 53, 0
11, 192360, Note_on_c, 13, 52, 76
11, 192404, Note_on_c, 13, 52, 0
11, 192420, Note_on_c, 13, 50, 76
11, 192464, Note_on_c, 13, 50, 0
11, 192480, Note_on_c, 13, 48, 76
11, 192584, Note_on_c, 13, 48, 0
11, 192600, Note_on_c, 13, 55, 76
11, 192704, Note_on_c, 13, 55, 0
11, 192720, Note_on_c, 13, 55, 76
11, 192824, Note_on_c, 13, 55, 0
11, 192840, Note_on_c, 13, 55, 76
11, 192944, Note_on_c, 13, 55, 0
11, 192960, Note_on_c, 13, 55, 76
11, 193199, Note_on_c, 13, 55, 0
11, 194460, Note_on_c, 13, 59, 76
11, 194504, Note_on_c, 13, 59, 0
11, 194520, Note_on_c, 13, 60, 76
11, 194564, Note_on_c, 13, 60, 0
11, 194580, Note_on_c, 13, 62, 76
11, 194624, Note_on_c, 13, 62, 0
11, 194640, Note_on_c, 13, 64, 76
11, 194684, Note_on_c, 13, 64, 0
11, 194700, Note_on_c, 13, 62, 76
11, 194744, Note_on_c, 13, 62, 0
11, 194760, Note_on_c, 13, 64, 76
11, 194804, Note_on_c, 13, 64, 0
11, 194820, Note_on_c, 13, 65, 76
11, 194864, Note_on_c, 13, 65, 0
11, 194880, Note_on_c, 13, 67, 76
11, 194924, Note_on_c, 13, 67, 0
11, 194940, Note_on_c, 13, 70, 76
11, 194984, Note_on_c, 13, 70, 0
11, 195000, Note_on_c, 13, 69, 76
11, 195044, Note_on_c, 13, 69, 0
11, 195060, Note_on_c, 13, 67, 76
11, 195104, Note_on_c, 13, 67, 0
11, 195120, Note_on_c, 13, 65, 76
11, 195164, Note_on_c, 13, 65, 0
11, 195180, Note_on_c, 13, 64, 76
11, 195224, Note_on_c, 13, 64, 0
11, 195240, Note_on_c, 13, 65, 76
11, 195284, Note_on_c, 13, 65, 0
11, 195300, Note_on_c, 13, 62, 76
11, 195344, Note_on_c, 13, 62, 0
11, 195360, Note_on_c, 13, 67, 76
11, 195404, Note_on_c, 13, 67, 0
11, 195420, Note_on_c, 13, 65, 76
11, 195464, Note_on_c, 13, 65, 0
11, 195480, Note_on_c, 13, 67, 76
11, 195524, Note_on_c, 13, 67, 0
11, 195540, Note_on_c, 13, 69, 76
11, 195584, Note_on_c, 13, 69, 0
11, 195600, Note_on_c, 13, 67, 76
11, 195644, Note_on_c, 13, 67, 0
11, 195660, Note_on_c, 13, 65, 76
11, 195704, Note_on_c, 13, 65, 0
11, 195720, Note_on_c, 13, 64, 76
11, 195764, Note_on_c, 13, 64, 0
11, 195780, Note_on_c, 13, 62, 76
11, 195824, Note_on_c, 13, 62, 0
11, 195840, Note_on_c, 13, 60, 76
11, 196079, Note_on_c, 13, 60, 0
11, 196200, Note_on_c, 13, 64, 76
11, 196304, Note_on_c, 13, 64, 0
11, 196320, Note_on_c, 13, 65, 76
11, 196424, Note_on_c, 13, 65, 0
11, 196440, Note_on_c, 13, 62, 76
11, 196544, Note_on_c, 13, 62, 0
11, 196560, Note_on_c, 13, 59, 76
11, 196664, Note_on_c, 13, 59, 0
11, 196680, Note_on_c, 13, 60, 76
11, 196724, Note_on_c, 13, 60, 0
11, 196740, Note_on_c, 13, 62, 76
11, 196784, Note_on_c, 13, 62, 0
11, 196800, Note_on_c, 13, 64, 76
11, 196844, Note_on_c, 13, 64, 0
11, 196860, Note_on_c, 13, 67, 76
11, 196904, Note_on_c, 13, 67, 0
11, 196920, Note_on_c, 13, 65, 76
11, 196964, Note_on_c, 13, 65, 0
11, 196980, Note_on_c, 13, 64, 76
11, 197024, Note_on_c, 13, 64, 0
11, 197040, Note_on_c, 13, 62, 76
11, 197084, Note_on_c, 13, 62, 0
11, 197100, Note_on_c, 13, 60, 76
11, 197144, Note_on_c, 13, 60, 0
11, 197160, Note_on_c, 13, 59, 76
11, 197204, Note_on_c, 13, 59, 0
11, 197220, Note_on_c, 13, 57, 76
11, 197264, Note_on_c, 13, 57, 0
11, 197280, Note_on_c, 13, 55, 76
11, 197384, Note_on_c, 13, 55, 0
11, 197400, Note_on_c, 13, 67, 76
11, 197564, Note_on_c, 13, 67, 0
11, 197580, Note_on_c, 13, 64, 76
11, 197624, Note_on_c, 13, 64, 0
11, 197640, Note_on_c, 13, 62, 76
11, 197684, Note_on_c, 13, 62, 0
11, 197700, Note_on_c, 13, 64, 76
11, 197744, Note_on_c, 13, 64, 0
11, 197760, Note_on_c, 13, 65, 76
11, 198044, Note_on_c, 13, 65, 0
11, 198060, Note_on_c, 13, 65, 76
11, 198104, Note_on_c, 13, 65, 0
11, 198120, Note_on_c, 13, 67, 76
11, 198164, Note_on_c, 13, 67, 0
11, 198180, Note_on_c, 13, 69, 76
11, 198224, Note_on_c, 13, 69, 0
11, 198240, Note_on_c, 13, 67, 76
11, 198284, Note_on_c, 13, 67, 0
11, 198300, Note_on_c, 13, 67, 76
11, 198344, Note_on_c, 13, 67, 0
11, 198360, Note_on_c, 13, 69, 76
11, 198404, Note_on_c, 13, 69, 0
11, 198420, Note_on_c, 13, 70, 76
11, 198464, Note_on_c, 13, 70, 0
11, 198480, Note_on_c, 13, 64, 76
11, 198584, Note_on_c, 13, 64, 0
11, 198600, Note_on_c, 13, 69, 76
11, 198764, Note_on_c, 13, 69, 0
11, 198780, Note_on_c, 13, 67, 76
11, 198824, Note_on_c, 13, 67, 0
11, 198840, Note_on_c, 13, 65, 76
11, 198884, Note_on_c, 13, 65, 0
11, 198900, Note_on_c, 13, 64, 76
11, 198944, Note_on_c, 13, 64, 0
11, 198960, Note_on_c, 13, 62, 76
11, 199064, Note_on_c, 13, 62, 0
11, 199080, Note_on_c, 13, 67, 76
11, 199184, Note_on_c, 13, 67, 0
11, 199200, Note_on_c, 13, 67, 76
11, 199424, Note_on_c, 13, 67, 0
11, 199440, Note_on_c, 13, 64, 76
11, 199604, Note_on_c, 13, 64, 0
11, 199620, Note_on_c, 13, 64, 76
11, 199664, Note_on_c, 13, 64, 0
11, 199680, Note_on_c, 13, 69, 76
11, 199784, Note_on_c, 13, 69, 0
11, 199800, Note_on_c, 13, 57, 76
11, 199904, Note_on_c, 13, 57, 0
11, 199920, Note_on_c, 13, 62, 76
11, 200084, Note_on_c, 13, 62, 0
11, 200100, Note_on_c, 13, 62, 76
11, 200144, Note_on_c, 13, 62, 0
11, 200160, Note_on_c, 13, 67, 76
11, 200264, Note_on_c, 13, 67, 0
11, 200280, Note_on_c, 13, 55, 76
11, 200384, Note_on_c, 13, 55, 0
11, 200400, Note_on_c, 13, 60, 76
11, 200564, Note_on_c, 13, 60, 0
11, 200580, Note_on_c, 13, 60, 76
11, 200624, Note_on_c, 13, 60, 0
11, 200640, Note_on_c, 13, 65, 76
11, 200744, Note_on_c, 13, 65, 0
11, 200760, Note_on_c, 13, 53, 76
11, 200864, Note_on_c, 13, 53, 0
11, 200880, Note_on_c, 13, 59, 76
11, 201044, Note_on_c, 13, 59, 0
11, 201060, Note_on_c, 13, 59, 76
11, 201104, Note_on_c, 13, 59, 0
11, 201120, Note_on_c, 13, 64, 76
11, 201224, Note_on_c, 13, 64, 0
11, 201240, Note_on_c, 13, 52, 76
11, 201344, Note_on_c, 13, 52, 0
11, 201360, Note_on_c, 13, 57, 76
11, 201524, Note_on_c, 13, 57, 0
11, 201540, Note_on_c, 13, 57, 76
11, 201584, Note_on_c, 13, 57, 0
11, 201600, Note_on_c, 13, 62, 76
11, 201644, Note_on_c, 13, 62, 0
11, 201660, Note_on_c, 13, 60, 76
11, 201704, Note_on_c, 13, 60, 0
11, 201720, Note_on_c, 13, 62, 76
11, 201764, Note_on_c, 13, 62, 0
11, 201780, Note_on_c, 13, 59, 76
11, 201824, Note_on_c, 13, 59, 0
11, 201840, Note_on_c, 13, 64, 76
11, 201944, Note_on_c, 13, 64, 0
11, 201960, Note_on_c, 13, 62, 76
11, 202064, Note_on_c, 13, 62, 0
11, 202080, Note_on_c, 13, 60, 76
11, 202184, Note_on_c, 13, 60, 0
11, 202200, Note_on_c, 13, 62, 76
11, 202244, Note_on_c, 13, 62, 0
11, 202260, Note_on_c, 13, 64, 76
11, 202304, Note_on_c, 13, 64, 0
11, 202320, Note_on_c, 13, 65, 76
11, 202424, Note_on_c, 13, 65, 0
11, 202440, Note_on_c, 13, 65, 76
11, 202544, Note_on_c, 13, 65, 0
11, 202560, Note_on_c, 13, 67, 76
11, 202664, Note_on_c, 13, 67, 0
11, 202680, Note_on_c, 13, 62, 76
11, 202784, Note_on_c, 13, 62, 0
11, 202800, Note_on_c, 13, 67, 76
11, 202904, Note_on_c, 13, 67, 0
11, 202920, Note_on_c, 13, 71, 76
11, 203024, Note_on_c, 13, 71, 0
11, 203040, Note_on_c, 13, 67, 76
11, 203144, Note_on_c, 13, 67, 0
11, 203160, Note_on_c, 13, 69, 76
11, 203264, Note_on_c, 13, 69, 0
11, 203280, Note_on_c, 13, 62, 76
11, 203384, Note_on_c, 13, 62, 0
11, 203400, Note_on_c, 13, 67, 76
11, 203504, Note_on_c, 13, 67, 0
11, 203520, Note_on_c, 13, 64, 76
11, 203691, Note_on_c, 13, 64, 0
11, 203700, Note_on_c, 13, 62, 76
11, 203751, Note_on_c, 13, 62, 0
11, 203760, Note_on_c, 13, 60, 76
11, 203931, Note_on_c, 13, 60, 0
11, 203940, Note_on_c, 13, 62, 76
11, 203991, Note_on_c, 13, 62, 0
11, 204000, Note_on_c, 13, 64, 76
11, 204291, Note_on_c, 13, 64, 0
11, 204300, Note_on_c, 13, 64, 76
11, 204351, Note_on_c, 13, 64, 0
11, 204360, Note_on_c, 13, 62, 76
11, 204411, Note_on_c, 13, 62, 0
11, 204420, Note_on_c, 13, 60, 76
11, 204471, Note_on_c, 13, 60, 0
11, 204480, Note_on_c, 13, 67, 76
11, 204651, Note_on_c, 13, 67, 0
11, 204660, Note_on_c, 13, 69, 76
11, 204711, Note_on_c, 13, 69, 0
11, 204720, Note_on_c, 13, 67, 76
11, 204891, Note_on_c, 13, 67, 0
11, 204900, Note_on_c, 13, 65, 76
11, 204951, Note_on_c, 13, 65, 0
11, 204960, Note_on_c, 13, 64, 76
11, 205131, Note_on_c, 13, 64, 0
11, 205140, Note_on_c, 13, 62, 76
11, 205191, Note_on_c, 13, 62, 0
11, 205200, Note_on_c, 13, 60, 76
11, 205371, Note_on_c, 13, 60, 0
11, 205380, Note_on_c, 13, 60, 76
11, 205431, Note_on_c, 13, 60, 0
11, 205440, Note_on_c, 13, 60, 76
11, 205611, Note_on_c, 13, 60, 0
11, 205620, Note_on_c, 13, 65, 76
11, 205671, Note_on_c, 13, 65, 0
11, 205680, Note_on_c, 13, 69, 76
11, 205851, Note_on_c, 13, 69, 0
11, 205860, Note_on_c, 13, 67, 76
11, 205911, Note_on_c, 13, 67, 0
11, 205920, Note_on_c, 13, 65, 76
11, 206271, Note_on_c, 13, 65, 0
11, 206280, Note_on_c, 13, 62, 76
11, 206391, Note_on_c, 13, 62, 0
11, 206400, Note_on_c, 13, 70, 76
11, 206751, Note_on_c, 13, 70, 0
11, 206760, Note_on_c, 13, 70, 76
11, 206871, Note_on_c, 13, 70, 0
11, 206880, Note_on_c, 13, 64, 76
11, 207111, Note_on_c, 13, 64, 0
11, 207120, Note_on_c, 13, 69, 76
11, 207351, Note_on_c, 13, 69, 0
11, 207360, Note_on_c, 13, 69, 76
11, 207531, Note_on_c, 13, 69, 0
11, 207540, Note_on_c, 13, 65, 76
11, 207591, Note_on_c, 13, 65, 0
11, 207600, Note_on_c, 13, 62, 76
11, 207771, Note_on_c, 13, 62, 0
11, 207780, Note_on_c, 13, 57, 76
11, 207831, Note_on_c, 13, 57, 0
11, 207840, Note_on_c, 13, 62, 76
11, 208191, Note_on_c, 13, 62, 0
11, 208200, Note_on_c, 13, 62, 76
11, 208311, Note_on_c, 13, 62, 0
11, 208320, Note_on_c, 13, 62, 76
11, 208491, Note_on_c, 13, 62, 0
11, 208500, Note_on_c, 13, 69, 76
11, 208551, Note_on_c, 13, 69, 0
11, 208560, Note_on_c, 13, 67, 76
11, 208731, Note_on_c, 13, 67, 0
11, 208740, Note_on_c, 13, 65, 76
11, 208791, Note_on_c, 13, 65, 0
11, 208800, Note_on_c, 13, 64, 76
11, 208971, Note_on_c, 13, 64, 0
11, 208980, Note_on_c, 13, 65, 76
11, 209031, Note_on_c, 13, 65, 0
11, 209040, Note_on_c, 13, 67, 76
11, 209211, Note_on_c, 13, 67, 0
11, 209220, Note_on_c, 13, 64, 76
11, 209271, Note_on_c, 13, 64, 0
11, 209280, Note_on_c, 13, 65, 76
11, 209451, Note_on_c, 13, 65, 0
11, 209460, Note_on_c, 13, 69, 76
11, 209511, Note_on_c, 13, 69, 0
11, 209520, Note_on_c, 13, 74, 76
11, 209691, Note_on_c, 13, 74, 0
11, 209700, Note_on_c, 13, 69, 76
11, 209751, Note_on_c, 13, 69, 0
11, 209760, Note_on_c, 13, 62, 76
11, 210051, Note_on_c, 13, 62, 0
11, 210060, Note_on_c, 13, 60, 76
11, 210111, Note_on_c, 13, 60, 0
11, 210120, Note_on_c, 13, 62, 76
11, 210171, Note_on_c, 13, 62, 0
11, 210180, Note_on_c, 13, 64, 76
11, 210231, Note_on_c, 13, 64, 0
11, 210240, Note_on_c, 13, 65, 76
11, 210291, Note_on_c, 13, 65, 0
11, 210300, Note_on_c, 13, 67, 76
11, 210351, Note_on_c, 13, 67, 0
11, 210360, Note_on_c, 13, 69, 76
11, 210411, Note_on_c, 13, 69, 0
11, 210420, Note_on_c, 13, 67, 76
11, 210471, Note_on_c, 13, 67, 0
11, 210480, Note_on_c, 13, 65, 76
11, 210531, Note_on_c, 13, 65, 0
11, 210540, Note_on_c, 13, 64, 76
11, 210591, Note_on_c, 13, 64, 0
11, 210600, Note_on_c, 13, 62, 76
11, 210651, Note_on_c, 13, 62, 0
11, 210660, Note_on_c, 13, 64, 76
11, 210711, Note_on_c, 13, 64, 0
11, 210720, Note_on_c, 13, 65, 76
11, 211071, Note_on_c, 13, 65, 0
11, 211080, Note_on_c, 13, 64, 76
11, 211191, Note_on_c, 13, 64, 0
11, 211200, Note_on_c, 13, 62, 76
11, 211371, Note_on_c, 13, 62, 0
11, 211380, Note_on_c, 13, 64, 76
11, 211431, Note_on_c, 13, 64, 0
11, 211440, Note_on_c, 13, 62, 76
11, 211611, Note_on_c, 13, 62, 0
11, 211620, Note_on_c, 13, 60, 76
11, 211671, Note_on_c, 13, 60, 0
11, 211680, Note_on_c, 13, 59, 76
11, 211851, Note_on_c, 13, 59, 0
11, 211860, Note_on_c, 13, 62, 76
11, 211911, Note_on_c, 13, 62, 0
11, 211920, Note_on_c, 13, 67, 76
11, 212091, Note_on_c, 13, 67, 0
11, 212100, Note_on_c, 13, 71, 76
11, 212151, Note_on_c, 13, 71, 0
11, 212160, Note_on_c, 13, 71, 76
11, 212331, Note_on_c, 13, 71, 0
11, 212340, Note_on_c, 13, 67, 76
11, 212391, Note_on_c, 13, 67, 0
11, 212400, Note_on_c, 13, 60, 76
11, 212571, Note_on_c, 13, 60, 0
11, 212580, Note_on_c, 13, 62, 76
11, 212631, Note_on_c, 13, 62, 0
11, 212640, Note_on_c, 13, 64, 76
11, 212991, Note_on_c, 13, 64, 0
11, 213000, Note_on_c, 13, 64, 76
11, 213111, Note_on_c, 13, 64, 0
11, 213120, Note_on_c, 13, 64, 76
11, 213291, Note_on_c, 13, 64, 0
11, 213300, Note_on_c, 13, 60, 76
11, 213351, Note_on_c, 13, 60, 0
11, 213360, Note_on_c, 13, 65, 76
11, 213531, Note_on_c, 13, 65, 0
11, 213540, Note_on_c, 13, 64, 76
11, 213591, Note_on_c, 13, 64, 0
11, 213600, Note_on_c, 13, 62, 76
11, 213771, Note_on_c, 13, 62, 0
11, 213780, Note_on_c, 13, 64, 76
11, 213831, Note_on_c, 13, 64, 0
11, 213840, Note_on_c, 13, 65, 76
11, 214011, Note_on_c, 13, 65, 0
11, 214020, Note_on_c, 13, 67, 76
11, 214071, Note_on_c, 13, 67, 0
11, 214080, Note_on_c, 13, 69, 76
11, 214311, Note_on_c, 13, 69, 0
11, 214320, Note_on_c, 13, 62, 76
11, 214551, Note_on_c, 13, 62, 0
11, 214560, Note_on_c, 13, 65, 76
11, 214911, Note_on_c, 13, 65, 0
11, 214920, Note_on_c, 13, 69, 76
11, 215031, Note_on_c, 13, 69, 0
11, 215040, Note_on_c, 13, 62, 76
11, 215211, Note_on_c, 13, 62, 0
11, 215220, Note_on_c, 13, 65, 76
11, 215271, Note_on_c, 13, 65, 0
11, 215280, Note_on_c, 13, 64, 76
11, 215451, Note_on_c, 13, 64, 0
11, 215460, Note_on_c, 13, 62, 76
11, 215511, Note_on_c, 13, 62, 0
11, 215520, Note_on_c, 13, 60, 76
11, 215871, Note_on_c, 13, 60, 0
11, 215880, Note_on_c, 13, 60, 76
11, 215991, Note_on_c, 13, 60, 0
11, 216000, Note_on_c, 13, 60, 76
11, 216171, Note_on_c, 13, 60, 0
11, 216180, Note_on_c, 13, 57, 76
11, 216231, Note_on_c, 13, 57, 0
11, 216240, Note_on_c, 13, 62, 76
11, 216411, Note_on_c, 13, 62, 0
11, 216420, Note_on_c, 13, 60, 76
11, 216471, Note_on_c, 13, 60, 0
11, 216480, Note_on_c, 13, 59, 76
11, 216651, Note_on_c, 13, 59, 0
11, 216660, Note_on_c, 13, 60, 76
11, 216711, Note_on_c, 13, 60, 0
11, 216720, Note_on_c, 13, 59, 76
11, 216891, Note_on_c, 13, 59, 0
11, 216900, Note_on_c, 13, 60, 76
11, 216951, Note_on_c, 13, 60, 0
11, 216960, Note_on_c, 13, 62, 76
11, 217131, Note_on_c, 13, 62, 0
11, 217140, Note_on_c, 13, 55, 76
11, 217191, Note_on_c, 13, 55, 0
11, 217200, Note_on_c, 13, 67, 76
11, 217371, Note_on_c, 13, 67, 0
11, 217380, Note_on_c, 13, 69, 76
11, 217431, Note_on_c, 13, 69, 0
11, 217440, Note_on_c, 13, 67, 76
11, 217671, Note_on_c, 13, 67, 0
11, 217680, Note_on_c, 13, 62, 76
11, 217911, Note_on_c, 13, 62, 0
11, 217920, Note_on_c, 13, 64, 76
11, 218879, Note_on_c, 13, 64, 0
11, 218879, End_track
12, 0, Start_track
12, 0, Title_t, "Cello"
12, 0, MIDI_port, 0
12, 0, Program_c, 14, 48
12, 0, Control_c, 14, 10, 90
12, 0, Control_c, 14, 11, 127
12, 0, Control_c, 14, 7, 96
12, 0, Note_on_c, 14, 36, 76
12, 291, Note_on_c, 14, 36, 0
12, 300, Note_on_c, 14, 55, 76
12, 351, Note_on_c, 14, 55, 0
12, 360, Note_on_c, 14, 57, 76
12, 411, Note_on_c, 14, 57, 0
12, 420, Note_on_c, 14, 59, 76
12, 471, Note_on_c, 14, 59, 0
12, 480, Note_on_c, 14, 60, 76
12, 1131, Note_on_c, 14, 60, 0
12, 1140, Note_on_c, 14, 60, 76
12, 1191, Note_on_c, 14, 60, 0
12, 1200, Note_on_c, 14, 59, 76
12, 1371, Note_on_c, 14, 59, 0
12, 1380, Note_on_c, 14, 57, 76
12, 1431, Note_on_c, 14, 57, 0
12, 1440, Note_on_c, 14, 59, 76
12, 1611, Note_on_c, 14, 59, 0
12, 1620, Note_on_c, 14, 57, 76
12, 1671, Note_on_c, 14, 57, 0
12, 1680, Note_on_c, 14, 59, 76
12, 1851, Note_on_c, 14, 59, 0
12, 1860, Note_on_c, 14, 55, 76
12, 1911, Note_on_c, 14, 55, 0
12, 1920, Note_on_c, 14, 57, 76
12, 2211, Note_on_c, 14, 57, 0
12, 2220, Note_on_c, 14, 57, 76
12, 2271, Note_on_c, 14, 57, 0
12, 2280, Note_on_c, 14, 59, 76
12, 2331, Note_on_c, 14, 59, 0
12, 2340, Note_on_c, 14, 60, 76
12, 2391, Note_on_c, 14, 60, 0
12, 2400, Note_on_c, 14, 62, 76
12, 2451, Note_on_c, 14, 62, 0
12, 2460, Note_on_c, 14, 60, 76
12, 2511, Note_on_c, 14, 60, 0
12, 2520, Note_on_c, 14, 59, 76
12, 2571, Note_on_c, 14, 59, 0
12, 2580, Note_on_c, 14, 60, 76
12, 2631, Note_on_c, 14, 60, 0
12, 2640, Note_on_c, 14, 62, 76
12, 2691, Note_on_c, 14, 62, 0
12, 2700, Note_on_c, 14, 59, 76
12, 2751, Note_on_c, 14, 59, 0
12, 2760, Note_on_c, 14, 60, 76
12, 2811, Note_on_c, 14, 60, 0
12, 2820, Note_on_c, 14, 62, 76
12, 2871, Note_on_c, 14, 62, 0
12, 2880, Note_on_c, 14, 55, 76
12, 3051, Note_on_c, 14, 55, 0
12, 3060, Note_on_c, 14, 57, 76
12, 3111, Note_on_c, 14, 57, 0
12, 3120, Note_on_c, 14, 59, 76
12, 3291, Note_on_c, 14, 59, 0
12, 3300, Note_on_c, 14, 55, 76
12, 3351, Note_on_c, 14, 55, 0
12, 3360, Note_on_c, 14, 60, 76
12, 3591, Note_on_c, 14, 60, 0
12, 3600, Note_on_c, 14, 48, 76
12, 3831, Note_on_c, 14, 48, 0
12, 3840, Note_on_c, 14, 55, 76
12, 4371, Note_on_c, 14, 55, 0
12, 4380, Note_on_c, 14, 54, 76
12, 4431, Note_on_c, 14, 54, 0
12, 4440, Note_on_c, 14, 55, 76
12, 4491, Note_on_c, 14, 55, 0
12, 4500, Note_on_c, 14, 57, 76
12, 4551, Note_on_c, 14, 57, 0
12, 4560, Note_on_c, 14, 59, 76
12, 4611, Note_on_c, 14, 59, 0
12, 4620, Note_on_c, 14, 55, 76
12, 4671, Note_on_c, 14, 55, 0
12, 4680, Note_on_c, 14, 57, 76
12, 4731, Note_on_c, 14, 57, 0
12, 4740, Note_on_c, 14, 59, 76
12, 4791, Note_on_c, 14, 59, 0
12, 4800, Note_on_c, 14, 48, 76
12, 5331, Note_on_c, 14, 48, 0
12, 5340, Note_on_c, 14, 47, 76
12, 5391, Note_on_c, 14, 47, 0
12, 5400, Note_on_c, 14, 45, 76
12, 5451, Note_on_c, 14, 45, 0
12, 5460, Note_on_c, 14, 47, 76
12, 5511, Note_on_c, 14, 47, 0
12, 5520, Note_on_c, 14, 48, 76
12, 5571, Note_on_c, 14, 48, 0
12, 5580, Note_on_c, 14, 45, 76
12, 5631, Note_on_c, 14, 45, 0
12, 5640, Note_on_c, 14, 47, 76
12, 5691, Note_on_c, 14, 47, 0
12, 5700, Note_on_c, 14, 48, 76
12, 5751, Note_on_c, 14, 48, 0
12, 5760, Note_on_c, 14, 40, 76
12, 5991, Note_on_c, 14, 40, 0
12, 6000, Note_on_c, 14, 52, 76
12, 6291, Note_on_c, 14, 52, 0
12, 6300, Note_on_c, 14, 50, 76
12, 6351, Note_on_c, 14, 50, 0
12, 6360, Note_on_c, 14, 52, 76
12, 6411, Note_on_c, 14, 52, 0
12, 6420, Note_on_c, 14, 54, 76
12, 6471, Note_on_c, 14, 54, 0
12, 6480, Note_on_c, 14, 55, 76
12, 6531, Note_on_c, 14, 55, 0
12, 6540, Note_on_c, 14, 54, 76
12, 6591, Note_on_c, 14, 54, 0
12, 6600, Note_on_c, 14, 55, 76
12, 6651, Note_on_c, 14, 55, 0
12, 6660, Note_on_c, 14, 52, 76
12, 6711, Note_on_c, 14, 52, 0
12, 6720, Note_on_c, 14, 61, 76
12, 7371, Note_on_c, 14, 61, 0
12, 7380, Note_on_c, 14, 59, 76
12, 7431, Note_on_c, 14, 59, 0
12, 7440, Note_on_c, 14, 61, 76
12, 7611, Note_on_c, 14, 61, 0
12, 7620, Note_on_c, 14, 57, 76
12, 7671, Note_on_c, 14, 57, 0
12, 7680, Note_on_c, 14, 62, 76
12, 8331, Note_on_c, 14, 62, 0
12, 8340, Note_on_c, 14, 64, 76
12, 8391, Note_on_c, 14, 64, 0
12, 8400, Note_on_c, 14, 62, 76
12, 8571, Note_on_c, 14, 62, 0
12, 8580, Note_on_c, 14, 60, 76
12, 8631, Note_on_c, 14, 60, 0
12, 8640, Note_on_c, 14, 59, 76
12, 9171, Note_on_c, 14, 59, 0
12, 9180, Note_on_c, 14, 57, 76
12, 9231, Note_on_c, 14, 57, 0
12, 9240, Note_on_c, 14, 55, 76
12, 9291, Note_on_c, 14, 55, 0
12, 9300, Note_on_c, 14, 57, 76
12, 9351, Note_on_c, 14, 57, 0
12, 9360, Note_on_c, 14, 59, 76
12, 9411, Note_on_c, 14, 59, 0
12, 9420, Note_on_c, 14, 55, 76
12, 9471, Note_on_c, 14, 55, 0
12, 9480, Note_on_c, 14, 57, 76
12, 9531, Note_on_c, 14, 57, 0
12, 9540, Note_on_c, 14, 59, 76
12, 9591, Note_on_c, 14, 59, 0
12, 9600, Note_on_c, 14, 48, 76
12, 10131, Note_on_c, 14, 48, 0
12, 10140, Note_on_c, 14, 47, 76
12, 10191, Note_on_c, 14, 47, 0
12, 10200, Note_on_c, 14, 48, 76
12, 10251, Note_on_c, 14, 48, 0
12, 10260, Note_on_c, 14, 50, 76
12, 10311, Note_on_c, 14, 50, 0
12, 10320, Note_on_c, 14, 52, 76
12, 10371, Note_on_c, 14, 52, 0
12, 10380, Note_on_c, 14, 48, 76
12, 10431, Note_on_c, 14, 48, 0
12, 10440, Note_on_c, 14, 50, 76
12, 10491, Note_on_c, 14, 50, 0
12, 10500, Note_on_c, 14, 52, 76
12, 10551, Note_on_c, 14, 52, 0
12, 10560, Note_on_c, 14, 45, 76
12, 11091, Note_on_c, 14, 45, 0
12, 11100, Note_on_c, 14, 43, 76
12, 11151, Note_on_c, 14, 43, 0
12, 11160, Note_on_c, 14, 45, 76
12, 11211, Note_on_c, 14, 45, 0
12, 11220, Note_on_c, 14, 47, 76
12, 11271, Note_on_c, 14, 47, 0
12, 11280, Note_on_c, 14, 48, 76
12, 11331, Note_on_c, 14, 48, 0
12, 11340, Note_on_c, 14, 47, 76
12, 11391, Note_on_c, 14, 47, 0
12, 11400, Note_on_c, 14, 48, 76
12, 11451, Note_on_c, 14, 48, 0
12, 11460, Note_on_c, 14, 50, 76
12, 11511, Note_on_c, 14, 50, 0
12, 11520, Note_on_c, 14, 52, 76
12, 11751, Note_on_c, 14, 52, 0
12, 11760, Note_on_c, 14, 64, 76
12, 11991, Note_on_c, 14, 64, 0
12, 12000, Note_on_c, 14, 62, 76
12, 12231, Note_on_c, 14, 62, 0
12, 12240, Note_on_c, 14, 60, 76
12, 12471, Note_on_c, 14, 60, 0
12, 12480, Note_on_c, 14, 59, 76
12, 12711, Note_on_c, 14, 59, 0
12, 12720, Note_on_c, 14, 47, 76
12, 12951, Note_on_c, 14, 47, 0
12, 12960, Note_on_c, 14, 45, 76
12, 13191, Note_on_c, 14, 45, 0
12, 13200, Note_on_c, 14, 43, 76
12, 13431, Note_on_c, 14, 43, 0
12, 13440, Note_on_c, 14, 42, 76
12, 13671, Note_on_c, 14, 42, 0
12, 13680, Note_on_c, 14, 43, 76
12, 13851, Note_on_c, 14, 43, 0
12, 13860, Note_on_c, 14, 48, 76
12, 13911, Note_on_c, 14, 48, 0
12, 13920, Note_on_c, 14, 50, 76
12, 14151, Note_on_c, 14, 50, 0
12, 14160, Note_on_c, 14, 38, 76
12, 14391, Note_on_c, 14, 38, 0
12, 14400, Note_on_c, 14, 43, 76
12, 14691, Note_on_c, 14, 43, 0
12, 14700, Note_on_c, 14, 42, 76
12, 14751, Note_on_c, 14, 42, 0
12, 14760, Note_on_c, 14, 43, 76
12, 14811, Note_on_c, 14, 43, 0
12, 14820, Note_on_c, 14, 45, 76
12, 14871, Note_on_c, 14, 45, 0
12, 14880, Note_on_c, 14, 47, 76
12, 14931, Note_on_c, 14, 47, 0
12, 14940, Note_on_c, 14, 45, 76
12, 14991, Note_on_c, 14, 45, 0
12, 15000, Note_on_c, 14, 43, 76
12, 15051, Note_on_c, 14, 43, 0
12, 15060, Note_on_c, 14, 45, 76
12, 15111, Note_on_c, 14, 45, 0
12, 15120, Note_on_c, 14, 47, 76
12, 15171, Note_on_c, 14, 47, 0
12, 15180, Note_on_c, 14, 43, 76
12, 15231, Note_on_c, 14, 43, 0
12, 15240, Note_on_c, 14, 45, 76
12, 15291, Note_on_c, 14, 45, 0
12, 15300, Note_on_c, 14, 47, 76
12, 15351, Note_on_c, 14, 47, 0
12, 15360, Note_on_c, 14, 48, 76
12, 15651, Note_on_c, 14, 48, 0
12, 15660, Note_on_c, 14, 55, 76
12, 15711, Note_on_c, 14, 55, 0
12, 15720, Note_on_c, 14, 57, 76
12, 15771, Note_on_c, 14, 57, 0
12, 15780, Note_on_c, 14, 59, 76
12, 15831, Note_on_c, 14, 59, 0
12, 15840, Note_on_c, 14, 60, 76
12, 16491, Note_on_c, 14, 60, 0
12, 16500, Note_on_c, 14, 60, 76
12, 16551, Note_on_c, 14, 60, 0
12, 16560, Note_on_c, 14, 59, 76
12, 16731, Note_on_c, 14, 59, 0
12, 16740, Note_on_c, 14, 57, 76
12, 16791, Note_on_c, 14, 57, 0
12, 16800, Note_on_c, 14, 59, 76
12, 16971, Note_on_c, 14, 59, 0
12, 16980, Note_on_c, 14, 57, 76
12, 17031, Note_on_c, 14, 57, 0
12, 17040, Note_on_c, 14, 59, 76
12, 17211, Note_on_c, 14, 59, 0
12, 17220, Note_on_c, 14, 55, 76
12, 17271, Note_on_c, 14, 55, 0
12, 17280, Note_on_c, 14, 57, 76
12, 17571, Note_on_c, 14, 57, 0
12, 17580, Note_on_c, 14, 57, 76
12, 17631, Note_on_c, 14, 57, 0
12, 17640, Note_on_c, 14, 59, 76
12, 17691, Note_on_c, 14, 59, 0
12, 17700, Note_on_c, 14, 60, 76
12, 17751, Note_on_c, 14, 60, 0
12, 17760, Note_on_c, 14, 62, 76
12, 17811, Note_on_c, 14, 62, 0
12, 17820, Note_on_c, 14, 60, 76
12, 17871, Note_on_c, 14, 60, 0
12, 17880, Note_on_c, 14, 59, 76
12, 17931, Note_on_c, 14, 59, 0
12, 17940, Note_on_c, 14, 60, 76
12, 17991, Note_on_c, 14, 60, 0
12, 18000, Note_on_c, 14, 62, 76
12, 18051, Note_on_c, 14, 62, 0
12, 18060, Note_on_c, 14, 59, 76
12, 18111, Note_on_c, 14, 59, 0
12, 18120, Note_on_c, 14, 60, 76
12, 18171, Note_on_c, 14, 60, 0
12, 18180, Note_on_c, 14, 62, 76
12, 18231, Note_on_c, 14, 62, 0
12, 18240, Note_on_c, 14, 55, 76
12, 18411, Note_on_c, 14, 55, 0
12, 18420, Note_on_c, 14, 57, 76
12, 18471, Note_on_c, 14, 57, 0
12, 18480, Note_on_c, 14, 59, 76
12, 18651, Note_on_c, 14, 59, 0
12, 18660, Note_on_c, 14, 55, 76
12, 18711, Note_on_c, 14, 55, 0
12, 18720, Note_on_c, 14, 60, 76
12, 18951, Note_on_c, 14, 60, 0
12, 18960, Note_on_c, 14, 48, 76
12, 19191, Note_on_c, 14, 48, 0
12, 19200, Note_on_c, 14, 55, 76
12, 19731, Note_on_c, 14, 55, 0
12, 19740, Note_on_c, 14, 54, 76
12, 19791, Note_on_c, 14, 54, 0
12, 19800, Note_on_c, 14, 55, 76
12, 19851, Note_on_c, 14, 55, 0
12, 19860, Note_on_c, 14, 57, 76
12, 19911, Note_on_c, 14, 57, 0
12, 19920, Note_on_c, 14, 59, 76
12, 19971, Note_on_c, 14, 59, 0
12, 19980, Note_on_c, 14, 55, 76
12, 20031, Note_on_c, 14, 55, 0
12, 20040, Note_on_c, 14, 57, 76
12, 20091, Note_on_c, 14, 57, 0
12, 20100, Note_on_c, 14, 59, 76
12, 20151, Note_on_c, 14, 59, 0
12, 20160, Note_on_c, 14, 48, 76
12, 20691, Note_on_c, 14, 48, 0
12, 20700, Note_on_c, 14, 47, 76
12, 20751, Note_on_c, 14, 47, 0
12, 20760, Note_on_c, 14, 45, 76
12, 20811, Note_on_c, 14, 45, 0
12, 20820, Note_on_c, 14, 47, 76
12, 20871, Note_on_c, 14, 47, 0
12, 20880, Note_on_c, 14, 48, 76
12, 20931, Note_on_c, 14, 48, 0
12, 20940, Note_on_c, 14, 45, 76
12, 20991, Note_on_c, 14, 45, 0
12, 21000, Note_on_c, 14, 47, 76
12, 21051, Note_on_c, 14, 47, 0
12, 21060, Note_on_c, 14, 48, 76
12, 21111, Note_on_c, 14, 48, 0
12, 21120, Note_on_c, 14, 40, 76
12, 21351, Note_on_c, 14, 40, 0
12, 21360, Note_on_c, 14, 52, 76
12, 21651, Note_on_c, 14, 52, 0
12, 21660, Note_on_c, 14, 50, 76
12, 21711, Note_on_c, 14, 50, 0
12, 21720, Note_on_c, 14, 52, 76
12, 21771, Note_on_c, 14, 52, 0
12, 21780, Note_on_c, 14, 54, 76
12, 21831, Note_on_c, 14, 54, 0
12, 21840, Note_on_c, 14, 55, 76
12, 21891, Note_on_c, 14, 55, 0
12, 21900, Note_on_c, 14, 54, 76
12, 21951, Note_on_c, 14, 54, 0
12, 21960, Note_on_c, 14, 55, 76
12, 22011, Note_on_c, 14, 55, 0
12, 22020, Note_on_c, 14, 52, 76
12, 22071, Note_on_c, 14, 52, 0
12, 22080, Note_on_c, 14, 61, 76
12, 22731, Note_on_c, 14, 61, 0
12, 22740, Note_on_c, 14, 59, 76
12, 22791, Note_on_c, 14, 59, 0
12, 22800, Note_on_c, 14, 61, 76
12, 22971, Note_on_c, 14, 61, 0
12, 22980, Note_on_c, 14, 57, 76
12, 23031, Note_on_c, 14, 57, 0
12, 23040, Note_on_c, 14, 62, 76
12, 23691, Note_on_c, 14, 62, 0
12, 23700, Note_on_c, 14, 64, 76
12, 23751, Note_on_c, 14, 64, 0
12, 23760, Note_on_c, 14, 62, 76
12, 23931, Note_on_c, 14, 62, 0
12, 23940, Note_on_c, 14, 60, 76
12, 23991, Note_on_c, 14, 60, 0
12, 24000, Note_on_c, 14, 59, 76
12, 24531, Note_on_c, 14, 59, 0
12, 24540, Note_on_c, 14, 57, 76
12, 24591, Note_on_c, 14, 57, 0
12, 24600, Note_on_c, 14, 55, 76
12, 24651, Note_on_c, 14, 55, 0
12, 24660, Note_on_c, 14, 57, 76
12, 24711, Note_on_c, 14, 57, 0
12, 24720, Note_on_c, 14, 59, 76
12, 24771, Note_on_c, 14, 59, 0
12, 24780, Note_on_c, 14, 55, 76
12, 24831, Note_on_c, 14, 55, 0
12, 24840, Note_on_c, 14, 57, 76
12, 24891, Note_on_c, 14, 57, 0
12, 24900, Note_on_c, 14, 59, 76
12, 24951, Note_on_c, 14, 59, 0
12, 24960, Note_on_c, 14, 48, 76
12, 25491, Note_on_c, 14, 48, 0
12, 25500, Note_on_c, 14, 47, 76
12, 25551, Note_on_c, 14, 47, 0
12, 25560, Note_on_c, 14, 48, 76
12, 25611, Note_on_c, 14, 48, 0
12, 25620, Note_on_c, 14, 50, 76
12, 25671, Note_on_c, 14, 50, 0
12, 25680, Note_on_c, 14, 52, 76
12, 25731, Note_on_c, 14, 52, 0
12, 25740, Note_on_c, 14, 48, 76
12, 25791, Note_on_c, 14, 48, 0
12, 25800, Note_on_c, 14, 50, 76
12, 25851, Note_on_c, 14, 50, 0
12, 25860, Note_on_c, 14, 52, 76
12, 25911, Note_on_c, 14, 52, 0
12, 25920, Note_on_c, 14, 45, 76
12, 26451, Note_on_c, 14, 45, 0
12, 26460, Note_on_c, 14, 43, 76
12, 26511, Note_on_c, 14, 43, 0
12, 26520, Note_on_c, 14, 45, 76
12, 26571, Note_on_c, 14, 45, 0
12, 26580, Note_on_c, 14, 47, 76
12, 26631, Note_on_c, 14, 47, 0
12, 26640, Note_on_c, 14, 48, 76
12, 26691, Note_on_c, 14, 48, 0
12, 26700, Note_on_c, 14, 47, 76
12, 26751, Note_on_c, 14, 47, 0
12, 26760, Note_on_c, 14, 48, 76
12, 26811, Note_on_c, 14, 48, 0
12, 26820, Note_on_c, 14, 50, 76
12, 26871, Note_on_c, 14, 50, 0
12, 26880, Note_on_c, 14, 52, 76
12, 27111, Note_on_c, 14, 52, 0
12, 27120, Note_on_c, 14, 64, 76
12, 27351, Note_on_c, 14, 64, 0
12, 27360, Note_on_c, 14, 62, 76
12, 27591, Note_on_c, 14, 62, 0
12, 27600, Note_on_c, 14, 60, 76
12, 27831, Note_on_c, 14, 60, 0
12, 27840, Note_on_c, 14, 59, 76
12, 28071, Note_on_c, 14, 59, 0
12, 28080, Note_on_c, 14, 47, 76
12, 28311, Note_on_c, 14, 47, 0
12, 28320, Note_on_c, 14, 45, 76
12, 28551, Note_on_c, 14, 45, 0
12, 28560, Note_on_c, 14, 43, 76
12, 28791, Note_on_c, 14, 43, 0
12, 28800, Note_on_c, 14, 42, 76
12, 29031, Note_on_c, 14, 42, 0
12, 29040, Note_on_c, 14, 43, 76
12, 29211, Note_on_c, 14, 43, 0
12, 29220, Note_on_c, 14, 48, 76
12, 29271, Note_on_c, 14, 48, 0
12, 29280, Note_on_c, 14, 50, 76
12, 29511, Note_on_c, 14, 50, 0
12, 29520, Note_on_c, 14, 38, 76
12, 29751, Note_on_c, 14, 38, 0
12, 29760, Note_on_c, 14, 43, 76
12, 29999, Note_on_c, 14, 43, 0
12, 34200, Note_on_c, 14, 60, 76
12, 34304, Note_on_c, 14, 60, 0
12, 34320, Note_on_c, 14, 60, 76
12, 34424, Note_on_c, 14, 60, 0
12, 34440, Note_on_c, 14, 60, 76
12, 34544, Note_on_c, 14, 60, 0
12, 34560, Note_on_c, 14, 59, 76
12, 34664, Note_on_c, 14, 59, 0
12, 34680, Note_on_c, 14, 60, 76
12, 34724, Note_on_c, 14, 60, 0
12, 34740, Note_on_c, 14, 62, 76
12, 34784, Note_on_c, 14, 62, 0
12, 34800, Note_on_c, 14, 64, 76
12, 34904, Note_on_c, 14, 64, 0
12, 34920, Note_on_c, 14, 60, 76
12, 35024, Note_on_c, 14, 60, 0
12, 35040, Note_on_c, 14, 57, 76
12, 35144, Note_on_c, 14, 57, 0
12, 35160, Note_on_c, 14, 62, 76
12, 35264, Note_on_c, 14, 62, 0
12, 35280, Note_on_c, 14, 50, 76
12, 35384, Note_on_c, 14, 50, 0
12, 35400, Note_on_c, 14, 60, 76
12, 35504, Note_on_c, 14, 60, 0
12, 35520, Note_on_c, 14, 59, 76
12, 35564, Note_on_c, 14, 59, 0
12, 35580, Note_on_c, 14, 57, 76
12, 35624, Note_on_c, 14, 57, 0
12, 35640, Note_on_c, 14, 55, 76
12, 35684, Note_on_c, 14, 55, 0
12, 35700, Note_on_c, 14, 57, 76
12, 35744, Note_on_c, 14, 57, 0
12, 35760, Note_on_c, 14, 59, 76
12, 35804, Note_on_c, 14, 59, 0
12, 35820, Note_on_c, 14, 55, 76
12, 35864, Note_on_c, 14, 55, 0
12, 35880, Note_on_c, 14, 57, 76
12, 35924, Note_on_c, 14, 57, 0
12, 35940, Note_on_c, 14, 59, 76
12, 35984, Note_on_c, 14, 59, 0
12, 36000, Note_on_c, 14, 60, 76
12, 36104, Note_on_c, 14, 60, 0
12, 36120, Note_on_c, 14, 55, 76
12, 36224, Note_on_c, 14, 55, 0
12, 36240, Note_on_c, 14, 60, 76
12, 36404, Note_on_c, 14, 60, 0
12, 36420, Note_on_c, 14, 60, 76
12, 36464, Note_on_c, 14, 60, 0
12, 36480, Note_on_c, 14, 60, 76
12, 36524, Note_on_c, 14, 60, 0
12, 36540, Note_on_c, 14, 59, 76
12, 36584, Note_on_c, 14, 59, 0
12, 36600, Note_on_c, 14, 60, 76
12, 36644, Note_on_c, 14, 60, 0
12, 36660, Note_on_c, 14, 57, 76
12, 36704, Note_on_c, 14, 57, 0
12, 36720, Note_on_c, 14, 59, 76
12, 36884, Note_on_c, 14, 59, 0
12, 36900, Note_on_c, 14, 59, 76
12, 36944, Note_on_c, 14, 59, 0
12, 36960, Note_on_c, 14, 59, 76
12, 37064, Note_on_c, 14, 59, 0
12, 37080, Note_on_c, 14, 52, 76
12, 37184, Note_on_c, 14, 52, 0
12, 37200, Note_on_c, 14, 57, 76
12, 37364, Note_on_c, 14, 57, 0
12, 37380, Note_on_c, 14, 57, 76
12, 37424, Note_on_c, 14, 57, 0
12, 37440, Note_on_c, 14, 57, 76
12, 37484, Note_on_c, 14, 57, 0
12, 37500, Note_on_c, 14, 55, 76
12, 37544, Note_on_c, 14, 55, 0
12, 37560, Note_on_c, 14, 57, 76
12, 37604, Note_on_c, 14, 57, 0
12, 37620, Note_on_c, 14, 53, 76
12, 37664, Note_on_c, 14, 53, 0
12, 37680, Note_on_c, 14, 55, 76
12, 37844, Note_on_c, 14, 55, 0
12, 37860, Note_on_c, 14, 55, 76
12, 37904, Note_on_c, 14, 55, 0
12, 37920, Note_on_c, 14, 55, 76
12, 38024, Note_on_c, 14, 55, 0
12, 38040, Note_on_c, 14, 48, 76
12, 38144, Note_on_c, 14, 48, 0
12, 38160, Note_on_c, 14, 53, 76
12, 38324, Note_on_c, 14, 53, 0
12, 38340, Note_on_c, 14, 53, 76
12, 38384, Note_on_c, 14, 53, 0
12, 38400, Note_on_c, 14, 53, 76
12, 38444, Note_on_c, 14, 53, 0
12, 38460, Note_on_c, 14, 52, 76
12, 38504, Note_on_c, 14, 52, 0
12, 38520, Note_on_c, 14, 53, 76
12, 38564, Note_on_c, 14, 53, 0
12, 38580, Note_on_c, 14, 50, 76
12, 38624, Note_on_c, 14, 50, 0
12, 38640, Note_on_c, 14, 52, 76
12, 38684, Note_on_c, 14, 52, 0
12, 38700, Note_on_c, 14, 53, 76
12, 38744, Note_on_c, 14, 53, 0
12, 38760, Note_on_c, 14, 55, 76
12, 38804, Note_on_c, 14, 55, 0
12, 38820, Note_on_c, 14, 52, 76
12, 38864, Note_on_c, 14, 52, 0
12, 38880, Note_on_c, 14, 57, 76
12, 38924, Note_on_c, 14, 57, 0
12, 38940, Note_on_c, 14, 58, 76
12, 38984, Note_on_c, 14, 58, 0
12, 39000, Note_on_c, 14, 57, 76
12, 39044, Note_on_c, 14, 57, 0
12, 39060, Note_on_c, 14, 55, 76
12, 39104, Note_on_c, 14, 55, 0
12, 39120, Note_on_c, 14, 53, 76
12, 39164, Note_on_c, 14, 53, 0
12, 39180, Note_on_c, 14, 52, 76
12, 39224, Note_on_c, 14, 52, 0
12, 39240, Note_on_c, 14, 50, 76
12, 39284, Note_on_c, 14, 50, 0
12, 39300, Note_on_c, 14, 48, 76
12, 39344, Note_on_c, 14, 48, 0
12, 39360, Note_on_c, 14, 47, 76
12, 39404, Note_on_c, 14, 47, 0
12, 39420, Note_on_c, 14, 45, 76
12, 39464, Note_on_c, 14, 45, 0
12, 39480, Note_on_c, 14, 43, 76
12, 39524, Note_on_c, 14, 43, 0
12, 39540, Note_on_c, 14, 45, 76
12, 39584, Note_on_c, 14, 45, 0
12, 39600, Note_on_c, 14, 47, 76
12, 39644, Note_on_c, 14, 47, 0
12, 39660, Note_on_c, 14, 45, 76
12, 39704, Note_on_c, 14, 45, 0
12, 39720, Note_on_c, 14, 47, 76
12, 39764, Note_on_c, 14, 47, 0
12, 39780, Note_on_c, 14, 43, 76
12, 39824, Note_on_c, 14, 43, 0
12, 39840, Note_on_c, 14, 48, 76
12, 39944, Note_on_c, 14, 48, 0
12, 39960, Note_on_c, 14, 53, 76
12, 40064, Note_on_c, 14, 53, 0
12, 40080, Note_on_c, 14, 55, 76
12, 40184, Note_on_c, 14, 55, 0
12, 40200, Note_on_c, 14, 43, 76
12, 40304, Note_on_c, 14, 43, 0
12, 40320, Note_on_c, 14, 48, 76
12, 40439, Note_on_c, 14, 48, 0
12, 46620, Note_on_c, 14, 60, 76
12, 46664, Note_on_c, 14, 60, 0
12, 46680, Note_on_c, 14, 59, 76
12, 46724, Note_on_c, 14, 59, 0
12, 46740, Note_on_c, 14, 57, 76
12, 46784, Note_on_c, 14, 57, 0
12, 46800, Note_on_c, 14, 56, 76
12, 46844, Note_on_c, 14, 56, 0
12, 46860, Note_on_c, 14, 57, 76
12, 46904, Note_on_c, 14, 57, 0
12, 46920, Note_on_c, 14, 56, 76
12, 46964, Note_on_c, 14, 56, 0
12, 46980, Note_on_c, 14, 54, 76
12, 47024, Note_on_c, 14, 54, 0
12, 47040, Note_on_c, 14, 52, 76
12, 47084, Note_on_c, 14, 52, 0
12, 47100, Note_on_c, 14, 62, 76
12, 47144, Note_on_c, 14, 62, 0
12, 47160, Note_on_c, 14, 60, 76
12, 47204, Note_on_c, 14, 60, 0
12, 47220, Note_on_c, 14, 59, 76
12, 47264, Note_on_c, 14, 59, 0
12, 47280, Note_on_c, 14, 57, 76
12, 47324, Note_on_c, 14, 57, 0
12, 47340, Note_on_c, 14, 59, 76
12, 47384, Note_on_c, 14, 59, 0
12, 47400, Note_on_c, 14, 57, 76
12, 47444, Note_on_c, 14, 57, 0
12, 47460, Note_on_c, 14, 55, 76
12, 47504, Note_on_c, 14, 55, 0
12, 47520, Note_on_c, 14, 53, 76
12, 47564, Note_on_c, 14, 53, 0
12, 47580, Note_on_c, 14, 52, 76
12, 47624, Note_on_c, 14, 52, 0
12, 47640, Note_on_c, 14, 53, 76
12, 47684, Note_on_c, 14, 53, 0
12, 47700, Note_on_c, 14, 50, 76
12, 47744, Note_on_c, 14, 50, 0
12, 47760, Note_on_c, 14, 52, 76
12, 47864, Note_on_c, 14, 52, 0
12, 47880, Note_on_c, 14, 40, 76
12, 47984, Note_on_c, 14, 40, 0
12, 48000, Note_on_c, 14, 45, 76
12, 48104, Note_on_c, 14, 45, 0
12, 48120, Note_on_c, 14, 57, 76
12, 48224, Note_on_c, 14, 57, 0
12, 48240, Note_on_c, 14, 57, 76
12, 48344, Note_on_c, 14, 57, 0
12, 48360, Note_on_c, 14, 57, 76
12, 48464, Note_on_c, 14, 57, 0
12, 48480, Note_on_c, 14, 55, 76
12, 48584, Note_on_c, 14, 55, 0
12, 48600, Note_on_c, 14, 57, 76
12, 48644, Note_on_c, 14, 57, 0
12, 48660, Note_on_c, 14, 59, 76
12, 48704, Note_on_c, 14, 59, 0
12, 48720, Note_on_c, 14, 60, 76
12, 48824, Note_on_c, 14, 60, 0
12, 48840, Note_on_c, 14, 57, 76
12, 48944, Note_on_c, 14, 57, 0
12, 48960, Note_on_c, 14, 54, 76
12, 49064, Note_on_c, 14, 54, 0
12, 49080, Note_on_c, 14, 59, 76
12, 49184, Note_on_c, 14, 59, 0
12, 49200, Note_on_c, 14, 47, 76
12, 49304, Note_on_c, 14, 47, 0
12, 49320, Note_on_c, 14, 59, 76
12, 49424, Note_on_c, 14, 59, 0
12, 49440, Note_on_c, 14, 52, 76
12, 49679, Note_on_c, 14, 52, 0
12, 51000, Note_on_c, 14, 52, 76
12, 51104, Note_on_c, 14, 52, 0
12, 51120, Note_on_c, 14, 52, 76
12, 51224, Note_on_c, 14, 52, 0
12, 51240, Note_on_c, 14, 52, 76
12, 51344, Note_on_c, 14, 52, 0
12, 51360, Note_on_c, 14, 48, 76
12, 51464, Note_on_c, 14, 48, 0
12, 51480, Note_on_c, 14, 50, 76
12, 51524, Note_on_c, 14, 50, 0
12, 51540, Note_on_c, 14, 52, 76
12, 51584, Note_on_c, 14, 52, 0
12, 51600, Note_on_c, 14, 53, 76
12, 51704, Note_on_c, 14, 53, 0
12, 51720, Note_on_c, 14, 50, 76
12, 51824, Note_on_c, 14, 50, 0
12, 51840, Note_on_c, 14, 47, 76
12, 51944, Note_on_c, 14, 47, 0
12, 51960, Note_on_c, 14, 52, 76
12, 52064, Note_on_c, 14, 52, 0
12, 52080, Note_on_c, 14, 40, 76
12, 52184, Note_on_c, 14, 40, 0
12, 52200, Note_on_c, 14, 50, 76
12, 52304, Note_on_c, 14, 50, 0
12, 52320, Note_on_c, 14, 48, 76
12, 52364, Note_on_c, 14, 48, 0
12, 52380, Note_on_c, 14, 47, 76
12, 52424, Note_on_c, 14, 47, 0
12, 52440, Note_on_c, 14, 45, 76
12, 52484, Note_on_c, 14, 45, 0
12, 52500, Note_on_c, 14, 47, 76
12, 52544, Note_on_c, 14, 47, 0
12, 52560, Note_on_c, 14, 48, 76
12, 52604, Note_on_c, 14, 48, 0
12, 52620, Note_on_c, 14, 50, 76
12, 52664, Note_on_c, 14, 50, 0
12, 52680, Note_on_c, 14, 52, 76
12, 52724, Note_on_c, 14, 52, 0
12, 52740, Note_on_c, 14, 48, 76
12, 52784, Note_on_c, 14, 48, 0
12, 52800, Note_on_c, 14, 53, 76
12, 52844, Note_on_c, 14, 53, 0
12, 52860, Note_on_c, 14, 55, 76
12, 52904, Note_on_c, 14, 55, 0
12, 52920, Note_on_c, 14, 53, 76
12, 52964, Note_on_c, 14, 53, 0
12, 52980, Note_on_c, 14, 52, 76
12, 53024, Note_on_c, 14, 52, 0
12, 53040, Note_on_c, 14, 50, 76
12, 53084, Note_on_c, 14, 50, 0
12, 53100, Note_on_c, 14, 48, 76
12, 53144, Note_on_c, 14, 48, 0
12, 53160, Note_on_c, 14, 50, 76
12, 53204, Note_on_c, 14, 50, 0
12, 53220, Note_on_c, 14, 47, 76
12, 53264, Note_on_c, 14, 47, 0
12, 53280, Note_on_c, 14, 52, 76
12, 53324, Note_on_c, 14, 52, 0
12, 53340, Note_on_c, 14, 53, 76
12, 53384, Note_on_c, 14, 53, 0
12, 53400, Note_on_c, 14, 52, 76
12, 53444, Note_on_c, 14, 52, 0
12, 53460, Note_on_c, 14, 50, 76
12, 53504, Note_on_c, 14, 50, 0
12, 53520, Note_on_c, 14, 48, 76
12, 53564, Note_on_c, 14, 48, 0
12, 53580, Note_on_c, 14, 50, 76
12, 53624, Note_on_c, 14, 50, 0
12, 53640, Note_on_c, 14, 48, 76
12, 53684, Note_on_c, 14, 48, 0
12, 53700, Note_on_c, 14, 47, 76
12, 53744, Note_on_c, 14, 47, 0
12, 53760, Note_on_c, 14, 45, 76
12, 53864, Note_on_c, 14, 45, 0
12, 53880, Note_on_c, 14, 50, 76
12, 53984, Note_on_c, 14, 50, 0
12, 54000, Note_on_c, 14, 52, 76
12, 54104, Note_on_c, 14, 52, 0
12, 54120, Note_on_c, 14, 40, 76
12, 54224, Note_on_c, 14, 40, 0
12, 54240, Note_on_c, 14, 45, 76
12, 54479, Note_on_c, 14, 45, 0
12, 55740, Note_on_c, 14, 60, 76
12, 55784, Note_on_c, 14, 60, 0
12, 55800, Note_on_c, 14, 59, 76
12, 55844, Note_on_c, 14, 59, 0
12, 55860, Note_on_c, 14, 57, 76
12, 55904, Note_on_c, 14, 57, 0
12, 55920, Note_on_c, 14, 55, 76
12, 55964, Note_on_c, 14, 55, 0
12, 55980, Note_on_c, 14, 54, 76
12, 56024, Note_on_c, 14, 54, 0
12, 56040, Note_on_c, 14, 55, 76
12, 56084, Note_on_c, 14, 55, 0
12, 56100, Note_on_c, 14, 52, 76
12, 56144, Note_on_c, 14, 52, 0
12, 56160, Note_on_c, 14, 57, 76
12, 56264, Note_on_c, 14, 57, 0
12, 56280, Note_on_c, 14, 45, 76
12, 56399, Note_on_c, 14, 45, 0
12, 57660, Note_on_c, 14, 58, 76
12, 57704, Note_on_c, 14, 58, 0
12, 57720, Note_on_c, 14, 57, 76
12, 57764, Note_on_c, 14, 57, 0
12, 57780, Note_on_c, 14, 55, 76
12, 57824, Note_on_c, 14, 55, 0
12, 57840, Note_on_c, 14, 53, 76
12, 57884, Note_on_c, 14, 53, 0
12, 57900, Note_on_c, 14, 52, 76
12, 57944, Note_on_c, 14, 52, 0
12, 57960, Note_on_c, 14, 53, 76
12, 58004, Note_on_c, 14, 53, 0
12, 58020, Note_on_c, 14, 50, 76
12, 58064, Note_on_c, 14, 50, 0
12, 58080, Note_on_c, 14, 55, 76
12, 58184, Note_on_c, 14, 55, 0
12, 58200, Note_on_c, 14, 43, 76
12, 58319, Note_on_c, 14, 43, 0
12, 60060, Note_on_c, 14, 53, 76
12, 60104, Note_on_c, 14, 53, 0
12, 60120, Note_on_c, 14, 52, 76
12, 60164, Note_on_c, 14, 52, 0
12, 60180, Note_on_c, 14, 50, 76
12, 60224, Note_on_c, 14, 50, 0
12, 60240, Note_on_c, 14, 48, 76
12, 60284, Note_on_c, 14, 48, 0
12, 60300, Note_on_c, 14, 47, 76
12, 60344, Note_on_c, 14, 47, 0
12, 60360, Note_on_c, 14, 48, 76
12, 60404, Note_on_c, 14, 48, 0
12, 60420, Note_on_c, 14, 45, 76
12, 60464, Note_on_c, 14, 45, 0
12, 60480, Note_on_c, 14, 50, 76
12, 60584, Note_on_c, 14, 50, 0
12, 60600, Note_on_c, 14, 38, 76
12, 60719, Note_on_c, 14, 38, 0
12, 61080, Note_on_c, 14, 55, 76
12, 61184, Note_on_c, 14, 55, 0
12, 61200, Note_on_c, 14, 55, 76
12, 61304, Note_on_c, 14, 55, 0
12, 61320, Note_on_c, 14, 55, 76
12, 61424, Note_on_c, 14, 55, 0
12, 61440, Note_on_c, 14, 54, 76
12, 61544, Note_on_c, 14, 54, 0
12, 61560, Note_on_c, 14, 55, 76
12, 61604, Note_on_c, 14, 55, 0
12, 61620, Note_on_c, 14, 57, 76
12, 61664, Note_on_c, 14, 57, 0
12, 61680, Note_on_c, 14, 59, 76
12, 61784, Note_on_c, 14, 59, 0
12, 61800, Note_on_c, 14, 55, 76
12, 61904, Note_on_c, 14, 55, 0
12, 61920, Note_on_c, 14, 52, 76
12, 62024, Note_on_c, 14, 52, 0
12, 62040, Note_on_c, 14, 57, 76
12, 62144, Note_on_c, 14, 57, 0
12, 62160, Note_on_c, 14, 45, 76
12, 62264, Note_on_c, 14, 45, 0
12, 62280, Note_on_c, 14, 55, 76
12, 62384, Note_on_c, 14, 55, 0
12, 62400, Note_on_c, 14, 54, 76
12, 62504, Note_on_c, 14, 54, 0
12, 62520, Note_on_c, 14, 55, 76
12, 62564, Note_on_c, 14, 55, 0
12, 62580, Note_on_c, 14, 57, 76
12, 62624, Note_on_c, 14, 57, 0
12, 62640, Note_on_c, 14, 59, 76
12, 62684, Note_on_c, 14, 59, 0
12, 62700, Note_on_c, 14, 60, 76
12, 62744, Note_on_c, 14, 60, 0
12, 62760, Note_on_c, 14, 62, 76
12, 62804, Note_on_c, 14, 62, 0
12, 62820, Note_on_c, 14, 64, 76
12, 62864, Note_on_c, 14, 64, 0
12, 62880, Note_on_c, 14, 57, 76
12, 62924, Note_on_c, 14, 57, 0
12, 62940, Note_on_c, 14, 60, 76
12, 62984, Note_on_c, 14, 60, 0
12, 63000, Note_on_c, 14, 59, 76
12, 63044, Note_on_c, 14, 59, 0
12, 63060, Note_on_c, 14, 60, 76
12, 63104, Note_on_c, 14, 60, 0
12, 63120, Note_on_c, 14, 62, 76
12, 63164, Note_on_c, 14, 62, 0
12, 63180, Note_on_c, 14, 60, 76
12, 63224, Note_on_c, 14, 60, 0
12, 63240, Note_on_c, 14, 59, 76
12, 63284, Note_on_c, 14, 59, 0
12, 63300, Note_on_c, 14, 57, 76
12, 63344, Note_on_c, 14, 57, 0
12, 63360, Note_on_c, 14, 55, 76
12, 63404, Note_on_c, 14, 55, 0
12, 63420, Note_on_c, 14, 59, 76
12, 63464, Note_on_c, 14, 59, 0
12, 63480, Note_on_c, 14, 57, 76
12, 63524, Note_on_c, 14, 57, 0
12, 63540, Note_on_c, 14, 59, 76
12, 63584, Note_on_c, 14, 59, 0
12, 63600, Note_on_c, 14, 60, 76
12, 63644, Note_on_c, 14, 60, 0
12, 63660, Note_on_c, 14, 59, 76
12, 63704, Note_on_c, 14, 59, 0
12, 63720, Note_on_c, 14, 57, 76
12, 63764, Note_on_c, 14, 57, 0
12, 63780, Note_on_c, 14, 55, 76
12, 63824, Note_on_c, 14, 55, 0
12, 63840, Note_on_c, 14, 54, 76
12, 63884, Note_on_c, 14, 54, 0
12, 63900, Note_on_c, 14, 57, 76
12, 63944, Note_on_c, 14, 57, 0
12, 63960, Note_on_c, 14, 55, 76
12, 64004, Note_on_c, 14, 55, 0
12, 64020, Note_on_c, 14, 57, 76
12, 64064, Note_on_c, 14, 57, 0
12, 64080, Note_on_c, 14, 59, 76
12, 64124, Note_on_c, 14, 59, 0
12, 64140, Note_on_c, 14, 57, 76
12, 64184, Note_on_c, 14, 57, 0
12, 64200, Note_on_c, 14, 55, 76
12, 64244, Note_on_c, 14, 55, 0
12, 64260, Note_on_c, 14, 54, 76
12, 64304, Note_on_c, 14, 54, 0
12, 64320, Note_on_c, 14, 52, 76
12, 64364, Note_on_c, 14, 52, 0
12, 64380, Note_on_c, 14, 55, 76
12, 64424, Note_on_c, 14, 55, 0
12, 64440, Note_on_c, 14, 54, 76
12, 64484, Note_on_c, 14, 54, 0
12, 64500, Note_on_c, 14, 55, 76
12, 64544, Note_on_c, 14, 55, 0
12, 64560, Note_on_c, 14, 57, 76
12, 64604, Note_on_c, 14, 57, 0
12, 64620, Note_on_c, 14, 55, 76
12, 64664, Note_on_c, 14, 55, 0
12, 64680, Note_on_c, 14, 54, 76
12, 64724, Note_on_c, 14, 54, 0
12, 64740, Note_on_c, 14, 52, 76
12, 64784, Note_on_c, 14, 52, 0
12, 64800, Note_on_c, 14, 50, 76
12, 64904, Note_on_c, 14, 50, 0
12, 64920, Note_on_c, 14, 62, 76
12, 65024, Note_on_c, 14, 62, 0
12, 65040, Note_on_c, 14, 62, 76
12, 65144, Note_on_c, 14, 62, 0
12, 65160, Note_on_c, 14, 62, 76
12, 65264, Note_on_c, 14, 62, 0
12, 65280, Note_on_c, 14, 59, 76
12, 65384, Note_on_c, 14, 59, 0
12, 65400, Note_on_c, 14, 60, 76
12, 65444, Note_on_c, 14, 60, 0
12, 65460, Note_on_c, 14, 62, 76
12, 65504, Note_on_c, 14, 62, 0
12, 65520, Note_on_c, 14, 64, 76
12, 65624, Note_on_c, 14, 64, 0
12, 65640, Note_on_c, 14, 60, 76
12, 65744, Note_on_c, 14, 60, 0
12, 65760, Note_on_c, 14, 57, 76
12, 65864, Note_on_c, 14, 57, 0
12, 65880, Note_on_c, 14, 62, 76
12, 65984, Note_on_c, 14, 62, 0
12, 66000, Note_on_c, 14, 50, 76
12, 66104, Note_on_c, 14, 50, 0
12, 66120, Note_on_c, 14, 60, 76
12, 66224, Note_on_c, 14, 60, 0
12, 66240, Note_on_c, 14, 59, 76
12, 66344, Note_on_c, 14, 59, 0
12, 66360, Note_on_c, 14, 55, 76
12, 66464, Note_on_c, 14, 55, 0
12, 66480, Note_on_c, 14, 62, 76
12, 66584, Note_on_c, 14, 62, 0
12, 66600, Note_on_c, 14, 50, 76
12, 66704, Note_on_c, 14, 50, 0
12, 66720, Note_on_c, 14, 43, 76
12, 66839, Note_on_c, 14, 43, 0
12, 78840, Note_on_c, 14, 64, 76
12, 78884, Note_on_c, 14, 64, 0
12, 78900, Note_on_c, 14, 62, 76
12, 78944, Note_on_c, 14, 62, 0
12, 78960, Note_on_c, 14, 60, 76
12, 79004, Note_on_c, 14, 60, 0
12, 79020, Note_on_c, 14, 59, 76
12, 79064, Note_on_c, 14, 59, 0
12, 79080, Note_on_c, 14, 60, 76
12, 79124, Note_on_c, 14, 60, 0
12, 79140, Note_on_c, 14, 57, 76
12, 79184, Note_on_c, 14, 57, 0
12, 79200, Note_on_c, 14, 62, 76
12, 79304, Note_on_c, 14, 62, 0
12, 79320, Note_on_c, 14, 50, 76
12, 79439, Note_on_c, 14, 50, 0
12, 80760, Note_on_c, 14, 62, 76
12, 80804, Note_on_c, 14, 62, 0
12, 80820, Note_on_c, 14, 60, 76
12, 80864, Note_on_c, 14, 60, 0
12, 80880, Note_on_c, 14, 58, 76
12, 80924, Note_on_c, 14, 58, 0
12, 80940, Note_on_c, 14, 57, 76
12, 80984, Note_on_c, 14, 57, 0
12, 81000, Note_on_c, 14, 58, 76
12, 81044, Note_on_c, 14, 58, 0
12, 81060, Note_on_c, 14, 55, 76
12, 81104, Note_on_c, 14, 55, 0
12, 81120, Note_on_c, 14, 60, 76
12, 81224, Note_on_c, 14, 60, 0
12, 81240, Note_on_c, 14, 48, 76
12, 81359, Note_on_c, 14, 48, 0
12, 83100, Note_on_c, 14, 58, 76
12, 83144, Note_on_c, 14, 58, 0
12, 83160, Note_on_c, 14, 57, 76
12, 83204, Note_on_c, 14, 57, 0
12, 83220, Note_on_c, 14, 55, 76
12, 83264, Note_on_c, 14, 55, 0
12, 83280, Note_on_c, 14, 53, 76
12, 83324, Note_on_c, 14, 53, 0
12, 83340, Note_on_c, 14, 52, 76
12, 83384, Note_on_c, 14, 52, 0
12, 83400, Note_on_c, 14, 53, 76
12, 83444, Note_on_c, 14, 53, 0
12, 83460, Note_on_c, 14, 50, 76
12, 83504, Note_on_c, 14, 50, 0
12, 83520, Note_on_c, 14, 55, 76
12, 83624, Note_on_c, 14, 55, 0
12, 83640, Note_on_c, 14, 43, 76
12, 83759, Note_on_c, 14, 43, 0
12, 84120, Note_on_c, 14, 60, 76
12, 84224, Note_on_c, 14, 60, 0
12, 84240, Note_on_c, 14, 60, 76
12, 84344, Note_on_c, 14, 60, 0
12, 84360, Note_on_c, 14, 60, 76
12, 84464, Note_on_c, 14, 60, 0
12, 84480, Note_on_c, 14, 59, 76
12, 84584, Note_on_c, 14, 59, 0
12, 84600, Note_on_c, 14, 60, 76
12, 84644, Note_on_c, 14, 60, 0
12, 84660, Note_on_c, 14, 62, 76
12, 84704, Note_on_c, 14, 62, 0
12, 84720, Note_on_c, 14, 64, 76
12, 84824, Note_on_c, 14, 64, 0
12, 84840, Note_on_c, 14, 60, 76
12, 84944, Note_on_c, 14, 60, 0
12, 84960, Note_on_c, 14, 57, 76
12, 85064, Note_on_c, 14, 57, 0
12, 85080, Note_on_c, 14, 62, 76
12, 85184, Note_on_c, 14, 62, 0
12, 85200, Note_on_c, 14, 50, 76
12, 85304, Note_on_c, 14, 50, 0
12, 85320, Note_on_c, 14, 60, 76
12, 85424, Note_on_c, 14, 60, 0
12, 85440, Note_on_c, 14, 59, 76
12, 85544, Note_on_c, 14, 59, 0
12, 85560, Note_on_c, 14, 55, 76
12, 85664, Note_on_c, 14, 55, 0
12, 85680, Note_on_c, 14, 60, 76
12, 85784, Note_on_c, 14, 60, 0
12, 85800, Note_on_c, 14, 48, 76
12, 85904, Note_on_c, 14, 48, 0
12, 85920, Note_on_c, 14, 41, 76
12, 86024, Note_on_c, 14, 41, 0
12, 86040, Note_on_c, 14, 53, 76
12, 86144, Note_on_c, 14, 53, 0
12, 86160, Note_on_c, 14, 53, 76
12, 86264, Note_on_c, 14, 53, 0
12, 86280, Note_on_c, 14, 53, 76
12, 86384, Note_on_c, 14, 53, 0
12, 86400, Note_on_c, 14, 52, 76
12, 86504, Note_on_c, 14, 52, 0
12, 86520, Note_on_c, 14, 53, 76
12, 86564, Note_on_c, 14, 53, 0
12, 86580, Note_on_c, 14, 55, 76
12, 86624, Note_on_c, 14, 55, 0
12, 86640, Note_on_c, 14, 57, 76
12, 86744, Note_on_c, 14, 57, 0
12, 86760, Note_on_c, 14, 53, 76
12, 86864, Note_on_c, 14, 53, 0
12, 86880, Note_on_c, 14, 50, 76
12, 86984, Note_on_c, 14, 50, 0
12, 87000, Note_on_c, 14, 55, 76
12, 87104, Note_on_c, 14, 55, 0
12, 87120, Note_on_c, 14, 43, 76
12, 87224, Note_on_c, 14, 43, 0
12, 87240, Note_on_c, 14, 53, 76
12, 87344, Note_on_c, 14, 53, 0
12, 87360, Note_on_c, 14, 52, 76
12, 87464, Note_on_c, 14, 52, 0
12, 87480, Note_on_c, 14, 55, 76
12, 87584, Note_on_c, 14, 55, 0
12, 87600, Note_on_c, 14, 52, 76
12, 87704, Note_on_c, 14, 52, 0
12, 87720, Note_on_c, 14, 48, 76
12, 87824, Note_on_c, 14, 48, 0
12, 87840, Note_on_c, 14, 53, 76
12, 87944, Note_on_c, 14, 53, 0
12, 87960, Note_on_c, 14, 50, 76
12, 88064, Note_on_c, 14, 50, 0
12, 88080, Note_on_c, 14, 52, 76
12, 88184, Note_on_c, 14, 52, 0
12, 88200, Note_on_c, 14, 53, 76
12, 88304, Note_on_c, 14, 53, 0
12, 88320, Note_on_c, 14, 55, 76
12, 88559, Note_on_c, 14, 55, 0
12, 92760, Note_on_c, 14, 60, 76
12, 92864, Note_on_c, 14, 60, 0
12, 92880, Note_on_c, 14, 60, 76
12, 92984, Note_on_c, 14, 60, 0
12, 93000, Note_on_c, 14, 60, 76
12, 93104, Note_on_c, 14, 60, 0
12, 93120, Note_on_c, 14, 59, 76
12, 93224, Note_on_c, 14, 59, 0
12, 93240, Note_on_c, 14, 60, 76
12, 93284, Note_on_c, 14, 60, 0
12, 93300, Note_on_c, 14, 62, 76
12, 93344, Note_on_c, 14, 62, 0
12, 93360, Note_on_c, 14, 64, 76
12, 93464, Note_on_c, 14, 64, 0
12, 93480, Note_on_c, 14, 60, 76
12, 93584, Note_on_c, 14, 60, 0
12, 93600, Note_on_c, 14, 57, 76
12, 93704, Note_on_c, 14, 57, 0
12, 93720, Note_on_c, 14, 62, 76
12, 93824, Note_on_c, 14, 62, 0
12, 93840, Note_on_c, 14, 50, 76
12, 93944, Note_on_c, 14, 50, 0
12, 93960, Note_on_c, 14, 60, 76
12, 94064, Note_on_c, 14, 60, 0
12, 94080, Note_on_c, 14, 59, 76
12, 94124, Note_on_c, 14, 59, 0
12, 94140, Note_on_c, 14, 57, 76
12, 94184, Note_on_c, 14, 57, 0
12, 94200, Note_on_c, 14, 55, 76
12, 94244, Note_on_c, 14, 55, 0
12, 94260, Note_on_c, 14, 57, 76
12, 94304, Note_on_c, 14, 57, 0
12, 94320, Note_on_c, 14, 59, 76
12, 94364, Note_on_c, 14, 59, 0
12, 94380, Note_on_c, 14, 55, 76
12, 94424, Note_on_c, 14, 55, 0
12, 94440, Note_on_c, 14, 57, 76
12, 94484, Note_on_c, 14, 57, 0
12, 94500, Note_on_c, 14, 59, 76
12, 94544, Note_on_c, 14, 59, 0
12, 94560, Note_on_c, 14, 60, 76
12, 94604, Note_on_c, 14, 60, 0
12, 94620, Note_on_c, 14, 62, 76
12, 94664, Note_on_c, 14, 62, 0
12, 94680, Note_on_c, 14, 60, 76
12, 94724, Note_on_c, 14, 60, 0
12, 94740, Note_on_c, 14, 59, 76
12, 94784, Note_on_c, 14, 59, 0
12, 94800, Note_on_c, 14, 57, 76
12, 94844, Note_on_c, 14, 57, 0
12, 94860, Note_on_c, 14, 55, 76
12, 94904, Note_on_c, 14, 55, 0
12, 94920, Note_on_c, 14, 53, 76
12, 94964, Note_on_c, 14, 53, 0
12, 94980, Note_on_c, 14, 52, 76
12, 95024, Note_on_c, 14, 52, 0
12, 95040, Note_on_c, 14, 50, 76
12, 95084, Note_on_c, 14, 50, 0
12, 95100, Note_on_c, 14, 53, 76
12, 95144, Note_on_c, 14, 53, 0
12, 95160, Note_on_c, 14, 52, 76
12, 95204, Note_on_c, 14, 52, 0
12, 95220, Note_on_c, 14, 53, 76
12, 95264, Note_on_c, 14, 53, 0
12, 95280, Note_on_c, 14, 55, 76
12, 95324, Note_on_c, 14, 55, 0
12, 95340, Note_on_c, 14, 53, 76
12, 95384, Note_on_c, 14, 53, 0
12, 95400, Note_on_c, 14, 52, 76
12, 95444, Note_on_c, 14, 52, 0
12, 95460, Note_on_c, 14, 50, 76
12, 95504, Note_on_c, 14, 50, 0
12, 95520, Note_on_c, 14, 48, 76
12, 95564, Note_on_c, 14, 48, 0
12, 95580, Note_on_c, 14, 52, 76
12, 95624, Note_on_c, 14, 52, 0
12, 95640, Note_on_c, 14, 50, 76
12, 95684, Note_on_c, 14, 50, 0
12, 95700, Note_on_c, 14, 52, 76
12, 95744, Note_on_c, 14, 52, 0
12, 95760, Note_on_c, 14, 53, 76
12, 95804, Note_on_c, 14, 53, 0
12, 95820, Note_on_c, 14, 52, 76
12, 95864, Note_on_c, 14, 52, 0
12, 95880, Note_on_c, 14, 50, 76
12, 95924, Note_on_c, 14, 50, 0
12, 95940, Note_on_c, 14, 48, 76
12, 95984, Note_on_c, 14, 48, 0
12, 96000, Note_on_c, 14, 47, 76
12, 96044, Note_on_c, 14, 47, 0
12, 96060, Note_on_c, 14, 50, 76
12, 96104, Note_on_c, 14, 50, 0
12, 96120, Note_on_c, 14, 48, 76
12, 96164, Note_on_c, 14, 48, 0
12, 96180, Note_on_c, 14, 50, 76
12, 96224, Note_on_c, 14, 50, 0
12, 96240, Note_on_c, 14, 52, 76
12, 96284, Note_on_c, 14, 52, 0
12, 96300, Note_on_c, 14, 50, 76
12, 96344, Note_on_c, 14, 50, 0
12, 96360, Note_on_c, 14, 48, 76
12, 96404, Note_on_c, 14, 48, 0
12, 96420, Note_on_c, 14, 47, 76
12, 96464, Note_on_c, 14, 47, 0
12, 96480, Note_on_c, 14, 45, 76
12, 96524, Note_on_c, 14, 45, 0
12, 96540, Note_on_c, 14, 48, 76
12, 96584, Note_on_c, 14, 48, 0
12, 96600, Note_on_c, 14, 47, 76
12, 96644, Note_on_c, 14, 47, 0
12, 96660, Note_on_c, 14, 48, 76
12, 96704, Note_on_c, 14, 48, 0
12, 96720, Note_on_c, 14, 50, 76
12, 96764, Note_on_c, 14, 50, 0
12, 96780, Note_on_c, 14, 48, 76
12, 96824, Note_on_c, 14, 48, 0
12, 96840, Note_on_c, 14, 47, 76
12, 96884, Note_on_c, 14, 47, 0
12, 96900, Note_on_c, 14, 45, 76
12, 96944, Note_on_c, 14, 45, 0
12, 96960, Note_on_c, 14, 43, 76
12, 97064, Note_on_c, 14, 43, 0
12, 97080, Note_on_c, 14, 55, 76
12, 97184, Note_on_c, 14, 55, 0
12, 97200, Note_on_c, 14, 55, 76
12, 97304, Note_on_c, 14, 55, 0
12, 97320, Note_on_c, 14, 55, 76
12, 97424, Note_on_c, 14, 55, 0
12, 97440, Note_on_c, 14, 52, 76
12, 97544, Note_on_c, 14, 52, 0
12, 97560, Note_on_c, 14, 53, 76
12, 97604, Note_on_c, 14, 53, 0
12, 97620, Note_on_c, 14, 55, 76
12, 97664, Note_on_c, 14, 55, 0
12, 97680, Note_on_c, 14, 57, 76
12, 97784, Note_on_c, 14, 57, 0
12, 97800, Note_on_c, 14, 53, 76
12, 97904, Note_on_c, 14, 53, 0
12, 97920, Note_on_c, 14, 50, 76
12, 98024, Note_on_c, 14, 50, 0
12, 98040, Note_on_c, 14, 55, 76
12, 98144, Note_on_c, 14, 55, 0
12, 98160, Note_on_c, 14, 43, 76
12, 98264, Note_on_c, 14, 43, 0
12, 98280, Note_on_c, 14, 53, 76
12, 98384, Note_on_c, 14, 53, 0
12, 98400, Note_on_c, 14, 52, 76
12, 98504, Note_on_c, 14, 52, 0
12, 98520, Note_on_c, 14, 48, 76
12, 98624, Note_on_c, 14, 48, 0
12, 98640, Note_on_c, 14, 55, 76
12, 98744, Note_on_c, 14, 55, 0
12, 98760, Note_on_c, 14, 43, 76
12, 98864, Note_on_c, 14, 43, 0
12, 98880, Note_on_c, 14, 48, 76
12, 99119, Note_on_c, 14, 48, 0
12, 101880, Note_on_c, 14, 60, 76
12, 101984, Note_on_c, 14, 60, 0
12, 102000, Note_on_c, 14, 60, 76
12, 102104, Note_on_c, 14, 60, 0
12, 102120, Note_on_c, 14, 60, 76
12, 102224, Note_on_c, 14, 60, 0
12, 102240, Note_on_c, 14, 59, 76
12, 102344, Note_on_c, 14, 59, 0
12, 102360, Note_on_c, 14, 60, 76
12, 102404, Note_on_c, 14, 60, 0
12, 102420, Note_on_c, 14, 62, 76
12, 102464, Note_on_c, 14, 62, 0
12, 102480, Note_on_c, 14, 64, 76
12, 102584, Note_on_c, 14, 64, 0
12, 102600, Note_on_c, 14, 60, 76
12, 102704, Note_on_c, 14, 60, 0
12, 102720, Note_on_c, 14, 57, 76
12, 102824, Note_on_c, 14, 57, 0
12, 102840, Note_on_c, 14, 62, 76
12, 102944, Note_on_c, 14, 62, 0
12, 102960, Note_on_c, 14, 50, 76
12, 103064, Note_on_c, 14, 50, 0
12, 103080, Note_on_c, 14, 60, 76
12, 103184, Note_on_c, 14, 60, 0
12, 103200, Note_on_c, 14, 59, 76
12, 103304, Note_on_c, 14, 59, 0
12, 103320, Note_on_c, 14, 55, 76
12, 103424, Note_on_c, 14, 55, 0
12, 103440, Note_on_c, 14, 60, 76
12, 103544, Note_on_c, 14, 60, 0
12, 103560, Note_on_c, 14, 48, 76
12, 103664, Note_on_c, 14, 48, 0
12, 103680, Note_on_c, 14, 53, 76
12, 103724, Note_on_c, 14, 53, 0
12, 103740, Note_on_c, 14, 57, 76
12, 103784, Note_on_c, 14, 57, 0
12, 103800, Note_on_c, 14, 55, 76
12, 103844, Note_on_c, 14, 55, 0
12, 103860, Note_on_c, 14, 57, 76
12, 103904, Note_on_c, 14, 57, 0
12, 103920, Note_on_c, 14, 58, 76
12, 103964, Note_on_c, 14, 58, 0
12, 103980, Note_on_c, 14, 57, 76
12, 104024, Note_on_c, 14, 57, 0
12, 104040, Note_on_c, 14, 55, 76
12, 104084, Note_on_c, 14, 55, 0
12, 104100, Note_on_c, 14, 53, 76
12, 104144, Note_on_c, 14, 53, 0
12, 104160, Note_on_c, 14, 52, 76
12, 104204, Note_on_c, 14, 52, 0
12, 104220, Note_on_c, 14, 55, 76
12, 104264, Note_on_c, 14, 55, 0
12, 104280, Note_on_c, 14, 53, 76
12, 104324, Note_on_c, 14, 53, 0
12, 104340, Note_on_c, 14, 55, 76
12, 104384, Note_on_c, 14, 55, 0
12, 104400, Note_on_c, 14, 57, 76
12, 104444, Note_on_c, 14, 57, 0
12, 104460, Note_on_c, 14, 55, 76
12, 104504, Note_on_c, 14, 55, 0
12, 104520, Note_on_c, 14, 53, 76
12, 104564, Note_on_c, 14, 53, 0
12, 104580, Note_on_c, 14, 52, 76
12, 104624, Note_on_c, 14, 52, 0
12, 104640, Note_on_c, 14, 50, 76
12, 104744, Note_on_c, 14, 50, 0
12, 104760, Note_on_c, 14, 52, 76
12, 104804, Note_on_c, 14, 52, 0
12, 104820, Note_on_c, 14, 53, 76
12, 104864, Note_on_c, 14, 53, 0
12, 104880, Note_on_c, 14, 55, 76
12, 104984, Note_on_c, 14, 55, 0
12, 105000, Note_on_c, 14, 43, 76
12, 105104, Note_on_c, 14, 43, 0
12, 105120, Note_on_c, 14, 48, 76
12, 105164, Note_on_c, 14, 48, 0
12, 105180, Note_on_c, 14, 55, 76
12, 105224, Note_on_c, 14, 55, 0
12, 105240, Note_on_c, 14, 57, 76
12, 105284, Note_on_c, 14, 57, 0
12, 105300, Note_on_c, 14, 59, 76
12, 105344, Note_on_c, 14, 59, 0
12, 105360, Note_on_c, 14, 60, 76
12, 105524, Note_on_c, 14, 60, 0
12, 105540, Note_on_c, 14, 60, 76
12, 105584, Note_on_c, 14, 60, 0
12, 105600, Note_on_c, 14, 60, 76
12, 105644, Note_on_c, 14, 60, 0
12, 105660, Note_on_c, 14, 59, 76
12, 105704, Note_on_c, 14, 59, 0
12, 105720, Note_on_c, 14, 60, 76
12, 105764, Note_on_c, 14, 60, 0
12, 105780, Note_on_c, 14, 57, 76
12, 105824, Note_on_c, 14, 57, 0
12, 105840, Note_on_c, 14, 59, 76
12, 106004, Note_on_c, 14, 59, 0
12, 106020, Note_on_c, 14, 59, 76
12, 106064, Note_on_c, 14, 59, 0
12, 106080, Note_on_c, 14, 59, 76
12, 106184, Note_on_c, 14, 59, 0
12, 106200, Note_on_c, 14, 52, 76
12, 106304, Note_on_c, 14, 52, 0
12, 106320, Note_on_c, 14, 57, 76
12, 106484, Note_on_c, 14, 57, 0
12, 106500, Note_on_c, 14, 57, 76
12, 106544, Note_on_c, 14, 57, 0
12, 106560, Note_on_c, 14, 57, 76
12, 106604, Note_on_c, 14, 57, 0
12, 106620, Note_on_c, 14, 55, 76
12, 106664, Note_on_c, 14, 55, 0
12, 106680, Note_on_c, 14, 57, 76
12, 106724, Note_on_c, 14, 57, 0
12, 106740, Note_on_c, 14, 53, 76
12, 106784, Note_on_c, 14, 53, 0
12, 106800, Note_on_c, 14, 55, 76
12, 106964, Note_on_c, 14, 55, 0
12, 106980, Note_on_c, 14, 55, 76
12, 107024, Note_on_c, 14, 55, 0
12, 107040, Note_on_c, 14, 55, 76
12, 107144, Note_on_c, 14, 55, 0
12, 107160, Note_on_c, 14, 48, 76
12, 107264, Note_on_c, 14, 48, 0
12, 107280, Note_on_c, 14, 53, 76
12, 107444, Note_on_c, 14, 53, 0
12, 107460, Note_on_c, 14, 53, 76
12, 107504, Note_on_c, 14, 53, 0
12, 107520, Note_on_c, 14, 53, 76
12, 107564, Note_on_c, 14, 53, 0
12, 107580, Note_on_c, 14, 52, 76
12, 107624, Note_on_c, 14, 52, 0
12, 107640, Note_on_c, 14, 53, 76
12, 107684, Note_on_c, 14, 53, 0
12, 107700, Note_on_c, 14, 50, 76
12, 107744, Note_on_c, 14, 50, 0
12, 107760, Note_on_c, 14, 52, 76
12, 107804, Note_on_c, 14, 52, 0
12, 107820, Note_on_c, 14, 53, 76
12, 107864, Note_on_c, 14, 53, 0
12, 107880, Note_on_c, 14, 55, 76
12, 107924, Note_on_c, 14, 55, 0
12, 107940, Note_on_c, 14, 52, 76
12, 107984, Note_on_c, 14, 52, 0
12, 108000, Note_on_c, 14, 57, 76
12, 108044, Note_on_c, 14, 57, 0
12, 108060, Note_on_c, 14, 58, 76
12, 108104, Note_on_c, 14, 58, 0
12, 108120, Note_on_c, 14, 57, 76
12, 108164, Note_on_c, 14, 57, 0
12, 108180, Note_on_c, 14, 55, 76
12, 108224, Note_on_c, 14, 55, 0
12, 108240, Note_on_c, 14, 53, 76
12, 108284, Note_on_c, 14, 53, 0
12, 108300, Note_on_c, 14, 52, 76
12, 108344, Note_on_c, 14, 52, 0
12, 108360, Note_on_c, 14, 50, 76
12, 108404, Note_on_c, 14, 50, 0
12, 108420, Note_on_c, 14, 48, 76
12, 108464, Note_on_c, 14, 48, 0
12, 108480, Note_on_c, 14, 47, 76
12, 108524, Note_on_c, 14, 47, 0
12, 108540, Note_on_c, 14, 45, 76
12, 108584, Note_on_c, 14, 45, 0
12, 108600, Note_on_c, 14, 43, 76
12, 108644, Note_on_c, 14, 43, 0
12, 108660, Note_on_c, 14, 45, 76
12, 108704, Note_on_c, 14, 45, 0
12, 108720, Note_on_c, 14, 47, 76
12, 108764, Note_on_c, 14, 47, 0
12, 108780, Note_on_c, 14, 45, 76
12, 108824, Note_on_c, 14, 45, 0
12, 108840, Note_on_c, 14, 47, 76
12, 108884, Note_on_c, 14, 47, 0
12, 108900, Note_on_c, 14, 43, 76
12, 108944, Note_on_c, 14, 43, 0
12, 108960, Note_on_c, 14, 48, 76
12, 109064, Note_on_c, 14, 48, 0
12, 109080, Note_on_c, 14, 53, 76
12, 109184, Note_on_c, 14, 53, 0
12, 109200, Note_on_c, 14, 55, 76
12, 109304, Note_on_c, 14, 55, 0
12, 109320, Note_on_c, 14, 43, 76
12, 109424, Note_on_c, 14, 43, 0
12, 109440, Note_on_c, 14, 36, 76
12, 110031, Note_on_c, 14, 36, 0
12, 110040, Note_on_c, 14, 48, 76
12, 110091, Note_on_c, 14, 48, 0
12, 110100, Note_on_c, 14, 50, 76
12, 110151, Note_on_c, 14, 50, 0
12, 110160, Note_on_c, 14, 52, 76
12, 110211, Note_on_c, 14, 52, 0
12, 110220, Note_on_c, 14, 50, 76
12, 110271, Note_on_c, 14, 50, 0
12, 110280, Note_on_c, 14, 52, 76
12, 110331, Note_on_c, 14, 52, 0
12, 110340, Note_on_c, 14, 53, 76
12, 110391, Note_on_c, 14, 53, 0
12, 110400, Note_on_c, 14, 55, 76
12, 110691, Note_on_c, 14, 55, 0
12, 110700, Note_on_c, 14, 55, 76
12, 110751, Note_on_c, 14, 55, 0
12, 110760, Note_on_c, 14, 57, 76
12, 110811, Note_on_c, 14, 57, 0
12, 110820, Note_on_c, 14, 58, 76
12, 110871, Note_on_c, 14, 58, 0
12, 110880, Note_on_c, 14, 60, 76
12, 110931, Note_on_c, 14, 60, 0
12, 110940, Note_on_c, 14, 58, 76
12, 110991, Note_on_c, 14, 58, 0
12, 111000, Note_on_c, 14, 57, 76
12, 111051, Note_on_c, 14, 57, 0
12, 111060, Note_on_c, 14, 58, 76
12, 111111, Note_on_c, 14, 58, 0
12, 111120, Note_on_c, 14, 60, 76
12, 111171, Note_on_c, 14, 60, 0
12, 111180, Note_on_c, 14, 57, 76
12, 111231, Note_on_c, 14, 57, 0
12, 111240, Note_on_c, 14, 58, 76
12, 111291, Note_on_c, 14, 58, 0
12, 111300, Note_on_c, 14, 60, 76
12, 111351, Note_on_c, 14, 60, 0
12, 111360, Note_on_c, 14, 53, 76
12, 111531, Note_on_c, 14, 53, 0
12, 111540, Note_on_c, 14, 50, 76
12, 111569, Note_on_c, 14, 50, 0
12, 111570, Note_on_c, 14, 52, 76
12, 111599, Note_on_c, 14, 52, 0
12, 111600, Note_on_c, 14, 53, 76
12, 111771, Note_on_c, 14, 53, 0
12, 111780, Note_on_c, 14, 55, 76
12, 111809, Note_on_c, 14, 55, 0
12, 111810, Note_on_c, 14, 57, 76
12, 111839, Note_on_c, 14, 57, 0
12, 111840, Note_on_c, 14, 58, 76
12, 112191, Note_on_c, 14, 58, 0
12, 112200, Note_on_c, 14, 58, 76
12, 112311, Note_on_c, 14, 58, 0
12, 112320, Note_on_c, 14, 58, 76
12, 112371, Note_on_c, 14, 58, 0
12, 112380, Note_on_c, 14, 60, 76
12, 112431, Note_on_c, 14, 60, 0
12, 112440, Note_on_c, 14, 58, 76
12, 112491, Note_on_c, 14, 58, 0
12, 112500, Note_on_c, 14, 57, 76
12, 112551, Note_on_c, 14, 57, 0
12, 112560, Note_on_c, 14, 58, 76
12, 112611, Note_on_c, 14, 58, 0
12, 112620, Note_on_c, 14, 55, 76
12, 112671, Note_on_c, 14, 55, 0
12, 112680, Note_on_c, 14, 57, 76
12, 112731, Note_on_c, 14, 57, 0
12, 112740, Note_on_c, 14, 58, 76
12, 112791, Note_on_c, 14, 58, 0
12, 112800, Note_on_c, 14, 57, 76
12, 113031, Note_on_c, 14, 57, 0
12, 113040, Note_on_c, 14, 45, 76
12, 113271, Note_on_c, 14, 45, 0
12, 113280, Note_on_c, 14, 50, 76
12, 113601, Note_on_c, 14, 50, 0
12, 113610, Note_on_c, 14, 52, 76
12, 113639, Note_on_c, 14, 52, 0
12, 113640, Note_on_c, 14, 53, 76
12, 113669, Note_on_c, 14, 53, 0
12, 113670, Note_on_c, 14, 55, 76
12, 113699, Note_on_c, 14, 55, 0
12, 113700, Note_on_c, 14, 57, 76
12, 113729, Note_on_c, 14, 57, 0
12, 113730, Note_on_c, 14, 59, 76
12, 113759, Note_on_c, 14, 59, 0
12, 113760, Note_on_c, 14, 60, 76
12, 113819, Note_on_c, 14, 60, 0
12, 113820, Note_on_c, 14, 59, 76
12, 113879, Note_on_c, 14, 59, 0
12, 113880, Note_on_c, 14, 60, 76
12, 113939, Note_on_c, 14, 60, 0
12, 113940, Note_on_c, 14, 64, 76
12, 113991, Note_on_c, 14, 64, 0
12, 114000, Note_on_c, 14, 62, 76
12, 114059, Note_on_c, 14, 62, 0
12, 114060, Note_on_c, 14, 60, 76
12, 114119, Note_on_c, 14, 60, 0
12, 114120, Note_on_c, 14, 59, 76
12, 114179, Note_on_c, 14, 59, 0
12, 114180, Note_on_c, 14, 60, 76
12, 114231, Note_on_c, 14, 60, 0
12, 114240, Note_on_c, 14, 59, 76
12, 114411, Note_on_c, 14, 59, 0
12, 114420, Note_on_c, 14, 57, 76
12, 114471, Note_on_c, 14, 57, 0
12, 114480, Note_on_c, 14, 59, 76
12, 114651, Note_on_c, 14, 59, 0
12, 114660, Note_on_c, 14, 55, 76
12, 114711, Note_on_c, 14, 55, 0
12, 114720, Note_on_c, 14, 64, 76
12, 115071, Note_on_c, 14, 64, 0
12, 115080, Note_on_c, 14, 64, 76
12, 115191, Note_on_c, 14, 64, 0
12, 115200, Note_on_c, 14, 64, 76
12, 115371, Note_on_c, 14, 64, 0
12, 115380, Note_on_c, 14, 65, 76
12, 115409, Note_on_c, 14, 65, 0
12, 115410, Note_on_c, 14, 64, 76
12, 115439, Note_on_c, 14, 64, 0
12, 115440, Note_on_c, 14, 62, 76
12, 115611, Note_on_c, 14, 62, 0
12, 115620, Note_on_c, 14, 64, 76
12, 115649, Note_on_c, 14, 64, 0
12, 115650, Note_on_c, 14, 60, 76
12, 115679, Note_on_c, 14, 60, 0
12, 115680, Note_on_c, 14, 62, 76
12, 116031, Note_on_c, 14, 62, 0
12, 116040, Note_on_c, 14, 62, 76
12, 116151, Note_on_c, 14, 62, 0
12, 116160, Note_on_c, 14, 62, 76
12, 116451, Note_on_c, 14, 62, 0
12, 116460, Note_on_c, 14, 60, 76
12, 116511, Note_on_c, 14, 60, 0
12, 116520, Note_on_c, 14, 59, 76
12, 116571, Note_on_c, 14, 59, 0
12, 116580, Note_on_c, 14, 60, 76
12, 116631, Note_on_c, 14, 60, 0
12, 116640, Note_on_c, 14, 62, 76
12, 116699, Note_on_c, 14, 62, 0
12, 116700, Note_on_c, 14, 60, 76
12, 116759, Note_on_c, 14, 60, 0
12, 116760, Note_on_c, 14, 62, 76
12, 116819, Note_on_c, 14, 62, 0
12, 116820, Note_on_c, 14, 65, 76
12, 116871, Note_on_c, 14, 65, 0
12, 116880, Note_on_c, 14, 64, 76
12, 116939, Note_on_c, 14, 64, 0
12, 116940, Note_on_c, 14, 62, 76
12, 116999, Note_on_c, 14, 62, 0
12, 117000, Note_on_c, 14, 60, 76
12, 117059, Note_on_c, 14, 60, 0
12, 117060, Note_on_c, 14, 62, 76
12, 117111, Note_on_c, 14, 62, 0
12, 117120, Note_on_c, 14, 59, 76
12, 117651, Note_on_c, 14, 59, 0
12, 117660, Note_on_c, 14, 60, 76
12, 117711, Note_on_c, 14, 60, 0
12, 117720, Note_on_c, 14, 59, 76
12, 117771, Note_on_c, 14, 59, 0
12, 117780, Note_on_c, 14, 57, 76
12, 117831, Note_on_c, 14, 57, 0
12, 117840, Note_on_c, 14, 55, 76
12, 117891, Note_on_c, 14, 55, 0
12, 117900, Note_on_c, 14, 53, 76
12, 117951, Note_on_c, 14, 53, 0
12, 117960, Note_on_c, 14, 52, 76
12, 118011, Note_on_c, 14, 52, 0
12, 118020, Note_on_c, 14, 50, 76
12, 118071, Note_on_c, 14, 50, 0
12, 118080, Note_on_c, 14, 48, 76
12, 118611, Note_on_c, 14, 48, 0
12, 118620, Note_on_c, 14, 46, 76
12, 118671, Note_on_c, 14, 46, 0
12, 118680, Note_on_c, 14, 45, 76
12, 118731, Note_on_c, 14, 45, 0
12, 118740, Note_on_c, 14, 46, 76
12, 118791, Note_on_c, 14, 46, 0
12, 118800, Note_on_c, 14, 48, 76
12, 118851, Note_on_c, 14, 48, 0
12, 118860, Note_on_c, 14, 45, 76
12, 118911, Note_on_c, 14, 45, 0
12, 118920, Note_on_c, 14, 46, 76
12, 118971, Note_on_c, 14, 46, 0
12, 118980, Note_on_c, 14, 48, 76
12, 119031, Note_on_c, 14, 48, 0
12, 119040, Note_on_c, 14, 41, 76
12, 119571, Note_on_c, 14, 41, 0
12, 119580, Note_on_c, 14, 40, 76
12, 119631, Note_on_c, 14, 40, 0
12, 119640, Note_on_c, 14, 41, 76
12, 119691, Note_on_c, 14, 41, 0
12, 119700, Note_on_c, 14, 43, 76
12, 119751, Note_on_c, 14, 43, 0
12, 119760, Note_on_c, 14, 45, 76
12, 119811, Note_on_c, 14, 45, 0
12, 119820, Note_on_c, 14, 41, 76
12, 119871, Note_on_c, 14, 41, 0
12, 119880, Note_on_c, 14, 43, 76
12, 119931, Note_on_c, 14, 43, 0
12, 119940, Note_on_c, 14, 45, 76
12, 119991, Note_on_c, 14, 45, 0
12, 120000, Note_on_c, 14, 38, 76
12, 120531, Note_on_c, 14, 38, 0
12, 120540, Note_on_c, 14, 36, 76
12, 120591, Note_on_c, 14, 36, 0
12, 120600, Note_on_c, 14, 38, 76
12, 120651, Note_on_c, 14, 38, 0
12, 120660, Note_on_c, 14, 40, 76
12, 120711, Note_on_c, 14, 40, 0
12, 120720, Note_on_c, 14, 41, 76
12, 120771, Note_on_c, 14, 41, 0
12, 120780, Note_on_c, 14, 40, 76
12, 120831, Note_on_c, 14, 40, 0
12, 120840, Note_on_c, 14, 41, 76
12, 120891, Note_on_c, 14, 41, 0
12, 120900, Note_on_c, 14, 38, 76
12, 120951, Note_on_c, 14, 38, 0
12, 120960, Note_on_c, 14, 43, 76
12, 121131, Note_on_c, 14, 43, 0
12, 121140, Note_on_c, 14, 43, 76
12, 121191, Note_on_c, 14, 43, 0
12, 121200, Note_on_c, 14, 45, 76
12, 121371, Note_on_c, 14, 45, 0
12, 121380, Note_on_c, 14, 47, 76
12, 121431, Note_on_c, 14, 47, 0
12, 121440, Note_on_c, 14, 48, 76
12, 121611, Note_on_c, 14, 48, 0
12, 121620, Note_on_c, 14, 48, 76
12, 121671, Note_on_c, 14, 48, 0
12, 121680, Note_on_c, 14, 50, 76
12, 121851, Note_on_c, 14, 50, 0
12, 121860, Note_on_c, 14, 52, 76
12, 121911, Note_on_c, 14, 52, 0
12, 121920, Note_on_c, 14, 53, 76
12, 122451, Note_on_c, 14, 53, 0
12, 122460, Note_on_c, 14, 55, 76
12, 122511, Note_on_c, 14, 55, 0
12, 122520, Note_on_c, 14, 53, 76
12, 122571, Note_on_c, 14, 53, 0
12, 122580, Note_on_c, 14, 52, 76
12, 122631, Note_on_c, 14, 52, 0
12, 122640, Note_on_c, 14, 50, 76
12, 122691, Note_on_c, 14, 50, 0
12, 122700, Note_on_c, 14, 48, 76
12, 122751, Note_on_c, 14, 48, 0
12, 122760, Note_on_c, 14, 47, 76
12, 122811, Note_on_c, 14, 47, 0
12, 122820, Note_on_c, 14, 45, 76
12, 122871, Note_on_c, 14, 45, 0
12, 122880, Note_on_c, 14, 43, 76
12, 123051, Note_on_c, 14, 43, 0
12, 123060, Note_on_c, 14, 47, 76
12, 123111, Note_on_c, 14, 47, 0
12, 123120, Note_on_c, 14, 48, 76
12, 123291, Note_on_c, 14, 48, 0
12, 123300, Note_on_c, 14, 41, 76
12, 123351, Note_on_c, 14, 41, 0
12, 123360, Note_on_c, 14, 43, 76
12, 123591, Note_on_c, 14, 43, 0
12, 123600, Note_on_c, 14, 43, 76
12, 123831, Note_on_c, 14, 43, 0
12, 123840, Note_on_c, 14, 36, 76
12, 123959, Note_on_c, 14, 36, 0
12, 128280, Note_on_c, 14, 60, 76
12, 128384, Note_on_c, 14, 60, 0
12, 128400, Note_on_c, 14, 60, 76
12, 128504, Note_on_c, 14, 60, 0
12, 128520, Note_on_c, 14, 60, 76
12, 128624, Note_on_c, 14, 60, 0
12, 128640, Note_on_c, 14, 59, 76
12, 128744, Note_on_c, 14, 59, 0
12, 128760, Note_on_c, 14, 60, 76
12, 128804, Note_on_c, 14, 60, 0
12, 128820, Note_on_c, 14, 62, 76
12, 128864, Note_on_c, 14, 62, 0
12, 128880, Note_on_c, 14, 64, 76
12, 128984, Note_on_c, 14, 64, 0
12, 129000, Note_on_c, 14, 60, 76
12, 129104, Note_on_c, 14, 60, 0
12, 129120, Note_on_c, 14, 57, 76
12, 129224, Note_on_c, 14, 57, 0
12, 129240, Note_on_c, 14, 62, 76
12, 129344, Note_on_c, 14, 62, 0
12, 129360, Note_on_c, 14, 50, 76
12, 129464, Note_on_c, 14, 50, 0
12, 129480, Note_on_c, 14, 60, 76
12, 129584, Note_on_c, 14, 60, 0
12, 129600, Note_on_c, 14, 59, 76
12, 129644, Note_on_c, 14, 59, 0
12, 129660, Note_on_c, 14, 57, 76
12, 129704, Note_on_c, 14, 57, 0
12, 129720, Note_on_c, 14, 55, 76
12, 129764, Note_on_c, 14, 55, 0
12, 129780, Note_on_c, 14, 57, 76
12, 129824, Note_on_c, 14, 57, 0
12, 129840, Note_on_c, 14, 59, 76
12, 129884, Note_on_c, 14, 59, 0
12, 129900, Note_on_c, 14, 55, 76
12, 129944, Note_on_c, 14, 55, 0
12, 129960, Note_on_c, 14, 57, 76
12, 130004, Note_on_c, 14, 57, 0
12, 130020, Note_on_c, 14, 59, 76
12, 130064, Note_on_c, 14, 59, 0
12, 130080, Note_on_c, 14, 60, 76
12, 130184, Note_on_c, 14, 60, 0
12, 130200, Note_on_c, 14, 55, 76
12, 130304, Note_on_c, 14, 55, 0
12, 130320, Note_on_c, 14, 60, 76
12, 130484, Note_on_c, 14, 60, 0
12, 130500, Note_on_c, 14, 60, 76
12, 130544, Note_on_c, 14, 60, 0
12, 130560, Note_on_c, 14, 60, 76
12, 130604, Note_on_c, 14, 60, 0
12, 130620, Note_on_c, 14, 59, 76
12, 130664, Note_on_c, 14, 59, 0
12, 130680, Note_on_c, 14, 60, 76
12, 130724, Note_on_c, 14, 60, 0
12, 130740, Note_on_c, 14, 57, 76
12, 130784, Note_on_c, 14, 57, 0
12, 130800, Note_on_c, 14, 59, 76
12, 130964, Note_on_c, 14, 59, 0
12, 130980, Note_on_c, 14, 59, 76
12, 131024, Note_on_c, 14, 59, 0
12, 131040, Note_on_c, 14, 59, 76
12, 131144, Note_on_c, 14, 59, 0
12, 131160, Note_on_c, 14, 52, 76
12, 131264, Note_on_c, 14, 52, 0
12, 131280, Note_on_c, 14, 57, 76
12, 131444, Note_on_c, 14, 57, 0
12, 131460, Note_on_c, 14, 57, 76
12, 131504, Note_on_c, 14, 57, 0
12, 131520, Note_on_c, 14, 57, 76
12, 131564, Note_on_c, 14, 57, 0
12, 131580, Note_on_c, 14, 55, 76
12, 131624, Note_on_c, 14, 55, 0
12, 131640, Note_on_c, 14, 57, 76
12, 131684, Note_on_c, 14, 57, 0
12, 131700, Note_on_c, 14, 53, 76
12, 131744, Note_on_c, 14, 53, 0
12, 131760, Note_on_c, 14, 55, 76
12, 131924, Note_on_c, 14, 55, 0
12, 131940, Note_on_c, 14, 55, 76
12, 131984, Note_on_c, 14, 55, 0
12, 132000, Note_on_c, 14, 55, 76
12, 132104, Note_on_c, 14, 55, 0
12, 132120, Note_on_c, 14, 48, 76
12, 132224, Note_on_c, 14, 48, 0
12, 132240, Note_on_c, 14, 53, 76
12, 132404, Note_on_c, 14, 53, 0
12, 132420, Note_on_c, 14, 53, 76
12, 132464, Note_on_c, 14, 53, 0
12, 132480, Note_on_c, 14, 53, 76
12, 132524, Note_on_c, 14, 53, 0
12, 132540, Note_on_c, 14, 52, 76
12, 132584, Note_on_c, 14, 52, 0
12, 132600, Note_on_c, 14, 53, 76
12, 132644, Note_on_c, 14, 53, 0
12, 132660, Note_on_c, 14, 50, 76
12, 132704, Note_on_c, 14, 50, 0
12, 132720, Note_on_c, 14, 52, 76
12, 132764, Note_on_c, 14, 52, 0
12, 132780, Note_on_c, 14, 53, 76
12, 132824, Note_on_c, 14, 53, 0
12, 132840, Note_on_c, 14, 55, 76
12, 132884, Note_on_c, 14, 55, 0
12, 132900, Note_on_c, 14, 52, 76
12, 132944, Note_on_c, 14, 52, 0
12, 132960, Note_on_c, 14, 57, 76
12, 133004, Note_on_c, 14, 57, 0
12, 133020, Note_on_c, 14, 58, 76
12, 133064, Note_on_c, 14, 58, 0
12, 133080, Note_on_c, 14, 57, 76
12, 133124, Note_on_c, 14, 57, 0
12, 133140, Note_on_c, 14, 55, 76
12, 133184, Note_on_c, 14, 55, 0
12, 133200, Note_on_c, 14, 53, 76
12, 133244, Note_on_c, 14, 53, 0
12, 133260, Note_on_c, 14, 52, 76
12, 133304, Note_on_c, 14, 52, 0
12, 133320, Note_on_c, 14, 50, 76
12, 133364, Note_on_c, 14, 50, 0
12, 133380, Note_on_c, 14, 48, 76
12, 133424, Note_on_c, 14, 48, 0
12, 133440, Note_on_c, 14, 47, 76
12, 133484, Note_on_c, 14, 47, 0
12, 133500, Note_on_c, 14, 45, 76
12, 133544, Note_on_c, 14, 45, 0
12, 133560, Note_on_c, 14, 43, 76
12, 133604, Note_on_c, 14, 43, 0
12, 133620, Note_on_c, 14, 45, 76
12, 133664, Note_on_c, 14, 45, 0
12, 133680, Note_on_c, 14, 47, 76
12, 133724, Note_on_c, 14, 47, 0
12, 133740, Note_on_c, 14, 45, 76
12, 133784, Note_on_c, 14, 45, 0
12, 133800, Note_on_c, 14, 47, 76
12, 133844, Note_on_c, 14, 47, 0
12, 133860, Note_on_c, 14, 43, 76
12, 133904, Note_on_c, 14, 43, 0
12, 133920, Note_on_c, 14, 48, 76
12, 134024, Note_on_c, 14, 48, 0
12, 134040, Note_on_c, 14, 53, 76
12, 134144, Note_on_c, 14, 53, 0
12, 134160, Note_on_c, 14, 55, 76
12, 134264, Note_on_c, 14, 55, 0
12, 134280, Note_on_c, 14, 43, 76
12, 134384, Note_on_c, 14, 43, 0
12, 134400, Note_on_c, 14, 48, 76
12, 134519, Note_on_c, 14, 48, 0
12, 140700, Note_on_c, 14, 60, 76
12, 140744, Note_on_c, 14, 60, 0
12, 140760, Note_on_c, 14, 59, 76
12, 140804, Note_on_c, 14, 59, 0
12, 140820, Note_on_c, 14, 57, 76
12, 140864, Note_on_c, 14, 57, 0
12, 140880, Note_on_c, 14, 56, 76
12, 140924, Note_on_c, 14, 56, 0
12, 140940, Note_on_c, 14, 57, 76
12, 140984, Note_on_c, 14, 57, 0
12, 141000, Note_on_c, 14, 56, 76
12, 141044, Note_on_c, 14, 56, 0
12, 141060, Note_on_c, 14, 54, 76
12, 141104, Note_on_c, 14, 54, 0
12, 141120, Note_on_c, 14, 52, 76
12, 141164, Note_on_c, 14, 52, 0
12, 141180, Note_on_c, 14, 62, 76
12, 141224, Note_on_c, 14, 62, 0
12, 141240, Note_on_c, 14, 60, 76
12, 141284, Note_on_c, 14, 60, 0
12, 141300, Note_on_c, 14, 59, 76
12, 141344, Note_on_c, 14, 59, 0
12, 141360, Note_on_c, 14, 57, 76
12, 141404, Note_on_c, 14, 57, 0
12, 141420, Note_on_c, 14, 59, 76
12, 141464, Note_on_c, 14, 59, 0
12, 141480, Note_on_c, 14, 57, 76
12, 141524, Note_on_c, 14, 57, 0
12, 141540, Note_on_c, 14, 55, 76
12, 141584, Note_on_c, 14, 55, 0
12, 141600, Note_on_c, 14, 53, 76
12, 141644, Note_on_c, 14, 53, 0
12, 141660, Note_on_c, 14, 52, 76
12, 141704, Note_on_c, 14, 52, 0
12, 141720, Note_on_c, 14, 53, 76
12, 141764, Note_on_c, 14, 53, 0
12, 141780, Note_on_c, 14, 50, 76
12, 141824, Note_on_c, 14, 50, 0
12, 141840, Note_on_c, 14, 52, 76
12, 141944, Note_on_c, 14, 52, 0
12, 141960, Note_on_c, 14, 40, 76
12, 142064, Note_on_c, 14, 40, 0
12, 142080, Note_on_c, 14, 45, 76
12, 142184, Note_on_c, 14, 45, 0
12, 142200, Note_on_c, 14, 57, 76
12, 142304, Note_on_c, 14, 57, 0
12, 142320, Note_on_c, 14, 57, 76
12, 142424, Note_on_c, 14, 57, 0
12, 142440, Note_on_c, 14, 57, 76
12, 142544, Note_on_c, 14, 57, 0
12, 142560, Note_on_c, 14, 55, 76
12, 142664, Note_on_c, 14, 55, 0
12, 142680, Note_on_c, 14, 57, 76
12, 142724, Note_on_c, 14, 57, 0
12, 142740, Note_on_c, 14, 59, 76
12, 142784, Note_on_c, 14, 59, 0
12, 142800, Note_on_c, 14, 60, 76
12, 142904, Note_on_c, 14, 60, 0
12, 142920, Note_on_c, 14, 57, 76
12, 143024, Note_on_c, 14, 57, 0
12, 143040, Note_on_c, 14, 54, 76
12, 143144, Note_on_c, 14, 54, 0
12, 143160, Note_on_c, 14, 59, 76
12, 143264, Note_on_c, 14, 59, 0
12, 143280, Note_on_c, 14, 47, 76
12, 143384, Note_on_c, 14, 47, 0
12, 143400, Note_on_c, 14, 59, 76
12, 143504, Note_on_c, 14, 59, 0
12, 143520, Note_on_c, 14, 52, 76
12, 143759, Note_on_c, 14, 52, 0
12, 145080, Note_on_c, 14, 52, 76
12, 145184, Note_on_c, 14, 52, 0
12, 145200, Note_on_c, 14, 52, 76
12, 145304, Note_on_c, 14, 52, 0
12, 145320, Note_on_c, 14, 52, 76
12, 145424, Note_on_c, 14, 52, 0
12, 145440, Note_on_c, 14, 48, 76
12, 145544, Note_on_c, 14, 48, 0
12, 145560, Note_on_c, 14, 50, 76
12, 145604, Note_on_c, 14, 50, 0
12, 145620, Note_on_c, 14, 52, 76
12, 145664, Note_on_c, 14, 52, 0
12, 145680, Note_on_c, 14, 53, 76
12, 145784, Note_on_c, 14, 53, 0
12, 145800, Note_on_c, 14, 50, 76
12, 145904, Note_on_c, 14, 50, 0
12, 145920, Note_on_c, 14, 47, 76
12, 146024, Note_on_c, 14, 47, 0
12, 146040, Note_on_c, 14, 52, 76
12, 146144, Note_on_c, 14, 52, 0
12, 146160, Note_on_c, 14, 40, 76
12, 146264, Note_on_c, 14, 40, 0
12, 146280, Note_on_c, 14, 50, 76
12, 146384, Note_on_c, 14, 50, 0
12, 146400, Note_on_c, 14, 48, 76
12, 146444, Note_on_c, 14, 48, 0
12, 146460, Note_on_c, 14, 47, 76
12, 146504, Note_on_c, 14, 47, 0
12, 146520, Note_on_c, 14, 45, 76
12, 146564, Note_on_c, 14, 45, 0
12, 146580, Note_on_c, 14, 47, 76
12, 146624, Note_on_c, 14, 47, 0
12, 146640, Note_on_c, 14, 48, 76
12, 146684, Note_on_c, 14, 48, 0
12, 146700, Note_on_c, 14, 50, 76
12, 146744, Note_on_c, 14, 50, 0
12, 146760, Note_on_c, 14, 52, 76
12, 146804, Note_on_c, 14, 52, 0
12, 146820, Note_on_c, 14, 48, 76
12, 146864, Note_on_c, 14, 48, 0
12, 146880, Note_on_c, 14, 53, 76
12, 146924, Note_on_c, 14, 53, 0
12, 146940, Note_on_c, 14, 55, 76
12, 146984, Note_on_c, 14, 55, 0
12, 147000, Note_on_c, 14, 53, 76
12, 147044, Note_on_c, 14, 53, 0
12, 147060, Note_on_c, 14, 52, 76
12, 147104, Note_on_c, 14, 52, 0
12, 147120, Note_on_c, 14, 50, 76
12, 147164, Note_on_c, 14, 50, 0
12, 147180, Note_on_c, 14, 48, 76
12, 147224, Note_on_c, 14, 48, 0
12, 147240, Note_on_c, 14, 50, 76
12, 147284, Note_on_c, 14, 50, 0
12, 147300, Note_on_c, 14, 47, 76
12, 147344, Note_on_c, 14, 47, 0
12, 147360, Note_on_c, 14, 52, 76
12, 147404, Note_on_c, 14, 52, 0
12, 147420, Note_on_c, 14, 53, 76
12, 147464, Note_on_c, 14, 53, 0
12, 147480, Note_on_c, 14, 52, 76
12, 147524, Note_on_c, 14, 52, 0
12, 147540, Note_on_c, 14, 50, 76
12, 147584, Note_on_c, 14, 50, 0
12, 147600, Note_on_c, 14, 48, 76
12, 147644, Note_on_c, 14, 48, 0
12, 147660, Note_on_c, 14, 50, 76
12, 147704, Note_on_c, 14, 50, 0
12, 147720, Note_on_c, 14, 48, 76
12, 147764, Note_on_c, 14, 48, 0
12, 147780, Note_on_c, 14, 47, 76
12, 147824, Note_on_c, 14, 47, 0
12, 147840, Note_on_c, 14, 45, 76
12, 147944, Note_on_c, 14, 45, 0
12, 147960, Note_on_c, 14, 50, 76
12, 148064, Note_on_c, 14, 50, 0
12, 148080, Note_on_c, 14, 52, 76
12, 148184, Note_on_c, 14, 52, 0
12, 148200, Note_on_c, 14, 40, 76
12, 148304, Note_on_c, 14, 40, 0
12, 148320, Note_on_c, 14, 45, 76
12, 148559, Note_on_c, 14, 45, 0
12, 149820, Note_on_c, 14, 60, 76
12, 149864, Note_on_c, 14, 60, 0
12, 149880, Note_on_c, 14, 59, 76
12, 149924, Note_on_c, 14, 59, 0
12, 149940, Note_on_c, 14, 57, 76
12, 149984, Note_on_c, 14, 57, 0
12, 150000, Note_on_c, 14, 55, 76
12, 150044, Note_on_c, 14, 55, 0
12, 150060, Note_on_c, 14, 54, 76
12, 150104, Note_on_c, 14, 54, 0
12, 150120, Note_on_c, 14, 55, 76
12, 150164, Note_on_c, 14, 55, 0
12, 150180, Note_on_c, 14, 52, 76
12, 150224, Note_on_c, 14, 52, 0
12, 150240, Note_on_c, 14, 57, 76
12, 150344, Note_on_c, 14, 57, 0
12, 150360, Note_on_c, 14, 45, 76
12, 150479, Note_on_c, 14, 45, 0
12, 151740, Note_on_c, 14, 58, 76
12, 151784, Note_on_c, 14, 58, 0
12, 151800, Note_on_c, 14, 57, 76
12, 151844, Note_on_c, 14, 57, 0
12, 151860, Note_on_c, 14, 55, 76
12, 151904, Note_on_c, 14, 55, 0
12, 151920, Note_on_c, 14, 53, 76
12, 151964, Note_on_c, 14, 53, 0
12, 151980, Note_on_c, 14, 52, 76
12, 152024, Note_on_c, 14, 52, 0
12, 152040, Note_on_c, 14, 53, 76
12, 152084, Note_on_c, 14, 53, 0
12, 152100, Note_on_c, 14, 50, 76
12, 152144, Note_on_c, 14, 50, 0
12, 152160, Note_on_c, 14, 55, 76
12, 152264, Note_on_c, 14, 55, 0
12, 152280, Note_on_c, 14, 43, 76
12, 152399, Note_on_c, 14, 43, 0
12, 154140, Note_on_c, 14, 53, 76
12, 154184, Note_on_c, 14, 53, 0
12, 154200, Note_on_c, 14, 52, 76
12, 154244, Note_on_c, 14, 52, 0
12, 154260, Note_on_c, 14, 50, 76
12, 154304, Note_on_c, 14, 50, 0
12, 154320, Note_on_c, 14, 48, 76
12, 154364, Note_on_c, 14, 48, 0
12, 154380, Note_on_c, 14, 47, 76
12, 154424, Note_on_c, 14, 47, 0
12, 154440, Note_on_c, 14, 48, 76
12, 154484, Note_on_c, 14, 48, 0
12, 154500, Note_on_c, 14, 45, 76
12, 154544, Note_on_c, 14, 45, 0
12, 154560, Note_on_c, 14, 50, 76
12, 154664, Note_on_c, 14, 50, 0
12, 154680, Note_on_c, 14, 38, 76
12, 154799, Note_on_c, 14, 38, 0
12, 155160, Note_on_c, 14, 55, 76
12, 155264, Note_on_c, 14, 55, 0
12, 155280, Note_on_c, 14, 55, 76
12, 155384, Note_on_c, 14, 55, 0
12, 155400, Note_on_c, 14, 55, 76
12, 155504, Note_on_c, 14, 55, 0
12, 155520, Note_on_c, 14, 54, 76
12, 155624, Note_on_c, 14, 54, 0
12, 155640, Note_on_c, 14, 55, 76
12, 155684, Note_on_c, 14, 55, 0
12, 155700, Note_on_c, 14, 57, 76
12, 155744, Note_on_c, 14, 57, 0
12, 155760, Note_on_c, 14, 59, 76
12, 155864, Note_on_c, 14, 59, 0
12, 155880, Note_on_c, 14, 55, 76
12, 155984, Note_on_c, 14, 55, 0
12, 156000, Note_on_c, 14, 52, 76
12, 156104, Note_on_c, 14, 52, 0
12, 156120, Note_on_c, 14, 57, 76
12, 156224, Note_on_c, 14, 57, 0
12, 156240, Note_on_c, 14, 45, 76
12, 156344, Note_on_c, 14, 45, 0
12, 156360, Note_on_c, 14, 55, 76
12, 156464, Note_on_c, 14, 55, 0
12, 156480, Note_on_c, 14, 54, 76
12, 156584, Note_on_c, 14, 54, 0
12, 156600, Note_on_c, 14, 55, 76
12, 156644, Note_on_c, 14, 55, 0
12, 156660, Note_on_c, 14, 57, 76
12, 156704, Note_on_c, 14, 57, 0
12, 156720, Note_on_c, 14, 59, 76
12, 156764, Note_on_c, 14, 59, 0
12, 156780, Note_on_c, 14, 60, 76
12, 156824, Note_on_c, 14, 60, 0
12, 156840, Note_on_c, 14, 62, 76
12, 156884, Note_on_c, 14, 62, 0
12, 156900, Note_on_c, 14, 64, 76
12, 156944, Note_on_c, 14, 64, 0
12, 156960, Note_on_c, 14, 57, 76
12, 157004, Note_on_c, 14, 57, 0
12, 157020, Note_on_c, 14, 60, 76
12, 157064, Note_on_c, 14, 60, 0
12, 157080, Note_on_c, 14, 59, 76
12, 157124, Note_on_c, 14, 59, 0
12, 157140, Note_on_c, 14, 60, 76
12, 157184, Note_on_c, 14, 60, 0
12, 157200, Note_on_c, 14, 62, 76
12, 157244, Note_on_c, 14, 62, 0
12, 157260, Note_on_c, 14, 60, 76
12, 157304, Note_on_c, 14, 60, 0
12, 157320, Note_on_c, 14, 59, 76
12, 157364, Note_on_c, 14, 59, 0
12, 157380, Note_on_c, 14, 57, 76
12, 157424, Note_on_c, 14, 57, 0
12, 157440, Note_on_c, 14, 55, 76
12, 157484, Note_on_c, 14, 55, 0
12, 157500, Note_on_c, 14, 59, 76
12, 157544, Note_on_c, 14, 59, 0
12, 157560, Note_on_c, 14, 57, 76
12, 157604, Note_on_c, 14, 57, 0
12, 157620, Note_on_c, 14, 59, 76
12, 157664, Note_on_c, 14, 59, 0
12, 157680, Note_on_c, 14, 60, 76
12, 157724, Note_on_c, 14, 60, 0
12, 157740, Note_on_c, 14, 59, 76
12, 157784, Note_on_c, 14, 59, 0
12, 157800, Note_on_c, 14, 57, 76
12, 157844, Note_on_c, 14, 57, 0
12, 157860, Note_on_c, 14, 55, 76
12, 157904, Note_on_c, 14, 55, 0
12, 157920, Note_on_c, 14, 54, 76
12, 157964, Note_on_c, 14, 54, 0
12, 157980, Note_on_c, 14, 57, 76
12, 158024, Note_on_c, 14, 57, 0
12, 158040, Note_on_c, 14, 55, 76
12, 158084, Note_on_c, 14, 55, 0
12, 158100, Note_on_c, 14, 57, 76
12, 158144, Note_on_c, 14, 57, 0
12, 158160, Note_on_c, 14, 59, 76
12, 158204, Note_on_c, 14, 59, 0
12, 158220, Note_on_c, 14, 57, 76
12, 158264, Note_on_c, 14, 57, 0
12, 158280, Note_on_c, 14, 55, 76
12, 158324, Note_on_c, 14, 55, 0
12, 158340, Note_on_c, 14, 54, 76
12, 158384, Note_on_c, 14, 54, 0
12, 158400, Note_on_c, 14, 52, 76
12, 158444, Note_on_c, 14, 52, 0
12, 158460, Note_on_c, 14, 55, 76
12, 158504, Note_on_c, 14, 55, 0
12, 158520, Note_on_c, 14, 54, 76
12, 158564, Note_on_c, 14, 54, 0
12, 158580, Note_on_c, 14, 55, 76
12, 158624, Note_on_c, 14, 55, 0
12, 158640, Note_on_c, 14, 57, 76
12, 158684, Note_on_c, 14, 57, 0
12, 158700, Note_on_c, 14, 55, 76
12, 158744, Note_on_c, 14, 55, 0
12, 158760, Note_on_c, 14, 54, 76
12, 158804, Note_on_c, 14, 54, 0
12, 158820, Note_on_c, 14, 52, 76
12, 158864, Note_on_c, 14, 52, 0
12, 158880, Note_on_c, 14, 50, 76
12, 158984, Note_on_c, 14, 50, 0
12, 159000, Note_on_c, 14, 62, 76
12, 159104, Note_on_c, 14, 62, 0
12, 159120, Note_on_c, 14, 62, 76
12, 159224, Note_on_c, 14, 62, 0
12, 159240, Note_on_c, 14, 62, 76
12, 159344, Note_on_c, 14, 62, 0
12, 159360, Note_on_c, 14, 59, 76
12, 159464, Note_on_c, 14, 59, 0
12, 159480, Note_on_c, 14, 60, 76
12, 159524, Note_on_c, 14, 60, 0
12, 159540, Note_on_c, 14, 62, 76
12, 159584, Note_on_c, 14, 62, 0
12, 159600, Note_on_c, 14, 64, 76
12, 159704, Note_on_c, 14, 64, 0
12, 159720, Note_on_c, 14, 60, 76
12, 159824, Note_on_c, 14, 60, 0
12, 159840, Note_on_c, 14, 57, 76
12, 159944, Note_on_c, 14, 57, 0
12, 159960, Note_on_c, 14, 62, 76
12, 160064, Note_on_c, 14, 62, 0
12, 160080, Note_on_c, 14, 50, 76
12, 160184, Note_on_c, 14, 50, 0
12, 160200, Note_on_c, 14, 60, 76
12, 160304, Note_on_c, 14, 60, 0
12, 160320, Note_on_c, 14, 59, 76
12, 160424, Note_on_c, 14, 59, 0
12, 160440, Note_on_c, 14, 55, 76
12, 160544, Note_on_c, 14, 55, 0
12, 160560, Note_on_c, 14, 62, 76
12, 160664, Note_on_c, 14, 62, 0
12, 160680, Note_on_c, 14, 50, 76
12, 160784, Note_on_c, 14, 50, 0
12, 160800, Note_on_c, 14, 43, 76
12, 160919, Note_on_c, 14, 43, 0
12, 172920, Note_on_c, 14, 64, 76
12, 172964, Note_on_c, 14, 64, 0
12, 172980, Note_on_c, 14, 62, 76
12, 173024, Note_on_c, 14, 62, 0
12, 173040, Note_on_c, 14, 60, 76
12, 173084, Note_on_c, 14, 60, 0
12, 173100, Note_on_c, 14, 59, 76
12, 173144, Note_on_c, 14, 59, 0
12, 173160, Note_on_c, 14, 60, 76
12, 173204, Note_on_c, 14, 60, 0
12, 173220, Note_on_c, 14, 57, 76
12, 173264, Note_on_c, 14, 57, 0
12, 173280, Note_on_c, 14, 62, 76
12, 173384, Note_on_c, 14, 62, 0
12, 173400, Note_on_c, 14, 50, 76
12, 173519, Note_on_c, 14, 50, 0
12, 174840, Note_on_c, 14, 62, 76
12, 174884, Note_on_c, 14, 62, 0
12, 174900, Note_on_c, 14, 60, 76
12, 174944, Note_on_c, 14, 60, 0
12, 174960, Note_on_c, 14, 58, 76
12, 175004, Note_on_c, 14, 58, 0
12, 175020, Note_on_c, 14, 57, 76
12, 175064, Note_on_c, 14, 57, 0
12, 175080, Note_on_c, 14, 58, 76
12, 175124, Note_on_c, 14, 58, 0
12, 175140, Note_on_c, 14, 55, 76
12, 175184, Note_on_c, 14, 55, 0
12, 175200, Note_on_c, 14, 60, 76
12, 175304, Note_on_c, 14, 60, 0
12, 175320, Note_on_c, 14, 48, 76
12, 175439, Note_on_c, 14, 48, 0
12, 177180, Note_on_c, 14, 58, 76
12, 177224, Note_on_c, 14, 58, 0
12, 177240, Note_on_c, 14, 57, 76
12, 177284, Note_on_c, 14, 57, 0
12, 177300, Note_on_c, 14, 55, 76
12, 177344, Note_on_c, 14, 55, 0
12, 177360, Note_on_c, 14, 53, 76
12, 177404, Note_on_c, 14, 53, 0
12, 177420, Note_on_c, 14, 52, 76
12, 177464, Note_on_c, 14, 52, 0
12, 177480, Note_on_c, 14, 53, 76
12, 177524, Note_on_c, 14, 53, 0
12, 177540, Note_on_c, 14, 50, 76
12, 177584, Note_on_c, 14, 50, 0
12, 177600, Note_on_c, 14, 55, 76
12, 177704, Note_on_c, 14, 55, 0
12, 177720, Note_on_c, 14, 43, 76
12, 177839, Note_on_c, 14, 43, 0
12, 178200, Note_on_c, 14, 60, 76
12, 178304, Note_on_c, 14, 60, 0
12, 178320, Note_on_c, 14, 60, 76
12, 178424, Note_on_c, 14, 60, 0
12, 178440, Note_on_c, 14, 60, 76
12, 178544, Note_on_c, 14, 60, 0
12, 178560, Note_on_c, 14, 59, 76
12, 178664, Note_on_c, 14, 59, 0
12, 178680, Note_on_c, 14, 60, 76
12, 178724, Note_on_c, 14, 60, 0
12, 178740, Note_on_c, 14, 62, 76
12, 178784, Note_on_c, 14, 62, 0
12, 178800, Note_on_c, 14, 64, 76
12, 178904, Note_on_c, 14, 64, 0
12, 178920, Note_on_c, 14, 60, 76
12, 179024, Note_on_c, 14, 60, 0
12, 179040, Note_on_c, 14, 57, 76
12, 179144, Note_on_c, 14, 57, 0
12, 179160, Note_on_c, 14, 62, 76
12, 179264, Note_on_c, 14, 62, 0
12, 179280, Note_on_c, 14, 50, 76
12, 179384, Note_on_c, 14, 50, 0
12, 179400, Note_on_c, 14, 60, 76
12, 179504, Note_on_c, 14, 60, 0
12, 179520, Note_on_c, 14, 59, 76
12, 179624, Note_on_c, 14, 59, 0
12, 179640, Note_on_c, 14, 55, 76
12, 179744, Note_on_c, 14, 55, 0
12, 179760, Note_on_c, 14, 60, 76
12, 179864, Note_on_c, 14, 60, 0
12, 179880, Note_on_c, 14, 48, 76
12, 179984, Note_on_c, 14, 48, 0
12, 180000, Note_on_c, 14, 41, 76
12, 180104, Note_on_c, 14, 41, 0
12, 180120, Note_on_c, 14, 53, 76
12, 180224, Note_on_c, 14, 53, 0
12, 180240, Note_on_c, 14, 53, 76
12, 180344, Note_on_c, 14, 53, 0
12, 180360, Note_on_c, 14, 53, 76
12, 180464, Note_on_c, 14, 53, 0
12, 180480, Note_on_c, 14, 52, 76
12, 180584, Note_on_c, 14, 52, 0
12, 180600, Note_on_c, 14, 53, 76
12, 180644, Note_on_c, 14, 53, 0
12, 180660, Note_on_c, 14, 55, 76
12, 180704, Note_on_c, 14, 55, 0
12, 180720, Note_on_c, 14, 57, 76
12, 180824, Note_on_c, 14, 57, 0
12, 180840, Note_on_c, 14, 53, 76
12, 180944, Note_on_c, 14, 53, 0
12, 180960, Note_on_c, 14, 50, 76
12, 181064, Note_on_c, 14, 50, 0
12, 181080, Note_on_c, 14, 55, 76
12, 181184, Note_on_c, 14, 55, 0
12, 181200, Note_on_c, 14, 43, 76
12, 181304, Note_on_c, 14, 43, 0
12, 181320, Note_on_c, 14, 53, 76
12, 181424, Note_on_c, 14, 53, 0
12, 181440, Note_on_c, 14, 52, 76
12, 181544, Note_on_c, 14, 52, 0
12, 181560, Note_on_c, 14, 55, 76
12, 181664, Note_on_c, 14, 55, 0
12, 181680, Note_on_c, 14, 52, 76
12, 181784, Note_on_c, 14, 52, 0
12, 181800, Note_on_c, 14, 48, 76
12, 181904, Note_on_c, 14, 48, 0
12, 181920, Note_on_c, 14, 53, 76
12, 182024, Note_on_c, 14, 53, 0
12, 182040, Note_on_c, 14, 50, 76
12, 182144, Note_on_c, 14, 50, 0
12, 182160, Note_on_c, 14, 52, 76
12, 182264, Note_on_c, 14, 52, 0
12, 182280, Note_on_c, 14, 53, 76
12, 182384, Note_on_c, 14, 53, 0
12, 182400, Note_on_c, 14, 55, 76
12, 182639, Note_on_c, 14, 55, 0
12, 186840, Note_on_c, 14, 60, 76
12, 186944, Note_on_c, 14, 60, 0
12, 186960, Note_on_c, 14, 60, 76
12, 187064, Note_on_c, 14, 60, 0
12, 187080, Note_on_c, 14, 60, 76
12, 187184, Note_on_c, 14, 60, 0
12, 187200, Note_on_c, 14, 59, 76
12, 187304, Note_on_c, 14, 59, 0
12, 187320, Note_on_c, 14, 60, 76
12, 187364, Note_on_c, 14, 60, 0
12, 187380, Note_on_c, 14, 62, 76
12, 187424, Note_on_c, 14, 62, 0
12, 187440, Note_on_c, 14, 64, 76
12, 187544, Note_on_c, 14, 64, 0
12, 187560, Note_on_c, 14, 60, 76
12, 187664, Note_on_c, 14, 60, 0
12, 187680, Note_on_c, 14, 57, 76
12, 187784, Note_on_c, 14, 57, 0
12, 187800, Note_on_c, 14, 62, 76
12, 187904, Note_on_c, 14, 62, 0
12, 187920, Note_on_c, 14, 50, 76
12, 188024, Note_on_c, 14, 50, 0
12, 188040, Note_on_c, 14, 60, 76
12, 188144, Note_on_c, 14, 60, 0
12, 188160, Note_on_c, 14, 59, 76
12, 188204, Note_on_c, 14, 59, 0
12, 188220, Note_on_c, 14, 57, 76
12, 188264, Note_on_c, 14, 57, 0
12, 188280, Note_on_c, 14, 55, 76
12, 188324, Note_on_c, 14, 55, 0
12, 188340, Note_on_c, 14, 57, 76
12, 188384, Note_on_c, 14, 57, 0
12, 188400, Note_on_c, 14, 59, 76
12, 188444, Note_on_c, 14, 59, 0
12, 188460, Note_on_c, 14, 55, 76
12, 188504, Note_on_c, 14, 55, 0
12, 188520, Note_on_c, 14, 57, 76
12, 188564, Note_on_c, 14, 57, 0
12, 188580, Note_on_c, 14, 59, 76
12, 188624, Note_on_c, 14, 59, 0
12, 188640, Note_on_c, 14, 60, 76
12, 188684, Note_on_c, 14, 60, 0
12, 188700, Note_on_c, 14, 62, 76
12, 188744, Note_on_c, 14, 62, 0
12, 188760, Note_on_c, 14, 60, 76
12, 188804, Note_on_c, 14, 60, 0
12, 188820, Note_on_c, 14, 59, 76
12, 188864, Note_on_c, 14, 59, 0
12, 188880, Note_on_c, 14, 57, 76
12, 188924, Note_on_c, 14, 57, 0
12, 188940, Note_on_c, 14, 55, 76
12, 188984, Note_on_c, 14, 55, 0
12, 189000, Note_on_c, 14, 53, 76
12, 189044, Note_on_c, 14, 53, 0
12, 189060, Note_on_c, 14, 52, 76
12, 189104, Note_on_c, 14, 52, 0
12, 189120, Note_on_c, 14, 50, 76
12, 189164, Note_on_c, 14, 50, 0
12, 189180, Note_on_c, 14, 53, 76
12, 189224, Note_on_c, 14, 53, 0
12, 189240, Note_on_c, 14, 52, 76
12, 189284, Note_on_c, 14, 52, 0
12, 189300, Note_on_c, 14, 53, 76
12, 189344, Note_on_c, 14, 53, 0
12, 189360, Note_on_c, 14, 55, 76
12, 189404, Note_on_c, 14, 55, 0
12, 189420, Note_on_c, 14, 53, 76
12, 189464, Note_on_c, 14, 53, 0
12, 189480, Note_on_c, 14, 52, 76
12, 189524, Note_on_c, 14, 52, 0
12, 189540, Note_on_c, 14, 50, 76
12, 189584, Note_on_c, 14, 50, 0
12, 189600, Note_on_c, 14, 48, 76
12, 189644, Note_on_c, 14, 48, 0
12, 189660, Note_on_c, 14, 52, 76
12, 189704, Note_on_c, 14, 52, 0
12, 189720, Note_on_c, 14, 50, 76
12, 189764, Note_on_c, 14, 50, 0
12, 189780, Note_on_c, 14, 52, 76
12, 189824, Note_on_c, 14, 52, 0
12, 189840, Note_on_c, 14, 53, 76
12, 189884, Note_on_c, 14, 53, 0
12, 189900, Note_on_c, 14, 52, 76
12, 189944, Note_on_c, 14, 52, 0
12, 189960, Note_on_c, 14, 50, 76
12, 190004, Note_on_c, 14, 50, 0
12, 190020, Note_on_c, 14, 48, 76
12, 190064, Note_on_c, 14, 48, 0
12, 190080, Note_on_c, 14, 47, 76
12, 190124, Note_on_c, 14, 47, 0
12, 190140, Note_on_c, 14, 50, 76
12, 190184, Note_on_c, 14, 50, 0
12, 190200, Note_on_c, 14, 48, 76
12, 190244, Note_on_c, 14, 48, 0
12, 190260, Note_on_c, 14, 50, 76
12, 190304, Note_on_c, 14, 50, 0
12, 190320, Note_on_c, 14, 52, 76
12, 190364, Note_on_c, 14, 52, 0
12, 190380, Note_on_c, 14, 50, 76
12, 190424, Note_on_c, 14, 50, 0
12, 190440, Note_on_c, 14, 48, 76
12, 190484, Note_on_c, 14, 48, 0
12, 190500, Note_on_c, 14, 47, 76
12, 190544, Note_on_c, 14, 47, 0
12, 190560, Note_on_c, 14, 45, 76
12, 190604, Note_on_c, 14, 45, 0
12, 190620, Note_on_c, 14, 48, 76
12, 190664, Note_on_c, 14, 48, 0
12, 190680, Note_on_c, 14, 47, 76
12, 190724, Note_on_c, 14, 47, 0
12, 190740, Note_on_c, 14, 48, 76
12, 190784, Note_on_c, 14, 48, 0
12, 190800, Note_on_c, 14, 50, 76
12, 190844, Note_on_c, 14, 50, 0
12, 190860, Note_on_c, 14, 48, 76
12, 190904, Note_on_c, 14, 48, 0
12, 190920, Note_on_c, 14, 47, 76
12, 190964, Note_on_c, 14, 47, 0
12, 190980, Note_on_c, 14, 45, 76
12, 191024, Note_on_c, 14, 45, 0
12, 191040, Note_on_c, 14, 43, 76
12, 191144, Note_on_c, 14, 43, 0
12, 191160, Note_on_c, 14, 55, 76
12, 191264, Note_on_c, 14, 55, 0
12, 191280, Note_on_c, 14, 55, 76
12, 191384, Note_on_c, 14, 55, 0
12, 191400, Note_on_c, 14, 55, 76
12, 191504, Note_on_c, 14, 55, 0
12, 191520, Note_on_c, 14, 52, 76
12, 191624, Note_on_c, 14, 52, 0
12, 191640, Note_on_c, 14, 53, 76
12, 191684, Note_on_c, 14, 53, 0
12, 191700, Note_on_c, 14, 55, 76
12, 191744, Note_on_c, 14, 55, 0
12, 191760, Note_on_c, 14, 57, 76
12, 191864, Note_on_c, 14, 57, 0
12, 191880, Note_on_c, 14, 53, 76
12, 191984, Note_on_c, 14, 53, 0
12, 192000, Note_on_c, 14, 50, 76
12, 192104, Note_on_c, 14, 50, 0
12, 192120, Note_on_c, 14, 55, 76
12, 192224, Note_on_c, 14, 55, 0
12, 192240, Note_on_c, 14, 43, 76
12, 192344, Note_on_c, 14, 43, 0
12, 192360, Note_on_c, 14, 53, 76
12, 192464, Note_on_c, 14, 53, 0
12, 192480, Note_on_c, 14, 52, 76
12, 192584, Note_on_c, 14, 52, 0
12, 192600, Note_on_c, 14, 48, 76
12, 192704, Note_on_c, 14, 48, 0
12, 192720, Note_on_c, 14, 55, 76
12, 192824, Note_on_c, 14, 55, 0
12, 192840, Note_on_c, 14, 43, 76
12, 192944, Note_on_c, 14, 43, 0
12, 192960, Note_on_c, 14, 48, 76
12, 193199, Note_on_c, 14, 48, 0
12, 195960, Note_on_c, 14, 60, 76
12, 196064, Note_on_c, 14, 60, 0
12, 196080, Note_on_c, 14, 60, 76
12, 196184, Note_on_c, 14, 60, 0
12, 196200, Note_on_c, 14, 60, 76
12, 196304, Note_on_c, 14, 60, 0
12, 196320, Note_on_c, 14, 59, 76
12, 196424, Note_on_c, 14, 59, 0
12, 196440, Note_on_c, 14, 60, 76
12, 196484, Note_on_c, 14, 60, 0
12, 196500, Note_on_c, 14, 62, 76
12, 196544, Note_on_c, 14, 62, 0
12, 196560, Note_on_c, 14, 64, 76
12, 196664, Note_on_c, 14, 64, 0
12, 196680, Note_on_c, 14, 60, 76
12, 196784, Note_on_c, 14, 60, 0
12, 196800, Note_on_c, 14, 57, 76
12, 196904, Note_on_c, 14, 57, 0
12, 196920, Note_on_c, 14, 62, 76
12, 197024, Note_on_c, 14, 62, 0
12, 197040, Note_on_c, 14, 50, 76
12, 197144, Note_on_c, 14, 50, 0
12, 197160, Note_on_c, 14, 60, 76
12, 197264, Note_on_c, 14, 60, 0
12, 197280, Note_on_c, 14, 59, 76
12, 197384, Note_on_c, 14, 59, 0
12, 197400, Note_on_c, 14, 55, 76
12, 197504, Note_on_c, 14, 55, 0
12, 197520, Note_on_c, 14, 60, 76
12, 197624, Note_on_c, 14, 60, 0
12, 197640, Note_on_c, 14, 48, 76
12, 197744, Note_on_c, 14, 48, 0
12, 197760, Note_on_c, 14, 53, 76
12, 197804, Note_on_c, 14, 53, 0
12, 197820, Note_on_c, 14, 57, 76
12, 197864, Note_on_c, 14, 57, 0
12, 197880, Note_on_c, 14, 55, 76
12, 197924, Note_on_c, 14, 55, 0
12, 197940, Note_on_c, 14, 57, 76
12, 197984, Note_on_c, 14, 57, 0
12, 198000, Note_on_c, 14, 58, 76
12, 198044, Note_on_c, 14, 58, 0
12, 198060, Note_on_c, 14, 57, 76
12, 198104, Note_on_c, 14, 57, 0
12, 198120, Note_on_c, 14, 55, 76
12, 198164, Note_on_c, 14, 55, 0
12, 198180, Note_on_c, 14, 53, 76
12, 198224, Note_on_c, 14, 53, 0
12, 198240, Note_on_c, 14, 52, 76
12, 198284, Note_on_c, 14, 52, 0
12, 198300, Note_on_c, 14, 55, 76
12, 198344, Note_on_c, 14, 55, 0
12, 198360, Note_on_c, 14, 53, 76
12, 198404, Note_on_c, 14, 53, 0
12, 198420, Note_on_c, 14, 55, 76
12, 198464, Note_on_c, 14, 55, 0
12, 198480, Note_on_c, 14, 57, 76
12, 198524, Note_on_c, 14, 57, 0
12, 198540, Note_on_c, 14, 55, 76
12, 198584, Note_on_c, 14, 55, 0
12, 198600, Note_on_c, 14, 53, 76
12, 198644, Note_on_c, 14, 53, 0
12, 198660, Note_on_c, 14, 52, 76
12, 198704, Note_on_c, 14, 52, 0
12, 198720, Note_on_c, 14, 50, 76
12, 198824, Note_on_c, 14, 50, 0
12, 198840, Note_on_c, 14, 52, 76
12, 198884, Note_on_c, 14, 52, 0
12, 198900, Note_on_c, 14, 53, 76
12, 198944, Note_on_c, 14, 53, 0
12, 198960, Note_on_c, 14, 55, 76
12, 199064, Note_on_c, 14, 55, 0
12, 199080, Note_on_c, 14, 43, 76
12, 199184, Note_on_c, 14, 43, 0
12, 199200, Note_on_c, 14, 48, 76
12, 199244, Note_on_c, 14, 48, 0
12, 199260, Note_on_c, 14, 55, 76
12, 199304, Note_on_c, 14, 55, 0
12, 199320, Note_on_c, 14, 57, 76
12, 199364, Note_on_c, 14, 57, 0
12, 199380, Note_on_c, 14, 59, 76
12, 199424, Note_on_c, 14, 59, 0
12, 199440, Note_on_c, 14, 60, 76
12, 199604, Note_on_c, 14, 60, 0
12, 199620, Note_on_c, 14, 60, 76
12, 199664, Note_on_c, 14, 60, 0
12, 199680, Note_on_c, 14, 60, 76
12, 199724, Note_on_c, 14, 60, 0
12, 199740, Note_on_c, 14, 59, 76
12, 199784, Note_on_c, 14, 59, 0
12, 199800, Note_on_c, 14, 60, 76
12, 199844, Note_on_c, 14, 60, 0
12, 199860, Note_on_c, 14, 57, 76
12, 199904, Note_on_c, 14, 57, 0
12, 199920, Note_on_c, 14, 59, 76
12, 200084, Note_on_c, 14, 59, 0
12, 200100, Note_on_c, 14, 59, 76
12, 200144, Note_on_c, 14, 59, 0
12, 200160, Note_on_c, 14, 59, 76
12, 200264, Note_on_c, 14, 59, 0
12, 200280, Note_on_c, 14, 52, 76
12, 200384, Note_on_c, 14, 52, 0
12, 200400, Note_on_c, 14, 57, 76
12, 200564, Note_on_c, 14, 57, 0
12, 200580, Note_on_c, 14, 57, 76
12, 200624, Note_on_c, 14, 57, 0
12, 200640, Note_on_c, 14, 57, 76
12, 200684, Note_on_c, 14, 57, 0
12, 200700, Note_on_c, 14, 55, 76
12, 200744, Note_on_c, 14, 55, 0
12, 200760, Note_on_c, 14, 57, 76
12, 200804, Note_on_c, 14, 57, 0
12, 200820, Note_on_c, 14, 53, 76
12, 200864, Note_on_c, 14, 53, 0
12, 200880, Note_on_c, 14, 55, 76
12, 201044, Note_on_c, 14, 55, 0
12, 201060, Note_on_c, 14, 55, 76
12, 201104, Note_on_c, 14, 55, 0
12, 201120, Note_on_c, 14, 55, 76
12, 201224, Note_on_c, 14, 55, 0
12, 201240, Note_on_c, 14, 48, 76
12, 201344, Note_on_c, 14, 48, 0
12, 201360, Note_on_c, 14, 53, 76
12, 201524, Note_on_c, 14, 53, 0
12, 201540, Note_on_c, 14, 53, 76
12, 201584, Note_on_c, 14, 53, 0
12, 201600, Note_on_c, 14, 53, 76
12, 201644, Note_on_c, 14, 53, 0
12, 201660, Note_on_c, 14, 52, 76
12, 201704, Note_on_c, 14, 52, 0
12, 201720, Note_on_c, 14, 53, 76
12, 201764, Note_on_c, 14, 53, 0
12, 201780, Note_on_c, 14, 50, 76
12, 201824, Note_on_c, 14, 50, 0
12, 201840, Note_on_c, 14, 52, 76
12, 201884, Note_on_c, 14, 52, 0
12, 201900, Note_on_c, 14, 53, 76
12, 201944, Note_on_c, 14, 53, 0
12, 201960, Note_on_c, 14, 55, 76
12, 202004, Note_on_c, 14, 55, 0
12, 202020, Note_on_c, 14, 52, 76
12, 202064, Note_on_c, 14, 52, 0
12, 202080, Note_on_c, 14, 57, 76
12, 202124, Note_on_c, 14, 57, 0
12, 202140, Note_on_c, 14, 58, 76
12, 202184, Note_on_c, 14, 58, 0
12, 202200, Note_on_c, 14, 57, 76
12, 202244, Note_on_c, 14, 57, 0
12, 202260, Note_on_c, 14, 55, 76
12, 202304, Note_on_c, 14, 55, 0
12, 202320, Note_on_c, 14, 53, 76
12, 202364, Note_on_c, 14, 53, 0
12, 202380, Note_on_c, 14, 52, 76
12, 202424, Note_on_c, 14, 52, 0
12, 202440, Note_on_c, 14, 50, 76
12, 202484, Note_on_c, 14, 50, 0
12, 202500, Note_on_c, 14, 48, 76
12, 202544, Note_on_c, 14, 48, 0
12, 202560, Note_on_c, 14, 47, 76
12, 202604, Note_on_c, 14, 47, 0
12, 202620, Note_on_c, 14, 45, 76
12, 202664, Note_on_c, 14, 45, 0
12, 202680, Note_on_c, 14, 43, 76
12, 202724, Note_on_c, 14, 43, 0
12, 202740, Note_on_c, 14, 45, 76
12, 202784, Note_on_c, 14, 45, 0
12, 202800, Note_on_c, 14, 47, 76
12, 202844, Note_on_c, 14, 47, 0
12, 202860, Note_on_c, 14, 45, 76
12, 202904, Note_on_c, 14, 45, 0
12, 202920, Note_on_c, 14, 47, 76
12, 202964, Note_on_c, 14, 47, 0
12, 202980, Note_on_c, 14, 43, 76
12, 203024, Note_on_c, 14, 43, 0
12, 203040, Note_on_c, 14, 48, 76
12, 203144, Note_on_c, 14, 48, 0
12, 203160, Note_on_c, 14, 53, 76
12, 203264, Note_on_c, 14, 53, 0
12, 203280, Note_on_c, 14, 55, 76
12, 203384, Note_on_c, 14, 55, 0
12, 203400, Note_on_c, 14, 43, 76
12, 203504, Note_on_c, 14, 43, 0
12, 203520, Note_on_c, 14, 36, 76
12, 204111, Note_on_c, 14, 36, 0
12, 204120, Note_on_c, 14, 48, 76
12, 204171, Note_on_c, 14, 48, 0
12, 204180, Note_on_c, 14, 50, 76
12, 204231, Note_on_c, 14, 50, 0
12, 204240, Note_on_c, 14, 52, 76
12, 204291, Note_on_c, 14, 52, 0
12, 204300, Note_on_c, 14, 50, 76
12, 204351, Note_on_c, 14, 50, 0
12, 204360, Note_on_c, 14, 52, 76
12, 204411, Note_on_c, 14, 52, 0
12, 204420, Note_on_c, 14, 53, 76
12, 204471, Note_on_c, 14, 53, 0
12, 204480, Note_on_c, 14, 55, 76
12, 204771, Note_on_c, 14, 55, 0
12, 204780, Note_on_c, 14, 55, 76
12, 204831, Note_on_c, 14, 55, 0
12, 204840, Note_on_c, 14, 57, 76
12, 204891, Note_on_c, 14, 57, 0
12, 204900, Note_on_c, 14, 58, 76
12, 204951, Note_on_c, 14, 58, 0
12, 204960, Note_on_c, 14, 60, 76
12, 205011, Note_on_c, 14, 60, 0
12, 205020, Note_on_c, 14, 58, 76
12, 205071, Note_on_c, 14, 58, 0
12, 205080, Note_on_c, 14, 57, 76
12, 205131, Note_on_c, 14, 57, 0
12, 205140, Note_on_c, 14, 58, 76
12, 205191, Note_on_c, 14, 58, 0
12, 205200, Note_on_c, 14, 60, 76
12, 205251, Note_on_c, 14, 60, 0
12, 205260, Note_on_c, 14, 57, 76
12, 205311, Note_on_c, 14, 57, 0
12, 205320, Note_on_c, 14, 58, 76
12, 205371, Note_on_c, 14, 58, 0
12, 205380, Note_on_c, 14, 60, 76
12, 205431, Note_on_c, 14, 60, 0
12, 205440, Note_on_c, 14, 53, 76
12, 205611, Note_on_c, 14, 53, 0
12, 205620, Note_on_c, 14, 50, 76
12, 205649, Note_on_c, 14, 50, 0
12, 205650, Note_on_c, 14, 52, 76
12, 205679, Note_on_c, 14, 52, 0
12, 205680, Note_on_c, 14, 53, 76
12, 205851, Note_on_c, 14, 53, 0
12, 205860, Note_on_c, 14, 55, 76
12, 205889, Note_on_c, 14, 55, 0
12, 205890, Note_on_c, 14, 57, 76
12, 205919, Note_on_c, 14, 57, 0
12, 205920, Note_on_c, 14, 58, 76
12, 206271, Note_on_c, 14, 58, 0
12, 206280, Note_on_c, 14, 58, 76
12, 206391, Note_on_c, 14, 58, 0
12, 206400, Note_on_c, 14, 58, 76
12, 206451, Note_on_c, 14, 58, 0
12, 206460, Note_on_c, 14, 60, 76
12, 206511, Note_on_c, 14, 60, 0
12, 206520, Note_on_c, 14, 58, 76
12, 206571, Note_on_c, 14, 58, 0
12, 206580, Note_on_c, 14, 57, 76
12, 206631, Note_on_c, 14, 57, 0
12, 206640, Note_on_c, 14, 58, 76
12, 206691, Note_on_c, 14, 58, 0
12, 206700, Note_on_c, 14, 55, 76
12, 206751, Note_on_c, 14, 55, 0
12, 206760, Note_on_c, 14, 57, 76
12, 206811, Note_on_c, 14, 57, 0
12, 206820, Note_on_c, 14, 58, 76
12, 206871, Note_on_c, 14, 58, 0
12, 206880, Note_on_c, 14, 57, 76
12, 207111, Note_on_c, 14, 57, 0
12, 207120, Note_on_c, 14, 45, 76
12, 207351, Note_on_c, 14, 45, 0
12, 207360, Note_on_c, 14, 50, 76
12, 207681, Note_on_c, 14, 50, 0
12, 207690, Note_on_c, 14, 52, 76
12, 207719, Note_on_c, 14, 52, 0
12, 207720, Note_on_c, 14, 53, 76
12, 207749, Note_on_c, 14, 53, 0
12, 207750, Note_on_c, 14, 55, 76
12, 207779, Note_on_c, 14, 55, 0
12, 207780, Note_on_c, 14, 57, 76
12, 207809, Note_on_c, 14, 57, 0
12, 207810, Note_on_c, 14, 59, 76
12, 207839, Note_on_c, 14, 59, 0
12, 207840, Note_on_c, 14, 60, 76
12, 207899, Note_on_c, 14, 60, 0
12, 207900, Note_on_c, 14, 59, 76
12, 207959, Note_on_c, 14, 59, 0
12, 207960, Note_on_c, 14, 60, 76
12, 208019, Note_on_c, 14, 60, 0
12, 208020, Note_on_c, 14, 64, 76
12, 208071, Note_on_c, 14, 64, 0
12, 208080, Note_on_c, 14, 62, 76
12, 208139, Note_on_c, 14, 62, 0
12, 208140, Note_on_c, 14, 60, 76
12, 208199, Note_on_c, 14, 60, 0
12, 208200, Note_on_c, 14, 59, 76
12, 208259, Note_on_c, 14, 59, 0
12, 208260, Note_on_c, 14, 60, 76
12, 208311, Note_on_c, 14, 60, 0
12, 208320, Note_on_c, 14, 59, 76
12, 208491, Note_on_c, 14, 59, 0
12, 208500, Note_on_c, 14, 57, 76
12, 208551, Note_on_c, 14, 57, 0
12, 208560, Note_on_c, 14, 59, 76
12, 208731, Note_on_c, 14, 59, 0
12, 208740, Note_on_c, 14, 55, 76
12, 208791, Note_on_c, 14, 55, 0
12, 208800, Note_on_c, 14, 64, 76
12, 209151, Note_on_c, 14, 64, 0
12, 209160, Note_on_c, 14, 64, 76
12, 209271, Note_on_c, 14, 64, 0
12, 209280, Note_on_c, 14, 64, 76
12, 209451, Note_on_c, 14, 64, 0
12, 209460, Note_on_c, 14, 65, 76
12, 209489, Note_on_c, 14, 65, 0
12, 209490, Note_on_c, 14, 64, 76
12, 209519, Note_on_c, 14, 64, 0
12, 209520, Note_on_c, 14, 62, 76
12, 209691, Note_on_c, 14, 62, 0
12, 209700, Note_on_c, 14, 64, 76
12, 209729, Note_on_c, 14, 64, 0
12, 209730, Note_on_c, 14, 60, 76
12, 209759, Note_on_c, 14, 60, 0
12, 209760, Note_on_c, 14, 62, 76
12, 210111, Note_on_c, 14, 62, 0
12, 210120, Note_on_c, 14, 62, 76
12, 210231, Note_on_c, 14, 62, 0
12, 210240, Note_on_c, 14, 62, 76
12, 210531, Note_on_c, 14, 62, 0
12, 210540, Note_on_c, 14, 60, 76
12, 210591, Note_on_c, 14, 60, 0
12, 210600, Note_on_c, 14, 59, 76
12, 210651, Note_on_c, 14, 59, 0
12, 210660, Note_on_c, 14, 60, 76
12, 210711, Note_on_c, 14, 60, 0
12, 210720, Note_on_c, 14, 62, 76
12, 210779, Note_on_c, 14, 62, 0
12, 210780, Note_on_c, 14, 60, 76
12, 210839, Note_on_c, 14, 60, 0
12, 210840, Note_on_c, 14, 62, 76
12, 210899, Note_on_c, 14, 62, 0
12, 210900, Note_on_c, 14, 65, 76
12, 210951, Note_on_c, 14, 65, 0
12, 210960, Note_on_c, 14, 64, 76
12, 211019, Note_on_c, 14, 64, 0
12, 211020, Note_on_c, 14, 62, 76
12, 211079, Note_on_c, 14, 62, 0
12, 211080, Note_on_c, 14, 60, 76
12, 211139, Note_on_c, 14, 60, 0
12, 211140, Note_on_c, 14, 62, 76
12, 211191, Note_on_c, 14, 62, 0
12, 211200, Note_on_c, 14, 59, 76
12, 211731, Note_on_c, 14, 59, 0
12, 211740, Note_on_c, 14, 60, 76
12, 211791, Note_on_c, 14, 60, 0
12, 211800, Note_on_c, 14, 59, 76
12, 211851, Note_on_c, 14, 59, 0
12, 211860, Note_on_c, 14, 57, 76
12, 211911, Note_on_c, 14, 57, 0
12, 211920, Note_on_c, 14, 55, 76
12, 211971, Note_on_c, 14, 55, 0
12, 211980, Note_on_c, 14, 53, 76
12, 212031, Note_on_c, 14, 53, 0
12, 212040, Note_on_c, 14, 52, 76
12, 212091, Note_on_c, 14, 52, 0
12, 212100, Note_on_c, 14, 50, 76
12, 212151, Note_on_c, 14, 50, 0
12, 212160, Note_on_c, 14, 48, 76
12, 212691, Note_on_c, 14, 48, 0
12, 212700, Note_on_c, 14, 46, 76
12, 212751, Note_on_c, 14, 46, 0
12, 212760, Note_on_c, 14, 45, 76
12, 212811, Note_on_c, 14, 45, 0
12, 212820, Note_on_c, 14, 46, 76
12, 212871, Note_on_c, 14, 46, 0
12, 212880, Note_on_c, 14, 48, 76
12, 212931, Note_on_c, 14, 48, 0
12, 212940, Note_on_c, 14, 45, 76
12, 212991, Note_on_c, 14, 45, 0
12, 213000, Note_on_c, 14, 46, 76
12, 213051, Note_on_c, 14, 46, 0
12, 213060, Note_on_c, 14, 48, 76
12, 213111, Note_on_c, 14, 48, 0
12, 213120, Note_on_c, 14, 41, 76
12, 213651, Note_on_c, 14, 41, 0
12, 213660, Note_on_c, 14, 40, 76
12, 213711, Note_on_c, 14, 40, 0
12, 213720, Note_on_c, 14, 41, 76
12, 213771, Note_on_c, 14, 41, 0
12, 213780, Note_on_c, 14, 43, 76
12, 213831, Note_on_c, 14, 43, 0
12, 213840, Note_on_c, 14, 45, 76
12, 213891, Note_on_c, 14, 45, 0
12, 213900, Note_on_c, 14, 41, 76
12, 213951, Note_on_c, 14, 41, 0
12, 213960, Note_on_c, 14, 43, 76
12, 214011, Note_on_c, 14, 43, 0
12, 214020, Note_on_c, 14, 45, 76
12, 214071, Note_on_c, 14, 45, 0
12, 214080, Note_on_c, 14, 38, 76
12, 214611, Note_on_c, 14, 38, 0
12, 214620, Note_on_c, 14, 36, 76
12, 214671, Note_on_c, 14, 36, 0
12, 214680, Note_on_c, 14, 38, 76
12, 214731, Note_on_c, 14, 38, 0
12, 214740, Note_on_c, 14, 40, 76
12, 214791, Note_on_c, 14, 40, 0
12, 214800, Note_on_c, 14, 41, 76
12, 214851, Note_on_c, 14, 41, 0
12, 214860, Note_on_c, 14, 40, 76
12, 214911, Note_on_c, 14, 40, 0
12, 214920, Note_on_c, 14, 41, 76
12, 214971, Note_on_c, 14, 41, 0
12, 214980, Note_on_c, 14, 38, 76
12, 215031, Note_on_c, 14, 38, 0
12, 215040, Note_on_c, 14, 43, 76
12, 215211, Note_on_c, 14, 43, 0
12, 215220, Note_on_c, 14, 43, 76
12, 215271, Note_on_c, 14, 43, 0
12, 215280, Note_on_c, 14, 45, 76
12, 215451, Note_on_c, 14, 45, 0
12, 215460, Note_on_c, 14, 47, 76
12, 215511, Note_on_c, 14, 47, 0
12, 215520, Note_on_c, 14, 48, 76
12, 215691, Note_on_c, 14, 48, 0
12, 215700, Note_on_c, 14, 48, 76
12, 215751, Note_on_c, 14, 48, 0
12, 215760, Note_on_c, 14, 50, 76
12, 215931, Note_on_c, 14, 50, 0
12, 215940, Note_on_c, 14, 52, 76
12, 215991, Note_on_c, 14, 52, 0
12, 216000, Note_on_c, 14, 53, 76
12, 216531, Note_on_c, 14, 53, 0
12, 216540, Note_on_c, 14, 55, 76
12, 216591, Note_on_c, 14, 55, 0
12, 216600, Note_on_c, 14, 53, 76
12, 216651, Note_on_c, 14, 53, 0
12, 216660, Note_on_c, 14, 52, 76
12, 216711, Note_on_c, 14, 52, 0
12, 216720, Note_on_c, 14, 50, 76
12, 216771, Note_on_c, 14, 50, 0
12, 216780, Note_on_c, 14, 48, 76
12, 216831, Note_on_c, 14, 48, 0
12, 216840, Note_on_c, 14, 47, 76
12, 216891, Note_on_c, 14, 47, 0
12, 216900, Note_on_c, 14, 45, 76
12, 216951, Note_on_c, 14, 45, 0
12, 216960, Note_on_c, 14, 43, 76
12, 217131, Note_on_c, 14, 43, 0
12, 217140, Note_on_c, 14, 47, 76
12, 217191, Note_on_c, 14, 47, 0
12, 217200, Note_on_c, 14, 48, 76
12, 217371, Note_on_c, 14, 48, 0
12, 217380, Note_on_c, 14, 41, 76
12, 217431, Note_on_c, 14, 41, 0
12, 217440, Note_on_c, 14, 43, 76
12, 217671, Note_on_c, 14, 43, 0
12, 217680, Note_on_c, 14, 43, 76
12, 217911, Note_on_c, 14, 43, 0
12, 217920, Note_on_c, 14, 36, 76
12, 218879, Note_on_c, 14, 36, 0
12, 218879, End_track
13, 0, Start_track
13, 0, Title_t, "Harpsichord "
13, 0, MIDI_port, 0
13, 0, Control_c, 15, 10, 64
13, 0, Control_c, 15, 11, 127
13, 0, Control_c, 15, 7, 72
13, 0, Program_c, 15, 6
13, 0, Note_on_c, 15, 36, 76
13, 0, Note_on_c, 15, 48, 76
13, 0, Note_on_c, 15, 52, 76
13, 0, Note_on_c, 15, 55, 76
13, 299, Note_on_c, 15, 36, 0
13, 299, Note_on_c, 15, 48, 0
13, 299, Note_on_c, 15, 52, 0
13, 299, Note_on_c, 15, 55, 0
13, 300, Note_on_c, 15, 71, 76
13, 300, Note_on_c, 15, 74, 76
13, 300, Note_on_c, 15, 67, 76
13, 300, Note_on_c, 15, 55, 76
13, 359, Note_on_c, 15, 71, 0
13, 359, Note_on_c, 15, 74, 0
13, 359, Note_on_c, 15, 67, 0
13, 359, Note_on_c, 15, 55, 0
13, 360, Note_on_c, 15, 69, 76
13, 360, Note_on_c, 15, 76, 76
13, 360, Note_on_c, 15, 57, 76
13, 360, Note_on_c, 15, 72, 76
13, 419, Note_on_c, 15, 69, 0
13, 419, Note_on_c, 15, 76, 0
13, 419, Note_on_c, 15, 57, 0
13, 419, Note_on_c, 15, 72, 0
13, 420, Note_on_c, 15, 59, 76
13, 420, Note_on_c, 15, 71, 76
13, 420, Note_on_c, 15, 77, 76
13, 420, Note_on_c, 15, 74, 76
13, 479, Note_on_c, 15, 59, 0
13, 479, Note_on_c, 15, 71, 0
13, 479, Note_on_c, 15, 77, 0
13, 479, Note_on_c, 15, 74, 0
13, 480, Note_on_c, 15, 72, 76
13, 480, Note_on_c, 15, 76, 76
13, 480, Note_on_c, 15, 79, 76
13, 480, Note_on_c, 15, 60, 76
13, 959, Note_on_c, 15, 72, 0
13, 959, Note_on_c, 15, 76, 0
13, 959, Note_on_c, 15, 79, 0
13, 960, Note_on_c, 15, 74, 76
13, 960, Note_on_c, 15, 77, 76
13, 960, Note_on_c, 15, 81, 76
13, 960, Note_on_c, 15, 72, 76
13, 1139, Note_on_c, 15, 60, 0
13, 1139, Note_on_c, 15, 72, 0
13, 1140, Note_on_c, 15, 60, 76
13, 1140, Note_on_c, 15, 72, 76
13, 1199, Note_on_c, 15, 74, 0
13, 1199, Note_on_c, 15, 77, 0
13, 1199, Note_on_c, 15, 81, 0
13, 1199, Note_on_c, 15, 60, 0
13, 1199, Note_on_c, 15, 72, 0
13, 1200, Note_on_c, 15, 59, 76
13, 1200, Note_on_c, 15, 74, 76
13, 1200, Note_on_c, 15, 71, 76
13, 1200, Note_on_c, 15, 77, 76
13, 1379, Note_on_c, 15, 59, 0
13, 1379, Note_on_c, 15, 74, 0
13, 1379, Note_on_c, 15, 71, 0
13, 1379, Note_on_c, 15, 77, 0
13, 1380, Note_on_c, 15, 76, 76
13, 1380, Note_on_c, 15, 57, 76
13, 1380, Note_on_c, 15, 72, 76
13, 1380, Note_on_c, 15, 69, 76
13, 1439, Note_on_c, 15, 76, 0
13, 1439, Note_on_c, 15, 57, 0
13, 1439, Note_on_c, 15, 72, 0
13, 1439, Note_on_c, 15, 69, 0
13, 1440, Note_on_c, 15, 74, 76
13, 1440, Note_on_c, 15, 79, 76
13, 1440, Note_on_c, 15, 71, 76
13, 1440, Note_on_c, 15, 59, 76
13, 1619, Note_on_c, 15, 74, 0
13, 1619, Note_on_c, 15, 79, 0
13, 1619, Note_on_c, 15, 71, 0
13, 1619, Note_on_c, 15, 59, 0
13, 1620, Note_on_c, 15, 57, 76
13, 1620, Note_on_c, 15, 76, 76
13, 1620, Note_on_c, 15, 72, 76
13, 1620, Note_on_c, 15, 69, 76
13, 1679, Note_on_c, 15, 57, 0
13, 1679, Note_on_c, 15, 76, 0
13, 1679, Note_on_c, 15, 72, 0
13, 1679, Note_on_c, 15, 69, 0
13, 1680, Note_on_c, 15, 59, 76
13, 1680, Note_on_c, 15, 77, 76
13, 1680, Note_on_c, 15, 74, 76
13, 1680, Note_on_c, 15, 71, 76
13, 1859, Note_on_c, 15, 59, 0
13, 1859, Note_on_c, 15, 77, 0
13, 1859, Note_on_c, 15, 74, 0
13, 1859, Note_on_c, 15, 71, 0
13, 1860, Note_on_c, 15, 55, 76
13, 1860, Note_on_c, 15, 67, 76
13, 1860, Note_on_c, 15, 74, 76
13, 1860, Note_on_c, 15, 71, 76
13, 1919, Note_on_c, 15, 55, 0
13, 1919, Note_on_c, 15, 67, 0
13, 1919, Note_on_c, 15, 74, 0
13, 1919, Note_on_c, 15, 71, 0
13, 1920, Note_on_c, 15, 57, 76
13, 1920, Note_on_c, 15, 69, 76
13, 1920, Note_on_c, 15, 72, 76
13, 1920, Note_on_c, 15, 76, 76
13, 2219, Note_on_c, 15, 57, 0
13, 2219, Note_on_c, 15, 69, 0
13, 2219, Note_on_c, 15, 72, 0
13, 2219, Note_on_c, 15, 76, 0
13, 2220, Note_on_c, 15, 72, 76
13, 2220, Note_on_c, 15, 69, 76
13, 2220, Note_on_c, 15, 76, 76
13, 2220, Note_on_c, 15, 57, 76
13, 2279, Note_on_c, 15, 72, 0
13, 2279, Note_on_c, 15, 69, 0
13, 2279, Note_on_c, 15, 76, 0
13, 2279, Note_on_c, 15, 57, 0
13, 2280, Note_on_c, 15, 74, 76
13, 2280, Note_on_c, 15, 71, 76
13, 2280, Note_on_c, 15, 77, 76
13, 2280, Note_on_c, 15, 59, 76
13, 2339, Note_on_c, 15, 74, 0
13, 2339, Note_on_c, 15, 71, 0
13, 2339, Note_on_c, 15, 77, 0
13, 2339, Note_on_c, 15, 59, 0
13, 2340, Note_on_c, 15, 60, 76
13, 2340, Note_on_c, 15, 79, 76
13, 2340, Note_on_c, 15, 72, 76
13, 2340, Note_on_c, 15, 76, 76
13, 2399, Note_on_c, 15, 60, 0
13, 2399, Note_on_c, 15, 79, 0
13, 2399, Note_on_c, 15, 72, 0
13, 2399, Note_on_c, 15, 76, 0
13, 2400, Note_on_c, 15, 74, 76
13, 2400, Note_on_c, 15, 77, 76
13, 2400, Note_on_c, 15, 81, 76
13, 2400, Note_on_c, 15, 62, 76
13, 2459, Note_on_c, 15, 74, 0
13, 2459, Note_on_c, 15, 77, 0
13, 2459, Note_on_c, 15, 81, 0
13, 2459, Note_on_c, 15, 62, 0
13, 2460, Note_on_c, 15, 76, 76
13, 2460, Note_on_c, 15, 60, 76
13, 2460, Note_on_c, 15, 79, 76
13, 2460, Note_on_c, 15, 72, 76
13, 2519, Note_on_c, 15, 76, 0
13, 2519, Note_on_c, 15, 60, 0
13, 2519, Note_on_c, 15, 79, 0
13, 2519, Note_on_c, 15, 72, 0
13, 2520, Note_on_c, 15, 77, 76
13, 2520, Note_on_c, 15, 59, 76
13, 2520, Note_on_c, 15, 74, 76
13, 2520, Note_on_c, 15, 71, 76
13, 2579, Note_on_c, 15, 77, 0
13, 2579, Note_on_c, 15, 59, 0
13, 2579, Note_on_c, 15, 74, 0
13, 2579, Note_on_c, 15, 71, 0
13, 2580, Note_on_c, 15, 76, 76
13, 2580, Note_on_c, 15, 79, 76
13, 2580, Note_on_c, 15, 72, 76
13, 2580, Note_on_c, 15, 60, 76
13, 2639, Note_on_c, 15, 76, 0
13, 2639, Note_on_c, 15, 79, 0
13, 2639, Note_on_c, 15, 72, 0
13, 2639, Note_on_c, 15, 60, 0
13, 2640, Note_on_c, 15, 62, 76
13, 2640, Note_on_c, 15, 77, 76
13, 2640, Note_on_c, 15, 74, 76
13, 2640, Note_on_c, 15, 83, 76
13, 2699, Note_on_c, 15, 62, 0
13, 2699, Note_on_c, 15, 77, 0
13, 2699, Note_on_c, 15, 74, 0
13, 2699, Note_on_c, 15, 83, 0
13, 2700, Note_on_c, 15, 59, 76
13, 2700, Note_on_c, 15, 74, 76
13, 2700, Note_on_c, 15, 77, 76
13, 2700, Note_on_c, 15, 71, 76
13, 2759, Note_on_c, 15, 59, 0
13, 2759, Note_on_c, 15, 74, 0
13, 2759, Note_on_c, 15, 77, 0
13, 2759, Note_on_c, 15, 71, 0
13, 2760, Note_on_c, 15, 72, 76
13, 2760, Note_on_c, 15, 60, 76
13, 2760, Note_on_c, 15, 79, 76
13, 2760, Note_on_c, 15, 76, 76
13, 2819, Note_on_c, 15, 72, 0
13, 2819, Note_on_c, 15, 60, 0
13, 2819, Note_on_c, 15, 79, 0
13, 2819, Note_on_c, 15, 76, 0
13, 2820, Note_on_c, 15, 81, 76
13, 2820, Note_on_c, 15, 62, 76
13, 2820, Note_on_c, 15, 74, 76
13, 2820, Note_on_c, 15, 77, 76
13, 2879, Note_on_c, 15, 81, 0
13, 2879, Note_on_c, 15, 62, 0
13, 2879, Note_on_c, 15, 74, 0
13, 2879, Note_on_c, 15, 77, 0
13, 2880, Note_on_c, 15, 55, 76
13, 2880, Note_on_c, 15, 77, 76
13, 2880, Note_on_c, 15, 71, 76
13, 2880, Note_on_c, 15, 67, 76
13, 2880, Note_on_c, 15, 74, 76
13, 3059, Note_on_c, 15, 55, 0
13, 3059, Note_on_c, 15, 77, 0
13, 3059, Note_on_c, 15, 71, 0
13, 3059, Note_on_c, 15, 67, 0
13, 3059, Note_on_c, 15, 74, 0
13, 3060, Note_on_c, 15, 72, 76
13, 3060, Note_on_c, 15, 69, 76
13, 3060, Note_on_c, 15, 76, 76
13, 3060, Note_on_c, 15, 57, 76
13, 3119, Note_on_c, 15, 72, 0
13, 3119, Note_on_c, 15, 69, 0
13, 3119, Note_on_c, 15, 76, 0
13, 3119, Note_on_c, 15, 57, 0
13, 3120, Note_on_c, 15, 59, 76
13, 3120, Note_on_c, 15, 79, 76
13, 3120, Note_on_c, 15, 71, 76
13, 3120, Note_on_c, 15, 74, 76
13, 3120, Note_on_c, 15, 77, 76
13, 3299, Note_on_c, 15, 59, 0
13, 3299, Note_on_c, 15, 79, 0
13, 3299, Note_on_c, 15, 71, 0
13, 3299, Note_on_c, 15, 74, 0
13, 3299, Note_on_c, 15, 77, 0
13, 3300, Note_on_c, 15, 71, 76
13, 3300, Note_on_c, 15, 55, 76
13, 3300, Note_on_c, 15, 74, 76
13, 3300, Note_on_c, 15, 67, 76
13, 3359, Note_on_c, 15, 71, 0
13, 3359, Note_on_c, 15, 55, 0
13, 3359, Note_on_c, 15, 74, 0
13, 3359, Note_on_c, 15, 67, 0
13, 3360, Note_on_c, 15, 76, 76
13, 3360, Note_on_c, 15, 79, 76
13, 3360, Note_on_c, 15, 72, 76
13, 3360, Note_on_c, 15, 60, 76
13, 3599, Note_on_c, 15, 76, 0
13, 3599, Note_on_c, 15, 79, 0
13, 3599, Note_on_c, 15, 72, 0
13, 3599, Note_on_c, 15, 60, 0
13, 3600, Note_on_c, 15, 60, 76
13, 3600, Note_on_c, 15, 64, 76
13, 3600, Note_on_c, 15, 67, 76
13, 3600, Note_on_c, 15, 48, 76
13, 3839, Note_on_c, 15, 60, 0
13, 3839, Note_on_c, 15, 64, 0
13, 3839, Note_on_c, 15, 67, 0
13, 3839, Note_on_c, 15, 48, 0
13, 3840, Note_on_c, 15, 67, 76
13, 3840, Note_on_c, 15, 74, 76
13, 3840, Note_on_c, 15, 55, 76
13, 3840, Note_on_c, 15, 71, 76
13, 4379, Note_on_c, 15, 67, 0
13, 4379, Note_on_c, 15, 74, 0
13, 4379, Note_on_c, 15, 55, 0
13, 4379, Note_on_c, 15, 71, 0
13, 4380, Note_on_c, 15, 66, 76
13, 4380, Note_on_c, 15, 69, 76
13, 4380, Note_on_c, 15, 54, 76
13, 4380, Note_on_c, 15, 72, 76
13, 4439, Note_on_c, 15, 66, 0
13, 4439, Note_on_c, 15, 69, 0
13, 4439, Note_on_c, 15, 54, 0
13, 4439, Note_on_c, 15, 72, 0
13, 4440, Note_on_c, 15, 71, 76
13, 4440, Note_on_c, 15, 67, 76
13, 4440, Note_on_c, 15, 74, 76
13, 4440, Note_on_c, 15, 55, 76
13, 4499, Note_on_c, 15, 71, 0
13, 4499, Note_on_c, 15, 67, 0
13, 4499, Note_on_c, 15, 74, 0
13, 4499, Note_on_c, 15, 55, 0
13, 4500, Note_on_c, 15, 57, 76
13, 4500, Note_on_c, 15, 76, 76
13, 4500, Note_on_c, 15, 72, 76
13, 4500, Note_on_c, 15, 69, 76
13, 4559, Note_on_c, 15, 57, 0
13, 4559, Note_on_c, 15, 76, 0
13, 4559, Note_on_c, 15, 72, 0
13, 4559, Note_on_c, 15, 69, 0
13, 4560, Note_on_c, 15, 74, 76
13, 4560, Note_on_c, 15, 71, 76
13, 4560, Note_on_c, 15, 59, 76
13, 4560, Note_on_c, 15, 79, 76
13, 4619, Note_on_c, 15, 74, 0
13, 4619, Note_on_c, 15, 71, 0
13, 4619, Note_on_c, 15, 59, 0
13, 4619, Note_on_c, 15, 79, 0
13, 4620, Note_on_c, 15, 71, 76
13, 4620, Note_on_c, 15, 74, 76
13, 4620, Note_on_c, 15, 55, 76
13, 4620, Note_on_c, 15, 67, 76
13, 4679, Note_on_c, 15, 71, 0
13, 4679, Note_on_c, 15, 74, 0
13, 4679, Note_on_c, 15, 55, 0
13, 4679, Note_on_c, 15, 67, 0
13, 4680, Note_on_c, 15, 57, 76
13, 4680, Note_on_c, 15, 72, 76
13, 4680, Note_on_c, 15, 76, 76
13, 4680, Note_on_c, 15, 69, 76
13, 4739, Note_on_c, 15, 57, 0
13, 4739, Note_on_c, 15, 72, 0
13, 4739, Note_on_c, 15, 76, 0
13, 4739, Note_on_c, 15, 69, 0
13, 4740, Note_on_c, 15, 74, 76
13, 4740, Note_on_c, 15, 78, 76
13, 4740, Note_on_c, 15, 59, 76
13, 4740, Note_on_c, 15, 71, 76
13, 4799, Note_on_c, 15, 74, 0
13, 4799, Note_on_c, 15, 78, 0
13, 4799, Note_on_c, 15, 59, 0
13, 4799, Note_on_c, 15, 71, 0
13, 4800, Note_on_c, 15, 60, 76
13, 4800, Note_on_c, 15, 67, 76
13, 4800, Note_on_c, 15, 48, 76
13, 4800, Note_on_c, 15, 71, 76
13, 4800, Note_on_c, 15, 64, 76
13, 5279, Note_on_c, 15, 67, 0
13, 5279, Note_on_c, 15, 71, 0
13, 5280, Note_on_c, 15, 69, 76
13, 5339, Note_on_c, 15, 60, 0
13, 5339, Note_on_c, 15, 48, 0
13, 5339, Note_on_c, 15, 64, 0
13, 5339, Note_on_c, 15, 69, 0
13, 5340, Note_on_c, 15, 59, 76
13, 5340, Note_on_c, 15, 62, 76
13, 5340, Note_on_c, 15, 66, 76
13, 5340, Note_on_c, 15, 47, 76
13, 5399, Note_on_c, 15, 59, 0
13, 5399, Note_on_c, 15, 62, 0
13, 5399, Note_on_c, 15, 66, 0
13, 5399, Note_on_c, 15, 47, 0
13, 5400, Note_on_c, 15, 57, 76
13, 5400, Note_on_c, 15, 60, 76
13, 5400, Note_on_c, 15, 64, 76
13, 5400, Note_on_c, 15, 45, 76
13, 5459, Note_on_c, 15, 57, 0
13, 5459, Note_on_c, 15, 60, 0
13, 5459, Note_on_c, 15, 64, 0
13, 5459, Note_on_c, 15, 45, 0
13, 5460, Note_on_c, 15, 66, 76
13, 5460, Note_on_c, 15, 59, 76
13, 5460, Note_on_c, 15, 47, 76
13, 5460, Note_on_c, 15, 62, 76
13, 5519, Note_on_c, 15, 66, 0
13, 5519, Note_on_c, 15, 59, 0
13, 5519, Note_on_c, 15, 47, 0
13, 5519, Note_on_c, 15, 62, 0
13, 5520, Note_on_c, 15, 67, 76
13, 5520, Note_on_c, 15, 48, 76
13, 5520, Note_on_c, 15, 60, 76
13, 5520, Note_on_c, 15, 64, 76
13, 5579, Note_on_c, 15, 67, 0
13, 5579, Note_on_c, 15, 48, 0
13, 5579, Note_on_c, 15, 60, 0
13, 5579, Note_on_c, 15, 64, 0
13, 5580, Note_on_c, 15, 45, 76
13, 5580, Note_on_c, 15, 64, 76
13, 5580, Note_on_c, 15, 60, 76
13, 5580, Note_on_c, 15, 57, 76
13, 5639, Note_on_c, 15, 45, 0
13, 5639, Note_on_c, 15, 64, 0
13, 5639, Note_on_c, 15, 60, 0
13, 5639, Note_on_c, 15, 57, 0
13, 5640, Note_on_c, 15, 47, 76
13, 5640, Note_on_c, 15, 59, 76
13, 5640, Note_on_c, 15, 66, 76
13, 5640, Note_on_c, 15, 62, 76
13, 5699, Note_on_c, 15, 47, 0
13, 5699, Note_on_c, 15, 59, 0
13, 5699, Note_on_c, 15, 66, 0
13, 5699, Note_on_c, 15, 62, 0
13, 5700, Note_on_c, 15, 48, 76
13, 5700, Note_on_c, 15, 67, 76
13, 5700, Note_on_c, 15, 64, 76
13, 5700, Note_on_c, 15, 60, 76
13, 5759, Note_on_c, 15, 48, 0
13, 5759, Note_on_c, 15, 67, 0
13, 5759, Note_on_c, 15, 64, 0
13, 5759, Note_on_c, 15, 60, 0
13, 5760, Note_on_c, 15, 40, 76
13, 5760, Note_on_c, 15, 52, 76
13, 5760, Note_on_c, 15, 57, 76
13, 5760, Note_on_c, 15, 59, 76
13, 5999, Note_on_c, 15, 40, 0
13, 5999, Note_on_c, 15, 52, 0
13, 5999, Note_on_c, 15, 57, 0
13, 5999, Note_on_c, 15, 59, 0
13, 6000, Note_on_c, 15, 71, 76
13, 6000, Note_on_c, 15, 67, 76
13, 6000, Note_on_c, 15, 64, 76
13, 6000, Note_on_c, 15, 52, 76
13, 6299, Note_on_c, 15, 71, 0
13, 6299, Note_on_c, 15, 67, 0
13, 6299, Note_on_c, 15, 64, 0
13, 6299, Note_on_c, 15, 52, 0
13, 6300, Note_on_c, 15, 69, 76
13, 6300, Note_on_c, 15, 62, 76
13, 6300, Note_on_c, 15, 50, 76
13, 6300, Note_on_c, 15, 66, 76
13, 6359, Note_on_c, 15, 69, 0
13, 6359, Note_on_c, 15, 62, 0
13, 6359, Note_on_c, 15, 50, 0
13, 6359, Note_on_c, 15, 66, 0
13, 6360, Note_on_c, 15, 64, 76
13, 6360, Note_on_c, 15, 67, 76
13, 6360, Note_on_c, 15, 52, 76
13, 6360, Note_on_c, 15, 71, 76
13, 6419, Note_on_c, 15, 64, 0
13, 6419, Note_on_c, 15, 67, 0
13, 6419, Note_on_c, 15, 52, 0
13, 6419, Note_on_c, 15, 71, 0
13, 6420, Note_on_c, 15, 69, 76
13, 6420, Note_on_c, 15, 72, 76
13, 6420, Note_on_c, 15, 66, 76
13, 6420, Note_on_c, 15, 54, 76
13, 6479, Note_on_c, 15, 69, 0
13, 6479, Note_on_c, 15, 72, 0
13, 6479, Note_on_c, 15, 66, 0
13, 6479, Note_on_c, 15, 54, 0
13, 6480, Note_on_c, 15, 67, 76
13, 6480, Note_on_c, 15, 71, 76
13, 6480, Note_on_c, 15, 76, 76
13, 6480, Note_on_c, 15, 55, 76
13, 6539, Note_on_c, 15, 67, 0
13, 6539, Note_on_c, 15, 71, 0
13, 6539, Note_on_c, 15, 76, 0
13, 6539, Note_on_c, 15, 55, 0
13, 6540, Note_on_c, 15, 66, 76
13, 6540, Note_on_c, 15, 54, 76
13, 6540, Note_on_c, 15, 69, 76
13, 6540, Note_on_c, 15, 72, 76
13, 6599, Note_on_c, 15, 66, 0
13, 6599, Note_on_c, 15, 54, 0
13, 6599, Note_on_c, 15, 69, 0
13, 6599, Note_on_c, 15, 72, 0
13, 6600, Note_on_c, 15, 74, 76
13, 6600, Note_on_c, 15, 67, 76
13, 6600, Note_on_c, 15, 55, 76
13, 6600, Note_on_c, 15, 71, 76
13, 6659, Note_on_c, 15, 74, 0
13, 6659, Note_on_c, 15, 67, 0
13, 6659, Note_on_c, 15, 55, 0
13, 6659, Note_on_c, 15, 71, 0
13, 6660, Note_on_c, 15, 64, 76
13, 6660, Note_on_c, 15, 52, 76
13, 6660, Note_on_c, 15, 67, 76
13, 6660, Note_on_c, 15, 71, 76
13, 6719, Note_on_c, 15, 64, 0
13, 6719, Note_on_c, 15, 52, 0
13, 6719, Note_on_c, 15, 67, 0
13, 6719, Note_on_c, 15, 71, 0
13, 6720, Note_on_c, 15, 73, 76
13, 6720, Note_on_c, 15, 79, 76
13, 6720, Note_on_c, 15, 61, 76
13, 6720, Note_on_c, 15, 81, 76
13, 6720, Note_on_c, 15, 76, 76
13, 7379, Note_on_c, 15, 73, 0
13, 7379, Note_on_c, 15, 79, 0
13, 7379, Note_on_c, 15, 61, 0
13, 7379, Note_on_c, 15, 81, 0
13, 7379, Note_on_c, 15, 76, 0
13, 7380, Note_on_c, 15, 59, 76
13, 7380, Note_on_c, 15, 77, 76
13, 7380, Note_on_c, 15, 74, 76
13, 7380, Note_on_c, 15, 71, 76
13, 7439, Note_on_c, 15, 59, 0
13, 7439, Note_on_c, 15, 77, 0
13, 7439, Note_on_c, 15, 74, 0
13, 7439, Note_on_c, 15, 71, 0
13, 7440, Note_on_c, 15, 79, 76
13, 7440, Note_on_c, 15, 76, 76
13, 7440, Note_on_c, 15, 73, 76
13, 7440, Note_on_c, 15, 61, 76
13, 7619, Note_on_c, 15, 79, 0
13, 7619, Note_on_c, 15, 76, 0
13, 7619, Note_on_c, 15, 73, 0
13, 7619, Note_on_c, 15, 61, 0
13, 7620, Note_on_c, 15, 57, 76
13, 7620, Note_on_c, 15, 76, 76
13, 7620, Note_on_c, 15, 73, 76
13, 7620, Note_on_c, 15, 69, 76
13, 7679, Note_on_c, 15, 57, 0
13, 7679, Note_on_c, 15, 76, 0
13, 7679, Note_on_c, 15, 73, 0
13, 7679, Note_on_c, 15, 69, 0
13, 7680, Note_on_c, 15, 81, 76
13, 7680, Note_on_c, 15, 74, 76
13, 7680, Note_on_c, 15, 62, 76
13, 7680, Note_on_c, 15, 78, 76
13, 8159, Note_on_c, 15, 81, 0
13, 8159, Note_on_c, 15, 78, 0
13, 8160, Note_on_c, 15, 83, 76
13, 8160, Note_on_c, 15, 79, 76
13, 8339, Note_on_c, 15, 74, 0
13, 8339, Note_on_c, 15, 62, 0
13, 8339, Note_on_c, 15, 83, 0
13, 8339, Note_on_c, 15, 79, 0
13, 8340, Note_on_c, 15, 64, 76
13, 8340, Note_on_c, 15, 76, 76
13, 8340, Note_on_c, 15, 79, 76
13, 8340, Note_on_c, 15, 83, 76
13, 8399, Note_on_c, 15, 64, 0
13, 8399, Note_on_c, 15, 76, 0
13, 8399, Note_on_c, 15, 79, 0
13, 8399, Note_on_c, 15, 83, 0
13, 8400, Note_on_c, 15, 81, 76
13, 8400, Note_on_c, 15, 62, 76
13, 8400, Note_on_c, 15, 74, 76
13, 8400, Note_on_c, 15, 84, 76
13, 8400, Note_on_c, 15, 78, 76
13, 8579, Note_on_c, 15, 81, 0
13, 8579, Note_on_c, 15, 62, 0
13, 8579, Note_on_c, 15, 74, 0
13, 8579, Note_on_c, 15, 84, 0
13, 8579, Note_on_c, 15, 78, 0
13, 8580, Note_on_c, 15, 60, 76
13, 8580, Note_on_c, 15, 72, 76
13, 8580, Note_on_c, 15, 76, 76
13, 8580, Note_on_c, 15, 79, 76
13, 8639, Note_on_c, 15, 60, 0
13, 8639, Note_on_c, 15, 72, 0
13, 8639, Note_on_c, 15, 76, 0
13, 8639, Note_on_c, 15, 79, 0
13, 8640, Note_on_c, 15, 74, 76
13, 8640, Note_on_c, 15, 71, 76
13, 8640, Note_on_c, 15, 59, 76
13, 8640, Note_on_c, 15, 79, 76
13, 9120, Note_on_c, 15, 77, 76
13, 9179, Note_on_c, 15, 74, 0
13, 9179, Note_on_c, 15, 71, 0
13, 9179, Note_on_c, 15, 59, 0
13, 9179, Note_on_c, 15, 79, 0
13, 9179, Note_on_c, 15, 77, 0
13, 9180, Note_on_c, 15, 69, 76
13, 9180, Note_on_c, 15, 57, 76
13, 9180, Note_on_c, 15, 72, 76
13, 9180, Note_on_c, 15, 76, 76
13, 9239, Note_on_c, 15, 69, 0
13, 9239, Note_on_c, 15, 57, 0
13, 9239, Note_on_c, 15, 72, 0
13, 9239, Note_on_c, 15, 76, 0
13, 9240, Note_on_c, 15, 74, 76
13, 9240, Note_on_c, 15, 67, 76
13, 9240, Note_on_c, 15, 55, 76
13, 9240, Note_on_c, 15, 71, 76
13, 9299, Note_on_c, 15, 74, 0
13, 9299, Note_on_c, 15, 67, 0
13, 9299, Note_on_c, 15, 55, 0
13, 9299, Note_on_c, 15, 71, 0
13, 9300, Note_on_c, 15, 69, 76
13, 9300, Note_on_c, 15, 72, 76
13, 9300, Note_on_c, 15, 57, 76
13, 9300, Note_on_c, 15, 76, 76
13, 9359, Note_on_c, 15, 69, 0
13, 9359, Note_on_c, 15, 72, 0
13, 9359, Note_on_c, 15, 57, 0
13, 9359, Note_on_c, 15, 76, 0
13, 9360, Note_on_c, 15, 74, 76
13, 9360, Note_on_c, 15, 71, 76
13, 9360, Note_on_c, 15, 77, 76
13, 9360, Note_on_c, 15, 59, 76
13, 9419, Note_on_c, 15, 74, 0
13, 9419, Note_on_c, 15, 71, 0
13, 9419, Note_on_c, 15, 77, 0
13, 9419, Note_on_c, 15, 59, 0
13, 9420, Note_on_c, 15, 55, 76
13, 9420, Note_on_c, 15, 67, 76
13, 9420, Note_on_c, 15, 74, 76
13, 9420, Note_on_c, 15, 71, 76
13, 9479, Note_on_c, 15, 55, 0
13, 9479, Note_on_c, 15, 67, 0
13, 9479, Note_on_c, 15, 74, 0
13, 9479, Note_on_c, 15, 71, 0
13, 9480, Note_on_c, 15, 57, 76
13, 9480, Note_on_c, 15, 69, 76
13, 9480, Note_on_c, 15, 76, 76
13, 9480, Note_on_c, 15, 72, 76
13, 9539, Note_on_c, 15, 57, 0
13, 9539, Note_on_c, 15, 69, 0
13, 9539, Note_on_c, 15, 76, 0
13, 9539, Note_on_c, 15, 72, 0
13, 9540, Note_on_c, 15, 77, 76
13, 9540, Note_on_c, 15, 71, 76
13, 9540, Note_on_c, 15, 59, 76
13, 9540, Note_on_c, 15, 74, 76
13, 9599, Note_on_c, 15, 77, 0
13, 9599, Note_on_c, 15, 71, 0
13, 9599, Note_on_c, 15, 59, 0
13, 9599, Note_on_c, 15, 74, 0
13, 9600, Note_on_c, 15, 74, 76
13, 9600, Note_on_c, 15, 48, 76
13, 9600, Note_on_c, 15, 65, 76
13, 9600, Note_on_c, 15, 67, 76
13, 9600, Note_on_c, 15, 60, 76
13, 9839, Note_on_c, 15, 74, 0
13, 9839, Note_on_c, 15, 65, 0
13, 9839, Note_on_c, 15, 67, 0
13, 9840, Note_on_c, 15, 67, 76
13, 9840, Note_on_c, 15, 64, 76
13, 9840, Note_on_c, 15, 72, 76
13, 10139, Note_on_c, 15, 48, 0
13, 10139, Note_on_c, 15, 60, 0
13, 10139, Note_on_c, 15, 67, 0
13, 10139, Note_on_c, 15, 64, 0
13, 10139, Note_on_c, 15, 72, 0
13, 10140, Note_on_c, 15, 59, 76
13, 10140, Note_on_c, 15, 62, 76
13, 10140, Note_on_c, 15, 66, 76
13, 10140, Note_on_c, 15, 47, 76
13, 10199, Note_on_c, 15, 59, 0
13, 10199, Note_on_c, 15, 62, 0
13, 10199, Note_on_c, 15, 66, 0
13, 10199, Note_on_c, 15, 47, 0
13, 10200, Note_on_c, 15, 64, 76
13, 10200, Note_on_c, 15, 48, 76
13, 10200, Note_on_c, 15, 60, 76
13, 10200, Note_on_c, 15, 67, 76
13, 10259, Note_on_c, 15, 64, 0
13, 10259, Note_on_c, 15, 48, 0
13, 10259, Note_on_c, 15, 60, 0
13, 10259, Note_on_c, 15, 67, 0
13, 10260, Note_on_c, 15, 69, 76
13, 10260, Note_on_c, 15, 66, 76
13, 10260, Note_on_c, 15, 50, 76
13, 10260, Note_on_c, 15, 62, 76
13, 10319, Note_on_c, 15, 69, 0
13, 10319, Note_on_c, 15, 66, 0
13, 10319, Note_on_c, 15, 50, 0
13, 10319, Note_on_c, 15, 62, 0
13, 10320, Note_on_c, 15, 52, 76
13, 10320, Note_on_c, 15, 71, 76
13, 10320, Note_on_c, 15, 64, 76
13, 10320, Note_on_c, 15, 67, 76
13, 10379, Note_on_c, 15, 52, 0
13, 10379, Note_on_c, 15, 71, 0
13, 10379, Note_on_c, 15, 64, 0
13, 10379, Note_on_c, 15, 67, 0
13, 10380, Note_on_c, 15, 67, 76
13, 10380, Note_on_c, 15, 64, 76
13, 10380, Note_on_c, 15, 60, 76
13, 10380, Note_on_c, 15, 48, 76
13, 10439, Note_on_c, 15, 67, 0
13, 10439, Note_on_c, 15, 64, 0
13, 10439, Note_on_c, 15, 60, 0
13, 10439, Note_on_c, 15, 48, 0
13, 10440, Note_on_c, 15, 50, 76
13, 10440, Note_on_c, 15, 62, 76
13, 10440, Note_on_c, 15, 69, 76
13, 10440, Note_on_c, 15, 66, 76
13, 10499, Note_on_c, 15, 50, 0
13, 10499, Note_on_c, 15, 62, 0
13, 10499, Note_on_c, 15, 69, 0
13, 10499, Note_on_c, 15, 66, 0
13, 10500, Note_on_c, 15, 64, 76
13, 10500, Note_on_c, 15, 52, 76
13, 10500, Note_on_c, 15, 67, 76
13, 10500, Note_on_c, 15, 71, 76
13, 10559, Note_on_c, 15, 64, 0
13, 10559, Note_on_c, 15, 52, 0
13, 10559, Note_on_c, 15, 67, 0
13, 10559, Note_on_c, 15, 71, 0
13, 10560, Note_on_c, 15, 60, 76
13, 10560, Note_on_c, 15, 64, 76
13, 10560, Note_on_c, 15, 57, 76
13, 10560, Note_on_c, 15, 45, 76
13, 10560, Note_on_c, 15, 67, 76
13, 11039, Note_on_c, 15, 64, 0
13, 11039, Note_on_c, 15, 67, 0
13, 11040, Note_on_c, 15, 66, 76
13, 11099, Note_on_c, 15, 60, 0
13, 11099, Note_on_c, 15, 57, 0
13, 11099, Note_on_c, 15, 45, 0
13, 11099, Note_on_c, 15, 66, 0
13, 11100, Note_on_c, 15, 59, 76
13, 11100, Note_on_c, 15, 43, 76
13, 11100, Note_on_c, 15, 62, 76
13, 11100, Note_on_c, 15, 55, 76
13, 11159, Note_on_c, 15, 59, 0
13, 11159, Note_on_c, 15, 43, 0
13, 11159, Note_on_c, 15, 62, 0
13, 11159, Note_on_c, 15, 55, 0
13, 11160, Note_on_c, 15, 57, 76
13, 11160, Note_on_c, 15, 45, 76
13, 11160, Note_on_c, 15, 60, 76
13, 11160, Note_on_c, 15, 64, 76
13, 11219, Note_on_c, 15, 57, 0
13, 11219, Note_on_c, 15, 45, 0
13, 11219, Note_on_c, 15, 60, 0
13, 11219, Note_on_c, 15, 64, 0
13, 11220, Note_on_c, 15, 47, 76
13, 11220, Note_on_c, 15, 62, 76
13, 11220, Note_on_c, 15, 59, 76
13, 11220, Note_on_c, 15, 66, 76
13, 11279, Note_on_c, 15, 47, 0
13, 11279, Note_on_c, 15, 62, 0
13, 11279, Note_on_c, 15, 59, 0
13, 11279, Note_on_c, 15, 66, 0
13, 11280, Note_on_c, 15, 48, 76
13, 11280, Note_on_c, 15, 64, 76
13, 11280, Note_on_c, 15, 69, 76
13, 11280, Note_on_c, 15, 60, 76
13, 11339, Note_on_c, 15, 48, 0
13, 11339, Note_on_c, 15, 64, 0
13, 11339, Note_on_c, 15, 69, 0
13, 11339, Note_on_c, 15, 60, 0
13, 11340, Note_on_c, 15, 47, 76
13, 11340, Note_on_c, 15, 59, 76
13, 11340, Note_on_c, 15, 66, 76
13, 11340, Note_on_c, 15, 62, 76
13, 11399, Note_on_c, 15, 47, 0
13, 11399, Note_on_c, 15, 59, 0
13, 11399, Note_on_c, 15, 66, 0
13, 11399, Note_on_c, 15, 62, 0
13, 11400, Note_on_c, 15, 67, 76
13, 11400, Note_on_c, 15, 48, 76
13, 11400, Note_on_c, 15, 64, 76
13, 11400, Note_on_c, 15, 60, 76
13, 11459, Note_on_c, 15, 67, 0
13, 11459, Note_on_c, 15, 48, 0
13, 11459, Note_on_c, 15, 64, 0
13, 11459, Note_on_c, 15, 60, 0
13, 11460, Note_on_c, 15, 62, 76
13, 11460, Note_on_c, 15, 69, 76
13, 11460, Note_on_c, 15, 50, 76
13, 11460, Note_on_c, 15, 66, 76
13, 11519, Note_on_c, 15, 62, 0
13, 11519, Note_on_c, 15, 69, 0
13, 11519, Note_on_c, 15, 50, 0
13, 11519, Note_on_c, 15, 66, 0
13, 11520, Note_on_c, 15, 67, 76
13, 11520, Note_on_c, 15, 52, 76
13, 11520, Note_on_c, 15, 71, 76
13, 11520, Note_on_c, 15, 64, 76
13, 11759, Note_on_c, 15, 67, 0
13, 11759, Note_on_c, 15, 52, 0
13, 11759, Note_on_c, 15, 71, 0
13, 11759, Note_on_c, 15, 64, 0
13, 11760, Note_on_c, 15, 79, 76
13, 11760, Note_on_c, 15, 76, 76
13, 11760, Note_on_c, 15, 83, 76
13, 11760, Note_on_c, 15, 64, 76
13, 11999, Note_on_c, 15, 79, 0
13, 11999, Note_on_c, 15, 76, 0
13, 11999, Note_on_c, 15, 83, 0
13, 11999, Note_on_c, 15, 64, 0
13, 12000, Note_on_c, 15, 76, 76
13, 12000, Note_on_c, 15, 81, 76
13, 12000, Note_on_c, 15, 84, 76
13, 12000, Note_on_c, 15, 78, 76
13, 12000, Note_on_c, 15, 62, 76
13, 12239, Note_on_c, 15, 76, 0
13, 12239, Note_on_c, 15, 81, 0
13, 12239, Note_on_c, 15, 84, 0
13, 12239, Note_on_c, 15, 78, 0
13, 12239, Note_on_c, 15, 62, 0
13, 12240, Note_on_c, 15, 81, 76
13, 12240, Note_on_c, 15, 72, 76
13, 12240, Note_on_c, 15, 60, 76
13, 12240, Note_on_c, 15, 76, 76
13, 12479, Note_on_c, 15, 81, 0
13, 12479, Note_on_c, 15, 72, 0
13, 12479, Note_on_c, 15, 60, 0
13, 12479, Note_on_c, 15, 76, 0
13, 12480, Note_on_c, 15, 74, 76
13, 12480, Note_on_c, 15, 78, 76
13, 12480, Note_on_c, 15, 59, 76
13, 12480, Note_on_c, 15, 71, 76
13, 12719, Note_on_c, 15, 74, 0
13, 12719, Note_on_c, 15, 78, 0
13, 12719, Note_on_c, 15, 59, 0
13, 12719, Note_on_c, 15, 71, 0
13, 12720, Note_on_c, 15, 59, 76
13, 12720, Note_on_c, 15, 62, 76
13, 12720, Note_on_c, 15, 47, 76
13, 12720, Note_on_c, 15, 66, 76
13, 12959, Note_on_c, 15, 59, 0
13, 12959, Note_on_c, 15, 62, 0
13, 12959, Note_on_c, 15, 47, 0
13, 12959, Note_on_c, 15, 66, 0
13, 12960, Note_on_c, 15, 45, 76
13, 12960, Note_on_c, 15, 60, 76
13, 12960, Note_on_c, 15, 64, 76
13, 12960, Note_on_c, 15, 57, 76
13, 13199, Note_on_c, 15, 45, 0
13, 13199, Note_on_c, 15, 60, 0
13, 13199, Note_on_c, 15, 64, 0
13, 13199, Note_on_c, 15, 57, 0
13, 13200, Note_on_c, 15, 55, 76
13, 13200, Note_on_c, 15, 62, 76
13, 13200, Note_on_c, 15, 43, 76
13, 13200, Note_on_c, 15, 59, 76
13, 13439, Note_on_c, 15, 55, 0
13, 13439, Note_on_c, 15, 62, 0
13, 13439, Note_on_c, 15, 43, 0
13, 13439, Note_on_c, 15, 59, 0
13, 13440, Note_on_c, 15, 42, 76
13, 13440, Note_on_c, 15, 57, 76
13, 13440, Note_on_c, 15, 60, 76
13, 13440, Note_on_c, 15, 54, 76
13, 13679, Note_on_c, 15, 42, 0
13, 13679, Note_on_c, 15, 57, 0
13, 13679, Note_on_c, 15, 60, 0
13, 13679, Note_on_c, 15, 54, 0
13, 13680, Note_on_c, 15, 55, 76
13, 13680, Note_on_c, 15, 62, 76
13, 13680, Note_on_c, 15, 43, 76
13, 13680, Note_on_c, 15, 59, 76
13, 13859, Note_on_c, 15, 55, 0
13, 13859, Note_on_c, 15, 62, 0
13, 13859, Note_on_c, 15, 43, 0
13, 13859, Note_on_c, 15, 59, 0
13, 13860, Note_on_c, 15, 64, 76
13, 13860, Note_on_c, 15, 67, 76
13, 13860, Note_on_c, 15, 60, 76
13, 13860, Note_on_c, 15, 48, 76
13, 13919, Note_on_c, 15, 64, 0
13, 13919, Note_on_c, 15, 67, 0
13, 13919, Note_on_c, 15, 60, 0
13, 13919, Note_on_c, 15, 48, 0
13, 13920, Note_on_c, 15, 50, 76
13, 13920, Note_on_c, 15, 62, 76
13, 13920, Note_on_c, 15, 66, 76
13, 13920, Note_on_c, 15, 69, 76
13, 14159, Note_on_c, 15, 50, 0
13, 14159, Note_on_c, 15, 62, 0
13, 14159, Note_on_c, 15, 66, 0
13, 14159, Note_on_c, 15, 69, 0
13, 14160, Note_on_c, 15, 57, 76
13, 14160, Note_on_c, 15, 38, 76
13, 14160, Note_on_c, 15, 54, 76
13, 14160, Note_on_c, 15, 50, 76
13, 14399, Note_on_c, 15, 57, 0
13, 14399, Note_on_c, 15, 38, 0
13, 14399, Note_on_c, 15, 54, 0
13, 14399, Note_on_c, 15, 50, 0
13, 14400, Note_on_c, 15, 43, 76
13, 14400, Note_on_c, 15, 62, 76
13, 14400, Note_on_c, 15, 59, 76
13, 14400, Note_on_c, 15, 55, 76
13, 14699, Note_on_c, 15, 43, 0
13, 14699, Note_on_c, 15, 62, 0
13, 14699, Note_on_c, 15, 59, 0
13, 14699, Note_on_c, 15, 55, 0
13, 14700, Note_on_c, 15, 57, 76
13, 14700, Note_on_c, 15, 60, 76
13, 14700, Note_on_c, 15, 54, 76
13, 14700, Note_on_c, 15, 42, 76
13, 14759, Note_on_c, 15, 57, 0
13, 14759, Note_on_c, 15, 60, 0
13, 14759, Note_on_c, 15, 54, 0
13, 14759, Note_on_c, 15, 42, 0
13, 14760, Note_on_c, 15, 62, 76
13, 14760, Note_on_c, 15, 55, 76
13, 14760, Note_on_c, 15, 59, 76
13, 14760, Note_on_c, 15, 43, 76
13, 14819, Note_on_c, 15, 62, 0
13, 14819, Note_on_c, 15, 55, 0
13, 14819, Note_on_c, 15, 59, 0
13, 14819, Note_on_c, 15, 43, 0
13, 14820, Note_on_c, 15, 57, 76
13, 14820, Note_on_c, 15, 60, 76
13, 14820, Note_on_c, 15, 64, 76
13, 14820, Note_on_c, 15, 45, 76
13, 14879, Note_on_c, 15, 57, 0
13, 14879, Note_on_c, 15, 60, 0
13, 14879, Note_on_c, 15, 64, 0
13, 14879, Note_on_c, 15, 45, 0
13, 14880, Note_on_c, 15, 66, 76
13, 14880, Note_on_c, 15, 47, 76
13, 14880, Note_on_c, 15, 59, 76
13, 14880, Note_on_c, 15, 62, 76
13, 14939, Note_on_c, 15, 66, 0
13, 14939, Note_on_c, 15, 47, 0
13, 14939, Note_on_c, 15, 59, 0
13, 14939, Note_on_c, 15, 62, 0
13, 14940, Note_on_c, 15, 60, 76
13, 14940, Note_on_c, 15, 45, 76
13, 14940, Note_on_c, 15, 64, 76
13, 14940, Note_on_c, 15, 57, 76
13, 14999, Note_on_c, 15, 60, 0
13, 14999, Note_on_c, 15, 45, 0
13, 14999, Note_on_c, 15, 64, 0
13, 14999, Note_on_c, 15, 57, 0
13, 15000, Note_on_c, 15, 59, 76
13, 15000, Note_on_c, 15, 55, 76
13, 15000, Note_on_c, 15, 62, 76
13, 15000, Note_on_c, 15, 43, 76
13, 15059, Note_on_c, 15, 59, 0
13, 15059, Note_on_c, 15, 55, 0
13, 15059, Note_on_c, 15, 62, 0
13, 15059, Note_on_c, 15, 43, 0
13, 15060, Note_on_c, 15, 60, 76
13, 15060, Note_on_c, 15, 45, 76
13, 15060, Note_on_c, 15, 64, 76
13, 15060, Note_on_c, 15, 57, 76
13, 15119, Note_on_c, 15, 60, 0
13, 15119, Note_on_c, 15, 45, 0
13, 15119, Note_on_c, 15, 64, 0
13, 15119, Note_on_c, 15, 57, 0
13, 15120, Note_on_c, 15, 59, 76
13, 15120, Note_on_c, 15, 47, 76
13, 15120, Note_on_c, 15, 62, 76
13, 15120, Note_on_c, 15, 66, 76
13, 15179, Note_on_c, 15, 59, 0
13, 15179, Note_on_c, 15, 47, 0
13, 15179, Note_on_c, 15, 62, 0
13, 15179, Note_on_c, 15, 66, 0
13, 15180, Note_on_c, 15, 59, 76
13, 15180, Note_on_c, 15, 62, 76
13, 15180, Note_on_c, 15, 43, 76
13, 15180, Note_on_c, 15, 55, 76
13, 15239, Note_on_c, 15, 59, 0
13, 15239, Note_on_c, 15, 62, 0
13, 15239, Note_on_c, 15, 43, 0
13, 15239, Note_on_c, 15, 55, 0
13, 15240, Note_on_c, 15, 45, 76
13, 15240, Note_on_c, 15, 60, 76
13, 15240, Note_on_c, 15, 57, 76
13, 15240, Note_on_c, 15, 64, 76
13, 15299, Note_on_c, 15, 45, 0
13, 15299, Note_on_c, 15, 60, 0
13, 15299, Note_on_c, 15, 57, 0
13, 15299, Note_on_c, 15, 64, 0
13, 15300, Note_on_c, 15, 65, 76
13, 15300, Note_on_c, 15, 59, 76
13, 15300, Note_on_c, 15, 62, 76
13, 15300, Note_on_c, 15, 47, 76
13, 15359, Note_on_c, 15, 65, 0
13, 15359, Note_on_c, 15, 59, 0
13, 15359, Note_on_c, 15, 62, 0
13, 15359, Note_on_c, 15, 47, 0
13, 15360, Note_on_c, 15, 60, 76
13, 15360, Note_on_c, 15, 67, 76
13, 15360, Note_on_c, 15, 64, 76
13, 15360, Note_on_c, 15, 48, 76
13, 15659, Note_on_c, 15, 60, 0
13, 15659, Note_on_c, 15, 67, 0
13, 15659, Note_on_c, 15, 64, 0
13, 15659, Note_on_c, 15, 48, 0
13, 15660, Note_on_c, 15, 55, 76
13, 15660, Note_on_c, 15, 67, 76
13, 15660, Note_on_c, 15, 74, 76
13, 15660, Note_on_c, 15, 71, 76
13, 15719, Note_on_c, 15, 55, 0
13, 15719, Note_on_c, 15, 67, 0
13, 15719, Note_on_c, 15, 74, 0
13, 15719, Note_on_c, 15, 71, 0
13, 15720, Note_on_c, 15, 57, 76
13, 15720, Note_on_c, 15, 72, 76
13, 15720, Note_on_c, 15, 76, 76
13, 15720, Note_on_c, 15, 69, 76
13, 15779, Note_on_c, 15, 57, 0
13, 15779, Note_on_c, 15, 72, 0
13, 15779, Note_on_c, 15, 76, 0
13, 15779, Note_on_c, 15, 69, 0
13, 15780, Note_on_c, 15, 74, 76
13, 15780, Note_on_c, 15, 77, 76
13, 15780, Note_on_c, 15, 71, 76
13, 15780, Note_on_c, 15, 59, 76
13, 15839, Note_on_c, 15, 74, 0
13, 15839, Note_on_c, 15, 77, 0
13, 15839, Note_on_c, 15, 71, 0
13, 15839, Note_on_c, 15, 59, 0
13, 15840, Note_on_c, 15, 79, 76
13, 15840, Note_on_c, 15, 72, 76
13, 15840, Note_on_c, 15, 60, 76
13, 15840, Note_on_c, 15, 76, 76
13, 16319, Note_on_c, 15, 79, 0
13, 16319, Note_on_c, 15, 76, 0
13, 16320, Note_on_c, 15, 72, 76
13, 16320, Note_on_c, 15, 77, 76
13, 16320, Note_on_c, 15, 81, 76
13, 16320, Note_on_c, 15, 74, 76
13, 16499, Note_on_c, 15, 72, 0
13, 16499, Note_on_c, 15, 60, 0
13, 16500, Note_on_c, 15, 60, 76
13, 16500, Note_on_c, 15, 72, 76
13, 16559, Note_on_c, 15, 72, 0
13, 16559, Note_on_c, 15, 77, 0
13, 16559, Note_on_c, 15, 81, 0
13, 16559, Note_on_c, 15, 74, 0
13, 16559, Note_on_c, 15, 60, 0
13, 16559, Note_on_c, 15, 72, 0
13, 16560, Note_on_c, 15, 59, 76
13, 16560, Note_on_c, 15, 74, 76
13, 16560, Note_on_c, 15, 71, 76
13, 16560, Note_on_c, 15, 77, 76
13, 16739, Note_on_c, 15, 59, 0
13, 16739, Note_on_c, 15, 74, 0
13, 16739, Note_on_c, 15, 71, 0
13, 16739, Note_on_c, 15, 77, 0
13, 16740, Note_on_c, 15, 57, 76
13, 16740, Note_on_c, 15, 76, 76
13, 16740, Note_on_c, 15, 69, 76
13, 16740, Note_on_c, 15, 72, 76
13, 16799, Note_on_c, 15, 57, 0
13, 16799, Note_on_c, 15, 76, 0
13, 16799, Note_on_c, 15, 69, 0
13, 16799, Note_on_c, 15, 72, 0
13, 16800, Note_on_c, 15, 74, 76
13, 16800, Note_on_c, 15, 71, 76
13, 16800, Note_on_c, 15, 59, 76
13, 16800, Note_on_c, 15, 79, 76
13, 16979, Note_on_c, 15, 74, 0
13, 16979, Note_on_c, 15, 71, 0
13, 16979, Note_on_c, 15, 59, 0
13, 16979, Note_on_c, 15, 79, 0
13, 16980, Note_on_c, 15, 57, 76
13, 16980, Note_on_c, 15, 72, 76
13, 16980, Note_on_c, 15, 76, 76
13, 16980, Note_on_c, 15, 69, 76
13, 17039, Note_on_c, 15, 57, 0
13, 17039, Note_on_c, 15, 72, 0
13, 17039, Note_on_c, 15, 76, 0
13, 17039, Note_on_c, 15, 69, 0
13, 17040, Note_on_c, 15, 77, 76
13, 17040, Note_on_c, 15, 71, 76
13, 17040, Note_on_c, 15, 59, 76
13, 17040, Note_on_c, 15, 74, 76
13, 17219, Note_on_c, 15, 77, 0
13, 17219, Note_on_c, 15, 71, 0
13, 17219, Note_on_c, 15, 59, 0
13, 17219, Note_on_c, 15, 74, 0
13, 17220, Note_on_c, 15, 67, 76
13, 17220, Note_on_c, 15, 55, 76
13, 17220, Note_on_c, 15, 74, 76
13, 17220, Note_on_c, 15, 71, 76
13, 17279, Note_on_c, 15, 67, 0
13, 17279, Note_on_c, 15, 55, 0
13, 17279, Note_on_c, 15, 74, 0
13, 17279, Note_on_c, 15, 71, 0
13, 17280, Note_on_c, 15, 57, 76
13, 17280, Note_on_c, 15, 76, 76
13, 17280, Note_on_c, 15, 69, 76
13, 17280, Note_on_c, 15, 72, 76
13, 17579, Note_on_c, 15, 57, 0
13, 17579, Note_on_c, 15, 76, 0
13, 17579, Note_on_c, 15, 69, 0
13, 17579, Note_on_c, 15, 72, 0
13, 17580, Note_on_c, 15, 76, 76
13, 17580, Note_on_c, 15, 72, 76
13, 17580, Note_on_c, 15, 57, 76
13, 17580, Note_on_c, 15, 69, 76
13, 17639, Note_on_c, 15, 76, 0
13, 17639, Note_on_c, 15, 72, 0
13, 17639, Note_on_c, 15, 57, 0
13, 17639, Note_on_c, 15, 69, 0
13, 17640, Note_on_c, 15, 71, 76
13, 17640, Note_on_c, 15, 77, 76
13, 17640, Note_on_c, 15, 74, 76
13, 17640, Note_on_c, 15, 59, 76
13, 17699, Note_on_c, 15, 71, 0
13, 17699, Note_on_c, 15, 77, 0
13, 17699, Note_on_c, 15, 74, 0
13, 17699, Note_on_c, 15, 59, 0
13, 17700, Note_on_c, 15, 60, 76
13, 17700, Note_on_c, 15, 79, 76
13, 17700, Note_on_c, 15, 72, 76
13, 17700, Note_on_c, 15, 76, 76
13, 17759, Note_on_c, 15, 60, 0
13, 17759, Note_on_c, 15, 79, 0
13, 17759, Note_on_c, 15, 72, 0
13, 17759, Note_on_c, 15, 76, 0
13, 17760, Note_on_c, 15, 81, 76
13, 17760, Note_on_c, 15, 77, 76
13, 17760, Note_on_c, 15, 74, 76
13, 17760, Note_on_c, 15, 62, 76
13, 17819, Note_on_c, 15, 81, 0
13, 17819, Note_on_c, 15, 77, 0
13, 17819, Note_on_c, 15, 74, 0
13, 17819, Note_on_c, 15, 62, 0
13, 17820, Note_on_c, 15, 79, 76
13, 17820, Note_on_c, 15, 60, 76
13, 17820, Note_on_c, 15, 72, 76
13, 17820, Note_on_c, 15, 76, 76
13, 17879, Note_on_c, 15, 79, 0
13, 17879, Note_on_c, 15, 60, 0
13, 17879, Note_on_c, 15, 72, 0
13, 17879, Note_on_c, 15, 76, 0
13, 17880, Note_on_c, 15, 77, 76
13, 17880, Note_on_c, 15, 74, 76
13, 17880, Note_on_c, 15, 59, 76
13, 17880, Note_on_c, 15, 71, 76
13, 17939, Note_on_c, 15, 77, 0
13, 17939, Note_on_c, 15, 74, 0
13, 17939, Note_on_c, 15, 59, 0
13, 17939, Note_on_c, 15, 71, 0
13, 17940, Note_on_c, 15, 76, 76
13, 17940, Note_on_c, 15, 79, 76
13, 17940, Note_on_c, 15, 72, 76
13, 17940, Note_on_c, 15, 60, 76
13, 17999, Note_on_c, 15, 76, 0
13, 17999, Note_on_c, 15, 79, 0
13, 17999, Note_on_c, 15, 72, 0
13, 17999, Note_on_c, 15, 60, 0
13, 18000, Note_on_c, 15, 74, 76
13, 18000, Note_on_c, 15, 62, 76
13, 18000, Note_on_c, 15, 83, 76
13, 18000, Note_on_c, 15, 77, 76
13, 18059, Note_on_c, 15, 74, 0
13, 18059, Note_on_c, 15, 62, 0
13, 18059, Note_on_c, 15, 83, 0
13, 18059, Note_on_c, 15, 77, 0
13, 18060, Note_on_c, 15, 71, 76
13, 18060, Note_on_c, 15, 59, 76
13, 18060, Note_on_c, 15, 77, 76
13, 18060, Note_on_c, 15, 74, 76
13, 18119, Note_on_c, 15, 71, 0
13, 18119, Note_on_c, 15, 59, 0
13, 18119, Note_on_c, 15, 77, 0
13, 18119, Note_on_c, 15, 74, 0
13, 18120, Note_on_c, 15, 72, 76
13, 18120, Note_on_c, 15, 76, 76
13, 18120, Note_on_c, 15, 79, 76
13, 18120, Note_on_c, 15, 60, 76
13, 18179, Note_on_c, 15, 72, 0
13, 18179, Note_on_c, 15, 76, 0
13, 18179, Note_on_c, 15, 79, 0
13, 18179, Note_on_c, 15, 60, 0
13, 18180, Note_on_c, 15, 81, 76
13, 18180, Note_on_c, 15, 77, 76
13, 18180, Note_on_c, 15, 62, 76
13, 18180, Note_on_c, 15, 74, 76
13, 18239, Note_on_c, 15, 81, 0
13, 18239, Note_on_c, 15, 77, 0
13, 18239, Note_on_c, 15, 62, 0
13, 18239, Note_on_c, 15, 74, 0
13, 18240, Note_on_c, 15, 77, 76
13, 18240, Note_on_c, 15, 67, 76
13, 18240, Note_on_c, 15, 71, 76
13, 18240, Note_on_c, 15, 74, 76
13, 18240, Note_on_c, 15, 55, 76
13, 18419, Note_on_c, 15, 77, 0
13, 18419, Note_on_c, 15, 67, 0
13, 18419, Note_on_c, 15, 71, 0
13, 18419, Note_on_c, 15, 74, 0
13, 18419, Note_on_c, 15, 55, 0
13, 18420, Note_on_c, 15, 69, 76
13, 18420, Note_on_c, 15, 76, 76
13, 18420, Note_on_c, 15, 57, 76
13, 18420, Note_on_c, 15, 72, 76
13, 18479, Note_on_c, 15, 69, 0
13, 18479, Note_on_c, 15, 76, 0
13, 18479, Note_on_c, 15, 57, 0
13, 18479, Note_on_c, 15, 72, 0
13, 18480, Note_on_c, 15, 59, 76
13, 18480, Note_on_c, 15, 71, 76
13, 18480, Note_on_c, 15, 79, 76
13, 18480, Note_on_c, 15, 77, 76
13, 18480, Note_on_c, 15, 74, 76
13, 18659, Note_on_c, 15, 59, 0
13, 18659, Note_on_c, 15, 71, 0
13, 18659, Note_on_c, 15, 79, 0
13, 18659, Note_on_c, 15, 77, 0
13, 18659, Note_on_c, 15, 74, 0
13, 18660, Note_on_c, 15, 74, 76
13, 18660, Note_on_c, 15, 55, 76
13, 18660, Note_on_c, 15, 67, 76
13, 18660, Note_on_c, 15, 71, 76
13, 18719, Note_on_c, 15, 74, 0
13, 18719, Note_on_c, 15, 55, 0
13, 18719, Note_on_c, 15, 67, 0
13, 18719, Note_on_c, 15, 71, 0
13, 18720, Note_on_c, 15, 60, 76
13, 18720, Note_on_c, 15, 79, 76
13, 18720, Note_on_c, 15, 72, 76
13, 18720, Note_on_c, 15, 76, 76
13, 18959, Note_on_c, 15, 60, 0
13, 18959, Note_on_c, 15, 79, 0
13, 18959, Note_on_c, 15, 72, 0
13, 18959, Note_on_c, 15, 76, 0
13, 18960, Note_on_c, 15, 60, 76
13, 18960, Note_on_c, 15, 67, 76
13, 18960, Note_on_c, 15, 48, 76
13, 18960, Note_on_c, 15, 64, 76
13, 19199, Note_on_c, 15, 60, 0
13, 19199, Note_on_c, 15, 67, 0
13, 19199, Note_on_c, 15, 48, 0
13, 19199, Note_on_c, 15, 64, 0
13, 19200, Note_on_c, 15, 67, 76
13, 19200, Note_on_c, 15, 71, 76
13, 19200, Note_on_c, 15, 55, 76
13, 19200, Note_on_c, 15, 74, 76
13, 19739, Note_on_c, 15, 67, 0
13, 19739, Note_on_c, 15, 71, 0
13, 19739, Note_on_c, 15, 55, 0
13, 19739, Note_on_c, 15, 74, 0
13, 19740, Note_on_c, 15, 66, 76
13, 19740, Note_on_c, 15, 54, 76
13, 19740, Note_on_c, 15, 69, 76
13, 19740, Note_on_c, 15, 72, 76
13, 19799, Note_on_c, 15, 66, 0
13, 19799, Note_on_c, 15, 54, 0
13, 19799, Note_on_c, 15, 69, 0
13, 19799, Note_on_c, 15, 72, 0
13, 19800, Note_on_c, 15, 67, 76
13, 19800, Note_on_c, 15, 74, 76
13, 19800, Note_on_c, 15, 71, 76
13, 19800, Note_on_c, 15, 55, 76
13, 19859, Note_on_c, 15, 67, 0
13, 19859, Note_on_c, 15, 74, 0
13, 19859, Note_on_c, 15, 71, 0
13, 19859, Note_on_c, 15, 55, 0
13, 19860, Note_on_c, 15, 72, 76
13, 19860, Note_on_c, 15, 57, 76
13, 19860, Note_on_c, 15, 69, 76
13, 19860, Note_on_c, 15, 76, 76
13, 19919, Note_on_c, 15, 72, 0
13, 19919, Note_on_c, 15, 57, 0
13, 19919, Note_on_c, 15, 69, 0
13, 19919, Note_on_c, 15, 76, 0
13, 19920, Note_on_c, 15, 71, 76
13, 19920, Note_on_c, 15, 59, 76
13, 19920, Note_on_c, 15, 74, 76
13, 19920, Note_on_c, 15, 79, 76
13, 19979, Note_on_c, 15, 71, 0
13, 19979, Note_on_c, 15, 59, 0
13, 19979, Note_on_c, 15, 74, 0
13, 19979, Note_on_c, 15, 79, 0
13, 19980, Note_on_c, 15, 74, 76
13, 19980, Note_on_c, 15, 67, 76
13, 19980, Note_on_c, 15, 71, 76
13, 19980, Note_on_c, 15, 55, 76
13, 20039, Note_on_c, 15, 74, 0
13, 20039, Note_on_c, 15, 67, 0
13, 20039, Note_on_c, 15, 71, 0
13, 20039, Note_on_c, 15, 55, 0
13, 20040, Note_on_c, 15, 72, 76
13, 20040, Note_on_c, 15, 76, 76
13, 20040, Note_on_c, 15, 57, 76
13, 20040, Note_on_c, 15, 69, 76
13, 20099, Note_on_c, 15, 72, 0
13, 20099, Note_on_c, 15, 76, 0
13, 20099, Note_on_c, 15, 57, 0
13, 20099, Note_on_c, 15, 69, 0
13, 20100, Note_on_c, 15, 78, 76
13, 20100, Note_on_c, 15, 74, 76
13, 20100, Note_on_c, 15, 59, 76
13, 20100, Note_on_c, 15, 71, 76
13, 20159, Note_on_c, 15, 78, 0
13, 20159, Note_on_c, 15, 74, 0
13, 20159, Note_on_c, 15, 59, 0
13, 20159, Note_on_c, 15, 71, 0
13, 20160, Note_on_c, 15, 64, 76
13, 20160, Note_on_c, 15, 71, 76
13, 20160, Note_on_c, 15, 48, 76
13, 20160, Note_on_c, 15, 60, 76
13, 20160, Note_on_c, 15, 67, 76
13, 20639, Note_on_c, 15, 71, 0
13, 20639, Note_on_c, 15, 67, 0
13, 20640, Note_on_c, 15, 69, 76
13, 20699, Note_on_c, 15, 64, 0
13, 20699, Note_on_c, 15, 48, 0
13, 20699, Note_on_c, 15, 60, 0
13, 20699, Note_on_c, 15, 69, 0
13, 20700, Note_on_c, 15, 59, 76
13, 20700, Note_on_c, 15, 62, 76
13, 20700, Note_on_c, 15, 66, 76
13, 20700, Note_on_c, 15, 47, 76
13, 20759, Note_on_c, 15, 59, 0
13, 20759, Note_on_c, 15, 62, 0
13, 20759, Note_on_c, 15, 66, 0
13, 20759, Note_on_c, 15, 47, 0
13, 20760, Note_on_c, 15, 60, 76
13, 20760, Note_on_c, 15, 57, 76
13, 20760, Note_on_c, 15, 64, 76
13, 20760, Note_on_c, 15, 45, 76
13, 20819, Note_on_c, 15, 60, 0
13, 20819, Note_on_c, 15, 57, 0
13, 20819, Note_on_c, 15, 64, 0
13, 20819, Note_on_c, 15, 45, 0
13, 20820, Note_on_c, 15, 47, 76
13, 20820, Note_on_c, 15, 62, 76
13, 20820, Note_on_c, 15, 66, 76
13, 20820, Note_on_c, 15, 59, 76
13, 20879, Note_on_c, 15, 47, 0
13, 20879, Note_on_c, 15, 62, 0
13, 20879, Note_on_c, 15, 66, 0
13, 20879, Note_on_c, 15, 59, 0
13, 20880, Note_on_c, 15, 64, 76
13, 20880, Note_on_c, 15, 60, 76
13, 20880, Note_on_c, 15, 48, 76
13, 20880, Note_on_c, 15, 67, 76
13, 20939, Note_on_c, 15, 64, 0
13, 20939, Note_on_c, 15, 60, 0
13, 20939, Note_on_c, 15, 48, 0
13, 20939, Note_on_c, 15, 67, 0
13, 20940, Note_on_c, 15, 45, 76
13, 20940, Note_on_c, 15, 64, 76
13, 20940, Note_on_c, 15, 57, 76
13, 20940, Note_on_c, 15, 60, 76
13, 20999, Note_on_c, 15, 45, 0
13, 20999, Note_on_c, 15, 64, 0
13, 20999, Note_on_c, 15, 57, 0
13, 20999, Note_on_c, 15, 60, 0
13, 21000, Note_on_c, 15, 47, 76
13, 21000, Note_on_c, 15, 59, 76
13, 21000, Note_on_c, 15, 62, 76
13, 21000, Note_on_c, 15, 66, 76
13, 21059, Note_on_c, 15, 47, 0
13, 21059, Note_on_c, 15, 59, 0
13, 21059, Note_on_c, 15, 62, 0
13, 21059, Note_on_c, 15, 66, 0
13, 21060, Note_on_c, 15, 48, 76
13, 21060, Note_on_c, 15, 67, 76
13, 21060, Note_on_c, 15, 60, 76
13, 21060, Note_on_c, 15, 64, 76
13, 21119, Note_on_c, 15, 48, 0
13, 21119, Note_on_c, 15, 67, 0
13, 21119, Note_on_c, 15, 60, 0
13, 21119, Note_on_c, 15, 64, 0
13, 21120, Note_on_c, 15, 52, 76
13, 21120, Note_on_c, 15, 40, 76
13, 21120, Note_on_c, 15, 57, 76
13, 21120, Note_on_c, 15, 59, 76
13, 21359, Note_on_c, 15, 52, 0
13, 21359, Note_on_c, 15, 40, 0
13, 21359, Note_on_c, 15, 57, 0
13, 21359, Note_on_c, 15, 59, 0
13, 21360, Note_on_c, 15, 71, 76
13, 21360, Note_on_c, 15, 67, 76
13, 21360, Note_on_c, 15, 64, 76
13, 21360, Note_on_c, 15, 52, 76
13, 21659, Note_on_c, 15, 71, 0
13, 21659, Note_on_c, 15, 67, 0
13, 21659, Note_on_c, 15, 64, 0
13, 21659, Note_on_c, 15, 52, 0
13, 21660, Note_on_c, 15, 50, 76
13, 21660, Note_on_c, 15, 62, 76
13, 21660, Note_on_c, 15, 66, 76
13, 21660, Note_on_c, 15, 69, 76
13, 21719, Note_on_c, 15, 50, 0
13, 21719, Note_on_c, 15, 62, 0
13, 21719, Note_on_c, 15, 66, 0
13, 21719, Note_on_c, 15, 69, 0
13, 21720, Note_on_c, 15, 67, 76
13, 21720, Note_on_c, 15, 64, 76
13, 21720, Note_on_c, 15, 71, 76
13, 21720, Note_on_c, 15, 52, 76
13, 21779, Note_on_c, 15, 67, 0
13, 21779, Note_on_c, 15, 64, 0
13, 21779, Note_on_c, 15, 71, 0
13, 21779, Note_on_c, 15, 52, 0
13, 21780, Note_on_c, 15, 54, 76
13, 21780, Note_on_c, 15, 69, 76
13, 21780, Note_on_c, 15, 66, 76
13, 21780, Note_on_c, 15, 72, 76
13, 21839, Note_on_c, 15, 54, 0
13, 21839, Note_on_c, 15, 69, 0
13, 21839, Note_on_c, 15, 66, 0
13, 21839, Note_on_c, 15, 72, 0
13, 21840, Note_on_c, 15, 71, 76
13, 21840, Note_on_c, 15, 67, 76
13, 21840, Note_on_c, 15, 55, 76
13, 21840, Note_on_c, 15, 76, 76
13, 21899, Note_on_c, 15, 71, 0
13, 21899, Note_on_c, 15, 67, 0
13, 21899, Note_on_c, 15, 55, 0
13, 21899, Note_on_c, 15, 76, 0
13, 21900, Note_on_c, 15, 72, 76
13, 21900, Note_on_c, 15, 54, 76
13, 21900, Note_on_c, 15, 69, 76
13, 21900, Note_on_c, 15, 66, 76
13, 21959, Note_on_c, 15, 72, 0
13, 21959, Note_on_c, 15, 54, 0
13, 21959, Note_on_c, 15, 69, 0
13, 21959, Note_on_c, 15, 66, 0
13, 21960, Note_on_c, 15, 67, 76
13, 21960, Note_on_c, 15, 71, 76
13, 21960, Note_on_c, 15, 55, 76
13, 21960, Note_on_c, 15, 74, 76
13, 22019, Note_on_c, 15, 67, 0
13, 22019, Note_on_c, 15, 71, 0
13, 22019, Note_on_c, 15, 55, 0
13, 22019, Note_on_c, 15, 74, 0
13, 22020, Note_on_c, 15, 64, 76
13, 22020, Note_on_c, 15, 52, 76
13, 22020, Note_on_c, 15, 71, 76
13, 22020, Note_on_c, 15, 67, 76
13, 22079, Note_on_c, 15, 64, 0
13, 22079, Note_on_c, 15, 52, 0
13, 22079, Note_on_c, 15, 71, 0
13, 22079, Note_on_c, 15, 67, 0
13, 22080, Note_on_c, 15, 79, 76
13, 22080, Note_on_c, 15, 81, 76
13, 22080, Note_on_c, 15, 73, 76
13, 22080, Note_on_c, 15, 76, 76
13, 22080, Note_on_c, 15, 61, 76
13, 22739, Note_on_c, 15, 79, 0
13, 22739, Note_on_c, 15, 81, 0
13, 22739, Note_on_c, 15, 73, 0
13, 22739, Note_on_c, 15, 76, 0
13, 22739, Note_on_c, 15, 61, 0
13, 22740, Note_on_c, 15, 74, 76
13, 22740, Note_on_c, 15, 71, 76
13, 22740, Note_on_c, 15, 59, 76
13, 22740, Note_on_c, 15, 77, 76
13, 22799, Note_on_c, 15, 74, 0
13, 22799, Note_on_c, 15, 71, 0
13, 22799, Note_on_c, 15, 59, 0
13, 22799, Note_on_c, 15, 77, 0
13, 22800, Note_on_c, 15, 61, 76
13, 22800, Note_on_c, 15, 73, 76
13, 22800, Note_on_c, 15, 76, 76
13, 22800, Note_on_c, 15, 79, 76
13, 22979, Note_on_c, 15, 61, 0
13, 22979, Note_on_c, 15, 73, 0
13, 22979, Note_on_c, 15, 76, 0
13, 22979, Note_on_c, 15, 79, 0
13, 22980, Note_on_c, 15, 76, 76
13, 22980, Note_on_c, 15, 69, 76
13, 22980, Note_on_c, 15, 73, 76
13, 22980, Note_on_c, 15, 57, 76
13, 23039, Note_on_c, 15, 76, 0
13, 23039, Note_on_c, 15, 69, 0
13, 23039, Note_on_c, 15, 73, 0
13, 23039, Note_on_c, 15, 57, 0
13, 23040, Note_on_c, 15, 74, 76
13, 23040, Note_on_c, 15, 81, 76
13, 23040, Note_on_c, 15, 78, 76
13, 23040, Note_on_c, 15, 62, 76
13, 23519, Note_on_c, 15, 81, 0
13, 23519, Note_on_c, 15, 78, 0
13, 23520, Note_on_c, 15, 79, 76
13, 23520, Note_on_c, 15, 83, 76
13, 23699, Note_on_c, 15, 74, 0
13, 23699, Note_on_c, 15, 62, 0
13, 23699, Note_on_c, 15, 79, 0
13, 23699, Note_on_c, 15, 83, 0
13, 23700, Note_on_c, 15, 64, 76
13, 23700, Note_on_c, 15, 83, 76
13, 23700, Note_on_c, 15, 79, 76
13, 23700, Note_on_c, 15, 76, 76
13, 23759, Note_on_c, 15, 64, 0
13, 23759, Note_on_c, 15, 83, 0
13, 23759, Note_on_c, 15, 79, 0
13, 23759, Note_on_c, 15, 76, 0
13, 23760, Note_on_c, 15, 81, 76
13, 23760, Note_on_c, 15, 62, 76
13, 23760, Note_on_c, 15, 84, 76
13, 23760, Note_on_c, 15, 78, 76
13, 23760, Note_on_c, 15, 74, 76
13, 23939, Note_on_c, 15, 81, 0
13, 23939, Note_on_c, 15, 62, 0
13, 23939, Note_on_c, 15, 84, 0
13, 23939, Note_on_c, 15, 78, 0
13, 23939, Note_on_c, 15, 74, 0
13, 23940, Note_on_c, 15, 79, 76
13, 23940, Note_on_c, 15, 72, 76
13, 23940, Note_on_c, 15, 60, 76
13, 23940, Note_on_c, 15, 76, 76
13, 23999, Note_on_c, 15, 79, 0
13, 23999, Note_on_c, 15, 72, 0
13, 23999, Note_on_c, 15, 60, 0
13, 23999, Note_on_c, 15, 76, 0
13, 24000, Note_on_c, 15, 71, 76
13, 24000, Note_on_c, 15, 59, 76
13, 24000, Note_on_c, 15, 74, 76
13, 24000, Note_on_c, 15, 79, 76
13, 24480, Note_on_c, 15, 77, 76
13, 24539, Note_on_c, 15, 71, 0
13, 24539, Note_on_c, 15, 59, 0
13, 24539, Note_on_c, 15, 74, 0
13, 24539, Note_on_c, 15, 79, 0
13, 24539, Note_on_c, 15, 77, 0
13, 24540, Note_on_c, 15, 72, 76
13, 24540, Note_on_c, 15, 57, 76
13, 24540, Note_on_c, 15, 69, 76
13, 24540, Note_on_c, 15, 76, 76
13, 24599, Note_on_c, 15, 72, 0
13, 24599, Note_on_c, 15, 57, 0
13, 24599, Note_on_c, 15, 69, 0
13, 24599, Note_on_c, 15, 76, 0
13, 24600, Note_on_c, 15, 74, 76
13, 24600, Note_on_c, 15, 55, 76
13, 24600, Note_on_c, 15, 67, 76
13, 24600, Note_on_c, 15, 71, 76
13, 24659, Note_on_c, 15, 74, 0
13, 24659, Note_on_c, 15, 55, 0
13, 24659, Note_on_c, 15, 67, 0
13, 24659, Note_on_c, 15, 71, 0
13, 24660, Note_on_c, 15, 69, 76
13, 24660, Note_on_c, 15, 72, 76
13, 24660, Note_on_c, 15, 76, 76
13, 24660, Note_on_c, 15, 57, 76
13, 24719, Note_on_c, 15, 69, 0
13, 24719, Note_on_c, 15, 72, 0
13, 24719, Note_on_c, 15, 76, 0
13, 24719, Note_on_c, 15, 57, 0
13, 24720, Note_on_c, 15, 59, 76
13, 24720, Note_on_c, 15, 74, 76
13, 24720, Note_on_c, 15, 77, 76
13, 24720, Note_on_c, 15, 71, 76
13, 24779, Note_on_c, 15, 59, 0
13, 24779, Note_on_c, 15, 74, 0
13, 24779, Note_on_c, 15, 77, 0
13, 24779, Note_on_c, 15, 71, 0
13, 24780, Note_on_c, 15, 71, 76
13, 24780, Note_on_c, 15, 67, 76
13, 24780, Note_on_c, 15, 74, 76
13, 24780, Note_on_c, 15, 55, 76
13, 24839, Note_on_c, 15, 71, 0
13, 24839, Note_on_c, 15, 67, 0
13, 24839, Note_on_c, 15, 74, 0
13, 24839, Note_on_c, 15, 55, 0
13, 24840, Note_on_c, 15, 72, 76
13, 24840, Note_on_c, 15, 76, 76
13, 24840, Note_on_c, 15, 69, 76
13, 24840, Note_on_c, 15, 57, 76
13, 24899, Note_on_c, 15, 72, 0
13, 24899, Note_on_c, 15, 76, 0
13, 24899, Note_on_c, 15, 69, 0
13, 24899, Note_on_c, 15, 57, 0
13, 24900, Note_on_c, 15, 71, 76
13, 24900, Note_on_c, 15, 74, 76
13, 24900, Note_on_c, 15, 77, 76
13, 24900, Note_on_c, 15, 59, 76
13, 24959, Note_on_c, 15, 71, 0
13, 24959, Note_on_c, 15, 74, 0
13, 24959, Note_on_c, 15, 77, 0
13, 24959, Note_on_c, 15, 59, 0
13, 24960, Note_on_c, 15, 74, 76
13, 24960, Note_on_c, 15, 60, 76
13, 24960, Note_on_c, 15, 48, 76
13, 24960, Note_on_c, 15, 67, 76
13, 24960, Note_on_c, 15, 65, 76
13, 25199, Note_on_c, 15, 74, 0
13, 25199, Note_on_c, 15, 67, 0
13, 25199, Note_on_c, 15, 65, 0
13, 25200, Note_on_c, 15, 72, 76
13, 25200, Note_on_c, 15, 64, 76
13, 25200, Note_on_c, 15, 67, 76
13, 25499, Note_on_c, 15, 60, 0
13, 25499, Note_on_c, 15, 48, 0
13, 25499, Note_on_c, 15, 72, 0
13, 25499, Note_on_c, 15, 64, 0
13, 25499, Note_on_c, 15, 67, 0
13, 25500, Note_on_c, 15, 47, 76
13, 25500, Note_on_c, 15, 59, 76
13, 25500, Note_on_c, 15, 62, 76
13, 25500, Note_on_c, 15, 66, 76
13, 25559, Note_on_c, 15, 47, 0
13, 25559, Note_on_c, 15, 59, 0
13, 25559, Note_on_c, 15, 62, 0
13, 25559, Note_on_c, 15, 66, 0
13, 25560, Note_on_c, 15, 48, 76
13, 25560, Note_on_c, 15, 67, 76
13, 25560, Note_on_c, 15, 60, 76
13, 25560, Note_on_c, 15, 64, 76
13, 25619, Note_on_c, 15, 48, 0
13, 25619, Note_on_c, 15, 67, 0
13, 25619, Note_on_c, 15, 60, 0
13, 25619, Note_on_c, 15, 64, 0
13, 25620, Note_on_c, 15, 62, 76
13, 25620, Note_on_c, 15, 66, 76
13, 25620, Note_on_c, 15, 69, 76
13, 25620, Note_on_c, 15, 50, 76
13, 25679, Note_on_c, 15, 62, 0
13, 25679, Note_on_c, 15, 66, 0
13, 25679, Note_on_c, 15, 69, 0
13, 25679, Note_on_c, 15, 50, 0
13, 25680, Note_on_c, 15, 67, 76
13, 25680, Note_on_c, 15, 52, 76
13, 25680, Note_on_c, 15, 71, 76
13, 25680, Note_on_c, 15, 64, 76
13, 25739, Note_on_c, 15, 67, 0
13, 25739, Note_on_c, 15, 52, 0
13, 25739, Note_on_c, 15, 71, 0
13, 25739, Note_on_c, 15, 64, 0
13, 25740, Note_on_c, 15, 67, 76
13, 25740, Note_on_c, 15, 48, 76
13, 25740, Note_on_c, 15, 60, 76
13, 25740, Note_on_c, 15, 64, 76
13, 25799, Note_on_c, 15, 67, 0
13, 25799, Note_on_c, 15, 48, 0
13, 25799, Note_on_c, 15, 60, 0
13, 25799, Note_on_c, 15, 64, 0
13, 25800, Note_on_c, 15, 62, 76
13, 25800, Note_on_c, 15, 66, 76
13, 25800, Note_on_c, 15, 69, 76
13, 25800, Note_on_c, 15, 50, 76
13, 25859, Note_on_c, 15, 62, 0
13, 25859, Note_on_c, 15, 66, 0
13, 25859, Note_on_c, 15, 69, 0
13, 25859, Note_on_c, 15, 50, 0
13, 25860, Note_on_c, 15, 52, 76
13, 25860, Note_on_c, 15, 67, 76
13, 25860, Note_on_c, 15, 64, 76
13, 25860, Note_on_c, 15, 71, 76
13, 25919, Note_on_c, 15, 52, 0
13, 25919, Note_on_c, 15, 67, 0
13, 25919, Note_on_c, 15, 64, 0
13, 25919, Note_on_c, 15, 71, 0
13, 25920, Note_on_c, 15, 67, 76
13, 25920, Note_on_c, 15, 60, 76
13, 25920, Note_on_c, 15, 57, 76
13, 25920, Note_on_c, 15, 64, 76
13, 25920, Note_on_c, 15, 45, 76
13, 26399, Note_on_c, 15, 67, 0
13, 26399, Note_on_c, 15, 64, 0
13, 26400, Note_on_c, 15, 66, 76
13, 26459, Note_on_c, 15, 60, 0
13, 26459, Note_on_c, 15, 57, 0
13, 26459, Note_on_c, 15, 45, 0
13, 26459, Note_on_c, 15, 66, 0
13, 26460, Note_on_c, 15, 59, 76
13, 26460, Note_on_c, 15, 62, 76
13, 26460, Note_on_c, 15, 55, 76
13, 26460, Note_on_c, 15, 43, 76
13, 26519, Note_on_c, 15, 59, 0
13, 26519, Note_on_c, 15, 62, 0
13, 26519, Note_on_c, 15, 55, 0
13, 26519, Note_on_c, 15, 43, 0
13, 26520, Note_on_c, 15, 45, 76
13, 26520, Note_on_c, 15, 57, 76
13, 26520, Note_on_c, 15, 64, 76
13, 26520, Note_on_c, 15, 60, 76
13, 26579, Note_on_c, 15, 45, 0
13, 26579, Note_on_c, 15, 57, 0
13, 26579, Note_on_c, 15, 64, 0
13, 26579, Note_on_c, 15, 60, 0
13, 26580, Note_on_c, 15, 47, 76
13, 26580, Note_on_c, 15, 59, 76
13, 26580, Note_on_c, 15, 66, 76
13, 26580, Note_on_c, 15, 62, 76
13, 26639, Note_on_c, 15, 47, 0
13, 26639, Note_on_c, 15, 59, 0
13, 26639, Note_on_c, 15, 66, 0
13, 26639, Note_on_c, 15, 62, 0
13, 26640, Note_on_c, 15, 48, 76
13, 26640, Note_on_c, 15, 60, 76
13, 26640, Note_on_c, 15, 69, 76
13, 26640, Note_on_c, 15, 64, 76
13, 26699, Note_on_c, 15, 48, 0
13, 26699, Note_on_c, 15, 60, 0
13, 26699, Note_on_c, 15, 69, 0
13, 26699, Note_on_c, 15, 64, 0
13, 26700, Note_on_c, 15, 66, 76
13, 26700, Note_on_c, 15, 62, 76
13, 26700, Note_on_c, 15, 47, 76
13, 26700, Note_on_c, 15, 59, 76
13, 26759, Note_on_c, 15, 66, 0
13, 26759, Note_on_c, 15, 62, 0
13, 26759, Note_on_c, 15, 47, 0
13, 26759, Note_on_c, 15, 59, 0
13, 26760, Note_on_c, 15, 48, 76
13, 26760, Note_on_c, 15, 60, 76
13, 26760, Note_on_c, 15, 64, 76
13, 26760, Note_on_c, 15, 67, 76
13, 26819, Note_on_c, 15, 48, 0
13, 26819, Note_on_c, 15, 60, 0
13, 26819, Note_on_c, 15, 64, 0
13, 26819, Note_on_c, 15, 67, 0
13, 26820, Note_on_c, 15, 69, 76
13, 26820, Note_on_c, 15, 62, 76
13, 26820, Note_on_c, 15, 50, 76
13, 26820, Note_on_c, 15, 66, 76
13, 26879, Note_on_c, 15, 69, 0
13, 26879, Note_on_c, 15, 62, 0
13, 26879, Note_on_c, 15, 50, 0
13, 26879, Note_on_c, 15, 66, 0
13, 26880, Note_on_c, 15, 67, 76
13, 26880, Note_on_c, 15, 64, 76
13, 26880, Note_on_c, 15, 71, 76
13, 26880, Note_on_c, 15, 52, 76
13, 27119, Note_on_c, 15, 67, 0
13, 27119, Note_on_c, 15, 64, 0
13, 27119, Note_on_c, 15, 71, 0
13, 27119, Note_on_c, 15, 52, 0
13, 27120, Note_on_c, 15, 83, 76
13, 27120, Note_on_c, 15, 64, 76
13, 27120, Note_on_c, 15, 79, 76
13, 27120, Note_on_c, 15, 76, 76
13, 27359, Note_on_c, 15, 83, 0
13, 27359, Note_on_c, 15, 64, 0
13, 27359, Note_on_c, 15, 79, 0
13, 27359, Note_on_c, 15, 76, 0
13, 27360, Note_on_c, 15, 76, 76
13, 27360, Note_on_c, 15, 62, 76
13, 27360, Note_on_c, 15, 84, 76
13, 27360, Note_on_c, 15, 81, 76
13, 27360, Note_on_c, 15, 78, 76
13, 27599, Note_on_c, 15, 76, 0
13, 27599, Note_on_c, 15, 62, 0
13, 27599, Note_on_c, 15, 84, 0
13, 27599, Note_on_c, 15, 81, 0
13, 27599, Note_on_c, 15, 78, 0
13, 27600, Note_on_c, 15, 81, 76
13, 27600, Note_on_c, 15, 72, 76
13, 27600, Note_on_c, 15, 60, 76
13, 27600, Note_on_c, 15, 76, 76
13, 27839, Note_on_c, 15, 81, 0
13, 27839, Note_on_c, 15, 72, 0
13, 27839, Note_on_c, 15, 60, 0
13, 27839, Note_on_c, 15, 76, 0
13, 27840, Note_on_c, 15, 59, 76
13, 27840, Note_on_c, 15, 71, 76
13, 27840, Note_on_c, 15, 78, 76
13, 27840, Note_on_c, 15, 74, 76
13, 28079, Note_on_c, 15, 59, 0
13, 28079, Note_on_c, 15, 71, 0
13, 28079, Note_on_c, 15, 78, 0
13, 28079, Note_on_c, 15, 74, 0
13, 28080, Note_on_c, 15, 62, 76
13, 28080, Note_on_c, 15, 66, 76
13, 28080, Note_on_c, 15, 59, 76
13, 28080, Note_on_c, 15, 47, 76
13, 28319, Note_on_c, 15, 62, 0
13, 28319, Note_on_c, 15, 66, 0
13, 28319, Note_on_c, 15, 59, 0
13, 28319, Note_on_c, 15, 47, 0
13, 28320, Note_on_c, 15, 45, 76
13, 28320, Note_on_c, 15, 57, 76
13, 28320, Note_on_c, 15, 60, 76
13, 28320, Note_on_c, 15, 64, 76
13, 28559, Note_on_c, 15, 45, 0
13, 28559, Note_on_c, 15, 57, 0
13, 28559, Note_on_c, 15, 60, 0
13, 28559, Note_on_c, 15, 64, 0
13, 28560, Note_on_c, 15, 43, 76
13, 28560, Note_on_c, 15, 62, 76
13, 28560, Note_on_c, 15, 59, 76
13, 28560, Note_on_c, 15, 55, 76
13, 28799, Note_on_c, 15, 43, 0
13, 28799, Note_on_c, 15, 62, 0
13, 28799, Note_on_c, 15, 59, 0
13, 28799, Note_on_c, 15, 55, 0
13, 28800, Note_on_c, 15, 57, 76
13, 28800, Note_on_c, 15, 54, 76
13, 28800, Note_on_c, 15, 60, 76
13, 28800, Note_on_c, 15, 42, 76
13, 29039, Note_on_c, 15, 57, 0
13, 29039, Note_on_c, 15, 54, 0
13, 29039, Note_on_c, 15, 60, 0
13, 29039, Note_on_c, 15, 42, 0
13, 29040, Note_on_c, 15, 62, 76
13, 29040, Note_on_c, 15, 55, 76
13, 29040, Note_on_c, 15, 43, 76
13, 29040, Note_on_c, 15, 59, 76
13, 29219, Note_on_c, 15, 62, 0
13, 29219, Note_on_c, 15, 55, 0
13, 29219, Note_on_c, 15, 43, 0
13, 29219, Note_on_c, 15, 59, 0
13, 29220, Note_on_c, 15, 64, 76
13, 29220, Note_on_c, 15, 67, 76
13, 29220, Note_on_c, 15, 60, 76
13, 29220, Note_on_c, 15, 48, 76
13, 29279, Note_on_c, 15, 64, 0
13, 29279, Note_on_c, 15, 67, 0
13, 29279, Note_on_c, 15, 60, 0
13, 29279, Note_on_c, 15, 48, 0
13, 29280, Note_on_c, 15, 50, 76
13, 29280, Note_on_c, 15, 66, 76
13, 29280, Note_on_c, 15, 69, 76
13, 29280, Note_on_c, 15, 62, 76
13, 29519, Note_on_c, 15, 50, 0
13, 29519, Note_on_c, 15, 66, 0
13, 29519, Note_on_c, 15, 69, 0
13, 29519, Note_on_c, 15, 62, 0
13, 29520, Note_on_c, 15, 57, 76
13, 29520, Note_on_c, 15, 50, 76
13, 29520, Note_on_c, 15, 38, 76
13, 29520, Note_on_c, 15, 54, 76
13, 29759, Note_on_c, 15, 57, 0
13, 29759, Note_on_c, 15, 50, 0
13, 29759, Note_on_c, 15, 38, 0
13, 29759, Note_on_c, 15, 54, 0
13, 29760, Note_on_c, 15, 59, 76
13, 29760, Note_on_c, 15, 43, 76
13, 29760, Note_on_c, 15, 55, 76
13, 29760, Note_on_c, 15, 62, 76
13, 29999, Note_on_c, 15, 59, 0
13, 29999, Note_on_c, 15, 43, 0
13, 29999, Note_on_c, 15, 55, 0
13, 29999, Note_on_c, 15, 62, 0
13, 34200, Note_on_c, 15, 76, 76
13, 34200, Note_on_c, 15, 72, 76
13, 34200, Note_on_c, 15, 60, 76
13, 34200, Note_on_c, 15, 79, 76
13, 34319, Note_on_c, 15, 76, 0
13, 34319, Note_on_c, 15, 72, 0
13, 34319, Note_on_c, 15, 60, 0
13, 34319, Note_on_c, 15, 79, 0
13, 34320, Note_on_c, 15, 79, 76
13, 34320, Note_on_c, 15, 72, 76
13, 34320, Note_on_c, 15, 60, 76
13, 34320, Note_on_c, 15, 76, 76
13, 34439, Note_on_c, 15, 79, 0
13, 34439, Note_on_c, 15, 72, 0
13, 34439, Note_on_c, 15, 60, 0
13, 34439, Note_on_c, 15, 76, 0
13, 34440, Note_on_c, 15, 60, 76
13, 34440, Note_on_c, 15, 76, 76
13, 34440, Note_on_c, 15, 79, 76
13, 34440, Note_on_c, 15, 72, 76
13, 34559, Note_on_c, 15, 60, 0
13, 34559, Note_on_c, 15, 76, 0
13, 34559, Note_on_c, 15, 79, 0
13, 34559, Note_on_c, 15, 72, 0
13, 34560, Note_on_c, 15, 79, 76
13, 34560, Note_on_c, 15, 74, 76
13, 34560, Note_on_c, 15, 71, 76
13, 34560, Note_on_c, 15, 59, 76
13, 34679, Note_on_c, 15, 79, 0
13, 34679, Note_on_c, 15, 74, 0
13, 34679, Note_on_c, 15, 71, 0
13, 34679, Note_on_c, 15, 59, 0
13, 34680, Note_on_c, 15, 76, 76
13, 34680, Note_on_c, 15, 72, 76
13, 34680, Note_on_c, 15, 60, 76
13, 34680, Note_on_c, 15, 79, 76
13, 34739, Note_on_c, 15, 76, 0
13, 34739, Note_on_c, 15, 72, 0
13, 34739, Note_on_c, 15, 60, 0
13, 34739, Note_on_c, 15, 79, 0
13, 34740, Note_on_c, 15, 77, 76
13, 34740, Note_on_c, 15, 62, 76
13, 34740, Note_on_c, 15, 74, 76
13, 34740, Note_on_c, 15, 81, 76
13, 34799, Note_on_c, 15, 77, 0
13, 34799, Note_on_c, 15, 62, 0
13, 34799, Note_on_c, 15, 74, 0
13, 34799, Note_on_c, 15, 81, 0
13, 34800, Note_on_c, 15, 64, 76
13, 34800, Note_on_c, 15, 76, 76
13, 34800, Note_on_c, 15, 83, 76
13, 34800, Note_on_c, 15, 79, 76
13, 34919, Note_on_c, 15, 64, 0
13, 34919, Note_on_c, 15, 76, 0
13, 34919, Note_on_c, 15, 83, 0
13, 34919, Note_on_c, 15, 79, 0
13, 34920, Note_on_c, 15, 76, 76
13, 34920, Note_on_c, 15, 60, 76
13, 34920, Note_on_c, 15, 72, 76
13, 34920, Note_on_c, 15, 79, 76
13, 35039, Note_on_c, 15, 76, 0
13, 35039, Note_on_c, 15, 60, 0
13, 35039, Note_on_c, 15, 72, 0
13, 35039, Note_on_c, 15, 79, 0
13, 35040, Note_on_c, 15, 79, 76
13, 35040, Note_on_c, 15, 76, 76
13, 35040, Note_on_c, 15, 72, 76
13, 35040, Note_on_c, 15, 69, 76
13, 35040, Note_on_c, 15, 57, 76
13, 35159, Note_on_c, 15, 79, 0
13, 35159, Note_on_c, 15, 76, 0
13, 35159, Note_on_c, 15, 72, 0
13, 35159, Note_on_c, 15, 69, 0
13, 35159, Note_on_c, 15, 57, 0
13, 35160, Note_on_c, 15, 62, 76
13, 35160, Note_on_c, 15, 74, 76
13, 35160, Note_on_c, 15, 78, 76
13, 35160, Note_on_c, 15, 81, 76
13, 35279, Note_on_c, 15, 62, 0
13, 35279, Note_on_c, 15, 74, 0
13, 35279, Note_on_c, 15, 78, 0
13, 35279, Note_on_c, 15, 81, 0
13, 35280, Note_on_c, 15, 69, 76
13, 35280, Note_on_c, 15, 50, 76
13, 35280, Note_on_c, 15, 66, 76
13, 35280, Note_on_c, 15, 62, 76
13, 35399, Note_on_c, 15, 69, 0
13, 35399, Note_on_c, 15, 50, 0
13, 35399, Note_on_c, 15, 66, 0
13, 35399, Note_on_c, 15, 62, 0
13, 35400, Note_on_c, 15, 76, 76
13, 35400, Note_on_c, 15, 79, 76
13, 35400, Note_on_c, 15, 72, 76
13, 35400, Note_on_c, 15, 60, 76
13, 35519, Note_on_c, 15, 76, 0
13, 35519, Note_on_c, 15, 79, 0
13, 35519, Note_on_c, 15, 72, 0
13, 35519, Note_on_c, 15, 60, 0
13, 35520, Note_on_c, 15, 74, 76
13, 35520, Note_on_c, 15, 71, 76
13, 35520, Note_on_c, 15, 79, 76
13, 35520, Note_on_c, 15, 59, 76
13, 35579, Note_on_c, 15, 74, 0
13, 35579, Note_on_c, 15, 71, 0
13, 35579, Note_on_c, 15, 79, 0
13, 35579, Note_on_c, 15, 59, 0
13, 35580, Note_on_c, 15, 57, 76
13, 35580, Note_on_c, 15, 72, 76
13, 35580, Note_on_c, 15, 76, 76
13, 35580, Note_on_c, 15, 69, 76
13, 35639, Note_on_c, 15, 57, 0
13, 35639, Note_on_c, 15, 72, 0
13, 35639, Note_on_c, 15, 76, 0
13, 35639, Note_on_c, 15, 69, 0
13, 35640, Note_on_c, 15, 71, 76
13, 35640, Note_on_c, 15, 67, 76
13, 35640, Note_on_c, 15, 74, 76
13, 35640, Note_on_c, 15, 55, 76
13, 35699, Note_on_c, 15, 71, 0
13, 35699, Note_on_c, 15, 67, 0
13, 35699, Note_on_c, 15, 74, 0
13, 35699, Note_on_c, 15, 55, 0
13, 35700, Note_on_c, 15, 72, 76
13, 35700, Note_on_c, 15, 69, 76
13, 35700, Note_on_c, 15, 57, 76
13, 35700, Note_on_c, 15, 76, 76
13, 35759, Note_on_c, 15, 72, 0
13, 35759, Note_on_c, 15, 69, 0
13, 35759, Note_on_c, 15, 57, 0
13, 35759, Note_on_c, 15, 76, 0
13, 35760, Note_on_c, 15, 77, 76
13, 35760, Note_on_c, 15, 74, 76
13, 35760, Note_on_c, 15, 59, 76
13, 35760, Note_on_c, 15, 71, 76
13, 35819, Note_on_c, 15, 77, 0
13, 35819, Note_on_c, 15, 74, 0
13, 35819, Note_on_c, 15, 59, 0
13, 35819, Note_on_c, 15, 71, 0
13, 35820, Note_on_c, 15, 71, 76
13, 35820, Note_on_c, 15, 55, 76
13, 35820, Note_on_c, 15, 74, 76
13, 35820, Note_on_c, 15, 67, 76
13, 35879, Note_on_c, 15, 71, 0
13, 35879, Note_on_c, 15, 55, 0
13, 35879, Note_on_c, 15, 74, 0
13, 35879, Note_on_c, 15, 67, 0
13, 35880, Note_on_c, 15, 69, 76
13, 35880, Note_on_c, 15, 72, 76
13, 35880, Note_on_c, 15, 57, 76
13, 35880, Note_on_c, 15, 76, 76
13, 35939, Note_on_c, 15, 69, 0
13, 35939, Note_on_c, 15, 72, 0
13, 35939, Note_on_c, 15, 57, 0
13, 35939, Note_on_c, 15, 76, 0
13, 35940, Note_on_c, 15, 59, 76
13, 35940, Note_on_c, 15, 71, 76
13, 35940, Note_on_c, 15, 77, 76
13, 35940, Note_on_c, 15, 74, 76
13, 35999, Note_on_c, 15, 59, 0
13, 35999, Note_on_c, 15, 71, 0
13, 35999, Note_on_c, 15, 77, 0
13, 35999, Note_on_c, 15, 74, 0
13, 36000, Note_on_c, 15, 79, 76
13, 36000, Note_on_c, 15, 60, 76
13, 36000, Note_on_c, 15, 76, 76
13, 36000, Note_on_c, 15, 72, 76
13, 36119, Note_on_c, 15, 79, 0
13, 36119, Note_on_c, 15, 60, 0
13, 36119, Note_on_c, 15, 76, 0
13, 36119, Note_on_c, 15, 72, 0
13, 36120, Note_on_c, 15, 71, 76
13, 36120, Note_on_c, 15, 55, 76
13, 36120, Note_on_c, 15, 67, 76
13, 36120, Note_on_c, 15, 74, 76
13, 36239, Note_on_c, 15, 71, 0
13, 36239, Note_on_c, 15, 55, 0
13, 36239, Note_on_c, 15, 67, 0
13, 36239, Note_on_c, 15, 74, 0
13, 36240, Note_on_c, 15, 60, 76
13, 36240, Note_on_c, 15, 76, 76
13, 36240, Note_on_c, 15, 72, 76
13, 36240, Note_on_c, 15, 81, 76
13, 36419, Note_on_c, 15, 60, 0
13, 36419, Note_on_c, 15, 76, 0
13, 36419, Note_on_c, 15, 72, 0
13, 36419, Note_on_c, 15, 81, 0
13, 36420, Note_on_c, 15, 76, 76
13, 36420, Note_on_c, 15, 60, 76
13, 36420, Note_on_c, 15, 72, 76
13, 36420, Note_on_c, 15, 79, 76
13, 36479, Note_on_c, 15, 76, 0
13, 36479, Note_on_c, 15, 60, 0
13, 36479, Note_on_c, 15, 72, 0
13, 36479, Note_on_c, 15, 79, 0
13, 36480, Note_on_c, 15, 74, 76
13, 36480, Note_on_c, 15, 81, 76
13, 36480, Note_on_c, 15, 60, 76
13, 36480, Note_on_c, 15, 77, 76
13, 36480, Note_on_c, 15, 72, 76
13, 36539, Note_on_c, 15, 74, 0
13, 36539, Note_on_c, 15, 81, 0
13, 36539, Note_on_c, 15, 60, 0
13, 36539, Note_on_c, 15, 77, 0
13, 36539, Note_on_c, 15, 72, 0
13, 36540, Note_on_c, 15, 77, 76
13, 36540, Note_on_c, 15, 74, 76
13, 36540, Note_on_c, 15, 71, 76
13, 36540, Note_on_c, 15, 59, 76
13, 36599, Note_on_c, 15, 77, 0
13, 36599, Note_on_c, 15, 74, 0
13, 36599, Note_on_c, 15, 71, 0
13, 36599, Note_on_c, 15, 59, 0
13, 36600, Note_on_c, 15, 76, 76
13, 36600, Note_on_c, 15, 72, 76
13, 36600, Note_on_c, 15, 79, 76
13, 36600, Note_on_c, 15, 60, 76
13, 36659, Note_on_c, 15, 76, 0
13, 36659, Note_on_c, 15, 72, 0
13, 36659, Note_on_c, 15, 79, 0
13, 36659, Note_on_c, 15, 60, 0
13, 36660, Note_on_c, 15, 69, 76
13, 36660, Note_on_c, 15, 57, 76
13, 36660, Note_on_c, 15, 76, 76
13, 36660, Note_on_c, 15, 72, 76
13, 36719, Note_on_c, 15, 69, 0
13, 36719, Note_on_c, 15, 57, 0
13, 36719, Note_on_c, 15, 76, 0
13, 36719, Note_on_c, 15, 72, 0
13, 36720, Note_on_c, 15, 71, 76
13, 36720, Note_on_c, 15, 79, 76
13, 36720, Note_on_c, 15, 74, 76
13, 36720, Note_on_c, 15, 59, 76
13, 36899, Note_on_c, 15, 71, 0
13, 36899, Note_on_c, 15, 79, 0
13, 36899, Note_on_c, 15, 74, 0
13, 36899, Note_on_c, 15, 59, 0
13, 36900, Note_on_c, 15, 77, 76
13, 36900, Note_on_c, 15, 74, 76
13, 36900, Note_on_c, 15, 71, 76
13, 36900, Note_on_c, 15, 59, 76
13, 36959, Note_on_c, 15, 77, 0
13, 36959, Note_on_c, 15, 74, 0
13, 36959, Note_on_c, 15, 71, 0
13, 36959, Note_on_c, 15, 59, 0
13, 36960, Note_on_c, 15, 59, 76
13, 36960, Note_on_c, 15, 79, 76
13, 36960, Note_on_c, 15, 76, 76
13, 36960, Note_on_c, 15, 71, 76
13, 36960, Note_on_c, 15, 72, 76
13, 37079, Note_on_c, 15, 59, 0
13, 37079, Note_on_c, 15, 79, 0
13, 37079, Note_on_c, 15, 76, 0
13, 37079, Note_on_c, 15, 71, 0
13, 37079, Note_on_c, 15, 72, 0
13, 37080, Note_on_c, 15, 64, 76
13, 37080, Note_on_c, 15, 71, 76
13, 37080, Note_on_c, 15, 67, 76
13, 37080, Note_on_c, 15, 52, 76
13, 37199, Note_on_c, 15, 64, 0
13, 37199, Note_on_c, 15, 71, 0
13, 37199, Note_on_c, 15, 67, 0
13, 37199, Note_on_c, 15, 52, 0
13, 37200, Note_on_c, 15, 77, 76
13, 37200, Note_on_c, 15, 57, 76
13, 37200, Note_on_c, 15, 72, 76
13, 37200, Note_on_c, 15, 69, 76
13, 37379, Note_on_c, 15, 77, 0
13, 37379, Note_on_c, 15, 57, 0
13, 37379, Note_on_c, 15, 72, 0
13, 37379, Note_on_c, 15, 69, 0
13, 37380, Note_on_c, 15, 69, 76
13, 37380, Note_on_c, 15, 76, 76
13, 37380, Note_on_c, 15, 57, 76
13, 37380, Note_on_c, 15, 72, 76
13, 37439, Note_on_c, 15, 69, 0
13, 37439, Note_on_c, 15, 76, 0
13, 37439, Note_on_c, 15, 57, 0
13, 37439, Note_on_c, 15, 72, 0
13, 37440, Note_on_c, 15, 71, 76
13, 37440, Note_on_c, 15, 74, 76
13, 37440, Note_on_c, 15, 69, 76
13, 37440, Note_on_c, 15, 57, 76
13, 37440, Note_on_c, 15, 77, 76
13, 37499, Note_on_c, 15, 71, 0
13, 37499, Note_on_c, 15, 74, 0
13, 37499, Note_on_c, 15, 69, 0
13, 37499, Note_on_c, 15, 57, 0
13, 37499, Note_on_c, 15, 77, 0
13, 37500, Note_on_c, 15, 67, 76
13, 37500, Note_on_c, 15, 55, 76
13, 37500, Note_on_c, 15, 71, 76
13, 37500, Note_on_c, 15, 74, 76
13, 37559, Note_on_c, 15, 67, 0
13, 37559, Note_on_c, 15, 55, 0
13, 37559, Note_on_c, 15, 71, 0
13, 37559, Note_on_c, 15, 74, 0
13, 37560, Note_on_c, 15, 69, 76
13, 37560, Note_on_c, 15, 76, 76
13, 37560, Note_on_c, 15, 72, 76
13, 37560, Note_on_c, 15, 57, 76
13, 37619, Note_on_c, 15, 69, 0
13, 37619, Note_on_c, 15, 76, 0
13, 37619, Note_on_c, 15, 72, 0
13, 37619, Note_on_c, 15, 57, 0
13, 37620, Note_on_c, 15, 69, 76
13, 37620, Note_on_c, 15, 65, 76
13, 37620, Note_on_c, 15, 72, 76
13, 37620, Note_on_c, 15, 53, 76
13, 37679, Note_on_c, 15, 69, 0
13, 37679, Note_on_c, 15, 65, 0
13, 37679, Note_on_c, 15, 72, 0
13, 37679, Note_on_c, 15, 53, 0
13, 37680, Note_on_c, 15, 67, 76
13, 37680, Note_on_c, 15, 55, 76
13, 37680, Note_on_c, 15, 76, 76
13, 37680, Note_on_c, 15, 71, 76
13, 37859, Note_on_c, 15, 67, 0
13, 37859, Note_on_c, 15, 55, 0
13, 37859, Note_on_c, 15, 76, 0
13, 37859, Note_on_c, 15, 71, 0
13, 37860, Note_on_c, 15, 71, 76
13, 37860, Note_on_c, 15, 67, 76
13, 37860, Note_on_c, 15, 55, 76
13, 37860, Note_on_c, 15, 74, 76
13, 37919, Note_on_c, 15, 71, 0
13, 37919, Note_on_c, 15, 67, 0
13, 37919, Note_on_c, 15, 55, 0
13, 37919, Note_on_c, 15, 74, 0
13, 37920, Note_on_c, 15, 69, 76
13, 37920, Note_on_c, 15, 76, 76
13, 37920, Note_on_c, 15, 55, 76
13, 37920, Note_on_c, 15, 67, 76
13, 37920, Note_on_c, 15, 72, 76
13, 38039, Note_on_c, 15, 69, 0
13, 38039, Note_on_c, 15, 76, 0
13, 38039, Note_on_c, 15, 55, 0
13, 38039, Note_on_c, 15, 67, 0
13, 38039, Note_on_c, 15, 72, 0
13, 38040, Note_on_c, 15, 60, 76
13, 38040, Note_on_c, 15, 48, 76
13, 38040, Note_on_c, 15, 67, 76
13, 38040, Note_on_c, 15, 64, 76
13, 38159, Note_on_c, 15, 60, 0
13, 38159, Note_on_c, 15, 48, 0
13, 38159, Note_on_c, 15, 67, 0
13, 38159, Note_on_c, 15, 64, 0
13, 38160, Note_on_c, 15, 53, 76
13, 38160, Note_on_c, 15, 65, 76
13, 38160, Note_on_c, 15, 74, 76
13, 38160, Note_on_c, 15, 69, 76
13, 38339, Note_on_c, 15, 53, 0
13, 38339, Note_on_c, 15, 65, 0
13, 38339, Note_on_c, 15, 74, 0
13, 38339, Note_on_c, 15, 69, 0
13, 38340, Note_on_c, 15, 65, 76
13, 38340, Note_on_c, 15, 72, 76
13, 38340, Note_on_c, 15, 69, 76
13, 38340, Note_on_c, 15, 53, 76
13, 38399, Note_on_c, 15, 65, 0
13, 38399, Note_on_c, 15, 72, 0
13, 38399, Note_on_c, 15, 69, 0
13, 38399, Note_on_c, 15, 53, 0
13, 38400, Note_on_c, 15, 74, 76
13, 38400, Note_on_c, 15, 53, 76
13, 38400, Note_on_c, 15, 65, 76
13, 38400, Note_on_c, 15, 71, 76
13, 38400, Note_on_c, 15, 67, 76
13, 38459, Note_on_c, 15, 74, 0
13, 38459, Note_on_c, 15, 53, 0
13, 38459, Note_on_c, 15, 65, 0
13, 38459, Note_on_c, 15, 71, 0
13, 38459, Note_on_c, 15, 67, 0
13, 38460, Note_on_c, 15, 67, 76
13, 38460, Note_on_c, 15, 52, 76
13, 38460, Note_on_c, 15, 64, 76
13, 38460, Note_on_c, 15, 71, 76
13, 38519, Note_on_c, 15, 67, 0
13, 38519, Note_on_c, 15, 52, 0
13, 38519, Note_on_c, 15, 64, 0
13, 38519, Note_on_c, 15, 71, 0
13, 38520, Note_on_c, 15, 65, 76
13, 38520, Note_on_c, 15, 72, 76
13, 38520, Note_on_c, 15, 53, 76
13, 38520, Note_on_c, 15, 69, 76
13, 38579, Note_on_c, 15, 65, 0
13, 38579, Note_on_c, 15, 72, 0
13, 38579, Note_on_c, 15, 53, 0
13, 38579, Note_on_c, 15, 69, 0
13, 38580, Note_on_c, 15, 50, 76
13, 38580, Note_on_c, 15, 69, 76
13, 38580, Note_on_c, 15, 65, 76
13, 38580, Note_on_c, 15, 62, 76
13, 38639, Note_on_c, 15, 50, 0
13, 38639, Note_on_c, 15, 69, 0
13, 38639, Note_on_c, 15, 65, 0
13, 38639, Note_on_c, 15, 62, 0
13, 38640, Note_on_c, 15, 64, 76
13, 38640, Note_on_c, 15, 52, 76
13, 38640, Note_on_c, 15, 71, 76
13, 38640, Note_on_c, 15, 67, 76
13, 38699, Note_on_c, 15, 64, 0
13, 38699, Note_on_c, 15, 52, 0
13, 38699, Note_on_c, 15, 71, 0
13, 38699, Note_on_c, 15, 67, 0
13, 38700, Note_on_c, 15, 69, 76
13, 38700, Note_on_c, 15, 65, 76
13, 38700, Note_on_c, 15, 72, 76
13, 38700, Note_on_c, 15, 53, 76
13, 38759, Note_on_c, 15, 69, 0
13, 38759, Note_on_c, 15, 65, 0
13, 38759, Note_on_c, 15, 72, 0
13, 38759, Note_on_c, 15, 53, 0
13, 38760, Note_on_c, 15, 74, 76
13, 38760, Note_on_c, 15, 71, 76
13, 38760, Note_on_c, 15, 55, 76
13, 38760, Note_on_c, 15, 67, 76
13, 38819, Note_on_c, 15, 74, 0
13, 38819, Note_on_c, 15, 71, 0
13, 38819, Note_on_c, 15, 55, 0
13, 38819, Note_on_c, 15, 67, 0
13, 38820, Note_on_c, 15, 64, 76
13, 38820, Note_on_c, 15, 67, 76
13, 38820, Note_on_c, 15, 71, 76
13, 38820, Note_on_c, 15, 52, 76
13, 38879, Note_on_c, 15, 64, 0
13, 38879, Note_on_c, 15, 67, 0
13, 38879, Note_on_c, 15, 71, 0
13, 38879, Note_on_c, 15, 52, 0
13, 38880, Note_on_c, 15, 69, 76
13, 38880, Note_on_c, 15, 72, 76
13, 38880, Note_on_c, 15, 57, 76
13, 38880, Note_on_c, 15, 76, 76
13, 38939, Note_on_c, 15, 69, 0
13, 38939, Note_on_c, 15, 72, 0
13, 38939, Note_on_c, 15, 57, 0
13, 38939, Note_on_c, 15, 76, 0
13, 38940, Note_on_c, 15, 70, 76
13, 38940, Note_on_c, 15, 74, 76
13, 38940, Note_on_c, 15, 77, 76
13, 38940, Note_on_c, 15, 58, 76
13, 38999, Note_on_c, 15, 70, 0
13, 38999, Note_on_c, 15, 74, 0
13, 38999, Note_on_c, 15, 77, 0
13, 38999, Note_on_c, 15, 58, 0
13, 39000, Note_on_c, 15, 76, 76
13, 39000, Note_on_c, 15, 72, 76
13, 39000, Note_on_c, 15, 69, 76
13, 39000, Note_on_c, 15, 57, 76
13, 39059, Note_on_c, 15, 76, 0
13, 39059, Note_on_c, 15, 72, 0
13, 39059, Note_on_c, 15, 69, 0
13, 39059, Note_on_c, 15, 57, 0
13, 39060, Note_on_c, 15, 67, 76
13, 39060, Note_on_c, 15, 71, 76
13, 39060, Note_on_c, 15, 74, 76
13, 39060, Note_on_c, 15, 55, 76
13, 39119, Note_on_c, 15, 67, 0
13, 39119, Note_on_c, 15, 71, 0
13, 39119, Note_on_c, 15, 74, 0
13, 39119, Note_on_c, 15, 55, 0
13, 39120, Note_on_c, 15, 69, 76
13, 39120, Note_on_c, 15, 53, 76
13, 39120, Note_on_c, 15, 65, 76
13, 39179, Note_on_c, 15, 69, 0
13, 39179, Note_on_c, 15, 53, 0
13, 39179, Note_on_c, 15, 65, 0
13, 39180, Note_on_c, 15, 52, 76
13, 39180, Note_on_c, 15, 67, 76
13, 39180, Note_on_c, 15, 64, 76
13, 39180, Note_on_c, 15, 71, 76
13, 39239, Note_on_c, 15, 52, 0
13, 39239, Note_on_c, 15, 67, 0
13, 39239, Note_on_c, 15, 64, 0
13, 39239, Note_on_c, 15, 71, 0
13, 39240, Note_on_c, 15, 62, 76
13, 39240, Note_on_c, 15, 65, 76
13, 39240, Note_on_c, 15, 50, 76
13, 39299, Note_on_c, 15, 62, 0
13, 39299, Note_on_c, 15, 65, 0
13, 39299, Note_on_c, 15, 50, 0
13, 39300, Note_on_c, 15, 48, 76
13, 39300, Note_on_c, 15, 60, 76
13, 39300, Note_on_c, 15, 67, 76
13, 39300, Note_on_c, 15, 64, 76
13, 39359, Note_on_c, 15, 48, 0
13, 39359, Note_on_c, 15, 60, 0
13, 39359, Note_on_c, 15, 67, 0
13, 39359, Note_on_c, 15, 64, 0
13, 39360, Note_on_c, 15, 47, 76
13, 39360, Note_on_c, 15, 62, 76
13, 39360, Note_on_c, 15, 59, 76
13, 39360, Note_on_c, 15, 67, 76
13, 39419, Note_on_c, 15, 47, 0
13, 39419, Note_on_c, 15, 62, 0
13, 39419, Note_on_c, 15, 59, 0
13, 39419, Note_on_c, 15, 67, 0
13, 39420, Note_on_c, 15, 60, 76
13, 39420, Note_on_c, 15, 45, 76
13, 39420, Note_on_c, 15, 64, 76
13, 39420, Note_on_c, 15, 57, 76
13, 39479, Note_on_c, 15, 60, 0
13, 39479, Note_on_c, 15, 45, 0
13, 39479, Note_on_c, 15, 64, 0
13, 39479, Note_on_c, 15, 57, 0
13, 39480, Note_on_c, 15, 55, 76
13, 39480, Note_on_c, 15, 43, 76
13, 39480, Note_on_c, 15, 62, 76
13, 39480, Note_on_c, 15, 59, 76
13, 39539, Note_on_c, 15, 55, 0
13, 39539, Note_on_c, 15, 43, 0
13, 39539, Note_on_c, 15, 62, 0
13, 39539, Note_on_c, 15, 59, 0
13, 39540, Note_on_c, 15, 57, 76
13, 39540, Note_on_c, 15, 64, 76
13, 39540, Note_on_c, 15, 45, 76
13, 39540, Note_on_c, 15, 60, 76
13, 39599, Note_on_c, 15, 57, 0
13, 39599, Note_on_c, 15, 64, 0
13, 39599, Note_on_c, 15, 45, 0
13, 39599, Note_on_c, 15, 60, 0
13, 39600, Note_on_c, 15, 47, 76
13, 39600, Note_on_c, 15, 67, 76
13, 39600, Note_on_c, 15, 59, 76
13, 39600, Note_on_c, 15, 62, 76
13, 39659, Note_on_c, 15, 47, 0
13, 39659, Note_on_c, 15, 67, 0
13, 39659, Note_on_c, 15, 59, 0
13, 39659, Note_on_c, 15, 62, 0
13, 39660, Note_on_c, 15, 64, 76
13, 39660, Note_on_c, 15, 57, 76
13, 39660, Note_on_c, 15, 45, 76
13, 39660, Note_on_c, 15, 60, 76
13, 39719, Note_on_c, 15, 64, 0
13, 39719, Note_on_c, 15, 57, 0
13, 39719, Note_on_c, 15, 45, 0
13, 39719, Note_on_c, 15, 60, 0
13, 39720, Note_on_c, 15, 59, 76
13, 39720, Note_on_c, 15, 47, 76
13, 39720, Note_on_c, 15, 62, 76
13, 39720, Note_on_c, 15, 65, 76
13, 39779, Note_on_c, 15, 59, 0
13, 39779, Note_on_c, 15, 47, 0
13, 39779, Note_on_c, 15, 62, 0
13, 39779, Note_on_c, 15, 65, 0
13, 39780, Note_on_c, 15, 43, 76
13, 39780, Note_on_c, 15, 62, 76
13, 39780, Note_on_c, 15, 59, 76
13, 39780, Note_on_c, 15, 55, 76
13, 39839, Note_on_c, 15, 43, 0
13, 39839, Note_on_c, 15, 62, 0
13, 39839, Note_on_c, 15, 59, 0
13, 39839, Note_on_c, 15, 55, 0
13, 39840, Note_on_c, 15, 60, 76
13, 39840, Note_on_c, 15, 64, 76
13, 39840, Note_on_c, 15, 48, 76
13, 39840, Note_on_c, 15, 67, 76
13, 39959, Note_on_c, 15, 60, 0
13, 39959, Note_on_c, 15, 64, 0
13, 39959, Note_on_c, 15, 48, 0
13, 39959, Note_on_c, 15, 67, 0
13, 39960, Note_on_c, 15, 53, 76
13, 39960, Note_on_c, 15, 65, 76
13, 39960, Note_on_c, 15, 72, 76
13, 39960, Note_on_c, 15, 69, 76
13, 40079, Note_on_c, 15, 53, 0
13, 40079, Note_on_c, 15, 65, 0
13, 40079, Note_on_c, 15, 72, 0
13, 40079, Note_on_c, 15, 69, 0
13, 40080, Note_on_c, 15, 67, 76
13, 40080, Note_on_c, 15, 55, 76
13, 40080, Note_on_c, 15, 71, 76
13, 40080, Note_on_c, 15, 74, 76
13, 40199, Note_on_c, 15, 67, 0
13, 40199, Note_on_c, 15, 55, 0
13, 40199, Note_on_c, 15, 71, 0
13, 40199, Note_on_c, 15, 74, 0
13, 40200, Note_on_c, 15, 62, 76
13, 40200, Note_on_c, 15, 59, 76
13, 40200, Note_on_c, 15, 43, 76
13, 40200, Note_on_c, 15, 55, 76
13, 40319, Note_on_c, 15, 62, 0
13, 40319, Note_on_c, 15, 59, 0
13, 40319, Note_on_c, 15, 43, 0
13, 40319, Note_on_c, 15, 55, 0
13, 40320, Note_on_c, 15, 64, 76
13, 40320, Note_on_c, 15, 67, 76
13, 40320, Note_on_c, 15, 48, 76
13, 40320, Note_on_c, 15, 60, 76
13, 40439, Note_on_c, 15, 64, 0
13, 40439, Note_on_c, 15, 67, 0
13, 40439, Note_on_c, 15, 48, 0
13, 40439, Note_on_c, 15, 60, 0
13, 46620, Note_on_c, 15, 60, 76
13, 46620, Note_on_c, 15, 72, 76
13, 46620, Note_on_c, 15, 79, 76
13, 46620, Note_on_c, 15, 76, 76
13, 46679, Note_on_c, 15, 60, 0
13, 46679, Note_on_c, 15, 72, 0
13, 46679, Note_on_c, 15, 79, 0
13, 46679, Note_on_c, 15, 76, 0
13, 46680, Note_on_c, 15, 71, 76
13, 46680, Note_on_c, 15, 74, 76
13, 46680, Note_on_c, 15, 78, 76
13, 46680, Note_on_c, 15, 59, 76
13, 46739, Note_on_c, 15, 71, 0
13, 46739, Note_on_c, 15, 74, 0
13, 46739, Note_on_c, 15, 78, 0
13, 46739, Note_on_c, 15, 59, 0
13, 46740, Note_on_c, 15, 57, 76
13, 46740, Note_on_c, 15, 72, 76
13, 46740, Note_on_c, 15, 69, 76
13, 46740, Note_on_c, 15, 76, 76
13, 46799, Note_on_c, 15, 57, 0
13, 46799, Note_on_c, 15, 72, 0
13, 46799, Note_on_c, 15, 69, 0
13, 46799, Note_on_c, 15, 76, 0
13, 46800, Note_on_c, 15, 68, 76
13, 46800, Note_on_c, 15, 74, 76
13, 46800, Note_on_c, 15, 71, 76
13, 46800, Note_on_c, 15, 56, 76
13, 46859, Note_on_c, 15, 68, 0
13, 46859, Note_on_c, 15, 74, 0
13, 46859, Note_on_c, 15, 71, 0
13, 46859, Note_on_c, 15, 56, 0
13, 46860, Note_on_c, 15, 69, 76
13, 46860, Note_on_c, 15, 76, 76
13, 46860, Note_on_c, 15, 72, 76
13, 46860, Note_on_c, 15, 57, 76
13, 46919, Note_on_c, 15, 69, 0
13, 46919, Note_on_c, 15, 76, 0
13, 46919, Note_on_c, 15, 72, 0
13, 46919, Note_on_c, 15, 57, 0
13, 46920, Note_on_c, 15, 56, 76
13, 46920, Note_on_c, 15, 74, 76
13, 46920, Note_on_c, 15, 71, 76
13, 46920, Note_on_c, 15, 68, 76
13, 46979, Note_on_c, 15, 56, 0
13, 46979, Note_on_c, 15, 74, 0
13, 46979, Note_on_c, 15, 71, 0
13, 46979, Note_on_c, 15, 68, 0
13, 46980, Note_on_c, 15, 69, 76
13, 46980, Note_on_c, 15, 66, 76
13, 46980, Note_on_c, 15, 54, 76
13, 46980, Note_on_c, 15, 72, 76
13, 47039, Note_on_c, 15, 69, 0
13, 47039, Note_on_c, 15, 66, 0
13, 47039, Note_on_c, 15, 54, 0
13, 47039, Note_on_c, 15, 72, 0
13, 47040, Note_on_c, 15, 68, 76
13, 47040, Note_on_c, 15, 52, 76
13, 47040, Note_on_c, 15, 64, 76
13, 47040, Note_on_c, 15, 71, 76
13, 47099, Note_on_c, 15, 68, 0
13, 47099, Note_on_c, 15, 52, 0
13, 47099, Note_on_c, 15, 64, 0
13, 47099, Note_on_c, 15, 71, 0
13, 47100, Note_on_c, 15, 77, 76
13, 47100, Note_on_c, 15, 62, 76
13, 47100, Note_on_c, 15, 74, 76
13, 47100, Note_on_c, 15, 81, 76
13, 47159, Note_on_c, 15, 77, 0
13, 47159, Note_on_c, 15, 62, 0
13, 47159, Note_on_c, 15, 74, 0
13, 47159, Note_on_c, 15, 81, 0
13, 47160, Note_on_c, 15, 80, 76
13, 47160, Note_on_c, 15, 72, 76
13, 47160, Note_on_c, 15, 60, 76
13, 47160, Note_on_c, 15, 76, 76
13, 47219, Note_on_c, 15, 80, 0
13, 47219, Note_on_c, 15, 72, 0
13, 47219, Note_on_c, 15, 60, 0
13, 47219, Note_on_c, 15, 76, 0
13, 47220, Note_on_c, 15, 77, 76
13, 47220, Note_on_c, 15, 71, 76
13, 47220, Note_on_c, 15, 74, 76
13, 47220, Note_on_c, 15, 59, 76
13, 47279, Note_on_c, 15, 77, 0
13, 47279, Note_on_c, 15, 71, 0
13, 47279, Note_on_c, 15, 74, 0
13, 47279, Note_on_c, 15, 59, 0
13, 47280, Note_on_c, 15, 57, 76
13, 47280, Note_on_c, 15, 76, 76
13, 47280, Note_on_c, 15, 69, 76
13, 47280, Note_on_c, 15, 72, 76
13, 47339, Note_on_c, 15, 57, 0
13, 47339, Note_on_c, 15, 76, 0
13, 47339, Note_on_c, 15, 69, 0
13, 47339, Note_on_c, 15, 72, 0
13, 47340, Note_on_c, 15, 74, 76
13, 47340, Note_on_c, 15, 71, 76
13, 47340, Note_on_c, 15, 59, 76
13, 47340, Note_on_c, 15, 77, 76
13, 47399, Note_on_c, 15, 74, 0
13, 47399, Note_on_c, 15, 71, 0
13, 47399, Note_on_c, 15, 59, 0
13, 47399, Note_on_c, 15, 77, 0
13, 47400, Note_on_c, 15, 72, 76
13, 47400, Note_on_c, 15, 69, 76
13, 47400, Note_on_c, 15, 57, 76
13, 47400, Note_on_c, 15, 76, 76
13, 47459, Note_on_c, 15, 72, 0
13, 47459, Note_on_c, 15, 69, 0
13, 47459, Note_on_c, 15, 57, 0
13, 47459, Note_on_c, 15, 76, 0
13, 47460, Note_on_c, 15, 74, 76
13, 47460, Note_on_c, 15, 67, 76
13, 47460, Note_on_c, 15, 55, 76
13, 47460, Note_on_c, 15, 71, 76
13, 47519, Note_on_c, 15, 74, 0
13, 47519, Note_on_c, 15, 67, 0
13, 47519, Note_on_c, 15, 55, 0
13, 47519, Note_on_c, 15, 71, 0
13, 47520, Note_on_c, 15, 72, 76
13, 47520, Note_on_c, 15, 69, 76
13, 47520, Note_on_c, 15, 65, 76
13, 47520, Note_on_c, 15, 53, 76
13, 47579, Note_on_c, 15, 72, 0
13, 47579, Note_on_c, 15, 69, 0
13, 47579, Note_on_c, 15, 65, 0
13, 47579, Note_on_c, 15, 53, 0
13, 47580, Note_on_c, 15, 67, 76
13, 47580, Note_on_c, 15, 64, 76
13, 47580, Note_on_c, 15, 52, 76
13, 47580, Note_on_c, 15, 71, 76
13, 47639, Note_on_c, 15, 67, 0
13, 47639, Note_on_c, 15, 64, 0
13, 47639, Note_on_c, 15, 52, 0
13, 47639, Note_on_c, 15, 71, 0
13, 47640, Note_on_c, 15, 74, 76
13, 47640, Note_on_c, 15, 53, 76
13, 47640, Note_on_c, 15, 65, 76
13, 47640, Note_on_c, 15, 69, 76
13, 47699, Note_on_c, 15, 74, 0
13, 47699, Note_on_c, 15, 53, 0
13, 47699, Note_on_c, 15, 65, 0
13, 47699, Note_on_c, 15, 69, 0
13, 47700, Note_on_c, 15, 62, 76
13, 47700, Note_on_c, 15, 69, 76
13, 47700, Note_on_c, 15, 65, 76
13, 47700, Note_on_c, 15, 50, 76
13, 47759, Note_on_c, 15, 62, 0
13, 47759, Note_on_c, 15, 69, 0
13, 47759, Note_on_c, 15, 65, 0
13, 47759, Note_on_c, 15, 50, 0
13, 47760, Note_on_c, 15, 52, 76
13, 47760, Note_on_c, 15, 71, 76
13, 47760, Note_on_c, 15, 64, 76
13, 47760, Note_on_c, 15, 68, 76
13, 47879, Note_on_c, 15, 52, 0
13, 47879, Note_on_c, 15, 71, 0
13, 47879, Note_on_c, 15, 64, 0
13, 47879, Note_on_c, 15, 68, 0
13, 47880, Note_on_c, 15, 52, 76
13, 47880, Note_on_c, 15, 56, 76
13, 47880, Note_on_c, 15, 40, 76
13, 47880, Note_on_c, 15, 59, 76
13, 47999, Note_on_c, 15, 52, 0
13, 47999, Note_on_c, 15, 56, 0
13, 47999, Note_on_c, 15, 40, 0
13, 47999, Note_on_c, 15, 59, 0
13, 48000, Note_on_c, 15, 45, 76
13, 48000, Note_on_c, 15, 57, 76
13, 48000, Note_on_c, 15, 64, 76
13, 48000, Note_on_c, 15, 60, 76
13, 48119, Note_on_c, 15, 45, 0
13, 48119, Note_on_c, 15, 57, 0
13, 48119, Note_on_c, 15, 64, 0
13, 48119, Note_on_c, 15, 60, 0
13, 48120, Note_on_c, 15, 76, 76
13, 48120, Note_on_c, 15, 72, 76
13, 48120, Note_on_c, 15, 57, 76
13, 48120, Note_on_c, 15, 69, 76
13, 48239, Note_on_c, 15, 76, 0
13, 48239, Note_on_c, 15, 72, 0
13, 48239, Note_on_c, 15, 57, 0
13, 48239, Note_on_c, 15, 69, 0
13, 48240, Note_on_c, 15, 72, 76
13, 48240, Note_on_c, 15, 57, 76
13, 48240, Note_on_c, 15, 76, 76
13, 48240, Note_on_c, 15, 69, 76
13, 48359, Note_on_c, 15, 72, 0
13, 48359, Note_on_c, 15, 57, 0
13, 48359, Note_on_c, 15, 76, 0
13, 48359, Note_on_c, 15, 69, 0
13, 48360, Note_on_c, 15, 69, 76
13, 48360, Note_on_c, 15, 72, 76
13, 48360, Note_on_c, 15, 78, 76
13, 48360, Note_on_c, 15, 57, 76
13, 48479, Note_on_c, 15, 69, 0
13, 48479, Note_on_c, 15, 72, 0
13, 48479, Note_on_c, 15, 78, 0
13, 48479, Note_on_c, 15, 57, 0
13, 48480, Note_on_c, 15, 71, 76
13, 48480, Note_on_c, 15, 76, 76
13, 48480, Note_on_c, 15, 55, 76
13, 48480, Note_on_c, 15, 67, 76
13, 48599, Note_on_c, 15, 71, 0
13, 48599, Note_on_c, 15, 76, 0
13, 48599, Note_on_c, 15, 55, 0
13, 48599, Note_on_c, 15, 67, 0
13, 48600, Note_on_c, 15, 69, 76
13, 48600, Note_on_c, 15, 57, 76
13, 48600, Note_on_c, 15, 78, 76
13, 48600, Note_on_c, 15, 75, 76
13, 48659, Note_on_c, 15, 69, 0
13, 48659, Note_on_c, 15, 57, 0
13, 48659, Note_on_c, 15, 78, 0
13, 48659, Note_on_c, 15, 75, 0
13, 48660, Note_on_c, 15, 78, 76
13, 48660, Note_on_c, 15, 74, 76
13, 48660, Note_on_c, 15, 59, 76
13, 48660, Note_on_c, 15, 71, 76
13, 48719, Note_on_c, 15, 78, 0
13, 48719, Note_on_c, 15, 74, 0
13, 48719, Note_on_c, 15, 59, 0
13, 48719, Note_on_c, 15, 71, 0
13, 48720, Note_on_c, 15, 72, 76
13, 48720, Note_on_c, 15, 60, 76
13, 48720, Note_on_c, 15, 76, 76
13, 48839, Note_on_c, 15, 72, 0
13, 48839, Note_on_c, 15, 60, 0
13, 48839, Note_on_c, 15, 76, 0
13, 48840, Note_on_c, 15, 69, 76
13, 48840, Note_on_c, 15, 76, 76
13, 48840, Note_on_c, 15, 72, 76
13, 48840, Note_on_c, 15, 57, 76
13, 48959, Note_on_c, 15, 69, 0
13, 48959, Note_on_c, 15, 76, 0
13, 48959, Note_on_c, 15, 72, 0
13, 48959, Note_on_c, 15, 57, 0
13, 48960, Note_on_c, 15, 66, 76
13, 48960, Note_on_c, 15, 72, 76
13, 48960, Note_on_c, 15, 69, 76
13, 48960, Note_on_c, 15, 76, 76
13, 48960, Note_on_c, 15, 54, 76
13, 49079, Note_on_c, 15, 66, 0
13, 49079, Note_on_c, 15, 72, 0
13, 49079, Note_on_c, 15, 69, 0
13, 49079, Note_on_c, 15, 76, 0
13, 49079, Note_on_c, 15, 54, 0
13, 49080, Note_on_c, 15, 59, 76
13, 49080, Note_on_c, 15, 71, 76
13, 49080, Note_on_c, 15, 77, 76
13, 49080, Note_on_c, 15, 74, 76
13, 49199, Note_on_c, 15, 59, 0
13, 49199, Note_on_c, 15, 71, 0
13, 49199, Note_on_c, 15, 77, 0
13, 49199, Note_on_c, 15, 74, 0
13, 49200, Note_on_c, 15, 66, 76
13, 49200, Note_on_c, 15, 69, 76
13, 49200, Note_on_c, 15, 59, 76
13, 49200, Note_on_c, 15, 47, 76
13, 49200, Note_on_c, 15, 63, 76
13, 49319, Note_on_c, 15, 66, 0
13, 49319, Note_on_c, 15, 69, 0
13, 49319, Note_on_c, 15, 59, 0
13, 49319, Note_on_c, 15, 47, 0
13, 49319, Note_on_c, 15, 63, 0
13, 49320, Note_on_c, 15, 71, 76
13, 49320, Note_on_c, 15, 59, 76
13, 49320, Note_on_c, 15, 74, 76
13, 49320, Note_on_c, 15, 78, 76
13, 49439, Note_on_c, 15, 71, 0
13, 49439, Note_on_c, 15, 59, 0
13, 49439, Note_on_c, 15, 74, 0
13, 49439, Note_on_c, 15, 78, 0
13, 49440, Note_on_c, 15, 71, 76
13, 49440, Note_on_c, 15, 64, 76
13, 49440, Note_on_c, 15, 52, 76
13, 49440, Note_on_c, 15, 67, 76
13, 49679, Note_on_c, 15, 71, 0
13, 49679, Note_on_c, 15, 64, 0
13, 49679, Note_on_c, 15, 52, 0
13, 49679, Note_on_c, 15, 67, 0
13, 51000, Note_on_c, 15, 69, 76
13, 51000, Note_on_c, 15, 72, 76
13, 51000, Note_on_c, 15, 52, 76
13, 51000, Note_on_c, 15, 64, 76
13, 51119, Note_on_c, 15, 69, 0
13, 51119, Note_on_c, 15, 72, 0
13, 51119, Note_on_c, 15, 52, 0
13, 51119, Note_on_c, 15, 64, 0
13, 51120, Note_on_c, 15, 52, 76
13, 51120, Note_on_c, 15, 71, 76
13, 51120, Note_on_c, 15, 64, 76
13, 51120, Note_on_c, 15, 68, 76
13, 51239, Note_on_c, 15, 52, 0
13, 51239, Note_on_c, 15, 71, 0
13, 51239, Note_on_c, 15, 64, 0
13, 51239, Note_on_c, 15, 68, 0
13, 51240, Note_on_c, 15, 64, 76
13, 51240, Note_on_c, 15, 52, 76
13, 51240, Note_on_c, 15, 71, 76
13, 51240, Note_on_c, 15, 68, 76
13, 51359, Note_on_c, 15, 64, 0
13, 51359, Note_on_c, 15, 52, 0
13, 51359, Note_on_c, 15, 71, 0
13, 51359, Note_on_c, 15, 68, 0
13, 51360, Note_on_c, 15, 69, 76
13, 51360, Note_on_c, 15, 60, 76
13, 51360, Note_on_c, 15, 64, 76
13, 51360, Note_on_c, 15, 48, 76
13, 51479, Note_on_c, 15, 69, 0
13, 51479, Note_on_c, 15, 60, 0
13, 51479, Note_on_c, 15, 64, 0
13, 51479, Note_on_c, 15, 48, 0
13, 51480, Note_on_c, 15, 65, 76
13, 51480, Note_on_c, 15, 62, 76
13, 51480, Note_on_c, 15, 69, 76
13, 51480, Note_on_c, 15, 50, 76
13, 51539, Note_on_c, 15, 65, 0
13, 51539, Note_on_c, 15, 62, 0
13, 51539, Note_on_c, 15, 69, 0
13, 51539, Note_on_c, 15, 50, 0
13, 51540, Note_on_c, 15, 71, 76
13, 51540, Note_on_c, 15, 52, 76
13, 51540, Note_on_c, 15, 64, 76
13, 51540, Note_on_c, 15, 68, 76
13, 51599, Note_on_c, 15, 71, 0
13, 51599, Note_on_c, 15, 52, 0
13, 51599, Note_on_c, 15, 64, 0
13, 51599, Note_on_c, 15, 68, 0
13, 51600, Note_on_c, 15, 74, 76
13, 51600, Note_on_c, 15, 53, 76
13, 51600, Note_on_c, 15, 69, 76
13, 51600, Note_on_c, 15, 65, 76
13, 51719, Note_on_c, 15, 74, 0
13, 51719, Note_on_c, 15, 53, 0
13, 51719, Note_on_c, 15, 69, 0
13, 51719, Note_on_c, 15, 65, 0
13, 51720, Note_on_c, 15, 69, 76
13, 51720, Note_on_c, 15, 50, 76
13, 51720, Note_on_c, 15, 62, 76
13, 51720, Note_on_c, 15, 65, 76
13, 51839, Note_on_c, 15, 69, 0
13, 51839, Note_on_c, 15, 50, 0
13, 51839, Note_on_c, 15, 62, 0
13, 51839, Note_on_c, 15, 65, 0
13, 51840, Note_on_c, 15, 47, 76
13, 51840, Note_on_c, 15, 62, 76
13, 51840, Note_on_c, 15, 59, 76
13, 51840, Note_on_c, 15, 65, 76
13, 51840, Note_on_c, 15, 69, 76
13, 51959, Note_on_c, 15, 47, 0
13, 51959, Note_on_c, 15, 62, 0
13, 51959, Note_on_c, 15, 59, 0
13, 51959, Note_on_c, 15, 65, 0
13, 51959, Note_on_c, 15, 69, 0
13, 51960, Note_on_c, 15, 52, 76
13, 51960, Note_on_c, 15, 71, 76
13, 51960, Note_on_c, 15, 64, 76
13, 51960, Note_on_c, 15, 68, 76
13, 52079, Note_on_c, 15, 52, 0
13, 52079, Note_on_c, 15, 71, 0
13, 52079, Note_on_c, 15, 64, 0
13, 52079, Note_on_c, 15, 68, 0
13, 52080, Note_on_c, 15, 71, 76
13, 52080, Note_on_c, 15, 52, 76
13, 52080, Note_on_c, 15, 40, 76
13, 52080, Note_on_c, 15, 68, 76
13, 52199, Note_on_c, 15, 71, 0
13, 52199, Note_on_c, 15, 52, 0
13, 52199, Note_on_c, 15, 40, 0
13, 52199, Note_on_c, 15, 68, 0
13, 52200, Note_on_c, 15, 71, 76
13, 52200, Note_on_c, 15, 50, 76
13, 52200, Note_on_c, 15, 62, 76
13, 52200, Note_on_c, 15, 68, 76
13, 52319, Note_on_c, 15, 71, 0
13, 52319, Note_on_c, 15, 50, 0
13, 52319, Note_on_c, 15, 62, 0
13, 52319, Note_on_c, 15, 68, 0
13, 52320, Note_on_c, 15, 48, 76
13, 52320, Note_on_c, 15, 64, 76
13, 52320, Note_on_c, 15, 60, 76
13, 52320, Note_on_c, 15, 69, 76
13, 52379, Note_on_c, 15, 48, 0
13, 52379, Note_on_c, 15, 64, 0
13, 52379, Note_on_c, 15, 60, 0
13, 52379, Note_on_c, 15, 69, 0
13, 52380, Note_on_c, 15, 47, 76
13, 52380, Note_on_c, 15, 65, 76
13, 52380, Note_on_c, 15, 62, 76
13, 52380, Note_on_c, 15, 59, 76
13, 52439, Note_on_c, 15, 47, 0
13, 52439, Note_on_c, 15, 65, 0
13, 52439, Note_on_c, 15, 62, 0
13, 52439, Note_on_c, 15, 59, 0
13, 52440, Note_on_c, 15, 64, 76
13, 52440, Note_on_c, 15, 57, 76
13, 52440, Note_on_c, 15, 45, 76
13, 52440, Note_on_c, 15, 60, 76
13, 52499, Note_on_c, 15, 64, 0
13, 52499, Note_on_c, 15, 57, 0
13, 52499, Note_on_c, 15, 45, 0
13, 52499, Note_on_c, 15, 60, 0
13, 52500, Note_on_c, 15, 62, 76
13, 52500, Note_on_c, 15, 65, 76
13, 52500, Note_on_c, 15, 59, 76
13, 52500, Note_on_c, 15, 47, 76
13, 52559, Note_on_c, 15, 62, 0
13, 52559, Note_on_c, 15, 65, 0
13, 52559, Note_on_c, 15, 59, 0
13, 52559, Note_on_c, 15, 47, 0
13, 52560, Note_on_c, 15, 48, 76
13, 52560, Note_on_c, 15, 68, 76
13, 52560, Note_on_c, 15, 60, 76
13, 52560, Note_on_c, 15, 64, 76
13, 52619, Note_on_c, 15, 48, 0
13, 52619, Note_on_c, 15, 68, 0
13, 52619, Note_on_c, 15, 60, 0
13, 52619, Note_on_c, 15, 64, 0
13, 52620, Note_on_c, 15, 69, 76
13, 52620, Note_on_c, 15, 50, 76
13, 52620, Note_on_c, 15, 62, 76
13, 52620, Note_on_c, 15, 66, 76
13, 52679, Note_on_c, 15, 69, 0
13, 52679, Note_on_c, 15, 50, 0
13, 52679, Note_on_c, 15, 62, 0
13, 52679, Note_on_c, 15, 66, 0
13, 52680, Note_on_c, 15, 64, 76
13, 52680, Note_on_c, 15, 52, 76
13, 52680, Note_on_c, 15, 68, 76
13, 52680, Note_on_c, 15, 71, 76
13, 52739, Note_on_c, 15, 64, 0
13, 52739, Note_on_c, 15, 52, 0
13, 52739, Note_on_c, 15, 68, 0
13, 52739, Note_on_c, 15, 71, 0
13, 52740, Note_on_c, 15, 60, 76
13, 52740, Note_on_c, 15, 68, 76
13, 52740, Note_on_c, 15, 64, 76
13, 52740, Note_on_c, 15, 48, 76
13, 52799, Note_on_c, 15, 60, 0
13, 52799, Note_on_c, 15, 68, 0
13, 52799, Note_on_c, 15, 64, 0
13, 52799, Note_on_c, 15, 48, 0
13, 52800, Note_on_c, 15, 74, 76
13, 52800, Note_on_c, 15, 53, 76
13, 52800, Note_on_c, 15, 69, 76
13, 52800, Note_on_c, 15, 65, 76
13, 52859, Note_on_c, 15, 74, 0
13, 52859, Note_on_c, 15, 53, 0
13, 52859, Note_on_c, 15, 69, 0
13, 52859, Note_on_c, 15, 65, 0
13, 52860, Note_on_c, 15, 71, 76
13, 52860, Note_on_c, 15, 55, 76
13, 52860, Note_on_c, 15, 74, 76
13, 52860, Note_on_c, 15, 67, 76
13, 52919, Note_on_c, 15, 71, 0
13, 52919, Note_on_c, 15, 55, 0
13, 52919, Note_on_c, 15, 74, 0
13, 52919, Note_on_c, 15, 67, 0
13, 52920, Note_on_c, 15, 69, 76
13, 52920, Note_on_c, 15, 74, 76
13, 52920, Note_on_c, 15, 65, 76
13, 52920, Note_on_c, 15, 53, 76
13, 52979, Note_on_c, 15, 69, 0
13, 52979, Note_on_c, 15, 74, 0
13, 52979, Note_on_c, 15, 65, 0
13, 52979, Note_on_c, 15, 53, 0
13, 52980, Note_on_c, 15, 64, 76
13, 52980, Note_on_c, 15, 52, 76
13, 52980, Note_on_c, 15, 67, 76
13, 52980, Note_on_c, 15, 71, 76
13, 53039, Note_on_c, 15, 64, 0
13, 53039, Note_on_c, 15, 52, 0
13, 53039, Note_on_c, 15, 67, 0
13, 53039, Note_on_c, 15, 71, 0
13, 53040, Note_on_c, 15, 62, 76
13, 53040, Note_on_c, 15, 69, 76
13, 53040, Note_on_c, 15, 50, 76
13, 53040, Note_on_c, 15, 65, 76
13, 53099, Note_on_c, 15, 62, 0
13, 53099, Note_on_c, 15, 69, 0
13, 53099, Note_on_c, 15, 50, 0
13, 53099, Note_on_c, 15, 65, 0
13, 53100, Note_on_c, 15, 48, 76
13, 53100, Note_on_c, 15, 64, 76
13, 53100, Note_on_c, 15, 60, 76
13, 53100, Note_on_c, 15, 67, 76
13, 53159, Note_on_c, 15, 48, 0
13, 53159, Note_on_c, 15, 64, 0
13, 53159, Note_on_c, 15, 60, 0
13, 53159, Note_on_c, 15, 67, 0
13, 53160, Note_on_c, 15, 65, 76
13, 53160, Note_on_c, 15, 50, 76
13, 53160, Note_on_c, 15, 69, 76
13, 53160, Note_on_c, 15, 62, 76
13, 53219, Note_on_c, 15, 65, 0
13, 53219, Note_on_c, 15, 50, 0
13, 53219, Note_on_c, 15, 69, 0
13, 53219, Note_on_c, 15, 62, 0
13, 53220, Note_on_c, 15, 47, 76
13, 53220, Note_on_c, 15, 62, 76
13, 53220, Note_on_c, 15, 65, 76
13, 53220, Note_on_c, 15, 59, 76
13, 53279, Note_on_c, 15, 47, 0
13, 53279, Note_on_c, 15, 62, 0
13, 53279, Note_on_c, 15, 65, 0
13, 53279, Note_on_c, 15, 59, 0
13, 53280, Note_on_c, 15, 68, 76
13, 53280, Note_on_c, 15, 71, 76
13, 53280, Note_on_c, 15, 52, 76
13, 53280, Note_on_c, 15, 64, 76
13, 53339, Note_on_c, 15, 68, 0
13, 53339, Note_on_c, 15, 71, 0
13, 53339, Note_on_c, 15, 52, 0
13, 53339, Note_on_c, 15, 64, 0
13, 53340, Note_on_c, 15, 72, 76
13, 53340, Note_on_c, 15, 65, 76
13, 53340, Note_on_c, 15, 69, 76
13, 53340, Note_on_c, 15, 53, 76
13, 53399, Note_on_c, 15, 72, 0
13, 53399, Note_on_c, 15, 65, 0
13, 53399, Note_on_c, 15, 69, 0
13, 53399, Note_on_c, 15, 53, 0
13, 53400, Note_on_c, 15, 71, 76
13, 53400, Note_on_c, 15, 52, 76
13, 53400, Note_on_c, 15, 64, 76
13, 53400, Note_on_c, 15, 68, 76
13, 53459, Note_on_c, 15, 71, 0
13, 53459, Note_on_c, 15, 52, 0
13, 53459, Note_on_c, 15, 64, 0
13, 53459, Note_on_c, 15, 68, 0
13, 53460, Note_on_c, 15, 50, 76
13, 53460, Note_on_c, 15, 65, 76
13, 53460, Note_on_c, 15, 69, 76
13, 53460, Note_on_c, 15, 62, 76
13, 53519, Note_on_c, 15, 50, 0
13, 53519, Note_on_c, 15, 65, 0
13, 53519, Note_on_c, 15, 69, 0
13, 53519, Note_on_c, 15, 62, 0
13, 53520, Note_on_c, 15, 64, 76
13, 53520, Note_on_c, 15, 60, 76
13, 53520, Note_on_c, 15, 48, 76
13, 53520, Note_on_c, 15, 69, 76
13, 53579, Note_on_c, 15, 64, 0
13, 53579, Note_on_c, 15, 60, 0
13, 53579, Note_on_c, 15, 48, 0
13, 53579, Note_on_c, 15, 69, 0
13, 53580, Note_on_c, 15, 69, 76
13, 53580, Note_on_c, 15, 50, 76
13, 53580, Note_on_c, 15, 62, 76
13, 53580, Note_on_c, 15, 65, 76
13, 53639, Note_on_c, 15, 69, 0
13, 53639, Note_on_c, 15, 50, 0
13, 53639, Note_on_c, 15, 62, 0
13, 53639, Note_on_c, 15, 65, 0
13, 53640, Note_on_c, 15, 48, 76
13, 53640, Note_on_c, 15, 60, 76
13, 53640, Note_on_c, 15, 70, 76
13, 53640, Note_on_c, 15, 64, 76
13, 53699, Note_on_c, 15, 48, 0
13, 53699, Note_on_c, 15, 60, 0
13, 53699, Note_on_c, 15, 70, 0
13, 53699, Note_on_c, 15, 64, 0
13, 53700, Note_on_c, 15, 59, 76
13, 53700, Note_on_c, 15, 68, 76
13, 53700, Note_on_c, 15, 62, 76
13, 53700, Note_on_c, 15, 47, 76
13, 53759, Note_on_c, 15, 59, 0
13, 53759, Note_on_c, 15, 68, 0
13, 53759, Note_on_c, 15, 62, 0
13, 53759, Note_on_c, 15, 47, 0
13, 53760, Note_on_c, 15, 64, 76
13, 53760, Note_on_c, 15, 45, 76
13, 53760, Note_on_c, 15, 60, 76
13, 53760, Note_on_c, 15, 57, 76
13, 53879, Note_on_c, 15, 64, 0
13, 53879, Note_on_c, 15, 45, 0
13, 53879, Note_on_c, 15, 60, 0
13, 53879, Note_on_c, 15, 57, 0
13, 53880, Note_on_c, 15, 69, 76
13, 53880, Note_on_c, 15, 50, 76
13, 53880, Note_on_c, 15, 62, 76
13, 53880, Note_on_c, 15, 65, 76
13, 53999, Note_on_c, 15, 69, 0
13, 53999, Note_on_c, 15, 50, 0
13, 53999, Note_on_c, 15, 62, 0
13, 53999, Note_on_c, 15, 65, 0
13, 54000, Note_on_c, 15, 71, 76
13, 54000, Note_on_c, 15, 64, 76
13, 54000, Note_on_c, 15, 68, 76
13, 54000, Note_on_c, 15, 52, 76
13, 54119, Note_on_c, 15, 71, 0
13, 54119, Note_on_c, 15, 64, 0
13, 54119, Note_on_c, 15, 68, 0
13, 54119, Note_on_c, 15, 52, 0
13, 54120, Note_on_c, 15, 59, 76
13, 54120, Note_on_c, 15, 40, 76
13, 54120, Note_on_c, 15, 52, 76
13, 54120, Note_on_c, 15, 56, 76
13, 54239, Note_on_c, 15, 59, 0
13, 54239, Note_on_c, 15, 40, 0
13, 54239, Note_on_c, 15, 52, 0
13, 54239, Note_on_c, 15, 56, 0
13, 54240, Note_on_c, 15, 60, 76
13, 54240, Note_on_c, 15, 57, 76
13, 54240, Note_on_c, 15, 64, 76
13, 54240, Note_on_c, 15, 45, 76
13, 54479, Note_on_c, 15, 60, 0
13, 54479, Note_on_c, 15, 57, 0
13, 54479, Note_on_c, 15, 64, 0
13, 54479, Note_on_c, 15, 45, 0
13, 55740, Note_on_c, 15, 76, 76
13, 55740, Note_on_c, 15, 60, 76
13, 55740, Note_on_c, 15, 79, 76
13, 55740, Note_on_c, 15, 72, 76
13, 55799, Note_on_c, 15, 76, 0
13, 55799, Note_on_c, 15, 60, 0
13, 55799, Note_on_c, 15, 79, 0
13, 55799, Note_on_c, 15, 72, 0
13, 55800, Note_on_c, 15, 59, 76
13, 55800, Note_on_c, 15, 79, 76
13, 55800, Note_on_c, 15, 76, 76
13, 55800, Note_on_c, 15, 71, 76
13, 55859, Note_on_c, 15, 59, 0
13, 55859, Note_on_c, 15, 79, 0
13, 55859, Note_on_c, 15, 76, 0
13, 55859, Note_on_c, 15, 71, 0
13, 55860, Note_on_c, 15, 57, 76
13, 55860, Note_on_c, 15, 76, 76
13, 55860, Note_on_c, 15, 69, 76
13, 55860, Note_on_c, 15, 72, 76
13, 55919, Note_on_c, 15, 57, 0
13, 55919, Note_on_c, 15, 76, 0
13, 55919, Note_on_c, 15, 69, 0
13, 55919, Note_on_c, 15, 72, 0
13, 55920, Note_on_c, 15, 72, 76
13, 55920, Note_on_c, 15, 76, 76
13, 55920, Note_on_c, 15, 67, 76
13, 55920, Note_on_c, 15, 55, 76
13, 55979, Note_on_c, 15, 72, 0
13, 55979, Note_on_c, 15, 76, 0
13, 55979, Note_on_c, 15, 67, 0
13, 55979, Note_on_c, 15, 55, 0
13, 55980, Note_on_c, 15, 54, 76
13, 55980, Note_on_c, 15, 66, 76
13, 55980, Note_on_c, 15, 72, 76
13, 55980, Note_on_c, 15, 76, 76
13, 56039, Note_on_c, 15, 54, 0
13, 56039, Note_on_c, 15, 66, 0
13, 56039, Note_on_c, 15, 72, 0
13, 56039, Note_on_c, 15, 76, 0
13, 56040, Note_on_c, 15, 67, 76
13, 56040, Note_on_c, 15, 72, 76
13, 56040, Note_on_c, 15, 55, 76
13, 56040, Note_on_c, 15, 76, 76
13, 56099, Note_on_c, 15, 67, 0
13, 56099, Note_on_c, 15, 72, 0
13, 56099, Note_on_c, 15, 55, 0
13, 56099, Note_on_c, 15, 76, 0
13, 56100, Note_on_c, 15, 76, 76
13, 56100, Note_on_c, 15, 52, 76
13, 56100, Note_on_c, 15, 64, 76
13, 56100, Note_on_c, 15, 72, 76
13, 56159, Note_on_c, 15, 76, 0
13, 56159, Note_on_c, 15, 52, 0
13, 56159, Note_on_c, 15, 64, 0
13, 56159, Note_on_c, 15, 72, 0
13, 56160, Note_on_c, 15, 69, 76
13, 56160, Note_on_c, 15, 57, 76
13, 56160, Note_on_c, 15, 76, 76
13, 56160, Note_on_c, 15, 79, 76
13, 56160, Note_on_c, 15, 73, 76
13, 56279, Note_on_c, 15, 69, 0
13, 56279, Note_on_c, 15, 57, 0
13, 56279, Note_on_c, 15, 76, 0
13, 56279, Note_on_c, 15, 79, 0
13, 56279, Note_on_c, 15, 73, 0
13, 56280, Note_on_c, 15, 64, 76
13, 56280, Note_on_c, 15, 45, 76
13, 56280, Note_on_c, 15, 61, 76
13, 56280, Note_on_c, 15, 57, 76
13, 56399, Note_on_c, 15, 64, 0
13, 56399, Note_on_c, 15, 45, 0
13, 56399, Note_on_c, 15, 61, 0
13, 56399, Note_on_c, 15, 57, 0
13, 57660, Note_on_c, 15, 77, 76
13, 57660, Note_on_c, 15, 70, 76
13, 57660, Note_on_c, 15, 58, 76
13, 57660, Note_on_c, 15, 74, 76
13, 57719, Note_on_c, 15, 77, 0
13, 57719, Note_on_c, 15, 70, 0
13, 57719, Note_on_c, 15, 58, 0
13, 57719, Note_on_c, 15, 74, 0
13, 57720, Note_on_c, 15, 74, 76
13, 57720, Note_on_c, 15, 69, 76
13, 57720, Note_on_c, 15, 77, 76
13, 57720, Note_on_c, 15, 57, 76
13, 57779, Note_on_c, 15, 74, 0
13, 57779, Note_on_c, 15, 69, 0
13, 57779, Note_on_c, 15, 77, 0
13, 57779, Note_on_c, 15, 57, 0
13, 57780, Note_on_c, 15, 55, 76
13, 57780, Note_on_c, 15, 67, 76
13, 57780, Note_on_c, 15, 74, 76
13, 57780, Note_on_c, 15, 71, 76
13, 57839, Note_on_c, 15, 55, 0
13, 57839, Note_on_c, 15, 67, 0
13, 57839, Note_on_c, 15, 74, 0
13, 57839, Note_on_c, 15, 71, 0
13, 57840, Note_on_c, 15, 71, 76
13, 57840, Note_on_c, 15, 74, 76
13, 57840, Note_on_c, 15, 53, 76
13, 57840, Note_on_c, 15, 65, 76
13, 57899, Note_on_c, 15, 71, 0
13, 57899, Note_on_c, 15, 74, 0
13, 57899, Note_on_c, 15, 53, 0
13, 57899, Note_on_c, 15, 65, 0
13, 57900, Note_on_c, 15, 74, 76
13, 57900, Note_on_c, 15, 64, 76
13, 57900, Note_on_c, 15, 52, 76
13, 57900, Note_on_c, 15, 71, 76
13, 57959, Note_on_c, 15, 74, 0
13, 57959, Note_on_c, 15, 64, 0
13, 57959, Note_on_c, 15, 52, 0
13, 57959, Note_on_c, 15, 71, 0
13, 57960, Note_on_c, 15, 53, 76
13, 57960, Note_on_c, 15, 74, 76
13, 57960, Note_on_c, 15, 65, 76
13, 57960, Note_on_c, 15, 71, 76
13, 58019, Note_on_c, 15, 53, 0
13, 58019, Note_on_c, 15, 74, 0
13, 58019, Note_on_c, 15, 65, 0
13, 58019, Note_on_c, 15, 71, 0
13, 58020, Note_on_c, 15, 74, 76
13, 58020, Note_on_c, 15, 62, 76
13, 58020, Note_on_c, 15, 50, 76
13, 58020, Note_on_c, 15, 71, 76
13, 58079, Note_on_c, 15, 74, 0
13, 58079, Note_on_c, 15, 62, 0
13, 58079, Note_on_c, 15, 50, 0
13, 58079, Note_on_c, 15, 71, 0
13, 58080, Note_on_c, 15, 77, 76
13, 58080, Note_on_c, 15, 74, 76
13, 58080, Note_on_c, 15, 71, 76
13, 58080, Note_on_c, 15, 55, 76
13, 58080, Note_on_c, 15, 67, 76
13, 58199, Note_on_c, 15, 77, 0
13, 58199, Note_on_c, 15, 74, 0
13, 58199, Note_on_c, 15, 71, 0
13, 58199, Note_on_c, 15, 55, 0
13, 58199, Note_on_c, 15, 67, 0
13, 58200, Note_on_c, 15, 59, 76
13, 58200, Note_on_c, 15, 62, 76
13, 58200, Note_on_c, 15, 43, 76
13, 58200, Note_on_c, 15, 55, 76
13, 58319, Note_on_c, 15, 59, 0
13, 58319, Note_on_c, 15, 62, 0
13, 58319, Note_on_c, 15, 43, 0
13, 58319, Note_on_c, 15, 55, 0
13, 60060, Note_on_c, 15, 65, 76
13, 60060, Note_on_c, 15, 53, 76
13, 60060, Note_on_c, 15, 72, 76
13, 60060, Note_on_c, 15, 69, 76
13, 60119, Note_on_c, 15, 65, 0
13, 60119, Note_on_c, 15, 53, 0
13, 60119, Note_on_c, 15, 72, 0
13, 60119, Note_on_c, 15, 69, 0
13, 60120, Note_on_c, 15, 64, 76
13, 60120, Note_on_c, 15, 67, 76
13, 60120, Note_on_c, 15, 52, 76
13, 60179, Note_on_c, 15, 64, 0
13, 60179, Note_on_c, 15, 67, 0
13, 60179, Note_on_c, 15, 52, 0
13, 60180, Note_on_c, 15, 62, 76
13, 60180, Note_on_c, 15, 65, 76
13, 60180, Note_on_c, 15, 69, 76
13, 60180, Note_on_c, 15, 50, 76
13, 60239, Note_on_c, 15, 62, 0
13, 60239, Note_on_c, 15, 65, 0
13, 60239, Note_on_c, 15, 69, 0
13, 60239, Note_on_c, 15, 50, 0
13, 60240, Note_on_c, 15, 48, 76
13, 60240, Note_on_c, 15, 67, 76
13, 60240, Note_on_c, 15, 60, 76
13, 60240, Note_on_c, 15, 64, 76
13, 60299, Note_on_c, 15, 48, 0
13, 60299, Note_on_c, 15, 67, 0
13, 60299, Note_on_c, 15, 60, 0
13, 60299, Note_on_c, 15, 64, 0
13, 60300, Note_on_c, 15, 62, 76
13, 60300, Note_on_c, 15, 59, 76
13, 60300, Note_on_c, 15, 47, 76
13, 60300, Note_on_c, 15, 65, 76
13, 60359, Note_on_c, 15, 62, 0
13, 60359, Note_on_c, 15, 59, 0
13, 60359, Note_on_c, 15, 47, 0
13, 60359, Note_on_c, 15, 65, 0
13, 60360, Note_on_c, 15, 60, 76
13, 60360, Note_on_c, 15, 48, 76
13, 60360, Note_on_c, 15, 64, 76
13, 60360, Note_on_c, 15, 67, 76
13, 60419, Note_on_c, 15, 60, 0
13, 60419, Note_on_c, 15, 48, 0
13, 60419, Note_on_c, 15, 64, 0
13, 60419, Note_on_c, 15, 67, 0
13, 60420, Note_on_c, 15, 64, 76
13, 60420, Note_on_c, 15, 60, 76
13, 60420, Note_on_c, 15, 45, 76
13, 60420, Note_on_c, 15, 57, 76
13, 60479, Note_on_c, 15, 64, 0
13, 60479, Note_on_c, 15, 60, 0
13, 60479, Note_on_c, 15, 45, 0
13, 60479, Note_on_c, 15, 57, 0
13, 60480, Note_on_c, 15, 62, 76
13, 60480, Note_on_c, 15, 69, 76
13, 60480, Note_on_c, 15, 67, 76
13, 60480, Note_on_c, 15, 50, 76
13, 60599, Note_on_c, 15, 62, 0
13, 60599, Note_on_c, 15, 69, 0
13, 60599, Note_on_c, 15, 67, 0
13, 60599, Note_on_c, 15, 50, 0
13, 60600, Note_on_c, 15, 54, 76
13, 60600, Note_on_c, 15, 57, 76
13, 60600, Note_on_c, 15, 38, 76
13, 60600, Note_on_c, 15, 50, 76
13, 60719, Note_on_c, 15, 54, 0
13, 60719, Note_on_c, 15, 57, 0
13, 60719, Note_on_c, 15, 38, 0
13, 60719, Note_on_c, 15, 50, 0
13, 61080, Note_on_c, 15, 55, 76
13, 61080, Note_on_c, 15, 74, 76
13, 61080, Note_on_c, 15, 71, 76
13, 61080, Note_on_c, 15, 67, 76
13, 61199, Note_on_c, 15, 55, 0
13, 61199, Note_on_c, 15, 74, 0
13, 61199, Note_on_c, 15, 71, 0
13, 61199, Note_on_c, 15, 67, 0
13, 61200, Note_on_c, 15, 55, 76
13, 61200, Note_on_c, 15, 67, 76
13, 61200, Note_on_c, 15, 76, 76
13, 61200, Note_on_c, 15, 71, 76
13, 61319, Note_on_c, 15, 55, 0
13, 61319, Note_on_c, 15, 67, 0
13, 61319, Note_on_c, 15, 76, 0
13, 61319, Note_on_c, 15, 71, 0
13, 61320, Note_on_c, 15, 71, 76
13, 61320, Note_on_c, 15, 55, 76
13, 61320, Note_on_c, 15, 74, 76
13, 61320, Note_on_c, 15, 67, 76
13, 61439, Note_on_c, 15, 71, 0
13, 61439, Note_on_c, 15, 55, 0
13, 61439, Note_on_c, 15, 74, 0
13, 61439, Note_on_c, 15, 67, 0
13, 61440, Note_on_c, 15, 76, 76
13, 61440, Note_on_c, 15, 72, 76
13, 61440, Note_on_c, 15, 54, 76
13, 61440, Note_on_c, 15, 66, 76
13, 61440, Note_on_c, 15, 69, 76
13, 61559, Note_on_c, 15, 76, 0
13, 61559, Note_on_c, 15, 72, 0
13, 61559, Note_on_c, 15, 54, 0
13, 61559, Note_on_c, 15, 66, 0
13, 61559, Note_on_c, 15, 69, 0
13, 61560, Note_on_c, 15, 74, 76
13, 61560, Note_on_c, 15, 55, 76
13, 61560, Note_on_c, 15, 71, 76
13, 61560, Note_on_c, 15, 67, 76
13, 61619, Note_on_c, 15, 74, 0
13, 61619, Note_on_c, 15, 55, 0
13, 61619, Note_on_c, 15, 71, 0
13, 61619, Note_on_c, 15, 67, 0
13, 61620, Note_on_c, 15, 69, 76
13, 61620, Note_on_c, 15, 57, 76
13, 61620, Note_on_c, 15, 76, 76
13, 61620, Note_on_c, 15, 72, 76
13, 61679, Note_on_c, 15, 69, 0
13, 61679, Note_on_c, 15, 57, 0
13, 61679, Note_on_c, 15, 76, 0
13, 61679, Note_on_c, 15, 72, 0
13, 61680, Note_on_c, 15, 74, 76
13, 61680, Note_on_c, 15, 59, 76
13, 61680, Note_on_c, 15, 71, 76
13, 61680, Note_on_c, 15, 78, 76
13, 61680, Note_on_c, 15, 81, 76
13, 61799, Note_on_c, 15, 74, 0
13, 61799, Note_on_c, 15, 59, 0
13, 61799, Note_on_c, 15, 71, 0
13, 61799, Note_on_c, 15, 78, 0
13, 61799, Note_on_c, 15, 81, 0
13, 61800, Note_on_c, 15, 67, 76
13, 61800, Note_on_c, 15, 71, 76
13, 61800, Note_on_c, 15, 55, 76
13, 61800, Note_on_c, 15, 74, 76
13, 61919, Note_on_c, 15, 67, 0
13, 61919, Note_on_c, 15, 71, 0
13, 61919, Note_on_c, 15, 55, 0
13, 61919, Note_on_c, 15, 74, 0
13, 61920, Note_on_c, 15, 71, 76
13, 61920, Note_on_c, 15, 67, 76
13, 61920, Note_on_c, 15, 52, 76
13, 61920, Note_on_c, 15, 74, 76
13, 61920, Note_on_c, 15, 64, 76
13, 62039, Note_on_c, 15, 71, 0
13, 62039, Note_on_c, 15, 67, 0
13, 62039, Note_on_c, 15, 52, 0
13, 62039, Note_on_c, 15, 74, 0
13, 62039, Note_on_c, 15, 64, 0
13, 62040, Note_on_c, 15, 69, 76
13, 62040, Note_on_c, 15, 72, 76
13, 62040, Note_on_c, 15, 57, 76
13, 62040, Note_on_c, 15, 76, 76
13, 62159, Note_on_c, 15, 69, 0
13, 62159, Note_on_c, 15, 72, 0
13, 62159, Note_on_c, 15, 57, 0
13, 62159, Note_on_c, 15, 76, 0
13, 62160, Note_on_c, 15, 60, 76
13, 62160, Note_on_c, 15, 57, 76
13, 62160, Note_on_c, 15, 45, 76
13, 62279, Note_on_c, 15, 60, 0
13, 62279, Note_on_c, 15, 57, 0
13, 62279, Note_on_c, 15, 45, 0
13, 62280, Note_on_c, 15, 60, 76
13, 62280, Note_on_c, 15, 55, 76
13, 62399, Note_on_c, 15, 60, 0
13, 62399, Note_on_c, 15, 55, 0
13, 62400, Note_on_c, 15, 74, 76
13, 62400, Note_on_c, 15, 69, 76
13, 62400, Note_on_c, 15, 66, 76
13, 62400, Note_on_c, 15, 54, 76
13, 62400, Note_on_c, 15, 72, 76
13, 62519, Note_on_c, 15, 74, 0
13, 62519, Note_on_c, 15, 69, 0
13, 62519, Note_on_c, 15, 66, 0
13, 62519, Note_on_c, 15, 54, 0
13, 62519, Note_on_c, 15, 72, 0
13, 62520, Note_on_c, 15, 67, 76
13, 62520, Note_on_c, 15, 71, 76
13, 62520, Note_on_c, 15, 74, 76
13, 62520, Note_on_c, 15, 55, 76
13, 62579, Note_on_c, 15, 67, 0
13, 62579, Note_on_c, 15, 71, 0
13, 62579, Note_on_c, 15, 74, 0
13, 62579, Note_on_c, 15, 55, 0
13, 62580, Note_on_c, 15, 69, 76
13, 62580, Note_on_c, 15, 76, 76
13, 62580, Note_on_c, 15, 72, 76
13, 62580, Note_on_c, 15, 57, 76
13, 62639, Note_on_c, 15, 69, 0
13, 62639, Note_on_c, 15, 76, 0
13, 62639, Note_on_c, 15, 72, 0
13, 62639, Note_on_c, 15, 57, 0
13, 62640, Note_on_c, 15, 71, 76
13, 62640, Note_on_c, 15, 59, 76
13, 62640, Note_on_c, 15, 74, 76
13, 62640, Note_on_c, 15, 79, 76
13, 62699, Note_on_c, 15, 71, 0
13, 62699, Note_on_c, 15, 59, 0
13, 62699, Note_on_c, 15, 74, 0
13, 62699, Note_on_c, 15, 79, 0
13, 62700, Note_on_c, 15, 79, 76
13, 62700, Note_on_c, 15, 76, 76
13, 62700, Note_on_c, 15, 60, 76
13, 62700, Note_on_c, 15, 72, 76
13, 62759, Note_on_c, 15, 79, 0
13, 62759, Note_on_c, 15, 76, 0
13, 62759, Note_on_c, 15, 60, 0
13, 62759, Note_on_c, 15, 72, 0
13, 62760, Note_on_c, 15, 81, 76
13, 62760, Note_on_c, 15, 74, 76
13, 62760, Note_on_c, 15, 62, 76
13, 62760, Note_on_c, 15, 78, 76
13, 62819, Note_on_c, 15, 81, 0
13, 62819, Note_on_c, 15, 74, 0
13, 62819, Note_on_c, 15, 62, 0
13, 62819, Note_on_c, 15, 78, 0
13, 62820, Note_on_c, 15, 76, 76
13, 62820, Note_on_c, 15, 83, 76
13, 62820, Note_on_c, 15, 79, 76
13, 62820, Note_on_c, 15, 64, 76
13, 62879, Note_on_c, 15, 76, 0
13, 62879, Note_on_c, 15, 83, 0
13, 62879, Note_on_c, 15, 79, 0
13, 62879, Note_on_c, 15, 64, 0
13, 62880, Note_on_c, 15, 57, 76
13, 62880, Note_on_c, 15, 69, 76
13, 62880, Note_on_c, 15, 79, 76
13, 62880, Note_on_c, 15, 72, 76
13, 62880, Note_on_c, 15, 76, 76
13, 62939, Note_on_c, 15, 57, 0
13, 62939, Note_on_c, 15, 69, 0
13, 62939, Note_on_c, 15, 79, 0
13, 62939, Note_on_c, 15, 72, 0
13, 62939, Note_on_c, 15, 76, 0
13, 62940, Note_on_c, 15, 72, 76
13, 62940, Note_on_c, 15, 60, 76
13, 62940, Note_on_c, 15, 76, 76
13, 62940, Note_on_c, 15, 79, 76
13, 62999, Note_on_c, 15, 72, 0
13, 62999, Note_on_c, 15, 60, 0
13, 62999, Note_on_c, 15, 76, 0
13, 62999, Note_on_c, 15, 79, 0
13, 63000, Note_on_c, 15, 78, 76
13, 63000, Note_on_c, 15, 71, 76
13, 63000, Note_on_c, 15, 59, 76
13, 63000, Note_on_c, 15, 74, 76
13, 63059, Note_on_c, 15, 78, 0
13, 63059, Note_on_c, 15, 71, 0
13, 63059, Note_on_c, 15, 59, 0
13, 63059, Note_on_c, 15, 74, 0
13, 63060, Note_on_c, 15, 79, 76
13, 63060, Note_on_c, 15, 60, 76
13, 63060, Note_on_c, 15, 72, 76
13, 63060, Note_on_c, 15, 76, 76
13, 63119, Note_on_c, 15, 79, 0
13, 63119, Note_on_c, 15, 60, 0
13, 63119, Note_on_c, 15, 72, 0
13, 63119, Note_on_c, 15, 76, 0
13, 63120, Note_on_c, 15, 74, 76
13, 63120, Note_on_c, 15, 62, 76
13, 63120, Note_on_c, 15, 84, 76
13, 63120, Note_on_c, 15, 81, 76
13, 63120, Note_on_c, 15, 78, 76
13, 63179, Note_on_c, 15, 74, 0
13, 63179, Note_on_c, 15, 62, 0
13, 63179, Note_on_c, 15, 84, 0
13, 63179, Note_on_c, 15, 81, 0
13, 63179, Note_on_c, 15, 78, 0
13, 63180, Note_on_c, 15, 76, 76
13, 63180, Note_on_c, 15, 60, 76
13, 63180, Note_on_c, 15, 79, 76
13, 63180, Note_on_c, 15, 72, 76
13, 63239, Note_on_c, 15, 76, 0
13, 63239, Note_on_c, 15, 60, 0
13, 63239, Note_on_c, 15, 79, 0
13, 63239, Note_on_c, 15, 72, 0
13, 63240, Note_on_c, 15, 59, 76
13, 63240, Note_on_c, 15, 78, 76
13, 63240, Note_on_c, 15, 71, 76
13, 63240, Note_on_c, 15, 74, 76
13, 63299, Note_on_c, 15, 59, 0
13, 63299, Note_on_c, 15, 78, 0
13, 63299, Note_on_c, 15, 71, 0
13, 63299, Note_on_c, 15, 74, 0
13, 63300, Note_on_c, 15, 76, 76
13, 63300, Note_on_c, 15, 69, 76
13, 63300, Note_on_c, 15, 72, 76
13, 63300, Note_on_c, 15, 57, 76
13, 63359, Note_on_c, 15, 76, 0
13, 63359, Note_on_c, 15, 69, 0
13, 63359, Note_on_c, 15, 72, 0
13, 63359, Note_on_c, 15, 57, 0
13, 63360, Note_on_c, 15, 78, 76
13, 63360, Note_on_c, 15, 67, 76
13, 63360, Note_on_c, 15, 71, 76
13, 63360, Note_on_c, 15, 55, 76
13, 63360, Note_on_c, 15, 74, 76
13, 63419, Note_on_c, 15, 78, 0
13, 63419, Note_on_c, 15, 67, 0
13, 63419, Note_on_c, 15, 71, 0
13, 63419, Note_on_c, 15, 55, 0
13, 63419, Note_on_c, 15, 74, 0
13, 63420, Note_on_c, 15, 59, 76
13, 63420, Note_on_c, 15, 78, 76
13, 63420, Note_on_c, 15, 74, 76
13, 63420, Note_on_c, 15, 71, 76
13, 63479, Note_on_c, 15, 59, 0
13, 63479, Note_on_c, 15, 78, 0
13, 63479, Note_on_c, 15, 74, 0
13, 63479, Note_on_c, 15, 71, 0
13, 63480, Note_on_c, 15, 72, 76
13, 63480, Note_on_c, 15, 69, 76
13, 63480, Note_on_c, 15, 57, 76
13, 63480, Note_on_c, 15, 76, 76
13, 63539, Note_on_c, 15, 72, 0
13, 63539, Note_on_c, 15, 69, 0
13, 63539, Note_on_c, 15, 57, 0
13, 63539, Note_on_c, 15, 76, 0
13, 63540, Note_on_c, 15, 78, 76
13, 63540, Note_on_c, 15, 74, 76
13, 63540, Note_on_c, 15, 71, 76
13, 63540, Note_on_c, 15, 59, 76
13, 63599, Note_on_c, 15, 78, 0
13, 63599, Note_on_c, 15, 74, 0
13, 63599, Note_on_c, 15, 71, 0
13, 63599, Note_on_c, 15, 59, 0
13, 63600, Note_on_c, 15, 76, 76
13, 63600, Note_on_c, 15, 83, 76
13, 63600, Note_on_c, 15, 60, 76
13, 63600, Note_on_c, 15, 79, 76
13, 63600, Note_on_c, 15, 72, 76
13, 63659, Note_on_c, 15, 76, 0
13, 63659, Note_on_c, 15, 83, 0
13, 63659, Note_on_c, 15, 60, 0
13, 63659, Note_on_c, 15, 79, 0
13, 63659, Note_on_c, 15, 72, 0
13, 63660, Note_on_c, 15, 78, 76
13, 63660, Note_on_c, 15, 71, 76
13, 63660, Note_on_c, 15, 59, 76
13, 63660, Note_on_c, 15, 74, 76
13, 63719, Note_on_c, 15, 78, 0
13, 63719, Note_on_c, 15, 71, 0
13, 63719, Note_on_c, 15, 59, 0
13, 63719, Note_on_c, 15, 74, 0
13, 63720, Note_on_c, 15, 76, 76
13, 63720, Note_on_c, 15, 57, 76
13, 63720, Note_on_c, 15, 72, 76
13, 63720, Note_on_c, 15, 69, 76
13, 63779, Note_on_c, 15, 76, 0
13, 63779, Note_on_c, 15, 57, 0
13, 63779, Note_on_c, 15, 72, 0
13, 63779, Note_on_c, 15, 69, 0
13, 63780, Note_on_c, 15, 67, 76
13, 63780, Note_on_c, 15, 55, 76
13, 63780, Note_on_c, 15, 71, 76
13, 63780, Note_on_c, 15, 74, 76
13, 63839, Note_on_c, 15, 67, 0
13, 63839, Note_on_c, 15, 55, 0
13, 63839, Note_on_c, 15, 71, 0
13, 63839, Note_on_c, 15, 74, 0
13, 63840, Note_on_c, 15, 66, 76
13, 63840, Note_on_c, 15, 69, 76
13, 63840, Note_on_c, 15, 72, 76
13, 63840, Note_on_c, 15, 54, 76
13, 63840, Note_on_c, 15, 76, 76
13, 63899, Note_on_c, 15, 66, 0
13, 63899, Note_on_c, 15, 69, 0
13, 63899, Note_on_c, 15, 72, 0
13, 63899, Note_on_c, 15, 54, 0
13, 63899, Note_on_c, 15, 76, 0
13, 63900, Note_on_c, 15, 76, 76
13, 63900, Note_on_c, 15, 72, 76
13, 63900, Note_on_c, 15, 69, 76
13, 63900, Note_on_c, 15, 57, 76
13, 63959, Note_on_c, 15, 76, 0
13, 63959, Note_on_c, 15, 72, 0
13, 63959, Note_on_c, 15, 69, 0
13, 63959, Note_on_c, 15, 57, 0
13, 63960, Note_on_c, 15, 74, 76
13, 63960, Note_on_c, 15, 55, 76
13, 63960, Note_on_c, 15, 71, 76
13, 63960, Note_on_c, 15, 67, 76
13, 64019, Note_on_c, 15, 74, 0
13, 64019, Note_on_c, 15, 55, 0
13, 64019, Note_on_c, 15, 71, 0
13, 64019, Note_on_c, 15, 67, 0
13, 64020, Note_on_c, 15, 76, 76
13, 64020, Note_on_c, 15, 69, 76
13, 64020, Note_on_c, 15, 72, 76
13, 64020, Note_on_c, 15, 57, 76
13, 64079, Note_on_c, 15, 76, 0
13, 64079, Note_on_c, 15, 69, 0
13, 64079, Note_on_c, 15, 72, 0
13, 64079, Note_on_c, 15, 57, 0
13, 64080, Note_on_c, 15, 81, 76
13, 64080, Note_on_c, 15, 59, 76
13, 64080, Note_on_c, 15, 71, 76
13, 64080, Note_on_c, 15, 74, 76
13, 64080, Note_on_c, 15, 78, 76
13, 64139, Note_on_c, 15, 81, 0
13, 64139, Note_on_c, 15, 59, 0
13, 64139, Note_on_c, 15, 71, 0
13, 64139, Note_on_c, 15, 74, 0
13, 64139, Note_on_c, 15, 78, 0
13, 64140, Note_on_c, 15, 72, 76
13, 64140, Note_on_c, 15, 57, 76
13, 64140, Note_on_c, 15, 69, 76
13, 64140, Note_on_c, 15, 76, 76
13, 64199, Note_on_c, 15, 72, 0
13, 64199, Note_on_c, 15, 57, 0
13, 64199, Note_on_c, 15, 69, 0
13, 64199, Note_on_c, 15, 76, 0
13, 64200, Note_on_c, 15, 67, 76
13, 64200, Note_on_c, 15, 74, 76
13, 64200, Note_on_c, 15, 71, 76
13, 64200, Note_on_c, 15, 55, 76
13, 64259, Note_on_c, 15, 67, 0
13, 64259, Note_on_c, 15, 74, 0
13, 64259, Note_on_c, 15, 71, 0
13, 64259, Note_on_c, 15, 55, 0
13, 64260, Note_on_c, 15, 69, 76
13, 64260, Note_on_c, 15, 72, 76
13, 64260, Note_on_c, 15, 54, 76
13, 64260, Note_on_c, 15, 66, 76
13, 64319, Note_on_c, 15, 69, 0
13, 64319, Note_on_c, 15, 72, 0
13, 64319, Note_on_c, 15, 54, 0
13, 64319, Note_on_c, 15, 66, 0
13, 64320, Note_on_c, 15, 67, 76
13, 64320, Note_on_c, 15, 64, 76
13, 64320, Note_on_c, 15, 52, 76
13, 64320, Note_on_c, 15, 71, 76
13, 64320, Note_on_c, 15, 74, 76
13, 64379, Note_on_c, 15, 67, 0
13, 64379, Note_on_c, 15, 64, 0
13, 64379, Note_on_c, 15, 52, 0
13, 64379, Note_on_c, 15, 71, 0
13, 64379, Note_on_c, 15, 74, 0
13, 64380, Note_on_c, 15, 71, 76
13, 64380, Note_on_c, 15, 67, 76
13, 64380, Note_on_c, 15, 74, 76
13, 64380, Note_on_c, 15, 55, 76
13, 64439, Note_on_c, 15, 71, 0
13, 64439, Note_on_c, 15, 67, 0
13, 64439, Note_on_c, 15, 74, 0
13, 64439, Note_on_c, 15, 55, 0
13, 64440, Note_on_c, 15, 54, 76
13, 64440, Note_on_c, 15, 69, 76
13, 64440, Note_on_c, 15, 66, 76
13, 64440, Note_on_c, 15, 72, 76
13, 64499, Note_on_c, 15, 54, 0
13, 64499, Note_on_c, 15, 69, 0
13, 64499, Note_on_c, 15, 66, 0
13, 64499, Note_on_c, 15, 72, 0
13, 64500, Note_on_c, 15, 55, 76
13, 64500, Note_on_c, 15, 71, 76
13, 64500, Note_on_c, 15, 67, 76
13, 64500, Note_on_c, 15, 74, 76
13, 64559, Note_on_c, 15, 55, 0
13, 64559, Note_on_c, 15, 71, 0
13, 64559, Note_on_c, 15, 67, 0
13, 64559, Note_on_c, 15, 74, 0
13, 64560, Note_on_c, 15, 69, 76
13, 64560, Note_on_c, 15, 57, 76
13, 64560, Note_on_c, 15, 72, 76
13, 64560, Note_on_c, 15, 76, 76
13, 64560, Note_on_c, 15, 79, 76
13, 64619, Note_on_c, 15, 69, 0
13, 64619, Note_on_c, 15, 57, 0
13, 64619, Note_on_c, 15, 72, 0
13, 64619, Note_on_c, 15, 76, 0
13, 64619, Note_on_c, 15, 79, 0
13, 64620, Note_on_c, 15, 67, 76
13, 64620, Note_on_c, 15, 55, 76
13, 64620, Note_on_c, 15, 74, 76
13, 64620, Note_on_c, 15, 71, 76
13, 64679, Note_on_c, 15, 67, 0
13, 64679, Note_on_c, 15, 55, 0
13, 64679, Note_on_c, 15, 74, 0
13, 64679, Note_on_c, 15, 71, 0
13, 64680, Note_on_c, 15, 66, 76
13, 64680, Note_on_c, 15, 69, 76
13, 64680, Note_on_c, 15, 72, 76
13, 64680, Note_on_c, 15, 54, 76
13, 64739, Note_on_c, 15, 66, 0
13, 64739, Note_on_c, 15, 69, 0
13, 64739, Note_on_c, 15, 72, 0
13, 64739, Note_on_c, 15, 54, 0
13, 64740, Note_on_c, 15, 52, 76
13, 64740, Note_on_c, 15, 64, 76
13, 64740, Note_on_c, 15, 67, 76
13, 64740, Note_on_c, 15, 71, 76
13, 64799, Note_on_c, 15, 52, 0
13, 64799, Note_on_c, 15, 64, 0
13, 64799, Note_on_c, 15, 67, 0
13, 64799, Note_on_c, 15, 71, 0
13, 64800, Note_on_c, 15, 50, 76
13, 64800, Note_on_c, 15, 72, 76
13, 64800, Note_on_c, 15, 69, 76
13, 64800, Note_on_c, 15, 66, 76
13, 64800, Note_on_c, 15, 62, 76
13, 64919, Note_on_c, 15, 50, 0
13, 64919, Note_on_c, 15, 72, 0
13, 64919, Note_on_c, 15, 69, 0
13, 64919, Note_on_c, 15, 66, 0
13, 64919, Note_on_c, 15, 62, 0
13, 64920, Note_on_c, 15, 74, 76
13, 64920, Note_on_c, 15, 62, 76
13, 64920, Note_on_c, 15, 81, 76
13, 64920, Note_on_c, 15, 78, 76
13, 65039, Note_on_c, 15, 74, 0
13, 65039, Note_on_c, 15, 62, 0
13, 65039, Note_on_c, 15, 81, 0
13, 65039, Note_on_c, 15, 78, 0
13, 65040, Note_on_c, 15, 78, 76
13, 65040, Note_on_c, 15, 74, 76
13, 65040, Note_on_c, 15, 81, 76
13, 65040, Note_on_c, 15, 62, 76
13, 65159, Note_on_c, 15, 78, 0
13, 65159, Note_on_c, 15, 74, 0
13, 65159, Note_on_c, 15, 81, 0
13, 65159, Note_on_c, 15, 62, 0
13, 65160, Note_on_c, 15, 78, 76
13, 65160, Note_on_c, 15, 81, 76
13, 65160, Note_on_c, 15, 74, 76
13, 65160, Note_on_c, 15, 62, 76
13, 65279, Note_on_c, 15, 78, 0
13, 65279, Note_on_c, 15, 81, 0
13, 65279, Note_on_c, 15, 74, 0
13, 65279, Note_on_c, 15, 62, 0
13, 65280, Note_on_c, 15, 74, 76
13, 65280, Note_on_c, 15, 79, 76
13, 65280, Note_on_c, 15, 59, 76
13, 65280, Note_on_c, 15, 71, 76
13, 65399, Note_on_c, 15, 74, 0
13, 65399, Note_on_c, 15, 79, 0
13, 65399, Note_on_c, 15, 59, 0
13, 65399, Note_on_c, 15, 71, 0
13, 65400, Note_on_c, 15, 72, 76
13, 65400, Note_on_c, 15, 60, 76
13, 65400, Note_on_c, 15, 76, 76
13, 65400, Note_on_c, 15, 79, 76
13, 65459, Note_on_c, 15, 72, 0
13, 65459, Note_on_c, 15, 60, 0
13, 65459, Note_on_c, 15, 76, 0
13, 65459, Note_on_c, 15, 79, 0
13, 65460, Note_on_c, 15, 62, 76
13, 65460, Note_on_c, 15, 78, 76
13, 65460, Note_on_c, 15, 81, 76
13, 65460, Note_on_c, 15, 74, 76
13, 65519, Note_on_c, 15, 62, 0
13, 65519, Note_on_c, 15, 78, 0
13, 65519, Note_on_c, 15, 81, 0
13, 65519, Note_on_c, 15, 74, 0
13, 65520, Note_on_c, 15, 76, 76
13, 65520, Note_on_c, 15, 64, 76
13, 65520, Note_on_c, 15, 83, 76
13, 65520, Note_on_c, 15, 79, 76
13, 65639, Note_on_c, 15, 76, 0
13, 65639, Note_on_c, 15, 64, 0
13, 65639, Note_on_c, 15, 83, 0
13, 65639, Note_on_c, 15, 79, 0
13, 65640, Note_on_c, 15, 60, 76
13, 65640, Note_on_c, 15, 72, 76
13, 65640, Note_on_c, 15, 79, 76
13, 65640, Note_on_c, 15, 76, 76
13, 65759, Note_on_c, 15, 60, 0
13, 65759, Note_on_c, 15, 72, 0
13, 65759, Note_on_c, 15, 79, 0
13, 65759, Note_on_c, 15, 76, 0
13, 65760, Note_on_c, 15, 72, 76
13, 65760, Note_on_c, 15, 57, 76
13, 65760, Note_on_c, 15, 78, 76
13, 65760, Note_on_c, 15, 69, 76
13, 65879, Note_on_c, 15, 72, 0
13, 65879, Note_on_c, 15, 57, 0
13, 65879, Note_on_c, 15, 78, 0
13, 65879, Note_on_c, 15, 69, 0
13, 65880, Note_on_c, 15, 74, 76
13, 65880, Note_on_c, 15, 81, 76
13, 65880, Note_on_c, 15, 62, 76
13, 65880, Note_on_c, 15, 78, 76
13, 65999, Note_on_c, 15, 74, 0
13, 65999, Note_on_c, 15, 81, 0
13, 65999, Note_on_c, 15, 62, 0
13, 65999, Note_on_c, 15, 78, 0
13, 66000, Note_on_c, 15, 50, 76
13, 66000, Note_on_c, 15, 62, 76
13, 66000, Note_on_c, 15, 66, 76
13, 66000, Note_on_c, 15, 69, 76
13, 66119, Note_on_c, 15, 50, 0
13, 66119, Note_on_c, 15, 62, 0
13, 66119, Note_on_c, 15, 66, 0
13, 66119, Note_on_c, 15, 69, 0
13, 66120, Note_on_c, 15, 60, 76
13, 66120, Note_on_c, 15, 76, 76
13, 66120, Note_on_c, 15, 72, 76
13, 66120, Note_on_c, 15, 79, 76
13, 66239, Note_on_c, 15, 60, 0
13, 66239, Note_on_c, 15, 76, 0
13, 66239, Note_on_c, 15, 72, 0
13, 66239, Note_on_c, 15, 79, 0
13, 66240, Note_on_c, 15, 71, 76
13, 66240, Note_on_c, 15, 79, 76
13, 66240, Note_on_c, 15, 74, 76
13, 66240, Note_on_c, 15, 59, 76
13, 66359, Note_on_c, 15, 71, 0
13, 66359, Note_on_c, 15, 79, 0
13, 66359, Note_on_c, 15, 74, 0
13, 66359, Note_on_c, 15, 59, 0
13, 66360, Note_on_c, 15, 71, 76
13, 66360, Note_on_c, 15, 67, 76
13, 66360, Note_on_c, 15, 74, 76
13, 66360, Note_on_c, 15, 55, 76
13, 66479, Note_on_c, 15, 71, 0
13, 66479, Note_on_c, 15, 67, 0
13, 66479, Note_on_c, 15, 74, 0
13, 66479, Note_on_c, 15, 55, 0
13, 66480, Note_on_c, 15, 62, 76
13, 66480, Note_on_c, 15, 81, 76
13, 66480, Note_on_c, 15, 74, 76
13, 66480, Note_on_c, 15, 78, 76
13, 66599, Note_on_c, 15, 62, 0
13, 66599, Note_on_c, 15, 81, 0
13, 66599, Note_on_c, 15, 74, 0
13, 66599, Note_on_c, 15, 78, 0
13, 66600, Note_on_c, 15, 50, 76
13, 66600, Note_on_c, 15, 62, 76
13, 66600, Note_on_c, 15, 69, 76
13, 66600, Note_on_c, 15, 66, 76
13, 66719, Note_on_c, 15, 50, 0
13, 66719, Note_on_c, 15, 62, 0
13, 66719, Note_on_c, 15, 69, 0
13, 66719, Note_on_c, 15, 66, 0
13, 66720, Note_on_c, 15, 62, 76
13, 66720, Note_on_c, 15, 59, 76
13, 66720, Note_on_c, 15, 43, 76
13, 66720, Note_on_c, 15, 55, 76
13, 66839, Note_on_c, 15, 62, 0
13, 66839, Note_on_c, 15, 59, 0
13, 66839, Note_on_c, 15, 43, 0
13, 66839, Note_on_c, 15, 55, 0
13, 78840, Note_on_c, 15, 76, 76
13, 78840, Note_on_c, 15, 64, 76
13, 78840, Note_on_c, 15, 84, 76
13, 78840, Note_on_c, 15, 81, 76
13, 78899, Note_on_c, 15, 76, 0
13, 78899, Note_on_c, 15, 64, 0
13, 78899, Note_on_c, 15, 84, 0
13, 78899, Note_on_c, 15, 81, 0
13, 78900, Note_on_c, 15, 79, 76
13, 78900, Note_on_c, 15, 62, 76
13, 78900, Note_on_c, 15, 76, 76
13, 78900, Note_on_c, 15, 72, 76
13, 78959, Note_on_c, 15, 79, 0
13, 78959, Note_on_c, 15, 62, 0
13, 78959, Note_on_c, 15, 76, 0
13, 78959, Note_on_c, 15, 72, 0
13, 78960, Note_on_c, 15, 60, 76
13, 78960, Note_on_c, 15, 79, 76
13, 78960, Note_on_c, 15, 72, 76
13, 78960, Note_on_c, 15, 76, 76
13, 79019, Note_on_c, 15, 60, 0
13, 79019, Note_on_c, 15, 79, 0
13, 79019, Note_on_c, 15, 72, 0
13, 79019, Note_on_c, 15, 76, 0
13, 79020, Note_on_c, 15, 76, 76
13, 79020, Note_on_c, 15, 79, 76
13, 79020, Note_on_c, 15, 59, 76
13, 79020, Note_on_c, 15, 71, 76
13, 79079, Note_on_c, 15, 76, 0
13, 79079, Note_on_c, 15, 79, 0
13, 79079, Note_on_c, 15, 59, 0
13, 79079, Note_on_c, 15, 71, 0
13, 79080, Note_on_c, 15, 60, 76
13, 79080, Note_on_c, 15, 72, 76
13, 79080, Note_on_c, 15, 79, 76
13, 79080, Note_on_c, 15, 76, 76
13, 79139, Note_on_c, 15, 60, 0
13, 79139, Note_on_c, 15, 72, 0
13, 79139, Note_on_c, 15, 79, 0
13, 79139, Note_on_c, 15, 76, 0
13, 79140, Note_on_c, 15, 69, 76
13, 79140, Note_on_c, 15, 57, 76
13, 79140, Note_on_c, 15, 79, 76
13, 79140, Note_on_c, 15, 76, 76
13, 79199, Note_on_c, 15, 69, 0
13, 79199, Note_on_c, 15, 57, 0
13, 79199, Note_on_c, 15, 79, 0
13, 79199, Note_on_c, 15, 76, 0
13, 79200, Note_on_c, 15, 74, 76
13, 79200, Note_on_c, 15, 78, 76
13, 79200, Note_on_c, 15, 62, 76
13, 79200, Note_on_c, 15, 84, 76
13, 79200, Note_on_c, 15, 81, 76
13, 79319, Note_on_c, 15, 74, 0
13, 79319, Note_on_c, 15, 78, 0
13, 79319, Note_on_c, 15, 62, 0
13, 79319, Note_on_c, 15, 84, 0
13, 79319, Note_on_c, 15, 81, 0
13, 79320, Note_on_c, 15, 66, 76
13, 79320, Note_on_c, 15, 50, 76
13, 79320, Note_on_c, 15, 70, 76
13, 79320, Note_on_c, 15, 62, 76
13, 79439, Note_on_c, 15, 66, 0
13, 79439, Note_on_c, 15, 50, 0
13, 79439, Note_on_c, 15, 70, 0
13, 79439, Note_on_c, 15, 62, 0
13, 80760, Note_on_c, 15, 74, 76
13, 80760, Note_on_c, 15, 79, 76
13, 80760, Note_on_c, 15, 82, 76
13, 80760, Note_on_c, 15, 62, 76
13, 80819, Note_on_c, 15, 74, 0
13, 80819, Note_on_c, 15, 79, 0
13, 80819, Note_on_c, 15, 82, 0
13, 80819, Note_on_c, 15, 62, 0
13, 80820, Note_on_c, 15, 79, 76
13, 80820, Note_on_c, 15, 60, 76
13, 80820, Note_on_c, 15, 76, 76
13, 80820, Note_on_c, 15, 72, 76
13, 80879, Note_on_c, 15, 79, 0
13, 80879, Note_on_c, 15, 60, 0
13, 80879, Note_on_c, 15, 76, 0
13, 80879, Note_on_c, 15, 72, 0
13, 80880, Note_on_c, 15, 76, 76
13, 80880, Note_on_c, 15, 70, 76
13, 80880, Note_on_c, 15, 58, 76
13, 80880, Note_on_c, 15, 79, 76
13, 80939, Note_on_c, 15, 76, 0
13, 80939, Note_on_c, 15, 70, 0
13, 80939, Note_on_c, 15, 58, 0
13, 80939, Note_on_c, 15, 79, 0
13, 80940, Note_on_c, 15, 79, 76
13, 80940, Note_on_c, 15, 76, 76
13, 80940, Note_on_c, 15, 57, 76
13, 80940, Note_on_c, 15, 69, 76
13, 80999, Note_on_c, 15, 79, 0
13, 80999, Note_on_c, 15, 76, 0
13, 80999, Note_on_c, 15, 57, 0
13, 80999, Note_on_c, 15, 69, 0
13, 81000, Note_on_c, 15, 70, 76
13, 81000, Note_on_c, 15, 79, 76
13, 81000, Note_on_c, 15, 58, 76
13, 81000, Note_on_c, 15, 76, 76
13, 81059, Note_on_c, 15, 70, 0
13, 81059, Note_on_c, 15, 79, 0
13, 81059, Note_on_c, 15, 58, 0
13, 81059, Note_on_c, 15, 76, 0
13, 81060, Note_on_c, 15, 55, 76
13, 81060, Note_on_c, 15, 67, 76
13, 81060, Note_on_c, 15, 79, 76
13, 81060, Note_on_c, 15, 76, 76
13, 81119, Note_on_c, 15, 55, 0
13, 81119, Note_on_c, 15, 67, 0
13, 81119, Note_on_c, 15, 79, 0
13, 81119, Note_on_c, 15, 76, 0
13, 81120, Note_on_c, 15, 72, 76
13, 81120, Note_on_c, 15, 79, 76
13, 81120, Note_on_c, 15, 60, 76
13, 81120, Note_on_c, 15, 76, 76
13, 81120, Note_on_c, 15, 82, 76
13, 81239, Note_on_c, 15, 72, 0
13, 81239, Note_on_c, 15, 79, 0
13, 81239, Note_on_c, 15, 60, 0
13, 81239, Note_on_c, 15, 76, 0
13, 81239, Note_on_c, 15, 82, 0
13, 81240, Note_on_c, 15, 48, 76
13, 81240, Note_on_c, 15, 60, 76
13, 81240, Note_on_c, 15, 64, 76
13, 81240, Note_on_c, 15, 67, 76
13, 81359, Note_on_c, 15, 48, 0
13, 81359, Note_on_c, 15, 60, 0
13, 81359, Note_on_c, 15, 64, 0
13, 81359, Note_on_c, 15, 67, 0
13, 83100, Note_on_c, 15, 70, 76
13, 83100, Note_on_c, 15, 74, 76
13, 83100, Note_on_c, 15, 58, 76
13, 83100, Note_on_c, 15, 77, 76
13, 83159, Note_on_c, 15, 70, 0
13, 83159, Note_on_c, 15, 74, 0
13, 83159, Note_on_c, 15, 58, 0
13, 83159, Note_on_c, 15, 77, 0
13, 83160, Note_on_c, 15, 72, 76
13, 83160, Note_on_c, 15, 57, 76
13, 83160, Note_on_c, 15, 69, 76
13, 83219, Note_on_c, 15, 72, 0
13, 83219, Note_on_c, 15, 57, 0
13, 83219, Note_on_c, 15, 69, 0
13, 83220, Note_on_c, 15, 55, 76
13, 83220, Note_on_c, 15, 67, 76
13, 83220, Note_on_c, 15, 74, 76
13, 83220, Note_on_c, 15, 70, 76
13, 83279, Note_on_c, 15, 55, 0
13, 83279, Note_on_c, 15, 67, 0
13, 83279, Note_on_c, 15, 74, 0
13, 83279, Note_on_c, 15, 70, 0
13, 83280, Note_on_c, 15, 53, 76
13, 83280, Note_on_c, 15, 69, 76
13, 83280, Note_on_c, 15, 65, 76
13, 83339, Note_on_c, 15, 53, 0
13, 83339, Note_on_c, 15, 69, 0
13, 83339, Note_on_c, 15, 65, 0
13, 83340, Note_on_c, 15, 70, 76
13, 83340, Note_on_c, 15, 52, 76
13, 83340, Note_on_c, 15, 64, 76
13, 83340, Note_on_c, 15, 67, 76
13, 83399, Note_on_c, 15, 70, 0
13, 83399, Note_on_c, 15, 52, 0
13, 83399, Note_on_c, 15, 64, 0
13, 83399, Note_on_c, 15, 67, 0
13, 83400, Note_on_c, 15, 72, 76
13, 83400, Note_on_c, 15, 69, 76
13, 83400, Note_on_c, 15, 53, 76
13, 83400, Note_on_c, 15, 65, 76
13, 83459, Note_on_c, 15, 72, 0
13, 83459, Note_on_c, 15, 69, 0
13, 83459, Note_on_c, 15, 53, 0
13, 83459, Note_on_c, 15, 65, 0
13, 83460, Note_on_c, 15, 69, 76
13, 83460, Note_on_c, 15, 50, 76
13, 83460, Note_on_c, 15, 65, 76
13, 83460, Note_on_c, 15, 62, 76
13, 83519, Note_on_c, 15, 69, 0
13, 83519, Note_on_c, 15, 50, 0
13, 83519, Note_on_c, 15, 65, 0
13, 83519, Note_on_c, 15, 62, 0
13, 83520, Note_on_c, 15, 55, 76
13, 83520, Note_on_c, 15, 74, 76
13, 83520, Note_on_c, 15, 67, 76
13, 83520, Note_on_c, 15, 72, 76
13, 83639, Note_on_c, 15, 55, 0
13, 83639, Note_on_c, 15, 74, 0
13, 83639, Note_on_c, 15, 67, 0
13, 83639, Note_on_c, 15, 72, 0
13, 83640, Note_on_c, 15, 43, 76
13, 83640, Note_on_c, 15, 55, 76
13, 83640, Note_on_c, 15, 59, 76
13, 83759, Note_on_c, 15, 43, 0
13, 83759, Note_on_c, 15, 55, 0
13, 83759, Note_on_c, 15, 59, 0
13, 84120, Note_on_c, 15, 60, 76
13, 84120, Note_on_c, 15, 76, 76
13, 84120, Note_on_c, 15, 72, 76
13, 84120, Note_on_c, 15, 79, 76
13, 84239, Note_on_c, 15, 60, 0
13, 84239, Note_on_c, 15, 76, 0
13, 84239, Note_on_c, 15, 72, 0
13, 84239, Note_on_c, 15, 79, 0
13, 84240, Note_on_c, 15, 81, 76
13, 84240, Note_on_c, 15, 60, 76
13, 84240, Note_on_c, 15, 76, 76
13, 84240, Note_on_c, 15, 72, 76
13, 84359, Note_on_c, 15, 81, 0
13, 84359, Note_on_c, 15, 60, 0
13, 84359, Note_on_c, 15, 76, 0
13, 84359, Note_on_c, 15, 72, 0
13, 84360, Note_on_c, 15, 81, 76
13, 84360, Note_on_c, 15, 76, 76
13, 84360, Note_on_c, 15, 72, 76
13, 84360, Note_on_c, 15, 60, 76
13, 84479, Note_on_c, 15, 81, 0
13, 84479, Note_on_c, 15, 76, 0
13, 84479, Note_on_c, 15, 72, 0
13, 84479, Note_on_c, 15, 60, 0
13, 84480, Note_on_c, 15, 81, 76
13, 84480, Note_on_c, 15, 59, 76
13, 84480, Note_on_c, 15, 74, 76
13, 84480, Note_on_c, 15, 77, 76
13, 84480, Note_on_c, 15, 71, 76
13, 84599, Note_on_c, 15, 81, 0
13, 84599, Note_on_c, 15, 59, 0
13, 84599, Note_on_c, 15, 74, 0
13, 84599, Note_on_c, 15, 77, 0
13, 84599, Note_on_c, 15, 71, 0
13, 84600, Note_on_c, 15, 60, 76
13, 84600, Note_on_c, 15, 72, 76
13, 84600, Note_on_c, 15, 79, 76
13, 84600, Note_on_c, 15, 76, 76
13, 84659, Note_on_c, 15, 60, 0
13, 84659, Note_on_c, 15, 72, 0
13, 84659, Note_on_c, 15, 79, 0
13, 84659, Note_on_c, 15, 76, 0
13, 84660, Note_on_c, 15, 77, 76
13, 84660, Note_on_c, 15, 74, 76
13, 84660, Note_on_c, 15, 62, 76
13, 84660, Note_on_c, 15, 81, 76
13, 84719, Note_on_c, 15, 77, 0
13, 84719, Note_on_c, 15, 74, 0
13, 84719, Note_on_c, 15, 62, 0
13, 84719, Note_on_c, 15, 81, 0
13, 84720, Note_on_c, 15, 83, 76
13, 84720, Note_on_c, 15, 64, 76
13, 84720, Note_on_c, 15, 79, 76
13, 84720, Note_on_c, 15, 76, 76
13, 84839, Note_on_c, 15, 83, 0
13, 84839, Note_on_c, 15, 64, 0
13, 84839, Note_on_c, 15, 79, 0
13, 84839, Note_on_c, 15, 76, 0
13, 84840, Note_on_c, 15, 76, 76
13, 84840, Note_on_c, 15, 60, 76
13, 84840, Note_on_c, 15, 72, 76
13, 84840, Note_on_c, 15, 79, 76
13, 84959, Note_on_c, 15, 76, 0
13, 84959, Note_on_c, 15, 60, 0
13, 84959, Note_on_c, 15, 72, 0
13, 84959, Note_on_c, 15, 79, 0
13, 84960, Note_on_c, 15, 79, 76
13, 84960, Note_on_c, 15, 69, 76
13, 84960, Note_on_c, 15, 57, 76
13, 84960, Note_on_c, 15, 76, 76
13, 84960, Note_on_c, 15, 72, 76
13, 85079, Note_on_c, 15, 79, 0
13, 85079, Note_on_c, 15, 69, 0
13, 85079, Note_on_c, 15, 57, 0
13, 85079, Note_on_c, 15, 76, 0
13, 85079, Note_on_c, 15, 72, 0
13, 85080, Note_on_c, 15, 74, 76
13, 85080, Note_on_c, 15, 81, 76
13, 85080, Note_on_c, 15, 62, 76
13, 85080, Note_on_c, 15, 77, 76
13, 85199, Note_on_c, 15, 74, 0
13, 85199, Note_on_c, 15, 81, 0
13, 85199, Note_on_c, 15, 62, 0
13, 85199, Note_on_c, 15, 77, 0
13, 85200, Note_on_c, 15, 62, 76
13, 85200, Note_on_c, 15, 50, 76
13, 85200, Note_on_c, 15, 69, 76
13, 85200, Note_on_c, 15, 65, 76
13, 85319, Note_on_c, 15, 62, 0
13, 85319, Note_on_c, 15, 50, 0
13, 85319, Note_on_c, 15, 69, 0
13, 85319, Note_on_c, 15, 65, 0
13, 85320, Note_on_c, 15, 72, 76
13, 85320, Note_on_c, 15, 76, 76
13, 85320, Note_on_c, 15, 79, 76
13, 85320, Note_on_c, 15, 60, 76
13, 85439, Note_on_c, 15, 72, 0
13, 85439, Note_on_c, 15, 76, 0
13, 85439, Note_on_c, 15, 79, 0
13, 85439, Note_on_c, 15, 60, 0
13, 85440, Note_on_c, 15, 74, 76
13, 85440, Note_on_c, 15, 77, 76
13, 85440, Note_on_c, 15, 71, 76
13, 85440, Note_on_c, 15, 59, 76
13, 85559, Note_on_c, 15, 74, 0
13, 85559, Note_on_c, 15, 77, 0
13, 85559, Note_on_c, 15, 71, 0
13, 85559, Note_on_c, 15, 59, 0
13, 85560, Note_on_c, 15, 74, 76
13, 85560, Note_on_c, 15, 67, 76
13, 85560, Note_on_c, 15, 55, 76
13, 85560, Note_on_c, 15, 71, 76
13, 85679, Note_on_c, 15, 74, 0
13, 85679, Note_on_c, 15, 67, 0
13, 85679, Note_on_c, 15, 55, 0
13, 85679, Note_on_c, 15, 71, 0
13, 85680, Note_on_c, 15, 79, 76
13, 85680, Note_on_c, 15, 60, 76
13, 85680, Note_on_c, 15, 76, 76
13, 85680, Note_on_c, 15, 72, 76
13, 85799, Note_on_c, 15, 79, 0
13, 85799, Note_on_c, 15, 60, 0
13, 85799, Note_on_c, 15, 76, 0
13, 85799, Note_on_c, 15, 72, 0
13, 85800, Note_on_c, 15, 48, 76
13, 85800, Note_on_c, 15, 60, 76
13, 85800, Note_on_c, 15, 64, 76
13, 85800, Note_on_c, 15, 67, 76
13, 85919, Note_on_c, 15, 48, 0
13, 85919, Note_on_c, 15, 60, 0
13, 85919, Note_on_c, 15, 64, 0
13, 85919, Note_on_c, 15, 67, 0
13, 85920, Note_on_c, 15, 53, 76
13, 85920, Note_on_c, 15, 41, 76
13, 85920, Note_on_c, 15, 57, 76
13, 85920, Note_on_c, 15, 64, 76
13, 85920, Note_on_c, 15, 60, 76
13, 86039, Note_on_c, 15, 53, 0
13, 86039, Note_on_c, 15, 41, 0
13, 86039, Note_on_c, 15, 57, 0
13, 86039, Note_on_c, 15, 64, 0
13, 86039, Note_on_c, 15, 60, 0
13, 86040, Note_on_c, 15, 53, 76
13, 86040, Note_on_c, 15, 65, 76
13, 86040, Note_on_c, 15, 72, 76
13, 86040, Note_on_c, 15, 69, 76
13, 86159, Note_on_c, 15, 53, 0
13, 86159, Note_on_c, 15, 65, 0
13, 86159, Note_on_c, 15, 72, 0
13, 86159, Note_on_c, 15, 69, 0
13, 86160, Note_on_c, 15, 53, 76
13, 86160, Note_on_c, 15, 74, 76
13, 86160, Note_on_c, 15, 65, 76
13, 86160, Note_on_c, 15, 69, 76
13, 86279, Note_on_c, 15, 53, 0
13, 86279, Note_on_c, 15, 74, 0
13, 86279, Note_on_c, 15, 65, 0
13, 86279, Note_on_c, 15, 69, 0
13, 86280, Note_on_c, 15, 74, 76
13, 86280, Note_on_c, 15, 65, 76
13, 86280, Note_on_c, 15, 69, 76
13, 86280, Note_on_c, 15, 53, 76
13, 86399, Note_on_c, 15, 74, 0
13, 86399, Note_on_c, 15, 65, 0
13, 86399, Note_on_c, 15, 69, 0
13, 86399, Note_on_c, 15, 53, 0
13, 86400, Note_on_c, 15, 74, 76
13, 86400, Note_on_c, 15, 52, 76
13, 86400, Note_on_c, 15, 64, 76
13, 86400, Note_on_c, 15, 67, 76
13, 86400, Note_on_c, 15, 71, 76
13, 86519, Note_on_c, 15, 74, 0
13, 86519, Note_on_c, 15, 52, 0
13, 86519, Note_on_c, 15, 64, 0
13, 86519, Note_on_c, 15, 67, 0
13, 86519, Note_on_c, 15, 71, 0
13, 86520, Note_on_c, 15, 72, 76
13, 86520, Note_on_c, 15, 65, 76
13, 86520, Note_on_c, 15, 69, 76
13, 86520, Note_on_c, 15, 53, 76
13, 86579, Note_on_c, 15, 72, 0
13, 86579, Note_on_c, 15, 65, 0
13, 86579, Note_on_c, 15, 69, 0
13, 86579, Note_on_c, 15, 53, 0
13, 86580, Note_on_c, 15, 74, 76
13, 86580, Note_on_c, 15, 67, 76
13, 86580, Note_on_c, 15, 71, 76
13, 86580, Note_on_c, 15, 55, 76
13, 86639, Note_on_c, 15, 74, 0
13, 86639, Note_on_c, 15, 67, 0
13, 86639, Note_on_c, 15, 71, 0
13, 86639, Note_on_c, 15, 55, 0
13, 86640, Note_on_c, 15, 57, 76
13, 86640, Note_on_c, 15, 69, 76
13, 86640, Note_on_c, 15, 72, 76
13, 86759, Note_on_c, 15, 57, 0
13, 86759, Note_on_c, 15, 69, 0
13, 86759, Note_on_c, 15, 72, 0
13, 86760, Note_on_c, 15, 69, 76
13, 86760, Note_on_c, 15, 72, 76
13, 86760, Note_on_c, 15, 53, 76
13, 86760, Note_on_c, 15, 65, 76
13, 86879, Note_on_c, 15, 69, 0
13, 86879, Note_on_c, 15, 72, 0
13, 86879, Note_on_c, 15, 53, 0
13, 86879, Note_on_c, 15, 65, 0
13, 86880, Note_on_c, 15, 69, 76
13, 86880, Note_on_c, 15, 62, 76
13, 86880, Note_on_c, 15, 72, 76
13, 86880, Note_on_c, 15, 50, 76
13, 86880, Note_on_c, 15, 65, 76
13, 86999, Note_on_c, 15, 69, 0
13, 86999, Note_on_c, 15, 62, 0
13, 86999, Note_on_c, 15, 72, 0
13, 86999, Note_on_c, 15, 50, 0
13, 86999, Note_on_c, 15, 65, 0
13, 87000, Note_on_c, 15, 67, 76
13, 87000, Note_on_c, 15, 55, 76
13, 87000, Note_on_c, 15, 74, 76
13, 87000, Note_on_c, 15, 71, 76
13, 87119, Note_on_c, 15, 67, 0
13, 87119, Note_on_c, 15, 55, 0
13, 87119, Note_on_c, 15, 74, 0
13, 87119, Note_on_c, 15, 71, 0
13, 87120, Note_on_c, 15, 62, 76
13, 87120, Note_on_c, 15, 43, 76
13, 87120, Note_on_c, 15, 59, 76
13, 87120, Note_on_c, 15, 55, 76
13, 87239, Note_on_c, 15, 62, 0
13, 87239, Note_on_c, 15, 43, 0
13, 87239, Note_on_c, 15, 59, 0
13, 87239, Note_on_c, 15, 55, 0
13, 87240, Note_on_c, 15, 65, 76
13, 87240, Note_on_c, 15, 72, 76
13, 87240, Note_on_c, 15, 53, 76
13, 87240, Note_on_c, 15, 69, 76
13, 87359, Note_on_c, 15, 65, 0
13, 87359, Note_on_c, 15, 72, 0
13, 87359, Note_on_c, 15, 53, 0
13, 87359, Note_on_c, 15, 69, 0
13, 87360, Note_on_c, 15, 52, 76
13, 87360, Note_on_c, 15, 72, 76
13, 87360, Note_on_c, 15, 67, 76
13, 87360, Note_on_c, 15, 64, 76
13, 87479, Note_on_c, 15, 52, 0
13, 87479, Note_on_c, 15, 72, 0
13, 87479, Note_on_c, 15, 67, 0
13, 87479, Note_on_c, 15, 64, 0
13, 87480, Note_on_c, 15, 67, 76
13, 87480, Note_on_c, 15, 74, 76
13, 87480, Note_on_c, 15, 55, 76
13, 87480, Note_on_c, 15, 71, 76
13, 87599, Note_on_c, 15, 67, 0
13, 87599, Note_on_c, 15, 74, 0
13, 87599, Note_on_c, 15, 55, 0
13, 87599, Note_on_c, 15, 71, 0
13, 87600, Note_on_c, 15, 64, 76
13, 87600, Note_on_c, 15, 67, 76
13, 87600, Note_on_c, 15, 72, 76
13, 87600, Note_on_c, 15, 52, 76
13, 87719, Note_on_c, 15, 64, 0
13, 87719, Note_on_c, 15, 67, 0
13, 87719, Note_on_c, 15, 72, 0
13, 87719, Note_on_c, 15, 52, 0
13, 87720, Note_on_c, 15, 64, 76
13, 87720, Note_on_c, 15, 48, 76
13, 87720, Note_on_c, 15, 67, 76
13, 87720, Note_on_c, 15, 70, 76
13, 87720, Note_on_c, 15, 60, 76
13, 87839, Note_on_c, 15, 64, 0
13, 87839, Note_on_c, 15, 48, 0
13, 87839, Note_on_c, 15, 67, 0
13, 87839, Note_on_c, 15, 70, 0
13, 87839, Note_on_c, 15, 60, 0
13, 87840, Note_on_c, 15, 65, 76
13, 87840, Note_on_c, 15, 69, 76
13, 87840, Note_on_c, 15, 53, 76
13, 87840, Note_on_c, 15, 72, 76
13, 87959, Note_on_c, 15, 65, 0
13, 87959, Note_on_c, 15, 69, 0
13, 87959, Note_on_c, 15, 53, 0
13, 87959, Note_on_c, 15, 72, 0
13, 87960, Note_on_c, 15, 72, 76
13, 87960, Note_on_c, 15, 69, 76
13, 87960, Note_on_c, 15, 50, 76
13, 87960, Note_on_c, 15, 62, 76
13, 88079, Note_on_c, 15, 72, 0
13, 88079, Note_on_c, 15, 69, 0
13, 88079, Note_on_c, 15, 50, 0
13, 88079, Note_on_c, 15, 62, 0
13, 88080, Note_on_c, 15, 52, 76
13, 88080, Note_on_c, 15, 69, 76
13, 88080, Note_on_c, 15, 72, 76
13, 88080, Note_on_c, 15, 64, 76
13, 88199, Note_on_c, 15, 52, 0
13, 88199, Note_on_c, 15, 69, 0
13, 88199, Note_on_c, 15, 72, 0
13, 88199, Note_on_c, 15, 64, 0
13, 88200, Note_on_c, 15, 53, 76
13, 88200, Note_on_c, 15, 72, 76
13, 88200, Note_on_c, 15, 69, 76
13, 88200, Note_on_c, 15, 65, 76
13, 88319, Note_on_c, 15, 53, 0
13, 88319, Note_on_c, 15, 72, 0
13, 88319, Note_on_c, 15, 69, 0
13, 88319, Note_on_c, 15, 65, 0
13, 88320, Note_on_c, 15, 67, 76
13, 88320, Note_on_c, 15, 71, 76
13, 88320, Note_on_c, 15, 74, 76
13, 88320, Note_on_c, 15, 55, 76
13, 88559, Note_on_c, 15, 67, 0
13, 88559, Note_on_c, 15, 71, 0
13, 88559, Note_on_c, 15, 74, 0
13, 88559, Note_on_c, 15, 55, 0
13, 92760, Note_on_c, 15, 72, 76
13, 92760, Note_on_c, 15, 60, 76
13, 92760, Note_on_c, 15, 76, 76
13, 92760, Note_on_c, 15, 79, 76
13, 92879, Note_on_c, 15, 72, 0
13, 92879, Note_on_c, 15, 60, 0
13, 92879, Note_on_c, 15, 76, 0
13, 92879, Note_on_c, 15, 79, 0
13, 92880, Note_on_c, 15, 76, 76
13, 92880, Note_on_c, 15, 72, 76
13, 92880, Note_on_c, 15, 60, 76
13, 92880, Note_on_c, 15, 79, 76
13, 92999, Note_on_c, 15, 76, 0
13, 92999, Note_on_c, 15, 72, 0
13, 92999, Note_on_c, 15, 60, 0
13, 92999, Note_on_c, 15, 79, 0
13, 93000, Note_on_c, 15, 79, 76
13, 93000, Note_on_c, 15, 60, 76
13, 93000, Note_on_c, 15, 76, 76
13, 93000, Note_on_c, 15, 72, 76
13, 93119, Note_on_c, 15, 79, 0
13, 93119, Note_on_c, 15, 60, 0
13, 93119, Note_on_c, 15, 76, 0
13, 93119, Note_on_c, 15, 72, 0
13, 93120, Note_on_c, 15, 74, 76
13, 93120, Note_on_c, 15, 71, 76
13, 93120, Note_on_c, 15, 79, 76
13, 93120, Note_on_c, 15, 59, 76
13, 93239, Note_on_c, 15, 74, 0
13, 93239, Note_on_c, 15, 71, 0
13, 93239, Note_on_c, 15, 79, 0
13, 93239, Note_on_c, 15, 59, 0
13, 93240, Note_on_c, 15, 79, 76
13, 93240, Note_on_c, 15, 60, 76
13, 93240, Note_on_c, 15, 76, 76
13, 93240, Note_on_c, 15, 72, 76
13, 93299, Note_on_c, 15, 79, 0
13, 93299, Note_on_c, 15, 60, 0
13, 93299, Note_on_c, 15, 76, 0
13, 93299, Note_on_c, 15, 72, 0
13, 93300, Note_on_c, 15, 62, 76
13, 93300, Note_on_c, 15, 74, 76
13, 93300, Note_on_c, 15, 81, 76
13, 93300, Note_on_c, 15, 78, 76
13, 93359, Note_on_c, 15, 62, 0
13, 93359, Note_on_c, 15, 74, 0
13, 93359, Note_on_c, 15, 81, 0
13, 93359, Note_on_c, 15, 78, 0
13, 93360, Note_on_c, 15, 76, 76
13, 93360, Note_on_c, 15, 79, 76
13, 93360, Note_on_c, 15, 64, 76
13, 93360, Note_on_c, 15, 83, 76
13, 93479, Note_on_c, 15, 76, 0
13, 93479, Note_on_c, 15, 79, 0
13, 93479, Note_on_c, 15, 64, 0
13, 93479, Note_on_c, 15, 83, 0
13, 93480, Note_on_c, 15, 60, 76
13, 93480, Note_on_c, 15, 72, 76
13, 93480, Note_on_c, 15, 79, 76
13, 93480, Note_on_c, 15, 76, 76
13, 93599, Note_on_c, 15, 60, 0
13, 93599, Note_on_c, 15, 72, 0
13, 93599, Note_on_c, 15, 79, 0
13, 93599, Note_on_c, 15, 76, 0
13, 93600, Note_on_c, 15, 79, 76
13, 93600, Note_on_c, 15, 57, 76
13, 93600, Note_on_c, 15, 69, 76
13, 93600, Note_on_c, 15, 72, 76
13, 93600, Note_on_c, 15, 76, 76
13, 93719, Note_on_c, 15, 79, 0
13, 93719, Note_on_c, 15, 57, 0
13, 93719, Note_on_c, 15, 69, 0
13, 93719, Note_on_c, 15, 72, 0
13, 93719, Note_on_c, 15, 76, 0
13, 93720, Note_on_c, 15, 62, 76
13, 93720, Note_on_c, 15, 78, 76
13, 93720, Note_on_c, 15, 81, 76
13, 93720, Note_on_c, 15, 74, 76
13, 93839, Note_on_c, 15, 62, 0
13, 93839, Note_on_c, 15, 78, 0
13, 93839, Note_on_c, 15, 81, 0
13, 93839, Note_on_c, 15, 74, 0
13, 93840, Note_on_c, 15, 69, 76
13, 93840, Note_on_c, 15, 62, 76
13, 93840, Note_on_c, 15, 66, 76
13, 93840, Note_on_c, 15, 50, 76
13, 93959, Note_on_c, 15, 69, 0
13, 93959, Note_on_c, 15, 62, 0
13, 93959, Note_on_c, 15, 66, 0
13, 93959, Note_on_c, 15, 50, 0
13, 93960, Note_on_c, 15, 79, 76
13, 93960, Note_on_c, 15, 60, 76
13, 93960, Note_on_c, 15, 72, 76
13, 93960, Note_on_c, 15, 76, 76
13, 94079, Note_on_c, 15, 79, 0
13, 94079, Note_on_c, 15, 60, 0
13, 94079, Note_on_c, 15, 72, 0
13, 94079, Note_on_c, 15, 76, 0
13, 94080, Note_on_c, 15, 79, 76
13, 94080, Note_on_c, 15, 74, 76
13, 94080, Note_on_c, 15, 59, 76
13, 94080, Note_on_c, 15, 71, 76
13, 94139, Note_on_c, 15, 79, 0
13, 94139, Note_on_c, 15, 74, 0
13, 94139, Note_on_c, 15, 59, 0
13, 94139, Note_on_c, 15, 71, 0
13, 94140, Note_on_c, 15, 72, 76
13, 94140, Note_on_c, 15, 69, 76
13, 94140, Note_on_c, 15, 57, 76
13, 94140, Note_on_c, 15, 76, 76
13, 94199, Note_on_c, 15, 72, 0
13, 94199, Note_on_c, 15, 69, 0
13, 94199, Note_on_c, 15, 57, 0
13, 94199, Note_on_c, 15, 76, 0
13, 94200, Note_on_c, 15, 67, 76
13, 94200, Note_on_c, 15, 74, 76
13, 94200, Note_on_c, 15, 55, 76
13, 94200, Note_on_c, 15, 71, 76
13, 94259, Note_on_c, 15, 67, 0
13, 94259, Note_on_c, 15, 74, 0
13, 94259, Note_on_c, 15, 55, 0
13, 94259, Note_on_c, 15, 71, 0
13, 94260, Note_on_c, 15, 57, 76
13, 94260, Note_on_c, 15, 72, 76
13, 94260, Note_on_c, 15, 69, 76
13, 94260, Note_on_c, 15, 76, 76
13, 94319, Note_on_c, 15, 57, 0
13, 94319, Note_on_c, 15, 72, 0
13, 94319, Note_on_c, 15, 69, 0
13, 94319, Note_on_c, 15, 76, 0
13, 94320, Note_on_c, 15, 77, 76
13, 94320, Note_on_c, 15, 74, 76
13, 94320, Note_on_c, 15, 59, 76
13, 94320, Note_on_c, 15, 71, 76
13, 94379, Note_on_c, 15, 77, 0
13, 94379, Note_on_c, 15, 74, 0
13, 94379, Note_on_c, 15, 59, 0
13, 94379, Note_on_c, 15, 71, 0
13, 94380, Note_on_c, 15, 67, 76
13, 94380, Note_on_c, 15, 55, 76
13, 94380, Note_on_c, 15, 74, 76
13, 94380, Note_on_c, 15, 71, 76
13, 94439, Note_on_c, 15, 67, 0
13, 94439, Note_on_c, 15, 55, 0
13, 94439, Note_on_c, 15, 74, 0
13, 94439, Note_on_c, 15, 71, 0
13, 94440, Note_on_c, 15, 76, 76
13, 94440, Note_on_c, 15, 72, 76
13, 94440, Note_on_c, 15, 57, 76
13, 94440, Note_on_c, 15, 69, 76
13, 94499, Note_on_c, 15, 76, 0
13, 94499, Note_on_c, 15, 72, 0
13, 94499, Note_on_c, 15, 57, 0
13, 94499, Note_on_c, 15, 69, 0
13, 94500, Note_on_c, 15, 71, 76
13, 94500, Note_on_c, 15, 77, 76
13, 94500, Note_on_c, 15, 74, 76
13, 94500, Note_on_c, 15, 59, 76
13, 94559, Note_on_c, 15, 71, 0
13, 94559, Note_on_c, 15, 77, 0
13, 94559, Note_on_c, 15, 74, 0
13, 94559, Note_on_c, 15, 59, 0
13, 94560, Note_on_c, 15, 76, 76
13, 94560, Note_on_c, 15, 60, 76
13, 94560, Note_on_c, 15, 72, 76
13, 94560, Note_on_c, 15, 79, 76
13, 94619, Note_on_c, 15, 76, 0
13, 94619, Note_on_c, 15, 60, 0
13, 94619, Note_on_c, 15, 72, 0
13, 94619, Note_on_c, 15, 79, 0
13, 94620, Note_on_c, 15, 74, 76
13, 94620, Note_on_c, 15, 77, 76
13, 94620, Note_on_c, 15, 81, 76
13, 94620, Note_on_c, 15, 62, 76
13, 94679, Note_on_c, 15, 74, 0
13, 94679, Note_on_c, 15, 77, 0
13, 94679, Note_on_c, 15, 81, 0
13, 94679, Note_on_c, 15, 62, 0
13, 94680, Note_on_c, 15, 76, 76
13, 94680, Note_on_c, 15, 60, 76
13, 94680, Note_on_c, 15, 72, 76
13, 94680, Note_on_c, 15, 79, 76
13, 94739, Note_on_c, 15, 76, 0
13, 94739, Note_on_c, 15, 60, 0
13, 94739, Note_on_c, 15, 72, 0
13, 94739, Note_on_c, 15, 79, 0
13, 94740, Note_on_c, 15, 59, 76
13, 94740, Note_on_c, 15, 74, 76
13, 94740, Note_on_c, 15, 77, 76
13, 94740, Note_on_c, 15, 71, 76
13, 94799, Note_on_c, 15, 59, 0
13, 94799, Note_on_c, 15, 74, 0
13, 94799, Note_on_c, 15, 77, 0
13, 94799, Note_on_c, 15, 71, 0
13, 94800, Note_on_c, 15, 57, 76
13, 94800, Note_on_c, 15, 69, 76
13, 94800, Note_on_c, 15, 77, 76
13, 94800, Note_on_c, 15, 72, 76
13, 94859, Note_on_c, 15, 57, 0
13, 94859, Note_on_c, 15, 69, 0
13, 94859, Note_on_c, 15, 77, 0
13, 94859, Note_on_c, 15, 72, 0
13, 94860, Note_on_c, 15, 74, 76
13, 94860, Note_on_c, 15, 55, 76
13, 94860, Note_on_c, 15, 67, 76
13, 94860, Note_on_c, 15, 71, 76
13, 94919, Note_on_c, 15, 74, 0
13, 94919, Note_on_c, 15, 55, 0
13, 94919, Note_on_c, 15, 67, 0
13, 94919, Note_on_c, 15, 71, 0
13, 94920, Note_on_c, 15, 53, 76
13, 94920, Note_on_c, 15, 69, 76
13, 94920, Note_on_c, 15, 72, 76
13, 94920, Note_on_c, 15, 65, 76
13, 94979, Note_on_c, 15, 53, 0
13, 94979, Note_on_c, 15, 69, 0
13, 94979, Note_on_c, 15, 72, 0
13, 94979, Note_on_c, 15, 65, 0
13, 94980, Note_on_c, 15, 64, 76
13, 94980, Note_on_c, 15, 52, 76
13, 94980, Note_on_c, 15, 67, 76
13, 94980, Note_on_c, 15, 72, 76
13, 95039, Note_on_c, 15, 64, 0
13, 95039, Note_on_c, 15, 52, 0
13, 95039, Note_on_c, 15, 67, 0
13, 95039, Note_on_c, 15, 72, 0
13, 95040, Note_on_c, 15, 65, 76
13, 95040, Note_on_c, 15, 69, 76
13, 95040, Note_on_c, 15, 62, 76
13, 95040, Note_on_c, 15, 50, 76
13, 95040, Note_on_c, 15, 72, 76
13, 95099, Note_on_c, 15, 65, 0
13, 95099, Note_on_c, 15, 69, 0
13, 95099, Note_on_c, 15, 62, 0
13, 95099, Note_on_c, 15, 50, 0
13, 95099, Note_on_c, 15, 72, 0
13, 95100, Note_on_c, 15, 65, 76
13, 95100, Note_on_c, 15, 72, 76
13, 95100, Note_on_c, 15, 53, 76
13, 95100, Note_on_c, 15, 69, 76
13, 95159, Note_on_c, 15, 65, 0
13, 95159, Note_on_c, 15, 72, 0
13, 95159, Note_on_c, 15, 53, 0
13, 95159, Note_on_c, 15, 69, 0
13, 95160, Note_on_c, 15, 64, 76
13, 95160, Note_on_c, 15, 71, 76
13, 95160, Note_on_c, 15, 67, 76
13, 95160, Note_on_c, 15, 52, 76
13, 95219, Note_on_c, 15, 64, 0
13, 95219, Note_on_c, 15, 71, 0
13, 95219, Note_on_c, 15, 67, 0
13, 95219, Note_on_c, 15, 52, 0
13, 95220, Note_on_c, 15, 65, 76
13, 95220, Note_on_c, 15, 53, 76
13, 95220, Note_on_c, 15, 69, 76
13, 95220, Note_on_c, 15, 72, 76
13, 95279, Note_on_c, 15, 65, 0
13, 95279, Note_on_c, 15, 53, 0
13, 95279, Note_on_c, 15, 69, 0
13, 95279, Note_on_c, 15, 72, 0
13, 95280, Note_on_c, 15, 67, 76
13, 95280, Note_on_c, 15, 70, 76
13, 95280, Note_on_c, 15, 74, 76
13, 95280, Note_on_c, 15, 77, 76
13, 95280, Note_on_c, 15, 55, 76
13, 95339, Note_on_c, 15, 67, 0
13, 95339, Note_on_c, 15, 70, 0
13, 95339, Note_on_c, 15, 74, 0
13, 95339, Note_on_c, 15, 77, 0
13, 95339, Note_on_c, 15, 55, 0
13, 95340, Note_on_c, 15, 65, 76
13, 95340, Note_on_c, 15, 53, 76
13, 95340, Note_on_c, 15, 69, 76
13, 95340, Note_on_c, 15, 72, 76
13, 95399, Note_on_c, 15, 65, 0
13, 95399, Note_on_c, 15, 53, 0
13, 95399, Note_on_c, 15, 69, 0
13, 95399, Note_on_c, 15, 72, 0
13, 95400, Note_on_c, 15, 70, 76
13, 95400, Note_on_c, 15, 52, 76
13, 95400, Note_on_c, 15, 64, 76
13, 95400, Note_on_c, 15, 67, 76
13, 95459, Note_on_c, 15, 70, 0
13, 95459, Note_on_c, 15, 52, 0
13, 95459, Note_on_c, 15, 64, 0
13, 95459, Note_on_c, 15, 67, 0
13, 95460, Note_on_c, 15, 65, 76
13, 95460, Note_on_c, 15, 62, 76
13, 95460, Note_on_c, 15, 69, 76
13, 95460, Note_on_c, 15, 50, 76
13, 95519, Note_on_c, 15, 65, 0
13, 95519, Note_on_c, 15, 62, 0
13, 95519, Note_on_c, 15, 69, 0
13, 95519, Note_on_c, 15, 50, 0
13, 95520, Note_on_c, 15, 64, 76
13, 95520, Note_on_c, 15, 67, 76
13, 95520, Note_on_c, 15, 60, 76
13, 95520, Note_on_c, 15, 48, 76
13, 95520, Note_on_c, 15, 70, 76
13, 95579, Note_on_c, 15, 64, 0
13, 95579, Note_on_c, 15, 67, 0
13, 95579, Note_on_c, 15, 60, 0
13, 95579, Note_on_c, 15, 48, 0
13, 95579, Note_on_c, 15, 70, 0
13, 95580, Note_on_c, 15, 70, 76
13, 95580, Note_on_c, 15, 64, 76
13, 95580, Note_on_c, 15, 52, 76
13, 95580, Note_on_c, 15, 67, 76
13, 95639, Note_on_c, 15, 70, 0
13, 95639, Note_on_c, 15, 64, 0
13, 95639, Note_on_c, 15, 52, 0
13, 95639, Note_on_c, 15, 67, 0
13, 95640, Note_on_c, 15, 50, 76
13, 95640, Note_on_c, 15, 65, 76
13, 95640, Note_on_c, 15, 69, 76
13, 95640, Note_on_c, 15, 62, 76
13, 95699, Note_on_c, 15, 50, 0
13, 95699, Note_on_c, 15, 65, 0
13, 95699, Note_on_c, 15, 69, 0
13, 95699, Note_on_c, 15, 62, 0
13, 95700, Note_on_c, 15, 70, 76
13, 95700, Note_on_c, 15, 67, 76
13, 95700, Note_on_c, 15, 64, 76
13, 95700, Note_on_c, 15, 52, 76
13, 95759, Note_on_c, 15, 70, 0
13, 95759, Note_on_c, 15, 67, 0
13, 95759, Note_on_c, 15, 64, 0
13, 95759, Note_on_c, 15, 52, 0
13, 95760, Note_on_c, 15, 69, 76
13, 95760, Note_on_c, 15, 76, 76
13, 95760, Note_on_c, 15, 53, 76
13, 95760, Note_on_c, 15, 65, 76
13, 95760, Note_on_c, 15, 72, 76
13, 95819, Note_on_c, 15, 69, 0
13, 95819, Note_on_c, 15, 76, 0
13, 95819, Note_on_c, 15, 53, 0
13, 95819, Note_on_c, 15, 65, 0
13, 95819, Note_on_c, 15, 72, 0
13, 95820, Note_on_c, 15, 67, 76
13, 95820, Note_on_c, 15, 70, 76
13, 95820, Note_on_c, 15, 52, 76
13, 95820, Note_on_c, 15, 64, 76
13, 95879, Note_on_c, 15, 67, 0
13, 95879, Note_on_c, 15, 70, 0
13, 95879, Note_on_c, 15, 52, 0
13, 95879, Note_on_c, 15, 64, 0
13, 95880, Note_on_c, 15, 50, 76
13, 95880, Note_on_c, 15, 69, 76
13, 95880, Note_on_c, 15, 65, 76
13, 95880, Note_on_c, 15, 62, 76
13, 95939, Note_on_c, 15, 50, 0
13, 95939, Note_on_c, 15, 69, 0
13, 95939, Note_on_c, 15, 65, 0
13, 95939, Note_on_c, 15, 62, 0
13, 95940, Note_on_c, 15, 64, 76
13, 95940, Note_on_c, 15, 48, 76
13, 95940, Note_on_c, 15, 60, 76
13, 95940, Note_on_c, 15, 67, 76
13, 95999, Note_on_c, 15, 64, 0
13, 95999, Note_on_c, 15, 48, 0
13, 95999, Note_on_c, 15, 60, 0
13, 95999, Note_on_c, 15, 67, 0
13, 96000, Note_on_c, 15, 69, 76
13, 96000, Note_on_c, 15, 62, 76
13, 96000, Note_on_c, 15, 59, 76
13, 96000, Note_on_c, 15, 65, 76
13, 96000, Note_on_c, 15, 47, 76
13, 96059, Note_on_c, 15, 69, 0
13, 96059, Note_on_c, 15, 62, 0
13, 96059, Note_on_c, 15, 59, 0
13, 96059, Note_on_c, 15, 65, 0
13, 96059, Note_on_c, 15, 47, 0
13, 96060, Note_on_c, 15, 69, 76
13, 96060, Note_on_c, 15, 50, 76
13, 96060, Note_on_c, 15, 65, 76
13, 96060, Note_on_c, 15, 62, 76
13, 96119, Note_on_c, 15, 69, 0
13, 96119, Note_on_c, 15, 50, 0
13, 96119, Note_on_c, 15, 65, 0
13, 96119, Note_on_c, 15, 62, 0
13, 96120, Note_on_c, 15, 48, 76
13, 96120, Note_on_c, 15, 67, 76
13, 96120, Note_on_c, 15, 64, 76
13, 96120, Note_on_c, 15, 60, 76
13, 96179, Note_on_c, 15, 48, 0
13, 96179, Note_on_c, 15, 67, 0
13, 96179, Note_on_c, 15, 64, 0
13, 96179, Note_on_c, 15, 60, 0
13, 96180, Note_on_c, 15, 50, 76
13, 96180, Note_on_c, 15, 69, 76
13, 96180, Note_on_c, 15, 65, 76
13, 96180, Note_on_c, 15, 62, 76
13, 96239, Note_on_c, 15, 50, 0
13, 96239, Note_on_c, 15, 69, 0
13, 96239, Note_on_c, 15, 65, 0
13, 96239, Note_on_c, 15, 62, 0
13, 96240, Note_on_c, 15, 64, 76
13, 96240, Note_on_c, 15, 52, 76
13, 96240, Note_on_c, 15, 74, 76
13, 96240, Note_on_c, 15, 67, 76
13, 96240, Note_on_c, 15, 71, 76
13, 96299, Note_on_c, 15, 64, 0
13, 96299, Note_on_c, 15, 52, 0
13, 96299, Note_on_c, 15, 74, 0
13, 96299, Note_on_c, 15, 67, 0
13, 96299, Note_on_c, 15, 71, 0
13, 96300, Note_on_c, 15, 65, 76
13, 96300, Note_on_c, 15, 50, 76
13, 96300, Note_on_c, 15, 69, 76
13, 96300, Note_on_c, 15, 62, 76
13, 96359, Note_on_c, 15, 65, 0
13, 96359, Note_on_c, 15, 50, 0
13, 96359, Note_on_c, 15, 69, 0
13, 96359, Note_on_c, 15, 62, 0
13, 96360, Note_on_c, 15, 48, 76
13, 96360, Note_on_c, 15, 67, 76
13, 96360, Note_on_c, 15, 64, 76
13, 96360, Note_on_c, 15, 60, 76
13, 96419, Note_on_c, 15, 48, 0
13, 96419, Note_on_c, 15, 67, 0
13, 96419, Note_on_c, 15, 64, 0
13, 96419, Note_on_c, 15, 60, 0
13, 96420, Note_on_c, 15, 62, 76
13, 96420, Note_on_c, 15, 65, 76
13, 96420, Note_on_c, 15, 47, 76
13, 96420, Note_on_c, 15, 59, 76
13, 96479, Note_on_c, 15, 62, 0
13, 96479, Note_on_c, 15, 65, 0
13, 96479, Note_on_c, 15, 47, 0
13, 96479, Note_on_c, 15, 59, 0
13, 96480, Note_on_c, 15, 64, 76
13, 96480, Note_on_c, 15, 57, 76
13, 96480, Note_on_c, 15, 45, 76
13, 96480, Note_on_c, 15, 67, 76
13, 96480, Note_on_c, 15, 60, 76
13, 96539, Note_on_c, 15, 64, 0
13, 96539, Note_on_c, 15, 57, 0
13, 96539, Note_on_c, 15, 45, 0
13, 96539, Note_on_c, 15, 67, 0
13, 96539, Note_on_c, 15, 60, 0
13, 96540, Note_on_c, 15, 67, 76
13, 96540, Note_on_c, 15, 60, 76
13, 96540, Note_on_c, 15, 48, 76
13, 96540, Note_on_c, 15, 64, 76
13, 96599, Note_on_c, 15, 67, 0
13, 96599, Note_on_c, 15, 60, 0
13, 96599, Note_on_c, 15, 48, 0
13, 96599, Note_on_c, 15, 64, 0
13, 96600, Note_on_c, 15, 62, 76
13, 96600, Note_on_c, 15, 47, 76
13, 96600, Note_on_c, 15, 59, 76
13, 96600, Note_on_c, 15, 65, 76
13, 96659, Note_on_c, 15, 62, 0
13, 96659, Note_on_c, 15, 47, 0
13, 96659, Note_on_c, 15, 59, 0
13, 96659, Note_on_c, 15, 65, 0
13, 96660, Note_on_c, 15, 64, 76
13, 96660, Note_on_c, 15, 60, 76
13, 96660, Note_on_c, 15, 67, 76
13, 96660, Note_on_c, 15, 48, 76
13, 96719, Note_on_c, 15, 64, 0
13, 96719, Note_on_c, 15, 60, 0
13, 96719, Note_on_c, 15, 67, 0
13, 96719, Note_on_c, 15, 48, 0
13, 96720, Note_on_c, 15, 50, 76
13, 96720, Note_on_c, 15, 65, 76
13, 96720, Note_on_c, 15, 69, 76
13, 96720, Note_on_c, 15, 72, 76
13, 96720, Note_on_c, 15, 62, 76
13, 96779, Note_on_c, 15, 50, 0
13, 96779, Note_on_c, 15, 65, 0
13, 96779, Note_on_c, 15, 69, 0
13, 96779, Note_on_c, 15, 72, 0
13, 96779, Note_on_c, 15, 62, 0
13, 96780, Note_on_c, 15, 67, 76
13, 96780, Note_on_c, 15, 48, 76
13, 96780, Note_on_c, 15, 60, 76
13, 96780, Note_on_c, 15, 64, 76
13, 96839, Note_on_c, 15, 67, 0
13, 96839, Note_on_c, 15, 48, 0
13, 96839, Note_on_c, 15, 60, 0
13, 96839, Note_on_c, 15, 64, 0
13, 96840, Note_on_c, 15, 65, 76
13, 96840, Note_on_c, 15, 47, 76
13, 96840, Note_on_c, 15, 62, 76
13, 96840, Note_on_c, 15, 59, 76
13, 96899, Note_on_c, 15, 65, 0
13, 96899, Note_on_c, 15, 47, 0
13, 96899, Note_on_c, 15, 62, 0
13, 96899, Note_on_c, 15, 59, 0
13, 96900, Note_on_c, 15, 57, 76
13, 96900, Note_on_c, 15, 45, 76
13, 96900, Note_on_c, 15, 64, 76
13, 96900, Note_on_c, 15, 60, 76
13, 96959, Note_on_c, 15, 57, 0
13, 96959, Note_on_c, 15, 45, 0
13, 96959, Note_on_c, 15, 64, 0
13, 96959, Note_on_c, 15, 60, 0
13, 96960, Note_on_c, 15, 65, 76
13, 96960, Note_on_c, 15, 55, 76
13, 96960, Note_on_c, 15, 59, 76
13, 96960, Note_on_c, 15, 62, 76
13, 96960, Note_on_c, 15, 43, 76
13, 97079, Note_on_c, 15, 65, 0
13, 97079, Note_on_c, 15, 55, 0
13, 97079, Note_on_c, 15, 59, 0
13, 97079, Note_on_c, 15, 62, 0
13, 97079, Note_on_c, 15, 43, 0
13, 97080, Note_on_c, 15, 55, 76
13, 97080, Note_on_c, 15, 67, 76
13, 97080, Note_on_c, 15, 74, 76
13, 97080, Note_on_c, 15, 71, 76
13, 97199, Note_on_c, 15, 55, 0
13, 97199, Note_on_c, 15, 67, 0
13, 97199, Note_on_c, 15, 74, 0
13, 97199, Note_on_c, 15, 71, 0
13, 97200, Note_on_c, 15, 71, 76
13, 97200, Note_on_c, 15, 74, 76
13, 97200, Note_on_c, 15, 55, 76
13, 97200, Note_on_c, 15, 67, 76
13, 97319, Note_on_c, 15, 71, 0
13, 97319, Note_on_c, 15, 74, 0
13, 97319, Note_on_c, 15, 55, 0
13, 97319, Note_on_c, 15, 67, 0
13, 97320, Note_on_c, 15, 74, 76
13, 97320, Note_on_c, 15, 71, 76
13, 97320, Note_on_c, 15, 67, 76
13, 97320, Note_on_c, 15, 55, 76
13, 97439, Note_on_c, 15, 74, 0
13, 97439, Note_on_c, 15, 71, 0
13, 97439, Note_on_c, 15, 67, 0
13, 97439, Note_on_c, 15, 55, 0
13, 97440, Note_on_c, 15, 67, 76
13, 97440, Note_on_c, 15, 72, 76
13, 97440, Note_on_c, 15, 52, 76
13, 97440, Note_on_c, 15, 64, 76
13, 97559, Note_on_c, 15, 67, 0
13, 97559, Note_on_c, 15, 72, 0
13, 97559, Note_on_c, 15, 52, 0
13, 97559, Note_on_c, 15, 64, 0
13, 97560, Note_on_c, 15, 72, 76
13, 97560, Note_on_c, 15, 69, 76
13, 97560, Note_on_c, 15, 53, 76
13, 97560, Note_on_c, 15, 65, 76
13, 97619, Note_on_c, 15, 72, 0
13, 97619, Note_on_c, 15, 69, 0
13, 97619, Note_on_c, 15, 53, 0
13, 97619, Note_on_c, 15, 65, 0
13, 97620, Note_on_c, 15, 67, 76
13, 97620, Note_on_c, 15, 71, 76
13, 97620, Note_on_c, 15, 55, 76
13, 97620, Note_on_c, 15, 74, 76
13, 97679, Note_on_c, 15, 67, 0
13, 97679, Note_on_c, 15, 71, 0
13, 97679, Note_on_c, 15, 55, 0
13, 97679, Note_on_c, 15, 74, 0
13, 97680, Note_on_c, 15, 77, 76
13, 97680, Note_on_c, 15, 57, 76
13, 97680, Note_on_c, 15, 69, 76
13, 97680, Note_on_c, 15, 72, 76
13, 97799, Note_on_c, 15, 77, 0
13, 97799, Note_on_c, 15, 57, 0
13, 97799, Note_on_c, 15, 69, 0
13, 97799, Note_on_c, 15, 72, 0
13, 97800, Note_on_c, 15, 53, 76
13, 97800, Note_on_c, 15, 69, 76
13, 97800, Note_on_c, 15, 65, 76
13, 97800, Note_on_c, 15, 74, 76
13, 97919, Note_on_c, 15, 53, 0
13, 97919, Note_on_c, 15, 69, 0
13, 97919, Note_on_c, 15, 65, 0
13, 97919, Note_on_c, 15, 74, 0
13, 97920, Note_on_c, 15, 62, 76
13, 97920, Note_on_c, 15, 50, 76
13, 97920, Note_on_c, 15, 65, 76
13, 97920, Note_on_c, 15, 71, 76
13, 98039, Note_on_c, 15, 62, 0
13, 98039, Note_on_c, 15, 50, 0
13, 98039, Note_on_c, 15, 65, 0
13, 98039, Note_on_c, 15, 71, 0
13, 98040, Note_on_c, 15, 74, 76
13, 98040, Note_on_c, 15, 67, 76
13, 98040, Note_on_c, 15, 71, 76
13, 98040, Note_on_c, 15, 55, 76
13, 98159, Note_on_c, 15, 74, 0
13, 98159, Note_on_c, 15, 67, 0
13, 98159, Note_on_c, 15, 71, 0
13, 98159, Note_on_c, 15, 55, 0
13, 98160, Note_on_c, 15, 62, 76
13, 98160, Note_on_c, 15, 43, 76
13, 98160, Note_on_c, 15, 59, 76
13, 98160, Note_on_c, 15, 55, 76
13, 98279, Note_on_c, 15, 62, 0
13, 98279, Note_on_c, 15, 43, 0
13, 98279, Note_on_c, 15, 59, 0
13, 98279, Note_on_c, 15, 55, 0
13, 98280, Note_on_c, 15, 71, 76
13, 98280, Note_on_c, 15, 65, 76
13, 98280, Note_on_c, 15, 74, 76
13, 98280, Note_on_c, 15, 67, 76
13, 98280, Note_on_c, 15, 53, 76
13, 98399, Note_on_c, 15, 71, 0
13, 98399, Note_on_c, 15, 65, 0
13, 98399, Note_on_c, 15, 74, 0
13, 98399, Note_on_c, 15, 67, 0
13, 98399, Note_on_c, 15, 53, 0
13, 98400, Note_on_c, 15, 72, 76
13, 98400, Note_on_c, 15, 67, 76
13, 98400, Note_on_c, 15, 52, 76
13, 98400, Note_on_c, 15, 64, 76
13, 98519, Note_on_c, 15, 72, 0
13, 98519, Note_on_c, 15, 67, 0
13, 98519, Note_on_c, 15, 52, 0
13, 98519, Note_on_c, 15, 64, 0
13, 98520, Note_on_c, 15, 48, 76
13, 98520, Note_on_c, 15, 67, 76
13, 98520, Note_on_c, 15, 64, 76
13, 98520, Note_on_c, 15, 60, 76
13, 98639, Note_on_c, 15, 48, 0
13, 98639, Note_on_c, 15, 67, 0
13, 98639, Note_on_c, 15, 64, 0
13, 98639, Note_on_c, 15, 60, 0
13, 98640, Note_on_c, 15, 55, 76
13, 98640, Note_on_c, 15, 71, 76
13, 98640, Note_on_c, 15, 74, 76
13, 98640, Note_on_c, 15, 67, 76
13, 98759, Note_on_c, 15, 55, 0
13, 98759, Note_on_c, 15, 71, 0
13, 98759, Note_on_c, 15, 74, 0
13, 98759, Note_on_c, 15, 67, 0
13, 98760, Note_on_c, 15, 43, 76
13, 98760, Note_on_c, 15, 64, 76
13, 98760, Note_on_c, 15, 60, 76
13, 98760, Note_on_c, 15, 55, 76
13, 98879, Note_on_c, 15, 43, 0
13, 98879, Note_on_c, 15, 64, 0
13, 98879, Note_on_c, 15, 60, 0
13, 98879, Note_on_c, 15, 55, 0
13, 98880, Note_on_c, 15, 48, 76
13, 98880, Note_on_c, 15, 67, 76
13, 98880, Note_on_c, 15, 60, 76
13, 98880, Note_on_c, 15, 64, 76
13, 99119, Note_on_c, 15, 48, 0
13, 99119, Note_on_c, 15, 67, 0
13, 99119, Note_on_c, 15, 60, 0
13, 99119, Note_on_c, 15, 64, 0
13, 101880, Note_on_c, 15, 76, 76
13, 101880, Note_on_c, 15, 72, 76
13, 101880, Note_on_c, 15, 79, 76
13, 101880, Note_on_c, 15, 60, 76
13, 101999, Note_on_c, 15, 76, 0
13, 101999, Note_on_c, 15, 72, 0
13, 101999, Note_on_c, 15, 79, 0
13, 101999, Note_on_c, 15, 60, 0
13, 102000, Note_on_c, 15, 76, 76
13, 102000, Note_on_c, 15, 72, 76
13, 102000, Note_on_c, 15, 60, 76
13, 102000, Note_on_c, 15, 81, 76
13, 102119, Note_on_c, 15, 76, 0
13, 102119, Note_on_c, 15, 72, 0
13, 102119, Note_on_c, 15, 60, 0
13, 102119, Note_on_c, 15, 81, 0
13, 102120, Note_on_c, 15, 60, 76
13, 102120, Note_on_c, 15, 76, 76
13, 102120, Note_on_c, 15, 79, 76
13, 102120, Note_on_c, 15, 72, 76
13, 102239, Note_on_c, 15, 60, 0
13, 102239, Note_on_c, 15, 76, 0
13, 102239, Note_on_c, 15, 79, 0
13, 102239, Note_on_c, 15, 72, 0
13, 102240, Note_on_c, 15, 59, 76
13, 102240, Note_on_c, 15, 74, 76
13, 102240, Note_on_c, 15, 81, 76
13, 102240, Note_on_c, 15, 71, 76
13, 102240, Note_on_c, 15, 77, 76
13, 102359, Note_on_c, 15, 59, 0
13, 102359, Note_on_c, 15, 74, 0
13, 102359, Note_on_c, 15, 81, 0
13, 102359, Note_on_c, 15, 71, 0
13, 102359, Note_on_c, 15, 77, 0
13, 102360, Note_on_c, 15, 60, 76
13, 102360, Note_on_c, 15, 79, 76
13, 102360, Note_on_c, 15, 76, 76
13, 102360, Note_on_c, 15, 72, 76
13, 102419, Note_on_c, 15, 60, 0
13, 102419, Note_on_c, 15, 79, 0
13, 102419, Note_on_c, 15, 76, 0
13, 102419, Note_on_c, 15, 72, 0
13, 102420, Note_on_c, 15, 74, 76
13, 102420, Note_on_c, 15, 62, 76
13, 102420, Note_on_c, 15, 77, 76
13, 102420, Note_on_c, 15, 81, 76
13, 102479, Note_on_c, 15, 74, 0
13, 102479, Note_on_c, 15, 62, 0
13, 102479, Note_on_c, 15, 77, 0
13, 102479, Note_on_c, 15, 81, 0
13, 102480, Note_on_c, 15, 79, 76
13, 102480, Note_on_c, 15, 64, 76
13, 102480, Note_on_c, 15, 76, 76
13, 102480, Note_on_c, 15, 83, 76
13, 102599, Note_on_c, 15, 79, 0
13, 102599, Note_on_c, 15, 64, 0
13, 102599, Note_on_c, 15, 76, 0
13, 102599, Note_on_c, 15, 83, 0
13, 102600, Note_on_c, 15, 76, 76
13, 102600, Note_on_c, 15, 60, 76
13, 102600, Note_on_c, 15, 79, 76
13, 102600, Note_on_c, 15, 72, 76
13, 102719, Note_on_c, 15, 76, 0
13, 102719, Note_on_c, 15, 60, 0
13, 102719, Note_on_c, 15, 79, 0
13, 102719, Note_on_c, 15, 72, 0
13, 102720, Note_on_c, 15, 79, 76
13, 102720, Note_on_c, 15, 57, 76
13, 102720, Note_on_c, 15, 76, 76
13, 102720, Note_on_c, 15, 72, 76
13, 102720, Note_on_c, 15, 69, 76
13, 102839, Note_on_c, 15, 79, 0
13, 102839, Note_on_c, 15, 57, 0
13, 102839, Note_on_c, 15, 76, 0
13, 102839, Note_on_c, 15, 72, 0
13, 102839, Note_on_c, 15, 69, 0
13, 102840, Note_on_c, 15, 81, 76
13, 102840, Note_on_c, 15, 77, 76
13, 102840, Note_on_c, 15, 74, 76
13, 102840, Note_on_c, 15, 62, 76
13, 102959, Note_on_c, 15, 81, 0
13, 102959, Note_on_c, 15, 77, 0
13, 102959, Note_on_c, 15, 74, 0
13, 102959, Note_on_c, 15, 62, 0
13, 102960, Note_on_c, 15, 62, 76
13, 102960, Note_on_c, 15, 50, 76
13, 102960, Note_on_c, 15, 69, 76
13, 102960, Note_on_c, 15, 65, 76
13, 103079, Note_on_c, 15, 62, 0
13, 103079, Note_on_c, 15, 50, 0
13, 103079, Note_on_c, 15, 69, 0
13, 103079, Note_on_c, 15, 65, 0
13, 103080, Note_on_c, 15, 76, 76
13, 103080, Note_on_c, 15, 79, 76
13, 103080, Note_on_c, 15, 60, 76
13, 103080, Note_on_c, 15, 72, 76
13, 103199, Note_on_c, 15, 76, 0
13, 103199, Note_on_c, 15, 79, 0
13, 103199, Note_on_c, 15, 60, 0
13, 103199, Note_on_c, 15, 72, 0
13, 103200, Note_on_c, 15, 71, 76
13, 103200, Note_on_c, 15, 77, 76
13, 103200, Note_on_c, 15, 59, 76
13, 103200, Note_on_c, 15, 74, 76
13, 103200, Note_on_c, 15, 79, 76
13, 103319, Note_on_c, 15, 71, 0
13, 103319, Note_on_c, 15, 77, 0
13, 103319, Note_on_c, 15, 59, 0
13, 103319, Note_on_c, 15, 74, 0
13, 103319, Note_on_c, 15, 79, 0
13, 103320, Note_on_c, 15, 55, 76
13, 103320, Note_on_c, 15, 71, 76
13, 103320, Note_on_c, 15, 74, 76
13, 103320, Note_on_c, 15, 67, 76
13, 103439, Note_on_c, 15, 55, 0
13, 103439, Note_on_c, 15, 71, 0
13, 103439, Note_on_c, 15, 74, 0
13, 103439, Note_on_c, 15, 67, 0
13, 103440, Note_on_c, 15, 76, 76
13, 103440, Note_on_c, 15, 60, 76
13, 103440, Note_on_c, 15, 72, 76
13, 103440, Note_on_c, 15, 79, 76
13, 103559, Note_on_c, 15, 76, 0
13, 103559, Note_on_c, 15, 60, 0
13, 103559, Note_on_c, 15, 72, 0
13, 103559, Note_on_c, 15, 79, 0
13, 103560, Note_on_c, 15, 67, 76
13, 103560, Note_on_c, 15, 60, 76
13, 103560, Note_on_c, 15, 48, 76
13, 103560, Note_on_c, 15, 64, 76
13, 103679, Note_on_c, 15, 67, 0
13, 103679, Note_on_c, 15, 60, 0
13, 103679, Note_on_c, 15, 48, 0
13, 103679, Note_on_c, 15, 64, 0
13, 103680, Note_on_c, 15, 65, 76
13, 103680, Note_on_c, 15, 53, 76
13, 103680, Note_on_c, 15, 72, 76
13, 103680, Note_on_c, 15, 69, 76
13, 103739, Note_on_c, 15, 65, 0
13, 103739, Note_on_c, 15, 53, 0
13, 103739, Note_on_c, 15, 72, 0
13, 103739, Note_on_c, 15, 69, 0
13, 103740, Note_on_c, 15, 76, 76
13, 103740, Note_on_c, 15, 69, 76
13, 103740, Note_on_c, 15, 57, 76
13, 103740, Note_on_c, 15, 72, 76
13, 103799, Note_on_c, 15, 76, 0
13, 103799, Note_on_c, 15, 69, 0
13, 103799, Note_on_c, 15, 57, 0
13, 103799, Note_on_c, 15, 72, 0
13, 103800, Note_on_c, 15, 74, 76
13, 103800, Note_on_c, 15, 67, 76
13, 103800, Note_on_c, 15, 70, 76
13, 103800, Note_on_c, 15, 55, 76
13, 103859, Note_on_c, 15, 74, 0
13, 103859, Note_on_c, 15, 67, 0
13, 103859, Note_on_c, 15, 70, 0
13, 103859, Note_on_c, 15, 55, 0
13, 103860, Note_on_c, 15, 76, 76
13, 103860, Note_on_c, 15, 72, 76
13, 103860, Note_on_c, 15, 57, 76
13, 103860, Note_on_c, 15, 69, 76
13, 103919, Note_on_c, 15, 76, 0
13, 103919, Note_on_c, 15, 72, 0
13, 103919, Note_on_c, 15, 57, 0
13, 103919, Note_on_c, 15, 69, 0
13, 103920, Note_on_c, 15, 74, 76
13, 103920, Note_on_c, 15, 81, 76
13, 103920, Note_on_c, 15, 58, 76
13, 103920, Note_on_c, 15, 77, 76
13, 103920, Note_on_c, 15, 70, 76
13, 103979, Note_on_c, 15, 74, 0
13, 103979, Note_on_c, 15, 81, 0
13, 103979, Note_on_c, 15, 58, 0
13, 103979, Note_on_c, 15, 77, 0
13, 103979, Note_on_c, 15, 70, 0
13, 103980, Note_on_c, 15, 57, 76
13, 103980, Note_on_c, 15, 72, 76
13, 103980, Note_on_c, 15, 76, 76
13, 103980, Note_on_c, 15, 69, 76
13, 104039, Note_on_c, 15, 57, 0
13, 104039, Note_on_c, 15, 72, 0
13, 104039, Note_on_c, 15, 76, 0
13, 104039, Note_on_c, 15, 69, 0
13, 104040, Note_on_c, 15, 70, 76
13, 104040, Note_on_c, 15, 55, 76
13, 104040, Note_on_c, 15, 74, 76
13, 104040, Note_on_c, 15, 67, 76
13, 104099, Note_on_c, 15, 70, 0
13, 104099, Note_on_c, 15, 55, 0
13, 104099, Note_on_c, 15, 74, 0
13, 104099, Note_on_c, 15, 67, 0
13, 104100, Note_on_c, 15, 69, 76
13, 104100, Note_on_c, 15, 65, 76
13, 104100, Note_on_c, 15, 53, 76
13, 104100, Note_on_c, 15, 72, 76
13, 104159, Note_on_c, 15, 69, 0
13, 104159, Note_on_c, 15, 65, 0
13, 104159, Note_on_c, 15, 53, 0
13, 104159, Note_on_c, 15, 72, 0
13, 104160, Note_on_c, 15, 70, 76
13, 104160, Note_on_c, 15, 64, 76
13, 104160, Note_on_c, 15, 52, 76
13, 104160, Note_on_c, 15, 67, 76
13, 104160, Note_on_c, 15, 74, 76
13, 104219, Note_on_c, 15, 70, 0
13, 104219, Note_on_c, 15, 64, 0
13, 104219, Note_on_c, 15, 52, 0
13, 104219, Note_on_c, 15, 67, 0
13, 104219, Note_on_c, 15, 74, 0
13, 104220, Note_on_c, 15, 67, 76
13, 104220, Note_on_c, 15, 74, 76
13, 104220, Note_on_c, 15, 55, 76
13, 104220, Note_on_c, 15, 70, 76
13, 104279, Note_on_c, 15, 67, 0
13, 104279, Note_on_c, 15, 74, 0
13, 104279, Note_on_c, 15, 55, 0
13, 104279, Note_on_c, 15, 70, 0
13, 104280, Note_on_c, 15, 69, 76
13, 104280, Note_on_c, 15, 53, 76
13, 104280, Note_on_c, 15, 65, 76
13, 104280, Note_on_c, 15, 72, 76
13, 104339, Note_on_c, 15, 69, 0
13, 104339, Note_on_c, 15, 53, 0
13, 104339, Note_on_c, 15, 65, 0
13, 104339, Note_on_c, 15, 72, 0
13, 104340, Note_on_c, 15, 70, 76
13, 104340, Note_on_c, 15, 67, 76
13, 104340, Note_on_c, 15, 55, 76
13, 104340, Note_on_c, 15, 74, 76
13, 104399, Note_on_c, 15, 70, 0
13, 104399, Note_on_c, 15, 67, 0
13, 104399, Note_on_c, 15, 55, 0
13, 104399, Note_on_c, 15, 74, 0
13, 104400, Note_on_c, 15, 57, 76
13, 104400, Note_on_c, 15, 79, 76
13, 104400, Note_on_c, 15, 76, 76
13, 104400, Note_on_c, 15, 69, 76
13, 104400, Note_on_c, 15, 72, 76
13, 104459, Note_on_c, 15, 57, 0
13, 104459, Note_on_c, 15, 79, 0
13, 104459, Note_on_c, 15, 76, 0
13, 104459, Note_on_c, 15, 69, 0
13, 104459, Note_on_c, 15, 72, 0
13, 104460, Note_on_c, 15, 55, 76
13, 104460, Note_on_c, 15, 74, 76
13, 104460, Note_on_c, 15, 67, 76
13, 104460, Note_on_c, 15, 70, 76
13, 104519, Note_on_c, 15, 55, 0
13, 104519, Note_on_c, 15, 74, 0
13, 104519, Note_on_c, 15, 67, 0
13, 104519, Note_on_c, 15, 70, 0
13, 104520, Note_on_c, 15, 53, 76
13, 104520, Note_on_c, 15, 72, 76
13, 104520, Note_on_c, 15, 69, 76
13, 104520, Note_on_c, 15, 65, 76
13, 104579, Note_on_c, 15, 53, 0
13, 104579, Note_on_c, 15, 72, 0
13, 104579, Note_on_c, 15, 69, 0
13, 104579, Note_on_c, 15, 65, 0
13, 104580, Note_on_c, 15, 67, 76
13, 104580, Note_on_c, 15, 70, 76
13, 104580, Note_on_c, 15, 52, 76
13, 104580, Note_on_c, 15, 64, 76
13, 104639, Note_on_c, 15, 67, 0
13, 104639, Note_on_c, 15, 70, 0
13, 104639, Note_on_c, 15, 52, 0
13, 104639, Note_on_c, 15, 64, 0
13, 104640, Note_on_c, 15, 50, 76
13, 104640, Note_on_c, 15, 65, 76
13, 104640, Note_on_c, 15, 69, 76
13, 104640, Note_on_c, 15, 62, 76
13, 104640, Note_on_c, 15, 72, 76
13, 104759, Note_on_c, 15, 50, 0
13, 104759, Note_on_c, 15, 65, 0
13, 104759, Note_on_c, 15, 69, 0
13, 104759, Note_on_c, 15, 62, 0
13, 104759, Note_on_c, 15, 72, 0
13, 104760, Note_on_c, 15, 67, 76
13, 104760, Note_on_c, 15, 71, 76
13, 104760, Note_on_c, 15, 64, 76
13, 104760, Note_on_c, 15, 52, 76
13, 104819, Note_on_c, 15, 67, 0
13, 104819, Note_on_c, 15, 71, 0
13, 104819, Note_on_c, 15, 64, 0
13, 104819, Note_on_c, 15, 52, 0
13, 104820, Note_on_c, 15, 53, 76
13, 104820, Note_on_c, 15, 72, 76
13, 104820, Note_on_c, 15, 65, 76
13, 104820, Note_on_c, 15, 69, 76
13, 104879, Note_on_c, 15, 53, 0
13, 104879, Note_on_c, 15, 72, 0
13, 104879, Note_on_c, 15, 65, 0
13, 104879, Note_on_c, 15, 69, 0
13, 104880, Note_on_c, 15, 67, 76
13, 104880, Note_on_c, 15, 74, 76
13, 104880, Note_on_c, 15, 71, 76
13, 104880, Note_on_c, 15, 55, 76
13, 104999, Note_on_c, 15, 67, 0
13, 104999, Note_on_c, 15, 74, 0
13, 104999, Note_on_c, 15, 71, 0
13, 104999, Note_on_c, 15, 55, 0
13, 105000, Note_on_c, 15, 43, 76
13, 105000, Note_on_c, 15, 55, 76
13, 105000, Note_on_c, 15, 59, 76
13, 105000, Note_on_c, 15, 62, 76
13, 105119, Note_on_c, 15, 43, 0
13, 105119, Note_on_c, 15, 55, 0
13, 105119, Note_on_c, 15, 59, 0
13, 105119, Note_on_c, 15, 62, 0
13, 105120, Note_on_c, 15, 64, 76
13, 105120, Note_on_c, 15, 48, 76
13, 105120, Note_on_c, 15, 60, 76
13, 105120, Note_on_c, 15, 67, 76
13, 105179, Note_on_c, 15, 64, 0
13, 105179, Note_on_c, 15, 48, 0
13, 105179, Note_on_c, 15, 60, 0
13, 105179, Note_on_c, 15, 67, 0
13, 105180, Note_on_c, 15, 55, 76
13, 105180, Note_on_c, 15, 71, 76
13, 105180, Note_on_c, 15, 67, 76
13, 105180, Note_on_c, 15, 74, 76
13, 105239, Note_on_c, 15, 55, 0
13, 105239, Note_on_c, 15, 71, 0
13, 105239, Note_on_c, 15, 67, 0
13, 105239, Note_on_c, 15, 74, 0
13, 105240, Note_on_c, 15, 72, 76
13, 105240, Note_on_c, 15, 69, 76
13, 105240, Note_on_c, 15, 76, 76
13, 105240, Note_on_c, 15, 57, 76
13, 105299, Note_on_c, 15, 72, 0
13, 105299, Note_on_c, 15, 69, 0
13, 105299, Note_on_c, 15, 76, 0
13, 105299, Note_on_c, 15, 57, 0
13, 105300, Note_on_c, 15, 74, 76
13, 105300, Note_on_c, 15, 71, 76
13, 105300, Note_on_c, 15, 59, 76
13, 105300, Note_on_c, 15, 77, 76
13, 105359, Note_on_c, 15, 74, 0
13, 105359, Note_on_c, 15, 71, 0
13, 105359, Note_on_c, 15, 59, 0
13, 105359, Note_on_c, 15, 77, 0
13, 105360, Note_on_c, 15, 60, 76
13, 105360, Note_on_c, 15, 81, 76
13, 105360, Note_on_c, 15, 76, 76
13, 105360, Note_on_c, 15, 72, 76
13, 105539, Note_on_c, 15, 60, 0
13, 105539, Note_on_c, 15, 81, 0
13, 105539, Note_on_c, 15, 76, 0
13, 105539, Note_on_c, 15, 72, 0
13, 105540, Note_on_c, 15, 60, 76
13, 105540, Note_on_c, 15, 72, 76
13, 105540, Note_on_c, 15, 79, 76
13, 105540, Note_on_c, 15, 76, 76
13, 105599, Note_on_c, 15, 60, 0
13, 105599, Note_on_c, 15, 72, 0
13, 105599, Note_on_c, 15, 79, 0
13, 105599, Note_on_c, 15, 76, 0
13, 105600, Note_on_c, 15, 72, 76
13, 105600, Note_on_c, 15, 77, 76
13, 105600, Note_on_c, 15, 60, 76
13, 105600, Note_on_c, 15, 81, 76
13, 105600, Note_on_c, 15, 74, 76
13, 105659, Note_on_c, 15, 72, 0
13, 105659, Note_on_c, 15, 77, 0
13, 105659, Note_on_c, 15, 60, 0
13, 105659, Note_on_c, 15, 81, 0
13, 105659, Note_on_c, 15, 74, 0
13, 105660, Note_on_c, 15, 77, 76
13, 105660, Note_on_c, 15, 59, 76
13, 105660, Note_on_c, 15, 74, 76
13, 105660, Note_on_c, 15, 71, 76
13, 105719, Note_on_c, 15, 77, 0
13, 105719, Note_on_c, 15, 59, 0
13, 105719, Note_on_c, 15, 74, 0
13, 105719, Note_on_c, 15, 71, 0
13, 105720, Note_on_c, 15, 79, 76
13, 105720, Note_on_c, 15, 72, 76
13, 105720, Note_on_c, 15, 76, 76
13, 105720, Note_on_c, 15, 60, 76
13, 105779, Note_on_c, 15, 79, 0
13, 105779, Note_on_c, 15, 72, 0
13, 105779, Note_on_c, 15, 76, 0
13, 105779, Note_on_c, 15, 60, 0
13, 105780, Note_on_c, 15, 57, 76
13, 105780, Note_on_c, 15, 69, 76
13, 105780, Note_on_c, 15, 72, 76
13, 105780, Note_on_c, 15, 76, 76
13, 105839, Note_on_c, 15, 57, 0
13, 105839, Note_on_c, 15, 69, 0
13, 105839, Note_on_c, 15, 72, 0
13, 105839, Note_on_c, 15, 76, 0
13, 105840, Note_on_c, 15, 79, 76
13, 105840, Note_on_c, 15, 71, 76
13, 105840, Note_on_c, 15, 74, 76
13, 105840, Note_on_c, 15, 59, 76
13, 106019, Note_on_c, 15, 79, 0
13, 106019, Note_on_c, 15, 71, 0
13, 106019, Note_on_c, 15, 74, 0
13, 106019, Note_on_c, 15, 59, 0
13, 106020, Note_on_c, 15, 74, 76
13, 106020, Note_on_c, 15, 77, 76
13, 106020, Note_on_c, 15, 71, 76
13, 106020, Note_on_c, 15, 59, 76
13, 106079, Note_on_c, 15, 74, 0
13, 106079, Note_on_c, 15, 77, 0
13, 106079, Note_on_c, 15, 71, 0
13, 106079, Note_on_c, 15, 59, 0
13, 106080, Note_on_c, 15, 71, 76
13, 106080, Note_on_c, 15, 76, 76
13, 106080, Note_on_c, 15, 72, 76
13, 106080, Note_on_c, 15, 79, 76
13, 106080, Note_on_c, 15, 59, 76
13, 106199, Note_on_c, 15, 71, 0
13, 106199, Note_on_c, 15, 76, 0
13, 106199, Note_on_c, 15, 72, 0
13, 106199, Note_on_c, 15, 79, 0
13, 106199, Note_on_c, 15, 59, 0
13, 106200, Note_on_c, 15, 64, 76
13, 106200, Note_on_c, 15, 67, 76
13, 106200, Note_on_c, 15, 71, 76
13, 106200, Note_on_c, 15, 52, 76
13, 106319, Note_on_c, 15, 64, 0
13, 106319, Note_on_c, 15, 67, 0
13, 106319, Note_on_c, 15, 71, 0
13, 106319, Note_on_c, 15, 52, 0
13, 106320, Note_on_c, 15, 72, 76
13, 106320, Note_on_c, 15, 69, 76
13, 106320, Note_on_c, 15, 77, 76
13, 106320, Note_on_c, 15, 57, 76
13, 106499, Note_on_c, 15, 72, 0
13, 106499, Note_on_c, 15, 69, 0
13, 106499, Note_on_c, 15, 77, 0
13, 106499, Note_on_c, 15, 57, 0
13, 106500, Note_on_c, 15, 72, 76
13, 106500, Note_on_c, 15, 69, 76
13, 106500, Note_on_c, 15, 57, 76
13, 106500, Note_on_c, 15, 76, 76
13, 106559, Note_on_c, 15, 72, 0
13, 106559, Note_on_c, 15, 69, 0
13, 106559, Note_on_c, 15, 57, 0
13, 106559, Note_on_c, 15, 76, 0
13, 106560, Note_on_c, 15, 69, 76
13, 106560, Note_on_c, 15, 71, 76
13, 106560, Note_on_c, 15, 77, 76
13, 106560, Note_on_c, 15, 74, 76
13, 106560, Note_on_c, 15, 57, 76
13, 106619, Note_on_c, 15, 69, 0
13, 106619, Note_on_c, 15, 71, 0
13, 106619, Note_on_c, 15, 77, 0
13, 106619, Note_on_c, 15, 74, 0
13, 106619, Note_on_c, 15, 57, 0
13, 106620, Note_on_c, 15, 71, 76
13, 106620, Note_on_c, 15, 74, 76
13, 106620, Note_on_c, 15, 67, 76
13, 106620, Note_on_c, 15, 55, 76
13, 106679, Note_on_c, 15, 71, 0
13, 106679, Note_on_c, 15, 74, 0
13, 106679, Note_on_c, 15, 67, 0
13, 106679, Note_on_c, 15, 55, 0
13, 106680, Note_on_c, 15, 57, 76
13, 106680, Note_on_c, 15, 72, 76
13, 106680, Note_on_c, 15, 76, 76
13, 106680, Note_on_c, 15, 69, 76
13, 106739, Note_on_c, 15, 57, 0
13, 106739, Note_on_c, 15, 72, 0
13, 106739, Note_on_c, 15, 76, 0
13, 106739, Note_on_c, 15, 69, 0
13, 106740, Note_on_c, 15, 69, 76
13, 106740, Note_on_c, 15, 72, 76
13, 106740, Note_on_c, 15, 53, 76
13, 106740, Note_on_c, 15, 65, 76
13, 106799, Note_on_c, 15, 69, 0
13, 106799, Note_on_c, 15, 72, 0
13, 106799, Note_on_c, 15, 53, 0
13, 106799, Note_on_c, 15, 65, 0
13, 106800, Note_on_c, 15, 55, 76
13, 106800, Note_on_c, 15, 67, 76
13, 106800, Note_on_c, 15, 76, 76
13, 106800, Note_on_c, 15, 71, 76
13, 106979, Note_on_c, 15, 55, 0
13, 106979, Note_on_c, 15, 67, 0
13, 106979, Note_on_c, 15, 76, 0
13, 106979, Note_on_c, 15, 71, 0
13, 106980, Note_on_c, 15, 74, 76
13, 106980, Note_on_c, 15, 67, 76
13, 106980, Note_on_c, 15, 55, 76
13, 106980, Note_on_c, 15, 71, 76
13, 107039, Note_on_c, 15, 74, 0
13, 107039, Note_on_c, 15, 67, 0
13, 107039, Note_on_c, 15, 55, 0
13, 107039, Note_on_c, 15, 71, 0
13, 107040, Note_on_c, 15, 69, 76
13, 107040, Note_on_c, 15, 67, 76
13, 107040, Note_on_c, 15, 72, 76
13, 107040, Note_on_c, 15, 55, 76
13, 107040, Note_on_c, 15, 76, 76
13, 107159, Note_on_c, 15, 69, 0
13, 107159, Note_on_c, 15, 67, 0
13, 107159, Note_on_c, 15, 72, 0
13, 107159, Note_on_c, 15, 55, 0
13, 107159, Note_on_c, 15, 76, 0
13, 107160, Note_on_c, 15, 48, 76
13, 107160, Note_on_c, 15, 60, 76
13, 107160, Note_on_c, 15, 67, 76
13, 107160, Note_on_c, 15, 64, 76
13, 107279, Note_on_c, 15, 48, 0
13, 107279, Note_on_c, 15, 60, 0
13, 107279, Note_on_c, 15, 67, 0
13, 107279, Note_on_c, 15, 64, 0
13, 107280, Note_on_c, 15, 74, 76
13, 107280, Note_on_c, 15, 53, 76
13, 107280, Note_on_c, 15, 69, 76
13, 107280, Note_on_c, 15, 65, 76
13, 107459, Note_on_c, 15, 74, 0
13, 107459, Note_on_c, 15, 53, 0
13, 107459, Note_on_c, 15, 69, 0
13, 107459, Note_on_c, 15, 65, 0
13, 107460, Note_on_c, 15, 72, 76
13, 107460, Note_on_c, 15, 53, 76
13, 107460, Note_on_c, 15, 69, 76
13, 107460, Note_on_c, 15, 65, 76
13, 107519, Note_on_c, 15, 72, 0
13, 107519, Note_on_c, 15, 53, 0
13, 107519, Note_on_c, 15, 69, 0
13, 107519, Note_on_c, 15, 65, 0
13, 107520, Note_on_c, 15, 65, 76
13, 107520, Note_on_c, 15, 53, 76
13, 107520, Note_on_c, 15, 74, 76
13, 107520, Note_on_c, 15, 67, 76
13, 107520, Note_on_c, 15, 71, 76
13, 107579, Note_on_c, 15, 65, 0
13, 107579, Note_on_c, 15, 53, 0
13, 107579, Note_on_c, 15, 74, 0
13, 107579, Note_on_c, 15, 67, 0
13, 107579, Note_on_c, 15, 71, 0
13, 107580, Note_on_c, 15, 71, 76
13, 107580, Note_on_c, 15, 52, 76
13, 107580, Note_on_c, 15, 67, 76
13, 107580, Note_on_c, 15, 64, 76
13, 107639, Note_on_c, 15, 71, 0
13, 107639, Note_on_c, 15, 52, 0
13, 107639, Note_on_c, 15, 67, 0
13, 107639, Note_on_c, 15, 64, 0
13, 107640, Note_on_c, 15, 65, 76
13, 107640, Note_on_c, 15, 72, 76
13, 107640, Note_on_c, 15, 69, 76
13, 107640, Note_on_c, 15, 53, 76
13, 107699, Note_on_c, 15, 65, 0
13, 107699, Note_on_c, 15, 72, 0
13, 107699, Note_on_c, 15, 69, 0
13, 107699, Note_on_c, 15, 53, 0
13, 107700, Note_on_c, 15, 50, 76
13, 107700, Note_on_c, 15, 69, 76
13, 107700, Note_on_c, 15, 62, 76
13, 107700, Note_on_c, 15, 65, 76
13, 107759, Note_on_c, 15, 50, 0
13, 107759, Note_on_c, 15, 69, 0
13, 107759, Note_on_c, 15, 62, 0
13, 107759, Note_on_c, 15, 65, 0
13, 107760, Note_on_c, 15, 52, 76
13, 107760, Note_on_c, 15, 64, 76
13, 107760, Note_on_c, 15, 67, 76
13, 107760, Note_on_c, 15, 71, 76
13, 107819, Note_on_c, 15, 52, 0
13, 107819, Note_on_c, 15, 64, 0
13, 107819, Note_on_c, 15, 67, 0
13, 107819, Note_on_c, 15, 71, 0
13, 107820, Note_on_c, 15, 65, 76
13, 107820, Note_on_c, 15, 53, 76
13, 107820, Note_on_c, 15, 72, 76
13, 107820, Note_on_c, 15, 69, 76
13, 107879, Note_on_c, 15, 65, 0
13, 107879, Note_on_c, 15, 53, 0
13, 107879, Note_on_c, 15, 72, 0
13, 107879, Note_on_c, 15, 69, 0
13, 107880, Note_on_c, 15, 67, 76
13, 107880, Note_on_c, 15, 74, 76
13, 107880, Note_on_c, 15, 71, 76
13, 107880, Note_on_c, 15, 55, 76
13, 107939, Note_on_c, 15, 67, 0
13, 107939, Note_on_c, 15, 74, 0
13, 107939, Note_on_c, 15, 71, 0
13, 107939, Note_on_c, 15, 55, 0
13, 107940, Note_on_c, 15, 64, 76
13, 107940, Note_on_c, 15, 71, 76
13, 107940, Note_on_c, 15, 67, 76
13, 107940, Note_on_c, 15, 52, 76
13, 107999, Note_on_c, 15, 64, 0
13, 107999, Note_on_c, 15, 71, 0
13, 107999, Note_on_c, 15, 67, 0
13, 107999, Note_on_c, 15, 52, 0
13, 108000, Note_on_c, 15, 72, 76
13, 108000, Note_on_c, 15, 69, 76
13, 108000, Note_on_c, 15, 57, 76
13, 108059, Note_on_c, 15, 72, 0
13, 108059, Note_on_c, 15, 69, 0
13, 108059, Note_on_c, 15, 57, 0
13, 108060, Note_on_c, 15, 70, 76
13, 108060, Note_on_c, 15, 77, 76
13, 108060, Note_on_c, 15, 74, 76
13, 108060, Note_on_c, 15, 58, 76
13, 108119, Note_on_c, 15, 70, 0
13, 108119, Note_on_c, 15, 77, 0
13, 108119, Note_on_c, 15, 74, 0
13, 108119, Note_on_c, 15, 58, 0
13, 108120, Note_on_c, 15, 76, 76
13, 108120, Note_on_c, 15, 72, 76
13, 108120, Note_on_c, 15, 69, 76
13, 108120, Note_on_c, 15, 57, 76
13, 108179, Note_on_c, 15, 76, 0
13, 108179, Note_on_c, 15, 72, 0
13, 108179, Note_on_c, 15, 69, 0
13, 108179, Note_on_c, 15, 57, 0
13, 108180, Note_on_c, 15, 74, 76
13, 108180, Note_on_c, 15, 70, 76
13, 108180, Note_on_c, 15, 55, 76
13, 108180, Note_on_c, 15, 67, 76
13, 108239, Note_on_c, 15, 74, 0
13, 108239, Note_on_c, 15, 70, 0
13, 108239, Note_on_c, 15, 55, 0
13, 108239, Note_on_c, 15, 67, 0
13, 108240, Note_on_c, 15, 65, 76
13, 108240, Note_on_c, 15, 72, 76
13, 108240, Note_on_c, 15, 69, 76
13, 108240, Note_on_c, 15, 53, 76
13, 108299, Note_on_c, 15, 65, 0
13, 108299, Note_on_c, 15, 72, 0
13, 108299, Note_on_c, 15, 69, 0
13, 108299, Note_on_c, 15, 53, 0
13, 108300, Note_on_c, 15, 64, 76
13, 108300, Note_on_c, 15, 70, 76
13, 108300, Note_on_c, 15, 67, 76
13, 108300, Note_on_c, 15, 52, 76
13, 108359, Note_on_c, 15, 64, 0
13, 108359, Note_on_c, 15, 70, 0
13, 108359, Note_on_c, 15, 67, 0
13, 108359, Note_on_c, 15, 52, 0
13, 108360, Note_on_c, 15, 65, 76
13, 108360, Note_on_c, 15, 50, 76
13, 108360, Note_on_c, 15, 62, 76
13, 108360, Note_on_c, 15, 69, 76
13, 108419, Note_on_c, 15, 65, 0
13, 108419, Note_on_c, 15, 50, 0
13, 108419, Note_on_c, 15, 62, 0
13, 108419, Note_on_c, 15, 69, 0
13, 108420, Note_on_c, 15, 60, 76
13, 108420, Note_on_c, 15, 64, 76
13, 108420, Note_on_c, 15, 48, 76
13, 108420, Note_on_c, 15, 67, 76
13, 108479, Note_on_c, 15, 60, 0
13, 108479, Note_on_c, 15, 64, 0
13, 108479, Note_on_c, 15, 48, 0
13, 108479, Note_on_c, 15, 67, 0
13, 108480, Note_on_c, 15, 67, 76
13, 108480, Note_on_c, 15, 59, 76
13, 108480, Note_on_c, 15, 62, 76
13, 108480, Note_on_c, 15, 47, 76
13, 108539, Note_on_c, 15, 67, 0
13, 108539, Note_on_c, 15, 59, 0
13, 108539, Note_on_c, 15, 62, 0
13, 108539, Note_on_c, 15, 47, 0
13, 108540, Note_on_c, 15, 64, 76
13, 108540, Note_on_c, 15, 45, 76
13, 108540, Note_on_c, 15, 57, 76
13, 108540, Note_on_c, 15, 60, 76
13, 108599, Note_on_c, 15, 64, 0
13, 108599, Note_on_c, 15, 45, 0
13, 108599, Note_on_c, 15, 57, 0
13, 108599, Note_on_c, 15, 60, 0
13, 108600, Note_on_c, 15, 59, 76
13, 108600, Note_on_c, 15, 43, 76
13, 108600, Note_on_c, 15, 55, 76
13, 108600, Note_on_c, 15, 62, 76
13, 108659, Note_on_c, 15, 59, 0
13, 108659, Note_on_c, 15, 43, 0
13, 108659, Note_on_c, 15, 55, 0
13, 108659, Note_on_c, 15, 62, 0
13, 108660, Note_on_c, 15, 45, 76
13, 108660, Note_on_c, 15, 57, 76
13, 108660, Note_on_c, 15, 64, 76
13, 108660, Note_on_c, 15, 60, 76
13, 108719, Note_on_c, 15, 45, 0
13, 108719, Note_on_c, 15, 57, 0
13, 108719, Note_on_c, 15, 64, 0
13, 108719, Note_on_c, 15, 60, 0
13, 108720, Note_on_c, 15, 62, 76
13, 108720, Note_on_c, 15, 47, 76
13, 108720, Note_on_c, 15, 65, 76
13, 108720, Note_on_c, 15, 59, 76
13, 108779, Note_on_c, 15, 62, 0
13, 108779, Note_on_c, 15, 47, 0
13, 108779, Note_on_c, 15, 65, 0
13, 108779, Note_on_c, 15, 59, 0
13, 108780, Note_on_c, 15, 60, 76
13, 108780, Note_on_c, 15, 57, 76
13, 108780, Note_on_c, 15, 45, 76
13, 108780, Note_on_c, 15, 64, 76
13, 108839, Note_on_c, 15, 60, 0
13, 108839, Note_on_c, 15, 57, 0
13, 108839, Note_on_c, 15, 45, 0
13, 108839, Note_on_c, 15, 64, 0
13, 108840, Note_on_c, 15, 59, 76
13, 108840, Note_on_c, 15, 62, 76
13, 108840, Note_on_c, 15, 47, 76
13, 108840, Note_on_c, 15, 65, 76
13, 108899, Note_on_c, 15, 59, 0
13, 108899, Note_on_c, 15, 62, 0
13, 108899, Note_on_c, 15, 47, 0
13, 108899, Note_on_c, 15, 65, 0
13, 108900, Note_on_c, 15, 55, 76
13, 108900, Note_on_c, 15, 59, 76
13, 108900, Note_on_c, 15, 62, 76
13, 108900, Note_on_c, 15, 43, 76
13, 108959, Note_on_c, 15, 55, 0
13, 108959, Note_on_c, 15, 59, 0
13, 108959, Note_on_c, 15, 62, 0
13, 108959, Note_on_c, 15, 43, 0
13, 108960, Note_on_c, 15, 48, 76
13, 108960, Note_on_c, 15, 60, 76
13, 108960, Note_on_c, 15, 64, 76
13, 108960, Note_on_c, 15, 67, 76
13, 109079, Note_on_c, 15, 48, 0
13, 109079, Note_on_c, 15, 60, 0
13, 109079, Note_on_c, 15, 64, 0
13, 109079, Note_on_c, 15, 67, 0
13, 109080, Note_on_c, 15, 65, 76
13, 109080, Note_on_c, 15, 69, 76
13, 109080, Note_on_c, 15, 53, 76
13, 109080, Note_on_c, 15, 72, 76
13, 109199, Note_on_c, 15, 65, 0
13, 109199, Note_on_c, 15, 69, 0
13, 109199, Note_on_c, 15, 53, 0
13, 109199, Note_on_c, 15, 72, 0
13, 109200, Note_on_c, 15, 67, 76
13, 109200, Note_on_c, 15, 71, 76
13, 109200, Note_on_c, 15, 55, 76
13, 109200, Note_on_c, 15, 74, 76
13, 109319, Note_on_c, 15, 67, 0
13, 109319, Note_on_c, 15, 71, 0
13, 109319, Note_on_c, 15, 55, 0
13, 109319, Note_on_c, 15, 74, 0
13, 109320, Note_on_c, 15, 59, 76
13, 109320, Note_on_c, 15, 43, 76
13, 109320, Note_on_c, 15, 55, 76
13, 109320, Note_on_c, 15, 62, 76
13, 109439, Note_on_c, 15, 59, 0
13, 109439, Note_on_c, 15, 43, 0
13, 109439, Note_on_c, 15, 55, 0
13, 109439, Note_on_c, 15, 62, 0
13, 109440, Note_on_c, 15, 55, 76
13, 109440, Note_on_c, 15, 36, 76
13, 109440, Note_on_c, 15, 52, 76
13, 109440, Note_on_c, 15, 48, 76
13, 110039, Note_on_c, 15, 55, 0
13, 110039, Note_on_c, 15, 36, 0
13, 110039, Note_on_c, 15, 52, 0
13, 110039, Note_on_c, 15, 48, 0
13, 110040, Note_on_c, 15, 48, 76
13, 110040, Note_on_c, 15, 67, 76
13, 110040, Note_on_c, 15, 60, 76
13, 110040, Note_on_c, 15, 64, 76
13, 110099, Note_on_c, 15, 48, 0
13, 110099, Note_on_c, 15, 67, 0
13, 110099, Note_on_c, 15, 60, 0
13, 110099, Note_on_c, 15, 64, 0
13, 110100, Note_on_c, 15, 69, 76
13, 110100, Note_on_c, 15, 50, 76
13, 110100, Note_on_c, 15, 65, 76
13, 110100, Note_on_c, 15, 62, 76
13, 110159, Note_on_c, 15, 69, 0
13, 110159, Note_on_c, 15, 50, 0
13, 110159, Note_on_c, 15, 65, 0
13, 110159, Note_on_c, 15, 62, 0
13, 110160, Note_on_c, 15, 64, 76
13, 110160, Note_on_c, 15, 67, 76
13, 110160, Note_on_c, 15, 71, 76
13, 110160, Note_on_c, 15, 52, 76
13, 110219, Note_on_c, 15, 64, 0
13, 110219, Note_on_c, 15, 67, 0
13, 110219, Note_on_c, 15, 71, 0
13, 110219, Note_on_c, 15, 52, 0
13, 110220, Note_on_c, 15, 65, 76
13, 110220, Note_on_c, 15, 62, 76
13, 110220, Note_on_c, 15, 50, 76
13, 110220, Note_on_c, 15, 69, 76
13, 110279, Note_on_c, 15, 65, 0
13, 110279, Note_on_c, 15, 62, 0
13, 110279, Note_on_c, 15, 50, 0
13, 110279, Note_on_c, 15, 69, 0
13, 110280, Note_on_c, 15, 67, 76
13, 110280, Note_on_c, 15, 64, 76
13, 110280, Note_on_c, 15, 71, 76
13, 110280, Note_on_c, 15, 52, 76
13, 110339, Note_on_c, 15, 67, 0
13, 110339, Note_on_c, 15, 64, 0
13, 110339, Note_on_c, 15, 71, 0
13, 110339, Note_on_c, 15, 52, 0
13, 110340, Note_on_c, 15, 72, 76
13, 110340, Note_on_c, 15, 65, 76
13, 110340, Note_on_c, 15, 53, 76
13, 110340, Note_on_c, 15, 69, 76
13, 110399, Note_on_c, 15, 72, 0
13, 110399, Note_on_c, 15, 65, 0
13, 110399, Note_on_c, 15, 53, 0
13, 110399, Note_on_c, 15, 69, 0
13, 110400, Note_on_c, 15, 55, 76
13, 110400, Note_on_c, 15, 67, 76
13, 110400, Note_on_c, 15, 74, 76
13, 110400, Note_on_c, 15, 70, 76
13, 110699, Note_on_c, 15, 55, 0
13, 110699, Note_on_c, 15, 67, 0
13, 110699, Note_on_c, 15, 74, 0
13, 110699, Note_on_c, 15, 70, 0
13, 110700, Note_on_c, 15, 74, 76
13, 110700, Note_on_c, 15, 67, 76
13, 110700, Note_on_c, 15, 55, 76
13, 110700, Note_on_c, 15, 70, 76
13, 110759, Note_on_c, 15, 74, 0
13, 110759, Note_on_c, 15, 67, 0
13, 110759, Note_on_c, 15, 55, 0
13, 110759, Note_on_c, 15, 70, 0
13, 110760, Note_on_c, 15, 57, 76
13, 110760, Note_on_c, 15, 72, 76
13, 110760, Note_on_c, 15, 69, 76
13, 110760, Note_on_c, 15, 76, 76
13, 110819, Note_on_c, 15, 57, 0
13, 110819, Note_on_c, 15, 72, 0
13, 110819, Note_on_c, 15, 69, 0
13, 110819, Note_on_c, 15, 76, 0
13, 110820, Note_on_c, 15, 74, 76
13, 110820, Note_on_c, 15, 77, 76
13, 110820, Note_on_c, 15, 70, 76
13, 110820, Note_on_c, 15, 58, 76
13, 110879, Note_on_c, 15, 74, 0
13, 110879, Note_on_c, 15, 77, 0
13, 110879, Note_on_c, 15, 70, 0
13, 110879, Note_on_c, 15, 58, 0
13, 110880, Note_on_c, 15, 72, 76
13, 110880, Note_on_c, 15, 79, 76
13, 110880, Note_on_c, 15, 60, 76
13, 110880, Note_on_c, 15, 76, 76
13, 110939, Note_on_c, 15, 72, 0
13, 110939, Note_on_c, 15, 79, 0
13, 110939, Note_on_c, 15, 60, 0
13, 110939, Note_on_c, 15, 76, 0
13, 110940, Note_on_c, 15, 74, 76
13, 110940, Note_on_c, 15, 70, 76
13, 110940, Note_on_c, 15, 77, 76
13, 110940, Note_on_c, 15, 58, 76
13, 110999, Note_on_c, 15, 74, 0
13, 110999, Note_on_c, 15, 70, 0
13, 110999, Note_on_c, 15, 77, 0
13, 110999, Note_on_c, 15, 58, 0
13, 111000, Note_on_c, 15, 76, 76
13, 111000, Note_on_c, 15, 69, 76
13, 111000, Note_on_c, 15, 72, 76
13, 111000, Note_on_c, 15, 57, 76
13, 111059, Note_on_c, 15, 76, 0
13, 111059, Note_on_c, 15, 69, 0
13, 111059, Note_on_c, 15, 72, 0
13, 111059, Note_on_c, 15, 57, 0
13, 111060, Note_on_c, 15, 74, 76
13, 111060, Note_on_c, 15, 70, 76
13, 111060, Note_on_c, 15, 77, 76
13, 111060, Note_on_c, 15, 58, 76
13, 111119, Note_on_c, 15, 74, 0
13, 111119, Note_on_c, 15, 70, 0
13, 111119, Note_on_c, 15, 77, 0
13, 111119, Note_on_c, 15, 58, 0
13, 111120, Note_on_c, 15, 76, 76
13, 111120, Note_on_c, 15, 60, 76
13, 111120, Note_on_c, 15, 72, 76
13, 111120, Note_on_c, 15, 79, 76
13, 111179, Note_on_c, 15, 76, 0
13, 111179, Note_on_c, 15, 60, 0
13, 111179, Note_on_c, 15, 72, 0
13, 111179, Note_on_c, 15, 79, 0
13, 111180, Note_on_c, 15, 69, 76
13, 111180, Note_on_c, 15, 76, 76
13, 111180, Note_on_c, 15, 72, 76
13, 111180, Note_on_c, 15, 57, 76
13, 111239, Note_on_c, 15, 69, 0
13, 111239, Note_on_c, 15, 76, 0
13, 111239, Note_on_c, 15, 72, 0
13, 111239, Note_on_c, 15, 57, 0
13, 111240, Note_on_c, 15, 74, 76
13, 111240, Note_on_c, 15, 77, 76
13, 111240, Note_on_c, 15, 58, 76
13, 111240, Note_on_c, 15, 70, 76
13, 111299, Note_on_c, 15, 74, 0
13, 111299, Note_on_c, 15, 77, 0
13, 111299, Note_on_c, 15, 58, 0
13, 111299, Note_on_c, 15, 70, 0
13, 111300, Note_on_c, 15, 76, 76
13, 111300, Note_on_c, 15, 60, 76
13, 111300, Note_on_c, 15, 79, 76
13, 111300, Note_on_c, 15, 72, 76
13, 111359, Note_on_c, 15, 76, 0
13, 111359, Note_on_c, 15, 60, 0
13, 111359, Note_on_c, 15, 79, 0
13, 111359, Note_on_c, 15, 72, 0
13, 111360, Note_on_c, 15, 53, 76
13, 111360, Note_on_c, 15, 65, 76
13, 111360, Note_on_c, 15, 69, 76
13, 111360, Note_on_c, 15, 72, 76
13, 111539, Note_on_c, 15, 53, 0
13, 111539, Note_on_c, 15, 65, 0
13, 111539, Note_on_c, 15, 69, 0
13, 111539, Note_on_c, 15, 72, 0
13, 111540, Note_on_c, 15, 65, 76
13, 111540, Note_on_c, 15, 62, 76
13, 111540, Note_on_c, 15, 50, 76
13, 111540, Note_on_c, 15, 69, 76
13, 111569, Note_on_c, 15, 65, 0
13, 111569, Note_on_c, 15, 62, 0
13, 111569, Note_on_c, 15, 50, 0
13, 111569, Note_on_c, 15, 69, 0
13, 111570, Note_on_c, 15, 52, 76
13, 111570, Note_on_c, 15, 64, 76
13, 111570, Note_on_c, 15, 67, 76
13, 111570, Note_on_c, 15, 71, 76
13, 111599, Note_on_c, 15, 52, 0
13, 111599, Note_on_c, 15, 64, 0
13, 111599, Note_on_c, 15, 67, 0
13, 111599, Note_on_c, 15, 71, 0
13, 111600, Note_on_c, 15, 72, 76
13, 111600, Note_on_c, 15, 65, 76
13, 111600, Note_on_c, 15, 69, 76
13, 111600, Note_on_c, 15, 53, 76
13, 111779, Note_on_c, 15, 72, 0
13, 111779, Note_on_c, 15, 65, 0
13, 111779, Note_on_c, 15, 69, 0
13, 111779, Note_on_c, 15, 53, 0
13, 111780, Note_on_c, 15, 55, 76
13, 111780, Note_on_c, 15, 74, 76
13, 111780, Note_on_c, 15, 67, 76
13, 111780, Note_on_c, 15, 71, 76
13, 111809, Note_on_c, 15, 55, 0
13, 111809, Note_on_c, 15, 74, 0
13, 111809, Note_on_c, 15, 67, 0
13, 111809, Note_on_c, 15, 71, 0
13, 111810, Note_on_c, 15, 69, 76
13, 111810, Note_on_c, 15, 76, 76
13, 111810, Note_on_c, 15, 57, 76
13, 111810, Note_on_c, 15, 72, 76
13, 111839, Note_on_c, 15, 69, 0
13, 111839, Note_on_c, 15, 76, 0
13, 111839, Note_on_c, 15, 57, 0
13, 111839, Note_on_c, 15, 72, 0
13, 111840, Note_on_c, 15, 70, 76
13, 111840, Note_on_c, 15, 74, 76
13, 111840, Note_on_c, 15, 58, 76
13, 112199, Note_on_c, 15, 70, 0
13, 112199, Note_on_c, 15, 74, 0
13, 112199, Note_on_c, 15, 58, 0
13, 112200, Note_on_c, 15, 70, 76
13, 112200, Note_on_c, 15, 74, 76
13, 112200, Note_on_c, 15, 58, 76
13, 112319, Note_on_c, 15, 70, 0
13, 112319, Note_on_c, 15, 74, 0
13, 112319, Note_on_c, 15, 58, 0
13, 112320, Note_on_c, 15, 70, 76
13, 112320, Note_on_c, 15, 74, 76
13, 112320, Note_on_c, 15, 58, 76
13, 112320, Note_on_c, 15, 79, 76
13, 112379, Note_on_c, 15, 70, 0
13, 112379, Note_on_c, 15, 74, 0
13, 112379, Note_on_c, 15, 58, 0
13, 112379, Note_on_c, 15, 79, 0
13, 112380, Note_on_c, 15, 76, 76
13, 112380, Note_on_c, 15, 60, 76
13, 112380, Note_on_c, 15, 72, 76
13, 112380, Note_on_c, 15, 79, 76
13, 112439, Note_on_c, 15, 76, 0
13, 112439, Note_on_c, 15, 60, 0
13, 112439, Note_on_c, 15, 72, 0
13, 112439, Note_on_c, 15, 79, 0
13, 112440, Note_on_c, 15, 70, 76
13, 112440, Note_on_c, 15, 74, 76
13, 112440, Note_on_c, 15, 58, 76
13, 112440, Note_on_c, 15, 79, 76
13, 112499, Note_on_c, 15, 70, 0
13, 112499, Note_on_c, 15, 74, 0
13, 112499, Note_on_c, 15, 58, 0
13, 112499, Note_on_c, 15, 79, 0
13, 112500, Note_on_c, 15, 57, 76
13, 112500, Note_on_c, 15, 69, 76
13, 112500, Note_on_c, 15, 76, 76
13, 112500, Note_on_c, 15, 72, 76
13, 112559, Note_on_c, 15, 57, 0
13, 112559, Note_on_c, 15, 69, 0
13, 112559, Note_on_c, 15, 76, 0
13, 112559, Note_on_c, 15, 72, 0
13, 112560, Note_on_c, 15, 74, 76
13, 112560, Note_on_c, 15, 70, 76
13, 112560, Note_on_c, 15, 79, 76
13, 112560, Note_on_c, 15, 58, 76
13, 112619, Note_on_c, 15, 74, 0
13, 112619, Note_on_c, 15, 70, 0
13, 112619, Note_on_c, 15, 79, 0
13, 112619, Note_on_c, 15, 58, 0
13, 112620, Note_on_c, 15, 74, 76
13, 112620, Note_on_c, 15, 55, 76
13, 112620, Note_on_c, 15, 67, 76
13, 112620, Note_on_c, 15, 71, 76
13, 112679, Note_on_c, 15, 74, 0
13, 112679, Note_on_c, 15, 55, 0
13, 112679, Note_on_c, 15, 67, 0
13, 112679, Note_on_c, 15, 71, 0
13, 112680, Note_on_c, 15, 69, 76
13, 112680, Note_on_c, 15, 57, 76
13, 112680, Note_on_c, 15, 72, 76
13, 112680, Note_on_c, 15, 76, 76
13, 112739, Note_on_c, 15, 69, 0
13, 112739, Note_on_c, 15, 57, 0
13, 112739, Note_on_c, 15, 72, 0
13, 112739, Note_on_c, 15, 76, 0
13, 112740, Note_on_c, 15, 70, 76
13, 112740, Note_on_c, 15, 74, 76
13, 112740, Note_on_c, 15, 79, 76
13, 112740, Note_on_c, 15, 58, 76
13, 112799, Note_on_c, 15, 70, 0
13, 112799, Note_on_c, 15, 74, 0
13, 112799, Note_on_c, 15, 79, 0
13, 112799, Note_on_c, 15, 58, 0
13, 112800, Note_on_c, 15, 57, 76
13, 112800, Note_on_c, 15, 73, 76
13, 112800, Note_on_c, 15, 79, 76
13, 112800, Note_on_c, 15, 76, 76
13, 112800, Note_on_c, 15, 69, 76
13, 113039, Note_on_c, 15, 57, 0
13, 113039, Note_on_c, 15, 73, 0
13, 113039, Note_on_c, 15, 79, 0
13, 113039, Note_on_c, 15, 76, 0
13, 113039, Note_on_c, 15, 69, 0
13, 113040, Note_on_c, 15, 61, 76
13, 113040, Note_on_c, 15, 64, 76
13, 113040, Note_on_c, 15, 57, 76
13, 113040, Note_on_c, 15, 45, 76
13, 113279, Note_on_c, 15, 61, 0
13, 113279, Note_on_c, 15, 64, 0
13, 113279, Note_on_c, 15, 57, 0
13, 113279, Note_on_c, 15, 45, 0
13, 113280, Note_on_c, 15, 69, 76
13, 113280, Note_on_c, 15, 50, 76
13, 113280, Note_on_c, 15, 65, 76
13, 113280, Note_on_c, 15, 62, 76
13, 113609, Note_on_c, 15, 69, 0
13, 113609, Note_on_c, 15, 50, 0
13, 113609, Note_on_c, 15, 65, 0
13, 113609, Note_on_c, 15, 62, 0
13, 113610, Note_on_c, 15, 67, 76
13, 113610, Note_on_c, 15, 52, 76
13, 113610, Note_on_c, 15, 64, 76
13, 113610, Note_on_c, 15, 71, 76
13, 113639, Note_on_c, 15, 67, 0
13, 113639, Note_on_c, 15, 52, 0
13, 113639, Note_on_c, 15, 64, 0
13, 113639, Note_on_c, 15, 71, 0
13, 113640, Note_on_c, 15, 65, 76
13, 113640, Note_on_c, 15, 72, 76
13, 113640, Note_on_c, 15, 69, 76
13, 113640, Note_on_c, 15, 53, 76
13, 113669, Note_on_c, 15, 65, 0
13, 113669, Note_on_c, 15, 72, 0
13, 113669, Note_on_c, 15, 69, 0
13, 113669, Note_on_c, 15, 53, 0
13, 113670, Note_on_c, 15, 71, 76
13, 113670, Note_on_c, 15, 67, 76
13, 113670, Note_on_c, 15, 74, 76
13, 113670, Note_on_c, 15, 55, 76
13, 113699, Note_on_c, 15, 71, 0
13, 113699, Note_on_c, 15, 67, 0
13, 113699, Note_on_c, 15, 74, 0
13, 113699, Note_on_c, 15, 55, 0
13, 113700, Note_on_c, 15, 76, 76
13, 113700, Note_on_c, 15, 72, 76
13, 113700, Note_on_c, 15, 57, 76
13, 113700, Note_on_c, 15, 69, 76
13, 113729, Note_on_c, 15, 76, 0
13, 113729, Note_on_c, 15, 72, 0
13, 113729, Note_on_c, 15, 57, 0
13, 113729, Note_on_c, 15, 69, 0
13, 113730, Note_on_c, 15, 71, 76
13, 113730, Note_on_c, 15, 77, 76
13, 113730, Note_on_c, 15, 59, 76
13, 113730, Note_on_c, 15, 74, 76
13, 113759, Note_on_c, 15, 71, 0
13, 113759, Note_on_c, 15, 77, 0
13, 113759, Note_on_c, 15, 59, 0
13, 113759, Note_on_c, 15, 74, 0
13, 113760, Note_on_c, 15, 60, 76
13, 113760, Note_on_c, 15, 72, 76
13, 113760, Note_on_c, 15, 81, 76
13, 113760, Note_on_c, 15, 78, 76
13, 113760, Note_on_c, 15, 74, 76
13, 113819, Note_on_c, 15, 60, 0
13, 113819, Note_on_c, 15, 72, 0
13, 113819, Note_on_c, 15, 81, 0
13, 113819, Note_on_c, 15, 78, 0
13, 113819, Note_on_c, 15, 74, 0
13, 113820, Note_on_c, 15, 74, 76
13, 113820, Note_on_c, 15, 71, 76
13, 113820, Note_on_c, 15, 59, 76
13, 113820, Note_on_c, 15, 78, 76
13, 113879, Note_on_c, 15, 74, 0
13, 113879, Note_on_c, 15, 71, 0
13, 113879, Note_on_c, 15, 59, 0
13, 113879, Note_on_c, 15, 78, 0
13, 113880, Note_on_c, 15, 72, 76
13, 113880, Note_on_c, 15, 60, 76
13, 113880, Note_on_c, 15, 79, 76
13, 113880, Note_on_c, 15, 76, 76
13, 113939, Note_on_c, 15, 72, 0
13, 113939, Note_on_c, 15, 60, 0
13, 113939, Note_on_c, 15, 79, 0
13, 113939, Note_on_c, 15, 76, 0
13, 113940, Note_on_c, 15, 79, 76
13, 113940, Note_on_c, 15, 83, 76
13, 113940, Note_on_c, 15, 64, 76
13, 113940, Note_on_c, 15, 76, 76
13, 113999, Note_on_c, 15, 79, 0
13, 113999, Note_on_c, 15, 83, 0
13, 113999, Note_on_c, 15, 64, 0
13, 113999, Note_on_c, 15, 76, 0
13, 114000, Note_on_c, 15, 81, 76
13, 114000, Note_on_c, 15, 62, 76
13, 114000, Note_on_c, 15, 74, 76
13, 114000, Note_on_c, 15, 78, 76
13, 114059, Note_on_c, 15, 81, 0
13, 114059, Note_on_c, 15, 62, 0
13, 114059, Note_on_c, 15, 74, 0
13, 114059, Note_on_c, 15, 78, 0
13, 114060, Note_on_c, 15, 79, 76
13, 114060, Note_on_c, 15, 72, 76
13, 114060, Note_on_c, 15, 60, 76
13, 114060, Note_on_c, 15, 76, 76
13, 114119, Note_on_c, 15, 79, 0
13, 114119, Note_on_c, 15, 72, 0
13, 114119, Note_on_c, 15, 60, 0
13, 114119, Note_on_c, 15, 76, 0
13, 114120, Note_on_c, 15, 78, 76
13, 114120, Note_on_c, 15, 74, 76
13, 114120, Note_on_c, 15, 59, 76
13, 114120, Note_on_c, 15, 71, 76
13, 114179, Note_on_c, 15, 78, 0
13, 114179, Note_on_c, 15, 74, 0
13, 114179, Note_on_c, 15, 59, 0
13, 114179, Note_on_c, 15, 71, 0
13, 114180, Note_on_c, 15, 76, 76
13, 114180, Note_on_c, 15, 72, 76
13, 114180, Note_on_c, 15, 60, 76
13, 114180, Note_on_c, 15, 79, 76
13, 114239, Note_on_c, 15, 76, 0
13, 114239, Note_on_c, 15, 72, 0
13, 114239, Note_on_c, 15, 60, 0
13, 114239, Note_on_c, 15, 79, 0
13, 114240, Note_on_c, 15, 59, 76
13, 114240, Note_on_c, 15, 74, 76
13, 114240, Note_on_c, 15, 71, 76
13, 114240, Note_on_c, 15, 79, 76
13, 114419, Note_on_c, 15, 59, 0
13, 114419, Note_on_c, 15, 74, 0
13, 114419, Note_on_c, 15, 71, 0
13, 114419, Note_on_c, 15, 79, 0
13, 114420, Note_on_c, 15, 76, 76
13, 114420, Note_on_c, 15, 72, 76
13, 114420, Note_on_c, 15, 69, 76
13, 114420, Note_on_c, 15, 57, 76
13, 114479, Note_on_c, 15, 76, 0
13, 114479, Note_on_c, 15, 72, 0
13, 114479, Note_on_c, 15, 69, 0
13, 114479, Note_on_c, 15, 57, 0
13, 114480, Note_on_c, 15, 71, 76
13, 114480, Note_on_c, 15, 79, 76
13, 114480, Note_on_c, 15, 74, 76
13, 114480, Note_on_c, 15, 59, 76
13, 114659, Note_on_c, 15, 71, 0
13, 114659, Note_on_c, 15, 79, 0
13, 114659, Note_on_c, 15, 74, 0
13, 114659, Note_on_c, 15, 59, 0
13, 114660, Note_on_c, 15, 55, 76
13, 114660, Note_on_c, 15, 74, 76
13, 114660, Note_on_c, 15, 67, 76
13, 114660, Note_on_c, 15, 71, 76
13, 114719, Note_on_c, 15, 55, 0
13, 114719, Note_on_c, 15, 74, 0
13, 114719, Note_on_c, 15, 67, 0
13, 114719, Note_on_c, 15, 71, 0
13, 114720, Note_on_c, 15, 84, 76
13, 114720, Note_on_c, 15, 64, 76
13, 114720, Note_on_c, 15, 79, 76
13, 114720, Note_on_c, 15, 76, 76
13, 115079, Note_on_c, 15, 84, 0
13, 115079, Note_on_c, 15, 64, 0
13, 115079, Note_on_c, 15, 79, 0
13, 115079, Note_on_c, 15, 76, 0
13, 115080, Note_on_c, 15, 83, 76
13, 115080, Note_on_c, 15, 64, 76
13, 115080, Note_on_c, 15, 79, 76
13, 115080, Note_on_c, 15, 76, 76
13, 115199, Note_on_c, 15, 83, 0
13, 115199, Note_on_c, 15, 64, 0
13, 115199, Note_on_c, 15, 79, 0
13, 115199, Note_on_c, 15, 76, 0
13, 115200, Note_on_c, 15, 84, 76
13, 115200, Note_on_c, 15, 76, 76
13, 115200, Note_on_c, 15, 81, 76
13, 115200, Note_on_c, 15, 77, 76
13, 115200, Note_on_c, 15, 64, 76
13, 115379, Note_on_c, 15, 84, 0
13, 115379, Note_on_c, 15, 76, 0
13, 115379, Note_on_c, 15, 81, 0
13, 115379, Note_on_c, 15, 77, 0
13, 115379, Note_on_c, 15, 64, 0
13, 115380, Note_on_c, 15, 65, 76
13, 115380, Note_on_c, 15, 84, 76
13, 115380, Note_on_c, 15, 81, 76
13, 115380, Note_on_c, 15, 77, 76
13, 115409, Note_on_c, 15, 65, 0
13, 115409, Note_on_c, 15, 84, 0
13, 115409, Note_on_c, 15, 81, 0
13, 115409, Note_on_c, 15, 77, 0
13, 115410, Note_on_c, 15, 64, 76
13, 115410, Note_on_c, 15, 81, 76
13, 115410, Note_on_c, 15, 77, 76
13, 115410, Note_on_c, 15, 76, 76
13, 115410, Note_on_c, 15, 84, 76
13, 115439, Note_on_c, 15, 64, 0
13, 115439, Note_on_c, 15, 81, 0
13, 115439, Note_on_c, 15, 77, 0
13, 115439, Note_on_c, 15, 76, 0
13, 115439, Note_on_c, 15, 84, 0
13, 115440, Note_on_c, 15, 62, 76
13, 115440, Note_on_c, 15, 77, 76
13, 115440, Note_on_c, 15, 74, 76
13, 115619, Note_on_c, 15, 62, 0
13, 115619, Note_on_c, 15, 77, 0
13, 115619, Note_on_c, 15, 74, 0
13, 115620, Note_on_c, 15, 64, 76
13, 115620, Note_on_c, 15, 83, 76
13, 115620, Note_on_c, 15, 79, 76
13, 115620, Note_on_c, 15, 76, 76
13, 115649, Note_on_c, 15, 64, 0
13, 115649, Note_on_c, 15, 83, 0
13, 115649, Note_on_c, 15, 79, 0
13, 115649, Note_on_c, 15, 76, 0
13, 115650, Note_on_c, 15, 76, 76
13, 115650, Note_on_c, 15, 79, 76
13, 115650, Note_on_c, 15, 72, 76
13, 115650, Note_on_c, 15, 60, 76
13, 115679, Note_on_c, 15, 76, 0
13, 115679, Note_on_c, 15, 79, 0
13, 115679, Note_on_c, 15, 72, 0
13, 115679, Note_on_c, 15, 60, 0
13, 115680, Note_on_c, 15, 62, 76
13, 115680, Note_on_c, 15, 77, 76
13, 115680, Note_on_c, 15, 74, 76
13, 115680, Note_on_c, 15, 81, 76
13, 116039, Note_on_c, 15, 62, 0
13, 116039, Note_on_c, 15, 77, 0
13, 116039, Note_on_c, 15, 74, 0
13, 116039, Note_on_c, 15, 81, 0
13, 116040, Note_on_c, 15, 74, 76
13, 116040, Note_on_c, 15, 81, 76
13, 116040, Note_on_c, 15, 77, 76
13, 116040, Note_on_c, 15, 62, 76
13, 116159, Note_on_c, 15, 74, 0
13, 116159, Note_on_c, 15, 81, 0
13, 116159, Note_on_c, 15, 77, 0
13, 116159, Note_on_c, 15, 62, 0
13, 116160, Note_on_c, 15, 62, 76
13, 116160, Note_on_c, 15, 74, 76
13, 116160, Note_on_c, 15, 83, 76
13, 116160, Note_on_c, 15, 77, 76
13, 116399, Note_on_c, 15, 74, 0
13, 116399, Note_on_c, 15, 83, 0
13, 116399, Note_on_c, 15, 77, 0
13, 116400, Note_on_c, 15, 77, 76
13, 116400, Note_on_c, 15, 81, 76
13, 116400, Note_on_c, 15, 74, 76
13, 116459, Note_on_c, 15, 62, 0
13, 116459, Note_on_c, 15, 77, 0
13, 116459, Note_on_c, 15, 81, 0
13, 116459, Note_on_c, 15, 74, 0
13, 116460, Note_on_c, 15, 72, 76
13, 116460, Note_on_c, 15, 60, 76
13, 116460, Note_on_c, 15, 79, 76
13, 116460, Note_on_c, 15, 76, 76
13, 116519, Note_on_c, 15, 72, 0
13, 116519, Note_on_c, 15, 60, 0
13, 116519, Note_on_c, 15, 79, 0
13, 116519, Note_on_c, 15, 76, 0
13, 116520, Note_on_c, 15, 77, 76
13, 116520, Note_on_c, 15, 59, 76
13, 116520, Note_on_c, 15, 74, 76
13, 116520, Note_on_c, 15, 71, 76
13, 116579, Note_on_c, 15, 77, 0
13, 116579, Note_on_c, 15, 59, 0
13, 116579, Note_on_c, 15, 74, 0
13, 116579, Note_on_c, 15, 71, 0
13, 116580, Note_on_c, 15, 72, 76
13, 116580, Note_on_c, 15, 60, 76
13, 116580, Note_on_c, 15, 79, 76
13, 116580, Note_on_c, 15, 76, 76
13, 116639, Note_on_c, 15, 72, 0
13, 116639, Note_on_c, 15, 60, 0
13, 116639, Note_on_c, 15, 79, 0
13, 116639, Note_on_c, 15, 76, 0
13, 116640, Note_on_c, 15, 81, 76
13, 116640, Note_on_c, 15, 62, 76
13, 116640, Note_on_c, 15, 74, 76
13, 116640, Note_on_c, 15, 77, 76
13, 116699, Note_on_c, 15, 81, 0
13, 116699, Note_on_c, 15, 62, 0
13, 116699, Note_on_c, 15, 74, 0
13, 116699, Note_on_c, 15, 77, 0
13, 116700, Note_on_c, 15, 76, 76
13, 116700, Note_on_c, 15, 60, 76
13, 116700, Note_on_c, 15, 72, 76
13, 116700, Note_on_c, 15, 79, 76
13, 116759, Note_on_c, 15, 76, 0
13, 116759, Note_on_c, 15, 60, 0
13, 116759, Note_on_c, 15, 72, 0
13, 116759, Note_on_c, 15, 79, 0
13, 116760, Note_on_c, 15, 62, 76
13, 116760, Note_on_c, 15, 81, 76
13, 116760, Note_on_c, 15, 77, 76
13, 116760, Note_on_c, 15, 74, 76
13, 116819, Note_on_c, 15, 62, 0
13, 116819, Note_on_c, 15, 81, 0
13, 116819, Note_on_c, 15, 77, 0
13, 116819, Note_on_c, 15, 74, 0
13, 116820, Note_on_c, 15, 65, 76
13, 116820, Note_on_c, 15, 81, 76
13, 116820, Note_on_c, 15, 77, 76
13, 116820, Note_on_c, 15, 84, 76
13, 116879, Note_on_c, 15, 65, 0
13, 116879, Note_on_c, 15, 81, 0
13, 116879, Note_on_c, 15, 77, 0
13, 116879, Note_on_c, 15, 84, 0
13, 116880, Note_on_c, 15, 84, 76
13, 116880, Note_on_c, 15, 64, 76
13, 116880, Note_on_c, 15, 76, 76
13, 116880, Note_on_c, 15, 79, 76
13, 116939, Note_on_c, 15, 84, 0
13, 116939, Note_on_c, 15, 64, 0
13, 116939, Note_on_c, 15, 76, 0
13, 116939, Note_on_c, 15, 79, 0
13, 116940, Note_on_c, 15, 77, 76
13, 116940, Note_on_c, 15, 81, 76
13, 116940, Note_on_c, 15, 74, 76
13, 116940, Note_on_c, 15, 62, 76
13, 116999, Note_on_c, 15, 77, 0
13, 116999, Note_on_c, 15, 81, 0
13, 116999, Note_on_c, 15, 74, 0
13, 116999, Note_on_c, 15, 62, 0
13, 117000, Note_on_c, 15, 72, 76
13, 117000, Note_on_c, 15, 79, 76
13, 117000, Note_on_c, 15, 76, 76
13, 117000, Note_on_c, 15, 60, 76
13, 117059, Note_on_c, 15, 72, 0
13, 117059, Note_on_c, 15, 79, 0
13, 117059, Note_on_c, 15, 76, 0
13, 117059, Note_on_c, 15, 60, 0
13, 117060, Note_on_c, 15, 77, 76
13, 117060, Note_on_c, 15, 81, 76
13, 117060, Note_on_c, 15, 74, 76
13, 117060, Note_on_c, 15, 62, 76
13, 117119, Note_on_c, 15, 77, 0
13, 117119, Note_on_c, 15, 81, 0
13, 117119, Note_on_c, 15, 74, 0
13, 117119, Note_on_c, 15, 62, 0
13, 117120, Note_on_c, 15, 79, 76
13, 117120, Note_on_c, 15, 74, 76
13, 117120, Note_on_c, 15, 71, 76
13, 117120, Note_on_c, 15, 59, 76
13, 117600, Note_on_c, 15, 77, 76
13, 117659, Note_on_c, 15, 79, 0
13, 117659, Note_on_c, 15, 74, 0
13, 117659, Note_on_c, 15, 71, 0
13, 117659, Note_on_c, 15, 59, 0
13, 117659, Note_on_c, 15, 77, 0
13, 117660, Note_on_c, 15, 79, 76
13, 117660, Note_on_c, 15, 60, 76
13, 117660, Note_on_c, 15, 76, 76
13, 117660, Note_on_c, 15, 72, 76
13, 117719, Note_on_c, 15, 79, 0
13, 117719, Note_on_c, 15, 60, 0
13, 117719, Note_on_c, 15, 76, 0
13, 117719, Note_on_c, 15, 72, 0
13, 117720, Note_on_c, 15, 74, 76
13, 117720, Note_on_c, 15, 71, 76
13, 117720, Note_on_c, 15, 59, 76
13, 117720, Note_on_c, 15, 77, 76
13, 117779, Note_on_c, 15, 74, 0
13, 117779, Note_on_c, 15, 71, 0
13, 117779, Note_on_c, 15, 59, 0
13, 117779, Note_on_c, 15, 77, 0
13, 117780, Note_on_c, 15, 76, 76
13, 117780, Note_on_c, 15, 69, 76
13, 117780, Note_on_c, 15, 72, 76
13, 117780, Note_on_c, 15, 57, 76
13, 117839, Note_on_c, 15, 76, 0
13, 117839, Note_on_c, 15, 69, 0
13, 117839, Note_on_c, 15, 72, 0
13, 117839, Note_on_c, 15, 57, 0
13, 117840, Note_on_c, 15, 55, 76
13, 117840, Note_on_c, 15, 67, 76
13, 117840, Note_on_c, 15, 77, 76
13, 117840, Note_on_c, 15, 71, 76
13, 117840, Note_on_c, 15, 74, 76
13, 117899, Note_on_c, 15, 55, 0
13, 117899, Note_on_c, 15, 67, 0
13, 117899, Note_on_c, 15, 77, 0
13, 117899, Note_on_c, 15, 71, 0
13, 117899, Note_on_c, 15, 74, 0
13, 117900, Note_on_c, 15, 74, 76
13, 117900, Note_on_c, 15, 77, 76
13, 117900, Note_on_c, 15, 65, 76
13, 117900, Note_on_c, 15, 71, 76
13, 117900, Note_on_c, 15, 53, 76
13, 117959, Note_on_c, 15, 74, 0
13, 117959, Note_on_c, 15, 77, 0
13, 117959, Note_on_c, 15, 65, 0
13, 117959, Note_on_c, 15, 71, 0
13, 117959, Note_on_c, 15, 53, 0
13, 117960, Note_on_c, 15, 52, 76
13, 117960, Note_on_c, 15, 74, 76
13, 117960, Note_on_c, 15, 64, 76
13, 117960, Note_on_c, 15, 77, 76
13, 117960, Note_on_c, 15, 71, 76
13, 118019, Note_on_c, 15, 52, 0
13, 118019, Note_on_c, 15, 74, 0
13, 118019, Note_on_c, 15, 64, 0
13, 118019, Note_on_c, 15, 77, 0
13, 118019, Note_on_c, 15, 71, 0
13, 118020, Note_on_c, 15, 50, 76
13, 118020, Note_on_c, 15, 71, 76
13, 118020, Note_on_c, 15, 77, 76
13, 118020, Note_on_c, 15, 74, 76
13, 118020, Note_on_c, 15, 62, 76
13, 118079, Note_on_c, 15, 50, 0
13, 118079, Note_on_c, 15, 71, 0
13, 118079, Note_on_c, 15, 77, 0
13, 118079, Note_on_c, 15, 74, 0
13, 118079, Note_on_c, 15, 62, 0
13, 118080, Note_on_c, 15, 48, 76
13, 118080, Note_on_c, 15, 62, 76
13, 118080, Note_on_c, 15, 65, 76
13, 118080, Note_on_c, 15, 71, 76
13, 118080, Note_on_c, 15, 60, 76
13, 118319, Note_on_c, 15, 62, 0
13, 118319, Note_on_c, 15, 65, 0
13, 118319, Note_on_c, 15, 71, 0
13, 118320, Note_on_c, 15, 72, 76
13, 118320, Note_on_c, 15, 64, 76
13, 118320, Note_on_c, 15, 67, 76
13, 118559, Note_on_c, 15, 72, 0
13, 118560, Note_on_c, 15, 70, 76
13, 118619, Note_on_c, 15, 48, 0
13, 118619, Note_on_c, 15, 60, 0
13, 118619, Note_on_c, 15, 64, 0
13, 118619, Note_on_c, 15, 67, 0
13, 118619, Note_on_c, 15, 70, 0
13, 118620, Note_on_c, 15, 65, 76
13, 118620, Note_on_c, 15, 46, 76
13, 118620, Note_on_c, 15, 58, 76
13, 118620, Note_on_c, 15, 62, 76
13, 118679, Note_on_c, 15, 65, 0
13, 118679, Note_on_c, 15, 46, 0
13, 118679, Note_on_c, 15, 58, 0
13, 118679, Note_on_c, 15, 62, 0
13, 118680, Note_on_c, 15, 45, 76
13, 118680, Note_on_c, 15, 64, 76
13, 118680, Note_on_c, 15, 60, 76
13, 118680, Note_on_c, 15, 57, 76
13, 118739, Note_on_c, 15, 45, 0
13, 118739, Note_on_c, 15, 64, 0
13, 118739, Note_on_c, 15, 60, 0
13, 118739, Note_on_c, 15, 57, 0
13, 118740, Note_on_c, 15, 62, 76
13, 118740, Note_on_c, 15, 58, 76
13, 118740, Note_on_c, 15, 65, 76
13, 118740, Note_on_c, 15, 46, 76
13, 118799, Note_on_c, 15, 62, 0
13, 118799, Note_on_c, 15, 58, 0
13, 118799, Note_on_c, 15, 65, 0
13, 118799, Note_on_c, 15, 46, 0
13, 118800, Note_on_c, 15, 48, 76
13, 118800, Note_on_c, 15, 64, 76
13, 118800, Note_on_c, 15, 60, 76
13, 118800, Note_on_c, 15, 67, 76
13, 118859, Note_on_c, 15, 48, 0
13, 118859, Note_on_c, 15, 64, 0
13, 118859, Note_on_c, 15, 60, 0
13, 118859, Note_on_c, 15, 67, 0
13, 118860, Note_on_c, 15, 45, 76
13, 118860, Note_on_c, 15, 64, 76
13, 118860, Note_on_c, 15, 60, 76
13, 118860, Note_on_c, 15, 57, 76
13, 118919, Note_on_c, 15, 45, 0
13, 118919, Note_on_c, 15, 64, 0
13, 118919, Note_on_c, 15, 60, 0
13, 118919, Note_on_c, 15, 57, 0
13, 118920, Note_on_c, 15, 65, 76
13, 118920, Note_on_c, 15, 58, 76
13, 118920, Note_on_c, 15, 62, 76
13, 118920, Note_on_c, 15, 46, 76
13, 118979, Note_on_c, 15, 65, 0
13, 118979, Note_on_c, 15, 58, 0
13, 118979, Note_on_c, 15, 62, 0
13, 118979, Note_on_c, 15, 46, 0
13, 118980, Note_on_c, 15, 48, 76
13, 118980, Note_on_c, 15, 67, 76
13, 118980, Note_on_c, 15, 64, 76
13, 118980, Note_on_c, 15, 60, 76
13, 119039, Note_on_c, 15, 48, 0
13, 119039, Note_on_c, 15, 67, 0
13, 119039, Note_on_c, 15, 64, 0
13, 119039, Note_on_c, 15, 60, 0
13, 119040, Note_on_c, 15, 58, 76
13, 119040, Note_on_c, 15, 41, 76
13, 119040, Note_on_c, 15, 53, 76
13, 119040, Note_on_c, 15, 64, 76
13, 119040, Note_on_c, 15, 55, 76
13, 119279, Note_on_c, 15, 58, 0
13, 119279, Note_on_c, 15, 64, 0
13, 119279, Note_on_c, 15, 55, 0
13, 119280, Note_on_c, 15, 60, 76
13, 119280, Note_on_c, 15, 57, 76
13, 119280, Note_on_c, 15, 65, 76
13, 119519, Note_on_c, 15, 60, 0
13, 119519, Note_on_c, 15, 57, 0
13, 119519, Note_on_c, 15, 65, 0
13, 119520, Note_on_c, 15, 60, 76
13, 119520, Note_on_c, 15, 65, 76
13, 119520, Note_on_c, 15, 57, 76
13, 119579, Note_on_c, 15, 41, 0
13, 119579, Note_on_c, 15, 53, 0
13, 119579, Note_on_c, 15, 60, 0
13, 119579, Note_on_c, 15, 65, 0
13, 119579, Note_on_c, 15, 57, 0
13, 119580, Note_on_c, 15, 57, 76
13, 119580, Note_on_c, 15, 52, 76
13, 119580, Note_on_c, 15, 60, 76
13, 119580, Note_on_c, 15, 40, 76
13, 119580, Note_on_c, 15, 65, 76
13, 119639, Note_on_c, 15, 57, 0
13, 119639, Note_on_c, 15, 52, 0
13, 119639, Note_on_c, 15, 60, 0
13, 119639, Note_on_c, 15, 40, 0
13, 119639, Note_on_c, 15, 65, 0
13, 119640, Note_on_c, 15, 65, 76
13, 119640, Note_on_c, 15, 57, 76
13, 119640, Note_on_c, 15, 60, 76
13, 119640, Note_on_c, 15, 53, 76
13, 119640, Note_on_c, 15, 41, 76
13, 119699, Note_on_c, 15, 65, 0
13, 119699, Note_on_c, 15, 57, 0
13, 119699, Note_on_c, 15, 60, 0
13, 119699, Note_on_c, 15, 53, 0
13, 119699, Note_on_c, 15, 41, 0
13, 119700, Note_on_c, 15, 57, 76
13, 119700, Note_on_c, 15, 60, 76
13, 119700, Note_on_c, 15, 65, 76
13, 119700, Note_on_c, 15, 43, 76
13, 119700, Note_on_c, 15, 55, 76
13, 119759, Note_on_c, 15, 57, 0
13, 119759, Note_on_c, 15, 60, 0
13, 119759, Note_on_c, 15, 65, 0
13, 119759, Note_on_c, 15, 43, 0
13, 119759, Note_on_c, 15, 55, 0
13, 119760, Note_on_c, 15, 65, 76
13, 119760, Note_on_c, 15, 57, 76
13, 119760, Note_on_c, 15, 60, 76
13, 119760, Note_on_c, 15, 45, 76
13, 119819, Note_on_c, 15, 65, 0
13, 119819, Note_on_c, 15, 57, 0
13, 119819, Note_on_c, 15, 60, 0
13, 119819, Note_on_c, 15, 45, 0
13, 119820, Note_on_c, 15, 65, 76
13, 119820, Note_on_c, 15, 60, 76
13, 119820, Note_on_c, 15, 53, 76
13, 119820, Note_on_c, 15, 57, 76
13, 119820, Note_on_c, 15, 41, 76
13, 119879, Note_on_c, 15, 65, 0
13, 119879, Note_on_c, 15, 60, 0
13, 119879, Note_on_c, 15, 53, 0
13, 119879, Note_on_c, 15, 57, 0
13, 119879, Note_on_c, 15, 41, 0
13, 119880, Note_on_c, 15, 43, 76
13, 119880, Note_on_c, 15, 55, 76
13, 119880, Note_on_c, 15, 60, 76
13, 119880, Note_on_c, 15, 65, 76
13, 119880, Note_on_c, 15, 57, 76
13, 119939, Note_on_c, 15, 43, 0
13, 119939, Note_on_c, 15, 55, 0
13, 119939, Note_on_c, 15, 60, 0
13, 119939, Note_on_c, 15, 65, 0
13, 119939, Note_on_c, 15, 57, 0
13, 119940, Note_on_c, 15, 60, 76
13, 119940, Note_on_c, 15, 57, 76
13, 119940, Note_on_c, 15, 65, 76
13, 119940, Note_on_c, 15, 45, 76
13, 119999, Note_on_c, 15, 60, 0
13, 119999, Note_on_c, 15, 57, 0
13, 119999, Note_on_c, 15, 65, 0
13, 119999, Note_on_c, 15, 45, 0
13, 120000, Note_on_c, 15, 60, 76
13, 120000, Note_on_c, 15, 38, 76
13, 120000, Note_on_c, 15, 50, 76
13, 120000, Note_on_c, 15, 53, 76
13, 120000, Note_on_c, 15, 57, 76
13, 120479, Note_on_c, 15, 60, 0
13, 120479, Note_on_c, 15, 53, 0
13, 120479, Note_on_c, 15, 57, 0
13, 120480, Note_on_c, 15, 59, 76
13, 120480, Note_on_c, 15, 53, 76
13, 120539, Note_on_c, 15, 38, 0
13, 120539, Note_on_c, 15, 50, 0
13, 120539, Note_on_c, 15, 59, 0
13, 120539, Note_on_c, 15, 53, 0
13, 120540, Note_on_c, 15, 52, 76
13, 120540, Note_on_c, 15, 48, 76
13, 120540, Note_on_c, 15, 36, 76
13, 120540, Note_on_c, 15, 55, 76
13, 120599, Note_on_c, 15, 52, 0
13, 120599, Note_on_c, 15, 48, 0
13, 120599, Note_on_c, 15, 36, 0
13, 120599, Note_on_c, 15, 55, 0
13, 120600, Note_on_c, 15, 53, 76
13, 120600, Note_on_c, 15, 50, 76
13, 120600, Note_on_c, 15, 57, 76
13, 120600, Note_on_c, 15, 38, 76
13, 120659, Note_on_c, 15, 53, 0
13, 120659, Note_on_c, 15, 50, 0
13, 120659, Note_on_c, 15, 57, 0
13, 120659, Note_on_c, 15, 38, 0
13, 120660, Note_on_c, 15, 52, 76
13, 120660, Note_on_c, 15, 59, 76
13, 120660, Note_on_c, 15, 40, 76
13, 120660, Note_on_c, 15, 55, 76
13, 120719, Note_on_c, 15, 52, 0
13, 120719, Note_on_c, 15, 59, 0
13, 120719, Note_on_c, 15, 40, 0
13, 120719, Note_on_c, 15, 55, 0
13, 120720, Note_on_c, 15, 57, 76
13, 120720, Note_on_c, 15, 53, 76
13, 120720, Note_on_c, 15, 60, 76
13, 120720, Note_on_c, 15, 41, 76
13, 120779, Note_on_c, 15, 57, 0
13, 120779, Note_on_c, 15, 53, 0
13, 120779, Note_on_c, 15, 60, 0
13, 120779, Note_on_c, 15, 41, 0
13, 120780, Note_on_c, 15, 57, 76
13, 120780, Note_on_c, 15, 60, 76
13, 120780, Note_on_c, 15, 40, 76
13, 120780, Note_on_c, 15, 52, 76
13, 120839, Note_on_c, 15, 57, 0
13, 120839, Note_on_c, 15, 60, 0
13, 120839, Note_on_c, 15, 40, 0
13, 120839, Note_on_c, 15, 52, 0
13, 120840, Note_on_c, 15, 60, 76
13, 120840, Note_on_c, 15, 57, 76
13, 120840, Note_on_c, 15, 53, 76
13, 120840, Note_on_c, 15, 41, 76
13, 120899, Note_on_c, 15, 60, 0
13, 120899, Note_on_c, 15, 57, 0
13, 120899, Note_on_c, 15, 53, 0
13, 120899, Note_on_c, 15, 41, 0
13, 120900, Note_on_c, 15, 57, 76
13, 120900, Note_on_c, 15, 38, 76
13, 120900, Note_on_c, 15, 50, 76
13, 120900, Note_on_c, 15, 60, 76
13, 120959, Note_on_c, 15, 57, 0
13, 120959, Note_on_c, 15, 38, 0
13, 120959, Note_on_c, 15, 50, 0
13, 120959, Note_on_c, 15, 60, 0
13, 120960, Note_on_c, 15, 55, 76
13, 120960, Note_on_c, 15, 62, 76
13, 120960, Note_on_c, 15, 59, 76
13, 120960, Note_on_c, 15, 43, 76
13, 120960, Note_on_c, 15, 65, 76
13, 121139, Note_on_c, 15, 55, 0
13, 121139, Note_on_c, 15, 62, 0
13, 121139, Note_on_c, 15, 59, 0
13, 121139, Note_on_c, 15, 43, 0
13, 121139, Note_on_c, 15, 65, 0
13, 121140, Note_on_c, 15, 43, 76
13, 121140, Note_on_c, 15, 62, 76
13, 121140, Note_on_c, 15, 59, 76
13, 121140, Note_on_c, 15, 55, 76
13, 121199, Note_on_c, 15, 43, 0
13, 121199, Note_on_c, 15, 62, 0
13, 121199, Note_on_c, 15, 59, 0
13, 121199, Note_on_c, 15, 55, 0
13, 121200, Note_on_c, 15, 45, 76
13, 121200, Note_on_c, 15, 60, 76
13, 121200, Note_on_c, 15, 64, 76
13, 121200, Note_on_c, 15, 57, 76
13, 121379, Note_on_c, 15, 45, 0
13, 121379, Note_on_c, 15, 60, 0
13, 121379, Note_on_c, 15, 64, 0
13, 121379, Note_on_c, 15, 57, 0
13, 121380, Note_on_c, 15, 47, 76
13, 121380, Note_on_c, 15, 62, 76
13, 121380, Note_on_c, 15, 65, 76
13, 121380, Note_on_c, 15, 59, 76
13, 121439, Note_on_c, 15, 47, 0
13, 121439, Note_on_c, 15, 62, 0
13, 121439, Note_on_c, 15, 65, 0
13, 121439, Note_on_c, 15, 59, 0
13, 121440, Note_on_c, 15, 67, 76
13, 121440, Note_on_c, 15, 60, 76
13, 121440, Note_on_c, 15, 64, 76
13, 121440, Note_on_c, 15, 48, 76
13, 121619, Note_on_c, 15, 67, 0
13, 121619, Note_on_c, 15, 60, 0
13, 121619, Note_on_c, 15, 64, 0
13, 121619, Note_on_c, 15, 48, 0
13, 121620, Note_on_c, 15, 64, 76
13, 121620, Note_on_c, 15, 67, 76
13, 121620, Note_on_c, 15, 60, 76
13, 121620, Note_on_c, 15, 48, 76
13, 121679, Note_on_c, 15, 64, 0
13, 121679, Note_on_c, 15, 67, 0
13, 121679, Note_on_c, 15, 60, 0
13, 121679, Note_on_c, 15, 48, 0
13, 121680, Note_on_c, 15, 69, 76
13, 121680, Note_on_c, 15, 62, 76
13, 121680, Note_on_c, 15, 65, 76
13, 121680, Note_on_c, 15, 50, 76
13, 121859, Note_on_c, 15, 69, 0
13, 121859, Note_on_c, 15, 62, 0
13, 121859, Note_on_c, 15, 65, 0
13, 121859, Note_on_c, 15, 50, 0
13, 121860, Note_on_c, 15, 52, 76
13, 121860, Note_on_c, 15, 71, 76
13, 121860, Note_on_c, 15, 67, 76
13, 121860, Note_on_c, 15, 64, 76
13, 121919, Note_on_c, 15, 52, 0
13, 121919, Note_on_c, 15, 71, 0
13, 121919, Note_on_c, 15, 67, 0
13, 121919, Note_on_c, 15, 64, 0
13, 121920, Note_on_c, 15, 69, 76
13, 121920, Note_on_c, 15, 53, 76
13, 121920, Note_on_c, 15, 65, 76
13, 121920, Note_on_c, 15, 72, 76
13, 122159, Note_on_c, 15, 72, 0
13, 122160, Note_on_c, 15, 74, 76
13, 122399, Note_on_c, 15, 69, 0
13, 122399, Note_on_c, 15, 74, 0
13, 122400, Note_on_c, 15, 71, 76
13, 122400, Note_on_c, 15, 67, 76
13, 122400, Note_on_c, 15, 74, 76
13, 122459, Note_on_c, 15, 53, 0
13, 122459, Note_on_c, 15, 65, 0
13, 122459, Note_on_c, 15, 71, 0
13, 122459, Note_on_c, 15, 67, 0
13, 122459, Note_on_c, 15, 74, 0
13, 122460, Note_on_c, 15, 67, 76
13, 122460, Note_on_c, 15, 55, 76
13, 122460, Note_on_c, 15, 71, 76
13, 122460, Note_on_c, 15, 74, 76
13, 122519, Note_on_c, 15, 67, 0
13, 122519, Note_on_c, 15, 55, 0
13, 122519, Note_on_c, 15, 71, 0
13, 122519, Note_on_c, 15, 74, 0
13, 122520, Note_on_c, 15, 53, 76
13, 122520, Note_on_c, 15, 72, 76
13, 122520, Note_on_c, 15, 65, 76
13, 122520, Note_on_c, 15, 69, 76
13, 122579, Note_on_c, 15, 53, 0
13, 122579, Note_on_c, 15, 72, 0
13, 122579, Note_on_c, 15, 65, 0
13, 122579, Note_on_c, 15, 69, 0
13, 122580, Note_on_c, 15, 64, 76
13, 122580, Note_on_c, 15, 67, 76
13, 122580, Note_on_c, 15, 52, 76
13, 122580, Note_on_c, 15, 71, 76
13, 122639, Note_on_c, 15, 64, 0
13, 122639, Note_on_c, 15, 67, 0
13, 122639, Note_on_c, 15, 52, 0
13, 122639, Note_on_c, 15, 71, 0
13, 122640, Note_on_c, 15, 67, 76
13, 122640, Note_on_c, 15, 50, 76
13, 122640, Note_on_c, 15, 71, 76
13, 122640, Note_on_c, 15, 62, 76
13, 122699, Note_on_c, 15, 67, 0
13, 122699, Note_on_c, 15, 50, 0
13, 122699, Note_on_c, 15, 71, 0
13, 122699, Note_on_c, 15, 62, 0
13, 122700, Note_on_c, 15, 71, 76
13, 122700, Note_on_c, 15, 48, 76
13, 122700, Note_on_c, 15, 67, 76
13, 122700, Note_on_c, 15, 60, 76
13, 122759, Note_on_c, 15, 71, 0
13, 122759, Note_on_c, 15, 48, 0
13, 122759, Note_on_c, 15, 67, 0
13, 122759, Note_on_c, 15, 60, 0
13, 122760, Note_on_c, 15, 47, 76
13, 122760, Note_on_c, 15, 71, 76
13, 122760, Note_on_c, 15, 59, 76
13, 122760, Note_on_c, 15, 67, 76
13, 122819, Note_on_c, 15, 47, 0
13, 122819, Note_on_c, 15, 71, 0
13, 122819, Note_on_c, 15, 59, 0
13, 122819, Note_on_c, 15, 67, 0
13, 122820, Note_on_c, 15, 71, 76
13, 122820, Note_on_c, 15, 67, 76
13, 122820, Note_on_c, 15, 57, 76
13, 122820, Note_on_c, 15, 45, 76
13, 122879, Note_on_c, 15, 71, 0
13, 122879, Note_on_c, 15, 67, 0
13, 122879, Note_on_c, 15, 57, 0
13, 122879, Note_on_c, 15, 45, 0
13, 122880, Note_on_c, 15, 43, 76
13, 122880, Note_on_c, 15, 62, 76
13, 122880, Note_on_c, 15, 55, 76
13, 122880, Note_on_c, 15, 65, 76
13, 122880, Note_on_c, 15, 59, 76
13, 123059, Note_on_c, 15, 43, 0
13, 123059, Note_on_c, 15, 62, 0
13, 123059, Note_on_c, 15, 55, 0
13, 123059, Note_on_c, 15, 65, 0
13, 123059, Note_on_c, 15, 59, 0
13, 123060, Note_on_c, 15, 47, 76
13, 123060, Note_on_c, 15, 59, 76
13, 123060, Note_on_c, 15, 62, 76
13, 123060, Note_on_c, 15, 65, 76
13, 123119, Note_on_c, 15, 47, 0
13, 123119, Note_on_c, 15, 59, 0
13, 123119, Note_on_c, 15, 62, 0
13, 123119, Note_on_c, 15, 65, 0
13, 123120, Note_on_c, 15, 48, 76
13, 123120, Note_on_c, 15, 60, 76
13, 123120, Note_on_c, 15, 64, 76
13, 123120, Note_on_c, 15, 67, 76
13, 123299, Note_on_c, 15, 48, 0
13, 123299, Note_on_c, 15, 60, 0
13, 123299, Note_on_c, 15, 64, 0
13, 123299, Note_on_c, 15, 67, 0
13, 123300, Note_on_c, 15, 53, 76
13, 123300, Note_on_c, 15, 57, 76
13, 123300, Note_on_c, 15, 41, 76
13, 123300, Note_on_c, 15, 60, 76
13, 123359, Note_on_c, 15, 53, 0
13, 123359, Note_on_c, 15, 57, 0
13, 123359, Note_on_c, 15, 41, 0
13, 123359, Note_on_c, 15, 60, 0
13, 123360, Note_on_c, 15, 62, 76
13, 123360, Note_on_c, 15, 59, 76
13, 123360, Note_on_c, 15, 55, 76
13, 123360, Note_on_c, 15, 43, 76
13, 123599, Note_on_c, 15, 62, 0
13, 123599, Note_on_c, 15, 59, 0
13, 123599, Note_on_c, 15, 55, 0
13, 123599, Note_on_c, 15, 43, 0
13, 123600, Note_on_c, 15, 55, 76
13, 123600, Note_on_c, 15, 43, 76
13, 123600, Note_on_c, 15, 59, 76
13, 123600, Note_on_c, 15, 62, 76
13, 123839, Note_on_c, 15, 55, 0
13, 123839, Note_on_c, 15, 43, 0
13, 123839, Note_on_c, 15, 59, 0
13, 123839, Note_on_c, 15, 62, 0
13, 123840, Note_on_c, 15, 55, 76
13, 123840, Note_on_c, 15, 52, 76
13, 123840, Note_on_c, 15, 48, 76
13, 123840, Note_on_c, 15, 36, 76
13, 123959, Note_on_c, 15, 55, 0
13, 123959, Note_on_c, 15, 52, 0
13, 123959, Note_on_c, 15, 48, 0
13, 123959, Note_on_c, 15, 36, 0
13, 128280, Note_on_c, 15, 60, 76
13, 128280, Note_on_c, 15, 79, 76
13, 128280, Note_on_c, 15, 76, 76
13, 128280, Note_on_c, 15, 72, 76
13, 128399, Note_on_c, 15, 60, 0
13, 128399, Note_on_c, 15, 79, 0
13, 128399, Note_on_c, 15, 76, 0
13, 128399, Note_on_c, 15, 72, 0
13, 128400, Note_on_c, 15, 60, 76
13, 128400, Note_on_c, 15, 79, 76
13, 128400, Note_on_c, 15, 72, 76
13, 128400, Note_on_c, 15, 76, 76
13, 128519, Note_on_c, 15, 60, 0
13, 128519, Note_on_c, 15, 79, 0
13, 128519, Note_on_c, 15, 72, 0
13, 128519, Note_on_c, 15, 76, 0
13, 128520, Note_on_c, 15, 76, 76
13, 128520, Note_on_c, 15, 79, 76
13, 128520, Note_on_c, 15, 72, 76
13, 128520, Note_on_c, 15, 60, 76
13, 128639, Note_on_c, 15, 76, 0
13, 128639, Note_on_c, 15, 79, 0
13, 128639, Note_on_c, 15, 72, 0
13, 128639, Note_on_c, 15, 60, 0
13, 128640, Note_on_c, 15, 79, 76
13, 128640, Note_on_c, 15, 59, 76
13, 128640, Note_on_c, 15, 74, 76
13, 128640, Note_on_c, 15, 71, 76
13, 128759, Note_on_c, 15, 79, 0
13, 128759, Note_on_c, 15, 59, 0
13, 128759, Note_on_c, 15, 74, 0
13, 128759, Note_on_c, 15, 71, 0
13, 128760, Note_on_c, 15, 72, 76
13, 128760, Note_on_c, 15, 60, 76
13, 128760, Note_on_c, 15, 76, 76
13, 128760, Note_on_c, 15, 79, 76
13, 128819, Note_on_c, 15, 72, 0
13, 128819, Note_on_c, 15, 60, 0
13, 128819, Note_on_c, 15, 76, 0
13, 128819, Note_on_c, 15, 79, 0
13, 128820, Note_on_c, 15, 77, 76
13, 128820, Note_on_c, 15, 81, 76
13, 128820, Note_on_c, 15, 62, 76
13, 128820, Note_on_c, 15, 74, 76
13, 128879, Note_on_c, 15, 77, 0
13, 128879, Note_on_c, 15, 81, 0
13, 128879, Note_on_c, 15, 62, 0
13, 128879, Note_on_c, 15, 74, 0
13, 128880, Note_on_c, 15, 79, 76
13, 128880, Note_on_c, 15, 76, 76
13, 128880, Note_on_c, 15, 64, 76
13, 128880, Note_on_c, 15, 83, 76
13, 128999, Note_on_c, 15, 79, 0
13, 128999, Note_on_c, 15, 76, 0
13, 128999, Note_on_c, 15, 64, 0
13, 128999, Note_on_c, 15, 83, 0
13, 129000, Note_on_c, 15, 79, 76
13, 129000, Note_on_c, 15, 72, 76
13, 129000, Note_on_c, 15, 60, 76
13, 129000, Note_on_c, 15, 76, 76
13, 129119, Note_on_c, 15, 79, 0
13, 129119, Note_on_c, 15, 72, 0
13, 129119, Note_on_c, 15, 60, 0
13, 129119, Note_on_c, 15, 76, 0
13, 129120, Note_on_c, 15, 57, 76
13, 129120, Note_on_c, 15, 79, 76
13, 129120, Note_on_c, 15, 69, 76
13, 129120, Note_on_c, 15, 76, 76
13, 129120, Note_on_c, 15, 72, 76
13, 129239, Note_on_c, 15, 57, 0
13, 129239, Note_on_c, 15, 79, 0
13, 129239, Note_on_c, 15, 69, 0
13, 129239, Note_on_c, 15, 76, 0
13, 129239, Note_on_c, 15, 72, 0
13, 129240, Note_on_c, 15, 62, 76
13, 129240, Note_on_c, 15, 74, 76
13, 129240, Note_on_c, 15, 81, 76
13, 129240, Note_on_c, 15, 78, 76
13, 129359, Note_on_c, 15, 62, 0
13, 129359, Note_on_c, 15, 74, 0
13, 129359, Note_on_c, 15, 81, 0
13, 129359, Note_on_c, 15, 78, 0
13, 129360, Note_on_c, 15, 62, 76
13, 129360, Note_on_c, 15, 50, 76
13, 129360, Note_on_c, 15, 69, 76
13, 129360, Note_on_c, 15, 66, 76
13, 129479, Note_on_c, 15, 62, 0
13, 129479, Note_on_c, 15, 50, 0
13, 129479, Note_on_c, 15, 69, 0
13, 129479, Note_on_c, 15, 66, 0
13, 129480, Note_on_c, 15, 72, 76
13, 129480, Note_on_c, 15, 60, 76
13, 129480, Note_on_c, 15, 79, 76
13, 129480, Note_on_c, 15, 76, 76
13, 129599, Note_on_c, 15, 72, 0
13, 129599, Note_on_c, 15, 60, 0
13, 129599, Note_on_c, 15, 79, 0
13, 129599, Note_on_c, 15, 76, 0
13, 129600, Note_on_c, 15, 59, 76
13, 129600, Note_on_c, 15, 74, 76
13, 129600, Note_on_c, 15, 79, 76
13, 129600, Note_on_c, 15, 71, 76
13, 129659, Note_on_c, 15, 59, 0
13, 129659, Note_on_c, 15, 74, 0
13, 129659, Note_on_c, 15, 79, 0
13, 129659, Note_on_c, 15, 71, 0
13, 129660, Note_on_c, 15, 69, 76
13, 129660, Note_on_c, 15, 72, 76
13, 129660, Note_on_c, 15, 76, 76
13, 129660, Note_on_c, 15, 57, 76
13, 129719, Note_on_c, 15, 69, 0
13, 129719, Note_on_c, 15, 72, 0
13, 129719, Note_on_c, 15, 76, 0
13, 129719, Note_on_c, 15, 57, 0
13, 129720, Note_on_c, 15, 74, 76
13, 129720, Note_on_c, 15, 55, 76
13, 129720, Note_on_c, 15, 67, 76
13, 129720, Note_on_c, 15, 71, 76
13, 129779, Note_on_c, 15, 74, 0
13, 129779, Note_on_c, 15, 55, 0
13, 129779, Note_on_c, 15, 67, 0
13, 129779, Note_on_c, 15, 71, 0
13, 129780, Note_on_c, 15, 69, 76
13, 129780, Note_on_c, 15, 57, 76
13, 129780, Note_on_c, 15, 72, 76
13, 129780, Note_on_c, 15, 76, 76
13, 129839, Note_on_c, 15, 69, 0
13, 129839, Note_on_c, 15, 57, 0
13, 129839, Note_on_c, 15, 72, 0
13, 129839, Note_on_c, 15, 76, 0
13, 129840, Note_on_c, 15, 59, 76
13, 129840, Note_on_c, 15, 71, 76
13, 129840, Note_on_c, 15, 77, 76
13, 129840, Note_on_c, 15, 74, 76
13, 129899, Note_on_c, 15, 59, 0
13, 129899, Note_on_c, 15, 71, 0
13, 129899, Note_on_c, 15, 77, 0
13, 129899, Note_on_c, 15, 74, 0
13, 129900, Note_on_c, 15, 67, 76
13, 129900, Note_on_c, 15, 71, 76
13, 129900, Note_on_c, 15, 74, 76
13, 129900, Note_on_c, 15, 55, 76
13, 129959, Note_on_c, 15, 67, 0
13, 129959, Note_on_c, 15, 71, 0
13, 129959, Note_on_c, 15, 74, 0
13, 129959, Note_on_c, 15, 55, 0
13, 129960, Note_on_c, 15, 76, 76
13, 129960, Note_on_c, 15, 57, 76
13, 129960, Note_on_c, 15, 69, 76
13, 129960, Note_on_c, 15, 72, 76
13, 130019, Note_on_c, 15, 76, 0
13, 130019, Note_on_c, 15, 57, 0
13, 130019, Note_on_c, 15, 69, 0
13, 130019, Note_on_c, 15, 72, 0
13, 130020, Note_on_c, 15, 59, 76
13, 130020, Note_on_c, 15, 77, 76
13, 130020, Note_on_c, 15, 71, 76
13, 130020, Note_on_c, 15, 74, 76
13, 130079, Note_on_c, 15, 59, 0
13, 130079, Note_on_c, 15, 77, 0
13, 130079, Note_on_c, 15, 71, 0
13, 130079, Note_on_c, 15, 74, 0
13, 130080, Note_on_c, 15, 79, 76
13, 130080, Note_on_c, 15, 76, 76
13, 130080, Note_on_c, 15, 72, 76
13, 130080, Note_on_c, 15, 60, 76
13, 130199, Note_on_c, 15, 79, 0
13, 130199, Note_on_c, 15, 76, 0
13, 130199, Note_on_c, 15, 72, 0
13, 130199, Note_on_c, 15, 60, 0
13, 130200, Note_on_c, 15, 71, 76
13, 130200, Note_on_c, 15, 67, 76
13, 130200, Note_on_c, 15, 55, 76
13, 130200, Note_on_c, 15, 74, 76
13, 130319, Note_on_c, 15, 71, 0
13, 130319, Note_on_c, 15, 67, 0
13, 130319, Note_on_c, 15, 55, 0
13, 130319, Note_on_c, 15, 74, 0
13, 130320, Note_on_c, 15, 72, 76
13, 130320, Note_on_c, 15, 76, 76
13, 130320, Note_on_c, 15, 81, 76
13, 130320, Note_on_c, 15, 60, 76
13, 130499, Note_on_c, 15, 72, 0
13, 130499, Note_on_c, 15, 76, 0
13, 130499, Note_on_c, 15, 81, 0
13, 130499, Note_on_c, 15, 60, 0
13, 130500, Note_on_c, 15, 72, 76
13, 130500, Note_on_c, 15, 76, 76
13, 130500, Note_on_c, 15, 60, 76
13, 130500, Note_on_c, 15, 79, 76
13, 130559, Note_on_c, 15, 72, 0
13, 130559, Note_on_c, 15, 76, 0
13, 130559, Note_on_c, 15, 60, 0
13, 130559, Note_on_c, 15, 79, 0
13, 130560, Note_on_c, 15, 72, 76
13, 130560, Note_on_c, 15, 81, 76
13, 130560, Note_on_c, 15, 74, 76
13, 130560, Note_on_c, 15, 77, 76
13, 130560, Note_on_c, 15, 60, 76
13, 130619, Note_on_c, 15, 72, 0
13, 130619, Note_on_c, 15, 81, 0
13, 130619, Note_on_c, 15, 74, 0
13, 130619, Note_on_c, 15, 77, 0
13, 130619, Note_on_c, 15, 60, 0
13, 130620, Note_on_c, 15, 71, 76
13, 130620, Note_on_c, 15, 77, 76
13, 130620, Note_on_c, 15, 59, 76
13, 130620, Note_on_c, 15, 74, 76
13, 130679, Note_on_c, 15, 71, 0
13, 130679, Note_on_c, 15, 77, 0
13, 130679, Note_on_c, 15, 59, 0
13, 130679, Note_on_c, 15, 74, 0
13, 130680, Note_on_c, 15, 76, 76
13, 130680, Note_on_c, 15, 72, 76
13, 130680, Note_on_c, 15, 60, 76
13, 130680, Note_on_c, 15, 79, 76
13, 130739, Note_on_c, 15, 76, 0
13, 130739, Note_on_c, 15, 72, 0
13, 130739, Note_on_c, 15, 60, 0
13, 130739, Note_on_c, 15, 79, 0
13, 130740, Note_on_c, 15, 76, 76
13, 130740, Note_on_c, 15, 72, 76
13, 130740, Note_on_c, 15, 69, 76
13, 130740, Note_on_c, 15, 57, 76
13, 130799, Note_on_c, 15, 76, 0
13, 130799, Note_on_c, 15, 72, 0
13, 130799, Note_on_c, 15, 69, 0
13, 130799, Note_on_c, 15, 57, 0
13, 130800, Note_on_c, 15, 71, 76
13, 130800, Note_on_c, 15, 59, 76
13, 130800, Note_on_c, 15, 74, 76
13, 130800, Note_on_c, 15, 79, 76
13, 130979, Note_on_c, 15, 71, 0
13, 130979, Note_on_c, 15, 59, 0
13, 130979, Note_on_c, 15, 74, 0
13, 130979, Note_on_c, 15, 79, 0
13, 130980, Note_on_c, 15, 74, 76
13, 130980, Note_on_c, 15, 77, 76
13, 130980, Note_on_c, 15, 59, 76
13, 130980, Note_on_c, 15, 71, 76
13, 131039, Note_on_c, 15, 74, 0
13, 131039, Note_on_c, 15, 77, 0
13, 131039, Note_on_c, 15, 59, 0
13, 131039, Note_on_c, 15, 71, 0
13, 131040, Note_on_c, 15, 71, 76
13, 131040, Note_on_c, 15, 76, 76
13, 131040, Note_on_c, 15, 72, 76
13, 131040, Note_on_c, 15, 79, 76
13, 131040, Note_on_c, 15, 59, 76
13, 131159, Note_on_c, 15, 71, 0
13, 131159, Note_on_c, 15, 76, 0
13, 131159, Note_on_c, 15, 72, 0
13, 131159, Note_on_c, 15, 79, 0
13, 131159, Note_on_c, 15, 59, 0
13, 131160, Note_on_c, 15, 67, 76
13, 131160, Note_on_c, 15, 52, 76
13, 131160, Note_on_c, 15, 64, 76
13, 131160, Note_on_c, 15, 71, 76
13, 131279, Note_on_c, 15, 67, 0
13, 131279, Note_on_c, 15, 52, 0
13, 131279, Note_on_c, 15, 64, 0
13, 131279, Note_on_c, 15, 71, 0
13, 131280, Note_on_c, 15, 69, 76
13, 131280, Note_on_c, 15, 77, 76
13, 131280, Note_on_c, 15, 72, 76
13, 131280, Note_on_c, 15, 57, 76
13, 131459, Note_on_c, 15, 69, 0
13, 131459, Note_on_c, 15, 77, 0
13, 131459, Note_on_c, 15, 72, 0
13, 131459, Note_on_c, 15, 57, 0
13, 131460, Note_on_c, 15, 57, 76
13, 131460, Note_on_c, 15, 76, 76
13, 131460, Note_on_c, 15, 72, 76
13, 131460, Note_on_c, 15, 69, 76
13, 131519, Note_on_c, 15, 57, 0
13, 131519, Note_on_c, 15, 76, 0
13, 131519, Note_on_c, 15, 72, 0
13, 131519, Note_on_c, 15, 69, 0
13, 131520, Note_on_c, 15, 57, 76
13, 131520, Note_on_c, 15, 69, 76
13, 131520, Note_on_c, 15, 74, 76
13, 131520, Note_on_c, 15, 77, 76
13, 131520, Note_on_c, 15, 71, 76
13, 131579, Note_on_c, 15, 57, 0
13, 131579, Note_on_c, 15, 69, 0
13, 131579, Note_on_c, 15, 74, 0
13, 131579, Note_on_c, 15, 77, 0
13, 131579, Note_on_c, 15, 71, 0
13, 131580, Note_on_c, 15, 67, 76
13, 131580, Note_on_c, 15, 71, 76
13, 131580, Note_on_c, 15, 74, 76
13, 131580, Note_on_c, 15, 55, 76
13, 131639, Note_on_c, 15, 67, 0
13, 131639, Note_on_c, 15, 71, 0
13, 131639, Note_on_c, 15, 74, 0
13, 131639, Note_on_c, 15, 55, 0
13, 131640, Note_on_c, 15, 76, 76
13, 131640, Note_on_c, 15, 72, 76
13, 131640, Note_on_c, 15, 69, 76
13, 131640, Note_on_c, 15, 57, 76
13, 131699, Note_on_c, 15, 76, 0
13, 131699, Note_on_c, 15, 72, 0
13, 131699, Note_on_c, 15, 69, 0
13, 131699, Note_on_c, 15, 57, 0
13, 131700, Note_on_c, 15, 65, 76
13, 131700, Note_on_c, 15, 69, 76
13, 131700, Note_on_c, 15, 72, 76
13, 131700, Note_on_c, 15, 53, 76
13, 131759, Note_on_c, 15, 65, 0
13, 131759, Note_on_c, 15, 69, 0
13, 131759, Note_on_c, 15, 72, 0
13, 131759, Note_on_c, 15, 53, 0
13, 131760, Note_on_c, 15, 71, 76
13, 131760, Note_on_c, 15, 55, 76
13, 131760, Note_on_c, 15, 67, 76
13, 131760, Note_on_c, 15, 76, 76
13, 131939, Note_on_c, 15, 71, 0
13, 131939, Note_on_c, 15, 55, 0
13, 131939, Note_on_c, 15, 67, 0
13, 131939, Note_on_c, 15, 76, 0
13, 131940, Note_on_c, 15, 71, 76
13, 131940, Note_on_c, 15, 67, 76
13, 131940, Note_on_c, 15, 74, 76
13, 131940, Note_on_c, 15, 55, 76
13, 131999, Note_on_c, 15, 71, 0
13, 131999, Note_on_c, 15, 67, 0
13, 131999, Note_on_c, 15, 74, 0
13, 131999, Note_on_c, 15, 55, 0
13, 132000, Note_on_c, 15, 55, 76
13, 132000, Note_on_c, 15, 69, 76
13, 132000, Note_on_c, 15, 76, 76
13, 132000, Note_on_c, 15, 72, 76
13, 132000, Note_on_c, 15, 67, 76
13, 132119, Note_on_c, 15, 55, 0
13, 132119, Note_on_c, 15, 69, 0
13, 132119, Note_on_c, 15, 76, 0
13, 132119, Note_on_c, 15, 72, 0
13, 132119, Note_on_c, 15, 67, 0
13, 132120, Note_on_c, 15, 67, 76
13, 132120, Note_on_c, 15, 64, 76
13, 132120, Note_on_c, 15, 48, 76
13, 132120, Note_on_c, 15, 60, 76
13, 132239, Note_on_c, 15, 67, 0
13, 132239, Note_on_c, 15, 64, 0
13, 132239, Note_on_c, 15, 48, 0
13, 132239, Note_on_c, 15, 60, 0
13, 132240, Note_on_c, 15, 65, 76
13, 132240, Note_on_c, 15, 74, 76
13, 132240, Note_on_c, 15, 69, 76
13, 132240, Note_on_c, 15, 53, 76
13, 132419, Note_on_c, 15, 65, 0
13, 132419, Note_on_c, 15, 74, 0
13, 132419, Note_on_c, 15, 69, 0
13, 132419, Note_on_c, 15, 53, 0
13, 132420, Note_on_c, 15, 72, 76
13, 132420, Note_on_c, 15, 65, 76
13, 132420, Note_on_c, 15, 69, 76
13, 132420, Note_on_c, 15, 53, 76
13, 132479, Note_on_c, 15, 72, 0
13, 132479, Note_on_c, 15, 65, 0
13, 132479, Note_on_c, 15, 69, 0
13, 132479, Note_on_c, 15, 53, 0
13, 132480, Note_on_c, 15, 53, 76
13, 132480, Note_on_c, 15, 71, 76
13, 132480, Note_on_c, 15, 74, 76
13, 132480, Note_on_c, 15, 67, 76
13, 132480, Note_on_c, 15, 65, 76
13, 132539, Note_on_c, 15, 53, 0
13, 132539, Note_on_c, 15, 71, 0
13, 132539, Note_on_c, 15, 74, 0
13, 132539, Note_on_c, 15, 67, 0
13, 132539, Note_on_c, 15, 65, 0
13, 132540, Note_on_c, 15, 52, 76
13, 132540, Note_on_c, 15, 71, 76
13, 132540, Note_on_c, 15, 64, 76
13, 132540, Note_on_c, 15, 67, 76
13, 132599, Note_on_c, 15, 52, 0
13, 132599, Note_on_c, 15, 71, 0
13, 132599, Note_on_c, 15, 64, 0
13, 132599, Note_on_c, 15, 67, 0
13, 132600, Note_on_c, 15, 69, 76
13, 132600, Note_on_c, 15, 72, 76
13, 132600, Note_on_c, 15, 65, 76
13, 132600, Note_on_c, 15, 53, 76
13, 132659, Note_on_c, 15, 69, 0
13, 132659, Note_on_c, 15, 72, 0
13, 132659, Note_on_c, 15, 65, 0
13, 132659, Note_on_c, 15, 53, 0
13, 132660, Note_on_c, 15, 50, 76
13, 132660, Note_on_c, 15, 62, 76
13, 132660, Note_on_c, 15, 65, 76
13, 132660, Note_on_c, 15, 69, 76
13, 132719, Note_on_c, 15, 50, 0
13, 132719, Note_on_c, 15, 62, 0
13, 132719, Note_on_c, 15, 65, 0
13, 132719, Note_on_c, 15, 69, 0
13, 132720, Note_on_c, 15, 64, 76
13, 132720, Note_on_c, 15, 52, 76
13, 132720, Note_on_c, 15, 71, 76
13, 132720, Note_on_c, 15, 67, 76
13, 132779, Note_on_c, 15, 64, 0
13, 132779, Note_on_c, 15, 52, 0
13, 132779, Note_on_c, 15, 71, 0
13, 132779, Note_on_c, 15, 67, 0
13, 132780, Note_on_c, 15, 65, 76
13, 132780, Note_on_c, 15, 53, 76
13, 132780, Note_on_c, 15, 72, 76
13, 132780, Note_on_c, 15, 69, 76
13, 132839, Note_on_c, 15, 65, 0
13, 132839, Note_on_c, 15, 53, 0
13, 132839, Note_on_c, 15, 72, 0
13, 132839, Note_on_c, 15, 69, 0
13, 132840, Note_on_c, 15, 67, 76
13, 132840, Note_on_c, 15, 71, 76
13, 132840, Note_on_c, 15, 74, 76
13, 132840, Note_on_c, 15, 55, 76
13, 132899, Note_on_c, 15, 67, 0
13, 132899, Note_on_c, 15, 71, 0
13, 132899, Note_on_c, 15, 74, 0
13, 132899, Note_on_c, 15, 55, 0
13, 132900, Note_on_c, 15, 71, 76
13, 132900, Note_on_c, 15, 52, 76
13, 132900, Note_on_c, 15, 67, 76
13, 132900, Note_on_c, 15, 64, 76
13, 132959, Note_on_c, 15, 71, 0
13, 132959, Note_on_c, 15, 52, 0
13, 132959, Note_on_c, 15, 67, 0
13, 132959, Note_on_c, 15, 64, 0
13, 132960, Note_on_c, 15, 69, 76
13, 132960, Note_on_c, 15, 76, 76
13, 132960, Note_on_c, 15, 57, 76
13, 132960, Note_on_c, 15, 72, 76
13, 133019, Note_on_c, 15, 69, 0
13, 133019, Note_on_c, 15, 76, 0
13, 133019, Note_on_c, 15, 57, 0
13, 133019, Note_on_c, 15, 72, 0
13, 133020, Note_on_c, 15, 58, 76
13, 133020, Note_on_c, 15, 77, 76
13, 133020, Note_on_c, 15, 70, 76
13, 133020, Note_on_c, 15, 74, 76
13, 133079, Note_on_c, 15, 58, 0
13, 133079, Note_on_c, 15, 77, 0
13, 133079, Note_on_c, 15, 70, 0
13, 133079, Note_on_c, 15, 74, 0
13, 133080, Note_on_c, 15, 76, 76
13, 133080, Note_on_c, 15, 69, 76
13, 133080, Note_on_c, 15, 57, 76
13, 133080, Note_on_c, 15, 72, 76
13, 133139, Note_on_c, 15, 76, 0
13, 133139, Note_on_c, 15, 69, 0
13, 133139, Note_on_c, 15, 57, 0
13, 133139, Note_on_c, 15, 72, 0
13, 133140, Note_on_c, 15, 55, 76
13, 133140, Note_on_c, 15, 71, 76
13, 133140, Note_on_c, 15, 67, 76
13, 133140, Note_on_c, 15, 74, 76
13, 133199, Note_on_c, 15, 55, 0
13, 133199, Note_on_c, 15, 71, 0
13, 133199, Note_on_c, 15, 67, 0
13, 133199, Note_on_c, 15, 74, 0
13, 133200, Note_on_c, 15, 65, 76
13, 133200, Note_on_c, 15, 53, 76
13, 133200, Note_on_c, 15, 69, 76
13, 133259, Note_on_c, 15, 65, 0
13, 133259, Note_on_c, 15, 53, 0
13, 133259, Note_on_c, 15, 69, 0
13, 133260, Note_on_c, 15, 71, 76
13, 133260, Note_on_c, 15, 67, 76
13, 133260, Note_on_c, 15, 52, 76
13, 133260, Note_on_c, 15, 64, 76
13, 133319, Note_on_c, 15, 71, 0
13, 133319, Note_on_c, 15, 67, 0
13, 133319, Note_on_c, 15, 52, 0
13, 133319, Note_on_c, 15, 64, 0
13, 133320, Note_on_c, 15, 62, 76
13, 133320, Note_on_c, 15, 65, 76
13, 133320, Note_on_c, 15, 50, 76
13, 133379, Note_on_c, 15, 62, 0
13, 133379, Note_on_c, 15, 65, 0
13, 133379, Note_on_c, 15, 50, 0
13, 133380, Note_on_c, 15, 60, 76
13, 133380, Note_on_c, 15, 67, 76
13, 133380, Note_on_c, 15, 64, 76
13, 133380, Note_on_c, 15, 48, 76
13, 133439, Note_on_c, 15, 60, 0
13, 133439, Note_on_c, 15, 67, 0
13, 133439, Note_on_c, 15, 64, 0
13, 133439, Note_on_c, 15, 48, 0
13, 133440, Note_on_c, 15, 59, 76
13, 133440, Note_on_c, 15, 67, 76
13, 133440, Note_on_c, 15, 62, 76
13, 133440, Note_on_c, 15, 47, 76
13, 133499, Note_on_c, 15, 59, 0
13, 133499, Note_on_c, 15, 67, 0
13, 133499, Note_on_c, 15, 62, 0
13, 133499, Note_on_c, 15, 47, 0
13, 133500, Note_on_c, 15, 57, 76
13, 133500, Note_on_c, 15, 60, 76
13, 133500, Note_on_c, 15, 64, 76
13, 133500, Note_on_c, 15, 45, 76
13, 133559, Note_on_c, 15, 57, 0
13, 133559, Note_on_c, 15, 60, 0
13, 133559, Note_on_c, 15, 64, 0
13, 133559, Note_on_c, 15, 45, 0
13, 133560, Note_on_c, 15, 43, 76
13, 133560, Note_on_c, 15, 62, 76
13, 133560, Note_on_c, 15, 55, 76
13, 133560, Note_on_c, 15, 59, 76
13, 133619, Note_on_c, 15, 43, 0
13, 133619, Note_on_c, 15, 62, 0
13, 133619, Note_on_c, 15, 55, 0
13, 133619, Note_on_c, 15, 59, 0
13, 133620, Note_on_c, 15, 64, 76
13, 133620, Note_on_c, 15, 60, 76
13, 133620, Note_on_c, 15, 57, 76
13, 133620, Note_on_c, 15, 45, 76
13, 133679, Note_on_c, 15, 64, 0
13, 133679, Note_on_c, 15, 60, 0
13, 133679, Note_on_c, 15, 57, 0
13, 133679, Note_on_c, 15, 45, 0
13, 133680, Note_on_c, 15, 67, 76
13, 133680, Note_on_c, 15, 59, 76
13, 133680, Note_on_c, 15, 47, 76
13, 133680, Note_on_c, 15, 62, 76
13, 133739, Note_on_c, 15, 67, 0
13, 133739, Note_on_c, 15, 59, 0
13, 133739, Note_on_c, 15, 47, 0
13, 133739, Note_on_c, 15, 62, 0
13, 133740, Note_on_c, 15, 60, 76
13, 133740, Note_on_c, 15, 64, 76
13, 133740, Note_on_c, 15, 57, 76
13, 133740, Note_on_c, 15, 45, 76
13, 133799, Note_on_c, 15, 60, 0
13, 133799, Note_on_c, 15, 64, 0
13, 133799, Note_on_c, 15, 57, 0
13, 133799, Note_on_c, 15, 45, 0
13, 133800, Note_on_c, 15, 65, 76
13, 133800, Note_on_c, 15, 59, 76
13, 133800, Note_on_c, 15, 47, 76
13, 133800, Note_on_c, 15, 62, 76
13, 133859, Note_on_c, 15, 65, 0
13, 133859, Note_on_c, 15, 59, 0
13, 133859, Note_on_c, 15, 47, 0
13, 133859, Note_on_c, 15, 62, 0
13, 133860, Note_on_c, 15, 59, 76
13, 133860, Note_on_c, 15, 62, 76
13, 133860, Note_on_c, 15, 43, 76
13, 133860, Note_on_c, 15, 55, 76
13, 133919, Note_on_c, 15, 59, 0
13, 133919, Note_on_c, 15, 62, 0
13, 133919, Note_on_c, 15, 43, 0
13, 133919, Note_on_c, 15, 55, 0
13, 133920, Note_on_c, 15, 67, 76
13, 133920, Note_on_c, 15, 64, 76
13, 133920, Note_on_c, 15, 60, 76
13, 133920, Note_on_c, 15, 48, 76
13, 134039, Note_on_c, 15, 67, 0
13, 134039, Note_on_c, 15, 64, 0
13, 134039, Note_on_c, 15, 60, 0
13, 134039, Note_on_c, 15, 48, 0
13, 134040, Note_on_c, 15, 69, 76
13, 134040, Note_on_c, 15, 65, 76
13, 134040, Note_on_c, 15, 72, 76
13, 134040, Note_on_c, 15, 53, 76
13, 134159, Note_on_c, 15, 69, 0
13, 134159, Note_on_c, 15, 65, 0
13, 134159, Note_on_c, 15, 72, 0
13, 134159, Note_on_c, 15, 53, 0
13, 134160, Note_on_c, 15, 55, 76
13, 134160, Note_on_c, 15, 71, 76
13, 134160, Note_on_c, 15, 74, 76
13, 134160, Note_on_c, 15, 67, 76
13, 134279, Note_on_c, 15, 55, 0
13, 134279, Note_on_c, 15, 71, 0
13, 134279, Note_on_c, 15, 74, 0
13, 134279, Note_on_c, 15, 67, 0
13, 134280, Note_on_c, 15, 43, 76
13, 134280, Note_on_c, 15, 55, 76
13, 134280, Note_on_c, 15, 62, 76
13, 134280, Note_on_c, 15, 59, 76
13, 134399, Note_on_c, 15, 43, 0
13, 134399, Note_on_c, 15, 55, 0
13, 134399, Note_on_c, 15, 62, 0
13, 134399, Note_on_c, 15, 59, 0
13, 134400, Note_on_c, 15, 64, 76
13, 134400, Note_on_c, 15, 67, 76
13, 134400, Note_on_c, 15, 48, 76
13, 134400, Note_on_c, 15, 60, 76
13, 134519, Note_on_c, 15, 64, 0
13, 134519, Note_on_c, 15, 67, 0
13, 134519, Note_on_c, 15, 48, 0
13, 134519, Note_on_c, 15, 60, 0
13, 140700, Note_on_c, 15, 60, 76
13, 140700, Note_on_c, 15, 76, 76
13, 140700, Note_on_c, 15, 79, 76
13, 140700, Note_on_c, 15, 72, 76
13, 140759, Note_on_c, 15, 60, 0
13, 140759, Note_on_c, 15, 76, 0
13, 140759, Note_on_c, 15, 79, 0
13, 140759, Note_on_c, 15, 72, 0
13, 140760, Note_on_c, 15, 59, 76
13, 140760, Note_on_c, 15, 74, 76
13, 140760, Note_on_c, 15, 78, 76
13, 140760, Note_on_c, 15, 71, 76
13, 140819, Note_on_c, 15, 59, 0
13, 140819, Note_on_c, 15, 74, 0
13, 140819, Note_on_c, 15, 78, 0
13, 140819, Note_on_c, 15, 71, 0
13, 140820, Note_on_c, 15, 76, 76
13, 140820, Note_on_c, 15, 69, 76
13, 140820, Note_on_c, 15, 72, 76
13, 140820, Note_on_c, 15, 57, 76
13, 140879, Note_on_c, 15, 76, 0
13, 140879, Note_on_c, 15, 69, 0
13, 140879, Note_on_c, 15, 72, 0
13, 140879, Note_on_c, 15, 57, 0
13, 140880, Note_on_c, 15, 56, 76
13, 140880, Note_on_c, 15, 71, 76
13, 140880, Note_on_c, 15, 68, 76
13, 140880, Note_on_c, 15, 74, 76
13, 140939, Note_on_c, 15, 56, 0
13, 140939, Note_on_c, 15, 71, 0
13, 140939, Note_on_c, 15, 68, 0
13, 140939, Note_on_c, 15, 74, 0
13, 140940, Note_on_c, 15, 76, 76
13, 140940, Note_on_c, 15, 72, 76
13, 140940, Note_on_c, 15, 69, 76
13, 140940, Note_on_c, 15, 57, 76
13, 140999, Note_on_c, 15, 76, 0
13, 140999, Note_on_c, 15, 72, 0
13, 140999, Note_on_c, 15, 69, 0
13, 140999, Note_on_c, 15, 57, 0
13, 141000, Note_on_c, 15, 74, 76
13, 141000, Note_on_c, 15, 71, 76
13, 141000, Note_on_c, 15, 56, 76
13, 141000, Note_on_c, 15, 68, 76
13, 141059, Note_on_c, 15, 74, 0
13, 141059, Note_on_c, 15, 71, 0
13, 141059, Note_on_c, 15, 56, 0
13, 141059, Note_on_c, 15, 68, 0
13, 141060, Note_on_c, 15, 72, 76
13, 141060, Note_on_c, 15, 66, 76
13, 141060, Note_on_c, 15, 69, 76
13, 141060, Note_on_c, 15, 54, 76
13, 141119, Note_on_c, 15, 72, 0
13, 141119, Note_on_c, 15, 66, 0
13, 141119, Note_on_c, 15, 69, 0
13, 141119, Note_on_c, 15, 54, 0
13, 141120, Note_on_c, 15, 64, 76
13, 141120, Note_on_c, 15, 52, 76
13, 141120, Note_on_c, 15, 68, 76
13, 141120, Note_on_c, 15, 71, 76
13, 141179, Note_on_c, 15, 64, 0
13, 141179, Note_on_c, 15, 52, 0
13, 141179, Note_on_c, 15, 68, 0
13, 141179, Note_on_c, 15, 71, 0
13, 141180, Note_on_c, 15, 74, 76
13, 141180, Note_on_c, 15, 77, 76
13, 141180, Note_on_c, 15, 81, 76
13, 141180, Note_on_c, 15, 62, 76
13, 141239, Note_on_c, 15, 74, 0
13, 141239, Note_on_c, 15, 77, 0
13, 141239, Note_on_c, 15, 81, 0
13, 141239, Note_on_c, 15, 62, 0
13, 141240, Note_on_c, 15, 60, 76
13, 141240, Note_on_c, 15, 72, 76
13, 141240, Note_on_c, 15, 80, 76
13, 141240, Note_on_c, 15, 76, 76
13, 141299, Note_on_c, 15, 60, 0
13, 141299, Note_on_c, 15, 72, 0
13, 141299, Note_on_c, 15, 80, 0
13, 141299, Note_on_c, 15, 76, 0
13, 141300, Note_on_c, 15, 74, 76
13, 141300, Note_on_c, 15, 77, 76
13, 141300, Note_on_c, 15, 71, 76
13, 141300, Note_on_c, 15, 59, 76
13, 141359, Note_on_c, 15, 74, 0
13, 141359, Note_on_c, 15, 77, 0
13, 141359, Note_on_c, 15, 71, 0
13, 141359, Note_on_c, 15, 59, 0
13, 141360, Note_on_c, 15, 72, 76
13, 141360, Note_on_c, 15, 76, 76
13, 141360, Note_on_c, 15, 57, 76
13, 141360, Note_on_c, 15, 69, 76
13, 141419, Note_on_c, 15, 72, 0
13, 141419, Note_on_c, 15, 76, 0
13, 141419, Note_on_c, 15, 57, 0
13, 141419, Note_on_c, 15, 69, 0
13, 141420, Note_on_c, 15, 59, 76
13, 141420, Note_on_c, 15, 74, 76
13, 141420, Note_on_c, 15, 71, 76
13, 141420, Note_on_c, 15, 77, 76
13, 141479, Note_on_c, 15, 59, 0
13, 141479, Note_on_c, 15, 74, 0
13, 141479, Note_on_c, 15, 71, 0
13, 141479, Note_on_c, 15, 77, 0
13, 141480, Note_on_c, 15, 69, 76
13, 141480, Note_on_c, 15, 57, 76
13, 141480, Note_on_c, 15, 76, 76
13, 141480, Note_on_c, 15, 72, 76
13, 141539, Note_on_c, 15, 69, 0
13, 141539, Note_on_c, 15, 57, 0
13, 141539, Note_on_c, 15, 76, 0
13, 141539, Note_on_c, 15, 72, 0
13, 141540, Note_on_c, 15, 55, 76
13, 141540, Note_on_c, 15, 67, 76
13, 141540, Note_on_c, 15, 74, 76
13, 141540, Note_on_c, 15, 71, 76
13, 141599, Note_on_c, 15, 55, 0
13, 141599, Note_on_c, 15, 67, 0
13, 141599, Note_on_c, 15, 74, 0
13, 141599, Note_on_c, 15, 71, 0
13, 141600, Note_on_c, 15, 53, 76
13, 141600, Note_on_c, 15, 72, 76
13, 141600, Note_on_c, 15, 69, 76
13, 141600, Note_on_c, 15, 65, 76
13, 141659, Note_on_c, 15, 53, 0
13, 141659, Note_on_c, 15, 72, 0
13, 141659, Note_on_c, 15, 69, 0
13, 141659, Note_on_c, 15, 65, 0
13, 141660, Note_on_c, 15, 67, 76
13, 141660, Note_on_c, 15, 71, 76
13, 141660, Note_on_c, 15, 52, 76
13, 141660, Note_on_c, 15, 64, 76
13, 141719, Note_on_c, 15, 67, 0
13, 141719, Note_on_c, 15, 71, 0
13, 141719, Note_on_c, 15, 52, 0
13, 141719, Note_on_c, 15, 64, 0
13, 141720, Note_on_c, 15, 65, 76
13, 141720, Note_on_c, 15, 74, 76
13, 141720, Note_on_c, 15, 69, 76
13, 141720, Note_on_c, 15, 53, 76
13, 141779, Note_on_c, 15, 65, 0
13, 141779, Note_on_c, 15, 74, 0
13, 141779, Note_on_c, 15, 69, 0
13, 141779, Note_on_c, 15, 53, 0
13, 141780, Note_on_c, 15, 65, 76
13, 141780, Note_on_c, 15, 50, 76
13, 141780, Note_on_c, 15, 62, 76
13, 141780, Note_on_c, 15, 69, 76
13, 141839, Note_on_c, 15, 65, 0
13, 141839, Note_on_c, 15, 50, 0
13, 141839, Note_on_c, 15, 62, 0
13, 141839, Note_on_c, 15, 69, 0
13, 141840, Note_on_c, 15, 52, 76
13, 141840, Note_on_c, 15, 68, 76
13, 141840, Note_on_c, 15, 71, 76
13, 141840, Note_on_c, 15, 64, 76
13, 141959, Note_on_c, 15, 52, 0
13, 141959, Note_on_c, 15, 68, 0
13, 141959, Note_on_c, 15, 71, 0
13, 141959, Note_on_c, 15, 64, 0
13, 141960, Note_on_c, 15, 56, 76
13, 141960, Note_on_c, 15, 52, 76
13, 141960, Note_on_c, 15, 59, 76
13, 141960, Note_on_c, 15, 40, 76
13, 142079, Note_on_c, 15, 56, 0
13, 142079, Note_on_c, 15, 52, 0
13, 142079, Note_on_c, 15, 59, 0
13, 142079, Note_on_c, 15, 40, 0
13, 142080, Note_on_c, 15, 64, 76
13, 142080, Note_on_c, 15, 60, 76
13, 142080, Note_on_c, 15, 57, 76
13, 142080, Note_on_c, 15, 45, 76
13, 142199, Note_on_c, 15, 64, 0
13, 142199, Note_on_c, 15, 60, 0
13, 142199, Note_on_c, 15, 57, 0
13, 142199, Note_on_c, 15, 45, 0
13, 142200, Note_on_c, 15, 57, 76
13, 142200, Note_on_c, 15, 76, 76
13, 142200, Note_on_c, 15, 69, 76
13, 142200, Note_on_c, 15, 72, 76
13, 142319, Note_on_c, 15, 57, 0
13, 142319, Note_on_c, 15, 76, 0
13, 142319, Note_on_c, 15, 69, 0
13, 142319, Note_on_c, 15, 72, 0
13, 142320, Note_on_c, 15, 57, 76
13, 142320, Note_on_c, 15, 72, 76
13, 142320, Note_on_c, 15, 69, 76
13, 142320, Note_on_c, 15, 76, 76
13, 142439, Note_on_c, 15, 57, 0
13, 142439, Note_on_c, 15, 72, 0
13, 142439, Note_on_c, 15, 69, 0
13, 142439, Note_on_c, 15, 76, 0
13, 142440, Note_on_c, 15, 57, 76
13, 142440, Note_on_c, 15, 72, 76
13, 142440, Note_on_c, 15, 69, 76
13, 142440, Note_on_c, 15, 78, 76
13, 142559, Note_on_c, 15, 57, 0
13, 142559, Note_on_c, 15, 72, 0
13, 142559, Note_on_c, 15, 69, 0
13, 142559, Note_on_c, 15, 78, 0
13, 142560, Note_on_c, 15, 76, 76
13, 142560, Note_on_c, 15, 71, 76
13, 142560, Note_on_c, 15, 67, 76
13, 142560, Note_on_c, 15, 55, 76
13, 142679, Note_on_c, 15, 76, 0
13, 142679, Note_on_c, 15, 71, 0
13, 142679, Note_on_c, 15, 67, 0
13, 142679, Note_on_c, 15, 55, 0
13, 142680, Note_on_c, 15, 57, 76
13, 142680, Note_on_c, 15, 75, 76
13, 142680, Note_on_c, 15, 69, 76
13, 142680, Note_on_c, 15, 78, 76
13, 142739, Note_on_c, 15, 57, 0
13, 142739, Note_on_c, 15, 75, 0
13, 142739, Note_on_c, 15, 69, 0
13, 142739, Note_on_c, 15, 78, 0
13, 142740, Note_on_c, 15, 71, 76
13, 142740, Note_on_c, 15, 59, 76
13, 142740, Note_on_c, 15, 74, 76
13, 142740, Note_on_c, 15, 78, 76
13, 142799, Note_on_c, 15, 71, 0
13, 142799, Note_on_c, 15, 59, 0
13, 142799, Note_on_c, 15, 74, 0
13, 142799, Note_on_c, 15, 78, 0
13, 142800, Note_on_c, 15, 76, 76
13, 142800, Note_on_c, 15, 60, 76
13, 142800, Note_on_c, 15, 72, 76
13, 142919, Note_on_c, 15, 76, 0
13, 142919, Note_on_c, 15, 60, 0
13, 142919, Note_on_c, 15, 72, 0
13, 142920, Note_on_c, 15, 69, 76
13, 142920, Note_on_c, 15, 76, 76
13, 142920, Note_on_c, 15, 72, 76
13, 142920, Note_on_c, 15, 57, 76
13, 143039, Note_on_c, 15, 69, 0
13, 143039, Note_on_c, 15, 76, 0
13, 143039, Note_on_c, 15, 72, 0
13, 143039, Note_on_c, 15, 57, 0
13, 143040, Note_on_c, 15, 72, 76
13, 143040, Note_on_c, 15, 69, 76
13, 143040, Note_on_c, 15, 54, 76
13, 143040, Note_on_c, 15, 66, 76
13, 143040, Note_on_c, 15, 76, 76
13, 143159, Note_on_c, 15, 72, 0
13, 143159, Note_on_c, 15, 69, 0
13, 143159, Note_on_c, 15, 54, 0
13, 143159, Note_on_c, 15, 66, 0
13, 143159, Note_on_c, 15, 76, 0
13, 143160, Note_on_c, 15, 77, 76
13, 143160, Note_on_c, 15, 74, 76
13, 143160, Note_on_c, 15, 71, 76
13, 143160, Note_on_c, 15, 59, 76
13, 143279, Note_on_c, 15, 77, 0
13, 143279, Note_on_c, 15, 74, 0
13, 143279, Note_on_c, 15, 71, 0
13, 143279, Note_on_c, 15, 59, 0
13, 143280, Note_on_c, 15, 63, 76
13, 143280, Note_on_c, 15, 59, 76
13, 143280, Note_on_c, 15, 69, 76
13, 143280, Note_on_c, 15, 47, 76
13, 143280, Note_on_c, 15, 66, 76
13, 143399, Note_on_c, 15, 63, 0
13, 143399, Note_on_c, 15, 59, 0
13, 143399, Note_on_c, 15, 69, 0
13, 143399, Note_on_c, 15, 47, 0
13, 143399, Note_on_c, 15, 66, 0
13, 143400, Note_on_c, 15, 74, 76
13, 143400, Note_on_c, 15, 78, 76
13, 143400, Note_on_c, 15, 71, 76
13, 143400, Note_on_c, 15, 59, 76
13, 143519, Note_on_c, 15, 74, 0
13, 143519, Note_on_c, 15, 78, 0
13, 143519, Note_on_c, 15, 71, 0
13, 143519, Note_on_c, 15, 59, 0
13, 143520, Note_on_c, 15, 52, 76
13, 143520, Note_on_c, 15, 67, 76
13, 143520, Note_on_c, 15, 64, 76
13, 143520, Note_on_c, 15, 71, 76
13, 143759, Note_on_c, 15, 52, 0
13, 143759, Note_on_c, 15, 67, 0
13, 143759, Note_on_c, 15, 64, 0
13, 143759, Note_on_c, 15, 71, 0
13, 145080, Note_on_c, 15, 52, 76
13, 145080, Note_on_c, 15, 64, 76
13, 145080, Note_on_c, 15, 72, 76
13, 145080, Note_on_c, 15, 69, 76
13, 145199, Note_on_c, 15, 52, 0
13, 145199, Note_on_c, 15, 64, 0
13, 145199, Note_on_c, 15, 72, 0
13, 145199, Note_on_c, 15, 69, 0
13, 145200, Note_on_c, 15, 68, 76
13, 145200, Note_on_c, 15, 52, 76
13, 145200, Note_on_c, 15, 64, 76
13, 145200, Note_on_c, 15, 71, 76
13, 145319, Note_on_c, 15, 68, 0
13, 145319, Note_on_c, 15, 52, 0
13, 145319, Note_on_c, 15, 64, 0
13, 145319, Note_on_c, 15, 71, 0
13, 145320, Note_on_c, 15, 68, 76
13, 145320, Note_on_c, 15, 71, 76
13, 145320, Note_on_c, 15, 52, 76
13, 145320, Note_on_c, 15, 64, 76
13, 145439, Note_on_c, 15, 68, 0
13, 145439, Note_on_c, 15, 71, 0
13, 145439, Note_on_c, 15, 52, 0
13, 145439, Note_on_c, 15, 64, 0
13, 145440, Note_on_c, 15, 69, 76
13, 145440, Note_on_c, 15, 48, 76
13, 145440, Note_on_c, 15, 64, 76
13, 145440, Note_on_c, 15, 60, 76
13, 145559, Note_on_c, 15, 69, 0
13, 145559, Note_on_c, 15, 48, 0
13, 145559, Note_on_c, 15, 64, 0
13, 145559, Note_on_c, 15, 60, 0
13, 145560, Note_on_c, 15, 69, 76
13, 145560, Note_on_c, 15, 50, 76
13, 145560, Note_on_c, 15, 65, 76
13, 145560, Note_on_c, 15, 62, 76
13, 145619, Note_on_c, 15, 69, 0
13, 145619, Note_on_c, 15, 50, 0
13, 145619, Note_on_c, 15, 65, 0
13, 145619, Note_on_c, 15, 62, 0
13, 145620, Note_on_c, 15, 64, 76
13, 145620, Note_on_c, 15, 68, 76
13, 145620, Note_on_c, 15, 52, 76
13, 145620, Note_on_c, 15, 71, 76
13, 145679, Note_on_c, 15, 64, 0
13, 145679, Note_on_c, 15, 68, 0
13, 145679, Note_on_c, 15, 52, 0
13, 145679, Note_on_c, 15, 71, 0
13, 145680, Note_on_c, 15, 65, 76
13, 145680, Note_on_c, 15, 69, 76
13, 145680, Note_on_c, 15, 74, 76
13, 145680, Note_on_c, 15, 53, 76
13, 145799, Note_on_c, 15, 65, 0
13, 145799, Note_on_c, 15, 69, 0
13, 145799, Note_on_c, 15, 74, 0
13, 145799, Note_on_c, 15, 53, 0
13, 145800, Note_on_c, 15, 65, 76
13, 145800, Note_on_c, 15, 50, 76
13, 145800, Note_on_c, 15, 62, 76
13, 145800, Note_on_c, 15, 69, 76
13, 145919, Note_on_c, 15, 65, 0
13, 145919, Note_on_c, 15, 50, 0
13, 145919, Note_on_c, 15, 62, 0
13, 145919, Note_on_c, 15, 69, 0
13, 145920, Note_on_c, 15, 69, 76
13, 145920, Note_on_c, 15, 47, 76
13, 145920, Note_on_c, 15, 59, 76
13, 145920, Note_on_c, 15, 62, 76
13, 145920, Note_on_c, 15, 65, 76
13, 146039, Note_on_c, 15, 69, 0
13, 146039, Note_on_c, 15, 47, 0
13, 146039, Note_on_c, 15, 59, 0
13, 146039, Note_on_c, 15, 62, 0
13, 146039, Note_on_c, 15, 65, 0
13, 146040, Note_on_c, 15, 52, 76
13, 146040, Note_on_c, 15, 71, 76
13, 146040, Note_on_c, 15, 64, 76
13, 146040, Note_on_c, 15, 68, 76
13, 146159, Note_on_c, 15, 52, 0
13, 146159, Note_on_c, 15, 71, 0
13, 146159, Note_on_c, 15, 64, 0
13, 146159, Note_on_c, 15, 68, 0
13, 146160, Note_on_c, 15, 52, 76
13, 146160, Note_on_c, 15, 71, 76
13, 146160, Note_on_c, 15, 68, 76
13, 146160, Note_on_c, 15, 40, 76
13, 146279, Note_on_c, 15, 52, 0
13, 146279, Note_on_c, 15, 71, 0
13, 146279, Note_on_c, 15, 68, 0
13, 146279, Note_on_c, 15, 40, 0
13, 146280, Note_on_c, 15, 62, 76
13, 146280, Note_on_c, 15, 50, 76
13, 146280, Note_on_c, 15, 71, 76
13, 146280, Note_on_c, 15, 68, 76
13, 146399, Note_on_c, 15, 62, 0
13, 146399, Note_on_c, 15, 50, 0
13, 146399, Note_on_c, 15, 71, 0
13, 146399, Note_on_c, 15, 68, 0
13, 146400, Note_on_c, 15, 48, 76
13, 146400, Note_on_c, 15, 64, 76
13, 146400, Note_on_c, 15, 60, 76
13, 146400, Note_on_c, 15, 69, 76
13, 146459, Note_on_c, 15, 48, 0
13, 146459, Note_on_c, 15, 64, 0
13, 146459, Note_on_c, 15, 60, 0
13, 146459, Note_on_c, 15, 69, 0
13, 146460, Note_on_c, 15, 65, 76
13, 146460, Note_on_c, 15, 47, 76
13, 146460, Note_on_c, 15, 59, 76
13, 146460, Note_on_c, 15, 62, 76
13, 146519, Note_on_c, 15, 65, 0
13, 146519, Note_on_c, 15, 47, 0
13, 146519, Note_on_c, 15, 59, 0
13, 146519, Note_on_c, 15, 62, 0
13, 146520, Note_on_c, 15, 57, 76
13, 146520, Note_on_c, 15, 64, 76
13, 146520, Note_on_c, 15, 45, 76
13, 146520, Note_on_c, 15, 60, 76
13, 146579, Note_on_c, 15, 57, 0
13, 146579, Note_on_c, 15, 64, 0
13, 146579, Note_on_c, 15, 45, 0
13, 146579, Note_on_c, 15, 60, 0
13, 146580, Note_on_c, 15, 62, 76
13, 146580, Note_on_c, 15, 47, 76
13, 146580, Note_on_c, 15, 65, 76
13, 146580, Note_on_c, 15, 59, 76
13, 146639, Note_on_c, 15, 62, 0
13, 146639, Note_on_c, 15, 47, 0
13, 146639, Note_on_c, 15, 65, 0
13, 146639, Note_on_c, 15, 59, 0
13, 146640, Note_on_c, 15, 64, 76
13, 146640, Note_on_c, 15, 48, 76
13, 146640, Note_on_c, 15, 68, 76
13, 146640, Note_on_c, 15, 60, 76
13, 146699, Note_on_c, 15, 64, 0
13, 146699, Note_on_c, 15, 48, 0
13, 146699, Note_on_c, 15, 68, 0
13, 146699, Note_on_c, 15, 60, 0
13, 146700, Note_on_c, 15, 66, 76
13, 146700, Note_on_c, 15, 62, 76
13, 146700, Note_on_c, 15, 50, 76
13, 146700, Note_on_c, 15, 69, 76
13, 146759, Note_on_c, 15, 66, 0
13, 146759, Note_on_c, 15, 62, 0
13, 146759, Note_on_c, 15, 50, 0
13, 146759, Note_on_c, 15, 69, 0
13, 146760, Note_on_c, 15, 71, 76
13, 146760, Note_on_c, 15, 52, 76
13, 146760, Note_on_c, 15, 68, 76
13, 146760, Note_on_c, 15, 64, 76
13, 146819, Note_on_c, 15, 71, 0
13, 146819, Note_on_c, 15, 52, 0
13, 146819, Note_on_c, 15, 68, 0
13, 146819, Note_on_c, 15, 64, 0
13, 146820, Note_on_c, 15, 68, 76
13, 146820, Note_on_c, 15, 60, 76
13, 146820, Note_on_c, 15, 64, 76
13, 146820, Note_on_c, 15, 48, 76
13, 146879, Note_on_c, 15, 68, 0
13, 146879, Note_on_c, 15, 60, 0
13, 146879, Note_on_c, 15, 64, 0
13, 146879, Note_on_c, 15, 48, 0
13, 146880, Note_on_c, 15, 69, 76
13, 146880, Note_on_c, 15, 65, 76
13, 146880, Note_on_c, 15, 74, 76
13, 146880, Note_on_c, 15, 53, 76
13, 146939, Note_on_c, 15, 69, 0
13, 146939, Note_on_c, 15, 65, 0
13, 146939, Note_on_c, 15, 74, 0
13, 146939, Note_on_c, 15, 53, 0
13, 146940, Note_on_c, 15, 71, 76
13, 146940, Note_on_c, 15, 74, 76
13, 146940, Note_on_c, 15, 67, 76
13, 146940, Note_on_c, 15, 55, 76
13, 146999, Note_on_c, 15, 71, 0
13, 146999, Note_on_c, 15, 74, 0
13, 146999, Note_on_c, 15, 67, 0
13, 146999, Note_on_c, 15, 55, 0
13, 147000, Note_on_c, 15, 53, 76
13, 147000, Note_on_c, 15, 69, 76
13, 147000, Note_on_c, 15, 74, 76
13, 147000, Note_on_c, 15, 65, 76
13, 147059, Note_on_c, 15, 53, 0
13, 147059, Note_on_c, 15, 69, 0
13, 147059, Note_on_c, 15, 74, 0
13, 147059, Note_on_c, 15, 65, 0
13, 147060, Note_on_c, 15, 71, 76
13, 147060, Note_on_c, 15, 64, 76
13, 147060, Note_on_c, 15, 67, 76
13, 147060, Note_on_c, 15, 52, 76
13, 147119, Note_on_c, 15, 71, 0
13, 147119, Note_on_c, 15, 64, 0
13, 147119, Note_on_c, 15, 67, 0
13, 147119, Note_on_c, 15, 52, 0
13, 147120, Note_on_c, 15, 62, 76
13, 147120, Note_on_c, 15, 69, 76
13, 147120, Note_on_c, 15, 50, 76
13, 147120, Note_on_c, 15, 65, 76
13, 147179, Note_on_c, 15, 62, 0
13, 147179, Note_on_c, 15, 69, 0
13, 147179, Note_on_c, 15, 50, 0
13, 147179, Note_on_c, 15, 65, 0
13, 147180, Note_on_c, 15, 67, 76
13, 147180, Note_on_c, 15, 48, 76
13, 147180, Note_on_c, 15, 60, 76
13, 147180, Note_on_c, 15, 64, 76
13, 147239, Note_on_c, 15, 67, 0
13, 147239, Note_on_c, 15, 48, 0
13, 147239, Note_on_c, 15, 60, 0
13, 147239, Note_on_c, 15, 64, 0
13, 147240, Note_on_c, 15, 62, 76
13, 147240, Note_on_c, 15, 69, 76
13, 147240, Note_on_c, 15, 65, 76
13, 147240, Note_on_c, 15, 50, 76
13, 147299, Note_on_c, 15, 62, 0
13, 147299, Note_on_c, 15, 69, 0
13, 147299, Note_on_c, 15, 65, 0
13, 147299, Note_on_c, 15, 50, 0
13, 147300, Note_on_c, 15, 65, 76
13, 147300, Note_on_c, 15, 59, 76
13, 147300, Note_on_c, 15, 47, 76
13, 147300, Note_on_c, 15, 62, 76
13, 147359, Note_on_c, 15, 65, 0
13, 147359, Note_on_c, 15, 59, 0
13, 147359, Note_on_c, 15, 47, 0
13, 147359, Note_on_c, 15, 62, 0
13, 147360, Note_on_c, 15, 52, 76
13, 147360, Note_on_c, 15, 64, 76
13, 147360, Note_on_c, 15, 71, 76
13, 147360, Note_on_c, 15, 68, 76
13, 147419, Note_on_c, 15, 52, 0
13, 147419, Note_on_c, 15, 64, 0
13, 147419, Note_on_c, 15, 71, 0
13, 147419, Note_on_c, 15, 68, 0
13, 147420, Note_on_c, 15, 72, 76
13, 147420, Note_on_c, 15, 53, 76
13, 147420, Note_on_c, 15, 65, 76
13, 147420, Note_on_c, 15, 69, 76
13, 147479, Note_on_c, 15, 72, 0
13, 147479, Note_on_c, 15, 53, 0
13, 147479, Note_on_c, 15, 65, 0
13, 147479, Note_on_c, 15, 69, 0
13, 147480, Note_on_c, 15, 71, 76
13, 147480, Note_on_c, 15, 68, 76
13, 147480, Note_on_c, 15, 64, 76
13, 147480, Note_on_c, 15, 52, 76
13, 147539, Note_on_c, 15, 71, 0
13, 147539, Note_on_c, 15, 68, 0
13, 147539, Note_on_c, 15, 64, 0
13, 147539, Note_on_c, 15, 52, 0
13, 147540, Note_on_c, 15, 50, 76
13, 147540, Note_on_c, 15, 62, 76
13, 147540, Note_on_c, 15, 69, 76
13, 147540, Note_on_c, 15, 65, 76
13, 147599, Note_on_c, 15, 50, 0
13, 147599, Note_on_c, 15, 62, 0
13, 147599, Note_on_c, 15, 69, 0
13, 147599, Note_on_c, 15, 65, 0
13, 147600, Note_on_c, 15, 60, 76
13, 147600, Note_on_c, 15, 48, 76
13, 147600, Note_on_c, 15, 64, 76
13, 147600, Note_on_c, 15, 69, 76
13, 147659, Note_on_c, 15, 60, 0
13, 147659, Note_on_c, 15, 48, 0
13, 147659, Note_on_c, 15, 64, 0
13, 147659, Note_on_c, 15, 69, 0
13, 147660, Note_on_c, 15, 62, 76
13, 147660, Note_on_c, 15, 69, 76
13, 147660, Note_on_c, 15, 50, 76
13, 147660, Note_on_c, 15, 65, 76
13, 147719, Note_on_c, 15, 62, 0
13, 147719, Note_on_c, 15, 69, 0
13, 147719, Note_on_c, 15, 50, 0
13, 147719, Note_on_c, 15, 65, 0
13, 147720, Note_on_c, 15, 48, 76
13, 147720, Note_on_c, 15, 70, 76
13, 147720, Note_on_c, 15, 60, 76
13, 147720, Note_on_c, 15, 64, 76
13, 147779, Note_on_c, 15, 48, 0
13, 147779, Note_on_c, 15, 70, 0
13, 147779, Note_on_c, 15, 60, 0
13, 147779, Note_on_c, 15, 64, 0
13, 147780, Note_on_c, 15, 59, 76
13, 147780, Note_on_c, 15, 47, 76
13, 147780, Note_on_c, 15, 68, 76
13, 147780, Note_on_c, 15, 62, 76
13, 147839, Note_on_c, 15, 59, 0
13, 147839, Note_on_c, 15, 47, 0
13, 147839, Note_on_c, 15, 68, 0
13, 147839, Note_on_c, 15, 62, 0
13, 147840, Note_on_c, 15, 57, 76
13, 147840, Note_on_c, 15, 60, 76
13, 147840, Note_on_c, 15, 45, 76
13, 147840, Note_on_c, 15, 64, 76
13, 147959, Note_on_c, 15, 57, 0
13, 147959, Note_on_c, 15, 60, 0
13, 147959, Note_on_c, 15, 45, 0
13, 147959, Note_on_c, 15, 64, 0
13, 147960, Note_on_c, 15, 69, 76
13, 147960, Note_on_c, 15, 65, 76
13, 147960, Note_on_c, 15, 62, 76
13, 147960, Note_on_c, 15, 50, 76
13, 148079, Note_on_c, 15, 69, 0
13, 148079, Note_on_c, 15, 65, 0
13, 148079, Note_on_c, 15, 62, 0
13, 148079, Note_on_c, 15, 50, 0
13, 148080, Note_on_c, 15, 64, 76
13, 148080, Note_on_c, 15, 52, 76
13, 148080, Note_on_c, 15, 71, 76
13, 148080, Note_on_c, 15, 68, 76
13, 148199, Note_on_c, 15, 64, 0
13, 148199, Note_on_c, 15, 52, 0
13, 148199, Note_on_c, 15, 71, 0
13, 148199, Note_on_c, 15, 68, 0
13, 148200, Note_on_c, 15, 59, 76
13, 148200, Note_on_c, 15, 40, 76
13, 148200, Note_on_c, 15, 56, 76
13, 148200, Note_on_c, 15, 52, 76
13, 148319, Note_on_c, 15, 59, 0
13, 148319, Note_on_c, 15, 40, 0
13, 148319, Note_on_c, 15, 56, 0
13, 148319, Note_on_c, 15, 52, 0
13, 148320, Note_on_c, 15, 45, 76
13, 148320, Note_on_c, 15, 60, 76
13, 148320, Note_on_c, 15, 64, 76
13, 148320, Note_on_c, 15, 57, 76
13, 148559, Note_on_c, 15, 45, 0
13, 148559, Note_on_c, 15, 60, 0
13, 148559, Note_on_c, 15, 64, 0
13, 148559, Note_on_c, 15, 57, 0
13, 149820, Note_on_c, 15, 79, 76
13, 149820, Note_on_c, 15, 72, 76
13, 149820, Note_on_c, 15, 76, 76
13, 149820, Note_on_c, 15, 60, 76
13, 149879, Note_on_c, 15, 79, 0
13, 149879, Note_on_c, 15, 72, 0
13, 149879, Note_on_c, 15, 76, 0
13, 149879, Note_on_c, 15, 60, 0
13, 149880, Note_on_c, 15, 76, 76
13, 149880, Note_on_c, 15, 59, 76
13, 149880, Note_on_c, 15, 71, 76
13, 149880, Note_on_c, 15, 79, 76
13, 149939, Note_on_c, 15, 76, 0
13, 149939, Note_on_c, 15, 59, 0
13, 149939, Note_on_c, 15, 71, 0
13, 149939, Note_on_c, 15, 79, 0
13, 149940, Note_on_c, 15, 69, 76
13, 149940, Note_on_c, 15, 76, 76
13, 149940, Note_on_c, 15, 72, 76
13, 149940, Note_on_c, 15, 57, 76
13, 149999, Note_on_c, 15, 69, 0
13, 149999, Note_on_c, 15, 76, 0
13, 149999, Note_on_c, 15, 72, 0
13, 149999, Note_on_c, 15, 57, 0
13, 150000, Note_on_c, 15, 55, 76
13, 150000, Note_on_c, 15, 76, 76
13, 150000, Note_on_c, 15, 67, 76
13, 150000, Note_on_c, 15, 72, 76
13, 150059, Note_on_c, 15, 55, 0
13, 150059, Note_on_c, 15, 76, 0
13, 150059, Note_on_c, 15, 67, 0
13, 150059, Note_on_c, 15, 72, 0
13, 150060, Note_on_c, 15, 76, 76
13, 150060, Note_on_c, 15, 66, 76
13, 150060, Note_on_c, 15, 54, 76
13, 150060, Note_on_c, 15, 72, 76
13, 150119, Note_on_c, 15, 76, 0
13, 150119, Note_on_c, 15, 66, 0
13, 150119, Note_on_c, 15, 54, 0
13, 150119, Note_on_c, 15, 72, 0
13, 150120, Note_on_c, 15, 55, 76
13, 150120, Note_on_c, 15, 67, 76
13, 150120, Note_on_c, 15, 72, 76
13, 150120, Note_on_c, 15, 76, 76
13, 150179, Note_on_c, 15, 55, 0
13, 150179, Note_on_c, 15, 67, 0
13, 150179, Note_on_c, 15, 72, 0
13, 150179, Note_on_c, 15, 76, 0
13, 150180, Note_on_c, 15, 76, 76
13, 150180, Note_on_c, 15, 52, 76
13, 150180, Note_on_c, 15, 72, 76
13, 150180, Note_on_c, 15, 64, 76
13, 150239, Note_on_c, 15, 76, 0
13, 150239, Note_on_c, 15, 52, 0
13, 150239, Note_on_c, 15, 72, 0
13, 150239, Note_on_c, 15, 64, 0
13, 150240, Note_on_c, 15, 57, 76
13, 150240, Note_on_c, 15, 76, 76
13, 150240, Note_on_c, 15, 79, 76
13, 150240, Note_on_c, 15, 73, 76
13, 150240, Note_on_c, 15, 69, 76
13, 150359, Note_on_c, 15, 57, 0
13, 150359, Note_on_c, 15, 76, 0
13, 150359, Note_on_c, 15, 79, 0
13, 150359, Note_on_c, 15, 73, 0
13, 150359, Note_on_c, 15, 69, 0
13, 150360, Note_on_c, 15, 64, 76
13, 150360, Note_on_c, 15, 61, 76
13, 150360, Note_on_c, 15, 45, 76
13, 150360, Note_on_c, 15, 57, 76
13, 150479, Note_on_c, 15, 64, 0
13, 150479, Note_on_c, 15, 61, 0
13, 150479, Note_on_c, 15, 45, 0
13, 150479, Note_on_c, 15, 57, 0
13, 151740, Note_on_c, 15, 74, 76
13, 151740, Note_on_c, 15, 58, 76
13, 151740, Note_on_c, 15, 70, 76
13, 151740, Note_on_c, 15, 77, 76
13, 151799, Note_on_c, 15, 74, 0
13, 151799, Note_on_c, 15, 58, 0
13, 151799, Note_on_c, 15, 70, 0
13, 151799, Note_on_c, 15, 77, 0
13, 151800, Note_on_c, 15, 77, 76
13, 151800, Note_on_c, 15, 69, 76
13, 151800, Note_on_c, 15, 74, 76
13, 151800, Note_on_c, 15, 57, 76
13, 151859, Note_on_c, 15, 77, 0
13, 151859, Note_on_c, 15, 69, 0
13, 151859, Note_on_c, 15, 74, 0
13, 151859, Note_on_c, 15, 57, 0
13, 151860, Note_on_c, 15, 71, 76
13, 151860, Note_on_c, 15, 74, 76
13, 151860, Note_on_c, 15, 67, 76
13, 151860, Note_on_c, 15, 55, 76
13, 151919, Note_on_c, 15, 71, 0
13, 151919, Note_on_c, 15, 74, 0
13, 151919, Note_on_c, 15, 67, 0
13, 151919, Note_on_c, 15, 55, 0
13, 151920, Note_on_c, 15, 65, 76
13, 151920, Note_on_c, 15, 71, 76
13, 151920, Note_on_c, 15, 74, 76
13, 151920, Note_on_c, 15, 53, 76
13, 151979, Note_on_c, 15, 65, 0
13, 151979, Note_on_c, 15, 71, 0
13, 151979, Note_on_c, 15, 74, 0
13, 151979, Note_on_c, 15, 53, 0
13, 151980, Note_on_c, 15, 52, 76
13, 151980, Note_on_c, 15, 64, 76
13, 151980, Note_on_c, 15, 71, 76
13, 151980, Note_on_c, 15, 74, 76
13, 152039, Note_on_c, 15, 52, 0
13, 152039, Note_on_c, 15, 64, 0
13, 152039, Note_on_c, 15, 71, 0
13, 152039, Note_on_c, 15, 74, 0
13, 152040, Note_on_c, 15, 53, 76
13, 152040, Note_on_c, 15, 74, 76
13, 152040, Note_on_c, 15, 71, 76
13, 152040, Note_on_c, 15, 65, 76
13, 152099, Note_on_c, 15, 53, 0
13, 152099, Note_on_c, 15, 74, 0
13, 152099, Note_on_c, 15, 71, 0
13, 152099, Note_on_c, 15, 65, 0
13, 152100, Note_on_c, 15, 74, 76
13, 152100, Note_on_c, 15, 62, 76
13, 152100, Note_on_c, 15, 50, 76
13, 152100, Note_on_c, 15, 71, 76
13, 152159, Note_on_c, 15, 74, 0
13, 152159, Note_on_c, 15, 62, 0
13, 152159, Note_on_c, 15, 50, 0
13, 152159, Note_on_c, 15, 71, 0
13, 152160, Note_on_c, 15, 71, 76
13, 152160, Note_on_c, 15, 67, 76
13, 152160, Note_on_c, 15, 74, 76
13, 152160, Note_on_c, 15, 77, 76
13, 152160, Note_on_c, 15, 55, 76
13, 152279, Note_on_c, 15, 71, 0
13, 152279, Note_on_c, 15, 67, 0
13, 152279, Note_on_c, 15, 74, 0
13, 152279, Note_on_c, 15, 77, 0
13, 152279, Note_on_c, 15, 55, 0
13, 152280, Note_on_c, 15, 62, 76
13, 152280, Note_on_c, 15, 55, 76
13, 152280, Note_on_c, 15, 43, 76
13, 152280, Note_on_c, 15, 59, 76
13, 152399, Note_on_c, 15, 62, 0
13, 152399, Note_on_c, 15, 55, 0
13, 152399, Note_on_c, 15, 43, 0
13, 152399, Note_on_c, 15, 59, 0
13, 154140, Note_on_c, 15, 53, 76
13, 154140, Note_on_c, 15, 65, 76
13, 154140, Note_on_c, 15, 69, 76
13, 154140, Note_on_c, 15, 72, 76
13, 154199, Note_on_c, 15, 53, 0
13, 154199, Note_on_c, 15, 65, 0
13, 154199, Note_on_c, 15, 69, 0
13, 154199, Note_on_c, 15, 72, 0
13, 154200, Note_on_c, 15, 67, 76
13, 154200, Note_on_c, 15, 52, 76
13, 154200, Note_on_c, 15, 64, 76
13, 154259, Note_on_c, 15, 67, 0
13, 154259, Note_on_c, 15, 52, 0
13, 154259, Note_on_c, 15, 64, 0
13, 154260, Note_on_c, 15, 69, 76
13, 154260, Note_on_c, 15, 62, 76
13, 154260, Note_on_c, 15, 65, 76
13, 154260, Note_on_c, 15, 50, 76
13, 154319, Note_on_c, 15, 69, 0
13, 154319, Note_on_c, 15, 62, 0
13, 154319, Note_on_c, 15, 65, 0
13, 154319, Note_on_c, 15, 50, 0
13, 154320, Note_on_c, 15, 67, 76
13, 154320, Note_on_c, 15, 64, 76
13, 154320, Note_on_c, 15, 60, 76
13, 154320, Note_on_c, 15, 48, 76
13, 154379, Note_on_c, 15, 67, 0
13, 154379, Note_on_c, 15, 64, 0
13, 154379, Note_on_c, 15, 60, 0
13, 154379, Note_on_c, 15, 48, 0
13, 154380, Note_on_c, 15, 47, 76
13, 154380, Note_on_c, 15, 65, 76
13, 154380, Note_on_c, 15, 62, 76
13, 154380, Note_on_c, 15, 59, 76
13, 154439, Note_on_c, 15, 47, 0
13, 154439, Note_on_c, 15, 65, 0
13, 154439, Note_on_c, 15, 62, 0
13, 154439, Note_on_c, 15, 59, 0
13, 154440, Note_on_c, 15, 60, 76
13, 154440, Note_on_c, 15, 64, 76
13, 154440, Note_on_c, 15, 48, 76
13, 154440, Note_on_c, 15, 67, 76
13, 154499, Note_on_c, 15, 60, 0
13, 154499, Note_on_c, 15, 64, 0
13, 154499, Note_on_c, 15, 48, 0
13, 154499, Note_on_c, 15, 67, 0
13, 154500, Note_on_c, 15, 60, 76
13, 154500, Note_on_c, 15, 64, 76
13, 154500, Note_on_c, 15, 57, 76
13, 154500, Note_on_c, 15, 45, 76
13, 154559, Note_on_c, 15, 60, 0
13, 154559, Note_on_c, 15, 64, 0
13, 154559, Note_on_c, 15, 57, 0
13, 154559, Note_on_c, 15, 45, 0
13, 154560, Note_on_c, 15, 67, 76
13, 154560, Note_on_c, 15, 50, 76
13, 154560, Note_on_c, 15, 62, 76
13, 154560, Note_on_c, 15, 69, 76
13, 154679, Note_on_c, 15, 67, 0
13, 154679, Note_on_c, 15, 50, 0
13, 154679, Note_on_c, 15, 62, 0
13, 154679, Note_on_c, 15, 69, 0
13, 154680, Note_on_c, 15, 38, 76
13, 154680, Note_on_c, 15, 57, 76
13, 154680, Note_on_c, 15, 50, 76
13, 154680, Note_on_c, 15, 54, 76
13, 154799, Note_on_c, 15, 38, 0
13, 154799, Note_on_c, 15, 57, 0
13, 154799, Note_on_c, 15, 50, 0
13, 154799, Note_on_c, 15, 54, 0
13, 155160, Note_on_c, 15, 67, 76
13, 155160, Note_on_c, 15, 74, 76
13, 155160, Note_on_c, 15, 71, 76
13, 155160, Note_on_c, 15, 55, 76
13, 155279, Note_on_c, 15, 67, 0
13, 155279, Note_on_c, 15, 74, 0
13, 155279, Note_on_c, 15, 71, 0
13, 155279, Note_on_c, 15, 55, 0
13, 155280, Note_on_c, 15, 67, 76
13, 155280, Note_on_c, 15, 71, 76
13, 155280, Note_on_c, 15, 55, 76
13, 155280, Note_on_c, 15, 76, 76
13, 155399, Note_on_c, 15, 67, 0
13, 155399, Note_on_c, 15, 71, 0
13, 155399, Note_on_c, 15, 55, 0
13, 155399, Note_on_c, 15, 76, 0
13, 155400, Note_on_c, 15, 55, 76
13, 155400, Note_on_c, 15, 67, 76
13, 155400, Note_on_c, 15, 74, 76
13, 155400, Note_on_c, 15, 71, 76
13, 155519, Note_on_c, 15, 55, 0
13, 155519, Note_on_c, 15, 67, 0
13, 155519, Note_on_c, 15, 74, 0
13, 155519, Note_on_c, 15, 71, 0
13, 155520, Note_on_c, 15, 69, 76
13, 155520, Note_on_c, 15, 72, 76
13, 155520, Note_on_c, 15, 54, 76
13, 155520, Note_on_c, 15, 66, 76
13, 155520, Note_on_c, 15, 76, 76
13, 155639, Note_on_c, 15, 69, 0
13, 155639, Note_on_c, 15, 72, 0
13, 155639, Note_on_c, 15, 54, 0
13, 155639, Note_on_c, 15, 66, 0
13, 155639, Note_on_c, 15, 76, 0
13, 155640, Note_on_c, 15, 71, 76
13, 155640, Note_on_c, 15, 67, 76
13, 155640, Note_on_c, 15, 55, 76
13, 155640, Note_on_c, 15, 74, 76
13, 155699, Note_on_c, 15, 71, 0
13, 155699, Note_on_c, 15, 67, 0
13, 155699, Note_on_c, 15, 55, 0
13, 155699, Note_on_c, 15, 74, 0
13, 155700, Note_on_c, 15, 76, 76
13, 155700, Note_on_c, 15, 57, 76
13, 155700, Note_on_c, 15, 72, 76
13, 155700, Note_on_c, 15, 69, 76
13, 155759, Note_on_c, 15, 76, 0
13, 155759, Note_on_c, 15, 57, 0
13, 155759, Note_on_c, 15, 72, 0
13, 155759, Note_on_c, 15, 69, 0
13, 155760, Note_on_c, 15, 74, 76
13, 155760, Note_on_c, 15, 71, 76
13, 155760, Note_on_c, 15, 59, 76
13, 155760, Note_on_c, 15, 81, 76
13, 155760, Note_on_c, 15, 78, 76
13, 155879, Note_on_c, 15, 74, 0
13, 155879, Note_on_c, 15, 71, 0
13, 155879, Note_on_c, 15, 59, 0
13, 155879, Note_on_c, 15, 81, 0
13, 155879, Note_on_c, 15, 78, 0
13, 155880, Note_on_c, 15, 67, 76
13, 155880, Note_on_c, 15, 71, 76
13, 155880, Note_on_c, 15, 55, 76
13, 155880, Note_on_c, 15, 74, 76
13, 155999, Note_on_c, 15, 67, 0
13, 155999, Note_on_c, 15, 71, 0
13, 155999, Note_on_c, 15, 55, 0
13, 155999, Note_on_c, 15, 74, 0
13, 156000, Note_on_c, 15, 64, 76
13, 156000, Note_on_c, 15, 74, 76
13, 156000, Note_on_c, 15, 71, 76
13, 156000, Note_on_c, 15, 52, 76
13, 156000, Note_on_c, 15, 67, 76
13, 156119, Note_on_c, 15, 64, 0
13, 156119, Note_on_c, 15, 74, 0
13, 156119, Note_on_c, 15, 71, 0
13, 156119, Note_on_c, 15, 52, 0
13, 156119, Note_on_c, 15, 67, 0
13, 156120, Note_on_c, 15, 57, 76
13, 156120, Note_on_c, 15, 69, 76
13, 156120, Note_on_c, 15, 72, 76
13, 156120, Note_on_c, 15, 76, 76
13, 156239, Note_on_c, 15, 57, 0
13, 156239, Note_on_c, 15, 69, 0
13, 156239, Note_on_c, 15, 72, 0
13, 156239, Note_on_c, 15, 76, 0
13, 156240, Note_on_c, 15, 57, 76
13, 156240, Note_on_c, 15, 60, 76
13, 156240, Note_on_c, 15, 45, 76
13, 156359, Note_on_c, 15, 57, 0
13, 156359, Note_on_c, 15, 60, 0
13, 156359, Note_on_c, 15, 45, 0
13, 156360, Note_on_c, 15, 60, 76
13, 156360, Note_on_c, 15, 55, 76
13, 156479, Note_on_c, 15, 60, 0
13, 156479, Note_on_c, 15, 55, 0
13, 156480, Note_on_c, 15, 72, 76
13, 156480, Note_on_c, 15, 66, 76
13, 156480, Note_on_c, 15, 69, 76
13, 156480, Note_on_c, 15, 54, 76
13, 156480, Note_on_c, 15, 74, 76
13, 156599, Note_on_c, 15, 72, 0
13, 156599, Note_on_c, 15, 66, 0
13, 156599, Note_on_c, 15, 69, 0
13, 156599, Note_on_c, 15, 54, 0
13, 156599, Note_on_c, 15, 74, 0
13, 156600, Note_on_c, 15, 55, 76
13, 156600, Note_on_c, 15, 67, 76
13, 156600, Note_on_c, 15, 74, 76
13, 156600, Note_on_c, 15, 71, 76
13, 156659, Note_on_c, 15, 55, 0
13, 156659, Note_on_c, 15, 67, 0
13, 156659, Note_on_c, 15, 74, 0
13, 156659, Note_on_c, 15, 71, 0
13, 156660, Note_on_c, 15, 76, 76
13, 156660, Note_on_c, 15, 72, 76
13, 156660, Note_on_c, 15, 69, 76
13, 156660, Note_on_c, 15, 57, 76
13, 156719, Note_on_c, 15, 76, 0
13, 156719, Note_on_c, 15, 72, 0
13, 156719, Note_on_c, 15, 69, 0
13, 156719, Note_on_c, 15, 57, 0
13, 156720, Note_on_c, 15, 71, 76
13, 156720, Note_on_c, 15, 74, 76
13, 156720, Note_on_c, 15, 59, 76
13, 156720, Note_on_c, 15, 79, 76
13, 156779, Note_on_c, 15, 71, 0
13, 156779, Note_on_c, 15, 74, 0
13, 156779, Note_on_c, 15, 59, 0
13, 156779, Note_on_c, 15, 79, 0
13, 156780, Note_on_c, 15, 79, 76
13, 156780, Note_on_c, 15, 76, 76
13, 156780, Note_on_c, 15, 72, 76
13, 156780, Note_on_c, 15, 60, 76
13, 156839, Note_on_c, 15, 79, 0
13, 156839, Note_on_c, 15, 76, 0
13, 156839, Note_on_c, 15, 72, 0
13, 156839, Note_on_c, 15, 60, 0
13, 156840, Note_on_c, 15, 62, 76
13, 156840, Note_on_c, 15, 81, 76
13, 156840, Note_on_c, 15, 74, 76
13, 156840, Note_on_c, 15, 78, 76
13, 156899, Note_on_c, 15, 62, 0
13, 156899, Note_on_c, 15, 81, 0
13, 156899, Note_on_c, 15, 74, 0
13, 156899, Note_on_c, 15, 78, 0
13, 156900, Note_on_c, 15, 79, 76
13, 156900, Note_on_c, 15, 76, 76
13, 156900, Note_on_c, 15, 64, 76
13, 156900, Note_on_c, 15, 83, 76
13, 156959, Note_on_c, 15, 79, 0
13, 156959, Note_on_c, 15, 76, 0
13, 156959, Note_on_c, 15, 64, 0
13, 156959, Note_on_c, 15, 83, 0
13, 156960, Note_on_c, 15, 76, 76
13, 156960, Note_on_c, 15, 57, 76
13, 156960, Note_on_c, 15, 69, 76
13, 156960, Note_on_c, 15, 79, 76
13, 156960, Note_on_c, 15, 72, 76
13, 157019, Note_on_c, 15, 76, 0
13, 157019, Note_on_c, 15, 57, 0
13, 157019, Note_on_c, 15, 69, 0
13, 157019, Note_on_c, 15, 79, 0
13, 157019, Note_on_c, 15, 72, 0
13, 157020, Note_on_c, 15, 79, 76
13, 157020, Note_on_c, 15, 60, 76
13, 157020, Note_on_c, 15, 72, 76
13, 157020, Note_on_c, 15, 76, 76
13, 157079, Note_on_c, 15, 79, 0
13, 157079, Note_on_c, 15, 60, 0
13, 157079, Note_on_c, 15, 72, 0
13, 157079, Note_on_c, 15, 76, 0
13, 157080, Note_on_c, 15, 78, 76
13, 157080, Note_on_c, 15, 71, 76
13, 157080, Note_on_c, 15, 59, 76
13, 157080, Note_on_c, 15, 74, 76
13, 157139, Note_on_c, 15, 78, 0
13, 157139, Note_on_c, 15, 71, 0
13, 157139, Note_on_c, 15, 59, 0
13, 157139, Note_on_c, 15, 74, 0
13, 157140, Note_on_c, 15, 76, 76
13, 157140, Note_on_c, 15, 60, 76
13, 157140, Note_on_c, 15, 79, 76
13, 157140, Note_on_c, 15, 72, 76
13, 157199, Note_on_c, 15, 76, 0
13, 157199, Note_on_c, 15, 60, 0
13, 157199, Note_on_c, 15, 79, 0
13, 157199, Note_on_c, 15, 72, 0
13, 157200, Note_on_c, 15, 84, 76
13, 157200, Note_on_c, 15, 62, 76
13, 157200, Note_on_c, 15, 78, 76
13, 157200, Note_on_c, 15, 81, 76
13, 157200, Note_on_c, 15, 74, 76
13, 157259, Note_on_c, 15, 84, 0
13, 157259, Note_on_c, 15, 62, 0
13, 157259, Note_on_c, 15, 78, 0
13, 157259, Note_on_c, 15, 81, 0
13, 157259, Note_on_c, 15, 74, 0
13, 157260, Note_on_c, 15, 76, 76
13, 157260, Note_on_c, 15, 72, 76
13, 157260, Note_on_c, 15, 60, 76
13, 157260, Note_on_c, 15, 79, 76
13, 157319, Note_on_c, 15, 76, 0
13, 157319, Note_on_c, 15, 72, 0
13, 157319, Note_on_c, 15, 60, 0
13, 157319, Note_on_c, 15, 79, 0
13, 157320, Note_on_c, 15, 59, 76
13, 157320, Note_on_c, 15, 74, 76
13, 157320, Note_on_c, 15, 78, 76
13, 157320, Note_on_c, 15, 71, 76
13, 157379, Note_on_c, 15, 59, 0
13, 157379, Note_on_c, 15, 74, 0
13, 157379, Note_on_c, 15, 78, 0
13, 157379, Note_on_c, 15, 71, 0
13, 157380, Note_on_c, 15, 69, 76
13, 157380, Note_on_c, 15, 57, 76
13, 157380, Note_on_c, 15, 76, 76
13, 157380, Note_on_c, 15, 72, 76
13, 157439, Note_on_c, 15, 69, 0
13, 157439, Note_on_c, 15, 57, 0
13, 157439, Note_on_c, 15, 76, 0
13, 157439, Note_on_c, 15, 72, 0
13, 157440, Note_on_c, 15, 67, 76
13, 157440, Note_on_c, 15, 78, 76
13, 157440, Note_on_c, 15, 55, 76
13, 157440, Note_on_c, 15, 74, 76
13, 157440, Note_on_c, 15, 71, 76
13, 157499, Note_on_c, 15, 67, 0
13, 157499, Note_on_c, 15, 78, 0
13, 157499, Note_on_c, 15, 55, 0
13, 157499, Note_on_c, 15, 74, 0
13, 157499, Note_on_c, 15, 71, 0
13, 157500, Note_on_c, 15, 71, 76
13, 157500, Note_on_c, 15, 78, 76
13, 157500, Note_on_c, 15, 74, 76
13, 157500, Note_on_c, 15, 59, 76
13, 157559, Note_on_c, 15, 71, 0
13, 157559, Note_on_c, 15, 78, 0
13, 157559, Note_on_c, 15, 74, 0
13, 157559, Note_on_c, 15, 59, 0
13, 157560, Note_on_c, 15, 69, 76
13, 157560, Note_on_c, 15, 57, 76
13, 157560, Note_on_c, 15, 72, 76
13, 157560, Note_on_c, 15, 76, 76
13, 157619, Note_on_c, 15, 69, 0
13, 157619, Note_on_c, 15, 57, 0
13, 157619, Note_on_c, 15, 72, 0
13, 157619, Note_on_c, 15, 76, 0
13, 157620, Note_on_c, 15, 74, 76
13, 157620, Note_on_c, 15, 59, 76
13, 157620, Note_on_c, 15, 71, 76
13, 157620, Note_on_c, 15, 78, 76
13, 157679, Note_on_c, 15, 74, 0
13, 157679, Note_on_c, 15, 59, 0
13, 157679, Note_on_c, 15, 71, 0
13, 157679, Note_on_c, 15, 78, 0
13, 157680, Note_on_c, 15, 76, 76
13, 157680, Note_on_c, 15, 79, 76
13, 157680, Note_on_c, 15, 83, 76
13, 157680, Note_on_c, 15, 72, 76
13, 157680, Note_on_c, 15, 60, 76
13, 157739, Note_on_c, 15, 76, 0
13, 157739, Note_on_c, 15, 79, 0
13, 157739, Note_on_c, 15, 83, 0
13, 157739, Note_on_c, 15, 72, 0
13, 157739, Note_on_c, 15, 60, 0
13, 157740, Note_on_c, 15, 74, 76
13, 157740, Note_on_c, 15, 78, 76
13, 157740, Note_on_c, 15, 59, 76
13, 157740, Note_on_c, 15, 71, 76
13, 157799, Note_on_c, 15, 74, 0
13, 157799, Note_on_c, 15, 78, 0
13, 157799, Note_on_c, 15, 59, 0
13, 157799, Note_on_c, 15, 71, 0
13, 157800, Note_on_c, 15, 72, 76
13, 157800, Note_on_c, 15, 69, 76
13, 157800, Note_on_c, 15, 57, 76
13, 157800, Note_on_c, 15, 76, 76
13, 157859, Note_on_c, 15, 72, 0
13, 157859, Note_on_c, 15, 69, 0
13, 157859, Note_on_c, 15, 57, 0
13, 157859, Note_on_c, 15, 76, 0
13, 157860, Note_on_c, 15, 74, 76
13, 157860, Note_on_c, 15, 71, 76
13, 157860, Note_on_c, 15, 67, 76
13, 157860, Note_on_c, 15, 55, 76
13, 157919, Note_on_c, 15, 74, 0
13, 157919, Note_on_c, 15, 71, 0
13, 157919, Note_on_c, 15, 67, 0
13, 157919, Note_on_c, 15, 55, 0
13, 157920, Note_on_c, 15, 66, 76
13, 157920, Note_on_c, 15, 72, 76
13, 157920, Note_on_c, 15, 54, 76
13, 157920, Note_on_c, 15, 76, 76
13, 157920, Note_on_c, 15, 69, 76
13, 157979, Note_on_c, 15, 66, 0
13, 157979, Note_on_c, 15, 72, 0
13, 157979, Note_on_c, 15, 54, 0
13, 157979, Note_on_c, 15, 76, 0
13, 157979, Note_on_c, 15, 69, 0
13, 157980, Note_on_c, 15, 57, 76
13, 157980, Note_on_c, 15, 69, 76
13, 157980, Note_on_c, 15, 76, 76
13, 157980, Note_on_c, 15, 72, 76
13, 158039, Note_on_c, 15, 57, 0
13, 158039, Note_on_c, 15, 69, 0
13, 158039, Note_on_c, 15, 76, 0
13, 158039, Note_on_c, 15, 72, 0
13, 158040, Note_on_c, 15, 71, 76
13, 158040, Note_on_c, 15, 55, 76
13, 158040, Note_on_c, 15, 74, 76
13, 158040, Note_on_c, 15, 67, 76
13, 158099, Note_on_c, 15, 71, 0
13, 158099, Note_on_c, 15, 55, 0
13, 158099, Note_on_c, 15, 74, 0
13, 158099, Note_on_c, 15, 67, 0
13, 158100, Note_on_c, 15, 72, 76
13, 158100, Note_on_c, 15, 57, 76
13, 158100, Note_on_c, 15, 76, 76
13, 158100, Note_on_c, 15, 69, 76
13, 158159, Note_on_c, 15, 72, 0
13, 158159, Note_on_c, 15, 57, 0
13, 158159, Note_on_c, 15, 76, 0
13, 158159, Note_on_c, 15, 69, 0
13, 158160, Note_on_c, 15, 59, 76
13, 158160, Note_on_c, 15, 81, 76
13, 158160, Note_on_c, 15, 78, 76
13, 158160, Note_on_c, 15, 71, 76
13, 158160, Note_on_c, 15, 74, 76
13, 158219, Note_on_c, 15, 59, 0
13, 158219, Note_on_c, 15, 81, 0
13, 158219, Note_on_c, 15, 78, 0
13, 158219, Note_on_c, 15, 71, 0
13, 158219, Note_on_c, 15, 74, 0
13, 158220, Note_on_c, 15, 57, 76
13, 158220, Note_on_c, 15, 72, 76
13, 158220, Note_on_c, 15, 69, 76
13, 158220, Note_on_c, 15, 76, 76
13, 158279, Note_on_c, 15, 57, 0
13, 158279, Note_on_c, 15, 72, 0
13, 158279, Note_on_c, 15, 69, 0
13, 158279, Note_on_c, 15, 76, 0
13, 158280, Note_on_c, 15, 71, 76
13, 158280, Note_on_c, 15, 74, 76
13, 158280, Note_on_c, 15, 55, 76
13, 158280, Note_on_c, 15, 67, 76
13, 158339, Note_on_c, 15, 71, 0
13, 158339, Note_on_c, 15, 74, 0
13, 158339, Note_on_c, 15, 55, 0
13, 158339, Note_on_c, 15, 67, 0
13, 158340, Note_on_c, 15, 54, 76
13, 158340, Note_on_c, 15, 69, 76
13, 158340, Note_on_c, 15, 72, 76
13, 158340, Note_on_c, 15, 66, 76
13, 158399, Note_on_c, 15, 54, 0
13, 158399, Note_on_c, 15, 69, 0
13, 158399, Note_on_c, 15, 72, 0
13, 158399, Note_on_c, 15, 66, 0
13, 158400, Note_on_c, 15, 74, 76
13, 158400, Note_on_c, 15, 64, 76
13, 158400, Note_on_c, 15, 71, 76
13, 158400, Note_on_c, 15, 67, 76
13, 158400, Note_on_c, 15, 52, 76
13, 158459, Note_on_c, 15, 74, 0
13, 158459, Note_on_c, 15, 64, 0
13, 158459, Note_on_c, 15, 71, 0
13, 158459, Note_on_c, 15, 67, 0
13, 158459, Note_on_c, 15, 52, 0
13, 158460, Note_on_c, 15, 71, 76
13, 158460, Note_on_c, 15, 55, 76
13, 158460, Note_on_c, 15, 67, 76
13, 158460, Note_on_c, 15, 74, 76
13, 158519, Note_on_c, 15, 71, 0
13, 158519, Note_on_c, 15, 55, 0
13, 158519, Note_on_c, 15, 67, 0
13, 158519, Note_on_c, 15, 74, 0
13, 158520, Note_on_c, 15, 69, 76
13, 158520, Note_on_c, 15, 54, 76
13, 158520, Note_on_c, 15, 72, 76
13, 158520, Note_on_c, 15, 66, 76
13, 158579, Note_on_c, 15, 69, 0
13, 158579, Note_on_c, 15, 54, 0
13, 158579, Note_on_c, 15, 72, 0
13, 158579, Note_on_c, 15, 66, 0
13, 158580, Note_on_c, 15, 74, 76
13, 158580, Note_on_c, 15, 67, 76
13, 158580, Note_on_c, 15, 55, 76
13, 158580, Note_on_c, 15, 71, 76
13, 158639, Note_on_c, 15, 74, 0
13, 158639, Note_on_c, 15, 67, 0
13, 158639, Note_on_c, 15, 55, 0
13, 158639, Note_on_c, 15, 71, 0
13, 158640, Note_on_c, 15, 72, 76
13, 158640, Note_on_c, 15, 79, 76
13, 158640, Note_on_c, 15, 57, 76
13, 158640, Note_on_c, 15, 76, 76
13, 158640, Note_on_c, 15, 69, 76
13, 158699, Note_on_c, 15, 72, 0
13, 158699, Note_on_c, 15, 79, 0
13, 158699, Note_on_c, 15, 57, 0
13, 158699, Note_on_c, 15, 76, 0
13, 158699, Note_on_c, 15, 69, 0
13, 158700, Note_on_c, 15, 71, 76
13, 158700, Note_on_c, 15, 67, 76
13, 158700, Note_on_c, 15, 55, 76
13, 158700, Note_on_c, 15, 74, 76
13, 158759, Note_on_c, 15, 71, 0
13, 158759, Note_on_c, 15, 67, 0
13, 158759, Note_on_c, 15, 55, 0
13, 158759, Note_on_c, 15, 74, 0
13, 158760, Note_on_c, 15, 54, 76
13, 158760, Note_on_c, 15, 72, 76
13, 158760, Note_on_c, 15, 69, 76
13, 158760, Note_on_c, 15, 66, 76
13, 158819, Note_on_c, 15, 54, 0
13, 158819, Note_on_c, 15, 72, 0
13, 158819, Note_on_c, 15, 69, 0
13, 158819, Note_on_c, 15, 66, 0
13, 158820, Note_on_c, 15, 71, 76
13, 158820, Note_on_c, 15, 67, 76
13, 158820, Note_on_c, 15, 52, 76
13, 158820, Note_on_c, 15, 64, 76
13, 158879, Note_on_c, 15, 71, 0
13, 158879, Note_on_c, 15, 67, 0
13, 158879, Note_on_c, 15, 52, 0
13, 158879, Note_on_c, 15, 64, 0
13, 158880, Note_on_c, 15, 69, 76
13, 158880, Note_on_c, 15, 62, 76
13, 158880, Note_on_c, 15, 72, 76
13, 158880, Note_on_c, 15, 66, 76
13, 158880, Note_on_c, 15, 50, 76
13, 158999, Note_on_c, 15, 69, 0
13, 158999, Note_on_c, 15, 62, 0
13, 158999, Note_on_c, 15, 72, 0
13, 158999, Note_on_c, 15, 66, 0
13, 158999, Note_on_c, 15, 50, 0
13, 159000, Note_on_c, 15, 81, 76
13, 159000, Note_on_c, 15, 78, 76
13, 159000, Note_on_c, 15, 74, 76
13, 159000, Note_on_c, 15, 62, 76
13, 159119, Note_on_c, 15, 81, 0
13, 159119, Note_on_c, 15, 78, 0
13, 159119, Note_on_c, 15, 74, 0
13, 159119, Note_on_c, 15, 62, 0
13, 159120, Note_on_c, 15, 81, 76
13, 159120, Note_on_c, 15, 78, 76
13, 159120, Note_on_c, 15, 62, 76
13, 159120, Note_on_c, 15, 74, 76
13, 159239, Note_on_c, 15, 81, 0
13, 159239, Note_on_c, 15, 78, 0
13, 159239, Note_on_c, 15, 62, 0
13, 159239, Note_on_c, 15, 74, 0
13, 159240, Note_on_c, 15, 62, 76
13, 159240, Note_on_c, 15, 74, 76
13, 159240, Note_on_c, 15, 78, 76
13, 159240, Note_on_c, 15, 81, 76
13, 159359, Note_on_c, 15, 62, 0
13, 159359, Note_on_c, 15, 74, 0
13, 159359, Note_on_c, 15, 78, 0
13, 159359, Note_on_c, 15, 81, 0
13, 159360, Note_on_c, 15, 71, 76
13, 159360, Note_on_c, 15, 79, 76
13, 159360, Note_on_c, 15, 59, 76
13, 159360, Note_on_c, 15, 74, 76
13, 159479, Note_on_c, 15, 71, 0
13, 159479, Note_on_c, 15, 79, 0
13, 159479, Note_on_c, 15, 59, 0
13, 159479, Note_on_c, 15, 74, 0
13, 159480, Note_on_c, 15, 60, 76
13, 159480, Note_on_c, 15, 79, 76
13, 159480, Note_on_c, 15, 72, 76
13, 159480, Note_on_c, 15, 76, 76
13, 159539, Note_on_c, 15, 60, 0
13, 159539, Note_on_c, 15, 79, 0
13, 159539, Note_on_c, 15, 72, 0
13, 159539, Note_on_c, 15, 76, 0
13, 159540, Note_on_c, 15, 81, 76
13, 159540, Note_on_c, 15, 74, 76
13, 159540, Note_on_c, 15, 78, 76
13, 159540, Note_on_c, 15, 62, 76
13, 159599, Note_on_c, 15, 81, 0
13, 159599, Note_on_c, 15, 74, 0
13, 159599, Note_on_c, 15, 78, 0
13, 159599, Note_on_c, 15, 62, 0
13, 159600, Note_on_c, 15, 64, 76
13, 159600, Note_on_c, 15, 83, 76
13, 159600, Note_on_c, 15, 79, 76
13, 159600, Note_on_c, 15, 76, 76
13, 159719, Note_on_c, 15, 64, 0
13, 159719, Note_on_c, 15, 83, 0
13, 159719, Note_on_c, 15, 79, 0
13, 159719, Note_on_c, 15, 76, 0
13, 159720, Note_on_c, 15, 72, 76
13, 159720, Note_on_c, 15, 76, 76
13, 159720, Note_on_c, 15, 60, 76
13, 159720, Note_on_c, 15, 79, 76
13, 159839, Note_on_c, 15, 72, 0
13, 159839, Note_on_c, 15, 76, 0
13, 159839, Note_on_c, 15, 60, 0
13, 159839, Note_on_c, 15, 79, 0
13, 159840, Note_on_c, 15, 57, 76
13, 159840, Note_on_c, 15, 78, 76
13, 159840, Note_on_c, 15, 72, 76
13, 159840, Note_on_c, 15, 69, 76
13, 159959, Note_on_c, 15, 57, 0
13, 159959, Note_on_c, 15, 78, 0
13, 159959, Note_on_c, 15, 72, 0
13, 159959, Note_on_c, 15, 69, 0
13, 159960, Note_on_c, 15, 62, 76
13, 159960, Note_on_c, 15, 81, 76
13, 159960, Note_on_c, 15, 74, 76
13, 159960, Note_on_c, 15, 78, 76
13, 160079, Note_on_c, 15, 62, 0
13, 160079, Note_on_c, 15, 81, 0
13, 160079, Note_on_c, 15, 74, 0
13, 160079, Note_on_c, 15, 78, 0
13, 160080, Note_on_c, 15, 62, 76
13, 160080, Note_on_c, 15, 66, 76
13, 160080, Note_on_c, 15, 50, 76
13, 160080, Note_on_c, 15, 69, 76
13, 160199, Note_on_c, 15, 62, 0
13, 160199, Note_on_c, 15, 66, 0
13, 160199, Note_on_c, 15, 50, 0
13, 160199, Note_on_c, 15, 69, 0
13, 160200, Note_on_c, 15, 79, 76
13, 160200, Note_on_c, 15, 72, 76
13, 160200, Note_on_c, 15, 60, 76
13, 160200, Note_on_c, 15, 76, 76
13, 160319, Note_on_c, 15, 79, 0
13, 160319, Note_on_c, 15, 72, 0
13, 160319, Note_on_c, 15, 60, 0
13, 160319, Note_on_c, 15, 76, 0
13, 160320, Note_on_c, 15, 71, 76
13, 160320, Note_on_c, 15, 79, 76
13, 160320, Note_on_c, 15, 59, 76
13, 160320, Note_on_c, 15, 74, 76
13, 160439, Note_on_c, 15, 71, 0
13, 160439, Note_on_c, 15, 79, 0
13, 160439, Note_on_c, 15, 59, 0
13, 160439, Note_on_c, 15, 74, 0
13, 160440, Note_on_c, 15, 71, 76
13, 160440, Note_on_c, 15, 67, 76
13, 160440, Note_on_c, 15, 55, 76
13, 160440, Note_on_c, 15, 74, 76
13, 160559, Note_on_c, 15, 71, 0
13, 160559, Note_on_c, 15, 67, 0
13, 160559, Note_on_c, 15, 55, 0
13, 160559, Note_on_c, 15, 74, 0
13, 160560, Note_on_c, 15, 74, 76
13, 160560, Note_on_c, 15, 62, 76
13, 160560, Note_on_c, 15, 81, 76
13, 160560, Note_on_c, 15, 78, 76
13, 160679, Note_on_c, 15, 74, 0
13, 160679, Note_on_c, 15, 62, 0
13, 160679, Note_on_c, 15, 81, 0
13, 160679, Note_on_c, 15, 78, 0
13, 160680, Note_on_c, 15, 50, 76
13, 160680, Note_on_c, 15, 66, 76
13, 160680, Note_on_c, 15, 62, 76
13, 160680, Note_on_c, 15, 69, 76
13, 160799, Note_on_c, 15, 50, 0
13, 160799, Note_on_c, 15, 66, 0
13, 160799, Note_on_c, 15, 62, 0
13, 160799, Note_on_c, 15, 69, 0
13, 160800, Note_on_c, 15, 62, 76
13, 160800, Note_on_c, 15, 55, 76
13, 160800, Note_on_c, 15, 59, 76
13, 160800, Note_on_c, 15, 43, 76
13, 160919, Note_on_c, 15, 62, 0
13, 160919, Note_on_c, 15, 55, 0
13, 160919, Note_on_c, 15, 59, 0
13, 160919, Note_on_c, 15, 43, 0
13, 172920, Note_on_c, 15, 81, 76
13, 172920, Note_on_c, 15, 84, 76
13, 172920, Note_on_c, 15, 76, 76
13, 172920, Note_on_c, 15, 64, 76
13, 172979, Note_on_c, 15, 81, 0
13, 172979, Note_on_c, 15, 84, 0
13, 172979, Note_on_c, 15, 76, 0
13, 172979, Note_on_c, 15, 64, 0
13, 172980, Note_on_c, 15, 79, 76
13, 172980, Note_on_c, 15, 62, 76
13, 172980, Note_on_c, 15, 72, 76
13, 172980, Note_on_c, 15, 76, 76
13, 173039, Note_on_c, 15, 79, 0
13, 173039, Note_on_c, 15, 62, 0
13, 173039, Note_on_c, 15, 72, 0
13, 173039, Note_on_c, 15, 76, 0
13, 173040, Note_on_c, 15, 72, 76
13, 173040, Note_on_c, 15, 79, 76
13, 173040, Note_on_c, 15, 60, 76
13, 173040, Note_on_c, 15, 76, 76
13, 173099, Note_on_c, 15, 72, 0
13, 173099, Note_on_c, 15, 79, 0
13, 173099, Note_on_c, 15, 60, 0
13, 173099, Note_on_c, 15, 76, 0
13, 173100, Note_on_c, 15, 79, 76
13, 173100, Note_on_c, 15, 76, 76
13, 173100, Note_on_c, 15, 59, 76
13, 173100, Note_on_c, 15, 71, 76
13, 173159, Note_on_c, 15, 79, 0
13, 173159, Note_on_c, 15, 76, 0
13, 173159, Note_on_c, 15, 59, 0
13, 173159, Note_on_c, 15, 71, 0
13, 173160, Note_on_c, 15, 79, 76
13, 173160, Note_on_c, 15, 76, 76
13, 173160, Note_on_c, 15, 72, 76
13, 173160, Note_on_c, 15, 60, 76
13, 173219, Note_on_c, 15, 79, 0
13, 173219, Note_on_c, 15, 76, 0
13, 173219, Note_on_c, 15, 72, 0
13, 173219, Note_on_c, 15, 60, 0
13, 173220, Note_on_c, 15, 79, 76
13, 173220, Note_on_c, 15, 57, 76
13, 173220, Note_on_c, 15, 76, 76
13, 173220, Note_on_c, 15, 69, 76
13, 173279, Note_on_c, 15, 79, 0
13, 173279, Note_on_c, 15, 57, 0
13, 173279, Note_on_c, 15, 76, 0
13, 173279, Note_on_c, 15, 69, 0
13, 173280, Note_on_c, 15, 78, 76
13, 173280, Note_on_c, 15, 74, 76
13, 173280, Note_on_c, 15, 62, 76
13, 173280, Note_on_c, 15, 81, 76
13, 173280, Note_on_c, 15, 84, 76
13, 173399, Note_on_c, 15, 78, 0
13, 173399, Note_on_c, 15, 74, 0
13, 173399, Note_on_c, 15, 62, 0
13, 173399, Note_on_c, 15, 81, 0
13, 173399, Note_on_c, 15, 84, 0
13, 173400, Note_on_c, 15, 70, 76
13, 173400, Note_on_c, 15, 66, 76
13, 173400, Note_on_c, 15, 62, 76
13, 173400, Note_on_c, 15, 50, 76
13, 173519, Note_on_c, 15, 70, 0
13, 173519, Note_on_c, 15, 66, 0
13, 173519, Note_on_c, 15, 62, 0
13, 173519, Note_on_c, 15, 50, 0
13, 174840, Note_on_c, 15, 79, 76
13, 174840, Note_on_c, 15, 74, 76
13, 174840, Note_on_c, 15, 62, 76
13, 174840, Note_on_c, 15, 82, 76
13, 174899, Note_on_c, 15, 79, 0
13, 174899, Note_on_c, 15, 74, 0
13, 174899, Note_on_c, 15, 62, 0
13, 174899, Note_on_c, 15, 82, 0
13, 174900, Note_on_c, 15, 60, 76
13, 174900, Note_on_c, 15, 72, 76
13, 174900, Note_on_c, 15, 76, 76
13, 174900, Note_on_c, 15, 79, 76
13, 174959, Note_on_c, 15, 60, 0
13, 174959, Note_on_c, 15, 72, 0
13, 174959, Note_on_c, 15, 76, 0
13, 174959, Note_on_c, 15, 79, 0
13, 174960, Note_on_c, 15, 58, 76
13, 174960, Note_on_c, 15, 70, 76
13, 174960, Note_on_c, 15, 76, 76
13, 174960, Note_on_c, 15, 79, 76
13, 175019, Note_on_c, 15, 58, 0
13, 175019, Note_on_c, 15, 70, 0
13, 175019, Note_on_c, 15, 76, 0
13, 175019, Note_on_c, 15, 79, 0
13, 175020, Note_on_c, 15, 57, 76
13, 175020, Note_on_c, 15, 79, 76
13, 175020, Note_on_c, 15, 76, 76
13, 175020, Note_on_c, 15, 69, 76
13, 175079, Note_on_c, 15, 57, 0
13, 175079, Note_on_c, 15, 79, 0
13, 175079, Note_on_c, 15, 76, 0
13, 175079, Note_on_c, 15, 69, 0
13, 175080, Note_on_c, 15, 76, 76
13, 175080, Note_on_c, 15, 58, 76
13, 175080, Note_on_c, 15, 70, 76
13, 175080, Note_on_c, 15, 79, 76
13, 175139, Note_on_c, 15, 76, 0
13, 175139, Note_on_c, 15, 58, 0
13, 175139, Note_on_c, 15, 70, 0
13, 175139, Note_on_c, 15, 79, 0
13, 175140, Note_on_c, 15, 55, 76
13, 175140, Note_on_c, 15, 76, 76
13, 175140, Note_on_c, 15, 79, 76
13, 175140, Note_on_c, 15, 67, 76
13, 175199, Note_on_c, 15, 55, 0
13, 175199, Note_on_c, 15, 76, 0
13, 175199, Note_on_c, 15, 79, 0
13, 175199, Note_on_c, 15, 67, 0
13, 175200, Note_on_c, 15, 60, 76
13, 175200, Note_on_c, 15, 82, 76
13, 175200, Note_on_c, 15, 76, 76
13, 175200, Note_on_c, 15, 79, 76
13, 175200, Note_on_c, 15, 72, 76
13, 175319, Note_on_c, 15, 60, 0
13, 175319, Note_on_c, 15, 82, 0
13, 175319, Note_on_c, 15, 76, 0
13, 175319, Note_on_c, 15, 79, 0
13, 175319, Note_on_c, 15, 72, 0
13, 175320, Note_on_c, 15, 67, 76
13, 175320, Note_on_c, 15, 60, 76
13, 175320, Note_on_c, 15, 64, 76
13, 175320, Note_on_c, 15, 48, 76
13, 175439, Note_on_c, 15, 67, 0
13, 175439, Note_on_c, 15, 60, 0
13, 175439, Note_on_c, 15, 64, 0
13, 175439, Note_on_c, 15, 48, 0
13, 177180, Note_on_c, 15, 74, 76
13, 177180, Note_on_c, 15, 58, 76
13, 177180, Note_on_c, 15, 70, 76
13, 177180, Note_on_c, 15, 77, 76
13, 177239, Note_on_c, 15, 74, 0
13, 177239, Note_on_c, 15, 58, 0
13, 177239, Note_on_c, 15, 70, 0
13, 177239, Note_on_c, 15, 77, 0
13, 177240, Note_on_c, 15, 57, 76
13, 177240, Note_on_c, 15, 72, 76
13, 177240, Note_on_c, 15, 69, 76
13, 177299, Note_on_c, 15, 57, 0
13, 177299, Note_on_c, 15, 72, 0
13, 177299, Note_on_c, 15, 69, 0
13, 177300, Note_on_c, 15, 67, 76
13, 177300, Note_on_c, 15, 74, 76
13, 177300, Note_on_c, 15, 55, 76
13, 177300, Note_on_c, 15, 70, 76
13, 177359, Note_on_c, 15, 67, 0
13, 177359, Note_on_c, 15, 74, 0
13, 177359, Note_on_c, 15, 55, 0
13, 177359, Note_on_c, 15, 70, 0
13, 177360, Note_on_c, 15, 53, 76
13, 177360, Note_on_c, 15, 69, 76
13, 177360, Note_on_c, 15, 65, 76
13, 177419, Note_on_c, 15, 53, 0
13, 177419, Note_on_c, 15, 69, 0
13, 177419, Note_on_c, 15, 65, 0
13, 177420, Note_on_c, 15, 52, 76
13, 177420, Note_on_c, 15, 64, 76
13, 177420, Note_on_c, 15, 67, 76
13, 177420, Note_on_c, 15, 70, 76
13, 177479, Note_on_c, 15, 52, 0
13, 177479, Note_on_c, 15, 64, 0
13, 177479, Note_on_c, 15, 67, 0
13, 177479, Note_on_c, 15, 70, 0
13, 177480, Note_on_c, 15, 53, 76
13, 177480, Note_on_c, 15, 72, 76
13, 177480, Note_on_c, 15, 65, 76
13, 177480, Note_on_c, 15, 69, 76
13, 177539, Note_on_c, 15, 53, 0
13, 177539, Note_on_c, 15, 72, 0
13, 177539, Note_on_c, 15, 65, 0
13, 177539, Note_on_c, 15, 69, 0
13, 177540, Note_on_c, 15, 50, 76
13, 177540, Note_on_c, 15, 69, 76
13, 177540, Note_on_c, 15, 65, 76
13, 177540, Note_on_c, 15, 62, 76
13, 177599, Note_on_c, 15, 50, 0
13, 177599, Note_on_c, 15, 69, 0
13, 177599, Note_on_c, 15, 65, 0
13, 177599, Note_on_c, 15, 62, 0
13, 177600, Note_on_c, 15, 72, 76
13, 177600, Note_on_c, 15, 55, 76
13, 177600, Note_on_c, 15, 67, 76
13, 177600, Note_on_c, 15, 74, 76
13, 177719, Note_on_c, 15, 72, 0
13, 177719, Note_on_c, 15, 55, 0
13, 177719, Note_on_c, 15, 67, 0
13, 177719, Note_on_c, 15, 74, 0
13, 177720, Note_on_c, 15, 59, 76
13, 177720, Note_on_c, 15, 55, 76
13, 177720, Note_on_c, 15, 43, 76
13, 177839, Note_on_c, 15, 59, 0
13, 177839, Note_on_c, 15, 55, 0
13, 177839, Note_on_c, 15, 43, 0
13, 178200, Note_on_c, 15, 76, 76
13, 178200, Note_on_c, 15, 60, 76
13, 178200, Note_on_c, 15, 72, 76
13, 178200, Note_on_c, 15, 79, 76
13, 178319, Note_on_c, 15, 76, 0
13, 178319, Note_on_c, 15, 60, 0
13, 178319, Note_on_c, 15, 72, 0
13, 178319, Note_on_c, 15, 79, 0
13, 178320, Note_on_c, 15, 81, 76
13, 178320, Note_on_c, 15, 76, 76
13, 178320, Note_on_c, 15, 72, 76
13, 178320, Note_on_c, 15, 60, 76
13, 178439, Note_on_c, 15, 81, 0
13, 178439, Note_on_c, 15, 76, 0
13, 178439, Note_on_c, 15, 72, 0
13, 178439, Note_on_c, 15, 60, 0
13, 178440, Note_on_c, 15, 81, 76
13, 178440, Note_on_c, 15, 60, 76
13, 178440, Note_on_c, 15, 72, 76
13, 178440, Note_on_c, 15, 76, 76
13, 178559, Note_on_c, 15, 81, 0
13, 178559, Note_on_c, 15, 60, 0
13, 178559, Note_on_c, 15, 72, 0
13, 178559, Note_on_c, 15, 76, 0
13, 178560, Note_on_c, 15, 59, 76
13, 178560, Note_on_c, 15, 74, 76
13, 178560, Note_on_c, 15, 71, 76
13, 178560, Note_on_c, 15, 77, 76
13, 178560, Note_on_c, 15, 81, 76
13, 178679, Note_on_c, 15, 59, 0
13, 178679, Note_on_c, 15, 74, 0
13, 178679, Note_on_c, 15, 71, 0
13, 178679, Note_on_c, 15, 77, 0
13, 178679, Note_on_c, 15, 81, 0
13, 178680, Note_on_c, 15, 79, 76
13, 178680, Note_on_c, 15, 72, 76
13, 178680, Note_on_c, 15, 60, 76
13, 178680, Note_on_c, 15, 76, 76
13, 178739, Note_on_c, 15, 79, 0
13, 178739, Note_on_c, 15, 72, 0
13, 178739, Note_on_c, 15, 60, 0
13, 178739, Note_on_c, 15, 76, 0
13, 178740, Note_on_c, 15, 74, 76
13, 178740, Note_on_c, 15, 62, 76
13, 178740, Note_on_c, 15, 77, 76
13, 178740, Note_on_c, 15, 81, 76
13, 178799, Note_on_c, 15, 74, 0
13, 178799, Note_on_c, 15, 62, 0
13, 178799, Note_on_c, 15, 77, 0
13, 178799, Note_on_c, 15, 81, 0
13, 178800, Note_on_c, 15, 83, 76
13, 178800, Note_on_c, 15, 64, 76
13, 178800, Note_on_c, 15, 76, 76
13, 178800, Note_on_c, 15, 79, 76
13, 178919, Note_on_c, 15, 83, 0
13, 178919, Note_on_c, 15, 64, 0
13, 178919, Note_on_c, 15, 76, 0
13, 178919, Note_on_c, 15, 79, 0
13, 178920, Note_on_c, 15, 76, 76
13, 178920, Note_on_c, 15, 79, 76
13, 178920, Note_on_c, 15, 72, 76
13, 178920, Note_on_c, 15, 60, 76
13, 179039, Note_on_c, 15, 76, 0
13, 179039, Note_on_c, 15, 79, 0
13, 179039, Note_on_c, 15, 72, 0
13, 179039, Note_on_c, 15, 60, 0
13, 179040, Note_on_c, 15, 72, 76
13, 179040, Note_on_c, 15, 57, 76
13, 179040, Note_on_c, 15, 69, 76
13, 179040, Note_on_c, 15, 76, 76
13, 179040, Note_on_c, 15, 79, 76
13, 179159, Note_on_c, 15, 72, 0
13, 179159, Note_on_c, 15, 57, 0
13, 179159, Note_on_c, 15, 69, 0
13, 179159, Note_on_c, 15, 76, 0
13, 179159, Note_on_c, 15, 79, 0
13, 179160, Note_on_c, 15, 81, 76
13, 179160, Note_on_c, 15, 74, 76
13, 179160, Note_on_c, 15, 62, 76
13, 179160, Note_on_c, 15, 77, 76
13, 179279, Note_on_c, 15, 81, 0
13, 179279, Note_on_c, 15, 74, 0
13, 179279, Note_on_c, 15, 62, 0
13, 179279, Note_on_c, 15, 77, 0
13, 179280, Note_on_c, 15, 50, 76
13, 179280, Note_on_c, 15, 69, 76
13, 179280, Note_on_c, 15, 62, 76
13, 179280, Note_on_c, 15, 65, 76
13, 179399, Note_on_c, 15, 50, 0
13, 179399, Note_on_c, 15, 69, 0
13, 179399, Note_on_c, 15, 62, 0
13, 179399, Note_on_c, 15, 65, 0
13, 179400, Note_on_c, 15, 72, 76
13, 179400, Note_on_c, 15, 76, 76
13, 179400, Note_on_c, 15, 60, 76
13, 179400, Note_on_c, 15, 79, 76
13, 179519, Note_on_c, 15, 72, 0
13, 179519, Note_on_c, 15, 76, 0
13, 179519, Note_on_c, 15, 60, 0
13, 179519, Note_on_c, 15, 79, 0
13, 179520, Note_on_c, 15, 59, 76
13, 179520, Note_on_c, 15, 77, 76
13, 179520, Note_on_c, 15, 74, 76
13, 179520, Note_on_c, 15, 71, 76
13, 179639, Note_on_c, 15, 59, 0
13, 179639, Note_on_c, 15, 77, 0
13, 179639, Note_on_c, 15, 74, 0
13, 179639, Note_on_c, 15, 71, 0
13, 179640, Note_on_c, 15, 67, 76
13, 179640, Note_on_c, 15, 74, 76
13, 179640, Note_on_c, 15, 71, 76
13, 179640, Note_on_c, 15, 55, 76
13, 179759, Note_on_c, 15, 67, 0
13, 179759, Note_on_c, 15, 74, 0
13, 179759, Note_on_c, 15, 71, 0
13, 179759, Note_on_c, 15, 55, 0
13, 179760, Note_on_c, 15, 76, 76
13, 179760, Note_on_c, 15, 60, 76
13, 179760, Note_on_c, 15, 79, 76
13, 179760, Note_on_c, 15, 72, 76
13, 179879, Note_on_c, 15, 76, 0
13, 179879, Note_on_c, 15, 60, 0
13, 179879, Note_on_c, 15, 79, 0
13, 179879, Note_on_c, 15, 72, 0
13, 179880, Note_on_c, 15, 67, 76
13, 179880, Note_on_c, 15, 48, 76
13, 179880, Note_on_c, 15, 60, 76
13, 179880, Note_on_c, 15, 64, 76
13, 179999, Note_on_c, 15, 67, 0
13, 179999, Note_on_c, 15, 48, 0
13, 179999, Note_on_c, 15, 60, 0
13, 179999, Note_on_c, 15, 64, 0
13, 180000, Note_on_c, 15, 60, 76
13, 180000, Note_on_c, 15, 57, 76
13, 180000, Note_on_c, 15, 41, 76
13, 180000, Note_on_c, 15, 53, 76
13, 180000, Note_on_c, 15, 64, 76
13, 180119, Note_on_c, 15, 60, 0
13, 180119, Note_on_c, 15, 57, 0
13, 180119, Note_on_c, 15, 41, 0
13, 180119, Note_on_c, 15, 53, 0
13, 180119, Note_on_c, 15, 64, 0
13, 180120, Note_on_c, 15, 65, 76
13, 180120, Note_on_c, 15, 69, 76
13, 180120, Note_on_c, 15, 53, 76
13, 180120, Note_on_c, 15, 72, 76
13, 180239, Note_on_c, 15, 65, 0
13, 180239, Note_on_c, 15, 69, 0
13, 180239, Note_on_c, 15, 53, 0
13, 180239, Note_on_c, 15, 72, 0
13, 180240, Note_on_c, 15, 65, 76
13, 180240, Note_on_c, 15, 69, 76
13, 180240, Note_on_c, 15, 53, 76
13, 180240, Note_on_c, 15, 74, 76
13, 180359, Note_on_c, 15, 65, 0
13, 180359, Note_on_c, 15, 69, 0
13, 180359, Note_on_c, 15, 53, 0
13, 180359, Note_on_c, 15, 74, 0
13, 180360, Note_on_c, 15, 74, 76
13, 180360, Note_on_c, 15, 65, 76
13, 180360, Note_on_c, 15, 69, 76
13, 180360, Note_on_c, 15, 53, 76
13, 180479, Note_on_c, 15, 74, 0
13, 180479, Note_on_c, 15, 65, 0
13, 180479, Note_on_c, 15, 69, 0
13, 180479, Note_on_c, 15, 53, 0
13, 180480, Note_on_c, 15, 71, 76
13, 180480, Note_on_c, 15, 67, 76
13, 180480, Note_on_c, 15, 52, 76
13, 180480, Note_on_c, 15, 64, 76
13, 180480, Note_on_c, 15, 74, 76
13, 180599, Note_on_c, 15, 71, 0
13, 180599, Note_on_c, 15, 67, 0
13, 180599, Note_on_c, 15, 52, 0
13, 180599, Note_on_c, 15, 64, 0
13, 180599, Note_on_c, 15, 74, 0
13, 180600, Note_on_c, 15, 53, 76
13, 180600, Note_on_c, 15, 65, 76
13, 180600, Note_on_c, 15, 69, 76
13, 180600, Note_on_c, 15, 72, 76
13, 180659, Note_on_c, 15, 53, 0
13, 180659, Note_on_c, 15, 65, 0
13, 180659, Note_on_c, 15, 69, 0
13, 180659, Note_on_c, 15, 72, 0
13, 180660, Note_on_c, 15, 67, 76
13, 180660, Note_on_c, 15, 71, 76
13, 180660, Note_on_c, 15, 55, 76
13, 180660, Note_on_c, 15, 74, 76
13, 180719, Note_on_c, 15, 67, 0
13, 180719, Note_on_c, 15, 71, 0
13, 180719, Note_on_c, 15, 55, 0
13, 180719, Note_on_c, 15, 74, 0
13, 180720, Note_on_c, 15, 72, 76
13, 180720, Note_on_c, 15, 69, 76
13, 180720, Note_on_c, 15, 57, 76
13, 180839, Note_on_c, 15, 72, 0
13, 180839, Note_on_c, 15, 69, 0
13, 180839, Note_on_c, 15, 57, 0
13, 180840, Note_on_c, 15, 65, 76
13, 180840, Note_on_c, 15, 69, 76
13, 180840, Note_on_c, 15, 72, 76
13, 180840, Note_on_c, 15, 53, 76
13, 180959, Note_on_c, 15, 65, 0
13, 180959, Note_on_c, 15, 69, 0
13, 180959, Note_on_c, 15, 72, 0
13, 180959, Note_on_c, 15, 53, 0
13, 180960, Note_on_c, 15, 69, 76
13, 180960, Note_on_c, 15, 65, 76
13, 180960, Note_on_c, 15, 62, 76
13, 180960, Note_on_c, 15, 72, 76
13, 180960, Note_on_c, 15, 50, 76
13, 181079, Note_on_c, 15, 69, 0
13, 181079, Note_on_c, 15, 65, 0
13, 181079, Note_on_c, 15, 62, 0
13, 181079, Note_on_c, 15, 72, 0
13, 181079, Note_on_c, 15, 50, 0
13, 181080, Note_on_c, 15, 67, 76
13, 181080, Note_on_c, 15, 74, 76
13, 181080, Note_on_c, 15, 71, 76
13, 181080, Note_on_c, 15, 55, 76
13, 181199, Note_on_c, 15, 67, 0
13, 181199, Note_on_c, 15, 74, 0
13, 181199, Note_on_c, 15, 71, 0
13, 181199, Note_on_c, 15, 55, 0
13, 181200, Note_on_c, 15, 43, 76
13, 181200, Note_on_c, 15, 62, 76
13, 181200, Note_on_c, 15, 55, 76
13, 181200, Note_on_c, 15, 59, 76
13, 181319, Note_on_c, 15, 43, 0
13, 181319, Note_on_c, 15, 62, 0
13, 181319, Note_on_c, 15, 55, 0
13, 181319, Note_on_c, 15, 59, 0
13, 181320, Note_on_c, 15, 69, 76
13, 181320, Note_on_c, 15, 65, 76
13, 181320, Note_on_c, 15, 53, 76
13, 181320, Note_on_c, 15, 72, 76
13, 181439, Note_on_c, 15, 69, 0
13, 181439, Note_on_c, 15, 65, 0
13, 181439, Note_on_c, 15, 53, 0
13, 181439, Note_on_c, 15, 72, 0
13, 181440, Note_on_c, 15, 64, 76
13, 181440, Note_on_c, 15, 67, 76
13, 181440, Note_on_c, 15, 52, 76
13, 181440, Note_on_c, 15, 72, 76
13, 181559, Note_on_c, 15, 64, 0
13, 181559, Note_on_c, 15, 67, 0
13, 181559, Note_on_c, 15, 52, 0
13, 181559, Note_on_c, 15, 72, 0
13, 181560, Note_on_c, 15, 74, 76
13, 181560, Note_on_c, 15, 67, 76
13, 181560, Note_on_c, 15, 55, 76
13, 181560, Note_on_c, 15, 71, 76
13, 181679, Note_on_c, 15, 74, 0
13, 181679, Note_on_c, 15, 67, 0
13, 181679, Note_on_c, 15, 55, 0
13, 181679, Note_on_c, 15, 71, 0
13, 181680, Note_on_c, 15, 52, 76
13, 181680, Note_on_c, 15, 64, 76
13, 181680, Note_on_c, 15, 67, 76
13, 181680, Note_on_c, 15, 72, 76
13, 181799, Note_on_c, 15, 52, 0
13, 181799, Note_on_c, 15, 64, 0
13, 181799, Note_on_c, 15, 67, 0
13, 181799, Note_on_c, 15, 72, 0
13, 181800, Note_on_c, 15, 64, 76
13, 181800, Note_on_c, 15, 60, 76
13, 181800, Note_on_c, 15, 70, 76
13, 181800, Note_on_c, 15, 48, 76
13, 181800, Note_on_c, 15, 67, 76
13, 181919, Note_on_c, 15, 64, 0
13, 181919, Note_on_c, 15, 60, 0
13, 181919, Note_on_c, 15, 70, 0
13, 181919, Note_on_c, 15, 48, 0
13, 181919, Note_on_c, 15, 67, 0
13, 181920, Note_on_c, 15, 65, 76
13, 181920, Note_on_c, 15, 53, 76
13, 181920, Note_on_c, 15, 69, 76
13, 181920, Note_on_c, 15, 72, 76
13, 182039, Note_on_c, 15, 65, 0
13, 182039, Note_on_c, 15, 53, 0
13, 182039, Note_on_c, 15, 69, 0
13, 182039, Note_on_c, 15, 72, 0
13, 182040, Note_on_c, 15, 50, 76
13, 182040, Note_on_c, 15, 72, 76
13, 182040, Note_on_c, 15, 69, 76
13, 182040, Note_on_c, 15, 62, 76
13, 182159, Note_on_c, 15, 50, 0
13, 182159, Note_on_c, 15, 72, 0
13, 182159, Note_on_c, 15, 69, 0
13, 182159, Note_on_c, 15, 62, 0
13, 182160, Note_on_c, 15, 64, 76
13, 182160, Note_on_c, 15, 52, 76
13, 182160, Note_on_c, 15, 69, 76
13, 182160, Note_on_c, 15, 72, 76
13, 182279, Note_on_c, 15, 64, 0
13, 182279, Note_on_c, 15, 52, 0
13, 182279, Note_on_c, 15, 69, 0
13, 182279, Note_on_c, 15, 72, 0
13, 182280, Note_on_c, 15, 53, 76
13, 182280, Note_on_c, 15, 65, 76
13, 182280, Note_on_c, 15, 72, 76
13, 182280, Note_on_c, 15, 69, 76
13, 182399, Note_on_c, 15, 53, 0
13, 182399, Note_on_c, 15, 65, 0
13, 182399, Note_on_c, 15, 72, 0
13, 182399, Note_on_c, 15, 69, 0
13, 182400, Note_on_c, 15, 67, 76
13, 182400, Note_on_c, 15, 74, 76
13, 182400, Note_on_c, 15, 55, 76
13, 182400, Note_on_c, 15, 71, 76
13, 182639, Note_on_c, 15, 67, 0
13, 182639, Note_on_c, 15, 74, 0
13, 182639, Note_on_c, 15, 55, 0
13, 182639, Note_on_c, 15, 71, 0
13, 186840, Note_on_c, 15, 79, 76
13, 186840, Note_on_c, 15, 60, 76
13, 186840, Note_on_c, 15, 76, 76
13, 186840, Note_on_c, 15, 72, 76
13, 186959, Note_on_c, 15, 79, 0
13, 186959, Note_on_c, 15, 60, 0
13, 186959, Note_on_c, 15, 76, 0
13, 186959, Note_on_c, 15, 72, 0
13, 186960, Note_on_c, 15, 72, 76
13, 186960, Note_on_c, 15, 76, 76
13, 186960, Note_on_c, 15, 79, 76
13, 186960, Note_on_c, 15, 60, 76
13, 187079, Note_on_c, 15, 72, 0
13, 187079, Note_on_c, 15, 76, 0
13, 187079, Note_on_c, 15, 79, 0
13, 187079, Note_on_c, 15, 60, 0
13, 187080, Note_on_c, 15, 60, 76
13, 187080, Note_on_c, 15, 72, 76
13, 187080, Note_on_c, 15, 79, 76
13, 187080, Note_on_c, 15, 76, 76
13, 187199, Note_on_c, 15, 60, 0
13, 187199, Note_on_c, 15, 72, 0
13, 187199, Note_on_c, 15, 79, 0
13, 187199, Note_on_c, 15, 76, 0
13, 187200, Note_on_c, 15, 71, 76
13, 187200, Note_on_c, 15, 59, 76
13, 187200, Note_on_c, 15, 79, 76
13, 187200, Note_on_c, 15, 74, 76
13, 187319, Note_on_c, 15, 71, 0
13, 187319, Note_on_c, 15, 59, 0
13, 187319, Note_on_c, 15, 79, 0
13, 187319, Note_on_c, 15, 74, 0
13, 187320, Note_on_c, 15, 72, 76
13, 187320, Note_on_c, 15, 79, 76
13, 187320, Note_on_c, 15, 60, 76
13, 187320, Note_on_c, 15, 76, 76
13, 187379, Note_on_c, 15, 72, 0
13, 187379, Note_on_c, 15, 79, 0
13, 187379, Note_on_c, 15, 60, 0
13, 187379, Note_on_c, 15, 76, 0
13, 187380, Note_on_c, 15, 81, 76
13, 187380, Note_on_c, 15, 74, 76
13, 187380, Note_on_c, 15, 62, 76
13, 187380, Note_on_c, 15, 78, 76
13, 187439, Note_on_c, 15, 81, 0
13, 187439, Note_on_c, 15, 74, 0
13, 187439, Note_on_c, 15, 62, 0
13, 187439, Note_on_c, 15, 78, 0
13, 187440, Note_on_c, 15, 64, 76
13, 187440, Note_on_c, 15, 79, 76
13, 187440, Note_on_c, 15, 76, 76
13, 187440, Note_on_c, 15, 83, 76
13, 187559, Note_on_c, 15, 64, 0
13, 187559, Note_on_c, 15, 79, 0
13, 187559, Note_on_c, 15, 76, 0
13, 187559, Note_on_c, 15, 83, 0
13, 187560, Note_on_c, 15, 60, 76
13, 187560, Note_on_c, 15, 76, 76
13, 187560, Note_on_c, 15, 72, 76
13, 187560, Note_on_c, 15, 79, 76
13, 187679, Note_on_c, 15, 60, 0
13, 187679, Note_on_c, 15, 76, 0
13, 187679, Note_on_c, 15, 72, 0
13, 187679, Note_on_c, 15, 79, 0
13, 187680, Note_on_c, 15, 57, 76
13, 187680, Note_on_c, 15, 76, 76
13, 187680, Note_on_c, 15, 72, 76
13, 187680, Note_on_c, 15, 69, 76
13, 187680, Note_on_c, 15, 79, 76
13, 187799, Note_on_c, 15, 57, 0
13, 187799, Note_on_c, 15, 76, 0
13, 187799, Note_on_c, 15, 72, 0
13, 187799, Note_on_c, 15, 69, 0
13, 187799, Note_on_c, 15, 79, 0
13, 187800, Note_on_c, 15, 62, 76
13, 187800, Note_on_c, 15, 78, 76
13, 187800, Note_on_c, 15, 81, 76
13, 187800, Note_on_c, 15, 74, 76
13, 187919, Note_on_c, 15, 62, 0
13, 187919, Note_on_c, 15, 78, 0
13, 187919, Note_on_c, 15, 81, 0
13, 187919, Note_on_c, 15, 74, 0
13, 187920, Note_on_c, 15, 50, 76
13, 187920, Note_on_c, 15, 66, 76
13, 187920, Note_on_c, 15, 62, 76
13, 187920, Note_on_c, 15, 69, 76
13, 188039, Note_on_c, 15, 50, 0
13, 188039, Note_on_c, 15, 66, 0
13, 188039, Note_on_c, 15, 62, 0
13, 188039, Note_on_c, 15, 69, 0
13, 188040, Note_on_c, 15, 79, 76
13, 188040, Note_on_c, 15, 72, 76
13, 188040, Note_on_c, 15, 60, 76
13, 188040, Note_on_c, 15, 76, 76
13, 188159, Note_on_c, 15, 79, 0
13, 188159, Note_on_c, 15, 72, 0
13, 188159, Note_on_c, 15, 60, 0
13, 188159, Note_on_c, 15, 76, 0
13, 188160, Note_on_c, 15, 59, 76
13, 188160, Note_on_c, 15, 74, 76
13, 188160, Note_on_c, 15, 79, 76
13, 188160, Note_on_c, 15, 71, 76
13, 188219, Note_on_c, 15, 59, 0
13, 188219, Note_on_c, 15, 74, 0
13, 188219, Note_on_c, 15, 79, 0
13, 188219, Note_on_c, 15, 71, 0
13, 188220, Note_on_c, 15, 69, 76
13, 188220, Note_on_c, 15, 76, 76
13, 188220, Note_on_c, 15, 72, 76
13, 188220, Note_on_c, 15, 57, 76
13, 188279, Note_on_c, 15, 69, 0
13, 188279, Note_on_c, 15, 76, 0
13, 188279, Note_on_c, 15, 72, 0
13, 188279, Note_on_c, 15, 57, 0
13, 188280, Note_on_c, 15, 71, 76
13, 188280, Note_on_c, 15, 55, 76
13, 188280, Note_on_c, 15, 67, 76
13, 188280, Note_on_c, 15, 74, 76
13, 188339, Note_on_c, 15, 71, 0
13, 188339, Note_on_c, 15, 55, 0
13, 188339, Note_on_c, 15, 67, 0
13, 188339, Note_on_c, 15, 74, 0
13, 188340, Note_on_c, 15, 57, 76
13, 188340, Note_on_c, 15, 69, 76
13, 188340, Note_on_c, 15, 72, 76
13, 188340, Note_on_c, 15, 76, 76
13, 188399, Note_on_c, 15, 57, 0
13, 188399, Note_on_c, 15, 69, 0
13, 188399, Note_on_c, 15, 72, 0
13, 188399, Note_on_c, 15, 76, 0
13, 188400, Note_on_c, 15, 74, 76
13, 188400, Note_on_c, 15, 77, 76
13, 188400, Note_on_c, 15, 59, 76
13, 188400, Note_on_c, 15, 71, 76
13, 188459, Note_on_c, 15, 74, 0
13, 188459, Note_on_c, 15, 77, 0
13, 188459, Note_on_c, 15, 59, 0
13, 188459, Note_on_c, 15, 71, 0
13, 188460, Note_on_c, 15, 55, 76
13, 188460, Note_on_c, 15, 67, 76
13, 188460, Note_on_c, 15, 71, 76
13, 188460, Note_on_c, 15, 74, 76
13, 188519, Note_on_c, 15, 55, 0
13, 188519, Note_on_c, 15, 67, 0
13, 188519, Note_on_c, 15, 71, 0
13, 188519, Note_on_c, 15, 74, 0
13, 188520, Note_on_c, 15, 57, 76
13, 188520, Note_on_c, 15, 72, 76
13, 188520, Note_on_c, 15, 69, 76
13, 188520, Note_on_c, 15, 76, 76
13, 188579, Note_on_c, 15, 57, 0
13, 188579, Note_on_c, 15, 72, 0
13, 188579, Note_on_c, 15, 69, 0
13, 188579, Note_on_c, 15, 76, 0
13, 188580, Note_on_c, 15, 74, 76
13, 188580, Note_on_c, 15, 59, 76
13, 188580, Note_on_c, 15, 77, 76
13, 188580, Note_on_c, 15, 71, 76
13, 188639, Note_on_c, 15, 74, 0
13, 188639, Note_on_c, 15, 59, 0
13, 188639, Note_on_c, 15, 77, 0
13, 188639, Note_on_c, 15, 71, 0
13, 188640, Note_on_c, 15, 72, 76
13, 188640, Note_on_c, 15, 79, 76
13, 188640, Note_on_c, 15, 60, 76
13, 188640, Note_on_c, 15, 76, 76
13, 188699, Note_on_c, 15, 72, 0
13, 188699, Note_on_c, 15, 79, 0
13, 188699, Note_on_c, 15, 60, 0
13, 188699, Note_on_c, 15, 76, 0
13, 188700, Note_on_c, 15, 62, 76
13, 188700, Note_on_c, 15, 77, 76
13, 188700, Note_on_c, 15, 74, 76
13, 188700, Note_on_c, 15, 81, 76
13, 188759, Note_on_c, 15, 62, 0
13, 188759, Note_on_c, 15, 77, 0
13, 188759, Note_on_c, 15, 74, 0
13, 188759, Note_on_c, 15, 81, 0
13, 188760, Note_on_c, 15, 79, 76
13, 188760, Note_on_c, 15, 76, 76
13, 188760, Note_on_c, 15, 72, 76
13, 188760, Note_on_c, 15, 60, 76
13, 188819, Note_on_c, 15, 79, 0
13, 188819, Note_on_c, 15, 76, 0
13, 188819, Note_on_c, 15, 72, 0
13, 188819, Note_on_c, 15, 60, 0
13, 188820, Note_on_c, 15, 74, 76
13, 188820, Note_on_c, 15, 77, 76
13, 188820, Note_on_c, 15, 59, 76
13, 188820, Note_on_c, 15, 71, 76
13, 188879, Note_on_c, 15, 74, 0
13, 188879, Note_on_c, 15, 77, 0
13, 188879, Note_on_c, 15, 59, 0
13, 188879, Note_on_c, 15, 71, 0
13, 188880, Note_on_c, 15, 69, 76
13, 188880, Note_on_c, 15, 77, 76
13, 188880, Note_on_c, 15, 72, 76
13, 188880, Note_on_c, 15, 57, 76
13, 188939, Note_on_c, 15, 69, 0
13, 188939, Note_on_c, 15, 77, 0
13, 188939, Note_on_c, 15, 72, 0
13, 188939, Note_on_c, 15, 57, 0
13, 188940, Note_on_c, 15, 55, 76
13, 188940, Note_on_c, 15, 67, 76
13, 188940, Note_on_c, 15, 71, 76
13, 188940, Note_on_c, 15, 74, 76
13, 188999, Note_on_c, 15, 55, 0
13, 188999, Note_on_c, 15, 67, 0
13, 188999, Note_on_c, 15, 71, 0
13, 188999, Note_on_c, 15, 74, 0
13, 189000, Note_on_c, 15, 65, 76
13, 189000, Note_on_c, 15, 72, 76
13, 189000, Note_on_c, 15, 69, 76
13, 189000, Note_on_c, 15, 53, 76
13, 189059, Note_on_c, 15, 65, 0
13, 189059, Note_on_c, 15, 72, 0
13, 189059, Note_on_c, 15, 69, 0
13, 189059, Note_on_c, 15, 53, 0
13, 189060, Note_on_c, 15, 67, 76
13, 189060, Note_on_c, 15, 72, 76
13, 189060, Note_on_c, 15, 52, 76
13, 189060, Note_on_c, 15, 64, 76
13, 189119, Note_on_c, 15, 67, 0
13, 189119, Note_on_c, 15, 72, 0
13, 189119, Note_on_c, 15, 52, 0
13, 189119, Note_on_c, 15, 64, 0
13, 189120, Note_on_c, 15, 50, 76
13, 189120, Note_on_c, 15, 69, 76
13, 189120, Note_on_c, 15, 62, 76
13, 189120, Note_on_c, 15, 65, 76
13, 189120, Note_on_c, 15, 72, 76
13, 189179, Note_on_c, 15, 50, 0
13, 189179, Note_on_c, 15, 69, 0
13, 189179, Note_on_c, 15, 62, 0
13, 189179, Note_on_c, 15, 65, 0
13, 189179, Note_on_c, 15, 72, 0
13, 189180, Note_on_c, 15, 53, 76
13, 189180, Note_on_c, 15, 65, 76
13, 189180, Note_on_c, 15, 72, 76
13, 189180, Note_on_c, 15, 69, 76
13, 189239, Note_on_c, 15, 53, 0
13, 189239, Note_on_c, 15, 65, 0
13, 189239, Note_on_c, 15, 72, 0
13, 189239, Note_on_c, 15, 69, 0
13, 189240, Note_on_c, 15, 52, 76
13, 189240, Note_on_c, 15, 71, 76
13, 189240, Note_on_c, 15, 67, 76
13, 189240, Note_on_c, 15, 64, 76
13, 189299, Note_on_c, 15, 52, 0
13, 189299, Note_on_c, 15, 71, 0
13, 189299, Note_on_c, 15, 67, 0
13, 189299, Note_on_c, 15, 64, 0
13, 189300, Note_on_c, 15, 72, 76
13, 189300, Note_on_c, 15, 65, 76
13, 189300, Note_on_c, 15, 53, 76
13, 189300, Note_on_c, 15, 69, 76
13, 189359, Note_on_c, 15, 72, 0
13, 189359, Note_on_c, 15, 65, 0
13, 189359, Note_on_c, 15, 53, 0
13, 189359, Note_on_c, 15, 69, 0
13, 189360, Note_on_c, 15, 70, 76
13, 189360, Note_on_c, 15, 55, 76
13, 189360, Note_on_c, 15, 77, 76
13, 189360, Note_on_c, 15, 67, 76
13, 189360, Note_on_c, 15, 74, 76
13, 189419, Note_on_c, 15, 70, 0
13, 189419, Note_on_c, 15, 55, 0
13, 189419, Note_on_c, 15, 77, 0
13, 189419, Note_on_c, 15, 67, 0
13, 189419, Note_on_c, 15, 74, 0
13, 189420, Note_on_c, 15, 69, 76
13, 189420, Note_on_c, 15, 72, 76
13, 189420, Note_on_c, 15, 53, 76
13, 189420, Note_on_c, 15, 65, 76
13, 189479, Note_on_c, 15, 69, 0
13, 189479, Note_on_c, 15, 72, 0
13, 189479, Note_on_c, 15, 53, 0
13, 189479, Note_on_c, 15, 65, 0
13, 189480, Note_on_c, 15, 67, 76
13, 189480, Note_on_c, 15, 64, 76
13, 189480, Note_on_c, 15, 52, 76
13, 189480, Note_on_c, 15, 70, 76
13, 189539, Note_on_c, 15, 67, 0
13, 189539, Note_on_c, 15, 64, 0
13, 189539, Note_on_c, 15, 52, 0
13, 189539, Note_on_c, 15, 70, 0
13, 189540, Note_on_c, 15, 69, 76
13, 189540, Note_on_c, 15, 65, 76
13, 189540, Note_on_c, 15, 50, 76
13, 189540, Note_on_c, 15, 62, 76
13, 189599, Note_on_c, 15, 69, 0
13, 189599, Note_on_c, 15, 65, 0
13, 189599, Note_on_c, 15, 50, 0
13, 189599, Note_on_c, 15, 62, 0
13, 189600, Note_on_c, 15, 48, 76
13, 189600, Note_on_c, 15, 64, 76
13, 189600, Note_on_c, 15, 70, 76
13, 189600, Note_on_c, 15, 67, 76
13, 189600, Note_on_c, 15, 60, 76
13, 189659, Note_on_c, 15, 48, 0
13, 189659, Note_on_c, 15, 64, 0
13, 189659, Note_on_c, 15, 70, 0
13, 189659, Note_on_c, 15, 67, 0
13, 189659, Note_on_c, 15, 60, 0
13, 189660, Note_on_c, 15, 67, 76
13, 189660, Note_on_c, 15, 52, 76
13, 189660, Note_on_c, 15, 64, 76
13, 189660, Note_on_c, 15, 70, 76
13, 189719, Note_on_c, 15, 67, 0
13, 189719, Note_on_c, 15, 52, 0
13, 189719, Note_on_c, 15, 64, 0
13, 189719, Note_on_c, 15, 70, 0
13, 189720, Note_on_c, 15, 65, 76
13, 189720, Note_on_c, 15, 69, 76
13, 189720, Note_on_c, 15, 50, 76
13, 189720, Note_on_c, 15, 62, 76
13, 189779, Note_on_c, 15, 65, 0
13, 189779, Note_on_c, 15, 69, 0
13, 189779, Note_on_c, 15, 50, 0
13, 189779, Note_on_c, 15, 62, 0
13, 189780, Note_on_c, 15, 52, 76
13, 189780, Note_on_c, 15, 70, 76
13, 189780, Note_on_c, 15, 64, 76
13, 189780, Note_on_c, 15, 67, 76
13, 189839, Note_on_c, 15, 52, 0
13, 189839, Note_on_c, 15, 70, 0
13, 189839, Note_on_c, 15, 64, 0
13, 189839, Note_on_c, 15, 67, 0
13, 189840, Note_on_c, 15, 53, 76
13, 189840, Note_on_c, 15, 76, 76
13, 189840, Note_on_c, 15, 65, 76
13, 189840, Note_on_c, 15, 69, 76
13, 189840, Note_on_c, 15, 72, 76
13, 189899, Note_on_c, 15, 53, 0
13, 189899, Note_on_c, 15, 76, 0
13, 189899, Note_on_c, 15, 65, 0
13, 189899, Note_on_c, 15, 69, 0
13, 189899, Note_on_c, 15, 72, 0
13, 189900, Note_on_c, 15, 70, 76
13, 189900, Note_on_c, 15, 52, 76
13, 189900, Note_on_c, 15, 67, 76
13, 189900, Note_on_c, 15, 64, 76
13, 189959, Note_on_c, 15, 70, 0
13, 189959, Note_on_c, 15, 52, 0
13, 189959, Note_on_c, 15, 67, 0
13, 189959, Note_on_c, 15, 64, 0
13, 189960, Note_on_c, 15, 50, 76
13, 189960, Note_on_c, 15, 65, 76
13, 189960, Note_on_c, 15, 62, 76
13, 189960, Note_on_c, 15, 69, 76
13, 190019, Note_on_c, 15, 50, 0
13, 190019, Note_on_c, 15, 65, 0
13, 190019, Note_on_c, 15, 62, 0
13, 190019, Note_on_c, 15, 69, 0
13, 190020, Note_on_c, 15, 48, 76
13, 190020, Note_on_c, 15, 67, 76
13, 190020, Note_on_c, 15, 60, 76
13, 190020, Note_on_c, 15, 64, 76
13, 190079, Note_on_c, 15, 48, 0
13, 190079, Note_on_c, 15, 67, 0
13, 190079, Note_on_c, 15, 60, 0
13, 190079, Note_on_c, 15, 64, 0
13, 190080, Note_on_c, 15, 69, 76
13, 190080, Note_on_c, 15, 62, 76
13, 190080, Note_on_c, 15, 59, 76
13, 190080, Note_on_c, 15, 65, 76
13, 190080, Note_on_c, 15, 47, 76
13, 190139, Note_on_c, 15, 69, 0
13, 190139, Note_on_c, 15, 62, 0
13, 190139, Note_on_c, 15, 59, 0
13, 190139, Note_on_c, 15, 65, 0
13, 190139, Note_on_c, 15, 47, 0
13, 190140, Note_on_c, 15, 65, 76
13, 190140, Note_on_c, 15, 62, 76
13, 190140, Note_on_c, 15, 69, 76
13, 190140, Note_on_c, 15, 50, 76
13, 190199, Note_on_c, 15, 65, 0
13, 190199, Note_on_c, 15, 62, 0
13, 190199, Note_on_c, 15, 69, 0
13, 190199, Note_on_c, 15, 50, 0
13, 190200, Note_on_c, 15, 48, 76
13, 190200, Note_on_c, 15, 60, 76
13, 190200, Note_on_c, 15, 67, 76
13, 190200, Note_on_c, 15, 64, 76
13, 190259, Note_on_c, 15, 48, 0
13, 190259, Note_on_c, 15, 60, 0
13, 190259, Note_on_c, 15, 67, 0
13, 190259, Note_on_c, 15, 64, 0
13, 190260, Note_on_c, 15, 69, 76
13, 190260, Note_on_c, 15, 50, 76
13, 190260, Note_on_c, 15, 65, 76
13, 190260, Note_on_c, 15, 62, 76
13, 190319, Note_on_c, 15, 69, 0
13, 190319, Note_on_c, 15, 50, 0
13, 190319, Note_on_c, 15, 65, 0
13, 190319, Note_on_c, 15, 62, 0
13, 190320, Note_on_c, 15, 71, 76
13, 190320, Note_on_c, 15, 64, 76
13, 190320, Note_on_c, 15, 67, 76
13, 190320, Note_on_c, 15, 74, 76
13, 190320, Note_on_c, 15, 52, 76
13, 190379, Note_on_c, 15, 71, 0
13, 190379, Note_on_c, 15, 64, 0
13, 190379, Note_on_c, 15, 67, 0
13, 190379, Note_on_c, 15, 74, 0
13, 190379, Note_on_c, 15, 52, 0
13, 190380, Note_on_c, 15, 62, 76
13, 190380, Note_on_c, 15, 50, 76
13, 190380, Note_on_c, 15, 69, 76
13, 190380, Note_on_c, 15, 65, 76
13, 190439, Note_on_c, 15, 62, 0
13, 190439, Note_on_c, 15, 50, 0
13, 190439, Note_on_c, 15, 69, 0
13, 190439, Note_on_c, 15, 65, 0
13, 190440, Note_on_c, 15, 67, 76
13, 190440, Note_on_c, 15, 64, 76
13, 190440, Note_on_c, 15, 60, 76
13, 190440, Note_on_c, 15, 48, 76
13, 190499, Note_on_c, 15, 67, 0
13, 190499, Note_on_c, 15, 64, 0
13, 190499, Note_on_c, 15, 60, 0
13, 190499, Note_on_c, 15, 48, 0
13, 190500, Note_on_c, 15, 59, 76
13, 190500, Note_on_c, 15, 62, 76
13, 190500, Note_on_c, 15, 47, 76
13, 190500, Note_on_c, 15, 65, 76
13, 190559, Note_on_c, 15, 59, 0
13, 190559, Note_on_c, 15, 62, 0
13, 190559, Note_on_c, 15, 47, 0
13, 190559, Note_on_c, 15, 65, 0
13, 190560, Note_on_c, 15, 57, 76
13, 190560, Note_on_c, 15, 60, 76
13, 190560, Note_on_c, 15, 67, 76
13, 190560, Note_on_c, 15, 45, 76
13, 190560, Note_on_c, 15, 64, 76
13, 190619, Note_on_c, 15, 57, 0
13, 190619, Note_on_c, 15, 60, 0
13, 190619, Note_on_c, 15, 67, 0
13, 190619, Note_on_c, 15, 45, 0
13, 190619, Note_on_c, 15, 64, 0
13, 190620, Note_on_c, 15, 64, 76
13, 190620, Note_on_c, 15, 60, 76
13, 190620, Note_on_c, 15, 67, 76
13, 190620, Note_on_c, 15, 48, 76
13, 190679, Note_on_c, 15, 64, 0
13, 190679, Note_on_c, 15, 60, 0
13, 190679, Note_on_c, 15, 67, 0
13, 190679, Note_on_c, 15, 48, 0
13, 190680, Note_on_c, 15, 47, 76
13, 190680, Note_on_c, 15, 62, 76
13, 190680, Note_on_c, 15, 65, 76
13, 190680, Note_on_c, 15, 59, 76
13, 190739, Note_on_c, 15, 47, 0
13, 190739, Note_on_c, 15, 62, 0
13, 190739, Note_on_c, 15, 65, 0
13, 190739, Note_on_c, 15, 59, 0
13, 190740, Note_on_c, 15, 67, 76
13, 190740, Note_on_c, 15, 48, 76
13, 190740, Note_on_c, 15, 64, 76
13, 190740, Note_on_c, 15, 60, 76
13, 190799, Note_on_c, 15, 67, 0
13, 190799, Note_on_c, 15, 48, 0
13, 190799, Note_on_c, 15, 64, 0
13, 190799, Note_on_c, 15, 60, 0
13, 190800, Note_on_c, 15, 72, 76
13, 190800, Note_on_c, 15, 69, 76
13, 190800, Note_on_c, 15, 62, 76
13, 190800, Note_on_c, 15, 65, 76
13, 190800, Note_on_c, 15, 50, 76
13, 190859, Note_on_c, 15, 72, 0
13, 190859, Note_on_c, 15, 69, 0
13, 190859, Note_on_c, 15, 62, 0
13, 190859, Note_on_c, 15, 65, 0
13, 190859, Note_on_c, 15, 50, 0
13, 190860, Note_on_c, 15, 64, 76
13, 190860, Note_on_c, 15, 67, 76
13, 190860, Note_on_c, 15, 48, 76
13, 190860, Note_on_c, 15, 60, 76
13, 190919, Note_on_c, 15, 64, 0
13, 190919, Note_on_c, 15, 67, 0
13, 190919, Note_on_c, 15, 48, 0
13, 190919, Note_on_c, 15, 60, 0
13, 190920, Note_on_c, 15, 65, 76
13, 190920, Note_on_c, 15, 59, 76
13, 190920, Note_on_c, 15, 47, 76
13, 190920, Note_on_c, 15, 62, 76
13, 190979, Note_on_c, 15, 65, 0
13, 190979, Note_on_c, 15, 59, 0
13, 190979, Note_on_c, 15, 47, 0
13, 190979, Note_on_c, 15, 62, 0
13, 190980, Note_on_c, 15, 64, 76
13, 190980, Note_on_c, 15, 45, 76
13, 190980, Note_on_c, 15, 57, 76
13, 190980, Note_on_c, 15, 60, 76
13, 191039, Note_on_c, 15, 64, 0
13, 191039, Note_on_c, 15, 45, 0
13, 191039, Note_on_c, 15, 57, 0
13, 191039, Note_on_c, 15, 60, 0
13, 191040, Note_on_c, 15, 43, 76
13, 191040, Note_on_c, 15, 55, 76
13, 191040, Note_on_c, 15, 62, 76
13, 191040, Note_on_c, 15, 65, 76
13, 191040, Note_on_c, 15, 59, 76
13, 191159, Note_on_c, 15, 43, 0
13, 191159, Note_on_c, 15, 55, 0
13, 191159, Note_on_c, 15, 62, 0
13, 191159, Note_on_c, 15, 65, 0
13, 191159, Note_on_c, 15, 59, 0
13, 191160, Note_on_c, 15, 67, 76
13, 191160, Note_on_c, 15, 71, 76
13, 191160, Note_on_c, 15, 55, 76
13, 191160, Note_on_c, 15, 74, 76
13, 191279, Note_on_c, 15, 67, 0
13, 191279, Note_on_c, 15, 71, 0
13, 191279, Note_on_c, 15, 55, 0
13, 191279, Note_on_c, 15, 74, 0
13, 191280, Note_on_c, 15, 71, 76
13, 191280, Note_on_c, 15, 55, 76
13, 191280, Note_on_c, 15, 67, 76
13, 191280, Note_on_c, 15, 74, 76
13, 191399, Note_on_c, 15, 71, 0
13, 191399, Note_on_c, 15, 55, 0
13, 191399, Note_on_c, 15, 67, 0
13, 191399, Note_on_c, 15, 74, 0
13, 191400, Note_on_c, 15, 55, 76
13, 191400, Note_on_c, 15, 67, 76
13, 191400, Note_on_c, 15, 71, 76
13, 191400, Note_on_c, 15, 74, 76
13, 191519, Note_on_c, 15, 55, 0
13, 191519, Note_on_c, 15, 67, 0
13, 191519, Note_on_c, 15, 71, 0
13, 191519, Note_on_c, 15, 74, 0
13, 191520, Note_on_c, 15, 52, 76
13, 191520, Note_on_c, 15, 72, 76
13, 191520, Note_on_c, 15, 64, 76
13, 191520, Note_on_c, 15, 67, 76
13, 191639, Note_on_c, 15, 52, 0
13, 191639, Note_on_c, 15, 72, 0
13, 191639, Note_on_c, 15, 64, 0
13, 191639, Note_on_c, 15, 67, 0
13, 191640, Note_on_c, 15, 65, 76
13, 191640, Note_on_c, 15, 72, 76
13, 191640, Note_on_c, 15, 69, 76
13, 191640, Note_on_c, 15, 53, 76
13, 191699, Note_on_c, 15, 65, 0
13, 191699, Note_on_c, 15, 72, 0
13, 191699, Note_on_c, 15, 69, 0
13, 191699, Note_on_c, 15, 53, 0
13, 191700, Note_on_c, 15, 55, 76
13, 191700, Note_on_c, 15, 71, 76
13, 191700, Note_on_c, 15, 67, 76
13, 191700, Note_on_c, 15, 74, 76
13, 191759, Note_on_c, 15, 55, 0
13, 191759, Note_on_c, 15, 71, 0
13, 191759, Note_on_c, 15, 67, 0
13, 191759, Note_on_c, 15, 74, 0
13, 191760, Note_on_c, 15, 77, 76
13, 191760, Note_on_c, 15, 57, 76
13, 191760, Note_on_c, 15, 72, 76
13, 191760, Note_on_c, 15, 69, 76
13, 191879, Note_on_c, 15, 77, 0
13, 191879, Note_on_c, 15, 57, 0
13, 191879, Note_on_c, 15, 72, 0
13, 191879, Note_on_c, 15, 69, 0
13, 191880, Note_on_c, 15, 65, 76
13, 191880, Note_on_c, 15, 74, 76
13, 191880, Note_on_c, 15, 69, 76
13, 191880, Note_on_c, 15, 53, 76
13, 191999, Note_on_c, 15, 65, 0
13, 191999, Note_on_c, 15, 74, 0
13, 191999, Note_on_c, 15, 69, 0
13, 191999, Note_on_c, 15, 53, 0
13, 192000, Note_on_c, 15, 62, 76
13, 192000, Note_on_c, 15, 65, 76
13, 192000, Note_on_c, 15, 71, 76
13, 192000, Note_on_c, 15, 50, 76
13, 192119, Note_on_c, 15, 62, 0
13, 192119, Note_on_c, 15, 65, 0
13, 192119, Note_on_c, 15, 71, 0
13, 192119, Note_on_c, 15, 50, 0
13, 192120, Note_on_c, 15, 55, 76
13, 192120, Note_on_c, 15, 74, 76
13, 192120, Note_on_c, 15, 67, 76
13, 192120, Note_on_c, 15, 71, 76
13, 192239, Note_on_c, 15, 55, 0
13, 192239, Note_on_c, 15, 74, 0
13, 192239, Note_on_c, 15, 67, 0
13, 192239, Note_on_c, 15, 71, 0
13, 192240, Note_on_c, 15, 43, 76
13, 192240, Note_on_c, 15, 59, 76
13, 192240, Note_on_c, 15, 55, 76
13, 192240, Note_on_c, 15, 62, 76
13, 192359, Note_on_c, 15, 43, 0
13, 192359, Note_on_c, 15, 59, 0
13, 192359, Note_on_c, 15, 55, 0
13, 192359, Note_on_c, 15, 62, 0
13, 192360, Note_on_c, 15, 74, 76
13, 192360, Note_on_c, 15, 71, 76
13, 192360, Note_on_c, 15, 67, 76
13, 192360, Note_on_c, 15, 53, 76
13, 192360, Note_on_c, 15, 65, 76
13, 192479, Note_on_c, 15, 74, 0
13, 192479, Note_on_c, 15, 71, 0
13, 192479, Note_on_c, 15, 67, 0
13, 192479, Note_on_c, 15, 53, 0
13, 192479, Note_on_c, 15, 65, 0
13, 192480, Note_on_c, 15, 67, 76
13, 192480, Note_on_c, 15, 52, 76
13, 192480, Note_on_c, 15, 64, 76
13, 192480, Note_on_c, 15, 72, 76
13, 192599, Note_on_c, 15, 67, 0
13, 192599, Note_on_c, 15, 52, 0
13, 192599, Note_on_c, 15, 64, 0
13, 192599, Note_on_c, 15, 72, 0
13, 192600, Note_on_c, 15, 67, 76
13, 192600, Note_on_c, 15, 48, 76
13, 192600, Note_on_c, 15, 60, 76
13, 192600, Note_on_c, 15, 64, 76
13, 192719, Note_on_c, 15, 67, 0
13, 192719, Note_on_c, 15, 48, 0
13, 192719, Note_on_c, 15, 60, 0
13, 192719, Note_on_c, 15, 64, 0
13, 192720, Note_on_c, 15, 55, 76
13, 192720, Note_on_c, 15, 67, 76
13, 192720, Note_on_c, 15, 71, 76
13, 192720, Note_on_c, 15, 74, 76
13, 192839, Note_on_c, 15, 55, 0
13, 192839, Note_on_c, 15, 67, 0
13, 192839, Note_on_c, 15, 71, 0
13, 192839, Note_on_c, 15, 74, 0
13, 192840, Note_on_c, 15, 43, 76
13, 192840, Note_on_c, 15, 55, 76
13, 192840, Note_on_c, 15, 60, 76
13, 192840, Note_on_c, 15, 64, 76
13, 192959, Note_on_c, 15, 43, 0
13, 192959, Note_on_c, 15, 55, 0
13, 192959, Note_on_c, 15, 60, 0
13, 192959, Note_on_c, 15, 64, 0
13, 192960, Note_on_c, 15, 64, 76
13, 192960, Note_on_c, 15, 60, 76
13, 192960, Note_on_c, 15, 67, 76
13, 192960, Note_on_c, 15, 48, 76
13, 193199, Note_on_c, 15, 64, 0
13, 193199, Note_on_c, 15, 60, 0
13, 193199, Note_on_c, 15, 67, 0
13, 193199, Note_on_c, 15, 48, 0
13, 195960, Note_on_c, 15, 76, 76
13, 195960, Note_on_c, 15, 72, 76
13, 195960, Note_on_c, 15, 79, 76
13, 195960, Note_on_c, 15, 60, 76
13, 196079, Note_on_c, 15, 76, 0
13, 196079, Note_on_c, 15, 72, 0
13, 196079, Note_on_c, 15, 79, 0
13, 196079, Note_on_c, 15, 60, 0
13, 196080, Note_on_c, 15, 60, 76
13, 196080, Note_on_c, 15, 76, 76
13, 196080, Note_on_c, 15, 72, 76
13, 196080, Note_on_c, 15, 81, 76
13, 196199, Note_on_c, 15, 60, 0
13, 196199, Note_on_c, 15, 76, 0
13, 196199, Note_on_c, 15, 72, 0
13, 196199, Note_on_c, 15, 81, 0
13, 196200, Note_on_c, 15, 76, 76
13, 196200, Note_on_c, 15, 79, 76
13, 196200, Note_on_c, 15, 60, 76
13, 196200, Note_on_c, 15, 72, 76
13, 196319, Note_on_c, 15, 76, 0
13, 196319, Note_on_c, 15, 79, 0
13, 196319, Note_on_c, 15, 60, 0
13, 196319, Note_on_c, 15, 72, 0
13, 196320, Note_on_c, 15, 74, 76
13, 196320, Note_on_c, 15, 71, 76
13, 196320, Note_on_c, 15, 77, 76
13, 196320, Note_on_c, 15, 59, 76
13, 196320, Note_on_c, 15, 81, 76
13, 196439, Note_on_c, 15, 74, 0
13, 196439, Note_on_c, 15, 71, 0
13, 196439, Note_on_c, 15, 77, 0
13, 196439, Note_on_c, 15, 59, 0
13, 196439, Note_on_c, 15, 81, 0
13, 196440, Note_on_c, 15, 79, 76
13, 196440, Note_on_c, 15, 76, 76
13, 196440, Note_on_c, 15, 60, 76
13, 196440, Note_on_c, 15, 72, 76
13, 196499, Note_on_c, 15, 79, 0
13, 196499, Note_on_c, 15, 76, 0
13, 196499, Note_on_c, 15, 60, 0
13, 196499, Note_on_c, 15, 72, 0
13, 196500, Note_on_c, 15, 62, 76
13, 196500, Note_on_c, 15, 74, 76
13, 196500, Note_on_c, 15, 81, 76
13, 196500, Note_on_c, 15, 77, 76
13, 196559, Note_on_c, 15, 62, 0
13, 196559, Note_on_c, 15, 74, 0
13, 196559, Note_on_c, 15, 81, 0
13, 196559, Note_on_c, 15, 77, 0
13, 196560, Note_on_c, 15, 83, 76
13, 196560, Note_on_c, 15, 64, 76
13, 196560, Note_on_c, 15, 79, 76
13, 196560, Note_on_c, 15, 76, 76
13, 196679, Note_on_c, 15, 83, 0
13, 196679, Note_on_c, 15, 64, 0
13, 196679, Note_on_c, 15, 79, 0
13, 196679, Note_on_c, 15, 76, 0
13, 196680, Note_on_c, 15, 79, 76
13, 196680, Note_on_c, 15, 76, 76
13, 196680, Note_on_c, 15, 72, 76
13, 196680, Note_on_c, 15, 60, 76
13, 196799, Note_on_c, 15, 79, 0
13, 196799, Note_on_c, 15, 76, 0
13, 196799, Note_on_c, 15, 72, 0
13, 196799, Note_on_c, 15, 60, 0
13, 196800, Note_on_c, 15, 57, 76
13, 196800, Note_on_c, 15, 72, 76
13, 196800, Note_on_c, 15, 69, 76
13, 196800, Note_on_c, 15, 76, 76
13, 196800, Note_on_c, 15, 79, 76
13, 196919, Note_on_c, 15, 57, 0
13, 196919, Note_on_c, 15, 72, 0
13, 196919, Note_on_c, 15, 69, 0
13, 196919, Note_on_c, 15, 76, 0
13, 196919, Note_on_c, 15, 79, 0
13, 196920, Note_on_c, 15, 62, 76
13, 196920, Note_on_c, 15, 74, 76
13, 196920, Note_on_c, 15, 77, 76
13, 196920, Note_on_c, 15, 81, 76
13, 197039, Note_on_c, 15, 62, 0
13, 197039, Note_on_c, 15, 74, 0
13, 197039, Note_on_c, 15, 77, 0
13, 197039, Note_on_c, 15, 81, 0
13, 197040, Note_on_c, 15, 62, 76
13, 197040, Note_on_c, 15, 50, 76
13, 197040, Note_on_c, 15, 69, 76
13, 197040, Note_on_c, 15, 65, 76
13, 197159, Note_on_c, 15, 62, 0
13, 197159, Note_on_c, 15, 50, 0
13, 197159, Note_on_c, 15, 69, 0
13, 197159, Note_on_c, 15, 65, 0
13, 197160, Note_on_c, 15, 79, 76
13, 197160, Note_on_c, 15, 76, 76
13, 197160, Note_on_c, 15, 60, 76
13, 197160, Note_on_c, 15, 72, 76
13, 197279, Note_on_c, 15, 79, 0
13, 197279, Note_on_c, 15, 76, 0
13, 197279, Note_on_c, 15, 60, 0
13, 197279, Note_on_c, 15, 72, 0
13, 197280, Note_on_c, 15, 74, 76
13, 197280, Note_on_c, 15, 71, 76
13, 197280, Note_on_c, 15, 77, 76
13, 197280, Note_on_c, 15, 79, 76
13, 197280, Note_on_c, 15, 59, 76
13, 197399, Note_on_c, 15, 74, 0
13, 197399, Note_on_c, 15, 71, 0
13, 197399, Note_on_c, 15, 77, 0
13, 197399, Note_on_c, 15, 79, 0
13, 197399, Note_on_c, 15, 59, 0
13, 197400, Note_on_c, 15, 67, 76
13, 197400, Note_on_c, 15, 71, 76
13, 197400, Note_on_c, 15, 74, 76
13, 197400, Note_on_c, 15, 55, 76
13, 197519, Note_on_c, 15, 67, 0
13, 197519, Note_on_c, 15, 71, 0
13, 197519, Note_on_c, 15, 74, 0
13, 197519, Note_on_c, 15, 55, 0
13, 197520, Note_on_c, 15, 60, 76
13, 197520, Note_on_c, 15, 76, 76
13, 197520, Note_on_c, 15, 72, 76
13, 197520, Note_on_c, 15, 79, 76
13, 197639, Note_on_c, 15, 60, 0
13, 197639, Note_on_c, 15, 76, 0
13, 197639, Note_on_c, 15, 72, 0
13, 197639, Note_on_c, 15, 79, 0
13, 197640, Note_on_c, 15, 64, 76
13, 197640, Note_on_c, 15, 48, 76
13, 197640, Note_on_c, 15, 67, 76
13, 197640, Note_on_c, 15, 60, 76
13, 197759, Note_on_c, 15, 64, 0
13, 197759, Note_on_c, 15, 48, 0
13, 197759, Note_on_c, 15, 67, 0
13, 197759, Note_on_c, 15, 60, 0
13, 197760, Note_on_c, 15, 53, 76
13, 197760, Note_on_c, 15, 65, 76
13, 197760, Note_on_c, 15, 69, 76
13, 197760, Note_on_c, 15, 72, 76
13, 197819, Note_on_c, 15, 53, 0
13, 197819, Note_on_c, 15, 65, 0
13, 197819, Note_on_c, 15, 69, 0
13, 197819, Note_on_c, 15, 72, 0
13, 197820, Note_on_c, 15, 57, 76
13, 197820, Note_on_c, 15, 72, 76
13, 197820, Note_on_c, 15, 76, 76
13, 197820, Note_on_c, 15, 69, 76
13, 197879, Note_on_c, 15, 57, 0
13, 197879, Note_on_c, 15, 72, 0
13, 197879, Note_on_c, 15, 76, 0
13, 197879, Note_on_c, 15, 69, 0
13, 197880, Note_on_c, 15, 55, 76
13, 197880, Note_on_c, 15, 74, 76
13, 197880, Note_on_c, 15, 70, 76
13, 197880, Note_on_c, 15, 67, 76
13, 197939, Note_on_c, 15, 55, 0
13, 197939, Note_on_c, 15, 74, 0
13, 197939, Note_on_c, 15, 70, 0
13, 197939, Note_on_c, 15, 67, 0
13, 197940, Note_on_c, 15, 57, 76
13, 197940, Note_on_c, 15, 72, 76
13, 197940, Note_on_c, 15, 76, 76
13, 197940, Note_on_c, 15, 69, 76
13, 197999, Note_on_c, 15, 57, 0
13, 197999, Note_on_c, 15, 72, 0
13, 197999, Note_on_c, 15, 76, 0
13, 197999, Note_on_c, 15, 69, 0
13, 198000, Note_on_c, 15, 74, 76
13, 198000, Note_on_c, 15, 58, 76
13, 198000, Note_on_c, 15, 77, 76
13, 198000, Note_on_c, 15, 81, 76
13, 198000, Note_on_c, 15, 70, 76
13, 198059, Note_on_c, 15, 74, 0
13, 198059, Note_on_c, 15, 58, 0
13, 198059, Note_on_c, 15, 77, 0
13, 198059, Note_on_c, 15, 81, 0
13, 198059, Note_on_c, 15, 70, 0
13, 198060, Note_on_c, 15, 57, 76
13, 198060, Note_on_c, 15, 69, 76
13, 198060, Note_on_c, 15, 72, 76
13, 198060, Note_on_c, 15, 76, 76
13, 198119, Note_on_c, 15, 57, 0
13, 198119, Note_on_c, 15, 69, 0
13, 198119, Note_on_c, 15, 72, 0
13, 198119, Note_on_c, 15, 76, 0
13, 198120, Note_on_c, 15, 67, 76
13, 198120, Note_on_c, 15, 55, 76
13, 198120, Note_on_c, 15, 74, 76
13, 198120, Note_on_c, 15, 70, 76
13, 198179, Note_on_c, 15, 67, 0
13, 198179, Note_on_c, 15, 55, 0
13, 198179, Note_on_c, 15, 74, 0
13, 198179, Note_on_c, 15, 70, 0
13, 198180, Note_on_c, 15, 69, 76
13, 198180, Note_on_c, 15, 65, 76
13, 198180, Note_on_c, 15, 53, 76
13, 198180, Note_on_c, 15, 72, 76
13, 198239, Note_on_c, 15, 69, 0
13, 198239, Note_on_c, 15, 65, 0
13, 198239, Note_on_c, 15, 53, 0
13, 198239, Note_on_c, 15, 72, 0
13, 198240, Note_on_c, 15, 64, 76
13, 198240, Note_on_c, 15, 67, 76
13, 198240, Note_on_c, 15, 52, 76
13, 198240, Note_on_c, 15, 74, 76
13, 198240, Note_on_c, 15, 70, 76
13, 198299, Note_on_c, 15, 64, 0
13, 198299, Note_on_c, 15, 67, 0
13, 198299, Note_on_c, 15, 52, 0
13, 198299, Note_on_c, 15, 74, 0
13, 198299, Note_on_c, 15, 70, 0
13, 198300, Note_on_c, 15, 70, 76
13, 198300, Note_on_c, 15, 55, 76
13, 198300, Note_on_c, 15, 67, 76
13, 198300, Note_on_c, 15, 74, 76
13, 198359, Note_on_c, 15, 70, 0
13, 198359, Note_on_c, 15, 55, 0
13, 198359, Note_on_c, 15, 67, 0
13, 198359, Note_on_c, 15, 74, 0
13, 198360, Note_on_c, 15, 65, 76
13, 198360, Note_on_c, 15, 69, 76
13, 198360, Note_on_c, 15, 53, 76
13, 198360, Note_on_c, 15, 72, 76
13, 198419, Note_on_c, 15, 65, 0
13, 198419, Note_on_c, 15, 69, 0
13, 198419, Note_on_c, 15, 53, 0
13, 198419, Note_on_c, 15, 72, 0
13, 198420, Note_on_c, 15, 55, 76
13, 198420, Note_on_c, 15, 67, 76
13, 198420, Note_on_c, 15, 74, 76
13, 198420, Note_on_c, 15, 70, 76
13, 198479, Note_on_c, 15, 55, 0
13, 198479, Note_on_c, 15, 67, 0
13, 198479, Note_on_c, 15, 74, 0
13, 198479, Note_on_c, 15, 70, 0
13, 198480, Note_on_c, 15, 72, 76
13, 198480, Note_on_c, 15, 76, 76
13, 198480, Note_on_c, 15, 79, 76
13, 198480, Note_on_c, 15, 57, 76
13, 198480, Note_on_c, 15, 69, 76
13, 198539, Note_on_c, 15, 72, 0
13, 198539, Note_on_c, 15, 76, 0
13, 198539, Note_on_c, 15, 79, 0
13, 198539, Note_on_c, 15, 57, 0
13, 198539, Note_on_c, 15, 69, 0
13, 198540, Note_on_c, 15, 70, 76
13, 198540, Note_on_c, 15, 67, 76
13, 198540, Note_on_c, 15, 55, 76
13, 198540, Note_on_c, 15, 74, 76
13, 198599, Note_on_c, 15, 70, 0
13, 198599, Note_on_c, 15, 67, 0
13, 198599, Note_on_c, 15, 55, 0
13, 198599, Note_on_c, 15, 74, 0
13, 198600, Note_on_c, 15, 69, 76
13, 198600, Note_on_c, 15, 72, 76
13, 198600, Note_on_c, 15, 53, 76
13, 198600, Note_on_c, 15, 65, 76
13, 198659, Note_on_c, 15, 69, 0
13, 198659, Note_on_c, 15, 72, 0
13, 198659, Note_on_c, 15, 53, 0
13, 198659, Note_on_c, 15, 65, 0
13, 198660, Note_on_c, 15, 67, 76
13, 198660, Note_on_c, 15, 70, 76
13, 198660, Note_on_c, 15, 64, 76
13, 198660, Note_on_c, 15, 52, 76
13, 198719, Note_on_c, 15, 67, 0
13, 198719, Note_on_c, 15, 70, 0
13, 198719, Note_on_c, 15, 64, 0
13, 198719, Note_on_c, 15, 52, 0
13, 198720, Note_on_c, 15, 65, 76
13, 198720, Note_on_c, 15, 50, 76
13, 198720, Note_on_c, 15, 72, 76
13, 198720, Note_on_c, 15, 69, 76
13, 198720, Note_on_c, 15, 62, 76
13, 198839, Note_on_c, 15, 65, 0
13, 198839, Note_on_c, 15, 50, 0
13, 198839, Note_on_c, 15, 72, 0
13, 198839, Note_on_c, 15, 69, 0
13, 198839, Note_on_c, 15, 62, 0
13, 198840, Note_on_c, 15, 52, 76
13, 198840, Note_on_c, 15, 64, 76
13, 198840, Note_on_c, 15, 67, 76
13, 198840, Note_on_c, 15, 71, 76
13, 198899, Note_on_c, 15, 52, 0
13, 198899, Note_on_c, 15, 64, 0
13, 198899, Note_on_c, 15, 67, 0
13, 198899, Note_on_c, 15, 71, 0
13, 198900, Note_on_c, 15, 53, 76
13, 198900, Note_on_c, 15, 69, 76
13, 198900, Note_on_c, 15, 72, 76
13, 198900, Note_on_c, 15, 65, 76
13, 198959, Note_on_c, 15, 53, 0
13, 198959, Note_on_c, 15, 69, 0
13, 198959, Note_on_c, 15, 72, 0
13, 198959, Note_on_c, 15, 65, 0
13, 198960, Note_on_c, 15, 71, 76
13, 198960, Note_on_c, 15, 67, 76
13, 198960, Note_on_c, 15, 55, 76
13, 198960, Note_on_c, 15, 74, 76
13, 199079, Note_on_c, 15, 71, 0
13, 199079, Note_on_c, 15, 67, 0
13, 199079, Note_on_c, 15, 55, 0
13, 199079, Note_on_c, 15, 74, 0
13, 199080, Note_on_c, 15, 62, 76
13, 199080, Note_on_c, 15, 55, 76
13, 199080, Note_on_c, 15, 43, 76
13, 199080, Note_on_c, 15, 59, 76
13, 199199, Note_on_c, 15, 62, 0
13, 199199, Note_on_c, 15, 55, 0
13, 199199, Note_on_c, 15, 43, 0
13, 199199, Note_on_c, 15, 59, 0
13, 199200, Note_on_c, 15, 60, 76
13, 199200, Note_on_c, 15, 67, 76
13, 199200, Note_on_c, 15, 64, 76
13, 199200, Note_on_c, 15, 48, 76
13, 199259, Note_on_c, 15, 60, 0
13, 199259, Note_on_c, 15, 67, 0
13, 199259, Note_on_c, 15, 64, 0
13, 199259, Note_on_c, 15, 48, 0
13, 199260, Note_on_c, 15, 67, 76
13, 199260, Note_on_c, 15, 71, 76
13, 199260, Note_on_c, 15, 74, 76
13, 199260, Note_on_c, 15, 55, 76
13, 199319, Note_on_c, 15, 67, 0
13, 199319, Note_on_c, 15, 71, 0
13, 199319, Note_on_c, 15, 74, 0
13, 199319, Note_on_c, 15, 55, 0
13, 199320, Note_on_c, 15, 76, 76
13, 199320, Note_on_c, 15, 57, 76
13, 199320, Note_on_c, 15, 72, 76
13, 199320, Note_on_c, 15, 69, 76
13, 199379, Note_on_c, 15, 76, 0
13, 199379, Note_on_c, 15, 57, 0
13, 199379, Note_on_c, 15, 72, 0
13, 199379, Note_on_c, 15, 69, 0
13, 199380, Note_on_c, 15, 71, 76
13, 199380, Note_on_c, 15, 74, 76
13, 199380, Note_on_c, 15, 59, 76
13, 199380, Note_on_c, 15, 77, 76
13, 199439, Note_on_c, 15, 71, 0
13, 199439, Note_on_c, 15, 74, 0
13, 199439, Note_on_c, 15, 59, 0
13, 199439, Note_on_c, 15, 77, 0
13, 199440, Note_on_c, 15, 72, 76
13, 199440, Note_on_c, 15, 81, 76
13, 199440, Note_on_c, 15, 76, 76
13, 199440, Note_on_c, 15, 60, 76
13, 199619, Note_on_c, 15, 72, 0
13, 199619, Note_on_c, 15, 81, 0
13, 199619, Note_on_c, 15, 76, 0
13, 199619, Note_on_c, 15, 60, 0
13, 199620, Note_on_c, 15, 60, 76
13, 199620, Note_on_c, 15, 76, 76
13, 199620, Note_on_c, 15, 72, 76
13, 199620, Note_on_c, 15, 79, 76
13, 199679, Note_on_c, 15, 60, 0
13, 199679, Note_on_c, 15, 76, 0
13, 199679, Note_on_c, 15, 72, 0
13, 199679, Note_on_c, 15, 79, 0
13, 199680, Note_on_c, 15, 74, 76
13, 199680, Note_on_c, 15, 81, 76
13, 199680, Note_on_c, 15, 77, 76
13, 199680, Note_on_c, 15, 72, 76
13, 199680, Note_on_c, 15, 60, 76
13, 199739, Note_on_c, 15, 74, 0
13, 199739, Note_on_c, 15, 81, 0
13, 199739, Note_on_c, 15, 77, 0
13, 199739, Note_on_c, 15, 72, 0
13, 199739, Note_on_c, 15, 60, 0
13, 199740, Note_on_c, 15, 59, 76
13, 199740, Note_on_c, 15, 71, 76
13, 199740, Note_on_c, 15, 74, 76
13, 199740, Note_on_c, 15, 77, 76
13, 199799, Note_on_c, 15, 59, 0
13, 199799, Note_on_c, 15, 71, 0
13, 199799, Note_on_c, 15, 74, 0
13, 199799, Note_on_c, 15, 77, 0
13, 199800, Note_on_c, 15, 79, 76
13, 199800, Note_on_c, 15, 60, 76
13, 199800, Note_on_c, 15, 76, 76
13, 199800, Note_on_c, 15, 72, 76
13, 199859, Note_on_c, 15, 79, 0
13, 199859, Note_on_c, 15, 60, 0
13, 199859, Note_on_c, 15, 76, 0
13, 199859, Note_on_c, 15, 72, 0
13, 199860, Note_on_c, 15, 69, 76
13, 199860, Note_on_c, 15, 76, 76
13, 199860, Note_on_c, 15, 57, 76
13, 199860, Note_on_c, 15, 72, 76
13, 199919, Note_on_c, 15, 69, 0
13, 199919, Note_on_c, 15, 76, 0
13, 199919, Note_on_c, 15, 57, 0
13, 199919, Note_on_c, 15, 72, 0
13, 199920, Note_on_c, 15, 79, 76
13, 199920, Note_on_c, 15, 59, 76
13, 199920, Note_on_c, 15, 74, 76
13, 199920, Note_on_c, 15, 71, 76
13, 200099, Note_on_c, 15, 79, 0
13, 200099, Note_on_c, 15, 59, 0
13, 200099, Note_on_c, 15, 74, 0
13, 200099, Note_on_c, 15, 71, 0
13, 200100, Note_on_c, 15, 71, 76
13, 200100, Note_on_c, 15, 74, 76
13, 200100, Note_on_c, 15, 77, 76
13, 200100, Note_on_c, 15, 59, 76
13, 200159, Note_on_c, 15, 71, 0
13, 200159, Note_on_c, 15, 74, 0
13, 200159, Note_on_c, 15, 77, 0
13, 200159, Note_on_c, 15, 59, 0
13, 200160, Note_on_c, 15, 76, 76
13, 200160, Note_on_c, 15, 72, 76
13, 200160, Note_on_c, 15, 59, 76
13, 200160, Note_on_c, 15, 71, 76
13, 200160, Note_on_c, 15, 79, 76
13, 200279, Note_on_c, 15, 76, 0
13, 200279, Note_on_c, 15, 72, 0
13, 200279, Note_on_c, 15, 59, 0
13, 200279, Note_on_c, 15, 71, 0
13, 200279, Note_on_c, 15, 79, 0
13, 200280, Note_on_c, 15, 64, 76
13, 200280, Note_on_c, 15, 67, 76
13, 200280, Note_on_c, 15, 71, 76
13, 200280, Note_on_c, 15, 52, 76
13, 200399, Note_on_c, 15, 64, 0
13, 200399, Note_on_c, 15, 67, 0
13, 200399, Note_on_c, 15, 71, 0
13, 200399, Note_on_c, 15, 52, 0
13, 200400, Note_on_c, 15, 69, 76
13, 200400, Note_on_c, 15, 77, 76
13, 200400, Note_on_c, 15, 72, 76
13, 200400, Note_on_c, 15, 57, 76
13, 200579, Note_on_c, 15, 69, 0
13, 200579, Note_on_c, 15, 77, 0
13, 200579, Note_on_c, 15, 72, 0
13, 200579, Note_on_c, 15, 57, 0
13, 200580, Note_on_c, 15, 76, 76
13, 200580, Note_on_c, 15, 72, 76
13, 200580, Note_on_c, 15, 69, 76
13, 200580, Note_on_c, 15, 57, 76
13, 200639, Note_on_c, 15, 76, 0
13, 200639, Note_on_c, 15, 72, 0
13, 200639, Note_on_c, 15, 69, 0
13, 200639, Note_on_c, 15, 57, 0
13, 200640, Note_on_c, 15, 69, 76
13, 200640, Note_on_c, 15, 77, 76
13, 200640, Note_on_c, 15, 57, 76
13, 200640, Note_on_c, 15, 74, 76
13, 200640, Note_on_c, 15, 71, 76
13, 200699, Note_on_c, 15, 69, 0
13, 200699, Note_on_c, 15, 77, 0
13, 200699, Note_on_c, 15, 57, 0
13, 200699, Note_on_c, 15, 74, 0
13, 200699, Note_on_c, 15, 71, 0
13, 200700, Note_on_c, 15, 71, 76
13, 200700, Note_on_c, 15, 74, 76
13, 200700, Note_on_c, 15, 55, 76
13, 200700, Note_on_c, 15, 67, 76
13, 200759, Note_on_c, 15, 71, 0
13, 200759, Note_on_c, 15, 74, 0
13, 200759, Note_on_c, 15, 55, 0
13, 200759, Note_on_c, 15, 67, 0
13, 200760, Note_on_c, 15, 57, 76
13, 200760, Note_on_c, 15, 72, 76
13, 200760, Note_on_c, 15, 76, 76
13, 200760, Note_on_c, 15, 69, 76
13, 200819, Note_on_c, 15, 57, 0
13, 200819, Note_on_c, 15, 72, 0
13, 200819, Note_on_c, 15, 76, 0
13, 200819, Note_on_c, 15, 69, 0
13, 200820, Note_on_c, 15, 72, 76
13, 200820, Note_on_c, 15, 65, 76
13, 200820, Note_on_c, 15, 69, 76
13, 200820, Note_on_c, 15, 53, 76
13, 200879, Note_on_c, 15, 72, 0
13, 200879, Note_on_c, 15, 65, 0
13, 200879, Note_on_c, 15, 69, 0
13, 200879, Note_on_c, 15, 53, 0
13, 200880, Note_on_c, 15, 55, 76
13, 200880, Note_on_c, 15, 76, 76
13, 200880, Note_on_c, 15, 67, 76
13, 200880, Note_on_c, 15, 71, 76
13, 201059, Note_on_c, 15, 55, 0
13, 201059, Note_on_c, 15, 76, 0
13, 201059, Note_on_c, 15, 67, 0
13, 201059, Note_on_c, 15, 71, 0
13, 201060, Note_on_c, 15, 74, 76
13, 201060, Note_on_c, 15, 55, 76
13, 201060, Note_on_c, 15, 67, 76
13, 201060, Note_on_c, 15, 71, 76
13, 201119, Note_on_c, 15, 74, 0
13, 201119, Note_on_c, 15, 55, 0
13, 201119, Note_on_c, 15, 67, 0
13, 201119, Note_on_c, 15, 71, 0
13, 201120, Note_on_c, 15, 55, 76
13, 201120, Note_on_c, 15, 72, 76
13, 201120, Note_on_c, 15, 76, 76
13, 201120, Note_on_c, 15, 67, 76
13, 201120, Note_on_c, 15, 69, 76
13, 201239, Note_on_c, 15, 55, 0
13, 201239, Note_on_c, 15, 72, 0
13, 201239, Note_on_c, 15, 76, 0
13, 201239, Note_on_c, 15, 67, 0
13, 201239, Note_on_c, 15, 69, 0
13, 201240, Note_on_c, 15, 67, 76
13, 201240, Note_on_c, 15, 64, 76
13, 201240, Note_on_c, 15, 60, 76
13, 201240, Note_on_c, 15, 48, 76
13, 201359, Note_on_c, 15, 67, 0
13, 201359, Note_on_c, 15, 64, 0
13, 201359, Note_on_c, 15, 60, 0
13, 201359, Note_on_c, 15, 48, 0
13, 201360, Note_on_c, 15, 53, 76
13, 201360, Note_on_c, 15, 65, 76
13, 201360, Note_on_c, 15, 69, 76
13, 201360, Note_on_c, 15, 74, 76
13, 201539, Note_on_c, 15, 53, 0
13, 201539, Note_on_c, 15, 65, 0
13, 201539, Note_on_c, 15, 69, 0
13, 201539, Note_on_c, 15, 74, 0
13, 201540, Note_on_c, 15, 65, 76
13, 201540, Note_on_c, 15, 53, 76
13, 201540, Note_on_c, 15, 72, 76
13, 201540, Note_on_c, 15, 69, 76
13, 201599, Note_on_c, 15, 65, 0
13, 201599, Note_on_c, 15, 53, 0
13, 201599, Note_on_c, 15, 72, 0
13, 201599, Note_on_c, 15, 69, 0
13, 201600, Note_on_c, 15, 67, 76
13, 201600, Note_on_c, 15, 53, 76
13, 201600, Note_on_c, 15, 65, 76
13, 201600, Note_on_c, 15, 74, 76
13, 201600, Note_on_c, 15, 71, 76
13, 201659, Note_on_c, 15, 67, 0
13, 201659, Note_on_c, 15, 53, 0
13, 201659, Note_on_c, 15, 65, 0
13, 201659, Note_on_c, 15, 74, 0
13, 201659, Note_on_c, 15, 71, 0
13, 201660, Note_on_c, 15, 67, 76
13, 201660, Note_on_c, 15, 52, 76
13, 201660, Note_on_c, 15, 71, 76
13, 201660, Note_on_c, 15, 64, 76
13, 201719, Note_on_c, 15, 67, 0
13, 201719, Note_on_c, 15, 52, 0
13, 201719, Note_on_c, 15, 71, 0
13, 201719, Note_on_c, 15, 64, 0
13, 201720, Note_on_c, 15, 65, 76
13, 201720, Note_on_c, 15, 69, 76
13, 201720, Note_on_c, 15, 53, 76
13, 201720, Note_on_c, 15, 72, 76
13, 201779, Note_on_c, 15, 65, 0
13, 201779, Note_on_c, 15, 69, 0
13, 201779, Note_on_c, 15, 53, 0
13, 201779, Note_on_c, 15, 72, 0
13, 201780, Note_on_c, 15, 65, 76
13, 201780, Note_on_c, 15, 69, 76
13, 201780, Note_on_c, 15, 62, 76
13, 201780, Note_on_c, 15, 50, 76
13, 201839, Note_on_c, 15, 65, 0
13, 201839, Note_on_c, 15, 69, 0
13, 201839, Note_on_c, 15, 62, 0
13, 201839, Note_on_c, 15, 50, 0
13, 201840, Note_on_c, 15, 52, 76
13, 201840, Note_on_c, 15, 67, 76
13, 201840, Note_on_c, 15, 64, 76
13, 201840, Note_on_c, 15, 71, 76
13, 201899, Note_on_c, 15, 52, 0
13, 201899, Note_on_c, 15, 67, 0
13, 201899, Note_on_c, 15, 64, 0
13, 201899, Note_on_c, 15, 71, 0
13, 201900, Note_on_c, 15, 53, 76
13, 201900, Note_on_c, 15, 65, 76
13, 201900, Note_on_c, 15, 69, 76
13, 201900, Note_on_c, 15, 72, 76
13, 201959, Note_on_c, 15, 53, 0
13, 201959, Note_on_c, 15, 65, 0
13, 201959, Note_on_c, 15, 69, 0
13, 201959, Note_on_c, 15, 72, 0
13, 201960, Note_on_c, 15, 67, 76
13, 201960, Note_on_c, 15, 55, 76
13, 201960, Note_on_c, 15, 74, 76
13, 201960, Note_on_c, 15, 71, 76
13, 202019, Note_on_c, 15, 67, 0
13, 202019, Note_on_c, 15, 55, 0
13, 202019, Note_on_c, 15, 74, 0
13, 202019, Note_on_c, 15, 71, 0
13, 202020, Note_on_c, 15, 64, 76
13, 202020, Note_on_c, 15, 71, 76
13, 202020, Note_on_c, 15, 67, 76
13, 202020, Note_on_c, 15, 52, 76
13, 202079, Note_on_c, 15, 64, 0
13, 202079, Note_on_c, 15, 71, 0
13, 202079, Note_on_c, 15, 67, 0
13, 202079, Note_on_c, 15, 52, 0
13, 202080, Note_on_c, 15, 57, 76
13, 202080, Note_on_c, 15, 69, 76
13, 202080, Note_on_c, 15, 72, 76
13, 202139, Note_on_c, 15, 57, 0
13, 202139, Note_on_c, 15, 69, 0
13, 202139, Note_on_c, 15, 72, 0
13, 202140, Note_on_c, 15, 70, 76
13, 202140, Note_on_c, 15, 77, 76
13, 202140, Note_on_c, 15, 74, 76
13, 202140, Note_on_c, 15, 58, 76
13, 202199, Note_on_c, 15, 70, 0
13, 202199, Note_on_c, 15, 77, 0
13, 202199, Note_on_c, 15, 74, 0
13, 202199, Note_on_c, 15, 58, 0
13, 202200, Note_on_c, 15, 76, 76
13, 202200, Note_on_c, 15, 72, 76
13, 202200, Note_on_c, 15, 57, 76
13, 202200, Note_on_c, 15, 69, 76
13, 202259, Note_on_c, 15, 76, 0
13, 202259, Note_on_c, 15, 72, 0
13, 202259, Note_on_c, 15, 57, 0
13, 202259, Note_on_c, 15, 69, 0
13, 202260, Note_on_c, 15, 67, 76
13, 202260, Note_on_c, 15, 55, 76
13, 202260, Note_on_c, 15, 74, 76
13, 202260, Note_on_c, 15, 70, 76
13, 202319, Note_on_c, 15, 67, 0
13, 202319, Note_on_c, 15, 55, 0
13, 202319, Note_on_c, 15, 74, 0
13, 202319, Note_on_c, 15, 70, 0
13, 202320, Note_on_c, 15, 69, 76
13, 202320, Note_on_c, 15, 72, 76
13, 202320, Note_on_c, 15, 65, 76
13, 202320, Note_on_c, 15, 53, 76
13, 202379, Note_on_c, 15, 69, 0
13, 202379, Note_on_c, 15, 72, 0
13, 202379, Note_on_c, 15, 65, 0
13, 202379, Note_on_c, 15, 53, 0
13, 202380, Note_on_c, 15, 64, 76
13, 202380, Note_on_c, 15, 70, 76
13, 202380, Note_on_c, 15, 52, 76
13, 202380, Note_on_c, 15, 67, 76
13, 202439, Note_on_c, 15, 64, 0
13, 202439, Note_on_c, 15, 70, 0
13, 202439, Note_on_c, 15, 52, 0
13, 202439, Note_on_c, 15, 67, 0
13, 202440, Note_on_c, 15, 69, 76
13, 202440, Note_on_c, 15, 65, 76
13, 202440, Note_on_c, 15, 62, 76
13, 202440, Note_on_c, 15, 50, 76
13, 202499, Note_on_c, 15, 69, 0
13, 202499, Note_on_c, 15, 65, 0
13, 202499, Note_on_c, 15, 62, 0
13, 202499, Note_on_c, 15, 50, 0
13, 202500, Note_on_c, 15, 60, 76
13, 202500, Note_on_c, 15, 64, 76
13, 202500, Note_on_c, 15, 48, 76
13, 202500, Note_on_c, 15, 67, 76
13, 202559, Note_on_c, 15, 60, 0
13, 202559, Note_on_c, 15, 64, 0
13, 202559, Note_on_c, 15, 48, 0
13, 202559, Note_on_c, 15, 67, 0
13, 202560, Note_on_c, 15, 47, 76
13, 202560, Note_on_c, 15, 62, 76
13, 202560, Note_on_c, 15, 67, 76
13, 202560, Note_on_c, 15, 59, 76
13, 202619, Note_on_c, 15, 47, 0
13, 202619, Note_on_c, 15, 62, 0
13, 202619, Note_on_c, 15, 67, 0
13, 202619, Note_on_c, 15, 59, 0
13, 202620, Note_on_c, 15, 45, 76
13, 202620, Note_on_c, 15, 60, 76
13, 202620, Note_on_c, 15, 57, 76
13, 202620, Note_on_c, 15, 64, 76
13, 202679, Note_on_c, 15, 45, 0
13, 202679, Note_on_c, 15, 60, 0
13, 202679, Note_on_c, 15, 57, 0
13, 202679, Note_on_c, 15, 64, 0
13, 202680, Note_on_c, 15, 59, 76
13, 202680, Note_on_c, 15, 62, 76
13, 202680, Note_on_c, 15, 43, 76
13, 202680, Note_on_c, 15, 55, 76
13, 202739, Note_on_c, 15, 59, 0
13, 202739, Note_on_c, 15, 62, 0
13, 202739, Note_on_c, 15, 43, 0
13, 202739, Note_on_c, 15, 55, 0
13, 202740, Note_on_c, 15, 64, 76
13, 202740, Note_on_c, 15, 60, 76
13, 202740, Note_on_c, 15, 57, 76
13, 202740, Note_on_c, 15, 45, 76
13, 202799, Note_on_c, 15, 64, 0
13, 202799, Note_on_c, 15, 60, 0
13, 202799, Note_on_c, 15, 57, 0
13, 202799, Note_on_c, 15, 45, 0
13, 202800, Note_on_c, 15, 59, 76
13, 202800, Note_on_c, 15, 62, 76
13, 202800, Note_on_c, 15, 65, 76
13, 202800, Note_on_c, 15, 47, 76
13, 202859, Note_on_c, 15, 59, 0
13, 202859, Note_on_c, 15, 62, 0
13, 202859, Note_on_c, 15, 65, 0
13, 202859, Note_on_c, 15, 47, 0
13, 202860, Note_on_c, 15, 57, 76
13, 202860, Note_on_c, 15, 45, 76
13, 202860, Note_on_c, 15, 64, 76
13, 202860, Note_on_c, 15, 60, 76
13, 202919, Note_on_c, 15, 57, 0
13, 202919, Note_on_c, 15, 45, 0
13, 202919, Note_on_c, 15, 64, 0
13, 202919, Note_on_c, 15, 60, 0
13, 202920, Note_on_c, 15, 47, 76
13, 202920, Note_on_c, 15, 62, 76
13, 202920, Note_on_c, 15, 65, 76
13, 202920, Note_on_c, 15, 59, 76
13, 202979, Note_on_c, 15, 47, 0
13, 202979, Note_on_c, 15, 62, 0
13, 202979, Note_on_c, 15, 65, 0
13, 202979, Note_on_c, 15, 59, 0
13, 202980, Note_on_c, 15, 62, 76
13, 202980, Note_on_c, 15, 43, 76
13, 202980, Note_on_c, 15, 55, 76
13, 202980, Note_on_c, 15, 59, 76
13, 203039, Note_on_c, 15, 62, 0
13, 203039, Note_on_c, 15, 43, 0
13, 203039, Note_on_c, 15, 55, 0
13, 203039, Note_on_c, 15, 59, 0
13, 203040, Note_on_c, 15, 48, 76
13, 203040, Note_on_c, 15, 60, 76
13, 203040, Note_on_c, 15, 67, 76
13, 203040, Note_on_c, 15, 64, 76
13, 203159, Note_on_c, 15, 48, 0
13, 203159, Note_on_c, 15, 60, 0
13, 203159, Note_on_c, 15, 67, 0
13, 203159, Note_on_c, 15, 64, 0
13, 203160, Note_on_c, 15, 72, 76
13, 203160, Note_on_c, 15, 53, 76
13, 203160, Note_on_c, 15, 65, 76
13, 203160, Note_on_c, 15, 69, 76
13, 203279, Note_on_c, 15, 72, 0
13, 203279, Note_on_c, 15, 53, 0
13, 203279, Note_on_c, 15, 65, 0
13, 203279, Note_on_c, 15, 69, 0
13, 203280, Note_on_c, 15, 55, 76
13, 203280, Note_on_c, 15, 71, 76
13, 203280, Note_on_c, 15, 74, 76
13, 203280, Note_on_c, 15, 67, 76
13, 203399, Note_on_c, 15, 55, 0
13, 203399, Note_on_c, 15, 71, 0
13, 203399, Note_on_c, 15, 74, 0
13, 203399, Note_on_c, 15, 67, 0
13, 203400, Note_on_c, 15, 55, 76
13, 203400, Note_on_c, 15, 43, 76
13, 203400, Note_on_c, 15, 62, 76
13, 203400, Note_on_c, 15, 59, 76
13, 203519, Note_on_c, 15, 55, 0
13, 203519, Note_on_c, 15, 43, 0
13, 203519, Note_on_c, 15, 62, 0
13, 203519, Note_on_c, 15, 59, 0
13, 203520, Note_on_c, 15, 52, 76
13, 203520, Note_on_c, 15, 48, 76
13, 203520, Note_on_c, 15, 55, 76
13, 203520, Note_on_c, 15, 36, 76
13, 204119, Note_on_c, 15, 52, 0
13, 204119, Note_on_c, 15, 48, 0
13, 204119, Note_on_c, 15, 55, 0
13, 204119, Note_on_c, 15, 36, 0
13, 204120, Note_on_c, 15, 60, 76
13, 204120, Note_on_c, 15, 67, 76
13, 204120, Note_on_c, 15, 64, 76
13, 204120, Note_on_c, 15, 48, 76
13, 204179, Note_on_c, 15, 60, 0
13, 204179, Note_on_c, 15, 67, 0
13, 204179, Note_on_c, 15, 64, 0
13, 204179, Note_on_c, 15, 48, 0
13, 204180, Note_on_c, 15, 62, 76
13, 204180, Note_on_c, 15, 65, 76
13, 204180, Note_on_c, 15, 50, 76
13, 204180, Note_on_c, 15, 69, 76
13, 204239, Note_on_c, 15, 62, 0
13, 204239, Note_on_c, 15, 65, 0
13, 204239, Note_on_c, 15, 50, 0
13, 204239, Note_on_c, 15, 69, 0
13, 204240, Note_on_c, 15, 67, 76
13, 204240, Note_on_c, 15, 71, 76
13, 204240, Note_on_c, 15, 64, 76
13, 204240, Note_on_c, 15, 52, 76
13, 204299, Note_on_c, 15, 67, 0
13, 204299, Note_on_c, 15, 71, 0
13, 204299, Note_on_c, 15, 64, 0
13, 204299, Note_on_c, 15, 52, 0
13, 204300, Note_on_c, 15, 62, 76
13, 204300, Note_on_c, 15, 65, 76
13, 204300, Note_on_c, 15, 69, 76
13, 204300, Note_on_c, 15, 50, 76
13, 204359, Note_on_c, 15, 62, 0
13, 204359, Note_on_c, 15, 65, 0
13, 204359, Note_on_c, 15, 69, 0
13, 204359, Note_on_c, 15, 50, 0
13, 204360, Note_on_c, 15, 52, 76
13, 204360, Note_on_c, 15, 64, 76
13, 204360, Note_on_c, 15, 67, 76
13, 204360, Note_on_c, 15, 71, 76
13, 204419, Note_on_c, 15, 52, 0
13, 204419, Note_on_c, 15, 64, 0
13, 204419, Note_on_c, 15, 67, 0
13, 204419, Note_on_c, 15, 71, 0
13, 204420, Note_on_c, 15, 53, 76
13, 204420, Note_on_c, 15, 72, 76
13, 204420, Note_on_c, 15, 69, 76
13, 204420, Note_on_c, 15, 65, 76
13, 204479, Note_on_c, 15, 53, 0
13, 204479, Note_on_c, 15, 72, 0
13, 204479, Note_on_c, 15, 69, 0
13, 204479, Note_on_c, 15, 65, 0
13, 204480, Note_on_c, 15, 55, 76
13, 204480, Note_on_c, 15, 67, 76
13, 204480, Note_on_c, 15, 70, 76
13, 204480, Note_on_c, 15, 74, 76
13, 204779, Note_on_c, 15, 55, 0
13, 204779, Note_on_c, 15, 67, 0
13, 204779, Note_on_c, 15, 70, 0
13, 204779, Note_on_c, 15, 74, 0
13, 204780, Note_on_c, 15, 67, 76
13, 204780, Note_on_c, 15, 70, 76
13, 204780, Note_on_c, 15, 55, 76
13, 204780, Note_on_c, 15, 74, 76
13, 204839, Note_on_c, 15, 67, 0
13, 204839, Note_on_c, 15, 70, 0
13, 204839, Note_on_c, 15, 55, 0
13, 204839, Note_on_c, 15, 74, 0
13, 204840, Note_on_c, 15, 57, 76
13, 204840, Note_on_c, 15, 72, 76
13, 204840, Note_on_c, 15, 76, 76
13, 204840, Note_on_c, 15, 69, 76
13, 204899, Note_on_c, 15, 57, 0
13, 204899, Note_on_c, 15, 72, 0
13, 204899, Note_on_c, 15, 76, 0
13, 204899, Note_on_c, 15, 69, 0
13, 204900, Note_on_c, 15, 74, 76
13, 204900, Note_on_c, 15, 77, 76
13, 204900, Note_on_c, 15, 70, 76
13, 204900, Note_on_c, 15, 58, 76
13, 204959, Note_on_c, 15, 74, 0
13, 204959, Note_on_c, 15, 77, 0
13, 204959, Note_on_c, 15, 70, 0
13, 204959, Note_on_c, 15, 58, 0
13, 204960, Note_on_c, 15, 79, 76
13, 204960, Note_on_c, 15, 76, 76
13, 204960, Note_on_c, 15, 72, 76
13, 204960, Note_on_c, 15, 60, 76
13, 205019, Note_on_c, 15, 79, 0
13, 205019, Note_on_c, 15, 76, 0
13, 205019, Note_on_c, 15, 72, 0
13, 205019, Note_on_c, 15, 60, 0
13, 205020, Note_on_c, 15, 74, 76
13, 205020, Note_on_c, 15, 77, 76
13, 205020, Note_on_c, 15, 70, 76
13, 205020, Note_on_c, 15, 58, 76
13, 205079, Note_on_c, 15, 74, 0
13, 205079, Note_on_c, 15, 77, 0
13, 205079, Note_on_c, 15, 70, 0
13, 205079, Note_on_c, 15, 58, 0
13, 205080, Note_on_c, 15, 76, 76
13, 205080, Note_on_c, 15, 72, 76
13, 205080, Note_on_c, 15, 69, 76
13, 205080, Note_on_c, 15, 57, 76
13, 205139, Note_on_c, 15, 76, 0
13, 205139, Note_on_c, 15, 72, 0
13, 205139, Note_on_c, 15, 69, 0
13, 205139, Note_on_c, 15, 57, 0
13, 205140, Note_on_c, 15, 70, 76
13, 205140, Note_on_c, 15, 74, 76
13, 205140, Note_on_c, 15, 58, 76
13, 205140, Note_on_c, 15, 77, 76
13, 205199, Note_on_c, 15, 70, 0
13, 205199, Note_on_c, 15, 74, 0
13, 205199, Note_on_c, 15, 58, 0
13, 205199, Note_on_c, 15, 77, 0
13, 205200, Note_on_c, 15, 79, 76
13, 205200, Note_on_c, 15, 72, 76
13, 205200, Note_on_c, 15, 76, 76
13, 205200, Note_on_c, 15, 60, 76
13, 205259, Note_on_c, 15, 79, 0
13, 205259, Note_on_c, 15, 72, 0
13, 205259, Note_on_c, 15, 76, 0
13, 205259, Note_on_c, 15, 60, 0
13, 205260, Note_on_c, 15, 57, 76
13, 205260, Note_on_c, 15, 72, 76
13, 205260, Note_on_c, 15, 76, 76
13, 205260, Note_on_c, 15, 69, 76
13, 205319, Note_on_c, 15, 57, 0
13, 205319, Note_on_c, 15, 72, 0
13, 205319, Note_on_c, 15, 76, 0
13, 205319, Note_on_c, 15, 69, 0
13, 205320, Note_on_c, 15, 70, 76
13, 205320, Note_on_c, 15, 74, 76
13, 205320, Note_on_c, 15, 58, 76
13, 205320, Note_on_c, 15, 77, 76
13, 205379, Note_on_c, 15, 70, 0
13, 205379, Note_on_c, 15, 74, 0
13, 205379, Note_on_c, 15, 58, 0
13, 205379, Note_on_c, 15, 77, 0
13, 205380, Note_on_c, 15, 60, 76
13, 205380, Note_on_c, 15, 76, 76
13, 205380, Note_on_c, 15, 72, 76
13, 205380, Note_on_c, 15, 79, 76
13, 205439, Note_on_c, 15, 60, 0
13, 205439, Note_on_c, 15, 76, 0
13, 205439, Note_on_c, 15, 72, 0
13, 205439, Note_on_c, 15, 79, 0
13, 205440, Note_on_c, 15, 65, 76
13, 205440, Note_on_c, 15, 53, 76
13, 205440, Note_on_c, 15, 72, 76
13, 205440, Note_on_c, 15, 69, 76
13, 205619, Note_on_c, 15, 65, 0
13, 205619, Note_on_c, 15, 53, 0
13, 205619, Note_on_c, 15, 72, 0
13, 205619, Note_on_c, 15, 69, 0
13, 205620, Note_on_c, 15, 65, 76
13, 205620, Note_on_c, 15, 62, 76
13, 205620, Note_on_c, 15, 69, 76
13, 205620, Note_on_c, 15, 50, 76
13, 205649, Note_on_c, 15, 65, 0
13, 205649, Note_on_c, 15, 62, 0
13, 205649, Note_on_c, 15, 69, 0
13, 205649, Note_on_c, 15, 50, 0
13, 205650, Note_on_c, 15, 67, 76
13, 205650, Note_on_c, 15, 71, 76
13, 205650, Note_on_c, 15, 64, 76
13, 205650, Note_on_c, 15, 52, 76
13, 205679, Note_on_c, 15, 67, 0
13, 205679, Note_on_c, 15, 71, 0
13, 205679, Note_on_c, 15, 64, 0
13, 205679, Note_on_c, 15, 52, 0
13, 205680, Note_on_c, 15, 53, 76
13, 205680, Note_on_c, 15, 72, 76
13, 205680, Note_on_c, 15, 69, 76
13, 205680, Note_on_c, 15, 65, 76
13, 205859, Note_on_c, 15, 53, 0
13, 205859, Note_on_c, 15, 72, 0
13, 205859, Note_on_c, 15, 69, 0
13, 205859, Note_on_c, 15, 65, 0
13, 205860, Note_on_c, 15, 67, 76
13, 205860, Note_on_c, 15, 74, 76
13, 205860, Note_on_c, 15, 55, 76
13, 205860, Note_on_c, 15, 71, 76
13, 205889, Note_on_c, 15, 67, 0
13, 205889, Note_on_c, 15, 74, 0
13, 205889, Note_on_c, 15, 55, 0
13, 205889, Note_on_c, 15, 71, 0
13, 205890, Note_on_c, 15, 69, 76
13, 205890, Note_on_c, 15, 76, 76
13, 205890, Note_on_c, 15, 72, 76
13, 205890, Note_on_c, 15, 57, 76
13, 205919, Note_on_c, 15, 69, 0
13, 205919, Note_on_c, 15, 76, 0
13, 205919, Note_on_c, 15, 72, 0
13, 205919, Note_on_c, 15, 57, 0
13, 205920, Note_on_c, 15, 74, 76
13, 205920, Note_on_c, 15, 58, 76
13, 205920, Note_on_c, 15, 70, 76
13, 206279, Note_on_c, 15, 74, 0
13, 206279, Note_on_c, 15, 58, 0
13, 206279, Note_on_c, 15, 70, 0
13, 206280, Note_on_c, 15, 74, 76
13, 206280, Note_on_c, 15, 58, 76
13, 206280, Note_on_c, 15, 70, 76
13, 206399, Note_on_c, 15, 74, 0
13, 206399, Note_on_c, 15, 58, 0
13, 206399, Note_on_c, 15, 70, 0
13, 206400, Note_on_c, 15, 58, 76
13, 206400, Note_on_c, 15, 74, 76
13, 206400, Note_on_c, 15, 70, 76
13, 206400, Note_on_c, 15, 79, 76
13, 206459, Note_on_c, 15, 58, 0
13, 206459, Note_on_c, 15, 74, 0
13, 206459, Note_on_c, 15, 70, 0
13, 206459, Note_on_c, 15, 79, 0
13, 206460, Note_on_c, 15, 79, 76
13, 206460, Note_on_c, 15, 76, 76
13, 206460, Note_on_c, 15, 72, 76
13, 206460, Note_on_c, 15, 60, 76
13, 206519, Note_on_c, 15, 79, 0
13, 206519, Note_on_c, 15, 76, 0
13, 206519, Note_on_c, 15, 72, 0
13, 206519, Note_on_c, 15, 60, 0
13, 206520, Note_on_c, 15, 79, 76
13, 206520, Note_on_c, 15, 74, 76
13, 206520, Note_on_c, 15, 70, 76
13, 206520, Note_on_c, 15, 58, 76
13, 206579, Note_on_c, 15, 79, 0
13, 206579, Note_on_c, 15, 74, 0
13, 206579, Note_on_c, 15, 70, 0
13, 206579, Note_on_c, 15, 58, 0
13, 206580, Note_on_c, 15, 69, 76
13, 206580, Note_on_c, 15, 57, 76
13, 206580, Note_on_c, 15, 72, 76
13, 206580, Note_on_c, 15, 76, 76
13, 206639, Note_on_c, 15, 69, 0
13, 206639, Note_on_c, 15, 57, 0
13, 206639, Note_on_c, 15, 72, 0
13, 206639, Note_on_c, 15, 76, 0
13, 206640, Note_on_c, 15, 74, 76
13, 206640, Note_on_c, 15, 70, 76
13, 206640, Note_on_c, 15, 79, 76
13, 206640, Note_on_c, 15, 58, 76
13, 206699, Note_on_c, 15, 74, 0
13, 206699, Note_on_c, 15, 70, 0
13, 206699, Note_on_c, 15, 79, 0
13, 206699, Note_on_c, 15, 58, 0
13, 206700, Note_on_c, 15, 74, 76
13, 206700, Note_on_c, 15, 67, 76
13, 206700, Note_on_c, 15, 55, 76
13, 206700, Note_on_c, 15, 71, 76
13, 206759, Note_on_c, 15, 74, 0
13, 206759, Note_on_c, 15, 67, 0
13, 206759, Note_on_c, 15, 55, 0
13, 206759, Note_on_c, 15, 71, 0
13, 206760, Note_on_c, 15, 69, 76
13, 206760, Note_on_c, 15, 57, 76
13, 206760, Note_on_c, 15, 76, 76
13, 206760, Note_on_c, 15, 72, 76
13, 206819, Note_on_c, 15, 69, 0
13, 206819, Note_on_c, 15, 57, 0
13, 206819, Note_on_c, 15, 76, 0
13, 206819, Note_on_c, 15, 72, 0
13, 206820, Note_on_c, 15, 58, 76
13, 206820, Note_on_c, 15, 79, 76
13, 206820, Note_on_c, 15, 70, 76
13, 206820, Note_on_c, 15, 74, 76
13, 206879, Note_on_c, 15, 58, 0
13, 206879, Note_on_c, 15, 79, 0
13, 206879, Note_on_c, 15, 70, 0
13, 206879, Note_on_c, 15, 74, 0
13, 206880, Note_on_c, 15, 69, 76
13, 206880, Note_on_c, 15, 57, 76
13, 206880, Note_on_c, 15, 79, 76
13, 206880, Note_on_c, 15, 76, 76
13, 206880, Note_on_c, 15, 73, 76
13, 207119, Note_on_c, 15, 69, 0
13, 207119, Note_on_c, 15, 57, 0
13, 207119, Note_on_c, 15, 79, 0
13, 207119, Note_on_c, 15, 76, 0
13, 207119, Note_on_c, 15, 73, 0
13, 207120, Note_on_c, 15, 61, 76
13, 207120, Note_on_c, 15, 45, 76
13, 207120, Note_on_c, 15, 64, 76
13, 207120, Note_on_c, 15, 57, 76
13, 207359, Note_on_c, 15, 61, 0
13, 207359, Note_on_c, 15, 45, 0
13, 207359, Note_on_c, 15, 64, 0
13, 207359, Note_on_c, 15, 57, 0
13, 207360, Note_on_c, 15, 69, 76
13, 207360, Note_on_c, 15, 62, 76
13, 207360, Note_on_c, 15, 50, 76
13, 207360, Note_on_c, 15, 65, 76
13, 207689, Note_on_c, 15, 69, 0
13, 207689, Note_on_c, 15, 62, 0
13, 207689, Note_on_c, 15, 50, 0
13, 207689, Note_on_c, 15, 65, 0
13, 207690, Note_on_c, 15, 52, 76
13, 207690, Note_on_c, 15, 67, 76
13, 207690, Note_on_c, 15, 71, 76
13, 207690, Note_on_c, 15, 64, 76
13, 207719, Note_on_c, 15, 52, 0
13, 207719, Note_on_c, 15, 67, 0
13, 207719, Note_on_c, 15, 71, 0
13, 207719, Note_on_c, 15, 64, 0
13, 207720, Note_on_c, 15, 69, 76
13, 207720, Note_on_c, 15, 53, 76
13, 207720, Note_on_c, 15, 65, 76
13, 207720, Note_on_c, 15, 72, 76
13, 207749, Note_on_c, 15, 69, 0
13, 207749, Note_on_c, 15, 53, 0
13, 207749, Note_on_c, 15, 65, 0
13, 207749, Note_on_c, 15, 72, 0
13, 207750, Note_on_c, 15, 55, 76
13, 207750, Note_on_c, 15, 71, 76
13, 207750, Note_on_c, 15, 74, 76
13, 207750, Note_on_c, 15, 67, 76
13, 207779, Note_on_c, 15, 55, 0
13, 207779, Note_on_c, 15, 71, 0
13, 207779, Note_on_c, 15, 74, 0
13, 207779, Note_on_c, 15, 67, 0
13, 207780, Note_on_c, 15, 57, 76
13, 207780, Note_on_c, 15, 72, 76
13, 207780, Note_on_c, 15, 76, 76
13, 207780, Note_on_c, 15, 69, 76
13, 207809, Note_on_c, 15, 57, 0
13, 207809, Note_on_c, 15, 72, 0
13, 207809, Note_on_c, 15, 76, 0
13, 207809, Note_on_c, 15, 69, 0
13, 207810, Note_on_c, 15, 74, 76
13, 207810, Note_on_c, 15, 77, 76
13, 207810, Note_on_c, 15, 71, 76
13, 207810, Note_on_c, 15, 59, 76
13, 207839, Note_on_c, 15, 74, 0
13, 207839, Note_on_c, 15, 77, 0
13, 207839, Note_on_c, 15, 71, 0
13, 207839, Note_on_c, 15, 59, 0
13, 207840, Note_on_c, 15, 81, 76
13, 207840, Note_on_c, 15, 78, 76
13, 207840, Note_on_c, 15, 74, 76
13, 207840, Note_on_c, 15, 72, 76
13, 207840, Note_on_c, 15, 60, 76
13, 207899, Note_on_c, 15, 81, 0
13, 207899, Note_on_c, 15, 78, 0
13, 207899, Note_on_c, 15, 74, 0
13, 207899, Note_on_c, 15, 72, 0
13, 207899, Note_on_c, 15, 60, 0
13, 207900, Note_on_c, 15, 78, 76
13, 207900, Note_on_c, 15, 71, 76
13, 207900, Note_on_c, 15, 59, 76
13, 207900, Note_on_c, 15, 74, 76
13, 207959, Note_on_c, 15, 78, 0
13, 207959, Note_on_c, 15, 71, 0
13, 207959, Note_on_c, 15, 59, 0
13, 207959, Note_on_c, 15, 74, 0
13, 207960, Note_on_c, 15, 60, 76
13, 207960, Note_on_c, 15, 72, 76
13, 207960, Note_on_c, 15, 76, 76
13, 207960, Note_on_c, 15, 79, 76
13, 208019, Note_on_c, 15, 60, 0
13, 208019, Note_on_c, 15, 72, 0
13, 208019, Note_on_c, 15, 76, 0
13, 208019, Note_on_c, 15, 79, 0
13, 208020, Note_on_c, 15, 76, 76
13, 208020, Note_on_c, 15, 79, 76
13, 208020, Note_on_c, 15, 64, 76
13, 208020, Note_on_c, 15, 83, 76
13, 208079, Note_on_c, 15, 76, 0
13, 208079, Note_on_c, 15, 79, 0
13, 208079, Note_on_c, 15, 64, 0
13, 208079, Note_on_c, 15, 83, 0
13, 208080, Note_on_c, 15, 74, 76
13, 208080, Note_on_c, 15, 81, 76
13, 208080, Note_on_c, 15, 62, 76
13, 208080, Note_on_c, 15, 78, 76
13, 208139, Note_on_c, 15, 74, 0
13, 208139, Note_on_c, 15, 81, 0
13, 208139, Note_on_c, 15, 62, 0
13, 208139, Note_on_c, 15, 78, 0
13, 208140, Note_on_c, 15, 72, 76
13, 208140, Note_on_c, 15, 60, 76
13, 208140, Note_on_c, 15, 79, 76
13, 208140, Note_on_c, 15, 76, 76
13, 208199, Note_on_c, 15, 72, 0
13, 208199, Note_on_c, 15, 60, 0
13, 208199, Note_on_c, 15, 79, 0
13, 208199, Note_on_c, 15, 76, 0
13, 208200, Note_on_c, 15, 78, 76
13, 208200, Note_on_c, 15, 59, 76
13, 208200, Note_on_c, 15, 71, 76
13, 208200, Note_on_c, 15, 74, 76
13, 208259, Note_on_c, 15, 78, 0
13, 208259, Note_on_c, 15, 59, 0
13, 208259, Note_on_c, 15, 71, 0
13, 208259, Note_on_c, 15, 74, 0
13, 208260, Note_on_c, 15, 76, 76
13, 208260, Note_on_c, 15, 72, 76
13, 208260, Note_on_c, 15, 79, 76
13, 208260, Note_on_c, 15, 60, 76
13, 208319, Note_on_c, 15, 76, 0
13, 208319, Note_on_c, 15, 72, 0
13, 208319, Note_on_c, 15, 79, 0
13, 208319, Note_on_c, 15, 60, 0
13, 208320, Note_on_c, 15, 74, 76
13, 208320, Note_on_c, 15, 59, 76
13, 208320, Note_on_c, 15, 71, 76
13, 208320, Note_on_c, 15, 79, 76
13, 208499, Note_on_c, 15, 74, 0
13, 208499, Note_on_c, 15, 59, 0
13, 208499, Note_on_c, 15, 71, 0
13, 208499, Note_on_c, 15, 79, 0
13, 208500, Note_on_c, 15, 72, 76
13, 208500, Note_on_c, 15, 57, 76
13, 208500, Note_on_c, 15, 76, 76
13, 208500, Note_on_c, 15, 69, 76
13, 208559, Note_on_c, 15, 72, 0
13, 208559, Note_on_c, 15, 57, 0
13, 208559, Note_on_c, 15, 76, 0
13, 208559, Note_on_c, 15, 69, 0
13, 208560, Note_on_c, 15, 79, 76
13, 208560, Note_on_c, 15, 59, 76
13, 208560, Note_on_c, 15, 74, 76
13, 208560, Note_on_c, 15, 71, 76
13, 208739, Note_on_c, 15, 79, 0
13, 208739, Note_on_c, 15, 59, 0
13, 208739, Note_on_c, 15, 74, 0
13, 208739, Note_on_c, 15, 71, 0
13, 208740, Note_on_c, 15, 71, 76
13, 208740, Note_on_c, 15, 67, 76
13, 208740, Note_on_c, 15, 55, 76
13, 208740, Note_on_c, 15, 74, 76
13, 208799, Note_on_c, 15, 71, 0
13, 208799, Note_on_c, 15, 67, 0
13, 208799, Note_on_c, 15, 55, 0
13, 208799, Note_on_c, 15, 74, 0
13, 208800, Note_on_c, 15, 64, 76
13, 208800, Note_on_c, 15, 76, 76
13, 208800, Note_on_c, 15, 84, 76
13, 208800, Note_on_c, 15, 79, 76
13, 209159, Note_on_c, 15, 64, 0
13, 209159, Note_on_c, 15, 76, 0
13, 209159, Note_on_c, 15, 84, 0
13, 209159, Note_on_c, 15, 79, 0
13, 209160, Note_on_c, 15, 76, 76
13, 209160, Note_on_c, 15, 64, 76
13, 209160, Note_on_c, 15, 79, 76
13, 209160, Note_on_c, 15, 83, 76
13, 209279, Note_on_c, 15, 76, 0
13, 209279, Note_on_c, 15, 64, 0
13, 209279, Note_on_c, 15, 79, 0
13, 209279, Note_on_c, 15, 83, 0
13, 209280, Note_on_c, 15, 64, 76
13, 209280, Note_on_c, 15, 77, 76
13, 209280, Note_on_c, 15, 81, 76
13, 209280, Note_on_c, 15, 76, 76
13, 209280, Note_on_c, 15, 84, 76
13, 209459, Note_on_c, 15, 64, 0
13, 209459, Note_on_c, 15, 77, 0
13, 209459, Note_on_c, 15, 81, 0
13, 209459, Note_on_c, 15, 76, 0
13, 209459, Note_on_c, 15, 84, 0
13, 209460, Note_on_c, 15, 84, 76
13, 209460, Note_on_c, 15, 77, 76
13, 209460, Note_on_c, 15, 81, 76
13, 209460, Note_on_c, 15, 65, 76
13, 209489, Note_on_c, 15, 84, 0
13, 209489, Note_on_c, 15, 77, 0
13, 209489, Note_on_c, 15, 81, 0
13, 209489, Note_on_c, 15, 65, 0
13, 209490, Note_on_c, 15, 64, 76
13, 209490, Note_on_c, 15, 84, 76
13, 209490, Note_on_c, 15, 81, 76
13, 209490, Note_on_c, 15, 76, 76
13, 209490, Note_on_c, 15, 77, 76
13, 209519, Note_on_c, 15, 64, 0
13, 209519, Note_on_c, 15, 84, 0
13, 209519, Note_on_c, 15, 81, 0
13, 209519, Note_on_c, 15, 76, 0
13, 209519, Note_on_c, 15, 77, 0
13, 209520, Note_on_c, 15, 74, 76
13, 209520, Note_on_c, 15, 62, 76
13, 209520, Note_on_c, 15, 77, 76
13, 209699, Note_on_c, 15, 74, 0
13, 209699, Note_on_c, 15, 62, 0
13, 209699, Note_on_c, 15, 77, 0
13, 209700, Note_on_c, 15, 64, 76
13, 209700, Note_on_c, 15, 76, 76
13, 209700, Note_on_c, 15, 79, 76
13, 209700, Note_on_c, 15, 83, 76
13, 209729, Note_on_c, 15, 64, 0
13, 209729, Note_on_c, 15, 76, 0
13, 209729, Note_on_c, 15, 79, 0
13, 209729, Note_on_c, 15, 83, 0
13, 209730, Note_on_c, 15, 72, 76
13, 209730, Note_on_c, 15, 79, 76
13, 209730, Note_on_c, 15, 76, 76
13, 209730, Note_on_c, 15, 60, 76
13, 209759, Note_on_c, 15, 72, 0
13, 209759, Note_on_c, 15, 79, 0
13, 209759, Note_on_c, 15, 76, 0
13, 209759, Note_on_c, 15, 60, 0
13, 209760, Note_on_c, 15, 74, 76
13, 209760, Note_on_c, 15, 77, 76
13, 209760, Note_on_c, 15, 81, 76
13, 209760, Note_on_c, 15, 62, 76
13, 210119, Note_on_c, 15, 74, 0
13, 210119, Note_on_c, 15, 77, 0
13, 210119, Note_on_c, 15, 81, 0
13, 210119, Note_on_c, 15, 62, 0
13, 210120, Note_on_c, 15, 81, 76
13, 210120, Note_on_c, 15, 62, 76
13, 210120, Note_on_c, 15, 74, 76
13, 210120, Note_on_c, 15, 77, 76
13, 210239, Note_on_c, 15, 81, 0
13, 210239, Note_on_c, 15, 62, 0
13, 210239, Note_on_c, 15, 74, 0
13, 210239, Note_on_c, 15, 77, 0
13, 210240, Note_on_c, 15, 62, 76
13, 210240, Note_on_c, 15, 83, 76
13, 210240, Note_on_c, 15, 74, 76
13, 210240, Note_on_c, 15, 77, 76
13, 210479, Note_on_c, 15, 83, 0
13, 210479, Note_on_c, 15, 74, 0
13, 210479, Note_on_c, 15, 77, 0
13, 210480, Note_on_c, 15, 77, 76
13, 210480, Note_on_c, 15, 81, 76
13, 210480, Note_on_c, 15, 74, 76
13, 210539, Note_on_c, 15, 62, 0
13, 210539, Note_on_c, 15, 77, 0
13, 210539, Note_on_c, 15, 81, 0
13, 210539, Note_on_c, 15, 74, 0
13, 210540, Note_on_c, 15, 79, 76
13, 210540, Note_on_c, 15, 72, 76
13, 210540, Note_on_c, 15, 60, 76
13, 210540, Note_on_c, 15, 76, 76
13, 210599, Note_on_c, 15, 79, 0
13, 210599, Note_on_c, 15, 72, 0
13, 210599, Note_on_c, 15, 60, 0
13, 210599, Note_on_c, 15, 76, 0
13, 210600, Note_on_c, 15, 71, 76
13, 210600, Note_on_c, 15, 74, 76
13, 210600, Note_on_c, 15, 77, 76
13, 210600, Note_on_c, 15, 59, 76
13, 210659, Note_on_c, 15, 71, 0
13, 210659, Note_on_c, 15, 74, 0
13, 210659, Note_on_c, 15, 77, 0
13, 210659, Note_on_c, 15, 59, 0
13, 210660, Note_on_c, 15, 72, 76
13, 210660, Note_on_c, 15, 60, 76
13, 210660, Note_on_c, 15, 79, 76
13, 210660, Note_on_c, 15, 76, 76
13, 210719, Note_on_c, 15, 72, 0
13, 210719, Note_on_c, 15, 60, 0
13, 210719, Note_on_c, 15, 79, 0
13, 210719, Note_on_c, 15, 76, 0
13, 210720, Note_on_c, 15, 74, 76
13, 210720, Note_on_c, 15, 62, 76
13, 210720, Note_on_c, 15, 81, 76
13, 210720, Note_on_c, 15, 77, 76
13, 210779, Note_on_c, 15, 74, 0
13, 210779, Note_on_c, 15, 62, 0
13, 210779, Note_on_c, 15, 81, 0
13, 210779, Note_on_c, 15, 77, 0
13, 210780, Note_on_c, 15, 60, 76
13, 210780, Note_on_c, 15, 79, 76
13, 210780, Note_on_c, 15, 76, 76
13, 210780, Note_on_c, 15, 72, 76
13, 210839, Note_on_c, 15, 60, 0
13, 210839, Note_on_c, 15, 79, 0
13, 210839, Note_on_c, 15, 76, 0
13, 210839, Note_on_c, 15, 72, 0
13, 210840, Note_on_c, 15, 74, 76
13, 210840, Note_on_c, 15, 62, 76
13, 210840, Note_on_c, 15, 77, 76
13, 210840, Note_on_c, 15, 81, 76
13, 210899, Note_on_c, 15, 74, 0
13, 210899, Note_on_c, 15, 62, 0
13, 210899, Note_on_c, 15, 77, 0
13, 210899, Note_on_c, 15, 81, 0
13, 210900, Note_on_c, 15, 81, 76
13, 210900, Note_on_c, 15, 65, 76
13, 210900, Note_on_c, 15, 77, 76
13, 210900, Note_on_c, 15, 84, 76
13, 210959, Note_on_c, 15, 81, 0
13, 210959, Note_on_c, 15, 65, 0
13, 210959, Note_on_c, 15, 77, 0
13, 210959, Note_on_c, 15, 84, 0
13, 210960, Note_on_c, 15, 84, 76
13, 210960, Note_on_c, 15, 76, 76
13, 210960, Note_on_c, 15, 79, 76
13, 210960, Note_on_c, 15, 64, 76
13, 211019, Note_on_c, 15, 84, 0
13, 211019, Note_on_c, 15, 76, 0
13, 211019, Note_on_c, 15, 79, 0
13, 211019, Note_on_c, 15, 64, 0
13, 211020, Note_on_c, 15, 81, 76
13, 211020, Note_on_c, 15, 74, 76
13, 211020, Note_on_c, 15, 62, 76
13, 211020, Note_on_c, 15, 77, 76
13, 211079, Note_on_c, 15, 81, 0
13, 211079, Note_on_c, 15, 74, 0
13, 211079, Note_on_c, 15, 62, 0
13, 211079, Note_on_c, 15, 77, 0
13, 211080, Note_on_c, 15, 72, 76
13, 211080, Note_on_c, 15, 79, 76
13, 211080, Note_on_c, 15, 76, 76
13, 211080, Note_on_c, 15, 60, 76
13, 211139, Note_on_c, 15, 72, 0
13, 211139, Note_on_c, 15, 79, 0
13, 211139, Note_on_c, 15, 76, 0
13, 211139, Note_on_c, 15, 60, 0
13, 211140, Note_on_c, 15, 62, 76
13, 211140, Note_on_c, 15, 81, 76
13, 211140, Note_on_c, 15, 74, 76
13, 211140, Note_on_c, 15, 77, 76
13, 211199, Note_on_c, 15, 62, 0
13, 211199, Note_on_c, 15, 81, 0
13, 211199, Note_on_c, 15, 74, 0
13, 211199, Note_on_c, 15, 77, 0
13, 211200, Note_on_c, 15, 74, 76
13, 211200, Note_on_c, 15, 59, 76
13, 211200, Note_on_c, 15, 79, 76
13, 211200, Note_on_c, 15, 71, 76
13, 211680, Note_on_c, 15, 77, 76
13, 211739, Note_on_c, 15, 74, 0
13, 211739, Note_on_c, 15, 59, 0
13, 211739, Note_on_c, 15, 79, 0
13, 211739, Note_on_c, 15, 71, 0
13, 211739, Note_on_c, 15, 77, 0
13, 211740, Note_on_c, 15, 72, 76
13, 211740, Note_on_c, 15, 60, 76
13, 211740, Note_on_c, 15, 79, 76
13, 211740, Note_on_c, 15, 76, 76
13, 211799, Note_on_c, 15, 72, 0
13, 211799, Note_on_c, 15, 60, 0
13, 211799, Note_on_c, 15, 79, 0
13, 211799, Note_on_c, 15, 76, 0
13, 211800, Note_on_c, 15, 59, 76
13, 211800, Note_on_c, 15, 77, 76
13, 211800, Note_on_c, 15, 74, 76
13, 211800, Note_on_c, 15, 71, 76
13, 211859, Note_on_c, 15, 59, 0
13, 211859, Note_on_c, 15, 77, 0
13, 211859, Note_on_c, 15, 74, 0
13, 211859, Note_on_c, 15, 71, 0
13, 211860, Note_on_c, 15, 76, 76
13, 211860, Note_on_c, 15, 72, 76
13, 211860, Note_on_c, 15, 69, 76
13, 211860, Note_on_c, 15, 57, 76
13, 211919, Note_on_c, 15, 76, 0
13, 211919, Note_on_c, 15, 72, 0
13, 211919, Note_on_c, 15, 69, 0
13, 211919, Note_on_c, 15, 57, 0
13, 211920, Note_on_c, 15, 74, 76
13, 211920, Note_on_c, 15, 77, 76
13, 211920, Note_on_c, 15, 71, 76
13, 211920, Note_on_c, 15, 55, 76
13, 211920, Note_on_c, 15, 67, 76
13, 211979, Note_on_c, 15, 74, 0
13, 211979, Note_on_c, 15, 77, 0
13, 211979, Note_on_c, 15, 71, 0
13, 211979, Note_on_c, 15, 55, 0
13, 211979, Note_on_c, 15, 67, 0
13, 211980, Note_on_c, 15, 74, 76
13, 211980, Note_on_c, 15, 65, 76
13, 211980, Note_on_c, 15, 53, 76
13, 211980, Note_on_c, 15, 71, 76
13, 211980, Note_on_c, 15, 77, 76
13, 212039, Note_on_c, 15, 74, 0
13, 212039, Note_on_c, 15, 65, 0
13, 212039, Note_on_c, 15, 53, 0
13, 212039, Note_on_c, 15, 71, 0
13, 212039, Note_on_c, 15, 77, 0
13, 212040, Note_on_c, 15, 71, 76
13, 212040, Note_on_c, 15, 64, 76
13, 212040, Note_on_c, 15, 74, 76
13, 212040, Note_on_c, 15, 52, 76
13, 212040, Note_on_c, 15, 77, 76
13, 212099, Note_on_c, 15, 71, 0
13, 212099, Note_on_c, 15, 64, 0
13, 212099, Note_on_c, 15, 74, 0
13, 212099, Note_on_c, 15, 52, 0
13, 212099, Note_on_c, 15, 77, 0
13, 212100, Note_on_c, 15, 74, 76
13, 212100, Note_on_c, 15, 50, 76
13, 212100, Note_on_c, 15, 77, 76
13, 212100, Note_on_c, 15, 71, 76
13, 212100, Note_on_c, 15, 62, 76
13, 212159, Note_on_c, 15, 74, 0
13, 212159, Note_on_c, 15, 50, 0
13, 212159, Note_on_c, 15, 77, 0
13, 212159, Note_on_c, 15, 71, 0
13, 212159, Note_on_c, 15, 62, 0
13, 212160, Note_on_c, 15, 71, 76
13, 212160, Note_on_c, 15, 62, 76
13, 212160, Note_on_c, 15, 60, 76
13, 212160, Note_on_c, 15, 65, 76
13, 212160, Note_on_c, 15, 48, 76
13, 212399, Note_on_c, 15, 71, 0
13, 212399, Note_on_c, 15, 62, 0
13, 212399, Note_on_c, 15, 65, 0
13, 212400, Note_on_c, 15, 72, 76
13, 212400, Note_on_c, 15, 64, 76
13, 212400, Note_on_c, 15, 67, 76
13, 212639, Note_on_c, 15, 72, 0
13, 212640, Note_on_c, 15, 70, 76
13, 212699, Note_on_c, 15, 60, 0
13, 212699, Note_on_c, 15, 48, 0
13, 212699, Note_on_c, 15, 64, 0
13, 212699, Note_on_c, 15, 67, 0
13, 212699, Note_on_c, 15, 70, 0
13, 212700, Note_on_c, 15, 65, 76
13, 212700, Note_on_c, 15, 46, 76
13, 212700, Note_on_c, 15, 58, 76
13, 212700, Note_on_c, 15, 62, 76
13, 212759, Note_on_c, 15, 65, 0
13, 212759, Note_on_c, 15, 46, 0
13, 212759, Note_on_c, 15, 58, 0
13, 212759, Note_on_c, 15, 62, 0
13, 212760, Note_on_c, 15, 57, 76
13, 212760, Note_on_c, 15, 64, 76
13, 212760, Note_on_c, 15, 60, 76
13, 212760, Note_on_c, 15, 45, 76
13, 212819, Note_on_c, 15, 57, 0
13, 212819, Note_on_c, 15, 64, 0
13, 212819, Note_on_c, 15, 60, 0
13, 212819, Note_on_c, 15, 45, 0
13, 212820, Note_on_c, 15, 46, 76
13, 212820, Note_on_c, 15, 65, 76
13, 212820, Note_on_c, 15, 62, 76
13, 212820, Note_on_c, 15, 58, 76
13, 212879, Note_on_c, 15, 46, 0
13, 212879, Note_on_c, 15, 65, 0
13, 212879, Note_on_c, 15, 62, 0
13, 212879, Note_on_c, 15, 58, 0
13, 212880, Note_on_c, 15, 48, 76
13, 212880, Note_on_c, 15, 60, 76
13, 212880, Note_on_c, 15, 67, 76
13, 212880, Note_on_c, 15, 64, 76
13, 212939, Note_on_c, 15, 48, 0
13, 212939, Note_on_c, 15, 60, 0
13, 212939, Note_on_c, 15, 67, 0
13, 212939, Note_on_c, 15, 64, 0
13, 212940, Note_on_c, 15, 45, 76
13, 212940, Note_on_c, 15, 60, 76
13, 212940, Note_on_c, 15, 57, 76
13, 212940, Note_on_c, 15, 64, 76
13, 212999, Note_on_c, 15, 45, 0
13, 212999, Note_on_c, 15, 60, 0
13, 212999, Note_on_c, 15, 57, 0
13, 212999, Note_on_c, 15, 64, 0
13, 213000, Note_on_c, 15, 62, 76
13, 213000, Note_on_c, 15, 58, 76
13, 213000, Note_on_c, 15, 46, 76
13, 213000, Note_on_c, 15, 65, 76
13, 213059, Note_on_c, 15, 62, 0
13, 213059, Note_on_c, 15, 58, 0
13, 213059, Note_on_c, 15, 46, 0
13, 213059, Note_on_c, 15, 65, 0
13, 213060, Note_on_c, 15, 67, 76
13, 213060, Note_on_c, 15, 48, 76
13, 213060, Note_on_c, 15, 64, 76
13, 213060, Note_on_c, 15, 60, 76
13, 213119, Note_on_c, 15, 67, 0
13, 213119, Note_on_c, 15, 48, 0
13, 213119, Note_on_c, 15, 64, 0
13, 213119, Note_on_c, 15, 60, 0
13, 213120, Note_on_c, 15, 64, 76
13, 213120, Note_on_c, 15, 55, 76
13, 213120, Note_on_c, 15, 53, 76
13, 213120, Note_on_c, 15, 41, 76
13, 213120, Note_on_c, 15, 58, 76
13, 213359, Note_on_c, 15, 64, 0
13, 213359, Note_on_c, 15, 55, 0
13, 213359, Note_on_c, 15, 58, 0
13, 213360, Note_on_c, 15, 60, 76
13, 213360, Note_on_c, 15, 65, 76
13, 213360, Note_on_c, 15, 57, 76
13, 213599, Note_on_c, 15, 60, 0
13, 213599, Note_on_c, 15, 65, 0
13, 213599, Note_on_c, 15, 57, 0
13, 213600, Note_on_c, 15, 57, 76
13, 213600, Note_on_c, 15, 60, 76
13, 213600, Note_on_c, 15, 65, 76
13, 213659, Note_on_c, 15, 53, 0
13, 213659, Note_on_c, 15, 41, 0
13, 213659, Note_on_c, 15, 57, 0
13, 213659, Note_on_c, 15, 60, 0
13, 213659, Note_on_c, 15, 65, 0
13, 213660, Note_on_c, 15, 40, 76
13, 213660, Note_on_c, 15, 57, 76
13, 213660, Note_on_c, 15, 65, 76
13, 213660, Note_on_c, 15, 60, 76
13, 213660, Note_on_c, 15, 52, 76
13, 213719, Note_on_c, 15, 40, 0
13, 213719, Note_on_c, 15, 57, 0
13, 213719, Note_on_c, 15, 65, 0
13, 213719, Note_on_c, 15, 60, 0
13, 213719, Note_on_c, 15, 52, 0
13, 213720, Note_on_c, 15, 60, 76
13, 213720, Note_on_c, 15, 41, 76
13, 213720, Note_on_c, 15, 57, 76
13, 213720, Note_on_c, 15, 53, 76
13, 213720, Note_on_c, 15, 65, 76
13, 213779, Note_on_c, 15, 60, 0
13, 213779, Note_on_c, 15, 41, 0
13, 213779, Note_on_c, 15, 57, 0
13, 213779, Note_on_c, 15, 53, 0
13, 213779, Note_on_c, 15, 65, 0
13, 213780, Note_on_c, 15, 57, 76
13, 213780, Note_on_c, 15, 60, 76
13, 213780, Note_on_c, 15, 43, 76
13, 213780, Note_on_c, 15, 55, 76
13, 213780, Note_on_c, 15, 65, 76
13, 213839, Note_on_c, 15, 57, 0
13, 213839, Note_on_c, 15, 60, 0
13, 213839, Note_on_c, 15, 43, 0
13, 213839, Note_on_c, 15, 55, 0
13, 213839, Note_on_c, 15, 65, 0
13, 213840, Note_on_c, 15, 45, 76
13, 213840, Note_on_c, 15, 60, 76
13, 213840, Note_on_c, 15, 57, 76
13, 213840, Note_on_c, 15, 65, 76
13, 213899, Note_on_c, 15, 45, 0
13, 213899, Note_on_c, 15, 60, 0
13, 213899, Note_on_c, 15, 57, 0
13, 213899, Note_on_c, 15, 65, 0
13, 213900, Note_on_c, 15, 65, 76
13, 213900, Note_on_c, 15, 57, 76
13, 213900, Note_on_c, 15, 41, 76
13, 213900, Note_on_c, 15, 53, 76
13, 213900, Note_on_c, 15, 60, 76
13, 213959, Note_on_c, 15, 65, 0
13, 213959, Note_on_c, 15, 57, 0
13, 213959, Note_on_c, 15, 41, 0
13, 213959, Note_on_c, 15, 53, 0
13, 213959, Note_on_c, 15, 60, 0
13, 213960, Note_on_c, 15, 65, 76
13, 213960, Note_on_c, 15, 55, 76
13, 213960, Note_on_c, 15, 57, 76
13, 213960, Note_on_c, 15, 43, 76
13, 213960, Note_on_c, 15, 60, 76
13, 214019, Note_on_c, 15, 65, 0
13, 214019, Note_on_c, 15, 55, 0
13, 214019, Note_on_c, 15, 57, 0
13, 214019, Note_on_c, 15, 43, 0
13, 214019, Note_on_c, 15, 60, 0
13, 214020, Note_on_c, 15, 60, 76
13, 214020, Note_on_c, 15, 65, 76
13, 214020, Note_on_c, 15, 57, 76
13, 214020, Note_on_c, 15, 45, 76
13, 214079, Note_on_c, 15, 60, 0
13, 214079, Note_on_c, 15, 65, 0
13, 214079, Note_on_c, 15, 57, 0
13, 214079, Note_on_c, 15, 45, 0
13, 214080, Note_on_c, 15, 53, 76
13, 214080, Note_on_c, 15, 60, 76
13, 214080, Note_on_c, 15, 38, 76
13, 214080, Note_on_c, 15, 57, 76
13, 214080, Note_on_c, 15, 50, 76
13, 214559, Note_on_c, 15, 53, 0
13, 214559, Note_on_c, 15, 60, 0
13, 214559, Note_on_c, 15, 57, 0
13, 214560, Note_on_c, 15, 53, 76
13, 214560, Note_on_c, 15, 59, 76
13, 214619, Note_on_c, 15, 38, 0
13, 214619, Note_on_c, 15, 50, 0
13, 214619, Note_on_c, 15, 53, 0
13, 214619, Note_on_c, 15, 59, 0
13, 214620, Note_on_c, 15, 55, 76
13, 214620, Note_on_c, 15, 48, 76
13, 214620, Note_on_c, 15, 36, 76
13, 214620, Note_on_c, 15, 52, 76
13, 214679, Note_on_c, 15, 55, 0
13, 214679, Note_on_c, 15, 48, 0
13, 214679, Note_on_c, 15, 36, 0
13, 214679, Note_on_c, 15, 52, 0
13, 214680, Note_on_c, 15, 53, 76
13, 214680, Note_on_c, 15, 38, 76
13, 214680, Note_on_c, 15, 50, 76
13, 214680, Note_on_c, 15, 57, 76
13, 214739, Note_on_c, 15, 53, 0
13, 214739, Note_on_c, 15, 38, 0
13, 214739, Note_on_c, 15, 50, 0
13, 214739, Note_on_c, 15, 57, 0
13, 214740, Note_on_c, 15, 59, 76
13, 214740, Note_on_c, 15, 40, 76
13, 214740, Note_on_c, 15, 55, 76
13, 214740, Note_on_c, 15, 52, 76
13, 214799, Note_on_c, 15, 59, 0
13, 214799, Note_on_c, 15, 40, 0
13, 214799, Note_on_c, 15, 55, 0
13, 214799, Note_on_c, 15, 52, 0
13, 214800, Note_on_c, 15, 57, 76
13, 214800, Note_on_c, 15, 53, 76
13, 214800, Note_on_c, 15, 41, 76
13, 214800, Note_on_c, 15, 60, 76
13, 214859, Note_on_c, 15, 57, 0
13, 214859, Note_on_c, 15, 53, 0
13, 214859, Note_on_c, 15, 41, 0
13, 214859, Note_on_c, 15, 60, 0
13, 214860, Note_on_c, 15, 57, 76
13, 214860, Note_on_c, 15, 60, 76
13, 214860, Note_on_c, 15, 52, 76
13, 214860, Note_on_c, 15, 40, 76
13, 214919, Note_on_c, 15, 57, 0
13, 214919, Note_on_c, 15, 60, 0
13, 214919, Note_on_c, 15, 52, 0
13, 214919, Note_on_c, 15, 40, 0
13, 214920, Note_on_c, 15, 57, 76
13, 214920, Note_on_c, 15, 53, 76
13, 214920, Note_on_c, 15, 60, 76
13, 214920, Note_on_c, 15, 41, 76
13, 214979, Note_on_c, 15, 57, 0
13, 214979, Note_on_c, 15, 53, 0
13, 214979, Note_on_c, 15, 60, 0
13, 214979, Note_on_c, 15, 41, 0
13, 214980, Note_on_c, 15, 60, 76
13, 214980, Note_on_c, 15, 50, 76
13, 214980, Note_on_c, 15, 57, 76
13, 214980, Note_on_c, 15, 38, 76
13, 215039, Note_on_c, 15, 60, 0
13, 215039, Note_on_c, 15, 50, 0
13, 215039, Note_on_c, 15, 57, 0
13, 215039, Note_on_c, 15, 38, 0
13, 215040, Note_on_c, 15, 62, 76
13, 215040, Note_on_c, 15, 59, 76
13, 215040, Note_on_c, 15, 55, 76
13, 215040, Note_on_c, 15, 43, 76
13, 215040, Note_on_c, 15, 65, 76
13, 215219, Note_on_c, 15, 62, 0
13, 215219, Note_on_c, 15, 59, 0
13, 215219, Note_on_c, 15, 55, 0
13, 215219, Note_on_c, 15, 43, 0
13, 215219, Note_on_c, 15, 65, 0
13, 215220, Note_on_c, 15, 55, 76
13, 215220, Note_on_c, 15, 43, 76
13, 215220, Note_on_c, 15, 59, 76
13, 215220, Note_on_c, 15, 62, 76
13, 215279, Note_on_c, 15, 55, 0
13, 215279, Note_on_c, 15, 43, 0
13, 215279, Note_on_c, 15, 59, 0
13, 215279, Note_on_c, 15, 62, 0
13, 215280, Note_on_c, 15, 60, 76
13, 215280, Note_on_c, 15, 45, 76
13, 215280, Note_on_c, 15, 57, 76
13, 215280, Note_on_c, 15, 64, 76
13, 215459, Note_on_c, 15, 60, 0
13, 215459, Note_on_c, 15, 45, 0
13, 215459, Note_on_c, 15, 57, 0
13, 215459, Note_on_c, 15, 64, 0
13, 215460, Note_on_c, 15, 59, 76
13, 215460, Note_on_c, 15, 47, 76
13, 215460, Note_on_c, 15, 62, 76
13, 215460, Note_on_c, 15, 65, 76
13, 215519, Note_on_c, 15, 59, 0
13, 215519, Note_on_c, 15, 47, 0
13, 215519, Note_on_c, 15, 62, 0
13, 215519, Note_on_c, 15, 65, 0
13, 215520, Note_on_c, 15, 60, 76
13, 215520, Note_on_c, 15, 48, 76
13, 215520, Note_on_c, 15, 64, 76
13, 215520, Note_on_c, 15, 67, 76
13, 215699, Note_on_c, 15, 60, 0
13, 215699, Note_on_c, 15, 48, 0
13, 215699, Note_on_c, 15, 64, 0
13, 215699, Note_on_c, 15, 67, 0
13, 215700, Note_on_c, 15, 48, 76
13, 215700, Note_on_c, 15, 60, 76
13, 215700, Note_on_c, 15, 67, 76
13, 215700, Note_on_c, 15, 64, 76
13, 215759, Note_on_c, 15, 48, 0
13, 215759, Note_on_c, 15, 60, 0
13, 215759, Note_on_c, 15, 67, 0
13, 215759, Note_on_c, 15, 64, 0
13, 215760, Note_on_c, 15, 50, 76
13, 215760, Note_on_c, 15, 65, 76
13, 215760, Note_on_c, 15, 62, 76
13, 215760, Note_on_c, 15, 69, 76
13, 215939, Note_on_c, 15, 50, 0
13, 215939, Note_on_c, 15, 65, 0
13, 215939, Note_on_c, 15, 62, 0
13, 215939, Note_on_c, 15, 69, 0
13, 215940, Note_on_c, 15, 71, 76
13, 215940, Note_on_c, 15, 52, 76
13, 215940, Note_on_c, 15, 64, 76
13, 215940, Note_on_c, 15, 67, 76
13, 215999, Note_on_c, 15, 71, 0
13, 215999, Note_on_c, 15, 52, 0
13, 215999, Note_on_c, 15, 64, 0
13, 215999, Note_on_c, 15, 67, 0
13, 216000, Note_on_c, 15, 69, 76
13, 216000, Note_on_c, 15, 72, 76
13, 216000, Note_on_c, 15, 53, 76
13, 216000, Note_on_c, 15, 65, 76
13, 216239, Note_on_c, 15, 72, 0
13, 216240, Note_on_c, 15, 74, 76
13, 216479, Note_on_c, 15, 69, 0
13, 216479, Note_on_c, 15, 74, 0
13, 216480, Note_on_c, 15, 74, 76
13, 216480, Note_on_c, 15, 67, 76
13, 216480, Note_on_c, 15, 71, 76
13, 216539, Note_on_c, 15, 53, 0
13, 216539, Note_on_c, 15, 65, 0
13, 216539, Note_on_c, 15, 74, 0
13, 216539, Note_on_c, 15, 67, 0
13, 216539, Note_on_c, 15, 71, 0
13, 216540, Note_on_c, 15, 55, 76
13, 216540, Note_on_c, 15, 74, 76
13, 216540, Note_on_c, 15, 67, 76
13, 216540, Note_on_c, 15, 71, 76
13, 216599, Note_on_c, 15, 55, 0
13, 216599, Note_on_c, 15, 74, 0
13, 216599, Note_on_c, 15, 67, 0
13, 216599, Note_on_c, 15, 71, 0
13, 216600, Note_on_c, 15, 65, 76
13, 216600, Note_on_c, 15, 72, 76
13, 216600, Note_on_c, 15, 53, 76
13, 216600, Note_on_c, 15, 69, 76
13, 216659, Note_on_c, 15, 65, 0
13, 216659, Note_on_c, 15, 72, 0
13, 216659, Note_on_c, 15, 53, 0
13, 216659, Note_on_c, 15, 69, 0
13, 216660, Note_on_c, 15, 64, 76
13, 216660, Note_on_c, 15, 67, 76
13, 216660, Note_on_c, 15, 71, 76
13, 216660, Note_on_c, 15, 52, 76
13, 216719, Note_on_c, 15, 64, 0
13, 216719, Note_on_c, 15, 67, 0
13, 216719, Note_on_c, 15, 71, 0
13, 216719, Note_on_c, 15, 52, 0
13, 216720, Note_on_c, 15, 62, 76
13, 216720, Note_on_c, 15, 50, 76
13, 216720, Note_on_c, 15, 67, 76
13, 216720, Note_on_c, 15, 71, 76
13, 216779, Note_on_c, 15, 62, 0
13, 216779, Note_on_c, 15, 50, 0
13, 216779, Note_on_c, 15, 67, 0
13, 216779, Note_on_c, 15, 71, 0
13, 216780, Note_on_c, 15, 48, 76
13, 216780, Note_on_c, 15, 60, 76
13, 216780, Note_on_c, 15, 67, 76
13, 216780, Note_on_c, 15, 71, 76
13, 216839, Note_on_c, 15, 48, 0
13, 216839, Note_on_c, 15, 60, 0
13, 216839, Note_on_c, 15, 67, 0
13, 216839, Note_on_c, 15, 71, 0
13, 216840, Note_on_c, 15, 67, 76
13, 216840, Note_on_c, 15, 71, 76
13, 216840, Note_on_c, 15, 47, 76
13, 216840, Note_on_c, 15, 59, 76
13, 216899, Note_on_c, 15, 67, 0
13, 216899, Note_on_c, 15, 71, 0
13, 216899, Note_on_c, 15, 47, 0
13, 216899, Note_on_c, 15, 59, 0
13, 216900, Note_on_c, 15, 45, 76
13, 216900, Note_on_c, 15, 57, 76
13, 216900, Note_on_c, 15, 67, 76
13, 216900, Note_on_c, 15, 71, 76
13, 216959, Note_on_c, 15, 45, 0
13, 216959, Note_on_c, 15, 57, 0
13, 216959, Note_on_c, 15, 67, 0
13, 216959, Note_on_c, 15, 71, 0
13, 216960, Note_on_c, 15, 62, 76
13, 216960, Note_on_c, 15, 65, 76
13, 216960, Note_on_c, 15, 59, 76
13, 216960, Note_on_c, 15, 43, 76
13, 216960, Note_on_c, 15, 55, 76
13, 217139, Note_on_c, 15, 62, 0
13, 217139, Note_on_c, 15, 65, 0
13, 217139, Note_on_c, 15, 59, 0
13, 217139, Note_on_c, 15, 43, 0
13, 217139, Note_on_c, 15, 55, 0
13, 217140, Note_on_c, 15, 59, 76
13, 217140, Note_on_c, 15, 62, 76
13, 217140, Note_on_c, 15, 65, 76
13, 217140, Note_on_c, 15, 47, 76
13, 217199, Note_on_c, 15, 59, 0
13, 217199, Note_on_c, 15, 62, 0
13, 217199, Note_on_c, 15, 65, 0
13, 217199, Note_on_c, 15, 47, 0
13, 217200, Note_on_c, 15, 60, 76
13, 217200, Note_on_c, 15, 67, 76
13, 217200, Note_on_c, 15, 48, 76
13, 217200, Note_on_c, 15, 64, 76
13, 217379, Note_on_c, 15, 60, 0
13, 217379, Note_on_c, 15, 67, 0
13, 217379, Note_on_c, 15, 48, 0
13, 217379, Note_on_c, 15, 64, 0
13, 217380, Note_on_c, 15, 60, 76
13, 217380, Note_on_c, 15, 53, 76
13, 217380, Note_on_c, 15, 41, 76
13, 217380, Note_on_c, 15, 57, 76
13, 217439, Note_on_c, 15, 60, 0
13, 217439, Note_on_c, 15, 53, 0
13, 217439, Note_on_c, 15, 41, 0
13, 217439, Note_on_c, 15, 57, 0
13, 217440, Note_on_c, 15, 59, 76
13, 217440, Note_on_c, 15, 43, 76
13, 217440, Note_on_c, 15, 62, 76
13, 217440, Note_on_c, 15, 55, 76
13, 217679, Note_on_c, 15, 59, 0
13, 217679, Note_on_c, 15, 43, 0
13, 217679, Note_on_c, 15, 62, 0
13, 217679, Note_on_c, 15, 55, 0
13, 217680, Note_on_c, 15, 59, 76
13, 217680, Note_on_c, 15, 55, 76
13, 217680, Note_on_c, 15, 43, 76
13, 217680, Note_on_c, 15, 62, 76
13, 217919, Note_on_c, 15, 59, 0
13, 217919, Note_on_c, 15, 55, 0
13, 217919, Note_on_c, 15, 43, 0
13, 217919, Note_on_c, 15, 62, 0
13, 217920, Note_on_c, 15, 36, 76
13, 217920, Note_on_c, 15, 52, 76
13, 217920, Note_on_c, 15, 48, 76
13, 217920, Note_on_c, 15, 55, 76
13, 218879, Note_on_c, 15, 36, 0
13, 218879, Note_on_c, 15, 52, 0
13, 218879, Note_on_c, 15, 48, 0
13, 218879, Note_on_c, 15, 55, 0
13, 218879, End_track
14, 0, Start_track
14, 0, Title_t, "Johann Sebastian Bach - Orchestral Suite No. 1 in C Major, BWV1066 - No.1 Overture"
14, 0, MIDI_port, 0
14, 0, End_track
0, 0, End_of_file
