0, 0, Header, 1, 5, 1024
1, 0, Start_track
1, 0, Time_signature, 4, 2, 24, 8
1, 0, Key_signature, -2, "minor"
1, 0, Tempo, 1395348
1, 204800, End_track
2, 0, Start_track
2, 0, Title_t, "Instrument 1"
2, 1024, Note_on_c, 0, 67, 96
2, 2048, Note_off_c, 0, 67, 0
2, 2048, Note_on_c, 0, 72, 96
2, 2560, Note_off_c, 0, 72, 0
2, 2560, Note_on_c, 0, 71, 96
2, 3072, Note_off_c, 0, 71, 0
2, 3072, Note_on_c, 0, 72, 96
2, 3584, Note_off_c, 0, 72, 0
2, 3584, Note_on_c, 0, 74, 96
2, 4096, Note_off_c, 0, 74, 0
2, 4096, Note_on_c, 0, 75, 96
2, 4608, Note_off_c, 0, 75, 0
2, 4608, Note_on_c, 0, 74, 96
2, 4864, Note_off_c, 0, 74, 0
2, 4864, Note_on_c, 0, 72, 96
2, 5120, Note_off_c, 0, 72, 0
2, 5120, Note_on_c, 0, 74, 96
2, 5632, Note_off_c, 0, 74, 0
2, 5632, Note_on_c, 0, 71, 96
2, 6144, Note_off_c, 0, 71, 0
2, 6144, Note_on_c, 0, 72, 96
2, 7168, Note_off_c, 0, 72, 0
2, 7168, Note_on_c, 0, 67, 96
2, 7680, Note_off_c, 0, 67, 0
2, 7680, Note_on_c, 0, 75, 96
2, 8192, Note_off_c, 0, 75, 0
2, 8192, Note_on_c, 0, 75, 96
2, 8704, Note_off_c, 0, 75, 0
2, 8704, Note_on_c, 0, 74, 96
2, 9216, Note_off_c, 0, 74, 0
2, 9216, Note_on_c, 0, 74, 96
2, 10240, Note_off_c, 0, 74, 0
2, 10752, Note_on_c, 0, 72, 96
2, 11008, Note_off_c, 0, 72, 0
2, 11008, Note_on_c, 0, 70, 96
2, 11264, Note_off_c, 0, 70, 0
2, 11264, Note_on_c, 0, 72, 96
2, 11776, Note_off_c, 0, 72, 0
2, 11776, Note_on_c, 0, 69, 96
2, 12288, Note_off_c, 0, 69, 0
2, 12288, Note_on_c, 0, 70, 96
2, 12800, Note_off_c, 0, 70, 0
2, 12800, Note_on_c, 0, 72, 96
2, 13312, Note_off_c, 0, 72, 0
2, 13312, Note_on_c, 0, 74, 96
2, 13824, Note_off_c, 0, 74, 0
2, 13824, Note_on_c, 0, 76, 96
2, 14336, Note_off_c, 0, 76, 0
2, 14336, Note_on_c, 0, 77, 96
2, 14848, Note_off_c, 0, 77, 0
2, 14848, Note_on_c, 0, 72, 96
2, 15360, Note_off_c, 0, 72, 0
2, 15360, Note_on_c, 0, 77, 96
2, 15872, Note_off_c, 0, 77, 0
2, 15872, Note_on_c, 0, 77, 96
2, 16384, Note_off_c, 0, 77, 0
2, 16384, Note_on_c, 0, 77, 96
2, 16896, Note_off_c, 0, 77, 0
2, 16896, Note_on_c, 0, 75, 96
2, 17152, Note_off_c, 0, 75, 0
2, 17152, Note_on_c, 0, 74, 96
2, 17408, Note_off_c, 0, 74, 0
2, 17408, Note_on_c, 0, 75, 96
2, 17920, Note_off_c, 0, 75, 0
2, 17920, Note_on_c, 0, 72, 96
2, 18432, Note_off_c, 0, 72, 0
2, 18432, Note_on_c, 0, 74, 96
2, 19200, Note_off_c, 0, 74, 0
2, 19200, Note_on_c, 0, 75, 96
2, 19328, Note_off_c, 0, 75, 0
2, 19328, Note_on_c, 0, 74, 96
2, 19456, Note_off_c, 0, 74, 0
2, 19456, Note_on_c, 0, 72, 96
2, 19968, Note_off_c, 0, 72, 0
2, 19968, Note_on_c, 0, 74, 96
2, 20480, Note_off_c, 0, 74, 0
2, 20480, Note_on_c, 0, 75, 96
2, 21504, Note_off_c, 0, 75, 0
2, 21504, Note_on_c, 0, 74, 96
2, 22528, Note_off_c, 0, 74, 0
2, 23552, Note_on_c, 0, 67, 96
2, 24576, Note_off_c, 0, 67, 0
2, 24576, Note_on_c, 0, 72, 96
2, 25088, Note_off_c, 0, 72, 0
2, 25088, Note_on_c, 0, 71, 96
2, 25600, Note_off_c, 0, 71, 0
2, 25600, Note_on_c, 0, 72, 96
2, 26112, Note_off_c, 0, 72, 0
2, 26112, Note_on_c, 0, 74, 96
2, 26624, Note_off_c, 0, 74, 0
2, 26624, Note_on_c, 0, 75, 96
2, 27136, Note_off_c, 0, 75, 0
2, 27136, Note_on_c, 0, 74, 96
2, 27392, Note_off_c, 0, 74, 0
2, 27392, Note_on_c, 0, 72, 96
2, 27648, Note_off_c, 0, 72, 0
2, 27648, Note_on_c, 0, 74, 96
2, 28160, Note_off_c, 0, 74, 0
2, 28160, Note_on_c, 0, 71, 96
2, 28672, Note_off_c, 0, 71, 0
2, 28672, Note_on_c, 0, 72, 96
2, 29696, Note_off_c, 0, 72, 0
2, 29696, Note_on_c, 0, 67, 96
2, 30208, Note_off_c, 0, 67, 0
2, 30208, Note_on_c, 0, 72, 96
2, 30720, Note_off_c, 0, 72, 0
2, 30720, Note_on_c, 0, 72, 96
2, 31232, Note_off_c, 0, 72, 0
2, 31232, Note_on_c, 0, 70, 96
2, 31744, Note_off_c, 0, 70, 0
2, 31744, Note_on_c, 0, 70, 96
2, 32768, Note_off_c, 0, 70, 0
2, 33280, Note_on_c, 0, 72, 96
2, 33536, Note_off_c, 0, 72, 0
2, 33536, Note_on_c, 0, 70, 96
2, 33792, Note_off_c, 0, 70, 0
2, 33792, Note_on_c, 0, 72, 96
2, 34304, Note_off_c, 0, 72, 0
2, 34304, Note_on_c, 0, 69, 96
2, 34816, Note_off_c, 0, 69, 0
2, 34816, Note_on_c, 0, 70, 96
2, 35328, Note_off_c, 0, 70, 0
2, 35328, Note_on_c, 0, 72, 96
2, 35840, Note_off_c, 0, 72, 0
2, 35840, Note_on_c, 0, 74, 96
2, 36352, Note_off_c, 0, 74, 0
2, 36352, Note_on_c, 0, 70, 96
2, 36864, Note_off_c, 0, 70, 0
2, 36864, Note_on_c, 0, 75, 96
2, 37376, Note_off_c, 0, 75, 0
2, 37376, Note_on_c, 0, 74, 96
2, 37888, Note_off_c, 0, 74, 0
2, 37888, Note_on_c, 0, 75, 96
2, 38400, Note_off_c, 0, 75, 0
2, 38400, Note_on_c, 0, 77, 96
2, 38912, Note_off_c, 0, 77, 0
2, 38912, Note_on_c, 0, 79, 96
2, 39424, Note_off_c, 0, 79, 0
2, 39424, Note_on_c, 0, 77, 96
2, 39680, Note_off_c, 0, 77, 0
2, 39680, Note_on_c, 0, 75, 96
2, 39936, Note_off_c, 0, 75, 0
2, 39936, Note_on_c, 0, 77, 96
2, 40448, Note_off_c, 0, 77, 0
2, 40448, Note_on_c, 0, 74, 96
2, 40960, Note_off_c, 0, 74, 0
2, 40960, Note_on_c, 0, 75, 96
2, 41984, Note_off_c, 0, 75, 0
2, 41984, Note_on_c, 0, 70, 96
2, 42496, Note_off_c, 0, 70, 0
2, 42496, Note_on_c, 0, 79, 96
2, 43008, Note_off_c, 0, 79, 0
2, 43008, Note_on_c, 0, 79, 96
2, 43520, Note_off_c, 0, 79, 0
2, 43520, Note_on_c, 0, 77, 96
2, 44032, Note_off_c, 0, 77, 0
2, 44032, Note_on_c, 0, 77, 96
2, 45056, Note_off_c, 0, 77, 0
2, 45568, Note_on_c, 0, 75, 96
2, 45824, Note_off_c, 0, 75, 0
2, 45824, Note_on_c, 0, 74, 96
2, 46080, Note_off_c, 0, 74, 0
2, 46080, Note_on_c, 0, 75, 96
2, 46592, Note_off_c, 0, 75, 0
2, 46592, Note_on_c, 0, 72, 96
2, 47104, Note_off_c, 0, 72, 0
2, 47104, Note_on_c, 0, 74, 96
2, 47616, Note_off_c, 0, 74, 0
2, 47616, Note_on_c, 0, 75, 96
2, 48128, Note_off_c, 0, 75, 0
2, 48128, Note_on_c, 0, 77, 96
2, 48640, Note_off_c, 0, 77, 0
2, 48640, Note_on_c, 0, 75, 96
2, 49152, Note_off_c, 0, 75, 0
2, 49152, Note_on_c, 0, 75, 96
2, 49664, Note_off_c, 0, 75, 0
2, 49664, Note_on_c, 0, 74, 96
2, 50176, Note_off_c, 0, 74, 0
2, 50176, Note_on_c, 0, 74, 96
2, 51200, Note_off_c, 0, 74, 0
2, 51712, Note_on_c, 0, 72, 96
2, 51968, Note_off_c, 0, 72, 0
2, 51968, Note_on_c, 0, 71, 96
2, 52224, Note_off_c, 0, 71, 0
2, 52224, Note_on_c, 0, 72, 96
2, 52736, Note_off_c, 0, 72, 0
2, 52736, Note_on_c, 0, 74, 96
2, 53248, Note_off_c, 0, 74, 0
2, 53248, Note_on_c, 0, 75, 96
2, 54016, Note_off_c, 0, 75, 0
2, 54016, Note_on_c, 0, 77, 96
2, 54272, Note_off_c, 0, 77, 0
2, 54272, Note_on_c, 0, 74, 96
2, 55040, Note_off_c, 0, 74, 0
2, 55040, Note_on_c, 0, 72, 96
2, 55296, Note_off_c, 0, 72, 0
2, 55296, Note_on_c, 0, 72, 96
2, 56320, Note_off_c, 0, 72, 0
2, 56832, Note_on_c, 0, 70, 96
2, 57344, Note_off_c, 0, 70, 0
2, 57344, Note_on_c, 0, 70, 96
2, 57856, Note_off_c, 0, 70, 0
2, 57856, Note_on_c, 0, 68, 96
2, 58368, Note_off_c, 0, 68, 0
2, 58368, Note_on_c, 0, 68, 96
2, 58880, Note_off_c, 0, 68, 0
2, 58880, Note_on_c, 0, 79, 96
2, 59392, Note_off_c, 0, 79, 0
2, 59392, Note_on_c, 0, 79, 96
2, 59904, Note_off_c, 0, 79, 0
2, 59904, Note_on_c, 0, 77, 96
2, 60416, Note_off_c, 0, 77, 0
2, 60416, Note_on_c, 0, 77, 96
2, 60928, Note_off_c, 0, 77, 0
2, 60928, Note_on_c, 0, 75, 96
2, 61184, Note_off_c, 0, 75, 0
2, 61184, Note_on_c, 0, 74, 96
2, 61440, Note_off_c, 0, 74, 0
2, 61440, Note_on_c, 0, 72, 96
2, 61952, Note_off_c, 0, 72, 0
2, 61952, Note_on_c, 0, 75, 96
2, 62464, Note_off_c, 0, 75, 0
2, 62464, Note_on_c, 0, 74, 96
2, 62976, Note_off_c, 0, 74, 0
2, 62976, Note_on_c, 0, 72, 96
2, 63232, Note_off_c, 0, 72, 0
2, 63232, Note_on_c, 0, 71, 96
2, 63488, Note_off_c, 0, 71, 0
2, 63488, Note_on_c, 0, 72, 96
2, 64256, Note_off_c, 0, 72, 0
2, 64256, Note_on_c, 0, 74, 96
2, 64512, Note_off_c, 0, 74, 0
2, 64512, Note_on_c, 0, 71, 96
2, 65280, Note_off_c, 0, 71, 0
2, 65280, Note_on_c, 0, 72, 96
2, 65536, Note_off_c, 0, 72, 0
2, 65536, Note_on_c, 0, 72, 96
2, 66560, Note_off_c, 0, 72, 0
2, 66560, Note_on_c, 0, 67, 96
2, 67584, Note_off_c, 0, 67, 0
2, 67584, Note_on_c, 0, 72, 96
2, 68096, Note_off_c, 0, 72, 0
2, 68096, Note_on_c, 0, 71, 96
2, 68608, Note_off_c, 0, 71, 0
2, 68608, Note_on_c, 0, 72, 96
2, 69120, Note_off_c, 0, 72, 0
2, 69120, Note_on_c, 0, 74, 96
2, 69632, Note_off_c, 0, 74, 0
2, 69632, Note_on_c, 0, 75, 96
2, 70144, Note_off_c, 0, 75, 0
2, 70144, Note_on_c, 0, 74, 96
2, 70400, Note_off_c, 0, 74, 0
2, 70400, Note_on_c, 0, 72, 96
2, 70656, Note_off_c, 0, 72, 0
2, 70656, Note_on_c, 0, 74, 96
2, 71168, Note_off_c, 0, 74, 0
2, 71168, Note_on_c, 0, 71, 96
2, 71680, Note_off_c, 0, 71, 0
2, 71680, Note_on_c, 0, 72, 96
2, 72704, Note_off_c, 0, 72, 0
2, 72704, Note_on_c, 0, 67, 96
2, 73216, Note_off_c, 0, 67, 0
2, 73216, Note_on_c, 0, 75, 96
2, 73728, Note_off_c, 0, 75, 0
2, 73728, Note_on_c, 0, 75, 96
2, 74240, Note_off_c, 0, 75, 0
2, 74240, Note_on_c, 0, 74, 96
2, 74752, Note_off_c, 0, 74, 0
2, 74752, Note_on_c, 0, 74, 96
2, 75776, Note_off_c, 0, 74, 0
2, 76288, Note_on_c, 0, 72, 96
2, 76544, Note_off_c, 0, 72, 0
2, 76544, Note_on_c, 0, 70, 96
2, 76800, Note_off_c, 0, 70, 0
2, 76800, Note_on_c, 0, 72, 96
2, 77312, Note_off_c, 0, 72, 0
2, 77312, Note_on_c, 0, 69, 96
2, 77824, Note_off_c, 0, 69, 0
2, 77824, Note_on_c, 0, 70, 96
2, 78336, Note_off_c, 0, 70, 0
2, 78336, Note_on_c, 0, 72, 96
2, 78848, Note_off_c, 0, 72, 0
2, 78848, Note_on_c, 0, 74, 96
2, 79360, Note_off_c, 0, 74, 0
2, 79360, Note_on_c, 0, 76, 96
2, 79872, Note_off_c, 0, 76, 0
2, 79872, Note_on_c, 0, 77, 96
2, 80384, Note_off_c, 0, 77, 0
2, 80384, Note_on_c, 0, 72, 96
2, 80896, Note_off_c, 0, 72, 0
2, 80896, Note_on_c, 0, 77, 96
2, 81408, Note_off_c, 0, 77, 0
2, 81408, Note_on_c, 0, 77, 96
2, 81920, Note_off_c, 0, 77, 0
2, 81920, Note_on_c, 0, 77, 96
2, 82432, Note_off_c, 0, 77, 0
2, 82432, Note_on_c, 0, 75, 96
2, 82688, Note_off_c, 0, 75, 0
2, 82688, Note_on_c, 0, 74, 96
2, 82944, Note_off_c, 0, 74, 0
2, 82944, Note_on_c, 0, 75, 96
2, 83456, Note_off_c, 0, 75, 0
2, 83456, Note_on_c, 0, 72, 96
2, 83968, Note_off_c, 0, 72, 0
2, 83968, Note_on_c, 0, 74, 96
2, 84736, Note_off_c, 0, 74, 0
2, 84736, Note_on_c, 0, 75, 96
2, 84864, Note_off_c, 0, 75, 0
2, 84864, Note_on_c, 0, 74, 96
2, 84992, Note_off_c, 0, 74, 0
2, 84992, Note_on_c, 0, 72, 96
2, 85504, Note_off_c, 0, 72, 0
2, 85504, Note_on_c, 0, 74, 96
2, 86016, Note_off_c, 0, 74, 0
2, 86016, Note_on_c, 0, 75, 96
2, 87040, Note_off_c, 0, 75, 0
2, 87040, Note_on_c, 0, 74, 96
2, 88064, Note_off_c, 0, 74, 0
2, 89088, Note_on_c, 0, 67, 96
2, 90112, Note_off_c, 0, 67, 0
2, 90112, Note_on_c, 0, 72, 96
2, 90624, Note_off_c, 0, 72, 0
2, 90624, Note_on_c, 0, 71, 96
2, 91136, Note_off_c, 0, 71, 0
2, 91136, Note_on_c, 0, 72, 96
2, 91648, Note_off_c, 0, 72, 0
2, 91648, Note_on_c, 0, 74, 96
2, 92160, Note_off_c, 0, 74, 0
2, 92160, Note_on_c, 0, 75, 96
2, 92672, Note_off_c, 0, 75, 0
2, 92672, Note_on_c, 0, 74, 96
2, 92928, Note_off_c, 0, 74, 0
2, 92928, Note_on_c, 0, 72, 96
2, 93184, Note_off_c, 0, 72, 0
2, 93184, Note_on_c, 0, 74, 96
2, 93696, Note_off_c, 0, 74, 0
2, 93696, Note_on_c, 0, 71, 96
2, 94208, Note_off_c, 0, 71, 0
2, 94208, Note_on_c, 0, 72, 96
2, 95232, Note_off_c, 0, 72, 0
2, 95232, Note_on_c, 0, 67, 96
2, 95744, Note_off_c, 0, 67, 0
2, 95744, Note_on_c, 0, 72, 96
2, 96256, Note_off_c, 0, 72, 0
2, 96256, Note_on_c, 0, 72, 96
2, 96768, Note_off_c, 0, 72, 0
2, 96768, Note_on_c, 0, 70, 96
2, 97280, Note_off_c, 0, 70, 0
2, 97280, Note_on_c, 0, 70, 96
2, 98304, Note_off_c, 0, 70, 0
2, 98816, Note_on_c, 0, 72, 96
2, 99072, Note_off_c, 0, 72, 0
2, 99072, Note_on_c, 0, 70, 96
2, 99328, Note_off_c, 0, 70, 0
2, 99328, Note_on_c, 0, 72, 96
2, 99840, Note_off_c, 0, 72, 0
2, 99840, Note_on_c, 0, 69, 96
2, 100352, Note_off_c, 0, 69, 0
2, 100352, Note_on_c, 0, 70, 96
2, 100864, Note_off_c, 0, 70, 0
2, 100864, Note_on_c, 0, 72, 96
2, 101376, Note_off_c, 0, 72, 0
2, 101376, Note_on_c, 0, 74, 96
2, 101888, Note_off_c, 0, 74, 0
2, 101888, Note_on_c, 0, 70, 96
2, 102400, Note_off_c, 0, 70, 0
2, 102400, Note_on_c, 0, 75, 96
2, 102912, Note_off_c, 0, 75, 0
2, 102912, Note_on_c, 0, 74, 96
2, 103424, Note_off_c, 0, 74, 0
2, 103424, Note_on_c, 0, 75, 96
2, 103936, Note_off_c, 0, 75, 0
2, 103936, Note_on_c, 0, 77, 96
2, 104448, Note_off_c, 0, 77, 0
2, 104448, Note_on_c, 0, 79, 96
2, 104960, Note_off_c, 0, 79, 0
2, 104960, Note_on_c, 0, 77, 96
2, 105216, Note_off_c, 0, 77, 0
2, 105216, Note_on_c, 0, 75, 96
2, 105472, Note_off_c, 0, 75, 0
2, 105472, Note_on_c, 0, 77, 96
2, 105984, Note_off_c, 0, 77, 0
2, 105984, Note_on_c, 0, 74, 96
2, 106496, Note_off_c, 0, 74, 0
2, 106496, Note_on_c, 0, 75, 96
2, 107520, Note_off_c, 0, 75, 0
2, 107520, Note_on_c, 0, 70, 96
2, 108032, Note_off_c, 0, 70, 0
2, 108032, Note_on_c, 0, 79, 96
2, 108544, Note_off_c, 0, 79, 0
2, 108544, Note_on_c, 0, 79, 96
2, 109056, Note_off_c, 0, 79, 0
2, 109056, Note_on_c, 0, 77, 96
2, 109568, Note_off_c, 0, 77, 0
2, 109568, Note_on_c, 0, 77, 96
2, 110592, Note_off_c, 0, 77, 0
2, 111104, Note_on_c, 0, 75, 96
2, 111360, Note_off_c, 0, 75, 0
2, 111360, Note_on_c, 0, 74, 96
2, 111616, Note_off_c, 0, 74, 0
2, 111616, Note_on_c, 0, 75, 96
2, 112128, Note_off_c, 0, 75, 0
2, 112128, Note_on_c, 0, 72, 96
2, 112640, Note_off_c, 0, 72, 0
2, 112640, Note_on_c, 0, 74, 96
2, 113152, Note_off_c, 0, 74, 0
2, 113152, Note_on_c, 0, 75, 96
2, 113664, Note_off_c, 0, 75, 0
2, 113664, Note_on_c, 0, 77, 96
2, 114176, Note_off_c, 0, 77, 0
2, 114176, Note_on_c, 0, 75, 96
2, 114688, Note_off_c, 0, 75, 0
2, 114688, Note_on_c, 0, 75, 96
2, 115200, Note_off_c, 0, 75, 0
2, 115200, Note_on_c, 0, 74, 96
2, 115712, Note_off_c, 0, 74, 0
2, 115712, Note_on_c, 0, 74, 96
2, 116736, Note_off_c, 0, 74, 0
2, 117248, Note_on_c, 0, 72, 96
2, 117504, Note_off_c, 0, 72, 0
2, 117504, Note_on_c, 0, 71, 96
2, 117760, Note_off_c, 0, 71, 0
2, 117760, Note_on_c, 0, 72, 96
2, 118272, Note_off_c, 0, 72, 0
2, 118272, Note_on_c, 0, 74, 96
2, 118784, Note_off_c, 0, 74, 0
2, 118784, Note_on_c, 0, 75, 96
2, 119552, Note_off_c, 0, 75, 0
2, 119552, Note_on_c, 0, 77, 96
2, 119808, Note_off_c, 0, 77, 0
2, 119808, Note_on_c, 0, 74, 96
2, 120576, Note_off_c, 0, 74, 0
2, 120576, Note_on_c, 0, 72, 96
2, 120832, Note_off_c, 0, 72, 0
2, 120832, Note_on_c, 0, 72, 96
2, 121856, Note_off_c, 0, 72, 0
2, 122368, Note_on_c, 0, 70, 96
2, 122880, Note_off_c, 0, 70, 0
2, 122880, Note_on_c, 0, 70, 96
2, 123392, Note_off_c, 0, 70, 0
2, 123392, Note_on_c, 0, 68, 96
2, 123904, Note_off_c, 0, 68, 0
2, 123904, Note_on_c, 0, 68, 96
2, 124416, Note_off_c, 0, 68, 0
2, 124416, Note_on_c, 0, 79, 96
2, 124928, Note_off_c, 0, 79, 0
2, 124928, Note_on_c, 0, 79, 96
2, 125440, Note_off_c, 0, 79, 0
2, 125440, Note_on_c, 0, 77, 96
2, 125952, Note_off_c, 0, 77, 0
2, 125952, Note_on_c, 0, 77, 96
2, 126464, Note_off_c, 0, 77, 0
2, 126464, Note_on_c, 0, 75, 96
2, 126720, Note_off_c, 0, 75, 0
2, 126720, Note_on_c, 0, 74, 96
2, 126976, Note_off_c, 0, 74, 0
2, 126976, Note_on_c, 0, 72, 96
2, 127488, Note_off_c, 0, 72, 0
2, 127488, Note_on_c, 0, 75, 96
2, 128000, Note_off_c, 0, 75, 0
2, 128000, Note_on_c, 0, 74, 96
2, 128512, Note_off_c, 0, 74, 0
2, 128512, Note_on_c, 0, 72, 96
2, 128768, Note_off_c, 0, 72, 0
2, 128768, Note_on_c, 0, 71, 96
2, 129024, Note_off_c, 0, 71, 0
2, 129024, Note_on_c, 0, 72, 96
2, 129792, Note_off_c, 0, 72, 0
2, 129792, Note_on_c, 0, 74, 96
2, 130048, Note_off_c, 0, 74, 0
2, 130048, Note_on_c, 0, 71, 96
2, 130816, Note_off_c, 0, 71, 0
2, 130816, Note_on_c, 0, 72, 96
2, 131072, Note_off_c, 0, 72, 0
2, 131072, Note_on_c, 0, 72, 96
2, 132096, Note_off_c, 0, 72, 0
2, 140800, Note_on_c, 0, 69, 96
2, 141312, Note_off_c, 0, 69, 0
2, 141312, Note_on_c, 0, 70, 96
2, 141824, Note_off_c, 0, 70, 0
2, 141824, Note_on_c, 0, 75, 96
2, 142848, Note_off_c, 0, 75, 0
2, 142848, Note_on_c, 0, 74, 96
2, 143104, Note_off_c, 0, 74, 0
2, 143104, Note_on_c, 0, 72, 96
2, 143360, Note_off_c, 0, 72, 0
2, 143360, Note_on_c, 0, 74, 96
2, 143872, Note_off_c, 0, 74, 0
2, 143872, Note_on_c, 0, 79, 96
2, 144896, Note_off_c, 0, 79, 0
2, 144896, Note_on_c, 0, 77, 96
2, 145152, Note_off_c, 0, 77, 0
2, 145152, Note_on_c, 0, 75, 96
2, 145408, Note_off_c, 0, 75, 0
2, 145408, Note_on_c, 0, 77, 96
2, 145920, Note_off_c, 0, 77, 0
2, 145920, Note_on_c, 0, 70, 96
2, 146432, Note_off_c, 0, 70, 0
2, 146432, Note_on_c, 0, 74, 96
2, 146688, Note_off_c, 0, 74, 0
2, 146688, Note_on_c, 0, 72, 96
2, 146944, Note_off_c, 0, 72, 0
2, 146944, Note_on_c, 0, 70, 96
2, 147200, Note_off_c, 0, 70, 0
2, 147200, Note_on_c, 0, 69, 96
2, 147456, Note_off_c, 0, 69, 0
2, 147456, Note_on_c, 0, 70, 96
2, 147968, Note_off_c, 0, 70, 0
2, 147968, Note_on_c, 0, 72, 96
2, 148480, Note_off_c, 0, 72, 0
2, 148480, Note_on_c, 0, 70, 96
2, 148992, Note_off_c, 0, 70, 0
2, 148992, Note_on_c, 0, 68, 96
2, 149504, Note_off_c, 0, 68, 0
2, 149504, Note_on_c, 0, 67, 96
2, 150016, Note_off_c, 0, 67, 0
2, 150016, Note_on_c, 0, 75, 96
2, 150528, Note_off_c, 0, 75, 0
2, 150528, Note_on_c, 0, 74, 96
2, 151040, Note_off_c, 0, 74, 0
2, 151040, Note_on_c, 0, 77, 96
2, 151552, Note_off_c, 0, 77, 0
2, 151552, Note_on_c, 0, 70, 96
2, 152064, Note_off_c, 0, 70, 0
2, 152064, Note_on_c, 0, 75, 96
2, 152576, Note_off_c, 0, 75, 0
2, 152576, Note_on_c, 0, 68, 96
2, 154112, Note_off_c, 0, 68, 0
2, 154112, Note_on_c, 0, 72, 96
2, 154624, Note_off_c, 0, 72, 0
2, 154624, Note_on_c, 0, 70, 96
2, 154880, Note_off_c, 0, 70, 0
2, 154880, Note_on_c, 0, 68, 96
2, 155136, Note_off_c, 0, 68, 0
2, 155136, Note_on_c, 0, 67, 96
2, 155392, Note_off_c, 0, 67, 0
2, 155392, Note_on_c, 0, 65, 96
2, 155648, Note_off_c, 0, 65, 0
2, 155648, Note_on_c, 0, 67, 96
2, 156672, Note_off_c, 0, 67, 0
2, 157184, Note_on_c, 0, 67, 96
2, 157696, Note_off_c, 0, 67, 0
2, 157696, Note_on_c, 0, 68, 96
2, 158208, Note_off_c, 0, 68, 0
2, 158208, Note_on_c, 0, 73, 96
2, 159232, Note_off_c, 0, 73, 0
2, 159232, Note_on_c, 0, 72, 96
2, 159488, Note_off_c, 0, 72, 0
2, 159488, Note_on_c, 0, 70, 96
2, 159744, Note_off_c, 0, 70, 0
2, 159744, Note_on_c, 0, 72, 96
2, 160256, Note_off_c, 0, 72, 0
2, 160256, Note_on_c, 0, 77, 96
2, 161280, Note_off_c, 0, 77, 0
2, 161280, Note_on_c, 0, 75, 96
2, 161536, Note_off_c, 0, 75, 0
2, 161536, Note_on_c, 0, 73, 96
2, 161792, Note_off_c, 0, 73, 0
2, 161792, Note_on_c, 0, 75, 96
2, 162304, Note_off_c, 0, 75, 0
2, 162304, Note_on_c, 0, 68, 96
2, 162816, Note_off_c, 0, 68, 0
2, 162816, Note_on_c, 0, 72, 96
2, 163072, Note_off_c, 0, 72, 0
2, 163072, Note_on_c, 0, 70, 96
2, 163328, Note_off_c, 0, 70, 0
2, 163328, Note_on_c, 0, 68, 96
2, 163584, Note_off_c, 0, 68, 0
2, 163584, Note_on_c, 0, 67, 96
2, 163840, Note_off_c, 0, 67, 0
2, 163840, Note_on_c, 0, 68, 96
2, 164352, Note_off_c, 0, 68, 0
2, 164352, Note_on_c, 0, 72, 96
2, 164864, Note_off_c, 0, 72, 0
2, 164864, Note_on_c, 0, 70, 96
2, 165376, Note_off_c, 0, 70, 0
2, 165376, Note_on_c, 0, 68, 96
2, 165888, Note_off_c, 0, 68, 0
2, 165888, Note_on_c, 0, 67, 96
2, 166400, Note_off_c, 0, 67, 0
2, 166400, Note_on_c, 0, 75, 96
2, 166912, Note_off_c, 0, 75, 0
2, 166912, Note_on_c, 0, 74, 96
2, 167424, Note_off_c, 0, 74, 0
2, 167424, Note_on_c, 0, 77, 96
2, 167936, Note_off_c, 0, 77, 0
2, 167936, Note_on_c, 0, 70, 96
2, 168448, Note_off_c, 0, 70, 0
2, 168448, Note_on_c, 0, 75, 96
2, 168960, Note_off_c, 0, 75, 0
2, 168960, Note_on_c, 0, 68, 96
2, 170496, Note_off_c, 0, 68, 0
2, 170496, Note_on_c, 0, 67, 96
2, 171008, Note_off_c, 0, 67, 0
2, 171008, Note_on_c, 0, 70, 96
2, 171264, Note_off_c, 0, 70, 0
2, 171264, Note_on_c, 0, 68, 96
2, 171520, Note_off_c, 0, 68, 0
2, 171520, Note_on_c, 0, 67, 96
2, 171776, Note_off_c, 0, 67, 0
2, 171776, Note_on_c, 0, 65, 96
2, 172032, Note_off_c, 0, 65, 0
2, 172032, Note_on_c, 0, 67, 96
2, 172544, Note_off_c, 0, 67, 0
2, 172544, Note_on_c, 0, 75, 96
2, 173312, Note_off_c, 0, 75, 0
2, 173312, Note_on_c, 0, 74, 96
2, 173824, Note_off_c, 0, 74, 0
2, 173824, Note_on_c, 0, 72, 96
2, 174080, Note_off_c, 0, 72, 0
2, 174080, Note_on_c, 0, 71, 96
2, 174592, Note_off_c, 0, 71, 0
2, 174592, Note_on_c, 0, 74, 96
2, 175104, Note_off_c, 0, 74, 0
2, 175104, Note_on_c, 0, 72, 96
2, 175616, Note_off_c, 0, 72, 0
2, 175616, Note_on_c, 0, 75, 96
2, 176128, Note_off_c, 0, 75, 0
2, 176128, Note_on_c, 0, 68, 96
2, 176640, Note_off_c, 0, 68, 0
2, 176640, Note_on_c, 0, 67, 96
2, 177152, Note_off_c, 0, 67, 0
2, 177152, Note_on_c, 0, 72, 96
2, 178688, Note_off_c, 0, 72, 0
2, 178688, Note_on_c, 0, 75, 96
2, 178944, Note_off_c, 0, 75, 0
2, 178944, Note_on_c, 0, 74, 96
2, 179200, Note_off_c, 0, 74, 0
2, 179200, Note_on_c, 0, 71, 96
2, 179968, Note_off_c, 0, 71, 0
2, 179968, Note_on_c, 0, 72, 96
2, 180224, Note_off_c, 0, 72, 0
2, 180224, Note_on_c, 0, 72, 96
2, 180736, Note_off_c, 0, 72, 0
2, 180736, Note_on_c, 0, 73, 96
2, 181248, Note_off_c, 0, 73, 0
2, 181248, Note_on_c, 0, 72, 96
2, 181760, Note_off_c, 0, 72, 0
2, 181760, Note_on_c, 0, 70, 96
2, 182272, Note_off_c, 0, 70, 0
2, 182272, Note_on_c, 0, 68, 96
2, 182784, Note_off_c, 0, 68, 0
2, 182784, Note_on_c, 0, 73, 96
2, 183296, Note_off_c, 0, 73, 0
2, 183296, Note_on_c, 0, 72, 96
2, 183808, Note_off_c, 0, 72, 0
2, 183808, Note_on_c, 0, 76, 96
2, 184320, Note_off_c, 0, 76, 0
2, 184320, Note_on_c, 0, 77, 96
2, 184832, Note_off_c, 0, 77, 0
2, 184832, Note_on_c, 0, 65, 96
2, 185344, Note_off_c, 0, 65, 0
2, 185344, Note_on_c, 0, 70, 96
2, 186880, Note_off_c, 0, 70, 0
2, 186880, Note_on_c, 0, 73, 96
2, 187392, Note_off_c, 0, 73, 0
2, 187392, Note_on_c, 0, 72, 96
2, 187648, Note_off_c, 0, 72, 0
2, 187648, Note_on_c, 0, 70, 96
2, 187904, Note_off_c, 0, 70, 0
2, 187904, Note_on_c, 0, 68, 96
2, 188160, Note_off_c, 0, 68, 0
2, 188160, Note_on_c, 0, 67, 96
2, 188416, Note_off_c, 0, 67, 0
2, 188416, Note_on_c, 0, 68, 96
2, 188928, Note_off_c, 0, 68, 0
2, 188928, Note_on_c, 0, 72, 96
2, 189184, Note_off_c, 0, 72, 0
2, 189184, Note_on_c, 0, 71, 96
2, 189440, Note_off_c, 0, 71, 0
2, 189440, Note_on_c, 0, 72, 96
2, 190976, Note_off_c, 0, 72, 0
2, 190976, Note_on_c, 0, 71, 96
2, 191232, Note_off_c, 0, 71, 0
2, 191232, Note_on_c, 0, 72, 96
2, 191488, Note_off_c, 0, 72, 0
2, 191488, Note_on_c, 0, 74, 96
2, 192000, Note_off_c, 0, 74, 0
2, 192000, Note_on_c, 0, 67, 96
2, 192512, Note_off_c, 0, 67, 0
2, 192512, Note_on_c, 0, 72, 96
2, 193024, Note_off_c, 0, 72, 0
2, 193024, Note_on_c, 0, 72, 96
2, 193280, Note_off_c, 0, 72, 0
2, 193280, Note_on_c, 0, 71, 96
2, 193536, Note_off_c, 0, 71, 0
2, 193536, Note_on_c, 0, 72, 96
2, 194048, Note_off_c, 0, 72, 0
2, 194048, Note_on_c, 0, 74, 96
2, 194560, Note_off_c, 0, 74, 0
2, 194560, Note_on_c, 0, 75, 96
2, 195072, Note_off_c, 0, 75, 0
2, 195072, Note_on_c, 0, 74, 96
2, 195328, Note_off_c, 0, 74, 0
2, 195328, Note_on_c, 0, 72, 96
2, 195584, Note_off_c, 0, 72, 0
2, 195584, Note_on_c, 0, 74, 96
2, 196096, Note_off_c, 0, 74, 0
2, 196096, Note_on_c, 0, 71, 96
2, 196608, Note_off_c, 0, 71, 0
2, 196608, Note_on_c, 0, 72, 96
2, 199168, Note_off_c, 0, 72, 0
2, 199168, Note_on_c, 0, 74, 96
2, 199680, Note_off_c, 0, 74, 0
2, 199680, Note_on_c, 0, 67, 96
2, 200192, Note_off_c, 0, 67, 0
2, 200192, Note_on_c, 0, 71, 96
2, 200704, Note_off_c, 0, 71, 0
2, 200704, Note_on_c, 0, 72, 96
2, 204800, Note_off_c, 0, 72, 0
2, 204800, End_track
3, 0, Start_track
3, 0, Title_t, "Instrument 2"
3, 7168, Note_on_c, 1, 60, 96
3, 8192, Note_off_c, 1, 60, 0
3, 8192, Note_on_c, 1, 67, 96
3, 8704, Note_off_c, 1, 67, 0
3, 8704, Note_on_c, 1, 66, 96
3, 9216, Note_off_c, 1, 66, 0
3, 9216, Note_on_c, 1, 67, 96
3, 9728, Note_off_c, 1, 67, 0
3, 9728, Note_on_c, 1, 69, 96
3, 10240, Note_off_c, 1, 69, 0
3, 10240, Note_on_c, 1, 70, 96
3, 10752, Note_off_c, 1, 70, 0
3, 10752, Note_on_c, 1, 69, 96
3, 11008, Note_off_c, 1, 69, 0
3, 11008, Note_on_c, 1, 67, 96
3, 11264, Note_off_c, 1, 67, 0
3, 11264, Note_on_c, 1, 69, 96
3, 11776, Note_off_c, 1, 69, 0
3, 11776, Note_on_c, 1, 66, 96
3, 12288, Note_off_c, 1, 66, 0
3, 12288, Note_on_c, 1, 67, 96
3, 13312, Note_off_c, 1, 67, 0
3, 13312, Note_on_c, 1, 62, 96
3, 13824, Note_off_c, 1, 62, 0
3, 13824, Note_on_c, 1, 70, 96
3, 14336, Note_off_c, 1, 70, 0
3, 14336, Note_on_c, 1, 70, 96
3, 14848, Note_off_c, 1, 70, 0
3, 14848, Note_on_c, 1, 68, 96
3, 15360, Note_off_c, 1, 68, 0
3, 15360, Note_on_c, 1, 68, 96
3, 16384, Note_off_c, 1, 68, 0
3, 16896, Note_on_c, 1, 67, 96
3, 17152, Note_off_c, 1, 67, 0
3, 17152, Note_on_c, 1, 65, 96
3, 17408, Note_off_c, 1, 65, 0
3, 17408, Note_on_c, 1, 67, 96
3, 17920, Note_off_c, 1, 67, 0
3, 17920, Note_on_c, 1, 63, 96
3, 18432, Note_off_c, 1, 63, 0
3, 18432, Note_on_c, 1, 65, 96
3, 18944, Note_off_c, 1, 65, 0
3, 18944, Note_on_c, 1, 67, 96
3, 19456, Note_off_c, 1, 67, 0
3, 19456, Note_on_c, 1, 69, 96
3, 19968, Note_off_c, 1, 69, 0
3, 19968, Note_on_c, 1, 71, 96
3, 20480, Note_off_c, 1, 71, 0
3, 20480, Note_on_c, 1, 72, 96
3, 20992, Note_off_c, 1, 72, 0
3, 20992, Note_on_c, 1, 60, 96
3, 21504, Note_off_c, 1, 60, 0
3, 21504, Note_on_c, 1, 67, 96
3, 22016, Note_off_c, 1, 67, 0
3, 22016, Note_on_c, 1, 67, 96
3, 22528, Note_off_c, 1, 67, 0
3, 22528, Note_on_c, 1, 67, 96
3, 23040, Note_off_c, 1, 67, 0
3, 23040, Note_on_c, 1, 65, 96
3, 23296, Note_off_c, 1, 65, 0
3, 23296, Note_on_c, 1, 63, 96
3, 23552, Note_off_c, 1, 63, 0
3, 23552, Note_on_c, 1, 65, 96
3, 24064, Note_off_c, 1, 65, 0
3, 24064, Note_on_c, 1, 62, 96
3, 24576, Note_off_c, 1, 62, 0
3, 24576, Note_on_c, 1, 63, 96
3, 25088, Note_off_c, 1, 63, 0
3, 25088, Note_on_c, 1, 65, 96
3, 25344, Note_off_c, 1, 65, 0
3, 25344, Note_on_c, 1, 67, 96
3, 25600, Note_off_c, 1, 67, 0
3, 25600, Note_on_c, 1, 68, 96
3, 25856, Note_off_c, 1, 68, 0
3, 25856, Note_on_c, 1, 67, 96
3, 26112, Note_off_c, 1, 67, 0
3, 26112, Note_on_c, 1, 68, 96
3, 26624, Note_off_c, 1, 68, 0
3, 26624, Note_on_c, 1, 67, 96
3, 27136, Note_off_c, 1, 67, 0
3, 27136, Note_on_c, 1, 65, 96
3, 27648, Note_off_c, 1, 65, 0
3, 27648, Note_on_c, 1, 65, 96
3, 28160, Note_off_c, 1, 65, 0
3, 28160, Note_on_c, 1, 65, 96
3, 28672, Note_off_c, 1, 65, 0
3, 28672, Note_on_c, 1, 65, 96
3, 29184, Note_off_c, 1, 65, 0
3, 29184, Note_on_c, 1, 63, 96
3, 29696, Note_off_c, 1, 63, 0
3, 29696, Note_on_c, 1, 62, 96
3, 30720, Note_off_c, 1, 62, 0
3, 31232, Note_on_c, 1, 63, 96
3, 31488, Note_off_c, 1, 63, 0
3, 31488, Note_on_c, 1, 62, 96
3, 31744, Note_off_c, 1, 62, 0
3, 31744, Note_on_c, 1, 63, 96
3, 32256, Note_off_c, 1, 63, 0
3, 32256, Note_on_c, 1, 60, 96
3, 32768, Note_off_c, 1, 60, 0
3, 32768, Note_on_c, 1, 62, 96
3, 33280, Note_off_c, 1, 62, 0
3, 33280, Note_on_c, 1, 64, 96
3, 33792, Note_off_c, 1, 64, 0
3, 33792, Note_on_c, 1, 66, 96
3, 34304, Note_off_c, 1, 66, 0
3, 34304, Note_on_c, 1, 69, 96
3, 35328, Note_off_c, 1, 69, 0
3, 35328, Note_on_c, 1, 67, 96
3, 35840, Note_off_c, 1, 67, 0
3, 35840, Note_on_c, 1, 67, 96
3, 36864, Note_off_c, 1, 67, 0
3, 37376, Note_on_c, 1, 67, 96
3, 37632, Note_off_c, 1, 67, 0
3, 37632, Note_on_c, 1, 65, 96
3, 37888, Note_off_c, 1, 65, 0
3, 37888, Note_on_c, 1, 67, 96
3, 38400, Note_off_c, 1, 67, 0
3, 38400, Note_on_c, 1, 68, 96
3, 38912, Note_off_c, 1, 68, 0
3, 38912, Note_on_c, 1, 70, 96
3, 39424, Note_off_c, 1, 70, 0
3, 39424, Note_on_c, 1, 68, 96
3, 39680, Note_off_c, 1, 68, 0
3, 39680, Note_on_c, 1, 67, 96
3, 39936, Note_off_c, 1, 67, 0
3, 39936, Note_on_c, 1, 68, 96
3, 40448, Note_off_c, 1, 68, 0
3, 40448, Note_on_c, 1, 65, 96
3, 40960, Note_off_c, 1, 65, 0
3, 40960, Note_on_c, 1, 63, 96
3, 41984, Note_off_c, 1, 63, 0
3, 42496, Note_on_c, 1, 63, 96
3, 43008, Note_off_c, 1, 63, 0
3, 43008, Note_on_c, 1, 70, 96
3, 43520, Note_off_c, 1, 70, 0
3, 43520, Note_on_c, 1, 69, 96
3, 44032, Note_off_c, 1, 69, 0
3, 44032, Note_on_c, 1, 70, 96
3, 44544, Note_off_c, 1, 70, 0
3, 44544, Note_on_c, 1, 72, 96
3, 45056, Note_off_c, 1, 72, 0
3, 45056, Note_on_c, 1, 74, 96
3, 45568, Note_off_c, 1, 74, 0
3, 45568, Note_on_c, 1, 72, 96
3, 45824, Note_off_c, 1, 72, 0
3, 45824, Note_on_c, 1, 70, 96
3, 46080, Note_off_c, 1, 70, 0
3, 46080, Note_on_c, 1, 72, 96
3, 46592, Note_off_c, 1, 72, 0
3, 46592, Note_on_c, 1, 69, 96
3, 47104, Note_off_c, 1, 69, 0
3, 47104, Note_on_c, 1, 70, 96
3, 48128, Note_off_c, 1, 70, 0
3, 48128, Note_on_c, 1, 65, 96
3, 48640, Note_off_c, 1, 65, 0
3, 48640, Note_on_c, 1, 67, 96
3, 49152, Note_off_c, 1, 67, 0
3, 49152, Note_on_c, 1, 67, 96
3, 49664, Note_off_c, 1, 67, 0
3, 49664, Note_on_c, 1, 65, 96
3, 50176, Note_off_c, 1, 65, 0
3, 50176, Note_on_c, 1, 65, 96
3, 51200, Note_off_c, 1, 65, 0
3, 51712, Note_on_c, 1, 63, 96
3, 51968, Note_off_c, 1, 63, 0
3, 51968, Note_on_c, 1, 62, 96
3, 52224, Note_off_c, 1, 62, 0
3, 52224, Note_on_c, 1, 63, 96
3, 52736, Note_off_c, 1, 63, 0
3, 52736, Note_on_c, 1, 65, 96
3, 53248, Note_off_c, 1, 65, 0
3, 53248, Note_on_c, 1, 67, 96
3, 53760, Note_off_c, 1, 67, 0
3, 53760, Note_on_c, 1, 65, 96
3, 54016, Note_off_c, 1, 65, 0
3, 54016, Note_on_c, 1, 63, 96
3, 54272, Note_off_c, 1, 63, 0
3, 54272, Note_on_c, 1, 65, 96
3, 54784, Note_off_c, 1, 65, 0
3, 54784, Note_on_c, 1, 62, 96
3, 55296, Note_off_c, 1, 62, 0
3, 55296, Note_on_c, 1, 63, 96
3, 55808, Note_off_c, 1, 63, 0
3, 55808, Note_on_c, 1, 68, 96
3, 56320, Note_off_c, 1, 68, 0
3, 56320, Note_on_c, 1, 68, 96
3, 56832, Note_off_c, 1, 68, 0
3, 56832, Note_on_c, 1, 67, 96
3, 57344, Note_off_c, 1, 67, 0
3, 57344, Note_on_c, 1, 67, 96
3, 57856, Note_off_c, 1, 67, 0
3, 57856, Note_on_c, 1, 72, 96
3, 58368, Note_off_c, 1, 72, 0
3, 58368, Note_on_c, 1, 72, 96
3, 58880, Note_off_c, 1, 72, 0
3, 58880, Note_on_c, 1, 70, 96
3, 59392, Note_off_c, 1, 70, 0
3, 59392, Note_on_c, 1, 70, 96
3, 59904, Note_off_c, 1, 70, 0
3, 59904, Note_on_c, 1, 68, 96
3, 60160, Note_off_c, 1, 68, 0
3, 60160, Note_on_c, 1, 67, 96
3, 60416, Note_off_c, 1, 67, 0
3, 60416, Note_on_c, 1, 68, 96
3, 60928, Note_off_c, 1, 68, 0
3, 60928, Note_on_c, 1, 67, 96
3, 61952, Note_off_c, 1, 67, 0
3, 61952, Note_on_c, 1, 65, 96
3, 62208, Note_off_c, 1, 65, 0
3, 62208, Note_on_c, 1, 63, 96
3, 62464, Note_off_c, 1, 63, 0
3, 62464, Note_on_c, 1, 65, 96
3, 62976, Note_off_c, 1, 65, 0
3, 62976, Note_on_c, 1, 62, 96
3, 63488, Note_off_c, 1, 62, 0
3, 63488, Note_on_c, 1, 63, 96
3, 64256, Note_off_c, 1, 63, 0
3, 64256, Note_on_c, 1, 65, 96
3, 64512, Note_off_c, 1, 65, 0
3, 64512, Note_on_c, 1, 62, 96
3, 65280, Note_off_c, 1, 62, 0
3, 65280, Note_on_c, 1, 60, 96
3, 65536, Note_off_c, 1, 60, 0
3, 65536, Note_on_c, 1, 60, 96
3, 66560, Note_off_c, 1, 60, 0
3, 72704, Note_on_c, 1, 60, 96
3, 73728, Note_off_c, 1, 60, 0
3, 73728, Note_on_c, 1, 67, 96
3, 74240, Note_off_c, 1, 67, 0
3, 74240, Note_on_c, 1, 66, 96
3, 74752, Note_off_c, 1, 66, 0
3, 74752, Note_on_c, 1, 67, 96
3, 75264, Note_off_c, 1, 67, 0
3, 75264, Note_on_c, 1, 69, 96
3, 75776, Note_off_c, 1, 69, 0
3, 75776, Note_on_c, 1, 70, 96
3, 76288, Note_off_c, 1, 70, 0
3, 76288, Note_on_c, 1, 69, 96
3, 76544, Note_off_c, 1, 69, 0
3, 76544, Note_on_c, 1, 67, 96
3, 76800, Note_off_c, 1, 67, 0
3, 76800, Note_on_c, 1, 69, 96
3, 77312, Note_off_c, 1, 69, 0
3, 77312, Note_on_c, 1, 66, 96
3, 77824, Note_off_c, 1, 66, 0
3, 77824, Note_on_c, 1, 67, 96
3, 78848, Note_off_c, 1, 67, 0
3, 78848, Note_on_c, 1, 62, 96
3, 79360, Note_off_c, 1, 62, 0
3, 79360, Note_on_c, 1, 70, 96
3, 79872, Note_off_c, 1, 70, 0
3, 79872, Note_on_c, 1, 70, 96
3, 80384, Note_off_c, 1, 70, 0
3, 80384, Note_on_c, 1, 68, 96
3, 80896, Note_off_c, 1, 68, 0
3, 80896, Note_on_c, 1, 68, 96
3, 81920, Note_off_c, 1, 68, 0
3, 82432, Note_on_c, 1, 67, 96
3, 82688, Note_off_c, 1, 67, 0
3, 82688, Note_on_c, 1, 65, 96
3, 82944, Note_off_c, 1, 65, 0
3, 82944, Note_on_c, 1, 67, 96
3, 83456, Note_off_c, 1, 67, 0
3, 83456, Note_on_c, 1, 63, 96
3, 83968, Note_off_c, 1, 63, 0
3, 83968, Note_on_c, 1, 65, 96
3, 84480, Note_off_c, 1, 65, 0
3, 84480, Note_on_c, 1, 67, 96
3, 84992, Note_off_c, 1, 67, 0
3, 84992, Note_on_c, 1, 69, 96
3, 85504, Note_off_c, 1, 69, 0
3, 85504, Note_on_c, 1, 71, 96
3, 86016, Note_off_c, 1, 71, 0
3, 86016, Note_on_c, 1, 72, 96
3, 86528, Note_off_c, 1, 72, 0
3, 86528, Note_on_c, 1, 60, 96
3, 87040, Note_off_c, 1, 60, 0
3, 87040, Note_on_c, 1, 67, 96
3, 87552, Note_off_c, 1, 67, 0
3, 87552, Note_on_c, 1, 67, 96
3, 88064, Note_off_c, 1, 67, 0
3, 88064, Note_on_c, 1, 67, 96
3, 88576, Note_off_c, 1, 67, 0
3, 88576, Note_on_c, 1, 65, 96
3, 88832, Note_off_c, 1, 65, 0
3, 88832, Note_on_c, 1, 63, 96
3, 89088, Note_off_c, 1, 63, 0
3, 89088, Note_on_c, 1, 65, 96
3, 89600, Note_off_c, 1, 65, 0
3, 89600, Note_on_c, 1, 62, 96
3, 90112, Note_off_c, 1, 62, 0
3, 90112, Note_on_c, 1, 63, 96
3, 90624, Note_off_c, 1, 63, 0
3, 90624, Note_on_c, 1, 65, 96
3, 90880, Note_off_c, 1, 65, 0
3, 90880, Note_on_c, 1, 67, 96
3, 91136, Note_off_c, 1, 67, 0
3, 91136, Note_on_c, 1, 68, 96
3, 91392, Note_off_c, 1, 68, 0
3, 91392, Note_on_c, 1, 67, 96
3, 91648, Note_off_c, 1, 67, 0
3, 91648, Note_on_c, 1, 68, 96
3, 92160, Note_off_c, 1, 68, 0
3, 92160, Note_on_c, 1, 67, 96
3, 92672, Note_off_c, 1, 67, 0
3, 92672, Note_on_c, 1, 65, 96
3, 93184, Note_off_c, 1, 65, 0
3, 93184, Note_on_c, 1, 65, 96
3, 93696, Note_off_c, 1, 65, 0
3, 93696, Note_on_c, 1, 65, 96
3, 94208, Note_off_c, 1, 65, 0
3, 94208, Note_on_c, 1, 65, 96
3, 94720, Note_off_c, 1, 65, 0
3, 94720, Note_on_c, 1, 63, 96
3, 95232, Note_off_c, 1, 63, 0
3, 95232, Note_on_c, 1, 62, 96
3, 96256, Note_off_c, 1, 62, 0
3, 96768, Note_on_c, 1, 63, 96
3, 97024, Note_off_c, 1, 63, 0
3, 97024, Note_on_c, 1, 62, 96
3, 97280, Note_off_c, 1, 62, 0
3, 97280, Note_on_c, 1, 63, 96
3, 97792, Note_off_c, 1, 63, 0
3, 97792, Note_on_c, 1, 60, 96
3, 98304, Note_off_c, 1, 60, 0
3, 98304, Note_on_c, 1, 62, 96
3, 98816, Note_off_c, 1, 62, 0
3, 98816, Note_on_c, 1, 64, 96
3, 99328, Note_off_c, 1, 64, 0
3, 99328, Note_on_c, 1, 66, 96
3, 99840, Note_off_c, 1, 66, 0
3, 99840, Note_on_c, 1, 69, 96
3, 100864, Note_off_c, 1, 69, 0
3, 100864, Note_on_c, 1, 67, 96
3, 101376, Note_off_c, 1, 67, 0
3, 101376, Note_on_c, 1, 67, 96
3, 102400, Note_off_c, 1, 67, 0
3, 102912, Note_on_c, 1, 67, 96
3, 103168, Note_off_c, 1, 67, 0
3, 103168, Note_on_c, 1, 65, 96
3, 103424, Note_off_c, 1, 65, 0
3, 103424, Note_on_c, 1, 67, 96
3, 103936, Note_off_c, 1, 67, 0
3, 103936, Note_on_c, 1, 68, 96
3, 104448, Note_off_c, 1, 68, 0
3, 104448, Note_on_c, 1, 70, 96
3, 104960, Note_off_c, 1, 70, 0
3, 104960, Note_on_c, 1, 68, 96
3, 105216, Note_off_c, 1, 68, 0
3, 105216, Note_on_c, 1, 67, 96
3, 105472, Note_off_c, 1, 67, 0
3, 105472, Note_on_c, 1, 68, 96
3, 105984, Note_off_c, 1, 68, 0
3, 105984, Note_on_c, 1, 65, 96
3, 106496, Note_off_c, 1, 65, 0
3, 106496, Note_on_c, 1, 63, 96
3, 107520, Note_off_c, 1, 63, 0
3, 108032, Note_on_c, 1, 63, 96
3, 108544, Note_off_c, 1, 63, 0
3, 108544, Note_on_c, 1, 70, 96
3, 109056, Note_off_c, 1, 70, 0
3, 109056, Note_on_c, 1, 69, 96
3, 109568, Note_off_c, 1, 69, 0
3, 109568, Note_on_c, 1, 70, 96
3, 110080, Note_off_c, 1, 70, 0
3, 110080, Note_on_c, 1, 72, 96
3, 110592, Note_off_c, 1, 72, 0
3, 110592, Note_on_c, 1, 74, 96
3, 111104, Note_off_c, 1, 74, 0
3, 111104, Note_on_c, 1, 72, 96
3, 111360, Note_off_c, 1, 72, 0
3, 111360, Note_on_c, 1, 70, 96
3, 111616, Note_off_c, 1, 70, 0
3, 111616, Note_on_c, 1, 72, 96
3, 112128, Note_off_c, 1, 72, 0
3, 112128, Note_on_c, 1, 69, 96
3, 112640, Note_off_c, 1, 69, 0
3, 112640, Note_on_c, 1, 70, 96
3, 113664, Note_off_c, 1, 70, 0
3, 113664, Note_on_c, 1, 65, 96
3, 114176, Note_off_c, 1, 65, 0
3, 114176, Note_on_c, 1, 67, 96
3, 114688, Note_off_c, 1, 67, 0
3, 114688, Note_on_c, 1, 67, 96
3, 115200, Note_off_c, 1, 67, 0
3, 115200, Note_on_c, 1, 65, 96
3, 115712, Note_off_c, 1, 65, 0
3, 115712, Note_on_c, 1, 65, 96
3, 116736, Note_off_c, 1, 65, 0
3, 117248, Note_on_c, 1, 63, 96
3, 117504, Note_off_c, 1, 63, 0
3, 117504, Note_on_c, 1, 62, 96
3, 117760, Note_off_c, 1, 62, 0
3, 117760, Note_on_c, 1, 63, 96
3, 118272, Note_off_c, 1, 63, 0
3, 118272, Note_on_c, 1, 65, 96
3, 118784, Note_off_c, 1, 65, 0
3, 118784, Note_on_c, 1, 67, 96
3, 119296, Note_off_c, 1, 67, 0
3, 119296, Note_on_c, 1, 65, 96
3, 119552, Note_off_c, 1, 65, 0
3, 119552, Note_on_c, 1, 63, 96
3, 119808, Note_off_c, 1, 63, 0
3, 119808, Note_on_c, 1, 65, 96
3, 120320, Note_off_c, 1, 65, 0
3, 120320, Note_on_c, 1, 62, 96
3, 120832, Note_off_c, 1, 62, 0
3, 120832, Note_on_c, 1, 63, 96
3, 121344, Note_off_c, 1, 63, 0
3, 121344, Note_on_c, 1, 68, 96
3, 121856, Note_off_c, 1, 68, 0
3, 121856, Note_on_c, 1, 68, 96
3, 122368, Note_off_c, 1, 68, 0
3, 122368, Note_on_c, 1, 67, 96
3, 122880, Note_off_c, 1, 67, 0
3, 122880, Note_on_c, 1, 67, 96
3, 123392, Note_off_c, 1, 67, 0
3, 123392, Note_on_c, 1, 72, 96
3, 123904, Note_off_c, 1, 72, 0
3, 123904, Note_on_c, 1, 72, 96
3, 124416, Note_off_c, 1, 72, 0
3, 124416, Note_on_c, 1, 70, 96
3, 124928, Note_off_c, 1, 70, 0
3, 124928, Note_on_c, 1, 70, 96
3, 125440, Note_off_c, 1, 70, 0
3, 125440, Note_on_c, 1, 68, 96
3, 125696, Note_off_c, 1, 68, 0
3, 125696, Note_on_c, 1, 67, 96
3, 125952, Note_off_c, 1, 67, 0
3, 125952, Note_on_c, 1, 68, 96
3, 126464, Note_off_c, 1, 68, 0
3, 126464, Note_on_c, 1, 67, 96
3, 127488, Note_off_c, 1, 67, 0
3, 127488, Note_on_c, 1, 65, 96
3, 127744, Note_off_c, 1, 65, 0
3, 127744, Note_on_c, 1, 63, 96
3, 128000, Note_off_c, 1, 63, 0
3, 128000, Note_on_c, 1, 65, 96
3, 128512, Note_off_c, 1, 65, 0
3, 128512, Note_on_c, 1, 62, 96
3, 129024, Note_off_c, 1, 62, 0
3, 129024, Note_on_c, 1, 63, 96
3, 129792, Note_off_c, 1, 63, 0
3, 129792, Note_on_c, 1, 65, 96
3, 130048, Note_off_c, 1, 65, 0
3, 130048, Note_on_c, 1, 62, 96
3, 130816, Note_off_c, 1, 62, 0
3, 130816, Note_on_c, 1, 60, 96
3, 131072, Note_off_c, 1, 60, 0
3, 131072, Note_on_c, 1, 60, 96
3, 132096, Note_off_c, 1, 60, 0
3, 132608, Note_on_c, 1, 62, 96
3, 133120, Note_off_c, 1, 62, 0
3, 133120, Note_on_c, 1, 63, 96
3, 133632, Note_off_c, 1, 63, 0
3, 133632, Note_on_c, 1, 68, 96
3, 134656, Note_off_c, 1, 68, 0
3, 134656, Note_on_c, 1, 67, 96
3, 134912, Note_off_c, 1, 67, 0
3, 134912, Note_on_c, 1, 65, 96
3, 135168, Note_off_c, 1, 65, 0
3, 135168, Note_on_c, 1, 67, 96
3, 135680, Note_off_c, 1, 67, 0
3, 135680, Note_on_c, 1, 72, 96
3, 136704, Note_off_c, 1, 72, 0
3, 136704, Note_on_c, 1, 70, 96
3, 136960, Note_off_c, 1, 70, 0
3, 136960, Note_on_c, 1, 68, 96
3, 137216, Note_off_c, 1, 68, 0
3, 137216, Note_on_c, 1, 70, 96
3, 137728, Note_off_c, 1, 70, 0
3, 137728, Note_on_c, 1, 63, 96
3, 138240, Note_off_c, 1, 63, 0
3, 138240, Note_on_c, 1, 67, 96
3, 138496, Note_off_c, 1, 67, 0
3, 138496, Note_on_c, 1, 65, 96
3, 138752, Note_off_c, 1, 65, 0
3, 138752, Note_on_c, 1, 63, 96
3, 139008, Note_off_c, 1, 63, 0
3, 139008, Note_on_c, 1, 62, 96
3, 139264, Note_off_c, 1, 62, 0
3, 139264, Note_on_c, 1, 63, 96
3, 139776, Note_off_c, 1, 63, 0
3, 139776, Note_on_c, 1, 67, 96
3, 140288, Note_off_c, 1, 67, 0
3, 140288, Note_on_c, 1, 65, 96
3, 140800, Note_off_c, 1, 65, 0
3, 140800, Note_on_c, 1, 63, 96
3, 141312, Note_off_c, 1, 63, 0
3, 141312, Note_on_c, 1, 62, 96
3, 141824, Note_off_c, 1, 62, 0
3, 141824, Note_on_c, 1, 70, 96
3, 142336, Note_off_c, 1, 70, 0
3, 142336, Note_on_c, 1, 69, 96
3, 143104, Note_off_c, 1, 69, 0
3, 143104, Note_on_c, 1, 72, 96
3, 143360, Note_off_c, 1, 72, 0
3, 143360, Note_on_c, 1, 65, 96
3, 143872, Note_off_c, 1, 65, 0
3, 143872, Note_on_c, 1, 70, 96
3, 144384, Note_off_c, 1, 70, 0
3, 144384, Note_on_c, 1, 63, 96
3, 145408, Note_off_c, 1, 63, 0
3, 145920, Note_on_c, 1, 62, 96
3, 146432, Note_off_c, 1, 62, 0
3, 146432, Note_on_c, 1, 65, 96
3, 146688, Note_off_c, 1, 65, 0
3, 146688, Note_on_c, 1, 63, 96
3, 146944, Note_off_c, 1, 63, 0
3, 146944, Note_on_c, 1, 62, 96
3, 147200, Note_off_c, 1, 62, 0
3, 147200, Note_on_c, 1, 60, 96
3, 147456, Note_off_c, 1, 60, 0
3, 147456, Note_on_c, 1, 62, 96
3, 147968, Note_off_c, 1, 62, 0
3, 147968, Note_on_c, 1, 68, 96
3, 148480, Note_off_c, 1, 68, 0
3, 148480, Note_on_c, 1, 67, 96
3, 148992, Note_off_c, 1, 67, 0
3, 148992, Note_on_c, 1, 65, 96
3, 149504, Note_off_c, 1, 65, 0
3, 149504, Note_on_c, 1, 63, 96
3, 150016, Note_off_c, 1, 63, 0
3, 150016, Note_on_c, 1, 60, 96
3, 150528, Note_off_c, 1, 60, 0
3, 150528, Note_on_c, 1, 68, 96
3, 151552, Note_off_c, 1, 68, 0
3, 152064, Note_on_c, 1, 67, 96
3, 152576, Note_off_c, 1, 67, 0
3, 152576, Note_on_c, 1, 63, 96
3, 153088, Note_off_c, 1, 63, 0
3, 153088, Note_on_c, 1, 72, 96
3, 153600, Note_off_c, 1, 72, 0
3, 153600, Note_on_c, 1, 62, 96
3, 154112, Note_off_c, 1, 62, 0
3, 154112, Note_on_c, 1, 63, 96
3, 154624, Note_off_c, 1, 63, 0
3, 154624, Note_on_c, 1, 58, 96
3, 155136, Note_off_c, 1, 58, 0
3, 155136, Note_on_c, 1, 62, 96
3, 155648, Note_off_c, 1, 62, 0
3, 155648, Note_on_c, 1, 63, 96
3, 156160, Note_off_c, 1, 63, 0
3, 156160, Note_on_c, 1, 70, 96
3, 156672, Note_off_c, 1, 70, 0
3, 156672, Note_on_c, 1, 73, 96
3, 157184, Note_off_c, 1, 73, 0
3, 157184, Note_on_c, 1, 72, 96
3, 157696, Note_off_c, 1, 72, 0
3, 157696, Note_on_c, 1, 68, 96
3, 158720, Note_off_c, 1, 68, 0
3, 165376, Note_on_c, 1, 62, 96
3, 165888, Note_off_c, 1, 62, 0
3, 165888, Note_on_c, 1, 63, 96
3, 166400, Note_off_c, 1, 63, 0
3, 166400, Note_on_c, 1, 68, 96
3, 167424, Note_off_c, 1, 68, 0
3, 167424, Note_on_c, 1, 67, 96
3, 167680, Note_off_c, 1, 67, 0
3, 167680, Note_on_c, 1, 65, 96
3, 167936, Note_off_c, 1, 65, 0
3, 167936, Note_on_c, 1, 67, 96
3, 168448, Note_off_c, 1, 67, 0
3, 168448, Note_on_c, 1, 72, 96
3, 169472, Note_off_c, 1, 72, 0
3, 169472, Note_on_c, 1, 70, 96
3, 169728, Note_off_c, 1, 70, 0
3, 169728, Note_on_c, 1, 68, 96
3, 169984, Note_off_c, 1, 68, 0
3, 169984, Note_on_c, 1, 70, 96
3, 170496, Note_off_c, 1, 70, 0
3, 170496, Note_on_c, 1, 63, 96
3, 171008, Note_off_c, 1, 63, 0
3, 171008, Note_on_c, 1, 67, 96
3, 171264, Note_off_c, 1, 67, 0
3, 171264, Note_on_c, 1, 65, 96
3, 171520, Note_off_c, 1, 65, 0
3, 171520, Note_on_c, 1, 63, 96
3, 171776, Note_off_c, 1, 63, 0
3, 171776, Note_on_c, 1, 62, 96
3, 172032, Note_off_c, 1, 62, 0
3, 172032, Note_on_c, 1, 63, 96
3, 172544, Note_off_c, 1, 63, 0
3, 172544, Note_on_c, 1, 67, 96
3, 173312, Note_off_c, 1, 67, 0
3, 173312, Note_on_c, 1, 65, 96
3, 173824, Note_off_c, 1, 65, 0
3, 173824, Note_on_c, 1, 63, 96
3, 174080, Note_off_c, 1, 63, 0
3, 174080, Note_on_c, 1, 62, 96
3, 174592, Note_off_c, 1, 62, 0
3, 174592, Note_on_c, 1, 68, 96
3, 175104, Note_off_c, 1, 68, 0
3, 175104, Note_on_c, 1, 67, 96
3, 175616, Note_off_c, 1, 67, 0
3, 175616, Note_on_c, 1, 72, 96
3, 176128, Note_off_c, 1, 72, 0
3, 176128, Note_on_c, 1, 65, 96
3, 177152, Note_off_c, 1, 65, 0
3, 177152, Note_on_c, 1, 64, 96
3, 177664, Note_off_c, 1, 64, 0
3, 177664, Note_on_c, 1, 67, 96
3, 178176, Note_off_c, 1, 67, 0
3, 178176, Note_on_c, 1, 60, 96
3, 178688, Note_off_c, 1, 60, 0
3, 178688, Note_on_c, 1, 68, 96
3, 179200, Note_off_c, 1, 68, 0
3, 179200, Note_on_c, 1, 67, 96
3, 179712, Note_off_c, 1, 67, 0
3, 179712, Note_on_c, 1, 65, 96
3, 180224, Note_off_c, 1, 65, 0
3, 180224, Note_on_c, 1, 64, 96
3, 180736, Note_off_c, 1, 64, 0
3, 180736, Note_on_c, 1, 65, 96
3, 181248, Note_off_c, 1, 65, 0
3, 181248, Note_on_c, 1, 67, 96
3, 182784, Note_off_c, 1, 67, 0
3, 182784, Note_on_c, 1, 65, 96
3, 183296, Note_off_c, 1, 65, 0
3, 183296, Note_on_c, 1, 64, 96
3, 183808, Note_off_c, 1, 64, 0
3, 183808, Note_on_c, 1, 67, 96
3, 184320, Note_off_c, 1, 67, 0
3, 184320, Note_on_c, 1, 60, 96
3, 184832, Note_off_c, 1, 60, 0
3, 185856, Note_on_c, 1, 73, 96
3, 186368, Note_off_c, 1, 73, 0
3, 186368, Note_on_c, 1, 64, 96
3, 186880, Note_off_c, 1, 64, 0
3, 186880, Note_on_c, 1, 65, 96
3, 187136, Note_off_c, 1, 65, 0
3, 187136, Note_on_c, 1, 64, 96
3, 187392, Note_off_c, 1, 64, 0
3, 187392, Note_on_c, 1, 65, 96
3, 188160, Note_off_c, 1, 65, 0
3, 188160, Note_on_c, 1, 67, 96
3, 188928, Note_off_c, 1, 67, 0
3, 188928, Note_on_c, 1, 68, 96
3, 189184, Note_off_c, 1, 68, 0
3, 189184, Note_on_c, 1, 67, 96
3, 189440, Note_off_c, 1, 67, 0
3, 189440, Note_on_c, 1, 65, 96
3, 189696, Note_off_c, 1, 65, 0
3, 189696, Note_on_c, 1, 63, 96
3, 189952, Note_off_c, 1, 63, 0
3, 189952, Note_on_c, 1, 62, 96
3, 190208, Note_off_c, 1, 62, 0
3, 190208, Note_on_c, 1, 60, 96
3, 190464, Note_off_c, 1, 60, 0
3, 190464, Note_on_c, 1, 67, 96
3, 195072, Note_off_c, 1, 67, 0
3, 195072, Note_on_c, 1, 65, 96
3, 195328, Note_off_c, 1, 65, 0
3, 195328, Note_on_c, 1, 63, 96
3, 195584, Note_off_c, 1, 63, 0
3, 195584, Note_on_c, 1, 65, 96
3, 197120, Note_off_c, 1, 65, 0
3, 197120, Note_on_c, 1, 63, 96
3, 197376, Note_off_c, 1, 63, 0
3, 197376, Note_on_c, 1, 62, 96
3, 197632, Note_off_c, 1, 62, 0
3, 197632, Note_on_c, 1, 63, 96
3, 198144, Note_off_c, 1, 63, 0
3, 198144, Note_on_c, 1, 65, 96
3, 198656, Note_off_c, 1, 65, 0
3, 198656, Note_on_c, 1, 67, 96
3, 199168, Note_off_c, 1, 67, 0
3, 199168, Note_on_c, 1, 68, 96
3, 199680, Note_off_c, 1, 68, 0
3, 199680, Note_on_c, 1, 63, 96
3, 200192, Note_off_c, 1, 63, 0
3, 200192, Note_on_c, 1, 62, 96
3, 200448, Note_off_c, 1, 62, 0
3, 200448, Note_on_c, 1, 60, 96
3, 200704, Note_off_c, 1, 60, 0
3, 200704, Note_on_c, 1, 60, 96
3, 204800, Note_off_c, 1, 60, 0
3, 204800, End_track
4, 0, Start_track
4, 0, Title_t, "Instrument 3"
4, 0, Note_on_c, 2, 48, 96
4, 512, Note_off_c, 2, 48, 0
4, 512, Note_on_c, 2, 60, 96
4, 768, Note_off_c, 2, 60, 0
4, 768, Note_on_c, 2, 59, 96
4, 1024, Note_off_c, 2, 59, 0
4, 1024, Note_on_c, 2, 60, 96
4, 1536, Note_off_c, 2, 60, 0
4, 1536, Note_on_c, 2, 55, 96
4, 2048, Note_off_c, 2, 55, 0
4, 2048, Note_on_c, 2, 56, 96
4, 2560, Note_off_c, 2, 56, 0
4, 2560, Note_on_c, 2, 56, 96
4, 2816, Note_off_c, 2, 56, 0
4, 2816, Note_on_c, 2, 55, 96
4, 3072, Note_off_c, 2, 55, 0
4, 3072, Note_on_c, 2, 56, 96
4, 3584, Note_off_c, 2, 56, 0
4, 3584, Note_on_c, 2, 53, 96
4, 4096, Note_off_c, 2, 53, 0
4, 4096, Note_on_c, 2, 55, 96
4, 4608, Note_off_c, 2, 55, 0
4, 4608, Note_on_c, 2, 53, 96
4, 4864, Note_off_c, 2, 53, 0
4, 4864, Note_on_c, 2, 51, 96
4, 5120, Note_off_c, 2, 51, 0
4, 5120, Note_on_c, 2, 53, 96
4, 5632, Note_off_c, 2, 53, 0
4, 5632, Note_on_c, 2, 50, 96
4, 6144, Note_off_c, 2, 50, 0
4, 6144, Note_on_c, 2, 51, 96
4, 6656, Note_off_c, 2, 51, 0
4, 6656, Note_on_c, 2, 51, 96
4, 6912, Note_off_c, 2, 51, 0
4, 6912, Note_on_c, 2, 50, 96
4, 7168, Note_off_c, 2, 50, 0
4, 7168, Note_on_c, 2, 51, 96
4, 7680, Note_off_c, 2, 51, 0
4, 7680, Note_on_c, 2, 48, 96
4, 8192, Note_off_c, 2, 48, 0
4, 8192, Note_on_c, 2, 46, 96
4, 8704, Note_off_c, 2, 46, 0
4, 8704, Note_on_c, 2, 46, 96
4, 8960, Note_off_c, 2, 46, 0
4, 8960, Note_on_c, 2, 45, 96
4, 9216, Note_off_c, 2, 45, 0
4, 9216, Note_on_c, 2, 46, 96
4, 9728, Note_off_c, 2, 46, 0
4, 9728, Note_on_c, 2, 42, 96
4, 10240, Note_off_c, 2, 42, 0
4, 10240, Note_on_c, 2, 43, 96
4, 10752, Note_off_c, 2, 43, 0
4, 10752, Note_on_c, 2, 51, 96
4, 11264, Note_off_c, 2, 51, 0
4, 11264, Note_on_c, 2, 48, 96
4, 11776, Note_off_c, 2, 48, 0
4, 11776, Note_on_c, 2, 50, 96
4, 12288, Note_off_c, 2, 50, 0
4, 12288, Note_on_c, 2, 43, 96
4, 12800, Note_off_c, 2, 43, 0
4, 12800, Note_on_c, 2, 45, 96
4, 13312, Note_off_c, 2, 45, 0
4, 13312, Note_on_c, 2, 46, 96
4, 13824, Note_off_c, 2, 46, 0
4, 13824, Note_on_c, 2, 48, 96
4, 14336, Note_off_c, 2, 48, 0
4, 14336, Note_on_c, 2, 41, 96
4, 14848, Note_off_c, 2, 41, 0
4, 14848, Note_on_c, 2, 43, 96
4, 15360, Note_off_c, 2, 43, 0
4, 15360, Note_on_c, 2, 44, 96
4, 15872, Note_off_c, 2, 44, 0
4, 15872, Note_on_c, 2, 46, 96
4, 16384, Note_off_c, 2, 46, 0
4, 16384, Note_on_c, 2, 48, 96
4, 16896, Note_off_c, 2, 48, 0
4, 16896, Note_on_c, 2, 55, 96
4, 17408, Note_off_c, 2, 55, 0
4, 17408, Note_on_c, 2, 60, 96
4, 17920, Note_off_c, 2, 60, 0
4, 17920, Note_on_c, 2, 60, 96
4, 18432, Note_off_c, 2, 60, 0
4, 18432, Note_on_c, 2, 60, 96
4, 18944, Note_off_c, 2, 60, 0
4, 18944, Note_on_c, 2, 59, 96
4, 19200, Note_off_c, 2, 59, 0
4, 19200, Note_on_c, 2, 57, 96
4, 19456, Note_off_c, 2, 57, 0
4, 19456, Note_on_c, 2, 55, 96
4, 19968, Note_off_c, 2, 55, 0
4, 19968, Note_on_c, 2, 53, 96
4, 20480, Note_off_c, 2, 53, 0
4, 20480, Note_on_c, 2, 51, 96
4, 20992, Note_off_c, 2, 51, 0
4, 20992, Note_on_c, 2, 50, 96
4, 21248, Note_off_c, 2, 50, 0
4, 21248, Note_on_c, 2, 48, 96
4, 21504, Note_off_c, 2, 48, 0
4, 21504, Note_on_c, 2, 47, 96
4, 22016, Note_off_c, 2, 47, 0
4, 22016, Note_on_c, 2, 43, 96
4, 22528, Note_off_c, 2, 43, 0
4, 22528, Note_on_c, 2, 48, 96
4, 23040, Note_off_c, 2, 48, 0
4, 23040, Note_on_c, 2, 48, 96
4, 23552, Note_off_c, 2, 48, 0
4, 23552, Note_on_c, 2, 48, 96
4, 24064, Note_off_c, 2, 48, 0
4, 24064, Note_on_c, 2, 46, 96
4, 24576, Note_off_c, 2, 46, 0
4, 24576, Note_on_c, 2, 44, 96
4, 25088, Note_off_c, 2, 44, 0
4, 25088, Note_on_c, 2, 43, 96
4, 25600, Note_off_c, 2, 43, 0
4, 25600, Note_on_c, 2, 41, 96
4, 26112, Note_off_c, 2, 41, 0
4, 26112, Note_on_c, 2, 39, 96
4, 26368, Note_off_c, 2, 39, 0
4, 26368, Note_on_c, 2, 41, 96
4, 26624, Note_off_c, 2, 41, 0
4, 26624, Note_on_c, 2, 43, 96
4, 27136, Note_off_c, 2, 43, 0
4, 27136, Note_on_c, 2, 45, 96
4, 27648, Note_off_c, 2, 45, 0
4, 27648, Note_on_c, 2, 47, 96
4, 28160, Note_off_c, 2, 47, 0
4, 28160, Note_on_c, 2, 43, 96
4, 28672, Note_off_c, 2, 43, 0
4, 28672, Note_on_c, 2, 36, 96
4, 29184, Note_off_c, 2, 36, 0
4, 29184, Note_on_c, 2, 48, 96
4, 29440, Note_off_c, 2, 48, 0
4, 29440, Note_on_c, 2, 50, 96
4, 29696, Note_off_c, 2, 50, 0
4, 29696, Note_on_c, 2, 51, 96
4, 30208, Note_off_c, 2, 51, 0
4, 30208, Note_on_c, 2, 48, 96
4, 30720, Note_off_c, 2, 48, 0
4, 30720, Note_on_c, 2, 55, 96
4, 31232, Note_off_c, 2, 55, 0
4, 31232, Note_on_c, 2, 54, 96
4, 31744, Note_off_c, 2, 54, 0
4, 31744, Note_on_c, 2, 55, 96
4, 32256, Note_off_c, 2, 55, 0
4, 32256, Note_on_c, 2, 57, 96
4, 32768, Note_off_c, 2, 57, 0
4, 32768, Note_on_c, 2, 58, 96
4, 33280, Note_off_c, 2, 58, 0
4, 33280, Note_on_c, 2, 57, 96
4, 33536, Note_off_c, 2, 57, 0
4, 33536, Note_on_c, 2, 55, 96
4, 33792, Note_off_c, 2, 55, 0
4, 33792, Note_on_c, 2, 57, 96
4, 34304, Note_off_c, 2, 57, 0
4, 34304, Note_on_c, 2, 54, 96
4, 34816, Note_off_c, 2, 54, 0
4, 34816, Note_on_c, 2, 55, 96
4, 35328, Note_off_c, 2, 55, 0
4, 35328, Note_on_c, 2, 58, 96
4, 35584, Note_off_c, 2, 58, 0
4, 35584, Note_on_c, 2, 57, 96
4, 35840, Note_off_c, 2, 57, 0
4, 35840, Note_on_c, 2, 58, 96
4, 36352, Note_off_c, 2, 58, 0
4, 36352, Note_on_c, 2, 55, 96
4, 36864, Note_off_c, 2, 55, 0
4, 36864, Note_on_c, 2, 60, 96
4, 37376, Note_off_c, 2, 60, 0
4, 37376, Note_on_c, 2, 48, 96
4, 37888, Note_off_c, 2, 48, 0
4, 37888, Note_on_c, 2, 46, 96
4, 38400, Note_off_c, 2, 46, 0
4, 38400, Note_on_c, 2, 44, 96
4, 38912, Note_off_c, 2, 44, 0
4, 38912, Note_on_c, 2, 43, 96
4, 39424, Note_off_c, 2, 43, 0
4, 39424, Note_on_c, 2, 48, 96
4, 39936, Note_off_c, 2, 48, 0
4, 39936, Note_on_c, 2, 44, 96
4, 40448, Note_off_c, 2, 44, 0
4, 40448, Note_on_c, 2, 46, 96
4, 40960, Note_off_c, 2, 46, 0
4, 40960, Note_on_c, 2, 39, 96
4, 41472, Note_off_c, 2, 39, 0
4, 41472, Note_on_c, 2, 51, 96
4, 41728, Note_off_c, 2, 51, 0
4, 41728, Note_on_c, 2, 53, 96
4, 41984, Note_off_c, 2, 53, 0
4, 41984, Note_on_c, 2, 55, 96
4, 42496, Note_off_c, 2, 55, 0
4, 42496, Note_on_c, 2, 51, 96
4, 43008, Note_off_c, 2, 51, 0
4, 43008, Note_on_c, 2, 50, 96
4, 43520, Note_off_c, 2, 50, 0
4, 43520, Note_on_c, 2, 50, 96
4, 43776, Note_off_c, 2, 50, 0
4, 43776, Note_on_c, 2, 48, 96
4, 44032, Note_off_c, 2, 48, 0
4, 44032, Note_on_c, 2, 50, 96
4, 44544, Note_off_c, 2, 50, 0
4, 44544, Note_on_c, 2, 45, 96
4, 45056, Note_off_c, 2, 45, 0
4, 45056, Note_on_c, 2, 46, 96
4, 45568, Note_off_c, 2, 46, 0
4, 45568, Note_on_c, 2, 55, 96
4, 46080, Note_off_c, 2, 55, 0
4, 46080, Note_on_c, 2, 51, 96
4, 46592, Note_off_c, 2, 51, 0
4, 46592, Note_on_c, 2, 53, 96
4, 47104, Note_off_c, 2, 53, 0
4, 47104, Note_on_c, 2, 46, 96
4, 47616, Note_off_c, 2, 46, 0
4, 47616, Note_on_c, 2, 48, 96
4, 48128, Note_off_c, 2, 48, 0
4, 48128, Note_on_c, 2, 50, 96
4, 48640, Note_off_c, 2, 50, 0
4, 48640, Note_on_c, 2, 51, 96
4, 49152, Note_off_c, 2, 51, 0
4, 49152, Note_on_c, 2, 48, 96
4, 49664, Note_off_c, 2, 48, 0
4, 49664, Note_on_c, 2, 48, 96
4, 49920, Note_off_c, 2, 48, 0
4, 49920, Note_on_c, 2, 46, 96
4, 50176, Note_off_c, 2, 46, 0
4, 50176, Note_on_c, 2, 48, 96
4, 50688, Note_off_c, 2, 48, 0
4, 50688, Note_on_c, 2, 50, 96
4, 50944, Note_off_c, 2, 50, 0
4, 50944, Note_on_c, 2, 48, 96
4, 51200, Note_off_c, 2, 48, 0
4, 51200, Note_on_c, 2, 47, 96
4, 51712, Note_off_c, 2, 47, 0
4, 51712, Note_on_c, 2, 48, 96
4, 52224, Note_off_c, 2, 48, 0
4, 52224, Note_on_c, 2, 56, 96
4, 52736, Note_off_c, 2, 56, 0
4, 52736, Note_on_c, 2, 55, 96
4, 52992, Note_off_c, 2, 55, 0
4, 52992, Note_on_c, 2, 53, 96
4, 53248, Note_off_c, 2, 53, 0
4, 53248, Note_on_c, 2, 51, 96
4, 53760, Note_off_c, 2, 51, 0
4, 53760, Note_on_c, 2, 53, 96
4, 54272, Note_off_c, 2, 53, 0
4, 54272, Note_on_c, 2, 55, 96
4, 54784, Note_off_c, 2, 55, 0
4, 54784, Note_on_c, 2, 43, 96
4, 55296, Note_off_c, 2, 43, 0
4, 55296, Note_on_c, 2, 48, 96
4, 55808, Note_off_c, 2, 48, 0
4, 55808, Note_on_c, 2, 47, 96
4, 56320, Note_off_c, 2, 47, 0
4, 56320, Note_on_c, 2, 48, 96
4, 56832, Note_off_c, 2, 48, 0
4, 56832, Note_on_c, 2, 50, 96
4, 57344, Note_off_c, 2, 50, 0
4, 57344, Note_on_c, 2, 52, 96
4, 57856, Note_off_c, 2, 52, 0
4, 57856, Note_on_c, 2, 50, 96
4, 58112, Note_off_c, 2, 50, 0
4, 58112, Note_on_c, 2, 48, 96
4, 58368, Note_off_c, 2, 48, 0
4, 58368, Note_on_c, 2, 50, 96
4, 58880, Note_off_c, 2, 50, 0
4, 58880, Note_on_c, 2, 52, 96
4, 59392, Note_off_c, 2, 52, 0
4, 59392, Note_on_c, 2, 53, 96
4, 59904, Note_off_c, 2, 53, 0
4, 59904, Note_on_c, 2, 52, 96
4, 60416, Note_off_c, 2, 52, 0
4, 60416, Note_on_c, 2, 53, 96
4, 60928, Note_off_c, 2, 53, 0
4, 60928, Note_on_c, 2, 55, 96
4, 61440, Note_off_c, 2, 55, 0
4, 61440, Note_on_c, 2, 56, 96
4, 61952, Note_off_c, 2, 56, 0
4, 61952, Note_on_c, 2, 56, 96
4, 62208, Note_off_c, 2, 56, 0
4, 62208, Note_on_c, 2, 55, 96
4, 62464, Note_off_c, 2, 55, 0
4, 62464, Note_on_c, 2, 56, 96
4, 62976, Note_off_c, 2, 56, 0
4, 62976, Note_on_c, 2, 53, 96
4, 63488, Note_off_c, 2, 53, 0
4, 63488, Note_on_c, 2, 55, 96
4, 64000, Note_off_c, 2, 55, 0
4, 64000, Note_on_c, 2, 53, 96
4, 64512, Note_off_c, 2, 53, 0
4, 64512, Note_on_c, 2, 55, 96
4, 65024, Note_off_c, 2, 55, 0
4, 65024, Note_on_c, 2, 43, 96
4, 65536, Note_off_c, 2, 43, 0
4, 65536, Note_on_c, 2, 48, 96
4, 66048, Note_off_c, 2, 48, 0
4, 66048, Note_on_c, 2, 60, 96
4, 66304, Note_off_c, 2, 60, 0
4, 66304, Note_on_c, 2, 59, 96
4, 66560, Note_off_c, 2, 59, 0
4, 66560, Note_on_c, 2, 60, 96
4, 67072, Note_off_c, 2, 60, 0
4, 67072, Note_on_c, 2, 55, 96
4, 67584, Note_off_c, 2, 55, 0
4, 67584, Note_on_c, 2, 56, 96
4, 68096, Note_off_c, 2, 56, 0
4, 68096, Note_on_c, 2, 56, 96
4, 68352, Note_off_c, 2, 56, 0
4, 68352, Note_on_c, 2, 55, 96
4, 68608, Note_off_c, 2, 55, 0
4, 68608, Note_on_c, 2, 56, 96
4, 69120, Note_off_c, 2, 56, 0
4, 69120, Note_on_c, 2, 53, 96
4, 69632, Note_off_c, 2, 53, 0
4, 69632, Note_on_c, 2, 55, 96
4, 70144, Note_off_c, 2, 55, 0
4, 70144, Note_on_c, 2, 53, 96
4, 70400, Note_off_c, 2, 53, 0
4, 70400, Note_on_c, 2, 51, 96
4, 70656, Note_off_c, 2, 51, 0
4, 70656, Note_on_c, 2, 53, 96
4, 71168, Note_off_c, 2, 53, 0
4, 71168, Note_on_c, 2, 50, 96
4, 71680, Note_off_c, 2, 50, 0
4, 71680, Note_on_c, 2, 51, 96
4, 72192, Note_off_c, 2, 51, 0
4, 72192, Note_on_c, 2, 51, 96
4, 72448, Note_off_c, 2, 51, 0
4, 72448, Note_on_c, 2, 50, 96
4, 72704, Note_off_c, 2, 50, 0
4, 72704, Note_on_c, 2, 51, 96
4, 73216, Note_off_c, 2, 51, 0
4, 73216, Note_on_c, 2, 48, 96
4, 73728, Note_off_c, 2, 48, 0
4, 73728, Note_on_c, 2, 46, 96
4, 74240, Note_off_c, 2, 46, 0
4, 74240, Note_on_c, 2, 46, 96
4, 74496, Note_off_c, 2, 46, 0
4, 74496, Note_on_c, 2, 45, 96
4, 74752, Note_off_c, 2, 45, 0
4, 74752, Note_on_c, 2, 46, 96
4, 75264, Note_off_c, 2, 46, 0
4, 75264, Note_on_c, 2, 42, 96
4, 75776, Note_off_c, 2, 42, 0
4, 75776, Note_on_c, 2, 43, 96
4, 76288, Note_off_c, 2, 43, 0
4, 76288, Note_on_c, 2, 51, 96
4, 76800, Note_off_c, 2, 51, 0
4, 76800, Note_on_c, 2, 48, 96
4, 77312, Note_off_c, 2, 48, 0
4, 77312, Note_on_c, 2, 50, 96
4, 77824, Note_off_c, 2, 50, 0
4, 77824, Note_on_c, 2, 43, 96
4, 78336, Note_off_c, 2, 43, 0
4, 78336, Note_on_c, 2, 45, 96
4, 78848, Note_off_c, 2, 45, 0
4, 78848, Note_on_c, 2, 46, 96
4, 79360, Note_off_c, 2, 46, 0
4, 79360, Note_on_c, 2, 48, 96
4, 79872, Note_off_c, 2, 48, 0
4, 79872, Note_on_c, 2, 41, 96
4, 80384, Note_off_c, 2, 41, 0
4, 80384, Note_on_c, 2, 43, 96
4, 80896, Note_off_c, 2, 43, 0
4, 80896, Note_on_c, 2, 44, 96
4, 81408, Note_off_c, 2, 44, 0
4, 81408, Note_on_c, 2, 46, 96
4, 81920, Note_off_c, 2, 46, 0
4, 81920, Note_on_c, 2, 48, 96
4, 82432, Note_off_c, 2, 48, 0
4, 82432, Note_on_c, 2, 55, 96
4, 82944, Note_off_c, 2, 55, 0
4, 82944, Note_on_c, 2, 60, 96
4, 83456, Note_off_c, 2, 60, 0
4, 83456, Note_on_c, 2, 60, 96
4, 83968, Note_off_c, 2, 60, 0
4, 83968, Note_on_c, 2, 60, 96
4, 84480, Note_off_c, 2, 60, 0
4, 84480, Note_on_c, 2, 59, 96
4, 84736, Note_off_c, 2, 59, 0
4, 84736, Note_on_c, 2, 57, 96
4, 84992, Note_off_c, 2, 57, 0
4, 84992, Note_on_c, 2, 55, 96
4, 85504, Note_off_c, 2, 55, 0
4, 85504, Note_on_c, 2, 53, 96
4, 86016, Note_off_c, 2, 53, 0
4, 86016, Note_on_c, 2, 51, 96
4, 86528, Note_off_c, 2, 51, 0
4, 86528, Note_on_c, 2, 50, 96
4, 86784, Note_off_c, 2, 50, 0
4, 86784, Note_on_c, 2, 48, 96
4, 87040, Note_off_c, 2, 48, 0
4, 87040, Note_on_c, 2, 47, 96
4, 87552, Note_off_c, 2, 47, 0
4, 87552, Note_on_c, 2, 43, 96
4, 88064, Note_off_c, 2, 43, 0
4, 88064, Note_on_c, 2, 48, 96
4, 88576, Note_off_c, 2, 48, 0
4, 88576, Note_on_c, 2, 48, 96
4, 89088, Note_off_c, 2, 48, 0
4, 89088, Note_on_c, 2, 48, 96
4, 89600, Note_off_c, 2, 48, 0
4, 89600, Note_on_c, 2, 46, 96
4, 90112, Note_off_c, 2, 46, 0
4, 90112, Note_on_c, 2, 44, 96
4, 90624, Note_off_c, 2, 44, 0
4, 90624, Note_on_c, 2, 43, 96
4, 91136, Note_off_c, 2, 43, 0
4, 91136, Note_on_c, 2, 41, 96
4, 91648, Note_off_c, 2, 41, 0
4, 91648, Note_on_c, 2, 39, 96
4, 91904, Note_off_c, 2, 39, 0
4, 91904, Note_on_c, 2, 41, 96
4, 92160, Note_off_c, 2, 41, 0
4, 92160, Note_on_c, 2, 43, 96
4, 92672, Note_off_c, 2, 43, 0
4, 92672, Note_on_c, 2, 45, 96
4, 93184, Note_off_c, 2, 45, 0
4, 93184, Note_on_c, 2, 47, 96
4, 93696, Note_off_c, 2, 47, 0
4, 93696, Note_on_c, 2, 43, 96
4, 94208, Note_off_c, 2, 43, 0
4, 94208, Note_on_c, 2, 36, 96
4, 94720, Note_off_c, 2, 36, 0
4, 94720, Note_on_c, 2, 48, 96
4, 94976, Note_off_c, 2, 48, 0
4, 94976, Note_on_c, 2, 50, 96
4, 95232, Note_off_c, 2, 50, 0
4, 95232, Note_on_c, 2, 51, 96
4, 95744, Note_off_c, 2, 51, 0
4, 95744, Note_on_c, 2, 48, 96
4, 96256, Note_off_c, 2, 48, 0
4, 96256, Note_on_c, 2, 55, 96
4, 96768, Note_off_c, 2, 55, 0
4, 96768, Note_on_c, 2, 54, 96
4, 97280, Note_off_c, 2, 54, 0
4, 97280, Note_on_c, 2, 55, 96
4, 97792, Note_off_c, 2, 55, 0
4, 97792, Note_on_c, 2, 57, 96
4, 98304, Note_off_c, 2, 57, 0
4, 98304, Note_on_c, 2, 58, 96
4, 98816, Note_off_c, 2, 58, 0
4, 98816, Note_on_c, 2, 57, 96
4, 99072, Note_off_c, 2, 57, 0
4, 99072, Note_on_c, 2, 55, 96
4, 99328, Note_off_c, 2, 55, 0
4, 99328, Note_on_c, 2, 57, 96
4, 99840, Note_off_c, 2, 57, 0
4, 99840, Note_on_c, 2, 54, 96
4, 100352, Note_off_c, 2, 54, 0
4, 100352, Note_on_c, 2, 55, 96
4, 100864, Note_off_c, 2, 55, 0
4, 100864, Note_on_c, 2, 58, 96
4, 101120, Note_off_c, 2, 58, 0
4, 101120, Note_on_c, 2, 57, 96
4, 101376, Note_off_c, 2, 57, 0
4, 101376, Note_on_c, 2, 58, 96
4, 101888, Note_off_c, 2, 58, 0
4, 101888, Note_on_c, 2, 55, 96
4, 102400, Note_off_c, 2, 55, 0
4, 102400, Note_on_c, 2, 60, 96
4, 102912, Note_off_c, 2, 60, 0
4, 102912, Note_on_c, 2, 48, 96
4, 103424, Note_off_c, 2, 48, 0
4, 103424, Note_on_c, 2, 46, 96
4, 103936, Note_off_c, 2, 46, 0
4, 103936, Note_on_c, 2, 44, 96
4, 104448, Note_off_c, 2, 44, 0
4, 104448, Note_on_c, 2, 43, 96
4, 104960, Note_off_c, 2, 43, 0
4, 104960, Note_on_c, 2, 48, 96
4, 105472, Note_off_c, 2, 48, 0
4, 105472, Note_on_c, 2, 44, 96
4, 105984, Note_off_c, 2, 44, 0
4, 105984, Note_on_c, 2, 46, 96
4, 106496, Note_off_c, 2, 46, 0
4, 106496, Note_on_c, 2, 39, 96
4, 107008, Note_off_c, 2, 39, 0
4, 107008, Note_on_c, 2, 51, 96
4, 107264, Note_off_c, 2, 51, 0
4, 107264, Note_on_c, 2, 53, 96
4, 107520, Note_off_c, 2, 53, 0
4, 107520, Note_on_c, 2, 55, 96
4, 108032, Note_off_c, 2, 55, 0
4, 108032, Note_on_c, 2, 51, 96
4, 108544, Note_off_c, 2, 51, 0
4, 108544, Note_on_c, 2, 50, 96
4, 109056, Note_off_c, 2, 50, 0
4, 109056, Note_on_c, 2, 50, 96
4, 109312, Note_off_c, 2, 50, 0
4, 109312, Note_on_c, 2, 48, 96
4, 109568, Note_off_c, 2, 48, 0
4, 109568, Note_on_c, 2, 50, 96
4, 110080, Note_off_c, 2, 50, 0
4, 110080, Note_on_c, 2, 45, 96
4, 110592, Note_off_c, 2, 45, 0
4, 110592, Note_on_c, 2, 46, 96
4, 111104, Note_off_c, 2, 46, 0
4, 111104, Note_on_c, 2, 55, 96
4, 111616, Note_off_c, 2, 55, 0
4, 111616, Note_on_c, 2, 51, 96
4, 112128, Note_off_c, 2, 51, 0
4, 112128, Note_on_c, 2, 53, 96
4, 112640, Note_off_c, 2, 53, 0
4, 112640, Note_on_c, 2, 46, 96
4, 113152, Note_off_c, 2, 46, 0
4, 113152, Note_on_c, 2, 48, 96
4, 113664, Note_off_c, 2, 48, 0
4, 113664, Note_on_c, 2, 50, 96
4, 114176, Note_off_c, 2, 50, 0
4, 114176, Note_on_c, 2, 51, 96
4, 114688, Note_off_c, 2, 51, 0
4, 114688, Note_on_c, 2, 48, 96
4, 115200, Note_off_c, 2, 48, 0
4, 115200, Note_on_c, 2, 48, 96
4, 115456, Note_off_c, 2, 48, 0
4, 115456, Note_on_c, 2, 46, 96
4, 115712, Note_off_c, 2, 46, 0
4, 115712, Note_on_c, 2, 48, 96
4, 116224, Note_off_c, 2, 48, 0
4, 116224, Note_on_c, 2, 50, 96
4, 116480, Note_off_c, 2, 50, 0
4, 116480, Note_on_c, 2, 48, 96
4, 116736, Note_off_c, 2, 48, 0
4, 116736, Note_on_c, 2, 47, 96
4, 117248, Note_off_c, 2, 47, 0
4, 117248, Note_on_c, 2, 48, 96
4, 117760, Note_off_c, 2, 48, 0
4, 117760, Note_on_c, 2, 56, 96
4, 118272, Note_off_c, 2, 56, 0
4, 118272, Note_on_c, 2, 55, 96
4, 118528, Note_off_c, 2, 55, 0
4, 118528, Note_on_c, 2, 53, 96
4, 118784, Note_off_c, 2, 53, 0
4, 118784, Note_on_c, 2, 51, 96
4, 119296, Note_off_c, 2, 51, 0
4, 119296, Note_on_c, 2, 53, 96
4, 119808, Note_off_c, 2, 53, 0
4, 119808, Note_on_c, 2, 55, 96
4, 120320, Note_off_c, 2, 55, 0
4, 120320, Note_on_c, 2, 43, 96
4, 120832, Note_off_c, 2, 43, 0
4, 120832, Note_on_c, 2, 48, 96
4, 121344, Note_off_c, 2, 48, 0
4, 121344, Note_on_c, 2, 47, 96
4, 121856, Note_off_c, 2, 47, 0
4, 121856, Note_on_c, 2, 48, 96
4, 122368, Note_off_c, 2, 48, 0
4, 122368, Note_on_c, 2, 50, 96
4, 122880, Note_off_c, 2, 50, 0
4, 122880, Note_on_c, 2, 52, 96
4, 123392, Note_off_c, 2, 52, 0
4, 123392, Note_on_c, 2, 50, 96
4, 123648, Note_off_c, 2, 50, 0
4, 123648, Note_on_c, 2, 48, 96
4, 123904, Note_off_c, 2, 48, 0
4, 123904, Note_on_c, 2, 50, 96
4, 124416, Note_off_c, 2, 50, 0
4, 124416, Note_on_c, 2, 52, 96
4, 124928, Note_off_c, 2, 52, 0
4, 124928, Note_on_c, 2, 53, 96
4, 125440, Note_off_c, 2, 53, 0
4, 125440, Note_on_c, 2, 52, 96
4, 125952, Note_off_c, 2, 52, 0
4, 125952, Note_on_c, 2, 53, 96
4, 126464, Note_off_c, 2, 53, 0
4, 126464, Note_on_c, 2, 55, 96
4, 126976, Note_off_c, 2, 55, 0
4, 126976, Note_on_c, 2, 56, 96
4, 127488, Note_off_c, 2, 56, 0
4, 127488, Note_on_c, 2, 56, 96
4, 127744, Note_off_c, 2, 56, 0
4, 127744, Note_on_c, 2, 55, 96
4, 128000, Note_off_c, 2, 55, 0
4, 128000, Note_on_c, 2, 56, 96
4, 128512, Note_off_c, 2, 56, 0
4, 128512, Note_on_c, 2, 53, 96
4, 129024, Note_off_c, 2, 53, 0
4, 129024, Note_on_c, 2, 55, 96
4, 129536, Note_off_c, 2, 55, 0
4, 129536, Note_on_c, 2, 53, 96
4, 130048, Note_off_c, 2, 53, 0
4, 130048, Note_on_c, 2, 55, 96
4, 130560, Note_off_c, 2, 55, 0
4, 130560, Note_on_c, 2, 43, 96
4, 131072, Note_off_c, 2, 43, 0
4, 131072, Note_on_c, 2, 48, 96
4, 131584, Note_off_c, 2, 48, 0
4, 131584, Note_on_c, 2, 60, 96
4, 132096, Note_off_c, 2, 60, 0
4, 132096, Note_on_c, 2, 59, 96
4, 132608, Note_off_c, 2, 59, 0
4, 132608, Note_on_c, 2, 55, 96
4, 133120, Note_off_c, 2, 55, 0
4, 133120, Note_on_c, 2, 60, 96
4, 133632, Note_off_c, 2, 60, 0
4, 133632, Note_on_c, 2, 48, 96
4, 133888, Note_off_c, 2, 48, 0
4, 133888, Note_on_c, 2, 47, 96
4, 134144, Note_off_c, 2, 47, 0
4, 134144, Note_on_c, 2, 48, 96
4, 134656, Note_off_c, 2, 48, 0
4, 134656, Note_on_c, 2, 50, 96
4, 135168, Note_off_c, 2, 50, 0
4, 135168, Note_on_c, 2, 51, 96
4, 135680, Note_off_c, 2, 51, 0
4, 135680, Note_on_c, 2, 51, 96
4, 135936, Note_off_c, 2, 51, 0
4, 135936, Note_on_c, 2, 50, 96
4, 136192, Note_off_c, 2, 50, 0
4, 136192, Note_on_c, 2, 51, 96
4, 136704, Note_off_c, 2, 51, 0
4, 136704, Note_on_c, 2, 53, 96
4, 137216, Note_off_c, 2, 53, 0
4, 137216, Note_on_c, 2, 55, 96
4, 137728, Note_off_c, 2, 55, 0
4, 137728, Note_on_c, 2, 48, 96
4, 138240, Note_off_c, 2, 48, 0
4, 138240, Note_on_c, 2, 44, 96
4, 138752, Note_off_c, 2, 44, 0
4, 138752, Note_on_c, 2, 46, 96
4, 139264, Note_off_c, 2, 46, 0
4, 139264, Note_on_c, 2, 39, 96
4, 139776, Note_off_c, 2, 39, 0
4, 139776, Note_on_c, 2, 51, 96
4, 140288, Note_off_c, 2, 51, 0
4, 140288, Note_on_c, 2, 50, 96
4, 140800, Note_off_c, 2, 50, 0
4, 140800, Note_on_c, 2, 48, 96
4, 141312, Note_off_c, 2, 48, 0
4, 141312, Note_on_c, 2, 55, 96
4, 141824, Note_off_c, 2, 55, 0
4, 141824, Note_on_c, 2, 53, 96
4, 142080, Note_off_c, 2, 53, 0
4, 142080, Note_on_c, 2, 51, 96
4, 142336, Note_off_c, 2, 51, 0
4, 142336, Note_on_c, 2, 53, 96
4, 142848, Note_off_c, 2, 53, 0
4, 142848, Note_on_c, 2, 57, 96
4, 143360, Note_off_c, 2, 57, 0
4, 143360, Note_on_c, 2, 58, 96
4, 143872, Note_off_c, 2, 58, 0
4, 143872, Note_on_c, 2, 51, 96
4, 144128, Note_off_c, 2, 51, 0
4, 144128, Note_on_c, 2, 50, 96
4, 144384, Note_off_c, 2, 50, 0
4, 144384, Note_on_c, 2, 51, 96
4, 144896, Note_off_c, 2, 51, 0
4, 144896, Note_on_c, 2, 48, 96
4, 145408, Note_off_c, 2, 48, 0
4, 145408, Note_on_c, 2, 50, 96
4, 145920, Note_off_c, 2, 50, 0
4, 145920, Note_on_c, 2, 55, 96
4, 146432, Note_off_c, 2, 55, 0
4, 146432, Note_on_c, 2, 51, 96
4, 146944, Note_off_c, 2, 51, 0
4, 146944, Note_on_c, 2, 53, 96
4, 147456, Note_off_c, 2, 53, 0
4, 147456, Note_on_c, 2, 46, 96
4, 148480, Note_off_c, 2, 46, 0
4, 148992, Note_on_c, 2, 46, 96
4, 149504, Note_off_c, 2, 46, 0
4, 149504, Note_on_c, 2, 48, 96
4, 150016, Note_off_c, 2, 48, 0
4, 150016, Note_on_c, 2, 60, 96
4, 150528, Note_off_c, 2, 60, 0
4, 150528, Note_on_c, 2, 58, 96
4, 151040, Note_off_c, 2, 58, 0
4, 151040, Note_on_c, 2, 56, 96
4, 151552, Note_off_c, 2, 56, 0
4, 151552, Note_on_c, 2, 55, 96
4, 152064, Note_off_c, 2, 55, 0
4, 152064, Note_on_c, 2, 60, 96
4, 152320, Note_off_c, 2, 60, 0
4, 152320, Note_on_c, 2, 58, 96
4, 152576, Note_off_c, 2, 58, 0
4, 152576, Note_on_c, 2, 60, 96
4, 153088, Note_off_c, 2, 60, 0
4, 153088, Note_on_c, 2, 56, 96
4, 153600, Note_off_c, 2, 56, 0
4, 153600, Note_on_c, 2, 58, 96
4, 154112, Note_off_c, 2, 58, 0
4, 154112, Note_on_c, 2, 58, 96
4, 154368, Note_off_c, 2, 58, 0
4, 154368, Note_on_c, 2, 56, 96
4, 154624, Note_off_c, 2, 56, 0
4, 154624, Note_on_c, 2, 58, 96
4, 155136, Note_off_c, 2, 58, 0
4, 155136, Note_on_c, 2, 46, 96
4, 155648, Note_off_c, 2, 46, 0
4, 155648, Note_on_c, 2, 39, 96
4, 156160, Note_off_c, 2, 39, 0
4, 156160, Note_on_c, 2, 51, 96
4, 156416, Note_off_c, 2, 51, 0
4, 156416, Note_on_c, 2, 50, 96
4, 156672, Note_off_c, 2, 50, 0
4, 156672, Note_on_c, 2, 51, 96
4, 157184, Note_off_c, 2, 51, 0
4, 157184, Note_on_c, 2, 48, 96
4, 157696, Note_off_c, 2, 48, 0
4, 157696, Note_on_c, 2, 53, 96
4, 158208, Note_off_c, 2, 53, 0
4, 158208, Note_on_c, 2, 53, 96
4, 158464, Note_off_c, 2, 53, 0
4, 158464, Note_on_c, 2, 51, 96
4, 158720, Note_off_c, 2, 51, 0
4, 158720, Note_on_c, 2, 53, 96
4, 159232, Note_off_c, 2, 53, 0
4, 159232, Note_on_c, 2, 55, 96
4, 159744, Note_off_c, 2, 55, 0
4, 159744, Note_on_c, 2, 56, 96
4, 160256, Note_off_c, 2, 56, 0
4, 160256, Note_on_c, 2, 56, 96
4, 160512, Note_off_c, 2, 56, 0
4, 160512, Note_on_c, 2, 55, 96
4, 160768, Note_off_c, 2, 55, 0
4, 160768, Note_on_c, 2, 56, 96
4, 161280, Note_off_c, 2, 56, 0
4, 161280, Note_on_c, 2, 58, 96
4, 161792, Note_off_c, 2, 58, 0
4, 161792, Note_on_c, 2, 60, 96
4, 162304, Note_off_c, 2, 60, 0
4, 162304, Note_on_c, 2, 53, 96
4, 162816, Note_off_c, 2, 53, 0
4, 162816, Note_on_c, 2, 49, 96
4, 163328, Note_off_c, 2, 49, 0
4, 163328, Note_on_c, 2, 51, 96
4, 163840, Note_off_c, 2, 51, 0
4, 163840, Note_on_c, 2, 53, 96
4, 164352, Note_off_c, 2, 53, 0
4, 164352, Note_on_c, 2, 51, 96
4, 164864, Note_off_c, 2, 51, 0
4, 164864, Note_on_c, 2, 50, 96
4, 165376, Note_off_c, 2, 50, 0
4, 165376, Note_on_c, 2, 46, 96
4, 165888, Note_off_c, 2, 46, 0
4, 165888, Note_on_c, 2, 48, 96
4, 166400, Note_off_c, 2, 48, 0
4, 166400, Note_on_c, 2, 50, 96
4, 166656, Note_off_c, 2, 50, 0
4, 166656, Note_on_c, 2, 51, 96
4, 166912, Note_off_c, 2, 51, 0
4, 166912, Note_on_c, 2, 53, 96
4, 167424, Note_off_c, 2, 53, 0
4, 167424, Note_on_c, 2, 50, 96
4, 167936, Note_off_c, 2, 50, 0
4, 167936, Note_on_c, 2, 51, 96
4, 168448, Note_off_c, 2, 51, 0
4, 168448, Note_on_c, 2, 44, 96
4, 168704, Note_off_c, 2, 44, 0
4, 168704, Note_on_c, 2, 43, 96
4, 168960, Note_off_c, 2, 43, 0
4, 168960, Note_on_c, 2, 44, 96
4, 169472, Note_off_c, 2, 44, 0
4, 169472, Note_on_c, 2, 41, 96
4, 169984, Note_off_c, 2, 41, 0
4, 169984, Note_on_c, 2, 43, 96
4, 170496, Note_off_c, 2, 43, 0
4, 170496, Note_on_c, 2, 48, 96
4, 171008, Note_off_c, 2, 48, 0
4, 171008, Note_on_c, 2, 44, 96
4, 171520, Note_off_c, 2, 44, 0
4, 171520, Note_on_c, 2, 46, 96
4, 172032, Note_off_c, 2, 46, 0
4, 172032, Note_on_c, 2, 39, 96
4, 172544, Note_off_c, 2, 39, 0
4, 172544, Note_on_c, 2, 51, 96
4, 172800, Note_off_c, 2, 51, 0
4, 172800, Note_on_c, 2, 50, 96
4, 173056, Note_off_c, 2, 50, 0
4, 173056, Note_on_c, 2, 51, 96
4, 173568, Note_off_c, 2, 51, 0
4, 173568, Note_on_c, 2, 48, 96
4, 174080, Note_off_c, 2, 48, 0
4, 174080, Note_on_c, 2, 50, 96
4, 174592, Note_off_c, 2, 50, 0
4, 174592, Note_on_c, 2, 48, 96
4, 174848, Note_off_c, 2, 48, 0
4, 174848, Note_on_c, 2, 47, 96
4, 175104, Note_off_c, 2, 47, 0
4, 175104, Note_on_c, 2, 48, 96
4, 176640, Note_off_c, 2, 48, 0
4, 176640, Note_on_c, 2, 46, 96
4, 176896, Note_off_c, 2, 46, 0
4, 176896, Note_on_c, 2, 44, 96
4, 177152, Note_off_c, 2, 44, 0
4, 177152, Note_on_c, 2, 46, 96
4, 177664, Note_off_c, 2, 46, 0
4, 177664, Note_on_c, 2, 43, 96
4, 178176, Note_off_c, 2, 43, 0
4, 178176, Note_on_c, 2, 44, 96
4, 178688, Note_off_c, 2, 44, 0
4, 178688, Note_on_c, 2, 43, 96
4, 178944, Note_off_c, 2, 43, 0
4, 178944, Note_on_c, 2, 41, 96
4, 179200, Note_off_c, 2, 41, 0
4, 179200, Note_on_c, 2, 43, 96
4, 179712, Note_off_c, 2, 43, 0
4, 179712, Note_on_c, 2, 43, 96
4, 180224, Note_off_c, 2, 43, 0
4, 180224, Note_on_c, 2, 36, 96
4, 181248, Note_off_c, 2, 36, 0
4, 181760, Note_on_c, 2, 52, 96
4, 182272, Note_off_c, 2, 52, 0
4, 182272, Note_on_c, 2, 53, 96
4, 182784, Note_off_c, 2, 53, 0
4, 182784, Note_on_c, 2, 58, 96
4, 183808, Note_off_c, 2, 58, 0
4, 183808, Note_on_c, 2, 56, 96
4, 184064, Note_off_c, 2, 56, 0
4, 184064, Note_on_c, 2, 55, 96
4, 184320, Note_off_c, 2, 55, 0
4, 184320, Note_on_c, 2, 56, 96
4, 184832, Note_off_c, 2, 56, 0
4, 184832, Note_on_c, 2, 61, 96
4, 185856, Note_off_c, 2, 61, 0
4, 185856, Note_on_c, 2, 60, 96
4, 186112, Note_off_c, 2, 60, 0
4, 186112, Note_on_c, 2, 58, 96
4, 186368, Note_off_c, 2, 58, 0
4, 186368, Note_on_c, 2, 60, 96
4, 186880, Note_off_c, 2, 60, 0
4, 186880, Note_on_c, 2, 53, 96
4, 187392, Note_off_c, 2, 53, 0
4, 187392, Note_on_c, 2, 56, 96
4, 187648, Note_off_c, 2, 56, 0
4, 187648, Note_on_c, 2, 55, 96
4, 187904, Note_off_c, 2, 55, 0
4, 187904, Note_on_c, 2, 53, 96
4, 188160, Note_off_c, 2, 53, 0
4, 188160, Note_on_c, 2, 52, 96
4, 188416, Note_off_c, 2, 52, 0
4, 188416, Note_on_c, 2, 53, 96
4, 188928, Note_off_c, 2, 53, 0
4, 188928, Note_on_c, 2, 53, 96
4, 189184, Note_off_c, 2, 53, 0
4, 189184, Note_on_c, 2, 55, 96
4, 189440, Note_off_c, 2, 55, 0
4, 189440, Note_on_c, 2, 56, 96
4, 189952, Note_off_c, 2, 56, 0
4, 189952, Note_on_c, 2, 53, 96
4, 190464, Note_off_c, 2, 53, 0
4, 190464, Note_on_c, 2, 55, 96
4, 190976, Note_off_c, 2, 55, 0
4, 190976, Note_on_c, 2, 55, 96
4, 191232, Note_off_c, 2, 55, 0
4, 191232, Note_on_c, 2, 56, 96
4, 191488, Note_off_c, 2, 56, 0
4, 191488, Note_on_c, 2, 55, 96
4, 192000, Note_off_c, 2, 55, 0
4, 192000, Note_on_c, 2, 53, 96
4, 192512, Note_off_c, 2, 53, 0
4, 192512, Note_on_c, 2, 51, 96
4, 193024, Note_off_c, 2, 51, 0
4, 193024, Note_on_c, 2, 51, 96
4, 193280, Note_off_c, 2, 51, 0
4, 193280, Note_on_c, 2, 53, 96
4, 193536, Note_off_c, 2, 53, 0
4, 193536, Note_on_c, 2, 51, 96
4, 194048, Note_off_c, 2, 51, 0
4, 194048, Note_on_c, 2, 50, 96
4, 194560, Note_off_c, 2, 50, 0
4, 194560, Note_on_c, 2, 48, 96
4, 195072, Note_off_c, 2, 48, 0
4, 195072, Note_on_c, 2, 56, 96
4, 195584, Note_off_c, 2, 56, 0
4, 195584, Note_on_c, 2, 53, 96
4, 196096, Note_off_c, 2, 53, 0
4, 196096, Note_on_c, 2, 55, 96
4, 196608, Note_off_c, 2, 55, 0
4, 196608, Note_on_c, 2, 56, 96
4, 197120, Note_off_c, 2, 56, 0
4, 197120, Note_on_c, 2, 55, 96
4, 197376, Note_off_c, 2, 55, 0
4, 197376, Note_on_c, 2, 53, 96
4, 197632, Note_off_c, 2, 53, 0
4, 197632, Note_on_c, 2, 51, 96
4, 198144, Note_off_c, 2, 51, 0
4, 198144, Note_on_c, 2, 50, 96
4, 198656, Note_off_c, 2, 50, 0
4, 198656, Note_on_c, 2, 51, 96
4, 199168, Note_off_c, 2, 51, 0
4, 199168, Note_on_c, 2, 53, 96
4, 199680, Note_off_c, 2, 53, 0
4, 199680, Note_on_c, 2, 55, 96
4, 200192, Note_off_c, 2, 55, 0
4, 200192, Note_on_c, 2, 43, 96
4, 200704, Note_off_c, 2, 43, 0
4, 200704, Note_on_c, 2, 36, 96
4, 204800, Note_off_c, 2, 36, 0
4, 204800, End_track
5, 0, Start_track
5, 0, Title_t, "Instrument 4"
5, 19456, Note_on_c, 3, 43, 96
5, 20480, Note_off_c, 3, 43, 0
5, 20480, Note_on_c, 3, 48, 96
5, 21504, Note_off_c, 3, 48, 0
5, 21504, Note_on_c, 3, 50, 96
5, 22528, Note_off_c, 3, 50, 0
5, 22528, Note_on_c, 3, 51, 96
5, 23552, Note_off_c, 3, 51, 0
5, 23552, Note_on_c, 3, 50, 96
5, 24576, Note_off_c, 3, 50, 0
5, 24576, Note_on_c, 3, 48, 96
5, 25600, Note_off_c, 3, 48, 0
5, 25600, Note_on_c, 3, 50, 96
5, 26624, Note_off_c, 3, 50, 0
5, 26624, Note_on_c, 3, 47, 96
5, 27648, Note_off_c, 3, 47, 0
5, 27648, Note_on_c, 3, 43, 96
5, 30720, Note_off_c, 3, 43, 0
5, 48128, Note_on_c, 3, 46, 96
5, 49152, Note_off_c, 3, 46, 0
5, 49152, Note_on_c, 3, 46, 96
5, 50176, Note_off_c, 3, 46, 0
5, 50176, Note_on_c, 3, 44, 96
5, 51200, Note_off_c, 3, 44, 0
5, 51200, Note_on_c, 3, 43, 96
5, 52224, Note_off_c, 3, 43, 0
5, 52224, Note_on_c, 3, 48, 96
5, 53248, Note_off_c, 3, 48, 0
5, 53248, Note_on_c, 3, 48, 96
5, 54272, Note_off_c, 3, 48, 0
5, 54272, Note_on_c, 3, 47, 96
5, 55296, Note_off_c, 3, 47, 0
5, 55296, Note_on_c, 3, 48, 96
5, 58368, Note_off_c, 3, 48, 0
5, 84992, Note_on_c, 3, 43, 96
5, 86016, Note_off_c, 3, 43, 0
5, 86016, Note_on_c, 3, 48, 96
5, 87040, Note_off_c, 3, 48, 0
5, 87040, Note_on_c, 3, 50, 96
5, 88064, Note_off_c, 3, 50, 0
5, 88064, Note_on_c, 3, 51, 96
5, 89088, Note_off_c, 3, 51, 0
5, 89088, Note_on_c, 3, 50, 96
5, 90112, Note_off_c, 3, 50, 0
5, 90112, Note_on_c, 3, 48, 96
5, 91136, Note_off_c, 3, 48, 0
5, 91136, Note_on_c, 3, 50, 96
5, 92160, Note_off_c, 3, 50, 0
5, 92160, Note_on_c, 3, 47, 96
5, 93184, Note_off_c, 3, 47, 0
5, 93184, Note_on_c, 3, 43, 96
5, 96256, Note_off_c, 3, 43, 0
5, 113664, Note_on_c, 3, 46, 96
5, 114688, Note_off_c, 3, 46, 0
5, 114688, Note_on_c, 3, 46, 96
5, 115712, Note_off_c, 3, 46, 0
5, 115712, Note_on_c, 3, 44, 96
5, 116736, Note_off_c, 3, 44, 0
5, 116736, Note_on_c, 3, 43, 96
5, 117760, Note_off_c, 3, 43, 0
5, 117760, Note_on_c, 3, 48, 96
5, 118784, Note_off_c, 3, 48, 0
5, 118784, Note_on_c, 3, 48, 96
5, 119808, Note_off_c, 3, 48, 0
5, 119808, Note_on_c, 3, 47, 96
5, 120832, Note_off_c, 3, 47, 0
5, 120832, Note_on_c, 3, 48, 96
5, 124928, Note_off_c, 3, 48, 0
5, 148480, Note_on_c, 3, 50, 96
5, 149504, Note_off_c, 3, 50, 0
5, 149504, Note_on_c, 3, 51, 96
5, 150528, Note_off_c, 3, 51, 0
5, 150528, Note_on_c, 3, 53, 96
5, 151552, Note_off_c, 3, 53, 0
5, 151552, Note_on_c, 3, 55, 96
5, 152576, Note_off_c, 3, 55, 0
5, 152576, Note_on_c, 3, 55, 96
5, 153600, Note_off_c, 3, 55, 0
5, 153600, Note_on_c, 3, 53, 96
5, 154624, Note_off_c, 3, 53, 0
5, 154624, Note_on_c, 3, 53, 96
5, 155648, Note_off_c, 3, 53, 0
5, 155648, Note_on_c, 3, 51, 96
5, 160768, Note_off_c, 3, 51, 0
5, 173056, Note_on_c, 3, 55, 96
5, 174080, Note_off_c, 3, 55, 0
5, 174080, Note_on_c, 3, 53, 96
5, 175104, Note_off_c, 3, 53, 0
5, 175104, Note_on_c, 3, 51, 96
5, 176128, Note_off_c, 3, 51, 0
5, 176128, Note_on_c, 3, 50, 96
5, 177152, Note_off_c, 3, 50, 0
5, 177152, Note_on_c, 3, 48, 96
5, 178176, Note_off_c, 3, 48, 0
5, 178176, Note_on_c, 3, 51, 96
5, 179200, Note_off_c, 3, 51, 0
5, 179200, Note_on_c, 3, 50, 96
5, 180224, Note_off_c, 3, 50, 0
5, 180224, Note_on_c, 3, 48, 96
5, 186368, Note_off_c, 3, 48, 0
5, 204800, End_track
0, 0, End_of_file
