0, 0, Header, 1, 9, 1024
1, 0, Start_track
1, 0, Time_signature, 3, 2, 24, 8
1, 0, Key_signature, 2, "major"
1, 0, Tempo, 576923
1, 58368, End_track
2, 0, Start_track
2, 0, Title_t, "Instrument 1"
2, 0, Note_on_c, 0, 74, 96
2, 1024, Note_off_c, 0, 74, 0
2, 1024, Note_on_c, 0, 74, 96
2, 2048, Note_off_c, 0, 74, 0
2, 2048, Note_on_c, 0, 81, 96
2, 3072, Note_off_c, 0, 81, 0
2, 3072, Note_on_c, 0, 78, 96
2, 4608, Note_off_c, 0, 78, 0
2, 4608, Note_on_c, 0, 76, 96
2, 5120, Note_off_c, 0, 76, 0
2, 5120, Note_on_c, 0, 74, 96
2, 6144, Note_off_c, 0, 74, 0
2, 6144, Note_on_c, 0, 73, 96
2, 7680, Note_off_c, 0, 73, 0
2, 7680, Note_on_c, 0, 71, 96
2, 8192, Note_off_c, 0, 71, 0
2, 8192, Note_on_c, 0, 69, 96
2, 9216, Note_off_c, 0, 69, 0
2, 9216, Note_on_c, 0, 74, 96
2, 10240, Note_off_c, 0, 74, 0
2, 10240, Note_on_c, 0, 76, 96
2, 11264, Note_off_c, 0, 76, 0
2, 11264, Note_on_c, 0, 78, 96
2, 11776, Note_off_c, 0, 78, 0
2, 11776, Note_on_c, 0, 79, 96
2, 12288, Note_off_c, 0, 79, 0
2, 12288, Note_on_c, 0, 76, 96
2, 14336, Note_off_c, 0, 76, 0
2, 14336, Note_on_c, 0, 74, 96
2, 15360, Note_off_c, 0, 74, 0
2, 15360, Note_on_c, 0, 74, 96
2, 16384, Note_off_c, 0, 74, 0
2, 16384, Note_on_c, 0, 74, 96
2, 17408, Note_off_c, 0, 74, 0
2, 17408, Note_on_c, 0, 81, 96
2, 18432, Note_off_c, 0, 81, 0
2, 18432, Note_on_c, 0, 78, 96
2, 19968, Note_off_c, 0, 78, 0
2, 19968, Note_on_c, 0, 76, 96
2, 20480, Note_off_c, 0, 76, 0
2, 20480, Note_on_c, 0, 74, 96
2, 21504, Note_off_c, 0, 74, 0
2, 21504, Note_on_c, 0, 73, 96
2, 23040, Note_off_c, 0, 73, 0
2, 23040, Note_on_c, 0, 71, 96
2, 23552, Note_off_c, 0, 71, 0
2, 23552, Note_on_c, 0, 69, 96
2, 24576, Note_off_c, 0, 69, 0
2, 24576, Note_on_c, 0, 74, 96
2, 25600, Note_off_c, 0, 74, 0
2, 25600, Note_on_c, 0, 76, 96
2, 26624, Note_off_c, 0, 76, 0
2, 26624, Note_on_c, 0, 78, 96
2, 27136, Note_off_c, 0, 78, 0
2, 27136, Note_on_c, 0, 79, 96
2, 27648, Note_off_c, 0, 79, 0
2, 27648, Note_on_c, 0, 76, 96
2, 29696, Note_off_c, 0, 76, 0
2, 29696, Note_on_c, 0, 74, 96
2, 30720, Note_off_c, 0, 74, 0
2, 30720, Note_on_c, 0, 78, 96
2, 32256, Note_off_c, 0, 78, 0
2, 32256, Note_on_c, 0, 76, 96
2, 32768, Note_off_c, 0, 76, 0
2, 32768, Note_on_c, 0, 78, 96
2, 33792, Note_off_c, 0, 78, 0
2, 33792, Note_on_c, 0, 79, 96
2, 36864, Note_off_c, 0, 79, 0
2, 36864, Note_on_c, 0, 78, 96
2, 38400, Note_off_c, 0, 78, 0
2, 38400, Note_on_c, 0, 79, 96
2, 38912, Note_off_c, 0, 79, 0
2, 38912, Note_on_c, 0, 81, 96
2, 39936, Note_off_c, 0, 81, 0
2, 39936, Note_on_c, 0, 81, 96
2, 41472, Note_off_c, 0, 81, 0
2, 41472, Note_on_c, 0, 79, 96
2, 41984, Note_off_c, 0, 79, 0
2, 41984, Note_on_c, 0, 78, 96
2, 43008, Note_off_c, 0, 78, 0
2, 43008, Note_on_c, 0, 76, 96
2, 46080, Note_off_c, 0, 76, 0
2, 46080, Note_on_c, 0, 69, 96
2, 47104, Note_off_c, 0, 69, 0
2, 47104, Note_on_c, 0, 71, 96
2, 48128, Note_off_c, 0, 71, 0
2, 48128, Note_on_c, 0, 73, 96
2, 49152, Note_off_c, 0, 73, 0
2, 49152, Note_on_c, 0, 74, 96
2, 50176, Note_off_c, 0, 74, 0
2, 50176, Note_on_c, 0, 76, 96
2, 51200, Note_off_c, 0, 76, 0
2, 51200, Note_on_c, 0, 78, 96
2, 51968, Note_off_c, 0, 78, 0
2, 51968, Note_on_c, 0, 79, 96
2, 52224, Note_off_c, 0, 79, 0
2, 52224, Note_on_c, 0, 76, 96
2, 54272, Note_off_c, 0, 76, 0
2, 54272, Note_on_c, 0, 74, 96
2, 58368, Note_off_c, 0, 74, 0
2, 58368, End_track
3, 0, Start_track
3, 0, Title_t, "Instrument 2"
3, 0, Note_on_c, 1, 69, 96
3, 1024, Note_off_c, 1, 69, 0
3, 1024, Note_on_c, 1, 69, 96
3, 2048, Note_off_c, 1, 69, 0
3, 2048, Note_on_c, 1, 69, 96
3, 3072, Note_off_c, 1, 69, 0
3, 3072, Note_on_c, 1, 69, 96
3, 4608, Note_off_c, 1, 69, 0
3, 4608, Note_on_c, 1, 69, 96
3, 5120, Note_off_c, 1, 69, 0
3, 5120, Note_on_c, 1, 68, 96
3, 6144, Note_off_c, 1, 68, 0
3, 6144, Note_on_c, 1, 64, 96
3, 7168, Note_off_c, 1, 64, 0
3, 7168, Note_on_c, 1, 69, 96
3, 8192, Note_off_c, 1, 69, 0
3, 8192, Note_on_c, 1, 69, 96
3, 9216, Note_off_c, 1, 69, 0
3, 9216, Note_on_c, 1, 69, 96
3, 10240, Note_off_c, 1, 69, 0
3, 10240, Note_on_c, 1, 73, 96
3, 11264, Note_off_c, 1, 73, 0
3, 11264, Note_on_c, 1, 69, 96
3, 12288, Note_off_c, 1, 69, 0
3, 12288, Note_on_c, 1, 69, 96
3, 13312, Note_off_c, 1, 69, 0
3, 13312, Note_on_c, 1, 67, 96
3, 14336, Note_off_c, 1, 67, 0
3, 14336, Note_on_c, 1, 66, 96
3, 15360, Note_off_c, 1, 66, 0
3, 15360, Note_on_c, 1, 69, 96
3, 16384, Note_off_c, 1, 69, 0
3, 16384, Note_on_c, 1, 69, 96
3, 17408, Note_off_c, 1, 69, 0
3, 17408, Note_on_c, 1, 69, 96
3, 18432, Note_off_c, 1, 69, 0
3, 18432, Note_on_c, 1, 69, 96
3, 19968, Note_off_c, 1, 69, 0
3, 19968, Note_on_c, 1, 69, 96
3, 20480, Note_off_c, 1, 69, 0
3, 20480, Note_on_c, 1, 68, 96
3, 21504, Note_off_c, 1, 68, 0
3, 21504, Note_on_c, 1, 64, 96
3, 22528, Note_off_c, 1, 64, 0
3, 22528, Note_on_c, 1, 69, 96
3, 23552, Note_off_c, 1, 69, 0
3, 23552, Note_on_c, 1, 69, 96
3, 24576, Note_off_c, 1, 69, 0
3, 24576, Note_on_c, 1, 69, 96
3, 25600, Note_off_c, 1, 69, 0
3, 25600, Note_on_c, 1, 73, 96
3, 26624, Note_off_c, 1, 73, 0
3, 26624, Note_on_c, 1, 69, 96
3, 27648, Note_off_c, 1, 69, 0
3, 27648, Note_on_c, 1, 69, 96
3, 28672, Note_off_c, 1, 69, 0
3, 28672, Note_on_c, 1, 67, 96
3, 29696, Note_off_c, 1, 67, 0
3, 29696, Note_on_c, 1, 66, 96
3, 30720, Note_off_c, 1, 66, 0
3, 30720, Note_on_c, 1, 69, 96
3, 32256, Note_off_c, 1, 69, 0
3, 32256, Note_on_c, 1, 69, 96
3, 32768, Note_off_c, 1, 69, 0
3, 32768, Note_on_c, 1, 62, 96
3, 33792, Note_off_c, 1, 62, 0
3, 33792, Note_on_c, 1, 71, 96
3, 36864, Note_off_c, 1, 71, 0
3, 36864, Note_on_c, 1, 71, 96
3, 38400, Note_off_c, 1, 71, 0
3, 38400, Note_on_c, 1, 71, 96
3, 38912, Note_off_c, 1, 71, 0
3, 38912, Note_on_c, 1, 64, 96
3, 39936, Note_off_c, 1, 64, 0
3, 39936, Note_on_c, 1, 62, 96
3, 40960, Note_off_c, 1, 62, 0
3, 40960, Note_on_c, 1, 69, 96
3, 41984, Note_off_c, 1, 69, 0
3, 41984, Note_on_c, 1, 69, 96
3, 43008, Note_off_c, 1, 69, 0
3, 43008, Note_on_c, 1, 69, 96
3, 46080, Note_off_c, 1, 69, 0
3, 46080, Note_on_c, 1, 64, 96
3, 47104, Note_off_c, 1, 64, 0
3, 47104, Note_on_c, 1, 64, 96
3, 48128, Note_off_c, 1, 64, 0
3, 48128, Note_on_c, 1, 64, 96
3, 49152, Note_off_c, 1, 64, 0
3, 49152, Note_on_c, 1, 69, 96
3, 50176, Note_off_c, 1, 69, 0
3, 50176, Note_on_c, 1, 69, 96
3, 51200, Note_off_c, 1, 69, 0
3, 51200, Note_on_c, 1, 69, 96
3, 52224, Note_off_c, 1, 69, 0
3, 52224, Note_on_c, 1, 69, 96
3, 54272, Note_off_c, 1, 69, 0
3, 54272, Note_on_c, 1, 66, 96
3, 58368, Note_off_c, 1, 66, 0
3, 58368, End_track
4, 0, Start_track
4, 0, Title_t, "Instrument 3"
4, 0, Note_on_c, 2, 66, 96
4, 1024, Note_off_c, 2, 66, 0
4, 1024, Note_on_c, 2, 66, 96
4, 2048, Note_off_c, 2, 66, 0
4, 2048, Note_on_c, 2, 64, 96
4, 3072, Note_off_c, 2, 64, 0
4, 3072, Note_on_c, 2, 62, 96
4, 4608, Note_off_c, 2, 62, 0
4, 4608, Note_on_c, 2, 57, 96
4, 5120, Note_off_c, 2, 57, 0
4, 5120, Note_on_c, 2, 62, 96
4, 6144, Note_off_c, 2, 62, 0
4, 6144, Note_on_c, 2, 69, 96
4, 7168, Note_off_c, 2, 69, 0
4, 7168, Note_on_c, 2, 57, 96
4, 8192, Note_off_c, 2, 57, 0
4, 8192, Note_on_c, 2, 64, 96
4, 9216, Note_off_c, 2, 64, 0
4, 9216, Note_on_c, 2, 62, 96
4, 10240, Note_off_c, 2, 62, 0
4, 10240, Note_on_c, 2, 55, 96
4, 11264, Note_off_c, 2, 55, 0
4, 11264, Note_on_c, 2, 62, 96
4, 12288, Note_off_c, 2, 62, 0
4, 12288, Note_on_c, 2, 64, 96
4, 13312, Note_off_c, 2, 64, 0
4, 13312, Note_on_c, 2, 61, 96
4, 14336, Note_off_c, 2, 61, 0
4, 14336, Note_on_c, 2, 57, 96
4, 15360, Note_off_c, 2, 57, 0
4, 15360, Note_on_c, 2, 66, 96
4, 16384, Note_off_c, 2, 66, 0
4, 16384, Note_on_c, 2, 66, 96
4, 17408, Note_off_c, 2, 66, 0
4, 17408, Note_on_c, 2, 64, 96
4, 18432, Note_off_c, 2, 64, 0
4, 18432, Note_on_c, 2, 62, 96
4, 19968, Note_off_c, 2, 62, 0
4, 19968, Note_on_c, 2, 57, 96
4, 20480, Note_off_c, 2, 57, 0
4, 20480, Note_on_c, 2, 62, 96
4, 21504, Note_off_c, 2, 62, 0
4, 21504, Note_on_c, 2, 69, 96
4, 22528, Note_off_c, 2, 69, 0
4, 22528, Note_on_c, 2, 57, 96
4, 23552, Note_off_c, 2, 57, 0
4, 23552, Note_on_c, 2, 64, 96
4, 24576, Note_off_c, 2, 64, 0
4, 24576, Note_on_c, 2, 62, 96
4, 25600, Note_off_c, 2, 62, 0
4, 25600, Note_on_c, 2, 55, 96
4, 26624, Note_off_c, 2, 55, 0
4, 26624, Note_on_c, 2, 62, 96
4, 27648, Note_off_c, 2, 62, 0
4, 27648, Note_on_c, 2, 64, 96
4, 28672, Note_off_c, 2, 64, 0
4, 28672, Note_on_c, 2, 61, 96
4, 29696, Note_off_c, 2, 61, 0
4, 29696, Note_on_c, 2, 57, 96
4, 30720, Note_off_c, 2, 57, 0
4, 30720, Note_on_c, 2, 66, 96
4, 32256, Note_off_c, 2, 66, 0
4, 32256, Note_on_c, 2, 66, 96
4, 32768, Note_off_c, 2, 66, 0
4, 32768, Note_on_c, 2, 66, 96
4, 33280, Note_off_c, 2, 66, 0
4, 33280, Note_on_c, 2, 63, 96
4, 33792, Note_off_c, 2, 63, 0
4, 33792, Note_on_c, 2, 64, 96
4, 36864, Note_off_c, 2, 64, 0
4, 36864, Note_on_c, 2, 66, 96
4, 38400, Note_off_c, 2, 66, 0
4, 38400, Note_on_c, 2, 62, 96
4, 38912, Note_off_c, 2, 62, 0
4, 38912, Note_on_c, 2, 61, 96
4, 39424, Note_off_c, 2, 61, 0
4, 39424, Note_on_c, 2, 59, 96
4, 39936, Note_off_c, 2, 59, 0
4, 39936, Note_on_c, 2, 57, 96
4, 40960, Note_off_c, 2, 57, 0
4, 40960, Note_on_c, 2, 61, 96
4, 41984, Note_off_c, 2, 61, 0
4, 41984, Note_on_c, 2, 62, 96
4, 43008, Note_off_c, 2, 62, 0
4, 43008, Note_on_c, 2, 61, 96
4, 46080, Note_off_c, 2, 61, 0
4, 46080, Note_on_c, 2, 61, 96
4, 47104, Note_off_c, 2, 61, 0
4, 47104, Note_on_c, 2, 64, 96
4, 48128, Note_off_c, 2, 64, 0
4, 48128, Note_on_c, 2, 57, 96
4, 49152, Note_off_c, 2, 57, 0
4, 49152, Note_on_c, 2, 57, 96
4, 50176, Note_off_c, 2, 57, 0
4, 50176, Note_on_c, 2, 57, 96
4, 51200, Note_off_c, 2, 57, 0
4, 51200, Note_on_c, 2, 57, 96
4, 51712, Note_off_c, 2, 57, 0
4, 51712, Note_on_c, 2, 62, 96
4, 52224, Note_off_c, 2, 62, 0
4, 52224, Note_on_c, 2, 62, 96
4, 53248, Note_off_c, 2, 62, 0
4, 53248, Note_on_c, 2, 61, 96
4, 54272, Note_off_c, 2, 61, 0
4, 54272, Note_on_c, 2, 57, 96
4, 58368, Note_off_c, 2, 57, 0
4, 58368, End_track
5, 0, Start_track
5, 0, Title_t, "Instrument 4"
5, 0, Note_on_c, 3, 50, 96
5, 1024, Note_off_c, 3, 50, 0
5, 1024, Note_on_c, 3, 62, 96
5, 2048, Note_off_c, 3, 62, 0
5, 2048, Note_on_c, 3, 61, 96
5, 3072, Note_off_c, 3, 61, 0
5, 3072, Note_on_c, 3, 62, 96
5, 4608, Note_off_c, 3, 62, 0
5, 4608, Note_on_c, 3, 61, 96
5, 5120, Note_off_c, 3, 61, 0
5, 5120, Note_on_c, 3, 59, 96
5, 6144, Note_off_c, 3, 59, 0
5, 6144, Note_on_c, 3, 57, 96
5, 7168, Note_off_c, 3, 57, 0
5, 7168, Note_on_c, 3, 45, 96
5, 8192, Note_off_c, 3, 45, 0
5, 8192, Note_on_c, 3, 55, 96
5, 9216, Note_off_c, 3, 55, 0
5, 9216, Note_on_c, 3, 54, 96
5, 10240, Note_off_c, 3, 54, 0
5, 10240, Note_on_c, 3, 52, 96
5, 11264, Note_off_c, 3, 52, 0
5, 11264, Note_on_c, 3, 50, 96
5, 12288, Note_off_c, 3, 50, 0
5, 12288, Note_on_c, 3, 57, 96
5, 13312, Note_off_c, 3, 57, 0
5, 13312, Note_on_c, 3, 45, 96
5, 14336, Note_off_c, 3, 45, 0
5, 14336, Note_on_c, 3, 38, 96
5, 14336, Note_on_c, 3, 50, 96
5, 15360, Note_off_c, 3, 38, 0
5, 15360, Note_off_c, 3, 50, 0
5, 15360, Note_on_c, 3, 50, 96
5, 16384, Note_off_c, 3, 50, 0
5, 16384, Note_on_c, 3, 62, 96
5, 17408, Note_off_c, 3, 62, 0
5, 17408, Note_on_c, 3, 61, 96
5, 18432, Note_off_c, 3, 61, 0
5, 18432, Note_on_c, 3, 62, 96
5, 19968, Note_off_c, 3, 62, 0
5, 19968, Note_on_c, 3, 61, 96
5, 20480, Note_off_c, 3, 61, 0
5, 20480, Note_on_c, 3, 59, 96
5, 21504, Note_off_c, 3, 59, 0
5, 21504, Note_on_c, 3, 57, 96
5, 22528, Note_off_c, 3, 57, 0
5, 22528, Note_on_c, 3, 45, 96
5, 23552, Note_off_c, 3, 45, 0
5, 23552, Note_on_c, 3, 55, 96
5, 24576, Note_off_c, 3, 55, 0
5, 24576, Note_on_c, 3, 54, 96
5, 25600, Note_off_c, 3, 54, 0
5, 25600, Note_on_c, 3, 52, 96
5, 26624, Note_off_c, 3, 52, 0
5, 26624, Note_on_c, 3, 50, 96
5, 27648, Note_off_c, 3, 50, 0
5, 27648, Note_on_c, 3, 57, 96
5, 28672, Note_off_c, 3, 57, 0
5, 28672, Note_on_c, 3, 45, 96
5, 29696, Note_off_c, 3, 45, 0
5, 29696, Note_on_c, 3, 38, 96
5, 29696, Note_on_c, 3, 50, 96
5, 30720, Note_off_c, 3, 38, 0
5, 30720, Note_off_c, 3, 50, 0
5, 30720, Note_on_c, 3, 50, 96
5, 31744, Note_off_c, 3, 50, 0
5, 31744, Note_on_c, 3, 54, 96
5, 32768, Note_off_c, 3, 54, 0
5, 32768, Note_on_c, 3, 59, 96
5, 33792, Note_off_c, 3, 59, 0
5, 33792, Note_on_c, 3, 52, 96
5, 36864, Note_off_c, 3, 52, 0
5, 36864, Note_on_c, 3, 59, 96
5, 37888, Note_off_c, 3, 59, 0
5, 37888, Note_on_c, 3, 57, 96
5, 38912, Note_off_c, 3, 57, 0
5, 38912, Note_on_c, 3, 55, 96
5, 39936, Note_off_c, 3, 55, 0
5, 39936, Note_on_c, 3, 54, 96
5, 41472, Note_off_c, 3, 54, 0
5, 41472, Note_on_c, 3, 52, 96
5, 41984, Note_off_c, 3, 52, 0
5, 41984, Note_on_c, 3, 50, 96
5, 43008, Note_off_c, 3, 50, 0
5, 43008, Note_on_c, 3, 45, 96
5, 46080, Note_off_c, 3, 45, 0
5, 46080, Note_on_c, 3, 57, 96
5, 47104, Note_off_c, 3, 57, 0
5, 47104, Note_on_c, 3, 55, 96
5, 47616, Note_off_c, 3, 55, 0
5, 47616, Note_on_c, 3, 54, 96
5, 48128, Note_off_c, 3, 54, 0
5, 48128, Note_on_c, 3, 55, 96
5, 48640, Note_off_c, 3, 55, 0
5, 48640, Note_on_c, 3, 52, 96
5, 49152, Note_off_c, 3, 52, 0
5, 49152, Note_on_c, 3, 54, 96
5, 50176, Note_off_c, 3, 54, 0
5, 50176, Note_on_c, 3, 49, 96
5, 51200, Note_off_c, 3, 49, 0
5, 51200, Note_on_c, 3, 50, 96
5, 52224, Note_off_c, 3, 50, 0
5, 52224, Note_on_c, 3, 57, 96
5, 53248, Note_off_c, 3, 57, 0
5, 53248, Note_on_c, 3, 45, 96
5, 54272, Note_off_c, 3, 45, 0
5, 54272, Note_on_c, 3, 50, 96
5, 58368, Note_off_c, 3, 50, 0
5, 58368, End_track
6, 0, Start_track
6, 0, Title_t, "Instrument 5"
6, 0, Note_on_c, 4, 50, 96
6, 1024, Note_off_c, 4, 50, 0
6, 1024, Note_on_c, 4, 50, 96
6, 2048, Note_off_c, 4, 50, 0
6, 2048, Note_on_c, 4, 45, 96
6, 3072, Note_off_c, 4, 45, 0
6, 3072, Note_on_c, 4, 50, 96
6, 4608, Note_off_c, 4, 50, 0
6, 4608, Note_on_c, 4, 50, 96
6, 5120, Note_off_c, 4, 50, 0
6, 5120, Note_on_c, 4, 50, 96
6, 6144, Note_off_c, 4, 50, 0
6, 6144, Note_on_c, 4, 45, 96
6, 7168, Note_off_c, 4, 45, 0
6, 7168, Note_on_c, 4, 45, 96
6, 8192, Note_off_c, 4, 45, 0
6, 8192, Note_on_c, 4, 45, 96
6, 9216, Note_off_c, 4, 45, 0
6, 9216, Note_on_c, 4, 50, 96
6, 10240, Note_off_c, 4, 50, 0
6, 10240, Note_on_c, 4, 45, 96
6, 11264, Note_off_c, 4, 45, 0
6, 11264, Note_on_c, 4, 50, 96
6, 12288, Note_off_c, 4, 50, 0
6, 12288, Note_on_c, 4, 45, 96
6, 12800, Note_off_c, 4, 45, 0
6, 12800, Note_on_c, 4, 45, 96
6, 13056, Note_off_c, 4, 45, 0
6, 13056, Note_on_c, 4, 45, 96
6, 13312, Note_off_c, 4, 45, 0
6, 13312, Note_on_c, 4, 45, 96
6, 13824, Note_off_c, 4, 45, 0
6, 13824, Note_on_c, 4, 45, 96
6, 14336, Note_off_c, 4, 45, 0
6, 14336, Note_on_c, 4, 50, 96
6, 15360, Note_off_c, 4, 50, 0
6, 15360, Note_on_c, 4, 50, 96
6, 16384, Note_off_c, 4, 50, 0
6, 16384, Note_on_c, 4, 50, 96
6, 17408, Note_off_c, 4, 50, 0
6, 17408, Note_on_c, 4, 45, 96
6, 18432, Note_off_c, 4, 45, 0
6, 18432, Note_on_c, 4, 50, 96
6, 19968, Note_off_c, 4, 50, 0
6, 19968, Note_on_c, 4, 50, 96
6, 20480, Note_off_c, 4, 50, 0
6, 20480, Note_on_c, 4, 50, 96
6, 21504, Note_off_c, 4, 50, 0
6, 21504, Note_on_c, 4, 45, 96
6, 22528, Note_off_c, 4, 45, 0
6, 22528, Note_on_c, 4, 45, 96
6, 23552, Note_off_c, 4, 45, 0
6, 23552, Note_on_c, 4, 45, 96
6, 24576, Note_off_c, 4, 45, 0
6, 24576, Note_on_c, 4, 50, 96
6, 25600, Note_off_c, 4, 50, 0
6, 25600, Note_on_c, 4, 45, 96
6, 26624, Note_off_c, 4, 45, 0
6, 26624, Note_on_c, 4, 50, 96
6, 27648, Note_off_c, 4, 50, 0
6, 27648, Note_on_c, 4, 45, 96
6, 28160, Note_off_c, 4, 45, 0
6, 28160, Note_on_c, 4, 45, 96
6, 28416, Note_off_c, 4, 45, 0
6, 28416, Note_on_c, 4, 45, 96
6, 28672, Note_off_c, 4, 45, 0
6, 28672, Note_on_c, 4, 45, 96
6, 29184, Note_off_c, 4, 45, 0
6, 29184, Note_on_c, 4, 45, 96
6, 29696, Note_off_c, 4, 45, 0
6, 29696, Note_on_c, 4, 50, 96
6, 30720, Note_off_c, 4, 50, 0
6, 36864, Note_on_c, 4, 50, 96
6, 37888, Note_off_c, 4, 50, 0
6, 39936, Note_on_c, 4, 50, 96
6, 40960, Note_off_c, 4, 50, 0
6, 41984, Note_on_c, 4, 50, 96
6, 43008, Note_off_c, 4, 50, 0
6, 43008, Note_on_c, 4, 45, 96
6, 46080, Note_off_c, 4, 45, 0
6, 46080, Note_on_c, 4, 45, 96
6, 47104, Note_off_c, 4, 45, 0
6, 47104, Note_on_c, 4, 45, 96
6, 49152, Note_off_c, 4, 45, 0
6, 49152, Note_on_c, 4, 50, 96
6, 50176, Note_off_c, 4, 50, 0
6, 50176, Note_on_c, 4, 45, 96
6, 51200, Note_off_c, 4, 45, 0
6, 51200, Note_on_c, 4, 50, 96
6, 52224, Note_off_c, 4, 50, 0
6, 52224, Note_on_c, 4, 45, 96
6, 54272, Note_off_c, 4, 45, 0
6, 54272, Note_on_c, 4, 50, 96
6, 58368, Note_off_c, 4, 50, 0
6, 58368, End_track
7, 0, Start_track
7, 0, Title_t, "Instrument 6"
7, 0, Note_on_c, 5, 81, 96
7, 1024, Note_off_c, 5, 81, 0
7, 1024, Note_on_c, 5, 81, 96
7, 2048, Note_off_c, 5, 81, 0
7, 2048, Note_on_c, 5, 81, 96
7, 3072, Note_off_c, 5, 81, 0
7, 3072, Note_on_c, 5, 81, 96
7, 4608, Note_off_c, 5, 81, 0
7, 4608, Note_on_c, 5, 81, 96
7, 5120, Note_off_c, 5, 81, 0
7, 5120, Note_on_c, 5, 83, 96
7, 6144, Note_off_c, 5, 83, 0
7, 6144, Note_on_c, 5, 85, 96
7, 7168, Note_off_c, 5, 85, 0
7, 7168, Note_on_c, 5, 81, 96
7, 8192, Note_off_c, 5, 81, 0
7, 8192, Note_on_c, 5, 85, 96
7, 9216, Note_off_c, 5, 85, 0
7, 9216, Note_on_c, 5, 86, 96
7, 10240, Note_off_c, 5, 86, 0
7, 10240, Note_on_c, 5, 85, 96
7, 11264, Note_off_c, 5, 85, 0
7, 11264, Note_on_c, 5, 86, 96
7, 11776, Note_off_c, 5, 86, 0
7, 11776, Note_on_c, 5, 83, 96
7, 12288, Note_off_c, 5, 83, 0
7, 12288, Note_on_c, 5, 85, 96
7, 14336, Note_off_c, 5, 85, 0
7, 14336, Note_on_c, 5, 86, 96
7, 15360, Note_off_c, 5, 86, 0
7, 15360, Note_on_c, 5, 81, 96
7, 16384, Note_off_c, 5, 81, 0
7, 16384, Note_on_c, 5, 81, 96
7, 17408, Note_off_c, 5, 81, 0
7, 17408, Note_on_c, 5, 81, 96
7, 18432, Note_off_c, 5, 81, 0
7, 18432, Note_on_c, 5, 81, 96
7, 19968, Note_off_c, 5, 81, 0
7, 19968, Note_on_c, 5, 81, 96
7, 20480, Note_off_c, 5, 81, 0
7, 20480, Note_on_c, 5, 83, 96
7, 21504, Note_off_c, 5, 83, 0
7, 21504, Note_on_c, 5, 85, 96
7, 22528, Note_off_c, 5, 85, 0
7, 22528, Note_on_c, 5, 81, 96
7, 23552, Note_off_c, 5, 81, 0
7, 23552, Note_on_c, 5, 85, 96
7, 24576, Note_off_c, 5, 85, 0
7, 24576, Note_on_c, 5, 86, 96
7, 25600, Note_off_c, 5, 86, 0
7, 25600, Note_on_c, 5, 85, 96
7, 26624, Note_off_c, 5, 85, 0
7, 26624, Note_on_c, 5, 86, 96
7, 27136, Note_off_c, 5, 86, 0
7, 27136, Note_on_c, 5, 83, 96
7, 27648, Note_off_c, 5, 83, 0
7, 27648, Note_on_c, 5, 85, 96
7, 29696, Note_off_c, 5, 85, 0
7, 29696, Note_on_c, 5, 86, 96
7, 30720, Note_off_c, 5, 86, 0
7, 30720, Note_on_c, 5, 81, 96
7, 32256, Note_off_c, 5, 81, 0
7, 32256, Note_on_c, 5, 84, 96
7, 32768, Note_off_c, 5, 84, 0
7, 32768, Note_on_c, 5, 83, 96
7, 33280, Note_off_c, 5, 83, 0
7, 33280, Note_on_c, 5, 81, 96
7, 33792, Note_off_c, 5, 81, 0
7, 33792, Note_on_c, 5, 79, 96
7, 36864, Note_off_c, 5, 79, 0
7, 36864, Note_on_c, 5, 74, 96
7, 38400, Note_off_c, 5, 74, 0
7, 38400, Note_on_c, 5, 76, 96
7, 38912, Note_off_c, 5, 76, 0
7, 38912, Note_on_c, 5, 76, 96
7, 39936, Note_off_c, 5, 76, 0
7, 39936, Note_on_c, 5, 78, 96
7, 40448, Note_off_c, 5, 78, 0
7, 40448, Note_on_c, 5, 76, 96
7, 40960, Note_off_c, 5, 76, 0
7, 40960, Note_on_c, 5, 78, 96
7, 41472, Note_off_c, 5, 78, 0
7, 41472, Note_on_c, 5, 79, 96
7, 41984, Note_off_c, 5, 79, 0
7, 41984, Note_on_c, 5, 81, 96
7, 42496, Note_off_c, 5, 81, 0
7, 42496, Note_on_c, 5, 83, 96
7, 43008, Note_off_c, 5, 83, 0
7, 43008, Note_on_c, 5, 85, 96
7, 46080, Note_off_c, 5, 85, 0
7, 46080, Note_on_c, 5, 81, 96
7, 49664, Note_off_c, 5, 81, 0
7, 49664, Note_on_c, 5, 79, 96
7, 50176, Note_off_c, 5, 79, 0
7, 50176, Note_on_c, 5, 81, 96
7, 50688, Note_off_c, 5, 81, 0
7, 50688, Note_on_c, 5, 83, 96
7, 51200, Note_off_c, 5, 83, 0
7, 51200, Note_on_c, 5, 81, 96
7, 51712, Note_off_c, 5, 81, 0
7, 51712, Note_on_c, 5, 83, 96
7, 52224, Note_off_c, 5, 83, 0
7, 52224, Note_on_c, 5, 81, 96
7, 52736, Note_off_c, 5, 81, 0
7, 52736, Note_on_c, 5, 83, 96
7, 52992, Note_off_c, 5, 83, 0
7, 52992, Note_on_c, 5, 85, 96
7, 53248, Note_off_c, 5, 85, 0
7, 53248, Note_on_c, 5, 85, 96
7, 54272, Note_off_c, 5, 85, 0
7, 54272, Note_on_c, 5, 86, 96
7, 58368, Note_off_c, 5, 86, 0
7, 58368, End_track
8, 0, Start_track
8, 0, Title_t, "Instrument 7"
8, 0, Note_on_c, 6, 78, 96
8, 1024, Note_off_c, 6, 78, 0
8, 1024, Note_on_c, 6, 74, 96
8, 2048, Note_off_c, 6, 74, 0
8, 2048, Note_on_c, 6, 76, 96
8, 3072, Note_off_c, 6, 76, 0
8, 3072, Note_on_c, 6, 78, 96
8, 4608, Note_off_c, 6, 78, 0
8, 4608, Note_on_c, 6, 78, 96
8, 5120, Note_off_c, 6, 78, 0
8, 5120, Note_on_c, 6, 80, 96
8, 6144, Note_off_c, 6, 80, 0
8, 6144, Note_on_c, 6, 81, 96
8, 7168, Note_off_c, 6, 81, 0
8, 7168, Note_on_c, 6, 81, 96
8, 8192, Note_off_c, 6, 81, 0
8, 8192, Note_on_c, 6, 81, 96
8, 9216, Note_off_c, 6, 81, 0
8, 9216, Note_on_c, 6, 81, 96
8, 10240, Note_off_c, 6, 81, 0
8, 10240, Note_on_c, 6, 81, 96
8, 11264, Note_off_c, 6, 81, 0
8, 11264, Note_on_c, 6, 81, 96
8, 12288, Note_off_c, 6, 81, 0
8, 12288, Note_on_c, 6, 81, 96
8, 14336, Note_off_c, 6, 81, 0
8, 14336, Note_on_c, 6, 81, 96
8, 15360, Note_off_c, 6, 81, 0
8, 15360, Note_on_c, 6, 78, 96
8, 16384, Note_off_c, 6, 78, 0
8, 16384, Note_on_c, 6, 74, 96
8, 17408, Note_off_c, 6, 74, 0
8, 17408, Note_on_c, 6, 76, 96
8, 18432, Note_off_c, 6, 76, 0
8, 18432, Note_on_c, 6, 78, 96
8, 19968, Note_off_c, 6, 78, 0
8, 19968, Note_on_c, 6, 78, 96
8, 20480, Note_off_c, 6, 78, 0
8, 20480, Note_on_c, 6, 80, 96
8, 21504, Note_off_c, 6, 80, 0
8, 21504, Note_on_c, 6, 81, 96
8, 22528, Note_off_c, 6, 81, 0
8, 22528, Note_on_c, 6, 81, 96
8, 23552, Note_off_c, 6, 81, 0
8, 23552, Note_on_c, 6, 81, 96
8, 24576, Note_off_c, 6, 81, 0
8, 24576, Note_on_c, 6, 81, 96
8, 25600, Note_off_c, 6, 81, 0
8, 25600, Note_on_c, 6, 81, 96
8, 26624, Note_off_c, 6, 81, 0
8, 26624, Note_on_c, 6, 81, 96
8, 27648, Note_off_c, 6, 81, 0
8, 27648, Note_on_c, 6, 81, 96
8, 29696, Note_off_c, 6, 81, 0
8, 29696, Note_on_c, 6, 81, 96
8, 30720, Note_off_c, 6, 81, 0
8, 30720, Note_on_c, 6, 78, 96
8, 32256, Note_off_c, 6, 78, 0
8, 32256, Note_on_c, 6, 81, 96
8, 32512, Note_off_c, 6, 81, 0
8, 32512, Note_on_c, 6, 79, 96
8, 32768, Note_off_c, 6, 79, 0
8, 32768, Note_on_c, 6, 78, 96
8, 33280, Note_off_c, 6, 78, 0
8, 33280, Note_on_c, 6, 79, 96
8, 33536, Note_off_c, 6, 79, 0
8, 33536, Note_on_c, 6, 78, 96
8, 33792, Note_off_c, 6, 78, 0
8, 33792, Note_on_c, 6, 76, 96
8, 36864, Note_off_c, 6, 76, 0
8, 39936, Note_on_c, 6, 74, 96
8, 41472, Note_off_c, 6, 74, 0
8, 41472, Note_on_c, 6, 76, 96
8, 41984, Note_off_c, 6, 76, 0
8, 41984, Note_on_c, 6, 78, 96
8, 42496, Note_off_c, 6, 78, 0
8, 42496, Note_on_c, 6, 79, 96
8, 43008, Note_off_c, 6, 79, 0
8, 43008, Note_on_c, 6, 81, 96
8, 46080, Note_off_c, 6, 81, 0
8, 46080, Note_on_c, 6, 76, 96
8, 47104, Note_off_c, 6, 76, 0
8, 47104, Note_on_c, 6, 76, 96
8, 49152, Note_off_c, 6, 76, 0
8, 49152, Note_on_c, 6, 74, 96
8, 50176, Note_off_c, 6, 74, 0
8, 50176, Note_on_c, 6, 76, 96
8, 51200, Note_off_c, 6, 76, 0
8, 51200, Note_on_c, 6, 78, 96
8, 51712, Note_off_c, 6, 78, 0
8, 51712, Note_on_c, 6, 74, 96
8, 52224, Note_off_c, 6, 74, 0
8, 52224, Note_on_c, 6, 76, 96
8, 54272, Note_off_c, 6, 76, 0
8, 54272, Note_on_c, 6, 78, 96
8, 58368, Note_off_c, 6, 78, 0
8, 58368, End_track
9, 0, Start_track
9, 0, Title_t, "Instrument 8"
9, 0, Note_on_c, 7, 74, 96
9, 1024, Note_off_c, 7, 74, 0
9, 1024, Note_on_c, 7, 66, 96
9, 2048, Note_off_c, 7, 66, 0
9, 2048, Note_on_c, 7, 69, 96
9, 3072, Note_off_c, 7, 69, 0
9, 3072, Note_on_c, 7, 74, 96
9, 4608, Note_off_c, 7, 74, 0
9, 4608, Note_on_c, 7, 74, 96
9, 5120, Note_off_c, 7, 74, 0
9, 5120, Note_on_c, 7, 74, 96
9, 6144, Note_off_c, 7, 74, 0
9, 6144, Note_on_c, 7, 76, 96
9, 7168, Note_off_c, 7, 76, 0
9, 7168, Note_on_c, 7, 69, 96
9, 8192, Note_off_c, 7, 69, 0
9, 8192, Note_on_c, 7, 76, 96
9, 9216, Note_off_c, 7, 76, 0
9, 9216, Note_on_c, 7, 78, 96
9, 10240, Note_off_c, 7, 78, 0
9, 10240, Note_on_c, 7, 79, 96
9, 11264, Note_off_c, 7, 79, 0
9, 11264, Note_on_c, 7, 78, 96
9, 11776, Note_off_c, 7, 78, 0
9, 11776, Note_on_c, 7, 74, 96
9, 12288, Note_off_c, 7, 74, 0
9, 12288, Note_on_c, 7, 76, 96
9, 14336, Note_off_c, 7, 76, 0
9, 14336, Note_on_c, 7, 78, 96
9, 15360, Note_off_c, 7, 78, 0
9, 15360, Note_on_c, 7, 74, 96
9, 16384, Note_off_c, 7, 74, 0
9, 16384, Note_on_c, 7, 66, 96
9, 17408, Note_off_c, 7, 66, 0
9, 17408, Note_on_c, 7, 69, 96
9, 18432, Note_off_c, 7, 69, 0
9, 18432, Note_on_c, 7, 74, 96
9, 19968, Note_off_c, 7, 74, 0
9, 19968, Note_on_c, 7, 74, 96
9, 20480, Note_off_c, 7, 74, 0
9, 20480, Note_on_c, 7, 74, 96
9, 21504, Note_off_c, 7, 74, 0
9, 21504, Note_on_c, 7, 76, 96
9, 22528, Note_off_c, 7, 76, 0
9, 22528, Note_on_c, 7, 69, 96
9, 23552, Note_off_c, 7, 69, 0
9, 23552, Note_on_c, 7, 76, 96
9, 24576, Note_off_c, 7, 76, 0
9, 24576, Note_on_c, 7, 78, 96
9, 25600, Note_off_c, 7, 78, 0
9, 25600, Note_on_c, 7, 79, 96
9, 26624, Note_off_c, 7, 79, 0
9, 26624, Note_on_c, 7, 78, 96
9, 27136, Note_off_c, 7, 78, 0
9, 27136, Note_on_c, 7, 74, 96
9, 27648, Note_off_c, 7, 74, 0
9, 27648, Note_on_c, 7, 76, 96
9, 29696, Note_off_c, 7, 76, 0
9, 29696, Note_on_c, 7, 78, 96
9, 30720, Note_off_c, 7, 78, 0
9, 36864, Note_on_c, 7, 66, 96
9, 37888, Note_off_c, 7, 66, 0
9, 39936, Note_on_c, 7, 69, 96
9, 41472, Note_off_c, 7, 69, 0
9, 41472, Note_on_c, 7, 69, 96
9, 41984, Note_off_c, 7, 69, 0
9, 41984, Note_on_c, 7, 74, 96
9, 43008, Note_off_c, 7, 74, 0
9, 43008, Note_on_c, 7, 76, 96
9, 46080, Note_off_c, 7, 76, 0
9, 46080, Note_on_c, 7, 69, 96
9, 47104, Note_off_c, 7, 69, 0
9, 47104, Note_on_c, 7, 69, 96
9, 49152, Note_off_c, 7, 69, 0
9, 49152, Note_on_c, 7, 69, 96
9, 50176, Note_off_c, 7, 69, 0
9, 50176, Note_on_c, 7, 76, 96
9, 51200, Note_off_c, 7, 76, 0
9, 51200, Note_on_c, 7, 74, 96
9, 51712, Note_off_c, 7, 74, 0
9, 51712, Note_on_c, 7, 66, 96
9, 52224, Note_off_c, 7, 66, 0
9, 52224, Note_on_c, 7, 69, 96
9, 54272, Note_off_c, 7, 69, 0
9, 54272, Note_on_c, 7, 69, 96
9, 58368, Note_off_c, 7, 69, 0
9, 58368, End_track
0, 0, End_of_file
