0, 0, Header, 1, 14, 1024
1, 0, Start_track
1, 0, Time_signature, 2, 2, 24, 8
1, 0, Key_signature, 2, "major"
1, 0, Tempo, 625000
1, 2048, Time_signature, 3, 2, 24, 8
1, 2048, Tempo, 1000000
1, 137251, Tempo, 937500
1, 137315, Tempo, 1000000
1, 139587, Tempo, 1016949
1, 141859, Tempo, 1034482
1, 144131, Tempo, 1052631
1, 146403, Tempo, 1071428
1, 146505, Tempo, 952380
1, 146607, Tempo, 967741
1, 146708, Tempo, 983606
1, 146810, Tempo, 1000000
1, 146911, Tempo, 1016949
1, 147013, Tempo, 1034482
1, 147114, Tempo, 1052631
1, 147216, Tempo, 1071428
1, 147317, Tempo, 1090909
1, 147419, Tempo, 1111111
1, 147520, Tempo, 1132075
1, 147622, Tempo, 1153846
1, 147723, Tempo, 1176470
1, 147825, Tempo, 1200000
1, 147926, Tempo, 1224489
1, 148028, Tempo, 1250000
1, 148129, Tempo, 1276595
1, 148231, Tempo, 1304347
1, 148332, Tempo, 1333333
1, 148434, Tempo, 1363636
1, 148535, Tempo, 1395348
1, 148637, Tempo, 1428571
1, 148738, Tempo, 1463414
1, 148840, Tempo, 1500000
1, 148941, Tempo, 1538461
1, 149043, Tempo, 1578947
1, 149144, Tempo, 1621621
1, 149246, Tempo, 1666666
1, 149347, Tempo, 3333333
1, 149702, Tempo, 1764705
1, 149928, Tempo, 1818181
1, 150155, Tempo, 1875000
1, 150381, Tempo, 1935483
1, 150608, Tempo, 2000000
1, 150834, Tempo, 2068965
1, 151061, Tempo, 2142857
1, 151287, Tempo, 2222222
1, 151514, Tempo, 2307692
1, 151740, Tempo, 2400000
1, 151967, Tempo, 2500000
1, 152193, Tempo, 2608695
1, 152419, Tempo, 2727272
1, 153059, Tempo, 1000000
1, 155648, Time_signature, 3, 1, 48, 8
1, 155648, Key_signature, 1, "major"
1, 155648, Tempo, 638297
1, 309098, Tempo, 652173
1, 309226, Tempo, 594059
1, 309546, Tempo, 600000
1, 309866, Tempo, 606060
1, 310186, Tempo, 612244
1, 310506, Tempo, 618556
1, 310826, Tempo, 625000
1, 311146, Tempo, 631578
1, 311466, Tempo, 638297
1, 311786, Tempo, 645161
1, 312106, Tempo, 652173
1, 312426, Tempo, 659340
1, 312746, Tempo, 666666
1, 313066, Tempo, 674157
1, 313386, Tempo, 681818
1, 313706, Tempo, 689655
1, 314026, Tempo, 697674
1, 314346, Tempo, 705882
1, 314666, Tempo, 714285
1, 314986, Tempo, 722891
1, 315242, Tempo, 652173
1, 468762, Tempo, 625000
1, 468890, Tempo, 689655
1, 470810, Tempo, 937500
1, 470938, Tempo, 769230
1, 471962, Tempo, 1395348
1, 472090, Tempo, 1000000
1, 474522, Tempo, 1538461
1, 475162, Tempo, 1153846
1, 477082, Tempo, 1250000
1, 487424, End_track
2, 0, Start_track
2, 487424, End_track
3, 0, Start_track
3, 0, Title_t, "Flute I"
3, 0, Program_c, 0, 73
3, 0, Control_c, 0, 121, 127
3, 0, Control_c, 0, 91, 127
3, 0, Control_c, 0, 10, 50
3, 0, Control_c, 0, 1, 20
3, 157696, Note_on_c, 0, 79, 29
3, 159334, Note_on_c, 0, 79, 0
3, 159744, Note_on_c, 0, 76, 29
3, 161382, Note_on_c, 0, 76, 0
3, 163840, Note_on_c, 0, 78, 29
3, 165478, Note_on_c, 0, 78, 0
3, 165888, Note_on_c, 0, 71, 29
3, 167526, Note_on_c, 0, 71, 0
3, 169984, Note_on_c, 0, 76, 29
3, 171622, Note_on_c, 0, 76, 0
3, 172032, Note_on_c, 0, 69, 29
3, 173670, Note_on_c, 0, 69, 0
3, 176128, Note_on_c, 0, 71, 29
3, 177766, Note_on_c, 0, 71, 0
3, 178176, Note_on_c, 0, 66, 29
3, 179814, Note_on_c, 0, 66, 0
3, 180224, Note_on_c, 0, 67, 29
3, 181862, Note_on_c, 0, 67, 0
3, 182272, Note_on_c, 0, 79, 29
3, 183910, Note_on_c, 0, 79, 0
3, 184320, Note_on_c, 0, 76, 29
3, 185958, Note_on_c, 0, 76, 0
3, 188416, Note_on_c, 0, 71, 29
3, 190054, Note_on_c, 0, 71, 0
3, 190464, Note_on_c, 0, 80, 29
3, 192102, Note_on_c, 0, 80, 0
3, 194560, Note_on_c, 0, 81, 29
3, 196198, Note_on_c, 0, 81, 0
3, 196608, Note_on_c, 0, 78, 29
3, 198246, Note_on_c, 0, 78, 0
3, 200704, Note_on_c, 0, 83, 29
3, 202342, Note_on_c, 0, 83, 0
3, 202752, Note_on_c, 0, 78, 29
3, 204390, Note_on_c, 0, 78, 0
3, 204800, Note_on_c, 0, 79, 29
3, 206438, Note_on_c, 0, 79, 0
3, 206848, Note_on_c, 0, 76, 29
3, 208486, Note_on_c, 0, 76, 0
3, 208896, Note_on_c, 0, 72, 29
3, 210534, Note_on_c, 0, 72, 0
3, 212992, Note_on_c, 0, 71, 29
3, 214630, Note_on_c, 0, 71, 0
3, 215040, Note_on_c, 0, 80, 29
3, 216678, Note_on_c, 0, 80, 0
3, 219136, Note_on_c, 0, 76, 29
3, 220774, Note_on_c, 0, 76, 0
3, 221184, Note_on_c, 0, 81, 29
3, 222822, Note_on_c, 0, 81, 0
3, 225280, Note_on_c, 0, 83, 29
3, 226918, Note_on_c, 0, 83, 0
3, 227328, Note_on_c, 0, 78, 29
3, 228966, Note_on_c, 0, 78, 0
3, 229376, Note_on_c, 0, 79, 29
3, 231014, Note_on_c, 0, 79, 0
3, 231424, Note_on_c, 0, 71, 29
3, 233062, Note_on_c, 0, 71, 0
3, 233472, Note_on_c, 0, 73, 29
3, 235110, Note_on_c, 0, 73, 0
3, 237568, Note_on_c, 0, 72, 29
3, 239206, Note_on_c, 0, 72, 0
3, 239616, Note_on_c, 0, 71, 29
3, 241254, Note_on_c, 0, 71, 0
3, 243712, Note_on_c, 0, 64, 29
3, 245350, Note_on_c, 0, 64, 0
3, 245760, Note_on_c, 0, 76, 29
3, 247398, Note_on_c, 0, 76, 0
3, 249856, Note_on_c, 0, 78, 29
3, 251494, Note_on_c, 0, 78, 0
3, 251904, Note_on_c, 0, 81, 29
3, 253542, Note_on_c, 0, 81, 0
3, 253952, Note_on_c, 0, 80, 29
3, 255590, Note_on_c, 0, 80, 0
3, 256000, Note_on_c, 0, 81, 29
3, 257638, Note_on_c, 0, 81, 0
3, 258048, Note_on_c, 0, 84, 29
3, 259686, Note_on_c, 0, 84, 0
3, 262144, Note_on_c, 0, 83, 29
3, 263782, Note_on_c, 0, 83, 0
3, 264192, Note_on_c, 0, 71, 29
3, 265830, Note_on_c, 0, 71, 0
3, 268288, Note_on_c, 0, 64, 29
3, 269926, Note_on_c, 0, 64, 0
3, 270336, Note_on_c, 0, 76, 29
3, 271974, Note_on_c, 0, 76, 0
3, 274432, Note_on_c, 0, 75, 29
3, 276070, Note_on_c, 0, 75, 0
3, 276480, Note_on_c, 0, 71, 29
3, 278118, Note_on_c, 0, 71, 0
3, 278528, Note_on_c, 0, 67, 29
3, 280166, Note_on_c, 0, 67, 0
3, 280576, Note_on_c, 0, 79, 29
3, 282214, Note_on_c, 0, 79, 0
3, 282624, Note_on_c, 0, 76, 29
3, 284262, Note_on_c, 0, 76, 0
3, 286720, Note_on_c, 0, 71, 29
3, 288358, Note_on_c, 0, 71, 0
3, 288768, Note_on_c, 0, 83, 29
3, 290406, Note_on_c, 0, 83, 0
3, 292864, Note_on_c, 0, 76, 29
3, 294502, Note_on_c, 0, 76, 0
3, 294912, Note_on_c, 0, 81, 29
3, 296550, Note_on_c, 0, 81, 0
3, 299008, Note_on_c, 0, 75, 29
3, 300646, Note_on_c, 0, 75, 0
3, 301056, Note_on_c, 0, 78, 29
3, 302694, Note_on_c, 0, 78, 0
3, 303104, Note_on_c, 0, 80, 29
3, 304742, Note_on_c, 0, 80, 0
3, 305152, Note_on_c, 0, 76, 29
3, 306790, Note_on_c, 0, 76, 0
3, 307200, Note_on_c, 0, 72, 29
3, 308838, Note_on_c, 0, 72, 0
3, 311296, Note_on_c, 0, 77, 29
3, 312934, Note_on_c, 0, 77, 0
3, 313344, Note_on_c, 0, 71, 29
3, 314982, Note_on_c, 0, 71, 0
3, 317440, Note_on_c, 0, 76, 15
3, 319078, Note_on_c, 0, 76, 0
3, 319488, Note_on_c, 0, 69, 15
3, 321126, Note_on_c, 0, 69, 0
3, 323584, Note_on_c, 0, 71, 15
3, 325222, Note_on_c, 0, 71, 0
3, 325632, Note_on_c, 0, 78, 15
3, 327270, Note_on_c, 0, 78, 0
3, 327680, Note_on_c, 0, 79, 15
3, 329318, Note_on_c, 0, 79, 0
3, 329728, Note_on_c, 0, 78, 15
3, 331366, Note_on_c, 0, 78, 0
3, 331776, Note_on_c, 0, 70, 15
3, 333414, Note_on_c, 0, 70, 0
3, 335872, Note_on_c, 0, 71, 15
3, 337510, Note_on_c, 0, 71, 0
3, 337920, Note_on_c, 0, 68, 15
3, 339558, Note_on_c, 0, 68, 0
3, 342016, Note_on_c, 0, 69, 15
3, 343654, Note_on_c, 0, 69, 0
3, 344064, Note_on_c, 0, 66, 15
3, 345702, Note_on_c, 0, 66, 0
3, 348160, Note_on_c, 0, 63, 15
3, 349798, Note_on_c, 0, 63, 0
3, 350208, Note_on_c, 0, 66, 15
3, 351846, Note_on_c, 0, 66, 0
3, 352256, Note_on_c, 0, 67, 15
3, 353894, Note_on_c, 0, 67, 0
3, 354304, Note_on_c, 0, 69, 15
3, 355942, Note_on_c, 0, 69, 0
3, 356352, Note_on_c, 0, 72, 15
3, 357990, Note_on_c, 0, 72, 0
3, 360448, Note_on_c, 0, 71, 24
3, 362086, Note_on_c, 0, 71, 0
3, 362496, Note_on_c, 0, 76, 24
3, 364134, Note_on_c, 0, 76, 0
3, 366592, Note_on_c, 0, 76, 24
3, 368230, Note_on_c, 0, 76, 0
3, 368640, Note_on_c, 0, 81, 24
3, 370278, Note_on_c, 0, 81, 0
3, 372736, Note_on_c, 0, 78, 24
3, 374374, Note_on_c, 0, 78, 0
3, 374784, Note_on_c, 0, 83, 24
3, 376422, Note_on_c, 0, 83, 0
3, 376832, Note_on_c, 0, 79, 24
3, 378470, Note_on_c, 0, 79, 0
3, 378880, Note_on_c, 0, 67, 24
3, 380518, Note_on_c, 0, 67, 0
3, 380928, Note_on_c, 0, 69, 24
3, 382566, Note_on_c, 0, 69, 0
3, 385024, Note_on_c, 0, 70, 24
3, 386662, Note_on_c, 0, 70, 0
3, 387072, Note_on_c, 0, 71, 24
3, 388710, Note_on_c, 0, 71, 0
3, 391168, Note_on_c, 0, 69, 23
3, 392806, Note_on_c, 0, 69, 0
3, 393216, Note_on_c, 0, 76, 23
3, 394854, Note_on_c, 0, 76, 0
3, 397312, Note_on_c, 0, 77, 23
3, 398950, Note_on_c, 0, 77, 0
3, 399360, Note_on_c, 0, 74, 23
3, 400998, Note_on_c, 0, 74, 0
3, 401408, Note_on_c, 0, 71, 23
3, 403046, Note_on_c, 0, 71, 0
3, 403456, Note_on_c, 0, 83, 23
3, 405094, Note_on_c, 0, 83, 0
3, 405504, Note_on_c, 0, 80, 23
3, 407142, Note_on_c, 0, 80, 0
3, 409600, Note_on_c, 0, 78, 23
3, 411238, Note_on_c, 0, 78, 0
3, 411648, Note_on_c, 0, 83, 23
3, 413286, Note_on_c, 0, 83, 0
3, 415744, Note_on_c, 0, 76, 23
3, 417382, Note_on_c, 0, 76, 0
3, 417792, Note_on_c, 0, 64, 23
3, 419430, Note_on_c, 0, 64, 0
3, 421888, Note_on_c, 0, 66, 22
3, 423526, Note_on_c, 0, 66, 0
3, 423936, Note_on_c, 0, 71, 22
3, 425574, Note_on_c, 0, 71, 0
3, 425984, Note_on_c, 0, 67, 22
3, 427622, Note_on_c, 0, 67, 0
3, 428032, Note_on_c, 0, 72, 22
3, 429670, Note_on_c, 0, 72, 0
3, 430080, Note_on_c, 0, 79, 22
3, 431718, Note_on_c, 0, 79, 0
3, 434176, Note_on_c, 0, 71, 22
3, 435814, Note_on_c, 0, 71, 0
3, 436224, Note_on_c, 0, 83, 22
3, 437862, Note_on_c, 0, 83, 0
3, 440320, Note_on_c, 0, 76, 22
3, 441958, Note_on_c, 0, 76, 0
3, 442368, Note_on_c, 0, 78, 22
3, 444006, Note_on_c, 0, 78, 0
3, 446464, Note_on_c, 0, 71, 22
3, 448102, Note_on_c, 0, 71, 0
3, 448512, Note_on_c, 0, 66, 22
3, 450150, Note_on_c, 0, 66, 0
3, 450560, Note_on_c, 0, 67, 37
3, 452198, Note_on_c, 0, 67, 0
3, 487424, End_track
4, 0, Start_track
4, 0, Title_t, "Flute II"
4, 0, Program_c, 1, 73
4, 0, Control_c, 1, 121, 127
4, 0, Control_c, 1, 91, 127
4, 0, Control_c, 1, 10, 70
4, 0, Control_c, 1, 1, 20
4, 157696, Note_on_c, 1, 71, 31
4, 159334, Note_on_c, 1, 71, 0
4, 159744, Note_on_c, 1, 67, 31
4, 161382, Note_on_c, 1, 67, 0
4, 163840, Note_on_c, 1, 71, 31
4, 165478, Note_on_c, 1, 71, 0
4, 165888, Note_on_c, 1, 66, 31
4, 167526, Note_on_c, 1, 66, 0
4, 169984, Note_on_c, 1, 69, 31
4, 171622, Note_on_c, 1, 69, 0
4, 172032, Note_on_c, 1, 64, 31
4, 173670, Note_on_c, 1, 64, 0
4, 176128, Note_on_c, 1, 63, 31
4, 177766, Note_on_c, 1, 63, 0
4, 178176, Note_on_c, 1, 63, 30
4, 179814, Note_on_c, 1, 63, 0
4, 180224, Note_on_c, 1, 64, 30
4, 181862, Note_on_c, 1, 64, 0
4, 182272, Note_on_c, 1, 67, 30
4, 183910, Note_on_c, 1, 67, 0
4, 184320, Note_on_c, 1, 79, 30
4, 185958, Note_on_c, 1, 79, 0
4, 188416, Note_on_c, 1, 80, 30
4, 190054, Note_on_c, 1, 80, 0
4, 190464, Note_on_c, 1, 71, 30
4, 192102, Note_on_c, 1, 71, 0
4, 194560, Note_on_c, 1, 76, 30
4, 196198, Note_on_c, 1, 76, 0
4, 196608, Note_on_c, 1, 76, 30
4, 198246, Note_on_c, 1, 76, 0
4, 200704, Note_on_c, 1, 75, 29
4, 202342, Note_on_c, 1, 75, 0
4, 202752, Note_on_c, 1, 75, 29
4, 204390, Note_on_c, 1, 75, 0
4, 204800, Note_on_c, 1, 71, 29
4, 206438, Note_on_c, 1, 71, 0
4, 206848, Note_on_c, 1, 67, 29
4, 208486, Note_on_c, 1, 67, 0
4, 208896, Note_on_c, 1, 79, 29
4, 210534, Note_on_c, 1, 79, 0
4, 212992, Note_on_c, 1, 80, 29
4, 214630, Note_on_c, 1, 80, 0
4, 215040, Note_on_c, 1, 71, 29
4, 216678, Note_on_c, 1, 71, 0
4, 219136, Note_on_c, 1, 69, 29
4, 220774, Note_on_c, 1, 69, 0
4, 221184, Note_on_c, 1, 72, 29
4, 222822, Note_on_c, 1, 72, 0
4, 225280, Note_on_c, 1, 66, 28
4, 226918, Note_on_c, 1, 66, 0
4, 227328, Note_on_c, 1, 75, 28
4, 228966, Note_on_c, 1, 75, 0
4, 229376, Note_on_c, 1, 71, 28
4, 231014, Note_on_c, 1, 71, 0
4, 231424, Note_on_c, 1, 67, 28
4, 233062, Note_on_c, 1, 67, 0
4, 233472, Note_on_c, 1, 64, 28
4, 235110, Note_on_c, 1, 64, 0
4, 237568, Note_on_c, 1, 69, 28
4, 239206, Note_on_c, 1, 69, 0
4, 239616, Note_on_c, 1, 68, 28
4, 241254, Note_on_c, 1, 68, 0
4, 243712, Note_on_c, 1, 69, 28
4, 245350, Note_on_c, 1, 69, 0
4, 245760, Note_on_c, 1, 70, 27
4, 247398, Note_on_c, 1, 70, 0
4, 249856, Note_on_c, 1, 75, 27
4, 251494, Note_on_c, 1, 75, 0
4, 251904, Note_on_c, 1, 78, 27
4, 253542, Note_on_c, 1, 78, 0
4, 253952, Note_on_c, 1, 76, 27
4, 255590, Note_on_c, 1, 76, 0
4, 256000, Note_on_c, 1, 72, 27
4, 257638, Note_on_c, 1, 72, 0
4, 258048, Note_on_c, 1, 67, 27
4, 259686, Note_on_c, 1, 67, 0
4, 262144, Note_on_c, 1, 71, 27
4, 263782, Note_on_c, 1, 71, 0
4, 264192, Note_on_c, 1, 62, 27
4, 265830, Note_on_c, 1, 62, 0
4, 268288, Note_on_c, 1, 69, 26
4, 269926, Note_on_c, 1, 69, 0
4, 270336, Note_on_c, 1, 81, 26
4, 271974, Note_on_c, 1, 81, 0
4, 274432, Note_on_c, 1, 78, 26
4, 276070, Note_on_c, 1, 78, 0
4, 276480, Note_on_c, 1, 83, 26
4, 278118, Note_on_c, 1, 83, 0
4, 278528, Note_on_c, 1, 71, 26
4, 280166, Note_on_c, 1, 71, 0
4, 280576, Note_on_c, 1, 64, 26
4, 282214, Note_on_c, 1, 64, 0
4, 282624, Note_on_c, 1, 67, 26
4, 284262, Note_on_c, 1, 67, 0
4, 286720, Note_on_c, 1, 68, 26
4, 288358, Note_on_c, 1, 68, 0
4, 288768, Note_on_c, 1, 71, 26
4, 290406, Note_on_c, 1, 71, 0
4, 292864, Note_on_c, 1, 71, 25
4, 294502, Note_on_c, 1, 71, 0
4, 294912, Note_on_c, 1, 69, 25
4, 296550, Note_on_c, 1, 69, 0
4, 299008, Note_on_c, 1, 66, 25
4, 300646, Note_on_c, 1, 66, 0
4, 301056, Note_on_c, 1, 71, 25
4, 302694, Note_on_c, 1, 71, 0
4, 303104, Note_on_c, 1, 71, 25
4, 304742, Note_on_c, 1, 71, 0
4, 305152, Note_on_c, 1, 69, 25
4, 306790, Note_on_c, 1, 69, 0
4, 307200, Note_on_c, 1, 76, 25
4, 308838, Note_on_c, 1, 76, 0
4, 311296, Note_on_c, 1, 71, 25
4, 312934, Note_on_c, 1, 71, 0
4, 313344, Note_on_c, 1, 68, 25
4, 314982, Note_on_c, 1, 68, 0
4, 317440, Note_on_c, 1, 64, 21
4, 319078, Note_on_c, 1, 64, 0
4, 319488, Note_on_c, 1, 66, 21
4, 321126, Note_on_c, 1, 66, 0
4, 323584, Note_on_c, 1, 66, 21
4, 325222, Note_on_c, 1, 66, 0
4, 325632, Note_on_c, 1, 71, 21
4, 327270, Note_on_c, 1, 71, 0
4, 327680, Note_on_c, 1, 71, 21
4, 329318, Note_on_c, 1, 71, 0
4, 329728, Note_on_c, 1, 73, 21
4, 331366, Note_on_c, 1, 73, 0
4, 331776, Note_on_c, 1, 66, 21
4, 333414, Note_on_c, 1, 66, 0
4, 335872, Note_on_c, 1, 64, 21
4, 337510, Note_on_c, 1, 64, 0
4, 337920, Note_on_c, 1, 71, 21
4, 339558, Note_on_c, 1, 71, 0
4, 342016, Note_on_c, 1, 76, 21
4, 343654, Note_on_c, 1, 76, 0
4, 344064, Note_on_c, 1, 75, 21
4, 345702, Note_on_c, 1, 75, 0
4, 348160, Note_on_c, 1, 78, 21
4, 349798, Note_on_c, 1, 78, 0
4, 350208, Note_on_c, 1, 69, 21
4, 351846, Note_on_c, 1, 69, 0
4, 352256, Note_on_c, 1, 67, 21
4, 353894, Note_on_c, 1, 67, 0
4, 354304, Note_on_c, 1, 72, 21
4, 355942, Note_on_c, 1, 72, 0
4, 356352, Note_on_c, 1, 64, 21
4, 357990, Note_on_c, 1, 64, 0
4, 360448, Note_on_c, 1, 64, 30
4, 362086, Note_on_c, 1, 64, 0
4, 362496, Note_on_c, 1, 67, 30
4, 364134, Note_on_c, 1, 67, 0
4, 366592, Note_on_c, 1, 69, 29
4, 368230, Note_on_c, 1, 69, 0
4, 368640, Note_on_c, 1, 76, 29
4, 370278, Note_on_c, 1, 76, 0
4, 372736, Note_on_c, 1, 75, 29
4, 374374, Note_on_c, 1, 75, 0
4, 374784, Note_on_c, 1, 63, 29
4, 376422, Note_on_c, 1, 63, 0
4, 376832, Note_on_c, 1, 64, 28
4, 378470, Note_on_c, 1, 64, 0
4, 378880, Note_on_c, 1, 64, 28
4, 380518, Note_on_c, 1, 64, 0
4, 380928, Note_on_c, 1, 66, 28
4, 382566, Note_on_c, 1, 66, 0
4, 385024, Note_on_c, 1, 65, 27
4, 386662, Note_on_c, 1, 65, 0
4, 387072, Note_on_c, 1, 62, 27
4, 388710, Note_on_c, 1, 62, 0
4, 391168, Note_on_c, 1, 66, 26
4, 392806, Note_on_c, 1, 66, 0
4, 393216, Note_on_c, 1, 64, 26
4, 394854, Note_on_c, 1, 64, 0
4, 397312, Note_on_c, 1, 69, 25
4, 398950, Note_on_c, 1, 69, 0
4, 399360, Note_on_c, 1, 71, 25
4, 400998, Note_on_c, 1, 71, 0
4, 401408, Note_on_c, 1, 83, 24
4, 403046, Note_on_c, 1, 83, 0
4, 403456, Note_on_c, 1, 80, 24
4, 405094, Note_on_c, 1, 80, 0
4, 405504, Note_on_c, 1, 71, 24
4, 407142, Note_on_c, 1, 71, 0
4, 409600, Note_on_c, 1, 71, 23
4, 411238, Note_on_c, 1, 71, 0
4, 411648, Note_on_c, 1, 66, 22
4, 413286, Note_on_c, 1, 66, 0
4, 415744, Note_on_c, 1, 69, 22
4, 417382, Note_on_c, 1, 69, 0
4, 417792, Note_on_c, 1, 76, 21
4, 419430, Note_on_c, 1, 76, 0
4, 421888, Note_on_c, 1, 74, 21
4, 423526, Note_on_c, 1, 74, 0
4, 423936, Note_on_c, 1, 66, 20
4, 425574, Note_on_c, 1, 66, 0
4, 425984, Note_on_c, 1, 64, 20
4, 427622, Note_on_c, 1, 64, 0
4, 428032, Note_on_c, 1, 67, 20
4, 429670, Note_on_c, 1, 67, 0
4, 430080, Note_on_c, 1, 72, 19
4, 431718, Note_on_c, 1, 72, 0
4, 434176, Note_on_c, 1, 74, 19
4, 435814, Note_on_c, 1, 74, 0
4, 436224, Note_on_c, 1, 65, 18
4, 437862, Note_on_c, 1, 65, 0
4, 440320, Note_on_c, 1, 69, 18
4, 441958, Note_on_c, 1, 69, 0
4, 442368, Note_on_c, 1, 72, 17
4, 444006, Note_on_c, 1, 72, 0
4, 446464, Note_on_c, 1, 63, 17
4, 448102, Note_on_c, 1, 63, 0
4, 448512, Note_on_c, 1, 66, 16
4, 450150, Note_on_c, 1, 66, 0
4, 450560, Note_on_c, 1, 64, 16
4, 452198, Note_on_c, 1, 64, 0
4, 487424, End_track
5, 0, Start_track
5, 0, Title_t, "Violin I"
5, 0, Program_c, 2, 49
5, 0, Control_c, 2, 121, 127
5, 0, Control_c, 2, 91, 127
5, 0, Control_c, 2, 10, 40
5, 0, Control_c, 2, 1, 20
5, 2560, Note_on_c, 2, 66, 45
5, 2893, Note_on_c, 2, 66, 0
5, 3072, Note_on_c, 2, 61, 45
5, 3584, Note_on_c, 2, 61, 0
5, 3584, Note_on_c, 2, 62, 35
5, 3917, Note_on_c, 2, 62, 0
5, 4096, Note_on_c, 2, 58, 45
5, 4608, Note_on_c, 2, 58, 0
5, 4608, Note_on_c, 2, 59, 35
5, 4941, Note_on_c, 2, 59, 0
5, 5632, Note_on_c, 2, 71, 45
5, 5965, Note_on_c, 2, 71, 0
5, 6144, Note_on_c, 2, 66, 45
5, 6656, Note_on_c, 2, 66, 0
5, 6656, Note_on_c, 2, 67, 35
5, 6989, Note_on_c, 2, 67, 0
5, 7168, Note_on_c, 2, 63, 45
5, 7680, Note_on_c, 2, 63, 0
5, 7680, Note_on_c, 2, 64, 35
5, 8013, Note_on_c, 2, 64, 0
5, 8704, Note_on_c, 2, 79, 45
5, 9037, Note_on_c, 2, 79, 0
5, 9216, Note_on_c, 2, 70, 45
5, 9728, Note_on_c, 2, 70, 0
5, 9728, Note_on_c, 2, 73, 35
5, 10061, Note_on_c, 2, 73, 0
5, 10240, Note_on_c, 2, 76, 45
5, 10752, Note_on_c, 2, 76, 0
5, 10752, Note_on_c, 2, 67, 35
5, 11085, Note_on_c, 2, 67, 0
5, 11264, Note_on_c, 2, 66, 36
5, 11597, Note_on_c, 2, 66, 0
5, 11776, Note_on_c, 2, 74, 45
5, 12109, Note_on_c, 2, 74, 0
5, 12288, Note_on_c, 2, 70, 45
5, 12800, Note_on_c, 2, 70, 0
5, 12800, Note_on_c, 2, 71, 35
5, 13133, Note_on_c, 2, 71, 0
5, 13312, Note_on_c, 2, 65, 45
5, 13824, Note_on_c, 2, 65, 0
5, 13824, Note_on_c, 2, 66, 35
5, 14157, Note_on_c, 2, 66, 0
5, 14848, Note_on_c, 2, 78, 45
5, 15181, Note_on_c, 2, 78, 0
5, 15360, Note_on_c, 2, 73, 45
5, 15872, Note_on_c, 2, 73, 0
5, 15872, Note_on_c, 2, 74, 35
5, 16205, Note_on_c, 2, 74, 0
5, 16384, Note_on_c, 2, 70, 45
5, 16896, Note_on_c, 2, 70, 0
5, 16896, Note_on_c, 2, 71, 35
5, 17229, Note_on_c, 2, 71, 0
5, 17920, Note_on_c, 2, 76, 45
5, 18253, Note_on_c, 2, 76, 0
5, 18432, Note_on_c, 2, 70, 45
5, 18944, Note_on_c, 2, 70, 0
5, 18944, Note_on_c, 2, 71, 35
5, 19277, Note_on_c, 2, 71, 0
5, 19456, Note_on_c, 2, 66, 45
5, 19968, Note_on_c, 2, 66, 0
5, 19968, Note_on_c, 2, 67, 35
5, 20301, Note_on_c, 2, 67, 0
5, 20992, Note_on_c, 2, 73, 45
5, 21325, Note_on_c, 2, 73, 0
5, 21504, Note_on_c, 2, 66, 45
5, 22016, Note_on_c, 2, 66, 0
5, 22016, Note_on_c, 2, 67, 35
5, 22349, Note_on_c, 2, 67, 0
5, 22528, Note_on_c, 2, 63, 45
5, 23040, Note_on_c, 2, 63, 0
5, 23040, Note_on_c, 2, 64, 35
5, 23373, Note_on_c, 2, 64, 0
5, 24064, Note_on_c, 2, 74, 55
5, 24397, Note_on_c, 2, 74, 0
5, 24576, Note_on_c, 2, 70, 55
5, 25088, Note_on_c, 2, 70, 0
5, 25088, Note_on_c, 2, 71, 45
5, 25421, Note_on_c, 2, 71, 0
5, 25600, Note_on_c, 2, 65, 55
5, 26112, Note_on_c, 2, 65, 0
5, 26112, Note_on_c, 2, 66, 45
5, 26445, Note_on_c, 2, 66, 0
5, 27136, Note_on_c, 2, 75, 70
5, 27469, Note_on_c, 2, 75, 0
5, 27648, Note_on_c, 2, 68, 70
5, 28160, Note_on_c, 2, 68, 0
5, 28160, Note_on_c, 2, 69, 60
5, 28493, Note_on_c, 2, 69, 0
5, 28672, Note_on_c, 2, 65, 70
5, 29184, Note_on_c, 2, 65, 0
5, 29184, Note_on_c, 2, 66, 60
5, 29517, Note_on_c, 2, 66, 0
5, 30208, Note_on_c, 2, 73, 80
5, 30541, Note_on_c, 2, 73, 0
5, 30720, Note_on_c, 2, 68, 80
5, 31232, Note_on_c, 2, 68, 0
5, 31232, Note_on_c, 2, 69, 70
5, 31565, Note_on_c, 2, 69, 0
5, 31744, Note_on_c, 2, 65, 80
5, 32256, Note_on_c, 2, 65, 0
5, 32256, Note_on_c, 2, 66, 70
5, 32589, Note_on_c, 2, 66, 0
5, 33280, Note_on_c, 2, 73, 90
5, 33613, Note_on_c, 2, 73, 0
5, 33792, Note_on_c, 2, 65, 90
5, 34304, Note_on_c, 2, 65, 0
5, 34304, Note_on_c, 2, 66, 80
5, 34637, Note_on_c, 2, 66, 0
5, 34816, Note_on_c, 2, 60, 90
5, 35328, Note_on_c, 2, 60, 0
5, 35328, Note_on_c, 2, 61, 80
5, 35661, Note_on_c, 2, 61, 0
5, 36352, Note_on_c, 2, 78, 92
5, 36685, Note_on_c, 2, 78, 0
5, 36864, Note_on_c, 2, 72, 92
5, 37376, Note_on_c, 2, 72, 0
5, 37376, Note_on_c, 2, 73, 90
5, 37709, Note_on_c, 2, 73, 0
5, 37888, Note_on_c, 2, 65, 92
5, 38400, Note_on_c, 2, 65, 0
5, 38400, Note_on_c, 2, 66, 90
5, 38733, Note_on_c, 2, 66, 0
5, 39424, Note_on_c, 2, 80, 45
5, 39757, Note_on_c, 2, 80, 0
5, 39936, Note_on_c, 2, 72, 45
5, 40448, Note_on_c, 2, 72, 0
5, 40448, Note_on_c, 2, 73, 35
5, 40781, Note_on_c, 2, 73, 0
5, 40960, Note_on_c, 2, 65, 45
5, 41472, Note_on_c, 2, 65, 0
5, 41472, Note_on_c, 2, 66, 35
5, 41805, Note_on_c, 2, 66, 0
5, 42496, Note_on_c, 2, 78, 45
5, 42829, Note_on_c, 2, 78, 0
5, 43008, Note_on_c, 2, 72, 45
5, 43520, Note_on_c, 2, 72, 0
5, 43520, Note_on_c, 2, 73, 35
5, 43853, Note_on_c, 2, 73, 0
5, 44032, Note_on_c, 2, 68, 45
5, 44544, Note_on_c, 2, 68, 0
5, 44544, Note_on_c, 2, 69, 35
5, 44877, Note_on_c, 2, 69, 0
5, 45568, Note_on_c, 2, 79, 45
5, 45901, Note_on_c, 2, 79, 0
5, 46080, Note_on_c, 2, 73, 45
5, 46592, Note_on_c, 2, 73, 0
5, 46592, Note_on_c, 2, 74, 35
5, 46925, Note_on_c, 2, 74, 0
5, 47104, Note_on_c, 2, 70, 45
5, 47616, Note_on_c, 2, 70, 0
5, 47616, Note_on_c, 2, 71, 35
5, 47949, Note_on_c, 2, 71, 0
5, 48640, Note_on_c, 2, 78, 55
5, 48973, Note_on_c, 2, 78, 0
5, 49152, Note_on_c, 2, 70, 55
5, 49664, Note_on_c, 2, 70, 0
5, 49664, Note_on_c, 2, 71, 45
5, 49997, Note_on_c, 2, 71, 0
5, 50176, Note_on_c, 2, 65, 55
5, 50688, Note_on_c, 2, 65, 0
5, 50688, Note_on_c, 2, 66, 45
5, 51021, Note_on_c, 2, 66, 0
5, 51712, Note_on_c, 2, 71, 70
5, 52045, Note_on_c, 2, 71, 0
5, 52224, Note_on_c, 2, 65, 70
5, 52736, Note_on_c, 2, 65, 0
5, 52736, Note_on_c, 2, 66, 60
5, 53069, Note_on_c, 2, 66, 0
5, 53248, Note_on_c, 2, 61, 70
5, 53760, Note_on_c, 2, 61, 0
5, 53760, Note_on_c, 2, 62, 60
5, 54093, Note_on_c, 2, 62, 0
5, 54784, Note_on_c, 2, 83, 80
5, 55117, Note_on_c, 2, 83, 0
5, 55296, Note_on_c, 2, 77, 80
5, 55808, Note_on_c, 2, 77, 0
5, 55808, Note_on_c, 2, 78, 70
5, 56141, Note_on_c, 2, 78, 0
5, 56320, Note_on_c, 2, 73, 80
5, 56832, Note_on_c, 2, 73, 0
5, 56832, Note_on_c, 2, 74, 70
5, 57165, Note_on_c, 2, 74, 0
5, 57856, Note_on_c, 2, 74, 92
5, 58189, Note_on_c, 2, 74, 0
5, 58368, Note_on_c, 2, 68, 92
5, 58880, Note_on_c, 2, 68, 0
5, 58880, Note_on_c, 2, 69, 85
5, 59213, Note_on_c, 2, 69, 0
5, 59392, Note_on_c, 2, 65, 92
5, 59904, Note_on_c, 2, 65, 0
5, 59904, Note_on_c, 2, 66, 85
5, 60237, Note_on_c, 2, 66, 0
5, 60416, Note_on_c, 2, 61, 85
5, 60749, Note_on_c, 2, 61, 0
5, 60928, Note_on_c, 2, 73, 45
5, 61261, Note_on_c, 2, 73, 0
5, 61440, Note_on_c, 2, 68, 45
5, 61952, Note_on_c, 2, 68, 0
5, 61952, Note_on_c, 2, 69, 35
5, 62285, Note_on_c, 2, 69, 0
5, 62464, Note_on_c, 2, 65, 45
5, 62976, Note_on_c, 2, 65, 0
5, 62976, Note_on_c, 2, 66, 35
5, 63309, Note_on_c, 2, 66, 0
5, 64000, Note_on_c, 2, 78, 45
5, 64333, Note_on_c, 2, 78, 0
5, 64512, Note_on_c, 2, 73, 45
5, 65024, Note_on_c, 2, 73, 0
5, 65024, Note_on_c, 2, 74, 35
5, 65357, Note_on_c, 2, 74, 0
5, 65536, Note_on_c, 2, 70, 45
5, 66048, Note_on_c, 2, 70, 0
5, 66048, Note_on_c, 2, 71, 35
5, 66381, Note_on_c, 2, 71, 0
5, 67072, Note_on_c, 2, 74, 45
5, 67405, Note_on_c, 2, 74, 0
5, 67584, Note_on_c, 2, 65, 45
5, 68096, Note_on_c, 2, 65, 0
5, 68096, Note_on_c, 2, 68, 35
5, 68429, Note_on_c, 2, 68, 0
5, 68608, Note_on_c, 2, 71, 45
5, 69120, Note_on_c, 2, 71, 0
5, 69120, Note_on_c, 2, 62, 35
5, 69453, Note_on_c, 2, 62, 0
5, 69632, Note_on_c, 2, 61, 44
5, 69965, Note_on_c, 2, 61, 0
5, 70144, Note_on_c, 2, 69, 45
5, 70477, Note_on_c, 2, 69, 0
5, 70656, Note_on_c, 2, 65, 45
5, 71168, Note_on_c, 2, 65, 0
5, 71168, Note_on_c, 2, 66, 35
5, 71501, Note_on_c, 2, 66, 0
5, 71680, Note_on_c, 2, 60, 45
5, 72192, Note_on_c, 2, 60, 0
5, 72192, Note_on_c, 2, 61, 35
5, 72525, Note_on_c, 2, 61, 0
5, 73216, Note_on_c, 2, 73, 45
5, 73549, Note_on_c, 2, 73, 0
5, 73728, Note_on_c, 2, 68, 45
5, 74240, Note_on_c, 2, 68, 0
5, 74240, Note_on_c, 2, 69, 35
5, 74573, Note_on_c, 2, 69, 0
5, 74752, Note_on_c, 2, 65, 45
5, 75264, Note_on_c, 2, 65, 0
5, 75264, Note_on_c, 2, 66, 35
5, 75597, Note_on_c, 2, 66, 0
5, 76288, Note_on_c, 2, 71, 45
5, 76621, Note_on_c, 2, 71, 0
5, 76800, Note_on_c, 2, 65, 45
5, 77312, Note_on_c, 2, 65, 0
5, 77312, Note_on_c, 2, 66, 35
5, 77645, Note_on_c, 2, 66, 0
5, 77824, Note_on_c, 2, 61, 45
5, 78336, Note_on_c, 2, 61, 0
5, 78336, Note_on_c, 2, 62, 35
5, 78669, Note_on_c, 2, 62, 0
5, 79360, Note_on_c, 2, 80, 45
5, 79693, Note_on_c, 2, 80, 0
5, 79872, Note_on_c, 2, 73, 45
5, 80384, Note_on_c, 2, 73, 0
5, 80384, Note_on_c, 2, 74, 35
5, 80717, Note_on_c, 2, 74, 0
5, 80896, Note_on_c, 2, 70, 45
5, 81408, Note_on_c, 2, 70, 0
5, 81408, Note_on_c, 2, 71, 35
5, 81741, Note_on_c, 2, 71, 0
5, 82432, Note_on_c, 2, 81, 45
5, 82765, Note_on_c, 2, 81, 0
5, 82944, Note_on_c, 2, 77, 45
5, 83456, Note_on_c, 2, 77, 0
5, 83456, Note_on_c, 2, 78, 35
5, 83789, Note_on_c, 2, 78, 0
5, 83968, Note_on_c, 2, 75, 45
5, 84480, Note_on_c, 2, 75, 0
5, 84480, Note_on_c, 2, 76, 35
5, 84813, Note_on_c, 2, 76, 0
5, 85504, Note_on_c, 2, 81, 55
5, 85837, Note_on_c, 2, 81, 0
5, 86016, Note_on_c, 2, 78, 55
5, 86528, Note_on_c, 2, 78, 0
5, 86528, Note_on_c, 2, 79, 45
5, 86861, Note_on_c, 2, 79, 0
5, 87040, Note_on_c, 2, 75, 55
5, 87552, Note_on_c, 2, 75, 0
5, 87552, Note_on_c, 2, 76, 45
5, 87885, Note_on_c, 2, 76, 0
5, 88576, Note_on_c, 2, 79, 70
5, 88909, Note_on_c, 2, 79, 0
5, 89088, Note_on_c, 2, 75, 70
5, 89600, Note_on_c, 2, 75, 0
5, 89600, Note_on_c, 2, 76, 60
5, 89933, Note_on_c, 2, 76, 0
5, 90112, Note_on_c, 2, 70, 70
5, 90624, Note_on_c, 2, 70, 0
5, 90624, Note_on_c, 2, 71, 60
5, 90957, Note_on_c, 2, 71, 0
5, 91648, Note_on_c, 2, 79, 80
5, 91981, Note_on_c, 2, 79, 0
5, 92160, Note_on_c, 2, 75, 80
5, 92672, Note_on_c, 2, 75, 0
5, 92672, Note_on_c, 2, 76, 70
5, 93005, Note_on_c, 2, 76, 0
5, 93184, Note_on_c, 2, 72, 80
5, 93696, Note_on_c, 2, 72, 0
5, 93696, Note_on_c, 2, 73, 70
5, 94029, Note_on_c, 2, 73, 0
5, 94720, Note_on_c, 2, 79, 90
5, 95053, Note_on_c, 2, 79, 0
5, 95232, Note_on_c, 2, 73, 90
5, 95744, Note_on_c, 2, 73, 0
5, 95744, Note_on_c, 2, 74, 80
5, 96077, Note_on_c, 2, 74, 0
5, 96256, Note_on_c, 2, 70, 90
5, 96768, Note_on_c, 2, 70, 0
5, 96768, Note_on_c, 2, 71, 80
5, 97101, Note_on_c, 2, 71, 0
5, 97792, Note_on_c, 2, 76, 45
5, 98125, Note_on_c, 2, 76, 0
5, 98304, Note_on_c, 2, 73, 45
5, 98816, Note_on_c, 2, 73, 0
5, 98816, Note_on_c, 2, 74, 35
5, 99149, Note_on_c, 2, 74, 0
5, 99328, Note_on_c, 2, 70, 45
5, 99840, Note_on_c, 2, 70, 0
5, 99840, Note_on_c, 2, 71, 35
5, 100173, Note_on_c, 2, 71, 0
5, 100864, Note_on_c, 2, 74, 45
5, 101197, Note_on_c, 2, 74, 0
5, 101376, Note_on_c, 2, 70, 45
5, 101888, Note_on_c, 2, 70, 0
5, 101888, Note_on_c, 2, 71, 35
5, 102221, Note_on_c, 2, 71, 0
5, 102400, Note_on_c, 2, 65, 45
5, 102912, Note_on_c, 2, 65, 0
5, 102912, Note_on_c, 2, 66, 35
5, 103245, Note_on_c, 2, 66, 0
5, 103936, Note_on_c, 2, 83, 70
5, 104269, Note_on_c, 2, 83, 0
5, 104448, Note_on_c, 2, 78, 70
5, 104960, Note_on_c, 2, 78, 0
5, 104960, Note_on_c, 2, 79, 60
5, 105293, Note_on_c, 2, 79, 0
5, 105472, Note_on_c, 2, 75, 70
5, 105984, Note_on_c, 2, 75, 0
5, 105984, Note_on_c, 2, 76, 60
5, 106317, Note_on_c, 2, 76, 0
5, 107008, Note_on_c, 2, 76, 70
5, 107341, Note_on_c, 2, 76, 0
5, 107520, Note_on_c, 2, 70, 70
5, 108032, Note_on_c, 2, 70, 0
5, 108032, Note_on_c, 2, 71, 60
5, 108365, Note_on_c, 2, 71, 0
5, 108544, Note_on_c, 2, 66, 70
5, 109056, Note_on_c, 2, 66, 0
5, 109056, Note_on_c, 2, 67, 60
5, 109389, Note_on_c, 2, 67, 0
5, 110080, Note_on_c, 2, 78, 70
5, 110413, Note_on_c, 2, 78, 0
5, 110592, Note_on_c, 2, 73, 70
5, 111104, Note_on_c, 2, 73, 0
5, 111104, Note_on_c, 2, 74, 60
5, 111437, Note_on_c, 2, 74, 0
5, 111616, Note_on_c, 2, 70, 70
5, 112128, Note_on_c, 2, 70, 0
5, 112128, Note_on_c, 2, 71, 60
5, 112461, Note_on_c, 2, 71, 0
5, 113152, Note_on_c, 2, 73, 70
5, 113485, Note_on_c, 2, 73, 0
5, 113664, Note_on_c, 2, 66, 70
5, 114176, Note_on_c, 2, 66, 0
5, 114176, Note_on_c, 2, 67, 60
5, 114509, Note_on_c, 2, 67, 0
5, 114688, Note_on_c, 2, 61, 70
5, 115200, Note_on_c, 2, 61, 0
5, 115200, Note_on_c, 2, 62, 60
5, 115533, Note_on_c, 2, 62, 0
5, 116224, Note_on_c, 2, 71, 60
5, 116557, Note_on_c, 2, 71, 0
5, 116736, Note_on_c, 2, 66, 60
5, 117248, Note_on_c, 2, 66, 0
5, 117248, Note_on_c, 2, 67, 50
5, 117581, Note_on_c, 2, 67, 0
5, 117760, Note_on_c, 2, 61, 60
5, 118272, Note_on_c, 2, 61, 0
5, 118272, Note_on_c, 2, 62, 50
5, 118605, Note_on_c, 2, 62, 0
5, 119296, Note_on_c, 2, 78, 45
5, 119629, Note_on_c, 2, 78, 0
5, 119808, Note_on_c, 2, 73, 45
5, 120320, Note_on_c, 2, 73, 0
5, 120320, Note_on_c, 2, 74, 35
5, 120653, Note_on_c, 2, 74, 0
5, 120832, Note_on_c, 2, 70, 45
5, 121344, Note_on_c, 2, 70, 0
5, 121344, Note_on_c, 2, 71, 35
5, 121677, Note_on_c, 2, 71, 0
5, 122368, Note_on_c, 2, 83, 45
5, 122701, Note_on_c, 2, 83, 0
5, 122880, Note_on_c, 2, 78, 45
5, 123392, Note_on_c, 2, 78, 0
5, 123392, Note_on_c, 2, 79, 35
5, 123725, Note_on_c, 2, 79, 0
5, 123904, Note_on_c, 2, 75, 45
5, 124416, Note_on_c, 2, 75, 0
5, 124416, Note_on_c, 2, 76, 35
5, 124749, Note_on_c, 2, 76, 0
5, 125440, Note_on_c, 2, 79, 45
5, 125773, Note_on_c, 2, 79, 0
5, 125952, Note_on_c, 2, 70, 45
5, 126464, Note_on_c, 2, 70, 0
5, 126464, Note_on_c, 2, 73, 35
5, 126797, Note_on_c, 2, 73, 0
5, 126976, Note_on_c, 2, 76, 45
5, 127488, Note_on_c, 2, 76, 0
5, 127488, Note_on_c, 2, 67, 35
5, 127821, Note_on_c, 2, 67, 0
5, 128000, Note_on_c, 2, 66, 84
5, 128333, Note_on_c, 2, 66, 0
5, 128512, Note_on_c, 2, 74, 60
5, 128845, Note_on_c, 2, 74, 0
5, 129024, Note_on_c, 2, 70, 60
5, 129536, Note_on_c, 2, 70, 0
5, 129536, Note_on_c, 2, 71, 50
5, 129869, Note_on_c, 2, 71, 0
5, 130048, Note_on_c, 2, 66, 60
5, 130560, Note_on_c, 2, 66, 0
5, 130560, Note_on_c, 2, 67, 50
5, 130893, Note_on_c, 2, 67, 0
5, 131584, Note_on_c, 2, 76, 70
5, 131917, Note_on_c, 2, 76, 0
5, 132096, Note_on_c, 2, 72, 70
5, 132608, Note_on_c, 2, 72, 0
5, 132608, Note_on_c, 2, 73, 60
5, 132941, Note_on_c, 2, 73, 0
5, 133120, Note_on_c, 2, 68, 70
5, 133632, Note_on_c, 2, 68, 0
5, 133632, Note_on_c, 2, 69, 60
5, 133965, Note_on_c, 2, 69, 0
5, 134656, Note_on_c, 2, 78, 70
5, 134989, Note_on_c, 2, 78, 0
5, 135168, Note_on_c, 2, 73, 70
5, 135680, Note_on_c, 2, 73, 0
5, 135680, Note_on_c, 2, 74, 60
5, 136013, Note_on_c, 2, 74, 0
5, 136192, Note_on_c, 2, 70, 70
5, 136704, Note_on_c, 2, 70, 0
5, 136704, Note_on_c, 2, 71, 60
5, 137037, Note_on_c, 2, 71, 0
5, 137216, Note_on_c, 2, 79, 92
5, 138240, Note_on_c, 2, 79, 0
5, 139776, Note_on_c, 2, 83, 85
5, 140109, Note_on_c, 2, 83, 0
5, 140288, Note_on_c, 2, 78, 92
5, 140800, Note_on_c, 2, 78, 0
5, 140800, Note_on_c, 2, 79, 80
5, 141133, Note_on_c, 2, 79, 0
5, 141312, Note_on_c, 2, 75, 80
5, 141824, Note_on_c, 2, 75, 0
5, 141824, Note_on_c, 2, 76, 70
5, 142157, Note_on_c, 2, 76, 0
5, 142848, Note_on_c, 2, 79, 70
5, 143181, Note_on_c, 2, 79, 0
5, 143360, Note_on_c, 2, 75, 92
5, 143872, Note_on_c, 2, 75, 0
5, 143872, Note_on_c, 2, 76, 80
5, 144205, Note_on_c, 2, 76, 0
5, 144384, Note_on_c, 2, 71, 80
5, 144896, Note_on_c, 2, 71, 0
5, 144896, Note_on_c, 2, 72, 70
5, 145229, Note_on_c, 2, 72, 0
5, 145920, Note_on_c, 2, 76, 70
5, 146253, Note_on_c, 2, 76, 0
5, 146432, Note_on_c, 2, 73, 92
5, 146765, Note_on_c, 2, 73, 0
5, 146944, Note_on_c, 2, 67, 80
5, 147277, Note_on_c, 2, 67, 0
5, 147456, Note_on_c, 2, 63, 75
5, 147968, Note_on_c, 2, 63, 0
5, 147968, Note_on_c, 2, 64, 62
5, 148301, Note_on_c, 2, 64, 0
5, 148480, Note_on_c, 2, 58, 48
5, 148992, Note_on_c, 2, 58, 0
5, 148992, Note_on_c, 2, 59, 35
5, 149325, Note_on_c, 2, 59, 0
5, 149504, Control_c, 2, 7, 127
5, 149504, Note_on_c, 2, 59, 35
5, 149584, Control_c, 2, 7, 125
5, 149603, Control_c, 2, 7, 126
5, 149631, Control_c, 2, 7, 125
5, 149659, Control_c, 2, 7, 124
5, 149687, Control_c, 2, 7, 123
5, 149715, Control_c, 2, 7, 122
5, 149743, Control_c, 2, 7, 121
5, 149771, Control_c, 2, 7, 120
5, 149798, Control_c, 2, 7, 119
5, 149826, Control_c, 2, 7, 118
5, 149854, Control_c, 2, 7, 117
5, 149882, Control_c, 2, 7, 116
5, 149910, Control_c, 2, 7, 115
5, 149938, Control_c, 2, 7, 114
5, 149966, Control_c, 2, 7, 113
5, 149993, Control_c, 2, 7, 112
5, 150021, Control_c, 2, 7, 111
5, 150049, Control_c, 2, 7, 110
5, 150077, Control_c, 2, 7, 109
5, 150105, Control_c, 2, 7, 108
5, 150133, Control_c, 2, 7, 107
5, 150161, Control_c, 2, 7, 106
5, 150188, Control_c, 2, 7, 105
5, 150216, Control_c, 2, 7, 104
5, 150244, Control_c, 2, 7, 103
5, 150272, Control_c, 2, 7, 102
5, 150300, Control_c, 2, 7, 101
5, 150328, Control_c, 2, 7, 100
5, 150355, Control_c, 2, 7, 99
5, 150383, Control_c, 2, 7, 98
5, 150411, Control_c, 2, 7, 97
5, 150439, Control_c, 2, 7, 96
5, 150467, Control_c, 2, 7, 95
5, 150495, Control_c, 2, 7, 94
5, 150523, Control_c, 2, 7, 93
5, 150550, Control_c, 2, 7, 92
5, 150578, Control_c, 2, 7, 91
5, 150606, Control_c, 2, 7, 90
5, 150634, Control_c, 2, 7, 89
5, 150662, Control_c, 2, 7, 88
5, 150690, Control_c, 2, 7, 87
5, 150718, Control_c, 2, 7, 86
5, 150745, Control_c, 2, 7, 85
5, 150773, Control_c, 2, 7, 84
5, 150801, Control_c, 2, 7, 83
5, 150829, Control_c, 2, 7, 82
5, 150857, Control_c, 2, 7, 81
5, 150885, Control_c, 2, 7, 80
5, 150913, Control_c, 2, 7, 79
5, 150940, Control_c, 2, 7, 78
5, 150968, Control_c, 2, 7, 77
5, 150996, Control_c, 2, 7, 76
5, 151024, Control_c, 2, 7, 75
5, 151052, Control_c, 2, 7, 74
5, 151080, Control_c, 2, 7, 73
5, 151107, Control_c, 2, 7, 72
5, 151135, Control_c, 2, 7, 71
5, 151163, Control_c, 2, 7, 70
5, 151191, Control_c, 2, 7, 69
5, 151219, Control_c, 2, 7, 68
5, 151247, Control_c, 2, 7, 67
5, 151275, Control_c, 2, 7, 66
5, 151302, Control_c, 2, 7, 65
5, 151330, Control_c, 2, 7, 64
5, 151358, Control_c, 2, 7, 63
5, 151386, Control_c, 2, 7, 62
5, 151414, Control_c, 2, 7, 61
5, 151442, Control_c, 2, 7, 60
5, 151470, Control_c, 2, 7, 59
5, 151497, Control_c, 2, 7, 58
5, 151525, Control_c, 2, 7, 57
5, 151553, Control_c, 2, 7, 56
5, 151581, Control_c, 2, 7, 55
5, 151609, Control_c, 2, 7, 54
5, 151637, Control_c, 2, 7, 53
5, 151665, Control_c, 2, 7, 52
5, 151692, Control_c, 2, 7, 51
5, 151720, Control_c, 2, 7, 50
5, 151748, Control_c, 2, 7, 49
5, 151776, Control_c, 2, 7, 48
5, 151804, Control_c, 2, 7, 47
5, 151832, Control_c, 2, 7, 46
5, 151859, Control_c, 2, 7, 45
5, 151887, Control_c, 2, 7, 44
5, 151915, Control_c, 2, 7, 43
5, 151943, Control_c, 2, 7, 42
5, 151971, Control_c, 2, 7, 41
5, 151999, Control_c, 2, 7, 40
5, 152027, Control_c, 2, 7, 39
5, 152054, Control_c, 2, 7, 38
5, 152082, Control_c, 2, 7, 37
5, 152110, Control_c, 2, 7, 36
5, 152138, Control_c, 2, 7, 35
5, 152166, Control_c, 2, 7, 34
5, 152194, Control_c, 2, 7, 33
5, 152222, Control_c, 2, 7, 32
5, 152249, Control_c, 2, 7, 31
5, 152277, Control_c, 2, 7, 30
5, 152305, Control_c, 2, 7, 29
5, 152333, Control_c, 2, 7, 28
5, 152361, Control_c, 2, 7, 27
5, 152389, Control_c, 2, 7, 26
5, 152417, Control_c, 2, 7, 25
5, 152444, Control_c, 2, 7, 24
5, 152472, Control_c, 2, 7, 23
5, 152483, Control_c, 2, 7, 26
5, 152558, Control_c, 2, 7, 25
5, 152576, Note_on_c, 2, 59, 0
5, 152633, Control_c, 2, 7, 24
5, 152707, Control_c, 2, 7, 23
5, 152782, Control_c, 2, 7, 22
5, 152857, Control_c, 2, 7, 21
5, 152931, Control_c, 2, 7, 20
5, 152972, Control_c, 2, 7, 126
5, 155648, Note_on_c, 2, 71, 34
5, 157286, Note_on_c, 2, 71, 0
5, 159744, Note_on_c, 2, 72, 34
5, 161382, Note_on_c, 2, 72, 0
5, 161792, Note_on_c, 2, 72, 34
5, 163430, Note_on_c, 2, 72, 0
5, 165888, Note_on_c, 2, 71, 34
5, 167526, Note_on_c, 2, 71, 0
5, 167936, Note_on_c, 2, 71, 34
5, 169574, Note_on_c, 2, 71, 0
5, 172032, Note_on_c, 2, 69, 34
5, 173670, Note_on_c, 2, 69, 0
5, 174080, Note_on_c, 2, 71, 34
5, 175718, Note_on_c, 2, 71, 0
5, 178176, Note_on_c, 2, 66, 34
5, 179814, Note_on_c, 2, 66, 0
5, 180224, Note_on_c, 2, 64, 34
5, 181862, Note_on_c, 2, 64, 0
5, 184320, Note_on_c, 2, 72, 34
5, 185958, Note_on_c, 2, 72, 0
5, 186368, Note_on_c, 2, 72, 34
5, 188006, Note_on_c, 2, 72, 0
5, 190464, Note_on_c, 2, 71, 34
5, 192102, Note_on_c, 2, 71, 0
5, 192512, Note_on_c, 2, 71, 34
5, 194150, Note_on_c, 2, 71, 0
5, 196608, Note_on_c, 2, 69, 34
5, 198246, Note_on_c, 2, 69, 0
5, 198656, Note_on_c, 2, 71, 34
5, 200294, Note_on_c, 2, 71, 0
5, 202752, Note_on_c, 2, 78, 34
5, 204390, Note_on_c, 2, 78, 0
5, 204800, Note_on_c, 2, 79, 34
5, 206438, Note_on_c, 2, 79, 0
5, 208896, Note_on_c, 2, 76, 33
5, 210534, Note_on_c, 2, 76, 0
5, 210944, Note_on_c, 2, 78, 33
5, 212582, Note_on_c, 2, 78, 0
5, 215040, Note_on_c, 2, 80, 33
5, 216678, Note_on_c, 2, 80, 0
5, 217088, Note_on_c, 2, 81, 33
5, 218726, Note_on_c, 2, 81, 0
5, 221184, Note_on_c, 2, 78, 33
5, 222822, Note_on_c, 2, 78, 0
5, 223232, Note_on_c, 2, 75, 33
5, 224870, Note_on_c, 2, 75, 0
5, 227328, Note_on_c, 2, 78, 33
5, 228966, Note_on_c, 2, 78, 0
5, 229376, Note_on_c, 2, 79, 33
5, 231014, Note_on_c, 2, 79, 0
5, 233472, Note_on_c, 2, 79, 33
5, 235110, Note_on_c, 2, 79, 0
5, 235520, Note_on_c, 2, 78, 33
5, 237158, Note_on_c, 2, 78, 0
5, 239616, Note_on_c, 2, 77, 33
5, 241254, Note_on_c, 2, 77, 0
5, 241664, Note_on_c, 2, 76, 33
5, 243302, Note_on_c, 2, 76, 0
5, 245760, Note_on_c, 2, 76, 33
5, 247398, Note_on_c, 2, 76, 0
5, 247808, Note_on_c, 2, 76, 33
5, 249446, Note_on_c, 2, 76, 0
5, 251904, Note_on_c, 2, 75, 33
5, 253542, Note_on_c, 2, 75, 0
5, 253952, Note_on_c, 2, 76, 33
5, 255590, Note_on_c, 2, 76, 0
5, 258048, Note_on_c, 2, 76, 33
5, 259686, Note_on_c, 2, 76, 0
5, 260096, Note_on_c, 2, 78, 33
5, 261734, Note_on_c, 2, 78, 0
5, 264192, Note_on_c, 2, 66, 32
5, 265830, Note_on_c, 2, 66, 0
5, 266240, Note_on_c, 2, 67, 32
5, 267878, Note_on_c, 2, 67, 0
5, 270336, Note_on_c, 2, 69, 32
5, 271974, Note_on_c, 2, 69, 0
5, 272384, Note_on_c, 2, 63, 32
5, 274022, Note_on_c, 2, 63, 0
5, 276480, Note_on_c, 2, 75, 32
5, 278118, Note_on_c, 2, 75, 0
5, 278528, Note_on_c, 2, 76, 32
5, 280166, Note_on_c, 2, 76, 0
5, 282624, Note_on_c, 2, 64, 32
5, 284262, Note_on_c, 2, 64, 0
5, 284672, Note_on_c, 2, 66, 32
5, 286310, Note_on_c, 2, 66, 0
5, 288768, Note_on_c, 2, 68, 32
5, 290406, Note_on_c, 2, 68, 0
5, 290816, Note_on_c, 2, 69, 32
5, 292454, Note_on_c, 2, 69, 0
5, 294912, Note_on_c, 2, 72, 32
5, 296550, Note_on_c, 2, 72, 0
5, 296960, Note_on_c, 2, 66, 32
5, 298598, Note_on_c, 2, 66, 0
5, 301056, Note_on_c, 2, 66, 32
5, 302694, Note_on_c, 2, 66, 0
5, 303104, Note_on_c, 2, 64, 32
5, 304742, Note_on_c, 2, 64, 0
5, 307200, Note_on_c, 2, 67, 32
5, 308838, Note_on_c, 2, 67, 0
5, 309248, Note_on_c, 2, 69, 32
5, 310886, Note_on_c, 2, 69, 0
5, 313344, Note_on_c, 2, 71, 32
5, 314982, Note_on_c, 2, 71, 0
5, 315392, Note_on_c, 2, 69, 21
5, 317030, Note_on_c, 2, 69, 0
5, 319488, Note_on_c, 2, 69, 21
5, 321126, Note_on_c, 2, 69, 0
5, 321536, Note_on_c, 2, 67, 21
5, 323174, Note_on_c, 2, 67, 0
5, 325632, Note_on_c, 2, 63, 21
5, 327270, Note_on_c, 2, 63, 0
5, 327680, Note_on_c, 2, 64, 21
5, 329318, Note_on_c, 2, 64, 0
5, 331776, Note_on_c, 2, 73, 21
5, 333414, Note_on_c, 2, 73, 0
5, 333824, Note_on_c, 2, 71, 21
5, 335462, Note_on_c, 2, 71, 0
5, 337920, Note_on_c, 2, 76, 21
5, 339558, Note_on_c, 2, 76, 0
5, 339968, Note_on_c, 2, 69, 21
5, 341606, Note_on_c, 2, 69, 0
5, 344064, Note_on_c, 2, 69, 21
5, 345702, Note_on_c, 2, 69, 0
5, 346112, Note_on_c, 2, 78, 21
5, 347750, Note_on_c, 2, 78, 0
5, 350208, Note_on_c, 2, 75, 21
5, 351846, Note_on_c, 2, 75, 0
5, 352256, Note_on_c, 2, 83, 21
5, 353894, Note_on_c, 2, 83, 0
5, 356352, Note_on_c, 2, 79, 21
5, 357990, Note_on_c, 2, 79, 0
5, 358400, Note_on_c, 2, 78, 21
5, 360038, Note_on_c, 2, 78, 0
5, 362496, Note_on_c, 2, 71, 18
5, 364134, Note_on_c, 2, 71, 0
5, 364544, Note_on_c, 2, 76, 19
5, 366182, Note_on_c, 2, 76, 0
5, 368640, Note_on_c, 2, 72, 20
5, 370278, Note_on_c, 2, 72, 0
5, 370688, Note_on_c, 2, 66, 35
5, 372326, Note_on_c, 2, 66, 0
5, 374784, Note_on_c, 2, 66, 34
5, 376422, Note_on_c, 2, 66, 0
5, 376832, Note_on_c, 2, 67, 34
5, 378470, Note_on_c, 2, 67, 0
5, 380928, Note_on_c, 2, 72, 33
5, 382566, Note_on_c, 2, 72, 0
5, 382976, Note_on_c, 2, 66, 33
5, 384614, Note_on_c, 2, 66, 0
5, 387072, Note_on_c, 2, 71, 32
5, 388710, Note_on_c, 2, 71, 0
5, 389120, Note_on_c, 2, 71, 31
5, 390758, Note_on_c, 2, 71, 0
5, 393216, Note_on_c, 2, 69, 31
5, 394854, Note_on_c, 2, 69, 0
5, 395264, Note_on_c, 2, 74, 30
5, 396902, Note_on_c, 2, 74, 0
5, 399360, Note_on_c, 2, 65, 29
5, 400998, Note_on_c, 2, 65, 0
5, 401408, Note_on_c, 2, 65, 29
5, 403046, Note_on_c, 2, 65, 0
5, 405504, Note_on_c, 2, 64, 28
5, 407142, Note_on_c, 2, 64, 0
5, 407552, Note_on_c, 2, 66, 28
5, 409190, Note_on_c, 2, 66, 0
5, 411648, Note_on_c, 2, 66, 27
5, 413286, Note_on_c, 2, 66, 0
5, 413696, Note_on_c, 2, 67, 26
5, 415334, Note_on_c, 2, 67, 0
5, 417792, Note_on_c, 2, 69, 26
5, 419430, Note_on_c, 2, 69, 0
5, 419840, Note_on_c, 2, 67, 25
5, 421478, Note_on_c, 2, 67, 0
5, 423936, Note_on_c, 2, 74, 24
5, 425574, Note_on_c, 2, 74, 0
5, 425984, Note_on_c, 2, 72, 24
5, 427622, Note_on_c, 2, 72, 0
5, 430080, Note_on_c, 2, 72, 23
5, 431718, Note_on_c, 2, 72, 0
5, 432128, Note_on_c, 2, 72, 23
5, 433766, Note_on_c, 2, 72, 0
5, 436224, Note_on_c, 2, 71, 22
5, 437862, Note_on_c, 2, 71, 0
5, 438272, Note_on_c, 2, 71, 21
5, 439910, Note_on_c, 2, 71, 0
5, 442368, Note_on_c, 2, 69, 21
5, 443187, Note_on_c, 2, 69, 0
5, 443392, Note_on_c, 2, 66, 20
5, 444211, Note_on_c, 2, 66, 0
5, 444416, Note_on_c, 2, 67, 20
5, 445235, Note_on_c, 2, 67, 0
5, 445440, Note_on_c, 2, 64, 20
5, 446259, Note_on_c, 2, 64, 0
5, 446464, Note_on_c, 2, 59, 20
5, 448102, Note_on_c, 2, 59, 0
5, 448512, Note_on_c, 2, 59, 19
5, 450150, Note_on_c, 2, 59, 0
5, 450560, Note_on_c, 2, 59, 19
5, 452198, Note_on_c, 2, 59, 0
5, 487424, End_track
6, 0, Start_track
6, 0, Title_t, "Violin II"
6, 0, Program_c, 3, 49
6, 0, Control_c, 3, 121, 127
6, 0, Control_c, 3, 91, 127
6, 0, Control_c, 3, 10, 80
6, 0, Control_c, 3, 1, 20
6, 2560, Note_on_c, 3, 66, 45
6, 2893, Note_on_c, 3, 66, 0
6, 3072, Note_on_c, 3, 61, 45
6, 3584, Note_on_c, 3, 61, 0
6, 3584, Note_on_c, 3, 62, 35
6, 3917, Note_on_c, 3, 62, 0
6, 4096, Note_on_c, 3, 58, 45
6, 4608, Note_on_c, 3, 58, 0
6, 4608, Note_on_c, 3, 59, 35
6, 4941, Note_on_c, 3, 59, 0
6, 5632, Note_on_c, 3, 71, 45
6, 5965, Note_on_c, 3, 71, 0
6, 6144, Note_on_c, 3, 66, 45
6, 6656, Note_on_c, 3, 66, 0
6, 6656, Note_on_c, 3, 67, 35
6, 6989, Note_on_c, 3, 67, 0
6, 7168, Note_on_c, 3, 63, 45
6, 7680, Note_on_c, 3, 63, 0
6, 7680, Note_on_c, 3, 64, 35
6, 8013, Note_on_c, 3, 64, 0
6, 8704, Note_on_c, 3, 79, 45
6, 9037, Note_on_c, 3, 79, 0
6, 9216, Note_on_c, 3, 70, 45
6, 9728, Note_on_c, 3, 70, 0
6, 9728, Note_on_c, 3, 73, 35
6, 10061, Note_on_c, 3, 73, 0
6, 10240, Note_on_c, 3, 76, 45
6, 10752, Note_on_c, 3, 76, 0
6, 10752, Note_on_c, 3, 67, 35
6, 11085, Note_on_c, 3, 67, 0
6, 11264, Note_on_c, 3, 66, 41
6, 11597, Note_on_c, 3, 66, 0
6, 11776, Note_on_c, 3, 74, 34
6, 12109, Note_on_c, 3, 74, 0
6, 12288, Note_on_c, 3, 70, 45
6, 12800, Note_on_c, 3, 70, 0
6, 12800, Note_on_c, 3, 71, 35
6, 13133, Note_on_c, 3, 71, 0
6, 13312, Note_on_c, 3, 65, 45
6, 13824, Note_on_c, 3, 65, 0
6, 13824, Note_on_c, 3, 66, 35
6, 14157, Note_on_c, 3, 66, 0
6, 14848, Note_on_c, 3, 78, 45
6, 15181, Note_on_c, 3, 78, 0
6, 15360, Note_on_c, 3, 73, 45
6, 15872, Note_on_c, 3, 73, 0
6, 15872, Note_on_c, 3, 74, 35
6, 16205, Note_on_c, 3, 74, 0
6, 16384, Note_on_c, 3, 70, 45
6, 16896, Note_on_c, 3, 70, 0
6, 16896, Note_on_c, 3, 71, 35
6, 17229, Note_on_c, 3, 71, 0
6, 17920, Note_on_c, 3, 76, 45
6, 18253, Note_on_c, 3, 76, 0
6, 18432, Note_on_c, 3, 70, 45
6, 18944, Note_on_c, 3, 70, 0
6, 18944, Note_on_c, 3, 71, 35
6, 19277, Note_on_c, 3, 71, 0
6, 19456, Note_on_c, 3, 66, 45
6, 19968, Note_on_c, 3, 66, 0
6, 19968, Note_on_c, 3, 67, 35
6, 20301, Note_on_c, 3, 67, 0
6, 20992, Note_on_c, 3, 73, 45
6, 21325, Note_on_c, 3, 73, 0
6, 21504, Note_on_c, 3, 66, 45
6, 22016, Note_on_c, 3, 66, 0
6, 22016, Note_on_c, 3, 67, 35
6, 22349, Note_on_c, 3, 67, 0
6, 22528, Note_on_c, 3, 63, 45
6, 23040, Note_on_c, 3, 63, 0
6, 23040, Note_on_c, 3, 64, 35
6, 23373, Note_on_c, 3, 64, 0
6, 24064, Note_on_c, 3, 74, 55
6, 24397, Note_on_c, 3, 74, 0
6, 24576, Note_on_c, 3, 70, 55
6, 25088, Note_on_c, 3, 70, 0
6, 25088, Note_on_c, 3, 71, 45
6, 25421, Note_on_c, 3, 71, 0
6, 25600, Note_on_c, 3, 65, 55
6, 26112, Note_on_c, 3, 65, 0
6, 26112, Note_on_c, 3, 66, 45
6, 26445, Note_on_c, 3, 66, 0
6, 27136, Note_on_c, 3, 75, 70
6, 27469, Note_on_c, 3, 75, 0
6, 27648, Note_on_c, 3, 68, 70
6, 28160, Note_on_c, 3, 68, 0
6, 28160, Note_on_c, 3, 69, 60
6, 28493, Note_on_c, 3, 69, 0
6, 28672, Note_on_c, 3, 65, 70
6, 29184, Note_on_c, 3, 65, 0
6, 29184, Note_on_c, 3, 66, 60
6, 29517, Note_on_c, 3, 66, 0
6, 30208, Note_on_c, 3, 73, 80
6, 30541, Note_on_c, 3, 73, 0
6, 30720, Note_on_c, 3, 68, 80
6, 31232, Note_on_c, 3, 68, 0
6, 31232, Note_on_c, 3, 69, 70
6, 31565, Note_on_c, 3, 69, 0
6, 31744, Note_on_c, 3, 65, 80
6, 32256, Note_on_c, 3, 65, 0
6, 32256, Note_on_c, 3, 66, 70
6, 32589, Note_on_c, 3, 66, 0
6, 33280, Note_on_c, 3, 73, 90
6, 33613, Note_on_c, 3, 73, 0
6, 33792, Note_on_c, 3, 65, 90
6, 34304, Note_on_c, 3, 65, 0
6, 34304, Note_on_c, 3, 66, 80
6, 34637, Note_on_c, 3, 66, 0
6, 34816, Note_on_c, 3, 60, 90
6, 35328, Note_on_c, 3, 60, 0
6, 35328, Note_on_c, 3, 61, 80
6, 35661, Note_on_c, 3, 61, 0
6, 36352, Note_on_c, 3, 78, 92
6, 36685, Note_on_c, 3, 78, 0
6, 36864, Note_on_c, 3, 72, 92
6, 37376, Note_on_c, 3, 72, 0
6, 37376, Note_on_c, 3, 73, 90
6, 37709, Note_on_c, 3, 73, 0
6, 37888, Note_on_c, 3, 65, 92
6, 38400, Note_on_c, 3, 65, 0
6, 38400, Note_on_c, 3, 66, 90
6, 38733, Note_on_c, 3, 66, 0
6, 39424, Note_on_c, 3, 80, 45
6, 39757, Note_on_c, 3, 80, 0
6, 39936, Note_on_c, 3, 72, 45
6, 40448, Note_on_c, 3, 72, 0
6, 40448, Note_on_c, 3, 73, 35
6, 40781, Note_on_c, 3, 73, 0
6, 40960, Note_on_c, 3, 65, 45
6, 41472, Note_on_c, 3, 65, 0
6, 41472, Note_on_c, 3, 66, 35
6, 41805, Note_on_c, 3, 66, 0
6, 42496, Note_on_c, 3, 78, 45
6, 42829, Note_on_c, 3, 78, 0
6, 43008, Note_on_c, 3, 72, 45
6, 43520, Note_on_c, 3, 72, 0
6, 43520, Note_on_c, 3, 73, 35
6, 43853, Note_on_c, 3, 73, 0
6, 44032, Note_on_c, 3, 68, 45
6, 44544, Note_on_c, 3, 68, 0
6, 44544, Note_on_c, 3, 69, 35
6, 44877, Note_on_c, 3, 69, 0
6, 45568, Note_on_c, 3, 79, 45
6, 45901, Note_on_c, 3, 79, 0
6, 46080, Note_on_c, 3, 73, 45
6, 46592, Note_on_c, 3, 73, 0
6, 46592, Note_on_c, 3, 74, 35
6, 46925, Note_on_c, 3, 74, 0
6, 47104, Note_on_c, 3, 70, 45
6, 47616, Note_on_c, 3, 70, 0
6, 47616, Note_on_c, 3, 71, 35
6, 47949, Note_on_c, 3, 71, 0
6, 48640, Note_on_c, 3, 78, 55
6, 48973, Note_on_c, 3, 78, 0
6, 49152, Note_on_c, 3, 70, 55
6, 49664, Note_on_c, 3, 70, 0
6, 49664, Note_on_c, 3, 71, 45
6, 49997, Note_on_c, 3, 71, 0
6, 50176, Note_on_c, 3, 65, 55
6, 50688, Note_on_c, 3, 65, 0
6, 50688, Note_on_c, 3, 66, 45
6, 51021, Note_on_c, 3, 66, 0
6, 51712, Note_on_c, 3, 71, 70
6, 52045, Note_on_c, 3, 71, 0
6, 52224, Note_on_c, 3, 65, 70
6, 52736, Note_on_c, 3, 65, 0
6, 52736, Note_on_c, 3, 66, 60
6, 53069, Note_on_c, 3, 66, 0
6, 53248, Note_on_c, 3, 61, 70
6, 53760, Note_on_c, 3, 61, 0
6, 53760, Note_on_c, 3, 62, 60
6, 54093, Note_on_c, 3, 62, 0
6, 54784, Note_on_c, 3, 83, 80
6, 55117, Note_on_c, 3, 83, 0
6, 55296, Note_on_c, 3, 77, 80
6, 55808, Note_on_c, 3, 77, 0
6, 55808, Note_on_c, 3, 78, 70
6, 56141, Note_on_c, 3, 78, 0
6, 56320, Note_on_c, 3, 73, 80
6, 56832, Note_on_c, 3, 73, 0
6, 56832, Note_on_c, 3, 74, 70
6, 57165, Note_on_c, 3, 74, 0
6, 57856, Note_on_c, 3, 74, 92
6, 58189, Note_on_c, 3, 74, 0
6, 58368, Note_on_c, 3, 68, 92
6, 58880, Note_on_c, 3, 68, 0
6, 58880, Note_on_c, 3, 69, 85
6, 59213, Note_on_c, 3, 69, 0
6, 59392, Note_on_c, 3, 65, 92
6, 59904, Note_on_c, 3, 65, 0
6, 59904, Note_on_c, 3, 66, 85
6, 60237, Note_on_c, 3, 66, 0
6, 60416, Note_on_c, 3, 61, 85
6, 60749, Note_on_c, 3, 61, 0
6, 60928, Note_on_c, 3, 73, 45
6, 61261, Note_on_c, 3, 73, 0
6, 61440, Note_on_c, 3, 68, 45
6, 61952, Note_on_c, 3, 68, 0
6, 61952, Note_on_c, 3, 69, 35
6, 62285, Note_on_c, 3, 69, 0
6, 62464, Note_on_c, 3, 65, 45
6, 62976, Note_on_c, 3, 65, 0
6, 62976, Note_on_c, 3, 66, 35
6, 63309, Note_on_c, 3, 66, 0
6, 64000, Note_on_c, 3, 78, 45
6, 64333, Note_on_c, 3, 78, 0
6, 64512, Note_on_c, 3, 73, 45
6, 65024, Note_on_c, 3, 73, 0
6, 65024, Note_on_c, 3, 74, 35
6, 65357, Note_on_c, 3, 74, 0
6, 65536, Note_on_c, 3, 70, 45
6, 66048, Note_on_c, 3, 70, 0
6, 66048, Note_on_c, 3, 71, 35
6, 66381, Note_on_c, 3, 71, 0
6, 67072, Note_on_c, 3, 74, 45
6, 67405, Note_on_c, 3, 74, 0
6, 67584, Note_on_c, 3, 65, 45
6, 68096, Note_on_c, 3, 65, 0
6, 68096, Note_on_c, 3, 68, 35
6, 68429, Note_on_c, 3, 68, 0
6, 68608, Note_on_c, 3, 71, 45
6, 69120, Note_on_c, 3, 71, 0
6, 69120, Note_on_c, 3, 62, 35
6, 69453, Note_on_c, 3, 62, 0
6, 69632, Note_on_c, 3, 61, 34
6, 69965, Note_on_c, 3, 61, 0
6, 70144, Note_on_c, 3, 69, 34
6, 70477, Note_on_c, 3, 69, 0
6, 70656, Note_on_c, 3, 65, 45
6, 71168, Note_on_c, 3, 65, 0
6, 71168, Note_on_c, 3, 66, 35
6, 71501, Note_on_c, 3, 66, 0
6, 71680, Note_on_c, 3, 60, 45
6, 72192, Note_on_c, 3, 60, 0
6, 72192, Note_on_c, 3, 61, 35
6, 72525, Note_on_c, 3, 61, 0
6, 73216, Note_on_c, 3, 73, 45
6, 73549, Note_on_c, 3, 73, 0
6, 73728, Note_on_c, 3, 68, 45
6, 74240, Note_on_c, 3, 68, 0
6, 74240, Note_on_c, 3, 69, 35
6, 74573, Note_on_c, 3, 69, 0
6, 74752, Note_on_c, 3, 65, 45
6, 75264, Note_on_c, 3, 65, 0
6, 75264, Note_on_c, 3, 66, 35
6, 75597, Note_on_c, 3, 66, 0
6, 76288, Note_on_c, 3, 71, 45
6, 76621, Note_on_c, 3, 71, 0
6, 76800, Note_on_c, 3, 65, 45
6, 77312, Note_on_c, 3, 65, 0
6, 77312, Note_on_c, 3, 66, 35
6, 77645, Note_on_c, 3, 66, 0
6, 77824, Note_on_c, 3, 61, 45
6, 78336, Note_on_c, 3, 61, 0
6, 78336, Note_on_c, 3, 62, 35
6, 78669, Note_on_c, 3, 62, 0
6, 79360, Note_on_c, 3, 80, 45
6, 79693, Note_on_c, 3, 80, 0
6, 79872, Note_on_c, 3, 73, 45
6, 80384, Note_on_c, 3, 73, 0
6, 80384, Note_on_c, 3, 74, 35
6, 80717, Note_on_c, 3, 74, 0
6, 80896, Note_on_c, 3, 70, 45
6, 81408, Note_on_c, 3, 70, 0
6, 81408, Note_on_c, 3, 71, 35
6, 81741, Note_on_c, 3, 71, 0
6, 82432, Note_on_c, 3, 81, 45
6, 82765, Note_on_c, 3, 81, 0
6, 82944, Note_on_c, 3, 77, 45
6, 83456, Note_on_c, 3, 77, 0
6, 83456, Note_on_c, 3, 78, 35
6, 83789, Note_on_c, 3, 78, 0
6, 83968, Note_on_c, 3, 75, 45
6, 84480, Note_on_c, 3, 75, 0
6, 84480, Note_on_c, 3, 76, 35
6, 84813, Note_on_c, 3, 76, 0
6, 85504, Note_on_c, 3, 81, 55
6, 85837, Note_on_c, 3, 81, 0
6, 86016, Note_on_c, 3, 78, 55
6, 86528, Note_on_c, 3, 78, 0
6, 86528, Note_on_c, 3, 79, 45
6, 86861, Note_on_c, 3, 79, 0
6, 87040, Note_on_c, 3, 75, 55
6, 87552, Note_on_c, 3, 75, 0
6, 87552, Note_on_c, 3, 76, 45
6, 87885, Note_on_c, 3, 76, 0
6, 88576, Note_on_c, 3, 79, 70
6, 88909, Note_on_c, 3, 79, 0
6, 89088, Note_on_c, 3, 75, 70
6, 89600, Note_on_c, 3, 75, 0
6, 89600, Note_on_c, 3, 76, 60
6, 89933, Note_on_c, 3, 76, 0
6, 90112, Note_on_c, 3, 70, 70
6, 90624, Note_on_c, 3, 70, 0
6, 90624, Note_on_c, 3, 71, 60
6, 90957, Note_on_c, 3, 71, 0
6, 91648, Note_on_c, 3, 79, 80
6, 91981, Note_on_c, 3, 79, 0
6, 92160, Note_on_c, 3, 75, 80
6, 92672, Note_on_c, 3, 75, 0
6, 92672, Note_on_c, 3, 76, 70
6, 93005, Note_on_c, 3, 76, 0
6, 93184, Note_on_c, 3, 72, 80
6, 93696, Note_on_c, 3, 72, 0
6, 93696, Note_on_c, 3, 73, 70
6, 94029, Note_on_c, 3, 73, 0
6, 94720, Note_on_c, 3, 79, 90
6, 95053, Note_on_c, 3, 79, 0
6, 95232, Note_on_c, 3, 73, 90
6, 95744, Note_on_c, 3, 73, 0
6, 95744, Note_on_c, 3, 74, 80
6, 96077, Note_on_c, 3, 74, 0
6, 96256, Note_on_c, 3, 70, 90
6, 96768, Note_on_c, 3, 70, 0
6, 96768, Note_on_c, 3, 71, 80
6, 97101, Note_on_c, 3, 71, 0
6, 97792, Note_on_c, 3, 76, 45
6, 98125, Note_on_c, 3, 76, 0
6, 98304, Note_on_c, 3, 73, 45
6, 98816, Note_on_c, 3, 73, 0
6, 98816, Note_on_c, 3, 74, 35
6, 99149, Note_on_c, 3, 74, 0
6, 99328, Note_on_c, 3, 70, 45
6, 99840, Note_on_c, 3, 70, 0
6, 99840, Note_on_c, 3, 71, 35
6, 100173, Note_on_c, 3, 71, 0
6, 100864, Note_on_c, 3, 74, 45
6, 101197, Note_on_c, 3, 74, 0
6, 101376, Note_on_c, 3, 70, 45
6, 101888, Note_on_c, 3, 70, 0
6, 101888, Note_on_c, 3, 71, 35
6, 102221, Note_on_c, 3, 71, 0
6, 102400, Note_on_c, 3, 65, 45
6, 102912, Note_on_c, 3, 65, 0
6, 102912, Note_on_c, 3, 66, 35
6, 103245, Note_on_c, 3, 66, 0
6, 103936, Note_on_c, 3, 83, 70
6, 104269, Note_on_c, 3, 83, 0
6, 104448, Note_on_c, 3, 78, 70
6, 104960, Note_on_c, 3, 78, 0
6, 104960, Note_on_c, 3, 79, 60
6, 105293, Note_on_c, 3, 79, 0
6, 105472, Note_on_c, 3, 75, 70
6, 105984, Note_on_c, 3, 75, 0
6, 105984, Note_on_c, 3, 76, 60
6, 106317, Note_on_c, 3, 76, 0
6, 107008, Note_on_c, 3, 76, 70
6, 107341, Note_on_c, 3, 76, 0
6, 107520, Note_on_c, 3, 70, 70
6, 108032, Note_on_c, 3, 70, 0
6, 108032, Note_on_c, 3, 71, 60
6, 108365, Note_on_c, 3, 71, 0
6, 108544, Note_on_c, 3, 66, 70
6, 109056, Note_on_c, 3, 66, 0
6, 109056, Note_on_c, 3, 67, 60
6, 109389, Note_on_c, 3, 67, 0
6, 110080, Note_on_c, 3, 78, 70
6, 110413, Note_on_c, 3, 78, 0
6, 110592, Note_on_c, 3, 73, 70
6, 111104, Note_on_c, 3, 73, 0
6, 111104, Note_on_c, 3, 74, 60
6, 111437, Note_on_c, 3, 74, 0
6, 111616, Note_on_c, 3, 70, 70
6, 112128, Note_on_c, 3, 70, 0
6, 112128, Note_on_c, 3, 71, 60
6, 112461, Note_on_c, 3, 71, 0
6, 113152, Note_on_c, 3, 73, 70
6, 113485, Note_on_c, 3, 73, 0
6, 113664, Note_on_c, 3, 66, 70
6, 114176, Note_on_c, 3, 66, 0
6, 114176, Note_on_c, 3, 67, 60
6, 114509, Note_on_c, 3, 67, 0
6, 114688, Note_on_c, 3, 61, 70
6, 115200, Note_on_c, 3, 61, 0
6, 115200, Note_on_c, 3, 62, 60
6, 115533, Note_on_c, 3, 62, 0
6, 116224, Note_on_c, 3, 71, 60
6, 116557, Note_on_c, 3, 71, 0
6, 116736, Note_on_c, 3, 66, 60
6, 117248, Note_on_c, 3, 66, 0
6, 117248, Note_on_c, 3, 67, 50
6, 117581, Note_on_c, 3, 67, 0
6, 117760, Note_on_c, 3, 61, 60
6, 118272, Note_on_c, 3, 61, 0
6, 118272, Note_on_c, 3, 62, 50
6, 118605, Note_on_c, 3, 62, 0
6, 119296, Note_on_c, 3, 78, 45
6, 119629, Note_on_c, 3, 78, 0
6, 119808, Note_on_c, 3, 73, 45
6, 120320, Note_on_c, 3, 73, 0
6, 120320, Note_on_c, 3, 74, 35
6, 120653, Note_on_c, 3, 74, 0
6, 120832, Note_on_c, 3, 70, 45
6, 121344, Note_on_c, 3, 70, 0
6, 121344, Note_on_c, 3, 71, 35
6, 121677, Note_on_c, 3, 71, 0
6, 122368, Note_on_c, 3, 83, 45
6, 122701, Note_on_c, 3, 83, 0
6, 122880, Note_on_c, 3, 78, 45
6, 123392, Note_on_c, 3, 78, 0
6, 123392, Note_on_c, 3, 79, 35
6, 123725, Note_on_c, 3, 79, 0
6, 123904, Note_on_c, 3, 75, 45
6, 124416, Note_on_c, 3, 75, 0
6, 124416, Note_on_c, 3, 76, 35
6, 124749, Note_on_c, 3, 76, 0
6, 125440, Note_on_c, 3, 79, 45
6, 125773, Note_on_c, 3, 79, 0
6, 125952, Note_on_c, 3, 70, 45
6, 126464, Note_on_c, 3, 70, 0
6, 126464, Note_on_c, 3, 73, 35
6, 126797, Note_on_c, 3, 73, 0
6, 126976, Note_on_c, 3, 76, 45
6, 127488, Note_on_c, 3, 76, 0
6, 127488, Note_on_c, 3, 67, 35
6, 127821, Note_on_c, 3, 67, 0
6, 128000, Note_on_c, 3, 66, 84
6, 128333, Note_on_c, 3, 66, 0
6, 128512, Note_on_c, 3, 74, 60
6, 128845, Note_on_c, 3, 74, 0
6, 129024, Note_on_c, 3, 70, 60
6, 129536, Note_on_c, 3, 70, 0
6, 129536, Note_on_c, 3, 71, 50
6, 129869, Note_on_c, 3, 71, 0
6, 130048, Note_on_c, 3, 66, 60
6, 130560, Note_on_c, 3, 66, 0
6, 130560, Note_on_c, 3, 67, 50
6, 130893, Note_on_c, 3, 67, 0
6, 131584, Note_on_c, 3, 76, 70
6, 131917, Note_on_c, 3, 76, 0
6, 132096, Note_on_c, 3, 72, 70
6, 132608, Note_on_c, 3, 72, 0
6, 132608, Note_on_c, 3, 73, 60
6, 132941, Note_on_c, 3, 73, 0
6, 133120, Note_on_c, 3, 68, 70
6, 133632, Note_on_c, 3, 68, 0
6, 133632, Note_on_c, 3, 69, 60
6, 133965, Note_on_c, 3, 69, 0
6, 134656, Note_on_c, 3, 78, 70
6, 134989, Note_on_c, 3, 78, 0
6, 135168, Note_on_c, 3, 73, 70
6, 135680, Note_on_c, 3, 73, 0
6, 135680, Note_on_c, 3, 74, 60
6, 136013, Note_on_c, 3, 74, 0
6, 136192, Note_on_c, 3, 70, 70
6, 136704, Note_on_c, 3, 70, 0
6, 136704, Note_on_c, 3, 71, 60
6, 137037, Note_on_c, 3, 71, 0
6, 137216, Note_on_c, 3, 79, 69
6, 138240, Note_on_c, 3, 79, 0
6, 138752, Note_on_c, 3, 79, 69
6, 139085, Note_on_c, 3, 79, 0
6, 139264, Note_on_c, 3, 75, 69
6, 139776, Note_on_c, 3, 75, 0
6, 139776, Note_on_c, 3, 76, 55
6, 140109, Note_on_c, 3, 76, 0
6, 140288, Note_on_c, 3, 70, 69
6, 140800, Note_on_c, 3, 70, 0
6, 140800, Note_on_c, 3, 71, 55
6, 141133, Note_on_c, 3, 71, 0
6, 141824, Note_on_c, 3, 76, 69
6, 142157, Note_on_c, 3, 76, 0
6, 142336, Note_on_c, 3, 71, 69
6, 142848, Note_on_c, 3, 71, 0
6, 142848, Note_on_c, 3, 72, 55
6, 143181, Note_on_c, 3, 72, 0
6, 143360, Note_on_c, 3, 66, 69
6, 143872, Note_on_c, 3, 66, 0
6, 143872, Note_on_c, 3, 67, 55
6, 144205, Note_on_c, 3, 67, 0
6, 144896, Note_on_c, 3, 67, 69
6, 145229, Note_on_c, 3, 67, 0
6, 145408, Note_on_c, 3, 66, 69
6, 145920, Note_on_c, 3, 66, 0
6, 145920, Note_on_c, 3, 67, 55
6, 146253, Note_on_c, 3, 67, 0
6, 146432, Note_on_c, 3, 64, 69
6, 146765, Note_on_c, 3, 64, 0
6, 146944, Note_on_c, 3, 67, 55
6, 147277, Note_on_c, 3, 67, 0
6, 147456, Note_on_c, 3, 63, 69
6, 147968, Note_on_c, 3, 63, 0
6, 147968, Note_on_c, 3, 64, 58
6, 148301, Note_on_c, 3, 64, 0
6, 148480, Note_on_c, 3, 58, 46
6, 148992, Note_on_c, 3, 58, 0
6, 148992, Note_on_c, 3, 59, 35
6, 149325, Note_on_c, 3, 59, 0
6, 149504, Control_c, 3, 7, 127
6, 149504, Note_on_c, 3, 59, 35
6, 149568, Control_c, 3, 7, 126
6, 149596, Control_c, 3, 7, 125
6, 149624, Control_c, 3, 7, 124
6, 149652, Control_c, 3, 7, 123
6, 149680, Control_c, 3, 7, 122
6, 149708, Control_c, 3, 7, 121
6, 149736, Control_c, 3, 7, 120
6, 149764, Control_c, 3, 7, 119
6, 149792, Control_c, 3, 7, 118
6, 149820, Control_c, 3, 7, 117
6, 149848, Control_c, 3, 7, 116
6, 149876, Control_c, 3, 7, 115
6, 149904, Control_c, 3, 7, 114
6, 149932, Control_c, 3, 7, 113
6, 149961, Control_c, 3, 7, 112
6, 149989, Control_c, 3, 7, 111
6, 150017, Control_c, 3, 7, 110
6, 150045, Control_c, 3, 7, 109
6, 150073, Control_c, 3, 7, 108
6, 150101, Control_c, 3, 7, 107
6, 150129, Control_c, 3, 7, 106
6, 150157, Control_c, 3, 7, 105
6, 150185, Control_c, 3, 7, 104
6, 150213, Control_c, 3, 7, 103
6, 150241, Control_c, 3, 7, 102
6, 150269, Control_c, 3, 7, 101
6, 150297, Control_c, 3, 7, 100
6, 150325, Control_c, 3, 7, 99
6, 150354, Control_c, 3, 7, 98
6, 150382, Control_c, 3, 7, 97
6, 150410, Control_c, 3, 7, 96
6, 150438, Control_c, 3, 7, 95
6, 150466, Control_c, 3, 7, 94
6, 150494, Control_c, 3, 7, 93
6, 150522, Control_c, 3, 7, 92
6, 150550, Control_c, 3, 7, 91
6, 150578, Control_c, 3, 7, 90
6, 150606, Control_c, 3, 7, 89
6, 150634, Control_c, 3, 7, 88
6, 150662, Control_c, 3, 7, 87
6, 150690, Control_c, 3, 7, 86
6, 150718, Control_c, 3, 7, 85
6, 150747, Control_c, 3, 7, 84
6, 150775, Control_c, 3, 7, 83
6, 150803, Control_c, 3, 7, 82
6, 150831, Control_c, 3, 7, 81
6, 150859, Control_c, 3, 7, 80
6, 150887, Control_c, 3, 7, 79
6, 150915, Control_c, 3, 7, 78
6, 150943, Control_c, 3, 7, 77
6, 150971, Control_c, 3, 7, 76
6, 150999, Control_c, 3, 7, 75
6, 151027, Control_c, 3, 7, 74
6, 151055, Control_c, 3, 7, 73
6, 151083, Control_c, 3, 7, 72
6, 151111, Control_c, 3, 7, 71
6, 151139, Control_c, 3, 7, 70
6, 151168, Control_c, 3, 7, 69
6, 151196, Control_c, 3, 7, 68
6, 151224, Control_c, 3, 7, 67
6, 151252, Control_c, 3, 7, 66
6, 151280, Control_c, 3, 7, 65
6, 151308, Control_c, 3, 7, 64
6, 151336, Control_c, 3, 7, 63
6, 151364, Control_c, 3, 7, 62
6, 151392, Control_c, 3, 7, 61
6, 151420, Control_c, 3, 7, 60
6, 151448, Control_c, 3, 7, 59
6, 151476, Control_c, 3, 7, 58
6, 151504, Control_c, 3, 7, 57
6, 151532, Control_c, 3, 7, 56
6, 151561, Control_c, 3, 7, 55
6, 151589, Control_c, 3, 7, 54
6, 151617, Control_c, 3, 7, 53
6, 151645, Control_c, 3, 7, 52
6, 151673, Control_c, 3, 7, 51
6, 151701, Control_c, 3, 7, 50
6, 151729, Control_c, 3, 7, 49
6, 151757, Control_c, 3, 7, 48
6, 151785, Control_c, 3, 7, 47
6, 151813, Control_c, 3, 7, 46
6, 151841, Control_c, 3, 7, 45
6, 151869, Control_c, 3, 7, 44
6, 151897, Control_c, 3, 7, 43
6, 151925, Control_c, 3, 7, 42
6, 151954, Control_c, 3, 7, 41
6, 151982, Control_c, 3, 7, 40
6, 152010, Control_c, 3, 7, 39
6, 152038, Control_c, 3, 7, 38
6, 152066, Control_c, 3, 7, 37
6, 152094, Control_c, 3, 7, 36
6, 152122, Control_c, 3, 7, 35
6, 152150, Control_c, 3, 7, 34
6, 152178, Control_c, 3, 7, 33
6, 152206, Control_c, 3, 7, 32
6, 152234, Control_c, 3, 7, 31
6, 152262, Control_c, 3, 7, 30
6, 152290, Control_c, 3, 7, 29
6, 152318, Control_c, 3, 7, 28
6, 152347, Control_c, 3, 7, 27
6, 152375, Control_c, 3, 7, 26
6, 152403, Control_c, 3, 7, 25
6, 152431, Control_c, 3, 7, 24
6, 152459, Control_c, 3, 7, 23
6, 152487, Control_c, 3, 7, 22
6, 152515, Control_c, 3, 7, 21
6, 152543, Control_c, 3, 7, 20
6, 152571, Control_c, 3, 7, 19
6, 152576, Note_on_c, 3, 59, 0
6, 152599, Control_c, 3, 7, 18
6, 152627, Control_c, 3, 7, 17
6, 152655, Control_c, 3, 7, 16
6, 152683, Control_c, 3, 7, 15
6, 152711, Control_c, 3, 7, 14
6, 152739, Control_c, 3, 7, 13
6, 152747, Control_c, 3, 7, 50
6, 152839, Control_c, 3, 7, 49
6, 152908, Control_c, 3, 7, 48
6, 152972, Control_c, 3, 7, 127
6, 155648, Note_on_c, 3, 67, 32
6, 157286, Note_on_c, 3, 67, 0
6, 159744, Note_on_c, 3, 67, 32
6, 161382, Note_on_c, 3, 67, 0
6, 161792, Note_on_c, 3, 69, 32
6, 163430, Note_on_c, 3, 69, 0
6, 165888, Note_on_c, 3, 66, 32
6, 167526, Note_on_c, 3, 66, 0
6, 167936, Note_on_c, 3, 67, 32
6, 169574, Note_on_c, 3, 67, 0
6, 172032, Note_on_c, 3, 66, 32
6, 173670, Note_on_c, 3, 66, 0
6, 174080, Note_on_c, 3, 67, 32
6, 175718, Note_on_c, 3, 67, 0
6, 178176, Note_on_c, 3, 69, 32
6, 179814, Note_on_c, 3, 69, 0
6, 180224, Note_on_c, 3, 67, 32
6, 181862, Note_on_c, 3, 67, 0
6, 184320, Note_on_c, 3, 67, 32
6, 185958, Note_on_c, 3, 67, 0
6, 186368, Note_on_c, 3, 69, 32
6, 188006, Note_on_c, 3, 69, 0
6, 190464, Note_on_c, 3, 71, 32
6, 192102, Note_on_c, 3, 71, 0
6, 192512, Note_on_c, 3, 68, 32
6, 194150, Note_on_c, 3, 68, 0
6, 196608, Note_on_c, 3, 69, 32
6, 198246, Note_on_c, 3, 69, 0
6, 198656, Note_on_c, 3, 66, 32
6, 200294, Note_on_c, 3, 66, 0
6, 202752, Note_on_c, 3, 75, 32
6, 204390, Note_on_c, 3, 75, 0
6, 204800, Note_on_c, 3, 71, 32
6, 206438, Note_on_c, 3, 71, 0
6, 208896, Note_on_c, 3, 67, 32
6, 210534, Note_on_c, 3, 67, 0
6, 210944, Note_on_c, 3, 69, 32
6, 212582, Note_on_c, 3, 69, 0
6, 215040, Note_on_c, 3, 71, 32
6, 216678, Note_on_c, 3, 71, 0
6, 217088, Note_on_c, 3, 73, 32
6, 218726, Note_on_c, 3, 73, 0
6, 221184, Note_on_c, 3, 69, 32
6, 222822, Note_on_c, 3, 69, 0
6, 223232, Note_on_c, 3, 71, 32
6, 224870, Note_on_c, 3, 71, 0
6, 227328, Note_on_c, 3, 75, 32
6, 228966, Note_on_c, 3, 75, 0
6, 229376, Note_on_c, 3, 71, 32
6, 231014, Note_on_c, 3, 71, 0
6, 233472, Note_on_c, 3, 70, 32
6, 235110, Note_on_c, 3, 70, 0
6, 235520, Note_on_c, 3, 71, 32
6, 237158, Note_on_c, 3, 71, 0
6, 239616, Note_on_c, 3, 71, 32
6, 241254, Note_on_c, 3, 71, 0
6, 241664, Note_on_c, 3, 64, 32
6, 243302, Note_on_c, 3, 64, 0
6, 245760, Note_on_c, 3, 70, 32
6, 247398, Note_on_c, 3, 70, 0
6, 247808, Note_on_c, 3, 71, 32
6, 249446, Note_on_c, 3, 71, 0
6, 251904, Note_on_c, 3, 71, 32
6, 253542, Note_on_c, 3, 71, 0
6, 253952, Note_on_c, 3, 71, 32
6, 255590, Note_on_c, 3, 71, 0
6, 258048, Note_on_c, 3, 72, 32
6, 259686, Note_on_c, 3, 72, 0
6, 260096, Note_on_c, 3, 66, 32
6, 261734, Note_on_c, 3, 66, 0
6, 264192, Note_on_c, 3, 59, 32
6, 265830, Note_on_c, 3, 59, 0
6, 266240, Note_on_c, 3, 59, 32
6, 267878, Note_on_c, 3, 59, 0
6, 270336, Note_on_c, 3, 57, 32
6, 271974, Note_on_c, 3, 57, 0
6, 272384, Note_on_c, 3, 59, 32
6, 274022, Note_on_c, 3, 59, 0
6, 276480, Note_on_c, 3, 71, 32
6, 278118, Note_on_c, 3, 71, 0
6, 278528, Note_on_c, 3, 71, 32
6, 280166, Note_on_c, 3, 71, 0
6, 282624, Note_on_c, 3, 67, 32
6, 284262, Note_on_c, 3, 67, 0
6, 284672, Note_on_c, 3, 69, 32
6, 286310, Note_on_c, 3, 69, 0
6, 288768, Note_on_c, 3, 59, 32
6, 290406, Note_on_c, 3, 59, 0
6, 290816, Note_on_c, 3, 64, 32
6, 292454, Note_on_c, 3, 64, 0
6, 294912, Note_on_c, 3, 64, 32
6, 296550, Note_on_c, 3, 64, 0
6, 296960, Note_on_c, 3, 71, 32
6, 298598, Note_on_c, 3, 71, 0
6, 301056, Note_on_c, 3, 62, 32
6, 302694, Note_on_c, 3, 62, 0
6, 303104, Note_on_c, 3, 62, 32
6, 304742, Note_on_c, 3, 62, 0
6, 307200, Note_on_c, 3, 60, 32
6, 308838, Note_on_c, 3, 60, 0
6, 309248, Note_on_c, 3, 66, 32
6, 310886, Note_on_c, 3, 66, 0
6, 313344, Note_on_c, 3, 65, 32
6, 314982, Note_on_c, 3, 65, 0
6, 315392, Note_on_c, 3, 64, 32
6, 317030, Note_on_c, 3, 64, 0
6, 319488, Note_on_c, 3, 64, 23
6, 321126, Note_on_c, 3, 64, 0
6, 321536, Note_on_c, 3, 64, 23
6, 323174, Note_on_c, 3, 64, 0
6, 325632, Note_on_c, 3, 57, 23
6, 327270, Note_on_c, 3, 57, 0
6, 327680, Note_on_c, 3, 55, 23
6, 329318, Note_on_c, 3, 55, 0
6, 331776, Note_on_c, 3, 66, 23
6, 333414, Note_on_c, 3, 66, 0
6, 333824, Note_on_c, 3, 66, 22
6, 335462, Note_on_c, 3, 66, 0
6, 337920, Note_on_c, 3, 68, 22
6, 339558, Note_on_c, 3, 68, 0
6, 339968, Note_on_c, 3, 69, 22
6, 341606, Note_on_c, 3, 69, 0
6, 344064, Note_on_c, 3, 69, 22
6, 345702, Note_on_c, 3, 69, 0
6, 346112, Note_on_c, 3, 69, 22
6, 347750, Note_on_c, 3, 69, 0
6, 350208, Note_on_c, 3, 69, 22
6, 351846, Note_on_c, 3, 69, 0
6, 352256, Note_on_c, 3, 67, 21
6, 353894, Note_on_c, 3, 67, 0
6, 356352, Note_on_c, 3, 72, 21
6, 357990, Note_on_c, 3, 72, 0
6, 358400, Note_on_c, 3, 72, 21
6, 360038, Note_on_c, 3, 72, 0
6, 362496, Note_on_c, 3, 71, 21
6, 364134, Note_on_c, 3, 71, 0
6, 364544, Note_on_c, 3, 71, 21
6, 366182, Note_on_c, 3, 71, 0
6, 368640, Note_on_c, 3, 69, 32
6, 370278, Note_on_c, 3, 69, 0
6, 370688, Note_on_c, 3, 71, 32
6, 372326, Note_on_c, 3, 71, 0
6, 374784, Note_on_c, 3, 71, 31
6, 376422, Note_on_c, 3, 71, 0
6, 376832, Note_on_c, 3, 59, 31
6, 378470, Note_on_c, 3, 59, 0
6, 380928, Note_on_c, 3, 69, 31
6, 382566, Note_on_c, 3, 69, 0
6, 382976, Note_on_c, 3, 69, 30
6, 384614, Note_on_c, 3, 69, 0
6, 387072, Note_on_c, 3, 69, 30
6, 388710, Note_on_c, 3, 69, 0
6, 389120, Note_on_c, 3, 68, 29
6, 390758, Note_on_c, 3, 68, 0
6, 393216, Note_on_c, 3, 64, 29
6, 394854, Note_on_c, 3, 64, 0
6, 395264, Note_on_c, 3, 65, 29
6, 396902, Note_on_c, 3, 65, 0
6, 399360, Note_on_c, 3, 62, 28
6, 400998, Note_on_c, 3, 62, 0
6, 401408, Note_on_c, 3, 62, 28
6, 403046, Note_on_c, 3, 62, 0
6, 405504, Note_on_c, 3, 59, 27
6, 407142, Note_on_c, 3, 59, 0
6, 407552, Note_on_c, 3, 60, 27
6, 409190, Note_on_c, 3, 60, 0
6, 411648, Note_on_c, 3, 59, 26
6, 413286, Note_on_c, 3, 59, 0
6, 413696, Note_on_c, 3, 55, 26
6, 415334, Note_on_c, 3, 55, 0
6, 417792, Note_on_c, 3, 60, 25
6, 419430, Note_on_c, 3, 60, 0
6, 419840, Note_on_c, 3, 67, 25
6, 421478, Note_on_c, 3, 67, 0
6, 423936, Note_on_c, 3, 71, 25
6, 425574, Note_on_c, 3, 71, 0
6, 425984, Note_on_c, 3, 67, 24
6, 427622, Note_on_c, 3, 67, 0
6, 430080, Note_on_c, 3, 64, 24
6, 431718, Note_on_c, 3, 64, 0
6, 432128, Note_on_c, 3, 66, 23
6, 433766, Note_on_c, 3, 66, 0
6, 436224, Note_on_c, 3, 65, 23
6, 437862, Note_on_c, 3, 65, 0
6, 438272, Note_on_c, 3, 64, 23
6, 439910, Note_on_c, 3, 64, 0
6, 442368, Note_on_c, 3, 60, 22
6, 443187, Note_on_c, 3, 60, 0
6, 443392, Note_on_c, 3, 57, 22
6, 444211, Note_on_c, 3, 57, 0
6, 444416, Note_on_c, 3, 59, 22
6, 445235, Note_on_c, 3, 59, 0
6, 445440, Note_on_c, 3, 60, 22
6, 446259, Note_on_c, 3, 60, 0
6, 446464, Note_on_c, 3, 59, 21
6, 448102, Note_on_c, 3, 59, 0
6, 448512, Note_on_c, 3, 57, 21
6, 450150, Note_on_c, 3, 57, 0
6, 450560, Note_on_c, 3, 55, 21
6, 452198, Note_on_c, 3, 55, 0
6, 487424, End_track
7, 0, Start_track
7, 0, Title_t, "Viola"
7, 0, Program_c, 4, 49
7, 0, Control_c, 4, 121, 127
7, 0, Control_c, 4, 91, 127
7, 0, Control_c, 4, 10, 50
7, 0, Control_c, 4, 1, 20
7, 149475, Control_c, 4, 7, 124
7, 149507, Control_c, 4, 7, 125
7, 149539, Control_c, 4, 7, 126
7, 152576, Control_c, 4, 7, 127
7, 155648, Note_on_c, 4, 64, 32
7, 157286, Note_on_c, 4, 64, 0
7, 159744, Note_on_c, 4, 64, 32
7, 161382, Note_on_c, 4, 64, 0
7, 161792, Note_on_c, 4, 66, 32
7, 163430, Note_on_c, 4, 66, 0
7, 165888, Note_on_c, 4, 59, 32
7, 167526, Note_on_c, 4, 59, 0
7, 167936, Note_on_c, 4, 64, 32
7, 169574, Note_on_c, 4, 64, 0
7, 172032, Note_on_c, 4, 64, 32
7, 173670, Note_on_c, 4, 64, 0
7, 174080, Note_on_c, 4, 64, 32
7, 175718, Note_on_c, 4, 64, 0
7, 178176, Note_on_c, 4, 63, 32
7, 179814, Note_on_c, 4, 63, 0
7, 180224, Note_on_c, 4, 59, 32
7, 181862, Note_on_c, 4, 59, 0
7, 184320, Note_on_c, 4, 64, 32
7, 185958, Note_on_c, 4, 64, 0
7, 186368, Note_on_c, 4, 66, 32
7, 188006, Note_on_c, 4, 66, 0
7, 190464, Note_on_c, 4, 65, 32
7, 192102, Note_on_c, 4, 65, 0
7, 192512, Note_on_c, 4, 65, 32
7, 194150, Note_on_c, 4, 65, 0
7, 196608, Note_on_c, 4, 64, 32
7, 198246, Note_on_c, 4, 64, 0
7, 198656, Note_on_c, 4, 63, 32
7, 200294, Note_on_c, 4, 63, 0
7, 202752, Note_on_c, 4, 59, 32
7, 204390, Note_on_c, 4, 59, 0
7, 204800, Note_on_c, 4, 59, 32
7, 206438, Note_on_c, 4, 59, 0
7, 208896, Note_on_c, 4, 60, 32
7, 210534, Note_on_c, 4, 60, 0
7, 210944, Note_on_c, 4, 60, 32
7, 212582, Note_on_c, 4, 60, 0
7, 215040, Note_on_c, 4, 62, 32
7, 216678, Note_on_c, 4, 62, 0
7, 217088, Note_on_c, 4, 57, 32
7, 218726, Note_on_c, 4, 57, 0
7, 221184, Note_on_c, 4, 60, 32
7, 222822, Note_on_c, 4, 60, 0
7, 223232, Note_on_c, 4, 54, 32
7, 224870, Note_on_c, 4, 54, 0
7, 227328, Note_on_c, 4, 71, 32
7, 228966, Note_on_c, 4, 71, 0
7, 229376, Note_on_c, 4, 67, 32
7, 231014, Note_on_c, 4, 67, 0
7, 233472, Note_on_c, 4, 61, 33
7, 235110, Note_on_c, 4, 61, 0
7, 235520, Note_on_c, 4, 66, 33
7, 237158, Note_on_c, 4, 66, 0
7, 239616, Note_on_c, 4, 68, 33
7, 241254, Note_on_c, 4, 68, 0
7, 241664, Note_on_c, 4, 69, 33
7, 243302, Note_on_c, 4, 69, 0
7, 245760, Note_on_c, 4, 64, 33
7, 247398, Note_on_c, 4, 64, 0
7, 247808, Note_on_c, 4, 55, 33
7, 249446, Note_on_c, 4, 55, 0
7, 251904, Note_on_c, 4, 66, 33
7, 253542, Note_on_c, 4, 66, 0
7, 253952, Note_on_c, 4, 68, 33
7, 255590, Note_on_c, 4, 68, 0
7, 258048, Note_on_c, 4, 67, 33
7, 259686, Note_on_c, 4, 67, 0
7, 260096, Note_on_c, 4, 69, 33
7, 261734, Note_on_c, 4, 69, 0
7, 264192, Note_on_c, 4, 71, 33
7, 265830, Note_on_c, 4, 71, 0
7, 266240, Note_on_c, 4, 64, 33
7, 267878, Note_on_c, 4, 64, 0
7, 270336, Note_on_c, 4, 52, 33
7, 271974, Note_on_c, 4, 52, 0
7, 272384, Note_on_c, 4, 54, 33
7, 274022, Note_on_c, 4, 54, 0
7, 276480, Note_on_c, 4, 66, 33
7, 278118, Note_on_c, 4, 66, 0
7, 278528, Note_on_c, 4, 64, 33
7, 280166, Note_on_c, 4, 64, 0
7, 282624, Note_on_c, 4, 60, 33
7, 284262, Note_on_c, 4, 60, 0
7, 284672, Note_on_c, 4, 54, 33
7, 286310, Note_on_c, 4, 54, 0
7, 288768, Note_on_c, 4, 53, 33
7, 290406, Note_on_c, 4, 53, 0
7, 290816, Note_on_c, 4, 52, 33
7, 292454, Note_on_c, 4, 52, 0
7, 294912, Note_on_c, 4, 57, 33
7, 296550, Note_on_c, 4, 57, 0
7, 296960, Note_on_c, 4, 59, 33
7, 298598, Note_on_c, 4, 59, 0
7, 301056, Note_on_c, 4, 59, 33
7, 302694, Note_on_c, 4, 59, 0
7, 303104, Note_on_c, 4, 59, 33
7, 304742, Note_on_c, 4, 59, 0
7, 307200, Note_on_c, 4, 64, 33
7, 308838, Note_on_c, 4, 64, 0
7, 309248, Note_on_c, 4, 57, 33
7, 310886, Note_on_c, 4, 57, 0
7, 313344, Note_on_c, 4, 59, 23
7, 314982, Note_on_c, 4, 59, 0
7, 315392, Note_on_c, 4, 52, 23
7, 317030, Note_on_c, 4, 52, 0
7, 319488, Note_on_c, 4, 57, 23
7, 321126, Note_on_c, 4, 57, 0
7, 321536, Note_on_c, 4, 59, 23
7, 323174, Note_on_c, 4, 59, 0
7, 325632, Note_on_c, 4, 59, 23
7, 327270, Note_on_c, 4, 59, 0
7, 327680, Note_on_c, 4, 59, 23
7, 329318, Note_on_c, 4, 59, 0
7, 331776, Note_on_c, 4, 61, 23
7, 333414, Note_on_c, 4, 61, 0
7, 333824, Note_on_c, 4, 54, 23
7, 335462, Note_on_c, 4, 54, 0
7, 337920, Note_on_c, 4, 59, 23
7, 339558, Note_on_c, 4, 59, 0
7, 339968, Note_on_c, 4, 64, 23
7, 341606, Note_on_c, 4, 64, 0
7, 344064, Note_on_c, 4, 64, 22
7, 345702, Note_on_c, 4, 64, 0
7, 346112, Note_on_c, 4, 63, 22
7, 347750, Note_on_c, 4, 63, 0
7, 350208, Note_on_c, 4, 66, 22
7, 351846, Note_on_c, 4, 66, 0
7, 352256, Note_on_c, 4, 64, 22
7, 353894, Note_on_c, 4, 64, 0
7, 356352, Note_on_c, 4, 64, 22
7, 357990, Note_on_c, 4, 64, 0
7, 358400, Note_on_c, 4, 66, 22
7, 360038, Note_on_c, 4, 66, 0
7, 362496, Note_on_c, 4, 67, 22
7, 364134, Note_on_c, 4, 67, 0
7, 364544, Note_on_c, 4, 67, 22
7, 366182, Note_on_c, 4, 67, 0
7, 368640, Note_on_c, 4, 64, 22
7, 370278, Note_on_c, 4, 64, 0
7, 370688, Note_on_c, 4, 63, 22
7, 372326, Note_on_c, 4, 63, 0
7, 374784, Note_on_c, 4, 63, 24
7, 376422, Note_on_c, 4, 63, 0
7, 376832, Note_on_c, 4, 71, 24
7, 378470, Note_on_c, 4, 71, 0
7, 380928, Note_on_c, 4, 66, 24
7, 382566, Note_on_c, 4, 66, 0
7, 382976, Note_on_c, 4, 66, 24
7, 384614, Note_on_c, 4, 66, 0
7, 387072, Note_on_c, 4, 65, 24
7, 388710, Note_on_c, 4, 65, 0
7, 389120, Note_on_c, 4, 65, 24
7, 390758, Note_on_c, 4, 65, 0
7, 393216, Note_on_c, 4, 57, 24
7, 394854, Note_on_c, 4, 57, 0
7, 395264, Note_on_c, 4, 57, 24
7, 396902, Note_on_c, 4, 57, 0
7, 399360, Note_on_c, 4, 59, 24
7, 400998, Note_on_c, 4, 59, 0
7, 401408, Note_on_c, 4, 56, 23
7, 403046, Note_on_c, 4, 56, 0
7, 405504, Note_on_c, 4, 56, 23
7, 407142, Note_on_c, 4, 56, 0
7, 407552, Note_on_c, 4, 57, 23
7, 409190, Note_on_c, 4, 57, 0
7, 411648, Note_on_c, 4, 66, 23
7, 413286, Note_on_c, 4, 66, 0
7, 413696, Note_on_c, 4, 64, 23
7, 415334, Note_on_c, 4, 64, 0
7, 417792, Note_on_c, 4, 64, 23
7, 419430, Note_on_c, 4, 64, 0
7, 419840, Note_on_c, 4, 71, 23
7, 421478, Note_on_c, 4, 71, 0
7, 423936, Note_on_c, 4, 66, 23
7, 425574, Note_on_c, 4, 66, 0
7, 425984, Note_on_c, 4, 64, 23
7, 427622, Note_on_c, 4, 64, 0
7, 430080, Note_on_c, 4, 60, 22
7, 431718, Note_on_c, 4, 60, 0
7, 432128, Note_on_c, 4, 54, 22
7, 433766, Note_on_c, 4, 54, 0
7, 436224, Note_on_c, 4, 56, 22
7, 437862, Note_on_c, 4, 56, 0
7, 438272, Note_on_c, 4, 56, 22
7, 439910, Note_on_c, 4, 56, 0
7, 442368, Note_on_c, 4, 57, 22
7, 444006, Note_on_c, 4, 57, 0
7, 444416, Note_on_c, 4, 55, 22
7, 445235, Note_on_c, 4, 55, 0
7, 445440, Note_on_c, 4, 54, 22
7, 446259, Note_on_c, 4, 54, 0
7, 446464, Note_on_c, 4, 54, 22
7, 447283, Note_on_c, 4, 54, 0
7, 447488, Note_on_c, 4, 57, 22
7, 448307, Note_on_c, 4, 57, 0
7, 448512, Note_on_c, 4, 51, 22
7, 450150, Note_on_c, 4, 51, 0
7, 450560, Note_on_c, 4, 52, 22
7, 452198, Note_on_c, 4, 52, 0
7, 487424, End_track
8, 0, Start_track
8, 0, Title_t, "Cello"
8, 0, Program_c, 5, 49
8, 0, Control_c, 5, 121, 127
8, 0, Control_c, 5, 91, 127
8, 0, Control_c, 5, 10, 60
8, 0, Control_c, 5, 1, 20
8, 2048, Note_on_c, 5, 47, 60
8, 2714, Note_on_c, 5, 47, 0
8, 3072, Note_on_c, 5, 47, 60
8, 3738, Note_on_c, 5, 47, 0
8, 4096, Note_on_c, 5, 47, 60
8, 4762, Note_on_c, 5, 47, 0
8, 5120, Note_on_c, 5, 47, 60
8, 5786, Note_on_c, 5, 47, 0
8, 6144, Note_on_c, 5, 47, 60
8, 6810, Note_on_c, 5, 47, 0
8, 7168, Note_on_c, 5, 47, 60
8, 7834, Note_on_c, 5, 47, 0
8, 8192, Note_on_c, 5, 47, 60
8, 8858, Note_on_c, 5, 47, 0
8, 9216, Note_on_c, 5, 47, 60
8, 9882, Note_on_c, 5, 47, 0
8, 10240, Note_on_c, 5, 47, 60
8, 10906, Note_on_c, 5, 47, 0
8, 11264, Note_on_c, 5, 47, 60
8, 11930, Note_on_c, 5, 47, 0
8, 12288, Note_on_c, 5, 47, 60
8, 12954, Note_on_c, 5, 47, 0
8, 13312, Note_on_c, 5, 47, 60
8, 13978, Note_on_c, 5, 47, 0
8, 14336, Note_on_c, 5, 47, 60
8, 15002, Note_on_c, 5, 47, 0
8, 15360, Note_on_c, 5, 47, 60
8, 16026, Note_on_c, 5, 47, 0
8, 16384, Note_on_c, 5, 47, 60
8, 17050, Note_on_c, 5, 47, 0
8, 17408, Note_on_c, 5, 47, 60
8, 18074, Note_on_c, 5, 47, 0
8, 18432, Note_on_c, 5, 47, 60
8, 19098, Note_on_c, 5, 47, 0
8, 19456, Note_on_c, 5, 47, 60
8, 20122, Note_on_c, 5, 47, 0
8, 20480, Note_on_c, 5, 47, 60
8, 21146, Note_on_c, 5, 47, 0
8, 21504, Note_on_c, 5, 47, 60
8, 22170, Note_on_c, 5, 47, 0
8, 22528, Note_on_c, 5, 47, 60
8, 23194, Note_on_c, 5, 47, 0
8, 23552, Note_on_c, 5, 47, 60
8, 24218, Note_on_c, 5, 47, 0
8, 24576, Note_on_c, 5, 47, 60
8, 25242, Note_on_c, 5, 47, 0
8, 25600, Note_on_c, 5, 47, 60
8, 26266, Note_on_c, 5, 47, 0
8, 26624, Note_on_c, 5, 48, 60
8, 27290, Note_on_c, 5, 48, 0
8, 27648, Note_on_c, 5, 48, 60
8, 28314, Note_on_c, 5, 48, 0
8, 28672, Note_on_c, 5, 48, 60
8, 29338, Note_on_c, 5, 48, 0
8, 29696, Note_on_c, 5, 47, 60
8, 30362, Note_on_c, 5, 47, 0
8, 30720, Note_on_c, 5, 47, 60
8, 31386, Note_on_c, 5, 47, 0
8, 31744, Note_on_c, 5, 47, 60
8, 32410, Note_on_c, 5, 47, 0
8, 32768, Note_on_c, 5, 45, 60
8, 33434, Note_on_c, 5, 45, 0
8, 33792, Note_on_c, 5, 44, 64
8, 34458, Note_on_c, 5, 44, 0
8, 34816, Note_on_c, 5, 42, 68
8, 35482, Note_on_c, 5, 42, 0
8, 35840, Note_on_c, 5, 50, 72
8, 36506, Note_on_c, 5, 50, 0
8, 36864, Note_on_c, 5, 50, 76
8, 37530, Note_on_c, 5, 50, 0
8, 37888, Note_on_c, 5, 50, 80
8, 38554, Note_on_c, 5, 50, 0
8, 38912, Note_on_c, 5, 49, 60
8, 39578, Note_on_c, 5, 49, 0
8, 39936, Note_on_c, 5, 49, 60
8, 40602, Note_on_c, 5, 49, 0
8, 40960, Note_on_c, 5, 49, 60
8, 41626, Note_on_c, 5, 49, 0
8, 41984, Note_on_c, 5, 42, 60
8, 42650, Note_on_c, 5, 42, 0
8, 43008, Note_on_c, 5, 42, 60
8, 43674, Note_on_c, 5, 42, 0
8, 44032, Note_on_c, 5, 42, 60
8, 44698, Note_on_c, 5, 42, 0
8, 45056, Note_on_c, 5, 40, 60
8, 45722, Note_on_c, 5, 40, 0
8, 46080, Note_on_c, 5, 40, 60
8, 46746, Note_on_c, 5, 40, 0
8, 47104, Note_on_c, 5, 40, 60
8, 47770, Note_on_c, 5, 40, 0
8, 48128, Note_on_c, 5, 39, 60
8, 49152, Note_on_c, 5, 39, 0
8, 49152, Note_on_c, 5, 44, 63
8, 50176, Note_on_c, 5, 44, 0
8, 50176, Note_on_c, 5, 42, 66
8, 51200, Note_on_c, 5, 42, 0
8, 51200, Note_on_c, 5, 41, 69
8, 52224, Note_on_c, 5, 41, 0
8, 52224, Note_on_c, 5, 42, 72
8, 53248, Note_on_c, 5, 42, 0
8, 53248, Note_on_c, 5, 44, 75
8, 54272, Note_on_c, 5, 44, 0
8, 54272, Note_on_c, 5, 44, 78
8, 55296, Note_on_c, 5, 44, 0
8, 55296, Note_on_c, 5, 45, 81
8, 56320, Note_on_c, 5, 45, 0
8, 56320, Note_on_c, 5, 47, 84
8, 57344, Note_on_c, 5, 47, 0
8, 57344, Note_on_c, 5, 49, 87
8, 58010, Note_on_c, 5, 49, 0
8, 58368, Note_on_c, 5, 49, 90
8, 59034, Note_on_c, 5, 49, 0
8, 59392, Note_on_c, 5, 49, 93
8, 60058, Note_on_c, 5, 49, 0
8, 60416, Note_on_c, 5, 42, 60
8, 61082, Note_on_c, 5, 42, 0
8, 61440, Note_on_c, 5, 42, 60
8, 62106, Note_on_c, 5, 42, 0
8, 62464, Note_on_c, 5, 42, 60
8, 63130, Note_on_c, 5, 42, 0
8, 63488, Note_on_c, 5, 42, 60
8, 64154, Note_on_c, 5, 42, 0
8, 64512, Note_on_c, 5, 42, 60
8, 65178, Note_on_c, 5, 42, 0
8, 65536, Note_on_c, 5, 42, 60
8, 66202, Note_on_c, 5, 42, 0
8, 66560, Note_on_c, 5, 42, 60
8, 67226, Note_on_c, 5, 42, 0
8, 67584, Note_on_c, 5, 42, 60
8, 68250, Note_on_c, 5, 42, 0
8, 68608, Note_on_c, 5, 42, 60
8, 69274, Note_on_c, 5, 42, 0
8, 69632, Note_on_c, 5, 42, 60
8, 70298, Note_on_c, 5, 42, 0
8, 70656, Note_on_c, 5, 42, 60
8, 71322, Note_on_c, 5, 42, 0
8, 71680, Note_on_c, 5, 42, 60
8, 72346, Note_on_c, 5, 42, 0
8, 72704, Note_on_c, 5, 42, 60
8, 73370, Note_on_c, 5, 42, 0
8, 73728, Note_on_c, 5, 42, 60
8, 74394, Note_on_c, 5, 42, 0
8, 74752, Note_on_c, 5, 42, 60
8, 75418, Note_on_c, 5, 42, 0
8, 75776, Note_on_c, 5, 42, 60
8, 76442, Note_on_c, 5, 42, 0
8, 76800, Note_on_c, 5, 42, 60
8, 77466, Note_on_c, 5, 42, 0
8, 77824, Note_on_c, 5, 42, 60
8, 78490, Note_on_c, 5, 42, 0
8, 78848, Note_on_c, 5, 42, 60
8, 79514, Note_on_c, 5, 42, 0
8, 79872, Note_on_c, 5, 42, 60
8, 80538, Note_on_c, 5, 42, 0
8, 80896, Note_on_c, 5, 42, 60
8, 81562, Note_on_c, 5, 42, 0
8, 81920, Note_on_c, 5, 42, 60
8, 82586, Note_on_c, 5, 42, 0
8, 82944, Note_on_c, 5, 42, 60
8, 83610, Note_on_c, 5, 42, 0
8, 83968, Note_on_c, 5, 42, 60
8, 84634, Note_on_c, 5, 42, 0
8, 84992, Note_on_c, 5, 47, 60
8, 85658, Note_on_c, 5, 47, 0
8, 86016, Note_on_c, 5, 47, 63
8, 86682, Note_on_c, 5, 47, 0
8, 87040, Note_on_c, 5, 47, 65
8, 87706, Note_on_c, 5, 47, 0
8, 88064, Note_on_c, 5, 52, 68
8, 88730, Note_on_c, 5, 52, 0
8, 89088, Note_on_c, 5, 52, 70
8, 89754, Note_on_c, 5, 52, 0
8, 90112, Note_on_c, 5, 52, 73
8, 90778, Note_on_c, 5, 52, 0
8, 91136, Note_on_c, 5, 46, 75
8, 91802, Note_on_c, 5, 46, 0
8, 92160, Note_on_c, 5, 46, 78
8, 92826, Note_on_c, 5, 46, 0
8, 93184, Note_on_c, 5, 46, 80
8, 93850, Note_on_c, 5, 46, 0
8, 94208, Note_on_c, 5, 47, 83
8, 94874, Note_on_c, 5, 47, 0
8, 95232, Note_on_c, 5, 47, 85
8, 95898, Note_on_c, 5, 47, 0
8, 96256, Note_on_c, 5, 47, 88
8, 96922, Note_on_c, 5, 47, 0
8, 97280, Note_on_c, 5, 42, 60
8, 97946, Note_on_c, 5, 42, 0
8, 98304, Note_on_c, 5, 42, 60
8, 98970, Note_on_c, 5, 42, 0
8, 99328, Note_on_c, 5, 42, 60
8, 99994, Note_on_c, 5, 42, 0
8, 100352, Note_on_c, 5, 47, 60
8, 101018, Note_on_c, 5, 47, 0
8, 101376, Note_on_c, 5, 47, 60
8, 102042, Note_on_c, 5, 47, 0
8, 102400, Note_on_c, 5, 47, 60
8, 103066, Note_on_c, 5, 47, 0
8, 103424, Note_on_c, 5, 45, 60
8, 104090, Note_on_c, 5, 45, 0
8, 104448, Note_on_c, 5, 45, 63
8, 105114, Note_on_c, 5, 45, 0
8, 105472, Note_on_c, 5, 45, 66
8, 106138, Note_on_c, 5, 45, 0
8, 106496, Note_on_c, 5, 44, 69
8, 107520, Note_on_c, 5, 44, 0
8, 107520, Note_on_c, 5, 49, 72
8, 108544, Note_on_c, 5, 49, 0
8, 108544, Note_on_c, 5, 47, 75
8, 109568, Note_on_c, 5, 47, 0
8, 109568, Note_on_c, 5, 46, 78
8, 110592, Note_on_c, 5, 46, 0
8, 110592, Note_on_c, 5, 47, 81
8, 111616, Note_on_c, 5, 47, 0
8, 111616, Note_on_c, 5, 49, 85
8, 113664, Note_on_c, 5, 49, 0
8, 113664, Note_on_c, 5, 50, 91
8, 114688, Note_on_c, 5, 50, 0
8, 114688, Note_on_c, 5, 41, 94
8, 115712, Note_on_c, 5, 41, 0
8, 115712, Note_on_c, 5, 42, 97
8, 116378, Note_on_c, 5, 42, 0
8, 116736, Note_on_c, 5, 42, 100
8, 117402, Note_on_c, 5, 42, 0
8, 117760, Note_on_c, 5, 42, 103
8, 118426, Note_on_c, 5, 42, 0
8, 118784, Note_on_c, 5, 47, 84
8, 119450, Note_on_c, 5, 47, 0
8, 119808, Note_on_c, 5, 47, 60
8, 120474, Note_on_c, 5, 47, 0
8, 120832, Note_on_c, 5, 47, 60
8, 121498, Note_on_c, 5, 47, 0
8, 121856, Note_on_c, 5, 47, 55
8, 122522, Note_on_c, 5, 47, 0
8, 122880, Note_on_c, 5, 47, 55
8, 123546, Note_on_c, 5, 47, 0
8, 123904, Note_on_c, 5, 47, 55
8, 124570, Note_on_c, 5, 47, 0
8, 124928, Note_on_c, 5, 47, 55
8, 125952, Note_on_c, 5, 47, 0
8, 125952, Note_on_c, 5, 47, 55
8, 126976, Note_on_c, 5, 47, 0
8, 126976, Note_on_c, 5, 47, 55
8, 128000, Note_on_c, 5, 47, 0
8, 128000, Note_on_c, 5, 47, 60
8, 129024, Note_on_c, 5, 47, 0
8, 129024, Note_on_c, 5, 50, 63
8, 130048, Note_on_c, 5, 50, 0
8, 130048, Note_on_c, 5, 52, 65
8, 131072, Note_on_c, 5, 52, 0
8, 131072, Note_on_c, 5, 49, 68
8, 132096, Note_on_c, 5, 49, 0
8, 132096, Note_on_c, 5, 52, 71
8, 133120, Note_on_c, 5, 52, 0
8, 133120, Note_on_c, 5, 54, 73
8, 134144, Note_on_c, 5, 54, 0
8, 134144, Note_on_c, 5, 50, 76
8, 135168, Note_on_c, 5, 50, 0
8, 135168, Note_on_c, 5, 54, 79
8, 136192, Note_on_c, 5, 54, 0
8, 136192, Note_on_c, 5, 55, 81
8, 137216, Note_on_c, 5, 55, 0
8, 137216, Note_on_c, 5, 52, 84
8, 137549, Note_on_c, 5, 52, 0
8, 137728, Note_on_c, 5, 64, 84
8, 138061, Note_on_c, 5, 64, 0
8, 138240, Note_on_c, 5, 58, 84
8, 138752, Note_on_c, 5, 58, 0
8, 138752, Note_on_c, 5, 59, 70
8, 139085, Note_on_c, 5, 59, 0
8, 139264, Note_on_c, 5, 54, 84
8, 139776, Note_on_c, 5, 54, 0
8, 139776, Note_on_c, 5, 55, 70
8, 140109, Note_on_c, 5, 55, 0
8, 140800, Note_on_c, 5, 59, 84
8, 141133, Note_on_c, 5, 59, 0
8, 141312, Note_on_c, 5, 54, 84
8, 141824, Note_on_c, 5, 54, 0
8, 141824, Note_on_c, 5, 55, 70
8, 142157, Note_on_c, 5, 55, 0
8, 142336, Note_on_c, 5, 51, 84
8, 142848, Note_on_c, 5, 51, 0
8, 142848, Note_on_c, 5, 52, 70
8, 143181, Note_on_c, 5, 52, 0
8, 143872, Note_on_c, 5, 55, 84
8, 144205, Note_on_c, 5, 55, 0
8, 144384, Note_on_c, 5, 51, 84
8, 144896, Note_on_c, 5, 51, 0
8, 144896, Note_on_c, 5, 52, 70
8, 145229, Note_on_c, 5, 52, 0
8, 145408, Note_on_c, 5, 48, 84
8, 145920, Note_on_c, 5, 48, 0
8, 145920, Note_on_c, 5, 47, 70
8, 146253, Note_on_c, 5, 47, 0
8, 146432, Note_on_c, 5, 46, 75
8, 147098, Note_on_c, 5, 46, 0
8, 147456, Note_on_c, 5, 46, 68
8, 148122, Note_on_c, 5, 46, 0
8, 148480, Note_on_c, 5, 46, 61
8, 149146, Note_on_c, 5, 46, 0
8, 149504, Control_c, 5, 7, 127
8, 149504, Note_on_c, 5, 47, 50
8, 149539, Control_c, 5, 7, 124
8, 149570, Control_c, 5, 7, 123
8, 149601, Control_c, 5, 7, 122
8, 149632, Control_c, 5, 7, 121
8, 149663, Control_c, 5, 7, 120
8, 149693, Control_c, 5, 7, 119
8, 149724, Control_c, 5, 7, 118
8, 149755, Control_c, 5, 7, 117
8, 149786, Control_c, 5, 7, 116
8, 149816, Control_c, 5, 7, 115
8, 149847, Control_c, 5, 7, 114
8, 149878, Control_c, 5, 7, 113
8, 149909, Control_c, 5, 7, 112
8, 149939, Control_c, 5, 7, 111
8, 149970, Control_c, 5, 7, 110
8, 150001, Control_c, 5, 7, 109
8, 150032, Control_c, 5, 7, 108
8, 150063, Control_c, 5, 7, 107
8, 150093, Control_c, 5, 7, 106
8, 150124, Control_c, 5, 7, 105
8, 150155, Control_c, 5, 7, 104
8, 150186, Control_c, 5, 7, 103
8, 150216, Control_c, 5, 7, 102
8, 150247, Control_c, 5, 7, 101
8, 150278, Control_c, 5, 7, 100
8, 150309, Control_c, 5, 7, 99
8, 150339, Control_c, 5, 7, 98
8, 150370, Control_c, 5, 7, 97
8, 150401, Control_c, 5, 7, 96
8, 150432, Control_c, 5, 7, 95
8, 150463, Control_c, 5, 7, 94
8, 150493, Control_c, 5, 7, 93
8, 150524, Control_c, 5, 7, 92
8, 150555, Control_c, 5, 7, 91
8, 150586, Control_c, 5, 7, 90
8, 150616, Control_c, 5, 7, 89
8, 150647, Control_c, 5, 7, 88
8, 150678, Control_c, 5, 7, 87
8, 150709, Control_c, 5, 7, 86
8, 150739, Control_c, 5, 7, 85
8, 150770, Control_c, 5, 7, 84
8, 150801, Control_c, 5, 7, 83
8, 150832, Control_c, 5, 7, 82
8, 150863, Control_c, 5, 7, 81
8, 150893, Control_c, 5, 7, 80
8, 150924, Control_c, 5, 7, 79
8, 150955, Control_c, 5, 7, 78
8, 150986, Control_c, 5, 7, 77
8, 151016, Control_c, 5, 7, 76
8, 151047, Control_c, 5, 7, 75
8, 151078, Control_c, 5, 7, 74
8, 151109, Control_c, 5, 7, 73
8, 151139, Control_c, 5, 7, 72
8, 151170, Control_c, 5, 7, 71
8, 151201, Control_c, 5, 7, 70
8, 151232, Control_c, 5, 7, 69
8, 151263, Control_c, 5, 7, 68
8, 151293, Control_c, 5, 7, 67
8, 151324, Control_c, 5, 7, 66
8, 151355, Control_c, 5, 7, 65
8, 151386, Control_c, 5, 7, 64
8, 151416, Control_c, 5, 7, 63
8, 151447, Control_c, 5, 7, 62
8, 151478, Control_c, 5, 7, 61
8, 151509, Control_c, 5, 7, 60
8, 151539, Control_c, 5, 7, 59
8, 151570, Control_c, 5, 7, 58
8, 151601, Control_c, 5, 7, 57
8, 151632, Control_c, 5, 7, 56
8, 151663, Control_c, 5, 7, 55
8, 151693, Control_c, 5, 7, 54
8, 151724, Control_c, 5, 7, 53
8, 151755, Control_c, 5, 7, 52
8, 151786, Control_c, 5, 7, 51
8, 151816, Control_c, 5, 7, 50
8, 151847, Control_c, 5, 7, 49
8, 151878, Control_c, 5, 7, 48
8, 151909, Control_c, 5, 7, 47
8, 151939, Control_c, 5, 7, 46
8, 151970, Control_c, 5, 7, 45
8, 152001, Control_c, 5, 7, 44
8, 152032, Control_c, 5, 7, 43
8, 152063, Control_c, 5, 7, 42
8, 152093, Control_c, 5, 7, 41
8, 152124, Control_c, 5, 7, 40
8, 152155, Control_c, 5, 7, 39
8, 152186, Control_c, 5, 7, 38
8, 152216, Control_c, 5, 7, 37
8, 152247, Control_c, 5, 7, 36
8, 152278, Control_c, 5, 7, 35
8, 152309, Control_c, 5, 7, 34
8, 152339, Control_c, 5, 7, 33
8, 152370, Control_c, 5, 7, 32
8, 152401, Control_c, 5, 7, 31
8, 152432, Control_c, 5, 7, 30
8, 152463, Control_c, 5, 7, 29
8, 152493, Control_c, 5, 7, 28
8, 152524, Control_c, 5, 7, 27
8, 152555, Control_c, 5, 7, 26
8, 152576, Note_on_c, 5, 47, 0
8, 152586, Control_c, 5, 7, 25
8, 152616, Control_c, 5, 7, 24
8, 152647, Control_c, 5, 7, 23
8, 152678, Control_c, 5, 7, 22
8, 152709, Control_c, 5, 7, 21
8, 152739, Control_c, 5, 7, 20
8, 152803, Control_c, 5, 7, 43
8, 152867, Control_c, 5, 7, 126
8, 155648, Note_on_c, 5, 40, 31
8, 156314, Note_on_c, 5, 40, 0
8, 156672, Note_on_c, 5, 40, 31
8, 157338, Note_on_c, 5, 40, 0
8, 157696, Note_on_c, 5, 52, 31
8, 158362, Note_on_c, 5, 52, 0
8, 158720, Note_on_c, 5, 52, 31
8, 159386, Note_on_c, 5, 52, 0
8, 159744, Note_on_c, 5, 52, 31
8, 160410, Note_on_c, 5, 52, 0
8, 160768, Note_on_c, 5, 52, 31
8, 161434, Note_on_c, 5, 52, 0
8, 161792, Note_on_c, 5, 51, 31
8, 162458, Note_on_c, 5, 51, 0
8, 162816, Note_on_c, 5, 51, 31
8, 163482, Note_on_c, 5, 51, 0
8, 163840, Note_on_c, 5, 50, 31
8, 164506, Note_on_c, 5, 50, 0
8, 164864, Note_on_c, 5, 50, 31
8, 165530, Note_on_c, 5, 50, 0
8, 165888, Note_on_c, 5, 50, 31
8, 166554, Note_on_c, 5, 50, 0
8, 166912, Note_on_c, 5, 50, 31
8, 167578, Note_on_c, 5, 50, 0
8, 167936, Note_on_c, 5, 49, 31
8, 168602, Note_on_c, 5, 49, 0
8, 168960, Note_on_c, 5, 49, 31
8, 169626, Note_on_c, 5, 49, 0
8, 169984, Note_on_c, 5, 48, 31
8, 170650, Note_on_c, 5, 48, 0
8, 171008, Note_on_c, 5, 48, 31
8, 171674, Note_on_c, 5, 48, 0
8, 172032, Note_on_c, 5, 48, 31
8, 172698, Note_on_c, 5, 48, 0
8, 173056, Note_on_c, 5, 48, 31
8, 173722, Note_on_c, 5, 48, 0
8, 174080, Note_on_c, 5, 47, 31
8, 174746, Note_on_c, 5, 47, 0
8, 175104, Note_on_c, 5, 47, 31
8, 175770, Note_on_c, 5, 47, 0
8, 176128, Note_on_c, 5, 47, 31
8, 176794, Note_on_c, 5, 47, 0
8, 177152, Note_on_c, 5, 47, 31
8, 177818, Note_on_c, 5, 47, 0
8, 178176, Note_on_c, 5, 47, 31
8, 178842, Note_on_c, 5, 47, 0
8, 179200, Note_on_c, 5, 47, 31
8, 179866, Note_on_c, 5, 47, 0
8, 180224, Note_on_c, 5, 40, 31
8, 180890, Note_on_c, 5, 40, 0
8, 181248, Note_on_c, 5, 40, 31
8, 181914, Note_on_c, 5, 40, 0
8, 182272, Note_on_c, 5, 52, 31
8, 182938, Note_on_c, 5, 52, 0
8, 183296, Note_on_c, 5, 52, 31
8, 183962, Note_on_c, 5, 52, 0
8, 184320, Note_on_c, 5, 52, 31
8, 184986, Note_on_c, 5, 52, 0
8, 185344, Note_on_c, 5, 52, 31
8, 186010, Note_on_c, 5, 52, 0
8, 186368, Note_on_c, 5, 51, 31
8, 187034, Note_on_c, 5, 51, 0
8, 187392, Note_on_c, 5, 51, 31
8, 188058, Note_on_c, 5, 51, 0
8, 188416, Note_on_c, 5, 50, 31
8, 189082, Note_on_c, 5, 50, 0
8, 189440, Note_on_c, 5, 50, 31
8, 190106, Note_on_c, 5, 50, 0
8, 190464, Note_on_c, 5, 50, 31
8, 191130, Note_on_c, 5, 50, 0
8, 191488, Note_on_c, 5, 50, 31
8, 192154, Note_on_c, 5, 50, 0
8, 192512, Note_on_c, 5, 49, 31
8, 193178, Note_on_c, 5, 49, 0
8, 193536, Note_on_c, 5, 49, 31
8, 194202, Note_on_c, 5, 49, 0
8, 194560, Note_on_c, 5, 48, 31
8, 195226, Note_on_c, 5, 48, 0
8, 195584, Note_on_c, 5, 48, 31
8, 196250, Note_on_c, 5, 48, 0
8, 196608, Note_on_c, 5, 48, 31
8, 197274, Note_on_c, 5, 48, 0
8, 197632, Note_on_c, 5, 48, 31
8, 198298, Note_on_c, 5, 48, 0
8, 198656, Note_on_c, 5, 47, 31
8, 199322, Note_on_c, 5, 47, 0
8, 199680, Note_on_c, 5, 47, 31
8, 200346, Note_on_c, 5, 47, 0
8, 200704, Note_on_c, 5, 47, 31
8, 201370, Note_on_c, 5, 47, 0
8, 201728, Note_on_c, 5, 47, 31
8, 202394, Note_on_c, 5, 47, 0
8, 202752, Note_on_c, 5, 47, 31
8, 203418, Note_on_c, 5, 47, 0
8, 203776, Note_on_c, 5, 47, 31
8, 204442, Note_on_c, 5, 47, 0
8, 204800, Note_on_c, 5, 40, 31
8, 205466, Note_on_c, 5, 40, 0
8, 205824, Note_on_c, 5, 40, 31
8, 206490, Note_on_c, 5, 40, 0
8, 206848, Note_on_c, 5, 52, 31
8, 207514, Note_on_c, 5, 52, 0
8, 207872, Note_on_c, 5, 52, 31
8, 208538, Note_on_c, 5, 52, 0
8, 208896, Note_on_c, 5, 52, 31
8, 209562, Note_on_c, 5, 52, 0
8, 209920, Note_on_c, 5, 52, 31
8, 210586, Note_on_c, 5, 52, 0
8, 210944, Note_on_c, 5, 51, 31
8, 211610, Note_on_c, 5, 51, 0
8, 211968, Note_on_c, 5, 51, 31
8, 212634, Note_on_c, 5, 51, 0
8, 212992, Note_on_c, 5, 50, 31
8, 213658, Note_on_c, 5, 50, 0
8, 214016, Note_on_c, 5, 50, 31
8, 214682, Note_on_c, 5, 50, 0
8, 215040, Note_on_c, 5, 50, 31
8, 215706, Note_on_c, 5, 50, 0
8, 216064, Note_on_c, 5, 50, 31
8, 216730, Note_on_c, 5, 50, 0
8, 217088, Note_on_c, 5, 49, 31
8, 217754, Note_on_c, 5, 49, 0
8, 218112, Note_on_c, 5, 49, 31
8, 218778, Note_on_c, 5, 49, 0
8, 219136, Note_on_c, 5, 48, 31
8, 219802, Note_on_c, 5, 48, 0
8, 220160, Note_on_c, 5, 48, 31
8, 220826, Note_on_c, 5, 48, 0
8, 221184, Note_on_c, 5, 48, 31
8, 221850, Note_on_c, 5, 48, 0
8, 222208, Note_on_c, 5, 48, 31
8, 222874, Note_on_c, 5, 48, 0
8, 223232, Note_on_c, 5, 47, 31
8, 223898, Note_on_c, 5, 47, 0
8, 224256, Note_on_c, 5, 47, 31
8, 224922, Note_on_c, 5, 47, 0
8, 225280, Note_on_c, 5, 47, 31
8, 225946, Note_on_c, 5, 47, 0
8, 226304, Note_on_c, 5, 47, 31
8, 226970, Note_on_c, 5, 47, 0
8, 227328, Note_on_c, 5, 47, 31
8, 227994, Note_on_c, 5, 47, 0
8, 228352, Note_on_c, 5, 47, 31
8, 229018, Note_on_c, 5, 47, 0
8, 229376, Note_on_c, 5, 40, 31
8, 230042, Note_on_c, 5, 40, 0
8, 230400, Note_on_c, 5, 40, 31
8, 231066, Note_on_c, 5, 40, 0
8, 231424, Note_on_c, 5, 52, 31
8, 232090, Note_on_c, 5, 52, 0
8, 232448, Note_on_c, 5, 52, 31
8, 233114, Note_on_c, 5, 52, 0
8, 233472, Note_on_c, 5, 52, 31
8, 234138, Note_on_c, 5, 52, 0
8, 234496, Note_on_c, 5, 52, 31
8, 235162, Note_on_c, 5, 52, 0
8, 235520, Note_on_c, 5, 51, 31
8, 236186, Note_on_c, 5, 51, 0
8, 236544, Note_on_c, 5, 51, 31
8, 237210, Note_on_c, 5, 51, 0
8, 237568, Note_on_c, 5, 50, 31
8, 238234, Note_on_c, 5, 50, 0
8, 238592, Note_on_c, 5, 50, 31
8, 239258, Note_on_c, 5, 50, 0
8, 239616, Note_on_c, 5, 50, 31
8, 240282, Note_on_c, 5, 50, 0
8, 240640, Note_on_c, 5, 50, 31
8, 241306, Note_on_c, 5, 50, 0
8, 241664, Note_on_c, 5, 49, 31
8, 242330, Note_on_c, 5, 49, 0
8, 242688, Note_on_c, 5, 49, 31
8, 243354, Note_on_c, 5, 49, 0
8, 243712, Note_on_c, 5, 48, 31
8, 244378, Note_on_c, 5, 48, 0
8, 244736, Note_on_c, 5, 48, 31
8, 245402, Note_on_c, 5, 48, 0
8, 245760, Note_on_c, 5, 48, 31
8, 246426, Note_on_c, 5, 48, 0
8, 246784, Note_on_c, 5, 48, 31
8, 247450, Note_on_c, 5, 48, 0
8, 247808, Note_on_c, 5, 47, 31
8, 248474, Note_on_c, 5, 47, 0
8, 248832, Note_on_c, 5, 47, 31
8, 249498, Note_on_c, 5, 47, 0
8, 249856, Note_on_c, 5, 47, 31
8, 250522, Note_on_c, 5, 47, 0
8, 250880, Note_on_c, 5, 47, 31
8, 251546, Note_on_c, 5, 47, 0
8, 251904, Note_on_c, 5, 47, 31
8, 252570, Note_on_c, 5, 47, 0
8, 252928, Note_on_c, 5, 47, 31
8, 253594, Note_on_c, 5, 47, 0
8, 253952, Note_on_c, 5, 40, 31
8, 254618, Note_on_c, 5, 40, 0
8, 254976, Note_on_c, 5, 40, 31
8, 255642, Note_on_c, 5, 40, 0
8, 256000, Note_on_c, 5, 52, 31
8, 256666, Note_on_c, 5, 52, 0
8, 257024, Note_on_c, 5, 52, 31
8, 257690, Note_on_c, 5, 52, 0
8, 258048, Note_on_c, 5, 52, 31
8, 258714, Note_on_c, 5, 52, 0
8, 259072, Note_on_c, 5, 52, 31
8, 259738, Note_on_c, 5, 52, 0
8, 260096, Note_on_c, 5, 51, 31
8, 260762, Note_on_c, 5, 51, 0
8, 261120, Note_on_c, 5, 51, 31
8, 261786, Note_on_c, 5, 51, 0
8, 262144, Note_on_c, 5, 50, 31
8, 262810, Note_on_c, 5, 50, 0
8, 263168, Note_on_c, 5, 50, 31
8, 263834, Note_on_c, 5, 50, 0
8, 264192, Note_on_c, 5, 50, 31
8, 264858, Note_on_c, 5, 50, 0
8, 265216, Note_on_c, 5, 50, 31
8, 265882, Note_on_c, 5, 50, 0
8, 266240, Note_on_c, 5, 49, 31
8, 266906, Note_on_c, 5, 49, 0
8, 267264, Note_on_c, 5, 49, 31
8, 267930, Note_on_c, 5, 49, 0
8, 268288, Note_on_c, 5, 48, 31
8, 268954, Note_on_c, 5, 48, 0
8, 269312, Note_on_c, 5, 48, 31
8, 269978, Note_on_c, 5, 48, 0
8, 270336, Note_on_c, 5, 48, 31
8, 271002, Note_on_c, 5, 48, 0
8, 271360, Note_on_c, 5, 48, 31
8, 272026, Note_on_c, 5, 48, 0
8, 272384, Note_on_c, 5, 47, 31
8, 273050, Note_on_c, 5, 47, 0
8, 273408, Note_on_c, 5, 47, 31
8, 274074, Note_on_c, 5, 47, 0
8, 274432, Note_on_c, 5, 47, 31
8, 275098, Note_on_c, 5, 47, 0
8, 275456, Note_on_c, 5, 47, 31
8, 276122, Note_on_c, 5, 47, 0
8, 276480, Note_on_c, 5, 47, 31
8, 277146, Note_on_c, 5, 47, 0
8, 277504, Note_on_c, 5, 47, 31
8, 278170, Note_on_c, 5, 47, 0
8, 278528, Note_on_c, 5, 40, 31
8, 279194, Note_on_c, 5, 40, 0
8, 279552, Note_on_c, 5, 40, 31
8, 280218, Note_on_c, 5, 40, 0
8, 280576, Note_on_c, 5, 52, 31
8, 281242, Note_on_c, 5, 52, 0
8, 281600, Note_on_c, 5, 52, 31
8, 282266, Note_on_c, 5, 52, 0
8, 282624, Note_on_c, 5, 52, 31
8, 283290, Note_on_c, 5, 52, 0
8, 283648, Note_on_c, 5, 52, 31
8, 284314, Note_on_c, 5, 52, 0
8, 284672, Note_on_c, 5, 51, 31
8, 285338, Note_on_c, 5, 51, 0
8, 285696, Note_on_c, 5, 51, 31
8, 286362, Note_on_c, 5, 51, 0
8, 286720, Note_on_c, 5, 50, 31
8, 287386, Note_on_c, 5, 50, 0
8, 287744, Note_on_c, 5, 50, 31
8, 288410, Note_on_c, 5, 50, 0
8, 288768, Note_on_c, 5, 50, 31
8, 289434, Note_on_c, 5, 50, 0
8, 289792, Note_on_c, 5, 50, 31
8, 290458, Note_on_c, 5, 50, 0
8, 290816, Note_on_c, 5, 49, 31
8, 291482, Note_on_c, 5, 49, 0
8, 291840, Note_on_c, 5, 49, 31
8, 292506, Note_on_c, 5, 49, 0
8, 292864, Note_on_c, 5, 48, 31
8, 293530, Note_on_c, 5, 48, 0
8, 293888, Note_on_c, 5, 48, 31
8, 294554, Note_on_c, 5, 48, 0
8, 294912, Note_on_c, 5, 48, 31
8, 295578, Note_on_c, 5, 48, 0
8, 295936, Note_on_c, 5, 48, 31
8, 296602, Note_on_c, 5, 48, 0
8, 296960, Note_on_c, 5, 47, 31
8, 297626, Note_on_c, 5, 47, 0
8, 297984, Note_on_c, 5, 47, 31
8, 298650, Note_on_c, 5, 47, 0
8, 299008, Note_on_c, 5, 47, 31
8, 299674, Note_on_c, 5, 47, 0
8, 300032, Note_on_c, 5, 47, 31
8, 300698, Note_on_c, 5, 47, 0
8, 301056, Note_on_c, 5, 47, 31
8, 301722, Note_on_c, 5, 47, 0
8, 302080, Note_on_c, 5, 47, 31
8, 302746, Note_on_c, 5, 47, 0
8, 303104, Note_on_c, 5, 40, 31
8, 303770, Note_on_c, 5, 40, 0
8, 304128, Note_on_c, 5, 40, 31
8, 304794, Note_on_c, 5, 40, 0
8, 305152, Note_on_c, 5, 52, 31
8, 305818, Note_on_c, 5, 52, 0
8, 306176, Note_on_c, 5, 52, 31
8, 306842, Note_on_c, 5, 52, 0
8, 307200, Note_on_c, 5, 52, 31
8, 307866, Note_on_c, 5, 52, 0
8, 308224, Note_on_c, 5, 52, 31
8, 308890, Note_on_c, 5, 52, 0
8, 309248, Note_on_c, 5, 51, 31
8, 309914, Note_on_c, 5, 51, 0
8, 310272, Note_on_c, 5, 51, 31
8, 310938, Note_on_c, 5, 51, 0
8, 311296, Note_on_c, 5, 50, 31
8, 311962, Note_on_c, 5, 50, 0
8, 312320, Note_on_c, 5, 50, 31
8, 312986, Note_on_c, 5, 50, 0
8, 313344, Note_on_c, 5, 50, 31
8, 314010, Note_on_c, 5, 50, 0
8, 314368, Note_on_c, 5, 50, 31
8, 315034, Note_on_c, 5, 50, 0
8, 315392, Note_on_c, 5, 49, 31
8, 316058, Note_on_c, 5, 49, 0
8, 316416, Note_on_c, 5, 49, 18
8, 317082, Note_on_c, 5, 49, 0
8, 317440, Note_on_c, 5, 48, 18
8, 318106, Note_on_c, 5, 48, 0
8, 318464, Note_on_c, 5, 48, 18
8, 319130, Note_on_c, 5, 48, 0
8, 319488, Note_on_c, 5, 48, 18
8, 320154, Note_on_c, 5, 48, 0
8, 320512, Note_on_c, 5, 48, 18
8, 321178, Note_on_c, 5, 48, 0
8, 321536, Note_on_c, 5, 47, 18
8, 322202, Note_on_c, 5, 47, 0
8, 322560, Note_on_c, 5, 47, 18
8, 323226, Note_on_c, 5, 47, 0
8, 323584, Note_on_c, 5, 47, 18
8, 324250, Note_on_c, 5, 47, 0
8, 324608, Note_on_c, 5, 47, 18
8, 325274, Note_on_c, 5, 47, 0
8, 325632, Note_on_c, 5, 47, 18
8, 326298, Note_on_c, 5, 47, 0
8, 326656, Note_on_c, 5, 47, 18
8, 327322, Note_on_c, 5, 47, 0
8, 327680, Note_on_c, 5, 40, 18
8, 328346, Note_on_c, 5, 40, 0
8, 328704, Note_on_c, 5, 40, 18
8, 329370, Note_on_c, 5, 40, 0
8, 329728, Note_on_c, 5, 52, 18
8, 330394, Note_on_c, 5, 52, 0
8, 330752, Note_on_c, 5, 52, 18
8, 331418, Note_on_c, 5, 52, 0
8, 331776, Note_on_c, 5, 52, 18
8, 332442, Note_on_c, 5, 52, 0
8, 332800, Note_on_c, 5, 52, 18
8, 333466, Note_on_c, 5, 52, 0
8, 333824, Note_on_c, 5, 51, 18
8, 334490, Note_on_c, 5, 51, 0
8, 334848, Note_on_c, 5, 51, 18
8, 335514, Note_on_c, 5, 51, 0
8, 335872, Note_on_c, 5, 50, 18
8, 336538, Note_on_c, 5, 50, 0
8, 336896, Note_on_c, 5, 50, 18
8, 337562, Note_on_c, 5, 50, 0
8, 337920, Note_on_c, 5, 50, 18
8, 338586, Note_on_c, 5, 50, 0
8, 338944, Note_on_c, 5, 50, 18
8, 339610, Note_on_c, 5, 50, 0
8, 339968, Note_on_c, 5, 49, 18
8, 340634, Note_on_c, 5, 49, 0
8, 340992, Note_on_c, 5, 49, 18
8, 341658, Note_on_c, 5, 49, 0
8, 342016, Note_on_c, 5, 48, 18
8, 342682, Note_on_c, 5, 48, 0
8, 343040, Note_on_c, 5, 48, 18
8, 343706, Note_on_c, 5, 48, 0
8, 344064, Note_on_c, 5, 48, 18
8, 344730, Note_on_c, 5, 48, 0
8, 345088, Note_on_c, 5, 48, 18
8, 345754, Note_on_c, 5, 48, 0
8, 346112, Note_on_c, 5, 47, 18
8, 346778, Note_on_c, 5, 47, 0
8, 347136, Note_on_c, 5, 47, 18
8, 347802, Note_on_c, 5, 47, 0
8, 348160, Note_on_c, 5, 47, 18
8, 348826, Note_on_c, 5, 47, 0
8, 349184, Note_on_c, 5, 47, 18
8, 349850, Note_on_c, 5, 47, 0
8, 350208, Note_on_c, 5, 47, 18
8, 350874, Note_on_c, 5, 47, 0
8, 351232, Note_on_c, 5, 47, 18
8, 351898, Note_on_c, 5, 47, 0
8, 352256, Note_on_c, 5, 40, 18
8, 352922, Note_on_c, 5, 40, 0
8, 353280, Note_on_c, 5, 40, 18
8, 353946, Note_on_c, 5, 40, 0
8, 354304, Note_on_c, 5, 52, 18
8, 354970, Note_on_c, 5, 52, 0
8, 355328, Note_on_c, 5, 52, 18
8, 355994, Note_on_c, 5, 52, 0
8, 356352, Note_on_c, 5, 52, 18
8, 357018, Note_on_c, 5, 52, 0
8, 357376, Note_on_c, 5, 52, 18
8, 358042, Note_on_c, 5, 52, 0
8, 358400, Note_on_c, 5, 51, 18
8, 359066, Note_on_c, 5, 51, 0
8, 359424, Note_on_c, 5, 51, 18
8, 360090, Note_on_c, 5, 51, 0
8, 360448, Note_on_c, 5, 50, 18
8, 361114, Note_on_c, 5, 50, 0
8, 361472, Note_on_c, 5, 50, 18
8, 362138, Note_on_c, 5, 50, 0
8, 362496, Note_on_c, 5, 50, 18
8, 363162, Note_on_c, 5, 50, 0
8, 363520, Note_on_c, 5, 50, 18
8, 364186, Note_on_c, 5, 50, 0
8, 364544, Note_on_c, 5, 49, 18
8, 365210, Note_on_c, 5, 49, 0
8, 365568, Note_on_c, 5, 49, 18
8, 366234, Note_on_c, 5, 49, 0
8, 366592, Note_on_c, 5, 48, 18
8, 367258, Note_on_c, 5, 48, 0
8, 367616, Note_on_c, 5, 48, 18
8, 368282, Note_on_c, 5, 48, 0
8, 368640, Note_on_c, 5, 48, 18
8, 369306, Note_on_c, 5, 48, 0
8, 369664, Note_on_c, 5, 48, 18
8, 370330, Note_on_c, 5, 48, 0
8, 370688, Note_on_c, 5, 47, 18
8, 371354, Note_on_c, 5, 47, 0
8, 371712, Note_on_c, 5, 47, 18
8, 372378, Note_on_c, 5, 47, 0
8, 372736, Note_on_c, 5, 47, 18
8, 373402, Note_on_c, 5, 47, 0
8, 373760, Note_on_c, 5, 47, 18
8, 374426, Note_on_c, 5, 47, 0
8, 374784, Note_on_c, 5, 47, 18
8, 375450, Note_on_c, 5, 47, 0
8, 375808, Note_on_c, 5, 47, 18
8, 376474, Note_on_c, 5, 47, 0
8, 376832, Note_on_c, 5, 40, 32
8, 377498, Note_on_c, 5, 40, 0
8, 377856, Note_on_c, 5, 40, 34
8, 378522, Note_on_c, 5, 40, 0
8, 378880, Note_on_c, 5, 52, 34
8, 379546, Note_on_c, 5, 52, 0
8, 379904, Note_on_c, 5, 52, 34
8, 380570, Note_on_c, 5, 52, 0
8, 380928, Note_on_c, 5, 52, 34
8, 381594, Note_on_c, 5, 52, 0
8, 381952, Note_on_c, 5, 52, 33
8, 382618, Note_on_c, 5, 52, 0
8, 382976, Note_on_c, 5, 51, 33
8, 383642, Note_on_c, 5, 51, 0
8, 384000, Note_on_c, 5, 51, 33
8, 384666, Note_on_c, 5, 51, 0
8, 385024, Note_on_c, 5, 50, 33
8, 385690, Note_on_c, 5, 50, 0
8, 386048, Note_on_c, 5, 50, 33
8, 386714, Note_on_c, 5, 50, 0
8, 387072, Note_on_c, 5, 50, 33
8, 387738, Note_on_c, 5, 50, 0
8, 388096, Note_on_c, 5, 50, 32
8, 388762, Note_on_c, 5, 50, 0
8, 389120, Note_on_c, 5, 49, 32
8, 389786, Note_on_c, 5, 49, 0
8, 390144, Note_on_c, 5, 49, 32
8, 390810, Note_on_c, 5, 49, 0
8, 391168, Note_on_c, 5, 48, 32
8, 391834, Note_on_c, 5, 48, 0
8, 392192, Note_on_c, 5, 48, 32
8, 392858, Note_on_c, 5, 48, 0
8, 393216, Note_on_c, 5, 48, 32
8, 393882, Note_on_c, 5, 48, 0
8, 394240, Note_on_c, 5, 48, 32
8, 394906, Note_on_c, 5, 48, 0
8, 395264, Note_on_c, 5, 47, 31
8, 395930, Note_on_c, 5, 47, 0
8, 396288, Note_on_c, 5, 47, 31
8, 396954, Note_on_c, 5, 47, 0
8, 397312, Note_on_c, 5, 47, 31
8, 397978, Note_on_c, 5, 47, 0
8, 398336, Note_on_c, 5, 47, 31
8, 399002, Note_on_c, 5, 47, 0
8, 399360, Note_on_c, 5, 47, 31
8, 400026, Note_on_c, 5, 47, 0
8, 400384, Note_on_c, 5, 47, 31
8, 401050, Note_on_c, 5, 47, 0
8, 401408, Note_on_c, 5, 40, 30
8, 402074, Note_on_c, 5, 40, 0
8, 402432, Note_on_c, 5, 40, 30
8, 403098, Note_on_c, 5, 40, 0
8, 403456, Note_on_c, 5, 52, 30
8, 404122, Note_on_c, 5, 52, 0
8, 404480, Note_on_c, 5, 52, 30
8, 405146, Note_on_c, 5, 52, 0
8, 405504, Note_on_c, 5, 52, 30
8, 406170, Note_on_c, 5, 52, 0
8, 406528, Note_on_c, 5, 52, 30
8, 407194, Note_on_c, 5, 52, 0
8, 407552, Note_on_c, 5, 51, 29
8, 408218, Note_on_c, 5, 51, 0
8, 408576, Note_on_c, 5, 51, 29
8, 409242, Note_on_c, 5, 51, 0
8, 409600, Note_on_c, 5, 50, 29
8, 410266, Note_on_c, 5, 50, 0
8, 410624, Note_on_c, 5, 50, 29
8, 411290, Note_on_c, 5, 50, 0
8, 411648, Note_on_c, 5, 50, 29
8, 412314, Note_on_c, 5, 50, 0
8, 412672, Note_on_c, 5, 50, 29
8, 413338, Note_on_c, 5, 50, 0
8, 413696, Note_on_c, 5, 49, 28
8, 414362, Note_on_c, 5, 49, 0
8, 414720, Note_on_c, 5, 49, 28
8, 415386, Note_on_c, 5, 49, 0
8, 415744, Note_on_c, 5, 48, 28
8, 416410, Note_on_c, 5, 48, 0
8, 416768, Note_on_c, 5, 48, 28
8, 417434, Note_on_c, 5, 48, 0
8, 417792, Note_on_c, 5, 48, 28
8, 418458, Note_on_c, 5, 48, 0
8, 418816, Note_on_c, 5, 48, 28
8, 419482, Note_on_c, 5, 48, 0
8, 419840, Note_on_c, 5, 47, 28
8, 420506, Note_on_c, 5, 47, 0
8, 420864, Note_on_c, 5, 47, 27
8, 421530, Note_on_c, 5, 47, 0
8, 421888, Note_on_c, 5, 47, 27
8, 422554, Note_on_c, 5, 47, 0
8, 422912, Note_on_c, 5, 47, 27
8, 423578, Note_on_c, 5, 47, 0
8, 423936, Note_on_c, 5, 47, 27
8, 424602, Note_on_c, 5, 47, 0
8, 424960, Note_on_c, 5, 47, 27
8, 425626, Note_on_c, 5, 47, 0
8, 425984, Note_on_c, 5, 40, 27
8, 426650, Note_on_c, 5, 40, 0
8, 427008, Note_on_c, 5, 40, 26
8, 427674, Note_on_c, 5, 40, 0
8, 428032, Note_on_c, 5, 52, 26
8, 428698, Note_on_c, 5, 52, 0
8, 429056, Note_on_c, 5, 52, 26
8, 429722, Note_on_c, 5, 52, 0
8, 430080, Note_on_c, 5, 52, 26
8, 430746, Note_on_c, 5, 52, 0
8, 431104, Note_on_c, 5, 52, 26
8, 431770, Note_on_c, 5, 52, 0
8, 432128, Note_on_c, 5, 51, 26
8, 432794, Note_on_c, 5, 51, 0
8, 433152, Note_on_c, 5, 51, 25
8, 433818, Note_on_c, 5, 51, 0
8, 434176, Note_on_c, 5, 50, 25
8, 434842, Note_on_c, 5, 50, 0
8, 435200, Note_on_c, 5, 50, 25
8, 435866, Note_on_c, 5, 50, 0
8, 436224, Note_on_c, 5, 50, 25
8, 436890, Note_on_c, 5, 50, 0
8, 437248, Note_on_c, 5, 50, 25
8, 437914, Note_on_c, 5, 50, 0
8, 438272, Note_on_c, 5, 49, 25
8, 438938, Note_on_c, 5, 49, 0
8, 439296, Note_on_c, 5, 49, 24
8, 439962, Note_on_c, 5, 49, 0
8, 440320, Note_on_c, 5, 48, 24
8, 440986, Note_on_c, 5, 48, 0
8, 441344, Note_on_c, 5, 48, 24
8, 442010, Note_on_c, 5, 48, 0
8, 442368, Note_on_c, 5, 48, 24
8, 443034, Note_on_c, 5, 48, 0
8, 443392, Note_on_c, 5, 48, 24
8, 444058, Note_on_c, 5, 48, 0
8, 444416, Note_on_c, 5, 47, 24
8, 445082, Note_on_c, 5, 47, 0
8, 445440, Note_on_c, 5, 45, 24
8, 446106, Note_on_c, 5, 45, 0
8, 446464, Note_on_c, 5, 47, 23
8, 447130, Note_on_c, 5, 47, 0
8, 447488, Note_on_c, 5, 47, 23
8, 448154, Note_on_c, 5, 47, 0
8, 448512, Note_on_c, 5, 47, 23
8, 449178, Note_on_c, 5, 47, 0
8, 449536, Note_on_c, 5, 47, 23
8, 450202, Note_on_c, 5, 47, 0
8, 450560, Note_on_c, 5, 40, 23
8, 451226, Note_on_c, 5, 40, 0
8, 451584, Note_on_c, 5, 40, 23
8, 452250, Note_on_c, 5, 40, 0
8, 452608, Note_on_c, 5, 52, 22
8, 453274, Note_on_c, 5, 52, 0
8, 453632, Note_on_c, 5, 52, 22
8, 454298, Note_on_c, 5, 52, 0
8, 454656, Note_on_c, 5, 52, 22
8, 455322, Note_on_c, 5, 52, 0
8, 455680, Note_on_c, 5, 52, 22
8, 456346, Note_on_c, 5, 52, 0
8, 456704, Note_on_c, 5, 51, 22
8, 457370, Note_on_c, 5, 51, 0
8, 457728, Note_on_c, 5, 51, 22
8, 458394, Note_on_c, 5, 51, 0
8, 458752, Note_on_c, 5, 50, 21
8, 459418, Note_on_c, 5, 50, 0
8, 459776, Note_on_c, 5, 50, 21
8, 460442, Note_on_c, 5, 50, 0
8, 460800, Note_on_c, 5, 50, 21
8, 461466, Note_on_c, 5, 50, 0
8, 461824, Note_on_c, 5, 50, 21
8, 462490, Note_on_c, 5, 50, 0
8, 462848, Note_on_c, 5, 49, 21
8, 463514, Note_on_c, 5, 49, 0
8, 463872, Note_on_c, 5, 49, 21
8, 464538, Note_on_c, 5, 49, 0
8, 464896, Note_on_c, 5, 48, 20
8, 465562, Note_on_c, 5, 48, 0
8, 465920, Note_on_c, 5, 48, 20
8, 466586, Note_on_c, 5, 48, 0
8, 466944, Note_on_c, 5, 49, 20
8, 467610, Note_on_c, 5, 49, 0
8, 467968, Note_on_c, 5, 49, 20
8, 468634, Note_on_c, 5, 49, 0
8, 468992, Note_on_c, 5, 50, 20
8, 469658, Note_on_c, 5, 50, 0
8, 470016, Note_on_c, 5, 50, 20
8, 470682, Note_on_c, 5, 50, 0
8, 471040, Note_on_c, 5, 38, 20
8, 471706, Note_on_c, 5, 38, 0
8, 472064, Note_on_c, 5, 38, 19
8, 472730, Note_on_c, 5, 38, 0
8, 473088, Note_on_c, 5, 38, 19
8, 473754, Note_on_c, 5, 38, 0
8, 474112, Note_on_c, 5, 38, 19
8, 474778, Note_on_c, 5, 38, 0
8, 475136, Note_on_c, 5, 43, 19
8, 481280, Note_on_c, 5, 43, 0
8, 487424, End_track
9, 0, Start_track
9, 0, Title_t, "Soprano I"
9, 0, Program_c, 6, 53
9, 0, Control_c, 6, 121, 127
9, 0, Control_c, 6, 91, 127
9, 0, Control_c, 6, 10, 20
9, 0, Control_c, 6, 1, 25
9, 8192, Control_c, 6, 7, 80
9, 17408, Note_on_c, 6, 79, 80
9, 18432, Note_on_c, 6, 79, 0
9, 18432, Note_on_c, 6, 76, 80
9, 19456, Note_on_c, 6, 76, 0
9, 19456, Note_on_c, 6, 73, 80
9, 20480, Note_on_c, 6, 73, 0
9, 20480, Note_on_c, 6, 70, 80
9, 22528, Note_on_c, 6, 70, 0
9, 22528, Note_on_c, 6, 70, 80
9, 23552, Note_on_c, 6, 70, 0
9, 23552, Note_on_c, 6, 71, 80
9, 24371, Note_on_c, 6, 71, 0
9, 24576, Note_on_c, 6, 74, 80
9, 25600, Note_on_c, 6, 74, 0
9, 25600, Note_on_c, 6, 71, 80
9, 26624, Note_on_c, 6, 71, 0
9, 26624, Note_on_c, 6, 69, 80
9, 27648, Note_on_c, 6, 69, 0
9, 27648, Note_on_c, 6, 68, 80
9, 28672, Note_on_c, 6, 68, 0
9, 28672, Note_on_c, 6, 69, 80
9, 29696, Note_on_c, 6, 69, 0
9, 29696, Note_on_c, 6, 68, 80
9, 30088, Control_c, 6, 7, 82
9, 30480, Control_c, 6, 7, 84
9, 30873, Control_c, 6, 7, 86
9, 31265, Control_c, 6, 7, 88
9, 31334, Note_on_c, 6, 68, 0
9, 31657, Control_c, 6, 7, 90
9, 31744, Note_on_c, 6, 68, 80
9, 32049, Control_c, 6, 7, 92
9, 32441, Control_c, 6, 7, 94
9, 32768, Note_on_c, 6, 68, 0
9, 32768, Note_on_c, 6, 73, 80
9, 32833, Control_c, 6, 7, 96
9, 33226, Control_c, 6, 7, 98
9, 33618, Control_c, 6, 7, 100
9, 34010, Control_c, 6, 7, 102
9, 34402, Control_c, 6, 7, 104
9, 34794, Control_c, 6, 7, 106
9, 34816, Note_on_c, 6, 73, 0
9, 34816, Note_on_c, 6, 73, 80
9, 35186, Control_c, 6, 7, 108
9, 35579, Control_c, 6, 7, 110
9, 35840, Note_on_c, 6, 73, 0
9, 35840, Note_on_c, 6, 73, 80
9, 35971, Control_c, 6, 7, 112
9, 36363, Control_c, 6, 7, 114
9, 36755, Control_c, 6, 7, 116
9, 36864, Note_on_c, 6, 73, 0
9, 36864, Note_on_c, 6, 72, 80
9, 37147, Control_c, 6, 7, 118
9, 37539, Control_c, 6, 7, 120
9, 37932, Control_c, 6, 7, 122
9, 38324, Control_c, 6, 7, 124
9, 38716, Control_c, 6, 7, 126
9, 38912, Note_on_c, 6, 72, 0
9, 38912, Note_on_c, 6, 73, 80
9, 39731, Note_on_c, 6, 73, 0
9, 39805, Control_c, 6, 7, 80
9, 39936, Note_on_c, 6, 68, 80
9, 40960, Note_on_c, 6, 68, 0
9, 40960, Note_on_c, 6, 68, 80
9, 41984, Note_on_c, 6, 68, 0
9, 41984, Note_on_c, 6, 69, 80
9, 42768, Control_c, 6, 7, 82
9, 43553, Control_c, 6, 7, 84
9, 44032, Note_on_c, 6, 69, 0
9, 44032, Note_on_c, 6, 69, 80
9, 44337, Control_c, 6, 7, 86
9, 45056, Note_on_c, 6, 69, 0
9, 45056, Note_on_c, 6, 70, 80
9, 45121, Control_c, 6, 7, 88
9, 45906, Control_c, 6, 7, 90
9, 46690, Control_c, 6, 7, 92
9, 47104, Note_on_c, 6, 70, 0
9, 47104, Note_on_c, 6, 70, 80
9, 47474, Control_c, 6, 7, 94
9, 48128, Note_on_c, 6, 70, 0
9, 48128, Note_on_c, 6, 71, 80
9, 48259, Control_c, 6, 7, 96
9, 49043, Control_c, 6, 7, 98
9, 49827, Control_c, 6, 7, 100
9, 50612, Control_c, 6, 7, 102
9, 51396, Control_c, 6, 7, 104
9, 52019, Note_on_c, 6, 71, 0
9, 52180, Control_c, 6, 7, 106
9, 52224, Note_on_c, 6, 74, 80
9, 52965, Control_c, 6, 7, 108
9, 53248, Note_on_c, 6, 74, 0
9, 53248, Note_on_c, 6, 73, 80
9, 53749, Control_c, 6, 7, 110
9, 54272, Note_on_c, 6, 73, 0
9, 54272, Note_on_c, 6, 77, 80
9, 54533, Control_c, 6, 7, 112
9, 55296, Note_on_c, 6, 77, 0
9, 55296, Note_on_c, 6, 78, 80
9, 55318, Control_c, 6, 7, 114
9, 56102, Control_c, 6, 7, 116
9, 56320, Note_on_c, 6, 78, 0
9, 56320, Note_on_c, 6, 74, 80
9, 56886, Control_c, 6, 7, 118
9, 57671, Control_c, 6, 7, 120
9, 58368, Note_on_c, 6, 74, 0
9, 58368, Note_on_c, 6, 73, 80
9, 58455, Control_c, 6, 7, 122
9, 59239, Control_c, 6, 7, 124
9, 59392, Note_on_c, 6, 73, 0
9, 59392, Note_on_c, 6, 71, 80
9, 60024, Control_c, 6, 7, 126
9, 60416, Note_on_c, 6, 71, 0
9, 60416, Note_on_c, 6, 69, 80
9, 60419, Control_c, 6, 7, 124
9, 60636, Control_c, 6, 7, 123
9, 60719, Control_c, 6, 7, 122
9, 60786, Control_c, 6, 7, 121
9, 60835, Control_c, 6, 7, 120
9, 60885, Control_c, 6, 7, 119
9, 60935, Control_c, 6, 7, 118
9, 60985, Control_c, 6, 7, 117
9, 61019, Control_c, 6, 7, 116
9, 61052, Control_c, 6, 7, 115
9, 61085, Control_c, 6, 7, 114
9, 61118, Control_c, 6, 7, 113
9, 61152, Control_c, 6, 7, 112
9, 61185, Control_c, 6, 7, 111
9, 61202, Control_c, 6, 7, 110
9, 61235, Control_c, 6, 7, 109
9, 61251, Control_c, 6, 7, 108
9, 61285, Control_c, 6, 7, 107
9, 61318, Control_c, 6, 7, 106
9, 61335, Control_c, 6, 7, 105
9, 61351, Control_c, 6, 7, 104
9, 61385, Control_c, 6, 7, 103
9, 61401, Control_c, 6, 7, 102
9, 61418, Control_c, 6, 7, 101
9, 61451, Control_c, 6, 7, 100
9, 61468, Control_c, 6, 7, 99
9, 61484, Control_c, 6, 7, 98
9, 61501, Control_c, 6, 7, 97
9, 61534, Control_c, 6, 7, 96
9, 61551, Control_c, 6, 7, 95
9, 61568, Control_c, 6, 7, 94
9, 61584, Control_c, 6, 7, 93
9, 61601, Control_c, 6, 7, 92
9, 61618, Control_c, 6, 7, 91
9, 61634, Control_c, 6, 7, 90
9, 61651, Control_c, 6, 7, 89
9, 61667, Control_c, 6, 7, 88
9, 61701, Control_c, 6, 7, 87
9, 61717, Control_c, 6, 7, 86
9, 61734, Control_c, 6, 7, 85
9, 61751, Control_c, 6, 7, 84
9, 61767, Control_c, 6, 7, 83
9, 61784, Control_c, 6, 7, 81
9, 61801, Control_c, 6, 7, 80
9, 61817, Control_c, 6, 7, 79
9, 61834, Control_c, 6, 7, 78
9, 61851, Control_c, 6, 7, 77
9, 61867, Control_c, 6, 7, 76
9, 61884, Control_c, 6, 7, 75
9, 61900, Control_c, 6, 7, 74
9, 61917, Control_c, 6, 7, 73
9, 61934, Control_c, 6, 7, 72
9, 61950, Control_c, 6, 7, 70
9, 61967, Control_c, 6, 7, 69
9, 61984, Control_c, 6, 7, 68
9, 62000, Control_c, 6, 7, 67
9, 62017, Control_c, 6, 7, 66
9, 62034, Control_c, 6, 7, 64
9, 62050, Control_c, 6, 7, 63
9, 62067, Control_c, 6, 7, 62
9, 62083, Control_c, 6, 7, 60
9, 62147, Control_c, 6, 7, 64
9, 62464, Note_on_c, 6, 69, 0
9, 62666, Control_c, 6, 7, 80
9, 78848, Note_on_c, 6, 80, 80
9, 79872, Note_on_c, 6, 80, 0
9, 79872, Note_on_c, 6, 77, 80
9, 80896, Note_on_c, 6, 77, 0
9, 80896, Note_on_c, 6, 73, 80
9, 81920, Note_on_c, 6, 73, 0
9, 81920, Note_on_c, 6, 69, 80
9, 82443, Control_c, 6, 7, 82
9, 82966, Control_c, 6, 7, 84
9, 83489, Control_c, 6, 7, 86
9, 84012, Control_c, 6, 7, 88
9, 84534, Control_c, 6, 7, 90
9, 85057, Control_c, 6, 7, 92
9, 85580, Control_c, 6, 7, 94
9, 86016, Note_on_c, 6, 69, 0
9, 86016, Note_on_c, 6, 72, 80
9, 86103, Control_c, 6, 7, 96
9, 86626, Control_c, 6, 7, 98
9, 87040, Note_on_c, 6, 72, 0
9, 87040, Note_on_c, 6, 71, 80
9, 87149, Control_c, 6, 7, 100
9, 87672, Control_c, 6, 7, 102
9, 88064, Note_on_c, 6, 71, 0
9, 88064, Note_on_c, 6, 67, 80
9, 88195, Control_c, 6, 7, 104
9, 88718, Control_c, 6, 7, 106
9, 88883, Note_on_c, 6, 67, 0
9, 89088, Note_on_c, 6, 71, 80
9, 89241, Control_c, 6, 7, 108
9, 89763, Control_c, 6, 7, 110
9, 90112, Note_on_c, 6, 71, 0
9, 90112, Note_on_c, 6, 76, 80
9, 90286, Control_c, 6, 7, 112
9, 90809, Control_c, 6, 7, 114
9, 91332, Control_c, 6, 7, 116
9, 91855, Control_c, 6, 7, 118
9, 92160, Note_on_c, 6, 76, 0
9, 92160, Note_on_c, 6, 79, 80
9, 92378, Control_c, 6, 7, 120
9, 92901, Control_c, 6, 7, 122
9, 93184, Note_on_c, 6, 79, 0
9, 93184, Note_on_c, 6, 78, 80
9, 93424, Control_c, 6, 7, 124
9, 93947, Control_c, 6, 7, 126
9, 94208, Control_c, 6, 7, 127
9, 94208, Note_on_c, 6, 78, 0
9, 94208, Note_on_c, 6, 74, 80
9, 94339, Control_c, 6, 7, 125
9, 94469, Control_c, 6, 7, 123
9, 94600, Control_c, 6, 7, 121
9, 94731, Control_c, 6, 7, 119
9, 94862, Control_c, 6, 7, 117
9, 94992, Control_c, 6, 7, 115
9, 95123, Control_c, 6, 7, 113
9, 95254, Control_c, 6, 7, 111
9, 95385, Control_c, 6, 7, 109
9, 95515, Control_c, 6, 7, 107
9, 95646, Control_c, 6, 7, 105
9, 95777, Control_c, 6, 7, 103
9, 95907, Control_c, 6, 7, 101
9, 96038, Control_c, 6, 7, 99
9, 96169, Control_c, 6, 7, 97
9, 96300, Control_c, 6, 7, 95
9, 96430, Control_c, 6, 7, 93
9, 96561, Control_c, 6, 7, 91
9, 96692, Control_c, 6, 7, 89
9, 96822, Control_c, 6, 7, 87
9, 96953, Control_c, 6, 7, 85
9, 97084, Control_c, 6, 7, 83
9, 97215, Control_c, 6, 7, 81
9, 97280, Note_on_c, 6, 74, 0
9, 97280, Note_on_c, 6, 73, 80
9, 98304, Note_on_c, 6, 73, 0
9, 101376, Note_on_c, 6, 74, 80
9, 102400, Note_on_c, 6, 74, 0
9, 102400, Note_on_c, 6, 74, 80
9, 103424, Control_c, 6, 7, 80
9, 103424, Note_on_c, 6, 74, 0
9, 103424, Note_on_c, 6, 75, 80
9, 103731, Control_c, 6, 7, 82
9, 104038, Control_c, 6, 7, 84
9, 104346, Control_c, 6, 7, 86
9, 104653, Control_c, 6, 7, 88
9, 104960, Control_c, 6, 7, 90
9, 105267, Control_c, 6, 7, 92
9, 105472, Note_on_c, 6, 75, 0
9, 105472, Note_on_c, 6, 75, 80
9, 105574, Control_c, 6, 7, 94
9, 105882, Control_c, 6, 7, 96
9, 106189, Control_c, 6, 7, 98
9, 106496, Note_on_c, 6, 75, 0
9, 106496, Note_on_c, 6, 76, 80
9, 111104, Note_on_c, 6, 76, 0
9, 111104, Note_on_c, 6, 74, 80
9, 111616, Note_on_c, 6, 74, 0
9, 111616, Note_on_c, 6, 73, 80
9, 112128, Note_on_c, 6, 73, 0
9, 112128, Note_on_c, 6, 71, 80
9, 112640, Note_on_c, 6, 71, 0
9, 112640, Note_on_c, 6, 70, 80
9, 113459, Note_on_c, 6, 70, 0
9, 113664, Note_on_c, 6, 71, 80
9, 114176, Note_on_c, 6, 71, 0
9, 114176, Note_on_c, 6, 70, 80
9, 114688, Note_on_c, 6, 70, 0
9, 114688, Note_on_c, 6, 71, 80
9, 115712, Control_c, 6, 7, 100
9, 115958, Control_c, 6, 7, 98
9, 116204, Control_c, 6, 7, 96
9, 116224, Note_on_c, 6, 71, 0
9, 116224, Note_on_c, 6, 73, 80
9, 116449, Control_c, 6, 7, 94
9, 116695, Control_c, 6, 7, 92
9, 116736, Note_on_c, 6, 73, 0
9, 116736, Note_on_c, 6, 70, 80
9, 116941, Control_c, 6, 7, 90
9, 117187, Control_c, 6, 7, 88
9, 117432, Control_c, 6, 7, 86
9, 117678, Control_c, 6, 7, 84
9, 117924, Control_c, 6, 7, 82
9, 118170, Control_c, 6, 7, 80
9, 118272, Note_on_c, 6, 70, 0
9, 118272, Note_on_c, 6, 71, 80
9, 118415, Control_c, 6, 7, 78
9, 118661, Control_c, 6, 7, 76
9, 118784, Note_on_c, 6, 71, 0
9, 118784, Note_on_c, 6, 71, 80
9, 119808, Note_on_c, 6, 71, 0
9, 124928, Control_c, 6, 7, 75
9, 125401, Control_c, 6, 7, 77
9, 125873, Control_c, 6, 7, 79
9, 126346, Control_c, 6, 7, 81
9, 126818, Control_c, 6, 7, 83
9, 126976, Note_on_c, 6, 73, 80
9, 127291, Control_c, 6, 7, 85
9, 127764, Control_c, 6, 7, 87
9, 128000, Note_on_c, 6, 73, 0
9, 128000, Note_on_c, 6, 74, 80
9, 128236, Control_c, 6, 7, 89
9, 128709, Control_c, 6, 7, 91
9, 129182, Control_c, 6, 7, 93
9, 129654, Control_c, 6, 7, 95
9, 130048, Note_on_c, 6, 74, 0
9, 130048, Note_on_c, 6, 73, 80
9, 130127, Control_c, 6, 7, 97
9, 130560, Note_on_c, 6, 73, 0
9, 130560, Note_on_c, 6, 71, 80
9, 130599, Control_c, 6, 7, 99
9, 131072, Control_c, 6, 7, 101
9, 131072, Note_on_c, 6, 71, 0
9, 131072, Note_on_c, 6, 76, 80
9, 131545, Control_c, 6, 7, 103
9, 132017, Control_c, 6, 7, 105
9, 132490, Control_c, 6, 7, 107
9, 132962, Control_c, 6, 7, 109
9, 133120, Note_on_c, 6, 76, 0
9, 133120, Note_on_c, 6, 74, 80
9, 133435, Control_c, 6, 7, 111
9, 133632, Note_on_c, 6, 74, 0
9, 133632, Note_on_c, 6, 73, 80
9, 133908, Control_c, 6, 7, 113
9, 134144, Note_on_c, 6, 73, 0
9, 134144, Note_on_c, 6, 78, 80
9, 134380, Control_c, 6, 7, 115
9, 134853, Control_c, 6, 7, 117
9, 135326, Control_c, 6, 7, 119
9, 135798, Control_c, 6, 7, 121
9, 136192, Note_on_c, 6, 78, 0
9, 136271, Control_c, 6, 7, 123
9, 136743, Control_c, 6, 7, 125
9, 137216, Note_on_c, 6, 64, 80
9, 138240, Note_on_c, 6, 64, 0
9, 138240, Note_on_c, 6, 67, 80
9, 139264, Note_on_c, 6, 67, 0
9, 139264, Note_on_c, 6, 71, 80
9, 140288, Note_on_c, 6, 71, 0
9, 140288, Note_on_c, 6, 76, 80
9, 146432, Control_c, 6, 7, 127
9, 146467, Control_c, 6, 7, 126
9, 146526, Control_c, 6, 7, 125
9, 146585, Control_c, 6, 7, 124
9, 146643, Control_c, 6, 7, 123
9, 146702, Control_c, 6, 7, 122
9, 146761, Control_c, 6, 7, 121
9, 146819, Control_c, 6, 7, 120
9, 146878, Control_c, 6, 7, 119
9, 146937, Control_c, 6, 7, 118
9, 146995, Control_c, 6, 7, 117
9, 147054, Control_c, 6, 7, 116
9, 147113, Control_c, 6, 7, 115
9, 147171, Control_c, 6, 7, 114
9, 147230, Control_c, 6, 7, 113
9, 147289, Control_c, 6, 7, 112
9, 147347, Control_c, 6, 7, 111
9, 147406, Control_c, 6, 7, 110
9, 147456, Note_on_c, 6, 76, 0
9, 147456, Note_on_c, 6, 67, 80
9, 147465, Control_c, 6, 7, 109
9, 147523, Control_c, 6, 7, 108
9, 147582, Control_c, 6, 7, 107
9, 147641, Control_c, 6, 7, 106
9, 147699, Control_c, 6, 7, 105
9, 147758, Control_c, 6, 7, 104
9, 147817, Control_c, 6, 7, 103
9, 147875, Control_c, 6, 7, 102
9, 147934, Control_c, 6, 7, 101
9, 147993, Control_c, 6, 7, 100
9, 148051, Control_c, 6, 7, 99
9, 148110, Control_c, 6, 7, 98
9, 148169, Control_c, 6, 7, 97
9, 148227, Control_c, 6, 7, 96
9, 148286, Control_c, 6, 7, 95
9, 148345, Control_c, 6, 7, 94
9, 148403, Control_c, 6, 7, 93
9, 148462, Control_c, 6, 7, 92
9, 148521, Control_c, 6, 7, 91
9, 148579, Control_c, 6, 7, 90
9, 148638, Control_c, 6, 7, 89
9, 148697, Control_c, 6, 7, 88
9, 148755, Control_c, 6, 7, 87
9, 148814, Control_c, 6, 7, 86
9, 148873, Control_c, 6, 7, 85
9, 148931, Control_c, 6, 7, 84
9, 148990, Control_c, 6, 7, 83
9, 149049, Control_c, 6, 7, 82
9, 149107, Control_c, 6, 7, 81
9, 149166, Control_c, 6, 7, 80
9, 149225, Control_c, 6, 7, 79
9, 149283, Control_c, 6, 7, 78
9, 149342, Control_c, 6, 7, 77
9, 149401, Control_c, 6, 7, 76
9, 149459, Control_c, 6, 7, 75
9, 149504, Note_on_c, 6, 67, 0
9, 149504, Note_on_c, 6, 66, 80
9, 149518, Control_c, 6, 7, 74
9, 149577, Control_c, 6, 7, 73
9, 149635, Control_c, 6, 7, 72
9, 149694, Control_c, 6, 7, 71
9, 149753, Control_c, 6, 7, 70
9, 149811, Control_c, 6, 7, 69
9, 149870, Control_c, 6, 7, 68
9, 149929, Control_c, 6, 7, 67
9, 149987, Control_c, 6, 7, 66
9, 150046, Control_c, 6, 7, 65
9, 150105, Control_c, 6, 7, 64
9, 150163, Control_c, 6, 7, 63
9, 150222, Control_c, 6, 7, 62
9, 150281, Control_c, 6, 7, 61
9, 150339, Control_c, 6, 7, 60
9, 150398, Control_c, 6, 7, 59
9, 150457, Control_c, 6, 7, 58
9, 150515, Control_c, 6, 7, 57
9, 150574, Control_c, 6, 7, 56
9, 150633, Control_c, 6, 7, 55
9, 150691, Control_c, 6, 7, 54
9, 150750, Control_c, 6, 7, 53
9, 150809, Control_c, 6, 7, 52
9, 150867, Control_c, 6, 7, 51
9, 150926, Control_c, 6, 7, 50
9, 150985, Control_c, 6, 7, 49
9, 151043, Control_c, 6, 7, 48
9, 151102, Control_c, 6, 7, 47
9, 151161, Control_c, 6, 7, 46
9, 151219, Control_c, 6, 7, 45
9, 151278, Control_c, 6, 7, 44
9, 151337, Control_c, 6, 7, 43
9, 151395, Control_c, 6, 7, 42
9, 151454, Control_c, 6, 7, 41
9, 151513, Control_c, 6, 7, 40
9, 151571, Control_c, 6, 7, 39
9, 151630, Control_c, 6, 7, 38
9, 151689, Control_c, 6, 7, 37
9, 151747, Control_c, 6, 7, 36
9, 151806, Control_c, 6, 7, 35
9, 151865, Control_c, 6, 7, 34
9, 151923, Control_c, 6, 7, 33
9, 151982, Control_c, 6, 7, 32
9, 152041, Control_c, 6, 7, 31
9, 152099, Control_c, 6, 7, 30
9, 152158, Control_c, 6, 7, 29
9, 152217, Control_c, 6, 7, 28
9, 152275, Control_c, 6, 7, 27
9, 152334, Control_c, 6, 7, 26
9, 152393, Control_c, 6, 7, 25
9, 152451, Control_c, 6, 7, 24
9, 152510, Control_c, 6, 7, 23
9, 152569, Control_c, 6, 7, 22
9, 152576, Note_on_c, 6, 66, 0
9, 152627, Control_c, 6, 7, 21
9, 152686, Control_c, 6, 7, 20
9, 152745, Control_c, 6, 7, 19
9, 152803, Control_c, 6, 7, 18
9, 152972, Control_c, 6, 7, 127
9, 487424, End_track
10, 0, Start_track
10, 0, Title_t, "Soprano II"
10, 0, Program_c, 7, 53
10, 0, Control_c, 7, 121, 127
10, 0, Control_c, 7, 91, 127
10, 0, Control_c, 7, 10, 40
10, 0, Control_c, 7, 1, 25
10, 8192, Control_c, 7, 7, 80
10, 14336, Note_on_c, 7, 74, 80
10, 15360, Note_on_c, 7, 74, 0
10, 15360, Note_on_c, 7, 71, 80
10, 16384, Note_on_c, 7, 71, 0
10, 16384, Note_on_c, 7, 67, 80
10, 17408, Note_on_c, 7, 67, 0
10, 17408, Note_on_c, 7, 64, 80
10, 21504, Note_on_c, 7, 64, 0
10, 21504, Note_on_c, 7, 61, 80
10, 23552, Note_on_c, 7, 61, 0
10, 23552, Note_on_c, 7, 59, 80
10, 24371, Note_on_c, 7, 59, 0
10, 24576, Note_on_c, 7, 66, 80
10, 25600, Note_on_c, 7, 66, 0
10, 25600, Note_on_c, 7, 66, 80
10, 26624, Note_on_c, 7, 66, 0
10, 26624, Note_on_c, 7, 66, 80
10, 28672, Note_on_c, 7, 66, 0
10, 28672, Note_on_c, 7, 66, 80
10, 29696, Note_on_c, 7, 66, 0
10, 29696, Note_on_c, 7, 65, 80
10, 30088, Control_c, 7, 7, 82
10, 30480, Control_c, 7, 7, 84
10, 30873, Control_c, 7, 7, 86
10, 31265, Control_c, 7, 7, 88
10, 31334, Note_on_c, 7, 65, 0
10, 31657, Control_c, 7, 7, 90
10, 31744, Note_on_c, 7, 65, 80
10, 32049, Control_c, 7, 7, 92
10, 32441, Control_c, 7, 7, 94
10, 32768, Note_on_c, 7, 65, 0
10, 32768, Note_on_c, 7, 66, 80
10, 32833, Control_c, 7, 7, 96
10, 33226, Control_c, 7, 7, 98
10, 33618, Control_c, 7, 7, 100
10, 33792, Note_on_c, 7, 66, 0
10, 33792, Note_on_c, 7, 71, 80
10, 34010, Control_c, 7, 7, 102
10, 34402, Control_c, 7, 7, 104
10, 34794, Control_c, 7, 7, 106
10, 34816, Note_on_c, 7, 71, 0
10, 34816, Note_on_c, 7, 69, 80
10, 35186, Control_c, 7, 7, 108
10, 35579, Control_c, 7, 7, 110
10, 35971, Control_c, 7, 7, 112
10, 36363, Control_c, 7, 7, 114
10, 36755, Control_c, 7, 7, 116
10, 36864, Note_on_c, 7, 69, 0
10, 36864, Note_on_c, 7, 66, 80
10, 37147, Control_c, 7, 7, 118
10, 37539, Control_c, 7, 7, 120
10, 37932, Control_c, 7, 7, 122
10, 38324, Control_c, 7, 7, 124
10, 38716, Control_c, 7, 7, 126
10, 38912, Note_on_c, 7, 66, 0
10, 38912, Note_on_c, 7, 65, 80
10, 39731, Note_on_c, 7, 65, 0
10, 39805, Control_c, 7, 7, 80
10, 39936, Note_on_c, 7, 65, 80
10, 40960, Note_on_c, 7, 65, 0
10, 40960, Note_on_c, 7, 65, 80
10, 41984, Note_on_c, 7, 65, 0
10, 41984, Note_on_c, 7, 66, 80
10, 44032, Note_on_c, 7, 66, 0
10, 44032, Note_on_c, 7, 66, 80
10, 45056, Note_on_c, 7, 66, 0
10, 45056, Note_on_c, 7, 67, 80
10, 46080, Note_on_c, 7, 67, 0
10, 46080, Note_on_c, 7, 66, 80
10, 47104, Note_on_c, 7, 66, 0
10, 47104, Note_on_c, 7, 66, 80
10, 48128, Note_on_c, 7, 66, 0
10, 48128, Note_on_c, 7, 66, 80
10, 48947, Note_on_c, 7, 66, 0
10, 49152, Note_on_c, 7, 65, 80
10, 50176, Note_on_c, 7, 65, 0
10, 50176, Note_on_c, 7, 66, 80
10, 51200, Note_on_c, 7, 66, 0
10, 51200, Note_on_c, 7, 68, 80
10, 52224, Note_on_c, 7, 68, 0
10, 52224, Note_on_c, 7, 69, 80
10, 53043, Note_on_c, 7, 69, 0
10, 53248, Note_on_c, 7, 71, 80
10, 55296, Note_on_c, 7, 71, 0
10, 55296, Note_on_c, 7, 73, 80
10, 56320, Note_on_c, 7, 73, 0
10, 56320, Note_on_c, 7, 71, 80
10, 57344, Note_on_c, 7, 71, 0
10, 57344, Note_on_c, 7, 68, 80
10, 59392, Note_on_c, 7, 68, 0
10, 59392, Note_on_c, 7, 68, 80
10, 60416, Control_c, 7, 7, 100
10, 60416, Note_on_c, 7, 68, 0
10, 60416, Note_on_c, 7, 66, 80
10, 60448, Control_c, 7, 7, 99
10, 60474, Control_c, 7, 7, 125
10, 60480, Control_c, 7, 7, 98
10, 60487, Control_c, 7, 7, 127
10, 60512, Control_c, 7, 7, 97
10, 60531, Control_c, 7, 7, 125
10, 60532, Control_c, 7, 7, 123
10, 60539, Control_c, 7, 7, 98
10, 60544, Control_c, 7, 7, 96
10, 60547, Control_c, 7, 7, 124
10, 60771, Control_c, 7, 7, 123
10, 60851, Control_c, 7, 7, 122
10, 60915, Control_c, 7, 7, 121
10, 60979, Control_c, 7, 7, 120
10, 61027, Control_c, 7, 7, 119
10, 61075, Control_c, 7, 7, 118
10, 61123, Control_c, 7, 7, 117
10, 61155, Control_c, 7, 7, 116
10, 61187, Control_c, 7, 7, 115
10, 61219, Control_c, 7, 7, 114
10, 61251, Control_c, 7, 7, 113
10, 61283, Control_c, 7, 7, 112
10, 61315, Control_c, 7, 7, 111
10, 61347, Control_c, 7, 7, 110
10, 61379, Control_c, 7, 7, 109
10, 61395, Control_c, 7, 7, 108
10, 61427, Control_c, 7, 7, 107
10, 61459, Control_c, 7, 7, 106
10, 61475, Control_c, 7, 7, 105
10, 61507, Control_c, 7, 7, 104
10, 61523, Control_c, 7, 7, 103
10, 61555, Control_c, 7, 7, 102
10, 61571, Control_c, 7, 7, 101
10, 61587, Control_c, 7, 7, 100
10, 61619, Control_c, 7, 7, 99
10, 61635, Control_c, 7, 7, 98
10, 61651, Control_c, 7, 7, 97
10, 61683, Control_c, 7, 7, 96
10, 61699, Control_c, 7, 7, 95
10, 61715, Control_c, 7, 7, 94
10, 61731, Control_c, 7, 7, 93
10, 61747, Control_c, 7, 7, 92
10, 61779, Control_c, 7, 7, 91
10, 61795, Control_c, 7, 7, 90
10, 61811, Control_c, 7, 7, 89
10, 61827, Control_c, 7, 7, 88
10, 61843, Control_c, 7, 7, 87
10, 61859, Control_c, 7, 7, 86
10, 61875, Control_c, 7, 7, 85
10, 61891, Control_c, 7, 7, 84
10, 61907, Control_c, 7, 7, 83
10, 61923, Control_c, 7, 7, 82
10, 61939, Control_c, 7, 7, 81
10, 61955, Control_c, 7, 7, 80
10, 61971, Control_c, 7, 7, 79
10, 61987, Control_c, 7, 7, 78
10, 62003, Control_c, 7, 7, 77
10, 62019, Control_c, 7, 7, 76
10, 62035, Control_c, 7, 7, 75
10, 62051, Control_c, 7, 7, 74
10, 62067, Control_c, 7, 7, 73
10, 62083, Control_c, 7, 7, 72
10, 62099, Control_c, 7, 7, 71
10, 62115, Control_c, 7, 7, 70
10, 62131, Control_c, 7, 7, 69
10, 62147, Control_c, 7, 7, 67
10, 62211, Control_c, 7, 7, 55
10, 62464, Note_on_c, 7, 66, 0
10, 63048, Control_c, 7, 7, 54
10, 63363, Control_c, 7, 7, 53
10, 63365, Control_c, 7, 7, 52
10, 75776, Note_on_c, 7, 74, 80
10, 76800, Note_on_c, 7, 74, 0
10, 76800, Note_on_c, 7, 71, 80
10, 77824, Note_on_c, 7, 71, 0
10, 77824, Note_on_c, 7, 68, 80
10, 78848, Note_on_c, 7, 68, 0
10, 78848, Note_on_c, 7, 65, 80
10, 80896, Note_on_c, 7, 65, 0
10, 80896, Note_on_c, 7, 65, 80
10, 81920, Control_c, 7, 7, 80
10, 81920, Note_on_c, 7, 65, 0
10, 81920, Note_on_c, 7, 66, 80
10, 82443, Control_c, 7, 7, 82
10, 82739, Note_on_c, 7, 66, 0
10, 82944, Note_on_c, 7, 69, 80
10, 82966, Control_c, 7, 7, 84
10, 83489, Control_c, 7, 7, 86
10, 83968, Note_on_c, 7, 69, 0
10, 83968, Note_on_c, 7, 72, 80
10, 84012, Control_c, 7, 7, 88
10, 84534, Control_c, 7, 7, 90
10, 84992, Note_on_c, 7, 72, 0
10, 84992, Note_on_c, 7, 71, 80
10, 85057, Control_c, 7, 7, 92
10, 85580, Control_c, 7, 7, 94
10, 86016, Note_on_c, 7, 71, 0
10, 86016, Note_on_c, 7, 66, 80
10, 86103, Control_c, 7, 7, 96
10, 86626, Control_c, 7, 7, 98
10, 87149, Control_c, 7, 7, 100
10, 87672, Control_c, 7, 7, 102
10, 88064, Note_on_c, 7, 66, 0
10, 88064, Note_on_c, 7, 64, 80
10, 88195, Control_c, 7, 7, 104
10, 88718, Control_c, 7, 7, 106
10, 89241, Control_c, 7, 7, 108
10, 89702, Note_on_c, 7, 64, 0
10, 89763, Control_c, 7, 7, 110
10, 90112, Note_on_c, 7, 71, 80
10, 90286, Control_c, 7, 7, 112
10, 90809, Control_c, 7, 7, 114
10, 91136, Note_on_c, 7, 71, 0
10, 91136, Note_on_c, 7, 73, 80
10, 91332, Control_c, 7, 7, 116
10, 91855, Control_c, 7, 7, 118
10, 92378, Control_c, 7, 7, 120
10, 92901, Control_c, 7, 7, 122
10, 93184, Note_on_c, 7, 73, 0
10, 93184, Note_on_c, 7, 73, 80
10, 93424, Control_c, 7, 7, 124
10, 93947, Control_c, 7, 7, 126
10, 94208, Control_c, 7, 7, 127
10, 94208, Note_on_c, 7, 73, 0
10, 94208, Note_on_c, 7, 73, 80
10, 94339, Control_c, 7, 7, 125
10, 94469, Control_c, 7, 7, 123
10, 94600, Control_c, 7, 7, 121
10, 94731, Control_c, 7, 7, 119
10, 94862, Control_c, 7, 7, 117
10, 94992, Control_c, 7, 7, 115
10, 95123, Control_c, 7, 7, 113
10, 95232, Note_on_c, 7, 73, 0
10, 95232, Note_on_c, 7, 71, 80
10, 95254, Control_c, 7, 7, 111
10, 95385, Control_c, 7, 7, 109
10, 95515, Control_c, 7, 7, 107
10, 95646, Control_c, 7, 7, 105
10, 95777, Control_c, 7, 7, 103
10, 95907, Control_c, 7, 7, 101
10, 96038, Control_c, 7, 7, 99
10, 96169, Control_c, 7, 7, 97
10, 96300, Control_c, 7, 7, 95
10, 96430, Control_c, 7, 7, 93
10, 96561, Control_c, 7, 7, 91
10, 96692, Control_c, 7, 7, 89
10, 96822, Control_c, 7, 7, 87
10, 96953, Control_c, 7, 7, 85
10, 97084, Control_c, 7, 7, 83
10, 97215, Control_c, 7, 7, 81
10, 97280, Note_on_c, 7, 71, 0
10, 97280, Note_on_c, 7, 70, 80
10, 98099, Note_on_c, 7, 70, 0
10, 98304, Note_on_c, 7, 70, 80
10, 99328, Note_on_c, 7, 70, 0
10, 99328, Note_on_c, 7, 70, 80
10, 100352, Note_on_c, 7, 70, 0
10, 100352, Note_on_c, 7, 71, 80
10, 102400, Note_on_c, 7, 71, 0
10, 102400, Note_on_c, 7, 71, 80
10, 103424, Control_c, 7, 7, 80
10, 103424, Note_on_c, 7, 71, 0
10, 103424, Note_on_c, 7, 71, 80
10, 103731, Control_c, 7, 7, 82
10, 104038, Control_c, 7, 7, 84
10, 104346, Control_c, 7, 7, 86
10, 104448, Note_on_c, 7, 71, 0
10, 104448, Note_on_c, 7, 72, 80
10, 104653, Control_c, 7, 7, 88
10, 104960, Control_c, 7, 7, 90
10, 105267, Control_c, 7, 7, 92
10, 105472, Note_on_c, 7, 72, 0
10, 105472, Note_on_c, 7, 71, 80
10, 105574, Control_c, 7, 7, 94
10, 105882, Control_c, 7, 7, 96
10, 106189, Control_c, 7, 7, 98
10, 106496, Note_on_c, 7, 71, 0
10, 106496, Note_on_c, 7, 71, 80
10, 107315, Note_on_c, 7, 71, 0
10, 107520, Note_on_c, 7, 70, 80
10, 108544, Note_on_c, 7, 70, 0
10, 108544, Note_on_c, 7, 71, 80
10, 109568, Note_on_c, 7, 71, 0
10, 109568, Note_on_c, 7, 73, 80
10, 110592, Note_on_c, 7, 73, 0
10, 110592, Note_on_c, 7, 71, 80
10, 111616, Note_on_c, 7, 71, 0
10, 111616, Note_on_c, 7, 76, 80
10, 112640, Note_on_c, 7, 76, 0
10, 112640, Note_on_c, 7, 79, 80
10, 113664, Note_on_c, 7, 79, 0
10, 113664, Note_on_c, 7, 78, 80
10, 114176, Note_on_c, 7, 78, 0
10, 114176, Note_on_c, 7, 73, 80
10, 114688, Note_on_c, 7, 73, 0
10, 114688, Note_on_c, 7, 74, 80
10, 115712, Control_c, 7, 7, 100
10, 115958, Control_c, 7, 7, 98
10, 116204, Control_c, 7, 7, 96
10, 116224, Note_on_c, 7, 74, 0
10, 116224, Note_on_c, 7, 76, 80
10, 116449, Control_c, 7, 7, 94
10, 116695, Control_c, 7, 7, 92
10, 116736, Note_on_c, 7, 76, 0
10, 116736, Note_on_c, 7, 73, 80
10, 116941, Control_c, 7, 7, 90
10, 117187, Control_c, 7, 7, 88
10, 117432, Control_c, 7, 7, 86
10, 117678, Control_c, 7, 7, 84
10, 117924, Control_c, 7, 7, 82
10, 118170, Control_c, 7, 7, 80
10, 118272, Note_on_c, 7, 73, 0
10, 118272, Note_on_c, 7, 71, 80
10, 118415, Control_c, 7, 7, 78
10, 118661, Control_c, 7, 7, 76
10, 118784, Note_on_c, 7, 71, 0
10, 118784, Note_on_c, 7, 71, 80
10, 119808, Note_on_c, 7, 71, 0
10, 124928, Control_c, 7, 7, 75
10, 125401, Control_c, 7, 7, 77
10, 125873, Control_c, 7, 7, 79
10, 126346, Control_c, 7, 7, 81
10, 126818, Control_c, 7, 7, 83
10, 126976, Note_on_c, 7, 70, 80
10, 127291, Control_c, 7, 7, 85
10, 127764, Control_c, 7, 7, 87
10, 128000, Note_on_c, 7, 70, 0
10, 128000, Note_on_c, 7, 71, 80
10, 128236, Control_c, 7, 7, 89
10, 128709, Control_c, 7, 7, 91
10, 129182, Control_c, 7, 7, 93
10, 129654, Control_c, 7, 7, 95
10, 130127, Control_c, 7, 7, 97
10, 130599, Control_c, 7, 7, 99
10, 131072, Control_c, 7, 7, 101
10, 131545, Control_c, 7, 7, 103
10, 132017, Control_c, 7, 7, 105
10, 132490, Control_c, 7, 7, 107
10, 132962, Control_c, 7, 7, 109
10, 133120, Note_on_c, 7, 71, 0
10, 133120, Note_on_c, 7, 66, 80
10, 133435, Control_c, 7, 7, 111
10, 133908, Control_c, 7, 7, 113
10, 134144, Note_on_c, 7, 66, 0
10, 134144, Note_on_c, 7, 66, 80
10, 134380, Control_c, 7, 7, 115
10, 134853, Control_c, 7, 7, 117
10, 135168, Note_on_c, 7, 66, 0
10, 135168, Note_on_c, 7, 62, 80
10, 135326, Control_c, 7, 7, 119
10, 135798, Control_c, 7, 7, 121
10, 136192, Note_on_c, 7, 62, 0
10, 136192, Note_on_c, 7, 59, 80
10, 136271, Control_c, 7, 7, 123
10, 136743, Control_c, 7, 7, 125
10, 137216, Note_on_c, 7, 59, 0
10, 138240, Note_on_c, 7, 64, 80
10, 139264, Note_on_c, 7, 64, 0
10, 139264, Note_on_c, 7, 67, 80
10, 140288, Note_on_c, 7, 67, 0
10, 140288, Note_on_c, 7, 71, 80
10, 141312, Note_on_c, 7, 71, 0
10, 141312, Note_on_c, 7, 76, 80
10, 142336, Note_on_c, 7, 76, 0
10, 142336, Note_on_c, 7, 71, 80
10, 143360, Note_on_c, 7, 71, 0
10, 143360, Note_on_c, 7, 67, 80
10, 146432, Control_c, 7, 7, 127
10, 146467, Control_c, 7, 7, 126
10, 146523, Control_c, 7, 7, 125
10, 146579, Control_c, 7, 7, 124
10, 146634, Control_c, 7, 7, 123
10, 146690, Control_c, 7, 7, 122
10, 146745, Control_c, 7, 7, 121
10, 146801, Control_c, 7, 7, 120
10, 146856, Control_c, 7, 7, 119
10, 146912, Control_c, 7, 7, 118
10, 146967, Control_c, 7, 7, 117
10, 147023, Control_c, 7, 7, 116
10, 147078, Control_c, 7, 7, 115
10, 147134, Control_c, 7, 7, 114
10, 147189, Control_c, 7, 7, 113
10, 147245, Control_c, 7, 7, 112
10, 147300, Control_c, 7, 7, 111
10, 147356, Control_c, 7, 7, 110
10, 147411, Control_c, 7, 7, 109
10, 147456, Note_on_c, 7, 67, 0
10, 147456, Note_on_c, 7, 64, 80
10, 147467, Control_c, 7, 7, 108
10, 147522, Control_c, 7, 7, 107
10, 147578, Control_c, 7, 7, 106
10, 147633, Control_c, 7, 7, 105
10, 147689, Control_c, 7, 7, 104
10, 147744, Control_c, 7, 7, 103
10, 147800, Control_c, 7, 7, 102
10, 147855, Control_c, 7, 7, 101
10, 147911, Control_c, 7, 7, 100
10, 147966, Control_c, 7, 7, 99
10, 148022, Control_c, 7, 7, 98
10, 148077, Control_c, 7, 7, 97
10, 148133, Control_c, 7, 7, 96
10, 148188, Control_c, 7, 7, 95
10, 148244, Control_c, 7, 7, 94
10, 148299, Control_c, 7, 7, 93
10, 148355, Control_c, 7, 7, 92
10, 148410, Control_c, 7, 7, 91
10, 148466, Control_c, 7, 7, 90
10, 148521, Control_c, 7, 7, 89
10, 148577, Control_c, 7, 7, 88
10, 148632, Control_c, 7, 7, 87
10, 148688, Control_c, 7, 7, 86
10, 148743, Control_c, 7, 7, 85
10, 148799, Control_c, 7, 7, 84
10, 148854, Control_c, 7, 7, 83
10, 148910, Control_c, 7, 7, 82
10, 148965, Control_c, 7, 7, 81
10, 149021, Control_c, 7, 7, 80
10, 149076, Control_c, 7, 7, 79
10, 149132, Control_c, 7, 7, 78
10, 149187, Control_c, 7, 7, 77
10, 149243, Control_c, 7, 7, 76
10, 149298, Control_c, 7, 7, 75
10, 149354, Control_c, 7, 7, 74
10, 149409, Control_c, 7, 7, 73
10, 149465, Control_c, 7, 7, 72
10, 149504, Note_on_c, 7, 64, 0
10, 149504, Note_on_c, 7, 63, 80
10, 149520, Control_c, 7, 7, 71
10, 149576, Control_c, 7, 7, 70
10, 149631, Control_c, 7, 7, 69
10, 149687, Control_c, 7, 7, 68
10, 149742, Control_c, 7, 7, 67
10, 149798, Control_c, 7, 7, 66
10, 149853, Control_c, 7, 7, 65
10, 149909, Control_c, 7, 7, 64
10, 149964, Control_c, 7, 7, 63
10, 150020, Control_c, 7, 7, 62
10, 150075, Control_c, 7, 7, 61
10, 150131, Control_c, 7, 7, 60
10, 150186, Control_c, 7, 7, 59
10, 150242, Control_c, 7, 7, 58
10, 150297, Control_c, 7, 7, 57
10, 150353, Control_c, 7, 7, 56
10, 150408, Control_c, 7, 7, 55
10, 150464, Control_c, 7, 7, 54
10, 150519, Control_c, 7, 7, 53
10, 150575, Control_c, 7, 7, 52
10, 150630, Control_c, 7, 7, 51
10, 150686, Control_c, 7, 7, 50
10, 150741, Control_c, 7, 7, 49
10, 150797, Control_c, 7, 7, 48
10, 150852, Control_c, 7, 7, 47
10, 150908, Control_c, 7, 7, 46
10, 150963, Control_c, 7, 7, 45
10, 151019, Control_c, 7, 7, 44
10, 151074, Control_c, 7, 7, 43
10, 151130, Control_c, 7, 7, 42
10, 151185, Control_c, 7, 7, 41
10, 151241, Control_c, 7, 7, 40
10, 151296, Control_c, 7, 7, 39
10, 151352, Control_c, 7, 7, 38
10, 151407, Control_c, 7, 7, 37
10, 151463, Control_c, 7, 7, 36
10, 151518, Control_c, 7, 7, 35
10, 151574, Control_c, 7, 7, 34
10, 151629, Control_c, 7, 7, 33
10, 151685, Control_c, 7, 7, 32
10, 151740, Control_c, 7, 7, 31
10, 151796, Control_c, 7, 7, 30
10, 151851, Control_c, 7, 7, 29
10, 151907, Control_c, 7, 7, 28
10, 151962, Control_c, 7, 7, 27
10, 152018, Control_c, 7, 7, 26
10, 152073, Control_c, 7, 7, 25
10, 152129, Control_c, 7, 7, 24
10, 152184, Control_c, 7, 7, 23
10, 152240, Control_c, 7, 7, 22
10, 152295, Control_c, 7, 7, 21
10, 152351, Control_c, 7, 7, 20
10, 152406, Control_c, 7, 7, 19
10, 152462, Control_c, 7, 7, 18
10, 152517, Control_c, 7, 7, 17
10, 152573, Control_c, 7, 7, 16
10, 152576, Note_on_c, 7, 63, 0
10, 152628, Control_c, 7, 7, 15
10, 152684, Control_c, 7, 7, 14
10, 152739, Control_c, 7, 7, 13
10, 152908, Control_c, 7, 7, 126
10, 182272, Note_on_c, 7, 72, 96
10, 184320, Note_on_c, 7, 72, 0
10, 184320, Note_on_c, 7, 72, 96
10, 186368, Note_on_c, 7, 72, 0
10, 186368, Note_on_c, 7, 72, 85
10, 187392, Note_on_c, 7, 72, 0
10, 187392, Note_on_c, 7, 71, 79
10, 188416, Note_on_c, 7, 71, 0
10, 188416, Note_on_c, 7, 71, 74
10, 190464, Note_on_c, 7, 71, 0
10, 212992, Note_on_c, 7, 65, 84
10, 215040, Note_on_c, 7, 65, 0
10, 215040, Note_on_c, 7, 65, 77
10, 217088, Note_on_c, 7, 65, 0
10, 217088, Note_on_c, 7, 65, 70
10, 218112, Note_on_c, 7, 65, 0
10, 218112, Note_on_c, 7, 64, 67
10, 219136, Note_on_c, 7, 64, 0
10, 219136, Note_on_c, 7, 64, 64
10, 221184, Note_on_c, 7, 64, 0
10, 231424, Note_on_c, 7, 67, 62
10, 233472, Note_on_c, 7, 67, 0
10, 233472, Note_on_c, 7, 70, 71
10, 235520, Note_on_c, 7, 70, 0
10, 235520, Note_on_c, 7, 71, 80
10, 237568, Note_on_c, 7, 71, 0
10, 237568, Note_on_c, 7, 72, 88
10, 238592, Note_on_c, 7, 72, 0
10, 238592, Note_on_c, 7, 71, 87
10, 239616, Note_on_c, 7, 71, 0
10, 239616, Note_on_c, 7, 71, 81
10, 241254, Note_on_c, 7, 71, 0
10, 241664, Note_on_c, 7, 73, 84
10, 242688, Note_on_c, 7, 73, 0
10, 242688, Note_on_c, 7, 75, 87
10, 243712, Note_on_c, 7, 75, 0
10, 243712, Note_on_c, 7, 76, 91
10, 245760, Note_on_c, 7, 76, 0
10, 245760, Note_on_c, 7, 76, 96
10, 247808, Note_on_c, 7, 76, 0
10, 247808, Note_on_c, 7, 76, 96
10, 249856, Note_on_c, 7, 76, 0
10, 249856, Note_on_c, 7, 75, 96
10, 251904, Note_on_c, 7, 75, 0
10, 251904, Note_on_c, 7, 75, 93
10, 253952, Note_on_c, 7, 75, 0
10, 266240, Note_on_c, 7, 67, 81
10, 268288, Note_on_c, 7, 67, 0
10, 268288, Note_on_c, 7, 66, 76
10, 270336, Note_on_c, 7, 66, 0
10, 270336, Note_on_c, 7, 64, 72
10, 272384, Note_on_c, 7, 64, 0
10, 272384, Note_on_c, 7, 63, 68
10, 274432, Note_on_c, 7, 63, 0
10, 274432, Note_on_c, 7, 59, 63
10, 276480, Note_on_c, 7, 59, 0
10, 279613, Control_c, 7, 7, 78
10, 280509, Control_c, 7, 7, 76
10, 280576, Note_on_c, 7, 72, 96
10, 280608, Control_c, 7, 7, 77
10, 280707, Control_c, 7, 7, 78
10, 280805, Control_c, 7, 7, 79
10, 280904, Control_c, 7, 7, 80
10, 281003, Control_c, 7, 7, 81
10, 281101, Control_c, 7, 7, 82
10, 281200, Control_c, 7, 7, 83
10, 281299, Control_c, 7, 7, 84
10, 281397, Control_c, 7, 7, 85
10, 281496, Control_c, 7, 7, 86
10, 281595, Control_c, 7, 7, 87
10, 281693, Control_c, 7, 7, 88
10, 281792, Control_c, 7, 7, 89
10, 281891, Control_c, 7, 7, 90
10, 281989, Control_c, 7, 7, 91
10, 282088, Control_c, 7, 7, 92
10, 282187, Control_c, 7, 7, 93
10, 282285, Control_c, 7, 7, 94
10, 282384, Control_c, 7, 7, 95
10, 282483, Control_c, 7, 7, 96
10, 282581, Control_c, 7, 7, 97
10, 282680, Control_c, 7, 7, 98
10, 282779, Control_c, 7, 7, 99
10, 282877, Control_c, 7, 7, 100
10, 282976, Control_c, 7, 7, 101
10, 283075, Control_c, 7, 7, 102
10, 283173, Control_c, 7, 7, 103
10, 283272, Control_c, 7, 7, 104
10, 283371, Control_c, 7, 7, 105
10, 283469, Control_c, 7, 7, 106
10, 283568, Control_c, 7, 7, 107
10, 283667, Control_c, 7, 7, 108
10, 283765, Control_c, 7, 7, 109
10, 283864, Control_c, 7, 7, 110
10, 283963, Control_c, 7, 7, 111
10, 284061, Control_c, 7, 7, 112
10, 284160, Control_c, 7, 7, 113
10, 284259, Control_c, 7, 7, 114
10, 284357, Control_c, 7, 7, 115
10, 284456, Control_c, 7, 7, 116
10, 284555, Control_c, 7, 7, 117
10, 284653, Control_c, 7, 7, 118
10, 284752, Control_c, 7, 7, 119
10, 284851, Control_c, 7, 7, 120
10, 284949, Control_c, 7, 7, 121
10, 285048, Control_c, 7, 7, 122
10, 285147, Control_c, 7, 7, 123
10, 285245, Control_c, 7, 7, 124
10, 286720, Note_on_c, 7, 72, 0
10, 286720, Note_on_c, 7, 71, 82
10, 287744, Note_on_c, 7, 71, 0
10, 287744, Note_on_c, 7, 69, 75
10, 288768, Note_on_c, 7, 69, 0
10, 288768, Note_on_c, 7, 71, 68
10, 290816, Note_on_c, 7, 71, 0
10, 292864, Note_on_c, 7, 64, 66
10, 294912, Note_on_c, 7, 64, 0
10, 294912, Note_on_c, 7, 66, 68
10, 296960, Note_on_c, 7, 66, 0
10, 296960, Note_on_c, 7, 67, 71
10, 299008, Note_on_c, 7, 67, 0
10, 299008, Note_on_c, 7, 66, 74
10, 300032, Note_on_c, 7, 66, 0
10, 300032, Note_on_c, 7, 67, 75
10, 301056, Note_on_c, 7, 67, 0
10, 301056, Note_on_c, 7, 69, 76
10, 303104, Note_on_c, 7, 69, 0
10, 303104, Note_on_c, 7, 68, 79
10, 303491, Control_c, 7, 7, 123
10, 303784, Control_c, 7, 7, 122
10, 304076, Control_c, 7, 7, 121
10, 304369, Control_c, 7, 7, 120
10, 304661, Control_c, 7, 7, 119
10, 304954, Control_c, 7, 7, 118
10, 305152, Note_on_c, 7, 68, 0
10, 305152, Note_on_c, 7, 69, 76
10, 305246, Control_c, 7, 7, 117
10, 305539, Control_c, 7, 7, 116
10, 305832, Control_c, 7, 7, 115
10, 306124, Control_c, 7, 7, 114
10, 306417, Control_c, 7, 7, 113
10, 306709, Control_c, 7, 7, 112
10, 306790, Note_on_c, 7, 69, 0
10, 307002, Control_c, 7, 7, 111
10, 307200, Note_on_c, 7, 67, 73
10, 307294, Control_c, 7, 7, 110
10, 307587, Control_c, 7, 7, 109
10, 307880, Control_c, 7, 7, 108
10, 308172, Control_c, 7, 7, 107
10, 308465, Control_c, 7, 7, 106
10, 308757, Control_c, 7, 7, 105
10, 309050, Control_c, 7, 7, 104
10, 309248, Note_on_c, 7, 67, 0
10, 309248, Note_on_c, 7, 66, 71
10, 309342, Control_c, 7, 7, 103
10, 309635, Control_c, 7, 7, 102
10, 309928, Control_c, 7, 7, 101
10, 310220, Control_c, 7, 7, 100
10, 310513, Control_c, 7, 7, 99
10, 310805, Control_c, 7, 7, 98
10, 311098, Control_c, 7, 7, 97
10, 311296, Note_on_c, 7, 66, 0
10, 311296, Note_on_c, 7, 65, 69
10, 311390, Control_c, 7, 7, 96
10, 311683, Control_c, 7, 7, 95
10, 311976, Control_c, 7, 7, 94
10, 312268, Control_c, 7, 7, 93
10, 312561, Control_c, 7, 7, 92
10, 312853, Control_c, 7, 7, 91
10, 313146, Control_c, 7, 7, 90
10, 313344, Note_on_c, 7, 65, 0
10, 313344, Note_on_c, 7, 65, 67
10, 313438, Control_c, 7, 7, 89
10, 313731, Control_c, 7, 7, 88
10, 314024, Control_c, 7, 7, 87
10, 314316, Control_c, 7, 7, 86
10, 314609, Control_c, 7, 7, 85
10, 314901, Control_c, 7, 7, 84
10, 315194, Control_c, 7, 7, 83
10, 315392, Note_on_c, 7, 65, 0
10, 315392, Note_on_c, 7, 64, 64
10, 315486, Control_c, 7, 7, 82
10, 319488, Note_on_c, 7, 64, 0
10, 319488, Note_on_c, 7, 64, 61
10, 323584, Note_on_c, 7, 64, 0
10, 323584, Note_on_c, 7, 63, 62
10, 327680, Note_on_c, 7, 63, 0
10, 327680, Note_on_c, 7, 64, 63
10, 329318, Note_on_c, 7, 64, 0
10, 329728, Note_on_c, 7, 66, 64
10, 331776, Note_on_c, 7, 66, 0
10, 331776, Note_on_c, 7, 70, 64
10, 333824, Note_on_c, 7, 70, 0
10, 333824, Note_on_c, 7, 71, 65
10, 335872, Note_on_c, 7, 71, 0
10, 335872, Note_on_c, 7, 64, 66
10, 337510, Note_on_c, 7, 64, 0
10, 337920, Note_on_c, 7, 68, 66
10, 339968, Note_on_c, 7, 68, 0
10, 339968, Note_on_c, 7, 69, 67
10, 341992, Control_c, 7, 7, 81
10, 342016, Note_on_c, 7, 69, 0
10, 342016, Note_on_c, 7, 69, 67
10, 342385, Control_c, 7, 7, 80
10, 342779, Control_c, 7, 7, 79
10, 343172, Control_c, 7, 7, 78
10, 343566, Control_c, 7, 7, 77
10, 343959, Control_c, 7, 7, 76
10, 344353, Control_c, 7, 7, 75
10, 344746, Control_c, 7, 7, 74
10, 345140, Control_c, 7, 7, 73
10, 345533, Control_c, 7, 7, 72
10, 345927, Control_c, 7, 7, 71
10, 346320, Control_c, 7, 7, 70
10, 346714, Control_c, 7, 7, 69
10, 347107, Control_c, 7, 7, 68
10, 347501, Control_c, 7, 7, 67
10, 347894, Control_c, 7, 7, 66
10, 348160, Note_on_c, 7, 69, 0
10, 348160, Note_on_c, 7, 69, 63
10, 348288, Control_c, 7, 7, 65
10, 348681, Control_c, 7, 7, 64
10, 349075, Control_c, 7, 7, 63
10, 349468, Control_c, 7, 7, 62
10, 349862, Control_c, 7, 7, 61
10, 350255, Control_c, 7, 7, 60
10, 350649, Control_c, 7, 7, 59
10, 351042, Control_c, 7, 7, 58
10, 351436, Control_c, 7, 7, 57
10, 351829, Control_c, 7, 7, 56
10, 352222, Control_c, 7, 7, 55
10, 352256, Note_on_c, 7, 69, 0
10, 352256, Note_on_c, 7, 67, 57
10, 353894, Note_on_c, 7, 67, 0
10, 354304, Note_on_c, 7, 72, 63
10, 354398, Control_c, 7, 7, 53
10, 354602, Control_c, 7, 7, 54
10, 354806, Control_c, 7, 7, 55
10, 355009, Control_c, 7, 7, 56
10, 355213, Control_c, 7, 7, 57
10, 355417, Control_c, 7, 7, 58
10, 355620, Control_c, 7, 7, 59
10, 355824, Control_c, 7, 7, 60
10, 356028, Control_c, 7, 7, 61
10, 356231, Control_c, 7, 7, 62
10, 356435, Control_c, 7, 7, 63
10, 356638, Control_c, 7, 7, 64
10, 356842, Control_c, 7, 7, 65
10, 357046, Control_c, 7, 7, 66
10, 357249, Control_c, 7, 7, 67
10, 357453, Control_c, 7, 7, 68
10, 357657, Control_c, 7, 7, 69
10, 357860, Control_c, 7, 7, 70
10, 358064, Control_c, 7, 7, 71
10, 358268, Control_c, 7, 7, 72
10, 358471, Control_c, 7, 7, 73
10, 358675, Control_c, 7, 7, 74
10, 358878, Control_c, 7, 7, 75
10, 358936, Control_c, 7, 7, 79
10, 359095, Control_c, 7, 7, 80
10, 359253, Control_c, 7, 7, 81
10, 359411, Control_c, 7, 7, 82
10, 359570, Control_c, 7, 7, 83
10, 359728, Control_c, 7, 7, 84
10, 359886, Control_c, 7, 7, 85
10, 360045, Control_c, 7, 7, 86
10, 360203, Control_c, 7, 7, 87
10, 360361, Control_c, 7, 7, 88
10, 360448, Note_on_c, 7, 72, 0
10, 360448, Note_on_c, 7, 71, 63
10, 360520, Control_c, 7, 7, 89
10, 360678, Control_c, 7, 7, 90
10, 360836, Control_c, 7, 7, 91
10, 360995, Control_c, 7, 7, 92
10, 361153, Control_c, 7, 7, 93
10, 361311, Control_c, 7, 7, 94
10, 361469, Control_c, 7, 7, 95
10, 361628, Control_c, 7, 7, 96
10, 361786, Control_c, 7, 7, 97
10, 361944, Control_c, 7, 7, 98
10, 362103, Control_c, 7, 7, 99
10, 362261, Control_c, 7, 7, 100
10, 362419, Control_c, 7, 7, 101
10, 362496, Note_on_c, 7, 71, 0
10, 362496, Note_on_c, 7, 71, 63
10, 362578, Control_c, 7, 7, 102
10, 362736, Control_c, 7, 7, 103
10, 362894, Control_c, 7, 7, 104
10, 363053, Control_c, 7, 7, 105
10, 363211, Control_c, 7, 7, 106
10, 363369, Control_c, 7, 7, 107
10, 363528, Control_c, 7, 7, 108
10, 363686, Control_c, 7, 7, 109
10, 363844, Control_c, 7, 7, 110
10, 364003, Control_c, 7, 7, 111
10, 364161, Control_c, 7, 7, 112
10, 364319, Control_c, 7, 7, 113
10, 364477, Control_c, 7, 7, 114
10, 364544, Note_on_c, 7, 71, 0
10, 364544, Note_on_c, 7, 76, 63
10, 365568, Note_on_c, 7, 76, 0
10, 365568, Note_on_c, 7, 64, 63
10, 366592, Note_on_c, 7, 64, 0
10, 366592, Note_on_c, 7, 69, 63
10, 369664, Note_on_c, 7, 69, 0
10, 369664, Note_on_c, 7, 69, 63
10, 370564, Control_c, 7, 7, 113
10, 370688, Note_on_c, 7, 69, 0
10, 370688, Note_on_c, 7, 71, 63
10, 370762, Control_c, 7, 7, 112
10, 370960, Control_c, 7, 7, 111
10, 371158, Control_c, 7, 7, 110
10, 371356, Control_c, 7, 7, 109
10, 371555, Control_c, 7, 7, 108
10, 371753, Control_c, 7, 7, 107
10, 371951, Control_c, 7, 7, 106
10, 372149, Control_c, 7, 7, 105
10, 372347, Control_c, 7, 7, 104
10, 372546, Control_c, 7, 7, 103
10, 372744, Control_c, 7, 7, 102
10, 372942, Control_c, 7, 7, 101
10, 373140, Control_c, 7, 7, 100
10, 373338, Control_c, 7, 7, 99
10, 373537, Control_c, 7, 7, 98
10, 373735, Control_c, 7, 7, 97
10, 373933, Control_c, 7, 7, 96
10, 374131, Control_c, 7, 7, 95
10, 374329, Control_c, 7, 7, 94
10, 374528, Control_c, 7, 7, 93
10, 374726, Control_c, 7, 7, 92
10, 374924, Control_c, 7, 7, 91
10, 375122, Control_c, 7, 7, 90
10, 375320, Control_c, 7, 7, 89
10, 375519, Control_c, 7, 7, 88
10, 375717, Control_c, 7, 7, 87
10, 375915, Control_c, 7, 7, 86
10, 376113, Control_c, 7, 7, 85
10, 376311, Control_c, 7, 7, 84
10, 376509, Control_c, 7, 7, 83
10, 376832, Note_on_c, 7, 71, 0
10, 377917, Control_c, 7, 7, 126
10, 378880, Note_on_c, 7, 72, 68
10, 385024, Note_on_c, 7, 72, 0
10, 385024, Note_on_c, 7, 70, 62
10, 387072, Note_on_c, 7, 70, 0
10, 387072, Note_on_c, 7, 71, 61
10, 389120, Note_on_c, 7, 71, 0
10, 389120, Note_on_c, 7, 68, 66
10, 391168, Note_on_c, 7, 68, 0
10, 391168, Note_on_c, 7, 69, 71
10, 392192, Note_on_c, 7, 69, 0
10, 392192, Note_on_c, 7, 72, 73
10, 393011, Note_on_c, 7, 72, 0
10, 393216, Note_on_c, 7, 71, 75
10, 394240, Note_on_c, 7, 71, 0
10, 394240, Note_on_c, 7, 69, 78
10, 395264, Note_on_c, 7, 69, 0
10, 395264, Note_on_c, 7, 74, 80
10, 397312, Note_on_c, 7, 74, 0
10, 397312, Note_on_c, 7, 69, 77
10, 399360, Note_on_c, 7, 69, 0
10, 399360, Note_on_c, 7, 74, 75
10, 400384, Note_on_c, 7, 74, 0
10, 400384, Note_on_c, 7, 69, 74
10, 401408, Note_on_c, 7, 69, 0
10, 401408, Note_on_c, 7, 71, 73
10, 405504, Note_on_c, 7, 71, 0
10, 405504, Note_on_c, 7, 71, 69
10, 407552, Note_on_c, 7, 71, 0
10, 408576, Note_on_c, 7, 69, 62
10, 409600, Note_on_c, 7, 69, 0
10, 409600, Note_on_c, 7, 71, 66
10, 410624, Note_on_c, 7, 71, 0
10, 410624, Note_on_c, 7, 72, 70
10, 411648, Note_on_c, 7, 72, 0
10, 411648, Note_on_c, 7, 74, 74
10, 412672, Note_on_c, 7, 74, 0
10, 412672, Note_on_c, 7, 71, 78
10, 413696, Note_on_c, 7, 71, 0
10, 413696, Note_on_c, 7, 76, 82
10, 414141, Control_c, 7, 7, 127
10, 414325, Control_c, 7, 7, 126
10, 414508, Control_c, 7, 7, 125
10, 414692, Control_c, 7, 7, 124
10, 414875, Control_c, 7, 7, 123
10, 415059, Control_c, 7, 7, 122
10, 415242, Control_c, 7, 7, 121
10, 415426, Control_c, 7, 7, 120
10, 415609, Control_c, 7, 7, 119
10, 415793, Control_c, 7, 7, 118
10, 415976, Control_c, 7, 7, 117
10, 416160, Control_c, 7, 7, 116
10, 416343, Control_c, 7, 7, 115
10, 416527, Control_c, 7, 7, 114
10, 416710, Control_c, 7, 7, 113
10, 416893, Control_c, 7, 7, 112
10, 417077, Control_c, 7, 7, 111
10, 417260, Control_c, 7, 7, 110
10, 417444, Control_c, 7, 7, 109
10, 417627, Control_c, 7, 7, 108
10, 417811, Control_c, 7, 7, 107
10, 417994, Control_c, 7, 7, 106
10, 418178, Control_c, 7, 7, 105
10, 418361, Control_c, 7, 7, 104
10, 418545, Control_c, 7, 7, 103
10, 418728, Control_c, 7, 7, 102
10, 418912, Control_c, 7, 7, 101
10, 419095, Control_c, 7, 7, 100
10, 419279, Control_c, 7, 7, 99
10, 419462, Control_c, 7, 7, 98
10, 419645, Control_c, 7, 7, 97
10, 419829, Control_c, 7, 7, 96
10, 420012, Control_c, 7, 7, 95
10, 420196, Control_c, 7, 7, 94
10, 420379, Control_c, 7, 7, 93
10, 420563, Control_c, 7, 7, 92
10, 420746, Control_c, 7, 7, 91
10, 420930, Control_c, 7, 7, 90
10, 421113, Control_c, 7, 7, 89
10, 421297, Control_c, 7, 7, 88
10, 421480, Control_c, 7, 7, 87
10, 421664, Control_c, 7, 7, 86
10, 421847, Control_c, 7, 7, 85
10, 421888, Note_on_c, 7, 76, 0
10, 421888, Note_on_c, 7, 74, 69
10, 422031, Control_c, 7, 7, 84
10, 422214, Control_c, 7, 7, 83
10, 422397, Control_c, 7, 7, 82
10, 422581, Control_c, 7, 7, 81
10, 422764, Control_c, 7, 7, 80
10, 422948, Control_c, 7, 7, 79
10, 423131, Control_c, 7, 7, 78
10, 423315, Control_c, 7, 7, 77
10, 423498, Control_c, 7, 7, 76
10, 423682, Control_c, 7, 7, 75
10, 423865, Control_c, 7, 7, 74
10, 423936, Note_on_c, 7, 74, 0
10, 423936, Note_on_c, 7, 71, 64
10, 424049, Control_c, 7, 7, 73
10, 424232, Control_c, 7, 7, 72
10, 424416, Control_c, 7, 7, 71
10, 424599, Control_c, 7, 7, 70
10, 424783, Control_c, 7, 7, 69
10, 424966, Control_c, 7, 7, 68
10, 425149, Control_c, 7, 7, 67
10, 425574, Note_on_c, 7, 71, 0
10, 425984, Note_on_c, 7, 72, 60
10, 427451, Control_c, 7, 7, 66
10, 428728, Control_c, 7, 7, 65
10, 430005, Control_c, 7, 7, 64
10, 431282, Control_c, 7, 7, 63
10, 432559, Control_c, 7, 7, 62
10, 433836, Control_c, 7, 7, 61
10, 434176, Note_on_c, 7, 72, 0
10, 434176, Note_on_c, 7, 71, 84
10, 435113, Control_c, 7, 7, 60
10, 435200, Note_on_c, 7, 71, 0
10, 435200, Note_on_c, 7, 69, 84
10, 436224, Note_on_c, 7, 69, 0
10, 436224, Note_on_c, 7, 71, 84
10, 436390, Control_c, 7, 7, 59
10, 437667, Control_c, 7, 7, 58
10, 438944, Control_c, 7, 7, 57
10, 440221, Control_c, 7, 7, 56
10, 440320, Note_on_c, 7, 71, 0
10, 440320, Note_on_c, 7, 69, 84
10, 441498, Control_c, 7, 7, 55
10, 441958, Note_on_c, 7, 69, 0
10, 442368, Note_on_c, 7, 66, 84
10, 442775, Control_c, 7, 7, 54
10, 444052, Control_c, 7, 7, 53
10, 444416, Note_on_c, 7, 66, 0
10, 444416, Note_on_c, 7, 67, 84
10, 445329, Control_c, 7, 7, 52
10, 445440, Note_on_c, 7, 67, 0
10, 445440, Note_on_c, 7, 69, 84
10, 446464, Note_on_c, 7, 69, 0
10, 446464, Note_on_c, 7, 66, 84
10, 446606, Control_c, 7, 7, 51
10, 447883, Control_c, 7, 7, 50
10, 449160, Control_c, 7, 7, 49
10, 449536, Note_on_c, 7, 66, 0
10, 449536, Note_on_c, 7, 64, 84
10, 450437, Control_c, 7, 7, 48
10, 450560, Note_on_c, 7, 64, 0
10, 450560, Note_on_c, 7, 64, 84
10, 451714, Control_c, 7, 7, 47
10, 452991, Control_c, 7, 7, 46
10, 453837, Note_on_c, 7, 64, 0
10, 454268, Control_c, 7, 7, 45
10, 454656, Note_on_c, 7, 67, 84
10, 455545, Control_c, 7, 7, 44
10, 456704, Note_on_c, 7, 67, 0
10, 456704, Note_on_c, 7, 66, 84
10, 456822, Control_c, 7, 7, 43
10, 458099, Control_c, 7, 7, 42
10, 459376, Control_c, 7, 7, 41
10, 460653, Control_c, 7, 7, 40
10, 460800, Note_on_c, 7, 66, 0
10, 460800, Note_on_c, 7, 65, 84
10, 461930, Control_c, 7, 7, 39
10, 462848, Note_on_c, 7, 65, 0
10, 462848, Note_on_c, 7, 64, 84
10, 463207, Control_c, 7, 7, 38
10, 464484, Control_c, 7, 7, 37
10, 465761, Control_c, 7, 7, 36
10, 466944, Note_on_c, 7, 64, 0
10, 466944, Note_on_c, 7, 63, 84
10, 467038, Control_c, 7, 7, 35
10, 468315, Control_c, 7, 7, 34
10, 468992, Note_on_c, 7, 63, 0
10, 468992, Note_on_c, 7, 62, 84
10, 469592, Control_c, 7, 7, 33
10, 470869, Control_c, 7, 7, 32
10, 471040, Note_on_c, 7, 62, 0
10, 471040, Note_on_c, 7, 60, 84
10, 472064, Note_on_c, 7, 60, 0
10, 472064, Note_on_c, 7, 59, 84
10, 472146, Control_c, 7, 7, 31
10, 473088, Note_on_c, 7, 59, 0
10, 473088, Note_on_c, 7, 60, 84
10, 473423, Control_c, 7, 7, 30
10, 474700, Control_c, 7, 7, 29
10, 475136, Note_on_c, 7, 60, 0
10, 475136, Note_on_c, 7, 59, 84
10, 475977, Control_c, 7, 7, 28
10, 477254, Control_c, 7, 7, 27
10, 478531, Control_c, 7, 7, 26
10, 479808, Control_c, 7, 7, 25
10, 481085, Control_c, 7, 7, 24
10, 481280, Note_on_c, 7, 59, 0
10, 487424, End_track
11, 0, Start_track
11, 0, Title_t, "Alto"
11, 0, Program_c, 8, 53
11, 0, Control_c, 8, 121, 127
11, 0, Control_c, 8, 91, 127
11, 0, Control_c, 8, 10, 60
11, 0, Control_c, 8, 1, 25
11, 8192, Control_c, 8, 7, 80
11, 11264, Note_on_c, 8, 71, 80
11, 12288, Note_on_c, 8, 71, 0
11, 12288, Note_on_c, 8, 66, 80
11, 13312, Note_on_c, 8, 66, 0
11, 13312, Note_on_c, 8, 62, 80
11, 14336, Note_on_c, 8, 62, 0
11, 14336, Note_on_c, 8, 59, 80
11, 16384, Note_on_c, 8, 59, 0
11, 16384, Note_on_c, 8, 59, 80
11, 17408, Note_on_c, 8, 59, 0
11, 17408, Note_on_c, 8, 61, 80
11, 18432, Note_on_c, 8, 61, 0
11, 18432, Note_on_c, 8, 61, 80
11, 19456, Note_on_c, 8, 61, 0
11, 19456, Note_on_c, 8, 64, 80
11, 20480, Note_on_c, 8, 64, 0
11, 20480, Note_on_c, 8, 67, 80
11, 21504, Note_on_c, 8, 67, 0
11, 21504, Note_on_c, 8, 66, 80
11, 22528, Note_on_c, 8, 66, 0
11, 22528, Note_on_c, 8, 64, 80
11, 23552, Note_on_c, 8, 64, 0
11, 23552, Note_on_c, 8, 66, 80
11, 24371, Note_on_c, 8, 66, 0
11, 24576, Note_on_c, 8, 71, 80
11, 25600, Note_on_c, 8, 71, 0
11, 25600, Note_on_c, 8, 66, 80
11, 26624, Note_on_c, 8, 66, 0
11, 26624, Note_on_c, 8, 63, 80
11, 28672, Note_on_c, 8, 63, 0
11, 28672, Note_on_c, 8, 60, 80
11, 29696, Note_on_c, 8, 60, 0
11, 29696, Note_on_c, 8, 61, 80
11, 30088, Control_c, 8, 7, 82
11, 30480, Control_c, 8, 7, 84
11, 30873, Control_c, 8, 7, 86
11, 31265, Control_c, 8, 7, 88
11, 31334, Note_on_c, 8, 61, 0
11, 31657, Control_c, 8, 7, 90
11, 31744, Note_on_c, 8, 61, 80
11, 32049, Control_c, 8, 7, 92
11, 32441, Control_c, 8, 7, 94
11, 32768, Note_on_c, 8, 61, 0
11, 32768, Note_on_c, 8, 61, 80
11, 32833, Control_c, 8, 7, 96
11, 33226, Control_c, 8, 7, 98
11, 33618, Control_c, 8, 7, 100
11, 33792, Note_on_c, 8, 61, 0
11, 33792, Note_on_c, 8, 65, 80
11, 34010, Control_c, 8, 7, 102
11, 34402, Control_c, 8, 7, 104
11, 34794, Control_c, 8, 7, 106
11, 34816, Note_on_c, 8, 65, 0
11, 34816, Note_on_c, 8, 66, 80
11, 35186, Control_c, 8, 7, 108
11, 35579, Control_c, 8, 7, 110
11, 35971, Control_c, 8, 7, 112
11, 36363, Control_c, 8, 7, 114
11, 36755, Control_c, 8, 7, 116
11, 36864, Note_on_c, 8, 66, 0
11, 36864, Note_on_c, 8, 69, 80
11, 37147, Control_c, 8, 7, 118
11, 37539, Control_c, 8, 7, 120
11, 37888, Note_on_c, 8, 69, 0
11, 37888, Note_on_c, 8, 68, 80
11, 37932, Control_c, 8, 7, 122
11, 38324, Control_c, 8, 7, 124
11, 38400, Note_on_c, 8, 68, 0
11, 38400, Note_on_c, 8, 66, 80
11, 38716, Control_c, 8, 7, 126
11, 38912, Note_on_c, 8, 66, 0
11, 38912, Note_on_c, 8, 68, 80
11, 39731, Note_on_c, 8, 68, 0
11, 39805, Control_c, 8, 7, 80
11, 43008, Note_on_c, 8, 61, 80
11, 44032, Note_on_c, 8, 61, 0
11, 44032, Note_on_c, 8, 61, 80
11, 45056, Note_on_c, 8, 61, 0
11, 45056, Note_on_c, 8, 61, 80
11, 47104, Note_on_c, 8, 61, 0
11, 47104, Note_on_c, 8, 61, 80
11, 48128, Note_on_c, 8, 61, 0
11, 48128, Note_on_c, 8, 63, 80
11, 49152, Note_on_c, 8, 63, 0
11, 49152, Note_on_c, 8, 62, 80
11, 50176, Note_on_c, 8, 62, 0
11, 50176, Note_on_c, 8, 62, 80
11, 51200, Note_on_c, 8, 62, 0
11, 51200, Note_on_c, 8, 61, 80
11, 52019, Note_on_c, 8, 61, 0
11, 52224, Note_on_c, 8, 66, 80
11, 53248, Note_on_c, 8, 66, 0
11, 53248, Note_on_c, 8, 65, 80
11, 54272, Note_on_c, 8, 65, 0
11, 54272, Note_on_c, 8, 71, 80
11, 55296, Note_on_c, 8, 71, 0
11, 55296, Note_on_c, 8, 69, 80
11, 56320, Note_on_c, 8, 69, 0
11, 56320, Note_on_c, 8, 66, 80
11, 57344, Note_on_c, 8, 66, 0
11, 57344, Note_on_c, 8, 65, 80
11, 59392, Note_on_c, 8, 65, 0
11, 59392, Note_on_c, 8, 65, 80
11, 60355, Control_c, 8, 7, 127
11, 60416, Note_on_c, 8, 65, 0
11, 60416, Note_on_c, 8, 66, 80
11, 60701, Control_c, 8, 7, 126
11, 60778, Control_c, 8, 7, 125
11, 60835, Control_c, 8, 7, 124
11, 60893, Control_c, 8, 7, 123
11, 60951, Control_c, 8, 7, 122
11, 60989, Control_c, 8, 7, 121
11, 61027, Control_c, 8, 7, 120
11, 61066, Control_c, 8, 7, 119
11, 61104, Control_c, 8, 7, 118
11, 61143, Control_c, 8, 7, 117
11, 61181, Control_c, 8, 7, 116
11, 61219, Control_c, 8, 7, 115
11, 61258, Control_c, 8, 7, 114
11, 61277, Control_c, 8, 7, 113
11, 61315, Control_c, 8, 7, 112
11, 61335, Control_c, 8, 7, 111
11, 61373, Control_c, 8, 7, 110
11, 61392, Control_c, 8, 7, 109
11, 61431, Control_c, 8, 7, 108
11, 61450, Control_c, 8, 7, 107
11, 61469, Control_c, 8, 7, 106
11, 61507, Control_c, 8, 7, 105
11, 61527, Control_c, 8, 7, 104
11, 61546, Control_c, 8, 7, 103
11, 61565, Control_c, 8, 7, 102
11, 61584, Control_c, 8, 7, 101
11, 61623, Control_c, 8, 7, 100
11, 61642, Control_c, 8, 7, 99
11, 61661, Control_c, 8, 7, 98
11, 61680, Control_c, 8, 7, 97
11, 61699, Control_c, 8, 7, 96
11, 61719, Control_c, 8, 7, 95
11, 61738, Control_c, 8, 7, 94
11, 61757, Control_c, 8, 7, 93
11, 61776, Control_c, 8, 7, 92
11, 61795, Control_c, 8, 7, 91
11, 61815, Control_c, 8, 7, 90
11, 61834, Control_c, 8, 7, 89
11, 61853, Control_c, 8, 7, 88
11, 61872, Control_c, 8, 7, 87
11, 61891, Control_c, 8, 7, 86
11, 61911, Control_c, 8, 7, 85
11, 61930, Control_c, 8, 7, 84
11, 61949, Control_c, 8, 7, 83
11, 61968, Control_c, 8, 7, 82
11, 61987, Control_c, 8, 7, 81
11, 62007, Control_c, 8, 7, 80
11, 62026, Control_c, 8, 7, 79
11, 62045, Control_c, 8, 7, 77
11, 62064, Control_c, 8, 7, 76
11, 62083, Control_c, 8, 7, 75
11, 62103, Control_c, 8, 7, 74
11, 62122, Control_c, 8, 7, 73
11, 62141, Control_c, 8, 7, 71
11, 62160, Control_c, 8, 7, 70
11, 62179, Control_c, 8, 7, 69
11, 62199, Control_c, 8, 7, 68
11, 62218, Control_c, 8, 7, 66
11, 62237, Control_c, 8, 7, 65
11, 62256, Control_c, 8, 7, 64
11, 62275, Control_c, 8, 7, 62
11, 62339, Control_c, 8, 7, 51
11, 62464, Note_on_c, 8, 66, 0
11, 63082, Control_c, 8, 7, 50
11, 63389, Control_c, 8, 7, 49
11, 63619, Control_c, 8, 7, 48
11, 72704, Note_on_c, 8, 69, 80
11, 73728, Note_on_c, 8, 69, 0
11, 73728, Note_on_c, 8, 66, 80
11, 74752, Note_on_c, 8, 66, 0
11, 74752, Note_on_c, 8, 62, 80
11, 75776, Note_on_c, 8, 62, 0
11, 75776, Note_on_c, 8, 59, 80
11, 79872, Note_on_c, 8, 59, 0
11, 79872, Note_on_c, 8, 56, 80
11, 81920, Control_c, 8, 7, 80
11, 81920, Note_on_c, 8, 56, 0
11, 81920, Note_on_c, 8, 54, 80
11, 82443, Control_c, 8, 7, 82
11, 82739, Note_on_c, 8, 54, 0
11, 82944, Note_on_c, 8, 61, 80
11, 82966, Control_c, 8, 7, 84
11, 83489, Control_c, 8, 7, 86
11, 83968, Note_on_c, 8, 61, 0
11, 83968, Note_on_c, 8, 66, 80
11, 84012, Control_c, 8, 7, 88
11, 84534, Control_c, 8, 7, 90
11, 84992, Note_on_c, 8, 66, 0
11, 84992, Note_on_c, 8, 66, 80
11, 85057, Control_c, 8, 7, 92
11, 85580, Control_c, 8, 7, 94
11, 86016, Note_on_c, 8, 66, 0
11, 86016, Note_on_c, 8, 69, 80
11, 86103, Control_c, 8, 7, 96
11, 86626, Control_c, 8, 7, 98
11, 87040, Note_on_c, 8, 69, 0
11, 87040, Note_on_c, 8, 67, 80
11, 87149, Control_c, 8, 7, 100
11, 87672, Control_c, 8, 7, 102
11, 88064, Note_on_c, 8, 67, 0
11, 88064, Note_on_c, 8, 67, 80
11, 88195, Control_c, 8, 7, 104
11, 88718, Control_c, 8, 7, 106
11, 89241, Control_c, 8, 7, 108
11, 89600, Note_on_c, 8, 67, 0
11, 89600, Note_on_c, 8, 66, 80
11, 89763, Control_c, 8, 7, 110
11, 90112, Note_on_c, 8, 66, 0
11, 90112, Note_on_c, 8, 64, 80
11, 90286, Control_c, 8, 7, 112
11, 90624, Note_on_c, 8, 64, 0
11, 90624, Note_on_c, 8, 62, 80
11, 90809, Control_c, 8, 7, 114
11, 91136, Note_on_c, 8, 62, 0
11, 91136, Note_on_c, 8, 61, 80
11, 91332, Control_c, 8, 7, 116
11, 91855, Control_c, 8, 7, 118
11, 92160, Note_on_c, 8, 61, 0
11, 92160, Note_on_c, 8, 64, 80
11, 92378, Control_c, 8, 7, 120
11, 92901, Control_c, 8, 7, 122
11, 93184, Note_on_c, 8, 64, 0
11, 93184, Note_on_c, 8, 66, 80
11, 93424, Control_c, 8, 7, 124
11, 93947, Control_c, 8, 7, 126
11, 94208, Control_c, 8, 7, 127
11, 94339, Control_c, 8, 7, 125
11, 94469, Control_c, 8, 7, 123
11, 94600, Control_c, 8, 7, 121
11, 94731, Control_c, 8, 7, 119
11, 94862, Control_c, 8, 7, 117
11, 94992, Control_c, 8, 7, 115
11, 95123, Control_c, 8, 7, 113
11, 95232, Note_on_c, 8, 66, 0
11, 95232, Note_on_c, 8, 68, 80
11, 95254, Control_c, 8, 7, 111
11, 95385, Control_c, 8, 7, 109
11, 95515, Control_c, 8, 7, 107
11, 95646, Control_c, 8, 7, 105
11, 95777, Control_c, 8, 7, 103
11, 95907, Control_c, 8, 7, 101
11, 96038, Control_c, 8, 7, 99
11, 96169, Control_c, 8, 7, 97
11, 96300, Control_c, 8, 7, 95
11, 96430, Control_c, 8, 7, 93
11, 96561, Control_c, 8, 7, 91
11, 96692, Control_c, 8, 7, 89
11, 96822, Control_c, 8, 7, 87
11, 96953, Control_c, 8, 7, 85
11, 97084, Control_c, 8, 7, 83
11, 97215, Control_c, 8, 7, 81
11, 97280, Note_on_c, 8, 68, 0
11, 97280, Note_on_c, 8, 61, 80
11, 98099, Note_on_c, 8, 61, 0
11, 98304, Note_on_c, 8, 61, 80
11, 99328, Note_on_c, 8, 61, 0
11, 99328, Note_on_c, 8, 61, 80
11, 100352, Note_on_c, 8, 61, 0
11, 100352, Note_on_c, 8, 62, 80
11, 102400, Note_on_c, 8, 62, 0
11, 102400, Note_on_c, 8, 59, 80
11, 103424, Control_c, 8, 7, 80
11, 103424, Note_on_c, 8, 59, 0
11, 103424, Note_on_c, 8, 66, 80
11, 103731, Control_c, 8, 7, 82
11, 104038, Control_c, 8, 7, 84
11, 104346, Control_c, 8, 7, 86
11, 104653, Control_c, 8, 7, 88
11, 104960, Control_c, 8, 7, 90
11, 105267, Control_c, 8, 7, 92
11, 105472, Note_on_c, 8, 66, 0
11, 105472, Note_on_c, 8, 66, 80
11, 105574, Control_c, 8, 7, 94
11, 105882, Control_c, 8, 7, 96
11, 106189, Control_c, 8, 7, 98
11, 106496, Note_on_c, 8, 66, 0
11, 106496, Note_on_c, 8, 64, 80
11, 107315, Note_on_c, 8, 64, 0
11, 107520, Note_on_c, 8, 67, 80
11, 108032, Note_on_c, 8, 67, 0
11, 108032, Note_on_c, 8, 66, 80
11, 108544, Note_on_c, 8, 66, 0
11, 108544, Note_on_c, 8, 67, 80
11, 109568, Note_on_c, 8, 67, 0
11, 109568, Note_on_c, 8, 66, 80
11, 111616, Note_on_c, 8, 66, 0
11, 111616, Note_on_c, 8, 64, 80
11, 112128, Note_on_c, 8, 64, 0
11, 112128, Note_on_c, 8, 62, 80
11, 112640, Note_on_c, 8, 62, 0
11, 112640, Note_on_c, 8, 61, 80
11, 113459, Note_on_c, 8, 61, 0
11, 113664, Note_on_c, 8, 66, 80
11, 114688, Note_on_c, 8, 66, 0
11, 114688, Note_on_c, 8, 71, 80
11, 115712, Control_c, 8, 7, 100
11, 115712, Note_on_c, 8, 71, 0
11, 115712, Note_on_c, 8, 66, 80
11, 115958, Control_c, 8, 7, 98
11, 116204, Control_c, 8, 7, 96
11, 116449, Control_c, 8, 7, 94
11, 116695, Control_c, 8, 7, 92
11, 116736, Note_on_c, 8, 66, 0
11, 116736, Note_on_c, 8, 66, 80
11, 116941, Control_c, 8, 7, 90
11, 117187, Control_c, 8, 7, 88
11, 117248, Note_on_c, 8, 66, 0
11, 117248, Note_on_c, 8, 62, 80
11, 117432, Control_c, 8, 7, 86
11, 117678, Control_c, 8, 7, 84
11, 117760, Note_on_c, 8, 62, 0
11, 117760, Note_on_c, 8, 64, 80
11, 117924, Control_c, 8, 7, 82
11, 118170, Control_c, 8, 7, 80
11, 118415, Control_c, 8, 7, 78
11, 118661, Control_c, 8, 7, 76
11, 118784, Note_on_c, 8, 64, 0
11, 118784, Note_on_c, 8, 62, 80
11, 119808, Note_on_c, 8, 62, 0
11, 124928, Control_c, 8, 7, 75
11, 125401, Control_c, 8, 7, 77
11, 125873, Control_c, 8, 7, 79
11, 126346, Control_c, 8, 7, 81
11, 126818, Control_c, 8, 7, 83
11, 127291, Control_c, 8, 7, 85
11, 127764, Control_c, 8, 7, 87
11, 128236, Control_c, 8, 7, 89
11, 128709, Control_c, 8, 7, 91
11, 129024, Note_on_c, 8, 66, 80
11, 129182, Control_c, 8, 7, 93
11, 129654, Control_c, 8, 7, 95
11, 130048, Note_on_c, 8, 66, 0
11, 130048, Note_on_c, 8, 67, 80
11, 130127, Control_c, 8, 7, 97
11, 130599, Control_c, 8, 7, 99
11, 131072, Control_c, 8, 7, 101
11, 131545, Control_c, 8, 7, 103
11, 132017, Control_c, 8, 7, 105
11, 132096, Note_on_c, 8, 67, 0
11, 132096, Note_on_c, 8, 68, 80
11, 132490, Control_c, 8, 7, 107
11, 132962, Control_c, 8, 7, 109
11, 133120, Note_on_c, 8, 68, 0
11, 133120, Note_on_c, 8, 69, 80
11, 133435, Control_c, 8, 7, 111
11, 133908, Control_c, 8, 7, 113
11, 134380, Control_c, 8, 7, 115
11, 134853, Control_c, 8, 7, 117
11, 135168, Note_on_c, 8, 69, 0
11, 135168, Note_on_c, 8, 70, 80
11, 135326, Control_c, 8, 7, 119
11, 135798, Control_c, 8, 7, 121
11, 136192, Note_on_c, 8, 70, 0
11, 136192, Note_on_c, 8, 71, 80
11, 136271, Control_c, 8, 7, 123
11, 136743, Control_c, 8, 7, 125
11, 137216, Note_on_c, 8, 71, 0
11, 139264, Note_on_c, 8, 64, 80
11, 140288, Note_on_c, 8, 64, 0
11, 140288, Note_on_c, 8, 67, 80
11, 141312, Note_on_c, 8, 67, 0
11, 141312, Note_on_c, 8, 71, 80
11, 142336, Note_on_c, 8, 71, 0
11, 142336, Note_on_c, 8, 67, 80
11, 143360, Note_on_c, 8, 67, 0
11, 143360, Note_on_c, 8, 64, 80
11, 144384, Note_on_c, 8, 64, 0
11, 144384, Note_on_c, 8, 67, 80
11, 145408, Note_on_c, 8, 67, 0
11, 145408, Note_on_c, 8, 64, 80
11, 146432, Control_c, 8, 7, 127
11, 146432, Note_on_c, 8, 64, 0
11, 146432, Note_on_c, 8, 61, 80
11, 146531, Control_c, 8, 7, 126
11, 146586, Control_c, 8, 7, 125
11, 146641, Control_c, 8, 7, 124
11, 146695, Control_c, 8, 7, 123
11, 146750, Control_c, 8, 7, 122
11, 146804, Control_c, 8, 7, 121
11, 146859, Control_c, 8, 7, 120
11, 146913, Control_c, 8, 7, 119
11, 146968, Control_c, 8, 7, 118
11, 147022, Control_c, 8, 7, 117
11, 147077, Control_c, 8, 7, 116
11, 147131, Control_c, 8, 7, 115
11, 147186, Control_c, 8, 7, 114
11, 147241, Control_c, 8, 7, 113
11, 147295, Control_c, 8, 7, 112
11, 147350, Control_c, 8, 7, 111
11, 147404, Control_c, 8, 7, 110
11, 147459, Control_c, 8, 7, 109
11, 147513, Control_c, 8, 7, 108
11, 147568, Control_c, 8, 7, 107
11, 147622, Control_c, 8, 7, 106
11, 147677, Control_c, 8, 7, 105
11, 147731, Control_c, 8, 7, 104
11, 147786, Control_c, 8, 7, 103
11, 147840, Control_c, 8, 7, 102
11, 147895, Control_c, 8, 7, 101
11, 147950, Control_c, 8, 7, 100
11, 148004, Control_c, 8, 7, 99
11, 148059, Control_c, 8, 7, 98
11, 148113, Control_c, 8, 7, 97
11, 148168, Control_c, 8, 7, 96
11, 148222, Control_c, 8, 7, 95
11, 148277, Control_c, 8, 7, 94
11, 148331, Control_c, 8, 7, 93
11, 148386, Control_c, 8, 7, 92
11, 148440, Control_c, 8, 7, 91
11, 148480, Note_on_c, 8, 61, 0
11, 148480, Note_on_c, 8, 61, 80
11, 148495, Control_c, 8, 7, 90
11, 148549, Control_c, 8, 7, 89
11, 148604, Control_c, 8, 7, 88
11, 148659, Control_c, 8, 7, 87
11, 148713, Control_c, 8, 7, 86
11, 148768, Control_c, 8, 7, 85
11, 148822, Control_c, 8, 7, 84
11, 148877, Control_c, 8, 7, 83
11, 148931, Control_c, 8, 7, 82
11, 148986, Control_c, 8, 7, 81
11, 149040, Control_c, 8, 7, 80
11, 149095, Control_c, 8, 7, 79
11, 149149, Control_c, 8, 7, 78
11, 149204, Control_c, 8, 7, 77
11, 149258, Control_c, 8, 7, 76
11, 149313, Control_c, 8, 7, 75
11, 149368, Control_c, 8, 7, 74
11, 149422, Control_c, 8, 7, 73
11, 149477, Control_c, 8, 7, 72
11, 149504, Note_on_c, 8, 61, 0
11, 149504, Note_on_c, 8, 54, 80
11, 149531, Control_c, 8, 7, 71
11, 149586, Control_c, 8, 7, 70
11, 149640, Control_c, 8, 7, 69
11, 149695, Control_c, 8, 7, 68
11, 149749, Control_c, 8, 7, 67
11, 149804, Control_c, 8, 7, 66
11, 149858, Control_c, 8, 7, 65
11, 149913, Control_c, 8, 7, 64
11, 149967, Control_c, 8, 7, 63
11, 150022, Control_c, 8, 7, 62
11, 150077, Control_c, 8, 7, 61
11, 150131, Control_c, 8, 7, 60
11, 150186, Control_c, 8, 7, 59
11, 150240, Control_c, 8, 7, 58
11, 150295, Control_c, 8, 7, 57
11, 150349, Control_c, 8, 7, 56
11, 150404, Control_c, 8, 7, 55
11, 150458, Control_c, 8, 7, 54
11, 150513, Control_c, 8, 7, 53
11, 150567, Control_c, 8, 7, 52
11, 150622, Control_c, 8, 7, 51
11, 150676, Control_c, 8, 7, 50
11, 150731, Control_c, 8, 7, 49
11, 150786, Control_c, 8, 7, 48
11, 150840, Control_c, 8, 7, 47
11, 150895, Control_c, 8, 7, 46
11, 150949, Control_c, 8, 7, 45
11, 151004, Control_c, 8, 7, 44
11, 151058, Control_c, 8, 7, 43
11, 151113, Control_c, 8, 7, 42
11, 151167, Control_c, 8, 7, 41
11, 151222, Control_c, 8, 7, 40
11, 151276, Control_c, 8, 7, 39
11, 151331, Control_c, 8, 7, 38
11, 151385, Control_c, 8, 7, 37
11, 151440, Control_c, 8, 7, 36
11, 151495, Control_c, 8, 7, 35
11, 151549, Control_c, 8, 7, 34
11, 151604, Control_c, 8, 7, 33
11, 151658, Control_c, 8, 7, 32
11, 151713, Control_c, 8, 7, 31
11, 151767, Control_c, 8, 7, 30
11, 151822, Control_c, 8, 7, 29
11, 151876, Control_c, 8, 7, 28
11, 151931, Control_c, 8, 7, 27
11, 151985, Control_c, 8, 7, 26
11, 152040, Control_c, 8, 7, 25
11, 152094, Control_c, 8, 7, 24
11, 152149, Control_c, 8, 7, 23
11, 152204, Control_c, 8, 7, 22
11, 152258, Control_c, 8, 7, 21
11, 152313, Control_c, 8, 7, 20
11, 152367, Control_c, 8, 7, 19
11, 152422, Control_c, 8, 7, 18
11, 152476, Control_c, 8, 7, 17
11, 152531, Control_c, 8, 7, 16
11, 152576, Note_on_c, 8, 54, 0
11, 152585, Control_c, 8, 7, 15
11, 152640, Control_c, 8, 7, 14
11, 152694, Control_c, 8, 7, 13
11, 152749, Control_c, 8, 7, 12
11, 152803, Control_c, 8, 7, 11
11, 152972, Control_c, 8, 7, 127
11, 188416, Note_on_c, 8, 65, 102
11, 190464, Note_on_c, 8, 65, 0
11, 190464, Note_on_c, 8, 65, 102
11, 192512, Note_on_c, 8, 65, 0
11, 192512, Note_on_c, 8, 65, 90
11, 193536, Note_on_c, 8, 65, 0
11, 193536, Note_on_c, 8, 64, 87
11, 194560, Note_on_c, 8, 64, 0
11, 194560, Note_on_c, 8, 64, 84
11, 196608, Note_on_c, 8, 64, 0
11, 225280, Note_on_c, 8, 66, 85
11, 227328, Note_on_c, 8, 66, 0
11, 227328, Note_on_c, 8, 66, 80
11, 229376, Note_on_c, 8, 66, 0
11, 229376, Note_on_c, 8, 66, 75
11, 230400, Note_on_c, 8, 66, 0
11, 230400, Note_on_c, 8, 64, 73
11, 231424, Note_on_c, 8, 64, 0
11, 231424, Note_on_c, 8, 64, 71
11, 233472, Note_on_c, 8, 64, 0
11, 235581, Control_c, 8, 7, 80
11, 237568, Note_on_c, 8, 65, 100
11, 237629, Control_c, 8, 7, 83
11, 237873, Control_c, 8, 7, 84
11, 238117, Control_c, 8, 7, 85
11, 238360, Control_c, 8, 7, 86
11, 238604, Control_c, 8, 7, 87
11, 238847, Control_c, 8, 7, 88
11, 239091, Control_c, 8, 7, 89
11, 239334, Control_c, 8, 7, 90
11, 239578, Control_c, 8, 7, 91
11, 239616, Note_on_c, 8, 65, 0
11, 239616, Note_on_c, 8, 68, 100
11, 239821, Control_c, 8, 7, 92
11, 240065, Control_c, 8, 7, 93
11, 240308, Control_c, 8, 7, 94
11, 240552, Control_c, 8, 7, 95
11, 240795, Control_c, 8, 7, 96
11, 241039, Control_c, 8, 7, 97
11, 241282, Control_c, 8, 7, 98
11, 241526, Control_c, 8, 7, 99
11, 241664, Note_on_c, 8, 68, 0
11, 241664, Note_on_c, 8, 69, 100
11, 241769, Control_c, 8, 7, 100
11, 242013, Control_c, 8, 7, 101
11, 242256, Control_c, 8, 7, 102
11, 242500, Control_c, 8, 7, 103
11, 242743, Control_c, 8, 7, 104
11, 242987, Control_c, 8, 7, 105
11, 243230, Control_c, 8, 7, 106
11, 243474, Control_c, 8, 7, 107
11, 243717, Control_c, 8, 7, 108
11, 243961, Control_c, 8, 7, 109
11, 244204, Control_c, 8, 7, 110
11, 244448, Control_c, 8, 7, 111
11, 244691, Control_c, 8, 7, 112
11, 244935, Control_c, 8, 7, 113
11, 245178, Control_c, 8, 7, 114
11, 245422, Control_c, 8, 7, 115
11, 245665, Control_c, 8, 7, 116
11, 245760, Note_on_c, 8, 69, 0
11, 245760, Note_on_c, 8, 70, 100
11, 245909, Control_c, 8, 7, 117
11, 246152, Control_c, 8, 7, 118
11, 246396, Control_c, 8, 7, 119
11, 246639, Control_c, 8, 7, 120
11, 246883, Control_c, 8, 7, 121
11, 247126, Control_c, 8, 7, 122
11, 247370, Control_c, 8, 7, 123
11, 247613, Control_c, 8, 7, 124
11, 247808, Note_on_c, 8, 70, 0
11, 247808, Note_on_c, 8, 71, 100
11, 250880, Note_on_c, 8, 71, 0
11, 250880, Note_on_c, 8, 72, 100
11, 251904, Note_on_c, 8, 72, 0
11, 251904, Note_on_c, 8, 71, 100
11, 254269, Control_c, 8, 7, 116
11, 254450, Control_c, 8, 7, 115
11, 254630, Control_c, 8, 7, 114
11, 254810, Control_c, 8, 7, 113
11, 254990, Control_c, 8, 7, 112
11, 255170, Control_c, 8, 7, 111
11, 255350, Control_c, 8, 7, 110
11, 255531, Control_c, 8, 7, 109
11, 255711, Control_c, 8, 7, 108
11, 255891, Control_c, 8, 7, 107
11, 256000, Note_on_c, 8, 71, 0
11, 256000, Note_on_c, 8, 69, 100
11, 256071, Control_c, 8, 7, 106
11, 256251, Control_c, 8, 7, 105
11, 256431, Control_c, 8, 7, 104
11, 256611, Control_c, 8, 7, 103
11, 256792, Control_c, 8, 7, 102
11, 256972, Control_c, 8, 7, 101
11, 257152, Control_c, 8, 7, 100
11, 257332, Control_c, 8, 7, 99
11, 257512, Control_c, 8, 7, 98
11, 257692, Control_c, 8, 7, 97
11, 257872, Control_c, 8, 7, 96
11, 258048, Note_on_c, 8, 69, 0
11, 258048, Note_on_c, 8, 67, 99
11, 258053, Control_c, 8, 7, 95
11, 258233, Control_c, 8, 7, 94
11, 258413, Control_c, 8, 7, 93
11, 258593, Control_c, 8, 7, 92
11, 258773, Control_c, 8, 7, 91
11, 258953, Control_c, 8, 7, 90
11, 259133, Control_c, 8, 7, 89
11, 259314, Control_c, 8, 7, 88
11, 259494, Control_c, 8, 7, 87
11, 259674, Control_c, 8, 7, 86
11, 259854, Control_c, 8, 7, 85
11, 260034, Control_c, 8, 7, 84
11, 260096, Note_on_c, 8, 67, 0
11, 260096, Note_on_c, 8, 66, 99
11, 260214, Control_c, 8, 7, 83
11, 260395, Control_c, 8, 7, 82
11, 260575, Control_c, 8, 7, 81
11, 260755, Control_c, 8, 7, 80
11, 260935, Control_c, 8, 7, 79
11, 261115, Control_c, 8, 7, 78
11, 261295, Control_c, 8, 7, 77
11, 261475, Control_c, 8, 7, 76
11, 261656, Control_c, 8, 7, 75
11, 261836, Control_c, 8, 7, 74
11, 262016, Control_c, 8, 7, 73
11, 262144, Note_on_c, 8, 66, 0
11, 262144, Note_on_c, 8, 59, 99
11, 262196, Control_c, 8, 7, 72
11, 262376, Control_c, 8, 7, 71
11, 262556, Control_c, 8, 7, 70
11, 262736, Control_c, 8, 7, 69
11, 262917, Control_c, 8, 7, 68
11, 263097, Control_c, 8, 7, 67
11, 263277, Control_c, 8, 7, 66
11, 263457, Control_c, 8, 7, 65
11, 263637, Control_c, 8, 7, 64
11, 263817, Control_c, 8, 7, 63
11, 263997, Control_c, 8, 7, 62
11, 264192, Note_on_c, 8, 59, 0
11, 274432, Note_on_c, 8, 66, 99
11, 280576, Note_on_c, 8, 66, 0
11, 280576, Note_on_c, 8, 64, 99
11, 281600, Note_on_c, 8, 64, 0
11, 281600, Note_on_c, 8, 63, 99
11, 282624, Note_on_c, 8, 63, 0
11, 282624, Note_on_c, 8, 64, 98
11, 284672, Note_on_c, 8, 64, 0
11, 284672, Note_on_c, 8, 66, 98
11, 285696, Note_on_c, 8, 66, 0
11, 285696, Note_on_c, 8, 68, 98
11, 286525, Control_c, 8, 7, 64
11, 286626, Control_c, 8, 7, 65
11, 286720, Note_on_c, 8, 68, 0
11, 286720, Note_on_c, 8, 68, 98
11, 286727, Control_c, 8, 7, 66
11, 286827, Control_c, 8, 7, 67
11, 286928, Control_c, 8, 7, 68
11, 287028, Control_c, 8, 7, 69
11, 287129, Control_c, 8, 7, 70
11, 287229, Control_c, 8, 7, 71
11, 287330, Control_c, 8, 7, 72
11, 287431, Control_c, 8, 7, 73
11, 287531, Control_c, 8, 7, 74
11, 287632, Control_c, 8, 7, 75
11, 287732, Control_c, 8, 7, 76
11, 287833, Control_c, 8, 7, 77
11, 287933, Control_c, 8, 7, 78
11, 288034, Control_c, 8, 7, 79
11, 288135, Control_c, 8, 7, 80
11, 288235, Control_c, 8, 7, 81
11, 288336, Control_c, 8, 7, 82
11, 288436, Control_c, 8, 7, 83
11, 288537, Control_c, 8, 7, 84
11, 288637, Control_c, 8, 7, 85
11, 288738, Control_c, 8, 7, 86
11, 288839, Control_c, 8, 7, 87
11, 288939, Control_c, 8, 7, 88
11, 289040, Control_c, 8, 7, 89
11, 289140, Control_c, 8, 7, 90
11, 289241, Control_c, 8, 7, 91
11, 289341, Control_c, 8, 7, 92
11, 289442, Control_c, 8, 7, 93
11, 289543, Control_c, 8, 7, 94
11, 289643, Control_c, 8, 7, 95
11, 289744, Control_c, 8, 7, 96
11, 289792, Note_on_c, 8, 68, 0
11, 289792, Note_on_c, 8, 66, 98
11, 289844, Control_c, 8, 7, 97
11, 289945, Control_c, 8, 7, 98
11, 290045, Control_c, 8, 7, 99
11, 290146, Control_c, 8, 7, 100
11, 290247, Control_c, 8, 7, 101
11, 290304, Note_on_c, 8, 66, 0
11, 290304, Note_on_c, 8, 68, 98
11, 290347, Control_c, 8, 7, 102
11, 290448, Control_c, 8, 7, 103
11, 290548, Control_c, 8, 7, 104
11, 290649, Control_c, 8, 7, 105
11, 290749, Control_c, 8, 7, 104
11, 290816, Note_on_c, 8, 68, 0
11, 290816, Note_on_c, 8, 69, 98
11, 290831, Control_c, 8, 7, 103
11, 290912, Control_c, 8, 7, 102
11, 290994, Control_c, 8, 7, 101
11, 291075, Control_c, 8, 7, 100
11, 291157, Control_c, 8, 7, 99
11, 291238, Control_c, 8, 7, 98
11, 291320, Control_c, 8, 7, 97
11, 291401, Control_c, 8, 7, 96
11, 291483, Control_c, 8, 7, 95
11, 291564, Control_c, 8, 7, 94
11, 291645, Control_c, 8, 7, 93
11, 291727, Control_c, 8, 7, 92
11, 291808, Control_c, 8, 7, 91
11, 291890, Control_c, 8, 7, 90
11, 291971, Control_c, 8, 7, 89
11, 292053, Control_c, 8, 7, 88
11, 292134, Control_c, 8, 7, 87
11, 292216, Control_c, 8, 7, 86
11, 292297, Control_c, 8, 7, 85
11, 292379, Control_c, 8, 7, 84
11, 292460, Control_c, 8, 7, 83
11, 292541, Control_c, 8, 7, 82
11, 292623, Control_c, 8, 7, 81
11, 292704, Control_c, 8, 7, 80
11, 292786, Control_c, 8, 7, 79
11, 292864, Note_on_c, 8, 69, 0
11, 292864, Note_on_c, 8, 67, 98
11, 292867, Control_c, 8, 7, 78
11, 292949, Control_c, 8, 7, 77
11, 293030, Control_c, 8, 7, 76
11, 293112, Control_c, 8, 7, 75
11, 293193, Control_c, 8, 7, 74
11, 293275, Control_c, 8, 7, 73
11, 293356, Control_c, 8, 7, 72
11, 293437, Control_c, 8, 7, 71
11, 294912, Note_on_c, 8, 67, 0
11, 294912, Note_on_c, 8, 69, 98
11, 296960, Note_on_c, 8, 69, 0
11, 296960, Note_on_c, 8, 71, 98
11, 299008, Note_on_c, 8, 71, 0
11, 299008, Note_on_c, 8, 69, 98
11, 300032, Note_on_c, 8, 69, 0
11, 300032, Note_on_c, 8, 67, 98
11, 301056, Note_on_c, 8, 67, 0
11, 301056, Note_on_c, 8, 66, 98
11, 302080, Note_on_c, 8, 66, 0
11, 302080, Note_on_c, 8, 67, 98
11, 303104, Note_on_c, 8, 67, 0
11, 303104, Note_on_c, 8, 64, 98
11, 305152, Note_on_c, 8, 64, 0
11, 305152, Note_on_c, 8, 64, 98
11, 307200, Note_on_c, 8, 64, 0
11, 316416, Note_on_c, 8, 69, 78
11, 317440, Note_on_c, 8, 69, 0
11, 317440, Note_on_c, 8, 64, 78
11, 319488, Note_on_c, 8, 64, 0
11, 319488, Note_on_c, 8, 66, 78
11, 321536, Note_on_c, 8, 66, 0
11, 321536, Note_on_c, 8, 67, 78
11, 322560, Note_on_c, 8, 67, 0
11, 322560, Note_on_c, 8, 66, 78
11, 323584, Note_on_c, 8, 66, 0
11, 323584, Note_on_c, 8, 66, 78
11, 327680, Note_on_c, 8, 66, 0
11, 327680, Note_on_c, 8, 64, 78
11, 329318, Note_on_c, 8, 64, 0
11, 329728, Note_on_c, 8, 61, 78
11, 331776, Note_on_c, 8, 61, 0
11, 331776, Note_on_c, 8, 66, 77
11, 335872, Note_on_c, 8, 66, 0
11, 335872, Note_on_c, 8, 59, 77
11, 337510, Note_on_c, 8, 59, 0
11, 337920, Note_on_c, 8, 64, 77
11, 342016, Note_on_c, 8, 64, 0
11, 342016, Note_on_c, 8, 69, 77
11, 344064, Note_on_c, 8, 69, 0
11, 344064, Note_on_c, 8, 66, 78
11, 346112, Note_on_c, 8, 66, 0
11, 346112, Note_on_c, 8, 63, 78
11, 350208, Note_on_c, 8, 63, 0
11, 350208, Note_on_c, 8, 63, 78
11, 352256, Note_on_c, 8, 63, 0
11, 352256, Note_on_c, 8, 64, 78
11, 353341, Control_c, 8, 7, 67
11, 353894, Note_on_c, 8, 64, 0
11, 354304, Note_on_c, 8, 63, 78
11, 356352, Note_on_c, 8, 63, 0
11, 356352, Note_on_c, 8, 64, 77
11, 358388, Control_c, 8, 7, 88
11, 358400, Note_on_c, 8, 64, 0
11, 358400, Note_on_c, 8, 66, 77
11, 358610, Control_c, 8, 7, 89
11, 358717, Control_c, 8, 7, 67
11, 358827, Control_c, 8, 7, 68
11, 358936, Control_c, 8, 7, 69
11, 359045, Control_c, 8, 7, 70
11, 359154, Control_c, 8, 7, 71
11, 359263, Control_c, 8, 7, 72
11, 359372, Control_c, 8, 7, 73
11, 359481, Control_c, 8, 7, 74
11, 359590, Control_c, 8, 7, 75
11, 359699, Control_c, 8, 7, 76
11, 359808, Control_c, 8, 7, 77
11, 359917, Control_c, 8, 7, 78
11, 360026, Control_c, 8, 7, 79
11, 360135, Control_c, 8, 7, 80
11, 360244, Control_c, 8, 7, 81
11, 360353, Control_c, 8, 7, 82
11, 360448, Note_on_c, 8, 66, 0
11, 360448, Note_on_c, 8, 67, 77
11, 360462, Control_c, 8, 7, 83
11, 360571, Control_c, 8, 7, 84
11, 360680, Control_c, 8, 7, 85
11, 360789, Control_c, 8, 7, 86
11, 360898, Control_c, 8, 7, 87
11, 361007, Control_c, 8, 7, 88
11, 361116, Control_c, 8, 7, 89
11, 361225, Control_c, 8, 7, 90
11, 361334, Control_c, 8, 7, 91
11, 361443, Control_c, 8, 7, 92
11, 361472, Note_on_c, 8, 67, 0
11, 361472, Note_on_c, 8, 69, 77
11, 361552, Control_c, 8, 7, 93
11, 361661, Control_c, 8, 7, 94
11, 361771, Control_c, 8, 7, 95
11, 361880, Control_c, 8, 7, 96
11, 361989, Control_c, 8, 7, 97
11, 362098, Control_c, 8, 7, 98
11, 362207, Control_c, 8, 7, 99
11, 362316, Control_c, 8, 7, 100
11, 362425, Control_c, 8, 7, 101
11, 362496, Note_on_c, 8, 69, 0
11, 362496, Note_on_c, 8, 71, 77
11, 362534, Control_c, 8, 7, 102
11, 362643, Control_c, 8, 7, 103
11, 362752, Control_c, 8, 7, 104
11, 362861, Control_c, 8, 7, 105
11, 362970, Control_c, 8, 7, 106
11, 363079, Control_c, 8, 7, 107
11, 363188, Control_c, 8, 7, 108
11, 363297, Control_c, 8, 7, 109
11, 363406, Control_c, 8, 7, 110
11, 363515, Control_c, 8, 7, 111
11, 363624, Control_c, 8, 7, 112
11, 363733, Control_c, 8, 7, 113
11, 363842, Control_c, 8, 7, 114
11, 363951, Control_c, 8, 7, 115
11, 364060, Control_c, 8, 7, 116
11, 364169, Control_c, 8, 7, 117
11, 364278, Control_c, 8, 7, 118
11, 364387, Control_c, 8, 7, 119
11, 364496, Control_c, 8, 7, 120
11, 364544, Note_on_c, 8, 71, 0
11, 364544, Note_on_c, 8, 71, 77
11, 364605, Control_c, 8, 7, 121
11, 364861, Control_c, 8, 7, 114
11, 365085, Control_c, 8, 7, 113
11, 365309, Control_c, 8, 7, 112
11, 365533, Control_c, 8, 7, 111
11, 365757, Control_c, 8, 7, 110
11, 365981, Control_c, 8, 7, 109
11, 366205, Control_c, 8, 7, 108
11, 366429, Control_c, 8, 7, 107
11, 366592, Note_on_c, 8, 71, 0
11, 366592, Note_on_c, 8, 69, 77
11, 366653, Control_c, 8, 7, 106
11, 366877, Control_c, 8, 7, 105
11, 367101, Control_c, 8, 7, 104
11, 367325, Control_c, 8, 7, 103
11, 367549, Control_c, 8, 7, 102
11, 367616, Note_on_c, 8, 69, 0
11, 367616, Note_on_c, 8, 67, 77
11, 367773, Control_c, 8, 7, 101
11, 367997, Control_c, 8, 7, 100
11, 368221, Control_c, 8, 7, 99
11, 368445, Control_c, 8, 7, 98
11, 368640, Note_on_c, 8, 67, 0
11, 368640, Note_on_c, 8, 66, 77
11, 368669, Control_c, 8, 7, 97
11, 368893, Control_c, 8, 7, 96
11, 369117, Control_c, 8, 7, 95
11, 369341, Control_c, 8, 7, 94
11, 369565, Control_c, 8, 7, 93
11, 369664, Note_on_c, 8, 66, 0
11, 369664, Note_on_c, 8, 64, 77
11, 369789, Control_c, 8, 7, 92
11, 370013, Control_c, 8, 7, 91
11, 370237, Control_c, 8, 7, 90
11, 370461, Control_c, 8, 7, 89
11, 370685, Control_c, 8, 7, 88
11, 370688, Note_on_c, 8, 64, 0
11, 370688, Note_on_c, 8, 63, 77
11, 370909, Control_c, 8, 7, 87
11, 371133, Control_c, 8, 7, 86
11, 371357, Control_c, 8, 7, 85
11, 371581, Control_c, 8, 7, 84
11, 371805, Control_c, 8, 7, 83
11, 372029, Control_c, 8, 7, 82
11, 372253, Control_c, 8, 7, 81
11, 372477, Control_c, 8, 7, 80
11, 372701, Control_c, 8, 7, 79
11, 372925, Control_c, 8, 7, 78
11, 373149, Control_c, 8, 7, 77
11, 373373, Control_c, 8, 7, 76
11, 373597, Control_c, 8, 7, 75
11, 373821, Control_c, 8, 7, 74
11, 374045, Control_c, 8, 7, 73
11, 374269, Control_c, 8, 7, 72
11, 374493, Control_c, 8, 7, 71
11, 374717, Control_c, 8, 7, 70
11, 374941, Control_c, 8, 7, 69
11, 375165, Control_c, 8, 7, 68
11, 375389, Control_c, 8, 7, 67
11, 375613, Control_c, 8, 7, 66
11, 375837, Control_c, 8, 7, 65
11, 376061, Control_c, 8, 7, 64
11, 376285, Control_c, 8, 7, 63
11, 376509, Control_c, 8, 7, 62
11, 376832, Note_on_c, 8, 63, 0
11, 380989, Control_c, 8, 7, 127
11, 385024, Note_on_c, 8, 65, 82
11, 391168, Note_on_c, 8, 65, 0
11, 391168, Note_on_c, 8, 63, 79
11, 393216, Note_on_c, 8, 63, 0
11, 393216, Note_on_c, 8, 64, 77
11, 395264, Note_on_c, 8, 64, 0
11, 395264, Note_on_c, 8, 65, 76
11, 402432, Note_on_c, 8, 65, 0
11, 402432, Note_on_c, 8, 64, 72
11, 403251, Note_on_c, 8, 64, 0
11, 403456, Note_on_c, 8, 62, 72
11, 404480, Note_on_c, 8, 62, 0
11, 404480, Note_on_c, 8, 60, 71
11, 405504, Note_on_c, 8, 60, 0
11, 405504, Note_on_c, 8, 62, 71
11, 406528, Note_on_c, 8, 62, 0
11, 406528, Note_on_c, 8, 59, 69
11, 407552, Note_on_c, 8, 59, 0
11, 407552, Note_on_c, 8, 66, 69
11, 409600, Note_on_c, 8, 66, 0
11, 409600, Note_on_c, 8, 66, 65
11, 411648, Note_on_c, 8, 66, 0
11, 411648, Note_on_c, 8, 66, 64
11, 413696, Note_on_c, 8, 66, 0
11, 413696, Note_on_c, 8, 67, 63
11, 415744, Note_on_c, 8, 67, 0
11, 415744, Note_on_c, 8, 66, 62
11, 416768, Note_on_c, 8, 66, 0
11, 416768, Note_on_c, 8, 67, 62
11, 417792, Note_on_c, 8, 67, 0
11, 417792, Note_on_c, 8, 64, 62
11, 418816, Note_on_c, 8, 64, 0
11, 418816, Note_on_c, 8, 66, 61
11, 419840, Note_on_c, 8, 66, 0
11, 419840, Note_on_c, 8, 67, 61
11, 421888, Note_on_c, 8, 67, 0
11, 421888, Note_on_c, 8, 66, 60
11, 425984, Note_on_c, 8, 66, 0
11, 425984, Note_on_c, 8, 64, 58
11, 427581, Control_c, 8, 7, 126
11, 427622, Note_on_c, 8, 64, 0
11, 428032, Note_on_c, 8, 67, 57
11, 428107, Control_c, 8, 7, 125
11, 428633, Control_c, 8, 7, 124
11, 429159, Control_c, 8, 7, 123
11, 429685, Control_c, 8, 7, 122
11, 430080, Note_on_c, 8, 67, 0
11, 430080, Note_on_c, 8, 64, 57
11, 430211, Control_c, 8, 7, 121
11, 430736, Control_c, 8, 7, 120
11, 431262, Control_c, 8, 7, 119
11, 431788, Control_c, 8, 7, 118
11, 432128, Note_on_c, 8, 64, 0
11, 432128, Note_on_c, 8, 66, 56
11, 432314, Control_c, 8, 7, 117
11, 432840, Control_c, 8, 7, 116
11, 433365, Control_c, 8, 7, 115
11, 433891, Control_c, 8, 7, 114
11, 434176, Note_on_c, 8, 66, 0
11, 434176, Note_on_c, 8, 67, 56
11, 434417, Control_c, 8, 7, 113
11, 434943, Control_c, 8, 7, 112
11, 435469, Control_c, 8, 7, 111
11, 435994, Control_c, 8, 7, 110
11, 436224, Note_on_c, 8, 67, 0
11, 436224, Note_on_c, 8, 65, 56
11, 436520, Control_c, 8, 7, 109
11, 437046, Control_c, 8, 7, 108
11, 437572, Control_c, 8, 7, 107
11, 438098, Control_c, 8, 7, 106
11, 438272, Note_on_c, 8, 65, 0
11, 438272, Note_on_c, 8, 64, 56
11, 438623, Control_c, 8, 7, 105
11, 439149, Control_c, 8, 7, 104
11, 439675, Control_c, 8, 7, 103
11, 440201, Control_c, 8, 7, 102
11, 440727, Control_c, 8, 7, 101
11, 441252, Control_c, 8, 7, 100
11, 441344, Note_on_c, 8, 64, 0
11, 441344, Note_on_c, 8, 62, 55
11, 441778, Control_c, 8, 7, 99
11, 442304, Control_c, 8, 7, 98
11, 442368, Note_on_c, 8, 62, 0
11, 442368, Note_on_c, 8, 60, 55
11, 442830, Control_c, 8, 7, 97
11, 443356, Control_c, 8, 7, 96
11, 443392, Note_on_c, 8, 60, 0
11, 443392, Note_on_c, 8, 57, 55
11, 443881, Control_c, 8, 7, 95
11, 444407, Control_c, 8, 7, 94
11, 444416, Note_on_c, 8, 57, 0
11, 444416, Note_on_c, 8, 55, 55
11, 444933, Control_c, 8, 7, 93
11, 445440, Note_on_c, 8, 55, 0
11, 445440, Note_on_c, 8, 54, 55
11, 445459, Control_c, 8, 7, 92
11, 445985, Control_c, 8, 7, 91
11, 446464, Note_on_c, 8, 54, 0
11, 446464, Note_on_c, 8, 59, 55
11, 446510, Control_c, 8, 7, 90
11, 447036, Control_c, 8, 7, 89
11, 447562, Control_c, 8, 7, 88
11, 448088, Control_c, 8, 7, 87
11, 448512, Note_on_c, 8, 59, 0
11, 448512, Note_on_c, 8, 57, 55
11, 448614, Control_c, 8, 7, 86
11, 449139, Control_c, 8, 7, 85
11, 449665, Control_c, 8, 7, 84
11, 450191, Control_c, 8, 7, 83
11, 450560, Note_on_c, 8, 57, 0
11, 450560, Note_on_c, 8, 55, 55
11, 450717, Control_c, 8, 7, 82
11, 451243, Control_c, 8, 7, 81
11, 451768, Control_c, 8, 7, 80
11, 452198, Note_on_c, 8, 55, 0
11, 452294, Control_c, 8, 7, 79
11, 452608, Note_on_c, 8, 60, 54
11, 452820, Control_c, 8, 7, 78
11, 453346, Control_c, 8, 7, 77
11, 453872, Control_c, 8, 7, 76
11, 454397, Control_c, 8, 7, 75
11, 454923, Control_c, 8, 7, 74
11, 455449, Control_c, 8, 7, 73
11, 455975, Control_c, 8, 7, 72
11, 456501, Control_c, 8, 7, 71
11, 457027, Control_c, 8, 7, 70
11, 457552, Control_c, 8, 7, 69
11, 458078, Control_c, 8, 7, 68
11, 458604, Control_c, 8, 7, 67
11, 458752, Note_on_c, 8, 60, 0
11, 458752, Note_on_c, 8, 59, 53
11, 459130, Control_c, 8, 7, 66
11, 459656, Control_c, 8, 7, 65
11, 460181, Control_c, 8, 7, 64
11, 460707, Control_c, 8, 7, 63
11, 461233, Control_c, 8, 7, 62
11, 461759, Control_c, 8, 7, 61
11, 462285, Control_c, 8, 7, 60
11, 462810, Control_c, 8, 7, 59
11, 463336, Control_c, 8, 7, 58
11, 463862, Control_c, 8, 7, 57
11, 464388, Control_c, 8, 7, 56
11, 464486, Note_on_c, 8, 59, 0
11, 464896, Note_on_c, 8, 60, 52
11, 464914, Control_c, 8, 7, 55
11, 465439, Control_c, 8, 7, 54
11, 465965, Control_c, 8, 7, 53
11, 466491, Control_c, 8, 7, 52
11, 466944, Note_on_c, 8, 60, 0
11, 466944, Note_on_c, 8, 58, 52
11, 467017, Control_c, 8, 7, 51
11, 467543, Control_c, 8, 7, 50
11, 468068, Control_c, 8, 7, 49
11, 468594, Control_c, 8, 7, 48
11, 468992, Note_on_c, 8, 58, 0
11, 468992, Note_on_c, 8, 57, 52
11, 469120, Control_c, 8, 7, 47
11, 469646, Control_c, 8, 7, 46
11, 470172, Control_c, 8, 7, 45
11, 470697, Control_c, 8, 7, 44
11, 471223, Control_c, 8, 7, 43
11, 471749, Control_c, 8, 7, 42
11, 472275, Control_c, 8, 7, 41
11, 472801, Control_c, 8, 7, 40
11, 473088, Note_on_c, 8, 57, 0
11, 473088, Note_on_c, 8, 57, 52
11, 473326, Control_c, 8, 7, 39
11, 473852, Control_c, 8, 7, 38
11, 474378, Control_c, 8, 7, 37
11, 474904, Control_c, 8, 7, 36
11, 475136, Note_on_c, 8, 57, 0
11, 475136, Note_on_c, 8, 55, 52
11, 475430, Control_c, 8, 7, 35
11, 475955, Control_c, 8, 7, 34
11, 476481, Control_c, 8, 7, 33
11, 477007, Control_c, 8, 7, 32
11, 477533, Control_c, 8, 7, 31
11, 478059, Control_c, 8, 7, 30
11, 478584, Control_c, 8, 7, 29
11, 479110, Control_c, 8, 7, 28
11, 479636, Control_c, 8, 7, 27
11, 480162, Control_c, 8, 7, 26
11, 480688, Control_c, 8, 7, 25
11, 481213, Control_c, 8, 7, 24
11, 481280, Note_on_c, 8, 55, 0
11, 487424, End_track
12, 0, Start_track
12, 0, Title_t, "Tenor"
12, 0, Program_c, 10, 53
12, 0, Control_c, 10, 121, 127
12, 0, Control_c, 10, 91, 127
12, 0, Control_c, 10, 10, 80
12, 0, Control_c, 10, 1, 25
12, 8192, Control_c, 10, 7, 80
12, 20480, Note_on_c, 10, 61, 80
12, 21504, Note_on_c, 10, 61, 0
12, 21504, Note_on_c, 10, 58, 80
12, 22528, Note_on_c, 10, 58, 0
12, 22528, Note_on_c, 10, 54, 80
12, 23552, Note_on_c, 10, 54, 0
12, 23552, Note_on_c, 10, 50, 80
12, 25600, Note_on_c, 10, 50, 0
12, 25600, Note_on_c, 10, 50, 80
12, 26624, Note_on_c, 10, 50, 0
12, 26624, Note_on_c, 10, 54, 80
12, 27648, Note_on_c, 10, 54, 0
12, 27648, Note_on_c, 10, 51, 80
12, 28672, Note_on_c, 10, 51, 0
12, 28672, Note_on_c, 10, 54, 80
12, 29696, Note_on_c, 10, 54, 0
12, 29696, Note_on_c, 10, 56, 80
12, 30088, Control_c, 10, 7, 82
12, 30480, Control_c, 10, 7, 84
12, 30720, Note_on_c, 10, 56, 0
12, 30720, Note_on_c, 10, 61, 80
12, 30873, Control_c, 10, 7, 86
12, 31265, Control_c, 10, 7, 88
12, 31657, Control_c, 10, 7, 90
12, 31744, Note_on_c, 10, 61, 0
12, 31744, Note_on_c, 10, 56, 80
12, 32049, Control_c, 10, 7, 92
12, 32441, Control_c, 10, 7, 94
12, 32768, Note_on_c, 10, 56, 0
12, 32768, Note_on_c, 10, 57, 80
12, 32833, Control_c, 10, 7, 96
12, 33226, Control_c, 10, 7, 98
12, 33280, Note_on_c, 10, 57, 0
12, 33280, Note_on_c, 10, 59, 80
12, 33618, Control_c, 10, 7, 100
12, 33792, Note_on_c, 10, 59, 0
12, 33792, Note_on_c, 10, 61, 80
12, 34010, Control_c, 10, 7, 102
12, 34402, Control_c, 10, 7, 104
12, 34794, Control_c, 10, 7, 106
12, 34816, Note_on_c, 10, 61, 0
12, 34816, Note_on_c, 10, 61, 80
12, 35186, Control_c, 10, 7, 108
12, 35579, Control_c, 10, 7, 110
12, 35840, Note_on_c, 10, 61, 0
12, 35840, Note_on_c, 10, 62, 80
12, 35971, Control_c, 10, 7, 112
12, 36363, Control_c, 10, 7, 114
12, 36755, Control_c, 10, 7, 116
12, 36864, Note_on_c, 10, 62, 0
12, 36864, Note_on_c, 10, 62, 80
12, 37147, Control_c, 10, 7, 118
12, 37539, Control_c, 10, 7, 120
12, 37932, Control_c, 10, 7, 122
12, 38324, Control_c, 10, 7, 124
12, 38716, Control_c, 10, 7, 126
12, 38912, Note_on_c, 10, 62, 0
12, 38912, Note_on_c, 10, 56, 80
12, 39805, Control_c, 10, 7, 80
12, 40960, Note_on_c, 10, 56, 0
12, 43008, Note_on_c, 10, 57, 80
12, 44032, Note_on_c, 10, 57, 0
12, 44032, Note_on_c, 10, 61, 80
12, 45056, Note_on_c, 10, 61, 0
12, 45056, Note_on_c, 10, 64, 80
12, 46080, Note_on_c, 10, 64, 0
12, 46080, Note_on_c, 10, 61, 80
12, 47104, Note_on_c, 10, 61, 0
12, 47104, Note_on_c, 10, 66, 80
12, 48128, Note_on_c, 10, 66, 0
12, 48128, Note_on_c, 10, 59, 80
12, 50176, Note_on_c, 10, 59, 0
12, 50176, Note_on_c, 10, 57, 80
12, 51200, Note_on_c, 10, 57, 0
12, 51200, Note_on_c, 10, 56, 80
12, 52019, Note_on_c, 10, 56, 0
12, 52224, Note_on_c, 10, 54, 80
12, 53248, Note_on_c, 10, 54, 0
12, 53248, Note_on_c, 10, 59, 80
12, 54272, Note_on_c, 10, 59, 0
12, 54272, Note_on_c, 10, 62, 80
12, 55296, Note_on_c, 10, 62, 0
12, 55296, Note_on_c, 10, 61, 80
12, 56320, Note_on_c, 10, 61, 0
12, 56320, Note_on_c, 10, 62, 80
12, 57344, Note_on_c, 10, 62, 0
12, 57344, Note_on_c, 10, 56, 80
12, 58368, Note_on_c, 10, 56, 0
12, 58368, Note_on_c, 10, 61, 80
12, 59392, Note_on_c, 10, 61, 0
12, 59392, Note_on_c, 10, 61, 80
12, 60416, Control_c, 10, 7, 100
12, 60416, Note_on_c, 10, 61, 0
12, 60416, Note_on_c, 10, 61, 80
12, 60448, Control_c, 10, 7, 99
12, 60474, Control_c, 10, 7, 125
12, 60480, Control_c, 10, 7, 98
12, 60483, Control_c, 10, 7, 124
12, 60733, Control_c, 10, 7, 123
12, 60829, Control_c, 10, 7, 122
12, 60906, Control_c, 10, 7, 121
12, 60983, Control_c, 10, 7, 120
12, 61040, Control_c, 10, 7, 119
12, 61098, Control_c, 10, 7, 118
12, 61136, Control_c, 10, 7, 117
12, 61175, Control_c, 10, 7, 116
12, 61232, Control_c, 10, 7, 115
12, 61271, Control_c, 10, 7, 114
12, 61309, Control_c, 10, 7, 113
12, 61328, Control_c, 10, 7, 112
12, 61367, Control_c, 10, 7, 111
12, 61405, Control_c, 10, 7, 110
12, 61443, Control_c, 10, 7, 109
12, 61463, Control_c, 10, 7, 108
12, 61501, Control_c, 10, 7, 107
12, 61520, Control_c, 10, 7, 106
12, 61559, Control_c, 10, 7, 105
12, 61578, Control_c, 10, 7, 104
12, 61616, Control_c, 10, 7, 103
12, 61635, Control_c, 10, 7, 102
12, 61655, Control_c, 10, 7, 101
12, 61693, Control_c, 10, 7, 100
12, 61712, Control_c, 10, 7, 99
12, 61731, Control_c, 10, 7, 98
12, 61751, Control_c, 10, 7, 97
12, 61789, Control_c, 10, 7, 96
12, 61808, Control_c, 10, 7, 95
12, 61827, Control_c, 10, 7, 94
12, 61847, Control_c, 10, 7, 93
12, 61866, Control_c, 10, 7, 92
12, 61885, Control_c, 10, 7, 91
12, 61923, Control_c, 10, 7, 90
12, 61943, Control_c, 10, 7, 89
12, 61962, Control_c, 10, 7, 88
12, 61981, Control_c, 10, 7, 87
12, 62000, Control_c, 10, 7, 86
12, 62019, Control_c, 10, 7, 85
12, 62039, Control_c, 10, 7, 84
12, 62058, Control_c, 10, 7, 83
12, 62077, Control_c, 10, 7, 82
12, 62096, Control_c, 10, 7, 81
12, 62115, Control_c, 10, 7, 80
12, 62135, Control_c, 10, 7, 79
12, 62154, Control_c, 10, 7, 78
12, 62173, Control_c, 10, 7, 76
12, 62192, Control_c, 10, 7, 75
12, 62211, Control_c, 10, 7, 74
12, 62231, Control_c, 10, 7, 73
12, 62250, Control_c, 10, 7, 72
12, 62269, Control_c, 10, 7, 71
12, 62288, Control_c, 10, 7, 70
12, 62307, Control_c, 10, 7, 69
12, 62327, Control_c, 10, 7, 67
12, 62346, Control_c, 10, 7, 66
12, 62365, Control_c, 10, 7, 65
12, 62384, Control_c, 10, 7, 64
12, 62403, Control_c, 10, 7, 62
12, 62464, Note_on_c, 10, 61, 0
12, 62467, Control_c, 10, 7, 51
12, 63079, Control_c, 10, 7, 52
12, 63310, Control_c, 10, 7, 51
12, 63480, Control_c, 10, 7, 50
12, 63626, Control_c, 10, 7, 49
12, 63747, Control_c, 10, 7, 48
12, 69632, Note_on_c, 10, 66, 80
12, 70656, Note_on_c, 10, 66, 0
12, 70656, Note_on_c, 10, 61, 80
12, 71680, Note_on_c, 10, 61, 0
12, 71680, Note_on_c, 10, 57, 80
12, 72704, Note_on_c, 10, 57, 0
12, 72704, Note_on_c, 10, 54, 80
12, 74752, Note_on_c, 10, 54, 0
12, 74752, Note_on_c, 10, 54, 80
12, 75776, Note_on_c, 10, 54, 0
12, 75776, Note_on_c, 10, 56, 80
12, 76800, Note_on_c, 10, 56, 0
12, 76800, Note_on_c, 10, 56, 80
12, 77824, Note_on_c, 10, 56, 0
12, 77824, Note_on_c, 10, 59, 80
12, 78848, Note_on_c, 10, 59, 0
12, 78848, Note_on_c, 10, 62, 80
12, 79872, Note_on_c, 10, 62, 0
12, 79872, Note_on_c, 10, 61, 80
12, 80896, Note_on_c, 10, 61, 0
12, 80896, Note_on_c, 10, 59, 80
12, 81920, Control_c, 10, 7, 80
12, 81920, Note_on_c, 10, 59, 0
12, 81920, Note_on_c, 10, 61, 80
12, 82443, Control_c, 10, 7, 82
12, 82739, Note_on_c, 10, 61, 0
12, 82944, Note_on_c, 10, 66, 80
12, 82966, Control_c, 10, 7, 84
12, 83489, Control_c, 10, 7, 86
12, 83968, Note_on_c, 10, 66, 0
12, 83968, Note_on_c, 10, 57, 80
12, 84012, Control_c, 10, 7, 88
12, 84534, Control_c, 10, 7, 90
12, 84992, Note_on_c, 10, 57, 0
12, 84992, Note_on_c, 10, 54, 80
12, 85057, Control_c, 10, 7, 92
12, 85580, Control_c, 10, 7, 94
12, 86103, Control_c, 10, 7, 96
12, 86626, Control_c, 10, 7, 98
12, 87040, Note_on_c, 10, 54, 0
12, 87040, Note_on_c, 10, 59, 80
12, 87149, Control_c, 10, 7, 100
12, 87672, Control_c, 10, 7, 102
12, 88064, Note_on_c, 10, 59, 0
12, 88064, Note_on_c, 10, 59, 80
12, 88195, Control_c, 10, 7, 104
12, 88718, Control_c, 10, 7, 106
12, 89241, Control_c, 10, 7, 108
12, 89702, Note_on_c, 10, 59, 0
12, 89763, Control_c, 10, 7, 110
12, 90112, Note_on_c, 10, 67, 80
12, 90286, Control_c, 10, 7, 112
12, 90809, Control_c, 10, 7, 114
12, 91136, Note_on_c, 10, 67, 0
12, 91136, Note_on_c, 10, 64, 80
12, 91332, Control_c, 10, 7, 116
12, 91855, Control_c, 10, 7, 118
12, 92160, Note_on_c, 10, 64, 0
12, 92160, Note_on_c, 10, 61, 80
12, 92378, Control_c, 10, 7, 120
12, 92901, Control_c, 10, 7, 122
12, 93184, Note_on_c, 10, 61, 0
12, 93184, Note_on_c, 10, 58, 80
12, 93424, Control_c, 10, 7, 124
12, 93947, Control_c, 10, 7, 126
12, 94208, Control_c, 10, 7, 127
12, 94208, Note_on_c, 10, 58, 0
12, 94208, Note_on_c, 10, 54, 80
12, 94339, Control_c, 10, 7, 125
12, 94469, Control_c, 10, 7, 123
12, 94600, Control_c, 10, 7, 121
12, 94731, Control_c, 10, 7, 119
12, 94862, Control_c, 10, 7, 117
12, 94992, Control_c, 10, 7, 115
12, 95123, Control_c, 10, 7, 113
12, 95232, Note_on_c, 10, 54, 0
12, 95232, Note_on_c, 10, 59, 80
12, 95254, Control_c, 10, 7, 111
12, 95385, Control_c, 10, 7, 109
12, 95515, Control_c, 10, 7, 107
12, 95646, Control_c, 10, 7, 105
12, 95777, Control_c, 10, 7, 103
12, 95907, Control_c, 10, 7, 101
12, 96038, Control_c, 10, 7, 99
12, 96169, Control_c, 10, 7, 97
12, 96300, Control_c, 10, 7, 95
12, 96430, Control_c, 10, 7, 93
12, 96561, Control_c, 10, 7, 91
12, 96692, Control_c, 10, 7, 89
12, 96822, Control_c, 10, 7, 87
12, 96953, Control_c, 10, 7, 85
12, 97084, Control_c, 10, 7, 83
12, 97215, Control_c, 10, 7, 81
12, 97280, Note_on_c, 10, 59, 0
12, 97280, Note_on_c, 10, 66, 80
12, 98304, Note_on_c, 10, 66, 0
12, 101376, Note_on_c, 10, 66, 80
12, 102400, Note_on_c, 10, 66, 0
12, 102400, Note_on_c, 10, 66, 80
12, 103424, Control_c, 10, 7, 80
12, 103424, Note_on_c, 10, 66, 0
12, 103424, Note_on_c, 10, 66, 80
12, 103731, Control_c, 10, 7, 82
12, 104038, Control_c, 10, 7, 84
12, 104346, Control_c, 10, 7, 86
12, 104448, Note_on_c, 10, 66, 0
12, 104448, Note_on_c, 10, 63, 80
12, 104653, Control_c, 10, 7, 88
12, 104960, Control_c, 10, 7, 90
12, 105267, Control_c, 10, 7, 92
12, 105472, Note_on_c, 10, 63, 0
12, 105472, Note_on_c, 10, 59, 80
12, 105574, Control_c, 10, 7, 94
12, 105882, Control_c, 10, 7, 96
12, 106189, Control_c, 10, 7, 98
12, 106496, Note_on_c, 10, 59, 0
12, 106496, Note_on_c, 10, 59, 80
12, 107520, Note_on_c, 10, 59, 0
12, 107520, Note_on_c, 10, 64, 80
12, 109056, Note_on_c, 10, 64, 0
12, 109056, Note_on_c, 10, 62, 80
12, 109568, Note_on_c, 10, 62, 0
12, 109568, Note_on_c, 10, 61, 80
12, 110387, Note_on_c, 10, 61, 0
12, 110592, Note_on_c, 10, 62, 80
12, 111616, Note_on_c, 10, 62, 0
12, 111616, Note_on_c, 10, 67, 80
12, 112128, Note_on_c, 10, 67, 0
12, 112128, Note_on_c, 10, 66, 80
12, 112640, Note_on_c, 10, 66, 0
12, 112640, Note_on_c, 10, 64, 80
12, 113664, Note_on_c, 10, 64, 0
12, 113664, Note_on_c, 10, 62, 80
12, 114688, Note_on_c, 10, 62, 0
12, 114688, Note_on_c, 10, 56, 80
12, 115200, Note_on_c, 10, 56, 0
12, 115200, Note_on_c, 10, 58, 80
12, 115712, Control_c, 10, 7, 100
12, 115712, Note_on_c, 10, 58, 0
12, 115712, Note_on_c, 10, 59, 80
12, 115958, Control_c, 10, 7, 98
12, 116204, Control_c, 10, 7, 96
12, 116449, Control_c, 10, 7, 94
12, 116695, Control_c, 10, 7, 92
12, 116736, Note_on_c, 10, 59, 0
12, 116736, Note_on_c, 10, 61, 80
12, 116941, Control_c, 10, 7, 90
12, 117187, Control_c, 10, 7, 88
12, 117432, Control_c, 10, 7, 86
12, 117678, Control_c, 10, 7, 84
12, 117760, Note_on_c, 10, 61, 0
12, 117760, Note_on_c, 10, 66, 80
12, 117924, Control_c, 10, 7, 82
12, 118170, Control_c, 10, 7, 80
12, 118415, Control_c, 10, 7, 78
12, 118661, Control_c, 10, 7, 76
12, 118784, Note_on_c, 10, 66, 0
12, 118784, Note_on_c, 10, 66, 80
12, 119808, Note_on_c, 10, 66, 0
12, 124928, Control_c, 10, 7, 75
12, 125401, Control_c, 10, 7, 77
12, 125873, Control_c, 10, 7, 79
12, 126346, Control_c, 10, 7, 81
12, 126818, Control_c, 10, 7, 83
12, 127291, Control_c, 10, 7, 85
12, 127764, Control_c, 10, 7, 87
12, 128236, Control_c, 10, 7, 89
12, 128709, Control_c, 10, 7, 91
12, 129182, Control_c, 10, 7, 93
12, 129654, Control_c, 10, 7, 95
12, 130048, Note_on_c, 10, 59, 80
12, 130127, Control_c, 10, 7, 97
12, 130599, Control_c, 10, 7, 99
12, 131072, Control_c, 10, 7, 101
12, 131072, Note_on_c, 10, 59, 0
12, 131072, Note_on_c, 10, 61, 80
12, 131545, Control_c, 10, 7, 103
12, 132017, Control_c, 10, 7, 105
12, 132490, Control_c, 10, 7, 107
12, 132962, Control_c, 10, 7, 109
12, 133435, Control_c, 10, 7, 111
12, 133908, Control_c, 10, 7, 113
12, 134144, Note_on_c, 10, 61, 0
12, 134144, Note_on_c, 10, 62, 80
12, 134380, Control_c, 10, 7, 115
12, 134853, Control_c, 10, 7, 117
12, 135326, Control_c, 10, 7, 119
12, 135798, Control_c, 10, 7, 121
12, 136271, Control_c, 10, 7, 123
12, 136743, Control_c, 10, 7, 125
12, 137216, Note_on_c, 10, 62, 0
12, 137216, Note_on_c, 10, 64, 80
12, 145408, Note_on_c, 10, 64, 0
12, 145408, Note_on_c, 10, 64, 80
12, 146432, Control_c, 10, 7, 127
12, 146432, Note_on_c, 10, 64, 0
12, 146573, Control_c, 10, 7, 125
12, 146595, Control_c, 10, 7, 121
12, 146653, Control_c, 10, 7, 120
12, 146711, Control_c, 10, 7, 119
12, 146769, Control_c, 10, 7, 118
12, 146827, Control_c, 10, 7, 117
12, 146885, Control_c, 10, 7, 116
12, 146943, Control_c, 10, 7, 115
12, 147001, Control_c, 10, 7, 114
12, 147059, Control_c, 10, 7, 113
12, 147117, Control_c, 10, 7, 112
12, 147175, Control_c, 10, 7, 111
12, 147233, Control_c, 10, 7, 110
12, 147291, Control_c, 10, 7, 109
12, 147349, Control_c, 10, 7, 108
12, 147407, Control_c, 10, 7, 107
12, 147456, Note_on_c, 10, 64, 80
12, 147465, Control_c, 10, 7, 106
12, 147523, Control_c, 10, 7, 105
12, 147581, Control_c, 10, 7, 104
12, 147639, Control_c, 10, 7, 103
12, 147697, Control_c, 10, 7, 102
12, 147755, Control_c, 10, 7, 101
12, 147813, Control_c, 10, 7, 100
12, 147871, Control_c, 10, 7, 99
12, 147929, Control_c, 10, 7, 98
12, 147987, Control_c, 10, 7, 97
12, 148045, Control_c, 10, 7, 96
12, 148103, Control_c, 10, 7, 95
12, 148160, Control_c, 10, 7, 94
12, 148218, Control_c, 10, 7, 93
12, 148276, Control_c, 10, 7, 92
12, 148334, Control_c, 10, 7, 91
12, 148392, Control_c, 10, 7, 90
12, 148450, Control_c, 10, 7, 89
12, 148480, Note_on_c, 10, 64, 0
12, 148480, Note_on_c, 10, 52, 80
12, 148508, Control_c, 10, 7, 88
12, 148566, Control_c, 10, 7, 87
12, 148624, Control_c, 10, 7, 86
12, 148682, Control_c, 10, 7, 85
12, 148740, Control_c, 10, 7, 84
12, 148798, Control_c, 10, 7, 83
12, 148856, Control_c, 10, 7, 82
12, 148914, Control_c, 10, 7, 81
12, 148972, Control_c, 10, 7, 80
12, 149030, Control_c, 10, 7, 79
12, 149088, Control_c, 10, 7, 78
12, 149146, Control_c, 10, 7, 77
12, 149204, Control_c, 10, 7, 76
12, 149262, Control_c, 10, 7, 75
12, 149320, Control_c, 10, 7, 74
12, 149378, Control_c, 10, 7, 73
12, 149436, Control_c, 10, 7, 72
12, 149494, Control_c, 10, 7, 71
12, 149504, Note_on_c, 10, 52, 0
12, 149504, Note_on_c, 10, 59, 80
12, 149552, Control_c, 10, 7, 70
12, 149610, Control_c, 10, 7, 69
12, 149667, Control_c, 10, 7, 68
12, 149725, Control_c, 10, 7, 67
12, 149783, Control_c, 10, 7, 66
12, 149841, Control_c, 10, 7, 65
12, 149899, Control_c, 10, 7, 64
12, 149957, Control_c, 10, 7, 63
12, 150015, Control_c, 10, 7, 62
12, 150073, Control_c, 10, 7, 61
12, 150131, Control_c, 10, 7, 60
12, 150189, Control_c, 10, 7, 59
12, 150247, Control_c, 10, 7, 58
12, 150305, Control_c, 10, 7, 57
12, 150363, Control_c, 10, 7, 56
12, 150421, Control_c, 10, 7, 55
12, 150479, Control_c, 10, 7, 54
12, 150537, Control_c, 10, 7, 53
12, 150595, Control_c, 10, 7, 52
12, 150653, Control_c, 10, 7, 51
12, 150711, Control_c, 10, 7, 50
12, 150769, Control_c, 10, 7, 49
12, 150827, Control_c, 10, 7, 48
12, 150885, Control_c, 10, 7, 47
12, 150943, Control_c, 10, 7, 46
12, 151001, Control_c, 10, 7, 45
12, 151059, Control_c, 10, 7, 44
12, 151117, Control_c, 10, 7, 43
12, 151175, Control_c, 10, 7, 42
12, 151232, Control_c, 10, 7, 41
12, 151290, Control_c, 10, 7, 40
12, 151348, Control_c, 10, 7, 39
12, 151406, Control_c, 10, 7, 38
12, 151464, Control_c, 10, 7, 37
12, 151522, Control_c, 10, 7, 36
12, 151580, Control_c, 10, 7, 35
12, 151638, Control_c, 10, 7, 34
12, 151696, Control_c, 10, 7, 33
12, 151754, Control_c, 10, 7, 32
12, 151812, Control_c, 10, 7, 31
12, 151870, Control_c, 10, 7, 30
12, 151928, Control_c, 10, 7, 29
12, 151986, Control_c, 10, 7, 28
12, 152044, Control_c, 10, 7, 27
12, 152102, Control_c, 10, 7, 26
12, 152160, Control_c, 10, 7, 25
12, 152218, Control_c, 10, 7, 24
12, 152276, Control_c, 10, 7, 23
12, 152334, Control_c, 10, 7, 22
12, 152392, Control_c, 10, 7, 21
12, 152450, Control_c, 10, 7, 20
12, 152508, Control_c, 10, 7, 19
12, 152566, Control_c, 10, 7, 18
12, 152576, Note_on_c, 10, 59, 0
12, 152624, Control_c, 10, 7, 17
12, 152682, Control_c, 10, 7, 16
12, 152739, Control_c, 10, 7, 15
12, 153036, Control_c, 10, 7, 127
12, 194560, Note_on_c, 10, 57, 90
12, 196608, Note_on_c, 10, 57, 0
12, 196608, Note_on_c, 10, 57, 84
12, 198656, Note_on_c, 10, 57, 0
12, 198656, Note_on_c, 10, 57, 79
12, 199680, Note_on_c, 10, 57, 0
12, 199680, Note_on_c, 10, 54, 76
12, 200704, Note_on_c, 10, 54, 0
12, 200704, Note_on_c, 10, 51, 74
12, 202752, Note_on_c, 10, 51, 0
12, 206848, Note_on_c, 10, 60, 107
12, 208896, Note_on_c, 10, 60, 0
12, 208896, Note_on_c, 10, 60, 107
12, 210944, Note_on_c, 10, 60, 0
12, 210944, Note_on_c, 10, 60, 97
12, 211968, Note_on_c, 10, 60, 0
12, 211968, Note_on_c, 10, 59, 94
12, 212992, Note_on_c, 10, 59, 0
12, 212992, Note_on_c, 10, 59, 91
12, 215040, Note_on_c, 10, 59, 0
12, 245767, Control_c, 10, 7, 62
12, 247808, Note_on_c, 10, 55, 106
12, 248194, Control_c, 10, 7, 63
12, 248445, Control_c, 10, 7, 64
12, 248695, Control_c, 10, 7, 65
12, 248946, Control_c, 10, 7, 66
12, 249196, Control_c, 10, 7, 67
12, 249447, Control_c, 10, 7, 68
12, 249697, Control_c, 10, 7, 69
12, 249856, Note_on_c, 10, 55, 0
12, 249856, Note_on_c, 10, 57, 106
12, 249948, Control_c, 10, 7, 70
12, 250198, Control_c, 10, 7, 71
12, 250449, Control_c, 10, 7, 72
12, 250700, Control_c, 10, 7, 73
12, 250950, Control_c, 10, 7, 74
12, 251201, Control_c, 10, 7, 75
12, 251451, Control_c, 10, 7, 76
12, 251702, Control_c, 10, 7, 77
12, 251904, Note_on_c, 10, 57, 0
12, 251904, Note_on_c, 10, 59, 106
12, 251952, Control_c, 10, 7, 78
12, 252203, Control_c, 10, 7, 79
12, 252453, Control_c, 10, 7, 80
12, 252704, Control_c, 10, 7, 81
12, 252955, Control_c, 10, 7, 82
12, 253205, Control_c, 10, 7, 83
12, 253456, Control_c, 10, 7, 84
12, 253706, Control_c, 10, 7, 85
12, 253952, Note_on_c, 10, 59, 0
12, 253952, Note_on_c, 10, 60, 105
12, 253957, Control_c, 10, 7, 86
12, 254207, Control_c, 10, 7, 87
12, 254458, Control_c, 10, 7, 88
12, 254708, Control_c, 10, 7, 89
12, 254959, Control_c, 10, 7, 90
12, 255210, Control_c, 10, 7, 91
12, 255460, Control_c, 10, 7, 92
12, 255711, Control_c, 10, 7, 93
12, 255961, Control_c, 10, 7, 94
12, 256212, Control_c, 10, 7, 95
12, 256462, Control_c, 10, 7, 96
12, 256713, Control_c, 10, 7, 97
12, 256963, Control_c, 10, 7, 98
12, 257214, Control_c, 10, 7, 99
12, 257465, Control_c, 10, 7, 100
12, 257715, Control_c, 10, 7, 101
12, 257966, Control_c, 10, 7, 102
12, 258216, Control_c, 10, 7, 103
12, 258467, Control_c, 10, 7, 104
12, 258717, Control_c, 10, 7, 105
12, 258968, Control_c, 10, 7, 106
12, 259218, Control_c, 10, 7, 107
12, 259469, Control_c, 10, 7, 108
12, 259719, Control_c, 10, 7, 109
12, 260010, Control_c, 10, 7, 108
12, 260172, Control_c, 10, 7, 107
12, 260335, Control_c, 10, 7, 106
12, 260497, Control_c, 10, 7, 105
12, 260660, Control_c, 10, 7, 104
12, 260822, Control_c, 10, 7, 103
12, 260985, Control_c, 10, 7, 102
12, 261147, Control_c, 10, 7, 101
12, 261310, Control_c, 10, 7, 100
12, 261472, Control_c, 10, 7, 99
12, 261635, Control_c, 10, 7, 98
12, 261797, Control_c, 10, 7, 97
12, 261959, Control_c, 10, 7, 96
12, 262122, Control_c, 10, 7, 95
12, 262144, Note_on_c, 10, 60, 0
12, 262144, Note_on_c, 10, 59, 105
12, 262284, Control_c, 10, 7, 94
12, 262447, Control_c, 10, 7, 93
12, 262609, Control_c, 10, 7, 92
12, 262772, Control_c, 10, 7, 91
12, 262934, Control_c, 10, 7, 90
12, 263097, Control_c, 10, 7, 89
12, 263259, Control_c, 10, 7, 88
12, 263422, Control_c, 10, 7, 87
12, 263584, Control_c, 10, 7, 86
12, 263747, Control_c, 10, 7, 85
12, 263782, Note_on_c, 10, 59, 0
12, 263909, Control_c, 10, 7, 84
12, 264071, Control_c, 10, 7, 80
12, 264192, Note_on_c, 10, 59, 88
12, 264486, Control_c, 10, 7, 79
12, 264901, Control_c, 10, 7, 78
12, 265316, Control_c, 10, 7, 77
12, 265731, Control_c, 10, 7, 76
12, 266146, Control_c, 10, 7, 75
12, 266561, Control_c, 10, 7, 74
12, 266976, Control_c, 10, 7, 73
12, 267264, Note_on_c, 10, 59, 0
12, 267264, Note_on_c, 10, 57, 88
12, 267391, Control_c, 10, 7, 72
12, 267806, Control_c, 10, 7, 71
12, 268220, Control_c, 10, 7, 70
12, 268288, Note_on_c, 10, 57, 0
12, 268288, Note_on_c, 10, 57, 88
12, 268635, Control_c, 10, 7, 69
12, 269050, Control_c, 10, 7, 68
12, 269465, Control_c, 10, 7, 67
12, 269880, Control_c, 10, 7, 66
12, 270295, Control_c, 10, 7, 65
12, 270710, Control_c, 10, 7, 64
12, 271125, Control_c, 10, 7, 63
12, 271360, Note_on_c, 10, 57, 0
12, 271360, Note_on_c, 10, 59, 87
12, 271540, Control_c, 10, 7, 62
12, 271955, Control_c, 10, 7, 61
12, 272369, Control_c, 10, 7, 60
12, 272384, Note_on_c, 10, 59, 0
12, 272384, Note_on_c, 10, 59, 87
12, 272784, Control_c, 10, 7, 59
12, 273199, Control_c, 10, 7, 58
12, 273614, Control_c, 10, 7, 57
12, 274029, Control_c, 10, 7, 56
12, 274432, Note_on_c, 10, 59, 0
12, 274432, Note_on_c, 10, 59, 87
12, 274444, Control_c, 10, 7, 55
12, 274859, Control_c, 10, 7, 54
12, 275274, Control_c, 10, 7, 53
12, 275689, Control_c, 10, 7, 52
12, 276103, Control_c, 10, 7, 51
12, 276480, Note_on_c, 10, 59, 0
12, 290439, Control_c, 10, 7, 78
12, 290759, Control_c, 10, 7, 79
12, 291079, Control_c, 10, 7, 80
12, 292864, Note_on_c, 10, 64, 104
12, 297984, Note_on_c, 10, 64, 0
12, 297984, Note_on_c, 10, 63, 91
12, 299008, Note_on_c, 10, 63, 0
12, 299008, Note_on_c, 10, 63, 88
12, 301056, Note_on_c, 10, 63, 0
12, 301056, Note_on_c, 10, 62, 85
12, 305152, Note_on_c, 10, 62, 0
12, 305152, Note_on_c, 10, 61, 80
12, 306176, Note_on_c, 10, 61, 0
12, 306176, Note_on_c, 10, 59, 79
12, 307200, Note_on_c, 10, 59, 0
12, 307200, Note_on_c, 10, 60, 78
12, 311296, Note_on_c, 10, 60, 0
12, 311296, Note_on_c, 10, 59, 72
12, 312320, Note_on_c, 10, 59, 0
12, 312320, Note_on_c, 10, 57, 71
12, 313344, Note_on_c, 10, 57, 0
12, 313344, Note_on_c, 10, 59, 70
12, 315392, Note_on_c, 10, 59, 0
12, 315392, Note_on_c, 10, 52, 61
12, 317440, Note_on_c, 10, 52, 0
12, 317440, Note_on_c, 10, 55, 61
12, 318464, Note_on_c, 10, 55, 0
12, 318464, Note_on_c, 10, 54, 60
12, 319488, Note_on_c, 10, 54, 0
12, 319488, Note_on_c, 10, 54, 60
12, 320512, Note_on_c, 10, 54, 0
12, 320512, Note_on_c, 10, 52, 60
12, 321536, Note_on_c, 10, 52, 0
12, 321536, Note_on_c, 10, 59, 60
12, 327680, Note_on_c, 10, 59, 0
12, 327680, Note_on_c, 10, 59, 61
12, 329318, Note_on_c, 10, 59, 0
12, 329728, Note_on_c, 10, 58, 61
12, 331776, Note_on_c, 10, 58, 0
12, 331776, Note_on_c, 10, 61, 61
12, 333824, Note_on_c, 10, 61, 0
12, 333824, Note_on_c, 10, 54, 59
12, 335872, Note_on_c, 10, 54, 0
12, 335872, Note_on_c, 10, 56, 62
12, 337920, Note_on_c, 10, 56, 0
12, 337920, Note_on_c, 10, 59, 65
12, 339968, Note_on_c, 10, 59, 0
12, 339968, Note_on_c, 10, 52, 67
12, 341606, Note_on_c, 10, 52, 0
12, 342016, Note_on_c, 10, 54, 70
12, 343040, Note_on_c, 10, 54, 0
12, 343040, Note_on_c, 10, 55, 71
12, 344064, Note_on_c, 10, 55, 0
12, 344064, Note_on_c, 10, 57, 72
12, 346112, Note_on_c, 10, 57, 0
12, 346112, Note_on_c, 10, 59, 75
12, 350208, Note_on_c, 10, 59, 0
12, 350208, Note_on_c, 10, 59, 75
12, 352256, Note_on_c, 10, 59, 0
12, 352256, Note_on_c, 10, 59, 74
12, 353894, Note_on_c, 10, 59, 0
12, 354304, Note_on_c, 10, 57, 74
12, 356352, Note_on_c, 10, 57, 0
12, 356352, Note_on_c, 10, 55, 75
12, 358400, Note_on_c, 10, 55, 0
12, 358400, Note_on_c, 10, 57, 75
12, 358407, Control_c, 10, 7, 85
12, 358554, Control_c, 10, 7, 86
12, 358701, Control_c, 10, 7, 87
12, 358848, Control_c, 10, 7, 88
12, 358994, Control_c, 10, 7, 89
12, 359141, Control_c, 10, 7, 90
12, 359288, Control_c, 10, 7, 91
12, 359435, Control_c, 10, 7, 92
12, 359581, Control_c, 10, 7, 93
12, 359728, Control_c, 10, 7, 94
12, 359875, Control_c, 10, 7, 95
12, 360022, Control_c, 10, 7, 96
12, 360168, Control_c, 10, 7, 97
12, 360315, Control_c, 10, 7, 98
12, 360448, Note_on_c, 10, 57, 0
12, 360448, Note_on_c, 10, 55, 75
12, 360462, Control_c, 10, 7, 99
12, 360608, Control_c, 10, 7, 100
12, 360755, Control_c, 10, 7, 101
12, 360902, Control_c, 10, 7, 102
12, 361049, Control_c, 10, 7, 103
12, 361195, Control_c, 10, 7, 104
12, 361342, Control_c, 10, 7, 105
12, 361472, Note_on_c, 10, 55, 0
12, 361472, Note_on_c, 10, 54, 75
12, 361489, Control_c, 10, 7, 106
12, 361636, Control_c, 10, 7, 107
12, 361782, Control_c, 10, 7, 108
12, 361929, Control_c, 10, 7, 109
12, 362076, Control_c, 10, 7, 110
12, 362223, Control_c, 10, 7, 111
12, 362369, Control_c, 10, 7, 112
12, 362496, Note_on_c, 10, 54, 0
12, 362496, Note_on_c, 10, 52, 75
12, 362516, Control_c, 10, 7, 113
12, 362663, Control_c, 10, 7, 114
12, 362809, Control_c, 10, 7, 115
12, 362956, Control_c, 10, 7, 116
12, 363103, Control_c, 10, 7, 117
12, 363250, Control_c, 10, 7, 118
12, 363396, Control_c, 10, 7, 119
12, 363520, Note_on_c, 10, 52, 0
12, 363520, Note_on_c, 10, 54, 75
12, 363543, Control_c, 10, 7, 120
12, 363690, Control_c, 10, 7, 121
12, 363837, Control_c, 10, 7, 122
12, 363983, Control_c, 10, 7, 123
12, 364130, Control_c, 10, 7, 124
12, 364277, Control_c, 10, 7, 125
12, 364295, Control_c, 10, 7, 126
12, 364476, Control_c, 10, 7, 125
12, 364544, Note_on_c, 10, 54, 0
12, 364544, Note_on_c, 10, 55, 76
12, 364657, Control_c, 10, 7, 124
12, 364838, Control_c, 10, 7, 123
12, 365018, Control_c, 10, 7, 122
12, 365199, Control_c, 10, 7, 121
12, 365380, Control_c, 10, 7, 120
12, 365560, Control_c, 10, 7, 119
12, 365741, Control_c, 10, 7, 118
12, 365922, Control_c, 10, 7, 117
12, 366103, Control_c, 10, 7, 116
12, 366283, Control_c, 10, 7, 115
12, 366464, Control_c, 10, 7, 114
12, 366592, Note_on_c, 10, 55, 0
12, 366592, Note_on_c, 10, 54, 76
12, 366645, Control_c, 10, 7, 113
12, 366825, Control_c, 10, 7, 112
12, 367006, Control_c, 10, 7, 111
12, 367187, Control_c, 10, 7, 110
12, 367367, Control_c, 10, 7, 109
12, 367548, Control_c, 10, 7, 108
12, 367729, Control_c, 10, 7, 107
12, 367910, Control_c, 10, 7, 106
12, 368090, Control_c, 10, 7, 105
12, 368271, Control_c, 10, 7, 104
12, 368452, Control_c, 10, 7, 103
12, 368632, Control_c, 10, 7, 102
12, 368640, Note_on_c, 10, 54, 0
12, 368640, Note_on_c, 10, 52, 76
12, 368813, Control_c, 10, 7, 101
12, 368994, Control_c, 10, 7, 100
12, 369175, Control_c, 10, 7, 99
12, 369355, Control_c, 10, 7, 98
12, 369536, Control_c, 10, 7, 97
12, 369717, Control_c, 10, 7, 96
12, 369897, Control_c, 10, 7, 95
12, 370078, Control_c, 10, 7, 94
12, 370259, Control_c, 10, 7, 93
12, 370439, Control_c, 10, 7, 92
12, 370620, Control_c, 10, 7, 91
12, 370688, Note_on_c, 10, 52, 0
12, 370688, Note_on_c, 10, 54, 76
12, 370801, Control_c, 10, 7, 90
12, 370982, Control_c, 10, 7, 89
12, 371162, Control_c, 10, 7, 88
12, 371343, Control_c, 10, 7, 87
12, 371524, Control_c, 10, 7, 86
12, 371704, Control_c, 10, 7, 85
12, 371885, Control_c, 10, 7, 84
12, 372066, Control_c, 10, 7, 83
12, 372247, Control_c, 10, 7, 82
12, 372427, Control_c, 10, 7, 81
12, 372608, Control_c, 10, 7, 80
12, 372789, Control_c, 10, 7, 79
12, 372969, Control_c, 10, 7, 78
12, 373150, Control_c, 10, 7, 77
12, 373331, Control_c, 10, 7, 76
12, 373511, Control_c, 10, 7, 75
12, 373692, Control_c, 10, 7, 74
12, 373873, Control_c, 10, 7, 73
12, 374054, Control_c, 10, 7, 72
12, 374234, Control_c, 10, 7, 71
12, 374415, Control_c, 10, 7, 70
12, 374596, Control_c, 10, 7, 69
12, 374776, Control_c, 10, 7, 68
12, 374957, Control_c, 10, 7, 67
12, 375138, Control_c, 10, 7, 66
12, 375319, Control_c, 10, 7, 65
12, 375499, Control_c, 10, 7, 64
12, 375680, Control_c, 10, 7, 63
12, 375861, Control_c, 10, 7, 62
12, 376041, Control_c, 10, 7, 61
12, 376222, Control_c, 10, 7, 60
12, 376403, Control_c, 10, 7, 59
12, 376583, Control_c, 10, 7, 58
12, 376832, Note_on_c, 10, 54, 0
12, 388743, Control_c, 10, 7, 106
12, 391168, Note_on_c, 10, 57, 101
12, 397312, Note_on_c, 10, 57, 0
12, 397312, Note_on_c, 10, 60, 101
12, 399360, Note_on_c, 10, 60, 0
12, 399360, Note_on_c, 10, 59, 101
12, 401408, Note_on_c, 10, 59, 0
12, 401408, Note_on_c, 10, 56, 101
12, 405504, Note_on_c, 10, 56, 0
12, 405504, Note_on_c, 10, 56, 101
12, 407552, Note_on_c, 10, 56, 0
12, 421888, Note_on_c, 10, 59, 100
12, 422912, Note_on_c, 10, 59, 0
12, 422912, Note_on_c, 10, 57, 100
12, 423936, Note_on_c, 10, 57, 0
12, 423936, Note_on_c, 10, 59, 100
12, 424960, Note_on_c, 10, 59, 0
12, 424960, Note_on_c, 10, 54, 100
12, 425984, Note_on_c, 10, 54, 0
12, 425984, Note_on_c, 10, 55, 100
12, 428032, Note_on_c, 10, 55, 0
12, 428032, Note_on_c, 10, 52, 100
12, 430080, Note_on_c, 10, 52, 0
12, 433927, Control_c, 10, 7, 104
12, 434176, Note_on_c, 10, 59, 88
12, 434631, Control_c, 10, 7, 103
12, 435335, Control_c, 10, 7, 102
12, 436039, Control_c, 10, 7, 101
12, 436224, Note_on_c, 10, 59, 0
12, 436224, Note_on_c, 10, 56, 87
12, 436743, Control_c, 10, 7, 100
12, 437447, Control_c, 10, 7, 99
12, 438151, Control_c, 10, 7, 98
12, 438855, Control_c, 10, 7, 97
12, 439559, Control_c, 10, 7, 96
12, 440263, Control_c, 10, 7, 95
12, 440320, Note_on_c, 10, 56, 0
12, 440320, Note_on_c, 10, 57, 86
12, 440967, Control_c, 10, 7, 94
12, 441671, Control_c, 10, 7, 93
12, 442368, Note_on_c, 10, 57, 0
12, 442368, Note_on_c, 10, 57, 85
12, 442375, Control_c, 10, 7, 92
12, 443079, Control_c, 10, 7, 91
12, 443783, Control_c, 10, 7, 90
12, 444416, Note_on_c, 10, 57, 0
12, 444416, Note_on_c, 10, 59, 84
12, 444487, Control_c, 10, 7, 89
12, 445191, Control_c, 10, 7, 88
12, 445440, Note_on_c, 10, 59, 0
12, 445440, Note_on_c, 10, 60, 84
12, 445895, Control_c, 10, 7, 87
12, 446464, Note_on_c, 10, 60, 0
12, 446464, Note_on_c, 10, 51, 83
12, 446599, Control_c, 10, 7, 86
12, 447303, Control_c, 10, 7, 85
12, 448007, Control_c, 10, 7, 84
12, 448711, Control_c, 10, 7, 83
12, 449415, Control_c, 10, 7, 82
12, 450119, Control_c, 10, 7, 81
12, 450560, Note_on_c, 10, 51, 0
12, 450560, Note_on_c, 10, 52, 81
12, 450823, Control_c, 10, 7, 80
12, 451527, Control_c, 10, 7, 79
12, 452231, Control_c, 10, 7, 78
12, 452935, Control_c, 10, 7, 77
12, 453639, Control_c, 10, 7, 76
12, 453837, Note_on_c, 10, 52, 0
12, 454656, Note_on_c, 10, 52, 99
12, 454791, Control_c, 10, 7, 74
12, 455275, Control_c, 10, 7, 73
12, 455759, Control_c, 10, 7, 72
12, 456242, Control_c, 10, 7, 71
12, 456704, Note_on_c, 10, 52, 0
12, 456704, Note_on_c, 10, 54, 99
12, 456726, Control_c, 10, 7, 70
12, 457209, Control_c, 10, 7, 69
12, 457693, Control_c, 10, 7, 68
12, 458176, Control_c, 10, 7, 67
12, 458660, Control_c, 10, 7, 66
12, 459143, Control_c, 10, 7, 65
12, 459627, Control_c, 10, 7, 64
12, 460111, Control_c, 10, 7, 63
12, 460594, Control_c, 10, 7, 62
12, 460800, Note_on_c, 10, 54, 0
12, 460800, Note_on_c, 10, 56, 99
12, 461078, Control_c, 10, 7, 61
12, 461561, Control_c, 10, 7, 60
12, 462045, Control_c, 10, 7, 59
12, 462528, Control_c, 10, 7, 58
12, 463012, Control_c, 10, 7, 57
12, 463495, Control_c, 10, 7, 56
12, 463979, Control_c, 10, 7, 55
12, 464463, Control_c, 10, 7, 54
12, 464896, Note_on_c, 10, 56, 0
12, 464896, Note_on_c, 10, 57, 99
12, 464946, Control_c, 10, 7, 53
12, 465430, Control_c, 10, 7, 52
12, 465913, Control_c, 10, 7, 51
12, 466397, Control_c, 10, 7, 50
12, 466534, Note_on_c, 10, 57, 0
12, 466880, Control_c, 10, 7, 49
12, 466944, Note_on_c, 10, 55, 99
12, 467364, Control_c, 10, 7, 48
12, 467847, Control_c, 10, 7, 47
12, 468331, Control_c, 10, 7, 46
12, 468815, Control_c, 10, 7, 45
12, 468992, Note_on_c, 10, 55, 0
12, 468992, Note_on_c, 10, 55, 99
12, 469298, Control_c, 10, 7, 44
12, 469782, Control_c, 10, 7, 43
12, 470265, Control_c, 10, 7, 42
12, 470749, Control_c, 10, 7, 41
12, 471232, Control_c, 10, 7, 40
12, 471716, Control_c, 10, 7, 39
12, 472199, Control_c, 10, 7, 38
12, 472683, Control_c, 10, 7, 37
12, 473088, Note_on_c, 10, 55, 0
12, 473088, Note_on_c, 10, 54, 99
12, 473167, Control_c, 10, 7, 36
12, 473650, Control_c, 10, 7, 35
12, 474134, Control_c, 10, 7, 34
12, 474617, Control_c, 10, 7, 33
12, 475101, Control_c, 10, 7, 32
12, 475136, Note_on_c, 10, 54, 0
12, 475136, Note_on_c, 10, 50, 99
12, 475584, Control_c, 10, 7, 31
12, 476068, Control_c, 10, 7, 30
12, 476551, Control_c, 10, 7, 29
12, 477035, Control_c, 10, 7, 28
12, 477519, Control_c, 10, 7, 27
12, 478002, Control_c, 10, 7, 26
12, 478486, Control_c, 10, 7, 25
12, 478969, Control_c, 10, 7, 24
12, 479453, Control_c, 10, 7, 23
12, 479936, Control_c, 10, 7, 22
12, 480420, Control_c, 10, 7, 21
12, 480903, Control_c, 10, 7, 20
12, 481280, Note_on_c, 10, 50, 0
12, 487424, End_track
13, 0, Start_track
13, 0, Title_t, "Bass"
13, 0, Program_c, 11, 53
13, 0, Control_c, 11, 121, 127
13, 0, Control_c, 11, 91, 127
13, 0, Control_c, 11, 10, 100
13, 0, Control_c, 11, 1, 25
13, 8192, Control_c, 11, 7, 80
13, 23552, Note_on_c, 11, 59, 80
13, 24576, Note_on_c, 11, 59, 0
13, 24576, Note_on_c, 11, 54, 80
13, 25600, Note_on_c, 11, 54, 0
13, 25600, Note_on_c, 11, 50, 80
13, 26624, Note_on_c, 11, 50, 0
13, 26624, Note_on_c, 11, 48, 80
13, 28672, Note_on_c, 11, 48, 0
13, 28672, Note_on_c, 11, 48, 80
13, 29696, Note_on_c, 11, 48, 0
13, 29696, Note_on_c, 11, 47, 80
13, 30088, Control_c, 11, 7, 82
13, 30480, Control_c, 11, 7, 84
13, 30873, Control_c, 11, 7, 86
13, 31265, Control_c, 11, 7, 88
13, 31334, Note_on_c, 11, 47, 0
13, 31657, Control_c, 11, 7, 90
13, 31744, Note_on_c, 11, 59, 80
13, 32049, Control_c, 11, 7, 92
13, 32441, Control_c, 11, 7, 94
13, 32768, Note_on_c, 11, 59, 0
13, 32768, Note_on_c, 11, 57, 80
13, 32833, Control_c, 11, 7, 96
13, 33226, Control_c, 11, 7, 98
13, 33618, Control_c, 11, 7, 100
13, 33792, Note_on_c, 11, 57, 0
13, 33792, Note_on_c, 11, 56, 80
13, 34010, Control_c, 11, 7, 102
13, 34402, Control_c, 11, 7, 104
13, 34794, Control_c, 11, 7, 106
13, 34816, Note_on_c, 11, 56, 0
13, 34816, Note_on_c, 11, 54, 80
13, 35186, Control_c, 11, 7, 108
13, 35579, Control_c, 11, 7, 110
13, 35840, Note_on_c, 11, 54, 0
13, 35840, Note_on_c, 11, 50, 80
13, 35971, Control_c, 11, 7, 112
13, 36363, Control_c, 11, 7, 114
13, 36755, Control_c, 11, 7, 116
13, 37147, Control_c, 11, 7, 118
13, 37539, Control_c, 11, 7, 120
13, 37932, Control_c, 11, 7, 122
13, 38324, Control_c, 11, 7, 124
13, 38716, Control_c, 11, 7, 126
13, 38912, Note_on_c, 11, 50, 0
13, 38912, Note_on_c, 11, 49, 80
13, 39805, Control_c, 11, 7, 80
13, 40960, Note_on_c, 11, 49, 0
13, 43008, Note_on_c, 11, 54, 80
13, 44032, Note_on_c, 11, 54, 0
13, 44032, Note_on_c, 11, 54, 80
13, 45056, Note_on_c, 11, 54, 0
13, 45056, Note_on_c, 11, 52, 80
13, 47104, Note_on_c, 11, 52, 0
13, 47104, Note_on_c, 11, 52, 80
13, 48128, Note_on_c, 11, 52, 0
13, 48128, Note_on_c, 11, 51, 80
13, 49152, Note_on_c, 11, 51, 0
13, 49152, Note_on_c, 11, 56, 80
13, 50176, Note_on_c, 11, 56, 0
13, 50176, Note_on_c, 11, 54, 80
13, 51200, Note_on_c, 11, 54, 0
13, 51200, Note_on_c, 11, 53, 80
13, 52019, Note_on_c, 11, 53, 0
13, 52224, Note_on_c, 11, 54, 80
13, 53248, Note_on_c, 11, 54, 0
13, 53248, Note_on_c, 11, 56, 80
13, 54272, Note_on_c, 11, 56, 0
13, 54272, Note_on_c, 11, 56, 80
13, 55296, Note_on_c, 11, 56, 0
13, 55296, Note_on_c, 11, 57, 80
13, 56320, Note_on_c, 11, 57, 0
13, 56320, Note_on_c, 11, 59, 80
13, 57344, Note_on_c, 11, 59, 0
13, 57344, Note_on_c, 11, 61, 80
13, 59392, Note_on_c, 11, 61, 0
13, 59392, Note_on_c, 11, 49, 80
13, 60416, Control_c, 11, 7, 100
13, 60416, Note_on_c, 11, 49, 0
13, 60416, Note_on_c, 11, 54, 80
13, 60419, Control_c, 11, 7, 127
13, 60788, Control_c, 11, 7, 126
13, 60870, Control_c, 11, 7, 125
13, 60931, Control_c, 11, 7, 124
13, 60993, Control_c, 11, 7, 123
13, 61054, Control_c, 11, 7, 122
13, 61116, Control_c, 11, 7, 121
13, 61157, Control_c, 11, 7, 120
13, 61198, Control_c, 11, 7, 119
13, 61239, Control_c, 11, 7, 118
13, 61280, Control_c, 11, 7, 117
13, 61321, Control_c, 11, 7, 116
13, 61362, Control_c, 11, 7, 115
13, 61382, Control_c, 11, 7, 114
13, 61423, Control_c, 11, 7, 113
13, 61443, Control_c, 11, 7, 112
13, 61484, Control_c, 11, 7, 111
13, 61525, Control_c, 11, 7, 110
13, 61546, Control_c, 11, 7, 109
13, 61566, Control_c, 11, 7, 108
13, 61607, Control_c, 11, 7, 107
13, 61628, Control_c, 11, 7, 106
13, 61648, Control_c, 11, 7, 105
13, 61689, Control_c, 11, 7, 104
13, 61710, Control_c, 11, 7, 103
13, 61730, Control_c, 11, 7, 102
13, 61751, Control_c, 11, 7, 101
13, 61792, Control_c, 11, 7, 100
13, 61812, Control_c, 11, 7, 99
13, 61833, Control_c, 11, 7, 98
13, 61853, Control_c, 11, 7, 97
13, 61874, Control_c, 11, 7, 96
13, 61894, Control_c, 11, 7, 95
13, 61915, Control_c, 11, 7, 94
13, 61935, Control_c, 11, 7, 93
13, 61955, Control_c, 11, 7, 92
13, 61996, Control_c, 11, 7, 91
13, 62017, Control_c, 11, 7, 90
13, 62037, Control_c, 11, 7, 89
13, 62058, Control_c, 11, 7, 88
13, 62078, Control_c, 11, 7, 87
13, 62099, Control_c, 11, 7, 85
13, 62119, Control_c, 11, 7, 84
13, 62140, Control_c, 11, 7, 83
13, 62160, Control_c, 11, 7, 82
13, 62181, Control_c, 11, 7, 81
13, 62201, Control_c, 11, 7, 80
13, 62222, Control_c, 11, 7, 79
13, 62242, Control_c, 11, 7, 78
13, 62263, Control_c, 11, 7, 77
13, 62283, Control_c, 11, 7, 76
13, 62304, Control_c, 11, 7, 74
13, 62324, Control_c, 11, 7, 73
13, 62345, Control_c, 11, 7, 72
13, 62365, Control_c, 11, 7, 71
13, 62386, Control_c, 11, 7, 70
13, 62406, Control_c, 11, 7, 68
13, 62427, Control_c, 11, 7, 67
13, 62447, Control_c, 11, 7, 66
13, 62464, Note_on_c, 11, 54, 0
13, 62467, Control_c, 11, 7, 53
13, 81920, Control_c, 11, 7, 80
13, 81920, Note_on_c, 11, 61, 80
13, 82443, Control_c, 11, 7, 82
13, 82944, Note_on_c, 11, 61, 0
13, 82944, Note_on_c, 11, 57, 80
13, 82966, Control_c, 11, 7, 84
13, 83489, Control_c, 11, 7, 86
13, 83968, Note_on_c, 11, 57, 0
13, 83968, Note_on_c, 11, 54, 80
13, 84012, Control_c, 11, 7, 88
13, 84534, Control_c, 11, 7, 90
13, 84992, Note_on_c, 11, 54, 0
13, 84992, Note_on_c, 11, 51, 80
13, 85057, Control_c, 11, 7, 92
13, 85580, Control_c, 11, 7, 94
13, 86103, Control_c, 11, 7, 96
13, 86626, Control_c, 11, 7, 98
13, 87040, Note_on_c, 11, 51, 0
13, 87040, Note_on_c, 11, 51, 80
13, 87149, Control_c, 11, 7, 100
13, 87672, Control_c, 11, 7, 102
13, 88064, Note_on_c, 11, 51, 0
13, 88064, Note_on_c, 11, 52, 80
13, 88195, Control_c, 11, 7, 104
13, 88718, Control_c, 11, 7, 106
13, 89241, Control_c, 11, 7, 108
13, 89702, Note_on_c, 11, 52, 0
13, 89763, Control_c, 11, 7, 110
13, 90112, Note_on_c, 11, 52, 80
13, 90286, Control_c, 11, 7, 112
13, 90809, Control_c, 11, 7, 114
13, 91136, Note_on_c, 11, 52, 0
13, 91136, Note_on_c, 11, 46, 80
13, 91332, Control_c, 11, 7, 116
13, 91855, Control_c, 11, 7, 118
13, 92378, Control_c, 11, 7, 120
13, 92901, Control_c, 11, 7, 122
13, 93184, Note_on_c, 11, 46, 0
13, 93184, Note_on_c, 11, 58, 80
13, 93424, Control_c, 11, 7, 124
13, 93947, Control_c, 11, 7, 126
13, 94208, Control_c, 11, 7, 127
13, 94208, Note_on_c, 11, 58, 0
13, 94208, Note_on_c, 11, 59, 80
13, 94339, Control_c, 11, 7, 125
13, 94469, Control_c, 11, 7, 123
13, 94600, Control_c, 11, 7, 121
13, 94731, Control_c, 11, 7, 119
13, 94862, Control_c, 11, 7, 117
13, 94992, Control_c, 11, 7, 115
13, 95123, Control_c, 11, 7, 113
13, 95232, Note_on_c, 11, 59, 0
13, 95232, Note_on_c, 11, 53, 80
13, 95254, Control_c, 11, 7, 111
13, 95385, Control_c, 11, 7, 109
13, 95515, Control_c, 11, 7, 107
13, 95646, Control_c, 11, 7, 105
13, 95777, Control_c, 11, 7, 103
13, 95907, Control_c, 11, 7, 101
13, 96038, Control_c, 11, 7, 99
13, 96169, Control_c, 11, 7, 97
13, 96300, Control_c, 11, 7, 95
13, 96430, Control_c, 11, 7, 93
13, 96561, Control_c, 11, 7, 91
13, 96692, Control_c, 11, 7, 89
13, 96822, Control_c, 11, 7, 87
13, 96953, Control_c, 11, 7, 85
13, 97084, Control_c, 11, 7, 83
13, 97215, Control_c, 11, 7, 81
13, 97280, Note_on_c, 11, 53, 0
13, 97280, Note_on_c, 11, 54, 80
13, 98304, Note_on_c, 11, 54, 0
13, 101376, Note_on_c, 11, 59, 80
13, 102400, Note_on_c, 11, 59, 0
13, 102400, Note_on_c, 11, 59, 80
13, 103424, Control_c, 11, 7, 80
13, 103424, Note_on_c, 11, 59, 0
13, 103424, Note_on_c, 11, 57, 80
13, 103731, Control_c, 11, 7, 82
13, 104038, Control_c, 11, 7, 84
13, 104346, Control_c, 11, 7, 86
13, 104653, Control_c, 11, 7, 88
13, 104960, Control_c, 11, 7, 90
13, 105267, Control_c, 11, 7, 92
13, 105472, Note_on_c, 11, 57, 0
13, 105472, Note_on_c, 11, 57, 80
13, 105574, Control_c, 11, 7, 94
13, 105882, Control_c, 11, 7, 96
13, 106189, Control_c, 11, 7, 98
13, 106496, Note_on_c, 11, 57, 0
13, 106496, Note_on_c, 11, 56, 80
13, 107520, Note_on_c, 11, 56, 0
13, 107520, Note_on_c, 11, 61, 80
13, 108544, Note_on_c, 11, 61, 0
13, 108544, Note_on_c, 11, 59, 80
13, 109568, Note_on_c, 11, 59, 0
13, 109568, Note_on_c, 11, 58, 80
13, 110387, Note_on_c, 11, 58, 0
13, 110592, Note_on_c, 11, 59, 80
13, 111616, Note_on_c, 11, 59, 0
13, 111616, Note_on_c, 11, 61, 80
13, 113664, Note_on_c, 11, 61, 0
13, 113664, Note_on_c, 11, 62, 80
13, 114688, Note_on_c, 11, 62, 0
13, 114688, Note_on_c, 11, 53, 80
13, 115712, Control_c, 11, 7, 100
13, 115712, Note_on_c, 11, 53, 0
13, 115712, Note_on_c, 11, 54, 80
13, 115958, Control_c, 11, 7, 98
13, 116204, Control_c, 11, 7, 96
13, 116449, Control_c, 11, 7, 94
13, 116695, Control_c, 11, 7, 92
13, 116941, Control_c, 11, 7, 90
13, 117187, Control_c, 11, 7, 88
13, 117432, Control_c, 11, 7, 86
13, 117678, Control_c, 11, 7, 84
13, 117760, Note_on_c, 11, 54, 0
13, 117760, Note_on_c, 11, 54, 80
13, 117924, Control_c, 11, 7, 82
13, 118170, Control_c, 11, 7, 80
13, 118415, Control_c, 11, 7, 78
13, 118661, Control_c, 11, 7, 76
13, 118784, Note_on_c, 11, 54, 0
13, 118784, Note_on_c, 11, 47, 80
13, 119808, Note_on_c, 11, 47, 0
13, 124928, Control_c, 11, 7, 75
13, 125401, Control_c, 11, 7, 77
13, 125873, Control_c, 11, 7, 79
13, 126346, Control_c, 11, 7, 81
13, 126818, Control_c, 11, 7, 83
13, 127291, Control_c, 11, 7, 85
13, 127764, Control_c, 11, 7, 87
13, 128000, Note_on_c, 11, 47, 80
13, 128236, Control_c, 11, 7, 89
13, 128709, Control_c, 11, 7, 91
13, 129024, Note_on_c, 11, 47, 0
13, 129024, Note_on_c, 11, 50, 80
13, 129182, Control_c, 11, 7, 93
13, 129654, Control_c, 11, 7, 95
13, 130048, Note_on_c, 11, 50, 0
13, 130048, Note_on_c, 11, 52, 80
13, 130127, Control_c, 11, 7, 97
13, 130599, Control_c, 11, 7, 99
13, 131072, Control_c, 11, 7, 101
13, 131072, Note_on_c, 11, 52, 0
13, 131072, Note_on_c, 11, 49, 80
13, 131545, Control_c, 11, 7, 103
13, 132017, Control_c, 11, 7, 105
13, 132096, Note_on_c, 11, 49, 0
13, 132096, Note_on_c, 11, 52, 80
13, 132490, Control_c, 11, 7, 107
13, 132962, Control_c, 11, 7, 109
13, 133120, Note_on_c, 11, 52, 0
13, 133120, Note_on_c, 11, 54, 80
13, 133435, Control_c, 11, 7, 111
13, 133908, Control_c, 11, 7, 113
13, 134144, Note_on_c, 11, 54, 0
13, 134144, Note_on_c, 11, 50, 80
13, 134380, Control_c, 11, 7, 115
13, 134853, Control_c, 11, 7, 117
13, 135168, Note_on_c, 11, 50, 0
13, 135168, Note_on_c, 11, 54, 80
13, 135326, Control_c, 11, 7, 119
13, 135798, Control_c, 11, 7, 121
13, 136192, Note_on_c, 11, 54, 0
13, 136192, Note_on_c, 11, 55, 80
13, 136271, Control_c, 11, 7, 123
13, 136743, Control_c, 11, 7, 125
13, 137011, Note_on_c, 11, 55, 0
13, 137216, Note_on_c, 11, 52, 80
13, 143872, Note_on_c, 11, 52, 0
13, 143872, Note_on_c, 11, 55, 80
13, 144384, Note_on_c, 11, 55, 0
13, 144384, Note_on_c, 11, 54, 80
13, 144896, Note_on_c, 11, 54, 0
13, 144896, Note_on_c, 11, 52, 80
13, 145408, Note_on_c, 11, 52, 0
13, 145408, Note_on_c, 11, 51, 80
13, 145920, Note_on_c, 11, 51, 0
13, 145920, Note_on_c, 11, 52, 80
13, 146432, Control_c, 11, 7, 127
13, 146432, Note_on_c, 11, 52, 0
13, 146432, Note_on_c, 11, 46, 80
13, 146444, Control_c, 11, 7, 126
13, 146467, Control_c, 11, 7, 127
13, 146576, Control_c, 11, 7, 126
13, 146631, Control_c, 11, 7, 125
13, 146685, Control_c, 11, 7, 124
13, 146739, Control_c, 11, 7, 123
13, 146794, Control_c, 11, 7, 122
13, 146848, Control_c, 11, 7, 121
13, 146902, Control_c, 11, 7, 120
13, 146957, Control_c, 11, 7, 119
13, 147011, Control_c, 11, 7, 118
13, 147066, Control_c, 11, 7, 117
13, 147120, Control_c, 11, 7, 116
13, 147174, Control_c, 11, 7, 115
13, 147229, Control_c, 11, 7, 114
13, 147283, Control_c, 11, 7, 113
13, 147337, Control_c, 11, 7, 112
13, 147392, Control_c, 11, 7, 111
13, 147446, Control_c, 11, 7, 110
13, 147501, Control_c, 11, 7, 109
13, 147555, Control_c, 11, 7, 108
13, 147609, Control_c, 11, 7, 107
13, 147664, Control_c, 11, 7, 106
13, 147718, Control_c, 11, 7, 105
13, 147772, Control_c, 11, 7, 104
13, 147827, Control_c, 11, 7, 103
13, 147881, Control_c, 11, 7, 102
13, 147936, Control_c, 11, 7, 101
13, 147990, Control_c, 11, 7, 100
13, 148044, Control_c, 11, 7, 99
13, 148099, Control_c, 11, 7, 98
13, 148153, Control_c, 11, 7, 97
13, 148207, Control_c, 11, 7, 96
13, 148262, Control_c, 11, 7, 95
13, 148316, Control_c, 11, 7, 94
13, 148371, Control_c, 11, 7, 93
13, 148425, Control_c, 11, 7, 92
13, 148479, Control_c, 11, 7, 91
13, 148480, Note_on_c, 11, 46, 0
13, 148480, Note_on_c, 11, 46, 80
13, 148534, Control_c, 11, 7, 90
13, 148588, Control_c, 11, 7, 89
13, 148642, Control_c, 11, 7, 88
13, 148697, Control_c, 11, 7, 87
13, 148751, Control_c, 11, 7, 86
13, 148805, Control_c, 11, 7, 85
13, 148860, Control_c, 11, 7, 84
13, 148914, Control_c, 11, 7, 83
13, 148969, Control_c, 11, 7, 82
13, 149023, Control_c, 11, 7, 81
13, 149077, Control_c, 11, 7, 80
13, 149132, Control_c, 11, 7, 79
13, 149186, Control_c, 11, 7, 78
13, 149240, Control_c, 11, 7, 77
13, 149295, Control_c, 11, 7, 76
13, 149349, Control_c, 11, 7, 75
13, 149404, Control_c, 11, 7, 74
13, 149458, Control_c, 11, 7, 73
13, 149504, Note_on_c, 11, 46, 0
13, 149504, Note_on_c, 11, 47, 80
13, 149512, Control_c, 11, 7, 72
13, 149567, Control_c, 11, 7, 71
13, 149621, Control_c, 11, 7, 70
13, 149675, Control_c, 11, 7, 69
13, 149730, Control_c, 11, 7, 68
13, 149784, Control_c, 11, 7, 67
13, 149839, Control_c, 11, 7, 66
13, 149893, Control_c, 11, 7, 65
13, 149947, Control_c, 11, 7, 64
13, 150002, Control_c, 11, 7, 63
13, 150056, Control_c, 11, 7, 62
13, 150110, Control_c, 11, 7, 61
13, 150165, Control_c, 11, 7, 60
13, 150219, Control_c, 11, 7, 59
13, 150274, Control_c, 11, 7, 58
13, 150328, Control_c, 11, 7, 57
13, 150382, Control_c, 11, 7, 56
13, 150437, Control_c, 11, 7, 55
13, 150491, Control_c, 11, 7, 54
13, 150545, Control_c, 11, 7, 53
13, 150600, Control_c, 11, 7, 52
13, 150654, Control_c, 11, 7, 51
13, 150708, Control_c, 11, 7, 50
13, 150763, Control_c, 11, 7, 49
13, 150817, Control_c, 11, 7, 48
13, 150872, Control_c, 11, 7, 47
13, 150926, Control_c, 11, 7, 46
13, 150980, Control_c, 11, 7, 45
13, 151035, Control_c, 11, 7, 44
13, 151089, Control_c, 11, 7, 43
13, 151143, Control_c, 11, 7, 42
13, 151198, Control_c, 11, 7, 41
13, 151252, Control_c, 11, 7, 40
13, 151307, Control_c, 11, 7, 39
13, 151361, Control_c, 11, 7, 38
13, 151415, Control_c, 11, 7, 37
13, 151470, Control_c, 11, 7, 36
13, 151524, Control_c, 11, 7, 35
13, 151578, Control_c, 11, 7, 34
13, 151633, Control_c, 11, 7, 33
13, 151687, Control_c, 11, 7, 32
13, 151742, Control_c, 11, 7, 31
13, 151796, Control_c, 11, 7, 30
13, 151850, Control_c, 11, 7, 29
13, 151905, Control_c, 11, 7, 28
13, 151959, Control_c, 11, 7, 27
13, 152013, Control_c, 11, 7, 26
13, 152068, Control_c, 11, 7, 25
13, 152122, Control_c, 11, 7, 24
13, 152177, Control_c, 11, 7, 23
13, 152231, Control_c, 11, 7, 22
13, 152285, Control_c, 11, 7, 21
13, 152340, Control_c, 11, 7, 20
13, 152394, Control_c, 11, 7, 19
13, 152448, Control_c, 11, 7, 18
13, 152503, Control_c, 11, 7, 17
13, 152557, Control_c, 11, 7, 16
13, 152576, Note_on_c, 11, 47, 0
13, 152611, Control_c, 11, 7, 15
13, 152652, Control_c, 11, 7, 39
13, 152675, Control_c, 11, 7, 22
13, 152780, Control_c, 11, 7, 126
13, 200704, Note_on_c, 11, 54, 87
13, 202752, Note_on_c, 11, 54, 0
13, 202752, Note_on_c, 11, 54, 85
13, 204800, Note_on_c, 11, 54, 0
13, 204800, Note_on_c, 11, 54, 84
13, 205824, Note_on_c, 11, 54, 0
13, 205824, Note_on_c, 11, 52, 83
13, 206848, Note_on_c, 11, 52, 0
13, 206848, Note_on_c, 11, 52, 83
13, 208896, Note_on_c, 11, 52, 0
13, 219136, Note_on_c, 11, 57, 86
13, 221184, Note_on_c, 11, 57, 0
13, 221184, Note_on_c, 11, 57, 85
13, 223232, Note_on_c, 11, 57, 0
13, 223232, Note_on_c, 11, 57, 84
13, 224256, Note_on_c, 11, 57, 0
13, 224256, Note_on_c, 11, 54, 83
13, 225280, Note_on_c, 11, 54, 0
13, 225280, Note_on_c, 11, 51, 83
13, 227328, Note_on_c, 11, 51, 0
13, 241543, Control_c, 11, 7, 62
13, 243712, Note_on_c, 11, 52, 100
13, 243719, Control_c, 11, 7, 64
13, 243822, Control_c, 11, 7, 65
13, 243924, Control_c, 11, 7, 66
13, 244027, Control_c, 11, 7, 67
13, 244129, Control_c, 11, 7, 68
13, 244231, Control_c, 11, 7, 69
13, 244334, Control_c, 11, 7, 70
13, 244436, Control_c, 11, 7, 71
13, 244539, Control_c, 11, 7, 72
13, 244641, Control_c, 11, 7, 73
13, 244743, Control_c, 11, 7, 74
13, 244846, Control_c, 11, 7, 75
13, 244948, Control_c, 11, 7, 76
13, 245051, Control_c, 11, 7, 77
13, 245153, Control_c, 11, 7, 78
13, 245255, Control_c, 11, 7, 79
13, 245358, Control_c, 11, 7, 80
13, 245460, Control_c, 11, 7, 81
13, 245563, Control_c, 11, 7, 82
13, 245665, Control_c, 11, 7, 83
13, 245760, Note_on_c, 11, 52, 0
13, 245760, Note_on_c, 11, 54, 100
13, 245767, Control_c, 11, 7, 84
13, 245870, Control_c, 11, 7, 85
13, 245972, Control_c, 11, 7, 86
13, 246075, Control_c, 11, 7, 87
13, 246177, Control_c, 11, 7, 88
13, 246279, Control_c, 11, 7, 89
13, 246382, Control_c, 11, 7, 90
13, 246484, Control_c, 11, 7, 91
13, 246587, Control_c, 11, 7, 92
13, 246689, Control_c, 11, 7, 93
13, 246791, Control_c, 11, 7, 94
13, 246894, Control_c, 11, 7, 95
13, 246996, Control_c, 11, 7, 96
13, 247099, Control_c, 11, 7, 97
13, 247201, Control_c, 11, 7, 98
13, 247303, Control_c, 11, 7, 99
13, 247406, Control_c, 11, 7, 100
13, 247508, Control_c, 11, 7, 101
13, 247611, Control_c, 11, 7, 102
13, 247687, Control_c, 11, 7, 106
13, 247808, Note_on_c, 11, 54, 0
13, 247808, Note_on_c, 11, 55, 100
13, 247838, Control_c, 11, 7, 105
13, 247989, Control_c, 11, 7, 104
13, 248140, Control_c, 11, 7, 103
13, 248291, Control_c, 11, 7, 102
13, 248442, Control_c, 11, 7, 101
13, 248593, Control_c, 11, 7, 100
13, 248744, Control_c, 11, 7, 99
13, 248895, Control_c, 11, 7, 98
13, 249046, Control_c, 11, 7, 97
13, 249197, Control_c, 11, 7, 96
13, 249348, Control_c, 11, 7, 95
13, 249499, Control_c, 11, 7, 94
13, 249650, Control_c, 11, 7, 93
13, 249801, Control_c, 11, 7, 92
13, 249856, Note_on_c, 11, 55, 0
13, 249856, Note_on_c, 11, 54, 100
13, 249952, Control_c, 11, 7, 91
13, 250103, Control_c, 11, 7, 90
13, 250254, Control_c, 11, 7, 89
13, 250405, Control_c, 11, 7, 88
13, 250556, Control_c, 11, 7, 87
13, 250707, Control_c, 11, 7, 86
13, 250858, Control_c, 11, 7, 85
13, 251009, Control_c, 11, 7, 84
13, 251160, Control_c, 11, 7, 83
13, 251311, Control_c, 11, 7, 82
13, 251462, Control_c, 11, 7, 81
13, 251613, Control_c, 11, 7, 80
13, 251764, Control_c, 11, 7, 79
13, 251904, Note_on_c, 11, 54, 0
13, 251904, Note_on_c, 11, 54, 100
13, 251915, Control_c, 11, 7, 78
13, 252066, Control_c, 11, 7, 77
13, 252217, Control_c, 11, 7, 76
13, 252368, Control_c, 11, 7, 75
13, 252519, Control_c, 11, 7, 74
13, 252670, Control_c, 11, 7, 73
13, 252821, Control_c, 11, 7, 72
13, 252972, Control_c, 11, 7, 71
13, 253123, Control_c, 11, 7, 70
13, 253274, Control_c, 11, 7, 69
13, 253425, Control_c, 11, 7, 68
13, 253575, Control_c, 11, 7, 67
13, 253952, Note_on_c, 11, 54, 0
13, 260096, Note_on_c, 11, 57, 100
13, 262144, Note_on_c, 11, 57, 0
13, 262144, Note_on_c, 11, 55, 100
13, 264192, Note_on_c, 11, 55, 0
13, 264192, Note_on_c, 11, 54, 100
13, 266240, Note_on_c, 11, 54, 0
13, 266240, Note_on_c, 11, 52, 100
13, 267527, Control_c, 11, 7, 62
13, 267614, Control_c, 11, 7, 63
13, 267701, Control_c, 11, 7, 64
13, 267788, Control_c, 11, 7, 65
13, 267875, Control_c, 11, 7, 66
13, 267961, Control_c, 11, 7, 67
13, 268048, Control_c, 11, 7, 68
13, 268135, Control_c, 11, 7, 69
13, 268222, Control_c, 11, 7, 70
13, 268288, Note_on_c, 11, 52, 0
13, 268288, Note_on_c, 11, 54, 100
13, 268309, Control_c, 11, 7, 71
13, 268395, Control_c, 11, 7, 72
13, 268482, Control_c, 11, 7, 73
13, 268569, Control_c, 11, 7, 74
13, 268656, Control_c, 11, 7, 75
13, 268742, Control_c, 11, 7, 76
13, 268829, Control_c, 11, 7, 77
13, 268916, Control_c, 11, 7, 78
13, 269003, Control_c, 11, 7, 79
13, 269090, Control_c, 11, 7, 80
13, 269176, Control_c, 11, 7, 81
13, 269263, Control_c, 11, 7, 82
13, 269312, Note_on_c, 11, 54, 0
13, 269312, Note_on_c, 11, 55, 100
13, 269350, Control_c, 11, 7, 83
13, 269437, Control_c, 11, 7, 84
13, 269523, Control_c, 11, 7, 85
13, 269610, Control_c, 11, 7, 86
13, 269697, Control_c, 11, 7, 87
13, 269784, Control_c, 11, 7, 88
13, 269871, Control_c, 11, 7, 89
13, 269957, Control_c, 11, 7, 90
13, 270044, Control_c, 11, 7, 91
13, 270131, Control_c, 11, 7, 92
13, 270218, Control_c, 11, 7, 93
13, 270304, Control_c, 11, 7, 94
13, 270336, Note_on_c, 11, 55, 0
13, 270336, Note_on_c, 11, 57, 100
13, 270391, Control_c, 11, 7, 95
13, 270478, Control_c, 11, 7, 96
13, 270565, Control_c, 11, 7, 97
13, 270652, Control_c, 11, 7, 98
13, 270738, Control_c, 11, 7, 99
13, 270825, Control_c, 11, 7, 100
13, 270912, Control_c, 11, 7, 101
13, 270999, Control_c, 11, 7, 102
13, 271085, Control_c, 11, 7, 103
13, 271172, Control_c, 11, 7, 104
13, 271259, Control_c, 11, 7, 105
13, 271346, Control_c, 11, 7, 106
13, 271433, Control_c, 11, 7, 107
13, 271519, Control_c, 11, 7, 108
13, 271606, Control_c, 11, 7, 109
13, 271693, Control_c, 11, 7, 110
13, 271780, Control_c, 11, 7, 111
13, 271866, Control_c, 11, 7, 112
13, 271953, Control_c, 11, 7, 113
13, 272040, Control_c, 11, 7, 114
13, 272127, Control_c, 11, 7, 115
13, 272214, Control_c, 11, 7, 116
13, 272300, Control_c, 11, 7, 117
13, 272387, Control_c, 11, 7, 118
13, 272474, Control_c, 11, 7, 119
13, 272561, Control_c, 11, 7, 120
13, 272647, Control_c, 11, 7, 121
13, 273408, Note_on_c, 11, 57, 0
13, 273408, Note_on_c, 11, 54, 100
13, 274311, Control_c, 11, 7, 124
13, 274432, Note_on_c, 11, 54, 0
13, 274432, Note_on_c, 11, 59, 100
13, 274565, Control_c, 11, 7, 123
13, 274819, Control_c, 11, 7, 122
13, 275073, Control_c, 11, 7, 121
13, 275327, Control_c, 11, 7, 120
13, 275456, Note_on_c, 11, 59, 0
13, 275456, Note_on_c, 11, 57, 100
13, 275581, Control_c, 11, 7, 119
13, 275835, Control_c, 11, 7, 118
13, 276089, Control_c, 11, 7, 117
13, 276343, Control_c, 11, 7, 116
13, 276480, Note_on_c, 11, 57, 0
13, 276480, Note_on_c, 11, 55, 100
13, 276597, Control_c, 11, 7, 115
13, 276851, Control_c, 11, 7, 114
13, 277105, Control_c, 11, 7, 113
13, 277359, Control_c, 11, 7, 112
13, 277504, Note_on_c, 11, 55, 0
13, 277504, Note_on_c, 11, 54, 100
13, 277613, Control_c, 11, 7, 111
13, 277867, Control_c, 11, 7, 110
13, 278121, Control_c, 11, 7, 109
13, 278375, Control_c, 11, 7, 108
13, 278528, Note_on_c, 11, 54, 0
13, 278528, Note_on_c, 11, 55, 100
13, 278629, Control_c, 11, 7, 107
13, 278883, Control_c, 11, 7, 106
13, 279137, Control_c, 11, 7, 105
13, 279391, Control_c, 11, 7, 104
13, 279645, Control_c, 11, 7, 103
13, 279899, Control_c, 11, 7, 102
13, 280153, Control_c, 11, 7, 101
13, 280407, Control_c, 11, 7, 100
13, 280661, Control_c, 11, 7, 99
13, 280915, Control_c, 11, 7, 98
13, 281169, Control_c, 11, 7, 97
13, 281423, Control_c, 11, 7, 96
13, 281677, Control_c, 11, 7, 95
13, 281931, Control_c, 11, 7, 94
13, 282185, Control_c, 11, 7, 93
13, 282439, Control_c, 11, 7, 92
13, 282693, Control_c, 11, 7, 91
13, 282947, Control_c, 11, 7, 90
13, 283201, Control_c, 11, 7, 89
13, 283455, Control_c, 11, 7, 88
13, 283709, Control_c, 11, 7, 87
13, 283963, Control_c, 11, 7, 86
13, 284217, Control_c, 11, 7, 85
13, 284471, Control_c, 11, 7, 84
13, 284672, Note_on_c, 11, 55, 0
13, 284672, Note_on_c, 11, 54, 100
13, 284725, Control_c, 11, 7, 83
13, 284979, Control_c, 11, 7, 82
13, 285233, Control_c, 11, 7, 81
13, 285487, Control_c, 11, 7, 80
13, 285741, Control_c, 11, 7, 79
13, 285995, Control_c, 11, 7, 78
13, 286249, Control_c, 11, 7, 77
13, 286503, Control_c, 11, 7, 76
13, 286720, Note_on_c, 11, 54, 0
13, 286720, Note_on_c, 11, 53, 100
13, 286757, Control_c, 11, 7, 75
13, 287011, Control_c, 11, 7, 74
13, 287265, Control_c, 11, 7, 73
13, 287519, Control_c, 11, 7, 72
13, 287773, Control_c, 11, 7, 71
13, 288027, Control_c, 11, 7, 70
13, 288281, Control_c, 11, 7, 69
13, 288535, Control_c, 11, 7, 68
13, 288789, Control_c, 11, 7, 67
13, 289043, Control_c, 11, 7, 66
13, 289297, Control_c, 11, 7, 65
13, 289551, Control_c, 11, 7, 64
13, 289805, Control_c, 11, 7, 63
13, 290059, Control_c, 11, 7, 62
13, 290313, Control_c, 11, 7, 61
13, 290567, Control_c, 11, 7, 60
13, 290816, Note_on_c, 11, 53, 0
13, 290816, Note_on_c, 11, 52, 100
13, 292864, Note_on_c, 11, 52, 0
13, 304903, Control_c, 11, 7, 55
13, 305152, Note_on_c, 11, 52, 78
13, 305309, Control_c, 11, 7, 56
13, 305715, Control_c, 11, 7, 57
13, 306121, Control_c, 11, 7, 58
13, 306176, Note_on_c, 11, 52, 0
13, 306176, Note_on_c, 11, 51, 78
13, 306527, Control_c, 11, 7, 59
13, 306933, Control_c, 11, 7, 60
13, 307200, Note_on_c, 11, 51, 0
13, 307200, Note_on_c, 11, 52, 78
13, 307339, Control_c, 11, 7, 61
13, 307744, Control_c, 11, 7, 62
13, 308150, Control_c, 11, 7, 63
13, 308556, Control_c, 11, 7, 64
13, 308962, Control_c, 11, 7, 65
13, 309248, Note_on_c, 11, 52, 0
13, 309248, Note_on_c, 11, 54, 78
13, 309368, Control_c, 11, 7, 66
13, 309774, Control_c, 11, 7, 67
13, 310180, Control_c, 11, 7, 68
13, 310585, Control_c, 11, 7, 69
13, 310991, Control_c, 11, 7, 70
13, 311296, Note_on_c, 11, 54, 0
13, 311296, Note_on_c, 11, 56, 78
13, 311397, Control_c, 11, 7, 71
13, 311803, Control_c, 11, 7, 72
13, 312209, Control_c, 11, 7, 73
13, 312615, Control_c, 11, 7, 74
13, 313021, Control_c, 11, 7, 75
13, 313426, Control_c, 11, 7, 76
13, 313832, Control_c, 11, 7, 77
13, 314238, Control_c, 11, 7, 78
13, 314644, Control_c, 11, 7, 79
13, 315050, Control_c, 11, 7, 80
13, 315392, Note_on_c, 11, 56, 0
13, 315392, Note_on_c, 11, 57, 78
13, 315456, Control_c, 11, 7, 81
13, 315862, Control_c, 11, 7, 82
13, 316267, Control_c, 11, 7, 83
13, 316673, Control_c, 11, 7, 84
13, 317030, Note_on_c, 11, 57, 0
13, 317079, Control_c, 11, 7, 85
13, 317440, Note_on_c, 11, 55, 78
13, 317485, Control_c, 11, 7, 86
13, 317891, Control_c, 11, 7, 87
13, 318297, Control_c, 11, 7, 88
13, 318703, Control_c, 11, 7, 89
13, 319108, Control_c, 11, 7, 90
13, 319488, Note_on_c, 11, 55, 0
13, 319488, Note_on_c, 11, 57, 78
13, 319514, Control_c, 11, 7, 91
13, 319920, Control_c, 11, 7, 92
13, 320326, Control_c, 11, 7, 93
13, 320732, Control_c, 11, 7, 94
13, 321138, Control_c, 11, 7, 95
13, 321536, Note_on_c, 11, 57, 0
13, 321536, Note_on_c, 11, 59, 78
13, 321543, Control_c, 11, 7, 96
13, 321799, Control_c, 11, 7, 94
13, 322795, Control_c, 11, 7, 93
13, 323584, Note_on_c, 11, 59, 0
13, 323584, Note_on_c, 11, 57, 78
13, 323791, Control_c, 11, 7, 92
13, 324608, Note_on_c, 11, 57, 0
13, 324608, Note_on_c, 11, 55, 78
13, 324787, Control_c, 11, 7, 91
13, 325632, Note_on_c, 11, 55, 0
13, 325632, Note_on_c, 11, 57, 78
13, 325783, Control_c, 11, 7, 90
13, 326779, Control_c, 11, 7, 89
13, 327680, Note_on_c, 11, 57, 0
13, 327680, Note_on_c, 11, 55, 78
13, 327775, Control_c, 11, 7, 88
13, 328771, Control_c, 11, 7, 87
13, 329318, Note_on_c, 11, 55, 0
13, 329728, Note_on_c, 11, 54, 78
13, 329767, Control_c, 11, 7, 86
13, 330763, Control_c, 11, 7, 85
13, 331759, Control_c, 11, 7, 84
13, 331776, Note_on_c, 11, 54, 0
13, 331776, Note_on_c, 11, 52, 78
13, 332755, Control_c, 11, 7, 83
13, 333751, Control_c, 11, 7, 82
13, 333824, Note_on_c, 11, 52, 0
13, 333824, Note_on_c, 11, 51, 78
13, 334747, Control_c, 11, 7, 81
13, 335743, Control_c, 11, 7, 80
13, 335872, Note_on_c, 11, 51, 0
13, 335872, Note_on_c, 11, 52, 78
13, 336739, Control_c, 11, 7, 79
13, 337735, Control_c, 11, 7, 78
13, 337920, Note_on_c, 11, 52, 0
13, 337920, Note_on_c, 11, 50, 78
13, 338731, Control_c, 11, 7, 77
13, 339727, Control_c, 11, 7, 76
13, 339968, Note_on_c, 11, 50, 0
13, 339968, Note_on_c, 11, 49, 77
13, 340723, Control_c, 11, 7, 75
13, 341606, Note_on_c, 11, 49, 0
13, 341719, Control_c, 11, 7, 74
13, 342016, Note_on_c, 11, 50, 77
13, 342715, Control_c, 11, 7, 73
13, 343711, Control_c, 11, 7, 72
13, 344064, Note_on_c, 11, 50, 0
13, 344064, Note_on_c, 11, 48, 77
13, 344707, Control_c, 11, 7, 71
13, 345703, Control_c, 11, 7, 70
13, 346112, Note_on_c, 11, 48, 0
13, 346112, Note_on_c, 11, 47, 77
13, 346699, Control_c, 11, 7, 69
13, 347695, Control_c, 11, 7, 68
13, 348691, Control_c, 11, 7, 67
13, 349687, Control_c, 11, 7, 66
13, 350208, Note_on_c, 11, 47, 0
13, 350208, Note_on_c, 11, 47, 77
13, 350683, Control_c, 11, 7, 65
13, 351679, Control_c, 11, 7, 64
13, 352256, Note_on_c, 11, 47, 0
13, 352256, Note_on_c, 11, 52, 77
13, 352675, Control_c, 11, 7, 63
13, 353671, Control_c, 11, 7, 62
13, 353894, Note_on_c, 11, 52, 0
13, 354304, Note_on_c, 11, 54, 77
13, 354695, Control_c, 11, 7, 64
13, 354866, Control_c, 11, 7, 65
13, 355037, Control_c, 11, 7, 66
13, 355207, Control_c, 11, 7, 67
13, 355378, Control_c, 11, 7, 68
13, 355549, Control_c, 11, 7, 69
13, 355719, Control_c, 11, 7, 70
13, 355890, Control_c, 11, 7, 71
13, 356061, Control_c, 11, 7, 72
13, 356231, Control_c, 11, 7, 73
13, 356352, Note_on_c, 11, 54, 0
13, 356352, Note_on_c, 11, 55, 77
13, 356402, Control_c, 11, 7, 74
13, 356573, Control_c, 11, 7, 75
13, 356743, Control_c, 11, 7, 76
13, 356914, Control_c, 11, 7, 77
13, 357085, Control_c, 11, 7, 78
13, 357255, Control_c, 11, 7, 79
13, 357426, Control_c, 11, 7, 80
13, 357597, Control_c, 11, 7, 81
13, 357767, Control_c, 11, 7, 82
13, 357938, Control_c, 11, 7, 83
13, 358109, Control_c, 11, 7, 84
13, 358279, Control_c, 11, 7, 85
13, 358400, Note_on_c, 11, 55, 0
13, 358400, Note_on_c, 11, 54, 77
13, 358450, Control_c, 11, 7, 86
13, 358621, Control_c, 11, 7, 87
13, 358791, Control_c, 11, 7, 88
13, 358962, Control_c, 11, 7, 89
13, 359133, Control_c, 11, 7, 90
13, 359303, Control_c, 11, 7, 91
13, 359474, Control_c, 11, 7, 92
13, 359645, Control_c, 11, 7, 93
13, 359815, Control_c, 11, 7, 94
13, 359986, Control_c, 11, 7, 95
13, 360157, Control_c, 11, 7, 96
13, 360327, Control_c, 11, 7, 97
13, 360448, Note_on_c, 11, 54, 0
13, 360448, Note_on_c, 11, 59, 77
13, 360498, Control_c, 11, 7, 98
13, 360669, Control_c, 11, 7, 99
13, 360839, Control_c, 11, 7, 100
13, 361010, Control_c, 11, 7, 101
13, 361181, Control_c, 11, 7, 102
13, 361351, Control_c, 11, 7, 103
13, 361522, Control_c, 11, 7, 104
13, 361693, Control_c, 11, 7, 105
13, 361863, Control_c, 11, 7, 106
13, 362034, Control_c, 11, 7, 107
13, 362205, Control_c, 11, 7, 108
13, 362375, Control_c, 11, 7, 109
13, 362496, Note_on_c, 11, 59, 0
13, 362496, Note_on_c, 11, 55, 77
13, 362546, Control_c, 11, 7, 110
13, 362717, Control_c, 11, 7, 111
13, 362887, Control_c, 11, 7, 112
13, 363058, Control_c, 11, 7, 113
13, 363229, Control_c, 11, 7, 114
13, 363399, Control_c, 11, 7, 115
13, 363570, Control_c, 11, 7, 116
13, 363741, Control_c, 11, 7, 117
13, 363911, Control_c, 11, 7, 118
13, 364082, Control_c, 11, 7, 119
13, 364253, Control_c, 11, 7, 120
13, 364423, Control_c, 11, 7, 121
13, 364544, Note_on_c, 11, 55, 0
13, 364544, Note_on_c, 11, 52, 77
13, 364935, Control_c, 11, 7, 124
13, 365087, Control_c, 11, 7, 123
13, 365239, Control_c, 11, 7, 122
13, 365390, Control_c, 11, 7, 121
13, 365542, Control_c, 11, 7, 120
13, 365693, Control_c, 11, 7, 119
13, 365845, Control_c, 11, 7, 118
13, 365997, Control_c, 11, 7, 117
13, 366148, Control_c, 11, 7, 116
13, 366300, Control_c, 11, 7, 115
13, 366451, Control_c, 11, 7, 114
13, 366592, Note_on_c, 11, 52, 0
13, 366592, Note_on_c, 11, 51, 77
13, 366603, Control_c, 11, 7, 113
13, 366754, Control_c, 11, 7, 112
13, 366906, Control_c, 11, 7, 111
13, 367058, Control_c, 11, 7, 110
13, 367209, Control_c, 11, 7, 109
13, 367361, Control_c, 11, 7, 108
13, 367512, Control_c, 11, 7, 107
13, 367664, Control_c, 11, 7, 106
13, 367815, Control_c, 11, 7, 105
13, 367967, Control_c, 11, 7, 104
13, 368119, Control_c, 11, 7, 103
13, 368270, Control_c, 11, 7, 102
13, 368422, Control_c, 11, 7, 101
13, 368573, Control_c, 11, 7, 100
13, 368640, Note_on_c, 11, 51, 0
13, 368640, Note_on_c, 11, 52, 77
13, 368725, Control_c, 11, 7, 99
13, 368877, Control_c, 11, 7, 98
13, 369028, Control_c, 11, 7, 97
13, 369180, Control_c, 11, 7, 96
13, 369331, Control_c, 11, 7, 95
13, 369483, Control_c, 11, 7, 94
13, 369634, Control_c, 11, 7, 93
13, 369786, Control_c, 11, 7, 92
13, 369938, Control_c, 11, 7, 91
13, 370089, Control_c, 11, 7, 90
13, 370241, Control_c, 11, 7, 89
13, 370392, Control_c, 11, 7, 88
13, 370544, Control_c, 11, 7, 87
13, 370688, Note_on_c, 11, 52, 0
13, 370688, Note_on_c, 11, 47, 77
13, 370695, Control_c, 11, 7, 86
13, 370847, Control_c, 11, 7, 85
13, 370999, Control_c, 11, 7, 84
13, 371150, Control_c, 11, 7, 83
13, 371302, Control_c, 11, 7, 82
13, 371453, Control_c, 11, 7, 81
13, 371605, Control_c, 11, 7, 80
13, 371757, Control_c, 11, 7, 79
13, 371908, Control_c, 11, 7, 78
13, 372060, Control_c, 11, 7, 77
13, 372211, Control_c, 11, 7, 76
13, 372363, Control_c, 11, 7, 75
13, 372514, Control_c, 11, 7, 74
13, 372666, Control_c, 11, 7, 73
13, 372818, Control_c, 11, 7, 72
13, 372969, Control_c, 11, 7, 71
13, 373121, Control_c, 11, 7, 70
13, 373272, Control_c, 11, 7, 69
13, 373424, Control_c, 11, 7, 68
13, 373575, Control_c, 11, 7, 67
13, 373727, Control_c, 11, 7, 66
13, 373879, Control_c, 11, 7, 65
13, 374030, Control_c, 11, 7, 64
13, 374182, Control_c, 11, 7, 63
13, 374333, Control_c, 11, 7, 62
13, 374485, Control_c, 11, 7, 61
13, 374637, Control_c, 11, 7, 60
13, 374788, Control_c, 11, 7, 59
13, 374940, Control_c, 11, 7, 58
13, 375091, Control_c, 11, 7, 57
13, 375243, Control_c, 11, 7, 56
13, 375394, Control_c, 11, 7, 55
13, 375546, Control_c, 11, 7, 54
13, 375698, Control_c, 11, 7, 53
13, 375849, Control_c, 11, 7, 52
13, 376001, Control_c, 11, 7, 51
13, 376152, Control_c, 11, 7, 50
13, 376304, Control_c, 11, 7, 49
13, 376455, Control_c, 11, 7, 48
13, 376832, Note_on_c, 11, 47, 0
13, 395015, Control_c, 11, 7, 76
13, 397312, Note_on_c, 11, 50, 83
13, 403456, Note_on_c, 11, 50, 0
13, 403456, Note_on_c, 11, 53, 83
13, 405504, Note_on_c, 11, 53, 0
13, 405504, Note_on_c, 11, 52, 83
13, 407552, Note_on_c, 11, 52, 0
13, 407552, Note_on_c, 11, 48, 83
13, 407559, Control_c, 11, 7, 74
13, 408227, Control_c, 11, 7, 73
13, 408894, Control_c, 11, 7, 72
13, 409562, Control_c, 11, 7, 71
13, 409600, Note_on_c, 11, 48, 0
13, 409600, Note_on_c, 11, 47, 83
13, 410229, Control_c, 11, 7, 70
13, 410897, Control_c, 11, 7, 69
13, 411564, Control_c, 11, 7, 68
13, 412231, Control_c, 11, 7, 67
13, 412899, Control_c, 11, 7, 66
13, 413566, Control_c, 11, 7, 65
13, 414234, Control_c, 11, 7, 64
13, 414901, Control_c, 11, 7, 63
13, 415334, Note_on_c, 11, 47, 0
13, 415569, Control_c, 11, 7, 62
13, 415744, Note_on_c, 11, 45, 83
13, 416236, Control_c, 11, 7, 61
13, 416768, Note_on_c, 11, 45, 0
13, 416768, Note_on_c, 11, 47, 83
13, 416903, Control_c, 11, 7, 60
13, 417571, Control_c, 11, 7, 59
13, 417792, Note_on_c, 11, 47, 0
13, 417792, Note_on_c, 11, 43, 83
13, 418238, Control_c, 11, 7, 58
13, 418816, Note_on_c, 11, 43, 0
13, 418816, Note_on_c, 11, 45, 83
13, 418906, Control_c, 11, 7, 57
13, 419573, Control_c, 11, 7, 56
13, 419840, Note_on_c, 11, 45, 0
13, 419840, Note_on_c, 11, 47, 83
13, 420241, Control_c, 11, 7, 55
13, 420908, Control_c, 11, 7, 54
13, 421575, Control_c, 11, 7, 53
13, 422243, Control_c, 11, 7, 52
13, 422910, Control_c, 11, 7, 51
13, 423578, Control_c, 11, 7, 50
13, 424245, Control_c, 11, 7, 49
13, 424913, Control_c, 11, 7, 48
13, 425580, Control_c, 11, 7, 47
13, 425984, Note_on_c, 11, 47, 0
13, 425984, Note_on_c, 11, 52, 99
13, 426247, Control_c, 11, 7, 46
13, 428032, Note_on_c, 11, 52, 0
13, 438279, Control_c, 11, 7, 126
13, 438663, Control_c, 11, 7, 119
13, 439009, Control_c, 11, 7, 118
13, 439354, Control_c, 11, 7, 117
13, 439699, Control_c, 11, 7, 116
13, 440045, Control_c, 11, 7, 115
13, 440320, Note_on_c, 11, 54, 87
13, 440390, Control_c, 11, 7, 114
13, 440735, Control_c, 11, 7, 113
13, 441081, Control_c, 11, 7, 112
13, 441426, Control_c, 11, 7, 111
13, 441771, Control_c, 11, 7, 110
13, 442117, Control_c, 11, 7, 109
13, 442368, Note_on_c, 11, 54, 0
13, 442368, Note_on_c, 11, 51, 87
13, 442462, Control_c, 11, 7, 108
13, 442807, Control_c, 11, 7, 107
13, 443152, Control_c, 11, 7, 106
13, 443498, Control_c, 11, 7, 105
13, 443843, Control_c, 11, 7, 104
13, 444188, Control_c, 11, 7, 103
13, 444416, Note_on_c, 11, 51, 0
13, 444416, Note_on_c, 11, 52, 87
13, 444534, Control_c, 11, 7, 102
13, 444879, Control_c, 11, 7, 101
13, 445224, Control_c, 11, 7, 100
13, 445440, Note_on_c, 11, 52, 0
13, 445440, Note_on_c, 11, 45, 87
13, 445570, Control_c, 11, 7, 99
13, 445915, Control_c, 11, 7, 98
13, 446260, Control_c, 11, 7, 97
13, 446464, Note_on_c, 11, 45, 0
13, 446464, Note_on_c, 11, 47, 87
13, 446605, Control_c, 11, 7, 96
13, 446951, Control_c, 11, 7, 95
13, 447296, Control_c, 11, 7, 94
13, 447641, Control_c, 11, 7, 93
13, 447987, Control_c, 11, 7, 92
13, 448332, Control_c, 11, 7, 91
13, 448512, Note_on_c, 11, 47, 0
13, 448512, Note_on_c, 11, 47, 87
13, 448677, Control_c, 11, 7, 90
13, 449023, Control_c, 11, 7, 89
13, 449368, Control_c, 11, 7, 88
13, 449713, Control_c, 11, 7, 87
13, 450058, Control_c, 11, 7, 86
13, 450404, Control_c, 11, 7, 85
13, 450560, Note_on_c, 11, 47, 0
13, 450560, Note_on_c, 11, 40, 87
13, 450749, Control_c, 11, 7, 84
13, 451094, Control_c, 11, 7, 83
13, 451440, Control_c, 11, 7, 82
13, 451785, Control_c, 11, 7, 81
13, 452130, Control_c, 11, 7, 80
13, 452476, Control_c, 11, 7, 79
13, 452821, Control_c, 11, 7, 78
13, 453166, Control_c, 11, 7, 77
13, 453511, Control_c, 11, 7, 76
13, 453837, Note_on_c, 11, 40, 0
13, 454535, Control_c, 11, 7, 71
13, 454656, Note_on_c, 11, 52, 87
13, 455099, Control_c, 11, 7, 70
13, 455663, Control_c, 11, 7, 69
13, 456227, Control_c, 11, 7, 68
13, 456704, Note_on_c, 11, 52, 0
13, 456704, Note_on_c, 11, 51, 87
13, 456790, Control_c, 11, 7, 67
13, 457354, Control_c, 11, 7, 66
13, 457918, Control_c, 11, 7, 65
13, 458482, Control_c, 11, 7, 64
13, 458752, Note_on_c, 11, 51, 0
13, 458752, Note_on_c, 11, 50, 87
13, 459045, Control_c, 11, 7, 63
13, 459609, Control_c, 11, 7, 62
13, 460173, Control_c, 11, 7, 61
13, 460737, Control_c, 11, 7, 60
13, 460800, Note_on_c, 11, 50, 0
13, 460800, Note_on_c, 11, 50, 86
13, 461300, Control_c, 11, 7, 59
13, 461864, Control_c, 11, 7, 58
13, 462428, Control_c, 11, 7, 57
13, 462848, Note_on_c, 11, 50, 0
13, 462848, Note_on_c, 11, 49, 86
13, 462992, Control_c, 11, 7, 56
13, 463555, Control_c, 11, 7, 55
13, 464119, Control_c, 11, 7, 54
13, 464486, Note_on_c, 11, 49, 0
13, 464683, Control_c, 11, 7, 53
13, 464896, Note_on_c, 11, 48, 86
13, 465247, Control_c, 11, 7, 52
13, 465810, Control_c, 11, 7, 51
13, 466374, Control_c, 11, 7, 50
13, 466938, Control_c, 11, 7, 49
13, 466944, Note_on_c, 11, 48, 0
13, 466944, Note_on_c, 11, 49, 86
13, 467502, Control_c, 11, 7, 48
13, 468065, Control_c, 11, 7, 47
13, 468629, Control_c, 11, 7, 46
13, 468992, Note_on_c, 11, 49, 0
13, 468992, Note_on_c, 11, 50, 86
13, 469193, Control_c, 11, 7, 45
13, 469757, Control_c, 11, 7, 44
13, 470320, Control_c, 11, 7, 43
13, 470884, Control_c, 11, 7, 42
13, 471448, Control_c, 11, 7, 41
13, 472012, Control_c, 11, 7, 40
13, 472575, Control_c, 11, 7, 39
13, 473088, Note_on_c, 11, 50, 0
13, 473088, Note_on_c, 11, 50, 86
13, 473139, Control_c, 11, 7, 38
13, 473703, Control_c, 11, 7, 37
13, 474267, Control_c, 11, 7, 36
13, 474830, Control_c, 11, 7, 35
13, 475136, Note_on_c, 11, 50, 0
13, 475136, Note_on_c, 11, 43, 86
13, 475394, Control_c, 11, 7, 34
13, 475958, Control_c, 11, 7, 33
13, 476522, Control_c, 11, 7, 32
13, 477085, Control_c, 11, 7, 31
13, 477649, Control_c, 11, 7, 30
13, 478213, Control_c, 11, 7, 29
13, 478777, Control_c, 11, 7, 28
13, 479340, Control_c, 11, 7, 27
13, 479904, Control_c, 11, 7, 26
13, 480468, Control_c, 11, 7, 25
13, 481031, Control_c, 11, 7, 24
13, 481280, Note_on_c, 11, 43, 0
13, 487424, End_track
14, 0, Start_track
14, 0, Title_t, "Continuo"
14, 0, Program_c, 12, 20
14, 0, Control_c, 12, 121, 127
14, 0, Control_c, 12, 91, 127
14, 0, Control_c, 12, 10, 50
14, 0, Control_c, 12, 1, 5
14, 2048, Note_on_c, 12, 54, 20
14, 2048, Note_on_c, 12, 59, 20
14, 2048, Note_on_c, 12, 62, 20
14, 2048, Note_on_c, 12, 47, 30
14, 2714, Note_on_c, 12, 47, 0
14, 3072, Note_on_c, 12, 47, 30
14, 3738, Note_on_c, 12, 47, 0
14, 4096, Note_on_c, 12, 47, 30
14, 4762, Note_on_c, 12, 47, 0
14, 5120, Note_on_c, 12, 54, 0
14, 5120, Note_on_c, 12, 59, 0
14, 5120, Note_on_c, 12, 62, 0
14, 5120, Note_on_c, 12, 55, 20
14, 5120, Note_on_c, 12, 59, 20
14, 5120, Note_on_c, 12, 64, 20
14, 5120, Note_on_c, 12, 47, 30
14, 5786, Note_on_c, 12, 47, 0
14, 6144, Note_on_c, 12, 47, 30
14, 6810, Note_on_c, 12, 47, 0
14, 7168, Note_on_c, 12, 47, 30
14, 7834, Note_on_c, 12, 47, 0
14, 8192, Note_on_c, 12, 55, 0
14, 8192, Note_on_c, 12, 59, 0
14, 8192, Note_on_c, 12, 64, 0
14, 8192, Note_on_c, 12, 58, 20
14, 8192, Note_on_c, 12, 61, 20
14, 8192, Note_on_c, 12, 64, 20
14, 8192, Note_on_c, 12, 67, 20
14, 8192, Note_on_c, 12, 47, 30
14, 8858, Note_on_c, 12, 47, 0
14, 9216, Note_on_c, 12, 47, 30
14, 9882, Note_on_c, 12, 47, 0
14, 10240, Note_on_c, 12, 47, 30
14, 10906, Note_on_c, 12, 47, 0
14, 11264, Note_on_c, 12, 58, 0
14, 11264, Note_on_c, 12, 61, 0
14, 11264, Note_on_c, 12, 64, 0
14, 11264, Note_on_c, 12, 67, 0
14, 11264, Note_on_c, 12, 59, 20
14, 11264, Note_on_c, 12, 62, 20
14, 11264, Note_on_c, 12, 66, 20
14, 11264, Note_on_c, 12, 47, 30
14, 11930, Note_on_c, 12, 47, 0
14, 12288, Note_on_c, 12, 47, 30
14, 12954, Note_on_c, 12, 47, 0
14, 13312, Note_on_c, 12, 47, 30
14, 13978, Note_on_c, 12, 47, 0
14, 14336, Note_on_c, 12, 59, 0
14, 14336, Note_on_c, 12, 62, 0
14, 14336, Note_on_c, 12, 66, 0
14, 14336, Note_on_c, 12, 59, 20
14, 14336, Note_on_c, 12, 62, 20
14, 14336, Note_on_c, 12, 66, 20
14, 14336, Note_on_c, 12, 47, 30
14, 15002, Note_on_c, 12, 47, 0
14, 15360, Note_on_c, 12, 47, 30
14, 16026, Note_on_c, 12, 47, 0
14, 16384, Note_on_c, 12, 47, 30
14, 17050, Note_on_c, 12, 47, 0
14, 17408, Note_on_c, 12, 59, 0
14, 17408, Note_on_c, 12, 62, 0
14, 17408, Note_on_c, 12, 66, 0
14, 17408, Note_on_c, 12, 59, 20
14, 17408, Note_on_c, 12, 61, 20
14, 17408, Note_on_c, 12, 64, 20
14, 17408, Note_on_c, 12, 67, 20
14, 17408, Note_on_c, 12, 47, 30
14, 18074, Note_on_c, 12, 47, 0
14, 18432, Note_on_c, 12, 47, 30
14, 19098, Note_on_c, 12, 47, 0
14, 19456, Note_on_c, 12, 47, 30
14, 20122, Note_on_c, 12, 47, 0
14, 20480, Note_on_c, 12, 59, 0
14, 20480, Note_on_c, 12, 61, 0
14, 20480, Note_on_c, 12, 64, 0
14, 20480, Note_on_c, 12, 67, 0
14, 20480, Note_on_c, 12, 61, 20
14, 20480, Note_on_c, 12, 64, 20
14, 20480, Note_on_c, 12, 67, 20
14, 20480, Note_on_c, 12, 70, 20
14, 20480, Note_on_c, 12, 47, 30
14, 21146, Note_on_c, 12, 47, 0
14, 21504, Note_on_c, 12, 47, 30
14, 22170, Note_on_c, 12, 47, 0
14, 22528, Note_on_c, 12, 47, 30
14, 23194, Note_on_c, 12, 47, 0
14, 23552, Note_on_c, 12, 61, 0
14, 23552, Note_on_c, 12, 64, 0
14, 23552, Note_on_c, 12, 67, 0
14, 23552, Note_on_c, 12, 70, 0
14, 23552, Note_on_c, 12, 59, 20
14, 23552, Note_on_c, 12, 62, 20
14, 23552, Note_on_c, 12, 66, 20
14, 23552, Note_on_c, 12, 71, 20
14, 23552, Note_on_c, 12, 47, 30
14, 24218, Note_on_c, 12, 47, 0
14, 24576, Note_on_c, 12, 47, 30
14, 25242, Note_on_c, 12, 47, 0
14, 25600, Note_on_c, 12, 47, 30
14, 26266, Note_on_c, 12, 47, 0
14, 26624, Note_on_c, 12, 59, 0
14, 26624, Note_on_c, 12, 62, 0
14, 26624, Note_on_c, 12, 66, 0
14, 26624, Note_on_c, 12, 71, 0
14, 26624, Note_on_c, 12, 63, 20
14, 26624, Note_on_c, 12, 66, 20
14, 26624, Note_on_c, 12, 69, 20
14, 26624, Note_on_c, 12, 48, 30
14, 27290, Note_on_c, 12, 48, 0
14, 27648, Note_on_c, 12, 48, 30
14, 28314, Note_on_c, 12, 48, 0
14, 28672, Note_on_c, 12, 48, 30
14, 29338, Note_on_c, 12, 48, 0
14, 29696, Note_on_c, 12, 63, 0
14, 29696, Note_on_c, 12, 66, 0
14, 29696, Note_on_c, 12, 69, 0
14, 29696, Note_on_c, 12, 61, 20
14, 29696, Note_on_c, 12, 65, 20
14, 29696, Note_on_c, 12, 68, 20
14, 29696, Note_on_c, 12, 47, 30
14, 30362, Note_on_c, 12, 47, 0
14, 30720, Note_on_c, 12, 47, 30
14, 31386, Note_on_c, 12, 47, 0
14, 31744, Note_on_c, 12, 47, 30
14, 32410, Note_on_c, 12, 47, 0
14, 32768, Note_on_c, 12, 61, 0
14, 32768, Note_on_c, 12, 65, 0
14, 32768, Note_on_c, 12, 68, 0
14, 32768, Note_on_c, 12, 61, 20
14, 32768, Note_on_c, 12, 66, 20
14, 32768, Note_on_c, 12, 45, 30
14, 33434, Note_on_c, 12, 45, 0
14, 33792, Note_on_c, 12, 44, 34
14, 34458, Note_on_c, 12, 44, 0
14, 34816, Note_on_c, 12, 42, 38
14, 35482, Note_on_c, 12, 42, 0
14, 35840, Note_on_c, 12, 61, 0
14, 35840, Note_on_c, 12, 66, 0
14, 35840, Note_on_c, 12, 62, 20
14, 35840, Note_on_c, 12, 66, 20
14, 35840, Note_on_c, 12, 69, 20
14, 35840, Note_on_c, 12, 50, 42
14, 36506, Note_on_c, 12, 50, 0
14, 36864, Note_on_c, 12, 50, 46
14, 37530, Note_on_c, 12, 50, 0
14, 37888, Note_on_c, 12, 50, 50
14, 38554, Note_on_c, 12, 50, 0
14, 38912, Note_on_c, 12, 62, 0
14, 38912, Note_on_c, 12, 66, 0
14, 38912, Note_on_c, 12, 69, 0
14, 38912, Note_on_c, 12, 56, 20
14, 38912, Note_on_c, 12, 65, 20
14, 38912, Note_on_c, 12, 68, 20
14, 38912, Note_on_c, 12, 49, 30
14, 39578, Note_on_c, 12, 49, 0
14, 39936, Note_on_c, 12, 49, 30
14, 40602, Note_on_c, 12, 49, 0
14, 40960, Note_on_c, 12, 49, 30
14, 41626, Note_on_c, 12, 49, 0
14, 41984, Note_on_c, 12, 56, 0
14, 41984, Note_on_c, 12, 65, 0
14, 41984, Note_on_c, 12, 68, 0
14, 41984, Note_on_c, 12, 61, 20
14, 41984, Note_on_c, 12, 66, 20
14, 41984, Note_on_c, 12, 69, 20
14, 41984, Note_on_c, 12, 42, 30
14, 42650, Note_on_c, 12, 42, 0
14, 43008, Note_on_c, 12, 42, 30
14, 43674, Note_on_c, 12, 42, 0
14, 44032, Note_on_c, 12, 42, 30
14, 44698, Note_on_c, 12, 42, 0
14, 45056, Note_on_c, 12, 61, 0
14, 45056, Note_on_c, 12, 66, 0
14, 45056, Note_on_c, 12, 69, 0
14, 45056, Note_on_c, 12, 61, 20
14, 45056, Note_on_c, 12, 64, 20
14, 45056, Note_on_c, 12, 67, 20
14, 45056, Note_on_c, 12, 70, 20
14, 45056, Note_on_c, 12, 40, 30
14, 45722, Note_on_c, 12, 40, 0
14, 46080, Note_on_c, 12, 40, 30
14, 46746, Note_on_c, 12, 40, 0
14, 47104, Note_on_c, 12, 40, 30
14, 47770, Note_on_c, 12, 40, 0
14, 48128, Note_on_c, 12, 61, 0
14, 48128, Note_on_c, 12, 64, 0
14, 48128, Note_on_c, 12, 67, 0
14, 48128, Note_on_c, 12, 70, 0
14, 48128, Note_on_c, 12, 59, 20
14, 48128, Note_on_c, 12, 66, 20
14, 48128, Note_on_c, 12, 71, 20
14, 48128, Note_on_c, 12, 39, 30
14, 49152, Note_on_c, 12, 39, 0
14, 49152, Note_on_c, 12, 44, 33
14, 50176, Note_on_c, 12, 44, 0
14, 50176, Note_on_c, 12, 42, 36
14, 51200, Note_on_c, 12, 59, 0
14, 51200, Note_on_c, 12, 66, 0
14, 51200, Note_on_c, 12, 71, 0
14, 51200, Note_on_c, 12, 42, 0
14, 51200, Note_on_c, 12, 61, 20
14, 51200, Note_on_c, 12, 68, 20
14, 51200, Note_on_c, 12, 71, 20
14, 51200, Note_on_c, 12, 41, 39
14, 52224, Note_on_c, 12, 41, 0
14, 52224, Note_on_c, 12, 42, 42
14, 53248, Note_on_c, 12, 42, 0
14, 53248, Note_on_c, 12, 44, 45
14, 54272, Note_on_c, 12, 61, 0
14, 54272, Note_on_c, 12, 68, 0
14, 54272, Note_on_c, 12, 71, 0
14, 54272, Note_on_c, 12, 44, 0
14, 54272, Note_on_c, 12, 62, 20
14, 54272, Note_on_c, 12, 65, 20
14, 54272, Note_on_c, 12, 71, 20
14, 54272, Note_on_c, 12, 44, 48
14, 55296, Note_on_c, 12, 44, 0
14, 55296, Note_on_c, 12, 45, 51
14, 56320, Note_on_c, 12, 45, 0
14, 56320, Note_on_c, 12, 47, 54
14, 57344, Note_on_c, 12, 62, 0
14, 57344, Note_on_c, 12, 65, 0
14, 57344, Note_on_c, 12, 71, 0
14, 57344, Note_on_c, 12, 47, 0
14, 57344, Note_on_c, 12, 65, 20
14, 57344, Note_on_c, 12, 68, 20
14, 57344, Note_on_c, 12, 49, 57
14, 58010, Note_on_c, 12, 49, 0
14, 58368, Note_on_c, 12, 49, 60
14, 59034, Note_on_c, 12, 49, 0
14, 59392, Note_on_c, 12, 65, 0
14, 59392, Note_on_c, 12, 68, 0
14, 59392, Note_on_c, 12, 59, 20
14, 59392, Note_on_c, 12, 61, 20
14, 59392, Note_on_c, 12, 65, 20
14, 59392, Note_on_c, 12, 49, 63
14, 60058, Note_on_c, 12, 49, 0
14, 60416, Note_on_c, 12, 59, 0
14, 60416, Note_on_c, 12, 61, 0
14, 60416, Note_on_c, 12, 65, 0
14, 60416, Note_on_c, 12, 57, 20
14, 60416, Note_on_c, 12, 61, 20
14, 60416, Note_on_c, 12, 42, 30
14, 61082, Note_on_c, 12, 42, 0
14, 61440, Note_on_c, 12, 42, 30
14, 62106, Note_on_c, 12, 42, 0
14, 62464, Note_on_c, 12, 42, 30
14, 63130, Note_on_c, 12, 42, 0
14, 63488, Note_on_c, 12, 57, 0
14, 63488, Note_on_c, 12, 61, 0
14, 63488, Note_on_c, 12, 54, 20
14, 63488, Note_on_c, 12, 59, 20
14, 63488, Note_on_c, 12, 62, 20
14, 63488, Note_on_c, 12, 42, 30
14, 64154, Note_on_c, 12, 42, 0
14, 64512, Note_on_c, 12, 42, 30
14, 65178, Note_on_c, 12, 42, 0
14, 65536, Note_on_c, 12, 42, 30
14, 66202, Note_on_c, 12, 42, 0
14, 66560, Note_on_c, 12, 54, 0
14, 66560, Note_on_c, 12, 59, 0
14, 66560, Note_on_c, 12, 62, 0
14, 66560, Note_on_c, 12, 56, 20
14, 66560, Note_on_c, 12, 59, 20
14, 66560, Note_on_c, 12, 62, 20
14, 66560, Note_on_c, 12, 65, 20
14, 66560, Note_on_c, 12, 42, 30
14, 67226, Note_on_c, 12, 42, 0
14, 67584, Note_on_c, 12, 42, 30
14, 68250, Note_on_c, 12, 42, 0
14, 68608, Note_on_c, 12, 42, 30
14, 69274, Note_on_c, 12, 42, 0
14, 69632, Note_on_c, 12, 56, 0
14, 69632, Note_on_c, 12, 59, 0
14, 69632, Note_on_c, 12, 62, 0
14, 69632, Note_on_c, 12, 65, 0
14, 69632, Note_on_c, 12, 57, 20
14, 69632, Note_on_c, 12, 61, 20
14, 69632, Note_on_c, 12, 42, 30
14, 70298, Note_on_c, 12, 42, 0
14, 70656, Note_on_c, 12, 42, 30
14, 71322, Note_on_c, 12, 42, 0
14, 71680, Note_on_c, 12, 42, 30
14, 72346, Note_on_c, 12, 42, 0
14, 72704, Note_on_c, 12, 57, 0
14, 72704, Note_on_c, 12, 61, 0
14, 72704, Note_on_c, 12, 61, 20
14, 72704, Note_on_c, 12, 66, 20
14, 72704, Note_on_c, 12, 69, 20
14, 72704, Note_on_c, 12, 42, 30
14, 73370, Note_on_c, 12, 42, 0
14, 73728, Note_on_c, 12, 42, 30
14, 74394, Note_on_c, 12, 42, 0
14, 74752, Note_on_c, 12, 42, 30
14, 75418, Note_on_c, 12, 42, 0
14, 75776, Note_on_c, 12, 61, 0
14, 75776, Note_on_c, 12, 66, 0
14, 75776, Note_on_c, 12, 69, 0
14, 75776, Note_on_c, 12, 59, 20
14, 75776, Note_on_c, 12, 62, 20
14, 75776, Note_on_c, 12, 68, 20
14, 75776, Note_on_c, 12, 42, 30
14, 76442, Note_on_c, 12, 42, 0
14, 76800, Note_on_c, 12, 42, 30
14, 77466, Note_on_c, 12, 42, 0
14, 77824, Note_on_c, 12, 42, 30
14, 78490, Note_on_c, 12, 42, 0
14, 78848, Note_on_c, 12, 59, 0
14, 78848, Note_on_c, 12, 62, 0
14, 78848, Note_on_c, 12, 68, 0
14, 78848, Note_on_c, 12, 62, 20
14, 78848, Note_on_c, 12, 65, 20
14, 78848, Note_on_c, 12, 68, 20
14, 78848, Note_on_c, 12, 71, 20
14, 78848, Note_on_c, 12, 42, 30
14, 79514, Note_on_c, 12, 42, 0
14, 79872, Note_on_c, 12, 42, 30
14, 80538, Note_on_c, 12, 42, 0
14, 80896, Note_on_c, 12, 42, 30
14, 81562, Note_on_c, 12, 42, 0
14, 81920, Note_on_c, 12, 62, 0
14, 81920, Note_on_c, 12, 65, 0
14, 81920, Note_on_c, 12, 68, 0
14, 81920, Note_on_c, 12, 71, 0
14, 81920, Note_on_c, 12, 61, 20
14, 81920, Note_on_c, 12, 66, 20
14, 81920, Note_on_c, 12, 69, 20
14, 81920, Note_on_c, 12, 42, 30
14, 82586, Note_on_c, 12, 42, 0
14, 82944, Note_on_c, 12, 42, 30
14, 83610, Note_on_c, 12, 42, 0
14, 83968, Note_on_c, 12, 42, 30
14, 84634, Note_on_c, 12, 42, 0
14, 84992, Note_on_c, 12, 61, 0
14, 84992, Note_on_c, 12, 66, 0
14, 84992, Note_on_c, 12, 69, 0
14, 84992, Note_on_c, 12, 59, 20
14, 84992, Note_on_c, 12, 66, 20
14, 84992, Note_on_c, 12, 69, 20
14, 84992, Note_on_c, 12, 47, 30
14, 85658, Note_on_c, 12, 47, 0
14, 86016, Note_on_c, 12, 47, 33
14, 86682, Note_on_c, 12, 47, 0
14, 87040, Note_on_c, 12, 47, 35
14, 87706, Note_on_c, 12, 47, 0
14, 88064, Note_on_c, 12, 59, 0
14, 88064, Note_on_c, 12, 66, 0
14, 88064, Note_on_c, 12, 69, 0
14, 88064, Note_on_c, 12, 59, 20
14, 88064, Note_on_c, 12, 64, 20
14, 88064, Note_on_c, 12, 67, 20
14, 88064, Note_on_c, 12, 52, 38
14, 88730, Note_on_c, 12, 52, 0
14, 89088, Note_on_c, 12, 52, 40
14, 89754, Note_on_c, 12, 52, 0
14, 90112, Note_on_c, 12, 52, 43
14, 90778, Note_on_c, 12, 52, 0
14, 91136, Note_on_c, 12, 59, 0
14, 91136, Note_on_c, 12, 64, 0
14, 91136, Note_on_c, 12, 67, 0
14, 91136, Note_on_c, 12, 64, 20
14, 91136, Note_on_c, 12, 67, 20
14, 91136, Note_on_c, 12, 73, 20
14, 91136, Note_on_c, 12, 46, 45
14, 91802, Note_on_c, 12, 46, 0
14, 92160, Note_on_c, 12, 46, 48
14, 92826, Note_on_c, 12, 46, 0
14, 93184, Note_on_c, 12, 46, 50
14, 93850, Note_on_c, 12, 46, 0
14, 94208, Note_on_c, 12, 64, 0
14, 94208, Note_on_c, 12, 67, 0
14, 94208, Note_on_c, 12, 73, 0
14, 94208, Note_on_c, 12, 62, 20
14, 94208, Note_on_c, 12, 66, 20
14, 94208, Note_on_c, 12, 47, 53
14, 94874, Note_on_c, 12, 47, 0
14, 95232, Note_on_c, 12, 47, 55
14, 95898, Note_on_c, 12, 47, 0
14, 96256, Note_on_c, 12, 47, 58
14, 96922, Note_on_c, 12, 47, 0
14, 97280, Note_on_c, 12, 62, 0
14, 97280, Note_on_c, 12, 66, 0
14, 97280, Note_on_c, 12, 61, 20
14, 97280, Note_on_c, 12, 66, 20
14, 97280, Note_on_c, 12, 70, 20
14, 97280, Note_on_c, 12, 42, 30
14, 97946, Note_on_c, 12, 42, 0
14, 98304, Note_on_c, 12, 42, 30
14, 98970, Note_on_c, 12, 42, 0
14, 99328, Note_on_c, 12, 42, 30
14, 99994, Note_on_c, 12, 42, 0
14, 100352, Note_on_c, 12, 61, 0
14, 100352, Note_on_c, 12, 66, 0
14, 100352, Note_on_c, 12, 70, 0
14, 100352, Note_on_c, 12, 62, 20
14, 100352, Note_on_c, 12, 66, 20
14, 100352, Note_on_c, 12, 71, 20
14, 100352, Note_on_c, 12, 47, 30
14, 101018, Note_on_c, 12, 47, 0
14, 101376, Note_on_c, 12, 47, 30
14, 102042, Note_on_c, 12, 47, 0
14, 102400, Note_on_c, 12, 47, 30
14, 103066, Note_on_c, 12, 47, 0
14, 103424, Note_on_c, 12, 62, 0
14, 103424, Note_on_c, 12, 66, 0
14, 103424, Note_on_c, 12, 71, 0
14, 103424, Note_on_c, 12, 63, 20
14, 103424, Note_on_c, 12, 66, 20
14, 103424, Note_on_c, 12, 71, 20
14, 103424, Note_on_c, 12, 45, 30
14, 104090, Note_on_c, 12, 45, 0
14, 104448, Note_on_c, 12, 45, 33
14, 105114, Note_on_c, 12, 45, 0
14, 105472, Note_on_c, 12, 45, 36
14, 106138, Note_on_c, 12, 45, 0
14, 106496, Note_on_c, 12, 63, 0
14, 106496, Note_on_c, 12, 66, 0
14, 106496, Note_on_c, 12, 71, 0
14, 106496, Note_on_c, 12, 64, 20
14, 106496, Note_on_c, 12, 71, 20
14, 106496, Note_on_c, 12, 44, 39
14, 107520, Note_on_c, 12, 44, 0
14, 107520, Note_on_c, 12, 49, 42
14, 108544, Note_on_c, 12, 49, 0
14, 108544, Note_on_c, 12, 47, 45
14, 109568, Note_on_c, 12, 64, 0
14, 109568, Note_on_c, 12, 71, 0
14, 109568, Note_on_c, 12, 47, 0
14, 109568, Note_on_c, 12, 64, 20
14, 109568, Note_on_c, 12, 66, 20
14, 109568, Note_on_c, 12, 73, 20
14, 109568, Note_on_c, 12, 46, 48
14, 110592, Note_on_c, 12, 46, 0
14, 110592, Note_on_c, 12, 47, 51
14, 111616, Note_on_c, 12, 47, 0
14, 111616, Note_on_c, 12, 49, 55
14, 112640, Note_on_c, 12, 64, 0
14, 112640, Note_on_c, 12, 66, 0
14, 112640, Note_on_c, 12, 73, 0
14, 112640, Note_on_c, 12, 58, 20
14, 112640, Note_on_c, 12, 64, 20
14, 112640, Note_on_c, 12, 67, 20
14, 113664, Note_on_c, 12, 49, 0
14, 113664, Note_on_c, 12, 50, 61
14, 114688, Note_on_c, 12, 50, 0
14, 114688, Note_on_c, 12, 41, 64
14, 115712, Note_on_c, 12, 58, 0
14, 115712, Note_on_c, 12, 64, 0
14, 115712, Note_on_c, 12, 67, 0
14, 115712, Note_on_c, 12, 41, 0
14, 115712, Note_on_c, 12, 59, 20
14, 115712, Note_on_c, 12, 62, 20
14, 115712, Note_on_c, 12, 66, 20
14, 115712, Note_on_c, 12, 42, 67
14, 116378, Note_on_c, 12, 42, 0
14, 116736, Note_on_c, 12, 42, 70
14, 117402, Note_on_c, 12, 42, 0
14, 117760, Note_on_c, 12, 42, 73
14, 118426, Note_on_c, 12, 42, 0
14, 118784, Note_on_c, 12, 59, 0
14, 118784, Note_on_c, 12, 62, 0
14, 118784, Note_on_c, 12, 66, 0
14, 118784, Note_on_c, 12, 59, 20
14, 118784, Note_on_c, 12, 62, 20
14, 118784, Note_on_c, 12, 66, 20
14, 118784, Note_on_c, 12, 47, 54
14, 119450, Note_on_c, 12, 47, 0
14, 119808, Note_on_c, 12, 47, 30
14, 120474, Note_on_c, 12, 47, 0
14, 120832, Note_on_c, 12, 47, 30
14, 121498, Note_on_c, 12, 47, 0
14, 121856, Note_on_c, 12, 59, 0
14, 121856, Note_on_c, 12, 62, 0
14, 121856, Note_on_c, 12, 66, 0
14, 121856, Note_on_c, 12, 59, 20
14, 121856, Note_on_c, 12, 64, 20
14, 121856, Note_on_c, 12, 67, 20
14, 121856, Note_on_c, 12, 47, 25
14, 122522, Note_on_c, 12, 47, 0
14, 122880, Note_on_c, 12, 47, 25
14, 123546, Note_on_c, 12, 47, 0
14, 123904, Note_on_c, 12, 47, 25
14, 124570, Note_on_c, 12, 47, 0
14, 124928, Note_on_c, 12, 59, 0
14, 124928, Note_on_c, 12, 64, 0
14, 124928, Note_on_c, 12, 67, 0
14, 124928, Note_on_c, 12, 58, 20
14, 124928, Note_on_c, 12, 61, 20
14, 124928, Note_on_c, 12, 64, 20
14, 124928, Note_on_c, 12, 67, 20
14, 124928, Note_on_c, 12, 47, 25
14, 125952, Note_on_c, 12, 47, 0
14, 125952, Note_on_c, 12, 47, 25
14, 126976, Note_on_c, 12, 47, 0
14, 126976, Note_on_c, 12, 47, 25
14, 128000, Note_on_c, 12, 58, 0
14, 128000, Note_on_c, 12, 61, 0
14, 128000, Note_on_c, 12, 64, 0
14, 128000, Note_on_c, 12, 67, 0
14, 128000, Note_on_c, 12, 47, 0
14, 128000, Note_on_c, 12, 62, 20
14, 128000, Note_on_c, 12, 66, 20
14, 128000, Note_on_c, 12, 47, 30
14, 129024, Note_on_c, 12, 47, 0
14, 129024, Note_on_c, 12, 50, 33
14, 130048, Note_on_c, 12, 50, 0
14, 130048, Note_on_c, 12, 52, 35
14, 131072, Note_on_c, 12, 62, 0
14, 131072, Note_on_c, 12, 66, 0
14, 131072, Note_on_c, 12, 52, 0
14, 131072, Note_on_c, 12, 64, 20
14, 131072, Note_on_c, 12, 67, 20
14, 131072, Note_on_c, 12, 71, 20
14, 131072, Note_on_c, 12, 49, 38
14, 132096, Note_on_c, 12, 49, 0
14, 132096, Note_on_c, 12, 52, 41
14, 133120, Note_on_c, 12, 52, 0
14, 133120, Note_on_c, 12, 54, 43
14, 134144, Note_on_c, 12, 64, 0
14, 134144, Note_on_c, 12, 67, 0
14, 134144, Note_on_c, 12, 71, 0
14, 134144, Note_on_c, 12, 54, 0
14, 134144, Note_on_c, 12, 66, 20
14, 134144, Note_on_c, 12, 69, 20
14, 134144, Note_on_c, 12, 50, 46
14, 135168, Note_on_c, 12, 50, 0
14, 135168, Note_on_c, 12, 54, 49
14, 136192, Note_on_c, 12, 54, 0
14, 136192, Note_on_c, 12, 55, 51
14, 137216, Note_on_c, 12, 66, 0
14, 137216, Note_on_c, 12, 69, 0
14, 137216, Note_on_c, 12, 55, 0
14, 137216, Note_on_c, 12, 67, 20
14, 137216, Note_on_c, 12, 71, 20
14, 137216, Note_on_c, 12, 79, 20
14, 137216, Note_on_c, 12, 52, 54
14, 137549, Note_on_c, 12, 52, 0
14, 137728, Note_on_c, 12, 64, 54
14, 138061, Note_on_c, 12, 64, 0
14, 138240, Note_on_c, 12, 58, 54
14, 138752, Note_on_c, 12, 58, 0
14, 138752, Note_on_c, 12, 59, 40
14, 139085, Note_on_c, 12, 59, 0
14, 139264, Note_on_c, 12, 54, 54
14, 139776, Note_on_c, 12, 54, 0
14, 139776, Note_on_c, 12, 55, 40
14, 140109, Note_on_c, 12, 55, 0
14, 140288, Note_on_c, 12, 67, 0
14, 140288, Note_on_c, 12, 71, 0
14, 140288, Note_on_c, 12, 79, 0
14, 140800, Note_on_c, 12, 59, 54
14, 141133, Note_on_c, 12, 59, 0
14, 141312, Note_on_c, 12, 54, 54
14, 141824, Note_on_c, 12, 54, 0
14, 141824, Note_on_c, 12, 55, 40
14, 142157, Note_on_c, 12, 55, 0
14, 142336, Note_on_c, 12, 51, 54
14, 142848, Note_on_c, 12, 51, 0
14, 142848, Note_on_c, 12, 52, 40
14, 143181, Note_on_c, 12, 52, 0
14, 143872, Note_on_c, 12, 55, 54
14, 144205, Note_on_c, 12, 55, 0
14, 144384, Note_on_c, 12, 51, 54
14, 144896, Note_on_c, 12, 51, 0
14, 144896, Note_on_c, 12, 52, 40
14, 145229, Note_on_c, 12, 52, 0
14, 145408, Note_on_c, 12, 48, 54
14, 145920, Note_on_c, 12, 48, 0
14, 145920, Note_on_c, 12, 47, 40
14, 146253, Note_on_c, 12, 47, 0
14, 146432, Note_on_c, 12, 46, 45
14, 147098, Note_on_c, 12, 46, 0
14, 147456, Note_on_c, 12, 46, 38
14, 148122, Note_on_c, 12, 46, 0
14, 148480, Note_on_c, 12, 64, 20
14, 148480, Note_on_c, 12, 67, 20
14, 148480, Note_on_c, 12, 58, 20
14, 148480, Note_on_c, 12, 46, 31
14, 148992, Note_on_c, 12, 58, 0
14, 148992, Note_on_c, 12, 59, 20
14, 149146, Note_on_c, 12, 46, 0
14, 149504, Control_c, 12, 7, 127
14, 149504, Note_on_c, 12, 64, 0
14, 149504, Note_on_c, 12, 67, 0
14, 149504, Note_on_c, 12, 59, 0
14, 149504, Note_on_c, 12, 59, 20
14, 149504, Note_on_c, 12, 63, 20
14, 149504, Note_on_c, 12, 66, 20
14, 149504, Note_on_c, 12, 47, 20
14, 149584, Control_c, 12, 7, 125
14, 149603, Control_c, 12, 7, 127
14, 149633, Control_c, 12, 7, 126
14, 149662, Control_c, 12, 7, 125
14, 149692, Control_c, 12, 7, 124
14, 149721, Control_c, 12, 7, 123
14, 149750, Control_c, 12, 7, 122
14, 149780, Control_c, 12, 7, 121
14, 149809, Control_c, 12, 7, 120
14, 149838, Control_c, 12, 7, 119
14, 149868, Control_c, 12, 7, 118
14, 149897, Control_c, 12, 7, 117
14, 149926, Control_c, 12, 7, 116
14, 149956, Control_c, 12, 7, 115
14, 149985, Control_c, 12, 7, 114
14, 150015, Control_c, 12, 7, 113
14, 150044, Control_c, 12, 7, 112
14, 150073, Control_c, 12, 7, 111
14, 150103, Control_c, 12, 7, 110
14, 150132, Control_c, 12, 7, 109
14, 150161, Control_c, 12, 7, 108
14, 150191, Control_c, 12, 7, 107
14, 150220, Control_c, 12, 7, 106
14, 150249, Control_c, 12, 7, 105
14, 150279, Control_c, 12, 7, 104
14, 150308, Control_c, 12, 7, 103
14, 150337, Control_c, 12, 7, 102
14, 150367, Control_c, 12, 7, 101
14, 150396, Control_c, 12, 7, 100
14, 150426, Control_c, 12, 7, 99
14, 150455, Control_c, 12, 7, 98
14, 150484, Control_c, 12, 7, 97
14, 150514, Control_c, 12, 7, 96
14, 150543, Control_c, 12, 7, 95
14, 150572, Control_c, 12, 7, 94
14, 150602, Control_c, 12, 7, 93
14, 150631, Control_c, 12, 7, 92
14, 150660, Control_c, 12, 7, 91
14, 150690, Control_c, 12, 7, 90
14, 150719, Control_c, 12, 7, 89
14, 150748, Control_c, 12, 7, 88
14, 150778, Control_c, 12, 7, 87
14, 150807, Control_c, 12, 7, 86
14, 150837, Control_c, 12, 7, 85
14, 150866, Control_c, 12, 7, 84
14, 150895, Control_c, 12, 7, 83
14, 150925, Control_c, 12, 7, 82
14, 150954, Control_c, 12, 7, 81
14, 150983, Control_c, 12, 7, 80
14, 151013, Control_c, 12, 7, 79
14, 151042, Control_c, 12, 7, 78
14, 151071, Control_c, 12, 7, 77
14, 151101, Control_c, 12, 7, 76
14, 151130, Control_c, 12, 7, 75
14, 151159, Control_c, 12, 7, 74
14, 151189, Control_c, 12, 7, 73
14, 151218, Control_c, 12, 7, 72
14, 151248, Control_c, 12, 7, 71
14, 151277, Control_c, 12, 7, 70
14, 151306, Control_c, 12, 7, 69
14, 151336, Control_c, 12, 7, 68
14, 151365, Control_c, 12, 7, 67
14, 151394, Control_c, 12, 7, 66
14, 151424, Control_c, 12, 7, 65
14, 151453, Control_c, 12, 7, 64
14, 151482, Control_c, 12, 7, 63
14, 151512, Control_c, 12, 7, 62
14, 151541, Control_c, 12, 7, 61
14, 151570, Control_c, 12, 7, 60
14, 151600, Control_c, 12, 7, 59
14, 151629, Control_c, 12, 7, 58
14, 151659, Control_c, 12, 7, 57
14, 151688, Control_c, 12, 7, 56
14, 151717, Control_c, 12, 7, 55
14, 151747, Control_c, 12, 7, 54
14, 151776, Control_c, 12, 7, 53
14, 151805, Control_c, 12, 7, 52
14, 151835, Control_c, 12, 7, 51
14, 151864, Control_c, 12, 7, 50
14, 151893, Control_c, 12, 7, 49
14, 151923, Control_c, 12, 7, 48
14, 151952, Control_c, 12, 7, 47
14, 151981, Control_c, 12, 7, 46
14, 152011, Control_c, 12, 7, 45
14, 152040, Control_c, 12, 7, 44
14, 152070, Control_c, 12, 7, 43
14, 152099, Control_c, 12, 7, 42
14, 152128, Control_c, 12, 7, 41
14, 152158, Control_c, 12, 7, 40
14, 152187, Control_c, 12, 7, 39
14, 152216, Control_c, 12, 7, 38
14, 152246, Control_c, 12, 7, 37
14, 152275, Control_c, 12, 7, 36
14, 152304, Control_c, 12, 7, 35
14, 152334, Control_c, 12, 7, 34
14, 152363, Control_c, 12, 7, 33
14, 152392, Control_c, 12, 7, 32
14, 152422, Control_c, 12, 7, 31
14, 152451, Control_c, 12, 7, 30
14, 152481, Control_c, 12, 7, 29
14, 152510, Control_c, 12, 7, 28
14, 152539, Control_c, 12, 7, 27
14, 152569, Control_c, 12, 7, 26
14, 152576, Note_on_c, 12, 59, 0
14, 152576, Note_on_c, 12, 63, 0
14, 152576, Note_on_c, 12, 66, 0
14, 152576, Note_on_c, 12, 47, 0
14, 152598, Control_c, 12, 7, 25
14, 152627, Control_c, 12, 7, 24
14, 152657, Control_c, 12, 7, 23
14, 152686, Control_c, 12, 7, 22
14, 152715, Control_c, 12, 7, 21
14, 152745, Control_c, 12, 7, 20
14, 152774, Control_c, 12, 7, 19
14, 152803, Control_c, 12, 7, 18
14, 152813, Control_c, 12, 7, 47
14, 152867, Control_c, 12, 7, 46
14, 152995, Control_c, 12, 7, 127
14, 155648, Note_on_c, 12, 64, 21
14, 155648, Note_on_c, 12, 67, 21
14, 155648, Note_on_c, 12, 71, 21
14, 157286, Note_on_c, 12, 64, 0
14, 157286, Note_on_c, 12, 67, 0
14, 157286, Note_on_c, 12, 71, 0
14, 157696, Note_on_c, 12, 71, 21
14, 157696, Note_on_c, 12, 76, 21
14, 157696, Note_on_c, 12, 79, 21
14, 159334, Note_on_c, 12, 71, 0
14, 159334, Note_on_c, 12, 76, 0
14, 159334, Note_on_c, 12, 79, 0
14, 159744, Note_on_c, 12, 64, 21
14, 159744, Note_on_c, 12, 67, 21
14, 159744, Note_on_c, 12, 72, 21
14, 159744, Note_on_c, 12, 76, 21
14, 161382, Note_on_c, 12, 64, 0
14, 161382, Note_on_c, 12, 67, 0
14, 161382, Note_on_c, 12, 72, 0
14, 161382, Note_on_c, 12, 76, 0
14, 161792, Note_on_c, 12, 66, 21
14, 161792, Note_on_c, 12, 69, 21
14, 161792, Note_on_c, 12, 72, 21
14, 163430, Note_on_c, 12, 66, 0
14, 163430, Note_on_c, 12, 69, 0
14, 163430, Note_on_c, 12, 72, 0
14, 163840, Note_on_c, 12, 66, 21
14, 163840, Note_on_c, 12, 71, 21
14, 163840, Note_on_c, 12, 78, 21
14, 165478, Note_on_c, 12, 66, 0
14, 165478, Note_on_c, 12, 71, 0
14, 165478, Note_on_c, 12, 78, 0
14, 165888, Note_on_c, 12, 59, 21
14, 165888, Note_on_c, 12, 66, 21
14, 165888, Note_on_c, 12, 71, 21
14, 167526, Note_on_c, 12, 59, 0
14, 167526, Note_on_c, 12, 66, 0
14, 167526, Note_on_c, 12, 71, 0
14, 167936, Note_on_c, 12, 64, 21
14, 167936, Note_on_c, 12, 67, 21
14, 167936, Note_on_c, 12, 71, 21
14, 169574, Note_on_c, 12, 64, 0
14, 169574, Note_on_c, 12, 67, 0
14, 169574, Note_on_c, 12, 71, 0
14, 169984, Note_on_c, 12, 64, 21
14, 169984, Note_on_c, 12, 69, 21
14, 169984, Note_on_c, 12, 76, 21
14, 171622, Note_on_c, 12, 64, 0
14, 171622, Note_on_c, 12, 69, 0
14, 171622, Note_on_c, 12, 76, 0
14, 172032, Note_on_c, 12, 64, 21
14, 172032, Note_on_c, 12, 69, 21
14, 173670, Note_on_c, 12, 64, 0
14, 173670, Note_on_c, 12, 69, 0
14, 174080, Note_on_c, 12, 64, 21
14, 174080, Note_on_c, 12, 67, 21
14, 174080, Note_on_c, 12, 71, 21
14, 175718, Note_on_c, 12, 64, 0
14, 175718, Note_on_c, 12, 67, 0
14, 175718, Note_on_c, 12, 71, 0
14, 176128, Note_on_c, 12, 63, 21
14, 176128, Note_on_c, 12, 66, 21
14, 176128, Note_on_c, 12, 71, 21
14, 177766, Note_on_c, 12, 63, 0
14, 177766, Note_on_c, 12, 66, 0
14, 177766, Note_on_c, 12, 71, 0
14, 178176, Note_on_c, 12, 59, 21
14, 178176, Note_on_c, 12, 63, 21
14, 178176, Note_on_c, 12, 66, 21
14, 178176, Note_on_c, 12, 69, 21
14, 179814, Note_on_c, 12, 59, 0
14, 179814, Note_on_c, 12, 63, 0
14, 179814, Note_on_c, 12, 66, 0
14, 179814, Note_on_c, 12, 69, 0
14, 180224, Note_on_c, 12, 59, 21
14, 180224, Note_on_c, 12, 64, 21
14, 180224, Note_on_c, 12, 67, 21
14, 181862, Note_on_c, 12, 59, 0
14, 181862, Note_on_c, 12, 64, 0
14, 181862, Note_on_c, 12, 67, 0
14, 182272, Note_on_c, 12, 67, 21
14, 182272, Note_on_c, 12, 72, 21
14, 182272, Note_on_c, 12, 79, 21
14, 183910, Note_on_c, 12, 67, 0
14, 183910, Note_on_c, 12, 72, 0
14, 183910, Note_on_c, 12, 79, 0
14, 184320, Note_on_c, 12, 64, 21
14, 184320, Note_on_c, 12, 67, 21
14, 184320, Note_on_c, 12, 72, 21
14, 184320, Note_on_c, 12, 76, 21
14, 185958, Note_on_c, 12, 64, 0
14, 185958, Note_on_c, 12, 67, 0
14, 185958, Note_on_c, 12, 72, 0
14, 185958, Note_on_c, 12, 76, 0
14, 186368, Note_on_c, 12, 66, 21
14, 186368, Note_on_c, 12, 69, 21
14, 186368, Note_on_c, 12, 72, 21
14, 188006, Note_on_c, 12, 66, 0
14, 188006, Note_on_c, 12, 69, 0
14, 188006, Note_on_c, 12, 72, 0
14, 188416, Note_on_c, 12, 71, 20
14, 188416, Note_on_c, 12, 77, 20
14, 188416, Note_on_c, 12, 80, 20
14, 190054, Note_on_c, 12, 71, 0
14, 190054, Note_on_c, 12, 77, 0
14, 190054, Note_on_c, 12, 80, 0
14, 190464, Note_on_c, 12, 65, 20
14, 190464, Note_on_c, 12, 68, 20
14, 190464, Note_on_c, 12, 71, 20
14, 192102, Note_on_c, 12, 65, 0
14, 192102, Note_on_c, 12, 68, 0
14, 192102, Note_on_c, 12, 71, 0
14, 192512, Note_on_c, 12, 65, 20
14, 192512, Note_on_c, 12, 68, 20
14, 192512, Note_on_c, 12, 71, 20
14, 194150, Note_on_c, 12, 65, 0
14, 194150, Note_on_c, 12, 68, 0
14, 194150, Note_on_c, 12, 71, 0
14, 194560, Note_on_c, 12, 69, 20
14, 194560, Note_on_c, 12, 76, 20
14, 194560, Note_on_c, 12, 81, 20
14, 196198, Note_on_c, 12, 69, 0
14, 196198, Note_on_c, 12, 76, 0
14, 196198, Note_on_c, 12, 81, 0
14, 196608, Note_on_c, 12, 64, 20
14, 196608, Note_on_c, 12, 66, 20
14, 196608, Note_on_c, 12, 69, 20
14, 198246, Note_on_c, 12, 64, 0
14, 198246, Note_on_c, 12, 66, 0
14, 198246, Note_on_c, 12, 69, 0
14, 198656, Note_on_c, 12, 63, 20
14, 198656, Note_on_c, 12, 66, 20
14, 198656, Note_on_c, 12, 71, 20
14, 200294, Note_on_c, 12, 63, 0
14, 200294, Note_on_c, 12, 66, 0
14, 200294, Note_on_c, 12, 71, 0
14, 200704, Note_on_c, 12, 71, 20
14, 200704, Note_on_c, 12, 75, 20
14, 200704, Note_on_c, 12, 83, 20
14, 202342, Note_on_c, 12, 71, 0
14, 202342, Note_on_c, 12, 75, 0
14, 202342, Note_on_c, 12, 83, 0
14, 202752, Note_on_c, 12, 71, 20
14, 202752, Note_on_c, 12, 75, 20
14, 202752, Note_on_c, 12, 78, 20
14, 204390, Note_on_c, 12, 71, 0
14, 204390, Note_on_c, 12, 75, 0
14, 204390, Note_on_c, 12, 78, 0
14, 204800, Note_on_c, 12, 71, 20
14, 204800, Note_on_c, 12, 79, 20
14, 206438, Note_on_c, 12, 71, 0
14, 206438, Note_on_c, 12, 79, 0
14, 206848, Note_on_c, 12, 67, 20
14, 206848, Note_on_c, 12, 72, 20
14, 206848, Note_on_c, 12, 76, 20
14, 208486, Note_on_c, 12, 67, 0
14, 208486, Note_on_c, 12, 72, 0
14, 208486, Note_on_c, 12, 76, 0
14, 208896, Note_on_c, 12, 67, 20
14, 208896, Note_on_c, 12, 72, 20
14, 208896, Note_on_c, 12, 76, 20
14, 208896, Note_on_c, 12, 79, 20
14, 210534, Note_on_c, 12, 67, 0
14, 210534, Note_on_c, 12, 72, 0
14, 210534, Note_on_c, 12, 76, 0
14, 210534, Note_on_c, 12, 79, 0
14, 210944, Note_on_c, 12, 69, 20
14, 210944, Note_on_c, 12, 72, 20
14, 210944, Note_on_c, 12, 78, 20
14, 212582, Note_on_c, 12, 69, 0
14, 212582, Note_on_c, 12, 72, 0
14, 212582, Note_on_c, 12, 78, 0
14, 212992, Note_on_c, 12, 65, 20
14, 212992, Note_on_c, 12, 68, 20
14, 212992, Note_on_c, 12, 71, 20
14, 214630, Note_on_c, 12, 65, 0
14, 214630, Note_on_c, 12, 68, 0
14, 214630, Note_on_c, 12, 71, 0
14, 215040, Note_on_c, 12, 71, 20
14, 215040, Note_on_c, 12, 74, 20
14, 215040, Note_on_c, 12, 80, 20
14, 216678, Note_on_c, 12, 71, 0
14, 216678, Note_on_c, 12, 74, 0
14, 216678, Note_on_c, 12, 80, 0
14, 217088, Note_on_c, 12, 69, 20
14, 217088, Note_on_c, 12, 81, 20
14, 218726, Note_on_c, 12, 69, 0
14, 218726, Note_on_c, 12, 81, 0
14, 219136, Note_on_c, 12, 69, 20
14, 219136, Note_on_c, 12, 72, 20
14, 219136, Note_on_c, 12, 76, 20
14, 220774, Note_on_c, 12, 69, 0
14, 220774, Note_on_c, 12, 72, 0
14, 220774, Note_on_c, 12, 76, 0
14, 221184, Note_on_c, 12, 69, 19
14, 221184, Note_on_c, 12, 72, 19
14, 221184, Note_on_c, 12, 78, 19
14, 221184, Note_on_c, 12, 81, 19
14, 222822, Note_on_c, 12, 69, 0
14, 222822, Note_on_c, 12, 72, 0
14, 222822, Note_on_c, 12, 78, 0
14, 222822, Note_on_c, 12, 81, 0
14, 223232, Note_on_c, 12, 66, 19
14, 223232, Note_on_c, 12, 71, 19
14, 223232, Note_on_c, 12, 75, 19
14, 224870, Note_on_c, 12, 66, 0
14, 224870, Note_on_c, 12, 71, 0
14, 224870, Note_on_c, 12, 75, 0
14, 225280, Note_on_c, 12, 71, 19
14, 225280, Note_on_c, 12, 75, 19
14, 225280, Note_on_c, 12, 78, 19
14, 225280, Note_on_c, 12, 83, 19
14, 226918, Note_on_c, 12, 71, 0
14, 226918, Note_on_c, 12, 75, 0
14, 226918, Note_on_c, 12, 78, 0
14, 226918, Note_on_c, 12, 83, 0
14, 227328, Note_on_c, 12, 71, 19
14, 227328, Note_on_c, 12, 75, 19
14, 227328, Note_on_c, 12, 78, 19
14, 228966, Note_on_c, 12, 71, 0
14, 228966, Note_on_c, 12, 75, 0
14, 228966, Note_on_c, 12, 78, 0
14, 229376, Note_on_c, 12, 71, 19
14, 229376, Note_on_c, 12, 79, 19
14, 231014, Note_on_c, 12, 71, 0
14, 231014, Note_on_c, 12, 79, 0
14, 231424, Note_on_c, 12, 64, 19
14, 231424, Note_on_c, 12, 67, 19
14, 231424, Note_on_c, 12, 71, 19
14, 233062, Note_on_c, 12, 64, 0
14, 233062, Note_on_c, 12, 67, 0
14, 233062, Note_on_c, 12, 71, 0
14, 233472, Note_on_c, 12, 70, 19
14, 233472, Note_on_c, 12, 73, 19
14, 233472, Note_on_c, 12, 79, 19
14, 235110, Note_on_c, 12, 70, 0
14, 235110, Note_on_c, 12, 73, 0
14, 235110, Note_on_c, 12, 79, 0
14, 235520, Note_on_c, 12, 71, 19
14, 235520, Note_on_c, 12, 78, 19
14, 237158, Note_on_c, 12, 71, 0
14, 237158, Note_on_c, 12, 78, 0
14, 237568, Note_on_c, 12, 65, 19
14, 237568, Note_on_c, 12, 69, 19
14, 237568, Note_on_c, 12, 72, 19
14, 239206, Note_on_c, 12, 65, 0
14, 239206, Note_on_c, 12, 69, 0
14, 239206, Note_on_c, 12, 72, 0
14, 239616, Note_on_c, 12, 68, 19
14, 239616, Note_on_c, 12, 71, 19
14, 239616, Note_on_c, 12, 77, 19
14, 241254, Note_on_c, 12, 68, 0
14, 241254, Note_on_c, 12, 71, 0
14, 241254, Note_on_c, 12, 77, 0
14, 241664, Note_on_c, 12, 64, 19
14, 241664, Note_on_c, 12, 76, 19
14, 243302, Note_on_c, 12, 64, 0
14, 243302, Note_on_c, 12, 76, 0
14, 243712, Note_on_c, 12, 64, 19
14, 243712, Note_on_c, 12, 69, 19
14, 245350, Note_on_c, 12, 64, 0
14, 245350, Note_on_c, 12, 69, 0
14, 245760, Note_on_c, 12, 64, 19
14, 245760, Note_on_c, 12, 70, 19
14, 245760, Note_on_c, 12, 76, 19
14, 247398, Note_on_c, 12, 64, 0
14, 247398, Note_on_c, 12, 70, 0
14, 247398, Note_on_c, 12, 76, 0
14, 247808, Note_on_c, 12, 64, 19
14, 247808, Note_on_c, 12, 67, 19
14, 247808, Note_on_c, 12, 71, 19
14, 247808, Note_on_c, 12, 76, 19
14, 249446, Note_on_c, 12, 64, 0
14, 249446, Note_on_c, 12, 67, 0
14, 249446, Note_on_c, 12, 71, 0
14, 249446, Note_on_c, 12, 76, 0
14, 249856, Note_on_c, 12, 71, 19
14, 249856, Note_on_c, 12, 75, 19
14, 249856, Note_on_c, 12, 78, 19
14, 251494, Note_on_c, 12, 71, 0
14, 251494, Note_on_c, 12, 75, 0
14, 251494, Note_on_c, 12, 78, 0
14, 251904, Note_on_c, 12, 71, 19
14, 251904, Note_on_c, 12, 75, 19
14, 251904, Note_on_c, 12, 78, 19
14, 251904, Note_on_c, 12, 81, 19
14, 253542, Note_on_c, 12, 71, 0
14, 253542, Note_on_c, 12, 75, 0
14, 253542, Note_on_c, 12, 78, 0
14, 253542, Note_on_c, 12, 81, 0
14, 253952, Note_on_c, 12, 71, 18
14, 253952, Note_on_c, 12, 76, 18
14, 253952, Note_on_c, 12, 80, 18
14, 255590, Note_on_c, 12, 71, 0
14, 255590, Note_on_c, 12, 76, 0
14, 255590, Note_on_c, 12, 80, 0
14, 256000, Note_on_c, 12, 72, 18
14, 256000, Note_on_c, 12, 76, 18
14, 256000, Note_on_c, 12, 81, 18
14, 257638, Note_on_c, 12, 72, 0
14, 257638, Note_on_c, 12, 76, 0
14, 257638, Note_on_c, 12, 81, 0
14, 258048, Note_on_c, 12, 72, 18
14, 258048, Note_on_c, 12, 76, 18
14, 258048, Note_on_c, 12, 79, 18
14, 258048, Note_on_c, 12, 84, 18
14, 259686, Note_on_c, 12, 72, 0
14, 259686, Note_on_c, 12, 76, 0
14, 259686, Note_on_c, 12, 79, 0
14, 259686, Note_on_c, 12, 84, 0
14, 260096, Note_on_c, 12, 69, 18
14, 260096, Note_on_c, 12, 78, 18
14, 261734, Note_on_c, 12, 69, 0
14, 261734, Note_on_c, 12, 78, 0
14, 262144, Note_on_c, 12, 71, 18
14, 262144, Note_on_c, 12, 79, 18
14, 262144, Note_on_c, 12, 83, 18
14, 263782, Note_on_c, 12, 71, 0
14, 263782, Note_on_c, 12, 79, 0
14, 263782, Note_on_c, 12, 83, 0
14, 264192, Note_on_c, 12, 59, 18
14, 264192, Note_on_c, 12, 66, 18
14, 264192, Note_on_c, 12, 71, 18
14, 265830, Note_on_c, 12, 59, 0
14, 265830, Note_on_c, 12, 66, 0
14, 265830, Note_on_c, 12, 71, 0
14, 266240, Note_on_c, 12, 59, 18
14, 266240, Note_on_c, 12, 64, 18
14, 266240, Note_on_c, 12, 67, 18
14, 267878, Note_on_c, 12, 59, 0
14, 267878, Note_on_c, 12, 64, 0
14, 267878, Note_on_c, 12, 67, 0
14, 268288, Note_on_c, 12, 64, 18
14, 268288, Note_on_c, 12, 69, 18
14, 269926, Note_on_c, 12, 64, 0
14, 269926, Note_on_c, 12, 69, 0
14, 270336, Note_on_c, 12, 69, 18
14, 270336, Note_on_c, 12, 76, 18
14, 270336, Note_on_c, 12, 81, 18
14, 271974, Note_on_c, 12, 69, 0
14, 271974, Note_on_c, 12, 76, 0
14, 271974, Note_on_c, 12, 81, 0
14, 272384, Note_on_c, 12, 54, 18
14, 272384, Note_on_c, 12, 59, 18
14, 272384, Note_on_c, 12, 63, 18
14, 274022, Note_on_c, 12, 54, 0
14, 274022, Note_on_c, 12, 59, 0
14, 274022, Note_on_c, 12, 63, 0
14, 274432, Note_on_c, 12, 71, 18
14, 274432, Note_on_c, 12, 75, 18
14, 274432, Note_on_c, 12, 78, 18
14, 276070, Note_on_c, 12, 71, 0
14, 276070, Note_on_c, 12, 75, 0
14, 276070, Note_on_c, 12, 78, 0
14, 276480, Note_on_c, 12, 66, 18
14, 276480, Note_on_c, 12, 71, 18
14, 276480, Note_on_c, 12, 75, 18
14, 278118, Note_on_c, 12, 66, 0
14, 278118, Note_on_c, 12, 71, 0
14, 278118, Note_on_c, 12, 75, 0
14, 278528, Note_on_c, 12, 64, 18
14, 278528, Note_on_c, 12, 67, 18
14, 278528, Note_on_c, 12, 71, 18
14, 278528, Note_on_c, 12, 76, 18
14, 280166, Note_on_c, 12, 64, 0
14, 280166, Note_on_c, 12, 67, 0
14, 280166, Note_on_c, 12, 71, 0
14, 280166, Note_on_c, 12, 76, 0
14, 280576, Note_on_c, 12, 72, 18
14, 280576, Note_on_c, 12, 76, 18
14, 280576, Note_on_c, 12, 79, 18
14, 282214, Note_on_c, 12, 72, 0
14, 282214, Note_on_c, 12, 76, 0
14, 282214, Note_on_c, 12, 79, 0
14, 282624, Note_on_c, 12, 60, 18
14, 282624, Note_on_c, 12, 64, 18
14, 282624, Note_on_c, 12, 67, 18
14, 282624, Note_on_c, 12, 72, 18
14, 284262, Note_on_c, 12, 60, 0
14, 284262, Note_on_c, 12, 64, 0
14, 284262, Note_on_c, 12, 67, 0
14, 284262, Note_on_c, 12, 72, 0
14, 284672, Note_on_c, 12, 66, 18
14, 284672, Note_on_c, 12, 69, 18
14, 286310, Note_on_c, 12, 66, 0
14, 286310, Note_on_c, 12, 69, 0
14, 286720, Note_on_c, 12, 65, 18
14, 286720, Note_on_c, 12, 68, 18
14, 286720, Note_on_c, 12, 71, 18
14, 288358, Note_on_c, 12, 65, 0
14, 288358, Note_on_c, 12, 68, 0
14, 288358, Note_on_c, 12, 71, 0
14, 288768, Note_on_c, 12, 71, 17
14, 288768, Note_on_c, 12, 77, 17
14, 288768, Note_on_c, 12, 80, 17
14, 288768, Note_on_c, 12, 83, 17
14, 290406, Note_on_c, 12, 71, 0
14, 290406, Note_on_c, 12, 77, 0
14, 290406, Note_on_c, 12, 80, 0
14, 290406, Note_on_c, 12, 83, 0
14, 290816, Note_on_c, 12, 64, 17
14, 290816, Note_on_c, 12, 69, 17
14, 292454, Note_on_c, 12, 64, 0
14, 292454, Note_on_c, 12, 69, 0
14, 292864, Note_on_c, 12, 67, 17
14, 292864, Note_on_c, 12, 71, 17
14, 292864, Note_on_c, 12, 76, 17
14, 294502, Note_on_c, 12, 67, 0
14, 294502, Note_on_c, 12, 71, 0
14, 294502, Note_on_c, 12, 76, 0
14, 294912, Note_on_c, 12, 69, 17
14, 294912, Note_on_c, 12, 72, 17
14, 294912, Note_on_c, 12, 76, 17
14, 294912, Note_on_c, 12, 81, 17
14, 296550, Note_on_c, 12, 69, 0
14, 296550, Note_on_c, 12, 72, 0
14, 296550, Note_on_c, 12, 76, 0
14, 296550, Note_on_c, 12, 81, 0
14, 296960, Note_on_c, 12, 59, 17
14, 296960, Note_on_c, 12, 66, 17
14, 296960, Note_on_c, 12, 71, 17
14, 298598, Note_on_c, 12, 59, 0
14, 298598, Note_on_c, 12, 66, 0
14, 298598, Note_on_c, 12, 71, 0
14, 299008, Note_on_c, 12, 66, 17
14, 299008, Note_on_c, 12, 69, 17
14, 299008, Note_on_c, 12, 75, 17
14, 300646, Note_on_c, 12, 66, 0
14, 300646, Note_on_c, 12, 69, 0
14, 300646, Note_on_c, 12, 75, 0
14, 301056, Note_on_c, 12, 71, 17
14, 301056, Note_on_c, 12, 74, 17
14, 301056, Note_on_c, 12, 78, 17
14, 302694, Note_on_c, 12, 71, 0
14, 302694, Note_on_c, 12, 74, 0
14, 302694, Note_on_c, 12, 78, 0
14, 303104, Note_on_c, 12, 71, 17
14, 303104, Note_on_c, 12, 76, 17
14, 303104, Note_on_c, 12, 80, 17
14, 304742, Note_on_c, 12, 71, 0
14, 304742, Note_on_c, 12, 76, 0
14, 304742, Note_on_c, 12, 80, 0
14, 305152, Note_on_c, 12, 69, 17
14, 305152, Note_on_c, 12, 73, 17
14, 305152, Note_on_c, 12, 76, 17
14, 306790, Note_on_c, 12, 69, 0
14, 306790, Note_on_c, 12, 73, 0
14, 306790, Note_on_c, 12, 76, 0
14, 307200, Note_on_c, 12, 64, 17
14, 307200, Note_on_c, 12, 67, 17
14, 307200, Note_on_c, 12, 72, 17
14, 308838, Note_on_c, 12, 64, 0
14, 308838, Note_on_c, 12, 67, 0
14, 308838, Note_on_c, 12, 72, 0
14, 309248, Note_on_c, 12, 60, 17
14, 309248, Note_on_c, 12, 66, 17
14, 309248, Note_on_c, 12, 69, 17
14, 310886, Note_on_c, 12, 60, 0
14, 310886, Note_on_c, 12, 66, 0
14, 310886, Note_on_c, 12, 69, 0
14, 311296, Note_on_c, 12, 68, 17
14, 311296, Note_on_c, 12, 71, 17
14, 311296, Note_on_c, 12, 77, 17
14, 312934, Note_on_c, 12, 68, 0
14, 312934, Note_on_c, 12, 71, 0
14, 312934, Note_on_c, 12, 77, 0
14, 313344, Note_on_c, 12, 65, 17
14, 313344, Note_on_c, 12, 68, 17
14, 313344, Note_on_c, 12, 71, 17
14, 314982, Note_on_c, 12, 65, 0
14, 314982, Note_on_c, 12, 68, 0
14, 314982, Note_on_c, 12, 71, 0
14, 315392, Note_on_c, 12, 64, 17
14, 315392, Note_on_c, 12, 69, 17
14, 317030, Note_on_c, 12, 64, 0
14, 317030, Note_on_c, 12, 69, 0
14, 317440, Note_on_c, 12, 64, 17
14, 317440, Note_on_c, 12, 67, 17
14, 317440, Note_on_c, 12, 76, 17
14, 319078, Note_on_c, 12, 64, 0
14, 319078, Note_on_c, 12, 67, 0
14, 319078, Note_on_c, 12, 76, 0
14, 319488, Note_on_c, 12, 57, 17
14, 319488, Note_on_c, 12, 64, 17
14, 319488, Note_on_c, 12, 66, 17
14, 319488, Note_on_c, 12, 69, 17
14, 321126, Note_on_c, 12, 57, 0
14, 321126, Note_on_c, 12, 64, 0
14, 321126, Note_on_c, 12, 66, 0
14, 321126, Note_on_c, 12, 69, 0
14, 321536, Note_on_c, 12, 59, 16
14, 321536, Note_on_c, 12, 64, 16
14, 321536, Note_on_c, 12, 67, 16
14, 323174, Note_on_c, 12, 59, 0
14, 323174, Note_on_c, 12, 64, 0
14, 323174, Note_on_c, 12, 67, 0
14, 323584, Note_on_c, 12, 63, 16
14, 323584, Note_on_c, 12, 66, 16
14, 323584, Note_on_c, 12, 71, 16
14, 325222, Note_on_c, 12, 63, 0
14, 325222, Note_on_c, 12, 66, 0
14, 325222, Note_on_c, 12, 71, 0
14, 325632, Note_on_c, 12, 69, 16
14, 325632, Note_on_c, 12, 71, 16
14, 325632, Note_on_c, 12, 75, 16
14, 325632, Note_on_c, 12, 78, 16
14, 327270, Note_on_c, 12, 69, 0
14, 327270, Note_on_c, 12, 71, 0
14, 327270, Note_on_c, 12, 75, 0
14, 327270, Note_on_c, 12, 78, 0
14, 327680, Note_on_c, 12, 67, 16
14, 327680, Note_on_c, 12, 71, 16
14, 327680, Note_on_c, 12, 76, 16
14, 327680, Note_on_c, 12, 79, 16
14, 329318, Note_on_c, 12, 67, 0
14, 329318, Note_on_c, 12, 71, 0
14, 329318, Note_on_c, 12, 76, 0
14, 329318, Note_on_c, 12, 79, 0
14, 329728, Note_on_c, 12, 70, 16
14, 329728, Note_on_c, 12, 73, 16
14, 329728, Note_on_c, 12, 78, 16
14, 331366, Note_on_c, 12, 70, 0
14, 331366, Note_on_c, 12, 73, 0
14, 331366, Note_on_c, 12, 78, 0
14, 331776, Note_on_c, 12, 66, 16
14, 331776, Note_on_c, 12, 70, 16
14, 331776, Note_on_c, 12, 73, 16
14, 333414, Note_on_c, 12, 66, 0
14, 333414, Note_on_c, 12, 70, 0
14, 333414, Note_on_c, 12, 73, 0
14, 333824, Note_on_c, 12, 59, 16
14, 333824, Note_on_c, 12, 66, 16
14, 333824, Note_on_c, 12, 71, 16
14, 335462, Note_on_c, 12, 59, 0
14, 335462, Note_on_c, 12, 66, 0
14, 335462, Note_on_c, 12, 71, 0
14, 335872, Note_on_c, 12, 64, 16
14, 335872, Note_on_c, 12, 68, 16
14, 335872, Note_on_c, 12, 71, 16
14, 337510, Note_on_c, 12, 64, 0
14, 337510, Note_on_c, 12, 68, 0
14, 337510, Note_on_c, 12, 71, 0
14, 337920, Note_on_c, 12, 64, 16
14, 337920, Note_on_c, 12, 68, 16
14, 337920, Note_on_c, 12, 71, 16
14, 337920, Note_on_c, 12, 76, 16
14, 339558, Note_on_c, 12, 64, 0
14, 339558, Note_on_c, 12, 68, 0
14, 339558, Note_on_c, 12, 71, 0
14, 339558, Note_on_c, 12, 76, 0
14, 339968, Note_on_c, 12, 64, 16
14, 339968, Note_on_c, 12, 69, 16
14, 341606, Note_on_c, 12, 64, 0
14, 341606, Note_on_c, 12, 69, 0
14, 342016, Note_on_c, 12, 66, 16
14, 342016, Note_on_c, 12, 69, 16
14, 342016, Note_on_c, 12, 76, 16
14, 343654, Note_on_c, 12, 66, 0
14, 343654, Note_on_c, 12, 69, 0
14, 343654, Note_on_c, 12, 76, 0
14, 344064, Note_on_c, 12, 64, 16
14, 344064, Note_on_c, 12, 66, 16
14, 344064, Note_on_c, 12, 69, 16
14, 344064, Note_on_c, 12, 75, 16
14, 345702, Note_on_c, 12, 64, 0
14, 345702, Note_on_c, 12, 66, 0
14, 345702, Note_on_c, 12, 69, 0
14, 345702, Note_on_c, 12, 75, 0
14, 346112, Note_on_c, 12, 69, 16
14, 346112, Note_on_c, 12, 75, 16
14, 346112, Note_on_c, 12, 78, 16
14, 347750, Note_on_c, 12, 69, 0
14, 347750, Note_on_c, 12, 75, 0
14, 347750, Note_on_c, 12, 78, 0
14, 348160, Note_on_c, 12, 59, 16
14, 348160, Note_on_c, 12, 63, 16
14, 348160, Note_on_c, 12, 66, 16
14, 349798, Note_on_c, 12, 59, 0
14, 349798, Note_on_c, 12, 63, 0
14, 349798, Note_on_c, 12, 66, 0
14, 350208, Note_on_c, 12, 66, 16
14, 350208, Note_on_c, 12, 69, 16
14, 350208, Note_on_c, 12, 75, 16
14, 351846, Note_on_c, 12, 66, 0
14, 351846, Note_on_c, 12, 69, 0
14, 351846, Note_on_c, 12, 75, 0
14, 352256, Note_on_c, 12, 71, 16
14, 352256, Note_on_c, 12, 76, 16
14, 352256, Note_on_c, 12, 79, 16
14, 352256, Note_on_c, 12, 83, 16
14, 353894, Note_on_c, 12, 71, 0
14, 353894, Note_on_c, 12, 76, 0
14, 353894, Note_on_c, 12, 79, 0
14, 353894, Note_on_c, 12, 83, 0
14, 354304, Note_on_c, 12, 69, 15
14, 354304, Note_on_c, 12, 72, 15
14, 355942, Note_on_c, 12, 69, 0
14, 355942, Note_on_c, 12, 72, 0
14, 356352, Note_on_c, 12, 67, 15
14, 356352, Note_on_c, 12, 72, 15
14, 356352, Note_on_c, 12, 79, 15
14, 357990, Note_on_c, 12, 67, 0
14, 357990, Note_on_c, 12, 72, 0
14, 357990, Note_on_c, 12, 79, 0
14, 358400, Note_on_c, 12, 66, 15
14, 358400, Note_on_c, 12, 69, 15
14, 358400, Note_on_c, 12, 72, 15
14, 358400, Note_on_c, 12, 78, 15
14, 360038, Note_on_c, 12, 66, 0
14, 360038, Note_on_c, 12, 69, 0
14, 360038, Note_on_c, 12, 72, 0
14, 360038, Note_on_c, 12, 78, 0
14, 360448, Note_on_c, 12, 64, 15
14, 360448, Note_on_c, 12, 67, 15
14, 360448, Note_on_c, 12, 71, 15
14, 362086, Note_on_c, 12, 64, 0
14, 362086, Note_on_c, 12, 67, 0
14, 362086, Note_on_c, 12, 71, 0
14, 362496, Note_on_c, 12, 64, 15
14, 362496, Note_on_c, 12, 67, 15
14, 362496, Note_on_c, 12, 71, 15
14, 362496, Note_on_c, 12, 76, 15
14, 364134, Note_on_c, 12, 64, 0
14, 364134, Note_on_c, 12, 67, 0
14, 364134, Note_on_c, 12, 71, 0
14, 364134, Note_on_c, 12, 76, 0
14, 364544, Note_on_c, 12, 67, 15
14, 364544, Note_on_c, 12, 71, 15
14, 364544, Note_on_c, 12, 76, 15
14, 366182, Note_on_c, 12, 67, 0
14, 366182, Note_on_c, 12, 71, 0
14, 366182, Note_on_c, 12, 76, 0
14, 366592, Note_on_c, 12, 69, 15
14, 366592, Note_on_c, 12, 76, 15
14, 368230, Note_on_c, 12, 69, 0
14, 368230, Note_on_c, 12, 76, 0
14, 368640, Note_on_c, 12, 69, 15
14, 368640, Note_on_c, 12, 72, 15
14, 368640, Note_on_c, 12, 76, 15
14, 368640, Note_on_c, 12, 81, 15
14, 370278, Note_on_c, 12, 69, 0
14, 370278, Note_on_c, 12, 72, 0
14, 370278, Note_on_c, 12, 76, 0
14, 370278, Note_on_c, 12, 81, 0
14, 370688, Note_on_c, 12, 63, 15
14, 370688, Note_on_c, 12, 66, 15
14, 370688, Note_on_c, 12, 71, 15
14, 372326, Note_on_c, 12, 63, 0
14, 372326, Note_on_c, 12, 66, 0
14, 372326, Note_on_c, 12, 71, 0
14, 372736, Note_on_c, 12, 71, 15
14, 372736, Note_on_c, 12, 75, 15
14, 372736, Note_on_c, 12, 78, 15
14, 374374, Note_on_c, 12, 71, 0
14, 374374, Note_on_c, 12, 75, 0
14, 374374, Note_on_c, 12, 78, 0
14, 374784, Note_on_c, 12, 71, 15
14, 374784, Note_on_c, 12, 75, 15
14, 374784, Note_on_c, 12, 78, 15
14, 374784, Note_on_c, 12, 83, 15
14, 376422, Note_on_c, 12, 71, 0
14, 376422, Note_on_c, 12, 75, 0
14, 376422, Note_on_c, 12, 78, 0
14, 376422, Note_on_c, 12, 83, 0
14, 376832, Note_on_c, 12, 71, 15
14, 376832, Note_on_c, 12, 76, 15
14, 376832, Note_on_c, 12, 79, 15
14, 378470, Note_on_c, 12, 71, 0
14, 378470, Note_on_c, 12, 76, 0
14, 378470, Note_on_c, 12, 79, 0
14, 378880, Note_on_c, 12, 60, 15
14, 378880, Note_on_c, 12, 64, 15
14, 378880, Note_on_c, 12, 67, 15
14, 380518, Note_on_c, 12, 60, 0
14, 380518, Note_on_c, 12, 64, 0
14, 380518, Note_on_c, 12, 67, 0
14, 380928, Note_on_c, 12, 66, 15
14, 380928, Note_on_c, 12, 69, 15
14, 380928, Note_on_c, 12, 72, 15
14, 382566, Note_on_c, 12, 66, 0
14, 382566, Note_on_c, 12, 69, 0
14, 382566, Note_on_c, 12, 72, 0
14, 382976, Note_on_c, 12, 66, 15
14, 382976, Note_on_c, 12, 69, 15
14, 384614, Note_on_c, 12, 66, 0
14, 384614, Note_on_c, 12, 69, 0
14, 385024, Note_on_c, 12, 65, 15
14, 385024, Note_on_c, 12, 70, 15
14, 386662, Note_on_c, 12, 65, 0
14, 386662, Note_on_c, 12, 70, 0
14, 387072, Note_on_c, 12, 65, 14
14, 387072, Note_on_c, 12, 69, 14
14, 387072, Note_on_c, 12, 71, 14
14, 388710, Note_on_c, 12, 65, 0
14, 388710, Note_on_c, 12, 69, 0
14, 388710, Note_on_c, 12, 71, 0
14, 389120, Note_on_c, 12, 65, 14
14, 389120, Note_on_c, 12, 68, 14
14, 389120, Note_on_c, 12, 71, 14
14, 390758, Note_on_c, 12, 65, 0
14, 390758, Note_on_c, 12, 68, 0
14, 390758, Note_on_c, 12, 71, 0
14, 391168, Note_on_c, 12, 63, 14
14, 391168, Note_on_c, 12, 66, 14
14, 391168, Note_on_c, 12, 69, 14
14, 392806, Note_on_c, 12, 63, 0
14, 392806, Note_on_c, 12, 66, 0
14, 392806, Note_on_c, 12, 69, 0
14, 393216, Note_on_c, 12, 64, 14
14, 393216, Note_on_c, 12, 69, 14
14, 393216, Note_on_c, 12, 76, 14
14, 394854, Note_on_c, 12, 64, 0
14, 394854, Note_on_c, 12, 69, 0
14, 394854, Note_on_c, 12, 76, 0
14, 395264, Note_on_c, 12, 65, 14
14, 395264, Note_on_c, 12, 69, 14
14, 395264, Note_on_c, 12, 74, 14
14, 396902, Note_on_c, 12, 65, 0
14, 396902, Note_on_c, 12, 69, 0
14, 396902, Note_on_c, 12, 74, 0
14, 397312, Note_on_c, 12, 69, 14
14, 397312, Note_on_c, 12, 72, 14
14, 397312, Note_on_c, 12, 77, 14
14, 398950, Note_on_c, 12, 69, 0
14, 398950, Note_on_c, 12, 72, 0
14, 398950, Note_on_c, 12, 77, 0
14, 399360, Note_on_c, 12, 65, 14
14, 399360, Note_on_c, 12, 69, 14
14, 399360, Note_on_c, 12, 71, 14
14, 399360, Note_on_c, 12, 74, 14
14, 400998, Note_on_c, 12, 65, 0
14, 400998, Note_on_c, 12, 69, 0
14, 400998, Note_on_c, 12, 71, 0
14, 400998, Note_on_c, 12, 74, 0
14, 401408, Note_on_c, 12, 62, 14
14, 401408, Note_on_c, 12, 65, 14
14, 401408, Note_on_c, 12, 68, 14
14, 401408, Note_on_c, 12, 71, 14
14, 403046, Note_on_c, 12, 62, 0
14, 403046, Note_on_c, 12, 65, 0
14, 403046, Note_on_c, 12, 68, 0
14, 403046, Note_on_c, 12, 71, 0
14, 403456, Note_on_c, 12, 77, 14
14, 403456, Note_on_c, 12, 80, 14
14, 403456, Note_on_c, 12, 83, 14
14, 405094, Note_on_c, 12, 77, 0
14, 405094, Note_on_c, 12, 80, 0
14, 405094, Note_on_c, 12, 83, 0
14, 405504, Note_on_c, 12, 71, 14
14, 405504, Note_on_c, 12, 74, 14
14, 405504, Note_on_c, 12, 77, 14
14, 405504, Note_on_c, 12, 80, 14
14, 407142, Note_on_c, 12, 71, 0
14, 407142, Note_on_c, 12, 74, 0
14, 407142, Note_on_c, 12, 77, 0
14, 407142, Note_on_c, 12, 80, 0
14, 407552, Note_on_c, 12, 57, 14
14, 407552, Note_on_c, 12, 61, 14
14, 407552, Note_on_c, 12, 66, 14
14, 409190, Note_on_c, 12, 57, 0
14, 409190, Note_on_c, 12, 61, 0
14, 409190, Note_on_c, 12, 66, 0
14, 409600, Note_on_c, 12, 71, 14
14, 409600, Note_on_c, 12, 78, 14
14, 411238, Note_on_c, 12, 71, 0
14, 411238, Note_on_c, 12, 78, 0
14, 411648, Note_on_c, 12, 71, 14
14, 411648, Note_on_c, 12, 78, 14
14, 411648, Note_on_c, 12, 83, 14
14, 413286, Note_on_c, 12, 71, 0
14, 413286, Note_on_c, 12, 78, 0
14, 413286, Note_on_c, 12, 83, 0
14, 413696, Note_on_c, 12, 55, 14
14, 413696, Note_on_c, 12, 64, 14
14, 413696, Note_on_c, 12, 67, 14
14, 415334, Note_on_c, 12, 55, 0
14, 415334, Note_on_c, 12, 64, 0
14, 415334, Note_on_c, 12, 67, 0
14, 415744, Note_on_c, 12, 66, 14
14, 415744, Note_on_c, 12, 69, 14
14, 415744, Note_on_c, 12, 76, 14
14, 417382, Note_on_c, 12, 66, 0
14, 417382, Note_on_c, 12, 69, 0
14, 417382, Note_on_c, 12, 76, 0
14, 417792, Note_on_c, 12, 60, 14
14, 417792, Note_on_c, 12, 64, 14
14, 417792, Note_on_c, 12, 69, 14
14, 419430, Note_on_c, 12, 60, 0
14, 419430, Note_on_c, 12, 64, 0
14, 419430, Note_on_c, 12, 69, 0
14, 419840, Note_on_c, 12, 64, 13
14, 419840, Note_on_c, 12, 67, 13
14, 421478, Note_on_c, 12, 64, 0
14, 421478, Note_on_c, 12, 67, 0
14, 421888, Note_on_c, 12, 62, 13
14, 421888, Note_on_c, 12, 66, 13
14, 423526, Note_on_c, 12, 62, 0
14, 423526, Note_on_c, 12, 66, 0
14, 423936, Note_on_c, 12, 66, 13
14, 423936, Note_on_c, 12, 71, 13
14, 423936, Note_on_c, 12, 74, 13
14, 425574, Note_on_c, 12, 66, 0
14, 425574, Note_on_c, 12, 71, 0
14, 425574, Note_on_c, 12, 74, 0
14, 425984, Note_on_c, 12, 64, 13
14, 425984, Note_on_c, 12, 67, 13
14, 425984, Note_on_c, 12, 72, 13
14, 427622, Note_on_c, 12, 64, 0
14, 427622, Note_on_c, 12, 67, 0
14, 427622, Note_on_c, 12, 72, 0
14, 428032, Note_on_c, 12, 67, 13
14, 428032, Note_on_c, 12, 72, 13
14, 429670, Note_on_c, 12, 67, 0
14, 429670, Note_on_c, 12, 72, 0
14, 430080, Note_on_c, 12, 67, 13
14, 430080, Note_on_c, 12, 72, 13
14, 430080, Note_on_c, 12, 79, 13
14, 431718, Note_on_c, 12, 67, 0
14, 431718, Note_on_c, 12, 72, 0
14, 431718, Note_on_c, 12, 79, 0
14, 432128, Note_on_c, 12, 66, 13
14, 432128, Note_on_c, 12, 72, 13
14, 433766, Note_on_c, 12, 66, 0
14, 433766, Note_on_c, 12, 72, 0
14, 434176, Note_on_c, 12, 71, 13
14, 434176, Note_on_c, 12, 74, 13
14, 435814, Note_on_c, 12, 71, 0
14, 435814, Note_on_c, 12, 74, 0
14, 436224, Note_on_c, 12, 71, 13
14, 436224, Note_on_c, 12, 77, 13
14, 436224, Note_on_c, 12, 80, 13
14, 436224, Note_on_c, 12, 83, 13
14, 437862, Note_on_c, 12, 71, 0
14, 437862, Note_on_c, 12, 77, 0
14, 437862, Note_on_c, 12, 80, 0
14, 437862, Note_on_c, 12, 83, 0
14, 438272, Note_on_c, 12, 64, 13
14, 438272, Note_on_c, 12, 68, 13
14, 438272, Note_on_c, 12, 71, 13
14, 439910, Note_on_c, 12, 64, 0
14, 439910, Note_on_c, 12, 68, 0
14, 439910, Note_on_c, 12, 71, 0
14, 440320, Note_on_c, 12, 66, 13
14, 440320, Note_on_c, 12, 69, 13
14, 440320, Note_on_c, 12, 76, 13
14, 441958, Note_on_c, 12, 66, 0
14, 441958, Note_on_c, 12, 69, 0
14, 441958, Note_on_c, 12, 76, 0
14, 442368, Note_on_c, 12, 66, 13
14, 442368, Note_on_c, 12, 69, 13
14, 442368, Note_on_c, 12, 72, 13
14, 442368, Note_on_c, 12, 78, 13
14, 444006, Note_on_c, 12, 66, 0
14, 444006, Note_on_c, 12, 69, 0
14, 444006, Note_on_c, 12, 72, 0
14, 444006, Note_on_c, 12, 78, 0
14, 444416, Note_on_c, 12, 55, 13
14, 444416, Note_on_c, 12, 59, 13
14, 444416, Note_on_c, 12, 67, 13
14, 445235, Note_on_c, 12, 55, 0
14, 445235, Note_on_c, 12, 59, 0
14, 445235, Note_on_c, 12, 67, 0
14, 445440, Note_on_c, 12, 54, 13
14, 445440, Note_on_c, 12, 60, 13
14, 445440, Note_on_c, 12, 64, 13
14, 446259, Note_on_c, 12, 54, 0
14, 446259, Note_on_c, 12, 60, 0
14, 446259, Note_on_c, 12, 64, 0
14, 446464, Note_on_c, 12, 59, 13
14, 446464, Note_on_c, 12, 63, 13
14, 446464, Note_on_c, 12, 66, 13
14, 446464, Note_on_c, 12, 69, 13
14, 446464, Note_on_c, 12, 71, 13
14, 448102, Note_on_c, 12, 59, 0
14, 448102, Note_on_c, 12, 63, 0
14, 448102, Note_on_c, 12, 66, 0
14, 448102, Note_on_c, 12, 69, 0
14, 448102, Note_on_c, 12, 71, 0
14, 448512, Note_on_c, 12, 57, 13
14, 448512, Note_on_c, 12, 59, 13
14, 448512, Note_on_c, 12, 63, 13
14, 448512, Note_on_c, 12, 66, 13
14, 450150, Note_on_c, 12, 57, 0
14, 450150, Note_on_c, 12, 59, 0
14, 450150, Note_on_c, 12, 63, 0
14, 450150, Note_on_c, 12, 66, 0
14, 450560, Note_on_c, 12, 55, 13
14, 450560, Note_on_c, 12, 59, 13
14, 450560, Note_on_c, 12, 64, 13
14, 450560, Note_on_c, 12, 67, 13
14, 452198, Note_on_c, 12, 55, 0
14, 452198, Note_on_c, 12, 59, 0
14, 452198, Note_on_c, 12, 64, 0
14, 452198, Note_on_c, 12, 67, 0
14, 487424, End_track
0, 0, End_of_file
