0, 0, Header, 1, 5, 240
1, 0, Start_track
1, 0, Time_signature, 4, 2, 24, 8
1, 0, Key_signature, 0, "major"
1, 0, Tempo, 659340
1, 75120, Tempo, 674157
1, 75360, Tempo, 681818
1, 75480, Tempo, 697674
1, 75600, Tempo, 722891
1, 75720, Tempo, 789473
1, 75840, Tempo, 1818181
1, 76080, Tempo, 789473
1, 76560, Tempo, 769230
1, 76800, Tempo, 750000
1, 77280, Tempo, 722891
1, 77760, Tempo, 697674
1, 81912, Tempo, 722891
1, 82200, Tempo, 800000
1, 82320, Tempo, 833333
1, 82440, Tempo, 869565
1, 82560, Tempo, 937500
1, 82680, Tempo, 1090909
1, 82800, Tempo, 1200000
1, 82920, Tempo, 1304347
1, 82976, Tempo, 1875000
1, 82976, End_track
2, 0, Start_track
2, 0, MIDI_port, 0
2, 0, Title_t, "RH H"
2, 0, Program_c, 0, 6
2, 3000, Note_on_c, 0, 64, 64
2, 3060, Note_on_c, 0, 64, 0
2, 3060, Note_on_c, 0, 63, 64
2, 3120, Note_on_c, 0, 63, 0
2, 3120, Note_on_c, 0, 64, 64
2, 3240, Note_on_c, 0, 64, 0
2, 3240, Note_on_c, 0, 66, 64
2, 3360, Note_on_c, 0, 66, 0
2, 3360, Note_on_c, 0, 67, 64
2, 3480, Note_on_c, 0, 67, 0
2, 3480, Note_on_c, 0, 67, 64
2, 3540, Note_on_c, 0, 67, 0
2, 3540, Note_on_c, 0, 66, 64
2, 3600, Note_on_c, 0, 66, 0
2, 3600, Note_on_c, 0, 67, 64
2, 3720, Note_on_c, 0, 67, 0
2, 3720, Note_on_c, 0, 69, 64
2, 3840, Note_on_c, 0, 69, 0
2, 3840, Note_on_c, 0, 71, 64
2, 3900, Note_on_c, 0, 71, 0
2, 3900, Note_on_c, 0, 69, 64
2, 3960, Note_on_c, 0, 69, 0
2, 3960, Note_on_c, 0, 67, 64
2, 4020, Note_on_c, 0, 67, 0
2, 4020, Note_on_c, 0, 69, 64
2, 4080, Note_on_c, 0, 69, 0
2, 4080, Note_on_c, 0, 71, 64
2, 4200, Note_on_c, 0, 71, 0
2, 4200, Note_on_c, 0, 72, 64
2, 4320, Note_on_c, 0, 72, 0
2, 4320, Note_on_c, 0, 63, 64
2, 4440, Note_on_c, 0, 63, 0
2, 4440, Note_on_c, 0, 59, 64
2, 4560, Note_on_c, 0, 59, 0
2, 4680, Note_on_c, 0, 64, 64
2, 4800, Note_on_c, 0, 64, 0
2, 4800, Note_on_c, 0, 66, 64
2, 4860, Note_on_c, 0, 66, 0
2, 4860, Note_on_c, 0, 67, 64
2, 4920, Note_on_c, 0, 67, 0
2, 4920, Note_on_c, 0, 64, 64
2, 4980, Note_on_c, 0, 64, 0
2, 4980, Note_on_c, 0, 66, 64
2, 5040, Note_on_c, 0, 66, 0
2, 5040, Note_on_c, 0, 67, 64
2, 5100, Note_on_c, 0, 67, 0
2, 5100, Note_on_c, 0, 69, 64
2, 5160, Note_on_c, 0, 69, 0
2, 5160, Note_on_c, 0, 66, 64
2, 5220, Note_on_c, 0, 66, 0
2, 5220, Note_on_c, 0, 67, 64
2, 5280, Note_on_c, 0, 67, 0
2, 5280, Note_on_c, 0, 69, 64
2, 5400, Note_on_c, 0, 69, 0
2, 5400, Note_on_c, 0, 67, 64
2, 5520, Note_on_c, 0, 67, 0
2, 5520, Note_on_c, 0, 66, 64
2, 5640, Note_on_c, 0, 66, 0
2, 5640, Note_on_c, 0, 71, 64
2, 5760, Note_on_c, 0, 71, 0
2, 5760, Note_on_c, 0, 64, 64
2, 5880, Note_on_c, 0, 64, 0
2, 5880, Note_on_c, 0, 66, 64
2, 5940, Note_on_c, 0, 66, 0
2, 5940, Note_on_c, 0, 68, 64
2, 6000, Note_on_c, 0, 68, 0
2, 6000, Note_on_c, 0, 69, 64
2, 6060, Note_on_c, 0, 69, 0
2, 6060, Note_on_c, 0, 71, 64
2, 6120, Note_on_c, 0, 71, 0
2, 6120, Note_on_c, 0, 72, 64
2, 6180, Note_on_c, 0, 72, 0
2, 6180, Note_on_c, 0, 74, 64
2, 6240, Note_on_c, 0, 74, 0
2, 6240, Note_on_c, 0, 76, 64
2, 6360, Note_on_c, 0, 76, 0
2, 6360, Note_on_c, 0, 69, 64
2, 6480, Note_on_c, 0, 69, 0
2, 6480, Note_on_c, 0, 68, 64
2, 6720, Note_on_c, 0, 68, 0
2, 6720, Note_on_c, 0, 69, 64
2, 6840, Note_on_c, 0, 69, 0
2, 6840, Note_on_c, 0, 69, 64
2, 6960, Note_on_c, 0, 69, 0
2, 6960, Note_on_c, 0, 67, 64
2, 7080, Note_on_c, 0, 67, 0
2, 7080, Note_on_c, 0, 65, 64
2, 7200, Note_on_c, 0, 65, 0
2, 7200, Note_on_c, 0, 64, 64
2, 7320, Note_on_c, 0, 64, 0
2, 7320, Note_on_c, 0, 72, 64
2, 7440, Note_on_c, 0, 72, 0
2, 7440, Note_on_c, 0, 71, 64
2, 7560, Note_on_c, 0, 71, 0
2, 7560, Note_on_c, 0, 69, 64
2, 7680, Note_on_c, 0, 69, 0
2, 7680, Note_on_c, 0, 68, 64
2, 7800, Note_on_c, 0, 68, 0
2, 7800, Note_on_c, 0, 76, 64
2, 7920, Note_on_c, 0, 76, 0
2, 7920, Note_on_c, 0, 74, 64
2, 8040, Note_on_c, 0, 74, 0
2, 8040, Note_on_c, 0, 72, 64
2, 8160, Note_on_c, 0, 72, 0
2, 8220, Note_on_c, 0, 72, 64
2, 8280, Note_on_c, 0, 72, 0
2, 8280, Note_on_c, 0, 74, 64
2, 8340, Note_on_c, 0, 74, 0
2, 8340, Note_on_c, 0, 71, 64
2, 8400, Note_on_c, 0, 71, 0
2, 8400, Note_on_c, 0, 72, 64
2, 8460, Note_on_c, 0, 72, 0
2, 8460, Note_on_c, 0, 71, 64
2, 8520, Note_on_c, 0, 71, 0
2, 8580, Note_on_c, 0, 72, 64
2, 8640, Note_on_c, 0, 72, 0
2, 8640, Note_on_c, 0, 74, 64
2, 8700, Note_on_c, 0, 74, 0
2, 8700, Note_on_c, 0, 76, 64
2, 8760, Note_on_c, 0, 76, 0
2, 8760, Note_on_c, 0, 77, 64
2, 8820, Note_on_c, 0, 77, 0
2, 8820, Note_on_c, 0, 74, 64
2, 8880, Note_on_c, 0, 74, 0
2, 8880, Note_on_c, 0, 76, 64
2, 9240, Note_on_c, 0, 76, 0
2, 9240, Note_on_c, 0, 69, 64
2, 9360, Note_on_c, 0, 69, 0
2, 9360, Note_on_c, 0, 71, 64
2, 9420, Note_on_c, 0, 71, 0
2, 9420, Note_on_c, 0, 72, 64
2, 9480, Note_on_c, 0, 72, 0
2, 9480, Note_on_c, 0, 74, 64
2, 9720, Note_on_c, 0, 74, 0
2, 9720, Note_on_c, 0, 72, 64
2, 9840, Note_on_c, 0, 72, 0
2, 9840, Note_on_c, 0, 71, 64
2, 9960, Note_on_c, 0, 71, 0
2, 9960, Note_on_c, 0, 69, 64
2, 10080, Note_on_c, 0, 69, 0
2, 10080, Note_on_c, 0, 67, 64
2, 10200, Note_on_c, 0, 67, 0
2, 10200, Note_on_c, 0, 76, 64
2, 10320, Note_on_c, 0, 76, 0
2, 10320, Note_on_c, 0, 74, 64
2, 10440, Note_on_c, 0, 74, 0
2, 10440, Note_on_c, 0, 72, 64
2, 10560, Note_on_c, 0, 72, 0
2, 10560, Note_on_c, 0, 71, 64
2, 10800, Note_on_c, 0, 71, 0
2, 10920, Note_on_c, 0, 69, 64
2, 11160, Note_on_c, 0, 69, 0
2, 11160, Note_on_c, 0, 67, 64
2, 11220, Note_on_c, 0, 67, 0
2, 11220, Note_on_c, 0, 66, 64
2, 11280, Note_on_c, 0, 66, 0
2, 11280, Note_on_c, 0, 67, 64
2, 11340, Note_on_c, 0, 67, 0
2, 11340, Note_on_c, 0, 69, 64
2, 11400, Note_on_c, 0, 69, 0
2, 11400, Note_on_c, 0, 71, 64
2, 11460, Note_on_c, 0, 71, 0
2, 11460, Note_on_c, 0, 67, 64
2, 11520, Note_on_c, 0, 67, 0
2, 11520, Note_on_c, 0, 72, 64
2, 11760, Note_on_c, 0, 72, 0
2, 11880, Note_on_c, 0, 71, 64
2, 12000, Note_on_c, 0, 71, 0
2, 12000, Note_on_c, 0, 69, 64
2, 12060, Note_on_c, 0, 69, 0
2, 12060, Note_on_c, 0, 67, 64
2, 12120, Note_on_c, 0, 67, 0
2, 12120, Note_on_c, 0, 69, 64
2, 12180, Note_on_c, 0, 69, 0
2, 12180, Note_on_c, 0, 71, 64
2, 12240, Note_on_c, 0, 71, 0
2, 12240, Note_on_c, 0, 72, 64
2, 12360, Note_on_c, 0, 72, 0
2, 12360, Note_on_c, 0, 66, 64
2, 12480, Note_on_c, 0, 66, 0
2, 12480, Note_on_c, 0, 71, 64
2, 12540, Note_on_c, 0, 71, 0
2, 12540, Note_on_c, 0, 69, 64
2, 12600, Note_on_c, 0, 69, 0
2, 12600, Note_on_c, 0, 72, 64
2, 12660, Note_on_c, 0, 72, 0
2, 12660, Note_on_c, 0, 71, 64
2, 12720, Note_on_c, 0, 71, 0
2, 12720, Note_on_c, 0, 69, 64
2, 12780, Note_on_c, 0, 69, 0
2, 12780, Note_on_c, 0, 67, 64
2, 12840, Note_on_c, 0, 67, 0
2, 12840, Note_on_c, 0, 66, 64
2, 12900, Note_on_c, 0, 66, 0
2, 12900, Note_on_c, 0, 67, 64
2, 12960, Note_on_c, 0, 67, 0
2, 13080, Note_on_c, 0, 76, 64
2, 13140, Note_on_c, 0, 76, 0
2, 13140, Note_on_c, 0, 77, 64
2, 13200, Note_on_c, 0, 77, 0
2, 13200, Note_on_c, 0, 76, 64
2, 13320, Note_on_c, 0, 76, 0
2, 13320, Note_on_c, 0, 74, 64
2, 13440, Note_on_c, 0, 74, 0
2, 13440, Note_on_c, 0, 72, 64
2, 13560, Note_on_c, 0, 72, 0
2, 13560, Note_on_c, 0, 72, 64
2, 13620, Note_on_c, 0, 72, 0
2, 13620, Note_on_c, 0, 74, 64
2, 13680, Note_on_c, 0, 74, 0
2, 13680, Note_on_c, 0, 72, 64
2, 13800, Note_on_c, 0, 72, 0
2, 13800, Note_on_c, 0, 71, 64
2, 13920, Note_on_c, 0, 71, 0
2, 13980, Note_on_c, 0, 71, 64
2, 14040, Note_on_c, 0, 71, 0
2, 14040, Note_on_c, 0, 72, 64
2, 14100, Note_on_c, 0, 72, 0
2, 14100, Note_on_c, 0, 71, 64
2, 14160, Note_on_c, 0, 71, 0
2, 14160, Note_on_c, 0, 69, 64
2, 14280, Note_on_c, 0, 69, 0
2, 14280, Note_on_c, 0, 67, 64
2, 14400, Note_on_c, 0, 67, 0
2, 14400, Note_on_c, 0, 78, 64
2, 14520, Note_on_c, 0, 78, 0
2, 14520, Note_on_c, 0, 81, 64
2, 14640, Note_on_c, 0, 81, 0
2, 14760, Note_on_c, 0, 76, 64
2, 14880, Note_on_c, 0, 76, 0
2, 14880, Note_on_c, 0, 74, 64
2, 14940, Note_on_c, 0, 74, 0
2, 14940, Note_on_c, 0, 72, 64
2, 15000, Note_on_c, 0, 72, 0
2, 15000, Note_on_c, 0, 76, 64
2, 15060, Note_on_c, 0, 76, 0
2, 15060, Note_on_c, 0, 74, 64
2, 15120, Note_on_c, 0, 74, 0
2, 15120, Note_on_c, 0, 72, 64
2, 15180, Note_on_c, 0, 72, 0
2, 15180, Note_on_c, 0, 71, 64
2, 15240, Note_on_c, 0, 71, 0
2, 15240, Note_on_c, 0, 74, 64
2, 15300, Note_on_c, 0, 74, 0
2, 15300, Note_on_c, 0, 72, 64
2, 15360, Note_on_c, 0, 72, 0
2, 15360, Note_on_c, 0, 71, 64
2, 15480, Note_on_c, 0, 71, 0
2, 15480, Note_on_c, 0, 72, 64
2, 15600, Note_on_c, 0, 72, 0
2, 15600, Note_on_c, 0, 74, 64
2, 15660, Note_on_c, 0, 74, 0
2, 15660, Note_on_c, 0, 71, 64
2, 15720, Note_on_c, 0, 71, 0
2, 15720, Note_on_c, 0, 69, 64
2, 15780, Note_on_c, 0, 69, 0
2, 15780, Note_on_c, 0, 67, 64
2, 15840, Note_on_c, 0, 67, 0
2, 15840, Note_on_c, 0, 76, 64
2, 15870, Note_on_c, 0, 76, 0
2, 15870, Note_on_c, 0, 78, 64
2, 15900, Note_on_c, 0, 78, 0
2, 15900, Note_on_c, 0, 76, 64
2, 15960, Note_on_c, 0, 76, 0
2, 15960, Note_on_c, 0, 78, 64
2, 16020, Note_on_c, 0, 78, 0
2, 16020, Note_on_c, 0, 79, 64
2, 16080, Note_on_c, 0, 79, 0
2, 16080, Note_on_c, 0, 78, 64
2, 16260, Note_on_c, 0, 78, 0
2, 16260, Note_on_c, 0, 79, 64
2, 16310, Note_on_c, 0, 79, 0
2, 16320, Note_on_c, 0, 79, 64
2, 16920, Note_on_c, 0, 79, 0
2, 16920, Note_on_c, 0, 79, 64
2, 16980, Note_on_c, 0, 79, 0
2, 16980, Note_on_c, 0, 81, 64
2, 17040, Note_on_c, 0, 81, 0
2, 17040, Note_on_c, 0, 79, 64
2, 17160, Note_on_c, 0, 79, 0
2, 17160, Note_on_c, 0, 77, 64
2, 17280, Note_on_c, 0, 77, 0
2, 17280, Note_on_c, 0, 76, 64
2, 17340, Note_on_c, 0, 76, 0
2, 17340, Note_on_c, 0, 74, 64
2, 17400, Note_on_c, 0, 74, 0
2, 17400, Note_on_c, 0, 72, 64
2, 17460, Note_on_c, 0, 72, 0
2, 17460, Note_on_c, 0, 74, 64
2, 17520, Note_on_c, 0, 74, 0
2, 17520, Note_on_c, 0, 76, 64
2, 17580, Note_on_c, 0, 76, 0
2, 17580, Note_on_c, 0, 77, 64
2, 17640, Note_on_c, 0, 77, 0
2, 17640, Note_on_c, 0, 79, 64
2, 17820, Note_on_c, 0, 79, 0
2, 17820, Note_on_c, 0, 77, 64
2, 17880, Note_on_c, 0, 77, 0
2, 17880, Note_on_c, 0, 76, 64
2, 17940, Note_on_c, 0, 76, 0
2, 17940, Note_on_c, 0, 77, 64
2, 18000, Note_on_c, 0, 77, 0
2, 18000, Note_on_c, 0, 79, 64
2, 18060, Note_on_c, 0, 79, 0
2, 18060, Note_on_c, 0, 81, 64
2, 18120, Note_on_c, 0, 81, 0
2, 18120, Note_on_c, 0, 82, 64
2, 18180, Note_on_c, 0, 82, 0
2, 18180, Note_on_c, 0, 79, 64
2, 18240, Note_on_c, 0, 79, 0
2, 18240, Note_on_c, 0, 81, 64
2, 18420, Note_on_c, 0, 81, 0
2, 18420, Note_on_c, 0, 82, 64
2, 18480, Note_on_c, 0, 82, 0
2, 18480, Note_on_c, 0, 79, 64
2, 18660, Note_on_c, 0, 79, 0
2, 18660, Note_on_c, 0, 81, 64
2, 18720, Note_on_c, 0, 81, 0
2, 18720, Note_on_c, 0, 77, 64
2, 18780, Note_on_c, 0, 77, 0
2, 18780, Note_on_c, 0, 76, 64
2, 18840, Note_on_c, 0, 76, 0
2, 18840, Note_on_c, 0, 77, 64
2, 18900, Note_on_c, 0, 77, 0
2, 18900, Note_on_c, 0, 79, 64
2, 18960, Note_on_c, 0, 79, 0
2, 18960, Note_on_c, 0, 81, 64
2, 19080, Note_on_c, 0, 81, 0
2, 19080, Note_on_c, 0, 69, 64
2, 19200, Note_on_c, 0, 69, 0
2, 19200, Note_on_c, 0, 74, 64
2, 19260, Note_on_c, 0, 74, 0
2, 19260, Note_on_c, 0, 79, 64
2, 19320, Note_on_c, 0, 79, 0
2, 19320, Note_on_c, 0, 77, 64
2, 19380, Note_on_c, 0, 77, 0
2, 19440, Note_on_c, 0, 77, 64
2, 19460, Note_on_c, 0, 77, 0
2, 19460, Note_on_c, 0, 76, 64
2, 19480, Note_on_c, 0, 76, 0
2, 19480, Note_on_c, 0, 77, 64
2, 19500, Note_on_c, 0, 77, 0
2, 19500, Note_on_c, 0, 76, 64
2, 19520, Note_on_c, 0, 76, 0
2, 19520, Note_on_c, 0, 77, 64
2, 19540, Note_on_c, 0, 77, 0
2, 19540, Note_on_c, 0, 76, 64
2, 19620, Note_on_c, 0, 76, 0
2, 19620, Note_on_c, 0, 74, 64
2, 19670, Note_on_c, 0, 74, 0
2, 19680, Note_on_c, 0, 74, 64
2, 20040, Note_on_c, 0, 74, 0
2, 20040, Note_on_c, 0, 76, 64
2, 20160, Note_on_c, 0, 76, 0
2, 20160, Note_on_c, 0, 77, 64
2, 20880, Note_on_c, 0, 77, 0
2, 20940, Note_on_c, 0, 76, 64
2, 21000, Note_on_c, 0, 76, 0
2, 21000, Note_on_c, 0, 74, 64
2, 21060, Note_on_c, 0, 74, 0
2, 21060, Note_on_c, 0, 72, 64
2, 21120, Note_on_c, 0, 72, 0
2, 21120, Note_on_c, 0, 71, 64
2, 21240, Note_on_c, 0, 71, 0
2, 21240, Note_on_c, 0, 72, 64
2, 21480, Note_on_c, 0, 72, 0
2, 21480, Note_on_c, 0, 71, 64
2, 21600, Note_on_c, 0, 71, 0
2, 21600, Note_on_c, 0, 72, 64
2, 21960, Note_on_c, 0, 72, 0
2, 21960, Note_on_c, 0, 70, 64
2, 22080, Note_on_c, 0, 70, 0
2, 22080, Note_on_c, 0, 69, 64
2, 22560, Note_on_c, 0, 69, 0
2, 22680, Note_on_c, 0, 68, 64
2, 22800, Note_on_c, 0, 68, 0
2, 22800, Note_on_c, 0, 69, 64
2, 22920, Note_on_c, 0, 69, 0
2, 22920, Note_on_c, 0, 71, 64
2, 23040, Note_on_c, 0, 71, 0
2, 23040, Note_on_c, 0, 64, 64
2, 23280, Note_on_c, 0, 64, 0
2, 23340, Note_on_c, 0, 66, 64
2, 23400, Note_on_c, 0, 66, 0
2, 23400, Note_on_c, 0, 68, 64
2, 23460, Note_on_c, 0, 68, 0
2, 23460, Note_on_c, 0, 69, 64
2, 23520, Note_on_c, 0, 69, 0
2, 23520, Note_on_c, 0, 71, 64
2, 23580, Note_on_c, 0, 71, 0
2, 23580, Note_on_c, 0, 72, 64
2, 23640, Note_on_c, 0, 72, 0
2, 23700, Note_on_c, 0, 72, 64
2, 23760, Note_on_c, 0, 72, 0
2, 23760, Note_on_c, 0, 74, 64
2, 24120, Note_on_c, 0, 74, 0
2, 24120, Note_on_c, 0, 72, 64
2, 24360, Note_on_c, 0, 72, 0
2, 24360, Note_on_c, 0, 71, 64
2, 24600, Note_on_c, 0, 71, 0
2, 24600, Note_on_c, 0, 69, 64
2, 24660, Note_on_c, 0, 69, 0
2, 24660, Note_on_c, 0, 68, 64
2, 24720, Note_on_c, 0, 68, 0
2, 24720, Note_on_c, 0, 69, 64
2, 25200, Note_on_c, 0, 69, 0
2, 25200, Note_on_c, 0, 68, 64
2, 25440, Note_on_c, 0, 68, 0
2, 25440, Note_on_c, 0, 69, 64
2, 25560, Note_on_c, 0, 69, 0
2, 25560, Note_on_c, 0, 69, 64
2, 25620, Note_on_c, 0, 69, 0
2, 25620, Note_on_c, 0, 68, 64
2, 25680, Note_on_c, 0, 68, 0
2, 25680, Note_on_c, 0, 69, 64
2, 25800, Note_on_c, 0, 69, 0
2, 25800, Note_on_c, 0, 71, 64
2, 25920, Note_on_c, 0, 71, 0
2, 25920, Note_on_c, 0, 72, 64
2, 26040, Note_on_c, 0, 72, 0
2, 26040, Note_on_c, 0, 72, 64
2, 26100, Note_on_c, 0, 72, 0
2, 26100, Note_on_c, 0, 71, 64
2, 26160, Note_on_c, 0, 71, 0
2, 26160, Note_on_c, 0, 72, 64
2, 26280, Note_on_c, 0, 72, 0
2, 26280, Note_on_c, 0, 74, 64
2, 26400, Note_on_c, 0, 74, 0
2, 26400, Note_on_c, 0, 76, 64
2, 26460, Note_on_c, 0, 76, 0
2, 26460, Note_on_c, 0, 74, 64
2, 26520, Note_on_c, 0, 74, 0
2, 26520, Note_on_c, 0, 72, 64
2, 26580, Note_on_c, 0, 72, 0
2, 26580, Note_on_c, 0, 74, 64
2, 26640, Note_on_c, 0, 74, 0
2, 26640, Note_on_c, 0, 76, 64
2, 26760, Note_on_c, 0, 76, 0
2, 26760, Note_on_c, 0, 77, 64
2, 26880, Note_on_c, 0, 77, 0
2, 26880, Note_on_c, 0, 68, 64
2, 27000, Note_on_c, 0, 68, 0
2, 27000, Note_on_c, 0, 64, 64
2, 27120, Note_on_c, 0, 64, 0
2, 27240, Note_on_c, 0, 69, 64
2, 27360, Note_on_c, 0, 69, 0
2, 27360, Note_on_c, 0, 71, 64
2, 27420, Note_on_c, 0, 71, 0
2, 27420, Note_on_c, 0, 72, 64
2, 27480, Note_on_c, 0, 72, 0
2, 27480, Note_on_c, 0, 69, 64
2, 27540, Note_on_c, 0, 69, 0
2, 27540, Note_on_c, 0, 71, 64
2, 27600, Note_on_c, 0, 71, 0
2, 27600, Note_on_c, 0, 72, 64
2, 27660, Note_on_c, 0, 72, 0
2, 27660, Note_on_c, 0, 74, 64
2, 27720, Note_on_c, 0, 74, 0
2, 27720, Note_on_c, 0, 71, 64
2, 27780, Note_on_c, 0, 71, 0
2, 27780, Note_on_c, 0, 72, 64
2, 27840, Note_on_c, 0, 72, 0
2, 27840, Note_on_c, 0, 74, 64
2, 27960, Note_on_c, 0, 74, 0
2, 27960, Note_on_c, 0, 72, 64
2, 28080, Note_on_c, 0, 72, 0
2, 28080, Note_on_c, 0, 71, 64
2, 28200, Note_on_c, 0, 71, 0
2, 28200, Note_on_c, 0, 76, 64
2, 28320, Note_on_c, 0, 76, 0
2, 28320, Note_on_c, 0, 69, 64
2, 28440, Note_on_c, 0, 69, 0
2, 28440, Note_on_c, 0, 81, 64
2, 28680, Note_on_c, 0, 81, 0
2, 28680, Note_on_c, 0, 79, 64
2, 28920, Note_on_c, 0, 79, 0
2, 28920, Note_on_c, 0, 84, 64
2, 28980, Note_on_c, 0, 84, 0
2, 28980, Note_on_c, 0, 83, 64
2, 29040, Note_on_c, 0, 83, 0
2, 29040, Note_on_c, 0, 81, 64
2, 29100, Note_on_c, 0, 81, 0
2, 29100, Note_on_c, 0, 79, 64
2, 29160, Note_on_c, 0, 79, 0
2, 29160, Note_on_c, 0, 78, 64
2, 29220, Note_on_c, 0, 78, 0
2, 29220, Note_on_c, 0, 76, 64
2, 29280, Note_on_c, 0, 76, 0
2, 29280, Note_on_c, 0, 75, 64
2, 29400, Note_on_c, 0, 75, 0
2, 29400, Note_on_c, 0, 71, 64
2, 29520, Note_on_c, 0, 71, 0
2, 29520, Note_on_c, 0, 73, 64
2, 29640, Note_on_c, 0, 73, 0
2, 29640, Note_on_c, 0, 75, 64
2, 29760, Note_on_c, 0, 75, 0
2, 29760, Note_on_c, 0, 76, 64
2, 29820, Note_on_c, 0, 76, 0
2, 29820, Note_on_c, 0, 74, 64
2, 29880, Note_on_c, 0, 74, 0
2, 29880, Note_on_c, 0, 72, 64
2, 29940, Note_on_c, 0, 72, 0
2, 29940, Note_on_c, 0, 71, 64
2, 30000, Note_on_c, 0, 71, 0
2, 30000, Note_on_c, 0, 72, 64
2, 30240, Note_on_c, 0, 72, 0
2, 30240, Note_on_c, 0, 71, 64
2, 30360, Note_on_c, 0, 71, 0
2, 30360, Note_on_c, 0, 76, 64
2, 30420, Note_on_c, 0, 76, 0
2, 30420, Note_on_c, 0, 75, 64
2, 30480, Note_on_c, 0, 75, 0
2, 30480, Note_on_c, 0, 76, 64
2, 30600, Note_on_c, 0, 76, 0
2, 30600, Note_on_c, 0, 78, 64
2, 30720, Note_on_c, 0, 78, 0
2, 30720, Note_on_c, 0, 79, 64
2, 30840, Note_on_c, 0, 79, 0
2, 30840, Note_on_c, 0, 79, 64
2, 30900, Note_on_c, 0, 79, 0
2, 30900, Note_on_c, 0, 78, 64
2, 30960, Note_on_c, 0, 78, 0
2, 30960, Note_on_c, 0, 79, 64
2, 31080, Note_on_c, 0, 79, 0
2, 31080, Note_on_c, 0, 81, 64
2, 31200, Note_on_c, 0, 81, 0
2, 31200, Note_on_c, 0, 71, 64
2, 32040, Note_on_c, 0, 71, 0
2, 32040, Note_on_c, 0, 76, 64
2, 32100, Note_on_c, 0, 76, 0
2, 32100, Note_on_c, 0, 74, 64
2, 32160, Note_on_c, 0, 74, 0
2, 32160, Note_on_c, 0, 72, 64
2, 32220, Note_on_c, 0, 72, 0
2, 32220, Note_on_c, 0, 71, 64
2, 32280, Note_on_c, 0, 71, 0
2, 32280, Note_on_c, 0, 69, 64
2, 32340, Note_on_c, 0, 69, 0
2, 32340, Note_on_c, 0, 71, 64
2, 32400, Note_on_c, 0, 71, 0
2, 32400, Note_on_c, 0, 72, 64
2, 32520, Note_on_c, 0, 72, 0
2, 32520, Note_on_c, 0, 71, 64
2, 32580, Note_on_c, 0, 71, 0
2, 32580, Note_on_c, 0, 69, 64
2, 32640, Note_on_c, 0, 69, 0
2, 32640, Note_on_c, 0, 67, 64
2, 32880, Note_on_c, 0, 67, 0
2, 32880, Note_on_c, 0, 72, 64
2, 33240, Note_on_c, 0, 72, 0
2, 33240, Note_on_c, 0, 71, 64
2, 33300, Note_on_c, 0, 71, 0
2, 33300, Note_on_c, 0, 69, 64
2, 33360, Note_on_c, 0, 69, 0
2, 33360, Note_on_c, 0, 71, 64
2, 33480, Note_on_c, 0, 71, 0
2, 33480, Note_on_c, 0, 73, 64
2, 33600, Note_on_c, 0, 73, 0
2, 33600, Note_on_c, 0, 74, 64
2, 34200, Note_on_c, 0, 74, 0
2, 34200, Note_on_c, 0, 72, 64
2, 34260, Note_on_c, 0, 72, 0
2, 34260, Note_on_c, 0, 71, 64
2, 34320, Note_on_c, 0, 71, 0
2, 34320, Note_on_c, 0, 72, 64
2, 34440, Note_on_c, 0, 72, 0
2, 34440, Note_on_c, 0, 74, 64
2, 34560, Note_on_c, 0, 74, 0
2, 34560, Note_on_c, 0, 76, 64
2, 34680, Note_on_c, 0, 76, 0
2, 34680, Note_on_c, 0, 69, 64
2, 34800, Note_on_c, 0, 69, 0
2, 34800, Note_on_c, 0, 81, 64
2, 35100, Note_on_c, 0, 81, 0
2, 35100, Note_on_c, 0, 80, 64
2, 35160, Note_on_c, 0, 80, 0
2, 35160, Note_on_c, 0, 81, 64
2, 35220, Note_on_c, 0, 81, 0
2, 35220, Note_on_c, 0, 80, 64
2, 35280, Note_on_c, 0, 80, 0
2, 35280, Note_on_c, 0, 81, 64
2, 35400, Note_on_c, 0, 81, 0
2, 35400, Note_on_c, 0, 83, 64
2, 35520, Note_on_c, 0, 83, 0
2, 35520, Note_on_c, 0, 76, 64
2, 35880, Note_on_c, 0, 76, 0
2, 35880, Note_on_c, 0, 74, 64
2, 35940, Note_on_c, 0, 74, 0
2, 35940, Note_on_c, 0, 72, 64
2, 36000, Note_on_c, 0, 72, 0
2, 36000, Note_on_c, 0, 71, 64
2, 36120, Note_on_c, 0, 71, 0
2, 36120, Note_on_c, 0, 76, 64
2, 36180, Note_on_c, 0, 76, 0
2, 36180, Note_on_c, 0, 74, 64
2, 36240, Note_on_c, 0, 74, 0
2, 36240, Note_on_c, 0, 72, 64
2, 36300, Note_on_c, 0, 72, 0
2, 36300, Note_on_c, 0, 71, 64
2, 36360, Note_on_c, 0, 71, 0
2, 36420, Note_on_c, 0, 68, 64
2, 36480, Note_on_c, 0, 68, 0
2, 36480, Note_on_c, 0, 69, 64
2, 36600, Note_on_c, 0, 69, 0
2, 36720, Note_on_c, 0, 68, 64
2, 36840, Note_on_c, 0, 68, 0
2, 36960, Note_on_c, 0, 69, 64
2, 37200, Note_on_c, 0, 69, 0
2, 40440, Note_on_c, 0, 72, 64
2, 40500, Note_on_c, 0, 72, 0
2, 40500, Note_on_c, 0, 71, 64
2, 40560, Note_on_c, 0, 71, 0
2, 40560, Note_on_c, 0, 72, 64
2, 40680, Note_on_c, 0, 72, 0
2, 40680, Note_on_c, 0, 74, 64
2, 40800, Note_on_c, 0, 74, 0
2, 40800, Note_on_c, 0, 76, 64
2, 40920, Note_on_c, 0, 76, 0
2, 40920, Note_on_c, 0, 76, 64
2, 40980, Note_on_c, 0, 76, 0
2, 40980, Note_on_c, 0, 74, 64
2, 41040, Note_on_c, 0, 74, 0
2, 41040, Note_on_c, 0, 76, 64
2, 41160, Note_on_c, 0, 76, 0
2, 41160, Note_on_c, 0, 77, 64
2, 41280, Note_on_c, 0, 77, 0
2, 41280, Note_on_c, 0, 79, 64
2, 41340, Note_on_c, 0, 79, 0
2, 41340, Note_on_c, 0, 77, 64
2, 41400, Note_on_c, 0, 77, 0
2, 41400, Note_on_c, 0, 76, 64
2, 41460, Note_on_c, 0, 76, 0
2, 41460, Note_on_c, 0, 77, 64
2, 41520, Note_on_c, 0, 77, 0
2, 41520, Note_on_c, 0, 79, 64
2, 41640, Note_on_c, 0, 79, 0
2, 41640, Note_on_c, 0, 81, 64
2, 41760, Note_on_c, 0, 81, 0
2, 41760, Note_on_c, 0, 71, 64
2, 41880, Note_on_c, 0, 71, 0
2, 41880, Note_on_c, 0, 67, 64
2, 42000, Note_on_c, 0, 67, 0
2, 42120, Note_on_c, 0, 72, 64
2, 42240, Note_on_c, 0, 72, 0
2, 42240, Note_on_c, 0, 74, 64
2, 42300, Note_on_c, 0, 74, 0
2, 42300, Note_on_c, 0, 76, 64
2, 42360, Note_on_c, 0, 76, 0
2, 42360, Note_on_c, 0, 72, 64
2, 42420, Note_on_c, 0, 72, 0
2, 42420, Note_on_c, 0, 74, 64
2, 42480, Note_on_c, 0, 74, 0
2, 42480, Note_on_c, 0, 76, 64
2, 42540, Note_on_c, 0, 76, 0
2, 42540, Note_on_c, 0, 77, 64
2, 42600, Note_on_c, 0, 77, 0
2, 42600, Note_on_c, 0, 74, 64
2, 42660, Note_on_c, 0, 74, 0
2, 42660, Note_on_c, 0, 76, 64
2, 42720, Note_on_c, 0, 76, 0
2, 42720, Note_on_c, 0, 77, 64
2, 42840, Note_on_c, 0, 77, 0
2, 42840, Note_on_c, 0, 76, 64
2, 42960, Note_on_c, 0, 76, 0
2, 42960, Note_on_c, 0, 74, 64
2, 43080, Note_on_c, 0, 74, 0
2, 43080, Note_on_c, 0, 79, 64
2, 43200, Note_on_c, 0, 79, 0
2, 43200, Note_on_c, 0, 72, 64
2, 43260, Note_on_c, 0, 72, 0
2, 43260, Note_on_c, 0, 71, 64
2, 43320, Note_on_c, 0, 71, 0
2, 43320, Note_on_c, 0, 74, 64
2, 43380, Note_on_c, 0, 74, 0
2, 43380, Note_on_c, 0, 72, 64
2, 43440, Note_on_c, 0, 72, 0
2, 43440, Note_on_c, 0, 71, 64
2, 43500, Note_on_c, 0, 71, 0
2, 43500, Note_on_c, 0, 69, 64
2, 43560, Note_on_c, 0, 69, 0
2, 43560, Note_on_c, 0, 67, 64
2, 43620, Note_on_c, 0, 67, 0
2, 43620, Note_on_c, 0, 65, 64
2, 43680, Note_on_c, 0, 65, 0
2, 43680, Note_on_c, 0, 64, 64
2, 43800, Note_on_c, 0, 64, 0
2, 43800, Note_on_c, 0, 65, 64
2, 43860, Note_on_c, 0, 65, 0
2, 43860, Note_on_c, 0, 67, 64
2, 43920, Note_on_c, 0, 67, 0
2, 43920, Note_on_c, 0, 69, 64
2, 43980, Note_on_c, 0, 69, 0
2, 43980, Note_on_c, 0, 71, 64
2, 44040, Note_on_c, 0, 71, 0
2, 44040, Note_on_c, 0, 72, 64
2, 44100, Note_on_c, 0, 72, 0
2, 44100, Note_on_c, 0, 74, 64
2, 44160, Note_on_c, 0, 74, 0
2, 44160, Note_on_c, 0, 71, 64
2, 44280, Note_on_c, 0, 71, 0
2, 44280, Note_on_c, 0, 69, 64
2, 44340, Note_on_c, 0, 69, 0
2, 44340, Note_on_c, 0, 67, 64
2, 44400, Note_on_c, 0, 67, 0
2, 44400, Note_on_c, 0, 72, 64
2, 44880, Note_on_c, 0, 72, 0
2, 44880, Note_on_c, 0, 71, 64
2, 45120, Note_on_c, 0, 71, 0
2, 45120, Note_on_c, 0, 72, 64
2, 45240, Note_on_c, 0, 72, 0
2, 45240, Note_on_c, 0, 76, 64
2, 45300, Note_on_c, 0, 76, 0
2, 45300, Note_on_c, 0, 77, 64
2, 45360, Note_on_c, 0, 77, 0
2, 45360, Note_on_c, 0, 76, 64
2, 45480, Note_on_c, 0, 76, 0
2, 45480, Note_on_c, 0, 74, 64
2, 45600, Note_on_c, 0, 74, 0
2, 45600, Note_on_c, 0, 72, 64
2, 45720, Note_on_c, 0, 72, 0
2, 45720, Note_on_c, 0, 73, 64
2, 45840, Note_on_c, 0, 73, 0
2, 45840, Note_on_c, 0, 74, 64
2, 45960, Note_on_c, 0, 74, 0
2, 45960, Note_on_c, 0, 76, 64
2, 46080, Note_on_c, 0, 76, 0
2, 46080, Note_on_c, 0, 69, 64
2, 46200, Note_on_c, 0, 69, 0
2, 46200, Note_on_c, 0, 74, 64
2, 46260, Note_on_c, 0, 74, 0
2, 46260, Note_on_c, 0, 76, 64
2, 46320, Note_on_c, 0, 76, 0
2, 46320, Note_on_c, 0, 74, 64
2, 46440, Note_on_c, 0, 74, 0
2, 46440, Note_on_c, 0, 72, 64
2, 46560, Note_on_c, 0, 72, 0
2, 46560, Note_on_c, 0, 71, 64
2, 46620, Note_on_c, 0, 71, 0
2, 46620, Note_on_c, 0, 72, 64
2, 46680, Note_on_c, 0, 72, 0
2, 46680, Note_on_c, 0, 74, 64
2, 46740, Note_on_c, 0, 74, 0
2, 46740, Note_on_c, 0, 72, 64
2, 46800, Note_on_c, 0, 72, 0
2, 46800, Note_on_c, 0, 71, 64
2, 46920, Note_on_c, 0, 71, 0
2, 46920, Note_on_c, 0, 69, 64
2, 47040, Note_on_c, 0, 69, 0
2, 47040, Note_on_c, 0, 67, 64
2, 47280, Note_on_c, 0, 67, 0
2, 50520, Note_on_c, 0, 74, 64
2, 50580, Note_on_c, 0, 74, 0
2, 50580, Note_on_c, 0, 76, 64
2, 50640, Note_on_c, 0, 76, 0
2, 50640, Note_on_c, 0, 74, 64
2, 50760, Note_on_c, 0, 74, 0
2, 50760, Note_on_c, 0, 72, 64
2, 50880, Note_on_c, 0, 72, 0
2, 50880, Note_on_c, 0, 71, 64
2, 51000, Note_on_c, 0, 71, 0
2, 51000, Note_on_c, 0, 71, 64
2, 51060, Note_on_c, 0, 71, 0
2, 51060, Note_on_c, 0, 72, 64
2, 51120, Note_on_c, 0, 72, 0
2, 51120, Note_on_c, 0, 71, 64
2, 51240, Note_on_c, 0, 71, 0
2, 51240, Note_on_c, 0, 69, 64
2, 51360, Note_on_c, 0, 69, 0
2, 51360, Note_on_c, 0, 67, 64
2, 51420, Note_on_c, 0, 67, 0
2, 51420, Note_on_c, 0, 69, 64
2, 51480, Note_on_c, 0, 69, 0
2, 51480, Note_on_c, 0, 71, 64
2, 51540, Note_on_c, 0, 71, 0
2, 51540, Note_on_c, 0, 69, 64
2, 51600, Note_on_c, 0, 69, 0
2, 51600, Note_on_c, 0, 67, 64
2, 51720, Note_on_c, 0, 67, 0
2, 51720, Note_on_c, 0, 66, 64
2, 51840, Note_on_c, 0, 66, 0
2, 51840, Note_on_c, 0, 76, 64
2, 51960, Note_on_c, 0, 76, 0
2, 51960, Note_on_c, 0, 79, 64
2, 52080, Note_on_c, 0, 79, 0
2, 52200, Note_on_c, 0, 74, 64
2, 52320, Note_on_c, 0, 74, 0
2, 52380, Note_on_c, 0, 71, 64
2, 52440, Note_on_c, 0, 71, 0
2, 52440, Note_on_c, 0, 74, 64
2, 52500, Note_on_c, 0, 74, 0
2, 52500, Note_on_c, 0, 72, 64
2, 52560, Note_on_c, 0, 72, 0
2, 52560, Note_on_c, 0, 71, 64
2, 52620, Note_on_c, 0, 71, 0
2, 52620, Note_on_c, 0, 69, 64
2, 52680, Note_on_c, 0, 69, 0
2, 52680, Note_on_c, 0, 72, 64
2, 52740, Note_on_c, 0, 72, 0
2, 52740, Note_on_c, 0, 71, 64
2, 52800, Note_on_c, 0, 71, 0
2, 52800, Note_on_c, 0, 69, 64
2, 52920, Note_on_c, 0, 69, 0
2, 52920, Note_on_c, 0, 71, 64
2, 53040, Note_on_c, 0, 71, 0
2, 53040, Note_on_c, 0, 72, 64
2, 53160, Note_on_c, 0, 72, 0
2, 53160, Note_on_c, 0, 67, 64
2, 53280, Note_on_c, 0, 67, 0
2, 53280, Note_on_c, 0, 74, 64
2, 53340, Note_on_c, 0, 74, 0
2, 53340, Note_on_c, 0, 76, 64
2, 53400, Note_on_c, 0, 76, 0
2, 53400, Note_on_c, 0, 74, 64
2, 53460, Note_on_c, 0, 74, 0
2, 53460, Note_on_c, 0, 76, 64
2, 53520, Note_on_c, 0, 76, 0
2, 53520, Note_on_c, 0, 77, 70
2, 53540, Note_on_c, 0, 77, 0
2, 53540, Note_on_c, 0, 76, 50
2, 53560, Note_on_c, 0, 76, 0
2, 53560, Note_on_c, 0, 77, 52
2, 53580, Note_on_c, 0, 77, 0
2, 53580, Note_on_c, 0, 76, 54
2, 53600, Note_on_c, 0, 76, 0
2, 53600, Note_on_c, 0, 77, 57
2, 53620, Note_on_c, 0, 77, 0
2, 53620, Note_on_c, 0, 76, 59
2, 53640, Note_on_c, 0, 76, 0
2, 53640, Note_on_c, 0, 77, 61
2, 53660, Note_on_c, 0, 77, 0
2, 53660, Note_on_c, 0, 76, 63
2, 53700, Note_on_c, 0, 76, 0
2, 53700, Note_on_c, 0, 74, 64
2, 53730, Note_on_c, 0, 74, 0
2, 53730, Note_on_c, 0, 76, 64
2, 53760, Note_on_c, 0, 76, 0
2, 53760, Note_on_c, 0, 77, 64
2, 54360, Note_on_c, 0, 77, 0
2, 54360, Note_on_c, 0, 76, 64
2, 54420, Note_on_c, 0, 76, 0
2, 54420, Note_on_c, 0, 77, 64
2, 54480, Note_on_c, 0, 77, 0
2, 54480, Note_on_c, 0, 76, 64
2, 54600, Note_on_c, 0, 76, 0
2, 54600, Note_on_c, 0, 74, 64
2, 54720, Note_on_c, 0, 74, 0
2, 54720, Note_on_c, 0, 72, 64
2, 54840, Note_on_c, 0, 72, 0
2, 54840, Note_on_c, 0, 72, 64
2, 54900, Note_on_c, 0, 72, 0
2, 54900, Note_on_c, 0, 74, 64
2, 54960, Note_on_c, 0, 74, 0
2, 54960, Note_on_c, 0, 72, 64
2, 55080, Note_on_c, 0, 72, 0
2, 55080, Note_on_c, 0, 71, 64
2, 55200, Note_on_c, 0, 71, 0
2, 55200, Note_on_c, 0, 69, 64
2, 55260, Note_on_c, 0, 69, 0
2, 55260, Note_on_c, 0, 71, 64
2, 55320, Note_on_c, 0, 71, 0
2, 55320, Note_on_c, 0, 72, 64
2, 55380, Note_on_c, 0, 72, 0
2, 55380, Note_on_c, 0, 71, 64
2, 55440, Note_on_c, 0, 71, 0
2, 55440, Note_on_c, 0, 69, 64
2, 55560, Note_on_c, 0, 69, 0
2, 55560, Note_on_c, 0, 67, 64
2, 55680, Note_on_c, 0, 67, 0
2, 55680, Note_on_c, 0, 77, 64
2, 55800, Note_on_c, 0, 77, 0
2, 55800, Note_on_c, 0, 81, 64
2, 55920, Note_on_c, 0, 81, 0
2, 56040, Note_on_c, 0, 76, 64
2, 56160, Note_on_c, 0, 76, 0
2, 56160, Note_on_c, 0, 74, 64
2, 56220, Note_on_c, 0, 74, 0
2, 56220, Note_on_c, 0, 72, 64
2, 56280, Note_on_c, 0, 72, 0
2, 56280, Note_on_c, 0, 76, 64
2, 56340, Note_on_c, 0, 76, 0
2, 56340, Note_on_c, 0, 74, 64
2, 56400, Note_on_c, 0, 74, 0
2, 56400, Note_on_c, 0, 72, 64
2, 56460, Note_on_c, 0, 72, 0
2, 56460, Note_on_c, 0, 71, 64
2, 56520, Note_on_c, 0, 71, 0
2, 56520, Note_on_c, 0, 74, 64
2, 56580, Note_on_c, 0, 74, 0
2, 56580, Note_on_c, 0, 72, 64
2, 56640, Note_on_c, 0, 72, 0
2, 56640, Note_on_c, 0, 71, 64
2, 57000, Note_on_c, 0, 71, 0
2, 57000, Note_on_c, 0, 69, 64
2, 57180, Note_on_c, 0, 69, 0
2, 57180, Note_on_c, 0, 71, 64
2, 57240, Note_on_c, 0, 71, 0
2, 57240, Note_on_c, 0, 68, 64
2, 57300, Note_on_c, 0, 68, 0
2, 57300, Note_on_c, 0, 69, 64
2, 57360, Note_on_c, 0, 69, 0
2, 57360, Note_on_c, 0, 71, 64
2, 57660, Note_on_c, 0, 71, 0
2, 57660, Note_on_c, 0, 72, 64
2, 57720, Note_on_c, 0, 72, 0
2, 57720, Note_on_c, 0, 69, 64
2, 57780, Note_on_c, 0, 69, 0
2, 57780, Note_on_c, 0, 71, 64
2, 57840, Note_on_c, 0, 71, 0
2, 57840, Note_on_c, 0, 72, 64
2, 58140, Note_on_c, 0, 72, 0
2, 58140, Note_on_c, 0, 74, 64
2, 58200, Note_on_c, 0, 74, 0
2, 58200, Note_on_c, 0, 71, 64
2, 58260, Note_on_c, 0, 71, 0
2, 58260, Note_on_c, 0, 72, 64
2, 58320, Note_on_c, 0, 72, 0
2, 58320, Note_on_c, 0, 74, 64
2, 58380, Note_on_c, 0, 74, 0
2, 58380, Note_on_c, 0, 72, 64
2, 58440, Note_on_c, 0, 72, 0
2, 58440, Note_on_c, 0, 71, 64
2, 58500, Note_on_c, 0, 71, 0
2, 58500, Note_on_c, 0, 69, 64
2, 58560, Note_on_c, 0, 69, 0
2, 58560, Note_on_c, 0, 68, 64
2, 58620, Note_on_c, 0, 68, 0
2, 58620, Note_on_c, 0, 71, 64
2, 58680, Note_on_c, 0, 71, 0
2, 58680, Note_on_c, 0, 72, 64
2, 58740, Note_on_c, 0, 72, 0
2, 58740, Note_on_c, 0, 74, 64
2, 58800, Note_on_c, 0, 74, 0
2, 58800, Note_on_c, 0, 76, 64
2, 58860, Note_on_c, 0, 76, 0
2, 58860, Note_on_c, 0, 77, 64
2, 58920, Note_on_c, 0, 77, 0
2, 58920, Note_on_c, 0, 79, 64
2, 59100, Note_on_c, 0, 79, 0
2, 59100, Note_on_c, 0, 81, 64
2, 59160, Note_on_c, 0, 81, 0
2, 59160, Note_on_c, 0, 79, 64
2, 59220, Note_on_c, 0, 79, 0
2, 59220, Note_on_c, 0, 77, 64
2, 59280, Note_on_c, 0, 77, 0
2, 59280, Note_on_c, 0, 79, 64
2, 59580, Note_on_c, 0, 79, 0
2, 59580, Note_on_c, 0, 77, 64
2, 59640, Note_on_c, 0, 77, 0
2, 59640, Note_on_c, 0, 76, 64
2, 59700, Note_on_c, 0, 76, 0
2, 59700, Note_on_c, 0, 77, 64
2, 59760, Note_on_c, 0, 77, 0
2, 59760, Note_on_c, 0, 79, 64
2, 60060, Note_on_c, 0, 79, 0
2, 60060, Note_on_c, 0, 82, 64
2, 60120, Note_on_c, 0, 82, 0
2, 60120, Note_on_c, 0, 81, 64
2, 60180, Note_on_c, 0, 81, 0
2, 60180, Note_on_c, 0, 79, 64
2, 60240, Note_on_c, 0, 79, 0
2, 60240, Note_on_c, 0, 77, 64
2, 60300, Note_on_c, 0, 77, 0
2, 60300, Note_on_c, 0, 76, 64
2, 60360, Note_on_c, 0, 76, 0
2, 60360, Note_on_c, 0, 74, 64
2, 60420, Note_on_c, 0, 74, 0
2, 60420, Note_on_c, 0, 73, 64
2, 60480, Note_on_c, 0, 73, 0
2, 60480, Note_on_c, 0, 74, 64
2, 60540, Note_on_c, 0, 74, 0
2, 60540, Note_on_c, 0, 76, 64
2, 60600, Note_on_c, 0, 76, 0
2, 60600, Note_on_c, 0, 74, 64
2, 60660, Note_on_c, 0, 74, 0
2, 60660, Note_on_c, 0, 76, 64
2, 60720, Note_on_c, 0, 76, 0
2, 60720, Note_on_c, 0, 77, 70
2, 60740, Note_on_c, 0, 77, 0
2, 60740, Note_on_c, 0, 76, 50
2, 60760, Note_on_c, 0, 76, 0
2, 60760, Note_on_c, 0, 77, 52
2, 60780, Note_on_c, 0, 77, 0
2, 60780, Note_on_c, 0, 76, 54
2, 60800, Note_on_c, 0, 76, 0
2, 60800, Note_on_c, 0, 77, 57
2, 60820, Note_on_c, 0, 77, 0
2, 60820, Note_on_c, 0, 76, 59
2, 60840, Note_on_c, 0, 76, 0
2, 60840, Note_on_c, 0, 77, 61
2, 60860, Note_on_c, 0, 77, 0
2, 60860, Note_on_c, 0, 76, 63
2, 60900, Note_on_c, 0, 76, 0
2, 60900, Note_on_c, 0, 74, 64
2, 60960, Note_on_c, 0, 74, 0
2, 60960, Note_on_c, 0, 74, 64
2, 61680, Note_on_c, 0, 74, 0
2, 63960, Note_on_c, 0, 76, 64
2, 64020, Note_on_c, 0, 76, 0
2, 64020, Note_on_c, 0, 77, 64
2, 64080, Note_on_c, 0, 77, 0
2, 64080, Note_on_c, 0, 76, 64
2, 64200, Note_on_c, 0, 76, 0
2, 64200, Note_on_c, 0, 74, 64
2, 64320, Note_on_c, 0, 74, 0
2, 64320, Note_on_c, 0, 72, 64
2, 64440, Note_on_c, 0, 72, 0
2, 64440, Note_on_c, 0, 72, 64
2, 64500, Note_on_c, 0, 72, 0
2, 64500, Note_on_c, 0, 74, 64
2, 64560, Note_on_c, 0, 74, 0
2, 64560, Note_on_c, 0, 72, 64
2, 64680, Note_on_c, 0, 72, 0
2, 64680, Note_on_c, 0, 70, 64
2, 64800, Note_on_c, 0, 70, 0
2, 64800, Note_on_c, 0, 69, 64
2, 64860, Note_on_c, 0, 69, 0
2, 64860, Note_on_c, 0, 70, 64
2, 64920, Note_on_c, 0, 70, 0
2, 64920, Note_on_c, 0, 72, 64
2, 64980, Note_on_c, 0, 72, 0
2, 64980, Note_on_c, 0, 70, 64
2, 65040, Note_on_c, 0, 70, 0
2, 65040, Note_on_c, 0, 69, 64
2, 65160, Note_on_c, 0, 69, 0
2, 65160, Note_on_c, 0, 67, 64
2, 65280, Note_on_c, 0, 67, 0
2, 65280, Note_on_c, 0, 77, 64
2, 65400, Note_on_c, 0, 77, 0
2, 65400, Note_on_c, 0, 81, 64
2, 65520, Note_on_c, 0, 81, 0
2, 65640, Note_on_c, 0, 76, 64
2, 65760, Note_on_c, 0, 76, 0
2, 65760, Note_on_c, 0, 74, 64
2, 65820, Note_on_c, 0, 74, 0
2, 65820, Note_on_c, 0, 73, 64
2, 65880, Note_on_c, 0, 73, 0
2, 65880, Note_on_c, 0, 76, 64
2, 65940, Note_on_c, 0, 76, 0
2, 65940, Note_on_c, 0, 74, 64
2, 66000, Note_on_c, 0, 74, 0
2, 66000, Note_on_c, 0, 73, 64
2, 66060, Note_on_c, 0, 73, 0
2, 66060, Note_on_c, 0, 71, 64
2, 66120, Note_on_c, 0, 71, 0
2, 66120, Note_on_c, 0, 74, 64
2, 66180, Note_on_c, 0, 74, 0
2, 66180, Note_on_c, 0, 72, 64
2, 66240, Note_on_c, 0, 72, 0
2, 66240, Note_on_c, 0, 71, 64
2, 66360, Note_on_c, 0, 71, 0
2, 66360, Note_on_c, 0, 73, 64
2, 66480, Note_on_c, 0, 73, 0
2, 66480, Note_on_c, 0, 74, 64
2, 66600, Note_on_c, 0, 74, 0
2, 66600, Note_on_c, 0, 69, 64
2, 66720, Note_on_c, 0, 69, 0
2, 66720, Note_on_c, 0, 76, 64
2, 67260, Note_on_c, 0, 76, 0
2, 67260, Note_on_c, 0, 73, 64
2, 67320, Note_on_c, 0, 73, 0
2, 67320, Note_on_c, 0, 74, 64
2, 67380, Note_on_c, 0, 74, 0
2, 67380, Note_on_c, 0, 77, 64
2, 67440, Note_on_c, 0, 77, 0
2, 67440, Note_on_c, 0, 79, 64
2, 67740, Note_on_c, 0, 79, 0
2, 67740, Note_on_c, 0, 76, 64
2, 67800, Note_on_c, 0, 76, 0
2, 67800, Note_on_c, 0, 77, 64
2, 67860, Note_on_c, 0, 77, 0
2, 67860, Note_on_c, 0, 81, 64
2, 67920, Note_on_c, 0, 81, 0
2, 67920, Note_on_c, 0, 82, 64
2, 68220, Note_on_c, 0, 82, 0
2, 68220, Note_on_c, 0, 79, 64
2, 68280, Note_on_c, 0, 79, 0
2, 68280, Note_on_c, 0, 81, 64
2, 68340, Note_on_c, 0, 81, 0
2, 68340, Note_on_c, 0, 84, 64
2, 68400, Note_on_c, 0, 84, 0
2, 68400, Note_on_c, 0, 74, 64
2, 68520, Note_on_c, 0, 74, 0
2, 68520, Note_on_c, 0, 76, 64
2, 68580, Note_on_c, 0, 76, 0
2, 68580, Note_on_c, 0, 79, 64
2, 68640, Note_on_c, 0, 79, 0
2, 68640, Note_on_c, 0, 72, 64
2, 68940, Note_on_c, 0, 72, 0
2, 68940, Note_on_c, 0, 65, 64
2, 69000, Note_on_c, 0, 65, 0
2, 69000, Note_on_c, 0, 67, 64
2, 69060, Note_on_c, 0, 67, 0
2, 69060, Note_on_c, 0, 70, 64
2, 69180, Note_on_c, 0, 70, 0
2, 69180, Note_on_c, 0, 70, 64
2, 69240, Note_on_c, 0, 70, 0
2, 69240, Note_on_c, 0, 69, 64
2, 69300, Note_on_c, 0, 69, 0
2, 69300, Note_on_c, 0, 67, 64
2, 69360, Note_on_c, 0, 67, 0
2, 69360, Note_on_c, 0, 67, 64
2, 69540, Note_on_c, 0, 67, 0
2, 69540, Note_on_c, 0, 65, 64
2, 69590, Note_on_c, 0, 65, 0
2, 69600, Note_on_c, 0, 65, 64
2, 69840, Note_on_c, 0, 65, 0
2, 69840, Note_on_c, 0, 72, 64
2, 71160, Note_on_c, 0, 72, 0
2, 71160, Note_on_c, 0, 69, 64
2, 71280, Note_on_c, 0, 69, 0
2, 71280, Note_on_c, 0, 75, 64
2, 71640, Note_on_c, 0, 75, 0
2, 71640, Note_on_c, 0, 74, 64
2, 71760, Note_on_c, 0, 74, 0
2, 71760, Note_on_c, 0, 72, 64
2, 71820, Note_on_c, 0, 72, 0
2, 71820, Note_on_c, 0, 70, 64
2, 71880, Note_on_c, 0, 70, 0
2, 71880, Note_on_c, 0, 74, 64
2, 71940, Note_on_c, 0, 74, 0
2, 71940, Note_on_c, 0, 72, 64
2, 72000, Note_on_c, 0, 72, 0
2, 72000, Note_on_c, 0, 70, 64
2, 72060, Note_on_c, 0, 70, 0
2, 72060, Note_on_c, 0, 72, 64
2, 72120, Note_on_c, 0, 72, 0
2, 72120, Note_on_c, 0, 74, 64
2, 72180, Note_on_c, 0, 74, 0
2, 72180, Note_on_c, 0, 72, 64
2, 72240, Note_on_c, 0, 72, 0
2, 72240, Note_on_c, 0, 70, 64
2, 72300, Note_on_c, 0, 70, 0
2, 72300, Note_on_c, 0, 69, 64
2, 72360, Note_on_c, 0, 69, 0
2, 72360, Note_on_c, 0, 67, 64
2, 72420, Note_on_c, 0, 67, 0
2, 72420, Note_on_c, 0, 65, 64
2, 72480, Note_on_c, 0, 65, 0
2, 72480, Note_on_c, 0, 67, 64
2, 72540, Note_on_c, 0, 67, 0
2, 72540, Note_on_c, 0, 69, 64
2, 72600, Note_on_c, 0, 69, 0
2, 72600, Note_on_c, 0, 70, 64
2, 72660, Note_on_c, 0, 70, 0
2, 72660, Note_on_c, 0, 69, 64
2, 72720, Note_on_c, 0, 69, 0
2, 72720, Note_on_c, 0, 67, 64
2, 72780, Note_on_c, 0, 67, 0
2, 72780, Note_on_c, 0, 65, 64
2, 72840, Note_on_c, 0, 65, 0
2, 72840, Note_on_c, 0, 64, 64
2, 72900, Note_on_c, 0, 64, 0
2, 72900, Note_on_c, 0, 62, 64
2, 72960, Note_on_c, 0, 62, 0
2, 72960, Note_on_c, 0, 76, 64
2, 73440, Note_on_c, 0, 76, 0
2, 73560, Note_on_c, 0, 76, 64
2, 73620, Note_on_c, 0, 76, 0
2, 73620, Note_on_c, 0, 74, 64
2, 73680, Note_on_c, 0, 74, 0
2, 73680, Note_on_c, 0, 76, 64
2, 73800, Note_on_c, 0, 76, 0
2, 73800, Note_on_c, 0, 77, 64
2, 73920, Note_on_c, 0, 77, 0
2, 73920, Note_on_c, 0, 79, 64
2, 74040, Note_on_c, 0, 79, 0
2, 74040, Note_on_c, 0, 79, 64
2, 74100, Note_on_c, 0, 79, 0
2, 74100, Note_on_c, 0, 77, 64
2, 74160, Note_on_c, 0, 77, 0
2, 74160, Note_on_c, 0, 79, 64
2, 74280, Note_on_c, 0, 79, 0
2, 74280, Note_on_c, 0, 81, 64
2, 74400, Note_on_c, 0, 81, 0
2, 74400, Note_on_c, 0, 82, 64
2, 74460, Note_on_c, 0, 82, 0
2, 74460, Note_on_c, 0, 81, 64
2, 74520, Note_on_c, 0, 81, 0
2, 74520, Note_on_c, 0, 79, 64
2, 74580, Note_on_c, 0, 79, 0
2, 74580, Note_on_c, 0, 81, 64
2, 74640, Note_on_c, 0, 81, 0
2, 74640, Note_on_c, 0, 82, 64
2, 74700, Note_on_c, 0, 82, 0
2, 74700, Note_on_c, 0, 79, 64
2, 74760, Note_on_c, 0, 79, 0
2, 74760, Note_on_c, 0, 81, 64
2, 74820, Note_on_c, 0, 81, 0
2, 74820, Note_on_c, 0, 76, 64
2, 74880, Note_on_c, 0, 76, 0
2, 74880, Note_on_c, 0, 77, 64
2, 74940, Note_on_c, 0, 77, 0
2, 74940, Note_on_c, 0, 76, 64
2, 75000, Note_on_c, 0, 76, 0
2, 75060, Note_on_c, 0, 76, 64
2, 75120, Note_on_c, 0, 76, 0
2, 75120, Note_on_c, 0, 77, 64
2, 75180, Note_on_c, 0, 77, 0
2, 75180, Note_on_c, 0, 74, 64
2, 75240, Note_on_c, 0, 74, 0
2, 75240, Note_on_c, 0, 76, 64
2, 75300, Note_on_c, 0, 76, 0
2, 75300, Note_on_c, 0, 73, 64
2, 75360, Note_on_c, 0, 73, 0
2, 75360, Note_on_c, 0, 74, 64
2, 75420, Note_on_c, 0, 74, 0
2, 75420, Note_on_c, 0, 72, 64
2, 75480, Note_on_c, 0, 72, 0
2, 75480, Note_on_c, 0, 70, 64
2, 75540, Note_on_c, 0, 70, 0
2, 75540, Note_on_c, 0, 72, 64
2, 75600, Note_on_c, 0, 72, 0
2, 75600, Note_on_c, 0, 74, 64
2, 75660, Note_on_c, 0, 74, 0
2, 75660, Note_on_c, 0, 70, 64
2, 75720, Note_on_c, 0, 70, 0
2, 75720, Note_on_c, 0, 72, 64
2, 75780, Note_on_c, 0, 72, 0
2, 75780, Note_on_c, 0, 69, 64
2, 75840, Note_on_c, 0, 69, 0
2, 75840, Note_on_c, 0, 80, 64
2, 75840, Note_on_c, 0, 76, 64
2, 76080, Note_on_c, 0, 76, 0
2, 76080, Note_on_c, 0, 80, 0
2, 76320, Note_on_c, 0, 81, 64
2, 76920, Note_on_c, 0, 81, 0
2, 76920, Note_on_c, 0, 76, 64
2, 76980, Note_on_c, 0, 76, 0
2, 76980, Note_on_c, 0, 74, 64
2, 77040, Note_on_c, 0, 74, 0
2, 77040, Note_on_c, 0, 76, 64
2, 77160, Note_on_c, 0, 76, 0
2, 77160, Note_on_c, 0, 78, 64
2, 77280, Note_on_c, 0, 78, 0
2, 77280, Note_on_c, 0, 80, 64
2, 77400, Note_on_c, 0, 80, 0
2, 77400, Note_on_c, 0, 80, 64
2, 77460, Note_on_c, 0, 80, 0
2, 77460, Note_on_c, 0, 78, 64
2, 77520, Note_on_c, 0, 78, 0
2, 77520, Note_on_c, 0, 80, 64
2, 77640, Note_on_c, 0, 80, 0
2, 77640, Note_on_c, 0, 81, 64
2, 77760, Note_on_c, 0, 81, 0
2, 77760, Note_on_c, 0, 83, 64
2, 77820, Note_on_c, 0, 83, 0
2, 77820, Note_on_c, 0, 81, 64
2, 77880, Note_on_c, 0, 81, 0
2, 77880, Note_on_c, 0, 80, 64
2, 77940, Note_on_c, 0, 80, 0
2, 77940, Note_on_c, 0, 81, 64
2, 78000, Note_on_c, 0, 81, 0
2, 78000, Note_on_c, 0, 83, 64
2, 78120, Note_on_c, 0, 83, 0
2, 78120, Note_on_c, 0, 84, 64
2, 78120, Note_on_c, 0, 69, 64
2, 78240, Note_on_c, 0, 69, 0
2, 78240, Note_on_c, 0, 84, 0
2, 78240, Note_on_c, 0, 71, 64
2, 78240, Note_on_c, 0, 69, 64
2, 78240, Note_on_c, 0, 75, 64
2, 78480, Note_on_c, 0, 75, 0
2, 78480, Note_on_c, 0, 69, 0
2, 78480, Note_on_c, 0, 71, 0
2, 78600, Note_on_c, 0, 71, 64
2, 78600, Note_on_c, 0, 76, 64
2, 78720, Note_on_c, 0, 76, 0
2, 78720, Note_on_c, 0, 71, 0
2, 78720, Note_on_c, 0, 69, 64
2, 78720, Note_on_c, 0, 72, 64
2, 78840, Note_on_c, 0, 72, 0
2, 78840, Note_on_c, 0, 71, 64
2, 78900, Note_on_c, 0, 71, 0
2, 78900, Note_on_c, 0, 69, 64
2, 78960, Note_on_c, 0, 69, 0
2, 78960, Note_on_c, 0, 69, 0
2, 78960, Note_on_c, 0, 69, 64
2, 78960, Note_on_c, 0, 72, 64
2, 79020, Note_on_c, 0, 72, 0
2, 79020, Note_on_c, 0, 71, 64
2, 79080, Note_on_c, 0, 71, 0
2, 79080, Note_on_c, 0, 69, 0
2, 79080, Note_on_c, 0, 64, 64
2, 79080, Note_on_c, 0, 69, 64
2, 79140, Note_on_c, 0, 69, 0
2, 79140, Note_on_c, 0, 68, 64
2, 79200, Note_on_c, 0, 68, 0
2, 79200, Note_on_c, 0, 64, 0
2, 79200, Note_on_c, 0, 64, 64
2, 79200, Note_on_c, 0, 69, 64
2, 79440, Note_on_c, 0, 69, 0
2, 79440, Note_on_c, 0, 64, 0
2, 80280, Note_on_c, 0, 74, 64
2, 80340, Note_on_c, 0, 74, 0
2, 80340, Note_on_c, 0, 73, 64
2, 80400, Note_on_c, 0, 73, 0
2, 80400, Note_on_c, 0, 74, 64
2, 80520, Note_on_c, 0, 74, 0
2, 80520, Note_on_c, 0, 76, 64
2, 80640, Note_on_c, 0, 76, 0
2, 80640, Note_on_c, 0, 77, 64
2, 80760, Note_on_c, 0, 77, 0
2, 80760, Note_on_c, 0, 77, 64
2, 80820, Note_on_c, 0, 77, 0
2, 80820, Note_on_c, 0, 76, 64
2, 80880, Note_on_c, 0, 76, 0
2, 80880, Note_on_c, 0, 77, 64
2, 81000, Note_on_c, 0, 77, 0
2, 81000, Note_on_c, 0, 79, 64
2, 81120, Note_on_c, 0, 79, 0
2, 81120, Note_on_c, 0, 81, 64
2, 81180, Note_on_c, 0, 81, 0
2, 81180, Note_on_c, 0, 79, 64
2, 81240, Note_on_c, 0, 79, 0
2, 81240, Note_on_c, 0, 77, 64
2, 81300, Note_on_c, 0, 77, 0
2, 81300, Note_on_c, 0, 79, 64
2, 81360, Note_on_c, 0, 79, 0
2, 81360, Note_on_c, 0, 81, 64
2, 81480, Note_on_c, 0, 81, 0
2, 81480, Note_on_c, 0, 82, 64
2, 81600, Note_on_c, 0, 82, 0
2, 81600, Note_on_c, 0, 73, 64
2, 81720, Note_on_c, 0, 73, 0
2, 81720, Note_on_c, 0, 69, 64
2, 81840, Note_on_c, 0, 69, 0
2, 81960, Note_on_c, 0, 74, 64
2, 82140, Note_on_c, 0, 74, 0
2, 82140, Note_on_c, 0, 72, 64
2, 82200, Note_on_c, 0, 72, 0
2, 82200, Note_on_c, 0, 71, 64
2, 82260, Note_on_c, 0, 71, 0
2, 82260, Note_on_c, 0, 72, 64
2, 82320, Note_on_c, 0, 72, 0
2, 82320, Note_on_c, 0, 74, 64
2, 82380, Note_on_c, 0, 74, 0
2, 82380, Note_on_c, 0, 76, 64
2, 82440, Note_on_c, 0, 76, 0
2, 82440, Note_on_c, 0, 78, 64
2, 82500, Note_on_c, 0, 78, 0
2, 82500, Note_on_c, 0, 80, 64
2, 82560, Note_on_c, 0, 80, 0
2, 82560, Note_on_c, 0, 81, 64
2, 83520, Note_on_c, 0, 81, 0
2, 83520, End_track
3, 0, Start_track
3, 0, MIDI_port, 0
3, 0, Title_t, "RH L"
3, 0, Program_c, 1, 6
3, 120, Note_on_c, 1, 69, 64
3, 180, Note_on_c, 1, 69, 0
3, 180, Note_on_c, 1, 68, 64
3, 240, Note_on_c, 1, 68, 0
3, 240, Note_on_c, 1, 69, 64
3, 360, Note_on_c, 1, 69, 0
3, 360, Note_on_c, 1, 71, 64
3, 480, Note_on_c, 1, 71, 0
3, 480, Note_on_c, 1, 72, 64
3, 600, Note_on_c, 1, 72, 0
3, 600, Note_on_c, 1, 72, 64
3, 660, Note_on_c, 1, 72, 0
3, 660, Note_on_c, 1, 71, 64
3, 720, Note_on_c, 1, 71, 0
3, 720, Note_on_c, 1, 72, 64
3, 840, Note_on_c, 1, 72, 0
3, 840, Note_on_c, 1, 74, 64
3, 960, Note_on_c, 1, 74, 0
3, 960, Note_on_c, 1, 76, 64
3, 1020, Note_on_c, 1, 76, 0
3, 1020, Note_on_c, 1, 74, 64
3, 1080, Note_on_c, 1, 74, 0
3, 1080, Note_on_c, 1, 72, 64
3, 1140, Note_on_c, 1, 72, 0
3, 1140, Note_on_c, 1, 74, 64
3, 1200, Note_on_c, 1, 74, 0
3, 1200, Note_on_c, 1, 76, 64
3, 1320, Note_on_c, 1, 76, 0
3, 1320, Note_on_c, 1, 77, 64
3, 1440, Note_on_c, 1, 77, 0
3, 1440, Note_on_c, 1, 68, 64
3, 1560, Note_on_c, 1, 68, 0
3, 1560, Note_on_c, 1, 64, 64
3, 1680, Note_on_c, 1, 64, 0
3, 1800, Note_on_c, 1, 69, 64
3, 1920, Note_on_c, 1, 69, 0
3, 1920, Note_on_c, 1, 71, 64
3, 1980, Note_on_c, 1, 71, 0
3, 1980, Note_on_c, 1, 72, 64
3, 2040, Note_on_c, 1, 72, 0
3, 2040, Note_on_c, 1, 69, 64
3, 2100, Note_on_c, 1, 69, 0
3, 2100, Note_on_c, 1, 71, 64
3, 2160, Note_on_c, 1, 71, 0
3, 2160, Note_on_c, 1, 72, 64
3, 2220, Note_on_c, 1, 72, 0
3, 2220, Note_on_c, 1, 74, 64
3, 2280, Note_on_c, 1, 74, 0
3, 2280, Note_on_c, 1, 71, 64
3, 2340, Note_on_c, 1, 71, 0
3, 2340, Note_on_c, 1, 72, 64
3, 2400, Note_on_c, 1, 72, 0
3, 2400, Note_on_c, 1, 74, 64
3, 2520, Note_on_c, 1, 74, 0
3, 2520, Note_on_c, 1, 72, 64
3, 2640, Note_on_c, 1, 72, 0
3, 2640, Note_on_c, 1, 71, 64
3, 2760, Note_on_c, 1, 71, 0
3, 2760, Note_on_c, 1, 76, 64
3, 2880, Note_on_c, 1, 76, 0
3, 2880, Note_on_c, 1, 69, 64
3, 3120, Note_on_c, 1, 69, 0
3, 3120, Note_on_c, 1, 67, 64
3, 3240, Note_on_c, 1, 67, 0
3, 3240, Note_on_c, 1, 66, 64
3, 3360, Note_on_c, 1, 66, 0
3, 3360, Note_on_c, 1, 64, 64
3, 3480, Note_on_c, 1, 64, 0
3, 3480, Note_on_c, 1, 72, 64
3, 3600, Note_on_c, 1, 72, 0
3, 3600, Note_on_c, 1, 71, 64
3, 3720, Note_on_c, 1, 71, 0
3, 3720, Note_on_c, 1, 69, 64
3, 3840, Note_on_c, 1, 69, 0
3, 3840, Note_on_c, 1, 67, 64
3, 3900, Note_on_c, 1, 67, 0
3, 3900, Note_on_c, 1, 66, 64
3, 3960, Note_on_c, 1, 66, 0
3, 3960, Note_on_c, 1, 64, 64
3, 4020, Note_on_c, 1, 64, 0
3, 4020, Note_on_c, 1, 66, 64
3, 4080, Note_on_c, 1, 66, 0
3, 4080, Note_on_c, 1, 67, 64
3, 4200, Note_on_c, 1, 67, 0
3, 4200, Note_on_c, 1, 69, 64
3, 4320, Note_on_c, 1, 69, 0
3, 4320, Note_on_c, 1, 71, 64
3, 4380, Note_on_c, 1, 71, 0
3, 4380, Note_on_c, 1, 69, 64
3, 4440, Note_on_c, 1, 69, 0
3, 4440, Note_on_c, 1, 67, 64
3, 4500, Note_on_c, 1, 67, 0
3, 4500, Note_on_c, 1, 69, 64
3, 4560, Note_on_c, 1, 69, 0
3, 4560, Note_on_c, 1, 71, 64
3, 4680, Note_on_c, 1, 71, 0
3, 4680, Note_on_c, 1, 72, 64
3, 4920, Note_on_c, 1, 72, 0
3, 4920, Note_on_c, 1, 71, 64
3, 4980, Note_on_c, 1, 71, 0
3, 4980, Note_on_c, 1, 69, 64
3, 5040, Note_on_c, 1, 69, 0
3, 5040, Note_on_c, 1, 71, 64
3, 5160, Note_on_c, 1, 71, 0
3, 5160, Note_on_c, 1, 76, 64
3, 5400, Note_on_c, 1, 76, 0
3, 5400, Note_on_c, 1, 74, 64
3, 5460, Note_on_c, 1, 74, 0
3, 5460, Note_on_c, 1, 73, 64
3, 5520, Note_on_c, 1, 73, 0
3, 5520, Note_on_c, 1, 74, 64
3, 5880, Note_on_c, 1, 74, 0
3, 5880, Note_on_c, 1, 72, 64
3, 5940, Note_on_c, 1, 72, 0
3, 5940, Note_on_c, 1, 71, 64
3, 6000, Note_on_c, 1, 71, 0
3, 6000, Note_on_c, 1, 72, 64
3, 6300, Note_on_c, 1, 72, 0
3, 6300, Note_on_c, 1, 81, 64
3, 6360, Note_on_c, 1, 81, 0
3, 6360, Note_on_c, 1, 79, 64
3, 6420, Note_on_c, 1, 79, 0
3, 6420, Note_on_c, 1, 77, 64
3, 6480, Note_on_c, 1, 77, 0
3, 6480, Note_on_c, 1, 76, 64
3, 6540, Note_on_c, 1, 76, 0
3, 6540, Note_on_c, 1, 74, 64
3, 6600, Note_on_c, 1, 74, 0
3, 6600, Note_on_c, 1, 72, 64
3, 6660, Note_on_c, 1, 72, 0
3, 6660, Note_on_c, 1, 71, 64
3, 6720, Note_on_c, 1, 71, 0
3, 6720, Note_on_c, 1, 72, 64
3, 6780, Note_on_c, 1, 72, 0
3, 6780, Note_on_c, 1, 71, 64
3, 6840, Note_on_c, 1, 71, 0
3, 6840, Note_on_c, 1, 72, 64
3, 7080, Note_on_c, 1, 72, 0
3, 7080, Note_on_c, 1, 74, 64
3, 7200, Note_on_c, 1, 74, 0
3, 7260, Note_on_c, 1, 62, 64
3, 7320, Note_on_c, 1, 62, 0
3, 7320, Note_on_c, 1, 64, 64
3, 7560, Note_on_c, 1, 64, 0
3, 7560, Note_on_c, 1, 65, 64
3, 7740, Note_on_c, 1, 65, 0
3, 7740, Note_on_c, 1, 66, 64
3, 7800, Note_on_c, 1, 66, 0
3, 7800, Note_on_c, 1, 64, 64
3, 7860, Note_on_c, 1, 64, 0
3, 7860, Note_on_c, 1, 66, 64
3, 7920, Note_on_c, 1, 66, 0
3, 7920, Note_on_c, 1, 68, 64
3, 8040, Note_on_c, 1, 68, 0
3, 8040, Note_on_c, 1, 69, 64
3, 8160, Note_on_c, 1, 69, 0
3, 8160, Note_on_c, 1, 71, 64
3, 8400, Note_on_c, 1, 71, 0
3, 8520, Note_on_c, 1, 69, 64
3, 8640, Note_on_c, 1, 69, 0
3, 8640, Note_on_c, 1, 67, 64
3, 8940, Note_on_c, 1, 67, 0
3, 8940, Note_on_c, 1, 65, 64
3, 9000, Note_on_c, 1, 65, 0
3, 9000, Note_on_c, 1, 64, 64
3, 9060, Note_on_c, 1, 64, 0
3, 9060, Note_on_c, 1, 67, 64
3, 9120, Note_on_c, 1, 67, 0
3, 9120, Note_on_c, 1, 66, 64
3, 9360, Note_on_c, 1, 66, 0
3, 9360, Note_on_c, 1, 68, 64
3, 9600, Note_on_c, 1, 68, 0
3, 9600, Note_on_c, 1, 69, 64
3, 9720, Note_on_c, 1, 69, 0
3, 9720, Note_on_c, 1, 69, 64
3, 9840, Note_on_c, 1, 69, 0
3, 9840, Note_on_c, 1, 67, 64
3, 9960, Note_on_c, 1, 67, 0
3, 9960, Note_on_c, 1, 66, 64
3, 10080, Note_on_c, 1, 66, 0
3, 10080, Note_on_c, 1, 64, 64
3, 10200, Note_on_c, 1, 64, 0
3, 10200, Note_on_c, 1, 72, 64
3, 10320, Note_on_c, 1, 72, 0
3, 10320, Note_on_c, 1, 71, 64
3, 10440, Note_on_c, 1, 71, 0
3, 10440, Note_on_c, 1, 69, 64
3, 10560, Note_on_c, 1, 69, 0
3, 10560, Note_on_c, 1, 67, 64
3, 10620, Note_on_c, 1, 67, 0
3, 10620, Note_on_c, 1, 66, 64
3, 10680, Note_on_c, 1, 66, 0
3, 10680, Note_on_c, 1, 64, 64
3, 10740, Note_on_c, 1, 64, 0
3, 10740, Note_on_c, 1, 66, 64
3, 10800, Note_on_c, 1, 66, 0
3, 10800, Note_on_c, 1, 67, 64
3, 10920, Note_on_c, 1, 67, 0
3, 10920, Note_on_c, 1, 66, 64
3, 11160, Note_on_c, 1, 66, 0
3, 11160, Note_on_c, 1, 64, 64
3, 11220, Note_on_c, 1, 64, 0
3, 11220, Note_on_c, 1, 63, 64
3, 11280, Note_on_c, 1, 63, 0
3, 11280, Note_on_c, 1, 64, 64
3, 11640, Note_on_c, 1, 64, 0
3, 11640, Note_on_c, 1, 69, 64
3, 11700, Note_on_c, 1, 69, 0
3, 11700, Note_on_c, 1, 63, 64
3, 11760, Note_on_c, 1, 63, 0
3, 11760, Note_on_c, 1, 64, 64
3, 12360, Note_on_c, 1, 64, 0
3, 12360, Note_on_c, 1, 63, 64
3, 12480, Note_on_c, 1, 63, 0
3, 12480, Note_on_c, 1, 64, 64
3, 12840, Note_on_c, 1, 64, 0
3, 12840, Note_on_c, 1, 63, 64
3, 12960, Note_on_c, 1, 63, 0
3, 12960, Note_on_c, 1, 64, 64
3, 13080, Note_on_c, 1, 64, 0
3, 13560, Note_on_c, 1, 64, 64
3, 13680, Note_on_c, 1, 64, 0
3, 13680, Note_on_c, 1, 66, 64
3, 13800, Note_on_c, 1, 66, 0
3, 13800, Note_on_c, 1, 67, 64
3, 13920, Note_on_c, 1, 67, 0
3, 13920, Note_on_c, 1, 69, 64
3, 14040, Note_on_c, 1, 69, 0
3, 14520, Note_on_c, 1, 62, 64
3, 14640, Note_on_c, 1, 62, 0
3, 14640, Note_on_c, 1, 64, 64
3, 14760, Note_on_c, 1, 64, 0
3, 14760, Note_on_c, 1, 66, 64
3, 14880, Note_on_c, 1, 66, 0
3, 14880, Note_on_c, 1, 67, 64
3, 15000, Note_on_c, 1, 67, 0
3, 15960, Note_on_c, 1, 74, 64
3, 16020, Note_on_c, 1, 74, 0
3, 16020, Note_on_c, 1, 76, 64
3, 16080, Note_on_c, 1, 76, 0
3, 16080, Note_on_c, 1, 74, 64
3, 16200, Note_on_c, 1, 74, 0
3, 16200, Note_on_c, 1, 72, 64
3, 16320, Note_on_c, 1, 72, 0
3, 16320, Note_on_c, 1, 71, 64
3, 16440, Note_on_c, 1, 71, 0
3, 16440, Note_on_c, 1, 71, 64
3, 16500, Note_on_c, 1, 71, 0
3, 16500, Note_on_c, 1, 72, 64
3, 16560, Note_on_c, 1, 72, 0
3, 16560, Note_on_c, 1, 71, 64
3, 16680, Note_on_c, 1, 71, 0
3, 16680, Note_on_c, 1, 69, 64
3, 16800, Note_on_c, 1, 69, 0
3, 16800, Note_on_c, 1, 67, 64
3, 17040, Note_on_c, 1, 67, 0
3, 17040, Note_on_c, 1, 69, 64
3, 17160, Note_on_c, 1, 69, 0
3, 17160, Note_on_c, 1, 71, 64
3, 17280, Note_on_c, 1, 71, 0
3, 17280, Note_on_c, 1, 72, 64
3, 17520, Note_on_c, 1, 72, 0
3, 17640, Note_on_c, 1, 74, 64
3, 17760, Note_on_c, 1, 74, 0
3, 17760, Note_on_c, 1, 73, 64
3, 17940, Note_on_c, 1, 73, 0
3, 17940, Note_on_c, 1, 74, 64
3, 18000, Note_on_c, 1, 74, 0
3, 18000, Note_on_c, 1, 76, 64
3, 18300, Note_on_c, 1, 76, 0
3, 18300, Note_on_c, 1, 73, 64
3, 18360, Note_on_c, 1, 73, 0
3, 18360, Note_on_c, 1, 74, 64
3, 18540, Note_on_c, 1, 74, 0
3, 18540, Note_on_c, 1, 71, 64
3, 18600, Note_on_c, 1, 71, 0
3, 18600, Note_on_c, 1, 73, 64
3, 18720, Note_on_c, 1, 73, 0
3, 18720, Note_on_c, 1, 74, 64
3, 18960, Note_on_c, 1, 74, 0
3, 19080, Note_on_c, 1, 65, 64
3, 19200, Note_on_c, 1, 65, 0
3, 19200, Note_on_c, 1, 67, 64
3, 19260, Note_on_c, 1, 67, 0
3, 19260, Note_on_c, 1, 73, 64
3, 19320, Note_on_c, 1, 73, 0
3, 19320, Note_on_c, 1, 74, 64
3, 19380, Note_on_c, 1, 74, 0
3, 19380, Note_on_c, 1, 76, 64
3, 19440, Note_on_c, 1, 76, 0
3, 19440, Note_on_c, 1, 73, 64
3, 19680, Note_on_c, 1, 73, 0
3, 19800, Note_on_c, 1, 69, 64
3, 19860, Note_on_c, 1, 69, 0
3, 19860, Note_on_c, 1, 70, 64
3, 19920, Note_on_c, 1, 70, 0
3, 19920, Note_on_c, 1, 69, 64
3, 20040, Note_on_c, 1, 69, 0
3, 20040, Note_on_c, 1, 67, 64
3, 20160, Note_on_c, 1, 67, 0
3, 20160, Note_on_c, 1, 65, 64
3, 20280, Note_on_c, 1, 65, 0
3, 20280, Note_on_c, 1, 69, 64
3, 20400, Note_on_c, 1, 69, 0
3, 20400, Note_on_c, 1, 71, 64
3, 20520, Note_on_c, 1, 71, 0
3, 20520, Note_on_c, 1, 72, 64
3, 20640, Note_on_c, 1, 72, 0
3, 20640, Note_on_c, 1, 74, 64
3, 20700, Note_on_c, 1, 74, 0
3, 20700, Note_on_c, 1, 72, 64
3, 20760, Note_on_c, 1, 72, 0
3, 20760, Note_on_c, 1, 71, 64
3, 20820, Note_on_c, 1, 71, 0
3, 20820, Note_on_c, 1, 69, 64
3, 20880, Note_on_c, 1, 69, 0
3, 20880, Note_on_c, 1, 67, 64
3, 21000, Note_on_c, 1, 67, 0
3, 21000, Note_on_c, 1, 65, 64
3, 21240, Note_on_c, 1, 65, 0
3, 21240, Note_on_c, 1, 64, 64
3, 21360, Note_on_c, 1, 64, 0
3, 21360, Note_on_c, 1, 62, 64
3, 21600, Note_on_c, 1, 62, 0
3, 21660, Note_on_c, 1, 69, 64
3, 21720, Note_on_c, 1, 69, 0
3, 21720, Note_on_c, 1, 67, 64
3, 21780, Note_on_c, 1, 67, 0
3, 21780, Note_on_c, 1, 65, 64
3, 21840, Note_on_c, 1, 65, 0
3, 21840, Note_on_c, 1, 64, 64
3, 21960, Note_on_c, 1, 64, 0
3, 21960, Note_on_c, 1, 67, 64
3, 22200, Note_on_c, 1, 67, 0
3, 22200, Note_on_c, 1, 65, 64
3, 22260, Note_on_c, 1, 65, 0
3, 22260, Note_on_c, 1, 67, 64
3, 22320, Note_on_c, 1, 67, 0
3, 22320, Note_on_c, 1, 65, 64
3, 22440, Note_on_c, 1, 65, 0
3, 22440, Note_on_c, 1, 64, 64
3, 22560, Note_on_c, 1, 64, 0
3, 22560, Note_on_c, 1, 62, 64
3, 22680, Note_on_c, 1, 62, 0
3, 22680, Note_on_c, 1, 62, 64
3, 22740, Note_on_c, 1, 62, 0
3, 22740, Note_on_c, 1, 64, 64
3, 22800, Note_on_c, 1, 64, 0
3, 22800, Note_on_c, 1, 62, 64
3, 22920, Note_on_c, 1, 62, 0
3, 22920, Note_on_c, 1, 60, 64
3, 23040, Note_on_c, 1, 60, 0
3, 23040, Note_on_c, 1, 59, 64
3, 23100, Note_on_c, 1, 59, 0
3, 23100, Note_on_c, 1, 60, 64
3, 23160, Note_on_c, 1, 60, 0
3, 23160, Note_on_c, 1, 62, 64
3, 23220, Note_on_c, 1, 62, 0
3, 23220, Note_on_c, 1, 60, 64
3, 23280, Note_on_c, 1, 60, 0
3, 23280, Note_on_c, 1, 59, 64
3, 23400, Note_on_c, 1, 59, 0
3, 23400, Note_on_c, 1, 57, 64
3, 23520, Note_on_c, 1, 57, 0
3, 23520, Note_on_c, 1, 68, 64
3, 23640, Note_on_c, 1, 68, 0
3, 23640, Note_on_c, 1, 71, 64
3, 23760, Note_on_c, 1, 71, 0
3, 23880, Note_on_c, 1, 65, 64
3, 24000, Note_on_c, 1, 65, 0
3, 24000, Note_on_c, 1, 64, 64
3, 24060, Note_on_c, 1, 64, 0
3, 24060, Note_on_c, 1, 62, 64
3, 24120, Note_on_c, 1, 62, 0
3, 24120, Note_on_c, 1, 65, 64
3, 24180, Note_on_c, 1, 65, 0
3, 24180, Note_on_c, 1, 64, 64
3, 24240, Note_on_c, 1, 64, 0
3, 24240, Note_on_c, 1, 62, 64
3, 24300, Note_on_c, 1, 62, 0
3, 24300, Note_on_c, 1, 60, 64
3, 24360, Note_on_c, 1, 60, 0
3, 24360, Note_on_c, 1, 64, 64
3, 24420, Note_on_c, 1, 64, 0
3, 24420, Note_on_c, 1, 62, 64
3, 24480, Note_on_c, 1, 62, 0
3, 24480, Note_on_c, 1, 60, 64
3, 24600, Note_on_c, 1, 60, 0
3, 24600, Note_on_c, 1, 62, 64
3, 24720, Note_on_c, 1, 62, 0
3, 24720, Note_on_c, 1, 64, 64
3, 24780, Note_on_c, 1, 64, 0
3, 24780, Note_on_c, 1, 60, 64
3, 24840, Note_on_c, 1, 60, 0
3, 24840, Note_on_c, 1, 59, 64
3, 24900, Note_on_c, 1, 59, 0
3, 24900, Note_on_c, 1, 57, 64
3, 24960, Note_on_c, 1, 57, 0
3, 24960, Note_on_c, 1, 65, 64
3, 25020, Note_on_c, 1, 65, 0
3, 25020, Note_on_c, 1, 62, 64
3, 25080, Note_on_c, 1, 62, 0
3, 25080, Note_on_c, 1, 64, 64
3, 25140, Note_on_c, 1, 64, 0
3, 25140, Note_on_c, 1, 65, 64
3, 25200, Note_on_c, 1, 65, 0
3, 25200, Note_on_c, 1, 59, 64
3, 25380, Note_on_c, 1, 59, 0
3, 25380, Note_on_c, 1, 57, 64
3, 25430, Note_on_c, 1, 57, 0
3, 25440, Note_on_c, 1, 57, 64
3, 25560, Note_on_c, 1, 57, 0
3, 29400, Note_on_c, 1, 64, 64
3, 29460, Note_on_c, 1, 64, 0
3, 29460, Note_on_c, 1, 63, 64
3, 29520, Note_on_c, 1, 63, 0
3, 29520, Note_on_c, 1, 64, 64
3, 29640, Note_on_c, 1, 64, 0
3, 29640, Note_on_c, 1, 66, 64
3, 29760, Note_on_c, 1, 66, 0
3, 29760, Note_on_c, 1, 67, 64
3, 29880, Note_on_c, 1, 67, 0
3, 29880, Note_on_c, 1, 67, 64
3, 29940, Note_on_c, 1, 67, 0
3, 29940, Note_on_c, 1, 66, 64
3, 30000, Note_on_c, 1, 66, 0
3, 30000, Note_on_c, 1, 67, 64
3, 30120, Note_on_c, 1, 67, 0
3, 30120, Note_on_c, 1, 69, 64
3, 30240, Note_on_c, 1, 69, 0
3, 30300, Note_on_c, 1, 69, 64
3, 30360, Note_on_c, 1, 69, 0
3, 30360, Note_on_c, 1, 67, 64
3, 30420, Note_on_c, 1, 67, 0
3, 30420, Note_on_c, 1, 69, 64
3, 30480, Note_on_c, 1, 69, 0
3, 30480, Note_on_c, 1, 71, 64
3, 30600, Note_on_c, 1, 71, 0
3, 30600, Note_on_c, 1, 72, 64
3, 30720, Note_on_c, 1, 72, 0
3, 30720, Note_on_c, 1, 63, 64
3, 30840, Note_on_c, 1, 63, 0
3, 30840, Note_on_c, 1, 59, 64
3, 30960, Note_on_c, 1, 59, 0
3, 31080, Note_on_c, 1, 64, 64
3, 31200, Note_on_c, 1, 64, 0
3, 31200, Note_on_c, 1, 66, 64
3, 31260, Note_on_c, 1, 66, 0
3, 31260, Note_on_c, 1, 67, 64
3, 31320, Note_on_c, 1, 67, 0
3, 31320, Note_on_c, 1, 64, 64
3, 31380, Note_on_c, 1, 64, 0
3, 31380, Note_on_c, 1, 66, 64
3, 31440, Note_on_c, 1, 66, 0
3, 31440, Note_on_c, 1, 67, 64
3, 31500, Note_on_c, 1, 67, 0
3, 31500, Note_on_c, 1, 69, 64
3, 31560, Note_on_c, 1, 69, 0
3, 31560, Note_on_c, 1, 66, 64
3, 31620, Note_on_c, 1, 66, 0
3, 31620, Note_on_c, 1, 67, 64
3, 31680, Note_on_c, 1, 67, 0
3, 31680, Note_on_c, 1, 69, 64
3, 31800, Note_on_c, 1, 69, 0
3, 31800, Note_on_c, 1, 67, 64
3, 31920, Note_on_c, 1, 67, 0
3, 31920, Note_on_c, 1, 66, 64
3, 32040, Note_on_c, 1, 66, 0
3, 32040, Note_on_c, 1, 71, 64
3, 32160, Note_on_c, 1, 71, 0
3, 32160, Note_on_c, 1, 64, 64
3, 32520, Note_on_c, 1, 64, 0
3, 32520, Note_on_c, 1, 63, 64
3, 32640, Note_on_c, 1, 63, 0
3, 32640, Note_on_c, 1, 64, 64
3, 32760, Note_on_c, 1, 64, 0
3, 32760, Note_on_c, 1, 72, 64
3, 32820, Note_on_c, 1, 72, 0
3, 32820, Note_on_c, 1, 71, 64
3, 32880, Note_on_c, 1, 71, 0
3, 32880, Note_on_c, 1, 69, 64
3, 32940, Note_on_c, 1, 69, 0
3, 32940, Note_on_c, 1, 67, 64
3, 33000, Note_on_c, 1, 67, 0
3, 33000, Note_on_c, 1, 66, 64
3, 33060, Note_on_c, 1, 66, 0
3, 33060, Note_on_c, 1, 64, 64
3, 33120, Note_on_c, 1, 64, 0
3, 33120, Note_on_c, 1, 62, 64
3, 33240, Note_on_c, 1, 62, 0
3, 33240, Note_on_c, 1, 67, 64
3, 33300, Note_on_c, 1, 67, 0
3, 33300, Note_on_c, 1, 65, 64
3, 33360, Note_on_c, 1, 65, 0
3, 33360, Note_on_c, 1, 64, 64
3, 33420, Note_on_c, 1, 64, 0
3, 33420, Note_on_c, 1, 62, 64
3, 33480, Note_on_c, 1, 62, 0
3, 33480, Note_on_c, 1, 61, 64
3, 33540, Note_on_c, 1, 61, 0
3, 33540, Note_on_c, 1, 59, 64
3, 33600, Note_on_c, 1, 59, 0
3, 33600, Note_on_c, 1, 57, 64
3, 33720, Note_on_c, 1, 57, 0
3, 33720, Note_on_c, 1, 74, 64
3, 33780, Note_on_c, 1, 74, 0
3, 33780, Note_on_c, 1, 72, 64
3, 33840, Note_on_c, 1, 72, 0
3, 33840, Note_on_c, 1, 71, 64
3, 33900, Note_on_c, 1, 71, 0
3, 33900, Note_on_c, 1, 69, 64
3, 33960, Note_on_c, 1, 69, 0
3, 33960, Note_on_c, 1, 68, 64
3, 34020, Note_on_c, 1, 68, 0
3, 34020, Note_on_c, 1, 66, 64
3, 34080, Note_on_c, 1, 66, 0
3, 34080, Note_on_c, 1, 64, 64
3, 34320, Note_on_c, 1, 64, 0
3, 34320, Note_on_c, 1, 69, 64
3, 34560, Note_on_c, 1, 69, 0
3, 34740, Note_on_c, 1, 68, 64
3, 34800, Note_on_c, 1, 68, 0
3, 34800, Note_on_c, 1, 69, 64
3, 34920, Note_on_c, 1, 69, 0
3, 34920, Note_on_c, 1, 71, 64
3, 35040, Note_on_c, 1, 71, 0
3, 35040, Note_on_c, 1, 72, 64
3, 35160, Note_on_c, 1, 72, 0
3, 35160, Note_on_c, 1, 72, 64
3, 35220, Note_on_c, 1, 72, 0
3, 35220, Note_on_c, 1, 71, 64
3, 35280, Note_on_c, 1, 71, 0
3, 35280, Note_on_c, 1, 72, 64
3, 35400, Note_on_c, 1, 72, 0
3, 35400, Note_on_c, 1, 74, 64
3, 35520, Note_on_c, 1, 74, 0
3, 35580, Note_on_c, 1, 74, 64
3, 35640, Note_on_c, 1, 74, 0
3, 35640, Note_on_c, 1, 72, 64
3, 35700, Note_on_c, 1, 72, 0
3, 35700, Note_on_c, 1, 74, 64
3, 35760, Note_on_c, 1, 74, 0
3, 35760, Note_on_c, 1, 76, 64
3, 35880, Note_on_c, 1, 76, 0
3, 35880, Note_on_c, 1, 77, 64
3, 36000, Note_on_c, 1, 77, 0
3, 36000, Note_on_c, 1, 68, 64
3, 36120, Note_on_c, 1, 68, 0
3, 36120, Note_on_c, 1, 64, 64
3, 36240, Note_on_c, 1, 64, 0
3, 36360, Note_on_c, 1, 69, 64
3, 36480, Note_on_c, 1, 69, 0
3, 36480, Note_on_c, 1, 71, 64
3, 36540, Note_on_c, 1, 71, 0
3, 36540, Note_on_c, 1, 72, 64
3, 36600, Note_on_c, 1, 72, 0
3, 36600, Note_on_c, 1, 69, 64
3, 36660, Note_on_c, 1, 69, 0
3, 36660, Note_on_c, 1, 71, 64
3, 36720, Note_on_c, 1, 71, 0
3, 36720, Note_on_c, 1, 72, 64
3, 36780, Note_on_c, 1, 72, 0
3, 36780, Note_on_c, 1, 74, 64
3, 36840, Note_on_c, 1, 74, 0
3, 36840, Note_on_c, 1, 71, 64
3, 36900, Note_on_c, 1, 71, 0
3, 36900, Note_on_c, 1, 72, 64
3, 36960, Note_on_c, 1, 72, 0
3, 36960, Note_on_c, 1, 74, 64
3, 37080, Note_on_c, 1, 74, 0
3, 37080, Note_on_c, 1, 72, 64
3, 37200, Note_on_c, 1, 72, 0
3, 37200, Note_on_c, 1, 71, 64
3, 37320, Note_on_c, 1, 71, 0
3, 37320, Note_on_c, 1, 76, 64
3, 37440, Note_on_c, 1, 76, 0
3, 37440, Note_on_c, 1, 69, 64
3, 37740, Note_on_c, 1, 69, 0
3, 37740, Note_on_c, 1, 77, 64
3, 37800, Note_on_c, 1, 77, 0
3, 37800, Note_on_c, 1, 74, 64
3, 37860, Note_on_c, 1, 74, 0
3, 37860, Note_on_c, 1, 71, 64
3, 37920, Note_on_c, 1, 71, 0
3, 37920, Note_on_c, 1, 67, 64
3, 38220, Note_on_c, 1, 67, 0
3, 38220, Note_on_c, 1, 76, 64
3, 38280, Note_on_c, 1, 76, 0
3, 38280, Note_on_c, 1, 72, 64
3, 38340, Note_on_c, 1, 72, 0
3, 38340, Note_on_c, 1, 69, 64
3, 38400, Note_on_c, 1, 69, 0
3, 38400, Note_on_c, 1, 65, 64
3, 38520, Note_on_c, 1, 65, 0
3, 38520, Note_on_c, 1, 67, 64
3, 38580, Note_on_c, 1, 67, 0
3, 38580, Note_on_c, 1, 69, 64
3, 38640, Note_on_c, 1, 69, 0
3, 38640, Note_on_c, 1, 67, 64
3, 38700, Note_on_c, 1, 67, 0
3, 38700, Note_on_c, 1, 65, 64
3, 38760, Note_on_c, 1, 65, 0
3, 38760, Note_on_c, 1, 64, 64
3, 38820, Note_on_c, 1, 64, 0
3, 38820, Note_on_c, 1, 65, 64
3, 38880, Note_on_c, 1, 65, 0
3, 38880, Note_on_c, 1, 64, 64
3, 39420, Note_on_c, 1, 64, 0
3, 39420, Note_on_c, 1, 62, 64
3, 39480, Note_on_c, 1, 62, 0
3, 39480, Note_on_c, 1, 64, 64
3, 39540, Note_on_c, 1, 64, 0
3, 39540, Note_on_c, 1, 65, 64
3, 39600, Note_on_c, 1, 65, 0
3, 39600, Note_on_c, 1, 67, 64
3, 39660, Note_on_c, 1, 67, 0
3, 39660, Note_on_c, 1, 69, 64
3, 39720, Note_on_c, 1, 69, 0
3, 39720, Note_on_c, 1, 71, 64
3, 39780, Note_on_c, 1, 71, 0
3, 39780, Note_on_c, 1, 72, 64
3, 39840, Note_on_c, 1, 72, 0
3, 39840, Note_on_c, 1, 62, 64
3, 39900, Note_on_c, 1, 62, 0
3, 39900, Note_on_c, 1, 64, 64
3, 39960, Note_on_c, 1, 64, 0
3, 39960, Note_on_c, 1, 62, 64
3, 40020, Note_on_c, 1, 62, 0
3, 40020, Note_on_c, 1, 64, 64
3, 40080, Note_on_c, 1, 64, 0
3, 40080, Note_on_c, 1, 65, 64
3, 40380, Note_on_c, 1, 65, 0
3, 40380, Note_on_c, 1, 69, 64
3, 40440, Note_on_c, 1, 69, 0
3, 40440, Note_on_c, 1, 67, 64
3, 40500, Note_on_c, 1, 67, 0
3, 40500, Note_on_c, 1, 65, 64
3, 40560, Note_on_c, 1, 65, 0
3, 40560, Note_on_c, 1, 64, 64
3, 40680, Note_on_c, 1, 64, 0
3, 40680, Note_on_c, 1, 69, 64
3, 40800, Note_on_c, 1, 69, 0
3, 40800, Note_on_c, 1, 67, 64
3, 41400, Note_on_c, 1, 67, 0
3, 41400, Note_on_c, 1, 72, 64
3, 41520, Note_on_c, 1, 72, 0
3, 41520, Note_on_c, 1, 71, 64
3, 41640, Note_on_c, 1, 71, 0
3, 41640, Note_on_c, 1, 69, 64
3, 41760, Note_on_c, 1, 69, 0
3, 41760, Note_on_c, 1, 67, 64
3, 41880, Note_on_c, 1, 67, 0
3, 42000, Note_on_c, 1, 65, 64
3, 42120, Note_on_c, 1, 65, 0
3, 42120, Note_on_c, 1, 64, 64
3, 42240, Note_on_c, 1, 64, 0
3, 42240, Note_on_c, 1, 62, 64
3, 42300, Note_on_c, 1, 62, 0
3, 42300, Note_on_c, 1, 67, 64
3, 42360, Note_on_c, 1, 67, 0
3, 42360, Note_on_c, 1, 69, 64
3, 42420, Note_on_c, 1, 69, 0
3, 42420, Note_on_c, 1, 71, 64
3, 42480, Note_on_c, 1, 71, 0
3, 42480, Note_on_c, 1, 72, 64
3, 42960, Note_on_c, 1, 72, 0
3, 42960, Note_on_c, 1, 71, 64
3, 43080, Note_on_c, 1, 71, 0
3, 43080, Note_on_c, 1, 70, 64
3, 43200, Note_on_c, 1, 70, 0
3, 43200, Note_on_c, 1, 69, 64
3, 43320, Note_on_c, 1, 69, 0
3, 44040, Note_on_c, 1, 62, 64
3, 44220, Note_on_c, 1, 62, 0
3, 44220, Note_on_c, 1, 64, 64
3, 44280, Note_on_c, 1, 64, 0
3, 44280, Note_on_c, 1, 60, 64
3, 44340, Note_on_c, 1, 60, 0
3, 44340, Note_on_c, 1, 62, 64
3, 44400, Note_on_c, 1, 62, 0
3, 44400, Note_on_c, 1, 64, 64
3, 44460, Note_on_c, 1, 64, 0
3, 44460, Note_on_c, 1, 65, 64
3, 44520, Note_on_c, 1, 65, 0
3, 44520, Note_on_c, 1, 62, 64
3, 44580, Note_on_c, 1, 62, 0
3, 44580, Note_on_c, 1, 64, 64
3, 44640, Note_on_c, 1, 64, 0
3, 44640, Note_on_c, 1, 65, 64
3, 44760, Note_on_c, 1, 65, 0
3, 44760, Note_on_c, 1, 64, 64
3, 44880, Note_on_c, 1, 64, 0
3, 44880, Note_on_c, 1, 62, 64
3, 45000, Note_on_c, 1, 62, 0
3, 45000, Note_on_c, 1, 67, 64
3, 45120, Note_on_c, 1, 67, 0
3, 45120, Note_on_c, 1, 64, 64
3, 45180, Note_on_c, 1, 64, 0
3, 45180, Note_on_c, 1, 65, 64
3, 45240, Note_on_c, 1, 65, 0
3, 45240, Note_on_c, 1, 64, 64
3, 45300, Note_on_c, 1, 64, 0
3, 45300, Note_on_c, 1, 62, 64
3, 45360, Note_on_c, 1, 62, 0
3, 45360, Note_on_c, 1, 60, 64
3, 45420, Note_on_c, 1, 60, 0
3, 45420, Note_on_c, 1, 59, 64
3, 45480, Note_on_c, 1, 59, 0
3, 45480, Note_on_c, 1, 57, 64
3, 45540, Note_on_c, 1, 57, 0
3, 45540, Note_on_c, 1, 56, 64
3, 45600, Note_on_c, 1, 56, 0
3, 45600, Note_on_c, 1, 57, 64
3, 45720, Note_on_c, 1, 57, 0
3, 45720, Note_on_c, 1, 69, 64
3, 45780, Note_on_c, 1, 69, 0
3, 45780, Note_on_c, 1, 70, 64
3, 45840, Note_on_c, 1, 70, 0
3, 45840, Note_on_c, 1, 69, 64
3, 45960, Note_on_c, 1, 69, 0
3, 45960, Note_on_c, 1, 67, 64
3, 46080, Note_on_c, 1, 67, 0
3, 46080, Note_on_c, 1, 65, 64
3, 46200, Note_on_c, 1, 65, 0
3, 46200, Note_on_c, 1, 65, 64
3, 46260, Note_on_c, 1, 65, 0
3, 46260, Note_on_c, 1, 67, 64
3, 46320, Note_on_c, 1, 67, 0
3, 46320, Note_on_c, 1, 65, 64
3, 46440, Note_on_c, 1, 65, 0
3, 46440, Note_on_c, 1, 64, 64
3, 46560, Note_on_c, 1, 64, 0
3, 46560, Note_on_c, 1, 62, 64
3, 46620, Note_on_c, 1, 62, 0
3, 46620, Note_on_c, 1, 64, 64
3, 46680, Note_on_c, 1, 64, 0
3, 46680, Note_on_c, 1, 65, 64
3, 46740, Note_on_c, 1, 65, 0
3, 46740, Note_on_c, 1, 64, 64
3, 46800, Note_on_c, 1, 64, 0
3, 46800, Note_on_c, 1, 62, 64
3, 46920, Note_on_c, 1, 62, 0
3, 46920, Note_on_c, 1, 60, 64
3, 47040, Note_on_c, 1, 60, 0
3, 47040, Note_on_c, 1, 71, 64
3, 47160, Note_on_c, 1, 71, 0
3, 47160, Note_on_c, 1, 74, 64
3, 47280, Note_on_c, 1, 74, 0
3, 47400, Note_on_c, 1, 69, 64
3, 47520, Note_on_c, 1, 69, 0
3, 47520, Note_on_c, 1, 67, 64
3, 47580, Note_on_c, 1, 67, 0
3, 47580, Note_on_c, 1, 65, 64
3, 47640, Note_on_c, 1, 65, 0
3, 47640, Note_on_c, 1, 69, 64
3, 47700, Note_on_c, 1, 69, 0
3, 47700, Note_on_c, 1, 67, 64
3, 47760, Note_on_c, 1, 67, 0
3, 47760, Note_on_c, 1, 65, 64
3, 47820, Note_on_c, 1, 65, 0
3, 47820, Note_on_c, 1, 64, 64
3, 47880, Note_on_c, 1, 64, 0
3, 47880, Note_on_c, 1, 67, 64
3, 47940, Note_on_c, 1, 67, 0
3, 47940, Note_on_c, 1, 65, 64
3, 48000, Note_on_c, 1, 65, 0
3, 48000, Note_on_c, 1, 64, 64
3, 48120, Note_on_c, 1, 64, 0
3, 48120, Note_on_c, 1, 65, 64
3, 48240, Note_on_c, 1, 65, 0
3, 48240, Note_on_c, 1, 67, 64
3, 48360, Note_on_c, 1, 67, 0
3, 48360, Note_on_c, 1, 62, 64
3, 48480, Note_on_c, 1, 62, 0
3, 48480, Note_on_c, 1, 69, 64
3, 48540, Note_on_c, 1, 69, 0
3, 48540, Note_on_c, 1, 71, 64
3, 48600, Note_on_c, 1, 71, 0
3, 48600, Note_on_c, 1, 69, 64
3, 48660, Note_on_c, 1, 69, 0
3, 48660, Note_on_c, 1, 71, 64
3, 48720, Note_on_c, 1, 71, 0
3, 48720, Note_on_c, 1, 72, 70
3, 48740, Note_on_c, 1, 72, 0
3, 48740, Note_on_c, 1, 71, 50
3, 48760, Note_on_c, 1, 71, 0
3, 48760, Note_on_c, 1, 72, 52
3, 48780, Note_on_c, 1, 72, 0
3, 48780, Note_on_c, 1, 71, 54
3, 48800, Note_on_c, 1, 71, 0
3, 48800, Note_on_c, 1, 72, 57
3, 48820, Note_on_c, 1, 72, 0
3, 48820, Note_on_c, 1, 71, 59
3, 48840, Note_on_c, 1, 71, 0
3, 48840, Note_on_c, 1, 72, 61
3, 48860, Note_on_c, 1, 72, 0
3, 48860, Note_on_c, 1, 71, 63
3, 48900, Note_on_c, 1, 71, 0
3, 48900, Note_on_c, 1, 69, 64
3, 48930, Note_on_c, 1, 69, 0
3, 48930, Note_on_c, 1, 71, 64
3, 48960, Note_on_c, 1, 71, 0
3, 48960, Note_on_c, 1, 72, 64
3, 49020, Note_on_c, 1, 72, 0
3, 49020, Note_on_c, 1, 74, 64
3, 49080, Note_on_c, 1, 74, 0
3, 49080, Note_on_c, 1, 72, 64
3, 49140, Note_on_c, 1, 72, 0
3, 49140, Note_on_c, 1, 74, 64
3, 49200, Note_on_c, 1, 74, 0
3, 49200, Note_on_c, 1, 76, 70
3, 49220, Note_on_c, 1, 76, 0
3, 49220, Note_on_c, 1, 74, 50
3, 49240, Note_on_c, 1, 74, 0
3, 49240, Note_on_c, 1, 76, 52
3, 49260, Note_on_c, 1, 76, 0
3, 49260, Note_on_c, 1, 74, 54
3, 49280, Note_on_c, 1, 74, 0
3, 49280, Note_on_c, 1, 76, 57
3, 49300, Note_on_c, 1, 76, 0
3, 49300, Note_on_c, 1, 74, 59
3, 49320, Note_on_c, 1, 74, 0
3, 49320, Note_on_c, 1, 76, 61
3, 49340, Note_on_c, 1, 76, 0
3, 49340, Note_on_c, 1, 74, 63
3, 49380, Note_on_c, 1, 74, 0
3, 49380, Note_on_c, 1, 72, 64
3, 49410, Note_on_c, 1, 72, 0
3, 49410, Note_on_c, 1, 74, 64
3, 49440, Note_on_c, 1, 74, 0
3, 49440, Note_on_c, 1, 76, 64
3, 49500, Note_on_c, 1, 76, 0
3, 49500, Note_on_c, 1, 74, 64
3, 49560, Note_on_c, 1, 74, 0
3, 49560, Note_on_c, 1, 72, 64
3, 49620, Note_on_c, 1, 72, 0
3, 49620, Note_on_c, 1, 71, 64
3, 49680, Note_on_c, 1, 71, 0
3, 49680, Note_on_c, 1, 69, 64
3, 49740, Note_on_c, 1, 69, 0
3, 49740, Note_on_c, 1, 67, 64
3, 49800, Note_on_c, 1, 67, 0
3, 49800, Note_on_c, 1, 66, 64
3, 49860, Note_on_c, 1, 66, 0
3, 49860, Note_on_c, 1, 64, 64
3, 49920, Note_on_c, 1, 64, 0
3, 49920, Note_on_c, 1, 66, 64
3, 50040, Note_on_c, 1, 66, 0
3, 50040, Note_on_c, 1, 62, 64
3, 50160, Note_on_c, 1, 62, 0
3, 50160, Note_on_c, 1, 64, 64
3, 50280, Note_on_c, 1, 64, 0
3, 50280, Note_on_c, 1, 66, 64
3, 50400, Note_on_c, 1, 66, 0
3, 50400, Note_on_c, 1, 67, 64
3, 50520, Note_on_c, 1, 67, 0
3, 50520, Note_on_c, 1, 66, 64
3, 50640, Note_on_c, 1, 66, 0
3, 50640, Note_on_c, 1, 67, 64
3, 50760, Note_on_c, 1, 67, 0
3, 50760, Note_on_c, 1, 69, 64
3, 50880, Note_on_c, 1, 69, 0
3, 50880, Note_on_c, 1, 62, 64
3, 51240, Note_on_c, 1, 62, 0
3, 51240, Note_on_c, 1, 63, 64
3, 51360, Note_on_c, 1, 63, 0
3, 51360, Note_on_c, 1, 64, 64
3, 51480, Note_on_c, 1, 64, 0
3, 51480, Note_on_c, 1, 64, 64
3, 51540, Note_on_c, 1, 64, 0
3, 51540, Note_on_c, 1, 63, 64
3, 51600, Note_on_c, 1, 63, 0
3, 51600, Note_on_c, 1, 64, 64
3, 51720, Note_on_c, 1, 64, 0
3, 51960, Note_on_c, 1, 67, 64
3, 52080, Note_on_c, 1, 67, 0
3, 52080, Note_on_c, 1, 69, 64
3, 52200, Note_on_c, 1, 69, 0
3, 52200, Note_on_c, 1, 71, 64
3, 52320, Note_on_c, 1, 71, 0
3, 52320, Note_on_c, 1, 72, 64
3, 52440, Note_on_c, 1, 72, 0
3, 52440, Note_on_c, 1, 67, 64
3, 52680, Note_on_c, 1, 67, 0
3, 52680, Note_on_c, 1, 66, 64
3, 52740, Note_on_c, 1, 66, 0
3, 52740, Note_on_c, 1, 67, 64
3, 52800, Note_on_c, 1, 67, 0
3, 53820, Note_on_c, 1, 76, 64
3, 53880, Note_on_c, 1, 76, 0
3, 53880, Note_on_c, 1, 74, 64
3, 53940, Note_on_c, 1, 74, 0
3, 53940, Note_on_c, 1, 72, 64
3, 54000, Note_on_c, 1, 72, 0
3, 54000, Note_on_c, 1, 71, 64
3, 54060, Note_on_c, 1, 71, 0
3, 54060, Note_on_c, 1, 69, 64
3, 54120, Note_on_c, 1, 69, 0
3, 54120, Note_on_c, 1, 68, 64
3, 54180, Note_on_c, 1, 68, 0
3, 54180, Note_on_c, 1, 69, 64
3, 54240, Note_on_c, 1, 69, 0
3, 54240, Note_on_c, 1, 71, 64
3, 54840, Note_on_c, 1, 71, 0
3, 54840, Note_on_c, 1, 64, 64
3, 54900, Note_on_c, 1, 64, 0
3, 54900, Note_on_c, 1, 65, 64
3, 54960, Note_on_c, 1, 65, 0
3, 54960, Note_on_c, 1, 64, 64
3, 55080, Note_on_c, 1, 64, 0
3, 55080, Note_on_c, 1, 62, 64
3, 55200, Note_on_c, 1, 62, 0
3, 55200, Note_on_c, 1, 60, 64
3, 55320, Note_on_c, 1, 60, 0
3, 55320, Note_on_c, 1, 60, 64
3, 55380, Note_on_c, 1, 60, 0
3, 55380, Note_on_c, 1, 62, 64
3, 55440, Note_on_c, 1, 62, 0
3, 55440, Note_on_c, 1, 60, 64
3, 55560, Note_on_c, 1, 60, 0
3, 55560, Note_on_c, 1, 58, 64
3, 55680, Note_on_c, 1, 58, 0
3, 55680, Note_on_c, 1, 57, 64
3, 55740, Note_on_c, 1, 57, 0
3, 55740, Note_on_c, 1, 59, 64
3, 55800, Note_on_c, 1, 59, 0
3, 55800, Note_on_c, 1, 61, 64
3, 55860, Note_on_c, 1, 61, 0
3, 55860, Note_on_c, 1, 59, 64
3, 55920, Note_on_c, 1, 59, 0
3, 55920, Note_on_c, 1, 57, 64
3, 56040, Note_on_c, 1, 57, 0
3, 56040, Note_on_c, 1, 55, 64
3, 56160, Note_on_c, 1, 55, 0
3, 56160, Note_on_c, 1, 66, 64
3, 56280, Note_on_c, 1, 66, 0
3, 56280, Note_on_c, 1, 71, 64
3, 56400, Note_on_c, 1, 71, 0
3, 56520, Note_on_c, 1, 64, 64
3, 56640, Note_on_c, 1, 64, 0
3, 56640, Note_on_c, 1, 62, 64
3, 56700, Note_on_c, 1, 62, 0
3, 56700, Note_on_c, 1, 60, 64
3, 56760, Note_on_c, 1, 60, 0
3, 56760, Note_on_c, 1, 64, 64
3, 56820, Note_on_c, 1, 64, 0
3, 56820, Note_on_c, 1, 62, 64
3, 56880, Note_on_c, 1, 62, 0
3, 56880, Note_on_c, 1, 60, 64
3, 56940, Note_on_c, 1, 60, 0
3, 56940, Note_on_c, 1, 59, 64
3, 57000, Note_on_c, 1, 59, 0
3, 57000, Note_on_c, 1, 62, 64
3, 57060, Note_on_c, 1, 62, 0
3, 57060, Note_on_c, 1, 60, 64
3, 57120, Note_on_c, 1, 60, 0
3, 57120, Note_on_c, 1, 59, 64
3, 57240, Note_on_c, 1, 59, 0
3, 57240, Note_on_c, 1, 60, 64
3, 57360, Note_on_c, 1, 60, 0
3, 57360, Note_on_c, 1, 62, 64
3, 57420, Note_on_c, 1, 62, 0
3, 57420, Note_on_c, 1, 60, 64
3, 57480, Note_on_c, 1, 60, 0
3, 57480, Note_on_c, 1, 64, 64
3, 57540, Note_on_c, 1, 64, 0
3, 57540, Note_on_c, 1, 62, 64
3, 57600, Note_on_c, 1, 62, 0
3, 57600, Note_on_c, 1, 60, 64
3, 57720, Note_on_c, 1, 60, 0
3, 57720, Note_on_c, 1, 62, 64
3, 57840, Note_on_c, 1, 62, 0
3, 57840, Note_on_c, 1, 64, 64
3, 57900, Note_on_c, 1, 64, 0
3, 57900, Note_on_c, 1, 62, 64
3, 57960, Note_on_c, 1, 62, 0
3, 57960, Note_on_c, 1, 65, 64
3, 58020, Note_on_c, 1, 65, 0
3, 58020, Note_on_c, 1, 64, 64
3, 58080, Note_on_c, 1, 64, 0
3, 58080, Note_on_c, 1, 62, 64
3, 58200, Note_on_c, 1, 62, 0
3, 58200, Note_on_c, 1, 64, 64
3, 58320, Note_on_c, 1, 64, 0
3, 58320, Note_on_c, 1, 65, 64
3, 58680, Note_on_c, 1, 65, 0
3, 58680, Note_on_c, 1, 64, 64
3, 58800, Note_on_c, 1, 64, 0
3, 58980, Note_on_c, 1, 70, 64
3, 59040, Note_on_c, 1, 70, 0
3, 59040, Note_on_c, 1, 69, 64
3, 59340, Note_on_c, 1, 69, 0
3, 59340, Note_on_c, 1, 73, 64
3, 59400, Note_on_c, 1, 73, 0
3, 59400, Note_on_c, 1, 76, 64
3, 59460, Note_on_c, 1, 76, 0
3, 59460, Note_on_c, 1, 74, 64
3, 59520, Note_on_c, 1, 74, 0
3, 59520, Note_on_c, 1, 76, 64
3, 59820, Note_on_c, 1, 76, 0
3, 59820, Note_on_c, 1, 69, 64
3, 59880, Note_on_c, 1, 69, 0
3, 59880, Note_on_c, 1, 73, 64
3, 59940, Note_on_c, 1, 73, 0
3, 59940, Note_on_c, 1, 74, 64
3, 60000, Note_on_c, 1, 74, 0
3, 60000, Note_on_c, 1, 76, 64
3, 60060, Note_on_c, 1, 76, 0
3, 60060, Note_on_c, 1, 73, 64
3, 60120, Note_on_c, 1, 73, 0
3, 60120, Note_on_c, 1, 74, 64
3, 60240, Note_on_c, 1, 74, 0
3, 60360, Note_on_c, 1, 69, 64
3, 60420, Note_on_c, 1, 69, 0
3, 60420, Note_on_c, 1, 67, 64
3, 60480, Note_on_c, 1, 67, 0
3, 60480, Note_on_c, 1, 65, 64
3, 60600, Note_on_c, 1, 65, 0
3, 60600, Note_on_c, 1, 70, 64
3, 60720, Note_on_c, 1, 70, 0
3, 60720, Note_on_c, 1, 69, 64
3, 60840, Note_on_c, 1, 69, 0
3, 60840, Note_on_c, 1, 67, 64
3, 61080, Note_on_c, 1, 67, 0
3, 61080, Note_on_c, 1, 65, 64
3, 61140, Note_on_c, 1, 65, 0
3, 61140, Note_on_c, 1, 64, 64
3, 61200, Note_on_c, 1, 64, 0
3, 61200, Note_on_c, 1, 65, 64
3, 61260, Note_on_c, 1, 65, 0
3, 61260, Note_on_c, 1, 67, 64
3, 61320, Note_on_c, 1, 67, 0
3, 61320, Note_on_c, 1, 69, 64
3, 61380, Note_on_c, 1, 69, 0
3, 61380, Note_on_c, 1, 65, 64
3, 61440, Note_on_c, 1, 65, 0
3, 61440, Note_on_c, 1, 62, 64
3, 61680, Note_on_c, 1, 62, 0
3, 64440, Note_on_c, 1, 69, 64
3, 64500, Note_on_c, 1, 69, 0
3, 64500, Note_on_c, 1, 71, 64
3, 64560, Note_on_c, 1, 71, 0
3, 64560, Note_on_c, 1, 69, 64
3, 64680, Note_on_c, 1, 69, 0
3, 64680, Note_on_c, 1, 67, 64
3, 64800, Note_on_c, 1, 67, 0
3, 64800, Note_on_c, 1, 65, 64
3, 64920, Note_on_c, 1, 65, 0
3, 64920, Note_on_c, 1, 65, 64
3, 64980, Note_on_c, 1, 65, 0
3, 64980, Note_on_c, 1, 67, 64
3, 65040, Note_on_c, 1, 67, 0
3, 65040, Note_on_c, 1, 65, 64
3, 65160, Note_on_c, 1, 65, 0
3, 65160, Note_on_c, 1, 64, 64
3, 65280, Note_on_c, 1, 64, 0
3, 65280, Note_on_c, 1, 62, 64
3, 65340, Note_on_c, 1, 62, 0
3, 65340, Note_on_c, 1, 64, 64
3, 65400, Note_on_c, 1, 64, 0
3, 65400, Note_on_c, 1, 65, 64
3, 65460, Note_on_c, 1, 65, 0
3, 65460, Note_on_c, 1, 64, 64
3, 65520, Note_on_c, 1, 64, 0
3, 65520, Note_on_c, 1, 62, 64
3, 65640, Note_on_c, 1, 62, 0
3, 65640, Note_on_c, 1, 61, 64
3, 65760, Note_on_c, 1, 61, 0
3, 65760, Note_on_c, 1, 70, 64
3, 65880, Note_on_c, 1, 70, 0
3, 65880, Note_on_c, 1, 74, 64
3, 66000, Note_on_c, 1, 74, 0
3, 66120, Note_on_c, 1, 69, 64
3, 66240, Note_on_c, 1, 69, 0
3, 66240, Note_on_c, 1, 67, 64
3, 66300, Note_on_c, 1, 67, 0
3, 66300, Note_on_c, 1, 65, 64
3, 66360, Note_on_c, 1, 65, 0
3, 66360, Note_on_c, 1, 69, 64
3, 66420, Note_on_c, 1, 69, 0
3, 66420, Note_on_c, 1, 67, 64
3, 66480, Note_on_c, 1, 67, 0
3, 66480, Note_on_c, 1, 65, 64
3, 66540, Note_on_c, 1, 65, 0
3, 66540, Note_on_c, 1, 64, 64
3, 66600, Note_on_c, 1, 64, 0
3, 66600, Note_on_c, 1, 67, 64
3, 66660, Note_on_c, 1, 67, 0
3, 66660, Note_on_c, 1, 65, 64
3, 66720, Note_on_c, 1, 65, 0
3, 66720, Note_on_c, 1, 64, 64
3, 66840, Note_on_c, 1, 64, 0
3, 66840, Note_on_c, 1, 65, 64
3, 66960, Note_on_c, 1, 65, 0
3, 66960, Note_on_c, 1, 67, 64
3, 67200, Note_on_c, 1, 67, 0
3, 67200, Note_on_c, 1, 65, 64
3, 67440, Note_on_c, 1, 65, 0
3, 67440, Note_on_c, 1, 64, 64
3, 67560, Note_on_c, 1, 64, 0
3, 67560, Note_on_c, 1, 69, 64
3, 67740, Note_on_c, 1, 69, 0
3, 67740, Note_on_c, 1, 73, 64
3, 67800, Note_on_c, 1, 73, 0
3, 67800, Note_on_c, 1, 74, 64
3, 67920, Note_on_c, 1, 74, 0
3, 67920, Note_on_c, 1, 67, 64
3, 68040, Note_on_c, 1, 67, 0
3, 68040, Note_on_c, 1, 72, 64
3, 68220, Note_on_c, 1, 72, 0
3, 68220, Note_on_c, 1, 76, 64
3, 68280, Note_on_c, 1, 76, 0
3, 68280, Note_on_c, 1, 77, 64
3, 68400, Note_on_c, 1, 77, 0
3, 68400, Note_on_c, 1, 70, 64
3, 68700, Note_on_c, 1, 70, 0
3, 68700, Note_on_c, 1, 67, 64
3, 68760, Note_on_c, 1, 67, 0
3, 68760, Note_on_c, 1, 69, 64
3, 68820, Note_on_c, 1, 69, 0
3, 68820, Note_on_c, 1, 72, 64
3, 68880, Note_on_c, 1, 72, 0
3, 68880, Note_on_c, 1, 62, 64
3, 69120, Note_on_c, 1, 62, 0
3, 69120, Note_on_c, 1, 64, 64
3, 69240, Note_on_c, 1, 64, 0
3, 69240, Note_on_c, 1, 65, 64
3, 69480, Note_on_c, 1, 65, 0
3, 69480, Note_on_c, 1, 64, 64
3, 69600, Note_on_c, 1, 64, 0
3, 69720, Note_on_c, 1, 72, 64
3, 69780, Note_on_c, 1, 72, 0
3, 69780, Note_on_c, 1, 74, 64
3, 69840, Note_on_c, 1, 74, 0
3, 69960, Note_on_c, 1, 70, 64
3, 70080, Note_on_c, 1, 70, 0
3, 70080, Note_on_c, 1, 69, 64
3, 70200, Note_on_c, 1, 69, 0
3, 70200, Note_on_c, 1, 69, 64
3, 70260, Note_on_c, 1, 69, 0
3, 70260, Note_on_c, 1, 70, 64
3, 70320, Note_on_c, 1, 70, 0
3, 70320, Note_on_c, 1, 69, 64
3, 70440, Note_on_c, 1, 69, 0
3, 70440, Note_on_c, 1, 67, 64
3, 70560, Note_on_c, 1, 67, 0
3, 70560, Note_on_c, 1, 66, 64
3, 70620, Note_on_c, 1, 66, 0
3, 70620, Note_on_c, 1, 67, 64
3, 70680, Note_on_c, 1, 67, 0
3, 70680, Note_on_c, 1, 69, 64
3, 70740, Note_on_c, 1, 69, 0
3, 70740, Note_on_c, 1, 67, 64
3, 70800, Note_on_c, 1, 67, 0
3, 70800, Note_on_c, 1, 66, 64
3, 70920, Note_on_c, 1, 66, 0
3, 70920, Note_on_c, 1, 63, 64
3, 71040, Note_on_c, 1, 63, 0
3, 71040, Note_on_c, 1, 72, 64
3, 71160, Note_on_c, 1, 72, 0
3, 71160, Note_on_c, 1, 69, 64
3, 71280, Note_on_c, 1, 69, 0
3, 71400, Note_on_c, 1, 72, 64
3, 71520, Note_on_c, 1, 72, 0
3, 71520, Note_on_c, 1, 70, 64
3, 71580, Note_on_c, 1, 70, 0
3, 71580, Note_on_c, 1, 69, 64
3, 71640, Note_on_c, 1, 69, 0
3, 71640, Note_on_c, 1, 72, 64
3, 71700, Note_on_c, 1, 72, 0
3, 71700, Note_on_c, 1, 70, 64
3, 71760, Note_on_c, 1, 70, 0
3, 71760, Note_on_c, 1, 69, 64
3, 71820, Note_on_c, 1, 69, 0
3, 71820, Note_on_c, 1, 67, 64
3, 71880, Note_on_c, 1, 67, 0
3, 71880, Note_on_c, 1, 70, 64
3, 71940, Note_on_c, 1, 70, 0
3, 71940, Note_on_c, 1, 69, 64
3, 72000, Note_on_c, 1, 69, 0
3, 72000, Note_on_c, 1, 67, 64
3, 72120, Note_on_c, 1, 67, 0
3, 73080, Note_on_c, 1, 69, 64
3, 73140, Note_on_c, 1, 69, 0
3, 73140, Note_on_c, 1, 67, 64
3, 73200, Note_on_c, 1, 67, 0
3, 73200, Note_on_c, 1, 69, 64
3, 73320, Note_on_c, 1, 69, 0
3, 73320, Note_on_c, 1, 71, 64
3, 73440, Note_on_c, 1, 71, 0
3, 73440, Note_on_c, 1, 73, 64
3, 73560, Note_on_c, 1, 73, 0
3, 73560, Note_on_c, 1, 73, 64
3, 73620, Note_on_c, 1, 73, 0
3, 73620, Note_on_c, 1, 71, 64
3, 73680, Note_on_c, 1, 71, 0
3, 73680, Note_on_c, 1, 73, 64
3, 73800, Note_on_c, 1, 73, 0
3, 73800, Note_on_c, 1, 74, 64
3, 73920, Note_on_c, 1, 74, 0
3, 73920, Note_on_c, 1, 76, 64
3, 73980, Note_on_c, 1, 76, 0
3, 73980, Note_on_c, 1, 74, 64
3, 74040, Note_on_c, 1, 74, 0
3, 74040, Note_on_c, 1, 73, 64
3, 74100, Note_on_c, 1, 73, 0
3, 74100, Note_on_c, 1, 74, 64
3, 74160, Note_on_c, 1, 74, 0
3, 74160, Note_on_c, 1, 76, 64
3, 74280, Note_on_c, 1, 76, 0
3, 74280, Note_on_c, 1, 77, 64
3, 74400, Note_on_c, 1, 77, 0
3, 74400, Note_on_c, 1, 67, 64
3, 74520, Note_on_c, 1, 67, 0
3, 74520, Note_on_c, 1, 64, 64
3, 74640, Note_on_c, 1, 64, 0
3, 74760, Note_on_c, 1, 69, 64
3, 74880, Note_on_c, 1, 69, 0
3, 74880, Note_on_c, 1, 69, 64
3, 75000, Note_on_c, 1, 69, 0
3, 75000, Note_on_c, 1, 74, 64
3, 75120, Note_on_c, 1, 74, 0
3, 75120, Note_on_c, 1, 69, 64
3, 75240, Note_on_c, 1, 69, 0
3, 75240, Note_on_c, 1, 67, 64
3, 75360, Note_on_c, 1, 67, 0
3, 75360, Note_on_c, 1, 65, 64
3, 75480, Note_on_c, 1, 65, 0
3, 75480, Note_on_c, 1, 62, 64
3, 75600, Note_on_c, 1, 62, 0
3, 75600, Note_on_c, 1, 65, 64
3, 75720, Note_on_c, 1, 65, 0
3, 75720, Note_on_c, 1, 65, 64
3, 75840, Note_on_c, 1, 65, 0
3, 75840, Note_on_c, 1, 71, 64
3, 76080, Note_on_c, 1, 71, 0
3, 76440, Note_on_c, 1, 69, 64
3, 76500, Note_on_c, 1, 69, 0
3, 76500, Note_on_c, 1, 68, 64
3, 76560, Note_on_c, 1, 68, 0
3, 76560, Note_on_c, 1, 69, 64
3, 76680, Note_on_c, 1, 69, 0
3, 76680, Note_on_c, 1, 71, 64
3, 76800, Note_on_c, 1, 71, 0
3, 76800, Note_on_c, 1, 72, 64
3, 76920, Note_on_c, 1, 72, 0
3, 76920, Note_on_c, 1, 72, 64
3, 76980, Note_on_c, 1, 72, 0
3, 76980, Note_on_c, 1, 71, 64
3, 77040, Note_on_c, 1, 71, 0
3, 77040, Note_on_c, 1, 72, 64
3, 77160, Note_on_c, 1, 72, 0
3, 77160, Note_on_c, 1, 74, 64
3, 77280, Note_on_c, 1, 74, 0
3, 77280, Note_on_c, 1, 76, 64
3, 77340, Note_on_c, 1, 76, 0
3, 77340, Note_on_c, 1, 74, 64
3, 77400, Note_on_c, 1, 74, 0
3, 77400, Note_on_c, 1, 72, 64
3, 77460, Note_on_c, 1, 72, 0
3, 77460, Note_on_c, 1, 74, 64
3, 77520, Note_on_c, 1, 74, 0
3, 77520, Note_on_c, 1, 76, 64
3, 77640, Note_on_c, 1, 76, 0
3, 77640, Note_on_c, 1, 77, 64
3, 77760, Note_on_c, 1, 77, 0
3, 77760, Note_on_c, 1, 68, 64
3, 77880, Note_on_c, 1, 68, 0
3, 77880, Note_on_c, 1, 64, 64
3, 78000, Note_on_c, 1, 64, 0
3, 78000, Note_on_c, 1, 62, 64
3, 78060, Note_on_c, 1, 62, 0
3, 78060, Note_on_c, 1, 64, 64
3, 78120, Note_on_c, 1, 64, 0
3, 78120, Note_on_c, 1, 66, 64
3, 78180, Note_on_c, 1, 66, 0
3, 78180, Note_on_c, 1, 68, 64
3, 78240, Note_on_c, 1, 68, 0
3, 78240, Note_on_c, 1, 66, 64
3, 78480, Note_on_c, 1, 66, 0
3, 78600, Note_on_c, 1, 64, 64
3, 78720, Note_on_c, 1, 64, 0
3, 78720, Note_on_c, 1, 64, 64
3, 78840, Note_on_c, 1, 64, 0
3, 78840, Note_on_c, 1, 65, 64
3, 78960, Note_on_c, 1, 65, 0
3, 78960, Note_on_c, 1, 64, 64
3, 79080, Note_on_c, 1, 64, 0
3, 79080, Note_on_c, 1, 62, 64
3, 79200, Note_on_c, 1, 62, 0
3, 79200, Note_on_c, 1, 61, 64
3, 79440, Note_on_c, 1, 61, 0
3, 79560, Note_on_c, 1, 64, 64
3, 79680, Note_on_c, 1, 64, 0
3, 79680, Note_on_c, 1, 57, 64
3, 79800, Note_on_c, 1, 57, 0
3, 79800, Note_on_c, 1, 69, 64
3, 79860, Note_on_c, 1, 69, 0
3, 79860, Note_on_c, 1, 70, 64
3, 79920, Note_on_c, 1, 70, 0
3, 79920, Note_on_c, 1, 69, 64
3, 80040, Note_on_c, 1, 69, 0
3, 80040, Note_on_c, 1, 67, 64
3, 80160, Note_on_c, 1, 67, 0
3, 80160, Note_on_c, 1, 65, 64
3, 80280, Note_on_c, 1, 65, 0
3, 80280, Note_on_c, 1, 65, 64
3, 80340, Note_on_c, 1, 65, 0
3, 80340, Note_on_c, 1, 67, 64
3, 80400, Note_on_c, 1, 67, 0
3, 80400, Note_on_c, 1, 65, 64
3, 80520, Note_on_c, 1, 65, 0
3, 80520, Note_on_c, 1, 64, 64
3, 80640, Note_on_c, 1, 64, 0
3, 80640, Note_on_c, 1, 62, 64
3, 80760, Note_on_c, 1, 62, 0
3, 80760, Note_on_c, 1, 69, 64
3, 80760, Note_on_c, 1, 57, 64
3, 80820, Note_on_c, 1, 57, 0
3, 80820, Note_on_c, 1, 69, 0
3, 80820, Note_on_c, 1, 59, 64
3, 80820, Note_on_c, 1, 67, 64
3, 80880, Note_on_c, 1, 67, 0
3, 80880, Note_on_c, 1, 59, 0
3, 80880, Note_on_c, 1, 61, 64
3, 80880, Note_on_c, 1, 69, 64
3, 81000, Note_on_c, 1, 69, 0
3, 81000, Note_on_c, 1, 61, 0
3, 81000, Note_on_c, 1, 71, 64
3, 81000, Note_on_c, 1, 62, 64
3, 81120, Note_on_c, 1, 62, 0
3, 81120, Note_on_c, 1, 71, 0
3, 81120, Note_on_c, 1, 64, 64
3, 81120, Note_on_c, 1, 73, 64
3, 81240, Note_on_c, 1, 73, 0
3, 81240, Note_on_c, 1, 73, 64
3, 81300, Note_on_c, 1, 73, 0
3, 81300, Note_on_c, 1, 71, 64
3, 81360, Note_on_c, 1, 71, 0
3, 81360, Note_on_c, 1, 64, 0
3, 81360, Note_on_c, 1, 73, 64
3, 81480, Note_on_c, 1, 73, 0
3, 81480, Note_on_c, 1, 62, 64
3, 81480, Note_on_c, 1, 74, 64
3, 81600, Note_on_c, 1, 74, 0
3, 81600, Note_on_c, 1, 62, 0
3, 81600, Note_on_c, 1, 67, 64
3, 81600, Note_on_c, 1, 76, 64
3, 81660, Note_on_c, 1, 76, 0
3, 81660, Note_on_c, 1, 74, 64
3, 81720, Note_on_c, 1, 74, 0
3, 81720, Note_on_c, 1, 73, 64
3, 81780, Note_on_c, 1, 73, 0
3, 81780, Note_on_c, 1, 74, 64
3, 81840, Note_on_c, 1, 74, 0
3, 81840, Note_on_c, 1, 67, 0
3, 81840, Note_on_c, 1, 76, 64
3, 81960, Note_on_c, 1, 76, 0
3, 81960, Note_on_c, 1, 65, 64
3, 81960, Note_on_c, 1, 77, 64
3, 82020, Note_on_c, 1, 65, 0
3, 82020, Note_on_c, 1, 64, 64
3, 82080, Note_on_c, 1, 64, 0
3, 82080, Note_on_c, 1, 77, 0
3, 82080, Note_on_c, 1, 62, 64
3, 82080, Note_on_c, 1, 68, 64
3, 82320, Note_on_c, 1, 68, 0
3, 82320, Note_on_c, 1, 62, 0
3, 82440, Note_on_c, 1, 74, 64
3, 82680, Note_on_c, 1, 74, 0
3, 82680, Note_on_c, 1, 73, 64
3, 82680, Note_on_c, 1, 76, 64
3, 82740, Note_on_c, 1, 76, 0
3, 82740, Note_on_c, 1, 73, 0
3, 82740, Note_on_c, 1, 74, 64
3, 82740, Note_on_c, 1, 77, 64
3, 82800, Note_on_c, 1, 77, 0
3, 82800, Note_on_c, 1, 74, 0
3, 82800, Note_on_c, 1, 73, 64
3, 82800, Note_on_c, 1, 76, 64
3, 82920, Note_on_c, 1, 76, 0
3, 82920, Note_on_c, 1, 73, 0
3, 82920, Note_on_c, 1, 71, 64
3, 82920, Note_on_c, 1, 74, 64
3, 82980, Note_on_c, 1, 68, 64
3, 83040, Note_on_c, 1, 68, 0
3, 83040, Note_on_c, 1, 74, 0
3, 83040, Note_on_c, 1, 71, 0
3, 83040, Note_on_c, 1, 69, 64
3, 83040, Note_on_c, 1, 73, 64
3, 83520, Note_on_c, 1, 73, 0
3, 83520, Note_on_c, 1, 69, 0
3, 83520, End_track
4, 0, Start_track
4, 0, MIDI_port, 0
4, 0, Title_t, "LH H"
4, 0, Program_c, 2, 6
4, 9720, Note_on_c, 2, 52, 64
4, 9780, Note_on_c, 2, 52, 0
4, 9780, Note_on_c, 2, 51, 64
4, 9840, Note_on_c, 2, 51, 0
4, 9840, Note_on_c, 2, 52, 64
4, 9960, Note_on_c, 2, 52, 0
4, 9960, Note_on_c, 2, 54, 64
4, 10080, Note_on_c, 2, 54, 0
4, 10080, Note_on_c, 2, 55, 64
4, 10200, Note_on_c, 2, 55, 0
4, 10200, Note_on_c, 2, 55, 64
4, 10260, Note_on_c, 2, 55, 0
4, 10260, Note_on_c, 2, 54, 64
4, 10320, Note_on_c, 2, 54, 0
4, 10320, Note_on_c, 2, 55, 64
4, 10440, Note_on_c, 2, 55, 0
4, 10440, Note_on_c, 2, 57, 64
4, 10560, Note_on_c, 2, 57, 0
4, 10560, Note_on_c, 2, 59, 64
4, 10620, Note_on_c, 2, 59, 0
4, 10620, Note_on_c, 2, 57, 64
4, 10680, Note_on_c, 2, 57, 0
4, 10680, Note_on_c, 2, 55, 64
4, 10740, Note_on_c, 2, 55, 0
4, 10740, Note_on_c, 2, 57, 64
4, 10800, Note_on_c, 2, 57, 0
4, 10800, Note_on_c, 2, 59, 64
4, 10920, Note_on_c, 2, 59, 0
4, 10920, Note_on_c, 2, 60, 64
4, 11040, Note_on_c, 2, 60, 0
4, 11040, Note_on_c, 2, 51, 64
4, 11160, Note_on_c, 2, 51, 0
4, 11400, Note_on_c, 2, 52, 64
4, 11520, Note_on_c, 2, 52, 0
4, 11520, Note_on_c, 2, 54, 64
4, 11580, Note_on_c, 2, 54, 0
4, 11580, Note_on_c, 2, 55, 64
4, 11640, Note_on_c, 2, 55, 0
4, 11640, Note_on_c, 2, 52, 64
4, 11700, Note_on_c, 2, 52, 0
4, 11700, Note_on_c, 2, 54, 64
4, 11760, Note_on_c, 2, 54, 0
4, 11760, Note_on_c, 2, 55, 64
4, 11820, Note_on_c, 2, 55, 0
4, 11820, Note_on_c, 2, 57, 64
4, 11880, Note_on_c, 2, 57, 0
4, 11880, Note_on_c, 2, 54, 64
4, 11940, Note_on_c, 2, 54, 0
4, 11940, Note_on_c, 2, 55, 64
4, 12000, Note_on_c, 2, 55, 0
4, 12000, Note_on_c, 2, 57, 64
4, 12120, Note_on_c, 2, 57, 0
4, 12120, Note_on_c, 2, 55, 64
4, 12240, Note_on_c, 2, 55, 0
4, 12240, Note_on_c, 2, 54, 64
4, 12360, Note_on_c, 2, 54, 0
4, 12360, Note_on_c, 2, 59, 64
4, 12480, Note_on_c, 2, 59, 0
4, 12480, Note_on_c, 2, 52, 64
4, 12720, Note_on_c, 2, 52, 0
4, 12720, Note_on_c, 2, 59, 64
4, 12840, Note_on_c, 2, 59, 0
4, 12840, Note_on_c, 2, 57, 64
4, 12960, Note_on_c, 2, 57, 0
4, 12960, Note_on_c, 2, 56, 64
4, 13080, Note_on_c, 2, 56, 0
4, 13080, Note_on_c, 2, 52, 64
4, 13200, Note_on_c, 2, 52, 0
4, 13200, Note_on_c, 2, 54, 64
4, 13320, Note_on_c, 2, 54, 0
4, 13320, Note_on_c, 2, 56, 64
4, 13440, Note_on_c, 2, 56, 0
4, 13440, Note_on_c, 2, 57, 64
4, 13560, Note_on_c, 2, 57, 0
4, 14040, Note_on_c, 2, 57, 64
4, 14160, Note_on_c, 2, 57, 0
4, 14160, Note_on_c, 2, 59, 64
4, 14280, Note_on_c, 2, 59, 0
4, 14280, Note_on_c, 2, 61, 64
4, 14400, Note_on_c, 2, 61, 0
4, 14400, Note_on_c, 2, 62, 64
4, 14520, Note_on_c, 2, 62, 0
4, 15000, Note_on_c, 2, 59, 64
4, 15120, Note_on_c, 2, 59, 0
4, 15120, Note_on_c, 2, 57, 64
4, 15360, Note_on_c, 2, 57, 0
4, 15360, Note_on_c, 2, 55, 64
4, 15960, Note_on_c, 2, 55, 0
4, 15960, Note_on_c, 2, 57, 64
4, 16200, Note_on_c, 2, 57, 0
4, 16200, Note_on_c, 2, 50, 64
4, 16440, Note_on_c, 2, 50, 0
4, 16440, Note_on_c, 2, 67, 64
4, 16500, Note_on_c, 2, 67, 0
4, 16500, Note_on_c, 2, 69, 64
4, 16560, Note_on_c, 2, 69, 0
4, 16560, Note_on_c, 2, 67, 64
4, 16680, Note_on_c, 2, 67, 0
4, 16680, Note_on_c, 2, 65, 64
4, 16800, Note_on_c, 2, 65, 0
4, 16800, Note_on_c, 2, 64, 64
4, 16920, Note_on_c, 2, 64, 0
4, 16920, Note_on_c, 2, 64, 64
4, 16980, Note_on_c, 2, 64, 0
4, 16980, Note_on_c, 2, 65, 64
4, 17040, Note_on_c, 2, 65, 0
4, 17040, Note_on_c, 2, 64, 64
4, 17160, Note_on_c, 2, 64, 0
4, 17160, Note_on_c, 2, 62, 64
4, 17280, Note_on_c, 2, 62, 0
4, 17280, Note_on_c, 2, 60, 64
4, 17340, Note_on_c, 2, 60, 0
4, 17340, Note_on_c, 2, 62, 64
4, 17400, Note_on_c, 2, 62, 0
4, 17400, Note_on_c, 2, 64, 64
4, 17460, Note_on_c, 2, 64, 0
4, 17460, Note_on_c, 2, 62, 64
4, 17520, Note_on_c, 2, 62, 0
4, 17520, Note_on_c, 2, 60, 64
4, 17640, Note_on_c, 2, 60, 0
4, 17640, Note_on_c, 2, 58, 64
4, 17760, Note_on_c, 2, 58, 0
4, 17760, Note_on_c, 2, 69, 64
4, 17880, Note_on_c, 2, 69, 0
4, 17880, Note_on_c, 2, 73, 64
4, 18000, Note_on_c, 2, 73, 0
4, 18120, Note_on_c, 2, 67, 64
4, 18240, Note_on_c, 2, 67, 0
4, 18240, Note_on_c, 2, 65, 64
4, 18300, Note_on_c, 2, 65, 0
4, 18300, Note_on_c, 2, 64, 64
4, 18360, Note_on_c, 2, 64, 0
4, 18360, Note_on_c, 2, 67, 64
4, 18420, Note_on_c, 2, 67, 0
4, 18420, Note_on_c, 2, 65, 64
4, 18480, Note_on_c, 2, 65, 0
4, 18480, Note_on_c, 2, 64, 64
4, 18540, Note_on_c, 2, 64, 0
4, 18540, Note_on_c, 2, 62, 64
4, 18600, Note_on_c, 2, 62, 0
4, 18600, Note_on_c, 2, 65, 64
4, 18660, Note_on_c, 2, 65, 0
4, 18660, Note_on_c, 2, 64, 64
4, 18720, Note_on_c, 2, 64, 0
4, 18720, Note_on_c, 2, 62, 64
4, 18840, Note_on_c, 2, 62, 0
4, 18840, Note_on_c, 2, 64, 64
4, 18960, Note_on_c, 2, 64, 0
4, 18960, Note_on_c, 2, 65, 64
4, 19020, Note_on_c, 2, 65, 0
4, 19020, Note_on_c, 2, 64, 64
4, 19080, Note_on_c, 2, 64, 0
4, 19080, Note_on_c, 2, 62, 64
4, 19140, Note_on_c, 2, 62, 0
4, 19140, Note_on_c, 2, 60, 64
4, 19200, Note_on_c, 2, 60, 0
4, 19200, Note_on_c, 2, 58, 64
4, 19320, Note_on_c, 2, 58, 0
4, 19380, Note_on_c, 2, 58, 64
4, 19440, Note_on_c, 2, 58, 0
4, 19440, Note_on_c, 2, 57, 64
4, 19800, Note_on_c, 2, 57, 0
4, 19800, Note_on_c, 2, 57, 64
4, 19920, Note_on_c, 2, 57, 0
4, 19920, Note_on_c, 2, 59, 64
4, 20040, Note_on_c, 2, 59, 0
4, 20040, Note_on_c, 2, 61, 64
4, 20160, Note_on_c, 2, 61, 0
4, 20160, Note_on_c, 2, 62, 64
4, 20280, Note_on_c, 2, 62, 0
4, 22680, Note_on_c, 2, 59, 64
4, 22740, Note_on_c, 2, 59, 0
4, 22740, Note_on_c, 2, 60, 64
4, 22800, Note_on_c, 2, 60, 0
4, 22800, Note_on_c, 2, 59, 64
4, 22920, Note_on_c, 2, 59, 0
4, 22920, Note_on_c, 2, 57, 64
4, 23040, Note_on_c, 2, 57, 0
4, 23040, Note_on_c, 2, 56, 64
4, 23400, Note_on_c, 2, 56, 0
4, 23400, Note_on_c, 2, 52, 64
4, 23520, Note_on_c, 2, 52, 0
4, 23520, Note_on_c, 2, 50, 64
4, 23640, Note_on_c, 2, 50, 0
4, 23640, Note_on_c, 2, 53, 64
4, 23700, Note_on_c, 2, 53, 0
4, 23700, Note_on_c, 2, 52, 64
4, 23760, Note_on_c, 2, 52, 0
4, 23760, Note_on_c, 2, 50, 64
4, 23880, Note_on_c, 2, 50, 0
4, 23880, Note_on_c, 2, 48, 64
4, 24000, Note_on_c, 2, 48, 0
4, 24000, Note_on_c, 2, 47, 64
4, 24120, Note_on_c, 2, 47, 0
4, 24120, Note_on_c, 2, 48, 64
4, 24240, Note_on_c, 2, 48, 0
4, 24240, Note_on_c, 2, 50, 64
4, 24360, Note_on_c, 2, 50, 0
4, 24360, Note_on_c, 2, 47, 64
4, 24480, Note_on_c, 2, 47, 0
4, 24480, Note_on_c, 2, 52, 64
4, 24840, Note_on_c, 2, 52, 0
4, 24840, Note_on_c, 2, 53, 64
4, 25080, Note_on_c, 2, 53, 0
4, 25080, Note_on_c, 2, 50, 64
4, 25200, Note_on_c, 2, 50, 0
4, 25200, Note_on_c, 2, 52, 64
4, 25320, Note_on_c, 2, 52, 0
4, 25320, Note_on_c, 2, 50, 64
4, 25440, Note_on_c, 2, 50, 0
4, 25440, Note_on_c, 2, 48, 64
4, 25560, Note_on_c, 2, 48, 0
4, 26040, Note_on_c, 2, 57, 64
4, 26100, Note_on_c, 2, 57, 0
4, 26100, Note_on_c, 2, 56, 64
4, 26160, Note_on_c, 2, 56, 0
4, 26160, Note_on_c, 2, 57, 64
4, 26280, Note_on_c, 2, 57, 0
4, 26280, Note_on_c, 2, 59, 64
4, 26400, Note_on_c, 2, 59, 0
4, 26400, Note_on_c, 2, 60, 64
4, 26520, Note_on_c, 2, 60, 0
4, 26520, Note_on_c, 2, 60, 64
4, 26580, Note_on_c, 2, 60, 0
4, 26580, Note_on_c, 2, 59, 64
4, 26640, Note_on_c, 2, 59, 0
4, 26640, Note_on_c, 2, 60, 64
4, 26760, Note_on_c, 2, 60, 0
4, 26760, Note_on_c, 2, 62, 64
4, 26880, Note_on_c, 2, 62, 0
4, 26880, Note_on_c, 2, 64, 64
4, 26940, Note_on_c, 2, 64, 0
4, 26940, Note_on_c, 2, 62, 64
4, 27000, Note_on_c, 2, 62, 0
4, 27000, Note_on_c, 2, 60, 64
4, 27060, Note_on_c, 2, 60, 0
4, 27060, Note_on_c, 2, 62, 64
4, 27120, Note_on_c, 2, 62, 0
4, 27120, Note_on_c, 2, 64, 64
4, 27240, Note_on_c, 2, 64, 0
4, 27240, Note_on_c, 2, 65, 64
4, 27360, Note_on_c, 2, 65, 0
4, 27360, Note_on_c, 2, 56, 64
4, 27480, Note_on_c, 2, 56, 0
4, 27480, Note_on_c, 2, 52, 64
4, 27600, Note_on_c, 2, 52, 0
4, 27720, Note_on_c, 2, 57, 64
4, 27840, Note_on_c, 2, 57, 0
4, 27840, Note_on_c, 2, 59, 64
4, 27900, Note_on_c, 2, 59, 0
4, 27900, Note_on_c, 2, 60, 64
4, 27960, Note_on_c, 2, 60, 0
4, 27960, Note_on_c, 2, 57, 64
4, 28020, Note_on_c, 2, 57, 0
4, 28020, Note_on_c, 2, 59, 64
4, 28080, Note_on_c, 2, 59, 0
4, 28080, Note_on_c, 2, 60, 64
4, 28140, Note_on_c, 2, 60, 0
4, 28140, Note_on_c, 2, 62, 64
4, 28200, Note_on_c, 2, 62, 0
4, 28200, Note_on_c, 2, 59, 64
4, 28260, Note_on_c, 2, 59, 0
4, 28260, Note_on_c, 2, 60, 64
4, 28320, Note_on_c, 2, 60, 0
4, 28320, Note_on_c, 2, 62, 64
4, 28440, Note_on_c, 2, 62, 0
4, 28440, Note_on_c, 2, 60, 64
4, 28560, Note_on_c, 2, 60, 0
4, 28560, Note_on_c, 2, 59, 64
4, 28680, Note_on_c, 2, 59, 0
4, 28680, Note_on_c, 2, 64, 64
4, 28800, Note_on_c, 2, 64, 0
4, 28800, Note_on_c, 2, 57, 64
4, 29400, Note_on_c, 2, 57, 0
4, 29400, Note_on_c, 2, 55, 64
4, 29460, Note_on_c, 2, 55, 0
4, 29460, Note_on_c, 2, 54, 64
4, 29520, Note_on_c, 2, 54, 0
4, 29520, Note_on_c, 2, 55, 64
4, 29640, Note_on_c, 2, 55, 0
4, 29640, Note_on_c, 2, 57, 64
4, 29760, Note_on_c, 2, 57, 0
4, 29760, Note_on_c, 2, 59, 64
4, 29880, Note_on_c, 2, 59, 0
4, 29880, Note_on_c, 2, 64, 64
4, 30120, Note_on_c, 2, 64, 0
4, 30120, Note_on_c, 2, 63, 64
4, 30240, Note_on_c, 2, 63, 0
4, 30240, Note_on_c, 2, 64, 64
4, 30360, Note_on_c, 2, 64, 0
4, 34200, Note_on_c, 2, 57, 64
4, 34260, Note_on_c, 2, 57, 0
4, 34260, Note_on_c, 2, 56, 64
4, 34320, Note_on_c, 2, 56, 0
4, 34320, Note_on_c, 2, 57, 64
4, 34440, Note_on_c, 2, 57, 0
4, 34440, Note_on_c, 2, 59, 64
4, 34560, Note_on_c, 2, 59, 0
4, 34560, Note_on_c, 2, 60, 64
4, 34680, Note_on_c, 2, 60, 0
4, 34680, Note_on_c, 2, 60, 64
4, 34740, Note_on_c, 2, 60, 0
4, 34740, Note_on_c, 2, 59, 64
4, 34800, Note_on_c, 2, 59, 0
4, 34800, Note_on_c, 2, 60, 64
4, 34920, Note_on_c, 2, 60, 0
4, 34920, Note_on_c, 2, 62, 64
4, 35040, Note_on_c, 2, 62, 0
4, 35040, Note_on_c, 2, 64, 64
4, 35100, Note_on_c, 2, 64, 0
4, 35100, Note_on_c, 2, 62, 64
4, 35160, Note_on_c, 2, 62, 0
4, 35160, Note_on_c, 2, 60, 64
4, 35220, Note_on_c, 2, 60, 0
4, 35220, Note_on_c, 2, 62, 64
4, 35280, Note_on_c, 2, 62, 0
4, 35280, Note_on_c, 2, 64, 64
4, 35400, Note_on_c, 2, 64, 0
4, 35400, Note_on_c, 2, 65, 64
4, 35520, Note_on_c, 2, 65, 0
4, 35520, Note_on_c, 2, 56, 64
4, 35640, Note_on_c, 2, 56, 0
4, 35640, Note_on_c, 2, 52, 64
4, 35760, Note_on_c, 2, 52, 0
4, 35880, Note_on_c, 2, 57, 64
4, 36000, Note_on_c, 2, 57, 0
4, 36000, Note_on_c, 2, 59, 64
4, 36060, Note_on_c, 2, 59, 0
4, 36060, Note_on_c, 2, 60, 64
4, 36120, Note_on_c, 2, 60, 0
4, 36120, Note_on_c, 2, 57, 64
4, 36180, Note_on_c, 2, 57, 0
4, 36180, Note_on_c, 2, 59, 64
4, 36240, Note_on_c, 2, 59, 0
4, 36240, Note_on_c, 2, 60, 64
4, 36300, Note_on_c, 2, 60, 0
4, 36300, Note_on_c, 2, 62, 64
4, 36360, Note_on_c, 2, 62, 0
4, 36360, Note_on_c, 2, 59, 64
4, 36420, Note_on_c, 2, 59, 0
4, 36420, Note_on_c, 2, 60, 64
4, 36480, Note_on_c, 2, 60, 0
4, 36480, Note_on_c, 2, 62, 64
4, 36600, Note_on_c, 2, 62, 0
4, 36600, Note_on_c, 2, 60, 64
4, 36720, Note_on_c, 2, 60, 0
4, 36720, Note_on_c, 2, 59, 64
4, 36840, Note_on_c, 2, 59, 0
4, 36840, Note_on_c, 2, 64, 64
4, 36960, Note_on_c, 2, 64, 0
4, 36960, Note_on_c, 2, 57, 64
4, 37320, Note_on_c, 2, 57, 0
4, 37320, Note_on_c, 2, 55, 64
4, 37560, Note_on_c, 2, 55, 0
4, 37560, Note_on_c, 2, 53, 64
4, 37620, Note_on_c, 2, 53, 0
4, 37620, Note_on_c, 2, 52, 64
4, 37680, Note_on_c, 2, 52, 0
4, 37680, Note_on_c, 2, 53, 64
4, 38040, Note_on_c, 2, 53, 0
4, 38040, Note_on_c, 2, 52, 64
4, 38100, Note_on_c, 2, 52, 0
4, 38100, Note_on_c, 2, 50, 64
4, 38160, Note_on_c, 2, 50, 0
4, 38160, Note_on_c, 2, 52, 64
4, 38640, Note_on_c, 2, 52, 0
4, 38640, Note_on_c, 2, 50, 64
4, 38940, Note_on_c, 2, 50, 0
4, 38940, Note_on_c, 2, 48, 64
4, 39000, Note_on_c, 2, 48, 0
4, 39000, Note_on_c, 2, 50, 64
4, 39060, Note_on_c, 2, 50, 0
4, 39060, Note_on_c, 2, 52, 64
4, 39120, Note_on_c, 2, 52, 0
4, 39120, Note_on_c, 2, 53, 64
4, 39180, Note_on_c, 2, 53, 0
4, 39180, Note_on_c, 2, 55, 64
4, 39240, Note_on_c, 2, 55, 0
4, 39240, Note_on_c, 2, 57, 64
4, 39300, Note_on_c, 2, 57, 0
4, 39300, Note_on_c, 2, 59, 64
4, 39360, Note_on_c, 2, 59, 0
4, 39360, Note_on_c, 2, 60, 64
4, 40140, Note_on_c, 2, 60, 0
4, 40140, Note_on_c, 2, 64, 64
4, 40200, Note_on_c, 2, 64, 0
4, 40200, Note_on_c, 2, 62, 64
4, 40260, Note_on_c, 2, 62, 0
4, 40260, Note_on_c, 2, 60, 64
4, 40320, Note_on_c, 2, 60, 0
4, 40320, Note_on_c, 2, 59, 64
4, 40440, Note_on_c, 2, 59, 0
4, 40440, Note_on_c, 2, 64, 64
4, 40500, Note_on_c, 2, 64, 0
4, 40500, Note_on_c, 2, 62, 64
4, 40560, Note_on_c, 2, 62, 0
4, 40560, Note_on_c, 2, 60, 64
4, 40620, Note_on_c, 2, 60, 0
4, 40620, Note_on_c, 2, 59, 64
4, 40680, Note_on_c, 2, 59, 0
4, 40680, Note_on_c, 2, 57, 64
4, 40740, Note_on_c, 2, 57, 0
4, 40740, Note_on_c, 2, 59, 64
4, 40800, Note_on_c, 2, 59, 0
4, 40800, Note_on_c, 2, 60, 64
4, 41400, Note_on_c, 2, 60, 0
4, 41400, Note_on_c, 2, 55, 64
4, 41640, Note_on_c, 2, 55, 0
4, 41640, Note_on_c, 2, 62, 64
4, 41880, Note_on_c, 2, 62, 0
4, 41880, Note_on_c, 2, 64, 64
4, 42000, Note_on_c, 2, 64, 0
4, 42000, Note_on_c, 2, 62, 64
4, 42120, Note_on_c, 2, 62, 0
4, 42120, Note_on_c, 2, 60, 64
4, 42240, Note_on_c, 2, 60, 0
4, 42240, Note_on_c, 2, 55, 64
4, 42480, Note_on_c, 2, 55, 0
4, 43080, Note_on_c, 2, 55, 64
4, 43200, Note_on_c, 2, 55, 0
4, 43200, Note_on_c, 2, 57, 64
4, 43260, Note_on_c, 2, 57, 0
4, 43260, Note_on_c, 2, 59, 64
4, 43320, Note_on_c, 2, 59, 0
4, 43320, Note_on_c, 2, 55, 64
4, 43380, Note_on_c, 2, 55, 0
4, 43380, Note_on_c, 2, 57, 64
4, 43440, Note_on_c, 2, 57, 0
4, 43440, Note_on_c, 2, 59, 64
4, 43500, Note_on_c, 2, 59, 0
4, 43500, Note_on_c, 2, 60, 64
4, 43560, Note_on_c, 2, 60, 0
4, 43560, Note_on_c, 2, 57, 64
4, 43620, Note_on_c, 2, 57, 0
4, 43620, Note_on_c, 2, 59, 64
4, 43680, Note_on_c, 2, 59, 0
4, 43680, Note_on_c, 2, 60, 64
4, 43800, Note_on_c, 2, 60, 0
4, 43800, Note_on_c, 2, 59, 64
4, 43920, Note_on_c, 2, 59, 0
4, 43920, Note_on_c, 2, 57, 64
4, 44040, Note_on_c, 2, 57, 0
4, 44040, Note_on_c, 2, 62, 64
4, 44160, Note_on_c, 2, 62, 0
4, 44160, Note_on_c, 2, 55, 64
4, 44520, Note_on_c, 2, 55, 0
4, 44520, Note_on_c, 2, 60, 64
4, 44640, Note_on_c, 2, 60, 0
4, 44640, Note_on_c, 2, 62, 64
4, 44700, Note_on_c, 2, 62, 0
4, 44700, Note_on_c, 2, 53, 64
4, 44760, Note_on_c, 2, 53, 0
4, 44760, Note_on_c, 2, 55, 64
4, 44820, Note_on_c, 2, 55, 0
4, 44820, Note_on_c, 2, 57, 64
4, 44880, Note_on_c, 2, 57, 0
4, 44880, Note_on_c, 2, 59, 64
4, 44940, Note_on_c, 2, 59, 0
4, 44940, Note_on_c, 2, 60, 64
4, 45000, Note_on_c, 2, 60, 0
4, 45000, Note_on_c, 2, 62, 64
4, 45060, Note_on_c, 2, 62, 0
4, 45060, Note_on_c, 2, 59, 64
4, 45120, Note_on_c, 2, 59, 0
4, 45120, Note_on_c, 2, 55, 64
4, 45360, Note_on_c, 2, 55, 0
4, 46200, Note_on_c, 2, 57, 64
4, 46260, Note_on_c, 2, 57, 0
4, 46260, Note_on_c, 2, 58, 64
4, 46320, Note_on_c, 2, 58, 0
4, 46320, Note_on_c, 2, 57, 64
4, 46440, Note_on_c, 2, 57, 0
4, 46440, Note_on_c, 2, 55, 64
4, 46560, Note_on_c, 2, 55, 0
4, 46560, Note_on_c, 2, 53, 64
4, 46680, Note_on_c, 2, 53, 0
4, 46680, Note_on_c, 2, 53, 64
4, 46740, Note_on_c, 2, 53, 0
4, 46740, Note_on_c, 2, 55, 64
4, 46800, Note_on_c, 2, 55, 0
4, 46800, Note_on_c, 2, 53, 64
4, 46920, Note_on_c, 2, 53, 0
4, 46920, Note_on_c, 2, 52, 64
4, 47040, Note_on_c, 2, 52, 0
4, 47040, Note_on_c, 2, 50, 64
4, 47100, Note_on_c, 2, 50, 0
4, 47100, Note_on_c, 2, 52, 64
4, 47160, Note_on_c, 2, 52, 0
4, 47160, Note_on_c, 2, 53, 64
4, 47220, Note_on_c, 2, 53, 0
4, 47220, Note_on_c, 2, 52, 64
4, 47280, Note_on_c, 2, 52, 0
4, 47280, Note_on_c, 2, 50, 64
4, 47400, Note_on_c, 2, 50, 0
4, 47400, Note_on_c, 2, 48, 64
4, 47520, Note_on_c, 2, 48, 0
4, 47520, Note_on_c, 2, 59, 64
4, 47640, Note_on_c, 2, 59, 0
4, 47640, Note_on_c, 2, 62, 64
4, 47760, Note_on_c, 2, 62, 0
4, 47880, Note_on_c, 2, 57, 64
4, 48000, Note_on_c, 2, 57, 0
4, 48000, Note_on_c, 2, 55, 64
4, 48060, Note_on_c, 2, 55, 0
4, 48060, Note_on_c, 2, 53, 64
4, 48120, Note_on_c, 2, 53, 0
4, 48120, Note_on_c, 2, 57, 64
4, 48180, Note_on_c, 2, 57, 0
4, 48180, Note_on_c, 2, 55, 64
4, 48240, Note_on_c, 2, 55, 0
4, 48240, Note_on_c, 2, 53, 64
4, 48300, Note_on_c, 2, 53, 0
4, 48300, Note_on_c, 2, 52, 64
4, 48360, Note_on_c, 2, 52, 0
4, 48360, Note_on_c, 2, 55, 64
4, 48420, Note_on_c, 2, 55, 0
4, 48420, Note_on_c, 2, 53, 64
4, 48480, Note_on_c, 2, 53, 0
4, 48480, Note_on_c, 2, 52, 64
4, 48600, Note_on_c, 2, 52, 0
4, 48600, Note_on_c, 2, 53, 64
4, 48720, Note_on_c, 2, 53, 0
4, 48720, Note_on_c, 2, 55, 64
4, 48840, Note_on_c, 2, 55, 0
4, 48840, Note_on_c, 2, 50, 64
4, 48960, Note_on_c, 2, 50, 0
4, 48960, Note_on_c, 2, 57, 64
4, 49020, Note_on_c, 2, 57, 0
4, 49020, Note_on_c, 2, 59, 64
4, 49080, Note_on_c, 2, 59, 0
4, 49140, Note_on_c, 2, 59, 64
4, 49200, Note_on_c, 2, 59, 0
4, 49200, Note_on_c, 2, 60, 70
4, 49220, Note_on_c, 2, 60, 0
4, 49220, Note_on_c, 2, 59, 50
4, 49240, Note_on_c, 2, 59, 0
4, 49240, Note_on_c, 2, 60, 52
4, 49260, Note_on_c, 2, 60, 0
4, 49260, Note_on_c, 2, 59, 54
4, 49280, Note_on_c, 2, 59, 0
4, 49280, Note_on_c, 2, 60, 57
4, 49300, Note_on_c, 2, 60, 0
4, 49300, Note_on_c, 2, 59, 59
4, 49320, Note_on_c, 2, 59, 0
4, 49320, Note_on_c, 2, 60, 61
4, 49340, Note_on_c, 2, 60, 0
4, 49340, Note_on_c, 2, 59, 63
4, 49380, Note_on_c, 2, 59, 0
4, 49380, Note_on_c, 2, 57, 64
4, 49410, Note_on_c, 2, 57, 0
4, 49410, Note_on_c, 2, 59, 64
4, 49440, Note_on_c, 2, 59, 0
4, 49440, Note_on_c, 2, 60, 64
4, 50040, Note_on_c, 2, 60, 0
4, 50040, Note_on_c, 2, 54, 64
4, 50160, Note_on_c, 2, 54, 0
4, 50160, Note_on_c, 2, 55, 64
4, 50280, Note_on_c, 2, 55, 0
4, 50280, Note_on_c, 2, 57, 64
4, 50400, Note_on_c, 2, 57, 0
4, 50400, Note_on_c, 2, 59, 64
4, 50520, Note_on_c, 2, 59, 0
4, 50520, Note_on_c, 2, 50, 64
4, 50640, Note_on_c, 2, 50, 0
4, 50640, Note_on_c, 2, 52, 64
4, 50760, Note_on_c, 2, 52, 0
4, 50760, Note_on_c, 2, 54, 64
4, 50880, Note_on_c, 2, 54, 0
4, 50880, Note_on_c, 2, 55, 64
4, 51240, Note_on_c, 2, 55, 0
4, 51240, Note_on_c, 2, 57, 64
4, 51360, Note_on_c, 2, 57, 0
4, 51360, Note_on_c, 2, 59, 64
4, 51960, Note_on_c, 2, 59, 0
4, 51960, Note_on_c, 2, 52, 64
4, 52080, Note_on_c, 2, 52, 0
4, 52080, Note_on_c, 2, 54, 64
4, 52200, Note_on_c, 2, 54, 0
4, 52200, Note_on_c, 2, 55, 64
4, 52320, Note_on_c, 2, 55, 0
4, 52320, Note_on_c, 2, 57, 64
4, 52440, Note_on_c, 2, 57, 0
4, 52440, Note_on_c, 2, 50, 64
4, 52560, Note_on_c, 2, 50, 0
4, 52560, Note_on_c, 2, 52, 64
4, 52680, Note_on_c, 2, 52, 0
4, 52680, Note_on_c, 2, 50, 64
4, 52740, Note_on_c, 2, 50, 0
4, 52740, Note_on_c, 2, 52, 64
4, 52800, Note_on_c, 2, 52, 0
4, 52800, Note_on_c, 2, 54, 64
4, 52860, Note_on_c, 2, 54, 0
4, 52860, Note_on_c, 2, 55, 64
4, 52920, Note_on_c, 2, 55, 0
4, 52920, Note_on_c, 2, 52, 64
4, 52980, Note_on_c, 2, 52, 0
4, 52980, Note_on_c, 2, 54, 64
4, 53040, Note_on_c, 2, 54, 0
4, 53040, Note_on_c, 2, 55, 64
4, 53100, Note_on_c, 2, 55, 0
4, 53100, Note_on_c, 2, 57, 64
4, 53160, Note_on_c, 2, 57, 0
4, 53160, Note_on_c, 2, 54, 64
4, 53220, Note_on_c, 2, 54, 0
4, 53220, Note_on_c, 2, 55, 64
4, 53280, Note_on_c, 2, 55, 0
4, 53280, Note_on_c, 2, 57, 64
4, 53400, Note_on_c, 2, 57, 0
4, 53400, Note_on_c, 2, 59, 64
4, 53460, Note_on_c, 2, 59, 0
4, 53460, Note_on_c, 2, 60, 64
4, 53520, Note_on_c, 2, 60, 0
4, 53520, Note_on_c, 2, 59, 64
4, 53580, Note_on_c, 2, 59, 0
4, 53580, Note_on_c, 2, 60, 64
4, 53640, Note_on_c, 2, 60, 0
4, 53640, Note_on_c, 2, 57, 64
4, 53700, Note_on_c, 2, 57, 0
4, 53700, Note_on_c, 2, 59, 64
4, 53760, Note_on_c, 2, 59, 0
4, 53760, Note_on_c, 2, 60, 64
4, 53880, Note_on_c, 2, 60, 0
4, 53880, Note_on_c, 2, 62, 64
4, 53940, Note_on_c, 2, 62, 0
4, 53940, Note_on_c, 2, 64, 64
4, 54000, Note_on_c, 2, 64, 0
4, 54000, Note_on_c, 2, 62, 64
4, 54120, Note_on_c, 2, 62, 0
4, 54120, Note_on_c, 2, 60, 64
4, 54240, Note_on_c, 2, 60, 0
4, 54240, Note_on_c, 2, 59, 64
4, 54360, Note_on_c, 2, 59, 0
4, 54360, Note_on_c, 2, 56, 64
4, 54480, Note_on_c, 2, 56, 0
4, 54480, Note_on_c, 2, 57, 64
4, 54600, Note_on_c, 2, 57, 0
4, 54600, Note_on_c, 2, 59, 64
4, 54720, Note_on_c, 2, 59, 0
4, 54720, Note_on_c, 2, 60, 64
4, 54840, Note_on_c, 2, 60, 0
4, 54840, Note_on_c, 2, 52, 64
4, 54960, Note_on_c, 2, 52, 0
4, 54960, Note_on_c, 2, 54, 64
4, 55080, Note_on_c, 2, 54, 0
4, 55080, Note_on_c, 2, 56, 64
4, 55200, Note_on_c, 2, 56, 0
4, 55200, Note_on_c, 2, 57, 64
4, 55440, Note_on_c, 2, 57, 0
4, 55560, Note_on_c, 2, 52, 64
4, 55680, Note_on_c, 2, 52, 0
4, 55680, Note_on_c, 2, 53, 64
4, 55800, Note_on_c, 2, 53, 0
4, 55800, Note_on_c, 2, 55, 64
4, 55920, Note_on_c, 2, 55, 0
4, 55920, Note_on_c, 2, 57, 64
4, 56040, Note_on_c, 2, 57, 0
4, 56040, Note_on_c, 2, 58, 64
4, 56160, Note_on_c, 2, 58, 0
4, 56160, Note_on_c, 2, 57, 64
4, 56280, Note_on_c, 2, 57, 0
4, 56280, Note_on_c, 2, 56, 64
4, 56340, Note_on_c, 2, 56, 0
4, 56340, Note_on_c, 2, 54, 64
4, 56400, Note_on_c, 2, 54, 0
4, 56400, Note_on_c, 2, 52, 64
4, 56520, Note_on_c, 2, 52, 0
4, 56520, Note_on_c, 2, 57, 64
4, 56640, Note_on_c, 2, 57, 0
4, 56640, Note_on_c, 2, 53, 64
4, 56760, Note_on_c, 2, 53, 0
4, 56760, Note_on_c, 2, 52, 64
4, 57000, Note_on_c, 2, 52, 0
4, 57000, Note_on_c, 2, 53, 64
4, 57060, Note_on_c, 2, 53, 0
4, 57060, Note_on_c, 2, 51, 64
4, 57120, Note_on_c, 2, 51, 0
4, 57120, Note_on_c, 2, 52, 64
4, 58680, Note_on_c, 2, 52, 0
4, 59160, Note_on_c, 2, 52, 64
4, 59220, Note_on_c, 2, 52, 0
4, 59220, Note_on_c, 2, 53, 64
4, 59280, Note_on_c, 2, 53, 0
4, 59280, Note_on_c, 2, 52, 64
4, 59400, Note_on_c, 2, 52, 0
4, 59400, Note_on_c, 2, 50, 64
4, 59520, Note_on_c, 2, 50, 0
4, 59520, Note_on_c, 2, 49, 64
4, 59640, Note_on_c, 2, 49, 0
4, 59700, Note_on_c, 2, 50, 64
4, 59760, Note_on_c, 2, 50, 0
4, 59760, Note_on_c, 2, 49, 64
4, 59880, Note_on_c, 2, 49, 0
4, 59880, Note_on_c, 2, 46, 64
4, 60000, Note_on_c, 2, 46, 0
4, 60000, Note_on_c, 2, 45, 64
4, 60240, Note_on_c, 2, 45, 0
4, 60360, Note_on_c, 2, 65, 64
4, 60420, Note_on_c, 2, 65, 0
4, 60420, Note_on_c, 2, 64, 64
4, 60480, Note_on_c, 2, 64, 0
4, 60480, Note_on_c, 2, 62, 64
4, 60840, Note_on_c, 2, 62, 0
4, 60840, Note_on_c, 2, 61, 64
4, 60960, Note_on_c, 2, 61, 0
4, 60960, Note_on_c, 2, 62, 64
4, 61080, Note_on_c, 2, 62, 0
4, 61080, Note_on_c, 2, 57, 64
4, 61200, Note_on_c, 2, 57, 0
4, 61560, Note_on_c, 2, 57, 64
4, 61620, Note_on_c, 2, 57, 0
4, 61620, Note_on_c, 2, 56, 64
4, 61680, Note_on_c, 2, 56, 0
4, 61680, Note_on_c, 2, 57, 64
4, 61800, Note_on_c, 2, 57, 0
4, 61800, Note_on_c, 2, 59, 64
4, 61920, Note_on_c, 2, 59, 0
4, 61920, Note_on_c, 2, 60, 64
4, 62040, Note_on_c, 2, 60, 0
4, 62040, Note_on_c, 2, 60, 64
4, 62100, Note_on_c, 2, 60, 0
4, 62100, Note_on_c, 2, 59, 64
4, 62160, Note_on_c, 2, 59, 0
4, 62160, Note_on_c, 2, 60, 64
4, 62280, Note_on_c, 2, 60, 0
4, 62280, Note_on_c, 2, 62, 64
4, 62400, Note_on_c, 2, 62, 0
4, 62400, Note_on_c, 2, 64, 64
4, 62460, Note_on_c, 2, 64, 0
4, 62460, Note_on_c, 2, 62, 64
4, 62520, Note_on_c, 2, 62, 0
4, 62520, Note_on_c, 2, 60, 64
4, 62580, Note_on_c, 2, 60, 0
4, 62580, Note_on_c, 2, 62, 64
4, 62640, Note_on_c, 2, 62, 0
4, 62640, Note_on_c, 2, 64, 64
4, 62760, Note_on_c, 2, 64, 0
4, 62760, Note_on_c, 2, 65, 64
4, 62880, Note_on_c, 2, 65, 0
4, 62880, Note_on_c, 2, 56, 64
4, 63000, Note_on_c, 2, 56, 0
4, 63000, Note_on_c, 2, 52, 64
4, 63120, Note_on_c, 2, 52, 0
4, 63240, Note_on_c, 2, 57, 64
4, 63360, Note_on_c, 2, 57, 0
4, 63360, Note_on_c, 2, 59, 64
4, 63420, Note_on_c, 2, 59, 0
4, 63420, Note_on_c, 2, 60, 64
4, 63480, Note_on_c, 2, 60, 0
4, 63480, Note_on_c, 2, 57, 64
4, 63540, Note_on_c, 2, 57, 0
4, 63540, Note_on_c, 2, 59, 64
4, 63600, Note_on_c, 2, 59, 0
4, 63600, Note_on_c, 2, 60, 64
4, 63660, Note_on_c, 2, 60, 0
4, 63660, Note_on_c, 2, 62, 64
4, 63720, Note_on_c, 2, 62, 0
4, 63720, Note_on_c, 2, 59, 64
4, 63780, Note_on_c, 2, 59, 0
4, 63780, Note_on_c, 2, 61, 64
4, 63840, Note_on_c, 2, 61, 0
4, 63840, Note_on_c, 2, 62, 64
4, 63960, Note_on_c, 2, 62, 0
4, 63960, Note_on_c, 2, 60, 64
4, 64080, Note_on_c, 2, 60, 0
4, 64080, Note_on_c, 2, 59, 64
4, 64200, Note_on_c, 2, 59, 0
4, 64200, Note_on_c, 2, 64, 64
4, 64320, Note_on_c, 2, 64, 0
4, 64920, Note_on_c, 2, 57, 64
4, 64980, Note_on_c, 2, 57, 0
4, 64980, Note_on_c, 2, 58, 64
4, 65040, Note_on_c, 2, 58, 0
4, 65040, Note_on_c, 2, 60, 64
4, 65160, Note_on_c, 2, 60, 0
4, 65160, Note_on_c, 2, 58, 64
4, 65280, Note_on_c, 2, 58, 0
4, 65280, Note_on_c, 2, 57, 64
4, 65400, Note_on_c, 2, 57, 0
4, 65400, Note_on_c, 2, 62, 64
4, 65460, Note_on_c, 2, 62, 0
4, 65460, Note_on_c, 2, 64, 64
4, 65520, Note_on_c, 2, 64, 0
4, 65520, Note_on_c, 2, 65, 64
4, 65580, Note_on_c, 2, 65, 0
4, 65580, Note_on_c, 2, 67, 64
4, 65640, Note_on_c, 2, 67, 0
4, 65640, Note_on_c, 2, 69, 64
4, 65880, Note_on_c, 2, 69, 0
4, 65880, Note_on_c, 2, 67, 64
4, 66120, Note_on_c, 2, 67, 0
4, 66120, Note_on_c, 2, 65, 64
4, 66360, Note_on_c, 2, 65, 0
4, 66360, Note_on_c, 2, 64, 64
4, 66480, Note_on_c, 2, 64, 0
4, 66480, Note_on_c, 2, 62, 64
4, 66780, Note_on_c, 2, 62, 0
4, 66780, Note_on_c, 2, 61, 64
4, 66840, Note_on_c, 2, 61, 0
4, 66840, Note_on_c, 2, 64, 64
4, 66900, Note_on_c, 2, 64, 0
4, 66900, Note_on_c, 2, 62, 64
4, 66960, Note_on_c, 2, 62, 0
4, 66960, Note_on_c, 2, 61, 64
4, 67020, Note_on_c, 2, 61, 0
4, 67020, Note_on_c, 2, 59, 64
4, 67080, Note_on_c, 2, 59, 0
4, 67080, Note_on_c, 2, 62, 64
4, 67140, Note_on_c, 2, 62, 0
4, 67140, Note_on_c, 2, 61, 64
4, 67200, Note_on_c, 2, 61, 0
4, 67200, Note_on_c, 2, 62, 64
4, 67500, Note_on_c, 2, 62, 0
4, 67500, Note_on_c, 2, 59, 64
4, 67560, Note_on_c, 2, 59, 0
4, 67560, Note_on_c, 2, 61, 64
4, 67620, Note_on_c, 2, 61, 0
4, 67620, Note_on_c, 2, 64, 64
4, 67680, Note_on_c, 2, 64, 0
4, 67680, Note_on_c, 2, 65, 64
4, 67980, Note_on_c, 2, 65, 0
4, 67980, Note_on_c, 2, 62, 64
4, 68040, Note_on_c, 2, 62, 0
4, 68040, Note_on_c, 2, 64, 64
4, 68100, Note_on_c, 2, 64, 0
4, 68100, Note_on_c, 2, 67, 64
4, 68160, Note_on_c, 2, 67, 0
4, 68160, Note_on_c, 2, 69, 64
4, 68460, Note_on_c, 2, 69, 0
4, 68460, Note_on_c, 2, 65, 64
4, 68520, Note_on_c, 2, 65, 0
4, 68520, Note_on_c, 2, 67, 64
4, 68580, Note_on_c, 2, 67, 0
4, 68580, Note_on_c, 2, 70, 64
4, 68640, Note_on_c, 2, 70, 0
4, 68640, Note_on_c, 2, 64, 64
4, 68760, Note_on_c, 2, 64, 0
4, 68760, Note_on_c, 2, 65, 64
4, 68880, Note_on_c, 2, 65, 0
4, 68880, Note_on_c, 2, 58, 64
4, 69120, Note_on_c, 2, 58, 0
4, 69120, Note_on_c, 2, 60, 64
4, 69720, Note_on_c, 2, 60, 0
4, 69720, Note_on_c, 2, 48, 64
4, 69840, Note_on_c, 2, 48, 0
4, 69840, Note_on_c, 2, 50, 64
4, 69960, Note_on_c, 2, 50, 0
4, 69960, Note_on_c, 2, 52, 64
4, 70080, Note_on_c, 2, 52, 0
4, 70080, Note_on_c, 2, 53, 64
4, 70200, Note_on_c, 2, 53, 0
4, 70200, Note_on_c, 2, 52, 64
4, 70320, Note_on_c, 2, 52, 0
4, 70320, Note_on_c, 2, 53, 64
4, 70440, Note_on_c, 2, 53, 0
4, 70440, Note_on_c, 2, 55, 64
4, 70560, Note_on_c, 2, 55, 0
4, 70560, Note_on_c, 2, 57, 64
4, 70620, Note_on_c, 2, 57, 0
4, 70620, Note_on_c, 2, 55, 64
4, 70680, Note_on_c, 2, 55, 0
4, 70740, Note_on_c, 2, 55, 64
4, 70800, Note_on_c, 2, 55, 0
4, 70800, Note_on_c, 2, 57, 64
4, 70860, Note_on_c, 2, 57, 0
4, 70860, Note_on_c, 2, 58, 64
4, 70920, Note_on_c, 2, 58, 0
4, 70920, Note_on_c, 2, 60, 64
4, 71040, Note_on_c, 2, 60, 0
4, 71040, Note_on_c, 2, 54, 64
4, 71160, Note_on_c, 2, 54, 0
4, 71160, Note_on_c, 2, 57, 64
4, 71280, Note_on_c, 2, 57, 0
4, 71280, Note_on_c, 2, 55, 64
4, 71400, Note_on_c, 2, 55, 0
4, 71400, Note_on_c, 2, 54, 64
4, 71520, Note_on_c, 2, 54, 0
4, 71520, Note_on_c, 2, 55, 64
4, 71640, Note_on_c, 2, 55, 0
4, 71640, Note_on_c, 2, 53, 64
4, 71760, Note_on_c, 2, 53, 0
4, 71760, Note_on_c, 2, 51, 64
4, 71880, Note_on_c, 2, 51, 0
4, 71880, Note_on_c, 2, 50, 64
4, 72120, Note_on_c, 2, 50, 0
4, 72120, Note_on_c, 2, 55, 64
4, 72180, Note_on_c, 2, 55, 0
4, 72180, Note_on_c, 2, 57, 64
4, 72240, Note_on_c, 2, 57, 0
4, 72240, Note_on_c, 2, 55, 64
4, 72360, Note_on_c, 2, 55, 0
4, 72360, Note_on_c, 2, 53, 64
4, 72480, Note_on_c, 2, 53, 0
4, 72480, Note_on_c, 2, 52, 64
4, 72600, Note_on_c, 2, 52, 0
4, 72600, Note_on_c, 2, 52, 64
4, 72660, Note_on_c, 2, 52, 0
4, 72660, Note_on_c, 2, 53, 64
4, 72720, Note_on_c, 2, 53, 0
4, 72720, Note_on_c, 2, 52, 64
4, 72840, Note_on_c, 2, 52, 0
4, 72840, Note_on_c, 2, 50, 64
4, 72960, Note_on_c, 2, 50, 0
4, 72960, Note_on_c, 2, 49, 64
4, 73020, Note_on_c, 2, 49, 0
4, 73020, Note_on_c, 2, 50, 64
4, 73080, Note_on_c, 2, 50, 0
4, 73080, Note_on_c, 2, 52, 64
4, 73140, Note_on_c, 2, 52, 0
4, 73140, Note_on_c, 2, 50, 64
4, 73200, Note_on_c, 2, 50, 0
4, 73200, Note_on_c, 2, 49, 64
4, 73320, Note_on_c, 2, 49, 0
4, 73320, Note_on_c, 2, 47, 64
4, 73440, Note_on_c, 2, 47, 0
4, 73440, Note_on_c, 2, 57, 64
4, 73560, Note_on_c, 2, 57, 0
4, 73560, Note_on_c, 2, 61, 64
4, 73680, Note_on_c, 2, 61, 0
4, 73800, Note_on_c, 2, 69, 64
4, 73920, Note_on_c, 2, 69, 0
4, 73920, Note_on_c, 2, 70, 64
4, 74100, Note_on_c, 2, 70, 0
4, 74100, Note_on_c, 2, 69, 64
4, 74160, Note_on_c, 2, 69, 0
4, 74160, Note_on_c, 2, 67, 64
4, 74220, Note_on_c, 2, 67, 0
4, 74220, Note_on_c, 2, 65, 64
4, 74280, Note_on_c, 2, 65, 0
4, 74280, Note_on_c, 2, 64, 64
4, 74340, Note_on_c, 2, 64, 0
4, 74340, Note_on_c, 2, 62, 64
4, 74400, Note_on_c, 2, 62, 0
4, 74400, Note_on_c, 2, 61, 64
4, 74640, Note_on_c, 2, 61, 0
4, 74760, Note_on_c, 2, 61, 64
4, 74880, Note_on_c, 2, 61, 0
4, 74880, Note_on_c, 2, 62, 64
4, 75000, Note_on_c, 2, 62, 0
4, 75000, Note_on_c, 2, 65, 64
4, 75120, Note_on_c, 2, 65, 0
4, 75120, Note_on_c, 2, 62, 64
4, 75240, Note_on_c, 2, 62, 0
4, 75240, Note_on_c, 2, 57, 64
4, 75360, Note_on_c, 2, 57, 0
4, 75360, Note_on_c, 2, 58, 64
4, 75480, Note_on_c, 2, 58, 0
4, 75480, Note_on_c, 2, 53, 64
4, 75600, Note_on_c, 2, 53, 0
4, 75600, Note_on_c, 2, 58, 64
4, 75720, Note_on_c, 2, 58, 0
4, 75720, Note_on_c, 2, 62, 64
4, 75840, Note_on_c, 2, 62, 0
4, 75840, Note_on_c, 2, 59, 64
4, 75840, Note_on_c, 2, 64, 64
4, 76080, Note_on_c, 2, 64, 0
4, 76080, Note_on_c, 2, 59, 0
4, 76320, Note_on_c, 2, 60, 64
4, 76320, Note_on_c, 2, 57, 64
4, 76560, Note_on_c, 2, 57, 0
4, 76560, Note_on_c, 2, 60, 0
4, 76800, Note_on_c, 2, 60, 64
4, 76800, Note_on_c, 2, 57, 64
4, 77040, Note_on_c, 2, 57, 0
4, 77040, Note_on_c, 2, 60, 0
4, 77280, Note_on_c, 2, 59, 64
4, 77280, Note_on_c, 2, 62, 64
4, 77520, Note_on_c, 2, 62, 0
4, 77520, Note_on_c, 2, 59, 0
4, 77880, Note_on_c, 2, 59, 64
4, 77940, Note_on_c, 2, 59, 0
4, 77940, Note_on_c, 2, 60, 64
4, 78000, Note_on_c, 2, 60, 0
4, 78240, Note_on_c, 2, 57, 64
4, 78480, Note_on_c, 2, 57, 0
4, 78600, Note_on_c, 2, 59, 64
4, 78720, Note_on_c, 2, 59, 0
4, 78720, Note_on_c, 2, 60, 64
4, 78840, Note_on_c, 2, 60, 0
4, 78840, Note_on_c, 2, 62, 64
4, 78960, Note_on_c, 2, 62, 0
4, 78960, Note_on_c, 2, 60, 64
4, 79080, Note_on_c, 2, 60, 0
4, 79080, Note_on_c, 2, 59, 64
4, 79200, Note_on_c, 2, 59, 0
4, 79200, Note_on_c, 2, 57, 64
4, 79320, Note_on_c, 2, 57, 0
4, 79320, Note_on_c, 2, 57, 64
4, 79380, Note_on_c, 2, 57, 0
4, 79380, Note_on_c, 2, 58, 64
4, 79440, Note_on_c, 2, 58, 0
4, 79440, Note_on_c, 2, 57, 64
4, 79560, Note_on_c, 2, 57, 0
4, 79560, Note_on_c, 2, 55, 64
4, 79680, Note_on_c, 2, 55, 0
4, 79680, Note_on_c, 2, 53, 64
4, 79800, Note_on_c, 2, 53, 0
4, 79800, Note_on_c, 2, 53, 64
4, 79860, Note_on_c, 2, 53, 0
4, 79860, Note_on_c, 2, 55, 64
4, 79920, Note_on_c, 2, 55, 0
4, 79920, Note_on_c, 2, 53, 64
4, 80040, Note_on_c, 2, 53, 0
4, 80040, Note_on_c, 2, 52, 64
4, 80160, Note_on_c, 2, 52, 0
4, 80160, Note_on_c, 2, 50, 64
4, 80220, Note_on_c, 2, 50, 0
4, 80220, Note_on_c, 2, 52, 64
4, 80280, Note_on_c, 2, 52, 0
4, 80280, Note_on_c, 2, 53, 64
4, 80340, Note_on_c, 2, 53, 0
4, 80340, Note_on_c, 2, 52, 64
4, 80400, Note_on_c, 2, 52, 0
4, 80400, Note_on_c, 2, 50, 64
4, 80520, Note_on_c, 2, 50, 0
4, 80520, Note_on_c, 2, 49, 64
4, 80640, Note_on_c, 2, 49, 0
4, 80640, Note_on_c, 2, 50, 64
4, 80760, Note_on_c, 2, 50, 0
4, 80760, Note_on_c, 2, 53, 64
4, 80880, Note_on_c, 2, 53, 0
4, 80880, Note_on_c, 2, 52, 64
4, 81000, Note_on_c, 2, 52, 0
4, 81000, Note_on_c, 2, 50, 64
4, 81120, Note_on_c, 2, 50, 0
4, 81120, Note_on_c, 2, 55, 64
4, 81360, Note_on_c, 2, 55, 0
4, 81480, Note_on_c, 2, 53, 64
4, 81600, Note_on_c, 2, 53, 0
4, 81600, Note_on_c, 2, 52, 64
4, 81840, Note_on_c, 2, 52, 0
4, 81960, Note_on_c, 2, 50, 64
4, 82080, Note_on_c, 2, 50, 0
4, 82080, Note_on_c, 2, 59, 64
4, 82440, Note_on_c, 2, 62, 64
4, 82500, Note_on_c, 2, 62, 0
4, 82500, Note_on_c, 2, 64, 64
4, 82560, Note_on_c, 2, 64, 0
4, 82560, Note_on_c, 2, 59, 0
4, 82560, Note_on_c, 2, 65, 64
4, 82560, Note_on_c, 2, 57, 64
4, 82680, Note_on_c, 2, 65, 0
4, 82680, Note_on_c, 2, 61, 64
4, 82680, Note_on_c, 2, 64, 64
4, 82740, Note_on_c, 2, 64, 0
4, 82740, Note_on_c, 2, 61, 0
4, 82740, Note_on_c, 2, 62, 64
4, 82740, Note_on_c, 2, 59, 64
4, 82800, Note_on_c, 2, 59, 0
4, 82800, Note_on_c, 2, 62, 0
4, 82800, Note_on_c, 2, 61, 64
4, 82800, Note_on_c, 2, 64, 64
4, 82920, Note_on_c, 2, 64, 0
4, 82920, Note_on_c, 2, 61, 0
4, 82920, Note_on_c, 2, 62, 64
4, 82920, Note_on_c, 2, 65, 64
4, 83040, Note_on_c, 2, 65, 0
4, 83040, Note_on_c, 2, 62, 0
4, 83040, Note_on_c, 2, 64, 64
4, 83520, Note_on_c, 2, 64, 0
4, 83520, Note_on_c, 2, 57, 0
4, 83520, End_track
5, 0, Start_track
5, 0, MIDI_port, 0
5, 0, Title_t, "LH L"
5, 0, Program_c, 3, 6
5, 6840, Note_on_c, 3, 45, 64
5, 6900, Note_on_c, 3, 45, 0
5, 6900, Note_on_c, 3, 44, 64
5, 6960, Note_on_c, 3, 44, 0
5, 6960, Note_on_c, 3, 45, 64
5, 7080, Note_on_c, 3, 45, 0
5, 7080, Note_on_c, 3, 47, 64
5, 7200, Note_on_c, 3, 47, 0
5, 7200, Note_on_c, 3, 48, 64
5, 7320, Note_on_c, 3, 48, 0
5, 7320, Note_on_c, 3, 48, 64
5, 7380, Note_on_c, 3, 48, 0
5, 7380, Note_on_c, 3, 47, 64
5, 7440, Note_on_c, 3, 47, 0
5, 7440, Note_on_c, 3, 48, 64
5, 7560, Note_on_c, 3, 48, 0
5, 7560, Note_on_c, 3, 50, 64
5, 7680, Note_on_c, 3, 50, 0
5, 7680, Note_on_c, 3, 52, 64
5, 7740, Note_on_c, 3, 52, 0
5, 7740, Note_on_c, 3, 50, 64
5, 7800, Note_on_c, 3, 50, 0
5, 7800, Note_on_c, 3, 48, 64
5, 7860, Note_on_c, 3, 48, 0
5, 7860, Note_on_c, 3, 50, 64
5, 7920, Note_on_c, 3, 50, 0
5, 7920, Note_on_c, 3, 52, 64
5, 8040, Note_on_c, 3, 52, 0
5, 8040, Note_on_c, 3, 53, 64
5, 8160, Note_on_c, 3, 53, 0
5, 8160, Note_on_c, 3, 44, 64
5, 8280, Note_on_c, 3, 44, 0
5, 8280, Note_on_c, 3, 40, 64
5, 8400, Note_on_c, 3, 40, 0
5, 8520, Note_on_c, 3, 45, 64
5, 8640, Note_on_c, 3, 45, 0
5, 8640, Note_on_c, 3, 47, 64
5, 8700, Note_on_c, 3, 47, 0
5, 8700, Note_on_c, 3, 48, 64
5, 8760, Note_on_c, 3, 48, 0
5, 8760, Note_on_c, 3, 45, 64
5, 8820, Note_on_c, 3, 45, 0
5, 8820, Note_on_c, 3, 47, 64
5, 8880, Note_on_c, 3, 47, 0
5, 8880, Note_on_c, 3, 49, 64
5, 8940, Note_on_c, 3, 49, 0
5, 8940, Note_on_c, 3, 50, 64
5, 9000, Note_on_c, 3, 50, 0
5, 9000, Note_on_c, 3, 47, 64
5, 9060, Note_on_c, 3, 47, 0
5, 9060, Note_on_c, 3, 49, 64
5, 9120, Note_on_c, 3, 49, 0
5, 9120, Note_on_c, 3, 50, 64
5, 9240, Note_on_c, 3, 50, 0
5, 9240, Note_on_c, 3, 48, 64
5, 9360, Note_on_c, 3, 48, 0
5, 9360, Note_on_c, 3, 47, 64
5, 9480, Note_on_c, 3, 47, 0
5, 9480, Note_on_c, 3, 52, 64
5, 9600, Note_on_c, 3, 52, 0
5, 9600, Note_on_c, 3, 45, 64
5, 9720, Note_on_c, 3, 45, 0
5, 9720, Note_on_c, 3, 47, 64
5, 9840, Note_on_c, 3, 47, 0
5, 9840, Note_on_c, 3, 49, 64
5, 9960, Note_on_c, 3, 49, 0
5, 9960, Note_on_c, 3, 51, 64
5, 10080, Note_on_c, 3, 51, 0
5, 10080, Note_on_c, 3, 52, 64
5, 10200, Note_on_c, 3, 52, 0
5, 10200, Note_on_c, 3, 52, 64
5, 10260, Note_on_c, 3, 52, 0
5, 10260, Note_on_c, 3, 50, 64
5, 10320, Note_on_c, 3, 50, 0
5, 10320, Note_on_c, 3, 52, 64
5, 10440, Note_on_c, 3, 52, 0
5, 10440, Note_on_c, 3, 54, 64
5, 10560, Note_on_c, 3, 54, 0
5, 10560, Note_on_c, 3, 55, 64
5, 10800, Note_on_c, 3, 55, 0
5, 10920, Note_on_c, 3, 57, 64
5, 11040, Note_on_c, 3, 57, 0
5, 11040, Note_on_c, 3, 59, 64
5, 11160, Note_on_c, 3, 59, 0
5, 11160, Note_on_c, 3, 47, 64
5, 11220, Note_on_c, 3, 47, 0
5, 11220, Note_on_c, 3, 45, 64
5, 11280, Note_on_c, 3, 45, 0
5, 11280, Note_on_c, 3, 43, 64
5, 11400, Note_on_c, 3, 43, 0
5, 11400, Note_on_c, 3, 40, 64
5, 11520, Note_on_c, 3, 40, 0
5, 11520, Note_on_c, 3, 45, 64
5, 11760, Note_on_c, 3, 45, 0
5, 11760, Note_on_c, 3, 47, 64
5, 12000, Note_on_c, 3, 47, 0
5, 12000, Note_on_c, 3, 48, 64
5, 12120, Note_on_c, 3, 48, 0
5, 12120, Note_on_c, 3, 47, 64
5, 12240, Note_on_c, 3, 47, 0
5, 12240, Note_on_c, 3, 45, 64
5, 12360, Note_on_c, 3, 45, 0
5, 12360, Note_on_c, 3, 47, 64
5, 12420, Note_on_c, 3, 47, 0
5, 12420, Note_on_c, 3, 45, 64
5, 12480, Note_on_c, 3, 45, 0
5, 12480, Note_on_c, 3, 43, 64
5, 12600, Note_on_c, 3, 43, 0
5, 12600, Note_on_c, 3, 45, 64
5, 12720, Note_on_c, 3, 45, 0
5, 12720, Note_on_c, 3, 47, 64
5, 12960, Note_on_c, 3, 47, 0
5, 12960, Note_on_c, 3, 52, 64
5, 13080, Note_on_c, 3, 52, 0
5, 13080, Note_on_c, 3, 50, 64
5, 13200, Note_on_c, 3, 50, 0
5, 13200, Note_on_c, 3, 48, 64
5, 13320, Note_on_c, 3, 48, 0
5, 13320, Note_on_c, 3, 47, 64
5, 13440, Note_on_c, 3, 47, 0
5, 13440, Note_on_c, 3, 45, 64
5, 13560, Note_on_c, 3, 45, 0
5, 13560, Note_on_c, 3, 59, 64
5, 13680, Note_on_c, 3, 59, 0
5, 13680, Note_on_c, 3, 57, 64
5, 13800, Note_on_c, 3, 57, 0
5, 13800, Note_on_c, 3, 55, 64
5, 13920, Note_on_c, 3, 55, 0
5, 13920, Note_on_c, 3, 54, 64
5, 14040, Note_on_c, 3, 54, 0
5, 14040, Note_on_c, 3, 55, 64
5, 14160, Note_on_c, 3, 55, 0
5, 14160, Note_on_c, 3, 54, 64
5, 14280, Note_on_c, 3, 54, 0
5, 14280, Note_on_c, 3, 52, 64
5, 14400, Note_on_c, 3, 52, 0
5, 14400, Note_on_c, 3, 50, 64
5, 14520, Note_on_c, 3, 50, 0
5, 14520, Note_on_c, 3, 52, 64
5, 14640, Note_on_c, 3, 52, 0
5, 14640, Note_on_c, 3, 50, 64
5, 14760, Note_on_c, 3, 50, 0
5, 14760, Note_on_c, 3, 48, 64
5, 14880, Note_on_c, 3, 48, 0
5, 14880, Note_on_c, 3, 47, 64
5, 15000, Note_on_c, 3, 47, 0
5, 15000, Note_on_c, 3, 55, 64
5, 15240, Note_on_c, 3, 55, 0
5, 15240, Note_on_c, 3, 54, 64
5, 15360, Note_on_c, 3, 54, 0
5, 15420, Note_on_c, 3, 52, 64
5, 15480, Note_on_c, 3, 52, 0
5, 15480, Note_on_c, 3, 50, 64
5, 15540, Note_on_c, 3, 50, 0
5, 15540, Note_on_c, 3, 48, 64
5, 15600, Note_on_c, 3, 48, 0
5, 15600, Note_on_c, 3, 47, 64
5, 15720, Note_on_c, 3, 47, 0
5, 15720, Note_on_c, 3, 52, 64
5, 15840, Note_on_c, 3, 52, 0
5, 15840, Note_on_c, 3, 48, 64
5, 15960, Note_on_c, 3, 48, 0
5, 15960, Note_on_c, 3, 45, 64
5, 16080, Note_on_c, 3, 45, 0
5, 16080, Note_on_c, 3, 50, 64
5, 16200, Note_on_c, 3, 50, 0
5, 16200, Note_on_c, 3, 38, 64
5, 16320, Note_on_c, 3, 38, 0
5, 16320, Note_on_c, 3, 43, 64
5, 16440, Note_on_c, 3, 43, 0
5, 19320, Note_on_c, 3, 57, 64
5, 19380, Note_on_c, 3, 57, 0
5, 19380, Note_on_c, 3, 58, 64
5, 19440, Note_on_c, 3, 58, 0
5, 19560, Note_on_c, 3, 55, 64
5, 19680, Note_on_c, 3, 55, 0
5, 19680, Note_on_c, 3, 53, 64
5, 19800, Note_on_c, 3, 53, 0
5, 19800, Note_on_c, 3, 53, 64
5, 19860, Note_on_c, 3, 53, 0
5, 19860, Note_on_c, 3, 55, 64
5, 19920, Note_on_c, 3, 55, 0
5, 19920, Note_on_c, 3, 53, 64
5, 20040, Note_on_c, 3, 53, 0
5, 20040, Note_on_c, 3, 52, 64
5, 20160, Note_on_c, 3, 52, 0
5, 20160, Note_on_c, 3, 50, 64
5, 20220, Note_on_c, 3, 50, 0
5, 20220, Note_on_c, 3, 52, 64
5, 20280, Note_on_c, 3, 52, 0
5, 20280, Note_on_c, 3, 53, 64
5, 20340, Note_on_c, 3, 53, 0
5, 20340, Note_on_c, 3, 52, 64
5, 20400, Note_on_c, 3, 52, 0
5, 20400, Note_on_c, 3, 50, 64
5, 20520, Note_on_c, 3, 50, 0
5, 20520, Note_on_c, 3, 48, 64
5, 20640, Note_on_c, 3, 48, 0
5, 20640, Note_on_c, 3, 59, 64
5, 20760, Note_on_c, 3, 59, 0
5, 20760, Note_on_c, 3, 62, 64
5, 20880, Note_on_c, 3, 62, 0
5, 21000, Note_on_c, 3, 57, 64
5, 21120, Note_on_c, 3, 57, 0
5, 21120, Note_on_c, 3, 55, 64
5, 21180, Note_on_c, 3, 55, 0
5, 21180, Note_on_c, 3, 53, 64
5, 21240, Note_on_c, 3, 53, 0
5, 21240, Note_on_c, 3, 57, 64
5, 21300, Note_on_c, 3, 57, 0
5, 21300, Note_on_c, 3, 55, 64
5, 21360, Note_on_c, 3, 55, 0
5, 21360, Note_on_c, 3, 53, 64
5, 21420, Note_on_c, 3, 53, 0
5, 21420, Note_on_c, 3, 52, 64
5, 21480, Note_on_c, 3, 52, 0
5, 21480, Note_on_c, 3, 55, 64
5, 21540, Note_on_c, 3, 55, 0
5, 21540, Note_on_c, 3, 53, 64
5, 21600, Note_on_c, 3, 53, 0
5, 21600, Note_on_c, 3, 52, 64
5, 21720, Note_on_c, 3, 52, 0
5, 21720, Note_on_c, 3, 53, 64
5, 21840, Note_on_c, 3, 53, 0
5, 21840, Note_on_c, 3, 55, 64
5, 21900, Note_on_c, 3, 55, 0
5, 21900, Note_on_c, 3, 52, 64
5, 21960, Note_on_c, 3, 52, 0
5, 21960, Note_on_c, 3, 50, 64
5, 22020, Note_on_c, 3, 50, 0
5, 22020, Note_on_c, 3, 48, 64
5, 22080, Note_on_c, 3, 48, 0
5, 22080, Note_on_c, 3, 53, 64
5, 22140, Note_on_c, 3, 53, 0
5, 22140, Note_on_c, 3, 52, 64
5, 22200, Note_on_c, 3, 52, 0
5, 22200, Note_on_c, 3, 50, 64
5, 22260, Note_on_c, 3, 50, 0
5, 22260, Note_on_c, 3, 48, 64
5, 22320, Note_on_c, 3, 48, 0
5, 22320, Note_on_c, 3, 50, 64
5, 22380, Note_on_c, 3, 50, 0
5, 22380, Note_on_c, 3, 52, 64
5, 22440, Note_on_c, 3, 52, 0
5, 22440, Note_on_c, 3, 53, 64
5, 22500, Note_on_c, 3, 53, 0
5, 22500, Note_on_c, 3, 50, 64
5, 22560, Note_on_c, 3, 50, 0
5, 22560, Note_on_c, 3, 47, 64
5, 22800, Note_on_c, 3, 47, 0
5, 22800, Note_on_c, 3, 48, 64
5, 22920, Note_on_c, 3, 48, 0
5, 22920, Note_on_c, 3, 50, 64
5, 23160, Note_on_c, 3, 50, 0
5, 23160, Note_on_c, 3, 52, 64
5, 23280, Note_on_c, 3, 52, 0
5, 23280, Note_on_c, 3, 50, 64
5, 23400, Note_on_c, 3, 50, 0
5, 23400, Note_on_c, 3, 48, 64
5, 23520, Note_on_c, 3, 48, 0
5, 23520, Note_on_c, 3, 47, 64
5, 23640, Note_on_c, 3, 47, 0
5, 23640, Note_on_c, 3, 50, 64
5, 23700, Note_on_c, 3, 50, 0
5, 23700, Note_on_c, 3, 48, 64
5, 23760, Note_on_c, 3, 48, 0
5, 23760, Note_on_c, 3, 47, 64
5, 23880, Note_on_c, 3, 47, 0
5, 23880, Note_on_c, 3, 45, 64
5, 24000, Note_on_c, 3, 45, 0
5, 24000, Note_on_c, 3, 44, 64
5, 24120, Note_on_c, 3, 44, 0
5, 24120, Note_on_c, 3, 45, 64
5, 24240, Note_on_c, 3, 45, 0
5, 24240, Note_on_c, 3, 47, 64
5, 24360, Note_on_c, 3, 47, 0
5, 24360, Note_on_c, 3, 44, 64
5, 24480, Note_on_c, 3, 44, 0
5, 24480, Note_on_c, 3, 45, 64
5, 24600, Note_on_c, 3, 45, 0
5, 24600, Note_on_c, 3, 47, 64
5, 24720, Note_on_c, 3, 47, 0
5, 24720, Note_on_c, 3, 48, 64
5, 24840, Note_on_c, 3, 48, 0
5, 24960, Note_on_c, 3, 50, 64
5, 25080, Note_on_c, 3, 50, 0
5, 25080, Note_on_c, 3, 47, 64
5, 25200, Note_on_c, 3, 47, 0
5, 25320, Note_on_c, 3, 40, 64
5, 25440, Note_on_c, 3, 40, 0
5, 25440, Note_on_c, 3, 45, 64
5, 25560, Note_on_c, 3, 45, 0
5, 25560, Note_on_c, 3, 57, 64
5, 25680, Note_on_c, 3, 57, 0
5, 25680, Note_on_c, 3, 48, 64
5, 25800, Note_on_c, 3, 48, 0
5, 25800, Note_on_c, 3, 52, 64
5, 25920, Note_on_c, 3, 52, 0
5, 25920, Note_on_c, 3, 45, 64
5, 26040, Note_on_c, 3, 45, 0
5, 26040, Note_on_c, 3, 53, 64
5, 26160, Note_on_c, 3, 53, 0
5, 26160, Note_on_c, 3, 52, 64
5, 26280, Note_on_c, 3, 52, 0
5, 26280, Note_on_c, 3, 50, 64
5, 26400, Note_on_c, 3, 50, 0
5, 26400, Note_on_c, 3, 48, 64
5, 26520, Note_on_c, 3, 48, 0
5, 26520, Note_on_c, 3, 57, 64
5, 26640, Note_on_c, 3, 57, 0
5, 26640, Note_on_c, 3, 55, 64
5, 26760, Note_on_c, 3, 55, 0
5, 26760, Note_on_c, 3, 53, 64
5, 26880, Note_on_c, 3, 53, 0
5, 26880, Note_on_c, 3, 52, 64
5, 27000, Note_on_c, 3, 52, 0
5, 27000, Note_on_c, 3, 57, 64
5, 27060, Note_on_c, 3, 57, 0
5, 27060, Note_on_c, 3, 55, 64
5, 27120, Note_on_c, 3, 55, 0
5, 27120, Note_on_c, 3, 53, 64
5, 27180, Note_on_c, 3, 53, 0
5, 27180, Note_on_c, 3, 52, 64
5, 27240, Note_on_c, 3, 52, 0
5, 27240, Note_on_c, 3, 50, 64
5, 27300, Note_on_c, 3, 50, 0
5, 27300, Note_on_c, 3, 48, 64
5, 27360, Note_on_c, 3, 48, 0
5, 27360, Note_on_c, 3, 47, 64
5, 27480, Note_on_c, 3, 47, 0
5, 27480, Note_on_c, 3, 60, 64
5, 27540, Note_on_c, 3, 60, 0
5, 27540, Note_on_c, 3, 59, 64
5, 27600, Note_on_c, 3, 59, 0
5, 27600, Note_on_c, 3, 57, 64
5, 27660, Note_on_c, 3, 57, 0
5, 27660, Note_on_c, 3, 55, 64
5, 27720, Note_on_c, 3, 55, 0
5, 27720, Note_on_c, 3, 53, 64
5, 27780, Note_on_c, 3, 53, 0
5, 27780, Note_on_c, 3, 52, 64
5, 27840, Note_on_c, 3, 52, 0
5, 27840, Note_on_c, 3, 50, 64
5, 27960, Note_on_c, 3, 50, 0
5, 28080, Note_on_c, 3, 52, 64
5, 28200, Note_on_c, 3, 52, 0
5, 28320, Note_on_c, 3, 53, 64
5, 28440, Note_on_c, 3, 53, 0
5, 28440, Note_on_c, 3, 52, 64
5, 28560, Note_on_c, 3, 52, 0
5, 28560, Note_on_c, 3, 50, 64
5, 28680, Note_on_c, 3, 50, 0
5, 28680, Note_on_c, 3, 52, 64
5, 28800, Note_on_c, 3, 52, 0
5, 28800, Note_on_c, 3, 48, 64
5, 28920, Note_on_c, 3, 48, 0
5, 28920, Note_on_c, 3, 47, 64
5, 29040, Note_on_c, 3, 47, 0
5, 29040, Note_on_c, 3, 48, 64
5, 29160, Note_on_c, 3, 48, 0
5, 29160, Note_on_c, 3, 45, 64
5, 29280, Note_on_c, 3, 45, 0
5, 29280, Note_on_c, 3, 47, 64
5, 29640, Note_on_c, 3, 47, 0
5, 29640, Note_on_c, 3, 45, 64
5, 29760, Note_on_c, 3, 45, 0
5, 29760, Note_on_c, 3, 43, 64
5, 29880, Note_on_c, 3, 43, 0
5, 29880, Note_on_c, 3, 52, 64
5, 29940, Note_on_c, 3, 52, 0
5, 29940, Note_on_c, 3, 51, 64
5, 30000, Note_on_c, 3, 51, 0
5, 30000, Note_on_c, 3, 52, 64
5, 30120, Note_on_c, 3, 52, 0
5, 30120, Note_on_c, 3, 54, 64
5, 30240, Note_on_c, 3, 54, 0
5, 30240, Note_on_c, 3, 55, 64
5, 30360, Note_on_c, 3, 55, 0
5, 30360, Note_on_c, 3, 55, 64
5, 30420, Note_on_c, 3, 55, 0
5, 30420, Note_on_c, 3, 54, 64
5, 30480, Note_on_c, 3, 54, 0
5, 30480, Note_on_c, 3, 55, 64
5, 30600, Note_on_c, 3, 55, 0
5, 30600, Note_on_c, 3, 57, 64
5, 30720, Note_on_c, 3, 57, 0
5, 30720, Note_on_c, 3, 59, 64
5, 30780, Note_on_c, 3, 59, 0
5, 30780, Note_on_c, 3, 57, 64
5, 30840, Note_on_c, 3, 57, 0
5, 30840, Note_on_c, 3, 55, 64
5, 30900, Note_on_c, 3, 55, 0
5, 30900, Note_on_c, 3, 57, 64
5, 30960, Note_on_c, 3, 57, 0
5, 30960, Note_on_c, 3, 59, 64
5, 31080, Note_on_c, 3, 59, 0
5, 31080, Note_on_c, 3, 60, 64
5, 31200, Note_on_c, 3, 60, 0
5, 31200, Note_on_c, 3, 51, 64
5, 31320, Note_on_c, 3, 51, 0
5, 31320, Note_on_c, 3, 47, 64
5, 31440, Note_on_c, 3, 47, 0
5, 31560, Note_on_c, 3, 52, 64
5, 31680, Note_on_c, 3, 52, 0
5, 31680, Note_on_c, 3, 54, 64
5, 31740, Note_on_c, 3, 54, 0
5, 31740, Note_on_c, 3, 55, 64
5, 31800, Note_on_c, 3, 55, 0
5, 31800, Note_on_c, 3, 52, 64
5, 31860, Note_on_c, 3, 52, 0
5, 31860, Note_on_c, 3, 54, 64
5, 31920, Note_on_c, 3, 54, 0
5, 31920, Note_on_c, 3, 55, 64
5, 31980, Note_on_c, 3, 55, 0
5, 31980, Note_on_c, 3, 57, 64
5, 32040, Note_on_c, 3, 57, 0
5, 32040, Note_on_c, 3, 54, 64
5, 32100, Note_on_c, 3, 54, 0
5, 32100, Note_on_c, 3, 55, 64
5, 32160, Note_on_c, 3, 55, 0
5, 32160, Note_on_c, 3, 57, 64
5, 32280, Note_on_c, 3, 57, 0
5, 32280, Note_on_c, 3, 55, 64
5, 32400, Note_on_c, 3, 55, 0
5, 32400, Note_on_c, 3, 54, 64
5, 32520, Note_on_c, 3, 54, 0
5, 32520, Note_on_c, 3, 59, 64
5, 32640, Note_on_c, 3, 59, 0
5, 32640, Note_on_c, 3, 52, 64
5, 32760, Note_on_c, 3, 52, 0
5, 32760, Note_on_c, 3, 52, 64
5, 32820, Note_on_c, 3, 52, 0
5, 32820, Note_on_c, 3, 51, 64
5, 32880, Note_on_c, 3, 51, 0
5, 32880, Note_on_c, 3, 52, 64
5, 33000, Note_on_c, 3, 52, 0
5, 33000, Note_on_c, 3, 54, 64
5, 33120, Note_on_c, 3, 54, 0
5, 33120, Note_on_c, 3, 55, 64
5, 33720, Note_on_c, 3, 55, 0
5, 33720, Note_on_c, 3, 54, 64
5, 33780, Note_on_c, 3, 54, 0
5, 33780, Note_on_c, 3, 52, 64
5, 33840, Note_on_c, 3, 52, 0
5, 33840, Note_on_c, 3, 54, 64
5, 33960, Note_on_c, 3, 54, 0
5, 33960, Note_on_c, 3, 56, 64
5, 34080, Note_on_c, 3, 56, 0
5, 34080, Note_on_c, 3, 57, 64
5, 34200, Note_on_c, 3, 57, 0
5, 34680, Note_on_c, 3, 57, 64
5, 34800, Note_on_c, 3, 57, 0
5, 34800, Note_on_c, 3, 55, 64
5, 34920, Note_on_c, 3, 55, 0
5, 34920, Note_on_c, 3, 53, 64
5, 35040, Note_on_c, 3, 53, 0
5, 35040, Note_on_c, 3, 52, 64
5, 35280, Note_on_c, 3, 52, 0
5, 35640, Note_on_c, 3, 45, 64
5, 35700, Note_on_c, 3, 45, 0
5, 35700, Note_on_c, 3, 47, 64
5, 35760, Note_on_c, 3, 47, 0
5, 35760, Note_on_c, 3, 48, 64
5, 35880, Note_on_c, 3, 48, 0
5, 35880, Note_on_c, 3, 50, 64
5, 36120, Note_on_c, 3, 50, 0
5, 36120, Note_on_c, 3, 48, 64
5, 36180, Note_on_c, 3, 48, 0
5, 36180, Note_on_c, 3, 50, 64
5, 36240, Note_on_c, 3, 50, 0
5, 36240, Note_on_c, 3, 52, 64
5, 36360, Note_on_c, 3, 52, 0
5, 36360, Note_on_c, 3, 53, 64
5, 36600, Note_on_c, 3, 53, 0
5, 36600, Note_on_c, 3, 52, 64
5, 36660, Note_on_c, 3, 52, 0
5, 36660, Note_on_c, 3, 50, 64
5, 36720, Note_on_c, 3, 50, 0
5, 36720, Note_on_c, 3, 52, 64
5, 36840, Note_on_c, 3, 52, 0
5, 36840, Note_on_c, 3, 48, 64
5, 36960, Note_on_c, 3, 48, 0
5, 36960, Note_on_c, 3, 53, 64
5, 37080, Note_on_c, 3, 53, 0
5, 37080, Note_on_c, 3, 52, 64
5, 37140, Note_on_c, 3, 52, 0
5, 37140, Note_on_c, 3, 50, 64
5, 37200, Note_on_c, 3, 50, 0
5, 37200, Note_on_c, 3, 52, 64
5, 37260, Note_on_c, 3, 52, 0
5, 37260, Note_on_c, 3, 53, 64
5, 37320, Note_on_c, 3, 53, 0
5, 37320, Note_on_c, 3, 52, 64
5, 37380, Note_on_c, 3, 52, 0
5, 37380, Note_on_c, 3, 50, 64
5, 37440, Note_on_c, 3, 50, 0
5, 37440, Note_on_c, 3, 49, 64
5, 37560, Note_on_c, 3, 49, 0
5, 37560, Note_on_c, 3, 45, 64
5, 37680, Note_on_c, 3, 45, 0
5, 37680, Note_on_c, 3, 50, 64
5, 37800, Note_on_c, 3, 50, 0
5, 37800, Note_on_c, 3, 48, 64
5, 37920, Note_on_c, 3, 48, 0
5, 37920, Note_on_c, 3, 47, 64
5, 38040, Note_on_c, 3, 47, 0
5, 38040, Note_on_c, 3, 43, 64
5, 38160, Note_on_c, 3, 43, 0
5, 38160, Note_on_c, 3, 48, 64
5, 38280, Note_on_c, 3, 48, 0
5, 38280, Note_on_c, 3, 47, 64
5, 38400, Note_on_c, 3, 47, 0
5, 38400, Note_on_c, 3, 45, 64
5, 38520, Note_on_c, 3, 45, 0
5, 38520, Note_on_c, 3, 47, 64
5, 38580, Note_on_c, 3, 47, 0
5, 38580, Note_on_c, 3, 48, 64
5, 38640, Note_on_c, 3, 48, 0
5, 38640, Note_on_c, 3, 47, 64
5, 38760, Note_on_c, 3, 47, 0
5, 38760, Note_on_c, 3, 43, 64
5, 38880, Note_on_c, 3, 43, 0
5, 38880, Note_on_c, 3, 48, 64
5, 39120, Note_on_c, 3, 48, 0
5, 39240, Note_on_c, 3, 47, 64
5, 39360, Note_on_c, 3, 47, 0
5, 39360, Note_on_c, 3, 45, 64
5, 39600, Note_on_c, 3, 45, 0
5, 39720, Note_on_c, 3, 43, 64
5, 39840, Note_on_c, 3, 43, 0
5, 39840, Note_on_c, 3, 41, 64
5, 39900, Note_on_c, 3, 41, 0
5, 39900, Note_on_c, 3, 55, 64
5, 39960, Note_on_c, 3, 55, 0
5, 39960, Note_on_c, 3, 53, 64
5, 40020, Note_on_c, 3, 53, 0
5, 40020, Note_on_c, 3, 52, 64
5, 40080, Note_on_c, 3, 52, 0
5, 40080, Note_on_c, 3, 50, 64
5, 40140, Note_on_c, 3, 50, 0
5, 40140, Note_on_c, 3, 48, 64
5, 40200, Note_on_c, 3, 48, 0
5, 40200, Note_on_c, 3, 47, 64
5, 40260, Note_on_c, 3, 47, 0
5, 40260, Note_on_c, 3, 45, 64
5, 40320, Note_on_c, 3, 45, 0
5, 40320, Note_on_c, 3, 43, 64
5, 40440, Note_on_c, 3, 43, 0
5, 40440, Note_on_c, 3, 55, 64
5, 40560, Note_on_c, 3, 55, 0
5, 40560, Note_on_c, 3, 57, 64
5, 40680, Note_on_c, 3, 57, 0
5, 40680, Note_on_c, 3, 53, 64
5, 40800, Note_on_c, 3, 53, 0
5, 40920, Note_on_c, 3, 48, 64
5, 40980, Note_on_c, 3, 48, 0
5, 40980, Note_on_c, 3, 47, 64
5, 41040, Note_on_c, 3, 47, 0
5, 41040, Note_on_c, 3, 48, 64
5, 41160, Note_on_c, 3, 48, 0
5, 41160, Note_on_c, 3, 50, 64
5, 41280, Note_on_c, 3, 50, 0
5, 41280, Note_on_c, 3, 52, 64
5, 41400, Note_on_c, 3, 52, 0
5, 41400, Note_on_c, 3, 52, 64
5, 41460, Note_on_c, 3, 52, 0
5, 41460, Note_on_c, 3, 50, 64
5, 41520, Note_on_c, 3, 50, 0
5, 41520, Note_on_c, 3, 52, 64
5, 41640, Note_on_c, 3, 52, 0
5, 41640, Note_on_c, 3, 54, 64
5, 41760, Note_on_c, 3, 54, 0
5, 41760, Note_on_c, 3, 55, 64
5, 41820, Note_on_c, 3, 55, 0
5, 41820, Note_on_c, 3, 53, 64
5, 41880, Note_on_c, 3, 53, 0
5, 41880, Note_on_c, 3, 52, 64
5, 41940, Note_on_c, 3, 52, 0
5, 41940, Note_on_c, 3, 53, 64
5, 42000, Note_on_c, 3, 53, 0
5, 42000, Note_on_c, 3, 55, 64
5, 42120, Note_on_c, 3, 55, 0
5, 42120, Note_on_c, 3, 57, 64
5, 42240, Note_on_c, 3, 57, 0
5, 42240, Note_on_c, 3, 47, 64
5, 42360, Note_on_c, 3, 47, 0
5, 42360, Note_on_c, 3, 43, 64
5, 42480, Note_on_c, 3, 43, 0
5, 42600, Note_on_c, 3, 48, 64
5, 42720, Note_on_c, 3, 48, 0
5, 42720, Note_on_c, 3, 50, 64
5, 42780, Note_on_c, 3, 50, 0
5, 42780, Note_on_c, 3, 52, 64
5, 42840, Note_on_c, 3, 52, 0
5, 42840, Note_on_c, 3, 48, 64
5, 42900, Note_on_c, 3, 48, 0
5, 42900, Note_on_c, 3, 50, 64
5, 42960, Note_on_c, 3, 50, 0
5, 42960, Note_on_c, 3, 52, 64
5, 43020, Note_on_c, 3, 52, 0
5, 43020, Note_on_c, 3, 53, 64
5, 43080, Note_on_c, 3, 53, 0
5, 43080, Note_on_c, 3, 50, 64
5, 43140, Note_on_c, 3, 50, 0
5, 43140, Note_on_c, 3, 52, 64
5, 43200, Note_on_c, 3, 52, 0
5, 43200, Note_on_c, 3, 53, 64
5, 43320, Note_on_c, 3, 53, 0
5, 43320, Note_on_c, 3, 52, 64
5, 43440, Note_on_c, 3, 52, 0
5, 43440, Note_on_c, 3, 50, 64
5, 43560, Note_on_c, 3, 50, 0
5, 43560, Note_on_c, 3, 55, 64
5, 43680, Note_on_c, 3, 55, 0
5, 43680, Note_on_c, 3, 48, 64
5, 43800, Note_on_c, 3, 48, 0
5, 43800, Note_on_c, 3, 50, 64
5, 43860, Note_on_c, 3, 50, 0
5, 43860, Note_on_c, 3, 52, 64
5, 43920, Note_on_c, 3, 52, 0
5, 43920, Note_on_c, 3, 53, 64
5, 44400, Note_on_c, 3, 53, 0
5, 44400, Note_on_c, 3, 52, 64
5, 44520, Note_on_c, 3, 52, 0
5, 44520, Note_on_c, 3, 57, 64
5, 44640, Note_on_c, 3, 57, 0
5, 44640, Note_on_c, 3, 50, 64
5, 44760, Note_on_c, 3, 50, 0
5, 44760, Note_on_c, 3, 52, 64
5, 44820, Note_on_c, 3, 52, 0
5, 44820, Note_on_c, 3, 53, 64
5, 44880, Note_on_c, 3, 53, 0
5, 44880, Note_on_c, 3, 55, 64
5, 45000, Note_on_c, 3, 55, 0
5, 45000, Note_on_c, 3, 43, 64
5, 45120, Note_on_c, 3, 43, 0
5, 45120, Note_on_c, 3, 48, 64
5, 45360, Note_on_c, 3, 48, 0
5, 45480, Note_on_c, 3, 52, 64
5, 45600, Note_on_c, 3, 52, 0
5, 45600, Note_on_c, 3, 45, 64
5, 45660, Note_on_c, 3, 45, 0
5, 45660, Note_on_c, 3, 58, 64
5, 45720, Note_on_c, 3, 58, 0
5, 45720, Note_on_c, 3, 57, 64
5, 45780, Note_on_c, 3, 57, 0
5, 45780, Note_on_c, 3, 55, 64
5, 45840, Note_on_c, 3, 55, 0
5, 45840, Note_on_c, 3, 53, 64
5, 45900, Note_on_c, 3, 53, 0
5, 45900, Note_on_c, 3, 52, 64
5, 45960, Note_on_c, 3, 52, 0
5, 45960, Note_on_c, 3, 50, 64
5, 46020, Note_on_c, 3, 50, 0
5, 46020, Note_on_c, 3, 49, 64
5, 46080, Note_on_c, 3, 49, 0
5, 46080, Note_on_c, 3, 50, 64
5, 46800, Note_on_c, 3, 50, 0
5, 47040, Note_on_c, 3, 53, 64
5, 47520, Note_on_c, 3, 53, 0
5, 47580, Note_on_c, 3, 55, 64
5, 47640, Note_on_c, 3, 55, 0
5, 47640, Note_on_c, 3, 53, 64
5, 47700, Note_on_c, 3, 53, 0
5, 47700, Note_on_c, 3, 52, 64
5, 47760, Note_on_c, 3, 52, 0
5, 47760, Note_on_c, 3, 50, 64
5, 48120, Note_on_c, 3, 50, 0
5, 48120, Note_on_c, 3, 48, 64
5, 48360, Note_on_c, 3, 48, 0
5, 48360, Note_on_c, 3, 47, 64
5, 48480, Note_on_c, 3, 47, 0
5, 48480, Note_on_c, 3, 48, 64
5, 48600, Note_on_c, 3, 48, 0
5, 48600, Note_on_c, 3, 50, 64
5, 48720, Note_on_c, 3, 50, 0
5, 48720, Note_on_c, 3, 43, 64
5, 49080, Note_on_c, 3, 43, 0
5, 49080, Note_on_c, 3, 57, 64
5, 49200, Note_on_c, 3, 57, 0
5, 49200, Note_on_c, 3, 55, 64
5, 49320, Note_on_c, 3, 55, 0
5, 49320, Note_on_c, 3, 53, 64
5, 49440, Note_on_c, 3, 53, 0
5, 49440, Note_on_c, 3, 52, 64
5, 49560, Note_on_c, 3, 52, 0
5, 49560, Note_on_c, 3, 50, 64
5, 49680, Note_on_c, 3, 50, 0
5, 49680, Note_on_c, 3, 48, 64
5, 49800, Note_on_c, 3, 48, 0
5, 49800, Note_on_c, 3, 52, 64
5, 49920, Note_on_c, 3, 52, 0
5, 49920, Note_on_c, 3, 50, 64
5, 50040, Note_on_c, 3, 50, 0
5, 50040, Note_on_c, 3, 50, 64
5, 50100, Note_on_c, 3, 50, 0
5, 50100, Note_on_c, 3, 52, 64
5, 50160, Note_on_c, 3, 52, 0
5, 50160, Note_on_c, 3, 50, 64
5, 50280, Note_on_c, 3, 50, 0
5, 50280, Note_on_c, 3, 48, 64
5, 50400, Note_on_c, 3, 48, 0
5, 50400, Note_on_c, 3, 47, 64
5, 50520, Note_on_c, 3, 47, 0
5, 50520, Note_on_c, 3, 47, 64
5, 50580, Note_on_c, 3, 47, 0
5, 50580, Note_on_c, 3, 48, 64
5, 50640, Note_on_c, 3, 48, 0
5, 50640, Note_on_c, 3, 47, 64
5, 50760, Note_on_c, 3, 47, 0
5, 50760, Note_on_c, 3, 45, 64
5, 50880, Note_on_c, 3, 45, 0
5, 50880, Note_on_c, 3, 43, 64
5, 50940, Note_on_c, 3, 43, 0
5, 50940, Note_on_c, 3, 45, 64
5, 51000, Note_on_c, 3, 45, 0
5, 51000, Note_on_c, 3, 47, 64
5, 51060, Note_on_c, 3, 47, 0
5, 51060, Note_on_c, 3, 45, 64
5, 51120, Note_on_c, 3, 45, 0
5, 51120, Note_on_c, 3, 43, 64
5, 51240, Note_on_c, 3, 43, 0
5, 51240, Note_on_c, 3, 42, 64
5, 51360, Note_on_c, 3, 42, 0
5, 51360, Note_on_c, 3, 52, 64
5, 51480, Note_on_c, 3, 52, 0
5, 51480, Note_on_c, 3, 55, 64
5, 51600, Note_on_c, 3, 55, 0
5, 51720, Note_on_c, 3, 50, 64
5, 51840, Note_on_c, 3, 50, 0
5, 51840, Note_on_c, 3, 48, 64
5, 51900, Note_on_c, 3, 48, 0
5, 51900, Note_on_c, 3, 47, 64
5, 51960, Note_on_c, 3, 47, 0
5, 51960, Note_on_c, 3, 50, 64
5, 52020, Note_on_c, 3, 50, 0
5, 52020, Note_on_c, 3, 48, 64
5, 52080, Note_on_c, 3, 48, 0
5, 52080, Note_on_c, 3, 47, 64
5, 52140, Note_on_c, 3, 47, 0
5, 52140, Note_on_c, 3, 45, 64
5, 52200, Note_on_c, 3, 45, 0
5, 52200, Note_on_c, 3, 48, 64
5, 52260, Note_on_c, 3, 48, 0
5, 52260, Note_on_c, 3, 47, 64
5, 52320, Note_on_c, 3, 47, 0
5, 52320, Note_on_c, 3, 45, 64
5, 52440, Note_on_c, 3, 45, 0
5, 52440, Note_on_c, 3, 47, 64
5, 52560, Note_on_c, 3, 47, 0
5, 52560, Note_on_c, 3, 48, 64
5, 52680, Note_on_c, 3, 48, 0
5, 52680, Note_on_c, 3, 43, 64
5, 52800, Note_on_c, 3, 43, 0
5, 52800, Note_on_c, 3, 50, 64
5, 53040, Note_on_c, 3, 50, 0
5, 53040, Note_on_c, 3, 52, 64
5, 53280, Note_on_c, 3, 52, 0
5, 53280, Note_on_c, 3, 54, 64
5, 53520, Note_on_c, 3, 54, 0
5, 53520, Note_on_c, 3, 55, 64
5, 53760, Note_on_c, 3, 55, 0
5, 53760, Note_on_c, 3, 57, 64
5, 54000, Note_on_c, 3, 57, 0
5, 54000, Note_on_c, 3, 59, 64
5, 54120, Note_on_c, 3, 59, 0
5, 54120, Note_on_c, 3, 57, 64
5, 54240, Note_on_c, 3, 57, 0
5, 54240, Note_on_c, 3, 56, 64
5, 54360, Note_on_c, 3, 56, 0
5, 54360, Note_on_c, 3, 52, 64
5, 54480, Note_on_c, 3, 52, 0
5, 54480, Note_on_c, 3, 54, 64
5, 54600, Note_on_c, 3, 54, 0
5, 54600, Note_on_c, 3, 56, 64
5, 54720, Note_on_c, 3, 56, 0
5, 54720, Note_on_c, 3, 57, 64
5, 54840, Note_on_c, 3, 57, 0
5, 54840, Note_on_c, 3, 48, 64
5, 54960, Note_on_c, 3, 48, 0
5, 54960, Note_on_c, 3, 50, 64
5, 55080, Note_on_c, 3, 50, 0
5, 55080, Note_on_c, 3, 52, 64
5, 55200, Note_on_c, 3, 52, 0
5, 55200, Note_on_c, 3, 53, 64
5, 55440, Note_on_c, 3, 53, 0
5, 55560, Note_on_c, 3, 49, 64
5, 55680, Note_on_c, 3, 49, 0
5, 55680, Note_on_c, 3, 50, 64
5, 55800, Note_on_c, 3, 50, 0
5, 55800, Note_on_c, 3, 52, 64
5, 55920, Note_on_c, 3, 52, 0
5, 55920, Note_on_c, 3, 53, 64
5, 56040, Note_on_c, 3, 53, 0
5, 56040, Note_on_c, 3, 49, 64
5, 56160, Note_on_c, 3, 49, 0
5, 56160, Note_on_c, 3, 50, 64
5, 56400, Note_on_c, 3, 50, 0
5, 56400, Note_on_c, 3, 45, 64
5, 56760, Note_on_c, 3, 45, 0
5, 56760, Note_on_c, 3, 44, 64
5, 56880, Note_on_c, 3, 44, 0
5, 56880, Note_on_c, 3, 45, 64
5, 57120, Note_on_c, 3, 45, 0
5, 57120, Note_on_c, 3, 40, 64
5, 58680, Note_on_c, 3, 40, 0
5, 58680, Note_on_c, 3, 52, 64
5, 58740, Note_on_c, 3, 52, 0
5, 58740, Note_on_c, 3, 53, 64
5, 58800, Note_on_c, 3, 53, 0
5, 58800, Note_on_c, 3, 52, 64
5, 58920, Note_on_c, 3, 52, 0
5, 58920, Note_on_c, 3, 50, 64
5, 59040, Note_on_c, 3, 50, 0
5, 59040, Note_on_c, 3, 49, 64
5, 59160, Note_on_c, 3, 49, 0
5, 59160, Note_on_c, 3, 49, 64
5, 59220, Note_on_c, 3, 49, 0
5, 59220, Note_on_c, 3, 50, 64
5, 59280, Note_on_c, 3, 50, 0
5, 59280, Note_on_c, 3, 49, 64
5, 59400, Note_on_c, 3, 49, 0
5, 59400, Note_on_c, 3, 47, 64
5, 59520, Note_on_c, 3, 47, 0
5, 59520, Note_on_c, 3, 45, 64
5, 59580, Note_on_c, 3, 45, 0
5, 59580, Note_on_c, 3, 47, 64
5, 59640, Note_on_c, 3, 47, 0
5, 59640, Note_on_c, 3, 49, 64
5, 59700, Note_on_c, 3, 49, 0
5, 59700, Note_on_c, 3, 47, 64
5, 59760, Note_on_c, 3, 47, 0
5, 59760, Note_on_c, 3, 45, 64
5, 59880, Note_on_c, 3, 45, 0
5, 59880, Note_on_c, 3, 43, 64
5, 60000, Note_on_c, 3, 43, 0
5, 60000, Note_on_c, 3, 41, 64
5, 60240, Note_on_c, 3, 41, 0
5, 60360, Note_on_c, 3, 53, 64
5, 60480, Note_on_c, 3, 53, 0
5, 60480, Note_on_c, 3, 58, 64
5, 60600, Note_on_c, 3, 58, 0
5, 60600, Note_on_c, 3, 55, 64
5, 60720, Note_on_c, 3, 55, 0
5, 60720, Note_on_c, 3, 57, 64
5, 60960, Note_on_c, 3, 57, 0
5, 60960, Note_on_c, 3, 50, 64
5, 61080, Note_on_c, 3, 50, 0
5, 61080, Note_on_c, 3, 50, 64
5, 61140, Note_on_c, 3, 50, 0
5, 61140, Note_on_c, 3, 49, 64
5, 61200, Note_on_c, 3, 49, 0
5, 61200, Note_on_c, 3, 50, 64
5, 61320, Note_on_c, 3, 50, 0
5, 61320, Note_on_c, 3, 52, 64
5, 61440, Note_on_c, 3, 52, 0
5, 61440, Note_on_c, 3, 53, 64
5, 61560, Note_on_c, 3, 53, 0
5, 61560, Note_on_c, 3, 53, 64
5, 61620, Note_on_c, 3, 53, 0
5, 61620, Note_on_c, 3, 52, 64
5, 61680, Note_on_c, 3, 52, 0
5, 61680, Note_on_c, 3, 54, 64
5, 61800, Note_on_c, 3, 54, 0
5, 61800, Note_on_c, 3, 56, 64
5, 61920, Note_on_c, 3, 56, 0
5, 61920, Note_on_c, 3, 57, 64
5, 61980, Note_on_c, 3, 57, 0
5, 61980, Note_on_c, 3, 56, 64
5, 62040, Note_on_c, 3, 56, 0
5, 62040, Note_on_c, 3, 54, 64
5, 62100, Note_on_c, 3, 54, 0
5, 62100, Note_on_c, 3, 56, 64
5, 62160, Note_on_c, 3, 56, 0
5, 62160, Note_on_c, 3, 57, 64
5, 62280, Note_on_c, 3, 57, 0
5, 62280, Note_on_c, 3, 59, 64
5, 62400, Note_on_c, 3, 59, 0
5, 62400, Note_on_c, 3, 48, 64
5, 62520, Note_on_c, 3, 48, 0
5, 62520, Note_on_c, 3, 45, 64
5, 62640, Note_on_c, 3, 45, 0
5, 62760, Note_on_c, 3, 50, 64
5, 62880, Note_on_c, 3, 50, 0
5, 62880, Note_on_c, 3, 52, 64
5, 62940, Note_on_c, 3, 52, 0
5, 62940, Note_on_c, 3, 53, 64
5, 63000, Note_on_c, 3, 53, 0
5, 63000, Note_on_c, 3, 50, 64
5, 63060, Note_on_c, 3, 50, 0
5, 63060, Note_on_c, 3, 52, 64
5, 63120, Note_on_c, 3, 52, 0
5, 63120, Note_on_c, 3, 53, 64
5, 63180, Note_on_c, 3, 53, 0
5, 63180, Note_on_c, 3, 55, 64
5, 63240, Note_on_c, 3, 55, 0
5, 63240, Note_on_c, 3, 52, 64
5, 63300, Note_on_c, 3, 52, 0
5, 63300, Note_on_c, 3, 54, 64
5, 63360, Note_on_c, 3, 54, 0
5, 63360, Note_on_c, 3, 55, 64
5, 63480, Note_on_c, 3, 55, 0
5, 63480, Note_on_c, 3, 53, 64
5, 63600, Note_on_c, 3, 53, 0
5, 63600, Note_on_c, 3, 52, 64
5, 63720, Note_on_c, 3, 52, 0
5, 63720, Note_on_c, 3, 57, 64
5, 63840, Note_on_c, 3, 57, 0
5, 63840, Note_on_c, 3, 50, 64
5, 63960, Note_on_c, 3, 50, 0
5, 63960, Note_on_c, 3, 57, 64
5, 64140, Note_on_c, 3, 57, 0
5, 64140, Note_on_c, 3, 56, 64
5, 64200, Note_on_c, 3, 56, 0
5, 64200, Note_on_c, 3, 57, 64
5, 64260, Note_on_c, 3, 57, 0
5, 64260, Note_on_c, 3, 56, 64
5, 64320, Note_on_c, 3, 56, 0
5, 64320, Note_on_c, 3, 57, 64
5, 64620, Note_on_c, 3, 57, 0
5, 64620, Note_on_c, 3, 55, 64
5, 64680, Note_on_c, 3, 55, 0
5, 64680, Note_on_c, 3, 53, 64
5, 64740, Note_on_c, 3, 53, 0
5, 64740, Note_on_c, 3, 52, 64
5, 64800, Note_on_c, 3, 52, 0
5, 64800, Note_on_c, 3, 53, 64
5, 65100, Note_on_c, 3, 53, 0
5, 65100, Note_on_c, 3, 52, 64
5, 65160, Note_on_c, 3, 52, 0
5, 65160, Note_on_c, 3, 50, 64
5, 65220, Note_on_c, 3, 50, 0
5, 65220, Note_on_c, 3, 49, 64
5, 65280, Note_on_c, 3, 49, 0
5, 65280, Note_on_c, 3, 50, 64
5, 65400, Note_on_c, 3, 50, 0
5, 69240, Note_on_c, 3, 48, 64
5, 69300, Note_on_c, 3, 48, 0
5, 69300, Note_on_c, 3, 50, 64
5, 69360, Note_on_c, 3, 50, 0
5, 69360, Note_on_c, 3, 48, 64
5, 69480, Note_on_c, 3, 48, 0
5, 69480, Note_on_c, 3, 46, 64
5, 69600, Note_on_c, 3, 46, 0
5, 69600, Note_on_c, 3, 45, 64
5, 69720, Note_on_c, 3, 45, 0
5, 69720, Note_on_c, 3, 45, 64
5, 69780, Note_on_c, 3, 45, 0
5, 69780, Note_on_c, 3, 46, 64
5, 69840, Note_on_c, 3, 46, 0
5, 69840, Note_on_c, 3, 45, 64
5, 69960, Note_on_c, 3, 45, 0
5, 69960, Note_on_c, 3, 43, 64
5, 70080, Note_on_c, 3, 43, 0
5, 70080, Note_on_c, 3, 41, 64
5, 70140, Note_on_c, 3, 41, 0
5, 70140, Note_on_c, 3, 43, 64
5, 70200, Note_on_c, 3, 43, 0
5, 70200, Note_on_c, 3, 45, 64
5, 70260, Note_on_c, 3, 45, 0
5, 70260, Note_on_c, 3, 43, 64
5, 70320, Note_on_c, 3, 43, 0
5, 70320, Note_on_c, 3, 41, 64
5, 70440, Note_on_c, 3, 41, 0
5, 70440, Note_on_c, 3, 39, 64
5, 70560, Note_on_c, 3, 39, 0
5, 70560, Note_on_c, 3, 50, 64
5, 70680, Note_on_c, 3, 50, 0
5, 70680, Note_on_c, 3, 54, 64
5, 70800, Note_on_c, 3, 54, 0
5, 70920, Note_on_c, 3, 48, 64
5, 71040, Note_on_c, 3, 48, 0
5, 71040, Note_on_c, 3, 46, 64
5, 71100, Note_on_c, 3, 46, 0
5, 71100, Note_on_c, 3, 45, 64
5, 71160, Note_on_c, 3, 45, 0
5, 71160, Note_on_c, 3, 48, 64
5, 71220, Note_on_c, 3, 48, 0
5, 71220, Note_on_c, 3, 46, 64
5, 71280, Note_on_c, 3, 46, 0
5, 71280, Note_on_c, 3, 45, 64
5, 71340, Note_on_c, 3, 45, 0
5, 71340, Note_on_c, 3, 43, 64
5, 71400, Note_on_c, 3, 43, 0
5, 71400, Note_on_c, 3, 46, 64
5, 71460, Note_on_c, 3, 46, 0
5, 71460, Note_on_c, 3, 45, 64
5, 71520, Note_on_c, 3, 45, 0
5, 71520, Note_on_c, 3, 43, 64
5, 71880, Note_on_c, 3, 43, 0
5, 71880, Note_on_c, 3, 42, 64
5, 72000, Note_on_c, 3, 42, 0
5, 72000, Note_on_c, 3, 43, 64
5, 73560, Note_on_c, 3, 43, 0
5, 73560, Note_on_c, 3, 52, 64
5, 73620, Note_on_c, 3, 52, 0
5, 73620, Note_on_c, 3, 53, 64
5, 73680, Note_on_c, 3, 53, 0
5, 73680, Note_on_c, 3, 55, 64
5, 73740, Note_on_c, 3, 55, 0
5, 73740, Note_on_c, 3, 53, 64
5, 73800, Note_on_c, 3, 53, 0
5, 73800, Note_on_c, 3, 52, 64
5, 73860, Note_on_c, 3, 52, 0
5, 73860, Note_on_c, 3, 50, 64
5, 73920, Note_on_c, 3, 50, 0
5, 73920, Note_on_c, 3, 49, 64
5, 74040, Note_on_c, 3, 49, 0
5, 74520, Note_on_c, 3, 64, 64
5, 74640, Note_on_c, 3, 64, 0
5, 74640, Note_on_c, 3, 61, 64
5, 74760, Note_on_c, 3, 61, 0
5, 74760, Note_on_c, 3, 57, 64
5, 74880, Note_on_c, 3, 57, 0
5, 74880, Note_on_c, 3, 50, 64
5, 75000, Note_on_c, 3, 50, 0
5, 75360, Note_on_c, 3, 50, 64
5, 75480, Note_on_c, 3, 50, 0
5, 75840, Note_on_c, 3, 50, 64
5, 76080, Note_on_c, 3, 50, 0
5, 76320, Note_on_c, 3, 51, 64
5, 76560, Note_on_c, 3, 51, 0
5, 76800, Note_on_c, 3, 52, 64
5, 77040, Note_on_c, 3, 52, 0
5, 77280, Note_on_c, 3, 52, 64
5, 77520, Note_on_c, 3, 52, 0
5, 78240, Note_on_c, 3, 54, 64
5, 78480, Note_on_c, 3, 54, 0
5, 78600, Note_on_c, 3, 56, 64
5, 78720, Note_on_c, 3, 56, 0
5, 78720, Note_on_c, 3, 57, 64
5, 78840, Note_on_c, 3, 57, 0
5, 78840, Note_on_c, 3, 50, 64
5, 78960, Note_on_c, 3, 50, 0
5, 78960, Note_on_c, 3, 52, 64
5, 79200, Note_on_c, 3, 52, 0
5, 79200, Note_on_c, 3, 45, 68
5, 83520, Note_on_c, 3, 45, 0
5, 83520, End_track
0, 0, End_of_file
