0, 0, Header, 1, 9, 1024
1, 0, Start_track
1, 0, Time_signature, 3, 2, 24, 8
1, 0, Key_signature, 0, "major"
1, 0, Tempo, 555555
1, 52224, End_track
2, 0, Start_track
2, 0, Title_t, "Instrument 1"
2, 2048, Note_on_c, 0, 72, 96
2, 3072, Note_off_c, 0, 72, 0
2, 3072, Note_on_c, 0, 72, 96
2, 5120, Note_off_c, 0, 72, 0
2, 5120, Note_on_c, 0, 71, 96
2, 6144, Note_off_c, 0, 71, 0
2, 6144, Note_on_c, 0, 69, 96
2, 8192, Note_off_c, 0, 69, 0
2, 8192, Note_on_c, 0, 67, 96
2, 9216, Note_off_c, 0, 67, 0
2, 9216, Note_on_c, 0, 72, 96
2, 11264, Note_off_c, 0, 72, 0
2, 11264, Note_on_c, 0, 74, 96
2, 12288, Note_off_c, 0, 74, 0
2, 12288, Note_on_c, 0, 76, 96
2, 14336, Note_off_c, 0, 76, 0
2, 14336, Note_on_c, 0, 76, 96
2, 15360, Note_off_c, 0, 76, 0
2, 15360, Note_on_c, 0, 76, 96
2, 17408, Note_off_c, 0, 76, 0
2, 17408, Note_on_c, 0, 76, 96
2, 18432, Note_off_c, 0, 76, 0
2, 18432, Note_on_c, 0, 74, 96
2, 20480, Note_off_c, 0, 74, 0
2, 20480, Note_on_c, 0, 72, 96
2, 21504, Note_off_c, 0, 72, 0
2, 21504, Note_on_c, 0, 77, 96
2, 23552, Note_off_c, 0, 77, 0
2, 23552, Note_on_c, 0, 76, 96
2, 24576, Note_off_c, 0, 76, 0
2, 24576, Note_on_c, 0, 74, 96
2, 26624, Note_off_c, 0, 74, 0
2, 26624, Note_on_c, 0, 72, 96
2, 27648, Note_off_c, 0, 72, 0
2, 27648, Note_on_c, 0, 74, 96
2, 29696, Note_off_c, 0, 74, 0
2, 29696, Note_on_c, 0, 76, 96
2, 30720, Note_off_c, 0, 76, 0
2, 30720, Note_on_c, 0, 74, 96
2, 32768, Note_off_c, 0, 74, 0
2, 32768, Note_on_c, 0, 72, 96
2, 33792, Note_off_c, 0, 72, 0
2, 33792, Note_on_c, 0, 69, 96
2, 34816, Note_off_c, 0, 69, 0
2, 34816, Note_on_c, 0, 71, 96
2, 36864, Note_off_c, 0, 71, 0
2, 36864, Note_on_c, 0, 72, 96
2, 38912, Note_off_c, 0, 72, 0
2, 38912, Note_on_c, 0, 79, 96
2, 39936, Note_off_c, 0, 79, 0
2, 39936, Note_on_c, 0, 76, 96
2, 41472, Note_off_c, 0, 76, 0
2, 41472, Note_on_c, 0, 74, 96
2, 41984, Note_off_c, 0, 74, 0
2, 41984, Note_on_c, 0, 72, 96
2, 43008, Note_off_c, 0, 72, 0
2, 43008, Note_on_c, 0, 74, 96
2, 44544, Note_off_c, 0, 74, 0
2, 44544, Note_on_c, 0, 76, 96
2, 45056, Note_off_c, 0, 76, 0
2, 45056, Note_on_c, 0, 77, 96
2, 46080, Note_off_c, 0, 77, 0
2, 46080, Note_on_c, 0, 76, 96
2, 47104, Note_off_c, 0, 76, 0
2, 47104, Note_on_c, 0, 74, 96
2, 49152, Note_off_c, 0, 74, 0
2, 49152, Note_on_c, 0, 72, 96
2, 52224, Note_off_c, 0, 72, 0
2, 52224, End_track
3, 0, Start_track
3, 0, Title_t, "Instrument 2"
3, 2048, Note_on_c, 1, 67, 96
3, 3072, Note_off_c, 1, 67, 0
3, 3072, Note_on_c, 1, 67, 96
3, 5120, Note_off_c, 1, 67, 0
3, 5120, Note_on_c, 1, 67, 96
3, 5632, Note_off_c, 1, 67, 0
3, 5632, Note_on_c, 1, 65, 96
3, 6144, Note_off_c, 1, 65, 0
3, 6144, Note_on_c, 1, 64, 96
3, 7680, Note_off_c, 1, 64, 0
3, 7680, Note_on_c, 1, 65, 96
3, 8192, Note_off_c, 1, 65, 0
3, 8192, Note_on_c, 1, 67, 96
3, 9216, Note_off_c, 1, 67, 0
3, 9216, Note_on_c, 1, 64, 96
3, 10240, Note_off_c, 1, 64, 0
3, 10240, Note_on_c, 1, 72, 96
3, 11264, Note_off_c, 1, 72, 0
3, 11264, Note_on_c, 1, 71, 96
3, 12288, Note_off_c, 1, 71, 0
3, 12288, Note_on_c, 1, 67, 96
3, 14336, Note_off_c, 1, 67, 0
3, 14336, Note_on_c, 1, 67, 96
3, 15360, Note_off_c, 1, 67, 0
3, 15360, Note_on_c, 1, 67, 96
3, 17408, Note_off_c, 1, 67, 0
3, 17408, Note_on_c, 1, 67, 96
3, 18432, Note_off_c, 1, 67, 0
3, 18432, Note_on_c, 1, 65, 96
3, 19456, Note_off_c, 1, 65, 0
3, 19456, Note_on_c, 1, 64, 96
3, 20480, Note_off_c, 1, 64, 0
3, 20480, Note_on_c, 1, 64, 96
3, 21504, Note_off_c, 1, 64, 0
3, 21504, Note_on_c, 1, 69, 96
3, 22528, Note_off_c, 1, 69, 0
3, 22528, Note_on_c, 1, 67, 96
3, 23040, Note_off_c, 1, 67, 0
3, 23040, Note_on_c, 1, 65, 96
3, 23552, Note_off_c, 1, 65, 0
3, 23552, Note_on_c, 1, 72, 96
3, 24576, Note_off_c, 1, 72, 0
3, 24576, Note_on_c, 1, 71, 96
3, 26624, Note_off_c, 1, 71, 0
3, 26624, Note_on_c, 1, 64, 96
3, 27136, Note_off_c, 1, 64, 0
3, 27136, Note_on_c, 1, 66, 96
3, 27648, Note_off_c, 1, 66, 0
3, 27648, Note_on_c, 1, 67, 96
3, 29696, Note_off_c, 1, 67, 0
3, 29696, Note_on_c, 1, 67, 96
3, 30720, Note_off_c, 1, 67, 0
3, 30720, Note_on_c, 1, 68, 96
3, 32768, Note_off_c, 1, 68, 0
3, 32768, Note_on_c, 1, 69, 96
3, 33792, Note_off_c, 1, 69, 0
3, 33792, Note_on_c, 1, 69, 96
3, 34816, Note_off_c, 1, 69, 0
3, 34816, Note_on_c, 1, 67, 96
3, 35328, Note_off_c, 1, 67, 0
3, 35328, Note_on_c, 1, 65, 96
3, 35840, Note_off_c, 1, 65, 0
3, 35840, Note_on_c, 1, 67, 96
3, 36864, Note_off_c, 1, 67, 0
3, 36864, Note_on_c, 1, 67, 96
3, 38912, Note_off_c, 1, 67, 0
3, 38912, Note_on_c, 1, 67, 96
3, 39936, Note_off_c, 1, 67, 0
3, 39936, Note_on_c, 1, 67, 96
3, 41472, Note_off_c, 1, 67, 0
3, 41472, Note_on_c, 1, 65, 96
3, 41984, Note_off_c, 1, 65, 0
3, 41984, Note_on_c, 1, 67, 96
3, 43008, Note_off_c, 1, 67, 0
3, 43008, Note_on_c, 1, 69, 96
3, 44032, Note_off_c, 1, 69, 0
3, 44032, Note_on_c, 1, 67, 96
3, 45056, Note_off_c, 1, 67, 0
3, 45056, Note_on_c, 1, 72, 96
3, 46080, Note_off_c, 1, 72, 0
3, 46080, Note_on_c, 1, 72, 96
3, 47104, Note_off_c, 1, 72, 0
3, 47104, Note_on_c, 1, 71, 96
3, 47616, Note_off_c, 1, 71, 0
3, 47616, Note_on_c, 1, 69, 96
3, 48128, Note_off_c, 1, 69, 0
3, 48128, Note_on_c, 1, 67, 96
3, 49152, Note_off_c, 1, 67, 0
3, 49152, Note_on_c, 1, 67, 96
3, 52224, Note_off_c, 1, 67, 0
3, 52224, End_track
4, 0, Start_track
4, 0, Title_t, "Instrument 3"
4, 2048, Note_on_c, 2, 60, 96
4, 3072, Note_off_c, 2, 60, 0
4, 3072, Note_on_c, 2, 64, 96
4, 5120, Note_off_c, 2, 64, 0
4, 5120, Note_on_c, 2, 62, 96
4, 6144, Note_off_c, 2, 62, 0
4, 6144, Note_on_c, 2, 60, 96
4, 8192, Note_off_c, 2, 60, 0
4, 8192, Note_on_c, 2, 60, 96
4, 9216, Note_off_c, 2, 60, 0
4, 9216, Note_on_c, 2, 60, 96
4, 10240, Note_off_c, 2, 60, 0
4, 10240, Note_on_c, 2, 55, 96
4, 11264, Note_off_c, 2, 55, 0
4, 11264, Note_on_c, 2, 67, 96
4, 12288, Note_off_c, 2, 67, 0
4, 12288, Note_on_c, 2, 64, 96
4, 14336, Note_off_c, 2, 64, 0
4, 14336, Note_on_c, 2, 60, 96
4, 15360, Note_off_c, 2, 60, 0
4, 15360, Note_on_c, 2, 60, 96
4, 17408, Note_off_c, 2, 60, 0
4, 17408, Note_on_c, 2, 59, 96
4, 17920, Note_off_c, 2, 59, 0
4, 17920, Note_on_c, 2, 57, 96
4, 18432, Note_off_c, 2, 57, 0
4, 18432, Note_on_c, 2, 59, 96
4, 20480, Note_off_c, 2, 59, 0
4, 20480, Note_on_c, 2, 60, 96
4, 21504, Note_off_c, 2, 60, 0
4, 21504, Note_on_c, 2, 60, 96
4, 23040, Note_off_c, 2, 60, 0
4, 23040, Note_on_c, 2, 59, 96
4, 23552, Note_off_c, 2, 59, 0
4, 23552, Note_on_c, 2, 67, 96
4, 24576, Note_off_c, 2, 67, 0
4, 24576, Note_on_c, 2, 67, 96
4, 26624, Note_off_c, 2, 67, 0
4, 26624, Note_on_c, 2, 60, 96
4, 27648, Note_off_c, 2, 60, 0
4, 27648, Note_on_c, 2, 59, 96
4, 29696, Note_off_c, 2, 59, 0
4, 29696, Note_on_c, 2, 60, 96
4, 30720, Note_off_c, 2, 60, 0
4, 30720, Note_on_c, 2, 59, 96
4, 32768, Note_off_c, 2, 59, 0
4, 32768, Note_on_c, 2, 60, 96
4, 33792, Note_off_c, 2, 60, 0
4, 33792, Note_on_c, 2, 60, 96
4, 34816, Note_off_c, 2, 60, 0
4, 34816, Note_on_c, 2, 59, 96
4, 35328, Note_off_c, 2, 59, 0
4, 35328, Note_on_c, 2, 60, 96
4, 35840, Note_off_c, 2, 60, 0
4, 35840, Note_on_c, 2, 62, 96
4, 36864, Note_off_c, 2, 62, 0
4, 36864, Note_on_c, 2, 64, 96
4, 38912, Note_off_c, 2, 64, 0
4, 38912, Note_on_c, 2, 62, 96
4, 39936, Note_off_c, 2, 62, 0
4, 39936, Note_on_c, 2, 60, 96
4, 40960, Note_off_c, 2, 60, 0
4, 40960, Note_on_c, 2, 55, 96
4, 41984, Note_off_c, 2, 55, 0
4, 41984, Note_on_c, 2, 60, 96
4, 43008, Note_off_c, 2, 60, 0
4, 43008, Note_on_c, 2, 60, 96
4, 44032, Note_off_c, 2, 60, 0
4, 44032, Note_on_c, 2, 59, 96
4, 45056, Note_off_c, 2, 59, 0
4, 45056, Note_on_c, 2, 57, 96
4, 46080, Note_off_c, 2, 57, 0
4, 46080, Note_on_c, 2, 55, 96
4, 47104, Note_off_c, 2, 55, 0
4, 47104, Note_on_c, 2, 67, 96
4, 48640, Note_off_c, 2, 67, 0
4, 48640, Note_on_c, 2, 65, 96
4, 49152, Note_off_c, 2, 65, 0
4, 49152, Note_on_c, 2, 64, 96
4, 52224, Note_off_c, 2, 64, 0
4, 52224, End_track
5, 0, Start_track
5, 0, Title_t, "Instrument 4"
5, 2048, Note_on_c, 3, 48, 96
5, 3072, Note_off_c, 3, 48, 0
5, 3072, Note_on_c, 3, 48, 96
5, 3584, Note_off_c, 3, 48, 0
5, 3584, Note_on_c, 3, 50, 96
5, 4096, Note_off_c, 3, 50, 0
5, 4096, Note_on_c, 3, 52, 96
5, 4608, Note_off_c, 3, 52, 0
5, 4608, Note_on_c, 3, 53, 96
5, 5120, Note_off_c, 3, 53, 0
5, 5120, Note_on_c, 3, 55, 96
5, 6144, Note_off_c, 3, 55, 0
5, 6144, Note_on_c, 3, 45, 96
5, 6656, Note_off_c, 3, 45, 0
5, 6656, Note_on_c, 3, 47, 96
5, 7168, Note_off_c, 3, 47, 0
5, 7168, Note_on_c, 3, 48, 96
5, 7680, Note_off_c, 3, 48, 0
5, 7680, Note_on_c, 3, 50, 96
5, 8192, Note_off_c, 3, 50, 0
5, 8192, Note_on_c, 3, 52, 96
5, 9216, Note_off_c, 3, 52, 0
5, 9216, Note_on_c, 3, 57, 96
5, 10240, Note_off_c, 3, 57, 0
5, 10240, Note_on_c, 3, 52, 96
5, 11264, Note_off_c, 3, 52, 0
5, 11264, Note_on_c, 3, 55, 96
5, 12288, Note_off_c, 3, 55, 0
5, 12288, Note_on_c, 3, 48, 96
5, 14336, Note_off_c, 3, 48, 0
5, 14336, Note_on_c, 3, 48, 96
5, 15360, Note_off_c, 3, 48, 0
5, 15360, Note_on_c, 3, 48, 96
5, 15872, Note_off_c, 3, 48, 0
5, 15872, Note_on_c, 3, 50, 96
5, 16384, Note_off_c, 3, 50, 0
5, 16384, Note_on_c, 3, 52, 96
5, 16896, Note_off_c, 3, 52, 0
5, 16896, Note_on_c, 3, 53, 96
5, 17408, Note_off_c, 3, 53, 0
5, 17408, Note_on_c, 3, 55, 96
5, 17920, Note_off_c, 3, 55, 0
5, 17920, Note_on_c, 3, 57, 96
5, 18432, Note_off_c, 3, 57, 0
5, 18432, Note_on_c, 3, 56, 96
5, 18944, Note_off_c, 3, 56, 0
5, 18944, Note_on_c, 3, 54, 96
5, 19456, Note_off_c, 3, 54, 0
5, 19456, Note_on_c, 3, 56, 96
5, 19968, Note_off_c, 3, 56, 0
5, 19968, Note_on_c, 3, 52, 96
5, 20480, Note_off_c, 3, 52, 0
5, 20480, Note_on_c, 3, 57, 96
5, 20992, Note_off_c, 3, 57, 0
5, 20992, Note_on_c, 3, 55, 96
5, 21504, Note_off_c, 3, 55, 0
5, 21504, Note_on_c, 3, 53, 96
5, 22528, Note_off_c, 3, 53, 0
5, 22528, Note_on_c, 3, 52, 96
5, 23040, Note_off_c, 3, 52, 0
5, 23040, Note_on_c, 3, 50, 96
5, 23552, Note_off_c, 3, 50, 0
5, 23552, Note_on_c, 3, 48, 96
5, 24576, Note_off_c, 3, 48, 0
5, 24576, Note_on_c, 3, 55, 96
5, 26624, Note_off_c, 3, 55, 0
5, 26624, Note_on_c, 3, 57, 96
5, 27648, Note_off_c, 3, 57, 0
5, 27648, Note_on_c, 3, 55, 96
5, 28160, Note_off_c, 3, 55, 0
5, 28160, Note_on_c, 3, 53, 96
5, 28672, Note_off_c, 3, 53, 0
5, 28672, Note_on_c, 3, 52, 96
5, 29184, Note_off_c, 3, 52, 0
5, 29184, Note_on_c, 3, 50, 96
5, 29696, Note_off_c, 3, 50, 0
5, 29696, Note_on_c, 3, 48, 96
5, 30208, Note_off_c, 3, 48, 0
5, 30208, Note_on_c, 3, 50, 96
5, 30720, Note_off_c, 3, 50, 0
5, 30720, Note_on_c, 3, 52, 96
5, 31232, Note_off_c, 3, 52, 0
5, 31232, Note_on_c, 3, 50, 96
5, 31744, Note_off_c, 3, 50, 0
5, 31744, Note_on_c, 3, 48, 96
5, 32256, Note_off_c, 3, 48, 0
5, 32256, Note_on_c, 3, 47, 96
5, 32768, Note_off_c, 3, 47, 0
5, 32768, Note_on_c, 3, 45, 96
5, 33792, Note_off_c, 3, 45, 0
5, 33792, Note_on_c, 3, 53, 96
5, 34816, Note_off_c, 3, 53, 0
5, 34816, Note_on_c, 3, 50, 96
5, 35840, Note_off_c, 3, 50, 0
5, 35840, Note_on_c, 3, 55, 96
5, 36864, Note_off_c, 3, 55, 0
5, 36864, Note_on_c, 3, 48, 96
5, 38912, Note_off_c, 3, 48, 0
5, 38912, Note_on_c, 3, 47, 96
5, 39936, Note_off_c, 3, 47, 0
5, 39936, Note_on_c, 3, 48, 96
5, 40448, Note_off_c, 3, 48, 0
5, 40448, Note_on_c, 3, 47, 96
5, 40960, Note_off_c, 3, 47, 0
5, 40960, Note_on_c, 3, 48, 96
5, 41472, Note_off_c, 3, 48, 0
5, 41472, Note_on_c, 3, 50, 96
5, 41984, Note_off_c, 3, 50, 0
5, 41984, Note_on_c, 3, 52, 96
5, 42496, Note_off_c, 3, 52, 0
5, 42496, Note_on_c, 3, 48, 96
5, 43008, Note_off_c, 3, 48, 0
5, 43008, Note_on_c, 3, 53, 96
5, 43520, Note_off_c, 3, 53, 0
5, 43520, Note_on_c, 3, 52, 96
5, 44032, Note_off_c, 3, 52, 0
5, 44032, Note_on_c, 3, 53, 96
5, 44544, Note_off_c, 3, 53, 0
5, 44544, Note_on_c, 3, 55, 96
5, 45056, Note_off_c, 3, 55, 0
5, 45056, Note_on_c, 3, 57, 96
5, 45568, Note_off_c, 3, 57, 0
5, 45568, Note_on_c, 3, 59, 96
5, 46080, Note_off_c, 3, 59, 0
5, 46080, Note_on_c, 3, 60, 96
5, 47104, Note_off_c, 3, 60, 0
5, 47104, Note_on_c, 3, 55, 96
5, 49152, Note_off_c, 3, 55, 0
5, 49152, Note_on_c, 3, 48, 96
5, 52224, Note_off_c, 3, 48, 0
5, 52224, End_track
6, 0, Start_track
6, 0, Title_t, "Instrument 5"
6, 2048, Note_on_c, 4, 48, 96
6, 2560, Note_off_c, 4, 48, 0
6, 2560, Note_on_c, 4, 47, 96
6, 3072, Note_off_c, 4, 47, 0
6, 3072, Note_on_c, 4, 48, 96
6, 3584, Note_off_c, 4, 48, 0
6, 3584, Note_on_c, 4, 50, 96
6, 4096, Note_off_c, 4, 50, 0
6, 4096, Note_on_c, 4, 52, 96
6, 4608, Note_off_c, 4, 52, 0
6, 4608, Note_on_c, 4, 53, 96
6, 5120, Note_off_c, 4, 53, 0
6, 5120, Note_on_c, 4, 55, 96
6, 5632, Note_off_c, 4, 55, 0
6, 5632, Note_on_c, 4, 43, 96
6, 6144, Note_off_c, 4, 43, 0
6, 6144, Note_on_c, 4, 45, 96
6, 6656, Note_off_c, 4, 45, 0
6, 6656, Note_on_c, 4, 47, 96
6, 7168, Note_off_c, 4, 47, 0
6, 7168, Note_on_c, 4, 48, 96
6, 7680, Note_off_c, 4, 48, 0
6, 7680, Note_on_c, 4, 50, 96
6, 8192, Note_off_c, 4, 50, 0
6, 8192, Note_on_c, 4, 52, 96
6, 8704, Note_off_c, 4, 52, 0
6, 8704, Note_on_c, 4, 40, 96
6, 9216, Note_off_c, 4, 40, 0
6, 9216, Note_on_c, 4, 45, 96
6, 10240, Note_off_c, 4, 45, 0
6, 10240, Note_on_c, 4, 40, 96
6, 11264, Note_off_c, 4, 40, 0
6, 11264, Note_on_c, 4, 43, 96
6, 12288, Note_off_c, 4, 43, 0
6, 12288, Note_on_c, 4, 36, 96
6, 14336, Note_off_c, 4, 36, 0
6, 14336, Note_on_c, 4, 48, 96
6, 14848, Note_off_c, 4, 48, 0
6, 14848, Note_on_c, 4, 47, 96
6, 15360, Note_off_c, 4, 47, 0
6, 15360, Note_on_c, 4, 48, 96
6, 15872, Note_off_c, 4, 48, 0
6, 15872, Note_on_c, 4, 50, 96
6, 16384, Note_off_c, 4, 50, 0
6, 16384, Note_on_c, 4, 52, 96
6, 16896, Note_off_c, 4, 52, 0
6, 16896, Note_on_c, 4, 53, 96
6, 17408, Note_off_c, 4, 53, 0
6, 17408, Note_on_c, 4, 55, 96
6, 17920, Note_off_c, 4, 55, 0
6, 17920, Note_on_c, 4, 57, 96
6, 18432, Note_off_c, 4, 57, 0
6, 18432, Note_on_c, 4, 56, 96
6, 18944, Note_off_c, 4, 56, 0
6, 18944, Note_on_c, 4, 54, 96
6, 19456, Note_off_c, 4, 54, 0
6, 19456, Note_on_c, 4, 56, 96
6, 19968, Note_off_c, 4, 56, 0
6, 19968, Note_on_c, 4, 52, 96
6, 20480, Note_off_c, 4, 52, 0
6, 20480, Note_on_c, 4, 57, 96
6, 20992, Note_off_c, 4, 57, 0
6, 20992, Note_on_c, 4, 55, 96
6, 21504, Note_off_c, 4, 55, 0
6, 21504, Note_on_c, 4, 53, 96
6, 22016, Note_off_c, 4, 53, 0
6, 22016, Note_on_c, 4, 41, 96
6, 22528, Note_off_c, 4, 41, 0
6, 22528, Note_on_c, 4, 40, 96
6, 23040, Note_off_c, 4, 40, 0
6, 23040, Note_on_c, 4, 38, 96
6, 23552, Note_off_c, 4, 38, 0
6, 23552, Note_on_c, 4, 36, 96
6, 24576, Note_off_c, 4, 36, 0
6, 24576, Note_on_c, 4, 43, 96
6, 26624, Note_off_c, 4, 43, 0
6, 26624, Note_on_c, 4, 57, 96
6, 27648, Note_off_c, 4, 57, 0
6, 27648, Note_on_c, 4, 55, 96
6, 28160, Note_off_c, 4, 55, 0
6, 28160, Note_on_c, 4, 53, 96
6, 28672, Note_off_c, 4, 53, 0
6, 28672, Note_on_c, 4, 52, 96
6, 29184, Note_off_c, 4, 52, 0
6, 29184, Note_on_c, 4, 50, 96
6, 29696, Note_off_c, 4, 50, 0
6, 29696, Note_on_c, 4, 48, 96
6, 30208, Note_off_c, 4, 48, 0
6, 30208, Note_on_c, 4, 50, 96
6, 30720, Note_off_c, 4, 50, 0
6, 30720, Note_on_c, 4, 52, 96
6, 31232, Note_off_c, 4, 52, 0
6, 31232, Note_on_c, 4, 50, 96
6, 31744, Note_off_c, 4, 50, 0
6, 31744, Note_on_c, 4, 48, 96
6, 32256, Note_off_c, 4, 48, 0
6, 32256, Note_on_c, 4, 47, 96
6, 32768, Note_off_c, 4, 47, 0
6, 32768, Note_on_c, 4, 45, 96
6, 33280, Note_off_c, 4, 45, 0
6, 33280, Note_on_c, 4, 43, 96
6, 33792, Note_off_c, 4, 43, 0
6, 33792, Note_on_c, 4, 41, 96
6, 34816, Note_off_c, 4, 41, 0
6, 34816, Note_on_c, 4, 38, 96
6, 35840, Note_off_c, 4, 38, 0
6, 35840, Note_on_c, 4, 43, 96
6, 36864, Note_off_c, 4, 43, 0
6, 36864, Note_on_c, 4, 36, 96
6, 38912, Note_off_c, 4, 36, 0
6, 38912, Note_on_c, 4, 47, 96
6, 39936, Note_off_c, 4, 47, 0
6, 39936, Note_on_c, 4, 48, 96
6, 40448, Note_off_c, 4, 48, 0
6, 40448, Note_on_c, 4, 47, 96
6, 40960, Note_off_c, 4, 47, 0
6, 40960, Note_on_c, 4, 48, 96
6, 41472, Note_off_c, 4, 48, 0
6, 41472, Note_on_c, 4, 50, 96
6, 41984, Note_off_c, 4, 50, 0
6, 41984, Note_on_c, 4, 52, 96
6, 42496, Note_off_c, 4, 52, 0
6, 42496, Note_on_c, 4, 48, 96
6, 43008, Note_off_c, 4, 48, 0
6, 43008, Note_on_c, 4, 53, 96
6, 43520, Note_off_c, 4, 53, 0
6, 43520, Note_on_c, 4, 52, 96
6, 44032, Note_off_c, 4, 52, 0
6, 44032, Note_on_c, 4, 53, 96
6, 44544, Note_off_c, 4, 53, 0
6, 44544, Note_on_c, 4, 55, 96
6, 45056, Note_off_c, 4, 55, 0
6, 45056, Note_on_c, 4, 57, 96
6, 45568, Note_off_c, 4, 57, 0
6, 45568, Note_on_c, 4, 59, 96
6, 46080, Note_off_c, 4, 59, 0
6, 46080, Note_on_c, 4, 60, 96
6, 47104, Note_off_c, 4, 60, 0
6, 47104, Note_on_c, 4, 55, 96
6, 48128, Note_off_c, 4, 55, 0
6, 48128, Note_on_c, 4, 43, 96
6, 49152, Note_off_c, 4, 43, 0
6, 49152, Note_on_c, 4, 36, 96
6, 52224, Note_off_c, 4, 36, 0
6, 52224, End_track
7, 0, Start_track
7, 0, Title_t, "Instrument 6"
7, 8192, Note_on_c, 5, 72, 96
7, 8192, Note_on_c, 5, 67, 96
7, 8192, Note_on_c, 5, 64, 96
7, 8704, Note_off_c, 5, 72, 0
7, 8704, Note_on_c, 5, 74, 96
7, 9216, Note_off_c, 5, 74, 0
7, 9216, Note_off_c, 5, 67, 0
7, 9216, Note_off_c, 5, 64, 0
7, 9216, Note_on_c, 5, 76, 96
7, 9216, Note_on_c, 5, 72, 96
7, 9216, Note_on_c, 5, 64, 96
7, 9728, Note_off_c, 5, 76, 0
7, 9728, Note_on_c, 5, 77, 96
7, 10240, Note_off_c, 5, 77, 0
7, 10240, Note_on_c, 5, 79, 96
7, 10240, Note_off_c, 5, 72, 0
7, 10240, Note_on_c, 5, 76, 96
7, 10240, Note_off_c, 5, 64, 0
7, 10240, Note_on_c, 5, 60, 96
7, 10752, Note_off_c, 5, 79, 0
7, 10752, Note_on_c, 5, 81, 96
7, 11264, Note_off_c, 5, 81, 0
7, 11264, Note_on_c, 5, 83, 96
7, 11264, Note_off_c, 5, 76, 0
7, 11264, Note_on_c, 5, 74, 96
7, 11264, Note_off_c, 5, 60, 0
7, 11264, Note_on_c, 5, 67, 96
7, 12288, Note_off_c, 5, 83, 0
7, 12288, Note_off_c, 5, 74, 0
7, 12288, Note_off_c, 5, 67, 0
7, 12288, Note_on_c, 5, 84, 96
7, 12288, Note_on_c, 5, 76, 96
7, 12288, Note_on_c, 5, 67, 96
7, 14336, Note_off_c, 5, 84, 0
7, 14336, Note_off_c, 5, 76, 0
7, 14336, Note_off_c, 5, 67, 0
7, 20480, Note_on_c, 5, 72, 96
7, 20480, Note_on_c, 5, 76, 96
7, 20480, Note_on_c, 5, 64, 96
7, 20992, Note_off_c, 5, 72, 0
7, 20992, Note_on_c, 5, 71, 96
7, 21504, Note_off_c, 5, 71, 0
7, 21504, Note_off_c, 5, 76, 0
7, 21504, Note_off_c, 5, 64, 0
7, 21504, Note_on_c, 5, 72, 96
7, 21504, Note_on_c, 5, 77, 96
7, 21504, Note_on_c, 5, 72, 96
7, 22016, Note_off_c, 5, 72, 0
7, 22016, Note_on_c, 5, 74, 96
7, 22528, Note_off_c, 5, 74, 0
7, 22528, Note_on_c, 5, 76, 96
7, 22528, Note_off_c, 5, 77, 0
7, 22528, Note_on_c, 5, 72, 96
7, 22528, Note_off_c, 5, 72, 0
7, 22528, Note_on_c, 5, 60, 96
7, 23040, Note_off_c, 5, 76, 0
7, 23040, Note_on_c, 5, 77, 96
7, 23040, Note_off_c, 5, 72, 0
7, 23040, Note_on_c, 5, 74, 96
7, 23552, Note_off_c, 5, 77, 0
7, 23552, Note_on_c, 5, 79, 96
7, 23552, Note_off_c, 5, 74, 0
7, 23552, Note_on_c, 5, 76, 96
7, 23552, Note_off_c, 5, 60, 0
7, 23552, Note_on_c, 5, 72, 96
7, 24064, Note_off_c, 5, 79, 0
7, 24064, Note_on_c, 5, 81, 96
7, 24064, Note_off_c, 5, 76, 0
7, 24064, Note_on_c, 5, 77, 96
7, 24576, Note_off_c, 5, 81, 0
7, 24576, Note_off_c, 5, 77, 0
7, 24576, Note_off_c, 5, 72, 0
7, 24576, Note_on_c, 5, 83, 96
7, 24576, Note_on_c, 5, 79, 96
7, 24576, Note_on_c, 5, 74, 96
7, 26624, Note_off_c, 5, 83, 0
7, 26624, Note_off_c, 5, 79, 0
7, 26624, Note_off_c, 5, 74, 0
7, 32768, Note_on_c, 5, 72, 96
7, 32768, Note_on_c, 5, 72, 96
7, 32768, Note_on_c, 5, 64, 96
7, 33280, Note_off_c, 5, 72, 0
7, 33280, Note_on_c, 5, 74, 96
7, 33280, Note_off_c, 5, 72, 0
7, 33280, Note_on_c, 5, 71, 96
7, 33280, Note_off_c, 5, 64, 0
7, 33280, Note_on_c, 5, 67, 96
7, 33792, Note_off_c, 5, 74, 0
7, 33792, Note_off_c, 5, 71, 0
7, 33792, Note_off_c, 5, 67, 0
7, 33792, Note_on_c, 5, 76, 96
7, 33792, Note_on_c, 5, 72, 96
7, 33792, Note_on_c, 5, 72, 96
7, 34304, Note_off_c, 5, 76, 0
7, 34304, Note_on_c, 5, 77, 96
7, 34304, Note_off_c, 5, 72, 0
7, 34304, Note_on_c, 5, 74, 96
7, 34816, Note_off_c, 5, 77, 0
7, 34816, Note_on_c, 5, 79, 96
7, 34816, Note_off_c, 5, 74, 0
7, 34816, Note_on_c, 5, 76, 96
7, 34816, Note_off_c, 5, 72, 0
7, 35328, Note_off_c, 5, 79, 0
7, 35328, Note_on_c, 5, 81, 96
7, 35328, Note_off_c, 5, 76, 0
7, 35328, Note_on_c, 5, 77, 96
7, 35840, Note_off_c, 5, 81, 0
7, 35840, Note_on_c, 5, 79, 96
7, 35840, Note_off_c, 5, 77, 0
7, 35840, Note_on_c, 5, 76, 96
7, 35840, Note_on_c, 5, 67, 96
7, 36352, Note_off_c, 5, 79, 0
7, 36352, Note_on_c, 5, 77, 96
7, 36352, Note_off_c, 5, 76, 0
7, 36352, Note_on_c, 5, 74, 96
7, 36864, Note_off_c, 5, 77, 0
7, 36864, Note_off_c, 5, 74, 0
7, 36864, Note_off_c, 5, 67, 0
7, 36864, Note_on_c, 5, 76, 96
7, 36864, Note_on_c, 5, 72, 96
7, 36864, Note_on_c, 5, 67, 96
7, 38912, Note_off_c, 5, 76, 0
7, 38912, Note_off_c, 5, 72, 0
7, 38912, Note_off_c, 5, 67, 0
7, 45056, Note_on_c, 5, 72, 96
7, 45056, Note_on_c, 5, 72, 96
7, 45056, Note_on_c, 5, 60, 96
7, 45568, Note_off_c, 5, 72, 0
7, 45568, Note_on_c, 5, 74, 96
7, 46080, Note_off_c, 5, 74, 0
7, 46080, Note_off_c, 5, 60, 0
7, 46080, Note_on_c, 5, 76, 96
7, 46080, Note_on_c, 5, 67, 96
7, 46592, Note_off_c, 5, 76, 0
7, 46592, Note_on_c, 5, 77, 96
7, 47104, Note_off_c, 5, 77, 0
7, 47104, Note_on_c, 5, 79, 96
7, 47104, Note_off_c, 5, 72, 0
7, 47104, Note_on_c, 5, 74, 96
7, 47104, Note_off_c, 5, 67, 0
7, 47104, Note_on_c, 5, 67, 96
7, 47616, Note_off_c, 5, 79, 0
7, 47616, Note_on_c, 5, 81, 96
7, 48128, Note_off_c, 5, 81, 0
7, 48128, Note_on_c, 5, 83, 96
7, 48128, Note_off_c, 5, 74, 0
7, 48128, Note_on_c, 5, 79, 96
7, 48128, Note_off_c, 5, 67, 0
7, 48128, Note_on_c, 5, 74, 96
7, 49152, Note_off_c, 5, 83, 0
7, 49152, Note_off_c, 5, 79, 0
7, 49152, Note_off_c, 5, 74, 0
7, 49152, Note_on_c, 5, 84, 96
7, 49152, Note_on_c, 5, 79, 96
7, 49152, Note_on_c, 5, 76, 96
7, 52224, Note_off_c, 5, 84, 0
7, 52224, Note_off_c, 5, 79, 0
7, 52224, Note_off_c, 5, 76, 0
7, 52224, End_track
8, 0, Start_track
8, 0, Title_t, "Instrument 7"
8, 2048, Note_on_c, 6, 60, 96
8, 3072, Note_off_c, 6, 60, 0
8, 3072, Note_on_c, 6, 64, 96
8, 5120, Note_off_c, 6, 64, 0
8, 5120, Note_on_c, 6, 62, 96
8, 6144, Note_off_c, 6, 62, 0
8, 6144, Note_on_c, 6, 60, 96
8, 8192, Note_off_c, 6, 60, 0
8, 8192, Note_on_c, 6, 60, 96
8, 9216, Note_off_c, 6, 60, 0
8, 9216, Note_on_c, 6, 60, 96
8, 10240, Note_off_c, 6, 60, 0
8, 10240, Note_on_c, 6, 55, 96
8, 11264, Note_off_c, 6, 55, 0
8, 11264, Note_on_c, 6, 67, 96
8, 12288, Note_off_c, 6, 67, 0
8, 12288, Note_on_c, 6, 64, 96
8, 14336, Note_off_c, 6, 64, 0
8, 14336, Note_on_c, 6, 60, 96
8, 15360, Note_off_c, 6, 60, 0
8, 15360, Note_on_c, 6, 60, 96
8, 17408, Note_off_c, 6, 60, 0
8, 17408, Note_on_c, 6, 60, 96
8, 18432, Note_off_c, 6, 60, 0
8, 18432, Note_on_c, 6, 62, 96
8, 19456, Note_off_c, 6, 62, 0
8, 19456, Note_on_c, 6, 64, 96
8, 20480, Note_off_c, 6, 64, 0
8, 20480, Note_on_c, 6, 67, 96
8, 21504, Note_off_c, 6, 67, 0
8, 21504, Note_on_c, 6, 60, 96
8, 23040, Note_off_c, 6, 60, 0
8, 23040, Note_on_c, 6, 59, 96
8, 23552, Note_off_c, 6, 59, 0
8, 23552, Note_on_c, 6, 67, 96
8, 24576, Note_off_c, 6, 67, 0
8, 24576, Note_on_c, 6, 67, 96
8, 26624, Note_off_c, 6, 67, 0
8, 26624, Note_on_c, 6, 69, 96
8, 27648, Note_off_c, 6, 69, 0
8, 27648, Note_on_c, 6, 71, 96
8, 28160, Note_off_c, 6, 71, 0
8, 28160, Note_on_c, 6, 69, 96
8, 28672, Note_off_c, 6, 69, 0
8, 28672, Note_on_c, 6, 67, 96
8, 29184, Note_off_c, 6, 67, 0
8, 29184, Note_on_c, 6, 65, 96
8, 29696, Note_off_c, 6, 65, 0
8, 29696, Note_on_c, 6, 64, 96
8, 30720, Note_off_c, 6, 64, 0
8, 30720, Note_on_c, 6, 64, 96
8, 32768, Note_off_c, 6, 64, 0
8, 32768, Note_on_c, 6, 64, 96
8, 34304, Note_off_c, 6, 64, 0
8, 34304, Note_on_c, 6, 62, 96
8, 34816, Note_off_c, 6, 62, 0
8, 34816, Note_on_c, 6, 62, 96
8, 36864, Note_off_c, 6, 62, 0
8, 36864, Note_on_c, 6, 64, 96
8, 38912, Note_off_c, 6, 64, 0
8, 38912, Note_on_c, 6, 62, 96
8, 39936, Note_off_c, 6, 62, 0
8, 39936, Note_on_c, 6, 60, 96
8, 41984, Note_off_c, 6, 60, 0
8, 41984, Note_on_c, 6, 60, 96
8, 43008, Note_off_c, 6, 60, 0
8, 43008, Note_on_c, 6, 65, 96
8, 44032, Note_off_c, 6, 65, 0
8, 44032, Note_on_c, 6, 62, 96
8, 45056, Note_off_c, 6, 62, 0
8, 45056, Note_on_c, 6, 60, 96
8, 46080, Note_off_c, 6, 60, 0
8, 46080, Note_on_c, 6, 67, 96
8, 47104, Note_off_c, 6, 67, 0
8, 47104, Note_on_c, 6, 67, 96
8, 48640, Note_off_c, 6, 67, 0
8, 48640, Note_on_c, 6, 65, 96
8, 49152, Note_off_c, 6, 65, 0
8, 49152, Note_on_c, 6, 64, 96
8, 52224, Note_off_c, 6, 64, 0
8, 52224, End_track
9, 0, Start_track
9, 0, Title_t, "Instrument 8"
9, 8192, Note_on_c, 7, 48, 96
9, 9216, Note_off_c, 7, 48, 0
9, 9216, Note_on_c, 7, 48, 96
9, 10240, Note_off_c, 7, 48, 0
9, 10240, Note_on_c, 7, 48, 96
9, 11264, Note_off_c, 7, 48, 0
9, 11264, Note_on_c, 7, 43, 96
9, 12288, Note_off_c, 7, 43, 0
9, 12288, Note_on_c, 7, 48, 96
9, 14336, Note_off_c, 7, 48, 0
9, 20480, Note_on_c, 7, 48, 96
9, 21504, Note_off_c, 7, 48, 0
9, 21504, Note_on_c, 7, 48, 96
9, 22528, Note_off_c, 7, 48, 0
9, 22528, Note_on_c, 7, 48, 96
9, 23552, Note_off_c, 7, 48, 0
9, 23552, Note_on_c, 7, 48, 96
9, 24576, Note_off_c, 7, 48, 0
9, 24576, Note_on_c, 7, 43, 96
9, 26624, Note_off_c, 7, 43, 0
9, 32768, Note_on_c, 7, 48, 96
9, 33792, Note_off_c, 7, 48, 0
9, 33792, Note_on_c, 7, 48, 96
9, 34816, Note_off_c, 7, 48, 0
9, 35840, Note_on_c, 7, 43, 96
9, 36864, Note_off_c, 7, 43, 0
9, 36864, Note_on_c, 7, 48, 96
9, 38912, Note_off_c, 7, 48, 0
9, 39936, Note_on_c, 7, 48, 96
9, 41984, Note_off_c, 7, 48, 0
9, 45056, Note_on_c, 7, 48, 96
9, 46080, Note_off_c, 7, 48, 0
9, 46080, Note_on_c, 7, 48, 96
9, 47104, Note_off_c, 7, 48, 0
9, 47104, Note_on_c, 7, 43, 96
9, 48128, Note_off_c, 7, 43, 0
9, 48128, Note_on_c, 7, 43, 96
9, 49152, Note_off_c, 7, 43, 0
9, 49152, Note_on_c, 7, 48, 96
9, 52224, Note_off_c, 7, 48, 0
9, 52224, End_track
0, 0, End_of_file
