0, 0, Header, 1, 6, 1024
1, 0, Start_track
1, 0, Time_signature, 3, 2, 24, 8
1, 0, Key_signature, 1, "major"
1, 0, Tempo, 869565
1, 615424, End_track
2, 0, Start_track
2, 0, Title_t, "Instrument 1"
2, 48128, Note_on_c, 0, 74, 96
2, 48256, Note_off_c, 0, 74, 0
2, 48256, Note_on_c, 0, 72, 96
2, 48384, Note_off_c, 0, 72, 0
2, 48384, Note_on_c, 0, 74, 96
2, 49152, Note_off_c, 0, 74, 0
2, 49152, Note_on_c, 0, 76, 96
2, 50176, Note_off_c, 0, 76, 0
2, 50176, Note_on_c, 0, 76, 96
2, 50304, Note_off_c, 0, 76, 0
2, 50304, Note_on_c, 0, 74, 96
2, 50432, Note_off_c, 0, 74, 0
2, 50432, Note_on_c, 0, 72, 96
2, 50496, Note_off_c, 0, 72, 0
2, 50496, Note_on_c, 0, 74, 96
2, 50560, Note_off_c, 0, 74, 0
2, 50560, Note_on_c, 0, 76, 96
2, 50624, Note_off_c, 0, 76, 0
2, 50624, Note_on_c, 0, 74, 96
2, 51712, Note_off_c, 0, 74, 0
2, 51712, Note_on_c, 0, 72, 96
2, 52224, Note_off_c, 0, 72, 0
2, 52224, Note_on_c, 0, 72, 96
2, 52352, Note_off_c, 0, 72, 0
2, 52352, Note_on_c, 0, 71, 96
2, 52480, Note_off_c, 0, 71, 0
2, 52480, Note_on_c, 0, 69, 96
2, 52544, Note_off_c, 0, 69, 0
2, 52544, Note_on_c, 0, 71, 96
2, 52608, Note_off_c, 0, 71, 0
2, 52608, Note_on_c, 0, 72, 96
2, 52672, Note_off_c, 0, 72, 0
2, 52672, Note_on_c, 0, 71, 96
2, 53760, Note_off_c, 0, 71, 0
2, 53760, Note_on_c, 0, 72, 96
2, 54272, Note_off_c, 0, 72, 0
2, 54272, Note_on_c, 0, 74, 96
2, 55296, Note_off_c, 0, 74, 0
2, 55296, Note_on_c, 0, 69, 96
2, 58368, Note_off_c, 0, 69, 0
2, 58368, Note_on_c, 0, 71, 96
2, 58496, Note_off_c, 0, 71, 0
2, 58496, Note_on_c, 0, 69, 96
2, 58624, Note_off_c, 0, 69, 0
2, 58624, Note_on_c, 0, 71, 96
2, 59136, Note_off_c, 0, 71, 0
2, 59136, Note_on_c, 0, 73, 96
2, 59392, Note_off_c, 0, 73, 0
2, 59392, Note_on_c, 0, 74, 96
2, 59456, Note_off_c, 0, 74, 0
2, 59456, Note_on_c, 0, 73, 96
2, 59520, Note_off_c, 0, 73, 0
2, 59520, Note_on_c, 0, 74, 96
2, 59584, Note_off_c, 0, 74, 0
2, 59584, Note_on_c, 0, 73, 96
2, 60928, Note_off_c, 0, 73, 0
2, 60928, Note_on_c, 0, 71, 96
2, 61184, Note_off_c, 0, 71, 0
2, 61184, Note_on_c, 0, 73, 96
2, 61440, Note_off_c, 0, 73, 0
2, 61440, Note_on_c, 0, 74, 96
2, 66560, Note_off_c, 0, 74, 0
2, 110592, Note_on_c, 0, 74, 96
2, 111360, Note_off_c, 0, 74, 0
2, 111360, Note_on_c, 0, 76, 96
2, 111488, Note_off_c, 0, 76, 0
2, 111488, Note_on_c, 0, 77, 96
2, 111616, Note_off_c, 0, 77, 0
2, 111616, Note_on_c, 0, 76, 96
2, 112640, Note_off_c, 0, 76, 0
2, 112640, Note_on_c, 0, 74, 96
2, 112896, Note_off_c, 0, 74, 0
2, 112896, Note_on_c, 0, 76, 96
2, 113024, Note_off_c, 0, 76, 0
2, 113024, Note_on_c, 0, 74, 96
2, 113152, Note_off_c, 0, 74, 0
2, 113152, Note_on_c, 0, 72, 96
2, 113280, Note_off_c, 0, 72, 0
2, 113280, Note_on_c, 0, 74, 96
2, 113408, Note_off_c, 0, 74, 0
2, 113408, Note_on_c, 0, 76, 96
2, 113664, Note_off_c, 0, 76, 0
2, 113664, Note_on_c, 0, 71, 96
2, 113920, Note_off_c, 0, 71, 0
2, 113920, Note_on_c, 0, 69, 96
2, 114176, Note_off_c, 0, 69, 0
2, 114176, Note_on_c, 0, 67, 96
2, 114304, Note_off_c, 0, 67, 0
2, 114304, Note_on_c, 0, 69, 96
2, 114432, Note_off_c, 0, 69, 0
2, 114432, Note_on_c, 0, 71, 96
2, 114560, Note_off_c, 0, 71, 0
2, 114560, Note_on_c, 0, 69, 96
2, 115200, Note_off_c, 0, 69, 0
2, 115200, Note_on_c, 0, 71, 96
2, 115712, Note_off_c, 0, 71, 0
2, 115712, Note_on_c, 0, 72, 96
2, 116736, Note_off_c, 0, 72, 0
2, 116736, Note_on_c, 0, 71, 96
2, 117504, Note_off_c, 0, 71, 0
2, 117504, Note_on_c, 0, 72, 96
2, 117632, Note_off_c, 0, 72, 0
2, 117632, Note_on_c, 0, 69, 96
2, 117760, Note_off_c, 0, 69, 0
2, 117760, Note_on_c, 0, 71, 96
2, 117888, Note_off_c, 0, 71, 0
2, 117888, Note_on_c, 0, 69, 96
2, 118016, Note_off_c, 0, 69, 0
2, 118016, Note_on_c, 0, 71, 96
2, 118144, Note_off_c, 0, 71, 0
2, 118144, Note_on_c, 0, 69, 96
2, 119296, Note_off_c, 0, 69, 0
2, 119296, Note_on_c, 0, 67, 96
2, 119552, Note_off_c, 0, 67, 0
2, 119552, Note_on_c, 0, 69, 96
2, 119808, Note_off_c, 0, 69, 0
2, 119808, Note_on_c, 0, 67, 96
2, 124928, Note_off_c, 0, 67, 0
2, 183296, Note_on_c, 0, 67, 96
2, 184320, Note_off_c, 0, 67, 0
2, 184320, Note_on_c, 0, 67, 96
2, 184576, Note_off_c, 0, 67, 0
2, 184576, Note_on_c, 0, 69, 96
2, 184704, Note_off_c, 0, 69, 0
2, 184704, Note_on_c, 0, 67, 96
2, 184832, Note_off_c, 0, 67, 0
2, 184832, Note_on_c, 0, 69, 96
2, 185856, Note_off_c, 0, 69, 0
2, 185856, Note_on_c, 0, 71, 96
2, 186368, Note_off_c, 0, 71, 0
2, 186368, Note_on_c, 0, 72, 96
2, 187392, Note_off_c, 0, 72, 0
2, 187392, Note_on_c, 0, 72, 96
2, 187648, Note_off_c, 0, 72, 0
2, 187648, Note_on_c, 0, 71, 96
2, 188160, Note_off_c, 0, 71, 0
2, 188160, Note_on_c, 0, 74, 96
2, 188288, Note_off_c, 0, 74, 0
2, 188288, Note_on_c, 0, 72, 96
2, 188416, Note_off_c, 0, 72, 0
2, 188416, Note_on_c, 0, 74, 96
2, 190464, Note_off_c, 0, 74, 0
2, 190464, Note_on_c, 0, 69, 96
2, 192000, Note_off_c, 0, 69, 0
2, 192000, Note_on_c, 0, 67, 96
2, 192512, Note_off_c, 0, 67, 0
2, 192512, Note_on_c, 0, 66, 96
2, 194048, Note_off_c, 0, 66, 0
2, 194048, Note_on_c, 0, 67, 96
2, 194560, Note_off_c, 0, 67, 0
2, 194560, Note_on_c, 0, 66, 96
2, 194624, Note_off_c, 0, 66, 0
2, 194624, Note_on_c, 0, 64, 96
2, 194688, Note_off_c, 0, 64, 0
2, 194688, Note_on_c, 0, 66, 96
2, 194880, Note_off_c, 0, 66, 0
2, 194880, Note_on_c, 0, 64, 96
2, 196096, Note_off_c, 0, 64, 0
2, 196096, Note_on_c, 0, 62, 96
2, 196352, Note_off_c, 0, 62, 0
2, 196352, Note_on_c, 0, 64, 96
2, 196608, Note_off_c, 0, 64, 0
2, 196608, Note_on_c, 0, 62, 96
2, 201728, Note_off_c, 0, 62, 0
2, 261120, Note_on_c, 0, 62, 96
2, 262144, Note_off_c, 0, 62, 0
2, 262144, Note_on_c, 0, 67, 96
2, 262784, Note_off_c, 0, 67, 0
2, 262784, Note_on_c, 0, 69, 96
2, 262912, Note_off_c, 0, 69, 0
2, 262912, Note_on_c, 0, 67, 96
2, 263040, Note_off_c, 0, 67, 0
2, 263040, Note_on_c, 0, 69, 96
2, 263168, Note_off_c, 0, 69, 0
2, 263168, Note_on_c, 0, 71, 96
2, 263296, Note_off_c, 0, 71, 0
2, 263296, Note_on_c, 0, 69, 96
2, 263424, Note_off_c, 0, 69, 0
2, 263424, Note_on_c, 0, 71, 96
2, 263552, Note_off_c, 0, 71, 0
2, 263552, Note_on_c, 0, 69, 96
2, 263680, Note_off_c, 0, 69, 0
2, 263680, Note_on_c, 0, 71, 96
2, 263808, Note_off_c, 0, 71, 0
2, 263808, Note_on_c, 0, 69, 96
2, 263936, Note_off_c, 0, 69, 0
2, 263936, Note_on_c, 0, 67, 96
2, 264064, Note_off_c, 0, 67, 0
2, 264064, Note_on_c, 0, 69, 96
2, 264192, Note_off_c, 0, 69, 0
2, 264192, Note_on_c, 0, 71, 96
2, 265728, Note_off_c, 0, 71, 0
2, 265728, Note_on_c, 0, 72, 96
2, 266240, Note_off_c, 0, 72, 0
2, 266240, Note_on_c, 0, 74, 96
2, 268032, Note_off_c, 0, 74, 0
2, 268032, Note_on_c, 0, 77, 96
2, 268160, Note_off_c, 0, 77, 0
2, 268160, Note_on_c, 0, 76, 96
2, 268288, Note_off_c, 0, 76, 0
2, 268288, Note_on_c, 0, 72, 96
2, 270848, Note_off_c, 0, 72, 0
2, 270848, Note_on_c, 0, 71, 96
2, 271360, Note_off_c, 0, 71, 0
2, 271360, Note_on_c, 0, 71, 96
2, 271424, Note_off_c, 0, 71, 0
2, 271424, Note_on_c, 0, 69, 96
2, 271488, Note_off_c, 0, 69, 0
2, 271488, Note_on_c, 0, 71, 96
2, 271552, Note_off_c, 0, 71, 0
2, 271552, Note_on_c, 0, 69, 96
2, 272896, Note_off_c, 0, 69, 0
2, 272896, Note_on_c, 0, 67, 96
2, 273152, Note_off_c, 0, 67, 0
2, 273152, Note_on_c, 0, 69, 96
2, 273408, Note_off_c, 0, 69, 0
2, 273408, Note_on_c, 0, 71, 96
2, 277504, Note_off_c, 0, 71, 0
2, 319488, Note_on_c, 0, 71, 96
2, 319616, Note_off_c, 0, 71, 0
2, 319616, Note_on_c, 0, 69, 96
2, 319744, Note_off_c, 0, 69, 0
2, 319744, Note_on_c, 0, 71, 96
2, 320256, Note_off_c, 0, 71, 0
2, 320256, Note_on_c, 0, 72, 96
2, 320512, Note_off_c, 0, 72, 0
2, 320512, Note_on_c, 0, 74, 96
2, 321536, Note_off_c, 0, 74, 0
2, 321536, Note_on_c, 0, 76, 96
2, 322560, Note_off_c, 0, 76, 0
2, 322560, Note_on_c, 0, 74, 96
2, 324608, Note_off_c, 0, 74, 0
2, 324608, Note_on_c, 0, 69, 96
2, 325632, Note_off_c, 0, 69, 0
2, 325632, Note_on_c, 0, 71, 96
2, 325760, Note_off_c, 0, 71, 0
2, 325760, Note_on_c, 0, 69, 96
2, 325888, Note_off_c, 0, 69, 0
2, 325888, Note_on_c, 0, 71, 96
2, 326400, Note_off_c, 0, 71, 0
2, 326400, Note_on_c, 0, 73, 96
2, 326656, Note_off_c, 0, 73, 0
2, 326656, Note_on_c, 0, 74, 96
2, 326720, Note_off_c, 0, 74, 0
2, 326720, Note_on_c, 0, 73, 96
2, 326784, Note_off_c, 0, 73, 0
2, 326784, Note_on_c, 0, 74, 96
2, 326848, Note_off_c, 0, 74, 0
2, 326848, Note_on_c, 0, 73, 96
2, 328192, Note_off_c, 0, 73, 0
2, 328192, Note_on_c, 0, 71, 96
2, 328448, Note_off_c, 0, 71, 0
2, 328448, Note_on_c, 0, 73, 96
2, 328704, Note_off_c, 0, 73, 0
2, 328704, Note_on_c, 0, 74, 96
2, 333824, Note_off_c, 0, 74, 0
2, 365568, Note_on_c, 0, 74, 96
2, 366592, Note_off_c, 0, 74, 0
2, 366592, Note_on_c, 0, 76, 96
2, 367616, Note_off_c, 0, 76, 0
2, 367616, Note_on_c, 0, 74, 96
2, 368640, Note_off_c, 0, 74, 0
2, 368640, Note_on_c, 0, 69, 96
2, 370688, Note_off_c, 0, 69, 0
2, 370688, Note_on_c, 0, 72, 96
2, 371712, Note_off_c, 0, 72, 0
2, 371712, Note_on_c, 0, 71, 96
2, 372736, Note_off_c, 0, 71, 0
2, 372736, Note_on_c, 0, 71, 96
2, 372832, Note_off_c, 0, 71, 0
2, 372832, Note_on_c, 0, 69, 96
2, 372928, Note_off_c, 0, 69, 0
2, 372928, Note_on_c, 0, 71, 96
2, 373024, Note_off_c, 0, 71, 0
2, 373024, Note_on_c, 0, 69, 96
2, 374272, Note_off_c, 0, 69, 0
2, 374272, Note_on_c, 0, 67, 96
2, 374528, Note_off_c, 0, 67, 0
2, 374528, Note_on_c, 0, 69, 96
2, 374784, Note_off_c, 0, 69, 0
2, 374784, Note_on_c, 0, 67, 96
2, 379904, Note_off_c, 0, 67, 0
2, 435200, Note_on_c, 0, 67, 96
2, 436224, Note_off_c, 0, 67, 0
2, 436224, Note_on_c, 0, 69, 96
2, 437760, Note_off_c, 0, 69, 0
2, 437760, Note_on_c, 0, 71, 96
2, 438272, Note_off_c, 0, 71, 0
2, 438272, Note_on_c, 0, 72, 96
2, 439296, Note_off_c, 0, 72, 0
2, 439296, Note_on_c, 0, 71, 96
2, 440064, Note_off_c, 0, 71, 0
2, 440064, Note_on_c, 0, 74, 96
2, 440192, Note_off_c, 0, 74, 0
2, 440192, Note_on_c, 0, 72, 96
2, 440320, Note_off_c, 0, 72, 0
2, 440320, Note_on_c, 0, 74, 96
2, 442368, Note_off_c, 0, 74, 0
2, 442368, Note_on_c, 0, 69, 96
2, 443904, Note_off_c, 0, 69, 0
2, 443904, Note_on_c, 0, 67, 96
2, 444416, Note_off_c, 0, 67, 0
2, 444416, Note_on_c, 0, 66, 96
2, 445952, Note_off_c, 0, 66, 0
2, 445952, Note_on_c, 0, 67, 96
2, 446464, Note_off_c, 0, 67, 0
2, 446464, Note_on_c, 0, 66, 96
2, 446528, Note_off_c, 0, 66, 0
2, 446528, Note_on_c, 0, 64, 96
2, 446592, Note_off_c, 0, 64, 0
2, 446592, Note_on_c, 0, 66, 96
2, 446656, Note_off_c, 0, 66, 0
2, 446656, Note_on_c, 0, 64, 96
2, 448000, Note_off_c, 0, 64, 0
2, 448000, Note_on_c, 0, 62, 96
2, 448256, Note_off_c, 0, 62, 0
2, 448256, Note_on_c, 0, 64, 96
2, 448512, Note_off_c, 0, 64, 0
2, 448512, Note_on_c, 0, 62, 96
2, 453632, Note_off_c, 0, 62, 0
2, 503808, Note_on_c, 0, 62, 96
2, 504832, Note_off_c, 0, 62, 0
2, 504832, Note_on_c, 0, 67, 96
2, 505856, Note_off_c, 0, 67, 0
2, 505856, Note_on_c, 0, 69, 96
2, 506880, Note_off_c, 0, 69, 0
2, 506880, Note_on_c, 0, 71, 96
2, 508416, Note_off_c, 0, 71, 0
2, 508416, Note_on_c, 0, 72, 96
2, 508928, Note_off_c, 0, 72, 0
2, 508928, Note_on_c, 0, 74, 96
2, 510464, Note_off_c, 0, 74, 0
2, 510464, Note_on_c, 0, 67, 96
2, 510976, Note_off_c, 0, 67, 0
2, 510976, Note_on_c, 0, 72, 96
2, 513792, Note_off_c, 0, 72, 0
2, 513792, Note_on_c, 0, 74, 96
2, 513920, Note_off_c, 0, 74, 0
2, 513920, Note_on_c, 0, 71, 96
2, 514048, Note_off_c, 0, 71, 0
2, 514048, Note_on_c, 0, 69, 96
2, 515584, Note_off_c, 0, 69, 0
2, 515584, Note_on_c, 0, 71, 96
2, 516096, Note_off_c, 0, 71, 0
2, 516096, Note_on_c, 0, 64, 96
2, 516864, Note_off_c, 0, 64, 0
2, 516864, Note_on_c, 0, 66, 96
2, 517120, Note_off_c, 0, 66, 0
2, 517120, Note_on_c, 0, 67, 96
2, 517216, Note_off_c, 0, 67, 0
2, 517216, Note_on_c, 0, 66, 96
2, 517312, Note_off_c, 0, 66, 0
2, 517312, Note_on_c, 0, 67, 96
2, 517408, Note_off_c, 0, 67, 0
2, 517408, Note_on_c, 0, 66, 96
2, 518656, Note_off_c, 0, 66, 0
2, 518656, Note_on_c, 0, 64, 96
2, 518912, Note_off_c, 0, 64, 0
2, 518912, Note_on_c, 0, 66, 96
2, 519168, Note_off_c, 0, 66, 0
2, 519168, Note_on_c, 0, 67, 96
2, 524288, Note_off_c, 0, 67, 0
2, 565760, Note_on_c, 0, 69, 96
2, 566272, Note_off_c, 0, 69, 0
2, 566272, Note_on_c, 0, 71, 96
2, 566784, Note_off_c, 0, 71, 0
2, 566784, Note_on_c, 0, 69, 96
2, 567296, Note_off_c, 0, 69, 0
2, 567296, Note_on_c, 0, 67, 96
2, 567808, Note_off_c, 0, 67, 0
2, 567808, Note_on_c, 0, 66, 96
2, 568320, Note_off_c, 0, 66, 0
2, 568320, Note_on_c, 0, 64, 96
2, 570368, Note_off_c, 0, 64, 0
2, 570368, Note_on_c, 0, 69, 96
2, 571392, Note_off_c, 0, 69, 0
2, 571392, Note_on_c, 0, 64, 96
2, 571648, Note_off_c, 0, 64, 0
2, 571648, Note_on_c, 0, 66, 96
2, 571904, Note_off_c, 0, 66, 0
2, 571904, Note_on_c, 0, 64, 96
2, 572160, Note_off_c, 0, 64, 0
2, 572160, Note_on_c, 0, 66, 96
2, 572416, Note_off_c, 0, 66, 0
2, 572416, Note_on_c, 0, 67, 96
2, 572480, Note_off_c, 0, 67, 0
2, 572480, Note_on_c, 0, 66, 96
2, 572544, Note_off_c, 0, 66, 0
2, 572544, Note_on_c, 0, 67, 96
2, 572608, Note_off_c, 0, 67, 0
2, 572608, Note_on_c, 0, 66, 96
2, 573952, Note_off_c, 0, 66, 0
2, 573952, Note_on_c, 0, 64, 96
2, 574208, Note_off_c, 0, 64, 0
2, 574208, Note_on_c, 0, 66, 96
2, 574464, Note_off_c, 0, 66, 0
2, 574464, Note_on_c, 0, 67, 96
2, 574720, Note_off_c, 0, 67, 0
2, 574720, Note_on_c, 0, 74, 96
2, 574976, Note_off_c, 0, 74, 0
2, 574976, Note_on_c, 0, 76, 96
2, 575232, Note_off_c, 0, 76, 0
2, 575232, Note_on_c, 0, 78, 96
2, 575488, Note_off_c, 0, 78, 0
2, 575488, Note_on_c, 0, 79, 96
2, 576768, Note_off_c, 0, 79, 0
2, 576768, Note_on_c, 0, 77, 96
2, 577024, Note_off_c, 0, 77, 0
2, 577024, Note_on_c, 0, 76, 96
2, 577280, Note_off_c, 0, 76, 0
2, 577280, Note_on_c, 0, 77, 96
2, 577408, Note_off_c, 0, 77, 0
2, 577408, Note_on_c, 0, 74, 96
2, 577536, Note_off_c, 0, 74, 0
2, 577536, Note_on_c, 0, 76, 96
2, 577792, Note_off_c, 0, 76, 0
2, 577792, Note_on_c, 0, 67, 96
2, 578048, Note_off_c, 0, 67, 0
2, 578048, Note_on_c, 0, 69, 96
2, 578304, Note_off_c, 0, 69, 0
2, 578304, Note_on_c, 0, 71, 96
2, 578560, Note_off_c, 0, 71, 0
2, 578560, Note_on_c, 0, 72, 96
2, 579840, Note_off_c, 0, 72, 0
2, 579840, Note_on_c, 0, 71, 96
2, 580096, Note_off_c, 0, 71, 0
2, 580096, Note_on_c, 0, 69, 96
2, 580352, Note_off_c, 0, 69, 0
2, 580352, Note_on_c, 0, 71, 96
2, 580480, Note_off_c, 0, 71, 0
2, 580480, Note_on_c, 0, 67, 96
2, 580608, Note_off_c, 0, 67, 0
2, 580608, Note_on_c, 0, 66, 96
2, 580864, Note_off_c, 0, 66, 0
2, 580864, Note_on_c, 0, 57, 96
2, 581120, Note_off_c, 0, 57, 0
2, 581120, Note_on_c, 0, 59, 96
2, 581376, Note_off_c, 0, 59, 0
2, 581376, Note_on_c, 0, 60, 96
2, 581632, Note_off_c, 0, 60, 0
2, 581632, Note_on_c, 0, 62, 96
2, 582912, Note_off_c, 0, 62, 0
2, 582912, Note_on_c, 0, 60, 96
2, 583168, Note_off_c, 0, 60, 0
2, 583168, Note_on_c, 0, 59, 96
2, 583424, Note_off_c, 0, 59, 0
2, 583424, Note_on_c, 0, 60, 96
2, 583552, Note_off_c, 0, 60, 0
2, 583552, Note_on_c, 0, 57, 96
2, 583680, Note_off_c, 0, 57, 0
2, 583680, Note_on_c, 0, 59, 96
2, 583936, Note_off_c, 0, 59, 0
2, 583936, Note_on_c, 0, 62, 96
2, 584192, Note_off_c, 0, 62, 0
2, 584192, Note_on_c, 0, 64, 96
2, 584448, Note_off_c, 0, 64, 0
2, 584448, Note_on_c, 0, 66, 96
2, 584704, Note_off_c, 0, 66, 0
2, 584704, Note_on_c, 0, 67, 96
2, 584960, Note_off_c, 0, 67, 0
2, 584960, Note_on_c, 0, 59, 96
2, 585216, Note_off_c, 0, 59, 0
2, 585216, Note_on_c, 0, 60, 96
2, 585472, Note_off_c, 0, 60, 0
2, 585472, Note_on_c, 0, 62, 96
2, 585728, Note_off_c, 0, 62, 0
2, 585728, Note_on_c, 0, 55, 96
2, 585984, Note_off_c, 0, 55, 0
2, 585984, Note_on_c, 0, 65, 96
2, 586240, Note_off_c, 0, 65, 0
2, 586240, Note_on_c, 0, 64, 96
2, 586496, Note_off_c, 0, 64, 0
2, 586496, Note_on_c, 0, 65, 96
2, 586624, Note_off_c, 0, 65, 0
2, 586624, Note_on_c, 0, 62, 96
2, 586752, Note_off_c, 0, 62, 0
2, 586752, Note_on_c, 0, 64, 96
2, 587008, Note_off_c, 0, 64, 0
2, 587008, Note_on_c, 0, 67, 96
2, 587264, Note_off_c, 0, 67, 0
2, 587264, Note_on_c, 0, 69, 96
2, 587520, Note_off_c, 0, 69, 0
2, 587520, Note_on_c, 0, 71, 96
2, 587776, Note_off_c, 0, 71, 0
2, 587776, Note_on_c, 0, 72, 96
2, 588032, Note_off_c, 0, 72, 0
2, 588032, Note_on_c, 0, 64, 96
2, 588288, Note_off_c, 0, 64, 0
2, 588288, Note_on_c, 0, 65, 96
2, 588544, Note_off_c, 0, 65, 0
2, 588544, Note_on_c, 0, 67, 96
2, 588800, Note_off_c, 0, 67, 0
2, 588800, Note_on_c, 0, 60, 96
2, 589056, Note_off_c, 0, 60, 0
2, 589056, Note_on_c, 0, 71, 96
2, 589312, Note_off_c, 0, 71, 0
2, 589312, Note_on_c, 0, 69, 96
2, 589568, Note_off_c, 0, 69, 0
2, 589568, Note_on_c, 0, 71, 96
2, 589696, Note_off_c, 0, 71, 0
2, 589696, Note_on_c, 0, 67, 96
2, 589824, Note_off_c, 0, 67, 0
2, 589824, Note_on_c, 0, 66, 96
2, 590080, Note_off_c, 0, 66, 0
2, 590080, Note_on_c, 0, 69, 96
2, 590336, Note_off_c, 0, 69, 0
2, 590336, Note_on_c, 0, 71, 96
2, 590592, Note_off_c, 0, 71, 0
2, 590592, Note_on_c, 0, 72, 96
2, 590848, Note_off_c, 0, 72, 0
2, 590848, Note_on_c, 0, 74, 96
2, 591104, Note_off_c, 0, 74, 0
2, 591104, Note_on_c, 0, 66, 96
2, 591360, Note_off_c, 0, 66, 0
2, 591360, Note_on_c, 0, 67, 96
2, 591616, Note_off_c, 0, 67, 0
2, 591616, Note_on_c, 0, 69, 96
2, 591872, Note_off_c, 0, 69, 0
2, 591872, Note_on_c, 0, 62, 96
2, 592128, Note_off_c, 0, 62, 0
2, 592128, Note_on_c, 0, 72, 96
2, 592384, Note_off_c, 0, 72, 0
2, 592384, Note_on_c, 0, 71, 96
2, 592640, Note_off_c, 0, 71, 0
2, 592640, Note_on_c, 0, 72, 96
2, 592768, Note_off_c, 0, 72, 0
2, 592768, Note_on_c, 0, 71, 96
2, 592896, Note_off_c, 0, 71, 0
2, 592896, Note_on_c, 0, 71, 96
2, 593152, Note_off_c, 0, 71, 0
2, 593152, Note_on_c, 0, 74, 96
2, 593408, Note_off_c, 0, 74, 0
2, 593408, Note_on_c, 0, 76, 96
2, 593664, Note_off_c, 0, 76, 0
2, 593664, Note_on_c, 0, 78, 96
2, 593920, Note_off_c, 0, 78, 0
2, 593920, Note_on_c, 0, 79, 96
2, 594176, Note_off_c, 0, 79, 0
2, 594176, Note_on_c, 0, 71, 96
2, 594432, Note_off_c, 0, 71, 0
2, 594432, Note_on_c, 0, 72, 96
2, 594688, Note_off_c, 0, 72, 0
2, 594688, Note_on_c, 0, 74, 96
2, 594944, Note_off_c, 0, 74, 0
2, 594944, Note_on_c, 0, 67, 96
2, 595200, Note_off_c, 0, 67, 0
2, 595200, Note_on_c, 0, 71, 96
2, 595456, Note_off_c, 0, 71, 0
2, 595456, Note_on_c, 0, 69, 96
2, 595712, Note_off_c, 0, 69, 0
2, 595712, Note_on_c, 0, 71, 96
2, 595840, Note_off_c, 0, 71, 0
2, 595840, Note_on_c, 0, 67, 96
2, 595968, Note_off_c, 0, 67, 0
2, 595968, Note_on_c, 0, 72, 96
2, 596096, Note_off_c, 0, 72, 0
2, 596096, Note_on_c, 0, 71, 96
2, 596224, Note_off_c, 0, 71, 0
2, 596224, Note_on_c, 0, 72, 96
2, 600320, Note_off_c, 0, 72, 0
2, 600320, Note_on_c, 0, 62, 96
2, 600576, Note_off_c, 0, 62, 0
2, 600576, Note_on_c, 0, 64, 96
2, 600832, Note_off_c, 0, 64, 0
2, 600832, Note_on_c, 0, 66, 96
2, 601088, Note_off_c, 0, 66, 0
2, 601088, Note_on_c, 0, 67, 96
2, 601344, Note_off_c, 0, 67, 0
2, 601344, Note_on_c, 0, 69, 96
2, 601600, Note_off_c, 0, 69, 0
2, 601600, Note_on_c, 0, 71, 96
2, 601856, Note_off_c, 0, 71, 0
2, 601856, Note_on_c, 0, 72, 96
2, 602112, Note_off_c, 0, 72, 0
2, 602112, Note_on_c, 0, 74, 96
2, 602368, Note_off_c, 0, 74, 0
2, 602368, Note_on_c, 0, 72, 96
2, 602624, Note_off_c, 0, 72, 0
2, 602624, Note_on_c, 0, 74, 96
2, 602880, Note_off_c, 0, 74, 0
2, 602880, Note_on_c, 0, 76, 96
2, 603136, Note_off_c, 0, 76, 0
2, 603136, Note_on_c, 0, 71, 96
2, 603200, Note_off_c, 0, 71, 0
2, 603200, Note_on_c, 0, 69, 96
2, 603264, Note_off_c, 0, 69, 0
2, 603264, Note_on_c, 0, 71, 96
2, 603328, Note_off_c, 0, 71, 0
2, 603328, Note_on_c, 0, 69, 96
2, 604672, Note_off_c, 0, 69, 0
2, 604672, Note_on_c, 0, 67, 96
2, 604928, Note_off_c, 0, 67, 0
2, 604928, Note_on_c, 0, 69, 96
2, 605184, Note_off_c, 0, 69, 0
2, 605184, Note_on_c, 0, 67, 96
2, 610560, Note_off_c, 0, 67, 0
2, 610560, Note_on_c, 0, 69, 96
2, 610816, Note_off_c, 0, 69, 0
2, 610816, Note_on_c, 0, 67, 96
2, 611072, Note_off_c, 0, 67, 0
2, 611072, Note_on_c, 0, 69, 96
2, 611200, Note_off_c, 0, 69, 0
2, 611200, Note_on_c, 0, 66, 96
2, 611328, Note_off_c, 0, 66, 0
2, 611328, Note_on_c, 0, 67, 96
2, 611456, Note_off_c, 0, 67, 0
2, 611456, Note_on_c, 0, 66, 96
2, 611648, Note_off_c, 0, 66, 0
2, 611648, Note_on_c, 0, 67, 96
2, 615424, Note_off_c, 0, 67, 0
2, 615424, End_track
3, 0, Start_track
3, 0, Title_t, "Instrument 2"
3, 17408, Note_on_c, 1, 67, 96
3, 18432, Note_off_c, 1, 67, 0
3, 18432, Note_on_c, 1, 71, 96
3, 19456, Note_off_c, 1, 71, 0
3, 19456, Note_on_c, 1, 71, 96
3, 19584, Note_off_c, 1, 71, 0
3, 19584, Note_on_c, 1, 69, 96
3, 19712, Note_off_c, 1, 69, 0
3, 19712, Note_on_c, 1, 67, 96
3, 19776, Note_off_c, 1, 67, 0
3, 19776, Note_on_c, 1, 69, 96
3, 19840, Note_off_c, 1, 69, 0
3, 19840, Note_on_c, 1, 71, 96
3, 19904, Note_off_c, 1, 71, 0
3, 19904, Note_on_c, 1, 69, 96
3, 20992, Note_off_c, 1, 69, 0
3, 20992, Note_on_c, 1, 67, 96
3, 21504, Note_off_c, 1, 67, 0
3, 21504, Note_on_c, 1, 66, 96
3, 23040, Note_off_c, 1, 66, 0
3, 23040, Note_on_c, 1, 67, 96
3, 23552, Note_off_c, 1, 67, 0
3, 23552, Note_on_c, 1, 69, 96
3, 24576, Note_off_c, 1, 69, 0
3, 24576, Note_on_c, 1, 62, 96
3, 27648, Note_off_c, 1, 62, 0
3, 27648, Note_on_c, 1, 64, 96
3, 28416, Note_off_c, 1, 64, 0
3, 28416, Note_on_c, 1, 66, 96
3, 28672, Note_off_c, 1, 66, 0
3, 28672, Note_on_c, 1, 67, 96
3, 28736, Note_off_c, 1, 67, 0
3, 28736, Note_on_c, 1, 66, 96
3, 28800, Note_off_c, 1, 66, 0
3, 28800, Note_on_c, 1, 67, 96
3, 28864, Note_off_c, 1, 67, 0
3, 28864, Note_on_c, 1, 66, 96
3, 30208, Note_off_c, 1, 66, 0
3, 30208, Note_on_c, 1, 64, 96
3, 30464, Note_off_c, 1, 64, 0
3, 30464, Note_on_c, 1, 66, 96
3, 30720, Note_off_c, 1, 66, 0
3, 30720, Note_on_c, 1, 67, 96
3, 32256, Note_off_c, 1, 67, 0
3, 32256, Note_on_c, 1, 66, 96
3, 32768, Note_off_c, 1, 66, 0
3, 32768, Note_on_c, 1, 64, 96
3, 33792, Note_off_c, 1, 64, 0
3, 33792, Note_on_c, 1, 62, 96
3, 34816, Note_off_c, 1, 62, 0
3, 34816, Note_on_c, 1, 74, 96
3, 37376, Note_off_c, 1, 74, 0
3, 37376, Note_on_c, 1, 74, 96
3, 37888, Note_off_c, 1, 74, 0
3, 37888, Note_on_c, 1, 73, 96
3, 38400, Note_off_c, 1, 73, 0
3, 38400, Note_on_c, 1, 71, 96
3, 38912, Note_off_c, 1, 71, 0
3, 38912, Note_on_c, 1, 69, 96
3, 39424, Note_off_c, 1, 69, 0
3, 39424, Note_on_c, 1, 71, 96
3, 39936, Note_off_c, 1, 71, 0
3, 39936, Note_on_c, 1, 67, 96
3, 41472, Note_off_c, 1, 67, 0
3, 41472, Note_on_c, 1, 66, 96
3, 41984, Note_off_c, 1, 66, 0
3, 41984, Note_on_c, 1, 67, 96
3, 42496, Note_off_c, 1, 67, 0
3, 42496, Note_on_c, 1, 69, 96
3, 43008, Note_off_c, 1, 69, 0
3, 43008, Note_on_c, 1, 66, 96
3, 44544, Note_off_c, 1, 66, 0
3, 44544, Note_on_c, 1, 66, 96
3, 45056, Note_off_c, 1, 66, 0
3, 45056, Note_on_c, 1, 67, 96
3, 45568, Note_off_c, 1, 67, 0
3, 45568, Note_on_c, 1, 69, 96
3, 46080, Note_off_c, 1, 69, 0
3, 46080, Note_on_c, 1, 71, 96
3, 47616, Note_off_c, 1, 71, 0
3, 47616, Note_on_c, 1, 69, 96
3, 48128, Note_off_c, 1, 69, 0
3, 48128, Note_on_c, 1, 67, 96
3, 48640, Note_off_c, 1, 67, 0
3, 48640, Note_on_c, 1, 65, 96
3, 49152, Note_off_c, 1, 65, 0
3, 49152, Note_on_c, 1, 64, 96
3, 50176, Note_off_c, 1, 64, 0
3, 50176, Note_on_c, 1, 66, 96
3, 52224, Note_off_c, 1, 66, 0
3, 52224, Note_on_c, 1, 67, 96
3, 54784, Note_off_c, 1, 67, 0
3, 54784, Note_on_c, 1, 66, 96
3, 55296, Note_off_c, 1, 66, 0
3, 55296, Note_on_c, 1, 64, 96
3, 55808, Note_off_c, 1, 64, 0
3, 55808, Note_on_c, 1, 61, 96
3, 56320, Note_off_c, 1, 61, 0
3, 56320, Note_on_c, 1, 66, 96
3, 56832, Note_off_c, 1, 66, 0
3, 56832, Note_on_c, 1, 67, 96
3, 57344, Note_off_c, 1, 67, 0
3, 57344, Note_on_c, 1, 66, 96
3, 57856, Note_off_c, 1, 66, 0
3, 57856, Note_on_c, 1, 64, 96
3, 58368, Note_off_c, 1, 64, 0
3, 58368, Note_on_c, 1, 62, 96
3, 58880, Note_off_c, 1, 62, 0
3, 58880, Note_on_c, 1, 67, 96
3, 59904, Note_off_c, 1, 67, 0
3, 59904, Note_on_c, 1, 71, 96
3, 60416, Note_off_c, 1, 71, 0
3, 60416, Note_on_c, 1, 69, 96
3, 60928, Note_off_c, 1, 69, 0
3, 60928, Note_on_c, 1, 67, 96
3, 61440, Note_off_c, 1, 67, 0
3, 61440, Note_on_c, 1, 66, 96
3, 61952, Note_off_c, 1, 66, 0
3, 61952, Note_on_c, 1, 74, 96
3, 62464, Note_off_c, 1, 74, 0
3, 62464, Note_on_c, 1, 72, 96
3, 64000, Note_off_c, 1, 72, 0
3, 64000, Note_on_c, 1, 71, 96
3, 64512, Note_off_c, 1, 71, 0
3, 64512, Note_on_c, 1, 69, 96
3, 66048, Note_off_c, 1, 69, 0
3, 66048, Note_on_c, 1, 71, 96
3, 66560, Note_off_c, 1, 71, 0
3, 66560, Note_on_c, 1, 72, 96
3, 68096, Note_off_c, 1, 72, 0
3, 68096, Note_on_c, 1, 69, 96
3, 68608, Note_off_c, 1, 69, 0
3, 68608, Note_on_c, 1, 71, 96
3, 69120, Note_off_c, 1, 71, 0
3, 69120, Note_on_c, 1, 72, 96
3, 69632, Note_off_c, 1, 72, 0
3, 69632, Note_on_c, 1, 71, 96
3, 70144, Note_off_c, 1, 71, 0
3, 70144, Note_on_c, 1, 69, 96
3, 70656, Note_off_c, 1, 69, 0
3, 70656, Note_on_c, 1, 67, 96
3, 71680, Note_off_c, 1, 67, 0
3, 71680, Note_on_c, 1, 69, 96
3, 74240, Note_off_c, 1, 69, 0
3, 74240, Note_on_c, 1, 62, 96
3, 74752, Note_off_c, 1, 62, 0
3, 74752, Note_on_c, 1, 67, 96
3, 75264, Note_off_c, 1, 67, 0
3, 75264, Note_on_c, 1, 69, 96
3, 75776, Note_off_c, 1, 69, 0
3, 75776, Note_on_c, 1, 67, 96
3, 76288, Note_off_c, 1, 67, 0
3, 76288, Note_on_c, 1, 65, 96
3, 76800, Note_off_c, 1, 65, 0
3, 76800, Note_on_c, 1, 64, 96
3, 78336, Note_off_c, 1, 64, 0
3, 78336, Note_on_c, 1, 66, 96
3, 78848, Note_off_c, 1, 66, 0
3, 78848, Note_on_c, 1, 67, 96
3, 79360, Note_off_c, 1, 67, 0
3, 79360, Note_on_c, 1, 69, 96
3, 79872, Note_off_c, 1, 69, 0
3, 79872, Note_on_c, 1, 71, 96
3, 80896, Note_off_c, 1, 71, 0
3, 83456, Note_on_c, 1, 69, 96
3, 83968, Note_off_c, 1, 69, 0
3, 83968, Note_on_c, 1, 67, 96
3, 84480, Note_off_c, 1, 67, 0
3, 84480, Note_on_c, 1, 66, 96
3, 84992, Note_off_c, 1, 66, 0
3, 84992, Note_on_c, 1, 64, 96
3, 85504, Note_off_c, 1, 64, 0
3, 85504, Note_on_c, 1, 66, 96
3, 86016, Note_off_c, 1, 66, 0
3, 86016, Note_on_c, 1, 67, 96
3, 86528, Note_off_c, 1, 67, 0
3, 86528, Note_on_c, 1, 74, 96
3, 87040, Note_off_c, 1, 74, 0
3, 87040, Note_on_c, 1, 72, 96
3, 87552, Note_off_c, 1, 72, 0
3, 87552, Note_on_c, 1, 71, 96
3, 88064, Note_off_c, 1, 71, 0
3, 88064, Note_on_c, 1, 72, 96
3, 88576, Note_off_c, 1, 72, 0
3, 88576, Note_on_c, 1, 74, 96
3, 89088, Note_off_c, 1, 74, 0
3, 89088, Note_on_c, 1, 71, 96
3, 90112, Note_off_c, 1, 71, 0
3, 90112, Note_on_c, 1, 69, 96
3, 90624, Note_off_c, 1, 69, 0
3, 90624, Note_on_c, 1, 67, 96
3, 91136, Note_off_c, 1, 67, 0
3, 91136, Note_on_c, 1, 69, 96
3, 91648, Note_off_c, 1, 69, 0
3, 91648, Note_on_c, 1, 71, 96
3, 92160, Note_off_c, 1, 71, 0
3, 92160, Note_on_c, 1, 67, 96
3, 93184, Note_off_c, 1, 67, 0
3, 93184, Note_on_c, 1, 71, 96
3, 94208, Note_off_c, 1, 71, 0
3, 94208, Note_on_c, 1, 71, 96
3, 95232, Note_off_c, 1, 71, 0
3, 95232, Note_on_c, 1, 64, 96
3, 96768, Note_off_c, 1, 64, 0
3, 96768, Note_on_c, 1, 66, 96
3, 97280, Note_off_c, 1, 66, 0
3, 97280, Note_on_c, 1, 67, 96
3, 98304, Note_off_c, 1, 67, 0
3, 98304, Note_on_c, 1, 66, 96
3, 99328, Note_off_c, 1, 66, 0
3, 99328, Note_on_c, 1, 66, 96
3, 99392, Note_off_c, 1, 66, 0
3, 99392, Note_on_c, 1, 64, 96
3, 99456, Note_off_c, 1, 64, 0
3, 99456, Note_on_c, 1, 66, 96
3, 99520, Note_off_c, 1, 66, 0
3, 99520, Note_on_c, 1, 64, 96
3, 100096, Note_off_c, 1, 64, 0
3, 100096, Note_on_c, 1, 62, 96
3, 101120, Note_off_c, 1, 62, 0
3, 101120, Note_on_c, 1, 64, 96
3, 101376, Note_off_c, 1, 64, 0
3, 101376, Note_on_c, 1, 62, 96
3, 101888, Note_off_c, 1, 62, 0
3, 101888, Note_on_c, 1, 60, 96
3, 102400, Note_off_c, 1, 60, 0
3, 102400, Note_on_c, 1, 59, 96
3, 102912, Note_off_c, 1, 59, 0
3, 102912, Note_on_c, 1, 62, 96
3, 103424, Note_off_c, 1, 62, 0
3, 103424, Note_on_c, 1, 60, 96
3, 103936, Note_off_c, 1, 60, 0
3, 103936, Note_on_c, 1, 59, 96
3, 104448, Note_off_c, 1, 59, 0
3, 104448, Note_on_c, 1, 60, 96
3, 105984, Note_off_c, 1, 60, 0
3, 105984, Note_on_c, 1, 62, 96
3, 106496, Note_off_c, 1, 62, 0
3, 106496, Note_on_c, 1, 64, 96
3, 107520, Note_off_c, 1, 64, 0
3, 108032, Note_on_c, 1, 62, 96
3, 108544, Note_off_c, 1, 62, 0
3, 108544, Note_on_c, 1, 64, 96
3, 109056, Note_off_c, 1, 64, 0
3, 109056, Note_on_c, 1, 62, 96
3, 109568, Note_off_c, 1, 62, 0
3, 109568, Note_on_c, 1, 64, 96
3, 110080, Note_off_c, 1, 64, 0
3, 110080, Note_on_c, 1, 66, 96
3, 110592, Note_off_c, 1, 66, 0
3, 110592, Note_on_c, 1, 67, 96
3, 112128, Note_off_c, 1, 67, 0
3, 112128, Note_on_c, 1, 69, 96
3, 112640, Note_off_c, 1, 69, 0
3, 112640, Note_on_c, 1, 71, 96
3, 113152, Note_off_c, 1, 71, 0
3, 113152, Note_on_c, 1, 72, 96
3, 113664, Note_off_c, 1, 72, 0
3, 113664, Note_on_c, 1, 74, 96
3, 115712, Note_off_c, 1, 74, 0
3, 115712, Note_on_c, 1, 67, 96
3, 118784, Note_off_c, 1, 67, 0
3, 118784, Note_on_c, 1, 66, 96
3, 119808, Note_off_c, 1, 66, 0
3, 119808, Note_on_c, 1, 67, 96
3, 121344, Note_off_c, 1, 67, 0
3, 121344, Note_on_c, 1, 65, 96
3, 122368, Note_off_c, 1, 65, 0
3, 122368, Note_on_c, 1, 64, 96
3, 123392, Note_off_c, 1, 64, 0
3, 123392, Note_on_c, 1, 64, 96
3, 123904, Note_off_c, 1, 64, 0
3, 123904, Note_on_c, 1, 62, 96
3, 125440, Note_off_c, 1, 62, 0
3, 125440, Note_on_c, 1, 67, 96
3, 125952, Note_off_c, 1, 67, 0
3, 125952, Note_on_c, 1, 60, 96
3, 127488, Note_off_c, 1, 60, 0
3, 127488, Note_on_c, 1, 64, 96
3, 128000, Note_off_c, 1, 64, 0
3, 128000, Note_on_c, 1, 62, 96
3, 128512, Note_off_c, 1, 62, 0
3, 128512, Note_on_c, 1, 60, 96
3, 129024, Note_off_c, 1, 60, 0
3, 129024, Note_on_c, 1, 59, 96
3, 129536, Note_off_c, 1, 59, 0
3, 129536, Note_on_c, 1, 62, 96
3, 130048, Note_off_c, 1, 62, 0
3, 130048, Note_on_c, 1, 64, 96
3, 130560, Note_off_c, 1, 64, 0
3, 130560, Note_on_c, 1, 66, 96
3, 131072, Note_off_c, 1, 66, 0
3, 131072, Note_on_c, 1, 67, 96
3, 132608, Note_off_c, 1, 67, 0
3, 132608, Note_on_c, 1, 64, 96
3, 133120, Note_off_c, 1, 64, 0
3, 133120, Note_on_c, 1, 66, 96
3, 133632, Note_off_c, 1, 66, 0
3, 133632, Note_on_c, 1, 67, 96
3, 134144, Note_off_c, 1, 67, 0
3, 134144, Note_on_c, 1, 69, 96
3, 135680, Note_off_c, 1, 69, 0
3, 135680, Note_on_c, 1, 67, 96
3, 136704, Note_off_c, 1, 67, 0
3, 136704, Note_on_c, 1, 66, 96
3, 137216, Note_off_c, 1, 66, 0
3, 137216, Note_on_c, 1, 64, 96
3, 137728, Note_off_c, 1, 64, 0
3, 137728, Note_on_c, 1, 62, 96
3, 138240, Note_off_c, 1, 62, 0
3, 138240, Note_on_c, 1, 62, 96
3, 138368, Note_off_c, 1, 62, 0
3, 138368, Note_on_c, 1, 61, 96
3, 138496, Note_off_c, 1, 61, 0
3, 138496, Note_on_c, 1, 62, 96
3, 138624, Note_off_c, 1, 62, 0
3, 138624, Note_on_c, 1, 61, 96
3, 138752, Note_off_c, 1, 61, 0
3, 138752, Note_on_c, 1, 62, 96
3, 139264, Note_off_c, 1, 62, 0
3, 139264, Note_on_c, 1, 64, 96
3, 140800, Note_off_c, 1, 64, 0
3, 140800, Note_on_c, 1, 57, 96
3, 141312, Note_off_c, 1, 57, 0
3, 141312, Note_on_c, 1, 62, 96
3, 142848, Note_off_c, 1, 62, 0
3, 142848, Note_on_c, 1, 64, 96
3, 143360, Note_off_c, 1, 64, 0
3, 143360, Note_on_c, 1, 61, 96
3, 144384, Note_off_c, 1, 61, 0
3, 144384, Note_on_c, 1, 62, 96
3, 146432, Note_off_c, 1, 62, 0
3, 146944, Note_on_c, 1, 62, 96
3, 147456, Note_off_c, 1, 62, 0
3, 147456, Note_on_c, 1, 64, 96
3, 148992, Note_off_c, 1, 64, 0
3, 148992, Note_on_c, 1, 66, 96
3, 149504, Note_off_c, 1, 66, 0
3, 149504, Note_on_c, 1, 67, 96
3, 150528, Note_off_c, 1, 67, 0
3, 150528, Note_on_c, 1, 66, 96
3, 151552, Note_off_c, 1, 66, 0
3, 151552, Note_on_c, 1, 69, 96
3, 153600, Note_off_c, 1, 69, 0
3, 153600, Note_on_c, 1, 62, 96
3, 155136, Note_off_c, 1, 62, 0
3, 155136, Note_on_c, 1, 60, 96
3, 155648, Note_off_c, 1, 60, 0
3, 155648, Note_on_c, 1, 59, 96
3, 157184, Note_off_c, 1, 59, 0
3, 157184, Note_on_c, 1, 60, 96
3, 157696, Note_off_c, 1, 60, 0
3, 157696, Note_on_c, 1, 59, 96
3, 157760, Note_off_c, 1, 59, 0
3, 157760, Note_on_c, 1, 57, 96
3, 157824, Note_off_c, 1, 57, 0
3, 157824, Note_on_c, 1, 59, 96
3, 157888, Note_off_c, 1, 59, 0
3, 157888, Note_on_c, 1, 57, 96
3, 159232, Note_off_c, 1, 57, 0
3, 159232, Note_on_c, 1, 55, 96
3, 159488, Note_off_c, 1, 55, 0
3, 159488, Note_on_c, 1, 57, 96
3, 159744, Note_off_c, 1, 57, 0
3, 159744, Note_on_c, 1, 55, 96
3, 160768, Note_off_c, 1, 55, 0
3, 160768, Note_on_c, 1, 60, 96
3, 162304, Note_off_c, 1, 60, 0
3, 162304, Note_on_c, 1, 59, 96
3, 162816, Note_off_c, 1, 59, 0
3, 162816, Note_on_c, 1, 60, 96
3, 163328, Note_off_c, 1, 60, 0
3, 163328, Note_on_c, 1, 59, 96
3, 163840, Note_off_c, 1, 59, 0
3, 163840, Note_on_c, 1, 60, 96
3, 164352, Note_off_c, 1, 60, 0
3, 164352, Note_on_c, 1, 62, 96
3, 164864, Note_off_c, 1, 62, 0
3, 164864, Note_on_c, 1, 64, 96
3, 165888, Note_off_c, 1, 64, 0
3, 165888, Note_on_c, 1, 62, 96
3, 166400, Note_off_c, 1, 62, 0
3, 166400, Note_on_c, 1, 64, 96
3, 166912, Note_off_c, 1, 64, 0
3, 166912, Note_on_c, 1, 66, 96
3, 167424, Note_off_c, 1, 66, 0
3, 167424, Note_on_c, 1, 67, 96
3, 167936, Note_off_c, 1, 67, 0
3, 167936, Note_on_c, 1, 69, 96
3, 168448, Note_off_c, 1, 69, 0
3, 168448, Note_on_c, 1, 71, 96
3, 168960, Note_off_c, 1, 71, 0
3, 168960, Note_on_c, 1, 73, 96
3, 169472, Note_off_c, 1, 73, 0
3, 169472, Note_on_c, 1, 74, 96
3, 169984, Note_off_c, 1, 74, 0
3, 169984, Note_on_c, 1, 76, 96
3, 171520, Note_off_c, 1, 76, 0
3, 171520, Note_on_c, 1, 69, 96
3, 172032, Note_off_c, 1, 69, 0
3, 172032, Note_on_c, 1, 74, 96
3, 173568, Note_off_c, 1, 74, 0
3, 173568, Note_on_c, 1, 76, 96
3, 174080, Note_off_c, 1, 76, 0
3, 174080, Note_on_c, 1, 73, 96
3, 175104, Note_off_c, 1, 73, 0
3, 175104, Note_on_c, 1, 74, 96
3, 175616, Note_off_c, 1, 74, 0
3, 175616, Note_on_c, 1, 72, 96
3, 176128, Note_off_c, 1, 72, 0
3, 176128, Note_on_c, 1, 71, 96
3, 176640, Note_off_c, 1, 71, 0
3, 176640, Note_on_c, 1, 69, 96
3, 177152, Note_off_c, 1, 69, 0
3, 177152, Note_on_c, 1, 67, 96
3, 177664, Note_off_c, 1, 67, 0
3, 177664, Note_on_c, 1, 72, 96
3, 178176, Note_off_c, 1, 72, 0
3, 178176, Note_on_c, 1, 69, 96
3, 179712, Note_off_c, 1, 69, 0
3, 179712, Note_on_c, 1, 71, 96
3, 180224, Note_off_c, 1, 71, 0
3, 180224, Note_on_c, 1, 64, 96
3, 180736, Note_off_c, 1, 64, 0
3, 180736, Note_on_c, 1, 66, 96
3, 181248, Note_off_c, 1, 66, 0
3, 181248, Note_on_c, 1, 67, 96
3, 182784, Note_off_c, 1, 67, 0
3, 182784, Note_on_c, 1, 65, 96
3, 183296, Note_off_c, 1, 65, 0
3, 183296, Note_on_c, 1, 64, 96
3, 185344, Note_off_c, 1, 64, 0
3, 185344, Note_on_c, 1, 62, 96
3, 188416, Note_off_c, 1, 62, 0
3, 188416, Note_on_c, 1, 67, 96
3, 188928, Note_off_c, 1, 67, 0
3, 188928, Note_on_c, 1, 66, 96
3, 189440, Note_off_c, 1, 66, 0
3, 189440, Note_on_c, 1, 64, 96
3, 189952, Note_off_c, 1, 64, 0
3, 189952, Note_on_c, 1, 62, 96
3, 190464, Note_off_c, 1, 62, 0
3, 190464, Note_on_c, 1, 61, 96
3, 190976, Note_off_c, 1, 61, 0
3, 190976, Note_on_c, 1, 57, 96
3, 191488, Note_off_c, 1, 57, 0
3, 191488, Note_on_c, 1, 62, 96
3, 195584, Note_off_c, 1, 62, 0
3, 195584, Note_on_c, 1, 61, 96
3, 196608, Note_off_c, 1, 61, 0
3, 196608, Note_on_c, 1, 62, 96
3, 198144, Note_off_c, 1, 62, 0
3, 198144, Note_on_c, 1, 60, 96
3, 198656, Note_off_c, 1, 60, 0
3, 198656, Note_on_c, 1, 59, 96
3, 200192, Note_off_c, 1, 59, 0
3, 200192, Note_on_c, 1, 59, 96
3, 200704, Note_off_c, 1, 59, 0
3, 200704, Note_on_c, 1, 57, 96
3, 201216, Note_off_c, 1, 57, 0
3, 201216, Note_on_c, 1, 62, 96
3, 202240, Note_off_c, 1, 62, 0
3, 202240, Note_on_c, 1, 61, 96
3, 202752, Note_off_c, 1, 61, 0
3, 202752, Note_on_c, 1, 62, 96
3, 203776, Note_off_c, 1, 62, 0
3, 206336, Note_on_c, 1, 62, 96
3, 206848, Note_off_c, 1, 62, 0
3, 206848, Note_on_c, 1, 67, 96
3, 208384, Note_off_c, 1, 67, 0
3, 208384, Note_on_c, 1, 66, 96
3, 208896, Note_off_c, 1, 66, 0
3, 208896, Note_on_c, 1, 64, 96
3, 209408, Note_off_c, 1, 64, 0
3, 209408, Note_on_c, 1, 57, 96
3, 209920, Note_off_c, 1, 57, 0
3, 210432, Note_on_c, 1, 69, 96
3, 210944, Note_off_c, 1, 69, 0
3, 210944, Note_on_c, 1, 64, 96
3, 211456, Note_off_c, 1, 64, 0
3, 211456, Note_on_c, 1, 66, 96
3, 211968, Note_off_c, 1, 66, 0
3, 211968, Note_on_c, 1, 67, 96
3, 213504, Note_off_c, 1, 67, 0
3, 213504, Note_on_c, 1, 67, 96
3, 214016, Note_off_c, 1, 67, 0
3, 214016, Note_on_c, 1, 66, 96
3, 214528, Note_off_c, 1, 66, 0
3, 214528, Note_on_c, 1, 64, 96
3, 215040, Note_off_c, 1, 64, 0
3, 215040, Note_on_c, 1, 63, 96
3, 215552, Note_off_c, 1, 63, 0
3, 215552, Note_on_c, 1, 64, 96
3, 216064, Note_off_c, 1, 64, 0
3, 216064, Note_on_c, 1, 66, 96
3, 217600, Note_off_c, 1, 66, 0
3, 217600, Note_on_c, 1, 67, 96
3, 218112, Note_off_c, 1, 67, 0
3, 218112, Note_on_c, 1, 69, 96
3, 219648, Note_off_c, 1, 69, 0
3, 219648, Note_on_c, 1, 71, 96
3, 220160, Note_off_c, 1, 71, 0
3, 220160, Note_on_c, 1, 67, 96
3, 221184, Note_off_c, 1, 67, 0
3, 221184, Note_on_c, 1, 66, 96
3, 222208, Note_off_c, 1, 66, 0
3, 222208, Note_on_c, 1, 64, 96
3, 225280, Note_off_c, 1, 64, 0
3, 225280, Note_on_c, 1, 62, 96
3, 228864, Note_off_c, 1, 62, 0
3, 228864, Note_on_c, 1, 61, 96
3, 229376, Note_off_c, 1, 61, 0
3, 229376, Note_on_c, 1, 62, 96
3, 229888, Note_off_c, 1, 62, 0
3, 229888, Note_on_c, 1, 64, 96
3, 230400, Note_off_c, 1, 64, 0
3, 230400, Note_on_c, 1, 57, 96
3, 231424, Note_off_c, 1, 57, 0
3, 231424, Note_on_c, 1, 62, 96
3, 232448, Note_off_c, 1, 62, 0
3, 232448, Note_on_c, 1, 64, 96
3, 233472, Note_off_c, 1, 64, 0
3, 233472, Note_on_c, 1, 66, 96
3, 235008, Note_off_c, 1, 66, 0
3, 235008, Note_on_c, 1, 67, 96
3, 235520, Note_off_c, 1, 67, 0
3, 235520, Note_on_c, 1, 69, 96
3, 237568, Note_off_c, 1, 69, 0
3, 237568, Note_on_c, 1, 67, 96
3, 240128, Note_off_c, 1, 67, 0
3, 240128, Note_on_c, 1, 66, 96
3, 240640, Note_off_c, 1, 66, 0
3, 240640, Note_on_c, 1, 66, 96
3, 240704, Note_off_c, 1, 66, 0
3, 240704, Note_on_c, 1, 64, 96
3, 240768, Note_off_c, 1, 64, 0
3, 240768, Note_on_c, 1, 66, 96
3, 240832, Note_off_c, 1, 66, 0
3, 240832, Note_on_c, 1, 64, 96
3, 242176, Note_off_c, 1, 64, 0
3, 242176, Note_on_c, 1, 62, 96
3, 242432, Note_off_c, 1, 62, 0
3, 242432, Note_on_c, 1, 64, 96
3, 242688, Note_off_c, 1, 64, 0
3, 242688, Note_on_c, 1, 66, 96
3, 244224, Note_off_c, 1, 66, 0
3, 244224, Note_on_c, 1, 64, 96
3, 244736, Note_off_c, 1, 64, 0
3, 244736, Note_on_c, 1, 62, 96
3, 245760, Note_off_c, 1, 62, 0
3, 245760, Note_on_c, 1, 67, 96
3, 247296, Note_off_c, 1, 67, 0
3, 247296, Note_on_c, 1, 66, 96
3, 247808, Note_off_c, 1, 66, 0
3, 247808, Note_on_c, 1, 64, 96
3, 248832, Note_off_c, 1, 64, 0
3, 248832, Note_on_c, 1, 66, 96
3, 249344, Note_off_c, 1, 66, 0
3, 249344, Note_on_c, 1, 76, 96
3, 249856, Note_off_c, 1, 76, 0
3, 249856, Note_on_c, 1, 74, 96
3, 250368, Note_off_c, 1, 74, 0
3, 250368, Note_on_c, 1, 72, 96
3, 250880, Note_off_c, 1, 72, 0
3, 250880, Note_on_c, 1, 71, 96
3, 251392, Note_off_c, 1, 71, 0
3, 251392, Note_on_c, 1, 69, 96
3, 251904, Note_off_c, 1, 69, 0
3, 251904, Note_on_c, 1, 67, 96
3, 252416, Note_off_c, 1, 67, 0
3, 252416, Note_on_c, 1, 69, 96
3, 252928, Note_off_c, 1, 69, 0
3, 252928, Note_on_c, 1, 71, 96
3, 253952, Note_off_c, 1, 71, 0
3, 253952, Note_on_c, 1, 69, 96
3, 254976, Note_off_c, 1, 69, 0
3, 254976, Note_on_c, 1, 67, 96
3, 255488, Note_off_c, 1, 67, 0
3, 255488, Note_on_c, 1, 66, 96
3, 256000, Note_off_c, 1, 66, 0
3, 256000, Note_on_c, 1, 67, 96
3, 256512, Note_off_c, 1, 67, 0
3, 256512, Note_on_c, 1, 69, 96
3, 257024, Note_off_c, 1, 69, 0
3, 257024, Note_on_c, 1, 64, 96
3, 257536, Note_off_c, 1, 64, 0
3, 257536, Note_on_c, 1, 66, 96
3, 258048, Note_off_c, 1, 66, 0
3, 258048, Note_on_c, 1, 67, 96
3, 259584, Note_off_c, 1, 67, 0
3, 259584, Note_on_c, 1, 67, 96
3, 260096, Note_off_c, 1, 67, 0
3, 260096, Note_on_c, 1, 66, 96
3, 260608, Note_off_c, 1, 66, 0
3, 260608, Note_on_c, 1, 64, 96
3, 261120, Note_off_c, 1, 64, 0
3, 261120, Note_on_c, 1, 62, 96
3, 261632, Note_off_c, 1, 62, 0
3, 261632, Note_on_c, 1, 60, 96
3, 262144, Note_off_c, 1, 60, 0
3, 262144, Note_on_c, 1, 59, 96
3, 262656, Note_off_c, 1, 59, 0
3, 262656, Note_on_c, 1, 64, 96
3, 263680, Note_off_c, 1, 64, 0
3, 263680, Note_on_c, 1, 62, 96
3, 267264, Note_off_c, 1, 62, 0
3, 267264, Note_on_c, 1, 64, 96
3, 270336, Note_off_c, 1, 64, 0
3, 270336, Note_on_c, 1, 62, 96
3, 271360, Note_off_c, 1, 62, 0
3, 271360, Note_on_c, 1, 64, 96
3, 272384, Note_off_c, 1, 64, 0
3, 272384, Note_on_c, 1, 63, 96
3, 272896, Note_off_c, 1, 63, 0
3, 272896, Note_on_c, 1, 64, 96
3, 273408, Note_off_c, 1, 64, 0
3, 273408, Note_on_c, 1, 66, 96
3, 274944, Note_off_c, 1, 66, 0
3, 274944, Note_on_c, 1, 64, 96
3, 275968, Note_off_c, 1, 64, 0
3, 275968, Note_on_c, 1, 63, 96
3, 276480, Note_off_c, 1, 63, 0
3, 276480, Note_on_c, 1, 64, 96
3, 276992, Note_off_c, 1, 64, 0
3, 276992, Note_on_c, 1, 67, 96
3, 277504, Note_off_c, 1, 67, 0
3, 277504, Note_on_c, 1, 61, 96
3, 278528, Note_off_c, 1, 61, 0
3, 278528, Note_on_c, 1, 63, 96
3, 279552, Note_off_c, 1, 63, 0
3, 279552, Note_on_c, 1, 64, 96
3, 280576, Note_off_c, 1, 64, 0
3, 284160, Note_on_c, 1, 74, 96
3, 285184, Note_off_c, 1, 74, 0
3, 285184, Note_on_c, 1, 73, 96
3, 286208, Note_off_c, 1, 73, 0
3, 286208, Note_on_c, 1, 72, 96
3, 286720, Note_off_c, 1, 72, 0
3, 286720, Note_on_c, 1, 71, 96
3, 287232, Note_off_c, 1, 71, 0
3, 287232, Note_on_c, 1, 69, 96
3, 287744, Note_off_c, 1, 69, 0
3, 287744, Note_on_c, 1, 67, 96
3, 288256, Note_off_c, 1, 67, 0
3, 288256, Note_on_c, 1, 66, 96
3, 288768, Note_off_c, 1, 66, 0
3, 288768, Note_on_c, 1, 67, 96
3, 289280, Note_off_c, 1, 67, 0
3, 289280, Note_on_c, 1, 71, 96
3, 289792, Note_off_c, 1, 71, 0
3, 289792, Note_on_c, 1, 64, 96
3, 290304, Note_off_c, 1, 64, 0
3, 290304, Note_on_c, 1, 69, 96
3, 290816, Note_off_c, 1, 69, 0
3, 290816, Note_on_c, 1, 67, 96
3, 291328, Note_off_c, 1, 67, 0
3, 291328, Note_on_c, 1, 69, 96
3, 291840, Note_off_c, 1, 69, 0
3, 291840, Note_on_c, 1, 66, 96
3, 292352, Note_off_c, 1, 66, 0
3, 292352, Note_on_c, 1, 67, 96
3, 292864, Note_off_c, 1, 67, 0
3, 292864, Note_on_c, 1, 69, 96
3, 293888, Note_off_c, 1, 69, 0
3, 293888, Note_on_c, 1, 71, 96
3, 294912, Note_off_c, 1, 71, 0
3, 294912, Note_on_c, 1, 69, 96
3, 296960, Note_off_c, 1, 69, 0
3, 296960, Note_on_c, 1, 62, 96
3, 297984, Note_off_c, 1, 62, 0
3, 297984, Note_on_c, 1, 64, 96
3, 299008, Note_off_c, 1, 64, 0
3, 299008, Note_on_c, 1, 67, 96
3, 299136, Note_off_c, 1, 67, 0
3, 299136, Note_on_c, 1, 66, 96
3, 299264, Note_off_c, 1, 66, 0
3, 299264, Note_on_c, 1, 67, 96
3, 299392, Note_off_c, 1, 67, 0
3, 299392, Note_on_c, 1, 66, 96
3, 300544, Note_off_c, 1, 66, 0
3, 300544, Note_on_c, 1, 64, 96
3, 300800, Note_off_c, 1, 64, 0
3, 300800, Note_on_c, 1, 66, 96
3, 301056, Note_off_c, 1, 66, 0
3, 301056, Note_on_c, 1, 67, 96
3, 303616, Note_off_c, 1, 67, 0
3, 303616, Note_on_c, 1, 69, 96
3, 303872, Note_off_c, 1, 69, 0
3, 303872, Note_on_c, 1, 67, 96
3, 304128, Note_off_c, 1, 67, 0
3, 304128, Note_on_c, 1, 66, 96
3, 304640, Note_off_c, 1, 66, 0
3, 304640, Note_on_c, 1, 67, 96
3, 304896, Note_off_c, 1, 67, 0
3, 304896, Note_on_c, 1, 69, 96
3, 305152, Note_off_c, 1, 69, 0
3, 305152, Note_on_c, 1, 62, 96
3, 305216, Note_off_c, 1, 62, 0
3, 305216, Note_on_c, 1, 61, 96
3, 305280, Note_off_c, 1, 61, 0
3, 305280, Note_on_c, 1, 62, 96
3, 305344, Note_off_c, 1, 62, 0
3, 305344, Note_on_c, 1, 61, 96
3, 306688, Note_off_c, 1, 61, 0
3, 306688, Note_on_c, 1, 59, 96
3, 306944, Note_off_c, 1, 59, 0
3, 306944, Note_on_c, 1, 61, 96
3, 307200, Note_off_c, 1, 61, 0
3, 307200, Note_on_c, 1, 62, 96
3, 307712, Note_off_c, 1, 62, 0
3, 307712, Note_on_c, 1, 64, 96
3, 308224, Note_off_c, 1, 64, 0
3, 308224, Note_on_c, 1, 66, 96
3, 309248, Note_off_c, 1, 66, 0
3, 309248, Note_on_c, 1, 67, 96
3, 310016, Note_off_c, 1, 67, 0
3, 310016, Note_on_c, 1, 69, 96
3, 310272, Note_off_c, 1, 69, 0
3, 310272, Note_on_c, 1, 66, 96
3, 311552, Note_off_c, 1, 66, 0
3, 311552, Note_on_c, 1, 67, 96
3, 311808, Note_off_c, 1, 67, 0
3, 311808, Note_on_c, 1, 69, 96
3, 312064, Note_off_c, 1, 69, 0
3, 312064, Note_on_c, 1, 71, 96
3, 312320, Note_off_c, 1, 71, 0
3, 312320, Note_on_c, 1, 61, 96
3, 312832, Note_off_c, 1, 61, 0
3, 312832, Note_on_c, 1, 69, 96
3, 313344, Note_off_c, 1, 69, 0
3, 313344, Note_on_c, 1, 62, 96
3, 313856, Note_off_c, 1, 62, 0
3, 313856, Note_on_c, 1, 67, 96
3, 314880, Note_off_c, 1, 67, 0
3, 314880, Note_on_c, 1, 66, 96
3, 315392, Note_off_c, 1, 66, 0
3, 315392, Note_on_c, 1, 64, 96
3, 315904, Note_off_c, 1, 64, 0
3, 315904, Note_on_c, 1, 66, 96
3, 316160, Note_off_c, 1, 66, 0
3, 316160, Note_on_c, 1, 67, 96
3, 316416, Note_off_c, 1, 67, 0
3, 316416, Note_on_c, 1, 66, 96
3, 317952, Note_off_c, 1, 66, 0
3, 317952, Note_on_c, 1, 67, 96
3, 318464, Note_off_c, 1, 67, 0
3, 318464, Note_on_c, 1, 69, 96
3, 318976, Note_off_c, 1, 69, 0
3, 318976, Note_on_c, 1, 71, 96
3, 319232, Note_off_c, 1, 71, 0
3, 319232, Note_on_c, 1, 72, 96
3, 319488, Note_off_c, 1, 72, 0
3, 319488, Note_on_c, 1, 71, 96
3, 320000, Note_off_c, 1, 71, 0
3, 320000, Note_on_c, 1, 69, 96
3, 320512, Note_off_c, 1, 69, 0
3, 320512, Note_on_c, 1, 67, 96
3, 322560, Note_off_c, 1, 67, 0
3, 322560, Note_on_c, 1, 66, 96
3, 323584, Note_off_c, 1, 66, 0
3, 323584, Note_on_c, 1, 67, 96
3, 324608, Note_off_c, 1, 67, 0
3, 324608, Note_on_c, 1, 69, 96
3, 326656, Note_off_c, 1, 69, 0
3, 326656, Note_on_c, 1, 67, 96
3, 327168, Note_off_c, 1, 67, 0
3, 327168, Note_on_c, 1, 66, 96
3, 327680, Note_off_c, 1, 66, 0
3, 327680, Note_on_c, 1, 64, 96
3, 328192, Note_off_c, 1, 64, 0
3, 328192, Note_on_c, 1, 67, 96
3, 329216, Note_off_c, 1, 67, 0
3, 329216, Note_on_c, 1, 67, 96
3, 329728, Note_off_c, 1, 67, 0
3, 329728, Note_on_c, 1, 66, 96
3, 330240, Note_off_c, 1, 66, 0
3, 330240, Note_on_c, 1, 64, 96
3, 330752, Note_off_c, 1, 64, 0
3, 330752, Note_on_c, 1, 66, 96
3, 331776, Note_off_c, 1, 66, 0
3, 331776, Note_on_c, 1, 67, 96
3, 333312, Note_off_c, 1, 67, 0
3, 333312, Note_on_c, 1, 69, 96
3, 333824, Note_off_c, 1, 69, 0
3, 333824, Note_on_c, 1, 71, 96
3, 334336, Note_off_c, 1, 71, 0
3, 334336, Note_on_c, 1, 73, 96
3, 334848, Note_off_c, 1, 73, 0
3, 334848, Note_on_c, 1, 74, 96
3, 336384, Note_off_c, 1, 74, 0
3, 336384, Note_on_c, 1, 76, 96
3, 336896, Note_off_c, 1, 76, 0
3, 336896, Note_on_c, 1, 74, 96
3, 336960, Note_off_c, 1, 74, 0
3, 336960, Note_on_c, 1, 73, 96
3, 337024, Note_off_c, 1, 73, 0
3, 337024, Note_on_c, 1, 74, 96
3, 337088, Note_off_c, 1, 74, 0
3, 337088, Note_on_c, 1, 73, 96
3, 337920, Note_off_c, 1, 73, 0
3, 337920, Note_on_c, 1, 74, 96
3, 338944, Note_off_c, 1, 74, 0
3, 339456, Note_on_c, 1, 72, 96
3, 340480, Note_off_c, 1, 72, 0
3, 340480, Note_on_c, 1, 71, 96
3, 340992, Note_off_c, 1, 71, 0
3, 340992, Note_on_c, 1, 72, 96
3, 341504, Note_off_c, 1, 72, 0
3, 341504, Note_on_c, 1, 71, 96
3, 342016, Note_off_c, 1, 71, 0
3, 342016, Note_on_c, 1, 69, 96
3, 342528, Note_off_c, 1, 69, 0
3, 342528, Note_on_c, 1, 67, 96
3, 343040, Note_off_c, 1, 67, 0
3, 343040, Note_on_c, 1, 66, 96
3, 343552, Note_off_c, 1, 66, 0
3, 343552, Note_on_c, 1, 64, 96
3, 344064, Note_off_c, 1, 64, 0
3, 344064, Note_on_c, 1, 62, 96
3, 344576, Note_off_c, 1, 62, 0
3, 344576, Note_on_c, 1, 67, 96
3, 345600, Note_off_c, 1, 67, 0
3, 345600, Note_on_c, 1, 66, 96
3, 345856, Note_off_c, 1, 66, 0
3, 345856, Note_on_c, 1, 64, 96
3, 346112, Note_off_c, 1, 64, 0
3, 346112, Note_on_c, 1, 67, 96
3, 346208, Note_off_c, 1, 67, 0
3, 346208, Note_on_c, 1, 66, 96
3, 346304, Note_off_c, 1, 66, 0
3, 346304, Note_on_c, 1, 67, 96
3, 346400, Note_off_c, 1, 67, 0
3, 346400, Note_on_c, 1, 66, 96
3, 347136, Note_off_c, 1, 66, 0
3, 347136, Note_on_c, 1, 67, 96
3, 348160, Note_off_c, 1, 67, 0
3, 348160, Note_on_c, 1, 71, 96
3, 349184, Note_off_c, 1, 71, 0
3, 349184, Note_on_c, 1, 69, 96
3, 350208, Note_off_c, 1, 69, 0
3, 350208, Note_on_c, 1, 64, 96
3, 352256, Note_off_c, 1, 64, 0
3, 352256, Note_on_c, 1, 67, 96
3, 353280, Note_off_c, 1, 67, 0
3, 353280, Note_on_c, 1, 66, 96
3, 354304, Note_off_c, 1, 66, 0
3, 354304, Note_on_c, 1, 66, 96
3, 354368, Note_off_c, 1, 66, 0
3, 354368, Note_on_c, 1, 64, 96
3, 354432, Note_off_c, 1, 64, 0
3, 354432, Note_on_c, 1, 66, 96
3, 354496, Note_off_c, 1, 66, 0
3, 354496, Note_on_c, 1, 64, 96
3, 355840, Note_off_c, 1, 64, 0
3, 355840, Note_on_c, 1, 62, 96
3, 356096, Note_off_c, 1, 62, 0
3, 356096, Note_on_c, 1, 64, 96
3, 356352, Note_off_c, 1, 64, 0
3, 356352, Note_on_c, 1, 62, 96
3, 356864, Note_off_c, 1, 62, 0
3, 356864, Note_on_c, 1, 74, 96
3, 357376, Note_off_c, 1, 74, 0
3, 357376, Note_on_c, 1, 72, 96
3, 357888, Note_off_c, 1, 72, 0
3, 357888, Note_on_c, 1, 71, 96
3, 358400, Note_off_c, 1, 71, 0
3, 358400, Note_on_c, 1, 76, 96
3, 358912, Note_off_c, 1, 76, 0
3, 358912, Note_on_c, 1, 68, 96
3, 359424, Note_off_c, 1, 68, 0
3, 359424, Note_on_c, 1, 69, 96
3, 359936, Note_off_c, 1, 69, 0
3, 359936, Note_on_c, 1, 71, 96
3, 360448, Note_off_c, 1, 71, 0
3, 360448, Note_on_c, 1, 72, 96
3, 360960, Note_off_c, 1, 72, 0
3, 360960, Note_on_c, 1, 74, 96
3, 361472, Note_off_c, 1, 74, 0
3, 361472, Note_on_c, 1, 76, 96
3, 361984, Note_off_c, 1, 76, 0
3, 361984, Note_on_c, 1, 78, 96
3, 362496, Note_off_c, 1, 78, 0
3, 362496, Note_on_c, 1, 79, 96
3, 363008, Note_off_c, 1, 79, 0
3, 363008, Note_on_c, 1, 74, 96
3, 363520, Note_off_c, 1, 74, 0
3, 363520, Note_on_c, 1, 72, 96
3, 364032, Note_off_c, 1, 72, 0
3, 364032, Note_on_c, 1, 76, 96
3, 364544, Note_off_c, 1, 76, 0
3, 364544, Note_on_c, 1, 74, 96
3, 365056, Note_off_c, 1, 74, 0
3, 365056, Note_on_c, 1, 72, 96
3, 365568, Note_off_c, 1, 72, 0
3, 365568, Note_on_c, 1, 71, 96
3, 366592, Note_off_c, 1, 71, 0
3, 366592, Note_on_c, 1, 67, 96
3, 367104, Note_off_c, 1, 67, 0
3, 367104, Note_on_c, 1, 69, 96
3, 367616, Note_off_c, 1, 69, 0
3, 367616, Note_on_c, 1, 71, 96
3, 368640, Note_off_c, 1, 71, 0
3, 370176, Note_on_c, 1, 69, 96
3, 370688, Note_off_c, 1, 69, 0
3, 370688, Note_on_c, 1, 67, 96
3, 371200, Note_off_c, 1, 67, 0
3, 371200, Note_on_c, 1, 66, 96
3, 371712, Note_off_c, 1, 66, 0
3, 371712, Note_on_c, 1, 67, 96
3, 373760, Note_off_c, 1, 67, 0
3, 373760, Note_on_c, 1, 66, 96
3, 374784, Note_off_c, 1, 66, 0
3, 374784, Note_on_c, 1, 67, 96
3, 375296, Note_off_c, 1, 67, 0
3, 375296, Note_on_c, 1, 65, 96
3, 375808, Note_off_c, 1, 65, 0
3, 375808, Note_on_c, 1, 65, 96
3, 375936, Note_off_c, 1, 65, 0
3, 375936, Note_on_c, 1, 64, 96
3, 376064, Note_off_c, 1, 64, 0
3, 376064, Note_on_c, 1, 65, 96
3, 376192, Note_off_c, 1, 65, 0
3, 376192, Note_on_c, 1, 64, 96
3, 377344, Note_off_c, 1, 64, 0
3, 377344, Note_on_c, 1, 62, 96
3, 377600, Note_off_c, 1, 62, 0
3, 377600, Note_on_c, 1, 64, 96
3, 377856, Note_off_c, 1, 64, 0
3, 377856, Note_on_c, 1, 62, 96
3, 379392, Note_off_c, 1, 62, 0
3, 379392, Note_on_c, 1, 55, 96
3, 379904, Note_off_c, 1, 55, 0
3, 379904, Note_on_c, 1, 60, 96
3, 380928, Note_off_c, 1, 60, 0
3, 380928, Note_on_c, 1, 59, 96
3, 381440, Note_off_c, 1, 59, 0
3, 381440, Note_on_c, 1, 62, 96
3, 381952, Note_off_c, 1, 62, 0
3, 381952, Note_on_c, 1, 64, 96
3, 382464, Note_off_c, 1, 64, 0
3, 382464, Note_on_c, 1, 66, 96
3, 382976, Note_off_c, 1, 66, 0
3, 382976, Note_on_c, 1, 67, 96
3, 384512, Note_off_c, 1, 67, 0
3, 384512, Note_on_c, 1, 64, 96
3, 385024, Note_off_c, 1, 64, 0
3, 385024, Note_on_c, 1, 66, 96
3, 385536, Note_off_c, 1, 66, 0
3, 385536, Note_on_c, 1, 67, 96
3, 386048, Note_off_c, 1, 67, 0
3, 386048, Note_on_c, 1, 67, 96
3, 386560, Note_off_c, 1, 67, 0
3, 386560, Note_on_c, 1, 69, 96
3, 387584, Note_off_c, 1, 69, 0
3, 387584, Note_on_c, 1, 67, 96
3, 388608, Note_off_c, 1, 67, 0
3, 388608, Note_on_c, 1, 66, 96
3, 389120, Note_off_c, 1, 66, 0
3, 389120, Note_on_c, 1, 64, 96
3, 389632, Note_off_c, 1, 64, 0
3, 389632, Note_on_c, 1, 62, 96
3, 390144, Note_off_c, 1, 62, 0
3, 390144, Note_on_c, 1, 61, 96
3, 390656, Note_off_c, 1, 61, 0
3, 390656, Note_on_c, 1, 62, 96
3, 391168, Note_off_c, 1, 62, 0
3, 391168, Note_on_c, 1, 64, 96
3, 392704, Note_off_c, 1, 64, 0
3, 392704, Note_on_c, 1, 57, 96
3, 393216, Note_off_c, 1, 57, 0
3, 393216, Note_on_c, 1, 62, 96
3, 394752, Note_off_c, 1, 62, 0
3, 394752, Note_on_c, 1, 61, 96
3, 395008, Note_off_c, 1, 61, 0
3, 395008, Note_on_c, 1, 59, 96
3, 395264, Note_off_c, 1, 59, 0
3, 395264, Note_on_c, 1, 61, 96
3, 396288, Note_off_c, 1, 61, 0
3, 396288, Note_on_c, 1, 62, 96
3, 398336, Note_off_c, 1, 62, 0
3, 398848, Note_on_c, 1, 62, 96
3, 399360, Note_off_c, 1, 62, 0
3, 399360, Note_on_c, 1, 64, 96
3, 400896, Note_off_c, 1, 64, 0
3, 400896, Note_on_c, 1, 66, 96
3, 401408, Note_off_c, 1, 66, 0
3, 401408, Note_on_c, 1, 67, 96
3, 402432, Note_off_c, 1, 67, 0
3, 402432, Note_on_c, 1, 66, 96
3, 403456, Note_off_c, 1, 66, 0
3, 403456, Note_on_c, 1, 69, 96
3, 405504, Note_off_c, 1, 69, 0
3, 405504, Note_on_c, 1, 62, 96
3, 407040, Note_off_c, 1, 62, 0
3, 407040, Note_on_c, 1, 60, 96
3, 407552, Note_off_c, 1, 60, 0
3, 407552, Note_on_c, 1, 59, 96
3, 409088, Note_off_c, 1, 59, 0
3, 409088, Note_on_c, 1, 60, 96
3, 409600, Note_off_c, 1, 60, 0
3, 409600, Note_on_c, 1, 59, 96
3, 409696, Note_off_c, 1, 59, 0
3, 409696, Note_on_c, 1, 57, 96
3, 409792, Note_off_c, 1, 57, 0
3, 409792, Note_on_c, 1, 59, 96
3, 409888, Note_off_c, 1, 59, 0
3, 409888, Note_on_c, 1, 57, 96
3, 411136, Note_off_c, 1, 57, 0
3, 411136, Note_on_c, 1, 55, 96
3, 411392, Note_off_c, 1, 55, 0
3, 411392, Note_on_c, 1, 57, 96
3, 411648, Note_off_c, 1, 57, 0
3, 411648, Note_on_c, 1, 55, 96
3, 412672, Note_off_c, 1, 55, 0
3, 412672, Note_on_c, 1, 60, 96
3, 414208, Note_off_c, 1, 60, 0
3, 414208, Note_on_c, 1, 59, 96
3, 414720, Note_off_c, 1, 59, 0
3, 414720, Note_on_c, 1, 60, 96
3, 415232, Note_off_c, 1, 60, 0
3, 415232, Note_on_c, 1, 59, 96
3, 415744, Note_off_c, 1, 59, 0
3, 415744, Note_on_c, 1, 60, 96
3, 416256, Note_off_c, 1, 60, 0
3, 416256, Note_on_c, 1, 62, 96
3, 416768, Note_off_c, 1, 62, 0
3, 416768, Note_on_c, 1, 64, 96
3, 417792, Note_off_c, 1, 64, 0
3, 417792, Note_on_c, 1, 62, 96
3, 418304, Note_off_c, 1, 62, 0
3, 418304, Note_on_c, 1, 64, 96
3, 418816, Note_off_c, 1, 64, 0
3, 418816, Note_on_c, 1, 66, 96
3, 419328, Note_off_c, 1, 66, 0
3, 419328, Note_on_c, 1, 67, 96
3, 419840, Note_off_c, 1, 67, 0
3, 419840, Note_on_c, 1, 69, 96
3, 420352, Note_off_c, 1, 69, 0
3, 420352, Note_on_c, 1, 71, 96
3, 420864, Note_off_c, 1, 71, 0
3, 420864, Note_on_c, 1, 73, 96
3, 421376, Note_off_c, 1, 73, 0
3, 421376, Note_on_c, 1, 74, 96
3, 421888, Note_off_c, 1, 74, 0
3, 421888, Note_on_c, 1, 76, 96
3, 423424, Note_off_c, 1, 76, 0
3, 423424, Note_on_c, 1, 69, 96
3, 423936, Note_off_c, 1, 69, 0
3, 423936, Note_on_c, 1, 74, 96
3, 425472, Note_off_c, 1, 74, 0
3, 425472, Note_on_c, 1, 73, 96
3, 425728, Note_off_c, 1, 73, 0
3, 425728, Note_on_c, 1, 71, 96
3, 425984, Note_off_c, 1, 71, 0
3, 425984, Note_on_c, 1, 73, 96
3, 427008, Note_off_c, 1, 73, 0
3, 427008, Note_on_c, 1, 74, 96
3, 427520, Note_off_c, 1, 74, 0
3, 427520, Note_on_c, 1, 72, 96
3, 428032, Note_off_c, 1, 72, 0
3, 428032, Note_on_c, 1, 71, 96
3, 428544, Note_off_c, 1, 71, 0
3, 428544, Note_on_c, 1, 69, 96
3, 429056, Note_off_c, 1, 69, 0
3, 429056, Note_on_c, 1, 67, 96
3, 429568, Note_off_c, 1, 67, 0
3, 429568, Note_on_c, 1, 72, 96
3, 430080, Note_off_c, 1, 72, 0
3, 430080, Note_on_c, 1, 69, 96
3, 431616, Note_off_c, 1, 69, 0
3, 431616, Note_on_c, 1, 71, 96
3, 432128, Note_off_c, 1, 71, 0
3, 432128, Note_on_c, 1, 64, 96
3, 432640, Note_off_c, 1, 64, 0
3, 432640, Note_on_c, 1, 66, 96
3, 433152, Note_off_c, 1, 66, 0
3, 433152, Note_on_c, 1, 67, 96
3, 434688, Note_off_c, 1, 67, 0
3, 434688, Note_on_c, 1, 65, 96
3, 435200, Note_off_c, 1, 65, 0
3, 435200, Note_on_c, 1, 64, 96
3, 437248, Note_off_c, 1, 64, 0
3, 437248, Note_on_c, 1, 62, 96
3, 440320, Note_off_c, 1, 62, 0
3, 440320, Note_on_c, 1, 67, 96
3, 440832, Note_off_c, 1, 67, 0
3, 440832, Note_on_c, 1, 66, 96
3, 441344, Note_off_c, 1, 66, 0
3, 441344, Note_on_c, 1, 64, 96
3, 441856, Note_off_c, 1, 64, 0
3, 441856, Note_on_c, 1, 62, 96
3, 442368, Note_off_c, 1, 62, 0
3, 442368, Note_on_c, 1, 61, 96
3, 442880, Note_off_c, 1, 61, 0
3, 442880, Note_on_c, 1, 57, 96
3, 443392, Note_off_c, 1, 57, 0
3, 443392, Note_on_c, 1, 62, 96
3, 447488, Note_off_c, 1, 62, 0
3, 447488, Note_on_c, 1, 61, 96
3, 448512, Note_off_c, 1, 61, 0
3, 448512, Note_on_c, 1, 62, 96
3, 450048, Note_off_c, 1, 62, 0
3, 450048, Note_on_c, 1, 60, 96
3, 450560, Note_off_c, 1, 60, 0
3, 450560, Note_on_c, 1, 59, 96
3, 452096, Note_off_c, 1, 59, 0
3, 452096, Note_on_c, 1, 59, 96
3, 452608, Note_off_c, 1, 59, 0
3, 452608, Note_on_c, 1, 57, 96
3, 453120, Note_off_c, 1, 57, 0
3, 453120, Note_on_c, 1, 62, 96
3, 454144, Note_off_c, 1, 62, 0
3, 454144, Note_on_c, 1, 61, 96
3, 454656, Note_off_c, 1, 61, 0
3, 454656, Note_on_c, 1, 62, 96
3, 455680, Note_off_c, 1, 62, 0
3, 458240, Note_on_c, 1, 72, 96
3, 458752, Note_off_c, 1, 72, 0
3, 458752, Note_on_c, 1, 71, 96
3, 459264, Note_off_c, 1, 71, 0
3, 459264, Note_on_c, 1, 69, 96
3, 459776, Note_off_c, 1, 69, 0
3, 459776, Note_on_c, 1, 67, 96
3, 460288, Note_off_c, 1, 67, 0
3, 460288, Note_on_c, 1, 66, 96
3, 460800, Note_off_c, 1, 66, 0
3, 460800, Note_on_c, 1, 64, 96
3, 462336, Note_off_c, 1, 64, 0
3, 462336, Note_on_c, 1, 62, 96
3, 462848, Note_off_c, 1, 62, 0
3, 462848, Note_on_c, 1, 64, 96
3, 463360, Note_off_c, 1, 64, 0
3, 463360, Note_on_c, 1, 66, 96
3, 463872, Note_off_c, 1, 66, 0
3, 463872, Note_on_c, 1, 67, 96
3, 465408, Note_off_c, 1, 67, 0
3, 465408, Note_on_c, 1, 65, 96
3, 465920, Note_off_c, 1, 65, 0
3, 465920, Note_on_c, 1, 64, 96
3, 466432, Note_off_c, 1, 64, 0
3, 466432, Note_on_c, 1, 62, 96
3, 466944, Note_off_c, 1, 62, 0
3, 466944, Note_on_c, 1, 60, 96
3, 467456, Note_off_c, 1, 60, 0
3, 467456, Note_on_c, 1, 59, 96
3, 467968, Note_off_c, 1, 59, 0
3, 467968, Note_on_c, 1, 57, 96
3, 468480, Note_off_c, 1, 57, 0
3, 468480, Note_on_c, 1, 59, 96
3, 468992, Note_off_c, 1, 59, 0
3, 468992, Note_on_c, 1, 60, 96
3, 469504, Note_off_c, 1, 60, 0
3, 469504, Note_on_c, 1, 62, 96
3, 470016, Note_off_c, 1, 62, 0
3, 470016, Note_on_c, 1, 59, 96
3, 471040, Note_off_c, 1, 59, 0
3, 471040, Note_on_c, 1, 62, 96
3, 471136, Note_off_c, 1, 62, 0
3, 471136, Note_on_c, 1, 61, 96
3, 471232, Note_off_c, 1, 61, 0
3, 471232, Note_on_c, 1, 62, 96
3, 471328, Note_off_c, 1, 62, 0
3, 471328, Note_on_c, 1, 61, 96
3, 472576, Note_off_c, 1, 61, 0
3, 472576, Note_on_c, 1, 59, 96
3, 472832, Note_off_c, 1, 59, 0
3, 472832, Note_on_c, 1, 61, 96
3, 473088, Note_off_c, 1, 61, 0
3, 473088, Note_on_c, 1, 62, 96
3, 473600, Note_off_c, 1, 62, 0
3, 473600, Note_on_c, 1, 57, 96
3, 474112, Note_off_c, 1, 57, 0
3, 474112, Note_on_c, 1, 62, 96
3, 475136, Note_off_c, 1, 62, 0
3, 475136, Note_on_c, 1, 64, 96
3, 476160, Note_off_c, 1, 64, 0
3, 476160, Note_on_c, 1, 66, 96
3, 477696, Note_off_c, 1, 66, 0
3, 477696, Note_on_c, 1, 67, 96
3, 478208, Note_off_c, 1, 67, 0
3, 478208, Note_on_c, 1, 69, 96
3, 479744, Note_off_c, 1, 69, 0
3, 479744, Note_on_c, 1, 62, 96
3, 480256, Note_off_c, 1, 62, 0
3, 480256, Note_on_c, 1, 67, 96
3, 482816, Note_off_c, 1, 67, 0
3, 482816, Note_on_c, 1, 66, 96
3, 483328, Note_off_c, 1, 66, 0
3, 483328, Note_on_c, 1, 64, 96
3, 484864, Note_off_c, 1, 64, 0
3, 484864, Note_on_c, 1, 66, 96
3, 485376, Note_off_c, 1, 66, 0
3, 485376, Note_on_c, 1, 59, 96
3, 486400, Note_off_c, 1, 59, 0
3, 486400, Note_on_c, 1, 62, 96
3, 486464, Note_off_c, 1, 62, 0
3, 486464, Note_on_c, 1, 61, 96
3, 486528, Note_off_c, 1, 61, 0
3, 486528, Note_on_c, 1, 62, 96
3, 486592, Note_off_c, 1, 62, 0
3, 486592, Note_on_c, 1, 61, 96
3, 486688, Note_off_c, 1, 61, 0
3, 486688, Note_on_c, 1, 62, 96
3, 486784, Note_off_c, 1, 62, 0
3, 486784, Note_on_c, 1, 61, 96
3, 487936, Note_off_c, 1, 61, 0
3, 487936, Note_on_c, 1, 59, 96
3, 488192, Note_off_c, 1, 59, 0
3, 488192, Note_on_c, 1, 61, 96
3, 488448, Note_off_c, 1, 61, 0
3, 488448, Note_on_c, 1, 62, 96
3, 488960, Note_off_c, 1, 62, 0
3, 488960, Note_on_c, 1, 72, 96
3, 489472, Note_off_c, 1, 72, 0
3, 489472, Note_on_c, 1, 71, 96
3, 489984, Note_off_c, 1, 71, 0
3, 489984, Note_on_c, 1, 69, 96
3, 490496, Note_off_c, 1, 69, 0
3, 490496, Note_on_c, 1, 67, 96
3, 491008, Note_off_c, 1, 67, 0
3, 491008, Note_on_c, 1, 66, 96
3, 491520, Note_off_c, 1, 66, 0
3, 491520, Note_on_c, 1, 67, 96
3, 492032, Note_off_c, 1, 67, 0
3, 492032, Note_on_c, 1, 76, 96
3, 492544, Note_off_c, 1, 76, 0
3, 492544, Note_on_c, 1, 74, 96
3, 493056, Note_off_c, 1, 74, 0
3, 493056, Note_on_c, 1, 72, 96
3, 493568, Note_off_c, 1, 72, 0
3, 493568, Note_on_c, 1, 71, 96
3, 494080, Note_off_c, 1, 71, 0
3, 494080, Note_on_c, 1, 69, 96
3, 494592, Note_off_c, 1, 69, 0
3, 494592, Note_on_c, 1, 67, 96
3, 496128, Note_off_c, 1, 67, 0
3, 496128, Note_on_c, 1, 66, 96
3, 496640, Note_off_c, 1, 66, 0
3, 496640, Note_on_c, 1, 67, 96
3, 497152, Note_off_c, 1, 67, 0
3, 497152, Note_on_c, 1, 69, 96
3, 497664, Note_off_c, 1, 69, 0
3, 497664, Note_on_c, 1, 62, 96
3, 498176, Note_off_c, 1, 62, 0
3, 498176, Note_on_c, 1, 67, 96
3, 499200, Note_off_c, 1, 67, 0
3, 499200, Note_on_c, 1, 66, 96
3, 499712, Note_off_c, 1, 66, 0
3, 499712, Note_on_c, 1, 64, 96
3, 500224, Note_off_c, 1, 64, 0
3, 500224, Note_on_c, 1, 62, 96
3, 500736, Note_off_c, 1, 62, 0
3, 500736, Note_on_c, 1, 60, 96
3, 501248, Note_off_c, 1, 60, 0
3, 501248, Note_on_c, 1, 59, 96
3, 501760, Note_off_c, 1, 59, 0
3, 501760, Note_on_c, 1, 57, 96
3, 502272, Note_off_c, 1, 57, 0
3, 502272, Note_on_c, 1, 59, 96
3, 502784, Note_off_c, 1, 59, 0
3, 502784, Note_on_c, 1, 60, 96
3, 503296, Note_off_c, 1, 60, 0
3, 503296, Note_on_c, 1, 62, 96
3, 503808, Note_off_c, 1, 62, 0
3, 503808, Note_on_c, 1, 59, 96
3, 504320, Note_off_c, 1, 59, 0
3, 504320, Note_on_c, 1, 60, 96
3, 504832, Note_off_c, 1, 60, 0
3, 504832, Note_on_c, 1, 62, 96
3, 505344, Note_off_c, 1, 62, 0
3, 505344, Note_on_c, 1, 67, 96
3, 506368, Note_off_c, 1, 67, 0
3, 506368, Note_on_c, 1, 66, 96
3, 506880, Note_off_c, 1, 66, 0
3, 506880, Note_on_c, 1, 67, 96
3, 507904, Note_off_c, 1, 67, 0
3, 507904, Note_on_c, 1, 66, 96
3, 509952, Note_off_c, 1, 66, 0
3, 509952, Note_on_c, 1, 67, 96
3, 511488, Note_off_c, 1, 67, 0
3, 511488, Note_on_c, 1, 65, 96
3, 512000, Note_off_c, 1, 65, 0
3, 512000, Note_on_c, 1, 64, 96
3, 513024, Note_off_c, 1, 64, 0
3, 513024, Note_on_c, 1, 62, 96
3, 514048, Note_off_c, 1, 62, 0
3, 514048, Note_on_c, 1, 60, 96
3, 515584, Note_off_c, 1, 60, 0
3, 515584, Note_on_c, 1, 62, 96
3, 516096, Note_off_c, 1, 62, 0
3, 516096, Note_on_c, 1, 64, 96
3, 516608, Note_off_c, 1, 64, 0
3, 516608, Note_on_c, 1, 62, 96
3, 517120, Note_off_c, 1, 62, 0
3, 517120, Note_on_c, 1, 60, 96
3, 517632, Note_off_c, 1, 60, 0
3, 517632, Note_on_c, 1, 59, 96
3, 518144, Note_off_c, 1, 59, 0
3, 518144, Note_on_c, 1, 60, 96
3, 518656, Note_off_c, 1, 60, 0
3, 518656, Note_on_c, 1, 62, 96
3, 519168, Note_off_c, 1, 62, 0
3, 519168, Note_on_c, 1, 59, 96
3, 519680, Note_off_c, 1, 59, 0
3, 519680, Note_on_c, 1, 60, 96
3, 520192, Note_off_c, 1, 60, 0
3, 520192, Note_on_c, 1, 62, 96
3, 522752, Note_off_c, 1, 62, 0
3, 522752, Note_on_c, 1, 55, 96
3, 523264, Note_off_c, 1, 55, 0
3, 523264, Note_on_c, 1, 60, 96
3, 525312, Note_off_c, 1, 60, 0
3, 525312, Note_on_c, 1, 59, 96
3, 526336, Note_off_c, 1, 59, 0
3, 528896, Note_on_c, 1, 62, 96
3, 529408, Note_off_c, 1, 62, 0
3, 529408, Note_on_c, 1, 64, 96
3, 529920, Note_off_c, 1, 64, 0
3, 529920, Note_on_c, 1, 62, 96
3, 530432, Note_off_c, 1, 62, 0
3, 530432, Note_on_c, 1, 60, 96
3, 530944, Note_off_c, 1, 60, 0
3, 530944, Note_on_c, 1, 59, 96
3, 531456, Note_off_c, 1, 59, 0
3, 531456, Note_on_c, 1, 60, 96
3, 531968, Note_off_c, 1, 60, 0
3, 531968, Note_on_c, 1, 64, 96
3, 532480, Note_off_c, 1, 64, 0
3, 532480, Note_on_c, 1, 62, 96
3, 532992, Note_off_c, 1, 62, 0
3, 532992, Note_on_c, 1, 60, 96
3, 533504, Note_off_c, 1, 60, 0
3, 533504, Note_on_c, 1, 59, 96
3, 534016, Note_off_c, 1, 59, 0
3, 534016, Note_on_c, 1, 57, 96
3, 534528, Note_off_c, 1, 57, 0
3, 534528, Note_on_c, 1, 59, 96
3, 535040, Note_off_c, 1, 59, 0
3, 535040, Note_on_c, 1, 57, 96
3, 535552, Note_off_c, 1, 57, 0
3, 535552, Note_on_c, 1, 59, 96
3, 536064, Note_off_c, 1, 59, 0
3, 536064, Note_on_c, 1, 61, 96
3, 536576, Note_off_c, 1, 61, 0
3, 536576, Note_on_c, 1, 62, 96
3, 537088, Note_off_c, 1, 62, 0
3, 537088, Note_on_c, 1, 64, 96
3, 537600, Note_off_c, 1, 64, 0
3, 537600, Note_on_c, 1, 61, 96
3, 538112, Note_off_c, 1, 61, 0
3, 538112, Note_on_c, 1, 64, 96
3, 538624, Note_off_c, 1, 64, 0
3, 538624, Note_on_c, 1, 66, 96
3, 539136, Note_off_c, 1, 66, 0
3, 539136, Note_on_c, 1, 64, 96
3, 539648, Note_off_c, 1, 64, 0
3, 539648, Note_on_c, 1, 62, 96
3, 540160, Note_off_c, 1, 62, 0
3, 540160, Note_on_c, 1, 61, 96
3, 540672, Note_off_c, 1, 61, 0
3, 540672, Note_on_c, 1, 59, 96
3, 542720, Note_off_c, 1, 59, 0
3, 542720, Note_on_c, 1, 64, 96
3, 543744, Note_off_c, 1, 64, 0
3, 543744, Note_on_c, 1, 59, 96
3, 544768, Note_off_c, 1, 59, 0
3, 544768, Note_on_c, 1, 62, 96
3, 544864, Note_off_c, 1, 62, 0
3, 544864, Note_on_c, 1, 61, 96
3, 544960, Note_off_c, 1, 61, 0
3, 544960, Note_on_c, 1, 62, 96
3, 545056, Note_off_c, 1, 62, 0
3, 545056, Note_on_c, 1, 61, 96
3, 546304, Note_off_c, 1, 61, 0
3, 546304, Note_on_c, 1, 59, 96
3, 546560, Note_off_c, 1, 59, 0
3, 546560, Note_on_c, 1, 61, 96
3, 546816, Note_off_c, 1, 61, 0
3, 546816, Note_on_c, 1, 62, 96
3, 547328, Note_off_c, 1, 62, 0
3, 547328, Note_on_c, 1, 66, 96
3, 547840, Note_off_c, 1, 66, 0
3, 547840, Note_on_c, 1, 64, 96
3, 548352, Note_off_c, 1, 64, 0
3, 548352, Note_on_c, 1, 62, 96
3, 548864, Note_off_c, 1, 62, 0
3, 548864, Note_on_c, 1, 61, 96
3, 549376, Note_off_c, 1, 61, 0
3, 549376, Note_on_c, 1, 59, 96
3, 549888, Note_off_c, 1, 59, 0
3, 549888, Note_on_c, 1, 61, 96
3, 550400, Note_off_c, 1, 61, 0
3, 550400, Note_on_c, 1, 57, 96
3, 550912, Note_off_c, 1, 57, 0
3, 550912, Note_on_c, 1, 62, 96
3, 551936, Note_off_c, 1, 62, 0
3, 551936, Note_on_c, 1, 64, 96
3, 552448, Note_off_c, 1, 64, 0
3, 552448, Note_on_c, 1, 66, 96
3, 552960, Note_off_c, 1, 66, 0
3, 552960, Note_on_c, 1, 67, 96
3, 553472, Note_off_c, 1, 67, 0
3, 553472, Note_on_c, 1, 71, 96
3, 553984, Note_off_c, 1, 71, 0
3, 553984, Note_on_c, 1, 76, 96
3, 554496, Note_off_c, 1, 76, 0
3, 554496, Note_on_c, 1, 74, 96
3, 555008, Note_off_c, 1, 74, 0
3, 555008, Note_on_c, 1, 73, 96
3, 555520, Note_off_c, 1, 73, 0
3, 555520, Note_on_c, 1, 71, 96
3, 556032, Note_off_c, 1, 71, 0
3, 556032, Note_on_c, 1, 72, 96
3, 556544, Note_off_c, 1, 72, 0
3, 556544, Note_on_c, 1, 76, 96
3, 557056, Note_off_c, 1, 76, 0
3, 557056, Note_on_c, 1, 74, 96
3, 557568, Note_off_c, 1, 74, 0
3, 557568, Note_on_c, 1, 72, 96
3, 558080, Note_off_c, 1, 72, 0
3, 558080, Note_on_c, 1, 71, 96
3, 558592, Note_off_c, 1, 71, 0
3, 558592, Note_on_c, 1, 69, 96
3, 559104, Note_off_c, 1, 69, 0
3, 559104, Note_on_c, 1, 71, 96
3, 560640, Note_off_c, 1, 71, 0
3, 560640, Note_on_c, 1, 71, 96
3, 561152, Note_off_c, 1, 71, 0
3, 561152, Note_on_c, 1, 73, 96
3, 561664, Note_off_c, 1, 73, 0
3, 561664, Note_on_c, 1, 74, 96
3, 562176, Note_off_c, 1, 74, 0
3, 562176, Note_on_c, 1, 76, 96
3, 562688, Note_off_c, 1, 76, 0
3, 562688, Note_on_c, 1, 64, 96
3, 563200, Note_off_c, 1, 64, 0
3, 563200, Note_on_c, 1, 69, 96
3, 563712, Note_off_c, 1, 69, 0
3, 563712, Note_on_c, 1, 67, 96
3, 564224, Note_off_c, 1, 67, 0
3, 564224, Note_on_c, 1, 66, 96
3, 564736, Note_off_c, 1, 66, 0
3, 564736, Note_on_c, 1, 64, 96
3, 565248, Note_off_c, 1, 64, 0
3, 565248, Note_on_c, 1, 62, 96
3, 569344, Note_off_c, 1, 62, 0
3, 569344, Note_on_c, 1, 60, 96
3, 569856, Note_off_c, 1, 60, 0
3, 569856, Note_on_c, 1, 59, 96
3, 570368, Note_off_c, 1, 59, 0
3, 570368, Note_on_c, 1, 60, 96
3, 570880, Note_off_c, 1, 60, 0
3, 570880, Note_on_c, 1, 62, 96
3, 571392, Note_off_c, 1, 62, 0
3, 571392, Note_on_c, 1, 60, 96
3, 571904, Note_off_c, 1, 60, 0
3, 571904, Note_on_c, 1, 61, 96
3, 572416, Note_off_c, 1, 61, 0
3, 572416, Note_on_c, 1, 62, 96
3, 572928, Note_off_c, 1, 62, 0
3, 572928, Note_on_c, 1, 64, 96
3, 573440, Note_off_c, 1, 64, 0
3, 573440, Note_on_c, 1, 62, 96
3, 573952, Note_off_c, 1, 62, 0
3, 573952, Note_on_c, 1, 60, 96
3, 574464, Note_off_c, 1, 60, 0
3, 574464, Note_on_c, 1, 62, 96
3, 575488, Note_off_c, 1, 62, 0
3, 575744, Note_on_c, 1, 74, 96
3, 576000, Note_off_c, 1, 74, 0
3, 576000, Note_on_c, 1, 76, 96
3, 576256, Note_off_c, 1, 76, 0
3, 576256, Note_on_c, 1, 78, 96
3, 576512, Note_off_c, 1, 78, 0
3, 576512, Note_on_c, 1, 79, 96
3, 578560, Note_off_c, 1, 79, 0
3, 578816, Note_on_c, 1, 67, 96
3, 579072, Note_off_c, 1, 67, 0
3, 579072, Note_on_c, 1, 69, 96
3, 579328, Note_off_c, 1, 69, 0
3, 579328, Note_on_c, 1, 71, 96
3, 579584, Note_off_c, 1, 71, 0
3, 579584, Note_on_c, 1, 72, 96
3, 580608, Note_off_c, 1, 72, 0
3, 580608, Note_on_c, 1, 69, 96
3, 581632, Note_off_c, 1, 69, 0
3, 581888, Note_on_c, 1, 57, 96
3, 582144, Note_off_c, 1, 57, 0
3, 582144, Note_on_c, 1, 59, 96
3, 582400, Note_off_c, 1, 59, 0
3, 582400, Note_on_c, 1, 60, 96
3, 582656, Note_off_c, 1, 60, 0
3, 582656, Note_on_c, 1, 62, 96
3, 584704, Note_off_c, 1, 62, 0
3, 584960, Note_on_c, 1, 62, 96
3, 585216, Note_off_c, 1, 62, 0
3, 585216, Note_on_c, 1, 64, 96
3, 585472, Note_off_c, 1, 64, 0
3, 585472, Note_on_c, 1, 66, 96
3, 585728, Note_off_c, 1, 66, 0
3, 585728, Note_on_c, 1, 67, 96
3, 587776, Note_off_c, 1, 67, 0
3, 588032, Note_on_c, 1, 67, 96
3, 588288, Note_off_c, 1, 67, 0
3, 588288, Note_on_c, 1, 69, 96
3, 588544, Note_off_c, 1, 69, 0
3, 588544, Note_on_c, 1, 71, 96
3, 588800, Note_off_c, 1, 71, 0
3, 588800, Note_on_c, 1, 72, 96
3, 589824, Note_off_c, 1, 72, 0
3, 589824, Note_on_c, 1, 69, 96
3, 590848, Note_off_c, 1, 69, 0
3, 591104, Note_on_c, 1, 69, 96
3, 591360, Note_off_c, 1, 69, 0
3, 591360, Note_on_c, 1, 71, 96
3, 591616, Note_off_c, 1, 71, 0
3, 591616, Note_on_c, 1, 72, 96
3, 591872, Note_off_c, 1, 72, 0
3, 591872, Note_on_c, 1, 74, 96
3, 593920, Note_off_c, 1, 74, 0
3, 594176, Note_on_c, 1, 74, 96
3, 594432, Note_off_c, 1, 74, 0
3, 594432, Note_on_c, 1, 76, 96
3, 594688, Note_off_c, 1, 76, 0
3, 594688, Note_on_c, 1, 78, 96
3, 594944, Note_off_c, 1, 78, 0
3, 594944, Note_on_c, 1, 79, 96
3, 596224, Note_off_c, 1, 79, 0
3, 596224, Note_on_c, 1, 79, 96
3, 596480, Note_off_c, 1, 79, 0
3, 596480, Note_on_c, 1, 78, 96
3, 596736, Note_off_c, 1, 78, 0
3, 596736, Note_on_c, 1, 76, 96
3, 596992, Note_off_c, 1, 76, 0
3, 596992, Note_on_c, 1, 78, 96
3, 599296, Note_off_c, 1, 78, 0
3, 599296, Note_on_c, 1, 69, 96
3, 599552, Note_off_c, 1, 69, 0
3, 599552, Note_on_c, 1, 71, 96
3, 599808, Note_off_c, 1, 71, 0
3, 599808, Note_on_c, 1, 72, 96
3, 600064, Note_off_c, 1, 72, 0
3, 600064, Note_on_c, 1, 74, 96
3, 601600, Note_off_c, 1, 74, 0
3, 601600, Note_on_c, 1, 66, 96
3, 602112, Note_off_c, 1, 66, 0
3, 602112, Note_on_c, 1, 67, 96
3, 604160, Note_off_c, 1, 67, 0
3, 604160, Note_on_c, 1, 66, 96
3, 605184, Note_off_c, 1, 66, 0
3, 605440, Note_on_c, 1, 62, 96
3, 605696, Note_off_c, 1, 62, 0
3, 605696, Note_on_c, 1, 64, 96
3, 605952, Note_off_c, 1, 64, 0
3, 605952, Note_on_c, 1, 66, 96
3, 606208, Note_off_c, 1, 66, 0
3, 606208, Note_on_c, 1, 67, 96
3, 607488, Note_off_c, 1, 67, 0
3, 607488, Note_on_c, 1, 65, 96
3, 607744, Note_off_c, 1, 65, 0
3, 607744, Note_on_c, 1, 64, 96
3, 608000, Note_off_c, 1, 64, 0
3, 608000, Note_on_c, 1, 62, 96
3, 608256, Note_off_c, 1, 62, 0
3, 608256, Note_on_c, 1, 64, 96
3, 608512, Note_off_c, 1, 64, 0
3, 608512, Note_on_c, 1, 67, 96
3, 608768, Note_off_c, 1, 67, 0
3, 608768, Note_on_c, 1, 69, 96
3, 609024, Note_off_c, 1, 69, 0
3, 609024, Note_on_c, 1, 71, 96
3, 609280, Note_off_c, 1, 71, 0
3, 609280, Note_on_c, 1, 72, 96
3, 610560, Note_off_c, 1, 72, 0
3, 610560, Note_on_c, 1, 72, 96
3, 610816, Note_off_c, 1, 72, 0
3, 610816, Note_on_c, 1, 71, 96
3, 611072, Note_off_c, 1, 71, 0
3, 611072, Note_on_c, 1, 69, 96
3, 611328, Note_off_c, 1, 69, 0
3, 611328, Note_on_c, 1, 71, 96
3, 615424, Note_off_c, 1, 71, 0
3, 615424, End_track
4, 0, Start_track
4, 0, Title_t, "Instrument 3"
4, 2048, Note_on_c, 2, 62, 96
4, 3072, Note_off_c, 2, 62, 0
4, 3072, Note_on_c, 2, 64, 96
4, 4096, Note_off_c, 2, 64, 0
4, 4096, Note_on_c, 2, 64, 96
4, 4224, Note_off_c, 2, 64, 0
4, 4224, Note_on_c, 2, 62, 96
4, 4352, Note_off_c, 2, 62, 0
4, 4352, Note_on_c, 2, 60, 96
4, 4416, Note_off_c, 2, 60, 0
4, 4416, Note_on_c, 2, 62, 96
4, 4480, Note_off_c, 2, 62, 0
4, 4480, Note_on_c, 2, 64, 96
4, 4544, Note_off_c, 2, 64, 0
4, 4544, Note_on_c, 2, 62, 96
4, 5632, Note_off_c, 2, 62, 0
4, 5632, Note_on_c, 2, 60, 96
4, 6144, Note_off_c, 2, 60, 0
4, 6144, Note_on_c, 2, 60, 96
4, 6272, Note_off_c, 2, 60, 0
4, 6272, Note_on_c, 2, 59, 96
4, 6400, Note_off_c, 2, 59, 0
4, 6400, Note_on_c, 2, 57, 96
4, 6464, Note_off_c, 2, 57, 0
4, 6464, Note_on_c, 2, 59, 96
4, 6528, Note_off_c, 2, 59, 0
4, 6528, Note_on_c, 2, 60, 96
4, 6592, Note_off_c, 2, 60, 0
4, 6592, Note_on_c, 2, 59, 96
4, 7680, Note_off_c, 2, 59, 0
4, 7680, Note_on_c, 2, 60, 96
4, 8192, Note_off_c, 2, 60, 0
4, 8192, Note_on_c, 2, 62, 96
4, 9216, Note_off_c, 2, 62, 0
4, 9216, Note_on_c, 2, 57, 96
4, 12288, Note_off_c, 2, 57, 0
4, 12288, Note_on_c, 2, 59, 96
4, 13056, Note_off_c, 2, 59, 0
4, 13056, Note_on_c, 2, 61, 96
4, 13312, Note_off_c, 2, 61, 0
4, 13312, Note_on_c, 2, 62, 96
4, 13376, Note_off_c, 2, 62, 0
4, 13376, Note_on_c, 2, 61, 96
4, 13440, Note_off_c, 2, 61, 0
4, 13440, Note_on_c, 2, 62, 96
4, 13504, Note_off_c, 2, 62, 0
4, 13504, Note_on_c, 2, 61, 96
4, 14848, Note_off_c, 2, 61, 0
4, 14848, Note_on_c, 2, 59, 96
4, 15104, Note_off_c, 2, 59, 0
4, 15104, Note_on_c, 2, 61, 96
4, 15360, Note_off_c, 2, 61, 0
4, 15360, Note_on_c, 2, 62, 96
4, 15872, Note_off_c, 2, 62, 0
4, 15872, Note_on_c, 2, 57, 96
4, 16384, Note_off_c, 2, 57, 0
4, 16384, Note_on_c, 2, 62, 96
4, 16896, Note_off_c, 2, 62, 0
4, 16896, Note_on_c, 2, 60, 96
4, 17408, Note_off_c, 2, 60, 0
4, 17408, Note_on_c, 2, 59, 96
4, 17920, Note_off_c, 2, 59, 0
4, 17920, Note_on_c, 2, 57, 96
4, 18432, Note_off_c, 2, 57, 0
4, 18432, Note_on_c, 2, 55, 96
4, 19968, Note_off_c, 2, 55, 0
4, 19968, Note_on_c, 2, 54, 96
4, 20480, Note_off_c, 2, 54, 0
4, 20480, Note_on_c, 2, 52, 96
4, 21504, Note_off_c, 2, 52, 0
4, 21504, Note_on_c, 2, 50, 96
4, 22528, Note_off_c, 2, 50, 0
4, 22528, Note_on_c, 2, 62, 96
4, 24064, Note_off_c, 2, 62, 0
4, 24064, Note_on_c, 2, 60, 96
4, 24576, Note_off_c, 2, 60, 0
4, 24576, Note_on_c, 2, 59, 96
4, 25088, Note_off_c, 2, 59, 0
4, 25088, Note_on_c, 2, 57, 96
4, 25600, Note_off_c, 2, 57, 0
4, 25600, Note_on_c, 2, 59, 96
4, 26112, Note_off_c, 2, 59, 0
4, 26112, Note_on_c, 2, 60, 96
4, 26624, Note_off_c, 2, 60, 0
4, 26624, Note_on_c, 2, 59, 96
4, 27136, Note_off_c, 2, 59, 0
4, 27136, Note_on_c, 2, 57, 96
4, 27648, Note_off_c, 2, 57, 0
4, 27648, Note_on_c, 2, 55, 96
4, 28160, Note_off_c, 2, 55, 0
4, 28160, Note_on_c, 2, 60, 96
4, 29184, Note_off_c, 2, 60, 0
4, 29184, Note_on_c, 2, 57, 96
4, 29696, Note_off_c, 2, 57, 0
4, 29696, Note_on_c, 2, 62, 96
4, 31232, Note_off_c, 2, 62, 0
4, 31232, Note_on_c, 2, 60, 96
4, 31744, Note_off_c, 2, 60, 0
4, 31744, Note_on_c, 2, 59, 96
4, 32256, Note_off_c, 2, 59, 0
4, 32256, Note_on_c, 2, 57, 96
4, 32768, Note_off_c, 2, 57, 0
4, 32768, Note_on_c, 2, 55, 96
4, 33280, Note_off_c, 2, 55, 0
4, 33280, Note_on_c, 2, 57, 96
4, 33792, Note_off_c, 2, 57, 0
4, 33792, Note_on_c, 2, 59, 96
4, 34304, Note_off_c, 2, 59, 0
4, 34304, Note_on_c, 2, 60, 96
4, 34816, Note_off_c, 2, 60, 0
4, 34816, Note_on_c, 2, 62, 96
4, 35328, Note_off_c, 2, 62, 0
4, 35328, Note_on_c, 2, 64, 96
4, 35840, Note_off_c, 2, 64, 0
4, 35840, Note_on_c, 2, 66, 96
4, 36352, Note_off_c, 2, 66, 0
4, 36352, Note_on_c, 2, 67, 96
4, 36864, Note_off_c, 2, 67, 0
4, 36864, Note_on_c, 2, 64, 96
4, 38400, Note_off_c, 2, 64, 0
4, 38400, Note_on_c, 2, 62, 96
4, 38912, Note_off_c, 2, 62, 0
4, 38912, Note_on_c, 2, 61, 96
4, 39936, Note_off_c, 2, 61, 0
4, 40448, Note_on_c, 2, 62, 96
4, 40960, Note_off_c, 2, 62, 0
4, 40960, Note_on_c, 2, 64, 96
4, 41984, Note_off_c, 2, 64, 0
4, 41984, Note_on_c, 2, 57, 96
4, 44544, Note_off_c, 2, 57, 0
4, 44544, Note_on_c, 2, 57, 96
4, 45056, Note_off_c, 2, 57, 0
4, 45056, Note_on_c, 2, 59, 96
4, 45568, Note_off_c, 2, 59, 0
4, 45568, Note_on_c, 2, 60, 96
4, 46080, Note_off_c, 2, 60, 0
4, 46080, Note_on_c, 2, 62, 96
4, 46592, Note_off_c, 2, 62, 0
4, 46592, Note_on_c, 2, 60, 96
4, 47104, Note_off_c, 2, 60, 0
4, 47104, Note_on_c, 2, 59, 96
4, 49152, Note_off_c, 2, 59, 0
4, 49152, Note_on_c, 2, 60, 96
4, 49664, Note_off_c, 2, 60, 0
4, 49664, Note_on_c, 2, 59, 96
4, 50176, Note_off_c, 2, 59, 0
4, 50176, Note_on_c, 2, 57, 96
4, 50688, Note_off_c, 2, 57, 0
4, 50688, Note_on_c, 2, 59, 96
4, 51200, Note_off_c, 2, 59, 0
4, 51200, Note_on_c, 2, 60, 96
4, 52224, Note_off_c, 2, 60, 0
4, 52224, Note_on_c, 2, 62, 96
4, 52736, Note_off_c, 2, 62, 0
4, 52736, Note_on_c, 2, 64, 96
4, 53248, Note_off_c, 2, 64, 0
4, 53248, Note_on_c, 2, 62, 96
4, 53760, Note_off_c, 2, 62, 0
4, 53760, Note_on_c, 2, 60, 96
4, 54272, Note_off_c, 2, 60, 0
4, 54272, Note_on_c, 2, 59, 96
4, 55296, Note_off_c, 2, 59, 0
4, 55296, Note_on_c, 2, 61, 96
4, 55808, Note_off_c, 2, 61, 0
4, 55808, Note_on_c, 2, 57, 96
4, 56320, Note_off_c, 2, 57, 0
4, 56320, Note_on_c, 2, 62, 96
4, 56832, Note_off_c, 2, 62, 0
4, 56832, Note_on_c, 2, 64, 96
4, 57344, Note_off_c, 2, 64, 0
4, 57344, Note_on_c, 2, 62, 96
4, 57856, Note_off_c, 2, 62, 0
4, 57856, Note_on_c, 2, 60, 96
4, 58368, Note_off_c, 2, 60, 0
4, 58368, Note_on_c, 2, 59, 96
4, 59392, Note_off_c, 2, 59, 0
4, 59392, Note_on_c, 2, 64, 96
4, 61440, Note_off_c, 2, 64, 0
4, 61440, Note_on_c, 2, 62, 96
4, 62464, Note_off_c, 2, 62, 0
4, 62464, Note_on_c, 2, 64, 96
4, 62976, Note_off_c, 2, 64, 0
4, 62976, Note_on_c, 2, 66, 96
4, 63488, Note_off_c, 2, 66, 0
4, 63488, Note_on_c, 2, 67, 96
4, 64512, Note_off_c, 2, 67, 0
4, 64512, Note_on_c, 2, 69, 96
4, 65024, Note_off_c, 2, 69, 0
4, 65024, Note_on_c, 2, 67, 96
4, 65536, Note_off_c, 2, 67, 0
4, 65536, Note_on_c, 2, 66, 96
4, 67072, Note_off_c, 2, 66, 0
4, 67072, Note_on_c, 2, 64, 96
4, 67584, Note_off_c, 2, 64, 0
4, 67584, Note_on_c, 2, 66, 96
4, 68608, Note_off_c, 2, 66, 0
4, 69120, Note_on_c, 2, 62, 96
4, 69632, Note_off_c, 2, 62, 0
4, 69632, Note_on_c, 2, 67, 96
4, 70144, Note_off_c, 2, 67, 0
4, 70144, Note_on_c, 2, 66, 96
4, 71168, Note_off_c, 2, 66, 0
4, 71168, Note_on_c, 2, 64, 96
4, 72192, Note_off_c, 2, 64, 0
4, 72192, Note_on_c, 2, 64, 96
4, 72704, Note_off_c, 2, 64, 0
4, 72704, Note_on_c, 2, 62, 96
4, 73216, Note_off_c, 2, 62, 0
4, 73216, Note_on_c, 2, 60, 96
4, 73728, Note_off_c, 2, 60, 0
4, 73728, Note_on_c, 2, 59, 96
4, 75264, Note_off_c, 2, 59, 0
4, 75264, Note_on_c, 2, 60, 96
4, 75776, Note_off_c, 2, 60, 0
4, 75776, Note_on_c, 2, 62, 96
4, 77312, Note_off_c, 2, 62, 0
4, 77312, Note_on_c, 2, 55, 96
4, 77824, Note_off_c, 2, 55, 0
4, 77824, Note_on_c, 2, 60, 96
4, 78336, Note_off_c, 2, 60, 0
4, 78336, Note_on_c, 2, 64, 96
4, 78848, Note_off_c, 2, 64, 0
4, 78848, Note_on_c, 2, 62, 96
4, 79360, Note_off_c, 2, 62, 0
4, 79360, Note_on_c, 2, 60, 96
4, 79872, Note_off_c, 2, 60, 0
4, 79872, Note_on_c, 2, 62, 96
4, 80896, Note_off_c, 2, 62, 0
4, 80896, Note_on_c, 2, 64, 96
4, 81920, Note_off_c, 2, 64, 0
4, 81920, Note_on_c, 2, 62, 96
4, 82944, Note_off_c, 2, 62, 0
4, 82944, Note_on_c, 2, 57, 96
4, 84480, Note_off_c, 2, 57, 0
4, 84480, Note_on_c, 2, 59, 96
4, 84992, Note_off_c, 2, 59, 0
4, 84992, Note_on_c, 2, 60, 96
4, 86016, Note_off_c, 2, 60, 0
4, 86016, Note_on_c, 2, 59, 96
4, 87040, Note_off_c, 2, 59, 0
4, 87040, Note_on_c, 2, 59, 96
4, 87104, Note_off_c, 2, 59, 0
4, 87104, Note_on_c, 2, 57, 96
4, 87168, Note_off_c, 2, 57, 0
4, 87168, Note_on_c, 2, 59, 96
4, 87360, Note_off_c, 2, 59, 0
4, 87360, Note_on_c, 2, 57, 96
4, 88576, Note_off_c, 2, 57, 0
4, 88576, Note_on_c, 2, 55, 96
4, 88832, Note_off_c, 2, 55, 0
4, 88832, Note_on_c, 2, 57, 96
4, 89088, Note_off_c, 2, 57, 0
4, 89088, Note_on_c, 2, 55, 96
4, 89600, Note_off_c, 2, 55, 0
4, 89600, Note_on_c, 2, 62, 96
4, 90112, Note_off_c, 2, 62, 0
4, 90112, Note_on_c, 2, 60, 96
4, 90624, Note_off_c, 2, 60, 0
4, 90624, Note_on_c, 2, 59, 96
4, 91136, Note_off_c, 2, 59, 0
4, 91136, Note_on_c, 2, 60, 96
4, 91648, Note_off_c, 2, 60, 0
4, 91648, Note_on_c, 2, 62, 96
4, 92160, Note_off_c, 2, 62, 0
4, 92160, Note_on_c, 2, 59, 96
4, 92672, Note_off_c, 2, 59, 0
4, 92672, Note_on_c, 2, 57, 96
4, 93184, Note_off_c, 2, 57, 0
4, 93184, Note_on_c, 2, 55, 96
4, 93696, Note_off_c, 2, 55, 0
4, 93696, Note_on_c, 2, 54, 96
4, 94208, Note_off_c, 2, 54, 0
4, 94208, Note_on_c, 2, 52, 96
4, 94720, Note_off_c, 2, 52, 0
4, 94720, Note_on_c, 2, 50, 96
4, 95232, Note_off_c, 2, 50, 0
4, 95232, Note_on_c, 2, 49, 96
4, 95744, Note_off_c, 2, 49, 0
4, 95744, Note_on_c, 2, 52, 96
4, 96256, Note_off_c, 2, 52, 0
4, 96256, Note_on_c, 2, 50, 96
4, 96768, Note_off_c, 2, 50, 0
4, 96768, Note_on_c, 2, 49, 96
4, 97280, Note_off_c, 2, 49, 0
4, 97280, Note_on_c, 2, 47, 96
4, 97792, Note_off_c, 2, 47, 0
4, 97792, Note_on_c, 2, 49, 96
4, 98304, Note_off_c, 2, 49, 0
4, 98304, Note_on_c, 2, 50, 96
4, 98816, Note_off_c, 2, 50, 0
4, 98816, Note_on_c, 2, 57, 96
4, 99328, Note_off_c, 2, 57, 0
4, 99328, Note_on_c, 2, 55, 96
4, 99840, Note_off_c, 2, 55, 0
4, 99840, Note_on_c, 2, 54, 96
4, 100352, Note_off_c, 2, 54, 0
4, 100352, Note_on_c, 2, 55, 96
4, 100864, Note_off_c, 2, 55, 0
4, 100864, Note_on_c, 2, 57, 96
4, 101376, Note_off_c, 2, 57, 0
4, 101376, Note_on_c, 2, 59, 96
4, 101888, Note_off_c, 2, 59, 0
4, 101888, Note_on_c, 2, 57, 96
4, 102400, Note_off_c, 2, 57, 0
4, 102400, Note_on_c, 2, 55, 96
4, 102912, Note_off_c, 2, 55, 0
4, 102912, Note_on_c, 2, 54, 96
4, 103424, Note_off_c, 2, 54, 0
4, 103424, Note_on_c, 2, 56, 96
4, 104448, Note_off_c, 2, 56, 0
4, 104960, Note_on_c, 2, 57, 96
4, 105472, Note_off_c, 2, 57, 0
4, 105472, Note_on_c, 2, 55, 96
4, 105984, Note_off_c, 2, 55, 0
4, 105984, Note_on_c, 2, 54, 96
4, 106496, Note_off_c, 2, 54, 0
4, 106496, Note_on_c, 2, 52, 96
4, 107008, Note_off_c, 2, 52, 0
4, 107008, Note_on_c, 2, 54, 96
4, 107520, Note_off_c, 2, 54, 0
4, 107520, Note_on_c, 2, 55, 96
4, 108544, Note_off_c, 2, 55, 0
4, 108544, Note_on_c, 2, 60, 96
4, 109056, Note_off_c, 2, 60, 0
4, 109056, Note_on_c, 2, 59, 96
4, 109568, Note_off_c, 2, 59, 0
4, 109568, Note_on_c, 2, 60, 96
4, 110080, Note_off_c, 2, 60, 0
4, 110080, Note_on_c, 2, 57, 96
4, 110592, Note_off_c, 2, 57, 0
4, 110592, Note_on_c, 2, 59, 96
4, 111616, Note_off_c, 2, 59, 0
4, 111616, Note_on_c, 2, 60, 96
4, 112640, Note_off_c, 2, 60, 0
4, 112640, Note_on_c, 2, 62, 96
4, 115712, Note_off_c, 2, 62, 0
4, 115712, Note_on_c, 2, 64, 96
4, 116736, Note_off_c, 2, 64, 0
4, 116736, Note_on_c, 2, 62, 96
4, 117760, Note_off_c, 2, 62, 0
4, 117760, Note_on_c, 2, 64, 96
4, 118784, Note_off_c, 2, 64, 0
4, 118784, Note_on_c, 2, 57, 96
4, 119808, Note_off_c, 2, 57, 0
4, 119808, Note_on_c, 2, 59, 96
4, 120320, Note_off_c, 2, 59, 0
4, 120320, Note_on_c, 2, 60, 96
4, 120832, Note_off_c, 2, 60, 0
4, 120832, Note_on_c, 2, 62, 96
4, 122368, Note_off_c, 2, 62, 0
4, 122368, Note_on_c, 2, 55, 96
4, 122880, Note_off_c, 2, 55, 0
4, 122880, Note_on_c, 2, 60, 96
4, 124416, Note_off_c, 2, 60, 0
4, 124416, Note_on_c, 2, 60, 96
4, 124928, Note_off_c, 2, 60, 0
4, 124928, Note_on_c, 2, 59, 96
4, 126464, Note_off_c, 2, 59, 0
4, 126464, Note_on_c, 2, 57, 96
4, 126720, Note_off_c, 2, 57, 0
4, 126720, Note_on_c, 2, 55, 96
4, 126976, Note_off_c, 2, 55, 0
4, 126976, Note_on_c, 2, 54, 96
4, 129024, Note_off_c, 2, 54, 0
4, 129024, Note_on_c, 2, 55, 96
4, 131072, Note_off_c, 2, 55, 0
4, 131584, Note_on_c, 2, 55, 96
4, 132096, Note_off_c, 2, 55, 0
4, 132096, Note_on_c, 2, 57, 96
4, 133632, Note_off_c, 2, 57, 0
4, 133632, Note_on_c, 2, 59, 96
4, 134144, Note_off_c, 2, 59, 0
4, 134144, Note_on_c, 2, 60, 96
4, 135168, Note_off_c, 2, 60, 0
4, 135168, Note_on_c, 2, 59, 96
4, 136192, Note_off_c, 2, 59, 0
4, 136192, Note_on_c, 2, 62, 96
4, 138240, Note_off_c, 2, 62, 0
4, 138240, Note_on_c, 2, 57, 96
4, 139776, Note_off_c, 2, 57, 0
4, 139776, Note_on_c, 2, 55, 96
4, 140288, Note_off_c, 2, 55, 0
4, 140288, Note_on_c, 2, 54, 96
4, 141824, Note_off_c, 2, 54, 0
4, 141824, Note_on_c, 2, 55, 96
4, 142336, Note_off_c, 2, 55, 0
4, 142336, Note_on_c, 2, 52, 96
4, 143872, Note_off_c, 2, 52, 0
4, 143872, Note_on_c, 2, 50, 96
4, 144128, Note_off_c, 2, 50, 0
4, 144128, Note_on_c, 2, 52, 96
4, 144384, Note_off_c, 2, 52, 0
4, 144384, Note_on_c, 2, 50, 96
4, 144896, Note_off_c, 2, 50, 0
4, 144896, Note_on_c, 2, 60, 96
4, 145408, Note_off_c, 2, 60, 0
4, 145408, Note_on_c, 2, 59, 96
4, 145920, Note_off_c, 2, 59, 0
4, 145920, Note_on_c, 2, 57, 96
4, 146432, Note_off_c, 2, 57, 0
4, 146432, Note_on_c, 2, 55, 96
4, 147968, Note_off_c, 2, 55, 0
4, 147968, Note_on_c, 2, 57, 96
4, 148480, Note_off_c, 2, 57, 0
4, 148480, Note_on_c, 2, 55, 96
4, 148992, Note_off_c, 2, 55, 0
4, 148992, Note_on_c, 2, 54, 96
4, 149504, Note_off_c, 2, 54, 0
4, 149504, Note_on_c, 2, 52, 96
4, 150016, Note_off_c, 2, 52, 0
4, 150016, Note_on_c, 2, 64, 96
4, 151040, Note_off_c, 2, 64, 0
4, 151040, Note_on_c, 2, 62, 96
4, 151552, Note_off_c, 2, 62, 0
4, 151552, Note_on_c, 2, 60, 96
4, 152064, Note_off_c, 2, 60, 0
4, 152064, Note_on_c, 2, 59, 96
4, 152576, Note_off_c, 2, 59, 0
4, 152576, Note_on_c, 2, 57, 96
4, 153088, Note_off_c, 2, 57, 0
4, 153088, Note_on_c, 2, 55, 96
4, 153600, Note_off_c, 2, 55, 0
4, 153600, Note_on_c, 2, 54, 96
4, 154112, Note_off_c, 2, 54, 0
4, 154112, Note_on_c, 2, 55, 96
4, 154624, Note_off_c, 2, 55, 0
4, 154624, Note_on_c, 2, 57, 96
4, 156160, Note_off_c, 2, 57, 0
4, 156160, Note_on_c, 2, 50, 96
4, 156672, Note_off_c, 2, 50, 0
4, 156672, Note_on_c, 2, 55, 96
4, 158208, Note_off_c, 2, 55, 0
4, 158208, Note_on_c, 2, 54, 96
4, 158464, Note_off_c, 2, 54, 0
4, 158464, Note_on_c, 2, 52, 96
4, 158720, Note_off_c, 2, 52, 0
4, 158720, Note_on_c, 2, 54, 96
4, 160256, Note_off_c, 2, 54, 0
4, 160256, Note_on_c, 2, 52, 96
4, 160768, Note_off_c, 2, 52, 0
4, 160768, Note_on_c, 2, 50, 96
4, 161280, Note_off_c, 2, 50, 0
4, 161280, Note_on_c, 2, 48, 96
4, 161792, Note_off_c, 2, 48, 0
4, 161792, Note_on_c, 2, 50, 96
4, 162304, Note_off_c, 2, 50, 0
4, 162304, Note_on_c, 2, 55, 96
4, 162816, Note_off_c, 2, 55, 0
4, 162816, Note_on_c, 2, 52, 96
4, 163840, Note_off_c, 2, 52, 0
4, 163840, Note_on_c, 2, 57, 96
4, 164864, Note_off_c, 2, 57, 0
4, 164864, Note_on_c, 2, 55, 96
4, 165376, Note_off_c, 2, 55, 0
4, 165376, Note_on_c, 2, 57, 96
4, 165888, Note_off_c, 2, 57, 0
4, 165888, Note_on_c, 2, 59, 96
4, 166912, Note_off_c, 2, 59, 0
4, 166912, Note_on_c, 2, 57, 96
4, 167936, Note_off_c, 2, 57, 0
4, 167936, Note_on_c, 2, 66, 96
4, 168960, Note_off_c, 2, 66, 0
4, 168960, Note_on_c, 2, 64, 96
4, 169472, Note_off_c, 2, 64, 0
4, 169472, Note_on_c, 2, 62, 96
4, 169984, Note_off_c, 2, 62, 0
4, 169984, Note_on_c, 2, 61, 96
4, 170496, Note_off_c, 2, 61, 0
4, 170496, Note_on_c, 2, 59, 96
4, 171008, Note_off_c, 2, 59, 0
4, 171008, Note_on_c, 2, 57, 96
4, 171520, Note_off_c, 2, 57, 0
4, 171520, Note_on_c, 2, 55, 96
4, 172032, Note_off_c, 2, 55, 0
4, 172032, Note_on_c, 2, 54, 96
4, 172544, Note_off_c, 2, 54, 0
4, 172544, Note_on_c, 2, 50, 96
4, 173056, Note_off_c, 2, 50, 0
4, 173056, Note_on_c, 2, 57, 96
4, 173184, Note_off_c, 2, 57, 0
4, 173184, Note_on_c, 2, 55, 96
4, 173312, Note_off_c, 2, 55, 0
4, 173312, Note_on_c, 2, 57, 96
4, 173440, Note_off_c, 2, 57, 0
4, 173440, Note_on_c, 2, 55, 96
4, 174592, Note_off_c, 2, 55, 0
4, 174592, Note_on_c, 2, 54, 96
4, 174848, Note_off_c, 2, 54, 0
4, 174848, Note_on_c, 2, 55, 96
4, 175104, Note_off_c, 2, 55, 0
4, 175104, Note_on_c, 2, 54, 96
4, 175616, Note_off_c, 2, 54, 0
4, 175616, Note_on_c, 2, 57, 96
4, 176128, Note_off_c, 2, 57, 0
4, 176128, Note_on_c, 2, 62, 96
4, 176640, Note_off_c, 2, 62, 0
4, 176640, Note_on_c, 2, 60, 96
4, 177152, Note_off_c, 2, 60, 0
4, 177152, Note_on_c, 2, 59, 96
4, 177664, Note_off_c, 2, 59, 0
4, 177664, Note_on_c, 2, 64, 96
4, 178688, Note_off_c, 2, 64, 0
4, 178688, Note_on_c, 2, 62, 96
4, 179200, Note_off_c, 2, 62, 0
4, 179200, Note_on_c, 2, 60, 96
4, 179712, Note_off_c, 2, 60, 0
4, 179712, Note_on_c, 2, 59, 96
4, 180224, Note_off_c, 2, 59, 0
4, 180224, Note_on_c, 2, 60, 96
4, 181248, Note_off_c, 2, 60, 0
4, 181248, Note_on_c, 2, 59, 96
4, 181760, Note_off_c, 2, 59, 0
4, 181760, Note_on_c, 2, 60, 96
4, 182272, Note_off_c, 2, 60, 0
4, 182272, Note_on_c, 2, 62, 96
4, 183808, Note_off_c, 2, 62, 0
4, 183808, Note_on_c, 2, 55, 96
4, 184320, Note_off_c, 2, 55, 0
4, 184320, Note_on_c, 2, 60, 96
4, 184832, Note_off_c, 2, 60, 0
4, 184832, Note_on_c, 2, 59, 96
4, 185344, Note_off_c, 2, 59, 0
4, 185344, Note_on_c, 2, 57, 96
4, 185856, Note_off_c, 2, 57, 0
4, 185856, Note_on_c, 2, 55, 96
4, 186368, Note_off_c, 2, 55, 0
4, 186368, Note_on_c, 2, 57, 96
4, 186880, Note_off_c, 2, 57, 0
4, 186880, Note_on_c, 2, 54, 96
4, 187392, Note_off_c, 2, 54, 0
4, 187392, Note_on_c, 2, 55, 96
4, 187904, Note_off_c, 2, 55, 0
4, 187904, Note_on_c, 2, 57, 96
4, 188416, Note_off_c, 2, 57, 0
4, 188416, Note_on_c, 2, 59, 96
4, 190464, Note_off_c, 2, 59, 0
4, 190464, Note_on_c, 2, 52, 96
4, 191488, Note_off_c, 2, 52, 0
4, 191488, Note_on_c, 2, 54, 96
4, 192000, Note_off_c, 2, 54, 0
4, 192000, Note_on_c, 2, 55, 96
4, 192512, Note_off_c, 2, 55, 0
4, 192512, Note_on_c, 2, 57, 96
4, 193536, Note_off_c, 2, 57, 0
4, 193536, Note_on_c, 2, 59, 96
4, 195584, Note_off_c, 2, 59, 0
4, 195584, Note_on_c, 2, 57, 96
4, 196096, Note_off_c, 2, 57, 0
4, 196096, Note_on_c, 2, 55, 96
4, 196608, Note_off_c, 2, 55, 0
4, 196608, Note_on_c, 2, 54, 96
4, 197120, Note_off_c, 2, 54, 0
4, 197120, Note_on_c, 2, 55, 96
4, 197632, Note_off_c, 2, 55, 0
4, 197632, Note_on_c, 2, 57, 96
4, 199168, Note_off_c, 2, 57, 0
4, 199168, Note_on_c, 2, 50, 96
4, 199680, Note_off_c, 2, 50, 0
4, 199680, Note_on_c, 2, 55, 96
4, 201216, Note_off_c, 2, 55, 0
4, 201216, Note_on_c, 2, 54, 96
4, 201728, Note_off_c, 2, 54, 0
4, 201728, Note_on_c, 2, 52, 96
4, 202752, Note_off_c, 2, 52, 0
4, 202752, Note_on_c, 2, 50, 96
4, 203776, Note_off_c, 2, 50, 0
4, 203776, Note_on_c, 2, 55, 96
4, 204800, Note_off_c, 2, 55, 0
4, 204800, Note_on_c, 2, 57, 96
4, 205824, Note_off_c, 2, 57, 0
4, 205824, Note_on_c, 2, 59, 96
4, 207360, Note_off_c, 2, 59, 0
4, 207360, Note_on_c, 2, 60, 96
4, 207872, Note_off_c, 2, 60, 0
4, 207872, Note_on_c, 2, 62, 96
4, 209920, Note_off_c, 2, 62, 0
4, 209920, Note_on_c, 2, 60, 96
4, 212480, Note_off_c, 2, 60, 0
4, 212480, Note_on_c, 2, 59, 96
4, 212992, Note_off_c, 2, 59, 0
4, 212992, Note_on_c, 2, 57, 96
4, 214528, Note_off_c, 2, 57, 0
4, 214528, Note_on_c, 2, 55, 96
4, 214784, Note_off_c, 2, 55, 0
4, 214784, Note_on_c, 2, 57, 96
4, 215040, Note_off_c, 2, 57, 0
4, 215040, Note_on_c, 2, 59, 96
4, 216576, Note_off_c, 2, 59, 0
4, 216576, Note_on_c, 2, 61, 96
4, 217088, Note_off_c, 2, 61, 0
4, 217088, Note_on_c, 2, 63, 96
4, 218624, Note_off_c, 2, 63, 0
4, 218624, Note_on_c, 2, 64, 96
4, 219136, Note_off_c, 2, 64, 0
4, 219136, Note_on_c, 2, 66, 96
4, 220672, Note_off_c, 2, 66, 0
4, 220672, Note_on_c, 2, 64, 96
4, 221696, Note_off_c, 2, 64, 0
4, 221696, Note_on_c, 2, 62, 96
4, 222720, Note_off_c, 2, 62, 0
4, 222720, Note_on_c, 2, 62, 96
4, 223232, Note_off_c, 2, 62, 0
4, 223232, Note_on_c, 2, 61, 96
4, 223744, Note_off_c, 2, 61, 0
4, 223744, Note_on_c, 2, 59, 96
4, 224256, Note_off_c, 2, 59, 0
4, 224256, Note_on_c, 2, 58, 96
4, 224768, Note_off_c, 2, 58, 0
4, 224768, Note_on_c, 2, 54, 96
4, 225280, Note_off_c, 2, 54, 0
4, 225792, Note_on_c, 2, 61, 96
4, 226304, Note_off_c, 2, 61, 0
4, 226304, Note_on_c, 2, 59, 96
4, 226816, Note_off_c, 2, 59, 0
4, 226816, Note_on_c, 2, 57, 96
4, 227328, Note_off_c, 2, 57, 0
4, 227328, Note_on_c, 2, 56, 96
4, 227840, Note_off_c, 2, 56, 0
4, 227840, Note_on_c, 2, 52, 96
4, 228352, Note_off_c, 2, 52, 0
4, 228352, Note_on_c, 2, 57, 96
4, 230400, Note_off_c, 2, 57, 0
4, 230912, Note_on_c, 2, 55, 96
4, 231424, Note_off_c, 2, 55, 0
4, 231424, Note_on_c, 2, 54, 96
4, 231936, Note_off_c, 2, 54, 0
4, 231936, Note_on_c, 2, 52, 96
4, 232448, Note_off_c, 2, 52, 0
4, 232448, Note_on_c, 2, 50, 96
4, 232960, Note_off_c, 2, 50, 0
4, 232960, Note_on_c, 2, 49, 96
4, 233472, Note_off_c, 2, 49, 0
4, 233472, Note_on_c, 2, 50, 96
4, 233984, Note_off_c, 2, 50, 0
4, 233984, Note_on_c, 2, 57, 96
4, 234496, Note_off_c, 2, 57, 0
4, 234496, Note_on_c, 2, 62, 96
4, 236032, Note_off_c, 2, 62, 0
4, 236032, Note_on_c, 2, 61, 96
4, 236544, Note_off_c, 2, 61, 0
4, 236544, Note_on_c, 2, 59, 96
4, 237056, Note_off_c, 2, 59, 0
4, 237056, Note_on_c, 2, 52, 96
4, 237568, Note_off_c, 2, 52, 0
4, 238080, Note_on_c, 2, 64, 96
4, 238592, Note_off_c, 2, 64, 0
4, 238592, Note_on_c, 2, 59, 96
4, 239104, Note_off_c, 2, 59, 0
4, 239104, Note_on_c, 2, 61, 96
4, 239616, Note_off_c, 2, 61, 0
4, 239616, Note_on_c, 2, 62, 96
4, 241152, Note_off_c, 2, 62, 0
4, 241152, Note_on_c, 2, 62, 96
4, 241664, Note_off_c, 2, 62, 0
4, 241664, Note_on_c, 2, 61, 96
4, 242176, Note_off_c, 2, 61, 0
4, 242176, Note_on_c, 2, 59, 96
4, 242688, Note_off_c, 2, 59, 0
4, 242688, Note_on_c, 2, 58, 96
4, 243200, Note_off_c, 2, 58, 0
4, 243200, Note_on_c, 2, 59, 96
4, 243712, Note_off_c, 2, 59, 0
4, 243712, Note_on_c, 2, 61, 96
4, 245248, Note_off_c, 2, 61, 0
4, 245248, Note_on_c, 2, 59, 96
4, 245504, Note_off_c, 2, 59, 0
4, 245504, Note_on_c, 2, 57, 96
4, 245760, Note_off_c, 2, 57, 0
4, 245760, Note_on_c, 2, 59, 96
4, 246272, Note_off_c, 2, 59, 0
4, 246272, Note_on_c, 2, 61, 96
4, 246784, Note_off_c, 2, 61, 0
4, 246784, Note_on_c, 2, 62, 96
4, 248320, Note_off_c, 2, 62, 0
4, 248320, Note_on_c, 2, 60, 96
4, 248832, Note_off_c, 2, 60, 0
4, 248832, Note_on_c, 2, 62, 96
4, 249344, Note_off_c, 2, 62, 0
4, 249344, Note_on_c, 2, 60, 96
4, 249856, Note_off_c, 2, 60, 0
4, 249856, Note_on_c, 2, 59, 96
4, 250368, Note_off_c, 2, 59, 0
4, 250368, Note_on_c, 2, 57, 96
4, 250880, Note_off_c, 2, 57, 0
4, 250880, Note_on_c, 2, 55, 96
4, 251392, Note_off_c, 2, 55, 0
4, 251392, Note_on_c, 2, 54, 96
4, 251904, Note_off_c, 2, 54, 0
4, 251904, Note_on_c, 2, 55, 96
4, 252416, Note_off_c, 2, 55, 0
4, 252416, Note_on_c, 2, 62, 96
4, 252928, Note_off_c, 2, 62, 0
4, 252928, Note_on_c, 2, 67, 96
4, 254464, Note_off_c, 2, 67, 0
4, 254464, Note_on_c, 2, 66, 96
4, 254976, Note_off_c, 2, 66, 0
4, 254976, Note_on_c, 2, 64, 96
4, 256000, Note_off_c, 2, 64, 0
4, 256000, Note_on_c, 2, 52, 96
4, 256512, Note_off_c, 2, 52, 0
4, 256512, Note_on_c, 2, 54, 96
4, 257024, Note_off_c, 2, 54, 0
4, 257024, Note_on_c, 2, 55, 96
4, 257536, Note_off_c, 2, 55, 0
4, 257536, Note_on_c, 2, 57, 96
4, 258048, Note_off_c, 2, 57, 0
4, 258048, Note_on_c, 2, 50, 96
4, 258560, Note_off_c, 2, 50, 0
4, 258560, Note_on_c, 2, 55, 96
4, 259072, Note_off_c, 2, 55, 0
4, 259072, Note_on_c, 2, 60, 96
4, 259584, Note_off_c, 2, 60, 0
4, 259584, Note_on_c, 2, 59, 96
4, 260096, Note_off_c, 2, 59, 0
4, 260096, Note_on_c, 2, 57, 96
4, 260608, Note_off_c, 2, 57, 0
4, 260608, Note_on_c, 2, 55, 96
4, 261120, Note_off_c, 2, 55, 0
4, 261120, Note_on_c, 2, 54, 96
4, 262144, Note_off_c, 2, 54, 0
4, 262144, Note_on_c, 2, 55, 96
4, 263680, Note_off_c, 2, 55, 0
4, 263680, Note_on_c, 2, 54, 96
4, 264192, Note_off_c, 2, 54, 0
4, 264192, Note_on_c, 2, 55, 96
4, 265728, Note_off_c, 2, 55, 0
4, 265728, Note_on_c, 2, 57, 96
4, 266240, Note_off_c, 2, 57, 0
4, 266240, Note_on_c, 2, 59, 96
4, 266752, Note_off_c, 2, 59, 0
4, 266752, Note_on_c, 2, 57, 96
4, 267264, Note_off_c, 2, 57, 0
4, 267264, Note_on_c, 2, 56, 96
4, 268288, Note_off_c, 2, 56, 0
4, 268288, Note_on_c, 2, 57, 96
4, 269312, Note_off_c, 2, 57, 0
4, 269312, Note_on_c, 2, 55, 96
4, 269824, Note_off_c, 2, 55, 0
4, 269824, Note_on_c, 2, 57, 96
4, 270336, Note_off_c, 2, 57, 0
4, 270336, Note_on_c, 2, 59, 96
4, 271360, Note_off_c, 2, 59, 0
4, 271360, Note_on_c, 2, 60, 96
4, 273408, Note_off_c, 2, 60, 0
4, 273408, Note_on_c, 2, 59, 96
4, 273920, Note_off_c, 2, 59, 0
4, 273920, Note_on_c, 2, 57, 96
4, 274432, Note_off_c, 2, 57, 0
4, 274432, Note_on_c, 2, 55, 96
4, 275456, Note_off_c, 2, 55, 0
4, 275456, Note_on_c, 2, 57, 96
4, 276480, Note_off_c, 2, 57, 0
4, 276480, Note_on_c, 2, 59, 96
4, 278016, Note_off_c, 2, 59, 0
4, 278016, Note_on_c, 2, 57, 96
4, 278528, Note_off_c, 2, 57, 0
4, 278528, Note_on_c, 2, 55, 96
4, 279040, Note_off_c, 2, 55, 0
4, 279040, Note_on_c, 2, 54, 96
4, 279552, Note_off_c, 2, 54, 0
4, 279552, Note_on_c, 2, 55, 96
4, 280064, Note_off_c, 2, 55, 0
4, 280064, Note_on_c, 2, 54, 96
4, 280576, Note_off_c, 2, 54, 0
4, 280576, Note_on_c, 2, 52, 96
4, 281088, Note_off_c, 2, 52, 0
4, 281088, Note_on_c, 2, 54, 96
4, 281600, Note_off_c, 2, 54, 0
4, 281600, Note_on_c, 2, 55, 96
4, 282112, Note_off_c, 2, 55, 0
4, 282112, Note_on_c, 2, 57, 96
4, 282624, Note_off_c, 2, 57, 0
4, 282624, Note_on_c, 2, 59, 96
4, 283136, Note_off_c, 2, 59, 0
4, 283136, Note_on_c, 2, 60, 96
4, 283648, Note_off_c, 2, 60, 0
4, 283648, Note_on_c, 2, 62, 96
4, 284672, Note_off_c, 2, 62, 0
4, 284672, Note_on_c, 2, 64, 96
4, 285696, Note_off_c, 2, 64, 0
4, 285696, Note_on_c, 2, 62, 96
4, 287744, Note_off_c, 2, 62, 0
4, 287744, Note_on_c, 2, 57, 96
4, 288768, Note_off_c, 2, 57, 0
4, 288768, Note_on_c, 2, 59, 96
4, 289792, Note_off_c, 2, 59, 0
4, 289792, Note_on_c, 2, 62, 96
4, 289920, Note_off_c, 2, 62, 0
4, 289920, Note_on_c, 2, 61, 96
4, 290048, Note_off_c, 2, 61, 0
4, 290048, Note_on_c, 2, 62, 96
4, 290176, Note_off_c, 2, 62, 0
4, 290176, Note_on_c, 2, 61, 96
4, 291328, Note_off_c, 2, 61, 0
4, 291328, Note_on_c, 2, 59, 96
4, 291584, Note_off_c, 2, 59, 0
4, 291584, Note_on_c, 2, 61, 96
4, 291840, Note_off_c, 2, 61, 0
4, 291840, Note_on_c, 2, 62, 96
4, 292352, Note_off_c, 2, 62, 0
4, 292352, Note_on_c, 2, 60, 96
4, 292864, Note_off_c, 2, 60, 0
4, 292864, Note_on_c, 2, 59, 96
4, 293376, Note_off_c, 2, 59, 0
4, 293376, Note_on_c, 2, 57, 96
4, 293888, Note_off_c, 2, 57, 0
4, 293888, Note_on_c, 2, 55, 96
4, 294400, Note_off_c, 2, 55, 0
4, 294400, Note_on_c, 2, 67, 96
4, 295424, Note_off_c, 2, 67, 0
4, 295424, Note_on_c, 2, 66, 96
4, 295936, Note_off_c, 2, 66, 0
4, 295936, Note_on_c, 2, 64, 96
4, 296448, Note_off_c, 2, 64, 0
4, 296448, Note_on_c, 2, 62, 96
4, 296960, Note_off_c, 2, 62, 0
4, 296960, Note_on_c, 2, 60, 96
4, 297472, Note_off_c, 2, 60, 0
4, 297472, Note_on_c, 2, 59, 96
4, 297984, Note_off_c, 2, 59, 0
4, 297984, Note_on_c, 2, 60, 96
4, 298496, Note_off_c, 2, 60, 0
4, 298496, Note_on_c, 2, 64, 96
4, 299008, Note_off_c, 2, 64, 0
4, 299008, Note_on_c, 2, 57, 96
4, 299520, Note_off_c, 2, 57, 0
4, 299520, Note_on_c, 2, 62, 96
4, 300032, Note_off_c, 2, 62, 0
4, 300032, Note_on_c, 2, 60, 96
4, 300544, Note_off_c, 2, 60, 0
4, 300544, Note_on_c, 2, 62, 96
4, 301056, Note_off_c, 2, 62, 0
4, 301056, Note_on_c, 2, 59, 96
4, 301568, Note_off_c, 2, 59, 0
4, 301568, Note_on_c, 2, 64, 96
4, 302080, Note_off_c, 2, 64, 0
4, 302080, Note_on_c, 2, 62, 96
4, 302592, Note_off_c, 2, 62, 0
4, 302592, Note_on_c, 2, 64, 96
4, 303104, Note_off_c, 2, 64, 0
4, 303104, Note_on_c, 2, 61, 96
4, 304128, Note_off_c, 2, 61, 0
4, 304128, Note_on_c, 2, 62, 96
4, 304640, Note_off_c, 2, 62, 0
4, 304640, Note_on_c, 2, 50, 96
4, 305152, Note_off_c, 2, 50, 0
4, 305152, Note_on_c, 2, 52, 96
4, 305664, Note_off_c, 2, 52, 0
4, 305664, Note_on_c, 2, 57, 96
4, 306176, Note_off_c, 2, 57, 0
4, 306176, Note_on_c, 2, 55, 96
4, 306688, Note_off_c, 2, 55, 0
4, 306688, Note_on_c, 2, 57, 96
4, 307200, Note_off_c, 2, 57, 0
4, 307200, Note_on_c, 2, 54, 96
4, 308224, Note_off_c, 2, 54, 0
4, 308736, Note_on_c, 2, 62, 96
4, 309760, Note_off_c, 2, 62, 0
4, 309760, Note_on_c, 2, 61, 96
4, 310272, Note_off_c, 2, 61, 0
4, 310272, Note_on_c, 2, 62, 96
4, 310784, Note_off_c, 2, 62, 0
4, 310784, Note_on_c, 2, 61, 96
4, 311296, Note_off_c, 2, 61, 0
4, 311296, Note_on_c, 2, 59, 96
4, 311808, Note_off_c, 2, 59, 0
4, 311808, Note_on_c, 2, 57, 96
4, 312320, Note_off_c, 2, 57, 0
4, 312320, Note_on_c, 2, 55, 96
4, 312832, Note_off_c, 2, 55, 0
4, 312832, Note_on_c, 2, 54, 96
4, 313344, Note_off_c, 2, 54, 0
4, 313344, Note_on_c, 2, 55, 96
4, 313856, Note_off_c, 2, 55, 0
4, 313856, Note_on_c, 2, 59, 96
4, 314368, Note_off_c, 2, 59, 0
4, 314368, Note_on_c, 2, 52, 96
4, 314880, Note_off_c, 2, 52, 0
4, 314880, Note_on_c, 2, 57, 96
4, 315392, Note_off_c, 2, 57, 0
4, 315392, Note_on_c, 2, 55, 96
4, 315904, Note_off_c, 2, 55, 0
4, 315904, Note_on_c, 2, 57, 96
4, 316416, Note_off_c, 2, 57, 0
4, 316416, Note_on_c, 2, 50, 96
4, 316928, Note_off_c, 2, 50, 0
4, 316928, Note_on_c, 2, 57, 96
4, 317440, Note_off_c, 2, 57, 0
4, 317440, Note_on_c, 2, 62, 96
4, 322048, Note_off_c, 2, 62, 0
4, 322048, Note_on_c, 2, 60, 96
4, 322560, Note_off_c, 2, 60, 0
4, 322560, Note_on_c, 2, 62, 96
4, 326656, Note_off_c, 2, 62, 0
4, 326656, Note_on_c, 2, 64, 96
4, 327680, Note_off_c, 2, 64, 0
4, 327680, Note_on_c, 2, 57, 96
4, 328704, Note_off_c, 2, 57, 0
4, 328704, Note_on_c, 2, 59, 96
4, 329728, Note_off_c, 2, 59, 0
4, 329728, Note_on_c, 2, 57, 96
4, 330240, Note_off_c, 2, 57, 0
4, 330240, Note_on_c, 2, 55, 96
4, 330752, Note_off_c, 2, 55, 0
4, 330752, Note_on_c, 2, 57, 96
4, 331776, Note_off_c, 2, 57, 0
4, 331776, Note_on_c, 2, 59, 96
4, 333312, Note_off_c, 2, 59, 0
4, 333312, Note_on_c, 2, 61, 96
4, 333824, Note_off_c, 2, 61, 0
4, 333824, Note_on_c, 2, 62, 96
4, 334336, Note_off_c, 2, 62, 0
4, 334336, Note_on_c, 2, 64, 96
4, 334848, Note_off_c, 2, 64, 0
4, 334848, Note_on_c, 2, 66, 96
4, 336384, Note_off_c, 2, 66, 0
4, 336384, Note_on_c, 2, 67, 96
4, 336896, Note_off_c, 2, 67, 0
4, 336896, Note_on_c, 2, 64, 96
4, 337920, Note_off_c, 2, 64, 0
4, 337920, Note_on_c, 2, 62, 96
4, 338944, Note_off_c, 2, 62, 0
4, 338944, Note_on_c, 2, 64, 96
4, 339968, Note_off_c, 2, 64, 0
4, 339968, Note_on_c, 2, 62, 96
4, 340992, Note_off_c, 2, 62, 0
4, 340992, Note_on_c, 2, 57, 96
4, 342528, Note_off_c, 2, 57, 0
4, 342528, Note_on_c, 2, 59, 96
4, 343040, Note_off_c, 2, 59, 0
4, 343040, Note_on_c, 2, 60, 96
4, 344064, Note_off_c, 2, 60, 0
4, 344064, Note_on_c, 2, 59, 96
4, 345088, Note_off_c, 2, 59, 0
4, 345088, Note_on_c, 2, 59, 96
4, 345152, Note_off_c, 2, 59, 0
4, 345152, Note_on_c, 2, 57, 96
4, 345216, Note_off_c, 2, 57, 0
4, 345216, Note_on_c, 2, 59, 96
4, 345280, Note_off_c, 2, 59, 0
4, 345280, Note_on_c, 2, 57, 96
4, 346624, Note_off_c, 2, 57, 0
4, 346624, Note_on_c, 2, 55, 96
4, 346880, Note_off_c, 2, 55, 0
4, 346880, Note_on_c, 2, 57, 96
4, 347136, Note_off_c, 2, 57, 0
4, 347136, Note_on_c, 2, 55, 96
4, 347648, Note_off_c, 2, 55, 0
4, 347648, Note_on_c, 2, 59, 96
4, 348160, Note_off_c, 2, 59, 0
4, 348160, Note_on_c, 2, 62, 96
4, 348672, Note_off_c, 2, 62, 0
4, 348672, Note_on_c, 2, 67, 96
4, 349696, Note_off_c, 2, 67, 0
4, 349696, Note_on_c, 2, 66, 96
4, 350208, Note_off_c, 2, 66, 0
4, 350208, Note_on_c, 2, 67, 96
4, 350720, Note_off_c, 2, 67, 0
4, 350720, Note_on_c, 2, 66, 96
4, 351232, Note_off_c, 2, 66, 0
4, 351232, Note_on_c, 2, 64, 96
4, 351744, Note_off_c, 2, 64, 0
4, 351744, Note_on_c, 2, 62, 96
4, 352256, Note_off_c, 2, 62, 0
4, 352256, Note_on_c, 2, 61, 96
4, 352768, Note_off_c, 2, 61, 0
4, 352768, Note_on_c, 2, 59, 96
4, 353280, Note_off_c, 2, 59, 0
4, 353280, Note_on_c, 2, 57, 96
4, 353792, Note_off_c, 2, 57, 0
4, 353792, Note_on_c, 2, 62, 96
4, 354816, Note_off_c, 2, 62, 0
4, 354816, Note_on_c, 2, 60, 96
4, 355072, Note_off_c, 2, 60, 0
4, 355072, Note_on_c, 2, 59, 96
4, 355328, Note_off_c, 2, 59, 0
4, 355328, Note_on_c, 2, 60, 96
4, 356864, Note_off_c, 2, 60, 0
4, 356864, Note_on_c, 2, 59, 96
4, 357376, Note_off_c, 2, 59, 0
4, 357888, Note_on_c, 2, 62, 96
4, 358400, Note_off_c, 2, 62, 0
4, 358400, Note_on_c, 2, 60, 96
4, 358912, Note_off_c, 2, 60, 0
4, 358912, Note_on_c, 2, 59, 96
4, 359424, Note_off_c, 2, 59, 0
4, 359424, Note_on_c, 2, 60, 96
4, 359936, Note_off_c, 2, 60, 0
4, 359936, Note_on_c, 2, 59, 96
4, 360448, Note_off_c, 2, 59, 0
4, 360448, Note_on_c, 2, 57, 96
4, 360960, Note_off_c, 2, 57, 0
4, 360960, Note_on_c, 2, 55, 96
4, 361472, Note_off_c, 2, 55, 0
4, 361472, Note_on_c, 2, 54, 96
4, 361984, Note_off_c, 2, 54, 0
4, 361984, Note_on_c, 2, 52, 96
4, 362496, Note_off_c, 2, 52, 0
4, 362496, Note_on_c, 2, 50, 96
4, 363008, Note_off_c, 2, 50, 0
4, 363008, Note_on_c, 2, 67, 96
4, 364032, Note_off_c, 2, 67, 0
4, 364032, Note_on_c, 2, 66, 96
4, 364288, Note_off_c, 2, 66, 0
4, 364288, Note_on_c, 2, 64, 96
4, 364544, Note_off_c, 2, 64, 0
4, 364544, Note_on_c, 2, 66, 96
4, 365568, Note_off_c, 2, 66, 0
4, 365568, Note_on_c, 2, 67, 96
4, 366592, Note_off_c, 2, 67, 0
4, 366592, Note_on_c, 2, 64, 96
4, 367104, Note_off_c, 2, 64, 0
4, 367104, Note_on_c, 2, 66, 96
4, 367616, Note_off_c, 2, 66, 0
4, 367616, Note_on_c, 2, 67, 96
4, 368640, Note_off_c, 2, 67, 0
4, 369152, Note_on_c, 2, 67, 96
4, 369664, Note_off_c, 2, 67, 0
4, 369664, Note_on_c, 2, 66, 96
4, 370176, Note_off_c, 2, 66, 0
4, 370176, Note_on_c, 2, 64, 96
4, 370688, Note_off_c, 2, 64, 0
4, 370688, Note_on_c, 2, 62, 96
4, 371200, Note_off_c, 2, 62, 0
4, 371200, Note_on_c, 2, 60, 96
4, 371712, Note_off_c, 2, 60, 0
4, 371712, Note_on_c, 2, 62, 96
4, 372736, Note_off_c, 2, 62, 0
4, 372736, Note_on_c, 2, 64, 96
4, 373760, Note_off_c, 2, 64, 0
4, 373760, Note_on_c, 2, 62, 96
4, 374528, Note_off_c, 2, 62, 0
4, 374528, Note_on_c, 2, 60, 96
4, 374784, Note_off_c, 2, 60, 0
4, 374784, Note_on_c, 2, 59, 96
4, 375296, Note_off_c, 2, 59, 0
4, 375296, Note_on_c, 2, 55, 96
4, 375808, Note_off_c, 2, 55, 0
4, 375808, Note_on_c, 2, 60, 96
4, 378368, Note_off_c, 2, 60, 0
4, 378368, Note_on_c, 2, 59, 96
4, 378880, Note_off_c, 2, 59, 0
4, 378880, Note_on_c, 2, 52, 96
4, 380416, Note_off_c, 2, 52, 0
4, 380416, Note_on_c, 2, 54, 96
4, 380928, Note_off_c, 2, 54, 0
4, 380928, Note_on_c, 2, 55, 96
4, 381952, Note_off_c, 2, 55, 0
4, 383488, Note_on_c, 2, 55, 96
4, 384000, Note_off_c, 2, 55, 0
4, 384000, Note_on_c, 2, 57, 96
4, 385536, Note_off_c, 2, 57, 0
4, 385536, Note_on_c, 2, 59, 96
4, 386048, Note_off_c, 2, 59, 0
4, 386048, Note_on_c, 2, 60, 96
4, 387072, Note_off_c, 2, 60, 0
4, 387072, Note_on_c, 2, 59, 96
4, 388096, Note_off_c, 2, 59, 0
4, 388096, Note_on_c, 2, 62, 96
4, 390144, Note_off_c, 2, 62, 0
4, 390144, Note_on_c, 2, 57, 96
4, 391680, Note_off_c, 2, 57, 0
4, 391680, Note_on_c, 2, 55, 96
4, 392192, Note_off_c, 2, 55, 0
4, 392192, Note_on_c, 2, 54, 96
4, 393728, Note_off_c, 2, 54, 0
4, 393728, Note_on_c, 2, 55, 96
4, 394240, Note_off_c, 2, 55, 0
4, 394240, Note_on_c, 2, 54, 96
4, 394304, Note_off_c, 2, 54, 0
4, 394304, Note_on_c, 2, 52, 96
4, 394368, Note_off_c, 2, 52, 0
4, 394368, Note_on_c, 2, 54, 96
4, 394432, Note_off_c, 2, 54, 0
4, 394432, Note_on_c, 2, 52, 96
4, 395776, Note_off_c, 2, 52, 0
4, 395776, Note_on_c, 2, 50, 96
4, 396032, Note_off_c, 2, 50, 0
4, 396032, Note_on_c, 2, 52, 96
4, 396288, Note_off_c, 2, 52, 0
4, 396288, Note_on_c, 2, 50, 96
4, 396800, Note_off_c, 2, 50, 0
4, 396800, Note_on_c, 2, 60, 96
4, 397312, Note_off_c, 2, 60, 0
4, 397312, Note_on_c, 2, 59, 96
4, 397824, Note_off_c, 2, 59, 0
4, 397824, Note_on_c, 2, 57, 96
4, 398336, Note_off_c, 2, 57, 0
4, 398336, Note_on_c, 2, 55, 96
4, 399872, Note_off_c, 2, 55, 0
4, 399872, Note_on_c, 2, 57, 96
4, 400384, Note_off_c, 2, 57, 0
4, 400384, Note_on_c, 2, 55, 96
4, 400896, Note_off_c, 2, 55, 0
4, 400896, Note_on_c, 2, 54, 96
4, 401408, Note_off_c, 2, 54, 0
4, 401408, Note_on_c, 2, 52, 96
4, 401920, Note_off_c, 2, 52, 0
4, 401920, Note_on_c, 2, 64, 96
4, 402944, Note_off_c, 2, 64, 0
4, 402944, Note_on_c, 2, 62, 96
4, 403456, Note_off_c, 2, 62, 0
4, 403456, Note_on_c, 2, 60, 96
4, 403968, Note_off_c, 2, 60, 0
4, 403968, Note_on_c, 2, 59, 96
4, 404480, Note_off_c, 2, 59, 0
4, 404480, Note_on_c, 2, 57, 96
4, 404992, Note_off_c, 2, 57, 0
4, 404992, Note_on_c, 2, 55, 96
4, 405504, Note_off_c, 2, 55, 0
4, 405504, Note_on_c, 2, 54, 96
4, 406016, Note_off_c, 2, 54, 0
4, 406016, Note_on_c, 2, 55, 96
4, 406528, Note_off_c, 2, 55, 0
4, 406528, Note_on_c, 2, 57, 96
4, 408064, Note_off_c, 2, 57, 0
4, 408064, Note_on_c, 2, 50, 96
4, 408576, Note_off_c, 2, 50, 0
4, 408576, Note_on_c, 2, 55, 96
4, 410112, Note_off_c, 2, 55, 0
4, 410112, Note_on_c, 2, 54, 96
4, 410368, Note_off_c, 2, 54, 0
4, 410368, Note_on_c, 2, 52, 96
4, 410624, Note_off_c, 2, 52, 0
4, 410624, Note_on_c, 2, 54, 96
4, 412160, Note_off_c, 2, 54, 0
4, 412160, Note_on_c, 2, 52, 96
4, 412672, Note_off_c, 2, 52, 0
4, 412672, Note_on_c, 2, 50, 96
4, 413184, Note_off_c, 2, 50, 0
4, 413184, Note_on_c, 2, 48, 96
4, 413696, Note_off_c, 2, 48, 0
4, 413696, Note_on_c, 2, 50, 96
4, 414208, Note_off_c, 2, 50, 0
4, 414208, Note_on_c, 2, 55, 96
4, 414720, Note_off_c, 2, 55, 0
4, 414720, Note_on_c, 2, 52, 96
4, 415744, Note_off_c, 2, 52, 0
4, 415744, Note_on_c, 2, 57, 96
4, 416768, Note_off_c, 2, 57, 0
4, 416768, Note_on_c, 2, 55, 96
4, 417280, Note_off_c, 2, 55, 0
4, 417280, Note_on_c, 2, 57, 96
4, 417792, Note_off_c, 2, 57, 0
4, 417792, Note_on_c, 2, 59, 96
4, 418816, Note_off_c, 2, 59, 0
4, 418816, Note_on_c, 2, 57, 96
4, 419840, Note_off_c, 2, 57, 0
4, 419840, Note_on_c, 2, 66, 96
4, 420864, Note_off_c, 2, 66, 0
4, 420864, Note_on_c, 2, 64, 96
4, 421376, Note_off_c, 2, 64, 0
4, 421376, Note_on_c, 2, 62, 96
4, 421888, Note_off_c, 2, 62, 0
4, 421888, Note_on_c, 2, 61, 96
4, 422400, Note_off_c, 2, 61, 0
4, 422400, Note_on_c, 2, 59, 96
4, 422912, Note_off_c, 2, 59, 0
4, 422912, Note_on_c, 2, 57, 96
4, 423424, Note_off_c, 2, 57, 0
4, 423424, Note_on_c, 2, 55, 96
4, 423936, Note_off_c, 2, 55, 0
4, 423936, Note_on_c, 2, 54, 96
4, 424448, Note_off_c, 2, 54, 0
4, 424448, Note_on_c, 2, 50, 96
4, 424960, Note_off_c, 2, 50, 0
4, 424960, Note_on_c, 2, 55, 96
4, 426496, Note_off_c, 2, 55, 0
4, 426496, Note_on_c, 2, 54, 96
4, 426752, Note_off_c, 2, 54, 0
4, 426752, Note_on_c, 2, 52, 96
4, 427008, Note_off_c, 2, 52, 0
4, 427008, Note_on_c, 2, 54, 96
4, 427520, Note_off_c, 2, 54, 0
4, 427520, Note_on_c, 2, 57, 96
4, 428032, Note_off_c, 2, 57, 0
4, 428032, Note_on_c, 2, 62, 96
4, 428544, Note_off_c, 2, 62, 0
4, 428544, Note_on_c, 2, 60, 96
4, 429056, Note_off_c, 2, 60, 0
4, 429056, Note_on_c, 2, 59, 96
4, 429568, Note_off_c, 2, 59, 0
4, 429568, Note_on_c, 2, 64, 96
4, 430592, Note_off_c, 2, 64, 0
4, 430592, Note_on_c, 2, 62, 96
4, 431104, Note_off_c, 2, 62, 0
4, 431104, Note_on_c, 2, 60, 96
4, 431616, Note_off_c, 2, 60, 0
4, 431616, Note_on_c, 2, 59, 96
4, 432128, Note_off_c, 2, 59, 0
4, 432128, Note_on_c, 2, 60, 96
4, 433152, Note_off_c, 2, 60, 0
4, 433152, Note_on_c, 2, 59, 96
4, 433664, Note_off_c, 2, 59, 0
4, 433664, Note_on_c, 2, 60, 96
4, 434176, Note_off_c, 2, 60, 0
4, 434176, Note_on_c, 2, 62, 96
4, 435712, Note_off_c, 2, 62, 0
4, 435712, Note_on_c, 2, 55, 96
4, 436224, Note_off_c, 2, 55, 0
4, 436224, Note_on_c, 2, 60, 96
4, 436736, Note_off_c, 2, 60, 0
4, 436736, Note_on_c, 2, 59, 96
4, 437248, Note_off_c, 2, 59, 0
4, 437248, Note_on_c, 2, 57, 96
4, 437760, Note_off_c, 2, 57, 0
4, 437760, Note_on_c, 2, 55, 96
4, 438272, Note_off_c, 2, 55, 0
4, 438272, Note_on_c, 2, 57, 96
4, 438784, Note_off_c, 2, 57, 0
4, 438784, Note_on_c, 2, 54, 96
4, 439296, Note_off_c, 2, 54, 0
4, 439296, Note_on_c, 2, 55, 96
4, 439808, Note_off_c, 2, 55, 0
4, 439808, Note_on_c, 2, 57, 96
4, 440320, Note_off_c, 2, 57, 0
4, 440320, Note_on_c, 2, 59, 96
4, 442368, Note_off_c, 2, 59, 0
4, 442368, Note_on_c, 2, 52, 96
4, 443392, Note_off_c, 2, 52, 0
4, 443392, Note_on_c, 2, 54, 96
4, 443904, Note_off_c, 2, 54, 0
4, 443904, Note_on_c, 2, 55, 96
4, 444416, Note_off_c, 2, 55, 0
4, 444416, Note_on_c, 2, 57, 96
4, 445440, Note_off_c, 2, 57, 0
4, 445440, Note_on_c, 2, 59, 96
4, 447488, Note_off_c, 2, 59, 0
4, 447488, Note_on_c, 2, 57, 96
4, 448000, Note_off_c, 2, 57, 0
4, 448000, Note_on_c, 2, 55, 96
4, 448512, Note_off_c, 2, 55, 0
4, 448512, Note_on_c, 2, 54, 96
4, 449024, Note_off_c, 2, 54, 0
4, 449024, Note_on_c, 2, 55, 96
4, 449536, Note_off_c, 2, 55, 0
4, 449536, Note_on_c, 2, 57, 96
4, 451072, Note_off_c, 2, 57, 0
4, 451072, Note_on_c, 2, 50, 96
4, 451584, Note_off_c, 2, 50, 0
4, 451584, Note_on_c, 2, 55, 96
4, 453120, Note_off_c, 2, 55, 0
4, 453120, Note_on_c, 2, 54, 96
4, 453632, Note_off_c, 2, 54, 0
4, 453632, Note_on_c, 2, 52, 96
4, 454656, Note_off_c, 2, 52, 0
4, 454656, Note_on_c, 2, 50, 96
4, 455680, Note_off_c, 2, 50, 0
4, 455680, Note_on_c, 2, 55, 96
4, 456704, Note_off_c, 2, 55, 0
4, 456704, Note_on_c, 2, 57, 96
4, 457728, Note_off_c, 2, 57, 0
4, 457728, Note_on_c, 2, 59, 96
4, 459264, Note_off_c, 2, 59, 0
4, 459264, Note_on_c, 2, 60, 96
4, 459776, Note_off_c, 2, 60, 0
4, 459776, Note_on_c, 2, 62, 96
4, 461312, Note_off_c, 2, 62, 0
4, 461312, Note_on_c, 2, 55, 96
4, 461824, Note_off_c, 2, 55, 0
4, 461824, Note_on_c, 2, 60, 96
4, 464384, Note_off_c, 2, 60, 0
4, 464384, Note_on_c, 2, 59, 96
4, 464896, Note_off_c, 2, 59, 0
4, 464896, Note_on_c, 2, 57, 96
4, 466432, Note_off_c, 2, 57, 0
4, 466432, Note_on_c, 2, 59, 96
4, 466944, Note_off_c, 2, 59, 0
4, 466944, Note_on_c, 2, 52, 96
4, 467968, Note_off_c, 2, 52, 0
4, 467968, Note_on_c, 2, 55, 96
4, 468064, Note_off_c, 2, 55, 0
4, 468064, Note_on_c, 2, 54, 96
4, 468160, Note_off_c, 2, 54, 0
4, 468160, Note_on_c, 2, 55, 96
4, 468256, Note_off_c, 2, 55, 0
4, 468256, Note_on_c, 2, 54, 96
4, 469504, Note_off_c, 2, 54, 0
4, 469504, Note_on_c, 2, 52, 96
4, 469760, Note_off_c, 2, 52, 0
4, 469760, Note_on_c, 2, 54, 96
4, 470016, Note_off_c, 2, 54, 0
4, 470016, Note_on_c, 2, 55, 96
4, 470528, Note_off_c, 2, 55, 0
4, 470528, Note_on_c, 2, 54, 96
4, 471040, Note_off_c, 2, 54, 0
4, 471040, Note_on_c, 2, 52, 96
4, 471552, Note_off_c, 2, 52, 0
4, 471552, Note_on_c, 2, 54, 96
4, 472064, Note_off_c, 2, 54, 0
4, 472064, Note_on_c, 2, 55, 96
4, 472576, Note_off_c, 2, 55, 0
4, 472576, Note_on_c, 2, 57, 96
4, 473088, Note_off_c, 2, 57, 0
4, 473088, Note_on_c, 2, 54, 96
4, 473600, Note_off_c, 2, 54, 0
4, 473600, Note_on_c, 2, 55, 96
4, 474112, Note_off_c, 2, 55, 0
4, 474112, Note_on_c, 2, 54, 96
4, 474624, Note_off_c, 2, 54, 0
4, 474624, Note_on_c, 2, 52, 96
4, 475136, Note_off_c, 2, 52, 0
4, 475136, Note_on_c, 2, 50, 96
4, 475648, Note_off_c, 2, 50, 0
4, 475648, Note_on_c, 2, 49, 96
4, 476160, Note_off_c, 2, 49, 0
4, 476160, Note_on_c, 2, 50, 96
4, 476672, Note_off_c, 2, 50, 0
4, 476672, Note_on_c, 2, 57, 96
4, 477184, Note_off_c, 2, 57, 0
4, 477184, Note_on_c, 2, 62, 96
4, 477696, Note_off_c, 2, 62, 0
4, 477696, Note_on_c, 2, 64, 96
4, 478208, Note_off_c, 2, 64, 0
4, 478208, Note_on_c, 2, 62, 96
4, 478720, Note_off_c, 2, 62, 0
4, 478720, Note_on_c, 2, 60, 96
4, 479232, Note_off_c, 2, 60, 0
4, 479232, Note_on_c, 2, 59, 96
4, 480768, Note_off_c, 2, 59, 0
4, 480768, Note_on_c, 2, 57, 96
4, 481280, Note_off_c, 2, 57, 0
4, 481280, Note_on_c, 2, 59, 96
4, 481792, Note_off_c, 2, 59, 0
4, 481792, Note_on_c, 2, 61, 96
4, 482304, Note_off_c, 2, 61, 0
4, 482304, Note_on_c, 2, 62, 96
4, 483840, Note_off_c, 2, 62, 0
4, 483840, Note_on_c, 2, 60, 96
4, 484352, Note_off_c, 2, 60, 0
4, 484352, Note_on_c, 2, 59, 96
4, 484864, Note_off_c, 2, 59, 0
4, 484864, Note_on_c, 2, 57, 96
4, 485376, Note_off_c, 2, 57, 0
4, 485376, Note_on_c, 2, 55, 96
4, 485888, Note_off_c, 2, 55, 0
4, 485888, Note_on_c, 2, 54, 96
4, 486400, Note_off_c, 2, 54, 0
4, 486400, Note_on_c, 2, 52, 96
4, 486912, Note_off_c, 2, 52, 0
4, 486912, Note_on_c, 2, 54, 96
4, 487424, Note_off_c, 2, 54, 0
4, 487424, Note_on_c, 2, 55, 96
4, 487936, Note_off_c, 2, 55, 0
4, 487936, Note_on_c, 2, 57, 96
4, 488448, Note_off_c, 2, 57, 0
4, 488448, Note_on_c, 2, 54, 96
4, 489472, Note_off_c, 2, 54, 0
4, 489472, Note_on_c, 2, 55, 96
4, 489984, Note_off_c, 2, 55, 0
4, 489984, Note_on_c, 2, 57, 96
4, 490496, Note_off_c, 2, 57, 0
4, 490496, Note_on_c, 2, 59, 96
4, 491008, Note_off_c, 2, 59, 0
4, 491008, Note_on_c, 2, 60, 96
4, 491520, Note_off_c, 2, 60, 0
4, 491520, Note_on_c, 2, 62, 96
4, 492032, Note_off_c, 2, 62, 0
4, 492032, Note_on_c, 2, 60, 96
4, 492544, Note_off_c, 2, 60, 0
4, 492544, Note_on_c, 2, 59, 96
4, 493056, Note_off_c, 2, 59, 0
4, 493056, Note_on_c, 2, 57, 96
4, 493568, Note_off_c, 2, 57, 0
4, 493568, Note_on_c, 2, 55, 96
4, 494080, Note_off_c, 2, 55, 0
4, 494080, Note_on_c, 2, 54, 96
4, 494592, Note_off_c, 2, 54, 0
4, 494592, Note_on_c, 2, 52, 96
4, 496128, Note_off_c, 2, 52, 0
4, 496128, Note_on_c, 2, 50, 96
4, 496640, Note_off_c, 2, 50, 0
4, 496640, Note_on_c, 2, 52, 96
4, 497152, Note_off_c, 2, 52, 0
4, 497152, Note_on_c, 2, 54, 96
4, 497664, Note_off_c, 2, 54, 0
4, 497664, Note_on_c, 2, 55, 96
4, 498688, Note_off_c, 2, 55, 0
4, 498688, Note_on_c, 2, 60, 96
4, 499712, Note_off_c, 2, 60, 0
4, 499712, Note_on_c, 2, 54, 96
4, 500736, Note_off_c, 2, 54, 0
4, 500736, Note_on_c, 2, 55, 96
4, 501760, Note_off_c, 2, 55, 0
4, 501760, Note_on_c, 2, 50, 96
4, 502784, Note_off_c, 2, 50, 0
4, 502784, Note_on_c, 2, 57, 96
4, 503808, Note_off_c, 2, 57, 0
4, 503808, Note_on_c, 2, 55, 96
4, 504320, Note_off_c, 2, 55, 0
4, 504320, Note_on_c, 2, 57, 96
4, 504832, Note_off_c, 2, 57, 0
4, 504832, Note_on_c, 2, 59, 96
4, 505344, Note_off_c, 2, 59, 0
4, 505344, Note_on_c, 2, 64, 96
4, 505856, Note_off_c, 2, 64, 0
4, 505856, Note_on_c, 2, 60, 96
4, 506368, Note_off_c, 2, 60, 0
4, 506368, Note_on_c, 2, 62, 96
4, 506880, Note_off_c, 2, 62, 0
4, 506880, Note_on_c, 2, 55, 96
4, 508416, Note_off_c, 2, 55, 0
4, 508416, Note_on_c, 2, 57, 96
4, 508928, Note_off_c, 2, 57, 0
4, 508928, Note_on_c, 2, 59, 96
4, 510464, Note_off_c, 2, 59, 0
4, 510464, Note_on_c, 2, 57, 96
4, 510976, Note_off_c, 2, 57, 0
4, 510976, Note_on_c, 2, 55, 96
4, 514048, Note_off_c, 2, 55, 0
4, 514048, Note_on_c, 2, 57, 96
4, 515072, Note_off_c, 2, 57, 0
4, 515072, Note_on_c, 2, 55, 96
4, 515584, Note_off_c, 2, 55, 0
4, 515584, Note_on_c, 2, 53, 96
4, 516096, Note_off_c, 2, 53, 0
4, 516096, Note_on_c, 2, 55, 96
4, 517120, Note_off_c, 2, 55, 0
4, 517120, Note_on_c, 2, 57, 96
4, 519168, Note_off_c, 2, 57, 0
4, 519168, Note_on_c, 2, 55, 96
4, 520704, Note_off_c, 2, 55, 0
4, 520704, Note_on_c, 2, 53, 96
4, 521216, Note_off_c, 2, 53, 0
4, 521216, Note_on_c, 2, 52, 96
4, 521728, Note_off_c, 2, 52, 0
4, 521728, Note_on_c, 2, 50, 96
4, 522240, Note_off_c, 2, 50, 0
4, 522240, Note_on_c, 2, 52, 96
4, 523776, Note_off_c, 2, 52, 0
4, 523776, Note_on_c, 2, 50, 96
4, 524288, Note_off_c, 2, 50, 0
4, 524288, Note_on_c, 2, 52, 96
4, 524800, Note_off_c, 2, 52, 0
4, 524800, Note_on_c, 2, 54, 96
4, 525312, Note_off_c, 2, 54, 0
4, 525312, Note_on_c, 2, 55, 96
4, 525824, Note_off_c, 2, 55, 0
4, 525824, Note_on_c, 2, 57, 96
4, 526336, Note_off_c, 2, 57, 0
4, 526336, Note_on_c, 2, 59, 96
4, 526848, Note_off_c, 2, 59, 0
4, 526848, Note_on_c, 2, 57, 96
4, 527360, Note_off_c, 2, 57, 0
4, 527360, Note_on_c, 2, 55, 96
4, 527872, Note_off_c, 2, 55, 0
4, 527872, Note_on_c, 2, 54, 96
4, 528384, Note_off_c, 2, 54, 0
4, 528384, Note_on_c, 2, 52, 96
4, 530432, Note_off_c, 2, 52, 0
4, 530432, Note_on_c, 2, 57, 96
4, 531456, Note_off_c, 2, 57, 0
4, 531456, Note_on_c, 2, 52, 96
4, 532480, Note_off_c, 2, 52, 0
4, 532480, Note_on_c, 2, 55, 96
4, 532576, Note_off_c, 2, 55, 0
4, 532576, Note_on_c, 2, 54, 96
4, 532672, Note_off_c, 2, 54, 0
4, 532672, Note_on_c, 2, 55, 96
4, 532768, Note_off_c, 2, 55, 0
4, 532768, Note_on_c, 2, 54, 96
4, 534016, Note_off_c, 2, 54, 0
4, 534016, Note_on_c, 2, 52, 96
4, 534272, Note_off_c, 2, 52, 0
4, 534272, Note_on_c, 2, 54, 96
4, 534528, Note_off_c, 2, 54, 0
4, 534528, Note_on_c, 2, 55, 96
4, 535552, Note_off_c, 2, 55, 0
4, 535552, Note_on_c, 2, 54, 96
4, 536064, Note_off_c, 2, 54, 0
4, 536064, Note_on_c, 2, 52, 96
4, 536576, Note_off_c, 2, 52, 0
4, 536576, Note_on_c, 2, 54, 96
4, 537088, Note_off_c, 2, 54, 0
4, 537088, Note_on_c, 2, 55, 96
4, 537600, Note_off_c, 2, 55, 0
4, 537600, Note_on_c, 2, 57, 96
4, 538112, Note_off_c, 2, 57, 0
4, 538112, Note_on_c, 2, 49, 96
4, 538624, Note_off_c, 2, 49, 0
4, 538624, Note_on_c, 2, 50, 96
4, 539136, Note_off_c, 2, 50, 0
4, 539136, Note_on_c, 2, 52, 96
4, 539648, Note_off_c, 2, 52, 0
4, 539648, Note_on_c, 2, 54, 96
4, 540160, Note_off_c, 2, 54, 0
4, 540160, Note_on_c, 2, 50, 96
4, 540672, Note_off_c, 2, 50, 0
4, 540672, Note_on_c, 2, 55, 96
4, 541184, Note_off_c, 2, 55, 0
4, 541184, Note_on_c, 2, 57, 96
4, 541696, Note_off_c, 2, 57, 0
4, 541696, Note_on_c, 2, 59, 96
4, 542208, Note_off_c, 2, 59, 0
4, 542208, Note_on_c, 2, 57, 96
4, 542720, Note_off_c, 2, 57, 0
4, 542720, Note_on_c, 2, 55, 96
4, 543232, Note_off_c, 2, 55, 0
4, 543232, Note_on_c, 2, 54, 96
4, 543744, Note_off_c, 2, 54, 0
4, 543744, Note_on_c, 2, 55, 96
4, 544256, Note_off_c, 2, 55, 0
4, 544256, Note_on_c, 2, 59, 96
4, 544768, Note_off_c, 2, 59, 0
4, 544768, Note_on_c, 2, 57, 96
4, 545280, Note_off_c, 2, 57, 0
4, 545280, Note_on_c, 2, 55, 96
4, 545792, Note_off_c, 2, 55, 0
4, 545792, Note_on_c, 2, 54, 96
4, 546304, Note_off_c, 2, 54, 0
4, 546304, Note_on_c, 2, 52, 96
4, 546816, Note_off_c, 2, 52, 0
4, 546816, Note_on_c, 2, 54, 96
4, 547328, Note_off_c, 2, 54, 0
4, 547328, Note_on_c, 2, 50, 96
4, 547840, Note_off_c, 2, 50, 0
4, 547840, Note_on_c, 2, 55, 96
4, 550912, Note_off_c, 2, 55, 0
4, 550912, Note_on_c, 2, 54, 96
4, 551424, Note_off_c, 2, 54, 0
4, 551424, Note_on_c, 2, 50, 96
4, 551936, Note_off_c, 2, 50, 0
4, 551936, Note_on_c, 2, 55, 96
4, 552448, Note_off_c, 2, 55, 0
4, 552448, Note_on_c, 2, 57, 96
4, 552960, Note_off_c, 2, 57, 0
4, 552960, Note_on_c, 2, 59, 96
4, 553472, Note_off_c, 2, 59, 0
4, 553472, Note_on_c, 2, 57, 96
4, 553984, Note_off_c, 2, 57, 0
4, 553984, Note_on_c, 2, 55, 96
4, 554496, Note_off_c, 2, 55, 0
4, 554496, Note_on_c, 2, 54, 96
4, 555008, Note_off_c, 2, 54, 0
4, 555008, Note_on_c, 2, 52, 96
4, 555520, Note_off_c, 2, 52, 0
4, 555520, Note_on_c, 2, 54, 96
4, 556032, Note_off_c, 2, 54, 0
4, 556032, Note_on_c, 2, 55, 96
4, 557056, Note_off_c, 2, 55, 0
4, 557056, Note_on_c, 2, 57, 96
4, 558080, Note_off_c, 2, 57, 0
4, 558080, Note_on_c, 2, 62, 96
4, 559616, Note_off_c, 2, 62, 0
4, 559616, Note_on_c, 2, 60, 96
4, 560128, Note_off_c, 2, 60, 0
4, 560128, Note_on_c, 2, 59, 96
4, 560640, Note_off_c, 2, 59, 0
4, 560640, Note_on_c, 2, 57, 96
4, 561152, Note_off_c, 2, 57, 0
4, 561152, Note_on_c, 2, 55, 96
4, 561664, Note_off_c, 2, 55, 0
4, 561664, Note_on_c, 2, 54, 96
4, 562176, Note_off_c, 2, 54, 0
4, 562176, Note_on_c, 2, 52, 96
4, 563200, Note_off_c, 2, 52, 0
4, 563712, Note_on_c, 2, 52, 96
4, 564224, Note_off_c, 2, 52, 0
4, 564224, Note_on_c, 2, 57, 96
4, 564736, Note_off_c, 2, 57, 0
4, 564736, Note_on_c, 2, 55, 96
4, 565248, Note_off_c, 2, 55, 0
4, 565248, Note_on_c, 2, 54, 96
4, 566272, Note_off_c, 2, 54, 0
4, 566272, Note_on_c, 2, 55, 96
4, 569856, Note_off_c, 2, 55, 0
4, 569856, Note_on_c, 2, 56, 96
4, 570368, Note_off_c, 2, 56, 0
4, 570368, Note_on_c, 2, 57, 96
4, 570880, Note_off_c, 2, 57, 0
4, 570880, Note_on_c, 2, 59, 96
4, 571392, Note_off_c, 2, 59, 0
4, 571392, Note_on_c, 2, 57, 96
4, 571904, Note_off_c, 2, 57, 0
4, 571904, Note_on_c, 2, 55, 96
4, 572416, Note_off_c, 2, 55, 0
4, 572416, Note_on_c, 2, 57, 96
4, 574464, Note_off_c, 2, 57, 0
4, 574464, Note_on_c, 2, 55, 96
4, 575488, Note_off_c, 2, 55, 0
4, 577024, Note_on_c, 2, 67, 96
4, 577024, Note_on_c, 2, 71, 96
4, 577536, Note_off_c, 2, 71, 0
4, 577536, Note_on_c, 2, 72, 96
4, 578560, Note_off_c, 2, 67, 0
4, 578560, Note_off_c, 2, 72, 0
4, 580096, Note_on_c, 2, 60, 96
4, 580096, Note_on_c, 2, 64, 96
4, 580608, Note_off_c, 2, 60, 0
4, 580608, Note_off_c, 2, 64, 0
4, 580608, Note_on_c, 2, 62, 96
4, 580608, Note_on_c, 2, 66, 96
4, 581632, Note_off_c, 2, 62, 0
4, 581632, Note_off_c, 2, 66, 0
4, 583168, Note_on_c, 2, 50, 96
4, 583168, Note_on_c, 2, 54, 96
4, 583680, Note_off_c, 2, 54, 0
4, 583680, Note_on_c, 2, 55, 96
4, 584704, Note_off_c, 2, 50, 0
4, 584704, Note_off_c, 2, 55, 0
4, 586240, Note_on_c, 2, 55, 96
4, 586240, Note_on_c, 2, 59, 96
4, 586752, Note_off_c, 2, 59, 0
4, 586752, Note_on_c, 2, 60, 96
4, 587776, Note_off_c, 2, 55, 0
4, 587776, Note_off_c, 2, 60, 0
4, 589312, Note_on_c, 2, 60, 96
4, 589312, Note_on_c, 2, 64, 96
4, 589824, Note_off_c, 2, 64, 0
4, 589824, Note_on_c, 2, 66, 96
4, 590848, Note_off_c, 2, 60, 0
4, 590848, Note_off_c, 2, 66, 0
4, 592128, Note_on_c, 2, 62, 96
4, 592384, Note_off_c, 2, 62, 0
4, 592384, Note_on_c, 2, 66, 96
4, 592640, Note_off_c, 2, 66, 0
4, 592640, Note_on_c, 2, 62, 96
4, 592896, Note_off_c, 2, 62, 0
4, 592896, Note_on_c, 2, 67, 96
4, 593920, Note_off_c, 2, 67, 0
4, 595200, Note_on_c, 2, 67, 96
4, 595456, Note_off_c, 2, 67, 0
4, 595456, Note_on_c, 2, 71, 96
4, 595712, Note_off_c, 2, 71, 0
4, 595712, Note_on_c, 2, 67, 96
4, 595968, Note_off_c, 2, 67, 0
4, 595968, Note_on_c, 2, 69, 96
4, 599296, Note_off_c, 2, 69, 0
4, 600320, Note_on_c, 2, 66, 96
4, 600576, Note_off_c, 2, 66, 0
4, 600576, Note_on_c, 2, 67, 96
4, 600832, Note_off_c, 2, 67, 0
4, 600832, Note_on_c, 2, 69, 96
4, 601088, Note_off_c, 2, 69, 0
4, 601088, Note_on_c, 2, 62, 96
4, 601600, Note_off_c, 2, 62, 0
4, 601600, Note_on_c, 2, 60, 96
4, 602112, Note_off_c, 2, 60, 0
4, 602112, Note_on_c, 2, 59, 96
4, 602624, Note_off_c, 2, 59, 0
4, 602624, Note_on_c, 2, 57, 96
4, 603648, Note_off_c, 2, 57, 0
4, 603648, Note_on_c, 2, 59, 96
4, 604160, Note_off_c, 2, 59, 0
4, 604160, Note_on_c, 2, 60, 96
4, 604672, Note_off_c, 2, 60, 0
4, 604672, Note_on_c, 2, 62, 96
4, 605184, Note_off_c, 2, 62, 0
4, 605184, Note_on_c, 2, 59, 96
4, 606208, Note_off_c, 2, 59, 0
4, 606464, Note_on_c, 2, 59, 96
4, 606720, Note_off_c, 2, 59, 0
4, 606720, Note_on_c, 2, 60, 96
4, 606976, Note_off_c, 2, 60, 0
4, 606976, Note_on_c, 2, 62, 96
4, 607232, Note_off_c, 2, 62, 0
4, 607232, Note_on_c, 2, 55, 96
4, 608512, Note_off_c, 2, 55, 0
4, 609536, Note_on_c, 2, 64, 96
4, 609792, Note_off_c, 2, 64, 0
4, 609792, Note_on_c, 2, 65, 96
4, 610048, Note_off_c, 2, 65, 0
4, 610048, Note_on_c, 2, 67, 96
4, 610304, Note_off_c, 2, 67, 0
4, 610304, Note_on_c, 2, 60, 96
4, 611328, Note_off_c, 2, 60, 0
4, 611328, Note_on_c, 2, 62, 96
4, 615424, Note_off_c, 2, 62, 0
4, 615424, End_track
5, 0, Start_track
5, 0, Title_t, "Instrument 4"
5, 29696, Note_on_c, 3, 50, 96
5, 30720, Note_off_c, 3, 50, 0
5, 30720, Note_on_c, 3, 52, 96
5, 31744, Note_off_c, 3, 52, 0
5, 31744, Note_on_c, 3, 50, 96
5, 33280, Note_off_c, 3, 50, 0
5, 33280, Note_on_c, 3, 48, 96
5, 33792, Note_off_c, 3, 48, 0
5, 33792, Note_on_c, 3, 47, 96
5, 35328, Note_off_c, 3, 47, 0
5, 35328, Note_on_c, 3, 48, 96
5, 35840, Note_off_c, 3, 48, 0
5, 35840, Note_on_c, 3, 50, 96
5, 36864, Note_off_c, 3, 50, 0
5, 36864, Note_on_c, 3, 45, 96
5, 39936, Note_off_c, 3, 45, 0
5, 39936, Note_on_c, 3, 47, 96
5, 40960, Note_off_c, 3, 47, 0
5, 40960, Note_on_c, 3, 49, 96
5, 43008, Note_off_c, 3, 49, 0
5, 43008, Note_on_c, 3, 50, 96
5, 43520, Note_off_c, 3, 50, 0
5, 43520, Note_on_c, 3, 45, 96
5, 44032, Note_off_c, 3, 45, 0
5, 44032, Note_on_c, 3, 50, 96
5, 44544, Note_off_c, 3, 50, 0
5, 44544, Note_on_c, 3, 48, 96
5, 45056, Note_off_c, 3, 48, 0
5, 45056, Note_on_c, 3, 47, 96
5, 45568, Note_off_c, 3, 47, 0
5, 45568, Note_on_c, 3, 45, 96
5, 46080, Note_off_c, 3, 45, 0
5, 46080, Note_on_c, 3, 43, 96
5, 46592, Note_off_c, 3, 43, 0
5, 46592, Note_on_c, 3, 50, 96
5, 47104, Note_off_c, 3, 50, 0
5, 47104, Note_on_c, 3, 55, 96
5, 47616, Note_off_c, 3, 55, 0
5, 47616, Note_on_c, 3, 53, 96
5, 48128, Note_off_c, 3, 53, 0
5, 48128, Note_on_c, 3, 52, 96
5, 48640, Note_off_c, 3, 52, 0
5, 48640, Note_on_c, 3, 50, 96
5, 49152, Note_off_c, 3, 50, 0
5, 49152, Note_on_c, 3, 48, 96
5, 50688, Note_off_c, 3, 48, 0
5, 50688, Note_on_c, 3, 47, 96
5, 51200, Note_off_c, 3, 47, 0
5, 51200, Note_on_c, 3, 45, 96
5, 52224, Note_off_c, 3, 45, 0
5, 52224, Note_on_c, 3, 43, 96
5, 53248, Note_off_c, 3, 43, 0
5, 53248, Note_on_c, 3, 55, 96
5, 56320, Note_off_c, 3, 55, 0
5, 56320, Note_on_c, 3, 54, 96
5, 58368, Note_off_c, 3, 54, 0
5, 58368, Note_on_c, 3, 55, 96
5, 59392, Note_off_c, 3, 55, 0
5, 59392, Note_on_c, 3, 52, 96
5, 60416, Note_off_c, 3, 52, 0
5, 60416, Note_on_c, 3, 45, 96
5, 61440, Note_off_c, 3, 45, 0
5, 61440, Note_on_c, 3, 47, 96
5, 62464, Note_off_c, 3, 47, 0
5, 62464, Note_on_c, 3, 45, 96
5, 64000, Note_off_c, 3, 45, 0
5, 64000, Note_on_c, 3, 43, 96
5, 64512, Note_off_c, 3, 43, 0
5, 64512, Note_on_c, 3, 42, 96
5, 66048, Note_off_c, 3, 42, 0
5, 66048, Note_on_c, 3, 43, 96
5, 66560, Note_off_c, 3, 43, 0
5, 66560, Note_on_c, 3, 45, 96
5, 67584, Note_off_c, 3, 45, 0
5, 67584, Note_on_c, 3, 38, 96
5, 70656, Note_off_c, 3, 38, 0
5, 70656, Note_on_c, 3, 40, 96
5, 71680, Note_off_c, 3, 40, 0
5, 71680, Note_on_c, 3, 42, 96
5, 73728, Note_off_c, 3, 42, 0
5, 73728, Note_on_c, 3, 43, 96
5, 80896, Note_off_c, 3, 43, 0
5, 101376, Note_on_c, 3, 50, 96
5, 102400, Note_off_c, 3, 50, 0
5, 102400, Note_on_c, 3, 52, 96
5, 103424, Note_off_c, 3, 52, 0
5, 103424, Note_on_c, 3, 50, 96
5, 104448, Note_off_c, 3, 50, 0
5, 104448, Note_on_c, 3, 45, 96
5, 105984, Note_off_c, 3, 45, 0
5, 105984, Note_on_c, 3, 47, 96
5, 106496, Note_off_c, 3, 47, 0
5, 106496, Note_on_c, 3, 48, 96
5, 107520, Note_off_c, 3, 48, 0
5, 107520, Note_on_c, 3, 47, 96
5, 108544, Note_off_c, 3, 47, 0
5, 108544, Note_on_c, 3, 45, 96
5, 110592, Note_off_c, 3, 45, 0
5, 110592, Note_on_c, 3, 43, 96
5, 111104, Note_off_c, 3, 43, 0
5, 111104, Note_on_c, 3, 55, 96
5, 111616, Note_off_c, 3, 55, 0
5, 111616, Note_on_c, 3, 60, 96
5, 112128, Note_off_c, 3, 60, 0
5, 112128, Note_on_c, 3, 59, 96
5, 112640, Note_off_c, 3, 59, 0
5, 112640, Note_on_c, 3, 57, 96
5, 113152, Note_off_c, 3, 57, 0
5, 113152, Note_on_c, 3, 55, 96
5, 113664, Note_off_c, 3, 55, 0
5, 113664, Note_on_c, 3, 54, 96
5, 114176, Note_off_c, 3, 54, 0
5, 114176, Note_on_c, 3, 57, 96
5, 114688, Note_off_c, 3, 57, 0
5, 114688, Note_on_c, 3, 55, 96
5, 115200, Note_off_c, 3, 55, 0
5, 115200, Note_on_c, 3, 54, 96
5, 115712, Note_off_c, 3, 54, 0
5, 115712, Note_on_c, 3, 52, 96
5, 116224, Note_off_c, 3, 52, 0
5, 116224, Note_on_c, 3, 54, 96
5, 116736, Note_off_c, 3, 54, 0
5, 116736, Note_on_c, 3, 55, 96
5, 117248, Note_off_c, 3, 55, 0
5, 117248, Note_on_c, 3, 47, 96
5, 117760, Note_off_c, 3, 47, 0
5, 117760, Note_on_c, 3, 48, 96
5, 118272, Note_off_c, 3, 48, 0
5, 118272, Note_on_c, 3, 47, 96
5, 118784, Note_off_c, 3, 47, 0
5, 118784, Note_on_c, 3, 48, 96
5, 119296, Note_off_c, 3, 48, 0
5, 119296, Note_on_c, 3, 50, 96
5, 119808, Note_off_c, 3, 50, 0
5, 119808, Note_on_c, 3, 43, 96
5, 120320, Note_off_c, 3, 43, 0
5, 120320, Note_on_c, 3, 45, 96
5, 120832, Note_off_c, 3, 45, 0
5, 120832, Note_on_c, 3, 47, 96
5, 121344, Note_off_c, 3, 47, 0
5, 121344, Note_on_c, 3, 43, 96
5, 121856, Note_off_c, 3, 43, 0
5, 121856, Note_on_c, 3, 48, 96
5, 122368, Note_off_c, 3, 48, 0
5, 122368, Note_on_c, 3, 50, 96
5, 122880, Note_off_c, 3, 50, 0
5, 122880, Note_on_c, 3, 52, 96
5, 123392, Note_off_c, 3, 52, 0
5, 123392, Note_on_c, 3, 48, 96
5, 123904, Note_off_c, 3, 48, 0
5, 123904, Note_on_c, 3, 55, 96
5, 130048, Note_off_c, 3, 55, 0
5, 161792, Note_on_c, 3, 43, 96
5, 162816, Note_off_c, 3, 43, 0
5, 162816, Note_on_c, 3, 45, 96
5, 164352, Note_off_c, 3, 45, 0
5, 164352, Note_on_c, 3, 47, 96
5, 164864, Note_off_c, 3, 47, 0
5, 164864, Note_on_c, 3, 48, 96
5, 165888, Note_off_c, 3, 48, 0
5, 165888, Note_on_c, 3, 47, 96
5, 166912, Note_off_c, 3, 47, 0
5, 166912, Note_on_c, 3, 50, 96
5, 168960, Note_off_c, 3, 50, 0
5, 168960, Note_on_c, 3, 45, 96
5, 170496, Note_off_c, 3, 45, 0
5, 170496, Note_on_c, 3, 43, 96
5, 171008, Note_off_c, 3, 43, 0
5, 171008, Note_on_c, 3, 42, 96
5, 172544, Note_off_c, 3, 42, 0
5, 172544, Note_on_c, 3, 43, 96
5, 173056, Note_off_c, 3, 43, 0
5, 173056, Note_on_c, 3, 40, 96
5, 175104, Note_off_c, 3, 40, 0
5, 175104, Note_on_c, 3, 38, 96
5, 177152, Note_off_c, 3, 38, 0
5, 177152, Note_on_c, 3, 40, 96
5, 178176, Note_off_c, 3, 40, 0
5, 178176, Note_on_c, 3, 42, 96
5, 179712, Note_off_c, 3, 42, 0
5, 179712, Note_on_c, 3, 43, 96
5, 180224, Note_off_c, 3, 43, 0
5, 180224, Note_on_c, 3, 45, 96
5, 181248, Note_off_c, 3, 45, 0
5, 181248, Note_on_c, 3, 43, 96
5, 181760, Note_off_c, 3, 43, 0
5, 181760, Note_on_c, 3, 45, 96
5, 182272, Note_off_c, 3, 45, 0
5, 182272, Note_on_c, 3, 47, 96
5, 183296, Note_off_c, 3, 47, 0
5, 183296, Note_on_c, 3, 48, 96
5, 183808, Note_off_c, 3, 48, 0
5, 183808, Note_on_c, 3, 47, 96
5, 184320, Note_off_c, 3, 47, 0
5, 184320, Note_on_c, 3, 45, 96
5, 184832, Note_off_c, 3, 45, 0
5, 184832, Note_on_c, 3, 43, 96
5, 185344, Note_off_c, 3, 43, 0
5, 185344, Note_on_c, 3, 42, 96
5, 185856, Note_off_c, 3, 42, 0
5, 185856, Note_on_c, 3, 40, 96
5, 186368, Note_off_c, 3, 40, 0
5, 186368, Note_on_c, 3, 42, 96
5, 186880, Note_off_c, 3, 42, 0
5, 186880, Note_on_c, 3, 38, 96
5, 187392, Note_off_c, 3, 38, 0
5, 187392, Note_on_c, 3, 43, 96
5, 190976, Note_off_c, 3, 43, 0
5, 190976, Note_on_c, 3, 55, 96
5, 191488, Note_off_c, 3, 55, 0
5, 191488, Note_on_c, 3, 54, 96
5, 192000, Note_off_c, 3, 54, 0
5, 192000, Note_on_c, 3, 52, 96
5, 192512, Note_off_c, 3, 52, 0
5, 192512, Note_on_c, 3, 50, 96
5, 193024, Note_off_c, 3, 50, 0
5, 193024, Note_on_c, 3, 49, 96
5, 193536, Note_off_c, 3, 49, 0
5, 193536, Note_on_c, 3, 47, 96
5, 194048, Note_off_c, 3, 47, 0
5, 194048, Note_on_c, 3, 45, 96
5, 194560, Note_off_c, 3, 45, 0
5, 194560, Note_on_c, 3, 43, 96
5, 195072, Note_off_c, 3, 43, 0
5, 195072, Note_on_c, 3, 40, 96
5, 195584, Note_off_c, 3, 40, 0
5, 195584, Note_on_c, 3, 45, 96
5, 196608, Note_off_c, 3, 45, 0
5, 196608, Note_on_c, 3, 38, 96
5, 197120, Note_off_c, 3, 38, 0
5, 197120, Note_on_c, 3, 40, 96
5, 197632, Note_off_c, 3, 40, 0
5, 197632, Note_on_c, 3, 42, 96
5, 198144, Note_off_c, 3, 42, 0
5, 198144, Note_on_c, 3, 38, 96
5, 198656, Note_off_c, 3, 38, 0
5, 198656, Note_on_c, 3, 43, 96
5, 199168, Note_off_c, 3, 43, 0
5, 199168, Note_on_c, 3, 45, 96
5, 199680, Note_off_c, 3, 45, 0
5, 199680, Note_on_c, 3, 47, 96
5, 200192, Note_off_c, 3, 47, 0
5, 200192, Note_on_c, 3, 43, 96
5, 200704, Note_off_c, 3, 43, 0
5, 200704, Note_on_c, 3, 50, 96
5, 203776, Note_off_c, 3, 50, 0
5, 248832, Note_on_c, 3, 38, 96
5, 249856, Note_off_c, 3, 38, 0
5, 249856, Note_on_c, 3, 43, 96
5, 250880, Note_off_c, 3, 43, 0
5, 250880, Note_on_c, 3, 45, 96
5, 251904, Note_off_c, 3, 45, 0
5, 251904, Note_on_c, 3, 47, 96
5, 253440, Note_off_c, 3, 47, 0
5, 253440, Note_on_c, 3, 48, 96
5, 253952, Note_off_c, 3, 48, 0
5, 253952, Note_on_c, 3, 50, 96
5, 256000, Note_off_c, 3, 50, 0
5, 256000, Note_on_c, 3, 48, 96
5, 258560, Note_off_c, 3, 48, 0
5, 258560, Note_on_c, 3, 47, 96
5, 259072, Note_off_c, 3, 47, 0
5, 259072, Note_on_c, 3, 45, 96
5, 261120, Note_off_c, 3, 45, 0
5, 261120, Note_on_c, 3, 47, 96
5, 262144, Note_off_c, 3, 47, 0
5, 262144, Note_on_c, 3, 52, 96
5, 262656, Note_off_c, 3, 52, 0
5, 262656, Note_on_c, 3, 50, 96
5, 263168, Note_off_c, 3, 50, 0
5, 263168, Note_on_c, 3, 48, 96
5, 263680, Note_off_c, 3, 48, 0
5, 263680, Note_on_c, 3, 50, 96
5, 264192, Note_off_c, 3, 50, 0
5, 264192, Note_on_c, 3, 43, 96
5, 264704, Note_off_c, 3, 43, 0
5, 264704, Note_on_c, 3, 50, 96
5, 265216, Note_off_c, 3, 50, 0
5, 265216, Note_on_c, 3, 55, 96
5, 266752, Note_off_c, 3, 55, 0
5, 266752, Note_on_c, 3, 53, 96
5, 267264, Note_off_c, 3, 53, 0
5, 267264, Note_on_c, 3, 52, 96
5, 267776, Note_off_c, 3, 52, 0
5, 267776, Note_on_c, 3, 45, 96
5, 268288, Note_off_c, 3, 45, 0
5, 268800, Note_on_c, 3, 57, 96
5, 269312, Note_off_c, 3, 57, 0
5, 269312, Note_on_c, 3, 52, 96
5, 269824, Note_off_c, 3, 52, 0
5, 269824, Note_on_c, 3, 54, 96
5, 270336, Note_off_c, 3, 54, 0
5, 270336, Note_on_c, 3, 55, 96
5, 271872, Note_off_c, 3, 55, 0
5, 271872, Note_on_c, 3, 55, 96
5, 272384, Note_off_c, 3, 55, 0
5, 272384, Note_on_c, 3, 54, 96
5, 272896, Note_off_c, 3, 54, 0
5, 272896, Note_on_c, 3, 52, 96
5, 273408, Note_off_c, 3, 52, 0
5, 273408, Note_on_c, 3, 51, 96
5, 274432, Note_off_c, 3, 51, 0
5, 274432, Note_on_c, 3, 52, 96
5, 275456, Note_off_c, 3, 52, 0
5, 275456, Note_on_c, 3, 54, 96
5, 276480, Note_off_c, 3, 54, 0
5, 276480, Note_on_c, 3, 55, 96
5, 277504, Note_off_c, 3, 55, 0
5, 277504, Note_on_c, 3, 57, 96
5, 278528, Note_off_c, 3, 57, 0
5, 278528, Note_on_c, 3, 59, 96
5, 279552, Note_off_c, 3, 59, 0
5, 279552, Note_on_c, 3, 52, 96
5, 280576, Note_off_c, 3, 52, 0
5, 307200, Note_on_c, 3, 47, 96
5, 307712, Note_off_c, 3, 47, 0
5, 307712, Note_on_c, 3, 49, 96
5, 308224, Note_off_c, 3, 49, 0
5, 308224, Note_on_c, 3, 50, 96
5, 309248, Note_off_c, 3, 50, 0
5, 309248, Note_on_c, 3, 52, 96
5, 310272, Note_off_c, 3, 52, 0
5, 310272, Note_on_c, 3, 50, 96
5, 312320, Note_off_c, 3, 50, 0
5, 312320, Note_on_c, 3, 45, 96
5, 313344, Note_off_c, 3, 45, 0
5, 313344, Note_on_c, 3, 47, 96
5, 314368, Note_off_c, 3, 47, 0
5, 314368, Note_on_c, 3, 49, 96
5, 316416, Note_off_c, 3, 49, 0
5, 316416, Note_on_c, 3, 50, 96
5, 317952, Note_off_c, 3, 50, 0
5, 317952, Note_on_c, 3, 52, 96
5, 318464, Note_off_c, 3, 52, 0
5, 318464, Note_on_c, 3, 54, 96
5, 318976, Note_off_c, 3, 54, 0
5, 318976, Note_on_c, 3, 50, 96
5, 319488, Note_off_c, 3, 50, 0
5, 319488, Note_on_c, 3, 55, 96
5, 320000, Note_off_c, 3, 55, 0
5, 320000, Note_on_c, 3, 57, 96
5, 320512, Note_off_c, 3, 57, 0
5, 320512, Note_on_c, 3, 59, 96
5, 321024, Note_off_c, 3, 59, 0
5, 321024, Note_on_c, 3, 55, 96
5, 321536, Note_off_c, 3, 55, 0
5, 321536, Note_on_c, 3, 60, 96
5, 323072, Note_off_c, 3, 60, 0
5, 323072, Note_on_c, 3, 60, 96
5, 323584, Note_off_c, 3, 60, 0
5, 323584, Note_on_c, 3, 59, 96
5, 324096, Note_off_c, 3, 59, 0
5, 324096, Note_on_c, 3, 57, 96
5, 324608, Note_off_c, 3, 57, 0
5, 324608, Note_on_c, 3, 55, 96
5, 325120, Note_off_c, 3, 55, 0
5, 325120, Note_on_c, 3, 54, 96
5, 325632, Note_off_c, 3, 54, 0
5, 325632, Note_on_c, 3, 55, 96
5, 326144, Note_off_c, 3, 55, 0
5, 326144, Note_on_c, 3, 59, 96
5, 326656, Note_off_c, 3, 59, 0
5, 326656, Note_on_c, 3, 52, 96
5, 327168, Note_off_c, 3, 52, 0
5, 327168, Note_on_c, 3, 57, 96
5, 327680, Note_off_c, 3, 57, 0
5, 327680, Note_on_c, 3, 55, 96
5, 328192, Note_off_c, 3, 55, 0
5, 328192, Note_on_c, 3, 57, 96
5, 328704, Note_off_c, 3, 57, 0
5, 328704, Note_on_c, 3, 50, 96
5, 331264, Note_off_c, 3, 50, 0
5, 331264, Note_on_c, 3, 48, 96
5, 331776, Note_off_c, 3, 48, 0
5, 331776, Note_on_c, 3, 47, 96
5, 332288, Note_off_c, 3, 47, 0
5, 332288, Note_on_c, 3, 45, 96
5, 332800, Note_off_c, 3, 45, 0
5, 332800, Note_on_c, 3, 43, 96
5, 333312, Note_off_c, 3, 43, 0
5, 333312, Note_on_c, 3, 55, 96
5, 333824, Note_off_c, 3, 55, 0
5, 333824, Note_on_c, 3, 54, 96
5, 334336, Note_off_c, 3, 54, 0
5, 334336, Note_on_c, 3, 52, 96
5, 334848, Note_off_c, 3, 52, 0
5, 334848, Note_on_c, 3, 50, 96
5, 335360, Note_off_c, 3, 50, 0
5, 335360, Note_on_c, 3, 43, 96
5, 335872, Note_off_c, 3, 43, 0
5, 335872, Note_on_c, 3, 45, 96
5, 337920, Note_off_c, 3, 45, 0
5, 337920, Note_on_c, 3, 38, 96
5, 338944, Note_off_c, 3, 38, 0
5, 356352, Note_on_c, 3, 50, 96
5, 357376, Note_off_c, 3, 50, 0
5, 357376, Note_on_c, 3, 52, 96
5, 358400, Note_off_c, 3, 52, 0
5, 358400, Note_on_c, 3, 50, 96
5, 359424, Note_off_c, 3, 50, 0
5, 359424, Note_on_c, 3, 45, 96
5, 361472, Note_off_c, 3, 45, 0
5, 361472, Note_on_c, 3, 48, 96
5, 362496, Note_off_c, 3, 48, 0
5, 362496, Note_on_c, 3, 47, 96
5, 363520, Note_off_c, 3, 47, 0
5, 363520, Note_on_c, 3, 45, 96
5, 365568, Note_off_c, 3, 45, 0
5, 365568, Note_on_c, 3, 43, 96
5, 366080, Note_off_c, 3, 43, 0
5, 366080, Note_on_c, 3, 55, 96
5, 366592, Note_off_c, 3, 55, 0
5, 366592, Note_on_c, 3, 60, 96
5, 367104, Note_off_c, 3, 60, 0
5, 367104, Note_on_c, 3, 59, 96
5, 367616, Note_off_c, 3, 59, 0
5, 367616, Note_on_c, 3, 57, 96
5, 368128, Note_off_c, 3, 57, 0
5, 368128, Note_on_c, 3, 55, 96
5, 368640, Note_off_c, 3, 55, 0
5, 368640, Note_on_c, 3, 54, 96
5, 369152, Note_off_c, 3, 54, 0
5, 369152, Note_on_c, 3, 52, 96
5, 369664, Note_off_c, 3, 52, 0
5, 369664, Note_on_c, 3, 50, 96
5, 370176, Note_off_c, 3, 50, 0
5, 370176, Note_on_c, 3, 48, 96
5, 370688, Note_off_c, 3, 48, 0
5, 370688, Note_on_c, 3, 47, 96
5, 371200, Note_off_c, 3, 47, 0
5, 371200, Note_on_c, 3, 45, 96
5, 371712, Note_off_c, 3, 45, 0
5, 371712, Note_on_c, 3, 43, 96
5, 372224, Note_off_c, 3, 43, 0
5, 372224, Note_on_c, 3, 47, 96
5, 372736, Note_off_c, 3, 47, 0
5, 372736, Note_on_c, 3, 48, 96
5, 373248, Note_off_c, 3, 48, 0
5, 373248, Note_on_c, 3, 45, 96
5, 373760, Note_off_c, 3, 45, 0
5, 373760, Note_on_c, 3, 50, 96
5, 374272, Note_off_c, 3, 50, 0
5, 374272, Note_on_c, 3, 38, 96
5, 374784, Note_off_c, 3, 38, 0
5, 374784, Note_on_c, 3, 40, 96
5, 375808, Note_off_c, 3, 40, 0
5, 375808, Note_on_c, 3, 52, 96
5, 376320, Note_off_c, 3, 52, 0
5, 376320, Note_on_c, 3, 50, 96
5, 376832, Note_off_c, 3, 50, 0
5, 376832, Note_on_c, 3, 52, 96
5, 377344, Note_off_c, 3, 52, 0
5, 377344, Note_on_c, 3, 48, 96
5, 377856, Note_off_c, 3, 48, 0
5, 377856, Note_on_c, 3, 55, 96
5, 381952, Note_off_c, 3, 55, 0
5, 381952, Note_on_c, 3, 43, 96
5, 382976, Note_off_c, 3, 43, 0
5, 413696, Note_on_c, 3, 43, 96
5, 414720, Note_off_c, 3, 43, 0
5, 414720, Note_on_c, 3, 45, 96
5, 416256, Note_off_c, 3, 45, 0
5, 416256, Note_on_c, 3, 47, 96
5, 416768, Note_off_c, 3, 47, 0
5, 416768, Note_on_c, 3, 48, 96
5, 417792, Note_off_c, 3, 48, 0
5, 417792, Note_on_c, 3, 47, 96
5, 418816, Note_off_c, 3, 47, 0
5, 418816, Note_on_c, 3, 50, 96
5, 420864, Note_off_c, 3, 50, 0
5, 420864, Note_on_c, 3, 45, 96
5, 422400, Note_off_c, 3, 45, 0
5, 422400, Note_on_c, 3, 43, 96
5, 422912, Note_off_c, 3, 43, 0
5, 422912, Note_on_c, 3, 42, 96
5, 424448, Note_off_c, 3, 42, 0
5, 424448, Note_on_c, 3, 43, 96
5, 424960, Note_off_c, 3, 43, 0
5, 424960, Note_on_c, 3, 40, 96
5, 427008, Note_off_c, 3, 40, 0
5, 427008, Note_on_c, 3, 38, 96
5, 429056, Note_off_c, 3, 38, 0
5, 429056, Note_on_c, 3, 40, 96
5, 430080, Note_off_c, 3, 40, 0
5, 430080, Note_on_c, 3, 42, 96
5, 431616, Note_off_c, 3, 42, 0
5, 431616, Note_on_c, 3, 43, 96
5, 432128, Note_off_c, 3, 43, 0
5, 432128, Note_on_c, 3, 45, 96
5, 433152, Note_off_c, 3, 45, 0
5, 433152, Note_on_c, 3, 43, 96
5, 433664, Note_off_c, 3, 43, 0
5, 433664, Note_on_c, 3, 45, 96
5, 434176, Note_off_c, 3, 45, 0
5, 434176, Note_on_c, 3, 47, 96
5, 435200, Note_off_c, 3, 47, 0
5, 435200, Note_on_c, 3, 48, 96
5, 435712, Note_off_c, 3, 48, 0
5, 435712, Note_on_c, 3, 47, 96
5, 436224, Note_off_c, 3, 47, 0
5, 436224, Note_on_c, 3, 45, 96
5, 436736, Note_off_c, 3, 45, 0
5, 436736, Note_on_c, 3, 43, 96
5, 437248, Note_off_c, 3, 43, 0
5, 437248, Note_on_c, 3, 42, 96
5, 437760, Note_off_c, 3, 42, 0
5, 437760, Note_on_c, 3, 40, 96
5, 438272, Note_off_c, 3, 40, 0
5, 438272, Note_on_c, 3, 42, 96
5, 438784, Note_off_c, 3, 42, 0
5, 438784, Note_on_c, 3, 38, 96
5, 439296, Note_off_c, 3, 38, 0
5, 439296, Note_on_c, 3, 43, 96
5, 442880, Note_off_c, 3, 43, 0
5, 442880, Note_on_c, 3, 55, 96
5, 443392, Note_off_c, 3, 55, 0
5, 443392, Note_on_c, 3, 54, 96
5, 443904, Note_off_c, 3, 54, 0
5, 443904, Note_on_c, 3, 52, 96
5, 444416, Note_off_c, 3, 52, 0
5, 444416, Note_on_c, 3, 50, 96
5, 444928, Note_off_c, 3, 50, 0
5, 444928, Note_on_c, 3, 49, 96
5, 445440, Note_off_c, 3, 49, 0
5, 445440, Note_on_c, 3, 47, 96
5, 445952, Note_off_c, 3, 47, 0
5, 445952, Note_on_c, 3, 45, 96
5, 446464, Note_off_c, 3, 45, 0
5, 446464, Note_on_c, 3, 43, 96
5, 446976, Note_off_c, 3, 43, 0
5, 446976, Note_on_c, 3, 40, 96
5, 447488, Note_off_c, 3, 40, 0
5, 447488, Note_on_c, 3, 45, 96
5, 448512, Note_off_c, 3, 45, 0
5, 448512, Note_on_c, 3, 38, 96
5, 449024, Note_off_c, 3, 38, 0
5, 449024, Note_on_c, 3, 40, 96
5, 449536, Note_off_c, 3, 40, 0
5, 449536, Note_on_c, 3, 42, 96
5, 450048, Note_off_c, 3, 42, 0
5, 450048, Note_on_c, 3, 38, 96
5, 450560, Note_off_c, 3, 38, 0
5, 450560, Note_on_c, 3, 43, 96
5, 451072, Note_off_c, 3, 43, 0
5, 451072, Note_on_c, 3, 45, 96
5, 451584, Note_off_c, 3, 45, 0
5, 451584, Note_on_c, 3, 47, 96
5, 452096, Note_off_c, 3, 47, 0
5, 452096, Note_on_c, 3, 43, 96
5, 452608, Note_off_c, 3, 43, 0
5, 452608, Note_on_c, 3, 50, 96
5, 455680, Note_off_c, 3, 50, 0
5, 488448, Note_on_c, 3, 38, 96
5, 489472, Note_off_c, 3, 38, 0
5, 489472, Note_on_c, 3, 43, 96
5, 490496, Note_off_c, 3, 43, 0
5, 490496, Note_on_c, 3, 45, 96
5, 491520, Note_off_c, 3, 45, 0
5, 491520, Note_on_c, 3, 47, 96
5, 493056, Note_off_c, 3, 47, 0
5, 493056, Note_on_c, 3, 48, 96
5, 493568, Note_off_c, 3, 48, 0
5, 493568, Note_on_c, 3, 50, 96
5, 495104, Note_off_c, 3, 50, 0
5, 495104, Note_on_c, 3, 43, 96
5, 495616, Note_off_c, 3, 43, 0
5, 495616, Note_on_c, 3, 48, 96
5, 498176, Note_off_c, 3, 48, 0
5, 498176, Note_on_c, 3, 47, 96
5, 498688, Note_off_c, 3, 47, 0
5, 498688, Note_on_c, 3, 45, 96
5, 500224, Note_off_c, 3, 45, 0
5, 500224, Note_on_c, 3, 47, 96
5, 500736, Note_off_c, 3, 47, 0
5, 500736, Note_on_c, 3, 40, 96
5, 501760, Note_off_c, 3, 40, 0
5, 501760, Note_on_c, 3, 42, 96
5, 503808, Note_off_c, 3, 42, 0
5, 503808, Note_on_c, 3, 43, 96
5, 505856, Note_off_c, 3, 43, 0
5, 507392, Note_on_c, 3, 60, 96
5, 507904, Note_off_c, 3, 60, 0
5, 507904, Note_on_c, 3, 59, 96
5, 508416, Note_off_c, 3, 59, 0
5, 508416, Note_on_c, 3, 57, 96
5, 508928, Note_off_c, 3, 57, 0
5, 508928, Note_on_c, 3, 55, 96
5, 509440, Note_off_c, 3, 55, 0
5, 509440, Note_on_c, 3, 54, 96
5, 509952, Note_off_c, 3, 54, 0
5, 509952, Note_on_c, 3, 52, 96
5, 511488, Note_off_c, 3, 52, 0
5, 511488, Note_on_c, 3, 50, 96
5, 512000, Note_off_c, 3, 50, 0
5, 512000, Note_on_c, 3, 52, 96
5, 512512, Note_off_c, 3, 52, 0
5, 512512, Note_on_c, 3, 54, 96
5, 513024, Note_off_c, 3, 54, 0
5, 513024, Note_on_c, 3, 55, 96
5, 514560, Note_off_c, 3, 55, 0
5, 514560, Note_on_c, 3, 53, 96
5, 515072, Note_off_c, 3, 53, 0
5, 515072, Note_on_c, 3, 52, 96
5, 515584, Note_off_c, 3, 52, 0
5, 515584, Note_on_c, 3, 50, 96
5, 516096, Note_off_c, 3, 50, 0
5, 516096, Note_on_c, 3, 48, 96
5, 516608, Note_off_c, 3, 48, 0
5, 516608, Note_on_c, 3, 47, 96
5, 517120, Note_off_c, 3, 47, 0
5, 517120, Note_on_c, 3, 45, 96
5, 518144, Note_off_c, 3, 45, 0
5, 518144, Note_on_c, 3, 50, 96
5, 519168, Note_off_c, 3, 50, 0
5, 519168, Note_on_c, 3, 52, 96
5, 520192, Note_off_c, 3, 52, 0
5, 520192, Note_on_c, 3, 47, 96
5, 522240, Note_off_c, 3, 47, 0
5, 522240, Note_on_c, 3, 48, 96
5, 523776, Note_off_c, 3, 48, 0
5, 523776, Note_on_c, 3, 47, 96
5, 524288, Note_off_c, 3, 47, 0
5, 524288, Note_on_c, 3, 45, 96
5, 524800, Note_off_c, 3, 45, 0
5, 524800, Note_on_c, 3, 50, 96
5, 525312, Note_off_c, 3, 50, 0
5, 525312, Note_on_c, 3, 43, 96
5, 526336, Note_off_c, 3, 43, 0
5, 550400, Note_on_c, 3, 45, 96
5, 550912, Note_off_c, 3, 45, 0
5, 550912, Note_on_c, 3, 47, 96
5, 551424, Note_off_c, 3, 47, 0
5, 551424, Note_on_c, 3, 45, 96
5, 551936, Note_off_c, 3, 45, 0
5, 551936, Note_on_c, 3, 43, 96
5, 552448, Note_off_c, 3, 43, 0
5, 552448, Note_on_c, 3, 42, 96
5, 552960, Note_off_c, 3, 42, 0
5, 552960, Note_on_c, 3, 40, 96
5, 555008, Note_off_c, 3, 40, 0
5, 555008, Note_on_c, 3, 45, 96
5, 556032, Note_off_c, 3, 45, 0
5, 556032, Note_on_c, 3, 40, 96
5, 557056, Note_off_c, 3, 40, 0
5, 557056, Note_on_c, 3, 42, 96
5, 559104, Note_off_c, 3, 42, 0
5, 559104, Note_on_c, 3, 43, 96
5, 559616, Note_off_c, 3, 43, 0
5, 559616, Note_on_c, 3, 50, 96
5, 560128, Note_off_c, 3, 50, 0
5, 560128, Note_on_c, 3, 55, 96
5, 560640, Note_off_c, 3, 55, 0
5, 560640, Note_on_c, 3, 54, 96
5, 561152, Note_off_c, 3, 54, 0
5, 561152, Note_on_c, 3, 52, 96
5, 561664, Note_off_c, 3, 52, 0
5, 561664, Note_on_c, 3, 50, 96
5, 562176, Note_off_c, 3, 50, 0
5, 562176, Note_on_c, 3, 49, 96
5, 565248, Note_off_c, 3, 49, 0
5, 565248, Note_on_c, 3, 50, 96
5, 566272, Note_off_c, 3, 50, 0
5, 566272, Note_on_c, 3, 43, 96
5, 566784, Note_off_c, 3, 43, 0
5, 566784, Note_on_c, 3, 45, 96
5, 567296, Note_off_c, 3, 45, 0
5, 567296, Note_on_c, 3, 47, 96
5, 568320, Note_off_c, 3, 47, 0
5, 568320, Note_on_c, 3, 48, 96
5, 568832, Note_off_c, 3, 48, 0
5, 568832, Note_on_c, 3, 50, 96
5, 569344, Note_off_c, 3, 50, 0
5, 569344, Note_on_c, 3, 52, 96
5, 569856, Note_off_c, 3, 52, 0
5, 569856, Note_on_c, 3, 50, 96
5, 570368, Note_off_c, 3, 50, 0
5, 570368, Note_on_c, 3, 48, 96
5, 570880, Note_off_c, 3, 48, 0
5, 570880, Note_on_c, 3, 47, 96
5, 571392, Note_off_c, 3, 47, 0
5, 571392, Note_on_c, 3, 48, 96
5, 571904, Note_off_c, 3, 48, 0
5, 571904, Note_on_c, 3, 52, 96
5, 572416, Note_off_c, 3, 52, 0
5, 572416, Note_on_c, 3, 50, 96
5, 572928, Note_off_c, 3, 50, 0
5, 572928, Note_on_c, 3, 48, 96
5, 573440, Note_off_c, 3, 48, 0
5, 573440, Note_on_c, 3, 47, 96
5, 573952, Note_off_c, 3, 47, 0
5, 573952, Note_on_c, 3, 45, 96
5, 574464, Note_off_c, 3, 45, 0
5, 574464, Note_on_c, 3, 47, 96
5, 575488, Note_off_c, 3, 47, 0
5, 576768, Note_on_c, 3, 43, 96
5, 577024, Note_off_c, 3, 43, 0
5, 577024, Note_on_c, 3, 47, 96
5, 577280, Note_off_c, 3, 47, 0
5, 577280, Note_on_c, 3, 43, 96
5, 577536, Note_off_c, 3, 43, 0
5, 577536, Note_on_c, 3, 48, 96
5, 578560, Note_off_c, 3, 48, 0
5, 579840, Note_on_c, 3, 45, 96
5, 580096, Note_off_c, 3, 45, 0
5, 580096, Note_on_c, 3, 48, 96
5, 580352, Note_off_c, 3, 48, 0
5, 580352, Note_on_c, 3, 45, 96
5, 580608, Note_off_c, 3, 45, 0
5, 580608, Note_on_c, 3, 50, 96
5, 581632, Note_off_c, 3, 50, 0
5, 582912, Note_on_c, 3, 50, 96
5, 583168, Note_off_c, 3, 50, 0
5, 583168, Note_on_c, 3, 54, 96
5, 583424, Note_off_c, 3, 54, 0
5, 583424, Note_on_c, 3, 50, 96
5, 583680, Note_off_c, 3, 50, 0
5, 583680, Note_on_c, 3, 55, 96
5, 584704, Note_off_c, 3, 55, 0
5, 585984, Note_on_c, 3, 55, 96
5, 586240, Note_off_c, 3, 55, 0
5, 586240, Note_on_c, 3, 59, 96
5, 586496, Note_off_c, 3, 59, 0
5, 586496, Note_on_c, 3, 55, 96
5, 586752, Note_off_c, 3, 55, 0
5, 586752, Note_on_c, 3, 60, 96
5, 587776, Note_off_c, 3, 60, 0
5, 589056, Note_on_c, 3, 57, 96
5, 589312, Note_off_c, 3, 57, 0
5, 589312, Note_on_c, 3, 60, 96
5, 589568, Note_off_c, 3, 60, 0
5, 589568, Note_on_c, 3, 57, 96
5, 589824, Note_off_c, 3, 57, 0
5, 589824, Note_on_c, 3, 62, 96
5, 597248, Note_off_c, 3, 62, 0
5, 597248, Note_on_c, 3, 62, 96
5, 597504, Note_off_c, 3, 62, 0
5, 597504, Note_on_c, 3, 57, 96
5, 597760, Note_off_c, 3, 57, 0
5, 597760, Note_on_c, 3, 60, 96
5, 598016, Note_off_c, 3, 60, 0
5, 598016, Note_on_c, 3, 54, 96
5, 598272, Note_off_c, 3, 54, 0
5, 598272, Note_on_c, 3, 57, 96
5, 598528, Note_off_c, 3, 57, 0
5, 598528, Note_on_c, 3, 50, 96
5, 598784, Note_off_c, 3, 50, 0
5, 598784, Note_on_c, 3, 54, 96
5, 599040, Note_off_c, 3, 54, 0
5, 599040, Note_on_c, 3, 47, 96
5, 599552, Note_off_c, 3, 47, 0
5, 599552, Note_on_c, 3, 52, 96
5, 600064, Note_off_c, 3, 52, 0
5, 600064, Note_on_c, 3, 50, 96
5, 600576, Note_off_c, 3, 50, 0
5, 600576, Note_on_c, 3, 48, 96
5, 601088, Note_off_c, 3, 48, 0
5, 601088, Note_on_c, 3, 47, 96
5, 601600, Note_off_c, 3, 47, 0
5, 601600, Note_on_c, 3, 45, 96
5, 602112, Note_off_c, 3, 45, 0
5, 602112, Note_on_c, 3, 47, 96
5, 602624, Note_off_c, 3, 47, 0
5, 602624, Note_on_c, 3, 48, 96
5, 603136, Note_off_c, 3, 48, 0
5, 603136, Note_on_c, 3, 50, 96
5, 604160, Note_off_c, 3, 50, 0
5, 604160, Note_on_c, 3, 38, 96
5, 605184, Note_off_c, 3, 38, 0
5, 605184, Note_on_c, 3, 43, 96
5, 606720, Note_off_c, 3, 43, 0
5, 606720, Note_on_c, 3, 45, 96
5, 607232, Note_off_c, 3, 45, 0
5, 607232, Note_on_c, 3, 47, 96
5, 607744, Note_off_c, 3, 47, 0
5, 607744, Note_on_c, 3, 43, 96
5, 608256, Note_off_c, 3, 43, 0
5, 608256, Note_on_c, 3, 48, 96
5, 609792, Note_off_c, 3, 48, 0
5, 609792, Note_on_c, 3, 38, 96
5, 610304, Note_off_c, 3, 38, 0
5, 610304, Note_on_c, 3, 40, 96
5, 610816, Note_off_c, 3, 40, 0
5, 610816, Note_on_c, 3, 36, 96
5, 611328, Note_off_c, 3, 36, 0
5, 611328, Note_on_c, 3, 43, 96
5, 615424, Note_off_c, 3, 43, 0
5, 615424, End_track
6, 0, Start_track
6, 0, Title_t, "Instrument 5"
6, 29696, Note_on_c, 4, 38, 96
6, 30720, Note_off_c, 4, 38, 0
6, 30720, Note_on_c, 4, 40, 96
6, 31744, Note_off_c, 4, 40, 0
6, 31744, Note_on_c, 4, 38, 96
6, 33280, Note_off_c, 4, 38, 0
6, 33280, Note_on_c, 4, 36, 96
6, 33792, Note_off_c, 4, 36, 0
6, 33792, Note_on_c, 4, 35, 96
6, 35328, Note_off_c, 4, 35, 0
6, 35328, Note_on_c, 4, 36, 96
6, 35840, Note_off_c, 4, 36, 0
6, 35840, Note_on_c, 4, 38, 96
6, 36864, Note_off_c, 4, 38, 0
6, 36864, Note_on_c, 4, 33, 96
6, 39936, Note_off_c, 4, 33, 0
6, 39936, Note_on_c, 4, 35, 96
6, 40960, Note_off_c, 4, 35, 0
6, 40960, Note_on_c, 4, 37, 96
6, 43008, Note_off_c, 4, 37, 0
6, 43008, Note_on_c, 4, 38, 96
6, 43520, Note_off_c, 4, 38, 0
6, 43520, Note_on_c, 4, 33, 96
6, 44032, Note_off_c, 4, 33, 0
6, 44032, Note_on_c, 4, 38, 96
6, 44544, Note_off_c, 4, 38, 0
6, 44544, Note_on_c, 4, 36, 96
6, 45056, Note_off_c, 4, 36, 0
6, 45056, Note_on_c, 4, 35, 96
6, 45568, Note_off_c, 4, 35, 0
6, 45568, Note_on_c, 4, 33, 96
6, 46080, Note_off_c, 4, 33, 0
6, 46080, Note_on_c, 4, 31, 96
6, 46592, Note_off_c, 4, 31, 0
6, 46592, Note_on_c, 4, 38, 96
6, 47104, Note_off_c, 4, 38, 0
6, 47104, Note_on_c, 4, 43, 96
6, 47616, Note_off_c, 4, 43, 0
6, 47616, Note_on_c, 4, 41, 96
6, 48128, Note_off_c, 4, 41, 0
6, 48128, Note_on_c, 4, 40, 96
6, 48640, Note_off_c, 4, 40, 0
6, 48640, Note_on_c, 4, 38, 96
6, 49152, Note_off_c, 4, 38, 0
6, 49152, Note_on_c, 4, 36, 96
6, 50688, Note_off_c, 4, 36, 0
6, 50688, Note_on_c, 4, 35, 96
6, 51200, Note_off_c, 4, 35, 0
6, 51200, Note_on_c, 4, 33, 96
6, 52224, Note_off_c, 4, 33, 0
6, 52224, Note_on_c, 4, 31, 96
6, 53248, Note_off_c, 4, 31, 0
6, 53248, Note_on_c, 4, 43, 96
6, 56320, Note_off_c, 4, 43, 0
6, 56320, Note_on_c, 4, 42, 96
6, 58368, Note_off_c, 4, 42, 0
6, 58368, Note_on_c, 4, 43, 96
6, 59392, Note_off_c, 4, 43, 0
6, 59392, Note_on_c, 4, 40, 96
6, 60416, Note_off_c, 4, 40, 0
6, 60416, Note_on_c, 4, 33, 96
6, 61440, Note_off_c, 4, 33, 0
6, 61440, Note_on_c, 4, 35, 96
6, 62464, Note_off_c, 4, 35, 0
6, 62464, Note_on_c, 4, 33, 96
6, 64000, Note_off_c, 4, 33, 0
6, 64000, Note_on_c, 4, 31, 96
6, 64512, Note_off_c, 4, 31, 0
6, 64512, Note_on_c, 4, 30, 96
6, 66048, Note_off_c, 4, 30, 0
6, 66048, Note_on_c, 4, 31, 96
6, 66560, Note_off_c, 4, 31, 0
6, 66560, Note_on_c, 4, 33, 96
6, 67584, Note_off_c, 4, 33, 0
6, 67584, Note_on_c, 4, 26, 96
6, 70656, Note_off_c, 4, 26, 0
6, 70656, Note_on_c, 4, 28, 96
6, 71680, Note_off_c, 4, 28, 0
6, 71680, Note_on_c, 4, 30, 96
6, 73728, Note_off_c, 4, 30, 0
6, 73728, Note_on_c, 4, 31, 96
6, 80896, Note_off_c, 4, 31, 0
6, 101376, Note_on_c, 4, 38, 96
6, 102400, Note_off_c, 4, 38, 0
6, 102400, Note_on_c, 4, 40, 96
6, 103424, Note_off_c, 4, 40, 0
6, 103424, Note_on_c, 4, 38, 96
6, 104448, Note_off_c, 4, 38, 0
6, 104448, Note_on_c, 4, 33, 96
6, 105984, Note_off_c, 4, 33, 0
6, 105984, Note_on_c, 4, 35, 96
6, 106496, Note_off_c, 4, 35, 0
6, 106496, Note_on_c, 4, 36, 96
6, 107520, Note_off_c, 4, 36, 0
6, 107520, Note_on_c, 4, 35, 96
6, 108544, Note_off_c, 4, 35, 0
6, 108544, Note_on_c, 4, 33, 96
6, 110592, Note_off_c, 4, 33, 0
6, 110592, Note_on_c, 4, 31, 96
6, 111104, Note_off_c, 4, 31, 0
6, 111104, Note_on_c, 4, 43, 96
6, 111616, Note_off_c, 4, 43, 0
6, 111616, Note_on_c, 4, 48, 96
6, 112128, Note_off_c, 4, 48, 0
6, 112128, Note_on_c, 4, 47, 96
6, 112640, Note_off_c, 4, 47, 0
6, 112640, Note_on_c, 4, 45, 96
6, 113152, Note_off_c, 4, 45, 0
6, 113152, Note_on_c, 4, 43, 96
6, 113664, Note_off_c, 4, 43, 0
6, 113664, Note_on_c, 4, 42, 96
6, 114176, Note_off_c, 4, 42, 0
6, 114176, Note_on_c, 4, 45, 96
6, 114688, Note_off_c, 4, 45, 0
6, 114688, Note_on_c, 4, 43, 96
6, 115200, Note_off_c, 4, 43, 0
6, 115200, Note_on_c, 4, 42, 96
6, 115712, Note_off_c, 4, 42, 0
6, 115712, Note_on_c, 4, 40, 96
6, 116224, Note_off_c, 4, 40, 0
6, 116224, Note_on_c, 4, 42, 96
6, 116736, Note_off_c, 4, 42, 0
6, 116736, Note_on_c, 4, 43, 96
6, 117248, Note_off_c, 4, 43, 0
6, 117248, Note_on_c, 4, 35, 96
6, 117760, Note_off_c, 4, 35, 0
6, 117760, Note_on_c, 4, 36, 96
6, 118272, Note_off_c, 4, 36, 0
6, 118272, Note_on_c, 4, 35, 96
6, 118784, Note_off_c, 4, 35, 0
6, 118784, Note_on_c, 4, 36, 96
6, 119296, Note_off_c, 4, 36, 0
6, 119296, Note_on_c, 4, 38, 96
6, 119808, Note_off_c, 4, 38, 0
6, 119808, Note_on_c, 4, 31, 96
6, 120320, Note_off_c, 4, 31, 0
6, 120320, Note_on_c, 4, 33, 96
6, 120832, Note_off_c, 4, 33, 0
6, 120832, Note_on_c, 4, 35, 96
6, 121344, Note_off_c, 4, 35, 0
6, 121344, Note_on_c, 4, 31, 96
6, 121856, Note_off_c, 4, 31, 0
6, 121856, Note_on_c, 4, 36, 96
6, 122368, Note_off_c, 4, 36, 0
6, 122368, Note_on_c, 4, 38, 96
6, 122880, Note_off_c, 4, 38, 0
6, 122880, Note_on_c, 4, 40, 96
6, 123392, Note_off_c, 4, 40, 0
6, 123392, Note_on_c, 4, 36, 96
6, 123904, Note_off_c, 4, 36, 0
6, 123904, Note_on_c, 4, 43, 96
6, 130048, Note_off_c, 4, 43, 0
6, 161792, Note_on_c, 4, 31, 96
6, 162816, Note_off_c, 4, 31, 0
6, 162816, Note_on_c, 4, 33, 96
6, 164352, Note_off_c, 4, 33, 0
6, 164352, Note_on_c, 4, 35, 96
6, 164864, Note_off_c, 4, 35, 0
6, 164864, Note_on_c, 4, 36, 96
6, 165888, Note_off_c, 4, 36, 0
6, 165888, Note_on_c, 4, 35, 96
6, 166912, Note_off_c, 4, 35, 0
6, 166912, Note_on_c, 4, 38, 96
6, 168960, Note_off_c, 4, 38, 0
6, 168960, Note_on_c, 4, 33, 96
6, 170496, Note_off_c, 4, 33, 0
6, 170496, Note_on_c, 4, 31, 96
6, 171008, Note_off_c, 4, 31, 0
6, 171008, Note_on_c, 4, 30, 96
6, 172544, Note_off_c, 4, 30, 0
6, 172544, Note_on_c, 4, 31, 96
6, 173056, Note_off_c, 4, 31, 0
6, 173056, Note_on_c, 4, 28, 96
6, 175104, Note_off_c, 4, 28, 0
6, 175104, Note_on_c, 4, 26, 96
6, 177152, Note_off_c, 4, 26, 0
6, 177152, Note_on_c, 4, 28, 96
6, 178176, Note_off_c, 4, 28, 0
6, 178176, Note_on_c, 4, 30, 96
6, 179712, Note_off_c, 4, 30, 0
6, 179712, Note_on_c, 4, 31, 96
6, 180224, Note_off_c, 4, 31, 0
6, 180224, Note_on_c, 4, 33, 96
6, 181248, Note_off_c, 4, 33, 0
6, 181248, Note_on_c, 4, 31, 96
6, 181760, Note_off_c, 4, 31, 0
6, 181760, Note_on_c, 4, 33, 96
6, 182272, Note_off_c, 4, 33, 0
6, 182272, Note_on_c, 4, 35, 96
6, 183296, Note_off_c, 4, 35, 0
6, 183296, Note_on_c, 4, 36, 96
6, 183808, Note_off_c, 4, 36, 0
6, 183808, Note_on_c, 4, 35, 96
6, 184320, Note_off_c, 4, 35, 0
6, 184320, Note_on_c, 4, 33, 96
6, 184832, Note_off_c, 4, 33, 0
6, 184832, Note_on_c, 4, 31, 96
6, 185344, Note_off_c, 4, 31, 0
6, 185344, Note_on_c, 4, 30, 96
6, 185856, Note_off_c, 4, 30, 0
6, 185856, Note_on_c, 4, 28, 96
6, 186368, Note_off_c, 4, 28, 0
6, 186368, Note_on_c, 4, 30, 96
6, 186880, Note_off_c, 4, 30, 0
6, 186880, Note_on_c, 4, 26, 96
6, 187392, Note_off_c, 4, 26, 0
6, 187392, Note_on_c, 4, 31, 96
6, 190976, Note_off_c, 4, 31, 0
6, 190976, Note_on_c, 4, 43, 96
6, 191488, Note_off_c, 4, 43, 0
6, 191488, Note_on_c, 4, 42, 96
6, 192000, Note_off_c, 4, 42, 0
6, 192000, Note_on_c, 4, 40, 96
6, 192512, Note_off_c, 4, 40, 0
6, 192512, Note_on_c, 4, 38, 96
6, 193024, Note_off_c, 4, 38, 0
6, 193024, Note_on_c, 4, 37, 96
6, 193536, Note_off_c, 4, 37, 0
6, 193536, Note_on_c, 4, 35, 96
6, 194048, Note_off_c, 4, 35, 0
6, 194048, Note_on_c, 4, 33, 96
6, 194560, Note_off_c, 4, 33, 0
6, 194560, Note_on_c, 4, 31, 96
6, 195072, Note_off_c, 4, 31, 0
6, 195072, Note_on_c, 4, 28, 96
6, 195584, Note_off_c, 4, 28, 0
6, 195584, Note_on_c, 4, 33, 96
6, 196608, Note_off_c, 4, 33, 0
6, 196608, Note_on_c, 4, 26, 96
6, 197120, Note_off_c, 4, 26, 0
6, 197120, Note_on_c, 4, 28, 96
6, 197632, Note_off_c, 4, 28, 0
6, 197632, Note_on_c, 4, 30, 96
6, 198144, Note_off_c, 4, 30, 0
6, 198144, Note_on_c, 4, 26, 96
6, 198656, Note_off_c, 4, 26, 0
6, 198656, Note_on_c, 4, 31, 96
6, 199168, Note_off_c, 4, 31, 0
6, 199168, Note_on_c, 4, 33, 96
6, 199680, Note_off_c, 4, 33, 0
6, 199680, Note_on_c, 4, 35, 96
6, 200192, Note_off_c, 4, 35, 0
6, 200192, Note_on_c, 4, 31, 96
6, 200704, Note_off_c, 4, 31, 0
6, 200704, Note_on_c, 4, 38, 96
6, 203776, Note_off_c, 4, 38, 0
6, 248832, Note_on_c, 4, 26, 96
6, 249856, Note_off_c, 4, 26, 0
6, 249856, Note_on_c, 4, 31, 96
6, 250880, Note_off_c, 4, 31, 0
6, 250880, Note_on_c, 4, 33, 96
6, 251904, Note_off_c, 4, 33, 0
6, 251904, Note_on_c, 4, 35, 96
6, 253440, Note_off_c, 4, 35, 0
6, 253440, Note_on_c, 4, 36, 96
6, 253952, Note_off_c, 4, 36, 0
6, 253952, Note_on_c, 4, 38, 96
6, 256000, Note_off_c, 4, 38, 0
6, 256000, Note_on_c, 4, 36, 96
6, 258560, Note_off_c, 4, 36, 0
6, 258560, Note_on_c, 4, 35, 96
6, 259072, Note_off_c, 4, 35, 0
6, 259072, Note_on_c, 4, 33, 96
6, 261120, Note_off_c, 4, 33, 0
6, 261120, Note_on_c, 4, 35, 96
6, 262144, Note_off_c, 4, 35, 0
6, 262144, Note_on_c, 4, 40, 96
6, 262656, Note_off_c, 4, 40, 0
6, 262656, Note_on_c, 4, 38, 96
6, 263168, Note_off_c, 4, 38, 0
6, 263168, Note_on_c, 4, 36, 96
6, 263680, Note_off_c, 4, 36, 0
6, 263680, Note_on_c, 4, 38, 96
6, 264192, Note_off_c, 4, 38, 0
6, 264192, Note_on_c, 4, 31, 96
6, 264704, Note_off_c, 4, 31, 0
6, 264704, Note_on_c, 4, 38, 96
6, 265216, Note_off_c, 4, 38, 0
6, 265216, Note_on_c, 4, 43, 96
6, 266752, Note_off_c, 4, 43, 0
6, 266752, Note_on_c, 4, 41, 96
6, 267264, Note_off_c, 4, 41, 0
6, 267264, Note_on_c, 4, 40, 96
6, 267776, Note_off_c, 4, 40, 0
6, 267776, Note_on_c, 4, 33, 96
6, 268288, Note_off_c, 4, 33, 0
6, 268800, Note_on_c, 4, 45, 96
6, 269312, Note_off_c, 4, 45, 0
6, 269312, Note_on_c, 4, 40, 96
6, 269824, Note_off_c, 4, 40, 0
6, 269824, Note_on_c, 4, 42, 96
6, 270336, Note_off_c, 4, 42, 0
6, 270336, Note_on_c, 4, 43, 96
6, 271872, Note_off_c, 4, 43, 0
6, 271872, Note_on_c, 4, 43, 96
6, 272384, Note_off_c, 4, 43, 0
6, 272384, Note_on_c, 4, 42, 96
6, 272896, Note_off_c, 4, 42, 0
6, 272896, Note_on_c, 4, 40, 96
6, 273408, Note_off_c, 4, 40, 0
6, 273408, Note_on_c, 4, 39, 96
6, 274432, Note_off_c, 4, 39, 0
6, 274432, Note_on_c, 4, 40, 96
6, 275456, Note_off_c, 4, 40, 0
6, 275456, Note_on_c, 4, 42, 96
6, 276480, Note_off_c, 4, 42, 0
6, 276480, Note_on_c, 4, 43, 96
6, 277504, Note_off_c, 4, 43, 0
6, 277504, Note_on_c, 4, 45, 96
6, 278528, Note_off_c, 4, 45, 0
6, 278528, Note_on_c, 4, 47, 96
6, 279552, Note_off_c, 4, 47, 0
6, 279552, Note_on_c, 4, 40, 96
6, 280576, Note_off_c, 4, 40, 0
6, 307200, Note_on_c, 4, 35, 96
6, 307712, Note_off_c, 4, 35, 0
6, 307712, Note_on_c, 4, 37, 96
6, 308224, Note_off_c, 4, 37, 0
6, 308224, Note_on_c, 4, 38, 96
6, 309248, Note_off_c, 4, 38, 0
6, 309248, Note_on_c, 4, 40, 96
6, 310272, Note_off_c, 4, 40, 0
6, 310272, Note_on_c, 4, 38, 96
6, 312320, Note_off_c, 4, 38, 0
6, 312320, Note_on_c, 4, 33, 96
6, 313344, Note_off_c, 4, 33, 0
6, 313344, Note_on_c, 4, 35, 96
6, 314368, Note_off_c, 4, 35, 0
6, 314368, Note_on_c, 4, 37, 96
6, 316416, Note_off_c, 4, 37, 0
6, 316416, Note_on_c, 4, 38, 96
6, 317952, Note_off_c, 4, 38, 0
6, 317952, Note_on_c, 4, 40, 96
6, 318464, Note_off_c, 4, 40, 0
6, 318464, Note_on_c, 4, 42, 96
6, 318976, Note_off_c, 4, 42, 0
6, 318976, Note_on_c, 4, 38, 96
6, 319488, Note_off_c, 4, 38, 0
6, 319488, Note_on_c, 4, 43, 96
6, 320000, Note_off_c, 4, 43, 0
6, 320000, Note_on_c, 4, 45, 96
6, 320512, Note_off_c, 4, 45, 0
6, 320512, Note_on_c, 4, 47, 96
6, 321024, Note_off_c, 4, 47, 0
6, 321024, Note_on_c, 4, 43, 96
6, 321536, Note_off_c, 4, 43, 0
6, 321536, Note_on_c, 4, 48, 96
6, 323072, Note_off_c, 4, 48, 0
6, 323072, Note_on_c, 4, 48, 96
6, 323584, Note_off_c, 4, 48, 0
6, 323584, Note_on_c, 4, 47, 96
6, 324096, Note_off_c, 4, 47, 0
6, 324096, Note_on_c, 4, 45, 96
6, 324608, Note_off_c, 4, 45, 0
6, 324608, Note_on_c, 4, 43, 96
6, 325120, Note_off_c, 4, 43, 0
6, 325120, Note_on_c, 4, 42, 96
6, 325632, Note_off_c, 4, 42, 0
6, 325632, Note_on_c, 4, 43, 96
6, 326144, Note_off_c, 4, 43, 0
6, 326144, Note_on_c, 4, 47, 96
6, 326656, Note_off_c, 4, 47, 0
6, 326656, Note_on_c, 4, 40, 96
6, 327168, Note_off_c, 4, 40, 0
6, 327168, Note_on_c, 4, 45, 96
6, 327680, Note_off_c, 4, 45, 0
6, 327680, Note_on_c, 4, 43, 96
6, 328192, Note_off_c, 4, 43, 0
6, 328192, Note_on_c, 4, 45, 96
6, 328704, Note_off_c, 4, 45, 0
6, 328704, Note_on_c, 4, 38, 96
6, 331264, Note_off_c, 4, 38, 0
6, 331264, Note_on_c, 4, 36, 96
6, 331776, Note_off_c, 4, 36, 0
6, 331776, Note_on_c, 4, 35, 96
6, 332288, Note_off_c, 4, 35, 0
6, 332288, Note_on_c, 4, 33, 96
6, 332800, Note_off_c, 4, 33, 0
6, 332800, Note_on_c, 4, 31, 96
6, 333312, Note_off_c, 4, 31, 0
6, 333312, Note_on_c, 4, 43, 96
6, 333824, Note_off_c, 4, 43, 0
6, 333824, Note_on_c, 4, 42, 96
6, 334336, Note_off_c, 4, 42, 0
6, 334336, Note_on_c, 4, 40, 96
6, 334848, Note_off_c, 4, 40, 0
6, 334848, Note_on_c, 4, 38, 96
6, 335360, Note_off_c, 4, 38, 0
6, 335360, Note_on_c, 4, 31, 96
6, 335872, Note_off_c, 4, 31, 0
6, 335872, Note_on_c, 4, 33, 96
6, 337920, Note_off_c, 4, 33, 0
6, 337920, Note_on_c, 4, 26, 96
6, 338944, Note_off_c, 4, 26, 0
6, 356352, Note_on_c, 4, 38, 96
6, 357376, Note_off_c, 4, 38, 0
6, 357376, Note_on_c, 4, 40, 96
6, 358400, Note_off_c, 4, 40, 0
6, 358400, Note_on_c, 4, 38, 96
6, 359424, Note_off_c, 4, 38, 0
6, 359424, Note_on_c, 4, 33, 96
6, 361472, Note_off_c, 4, 33, 0
6, 361472, Note_on_c, 4, 36, 96
6, 362496, Note_off_c, 4, 36, 0
6, 362496, Note_on_c, 4, 35, 96
6, 363520, Note_off_c, 4, 35, 0
6, 363520, Note_on_c, 4, 33, 96
6, 365568, Note_off_c, 4, 33, 0
6, 365568, Note_on_c, 4, 31, 96
6, 366080, Note_off_c, 4, 31, 0
6, 366080, Note_on_c, 4, 43, 96
6, 366592, Note_off_c, 4, 43, 0
6, 366592, Note_on_c, 4, 48, 96
6, 367104, Note_off_c, 4, 48, 0
6, 367104, Note_on_c, 4, 47, 96
6, 367616, Note_off_c, 4, 47, 0
6, 367616, Note_on_c, 4, 45, 96
6, 368128, Note_off_c, 4, 45, 0
6, 368128, Note_on_c, 4, 43, 96
6, 368640, Note_off_c, 4, 43, 0
6, 368640, Note_on_c, 4, 42, 96
6, 369152, Note_off_c, 4, 42, 0
6, 369152, Note_on_c, 4, 40, 96
6, 369664, Note_off_c, 4, 40, 0
6, 369664, Note_on_c, 4, 38, 96
6, 370176, Note_off_c, 4, 38, 0
6, 370176, Note_on_c, 4, 36, 96
6, 370688, Note_off_c, 4, 36, 0
6, 370688, Note_on_c, 4, 35, 96
6, 371200, Note_off_c, 4, 35, 0
6, 371200, Note_on_c, 4, 33, 96
6, 371712, Note_off_c, 4, 33, 0
6, 371712, Note_on_c, 4, 31, 96
6, 372224, Note_off_c, 4, 31, 0
6, 372224, Note_on_c, 4, 35, 96
6, 372736, Note_off_c, 4, 35, 0
6, 372736, Note_on_c, 4, 36, 96
6, 373248, Note_off_c, 4, 36, 0
6, 373248, Note_on_c, 4, 33, 96
6, 373760, Note_off_c, 4, 33, 0
6, 373760, Note_on_c, 4, 38, 96
6, 374272, Note_off_c, 4, 38, 0
6, 374272, Note_on_c, 4, 26, 96
6, 374784, Note_off_c, 4, 26, 0
6, 374784, Note_on_c, 4, 28, 96
6, 375808, Note_off_c, 4, 28, 0
6, 375808, Note_on_c, 4, 40, 96
6, 376320, Note_off_c, 4, 40, 0
6, 376320, Note_on_c, 4, 38, 96
6, 376832, Note_off_c, 4, 38, 0
6, 376832, Note_on_c, 4, 40, 96
6, 377344, Note_off_c, 4, 40, 0
6, 377344, Note_on_c, 4, 36, 96
6, 377856, Note_off_c, 4, 36, 0
6, 377856, Note_on_c, 4, 43, 96
6, 381952, Note_off_c, 4, 43, 0
6, 381952, Note_on_c, 4, 31, 96
6, 382976, Note_off_c, 4, 31, 0
6, 413696, Note_on_c, 4, 31, 96
6, 414720, Note_off_c, 4, 31, 0
6, 414720, Note_on_c, 4, 33, 96
6, 416256, Note_off_c, 4, 33, 0
6, 416256, Note_on_c, 4, 35, 96
6, 416768, Note_off_c, 4, 35, 0
6, 416768, Note_on_c, 4, 36, 96
6, 417792, Note_off_c, 4, 36, 0
6, 417792, Note_on_c, 4, 35, 96
6, 418816, Note_off_c, 4, 35, 0
6, 418816, Note_on_c, 4, 38, 96
6, 420864, Note_off_c, 4, 38, 0
6, 420864, Note_on_c, 4, 33, 96
6, 422400, Note_off_c, 4, 33, 0
6, 422400, Note_on_c, 4, 31, 96
6, 422912, Note_off_c, 4, 31, 0
6, 422912, Note_on_c, 4, 30, 96
6, 424448, Note_off_c, 4, 30, 0
6, 424448, Note_on_c, 4, 31, 96
6, 424960, Note_off_c, 4, 31, 0
6, 424960, Note_on_c, 4, 28, 96
6, 427008, Note_off_c, 4, 28, 0
6, 427008, Note_on_c, 4, 26, 96
6, 429056, Note_off_c, 4, 26, 0
6, 429056, Note_on_c, 4, 28, 96
6, 430080, Note_off_c, 4, 28, 0
6, 430080, Note_on_c, 4, 30, 96
6, 431616, Note_off_c, 4, 30, 0
6, 431616, Note_on_c, 4, 31, 96
6, 432128, Note_off_c, 4, 31, 0
6, 432128, Note_on_c, 4, 33, 96
6, 433152, Note_off_c, 4, 33, 0
6, 433152, Note_on_c, 4, 31, 96
6, 433664, Note_off_c, 4, 31, 0
6, 433664, Note_on_c, 4, 33, 96
6, 434176, Note_off_c, 4, 33, 0
6, 434176, Note_on_c, 4, 35, 96
6, 435200, Note_off_c, 4, 35, 0
6, 435200, Note_on_c, 4, 36, 96
6, 435712, Note_off_c, 4, 36, 0
6, 435712, Note_on_c, 4, 35, 96
6, 436224, Note_off_c, 4, 35, 0
6, 436224, Note_on_c, 4, 33, 96
6, 436736, Note_off_c, 4, 33, 0
6, 436736, Note_on_c, 4, 31, 96
6, 437248, Note_off_c, 4, 31, 0
6, 437248, Note_on_c, 4, 30, 96
6, 437760, Note_off_c, 4, 30, 0
6, 437760, Note_on_c, 4, 28, 96
6, 438272, Note_off_c, 4, 28, 0
6, 438272, Note_on_c, 4, 30, 96
6, 438784, Note_off_c, 4, 30, 0
6, 438784, Note_on_c, 4, 26, 96
6, 439296, Note_off_c, 4, 26, 0
6, 439296, Note_on_c, 4, 31, 96
6, 442880, Note_off_c, 4, 31, 0
6, 442880, Note_on_c, 4, 43, 96
6, 443392, Note_off_c, 4, 43, 0
6, 443392, Note_on_c, 4, 42, 96
6, 443904, Note_off_c, 4, 42, 0
6, 443904, Note_on_c, 4, 40, 96
6, 444416, Note_off_c, 4, 40, 0
6, 444416, Note_on_c, 4, 38, 96
6, 444928, Note_off_c, 4, 38, 0
6, 444928, Note_on_c, 4, 37, 96
6, 445440, Note_off_c, 4, 37, 0
6, 445440, Note_on_c, 4, 35, 96
6, 445952, Note_off_c, 4, 35, 0
6, 445952, Note_on_c, 4, 33, 96
6, 446464, Note_off_c, 4, 33, 0
6, 446464, Note_on_c, 4, 31, 96
6, 446976, Note_off_c, 4, 31, 0
6, 446976, Note_on_c, 4, 28, 96
6, 447488, Note_off_c, 4, 28, 0
6, 447488, Note_on_c, 4, 33, 96
6, 448512, Note_off_c, 4, 33, 0
6, 448512, Note_on_c, 4, 26, 96
6, 449024, Note_off_c, 4, 26, 0
6, 449024, Note_on_c, 4, 28, 96
6, 449536, Note_off_c, 4, 28, 0
6, 449536, Note_on_c, 4, 30, 96
6, 450048, Note_off_c, 4, 30, 0
6, 450048, Note_on_c, 4, 26, 96
6, 450560, Note_off_c, 4, 26, 0
6, 450560, Note_on_c, 4, 31, 96
6, 451072, Note_off_c, 4, 31, 0
6, 451072, Note_on_c, 4, 33, 96
6, 451584, Note_off_c, 4, 33, 0
6, 451584, Note_on_c, 4, 35, 96
6, 452096, Note_off_c, 4, 35, 0
6, 452096, Note_on_c, 4, 31, 96
6, 452608, Note_off_c, 4, 31, 0
6, 452608, Note_on_c, 4, 38, 96
6, 455680, Note_off_c, 4, 38, 0
6, 488448, Note_on_c, 4, 26, 96
6, 489472, Note_off_c, 4, 26, 0
6, 489472, Note_on_c, 4, 31, 96
6, 490496, Note_off_c, 4, 31, 0
6, 490496, Note_on_c, 4, 33, 96
6, 491520, Note_off_c, 4, 33, 0
6, 491520, Note_on_c, 4, 35, 96
6, 493056, Note_off_c, 4, 35, 0
6, 493056, Note_on_c, 4, 36, 96
6, 493568, Note_off_c, 4, 36, 0
6, 493568, Note_on_c, 4, 38, 96
6, 495104, Note_off_c, 4, 38, 0
6, 495104, Note_on_c, 4, 31, 96
6, 495616, Note_off_c, 4, 31, 0
6, 495616, Note_on_c, 4, 36, 96
6, 498176, Note_off_c, 4, 36, 0
6, 498176, Note_on_c, 4, 35, 96
6, 498688, Note_off_c, 4, 35, 0
6, 498688, Note_on_c, 4, 33, 96
6, 500224, Note_off_c, 4, 33, 0
6, 500224, Note_on_c, 4, 35, 96
6, 500736, Note_off_c, 4, 35, 0
6, 500736, Note_on_c, 4, 28, 96
6, 501760, Note_off_c, 4, 28, 0
6, 501760, Note_on_c, 4, 30, 96
6, 503808, Note_off_c, 4, 30, 0
6, 503808, Note_on_c, 4, 31, 96
6, 505856, Note_off_c, 4, 31, 0
6, 507392, Note_on_c, 4, 48, 96
6, 507904, Note_off_c, 4, 48, 0
6, 507904, Note_on_c, 4, 47, 96
6, 508416, Note_off_c, 4, 47, 0
6, 508416, Note_on_c, 4, 45, 96
6, 508928, Note_off_c, 4, 45, 0
6, 508928, Note_on_c, 4, 43, 96
6, 509440, Note_off_c, 4, 43, 0
6, 509440, Note_on_c, 4, 42, 96
6, 509952, Note_off_c, 4, 42, 0
6, 509952, Note_on_c, 4, 40, 96
6, 511488, Note_off_c, 4, 40, 0
6, 511488, Note_on_c, 4, 38, 96
6, 512000, Note_off_c, 4, 38, 0
6, 512000, Note_on_c, 4, 40, 96
6, 512512, Note_off_c, 4, 40, 0
6, 512512, Note_on_c, 4, 42, 96
6, 513024, Note_off_c, 4, 42, 0
6, 513024, Note_on_c, 4, 43, 96
6, 514560, Note_off_c, 4, 43, 0
6, 514560, Note_on_c, 4, 41, 96
6, 515072, Note_off_c, 4, 41, 0
6, 515072, Note_on_c, 4, 40, 96
6, 515584, Note_off_c, 4, 40, 0
6, 515584, Note_on_c, 4, 38, 96
6, 516096, Note_off_c, 4, 38, 0
6, 516096, Note_on_c, 4, 36, 96
6, 516608, Note_off_c, 4, 36, 0
6, 516608, Note_on_c, 4, 35, 96
6, 517120, Note_off_c, 4, 35, 0
6, 517120, Note_on_c, 4, 33, 96
6, 518144, Note_off_c, 4, 33, 0
6, 518144, Note_on_c, 4, 38, 96
6, 519168, Note_off_c, 4, 38, 0
6, 519168, Note_on_c, 4, 40, 96
6, 520192, Note_off_c, 4, 40, 0
6, 520192, Note_on_c, 4, 35, 96
6, 522240, Note_off_c, 4, 35, 0
6, 522240, Note_on_c, 4, 36, 96
6, 523776, Note_off_c, 4, 36, 0
6, 523776, Note_on_c, 4, 35, 96
6, 524288, Note_off_c, 4, 35, 0
6, 524288, Note_on_c, 4, 33, 96
6, 524800, Note_off_c, 4, 33, 0
6, 524800, Note_on_c, 4, 38, 96
6, 525312, Note_off_c, 4, 38, 0
6, 525312, Note_on_c, 4, 31, 96
6, 526336, Note_off_c, 4, 31, 0
6, 550400, Note_on_c, 4, 33, 96
6, 550912, Note_off_c, 4, 33, 0
6, 550912, Note_on_c, 4, 35, 96
6, 551424, Note_off_c, 4, 35, 0
6, 551424, Note_on_c, 4, 33, 96
6, 551936, Note_off_c, 4, 33, 0
6, 551936, Note_on_c, 4, 31, 96
6, 552448, Note_off_c, 4, 31, 0
6, 552448, Note_on_c, 4, 30, 96
6, 552960, Note_off_c, 4, 30, 0
6, 552960, Note_on_c, 4, 28, 96
6, 555008, Note_off_c, 4, 28, 0
6, 555008, Note_on_c, 4, 33, 96
6, 556032, Note_off_c, 4, 33, 0
6, 556032, Note_on_c, 4, 28, 96
6, 557056, Note_off_c, 4, 28, 0
6, 557056, Note_on_c, 4, 30, 96
6, 559104, Note_off_c, 4, 30, 0
6, 559104, Note_on_c, 4, 31, 96
6, 559616, Note_off_c, 4, 31, 0
6, 559616, Note_on_c, 4, 38, 96
6, 560128, Note_off_c, 4, 38, 0
6, 560128, Note_on_c, 4, 43, 96
6, 560640, Note_off_c, 4, 43, 0
6, 560640, Note_on_c, 4, 42, 96
6, 561152, Note_off_c, 4, 42, 0
6, 561152, Note_on_c, 4, 40, 96
6, 561664, Note_off_c, 4, 40, 0
6, 561664, Note_on_c, 4, 38, 96
6, 562176, Note_off_c, 4, 38, 0
6, 562176, Note_on_c, 4, 37, 96
6, 565248, Note_off_c, 4, 37, 0
6, 565248, Note_on_c, 4, 38, 96
6, 566272, Note_off_c, 4, 38, 0
6, 566272, Note_on_c, 4, 31, 96
6, 566784, Note_off_c, 4, 31, 0
6, 566784, Note_on_c, 4, 33, 96
6, 567296, Note_off_c, 4, 33, 0
6, 567296, Note_on_c, 4, 35, 96
6, 568320, Note_off_c, 4, 35, 0
6, 568320, Note_on_c, 4, 36, 96
6, 568832, Note_off_c, 4, 36, 0
6, 568832, Note_on_c, 4, 38, 96
6, 569344, Note_off_c, 4, 38, 0
6, 569344, Note_on_c, 4, 40, 96
6, 569856, Note_off_c, 4, 40, 0
6, 569856, Note_on_c, 4, 38, 96
6, 570368, Note_off_c, 4, 38, 0
6, 570368, Note_on_c, 4, 36, 96
6, 570880, Note_off_c, 4, 36, 0
6, 570880, Note_on_c, 4, 35, 96
6, 571392, Note_off_c, 4, 35, 0
6, 571392, Note_on_c, 4, 36, 96
6, 571904, Note_off_c, 4, 36, 0
6, 571904, Note_on_c, 4, 40, 96
6, 572416, Note_off_c, 4, 40, 0
6, 572416, Note_on_c, 4, 38, 96
6, 572928, Note_off_c, 4, 38, 0
6, 572928, Note_on_c, 4, 36, 96
6, 573440, Note_off_c, 4, 36, 0
6, 573440, Note_on_c, 4, 35, 96
6, 573952, Note_off_c, 4, 35, 0
6, 573952, Note_on_c, 4, 33, 96
6, 574464, Note_off_c, 4, 33, 0
6, 574464, Note_on_c, 4, 35, 96
6, 575488, Note_off_c, 4, 35, 0
6, 576768, Note_on_c, 4, 31, 96
6, 577024, Note_off_c, 4, 31, 0
6, 577024, Note_on_c, 4, 35, 96
6, 577280, Note_off_c, 4, 35, 0
6, 577280, Note_on_c, 4, 31, 96
6, 577536, Note_off_c, 4, 31, 0
6, 577536, Note_on_c, 4, 36, 96
6, 578560, Note_off_c, 4, 36, 0
6, 579840, Note_on_c, 4, 33, 96
6, 580096, Note_off_c, 4, 33, 0
6, 580096, Note_on_c, 4, 36, 96
6, 580352, Note_off_c, 4, 36, 0
6, 580352, Note_on_c, 4, 33, 96
6, 580608, Note_off_c, 4, 33, 0
6, 580608, Note_on_c, 4, 38, 96
6, 581632, Note_off_c, 4, 38, 0
6, 582912, Note_on_c, 4, 38, 96
6, 583168, Note_off_c, 4, 38, 0
6, 583168, Note_on_c, 4, 42, 96
6, 583424, Note_off_c, 4, 42, 0
6, 583424, Note_on_c, 4, 38, 96
6, 583680, Note_off_c, 4, 38, 0
6, 583680, Note_on_c, 4, 43, 96
6, 584704, Note_off_c, 4, 43, 0
6, 585984, Note_on_c, 4, 43, 96
6, 586240, Note_off_c, 4, 43, 0
6, 586240, Note_on_c, 4, 47, 96
6, 586496, Note_off_c, 4, 47, 0
6, 586496, Note_on_c, 4, 43, 96
6, 586752, Note_off_c, 4, 43, 0
6, 586752, Note_on_c, 4, 48, 96
6, 587776, Note_off_c, 4, 48, 0
6, 589056, Note_on_c, 4, 45, 96
6, 589312, Note_off_c, 4, 45, 0
6, 589312, Note_on_c, 4, 48, 96
6, 589568, Note_off_c, 4, 48, 0
6, 589568, Note_on_c, 4, 45, 96
6, 589824, Note_off_c, 4, 45, 0
6, 589824, Note_on_c, 4, 50, 96
6, 597248, Note_off_c, 4, 50, 0
6, 597248, Note_on_c, 4, 50, 96
6, 597504, Note_off_c, 4, 50, 0
6, 597504, Note_on_c, 4, 45, 96
6, 597760, Note_off_c, 4, 45, 0
6, 597760, Note_on_c, 4, 48, 96
6, 598016, Note_off_c, 4, 48, 0
6, 598016, Note_on_c, 4, 42, 96
6, 598272, Note_off_c, 4, 42, 0
6, 598272, Note_on_c, 4, 45, 96
6, 598528, Note_off_c, 4, 45, 0
6, 598528, Note_on_c, 4, 38, 96
6, 598784, Note_off_c, 4, 38, 0
6, 598784, Note_on_c, 4, 42, 96
6, 599040, Note_off_c, 4, 42, 0
6, 599040, Note_on_c, 4, 35, 96
6, 599552, Note_off_c, 4, 35, 0
6, 599552, Note_on_c, 4, 40, 96
6, 600064, Note_off_c, 4, 40, 0
6, 600064, Note_on_c, 4, 38, 96
6, 600576, Note_off_c, 4, 38, 0
6, 600576, Note_on_c, 4, 36, 96
6, 601088, Note_off_c, 4, 36, 0
6, 601088, Note_on_c, 4, 35, 96
6, 601600, Note_off_c, 4, 35, 0
6, 601600, Note_on_c, 4, 33, 96
6, 602112, Note_off_c, 4, 33, 0
6, 602112, Note_on_c, 4, 35, 96
6, 602624, Note_off_c, 4, 35, 0
6, 602624, Note_on_c, 4, 36, 96
6, 603136, Note_off_c, 4, 36, 0
6, 603136, Note_on_c, 4, 38, 96
6, 604160, Note_off_c, 4, 38, 0
6, 604160, Note_on_c, 4, 26, 96
6, 605184, Note_off_c, 4, 26, 0
6, 605184, Note_on_c, 4, 31, 96
6, 606720, Note_off_c, 4, 31, 0
6, 606720, Note_on_c, 4, 33, 96
6, 607232, Note_off_c, 4, 33, 0
6, 607232, Note_on_c, 4, 35, 96
6, 607744, Note_off_c, 4, 35, 0
6, 607744, Note_on_c, 4, 31, 96
6, 608256, Note_off_c, 4, 31, 0
6, 608256, Note_on_c, 4, 36, 96
6, 609792, Note_off_c, 4, 36, 0
6, 609792, Note_on_c, 4, 26, 96
6, 610304, Note_off_c, 4, 26, 0
6, 610304, Note_on_c, 4, 28, 96
6, 610816, Note_off_c, 4, 28, 0
6, 610816, Note_on_c, 4, 24, 96
6, 611328, Note_off_c, 4, 24, 0
6, 611328, Note_on_c, 4, 31, 96
6, 615424, Note_off_c, 4, 31, 0
6, 615424, End_track
0, 0, End_of_file
