0, 0, Header, 1, 4, 384
1, 0, Start_track
1, 0, Tempo, 789470
1, 0, Time_signature, 4, 2, 24, 8
1, 50304, Tempo, 857140
1, 56832, Tempo, 923070
1, 58368, Tempo, 1000000
1, 58752, Tempo, 1090900
1, 59904, Tempo, 1333330
1, 61440, Tempo, 800000
1, 167424, Tempo, 923070
1, 168960, Tempo, 1333330
1, 169728, Tempo, 967740
1, 170880, Tempo, 1000000
1, 172032, Tempo, 1090900
1, 175872, Tempo, 1714280
1, 176640, End_track
2, 0, Start_track
2, 0, Title_t, "Track 1"
2, 13920, Note_on_c, 0, 55, 92
2, 14016, Note_off_c, 0, 55, 64
2, 14016, Note_on_c, 0, 60, 92
2, 14112, Note_off_c, 0, 60, 64
2, 14112, Note_on_c, 0, 55, 92
2, 14208, Note_off_c, 0, 55, 64
2, 14208, Note_on_c, 0, 60, 92
2, 14304, Note_off_c, 0, 60, 64
2, 14304, Note_on_c, 0, 60, 92
2, 14400, Note_off_c, 0, 60, 64
2, 14400, Note_on_c, 0, 64, 92
2, 14496, Note_off_c, 0, 64, 64
2, 14496, Note_on_c, 0, 60, 92
2, 14592, Note_off_c, 0, 60, 64
2, 14592, Note_on_c, 0, 55, 92
2, 14688, Note_off_c, 0, 55, 64
2, 14688, Note_on_c, 0, 67, 92
2, 14688, Note_on_c, 0, 60, 92
2, 14784, Note_off_c, 0, 60, 64
2, 14784, Note_off_c, 0, 67, 64
2, 14784, Note_on_c, 0, 72, 92
2, 14784, Note_on_c, 0, 64, 92
2, 14880, Note_off_c, 0, 64, 64
2, 14880, Note_off_c, 0, 72, 64
2, 14880, Note_on_c, 0, 67, 92
2, 14880, Note_on_c, 0, 60, 92
2, 14976, Note_off_c, 0, 60, 64
2, 14976, Note_off_c, 0, 67, 64
2, 14976, Note_on_c, 0, 72, 92
2, 14976, Note_on_c, 0, 64, 92
2, 15072, Note_off_c, 0, 64, 64
2, 15072, Note_off_c, 0, 72, 64
2, 15072, Note_on_c, 0, 72, 92
2, 15072, Note_on_c, 0, 64, 92
2, 15168, Note_off_c, 0, 64, 64
2, 15168, Note_off_c, 0, 72, 64
2, 15168, Note_on_c, 0, 76, 92
2, 15168, Note_on_c, 0, 67, 92
2, 15264, Note_off_c, 0, 67, 64
2, 15264, Note_off_c, 0, 76, 64
2, 15264, Note_on_c, 0, 72, 92
2, 15264, Note_on_c, 0, 64, 92
2, 15360, Note_off_c, 0, 64, 64
2, 15360, Note_off_c, 0, 72, 64
2, 15360, Note_on_c, 0, 67, 92
2, 15360, Note_on_c, 0, 60, 92
2, 15456, Note_off_c, 0, 60, 64
2, 15456, Note_off_c, 0, 67, 64
2, 15456, Note_on_c, 0, 72, 92
2, 15456, Note_on_c, 0, 64, 92
2, 15552, Note_off_c, 0, 64, 64
2, 15552, Note_off_c, 0, 72, 64
2, 15552, Note_on_c, 0, 76, 92
2, 15552, Note_on_c, 0, 67, 92
2, 15648, Note_off_c, 0, 67, 64
2, 15648, Note_off_c, 0, 76, 64
2, 15648, Note_on_c, 0, 72, 92
2, 15648, Note_on_c, 0, 64, 92
2, 15744, Note_off_c, 0, 64, 64
2, 15744, Note_off_c, 0, 72, 64
2, 15744, Note_on_c, 0, 67, 92
2, 15744, Note_on_c, 0, 60, 92
2, 15840, Note_off_c, 0, 60, 64
2, 15840, Note_off_c, 0, 67, 64
2, 15840, Note_on_c, 0, 72, 92
2, 15840, Note_on_c, 0, 64, 92
2, 15936, Note_off_c, 0, 64, 64
2, 15936, Note_off_c, 0, 72, 64
2, 15936, Note_on_c, 0, 76, 92
2, 15936, Note_on_c, 0, 67, 92
2, 16032, Note_off_c, 0, 67, 64
2, 16032, Note_off_c, 0, 76, 64
2, 16032, Note_on_c, 0, 72, 92
2, 16032, Note_on_c, 0, 64, 92
2, 16128, Note_off_c, 0, 64, 64
2, 16128, Note_off_c, 0, 72, 64
2, 16128, Note_on_c, 0, 60, 92
2, 16128, Note_on_c, 0, 67, 92
2, 16224, Note_off_c, 0, 67, 64
2, 16224, Note_on_c, 0, 72, 92
2, 16320, Note_off_c, 0, 72, 64
2, 16320, Note_off_c, 0, 60, 64
2, 16320, Note_on_c, 0, 62, 92
2, 16320, Note_on_c, 0, 71, 92
2, 16416, Note_off_c, 0, 71, 64
2, 16416, Note_on_c, 0, 72, 92
2, 16512, Note_off_c, 0, 72, 64
2, 16512, Note_off_c, 0, 62, 64
2, 16512, Note_on_c, 0, 64, 92
2, 16512, Note_on_c, 0, 67, 92
2, 16608, Note_off_c, 0, 67, 64
2, 16608, Note_on_c, 0, 72, 92
2, 16704, Note_off_c, 0, 72, 64
2, 16704, Note_off_c, 0, 64, 64
2, 16704, Note_on_c, 0, 65, 92
2, 16704, Note_on_c, 0, 69, 92
2, 16800, Note_off_c, 0, 69, 64
2, 16800, Note_on_c, 0, 72, 92
2, 16896, Note_off_c, 0, 72, 64
2, 16896, Note_off_c, 0, 65, 64
2, 16896, Note_on_c, 0, 64, 92
2, 16896, Note_on_c, 0, 67, 92
2, 16992, Note_off_c, 0, 67, 64
2, 16992, Note_on_c, 0, 72, 92
2, 17088, Note_off_c, 0, 72, 64
2, 17088, Note_off_c, 0, 64, 64
2, 17088, Note_on_c, 0, 60, 92
2, 17088, Note_on_c, 0, 64, 92
2, 17184, Note_off_c, 0, 64, 64
2, 17184, Note_on_c, 0, 72, 92
2, 17280, Note_off_c, 0, 72, 64
2, 17280, Note_off_c, 0, 60, 64
2, 17280, Note_on_c, 0, 62, 92
2, 17280, Note_on_c, 0, 65, 92
2, 17376, Note_off_c, 0, 65, 64
2, 17376, Note_on_c, 0, 72, 92
2, 17472, Note_off_c, 0, 72, 64
2, 17472, Note_off_c, 0, 62, 64
2, 17472, Note_on_c, 0, 64, 92
2, 17472, Note_on_c, 0, 67, 92
2, 17568, Note_off_c, 0, 67, 64
2, 17568, Note_on_c, 0, 70, 92
2, 17664, Note_off_c, 0, 70, 64
2, 17664, Note_off_c, 0, 64, 64
2, 17664, Note_on_c, 0, 65, 92
2, 17664, Note_on_c, 0, 69, 92
2, 17760, Note_off_c, 0, 69, 64
2, 17760, Note_on_c, 0, 77, 92
2, 17856, Note_off_c, 0, 77, 64
2, 17856, Note_off_c, 0, 65, 64
2, 17856, Note_on_c, 0, 67, 92
2, 17856, Note_on_c, 0, 76, 92
2, 17952, Note_off_c, 0, 76, 64
2, 17952, Note_on_c, 0, 79, 92
2, 18048, Note_off_c, 0, 79, 64
2, 18048, Note_off_c, 0, 67, 64
2, 18048, Note_on_c, 0, 69, 92
2, 18048, Note_on_c, 0, 77, 92
2, 18144, Note_off_c, 0, 77, 64
2, 18144, Note_on_c, 0, 76, 92
2, 18240, Note_off_c, 0, 76, 64
2, 18240, Note_off_c, 0, 69, 64
2, 18240, Note_on_c, 0, 71, 92
2, 18240, Note_on_c, 0, 74, 92
2, 18336, Note_off_c, 0, 74, 64
2, 18336, Note_on_c, 0, 77, 92
2, 18432, Note_off_c, 0, 77, 64
2, 18432, Note_off_c, 0, 71, 64
2, 18432, Note_on_c, 0, 72, 92
2, 18432, Note_on_c, 0, 76, 92
2, 18528, Note_off_c, 0, 76, 64
2, 18528, Note_on_c, 0, 76, 92
2, 18624, Note_off_c, 0, 76, 64
2, 18624, Note_off_c, 0, 72, 64
2, 18624, Note_on_c, 0, 60, 92
2, 18624, Note_on_c, 0, 64, 92
2, 18624, Note_on_c, 0, 69, 92
2, 18624, Note_on_c, 0, 81, 92
2, 18720, Note_off_c, 0, 81, 64
2, 18720, Note_on_c, 0, 76, 92
2, 18816, Note_off_c, 0, 76, 64
2, 18816, Note_off_c, 0, 69, 64
2, 18816, Note_off_c, 0, 64, 64
2, 18816, Note_off_c, 0, 60, 64
2, 18816, Note_on_c, 0, 60, 92
2, 18816, Note_on_c, 0, 69, 92
2, 18816, Note_on_c, 0, 64, 92
2, 18816, Note_on_c, 0, 72, 92
2, 18912, Note_off_c, 0, 72, 64
2, 18912, Note_on_c, 0, 76, 92
2, 19008, Note_off_c, 0, 76, 64
2, 19008, Note_off_c, 0, 64, 64
2, 19008, Note_off_c, 0, 69, 64
2, 19008, Note_off_c, 0, 60, 64
2, 19008, Note_on_c, 0, 60, 92
2, 19008, Note_on_c, 0, 69, 92
2, 19008, Note_on_c, 0, 64, 92
2, 19008, Note_on_c, 0, 81, 92
2, 19104, Note_off_c, 0, 81, 64
2, 19104, Note_on_c, 0, 76, 92
2, 19200, Note_off_c, 0, 76, 64
2, 19200, Note_off_c, 0, 64, 64
2, 19200, Note_off_c, 0, 69, 64
2, 19200, Note_off_c, 0, 60, 64
2, 19200, Note_on_c, 0, 64, 92
2, 19200, Note_on_c, 0, 67, 92
2, 19200, Note_on_c, 0, 72, 92
2, 19584, Note_off_c, 0, 72, 64
2, 19584, Note_off_c, 0, 67, 64
2, 19584, Note_off_c, 0, 64, 64
2, 19776, Note_on_c, 0, 64, 92
2, 19776, Note_on_c, 0, 67, 92
2, 19776, Note_on_c, 0, 72, 92
2, 19968, Note_off_c, 0, 72, 64
2, 19968, Note_off_c, 0, 67, 64
2, 19968, Note_off_c, 0, 64, 64
2, 19968, Note_on_c, 0, 67, 92
2, 19968, Note_on_c, 0, 76, 92
2, 19968, Note_on_c, 0, 72, 92
2, 19968, Note_on_c, 0, 79, 92
2, 20352, Note_off_c, 0, 79, 64
2, 20352, Note_off_c, 0, 72, 64
2, 20352, Note_off_c, 0, 76, 64
2, 20352, Note_off_c, 0, 67, 64
2, 20544, Note_on_c, 0, 67, 92
2, 20544, Note_on_c, 0, 72, 92
2, 20544, Note_on_c, 0, 76, 92
2, 20544, Note_on_c, 0, 79, 92
2, 20736, Note_off_c, 0, 79, 64
2, 20736, Note_off_c, 0, 76, 64
2, 20736, Note_off_c, 0, 72, 64
2, 20736, Note_off_c, 0, 67, 64
2, 20736, Note_on_c, 0, 79, 92
2, 20736, Note_on_c, 0, 76, 92
2, 20736, Note_on_c, 0, 72, 92
2, 20736, Note_on_c, 0, 67, 92
2, 21120, Note_off_c, 0, 67, 64
2, 21120, Note_off_c, 0, 72, 64
2, 21120, Note_off_c, 0, 76, 64
2, 21120, Note_off_c, 0, 79, 64
2, 21216, Note_on_c, 0, 72, 92
2, 21312, Note_off_c, 0, 72, 64
2, 21312, Note_on_c, 0, 76, 92
2, 21408, Note_off_c, 0, 76, 64
2, 21408, Note_on_c, 0, 72, 92
2, 21504, Note_off_c, 0, 72, 64
2, 21504, Note_on_c, 0, 60, 92
2, 21504, Note_on_c, 0, 76, 92
2, 21600, Note_off_c, 0, 76, 64
2, 21600, Note_off_c, 0, 60, 64
2, 21600, Note_on_c, 0, 64, 92
2, 21600, Note_on_c, 0, 67, 92
2, 21696, Note_off_c, 0, 67, 64
2, 21696, Note_off_c, 0, 64, 64
2, 21696, Note_on_c, 0, 67, 92
2, 21696, Note_on_c, 0, 72, 92
2, 21792, Note_off_c, 0, 72, 64
2, 21792, Note_off_c, 0, 67, 64
2, 21792, Note_on_c, 0, 64, 92
2, 21792, Note_on_c, 0, 67, 92
2, 21888, Note_off_c, 0, 67, 64
2, 21888, Note_off_c, 0, 64, 64
2, 21888, Note_on_c, 0, 67, 92
2, 21888, Note_on_c, 0, 72, 92
2, 21984, Note_off_c, 0, 72, 64
2, 21984, Note_off_c, 0, 67, 64
2, 21984, Note_on_c, 0, 55, 92
2, 21984, Note_on_c, 0, 72, 92
2, 22080, Note_off_c, 0, 72, 64
2, 22080, Note_off_c, 0, 55, 64
2, 22080, Note_on_c, 0, 60, 92
2, 22080, Note_on_c, 0, 76, 92
2, 22176, Note_off_c, 0, 76, 64
2, 22176, Note_off_c, 0, 60, 64
2, 22176, Note_on_c, 0, 55, 92
2, 22176, Note_on_c, 0, 72, 92
2, 22272, Note_off_c, 0, 72, 64
2, 22272, Note_off_c, 0, 55, 64
2, 22272, Note_on_c, 0, 60, 92
2, 22272, Note_on_c, 0, 76, 92
2, 22368, Note_off_c, 0, 76, 64
2, 22368, Note_off_c, 0, 60, 64
2, 22368, Note_on_c, 0, 64, 92
2, 22368, Note_on_c, 0, 79, 92
2, 22464, Note_off_c, 0, 79, 64
2, 22464, Note_off_c, 0, 64, 64
2, 22464, Note_on_c, 0, 62, 92
2, 22464, Note_on_c, 0, 71, 92
2, 22560, Note_off_c, 0, 71, 64
2, 22560, Note_off_c, 0, 62, 64
2, 22560, Note_on_c, 0, 74, 92
2, 22560, Note_on_c, 0, 65, 92
2, 22656, Note_off_c, 0, 65, 64
2, 22656, Note_off_c, 0, 74, 64
2, 22656, Note_on_c, 0, 64, 92
2, 22656, Note_on_c, 0, 72, 92
2, 22752, Note_off_c, 0, 72, 64
2, 22752, Note_on_c, 0, 67, 92
2, 22848, Note_off_c, 0, 67, 64
2, 22848, Note_off_c, 0, 64, 64
2, 22848, Note_on_c, 0, 65, 92
2, 22848, Note_on_c, 0, 69, 92
2, 22944, Note_off_c, 0, 69, 64
2, 22944, Note_on_c, 0, 72, 92
2, 23040, Note_off_c, 0, 72, 64
2, 23040, Note_off_c, 0, 65, 64
2, 23040, Note_on_c, 0, 64, 92
2, 23040, Note_on_c, 0, 67, 92
2, 23136, Note_off_c, 0, 67, 64
2, 23136, Note_on_c, 0, 70, 92
2, 23232, Note_off_c, 0, 70, 64
2, 23232, Note_off_c, 0, 64, 64
2, 23232, Note_on_c, 0, 60, 92
2, 23232, Note_on_c, 0, 64, 92
2, 23328, Note_off_c, 0, 64, 64
2, 23328, Note_on_c, 0, 67, 92
2, 23424, Note_off_c, 0, 67, 64
2, 23424, Note_off_c, 0, 60, 64
2, 23424, Note_on_c, 0, 62, 92
2, 23424, Note_on_c, 0, 65, 92
2, 23520, Note_off_c, 0, 65, 64
2, 23520, Note_on_c, 0, 69, 92
2, 23616, Note_off_c, 0, 69, 64
2, 23616, Note_off_c, 0, 62, 64
2, 23616, Note_on_c, 0, 59, 92
2, 23616, Note_on_c, 0, 62, 92
2, 23712, Note_off_c, 0, 62, 64
2, 23712, Note_on_c, 0, 65, 92
2, 23808, Note_off_c, 0, 65, 64
2, 23808, Note_off_c, 0, 59, 64
2, 23808, Note_on_c, 0, 64, 92
2, 23904, Note_on_c, 0, 67, 92
2, 24000, Note_off_c, 0, 67, 64
2, 24000, Note_off_c, 0, 64, 64
2, 24000, Note_on_c, 0, 65, 92
2, 24000, Note_on_c, 0, 72, 92
2, 24096, Note_off_c, 0, 72, 64
2, 24096, Note_on_c, 0, 67, 92
2, 24192, Note_off_c, 0, 67, 64
2, 24192, Note_off_c, 0, 65, 64
2, 24192, Note_on_c, 0, 67, 92
2, 24192, Note_on_c, 0, 72, 92
2, 24288, Note_off_c, 0, 72, 64
2, 24288, Note_on_c, 0, 76, 92
2, 24384, Note_off_c, 0, 76, 64
2, 24384, Note_off_c, 0, 67, 64
2, 24384, Note_on_c, 0, 65, 92
2, 24384, Note_on_c, 0, 79, 92
2, 24480, Note_off_c, 0, 79, 64
2, 24480, Note_on_c, 0, 76, 92
2, 24576, Note_off_c, 0, 76, 64
2, 24576, Note_off_c, 0, 65, 64
2, 24576, Note_on_c, 0, 64, 92
2, 24576, Note_on_c, 0, 72, 92
2, 24672, Note_off_c, 0, 72, 64
2, 24672, Note_off_c, 0, 64, 64
2, 24672, Note_on_c, 0, 67, 92
2, 24672, Note_on_c, 0, 76, 92
2, 24768, Note_off_c, 0, 76, 64
2, 24768, Note_off_c, 0, 67, 64
2, 24768, Note_on_c, 0, 64, 92
2, 24768, Note_on_c, 0, 72, 92
2, 24864, Note_off_c, 0, 72, 64
2, 24864, Note_off_c, 0, 64, 64
2, 24864, Note_on_c, 0, 67, 92
2, 24864, Note_on_c, 0, 76, 92
2, 24960, Note_off_c, 0, 76, 64
2, 24960, Note_off_c, 0, 67, 64
2, 24960, Note_on_c, 0, 64, 92
2, 24960, Note_on_c, 0, 72, 92
2, 25056, Note_off_c, 0, 72, 64
2, 25056, Note_off_c, 0, 64, 64
2, 25056, Note_on_c, 0, 67, 92
2, 25056, Note_on_c, 0, 76, 92
2, 25152, Note_off_c, 0, 76, 64
2, 25152, Note_off_c, 0, 67, 64
2, 25152, Note_on_c, 0, 64, 92
2, 25152, Note_on_c, 0, 72, 92
2, 25248, Note_off_c, 0, 72, 64
2, 25248, Note_off_c, 0, 64, 64
2, 25248, Note_on_c, 0, 67, 92
2, 25248, Note_on_c, 0, 76, 92
2, 25344, Note_off_c, 0, 76, 64
2, 25344, Note_off_c, 0, 67, 64
2, 25344, Note_on_c, 0, 64, 92
2, 25344, Note_on_c, 0, 72, 92
2, 25440, Note_off_c, 0, 72, 64
2, 25440, Note_off_c, 0, 64, 64
2, 25440, Note_on_c, 0, 67, 92
2, 25440, Note_on_c, 0, 76, 92
2, 25536, Note_off_c, 0, 76, 64
2, 25536, Note_off_c, 0, 67, 64
2, 25536, Note_on_c, 0, 64, 92
2, 25536, Note_on_c, 0, 72, 92
2, 25632, Note_off_c, 0, 72, 64
2, 25632, Note_off_c, 0, 64, 64
2, 25632, Note_on_c, 0, 67, 92
2, 25632, Note_on_c, 0, 76, 92
2, 25728, Note_off_c, 0, 76, 64
2, 25728, Note_off_c, 0, 67, 64
2, 25728, Note_on_c, 0, 64, 92
2, 25728, Note_on_c, 0, 72, 92
2, 25824, Note_off_c, 0, 72, 64
2, 25824, Note_off_c, 0, 64, 64
2, 25824, Note_on_c, 0, 67, 92
2, 25824, Note_on_c, 0, 76, 92
2, 25920, Note_off_c, 0, 76, 64
2, 25920, Note_off_c, 0, 67, 64
2, 25920, Note_on_c, 0, 64, 92
2, 25920, Note_on_c, 0, 72, 92
2, 26016, Note_off_c, 0, 72, 64
2, 26016, Note_off_c, 0, 64, 64
2, 26016, Note_on_c, 0, 67, 92
2, 26016, Note_on_c, 0, 76, 92
2, 26112, Note_off_c, 0, 76, 64
2, 26112, Note_off_c, 0, 67, 64
2, 26112, Note_on_c, 0, 64, 92
2, 26112, Note_on_c, 0, 72, 92
2, 26208, Note_off_c, 0, 72, 64
2, 26208, Note_off_c, 0, 64, 64
2, 26208, Note_on_c, 0, 70, 92
2, 26208, Note_on_c, 0, 79, 92
2, 26304, Note_off_c, 0, 79, 64
2, 26304, Note_off_c, 0, 70, 64
2, 26304, Note_on_c, 0, 67, 92
2, 26304, Note_on_c, 0, 76, 92
2, 26400, Note_off_c, 0, 76, 64
2, 26400, Note_off_c, 0, 67, 64
2, 26400, Note_on_c, 0, 70, 92
2, 26400, Note_on_c, 0, 79, 92
2, 26496, Note_off_c, 0, 79, 64
2, 26496, Note_off_c, 0, 70, 64
2, 26496, Note_on_c, 0, 64, 92
2, 26496, Note_on_c, 0, 72, 92
2, 26592, Note_off_c, 0, 72, 64
2, 26592, Note_off_c, 0, 64, 64
2, 26592, Note_on_c, 0, 70, 92
2, 26592, Note_on_c, 0, 79, 92
2, 26688, Note_off_c, 0, 79, 64
2, 26688, Note_off_c, 0, 70, 64
2, 26688, Note_on_c, 0, 67, 92
2, 26688, Note_on_c, 0, 76, 92
2, 26784, Note_off_c, 0, 76, 64
2, 26784, Note_off_c, 0, 67, 64
2, 26784, Note_on_c, 0, 70, 92
2, 26784, Note_on_c, 0, 79, 92
2, 26880, Note_off_c, 0, 79, 64
2, 26880, Note_off_c, 0, 70, 64
2, 26880, Note_on_c, 0, 64, 92
2, 26880, Note_on_c, 0, 72, 92
2, 26976, Note_off_c, 0, 72, 64
2, 26976, Note_off_c, 0, 64, 64
2, 26976, Note_on_c, 0, 70, 92
2, 26976, Note_on_c, 0, 79, 92
2, 27072, Note_off_c, 0, 79, 64
2, 27072, Note_off_c, 0, 70, 64
2, 27072, Note_on_c, 0, 67, 92
2, 27072, Note_on_c, 0, 76, 92
2, 27168, Note_off_c, 0, 76, 64
2, 27168, Note_off_c, 0, 67, 64
2, 27168, Note_on_c, 0, 70, 92
2, 27168, Note_on_c, 0, 79, 92
2, 27264, Note_off_c, 0, 79, 64
2, 27264, Note_off_c, 0, 70, 64
2, 27264, Note_on_c, 0, 64, 92
2, 27264, Note_on_c, 0, 72, 92
2, 27360, Note_off_c, 0, 72, 64
2, 27360, Note_off_c, 0, 64, 64
2, 27360, Note_on_c, 0, 67, 92
2, 27360, Note_on_c, 0, 76, 92
2, 27456, Note_off_c, 0, 76, 64
2, 27456, Note_off_c, 0, 67, 64
2, 27456, Note_on_c, 0, 64, 92
2, 27456, Note_on_c, 0, 72, 92
2, 27552, Note_off_c, 0, 72, 64
2, 27552, Note_off_c, 0, 64, 64
2, 27552, Note_on_c, 0, 67, 92
2, 27552, Note_on_c, 0, 76, 92
2, 27648, Note_off_c, 0, 76, 64
2, 27648, Note_off_c, 0, 67, 64
2, 27648, Note_on_c, 0, 77, 92
2, 27648, Note_on_c, 0, 69, 92
2, 27840, Note_off_c, 0, 69, 64
2, 27840, Note_off_c, 0, 77, 64
2, 28128, Note_on_c, 0, 69, 92
2, 28224, Note_off_c, 0, 69, 64
2, 28224, Note_on_c, 0, 72, 92
2, 28320, Note_off_c, 0, 72, 64
2, 28320, Note_on_c, 0, 69, 92
2, 28416, Note_on_c, 0, 72, 92
2, 28608, Note_off_c, 0, 72, 64
2, 28608, Note_off_c, 0, 69, 64
2, 28896, Note_on_c, 0, 69, 92
2, 28992, Note_off_c, 0, 69, 64
2, 28992, Note_on_c, 0, 72, 92
2, 29088, Note_off_c, 0, 72, 64
2, 29088, Note_on_c, 0, 69, 92
2, 29184, Note_on_c, 0, 72, 92
2, 29376, Note_off_c, 0, 72, 64
2, 29376, Note_off_c, 0, 69, 64
2, 29472, Note_on_c, 0, 77, 92
2, 29568, Note_off_c, 0, 77, 64
2, 29568, Note_on_c, 0, 76, 92
2, 29664, Note_off_c, 0, 76, 64
2, 29664, Note_on_c, 0, 74, 92
2, 29760, Note_off_c, 0, 74, 64
2, 29760, Note_on_c, 0, 72, 92
2, 29856, Note_off_c, 0, 72, 64
2, 29856, Note_on_c, 0, 70, 92
2, 29952, Note_off_c, 0, 70, 64
2, 29952, Note_on_c, 0, 69, 92
2, 30048, Note_off_c, 0, 69, 64
2, 30048, Note_on_c, 0, 70, 92
2, 30144, Note_off_c, 0, 70, 64
2, 30144, Note_on_c, 0, 69, 92
2, 30240, Note_off_c, 0, 69, 64
2, 30240, Note_on_c, 0, 74, 92
2, 30336, Note_off_c, 0, 74, 64
2, 30336, Note_on_c, 0, 72, 92
2, 30432, Note_off_c, 0, 72, 64
2, 30432, Note_on_c, 0, 77, 92
2, 30528, Note_off_c, 0, 77, 64
2, 30528, Note_on_c, 0, 76, 92
2, 30624, Note_off_c, 0, 76, 64
2, 30624, Note_on_c, 0, 79, 92
2, 30720, Note_off_c, 0, 79, 64
2, 30720, Note_on_c, 0, 72, 92
2, 30720, Note_on_c, 0, 77, 92
2, 30720, Note_on_c, 0, 81, 92
2, 30912, Note_off_c, 0, 81, 64
2, 30912, Note_off_c, 0, 77, 64
2, 30912, Note_off_c, 0, 72, 64
2, 33120, Note_on_c, 0, 72, 92
2, 33120, Note_on_c, 0, 81, 92
2, 33216, Note_off_c, 0, 81, 64
2, 33216, Note_off_c, 0, 72, 64
2, 33216, Note_on_c, 0, 70, 92
2, 33216, Note_on_c, 0, 79, 92
2, 33312, Note_off_c, 0, 79, 64
2, 33312, Note_off_c, 0, 70, 64
2, 33312, Note_on_c, 0, 72, 92
2, 33312, Note_on_c, 0, 81, 92
2, 33408, Note_off_c, 0, 81, 64
2, 33408, Note_off_c, 0, 72, 64
2, 33408, Note_on_c, 0, 69, 92
2, 33408, Note_on_c, 0, 77, 92
2, 33504, Note_off_c, 0, 77, 64
2, 33504, Note_off_c, 0, 69, 64
2, 33504, Note_on_c, 0, 67, 92
2, 33504, Note_on_c, 0, 76, 92
2, 33600, Note_off_c, 0, 76, 64
2, 33600, Note_off_c, 0, 67, 64
2, 33600, Note_on_c, 0, 65, 92
2, 33600, Note_on_c, 0, 74, 92
2, 33696, Note_off_c, 0, 74, 64
2, 33696, Note_off_c, 0, 65, 64
2, 33696, Note_on_c, 0, 64, 92
2, 33696, Note_on_c, 0, 72, 92
2, 33792, Note_off_c, 0, 72, 64
2, 33792, Note_off_c, 0, 64, 64
2, 33792, Note_on_c, 0, 62, 92
2, 33792, Note_on_c, 0, 71, 92
2, 33888, Note_off_c, 0, 71, 64
2, 33888, Note_off_c, 0, 62, 64
2, 33888, Note_on_c, 0, 71, 92
2, 33888, Note_on_c, 0, 79, 92
2, 33984, Note_off_c, 0, 79, 64
2, 33984, Note_off_c, 0, 71, 64
2, 33984, Note_on_c, 0, 69, 92
2, 33984, Note_on_c, 0, 77, 92
2, 34080, Note_off_c, 0, 77, 64
2, 34080, Note_off_c, 0, 69, 64
2, 34080, Note_on_c, 0, 71, 92
2, 34080, Note_on_c, 0, 79, 92
2, 34176, Note_off_c, 0, 79, 64
2, 34176, Note_off_c, 0, 71, 64
2, 34176, Note_on_c, 0, 67, 92
2, 34176, Note_on_c, 0, 76, 92
2, 34272, Note_off_c, 0, 76, 64
2, 34272, Note_off_c, 0, 67, 64
2, 34272, Note_on_c, 0, 65, 92
2, 34272, Note_on_c, 0, 74, 92
2, 34368, Note_off_c, 0, 74, 64
2, 34368, Note_off_c, 0, 65, 64
2, 34368, Note_on_c, 0, 64, 92
2, 34368, Note_on_c, 0, 72, 92
2, 34464, Note_off_c, 0, 72, 64
2, 34464, Note_off_c, 0, 64, 64
2, 34464, Note_on_c, 0, 62, 92
2, 34464, Note_on_c, 0, 71, 92
2, 34560, Note_off_c, 0, 71, 64
2, 34560, Note_off_c, 0, 62, 64
2, 34560, Note_on_c, 0, 60, 92
2, 34560, Note_on_c, 0, 69, 92
2, 34656, Note_off_c, 0, 69, 64
2, 34656, Note_off_c, 0, 60, 64
2, 34656, Note_on_c, 0, 69, 92
2, 34656, Note_on_c, 0, 77, 92
2, 34752, Note_off_c, 0, 77, 64
2, 34752, Note_off_c, 0, 69, 64
2, 34752, Note_on_c, 0, 67, 92
2, 34752, Note_on_c, 0, 76, 92
2, 34848, Note_off_c, 0, 76, 64
2, 34848, Note_off_c, 0, 67, 64
2, 34848, Note_on_c, 0, 69, 92
2, 34848, Note_on_c, 0, 77, 92
2, 34944, Note_off_c, 0, 77, 64
2, 34944, Note_off_c, 0, 69, 64
2, 34944, Note_on_c, 0, 65, 92
2, 34944, Note_on_c, 0, 74, 92
2, 35040, Note_off_c, 0, 74, 64
2, 35040, Note_off_c, 0, 65, 64
2, 35040, Note_on_c, 0, 64, 92
2, 35040, Note_on_c, 0, 72, 92
2, 35136, Note_off_c, 0, 72, 64
2, 35136, Note_off_c, 0, 64, 64
2, 35136, Note_on_c, 0, 62, 92
2, 35136, Note_on_c, 0, 71, 92
2, 35232, Note_off_c, 0, 71, 64
2, 35232, Note_off_c, 0, 62, 64
2, 35232, Note_on_c, 0, 60, 92
2, 35232, Note_on_c, 0, 69, 92
2, 35328, Note_off_c, 0, 69, 64
2, 35328, Note_off_c, 0, 60, 64
2, 35328, Note_on_c, 0, 59, 92
2, 35328, Note_on_c, 0, 67, 92
2, 35424, Note_off_c, 0, 67, 64
2, 35424, Note_off_c, 0, 59, 64
2, 35424, Note_on_c, 0, 67, 92
2, 35424, Note_on_c, 0, 76, 92
2, 35520, Note_off_c, 0, 76, 64
2, 35520, Note_off_c, 0, 67, 64
2, 35520, Note_on_c, 0, 65, 92
2, 35520, Note_on_c, 0, 74, 92
2, 35616, Note_off_c, 0, 74, 64
2, 35616, Note_off_c, 0, 65, 64
2, 35616, Note_on_c, 0, 67, 92
2, 35616, Note_on_c, 0, 76, 92
2, 35712, Note_off_c, 0, 76, 64
2, 35712, Note_off_c, 0, 67, 64
2, 35712, Note_on_c, 0, 64, 92
2, 35712, Note_on_c, 0, 72, 92
2, 35808, Note_off_c, 0, 72, 64
2, 35808, Note_off_c, 0, 64, 64
2, 35808, Note_on_c, 0, 62, 92
2, 35808, Note_on_c, 0, 71, 92
2, 35904, Note_off_c, 0, 71, 64
2, 35904, Note_off_c, 0, 62, 64
2, 35904, Note_on_c, 0, 60, 92
2, 35904, Note_on_c, 0, 69, 92
2, 36000, Note_off_c, 0, 69, 64
2, 36000, Note_off_c, 0, 60, 64
2, 36000, Note_on_c, 0, 59, 92
2, 36000, Note_on_c, 0, 67, 92
2, 36096, Note_off_c, 0, 67, 64
2, 36096, Note_off_c, 0, 59, 64
2, 36096, Note_on_c, 0, 57, 92
2, 36096, Note_on_c, 0, 66, 92
2, 36192, Note_off_c, 0, 66, 64
2, 36192, Note_off_c, 0, 57, 64
2, 36192, Note_on_c, 0, 59, 92
2, 36192, Note_on_c, 0, 67, 92
2, 36288, Note_off_c, 0, 67, 64
2, 36288, Note_off_c, 0, 59, 64
2, 36288, Note_on_c, 0, 57, 92
2, 36288, Note_on_c, 0, 66, 92
2, 36384, Note_off_c, 0, 66, 64
2, 36384, Note_off_c, 0, 57, 64
2, 36384, Note_on_c, 0, 59, 92
2, 36384, Note_on_c, 0, 67, 92
2, 36480, Note_off_c, 0, 67, 64
2, 36480, Note_off_c, 0, 59, 64
2, 36480, Note_on_c, 0, 60, 92
2, 36480, Note_on_c, 0, 69, 92
2, 36576, Note_off_c, 0, 69, 64
2, 36576, Note_off_c, 0, 60, 64
2, 36576, Note_on_c, 0, 62, 92
2, 36576, Note_on_c, 0, 71, 92
2, 36672, Note_off_c, 0, 71, 64
2, 36672, Note_off_c, 0, 62, 64
2, 36672, Note_on_c, 0, 59, 92
2, 36672, Note_on_c, 0, 67, 92
2, 36768, Note_off_c, 0, 67, 64
2, 36768, Note_off_c, 0, 59, 64
2, 36768, Note_on_c, 0, 60, 92
2, 36768, Note_on_c, 0, 69, 92
2, 36864, Note_off_c, 0, 69, 64
2, 36864, Note_off_c, 0, 60, 64
2, 36864, Note_on_c, 0, 62, 92
2, 36864, Note_on_c, 0, 71, 92
2, 36960, Note_on_c, 0, 69, 92
2, 37056, Note_off_c, 0, 69, 64
2, 37056, Note_off_c, 0, 71, 64
2, 37056, Note_off_c, 0, 62, 64
2, 37056, Note_on_c, 0, 67, 92
2, 37152, Note_off_c, 0, 67, 64
2, 37152, Note_on_c, 0, 65, 92
2, 37248, Note_off_c, 0, 65, 64
2, 37248, Note_on_c, 0, 64, 92
2, 37344, Note_on_c, 0, 74, 92
2, 37440, Note_off_c, 0, 74, 64
2, 37440, Note_off_c, 0, 64, 64
2, 37440, Note_on_c, 0, 72, 92
2, 37536, Note_off_c, 0, 72, 64
2, 37536, Note_on_c, 0, 71, 92
2, 37632, Note_off_c, 0, 71, 64
2, 37632, Note_on_c, 0, 72, 92
2, 37728, Note_on_c, 0, 71, 92
2, 37824, Note_off_c, 0, 71, 64
2, 37824, Note_off_c, 0, 72, 64
2, 37824, Note_on_c, 0, 69, 92
2, 37920, Note_off_c, 0, 69, 64
2, 37920, Note_on_c, 0, 67, 92
2, 38016, Note_off_c, 0, 67, 64
2, 38016, Note_on_c, 0, 66, 92
2, 38112, Note_on_c, 0, 76, 92
2, 38208, Note_off_c, 0, 76, 64
2, 38208, Note_off_c, 0, 66, 64
2, 38208, Note_on_c, 0, 74, 92
2, 38304, Note_off_c, 0, 74, 64
2, 38304, Note_on_c, 0, 72, 92
2, 38400, Note_off_c, 0, 72, 64
2, 38400, Note_on_c, 0, 71, 92
2, 38496, Note_on_c, 0, 69, 92
2, 38592, Note_off_c, 0, 69, 64
2, 38592, Note_off_c, 0, 71, 64
2, 38592, Note_on_c, 0, 67, 92
2, 38688, Note_off_c, 0, 67, 64
2, 38688, Note_on_c, 0, 65, 92
2, 38784, Note_off_c, 0, 65, 64
2, 38784, Note_on_c, 0, 64, 92
2, 38880, Note_on_c, 0, 71, 92
2, 38976, Note_off_c, 0, 71, 64
2, 38976, Note_off_c, 0, 64, 64
2, 38976, Note_on_c, 0, 69, 92
2, 39072, Note_off_c, 0, 69, 64
2, 39072, Note_on_c, 0, 67, 92
2, 39168, Note_off_c, 0, 67, 64
2, 39168, Note_on_c, 0, 72, 92
2, 39264, Note_on_c, 0, 64, 92
2, 39360, Note_off_c, 0, 64, 64
2, 39360, Note_off_c, 0, 72, 64
2, 39360, Note_on_c, 0, 62, 92
2, 39456, Note_off_c, 0, 62, 64
2, 39456, Note_on_c, 0, 60, 92
2, 39552, Note_off_c, 0, 60, 64
2, 39552, Note_on_c, 0, 59, 92
2, 39648, Note_on_c, 0, 69, 92
2, 39744, Note_off_c, 0, 69, 64
2, 39744, Note_off_c, 0, 59, 64
2, 39744, Note_on_c, 0, 67, 92
2, 39840, Note_off_c, 0, 67, 64
2, 39840, Note_on_c, 0, 65, 92
2, 39936, Note_off_c, 0, 65, 64
2, 39936, Note_on_c, 0, 64, 92
2, 40032, Note_on_c, 0, 62, 92
2, 40128, Note_off_c, 0, 62, 64
2, 40128, Note_off_c, 0, 64, 64
2, 40128, Note_on_c, 0, 60, 92
2, 40224, Note_off_c, 0, 60, 64
2, 40224, Note_on_c, 0, 59, 92
2, 40320, Note_off_c, 0, 59, 64
2, 40416, Note_on_c, 0, 65, 92
2, 40512, Note_off_c, 0, 65, 64
2, 40512, Note_on_c, 0, 64, 92
2, 40608, Note_off_c, 0, 64, 64
2, 40608, Note_on_c, 0, 62, 92
2, 40704, Note_off_c, 0, 62, 64
2, 40704, Note_on_c, 0, 60, 92
2, 40800, Note_on_c, 0, 71, 92
2, 40896, Note_off_c, 0, 71, 64
2, 40896, Note_off_c, 0, 60, 64
2, 40896, Note_on_c, 0, 69, 92
2, 40992, Note_off_c, 0, 69, 64
2, 40992, Note_on_c, 0, 67, 92
2, 41088, Note_off_c, 0, 67, 64
2, 41088, Note_on_c, 0, 66, 92
2, 41184, Note_on_c, 0, 76, 92
2, 41280, Note_off_c, 0, 76, 64
2, 41280, Note_off_c, 0, 66, 64
2, 41280, Note_on_c, 0, 74, 92
2, 41376, Note_off_c, 0, 74, 64
2, 41376, Note_on_c, 0, 72, 92
2, 41472, Note_off_c, 0, 72, 64
2, 41472, Note_on_c, 0, 67, 92
2, 41472, Note_on_c, 0, 71, 92
2, 41472, Note_on_c, 0, 74, 92
2, 41472, Note_on_c, 0, 79, 92
2, 41664, Note_off_c, 0, 79, 64
2, 41664, Note_off_c, 0, 74, 64
2, 41664, Note_off_c, 0, 71, 64
2, 41664, Note_off_c, 0, 67, 64
2, 42240, Note_on_c, 0, 67, 92
2, 42240, Note_on_c, 0, 72, 92
2, 42240, Note_on_c, 0, 79, 92
2, 42432, Note_off_c, 0, 79, 64
2, 42432, Note_off_c, 0, 72, 64
2, 42432, Note_off_c, 0, 67, 64
2, 43104, Note_on_c, 0, 72, 92
2, 43200, Note_off_c, 0, 72, 64
2, 43200, Note_on_c, 0, 77, 92
2, 43296, Note_off_c, 0, 77, 64
2, 43296, Note_on_c, 0, 72, 92
2, 43392, Note_off_c, 0, 72, 64
2, 43392, Note_on_c, 0, 81, 92
2, 43488, Note_off_c, 0, 81, 64
2, 43488, Note_on_c, 0, 77, 92
2, 43584, Note_off_c, 0, 77, 64
2, 43584, Note_on_c, 0, 81, 92
2, 43680, Note_off_c, 0, 81, 64
2, 43680, Note_on_c, 0, 77, 92
2, 43776, Note_off_c, 0, 77, 64
2, 43776, Note_on_c, 0, 84, 92
2, 43872, Note_off_c, 0, 84, 64
2, 43872, Note_on_c, 0, 79, 92
2, 43968, Note_off_c, 0, 79, 64
2, 43968, Note_on_c, 0, 81, 92
2, 44064, Note_off_c, 0, 81, 64
2, 44064, Note_on_c, 0, 82, 92
2, 44160, Note_off_c, 0, 82, 64
2, 44160, Note_on_c, 0, 81, 92
2, 44256, Note_off_c, 0, 81, 64
2, 44256, Note_on_c, 0, 79, 92
2, 44352, Note_off_c, 0, 79, 64
2, 44352, Note_on_c, 0, 77, 92
2, 44448, Note_off_c, 0, 77, 64
2, 44448, Note_on_c, 0, 76, 92
2, 44544, Note_off_c, 0, 76, 64
2, 44544, Note_on_c, 0, 77, 92
2, 44608, Note_off_c, 0, 77, 64
2, 44608, Note_on_c, 0, 79, 92
2, 44672, Note_off_c, 0, 79, 64
2, 44672, Note_on_c, 0, 81, 92
2, 44736, Note_off_c, 0, 81, 64
2, 44736, Note_on_c, 0, 76, 92
2, 44800, Note_off_c, 0, 76, 64
2, 44800, Note_on_c, 0, 77, 92
2, 44864, Note_off_c, 0, 77, 64
2, 44864, Note_on_c, 0, 79, 92
2, 44928, Note_off_c, 0, 79, 64
2, 44928, Note_on_c, 0, 74, 92
2, 44992, Note_off_c, 0, 74, 64
2, 44992, Note_on_c, 0, 76, 92
2, 45056, Note_off_c, 0, 76, 64
2, 45056, Note_on_c, 0, 77, 92
2, 45120, Note_off_c, 0, 77, 64
2, 45120, Note_on_c, 0, 72, 92
2, 45184, Note_off_c, 0, 72, 64
2, 45184, Note_on_c, 0, 74, 92
2, 45248, Note_off_c, 0, 74, 64
2, 45248, Note_on_c, 0, 76, 92
2, 45312, Note_off_c, 0, 76, 64
2, 45312, Note_on_c, 0, 70, 92
2, 45376, Note_off_c, 0, 70, 64
2, 45376, Note_on_c, 0, 72, 92
2, 45440, Note_off_c, 0, 72, 64
2, 45440, Note_on_c, 0, 74, 92
2, 45504, Note_off_c, 0, 74, 64
2, 45504, Note_on_c, 0, 69, 92
2, 45568, Note_off_c, 0, 69, 64
2, 45568, Note_on_c, 0, 70, 92
2, 45632, Note_off_c, 0, 70, 64
2, 45632, Note_on_c, 0, 72, 92
2, 45696, Note_off_c, 0, 72, 64
2, 45696, Note_on_c, 0, 67, 92
2, 45760, Note_off_c, 0, 67, 64
2, 45760, Note_on_c, 0, 69, 92
2, 45824, Note_off_c, 0, 69, 64
2, 45824, Note_on_c, 0, 70, 92
2, 45888, Note_off_c, 0, 70, 64
2, 45888, Note_on_c, 0, 64, 92
2, 45984, Note_on_c, 0, 70, 92
2, 46080, Note_off_c, 0, 70, 64
2, 46080, Note_off_c, 0, 64, 64
2, 46080, Note_on_c, 0, 65, 92
2, 46080, Note_on_c, 0, 69, 92
2, 46176, Note_off_c, 0, 69, 64
2, 46176, Note_on_c, 0, 72, 92
2, 46272, Note_off_c, 0, 72, 64
2, 46272, Note_off_c, 0, 65, 64
2, 46272, Note_on_c, 0, 67, 92
2, 46272, Note_on_c, 0, 70, 92
2, 46368, Note_off_c, 0, 70, 64
2, 46368, Note_on_c, 0, 74, 92
2, 46464, Note_off_c, 0, 74, 64
2, 46464, Note_off_c, 0, 67, 64
2, 46464, Note_on_c, 0, 69, 92
2, 46464, Note_on_c, 0, 72, 92
2, 46560, Note_off_c, 0, 72, 64
2, 46560, Note_on_c, 0, 76, 92
2, 46656, Note_off_c, 0, 76, 64
2, 46656, Note_off_c, 0, 69, 64
2, 46656, Note_on_c, 0, 70, 92
2, 46656, Note_on_c, 0, 74, 92
2, 46752, Note_off_c, 0, 74, 64
2, 46752, Note_on_c, 0, 77, 92
2, 46848, Note_off_c, 0, 77, 64
2, 46848, Note_off_c, 0, 70, 64
2, 46848, Note_on_c, 0, 72, 92
2, 46848, Note_on_c, 0, 76, 92
2, 46944, Note_off_c, 0, 76, 64
2, 46944, Note_on_c, 0, 79, 92
2, 47040, Note_off_c, 0, 79, 64
2, 47040, Note_off_c, 0, 72, 64
2, 47040, Note_on_c, 0, 74, 92
2, 47040, Note_on_c, 0, 77, 92
2, 47136, Note_off_c, 0, 77, 64
2, 47136, Note_on_c, 0, 81, 92
2, 47232, Note_off_c, 0, 81, 64
2, 47232, Note_off_c, 0, 74, 64
2, 47232, Note_on_c, 0, 76, 92
2, 47232, Note_on_c, 0, 79, 92
2, 47328, Note_off_c, 0, 79, 64
2, 47328, Note_on_c, 0, 82, 92
2, 47424, Note_off_c, 0, 82, 64
2, 47424, Note_off_c, 0, 76, 64
2, 47424, Note_on_c, 0, 81, 92
2, 47520, Note_off_c, 0, 81, 64
2, 47520, Note_on_c, 0, 79, 92
2, 47616, Note_off_c, 0, 79, 64
2, 47616, Note_on_c, 0, 81, 92
2, 47712, Note_off_c, 0, 81, 64
2, 47712, Note_on_c, 0, 69, 92
2, 47808, Note_off_c, 0, 69, 64
2, 47808, Note_on_c, 0, 79, 92
2, 47904, Note_off_c, 0, 79, 64
2, 47904, Note_on_c, 0, 67, 92
2, 48000, Note_off_c, 0, 67, 64
2, 48000, Note_on_c, 0, 77, 92
2, 48096, Note_off_c, 0, 77, 64
2, 48096, Note_on_c, 0, 65, 92
2, 48192, Note_off_c, 0, 65, 64
2, 48192, Note_on_c, 0, 76, 92
2, 48288, Note_off_c, 0, 76, 64
2, 48288, Note_on_c, 0, 64, 92
2, 48384, Note_off_c, 0, 64, 64
2, 48384, Note_on_c, 0, 74, 92
2, 48480, Note_off_c, 0, 74, 64
2, 48480, Note_on_c, 0, 62, 92
2, 48576, Note_off_c, 0, 62, 64
2, 48576, Note_on_c, 0, 72, 92
2, 48672, Note_off_c, 0, 72, 64
2, 48672, Note_on_c, 0, 60, 92
2, 48768, Note_off_c, 0, 60, 64
2, 48768, Note_on_c, 0, 70, 92
2, 48864, Note_off_c, 0, 70, 64
2, 48864, Note_on_c, 0, 69, 92
2, 48960, Note_off_c, 0, 69, 64
2, 48960, Note_on_c, 0, 70, 92
2, 49056, Note_off_c, 0, 70, 64
2, 49056, Note_on_c, 0, 72, 92
2, 49152, Note_off_c, 0, 72, 64
2, 49152, Note_on_c, 0, 69, 92
2, 49344, Note_off_c, 0, 69, 64
2, 50016, Note_on_c, 0, 60, 92
2, 50112, Note_off_c, 0, 60, 64
2, 50112, Note_on_c, 0, 62, 92
2, 50208, Note_off_c, 0, 62, 64
2, 50208, Note_on_c, 0, 64, 92
2, 50304, Note_off_c, 0, 64, 64
2, 50304, Note_on_c, 0, 65, 92
2, 50352, Note_on_c, 0, 67, 92
2, 50400, Note_off_c, 0, 67, 64
2, 50400, Note_on_c, 0, 69, 92
2, 50448, Note_off_c, 0, 69, 64
2, 50448, Note_on_c, 0, 71, 92
2, 50496, Note_off_c, 0, 71, 64
2, 50496, Note_off_c, 0, 65, 64
2, 50496, Note_on_c, 0, 72, 92
2, 50544, Note_on_c, 0, 67, 92
2, 50592, Note_off_c, 0, 67, 64
2, 50592, Note_on_c, 0, 65, 92
2, 50640, Note_off_c, 0, 65, 64
2, 50640, Note_on_c, 0, 64, 92
2, 50688, Note_off_c, 0, 64, 64
2, 50688, Note_off_c, 0, 72, 64
2, 50688, Note_on_c, 0, 62, 92
2, 50688, Note_on_c, 0, 67, 92
2, 50688, Note_on_c, 0, 71, 92
2, 50688, Note_on_c, 0, 74, 92
2, 51072, Note_off_c, 0, 74, 64
2, 51072, Note_off_c, 0, 71, 64
2, 51072, Note_off_c, 0, 67, 64
2, 51072, Note_off_c, 0, 62, 64
2, 51264, Note_on_c, 0, 62, 92
2, 51264, Note_on_c, 0, 67, 92
2, 51264, Note_on_c, 0, 71, 92
2, 51264, Note_on_c, 0, 74, 92
2, 51456, Note_off_c, 0, 74, 64
2, 51456, Note_off_c, 0, 71, 64
2, 51456, Note_off_c, 0, 67, 64
2, 51456, Note_off_c, 0, 62, 64
2, 51456, Note_on_c, 0, 64, 92
2, 51456, Note_on_c, 0, 67, 92
2, 51456, Note_on_c, 0, 72, 92
2, 51456, Note_on_c, 0, 76, 92
2, 51840, Note_off_c, 0, 76, 64
2, 51840, Note_off_c, 0, 72, 64
2, 51840, Note_off_c, 0, 67, 64
2, 51840, Note_off_c, 0, 64, 64
2, 52032, Note_on_c, 0, 76, 92
2, 52032, Note_on_c, 0, 64, 92
2, 52032, Note_on_c, 0, 67, 92
2, 52032, Note_on_c, 0, 72, 92
2, 52224, Note_off_c, 0, 72, 64
2, 52224, Note_off_c, 0, 67, 64
2, 52224, Note_off_c, 0, 64, 64
2, 52224, Note_off_c, 0, 76, 64
2, 52224, Note_on_c, 0, 76, 92
2, 52224, Note_on_c, 0, 65, 92
2, 52224, Note_on_c, 0, 69, 92
2, 52224, Note_on_c, 0, 72, 92
2, 52416, Note_off_c, 0, 76, 64
2, 52416, Note_on_c, 0, 74, 92
2, 52608, Note_off_c, 0, 72, 64
2, 52608, Note_off_c, 0, 69, 64
2, 52608, Note_off_c, 0, 65, 64
2, 52608, Note_on_c, 0, 66, 92
2, 52608, Note_on_c, 0, 69, 92
2, 52608, Note_on_c, 0, 72, 92
2, 52800, Note_off_c, 0, 74, 64
2, 52800, Note_on_c, 0, 74, 92
2, 52992, Note_off_c, 0, 72, 64
2, 52992, Note_off_c, 0, 69, 64
2, 52992, Note_off_c, 0, 66, 64
2, 52992, Note_on_c, 0, 67, 92
2, 52992, Note_on_c, 0, 71, 92
2, 53184, Note_off_c, 0, 71, 64
2, 53184, Note_off_c, 0, 67, 64
2, 53232, Note_off_c, 0, 74, 64
2, 53232, Note_on_c, 0, 76, 92
2, 53280, Note_off_c, 0, 76, 64
2, 53280, Note_on_c, 0, 74, 92
2, 53328, Note_off_c, 0, 74, 64
2, 53328, Note_on_c, 0, 72, 92
2, 53376, Note_off_c, 0, 72, 64
2, 53376, Note_on_c, 0, 71, 92
2, 53424, Note_off_c, 0, 71, 64
2, 53424, Note_on_c, 0, 72, 92
2, 53472, Note_off_c, 0, 72, 64
2, 53472, Note_on_c, 0, 71, 92
2, 53520, Note_off_c, 0, 71, 64
2, 53520, Note_on_c, 0, 69, 92
2, 53568, Note_off_c, 0, 69, 64
2, 53568, Note_on_c, 0, 67, 92
2, 53616, Note_off_c, 0, 67, 64
2, 53616, Note_on_c, 0, 69, 92
2, 53664, Note_off_c, 0, 69, 64
2, 53664, Note_on_c, 0, 67, 92
2, 53712, Note_off_c, 0, 67, 64
2, 53712, Note_on_c, 0, 65, 92
2, 53760, Note_off_c, 0, 65, 64
2, 53760, Note_on_c, 0, 67, 92
2, 53760, Note_on_c, 0, 72, 92
2, 53760, Note_on_c, 0, 76, 92
2, 53760, Note_on_c, 0, 79, 92
2, 53952, Note_off_c, 0, 76, 64
2, 53952, Note_off_c, 0, 72, 64
2, 53952, Note_off_c, 0, 67, 64
2, 54000, Note_off_c, 0, 79, 64
2, 54000, Note_on_c, 0, 81, 92
2, 54048, Note_off_c, 0, 81, 64
2, 54048, Note_on_c, 0, 79, 92
2, 54096, Note_off_c, 0, 79, 64
2, 54096, Note_on_c, 0, 77, 92
2, 54144, Note_off_c, 0, 77, 64
2, 54144, Note_on_c, 0, 76, 92
2, 54192, Note_off_c, 0, 76, 64
2, 54192, Note_on_c, 0, 77, 92
2, 54240, Note_off_c, 0, 77, 64
2, 54240, Note_on_c, 0, 76, 92
2, 54288, Note_off_c, 0, 76, 64
2, 54288, Note_on_c, 0, 74, 92
2, 54336, Note_off_c, 0, 74, 64
2, 54336, Note_on_c, 0, 72, 92
2, 54384, Note_off_c, 0, 72, 64
2, 54384, Note_on_c, 0, 74, 92
2, 54432, Note_off_c, 0, 74, 64
2, 54432, Note_on_c, 0, 72, 92
2, 54480, Note_off_c, 0, 72, 64
2, 54480, Note_on_c, 0, 71, 92
2, 54528, Note_off_c, 0, 71, 64
2, 54528, Note_on_c, 0, 66, 92
2, 54528, Note_on_c, 0, 69, 92
2, 54528, Note_on_c, 0, 72, 92
2, 54528, Note_on_c, 0, 74, 92
2, 54528, Note_on_c, 0, 81, 92
2, 54720, Note_off_c, 0, 74, 64
2, 54720, Note_off_c, 0, 72, 64
2, 54720, Note_off_c, 0, 69, 64
2, 54720, Note_off_c, 0, 66, 64
2, 54768, Note_off_c, 0, 81, 64
2, 54768, Note_on_c, 0, 83, 92
2, 54816, Note_off_c, 0, 83, 64
2, 54816, Note_on_c, 0, 81, 92
2, 54864, Note_off_c, 0, 81, 64
2, 54864, Note_on_c, 0, 79, 92
2, 54912, Note_off_c, 0, 79, 64
2, 54912, Note_on_c, 0, 78, 92
2, 54960, Note_off_c, 0, 78, 64
2, 54960, Note_on_c, 0, 79, 92
2, 55008, Note_off_c, 0, 79, 64
2, 55008, Note_on_c, 0, 78, 92
2, 55056, Note_off_c, 0, 78, 64
2, 55056, Note_on_c, 0, 76, 92
2, 55104, Note_off_c, 0, 76, 64
2, 55104, Note_on_c, 0, 74, 92
2, 55152, Note_off_c, 0, 74, 64
2, 55152, Note_on_c, 0, 76, 92
2, 55200, Note_off_c, 0, 76, 64
2, 55200, Note_on_c, 0, 74, 92
2, 55248, Note_off_c, 0, 74, 64
2, 55248, Note_on_c, 0, 72, 92
2, 55296, Note_off_c, 0, 72, 64
2, 55296, Note_on_c, 0, 67, 92
2, 55296, Note_on_c, 0, 71, 92
2, 55296, Note_on_c, 0, 74, 92
2, 55296, Note_on_c, 0, 79, 92
2, 55296, Note_on_c, 0, 83, 92
2, 55488, Note_off_c, 0, 79, 64
2, 55488, Note_off_c, 0, 74, 64
2, 55488, Note_off_c, 0, 71, 64
2, 55488, Note_off_c, 0, 67, 64
2, 55536, Note_off_c, 0, 83, 64
2, 55536, Note_on_c, 0, 84, 92
2, 55584, Note_off_c, 0, 84, 64
2, 55584, Note_on_c, 0, 83, 92
2, 55632, Note_off_c, 0, 83, 64
2, 55632, Note_on_c, 0, 81, 92
2, 55680, Note_off_c, 0, 81, 64
2, 55680, Note_on_c, 0, 79, 92
2, 55728, Note_off_c, 0, 79, 64
2, 55728, Note_on_c, 0, 81, 92
2, 55776, Note_off_c, 0, 81, 64
2, 55776, Note_on_c, 0, 79, 92
2, 55824, Note_off_c, 0, 79, 64
2, 55824, Note_on_c, 0, 77, 92
2, 55872, Note_off_c, 0, 77, 64
2, 55872, Note_on_c, 0, 76, 92
2, 55920, Note_off_c, 0, 76, 64
2, 55920, Note_on_c, 0, 77, 92
2, 55968, Note_off_c, 0, 77, 64
2, 55968, Note_on_c, 0, 76, 92
2, 56016, Note_off_c, 0, 76, 64
2, 56016, Note_on_c, 0, 74, 92
2, 56064, Note_off_c, 0, 74, 64
2, 56064, Note_on_c, 0, 72, 92
2, 56112, Note_off_c, 0, 72, 64
2, 56112, Note_on_c, 0, 74, 92
2, 56160, Note_off_c, 0, 74, 64
2, 56160, Note_on_c, 0, 72, 92
2, 56208, Note_off_c, 0, 72, 64
2, 56208, Note_on_c, 0, 71, 92
2, 56256, Note_off_c, 0, 71, 64
2, 56256, Note_on_c, 0, 69, 92
2, 56304, Note_off_c, 0, 69, 64
2, 56304, Note_on_c, 0, 71, 92
2, 56352, Note_off_c, 0, 71, 64
2, 56352, Note_on_c, 0, 69, 92
2, 56400, Note_off_c, 0, 69, 64
2, 56400, Note_on_c, 0, 67, 92
2, 56448, Note_off_c, 0, 67, 64
2, 56448, Note_on_c, 0, 65, 92
2, 56496, Note_off_c, 0, 65, 64
2, 56496, Note_on_c, 0, 67, 92
2, 56544, Note_off_c, 0, 67, 64
2, 56544, Note_on_c, 0, 65, 92
2, 56592, Note_off_c, 0, 65, 64
2, 56592, Note_on_c, 0, 64, 92
2, 56640, Note_off_c, 0, 64, 64
2, 56640, Note_on_c, 0, 62, 92
2, 56688, Note_off_c, 0, 62, 64
2, 56688, Note_on_c, 0, 64, 92
2, 56736, Note_off_c, 0, 64, 64
2, 56736, Note_on_c, 0, 62, 92
2, 56784, Note_off_c, 0, 62, 64
2, 56784, Note_on_c, 0, 60, 92
2, 56832, Note_off_c, 0, 60, 64
2, 57024, Note_on_c, 0, 65, 92
2, 57024, Note_on_c, 0, 71, 92
2, 57024, Note_on_c, 0, 74, 92
2, 57216, Note_off_c, 0, 74, 64
2, 57216, Note_off_c, 0, 71, 64
2, 57216, Note_off_c, 0, 65, 64
2, 57216, Note_on_c, 0, 72, 92
2, 57216, Note_on_c, 0, 67, 92
2, 57408, Note_off_c, 0, 67, 64
2, 57408, Note_on_c, 0, 66, 92
2, 57600, Note_off_c, 0, 66, 64
2, 57600, Note_on_c, 0, 67, 92
2, 57696, Note_off_c, 0, 72, 64
2, 57696, Note_on_c, 0, 76, 92
2, 57792, Note_off_c, 0, 76, 64
2, 57792, Note_on_c, 0, 74, 92
2, 57888, Note_off_c, 0, 74, 64
2, 57888, Note_on_c, 0, 72, 92
2, 57984, Note_off_c, 0, 72, 64
2, 57984, Note_on_c, 0, 71, 92
2, 58272, Note_off_c, 0, 71, 64
2, 58272, Note_on_c, 0, 72, 92
2, 58368, Note_off_c, 0, 72, 64
2, 58368, Note_off_c, 0, 67, 64
2, 58368, Note_on_c, 0, 72, 92
2, 58368, Note_on_c, 0, 67, 92
2, 58800, Note_off_c, 0, 72, 64
2, 58800, Note_on_c, 0, 72, 92
2, 58848, Note_off_c, 0, 72, 64
2, 58848, Note_off_c, 0, 67, 64
2, 58848, Note_on_c, 0, 71, 92
2, 58896, Note_off_c, 0, 71, 64
2, 58896, Note_on_c, 0, 69, 92
2, 58944, Note_off_c, 0, 69, 64
2, 58944, Note_on_c, 0, 67, 92
2, 58992, Note_off_c, 0, 67, 64
2, 58992, Note_on_c, 0, 65, 92
2, 59040, Note_off_c, 0, 65, 64
2, 59040, Note_on_c, 0, 64, 92
2, 59088, Note_off_c, 0, 64, 64
2, 59088, Note_on_c, 0, 62, 92
2, 59136, Note_off_c, 0, 62, 64
2, 59136, Note_on_c, 0, 60, 92
2, 59184, Note_off_c, 0, 60, 64
2, 59184, Note_on_c, 0, 67, 92
2, 59232, Note_off_c, 0, 67, 64
2, 59232, Note_on_c, 0, 65, 92
2, 59280, Note_off_c, 0, 65, 64
2, 59280, Note_on_c, 0, 64, 92
2, 59328, Note_off_c, 0, 64, 64
2, 59328, Note_on_c, 0, 62, 92
2, 59376, Note_off_c, 0, 62, 64
2, 59376, Note_on_c, 0, 60, 92
2, 59424, Note_off_c, 0, 60, 64
2, 59904, Note_on_c, 0, 60, 92
2, 59904, Note_on_c, 0, 64, 92
2, 59904, Note_on_c, 0, 67, 92
2, 59904, Note_on_c, 0, 72, 92
2, 61440, Note_off_c, 0, 72, 64
2, 61440, Note_off_c, 0, 67, 64
2, 61440, Note_off_c, 0, 64, 64
2, 61440, Note_off_c, 0, 60, 64
2, 63072, Note_on_c, 0, 79, 92
2, 63168, Note_off_c, 0, 79, 64
2, 63168, Note_on_c, 0, 67, 92
2, 63264, Note_off_c, 0, 67, 64
2, 63264, Note_on_c, 0, 79, 92
2, 63360, Note_off_c, 0, 79, 64
2, 63360, Note_on_c, 0, 79, 92
2, 63456, Note_off_c, 0, 79, 64
2, 63456, Note_on_c, 0, 81, 92
2, 63552, Note_off_c, 0, 81, 64
2, 63552, Note_on_c, 0, 79, 92
2, 63648, Note_off_c, 0, 79, 64
2, 63648, Note_on_c, 0, 81, 92
2, 63744, Note_off_c, 0, 81, 64
2, 63744, Note_on_c, 0, 77, 92
2, 63840, Note_off_c, 0, 77, 64
2, 63840, Note_on_c, 0, 77, 92
2, 63936, Note_off_c, 0, 77, 64
2, 63936, Note_on_c, 0, 65, 92
2, 64032, Note_off_c, 0, 65, 64
2, 64032, Note_on_c, 0, 77, 92
2, 64128, Note_off_c, 0, 77, 64
2, 64128, Note_on_c, 0, 77, 92
2, 64224, Note_off_c, 0, 77, 64
2, 64224, Note_on_c, 0, 79, 92
2, 64320, Note_off_c, 0, 79, 64
2, 64320, Note_on_c, 0, 77, 92
2, 64416, Note_off_c, 0, 77, 64
2, 64416, Note_on_c, 0, 79, 92
2, 64512, Note_off_c, 0, 79, 64
2, 64512, Note_on_c, 0, 76, 92
2, 64608, Note_off_c, 0, 76, 64
2, 64608, Note_on_c, 0, 67, 92
2, 64704, Note_off_c, 0, 67, 64
2, 64704, Note_on_c, 0, 72, 92
2, 64800, Note_off_c, 0, 72, 64
2, 64800, Note_on_c, 0, 74, 92
2, 64896, Note_off_c, 0, 74, 64
2, 64896, Note_on_c, 0, 76, 92
2, 64992, Note_off_c, 0, 76, 64
2, 64992, Note_on_c, 0, 67, 92
2, 65088, Note_off_c, 0, 67, 64
2, 65088, Note_on_c, 0, 72, 92
2, 65184, Note_off_c, 0, 72, 64
2, 65184, Note_on_c, 0, 74, 92
2, 65280, Note_off_c, 0, 74, 64
2, 65280, Note_on_c, 0, 76, 92
2, 65376, Note_off_c, 0, 76, 64
2, 65376, Note_on_c, 0, 77, 92
2, 65472, Note_off_c, 0, 77, 64
2, 65472, Note_on_c, 0, 74, 92
2, 65568, Note_off_c, 0, 74, 64
2, 65568, Note_on_c, 0, 76, 92
2, 65664, Note_off_c, 0, 76, 64
2, 65664, Note_on_c, 0, 72, 92
2, 65760, Note_off_c, 0, 72, 64
2, 65760, Note_on_c, 0, 74, 92
2, 65856, Note_off_c, 0, 74, 64
2, 65856, Note_on_c, 0, 76, 92
2, 65952, Note_off_c, 0, 76, 64
2, 65952, Note_on_c, 0, 77, 92
2, 66048, Note_off_c, 0, 77, 64
2, 66048, Note_on_c, 0, 79, 92
2, 66144, Note_on_c, 0, 72, 92
2, 66240, Note_off_c, 0, 72, 64
2, 66240, Note_on_c, 0, 60, 92
2, 66336, Note_off_c, 0, 60, 64
2, 66336, Note_off_c, 0, 79, 64
2, 66336, Note_on_c, 0, 77, 92
2, 66336, Note_on_c, 0, 72, 92
2, 66432, Note_off_c, 0, 72, 64
2, 66432, Note_off_c, 0, 77, 64
2, 66432, Note_on_c, 0, 76, 92
2, 66432, Note_on_c, 0, 72, 92
2, 66528, Note_off_c, 0, 72, 64
2, 66528, Note_off_c, 0, 76, 64
2, 66528, Note_on_c, 0, 77, 92
2, 66528, Note_on_c, 0, 74, 92
2, 66624, Note_off_c, 0, 74, 64
2, 66624, Note_off_c, 0, 77, 64
2, 66624, Note_on_c, 0, 76, 92
2, 66624, Note_on_c, 0, 72, 92
2, 66720, Note_off_c, 0, 72, 64
2, 66720, Note_off_c, 0, 76, 64
2, 66720, Note_on_c, 0, 77, 92
2, 66720, Note_on_c, 0, 74, 92
2, 66816, Note_off_c, 0, 74, 64
2, 66816, Note_off_c, 0, 77, 64
2, 66816, Note_on_c, 0, 79, 92
2, 66816, Note_on_c, 0, 70, 92
2, 66912, Note_off_c, 0, 70, 64
2, 66912, Note_on_c, 0, 70, 92
2, 67008, Note_off_c, 0, 70, 64
2, 67008, Note_on_c, 0, 58, 92
2, 67104, Note_off_c, 0, 58, 64
2, 67104, Note_off_c, 0, 79, 64
2, 67104, Note_on_c, 0, 79, 92
2, 67104, Note_on_c, 0, 70, 92
2, 67200, Note_off_c, 0, 70, 64
2, 67200, Note_off_c, 0, 79, 64
2, 67200, Note_on_c, 0, 74, 92
2, 67200, Note_on_c, 0, 70, 92
2, 67296, Note_off_c, 0, 70, 64
2, 67296, Note_off_c, 0, 74, 64
2, 67296, Note_on_c, 0, 76, 92
2, 67296, Note_on_c, 0, 72, 92
2, 67392, Note_off_c, 0, 72, 64
2, 67392, Note_off_c, 0, 76, 64
2, 67392, Note_on_c, 0, 74, 92
2, 67392, Note_on_c, 0, 70, 92
2, 67488, Note_off_c, 0, 70, 64
2, 67488, Note_off_c, 0, 74, 64
2, 67488, Note_on_c, 0, 76, 92
2, 67488, Note_on_c, 0, 72, 92
2, 67584, Note_off_c, 0, 72, 64
2, 67584, Note_off_c, 0, 76, 64
2, 67584, Note_on_c, 0, 69, 92
2, 67584, Note_on_c, 0, 77, 92
2, 67680, Note_off_c, 0, 77, 64
2, 67680, Note_off_c, 0, 69, 64
2, 67680, Note_on_c, 0, 60, 92
2, 67680, Note_on_c, 0, 79, 92
2, 67776, Note_off_c, 0, 79, 64
2, 67776, Note_off_c, 0, 60, 64
2, 67776, Note_on_c, 0, 65, 92
2, 67776, Note_on_c, 0, 77, 92
2, 67872, Note_off_c, 0, 77, 64
2, 67872, Note_off_c, 0, 65, 64
2, 67872, Note_on_c, 0, 67, 92
2, 67872, Note_on_c, 0, 76, 92
2, 67968, Note_off_c, 0, 76, 64
2, 67968, Note_off_c, 0, 67, 64
2, 67968, Note_on_c, 0, 69, 92
2, 67968, Note_on_c, 0, 77, 92
2, 68064, Note_off_c, 0, 77, 64
2, 68064, Note_off_c, 0, 69, 64
2, 68064, Note_on_c, 0, 60, 92
2, 68064, Note_on_c, 0, 79, 92
2, 68160, Note_off_c, 0, 79, 64
2, 68160, Note_off_c, 0, 60, 64
2, 68160, Note_on_c, 0, 65, 92
2, 68160, Note_on_c, 0, 77, 92
2, 68256, Note_off_c, 0, 77, 64
2, 68256, Note_off_c, 0, 65, 64
2, 68256, Note_on_c, 0, 67, 92
2, 68256, Note_on_c, 0, 76, 92
2, 68352, Note_off_c, 0, 76, 64
2, 68352, Note_off_c, 0, 67, 64
2, 68352, Note_on_c, 0, 77, 92
2, 68352, Note_on_c, 0, 69, 92
2, 68448, Note_off_c, 0, 69, 64
2, 68448, Note_on_c, 0, 71, 92
2, 68544, Note_off_c, 0, 71, 64
2, 68544, Note_on_c, 0, 67, 92
2, 68640, Note_off_c, 0, 67, 64
2, 68640, Note_off_c, 0, 77, 64
2, 68640, Note_on_c, 0, 72, 92
2, 68640, Note_on_c, 0, 69, 92
2, 68736, Note_off_c, 0, 69, 64
2, 68736, Note_off_c, 0, 72, 64
2, 68736, Note_on_c, 0, 74, 92
2, 68736, Note_on_c, 0, 65, 92
2, 68832, Note_off_c, 0, 65, 64
2, 68832, Note_off_c, 0, 74, 64
2, 68832, Note_on_c, 0, 76, 92
2, 68832, Note_on_c, 0, 67, 92
2, 68928, Note_off_c, 0, 67, 64
2, 68928, Note_off_c, 0, 76, 64
2, 68928, Note_on_c, 0, 72, 92
2, 68928, Note_on_c, 0, 69, 92
2, 69024, Note_off_c, 0, 69, 64
2, 69024, Note_off_c, 0, 72, 64
2, 69024, Note_on_c, 0, 74, 92
2, 69024, Note_on_c, 0, 71, 92
2, 69120, Note_off_c, 0, 71, 64
2, 69120, Note_off_c, 0, 74, 64
2, 69120, Note_on_c, 0, 72, 92
2, 69120, Note_on_c, 0, 76, 92
2, 69216, Note_off_c, 0, 76, 64
2, 69216, Note_on_c, 0, 79, 92
2, 69312, Note_off_c, 0, 79, 64
2, 69312, Note_off_c, 0, 72, 64
2, 69312, Note_on_c, 0, 72, 92
2, 69408, Note_off_c, 0, 72, 64
2, 69408, Note_on_c, 0, 71, 92
2, 69408, Note_on_c, 0, 74, 92
2, 69504, Note_off_c, 0, 74, 64
2, 69504, Note_off_c, 0, 71, 64
2, 69504, Note_on_c, 0, 72, 92
2, 69504, Note_on_c, 0, 76, 92
2, 69600, Note_off_c, 0, 76, 64
2, 69600, Note_on_c, 0, 79, 92
2, 69696, Note_off_c, 0, 79, 64
2, 69696, Note_off_c, 0, 72, 64
2, 69696, Note_on_c, 0, 72, 92
2, 69792, Note_off_c, 0, 72, 64
2, 69792, Note_on_c, 0, 67, 92
2, 69792, Note_on_c, 0, 74, 92
2, 69888, Note_off_c, 0, 74, 64
2, 69888, Note_off_c, 0, 67, 64
2, 69888, Note_on_c, 0, 60, 92
2, 69888, Note_on_c, 0, 76, 92
2, 69984, Note_off_c, 0, 76, 64
2, 69984, Note_on_c, 0, 79, 92
2, 70080, Note_off_c, 0, 79, 64
2, 70080, Note_off_c, 0, 60, 64
2, 70080, Note_on_c, 0, 72, 92
2, 70176, Note_off_c, 0, 72, 64
2, 70176, Note_on_c, 0, 67, 92
2, 70176, Note_on_c, 0, 74, 92
2, 70272, Note_off_c, 0, 74, 64
2, 70272, Note_off_c, 0, 67, 64
2, 70272, Note_on_c, 0, 72, 92
2, 70272, Note_on_c, 0, 76, 92
2, 70368, Note_off_c, 0, 76, 64
2, 70368, Note_off_c, 0, 72, 64
2, 70368, Note_on_c, 0, 71, 92
2, 70368, Note_on_c, 0, 74, 92
2, 70464, Note_off_c, 0, 74, 64
2, 70464, Note_off_c, 0, 71, 64
2, 70464, Note_on_c, 0, 72, 92
2, 70464, Note_on_c, 0, 76, 92
2, 70560, Note_off_c, 0, 76, 64
2, 70560, Note_off_c, 0, 72, 64
2, 70560, Note_on_c, 0, 69, 92
2, 70560, Note_on_c, 0, 77, 92
2, 70656, Note_off_c, 0, 77, 64
2, 70656, Note_off_c, 0, 69, 64
2, 70656, Note_on_c, 0, 71, 92
2, 70656, Note_on_c, 0, 74, 92
2, 70944, Note_off_c, 0, 74, 64
2, 70944, Note_off_c, 0, 71, 64
2, 70944, Note_on_c, 0, 79, 92
2, 70944, Note_on_c, 0, 76, 92
2, 71040, Note_off_c, 0, 76, 64
2, 71040, Note_off_c, 0, 79, 64
2, 71040, Note_on_c, 0, 83, 92
2, 71040, Note_on_c, 0, 76, 92
2, 71136, Note_off_c, 0, 76, 64
2, 71136, Note_on_c, 0, 77, 92
2, 71232, Note_off_c, 0, 77, 64
2, 71232, Note_off_c, 0, 83, 64
2, 71232, Note_on_c, 0, 79, 92
2, 71232, Note_on_c, 0, 76, 92
2, 71328, Note_off_c, 0, 76, 64
2, 71328, Note_on_c, 0, 77, 92
2, 71424, Note_off_c, 0, 77, 64
2, 71424, Note_off_c, 0, 79, 64
2, 71424, Note_on_c, 0, 81, 92
2, 71424, Note_on_c, 0, 74, 92
2, 71712, Note_off_c, 0, 74, 64
2, 71712, Note_off_c, 0, 81, 64
2, 71712, Note_on_c, 0, 74, 92
2, 71712, Note_on_c, 0, 77, 92
2, 71808, Note_off_c, 0, 77, 64
2, 71808, Note_off_c, 0, 74, 64
2, 71808, Note_on_c, 0, 81, 92
2, 71808, Note_on_c, 0, 74, 92
2, 71904, Note_off_c, 0, 74, 64
2, 71904, Note_on_c, 0, 76, 92
2, 72000, Note_off_c, 0, 76, 64
2, 72000, Note_off_c, 0, 81, 64
2, 72000, Note_on_c, 0, 77, 92
2, 72000, Note_on_c, 0, 74, 92
2, 72096, Note_off_c, 0, 74, 64
2, 72096, Note_on_c, 0, 76, 92
2, 72192, Note_off_c, 0, 76, 64
2, 72192, Note_off_c, 0, 77, 64
2, 72192, Note_on_c, 0, 72, 92
2, 72192, Note_on_c, 0, 79, 92
2, 72384, Note_off_c, 0, 79, 64
2, 72384, Note_on_c, 0, 76, 92
2, 72480, Note_off_c, 0, 76, 64
2, 72480, Note_on_c, 0, 77, 92
2, 72576, Note_off_c, 0, 77, 64
2, 72576, Note_off_c, 0, 72, 64
2, 72576, Note_on_c, 0, 72, 92
2, 72576, Note_on_c, 0, 79, 92
2, 72768, Note_off_c, 0, 79, 64
2, 72768, Note_on_c, 0, 76, 92
2, 72864, Note_off_c, 0, 76, 64
2, 72864, Note_on_c, 0, 77, 92
2, 72960, Note_off_c, 0, 77, 64
2, 72960, Note_off_c, 0, 72, 64
2, 72960, Note_on_c, 0, 72, 92
2, 72960, Note_on_c, 0, 79, 92
2, 73248, Note_off_c, 0, 79, 64
2, 73248, Note_on_c, 0, 77, 92
2, 73344, Note_off_c, 0, 77, 64
2, 73344, Note_off_c, 0, 72, 64
2, 73344, Note_on_c, 0, 79, 92
2, 73440, Note_off_c, 0, 79, 64
2, 73440, Note_on_c, 0, 81, 92
2, 73536, Note_off_c, 0, 81, 64
2, 73536, Note_on_c, 0, 72, 92
2, 73536, Note_on_c, 0, 79, 92
2, 73632, Note_off_c, 0, 79, 64
2, 73632, Note_on_c, 0, 81, 92
2, 73728, Note_off_c, 0, 81, 64
2, 73728, Note_on_c, 0, 74, 92
2, 73824, Note_off_c, 0, 72, 64
2, 73824, Note_on_c, 0, 72, 92
2, 73920, Note_off_c, 0, 72, 64
2, 73920, Note_on_c, 0, 71, 92
2, 74016, Note_off_c, 0, 71, 64
2, 74016, Note_on_c, 0, 69, 92
2, 74112, Note_off_c, 0, 69, 64
2, 74112, Note_on_c, 0, 71, 92
2, 74208, Note_on_c, 0, 67, 92
2, 74304, Note_off_c, 0, 67, 64
2, 74688, Note_off_c, 0, 71, 64
2, 74688, Note_off_c, 0, 74, 64
2, 74688, Note_on_c, 0, 72, 92
2, 74688, Note_on_c, 0, 76, 92
2, 74880, Note_off_c, 0, 76, 64
2, 74880, Note_on_c, 0, 77, 92
2, 74928, Note_off_c, 0, 77, 64
2, 74928, Note_on_c, 0, 79, 92
2, 74976, Note_off_c, 0, 79, 64
2, 74976, Note_on_c, 0, 77, 92
2, 75072, Note_off_c, 0, 72, 64
2, 75072, Note_on_c, 0, 71, 92
2, 75168, Note_off_c, 0, 77, 64
2, 75168, Note_on_c, 0, 76, 92
2, 75264, Note_off_c, 0, 76, 64
2, 75264, Note_off_c, 0, 71, 64
2, 75264, Note_on_c, 0, 72, 92
2, 75264, Note_on_c, 0, 76, 92
2, 75456, Note_off_c, 0, 76, 64
2, 75456, Note_off_c, 0, 72, 64
2, 75552, Note_on_c, 0, 69, 92
2, 75552, Note_on_c, 0, 64, 92
2, 75648, Note_off_c, 0, 64, 64
2, 75648, Note_off_c, 0, 69, 64
2, 75648, Note_on_c, 0, 69, 92
2, 75648, Note_on_c, 0, 64, 92
2, 75744, Note_off_c, 0, 64, 64
2, 75744, Note_on_c, 0, 65, 92
2, 75840, Note_off_c, 0, 65, 64
2, 75840, Note_on_c, 0, 64, 92
2, 75936, Note_off_c, 0, 64, 64
2, 75936, Note_on_c, 0, 65, 92
2, 76032, Note_off_c, 0, 65, 64
2, 76032, Note_on_c, 0, 62, 92
2, 76224, Note_off_c, 0, 69, 64
2, 76224, Note_on_c, 0, 67, 92
2, 76416, Note_off_c, 0, 62, 64
2, 76416, Note_on_c, 0, 62, 92
2, 76512, Note_off_c, 0, 62, 64
2, 76512, Note_on_c, 0, 64, 92
2, 76608, Note_off_c, 0, 64, 64
2, 76608, Note_on_c, 0, 62, 92
2, 76704, Note_off_c, 0, 62, 64
2, 76704, Note_on_c, 0, 64, 92
2, 76800, Note_off_c, 0, 64, 64
2, 76800, Note_on_c, 0, 60, 92
2, 76800, Note_on_c, 0, 57, 92
2, 76896, Note_off_c, 0, 57, 64
2, 76992, Note_off_c, 0, 67, 64
2, 76992, Note_on_c, 0, 65, 92
2, 77088, Note_off_c, 0, 65, 64
2, 77088, Note_on_c, 0, 64, 92
2, 77184, Note_off_c, 0, 64, 64
2, 77184, Note_off_c, 0, 60, 64
2, 77184, Note_on_c, 0, 65, 92
2, 77184, Note_on_c, 0, 60, 92
2, 77376, Note_off_c, 0, 65, 64
2, 77376, Note_on_c, 0, 69, 92
2, 77472, Note_off_c, 0, 69, 64
2, 77472, Note_on_c, 0, 67, 92
2, 77568, Note_off_c, 0, 67, 64
2, 77568, Note_off_c, 0, 60, 64
2, 77568, Note_on_c, 0, 60, 92
2, 77568, Note_on_c, 0, 65, 92
2, 77760, Note_off_c, 0, 65, 64
2, 77760, Note_off_c, 0, 60, 64
2, 77760, Note_on_c, 0, 64, 92
2, 77760, Note_on_c, 0, 67, 92
2, 77952, Note_off_c, 0, 67, 64
2, 77952, Note_off_c, 0, 64, 64
2, 77952, Note_on_c, 0, 65, 92
2, 77952, Note_on_c, 0, 69, 92
2, 78144, Note_off_c, 0, 69, 64
2, 78144, Note_on_c, 0, 72, 92
2, 78336, Note_off_c, 0, 72, 64
2, 78432, Note_on_c, 0, 67, 92
2, 78528, Note_off_c, 0, 67, 64
2, 78528, Note_on_c, 0, 69, 92
2, 78624, Note_off_c, 0, 69, 64
2, 78624, Note_on_c, 0, 71, 92
2, 78720, Note_off_c, 0, 71, 64
2, 78720, Note_off_c, 0, 65, 64
2, 78720, Note_on_c, 0, 64, 92
2, 78720, Note_on_c, 0, 72, 92
2, 78816, Note_off_c, 0, 72, 64
2, 78816, Note_on_c, 0, 74, 92
2, 78912, Note_off_c, 0, 74, 64
2, 78912, Note_on_c, 0, 76, 92
2, 79008, Note_off_c, 0, 76, 64
2, 79008, Note_on_c, 0, 69, 92
2, 79104, Note_off_c, 0, 69, 64
2, 79104, Note_off_c, 0, 64, 64
2, 79104, Note_on_c, 0, 62, 92
2, 79104, Note_on_c, 0, 74, 92
2, 79200, Note_off_c, 0, 74, 64
2, 79200, Note_on_c, 0, 66, 92
2, 79296, Note_off_c, 0, 66, 64
2, 79296, Note_on_c, 0, 67, 92
2, 79392, Note_off_c, 0, 67, 64
2, 79392, Note_on_c, 0, 69, 92
2, 79488, Note_off_c, 0, 69, 64
2, 79488, Note_off_c, 0, 62, 64
2, 79488, Note_on_c, 0, 62, 92
2, 79488, Note_on_c, 0, 67, 92
2, 79584, Note_off_c, 0, 67, 64
2, 79584, Note_on_c, 0, 74, 92
2, 79680, Note_off_c, 0, 74, 64
2, 79680, Note_on_c, 0, 72, 92
2, 79776, Note_off_c, 0, 72, 64
2, 79776, Note_on_c, 0, 71, 92
2, 79872, Note_off_c, 0, 71, 64
2, 79872, Note_off_c, 0, 62, 64
2, 79872, Note_on_c, 0, 72, 92
2, 79872, Note_on_c, 0, 64, 92
2, 80256, Note_off_c, 0, 64, 64
2, 80256, Note_on_c, 0, 62, 92
2, 80352, Note_off_c, 0, 72, 64
2, 80352, Note_on_c, 0, 76, 92
2, 80448, Note_off_c, 0, 76, 64
2, 80448, Note_on_c, 0, 74, 92
2, 80544, Note_off_c, 0, 74, 64
2, 80544, Note_on_c, 0, 72, 92
2, 80640, Note_off_c, 0, 72, 64
2, 80640, Note_on_c, 0, 71, 92
2, 80832, Note_off_c, 0, 62, 64
2, 80832, Note_on_c, 0, 67, 92
2, 81024, Note_off_c, 0, 71, 64
2, 81024, Note_on_c, 0, 69, 92
2, 81216, Note_off_c, 0, 67, 64
2, 81216, Note_on_c, 0, 65, 92
2, 81408, Note_off_c, 0, 69, 64
2, 81408, Note_on_c, 0, 67, 92
2, 81600, Note_off_c, 0, 65, 64
2, 81600, Note_on_c, 0, 64, 92
2, 81792, Note_off_c, 0, 67, 64
2, 81792, Note_on_c, 0, 65, 92
2, 81984, Note_off_c, 0, 64, 64
2, 81984, Note_on_c, 0, 62, 92
2, 82176, Note_off_c, 0, 65, 64
2, 82176, Note_on_c, 0, 64, 92
2, 82368, Note_off_c, 0, 62, 64
2, 82368, Note_on_c, 0, 60, 92
2, 82560, Note_off_c, 0, 64, 64
2, 82560, Note_on_c, 0, 62, 92
2, 82752, Note_off_c, 0, 60, 64
2, 82752, Note_on_c, 0, 59, 92
2, 82944, Note_off_c, 0, 59, 64
2, 82944, Note_off_c, 0, 62, 64
2, 82944, Note_on_c, 0, 60, 92
2, 83040, Note_on_c, 0, 72, 92
2, 83136, Note_off_c, 0, 72, 64
2, 83136, Note_off_c, 0, 60, 64
2, 83136, Note_on_c, 0, 60, 92
2, 83232, Note_off_c, 0, 60, 64
2, 83232, Note_on_c, 0, 72, 92
2, 83328, Note_off_c, 0, 72, 64
2, 83328, Note_on_c, 0, 72, 92
2, 83424, Note_off_c, 0, 72, 64
2, 83424, Note_on_c, 0, 74, 92
2, 83520, Note_off_c, 0, 74, 64
2, 83520, Note_on_c, 0, 72, 92
2, 83616, Note_off_c, 0, 72, 64
2, 83616, Note_on_c, 0, 74, 92
2, 83712, Note_off_c, 0, 74, 64
2, 83712, Note_on_c, 0, 71, 92
2, 83808, Note_off_c, 0, 71, 64
2, 83808, Note_on_c, 0, 67, 92
2, 83808, Note_on_c, 0, 69, 92
2, 83904, Note_off_c, 0, 69, 64
2, 83904, Note_off_c, 0, 67, 64
2, 83904, Note_on_c, 0, 55, 92
2, 83904, Note_on_c, 0, 71, 92
2, 84000, Note_off_c, 0, 71, 64
2, 84000, Note_off_c, 0, 55, 64
2, 84000, Note_on_c, 0, 67, 92
2, 84000, Note_on_c, 0, 72, 92
2, 84096, Note_off_c, 0, 72, 64
2, 84096, Note_off_c, 0, 67, 64
2, 84096, Note_on_c, 0, 67, 92
2, 84096, Note_on_c, 0, 71, 92
2, 84192, Note_off_c, 0, 71, 64
2, 84192, Note_off_c, 0, 67, 64
2, 84192, Note_on_c, 0, 69, 92
2, 84192, Note_on_c, 0, 72, 92
2, 84288, Note_off_c, 0, 72, 64
2, 84288, Note_off_c, 0, 69, 64
2, 84288, Note_on_c, 0, 67, 92
2, 84288, Note_on_c, 0, 71, 92
2, 84384, Note_off_c, 0, 71, 64
2, 84384, Note_off_c, 0, 67, 64
2, 84384, Note_on_c, 0, 69, 92
2, 84384, Note_on_c, 0, 72, 92
2, 84480, Note_off_c, 0, 72, 64
2, 84480, Note_off_c, 0, 69, 64
2, 84480, Note_on_c, 0, 65, 92
2, 84480, Note_on_c, 0, 69, 92
2, 84576, Note_off_c, 0, 69, 64
2, 84576, Note_off_c, 0, 65, 64
2, 84576, Note_on_c, 0, 64, 92
2, 84576, Note_on_c, 0, 81, 92
2, 84672, Note_off_c, 0, 81, 64
2, 84672, Note_off_c, 0, 64, 64
2, 84672, Note_on_c, 0, 65, 92
2, 84672, Note_on_c, 0, 69, 92
2, 84768, Note_off_c, 0, 69, 64
2, 84768, Note_off_c, 0, 65, 64
2, 84768, Note_on_c, 0, 67, 92
2, 84768, Note_on_c, 0, 81, 92
2, 84864, Note_off_c, 0, 81, 64
2, 84864, Note_off_c, 0, 67, 64
2, 84864, Note_on_c, 0, 65, 92
2, 84864, Note_on_c, 0, 81, 92
2, 84960, Note_off_c, 0, 81, 64
2, 84960, Note_off_c, 0, 65, 64
2, 84960, Note_on_c, 0, 67, 92
2, 84960, Note_on_c, 0, 83, 92
2, 85056, Note_off_c, 0, 83, 64
2, 85056, Note_off_c, 0, 67, 64
2, 85056, Note_on_c, 0, 65, 92
2, 85056, Note_on_c, 0, 81, 92
2, 85152, Note_off_c, 0, 81, 64
2, 85152, Note_off_c, 0, 65, 64
2, 85152, Note_on_c, 0, 67, 92
2, 85152, Note_on_c, 0, 83, 92
2, 85248, Note_off_c, 0, 83, 64
2, 85248, Note_off_c, 0, 67, 64
2, 85248, Note_on_c, 0, 64, 92
2, 85248, Note_on_c, 0, 79, 92
2, 85344, Note_off_c, 0, 79, 64
2, 85344, Note_off_c, 0, 64, 64
2, 85344, Note_on_c, 0, 77, 92
2, 85344, Note_on_c, 0, 76, 92
2, 85440, Note_off_c, 0, 76, 64
2, 85440, Note_off_c, 0, 77, 64
2, 85440, Note_on_c, 0, 64, 92
2, 85440, Note_on_c, 0, 79, 92
2, 85536, Note_off_c, 0, 79, 64
2, 85536, Note_off_c, 0, 64, 64
2, 85536, Note_on_c, 0, 76, 92
2, 85536, Note_on_c, 0, 81, 92
2, 85632, Note_off_c, 0, 81, 64
2, 85632, Note_off_c, 0, 76, 64
2, 85632, Note_on_c, 0, 76, 92
2, 85632, Note_on_c, 0, 79, 92
2, 85728, Note_off_c, 0, 79, 64
2, 85728, Note_off_c, 0, 76, 64
2, 85728, Note_on_c, 0, 77, 92
2, 85728, Note_on_c, 0, 81, 92
2, 85824, Note_off_c, 0, 81, 64
2, 85824, Note_off_c, 0, 77, 64
2, 85824, Note_on_c, 0, 76, 92
2, 85824, Note_on_c, 0, 79, 92
2, 85920, Note_off_c, 0, 79, 64
2, 85920, Note_off_c, 0, 76, 64
2, 85920, Note_on_c, 0, 77, 92
2, 85920, Note_on_c, 0, 81, 92
2, 86016, Note_off_c, 0, 81, 64
2, 86016, Note_off_c, 0, 77, 64
2, 86016, Note_on_c, 0, 74, 92
2, 86016, Note_on_c, 0, 77, 92
2, 86112, Note_off_c, 0, 77, 64
2, 86112, Note_on_c, 0, 76, 92
2, 86208, Note_off_c, 0, 76, 64
2, 86208, Note_off_c, 0, 74, 64
2, 86208, Note_on_c, 0, 72, 92
2, 86208, Note_on_c, 0, 77, 92
2, 86304, Note_off_c, 0, 77, 64
2, 86304, Note_on_c, 0, 79, 92
2, 86400, Note_off_c, 0, 79, 64
2, 86400, Note_off_c, 0, 72, 64
2, 86400, Note_on_c, 0, 71, 92
2, 86400, Note_on_c, 0, 77, 92
2, 86496, Note_off_c, 0, 77, 64
2, 86496, Note_on_c, 0, 74, 92
2, 86592, Note_off_c, 0, 74, 64
2, 86592, Note_off_c, 0, 71, 64
2, 86592, Note_on_c, 0, 67, 92
2, 86592, Note_on_c, 0, 76, 92
2, 86688, Note_off_c, 0, 76, 64
2, 86688, Note_on_c, 0, 77, 92
2, 86784, Note_off_c, 0, 77, 64
2, 86784, Note_off_c, 0, 67, 64
2, 86784, Note_on_c, 0, 72, 92
2, 86784, Note_on_c, 0, 76, 92
2, 86880, Note_off_c, 0, 76, 64
2, 86880, Note_off_c, 0, 72, 64
2, 86880, Note_on_c, 0, 74, 92
2, 86880, Note_on_c, 0, 77, 92
2, 86976, Note_off_c, 0, 77, 64
2, 86976, Note_off_c, 0, 74, 64
2, 86976, Note_on_c, 0, 72, 92
2, 86976, Note_on_c, 0, 76, 92
2, 87072, Note_off_c, 0, 76, 64
2, 87072, Note_off_c, 0, 72, 64
2, 87072, Note_on_c, 0, 71, 92
2, 87072, Note_on_c, 0, 74, 92
2, 87168, Note_off_c, 0, 74, 64
2, 87168, Note_off_c, 0, 71, 64
2, 87168, Note_on_c, 0, 72, 92
2, 87168, Note_on_c, 0, 69, 92
2, 87360, Note_off_c, 0, 69, 64
2, 87360, Note_on_c, 0, 67, 92
2, 87456, Note_off_c, 0, 72, 64
2, 87456, Note_on_c, 0, 71, 92
2, 87552, Note_off_c, 0, 71, 64
2, 87552, Note_on_c, 0, 69, 92
2, 87744, Note_off_c, 0, 67, 64
2, 87936, Note_off_c, 0, 69, 64
2, 87936, Note_on_c, 0, 74, 92
2, 87936, Note_on_c, 0, 71, 92
2, 88032, Note_off_c, 0, 71, 64
2, 88032, Note_on_c, 0, 72, 92
2, 88128, Note_off_c, 0, 72, 64
2, 88128, Note_on_c, 0, 71, 92
2, 88224, Note_off_c, 0, 71, 64
2, 88224, Note_on_c, 0, 72, 92
2, 88320, Note_off_c, 0, 72, 64
2, 88320, Note_off_c, 0, 74, 64
2, 88320, Note_on_c, 0, 69, 92
2, 88320, Note_on_c, 0, 76, 92
2, 88608, Note_off_c, 0, 76, 64
2, 88608, Note_off_c, 0, 69, 64
2, 88608, Note_on_c, 0, 69, 92
2, 88608, Note_on_c, 0, 72, 92
2, 88704, Note_off_c, 0, 72, 64
2, 88704, Note_off_c, 0, 69, 64
2, 88704, Note_on_c, 0, 76, 92
2, 88704, Note_on_c, 0, 69, 92
2, 88800, Note_off_c, 0, 69, 64
2, 88800, Note_on_c, 0, 71, 92
2, 88896, Note_off_c, 0, 71, 64
2, 88896, Note_off_c, 0, 76, 64
2, 88896, Note_on_c, 0, 72, 92
2, 88896, Note_on_c, 0, 69, 92
2, 88992, Note_off_c, 0, 69, 64
2, 88992, Note_on_c, 0, 71, 92
2, 89088, Note_off_c, 0, 71, 64
2, 89088, Note_off_c, 0, 72, 64
2, 89088, Note_on_c, 0, 67, 92
2, 89088, Note_on_c, 0, 74, 92
2, 89280, Note_off_c, 0, 74, 64
2, 89280, Note_on_c, 0, 71, 92
2, 89376, Note_off_c, 0, 71, 64
2, 89376, Note_on_c, 0, 72, 92
2, 89472, Note_off_c, 0, 72, 64
2, 89472, Note_off_c, 0, 67, 64
2, 89472, Note_on_c, 0, 67, 92
2, 89472, Note_on_c, 0, 74, 92
2, 89664, Note_off_c, 0, 74, 64
2, 89664, Note_on_c, 0, 71, 92
2, 89760, Note_off_c, 0, 71, 64
2, 89760, Note_on_c, 0, 72, 92
2, 89856, Note_off_c, 0, 72, 64
2, 89856, Note_off_c, 0, 67, 64
2, 89856, Note_on_c, 0, 67, 92
2, 89856, Note_on_c, 0, 74, 92
2, 90048, Note_off_c, 0, 74, 64
2, 90048, Note_off_c, 0, 67, 64
2, 90048, Note_on_c, 0, 66, 92
2, 90048, Note_on_c, 0, 72, 92
2, 90240, Note_off_c, 0, 72, 64
2, 90240, Note_off_c, 0, 66, 64
2, 90240, Note_on_c, 0, 67, 92
2, 90240, Note_on_c, 0, 71, 92
2, 90624, Note_off_c, 0, 71, 64
2, 90624, Note_on_c, 0, 69, 92
2, 90720, Note_off_c, 0, 67, 64
2, 90720, Note_on_c, 0, 67, 92
2, 90816, Note_off_c, 0, 67, 64
2, 90816, Note_on_c, 0, 66, 92
2, 90912, Note_off_c, 0, 66, 64
2, 90912, Note_on_c, 0, 64, 92
2, 91008, Note_off_c, 0, 64, 64
2, 91008, Note_off_c, 0, 69, 64
2, 91008, Note_on_c, 0, 65, 92
2, 91200, Note_on_c, 0, 74, 92
2, 91392, Note_off_c, 0, 65, 64
2, 91392, Note_on_c, 0, 67, 92
2, 91488, Note_off_c, 0, 74, 64
2, 91488, Note_on_c, 0, 74, 92
2, 91584, Note_off_c, 0, 74, 64
2, 91584, Note_on_c, 0, 72, 92
2, 91680, Note_off_c, 0, 72, 64
2, 91680, Note_on_c, 0, 71, 92
2, 91776, Note_off_c, 0, 71, 64
2, 91776, Note_on_c, 0, 72, 92
2, 91968, Note_off_c, 0, 67, 64
2, 91968, Note_on_c, 0, 69, 92
2, 92160, Note_off_c, 0, 69, 64
2, 92160, Note_on_c, 0, 62, 92
2, 92256, Note_off_c, 0, 72, 64
2, 92256, Note_on_c, 0, 72, 92
2, 92352, Note_off_c, 0, 72, 64
2, 92352, Note_on_c, 0, 71, 92
2, 92448, Note_off_c, 0, 71, 64
2, 92448, Note_on_c, 0, 69, 92
2, 92544, Note_off_c, 0, 69, 64
2, 92544, Note_on_c, 0, 71, 92
2, 92736, Note_off_c, 0, 62, 64
2, 92736, Note_on_c, 0, 62, 92
2, 92928, Note_off_c, 0, 62, 64
2, 92928, Note_on_c, 0, 64, 92
2, 93024, Note_off_c, 0, 71, 64
2, 93024, Note_on_c, 0, 71, 92
2, 93120, Note_off_c, 0, 71, 64
2, 93120, Note_on_c, 0, 69, 92
2, 93216, Note_off_c, 0, 69, 64
2, 93216, Note_on_c, 0, 67, 92
2, 93312, Note_off_c, 0, 67, 64
2, 93312, Note_on_c, 0, 69, 92
2, 93408, Note_off_c, 0, 64, 64
2, 93408, Note_on_c, 0, 64, 92
2, 93504, Note_off_c, 0, 64, 64
2, 93504, Note_on_c, 0, 62, 92
2, 93600, Note_off_c, 0, 62, 64
2, 93600, Note_on_c, 0, 60, 92
2, 93696, Note_off_c, 0, 60, 64
2, 93696, Note_on_c, 0, 59, 92
2, 93792, Note_off_c, 0, 69, 64
2, 93792, Note_on_c, 0, 69, 92
2, 93888, Note_off_c, 0, 69, 64
2, 93888, Note_on_c, 0, 67, 92
2, 93984, Note_off_c, 0, 67, 64
2, 93984, Note_on_c, 0, 66, 92
2, 94080, Note_off_c, 0, 66, 64
2, 94080, Note_on_c, 0, 67, 92
2, 94176, Note_off_c, 0, 59, 64
2, 94176, Note_on_c, 0, 62, 92
2, 94272, Note_off_c, 0, 62, 64
2, 94272, Note_on_c, 0, 60, 92
2, 94368, Note_off_c, 0, 60, 64
2, 94368, Note_on_c, 0, 62, 92
2, 94464, Note_off_c, 0, 62, 64
2, 94560, Note_off_c, 0, 67, 64
2, 94560, Note_on_c, 0, 67, 92
2, 94656, Note_off_c, 0, 67, 64
2, 94656, Note_on_c, 0, 72, 92
2, 94752, Note_off_c, 0, 72, 64
2, 94752, Note_on_c, 0, 71, 92
2, 94848, Note_off_c, 0, 71, 64
2, 94848, Note_on_c, 0, 69, 92
2, 94944, Note_on_c, 0, 66, 92
2, 95040, Note_off_c, 0, 69, 64
2, 95040, Note_on_c, 0, 74, 92
2, 95136, Note_off_c, 0, 74, 64
2, 95136, Note_on_c, 0, 72, 92
2, 95232, Note_off_c, 0, 72, 64
2, 95232, Note_off_c, 0, 66, 64
2, 95232, Note_on_c, 0, 67, 92
2, 95232, Note_on_c, 0, 71, 92
2, 95424, Note_off_c, 0, 71, 64
2, 95424, Note_off_c, 0, 67, 64
2, 95424, Note_on_c, 0, 69, 92
2, 95424, Note_on_c, 0, 72, 92
2, 95616, Note_off_c, 0, 72, 64
2, 95616, Note_off_c, 0, 69, 64
2, 95616, Note_on_c, 0, 71, 92
2, 95616, Note_on_c, 0, 74, 92
2, 95904, Note_off_c, 0, 74, 64
2, 95904, Note_off_c, 0, 71, 64
2, 95904, Note_on_c, 0, 71, 92
2, 95904, Note_on_c, 0, 74, 92
2, 96000, Note_off_c, 0, 74, 64
2, 96000, Note_off_c, 0, 71, 64
2, 96000, Note_on_c, 0, 69, 92
2, 96000, Note_on_c, 0, 72, 92
2, 96096, Note_off_c, 0, 72, 64
2, 96096, Note_on_c, 0, 74, 92
2, 96192, Note_off_c, 0, 74, 64
2, 96192, Note_off_c, 0, 69, 64
2, 96192, Note_on_c, 0, 72, 92
2, 96288, Note_off_c, 0, 72, 64
2, 96288, Note_on_c, 0, 71, 92
2, 96384, Note_off_c, 0, 71, 64
2, 96384, Note_on_c, 0, 69, 92
2, 96480, Note_off_c, 0, 69, 64
2, 96480, Note_on_c, 0, 71, 92
2, 96576, Note_off_c, 0, 71, 64
2, 96576, Note_on_c, 0, 66, 92
2, 96576, Note_on_c, 0, 72, 92
2, 96672, Note_off_c, 0, 72, 64
2, 96672, Note_on_c, 0, 74, 92
2, 96768, Note_off_c, 0, 74, 64
2, 96768, Note_off_c, 0, 66, 64
2, 96768, Note_on_c, 0, 67, 92
2, 96768, Note_on_c, 0, 71, 92
2, 96960, Note_off_c, 0, 71, 64
2, 96960, Note_off_c, 0, 67, 64
2, 97344, Note_on_c, 0, 64, 92
2, 97344, Note_on_c, 0, 71, 92
2, 97344, Note_on_c, 0, 67, 92
2, 97344, Note_on_c, 0, 76, 92
2, 97536, Note_off_c, 0, 76, 64
2, 97536, Note_off_c, 0, 67, 64
2, 97536, Note_off_c, 0, 71, 64
2, 97536, Note_off_c, 0, 64, 64
2, 97536, Note_on_c, 0, 65, 92
2, 97536, Note_on_c, 0, 69, 92
2, 97536, Note_on_c, 0, 72, 92
2, 97536, Note_on_c, 0, 76, 92
2, 97728, Note_off_c, 0, 76, 64
2, 97728, Note_off_c, 0, 72, 64
2, 97728, Note_off_c, 0, 69, 64
2, 97728, Note_off_c, 0, 65, 64
2, 98112, Note_on_c, 0, 65, 92
2, 98112, Note_on_c, 0, 69, 92
2, 98112, Note_on_c, 0, 74, 92
2, 98304, Note_off_c, 0, 74, 64
2, 98304, Note_off_c, 0, 69, 64
2, 98304, Note_off_c, 0, 65, 64
2, 98400, Note_on_c, 0, 79, 92
2, 98496, Note_off_c, 0, 79, 64
2, 98496, Note_on_c, 0, 67, 92
2, 98592, Note_off_c, 0, 67, 64
2, 98592, Note_on_c, 0, 79, 92
2, 98688, Note_off_c, 0, 79, 64
2, 98688, Note_on_c, 0, 79, 92
2, 98784, Note_off_c, 0, 79, 64
2, 98784, Note_on_c, 0, 81, 92
2, 98880, Note_off_c, 0, 81, 64
2, 98880, Note_on_c, 0, 79, 92
2, 98976, Note_off_c, 0, 79, 64
2, 98976, Note_on_c, 0, 81, 92
2, 99072, Note_off_c, 0, 81, 64
2, 99072, Note_on_c, 0, 77, 92
2, 99168, Note_off_c, 0, 77, 64
2, 99168, Note_on_c, 0, 77, 92
2, 99264, Note_off_c, 0, 77, 64
2, 99264, Note_on_c, 0, 65, 92
2, 99360, Note_off_c, 0, 65, 64
2, 99360, Note_on_c, 0, 77, 92
2, 99456, Note_off_c, 0, 77, 64
2, 99456, Note_on_c, 0, 77, 92
2, 99552, Note_off_c, 0, 77, 64
2, 99552, Note_on_c, 0, 79, 92
2, 99648, Note_off_c, 0, 79, 64
2, 99648, Note_on_c, 0, 77, 92
2, 99744, Note_off_c, 0, 77, 64
2, 99744, Note_on_c, 0, 79, 92
2, 99840, Note_off_c, 0, 79, 64
2, 99840, Note_on_c, 0, 76, 92
2, 99936, Note_off_c, 0, 76, 64
2, 99936, Note_on_c, 0, 67, 92
2, 100032, Note_off_c, 0, 67, 64
2, 100032, Note_on_c, 0, 72, 92
2, 100128, Note_off_c, 0, 72, 64
2, 100128, Note_on_c, 0, 74, 92
2, 100224, Note_off_c, 0, 74, 64
2, 100224, Note_on_c, 0, 76, 92
2, 100320, Note_off_c, 0, 76, 64
2, 100320, Note_on_c, 0, 67, 92
2, 100416, Note_off_c, 0, 67, 64
2, 100416, Note_on_c, 0, 72, 92
2, 100512, Note_off_c, 0, 72, 64
2, 100512, Note_on_c, 0, 74, 92
2, 100608, Note_off_c, 0, 74, 64
2, 100608, Note_on_c, 0, 76, 92
2, 100704, Note_off_c, 0, 76, 64
2, 100704, Note_on_c, 0, 77, 92
2, 100800, Note_off_c, 0, 77, 64
2, 100800, Note_on_c, 0, 74, 92
2, 100896, Note_off_c, 0, 74, 64
2, 100896, Note_on_c, 0, 76, 92
2, 100992, Note_off_c, 0, 76, 64
2, 100992, Note_on_c, 0, 72, 92
2, 101088, Note_off_c, 0, 72, 64
2, 101088, Note_on_c, 0, 74, 92
2, 101184, Note_off_c, 0, 74, 64
2, 101184, Note_on_c, 0, 76, 92
2, 101280, Note_off_c, 0, 76, 64
2, 101280, Note_on_c, 0, 77, 92
2, 101376, Note_off_c, 0, 77, 64
2, 101376, Note_on_c, 0, 79, 92
2, 101472, Note_off_c, 0, 79, 64
2, 101472, Note_on_c, 0, 81, 92
2, 101568, Note_off_c, 0, 81, 64
2, 101568, Note_on_c, 0, 77, 92
2, 101664, Note_off_c, 0, 77, 64
2, 101664, Note_on_c, 0, 79, 92
2, 101760, Note_off_c, 0, 79, 64
2, 101760, Note_on_c, 0, 76, 92
2, 101856, Note_off_c, 0, 76, 64
2, 101856, Note_on_c, 0, 78, 92
2, 101952, Note_off_c, 0, 78, 64
2, 101952, Note_on_c, 0, 79, 92
2, 102048, Note_off_c, 0, 79, 64
2, 102048, Note_on_c, 0, 81, 92
2, 102144, Note_off_c, 0, 81, 64
2, 102144, Note_on_c, 0, 83, 92
2, 102240, Note_on_c, 0, 79, 92
2, 102336, Note_off_c, 0, 79, 64
2, 102336, Note_off_c, 0, 83, 64
2, 102336, Note_on_c, 0, 67, 92
2, 102432, Note_off_c, 0, 67, 64
2, 102432, Note_on_c, 0, 79, 92
2, 102528, Note_off_c, 0, 79, 64
2, 102528, Note_on_c, 0, 79, 92
2, 102624, Note_off_c, 0, 79, 64
2, 102624, Note_on_c, 0, 81, 92
2, 102720, Note_off_c, 0, 81, 64
2, 102720, Note_on_c, 0, 84, 92
2, 102720, Note_on_c, 0, 79, 92
2, 102816, Note_off_c, 0, 79, 64
2, 102816, Note_on_c, 0, 81, 92
2, 102912, Note_off_c, 0, 81, 64
2, 102912, Note_off_c, 0, 84, 64
2, 102912, Note_on_c, 0, 84, 92
2, 102912, Note_on_c, 0, 77, 92
2, 103008, Note_off_c, 0, 77, 64
2, 103008, Note_on_c, 0, 77, 92
2, 103104, Note_off_c, 0, 77, 64
2, 103104, Note_off_c, 0, 84, 64
2, 103104, Note_on_c, 0, 65, 92
2, 103200, Note_off_c, 0, 65, 64
2, 103200, Note_on_c, 0, 77, 92
2, 103296, Note_off_c, 0, 77, 64
2, 103296, Note_on_c, 0, 77, 92
2, 103392, Note_off_c, 0, 77, 64
2, 103392, Note_on_c, 0, 79, 92
2, 103488, Note_off_c, 0, 79, 64
2, 103488, Note_on_c, 0, 83, 92
2, 103488, Note_on_c, 0, 77, 92
2, 103584, Note_off_c, 0, 77, 64
2, 103584, Note_on_c, 0, 79, 92
2, 103680, Note_off_c, 0, 79, 64
2, 103680, Note_off_c, 0, 83, 64
2, 103680, Note_on_c, 0, 84, 92
2, 103680, Note_on_c, 0, 76, 92
2, 103776, Note_off_c, 0, 76, 64
2, 103776, Note_on_c, 0, 67, 92
2, 103872, Note_off_c, 0, 67, 64
2, 103872, Note_off_c, 0, 84, 64
2, 103872, Note_on_c, 0, 76, 92
2, 103872, Note_on_c, 0, 72, 92
2, 103968, Note_off_c, 0, 72, 64
2, 103968, Note_off_c, 0, 76, 64
2, 103968, Note_on_c, 0, 77, 92
2, 103968, Note_on_c, 0, 74, 92
2, 104064, Note_off_c, 0, 74, 64
2, 104064, Note_off_c, 0, 77, 64
2, 104064, Note_on_c, 0, 79, 92
2, 104064, Note_on_c, 0, 76, 92
2, 104160, Note_off_c, 0, 76, 64
2, 104160, Note_on_c, 0, 67, 92
2, 104256, Note_off_c, 0, 67, 64
2, 104256, Note_off_c, 0, 79, 64
2, 104256, Note_on_c, 0, 72, 92
2, 104256, Note_on_c, 0, 69, 92
2, 104352, Note_off_c, 0, 69, 64
2, 104352, Note_off_c, 0, 72, 64
2, 104352, Note_on_c, 0, 74, 92
2, 104352, Note_on_c, 0, 71, 92
2, 104448, Note_off_c, 0, 71, 64
2, 104448, Note_off_c, 0, 74, 64
2, 104448, Note_on_c, 0, 76, 92
2, 104448, Note_on_c, 0, 72, 92
2, 104832, Note_off_c, 0, 76, 64
2, 104832, Note_on_c, 0, 81, 92
2, 105024, Note_off_c, 0, 81, 64
2, 105024, Note_off_c, 0, 72, 64
2, 105024, Note_on_c, 0, 74, 92
2, 105024, Note_on_c, 0, 72, 92
2, 105216, Note_off_c, 0, 72, 64
2, 105216, Note_on_c, 0, 71, 92
2, 105408, Note_off_c, 0, 74, 64
2, 105408, Note_on_c, 0, 74, 92
2, 105600, Note_off_c, 0, 74, 64
2, 105600, Note_on_c, 0, 79, 92
2, 105792, Note_off_c, 0, 79, 64
2, 105792, Note_off_c, 0, 71, 64
2, 105792, Note_on_c, 0, 71, 92
2, 105792, Note_on_c, 0, 72, 92
2, 105984, Note_off_c, 0, 71, 64
2, 105984, Note_on_c, 0, 69, 92
2, 106080, Note_off_c, 0, 72, 64
2, 106080, Note_on_c, 0, 72, 92
2, 106176, Note_off_c, 0, 69, 64
2, 106176, Note_on_c, 0, 67, 92
2, 106272, Note_off_c, 0, 72, 64
2, 106272, Note_on_c, 0, 71, 92
2, 106368, Note_off_c, 0, 71, 64
2, 106368, Note_off_c, 0, 67, 64
2, 106368, Note_on_c, 0, 65, 92
2, 106368, Note_on_c, 0, 69, 92
2, 106464, Note_off_c, 0, 69, 64
2, 106464, Note_on_c, 0, 74, 92
2, 106560, Note_off_c, 0, 65, 64
2, 106560, Note_on_c, 0, 64, 92
2, 106656, Note_off_c, 0, 74, 64
2, 106656, Note_on_c, 0, 72, 92
2, 106752, Note_off_c, 0, 72, 64
2, 106752, Note_off_c, 0, 64, 64
2, 106752, Note_on_c, 0, 62, 92
2, 106752, Note_on_c, 0, 71, 92
2, 107136, Note_off_c, 0, 71, 64
2, 107136, Note_off_c, 0, 62, 64
2, 107136, Note_on_c, 0, 64, 92
2, 107136, Note_on_c, 0, 72, 92
2, 107328, Note_off_c, 0, 72, 64
2, 107328, Note_off_c, 0, 64, 64
2, 107328, Note_on_c, 0, 65, 92
2, 107328, Note_on_c, 0, 74, 92
2, 107520, Note_off_c, 0, 74, 64
2, 107520, Note_off_c, 0, 65, 64
2, 107520, Note_on_c, 0, 67, 92
2, 107520, Note_on_c, 0, 76, 92
2, 108384, Note_off_c, 0, 76, 64
2, 108384, Note_on_c, 0, 77, 92
2, 108480, Note_off_c, 0, 77, 64
2, 108480, Note_off_c, 0, 67, 64
2, 108480, Note_on_c, 0, 62, 92
2, 108480, Note_on_c, 0, 79, 92
2, 108576, Note_off_c, 0, 79, 64
2, 108576, Note_on_c, 0, 81, 92
2, 108672, Note_off_c, 0, 81, 64
2, 108672, Note_off_c, 0, 62, 64
2, 108672, Note_on_c, 0, 64, 92
2, 108672, Note_on_c, 0, 79, 92
2, 108768, Note_off_c, 0, 79, 64
2, 108768, Note_on_c, 0, 73, 92
2, 108864, Note_off_c, 0, 73, 64
2, 108864, Note_off_c, 0, 64, 64
2, 108864, Note_on_c, 0, 62, 92
2, 108864, Note_on_c, 0, 74, 92
2, 108960, Note_off_c, 0, 74, 64
2, 108960, Note_on_c, 0, 76, 92
2, 109056, Note_off_c, 0, 62, 64
2, 109056, Note_on_c, 0, 77, 92
2, 109632, Note_off_c, 0, 76, 64
2, 109632, Note_on_c, 0, 74, 92
2, 109824, Note_off_c, 0, 77, 64
2, 109824, Note_on_c, 0, 76, 92
2, 109920, Note_off_c, 0, 74, 64
2, 109920, Note_on_c, 0, 72, 92
2, 110016, Note_off_c, 0, 72, 64
2, 110016, Note_on_c, 0, 71, 92
2, 110112, Note_off_c, 0, 71, 64
2, 110112, Note_on_c, 0, 74, 92
2, 110208, Note_off_c, 0, 74, 64
2, 110208, Note_on_c, 0, 72, 92
2, 110304, Note_off_c, 0, 76, 64
2, 110304, Note_on_c, 0, 76, 92
2, 110400, Note_off_c, 0, 72, 64
2, 110400, Note_on_c, 0, 71, 92
2, 110496, Note_off_c, 0, 76, 64
2, 110496, Note_on_c, 0, 74, 92
2, 110592, Note_off_c, 0, 74, 64
2, 110592, Note_on_c, 0, 72, 92
2, 110688, Note_off_c, 0, 71, 64
2, 110688, Note_on_c, 0, 64, 92
2, 110784, Note_off_c, 0, 64, 64
2, 110784, Note_on_c, 0, 66, 92
2, 110880, Note_off_c, 0, 66, 64
2, 110880, Note_on_c, 0, 68, 92
2, 110976, Note_off_c, 0, 68, 64
2, 110976, Note_on_c, 0, 69, 92
2, 111072, Note_off_c, 0, 72, 64
2, 111072, Note_on_c, 0, 71, 92
2, 111168, Note_off_c, 0, 71, 64
2, 111168, Note_on_c, 0, 72, 92
2, 111264, Note_off_c, 0, 72, 64
2, 111264, Note_on_c, 0, 74, 92
2, 111360, Note_off_c, 0, 74, 64
2, 111360, Note_on_c, 0, 76, 92
2, 111456, Note_off_c, 0, 76, 64
2, 111456, Note_on_c, 0, 77, 92
2, 111552, Note_off_c, 0, 77, 64
2, 111552, Note_off_c, 0, 69, 64
2, 111552, Note_on_c, 0, 64, 92
2, 111552, Note_on_c, 0, 76, 92
2, 111648, Note_off_c, 0, 76, 64
2, 111648, Note_on_c, 0, 74, 92
2, 111744, Note_off_c, 0, 74, 64
2, 111744, Note_off_c, 0, 64, 64
2, 111744, Note_on_c, 0, 69, 92
2, 111744, Note_on_c, 0, 72, 92
2, 111840, Note_off_c, 0, 72, 64
2, 111840, Note_on_c, 0, 81, 92
2, 111936, Note_off_c, 0, 81, 64
2, 111936, Note_on_c, 0, 76, 92
2, 112032, Note_off_c, 0, 76, 64
2, 112032, Note_on_c, 0, 79, 92
2, 112128, Note_off_c, 0, 79, 64
2, 112128, Note_on_c, 0, 77, 92
2, 112224, Note_off_c, 0, 77, 64
2, 112224, Note_on_c, 0, 79, 92
2, 112320, Note_off_c, 0, 79, 64
2, 112320, Note_on_c, 0, 77, 92
2, 112416, Note_off_c, 0, 77, 64
2, 112416, Note_on_c, 0, 76, 92
2, 112512, Note_off_c, 0, 76, 64
2, 112512, Note_off_c, 0, 69, 64
2, 112512, Note_on_c, 0, 71, 92
2, 112512, Note_on_c, 0, 74, 92
2, 112608, Note_off_c, 0, 74, 64
2, 112608, Note_on_c, 0, 83, 92
2, 112704, Note_off_c, 0, 83, 64
2, 112704, Note_on_c, 0, 78, 92
2, 112800, Note_off_c, 0, 78, 64
2, 112800, Note_on_c, 0, 81, 92
2, 112896, Note_off_c, 0, 81, 64
2, 112896, Note_on_c, 0, 80, 92
2, 112992, Note_off_c, 0, 80, 64
2, 112992, Note_on_c, 0, 76, 92
2, 113088, Note_off_c, 0, 76, 64
2, 113088, Note_on_c, 0, 83, 92
2, 113184, Note_off_c, 0, 83, 64
2, 113184, Note_on_c, 0, 80, 92
2, 113280, Note_off_c, 0, 80, 64
2, 113280, Note_off_c, 0, 71, 64
2, 113280, Note_on_c, 0, 71, 92
2, 113280, Note_on_c, 0, 76, 92
2, 113376, Note_off_c, 0, 76, 64
2, 113376, Note_on_c, 0, 80, 92
2, 113472, Note_off_c, 0, 80, 64
2, 113472, Note_off_c, 0, 71, 64
2, 113472, Note_on_c, 0, 71, 92
2, 113568, Note_on_c, 0, 74, 92
2, 113664, Note_off_c, 0, 74, 64
2, 113664, Note_on_c, 0, 72, 92
2, 113856, Note_off_c, 0, 71, 64
2, 113856, Note_on_c, 0, 69, 92
2, 114048, Note_off_c, 0, 72, 64
2, 114048, Note_on_c, 0, 71, 92
2, 114240, Note_off_c, 0, 69, 64
2, 114240, Note_on_c, 0, 68, 92
2, 114432, Note_off_c, 0, 68, 64
2, 114432, Note_off_c, 0, 71, 64
2, 114432, Note_on_c, 0, 64, 92
2, 114432, Note_on_c, 0, 69, 92
2, 114528, Note_off_c, 0, 69, 64
2, 114528, Note_on_c, 0, 71, 92
2, 114624, Note_off_c, 0, 71, 64
2, 114624, Note_on_c, 0, 72, 92
2, 114720, Note_off_c, 0, 72, 64
2, 114720, Note_on_c, 0, 69, 92
2, 114816, Note_off_c, 0, 69, 64
2, 114816, Note_off_c, 0, 64, 64
2, 114816, Note_on_c, 0, 74, 92
2, 114816, Note_on_c, 0, 62, 92
2, 114912, Note_on_c, 0, 67, 92
2, 115008, Note_off_c, 0, 74, 64
2, 115008, Note_on_c, 0, 72, 92
2, 115104, Note_off_c, 0, 67, 64
2, 115104, Note_on_c, 0, 66, 92
2, 115200, Note_off_c, 0, 66, 64
2, 115200, Note_off_c, 0, 72, 64
2, 115200, Note_off_c, 0, 62, 64
2, 115200, Note_on_c, 0, 67, 92
2, 115200, Note_on_c, 0, 71, 92
2, 115584, Note_off_c, 0, 71, 64
2, 115584, Note_off_c, 0, 67, 64
2, 115584, Note_on_c, 0, 67, 92
2, 115584, Note_on_c, 0, 76, 92
2, 115680, Note_off_c, 0, 76, 64
2, 115680, Note_on_c, 0, 77, 92
2, 115776, Note_off_c, 0, 77, 64
2, 115776, Note_off_c, 0, 67, 64
2, 115776, Note_on_c, 0, 67, 92
2, 115776, Note_on_c, 0, 74, 92
2, 115872, Note_off_c, 0, 74, 64
2, 115872, Note_on_c, 0, 76, 92
2, 115968, Note_off_c, 0, 76, 64
2, 115968, Note_off_c, 0, 67, 64
2, 115968, Note_on_c, 0, 66, 92
2, 115968, Note_on_c, 0, 72, 92
2, 116064, Note_off_c, 0, 72, 64
2, 116064, Note_on_c, 0, 69, 92
2, 116160, Note_off_c, 0, 69, 64
2, 116160, Note_off_c, 0, 66, 64
2, 116160, Note_on_c, 0, 67, 92
2, 116160, Note_on_c, 0, 71, 92
2, 116256, Note_off_c, 0, 71, 64
2, 116256, Note_on_c, 0, 72, 92
2, 116352, Note_off_c, 0, 72, 64
2, 116352, Note_on_c, 0, 69, 92
2, 116400, Note_off_c, 0, 69, 64
2, 116400, Note_on_c, 0, 71, 92
2, 116448, Note_off_c, 0, 71, 64
2, 116448, Note_on_c, 0, 69, 92
2, 116544, Note_off_c, 0, 67, 64
2, 116544, Note_on_c, 0, 66, 92
2, 116640, Note_off_c, 0, 69, 64
2, 116640, Note_on_c, 0, 67, 92
2, 116736, Note_off_c, 0, 67, 64
2, 116736, Note_off_c, 0, 66, 64
2, 116736, Note_on_c, 0, 67, 92
2, 117120, Note_off_c, 0, 67, 64
2, 119520, Note_on_c, 0, 72, 92
2, 119616, Note_off_c, 0, 72, 64
2, 119616, Note_on_c, 0, 60, 92
2, 119712, Note_off_c, 0, 60, 64
2, 119712, Note_on_c, 0, 72, 92
2, 119808, Note_off_c, 0, 72, 64
2, 119904, Note_on_c, 0, 71, 92
2, 120000, Note_off_c, 0, 71, 64
2, 120000, Note_on_c, 0, 69, 92
2, 120096, Note_off_c, 0, 69, 64
2, 120096, Note_on_c, 0, 67, 92
2, 120192, Note_off_c, 0, 67, 64
2, 120288, Note_on_c, 0, 81, 92
2, 120384, Note_off_c, 0, 81, 64
2, 120384, Note_on_c, 0, 69, 92
2, 120480, Note_off_c, 0, 69, 64
2, 120480, Note_on_c, 0, 81, 92
2, 120576, Note_off_c, 0, 81, 64
2, 120672, Note_on_c, 0, 79, 92
2, 120768, Note_off_c, 0, 79, 64
2, 120768, Note_on_c, 0, 77, 92
2, 120864, Note_off_c, 0, 77, 64
2, 120864, Note_on_c, 0, 76, 92
2, 120960, Note_off_c, 0, 76, 64
2, 120960, Note_on_c, 0, 79, 92
2, 121056, Note_off_c, 0, 79, 64
2, 121056, Note_on_c, 0, 69, 92
2, 121152, Note_off_c, 0, 69, 64
2, 121152, Note_on_c, 0, 71, 92
2, 121248, Note_off_c, 0, 71, 64
2, 121248, Note_on_c, 0, 77, 92
2, 121344, Note_off_c, 0, 77, 64
2, 121344, Note_on_c, 0, 76, 92
2, 121440, Note_off_c, 0, 76, 64
2, 121440, Note_on_c, 0, 67, 92
2, 121536, Note_off_c, 0, 67, 64
2, 121536, Note_on_c, 0, 69, 92
2, 121632, Note_off_c, 0, 69, 64
2, 121632, Note_on_c, 0, 76, 92
2, 121728, Note_off_c, 0, 76, 64
2, 121728, Note_on_c, 0, 74, 92
2, 121824, Note_off_c, 0, 74, 64
2, 121824, Note_on_c, 0, 66, 92
2, 121920, Note_off_c, 0, 66, 64
2, 121920, Note_on_c, 0, 67, 92
2, 122016, Note_off_c, 0, 67, 64
2, 122016, Note_on_c, 0, 74, 92
2, 122112, Note_off_c, 0, 74, 64
2, 122112, Note_on_c, 0, 72, 92
2, 122208, Note_off_c, 0, 72, 64
2, 122208, Note_on_c, 0, 64, 92
2, 122304, Note_off_c, 0, 64, 64
2, 122304, Note_on_c, 0, 66, 92
2, 122400, Note_off_c, 0, 66, 64
2, 122400, Note_on_c, 0, 72, 92
2, 122496, Note_off_c, 0, 72, 64
2, 122496, Note_on_c, 0, 71, 92
2, 122592, Note_off_c, 0, 71, 64
2, 122592, Note_on_c, 0, 63, 92
2, 122688, Note_off_c, 0, 63, 64
2, 122688, Note_on_c, 0, 64, 92
2, 122784, Note_off_c, 0, 64, 64
2, 122784, Note_on_c, 0, 71, 92
2, 122880, Note_off_c, 0, 71, 64
2, 122880, Note_on_c, 0, 72, 92
2, 122976, Note_off_c, 0, 72, 64
2, 122976, Note_on_c, 0, 64, 92
2, 123072, Note_off_c, 0, 64, 64
2, 123072, Note_on_c, 0, 66, 92
2, 123168, Note_off_c, 0, 66, 64
2, 123168, Note_on_c, 0, 64, 92
2, 123264, Note_off_c, 0, 64, 64
2, 123264, Note_on_c, 0, 63, 92
2, 123360, Note_off_c, 0, 63, 64
2, 123360, Note_on_c, 0, 72, 92
2, 123456, Note_off_c, 0, 72, 64
2, 123456, Note_on_c, 0, 71, 92
2, 123552, Note_off_c, 0, 71, 64
2, 123552, Note_on_c, 0, 69, 92
2, 123648, Note_off_c, 0, 69, 64
2, 123648, Note_on_c, 0, 67, 92
2, 123744, Note_off_c, 0, 67, 64
2, 123744, Note_on_c, 0, 69, 92
2, 123840, Note_off_c, 0, 69, 64
2, 123840, Note_on_c, 0, 66, 92
2, 123936, Note_off_c, 0, 66, 64
2, 123936, Note_on_c, 0, 67, 92
2, 124032, Note_off_c, 0, 67, 64
2, 124032, Note_on_c, 0, 66, 92
2, 124080, Note_off_c, 0, 66, 64
2, 124080, Note_on_c, 0, 67, 92
2, 124128, Note_off_c, 0, 67, 64
2, 124128, Note_on_c, 0, 66, 92
2, 124320, Note_off_c, 0, 66, 64
2, 124320, Note_on_c, 0, 64, 92
2, 124416, Note_off_c, 0, 64, 64
2, 124416, Note_on_c, 0, 64, 92
2, 124512, Note_off_c, 0, 64, 64
2, 124512, Note_on_c, 0, 66, 92
2, 124608, Note_off_c, 0, 66, 64
2, 124608, Note_on_c, 0, 64, 92
2, 124704, Note_off_c, 0, 64, 64
2, 124704, Note_on_c, 0, 66, 92
2, 124800, Note_off_c, 0, 66, 64
2, 124800, Note_on_c, 0, 67, 92
2, 124896, Note_off_c, 0, 67, 64
2, 124896, Note_on_c, 0, 69, 92
2, 124992, Note_off_c, 0, 69, 64
2, 124992, Note_on_c, 0, 67, 92
2, 125088, Note_off_c, 0, 67, 64
2, 125088, Note_on_c, 0, 69, 92
2, 125184, Note_off_c, 0, 69, 64
2, 125184, Note_on_c, 0, 71, 92
2, 125280, Note_on_c, 0, 67, 92
2, 125376, Note_off_c, 0, 67, 64
2, 125376, Note_on_c, 0, 55, 92
2, 125472, Note_off_c, 0, 55, 64
2, 125472, Note_on_c, 0, 67, 92
2, 125568, Note_off_c, 0, 67, 64
2, 125568, Note_off_c, 0, 71, 64
2, 125568, Note_on_c, 0, 73, 92
2, 125568, Note_on_c, 0, 67, 92
2, 125664, Note_off_c, 0, 67, 64
2, 125664, Note_on_c, 0, 69, 92
2, 125760, Note_off_c, 0, 69, 64
2, 125760, Note_on_c, 0, 67, 92
2, 125856, Note_off_c, 0, 67, 64
2, 125856, Note_on_c, 0, 69, 92
2, 125952, Note_off_c, 0, 69, 64
2, 125952, Note_off_c, 0, 73, 64
2, 125952, Note_on_c, 0, 74, 92
2, 125952, Note_on_c, 0, 65, 92
2, 126048, Note_off_c, 0, 65, 64
2, 126048, Note_on_c, 0, 65, 92
2, 126144, Note_off_c, 0, 65, 64
2, 126144, Note_on_c, 0, 53, 92
2, 126240, Note_off_c, 0, 53, 64
2, 126240, Note_on_c, 0, 65, 92
2, 126336, Note_off_c, 0, 65, 64
2, 126336, Note_off_c, 0, 74, 64
2, 126336, Note_on_c, 0, 71, 92
2, 126336, Note_on_c, 0, 65, 92
2, 126432, Note_off_c, 0, 65, 64
2, 126432, Note_on_c, 0, 67, 92
2, 126528, Note_off_c, 0, 67, 64
2, 126528, Note_on_c, 0, 65, 92
2, 126624, Note_off_c, 0, 65, 64
2, 126624, Note_on_c, 0, 67, 92
2, 126720, Note_off_c, 0, 67, 64
2, 126720, Note_off_c, 0, 71, 64
2, 126720, Note_on_c, 0, 72, 92
2, 126720, Note_on_c, 0, 64, 92
2, 126816, Note_off_c, 0, 64, 64
2, 126816, Note_on_c, 0, 55, 92
2, 126912, Note_off_c, 0, 55, 64
2, 126912, Note_on_c, 0, 60, 92
2, 127008, Note_off_c, 0, 60, 64
2, 127008, Note_on_c, 0, 62, 92
2, 127104, Note_off_c, 0, 62, 64
2, 127104, Note_off_c, 0, 72, 64
2, 127104, Note_on_c, 0, 64, 92
2, 127200, Note_off_c, 0, 64, 64
2, 127200, Note_on_c, 0, 55, 92
2, 127296, Note_off_c, 0, 55, 64
2, 127296, Note_on_c, 0, 60, 92
2, 127392, Note_off_c, 0, 60, 64
2, 127392, Note_on_c, 0, 62, 92
2, 127488, Note_off_c, 0, 62, 64
2, 127488, Note_on_c, 0, 64, 92
2, 127584, Note_off_c, 0, 64, 64
2, 127584, Note_on_c, 0, 65, 92
2, 127680, Note_off_c, 0, 65, 64
2, 127680, Note_on_c, 0, 62, 92
2, 127776, Note_off_c, 0, 62, 64
2, 127776, Note_on_c, 0, 64, 92
2, 127872, Note_off_c, 0, 64, 64
2, 127872, Note_on_c, 0, 60, 92
2, 127968, Note_off_c, 0, 60, 64
2, 127968, Note_on_c, 0, 62, 92
2, 128064, Note_off_c, 0, 62, 64
2, 128064, Note_on_c, 0, 64, 92
2, 128160, Note_off_c, 0, 64, 64
2, 128160, Note_on_c, 0, 65, 92
2, 128256, Note_off_c, 0, 65, 64
2, 128256, Note_on_c, 0, 67, 92
2, 128640, Note_off_c, 0, 67, 64
2, 128832, Note_on_c, 0, 67, 92
2, 129024, Note_off_c, 0, 67, 64
2, 129024, Note_on_c, 0, 65, 92
2, 129120, Note_off_c, 0, 65, 64
2, 129120, Note_on_c, 0, 67, 92
2, 129216, Note_off_c, 0, 67, 64
2, 129216, Note_on_c, 0, 64, 92
2, 129312, Note_off_c, 0, 64, 64
2, 129312, Note_on_c, 0, 65, 92
2, 129408, Note_off_c, 0, 65, 64
2, 129408, Note_on_c, 0, 67, 92
2, 129504, Note_off_c, 0, 67, 64
2, 129504, Note_on_c, 0, 69, 92
2, 129600, Note_off_c, 0, 69, 64
2, 129600, Note_on_c, 0, 67, 92
2, 129696, Note_off_c, 0, 67, 64
2, 129696, Note_on_c, 0, 65, 92
2, 129792, Note_off_c, 0, 65, 64
2, 129792, Note_on_c, 0, 64, 92
2, 129888, Note_off_c, 0, 64, 64
2, 129888, Note_on_c, 0, 65, 92
2, 129984, Note_off_c, 0, 65, 64
2, 129984, Note_on_c, 0, 64, 92
2, 130080, Note_off_c, 0, 64, 64
2, 130080, Note_on_c, 0, 62, 92
2, 130176, Note_off_c, 0, 62, 64
2, 130176, Note_on_c, 0, 60, 92
2, 130272, Note_off_c, 0, 60, 64
2, 130272, Note_on_c, 0, 62, 92
2, 130368, Note_off_c, 0, 62, 64
2, 130368, Note_on_c, 0, 60, 92
2, 130464, Note_off_c, 0, 60, 64
2, 130464, Note_on_c, 0, 59, 92
2, 130560, Note_off_c, 0, 59, 64
2, 130656, Note_on_c, 0, 72, 92
2, 130752, Note_off_c, 0, 72, 64
2, 130752, Note_on_c, 0, 60, 92
2, 130848, Note_off_c, 0, 60, 64
2, 130848, Note_on_c, 0, 72, 92
2, 130944, Note_off_c, 0, 72, 64
2, 130944, Note_on_c, 0, 72, 92
2, 131040, Note_off_c, 0, 72, 64
2, 131040, Note_on_c, 0, 74, 92
2, 131136, Note_off_c, 0, 74, 64
2, 131136, Note_on_c, 0, 72, 92
2, 131232, Note_off_c, 0, 72, 64
2, 131232, Note_on_c, 0, 74, 92
2, 131328, Note_off_c, 0, 74, 64
2, 131328, Note_on_c, 0, 71, 92
2, 131424, Note_off_c, 0, 71, 64
2, 131424, Note_on_c, 0, 71, 92
2, 131520, Note_off_c, 0, 71, 64
2, 131520, Note_on_c, 0, 59, 92
2, 131616, Note_off_c, 0, 59, 64
2, 131616, Note_on_c, 0, 71, 92
2, 131712, Note_off_c, 0, 71, 64
2, 131712, Note_on_c, 0, 71, 92
2, 131808, Note_off_c, 0, 71, 64
2, 131808, Note_on_c, 0, 72, 92
2, 131904, Note_off_c, 0, 72, 64
2, 131904, Note_on_c, 0, 71, 92
2, 132000, Note_off_c, 0, 71, 64
2, 132000, Note_on_c, 0, 72, 92
2, 132096, Note_off_c, 0, 72, 64
2, 132096, Note_on_c, 0, 69, 92
2, 132192, Note_off_c, 0, 69, 64
2, 132192, Note_on_c, 0, 62, 92
2, 132288, Note_off_c, 0, 62, 64
2, 132288, Note_on_c, 0, 69, 92
2, 132384, Note_off_c, 0, 69, 64
2, 132384, Note_on_c, 0, 74, 92
2, 132480, Note_off_c, 0, 74, 64
2, 132480, Note_on_c, 0, 69, 92
2, 132576, Note_off_c, 0, 69, 64
2, 132576, Note_on_c, 0, 71, 92
2, 132672, Note_off_c, 0, 71, 64
2, 132672, Note_on_c, 0, 69, 92
2, 132768, Note_off_c, 0, 69, 64
2, 132768, Note_on_c, 0, 71, 92
2, 132864, Note_off_c, 0, 71, 64
2, 132864, Note_on_c, 0, 67, 92
2, 132960, Note_off_c, 0, 67, 64
2, 132960, Note_on_c, 0, 69, 92
2, 133056, Note_off_c, 0, 69, 64
2, 133056, Note_on_c, 0, 67, 92
2, 133152, Note_off_c, 0, 67, 64
2, 133152, Note_on_c, 0, 69, 92
2, 133248, Note_off_c, 0, 69, 64
2, 133248, Note_on_c, 0, 71, 92
2, 133344, Note_off_c, 0, 71, 64
2, 133344, Note_on_c, 0, 69, 92
2, 133440, Note_off_c, 0, 69, 64
2, 133440, Note_on_c, 0, 71, 92
2, 133536, Note_off_c, 0, 71, 64
2, 133536, Note_on_c, 0, 73, 92
2, 133632, Note_off_c, 0, 73, 64
2, 133632, Note_on_c, 0, 74, 92
2, 133824, Note_off_c, 0, 74, 64
2, 133824, Note_on_c, 0, 74, 92
2, 133824, Note_on_c, 0, 78, 92
2, 134016, Note_off_c, 0, 78, 64
2, 134016, Note_off_c, 0, 74, 64
2, 134016, Note_on_c, 0, 74, 92
2, 134016, Note_on_c, 0, 79, 92
2, 134208, Note_off_c, 0, 79, 64
2, 134208, Note_off_c, 0, 74, 64
2, 134208, Note_on_c, 0, 72, 92
2, 134208, Note_on_c, 0, 81, 92
2, 134400, Note_off_c, 0, 72, 64
2, 134400, Note_on_c, 0, 71, 92
2, 134496, Note_off_c, 0, 81, 64
2, 134496, Note_on_c, 0, 74, 92
2, 134592, Note_off_c, 0, 74, 64
2, 134592, Note_on_c, 0, 76, 92
2, 134688, Note_off_c, 0, 76, 64
2, 134688, Note_on_c, 0, 78, 92
2, 134784, Note_off_c, 0, 78, 64
2, 134784, Note_on_c, 0, 79, 92
2, 135168, Note_off_c, 0, 79, 64
2, 135168, Note_on_c, 0, 76, 92
2, 135264, Note_off_c, 0, 71, 64
2, 135264, Note_on_c, 0, 71, 92
2, 135360, Note_off_c, 0, 71, 64
2, 135360, Note_on_c, 0, 69, 92
2, 135456, Note_off_c, 0, 69, 64
2, 135456, Note_on_c, 0, 67, 92
2, 135552, Note_off_c, 0, 67, 64
2, 135552, Note_on_c, 0, 66, 92
2, 135648, Note_off_c, 0, 76, 64
2, 135648, Note_on_c, 0, 74, 92
2, 135744, Note_off_c, 0, 66, 64
2, 135744, Note_on_c, 0, 67, 92
2, 135840, Note_off_c, 0, 74, 64
2, 135840, Note_on_c, 0, 74, 92
2, 135936, Note_off_c, 0, 74, 64
2, 135936, Note_on_c, 0, 72, 92
2, 136032, Note_off_c, 0, 67, 64
2, 136032, Note_on_c, 0, 67, 92
2, 136128, Note_off_c, 0, 67, 64
2, 136128, Note_on_c, 0, 69, 92
2, 136224, Note_off_c, 0, 69, 64
2, 136224, Note_on_c, 0, 67, 92
2, 136320, Note_off_c, 0, 67, 64
2, 136320, Note_on_c, 0, 66, 92
2, 136416, Note_off_c, 0, 72, 64
2, 136416, Note_on_c, 0, 72, 92
2, 136512, Note_off_c, 0, 66, 64
2, 136512, Note_on_c, 0, 64, 92
2, 136608, Note_off_c, 0, 72, 64
2, 136608, Note_on_c, 0, 72, 92
2, 136704, Note_off_c, 0, 64, 64
2, 136704, Note_on_c, 0, 62, 92
2, 136800, Note_off_c, 0, 72, 64
2, 136800, Note_on_c, 0, 72, 92
2, 136896, Note_off_c, 0, 72, 64
2, 136896, Note_on_c, 0, 71, 92
2, 136992, Note_off_c, 0, 71, 64
2, 136992, Note_on_c, 0, 69, 92
2, 137088, Note_off_c, 0, 69, 64
2, 137088, Note_on_c, 0, 71, 92
2, 137280, Note_off_c, 0, 62, 64
2, 137280, Note_on_c, 0, 67, 92
2, 137472, Note_off_c, 0, 71, 64
2, 137472, Note_on_c, 0, 69, 92
2, 137664, Note_off_c, 0, 67, 64
2, 137664, Note_on_c, 0, 66, 92
2, 137760, Note_off_c, 0, 66, 64
2, 137760, Note_on_c, 0, 64, 92
2, 137856, Note_off_c, 0, 64, 64
2, 137856, Note_off_c, 0, 69, 64
2, 137856, Note_on_c, 0, 66, 92
2, 137856, Note_on_c, 0, 71, 92
2, 137952, Note_off_c, 0, 66, 64
2, 137952, Note_on_c, 0, 67, 92
2, 138048, Note_off_c, 0, 67, 64
2, 138048, Note_on_c, 0, 66, 92
2, 138144, Note_off_c, 0, 66, 64
2, 138144, Note_on_c, 0, 67, 92
2, 138240, Note_off_c, 0, 67, 64
2, 138240, Note_on_c, 0, 64, 92
2, 138432, Note_off_c, 0, 71, 64
2, 138432, Note_on_c, 0, 69, 92
2, 138528, Note_off_c, 0, 69, 64
2, 138528, Note_on_c, 0, 67, 92
2, 138624, Note_off_c, 0, 67, 64
2, 138624, Note_on_c, 0, 69, 92
2, 138720, Note_off_c, 0, 64, 64
2, 138720, Note_on_c, 0, 66, 92
2, 138816, Note_off_c, 0, 66, 64
2, 138816, Note_on_c, 0, 64, 92
2, 138912, Note_off_c, 0, 64, 64
2, 138912, Note_on_c, 0, 66, 92
2, 139008, Note_off_c, 0, 66, 64
2, 139008, Note_on_c, 0, 62, 92
2, 139200, Note_off_c, 0, 69, 64
2, 139200, Note_on_c, 0, 67, 92
2, 139296, Note_off_c, 0, 67, 64
2, 139296, Note_on_c, 0, 66, 92
2, 139392, Note_off_c, 0, 66, 64
2, 139392, Note_on_c, 0, 67, 92
2, 139488, Note_off_c, 0, 67, 64
2, 139488, Note_on_c, 0, 69, 92
2, 139584, Note_off_c, 0, 69, 64
2, 139584, Note_on_c, 0, 71, 92
2, 139680, Note_off_c, 0, 71, 64
2, 139680, Note_on_c, 0, 69, 92
2, 139776, Note_off_c, 0, 69, 64
2, 139776, Note_on_c, 0, 67, 92
2, 139968, Note_off_c, 0, 67, 64
2, 139968, Note_off_c, 0, 62, 64
2, 139968, Note_on_c, 0, 69, 92
2, 139968, Note_on_c, 0, 66, 92
2, 140160, Note_off_c, 0, 66, 64
2, 140160, Note_off_c, 0, 69, 64
2, 140160, Note_on_c, 0, 67, 92
2, 140160, Note_on_c, 0, 71, 92
2, 140352, Note_off_c, 0, 71, 64
2, 140352, Note_on_c, 0, 79, 92
2, 140544, Note_off_c, 0, 67, 64
2, 140544, Note_on_c, 0, 69, 92
2, 140640, Note_off_c, 0, 79, 64
2, 140640, Note_on_c, 0, 79, 92
2, 140736, Note_off_c, 0, 79, 64
2, 140736, Note_on_c, 0, 77, 92
2, 140832, Note_off_c, 0, 77, 64
2, 140832, Note_on_c, 0, 76, 92
2, 140928, Note_off_c, 0, 76, 64
2, 140928, Note_on_c, 0, 77, 92
2, 141024, Note_off_c, 0, 77, 64
2, 141024, Note_on_c, 0, 76, 92
2, 141120, Note_off_c, 0, 76, 64
2, 141120, Note_on_c, 0, 77, 92
2, 141216, Note_off_c, 0, 77, 64
2, 141216, Note_on_c, 0, 79, 92
2, 141312, Note_off_c, 0, 79, 64
2, 141312, Note_off_c, 0, 69, 64
2, 141312, Note_on_c, 0, 76, 92
2, 141312, Note_on_c, 0, 67, 92
2, 142080, Note_off_c, 0, 67, 64
2, 142080, Note_on_c, 0, 65, 92
2, 142176, Note_off_c, 0, 76, 64
2, 142176, Note_on_c, 0, 76, 92
2, 142272, Note_off_c, 0, 76, 64
2, 142272, Note_on_c, 0, 74, 92
2, 142368, Note_off_c, 0, 74, 64
2, 142368, Note_on_c, 0, 73, 92
2, 142464, Note_off_c, 0, 73, 64
2, 142464, Note_on_c, 0, 74, 92
2, 142560, Note_off_c, 0, 74, 64
2, 142560, Note_on_c, 0, 76, 92
2, 142656, Note_off_c, 0, 76, 64
2, 142656, Note_on_c, 0, 77, 92
2, 142752, Note_off_c, 0, 77, 64
2, 142752, Note_on_c, 0, 69, 92
2, 142848, Note_off_c, 0, 69, 64
2, 142848, Note_on_c, 0, 71, 92
2, 142944, Note_off_c, 0, 71, 64
2, 142944, Note_on_c, 0, 67, 92
2, 143040, Note_off_c, 0, 67, 64
2, 143040, Note_on_c, 0, 69, 92
2, 143136, Note_off_c, 0, 69, 64
2, 143136, Note_on_c, 0, 71, 92
2, 143232, Note_off_c, 0, 71, 64
2, 143232, Note_off_c, 0, 65, 64
2, 143232, Note_on_c, 0, 64, 92
2, 143232, Note_on_c, 0, 72, 92
2, 143328, Note_off_c, 0, 72, 64
2, 143328, Note_on_c, 0, 74, 92
2, 143424, Note_off_c, 0, 74, 64
2, 143424, Note_off_c, 0, 64, 64
2, 143424, Note_on_c, 0, 60, 92
2, 143424, Note_on_c, 0, 76, 92
2, 143520, Note_off_c, 0, 76, 64
2, 143520, Note_on_c, 0, 77, 92
2, 143616, Note_off_c, 0, 77, 64
2, 143616, Note_on_c, 0, 74, 92
2, 143712, Note_off_c, 0, 74, 64
2, 143712, Note_on_c, 0, 79, 92
2, 143808, Note_off_c, 0, 79, 64
2, 143808, Note_on_c, 0, 67, 92
2, 143904, Note_off_c, 0, 67, 64
2, 143904, Note_on_c, 0, 79, 92
2, 144000, Note_off_c, 0, 79, 64
2, 144000, Note_off_c, 0, 60, 64
2, 144000, Note_on_c, 0, 59, 92
2, 144000, Note_on_c, 0, 79, 92
2, 144096, Note_off_c, 0, 79, 64
2, 144096, Note_on_c, 0, 81, 92
2, 144192, Note_off_c, 0, 81, 64
2, 144192, Note_on_c, 0, 79, 92
2, 144288, Note_off_c, 0, 79, 64
2, 144288, Note_on_c, 0, 81, 92
2, 144384, Note_off_c, 0, 81, 64
2, 144384, Note_off_c, 0, 59, 64
2, 144384, Note_on_c, 0, 60, 92
2, 144384, Note_on_c, 0, 77, 92
2, 144480, Note_off_c, 0, 77, 64
2, 144480, Note_on_c, 0, 77, 92
2, 144576, Note_off_c, 0, 77, 64
2, 144576, Note_on_c, 0, 65, 92
2, 144672, Note_off_c, 0, 65, 64
2, 144672, Note_on_c, 0, 77, 92
2, 144768, Note_off_c, 0, 77, 64
2, 144768, Note_on_c, 0, 77, 92
2, 144864, Note_off_c, 0, 77, 64
2, 144864, Note_on_c, 0, 79, 92
2, 144960, Note_off_c, 0, 79, 64
2, 144960, Note_off_c, 0, 60, 64
2, 144960, Note_on_c, 0, 62, 92
2, 144960, Note_on_c, 0, 77, 92
2, 145056, Note_off_c, 0, 77, 64
2, 145056, Note_on_c, 0, 79, 92
2, 145152, Note_off_c, 0, 79, 64
2, 145152, Note_off_c, 0, 62, 64
2, 145152, Note_on_c, 0, 64, 92
2, 145152, Note_on_c, 0, 76, 92
2, 145248, Note_off_c, 0, 76, 64
2, 145248, Note_on_c, 0, 67, 92
2, 145344, Note_off_c, 0, 67, 64
2, 145344, Note_on_c, 0, 72, 92
2, 145440, Note_off_c, 0, 72, 64
2, 145440, Note_off_c, 0, 64, 64
2, 145440, Note_on_c, 0, 65, 92
2, 145440, Note_on_c, 0, 74, 92
2, 145536, Note_off_c, 0, 74, 64
2, 145536, Note_off_c, 0, 65, 64
2, 145536, Note_on_c, 0, 67, 92
2, 145536, Note_on_c, 0, 76, 92
2, 145632, Note_off_c, 0, 76, 64
2, 145632, Note_off_c, 0, 67, 64
2, 145632, Note_on_c, 0, 67, 92
2, 145728, Note_off_c, 0, 67, 64
2, 145728, Note_on_c, 0, 64, 92
2, 145728, Note_on_c, 0, 72, 92
2, 145824, Note_off_c, 0, 72, 64
2, 145824, Note_off_c, 0, 64, 64
2, 145824, Note_on_c, 0, 65, 92
2, 145824, Note_on_c, 0, 74, 92
2, 145920, Note_off_c, 0, 74, 64
2, 145920, Note_off_c, 0, 65, 64
2, 145920, Note_on_c, 0, 67, 92
2, 145920, Note_on_c, 0, 76, 92
2, 146016, Note_off_c, 0, 76, 64
2, 146016, Note_off_c, 0, 67, 64
2, 146016, Note_on_c, 0, 69, 92
2, 146016, Note_on_c, 0, 77, 92
2, 146112, Note_off_c, 0, 77, 64
2, 146112, Note_off_c, 0, 69, 64
2, 146112, Note_on_c, 0, 65, 92
2, 146112, Note_on_c, 0, 74, 92
2, 146208, Note_off_c, 0, 74, 64
2, 146208, Note_off_c, 0, 65, 64
2, 146208, Note_on_c, 0, 67, 92
2, 146208, Note_on_c, 0, 76, 92
2, 146304, Note_off_c, 0, 76, 64
2, 146304, Note_off_c, 0, 67, 64
2, 146304, Note_on_c, 0, 64, 92
2, 146304, Note_on_c, 0, 72, 92
2, 146400, Note_off_c, 0, 72, 64
2, 146400, Note_off_c, 0, 64, 64
2, 146400, Note_on_c, 0, 65, 92
2, 146400, Note_on_c, 0, 74, 92
2, 146496, Note_off_c, 0, 74, 64
2, 146496, Note_off_c, 0, 65, 64
2, 146496, Note_on_c, 0, 67, 92
2, 146496, Note_on_c, 0, 76, 92
2, 146592, Note_off_c, 0, 76, 64
2, 146592, Note_off_c, 0, 67, 64
2, 146592, Note_on_c, 0, 65, 92
2, 146592, Note_on_c, 0, 77, 92
2, 146688, Note_off_c, 0, 77, 64
2, 146688, Note_off_c, 0, 65, 64
2, 146688, Note_on_c, 0, 64, 92
2, 146688, Note_on_c, 0, 79, 92
2, 146784, Note_off_c, 0, 79, 64
2, 146784, Note_off_c, 0, 64, 64
2, 146784, Note_on_c, 0, 65, 92
2, 146784, Note_on_c, 0, 81, 92
2, 146880, Note_off_c, 0, 81, 64
2, 146880, Note_off_c, 0, 65, 64
2, 146880, Note_on_c, 0, 62, 92
2, 146880, Note_on_c, 0, 77, 92
2, 146976, Note_off_c, 0, 77, 64
2, 146976, Note_off_c, 0, 62, 64
2, 146976, Note_on_c, 0, 64, 92
2, 146976, Note_on_c, 0, 79, 92
2, 147072, Note_off_c, 0, 79, 64
2, 147072, Note_off_c, 0, 64, 64
2, 147072, Note_on_c, 0, 60, 92
2, 147072, Note_on_c, 0, 76, 92
2, 147168, Note_off_c, 0, 76, 64
2, 147168, Note_off_c, 0, 60, 64
2, 147168, Note_on_c, 0, 62, 92
2, 147168, Note_on_c, 0, 77, 92
2, 147264, Note_off_c, 0, 77, 64
2, 147264, Note_off_c, 0, 62, 64
2, 147264, Note_on_c, 0, 64, 92
2, 147264, Note_on_c, 0, 79, 92
2, 147360, Note_off_c, 0, 79, 64
2, 147360, Note_off_c, 0, 64, 64
2, 147360, Note_on_c, 0, 65, 92
2, 147360, Note_on_c, 0, 81, 92
2, 147456, Note_off_c, 0, 81, 64
2, 147456, Note_off_c, 0, 65, 64
2, 147456, Note_on_c, 0, 67, 92
2, 147456, Note_on_c, 0, 83, 92
2, 147552, Note_off_c, 0, 83, 64
2, 147552, Note_on_c, 0, 74, 92
2, 147648, Note_off_c, 0, 74, 64
2, 147648, Note_off_c, 0, 67, 64
2, 147648, Note_on_c, 0, 59, 92
2, 147648, Note_on_c, 0, 76, 92
2, 147744, Note_off_c, 0, 76, 64
2, 147744, Note_on_c, 0, 77, 92
2, 147840, Note_off_c, 0, 77, 64
2, 147840, Note_off_c, 0, 59, 64
2, 147840, Note_on_c, 0, 60, 92
2, 147840, Note_on_c, 0, 76, 92
2, 147936, Note_off_c, 0, 76, 64
2, 147936, Note_on_c, 0, 79, 92
2, 148032, Note_off_c, 0, 79, 64
2, 148032, Note_off_c, 0, 60, 64
2, 148032, Note_on_c, 0, 64, 92
2, 148032, Note_on_c, 0, 81, 92
2, 148128, Note_off_c, 0, 81, 64
2, 148128, Note_on_c, 0, 82, 92
2, 148224, Note_off_c, 0, 82, 64
2, 148224, Note_off_c, 0, 64, 64
2, 148224, Note_on_c, 0, 65, 92
2, 148224, Note_on_c, 0, 81, 92
2, 148320, Note_off_c, 0, 81, 64
2, 148320, Note_on_c, 0, 72, 92
2, 148416, Note_off_c, 0, 72, 64
2, 148416, Note_off_c, 0, 65, 64
2, 148416, Note_on_c, 0, 62, 92
2, 148416, Note_on_c, 0, 74, 92
2, 148512, Note_off_c, 0, 74, 64
2, 148512, Note_on_c, 0, 69, 92
2, 148608, Note_off_c, 0, 69, 64
2, 148608, Note_off_c, 0, 62, 64
2, 148608, Note_on_c, 0, 67, 92
2, 148608, Note_on_c, 0, 71, 92
2, 148704, Note_off_c, 0, 71, 64
2, 148704, Note_on_c, 0, 74, 92
2, 148800, Note_off_c, 0, 74, 64
2, 148800, Note_off_c, 0, 67, 64
2, 148800, Note_on_c, 0, 59, 92
2, 148800, Note_on_c, 0, 79, 92
2, 148896, Note_off_c, 0, 79, 64
2, 148896, Note_on_c, 0, 74, 92
2, 148992, Note_off_c, 0, 74, 64
2, 148992, Note_off_c, 0, 59, 64
2, 148992, Note_on_c, 0, 76, 92
2, 149088, Note_off_c, 0, 76, 64
2, 149088, Note_on_c, 0, 77, 92
2, 149184, Note_off_c, 0, 77, 64
2, 149184, Note_on_c, 0, 76, 92
2, 149280, Note_off_c, 0, 76, 64
2, 149280, Note_on_c, 0, 74, 92
2, 149376, Note_off_c, 0, 74, 64
2, 149376, Note_on_c, 0, 72, 92
2, 149472, Note_off_c, 0, 72, 64
2, 149472, Note_on_c, 0, 83, 92
2, 149568, Note_off_c, 0, 83, 64
2, 149568, Note_on_c, 0, 81, 92
2, 149664, Note_off_c, 0, 81, 64
2, 149664, Note_on_c, 0, 79, 92
2, 149760, Note_off_c, 0, 79, 64
2, 149760, Note_on_c, 0, 78, 92
2, 149856, Note_on_c, 0, 74, 92
2, 149952, Note_off_c, 0, 74, 64
2, 149952, Note_on_c, 0, 62, 92
2, 150048, Note_off_c, 0, 62, 64
2, 150048, Note_on_c, 0, 74, 92
2, 150144, Note_off_c, 0, 74, 64
2, 150144, Note_off_c, 0, 78, 64
2, 150144, Note_on_c, 0, 79, 92
2, 150144, Note_on_c, 0, 74, 92
2, 150240, Note_off_c, 0, 74, 64
2, 150240, Note_on_c, 0, 76, 92
2, 150336, Note_off_c, 0, 76, 64
2, 150336, Note_on_c, 0, 74, 92
2, 150432, Note_off_c, 0, 74, 64
2, 150432, Note_on_c, 0, 76, 92
2, 150528, Note_off_c, 0, 76, 64
2, 150528, Note_off_c, 0, 79, 64
2, 150528, Note_on_c, 0, 81, 92
2, 150528, Note_on_c, 0, 72, 92
2, 150624, Note_off_c, 0, 72, 64
2, 150624, Note_on_c, 0, 71, 92
2, 150720, Note_off_c, 0, 71, 64
2, 150720, Note_on_c, 0, 69, 92
2, 150816, Note_off_c, 0, 69, 64
2, 150816, Note_on_c, 0, 71, 92
2, 150912, Note_off_c, 0, 71, 64
2, 150912, Note_off_c, 0, 81, 64
2, 150912, Note_on_c, 0, 72, 92
2, 151008, Note_off_c, 0, 72, 64
2, 151008, Note_on_c, 0, 74, 92
2, 151104, Note_off_c, 0, 74, 64
2, 151104, Note_on_c, 0, 72, 92
2, 151200, Note_off_c, 0, 72, 64
2, 151200, Note_on_c, 0, 74, 92
2, 151296, Note_off_c, 0, 74, 64
2, 151296, Note_on_c, 0, 67, 92
2, 151296, Note_on_c, 0, 71, 92
2, 151392, Note_off_c, 0, 71, 64
2, 151392, Note_on_c, 0, 74, 92
2, 151488, Note_off_c, 0, 74, 64
2, 151488, Note_on_c, 0, 71, 92
2, 151584, Note_off_c, 0, 71, 64
2, 151584, Note_off_c, 0, 67, 64
2, 151584, Note_on_c, 0, 67, 92
2, 151680, Note_off_c, 0, 67, 64
2, 151680, Note_on_c, 0, 76, 92
2, 151776, Note_off_c, 0, 76, 64
2, 151776, Note_on_c, 0, 71, 92
2, 151872, Note_off_c, 0, 71, 64
2, 151872, Note_on_c, 0, 59, 92
2, 151872, Note_on_c, 0, 67, 92
2, 151968, Note_off_c, 0, 67, 64
2, 151968, Note_on_c, 0, 64, 92
2, 152064, Note_off_c, 0, 64, 64
2, 152064, Note_off_c, 0, 59, 64
2, 152064, Note_on_c, 0, 64, 92
2, 152064, Note_on_c, 0, 72, 92
2, 152160, Note_off_c, 0, 72, 64
2, 152160, Note_on_c, 0, 76, 92
2, 152256, Note_off_c, 0, 76, 64
2, 152256, Note_on_c, 0, 72, 92
2, 152352, Note_off_c, 0, 72, 64
2, 152352, Note_on_c, 0, 69, 92
2, 152448, Note_off_c, 0, 69, 64
2, 152448, Note_off_c, 0, 64, 64
2, 152448, Note_on_c, 0, 78, 92
2, 152544, Note_off_c, 0, 78, 64
2, 152544, Note_on_c, 0, 72, 92
2, 152640, Note_off_c, 0, 72, 64
2, 152640, Note_on_c, 0, 60, 92
2, 152640, Note_on_c, 0, 69, 92
2, 152736, Note_off_c, 0, 69, 64
2, 152736, Note_on_c, 0, 66, 92
2, 152832, Note_off_c, 0, 66, 64
2, 152832, Note_off_c, 0, 60, 64
2, 152832, Note_on_c, 0, 66, 92
2, 152832, Note_on_c, 0, 74, 92
2, 152928, Note_off_c, 0, 74, 64
2, 152928, Note_on_c, 0, 78, 92
2, 153024, Note_off_c, 0, 78, 64
2, 153024, Note_on_c, 0, 74, 92
2, 153120, Note_off_c, 0, 74, 64
2, 153120, Note_on_c, 0, 71, 92
2, 153216, Note_off_c, 0, 71, 64
2, 153216, Note_off_c, 0, 66, 64
2, 153216, Note_on_c, 0, 79, 92
2, 153312, Note_off_c, 0, 79, 64
2, 153312, Note_on_c, 0, 74, 92
2, 153408, Note_off_c, 0, 74, 64
2, 153408, Note_on_c, 0, 62, 92
2, 153408, Note_on_c, 0, 71, 92
2, 153504, Note_off_c, 0, 71, 64
2, 153504, Note_on_c, 0, 67, 92
2, 153600, Note_off_c, 0, 67, 64
2, 153600, Note_off_c, 0, 62, 64
2, 153600, Note_on_c, 0, 67, 92
2, 153600, Note_on_c, 0, 76, 92
2, 153696, Note_off_c, 0, 76, 64
2, 153696, Note_on_c, 0, 79, 92
2, 153792, Note_off_c, 0, 79, 64
2, 153792, Note_on_c, 0, 76, 92
2, 153888, Note_off_c, 0, 76, 64
2, 153888, Note_on_c, 0, 72, 92
2, 153984, Note_off_c, 0, 72, 64
2, 153984, Note_off_c, 0, 67, 64
2, 153984, Note_on_c, 0, 81, 92
2, 154080, Note_off_c, 0, 81, 64
2, 154080, Note_on_c, 0, 76, 92
2, 154176, Note_off_c, 0, 76, 64
2, 154176, Note_on_c, 0, 64, 92
2, 154176, Note_on_c, 0, 72, 92
2, 154272, Note_off_c, 0, 72, 64
2, 154272, Note_on_c, 0, 69, 92
2, 154368, Note_off_c, 0, 69, 64
2, 154368, Note_off_c, 0, 64, 64
2, 154368, Note_on_c, 0, 69, 92
2, 154368, Note_on_c, 0, 78, 92
2, 154464, Note_off_c, 0, 78, 64
2, 154464, Note_on_c, 0, 81, 92
2, 154560, Note_off_c, 0, 81, 64
2, 154560, Note_on_c, 0, 78, 92
2, 154656, Note_off_c, 0, 78, 64
2, 154656, Note_on_c, 0, 74, 92
2, 154752, Note_off_c, 0, 74, 64
2, 154752, Note_off_c, 0, 69, 64
2, 154752, Note_on_c, 0, 62, 92
2, 154752, Note_on_c, 0, 79, 92
2, 154848, Note_off_c, 0, 79, 64
2, 154848, Note_on_c, 0, 74, 92
2, 154944, Note_off_c, 0, 74, 64
2, 154944, Note_on_c, 0, 71, 92
2, 155040, Note_off_c, 0, 71, 64
2, 155040, Note_on_c, 0, 74, 92
2, 155136, Note_off_c, 0, 74, 64
2, 155136, Note_off_c, 0, 62, 64
2, 155136, Note_on_c, 0, 64, 92
2, 155136, Note_on_c, 0, 72, 92
2, 155232, Note_off_c, 0, 72, 64
2, 155232, Note_on_c, 0, 74, 92
2, 155328, Note_off_c, 0, 74, 64
2, 155328, Note_off_c, 0, 64, 64
2, 155328, Note_on_c, 0, 67, 92
2, 155328, Note_on_c, 0, 71, 92
2, 155424, Note_off_c, 0, 71, 64
2, 155424, Note_on_c, 0, 72, 92
2, 155520, Note_off_c, 0, 72, 64
2, 155520, Note_on_c, 0, 69, 92
2, 155616, Note_off_c, 0, 69, 64
2, 155616, Note_on_c, 0, 71, 92
2, 155712, Note_off_c, 0, 71, 64
2, 155712, Note_off_c, 0, 67, 64
2, 155712, Note_on_c, 0, 65, 92
2, 155712, Note_on_c, 0, 72, 92
2, 155808, Note_off_c, 0, 72, 64
2, 155808, Note_on_c, 0, 74, 92
2, 155904, Note_off_c, 0, 74, 64
2, 155904, Note_on_c, 0, 71, 92
2, 156000, Note_off_c, 0, 71, 64
2, 156000, Note_on_c, 0, 67, 92
2, 156096, Note_off_c, 0, 67, 64
2, 156096, Note_on_c, 0, 79, 92
2, 156192, Note_off_c, 0, 79, 64
2, 156192, Note_on_c, 0, 71, 92
2, 156288, Note_off_c, 0, 71, 64
2, 156288, Note_off_c, 0, 65, 64
2, 156288, Note_on_c, 0, 72, 92
2, 156384, Note_on_c, 0, 64, 92
2, 156480, Note_off_c, 0, 64, 64
2, 156480, Note_on_c, 0, 62, 92
2, 156576, Note_off_c, 0, 62, 64
2, 156576, Note_on_c, 0, 60, 92
2, 156672, Note_off_c, 0, 60, 64
2, 156672, Note_on_c, 0, 62, 92
2, 156768, Note_off_c, 0, 72, 64
2, 156768, Note_on_c, 0, 71, 92
2, 156864, Note_off_c, 0, 71, 64
2, 156864, Note_on_c, 0, 72, 92
2, 156960, Note_off_c, 0, 72, 64
2, 156960, Note_on_c, 0, 74, 92
2, 157056, Note_off_c, 0, 74, 64
2, 157056, Note_on_c, 0, 70, 92
2, 157152, Note_off_c, 0, 70, 64
2, 157152, Note_on_c, 0, 77, 92
2, 157248, Note_off_c, 0, 77, 64
2, 157248, Note_off_c, 0, 62, 64
2, 157248, Note_on_c, 0, 67, 92
2, 157248, Note_on_c, 0, 76, 92
2, 157344, Note_off_c, 0, 76, 64
2, 157344, Note_on_c, 0, 74, 92
2, 157440, Note_off_c, 0, 74, 64
2, 157440, Note_on_c, 0, 73, 92
2, 157536, Note_off_c, 0, 67, 64
2, 157536, Note_on_c, 0, 64, 92
2, 157632, Note_off_c, 0, 64, 64
2, 157632, Note_on_c, 0, 65, 92
2, 157728, Note_off_c, 0, 65, 64
2, 157728, Note_on_c, 0, 67, 92
2, 157824, Note_off_c, 0, 67, 64
2, 157824, Note_off_c, 0, 73, 64
2, 157824, Note_on_c, 0, 61, 92
2, 157920, Note_off_c, 0, 61, 64
2, 157920, Note_on_c, 0, 64, 92
2, 158016, Note_off_c, 0, 64, 64
2, 158016, Note_on_c, 0, 57, 92
2, 158016, Note_on_c, 0, 76, 92
2, 158112, Note_off_c, 0, 57, 64
2, 158112, Note_on_c, 0, 61, 92
2, 158208, Note_off_c, 0, 61, 64
2, 158208, Note_off_c, 0, 76, 64
2, 158208, Note_on_c, 0, 62, 92
2, 158208, Note_on_c, 0, 77, 92
2, 158304, Note_off_c, 0, 77, 64
2, 158304, Note_on_c, 0, 74, 92
2, 158400, Note_off_c, 0, 74, 64
2, 158400, Note_on_c, 0, 76, 92
2, 158496, Note_off_c, 0, 76, 64
2, 158496, Note_on_c, 0, 77, 92
2, 158592, Note_off_c, 0, 77, 64
2, 158592, Note_off_c, 0, 62, 64
2, 158592, Note_on_c, 0, 71, 92
2, 158688, Note_off_c, 0, 71, 64
2, 158688, Note_on_c, 0, 74, 92
2, 158784, Note_off_c, 0, 74, 64
2, 158784, Note_on_c, 0, 62, 92
2, 158784, Note_on_c, 0, 67, 92
2, 158880, Note_off_c, 0, 67, 64
2, 158880, Note_on_c, 0, 71, 92
2, 158976, Note_off_c, 0, 71, 64
2, 158976, Note_off_c, 0, 62, 64
2, 158976, Note_on_c, 0, 60, 92
2, 158976, Note_on_c, 0, 76, 92
2, 159072, Note_off_c, 0, 76, 64
2, 159072, Note_on_c, 0, 72, 92
2, 159168, Note_off_c, 0, 72, 64
2, 159168, Note_on_c, 0, 74, 92
2, 159264, Note_off_c, 0, 74, 64
2, 159264, Note_on_c, 0, 76, 92
2, 159360, Note_off_c, 0, 76, 64
2, 159360, Note_off_c, 0, 60, 64
2, 159360, Note_on_c, 0, 69, 92
2, 159456, Note_off_c, 0, 69, 64
2, 159456, Note_on_c, 0, 72, 92
2, 159552, Note_off_c, 0, 72, 64
2, 159552, Note_on_c, 0, 60, 92
2, 159552, Note_on_c, 0, 65, 92
2, 159648, Note_off_c, 0, 65, 64
2, 159648, Note_on_c, 0, 69, 92
2, 159744, Note_off_c, 0, 69, 64
2, 159744, Note_off_c, 0, 60, 64
2, 159744, Note_on_c, 0, 74, 92
2, 159840, Note_off_c, 0, 74, 64
2, 159840, Note_on_c, 0, 71, 92
2, 159936, Note_off_c, 0, 71, 64
2, 159936, Note_on_c, 0, 72, 92
2, 160032, Note_off_c, 0, 72, 64
2, 160032, Note_on_c, 0, 74, 92
2, 160128, Note_off_c, 0, 74, 64
2, 160128, Note_on_c, 0, 67, 92
2, 160224, Note_off_c, 0, 67, 64
2, 160224, Note_on_c, 0, 71, 92
2, 160320, Note_off_c, 0, 71, 64
2, 160320, Note_on_c, 0, 64, 92
2, 160416, Note_off_c, 0, 64, 64
2, 160416, Note_on_c, 0, 67, 92
2, 160512, Note_off_c, 0, 67, 64
2, 160512, Note_on_c, 0, 72, 92
2, 160608, Note_off_c, 0, 72, 64
2, 160608, Note_on_c, 0, 69, 92
2, 160704, Note_off_c, 0, 69, 64
2, 160704, Note_on_c, 0, 71, 92
2, 160800, Note_off_c, 0, 71, 64
2, 160800, Note_on_c, 0, 72, 92
2, 160896, Note_off_c, 0, 72, 64
2, 160896, Note_on_c, 0, 65, 92
2, 160992, Note_off_c, 0, 65, 64
2, 160992, Note_on_c, 0, 69, 92
2, 161088, Note_off_c, 0, 69, 64
2, 161088, Note_on_c, 0, 62, 92
2, 161184, Note_off_c, 0, 62, 64
2, 161184, Note_on_c, 0, 72, 92
2, 161280, Note_off_c, 0, 72, 64
2, 161280, Note_on_c, 0, 71, 92
2, 161376, Note_on_c, 0, 69, 92
2, 161472, Note_off_c, 0, 69, 64
2, 161472, Note_on_c, 0, 67, 92
2, 161568, Note_off_c, 0, 67, 64
2, 161568, Note_on_c, 0, 65, 92
2, 161664, Note_off_c, 0, 65, 64
2, 161664, Note_off_c, 0, 71, 64
2, 161664, Note_on_c, 0, 64, 92
2, 161760, Note_off_c, 0, 64, 64
2, 161760, Note_on_c, 0, 62, 92
2, 161856, Note_off_c, 0, 62, 64
2, 161856, Note_on_c, 0, 60, 92
2, 161952, Note_off_c, 0, 60, 64
2, 162144, Note_on_c, 0, 77, 92
2, 162240, Note_off_c, 0, 77, 64
2, 162240, Note_on_c, 0, 76, 92
2, 162336, Note_off_c, 0, 76, 64
2, 162336, Note_on_c, 0, 74, 92
2, 162432, Note_off_c, 0, 74, 64
2, 162432, Note_on_c, 0, 66, 92
2, 162432, Note_on_c, 0, 72, 92
2, 162528, Note_off_c, 0, 72, 64
2, 162528, Note_on_c, 0, 69, 92
2, 162624, Note_off_c, 0, 69, 64
2, 162624, Note_on_c, 0, 71, 92
2, 162720, Note_off_c, 0, 71, 64
2, 162720, Note_on_c, 0, 72, 92
2, 162816, Note_off_c, 0, 72, 64
2, 162816, Note_off_c, 0, 66, 64
2, 162816, Note_on_c, 0, 67, 92
2, 162816, Note_on_c, 0, 71, 92
2, 162912, Note_off_c, 0, 71, 64
2, 162912, Note_on_c, 0, 72, 92
2, 163008, Note_off_c, 0, 72, 64
2, 163008, Note_off_c, 0, 67, 64
2, 163008, Note_on_c, 0, 65, 92
2, 163008, Note_on_c, 0, 71, 92
2, 163104, Note_off_c, 0, 71, 64
2, 163104, Note_on_c, 0, 69, 92
2, 163200, Note_off_c, 0, 69, 64
2, 163200, Note_off_c, 0, 65, 64
2, 163200, Note_on_c, 0, 64, 92
2, 163200, Note_on_c, 0, 67, 92
2, 163296, Note_off_c, 0, 67, 64
2, 163296, Note_on_c, 0, 69, 92
2, 163392, Note_off_c, 0, 69, 64
2, 163392, Note_off_c, 0, 64, 64
2, 163392, Note_on_c, 0, 62, 92
2, 163392, Note_on_c, 0, 65, 92
2, 163488, Note_off_c, 0, 65, 64
2, 163488, Note_on_c, 0, 67, 92
2, 163584, Note_off_c, 0, 67, 64
2, 163584, Note_off_c, 0, 62, 64
2, 163584, Note_on_c, 0, 64, 92
2, 163584, Note_on_c, 0, 60, 92
2, 163968, Note_off_c, 0, 60, 64
2, 164064, Note_off_c, 0, 64, 64
2, 164064, Note_on_c, 0, 64, 92
2, 164160, Note_off_c, 0, 64, 64
2, 164160, Note_on_c, 0, 62, 92
2, 164448, Note_off_c, 0, 62, 64
2, 164448, Note_on_c, 0, 65, 92
2, 164544, Note_off_c, 0, 65, 64
2, 164544, Note_on_c, 0, 64, 92
2, 164640, Note_off_c, 0, 64, 64
2, 164640, Note_on_c, 0, 62, 92
2, 164736, Note_off_c, 0, 62, 64
2, 164736, Note_on_c, 0, 60, 92
2, 164832, Note_off_c, 0, 60, 64
2, 164832, Note_on_c, 0, 64, 92
2, 164928, Note_off_c, 0, 64, 64
2, 164928, Note_on_c, 0, 62, 92
2, 165024, Note_off_c, 0, 62, 64
2, 165024, Note_on_c, 0, 60, 92
2, 165120, Note_off_c, 0, 60, 64
2, 165120, Note_on_c, 0, 67, 92
2, 165216, Note_off_c, 0, 67, 64
2, 165216, Note_on_c, 0, 71, 92
2, 165312, Note_off_c, 0, 71, 64
2, 165312, Note_on_c, 0, 69, 92
2, 165408, Note_off_c, 0, 69, 64
2, 165408, Note_on_c, 0, 67, 92
2, 165504, Note_off_c, 0, 67, 64
2, 165504, Note_on_c, 0, 72, 92
2, 165600, Note_off_c, 0, 72, 64
2, 165600, Note_on_c, 0, 76, 92
2, 165696, Note_off_c, 0, 76, 64
2, 165696, Note_on_c, 0, 74, 92
2, 165792, Note_off_c, 0, 74, 64
2, 165792, Note_on_c, 0, 72, 92
2, 165888, Note_off_c, 0, 72, 64
2, 165888, Note_on_c, 0, 77, 92
2, 165984, Note_off_c, 0, 77, 64
2, 165984, Note_on_c, 0, 79, 92
2, 166080, Note_off_c, 0, 79, 64
2, 166080, Note_on_c, 0, 77, 92
2, 166176, Note_off_c, 0, 77, 64
2, 166176, Note_on_c, 0, 76, 92
2, 166272, Note_off_c, 0, 76, 64
2, 166272, Note_on_c, 0, 74, 92
2, 166368, Note_off_c, 0, 74, 64
2, 166368, Note_on_c, 0, 77, 92
2, 166464, Note_off_c, 0, 77, 64
2, 166464, Note_on_c, 0, 76, 92
2, 166560, Note_off_c, 0, 76, 64
2, 166560, Note_on_c, 0, 74, 92
2, 166656, Note_off_c, 0, 74, 64
2, 166656, Note_on_c, 0, 79, 92
2, 166752, Note_off_c, 0, 79, 64
2, 166752, Note_on_c, 0, 81, 92
2, 166848, Note_off_c, 0, 81, 64
2, 166848, Note_on_c, 0, 79, 92
2, 166944, Note_off_c, 0, 79, 64
2, 166944, Note_on_c, 0, 77, 92
2, 167040, Note_off_c, 0, 77, 64
2, 167040, Note_on_c, 0, 76, 92
2, 167136, Note_off_c, 0, 76, 64
2, 167136, Note_on_c, 0, 79, 92
2, 167232, Note_off_c, 0, 79, 64
2, 167232, Note_on_c, 0, 72, 92
2, 167328, Note_off_c, 0, 72, 64
2, 167328, Note_on_c, 0, 76, 92
2, 167424, Note_off_c, 0, 76, 64
2, 167424, Note_on_c, 0, 72, 92
2, 167424, Note_on_c, 0, 79, 92
2, 167424, Note_on_c, 0, 76, 92
2, 167424, Note_on_c, 0, 67, 92
2, 167472, Note_off_c, 0, 67, 64
2, 167472, Note_on_c, 0, 69, 92
2, 167520, Note_off_c, 0, 69, 64
2, 167520, Note_on_c, 0, 71, 92
2, 167568, Note_off_c, 0, 71, 64
2, 167568, Note_off_c, 0, 72, 64
2, 167568, Note_on_c, 0, 72, 92
2, 167616, Note_off_c, 0, 72, 64
2, 167616, Note_off_c, 0, 76, 64
2, 167616, Note_off_c, 0, 79, 64
2, 167616, Note_on_c, 0, 71, 92
2, 167664, Note_off_c, 0, 71, 64
2, 167664, Note_on_c, 0, 69, 92
2, 167712, Note_off_c, 0, 69, 64
2, 167712, Note_on_c, 0, 67, 92
2, 167760, Note_off_c, 0, 67, 64
2, 167760, Note_on_c, 0, 65, 92
2, 167808, Note_off_c, 0, 65, 64
2, 167808, Note_on_c, 0, 79, 92
2, 167808, Note_on_c, 0, 76, 92
2, 167808, Note_on_c, 0, 72, 92
2, 167808, Note_on_c, 0, 64, 92
2, 167856, Note_off_c, 0, 64, 64
2, 167856, Note_on_c, 0, 65, 92
2, 167904, Note_off_c, 0, 65, 64
2, 167904, Note_on_c, 0, 67, 92
2, 167952, Note_off_c, 0, 67, 64
2, 167952, Note_on_c, 0, 69, 92
2, 168000, Note_off_c, 0, 69, 64
2, 168000, Note_off_c, 0, 72, 64
2, 168000, Note_off_c, 0, 76, 64
2, 168000, Note_off_c, 0, 79, 64
2, 168000, Note_on_c, 0, 67, 92
2, 168048, Note_off_c, 0, 67, 64
2, 168048, Note_on_c, 0, 65, 92
2, 168096, Note_off_c, 0, 65, 64
2, 168096, Note_on_c, 0, 64, 92
2, 168144, Note_off_c, 0, 64, 64
2, 168144, Note_on_c, 0, 62, 92
2, 168192, Note_off_c, 0, 62, 64
2, 168192, Note_on_c, 0, 76, 92
2, 168192, Note_on_c, 0, 72, 92
2, 168192, Note_on_c, 0, 67, 92
2, 168192, Note_on_c, 0, 60, 92
2, 168240, Note_off_c, 0, 60, 64
2, 168240, Note_on_c, 0, 62, 92
2, 168288, Note_off_c, 0, 62, 64
2, 168288, Note_on_c, 0, 64, 92
2, 168336, Note_off_c, 0, 64, 64
2, 168336, Note_on_c, 0, 65, 92
2, 168384, Note_off_c, 0, 65, 64
2, 168384, Note_off_c, 0, 67, 64
2, 168384, Note_off_c, 0, 72, 64
2, 168384, Note_off_c, 0, 76, 64
2, 168384, Note_on_c, 0, 64, 92
2, 168432, Note_off_c, 0, 64, 64
2, 168432, Note_on_c, 0, 62, 92
2, 168480, Note_off_c, 0, 62, 64
2, 168480, Note_on_c, 0, 60, 92
2, 168528, Note_off_c, 0, 60, 64
2, 168528, Note_on_c, 0, 59, 92
2, 168576, Note_off_c, 0, 59, 64
2, 168576, Note_on_c, 0, 76, 92
2, 168576, Note_on_c, 0, 72, 92
2, 168576, Note_on_c, 0, 69, 92
2, 168768, Note_off_c, 0, 69, 64
2, 168768, Note_off_c, 0, 72, 64
2, 168768, Note_off_c, 0, 76, 64
2, 168960, Note_on_c, 0, 74, 92
2, 168960, Note_on_c, 0, 72, 92
2, 168960, Note_on_c, 0, 69, 92
2, 168960, Note_on_c, 0, 66, 92
2, 168960, Note_on_c, 0, 62, 92
2, 169728, Note_off_c, 0, 62, 64
2, 169728, Note_off_c, 0, 66, 64
2, 169728, Note_off_c, 0, 69, 64
2, 169728, Note_off_c, 0, 72, 64
2, 169728, Note_off_c, 0, 74, 64
2, 169824, Note_on_c, 0, 72, 92
2, 169920, Note_off_c, 0, 72, 64
2, 169920, Note_on_c, 0, 71, 92
2, 170016, Note_off_c, 0, 71, 64
2, 170016, Note_on_c, 0, 72, 92
2, 170112, Note_off_c, 0, 72, 64
2, 170112, Note_on_c, 0, 71, 92
2, 170208, Note_off_c, 0, 71, 64
2, 170208, Note_on_c, 0, 72, 92
2, 170304, Note_off_c, 0, 72, 64
2, 170304, Note_on_c, 0, 71, 92
2, 170400, Note_off_c, 0, 71, 64
2, 170400, Note_on_c, 0, 72, 92
2, 170496, Note_off_c, 0, 72, 64
2, 170496, Note_on_c, 0, 71, 92
2, 170592, Note_off_c, 0, 71, 64
2, 170592, Note_on_c, 0, 72, 92
2, 170688, Note_off_c, 0, 72, 64
2, 170688, Note_on_c, 0, 71, 92
2, 170784, Note_off_c, 0, 71, 64
2, 170784, Note_on_c, 0, 72, 92
2, 170880, Note_off_c, 0, 72, 64
2, 170880, Note_on_c, 0, 72, 92
2, 170904, Note_off_c, 0, 72, 64
2, 170904, Note_on_c, 0, 71, 92
2, 170928, Note_off_c, 0, 71, 64
2, 170928, Note_on_c, 0, 72, 92
2, 170952, Note_off_c, 0, 72, 64
2, 170952, Note_on_c, 0, 71, 92
2, 170976, Note_off_c, 0, 71, 64
2, 170976, Note_on_c, 0, 72, 92
2, 171000, Note_off_c, 0, 72, 64
2, 171000, Note_on_c, 0, 71, 92
2, 171024, Note_off_c, 0, 71, 64
2, 171024, Note_on_c, 0, 72, 92
2, 171048, Note_off_c, 0, 72, 64
2, 171048, Note_on_c, 0, 71, 92
2, 171072, Note_off_c, 0, 71, 64
2, 171072, Note_on_c, 0, 72, 92
2, 171096, Note_off_c, 0, 72, 64
2, 171096, Note_on_c, 0, 71, 92
2, 171120, Note_off_c, 0, 71, 64
2, 171120, Note_on_c, 0, 72, 92
2, 171144, Note_off_c, 0, 72, 64
2, 171144, Note_on_c, 0, 71, 92
2, 171168, Note_off_c, 0, 71, 64
2, 171168, Note_on_c, 0, 69, 92
2, 171264, Note_off_c, 0, 69, 64
2, 171264, Note_on_c, 0, 71, 92
2, 171312, Note_on_c, 0, 69, 92
2, 171360, Note_off_c, 0, 69, 64
2, 171360, Note_on_c, 0, 67, 92
2, 171408, Note_off_c, 0, 67, 64
2, 171408, Note_on_c, 0, 65, 92
2, 171456, Note_off_c, 0, 65, 64
2, 171456, Note_on_c, 0, 64, 92
2, 171504, Note_off_c, 0, 64, 64
2, 171504, Note_on_c, 0, 62, 92
2, 171552, Note_off_c, 0, 62, 64
2, 171552, Note_on_c, 0, 60, 92
2, 171600, Note_off_c, 0, 60, 64
2, 171600, Note_on_c, 0, 59, 92
2, 171648, Note_off_c, 0, 59, 64
2, 171648, Note_off_c, 0, 71, 64
2, 171648, Note_on_c, 0, 60, 92
2, 171648, Note_on_c, 0, 64, 92
2, 171696, Note_on_c, 0, 67, 92
2, 171744, Note_off_c, 0, 67, 64
2, 171744, Note_on_c, 0, 69, 92
2, 171792, Note_off_c, 0, 69, 64
2, 171792, Note_on_c, 0, 71, 92
2, 171840, Note_off_c, 0, 71, 64
2, 171840, Note_on_c, 0, 72, 92
2, 171888, Note_off_c, 0, 72, 64
2, 171888, Note_on_c, 0, 74, 92
2, 171936, Note_off_c, 0, 74, 64
2, 171936, Note_on_c, 0, 76, 92
2, 171984, Note_off_c, 0, 76, 64
2, 171984, Note_on_c, 0, 77, 92
2, 172032, Note_off_c, 0, 77, 64
2, 172032, Note_off_c, 0, 64, 64
2, 172032, Note_off_c, 0, 60, 64
2, 172032, Note_on_c, 0, 75, 92
2, 172128, Note_on_c, 0, 67, 92
2, 172224, Note_off_c, 0, 67, 64
2, 172224, Note_on_c, 0, 69, 92
2, 172320, Note_off_c, 0, 69, 64
2, 172320, Note_on_c, 0, 71, 92
2, 172416, Note_off_c, 0, 71, 64
2, 172416, Note_on_c, 0, 72, 92
2, 173568, Note_off_c, 0, 72, 64
2, 173664, Note_off_c, 0, 75, 64
2, 173664, Note_on_c, 0, 77, 92
2, 173760, Note_off_c, 0, 77, 64
2, 173760, Note_on_c, 0, 75, 92
2, 173856, Note_off_c, 0, 75, 64
2, 173856, Note_on_c, 0, 74, 92
2, 173952, Note_off_c, 0, 74, 64
2, 173952, Note_on_c, 0, 72, 92
2, 174048, Note_on_c, 0, 76, 92
2, 174144, Note_on_c, 0, 69, 92
2, 174240, Note_off_c, 0, 72, 64
2, 174240, Note_on_c, 0, 72, 92
2, 174288, Note_on_c, 0, 66, 92
2, 174336, Note_off_c, 0, 66, 64
2, 174336, Note_off_c, 0, 69, 64
2, 174336, Note_on_c, 0, 67, 92
2, 174432, Note_off_c, 0, 76, 64
2, 174432, Note_on_c, 0, 77, 92
2, 174528, Note_off_c, 0, 77, 64
2, 174528, Note_on_c, 0, 76, 92
2, 174624, Note_off_c, 0, 76, 64
2, 174624, Note_on_c, 0, 77, 92
2, 174720, Note_off_c, 0, 77, 64
2, 174720, Note_on_c, 0, 76, 92
2, 174912, Note_off_c, 0, 72, 64
2, 174912, Note_on_c, 0, 71, 92
2, 175008, Note_off_c, 0, 76, 64
2, 175008, Note_on_c, 0, 74, 92
2, 175056, Note_off_c, 0, 74, 64
2, 175056, Note_on_c, 0, 72, 92
2, 175104, Note_off_c, 0, 72, 64
2, 175104, Note_off_c, 0, 71, 64
2, 175104, Note_off_c, 0, 67, 64
2, 175104, Note_on_c, 0, 64, 92
2, 175104, Note_on_c, 0, 67, 92
2, 175104, Note_on_c, 0, 72, 92
2, 175200, Note_off_c, 0, 72, 64
2, 175200, Note_on_c, 0, 71, 92
2, 175296, Note_off_c, 0, 71, 64
2, 175296, Note_off_c, 0, 67, 64
2, 175296, Note_off_c, 0, 64, 64
2, 175296, Note_on_c, 0, 69, 92
2, 175392, Note_off_c, 0, 69, 64
2, 175392, Note_on_c, 0, 67, 92
2, 175488, Note_off_c, 0, 67, 64
2, 175488, Note_on_c, 0, 65, 92
2, 175584, Note_off_c, 0, 65, 64
2, 175584, Note_on_c, 0, 64, 92
2, 175680, Note_off_c, 0, 64, 64
2, 175680, Note_on_c, 0, 62, 92
2, 175728, Note_off_c, 0, 62, 64
2, 175728, Note_on_c, 0, 64, 92
2, 175776, Note_off_c, 0, 64, 64
2, 175776, Note_on_c, 0, 65, 92
2, 175872, Note_off_c, 0, 65, 64
2, 175872, Note_on_c, 0, 60, 92
2, 175872, Note_on_c, 0, 64, 92
2, 175872, Note_on_c, 0, 67, 92
2, 175872, Note_on_c, 0, 72, 92
2, 176640, Note_off_c, 0, 72, 64
2, 176640, Note_off_c, 0, 67, 64
2, 176640, Note_off_c, 0, 64, 64
2, 176640, Note_off_c, 0, 60, 64
2, 176640, End_track
3, 0, Start_track
3, 0, Title_t, "Track 2"
3, 19296, Note_on_c, 0, 43, 92
3, 19392, Note_off_c, 0, 43, 64
3, 19392, Note_on_c, 0, 48, 92
3, 19488, Note_off_c, 0, 48, 64
3, 19488, Note_on_c, 0, 43, 92
3, 19584, Note_off_c, 0, 43, 64
3, 19584, Note_on_c, 0, 48, 92
3, 19680, Note_off_c, 0, 48, 64
3, 19680, Note_on_c, 0, 48, 92
3, 19776, Note_off_c, 0, 48, 64
3, 19776, Note_on_c, 0, 52, 92
3, 19872, Note_off_c, 0, 52, 64
3, 19872, Note_on_c, 0, 48, 92
3, 19968, Note_off_c, 0, 48, 64
3, 19968, Note_on_c, 0, 43, 92
3, 20064, Note_off_c, 0, 43, 64
3, 20064, Note_on_c, 0, 48, 92
3, 20160, Note_off_c, 0, 48, 64
3, 20160, Note_on_c, 0, 52, 92
3, 20256, Note_off_c, 0, 52, 64
3, 20256, Note_on_c, 0, 48, 92
3, 20352, Note_off_c, 0, 48, 64
3, 20352, Note_on_c, 0, 52, 92
3, 20448, Note_off_c, 0, 52, 64
3, 20448, Note_on_c, 0, 52, 92
3, 20544, Note_off_c, 0, 52, 64
3, 20544, Note_on_c, 0, 55, 92
3, 20640, Note_off_c, 0, 55, 64
3, 20640, Note_on_c, 0, 52, 92
3, 20736, Note_off_c, 0, 52, 64
3, 20736, Note_on_c, 0, 48, 92
3, 20832, Note_off_c, 0, 48, 64
3, 20832, Note_on_c, 0, 55, 92
3, 20928, Note_off_c, 0, 55, 64
3, 20928, Note_on_c, 0, 60, 92
3, 21024, Note_off_c, 0, 60, 64
3, 21024, Note_on_c, 0, 55, 92
3, 21120, Note_off_c, 0, 55, 64
3, 21120, Note_on_c, 0, 60, 92
3, 21216, Note_off_c, 0, 60, 64
3, 21216, Note_on_c, 0, 55, 92
3, 21312, Note_off_c, 0, 55, 64
3, 21312, Note_on_c, 0, 60, 92
3, 21408, Note_off_c, 0, 60, 64
3, 21408, Note_on_c, 0, 55, 92
3, 21504, Note_off_c, 0, 55, 64
3, 21504, Note_on_c, 0, 60, 92
3, 21600, Note_off_c, 0, 60, 64
3, 23808, Note_on_c, 0, 60, 92
3, 24000, Note_off_c, 0, 60, 64
3, 24000, Note_on_c, 0, 62, 92
3, 24192, Note_off_c, 0, 62, 64
3, 24192, Note_on_c, 0, 64, 92
3, 24384, Note_off_c, 0, 64, 64
3, 24384, Note_on_c, 0, 62, 92
3, 24576, Note_off_c, 0, 62, 64
3, 24576, Note_on_c, 0, 60, 92
3, 24768, Note_off_c, 0, 60, 64
3, 24768, Note_on_c, 0, 60, 92
3, 24960, Note_off_c, 0, 60, 64
3, 24960, Note_on_c, 0, 60, 92
3, 25152, Note_off_c, 0, 60, 64
3, 25152, Note_on_c, 0, 60, 92
3, 25344, Note_off_c, 0, 60, 64
3, 25344, Note_on_c, 0, 60, 92
3, 25536, Note_off_c, 0, 60, 64
3, 25536, Note_on_c, 0, 60, 92
3, 25728, Note_off_c, 0, 60, 64
3, 25728, Note_on_c, 0, 60, 92
3, 25920, Note_off_c, 0, 60, 64
3, 25920, Note_on_c, 0, 60, 92
3, 26112, Note_off_c, 0, 60, 64
3, 26112, Note_on_c, 0, 60, 92
3, 26304, Note_off_c, 0, 60, 64
3, 26496, Note_on_c, 0, 60, 92
3, 26688, Note_off_c, 0, 60, 64
3, 26880, Note_on_c, 0, 60, 92
3, 27072, Note_off_c, 0, 60, 64
3, 27264, Note_on_c, 0, 60, 92
3, 27456, Note_off_c, 0, 60, 64
3, 27744, Note_on_c, 0, 60, 92
3, 27840, Note_off_c, 0, 60, 64
3, 27840, Note_on_c, 0, 64, 92
3, 27936, Note_off_c, 0, 64, 64
3, 27936, Note_on_c, 0, 60, 92
3, 28032, Note_off_c, 0, 60, 64
3, 28032, Note_on_c, 0, 65, 92
3, 28128, Note_off_c, 0, 65, 64
3, 28128, Note_on_c, 0, 60, 92
3, 28224, Note_off_c, 0, 60, 64
3, 28224, Note_on_c, 0, 57, 92
3, 28320, Note_off_c, 0, 57, 64
3, 28320, Note_on_c, 0, 60, 92
3, 28416, Note_off_c, 0, 60, 64
3, 28416, Note_on_c, 0, 53, 92
3, 28512, Note_off_c, 0, 53, 64
3, 28512, Note_on_c, 0, 60, 92
3, 28608, Note_off_c, 0, 60, 64
3, 28608, Note_on_c, 0, 64, 92
3, 28704, Note_off_c, 0, 64, 64
3, 28704, Note_on_c, 0, 60, 92
3, 28800, Note_off_c, 0, 60, 64
3, 28800, Note_on_c, 0, 65, 92
3, 28896, Note_off_c, 0, 65, 64
3, 28896, Note_on_c, 0, 60, 92
3, 28992, Note_off_c, 0, 60, 64
3, 28992, Note_on_c, 0, 57, 92
3, 29088, Note_off_c, 0, 57, 64
3, 29088, Note_on_c, 0, 60, 92
3, 29184, Note_off_c, 0, 60, 64
3, 29184, Note_on_c, 0, 53, 92
3, 29280, Note_off_c, 0, 53, 64
3, 29280, Note_on_c, 0, 65, 92
3, 29376, Note_off_c, 0, 65, 64
3, 29376, Note_on_c, 0, 64, 92
3, 29472, Note_off_c, 0, 64, 64
3, 29472, Note_on_c, 0, 62, 92
3, 29568, Note_off_c, 0, 62, 64
3, 29568, Note_on_c, 0, 60, 92
3, 29664, Note_off_c, 0, 60, 64
3, 29664, Note_on_c, 0, 58, 92
3, 29760, Note_off_c, 0, 58, 64
3, 29760, Note_on_c, 0, 57, 92
3, 29856, Note_off_c, 0, 57, 64
3, 29856, Note_on_c, 0, 55, 92
3, 29952, Note_off_c, 0, 55, 64
3, 29952, Note_on_c, 0, 53, 92
3, 30048, Note_off_c, 0, 53, 64
3, 30048, Note_on_c, 0, 62, 92
3, 30144, Note_off_c, 0, 62, 64
3, 30144, Note_on_c, 0, 60, 92
3, 30240, Note_off_c, 0, 60, 64
3, 30240, Note_on_c, 0, 58, 92
3, 30336, Note_off_c, 0, 58, 64
3, 30336, Note_on_c, 0, 57, 92
3, 30432, Note_off_c, 0, 57, 64
3, 30432, Note_on_c, 0, 60, 92
3, 30528, Note_off_c, 0, 60, 64
3, 30528, Note_on_c, 0, 58, 92
3, 30624, Note_off_c, 0, 58, 64
3, 30624, Note_on_c, 0, 64, 92
3, 30720, Note_off_c, 0, 64, 64
3, 30720, Note_on_c, 0, 65, 92
3, 30912, Note_off_c, 0, 65, 64
3, 40320, Note_on_c, 0, 57, 92
3, 40512, Note_off_c, 0, 57, 64
3, 40704, Note_on_c, 0, 57, 92
3, 40896, Note_off_c, 0, 57, 64
3, 41088, Note_on_c, 0, 60, 92
3, 41088, Note_on_c, 0, 57, 92
3, 41280, Note_off_c, 0, 57, 64
3, 41280, Note_off_c, 0, 60, 64
3, 41472, Note_on_c, 0, 55, 92
3, 41472, Note_on_c, 0, 59, 92
3, 41472, Note_on_c, 0, 62, 92
3, 41664, Note_off_c, 0, 62, 64
3, 41664, Note_off_c, 0, 59, 64
3, 41664, Note_off_c, 0, 55, 64
3, 42240, Note_on_c, 0, 55, 92
3, 42240, Note_on_c, 0, 60, 92
3, 42240, Note_on_c, 0, 64, 92
3, 42432, Note_off_c, 0, 64, 64
3, 42432, Note_off_c, 0, 60, 64
3, 42432, Note_off_c, 0, 55, 64
3, 43008, Note_on_c, 0, 57, 92
3, 43008, Note_on_c, 0, 65, 92
3, 43008, Note_on_c, 0, 60, 92
3, 43200, Note_off_c, 0, 60, 64
3, 43200, Note_off_c, 0, 65, 64
3, 43200, Note_off_c, 0, 57, 64
3, 44544, Note_on_c, 0, 69, 92
3, 44544, Note_on_c, 0, 72, 92
3, 44736, Note_off_c, 0, 72, 64
3, 44736, Note_off_c, 0, 69, 64
3, 44736, Note_on_c, 0, 67, 92
3, 44736, Note_on_c, 0, 70, 92
3, 44928, Note_off_c, 0, 70, 64
3, 44928, Note_off_c, 0, 67, 64
3, 44928, Note_on_c, 0, 65, 92
3, 44928, Note_on_c, 0, 69, 92
3, 45120, Note_off_c, 0, 69, 64
3, 45120, Note_off_c, 0, 65, 64
3, 45120, Note_on_c, 0, 64, 92
3, 45120, Note_on_c, 0, 67, 92
3, 45312, Note_off_c, 0, 67, 64
3, 45312, Note_off_c, 0, 64, 64
3, 45312, Note_on_c, 0, 62, 92
3, 45312, Note_on_c, 0, 65, 92
3, 45504, Note_off_c, 0, 65, 64
3, 45504, Note_off_c, 0, 62, 64
3, 45504, Note_on_c, 0, 60, 92
3, 45504, Note_on_c, 0, 64, 92
3, 45696, Note_off_c, 0, 64, 64
3, 45696, Note_off_c, 0, 60, 64
3, 45696, Note_on_c, 0, 58, 92
3, 45696, Note_on_c, 0, 62, 92
3, 45888, Note_off_c, 0, 62, 64
3, 45888, Note_off_c, 0, 58, 64
3, 45888, Note_on_c, 0, 55, 92
3, 45888, Note_on_c, 0, 58, 92
3, 46080, Note_off_c, 0, 58, 64
3, 46080, Note_off_c, 0, 55, 64
3, 46080, Note_on_c, 0, 53, 92
3, 46080, Note_on_c, 0, 60, 92
3, 46272, Note_off_c, 0, 60, 64
3, 46272, Note_off_c, 0, 53, 64
3, 46656, Note_on_c, 0, 57, 92
3, 46656, Note_on_c, 0, 60, 92
3, 46848, Note_off_c, 0, 60, 64
3, 46848, Note_off_c, 0, 57, 64
3, 46848, Note_on_c, 0, 55, 92
3, 46848, Note_on_c, 0, 58, 92
3, 47040, Note_off_c, 0, 58, 64
3, 47040, Note_off_c, 0, 55, 64
3, 47040, Note_on_c, 0, 53, 92
3, 47040, Note_on_c, 0, 57, 92
3, 47232, Note_off_c, 0, 57, 64
3, 47232, Note_off_c, 0, 53, 64
3, 47232, Note_on_c, 0, 52, 92
3, 47232, Note_on_c, 0, 55, 92
3, 47232, Note_on_c, 0, 60, 92
3, 47424, Note_off_c, 0, 60, 64
3, 47424, Note_off_c, 0, 55, 64
3, 47424, Note_off_c, 0, 52, 64
3, 47616, Note_on_c, 0, 53, 92
3, 47712, Note_off_c, 0, 53, 64
3, 47712, Note_on_c, 0, 65, 92
3, 47808, Note_off_c, 0, 65, 64
3, 47808, Note_on_c, 0, 52, 92
3, 47904, Note_off_c, 0, 52, 64
3, 47904, Note_on_c, 0, 64, 92
3, 48000, Note_off_c, 0, 64, 64
3, 48000, Note_on_c, 0, 50, 92
3, 48096, Note_off_c, 0, 50, 64
3, 48096, Note_on_c, 0, 62, 92
3, 48192, Note_off_c, 0, 62, 64
3, 48192, Note_on_c, 0, 48, 92
3, 48288, Note_off_c, 0, 48, 64
3, 48288, Note_on_c, 0, 60, 92
3, 48384, Note_off_c, 0, 60, 64
3, 48384, Note_on_c, 0, 46, 92
3, 48480, Note_off_c, 0, 46, 64
3, 48480, Note_on_c, 0, 58, 92
3, 48576, Note_off_c, 0, 58, 64
3, 48576, Note_on_c, 0, 45, 92
3, 48672, Note_off_c, 0, 45, 64
3, 48672, Note_on_c, 0, 57, 92
3, 48768, Note_off_c, 0, 57, 64
3, 48768, Note_on_c, 0, 55, 92
3, 48864, Note_off_c, 0, 55, 64
3, 48864, Note_on_c, 0, 53, 92
3, 48960, Note_off_c, 0, 53, 64
3, 48960, Note_on_c, 0, 55, 92
3, 49056, Note_off_c, 0, 55, 64
3, 49056, Note_on_c, 0, 52, 92
3, 49152, Note_off_c, 0, 52, 64
3, 49152, Note_on_c, 0, 53, 92
3, 49248, Note_off_c, 0, 53, 64
3, 49248, Note_on_c, 0, 48, 92
3, 49344, Note_off_c, 0, 48, 64
3, 49344, Note_on_c, 0, 50, 92
3, 49440, Note_off_c, 0, 50, 64
3, 49440, Note_on_c, 0, 52, 92
3, 49536, Note_off_c, 0, 52, 64
3, 49536, Note_on_c, 0, 53, 92
3, 49632, Note_on_c, 0, 55, 92
3, 49728, Note_off_c, 0, 55, 64
3, 49728, Note_off_c, 0, 53, 64
3, 49728, Note_on_c, 0, 57, 92
3, 49824, Note_off_c, 0, 57, 64
3, 49824, Note_on_c, 0, 58, 92
3, 49920, Note_off_c, 0, 58, 64
3, 49920, Note_on_c, 0, 57, 92
3, 50112, Note_off_c, 0, 57, 64
3, 50688, Note_on_c, 0, 59, 92
3, 50688, Note_on_c, 0, 55, 92
3, 51072, Note_off_c, 0, 55, 64
3, 51072, Note_off_c, 0, 59, 64
3, 51264, Note_on_c, 0, 55, 92
3, 51264, Note_on_c, 0, 59, 92
3, 51456, Note_off_c, 0, 59, 64
3, 51456, Note_off_c, 0, 55, 64
3, 51456, Note_on_c, 0, 55, 92
3, 51456, Note_on_c, 0, 60, 92
3, 51840, Note_off_c, 0, 60, 64
3, 51840, Note_off_c, 0, 55, 64
3, 52032, Note_on_c, 0, 55, 92
3, 52032, Note_on_c, 0, 60, 92
3, 52224, Note_off_c, 0, 60, 64
3, 52224, Note_off_c, 0, 55, 64
3, 52224, Note_on_c, 0, 57, 92
3, 52224, Note_on_c, 0, 60, 92
3, 52608, Note_off_c, 0, 60, 64
3, 52608, Note_off_c, 0, 57, 64
3, 52608, Note_on_c, 0, 57, 92
3, 52608, Note_on_c, 0, 62, 92
3, 52992, Note_off_c, 0, 62, 64
3, 52992, Note_off_c, 0, 57, 64
3, 52992, Note_on_c, 0, 55, 92
3, 52992, Note_on_c, 0, 59, 92
3, 52992, Note_on_c, 0, 62, 92
3, 53184, Note_off_c, 0, 62, 64
3, 53184, Note_off_c, 0, 59, 64
3, 53184, Note_off_c, 0, 55, 64
3, 53760, Note_on_c, 0, 64, 92
3, 53760, Note_on_c, 0, 60, 92
3, 53952, Note_off_c, 0, 60, 64
3, 53952, Note_off_c, 0, 64, 64
3, 56832, Note_on_c, 0, 59, 92
3, 57024, Note_on_c, 0, 62, 92
3, 57216, Note_off_c, 0, 62, 64
3, 57216, Note_off_c, 0, 59, 64
3, 57216, Note_on_c, 0, 64, 92
3, 57216, Note_on_c, 0, 60, 92
3, 57600, Note_off_c, 0, 60, 64
3, 57600, Note_off_c, 0, 64, 64
3, 57600, Note_on_c, 0, 62, 92
3, 57984, Note_on_c, 0, 55, 92
3, 58176, Note_off_c, 0, 62, 64
3, 58176, Note_on_c, 0, 65, 92
3, 58368, Note_off_c, 0, 55, 64
3, 58368, Note_on_c, 0, 55, 92
3, 58560, Note_off_c, 0, 65, 64
3, 58560, Note_on_c, 0, 64, 92
3, 58656, Note_off_c, 0, 64, 64
3, 58656, Note_on_c, 0, 62, 92
3, 58752, Note_off_c, 0, 62, 64
3, 58752, Note_on_c, 0, 64, 92
3, 58848, Note_off_c, 0, 64, 64
3, 59136, Note_off_c, 0, 55, 64
3, 59424, Note_on_c, 0, 59, 92
3, 59472, Note_off_c, 0, 59, 64
3, 59472, Note_on_c, 0, 57, 92
3, 59520, Note_off_c, 0, 57, 64
3, 59520, Note_on_c, 0, 55, 92
3, 59568, Note_off_c, 0, 55, 64
3, 59568, Note_on_c, 0, 60, 92
3, 59616, Note_off_c, 0, 60, 64
3, 59616, Note_on_c, 0, 59, 92
3, 59664, Note_off_c, 0, 59, 64
3, 59664, Note_on_c, 0, 57, 92
3, 59712, Note_off_c, 0, 57, 64
3, 59712, Note_on_c, 0, 55, 92
3, 59760, Note_off_c, 0, 55, 64
3, 59760, Note_on_c, 0, 53, 92
3, 59808, Note_off_c, 0, 53, 64
3, 59808, Note_on_c, 0, 52, 92
3, 59856, Note_off_c, 0, 52, 64
3, 59856, Note_on_c, 0, 50, 92
3, 59904, Note_off_c, 0, 50, 64
3, 59904, Note_on_c, 0, 55, 92
3, 59904, Note_on_c, 0, 52, 92
3, 61440, Note_off_c, 0, 52, 64
3, 61440, Note_off_c, 0, 55, 64
3, 70752, Note_on_c, 0, 67, 92
3, 70848, Note_off_c, 0, 67, 64
3, 70848, Note_on_c, 0, 55, 92
3, 70944, Note_off_c, 0, 55, 64
3, 70944, Note_on_c, 0, 67, 92
3, 71040, Note_off_c, 0, 67, 64
3, 71040, Note_on_c, 0, 67, 92
3, 71136, Note_off_c, 0, 67, 64
3, 71136, Note_on_c, 0, 69, 92
3, 71232, Note_off_c, 0, 69, 64
3, 71232, Note_on_c, 0, 67, 92
3, 71328, Note_off_c, 0, 67, 64
3, 71328, Note_on_c, 0, 69, 92
3, 71424, Note_off_c, 0, 69, 64
3, 71424, Note_on_c, 0, 65, 92
3, 71520, Note_off_c, 0, 65, 64
3, 71520, Note_on_c, 0, 65, 92
3, 71616, Note_off_c, 0, 65, 64
3, 71616, Note_on_c, 0, 53, 92
3, 71712, Note_off_c, 0, 53, 64
3, 71712, Note_on_c, 0, 65, 92
3, 71808, Note_off_c, 0, 65, 64
3, 71808, Note_on_c, 0, 65, 92
3, 71904, Note_off_c, 0, 65, 64
3, 71904, Note_on_c, 0, 67, 92
3, 72000, Note_off_c, 0, 67, 64
3, 72000, Note_on_c, 0, 65, 92
3, 72096, Note_off_c, 0, 65, 64
3, 72096, Note_on_c, 0, 67, 92
3, 72192, Note_off_c, 0, 67, 64
3, 72192, Note_on_c, 0, 64, 92
3, 72288, Note_off_c, 0, 64, 64
3, 72288, Note_on_c, 0, 55, 92
3, 72384, Note_off_c, 0, 55, 64
3, 72384, Note_on_c, 0, 60, 92
3, 72480, Note_off_c, 0, 60, 64
3, 72480, Note_on_c, 0, 62, 92
3, 72576, Note_off_c, 0, 62, 64
3, 72576, Note_on_c, 0, 64, 92
3, 72672, Note_off_c, 0, 64, 64
3, 72672, Note_on_c, 0, 55, 92
3, 72768, Note_off_c, 0, 55, 64
3, 72768, Note_on_c, 0, 60, 92
3, 72864, Note_off_c, 0, 60, 64
3, 72864, Note_on_c, 0, 62, 92
3, 72960, Note_off_c, 0, 62, 64
3, 72960, Note_on_c, 0, 64, 92
3, 73056, Note_off_c, 0, 64, 64
3, 73056, Note_on_c, 0, 62, 92
3, 73152, Note_off_c, 0, 62, 64
3, 73152, Note_on_c, 0, 60, 92
3, 73248, Note_off_c, 0, 60, 64
3, 73248, Note_on_c, 0, 62, 92
3, 73344, Note_off_c, 0, 62, 64
3, 73344, Note_on_c, 0, 64, 92
3, 73440, Note_off_c, 0, 64, 64
3, 73440, Note_on_c, 0, 65, 92
3, 73536, Note_off_c, 0, 65, 64
3, 73536, Note_on_c, 0, 64, 92
3, 73632, Note_off_c, 0, 64, 64
3, 73632, Note_on_c, 0, 65, 92
3, 73728, Note_off_c, 0, 65, 64
3, 73728, Note_on_c, 0, 67, 92
3, 74208, Note_off_c, 0, 67, 64
3, 74208, Note_on_c, 0, 67, 92
3, 74304, Note_off_c, 0, 67, 64
3, 74304, Note_on_c, 0, 62, 92
3, 74400, Note_off_c, 0, 62, 64
3, 74400, Note_on_c, 0, 64, 92
3, 74496, Note_off_c, 0, 64, 64
3, 74496, Note_on_c, 0, 65, 92
3, 74592, Note_off_c, 0, 65, 64
3, 74592, Note_on_c, 0, 67, 92
3, 74688, Note_off_c, 0, 67, 64
3, 74688, Note_on_c, 0, 64, 92
3, 74784, Note_off_c, 0, 64, 64
3, 74784, Note_on_c, 0, 65, 92
3, 74880, Note_off_c, 0, 65, 64
3, 74880, Note_on_c, 0, 62, 92
3, 75168, Note_off_c, 0, 62, 64
3, 75168, Note_on_c, 0, 60, 92
3, 75264, Note_off_c, 0, 60, 64
3, 75264, Note_on_c, 0, 60, 92
3, 75456, Note_off_c, 0, 60, 64
3, 75456, Note_on_c, 0, 48, 92
3, 75552, Note_off_c, 0, 48, 64
3, 75552, Note_on_c, 0, 60, 92
3, 75648, Note_off_c, 0, 60, 64
3, 75648, Note_on_c, 0, 60, 92
3, 75744, Note_off_c, 0, 60, 64
3, 75744, Note_on_c, 0, 62, 92
3, 75840, Note_off_c, 0, 62, 64
3, 75840, Note_on_c, 0, 60, 92
3, 75936, Note_off_c, 0, 60, 64
3, 75936, Note_on_c, 0, 62, 92
3, 76032, Note_off_c, 0, 62, 64
3, 76032, Note_on_c, 0, 58, 92
3, 76128, Note_off_c, 0, 58, 64
3, 76128, Note_on_c, 0, 58, 92
3, 76224, Note_off_c, 0, 58, 64
3, 76224, Note_on_c, 0, 46, 92
3, 76320, Note_off_c, 0, 46, 64
3, 76320, Note_on_c, 0, 58, 92
3, 76416, Note_off_c, 0, 58, 64
3, 76416, Note_on_c, 0, 58, 92
3, 76512, Note_off_c, 0, 58, 64
3, 76512, Note_on_c, 0, 60, 92
3, 76608, Note_off_c, 0, 60, 64
3, 76608, Note_on_c, 0, 58, 92
3, 76704, Note_off_c, 0, 58, 64
3, 76704, Note_on_c, 0, 60, 92
3, 76800, Note_off_c, 0, 60, 64
3, 76800, Note_on_c, 0, 57, 92
3, 76896, Note_off_c, 0, 57, 64
3, 76896, Note_on_c, 0, 48, 92
3, 76992, Note_off_c, 0, 48, 64
3, 76992, Note_on_c, 0, 53, 92
3, 77088, Note_off_c, 0, 53, 64
3, 77088, Note_on_c, 0, 55, 92
3, 77184, Note_off_c, 0, 55, 64
3, 77184, Note_on_c, 0, 57, 92
3, 77280, Note_off_c, 0, 57, 64
3, 77280, Note_on_c, 0, 48, 92
3, 77376, Note_off_c, 0, 48, 64
3, 77376, Note_on_c, 0, 53, 92
3, 77472, Note_off_c, 0, 53, 64
3, 77472, Note_on_c, 0, 55, 92
3, 77568, Note_off_c, 0, 55, 64
3, 77568, Note_on_c, 0, 57, 92
3, 77664, Note_off_c, 0, 57, 64
3, 77664, Note_on_c, 0, 58, 92
3, 77760, Note_off_c, 0, 58, 64
3, 77760, Note_on_c, 0, 55, 92
3, 77856, Note_off_c, 0, 55, 64
3, 77856, Note_on_c, 0, 57, 92
3, 77952, Note_off_c, 0, 57, 64
3, 77952, Note_on_c, 0, 53, 92
3, 78048, Note_off_c, 0, 53, 64
3, 78048, Note_on_c, 0, 55, 92
3, 78144, Note_off_c, 0, 55, 64
3, 78144, Note_on_c, 0, 57, 92
3, 78240, Note_off_c, 0, 57, 64
3, 78240, Note_on_c, 0, 59, 92
3, 78336, Note_off_c, 0, 59, 64
3, 78336, Note_on_c, 0, 60, 92
3, 79488, Note_off_c, 0, 60, 64
3, 79488, Note_on_c, 0, 59, 92
3, 79872, Note_off_c, 0, 59, 64
3, 79872, Note_on_c, 0, 57, 92
3, 79968, Note_off_c, 0, 57, 64
3, 79968, Note_on_c, 0, 59, 92
3, 80064, Note_off_c, 0, 59, 64
3, 80064, Note_on_c, 0, 57, 92
3, 80160, Note_off_c, 0, 57, 64
3, 80160, Note_on_c, 0, 55, 92
3, 80256, Note_off_c, 0, 55, 64
3, 80256, Note_on_c, 0, 54, 92
3, 80640, Note_off_c, 0, 54, 64
3, 80640, Note_on_c, 0, 55, 92
3, 80736, Note_off_c, 0, 55, 64
3, 80736, Note_on_c, 0, 57, 92
3, 80832, Note_off_c, 0, 57, 64
3, 80832, Note_on_c, 0, 59, 92
3, 80928, Note_off_c, 0, 59, 64
3, 80928, Note_on_c, 0, 60, 92
3, 81024, Note_off_c, 0, 60, 64
3, 81024, Note_on_c, 0, 62, 92
3, 81120, Note_off_c, 0, 62, 64
3, 81120, Note_on_c, 0, 64, 92
3, 81216, Note_off_c, 0, 64, 64
3, 81216, Note_on_c, 0, 65, 92
3, 81312, Note_off_c, 0, 65, 64
3, 81312, Note_on_c, 0, 57, 92
3, 81408, Note_off_c, 0, 57, 64
3, 81408, Note_on_c, 0, 59, 92
3, 81504, Note_off_c, 0, 59, 64
3, 81504, Note_on_c, 0, 55, 92
3, 81600, Note_off_c, 0, 55, 64
3, 81600, Note_on_c, 0, 60, 92
3, 81696, Note_off_c, 0, 60, 64
3, 81696, Note_on_c, 0, 52, 92
3, 81792, Note_off_c, 0, 52, 64
3, 81792, Note_on_c, 0, 57, 92
3, 81888, Note_off_c, 0, 57, 64
3, 81888, Note_on_c, 0, 53, 92
3, 81984, Note_off_c, 0, 53, 64
3, 81984, Note_on_c, 0, 58, 92
3, 82080, Note_off_c, 0, 58, 64
3, 82080, Note_on_c, 0, 50, 92
3, 82176, Note_off_c, 0, 50, 64
3, 82176, Note_on_c, 0, 55, 92
3, 82272, Note_off_c, 0, 55, 64
3, 82272, Note_on_c, 0, 52, 92
3, 82368, Note_off_c, 0, 52, 64
3, 82368, Note_on_c, 0, 57, 92
3, 82464, Note_off_c, 0, 57, 64
3, 82464, Note_on_c, 0, 55, 92
3, 82560, Note_off_c, 0, 55, 64
3, 82560, Note_on_c, 0, 53, 92
3, 82656, Note_off_c, 0, 53, 64
3, 82656, Note_on_c, 0, 57, 92
3, 82752, Note_off_c, 0, 57, 64
3, 82752, Note_on_c, 0, 55, 92
3, 82848, Note_off_c, 0, 55, 64
3, 82848, Note_on_c, 0, 53, 92
3, 82944, Note_off_c, 0, 53, 64
3, 82944, Note_on_c, 0, 52, 92
3, 82944, Note_on_c, 0, 55, 92
3, 83136, Note_off_c, 0, 55, 64
3, 83136, Note_off_c, 0, 52, 64
3, 83520, Note_on_c, 0, 54, 92
3, 83520, Note_on_c, 0, 57, 92
3, 83712, Note_off_c, 0, 57, 64
3, 83712, Note_off_c, 0, 54, 64
3, 83712, Note_on_c, 0, 55, 92
3, 83904, Note_off_c, 0, 55, 64
3, 87648, Note_on_c, 0, 62, 92
3, 87744, Note_off_c, 0, 62, 64
3, 87744, Note_on_c, 0, 50, 92
3, 87840, Note_off_c, 0, 50, 64
3, 87840, Note_on_c, 0, 62, 92
3, 87936, Note_off_c, 0, 62, 64
3, 87936, Note_on_c, 0, 62, 92
3, 88032, Note_off_c, 0, 62, 64
3, 88032, Note_on_c, 0, 64, 92
3, 88128, Note_off_c, 0, 64, 64
3, 88128, Note_on_c, 0, 62, 92
3, 88224, Note_off_c, 0, 62, 64
3, 88224, Note_on_c, 0, 64, 92
3, 88320, Note_off_c, 0, 64, 64
3, 88320, Note_on_c, 0, 60, 92
3, 88416, Note_off_c, 0, 60, 64
3, 88416, Note_on_c, 0, 60, 92
3, 88512, Note_off_c, 0, 60, 64
3, 88512, Note_on_c, 0, 48, 92
3, 88608, Note_off_c, 0, 48, 64
3, 88608, Note_on_c, 0, 60, 92
3, 88704, Note_off_c, 0, 60, 64
3, 88704, Note_on_c, 0, 60, 92
3, 88800, Note_off_c, 0, 60, 64
3, 88800, Note_on_c, 0, 62, 92
3, 88896, Note_off_c, 0, 62, 64
3, 88896, Note_on_c, 0, 60, 92
3, 88992, Note_off_c, 0, 60, 64
3, 88992, Note_on_c, 0, 62, 92
3, 89088, Note_off_c, 0, 62, 64
3, 89088, Note_on_c, 0, 59, 92
3, 89184, Note_off_c, 0, 59, 64
3, 89184, Note_on_c, 0, 50, 92
3, 89280, Note_off_c, 0, 50, 64
3, 89280, Note_on_c, 0, 55, 92
3, 89376, Note_off_c, 0, 55, 64
3, 89376, Note_on_c, 0, 57, 92
3, 89472, Note_off_c, 0, 57, 64
3, 89472, Note_on_c, 0, 59, 92
3, 89568, Note_off_c, 0, 59, 64
3, 89568, Note_on_c, 0, 50, 92
3, 89664, Note_off_c, 0, 50, 64
3, 89664, Note_on_c, 0, 55, 92
3, 89760, Note_off_c, 0, 55, 64
3, 89760, Note_on_c, 0, 57, 92
3, 89856, Note_off_c, 0, 57, 64
3, 89856, Note_on_c, 0, 59, 92
3, 89952, Note_off_c, 0, 59, 64
3, 89952, Note_on_c, 0, 60, 92
3, 90048, Note_off_c, 0, 60, 64
3, 90048, Note_on_c, 0, 57, 92
3, 90144, Note_off_c, 0, 57, 64
3, 90144, Note_on_c, 0, 59, 92
3, 90240, Note_off_c, 0, 59, 64
3, 90240, Note_on_c, 0, 55, 92
3, 90336, Note_off_c, 0, 55, 64
3, 90336, Note_on_c, 0, 57, 92
3, 90432, Note_off_c, 0, 57, 64
3, 90432, Note_on_c, 0, 59, 92
3, 90528, Note_off_c, 0, 59, 64
3, 90528, Note_on_c, 0, 60, 92
3, 90624, Note_off_c, 0, 60, 64
3, 90624, Note_on_c, 0, 62, 92
3, 91008, Note_off_c, 0, 62, 64
3, 91104, Note_on_c, 0, 50, 92
3, 91200, Note_off_c, 0, 50, 64
3, 91200, Note_on_c, 0, 48, 92
3, 91296, Note_off_c, 0, 48, 64
3, 91296, Note_on_c, 0, 47, 92
3, 91392, Note_off_c, 0, 47, 64
3, 91392, Note_on_c, 0, 52, 92
3, 91872, Note_off_c, 0, 52, 64
3, 91872, Note_on_c, 0, 50, 92
3, 91968, Note_off_c, 0, 50, 64
3, 91968, Note_on_c, 0, 52, 92
3, 92064, Note_off_c, 0, 52, 64
3, 92064, Note_on_c, 0, 54, 92
3, 92160, Note_off_c, 0, 54, 64
3, 92160, Note_on_c, 0, 55, 92
3, 92640, Note_off_c, 0, 55, 64
3, 92640, Note_on_c, 0, 43, 92
3, 92736, Note_off_c, 0, 43, 64
3, 92736, Note_on_c, 0, 45, 92
3, 92832, Note_off_c, 0, 45, 64
3, 92832, Note_on_c, 0, 47, 92
3, 92928, Note_off_c, 0, 47, 64
3, 92928, Note_on_c, 0, 52, 92
3, 93504, Note_off_c, 0, 52, 64
3, 93504, Note_on_c, 0, 50, 92
3, 93696, Note_off_c, 0, 50, 64
3, 93696, Note_on_c, 0, 52, 92
3, 94272, Note_off_c, 0, 52, 64
3, 94272, Note_on_c, 0, 47, 92
3, 94464, Note_off_c, 0, 47, 64
3, 94464, Note_on_c, 0, 48, 92
3, 94848, Note_off_c, 0, 48, 64
3, 94848, Note_on_c, 0, 50, 92
3, 95232, Note_off_c, 0, 50, 64
3, 95232, Note_on_c, 0, 52, 92
3, 95328, Note_off_c, 0, 52, 64
3, 95328, Note_on_c, 0, 64, 92
3, 95424, Note_off_c, 0, 64, 64
3, 95424, Note_on_c, 0, 62, 92
3, 95520, Note_off_c, 0, 62, 64
3, 95520, Note_on_c, 0, 60, 92
3, 95616, Note_off_c, 0, 60, 64
3, 95616, Note_on_c, 0, 59, 92
3, 95712, Note_off_c, 0, 59, 64
3, 95712, Note_on_c, 0, 57, 92
3, 95808, Note_off_c, 0, 57, 64
3, 95808, Note_on_c, 0, 55, 92
3, 95904, Note_off_c, 0, 55, 64
3, 95904, Note_on_c, 0, 59, 92
3, 96000, Note_off_c, 0, 59, 64
3, 96000, Note_on_c, 0, 60, 92
3, 96192, Note_off_c, 0, 60, 64
3, 96192, Note_on_c, 0, 57, 92
3, 96384, Note_off_c, 0, 57, 64
3, 96384, Note_on_c, 0, 62, 92
3, 96576, Note_off_c, 0, 62, 64
3, 96576, Note_on_c, 0, 50, 92
3, 96768, Note_off_c, 0, 50, 64
3, 96768, Note_on_c, 0, 55, 92
3, 96960, Note_off_c, 0, 55, 64
3, 97344, Note_on_c, 0, 55, 92
3, 97344, Note_on_c, 0, 59, 92
3, 97536, Note_off_c, 0, 59, 64
3, 97536, Note_off_c, 0, 55, 64
3, 97536, Note_on_c, 0, 57, 92
3, 97536, Note_on_c, 0, 60, 92
3, 97728, Note_off_c, 0, 60, 64
3, 97728, Note_off_c, 0, 57, 64
3, 98112, Note_on_c, 0, 53, 92
3, 98112, Note_on_c, 0, 57, 92
3, 98112, Note_on_c, 0, 62, 92
3, 98304, Note_off_c, 0, 62, 64
3, 98304, Note_off_c, 0, 57, 64
3, 98304, Note_off_c, 0, 53, 64
3, 98304, Note_on_c, 0, 52, 92
3, 98304, Note_on_c, 0, 55, 92
3, 98304, Note_on_c, 0, 60, 92
3, 98496, Note_off_c, 0, 60, 64
3, 98496, Note_off_c, 0, 55, 64
3, 98496, Note_off_c, 0, 52, 64
3, 98880, Note_on_c, 0, 60, 92
3, 98880, Note_on_c, 0, 55, 92
3, 99072, Note_off_c, 0, 55, 64
3, 99072, Note_off_c, 0, 60, 64
3, 99072, Note_on_c, 0, 60, 92
3, 99072, Note_on_c, 0, 57, 92
3, 99264, Note_off_c, 0, 57, 64
3, 99264, Note_off_c, 0, 60, 64
3, 99648, Note_on_c, 0, 59, 92
3, 99648, Note_on_c, 0, 55, 92
3, 99648, Note_on_c, 0, 50, 92
3, 99840, Note_off_c, 0, 50, 64
3, 99840, Note_off_c, 0, 55, 64
3, 99840, Note_off_c, 0, 59, 64
3, 99840, Note_on_c, 0, 48, 92
3, 99840, Note_on_c, 0, 55, 92
3, 99840, Note_on_c, 0, 60, 92
3, 100032, Note_off_c, 0, 60, 64
3, 100032, Note_off_c, 0, 55, 64
3, 100032, Note_off_c, 0, 48, 64
3, 100032, Note_on_c, 0, 64, 92
3, 100128, Note_off_c, 0, 64, 64
3, 100128, Note_on_c, 0, 55, 92
3, 100224, Note_off_c, 0, 55, 64
3, 100224, Note_on_c, 0, 60, 92
3, 100320, Note_off_c, 0, 60, 64
3, 100320, Note_on_c, 0, 62, 92
3, 100416, Note_off_c, 0, 62, 64
3, 100416, Note_on_c, 0, 64, 92
3, 100512, Note_off_c, 0, 64, 64
3, 100512, Note_on_c, 0, 55, 92
3, 100608, Note_off_c, 0, 55, 64
3, 100608, Note_on_c, 0, 60, 92
3, 100704, Note_off_c, 0, 60, 64
3, 100704, Note_on_c, 0, 62, 92
3, 100800, Note_off_c, 0, 62, 64
3, 100800, Note_on_c, 0, 59, 92
3, 100896, Note_off_c, 0, 59, 64
3, 100896, Note_on_c, 0, 60, 92
3, 100992, Note_off_c, 0, 60, 64
3, 100992, Note_on_c, 0, 57, 92
3, 101088, Note_off_c, 0, 57, 64
3, 101088, Note_on_c, 0, 59, 92
3, 101184, Note_off_c, 0, 59, 64
3, 101184, Note_on_c, 0, 60, 92
3, 101280, Note_off_c, 0, 60, 64
3, 101280, Note_on_c, 0, 62, 92
3, 101376, Note_off_c, 0, 62, 64
3, 101376, Note_on_c, 0, 64, 92
3, 101472, Note_off_c, 0, 64, 64
3, 101472, Note_on_c, 0, 65, 92
3, 101568, Note_off_c, 0, 65, 64
3, 101568, Note_on_c, 0, 62, 92
3, 101664, Note_off_c, 0, 62, 64
3, 101664, Note_on_c, 0, 64, 92
3, 101760, Note_off_c, 0, 64, 64
3, 101760, Note_on_c, 0, 60, 92
3, 101856, Note_off_c, 0, 60, 64
3, 101856, Note_on_c, 0, 62, 92
3, 101952, Note_off_c, 0, 62, 64
3, 101952, Note_on_c, 0, 64, 92
3, 102048, Note_off_c, 0, 64, 64
3, 102048, Note_on_c, 0, 66, 92
3, 102144, Note_off_c, 0, 66, 64
3, 102144, Note_on_c, 0, 67, 92
3, 102336, Note_off_c, 0, 67, 64
3, 102720, Note_on_c, 0, 64, 92
3, 102912, Note_off_c, 0, 64, 64
3, 102912, Note_on_c, 0, 62, 92
3, 103104, Note_off_c, 0, 62, 64
3, 103488, Note_on_c, 0, 55, 92
3, 103680, Note_off_c, 0, 55, 64
3, 103680, Note_on_c, 0, 60, 92
3, 104352, Note_off_c, 0, 60, 64
3, 104352, Note_on_c, 0, 59, 92
3, 104448, Note_off_c, 0, 59, 64
3, 104448, Note_on_c, 0, 57, 92
3, 104544, Note_off_c, 0, 57, 64
3, 104544, Note_on_c, 0, 59, 92
3, 104640, Note_off_c, 0, 59, 64
3, 104640, Note_on_c, 0, 57, 92
3, 104736, Note_off_c, 0, 57, 64
3, 104736, Note_on_c, 0, 55, 92
3, 104832, Note_off_c, 0, 55, 64
3, 104832, Note_on_c, 0, 54, 92
3, 104928, Note_off_c, 0, 54, 64
3, 104928, Note_on_c, 0, 55, 92
3, 105024, Note_off_c, 0, 55, 64
3, 105024, Note_on_c, 0, 52, 92
3, 105120, Note_off_c, 0, 52, 64
3, 105120, Note_on_c, 0, 54, 92
3, 105216, Note_off_c, 0, 54, 64
3, 105216, Note_on_c, 0, 55, 92
3, 105312, Note_off_c, 0, 55, 64
3, 105312, Note_on_c, 0, 57, 92
3, 105408, Note_off_c, 0, 57, 64
3, 105408, Note_on_c, 0, 55, 92
3, 105504, Note_off_c, 0, 55, 64
3, 105504, Note_on_c, 0, 53, 92
3, 105600, Note_off_c, 0, 53, 64
3, 105600, Note_on_c, 0, 52, 92
3, 105696, Note_off_c, 0, 52, 64
3, 105696, Note_on_c, 0, 53, 92
3, 105792, Note_off_c, 0, 53, 64
3, 105792, Note_on_c, 0, 50, 92
3, 105888, Note_off_c, 0, 50, 64
3, 105888, Note_on_c, 0, 52, 92
3, 105984, Note_off_c, 0, 52, 64
3, 105984, Note_on_c, 0, 53, 92
3, 106560, Note_off_c, 0, 53, 64
3, 106560, Note_on_c, 0, 53, 92
3, 106752, Note_off_c, 0, 53, 64
3, 106752, Note_on_c, 0, 55, 92
3, 106848, Note_on_c, 0, 59, 92
3, 106944, Note_off_c, 0, 55, 64
3, 106944, Note_on_c, 0, 53, 92
3, 107040, Note_off_c, 0, 59, 64
3, 107040, Note_on_c, 0, 57, 92
3, 107136, Note_off_c, 0, 53, 64
3, 107136, Note_on_c, 0, 52, 92
3, 107232, Note_off_c, 0, 57, 64
3, 107232, Note_on_c, 0, 55, 92
3, 107328, Note_off_c, 0, 52, 64
3, 107328, Note_on_c, 0, 50, 92
3, 107424, Note_off_c, 0, 55, 64
3, 107424, Note_on_c, 0, 53, 92
3, 107520, Note_off_c, 0, 53, 64
3, 107520, Note_off_c, 0, 50, 64
3, 107520, Note_on_c, 0, 52, 92
3, 107520, Note_on_c, 0, 48, 92
3, 107616, Note_off_c, 0, 48, 64
3, 107616, Note_off_c, 0, 52, 64
3, 107616, Note_on_c, 0, 50, 92
3, 107712, Note_off_c, 0, 50, 64
3, 107712, Note_on_c, 0, 52, 92
3, 107808, Note_off_c, 0, 52, 64
3, 107808, Note_on_c, 0, 53, 92
3, 107904, Note_off_c, 0, 53, 64
3, 107904, Note_on_c, 0, 55, 92
3, 108000, Note_off_c, 0, 55, 64
3, 108000, Note_on_c, 0, 57, 92
3, 108096, Note_off_c, 0, 57, 64
3, 108096, Note_on_c, 0, 59, 92
3, 108192, Note_off_c, 0, 59, 64
3, 108192, Note_on_c, 0, 60, 92
3, 108288, Note_off_c, 0, 60, 64
3, 108288, Note_on_c, 0, 58, 92
3, 109056, Note_off_c, 0, 58, 64
3, 109056, Note_on_c, 0, 57, 92
3, 109056, Note_on_c, 0, 61, 92
3, 109152, Note_off_c, 0, 61, 64
3, 109152, Note_off_c, 0, 57, 64
3, 109152, Note_on_c, 0, 59, 92
3, 109248, Note_off_c, 0, 59, 64
3, 109248, Note_on_c, 0, 61, 92
3, 109344, Note_off_c, 0, 61, 64
3, 109344, Note_on_c, 0, 62, 92
3, 109440, Note_off_c, 0, 62, 64
3, 109440, Note_on_c, 0, 64, 92
3, 109536, Note_off_c, 0, 64, 64
3, 109536, Note_on_c, 0, 65, 92
3, 109632, Note_off_c, 0, 65, 64
3, 109632, Note_on_c, 0, 60, 92
3, 109728, Note_off_c, 0, 60, 64
3, 109728, Note_on_c, 0, 62, 92
3, 109824, Note_off_c, 0, 62, 64
3, 109824, Note_on_c, 0, 56, 92
3, 110592, Note_off_c, 0, 56, 64
3, 110592, Note_on_c, 0, 57, 92
3, 111168, Note_off_c, 0, 57, 64
3, 111168, Note_on_c, 0, 59, 92
3, 111360, Note_off_c, 0, 59, 64
3, 111360, Note_on_c, 0, 60, 92
3, 111936, Note_off_c, 0, 60, 64
3, 111936, Note_on_c, 0, 61, 92
3, 112128, Note_off_c, 0, 61, 64
3, 112128, Note_on_c, 0, 62, 92
3, 112704, Note_off_c, 0, 62, 64
3, 112704, Note_on_c, 0, 63, 92
3, 112896, Note_off_c, 0, 63, 64
3, 112896, Note_on_c, 0, 64, 92
3, 113280, Note_off_c, 0, 64, 64
3, 113280, Note_on_c, 0, 68, 92
3, 113664, Note_off_c, 0, 68, 64
3, 113664, Note_on_c, 0, 64, 92
3, 113760, Note_off_c, 0, 64, 64
3, 113760, Note_on_c, 0, 60, 92
3, 113856, Note_off_c, 0, 60, 64
3, 113856, Note_on_c, 0, 65, 92
3, 113952, Note_off_c, 0, 65, 64
3, 113952, Note_on_c, 0, 64, 92
3, 114048, Note_off_c, 0, 64, 64
3, 114048, Note_on_c, 0, 62, 92
3, 114144, Note_off_c, 0, 62, 64
3, 114144, Note_on_c, 0, 59, 92
3, 114240, Note_off_c, 0, 59, 64
3, 114240, Note_on_c, 0, 64, 92
3, 114336, Note_off_c, 0, 64, 64
3, 114336, Note_on_c, 0, 62, 92
3, 114432, Note_off_c, 0, 62, 64
3, 114432, Note_on_c, 0, 60, 92
3, 114816, Note_off_c, 0, 60, 64
3, 114816, Note_on_c, 0, 59, 92
3, 115008, Note_off_c, 0, 59, 64
3, 115008, Note_on_c, 0, 57, 92
3, 115200, Note_off_c, 0, 57, 64
3, 115200, Note_on_c, 0, 55, 92
3, 115296, Note_off_c, 0, 55, 64
3, 115296, Note_on_c, 0, 57, 92
3, 115392, Note_off_c, 0, 57, 64
3, 115392, Note_on_c, 0, 59, 92
3, 115488, Note_off_c, 0, 59, 64
3, 115488, Note_on_c, 0, 55, 92
3, 115584, Note_off_c, 0, 55, 64
3, 115584, Note_on_c, 0, 60, 92
3, 115776, Note_off_c, 0, 60, 64
3, 115776, Note_on_c, 0, 59, 92
3, 115968, Note_off_c, 0, 59, 64
3, 115968, Note_on_c, 0, 57, 92
3, 116160, Note_off_c, 0, 57, 64
3, 116160, Note_on_c, 0, 55, 92
3, 116352, Note_off_c, 0, 55, 64
3, 116352, Note_on_c, 0, 62, 92
3, 116736, Note_off_c, 0, 62, 64
3, 116736, Note_on_c, 0, 59, 92
3, 117120, Note_off_c, 0, 59, 64
3, 117216, Note_on_c, 0, 64, 92
3, 117312, Note_off_c, 0, 64, 64
3, 117312, Note_on_c, 0, 59, 92
3, 117408, Note_off_c, 0, 59, 64
3, 117408, Note_on_c, 0, 60, 92
3, 117504, Note_off_c, 0, 60, 64
3, 117504, Note_on_c, 0, 62, 92
3, 117888, Note_off_c, 0, 62, 64
3, 117984, Note_on_c, 0, 62, 92
3, 118080, Note_off_c, 0, 62, 64
3, 118080, Note_on_c, 0, 57, 92
3, 118176, Note_off_c, 0, 57, 64
3, 118176, Note_on_c, 0, 59, 92
3, 118272, Note_off_c, 0, 59, 64
3, 118272, Note_on_c, 0, 60, 92
3, 118464, Note_off_c, 0, 60, 64
3, 118464, Note_on_c, 0, 52, 92
3, 118560, Note_off_c, 0, 52, 64
3, 118560, Note_on_c, 0, 53, 92
3, 118656, Note_off_c, 0, 53, 64
3, 118656, Note_on_c, 0, 55, 92
3, 118752, Note_off_c, 0, 55, 64
3, 118752, Note_on_c, 0, 59, 92
3, 118848, Note_off_c, 0, 59, 64
3, 118848, Note_on_c, 0, 60, 92
3, 118944, Note_off_c, 0, 60, 64
3, 118944, Note_on_c, 0, 62, 92
3, 119040, Note_off_c, 0, 62, 64
3, 119040, Note_on_c, 0, 64, 92
3, 119136, Note_off_c, 0, 64, 64
3, 119136, Note_on_c, 0, 60, 92
3, 119232, Note_off_c, 0, 60, 64
3, 119232, Note_on_c, 0, 59, 92
3, 119328, Note_off_c, 0, 59, 64
3, 119328, Note_on_c, 0, 57, 92
3, 119424, Note_off_c, 0, 57, 64
3, 119424, Note_on_c, 0, 55, 92
3, 119616, Note_off_c, 0, 55, 64
3, 119616, Note_on_c, 0, 57, 92
3, 119808, Note_off_c, 0, 57, 64
3, 119808, Note_on_c, 0, 57, 92
3, 120000, Note_off_c, 0, 57, 64
3, 120000, Note_on_c, 0, 64, 92
3, 120384, Note_off_c, 0, 64, 64
3, 120384, Note_on_c, 0, 62, 92
3, 120768, Note_off_c, 0, 62, 64
3, 120768, Note_on_c, 0, 60, 92
3, 120960, Note_off_c, 0, 60, 64
3, 120960, Note_on_c, 0, 62, 92
3, 121344, Note_off_c, 0, 62, 64
3, 121344, Note_on_c, 0, 60, 92
3, 121728, Note_off_c, 0, 60, 64
3, 121728, Note_on_c, 0, 59, 92
3, 122112, Note_off_c, 0, 59, 64
3, 122112, Note_on_c, 0, 57, 92
3, 122688, Note_off_c, 0, 57, 64
3, 122688, Note_on_c, 0, 55, 92
3, 123072, Note_off_c, 0, 55, 64
3, 123072, Note_on_c, 0, 54, 92
3, 123456, Note_off_c, 0, 54, 64
3, 123456, Note_on_c, 0, 51, 92
3, 123648, Note_off_c, 0, 51, 64
3, 123648, Note_on_c, 0, 52, 92
3, 124224, Note_off_c, 0, 52, 64
3, 124224, Note_on_c, 0, 51, 92
3, 124416, Note_off_c, 0, 51, 64
3, 124416, Note_on_c, 0, 52, 92
3, 124800, Note_off_c, 0, 52, 64
3, 124800, Note_on_c, 0, 52, 92
3, 124896, Note_off_c, 0, 52, 64
3, 124896, Note_on_c, 0, 54, 92
3, 124992, Note_off_c, 0, 54, 64
3, 124992, Note_on_c, 0, 52, 92
3, 125088, Note_off_c, 0, 52, 64
3, 125088, Note_on_c, 0, 54, 92
3, 125184, Note_off_c, 0, 54, 64
3, 125184, Note_on_c, 0, 55, 92
3, 125568, Note_off_c, 0, 55, 64
3, 125568, Note_on_c, 0, 52, 92
3, 125952, Note_off_c, 0, 52, 64
3, 125952, Note_on_c, 0, 50, 92
3, 126528, Note_off_c, 0, 50, 64
3, 126528, Note_on_c, 0, 55, 92
3, 126816, Note_off_c, 0, 55, 64
3, 126816, Note_on_c, 0, 53, 92
3, 126912, Note_off_c, 0, 53, 64
3, 126912, Note_on_c, 0, 52, 92
3, 127008, Note_off_c, 0, 52, 64
3, 127008, Note_on_c, 0, 53, 92
3, 127104, Note_off_c, 0, 53, 64
3, 127104, Note_on_c, 0, 55, 92
3, 127200, Note_off_c, 0, 55, 64
3, 127200, Note_on_c, 0, 53, 92
3, 127296, Note_off_c, 0, 53, 64
3, 127296, Note_on_c, 0, 52, 92
3, 127392, Note_off_c, 0, 52, 64
3, 127392, Note_on_c, 0, 53, 92
3, 127488, Note_off_c, 0, 53, 64
3, 127488, Note_on_c, 0, 55, 92
3, 127584, Note_off_c, 0, 55, 64
3, 127584, Note_on_c, 0, 57, 92
3, 127680, Note_off_c, 0, 57, 64
3, 127680, Note_on_c, 0, 59, 92
3, 127872, Note_off_c, 0, 59, 64
3, 127872, Note_on_c, 0, 57, 92
3, 127968, Note_off_c, 0, 57, 64
3, 127968, Note_on_c, 0, 59, 92
3, 128064, Note_off_c, 0, 59, 64
3, 128064, Note_on_c, 0, 60, 92
3, 128160, Note_off_c, 0, 60, 64
3, 128160, Note_on_c, 0, 62, 92
3, 128256, Note_off_c, 0, 62, 64
3, 128256, Note_on_c, 0, 59, 92
3, 128352, Note_off_c, 0, 59, 64
3, 128352, Note_on_c, 0, 60, 92
3, 128448, Note_off_c, 0, 60, 64
3, 128448, Note_on_c, 0, 57, 92
3, 128544, Note_off_c, 0, 57, 64
3, 128544, Note_on_c, 0, 59, 92
3, 128640, Note_off_c, 0, 59, 64
3, 128640, Note_on_c, 0, 55, 92
3, 128736, Note_off_c, 0, 55, 64
3, 128736, Note_on_c, 0, 57, 92
3, 128832, Note_off_c, 0, 57, 64
3, 128832, Note_on_c, 0, 59, 92
3, 128928, Note_off_c, 0, 59, 64
3, 128928, Note_on_c, 0, 60, 92
3, 129024, Note_off_c, 0, 60, 64
3, 129024, Note_on_c, 0, 62, 92
3, 129216, Note_off_c, 0, 62, 64
3, 129216, Note_on_c, 0, 60, 92
3, 129408, Note_off_c, 0, 60, 64
3, 129408, Note_on_c, 0, 59, 92
3, 129600, Note_off_c, 0, 59, 64
3, 129600, Note_on_c, 0, 55, 92
3, 129792, Note_off_c, 0, 55, 64
3, 129792, Note_on_c, 0, 60, 92
3, 129888, Note_off_c, 0, 60, 64
3, 129888, Note_on_c, 0, 62, 92
3, 129984, Note_off_c, 0, 62, 64
3, 129984, Note_on_c, 0, 60, 92
3, 130080, Note_off_c, 0, 60, 64
3, 130080, Note_on_c, 0, 59, 92
3, 130176, Note_off_c, 0, 59, 64
3, 130176, Note_on_c, 0, 57, 92
3, 130368, Note_off_c, 0, 57, 64
3, 130368, Note_on_c, 0, 55, 92
3, 130560, Note_on_c, 0, 57, 92
3, 130944, Note_off_c, 0, 55, 64
3, 130944, Note_on_c, 0, 54, 92
3, 131328, Note_off_c, 0, 54, 64
3, 131328, Note_off_c, 0, 57, 64
3, 131328, Note_on_c, 0, 55, 92
3, 131424, Note_off_c, 0, 55, 64
3, 131424, Note_on_c, 0, 55, 92
3, 131520, Note_off_c, 0, 55, 64
3, 131520, Note_on_c, 0, 43, 92
3, 131616, Note_off_c, 0, 43, 64
3, 131616, Note_on_c, 0, 55, 92
3, 131712, Note_off_c, 0, 55, 64
3, 131712, Note_on_c, 0, 55, 92
3, 131808, Note_off_c, 0, 55, 64
3, 131808, Note_on_c, 0, 57, 92
3, 131904, Note_off_c, 0, 57, 64
3, 131904, Note_on_c, 0, 55, 92
3, 132000, Note_off_c, 0, 55, 64
3, 132000, Note_on_c, 0, 57, 92
3, 132096, Note_off_c, 0, 57, 64
3, 132096, Note_on_c, 0, 54, 92
3, 132192, Note_off_c, 0, 54, 64
3, 132192, Note_on_c, 0, 54, 92
3, 132288, Note_off_c, 0, 54, 64
3, 132288, Note_on_c, 0, 42, 92
3, 132384, Note_off_c, 0, 42, 64
3, 132384, Note_on_c, 0, 54, 92
3, 132480, Note_off_c, 0, 54, 64
3, 132480, Note_on_c, 0, 54, 92
3, 132576, Note_off_c, 0, 54, 64
3, 132576, Note_on_c, 0, 55, 92
3, 132672, Note_off_c, 0, 55, 64
3, 132672, Note_on_c, 0, 54, 92
3, 132768, Note_off_c, 0, 54, 64
3, 132768, Note_on_c, 0, 55, 92
3, 132864, Note_off_c, 0, 55, 64
3, 132864, Note_on_c, 0, 52, 92
3, 132960, Note_off_c, 0, 52, 64
3, 132960, Note_on_c, 0, 54, 92
3, 133056, Note_off_c, 0, 54, 64
3, 133056, Note_on_c, 0, 52, 92
3, 133152, Note_off_c, 0, 52, 64
3, 133152, Note_on_c, 0, 54, 92
3, 133248, Note_off_c, 0, 54, 64
3, 133248, Note_on_c, 0, 55, 92
3, 133344, Note_off_c, 0, 55, 64
3, 133344, Note_on_c, 0, 54, 92
3, 133440, Note_off_c, 0, 54, 64
3, 133440, Note_on_c, 0, 55, 92
3, 133536, Note_off_c, 0, 55, 64
3, 133536, Note_on_c, 0, 52, 92
3, 133632, Note_off_c, 0, 52, 64
3, 133632, Note_on_c, 0, 50, 92
3, 133728, Note_off_c, 0, 50, 64
3, 133728, Note_on_c, 0, 62, 92
3, 133824, Note_off_c, 0, 62, 64
3, 133824, Note_on_c, 0, 50, 92
3, 133920, Note_off_c, 0, 50, 64
3, 133920, Note_on_c, 0, 62, 92
3, 134016, Note_off_c, 0, 62, 64
3, 134016, Note_on_c, 0, 64, 92
3, 134112, Note_off_c, 0, 64, 64
3, 134112, Note_on_c, 0, 52, 92
3, 134208, Note_off_c, 0, 52, 64
3, 134208, Note_on_c, 0, 66, 92
3, 134304, Note_off_c, 0, 66, 64
3, 134304, Note_on_c, 0, 54, 92
3, 134400, Note_off_c, 0, 54, 64
3, 134400, Note_on_c, 0, 67, 92
3, 134880, Note_off_c, 0, 67, 64
3, 134880, Note_on_c, 0, 55, 92
3, 134976, Note_off_c, 0, 55, 64
3, 134976, Note_on_c, 0, 57, 92
3, 135072, Note_off_c, 0, 57, 64
3, 135072, Note_on_c, 0, 59, 92
3, 135168, Note_off_c, 0, 59, 64
3, 135168, Note_on_c, 0, 60, 92
3, 135744, Note_off_c, 0, 60, 64
3, 135744, Note_on_c, 0, 59, 92
3, 135936, Note_off_c, 0, 59, 64
3, 135936, Note_on_c, 0, 57, 92
3, 136512, Note_off_c, 0, 57, 64
3, 136512, Note_on_c, 0, 55, 92
3, 136704, Note_off_c, 0, 55, 64
3, 136704, Note_on_c, 0, 54, 92
3, 137088, Note_off_c, 0, 54, 64
3, 137088, Note_on_c, 0, 55, 92
3, 137184, Note_off_c, 0, 55, 64
3, 137184, Note_on_c, 0, 57, 92
3, 137280, Note_off_c, 0, 57, 64
3, 137280, Note_on_c, 0, 59, 92
3, 137376, Note_off_c, 0, 59, 64
3, 137376, Note_on_c, 0, 60, 92
3, 137472, Note_off_c, 0, 60, 64
3, 137472, Note_on_c, 0, 62, 92
3, 137568, Note_off_c, 0, 62, 64
3, 137568, Note_on_c, 0, 62, 92
3, 137664, Note_off_c, 0, 62, 64
3, 137664, Note_on_c, 0, 50, 92
3, 137760, Note_off_c, 0, 50, 64
3, 137760, Note_on_c, 0, 62, 92
3, 137856, Note_off_c, 0, 62, 64
3, 137856, Note_on_c, 0, 62, 92
3, 137952, Note_off_c, 0, 62, 64
3, 137952, Note_on_c, 0, 64, 92
3, 138048, Note_off_c, 0, 64, 64
3, 138048, Note_on_c, 0, 62, 92
3, 138144, Note_off_c, 0, 62, 64
3, 138144, Note_on_c, 0, 64, 92
3, 138240, Note_off_c, 0, 64, 64
3, 138240, Note_on_c, 0, 60, 92
3, 138336, Note_off_c, 0, 60, 64
3, 138336, Note_on_c, 0, 60, 92
3, 138432, Note_off_c, 0, 60, 64
3, 138432, Note_on_c, 0, 48, 92
3, 138528, Note_off_c, 0, 48, 64
3, 138528, Note_on_c, 0, 60, 92
3, 138624, Note_off_c, 0, 60, 64
3, 138624, Note_on_c, 0, 60, 92
3, 138720, Note_off_c, 0, 60, 64
3, 138720, Note_on_c, 0, 62, 92
3, 138816, Note_off_c, 0, 62, 64
3, 138816, Note_on_c, 0, 60, 92
3, 138912, Note_off_c, 0, 60, 64
3, 138912, Note_on_c, 0, 62, 92
3, 139008, Note_off_c, 0, 62, 64
3, 139008, Note_on_c, 0, 59, 92
3, 139104, Note_off_c, 0, 59, 64
3, 139104, Note_on_c, 0, 50, 92
3, 139200, Note_off_c, 0, 50, 64
3, 139200, Note_on_c, 0, 55, 92
3, 139296, Note_off_c, 0, 55, 64
3, 139296, Note_on_c, 0, 57, 92
3, 139392, Note_off_c, 0, 57, 64
3, 139392, Note_on_c, 0, 59, 92
3, 139488, Note_off_c, 0, 59, 64
3, 139488, Note_on_c, 0, 50, 92
3, 139584, Note_off_c, 0, 50, 64
3, 139584, Note_on_c, 0, 55, 92
3, 139680, Note_off_c, 0, 55, 64
3, 139680, Note_on_c, 0, 57, 92
3, 139776, Note_off_c, 0, 57, 64
3, 139776, Note_on_c, 0, 59, 92
3, 139872, Note_off_c, 0, 59, 64
3, 139872, Note_on_c, 0, 60, 92
3, 139968, Note_off_c, 0, 60, 64
3, 139968, Note_on_c, 0, 57, 92
3, 140064, Note_off_c, 0, 57, 64
3, 140064, Note_on_c, 0, 59, 92
3, 140160, Note_off_c, 0, 59, 64
3, 140160, Note_on_c, 0, 55, 92
3, 140256, Note_off_c, 0, 55, 64
3, 140256, Note_on_c, 0, 57, 92
3, 140352, Note_off_c, 0, 57, 64
3, 140352, Note_on_c, 0, 59, 92
3, 140448, Note_off_c, 0, 59, 64
3, 140448, Note_on_c, 0, 60, 92
3, 140544, Note_off_c, 0, 60, 64
3, 140544, Note_on_c, 0, 62, 92
3, 141408, Note_off_c, 0, 62, 64
3, 141408, Note_on_c, 0, 62, 92
3, 141504, Note_off_c, 0, 62, 64
3, 141504, Note_on_c, 0, 64, 92
3, 141600, Note_off_c, 0, 64, 64
3, 141600, Note_on_c, 0, 62, 92
3, 141696, Note_off_c, 0, 62, 64
3, 141696, Note_on_c, 0, 61, 92
3, 141792, Note_off_c, 0, 61, 64
3, 141792, Note_on_c, 0, 62, 92
3, 141888, Note_off_c, 0, 62, 64
3, 141888, Note_on_c, 0, 59, 92
3, 141984, Note_off_c, 0, 59, 64
3, 141984, Note_on_c, 0, 61, 92
3, 142080, Note_off_c, 0, 61, 64
3, 142080, Note_on_c, 0, 62, 92
3, 142848, Note_off_c, 0, 62, 64
3, 142848, Note_on_c, 0, 55, 92
3, 144384, Note_off_c, 0, 55, 64
3, 144384, Note_on_c, 0, 57, 92
3, 144960, Note_off_c, 0, 57, 64
3, 144960, Note_on_c, 0, 59, 92
3, 145152, Note_off_c, 0, 59, 64
3, 145152, Note_on_c, 0, 60, 92
3, 146688, Note_off_c, 0, 60, 64
3, 148992, Note_on_c, 0, 60, 92
3, 149184, Note_off_c, 0, 60, 64
3, 149184, Note_on_c, 0, 62, 92
3, 149376, Note_off_c, 0, 62, 64
3, 149376, Note_on_c, 0, 64, 92
3, 149568, Note_off_c, 0, 64, 64
3, 149568, Note_on_c, 0, 60, 92
3, 149952, Note_off_c, 0, 60, 64
3, 149952, Note_on_c, 0, 60, 92
3, 150144, Note_off_c, 0, 60, 64
3, 150144, Note_on_c, 0, 59, 92
3, 150336, Note_on_c, 0, 67, 92
3, 150528, Note_off_c, 0, 59, 64
3, 150528, Note_on_c, 0, 57, 92
3, 150912, Note_off_c, 0, 57, 64
3, 150912, Note_off_c, 0, 67, 64
3, 151104, Note_on_c, 0, 66, 92
3, 151104, Note_on_c, 0, 62, 92
3, 151296, Note_off_c, 0, 62, 64
3, 151296, Note_off_c, 0, 66, 64
3, 151296, Note_on_c, 0, 55, 92
3, 151680, Note_off_c, 0, 55, 64
3, 151872, Note_on_c, 0, 55, 92
3, 152064, Note_off_c, 0, 55, 64
3, 152064, Note_on_c, 0, 57, 92
3, 152448, Note_off_c, 0, 57, 64
3, 152640, Note_on_c, 0, 57, 92
3, 152832, Note_off_c, 0, 57, 64
3, 152832, Note_on_c, 0, 59, 92
3, 153216, Note_off_c, 0, 59, 64
3, 153408, Note_on_c, 0, 59, 92
3, 153600, Note_off_c, 0, 59, 64
3, 153600, Note_on_c, 0, 60, 92
3, 153984, Note_off_c, 0, 60, 64
3, 154176, Note_on_c, 0, 60, 92
3, 154752, Note_off_c, 0, 60, 64
3, 154752, Note_on_c, 0, 59, 92
3, 155136, Note_off_c, 0, 59, 64
3, 155136, Note_on_c, 0, 57, 92
3, 155328, Note_off_c, 0, 57, 64
3, 155328, Note_on_c, 0, 59, 92
3, 155520, Note_off_c, 0, 59, 64
3, 155520, Note_on_c, 0, 60, 92
3, 155712, Note_off_c, 0, 60, 64
3, 155712, Note_on_c, 0, 62, 92
3, 155904, Note_off_c, 0, 62, 64
3, 155904, Note_on_c, 0, 55, 92
3, 156288, Note_off_c, 0, 55, 64
3, 156288, Note_on_c, 0, 57, 92
3, 156672, Note_off_c, 0, 57, 64
3, 156672, Note_on_c, 0, 54, 92
3, 157056, Note_off_c, 0, 54, 64
3, 157056, Note_on_c, 0, 55, 92
3, 157440, Note_off_c, 0, 55, 64
3, 157440, Note_on_c, 0, 57, 92
3, 157824, Note_off_c, 0, 57, 64
3, 158016, Note_on_c, 0, 55, 92
3, 158208, Note_off_c, 0, 55, 64
3, 158208, Note_on_c, 0, 53, 92
3, 158592, Note_off_c, 0, 53, 64
3, 158784, Note_on_c, 0, 59, 92
3, 158784, Note_on_c, 0, 53, 92
3, 158976, Note_off_c, 0, 53, 64
3, 158976, Note_off_c, 0, 59, 64
3, 158976, Note_on_c, 0, 55, 92
3, 158976, Note_on_c, 0, 52, 92
3, 159360, Note_off_c, 0, 52, 64
3, 159360, Note_off_c, 0, 55, 64
3, 159552, Note_on_c, 0, 57, 92
3, 159552, Note_on_c, 0, 52, 92
3, 159744, Note_off_c, 0, 52, 64
3, 159744, Note_off_c, 0, 57, 64
3, 159744, Note_on_c, 0, 59, 92
3, 159744, Note_on_c, 0, 53, 92
3, 159744, Note_on_c, 0, 50, 92
3, 160128, Note_off_c, 0, 50, 64
3, 160128, Note_off_c, 0, 53, 64
3, 160128, Note_off_c, 0, 59, 64
3, 160320, Note_on_c, 0, 59, 92
3, 160320, Note_on_c, 0, 55, 92
3, 160320, Note_on_c, 0, 50, 92
3, 160512, Note_off_c, 0, 50, 64
3, 160512, Note_off_c, 0, 55, 64
3, 160512, Note_off_c, 0, 59, 64
3, 160512, Note_on_c, 0, 57, 92
3, 160512, Note_on_c, 0, 52, 92
3, 160512, Note_on_c, 0, 48, 92
3, 160896, Note_off_c, 0, 48, 64
3, 160896, Note_off_c, 0, 52, 64
3, 160896, Note_off_c, 0, 57, 64
3, 161088, Note_on_c, 0, 57, 92
3, 161088, Note_on_c, 0, 53, 92
3, 161088, Note_on_c, 0, 50, 92
3, 161280, Note_off_c, 0, 50, 64
3, 161280, Note_off_c, 0, 53, 64
3, 161280, Note_off_c, 0, 57, 64
3, 161280, Note_on_c, 0, 55, 92
3, 161280, Note_on_c, 0, 43, 92
3, 161664, Note_off_c, 0, 43, 64
3, 161664, Note_off_c, 0, 55, 64
3, 161952, Note_on_c, 0, 59, 92
3, 162048, Note_off_c, 0, 59, 64
3, 162048, Note_on_c, 0, 57, 92
3, 162816, Note_off_c, 0, 57, 64
3, 162816, Note_on_c, 0, 55, 92
3, 163680, Note_off_c, 0, 55, 64
3, 163680, Note_on_c, 0, 55, 92
3, 163776, Note_off_c, 0, 55, 64
3, 163776, Note_on_c, 0, 57, 92
3, 163872, Note_off_c, 0, 57, 64
3, 163872, Note_on_c, 0, 52, 92
3, 163968, Note_off_c, 0, 52, 64
3, 163968, Note_on_c, 0, 53, 92
3, 163968, Note_on_c, 0, 57, 92
3, 164160, Note_off_c, 0, 57, 64
3, 164160, Note_on_c, 0, 59, 92
3, 164256, Note_off_c, 0, 53, 64
3, 164256, Note_on_c, 0, 55, 92
3, 164352, Note_off_c, 0, 55, 64
3, 164352, Note_off_c, 0, 59, 64
3, 164352, Note_on_c, 0, 55, 92
3, 164352, Note_on_c, 0, 52, 92
3, 165888, Note_off_c, 0, 52, 64
3, 165888, Note_off_c, 0, 55, 64
3, 165888, Note_on_c, 0, 59, 92
3, 165888, Note_on_c, 0, 50, 92
3, 166656, Note_off_c, 0, 50, 64
3, 166656, Note_off_c, 0, 59, 64
3, 166656, Note_on_c, 0, 60, 92
3, 166656, Note_on_c, 0, 52, 92
3, 167424, Note_off_c, 0, 52, 64
3, 167424, Note_off_c, 0, 60, 64
3, 168576, Note_on_c, 0, 57, 92
3, 168624, Note_off_c, 0, 57, 64
3, 168624, Note_on_c, 0, 59, 92
3, 168672, Note_off_c, 0, 59, 64
3, 168672, Note_on_c, 0, 60, 92
3, 168720, Note_off_c, 0, 60, 64
3, 168720, Note_on_c, 0, 62, 92
3, 168768, Note_off_c, 0, 62, 64
3, 168768, Note_on_c, 0, 60, 92
3, 168816, Note_off_c, 0, 60, 64
3, 168816, Note_on_c, 0, 59, 92
3, 168864, Note_off_c, 0, 59, 64
3, 168864, Note_on_c, 0, 57, 92
3, 168912, Note_off_c, 0, 57, 64
3, 168912, Note_on_c, 0, 55, 92
3, 168960, Note_off_c, 0, 55, 64
3, 168960, Note_on_c, 0, 57, 92
3, 168960, Note_on_c, 0, 54, 92
3, 169728, Note_off_c, 0, 54, 64
3, 169728, Note_off_c, 0, 57, 64
3, 172512, Note_on_c, 0, 60, 92
3, 172608, Note_off_c, 0, 60, 64
3, 172608, Note_on_c, 0, 63, 92
3, 172704, Note_off_c, 0, 63, 64
3, 172704, Note_on_c, 0, 55, 92
3, 172800, Note_off_c, 0, 55, 64
3, 172800, Note_on_c, 0, 60, 92
3, 172896, Note_off_c, 0, 60, 64
3, 172896, Note_on_c, 0, 51, 92
3, 172992, Note_off_c, 0, 51, 64
3, 172992, Note_on_c, 0, 55, 92
3, 173088, Note_off_c, 0, 55, 64
3, 173088, Note_on_c, 0, 48, 92
3, 173184, Note_off_c, 0, 48, 64
3, 173184, Note_on_c, 0, 51, 92
3, 173280, Note_off_c, 0, 51, 64
3, 173280, Note_on_c, 0, 45, 92
3, 173376, Note_off_c, 0, 45, 64
3, 173376, Note_on_c, 0, 48, 92
3, 173472, Note_off_c, 0, 48, 64
3, 173472, Note_on_c, 0, 42, 92
3, 173568, Note_off_c, 0, 42, 64
3, 173568, Note_on_c, 0, 43, 92
3, 174336, Note_off_c, 0, 43, 64
3, 174720, Note_on_c, 0, 55, 92
3, 174912, Note_on_c, 0, 65, 92
3, 175104, Note_off_c, 0, 65, 64
3, 175104, Note_off_c, 0, 55, 64
3, 175104, Note_on_c, 0, 60, 92
3, 175104, Note_on_c, 0, 55, 92
3, 175104, Note_on_c, 0, 52, 92
3, 175296, Note_off_c, 0, 52, 64
3, 175296, Note_off_c, 0, 55, 64
3, 175296, Note_off_c, 0, 60, 64
3, 175872, Note_on_c, 0, 48, 92
3, 175872, Note_on_c, 0, 55, 92
3, 175872, Note_on_c, 0, 52, 92
3, 176640, Note_off_c, 0, 52, 64
3, 176640, Note_off_c, 0, 55, 64
3, 176640, Note_off_c, 0, 48, 64
3, 176640, End_track
4, 0, Start_track
4, 0, Title_t, "Track 3"
4, 0, Program_c, 0, 19
4, 96, Note_on_c, 0, 43, 102
4, 192, Note_off_c, 0, 43, 64
4, 192, Note_on_c, 0, 48, 102
4, 288, Note_off_c, 0, 48, 64
4, 288, Note_on_c, 0, 43, 102
4, 384, Note_off_c, 0, 43, 64
4, 384, Note_on_c, 0, 48, 102
4, 480, Note_off_c, 0, 48, 64
4, 480, Note_on_c, 0, 43, 102
4, 576, Note_off_c, 0, 43, 64
4, 576, Note_on_c, 0, 48, 102
4, 672, Note_off_c, 0, 48, 64
4, 672, Note_on_c, 0, 43, 102
4, 768, Note_off_c, 0, 43, 64
4, 768, Note_on_c, 0, 48, 102
4, 960, Note_off_c, 0, 48, 64
4, 960, Note_on_c, 0, 48, 102
4, 1056, Note_off_c, 0, 48, 64
4, 1056, Note_on_c, 0, 43, 102
4, 1152, Note_off_c, 0, 43, 64
4, 1152, Note_on_c, 0, 52, 102
4, 1248, Note_off_c, 0, 52, 64
4, 1248, Note_on_c, 0, 48, 102
4, 1344, Note_off_c, 0, 48, 64
4, 1344, Note_on_c, 0, 52, 102
4, 1440, Note_off_c, 0, 52, 64
4, 1440, Note_on_c, 0, 48, 102
4, 1536, Note_off_c, 0, 48, 64
4, 1536, Note_on_c, 0, 52, 102
4, 1728, Note_off_c, 0, 52, 64
4, 1728, Note_on_c, 0, 52, 102
4, 1824, Note_off_c, 0, 52, 64
4, 1824, Note_on_c, 0, 48, 102
4, 1920, Note_off_c, 0, 48, 64
4, 1920, Note_on_c, 0, 55, 102
4, 2016, Note_off_c, 0, 55, 64
4, 2016, Note_on_c, 0, 52, 102
4, 2112, Note_off_c, 0, 52, 64
4, 2112, Note_on_c, 0, 55, 102
4, 2208, Note_off_c, 0, 55, 64
4, 2208, Note_on_c, 0, 52, 102
4, 2304, Note_off_c, 0, 52, 64
4, 2304, Note_on_c, 0, 55, 102
4, 2496, Note_off_c, 0, 55, 64
4, 2496, Note_on_c, 0, 52, 102
4, 2592, Note_off_c, 0, 52, 64
4, 2592, Note_on_c, 0, 55, 102
4, 2688, Note_off_c, 0, 55, 64
4, 2688, Note_on_c, 0, 48, 102
4, 2784, Note_off_c, 0, 48, 64
4, 2784, Note_on_c, 0, 60, 102
4, 2880, Note_off_c, 0, 60, 64
4, 2880, Note_on_c, 0, 55, 102
4, 2976, Note_off_c, 0, 55, 64
4, 2976, Note_on_c, 0, 60, 102
4, 3072, Note_off_c, 0, 60, 64
4, 3072, Note_on_c, 0, 48, 102
4, 3168, Note_off_c, 0, 48, 64
4, 3168, Note_on_c, 0, 60, 102
4, 3264, Note_off_c, 0, 60, 64
4, 3264, Note_on_c, 0, 55, 102
4, 3360, Note_off_c, 0, 55, 64
4, 3360, Note_on_c, 0, 60, 102
4, 3456, Note_off_c, 0, 60, 64
4, 3456, Note_on_c, 0, 52, 102
4, 3552, Note_off_c, 0, 52, 64
4, 3552, Note_on_c, 0, 55, 102
4, 3648, Note_off_c, 0, 55, 64
4, 3648, Note_on_c, 0, 52, 102
4, 3744, Note_off_c, 0, 52, 64
4, 3744, Note_on_c, 0, 55, 102
4, 3840, Note_off_c, 0, 55, 64
4, 3840, Note_on_c, 0, 48, 102
4, 3936, Note_off_c, 0, 48, 64
4, 3936, Note_on_c, 0, 60, 102
4, 4032, Note_off_c, 0, 60, 64
4, 4032, Note_on_c, 0, 55, 102
4, 4128, Note_off_c, 0, 55, 64
4, 4128, Note_on_c, 0, 60, 102
4, 4224, Note_off_c, 0, 60, 64
4, 4224, Note_on_c, 0, 52, 102
4, 4320, Note_off_c, 0, 52, 64
4, 4320, Note_on_c, 0, 60, 102
4, 4416, Note_off_c, 0, 60, 64
4, 4416, Note_on_c, 0, 55, 102
4, 4512, Note_off_c, 0, 55, 64
4, 4512, Note_on_c, 0, 60, 102
4, 4608, Note_off_c, 0, 60, 64
4, 4608, Note_on_c, 0, 57, 102
4, 4704, Note_off_c, 0, 57, 64
4, 4704, Note_on_c, 0, 60, 102
4, 4800, Note_off_c, 0, 60, 64
4, 4800, Note_on_c, 0, 53, 102
4, 4896, Note_off_c, 0, 53, 64
4, 4896, Note_on_c, 0, 60, 102
4, 4992, Note_off_c, 0, 60, 64
4, 4992, Note_on_c, 0, 55, 102
4, 5088, Note_off_c, 0, 55, 64
4, 5088, Note_on_c, 0, 60, 102
4, 5184, Note_off_c, 0, 60, 64
4, 5184, Note_on_c, 0, 52, 102
4, 5280, Note_off_c, 0, 52, 64
4, 5280, Note_on_c, 0, 60, 102
4, 5376, Note_off_c, 0, 60, 64
4, 5376, Note_on_c, 0, 57, 102
4, 5472, Note_off_c, 0, 57, 64
4, 5472, Note_on_c, 0, 60, 102
4, 5568, Note_off_c, 0, 60, 64
4, 5568, Note_on_c, 0, 53, 102
4, 5664, Note_off_c, 0, 53, 64
4, 5664, Note_on_c, 0, 60, 102
4, 5760, Note_off_c, 0, 60, 64
4, 5760, Note_on_c, 0, 55, 102
4, 5856, Note_off_c, 0, 55, 64
4, 5856, Note_on_c, 0, 60, 102
4, 5952, Note_off_c, 0, 60, 64
4, 5952, Note_on_c, 0, 52, 102
4, 6048, Note_off_c, 0, 52, 64
4, 6048, Note_on_c, 0, 55, 102
4, 6144, Note_off_c, 0, 55, 64
4, 6144, Note_on_c, 0, 53, 102
4, 6240, Note_off_c, 0, 53, 64
4, 6240, Note_on_c, 0, 57, 102
4, 6336, Note_off_c, 0, 57, 64
4, 6336, Note_on_c, 0, 48, 102
4, 6432, Note_off_c, 0, 48, 64
4, 6432, Note_on_c, 0, 57, 102
4, 6528, Note_off_c, 0, 57, 64
4, 6528, Note_on_c, 0, 52, 102
4, 6624, Note_off_c, 0, 52, 64
4, 6624, Note_on_c, 0, 55, 102
4, 6720, Note_off_c, 0, 55, 64
4, 6720, Note_on_c, 0, 48, 102
4, 6816, Note_off_c, 0, 48, 64
4, 6816, Note_on_c, 0, 55, 102
4, 6912, Note_off_c, 0, 55, 64
4, 6912, Note_on_c, 0, 53, 102
4, 7008, Note_off_c, 0, 53, 64
4, 7008, Note_on_c, 0, 57, 102
4, 7104, Note_off_c, 0, 57, 64
4, 7104, Note_on_c, 0, 48, 102
4, 7200, Note_off_c, 0, 48, 64
4, 7200, Note_on_c, 0, 57, 102
4, 7296, Note_off_c, 0, 57, 64
4, 7296, Note_on_c, 0, 52, 102
4, 7392, Note_off_c, 0, 52, 64
4, 7392, Note_on_c, 0, 55, 102
4, 7488, Note_off_c, 0, 55, 64
4, 7488, Note_on_c, 0, 48, 102
4, 7584, Note_off_c, 0, 48, 64
4, 7584, Note_on_c, 0, 55, 102
4, 7680, Note_off_c, 0, 55, 64
4, 7680, Note_on_c, 0, 52, 102
4, 7776, Note_off_c, 0, 52, 64
4, 7776, Note_on_c, 0, 55, 102
4, 7872, Note_off_c, 0, 55, 64
4, 7872, Note_on_c, 0, 48, 102
4, 7968, Note_off_c, 0, 48, 64
4, 7968, Note_on_c, 0, 52, 102
4, 8064, Note_off_c, 0, 52, 64
4, 8064, Note_on_c, 0, 50, 102
4, 8160, Note_off_c, 0, 50, 64
4, 8160, Note_on_c, 0, 55, 102
4, 8256, Note_off_c, 0, 55, 64
4, 8256, Note_on_c, 0, 43, 102
4, 8352, Note_off_c, 0, 43, 64
4, 8352, Note_on_c, 0, 53, 102
4, 8448, Note_off_c, 0, 53, 64
4, 8448, Note_on_c, 0, 52, 102
4, 8544, Note_off_c, 0, 52, 64
4, 8544, Note_on_c, 0, 55, 102
4, 8640, Note_off_c, 0, 55, 64
4, 8640, Note_on_c, 0, 48, 102
4, 8736, Note_off_c, 0, 48, 64
4, 8736, Note_on_c, 0, 52, 102
4, 8832, Note_off_c, 0, 52, 64
4, 8832, Note_on_c, 0, 50, 102
4, 8928, Note_off_c, 0, 50, 64
4, 8928, Note_on_c, 0, 55, 102
4, 9024, Note_off_c, 0, 55, 64
4, 9024, Note_on_c, 0, 43, 102
4, 9120, Note_off_c, 0, 43, 64
4, 9120, Note_on_c, 0, 53, 102
4, 9216, Note_off_c, 0, 53, 64
4, 9216, Note_on_c, 0, 52, 102
4, 9312, Note_off_c, 0, 52, 64
4, 9312, Note_on_c, 0, 60, 102
4, 9408, Note_off_c, 0, 60, 64
4, 9408, Note_on_c, 0, 55, 102
4, 9504, Note_off_c, 0, 55, 64
4, 9504, Note_on_c, 0, 58, 102
4, 9600, Note_off_c, 0, 58, 64
4, 9600, Note_on_c, 0, 57, 102
4, 9696, Note_off_c, 0, 57, 64
4, 9696, Note_on_c, 0, 60, 102
4, 9792, Note_off_c, 0, 60, 64
4, 9792, Note_on_c, 0, 53, 102
4, 9888, Note_off_c, 0, 53, 64
4, 9888, Note_on_c, 0, 57, 102
4, 9984, Note_off_c, 0, 57, 64
4, 9984, Note_on_c, 0, 55, 102
4, 10080, Note_off_c, 0, 55, 64
4, 10080, Note_on_c, 0, 57, 102
4, 10176, Note_off_c, 0, 57, 64
4, 10176, Note_on_c, 0, 52, 102
4, 10272, Note_off_c, 0, 52, 64
4, 10272, Note_on_c, 0, 55, 102
4, 10368, Note_off_c, 0, 55, 64
4, 10368, Note_on_c, 0, 53, 102
4, 10464, Note_off_c, 0, 53, 64
4, 10464, Note_on_c, 0, 57, 102
4, 10560, Note_off_c, 0, 57, 64
4, 10560, Note_on_c, 0, 50, 102
4, 10656, Note_off_c, 0, 50, 64
4, 10656, Note_on_c, 0, 53, 102
4, 10752, Note_off_c, 0, 53, 64
4, 10752, Note_on_c, 0, 52, 102
4, 10848, Note_off_c, 0, 52, 64
4, 10848, Note_on_c, 0, 55, 102
4, 10944, Note_off_c, 0, 55, 64
4, 10944, Note_on_c, 0, 48, 102
4, 11040, Note_off_c, 0, 48, 64
4, 11040, Note_on_c, 0, 52, 102
4, 11136, Note_off_c, 0, 52, 64
4, 11136, Note_on_c, 0, 45, 102
4, 11232, Note_off_c, 0, 45, 64
4, 11232, Note_on_c, 0, 53, 102
4, 11328, Note_off_c, 0, 53, 64
4, 11328, Note_on_c, 0, 41, 102
4, 11424, Note_off_c, 0, 41, 64
4, 11424, Note_on_c, 0, 50, 102
4, 11520, Note_off_c, 0, 50, 64
4, 11520, Note_on_c, 0, 47, 102
4, 11616, Note_off_c, 0, 47, 64
4, 11616, Note_on_c, 0, 55, 102
4, 11712, Note_off_c, 0, 55, 64
4, 11712, Note_on_c, 0, 52, 102
4, 11808, Note_off_c, 0, 52, 64
4, 11808, Note_on_c, 0, 60, 102
4, 11904, Note_off_c, 0, 60, 64
4, 11904, Note_on_c, 0, 57, 102
4, 12000, Note_off_c, 0, 57, 64
4, 12000, Note_on_c, 0, 53, 102
4, 12096, Note_off_c, 0, 53, 64
4, 12096, Note_on_c, 0, 55, 102
4, 12192, Note_off_c, 0, 55, 64
4, 12192, Note_on_c, 0, 50, 102
4, 12288, Note_off_c, 0, 50, 64
4, 12288, Note_on_c, 0, 52, 102
4, 12384, Note_off_c, 0, 52, 64
4, 12384, Note_on_c, 0, 48, 102
4, 12480, Note_off_c, 0, 48, 64
4, 12480, Note_on_c, 0, 55, 102
4, 12576, Note_off_c, 0, 55, 64
4, 12576, Note_on_c, 0, 50, 102
4, 12672, Note_off_c, 0, 50, 64
4, 12672, Note_on_c, 0, 52, 102
4, 12768, Note_off_c, 0, 52, 64
4, 12768, Note_on_c, 0, 48, 102
4, 12864, Note_off_c, 0, 48, 64
4, 12864, Note_on_c, 0, 53, 102
4, 12960, Note_off_c, 0, 53, 64
4, 12960, Note_on_c, 0, 45, 102
4, 13056, Note_off_c, 0, 45, 64
4, 13056, Note_on_c, 0, 47, 102
4, 13152, Note_off_c, 0, 47, 64
4, 13152, Note_on_c, 0, 45, 102
4, 13248, Note_off_c, 0, 45, 64
4, 13248, Note_on_c, 0, 47, 102
4, 13344, Note_off_c, 0, 47, 64
4, 13344, Note_on_c, 0, 45, 102
4, 13440, Note_off_c, 0, 45, 64
4, 13440, Note_on_c, 0, 47, 102
4, 13488, Note_off_c, 0, 47, 64
4, 13488, Note_on_c, 0, 45, 102
4, 13536, Note_off_c, 0, 45, 64
4, 13536, Note_on_c, 0, 47, 102
4, 13584, Note_off_c, 0, 47, 64
4, 13584, Note_on_c, 0, 45, 102
4, 13632, Note_off_c, 0, 45, 64
4, 13632, Note_on_c, 0, 47, 102
4, 13680, Note_off_c, 0, 47, 64
4, 13680, Note_on_c, 0, 45, 102
4, 13728, Note_off_c, 0, 45, 64
4, 13728, Note_on_c, 0, 47, 102
4, 13776, Note_off_c, 0, 47, 64
4, 13776, Note_on_c, 0, 43, 102
4, 13824, Note_off_c, 0, 43, 64
4, 13824, Note_on_c, 0, 48, 102
4, 14016, Note_off_c, 0, 48, 64
4, 14016, Note_on_c, 0, 36, 102
4, 14208, Note_off_c, 0, 36, 64
4, 24768, Note_on_c, 0, 60, 102
4, 24960, Note_off_c, 0, 60, 64
4, 24960, Note_on_c, 0, 59, 102
4, 25152, Note_off_c, 0, 59, 64
4, 25152, Note_on_c, 0, 57, 102
4, 25344, Note_off_c, 0, 57, 64
4, 25344, Note_on_c, 0, 55, 102
4, 25536, Note_off_c, 0, 55, 64
4, 25536, Note_on_c, 0, 53, 102
4, 25728, Note_off_c, 0, 53, 64
4, 25728, Note_on_c, 0, 52, 102
4, 25920, Note_off_c, 0, 52, 64
4, 25920, Note_on_c, 0, 50, 102
4, 26112, Note_off_c, 0, 50, 64
4, 26112, Note_on_c, 0, 48, 102
4, 26496, Note_off_c, 0, 48, 64
4, 26688, Note_on_c, 0, 48, 102
4, 26880, Note_off_c, 0, 48, 64
4, 26880, Note_on_c, 0, 48, 102
4, 27072, Note_off_c, 0, 48, 64
4, 27072, Note_on_c, 0, 46, 102
4, 27264, Note_off_c, 0, 46, 64
4, 27264, Note_on_c, 0, 45, 102
4, 27456, Note_off_c, 0, 45, 64
4, 27456, Note_on_c, 0, 43, 102
4, 27648, Note_off_c, 0, 43, 64
4, 27648, Note_on_c, 0, 41, 102
4, 27840, Note_off_c, 0, 41, 64
4, 28416, Note_on_c, 0, 41, 102
4, 28608, Note_off_c, 0, 41, 64
4, 29184, Note_on_c, 0, 41, 102
4, 29376, Note_off_c, 0, 41, 64
4, 30816, Note_on_c, 0, 41, 102
4, 30912, Note_off_c, 0, 41, 64
4, 30912, Note_on_c, 0, 48, 102
4, 31008, Note_off_c, 0, 48, 64
4, 31008, Note_on_c, 0, 41, 102
4, 31104, Note_off_c, 0, 41, 64
4, 31104, Note_on_c, 0, 48, 102
4, 31200, Note_off_c, 0, 48, 64
4, 31200, Note_on_c, 0, 45, 102
4, 31296, Note_off_c, 0, 45, 64
4, 31296, Note_on_c, 0, 48, 102
4, 31392, Note_off_c, 0, 48, 64
4, 31392, Note_on_c, 0, 45, 102
4, 31488, Note_off_c, 0, 45, 64
4, 31488, Note_on_c, 0, 48, 102
4, 31584, Note_off_c, 0, 48, 64
4, 31584, Note_on_c, 0, 41, 102
4, 31680, Note_off_c, 0, 41, 64
4, 31680, Note_on_c, 0, 53, 102
4, 31776, Note_off_c, 0, 53, 64
4, 31776, Note_on_c, 0, 48, 102
4, 31872, Note_off_c, 0, 48, 64
4, 31872, Note_on_c, 0, 53, 102
4, 31968, Note_off_c, 0, 53, 64
4, 31968, Note_on_c, 0, 45, 102
4, 32064, Note_off_c, 0, 45, 64
4, 32064, Note_on_c, 0, 48, 102
4, 32160, Note_off_c, 0, 48, 64
4, 32160, Note_on_c, 0, 41, 102
4, 32256, Note_off_c, 0, 41, 64
4, 32256, Note_on_c, 0, 53, 102
4, 32352, Note_off_c, 0, 53, 64
4, 32352, Note_on_c, 0, 48, 102
4, 32448, Note_off_c, 0, 48, 64
4, 32448, Note_on_c, 0, 57, 102
4, 32544, Note_off_c, 0, 57, 64
4, 32544, Note_on_c, 0, 53, 102
4, 32640, Note_off_c, 0, 53, 64
4, 32640, Note_on_c, 0, 60, 102
4, 32736, Note_off_c, 0, 60, 64
4, 32736, Note_on_c, 0, 55, 102
4, 32832, Note_off_c, 0, 55, 64
4, 32832, Note_on_c, 0, 57, 102
4, 32928, Note_off_c, 0, 57, 64
4, 32928, Note_on_c, 0, 52, 102
4, 33024, Note_off_c, 0, 52, 64
4, 33024, Note_on_c, 0, 53, 102
4, 33216, Note_off_c, 0, 53, 64
4, 33792, Note_on_c, 0, 43, 102
4, 33984, Note_off_c, 0, 43, 64
4, 34560, Note_on_c, 0, 43, 102
4, 34752, Note_off_c, 0, 43, 64
4, 35328, Note_on_c, 0, 43, 102
4, 35520, Note_off_c, 0, 43, 64
4, 36864, Note_on_c, 0, 43, 102
4, 37056, Note_off_c, 0, 43, 64
4, 37632, Note_on_c, 0, 43, 102
4, 37824, Note_off_c, 0, 43, 64
4, 38400, Note_on_c, 0, 43, 102
4, 38592, Note_off_c, 0, 43, 64
4, 39168, Note_on_c, 0, 43, 102
4, 39360, Note_off_c, 0, 43, 64
4, 39936, Note_on_c, 0, 43, 102
4, 40128, Note_off_c, 0, 43, 64
4, 41568, Note_on_c, 0, 43, 102
4, 41664, Note_off_c, 0, 43, 64
4, 41664, Note_on_c, 0, 55, 102
4, 41760, Note_off_c, 0, 55, 64
4, 41760, Note_on_c, 0, 43, 102
4, 41856, Note_off_c, 0, 43, 64
4, 41856, Note_on_c, 0, 55, 102
4, 41952, Note_off_c, 0, 55, 64
4, 41952, Note_on_c, 0, 50, 102
4, 42048, Note_off_c, 0, 50, 64
4, 42048, Note_on_c, 0, 55, 102
4, 42144, Note_off_c, 0, 55, 64
4, 42144, Note_on_c, 0, 53, 102
4, 42240, Note_off_c, 0, 53, 64
4, 42240, Note_on_c, 0, 52, 102
4, 42336, Note_off_c, 0, 52, 64
4, 42336, Note_on_c, 0, 48, 102
4, 42432, Note_off_c, 0, 48, 64
4, 42432, Note_on_c, 0, 60, 102
4, 42528, Note_off_c, 0, 60, 64
4, 42528, Note_on_c, 0, 48, 102
4, 42624, Note_off_c, 0, 48, 64
4, 42624, Note_on_c, 0, 60, 102
4, 42720, Note_off_c, 0, 60, 64
4, 42720, Note_on_c, 0, 55, 102
4, 42816, Note_off_c, 0, 55, 64
4, 42816, Note_on_c, 0, 60, 102
4, 42912, Note_off_c, 0, 60, 64
4, 42912, Note_on_c, 0, 58, 102
4, 43008, Note_off_c, 0, 58, 64
4, 43008, Note_on_c, 0, 57, 102
4, 43392, Note_off_c, 0, 57, 64
4, 50688, Note_on_c, 0, 41, 102
4, 51072, Note_off_c, 0, 41, 64
4, 51264, Note_on_c, 0, 53, 102
4, 51456, Note_off_c, 0, 53, 64
4, 51456, Note_on_c, 0, 52, 102
4, 51840, Note_off_c, 0, 52, 64
4, 52032, Note_on_c, 0, 48, 102
4, 52224, Note_off_c, 0, 48, 64
4, 52224, Note_on_c, 0, 53, 102
4, 52608, Note_off_c, 0, 53, 64
4, 52608, Note_on_c, 0, 54, 102
4, 52992, Note_off_c, 0, 54, 64
4, 52992, Note_on_c, 0, 55, 102
4, 53184, Note_off_c, 0, 55, 64
4, 53760, Note_on_c, 0, 43, 102
4, 53952, Note_off_c, 0, 43, 64
4, 54528, Note_on_c, 0, 50, 102
4, 54720, Note_off_c, 0, 50, 64
4, 55296, Note_on_c, 0, 43, 102
4, 55488, Note_off_c, 0, 43, 64
4, 56832, Note_on_c, 0, 43, 102
4, 58368, Note_off_c, 0, 43, 64
4, 58368, Note_on_c, 0, 48, 102
4, 59904, Note_off_c, 0, 48, 64
4, 59904, Note_on_c, 0, 48, 102
4, 61440, Note_off_c, 0, 48, 64
4, 96864, Note_on_c, 0, 55, 102
4, 96960, Note_off_c, 0, 55, 64
4, 96960, Note_on_c, 0, 43, 102
4, 97056, Note_off_c, 0, 43, 64
4, 97056, Note_on_c, 0, 55, 102
4, 97152, Note_off_c, 0, 55, 64
4, 97152, Note_on_c, 0, 43, 102
4, 97248, Note_off_c, 0, 43, 64
4, 97248, Note_on_c, 0, 55, 102
4, 97344, Note_off_c, 0, 55, 64
4, 97344, Note_on_c, 0, 43, 102
4, 97440, Note_off_c, 0, 43, 64
4, 97440, Note_on_c, 0, 55, 102
4, 97536, Note_off_c, 0, 55, 64
4, 97536, Note_on_c, 0, 41, 102
4, 97632, Note_off_c, 0, 41, 64
4, 97632, Note_on_c, 0, 53, 102
4, 97728, Note_off_c, 0, 53, 64
4, 97728, Note_on_c, 0, 41, 102
4, 97824, Note_off_c, 0, 41, 64
4, 97824, Note_on_c, 0, 53, 102
4, 97920, Note_off_c, 0, 53, 64
4, 97920, Note_on_c, 0, 41, 102
4, 98016, Note_off_c, 0, 41, 64
4, 98016, Note_on_c, 0, 53, 102
4, 98112, Note_off_c, 0, 53, 64
4, 98112, Note_on_c, 0, 41, 102
4, 98208, Note_off_c, 0, 41, 64
4, 98208, Note_on_c, 0, 53, 102
4, 98304, Note_off_c, 0, 53, 64
4, 98304, Note_on_c, 0, 40, 102
4, 98496, Note_off_c, 0, 40, 64
4, 98880, Note_on_c, 0, 52, 102
4, 99072, Note_off_c, 0, 52, 64
4, 99072, Note_on_c, 0, 50, 102
4, 99264, Note_off_c, 0, 50, 64
4, 99648, Note_on_c, 0, 43, 102
4, 99840, Note_off_c, 0, 43, 64
4, 99840, Note_on_c, 0, 36, 102
4, 100032, Note_off_c, 0, 36, 64
4, 116832, Note_on_c, 0, 55, 102
4, 116928, Note_off_c, 0, 55, 64
4, 116928, Note_on_c, 0, 43, 102
4, 117024, Note_off_c, 0, 43, 64
4, 117024, Note_on_c, 0, 55, 102
4, 117120, Note_off_c, 0, 55, 64
4, 117120, Note_on_c, 0, 55, 102
4, 117216, Note_off_c, 0, 55, 64
4, 117216, Note_on_c, 0, 57, 102
4, 117312, Note_off_c, 0, 57, 64
4, 117312, Note_on_c, 0, 55, 102
4, 117408, Note_off_c, 0, 55, 64
4, 117408, Note_on_c, 0, 57, 102
4, 117504, Note_off_c, 0, 57, 64
4, 117504, Note_on_c, 0, 53, 102
4, 117600, Note_off_c, 0, 53, 64
4, 117600, Note_on_c, 0, 53, 102
4, 117696, Note_off_c, 0, 53, 64
4, 117696, Note_on_c, 0, 41, 102
4, 117792, Note_off_c, 0, 41, 64
4, 117792, Note_on_c, 0, 53, 102
4, 117888, Note_off_c, 0, 53, 64
4, 117888, Note_on_c, 0, 53, 102
4, 117984, Note_off_c, 0, 53, 64
4, 117984, Note_on_c, 0, 55, 102
4, 118080, Note_off_c, 0, 55, 64
4, 118080, Note_on_c, 0, 53, 102
4, 118176, Note_off_c, 0, 53, 64
4, 118176, Note_on_c, 0, 55, 102
4, 118272, Note_off_c, 0, 55, 64
4, 118272, Note_on_c, 0, 52, 102
4, 118368, Note_off_c, 0, 52, 64
4, 118368, Note_on_c, 0, 43, 102
4, 118464, Note_off_c, 0, 43, 64
4, 118464, Note_on_c, 0, 48, 102
4, 118560, Note_off_c, 0, 48, 64
4, 118560, Note_on_c, 0, 50, 102
4, 118656, Note_off_c, 0, 50, 64
4, 118656, Note_on_c, 0, 52, 102
4, 118752, Note_off_c, 0, 52, 64
4, 118752, Note_on_c, 0, 43, 102
4, 118848, Note_off_c, 0, 43, 64
4, 118848, Note_on_c, 0, 45, 102
4, 118944, Note_off_c, 0, 45, 64
4, 118944, Note_on_c, 0, 47, 102
4, 119040, Note_off_c, 0, 47, 64
4, 119040, Note_on_c, 0, 48, 102
4, 119232, Note_off_c, 0, 48, 64
4, 119232, Note_on_c, 0, 50, 102
4, 119424, Note_off_c, 0, 50, 64
4, 119424, Note_on_c, 0, 52, 102
4, 119616, Note_off_c, 0, 52, 64
4, 119616, Note_on_c, 0, 54, 102
4, 119808, Note_off_c, 0, 54, 64
4, 119808, Note_on_c, 0, 55, 102
4, 120192, Note_off_c, 0, 55, 64
4, 120192, Note_on_c, 0, 53, 102
4, 120576, Note_off_c, 0, 53, 64
4, 120576, Note_on_c, 0, 52, 102
4, 120960, Note_off_c, 0, 52, 64
4, 120960, Note_on_c, 0, 50, 102
4, 121152, Note_off_c, 0, 50, 64
4, 121152, Note_on_c, 0, 55, 102
4, 121344, Note_off_c, 0, 55, 64
4, 121344, Note_on_c, 0, 48, 102
4, 121536, Note_off_c, 0, 48, 64
4, 121536, Note_on_c, 0, 54, 102
4, 121728, Note_off_c, 0, 54, 64
4, 121728, Note_on_c, 0, 47, 102
4, 121920, Note_off_c, 0, 47, 64
4, 121920, Note_on_c, 0, 52, 102
4, 122112, Note_off_c, 0, 52, 64
4, 122112, Note_on_c, 0, 45, 102
4, 122304, Note_off_c, 0, 45, 64
4, 122304, Note_on_c, 0, 50, 102
4, 122496, Note_off_c, 0, 50, 64
4, 122496, Note_on_c, 0, 43, 102
4, 122880, Note_off_c, 0, 43, 64
4, 122880, Note_on_c, 0, 45, 102
4, 123264, Note_off_c, 0, 45, 64
4, 123264, Note_on_c, 0, 47, 102
4, 123648, Note_off_c, 0, 47, 64
4, 123648, Note_on_c, 0, 48, 102
4, 123840, Note_off_c, 0, 48, 64
4, 123840, Note_on_c, 0, 45, 102
4, 124032, Note_off_c, 0, 45, 64
4, 124032, Note_on_c, 0, 47, 102
4, 124416, Note_off_c, 0, 47, 64
4, 124416, Note_on_c, 0, 40, 102
4, 124800, Note_off_c, 0, 40, 64
4, 125184, Note_on_c, 0, 52, 102
4, 125568, Note_off_c, 0, 52, 64
4, 125568, Note_on_c, 0, 45, 102
4, 125952, Note_off_c, 0, 45, 64
4, 125952, Note_on_c, 0, 50, 102
4, 126336, Note_off_c, 0, 50, 64
4, 126336, Note_on_c, 0, 43, 102
4, 126720, Note_off_c, 0, 43, 64
4, 126720, Note_on_c, 0, 48, 102
4, 127104, Note_off_c, 0, 48, 64
4, 162816, Note_on_c, 0, 43, 102
4, 168960, Note_off_c, 0, 43, 64
4, 168960, Note_on_c, 0, 42, 102
4, 169728, Note_off_c, 0, 42, 64
4, 171264, Note_on_c, 0, 43, 102
4, 175104, Note_off_c, 0, 43, 64
4, 175104, Note_on_c, 0, 48, 102
4, 175296, Note_off_c, 0, 48, 64
4, 175872, Note_on_c, 0, 36, 102
4, 176640, Note_off_c, 0, 36, 64
4, 176640, End_track
0, 0, End_of_file
