0, 0, Header, 1, 4, 1024
1, 0, Start_track
1, 0, Time_signature, 4, 2, 24, 8
1, 0, Key_signature, -2, "major"
1, 0, Tempo, 576923
1, 409600, End_track
2, 0, Start_track
2, 0, Title_t, "Instrument 1"
2, 1024, Note_on_c, 0, 62, 96
2, 2048, Note_off_c, 0, 62, 0
2, 2048, Note_on_c, 0, 62, 96
2, 3072, Note_off_c, 0, 62, 0
2, 3072, Note_on_c, 0, 65, 96
2, 3328, Note_off_c, 0, 65, 0
2, 3328, Note_on_c, 0, 63, 96
2, 3584, Note_off_c, 0, 63, 0
2, 3584, Note_on_c, 0, 62, 96
2, 3840, Note_off_c, 0, 62, 0
2, 3840, Note_on_c, 0, 63, 96
2, 4096, Note_off_c, 0, 63, 0
2, 4096, Note_on_c, 0, 62, 96
2, 5632, Note_off_c, 0, 62, 0
2, 5632, Note_on_c, 0, 58, 96
2, 6144, Note_off_c, 0, 58, 0
2, 6144, Note_on_c, 0, 67, 96
2, 6656, Note_off_c, 0, 67, 0
2, 6656, Note_on_c, 0, 62, 96
2, 7168, Note_off_c, 0, 62, 0
2, 7168, Note_on_c, 0, 70, 96
2, 7680, Note_off_c, 0, 70, 0
2, 7680, Note_on_c, 0, 62, 96
2, 8192, Note_off_c, 0, 62, 0
2, 8192, Note_on_c, 0, 64, 96
2, 8704, Note_off_c, 0, 64, 0
2, 8704, Note_on_c, 0, 60, 96
2, 8960, Note_off_c, 0, 60, 0
2, 8960, Note_on_c, 0, 55, 96
2, 9216, Note_off_c, 0, 55, 0
2, 9216, Note_on_c, 0, 48, 96
2, 9728, Note_off_c, 0, 48, 0
2, 9728, Note_on_c, 0, 60, 96
2, 10240, Note_off_c, 0, 60, 0
2, 10240, Note_on_c, 0, 65, 96
2, 10752, Note_off_c, 0, 65, 0
2, 10752, Note_on_c, 0, 60, 96
2, 11264, Note_off_c, 0, 60, 0
2, 11264, Note_on_c, 0, 68, 96
2, 11776, Note_off_c, 0, 68, 0
2, 11776, Note_on_c, 0, 60, 96
2, 12288, Note_off_c, 0, 60, 0
2, 12288, Note_on_c, 0, 62, 96
2, 12800, Note_off_c, 0, 62, 0
2, 12800, Note_on_c, 0, 58, 96
2, 13056, Note_off_c, 0, 58, 0
2, 13056, Note_on_c, 0, 53, 96
2, 13312, Note_off_c, 0, 53, 0
2, 13312, Note_on_c, 0, 46, 96
2, 13824, Note_off_c, 0, 46, 0
2, 13824, Note_on_c, 0, 58, 96
2, 14336, Note_off_c, 0, 58, 0
2, 14336, Note_on_c, 0, 63, 96
2, 14848, Note_off_c, 0, 63, 0
2, 14848, Note_on_c, 0, 58, 96
2, 15360, Note_off_c, 0, 58, 0
2, 15360, Note_on_c, 0, 67, 96
2, 15872, Note_off_c, 0, 67, 0
2, 15872, Note_on_c, 0, 58, 96
2, 16384, Note_off_c, 0, 58, 0
2, 16384, Note_on_c, 0, 60, 96
2, 16896, Note_off_c, 0, 60, 0
2, 16896, Note_on_c, 0, 53, 96
2, 17408, Note_off_c, 0, 53, 0
2, 17408, Note_on_c, 0, 63, 96
2, 17920, Note_off_c, 0, 63, 0
2, 17920, Note_on_c, 0, 60, 96
2, 18432, Note_off_c, 0, 60, 0
2, 18432, Note_on_c, 0, 62, 96
2, 18944, Note_off_c, 0, 62, 0
2, 18944, Note_on_c, 0, 58, 96
2, 19456, Note_off_c, 0, 58, 0
2, 19456, Note_on_c, 0, 65, 96
2, 19968, Note_off_c, 0, 65, 0
2, 19968, Note_on_c, 0, 58, 96
2, 20480, Note_off_c, 0, 58, 0
2, 20480, Note_on_c, 0, 60, 96
2, 20736, Note_off_c, 0, 60, 0
2, 20736, Note_on_c, 0, 58, 96
2, 20992, Note_off_c, 0, 58, 0
2, 20992, Note_on_c, 0, 57, 96
2, 21248, Note_off_c, 0, 57, 0
2, 21248, Note_on_c, 0, 55, 96
2, 21504, Note_off_c, 0, 55, 0
2, 21504, Note_on_c, 0, 53, 96
2, 22016, Note_off_c, 0, 53, 0
2, 22016, Note_on_c, 0, 60, 96
2, 22528, Note_off_c, 0, 60, 0
2, 22528, Note_on_c, 0, 63, 96
2, 23040, Note_off_c, 0, 63, 0
2, 23040, Note_on_c, 0, 60, 96
2, 23552, Note_off_c, 0, 60, 0
2, 23552, Note_on_c, 0, 69, 96
2, 24064, Note_off_c, 0, 69, 0
2, 24064, Note_on_c, 0, 60, 96
2, 24576, Note_off_c, 0, 60, 0
2, 24576, Note_on_c, 0, 62, 96
2, 24832, Note_off_c, 0, 62, 0
2, 24832, Note_on_c, 0, 60, 96
2, 25088, Note_off_c, 0, 60, 0
2, 25088, Note_on_c, 0, 58, 96
2, 25344, Note_off_c, 0, 58, 0
2, 25344, Note_on_c, 0, 57, 96
2, 25600, Note_off_c, 0, 57, 0
2, 25600, Note_on_c, 0, 58, 96
2, 26112, Note_off_c, 0, 58, 0
2, 26112, Note_on_c, 0, 62, 96
2, 26624, Note_off_c, 0, 62, 0
2, 26624, Note_on_c, 0, 65, 96
2, 27136, Note_off_c, 0, 65, 0
2, 27136, Note_on_c, 0, 62, 96
2, 27648, Note_off_c, 0, 62, 0
2, 27648, Note_on_c, 0, 70, 96
2, 28160, Note_off_c, 0, 70, 0
2, 28160, Note_on_c, 0, 62, 96
2, 28672, Note_off_c, 0, 62, 0
2, 28672, Note_on_c, 0, 63, 96
2, 28928, Note_off_c, 0, 63, 0
2, 28928, Note_on_c, 0, 62, 96
2, 29184, Note_off_c, 0, 62, 0
2, 29184, Note_on_c, 0, 60, 96
2, 29440, Note_off_c, 0, 60, 0
2, 29440, Note_on_c, 0, 58, 96
2, 29696, Note_off_c, 0, 58, 0
2, 29696, Note_on_c, 0, 60, 96
2, 30208, Note_off_c, 0, 60, 0
2, 30208, Note_on_c, 0, 63, 96
2, 30720, Note_off_c, 0, 63, 0
2, 30720, Note_on_c, 0, 69, 96
2, 31232, Note_off_c, 0, 69, 0
2, 31232, Note_on_c, 0, 63, 96
2, 31744, Note_off_c, 0, 63, 0
2, 31744, Note_on_c, 0, 72, 96
2, 32256, Note_off_c, 0, 72, 0
2, 32256, Note_on_c, 0, 63, 96
2, 32768, Note_off_c, 0, 63, 0
2, 32768, Note_on_c, 0, 65, 96
2, 33024, Note_off_c, 0, 65, 0
2, 33024, Note_on_c, 0, 63, 96
2, 33280, Note_off_c, 0, 63, 0
2, 33280, Note_on_c, 0, 62, 96
2, 33536, Note_off_c, 0, 62, 0
2, 33536, Note_on_c, 0, 60, 96
2, 33792, Note_off_c, 0, 60, 0
2, 33792, Note_on_c, 0, 62, 96
2, 34304, Note_off_c, 0, 62, 0
2, 34304, Note_on_c, 0, 65, 96
2, 34816, Note_off_c, 0, 65, 0
2, 34816, Note_on_c, 0, 70, 96
2, 35072, Note_off_c, 0, 70, 0
2, 35072, Note_on_c, 0, 62, 96
2, 35328, Note_off_c, 0, 62, 0
2, 35328, Note_on_c, 0, 70, 96
2, 35584, Note_off_c, 0, 70, 0
2, 35584, Note_on_c, 0, 62, 96
2, 35840, Note_off_c, 0, 62, 0
2, 35840, Note_on_c, 0, 60, 96
2, 36096, Note_off_c, 0, 60, 0
2, 36096, Note_on_c, 0, 70, 96
2, 36352, Note_off_c, 0, 70, 0
2, 36352, Note_on_c, 0, 60, 96
2, 36608, Note_off_c, 0, 60, 0
2, 36608, Note_on_c, 0, 70, 96
2, 36864, Note_off_c, 0, 70, 0
2, 36864, Note_on_c, 0, 69, 96
2, 37120, Note_off_c, 0, 69, 0
2, 37120, Note_on_c, 0, 60, 96
2, 37376, Note_off_c, 0, 60, 0
2, 37376, Note_on_c, 0, 69, 96
2, 37632, Note_off_c, 0, 69, 0
2, 37632, Note_on_c, 0, 60, 96
2, 37888, Note_off_c, 0, 60, 0
2, 37888, Note_on_c, 0, 58, 96
2, 38144, Note_off_c, 0, 58, 0
2, 38144, Note_on_c, 0, 68, 96
2, 38400, Note_off_c, 0, 68, 0
2, 38400, Note_on_c, 0, 58, 96
2, 38656, Note_off_c, 0, 58, 0
2, 38656, Note_on_c, 0, 68, 96
2, 38912, Note_off_c, 0, 68, 0
2, 38912, Note_on_c, 0, 67, 96
2, 39168, Note_off_c, 0, 67, 0
2, 39168, Note_on_c, 0, 58, 96
2, 39424, Note_off_c, 0, 58, 0
2, 39424, Note_on_c, 0, 67, 96
2, 39680, Note_off_c, 0, 67, 0
2, 39680, Note_on_c, 0, 58, 96
2, 39936, Note_off_c, 0, 58, 0
2, 39936, Note_on_c, 0, 57, 96
2, 40192, Note_off_c, 0, 57, 0
2, 40192, Note_on_c, 0, 67, 96
2, 40448, Note_off_c, 0, 67, 0
2, 40448, Note_on_c, 0, 57, 96
2, 40704, Note_off_c, 0, 57, 0
2, 40704, Note_on_c, 0, 67, 96
2, 40960, Note_off_c, 0, 67, 0
2, 40960, Note_on_c, 0, 65, 96
2, 41216, Note_off_c, 0, 65, 0
2, 41216, Note_on_c, 0, 57, 96
2, 41472, Note_off_c, 0, 57, 0
2, 41472, Note_on_c, 0, 65, 96
2, 41728, Note_off_c, 0, 65, 0
2, 41728, Note_on_c, 0, 57, 96
2, 41984, Note_off_c, 0, 57, 0
2, 41984, Note_on_c, 0, 55, 96
2, 42240, Note_off_c, 0, 55, 0
2, 42240, Note_on_c, 0, 58, 96
2, 42496, Note_off_c, 0, 58, 0
2, 42496, Note_on_c, 0, 60, 96
2, 42752, Note_off_c, 0, 60, 0
2, 42752, Note_on_c, 0, 62, 96
2, 43008, Note_off_c, 0, 62, 0
2, 43008, Note_on_c, 0, 63, 96
2, 43264, Note_off_c, 0, 63, 0
2, 43264, Note_on_c, 0, 55, 96
2, 43520, Note_off_c, 0, 55, 0
2, 43520, Note_on_c, 0, 63, 96
2, 43776, Note_off_c, 0, 63, 0
2, 43776, Note_on_c, 0, 55, 96
2, 44032, Note_off_c, 0, 55, 0
2, 44032, Note_on_c, 0, 53, 96
2, 44288, Note_off_c, 0, 53, 0
2, 44288, Note_on_c, 0, 63, 96
2, 44544, Note_off_c, 0, 63, 0
2, 44544, Note_on_c, 0, 53, 96
2, 44800, Note_off_c, 0, 53, 0
2, 44800, Note_on_c, 0, 63, 96
2, 45056, Note_off_c, 0, 63, 0
2, 45056, Note_on_c, 0, 62, 96
2, 45312, Note_off_c, 0, 62, 0
2, 45312, Note_on_c, 0, 53, 96
2, 45568, Note_off_c, 0, 53, 0
2, 45568, Note_on_c, 0, 62, 96
2, 45824, Note_off_c, 0, 62, 0
2, 45824, Note_on_c, 0, 53, 96
2, 46080, Note_off_c, 0, 53, 0
2, 46080, Note_on_c, 0, 51, 96
2, 46336, Note_off_c, 0, 51, 0
2, 46336, Note_on_c, 0, 62, 96
2, 46592, Note_off_c, 0, 62, 0
2, 46592, Note_on_c, 0, 51, 96
2, 46848, Note_off_c, 0, 51, 0
2, 46848, Note_on_c, 0, 62, 96
2, 47104, Note_off_c, 0, 62, 0
2, 47104, Note_on_c, 0, 51, 96
2, 47360, Note_off_c, 0, 51, 0
2, 47360, Note_on_c, 0, 60, 96
2, 47616, Note_off_c, 0, 60, 0
2, 47616, Note_on_c, 0, 51, 96
2, 47872, Note_off_c, 0, 51, 0
2, 47872, Note_on_c, 0, 60, 96
2, 48128, Note_off_c, 0, 60, 0
2, 48128, Note_on_c, 0, 51, 96
2, 48384, Note_off_c, 0, 51, 0
2, 48384, Note_on_c, 0, 58, 96
2, 48640, Note_off_c, 0, 58, 0
2, 48640, Note_on_c, 0, 51, 96
2, 48896, Note_off_c, 0, 51, 0
2, 48896, Note_on_c, 0, 58, 96
2, 49152, Note_off_c, 0, 58, 0
2, 49152, Note_on_c, 0, 51, 96
2, 49408, Note_off_c, 0, 51, 0
2, 49408, Note_on_c, 0, 57, 96
2, 49664, Note_off_c, 0, 57, 0
2, 49664, Note_on_c, 0, 50, 96
2, 49920, Note_off_c, 0, 50, 0
2, 49920, Note_on_c, 0, 57, 96
2, 50176, Note_off_c, 0, 57, 0
2, 50176, Note_on_c, 0, 51, 96
2, 50432, Note_off_c, 0, 51, 0
2, 50432, Note_on_c, 0, 57, 96
2, 50688, Note_off_c, 0, 57, 0
2, 50688, Note_on_c, 0, 55, 96
2, 50944, Note_off_c, 0, 55, 0
2, 50944, Note_on_c, 0, 57, 96
2, 51200, Note_off_c, 0, 57, 0
2, 51200, Note_on_c, 0, 53, 96
2, 51456, Note_off_c, 0, 53, 0
2, 51456, Note_on_c, 0, 57, 96
2, 51712, Note_off_c, 0, 57, 0
2, 51712, Note_on_c, 0, 51, 96
2, 51968, Note_off_c, 0, 51, 0
2, 51968, Note_on_c, 0, 57, 96
2, 52224, Note_off_c, 0, 57, 0
2, 52224, Note_on_c, 0, 50, 96
2, 52480, Note_off_c, 0, 50, 0
2, 52480, Note_on_c, 0, 57, 96
2, 52736, Note_off_c, 0, 57, 0
2, 52736, Note_on_c, 0, 51, 96
2, 52992, Note_off_c, 0, 51, 0
2, 52992, Note_on_c, 0, 57, 96
2, 53248, Note_off_c, 0, 57, 0
2, 53248, Note_on_c, 0, 50, 96
2, 53504, Note_off_c, 0, 50, 0
2, 53504, Note_on_c, 0, 53, 96
2, 53760, Note_off_c, 0, 53, 0
2, 53760, Note_on_c, 0, 55, 96
2, 54016, Note_off_c, 0, 55, 0
2, 54016, Note_on_c, 0, 57, 96
2, 54272, Note_off_c, 0, 57, 0
2, 54272, Note_on_c, 0, 58, 96
2, 54528, Note_off_c, 0, 58, 0
2, 54528, Note_on_c, 0, 60, 96
2, 54784, Note_off_c, 0, 60, 0
2, 54784, Note_on_c, 0, 62, 96
2, 55040, Note_off_c, 0, 62, 0
2, 55040, Note_on_c, 0, 63, 96
2, 55296, Note_off_c, 0, 63, 0
2, 55296, Note_on_c, 0, 65, 96
2, 55808, Note_off_c, 0, 65, 0
2, 55808, Note_on_c, 0, 62, 96
2, 56064, Note_off_c, 0, 62, 0
2, 56064, Note_on_c, 0, 58, 96
2, 56320, Note_off_c, 0, 58, 0
2, 56320, Note_on_c, 0, 53, 96
2, 56832, Note_off_c, 0, 53, 0
2, 56832, Note_on_c, 0, 57, 96
2, 57344, Note_off_c, 0, 57, 0
2, 57344, Note_on_c, 0, 46, 96
2, 58368, Note_off_c, 0, 46, 0
2, 58368, Note_on_c, 0, 62, 96
2, 59392, Note_off_c, 0, 62, 0
2, 59392, Note_on_c, 0, 62, 96
2, 60416, Note_off_c, 0, 62, 0
2, 60416, Note_on_c, 0, 65, 96
2, 60672, Note_off_c, 0, 65, 0
2, 60672, Note_on_c, 0, 63, 96
2, 60928, Note_off_c, 0, 63, 0
2, 60928, Note_on_c, 0, 62, 96
2, 61184, Note_off_c, 0, 62, 0
2, 61184, Note_on_c, 0, 63, 96
2, 61440, Note_off_c, 0, 63, 0
2, 61440, Note_on_c, 0, 62, 96
2, 62976, Note_off_c, 0, 62, 0
2, 62976, Note_on_c, 0, 58, 96
2, 63488, Note_off_c, 0, 58, 0
2, 63488, Note_on_c, 0, 62, 96
2, 64000, Note_off_c, 0, 62, 0
2, 64000, Note_on_c, 0, 58, 96
2, 64512, Note_off_c, 0, 58, 0
2, 64512, Note_on_c, 0, 65, 96
2, 65024, Note_off_c, 0, 65, 0
2, 65024, Note_on_c, 0, 58, 96
2, 65536, Note_off_c, 0, 58, 0
2, 65536, Note_on_c, 0, 58, 96
2, 66048, Note_off_c, 0, 58, 0
2, 66048, Note_on_c, 0, 53, 96
2, 66304, Note_off_c, 0, 53, 0
2, 66304, Note_on_c, 0, 50, 96
2, 66560, Note_off_c, 0, 50, 0
2, 66560, Note_on_c, 0, 46, 96
2, 67072, Note_off_c, 0, 46, 0
2, 67072, Note_on_c, 0, 65, 96
2, 68096, Note_off_c, 0, 65, 0
2, 68096, Note_on_c, 0, 58, 96
2, 68608, Note_off_c, 0, 58, 0
2, 68608, Note_on_c, 0, 67, 96
2, 69120, Note_off_c, 0, 67, 0
2, 69120, Note_on_c, 0, 63, 96
2, 69632, Note_off_c, 0, 63, 0
2, 69632, Note_on_c, 0, 60, 96
2, 70144, Note_off_c, 0, 60, 0
2, 70144, Note_on_c, 0, 56, 96
2, 70400, Note_off_c, 0, 56, 0
2, 70400, Note_on_c, 0, 53, 96
2, 70656, Note_off_c, 0, 53, 0
2, 70656, Note_on_c, 0, 44, 96
2, 71168, Note_off_c, 0, 44, 0
2, 71168, Note_on_c, 0, 68, 96
2, 72192, Note_off_c, 0, 68, 0
2, 72192, Note_on_c, 0, 65, 96
2, 72704, Note_off_c, 0, 65, 0
2, 72704, Note_on_c, 0, 70, 96
2, 73216, Note_off_c, 0, 70, 0
2, 73216, Note_on_c, 0, 65, 96
2, 73728, Note_off_c, 0, 65, 0
2, 73728, Note_on_c, 0, 67, 96
2, 74240, Note_off_c, 0, 67, 0
2, 74240, Note_on_c, 0, 63, 96
2, 74496, Note_off_c, 0, 63, 0
2, 74496, Note_on_c, 0, 58, 96
2, 74752, Note_off_c, 0, 58, 0
2, 74752, Note_on_c, 0, 51, 96
2, 75264, Note_off_c, 0, 51, 0
2, 75264, Note_on_c, 0, 58, 96
2, 75776, Note_off_c, 0, 58, 0
2, 75776, Note_on_c, 0, 63, 96
2, 76288, Note_off_c, 0, 63, 0
2, 76288, Note_on_c, 0, 58, 96
2, 76800, Note_off_c, 0, 58, 0
2, 76800, Note_on_c, 0, 67, 96
2, 77312, Note_off_c, 0, 67, 0
2, 77312, Note_on_c, 0, 58, 96
2, 77824, Note_off_c, 0, 58, 0
2, 77824, Note_on_c, 0, 60, 96
2, 78336, Note_off_c, 0, 60, 0
2, 78336, Note_on_c, 0, 53, 96
2, 78848, Note_off_c, 0, 53, 0
2, 78848, Note_on_c, 0, 63, 96
2, 79360, Note_off_c, 0, 63, 0
2, 79360, Note_on_c, 0, 60, 96
2, 79872, Note_off_c, 0, 60, 0
2, 79872, Note_on_c, 0, 62, 96
2, 80384, Note_off_c, 0, 62, 0
2, 80384, Note_on_c, 0, 58, 96
2, 80896, Note_off_c, 0, 58, 0
2, 80896, Note_on_c, 0, 65, 96
2, 81408, Note_off_c, 0, 65, 0
2, 81408, Note_on_c, 0, 58, 96
2, 81920, Note_off_c, 0, 58, 0
2, 81920, Note_on_c, 0, 60, 96
2, 82176, Note_off_c, 0, 60, 0
2, 82176, Note_on_c, 0, 58, 96
2, 82432, Note_off_c, 0, 58, 0
2, 82432, Note_on_c, 0, 57, 96
2, 82688, Note_off_c, 0, 57, 0
2, 82688, Note_on_c, 0, 55, 96
2, 82944, Note_off_c, 0, 55, 0
2, 82944, Note_on_c, 0, 53, 96
2, 83456, Note_off_c, 0, 53, 0
2, 83456, Note_on_c, 0, 60, 96
2, 83968, Note_off_c, 0, 60, 0
2, 83968, Note_on_c, 0, 63, 96
2, 84480, Note_off_c, 0, 63, 0
2, 84480, Note_on_c, 0, 60, 96
2, 84992, Note_off_c, 0, 60, 0
2, 84992, Note_on_c, 0, 69, 96
2, 85504, Note_off_c, 0, 69, 0
2, 85504, Note_on_c, 0, 60, 96
2, 86016, Note_off_c, 0, 60, 0
2, 86016, Note_on_c, 0, 62, 96
2, 86272, Note_off_c, 0, 62, 0
2, 86272, Note_on_c, 0, 60, 96
2, 86528, Note_off_c, 0, 60, 0
2, 86528, Note_on_c, 0, 58, 96
2, 86784, Note_off_c, 0, 58, 0
2, 86784, Note_on_c, 0, 57, 96
2, 87040, Note_off_c, 0, 57, 0
2, 87040, Note_on_c, 0, 58, 96
2, 87552, Note_off_c, 0, 58, 0
2, 87552, Note_on_c, 0, 62, 96
2, 88064, Note_off_c, 0, 62, 0
2, 88064, Note_on_c, 0, 65, 96
2, 88576, Note_off_c, 0, 65, 0
2, 88576, Note_on_c, 0, 62, 96
2, 89088, Note_off_c, 0, 62, 0
2, 89088, Note_on_c, 0, 70, 96
2, 89600, Note_off_c, 0, 70, 0
2, 89600, Note_on_c, 0, 62, 96
2, 90112, Note_off_c, 0, 62, 0
2, 90112, Note_on_c, 0, 63, 96
2, 90368, Note_off_c, 0, 63, 0
2, 90368, Note_on_c, 0, 62, 96
2, 90624, Note_off_c, 0, 62, 0
2, 90624, Note_on_c, 0, 60, 96
2, 90880, Note_off_c, 0, 60, 0
2, 90880, Note_on_c, 0, 58, 96
2, 91136, Note_off_c, 0, 58, 0
2, 91136, Note_on_c, 0, 57, 96
2, 91648, Note_off_c, 0, 57, 0
2, 91648, Note_on_c, 0, 62, 96
2, 92160, Note_off_c, 0, 62, 0
2, 92160, Note_on_c, 0, 70, 96
2, 92416, Note_off_c, 0, 70, 0
2, 92416, Note_on_c, 0, 62, 96
2, 92672, Note_off_c, 0, 62, 0
2, 92672, Note_on_c, 0, 70, 96
2, 92928, Note_off_c, 0, 70, 0
2, 92928, Note_on_c, 0, 62, 96
2, 93184, Note_off_c, 0, 62, 0
2, 93184, Note_on_c, 0, 68, 96
2, 93440, Note_off_c, 0, 68, 0
2, 93440, Note_on_c, 0, 62, 96
2, 93696, Note_off_c, 0, 62, 0
2, 93696, Note_on_c, 0, 68, 96
2, 93952, Note_off_c, 0, 68, 0
2, 93952, Note_on_c, 0, 62, 96
2, 94208, Note_off_c, 0, 62, 0
2, 94208, Note_on_c, 0, 67, 96
2, 94464, Note_off_c, 0, 67, 0
2, 94464, Note_on_c, 0, 63, 96
2, 94720, Note_off_c, 0, 63, 0
2, 94720, Note_on_c, 0, 67, 96
2, 94976, Note_off_c, 0, 67, 0
2, 94976, Note_on_c, 0, 63, 96
2, 95232, Note_off_c, 0, 63, 0
2, 95232, Note_on_c, 0, 69, 96
2, 95488, Note_off_c, 0, 69, 0
2, 95488, Note_on_c, 0, 63, 96
2, 95744, Note_off_c, 0, 63, 0
2, 95744, Note_on_c, 0, 69, 96
2, 96000, Note_off_c, 0, 69, 0
2, 96000, Note_on_c, 0, 63, 96
2, 96256, Note_off_c, 0, 63, 0
2, 96256, Note_on_c, 0, 70, 96
2, 96512, Note_off_c, 0, 70, 0
2, 96512, Note_on_c, 0, 69, 96
2, 96768, Note_off_c, 0, 69, 0
2, 96768, Note_on_c, 0, 67, 96
2, 97024, Note_off_c, 0, 67, 0
2, 97024, Note_on_c, 0, 65, 96
2, 97280, Note_off_c, 0, 65, 0
2, 97280, Note_on_c, 0, 63, 96
2, 97536, Note_off_c, 0, 63, 0
2, 97536, Note_on_c, 0, 62, 96
2, 97792, Note_off_c, 0, 62, 0
2, 97792, Note_on_c, 0, 60, 96
2, 98048, Note_off_c, 0, 60, 0
2, 98048, Note_on_c, 0, 58, 96
2, 98304, Note_off_c, 0, 58, 0
2, 98304, Note_on_c, 0, 67, 96
2, 98560, Note_off_c, 0, 67, 0
2, 98560, Note_on_c, 0, 65, 96
2, 98816, Note_off_c, 0, 65, 0
2, 98816, Note_on_c, 0, 63, 96
2, 99072, Note_off_c, 0, 63, 0
2, 99072, Note_on_c, 0, 62, 96
2, 99328, Note_off_c, 0, 62, 0
2, 99328, Note_on_c, 0, 60, 96
2, 99584, Note_off_c, 0, 60, 0
2, 99584, Note_on_c, 0, 58, 96
2, 99840, Note_off_c, 0, 58, 0
2, 99840, Note_on_c, 0, 57, 96
2, 100096, Note_off_c, 0, 57, 0
2, 100096, Note_on_c, 0, 55, 96
2, 100352, Note_off_c, 0, 55, 0
2, 100352, Note_on_c, 0, 57, 96
2, 100608, Note_off_c, 0, 57, 0
2, 100608, Note_on_c, 0, 58, 96
2, 100864, Note_off_c, 0, 58, 0
2, 100864, Note_on_c, 0, 60, 96
2, 101120, Note_off_c, 0, 60, 0
2, 101120, Note_on_c, 0, 62, 96
2, 101376, Note_off_c, 0, 62, 0
2, 101376, Note_on_c, 0, 63, 96
2, 101888, Note_off_c, 0, 63, 0
2, 101888, Note_on_c, 0, 60, 96
2, 102400, Note_off_c, 0, 60, 0
2, 102400, Note_on_c, 0, 62, 96
2, 102912, Note_off_c, 0, 62, 0
2, 102912, Note_on_c, 0, 58, 96
2, 103424, Note_off_c, 0, 58, 0
2, 103424, Note_on_c, 0, 65, 96
2, 103936, Note_off_c, 0, 65, 0
2, 103936, Note_on_c, 0, 56, 96
2, 104448, Note_off_c, 0, 56, 0
2, 104448, Note_on_c, 0, 55, 96
2, 104704, Note_off_c, 0, 55, 0
2, 104704, Note_on_c, 0, 53, 96
2, 104960, Note_off_c, 0, 53, 0
2, 104960, Note_on_c, 0, 51, 96
2, 105216, Note_off_c, 0, 51, 0
2, 105216, Note_on_c, 0, 50, 96
2, 105472, Note_off_c, 0, 50, 0
2, 105472, Note_on_c, 0, 51, 96
2, 105984, Note_off_c, 0, 51, 0
2, 105984, Note_on_c, 0, 58, 96
2, 106496, Note_off_c, 0, 58, 0
2, 106496, Note_on_c, 0, 63, 96
2, 107008, Note_off_c, 0, 63, 0
2, 107008, Note_on_c, 0, 60, 96
2, 107520, Note_off_c, 0, 60, 0
2, 107520, Note_on_c, 0, 67, 96
2, 108032, Note_off_c, 0, 67, 0
2, 108032, Note_on_c, 0, 58, 96
2, 108544, Note_off_c, 0, 58, 0
2, 108544, Note_on_c, 0, 57, 96
2, 108800, Note_off_c, 0, 57, 0
2, 108800, Note_on_c, 0, 55, 96
2, 109056, Note_off_c, 0, 55, 0
2, 109056, Note_on_c, 0, 53, 96
2, 109312, Note_off_c, 0, 53, 0
2, 109312, Note_on_c, 0, 52, 96
2, 109568, Note_off_c, 0, 52, 0
2, 109568, Note_on_c, 0, 53, 96
2, 109824, Note_off_c, 0, 53, 0
2, 109824, Note_on_c, 0, 55, 96
2, 110080, Note_off_c, 0, 55, 0
2, 110080, Note_on_c, 0, 57, 96
2, 110336, Note_off_c, 0, 57, 0
2, 110336, Note_on_c, 0, 58, 96
2, 110592, Note_off_c, 0, 58, 0
2, 110592, Note_on_c, 0, 60, 96
2, 110848, Note_off_c, 0, 60, 0
2, 110848, Note_on_c, 0, 51, 96
2, 111104, Note_off_c, 0, 51, 0
2, 111104, Note_on_c, 0, 60, 96
2, 111360, Note_off_c, 0, 60, 0
2, 111360, Note_on_c, 0, 51, 96
2, 111616, Note_off_c, 0, 51, 0
2, 111616, Note_on_c, 0, 62, 96
2, 111872, Note_off_c, 0, 62, 0
2, 111872, Note_on_c, 0, 51, 96
2, 112128, Note_off_c, 0, 51, 0
2, 112128, Note_on_c, 0, 62, 96
2, 112384, Note_off_c, 0, 62, 0
2, 112384, Note_on_c, 0, 51, 96
2, 112640, Note_off_c, 0, 51, 0
2, 112640, Note_on_c, 0, 60, 96
2, 112896, Note_off_c, 0, 60, 0
2, 112896, Note_on_c, 0, 51, 96
2, 113152, Note_off_c, 0, 51, 0
2, 113152, Note_on_c, 0, 60, 96
2, 113408, Note_off_c, 0, 60, 0
2, 113408, Note_on_c, 0, 51, 96
2, 113664, Note_off_c, 0, 51, 0
2, 113664, Note_on_c, 0, 58, 96
2, 113920, Note_off_c, 0, 58, 0
2, 113920, Note_on_c, 0, 51, 96
2, 114176, Note_off_c, 0, 51, 0
2, 114176, Note_on_c, 0, 58, 96
2, 114432, Note_off_c, 0, 58, 0
2, 114432, Note_on_c, 0, 51, 96
2, 114688, Note_off_c, 0, 51, 0
2, 114688, Note_on_c, 0, 51, 96
2, 114944, Note_off_c, 0, 51, 0
2, 114944, Note_on_c, 0, 57, 96
2, 115200, Note_off_c, 0, 57, 0
2, 115200, Note_on_c, 0, 50, 96
2, 115456, Note_off_c, 0, 50, 0
2, 115456, Note_on_c, 0, 57, 96
2, 115712, Note_off_c, 0, 57, 0
2, 115712, Note_on_c, 0, 51, 96
2, 115968, Note_off_c, 0, 51, 0
2, 115968, Note_on_c, 0, 57, 96
2, 116224, Note_off_c, 0, 57, 0
2, 116224, Note_on_c, 0, 55, 96
2, 116480, Note_off_c, 0, 55, 0
2, 116480, Note_on_c, 0, 57, 96
2, 116736, Note_off_c, 0, 57, 0
2, 116736, Note_on_c, 0, 53, 96
2, 116992, Note_off_c, 0, 53, 0
2, 116992, Note_on_c, 0, 57, 96
2, 117248, Note_off_c, 0, 57, 0
2, 117248, Note_on_c, 0, 51, 96
2, 117504, Note_off_c, 0, 51, 0
2, 117504, Note_on_c, 0, 57, 96
2, 117760, Note_off_c, 0, 57, 0
2, 117760, Note_on_c, 0, 50, 96
2, 118016, Note_off_c, 0, 50, 0
2, 118016, Note_on_c, 0, 57, 96
2, 118272, Note_off_c, 0, 57, 0
2, 118272, Note_on_c, 0, 51, 96
2, 118528, Note_off_c, 0, 51, 0
2, 118528, Note_on_c, 0, 57, 96
2, 118784, Note_off_c, 0, 57, 0
2, 118784, Note_on_c, 0, 50, 96
2, 119040, Note_off_c, 0, 50, 0
2, 119040, Note_on_c, 0, 53, 96
2, 119296, Note_off_c, 0, 53, 0
2, 119296, Note_on_c, 0, 55, 96
2, 119552, Note_off_c, 0, 55, 0
2, 119552, Note_on_c, 0, 57, 96
2, 119808, Note_off_c, 0, 57, 0
2, 119808, Note_on_c, 0, 58, 96
2, 120064, Note_off_c, 0, 58, 0
2, 120064, Note_on_c, 0, 60, 96
2, 120320, Note_off_c, 0, 60, 0
2, 120320, Note_on_c, 0, 62, 96
2, 120576, Note_off_c, 0, 62, 0
2, 120576, Note_on_c, 0, 63, 96
2, 120832, Note_off_c, 0, 63, 0
2, 120832, Note_on_c, 0, 65, 96
2, 121344, Note_off_c, 0, 65, 0
2, 121344, Note_on_c, 0, 62, 96
2, 121600, Note_off_c, 0, 62, 0
2, 121600, Note_on_c, 0, 58, 96
2, 121856, Note_off_c, 0, 58, 0
2, 121856, Note_on_c, 0, 53, 96
2, 122368, Note_off_c, 0, 53, 0
2, 122368, Note_on_c, 0, 57, 96
2, 122880, Note_off_c, 0, 57, 0
2, 122880, Note_on_c, 0, 46, 96
2, 123904, Note_off_c, 0, 46, 0
2, 123904, Note_on_c, 0, 65, 96
2, 124928, Note_off_c, 0, 65, 0
2, 124928, Note_on_c, 0, 65, 96
2, 125952, Note_off_c, 0, 65, 0
2, 125952, Note_on_c, 0, 69, 96
2, 126208, Note_off_c, 0, 69, 0
2, 126208, Note_on_c, 0, 67, 96
2, 126464, Note_off_c, 0, 67, 0
2, 126464, Note_on_c, 0, 66, 96
2, 126720, Note_off_c, 0, 66, 0
2, 126720, Note_on_c, 0, 67, 96
2, 126976, Note_off_c, 0, 67, 0
2, 126976, Note_on_c, 0, 66, 96
2, 128000, Note_off_c, 0, 66, 0
2, 128000, Note_on_c, 0, 57, 96
2, 129024, Note_off_c, 0, 57, 0
2, 129024, Note_on_c, 0, 57, 96
2, 130048, Note_off_c, 0, 57, 0
2, 130048, Note_on_c, 0, 60, 96
2, 130304, Note_off_c, 0, 60, 0
2, 130304, Note_on_c, 0, 58, 96
2, 130560, Note_off_c, 0, 58, 0
2, 130560, Note_on_c, 0, 57, 96
2, 130816, Note_off_c, 0, 57, 0
2, 130816, Note_on_c, 0, 58, 96
2, 131072, Note_off_c, 0, 58, 0
2, 131072, Note_on_c, 0, 55, 96
2, 131584, Note_off_c, 0, 55, 0
2, 131584, Note_on_c, 0, 50, 96
2, 132096, Note_off_c, 0, 50, 0
2, 132096, Note_on_c, 0, 58, 96
2, 132608, Note_off_c, 0, 58, 0
2, 132608, Note_on_c, 0, 55, 96
2, 133120, Note_off_c, 0, 55, 0
2, 133120, Note_on_c, 0, 63, 96
2, 133632, Note_off_c, 0, 63, 0
2, 133632, Note_on_c, 0, 60, 96
2, 134144, Note_off_c, 0, 60, 0
2, 134144, Note_on_c, 0, 67, 96
2, 134656, Note_off_c, 0, 67, 0
2, 134656, Note_on_c, 0, 58, 96
2, 135168, Note_off_c, 0, 58, 0
2, 135168, Note_on_c, 0, 57, 96
2, 135680, Note_off_c, 0, 57, 0
2, 135680, Note_on_c, 0, 53, 96
2, 136192, Note_off_c, 0, 53, 0
2, 136192, Note_on_c, 0, 60, 96
2, 136704, Note_off_c, 0, 60, 0
2, 136704, Note_on_c, 0, 51, 96
2, 137216, Note_off_c, 0, 51, 0
2, 137216, Note_on_c, 0, 50, 96
2, 137472, Note_off_c, 0, 50, 0
2, 137472, Note_on_c, 0, 54, 96
2, 137728, Note_off_c, 0, 54, 0
2, 137728, Note_on_c, 0, 55, 96
2, 137984, Note_off_c, 0, 55, 0
2, 137984, Note_on_c, 0, 57, 96
2, 138240, Note_off_c, 0, 57, 0
2, 138240, Note_on_c, 0, 58, 96
2, 138496, Note_off_c, 0, 58, 0
2, 138496, Note_on_c, 0, 60, 96
2, 138752, Note_off_c, 0, 60, 0
2, 138752, Note_on_c, 0, 62, 96
2, 139008, Note_off_c, 0, 62, 0
2, 139008, Note_on_c, 0, 64, 96
2, 139264, Note_off_c, 0, 64, 0
2, 139264, Note_on_c, 0, 65, 96
2, 139520, Note_off_c, 0, 65, 0
2, 139520, Note_on_c, 0, 64, 96
2, 139776, Note_off_c, 0, 64, 0
2, 139776, Note_on_c, 0, 62, 96
2, 140032, Note_off_c, 0, 62, 0
2, 140032, Note_on_c, 0, 64, 96
2, 140288, Note_off_c, 0, 64, 0
2, 140288, Note_on_c, 0, 60, 96
2, 140544, Note_off_c, 0, 60, 0
2, 140544, Note_on_c, 0, 70, 96
2, 140800, Note_off_c, 0, 70, 0
2, 140800, Note_on_c, 0, 60, 96
2, 141056, Note_off_c, 0, 60, 0
2, 141056, Note_on_c, 0, 70, 96
2, 141312, Note_off_c, 0, 70, 0
2, 141312, Note_on_c, 0, 69, 96
2, 141568, Note_off_c, 0, 69, 0
2, 141568, Note_on_c, 0, 60, 96
2, 141824, Note_off_c, 0, 60, 0
2, 141824, Note_on_c, 0, 69, 96
2, 142080, Note_off_c, 0, 69, 0
2, 142080, Note_on_c, 0, 60, 96
2, 142336, Note_off_c, 0, 60, 0
2, 142336, Note_on_c, 0, 58, 96
2, 142592, Note_off_c, 0, 58, 0
2, 142592, Note_on_c, 0, 69, 96
2, 142848, Note_off_c, 0, 69, 0
2, 142848, Note_on_c, 0, 58, 96
2, 143104, Note_off_c, 0, 58, 0
2, 143104, Note_on_c, 0, 69, 96
2, 143360, Note_off_c, 0, 69, 0
2, 143360, Note_on_c, 0, 67, 96
2, 143616, Note_off_c, 0, 67, 0
2, 143616, Note_on_c, 0, 58, 96
2, 143872, Note_off_c, 0, 58, 0
2, 143872, Note_on_c, 0, 67, 96
2, 144128, Note_off_c, 0, 67, 0
2, 144128, Note_on_c, 0, 58, 96
2, 144384, Note_off_c, 0, 58, 0
2, 144384, Note_on_c, 0, 57, 96
2, 144640, Note_off_c, 0, 57, 0
2, 144640, Note_on_c, 0, 67, 96
2, 144896, Note_off_c, 0, 67, 0
2, 144896, Note_on_c, 0, 57, 96
2, 145152, Note_off_c, 0, 57, 0
2, 145152, Note_on_c, 0, 67, 96
2, 145408, Note_off_c, 0, 67, 0
2, 145408, Note_on_c, 0, 65, 96
2, 145664, Note_off_c, 0, 65, 0
2, 145664, Note_on_c, 0, 57, 96
2, 145920, Note_off_c, 0, 57, 0
2, 145920, Note_on_c, 0, 65, 96
2, 146176, Note_off_c, 0, 65, 0
2, 146176, Note_on_c, 0, 57, 96
2, 146432, Note_off_c, 0, 57, 0
2, 146432, Note_on_c, 0, 55, 96
2, 146688, Note_off_c, 0, 55, 0
2, 146688, Note_on_c, 0, 65, 96
2, 146944, Note_off_c, 0, 65, 0
2, 146944, Note_on_c, 0, 57, 96
2, 147200, Note_off_c, 0, 57, 0
2, 147200, Note_on_c, 0, 65, 96
2, 147456, Note_off_c, 0, 65, 0
2, 147456, Note_on_c, 0, 58, 96
2, 147712, Note_off_c, 0, 58, 0
2, 147712, Note_on_c, 0, 64, 96
2, 147968, Note_off_c, 0, 64, 0
2, 147968, Note_on_c, 0, 57, 96
2, 148224, Note_off_c, 0, 57, 0
2, 148224, Note_on_c, 0, 64, 96
2, 148480, Note_off_c, 0, 64, 0
2, 148480, Note_on_c, 0, 58, 96
2, 148736, Note_off_c, 0, 58, 0
2, 148736, Note_on_c, 0, 64, 96
2, 148992, Note_off_c, 0, 64, 0
2, 148992, Note_on_c, 0, 62, 96
2, 149248, Note_off_c, 0, 62, 0
2, 149248, Note_on_c, 0, 64, 96
2, 149504, Note_off_c, 0, 64, 0
2, 149504, Note_on_c, 0, 60, 96
2, 149760, Note_off_c, 0, 60, 0
2, 149760, Note_on_c, 0, 64, 96
2, 150016, Note_off_c, 0, 64, 0
2, 150016, Note_on_c, 0, 58, 96
2, 150272, Note_off_c, 0, 58, 0
2, 150272, Note_on_c, 0, 64, 96
2, 150528, Note_off_c, 0, 64, 0
2, 150528, Note_on_c, 0, 57, 96
2, 150784, Note_off_c, 0, 57, 0
2, 150784, Note_on_c, 0, 64, 96
2, 151040, Note_off_c, 0, 64, 0
2, 151040, Note_on_c, 0, 58, 96
2, 151296, Note_off_c, 0, 58, 0
2, 151296, Note_on_c, 0, 64, 96
2, 151552, Note_off_c, 0, 64, 0
2, 151552, Note_on_c, 0, 57, 96
2, 151808, Note_off_c, 0, 57, 0
2, 151808, Note_on_c, 0, 60, 96
2, 152064, Note_off_c, 0, 60, 0
2, 152064, Note_on_c, 0, 62, 96
2, 152320, Note_off_c, 0, 62, 0
2, 152320, Note_on_c, 0, 64, 96
2, 152576, Note_off_c, 0, 64, 0
2, 152576, Note_on_c, 0, 65, 96
2, 152832, Note_off_c, 0, 65, 0
2, 152832, Note_on_c, 0, 67, 96
2, 153088, Note_off_c, 0, 67, 0
2, 153088, Note_on_c, 0, 69, 96
2, 153344, Note_off_c, 0, 69, 0
2, 153344, Note_on_c, 0, 70, 96
2, 153600, Note_off_c, 0, 70, 0
2, 153600, Note_on_c, 0, 69, 96
2, 153856, Note_off_c, 0, 69, 0
2, 153856, Note_on_c, 0, 67, 96
2, 154112, Note_off_c, 0, 67, 0
2, 154112, Note_on_c, 0, 66, 96
2, 154368, Note_off_c, 0, 66, 0
2, 154368, Note_on_c, 0, 64, 96
2, 154624, Note_off_c, 0, 64, 0
2, 154624, Note_on_c, 0, 62, 96
2, 154880, Note_off_c, 0, 62, 0
2, 154880, Note_on_c, 0, 60, 96
2, 155136, Note_off_c, 0, 60, 0
2, 155136, Note_on_c, 0, 58, 96
2, 155392, Note_off_c, 0, 58, 0
2, 155392, Note_on_c, 0, 57, 96
2, 155648, Note_off_c, 0, 57, 0
2, 155648, Note_on_c, 0, 55, 96
2, 156672, Note_off_c, 0, 55, 0
2, 156672, Note_on_c, 0, 62, 96
2, 157696, Note_off_c, 0, 62, 0
2, 157696, Note_on_c, 0, 62, 96
2, 158720, Note_off_c, 0, 62, 0
2, 158720, Note_on_c, 0, 65, 96
2, 158976, Note_off_c, 0, 65, 0
2, 158976, Note_on_c, 0, 63, 96
2, 159232, Note_off_c, 0, 63, 0
2, 159232, Note_on_c, 0, 62, 96
2, 159488, Note_off_c, 0, 62, 0
2, 159488, Note_on_c, 0, 63, 96
2, 159744, Note_off_c, 0, 63, 0
2, 159744, Note_on_c, 0, 62, 96
2, 160000, Note_off_c, 0, 62, 0
2, 160000, Note_on_c, 0, 58, 96
2, 160256, Note_off_c, 0, 58, 0
2, 160256, Note_on_c, 0, 62, 96
2, 160512, Note_off_c, 0, 62, 0
2, 160512, Note_on_c, 0, 58, 96
2, 160768, Note_off_c, 0, 58, 0
2, 160768, Note_on_c, 0, 63, 96
2, 161024, Note_off_c, 0, 63, 0
2, 161024, Note_on_c, 0, 58, 96
2, 161280, Note_off_c, 0, 58, 0
2, 161280, Note_on_c, 0, 63, 96
2, 161536, Note_off_c, 0, 63, 0
2, 161536, Note_on_c, 0, 58, 96
2, 161792, Note_off_c, 0, 58, 0
2, 161792, Note_on_c, 0, 65, 96
2, 162304, Note_off_c, 0, 65, 0
2, 162304, Note_on_c, 0, 58, 96
2, 162816, Note_off_c, 0, 58, 0
2, 162816, Note_on_c, 0, 70, 96
2, 163072, Note_off_c, 0, 70, 0
2, 163072, Note_on_c, 0, 68, 96
2, 163328, Note_off_c, 0, 68, 0
2, 163328, Note_on_c, 0, 67, 96
2, 163584, Note_off_c, 0, 67, 0
2, 163584, Note_on_c, 0, 68, 96
2, 163840, Note_off_c, 0, 68, 0
2, 163840, Note_on_c, 0, 67, 96
2, 164352, Note_off_c, 0, 67, 0
2, 164352, Note_on_c, 0, 57, 96
2, 164864, Note_off_c, 0, 57, 0
2, 164864, Note_on_c, 0, 58, 96
2, 166912, Note_off_c, 0, 58, 0
2, 166912, Note_on_c, 0, 57, 96
2, 167936, Note_off_c, 0, 57, 0
2, 167936, Note_on_c, 0, 58, 96
2, 168448, Note_off_c, 0, 58, 0
2, 168448, Note_on_c, 0, 53, 96
2, 168960, Note_off_c, 0, 53, 0
2, 168960, Note_on_c, 0, 62, 96
2, 169472, Note_off_c, 0, 62, 0
2, 169472, Note_on_c, 0, 56, 96
2, 169984, Note_off_c, 0, 56, 0
2, 169984, Note_on_c, 0, 55, 96
2, 170240, Note_off_c, 0, 55, 0
2, 170240, Note_on_c, 0, 53, 96
2, 170496, Note_off_c, 0, 53, 0
2, 170496, Note_on_c, 0, 51, 96
2, 170752, Note_off_c, 0, 51, 0
2, 170752, Note_on_c, 0, 50, 96
2, 171008, Note_off_c, 0, 50, 0
2, 171008, Note_on_c, 0, 48, 96
2, 171264, Note_off_c, 0, 48, 0
2, 171264, Note_on_c, 0, 43, 96
2, 171520, Note_off_c, 0, 43, 0
2, 171520, Note_on_c, 0, 48, 96
2, 171776, Note_off_c, 0, 48, 0
2, 171776, Note_on_c, 0, 43, 96
2, 172032, Note_off_c, 0, 43, 0
2, 172032, Note_on_c, 0, 56, 96
2, 172288, Note_off_c, 0, 56, 0
2, 172288, Note_on_c, 0, 46, 96
2, 172544, Note_off_c, 0, 46, 0
2, 172544, Note_on_c, 0, 56, 96
2, 172800, Note_off_c, 0, 56, 0
2, 172800, Note_on_c, 0, 46, 96
2, 173056, Note_off_c, 0, 46, 0
2, 173056, Note_on_c, 0, 55, 96
2, 173312, Note_off_c, 0, 55, 0
2, 173312, Note_on_c, 0, 46, 96
2, 173568, Note_off_c, 0, 46, 0
2, 173568, Note_on_c, 0, 55, 96
2, 173824, Note_off_c, 0, 55, 0
2, 173824, Note_on_c, 0, 46, 96
2, 174080, Note_off_c, 0, 46, 0
2, 174080, Note_on_c, 0, 53, 96
2, 174336, Note_off_c, 0, 53, 0
2, 174336, Note_on_c, 0, 46, 96
2, 174592, Note_off_c, 0, 46, 0
2, 174592, Note_on_c, 0, 53, 96
2, 174848, Note_off_c, 0, 53, 0
2, 174848, Note_on_c, 0, 46, 96
2, 175104, Note_off_c, 0, 46, 0
2, 175104, Note_on_c, 0, 51, 96
2, 175360, Note_off_c, 0, 51, 0
2, 175360, Note_on_c, 0, 46, 96
2, 175616, Note_off_c, 0, 46, 0
2, 175616, Note_on_c, 0, 51, 96
2, 175872, Note_off_c, 0, 51, 0
2, 175872, Note_on_c, 0, 46, 96
2, 176128, Note_off_c, 0, 46, 0
2, 176128, Note_on_c, 0, 44, 96
2, 176384, Note_off_c, 0, 44, 0
2, 176384, Note_on_c, 0, 50, 96
2, 176640, Note_off_c, 0, 50, 0
2, 176640, Note_on_c, 0, 43, 96
2, 176896, Note_off_c, 0, 43, 0
2, 176896, Note_on_c, 0, 50, 96
2, 177152, Note_off_c, 0, 50, 0
2, 177152, Note_on_c, 0, 44, 96
2, 177408, Note_off_c, 0, 44, 0
2, 177408, Note_on_c, 0, 50, 96
2, 177664, Note_off_c, 0, 50, 0
2, 177664, Note_on_c, 0, 48, 96
2, 177920, Note_off_c, 0, 48, 0
2, 177920, Note_on_c, 0, 50, 96
2, 178176, Note_off_c, 0, 50, 0
2, 178176, Note_on_c, 0, 46, 96
2, 178432, Note_off_c, 0, 46, 0
2, 178432, Note_on_c, 0, 50, 96
2, 178688, Note_off_c, 0, 50, 0
2, 178688, Note_on_c, 0, 44, 96
2, 178944, Note_off_c, 0, 44, 0
2, 178944, Note_on_c, 0, 50, 96
2, 179200, Note_off_c, 0, 50, 0
2, 179200, Note_on_c, 0, 43, 96
2, 179456, Note_off_c, 0, 43, 0
2, 179456, Note_on_c, 0, 50, 96
2, 179712, Note_off_c, 0, 50, 0
2, 179712, Note_on_c, 0, 44, 96
2, 179968, Note_off_c, 0, 44, 0
2, 179968, Note_on_c, 0, 50, 96
2, 180224, Note_off_c, 0, 50, 0
2, 180224, Note_on_c, 0, 43, 96
2, 180480, Note_off_c, 0, 43, 0
2, 180480, Note_on_c, 0, 46, 96
2, 180736, Note_off_c, 0, 46, 0
2, 180736, Note_on_c, 0, 48, 96
2, 180992, Note_off_c, 0, 48, 0
2, 180992, Note_on_c, 0, 50, 96
2, 181248, Note_off_c, 0, 50, 0
2, 181248, Note_on_c, 0, 51, 96
2, 181504, Note_off_c, 0, 51, 0
2, 181504, Note_on_c, 0, 53, 96
2, 181760, Note_off_c, 0, 53, 0
2, 181760, Note_on_c, 0, 55, 96
2, 182016, Note_off_c, 0, 55, 0
2, 182016, Note_on_c, 0, 57, 96
2, 182272, Note_off_c, 0, 57, 0
2, 182272, Note_on_c, 0, 58, 96
2, 182528, Note_off_c, 0, 58, 0
2, 182528, Note_on_c, 0, 60, 96
2, 182784, Note_off_c, 0, 60, 0
2, 182784, Note_on_c, 0, 62, 96
2, 183040, Note_off_c, 0, 62, 0
2, 183040, Note_on_c, 0, 63, 96
2, 183296, Note_off_c, 0, 63, 0
2, 183296, Note_on_c, 0, 65, 96
2, 183552, Note_off_c, 0, 65, 0
2, 183552, Note_on_c, 0, 63, 96
2, 183808, Note_off_c, 0, 63, 0
2, 183808, Note_on_c, 0, 62, 96
2, 184064, Note_off_c, 0, 62, 0
2, 184064, Note_on_c, 0, 63, 96
2, 184320, Note_off_c, 0, 63, 0
2, 184320, Note_on_c, 0, 62, 96
2, 185856, Note_off_c, 0, 62, 0
2, 185856, Note_on_c, 0, 58, 96
2, 186368, Note_off_c, 0, 58, 0
2, 186368, Note_on_c, 0, 67, 96
2, 186880, Note_off_c, 0, 67, 0
2, 186880, Note_on_c, 0, 62, 96
2, 187392, Note_off_c, 0, 62, 0
2, 187392, Note_on_c, 0, 70, 96
2, 187904, Note_off_c, 0, 70, 0
2, 187904, Note_on_c, 0, 62, 96
2, 188416, Note_off_c, 0, 62, 0
2, 188416, Note_on_c, 0, 64, 96
2, 188928, Note_off_c, 0, 64, 0
2, 188928, Note_on_c, 0, 60, 96
2, 189184, Note_off_c, 0, 60, 0
2, 189184, Note_on_c, 0, 55, 96
2, 189440, Note_off_c, 0, 55, 0
2, 189440, Note_on_c, 0, 48, 96
2, 189952, Note_off_c, 0, 48, 0
2, 189952, Note_on_c, 0, 60, 96
2, 190464, Note_off_c, 0, 60, 0
2, 190464, Note_on_c, 0, 65, 96
2, 190976, Note_off_c, 0, 65, 0
2, 190976, Note_on_c, 0, 60, 96
2, 191488, Note_off_c, 0, 60, 0
2, 191488, Note_on_c, 0, 68, 96
2, 192000, Note_off_c, 0, 68, 0
2, 192000, Note_on_c, 0, 60, 96
2, 192512, Note_off_c, 0, 60, 0
2, 192512, Note_on_c, 0, 62, 96
2, 193024, Note_off_c, 0, 62, 0
2, 193024, Note_on_c, 0, 58, 96
2, 193280, Note_off_c, 0, 58, 0
2, 193280, Note_on_c, 0, 53, 96
2, 193536, Note_off_c, 0, 53, 0
2, 193536, Note_on_c, 0, 46, 96
2, 194048, Note_off_c, 0, 46, 0
2, 194048, Note_on_c, 0, 58, 96
2, 194560, Note_off_c, 0, 58, 0
2, 194560, Note_on_c, 0, 63, 96
2, 195072, Note_off_c, 0, 63, 0
2, 195072, Note_on_c, 0, 58, 96
2, 195584, Note_off_c, 0, 58, 0
2, 195584, Note_on_c, 0, 67, 96
2, 196096, Note_off_c, 0, 67, 0
2, 196096, Note_on_c, 0, 58, 96
2, 196608, Note_off_c, 0, 58, 0
2, 196608, Note_on_c, 0, 60, 96
2, 197120, Note_off_c, 0, 60, 0
2, 197120, Note_on_c, 0, 53, 96
2, 197632, Note_off_c, 0, 53, 0
2, 197632, Note_on_c, 0, 63, 96
2, 198144, Note_off_c, 0, 63, 0
2, 198144, Note_on_c, 0, 60, 96
2, 198656, Note_off_c, 0, 60, 0
2, 198656, Note_on_c, 0, 62, 96
2, 199168, Note_off_c, 0, 62, 0
2, 199168, Note_on_c, 0, 58, 96
2, 199680, Note_off_c, 0, 58, 0
2, 199680, Note_on_c, 0, 65, 96
2, 200192, Note_off_c, 0, 65, 0
2, 200192, Note_on_c, 0, 58, 96
2, 200704, Note_off_c, 0, 58, 0
2, 200704, Note_on_c, 0, 60, 96
2, 200960, Note_off_c, 0, 60, 0
2, 200960, Note_on_c, 0, 58, 96
2, 201216, Note_off_c, 0, 58, 0
2, 201216, Note_on_c, 0, 57, 96
2, 201472, Note_off_c, 0, 57, 0
2, 201472, Note_on_c, 0, 55, 96
2, 201728, Note_off_c, 0, 55, 0
2, 201728, Note_on_c, 0, 53, 96
2, 202240, Note_off_c, 0, 53, 0
2, 202240, Note_on_c, 0, 60, 96
2, 202752, Note_off_c, 0, 60, 0
2, 202752, Note_on_c, 0, 63, 96
2, 203264, Note_off_c, 0, 63, 0
2, 203264, Note_on_c, 0, 60, 96
2, 203776, Note_off_c, 0, 60, 0
2, 203776, Note_on_c, 0, 69, 96
2, 204288, Note_off_c, 0, 69, 0
2, 204288, Note_on_c, 0, 60, 96
2, 204800, Note_off_c, 0, 60, 0
2, 204800, Note_on_c, 0, 62, 96
2, 205056, Note_off_c, 0, 62, 0
2, 205056, Note_on_c, 0, 60, 96
2, 205312, Note_off_c, 0, 60, 0
2, 205312, Note_on_c, 0, 58, 96
2, 205568, Note_off_c, 0, 58, 0
2, 205568, Note_on_c, 0, 57, 96
2, 205824, Note_off_c, 0, 57, 0
2, 205824, Note_on_c, 0, 58, 96
2, 206336, Note_off_c, 0, 58, 0
2, 206336, Note_on_c, 0, 62, 96
2, 206848, Note_off_c, 0, 62, 0
2, 206848, Note_on_c, 0, 65, 96
2, 207360, Note_off_c, 0, 65, 0
2, 207360, Note_on_c, 0, 62, 96
2, 207872, Note_off_c, 0, 62, 0
2, 207872, Note_on_c, 0, 70, 96
2, 208384, Note_off_c, 0, 70, 0
2, 208384, Note_on_c, 0, 62, 96
2, 208896, Note_off_c, 0, 62, 0
2, 208896, Note_on_c, 0, 63, 96
2, 209152, Note_off_c, 0, 63, 0
2, 209152, Note_on_c, 0, 62, 96
2, 209408, Note_off_c, 0, 62, 0
2, 209408, Note_on_c, 0, 60, 96
2, 209664, Note_off_c, 0, 60, 0
2, 209664, Note_on_c, 0, 58, 96
2, 209920, Note_off_c, 0, 58, 0
2, 209920, Note_on_c, 0, 60, 96
2, 210432, Note_off_c, 0, 60, 0
2, 210432, Note_on_c, 0, 63, 96
2, 210944, Note_off_c, 0, 63, 0
2, 210944, Note_on_c, 0, 69, 96
2, 211456, Note_off_c, 0, 69, 0
2, 211456, Note_on_c, 0, 63, 96
2, 211968, Note_off_c, 0, 63, 0
2, 211968, Note_on_c, 0, 72, 96
2, 212480, Note_off_c, 0, 72, 0
2, 212480, Note_on_c, 0, 63, 96
2, 212992, Note_off_c, 0, 63, 0
2, 212992, Note_on_c, 0, 65, 96
2, 213248, Note_off_c, 0, 65, 0
2, 213248, Note_on_c, 0, 63, 96
2, 213504, Note_off_c, 0, 63, 0
2, 213504, Note_on_c, 0, 62, 96
2, 213760, Note_off_c, 0, 62, 0
2, 213760, Note_on_c, 0, 60, 96
2, 214016, Note_off_c, 0, 60, 0
2, 214016, Note_on_c, 0, 62, 96
2, 214528, Note_off_c, 0, 62, 0
2, 214528, Note_on_c, 0, 65, 96
2, 215040, Note_off_c, 0, 65, 0
2, 215040, Note_on_c, 0, 70, 96
2, 215296, Note_off_c, 0, 70, 0
2, 215296, Note_on_c, 0, 62, 96
2, 215552, Note_off_c, 0, 62, 0
2, 215552, Note_on_c, 0, 70, 96
2, 215808, Note_off_c, 0, 70, 0
2, 215808, Note_on_c, 0, 62, 96
2, 216064, Note_off_c, 0, 62, 0
2, 216064, Note_on_c, 0, 60, 96
2, 216320, Note_off_c, 0, 60, 0
2, 216320, Note_on_c, 0, 70, 96
2, 216576, Note_off_c, 0, 70, 0
2, 216576, Note_on_c, 0, 60, 96
2, 216832, Note_off_c, 0, 60, 0
2, 216832, Note_on_c, 0, 70, 96
2, 217088, Note_off_c, 0, 70, 0
2, 217088, Note_on_c, 0, 69, 96
2, 217344, Note_off_c, 0, 69, 0
2, 217344, Note_on_c, 0, 60, 96
2, 217600, Note_off_c, 0, 60, 0
2, 217600, Note_on_c, 0, 69, 96
2, 217856, Note_off_c, 0, 69, 0
2, 217856, Note_on_c, 0, 60, 96
2, 218112, Note_off_c, 0, 60, 0
2, 218112, Note_on_c, 0, 58, 96
2, 218368, Note_off_c, 0, 58, 0
2, 218368, Note_on_c, 0, 68, 96
2, 218624, Note_off_c, 0, 68, 0
2, 218624, Note_on_c, 0, 58, 96
2, 218880, Note_off_c, 0, 58, 0
2, 218880, Note_on_c, 0, 68, 96
2, 219136, Note_off_c, 0, 68, 0
2, 219136, Note_on_c, 0, 67, 96
2, 219392, Note_off_c, 0, 67, 0
2, 219392, Note_on_c, 0, 58, 96
2, 219648, Note_off_c, 0, 58, 0
2, 219648, Note_on_c, 0, 67, 96
2, 219904, Note_off_c, 0, 67, 0
2, 219904, Note_on_c, 0, 58, 96
2, 220160, Note_off_c, 0, 58, 0
2, 220160, Note_on_c, 0, 57, 96
2, 220416, Note_off_c, 0, 57, 0
2, 220416, Note_on_c, 0, 67, 96
2, 220672, Note_off_c, 0, 67, 0
2, 220672, Note_on_c, 0, 57, 96
2, 220928, Note_off_c, 0, 57, 0
2, 220928, Note_on_c, 0, 67, 96
2, 221184, Note_off_c, 0, 67, 0
2, 221184, Note_on_c, 0, 65, 96
2, 221440, Note_off_c, 0, 65, 0
2, 221440, Note_on_c, 0, 57, 96
2, 221696, Note_off_c, 0, 57, 0
2, 221696, Note_on_c, 0, 65, 96
2, 221952, Note_off_c, 0, 65, 0
2, 221952, Note_on_c, 0, 57, 96
2, 222208, Note_off_c, 0, 57, 0
2, 222208, Note_on_c, 0, 55, 96
2, 222464, Note_off_c, 0, 55, 0
2, 222464, Note_on_c, 0, 58, 96
2, 222720, Note_off_c, 0, 58, 0
2, 222720, Note_on_c, 0, 60, 96
2, 222976, Note_off_c, 0, 60, 0
2, 222976, Note_on_c, 0, 62, 96
2, 223232, Note_off_c, 0, 62, 0
2, 223232, Note_on_c, 0, 63, 96
2, 223488, Note_off_c, 0, 63, 0
2, 223488, Note_on_c, 0, 55, 96
2, 223744, Note_off_c, 0, 55, 0
2, 223744, Note_on_c, 0, 63, 96
2, 224000, Note_off_c, 0, 63, 0
2, 224000, Note_on_c, 0, 55, 96
2, 224256, Note_off_c, 0, 55, 0
2, 224256, Note_on_c, 0, 53, 96
2, 224512, Note_off_c, 0, 53, 0
2, 224512, Note_on_c, 0, 63, 96
2, 224768, Note_off_c, 0, 63, 0
2, 224768, Note_on_c, 0, 53, 96
2, 225024, Note_off_c, 0, 53, 0
2, 225024, Note_on_c, 0, 63, 96
2, 225280, Note_off_c, 0, 63, 0
2, 225280, Note_on_c, 0, 62, 96
2, 225536, Note_off_c, 0, 62, 0
2, 225536, Note_on_c, 0, 53, 96
2, 225792, Note_off_c, 0, 53, 0
2, 225792, Note_on_c, 0, 62, 96
2, 226048, Note_off_c, 0, 62, 0
2, 226048, Note_on_c, 0, 53, 96
2, 226304, Note_off_c, 0, 53, 0
2, 226304, Note_on_c, 0, 51, 96
2, 226560, Note_off_c, 0, 51, 0
2, 226560, Note_on_c, 0, 62, 96
2, 226816, Note_off_c, 0, 62, 0
2, 226816, Note_on_c, 0, 51, 96
2, 227072, Note_off_c, 0, 51, 0
2, 227072, Note_on_c, 0, 62, 96
2, 227328, Note_off_c, 0, 62, 0
2, 227328, Note_on_c, 0, 51, 96
2, 227584, Note_off_c, 0, 51, 0
2, 227584, Note_on_c, 0, 60, 96
2, 227840, Note_off_c, 0, 60, 0
2, 227840, Note_on_c, 0, 51, 96
2, 228096, Note_off_c, 0, 51, 0
2, 228096, Note_on_c, 0, 60, 96
2, 228352, Note_off_c, 0, 60, 0
2, 228352, Note_on_c, 0, 51, 96
2, 228608, Note_off_c, 0, 51, 0
2, 228608, Note_on_c, 0, 58, 96
2, 228864, Note_off_c, 0, 58, 0
2, 228864, Note_on_c, 0, 51, 96
2, 229120, Note_off_c, 0, 51, 0
2, 229120, Note_on_c, 0, 58, 96
2, 229376, Note_off_c, 0, 58, 0
2, 229376, Note_on_c, 0, 51, 96
2, 229632, Note_off_c, 0, 51, 0
2, 229632, Note_on_c, 0, 57, 96
2, 229888, Note_off_c, 0, 57, 0
2, 229888, Note_on_c, 0, 50, 96
2, 230144, Note_off_c, 0, 50, 0
2, 230144, Note_on_c, 0, 57, 96
2, 230400, Note_off_c, 0, 57, 0
2, 230400, Note_on_c, 0, 51, 96
2, 230656, Note_off_c, 0, 51, 0
2, 230656, Note_on_c, 0, 57, 96
2, 230912, Note_off_c, 0, 57, 0
2, 230912, Note_on_c, 0, 55, 96
2, 231168, Note_off_c, 0, 55, 0
2, 231168, Note_on_c, 0, 57, 96
2, 231424, Note_off_c, 0, 57, 0
2, 231424, Note_on_c, 0, 53, 96
2, 231680, Note_off_c, 0, 53, 0
2, 231680, Note_on_c, 0, 57, 96
2, 231936, Note_off_c, 0, 57, 0
2, 231936, Note_on_c, 0, 51, 96
2, 232192, Note_off_c, 0, 51, 0
2, 232192, Note_on_c, 0, 57, 96
2, 232448, Note_off_c, 0, 57, 0
2, 232448, Note_on_c, 0, 50, 96
2, 232704, Note_off_c, 0, 50, 0
2, 232704, Note_on_c, 0, 57, 96
2, 232960, Note_off_c, 0, 57, 0
2, 232960, Note_on_c, 0, 51, 96
2, 233216, Note_off_c, 0, 51, 0
2, 233216, Note_on_c, 0, 57, 96
2, 233472, Note_off_c, 0, 57, 0
2, 233472, Note_on_c, 0, 50, 96
2, 233728, Note_off_c, 0, 50, 0
2, 233728, Note_on_c, 0, 53, 96
2, 233984, Note_off_c, 0, 53, 0
2, 233984, Note_on_c, 0, 55, 96
2, 234240, Note_off_c, 0, 55, 0
2, 234240, Note_on_c, 0, 57, 96
2, 234496, Note_off_c, 0, 57, 0
2, 234496, Note_on_c, 0, 58, 96
2, 234752, Note_off_c, 0, 58, 0
2, 234752, Note_on_c, 0, 60, 96
2, 235008, Note_off_c, 0, 60, 0
2, 235008, Note_on_c, 0, 62, 96
2, 235264, Note_off_c, 0, 62, 0
2, 235264, Note_on_c, 0, 63, 96
2, 235520, Note_off_c, 0, 63, 0
2, 235520, Note_on_c, 0, 65, 96
2, 236032, Note_off_c, 0, 65, 0
2, 236032, Note_on_c, 0, 62, 96
2, 236288, Note_off_c, 0, 62, 0
2, 236288, Note_on_c, 0, 58, 96
2, 236544, Note_off_c, 0, 58, 0
2, 236544, Note_on_c, 0, 53, 96
2, 237056, Note_off_c, 0, 53, 0
2, 237056, Note_on_c, 0, 57, 96
2, 237568, Note_off_c, 0, 57, 0
2, 237568, Note_on_c, 0, 46, 96
2, 238592, Note_off_c, 0, 46, 0
2, 238592, Note_on_c, 0, 62, 96
2, 239616, Note_off_c, 0, 62, 0
2, 239616, Note_on_c, 0, 62, 96
2, 240640, Note_off_c, 0, 62, 0
2, 240640, Note_on_c, 0, 65, 96
2, 240896, Note_off_c, 0, 65, 0
2, 240896, Note_on_c, 0, 63, 96
2, 241152, Note_off_c, 0, 63, 0
2, 241152, Note_on_c, 0, 62, 96
2, 241408, Note_off_c, 0, 62, 0
2, 241408, Note_on_c, 0, 63, 96
2, 241664, Note_off_c, 0, 63, 0
2, 241664, Note_on_c, 0, 62, 96
2, 243200, Note_off_c, 0, 62, 0
2, 243200, Note_on_c, 0, 58, 96
2, 243712, Note_off_c, 0, 58, 0
2, 243712, Note_on_c, 0, 62, 96
2, 244224, Note_off_c, 0, 62, 0
2, 244224, Note_on_c, 0, 58, 96
2, 244736, Note_off_c, 0, 58, 0
2, 244736, Note_on_c, 0, 65, 96
2, 245248, Note_off_c, 0, 65, 0
2, 245248, Note_on_c, 0, 58, 96
2, 245760, Note_off_c, 0, 58, 0
2, 245760, Note_on_c, 0, 58, 96
2, 246272, Note_off_c, 0, 58, 0
2, 246272, Note_on_c, 0, 53, 96
2, 246528, Note_off_c, 0, 53, 0
2, 246528, Note_on_c, 0, 50, 96
2, 246784, Note_off_c, 0, 50, 0
2, 246784, Note_on_c, 0, 46, 96
2, 247296, Note_off_c, 0, 46, 0
2, 247296, Note_on_c, 0, 65, 96
2, 248320, Note_off_c, 0, 65, 0
2, 248320, Note_on_c, 0, 58, 96
2, 248832, Note_off_c, 0, 58, 0
2, 248832, Note_on_c, 0, 67, 96
2, 249344, Note_off_c, 0, 67, 0
2, 249344, Note_on_c, 0, 63, 96
2, 249856, Note_off_c, 0, 63, 0
2, 249856, Note_on_c, 0, 60, 96
2, 250368, Note_off_c, 0, 60, 0
2, 250368, Note_on_c, 0, 56, 96
2, 250624, Note_off_c, 0, 56, 0
2, 250624, Note_on_c, 0, 53, 96
2, 250880, Note_off_c, 0, 53, 0
2, 250880, Note_on_c, 0, 44, 96
2, 251392, Note_off_c, 0, 44, 0
2, 251392, Note_on_c, 0, 68, 96
2, 252416, Note_off_c, 0, 68, 0
2, 252416, Note_on_c, 0, 65, 96
2, 252928, Note_off_c, 0, 65, 0
2, 252928, Note_on_c, 0, 70, 96
2, 253440, Note_off_c, 0, 70, 0
2, 253440, Note_on_c, 0, 65, 96
2, 253952, Note_off_c, 0, 65, 0
2, 253952, Note_on_c, 0, 67, 96
2, 254464, Note_off_c, 0, 67, 0
2, 254464, Note_on_c, 0, 63, 96
2, 254720, Note_off_c, 0, 63, 0
2, 254720, Note_on_c, 0, 58, 96
2, 254976, Note_off_c, 0, 58, 0
2, 254976, Note_on_c, 0, 51, 96
2, 255488, Note_off_c, 0, 51, 0
2, 255488, Note_on_c, 0, 58, 96
2, 256000, Note_off_c, 0, 58, 0
2, 256000, Note_on_c, 0, 63, 96
2, 256512, Note_off_c, 0, 63, 0
2, 256512, Note_on_c, 0, 58, 96
2, 257024, Note_off_c, 0, 58, 0
2, 257024, Note_on_c, 0, 67, 96
2, 257536, Note_off_c, 0, 67, 0
2, 257536, Note_on_c, 0, 58, 96
2, 258048, Note_off_c, 0, 58, 0
2, 258048, Note_on_c, 0, 60, 96
2, 258560, Note_off_c, 0, 60, 0
2, 258560, Note_on_c, 0, 53, 96
2, 259072, Note_off_c, 0, 53, 0
2, 259072, Note_on_c, 0, 63, 96
2, 259584, Note_off_c, 0, 63, 0
2, 259584, Note_on_c, 0, 60, 96
2, 260096, Note_off_c, 0, 60, 0
2, 260096, Note_on_c, 0, 62, 96
2, 260608, Note_off_c, 0, 62, 0
2, 260608, Note_on_c, 0, 58, 96
2, 261120, Note_off_c, 0, 58, 0
2, 261120, Note_on_c, 0, 65, 96
2, 261632, Note_off_c, 0, 65, 0
2, 261632, Note_on_c, 0, 58, 96
2, 262144, Note_off_c, 0, 58, 0
2, 262144, Note_on_c, 0, 60, 96
2, 262400, Note_off_c, 0, 60, 0
2, 262400, Note_on_c, 0, 58, 96
2, 262656, Note_off_c, 0, 58, 0
2, 262656, Note_on_c, 0, 57, 96
2, 262912, Note_off_c, 0, 57, 0
2, 262912, Note_on_c, 0, 55, 96
2, 263168, Note_off_c, 0, 55, 0
2, 263168, Note_on_c, 0, 53, 96
2, 263680, Note_off_c, 0, 53, 0
2, 263680, Note_on_c, 0, 60, 96
2, 264192, Note_off_c, 0, 60, 0
2, 264192, Note_on_c, 0, 63, 96
2, 264704, Note_off_c, 0, 63, 0
2, 264704, Note_on_c, 0, 60, 96
2, 265216, Note_off_c, 0, 60, 0
2, 265216, Note_on_c, 0, 69, 96
2, 265728, Note_off_c, 0, 69, 0
2, 265728, Note_on_c, 0, 60, 96
2, 266240, Note_off_c, 0, 60, 0
2, 266240, Note_on_c, 0, 62, 96
2, 266496, Note_off_c, 0, 62, 0
2, 266496, Note_on_c, 0, 60, 96
2, 266752, Note_off_c, 0, 60, 0
2, 266752, Note_on_c, 0, 58, 96
2, 267008, Note_off_c, 0, 58, 0
2, 267008, Note_on_c, 0, 57, 96
2, 267264, Note_off_c, 0, 57, 0
2, 267264, Note_on_c, 0, 58, 96
2, 267776, Note_off_c, 0, 58, 0
2, 267776, Note_on_c, 0, 62, 96
2, 268288, Note_off_c, 0, 62, 0
2, 268288, Note_on_c, 0, 65, 96
2, 268800, Note_off_c, 0, 65, 0
2, 268800, Note_on_c, 0, 62, 96
2, 269312, Note_off_c, 0, 62, 0
2, 269312, Note_on_c, 0, 70, 96
2, 269824, Note_off_c, 0, 70, 0
2, 269824, Note_on_c, 0, 62, 96
2, 270336, Note_off_c, 0, 62, 0
2, 270336, Note_on_c, 0, 63, 96
2, 270592, Note_off_c, 0, 63, 0
2, 270592, Note_on_c, 0, 62, 96
2, 270848, Note_off_c, 0, 62, 0
2, 270848, Note_on_c, 0, 60, 96
2, 271104, Note_off_c, 0, 60, 0
2, 271104, Note_on_c, 0, 58, 96
2, 271360, Note_off_c, 0, 58, 0
2, 271360, Note_on_c, 0, 57, 96
2, 271872, Note_off_c, 0, 57, 0
2, 271872, Note_on_c, 0, 62, 96
2, 272384, Note_off_c, 0, 62, 0
2, 272384, Note_on_c, 0, 70, 96
2, 272640, Note_off_c, 0, 70, 0
2, 272640, Note_on_c, 0, 62, 96
2, 272896, Note_off_c, 0, 62, 0
2, 272896, Note_on_c, 0, 70, 96
2, 273152, Note_off_c, 0, 70, 0
2, 273152, Note_on_c, 0, 62, 96
2, 273408, Note_off_c, 0, 62, 0
2, 273408, Note_on_c, 0, 68, 96
2, 273664, Note_off_c, 0, 68, 0
2, 273664, Note_on_c, 0, 62, 96
2, 273920, Note_off_c, 0, 62, 0
2, 273920, Note_on_c, 0, 68, 96
2, 274176, Note_off_c, 0, 68, 0
2, 274176, Note_on_c, 0, 62, 96
2, 274432, Note_off_c, 0, 62, 0
2, 274432, Note_on_c, 0, 67, 96
2, 274688, Note_off_c, 0, 67, 0
2, 274688, Note_on_c, 0, 63, 96
2, 274944, Note_off_c, 0, 63, 0
2, 274944, Note_on_c, 0, 67, 96
2, 275200, Note_off_c, 0, 67, 0
2, 275200, Note_on_c, 0, 63, 96
2, 275456, Note_off_c, 0, 63, 0
2, 275456, Note_on_c, 0, 69, 96
2, 275712, Note_off_c, 0, 69, 0
2, 275712, Note_on_c, 0, 63, 96
2, 275968, Note_off_c, 0, 63, 0
2, 275968, Note_on_c, 0, 69, 96
2, 276224, Note_off_c, 0, 69, 0
2, 276224, Note_on_c, 0, 63, 96
2, 276480, Note_off_c, 0, 63, 0
2, 276480, Note_on_c, 0, 70, 96
2, 276736, Note_off_c, 0, 70, 0
2, 276736, Note_on_c, 0, 69, 96
2, 276992, Note_off_c, 0, 69, 0
2, 276992, Note_on_c, 0, 67, 96
2, 277248, Note_off_c, 0, 67, 0
2, 277248, Note_on_c, 0, 65, 96
2, 277504, Note_off_c, 0, 65, 0
2, 277504, Note_on_c, 0, 63, 96
2, 277760, Note_off_c, 0, 63, 0
2, 277760, Note_on_c, 0, 62, 96
2, 278016, Note_off_c, 0, 62, 0
2, 278016, Note_on_c, 0, 60, 96
2, 278272, Note_off_c, 0, 60, 0
2, 278272, Note_on_c, 0, 58, 96
2, 278528, Note_off_c, 0, 58, 0
2, 278528, Note_on_c, 0, 67, 96
2, 278784, Note_off_c, 0, 67, 0
2, 278784, Note_on_c, 0, 65, 96
2, 279040, Note_off_c, 0, 65, 0
2, 279040, Note_on_c, 0, 63, 96
2, 279296, Note_off_c, 0, 63, 0
2, 279296, Note_on_c, 0, 62, 96
2, 279552, Note_off_c, 0, 62, 0
2, 279552, Note_on_c, 0, 60, 96
2, 279808, Note_off_c, 0, 60, 0
2, 279808, Note_on_c, 0, 58, 96
2, 280064, Note_off_c, 0, 58, 0
2, 280064, Note_on_c, 0, 57, 96
2, 280320, Note_off_c, 0, 57, 0
2, 280320, Note_on_c, 0, 55, 96
2, 280576, Note_off_c, 0, 55, 0
2, 280576, Note_on_c, 0, 57, 96
2, 280832, Note_off_c, 0, 57, 0
2, 280832, Note_on_c, 0, 58, 96
2, 281088, Note_off_c, 0, 58, 0
2, 281088, Note_on_c, 0, 60, 96
2, 281344, Note_off_c, 0, 60, 0
2, 281344, Note_on_c, 0, 62, 96
2, 281600, Note_off_c, 0, 62, 0
2, 281600, Note_on_c, 0, 63, 96
2, 282112, Note_off_c, 0, 63, 0
2, 282112, Note_on_c, 0, 60, 96
2, 282624, Note_off_c, 0, 60, 0
2, 282624, Note_on_c, 0, 62, 96
2, 283136, Note_off_c, 0, 62, 0
2, 283136, Note_on_c, 0, 58, 96
2, 283648, Note_off_c, 0, 58, 0
2, 283648, Note_on_c, 0, 65, 96
2, 284160, Note_off_c, 0, 65, 0
2, 284160, Note_on_c, 0, 56, 96
2, 284672, Note_off_c, 0, 56, 0
2, 284672, Note_on_c, 0, 55, 96
2, 284928, Note_off_c, 0, 55, 0
2, 284928, Note_on_c, 0, 53, 96
2, 285184, Note_off_c, 0, 53, 0
2, 285184, Note_on_c, 0, 51, 96
2, 285440, Note_off_c, 0, 51, 0
2, 285440, Note_on_c, 0, 50, 96
2, 285696, Note_off_c, 0, 50, 0
2, 285696, Note_on_c, 0, 51, 96
2, 286208, Note_off_c, 0, 51, 0
2, 286208, Note_on_c, 0, 58, 96
2, 286720, Note_off_c, 0, 58, 0
2, 286720, Note_on_c, 0, 63, 96
2, 287232, Note_off_c, 0, 63, 0
2, 287232, Note_on_c, 0, 60, 96
2, 287744, Note_off_c, 0, 60, 0
2, 287744, Note_on_c, 0, 67, 96
2, 288256, Note_off_c, 0, 67, 0
2, 288256, Note_on_c, 0, 58, 96
2, 288768, Note_off_c, 0, 58, 0
2, 288768, Note_on_c, 0, 57, 96
2, 289024, Note_off_c, 0, 57, 0
2, 289024, Note_on_c, 0, 55, 96
2, 289280, Note_off_c, 0, 55, 0
2, 289280, Note_on_c, 0, 53, 96
2, 289536, Note_off_c, 0, 53, 0
2, 289536, Note_on_c, 0, 52, 96
2, 289792, Note_off_c, 0, 52, 0
2, 289792, Note_on_c, 0, 53, 96
2, 290048, Note_off_c, 0, 53, 0
2, 290048, Note_on_c, 0, 55, 96
2, 290304, Note_off_c, 0, 55, 0
2, 290304, Note_on_c, 0, 57, 96
2, 290560, Note_off_c, 0, 57, 0
2, 290560, Note_on_c, 0, 58, 96
2, 290816, Note_off_c, 0, 58, 0
2, 290816, Note_on_c, 0, 60, 96
2, 291072, Note_off_c, 0, 60, 0
2, 291072, Note_on_c, 0, 51, 96
2, 291328, Note_off_c, 0, 51, 0
2, 291328, Note_on_c, 0, 60, 96
2, 291584, Note_off_c, 0, 60, 0
2, 291584, Note_on_c, 0, 51, 96
2, 291840, Note_off_c, 0, 51, 0
2, 291840, Note_on_c, 0, 62, 96
2, 292096, Note_off_c, 0, 62, 0
2, 292096, Note_on_c, 0, 51, 96
2, 292352, Note_off_c, 0, 51, 0
2, 292352, Note_on_c, 0, 62, 96
2, 292608, Note_off_c, 0, 62, 0
2, 292608, Note_on_c, 0, 51, 96
2, 292864, Note_off_c, 0, 51, 0
2, 292864, Note_on_c, 0, 60, 96
2, 293120, Note_off_c, 0, 60, 0
2, 293120, Note_on_c, 0, 51, 96
2, 293376, Note_off_c, 0, 51, 0
2, 293376, Note_on_c, 0, 60, 96
2, 293632, Note_off_c, 0, 60, 0
2, 293632, Note_on_c, 0, 51, 96
2, 293888, Note_off_c, 0, 51, 0
2, 293888, Note_on_c, 0, 58, 96
2, 294144, Note_off_c, 0, 58, 0
2, 294144, Note_on_c, 0, 51, 96
2, 294400, Note_off_c, 0, 51, 0
2, 294400, Note_on_c, 0, 58, 96
2, 294656, Note_off_c, 0, 58, 0
2, 294656, Note_on_c, 0, 51, 96
2, 294912, Note_off_c, 0, 51, 0
2, 294912, Note_on_c, 0, 51, 96
2, 295168, Note_off_c, 0, 51, 0
2, 295168, Note_on_c, 0, 57, 96
2, 295424, Note_off_c, 0, 57, 0
2, 295424, Note_on_c, 0, 50, 96
2, 295680, Note_off_c, 0, 50, 0
2, 295680, Note_on_c, 0, 57, 96
2, 295936, Note_off_c, 0, 57, 0
2, 295936, Note_on_c, 0, 51, 96
2, 296192, Note_off_c, 0, 51, 0
2, 296192, Note_on_c, 0, 57, 96
2, 296448, Note_off_c, 0, 57, 0
2, 296448, Note_on_c, 0, 55, 96
2, 296704, Note_off_c, 0, 55, 0
2, 296704, Note_on_c, 0, 57, 96
2, 296960, Note_off_c, 0, 57, 0
2, 296960, Note_on_c, 0, 53, 96
2, 297216, Note_off_c, 0, 53, 0
2, 297216, Note_on_c, 0, 57, 96
2, 297472, Note_off_c, 0, 57, 0
2, 297472, Note_on_c, 0, 51, 96
2, 297728, Note_off_c, 0, 51, 0
2, 297728, Note_on_c, 0, 57, 96
2, 297984, Note_off_c, 0, 57, 0
2, 297984, Note_on_c, 0, 50, 96
2, 298240, Note_off_c, 0, 50, 0
2, 298240, Note_on_c, 0, 57, 96
2, 298496, Note_off_c, 0, 57, 0
2, 298496, Note_on_c, 0, 51, 96
2, 298752, Note_off_c, 0, 51, 0
2, 298752, Note_on_c, 0, 57, 96
2, 299008, Note_off_c, 0, 57, 0
2, 299008, Note_on_c, 0, 50, 96
2, 299264, Note_off_c, 0, 50, 0
2, 299264, Note_on_c, 0, 53, 96
2, 299520, Note_off_c, 0, 53, 0
2, 299520, Note_on_c, 0, 55, 96
2, 299776, Note_off_c, 0, 55, 0
2, 299776, Note_on_c, 0, 57, 96
2, 300032, Note_off_c, 0, 57, 0
2, 300032, Note_on_c, 0, 58, 96
2, 300288, Note_off_c, 0, 58, 0
2, 300288, Note_on_c, 0, 60, 96
2, 300544, Note_off_c, 0, 60, 0
2, 300544, Note_on_c, 0, 62, 96
2, 300800, Note_off_c, 0, 62, 0
2, 300800, Note_on_c, 0, 63, 96
2, 301056, Note_off_c, 0, 63, 0
2, 301056, Note_on_c, 0, 65, 96
2, 301568, Note_off_c, 0, 65, 0
2, 301568, Note_on_c, 0, 62, 96
2, 301824, Note_off_c, 0, 62, 0
2, 301824, Note_on_c, 0, 58, 96
2, 302080, Note_off_c, 0, 58, 0
2, 302080, Note_on_c, 0, 53, 96
2, 302592, Note_off_c, 0, 53, 0
2, 302592, Note_on_c, 0, 57, 96
2, 303104, Note_off_c, 0, 57, 0
2, 303104, Note_on_c, 0, 46, 96
2, 304128, Note_off_c, 0, 46, 0
2, 304128, Note_on_c, 0, 65, 96
2, 305152, Note_off_c, 0, 65, 0
2, 305152, Note_on_c, 0, 65, 96
2, 306176, Note_off_c, 0, 65, 0
2, 306176, Note_on_c, 0, 69, 96
2, 306432, Note_off_c, 0, 69, 0
2, 306432, Note_on_c, 0, 67, 96
2, 306688, Note_off_c, 0, 67, 0
2, 306688, Note_on_c, 0, 66, 96
2, 306944, Note_off_c, 0, 66, 0
2, 306944, Note_on_c, 0, 67, 96
2, 307200, Note_off_c, 0, 67, 0
2, 307200, Note_on_c, 0, 66, 96
2, 308224, Note_off_c, 0, 66, 0
2, 308224, Note_on_c, 0, 57, 96
2, 309248, Note_off_c, 0, 57, 0
2, 309248, Note_on_c, 0, 57, 96
2, 310272, Note_off_c, 0, 57, 0
2, 310272, Note_on_c, 0, 60, 96
2, 310528, Note_off_c, 0, 60, 0
2, 310528, Note_on_c, 0, 58, 96
2, 310784, Note_off_c, 0, 58, 0
2, 310784, Note_on_c, 0, 57, 96
2, 311040, Note_off_c, 0, 57, 0
2, 311040, Note_on_c, 0, 58, 96
2, 311296, Note_off_c, 0, 58, 0
2, 311296, Note_on_c, 0, 55, 96
2, 311808, Note_off_c, 0, 55, 0
2, 311808, Note_on_c, 0, 50, 96
2, 312320, Note_off_c, 0, 50, 0
2, 312320, Note_on_c, 0, 58, 96
2, 312832, Note_off_c, 0, 58, 0
2, 312832, Note_on_c, 0, 55, 96
2, 313344, Note_off_c, 0, 55, 0
2, 313344, Note_on_c, 0, 63, 96
2, 313856, Note_off_c, 0, 63, 0
2, 313856, Note_on_c, 0, 60, 96
2, 314368, Note_off_c, 0, 60, 0
2, 314368, Note_on_c, 0, 67, 96
2, 314880, Note_off_c, 0, 67, 0
2, 314880, Note_on_c, 0, 58, 96
2, 315392, Note_off_c, 0, 58, 0
2, 315392, Note_on_c, 0, 57, 96
2, 315904, Note_off_c, 0, 57, 0
2, 315904, Note_on_c, 0, 53, 96
2, 316416, Note_off_c, 0, 53, 0
2, 316416, Note_on_c, 0, 60, 96
2, 316928, Note_off_c, 0, 60, 0
2, 316928, Note_on_c, 0, 51, 96
2, 317440, Note_off_c, 0, 51, 0
2, 317440, Note_on_c, 0, 50, 96
2, 317696, Note_off_c, 0, 50, 0
2, 317696, Note_on_c, 0, 54, 96
2, 317952, Note_off_c, 0, 54, 0
2, 317952, Note_on_c, 0, 55, 96
2, 318208, Note_off_c, 0, 55, 0
2, 318208, Note_on_c, 0, 57, 96
2, 318464, Note_off_c, 0, 57, 0
2, 318464, Note_on_c, 0, 58, 96
2, 318720, Note_off_c, 0, 58, 0
2, 318720, Note_on_c, 0, 60, 96
2, 318976, Note_off_c, 0, 60, 0
2, 318976, Note_on_c, 0, 62, 96
2, 319232, Note_off_c, 0, 62, 0
2, 319232, Note_on_c, 0, 64, 96
2, 319488, Note_off_c, 0, 64, 0
2, 319488, Note_on_c, 0, 65, 96
2, 319744, Note_off_c, 0, 65, 0
2, 319744, Note_on_c, 0, 64, 96
2, 320000, Note_off_c, 0, 64, 0
2, 320000, Note_on_c, 0, 62, 96
2, 320256, Note_off_c, 0, 62, 0
2, 320256, Note_on_c, 0, 64, 96
2, 320512, Note_off_c, 0, 64, 0
2, 320512, Note_on_c, 0, 60, 96
2, 320768, Note_off_c, 0, 60, 0
2, 320768, Note_on_c, 0, 70, 96
2, 321024, Note_off_c, 0, 70, 0
2, 321024, Note_on_c, 0, 60, 96
2, 321280, Note_off_c, 0, 60, 0
2, 321280, Note_on_c, 0, 70, 96
2, 321536, Note_off_c, 0, 70, 0
2, 321536, Note_on_c, 0, 69, 96
2, 321792, Note_off_c, 0, 69, 0
2, 321792, Note_on_c, 0, 60, 96
2, 322048, Note_off_c, 0, 60, 0
2, 322048, Note_on_c, 0, 69, 96
2, 322304, Note_off_c, 0, 69, 0
2, 322304, Note_on_c, 0, 60, 96
2, 322560, Note_off_c, 0, 60, 0
2, 322560, Note_on_c, 0, 58, 96
2, 322816, Note_off_c, 0, 58, 0
2, 322816, Note_on_c, 0, 69, 96
2, 323072, Note_off_c, 0, 69, 0
2, 323072, Note_on_c, 0, 58, 96
2, 323328, Note_off_c, 0, 58, 0
2, 323328, Note_on_c, 0, 69, 96
2, 323584, Note_off_c, 0, 69, 0
2, 323584, Note_on_c, 0, 67, 96
2, 323840, Note_off_c, 0, 67, 0
2, 323840, Note_on_c, 0, 58, 96
2, 324096, Note_off_c, 0, 58, 0
2, 324096, Note_on_c, 0, 67, 96
2, 324352, Note_off_c, 0, 67, 0
2, 324352, Note_on_c, 0, 58, 96
2, 324608, Note_off_c, 0, 58, 0
2, 324608, Note_on_c, 0, 57, 96
2, 324864, Note_off_c, 0, 57, 0
2, 324864, Note_on_c, 0, 67, 96
2, 325120, Note_off_c, 0, 67, 0
2, 325120, Note_on_c, 0, 57, 96
2, 325376, Note_off_c, 0, 57, 0
2, 325376, Note_on_c, 0, 67, 96
2, 325632, Note_off_c, 0, 67, 0
2, 325632, Note_on_c, 0, 65, 96
2, 325888, Note_off_c, 0, 65, 0
2, 325888, Note_on_c, 0, 57, 96
2, 326144, Note_off_c, 0, 57, 0
2, 326144, Note_on_c, 0, 65, 96
2, 326400, Note_off_c, 0, 65, 0
2, 326400, Note_on_c, 0, 57, 96
2, 326656, Note_off_c, 0, 57, 0
2, 326656, Note_on_c, 0, 55, 96
2, 326912, Note_off_c, 0, 55, 0
2, 326912, Note_on_c, 0, 65, 96
2, 327168, Note_off_c, 0, 65, 0
2, 327168, Note_on_c, 0, 57, 96
2, 327424, Note_off_c, 0, 57, 0
2, 327424, Note_on_c, 0, 65, 96
2, 327680, Note_off_c, 0, 65, 0
2, 327680, Note_on_c, 0, 58, 96
2, 327936, Note_off_c, 0, 58, 0
2, 327936, Note_on_c, 0, 64, 96
2, 328192, Note_off_c, 0, 64, 0
2, 328192, Note_on_c, 0, 57, 96
2, 328448, Note_off_c, 0, 57, 0
2, 328448, Note_on_c, 0, 64, 96
2, 328704, Note_off_c, 0, 64, 0
2, 328704, Note_on_c, 0, 58, 96
2, 328960, Note_off_c, 0, 58, 0
2, 328960, Note_on_c, 0, 64, 96
2, 329216, Note_off_c, 0, 64, 0
2, 329216, Note_on_c, 0, 62, 96
2, 329472, Note_off_c, 0, 62, 0
2, 329472, Note_on_c, 0, 64, 96
2, 329728, Note_off_c, 0, 64, 0
2, 329728, Note_on_c, 0, 60, 96
2, 329984, Note_off_c, 0, 60, 0
2, 329984, Note_on_c, 0, 64, 96
2, 330240, Note_off_c, 0, 64, 0
2, 330240, Note_on_c, 0, 58, 96
2, 330496, Note_off_c, 0, 58, 0
2, 330496, Note_on_c, 0, 64, 96
2, 330752, Note_off_c, 0, 64, 0
2, 330752, Note_on_c, 0, 57, 96
2, 331008, Note_off_c, 0, 57, 0
2, 331008, Note_on_c, 0, 64, 96
2, 331264, Note_off_c, 0, 64, 0
2, 331264, Note_on_c, 0, 58, 96
2, 331520, Note_off_c, 0, 58, 0
2, 331520, Note_on_c, 0, 64, 96
2, 331776, Note_off_c, 0, 64, 0
2, 331776, Note_on_c, 0, 57, 96
2, 332032, Note_off_c, 0, 57, 0
2, 332032, Note_on_c, 0, 60, 96
2, 332288, Note_off_c, 0, 60, 0
2, 332288, Note_on_c, 0, 62, 96
2, 332544, Note_off_c, 0, 62, 0
2, 332544, Note_on_c, 0, 64, 96
2, 332800, Note_off_c, 0, 64, 0
2, 332800, Note_on_c, 0, 65, 96
2, 333056, Note_off_c, 0, 65, 0
2, 333056, Note_on_c, 0, 67, 96
2, 333312, Note_off_c, 0, 67, 0
2, 333312, Note_on_c, 0, 69, 96
2, 333568, Note_off_c, 0, 69, 0
2, 333568, Note_on_c, 0, 70, 96
2, 333824, Note_off_c, 0, 70, 0
2, 333824, Note_on_c, 0, 69, 96
2, 334080, Note_off_c, 0, 69, 0
2, 334080, Note_on_c, 0, 67, 96
2, 334336, Note_off_c, 0, 67, 0
2, 334336, Note_on_c, 0, 66, 96
2, 334592, Note_off_c, 0, 66, 0
2, 334592, Note_on_c, 0, 64, 96
2, 334848, Note_off_c, 0, 64, 0
2, 334848, Note_on_c, 0, 62, 96
2, 335104, Note_off_c, 0, 62, 0
2, 335104, Note_on_c, 0, 60, 96
2, 335360, Note_off_c, 0, 60, 0
2, 335360, Note_on_c, 0, 58, 96
2, 335616, Note_off_c, 0, 58, 0
2, 335616, Note_on_c, 0, 57, 96
2, 335872, Note_off_c, 0, 57, 0
2, 335872, Note_on_c, 0, 55, 96
2, 336896, Note_off_c, 0, 55, 0
2, 336896, Note_on_c, 0, 62, 96
2, 337920, Note_off_c, 0, 62, 0
2, 337920, Note_on_c, 0, 62, 96
2, 338944, Note_off_c, 0, 62, 0
2, 338944, Note_on_c, 0, 65, 96
2, 339200, Note_off_c, 0, 65, 0
2, 339200, Note_on_c, 0, 63, 96
2, 339456, Note_off_c, 0, 63, 0
2, 339456, Note_on_c, 0, 62, 96
2, 339712, Note_off_c, 0, 62, 0
2, 339712, Note_on_c, 0, 63, 96
2, 339968, Note_off_c, 0, 63, 0
2, 339968, Note_on_c, 0, 62, 96
2, 340224, Note_off_c, 0, 62, 0
2, 340224, Note_on_c, 0, 58, 96
2, 340480, Note_off_c, 0, 58, 0
2, 340480, Note_on_c, 0, 62, 96
2, 340736, Note_off_c, 0, 62, 0
2, 340736, Note_on_c, 0, 58, 96
2, 340992, Note_off_c, 0, 58, 0
2, 340992, Note_on_c, 0, 63, 96
2, 341248, Note_off_c, 0, 63, 0
2, 341248, Note_on_c, 0, 58, 96
2, 341504, Note_off_c, 0, 58, 0
2, 341504, Note_on_c, 0, 63, 96
2, 341760, Note_off_c, 0, 63, 0
2, 341760, Note_on_c, 0, 58, 96
2, 342016, Note_off_c, 0, 58, 0
2, 342016, Note_on_c, 0, 65, 96
2, 342528, Note_off_c, 0, 65, 0
2, 342528, Note_on_c, 0, 58, 96
2, 343040, Note_off_c, 0, 58, 0
2, 343040, Note_on_c, 0, 70, 96
2, 343296, Note_off_c, 0, 70, 0
2, 343296, Note_on_c, 0, 68, 96
2, 343552, Note_off_c, 0, 68, 0
2, 343552, Note_on_c, 0, 67, 96
2, 343808, Note_off_c, 0, 67, 0
2, 343808, Note_on_c, 0, 68, 96
2, 344064, Note_off_c, 0, 68, 0
2, 344064, Note_on_c, 0, 67, 96
2, 344576, Note_off_c, 0, 67, 0
2, 344576, Note_on_c, 0, 57, 96
2, 345088, Note_off_c, 0, 57, 0
2, 345088, Note_on_c, 0, 58, 96
2, 347136, Note_off_c, 0, 58, 0
2, 347136, Note_on_c, 0, 57, 96
2, 348160, Note_off_c, 0, 57, 0
2, 348160, Note_on_c, 0, 58, 96
2, 348672, Note_off_c, 0, 58, 0
2, 348672, Note_on_c, 0, 53, 96
2, 349184, Note_off_c, 0, 53, 0
2, 349184, Note_on_c, 0, 62, 96
2, 349696, Note_off_c, 0, 62, 0
2, 349696, Note_on_c, 0, 56, 96
2, 350208, Note_off_c, 0, 56, 0
2, 350208, Note_on_c, 0, 55, 96
2, 350464, Note_off_c, 0, 55, 0
2, 350464, Note_on_c, 0, 53, 96
2, 350720, Note_off_c, 0, 53, 0
2, 350720, Note_on_c, 0, 51, 96
2, 350976, Note_off_c, 0, 51, 0
2, 350976, Note_on_c, 0, 50, 96
2, 351232, Note_off_c, 0, 50, 0
2, 351232, Note_on_c, 0, 48, 96
2, 351488, Note_off_c, 0, 48, 0
2, 351488, Note_on_c, 0, 43, 96
2, 351744, Note_off_c, 0, 43, 0
2, 351744, Note_on_c, 0, 48, 96
2, 352000, Note_off_c, 0, 48, 0
2, 352000, Note_on_c, 0, 43, 96
2, 352256, Note_off_c, 0, 43, 0
2, 352256, Note_on_c, 0, 56, 96
2, 352512, Note_off_c, 0, 56, 0
2, 352512, Note_on_c, 0, 46, 96
2, 352768, Note_off_c, 0, 46, 0
2, 352768, Note_on_c, 0, 56, 96
2, 353024, Note_off_c, 0, 56, 0
2, 353024, Note_on_c, 0, 46, 96
2, 353280, Note_off_c, 0, 46, 0
2, 353280, Note_on_c, 0, 55, 96
2, 353536, Note_off_c, 0, 55, 0
2, 353536, Note_on_c, 0, 46, 96
2, 353792, Note_off_c, 0, 46, 0
2, 353792, Note_on_c, 0, 55, 96
2, 354048, Note_off_c, 0, 55, 0
2, 354048, Note_on_c, 0, 46, 96
2, 354304, Note_off_c, 0, 46, 0
2, 354304, Note_on_c, 0, 53, 96
2, 354560, Note_off_c, 0, 53, 0
2, 354560, Note_on_c, 0, 46, 96
2, 354816, Note_off_c, 0, 46, 0
2, 354816, Note_on_c, 0, 53, 96
2, 355072, Note_off_c, 0, 53, 0
2, 355072, Note_on_c, 0, 46, 96
2, 355328, Note_off_c, 0, 46, 0
2, 355328, Note_on_c, 0, 51, 96
2, 355584, Note_off_c, 0, 51, 0
2, 355584, Note_on_c, 0, 46, 96
2, 355840, Note_off_c, 0, 46, 0
2, 355840, Note_on_c, 0, 51, 96
2, 356096, Note_off_c, 0, 51, 0
2, 356096, Note_on_c, 0, 46, 96
2, 356352, Note_off_c, 0, 46, 0
2, 356352, Note_on_c, 0, 44, 96
2, 356608, Note_off_c, 0, 44, 0
2, 356608, Note_on_c, 0, 50, 96
2, 356864, Note_off_c, 0, 50, 0
2, 356864, Note_on_c, 0, 43, 96
2, 357120, Note_off_c, 0, 43, 0
2, 357120, Note_on_c, 0, 50, 96
2, 357376, Note_off_c, 0, 50, 0
2, 357376, Note_on_c, 0, 44, 96
2, 357632, Note_off_c, 0, 44, 0
2, 357632, Note_on_c, 0, 50, 96
2, 357888, Note_off_c, 0, 50, 0
2, 357888, Note_on_c, 0, 48, 96
2, 358144, Note_off_c, 0, 48, 0
2, 358144, Note_on_c, 0, 50, 96
2, 358400, Note_off_c, 0, 50, 0
2, 358400, Note_on_c, 0, 46, 96
2, 358656, Note_off_c, 0, 46, 0
2, 358656, Note_on_c, 0, 50, 96
2, 358912, Note_off_c, 0, 50, 0
2, 358912, Note_on_c, 0, 44, 96
2, 359168, Note_off_c, 0, 44, 0
2, 359168, Note_on_c, 0, 50, 96
2, 359424, Note_off_c, 0, 50, 0
2, 359424, Note_on_c, 0, 43, 96
2, 359680, Note_off_c, 0, 43, 0
2, 359680, Note_on_c, 0, 50, 96
2, 359936, Note_off_c, 0, 50, 0
2, 359936, Note_on_c, 0, 44, 96
2, 360192, Note_off_c, 0, 44, 0
2, 360192, Note_on_c, 0, 50, 96
2, 360448, Note_off_c, 0, 50, 0
2, 360448, Note_on_c, 0, 43, 96
2, 360704, Note_off_c, 0, 43, 0
2, 360704, Note_on_c, 0, 46, 96
2, 360960, Note_off_c, 0, 46, 0
2, 360960, Note_on_c, 0, 48, 96
2, 361216, Note_off_c, 0, 48, 0
2, 361216, Note_on_c, 0, 50, 96
2, 361472, Note_off_c, 0, 50, 0
2, 361472, Note_on_c, 0, 51, 96
2, 361728, Note_off_c, 0, 51, 0
2, 361728, Note_on_c, 0, 53, 96
2, 361984, Note_off_c, 0, 53, 0
2, 361984, Note_on_c, 0, 55, 96
2, 362240, Note_off_c, 0, 55, 0
2, 362240, Note_on_c, 0, 57, 96
2, 362496, Note_off_c, 0, 57, 0
2, 362496, Note_on_c, 0, 58, 96
2, 362752, Note_off_c, 0, 58, 0
2, 362752, Note_on_c, 0, 60, 96
2, 363008, Note_off_c, 0, 60, 0
2, 363008, Note_on_c, 0, 62, 96
2, 363264, Note_off_c, 0, 62, 0
2, 363264, Note_on_c, 0, 63, 96
2, 363520, Note_off_c, 0, 63, 0
2, 363520, Note_on_c, 0, 65, 96
2, 363776, Note_off_c, 0, 65, 0
2, 363776, Note_on_c, 0, 63, 96
2, 364032, Note_off_c, 0, 63, 0
2, 364032, Note_on_c, 0, 62, 96
2, 364288, Note_off_c, 0, 62, 0
2, 364288, Note_on_c, 0, 63, 96
2, 364544, Note_off_c, 0, 63, 0
2, 364544, Note_on_c, 0, 62, 96
2, 365312, Note_off_c, 0, 62, 0
2, 365312, Note_on_c, 0, 58, 96
2, 365568, Note_off_c, 0, 58, 0
2, 365568, Note_on_c, 0, 60, 96
2, 365824, Note_off_c, 0, 60, 0
2, 365824, Note_on_c, 0, 62, 96
2, 366080, Note_off_c, 0, 62, 0
2, 366080, Note_on_c, 0, 63, 96
2, 366336, Note_off_c, 0, 63, 0
2, 366336, Note_on_c, 0, 65, 96
2, 366592, Note_off_c, 0, 65, 0
2, 366592, Note_on_c, 0, 67, 96
2, 366848, Note_off_c, 0, 67, 0
2, 366848, Note_on_c, 0, 68, 96
2, 367104, Note_off_c, 0, 68, 0
2, 367104, Note_on_c, 0, 67, 96
2, 367360, Note_off_c, 0, 67, 0
2, 367360, Note_on_c, 0, 65, 96
2, 367616, Note_off_c, 0, 65, 0
2, 367616, Note_on_c, 0, 63, 96
2, 367872, Note_off_c, 0, 63, 0
2, 367872, Note_on_c, 0, 62, 96
2, 368128, Note_off_c, 0, 62, 0
2, 368128, Note_on_c, 0, 60, 96
2, 368384, Note_off_c, 0, 60, 0
2, 368384, Note_on_c, 0, 58, 96
2, 368640, Note_off_c, 0, 58, 0
2, 368640, Note_on_c, 0, 60, 96
2, 368896, Note_off_c, 0, 60, 0
2, 368896, Note_on_c, 0, 58, 96
2, 369152, Note_off_c, 0, 58, 0
2, 369152, Note_on_c, 0, 57, 96
2, 369408, Note_off_c, 0, 57, 0
2, 369408, Note_on_c, 0, 55, 96
2, 369664, Note_off_c, 0, 55, 0
2, 369664, Note_on_c, 0, 53, 96
2, 370176, Note_off_c, 0, 53, 0
2, 370176, Note_on_c, 0, 60, 96
2, 370688, Note_off_c, 0, 60, 0
2, 370688, Note_on_c, 0, 63, 96
2, 371200, Note_off_c, 0, 63, 0
2, 371200, Note_on_c, 0, 60, 96
2, 371712, Note_off_c, 0, 60, 0
2, 371712, Note_on_c, 0, 69, 96
2, 372224, Note_off_c, 0, 69, 0
2, 372224, Note_on_c, 0, 60, 96
2, 372736, Note_off_c, 0, 60, 0
2, 372736, Note_on_c, 0, 62, 96
2, 372992, Note_off_c, 0, 62, 0
2, 372992, Note_on_c, 0, 60, 96
2, 373248, Note_off_c, 0, 60, 0
2, 373248, Note_on_c, 0, 58, 96
2, 373504, Note_off_c, 0, 58, 0
2, 373504, Note_on_c, 0, 57, 96
2, 373760, Note_off_c, 0, 57, 0
2, 373760, Note_on_c, 0, 58, 96
2, 374272, Note_off_c, 0, 58, 0
2, 374272, Note_on_c, 0, 62, 96
2, 374784, Note_off_c, 0, 62, 0
2, 374784, Note_on_c, 0, 65, 96
2, 375296, Note_off_c, 0, 65, 0
2, 375296, Note_on_c, 0, 62, 96
2, 375808, Note_off_c, 0, 62, 0
2, 375808, Note_on_c, 0, 70, 96
2, 376320, Note_off_c, 0, 70, 0
2, 376320, Note_on_c, 0, 62, 96
2, 376832, Note_off_c, 0, 62, 0
2, 376832, Note_on_c, 0, 63, 96
2, 377088, Note_off_c, 0, 63, 0
2, 377088, Note_on_c, 0, 62, 96
2, 377344, Note_off_c, 0, 62, 0
2, 377344, Note_on_c, 0, 60, 96
2, 377600, Note_off_c, 0, 60, 0
2, 377600, Note_on_c, 0, 58, 96
2, 377856, Note_off_c, 0, 58, 0
2, 377856, Note_on_c, 0, 60, 96
2, 378368, Note_off_c, 0, 60, 0
2, 378368, Note_on_c, 0, 63, 96
2, 378880, Note_off_c, 0, 63, 0
2, 378880, Note_on_c, 0, 69, 96
2, 379392, Note_off_c, 0, 69, 0
2, 379392, Note_on_c, 0, 63, 96
2, 379904, Note_off_c, 0, 63, 0
2, 379904, Note_on_c, 0, 72, 96
2, 380416, Note_off_c, 0, 72, 0
2, 380416, Note_on_c, 0, 63, 96
2, 380928, Note_off_c, 0, 63, 0
2, 380928, Note_on_c, 0, 65, 96
2, 381184, Note_off_c, 0, 65, 0
2, 381184, Note_on_c, 0, 63, 96
2, 381440, Note_off_c, 0, 63, 0
2, 381440, Note_on_c, 0, 62, 96
2, 381696, Note_off_c, 0, 62, 0
2, 381696, Note_on_c, 0, 60, 96
2, 381952, Note_off_c, 0, 60, 0
2, 381952, Note_on_c, 0, 62, 96
2, 382464, Note_off_c, 0, 62, 0
2, 382464, Note_on_c, 0, 65, 96
2, 382976, Note_off_c, 0, 65, 0
2, 382976, Note_on_c, 0, 70, 96
2, 383232, Note_off_c, 0, 70, 0
2, 383232, Note_on_c, 0, 62, 96
2, 383488, Note_off_c, 0, 62, 0
2, 383488, Note_on_c, 0, 70, 96
2, 383744, Note_off_c, 0, 70, 0
2, 383744, Note_on_c, 0, 62, 96
2, 384000, Note_off_c, 0, 62, 0
2, 384000, Note_on_c, 0, 60, 96
2, 384256, Note_off_c, 0, 60, 0
2, 384256, Note_on_c, 0, 70, 96
2, 384512, Note_off_c, 0, 70, 0
2, 384512, Note_on_c, 0, 60, 96
2, 384768, Note_off_c, 0, 60, 0
2, 384768, Note_on_c, 0, 70, 96
2, 385024, Note_off_c, 0, 70, 0
2, 385024, Note_on_c, 0, 69, 96
2, 385280, Note_off_c, 0, 69, 0
2, 385280, Note_on_c, 0, 60, 96
2, 385536, Note_off_c, 0, 60, 0
2, 385536, Note_on_c, 0, 69, 96
2, 385792, Note_off_c, 0, 69, 0
2, 385792, Note_on_c, 0, 60, 96
2, 386048, Note_off_c, 0, 60, 0
2, 386048, Note_on_c, 0, 58, 96
2, 386304, Note_off_c, 0, 58, 0
2, 386304, Note_on_c, 0, 68, 96
2, 386560, Note_off_c, 0, 68, 0
2, 386560, Note_on_c, 0, 58, 96
2, 386816, Note_off_c, 0, 58, 0
2, 386816, Note_on_c, 0, 68, 96
2, 387072, Note_off_c, 0, 68, 0
2, 387072, Note_on_c, 0, 67, 96
2, 387328, Note_off_c, 0, 67, 0
2, 387328, Note_on_c, 0, 58, 96
2, 387584, Note_off_c, 0, 58, 0
2, 387584, Note_on_c, 0, 67, 96
2, 387840, Note_off_c, 0, 67, 0
2, 387840, Note_on_c, 0, 58, 96
2, 388096, Note_off_c, 0, 58, 0
2, 388096, Note_on_c, 0, 57, 96
2, 388352, Note_off_c, 0, 57, 0
2, 388352, Note_on_c, 0, 67, 96
2, 388608, Note_off_c, 0, 67, 0
2, 388608, Note_on_c, 0, 57, 96
2, 388864, Note_off_c, 0, 57, 0
2, 388864, Note_on_c, 0, 67, 96
2, 389120, Note_off_c, 0, 67, 0
2, 389120, Note_on_c, 0, 65, 96
2, 389376, Note_off_c, 0, 65, 0
2, 389376, Note_on_c, 0, 57, 96
2, 389632, Note_off_c, 0, 57, 0
2, 389632, Note_on_c, 0, 65, 96
2, 389888, Note_off_c, 0, 65, 0
2, 389888, Note_on_c, 0, 57, 96
2, 390144, Note_off_c, 0, 57, 0
2, 390144, Note_on_c, 0, 55, 96
2, 390400, Note_off_c, 0, 55, 0
2, 390400, Note_on_c, 0, 58, 96
2, 390656, Note_off_c, 0, 58, 0
2, 390656, Note_on_c, 0, 60, 96
2, 390912, Note_off_c, 0, 60, 0
2, 390912, Note_on_c, 0, 62, 96
2, 391168, Note_off_c, 0, 62, 0
2, 391168, Note_on_c, 0, 63, 96
2, 391424, Note_off_c, 0, 63, 0
2, 391424, Note_on_c, 0, 55, 96
2, 391680, Note_off_c, 0, 55, 0
2, 391680, Note_on_c, 0, 63, 96
2, 391936, Note_off_c, 0, 63, 0
2, 391936, Note_on_c, 0, 55, 96
2, 392192, Note_off_c, 0, 55, 0
2, 392192, Note_on_c, 0, 53, 96
2, 392448, Note_off_c, 0, 53, 0
2, 392448, Note_on_c, 0, 63, 96
2, 392704, Note_off_c, 0, 63, 0
2, 392704, Note_on_c, 0, 53, 96
2, 392960, Note_off_c, 0, 53, 0
2, 392960, Note_on_c, 0, 63, 96
2, 393216, Note_off_c, 0, 63, 0
2, 393216, Note_on_c, 0, 62, 96
2, 393472, Note_off_c, 0, 62, 0
2, 393472, Note_on_c, 0, 53, 96
2, 393728, Note_off_c, 0, 53, 0
2, 393728, Note_on_c, 0, 62, 96
2, 393984, Note_off_c, 0, 62, 0
2, 393984, Note_on_c, 0, 53, 96
2, 394240, Note_off_c, 0, 53, 0
2, 394240, Note_on_c, 0, 51, 96
2, 394496, Note_off_c, 0, 51, 0
2, 394496, Note_on_c, 0, 62, 96
2, 394752, Note_off_c, 0, 62, 0
2, 394752, Note_on_c, 0, 51, 96
2, 395008, Note_off_c, 0, 51, 0
2, 395008, Note_on_c, 0, 62, 96
2, 395264, Note_off_c, 0, 62, 0
2, 395264, Note_on_c, 0, 51, 96
2, 395520, Note_off_c, 0, 51, 0
2, 395520, Note_on_c, 0, 60, 96
2, 395776, Note_off_c, 0, 60, 0
2, 395776, Note_on_c, 0, 51, 96
2, 396032, Note_off_c, 0, 51, 0
2, 396032, Note_on_c, 0, 60, 96
2, 396288, Note_off_c, 0, 60, 0
2, 396288, Note_on_c, 0, 51, 96
2, 396544, Note_off_c, 0, 51, 0
2, 396544, Note_on_c, 0, 58, 96
2, 396800, Note_off_c, 0, 58, 0
2, 396800, Note_on_c, 0, 51, 96
2, 397056, Note_off_c, 0, 51, 0
2, 397056, Note_on_c, 0, 58, 96
2, 397312, Note_off_c, 0, 58, 0
2, 397312, Note_on_c, 0, 51, 96
2, 397568, Note_off_c, 0, 51, 0
2, 397568, Note_on_c, 0, 57, 96
2, 397824, Note_off_c, 0, 57, 0
2, 397824, Note_on_c, 0, 50, 96
2, 398080, Note_off_c, 0, 50, 0
2, 398080, Note_on_c, 0, 57, 96
2, 398336, Note_off_c, 0, 57, 0
2, 398336, Note_on_c, 0, 51, 96
2, 398592, Note_off_c, 0, 51, 0
2, 398592, Note_on_c, 0, 57, 96
2, 398848, Note_off_c, 0, 57, 0
2, 398848, Note_on_c, 0, 55, 96
2, 399104, Note_off_c, 0, 55, 0
2, 399104, Note_on_c, 0, 57, 96
2, 399360, Note_off_c, 0, 57, 0
2, 399360, Note_on_c, 0, 53, 96
2, 399616, Note_off_c, 0, 53, 0
2, 399616, Note_on_c, 0, 57, 96
2, 399872, Note_off_c, 0, 57, 0
2, 399872, Note_on_c, 0, 51, 96
2, 400128, Note_off_c, 0, 51, 0
2, 400128, Note_on_c, 0, 57, 96
2, 400384, Note_off_c, 0, 57, 0
2, 400384, Note_on_c, 0, 50, 96
2, 400640, Note_off_c, 0, 50, 0
2, 400640, Note_on_c, 0, 57, 96
2, 400896, Note_off_c, 0, 57, 0
2, 400896, Note_on_c, 0, 51, 96
2, 401152, Note_off_c, 0, 51, 0
2, 401152, Note_on_c, 0, 57, 96
2, 401408, Note_off_c, 0, 57, 0
2, 401408, Note_on_c, 0, 50, 96
2, 401664, Note_off_c, 0, 50, 0
2, 401664, Note_on_c, 0, 53, 96
2, 401920, Note_off_c, 0, 53, 0
2, 401920, Note_on_c, 0, 55, 96
2, 402176, Note_off_c, 0, 55, 0
2, 402176, Note_on_c, 0, 57, 96
2, 402432, Note_off_c, 0, 57, 0
2, 402432, Note_on_c, 0, 58, 96
2, 402688, Note_off_c, 0, 58, 0
2, 402688, Note_on_c, 0, 60, 96
2, 402944, Note_off_c, 0, 60, 0
2, 402944, Note_on_c, 0, 62, 96
2, 403200, Note_off_c, 0, 62, 0
2, 403200, Note_on_c, 0, 63, 96
2, 403456, Note_off_c, 0, 63, 0
2, 403456, Note_on_c, 0, 65, 96
2, 403968, Note_off_c, 0, 65, 0
2, 403968, Note_on_c, 0, 62, 96
2, 404224, Note_off_c, 0, 62, 0
2, 404224, Note_on_c, 0, 58, 96
2, 404480, Note_off_c, 0, 58, 0
2, 404480, Note_on_c, 0, 53, 96
2, 404992, Note_off_c, 0, 53, 0
2, 404992, Note_on_c, 0, 57, 96
2, 405504, Note_off_c, 0, 57, 0
2, 405504, Note_on_c, 0, 46, 96
2, 409600, Note_off_c, 0, 46, 0
2, 409600, End_track
3, 0, Start_track
3, 0, Title_t, "Instrument 2"
3, 59392, Note_on_c, 1, 74, 96
3, 61440, Note_off_c, 1, 74, 0
3, 61440, Note_on_c, 1, 74, 96
3, 63488, Note_off_c, 1, 74, 0
3, 63488, Note_on_c, 1, 77, 96
3, 65536, Note_off_c, 1, 77, 0
3, 65536, Note_on_c, 1, 74, 96
3, 67584, Note_off_c, 1, 74, 0
3, 67584, Note_on_c, 1, 70, 96
3, 69632, Note_off_c, 1, 70, 0
3, 69632, Note_on_c, 1, 72, 96
3, 71680, Note_off_c, 1, 72, 0
3, 71680, Note_on_c, 1, 74, 96
3, 73728, Note_off_c, 1, 74, 0
3, 73728, Note_on_c, 1, 75, 96
3, 77824, Note_off_c, 1, 75, 0
3, 88064, Note_on_c, 1, 74, 96
3, 90112, Note_off_c, 1, 74, 0
3, 90112, Note_on_c, 1, 72, 96
3, 92160, Note_off_c, 1, 72, 0
3, 92160, Note_on_c, 1, 70, 96
3, 94208, Note_off_c, 1, 70, 0
3, 94208, Note_on_c, 1, 70, 96
3, 95232, Note_off_c, 1, 70, 0
3, 95232, Note_on_c, 1, 72, 96
3, 96256, Note_off_c, 1, 72, 0
3, 96256, Note_on_c, 1, 74, 96
3, 98304, Note_off_c, 1, 74, 0
3, 98304, Note_on_c, 1, 72, 96
3, 99328, Note_off_c, 1, 72, 0
3, 99328, Note_on_c, 1, 70, 96
3, 100352, Note_off_c, 1, 70, 0
3, 100352, Note_on_c, 1, 72, 96
3, 102400, Note_off_c, 1, 72, 0
3, 102400, Note_on_c, 1, 70, 96
3, 106496, Note_off_c, 1, 70, 0
3, 124928, Note_on_c, 1, 74, 96
3, 126976, Note_off_c, 1, 74, 0
3, 126976, Note_on_c, 1, 72, 96
3, 129024, Note_off_c, 1, 72, 0
3, 129024, Note_on_c, 1, 74, 96
3, 131072, Note_off_c, 1, 74, 0
3, 131072, Note_on_c, 1, 70, 96
3, 133120, Note_off_c, 1, 70, 0
3, 133120, Note_on_c, 1, 67, 96
3, 135168, Note_off_c, 1, 67, 0
3, 135168, Note_on_c, 1, 69, 96
3, 137216, Note_off_c, 1, 69, 0
3, 137216, Note_on_c, 1, 70, 96
3, 139264, Note_off_c, 1, 70, 0
3, 139264, Note_on_c, 1, 72, 96
3, 143360, Note_off_c, 1, 72, 0
3, 153600, Note_on_c, 1, 74, 96
3, 155648, Note_off_c, 1, 74, 0
3, 155648, Note_on_c, 1, 72, 96
3, 157696, Note_off_c, 1, 72, 0
3, 157696, Note_on_c, 1, 70, 96
3, 159744, Note_off_c, 1, 70, 0
3, 159744, Note_on_c, 1, 70, 96
3, 160768, Note_off_c, 1, 70, 0
3, 160768, Note_on_c, 1, 72, 96
3, 161792, Note_off_c, 1, 72, 0
3, 161792, Note_on_c, 1, 74, 96
3, 163840, Note_off_c, 1, 74, 0
3, 163840, Note_on_c, 1, 72, 96
3, 164864, Note_off_c, 1, 72, 0
3, 164864, Note_on_c, 1, 70, 96
3, 165888, Note_off_c, 1, 70, 0
3, 165888, Note_on_c, 1, 72, 96
3, 167936, Note_off_c, 1, 72, 0
3, 167936, Note_on_c, 1, 70, 96
3, 172032, Note_off_c, 1, 70, 0
3, 239616, Note_on_c, 1, 74, 96
3, 241664, Note_off_c, 1, 74, 0
3, 241664, Note_on_c, 1, 74, 96
3, 243712, Note_off_c, 1, 74, 0
3, 243712, Note_on_c, 1, 77, 96
3, 245760, Note_off_c, 1, 77, 0
3, 245760, Note_on_c, 1, 74, 96
3, 247808, Note_off_c, 1, 74, 0
3, 247808, Note_on_c, 1, 70, 96
3, 249856, Note_off_c, 1, 70, 0
3, 249856, Note_on_c, 1, 72, 96
3, 251904, Note_off_c, 1, 72, 0
3, 251904, Note_on_c, 1, 74, 96
3, 253952, Note_off_c, 1, 74, 0
3, 253952, Note_on_c, 1, 75, 96
3, 258048, Note_off_c, 1, 75, 0
3, 268288, Note_on_c, 1, 74, 96
3, 270336, Note_off_c, 1, 74, 0
3, 270336, Note_on_c, 1, 72, 96
3, 272384, Note_off_c, 1, 72, 0
3, 272384, Note_on_c, 1, 70, 96
3, 274432, Note_off_c, 1, 70, 0
3, 274432, Note_on_c, 1, 70, 96
3, 275456, Note_off_c, 1, 70, 0
3, 275456, Note_on_c, 1, 72, 96
3, 276480, Note_off_c, 1, 72, 0
3, 276480, Note_on_c, 1, 74, 96
3, 278528, Note_off_c, 1, 74, 0
3, 278528, Note_on_c, 1, 72, 96
3, 279552, Note_off_c, 1, 72, 0
3, 279552, Note_on_c, 1, 70, 96
3, 280576, Note_off_c, 1, 70, 0
3, 280576, Note_on_c, 1, 72, 96
3, 282624, Note_off_c, 1, 72, 0
3, 282624, Note_on_c, 1, 70, 96
3, 286720, Note_off_c, 1, 70, 0
3, 305152, Note_on_c, 1, 74, 96
3, 307200, Note_off_c, 1, 74, 0
3, 307200, Note_on_c, 1, 72, 96
3, 309248, Note_off_c, 1, 72, 0
3, 309248, Note_on_c, 1, 74, 96
3, 311296, Note_off_c, 1, 74, 0
3, 311296, Note_on_c, 1, 70, 96
3, 313344, Note_off_c, 1, 70, 0
3, 313344, Note_on_c, 1, 67, 96
3, 315392, Note_off_c, 1, 67, 0
3, 315392, Note_on_c, 1, 69, 96
3, 317440, Note_off_c, 1, 69, 0
3, 317440, Note_on_c, 1, 70, 96
3, 319488, Note_off_c, 1, 70, 0
3, 319488, Note_on_c, 1, 72, 96
3, 323584, Note_off_c, 1, 72, 0
3, 333824, Note_on_c, 1, 74, 96
3, 335872, Note_off_c, 1, 74, 0
3, 335872, Note_on_c, 1, 72, 96
3, 337920, Note_off_c, 1, 72, 0
3, 337920, Note_on_c, 1, 70, 96
3, 339968, Note_off_c, 1, 70, 0
3, 339968, Note_on_c, 1, 70, 96
3, 340992, Note_off_c, 1, 70, 0
3, 340992, Note_on_c, 1, 72, 96
3, 342016, Note_off_c, 1, 72, 0
3, 342016, Note_on_c, 1, 74, 96
3, 344064, Note_off_c, 1, 74, 0
3, 344064, Note_on_c, 1, 72, 96
3, 345088, Note_off_c, 1, 72, 0
3, 345088, Note_on_c, 1, 70, 96
3, 346112, Note_off_c, 1, 70, 0
3, 346112, Note_on_c, 1, 72, 96
3, 348160, Note_off_c, 1, 72, 0
3, 348160, Note_on_c, 1, 70, 96
3, 352256, Note_off_c, 1, 70, 0
3, 409600, End_track
4, 0, Start_track
4, 0, Title_t, "Instrument 3"
4, 0, Note_on_c, 2, 46, 96
4, 2048, Note_off_c, 2, 46, 0
4, 3072, Note_on_c, 2, 58, 96
4, 4096, Note_off_c, 2, 58, 0
4, 4096, Note_on_c, 2, 58, 96
4, 5120, Note_off_c, 2, 58, 0
4, 5120, Note_on_c, 2, 62, 96
4, 6144, Note_off_c, 2, 62, 0
4, 6144, Note_on_c, 2, 58, 96
4, 9216, Note_off_c, 2, 58, 0
4, 9216, Note_on_c, 2, 56, 96
4, 9728, Note_off_c, 2, 56, 0
4, 9728, Note_on_c, 2, 55, 96
4, 10240, Note_off_c, 2, 55, 0
4, 10240, Note_on_c, 2, 56, 96
4, 13312, Note_off_c, 2, 56, 0
4, 13312, Note_on_c, 2, 55, 96
4, 13824, Note_off_c, 2, 55, 0
4, 13824, Note_on_c, 2, 53, 96
4, 14336, Note_off_c, 2, 53, 0
4, 14336, Note_on_c, 2, 55, 96
4, 15360, Note_off_c, 2, 55, 0
4, 16384, Note_on_c, 2, 57, 96
4, 17408, Note_off_c, 2, 57, 0
4, 18432, Note_on_c, 2, 58, 96
4, 19456, Note_off_c, 2, 58, 0
4, 19456, Note_on_c, 2, 46, 96
4, 20480, Note_off_c, 2, 46, 0
4, 20480, Note_on_c, 2, 53, 96
4, 21504, Note_off_c, 2, 53, 0
4, 21504, Note_on_c, 2, 57, 96
4, 22528, Note_off_c, 2, 57, 0
4, 22528, Note_on_c, 2, 53, 96
4, 25600, Note_off_c, 2, 53, 0
4, 25600, Note_on_c, 2, 62, 96
4, 26624, Note_off_c, 2, 62, 0
4, 26624, Note_on_c, 2, 53, 96
4, 29696, Note_off_c, 2, 53, 0
4, 29696, Note_on_c, 2, 60, 96
4, 30720, Note_off_c, 2, 60, 0
4, 30720, Note_on_c, 2, 53, 96
4, 33792, Note_off_c, 2, 53, 0
4, 33792, Note_on_c, 2, 58, 96
4, 34816, Note_off_c, 2, 58, 0
4, 34816, Note_on_c, 2, 55, 96
4, 35840, Note_off_c, 2, 55, 0
4, 35840, Note_on_c, 2, 51, 96
4, 36352, Note_off_c, 2, 51, 0
4, 36352, Note_on_c, 2, 48, 96
4, 36864, Note_off_c, 2, 48, 0
4, 36864, Note_on_c, 2, 53, 96
4, 37888, Note_off_c, 2, 53, 0
4, 37888, Note_on_c, 2, 50, 96
4, 38400, Note_off_c, 2, 50, 0
4, 38400, Note_on_c, 2, 46, 96
4, 38912, Note_off_c, 2, 46, 0
4, 38912, Note_on_c, 2, 51, 96
4, 39936, Note_off_c, 2, 51, 0
4, 39936, Note_on_c, 2, 48, 96
4, 40448, Note_off_c, 2, 48, 0
4, 40448, Note_on_c, 2, 45, 96
4, 40960, Note_off_c, 2, 45, 0
4, 40960, Note_on_c, 2, 50, 96
4, 41984, Note_off_c, 2, 50, 0
4, 41984, Note_on_c, 2, 46, 96
4, 42496, Note_off_c, 2, 46, 0
4, 42496, Note_on_c, 2, 43, 96
4, 43008, Note_off_c, 2, 43, 0
4, 43008, Note_on_c, 2, 48, 96
4, 44032, Note_off_c, 2, 48, 0
4, 44032, Note_on_c, 2, 45, 96
4, 44544, Note_off_c, 2, 45, 0
4, 44544, Note_on_c, 2, 41, 96
4, 45056, Note_off_c, 2, 41, 0
4, 45056, Note_on_c, 2, 46, 96
4, 46080, Note_off_c, 2, 46, 0
4, 46080, Note_on_c, 2, 43, 96
4, 47104, Note_off_c, 2, 43, 0
4, 47104, Note_on_c, 2, 45, 96
4, 48128, Note_off_c, 2, 45, 0
4, 48128, Note_on_c, 2, 48, 96
4, 49152, Note_off_c, 2, 48, 0
4, 49152, Note_on_c, 2, 41, 96
4, 51200, Note_off_c, 2, 41, 0
4, 52224, Note_on_c, 2, 53, 96
4, 53248, Note_off_c, 2, 53, 0
4, 53248, Note_on_c, 2, 58, 96
4, 54272, Note_off_c, 2, 58, 0
4, 54272, Note_on_c, 2, 55, 96
4, 54784, Note_off_c, 2, 55, 0
4, 54784, Note_on_c, 2, 51, 96
4, 55296, Note_off_c, 2, 51, 0
4, 55296, Note_on_c, 2, 50, 96
4, 56320, Note_off_c, 2, 50, 0
4, 56320, Note_on_c, 2, 53, 96
4, 57344, Note_off_c, 2, 53, 0
4, 57344, Note_on_c, 2, 46, 96
4, 58368, Note_off_c, 2, 46, 0
4, 60416, Note_on_c, 2, 58, 96
4, 61440, Note_off_c, 2, 58, 0
4, 61440, Note_on_c, 2, 58, 96
4, 62464, Note_off_c, 2, 58, 0
4, 62464, Note_on_c, 2, 62, 96
4, 63488, Note_off_c, 2, 62, 0
4, 63488, Note_on_c, 2, 58, 96
4, 64512, Note_off_c, 2, 58, 0
4, 64512, Note_on_c, 2, 56, 96
4, 65024, Note_off_c, 2, 56, 0
4, 65024, Note_on_c, 2, 55, 96
4, 65536, Note_off_c, 2, 55, 0
4, 65536, Note_on_c, 2, 56, 96
4, 66560, Note_off_c, 2, 56, 0
4, 66560, Note_on_c, 2, 55, 96
4, 67072, Note_off_c, 2, 55, 0
4, 67072, Note_on_c, 2, 53, 96
4, 67584, Note_off_c, 2, 53, 0
4, 67584, Note_on_c, 2, 55, 96
4, 68608, Note_off_c, 2, 55, 0
4, 68608, Note_on_c, 2, 51, 96
4, 69632, Note_off_c, 2, 51, 0
4, 69632, Note_on_c, 2, 56, 96
4, 70656, Note_off_c, 2, 56, 0
4, 70656, Note_on_c, 2, 53, 96
4, 71680, Note_off_c, 2, 53, 0
4, 71680, Note_on_c, 2, 58, 96
4, 72704, Note_off_c, 2, 58, 0
4, 72704, Note_on_c, 2, 46, 96
4, 73728, Note_off_c, 2, 46, 0
4, 73728, Note_on_c, 2, 51, 96
4, 74752, Note_off_c, 2, 51, 0
4, 75776, Note_on_c, 2, 55, 96
4, 76800, Note_off_c, 2, 55, 0
4, 77824, Note_on_c, 2, 57, 96
4, 78848, Note_off_c, 2, 57, 0
4, 79872, Note_on_c, 2, 58, 96
4, 80896, Note_off_c, 2, 58, 0
4, 80896, Note_on_c, 2, 46, 96
4, 81920, Note_off_c, 2, 46, 0
4, 81920, Note_on_c, 2, 53, 96
4, 82944, Note_off_c, 2, 53, 0
4, 82944, Note_on_c, 2, 57, 96
4, 83968, Note_off_c, 2, 57, 0
4, 83968, Note_on_c, 2, 53, 96
4, 87040, Note_off_c, 2, 53, 0
4, 87040, Note_on_c, 2, 62, 96
4, 88064, Note_off_c, 2, 62, 0
4, 88064, Note_on_c, 2, 53, 96
4, 91136, Note_off_c, 2, 53, 0
4, 91136, Note_on_c, 2, 54, 96
4, 92160, Note_off_c, 2, 54, 0
4, 92160, Note_on_c, 2, 55, 96
4, 93184, Note_off_c, 2, 55, 0
4, 93184, Note_on_c, 2, 53, 96
4, 94208, Note_off_c, 2, 53, 0
4, 94208, Note_on_c, 2, 51, 96
4, 95232, Note_off_c, 2, 51, 0
4, 95232, Note_on_c, 2, 50, 96
4, 95744, Note_off_c, 2, 50, 0
4, 95744, Note_on_c, 2, 48, 96
4, 96256, Note_off_c, 2, 48, 0
4, 96256, Note_on_c, 2, 46, 96
4, 97280, Note_off_c, 2, 46, 0
4, 97280, Note_on_c, 2, 50, 96
4, 98304, Note_off_c, 2, 50, 0
4, 98304, Note_on_c, 2, 51, 96
4, 99328, Note_off_c, 2, 51, 0
4, 99328, Note_on_c, 2, 55, 96
4, 100352, Note_off_c, 2, 55, 0
4, 100352, Note_on_c, 2, 53, 96
4, 101376, Note_off_c, 2, 53, 0
4, 101376, Note_on_c, 2, 41, 96
4, 102400, Note_off_c, 2, 41, 0
4, 102400, Note_on_c, 2, 46, 96
4, 103424, Note_off_c, 2, 46, 0
4, 103424, Note_on_c, 2, 50, 96
4, 104448, Note_off_c, 2, 50, 0
4, 104448, Note_on_c, 2, 51, 96
4, 105472, Note_off_c, 2, 51, 0
4, 105472, Note_on_c, 2, 55, 96
4, 106496, Note_off_c, 2, 55, 0
4, 106496, Note_on_c, 2, 48, 96
4, 107520, Note_off_c, 2, 48, 0
4, 107520, Note_on_c, 2, 51, 96
4, 108544, Note_off_c, 2, 51, 0
4, 108544, Note_on_c, 2, 53, 96
4, 109568, Note_off_c, 2, 53, 0
4, 109568, Note_on_c, 2, 55, 96
4, 110592, Note_off_c, 2, 55, 0
4, 110592, Note_on_c, 2, 57, 96
4, 111616, Note_off_c, 2, 57, 0
4, 111616, Note_on_c, 2, 58, 96
4, 112640, Note_off_c, 2, 58, 0
4, 112640, Note_on_c, 2, 57, 96
4, 113664, Note_off_c, 2, 57, 0
4, 113664, Note_on_c, 2, 55, 96
4, 114688, Note_off_c, 2, 55, 0
4, 114688, Note_on_c, 2, 53, 96
4, 116736, Note_off_c, 2, 53, 0
4, 117760, Note_on_c, 2, 53, 96
4, 118784, Note_off_c, 2, 53, 0
4, 118784, Note_on_c, 2, 58, 96
4, 119808, Note_off_c, 2, 58, 0
4, 119808, Note_on_c, 2, 55, 96
4, 120320, Note_off_c, 2, 55, 0
4, 120320, Note_on_c, 2, 51, 96
4, 120832, Note_off_c, 2, 51, 0
4, 120832, Note_on_c, 2, 50, 96
4, 121856, Note_off_c, 2, 50, 0
4, 121856, Note_on_c, 2, 53, 96
4, 122880, Note_off_c, 2, 53, 0
4, 122880, Note_on_c, 2, 46, 96
4, 124928, Note_off_c, 2, 46, 0
4, 125952, Note_on_c, 2, 58, 96
4, 126976, Note_off_c, 2, 58, 0
4, 126976, Note_on_c, 2, 57, 96
4, 128000, Note_off_c, 2, 57, 0
4, 128000, Note_on_c, 2, 60, 96
4, 128512, Note_off_c, 2, 60, 0
4, 128512, Note_on_c, 2, 57, 96
4, 129024, Note_off_c, 2, 57, 0
4, 129024, Note_on_c, 2, 54, 96
4, 130048, Note_off_c, 2, 54, 0
4, 130048, Note_on_c, 2, 50, 96
4, 131072, Note_off_c, 2, 50, 0
4, 131072, Note_on_c, 2, 55, 96
4, 132096, Note_off_c, 2, 55, 0
4, 133120, Note_on_c, 2, 48, 96
4, 134144, Note_off_c, 2, 48, 0
4, 135168, Note_on_c, 2, 53, 96
4, 136192, Note_off_c, 2, 53, 0
4, 137216, Note_on_c, 2, 55, 96
4, 138240, Note_off_c, 2, 55, 0
4, 139264, Note_on_c, 2, 48, 96
4, 140288, Note_off_c, 2, 48, 0
4, 140288, Note_on_c, 2, 52, 96
4, 141312, Note_off_c, 2, 52, 0
4, 141312, Note_on_c, 2, 53, 96
4, 142336, Note_off_c, 2, 53, 0
4, 142336, Note_on_c, 2, 55, 96
4, 142848, Note_off_c, 2, 55, 0
4, 142848, Note_on_c, 2, 57, 96
4, 143360, Note_off_c, 2, 57, 0
4, 143360, Note_on_c, 2, 58, 96
4, 144384, Note_off_c, 2, 58, 0
4, 144384, Note_on_c, 2, 60, 96
4, 145408, Note_off_c, 2, 60, 0
4, 145408, Note_on_c, 2, 62, 96
4, 146432, Note_off_c, 2, 62, 0
4, 146432, Note_on_c, 2, 58, 96
4, 147456, Note_off_c, 2, 58, 0
4, 147456, Note_on_c, 2, 60, 96
4, 149504, Note_off_c, 2, 60, 0
4, 150528, Note_on_c, 2, 48, 96
4, 151552, Note_off_c, 2, 48, 0
4, 151552, Note_on_c, 2, 53, 96
4, 152576, Note_off_c, 2, 53, 0
4, 152576, Note_on_c, 2, 45, 96
4, 153088, Note_off_c, 2, 45, 0
4, 153088, Note_on_c, 2, 43, 96
4, 153600, Note_off_c, 2, 43, 0
4, 153600, Note_on_c, 2, 42, 96
4, 154624, Note_off_c, 2, 42, 0
4, 154624, Note_on_c, 2, 50, 96
4, 155648, Note_off_c, 2, 50, 0
4, 155648, Note_on_c, 2, 52, 96
4, 156672, Note_off_c, 2, 52, 0
4, 156672, Note_on_c, 2, 54, 96
4, 157696, Note_off_c, 2, 54, 0
4, 157696, Note_on_c, 2, 55, 96
4, 158208, Note_off_c, 2, 55, 0
4, 158208, Note_on_c, 2, 54, 96
4, 158720, Note_off_c, 2, 54, 0
4, 158720, Note_on_c, 2, 55, 96
4, 159232, Note_off_c, 2, 55, 0
4, 159232, Note_on_c, 2, 57, 96
4, 159744, Note_off_c, 2, 57, 0
4, 159744, Note_on_c, 2, 58, 96
4, 162304, Note_off_c, 2, 58, 0
4, 162304, Note_on_c, 2, 57, 96
4, 162816, Note_off_c, 2, 57, 0
4, 162816, Note_on_c, 2, 55, 96
4, 163328, Note_off_c, 2, 55, 0
4, 163328, Note_on_c, 2, 53, 96
4, 163840, Note_off_c, 2, 53, 0
4, 163840, Note_on_c, 2, 51, 96
4, 164352, Note_off_c, 2, 51, 0
4, 164352, Note_on_c, 2, 53, 96
4, 164864, Note_off_c, 2, 53, 0
4, 164864, Note_on_c, 2, 55, 96
4, 165376, Note_off_c, 2, 55, 0
4, 165376, Note_on_c, 2, 53, 96
4, 165888, Note_off_c, 2, 53, 0
4, 165888, Note_on_c, 2, 51, 96
4, 166400, Note_off_c, 2, 51, 0
4, 166400, Note_on_c, 2, 48, 96
4, 166912, Note_off_c, 2, 48, 0
4, 166912, Note_on_c, 2, 53, 96
4, 167424, Note_off_c, 2, 53, 0
4, 167424, Note_on_c, 2, 51, 96
4, 167936, Note_off_c, 2, 51, 0
4, 167936, Note_on_c, 2, 50, 96
4, 168960, Note_off_c, 2, 50, 0
4, 168960, Note_on_c, 2, 46, 96
4, 169984, Note_off_c, 2, 46, 0
4, 169984, Note_on_c, 2, 51, 96
4, 171008, Note_off_c, 2, 51, 0
4, 171008, Note_on_c, 2, 55, 96
4, 172032, Note_off_c, 2, 55, 0
4, 172032, Note_on_c, 2, 53, 96
4, 173056, Note_off_c, 2, 53, 0
4, 173056, Note_on_c, 2, 51, 96
4, 174080, Note_off_c, 2, 51, 0
4, 174080, Note_on_c, 2, 56, 96
4, 175104, Note_off_c, 2, 56, 0
4, 175104, Note_on_c, 2, 55, 96
4, 176128, Note_off_c, 2, 55, 0
4, 176128, Note_on_c, 2, 53, 96
4, 178176, Note_off_c, 2, 53, 0
4, 179200, Note_on_c, 2, 46, 96
4, 180224, Note_off_c, 2, 46, 0
4, 180224, Note_on_c, 2, 51, 96
4, 181760, Note_off_c, 2, 51, 0
4, 181760, Note_on_c, 2, 53, 96
4, 182272, Note_off_c, 2, 53, 0
4, 182272, Note_on_c, 2, 55, 96
4, 182784, Note_off_c, 2, 55, 0
4, 182784, Note_on_c, 2, 53, 96
4, 183296, Note_off_c, 2, 53, 0
4, 183296, Note_on_c, 2, 55, 96
4, 183808, Note_off_c, 2, 55, 0
4, 183808, Note_on_c, 2, 57, 96
4, 184320, Note_off_c, 2, 57, 0
4, 184320, Note_on_c, 2, 58, 96
4, 185344, Note_off_c, 2, 58, 0
4, 185344, Note_on_c, 2, 62, 96
4, 186368, Note_off_c, 2, 62, 0
4, 186368, Note_on_c, 2, 58, 96
4, 189440, Note_off_c, 2, 58, 0
4, 189440, Note_on_c, 2, 56, 96
4, 189952, Note_off_c, 2, 56, 0
4, 189952, Note_on_c, 2, 55, 96
4, 190464, Note_off_c, 2, 55, 0
4, 190464, Note_on_c, 2, 56, 96
4, 193536, Note_off_c, 2, 56, 0
4, 193536, Note_on_c, 2, 55, 96
4, 194048, Note_off_c, 2, 55, 0
4, 194048, Note_on_c, 2, 53, 96
4, 194560, Note_off_c, 2, 53, 0
4, 194560, Note_on_c, 2, 55, 96
4, 195584, Note_off_c, 2, 55, 0
4, 196608, Note_on_c, 2, 57, 96
4, 197632, Note_off_c, 2, 57, 0
4, 198656, Note_on_c, 2, 58, 96
4, 199680, Note_off_c, 2, 58, 0
4, 199680, Note_on_c, 2, 46, 96
4, 200704, Note_off_c, 2, 46, 0
4, 200704, Note_on_c, 2, 53, 96
4, 201728, Note_off_c, 2, 53, 0
4, 201728, Note_on_c, 2, 57, 96
4, 202752, Note_off_c, 2, 57, 0
4, 202752, Note_on_c, 2, 53, 96
4, 205824, Note_off_c, 2, 53, 0
4, 205824, Note_on_c, 2, 62, 96
4, 206848, Note_off_c, 2, 62, 0
4, 206848, Note_on_c, 2, 53, 96
4, 209920, Note_off_c, 2, 53, 0
4, 209920, Note_on_c, 2, 60, 96
4, 210944, Note_off_c, 2, 60, 0
4, 210944, Note_on_c, 2, 53, 96
4, 214016, Note_off_c, 2, 53, 0
4, 214016, Note_on_c, 2, 58, 96
4, 215040, Note_off_c, 2, 58, 0
4, 215040, Note_on_c, 2, 55, 96
4, 216064, Note_off_c, 2, 55, 0
4, 216064, Note_on_c, 2, 51, 96
4, 216576, Note_off_c, 2, 51, 0
4, 216576, Note_on_c, 2, 48, 96
4, 217088, Note_off_c, 2, 48, 0
4, 217088, Note_on_c, 2, 53, 96
4, 218112, Note_off_c, 2, 53, 0
4, 218112, Note_on_c, 2, 50, 96
4, 218624, Note_off_c, 2, 50, 0
4, 218624, Note_on_c, 2, 46, 96
4, 219136, Note_off_c, 2, 46, 0
4, 219136, Note_on_c, 2, 51, 96
4, 220160, Note_off_c, 2, 51, 0
4, 220160, Note_on_c, 2, 48, 96
4, 220672, Note_off_c, 2, 48, 0
4, 220672, Note_on_c, 2, 45, 96
4, 221184, Note_off_c, 2, 45, 0
4, 221184, Note_on_c, 2, 50, 96
4, 222208, Note_off_c, 2, 50, 0
4, 222208, Note_on_c, 2, 46, 96
4, 222720, Note_off_c, 2, 46, 0
4, 222720, Note_on_c, 2, 43, 96
4, 223232, Note_off_c, 2, 43, 0
4, 223232, Note_on_c, 2, 48, 96
4, 224256, Note_off_c, 2, 48, 0
4, 224256, Note_on_c, 2, 45, 96
4, 224768, Note_off_c, 2, 45, 0
4, 224768, Note_on_c, 2, 41, 96
4, 225280, Note_off_c, 2, 41, 0
4, 225280, Note_on_c, 2, 46, 96
4, 226304, Note_off_c, 2, 46, 0
4, 226304, Note_on_c, 2, 43, 96
4, 227328, Note_off_c, 2, 43, 0
4, 227328, Note_on_c, 2, 45, 96
4, 228352, Note_off_c, 2, 45, 0
4, 228352, Note_on_c, 2, 48, 96
4, 229376, Note_off_c, 2, 48, 0
4, 229376, Note_on_c, 2, 41, 96
4, 231424, Note_off_c, 2, 41, 0
4, 232448, Note_on_c, 2, 53, 96
4, 233472, Note_off_c, 2, 53, 0
4, 233472, Note_on_c, 2, 58, 96
4, 234496, Note_off_c, 2, 58, 0
4, 234496, Note_on_c, 2, 55, 96
4, 235008, Note_off_c, 2, 55, 0
4, 235008, Note_on_c, 2, 51, 96
4, 235520, Note_off_c, 2, 51, 0
4, 235520, Note_on_c, 2, 50, 96
4, 236544, Note_off_c, 2, 50, 0
4, 236544, Note_on_c, 2, 53, 96
4, 237568, Note_off_c, 2, 53, 0
4, 237568, Note_on_c, 2, 46, 96
4, 238592, Note_off_c, 2, 46, 0
4, 240640, Note_on_c, 2, 58, 96
4, 241664, Note_off_c, 2, 58, 0
4, 241664, Note_on_c, 2, 58, 96
4, 242688, Note_off_c, 2, 58, 0
4, 242688, Note_on_c, 2, 62, 96
4, 243712, Note_off_c, 2, 62, 0
4, 243712, Note_on_c, 2, 58, 96
4, 244736, Note_off_c, 2, 58, 0
4, 244736, Note_on_c, 2, 56, 96
4, 245248, Note_off_c, 2, 56, 0
4, 245248, Note_on_c, 2, 55, 96
4, 245760, Note_off_c, 2, 55, 0
4, 245760, Note_on_c, 2, 56, 96
4, 246784, Note_off_c, 2, 56, 0
4, 246784, Note_on_c, 2, 55, 96
4, 247296, Note_off_c, 2, 55, 0
4, 247296, Note_on_c, 2, 53, 96
4, 247808, Note_off_c, 2, 53, 0
4, 247808, Note_on_c, 2, 55, 96
4, 248832, Note_off_c, 2, 55, 0
4, 248832, Note_on_c, 2, 51, 96
4, 249856, Note_off_c, 2, 51, 0
4, 249856, Note_on_c, 2, 56, 96
4, 250880, Note_off_c, 2, 56, 0
4, 250880, Note_on_c, 2, 53, 96
4, 251904, Note_off_c, 2, 53, 0
4, 251904, Note_on_c, 2, 58, 96
4, 252928, Note_off_c, 2, 58, 0
4, 252928, Note_on_c, 2, 46, 96
4, 253952, Note_off_c, 2, 46, 0
4, 253952, Note_on_c, 2, 51, 96
4, 254976, Note_off_c, 2, 51, 0
4, 256000, Note_on_c, 2, 55, 96
4, 257024, Note_off_c, 2, 55, 0
4, 258048, Note_on_c, 2, 57, 96
4, 259072, Note_off_c, 2, 57, 0
4, 260096, Note_on_c, 2, 58, 96
4, 261120, Note_off_c, 2, 58, 0
4, 261120, Note_on_c, 2, 46, 96
4, 262144, Note_off_c, 2, 46, 0
4, 262144, Note_on_c, 2, 53, 96
4, 263168, Note_off_c, 2, 53, 0
4, 263168, Note_on_c, 2, 57, 96
4, 264192, Note_off_c, 2, 57, 0
4, 264192, Note_on_c, 2, 53, 96
4, 267264, Note_off_c, 2, 53, 0
4, 267264, Note_on_c, 2, 62, 96
4, 268288, Note_off_c, 2, 62, 0
4, 268288, Note_on_c, 2, 53, 96
4, 271360, Note_off_c, 2, 53, 0
4, 271360, Note_on_c, 2, 54, 96
4, 272384, Note_off_c, 2, 54, 0
4, 272384, Note_on_c, 2, 55, 96
4, 273408, Note_off_c, 2, 55, 0
4, 273408, Note_on_c, 2, 53, 96
4, 274432, Note_off_c, 2, 53, 0
4, 274432, Note_on_c, 2, 51, 96
4, 275456, Note_off_c, 2, 51, 0
4, 275456, Note_on_c, 2, 50, 96
4, 275968, Note_off_c, 2, 50, 0
4, 275968, Note_on_c, 2, 48, 96
4, 276480, Note_off_c, 2, 48, 0
4, 276480, Note_on_c, 2, 46, 96
4, 277504, Note_off_c, 2, 46, 0
4, 277504, Note_on_c, 2, 50, 96
4, 278528, Note_off_c, 2, 50, 0
4, 278528, Note_on_c, 2, 51, 96
4, 279552, Note_off_c, 2, 51, 0
4, 279552, Note_on_c, 2, 55, 96
4, 280576, Note_off_c, 2, 55, 0
4, 280576, Note_on_c, 2, 53, 96
4, 281600, Note_off_c, 2, 53, 0
4, 281600, Note_on_c, 2, 41, 96
4, 282624, Note_off_c, 2, 41, 0
4, 282624, Note_on_c, 2, 46, 96
4, 283648, Note_off_c, 2, 46, 0
4, 283648, Note_on_c, 2, 50, 96
4, 284672, Note_off_c, 2, 50, 0
4, 284672, Note_on_c, 2, 51, 96
4, 285696, Note_off_c, 2, 51, 0
4, 285696, Note_on_c, 2, 55, 96
4, 286720, Note_off_c, 2, 55, 0
4, 286720, Note_on_c, 2, 48, 96
4, 287744, Note_off_c, 2, 48, 0
4, 287744, Note_on_c, 2, 51, 96
4, 288768, Note_off_c, 2, 51, 0
4, 288768, Note_on_c, 2, 53, 96
4, 289792, Note_off_c, 2, 53, 0
4, 289792, Note_on_c, 2, 55, 96
4, 290816, Note_off_c, 2, 55, 0
4, 290816, Note_on_c, 2, 57, 96
4, 291840, Note_off_c, 2, 57, 0
4, 291840, Note_on_c, 2, 58, 96
4, 292864, Note_off_c, 2, 58, 0
4, 292864, Note_on_c, 2, 57, 96
4, 293888, Note_off_c, 2, 57, 0
4, 293888, Note_on_c, 2, 55, 96
4, 294912, Note_off_c, 2, 55, 0
4, 294912, Note_on_c, 2, 53, 96
4, 296960, Note_off_c, 2, 53, 0
4, 297984, Note_on_c, 2, 53, 96
4, 299008, Note_off_c, 2, 53, 0
4, 299008, Note_on_c, 2, 58, 96
4, 300032, Note_off_c, 2, 58, 0
4, 300032, Note_on_c, 2, 55, 96
4, 300544, Note_off_c, 2, 55, 0
4, 300544, Note_on_c, 2, 51, 96
4, 301056, Note_off_c, 2, 51, 0
4, 301056, Note_on_c, 2, 50, 96
4, 302080, Note_off_c, 2, 50, 0
4, 302080, Note_on_c, 2, 53, 96
4, 303104, Note_off_c, 2, 53, 0
4, 303104, Note_on_c, 2, 46, 96
4, 305152, Note_off_c, 2, 46, 0
4, 306176, Note_on_c, 2, 58, 96
4, 307200, Note_off_c, 2, 58, 0
4, 307200, Note_on_c, 2, 57, 96
4, 308224, Note_off_c, 2, 57, 0
4, 308224, Note_on_c, 2, 60, 96
4, 308736, Note_off_c, 2, 60, 0
4, 308736, Note_on_c, 2, 57, 96
4, 309248, Note_off_c, 2, 57, 0
4, 309248, Note_on_c, 2, 54, 96
4, 310272, Note_off_c, 2, 54, 0
4, 310272, Note_on_c, 2, 50, 96
4, 311296, Note_off_c, 2, 50, 0
4, 311296, Note_on_c, 2, 55, 96
4, 312320, Note_off_c, 2, 55, 0
4, 313344, Note_on_c, 2, 48, 96
4, 314368, Note_off_c, 2, 48, 0
4, 315392, Note_on_c, 2, 53, 96
4, 316416, Note_off_c, 2, 53, 0
4, 317440, Note_on_c, 2, 55, 96
4, 318464, Note_off_c, 2, 55, 0
4, 319488, Note_on_c, 2, 48, 96
4, 320512, Note_off_c, 2, 48, 0
4, 320512, Note_on_c, 2, 52, 96
4, 321536, Note_off_c, 2, 52, 0
4, 321536, Note_on_c, 2, 53, 96
4, 322560, Note_off_c, 2, 53, 0
4, 322560, Note_on_c, 2, 55, 96
4, 323072, Note_off_c, 2, 55, 0
4, 323072, Note_on_c, 2, 57, 96
4, 323584, Note_off_c, 2, 57, 0
4, 323584, Note_on_c, 2, 58, 96
4, 324608, Note_off_c, 2, 58, 0
4, 324608, Note_on_c, 2, 60, 96
4, 325632, Note_off_c, 2, 60, 0
4, 325632, Note_on_c, 2, 62, 96
4, 326656, Note_off_c, 2, 62, 0
4, 326656, Note_on_c, 2, 58, 96
4, 327680, Note_off_c, 2, 58, 0
4, 327680, Note_on_c, 2, 60, 96
4, 329728, Note_off_c, 2, 60, 0
4, 330752, Note_on_c, 2, 48, 96
4, 331776, Note_off_c, 2, 48, 0
4, 331776, Note_on_c, 2, 53, 96
4, 332800, Note_off_c, 2, 53, 0
4, 332800, Note_on_c, 2, 45, 96
4, 333312, Note_off_c, 2, 45, 0
4, 333312, Note_on_c, 2, 43, 96
4, 333824, Note_off_c, 2, 43, 0
4, 333824, Note_on_c, 2, 42, 96
4, 334848, Note_off_c, 2, 42, 0
4, 334848, Note_on_c, 2, 50, 96
4, 335872, Note_off_c, 2, 50, 0
4, 335872, Note_on_c, 2, 52, 96
4, 336896, Note_off_c, 2, 52, 0
4, 336896, Note_on_c, 2, 54, 96
4, 337920, Note_off_c, 2, 54, 0
4, 337920, Note_on_c, 2, 55, 96
4, 338432, Note_off_c, 2, 55, 0
4, 338432, Note_on_c, 2, 54, 96
4, 338944, Note_off_c, 2, 54, 0
4, 338944, Note_on_c, 2, 55, 96
4, 339456, Note_off_c, 2, 55, 0
4, 339456, Note_on_c, 2, 57, 96
4, 339968, Note_off_c, 2, 57, 0
4, 339968, Note_on_c, 2, 58, 96
4, 342528, Note_off_c, 2, 58, 0
4, 342528, Note_on_c, 2, 57, 96
4, 343040, Note_off_c, 2, 57, 0
4, 343040, Note_on_c, 2, 55, 96
4, 343552, Note_off_c, 2, 55, 0
4, 343552, Note_on_c, 2, 53, 96
4, 344064, Note_off_c, 2, 53, 0
4, 344064, Note_on_c, 2, 51, 96
4, 344576, Note_off_c, 2, 51, 0
4, 344576, Note_on_c, 2, 53, 96
4, 345088, Note_off_c, 2, 53, 0
4, 345088, Note_on_c, 2, 55, 96
4, 345600, Note_off_c, 2, 55, 0
4, 345600, Note_on_c, 2, 53, 96
4, 346112, Note_off_c, 2, 53, 0
4, 346112, Note_on_c, 2, 51, 96
4, 346624, Note_off_c, 2, 51, 0
4, 346624, Note_on_c, 2, 48, 96
4, 347136, Note_off_c, 2, 48, 0
4, 347136, Note_on_c, 2, 53, 96
4, 347648, Note_off_c, 2, 53, 0
4, 347648, Note_on_c, 2, 51, 96
4, 348160, Note_off_c, 2, 51, 0
4, 348160, Note_on_c, 2, 50, 96
4, 349184, Note_off_c, 2, 50, 0
4, 349184, Note_on_c, 2, 46, 96
4, 350208, Note_off_c, 2, 46, 0
4, 350208, Note_on_c, 2, 51, 96
4, 351232, Note_off_c, 2, 51, 0
4, 351232, Note_on_c, 2, 55, 96
4, 352256, Note_off_c, 2, 55, 0
4, 352256, Note_on_c, 2, 53, 96
4, 353280, Note_off_c, 2, 53, 0
4, 353280, Note_on_c, 2, 51, 96
4, 354304, Note_off_c, 2, 51, 0
4, 354304, Note_on_c, 2, 56, 96
4, 355328, Note_off_c, 2, 56, 0
4, 355328, Note_on_c, 2, 55, 96
4, 356352, Note_off_c, 2, 55, 0
4, 356352, Note_on_c, 2, 53, 96
4, 358400, Note_off_c, 2, 53, 0
4, 359424, Note_on_c, 2, 46, 96
4, 360448, Note_off_c, 2, 46, 0
4, 360448, Note_on_c, 2, 51, 96
4, 361984, Note_off_c, 2, 51, 0
4, 361984, Note_on_c, 2, 53, 96
4, 362496, Note_off_c, 2, 53, 0
4, 362496, Note_on_c, 2, 55, 96
4, 363008, Note_off_c, 2, 55, 0
4, 363008, Note_on_c, 2, 53, 96
4, 363520, Note_off_c, 2, 53, 0
4, 363520, Note_on_c, 2, 55, 96
4, 364032, Note_off_c, 2, 55, 0
4, 364032, Note_on_c, 2, 57, 96
4, 364544, Note_off_c, 2, 57, 0
4, 364544, Note_on_c, 2, 58, 96
4, 365056, Note_off_c, 2, 58, 0
4, 365056, Note_on_c, 2, 56, 96
4, 365568, Note_off_c, 2, 56, 0
4, 365568, Note_on_c, 2, 55, 96
4, 366080, Note_off_c, 2, 55, 0
4, 366080, Note_on_c, 2, 53, 96
4, 366592, Note_off_c, 2, 53, 0
4, 366592, Note_on_c, 2, 51, 96
4, 367616, Note_off_c, 2, 51, 0
4, 367616, Note_on_c, 2, 55, 96
4, 368640, Note_off_c, 2, 55, 0
4, 368640, Note_on_c, 2, 53, 96
4, 369664, Note_off_c, 2, 53, 0
4, 369664, Note_on_c, 2, 57, 96
4, 370688, Note_off_c, 2, 57, 0
4, 370688, Note_on_c, 2, 53, 96
4, 373760, Note_off_c, 2, 53, 0
4, 373760, Note_on_c, 2, 62, 96
4, 374784, Note_off_c, 2, 62, 0
4, 374784, Note_on_c, 2, 53, 96
4, 377856, Note_off_c, 2, 53, 0
4, 377856, Note_on_c, 2, 60, 96
4, 378880, Note_off_c, 2, 60, 0
4, 378880, Note_on_c, 2, 53, 96
4, 381952, Note_off_c, 2, 53, 0
4, 381952, Note_on_c, 2, 58, 96
4, 382976, Note_off_c, 2, 58, 0
4, 382976, Note_on_c, 2, 55, 96
4, 384000, Note_off_c, 2, 55, 0
4, 384000, Note_on_c, 2, 51, 96
4, 384512, Note_off_c, 2, 51, 0
4, 384512, Note_on_c, 2, 48, 96
4, 385024, Note_off_c, 2, 48, 0
4, 385024, Note_on_c, 2, 53, 96
4, 386048, Note_off_c, 2, 53, 0
4, 386048, Note_on_c, 2, 50, 96
4, 386560, Note_off_c, 2, 50, 0
4, 386560, Note_on_c, 2, 46, 96
4, 387072, Note_off_c, 2, 46, 0
4, 387072, Note_on_c, 2, 51, 96
4, 388096, Note_off_c, 2, 51, 0
4, 388096, Note_on_c, 2, 48, 96
4, 388608, Note_off_c, 2, 48, 0
4, 388608, Note_on_c, 2, 45, 96
4, 389120, Note_off_c, 2, 45, 0
4, 389120, Note_on_c, 2, 50, 96
4, 390144, Note_off_c, 2, 50, 0
4, 390144, Note_on_c, 2, 46, 96
4, 390656, Note_off_c, 2, 46, 0
4, 390656, Note_on_c, 2, 43, 96
4, 391168, Note_off_c, 2, 43, 0
4, 391168, Note_on_c, 2, 48, 96
4, 392192, Note_off_c, 2, 48, 0
4, 392192, Note_on_c, 2, 45, 96
4, 392704, Note_off_c, 2, 45, 0
4, 392704, Note_on_c, 2, 41, 96
4, 393216, Note_off_c, 2, 41, 0
4, 393216, Note_on_c, 2, 46, 96
4, 394240, Note_off_c, 2, 46, 0
4, 394240, Note_on_c, 2, 43, 96
4, 395264, Note_off_c, 2, 43, 0
4, 395264, Note_on_c, 2, 45, 96
4, 396288, Note_off_c, 2, 45, 0
4, 396288, Note_on_c, 2, 48, 96
4, 397312, Note_off_c, 2, 48, 0
4, 397312, Note_on_c, 2, 41, 96
4, 399360, Note_off_c, 2, 41, 0
4, 400384, Note_on_c, 2, 53, 96
4, 401408, Note_off_c, 2, 53, 0
4, 401408, Note_on_c, 2, 58, 96
4, 402432, Note_off_c, 2, 58, 0
4, 402432, Note_on_c, 2, 55, 96
4, 402944, Note_off_c, 2, 55, 0
4, 402944, Note_on_c, 2, 51, 96
4, 403456, Note_off_c, 2, 51, 0
4, 403456, Note_on_c, 2, 50, 96
4, 404480, Note_off_c, 2, 50, 0
4, 404480, Note_on_c, 2, 53, 96
4, 405504, Note_off_c, 2, 53, 0
4, 405504, Note_on_c, 2, 46, 96
4, 409600, Note_off_c, 2, 46, 0
4, 409600, End_track
0, 0, End_of_file
