0, 0, Header, 1, 5, 240
1, 0, Start_track
1, 0, Time_signature, 4, 2, 24, 8
1, 0, Key_signature, 0, "major"
1, 0, Tempo, 1000000
1, 71280, Tempo, 1052631
1, 71520, Tempo, 1090909
1, 71640, Tempo, 1132075
1, 71760, Tempo, 1250000
1, 71880, Tempo, 1363636
1, 72000, Tempo, 1250000
1, 72000, End_track
2, 0, Start_track
2, 0, MIDI_port, 0
2, 0, Title_t, "1"
2, 0, Program_c, 0, 6
2, 11640, Note_on_c, 0, 71, 64
2, 11760, Note_on_c, 0, 71, 0
2, 11760, Note_on_c, 0, 69, 64
2, 11880, Note_on_c, 0, 69, 0
2, 11880, Note_on_c, 0, 66, 64
2, 12000, Note_on_c, 0, 66, 0
2, 12000, Note_on_c, 0, 74, 64
2, 12120, Note_on_c, 0, 74, 0
2, 12120, Note_on_c, 0, 71, 64
2, 12240, Note_on_c, 0, 71, 0
2, 12240, Note_on_c, 0, 76, 64
2, 12360, Note_on_c, 0, 76, 0
2, 12360, Note_on_c, 0, 75, 64
2, 12480, Note_on_c, 0, 75, 0
2, 12480, Note_on_c, 0, 69, 64
2, 12600, Note_on_c, 0, 69, 0
2, 12600, Note_on_c, 0, 68, 64
2, 12720, Note_on_c, 0, 68, 0
2, 12720, Note_on_c, 0, 77, 64
2, 12840, Note_on_c, 0, 77, 0
2, 12840, Note_on_c, 0, 76, 64
2, 12960, Note_on_c, 0, 76, 0
2, 12960, Note_on_c, 0, 71, 64
2, 13080, Note_on_c, 0, 71, 0
2, 13080, Note_on_c, 0, 70, 64
2, 13200, Note_on_c, 0, 70, 0
2, 13200, Note_on_c, 0, 79, 64
2, 13320, Note_on_c, 0, 79, 0
2, 13320, Note_on_c, 0, 78, 64
2, 13440, Note_on_c, 0, 78, 0
2, 13440, Note_on_c, 0, 77, 64
2, 13560, Note_on_c, 0, 77, 0
2, 13560, Note_on_c, 0, 78, 64
2, 13680, Note_on_c, 0, 78, 0
2, 13680, Note_on_c, 0, 74, 64
2, 13800, Note_on_c, 0, 74, 0
2, 13800, Note_on_c, 0, 71, 64
2, 13920, Note_on_c, 0, 71, 0
2, 13920, Note_on_c, 0, 73, 64
2, 14450, Note_on_c, 0, 73, 0
2, 14460, Note_on_c, 0, 73, 64
2, 14520, Note_on_c, 0, 73, 0
2, 14520, Note_on_c, 0, 74, 64
2, 14580, Note_on_c, 0, 74, 0
2, 14580, Note_on_c, 0, 76, 64
2, 14640, Note_on_c, 0, 76, 0
2, 14640, Note_on_c, 0, 78, 64
2, 14700, Note_on_c, 0, 78, 0
2, 14700, Note_on_c, 0, 79, 64
2, 14760, Note_on_c, 0, 79, 0
2, 14760, Note_on_c, 0, 71, 64
2, 14820, Note_on_c, 0, 71, 0
2, 14820, Note_on_c, 0, 70, 64
2, 14880, Note_on_c, 0, 70, 0
2, 14880, Note_on_c, 0, 71, 64
2, 15420, Note_on_c, 0, 71, 0
2, 15420, Note_on_c, 0, 65, 64
2, 15480, Note_on_c, 0, 65, 0
2, 15480, Note_on_c, 0, 66, 64
2, 15540, Note_on_c, 0, 66, 0
2, 15540, Note_on_c, 0, 68, 64
2, 15600, Note_on_c, 0, 68, 0
2, 15600, Note_on_c, 0, 69, 64
2, 15660, Note_on_c, 0, 69, 0
2, 15660, Note_on_c, 0, 71, 64
2, 15720, Note_on_c, 0, 71, 0
2, 15720, Note_on_c, 0, 73, 64
2, 15780, Note_on_c, 0, 73, 0
2, 15780, Note_on_c, 0, 66, 64
2, 15840, Note_on_c, 0, 66, 0
2, 15840, Note_on_c, 0, 74, 64
2, 15900, Note_on_c, 0, 74, 0
2, 15900, Note_on_c, 0, 76, 64
2, 15960, Note_on_c, 0, 76, 0
2, 15960, Note_on_c, 0, 78, 64
2, 16200, Note_on_c, 0, 78, 0
2, 16200, Note_on_c, 0, 76, 64
2, 16260, Note_on_c, 0, 76, 0
2, 16260, Note_on_c, 0, 74, 64
2, 16320, Note_on_c, 0, 74, 0
2, 16320, Note_on_c, 0, 73, 64
2, 16380, Note_on_c, 0, 73, 0
2, 16380, Note_on_c, 0, 74, 64
2, 16440, Note_on_c, 0, 74, 0
2, 16440, Note_on_c, 0, 76, 64
2, 16680, Note_on_c, 0, 76, 0
2, 16680, Note_on_c, 0, 74, 64
2, 16740, Note_on_c, 0, 74, 0
2, 16740, Note_on_c, 0, 73, 64
2, 16800, Note_on_c, 0, 73, 0
2, 16800, Note_on_c, 0, 71, 64
2, 16860, Note_on_c, 0, 71, 0
2, 16860, Note_on_c, 0, 73, 64
2, 16920, Note_on_c, 0, 73, 0
2, 16920, Note_on_c, 0, 74, 64
2, 17160, Note_on_c, 0, 74, 0
2, 17160, Note_on_c, 0, 73, 64
2, 17220, Note_on_c, 0, 73, 0
2, 17220, Note_on_c, 0, 71, 64
2, 17280, Note_on_c, 0, 71, 0
2, 17280, Note_on_c, 0, 69, 64
2, 17520, Note_on_c, 0, 69, 0
2, 17640, Note_on_c, 0, 78, 64
2, 17880, Note_on_c, 0, 78, 0
2, 17880, Note_on_c, 0, 76, 64
2, 17940, Note_on_c, 0, 76, 0
2, 17940, Note_on_c, 0, 74, 64
2, 18000, Note_on_c, 0, 74, 0
2, 18000, Note_on_c, 0, 73, 64
2, 18060, Note_on_c, 0, 73, 0
2, 18060, Note_on_c, 0, 74, 64
2, 18120, Note_on_c, 0, 74, 0
2, 18120, Note_on_c, 0, 76, 64
2, 18360, Note_on_c, 0, 76, 0
2, 18360, Note_on_c, 0, 74, 64
2, 18420, Note_on_c, 0, 74, 0
2, 18420, Note_on_c, 0, 73, 64
2, 18480, Note_on_c, 0, 73, 0
2, 18480, Note_on_c, 0, 71, 64
2, 18540, Note_on_c, 0, 71, 0
2, 18540, Note_on_c, 0, 73, 64
2, 18600, Note_on_c, 0, 73, 0
2, 18600, Note_on_c, 0, 74, 64
2, 18840, Note_on_c, 0, 74, 0
2, 18840, Note_on_c, 0, 73, 64
2, 18900, Note_on_c, 0, 73, 0
2, 18900, Note_on_c, 0, 71, 64
2, 18960, Note_on_c, 0, 71, 0
2, 18960, Note_on_c, 0, 70, 64
2, 19020, Note_on_c, 0, 70, 0
2, 19020, Note_on_c, 0, 71, 64
2, 19080, Note_on_c, 0, 71, 0
2, 19080, Note_on_c, 0, 73, 64
2, 19320, Note_on_c, 0, 73, 0
2, 19320, Note_on_c, 0, 71, 64
2, 19380, Note_on_c, 0, 71, 0
2, 19380, Note_on_c, 0, 70, 64
2, 19440, Note_on_c, 0, 70, 0
2, 19440, Note_on_c, 0, 71, 64
2, 19740, Note_on_c, 0, 71, 0
2, 19740, Note_on_c, 0, 70, 64
2, 19800, Note_on_c, 0, 70, 0
2, 19800, Note_on_c, 0, 71, 64
2, 19860, Note_on_c, 0, 71, 0
2, 19860, Note_on_c, 0, 74, 64
2, 19920, Note_on_c, 0, 74, 0
2, 19920, Note_on_c, 0, 73, 64
2, 20160, Note_on_c, 0, 73, 0
2, 20160, Note_on_c, 0, 71, 64
2, 20400, Note_on_c, 0, 71, 0
2, 20400, Note_on_c, 0, 69, 64
2, 20640, Note_on_c, 0, 69, 0
2, 20640, Note_on_c, 0, 68, 64
2, 20880, Note_on_c, 0, 68, 0
2, 20880, Note_on_c, 0, 66, 64
2, 21240, Note_on_c, 0, 66, 0
2, 21240, Note_on_c, 0, 65, 64
2, 21360, Note_on_c, 0, 65, 0
2, 21360, Note_on_c, 0, 66, 64
2, 21480, Note_on_c, 0, 66, 0
2, 21480, Note_on_c, 0, 66, 64
2, 21660, Note_on_c, 0, 66, 0
2, 21660, Note_on_c, 0, 68, 64
2, 21720, Note_on_c, 0, 68, 0
2, 21720, Note_on_c, 0, 69, 64
2, 21780, Note_on_c, 0, 69, 0
2, 21780, Note_on_c, 0, 71, 64
2, 21840, Note_on_c, 0, 71, 0
2, 21840, Note_on_c, 0, 73, 64
2, 21900, Note_on_c, 0, 73, 0
2, 21900, Note_on_c, 0, 74, 64
2, 21960, Note_on_c, 0, 74, 0
2, 21960, Note_on_c, 0, 66, 64
2, 22020, Note_on_c, 0, 66, 0
2, 22020, Note_on_c, 0, 65, 64
2, 22080, Note_on_c, 0, 65, 0
2, 22080, Note_on_c, 0, 66, 64
2, 22320, Note_on_c, 0, 66, 0
2, 22320, Note_on_c, 0, 78, 64
2, 22680, Note_on_c, 0, 78, 0
2, 22680, Note_on_c, 0, 76, 64
2, 22800, Note_on_c, 0, 76, 0
2, 22800, Note_on_c, 0, 75, 64
2, 22920, Note_on_c, 0, 75, 0
2, 22920, Note_on_c, 0, 78, 64
2, 23040, Note_on_c, 0, 78, 0
2, 23040, Note_on_c, 0, 79, 64
2, 23640, Note_on_c, 0, 79, 0
2, 23640, Note_on_c, 0, 78, 64
2, 23760, Note_on_c, 0, 78, 0
2, 23760, Note_on_c, 0, 77, 64
2, 23880, Note_on_c, 0, 77, 0
2, 23880, Note_on_c, 0, 80, 64
2, 24000, Note_on_c, 0, 80, 0
2, 24000, Note_on_c, 0, 73, 64
2, 24120, Note_on_c, 0, 73, 0
2, 24120, Note_on_c, 0, 74, 64
2, 24180, Note_on_c, 0, 74, 0
2, 24180, Note_on_c, 0, 76, 64
2, 24240, Note_on_c, 0, 76, 0
2, 24240, Note_on_c, 0, 74, 64
2, 24300, Note_on_c, 0, 74, 0
2, 24300, Note_on_c, 0, 76, 64
2, 24360, Note_on_c, 0, 76, 0
2, 24360, Note_on_c, 0, 78, 64
2, 24600, Note_on_c, 0, 78, 0
2, 24600, Note_on_c, 0, 76, 64
2, 24660, Note_on_c, 0, 76, 0
2, 24660, Note_on_c, 0, 74, 64
2, 24720, Note_on_c, 0, 74, 0
2, 24720, Note_on_c, 0, 73, 64
2, 24780, Note_on_c, 0, 73, 0
2, 24780, Note_on_c, 0, 74, 64
2, 24840, Note_on_c, 0, 74, 0
2, 24840, Note_on_c, 0, 76, 64
2, 25080, Note_on_c, 0, 76, 0
2, 25080, Note_on_c, 0, 74, 64
2, 25140, Note_on_c, 0, 74, 0
2, 25140, Note_on_c, 0, 73, 64
2, 25200, Note_on_c, 0, 73, 0
2, 25200, Note_on_c, 0, 71, 64
2, 25260, Note_on_c, 0, 71, 0
2, 25260, Note_on_c, 0, 73, 64
2, 25320, Note_on_c, 0, 73, 0
2, 25320, Note_on_c, 0, 74, 64
2, 25560, Note_on_c, 0, 74, 0
2, 25560, Note_on_c, 0, 73, 64
2, 25620, Note_on_c, 0, 73, 0
2, 25620, Note_on_c, 0, 71, 64
2, 25680, Note_on_c, 0, 71, 0
2, 25680, Note_on_c, 0, 70, 64
2, 25740, Note_on_c, 0, 70, 0
2, 25740, Note_on_c, 0, 71, 64
2, 25800, Note_on_c, 0, 71, 0
2, 25800, Note_on_c, 0, 73, 64
2, 26040, Note_on_c, 0, 73, 0
2, 26040, Note_on_c, 0, 71, 64
2, 26160, Note_on_c, 0, 71, 0
2, 26280, Note_on_c, 0, 83, 64
2, 26520, Note_on_c, 0, 83, 0
2, 26520, Note_on_c, 0, 81, 64
2, 26580, Note_on_c, 0, 81, 0
2, 26580, Note_on_c, 0, 79, 64
2, 26640, Note_on_c, 0, 79, 0
2, 26640, Note_on_c, 0, 78, 64
2, 26700, Note_on_c, 0, 78, 0
2, 26700, Note_on_c, 0, 79, 64
2, 26760, Note_on_c, 0, 79, 0
2, 26760, Note_on_c, 0, 81, 64
2, 27000, Note_on_c, 0, 81, 0
2, 27000, Note_on_c, 0, 79, 64
2, 27060, Note_on_c, 0, 79, 0
2, 27060, Note_on_c, 0, 78, 64
2, 27120, Note_on_c, 0, 78, 0
2, 27120, Note_on_c, 0, 76, 64
2, 27180, Note_on_c, 0, 76, 0
2, 27180, Note_on_c, 0, 78, 64
2, 27240, Note_on_c, 0, 78, 0
2, 27240, Note_on_c, 0, 79, 64
2, 27480, Note_on_c, 0, 79, 0
2, 27480, Note_on_c, 0, 78, 64
2, 27540, Note_on_c, 0, 78, 0
2, 27540, Note_on_c, 0, 76, 64
2, 27600, Note_on_c, 0, 76, 0
2, 27600, Note_on_c, 0, 75, 64
2, 27660, Note_on_c, 0, 75, 0
2, 27660, Note_on_c, 0, 76, 64
2, 27720, Note_on_c, 0, 76, 0
2, 27720, Note_on_c, 0, 78, 64
2, 27960, Note_on_c, 0, 78, 0
2, 27960, Note_on_c, 0, 76, 64
2, 28020, Note_on_c, 0, 76, 0
2, 28020, Note_on_c, 0, 75, 64
2, 28080, Note_on_c, 0, 75, 0
2, 28080, Note_on_c, 0, 76, 64
2, 28140, Note_on_c, 0, 76, 0
2, 28140, Note_on_c, 0, 78, 64
2, 28200, Note_on_c, 0, 78, 0
2, 28200, Note_on_c, 0, 79, 64
2, 28260, Note_on_c, 0, 79, 0
2, 28260, Note_on_c, 0, 83, 64
2, 28320, Note_on_c, 0, 83, 0
2, 28320, Note_on_c, 0, 81, 64
2, 28440, Note_on_c, 0, 81, 0
2, 28440, Note_on_c, 0, 79, 64
2, 28560, Note_on_c, 0, 79, 0
2, 28560, Note_on_c, 0, 78, 64
2, 28800, Note_on_c, 0, 78, 0
2, 28800, Note_on_c, 0, 76, 64
2, 29040, Note_on_c, 0, 76, 0
2, 29040, Note_on_c, 0, 74, 64
2, 29280, Note_on_c, 0, 74, 0
2, 29280, Note_on_c, 0, 73, 64
2, 29520, Note_on_c, 0, 73, 0
2, 29580, Note_on_c, 0, 73, 64
2, 29640, Note_on_c, 0, 73, 0
2, 29640, Note_on_c, 0, 74, 64
2, 29700, Note_on_c, 0, 74, 0
2, 29700, Note_on_c, 0, 76, 64
2, 29760, Note_on_c, 0, 76, 0
2, 29760, Note_on_c, 0, 74, 64
2, 29820, Note_on_c, 0, 74, 0
2, 29820, Note_on_c, 0, 73, 64
2, 30000, Note_on_c, 0, 73, 0
2, 30000, Note_on_c, 0, 71, 64
2, 30300, Note_on_c, 0, 71, 0
2, 30300, Note_on_c, 0, 73, 64
2, 30360, Note_on_c, 0, 73, 0
2, 30360, Note_on_c, 0, 74, 64
2, 30420, Note_on_c, 0, 74, 0
2, 30420, Note_on_c, 0, 76, 64
2, 30480, Note_on_c, 0, 76, 0
2, 30480, Note_on_c, 0, 78, 64
2, 30540, Note_on_c, 0, 78, 0
2, 30540, Note_on_c, 0, 79, 64
2, 30600, Note_on_c, 0, 79, 0
2, 30600, Note_on_c, 0, 71, 64
2, 30660, Note_on_c, 0, 71, 0
2, 30660, Note_on_c, 0, 70, 64
2, 30720, Note_on_c, 0, 70, 0
2, 30720, Note_on_c, 0, 74, 64
2, 31200, Note_on_c, 0, 74, 0
2, 31200, Note_on_c, 0, 73, 64
2, 31560, Note_on_c, 0, 73, 0
2, 31560, Note_on_c, 0, 75, 64
2, 31680, Note_on_c, 0, 75, 0
2, 31680, Note_on_c, 0, 77, 64
2, 31920, Note_on_c, 0, 77, 0
2, 32040, Note_on_c, 0, 78, 64
2, 32220, Note_on_c, 0, 78, 0
2, 32220, Note_on_c, 0, 77, 64
2, 32280, Note_on_c, 0, 77, 0
2, 32280, Note_on_c, 0, 78, 64
2, 32340, Note_on_c, 0, 78, 0
2, 32340, Note_on_c, 0, 81, 64
2, 32400, Note_on_c, 0, 81, 0
2, 32400, Note_on_c, 0, 80, 64
2, 32640, Note_on_c, 0, 80, 0
2, 32760, Note_on_c, 0, 78, 64
2, 32880, Note_on_c, 0, 78, 0
2, 32880, Note_on_c, 0, 74, 64
2, 33000, Note_on_c, 0, 74, 0
2, 33120, Note_on_c, 0, 79, 64
2, 33240, Note_on_c, 0, 79, 0
2, 33240, Note_on_c, 0, 78, 64
2, 33360, Note_on_c, 0, 78, 0
2, 33360, Note_on_c, 0, 83, 64
2, 33480, Note_on_c, 0, 83, 0
2, 33480, Note_on_c, 0, 82, 64
2, 33600, Note_on_c, 0, 82, 0
2, 33600, Note_on_c, 0, 76, 64
2, 33720, Note_on_c, 0, 76, 0
2, 33720, Note_on_c, 0, 75, 64
2, 33840, Note_on_c, 0, 75, 0
2, 33840, Note_on_c, 0, 79, 64
2, 34140, Note_on_c, 0, 79, 0
2, 34140, Note_on_c, 0, 78, 64
2, 34200, Note_on_c, 0, 78, 0
2, 34200, Note_on_c, 0, 80, 64
2, 34260, Note_on_c, 0, 80, 0
2, 34260, Note_on_c, 0, 82, 64
2, 34320, Note_on_c, 0, 82, 0
2, 34320, Note_on_c, 0, 83, 64
2, 34380, Note_on_c, 0, 83, 0
2, 34380, Note_on_c, 0, 79, 64
2, 34440, Note_on_c, 0, 79, 0
2, 34440, Note_on_c, 0, 78, 64
2, 34500, Note_on_c, 0, 78, 0
2, 34500, Note_on_c, 0, 77, 64
2, 34560, Note_on_c, 0, 77, 0
2, 34560, Note_on_c, 0, 78, 64
2, 34800, Note_on_c, 0, 78, 0
2, 34800, Note_on_c, 0, 77, 64
2, 35100, Note_on_c, 0, 77, 0
2, 35100, Note_on_c, 0, 76, 64
2, 35160, Note_on_c, 0, 76, 0
2, 35160, Note_on_c, 0, 78, 64
2, 35220, Note_on_c, 0, 78, 0
2, 35220, Note_on_c, 0, 80, 64
2, 35280, Note_on_c, 0, 80, 0
2, 35280, Note_on_c, 0, 81, 64
2, 35340, Note_on_c, 0, 81, 0
2, 35340, Note_on_c, 0, 83, 64
2, 35400, Note_on_c, 0, 83, 0
2, 35400, Note_on_c, 0, 76, 64
2, 35460, Note_on_c, 0, 76, 0
2, 35460, Note_on_c, 0, 75, 64
2, 35520, Note_on_c, 0, 75, 0
2, 35520, Note_on_c, 0, 76, 64
2, 35580, Note_on_c, 0, 76, 0
2, 35580, Note_on_c, 0, 66, 64
2, 35640, Note_on_c, 0, 66, 0
2, 35700, Note_on_c, 0, 69, 64
2, 35760, Note_on_c, 0, 69, 0
2, 35760, Note_on_c, 0, 71, 64
2, 35820, Note_on_c, 0, 71, 0
2, 35820, Note_on_c, 0, 73, 64
2, 35880, Note_on_c, 0, 73, 0
2, 35880, Note_on_c, 0, 74, 64
2, 35940, Note_on_c, 0, 74, 0
2, 35940, Note_on_c, 0, 78, 64
2, 36000, Note_on_c, 0, 78, 0
2, 36000, Note_on_c, 0, 76, 64
2, 36060, Note_on_c, 0, 76, 0
2, 36060, Note_on_c, 0, 73, 64
2, 36120, Note_on_c, 0, 73, 0
2, 36120, Note_on_c, 0, 74, 64
2, 36180, Note_on_c, 0, 74, 0
2, 36180, Note_on_c, 0, 78, 64
2, 36240, Note_on_c, 0, 78, 0
2, 36240, Note_on_c, 0, 79, 64
2, 36300, Note_on_c, 0, 79, 0
2, 36300, Note_on_c, 0, 76, 64
2, 36360, Note_on_c, 0, 76, 0
2, 36360, Note_on_c, 0, 78, 64
2, 36420, Note_on_c, 0, 78, 0
2, 36420, Note_on_c, 0, 82, 64
2, 36480, Note_on_c, 0, 82, 0
2, 36480, Note_on_c, 0, 83, 64
2, 36720, Note_on_c, 0, 83, 0
2, 36720, Note_on_c, 0, 81, 64
2, 36960, Note_on_c, 0, 81, 0
2, 36960, Note_on_c, 0, 80, 64
2, 37200, Note_on_c, 0, 80, 0
2, 37200, Note_on_c, 0, 78, 64
2, 37500, Note_on_c, 0, 78, 0
2, 37500, Note_on_c, 0, 77, 64
2, 37560, Note_on_c, 0, 77, 0
2, 37560, Note_on_c, 0, 78, 64
2, 37620, Note_on_c, 0, 78, 0
2, 37620, Note_on_c, 0, 77, 64
2, 37680, Note_on_c, 0, 77, 0
2, 37680, Note_on_c, 0, 78, 64
2, 37980, Note_on_c, 0, 78, 0
2, 38040, Note_on_c, 0, 71, 64
2, 38100, Note_on_c, 0, 71, 0
2, 38100, Note_on_c, 0, 73, 64
2, 38160, Note_on_c, 0, 73, 0
2, 38160, Note_on_c, 0, 74, 64
2, 38220, Note_on_c, 0, 74, 0
2, 38220, Note_on_c, 0, 76, 64
2, 38280, Note_on_c, 0, 76, 0
2, 38280, Note_on_c, 0, 66, 64
2, 38340, Note_on_c, 0, 66, 0
2, 38340, Note_on_c, 0, 65, 64
2, 38400, Note_on_c, 0, 65, 0
2, 38400, Note_on_c, 0, 66, 64
2, 38520, Note_on_c, 0, 66, 0
2, 38520, Note_on_c, 0, 78, 64
2, 38640, Note_on_c, 0, 78, 0
2, 38640, Note_on_c, 0, 74, 64
2, 38760, Note_on_c, 0, 74, 0
2, 38880, Note_on_c, 0, 79, 64
2, 39000, Note_on_c, 0, 79, 0
2, 39000, Note_on_c, 0, 78, 64
2, 39120, Note_on_c, 0, 78, 0
2, 39120, Note_on_c, 0, 83, 64
2, 39240, Note_on_c, 0, 83, 0
2, 39240, Note_on_c, 0, 82, 64
2, 39360, Note_on_c, 0, 82, 0
2, 39360, Note_on_c, 0, 76, 64
2, 39480, Note_on_c, 0, 76, 0
2, 39480, Note_on_c, 0, 75, 64
2, 39600, Note_on_c, 0, 75, 0
2, 39720, Note_on_c, 0, 76, 64
2, 39900, Note_on_c, 0, 76, 0
2, 39900, Note_on_c, 0, 75, 64
2, 39960, Note_on_c, 0, 75, 0
2, 39960, Note_on_c, 0, 76, 64
2, 40020, Note_on_c, 0, 76, 0
2, 40020, Note_on_c, 0, 79, 64
2, 40080, Note_on_c, 0, 79, 0
2, 40080, Note_on_c, 0, 78, 64
2, 40320, Note_on_c, 0, 78, 0
2, 40320, Note_on_c, 0, 76, 64
2, 40380, Note_on_c, 0, 76, 0
2, 40380, Note_on_c, 0, 74, 64
2, 40440, Note_on_c, 0, 74, 0
2, 40440, Note_on_c, 0, 73, 64
2, 40500, Note_on_c, 0, 73, 0
2, 40500, Note_on_c, 0, 71, 64
2, 40560, Note_on_c, 0, 71, 0
2, 40620, Note_on_c, 0, 71, 64
2, 40680, Note_on_c, 0, 71, 0
2, 40680, Note_on_c, 0, 73, 64
2, 40740, Note_on_c, 0, 73, 0
2, 40740, Note_on_c, 0, 76, 64
2, 40800, Note_on_c, 0, 76, 0
2, 40800, Note_on_c, 0, 74, 64
2, 40860, Note_on_c, 0, 74, 0
2, 40860, Note_on_c, 0, 71, 64
2, 40920, Note_on_c, 0, 71, 0
2, 40920, Note_on_c, 0, 73, 64
2, 40980, Note_on_c, 0, 73, 0
2, 40980, Note_on_c, 0, 76, 64
2, 41040, Note_on_c, 0, 76, 0
2, 41040, Note_on_c, 0, 78, 64
2, 41100, Note_on_c, 0, 78, 0
2, 41100, Note_on_c, 0, 74, 64
2, 41160, Note_on_c, 0, 74, 0
2, 41160, Note_on_c, 0, 76, 64
2, 41220, Note_on_c, 0, 76, 0
2, 41220, Note_on_c, 0, 80, 64
2, 41280, Note_on_c, 0, 80, 0
2, 41280, Note_on_c, 0, 81, 64
2, 41340, Note_on_c, 0, 81, 0
2, 41340, Note_on_c, 0, 79, 64
2, 41400, Note_on_c, 0, 79, 0
2, 41400, Note_on_c, 0, 78, 64
2, 41460, Note_on_c, 0, 78, 0
2, 41460, Note_on_c, 0, 76, 64
2, 41520, Note_on_c, 0, 76, 0
2, 41520, Note_on_c, 0, 74, 64
2, 41580, Note_on_c, 0, 74, 0
2, 41580, Note_on_c, 0, 73, 64
2, 41640, Note_on_c, 0, 73, 0
2, 41640, Note_on_c, 0, 71, 64
2, 41700, Note_on_c, 0, 71, 0
2, 41700, Note_on_c, 0, 69, 64
2, 41760, Note_on_c, 0, 69, 0
2, 41760, Note_on_c, 0, 67, 64
2, 41820, Note_on_c, 0, 67, 0
2, 41820, Note_on_c, 0, 64, 64
2, 41880, Note_on_c, 0, 64, 0
2, 41880, Note_on_c, 0, 66, 64
2, 41940, Note_on_c, 0, 66, 0
2, 41940, Note_on_c, 0, 69, 64
2, 42000, Note_on_c, 0, 69, 0
2, 42000, Note_on_c, 0, 71, 64
2, 42060, Note_on_c, 0, 71, 0
2, 42060, Note_on_c, 0, 67, 64
2, 42120, Note_on_c, 0, 67, 0
2, 42120, Note_on_c, 0, 69, 64
2, 42180, Note_on_c, 0, 69, 0
2, 42180, Note_on_c, 0, 73, 64
2, 42240, Note_on_c, 0, 73, 0
2, 42240, Note_on_c, 0, 74, 64
2, 42300, Note_on_c, 0, 74, 0
2, 42300, Note_on_c, 0, 76, 64
2, 42360, Note_on_c, 0, 76, 0
2, 42420, Note_on_c, 0, 76, 64
2, 42480, Note_on_c, 0, 76, 0
2, 42480, Note_on_c, 0, 78, 64
2, 42540, Note_on_c, 0, 78, 0
2, 42540, Note_on_c, 0, 79, 64
2, 42600, Note_on_c, 0, 79, 0
2, 42600, Note_on_c, 0, 81, 64
2, 42660, Note_on_c, 0, 81, 0
2, 42660, Note_on_c, 0, 78, 64
2, 42720, Note_on_c, 0, 78, 0
2, 42720, Note_on_c, 0, 74, 64
2, 42780, Note_on_c, 0, 74, 0
2, 42780, Note_on_c, 0, 77, 64
2, 42840, Note_on_c, 0, 77, 0
2, 42840, Note_on_c, 0, 76, 64
2, 42900, Note_on_c, 0, 76, 0
2, 42900, Note_on_c, 0, 74, 64
2, 42960, Note_on_c, 0, 74, 0
2, 42960, Note_on_c, 0, 72, 64
2, 43020, Note_on_c, 0, 72, 0
2, 43020, Note_on_c, 0, 71, 64
2, 43080, Note_on_c, 0, 71, 0
2, 43080, Note_on_c, 0, 72, 64
2, 43140, Note_on_c, 0, 72, 0
2, 43140, Note_on_c, 0, 74, 64
2, 43200, Note_on_c, 0, 74, 0
2, 43200, Note_on_c, 0, 72, 64
2, 43260, Note_on_c, 0, 72, 0
2, 43260, Note_on_c, 0, 71, 64
2, 43440, Note_on_c, 0, 71, 0
2, 43440, Note_on_c, 0, 69, 64
2, 43800, Note_on_c, 0, 69, 0
2, 43800, Note_on_c, 0, 74, 64
2, 43860, Note_on_c, 0, 74, 0
2, 43860, Note_on_c, 0, 76, 64
2, 43920, Note_on_c, 0, 76, 0
2, 43920, Note_on_c, 0, 78, 64
2, 43980, Note_on_c, 0, 78, 0
2, 43980, Note_on_c, 0, 79, 64
2, 44040, Note_on_c, 0, 79, 0
2, 44040, Note_on_c, 0, 69, 64
2, 44100, Note_on_c, 0, 69, 0
2, 44100, Note_on_c, 0, 68, 64
2, 44160, Note_on_c, 0, 68, 0
2, 44160, Note_on_c, 0, 76, 64
2, 44220, Note_on_c, 0, 76, 0
2, 44220, Note_on_c, 0, 78, 64
2, 44280, Note_on_c, 0, 78, 0
2, 44280, Note_on_c, 0, 67, 64
2, 44340, Note_on_c, 0, 67, 0
2, 44340, Note_on_c, 0, 66, 64
2, 44400, Note_on_c, 0, 66, 0
2, 44400, Note_on_c, 0, 74, 64
2, 44460, Note_on_c, 0, 74, 0
2, 44460, Note_on_c, 0, 76, 64
2, 44520, Note_on_c, 0, 76, 0
2, 44520, Note_on_c, 0, 66, 64
2, 44580, Note_on_c, 0, 66, 0
2, 44580, Note_on_c, 0, 64, 64
2, 44640, Note_on_c, 0, 64, 0
2, 44640, Note_on_c, 0, 73, 64
2, 44700, Note_on_c, 0, 73, 0
2, 44700, Note_on_c, 0, 71, 64
2, 44760, Note_on_c, 0, 71, 0
2, 44760, Note_on_c, 0, 73, 64
2, 44820, Note_on_c, 0, 73, 0
2, 44820, Note_on_c, 0, 74, 64
2, 44880, Note_on_c, 0, 74, 0
2, 44880, Note_on_c, 0, 76, 64
2, 44940, Note_on_c, 0, 76, 0
2, 44940, Note_on_c, 0, 78, 64
2, 45000, Note_on_c, 0, 78, 0
2, 45000, Note_on_c, 0, 79, 64
2, 45060, Note_on_c, 0, 79, 0
2, 45060, Note_on_c, 0, 76, 64
2, 45120, Note_on_c, 0, 76, 0
2, 45120, Note_on_c, 0, 81, 64
2, 45600, Note_on_c, 0, 81, 0
2, 45600, Note_on_c, 0, 79, 64
2, 45840, Note_on_c, 0, 79, 0
2, 45840, Note_on_c, 0, 77, 64
2, 46080, Note_on_c, 0, 77, 0
2, 46080, Note_on_c, 0, 76, 64
2, 46320, Note_on_c, 0, 76, 0
2, 46320, Note_on_c, 0, 74, 64
2, 46620, Note_on_c, 0, 74, 0
2, 46620, Note_on_c, 0, 73, 64
2, 46680, Note_on_c, 0, 73, 0
2, 46680, Note_on_c, 0, 74, 64
2, 46740, Note_on_c, 0, 74, 0
2, 46740, Note_on_c, 0, 73, 64
2, 46800, Note_on_c, 0, 73, 0
2, 46800, Note_on_c, 0, 74, 64
2, 47100, Note_on_c, 0, 74, 0
2, 47100, Note_on_c, 0, 76, 64
2, 47160, Note_on_c, 0, 76, 0
2, 47160, Note_on_c, 0, 78, 64
2, 47220, Note_on_c, 0, 78, 0
2, 47220, Note_on_c, 0, 79, 64
2, 47280, Note_on_c, 0, 79, 0
2, 47280, Note_on_c, 0, 81, 64
2, 47340, Note_on_c, 0, 81, 0
2, 47340, Note_on_c, 0, 83, 64
2, 47400, Note_on_c, 0, 83, 0
2, 47400, Note_on_c, 0, 74, 64
2, 47460, Note_on_c, 0, 74, 0
2, 47460, Note_on_c, 0, 73, 64
2, 47520, Note_on_c, 0, 73, 0
2, 47520, Note_on_c, 0, 74, 64
2, 48240, Note_on_c, 0, 74, 0
2, 48240, Note_on_c, 0, 73, 64
2, 48360, Note_on_c, 0, 73, 0
2, 48360, Note_on_c, 0, 78, 64
2, 48540, Note_on_c, 0, 78, 0
2, 48540, Note_on_c, 0, 71, 64
2, 48600, Note_on_c, 0, 71, 0
2, 48600, Note_on_c, 0, 73, 64
2, 48660, Note_on_c, 0, 73, 0
2, 48660, Note_on_c, 0, 74, 64
2, 48720, Note_on_c, 0, 74, 0
2, 48720, Note_on_c, 0, 76, 64
2, 48780, Note_on_c, 0, 76, 0
2, 48780, Note_on_c, 0, 78, 64
2, 48840, Note_on_c, 0, 78, 0
2, 48840, Note_on_c, 0, 71, 64
2, 48900, Note_on_c, 0, 71, 0
2, 48900, Note_on_c, 0, 70, 64
2, 48960, Note_on_c, 0, 70, 0
2, 48960, Note_on_c, 0, 74, 64
2, 49200, Note_on_c, 0, 74, 0
2, 49200, Note_on_c, 0, 73, 64
2, 49320, Note_on_c, 0, 73, 0
2, 49320, Note_on_c, 0, 71, 64
2, 49440, Note_on_c, 0, 71, 0
2, 49440, Note_on_c, 0, 73, 64
2, 49920, Note_on_c, 0, 73, 0
2, 49980, Note_on_c, 0, 66, 64
2, 50040, Note_on_c, 0, 66, 0
2, 50040, Note_on_c, 0, 68, 64
2, 50100, Note_on_c, 0, 68, 0
2, 50100, Note_on_c, 0, 69, 64
2, 50160, Note_on_c, 0, 69, 0
2, 50160, Note_on_c, 0, 71, 64
2, 50220, Note_on_c, 0, 71, 0
2, 50220, Note_on_c, 0, 73, 64
2, 50280, Note_on_c, 0, 73, 0
2, 50280, Note_on_c, 0, 66, 64
2, 50340, Note_on_c, 0, 66, 0
2, 50340, Note_on_c, 0, 65, 64
2, 50400, Note_on_c, 0, 65, 0
2, 50400, Note_on_c, 0, 69, 64
2, 50640, Note_on_c, 0, 69, 0
2, 51120, Note_on_c, 0, 80, 64
2, 51360, Note_on_c, 0, 80, 0
2, 51360, Note_on_c, 0, 78, 64
2, 51600, Note_on_c, 0, 78, 0
2, 51600, Note_on_c, 0, 76, 64
2, 51840, Note_on_c, 0, 76, 0
2, 51840, Note_on_c, 0, 75, 64
2, 52080, Note_on_c, 0, 75, 0
2, 52080, Note_on_c, 0, 73, 64
2, 52440, Note_on_c, 0, 73, 0
2, 52440, Note_on_c, 0, 72, 64
2, 52560, Note_on_c, 0, 72, 0
2, 52560, Note_on_c, 0, 73, 64
2, 52860, Note_on_c, 0, 73, 0
2, 52860, Note_on_c, 0, 75, 64
2, 52920, Note_on_c, 0, 75, 0
2, 52920, Note_on_c, 0, 76, 64
2, 52980, Note_on_c, 0, 76, 0
2, 52980, Note_on_c, 0, 78, 64
2, 53040, Note_on_c, 0, 78, 0
2, 53040, Note_on_c, 0, 80, 64
2, 53100, Note_on_c, 0, 80, 0
2, 53100, Note_on_c, 0, 81, 64
2, 53160, Note_on_c, 0, 81, 0
2, 53160, Note_on_c, 0, 73, 64
2, 53220, Note_on_c, 0, 73, 0
2, 53220, Note_on_c, 0, 72, 64
2, 53280, Note_on_c, 0, 72, 0
2, 53280, Note_on_c, 0, 76, 64
2, 53810, Note_on_c, 0, 76, 0
2, 53820, Note_on_c, 0, 76, 64
2, 53880, Note_on_c, 0, 76, 0
2, 53880, Note_on_c, 0, 78, 64
2, 53940, Note_on_c, 0, 78, 0
2, 53940, Note_on_c, 0, 80, 64
2, 54000, Note_on_c, 0, 80, 0
2, 54000, Note_on_c, 0, 81, 64
2, 54060, Note_on_c, 0, 81, 0
2, 54060, Note_on_c, 0, 83, 64
2, 54120, Note_on_c, 0, 83, 0
2, 54120, Note_on_c, 0, 75, 64
2, 54180, Note_on_c, 0, 75, 0
2, 54180, Note_on_c, 0, 73, 64
2, 54240, Note_on_c, 0, 73, 0
2, 54240, Note_on_c, 0, 75, 64
2, 54480, Note_on_c, 0, 75, 0
2, 54960, Note_on_c, 0, 78, 64
2, 55200, Note_on_c, 0, 78, 0
2, 55200, Note_on_c, 0, 76, 64
2, 55440, Note_on_c, 0, 76, 0
2, 55440, Note_on_c, 0, 74, 64
2, 55680, Note_on_c, 0, 74, 0
2, 55680, Note_on_c, 0, 73, 64
2, 55920, Note_on_c, 0, 73, 0
2, 55920, Note_on_c, 0, 71, 64
2, 56220, Note_on_c, 0, 71, 0
2, 56220, Note_on_c, 0, 70, 64
2, 56280, Note_on_c, 0, 70, 0
2, 56280, Note_on_c, 0, 71, 64
2, 56340, Note_on_c, 0, 71, 0
2, 56340, Note_on_c, 0, 70, 64
2, 56400, Note_on_c, 0, 70, 0
2, 56400, Note_on_c, 0, 71, 64
2, 56700, Note_on_c, 0, 71, 0
2, 56700, Note_on_c, 0, 73, 64
2, 56760, Note_on_c, 0, 73, 0
2, 56760, Note_on_c, 0, 74, 64
2, 56820, Note_on_c, 0, 74, 0
2, 56820, Note_on_c, 0, 76, 64
2, 56880, Note_on_c, 0, 76, 0
2, 56880, Note_on_c, 0, 78, 64
2, 56940, Note_on_c, 0, 78, 0
2, 56940, Note_on_c, 0, 79, 64
2, 57000, Note_on_c, 0, 79, 0
2, 57000, Note_on_c, 0, 71, 64
2, 57060, Note_on_c, 0, 71, 0
2, 57060, Note_on_c, 0, 70, 64
2, 57120, Note_on_c, 0, 70, 0
2, 57120, Note_on_c, 0, 74, 64
2, 57420, Note_on_c, 0, 74, 0
2, 57420, Note_on_c, 0, 73, 64
2, 57480, Note_on_c, 0, 73, 0
2, 57480, Note_on_c, 0, 74, 64
2, 57540, Note_on_c, 0, 74, 0
2, 57540, Note_on_c, 0, 73, 64
2, 57600, Note_on_c, 0, 73, 0
2, 57600, Note_on_c, 0, 76, 64
2, 57660, Note_on_c, 0, 76, 0
2, 57660, Note_on_c, 0, 74, 64
2, 57720, Note_on_c, 0, 74, 0
2, 57720, Note_on_c, 0, 78, 64
2, 57780, Note_on_c, 0, 78, 0
2, 57780, Note_on_c, 0, 76, 64
2, 57840, Note_on_c, 0, 76, 0
2, 57840, Note_on_c, 0, 79, 64
2, 58260, Note_on_c, 0, 79, 0
2, 58260, Note_on_c, 0, 78, 64
2, 58320, Note_on_c, 0, 78, 0
2, 58320, Note_on_c, 0, 81, 64
2, 58740, Note_on_c, 0, 81, 0
2, 58740, Note_on_c, 0, 80, 64
2, 58800, Note_on_c, 0, 80, 0
2, 58800, Note_on_c, 0, 83, 64
2, 58920, Note_on_c, 0, 83, 0
2, 58920, Note_on_c, 0, 81, 64
2, 59040, Note_on_c, 0, 81, 0
2, 59040, Note_on_c, 0, 80, 64
2, 59340, Note_on_c, 0, 80, 0
2, 59340, Note_on_c, 0, 77, 64
2, 59400, Note_on_c, 0, 77, 0
2, 59400, Note_on_c, 0, 78, 64
2, 59580, Note_on_c, 0, 78, 0
2, 59580, Note_on_c, 0, 78, 64
2, 59640, Note_on_c, 0, 78, 0
2, 59640, Note_on_c, 0, 80, 64
2, 59700, Note_on_c, 0, 80, 0
2, 59700, Note_on_c, 0, 81, 64
2, 59760, Note_on_c, 0, 81, 0
2, 59760, Note_on_c, 0, 83, 64
2, 59820, Note_on_c, 0, 83, 0
2, 59820, Note_on_c, 0, 80, 64
2, 59880, Note_on_c, 0, 80, 0
2, 59880, Note_on_c, 0, 78, 64
2, 59940, Note_on_c, 0, 78, 0
2, 59940, Note_on_c, 0, 77, 64
2, 60000, Note_on_c, 0, 77, 0
2, 60000, Note_on_c, 0, 81, 64
2, 61020, Note_on_c, 0, 81, 0
2, 61020, Note_on_c, 0, 78, 64
2, 61080, Note_on_c, 0, 78, 0
2, 61080, Note_on_c, 0, 79, 64
2, 61140, Note_on_c, 0, 79, 0
2, 61140, Note_on_c, 0, 81, 64
2, 61200, Note_on_c, 0, 81, 0
2, 61200, Note_on_c, 0, 83, 64
2, 61260, Note_on_c, 0, 83, 0
2, 61260, Note_on_c, 0, 84, 64
2, 61320, Note_on_c, 0, 84, 0
2, 61320, Note_on_c, 0, 78, 64
2, 61380, Note_on_c, 0, 78, 0
2, 61380, Note_on_c, 0, 76, 64
2, 61440, Note_on_c, 0, 76, 0
2, 61440, Note_on_c, 0, 78, 64
2, 61730, Note_on_c, 0, 78, 0
2, 61740, Note_on_c, 0, 78, 64
2, 61800, Note_on_c, 0, 78, 0
2, 61800, Note_on_c, 0, 74, 64
2, 61860, Note_on_c, 0, 74, 0
2, 61860, Note_on_c, 0, 71, 64
2, 61920, Note_on_c, 0, 71, 0
2, 61920, Note_on_c, 0, 79, 64
2, 61980, Note_on_c, 0, 79, 0
2, 61980, Note_on_c, 0, 81, 64
2, 62040, Note_on_c, 0, 81, 0
2, 62040, Note_on_c, 0, 83, 64
2, 62280, Note_on_c, 0, 83, 0
2, 62280, Note_on_c, 0, 81, 64
2, 62340, Note_on_c, 0, 81, 0
2, 62340, Note_on_c, 0, 79, 64
2, 62400, Note_on_c, 0, 79, 0
2, 62400, Note_on_c, 0, 78, 64
2, 62460, Note_on_c, 0, 78, 0
2, 62460, Note_on_c, 0, 79, 64
2, 62520, Note_on_c, 0, 79, 0
2, 62520, Note_on_c, 0, 81, 64
2, 62760, Note_on_c, 0, 81, 0
2, 62760, Note_on_c, 0, 79, 64
2, 62820, Note_on_c, 0, 79, 0
2, 62820, Note_on_c, 0, 78, 64
2, 62880, Note_on_c, 0, 78, 0
2, 62880, Note_on_c, 0, 76, 64
2, 62940, Note_on_c, 0, 76, 0
2, 62940, Note_on_c, 0, 78, 64
2, 63000, Note_on_c, 0, 78, 0
2, 63000, Note_on_c, 0, 79, 64
2, 63240, Note_on_c, 0, 79, 0
2, 63240, Note_on_c, 0, 78, 64
2, 63300, Note_on_c, 0, 78, 0
2, 63300, Note_on_c, 0, 76, 64
2, 63360, Note_on_c, 0, 76, 0
2, 63360, Note_on_c, 0, 74, 64
2, 63660, Note_on_c, 0, 74, 0
2, 63660, Note_on_c, 0, 76, 64
2, 63720, Note_on_c, 0, 76, 0
2, 63720, Note_on_c, 0, 78, 64
2, 63960, Note_on_c, 0, 78, 0
2, 63960, Note_on_c, 0, 76, 64
2, 64020, Note_on_c, 0, 76, 0
2, 64020, Note_on_c, 0, 74, 64
2, 64080, Note_on_c, 0, 74, 0
2, 64080, Note_on_c, 0, 73, 64
2, 64140, Note_on_c, 0, 73, 0
2, 64140, Note_on_c, 0, 74, 64
2, 64200, Note_on_c, 0, 74, 0
2, 64200, Note_on_c, 0, 76, 64
2, 64440, Note_on_c, 0, 76, 0
2, 64440, Note_on_c, 0, 74, 64
2, 64500, Note_on_c, 0, 74, 0
2, 64500, Note_on_c, 0, 73, 64
2, 64560, Note_on_c, 0, 73, 0
2, 64560, Note_on_c, 0, 71, 64
2, 64620, Note_on_c, 0, 71, 0
2, 64620, Note_on_c, 0, 73, 64
2, 64680, Note_on_c, 0, 73, 0
2, 64680, Note_on_c, 0, 74, 64
2, 64920, Note_on_c, 0, 74, 0
2, 64920, Note_on_c, 0, 73, 64
2, 64980, Note_on_c, 0, 73, 0
2, 64980, Note_on_c, 0, 71, 64
2, 65040, Note_on_c, 0, 71, 0
2, 65040, Note_on_c, 0, 70, 64
2, 65100, Note_on_c, 0, 70, 0
2, 65100, Note_on_c, 0, 71, 64
2, 65160, Note_on_c, 0, 71, 0
2, 65160, Note_on_c, 0, 73, 64
2, 65340, Note_on_c, 0, 73, 0
2, 65340, Note_on_c, 0, 66, 64
2, 65400, Note_on_c, 0, 66, 0
2, 65400, Note_on_c, 0, 68, 64
2, 65460, Note_on_c, 0, 68, 0
2, 65460, Note_on_c, 0, 70, 64
2, 65520, Note_on_c, 0, 70, 0
2, 65580, Note_on_c, 0, 73, 64
2, 65640, Note_on_c, 0, 73, 0
2, 65640, Note_on_c, 0, 74, 64
2, 65700, Note_on_c, 0, 74, 0
2, 65700, Note_on_c, 0, 78, 64
2, 65760, Note_on_c, 0, 78, 0
2, 65760, Note_on_c, 0, 76, 64
2, 65820, Note_on_c, 0, 76, 0
2, 65820, Note_on_c, 0, 73, 64
2, 65880, Note_on_c, 0, 73, 0
2, 65880, Note_on_c, 0, 74, 64
2, 65940, Note_on_c, 0, 74, 0
2, 65940, Note_on_c, 0, 78, 64
2, 66000, Note_on_c, 0, 78, 0
2, 66000, Note_on_c, 0, 79, 64
2, 66060, Note_on_c, 0, 79, 0
2, 66060, Note_on_c, 0, 76, 64
2, 66120, Note_on_c, 0, 76, 0
2, 66120, Note_on_c, 0, 78, 64
2, 66180, Note_on_c, 0, 78, 0
2, 66180, Note_on_c, 0, 82, 64
2, 66240, Note_on_c, 0, 82, 0
2, 66240, Note_on_c, 0, 83, 64
2, 66300, Note_on_c, 0, 83, 0
2, 66300, Note_on_c, 0, 81, 64
2, 66360, Note_on_c, 0, 81, 0
2, 66360, Note_on_c, 0, 79, 64
2, 66420, Note_on_c, 0, 79, 0
2, 66420, Note_on_c, 0, 78, 64
2, 66480, Note_on_c, 0, 78, 0
2, 66480, Note_on_c, 0, 76, 64
2, 66540, Note_on_c, 0, 76, 0
2, 66540, Note_on_c, 0, 74, 64
2, 66600, Note_on_c, 0, 74, 0
2, 66600, Note_on_c, 0, 72, 64
2, 66660, Note_on_c, 0, 72, 0
2, 66660, Note_on_c, 0, 71, 64
2, 66720, Note_on_c, 0, 71, 0
2, 66720, Note_on_c, 0, 69, 64
2, 66780, Note_on_c, 0, 69, 0
2, 66780, Note_on_c, 0, 66, 64
2, 66840, Note_on_c, 0, 66, 0
2, 66840, Note_on_c, 0, 67, 64
2, 66900, Note_on_c, 0, 67, 0
2, 66900, Note_on_c, 0, 71, 64
2, 66960, Note_on_c, 0, 71, 0
2, 66960, Note_on_c, 0, 72, 64
2, 67020, Note_on_c, 0, 72, 0
2, 67020, Note_on_c, 0, 69, 64
2, 67080, Note_on_c, 0, 69, 0
2, 67140, Note_on_c, 0, 75, 64
2, 67200, Note_on_c, 0, 75, 0
2, 67200, Note_on_c, 0, 76, 64
2, 67440, Note_on_c, 0, 76, 0
2, 67440, Note_on_c, 0, 74, 64
2, 67680, Note_on_c, 0, 74, 0
2, 67680, Note_on_c, 0, 73, 64
2, 67920, Note_on_c, 0, 73, 0
2, 67920, Note_on_c, 0, 71, 64
2, 68220, Note_on_c, 0, 71, 0
2, 68220, Note_on_c, 0, 70, 64
2, 68280, Note_on_c, 0, 70, 0
2, 68280, Note_on_c, 0, 71, 64
2, 68340, Note_on_c, 0, 71, 0
2, 68340, Note_on_c, 0, 70, 64
2, 68400, Note_on_c, 0, 70, 0
2, 68400, Note_on_c, 0, 71, 64
2, 68700, Note_on_c, 0, 71, 0
2, 68700, Note_on_c, 0, 73, 64
2, 68760, Note_on_c, 0, 73, 0
2, 68760, Note_on_c, 0, 74, 64
2, 68820, Note_on_c, 0, 74, 0
2, 68820, Note_on_c, 0, 76, 64
2, 68880, Note_on_c, 0, 76, 0
2, 68880, Note_on_c, 0, 78, 64
2, 68940, Note_on_c, 0, 78, 0
2, 68940, Note_on_c, 0, 79, 64
2, 69000, Note_on_c, 0, 79, 0
2, 69000, Note_on_c, 0, 71, 64
2, 69060, Note_on_c, 0, 71, 0
2, 69060, Note_on_c, 0, 70, 64
2, 69120, Note_on_c, 0, 70, 0
2, 69120, Note_on_c, 0, 71, 64
2, 69180, Note_on_c, 0, 71, 0
2, 69180, Note_on_c, 0, 74, 64
2, 69240, Note_on_c, 0, 74, 0
2, 69240, Note_on_c, 0, 76, 64
2, 69300, Note_on_c, 0, 76, 0
2, 69300, Note_on_c, 0, 78, 64
2, 69360, Note_on_c, 0, 78, 0
2, 69360, Note_on_c, 0, 79, 64
2, 69420, Note_on_c, 0, 79, 0
2, 69420, Note_on_c, 0, 81, 64
2, 69480, Note_on_c, 0, 81, 0
2, 69480, Note_on_c, 0, 72, 64
2, 69540, Note_on_c, 0, 72, 0
2, 69540, Note_on_c, 0, 71, 64
2, 69600, Note_on_c, 0, 71, 0
2, 69600, Note_on_c, 0, 72, 64
2, 69660, Note_on_c, 0, 72, 0
2, 69660, Note_on_c, 0, 76, 64
2, 69720, Note_on_c, 0, 76, 0
2, 69720, Note_on_c, 0, 78, 64
2, 69780, Note_on_c, 0, 78, 0
2, 69780, Note_on_c, 0, 79, 64
2, 69840, Note_on_c, 0, 79, 0
2, 69840, Note_on_c, 0, 82, 64
2, 69900, Note_on_c, 0, 82, 0
2, 69900, Note_on_c, 0, 83, 64
2, 69960, Note_on_c, 0, 83, 0
2, 69960, Note_on_c, 0, 74, 64
2, 70020, Note_on_c, 0, 74, 0
2, 70020, Note_on_c, 0, 73, 64
2, 70080, Note_on_c, 0, 73, 0
2, 70080, Note_on_c, 0, 74, 64
2, 70560, Note_on_c, 0, 74, 0
2, 70560, Note_on_c, 0, 73, 64
2, 71280, Note_on_c, 0, 73, 0
2, 71280, Note_on_c, 0, 72, 64
2, 71340, Note_on_c, 0, 72, 0
2, 71340, Note_on_c, 0, 70, 64
2, 71400, Note_on_c, 0, 70, 0
2, 71400, Note_on_c, 0, 71, 64
2, 71760, Note_on_c, 0, 71, 0
2, 71760, Note_on_c, 0, 70, 64
2, 72000, Note_on_c, 0, 70, 0
2, 72000, Note_on_c, 0, 71, 64
2, 72960, Note_on_c, 0, 71, 0
2, 72960, End_track
3, 0, Start_track
3, 0, MIDI_port, 0
3, 0, Title_t, "2"
3, 0, Program_c, 1, 6
3, 120, Note_on_c, 1, 66, 64
3, 240, Note_on_c, 1, 66, 0
3, 240, Note_on_c, 1, 62, 64
3, 360, Note_on_c, 1, 62, 0
3, 360, Note_on_c, 1, 59, 64
3, 480, Note_on_c, 1, 59, 0
3, 480, Note_on_c, 1, 67, 64
3, 600, Note_on_c, 1, 67, 0
3, 600, Note_on_c, 1, 66, 64
3, 700, Note_on_c, 1, 66, 0
3, 720, Note_on_c, 1, 71, 64
3, 840, Note_on_c, 1, 71, 0
3, 840, Note_on_c, 1, 70, 64
3, 940, Note_on_c, 1, 70, 0
3, 960, Note_on_c, 1, 64, 64
3, 1080, Note_on_c, 1, 64, 0
3, 1080, Note_on_c, 1, 63, 64
3, 1180, Note_on_c, 1, 63, 0
3, 1200, Note_on_c, 1, 72, 64
3, 1320, Note_on_c, 1, 72, 0
3, 1320, Note_on_c, 1, 71, 64
3, 1420, Note_on_c, 1, 71, 0
3, 1440, Note_on_c, 1, 66, 64
3, 1560, Note_on_c, 1, 66, 0
3, 1560, Note_on_c, 1, 65, 64
3, 1660, Note_on_c, 1, 65, 0
3, 1680, Note_on_c, 1, 74, 64
3, 1800, Note_on_c, 1, 74, 0
3, 1800, Note_on_c, 1, 73, 64
3, 1900, Note_on_c, 1, 73, 0
3, 1920, Note_on_c, 1, 72, 64
3, 2040, Note_on_c, 1, 72, 0
3, 2040, Note_on_c, 1, 73, 64
3, 2160, Note_on_c, 1, 73, 0
3, 2160, Note_on_c, 1, 69, 64
3, 2280, Note_on_c, 1, 69, 0
3, 2280, Note_on_c, 1, 66, 64
3, 2400, Note_on_c, 1, 66, 0
3, 2400, Note_on_c, 1, 69, 68
3, 2415, Note_on_c, 1, 69, 0
3, 2415, Note_on_c, 1, 68, 48
3, 2430, Note_on_c, 1, 68, 0
3, 2430, Note_on_c, 1, 69, 48
3, 2445, Note_on_c, 1, 69, 0
3, 2445, Note_on_c, 1, 68, 49
3, 2460, Note_on_c, 1, 68, 0
3, 2460, Note_on_c, 1, 69, 49
3, 2475, Note_on_c, 1, 69, 0
3, 2475, Note_on_c, 1, 68, 50
3, 2490, Note_on_c, 1, 68, 0
3, 2490, Note_on_c, 1, 69, 50
3, 2505, Note_on_c, 1, 69, 0
3, 2505, Note_on_c, 1, 68, 51
3, 2520, Note_on_c, 1, 68, 0
3, 2520, Note_on_c, 1, 69, 51
3, 2535, Note_on_c, 1, 69, 0
3, 2535, Note_on_c, 1, 68, 52
3, 2550, Note_on_c, 1, 68, 0
3, 2550, Note_on_c, 1, 69, 52
3, 2565, Note_on_c, 1, 69, 0
3, 2565, Note_on_c, 1, 68, 53
3, 2580, Note_on_c, 1, 68, 0
3, 2580, Note_on_c, 1, 69, 53
3, 2595, Note_on_c, 1, 69, 0
3, 2595, Note_on_c, 1, 68, 54
3, 2610, Note_on_c, 1, 68, 0
3, 2610, Note_on_c, 1, 69, 54
3, 2625, Note_on_c, 1, 69, 0
3, 2625, Note_on_c, 1, 68, 55
3, 2640, Note_on_c, 1, 68, 0
3, 2640, Note_on_c, 1, 69, 56
3, 2655, Note_on_c, 1, 69, 0
3, 2655, Note_on_c, 1, 68, 56
3, 2670, Note_on_c, 1, 68, 0
3, 2670, Note_on_c, 1, 69, 57
3, 2685, Note_on_c, 1, 69, 0
3, 2685, Note_on_c, 1, 68, 57
3, 2700, Note_on_c, 1, 68, 0
3, 2700, Note_on_c, 1, 69, 58
3, 2715, Note_on_c, 1, 69, 0
3, 2715, Note_on_c, 1, 68, 58
3, 2730, Note_on_c, 1, 68, 0
3, 2730, Note_on_c, 1, 69, 59
3, 2745, Note_on_c, 1, 69, 0
3, 2745, Note_on_c, 1, 68, 59
3, 2760, Note_on_c, 1, 68, 0
3, 2760, Note_on_c, 1, 69, 60
3, 2775, Note_on_c, 1, 69, 0
3, 2775, Note_on_c, 1, 68, 60
3, 2790, Note_on_c, 1, 68, 0
3, 2790, Note_on_c, 1, 69, 61
3, 2805, Note_on_c, 1, 69, 0
3, 2805, Note_on_c, 1, 68, 61
3, 2820, Note_on_c, 1, 68, 0
3, 2820, Note_on_c, 1, 69, 62
3, 2835, Note_on_c, 1, 69, 0
3, 2835, Note_on_c, 1, 68, 62
3, 2850, Note_on_c, 1, 68, 0
3, 2850, Note_on_c, 1, 69, 63
3, 2865, Note_on_c, 1, 69, 0
3, 2865, Note_on_c, 1, 68, 63
3, 2880, Note_on_c, 1, 68, 0
3, 2880, Note_on_c, 1, 66, 64
3, 3060, Note_on_c, 1, 66, 0
3, 3060, Note_on_c, 1, 65, 64
3, 3120, Note_on_c, 1, 65, 0
3, 3120, Note_on_c, 1, 66, 64
3, 3180, Note_on_c, 1, 66, 0
3, 3180, Note_on_c, 1, 68, 64
3, 3240, Note_on_c, 1, 68, 0
3, 3240, Note_on_c, 1, 69, 64
3, 3300, Note_on_c, 1, 69, 0
3, 3300, Note_on_c, 1, 73, 64
3, 3360, Note_on_c, 1, 73, 0
3, 3360, Note_on_c, 1, 71, 64
3, 3420, Note_on_c, 1, 71, 0
3, 3420, Note_on_c, 1, 68, 64
3, 3480, Note_on_c, 1, 68, 0
3, 3480, Note_on_c, 1, 69, 64
3, 3540, Note_on_c, 1, 69, 0
3, 3540, Note_on_c, 1, 72, 64
3, 3600, Note_on_c, 1, 72, 0
3, 3600, Note_on_c, 1, 78, 64
3, 3840, Note_on_c, 1, 78, 0
3, 3840, Note_on_c, 1, 76, 64
3, 4080, Note_on_c, 1, 76, 0
3, 4080, Note_on_c, 1, 74, 64
3, 4320, Note_on_c, 1, 74, 0
3, 4320, Note_on_c, 1, 73, 64
3, 4560, Note_on_c, 1, 73, 0
3, 4560, Note_on_c, 1, 71, 64
3, 4920, Note_on_c, 1, 71, 0
3, 4920, Note_on_c, 1, 70, 64
3, 5040, Note_on_c, 1, 70, 0
3, 5040, Note_on_c, 1, 71, 64
3, 5340, Note_on_c, 1, 71, 0
3, 5340, Note_on_c, 1, 73, 64
3, 5400, Note_on_c, 1, 73, 0
3, 5400, Note_on_c, 1, 74, 64
3, 5460, Note_on_c, 1, 74, 0
3, 5460, Note_on_c, 1, 76, 64
3, 5520, Note_on_c, 1, 76, 0
3, 5520, Note_on_c, 1, 78, 64
3, 5580, Note_on_c, 1, 78, 0
3, 5580, Note_on_c, 1, 79, 64
3, 5640, Note_on_c, 1, 79, 0
3, 5640, Note_on_c, 1, 71, 64
3, 5700, Note_on_c, 1, 71, 0
3, 5700, Note_on_c, 1, 70, 64
3, 5760, Note_on_c, 1, 70, 0
3, 5760, Note_on_c, 1, 74, 64
3, 6360, Note_on_c, 1, 74, 0
3, 6360, Note_on_c, 1, 72, 64
3, 6480, Note_on_c, 1, 72, 0
3, 6480, Note_on_c, 1, 71, 64
3, 6600, Note_on_c, 1, 71, 0
3, 6600, Note_on_c, 1, 75, 64
3, 6720, Note_on_c, 1, 75, 0
3, 6720, Note_on_c, 1, 76, 64
3, 7320, Note_on_c, 1, 76, 0
3, 7320, Note_on_c, 1, 74, 64
3, 7440, Note_on_c, 1, 74, 0
3, 7440, Note_on_c, 1, 73, 64
3, 7560, Note_on_c, 1, 73, 0
3, 7560, Note_on_c, 1, 77, 64
3, 7680, Note_on_c, 1, 77, 0
3, 7680, Note_on_c, 1, 78, 64
3, 7860, Note_on_c, 1, 78, 0
3, 7860, Note_on_c, 1, 79, 64
3, 7920, Note_on_c, 1, 79, 0
3, 7920, Note_on_c, 1, 78, 64
3, 7980, Note_on_c, 1, 78, 0
3, 7980, Note_on_c, 1, 76, 64
3, 8040, Note_on_c, 1, 76, 0
3, 8040, Note_on_c, 1, 74, 64
3, 8100, Note_on_c, 1, 74, 0
3, 8100, Note_on_c, 1, 71, 64
3, 8160, Note_on_c, 1, 71, 0
3, 8160, Note_on_c, 1, 73, 64
3, 8220, Note_on_c, 1, 73, 0
3, 8220, Note_on_c, 1, 76, 64
3, 8280, Note_on_c, 1, 76, 0
3, 8280, Note_on_c, 1, 74, 64
3, 8340, Note_on_c, 1, 74, 0
3, 8340, Note_on_c, 1, 71, 64
3, 8400, Note_on_c, 1, 71, 0
3, 8400, Note_on_c, 1, 66, 64
3, 8520, Note_on_c, 1, 66, 0
3, 8520, Note_on_c, 1, 78, 64
3, 8820, Note_on_c, 1, 78, 0
3, 8820, Note_on_c, 1, 79, 64
3, 8880, Note_on_c, 1, 79, 0
3, 8880, Note_on_c, 1, 78, 64
3, 8940, Note_on_c, 1, 78, 0
3, 8940, Note_on_c, 1, 76, 64
3, 9000, Note_on_c, 1, 76, 0
3, 9000, Note_on_c, 1, 75, 64
3, 9060, Note_on_c, 1, 75, 0
3, 9060, Note_on_c, 1, 73, 64
3, 9120, Note_on_c, 1, 73, 0
3, 9120, Note_on_c, 1, 71, 64
3, 9180, Note_on_c, 1, 71, 0
3, 9180, Note_on_c, 1, 73, 64
3, 9210, Note_on_c, 1, 73, 0
3, 9210, Note_on_c, 1, 74, 64
3, 9240, Note_on_c, 1, 74, 0
3, 9240, Note_on_c, 1, 73, 64
3, 9420, Note_on_c, 1, 73, 0
3, 9420, Note_on_c, 1, 71, 64
3, 9480, Note_on_c, 1, 71, 0
3, 9480, Note_on_c, 1, 69, 64
3, 9540, Note_on_c, 1, 69, 0
3, 9540, Note_on_c, 1, 74, 64
3, 9600, Note_on_c, 1, 74, 0
3, 9600, Note_on_c, 1, 68, 64
3, 9840, Note_on_c, 1, 68, 0
3, 9840, Note_on_c, 1, 69, 64
3, 10080, Note_on_c, 1, 69, 0
3, 10080, Note_on_c, 1, 71, 64
3, 10800, Note_on_c, 1, 71, 0
3, 10800, Note_on_c, 1, 69, 64
3, 11040, Note_on_c, 1, 69, 0
3, 11040, Note_on_c, 1, 68, 64
3, 11520, Note_on_c, 1, 68, 0
3, 11520, Note_on_c, 1, 66, 64
3, 12000, Note_on_c, 1, 66, 0
3, 12000, Note_on_c, 1, 65, 64
3, 12120, Note_on_c, 1, 65, 0
3, 12120, Note_on_c, 1, 63, 64
3, 12240, Note_on_c, 1, 63, 0
3, 12480, Note_on_c, 1, 75, 64
3, 12600, Note_on_c, 1, 75, 0
3, 12600, Note_on_c, 1, 76, 64
3, 12720, Note_on_c, 1, 76, 0
3, 13080, Note_on_c, 1, 76, 64
3, 13200, Note_on_c, 1, 76, 0
3, 13200, Note_on_c, 1, 74, 64
3, 13260, Note_on_c, 1, 74, 0
3, 13260, Note_on_c, 1, 73, 64
3, 13320, Note_on_c, 1, 73, 0
3, 13320, Note_on_c, 1, 74, 64
3, 13380, Note_on_c, 1, 74, 0
3, 13380, Note_on_c, 1, 71, 64
3, 13440, Note_on_c, 1, 71, 0
3, 13440, Note_on_c, 1, 73, 64
3, 13680, Note_on_c, 1, 73, 0
3, 13680, Note_on_c, 1, 71, 64
3, 13800, Note_on_c, 1, 71, 0
3, 13800, Note_on_c, 1, 66, 64
3, 13920, Note_on_c, 1, 66, 0
3, 13920, Note_on_c, 1, 67, 64
3, 14520, Note_on_c, 1, 67, 0
3, 14520, Note_on_c, 1, 61, 64
3, 14880, Note_on_c, 1, 61, 0
3, 14880, Note_on_c, 1, 66, 64
3, 15120, Note_on_c, 1, 66, 0
3, 15120, Note_on_c, 1, 68, 64
3, 15600, Note_on_c, 1, 68, 0
3, 15600, Note_on_c, 1, 66, 64
3, 15720, Note_on_c, 1, 66, 0
3, 17340, Note_on_c, 1, 71, 64
3, 17400, Note_on_c, 1, 71, 0
3, 17400, Note_on_c, 1, 73, 64
3, 17640, Note_on_c, 1, 73, 0
3, 17640, Note_on_c, 1, 71, 64
3, 17700, Note_on_c, 1, 71, 0
3, 17700, Note_on_c, 1, 69, 64
3, 17760, Note_on_c, 1, 69, 0
3, 17760, Note_on_c, 1, 67, 64
3, 17820, Note_on_c, 1, 67, 0
3, 17820, Note_on_c, 1, 69, 64
3, 17880, Note_on_c, 1, 69, 0
3, 17880, Note_on_c, 1, 71, 64
3, 18120, Note_on_c, 1, 71, 0
3, 18120, Note_on_c, 1, 69, 64
3, 18180, Note_on_c, 1, 69, 0
3, 18180, Note_on_c, 1, 67, 64
3, 18240, Note_on_c, 1, 67, 0
3, 18240, Note_on_c, 1, 66, 64
3, 18300, Note_on_c, 1, 66, 0
3, 18300, Note_on_c, 1, 67, 64
3, 18360, Note_on_c, 1, 67, 0
3, 18360, Note_on_c, 1, 69, 64
3, 18600, Note_on_c, 1, 69, 0
3, 18600, Note_on_c, 1, 67, 64
3, 18660, Note_on_c, 1, 67, 0
3, 18660, Note_on_c, 1, 66, 64
3, 18720, Note_on_c, 1, 66, 0
3, 18720, Note_on_c, 1, 64, 64
3, 18780, Note_on_c, 1, 64, 0
3, 18780, Note_on_c, 1, 66, 64
3, 18840, Note_on_c, 1, 66, 0
3, 18840, Note_on_c, 1, 67, 64
3, 19080, Note_on_c, 1, 67, 0
3, 19080, Note_on_c, 1, 66, 64
3, 19140, Note_on_c, 1, 66, 0
3, 19140, Note_on_c, 1, 64, 64
3, 19200, Note_on_c, 1, 64, 0
3, 19200, Note_on_c, 1, 62, 64
3, 19320, Note_on_c, 1, 66, 64
3, 19440, Note_on_c, 1, 66, 0
3, 19440, Note_on_c, 1, 62, 0
3, 19440, Note_on_c, 1, 62, 64
3, 19560, Note_on_c, 1, 62, 0
3, 19560, Note_on_c, 1, 59, 64
3, 19680, Note_on_c, 1, 59, 0
3, 19680, Note_on_c, 1, 67, 64
3, 19800, Note_on_c, 1, 67, 0
3, 19800, Note_on_c, 1, 66, 64
3, 19920, Note_on_c, 1, 66, 0
3, 19920, Note_on_c, 1, 71, 64
3, 20040, Note_on_c, 1, 71, 0
3, 20040, Note_on_c, 1, 70, 64
3, 20160, Note_on_c, 1, 70, 0
3, 20160, Note_on_c, 1, 64, 64
3, 20280, Note_on_c, 1, 64, 0
3, 20280, Note_on_c, 1, 63, 64
3, 20400, Note_on_c, 1, 63, 0
3, 20400, Note_on_c, 1, 72, 64
3, 20520, Note_on_c, 1, 72, 0
3, 20520, Note_on_c, 1, 71, 64
3, 20640, Note_on_c, 1, 71, 0
3, 20640, Note_on_c, 1, 66, 64
3, 20760, Note_on_c, 1, 66, 0
3, 20760, Note_on_c, 1, 65, 64
3, 20880, Note_on_c, 1, 65, 0
3, 20880, Note_on_c, 1, 74, 64
3, 21000, Note_on_c, 1, 74, 0
3, 21000, Note_on_c, 1, 73, 64
3, 21120, Note_on_c, 1, 73, 0
3, 21120, Note_on_c, 1, 72, 64
3, 21240, Note_on_c, 1, 72, 0
3, 21240, Note_on_c, 1, 73, 64
3, 21360, Note_on_c, 1, 73, 0
3, 21360, Note_on_c, 1, 69, 64
3, 21480, Note_on_c, 1, 69, 0
3, 21600, Note_on_c, 1, 68, 64
3, 22080, Note_on_c, 1, 68, 0
3, 22080, Note_on_c, 1, 69, 64
3, 22680, Note_on_c, 1, 69, 0
3, 22680, Note_on_c, 1, 72, 64
3, 22800, Note_on_c, 1, 72, 0
3, 22800, Note_on_c, 1, 71, 64
3, 22920, Note_on_c, 1, 71, 0
3, 22920, Note_on_c, 1, 75, 64
3, 23040, Note_on_c, 1, 75, 0
3, 23040, Note_on_c, 1, 76, 64
3, 23640, Note_on_c, 1, 76, 0
3, 23640, Note_on_c, 1, 74, 64
3, 23760, Note_on_c, 1, 74, 0
3, 23760, Note_on_c, 1, 73, 64
3, 23880, Note_on_c, 1, 73, 0
3, 23880, Note_on_c, 1, 77, 64
3, 24000, Note_on_c, 1, 77, 0
3, 24000, Note_on_c, 1, 78, 64
3, 24240, Note_on_c, 1, 78, 0
3, 24360, Note_on_c, 1, 71, 64
3, 24420, Note_on_c, 1, 71, 0
3, 24420, Note_on_c, 1, 69, 64
3, 24480, Note_on_c, 1, 69, 0
3, 24480, Note_on_c, 1, 67, 64
3, 24540, Note_on_c, 1, 67, 0
3, 24540, Note_on_c, 1, 69, 64
3, 24600, Note_on_c, 1, 69, 0
3, 24600, Note_on_c, 1, 71, 64
3, 24840, Note_on_c, 1, 71, 0
3, 24840, Note_on_c, 1, 69, 64
3, 24900, Note_on_c, 1, 69, 0
3, 24900, Note_on_c, 1, 67, 64
3, 24960, Note_on_c, 1, 67, 0
3, 24960, Note_on_c, 1, 66, 64
3, 25020, Note_on_c, 1, 66, 0
3, 25020, Note_on_c, 1, 67, 64
3, 25080, Note_on_c, 1, 67, 0
3, 25080, Note_on_c, 1, 69, 64
3, 25320, Note_on_c, 1, 69, 0
3, 25320, Note_on_c, 1, 67, 64
3, 25380, Note_on_c, 1, 67, 0
3, 25380, Note_on_c, 1, 66, 64
3, 25440, Note_on_c, 1, 66, 0
3, 25440, Note_on_c, 1, 64, 64
3, 25500, Note_on_c, 1, 64, 0
3, 25500, Note_on_c, 1, 66, 64
3, 25560, Note_on_c, 1, 66, 0
3, 25560, Note_on_c, 1, 67, 64
3, 25800, Note_on_c, 1, 67, 0
3, 25800, Note_on_c, 1, 66, 64
3, 25860, Note_on_c, 1, 66, 0
3, 25860, Note_on_c, 1, 64, 64
3, 25920, Note_on_c, 1, 64, 0
3, 25920, Note_on_c, 1, 62, 64
3, 25980, Note_on_c, 1, 62, 0
3, 25980, Note_on_c, 1, 64, 64
3, 26040, Note_on_c, 1, 64, 0
3, 26040, Note_on_c, 1, 66, 64
3, 26280, Note_on_c, 1, 66, 0
3, 26280, Note_on_c, 1, 64, 64
3, 26340, Note_on_c, 1, 64, 0
3, 26340, Note_on_c, 1, 62, 64
3, 26400, Note_on_c, 1, 62, 0
3, 26400, Note_on_c, 1, 60, 64
3, 26460, Note_on_c, 1, 60, 0
3, 26460, Note_on_c, 1, 62, 64
3, 26520, Note_on_c, 1, 62, 0
3, 26520, Note_on_c, 1, 64, 64
3, 26760, Note_on_c, 1, 64, 0
3, 26760, Note_on_c, 1, 62, 64
3, 26820, Note_on_c, 1, 62, 0
3, 26820, Note_on_c, 1, 60, 64
3, 26880, Note_on_c, 1, 60, 0
3, 26880, Note_on_c, 1, 59, 64
3, 26940, Note_on_c, 1, 59, 0
3, 26940, Note_on_c, 1, 60, 64
3, 27000, Note_on_c, 1, 60, 0
3, 27000, Note_on_c, 1, 62, 64
3, 27240, Note_on_c, 1, 62, 0
3, 27240, Note_on_c, 1, 60, 64
3, 27300, Note_on_c, 1, 60, 0
3, 27300, Note_on_c, 1, 59, 64
3, 27360, Note_on_c, 1, 59, 0
3, 27360, Note_on_c, 1, 57, 64
3, 27420, Note_on_c, 1, 57, 0
3, 27420, Note_on_c, 1, 59, 64
3, 27480, Note_on_c, 1, 59, 0
3, 27480, Note_on_c, 1, 60, 64
3, 27720, Note_on_c, 1, 60, 0
3, 27720, Note_on_c, 1, 59, 64
3, 27780, Note_on_c, 1, 59, 0
3, 27780, Note_on_c, 1, 57, 64
3, 27840, Note_on_c, 1, 57, 0
3, 27840, Note_on_c, 1, 55, 64
3, 28080, Note_on_c, 1, 55, 0
3, 28200, Note_on_c, 1, 64, 64
3, 28260, Note_on_c, 1, 64, 0
3, 28260, Note_on_c, 1, 63, 64
3, 28320, Note_on_c, 1, 63, 0
3, 28320, Note_on_c, 1, 63, 64
3, 28380, Note_on_c, 1, 63, 0
3, 28380, Note_on_c, 1, 64, 64
3, 28440, Note_on_c, 1, 64, 0
3, 28440, Note_on_c, 1, 66, 64
3, 28500, Note_on_c, 1, 66, 0
3, 28500, Note_on_c, 1, 67, 64
3, 28560, Note_on_c, 1, 67, 0
3, 28560, Note_on_c, 1, 69, 64
3, 28620, Note_on_c, 1, 69, 0
3, 28620, Note_on_c, 1, 67, 64
3, 28680, Note_on_c, 1, 67, 0
3, 28680, Note_on_c, 1, 69, 64
3, 28740, Note_on_c, 1, 69, 0
3, 28740, Note_on_c, 1, 71, 64
3, 28800, Note_on_c, 1, 71, 0
3, 28800, Note_on_c, 1, 72, 64
3, 28860, Note_on_c, 1, 72, 0
3, 28860, Note_on_c, 1, 69, 64
3, 28920, Note_on_c, 1, 69, 0
3, 28920, Note_on_c, 1, 71, 64
3, 29100, Note_on_c, 1, 71, 0
3, 29100, Note_on_c, 1, 69, 64
3, 29160, Note_on_c, 1, 69, 0
3, 29160, Note_on_c, 1, 68, 64
3, 29220, Note_on_c, 1, 68, 0
3, 29220, Note_on_c, 1, 66, 64
3, 29280, Note_on_c, 1, 66, 0
3, 29280, Note_on_c, 1, 64, 64
3, 29340, Note_on_c, 1, 64, 0
3, 29340, Note_on_c, 1, 67, 64
3, 29400, Note_on_c, 1, 67, 0
3, 29400, Note_on_c, 1, 66, 64
3, 29460, Note_on_c, 1, 66, 0
3, 29460, Note_on_c, 1, 70, 64
3, 29520, Note_on_c, 1, 70, 0
3, 29520, Note_on_c, 1, 71, 64
3, 29880, Note_on_c, 1, 71, 0
3, 29880, Note_on_c, 1, 71, 64
3, 29940, Note_on_c, 1, 71, 0
3, 29940, Note_on_c, 1, 70, 64
3, 30000, Note_on_c, 1, 70, 0
3, 30060, Note_on_c, 1, 69, 64
3, 30120, Note_on_c, 1, 69, 0
3, 30120, Note_on_c, 1, 67, 64
3, 30180, Note_on_c, 1, 67, 0
3, 30180, Note_on_c, 1, 66, 64
3, 30240, Note_on_c, 1, 66, 0
3, 30240, Note_on_c, 1, 64, 64
3, 30720, Note_on_c, 1, 64, 0
3, 30780, Note_on_c, 1, 66, 64
3, 30840, Note_on_c, 1, 66, 0
3, 30840, Note_on_c, 1, 68, 64
3, 30900, Note_on_c, 1, 68, 0
3, 30900, Note_on_c, 1, 70, 64
3, 30960, Note_on_c, 1, 70, 0
3, 30960, Note_on_c, 1, 71, 64
3, 31020, Note_on_c, 1, 71, 0
3, 31020, Note_on_c, 1, 73, 64
3, 31080, Note_on_c, 1, 73, 0
3, 31080, Note_on_c, 1, 66, 64
3, 31140, Note_on_c, 1, 66, 0
3, 31140, Note_on_c, 1, 65, 64
3, 31200, Note_on_c, 1, 65, 0
3, 31200, Note_on_c, 1, 69, 64
3, 31680, Note_on_c, 1, 69, 0
3, 31680, Note_on_c, 1, 68, 64
3, 31800, Note_on_c, 1, 68, 0
3, 31800, Note_on_c, 1, 73, 64
3, 31920, Note_on_c, 1, 73, 0
3, 31920, Note_on_c, 1, 69, 64
3, 32040, Note_on_c, 1, 69, 0
3, 32040, Note_on_c, 1, 66, 64
3, 32160, Note_on_c, 1, 66, 0
3, 32160, Note_on_c, 1, 74, 64
3, 32280, Note_on_c, 1, 74, 0
3, 32280, Note_on_c, 1, 73, 64
3, 32400, Note_on_c, 1, 73, 0
3, 32400, Note_on_c, 1, 78, 64
3, 32520, Note_on_c, 1, 78, 0
3, 32520, Note_on_c, 1, 77, 64
3, 32640, Note_on_c, 1, 77, 0
3, 32640, Note_on_c, 1, 71, 64
3, 32760, Note_on_c, 1, 71, 0
3, 32760, Note_on_c, 1, 70, 64
3, 32880, Note_on_c, 1, 70, 0
3, 33000, Note_on_c, 1, 71, 64
3, 33180, Note_on_c, 1, 71, 0
3, 33180, Note_on_c, 1, 69, 64
3, 33240, Note_on_c, 1, 69, 0
3, 33240, Note_on_c, 1, 71, 64
3, 33300, Note_on_c, 1, 71, 0
3, 33300, Note_on_c, 1, 74, 64
3, 33360, Note_on_c, 1, 74, 0
3, 33360, Note_on_c, 1, 73, 64
3, 33720, Note_on_c, 1, 73, 0
3, 33720, Note_on_c, 1, 71, 64
3, 33840, Note_on_c, 1, 71, 0
3, 33840, Note_on_c, 1, 76, 64
3, 33960, Note_on_c, 1, 76, 0
3, 33960, Note_on_c, 1, 70, 64
3, 34080, Note_on_c, 1, 70, 0
3, 34080, Note_on_c, 1, 71, 64
3, 34620, Note_on_c, 1, 71, 0
3, 34620, Note_on_c, 1, 70, 64
3, 34680, Note_on_c, 1, 70, 0
3, 34680, Note_on_c, 1, 71, 64
3, 34740, Note_on_c, 1, 71, 0
3, 34740, Note_on_c, 1, 73, 64
3, 34800, Note_on_c, 1, 73, 0
3, 34800, Note_on_c, 1, 74, 64
3, 34860, Note_on_c, 1, 74, 0
3, 34860, Note_on_c, 1, 76, 64
3, 34920, Note_on_c, 1, 76, 0
3, 34920, Note_on_c, 1, 69, 64
3, 34980, Note_on_c, 1, 69, 0
3, 34980, Note_on_c, 1, 68, 64
3, 35040, Note_on_c, 1, 68, 0
3, 35040, Note_on_c, 1, 69, 64
3, 35640, Note_on_c, 1, 69, 0
3, 35640, Note_on_c, 1, 67, 64
3, 35760, Note_on_c, 1, 67, 0
3, 35760, Note_on_c, 1, 66, 64
3, 36000, Note_on_c, 1, 66, 0
3, 36540, Note_on_c, 1, 78, 64
3, 36600, Note_on_c, 1, 78, 0
3, 36600, Note_on_c, 1, 81, 64
3, 36660, Note_on_c, 1, 81, 0
3, 36660, Note_on_c, 1, 79, 64
3, 36720, Note_on_c, 1, 79, 0
3, 36720, Note_on_c, 1, 78, 64
3, 36780, Note_on_c, 1, 78, 0
3, 36780, Note_on_c, 1, 76, 64
3, 36840, Note_on_c, 1, 76, 0
3, 36840, Note_on_c, 1, 75, 64
3, 36900, Note_on_c, 1, 75, 0
3, 36900, Note_on_c, 1, 73, 64
3, 36960, Note_on_c, 1, 73, 0
3, 36960, Note_on_c, 1, 71, 64
3, 37020, Note_on_c, 1, 71, 0
3, 37020, Note_on_c, 1, 74, 64
3, 37080, Note_on_c, 1, 74, 0
3, 37080, Note_on_c, 1, 73, 64
3, 37140, Note_on_c, 1, 73, 0
3, 37140, Note_on_c, 1, 71, 64
3, 37200, Note_on_c, 1, 71, 0
3, 37200, Note_on_c, 1, 69, 64
3, 37260, Note_on_c, 1, 69, 0
3, 37260, Note_on_c, 1, 68, 64
3, 37320, Note_on_c, 1, 68, 0
3, 37320, Note_on_c, 1, 69, 64
3, 37380, Note_on_c, 1, 69, 0
3, 37380, Note_on_c, 1, 66, 64
3, 37440, Note_on_c, 1, 66, 0
3, 37440, Note_on_c, 1, 68, 64
3, 37680, Note_on_c, 1, 68, 0
3, 37740, Note_on_c, 1, 76, 64
3, 37800, Note_on_c, 1, 76, 0
3, 37800, Note_on_c, 1, 74, 64
3, 37860, Note_on_c, 1, 74, 0
3, 37860, Note_on_c, 1, 73, 64
3, 37920, Note_on_c, 1, 73, 0
3, 37920, Note_on_c, 1, 71, 64
3, 37980, Note_on_c, 1, 71, 0
3, 37980, Note_on_c, 1, 69, 64
3, 38040, Note_on_c, 1, 69, 0
3, 38040, Note_on_c, 1, 68, 64
3, 38100, Note_on_c, 1, 68, 0
3, 38100, Note_on_c, 1, 69, 64
3, 38160, Note_on_c, 1, 69, 0
3, 38160, Note_on_c, 1, 71, 64
3, 38520, Note_on_c, 1, 71, 0
3, 38520, Note_on_c, 1, 70, 64
3, 38640, Note_on_c, 1, 70, 0
3, 38760, Note_on_c, 1, 71, 64
3, 38940, Note_on_c, 1, 71, 0
3, 38940, Note_on_c, 1, 70, 64
3, 39000, Note_on_c, 1, 70, 0
3, 39000, Note_on_c, 1, 71, 64
3, 39060, Note_on_c, 1, 71, 0
3, 39060, Note_on_c, 1, 74, 64
3, 39120, Note_on_c, 1, 74, 0
3, 39120, Note_on_c, 1, 73, 64
3, 39360, Note_on_c, 1, 73, 0
3, 39480, Note_on_c, 1, 71, 64
3, 39600, Note_on_c, 1, 71, 0
3, 39600, Note_on_c, 1, 67, 64
3, 39720, Note_on_c, 1, 67, 0
3, 39720, Note_on_c, 1, 64, 64
3, 39840, Note_on_c, 1, 64, 0
3, 39840, Note_on_c, 1, 72, 64
3, 39960, Note_on_c, 1, 72, 0
3, 39960, Note_on_c, 1, 71, 64
3, 40080, Note_on_c, 1, 71, 0
3, 40080, Note_on_c, 1, 76, 64
3, 40200, Note_on_c, 1, 76, 0
3, 40200, Note_on_c, 1, 75, 64
3, 40320, Note_on_c, 1, 75, 0
3, 40320, Note_on_c, 1, 69, 64
3, 40440, Note_on_c, 1, 69, 0
3, 40440, Note_on_c, 1, 68, 64
3, 40560, Note_on_c, 1, 68, 0
3, 40560, Note_on_c, 1, 69, 64
3, 40920, Note_on_c, 1, 69, 0
3, 40920, Note_on_c, 1, 68, 64
3, 41040, Note_on_c, 1, 68, 0
3, 41040, Note_on_c, 1, 73, 64
3, 41160, Note_on_c, 1, 73, 0
3, 41160, Note_on_c, 1, 71, 64
3, 41280, Note_on_c, 1, 71, 0
3, 41280, Note_on_c, 1, 76, 64
3, 41400, Note_on_c, 1, 76, 0
3, 41640, Note_on_c, 1, 66, 64
3, 41760, Note_on_c, 1, 66, 0
3, 41760, Note_on_c, 1, 62, 64
3, 42000, Note_on_c, 1, 62, 0
3, 42120, Note_on_c, 1, 67, 64
3, 42240, Note_on_c, 1, 67, 0
3, 42240, Note_on_c, 1, 69, 64
3, 42360, Note_on_c, 1, 69, 0
3, 42360, Note_on_c, 1, 74, 64
3, 42480, Note_on_c, 1, 74, 0
3, 42480, Note_on_c, 1, 72, 64
3, 42720, Note_on_c, 1, 72, 0
3, 42720, Note_on_c, 1, 71, 64
3, 42960, Note_on_c, 1, 71, 0
3, 42960, Note_on_c, 1, 69, 64
3, 43320, Note_on_c, 1, 69, 0
3, 43320, Note_on_c, 1, 69, 64
3, 43380, Note_on_c, 1, 69, 0
3, 43380, Note_on_c, 1, 68, 64
3, 43440, Note_on_c, 1, 68, 0
3, 43500, Note_on_c, 1, 67, 64
3, 43560, Note_on_c, 1, 67, 0
3, 43560, Note_on_c, 1, 66, 64
3, 43620, Note_on_c, 1, 66, 0
3, 43620, Note_on_c, 1, 64, 64
3, 43680, Note_on_c, 1, 64, 0
3, 43680, Note_on_c, 1, 62, 64
3, 43740, Note_on_c, 1, 62, 0
3, 43740, Note_on_c, 1, 61, 64
3, 43800, Note_on_c, 1, 61, 0
3, 43800, Note_on_c, 1, 59, 64
3, 43860, Note_on_c, 1, 59, 0
3, 43860, Note_on_c, 1, 61, 64
3, 43920, Note_on_c, 1, 61, 0
3, 43920, Note_on_c, 1, 62, 64
3, 44160, Note_on_c, 1, 62, 0
3, 44160, Note_on_c, 1, 61, 64
3, 44400, Note_on_c, 1, 61, 0
3, 44400, Note_on_c, 1, 59, 64
3, 44640, Note_on_c, 1, 59, 0
3, 44640, Note_on_c, 1, 57, 64
3, 45120, Note_on_c, 1, 57, 0
3, 45180, Note_on_c, 1, 79, 64
3, 45240, Note_on_c, 1, 79, 0
3, 45240, Note_on_c, 1, 78, 64
3, 45300, Note_on_c, 1, 78, 0
3, 45300, Note_on_c, 1, 76, 64
3, 45360, Note_on_c, 1, 76, 0
3, 45360, Note_on_c, 1, 74, 64
3, 45420, Note_on_c, 1, 74, 0
3, 45420, Note_on_c, 1, 72, 64
3, 45480, Note_on_c, 1, 72, 0
3, 45480, Note_on_c, 1, 71, 64
3, 45540, Note_on_c, 1, 71, 0
3, 45540, Note_on_c, 1, 72, 64
3, 45600, Note_on_c, 1, 72, 0
3, 45600, Note_on_c, 1, 74, 64
3, 45660, Note_on_c, 1, 74, 0
3, 45660, Note_on_c, 1, 76, 64
3, 45720, Note_on_c, 1, 76, 0
3, 45720, Note_on_c, 1, 74, 64
3, 45780, Note_on_c, 1, 74, 0
3, 45780, Note_on_c, 1, 72, 64
3, 45840, Note_on_c, 1, 72, 0
3, 45840, Note_on_c, 1, 71, 64
3, 45900, Note_on_c, 1, 71, 0
3, 45900, Note_on_c, 1, 73, 64
3, 45960, Note_on_c, 1, 73, 0
3, 45960, Note_on_c, 1, 74, 64
3, 46020, Note_on_c, 1, 74, 0
3, 46020, Note_on_c, 1, 71, 64
3, 46080, Note_on_c, 1, 71, 0
3, 46080, Note_on_c, 1, 67, 64
3, 46140, Note_on_c, 1, 67, 0
3, 46140, Note_on_c, 1, 70, 64
3, 46200, Note_on_c, 1, 70, 0
3, 46200, Note_on_c, 1, 69, 64
3, 46260, Note_on_c, 1, 69, 0
3, 46260, Note_on_c, 1, 67, 64
3, 46320, Note_on_c, 1, 67, 0
3, 46320, Note_on_c, 1, 65, 64
3, 46380, Note_on_c, 1, 65, 0
3, 46380, Note_on_c, 1, 64, 64
3, 46440, Note_on_c, 1, 64, 0
3, 46440, Note_on_c, 1, 65, 64
3, 46500, Note_on_c, 1, 65, 0
3, 46500, Note_on_c, 1, 62, 64
3, 46560, Note_on_c, 1, 62, 0
3, 46560, Note_on_c, 1, 64, 64
3, 46800, Note_on_c, 1, 64, 0
3, 46860, Note_on_c, 1, 72, 64
3, 46920, Note_on_c, 1, 72, 0
3, 46920, Note_on_c, 1, 71, 64
3, 46980, Note_on_c, 1, 71, 0
3, 46980, Note_on_c, 1, 69, 64
3, 47040, Note_on_c, 1, 69, 0
3, 47040, Note_on_c, 1, 67, 64
3, 47100, Note_on_c, 1, 67, 0
3, 47100, Note_on_c, 1, 66, 64
3, 47160, Note_on_c, 1, 66, 0
3, 47160, Note_on_c, 1, 64, 64
3, 47220, Note_on_c, 1, 64, 0
3, 47220, Note_on_c, 1, 62, 64
3, 47280, Note_on_c, 1, 62, 0
3, 47280, Note_on_c, 1, 61, 64
3, 47340, Note_on_c, 1, 61, 0
3, 47340, Note_on_c, 1, 59, 64
3, 47400, Note_on_c, 1, 59, 0
3, 47400, Note_on_c, 1, 57, 64
3, 47460, Note_on_c, 1, 57, 0
3, 47460, Note_on_c, 1, 55, 64
3, 47520, Note_on_c, 1, 55, 0
3, 47520, Note_on_c, 1, 54, 64
3, 47580, Note_on_c, 1, 54, 0
3, 47580, Note_on_c, 1, 57, 64
3, 47640, Note_on_c, 1, 57, 0
3, 47640, Note_on_c, 1, 59, 64
3, 47700, Note_on_c, 1, 59, 0
3, 47700, Note_on_c, 1, 61, 64
3, 47760, Note_on_c, 1, 61, 0
3, 47760, Note_on_c, 1, 62, 64
3, 47820, Note_on_c, 1, 62, 0
3, 47820, Note_on_c, 1, 64, 64
3, 47880, Note_on_c, 1, 64, 0
3, 47880, Note_on_c, 1, 57, 64
3, 47940, Note_on_c, 1, 57, 0
3, 47940, Note_on_c, 1, 56, 64
3, 48000, Note_on_c, 1, 56, 0
3, 48000, Note_on_c, 1, 57, 64
3, 48480, Note_on_c, 1, 57, 0
3, 48480, Note_on_c, 1, 67, 64
3, 49080, Note_on_c, 1, 67, 0
3, 49080, Note_on_c, 1, 66, 64
3, 49200, Note_on_c, 1, 66, 0
3, 49200, Note_on_c, 1, 65, 64
3, 49320, Note_on_c, 1, 65, 0
3, 49320, Note_on_c, 1, 68, 64
3, 49500, Note_on_c, 1, 68, 0
3, 49500, Note_on_c, 1, 65, 64
3, 49560, Note_on_c, 1, 65, 0
3, 49560, Note_on_c, 1, 66, 64
3, 49620, Note_on_c, 1, 66, 0
3, 49620, Note_on_c, 1, 68, 64
3, 49680, Note_on_c, 1, 68, 0
3, 49680, Note_on_c, 1, 69, 64
3, 49740, Note_on_c, 1, 69, 0
3, 49740, Note_on_c, 1, 71, 64
3, 49800, Note_on_c, 1, 71, 0
3, 49800, Note_on_c, 1, 62, 64
3, 49860, Note_on_c, 1, 62, 0
3, 49860, Note_on_c, 1, 61, 64
3, 49920, Note_on_c, 1, 61, 0
3, 49920, Note_on_c, 1, 63, 64
3, 50160, Note_on_c, 1, 63, 0
3, 50160, Note_on_c, 1, 65, 64
3, 50280, Note_on_c, 1, 65, 0
3, 50280, Note_on_c, 1, 68, 64
3, 50460, Note_on_c, 1, 68, 0
3, 50460, Note_on_c, 1, 68, 64
3, 50520, Note_on_c, 1, 68, 0
3, 50520, Note_on_c, 1, 66, 64
3, 50580, Note_on_c, 1, 66, 0
3, 50580, Note_on_c, 1, 65, 64
3, 50640, Note_on_c, 1, 65, 0
3, 50640, Note_on_c, 1, 66, 64
3, 50700, Note_on_c, 1, 66, 0
3, 50700, Note_on_c, 1, 68, 64
3, 50760, Note_on_c, 1, 68, 0
3, 50760, Note_on_c, 1, 69, 64
3, 50820, Note_on_c, 1, 69, 0
3, 50820, Note_on_c, 1, 73, 64
3, 50880, Note_on_c, 1, 73, 0
3, 50880, Note_on_c, 1, 71, 64
3, 50940, Note_on_c, 1, 71, 0
3, 50940, Note_on_c, 1, 68, 64
3, 51000, Note_on_c, 1, 68, 0
3, 51000, Note_on_c, 1, 69, 64
3, 51060, Note_on_c, 1, 69, 0
3, 51060, Note_on_c, 1, 73, 64
3, 51120, Note_on_c, 1, 73, 0
3, 51120, Note_on_c, 1, 71, 64
3, 51180, Note_on_c, 1, 71, 0
3, 51180, Note_on_c, 1, 74, 64
3, 51240, Note_on_c, 1, 74, 0
3, 51240, Note_on_c, 1, 73, 64
3, 51300, Note_on_c, 1, 73, 0
3, 51300, Note_on_c, 1, 71, 64
3, 51360, Note_on_c, 1, 71, 0
3, 51360, Note_on_c, 1, 73, 64
3, 51420, Note_on_c, 1, 73, 0
3, 51420, Note_on_c, 1, 74, 64
3, 51480, Note_on_c, 1, 74, 0
3, 51480, Note_on_c, 1, 76, 64
3, 51540, Note_on_c, 1, 76, 0
3, 51540, Note_on_c, 1, 74, 64
3, 51600, Note_on_c, 1, 74, 0
3, 51600, Note_on_c, 1, 73, 64
3, 51660, Note_on_c, 1, 73, 0
3, 51660, Note_on_c, 1, 71, 64
3, 51720, Note_on_c, 1, 71, 0
3, 51720, Note_on_c, 1, 70, 64
3, 51780, Note_on_c, 1, 70, 0
3, 51780, Note_on_c, 1, 68, 64
3, 51840, Note_on_c, 1, 68, 0
3, 51840, Note_on_c, 1, 66, 64
3, 51900, Note_on_c, 1, 66, 0
3, 51900, Note_on_c, 1, 69, 64
3, 51960, Note_on_c, 1, 69, 0
3, 51960, Note_on_c, 1, 68, 64
3, 52020, Note_on_c, 1, 68, 0
3, 52020, Note_on_c, 1, 72, 64
3, 52080, Note_on_c, 1, 72, 0
3, 52140, Note_on_c, 1, 75, 64
3, 52200, Note_on_c, 1, 75, 0
3, 52200, Note_on_c, 1, 76, 64
3, 52260, Note_on_c, 1, 76, 0
3, 52260, Note_on_c, 1, 78, 64
3, 52320, Note_on_c, 1, 78, 0
3, 52320, Note_on_c, 1, 76, 64
3, 52380, Note_on_c, 1, 76, 0
3, 52380, Note_on_c, 1, 75, 64
3, 52440, Note_on_c, 1, 75, 0
3, 52500, Note_on_c, 1, 69, 64
3, 52560, Note_on_c, 1, 69, 0
3, 52560, Note_on_c, 1, 68, 64
3, 52620, Note_on_c, 1, 68, 0
3, 52620, Note_on_c, 1, 71, 64
3, 52680, Note_on_c, 1, 71, 0
3, 52680, Note_on_c, 1, 69, 64
3, 52740, Note_on_c, 1, 69, 0
3, 52740, Note_on_c, 1, 68, 64
3, 52800, Note_on_c, 1, 68, 0
3, 52800, Note_on_c, 1, 66, 64
3, 53280, Note_on_c, 1, 66, 0
3, 53280, Note_on_c, 1, 68, 64
3, 53820, Note_on_c, 1, 68, 0
3, 53820, Note_on_c, 1, 61, 64
3, 53880, Note_on_c, 1, 61, 0
3, 53880, Note_on_c, 1, 63, 64
3, 53940, Note_on_c, 1, 63, 0
3, 53940, Note_on_c, 1, 64, 64
3, 54000, Note_on_c, 1, 64, 0
3, 54000, Note_on_c, 1, 66, 64
3, 54060, Note_on_c, 1, 66, 0
3, 54060, Note_on_c, 1, 68, 64
3, 54120, Note_on_c, 1, 68, 0
3, 54120, Note_on_c, 1, 69, 64
3, 54180, Note_on_c, 1, 69, 0
3, 54180, Note_on_c, 1, 71, 64
3, 54240, Note_on_c, 1, 71, 0
3, 54240, Note_on_c, 1, 69, 64
3, 54300, Note_on_c, 1, 69, 0
3, 54300, Note_on_c, 1, 66, 64
3, 54360, Note_on_c, 1, 66, 0
3, 54360, Note_on_c, 1, 68, 64
3, 54420, Note_on_c, 1, 68, 0
3, 54420, Note_on_c, 1, 69, 64
3, 54480, Note_on_c, 1, 69, 0
3, 54480, Note_on_c, 1, 71, 64
3, 54540, Note_on_c, 1, 71, 0
3, 54540, Note_on_c, 1, 73, 64
3, 54600, Note_on_c, 1, 73, 0
3, 54600, Note_on_c, 1, 75, 64
3, 54660, Note_on_c, 1, 75, 0
3, 54660, Note_on_c, 1, 76, 64
3, 54720, Note_on_c, 1, 76, 0
3, 54720, Note_on_c, 1, 78, 64
3, 54780, Note_on_c, 1, 78, 0
3, 54780, Note_on_c, 1, 75, 64
3, 54840, Note_on_c, 1, 75, 0
3, 54840, Note_on_c, 1, 76, 64
3, 54900, Note_on_c, 1, 76, 0
3, 54900, Note_on_c, 1, 80, 64
3, 54960, Note_on_c, 1, 80, 0
3, 55020, Note_on_c, 1, 73, 64
3, 55080, Note_on_c, 1, 73, 0
3, 55080, Note_on_c, 1, 71, 64
3, 55140, Note_on_c, 1, 71, 0
3, 55140, Note_on_c, 1, 69, 64
3, 55200, Note_on_c, 1, 69, 0
3, 55200, Note_on_c, 1, 71, 64
3, 55260, Note_on_c, 1, 71, 0
3, 55260, Note_on_c, 1, 73, 64
3, 55320, Note_on_c, 1, 73, 0
3, 55320, Note_on_c, 1, 74, 64
3, 55380, Note_on_c, 1, 74, 0
3, 55380, Note_on_c, 1, 73, 64
3, 55440, Note_on_c, 1, 73, 0
3, 55440, Note_on_c, 1, 71, 64
3, 55500, Note_on_c, 1, 71, 0
3, 55500, Note_on_c, 1, 69, 64
3, 55560, Note_on_c, 1, 69, 0
3, 55560, Note_on_c, 1, 68, 64
3, 55620, Note_on_c, 1, 68, 0
3, 55620, Note_on_c, 1, 66, 64
3, 55680, Note_on_c, 1, 66, 0
3, 55680, Note_on_c, 1, 64, 64
3, 55740, Note_on_c, 1, 64, 0
3, 55740, Note_on_c, 1, 67, 64
3, 55800, Note_on_c, 1, 67, 0
3, 55800, Note_on_c, 1, 66, 64
3, 55860, Note_on_c, 1, 66, 0
3, 55860, Note_on_c, 1, 64, 64
3, 55920, Note_on_c, 1, 64, 0
3, 55920, Note_on_c, 1, 62, 64
3, 55980, Note_on_c, 1, 62, 0
3, 55980, Note_on_c, 1, 61, 64
3, 56040, Note_on_c, 1, 61, 0
3, 56040, Note_on_c, 1, 62, 64
3, 56100, Note_on_c, 1, 62, 0
3, 56100, Note_on_c, 1, 59, 64
3, 56160, Note_on_c, 1, 59, 0
3, 56160, Note_on_c, 1, 61, 64
3, 56400, Note_on_c, 1, 61, 0
3, 56460, Note_on_c, 1, 69, 64
3, 56520, Note_on_c, 1, 69, 0
3, 56520, Note_on_c, 1, 67, 64
3, 56580, Note_on_c, 1, 67, 0
3, 56580, Note_on_c, 1, 66, 64
3, 56640, Note_on_c, 1, 66, 0
3, 56640, Note_on_c, 1, 64, 64
3, 56880, Note_on_c, 1, 64, 0
3, 57000, Note_on_c, 1, 73, 64
3, 57180, Note_on_c, 1, 73, 0
3, 57180, Note_on_c, 1, 73, 64
3, 57240, Note_on_c, 1, 73, 0
3, 57240, Note_on_c, 1, 71, 64
3, 57300, Note_on_c, 1, 71, 0
3, 57300, Note_on_c, 1, 70, 64
3, 57360, Note_on_c, 1, 70, 0
3, 57360, Note_on_c, 1, 71, 64
3, 57600, Note_on_c, 1, 71, 0
3, 57600, Note_on_c, 1, 73, 64
3, 57720, Note_on_c, 1, 73, 0
3, 57720, Note_on_c, 1, 74, 64
3, 57840, Note_on_c, 1, 74, 0
3, 57900, Note_on_c, 1, 76, 64
3, 57960, Note_on_c, 1, 76, 0
3, 57960, Note_on_c, 1, 74, 64
3, 58020, Note_on_c, 1, 74, 0
3, 58020, Note_on_c, 1, 73, 64
3, 58080, Note_on_c, 1, 73, 0
3, 58080, Note_on_c, 1, 71, 64
3, 58140, Note_on_c, 1, 71, 0
3, 58140, Note_on_c, 1, 70, 64
3, 58200, Note_on_c, 1, 70, 0
3, 58200, Note_on_c, 1, 71, 64
3, 58320, Note_on_c, 1, 71, 0
3, 58380, Note_on_c, 1, 78, 64
3, 58440, Note_on_c, 1, 78, 0
3, 58440, Note_on_c, 1, 76, 64
3, 58500, Note_on_c, 1, 76, 0
3, 58500, Note_on_c, 1, 75, 64
3, 58560, Note_on_c, 1, 75, 0
3, 58560, Note_on_c, 1, 73, 64
3, 58620, Note_on_c, 1, 73, 0
3, 58620, Note_on_c, 1, 72, 64
3, 58680, Note_on_c, 1, 72, 0
3, 58680, Note_on_c, 1, 73, 64
3, 58800, Note_on_c, 1, 73, 0
3, 58860, Note_on_c, 1, 80, 64
3, 58980, Note_on_c, 1, 80, 0
3, 58980, Note_on_c, 1, 78, 64
3, 59100, Note_on_c, 1, 78, 0
3, 59100, Note_on_c, 1, 78, 64
3, 59160, Note_on_c, 1, 78, 0
3, 59160, Note_on_c, 1, 77, 64
3, 59220, Note_on_c, 1, 77, 0
3, 59220, Note_on_c, 1, 80, 64
3, 59280, Note_on_c, 1, 80, 0
3, 59280, Note_on_c, 1, 73, 64
3, 59460, Note_on_c, 1, 73, 0
3, 59460, Note_on_c, 1, 74, 64
3, 59520, Note_on_c, 1, 74, 0
3, 59520, Note_on_c, 1, 71, 64
3, 60000, Note_on_c, 1, 71, 0
3, 60000, Note_on_c, 1, 73, 64
3, 60540, Note_on_c, 1, 73, 0
3, 60540, Note_on_c, 1, 66, 64
3, 60600, Note_on_c, 1, 66, 0
3, 60600, Note_on_c, 1, 67, 64
3, 60660, Note_on_c, 1, 67, 0
3, 60660, Note_on_c, 1, 69, 64
3, 60720, Note_on_c, 1, 69, 0
3, 60720, Note_on_c, 1, 71, 64
3, 60780, Note_on_c, 1, 71, 0
3, 60780, Note_on_c, 1, 72, 64
3, 60840, Note_on_c, 1, 72, 0
3, 60840, Note_on_c, 1, 64, 64
3, 60900, Note_on_c, 1, 64, 0
3, 60900, Note_on_c, 1, 63, 64
3, 60960, Note_on_c, 1, 63, 0
3, 60960, Note_on_c, 1, 64, 64
3, 61490, Note_on_c, 1, 64, 0
3, 61500, Note_on_c, 1, 64, 64
3, 61560, Note_on_c, 1, 64, 0
3, 61560, Note_on_c, 1, 62, 64
3, 61620, Note_on_c, 1, 62, 0
3, 61620, Note_on_c, 1, 61, 64
3, 61680, Note_on_c, 1, 61, 0
3, 61680, Note_on_c, 1, 62, 64
3, 61800, Note_on_c, 1, 62, 0
3, 62040, Note_on_c, 1, 76, 64
3, 62100, Note_on_c, 1, 76, 0
3, 62100, Note_on_c, 1, 74, 64
3, 62160, Note_on_c, 1, 74, 0
3, 62160, Note_on_c, 1, 73, 64
3, 62220, Note_on_c, 1, 73, 0
3, 62220, Note_on_c, 1, 74, 64
3, 62280, Note_on_c, 1, 74, 0
3, 62280, Note_on_c, 1, 76, 64
3, 62520, Note_on_c, 1, 76, 0
3, 62520, Note_on_c, 1, 74, 64
3, 62580, Note_on_c, 1, 74, 0
3, 62580, Note_on_c, 1, 73, 64
3, 62640, Note_on_c, 1, 73, 0
3, 62640, Note_on_c, 1, 71, 64
3, 62700, Note_on_c, 1, 71, 0
3, 62700, Note_on_c, 1, 73, 64
3, 62760, Note_on_c, 1, 73, 0
3, 62760, Note_on_c, 1, 74, 64
3, 63000, Note_on_c, 1, 74, 0
3, 63000, Note_on_c, 1, 73, 64
3, 63060, Note_on_c, 1, 73, 0
3, 63060, Note_on_c, 1, 71, 64
3, 63120, Note_on_c, 1, 71, 0
3, 63120, Note_on_c, 1, 70, 64
3, 63180, Note_on_c, 1, 70, 0
3, 63180, Note_on_c, 1, 71, 64
3, 63240, Note_on_c, 1, 71, 0
3, 63240, Note_on_c, 1, 73, 64
3, 63600, Note_on_c, 1, 73, 0
3, 63600, Note_on_c, 1, 71, 64
3, 63720, Note_on_c, 1, 71, 0
3, 63720, Note_on_c, 1, 69, 64
3, 63840, Note_on_c, 1, 69, 0
3, 63840, Note_on_c, 1, 67, 64
3, 63900, Note_on_c, 1, 67, 0
3, 63900, Note_on_c, 1, 69, 64
3, 63960, Note_on_c, 1, 69, 0
3, 63960, Note_on_c, 1, 71, 64
3, 64200, Note_on_c, 1, 71, 0
3, 64200, Note_on_c, 1, 69, 64
3, 64260, Note_on_c, 1, 69, 0
3, 64260, Note_on_c, 1, 67, 64
3, 64320, Note_on_c, 1, 67, 0
3, 64320, Note_on_c, 1, 66, 64
3, 64380, Note_on_c, 1, 66, 0
3, 64380, Note_on_c, 1, 67, 64
3, 64440, Note_on_c, 1, 67, 0
3, 64440, Note_on_c, 1, 69, 64
3, 64680, Note_on_c, 1, 69, 0
3, 64680, Note_on_c, 1, 67, 64
3, 64740, Note_on_c, 1, 67, 0
3, 64740, Note_on_c, 1, 66, 64
3, 64800, Note_on_c, 1, 66, 0
3, 64800, Note_on_c, 1, 64, 64
3, 64860, Note_on_c, 1, 64, 0
3, 64860, Note_on_c, 1, 66, 64
3, 64920, Note_on_c, 1, 66, 0
3, 64920, Note_on_c, 1, 67, 64
3, 65160, Note_on_c, 1, 67, 0
3, 65160, Note_on_c, 1, 66, 64
3, 65220, Note_on_c, 1, 66, 0
3, 65220, Note_on_c, 1, 64, 64
3, 65280, Note_on_c, 1, 64, 0
3, 65280, Note_on_c, 1, 62, 64
3, 65520, Note_on_c, 1, 62, 0
3, 65520, Note_on_c, 1, 71, 64
3, 65880, Note_on_c, 1, 71, 0
3, 65880, Note_on_c, 1, 70, 64
3, 66000, Note_on_c, 1, 70, 0
3, 66000, Note_on_c, 1, 74, 64
3, 66120, Note_on_c, 1, 74, 0
3, 66120, Note_on_c, 1, 73, 64
3, 66240, Note_on_c, 1, 73, 0
3, 66240, Note_on_c, 1, 78, 64
3, 66360, Note_on_c, 1, 78, 0
3, 67080, Note_on_c, 1, 71, 64
3, 67260, Note_on_c, 1, 71, 0
3, 67260, Note_on_c, 1, 73, 64
3, 67320, Note_on_c, 1, 73, 0
3, 67320, Note_on_c, 1, 71, 64
3, 67380, Note_on_c, 1, 71, 0
3, 67380, Note_on_c, 1, 69, 64
3, 67440, Note_on_c, 1, 69, 0
3, 67440, Note_on_c, 1, 68, 64
3, 67680, Note_on_c, 1, 68, 0
3, 67740, Note_on_c, 1, 67, 64
3, 67860, Note_on_c, 1, 67, 0
3, 67860, Note_on_c, 1, 66, 64
3, 67980, Note_on_c, 1, 66, 0
3, 67980, Note_on_c, 1, 64, 64
3, 68040, Note_on_c, 1, 64, 0
3, 68040, Note_on_c, 1, 62, 64
3, 68100, Note_on_c, 1, 62, 0
3, 68100, Note_on_c, 1, 64, 64
3, 68160, Note_on_c, 1, 64, 0
3, 68160, Note_on_c, 1, 61, 64
3, 68400, Note_on_c, 1, 61, 0
3, 68460, Note_on_c, 1, 66, 64
3, 68520, Note_on_c, 1, 66, 0
3, 68520, Note_on_c, 1, 64, 64
3, 68580, Note_on_c, 1, 64, 0
3, 68580, Note_on_c, 1, 62, 64
3, 68640, Note_on_c, 1, 62, 0
3, 68640, Note_on_c, 1, 61, 64
3, 69120, Note_on_c, 1, 61, 0
3, 69120, Note_on_c, 1, 59, 64
3, 69360, Note_on_c, 1, 59, 0
3, 69480, Note_on_c, 1, 66, 64
3, 69600, Note_on_c, 1, 66, 0
3, 69600, Note_on_c, 1, 64, 64
3, 69840, Note_on_c, 1, 64, 0
3, 70200, Note_on_c, 1, 66, 64
3, 70320, Note_on_c, 1, 66, 0
3, 70320, Note_on_c, 1, 62, 64
3, 70440, Note_on_c, 1, 62, 0
3, 70440, Note_on_c, 1, 59, 64
3, 70560, Note_on_c, 1, 59, 0
3, 70560, Note_on_c, 1, 67, 64
3, 70680, Note_on_c, 1, 67, 0
3, 70680, Note_on_c, 1, 66, 64
3, 70800, Note_on_c, 1, 66, 0
3, 70800, Note_on_c, 1, 71, 64
3, 70920, Note_on_c, 1, 71, 0
3, 70920, Note_on_c, 1, 70, 64
3, 71040, Note_on_c, 1, 70, 0
3, 71040, Note_on_c, 1, 64, 64
3, 71160, Note_on_c, 1, 64, 0
3, 71160, Note_on_c, 1, 63, 64
3, 71280, Note_on_c, 1, 63, 0
3, 71400, Note_on_c, 1, 68, 64
3, 71520, Note_on_c, 1, 68, 0
3, 71520, Note_on_c, 1, 66, 64
3, 71640, Note_on_c, 1, 66, 0
3, 71640, Note_on_c, 1, 65, 64
3, 71760, Note_on_c, 1, 65, 0
3, 71760, Note_on_c, 1, 66, 64
3, 71940, Note_on_c, 1, 66, 0
3, 71940, Note_on_c, 1, 64, 64
3, 72000, Note_on_c, 1, 64, 0
3, 72000, Note_on_c, 1, 63, 64
3, 72960, Note_on_c, 1, 63, 0
3, 72960, End_track
4, 0, Start_track
4, 0, MIDI_port, 0
4, 0, Title_t, "3"
4, 0, Program_c, 2, 6
4, 3000, Note_on_c, 2, 59, 64
4, 3120, Note_on_c, 2, 59, 0
4, 3120, Note_on_c, 2, 57, 64
4, 3240, Note_on_c, 2, 57, 0
4, 3240, Note_on_c, 2, 54, 64
4, 3360, Note_on_c, 2, 54, 0
4, 3360, Note_on_c, 2, 62, 64
4, 3480, Note_on_c, 2, 62, 0
4, 3480, Note_on_c, 2, 59, 64
4, 3580, Note_on_c, 2, 59, 0
4, 3600, Note_on_c, 2, 64, 64
4, 3720, Note_on_c, 2, 64, 0
4, 3720, Note_on_c, 2, 63, 64
4, 3820, Note_on_c, 2, 63, 0
4, 3840, Note_on_c, 2, 57, 64
4, 3960, Note_on_c, 2, 57, 0
4, 3960, Note_on_c, 2, 56, 64
4, 4060, Note_on_c, 2, 56, 0
4, 4080, Note_on_c, 2, 65, 64
4, 4200, Note_on_c, 2, 65, 0
4, 4200, Note_on_c, 2, 64, 64
4, 4300, Note_on_c, 2, 64, 0
4, 4320, Note_on_c, 2, 59, 64
4, 4440, Note_on_c, 2, 59, 0
4, 4440, Note_on_c, 2, 58, 64
4, 4540, Note_on_c, 2, 58, 0
4, 4560, Note_on_c, 2, 67, 64
4, 4680, Note_on_c, 2, 67, 0
4, 4680, Note_on_c, 2, 66, 64
4, 4780, Note_on_c, 2, 66, 0
4, 4800, Note_on_c, 2, 65, 64
4, 4920, Note_on_c, 2, 65, 0
4, 4920, Note_on_c, 2, 66, 64
4, 5040, Note_on_c, 2, 66, 0
4, 5040, Note_on_c, 2, 62, 64
4, 5160, Note_on_c, 2, 62, 0
4, 5160, Note_on_c, 2, 59, 64
4, 5280, Note_on_c, 2, 59, 0
4, 5280, Note_on_c, 2, 61, 64
4, 5760, Note_on_c, 2, 61, 0
4, 5760, Note_on_c, 2, 59, 64
4, 5820, Note_on_c, 2, 59, 0
4, 5820, Note_on_c, 2, 66, 64
4, 5880, Note_on_c, 2, 66, 0
4, 5880, Note_on_c, 2, 68, 64
4, 5940, Note_on_c, 2, 68, 0
4, 5940, Note_on_c, 2, 70, 64
4, 6000, Note_on_c, 2, 70, 0
4, 6000, Note_on_c, 2, 71, 64
4, 6060, Note_on_c, 2, 71, 0
4, 6060, Note_on_c, 2, 73, 64
4, 6120, Note_on_c, 2, 73, 0
4, 6120, Note_on_c, 2, 66, 64
4, 6180, Note_on_c, 2, 66, 0
4, 6180, Note_on_c, 2, 65, 64
4, 6240, Note_on_c, 2, 65, 0
4, 6240, Note_on_c, 2, 69, 64
4, 6840, Note_on_c, 2, 69, 0
4, 6840, Note_on_c, 2, 67, 64
4, 6960, Note_on_c, 2, 67, 0
4, 6960, Note_on_c, 2, 66, 64
4, 7080, Note_on_c, 2, 66, 0
4, 7080, Note_on_c, 2, 70, 64
4, 7200, Note_on_c, 2, 70, 0
4, 7200, Note_on_c, 2, 71, 64
4, 7800, Note_on_c, 2, 71, 0
4, 7800, Note_on_c, 2, 70, 64
4, 7920, Note_on_c, 2, 70, 0
4, 7920, Note_on_c, 2, 71, 64
4, 8160, Note_on_c, 2, 71, 0
4, 8400, Note_on_c, 2, 73, 64
4, 8640, Note_on_c, 2, 73, 0
4, 8640, Note_on_c, 2, 71, 64
4, 8880, Note_on_c, 2, 71, 0
4, 8880, Note_on_c, 2, 69, 64
4, 9120, Note_on_c, 2, 69, 0
4, 9120, Note_on_c, 2, 68, 64
4, 9360, Note_on_c, 2, 68, 0
4, 9360, Note_on_c, 2, 66, 64
4, 9720, Note_on_c, 2, 66, 0
4, 9720, Note_on_c, 2, 65, 64
4, 9840, Note_on_c, 2, 65, 0
4, 9840, Note_on_c, 2, 66, 64
4, 10140, Note_on_c, 2, 66, 0
4, 10140, Note_on_c, 2, 68, 64
4, 10200, Note_on_c, 2, 68, 0
4, 10200, Note_on_c, 2, 69, 64
4, 10260, Note_on_c, 2, 69, 0
4, 10260, Note_on_c, 2, 71, 64
4, 10320, Note_on_c, 2, 71, 0
4, 10320, Note_on_c, 2, 73, 64
4, 10380, Note_on_c, 2, 73, 0
4, 10380, Note_on_c, 2, 74, 64
4, 10440, Note_on_c, 2, 74, 0
4, 10440, Note_on_c, 2, 66, 64
4, 10500, Note_on_c, 2, 66, 0
4, 10500, Note_on_c, 2, 65, 64
4, 10560, Note_on_c, 2, 65, 0
4, 10560, Note_on_c, 2, 66, 64
4, 11280, Note_on_c, 2, 66, 0
4, 11280, Note_on_c, 2, 64, 64
4, 11700, Note_on_c, 2, 64, 0
4, 11700, Note_on_c, 2, 62, 64
4, 11760, Note_on_c, 2, 62, 0
4, 11760, Note_on_c, 2, 61, 64
4, 11820, Note_on_c, 2, 61, 0
4, 11820, Note_on_c, 2, 59, 64
4, 11880, Note_on_c, 2, 59, 0
4, 11880, Note_on_c, 2, 57, 64
4, 11940, Note_on_c, 2, 57, 0
4, 11940, Note_on_c, 2, 54, 64
4, 12000, Note_on_c, 2, 54, 0
4, 12000, Note_on_c, 2, 56, 64
4, 12060, Note_on_c, 2, 56, 0
4, 12060, Note_on_c, 2, 59, 64
4, 12120, Note_on_c, 2, 59, 0
4, 12120, Note_on_c, 2, 57, 64
4, 12180, Note_on_c, 2, 57, 0
4, 12180, Note_on_c, 2, 54, 64
4, 12240, Note_on_c, 2, 54, 0
4, 12240, Note_on_c, 2, 60, 64
4, 12360, Note_on_c, 2, 60, 0
4, 12360, Note_on_c, 2, 59, 64
4, 12420, Note_on_c, 2, 59, 0
4, 12420, Note_on_c, 2, 57, 64
4, 12480, Note_on_c, 2, 57, 0
4, 12480, Note_on_c, 2, 59, 64
4, 12960, Note_on_c, 2, 59, 0
4, 12960, Note_on_c, 2, 52, 64
4, 13200, Note_on_c, 2, 52, 0
4, 13200, Note_on_c, 2, 59, 64
4, 13320, Note_on_c, 2, 59, 0
4, 13320, Note_on_c, 2, 57, 64
4, 13440, Note_on_c, 2, 57, 0
4, 13440, Note_on_c, 2, 56, 64
4, 13560, Note_on_c, 2, 56, 0
4, 13560, Note_on_c, 2, 54, 64
4, 13680, Note_on_c, 2, 54, 0
4, 13680, Note_on_c, 2, 66, 64
4, 13800, Note_on_c, 2, 66, 0
4, 13800, Note_on_c, 2, 62, 64
4, 13920, Note_on_c, 2, 62, 0
4, 13920, Note_on_c, 2, 64, 64
4, 14400, Note_on_c, 2, 64, 0
4, 14640, Note_on_c, 2, 58, 64
4, 14760, Note_on_c, 2, 58, 0
4, 14760, Note_on_c, 2, 54, 64
4, 14880, Note_on_c, 2, 54, 0
4, 14880, Note_on_c, 2, 62, 64
4, 15360, Note_on_c, 2, 62, 0
4, 15360, Note_on_c, 2, 61, 64
4, 15840, Note_on_c, 2, 61, 0
4, 15960, Note_on_c, 2, 59, 64
4, 16020, Note_on_c, 2, 59, 0
4, 16020, Note_on_c, 2, 57, 64
4, 16080, Note_on_c, 2, 57, 0
4, 16080, Note_on_c, 2, 56, 64
4, 16140, Note_on_c, 2, 56, 0
4, 16140, Note_on_c, 2, 57, 64
4, 16200, Note_on_c, 2, 57, 0
4, 16200, Note_on_c, 2, 59, 64
4, 16440, Note_on_c, 2, 59, 0
4, 16440, Note_on_c, 2, 57, 64
4, 16500, Note_on_c, 2, 57, 0
4, 16500, Note_on_c, 2, 56, 64
4, 16560, Note_on_c, 2, 56, 0
4, 16560, Note_on_c, 2, 54, 64
4, 16620, Note_on_c, 2, 54, 0
4, 16620, Note_on_c, 2, 56, 64
4, 16680, Note_on_c, 2, 56, 0
4, 16680, Note_on_c, 2, 57, 64
4, 16920, Note_on_c, 2, 57, 0
4, 16920, Note_on_c, 2, 56, 64
4, 16980, Note_on_c, 2, 56, 0
4, 16980, Note_on_c, 2, 54, 64
4, 17040, Note_on_c, 2, 54, 0
4, 17040, Note_on_c, 2, 53, 64
4, 17100, Note_on_c, 2, 53, 0
4, 17100, Note_on_c, 2, 54, 64
4, 17160, Note_on_c, 2, 54, 0
4, 17160, Note_on_c, 2, 56, 64
4, 17280, Note_on_c, 2, 56, 0
4, 17520, Note_on_c, 2, 66, 64
4, 17640, Note_on_c, 2, 66, 0
4, 17640, Note_on_c, 2, 62, 64
4, 17760, Note_on_c, 2, 62, 0
4, 17760, Note_on_c, 2, 59, 64
4, 17880, Note_on_c, 2, 59, 0
4, 26040, Note_on_c, 2, 59, 64
4, 26160, Note_on_c, 2, 59, 0
4, 26160, Note_on_c, 2, 55, 64
4, 26280, Note_on_c, 2, 55, 0
4, 26280, Note_on_c, 2, 52, 64
4, 26400, Note_on_c, 2, 52, 0
4, 27960, Note_on_c, 2, 59, 64
4, 28080, Note_on_c, 2, 59, 0
4, 28080, Note_on_c, 2, 55, 64
4, 28200, Note_on_c, 2, 55, 0
4, 28200, Note_on_c, 2, 52, 64
4, 28320, Note_on_c, 2, 52, 0
4, 28320, Note_on_c, 2, 60, 64
4, 28440, Note_on_c, 2, 60, 0
4, 28440, Note_on_c, 2, 59, 64
4, 28560, Note_on_c, 2, 59, 0
4, 28560, Note_on_c, 2, 64, 64
4, 28680, Note_on_c, 2, 64, 0
4, 28680, Note_on_c, 2, 63, 64
4, 28800, Note_on_c, 2, 63, 0
4, 28800, Note_on_c, 2, 57, 64
4, 28920, Note_on_c, 2, 57, 0
4, 28920, Note_on_c, 2, 56, 64
4, 29040, Note_on_c, 2, 56, 0
4, 29040, Note_on_c, 2, 65, 64
4, 29160, Note_on_c, 2, 65, 0
4, 29160, Note_on_c, 2, 64, 64
4, 29280, Note_on_c, 2, 64, 0
4, 29280, Note_on_c, 2, 59, 64
4, 29400, Note_on_c, 2, 59, 0
4, 29400, Note_on_c, 2, 58, 64
4, 29520, Note_on_c, 2, 58, 0
4, 29520, Note_on_c, 2, 67, 64
4, 29640, Note_on_c, 2, 67, 0
4, 29640, Note_on_c, 2, 66, 64
4, 29760, Note_on_c, 2, 66, 0
4, 29760, Note_on_c, 2, 65, 64
4, 29880, Note_on_c, 2, 65, 0
4, 29880, Note_on_c, 2, 66, 64
4, 30000, Note_on_c, 2, 66, 0
4, 30000, Note_on_c, 2, 62, 64
4, 30120, Note_on_c, 2, 62, 0
4, 30120, Note_on_c, 2, 59, 64
4, 30240, Note_on_c, 2, 59, 0
4, 30240, Note_on_c, 2, 61, 64
4, 30720, Note_on_c, 2, 61, 0
4, 30720, Note_on_c, 2, 59, 64
4, 31200, Note_on_c, 2, 59, 0
4, 31260, Note_on_c, 2, 61, 64
4, 31320, Note_on_c, 2, 61, 0
4, 31320, Note_on_c, 2, 63, 64
4, 31380, Note_on_c, 2, 63, 0
4, 31380, Note_on_c, 2, 65, 64
4, 31440, Note_on_c, 2, 65, 0
4, 31440, Note_on_c, 2, 66, 64
4, 31500, Note_on_c, 2, 66, 0
4, 31500, Note_on_c, 2, 68, 64
4, 31560, Note_on_c, 2, 68, 0
4, 31560, Note_on_c, 2, 61, 64
4, 31620, Note_on_c, 2, 61, 0
4, 31620, Note_on_c, 2, 60, 64
4, 31680, Note_on_c, 2, 60, 0
4, 31680, Note_on_c, 2, 61, 64
4, 31740, Note_on_c, 2, 61, 0
4, 31740, Note_on_c, 2, 59, 64
4, 31800, Note_on_c, 2, 59, 0
4, 31800, Note_on_c, 2, 57, 64
4, 31860, Note_on_c, 2, 57, 0
4, 31860, Note_on_c, 2, 56, 64
4, 31920, Note_on_c, 2, 56, 0
4, 31920, Note_on_c, 2, 54, 64
4, 31980, Note_on_c, 2, 54, 0
4, 31980, Note_on_c, 2, 56, 64
4, 32040, Note_on_c, 2, 56, 0
4, 32040, Note_on_c, 2, 57, 64
4, 32100, Note_on_c, 2, 57, 0
4, 32100, Note_on_c, 2, 61, 64
4, 32160, Note_on_c, 2, 61, 0
4, 32160, Note_on_c, 2, 59, 64
4, 32220, Note_on_c, 2, 59, 0
4, 32220, Note_on_c, 2, 56, 64
4, 32280, Note_on_c, 2, 56, 0
4, 32280, Note_on_c, 2, 57, 64
4, 32340, Note_on_c, 2, 57, 0
4, 32340, Note_on_c, 2, 61, 64
4, 32400, Note_on_c, 2, 61, 0
4, 32400, Note_on_c, 2, 62, 64
4, 32460, Note_on_c, 2, 62, 0
4, 32460, Note_on_c, 2, 59, 64
4, 32520, Note_on_c, 2, 59, 0
4, 32520, Note_on_c, 2, 61, 64
4, 32580, Note_on_c, 2, 61, 0
4, 32580, Note_on_c, 2, 65, 64
4, 32640, Note_on_c, 2, 65, 0
4, 32640, Note_on_c, 2, 66, 64
4, 32700, Note_on_c, 2, 66, 0
4, 32700, Note_on_c, 2, 64, 64
4, 32760, Note_on_c, 2, 64, 0
4, 32760, Note_on_c, 2, 62, 64
4, 32820, Note_on_c, 2, 62, 0
4, 32820, Note_on_c, 2, 61, 64
4, 32880, Note_on_c, 2, 61, 0
4, 32880, Note_on_c, 2, 59, 64
4, 32940, Note_on_c, 2, 59, 0
4, 32940, Note_on_c, 2, 61, 64
4, 33000, Note_on_c, 2, 61, 0
4, 33000, Note_on_c, 2, 62, 64
4, 33060, Note_on_c, 2, 62, 0
4, 33060, Note_on_c, 2, 66, 64
4, 33120, Note_on_c, 2, 66, 0
4, 33120, Note_on_c, 2, 64, 64
4, 33180, Note_on_c, 2, 64, 0
4, 33180, Note_on_c, 2, 61, 64
4, 33240, Note_on_c, 2, 61, 0
4, 33240, Note_on_c, 2, 62, 64
4, 33300, Note_on_c, 2, 62, 0
4, 33300, Note_on_c, 2, 66, 64
4, 33360, Note_on_c, 2, 66, 0
4, 33360, Note_on_c, 2, 67, 64
4, 33420, Note_on_c, 2, 67, 0
4, 33420, Note_on_c, 2, 64, 64
4, 33480, Note_on_c, 2, 64, 0
4, 33480, Note_on_c, 2, 66, 64
4, 33540, Note_on_c, 2, 66, 0
4, 33540, Note_on_c, 2, 70, 64
4, 33600, Note_on_c, 2, 70, 0
4, 33600, Note_on_c, 2, 71, 64
4, 33660, Note_on_c, 2, 71, 0
4, 33660, Note_on_c, 2, 69, 64
4, 33720, Note_on_c, 2, 69, 0
4, 33720, Note_on_c, 2, 67, 64
4, 33780, Note_on_c, 2, 67, 0
4, 33780, Note_on_c, 2, 66, 64
4, 33840, Note_on_c, 2, 66, 0
4, 33840, Note_on_c, 2, 64, 64
4, 33900, Note_on_c, 2, 64, 0
4, 33900, Note_on_c, 2, 62, 64
4, 33960, Note_on_c, 2, 62, 0
4, 33960, Note_on_c, 2, 64, 64
4, 34020, Note_on_c, 2, 64, 0
4, 34020, Note_on_c, 2, 61, 64
4, 34080, Note_on_c, 2, 61, 0
4, 34080, Note_on_c, 2, 62, 64
4, 34680, Note_on_c, 2, 62, 0
4, 34680, Note_on_c, 2, 61, 64
4, 34800, Note_on_c, 2, 61, 0
4, 34800, Note_on_c, 2, 59, 64
4, 34920, Note_on_c, 2, 59, 0
4, 34920, Note_on_c, 2, 62, 64
4, 35040, Note_on_c, 2, 62, 0
4, 35040, Note_on_c, 2, 60, 64
4, 35640, Note_on_c, 2, 60, 0
4, 35640, Note_on_c, 2, 59, 64
4, 35760, Note_on_c, 2, 59, 0
4, 35880, Note_on_c, 2, 59, 64
4, 36060, Note_on_c, 2, 59, 0
4, 36060, Note_on_c, 2, 58, 64
4, 36120, Note_on_c, 2, 58, 0
4, 36120, Note_on_c, 2, 59, 64
4, 36180, Note_on_c, 2, 59, 0
4, 36180, Note_on_c, 2, 62, 64
4, 36240, Note_on_c, 2, 62, 0
4, 36240, Note_on_c, 2, 61, 64
4, 36480, Note_on_c, 2, 61, 0
4, 36480, Note_on_c, 2, 54, 64
4, 36720, Note_on_c, 2, 54, 0
4, 41400, Note_on_c, 2, 57, 64
4, 41520, Note_on_c, 2, 57, 0
4, 41520, Note_on_c, 2, 54, 64
4, 41640, Note_on_c, 2, 54, 0
4, 41640, Note_on_c, 2, 50, 64
4, 41760, Note_on_c, 2, 50, 0
4, 41760, Note_on_c, 2, 59, 64
4, 41880, Note_on_c, 2, 59, 0
4, 41880, Note_on_c, 2, 57, 64
4, 42000, Note_on_c, 2, 57, 0
4, 42000, Note_on_c, 2, 62, 64
4, 42120, Note_on_c, 2, 62, 0
4, 42120, Note_on_c, 2, 61, 64
4, 42240, Note_on_c, 2, 61, 0
4, 42240, Note_on_c, 2, 55, 64
4, 42360, Note_on_c, 2, 55, 0
4, 42360, Note_on_c, 2, 54, 64
4, 42480, Note_on_c, 2, 54, 0
4, 42480, Note_on_c, 2, 63, 64
4, 42600, Note_on_c, 2, 63, 0
4, 42600, Note_on_c, 2, 62, 64
4, 42720, Note_on_c, 2, 62, 0
4, 42720, Note_on_c, 2, 57, 64
4, 42840, Note_on_c, 2, 57, 0
4, 42840, Note_on_c, 2, 56, 64
4, 42960, Note_on_c, 2, 56, 0
4, 42960, Note_on_c, 2, 65, 64
4, 43080, Note_on_c, 2, 65, 0
4, 43080, Note_on_c, 2, 64, 64
4, 43200, Note_on_c, 2, 64, 0
4, 43200, Note_on_c, 2, 63, 64
4, 43320, Note_on_c, 2, 63, 0
4, 43320, Note_on_c, 2, 64, 64
4, 43440, Note_on_c, 2, 64, 0
4, 43440, Note_on_c, 2, 61, 64
4, 43560, Note_on_c, 2, 61, 0
4, 43560, Note_on_c, 2, 57, 64
4, 43680, Note_on_c, 2, 57, 0
4, 43680, Note_on_c, 2, 59, 64
4, 44280, Note_on_c, 2, 59, 0
4, 44280, Note_on_c, 2, 57, 64
4, 44520, Note_on_c, 2, 57, 0
4, 44520, Note_on_c, 2, 55, 64
4, 44760, Note_on_c, 2, 55, 0
4, 44760, Note_on_c, 2, 54, 64
4, 44880, Note_on_c, 2, 54, 0
4, 44880, Note_on_c, 2, 52, 64
4, 45000, Note_on_c, 2, 52, 0
4, 45000, Note_on_c, 2, 49, 64
4, 45120, Note_on_c, 2, 49, 0
4, 48060, Note_on_c, 2, 64, 64
4, 48120, Note_on_c, 2, 64, 0
4, 48120, Note_on_c, 2, 66, 64
4, 48180, Note_on_c, 2, 66, 0
4, 48180, Note_on_c, 2, 67, 64
4, 48240, Note_on_c, 2, 67, 0
4, 48240, Note_on_c, 2, 69, 64
4, 48300, Note_on_c, 2, 69, 0
4, 48300, Note_on_c, 2, 71, 64
4, 48360, Note_on_c, 2, 71, 0
4, 48360, Note_on_c, 2, 64, 64
4, 48420, Note_on_c, 2, 64, 0
4, 48420, Note_on_c, 2, 63, 64
4, 48480, Note_on_c, 2, 63, 0
4, 48480, Note_on_c, 2, 59, 64
4, 48600, Note_on_c, 2, 59, 0
4, 48600, Note_on_c, 2, 58, 64
4, 48660, Note_on_c, 2, 58, 0
4, 48660, Note_on_c, 2, 59, 64
4, 48720, Note_on_c, 2, 59, 0
4, 48720, Note_on_c, 2, 61, 64
4, 48840, Note_on_c, 2, 61, 0
4, 48840, Note_on_c, 2, 52, 64
4, 48960, Note_on_c, 2, 52, 0
4, 48960, Note_on_c, 2, 59, 64
4, 49080, Note_on_c, 2, 59, 0
4, 49500, Note_on_c, 2, 49, 64
4, 49560, Note_on_c, 2, 49, 0
4, 49560, Note_on_c, 2, 51, 64
4, 49620, Note_on_c, 2, 51, 0
4, 49620, Note_on_c, 2, 53, 64
4, 49680, Note_on_c, 2, 53, 0
4, 49680, Note_on_c, 2, 54, 64
4, 49740, Note_on_c, 2, 54, 0
4, 49740, Note_on_c, 2, 56, 64
4, 49800, Note_on_c, 2, 56, 0
4, 49800, Note_on_c, 2, 57, 64
4, 49860, Note_on_c, 2, 57, 0
4, 49860, Note_on_c, 2, 53, 64
4, 49920, Note_on_c, 2, 53, 0
4, 49920, Note_on_c, 2, 54, 64
4, 50160, Note_on_c, 2, 54, 0
4, 50160, Note_on_c, 2, 56, 64
4, 50400, Note_on_c, 2, 56, 0
4, 50520, Note_on_c, 2, 61, 64
4, 50640, Note_on_c, 2, 61, 0
4, 50640, Note_on_c, 2, 57, 64
4, 50760, Note_on_c, 2, 57, 0
4, 50760, Note_on_c, 2, 54, 64
4, 50880, Note_on_c, 2, 54, 0
4, 50880, Note_on_c, 2, 62, 64
4, 51000, Note_on_c, 2, 62, 0
4, 51000, Note_on_c, 2, 61, 64
4, 51120, Note_on_c, 2, 61, 0
4, 51120, Note_on_c, 2, 66, 64
4, 51240, Note_on_c, 2, 66, 0
4, 51240, Note_on_c, 2, 65, 64
4, 51360, Note_on_c, 2, 65, 0
4, 51360, Note_on_c, 2, 59, 64
4, 51480, Note_on_c, 2, 59, 0
4, 51480, Note_on_c, 2, 58, 64
4, 51600, Note_on_c, 2, 58, 0
4, 51600, Note_on_c, 2, 67, 64
4, 51720, Note_on_c, 2, 67, 0
4, 51720, Note_on_c, 2, 66, 64
4, 51840, Note_on_c, 2, 66, 0
4, 51840, Note_on_c, 2, 61, 64
4, 51960, Note_on_c, 2, 61, 0
4, 51960, Note_on_c, 2, 60, 64
4, 52080, Note_on_c, 2, 60, 0
4, 52080, Note_on_c, 2, 69, 64
4, 52200, Note_on_c, 2, 69, 0
4, 52200, Note_on_c, 2, 68, 64
4, 52320, Note_on_c, 2, 68, 0
4, 52320, Note_on_c, 2, 67, 64
4, 52440, Note_on_c, 2, 67, 0
4, 52440, Note_on_c, 2, 68, 64
4, 52560, Note_on_c, 2, 68, 0
4, 52560, Note_on_c, 2, 64, 64
4, 52680, Note_on_c, 2, 64, 0
4, 52680, Note_on_c, 2, 61, 64
4, 52800, Note_on_c, 2, 61, 0
4, 52800, Note_on_c, 2, 63, 64
4, 53340, Note_on_c, 2, 63, 0
4, 53340, Note_on_c, 2, 56, 64
4, 53400, Note_on_c, 2, 56, 0
4, 53400, Note_on_c, 2, 58, 64
4, 53460, Note_on_c, 2, 58, 0
4, 53460, Note_on_c, 2, 60, 64
4, 53520, Note_on_c, 2, 60, 0
4, 53520, Note_on_c, 2, 61, 64
4, 53580, Note_on_c, 2, 61, 0
4, 53580, Note_on_c, 2, 63, 64
4, 53640, Note_on_c, 2, 63, 0
4, 53640, Note_on_c, 2, 54, 64
4, 53700, Note_on_c, 2, 54, 0
4, 53700, Note_on_c, 2, 52, 64
4, 53760, Note_on_c, 2, 52, 0
4, 53760, Note_on_c, 2, 54, 64
4, 54000, Note_on_c, 2, 54, 0
4, 57240, Note_on_c, 2, 66, 64
4, 57360, Note_on_c, 2, 66, 0
4, 57360, Note_on_c, 2, 62, 64
4, 57480, Note_on_c, 2, 62, 0
4, 57480, Note_on_c, 2, 59, 64
4, 57600, Note_on_c, 2, 59, 0
4, 57600, Note_on_c, 2, 67, 64
4, 57720, Note_on_c, 2, 67, 0
4, 57720, Note_on_c, 2, 66, 64
4, 57840, Note_on_c, 2, 66, 0
4, 57840, Note_on_c, 2, 71, 64
4, 57960, Note_on_c, 2, 71, 0
4, 57960, Note_on_c, 2, 70, 64
4, 58080, Note_on_c, 2, 70, 0
4, 58080, Note_on_c, 2, 64, 64
4, 58200, Note_on_c, 2, 64, 0
4, 58200, Note_on_c, 2, 63, 64
4, 58320, Note_on_c, 2, 63, 0
4, 58320, Note_on_c, 2, 72, 64
4, 58440, Note_on_c, 2, 72, 0
4, 58440, Note_on_c, 2, 71, 64
4, 58560, Note_on_c, 2, 71, 0
4, 58560, Note_on_c, 2, 66, 64
4, 58680, Note_on_c, 2, 66, 0
4, 58680, Note_on_c, 2, 65, 64
4, 58800, Note_on_c, 2, 65, 0
4, 58800, Note_on_c, 2, 74, 64
4, 58920, Note_on_c, 2, 74, 0
4, 58920, Note_on_c, 2, 73, 64
4, 59040, Note_on_c, 2, 73, 0
4, 59040, Note_on_c, 2, 72, 64
4, 59160, Note_on_c, 2, 72, 0
4, 59160, Note_on_c, 2, 73, 64
4, 59280, Note_on_c, 2, 73, 0
4, 59280, Note_on_c, 2, 69, 64
4, 59400, Note_on_c, 2, 69, 0
4, 59400, Note_on_c, 2, 66, 64
4, 59520, Note_on_c, 2, 66, 0
4, 59520, Note_on_c, 2, 68, 64
4, 60060, Note_on_c, 2, 68, 0
4, 60060, Note_on_c, 2, 61, 64
4, 60120, Note_on_c, 2, 61, 0
4, 60120, Note_on_c, 2, 63, 64
4, 60180, Note_on_c, 2, 63, 0
4, 60180, Note_on_c, 2, 65, 64
4, 60240, Note_on_c, 2, 65, 0
4, 60240, Note_on_c, 2, 66, 64
4, 60300, Note_on_c, 2, 66, 0
4, 60300, Note_on_c, 2, 68, 64
4, 60360, Note_on_c, 2, 68, 0
4, 60360, Note_on_c, 2, 59, 64
4, 60420, Note_on_c, 2, 59, 0
4, 60420, Note_on_c, 2, 57, 64
4, 60480, Note_on_c, 2, 57, 0
4, 60480, Note_on_c, 2, 59, 64
4, 61440, Note_on_c, 2, 59, 0
4, 61440, Note_on_c, 2, 58, 64
4, 61560, Note_on_c, 2, 58, 0
4, 61560, Note_on_c, 2, 54, 64
4, 61680, Note_on_c, 2, 54, 0
4, 61680, Note_on_c, 2, 59, 64
4, 61800, Note_on_c, 2, 59, 0
4, 61800, Note_on_c, 2, 62, 64
4, 61920, Note_on_c, 2, 62, 0
4, 61920, Note_on_c, 2, 64, 64
4, 62040, Note_on_c, 2, 64, 0
4, 62040, Note_on_c, 2, 67, 64
4, 62160, Note_on_c, 2, 67, 0
4, 62160, Note_on_c, 2, 69, 64
4, 62280, Note_on_c, 2, 69, 0
4, 62280, Note_on_c, 2, 61, 64
4, 62400, Note_on_c, 2, 61, 0
4, 62400, Note_on_c, 2, 62, 64
4, 62520, Note_on_c, 2, 62, 0
4, 62520, Note_on_c, 2, 66, 64
4, 62640, Note_on_c, 2, 66, 0
4, 62640, Note_on_c, 2, 67, 64
4, 62760, Note_on_c, 2, 67, 0
4, 62760, Note_on_c, 2, 59, 64
4, 62880, Note_on_c, 2, 59, 0
4, 62880, Note_on_c, 2, 61, 64
4, 63000, Note_on_c, 2, 61, 0
4, 63000, Note_on_c, 2, 64, 64
4, 63120, Note_on_c, 2, 64, 0
4, 63120, Note_on_c, 2, 66, 64
4, 63240, Note_on_c, 2, 66, 0
4, 63240, Note_on_c, 2, 58, 64
4, 63360, Note_on_c, 2, 58, 0
4, 63360, Note_on_c, 2, 59, 64
4, 63420, Note_on_c, 2, 59, 0
4, 63420, Note_on_c, 2, 54, 64
4, 63480, Note_on_c, 2, 54, 0
4, 63480, Note_on_c, 2, 55, 64
4, 63540, Note_on_c, 2, 55, 0
4, 63540, Note_on_c, 2, 57, 64
4, 63600, Note_on_c, 2, 57, 0
4, 63600, Note_on_c, 2, 59, 64
4, 63660, Note_on_c, 2, 59, 0
4, 63660, Note_on_c, 2, 60, 64
4, 63720, Note_on_c, 2, 60, 0
4, 63720, Note_on_c, 2, 52, 64
4, 63780, Note_on_c, 2, 52, 0
4, 63780, Note_on_c, 2, 51, 64
4, 63840, Note_on_c, 2, 51, 0
4, 63840, Note_on_c, 2, 52, 64
4, 63960, Note_on_c, 2, 52, 0
4, 63960, Note_on_c, 2, 55, 64
4, 64080, Note_on_c, 2, 55, 0
4, 64080, Note_on_c, 2, 57, 64
4, 64200, Note_on_c, 2, 57, 0
4, 64200, Note_on_c, 2, 61, 64
4, 64320, Note_on_c, 2, 61, 0
4, 64320, Note_on_c, 2, 62, 64
4, 64440, Note_on_c, 2, 62, 0
4, 64440, Note_on_c, 2, 54, 64
4, 64560, Note_on_c, 2, 54, 0
4, 64560, Note_on_c, 2, 55, 64
4, 64680, Note_on_c, 2, 55, 0
4, 64680, Note_on_c, 2, 59, 64
4, 64800, Note_on_c, 2, 59, 0
4, 64800, Note_on_c, 2, 61, 64
4, 64920, Note_on_c, 2, 61, 0
4, 64920, Note_on_c, 2, 52, 64
4, 65040, Note_on_c, 2, 52, 0
4, 65040, Note_on_c, 2, 54, 64
4, 65160, Note_on_c, 2, 54, 0
4, 65160, Note_on_c, 2, 58, 64
4, 65280, Note_on_c, 2, 58, 0
4, 65280, Note_on_c, 2, 59, 64
4, 65400, Note_on_c, 2, 59, 0
4, 65400, Note_on_c, 2, 54, 64
4, 65520, Note_on_c, 2, 54, 0
4, 65520, Note_on_c, 2, 50, 64
4, 65640, Note_on_c, 2, 50, 0
4, 65640, Note_on_c, 2, 47, 64
4, 65760, Note_on_c, 2, 47, 0
4, 65760, Note_on_c, 2, 55, 64
4, 65880, Note_on_c, 2, 55, 0
4, 65880, Note_on_c, 2, 54, 64
4, 66000, Note_on_c, 2, 54, 0
4, 66000, Note_on_c, 2, 59, 64
4, 66120, Note_on_c, 2, 59, 0
4, 66120, Note_on_c, 2, 58, 64
4, 66240, Note_on_c, 2, 58, 0
4, 66240, Note_on_c, 2, 52, 64
4, 66360, Note_on_c, 2, 52, 0
4, 66360, Note_on_c, 2, 51, 64
4, 66480, Note_on_c, 2, 51, 0
4, 66480, Note_on_c, 2, 52, 64
4, 66960, Note_on_c, 2, 52, 0
4, 66960, Note_on_c, 2, 54, 64
4, 67200, Note_on_c, 2, 54, 0
4, 67200, Note_on_c, 2, 52, 64
4, 67440, Note_on_c, 2, 52, 0
4, 67500, Note_on_c, 2, 59, 64
4, 67560, Note_on_c, 2, 59, 0
4, 67560, Note_on_c, 2, 61, 64
4, 67620, Note_on_c, 2, 61, 0
4, 67620, Note_on_c, 2, 62, 64
4, 67680, Note_on_c, 2, 62, 0
4, 67680, Note_on_c, 2, 64, 64
4, 67860, Note_on_c, 2, 64, 0
4, 67860, Note_on_c, 2, 64, 64
4, 67920, Note_on_c, 2, 64, 0
4, 67920, Note_on_c, 2, 62, 64
4, 67980, Note_on_c, 2, 62, 0
4, 67980, Note_on_c, 2, 61, 64
4, 68040, Note_on_c, 2, 61, 0
4, 68040, Note_on_c, 2, 59, 64
4, 68100, Note_on_c, 2, 59, 0
4, 68100, Note_on_c, 2, 57, 64
4, 68160, Note_on_c, 2, 57, 0
4, 68160, Note_on_c, 2, 56, 64
4, 68280, Note_on_c, 2, 56, 0
4, 68280, Note_on_c, 2, 54, 64
4, 68460, Note_on_c, 2, 54, 0
4, 68460, Note_on_c, 2, 57, 64
4, 68520, Note_on_c, 2, 57, 0
4, 68520, Note_on_c, 2, 55, 64
4, 68580, Note_on_c, 2, 55, 0
4, 68580, Note_on_c, 2, 54, 64
4, 68640, Note_on_c, 2, 54, 0
4, 68640, Note_on_c, 2, 52, 64
4, 69120, Note_on_c, 2, 52, 0
4, 69120, Note_on_c, 2, 54, 64
4, 69360, Note_on_c, 2, 54, 0
4, 69480, Note_on_c, 2, 57, 64
4, 69600, Note_on_c, 2, 57, 0
4, 69600, Note_on_c, 2, 55, 64
4, 69840, Note_on_c, 2, 55, 0
4, 69960, Note_on_c, 2, 59, 64
4, 70080, Note_on_c, 2, 59, 0
4, 70080, Note_on_c, 2, 58, 64
4, 70140, Note_on_c, 2, 58, 0
4, 70140, Note_on_c, 2, 54, 64
4, 70200, Note_on_c, 2, 54, 0
4, 70200, Note_on_c, 2, 56, 64
4, 70260, Note_on_c, 2, 56, 0
4, 70260, Note_on_c, 2, 58, 64
4, 70320, Note_on_c, 2, 58, 0
4, 70320, Note_on_c, 2, 59, 64
4, 70380, Note_on_c, 2, 59, 0
4, 70380, Note_on_c, 2, 61, 64
4, 70440, Note_on_c, 2, 61, 0
4, 70440, Note_on_c, 2, 62, 64
4, 70500, Note_on_c, 2, 62, 0
4, 70500, Note_on_c, 2, 59, 64
4, 70620, Note_on_c, 2, 59, 0
4, 70620, Note_on_c, 2, 59, 64
4, 70680, Note_on_c, 2, 59, 0
4, 70680, Note_on_c, 2, 58, 64
4, 70740, Note_on_c, 2, 58, 0
4, 70740, Note_on_c, 2, 59, 64
4, 70800, Note_on_c, 2, 59, 0
4, 70800, Note_on_c, 2, 61, 64
4, 70860, Note_on_c, 2, 61, 0
4, 70860, Note_on_c, 2, 62, 64
4, 70920, Note_on_c, 2, 62, 0
4, 70920, Note_on_c, 2, 64, 64
4, 70980, Note_on_c, 2, 64, 0
4, 70980, Note_on_c, 2, 61, 64
4, 71040, Note_on_c, 2, 61, 0
4, 71040, Note_on_c, 2, 66, 64
4, 71280, Note_on_c, 2, 66, 0
4, 71400, Note_on_c, 2, 62, 64
4, 71520, Note_on_c, 2, 62, 0
4, 71520, Note_on_c, 2, 61, 64
4, 72000, Note_on_c, 2, 61, 0
4, 72000, Note_on_c, 2, 59, 64
4, 72960, Note_on_c, 2, 59, 0
4, 72960, End_track
5, 0, Start_track
5, 0, MIDI_port, 0
5, 0, Title_t, "4"
5, 0, Program_c, 3, 6
5, 7800, Note_on_c, 3, 54, 64
5, 7920, Note_on_c, 3, 54, 0
5, 7920, Note_on_c, 3, 50, 64
5, 8040, Note_on_c, 3, 50, 0
5, 8040, Note_on_c, 3, 47, 64
5, 8160, Note_on_c, 3, 47, 0
5, 8160, Note_on_c, 3, 55, 64
5, 8280, Note_on_c, 3, 55, 0
5, 8280, Note_on_c, 3, 54, 64
5, 8380, Note_on_c, 3, 54, 0
5, 8400, Note_on_c, 3, 59, 64
5, 8520, Note_on_c, 3, 59, 0
5, 8520, Note_on_c, 3, 58, 64
5, 8620, Note_on_c, 3, 58, 0
5, 8640, Note_on_c, 3, 52, 64
5, 8760, Note_on_c, 3, 52, 0
5, 8760, Note_on_c, 3, 51, 64
5, 8860, Note_on_c, 3, 51, 0
5, 8880, Note_on_c, 3, 60, 64
5, 9000, Note_on_c, 3, 60, 0
5, 9000, Note_on_c, 3, 59, 64
5, 9100, Note_on_c, 3, 59, 0
5, 9120, Note_on_c, 3, 54, 64
5, 9240, Note_on_c, 3, 54, 0
5, 9240, Note_on_c, 3, 53, 64
5, 9360, Note_on_c, 3, 53, 0
5, 9360, Note_on_c, 3, 62, 64
5, 9480, Note_on_c, 3, 62, 0
5, 9480, Note_on_c, 3, 61, 64
5, 9600, Note_on_c, 3, 61, 0
5, 9600, Note_on_c, 3, 60, 64
5, 9720, Note_on_c, 3, 60, 0
5, 9720, Note_on_c, 3, 61, 64
5, 9840, Note_on_c, 3, 61, 0
5, 9840, Note_on_c, 3, 57, 64
5, 9960, Note_on_c, 3, 57, 0
5, 9960, Note_on_c, 3, 54, 64
5, 10080, Note_on_c, 3, 54, 0
5, 10080, Note_on_c, 3, 56, 64
5, 10560, Note_on_c, 3, 56, 0
5, 10560, Note_on_c, 3, 54, 64
5, 10620, Note_on_c, 3, 54, 0
5, 10620, Note_on_c, 3, 54, 64
5, 10680, Note_on_c, 3, 54, 0
5, 10680, Note_on_c, 3, 55, 64
5, 10740, Note_on_c, 3, 55, 0
5, 10740, Note_on_c, 3, 57, 64
5, 10800, Note_on_c, 3, 57, 0
5, 10800, Note_on_c, 3, 59, 64
5, 10860, Note_on_c, 3, 59, 0
5, 10860, Note_on_c, 3, 60, 64
5, 10920, Note_on_c, 3, 60, 0
5, 10920, Note_on_c, 3, 52, 64
5, 10980, Note_on_c, 3, 52, 0
5, 10980, Note_on_c, 3, 51, 64
5, 11040, Note_on_c, 3, 51, 0
5, 11040, Note_on_c, 3, 52, 64
5, 11100, Note_on_c, 3, 52, 0
5, 11100, Note_on_c, 3, 54, 64
5, 11160, Note_on_c, 3, 54, 0
5, 11160, Note_on_c, 3, 55, 64
5, 11220, Note_on_c, 3, 55, 0
5, 11220, Note_on_c, 3, 52, 64
5, 11280, Note_on_c, 3, 52, 0
5, 11280, Note_on_c, 3, 58, 64
5, 11340, Note_on_c, 3, 58, 0
5, 11340, Note_on_c, 3, 59, 64
5, 11400, Note_on_c, 3, 59, 0
5, 11400, Note_on_c, 3, 50, 64
5, 11460, Note_on_c, 3, 50, 0
5, 11460, Note_on_c, 3, 49, 64
5, 11520, Note_on_c, 3, 49, 0
5, 11520, Note_on_c, 3, 50, 64
5, 11640, Note_on_c, 3, 50, 0
5, 11640, Note_on_c, 3, 47, 64
5, 11760, Note_on_c, 3, 47, 0
5, 11760, Note_on_c, 3, 54, 64
5, 12240, Note_on_c, 3, 54, 0
5, 12240, Note_on_c, 3, 54, 64
5, 12480, Note_on_c, 3, 54, 0
5, 12480, Note_on_c, 3, 52, 64
5, 12720, Note_on_c, 3, 52, 0
5, 12720, Note_on_c, 3, 50, 64
5, 12960, Note_on_c, 3, 50, 0
5, 12960, Note_on_c, 3, 49, 64
5, 13200, Note_on_c, 3, 49, 0
5, 13200, Note_on_c, 3, 47, 64
5, 13560, Note_on_c, 3, 47, 0
5, 13560, Note_on_c, 3, 46, 64
5, 13680, Note_on_c, 3, 46, 0
5, 13680, Note_on_c, 3, 47, 64
5, 13980, Note_on_c, 3, 47, 0
5, 13980, Note_on_c, 3, 49, 64
5, 14040, Note_on_c, 3, 49, 0
5, 14040, Note_on_c, 3, 50, 64
5, 14100, Note_on_c, 3, 50, 0
5, 14100, Note_on_c, 3, 52, 64
5, 14160, Note_on_c, 3, 52, 0
5, 14160, Note_on_c, 3, 54, 64
5, 14220, Note_on_c, 3, 54, 0
5, 14220, Note_on_c, 3, 55, 64
5, 14280, Note_on_c, 3, 55, 0
5, 14280, Note_on_c, 3, 47, 64
5, 14340, Note_on_c, 3, 47, 0
5, 14340, Note_on_c, 3, 46, 64
5, 14400, Note_on_c, 3, 46, 0
5, 14400, Note_on_c, 3, 50, 64
5, 14940, Note_on_c, 3, 50, 0
5, 14940, Note_on_c, 3, 46, 64
5, 15000, Note_on_c, 3, 46, 0
5, 15000, Note_on_c, 3, 47, 64
5, 15060, Note_on_c, 3, 47, 0
5, 15060, Note_on_c, 3, 49, 64
5, 15120, Note_on_c, 3, 49, 0
5, 15120, Note_on_c, 3, 50, 64
5, 15180, Note_on_c, 3, 50, 0
5, 15180, Note_on_c, 3, 52, 64
5, 15240, Note_on_c, 3, 52, 0
5, 15240, Note_on_c, 3, 42, 64
5, 15300, Note_on_c, 3, 42, 0
5, 15300, Note_on_c, 3, 41, 64
5, 15360, Note_on_c, 3, 41, 0
5, 15360, Note_on_c, 3, 42, 64
5, 15600, Note_on_c, 3, 42, 0
5, 15600, Note_on_c, 3, 54, 64
5, 15720, Note_on_c, 3, 54, 0
5, 15720, Note_on_c, 3, 57, 64
5, 15840, Note_on_c, 3, 57, 0
5, 15840, Note_on_c, 3, 59, 64
5, 15960, Note_on_c, 3, 59, 0
5, 15960, Note_on_c, 3, 50, 64
5, 16080, Note_on_c, 3, 50, 0
5, 16080, Note_on_c, 3, 52, 64
5, 16200, Note_on_c, 3, 52, 0
5, 16200, Note_on_c, 3, 56, 64
5, 16320, Note_on_c, 3, 56, 0
5, 16320, Note_on_c, 3, 57, 64
5, 16440, Note_on_c, 3, 57, 0
5, 16440, Note_on_c, 3, 49, 64
5, 16560, Note_on_c, 3, 49, 0
5, 16560, Note_on_c, 3, 50, 64
5, 16680, Note_on_c, 3, 50, 0
5, 16680, Note_on_c, 3, 54, 64
5, 16800, Note_on_c, 3, 54, 0
5, 16800, Note_on_c, 3, 56, 64
5, 16920, Note_on_c, 3, 56, 0
5, 16920, Note_on_c, 3, 47, 64
5, 17040, Note_on_c, 3, 47, 0
5, 17040, Note_on_c, 3, 49, 64
5, 17160, Note_on_c, 3, 49, 0
5, 17160, Note_on_c, 3, 53, 64
5, 17280, Note_on_c, 3, 53, 0
5, 17280, Note_on_c, 3, 54, 64
5, 17400, Note_on_c, 3, 54, 0
5, 17400, Note_on_c, 3, 45, 64
5, 17520, Note_on_c, 3, 45, 0
5, 17520, Note_on_c, 3, 47, 64
5, 17640, Note_on_c, 3, 47, 0
5, 17640, Note_on_c, 3, 50, 64
5, 17760, Note_on_c, 3, 50, 0
5, 17760, Note_on_c, 3, 52, 64
5, 17880, Note_on_c, 3, 52, 0
5, 17880, Note_on_c, 3, 43, 64
5, 18000, Note_on_c, 3, 43, 0
5, 18000, Note_on_c, 3, 45, 64
5, 18120, Note_on_c, 3, 45, 0
5, 18120, Note_on_c, 3, 49, 64
5, 18240, Note_on_c, 3, 49, 0
5, 18240, Note_on_c, 3, 50, 64
5, 18360, Note_on_c, 3, 50, 0
5, 18360, Note_on_c, 3, 42, 64
5, 18480, Note_on_c, 3, 42, 0
5, 18480, Note_on_c, 3, 43, 64
5, 18600, Note_on_c, 3, 43, 0
5, 18600, Note_on_c, 3, 47, 64
5, 18720, Note_on_c, 3, 47, 0
5, 18720, Note_on_c, 3, 49, 64
5, 18840, Note_on_c, 3, 49, 0
5, 18840, Note_on_c, 3, 40, 64
5, 18960, Note_on_c, 3, 40, 0
5, 18960, Note_on_c, 3, 42, 64
5, 19080, Note_on_c, 3, 42, 0
5, 19080, Note_on_c, 3, 46, 64
5, 19200, Note_on_c, 3, 46, 0
5, 19200, Note_on_c, 3, 47, 64
5, 19500, Note_on_c, 3, 47, 0
5, 19500, Note_on_c, 3, 49, 64
5, 19560, Note_on_c, 3, 49, 0
5, 19560, Note_on_c, 3, 50, 64
5, 19620, Note_on_c, 3, 50, 0
5, 19620, Note_on_c, 3, 54, 64
5, 19680, Note_on_c, 3, 54, 0
5, 19680, Note_on_c, 3, 52, 64
5, 19740, Note_on_c, 3, 52, 0
5, 19740, Note_on_c, 3, 49, 64
5, 19800, Note_on_c, 3, 49, 0
5, 19800, Note_on_c, 3, 50, 64
5, 19860, Note_on_c, 3, 50, 0
5, 19860, Note_on_c, 3, 54, 64
5, 19920, Note_on_c, 3, 54, 0
5, 19920, Note_on_c, 3, 55, 64
5, 19980, Note_on_c, 3, 55, 0
5, 19980, Note_on_c, 3, 52, 64
5, 20040, Note_on_c, 3, 52, 0
5, 20040, Note_on_c, 3, 54, 64
5, 20100, Note_on_c, 3, 54, 0
5, 20100, Note_on_c, 3, 58, 64
5, 20160, Note_on_c, 3, 58, 0
5, 20160, Note_on_c, 3, 59, 64
5, 20220, Note_on_c, 3, 59, 0
5, 20220, Note_on_c, 3, 55, 64
5, 20280, Note_on_c, 3, 55, 0
5, 20280, Note_on_c, 3, 54, 64
5, 20340, Note_on_c, 3, 54, 0
5, 20340, Note_on_c, 3, 52, 64
5, 20400, Note_on_c, 3, 52, 0
5, 20400, Note_on_c, 3, 51, 64
5, 20580, Note_on_c, 3, 51, 0
5, 20580, Note_on_c, 3, 49, 64
5, 20640, Note_on_c, 3, 49, 0
5, 20640, Note_on_c, 3, 50, 64
5, 20700, Note_on_c, 3, 50, 0
5, 20700, Note_on_c, 3, 52, 64
5, 20760, Note_on_c, 3, 52, 0
5, 20760, Note_on_c, 3, 50, 64
5, 20820, Note_on_c, 3, 50, 0
5, 20820, Note_on_c, 3, 49, 64
5, 20880, Note_on_c, 3, 49, 0
5, 20880, Note_on_c, 3, 47, 64
5, 20940, Note_on_c, 3, 47, 0
5, 20940, Note_on_c, 3, 45, 64
5, 21000, Note_on_c, 3, 45, 0
5, 21000, Note_on_c, 3, 44, 64
5, 21060, Note_on_c, 3, 44, 0
5, 21060, Note_on_c, 3, 42, 64
5, 21120, Note_on_c, 3, 42, 0
5, 21120, Note_on_c, 3, 44, 64
5, 21180, Note_on_c, 3, 44, 0
5, 21180, Note_on_c, 3, 47, 64
5, 21240, Note_on_c, 3, 47, 0
5, 21240, Note_on_c, 3, 45, 64
5, 21300, Note_on_c, 3, 45, 0
5, 21300, Note_on_c, 3, 44, 64
5, 21360, Note_on_c, 3, 44, 0
5, 21360, Note_on_c, 3, 42, 64
5, 21420, Note_on_c, 3, 42, 0
5, 21420, Note_on_c, 3, 45, 64
5, 21480, Note_on_c, 3, 45, 0
5, 21480, Note_on_c, 3, 50, 64
5, 21540, Note_on_c, 3, 50, 0
5, 21540, Note_on_c, 3, 49, 64
5, 21600, Note_on_c, 3, 49, 0
5, 21600, Note_on_c, 3, 47, 64
5, 21720, Note_on_c, 3, 47, 0
5, 21720, Note_on_c, 3, 44, 64
5, 21840, Note_on_c, 3, 44, 0
5, 21840, Note_on_c, 3, 49, 64
5, 21960, Note_on_c, 3, 49, 0
5, 21960, Note_on_c, 3, 37, 64
5, 22080, Note_on_c, 3, 37, 0
5, 22080, Note_on_c, 3, 54, 64
5, 22140, Note_on_c, 3, 54, 0
5, 22140, Note_on_c, 3, 55, 64
5, 22200, Note_on_c, 3, 55, 0
5, 22200, Note_on_c, 3, 57, 64
5, 22260, Note_on_c, 3, 57, 0
5, 22260, Note_on_c, 3, 59, 64
5, 22320, Note_on_c, 3, 59, 0
5, 22320, Note_on_c, 3, 60, 64
5, 22380, Note_on_c, 3, 60, 0
5, 22380, Note_on_c, 3, 62, 64
5, 22440, Note_on_c, 3, 62, 0
5, 22440, Note_on_c, 3, 52, 64
5, 22500, Note_on_c, 3, 52, 0
5, 22500, Note_on_c, 3, 51, 64
5, 22560, Note_on_c, 3, 51, 0
5, 22560, Note_on_c, 3, 55, 64
5, 23100, Note_on_c, 3, 55, 0
5, 23100, Note_on_c, 3, 47, 64
5, 23160, Note_on_c, 3, 47, 0
5, 23160, Note_on_c, 3, 49, 64
5, 23220, Note_on_c, 3, 49, 0
5, 23220, Note_on_c, 3, 50, 64
5, 23280, Note_on_c, 3, 50, 0
5, 23280, Note_on_c, 3, 52, 64
5, 23340, Note_on_c, 3, 52, 0
5, 23340, Note_on_c, 3, 54, 64
5, 23400, Note_on_c, 3, 54, 0
5, 23400, Note_on_c, 3, 47, 64
5, 23460, Note_on_c, 3, 47, 0
5, 23460, Note_on_c, 3, 46, 64
5, 23520, Note_on_c, 3, 46, 0
5, 23520, Note_on_c, 3, 47, 64
5, 24120, Note_on_c, 3, 47, 0
5, 24120, Note_on_c, 3, 46, 64
5, 24240, Note_on_c, 3, 46, 0
5, 24240, Note_on_c, 3, 47, 64
5, 24360, Note_on_c, 3, 47, 0
5, 24360, Note_on_c, 3, 50, 64
5, 24480, Note_on_c, 3, 50, 0
5, 24480, Note_on_c, 3, 52, 64
5, 24600, Note_on_c, 3, 52, 0
5, 24600, Note_on_c, 3, 43, 64
5, 24720, Note_on_c, 3, 43, 0
5, 24720, Note_on_c, 3, 45, 64
5, 24840, Note_on_c, 3, 45, 0
5, 24840, Note_on_c, 3, 49, 64
5, 24960, Note_on_c, 3, 49, 0
5, 24960, Note_on_c, 3, 50, 64
5, 25080, Note_on_c, 3, 50, 0
5, 25080, Note_on_c, 3, 42, 64
5, 25200, Note_on_c, 3, 42, 0
5, 25200, Note_on_c, 3, 43, 64
5, 25320, Note_on_c, 3, 43, 0
5, 25320, Note_on_c, 3, 47, 64
5, 25440, Note_on_c, 3, 47, 0
5, 25440, Note_on_c, 3, 49, 64
5, 25560, Note_on_c, 3, 49, 0
5, 25560, Note_on_c, 3, 40, 64
5, 25680, Note_on_c, 3, 40, 0
5, 25680, Note_on_c, 3, 42, 64
5, 25800, Note_on_c, 3, 42, 0
5, 25800, Note_on_c, 3, 46, 64
5, 25920, Note_on_c, 3, 46, 0
5, 25920, Note_on_c, 3, 47, 64
5, 26040, Note_on_c, 3, 47, 0
5, 26040, Note_on_c, 3, 50, 64
5, 26160, Note_on_c, 3, 50, 0
5, 26160, Note_on_c, 3, 52, 64
5, 26280, Note_on_c, 3, 52, 0
5, 26280, Note_on_c, 3, 55, 64
5, 26400, Note_on_c, 3, 55, 0
5, 26400, Note_on_c, 3, 57, 64
5, 26520, Note_on_c, 3, 57, 0
5, 26520, Note_on_c, 3, 60, 64
5, 26640, Note_on_c, 3, 60, 0
5, 26640, Note_on_c, 3, 62, 64
5, 26760, Note_on_c, 3, 62, 0
5, 26760, Note_on_c, 3, 54, 64
5, 26880, Note_on_c, 3, 54, 0
5, 26880, Note_on_c, 3, 55, 64
5, 27000, Note_on_c, 3, 55, 0
5, 27000, Note_on_c, 3, 59, 64
5, 27120, Note_on_c, 3, 59, 0
5, 27120, Note_on_c, 3, 60, 64
5, 27240, Note_on_c, 3, 60, 0
5, 27240, Note_on_c, 3, 52, 64
5, 27360, Note_on_c, 3, 52, 0
5, 27360, Note_on_c, 3, 54, 64
5, 27480, Note_on_c, 3, 54, 0
5, 27480, Note_on_c, 3, 57, 64
5, 27600, Note_on_c, 3, 57, 0
5, 27600, Note_on_c, 3, 59, 64
5, 27720, Note_on_c, 3, 59, 0
5, 27720, Note_on_c, 3, 51, 64
5, 27840, Note_on_c, 3, 51, 0
5, 27840, Note_on_c, 3, 52, 64
5, 28080, Note_on_c, 3, 52, 0
5, 35640, Note_on_c, 3, 52, 64
5, 35760, Note_on_c, 3, 52, 0
5, 35760, Note_on_c, 3, 50, 64
5, 35880, Note_on_c, 3, 50, 0
5, 35880, Note_on_c, 3, 47, 64
5, 36000, Note_on_c, 3, 47, 0
5, 36000, Note_on_c, 3, 55, 64
5, 36120, Note_on_c, 3, 55, 0
5, 36120, Note_on_c, 3, 54, 64
5, 36240, Note_on_c, 3, 54, 0
5, 36240, Note_on_c, 3, 59, 64
5, 36360, Note_on_c, 3, 59, 0
5, 36360, Note_on_c, 3, 58, 64
5, 36480, Note_on_c, 3, 58, 0
5, 36480, Note_on_c, 3, 52, 64
5, 36600, Note_on_c, 3, 52, 0
5, 36600, Note_on_c, 3, 51, 64
5, 36720, Note_on_c, 3, 51, 0
5, 36720, Note_on_c, 3, 60, 64
5, 36840, Note_on_c, 3, 60, 0
5, 36840, Note_on_c, 3, 59, 64
5, 36960, Note_on_c, 3, 59, 0
5, 36960, Note_on_c, 3, 54, 64
5, 37080, Note_on_c, 3, 54, 0
5, 37080, Note_on_c, 3, 53, 64
5, 37200, Note_on_c, 3, 53, 0
5, 37200, Note_on_c, 3, 62, 64
5, 37320, Note_on_c, 3, 62, 0
5, 37320, Note_on_c, 3, 61, 64
5, 37440, Note_on_c, 3, 61, 0
5, 37440, Note_on_c, 3, 60, 64
5, 37560, Note_on_c, 3, 60, 0
5, 37560, Note_on_c, 3, 61, 64
5, 37680, Note_on_c, 3, 61, 0
5, 37680, Note_on_c, 3, 57, 64
5, 37800, Note_on_c, 3, 57, 0
5, 37800, Note_on_c, 3, 54, 64
5, 37920, Note_on_c, 3, 54, 0
5, 37920, Note_on_c, 3, 56, 64
5, 38400, Note_on_c, 3, 56, 0
5, 38400, Note_on_c, 3, 54, 64
5, 38460, Note_on_c, 3, 54, 0
5, 38460, Note_on_c, 3, 52, 64
5, 38520, Note_on_c, 3, 52, 0
5, 38520, Note_on_c, 3, 50, 64
5, 38580, Note_on_c, 3, 50, 0
5, 38580, Note_on_c, 3, 49, 64
5, 38640, Note_on_c, 3, 49, 0
5, 38640, Note_on_c, 3, 47, 64
5, 38700, Note_on_c, 3, 47, 0
5, 38700, Note_on_c, 3, 49, 64
5, 38760, Note_on_c, 3, 49, 0
5, 38760, Note_on_c, 3, 50, 64
5, 38820, Note_on_c, 3, 50, 0
5, 38820, Note_on_c, 3, 54, 64
5, 38880, Note_on_c, 3, 54, 0
5, 38880, Note_on_c, 3, 52, 64
5, 38940, Note_on_c, 3, 52, 0
5, 38940, Note_on_c, 3, 49, 64
5, 39000, Note_on_c, 3, 49, 0
5, 39000, Note_on_c, 3, 50, 64
5, 39060, Note_on_c, 3, 50, 0
5, 39060, Note_on_c, 3, 54, 64
5, 39120, Note_on_c, 3, 54, 0
5, 39120, Note_on_c, 3, 55, 64
5, 39180, Note_on_c, 3, 55, 0
5, 39180, Note_on_c, 3, 52, 64
5, 39240, Note_on_c, 3, 52, 0
5, 39240, Note_on_c, 3, 54, 64
5, 39300, Note_on_c, 3, 54, 0
5, 39300, Note_on_c, 3, 58, 64
5, 39360, Note_on_c, 3, 58, 0
5, 39360, Note_on_c, 3, 59, 64
5, 39420, Note_on_c, 3, 59, 0
5, 39420, Note_on_c, 3, 57, 64
5, 39480, Note_on_c, 3, 57, 0
5, 39480, Note_on_c, 3, 55, 64
5, 39540, Note_on_c, 3, 55, 0
5, 39540, Note_on_c, 3, 54, 64
5, 39600, Note_on_c, 3, 54, 0
5, 39600, Note_on_c, 3, 52, 64
5, 39660, Note_on_c, 3, 52, 0
5, 39660, Note_on_c, 3, 54, 64
5, 39720, Note_on_c, 3, 54, 0
5, 39720, Note_on_c, 3, 55, 64
5, 39780, Note_on_c, 3, 55, 0
5, 39780, Note_on_c, 3, 59, 64
5, 39840, Note_on_c, 3, 59, 0
5, 39840, Note_on_c, 3, 57, 64
5, 39900, Note_on_c, 3, 57, 0
5, 39900, Note_on_c, 3, 54, 64
5, 39960, Note_on_c, 3, 54, 0
5, 39960, Note_on_c, 3, 55, 64
5, 40020, Note_on_c, 3, 55, 0
5, 40020, Note_on_c, 3, 59, 64
5, 40080, Note_on_c, 3, 59, 0
5, 40080, Note_on_c, 3, 60, 64
5, 40140, Note_on_c, 3, 60, 0
5, 40140, Note_on_c, 3, 57, 64
5, 40200, Note_on_c, 3, 57, 0
5, 40200, Note_on_c, 3, 59, 64
5, 40260, Note_on_c, 3, 59, 0
5, 40260, Note_on_c, 3, 63, 64
5, 40320, Note_on_c, 3, 63, 0
5, 40320, Note_on_c, 3, 64, 64
5, 40440, Note_on_c, 3, 64, 0
5, 40440, Note_on_c, 3, 52, 64
5, 40560, Note_on_c, 3, 52, 0
5, 40560, Note_on_c, 3, 49, 64
5, 40680, Note_on_c, 3, 49, 0
5, 40680, Note_on_c, 3, 45, 64
5, 40800, Note_on_c, 3, 45, 0
5, 40800, Note_on_c, 3, 54, 64
5, 40920, Note_on_c, 3, 54, 0
5, 40920, Note_on_c, 3, 52, 64
5, 41040, Note_on_c, 3, 52, 0
5, 41040, Note_on_c, 3, 57, 64
5, 41160, Note_on_c, 3, 57, 0
5, 41160, Note_on_c, 3, 56, 64
5, 41280, Note_on_c, 3, 56, 0
5, 41280, Note_on_c, 3, 50, 64
5, 41400, Note_on_c, 3, 50, 0
5, 41400, Note_on_c, 3, 49, 64
5, 41520, Note_on_c, 3, 49, 0
5, 41520, Note_on_c, 3, 50, 64
5, 42480, Note_on_c, 3, 50, 0
5, 44760, Note_on_c, 3, 50, 64
5, 44880, Note_on_c, 3, 50, 0
5, 44880, Note_on_c, 3, 49, 64
5, 45000, Note_on_c, 3, 49, 0
5, 45000, Note_on_c, 3, 45, 64
5, 45120, Note_on_c, 3, 45, 0
5, 45120, Note_on_c, 3, 54, 64
5, 45240, Note_on_c, 3, 54, 0
5, 45240, Note_on_c, 3, 50, 64
5, 45360, Note_on_c, 3, 50, 0
5, 45360, Note_on_c, 3, 55, 64
5, 45480, Note_on_c, 3, 55, 0
5, 45480, Note_on_c, 3, 54, 64
5, 45600, Note_on_c, 3, 54, 0
5, 45600, Note_on_c, 3, 48, 64
5, 45720, Note_on_c, 3, 48, 0
5, 45720, Note_on_c, 3, 47, 64
5, 45840, Note_on_c, 3, 47, 0
5, 45840, Note_on_c, 3, 57, 64
5, 45960, Note_on_c, 3, 57, 0
5, 45960, Note_on_c, 3, 56, 64
5, 46080, Note_on_c, 3, 56, 0
5, 46080, Note_on_c, 3, 50, 64
5, 46200, Note_on_c, 3, 50, 0
5, 46200, Note_on_c, 3, 49, 64
5, 46320, Note_on_c, 3, 49, 0
5, 46320, Note_on_c, 3, 58, 64
5, 46440, Note_on_c, 3, 58, 0
5, 46440, Note_on_c, 3, 57, 64
5, 46560, Note_on_c, 3, 57, 0
5, 46560, Note_on_c, 3, 56, 64
5, 46680, Note_on_c, 3, 56, 0
5, 46680, Note_on_c, 3, 57, 64
5, 46800, Note_on_c, 3, 57, 0
5, 46800, Note_on_c, 3, 54, 64
5, 46920, Note_on_c, 3, 54, 0
5, 46920, Note_on_c, 3, 50, 64
5, 47040, Note_on_c, 3, 50, 0
5, 47040, Note_on_c, 3, 52, 64
5, 47520, Note_on_c, 3, 52, 0
5, 47520, Note_on_c, 3, 50, 64
5, 47760, Note_on_c, 3, 50, 0
5, 47880, Note_on_c, 3, 47, 64
5, 48000, Note_on_c, 3, 47, 0
5, 48000, Note_on_c, 3, 45, 64
5, 48240, Note_on_c, 3, 45, 0
5, 48360, Note_on_c, 3, 54, 64
5, 48480, Note_on_c, 3, 54, 0
5, 48480, Note_on_c, 3, 52, 64
5, 48720, Note_on_c, 3, 52, 0
5, 48840, Note_on_c, 3, 49, 64
5, 48960, Note_on_c, 3, 49, 0
5, 48960, Note_on_c, 3, 47, 64
5, 49020, Note_on_c, 3, 47, 0
5, 49020, Note_on_c, 3, 42, 64
5, 49080, Note_on_c, 3, 42, 0
5, 49080, Note_on_c, 3, 44, 64
5, 49140, Note_on_c, 3, 44, 0
5, 49140, Note_on_c, 3, 45, 64
5, 49200, Note_on_c, 3, 45, 0
5, 49200, Note_on_c, 3, 47, 64
5, 49260, Note_on_c, 3, 47, 0
5, 49260, Note_on_c, 3, 49, 64
5, 49320, Note_on_c, 3, 49, 0
5, 49320, Note_on_c, 3, 42, 64
5, 49380, Note_on_c, 3, 42, 0
5, 49380, Note_on_c, 3, 41, 64
5, 49440, Note_on_c, 3, 41, 0
5, 49440, Note_on_c, 3, 45, 64
5, 50160, Note_on_c, 3, 45, 0
5, 50160, Note_on_c, 3, 44, 64
5, 50400, Note_on_c, 3, 44, 0
5, 50400, Note_on_c, 3, 42, 64
5, 50520, Note_on_c, 3, 42, 0
5, 54360, Note_on_c, 3, 47, 64
5, 54480, Note_on_c, 3, 47, 0
5, 54480, Note_on_c, 3, 44, 64
5, 54600, Note_on_c, 3, 44, 0
5, 54600, Note_on_c, 3, 40, 64
5, 54720, Note_on_c, 3, 40, 0
5, 54720, Note_on_c, 3, 49, 64
5, 54840, Note_on_c, 3, 49, 0
5, 54840, Note_on_c, 3, 47, 64
5, 54960, Note_on_c, 3, 47, 0
5, 54960, Note_on_c, 3, 52, 64
5, 55080, Note_on_c, 3, 52, 0
5, 55080, Note_on_c, 3, 51, 64
5, 55200, Note_on_c, 3, 51, 0
5, 55200, Note_on_c, 3, 45, 64
5, 55320, Note_on_c, 3, 45, 0
5, 55320, Note_on_c, 3, 44, 64
5, 55440, Note_on_c, 3, 44, 0
5, 55440, Note_on_c, 3, 53, 64
5, 55560, Note_on_c, 3, 53, 0
5, 55560, Note_on_c, 3, 52, 64
5, 55680, Note_on_c, 3, 52, 0
5, 55680, Note_on_c, 3, 47, 64
5, 55800, Note_on_c, 3, 47, 0
5, 55800, Note_on_c, 3, 46, 64
5, 55920, Note_on_c, 3, 46, 0
5, 55920, Note_on_c, 3, 55, 64
5, 56040, Note_on_c, 3, 55, 0
5, 56040, Note_on_c, 3, 54, 64
5, 56160, Note_on_c, 3, 54, 0
5, 56160, Note_on_c, 3, 53, 64
5, 56280, Note_on_c, 3, 53, 0
5, 56280, Note_on_c, 3, 54, 64
5, 56400, Note_on_c, 3, 54, 0
5, 56400, Note_on_c, 3, 50, 64
5, 56520, Note_on_c, 3, 50, 0
5, 56520, Note_on_c, 3, 47, 64
5, 56640, Note_on_c, 3, 47, 0
5, 56640, Note_on_c, 3, 49, 64
5, 57120, Note_on_c, 3, 49, 0
5, 57120, Note_on_c, 3, 47, 64
5, 57240, Note_on_c, 3, 47, 0
5, 66360, Note_on_c, 3, 47, 64
5, 66480, Note_on_c, 3, 47, 0
5, 66480, Note_on_c, 3, 43, 64
5, 66600, Note_on_c, 3, 43, 0
5, 66600, Note_on_c, 3, 40, 64
5, 66720, Note_on_c, 3, 40, 0
5, 66720, Note_on_c, 3, 48, 64
5, 66840, Note_on_c, 3, 48, 0
5, 66840, Note_on_c, 3, 47, 64
5, 66960, Note_on_c, 3, 47, 0
5, 66960, Note_on_c, 3, 52, 64
5, 67080, Note_on_c, 3, 52, 0
5, 67080, Note_on_c, 3, 51, 64
5, 67200, Note_on_c, 3, 51, 0
5, 67200, Note_on_c, 3, 45, 64
5, 67320, Note_on_c, 3, 45, 0
5, 67320, Note_on_c, 3, 44, 64
5, 67440, Note_on_c, 3, 44, 0
5, 67440, Note_on_c, 3, 53, 64
5, 67560, Note_on_c, 3, 53, 0
5, 67560, Note_on_c, 3, 52, 64
5, 67680, Note_on_c, 3, 52, 0
5, 67680, Note_on_c, 3, 47, 64
5, 67800, Note_on_c, 3, 47, 0
5, 67800, Note_on_c, 3, 46, 64
5, 67920, Note_on_c, 3, 46, 0
5, 67920, Note_on_c, 3, 55, 64
5, 68040, Note_on_c, 3, 55, 0
5, 68040, Note_on_c, 3, 54, 64
5, 68160, Note_on_c, 3, 54, 0
5, 68160, Note_on_c, 3, 52, 64
5, 68280, Note_on_c, 3, 52, 0
5, 68400, Note_on_c, 3, 50, 64
5, 68520, Note_on_c, 3, 50, 0
5, 68520, Note_on_c, 3, 47, 64
5, 68640, Note_on_c, 3, 47, 0
5, 68640, Note_on_c, 3, 49, 64
5, 69120, Note_on_c, 3, 49, 0
5, 69120, Note_on_c, 3, 50, 64
5, 69360, Note_on_c, 3, 50, 0
5, 69480, Note_on_c, 3, 51, 64
5, 69600, Note_on_c, 3, 51, 0
5, 69600, Note_on_c, 3, 52, 64
5, 69840, Note_on_c, 3, 52, 0
5, 69960, Note_on_c, 3, 53, 64
5, 70080, Note_on_c, 3, 53, 0
5, 70080, Note_on_c, 3, 54, 64
5, 71100, Note_on_c, 3, 54, 0
5, 71100, Note_on_c, 3, 46, 64
5, 71160, Note_on_c, 3, 46, 0
5, 71160, Note_on_c, 3, 47, 64
5, 71220, Note_on_c, 3, 47, 0
5, 71220, Note_on_c, 3, 49, 64
5, 71280, Note_on_c, 3, 49, 0
5, 71280, Note_on_c, 3, 51, 64
5, 71340, Note_on_c, 3, 51, 0
5, 71340, Note_on_c, 3, 52, 64
5, 71400, Note_on_c, 3, 52, 0
5, 71400, Note_on_c, 3, 42, 64
5, 71460, Note_on_c, 3, 42, 0
5, 71460, Note_on_c, 3, 41, 64
5, 71520, Note_on_c, 3, 41, 0
5, 71520, Note_on_c, 3, 42, 64
5, 71580, Note_on_c, 3, 47, 64
5, 71640, Note_on_c, 3, 47, 0
5, 71640, Note_on_c, 3, 49, 64
5, 71700, Note_on_c, 3, 49, 0
5, 71700, Note_on_c, 3, 50, 64
5, 71760, Note_on_c, 3, 50, 0
5, 71760, Note_on_c, 3, 52, 64
5, 71820, Note_on_c, 3, 52, 0
5, 71820, Note_on_c, 3, 49, 64
5, 71880, Note_on_c, 3, 49, 0
5, 71880, Note_on_c, 3, 54, 64
5, 72000, Note_on_c, 3, 42, 0
5, 72000, Note_on_c, 3, 47, 64
5, 72960, Note_on_c, 3, 47, 0
5, 72960, Note_on_c, 3, 54, 0
5, 72960, End_track
0, 0, End_of_file
