0, 0, Header, 1, 5, 1024
1, 0, Start_track
1, 0, Time_signature, 4, 2, 24, 8
1, 0, Key_signature, 0, "major"
1, 0, Tempo, 681818
1, 53248, End_track
2, 0, Start_track
2, 0, Title_t, "Instrument 1"
2, 0, Note_on_c, 0, 67, 96
2, 1024, Note_off_c, 0, 67, 0
2, 1024, Note_on_c, 0, 67, 96
2, 2048, Note_off_c, 0, 67, 0
2, 2048, Note_on_c, 0, 69, 96
2, 3072, Note_off_c, 0, 69, 0
2, 3072, Note_on_c, 0, 67, 96
2, 4096, Note_off_c, 0, 67, 0
2, 4096, Note_on_c, 0, 69, 96
2, 4608, Note_off_c, 0, 69, 0
2, 4608, Note_on_c, 0, 71, 96
2, 5120, Note_off_c, 0, 71, 0
2, 5120, Note_on_c, 0, 72, 96
2, 6144, Note_off_c, 0, 72, 0
2, 6144, Note_on_c, 0, 72, 96
2, 7168, Note_off_c, 0, 72, 0
2, 7168, Note_on_c, 0, 71, 96
2, 8192, Note_off_c, 0, 71, 0
2, 8192, Note_on_c, 0, 72, 96
2, 10240, Note_off_c, 0, 72, 0
2, 10240, Note_on_c, 0, 74, 96
2, 11264, Note_off_c, 0, 74, 0
2, 11264, Note_on_c, 0, 76, 96
2, 12288, Note_off_c, 0, 76, 0
2, 12288, Note_on_c, 0, 72, 96
2, 14336, Note_off_c, 0, 72, 0
2, 14336, Note_on_c, 0, 71, 96
2, 14848, Note_off_c, 0, 71, 0
2, 14848, Note_on_c, 0, 72, 96
2, 15360, Note_off_c, 0, 72, 0
2, 15360, Note_on_c, 0, 74, 96
2, 16384, Note_off_c, 0, 74, 0
2, 16384, Note_on_c, 0, 69, 96
2, 18432, Note_off_c, 0, 69, 0
2, 18432, Note_on_c, 0, 74, 96
2, 19456, Note_off_c, 0, 74, 0
2, 19456, Note_on_c, 0, 74, 96
2, 20480, Note_off_c, 0, 74, 0
2, 20480, Note_on_c, 0, 72, 96
2, 21504, Note_off_c, 0, 72, 0
2, 21504, Note_on_c, 0, 71, 96
2, 22528, Note_off_c, 0, 71, 0
2, 22528, Note_on_c, 0, 69, 96
2, 23552, Note_off_c, 0, 69, 0
2, 23552, Note_on_c, 0, 69, 96
2, 24320, Note_off_c, 0, 69, 0
2, 24320, Note_on_c, 0, 67, 96
2, 24576, Note_off_c, 0, 67, 0
2, 24576, Note_on_c, 0, 67, 96
2, 26624, Note_off_c, 0, 67, 0
2, 26624, Note_on_c, 0, 72, 96
2, 27648, Note_off_c, 0, 72, 0
2, 27648, Note_on_c, 0, 72, 96
2, 28672, Note_off_c, 0, 72, 0
2, 28672, Note_on_c, 0, 71, 96
2, 29696, Note_off_c, 0, 71, 0
2, 29696, Note_on_c, 0, 72, 96
2, 30720, Note_off_c, 0, 72, 0
2, 30720, Note_on_c, 0, 69, 96
2, 31744, Note_off_c, 0, 69, 0
2, 31744, Note_on_c, 0, 74, 96
2, 32768, Note_off_c, 0, 74, 0
2, 32768, Note_on_c, 0, 74, 96
2, 33792, Note_off_c, 0, 74, 0
2, 33792, Note_on_c, 0, 73, 96
2, 34816, Note_off_c, 0, 73, 0
2, 34816, Note_on_c, 0, 74, 96
2, 36864, Note_off_c, 0, 74, 0
2, 36864, Note_on_c, 0, 74, 96
2, 37888, Note_off_c, 0, 74, 0
2, 37888, Note_on_c, 0, 76, 96
2, 38912, Note_off_c, 0, 76, 0
2, 38912, Note_on_c, 0, 72, 96
2, 40960, Note_off_c, 0, 72, 0
2, 40960, Note_on_c, 0, 71, 96
2, 41472, Note_off_c, 0, 71, 0
2, 41472, Note_on_c, 0, 72, 96
2, 41984, Note_off_c, 0, 72, 0
2, 41984, Note_on_c, 0, 74, 96
2, 43008, Note_off_c, 0, 74, 0
2, 43008, Note_on_c, 0, 69, 96
2, 45056, Note_off_c, 0, 69, 0
2, 45056, Note_on_c, 0, 74, 96
2, 46080, Note_off_c, 0, 74, 0
2, 46080, Note_on_c, 0, 74, 96
2, 47104, Note_off_c, 0, 74, 0
2, 47104, Note_on_c, 0, 72, 96
2, 48128, Note_off_c, 0, 72, 0
2, 48128, Note_on_c, 0, 71, 96
2, 48640, Note_off_c, 0, 71, 0
2, 48640, Note_on_c, 0, 69, 96
2, 49152, Note_off_c, 0, 69, 0
2, 49152, Note_on_c, 0, 69, 96
2, 50176, Note_off_c, 0, 69, 0
2, 50176, Note_on_c, 0, 69, 96
2, 50944, Note_off_c, 0, 69, 0
2, 50944, Note_on_c, 0, 67, 96
2, 51200, Note_off_c, 0, 67, 0
2, 51200, Note_on_c, 0, 67, 96
2, 53248, Note_off_c, 0, 67, 0
2, 53248, End_track
3, 0, Start_track
3, 0, Title_t, "Instrument 2"
3, 0, Note_on_c, 1, 64, 96
3, 512, Note_off_c, 1, 64, 0
3, 512, Note_on_c, 1, 65, 96
3, 1024, Note_off_c, 1, 65, 0
3, 1024, Note_on_c, 1, 67, 96
3, 1536, Note_off_c, 1, 67, 0
3, 1536, Note_on_c, 1, 64, 96
3, 2560, Note_off_c, 1, 64, 0
3, 2560, Note_on_c, 1, 62, 96
3, 3584, Note_off_c, 1, 62, 0
3, 3584, Note_on_c, 1, 67, 96
3, 4096, Note_off_c, 1, 67, 0
3, 4096, Note_on_c, 1, 65, 96
3, 5120, Note_off_c, 1, 65, 0
3, 5120, Note_on_c, 1, 67, 96
3, 6144, Note_off_c, 1, 67, 0
3, 6144, Note_on_c, 1, 67, 96
3, 8192, Note_off_c, 1, 67, 0
3, 8192, Note_on_c, 1, 67, 96
3, 10240, Note_off_c, 1, 67, 0
3, 10240, Note_on_c, 1, 67, 96
3, 10752, Note_off_c, 1, 67, 0
3, 10752, Note_on_c, 1, 65, 96
3, 11264, Note_off_c, 1, 65, 0
3, 11264, Note_on_c, 1, 64, 96
3, 12288, Note_off_c, 1, 64, 0
3, 12288, Note_on_c, 1, 64, 96
3, 14336, Note_off_c, 1, 64, 0
3, 14336, Note_on_c, 1, 64, 96
3, 15360, Note_off_c, 1, 64, 0
3, 15360, Note_on_c, 1, 62, 96
3, 16384, Note_off_c, 1, 62, 0
3, 16384, Note_on_c, 1, 62, 96
3, 18432, Note_off_c, 1, 62, 0
3, 18432, Note_on_c, 1, 62, 96
3, 19456, Note_off_c, 1, 62, 0
3, 19456, Note_on_c, 1, 64, 96
3, 20480, Note_off_c, 1, 64, 0
3, 20480, Note_on_c, 1, 64, 96
3, 20992, Note_off_c, 1, 64, 0
3, 20992, Note_on_c, 1, 62, 96
3, 22016, Note_off_c, 1, 62, 0
3, 22016, Note_on_c, 1, 67, 96
3, 22528, Note_off_c, 1, 67, 0
3, 22528, Note_on_c, 1, 67, 96
3, 23552, Note_off_c, 1, 67, 0
3, 23552, Note_on_c, 1, 66, 96
3, 24576, Note_off_c, 1, 66, 0
3, 24576, Note_on_c, 1, 62, 96
3, 26624, Note_off_c, 1, 62, 0
3, 26624, Note_on_c, 1, 67, 96
3, 27136, Note_off_c, 1, 67, 0
3, 27136, Note_on_c, 1, 66, 96
3, 27648, Note_off_c, 1, 66, 0
3, 27648, Note_on_c, 1, 67, 96
3, 28160, Note_off_c, 1, 67, 0
3, 28160, Note_on_c, 1, 69, 96
3, 28672, Note_off_c, 1, 69, 0
3, 28672, Note_on_c, 1, 67, 96
3, 29696, Note_off_c, 1, 67, 0
3, 29696, Note_on_c, 1, 67, 96
3, 31744, Note_off_c, 1, 67, 0
3, 31744, Note_on_c, 1, 65, 96
3, 32768, Note_off_c, 1, 65, 0
3, 32768, Note_on_c, 1, 64, 96
3, 34816, Note_off_c, 1, 64, 0
3, 34816, Note_on_c, 1, 66, 96
3, 36864, Note_off_c, 1, 66, 0
3, 36864, Note_on_c, 1, 67, 96
3, 37888, Note_off_c, 1, 67, 0
3, 37888, Note_on_c, 1, 67, 96
3, 38912, Note_off_c, 1, 67, 0
3, 38912, Note_on_c, 1, 65, 96
3, 40960, Note_off_c, 1, 65, 0
3, 40960, Note_on_c, 1, 62, 96
3, 41472, Note_off_c, 1, 62, 0
3, 41472, Note_on_c, 1, 64, 96
3, 41984, Note_off_c, 1, 64, 0
3, 41984, Note_on_c, 1, 62, 96
3, 42496, Note_off_c, 1, 62, 0
3, 42496, Note_on_c, 1, 64, 96
3, 43008, Note_off_c, 1, 64, 0
3, 43008, Note_on_c, 1, 66, 96
3, 45056, Note_off_c, 1, 66, 0
3, 45056, Note_on_c, 1, 66, 96
3, 46080, Note_off_c, 1, 66, 0
3, 46080, Note_on_c, 1, 67, 96
3, 46592, Note_off_c, 1, 67, 0
3, 46592, Note_on_c, 1, 66, 96
3, 47104, Note_off_c, 1, 66, 0
3, 47104, Note_on_c, 1, 64, 96
3, 47616, Note_off_c, 1, 64, 0
3, 47616, Note_on_c, 1, 66, 96
3, 48128, Note_off_c, 1, 66, 0
3, 48128, Note_on_c, 1, 67, 96
3, 49152, Note_off_c, 1, 67, 0
3, 49152, Note_on_c, 1, 67, 96
3, 50176, Note_off_c, 1, 67, 0
3, 50176, Note_on_c, 1, 66, 96
3, 51200, Note_off_c, 1, 66, 0
3, 51200, Note_on_c, 1, 62, 96
3, 53248, Note_off_c, 1, 62, 0
3, 53248, End_track
4, 0, Start_track
4, 0, Title_t, "Instrument 3"
4, 0, Note_on_c, 2, 60, 96
4, 1024, Note_off_c, 2, 60, 0
4, 1024, Note_on_c, 2, 60, 96
4, 2048, Note_off_c, 2, 60, 0
4, 2048, Note_on_c, 2, 60, 96
4, 3072, Note_off_c, 2, 60, 0
4, 3072, Note_on_c, 2, 59, 96
4, 3584, Note_off_c, 2, 59, 0
4, 3584, Note_on_c, 2, 60, 96
4, 4096, Note_off_c, 2, 60, 0
4, 4096, Note_on_c, 2, 65, 96
4, 5120, Note_off_c, 2, 65, 0
4, 5120, Note_on_c, 2, 64, 96
4, 6144, Note_off_c, 2, 64, 0
4, 6144, Note_on_c, 2, 62, 96
4, 6656, Note_off_c, 2, 62, 0
4, 6656, Note_on_c, 2, 64, 96
4, 7168, Note_off_c, 2, 64, 0
4, 7168, Note_on_c, 2, 65, 96
4, 7680, Note_off_c, 2, 65, 0
4, 7680, Note_on_c, 2, 67, 96
4, 7936, Note_off_c, 2, 67, 0
4, 7936, Note_on_c, 2, 65, 96
4, 8192, Note_off_c, 2, 65, 0
4, 8192, Note_on_c, 2, 64, 96
4, 10240, Note_off_c, 2, 64, 0
4, 10240, Note_on_c, 2, 59, 96
4, 11264, Note_off_c, 2, 59, 0
4, 11264, Note_on_c, 2, 59, 96
4, 12288, Note_off_c, 2, 59, 0
4, 12288, Note_on_c, 2, 57, 96
4, 14336, Note_off_c, 2, 57, 0
4, 14336, Note_on_c, 2, 55, 96
4, 15360, Note_off_c, 2, 55, 0
4, 15360, Note_on_c, 2, 55, 96
4, 16384, Note_off_c, 2, 55, 0
4, 16384, Note_on_c, 2, 54, 96
4, 18432, Note_off_c, 2, 54, 0
4, 18432, Note_on_c, 2, 54, 96
4, 19456, Note_off_c, 2, 54, 0
4, 19456, Note_on_c, 2, 55, 96
4, 20992, Note_off_c, 2, 55, 0
4, 20992, Note_on_c, 2, 57, 96
4, 21504, Note_off_c, 2, 57, 0
4, 21504, Note_on_c, 2, 59, 96
4, 22016, Note_off_c, 2, 59, 0
4, 22016, Note_on_c, 2, 62, 96
4, 22528, Note_off_c, 2, 62, 0
4, 22528, Note_on_c, 2, 64, 96
4, 23552, Note_off_c, 2, 64, 0
4, 23552, Note_on_c, 2, 57, 96
4, 23808, Note_off_c, 2, 57, 0
4, 23808, Note_on_c, 2, 59, 96
4, 24064, Note_off_c, 2, 59, 0
4, 24064, Note_on_c, 2, 60, 96
4, 24576, Note_off_c, 2, 60, 0
4, 24576, Note_on_c, 2, 59, 96
4, 26624, Note_off_c, 2, 59, 0
4, 26624, Note_on_c, 2, 55, 96
4, 27648, Note_off_c, 2, 55, 0
4, 27648, Note_on_c, 2, 64, 96
4, 28672, Note_off_c, 2, 64, 0
4, 28672, Note_on_c, 2, 62, 96
4, 29696, Note_off_c, 2, 62, 0
4, 29696, Note_on_c, 2, 60, 96
4, 30720, Note_off_c, 2, 60, 0
4, 30720, Note_on_c, 2, 60, 96
4, 31744, Note_off_c, 2, 60, 0
4, 31744, Note_on_c, 2, 57, 96
4, 32768, Note_off_c, 2, 57, 0
4, 32768, Note_on_c, 2, 58, 96
4, 33792, Note_off_c, 2, 58, 0
4, 33792, Note_on_c, 2, 57, 96
4, 34816, Note_off_c, 2, 57, 0
4, 34816, Note_on_c, 2, 57, 96
4, 36864, Note_off_c, 2, 57, 0
4, 36864, Note_on_c, 2, 59, 96
4, 37888, Note_off_c, 2, 59, 0
4, 37888, Note_on_c, 2, 58, 96
4, 38400, Note_off_c, 2, 58, 0
4, 38400, Note_on_c, 2, 60, 96
4, 38656, Note_off_c, 2, 60, 0
4, 38656, Note_on_c, 2, 58, 96
4, 38912, Note_off_c, 2, 58, 0
4, 38912, Note_on_c, 2, 57, 96
4, 40960, Note_off_c, 2, 57, 0
4, 40960, Note_on_c, 2, 55, 96
4, 41984, Note_off_c, 2, 55, 0
4, 41984, Note_on_c, 2, 55, 96
4, 43008, Note_off_c, 2, 55, 0
4, 43008, Note_on_c, 2, 62, 96
4, 45056, Note_off_c, 2, 62, 0
4, 45056, Note_on_c, 2, 62, 96
4, 45568, Note_off_c, 2, 62, 0
4, 45568, Note_on_c, 2, 60, 96
4, 46080, Note_off_c, 2, 60, 0
4, 46080, Note_on_c, 2, 59, 96
4, 47104, Note_off_c, 2, 59, 0
4, 47104, Note_on_c, 2, 60, 96
4, 48128, Note_off_c, 2, 60, 0
4, 48128, Note_on_c, 2, 62, 96
4, 49152, Note_off_c, 2, 62, 0
4, 49152, Note_on_c, 2, 62, 96
4, 50176, Note_off_c, 2, 62, 0
4, 50176, Note_on_c, 2, 57, 96
4, 50432, Note_off_c, 2, 57, 0
4, 50432, Note_on_c, 2, 59, 96
4, 50688, Note_off_c, 2, 59, 0
4, 50688, Note_on_c, 2, 60, 96
4, 51200, Note_off_c, 2, 60, 0
4, 51200, Note_on_c, 2, 59, 96
4, 53248, Note_off_c, 2, 59, 0
4, 53248, End_track
5, 0, Start_track
5, 0, Title_t, "Instrument 4"
5, 0, Note_on_c, 3, 48, 96
5, 512, Note_off_c, 3, 48, 0
5, 512, Note_on_c, 3, 50, 96
5, 1024, Note_off_c, 3, 50, 0
5, 1024, Note_on_c, 3, 52, 96
5, 1536, Note_off_c, 3, 52, 0
5, 1536, Note_on_c, 3, 48, 96
5, 2048, Note_off_c, 3, 48, 0
5, 2048, Note_on_c, 3, 53, 96
5, 3584, Note_off_c, 3, 53, 0
5, 3584, Note_on_c, 3, 52, 96
5, 4096, Note_off_c, 3, 52, 0
5, 4096, Note_on_c, 3, 50, 96
5, 5120, Note_off_c, 3, 50, 0
5, 5120, Note_on_c, 3, 52, 96
5, 5632, Note_off_c, 3, 52, 0
5, 5632, Note_on_c, 3, 53, 96
5, 6144, Note_off_c, 3, 53, 0
5, 6144, Note_on_c, 3, 55, 96
5, 8192, Note_off_c, 3, 55, 0
5, 8192, Note_on_c, 3, 48, 96
5, 10240, Note_off_c, 3, 48, 0
5, 10240, Note_on_c, 3, 55, 96
5, 11264, Note_off_c, 3, 55, 0
5, 11264, Note_on_c, 3, 56, 96
5, 12288, Note_off_c, 3, 56, 0
5, 12288, Note_on_c, 3, 57, 96
5, 14336, Note_off_c, 3, 57, 0
5, 14336, Note_on_c, 3, 52, 96
5, 15360, Note_off_c, 3, 52, 0
5, 15360, Note_on_c, 3, 47, 96
5, 15872, Note_off_c, 3, 47, 0
5, 15872, Note_on_c, 3, 48, 96
5, 16384, Note_off_c, 3, 48, 0
5, 16384, Note_on_c, 3, 50, 96
5, 18432, Note_off_c, 3, 50, 0
5, 18432, Note_on_c, 3, 47, 96
5, 19456, Note_off_c, 3, 47, 0
5, 19456, Note_on_c, 3, 52, 96
5, 20992, Note_off_c, 3, 52, 0
5, 20992, Note_on_c, 3, 54, 96
5, 21504, Note_off_c, 3, 54, 0
5, 21504, Note_on_c, 3, 55, 96
5, 22016, Note_off_c, 3, 55, 0
5, 22016, Note_on_c, 3, 47, 96
5, 22528, Note_off_c, 3, 47, 0
5, 22528, Note_on_c, 3, 48, 96
5, 23040, Note_off_c, 3, 48, 0
5, 23040, Note_on_c, 3, 45, 96
5, 23552, Note_off_c, 3, 45, 0
5, 23552, Note_on_c, 3, 50, 96
5, 24576, Note_off_c, 3, 50, 0
5, 24576, Note_on_c, 3, 43, 96
5, 26624, Note_off_c, 3, 43, 0
5, 26624, Note_on_c, 3, 52, 96
5, 27136, Note_off_c, 3, 52, 0
5, 27136, Note_on_c, 3, 50, 96
5, 27648, Note_off_c, 3, 50, 0
5, 27648, Note_on_c, 3, 52, 96
5, 28160, Note_off_c, 3, 52, 0
5, 28160, Note_on_c, 3, 54, 96
5, 28672, Note_off_c, 3, 54, 0
5, 28672, Note_on_c, 3, 55, 96
5, 29184, Note_off_c, 3, 55, 0
5, 29184, Note_on_c, 3, 53, 96
5, 29696, Note_off_c, 3, 53, 0
5, 29696, Note_on_c, 3, 52, 96
5, 30208, Note_off_c, 3, 52, 0
5, 30208, Note_on_c, 3, 48, 96
5, 30720, Note_off_c, 3, 48, 0
5, 30720, Note_on_c, 3, 53, 96
5, 31232, Note_off_c, 3, 53, 0
5, 31232, Note_on_c, 3, 52, 96
5, 31744, Note_off_c, 3, 52, 0
5, 31744, Note_on_c, 3, 53, 96
5, 32256, Note_off_c, 3, 53, 0
5, 32256, Note_on_c, 3, 50, 96
5, 32768, Note_off_c, 3, 50, 0
5, 32768, Note_on_c, 3, 55, 96
5, 33280, Note_off_c, 3, 55, 0
5, 33280, Note_on_c, 3, 52, 96
5, 33792, Note_off_c, 3, 52, 0
5, 33792, Note_on_c, 3, 57, 96
5, 34304, Note_off_c, 3, 57, 0
5, 34304, Note_on_c, 3, 45, 96
5, 34816, Note_off_c, 3, 45, 0
5, 34816, Note_on_c, 3, 50, 96
5, 36864, Note_off_c, 3, 50, 0
5, 36864, Note_on_c, 3, 55, 96
5, 37888, Note_off_c, 3, 55, 0
5, 37888, Note_on_c, 3, 48, 96
5, 38912, Note_off_c, 3, 48, 0
5, 38912, Note_on_c, 3, 53, 96
5, 40960, Note_off_c, 3, 53, 0
5, 40960, Note_on_c, 3, 53, 96
5, 41472, Note_off_c, 3, 53, 0
5, 41472, Note_on_c, 3, 52, 96
5, 41984, Note_off_c, 3, 52, 0
5, 41984, Note_on_c, 3, 47, 96
5, 42496, Note_off_c, 3, 47, 0
5, 42496, Note_on_c, 3, 48, 96
5, 43008, Note_off_c, 3, 48, 0
5, 43008, Note_on_c, 3, 50, 96
5, 45056, Note_off_c, 3, 50, 0
5, 45056, Note_on_c, 3, 47, 96
5, 46080, Note_off_c, 3, 47, 0
5, 46080, Note_on_c, 3, 52, 96
5, 47104, Note_off_c, 3, 52, 0
5, 47104, Note_on_c, 3, 45, 96
5, 48128, Note_off_c, 3, 45, 0
5, 48128, Note_on_c, 3, 47, 96
5, 48640, Note_off_c, 3, 47, 0
5, 48640, Note_on_c, 3, 48, 96
5, 49152, Note_off_c, 3, 48, 0
5, 49152, Note_on_c, 3, 50, 96
5, 51200, Note_off_c, 3, 50, 0
5, 51200, Note_on_c, 3, 43, 96
5, 53248, Note_off_c, 3, 43, 0
5, 53248, End_track
0, 0, End_of_file
