0, 0, Header, 1, 4, 480
1, 0, Start_track
1, 0, Title_t, "Track 1"
1, 0, Tempo, 857142
1, 0, Time_signature, 2, 2, 24, 8
1, 170880, Tempo, 923076
1, 171840, Tempo, 1714285
1, 172800, Time_signature, 6, 3, 24, 8
1, 289440, Tempo, 857142
1, 290880, Time_signature, 4, 2, 24, 8
1, 429120, Tempo, 923076
1, 436800, Tempo, 1000000
1, 437760, Tempo, 1500000
1, 438720, End_track
2, 0, Start_track
2, 0, Title_t, "Track 1"
2, 0, Program_c, 0, 19
2, 0, Note_on_c, 0, 67, 92
2, 480, Note_off_c, 0, 67, 64
2, 480, Note_on_c, 0, 67, 92
2, 960, Note_off_c, 0, 67, 64
2, 960, Note_on_c, 0, 67, 92
2, 1200, Note_off_c, 0, 67, 64
2, 1200, Note_on_c, 0, 66, 92
2, 1320, Note_off_c, 0, 66, 64
2, 1320, Note_on_c, 0, 64, 92
2, 1440, Note_off_c, 0, 64, 64
2, 1440, Note_on_c, 0, 62, 92
2, 1680, Note_off_c, 0, 62, 64
2, 1680, Note_on_c, 0, 60, 92
2, 1920, Note_off_c, 0, 60, 64
2, 1920, Note_on_c, 0, 59, 92
2, 2160, Note_off_c, 0, 59, 64
2, 2160, Note_on_c, 0, 67, 92
2, 2400, Note_off_c, 0, 67, 64
2, 2400, Note_on_c, 0, 57, 92
2, 2640, Note_off_c, 0, 57, 64
2, 2640, Note_on_c, 0, 66, 92
2, 2880, Note_off_c, 0, 66, 64
2, 2880, Note_on_c, 0, 55, 92
2, 3120, Note_off_c, 0, 55, 64
2, 3120, Note_on_c, 0, 67, 92
2, 3240, Note_off_c, 0, 67, 64
2, 3240, Note_on_c, 0, 66, 92
2, 3360, Note_off_c, 0, 66, 64
2, 3360, Note_on_c, 0, 67, 92
2, 3480, Note_off_c, 0, 67, 64
2, 3480, Note_on_c, 0, 69, 92
2, 3600, Note_off_c, 0, 69, 64
2, 3600, Note_on_c, 0, 71, 92
2, 3720, Note_off_c, 0, 71, 64
2, 3720, Note_on_c, 0, 73, 92
2, 3840, Note_off_c, 0, 73, 64
2, 3840, Note_on_c, 0, 74, 92
2, 4320, Note_off_c, 0, 74, 64
2, 4320, Note_on_c, 0, 74, 92
2, 4800, Note_off_c, 0, 74, 64
2, 4800, Note_on_c, 0, 74, 92
2, 5040, Note_off_c, 0, 74, 64
2, 5040, Note_on_c, 0, 73, 92
2, 5160, Note_off_c, 0, 73, 64
2, 5160, Note_on_c, 0, 71, 92
2, 5280, Note_off_c, 0, 71, 64
2, 5280, Note_on_c, 0, 69, 92
2, 5400, Note_off_c, 0, 69, 64
2, 5400, Note_on_c, 0, 74, 92
2, 5520, Note_off_c, 0, 74, 64
2, 5520, Note_on_c, 0, 67, 92
2, 5640, Note_off_c, 0, 67, 64
2, 5640, Note_on_c, 0, 74, 92
2, 5760, Note_off_c, 0, 74, 64
2, 5760, Note_on_c, 0, 66, 92
2, 5880, Note_off_c, 0, 66, 64
2, 5880, Note_on_c, 0, 74, 92
2, 6000, Note_off_c, 0, 74, 64
2, 6000, Note_on_c, 0, 73, 92
2, 6120, Note_off_c, 0, 73, 64
2, 6120, Note_on_c, 0, 74, 92
2, 6240, Note_off_c, 0, 74, 64
2, 6240, Note_on_c, 0, 64, 92
2, 6360, Note_off_c, 0, 64, 64
2, 6360, Note_on_c, 0, 74, 92
2, 6480, Note_off_c, 0, 74, 64
2, 6480, Note_on_c, 0, 73, 92
2, 6600, Note_off_c, 0, 73, 64
2, 6600, Note_on_c, 0, 74, 92
2, 6720, Note_off_c, 0, 74, 64
2, 6720, Note_on_c, 0, 62, 92
2, 7200, Note_off_c, 0, 62, 64
2, 7440, Note_on_c, 0, 69, 92
2, 7560, Note_off_c, 0, 69, 64
2, 7560, Note_on_c, 0, 66, 92
2, 7680, Note_off_c, 0, 66, 64
2, 7680, Note_on_c, 0, 62, 92
2, 7920, Note_off_c, 0, 62, 64
2, 7920, Note_on_c, 0, 62, 92
2, 8160, Note_off_c, 0, 62, 64
2, 8160, Note_on_c, 0, 62, 92
2, 8400, Note_off_c, 0, 62, 64
2, 8400, Note_on_c, 0, 71, 92
2, 8520, Note_off_c, 0, 71, 64
2, 8520, Note_on_c, 0, 67, 92
2, 8640, Note_off_c, 0, 67, 64
2, 8640, Note_on_c, 0, 62, 92
2, 8880, Note_off_c, 0, 62, 64
2, 8880, Note_on_c, 0, 62, 92
2, 9120, Note_off_c, 0, 62, 64
2, 9120, Note_on_c, 0, 62, 92
2, 9360, Note_off_c, 0, 62, 64
2, 9360, Note_on_c, 0, 72, 92
2, 9480, Note_off_c, 0, 72, 64
2, 9480, Note_on_c, 0, 69, 92
2, 9600, Note_off_c, 0, 69, 64
2, 9600, Note_on_c, 0, 62, 92
2, 9840, Note_off_c, 0, 62, 64
2, 9840, Note_on_c, 0, 62, 92
2, 10080, Note_off_c, 0, 62, 64
2, 10080, Note_on_c, 0, 62, 92
2, 10320, Note_off_c, 0, 62, 64
2, 10320, Note_on_c, 0, 66, 92
2, 10440, Note_off_c, 0, 66, 64
2, 10440, Note_on_c, 0, 69, 92
2, 10560, Note_off_c, 0, 69, 64
2, 10560, Note_on_c, 0, 72, 92
2, 10800, Note_off_c, 0, 72, 64
2, 10800, Note_on_c, 0, 69, 92
2, 10920, Note_off_c, 0, 69, 64
2, 10920, Note_on_c, 0, 72, 92
2, 11040, Note_off_c, 0, 72, 64
2, 11040, Note_on_c, 0, 78, 92
2, 11280, Note_off_c, 0, 78, 64
2, 11280, Note_on_c, 0, 72, 92
2, 11400, Note_off_c, 0, 72, 64
2, 11400, Note_on_c, 0, 78, 92
2, 11520, Note_off_c, 0, 78, 64
2, 11520, Note_on_c, 0, 79, 92
2, 11760, Note_off_c, 0, 79, 64
2, 11760, Note_on_c, 0, 81, 92
2, 12000, Note_off_c, 0, 81, 64
2, 12000, Note_on_c, 0, 78, 92
2, 12240, Note_off_c, 0, 78, 64
2, 12240, Note_on_c, 0, 79, 92
2, 12480, Note_off_c, 0, 79, 64
2, 12720, Note_on_c, 0, 71, 92
2, 12840, Note_off_c, 0, 71, 64
2, 12840, Note_on_c, 0, 69, 92
2, 12960, Note_off_c, 0, 69, 64
2, 12960, Note_on_c, 0, 72, 92
2, 13080, Note_off_c, 0, 72, 64
2, 13080, Note_on_c, 0, 71, 92
2, 13200, Note_off_c, 0, 71, 64
2, 13200, Note_on_c, 0, 69, 92
2, 13320, Note_off_c, 0, 69, 64
2, 13320, Note_on_c, 0, 67, 92
2, 13440, Note_off_c, 0, 67, 64
2, 13440, Note_on_c, 0, 79, 92
2, 13680, Note_off_c, 0, 79, 64
2, 13680, Note_on_c, 0, 69, 92
2, 13920, Note_off_c, 0, 69, 64
2, 13920, Note_on_c, 0, 66, 92
2, 14160, Note_off_c, 0, 66, 64
2, 14160, Note_on_c, 0, 67, 92
2, 14400, Note_off_c, 0, 67, 64
2, 14400, Note_on_c, 0, 77, 92
2, 14640, Note_off_c, 0, 77, 64
2, 14640, Note_on_c, 0, 77, 92
2, 14880, Note_off_c, 0, 77, 64
2, 14880, Note_on_c, 0, 77, 92
2, 15120, Note_off_c, 0, 77, 64
2, 15120, Note_on_c, 0, 71, 92
2, 15360, Note_off_c, 0, 71, 64
2, 15360, Note_on_c, 0, 76, 92
2, 15600, Note_off_c, 0, 76, 64
2, 15600, Note_on_c, 0, 81, 92
2, 15840, Note_off_c, 0, 81, 64
2, 15840, Note_on_c, 0, 78, 92
2, 16080, Note_off_c, 0, 78, 64
2, 16080, Note_on_c, 0, 79, 92
2, 16320, Note_off_c, 0, 79, 64
2, 16320, Note_on_c, 0, 69, 92
2, 16560, Note_off_c, 0, 69, 64
2, 16560, Note_on_c, 0, 71, 92
2, 16680, Note_off_c, 0, 71, 64
2, 16680, Note_on_c, 0, 72, 92
2, 16800, Note_off_c, 0, 72, 64
2, 16800, Note_on_c, 0, 74, 92
2, 17040, Note_off_c, 0, 74, 64
2, 17040, Note_on_c, 0, 72, 92
2, 17280, Note_off_c, 0, 72, 64
2, 17280, Note_on_c, 0, 71, 92
2, 17760, Note_off_c, 0, 71, 64
2, 17760, Note_on_c, 0, 69, 92
2, 17790, Note_off_c, 0, 69, 64
2, 17790, Note_on_c, 0, 71, 92
2, 17820, Note_off_c, 0, 71, 64
2, 17820, Note_on_c, 0, 69, 92
2, 18240, Note_off_c, 0, 69, 64
2, 18240, Note_on_c, 0, 67, 92
2, 18480, Note_off_c, 0, 67, 64
2, 18480, Note_on_c, 0, 69, 92
2, 18600, Note_off_c, 0, 69, 64
2, 18600, Note_on_c, 0, 71, 92
2, 18720, Note_off_c, 0, 71, 64
2, 18720, Note_on_c, 0, 72, 92
2, 18840, Note_off_c, 0, 72, 64
2, 18840, Note_on_c, 0, 74, 92
2, 18960, Note_off_c, 0, 74, 64
2, 18960, Note_on_c, 0, 76, 92
2, 19080, Note_off_c, 0, 76, 64
2, 19080, Note_on_c, 0, 78, 92
2, 19200, Note_off_c, 0, 78, 64
2, 19200, Note_on_c, 0, 79, 92
2, 19320, Note_off_c, 0, 79, 64
2, 19320, Note_on_c, 0, 74, 92
2, 19440, Note_off_c, 0, 74, 64
2, 19440, Note_on_c, 0, 83, 92
2, 19800, Note_off_c, 0, 83, 64
2, 19800, Note_on_c, 0, 81, 92
2, 19920, Note_off_c, 0, 81, 64
2, 19920, Note_on_c, 0, 79, 92
2, 20040, Note_off_c, 0, 79, 64
2, 20040, Note_on_c, 0, 78, 92
2, 20160, Note_off_c, 0, 78, 64
2, 20160, Note_on_c, 0, 79, 92
2, 20280, Note_off_c, 0, 79, 64
2, 20280, Note_on_c, 0, 83, 92
2, 20400, Note_off_c, 0, 83, 64
2, 20400, Note_on_c, 0, 74, 92
2, 20760, Note_off_c, 0, 74, 64
2, 20760, Note_on_c, 0, 77, 92
2, 20880, Note_off_c, 0, 77, 64
2, 20880, Note_on_c, 0, 76, 92
2, 21000, Note_off_c, 0, 76, 64
2, 21000, Note_on_c, 0, 74, 92
2, 21120, Note_off_c, 0, 74, 64
2, 21120, Note_on_c, 0, 76, 92
2, 21240, Note_off_c, 0, 76, 64
2, 21240, Note_on_c, 0, 72, 92
2, 21360, Note_off_c, 0, 72, 64
2, 21360, Note_on_c, 0, 79, 92
2, 21720, Note_off_c, 0, 79, 64
2, 21720, Note_on_c, 0, 77, 92
2, 21840, Note_off_c, 0, 77, 64
2, 21840, Note_on_c, 0, 76, 92
2, 21960, Note_off_c, 0, 76, 64
2, 21960, Note_on_c, 0, 74, 92
2, 22080, Note_off_c, 0, 74, 64
2, 22080, Note_on_c, 0, 76, 92
2, 22200, Note_off_c, 0, 76, 64
2, 22200, Note_on_c, 0, 79, 92
2, 22320, Note_off_c, 0, 79, 64
2, 22320, Note_on_c, 0, 72, 92
2, 22680, Note_off_c, 0, 72, 64
2, 22680, Note_on_c, 0, 71, 92
2, 22800, Note_off_c, 0, 71, 64
2, 22800, Note_on_c, 0, 69, 92
2, 22920, Note_off_c, 0, 69, 64
2, 22920, Note_on_c, 0, 67, 92
2, 23040, Note_off_c, 0, 67, 64
2, 23040, Note_on_c, 0, 69, 92
2, 23160, Note_off_c, 0, 69, 64
2, 23160, Note_on_c, 0, 66, 92
2, 23280, Note_off_c, 0, 66, 64
2, 23280, Note_on_c, 0, 72, 92
2, 23640, Note_off_c, 0, 72, 64
2, 23640, Note_on_c, 0, 71, 92
2, 23760, Note_off_c, 0, 71, 64
2, 23760, Note_on_c, 0, 69, 92
2, 23880, Note_off_c, 0, 69, 64
2, 23880, Note_on_c, 0, 67, 92
2, 24000, Note_off_c, 0, 67, 64
2, 24000, Note_on_c, 0, 69, 92
2, 24120, Note_off_c, 0, 69, 64
2, 24120, Note_on_c, 0, 72, 92
2, 24240, Note_off_c, 0, 72, 64
2, 24240, Note_on_c, 0, 66, 92
2, 24600, Note_off_c, 0, 66, 64
2, 24600, Note_on_c, 0, 69, 92
2, 24720, Note_off_c, 0, 69, 64
2, 24720, Note_on_c, 0, 67, 92
2, 24840, Note_off_c, 0, 67, 64
2, 24840, Note_on_c, 0, 66, 92
2, 24960, Note_off_c, 0, 66, 64
2, 24960, Note_on_c, 0, 67, 92
2, 25080, Note_off_c, 0, 67, 64
2, 25080, Note_on_c, 0, 62, 92
2, 25200, Note_off_c, 0, 62, 64
2, 25200, Note_on_c, 0, 67, 92
2, 25320, Note_off_c, 0, 67, 64
2, 25320, Note_on_c, 0, 71, 92
2, 25440, Note_off_c, 0, 71, 64
2, 25440, Note_on_c, 0, 74, 92
2, 25560, Note_off_c, 0, 74, 64
2, 25560, Note_on_c, 0, 71, 92
2, 25680, Note_off_c, 0, 71, 64
2, 25680, Note_on_c, 0, 79, 92
2, 25920, Note_off_c, 0, 79, 64
2, 25920, Note_on_c, 0, 71, 92
2, 25980, Note_off_c, 0, 71, 64
2, 25980, Note_on_c, 0, 72, 92
2, 26040, Note_off_c, 0, 72, 64
2, 26040, Note_on_c, 0, 71, 92
2, 26160, Note_off_c, 0, 71, 64
2, 26160, Note_on_c, 0, 69, 92
2, 26400, Note_off_c, 0, 69, 64
2, 27120, Note_on_c, 0, 69, 92
2, 27360, Note_off_c, 0, 69, 64
2, 27360, Note_on_c, 0, 74, 92
2, 27600, Note_off_c, 0, 74, 64
2, 27600, Note_on_c, 0, 76, 92
2, 27840, Note_off_c, 0, 76, 64
2, 27840, Note_on_c, 0, 78, 92
2, 27960, Note_off_c, 0, 78, 64
2, 27960, Note_on_c, 0, 74, 92
2, 28080, Note_off_c, 0, 74, 64
2, 28080, Note_on_c, 0, 78, 92
2, 28200, Note_off_c, 0, 78, 64
2, 28200, Note_on_c, 0, 81, 92
2, 28320, Note_off_c, 0, 81, 64
2, 28320, Note_on_c, 0, 84, 92
2, 28560, Note_off_c, 0, 84, 64
2, 28800, Note_on_c, 0, 67, 92
2, 29040, Note_off_c, 0, 67, 64
2, 29040, Note_on_c, 0, 71, 92
2, 29280, Note_off_c, 0, 71, 64
2, 29280, Note_on_c, 0, 74, 92
2, 29520, Note_off_c, 0, 74, 64
2, 29760, Note_on_c, 0, 79, 92
2, 29880, Note_off_c, 0, 79, 64
2, 29880, Note_on_c, 0, 74, 92
2, 30000, Note_off_c, 0, 74, 64
2, 30000, Note_on_c, 0, 79, 92
2, 30120, Note_off_c, 0, 79, 64
2, 30120, Note_on_c, 0, 81, 92
2, 30240, Note_off_c, 0, 81, 64
2, 30240, Note_on_c, 0, 83, 92
2, 30480, Note_off_c, 0, 83, 64
2, 30960, Note_on_c, 0, 73, 92
2, 31080, Note_off_c, 0, 73, 64
2, 31080, Note_on_c, 0, 74, 92
2, 31200, Note_off_c, 0, 74, 64
2, 31200, Note_on_c, 0, 76, 92
2, 31320, Note_off_c, 0, 76, 64
2, 31320, Note_on_c, 0, 78, 92
2, 31440, Note_off_c, 0, 78, 64
2, 31440, Note_on_c, 0, 79, 92
2, 31920, Note_off_c, 0, 79, 64
2, 31920, Note_on_c, 0, 76, 92
2, 32040, Note_off_c, 0, 76, 64
2, 32040, Note_on_c, 0, 73, 92
2, 32160, Note_off_c, 0, 73, 64
2, 32160, Note_on_c, 0, 69, 92
2, 32400, Note_off_c, 0, 69, 64
2, 32400, Note_on_c, 0, 79, 92
2, 32880, Note_off_c, 0, 79, 64
2, 32880, Note_on_c, 0, 81, 92
2, 33120, Note_off_c, 0, 81, 64
2, 33120, Note_on_c, 0, 78, 92
2, 33360, Note_off_c, 0, 78, 64
2, 33360, Note_on_c, 0, 74, 92
2, 33720, Note_off_c, 0, 74, 64
2, 33720, Note_on_c, 0, 71, 92
2, 33840, Note_off_c, 0, 71, 64
2, 33840, Note_on_c, 0, 73, 92
2, 33960, Note_off_c, 0, 73, 64
2, 33960, Note_on_c, 0, 78, 92
2, 34080, Note_off_c, 0, 78, 64
2, 34080, Note_on_c, 0, 76, 92
2, 34200, Note_off_c, 0, 76, 64
2, 34200, Note_on_c, 0, 74, 92
2, 34320, Note_off_c, 0, 74, 64
2, 34320, Note_on_c, 0, 73, 92
2, 34440, Note_off_c, 0, 73, 64
2, 34440, Note_on_c, 0, 71, 92
2, 34560, Note_off_c, 0, 71, 64
2, 34560, Note_on_c, 0, 69, 92
2, 34680, Note_off_c, 0, 69, 64
2, 34680, Note_on_c, 0, 73, 92
2, 34800, Note_off_c, 0, 73, 64
2, 34800, Note_on_c, 0, 76, 92
2, 34920, Note_off_c, 0, 76, 64
2, 34920, Note_on_c, 0, 73, 92
2, 35040, Note_off_c, 0, 73, 64
2, 35040, Note_on_c, 0, 81, 92
2, 35160, Note_off_c, 0, 81, 64
2, 35160, Note_on_c, 0, 76, 92
2, 35280, Note_off_c, 0, 76, 64
2, 35280, Note_on_c, 0, 73, 92
2, 35400, Note_off_c, 0, 73, 64
2, 35400, Note_on_c, 0, 76, 92
2, 35520, Note_off_c, 0, 76, 64
2, 35520, Note_on_c, 0, 69, 92
2, 35640, Note_off_c, 0, 69, 64
2, 35640, Note_on_c, 0, 73, 92
2, 35760, Note_off_c, 0, 73, 64
2, 35760, Note_on_c, 0, 76, 92
2, 35880, Note_off_c, 0, 76, 64
2, 35880, Note_on_c, 0, 73, 92
2, 36000, Note_off_c, 0, 73, 64
2, 36000, Note_on_c, 0, 81, 92
2, 36120, Note_off_c, 0, 81, 64
2, 36120, Note_on_c, 0, 76, 92
2, 36240, Note_off_c, 0, 76, 64
2, 36240, Note_on_c, 0, 73, 92
2, 36360, Note_off_c, 0, 73, 64
2, 36360, Note_on_c, 0, 76, 92
2, 36480, Note_off_c, 0, 76, 64
2, 36480, Note_on_c, 0, 69, 92
2, 36600, Note_off_c, 0, 69, 64
2, 36600, Note_on_c, 0, 74, 92
2, 36720, Note_off_c, 0, 74, 64
2, 36720, Note_on_c, 0, 78, 92
2, 36840, Note_off_c, 0, 78, 64
2, 36840, Note_on_c, 0, 74, 92
2, 36960, Note_off_c, 0, 74, 64
2, 36960, Note_on_c, 0, 81, 92
2, 37080, Note_off_c, 0, 81, 64
2, 37080, Note_on_c, 0, 78, 92
2, 37200, Note_off_c, 0, 78, 64
2, 37200, Note_on_c, 0, 74, 92
2, 37320, Note_off_c, 0, 74, 64
2, 37320, Note_on_c, 0, 78, 92
2, 37440, Note_off_c, 0, 78, 64
2, 37440, Note_on_c, 0, 69, 92
2, 37560, Note_off_c, 0, 69, 64
2, 37560, Note_on_c, 0, 72, 92
2, 37680, Note_off_c, 0, 72, 64
2, 37680, Note_on_c, 0, 78, 92
2, 37800, Note_off_c, 0, 78, 64
2, 37800, Note_on_c, 0, 72, 92
2, 37920, Note_off_c, 0, 72, 64
2, 37920, Note_on_c, 0, 81, 92
2, 38040, Note_off_c, 0, 81, 64
2, 38040, Note_on_c, 0, 78, 92
2, 38160, Note_off_c, 0, 78, 64
2, 38160, Note_on_c, 0, 72, 92
2, 38280, Note_off_c, 0, 72, 64
2, 38280, Note_on_c, 0, 78, 92
2, 38400, Note_off_c, 0, 78, 64
2, 38400, Note_on_c, 0, 71, 92
2, 38520, Note_off_c, 0, 71, 64
2, 38520, Note_on_c, 0, 74, 92
2, 38640, Note_off_c, 0, 74, 64
2, 38640, Note_on_c, 0, 79, 92
2, 38760, Note_off_c, 0, 79, 64
2, 38760, Note_on_c, 0, 74, 92
2, 38880, Note_off_c, 0, 74, 64
2, 38880, Note_on_c, 0, 83, 92
2, 39000, Note_off_c, 0, 83, 64
2, 39000, Note_on_c, 0, 79, 92
2, 39120, Note_off_c, 0, 79, 64
2, 39120, Note_on_c, 0, 74, 92
2, 39240, Note_off_c, 0, 74, 64
2, 39240, Note_on_c, 0, 79, 92
2, 39360, Note_off_c, 0, 79, 64
2, 39360, Note_on_c, 0, 71, 92
2, 39480, Note_off_c, 0, 71, 64
2, 39480, Note_on_c, 0, 74, 92
2, 39600, Note_off_c, 0, 74, 64
2, 39600, Note_on_c, 0, 79, 92
2, 39720, Note_off_c, 0, 79, 64
2, 39720, Note_on_c, 0, 74, 92
2, 39840, Note_off_c, 0, 74, 64
2, 39840, Note_on_c, 0, 83, 92
2, 39960, Note_off_c, 0, 83, 64
2, 39960, Note_on_c, 0, 79, 92
2, 40080, Note_off_c, 0, 79, 64
2, 40080, Note_on_c, 0, 74, 92
2, 40200, Note_off_c, 0, 74, 64
2, 40200, Note_on_c, 0, 79, 92
2, 40320, Note_off_c, 0, 79, 64
2, 40320, Note_on_c, 0, 72, 92
2, 40440, Note_off_c, 0, 72, 64
2, 40440, Note_on_c, 0, 76, 92
2, 40560, Note_off_c, 0, 76, 64
2, 40560, Note_on_c, 0, 79, 92
2, 40680, Note_off_c, 0, 79, 64
2, 40680, Note_on_c, 0, 76, 92
2, 40800, Note_off_c, 0, 76, 64
2, 40800, Note_on_c, 0, 83, 92
2, 40920, Note_off_c, 0, 83, 64
2, 40920, Note_on_c, 0, 79, 92
2, 41040, Note_off_c, 0, 79, 64
2, 41040, Note_on_c, 0, 76, 92
2, 41160, Note_off_c, 0, 76, 64
2, 41160, Note_on_c, 0, 79, 92
2, 41280, Note_off_c, 0, 79, 64
2, 41280, Note_on_c, 0, 72, 92
2, 41400, Note_off_c, 0, 72, 64
2, 41400, Note_on_c, 0, 76, 92
2, 41520, Note_off_c, 0, 76, 64
2, 41520, Note_on_c, 0, 79, 92
2, 41640, Note_off_c, 0, 79, 64
2, 41640, Note_on_c, 0, 76, 92
2, 41760, Note_off_c, 0, 76, 64
2, 41760, Note_on_c, 0, 83, 92
2, 41880, Note_off_c, 0, 83, 64
2, 41880, Note_on_c, 0, 79, 92
2, 42000, Note_off_c, 0, 79, 64
2, 42000, Note_on_c, 0, 76, 92
2, 42120, Note_off_c, 0, 76, 64
2, 42120, Note_on_c, 0, 79, 92
2, 42240, Note_off_c, 0, 79, 64
2, 42240, Note_on_c, 0, 69, 92
2, 42360, Note_off_c, 0, 69, 64
2, 42360, Note_on_c, 0, 72, 92
2, 42480, Note_off_c, 0, 72, 64
2, 42480, Note_on_c, 0, 76, 92
2, 42600, Note_off_c, 0, 76, 64
2, 42600, Note_on_c, 0, 72, 92
2, 42720, Note_off_c, 0, 72, 64
2, 42720, Note_on_c, 0, 81, 92
2, 42840, Note_off_c, 0, 81, 64
2, 42840, Note_on_c, 0, 76, 92
2, 42960, Note_off_c, 0, 76, 64
2, 42960, Note_on_c, 0, 72, 92
2, 43080, Note_off_c, 0, 72, 64
2, 43080, Note_on_c, 0, 76, 92
2, 43200, Note_off_c, 0, 76, 64
2, 43200, Note_on_c, 0, 69, 92
2, 43320, Note_off_c, 0, 69, 64
2, 43320, Note_on_c, 0, 72, 92
2, 43440, Note_off_c, 0, 72, 64
2, 43440, Note_on_c, 0, 76, 92
2, 43560, Note_off_c, 0, 76, 64
2, 43560, Note_on_c, 0, 72, 92
2, 43680, Note_off_c, 0, 72, 64
2, 43680, Note_on_c, 0, 81, 92
2, 43800, Note_off_c, 0, 81, 64
2, 43800, Note_on_c, 0, 76, 92
2, 43920, Note_off_c, 0, 76, 64
2, 43920, Note_on_c, 0, 72, 92
2, 44040, Note_off_c, 0, 72, 64
2, 44040, Note_on_c, 0, 76, 92
2, 44160, Note_off_c, 0, 76, 64
2, 44160, Note_on_c, 0, 71, 92
2, 44280, Note_off_c, 0, 71, 64
2, 44280, Note_on_c, 0, 75, 92
2, 44400, Note_off_c, 0, 75, 64
2, 44400, Note_on_c, 0, 78, 92
2, 44520, Note_off_c, 0, 78, 64
2, 44520, Note_on_c, 0, 75, 92
2, 44640, Note_off_c, 0, 75, 64
2, 44640, Note_on_c, 0, 81, 92
2, 44760, Note_off_c, 0, 81, 64
2, 44760, Note_on_c, 0, 78, 92
2, 44880, Note_off_c, 0, 78, 64
2, 44880, Note_on_c, 0, 75, 92
2, 45000, Note_off_c, 0, 75, 64
2, 45000, Note_on_c, 0, 78, 92
2, 45120, Note_off_c, 0, 78, 64
2, 45120, Note_on_c, 0, 71, 92
2, 45240, Note_off_c, 0, 71, 64
2, 45240, Note_on_c, 0, 75, 92
2, 45360, Note_off_c, 0, 75, 64
2, 45360, Note_on_c, 0, 78, 92
2, 45480, Note_off_c, 0, 78, 64
2, 45480, Note_on_c, 0, 75, 92
2, 45600, Note_off_c, 0, 75, 64
2, 45600, Note_on_c, 0, 81, 92
2, 45720, Note_off_c, 0, 81, 64
2, 45720, Note_on_c, 0, 78, 92
2, 45840, Note_off_c, 0, 78, 64
2, 45840, Note_on_c, 0, 75, 92
2, 45960, Note_off_c, 0, 75, 64
2, 45960, Note_on_c, 0, 78, 92
2, 46080, Note_off_c, 0, 78, 64
2, 46080, Note_on_c, 0, 71, 92
2, 46200, Note_off_c, 0, 71, 64
2, 46200, Note_on_c, 0, 75, 92
2, 46320, Note_off_c, 0, 75, 64
2, 46320, Note_on_c, 0, 76, 92
2, 46440, Note_off_c, 0, 76, 64
2, 46440, Note_on_c, 0, 75, 92
2, 46560, Note_off_c, 0, 75, 64
2, 46560, Note_on_c, 0, 79, 92
2, 46680, Note_off_c, 0, 79, 64
2, 46680, Note_on_c, 0, 76, 92
2, 46800, Note_off_c, 0, 76, 64
2, 46800, Note_on_c, 0, 75, 92
2, 46920, Note_off_c, 0, 75, 64
2, 46920, Note_on_c, 0, 76, 92
2, 47040, Note_off_c, 0, 76, 64
2, 47040, Note_on_c, 0, 71, 92
2, 47160, Note_off_c, 0, 71, 64
2, 47160, Note_on_c, 0, 75, 92
2, 47280, Note_off_c, 0, 75, 64
2, 47280, Note_on_c, 0, 76, 92
2, 47400, Note_off_c, 0, 76, 64
2, 47400, Note_on_c, 0, 75, 92
2, 47520, Note_off_c, 0, 75, 64
2, 47520, Note_on_c, 0, 79, 92
2, 47640, Note_off_c, 0, 79, 64
2, 47640, Note_on_c, 0, 76, 92
2, 47760, Note_off_c, 0, 76, 64
2, 47760, Note_on_c, 0, 75, 92
2, 47880, Note_off_c, 0, 75, 64
2, 47880, Note_on_c, 0, 76, 92
2, 48000, Note_off_c, 0, 76, 64
2, 48000, Note_on_c, 0, 71, 92
2, 48120, Note_off_c, 0, 71, 64
2, 48120, Note_on_c, 0, 75, 92
2, 48240, Note_off_c, 0, 75, 64
2, 48240, Note_on_c, 0, 76, 92
2, 48360, Note_off_c, 0, 76, 64
2, 48360, Note_on_c, 0, 75, 92
2, 48480, Note_off_c, 0, 75, 64
2, 48480, Note_on_c, 0, 78, 92
2, 48600, Note_off_c, 0, 78, 64
2, 48600, Note_on_c, 0, 76, 92
2, 48720, Note_off_c, 0, 76, 64
2, 48720, Note_on_c, 0, 75, 92
2, 48840, Note_off_c, 0, 75, 64
2, 48840, Note_on_c, 0, 76, 92
2, 48960, Note_off_c, 0, 76, 64
2, 48960, Note_on_c, 0, 69, 92
2, 49080, Note_off_c, 0, 69, 64
2, 49080, Note_on_c, 0, 75, 92
2, 49200, Note_off_c, 0, 75, 64
2, 49200, Note_on_c, 0, 76, 92
2, 49320, Note_off_c, 0, 76, 64
2, 49320, Note_on_c, 0, 75, 92
2, 49440, Note_off_c, 0, 75, 64
2, 49440, Note_on_c, 0, 78, 92
2, 49560, Note_off_c, 0, 78, 64
2, 49560, Note_on_c, 0, 76, 92
2, 49680, Note_off_c, 0, 76, 64
2, 49680, Note_on_c, 0, 75, 92
2, 49800, Note_off_c, 0, 75, 64
2, 49800, Note_on_c, 0, 76, 92
2, 49920, Note_off_c, 0, 76, 64
2, 49920, Note_on_c, 0, 64, 92
2, 50160, Note_off_c, 0, 64, 64
2, 50160, Note_on_c, 0, 76, 92
2, 50640, Note_off_c, 0, 76, 64
2, 50640, Note_on_c, 0, 76, 92
2, 51120, Note_off_c, 0, 76, 64
2, 51120, Note_on_c, 0, 74, 92
2, 51240, Note_off_c, 0, 74, 64
2, 51240, Note_on_c, 0, 72, 92
2, 51360, Note_off_c, 0, 72, 64
2, 51360, Note_on_c, 0, 71, 92
2, 51480, Note_off_c, 0, 71, 64
2, 51480, Note_on_c, 0, 76, 92
2, 51600, Note_off_c, 0, 76, 64
2, 51600, Note_on_c, 0, 69, 92
2, 51720, Note_off_c, 0, 69, 64
2, 51720, Note_on_c, 0, 76, 92
2, 51840, Note_off_c, 0, 76, 64
2, 51840, Note_on_c, 0, 67, 92
2, 51960, Note_off_c, 0, 67, 64
2, 51960, Note_on_c, 0, 71, 92
2, 52080, Note_off_c, 0, 71, 64
2, 52080, Note_on_c, 0, 76, 92
2, 52320, Note_off_c, 0, 76, 64
2, 52320, Note_on_c, 0, 66, 92
2, 52560, Note_off_c, 0, 66, 64
2, 52560, Note_on_c, 0, 75, 92
2, 52800, Note_off_c, 0, 75, 64
2, 52800, Note_on_c, 0, 64, 92
2, 52920, Note_off_c, 0, 64, 64
2, 52920, Note_on_c, 0, 63, 92
2, 53040, Note_off_c, 0, 63, 64
2, 53040, Note_on_c, 0, 64, 92
2, 53160, Note_off_c, 0, 64, 64
2, 53160, Note_on_c, 0, 66, 92
2, 53280, Note_off_c, 0, 66, 64
2, 53280, Note_on_c, 0, 67, 92
2, 53400, Note_off_c, 0, 67, 64
2, 53400, Note_on_c, 0, 69, 92
2, 53520, Note_off_c, 0, 69, 64
2, 53520, Note_on_c, 0, 71, 92
2, 53640, Note_off_c, 0, 71, 64
2, 53640, Note_on_c, 0, 72, 92
2, 53760, Note_off_c, 0, 72, 64
2, 53760, Note_on_c, 0, 74, 92
2, 53880, Note_off_c, 0, 74, 64
2, 53880, Note_on_c, 0, 76, 92
2, 54000, Note_off_c, 0, 76, 64
2, 54000, Note_on_c, 0, 77, 92
2, 54120, Note_off_c, 0, 77, 64
2, 54120, Note_on_c, 0, 76, 92
2, 54240, Note_off_c, 0, 76, 64
2, 54240, Note_on_c, 0, 79, 92
2, 54360, Note_off_c, 0, 79, 64
2, 54360, Note_on_c, 0, 77, 92
2, 54480, Note_off_c, 0, 77, 64
2, 54480, Note_on_c, 0, 76, 92
2, 54600, Note_off_c, 0, 76, 64
2, 54600, Note_on_c, 0, 74, 92
2, 54720, Note_off_c, 0, 74, 64
2, 54720, Note_on_c, 0, 77, 92
2, 54840, Note_off_c, 0, 77, 64
2, 54840, Note_on_c, 0, 76, 92
2, 54960, Note_off_c, 0, 76, 64
2, 54960, Note_on_c, 0, 74, 92
2, 55080, Note_off_c, 0, 74, 64
2, 55080, Note_on_c, 0, 72, 92
2, 55200, Note_off_c, 0, 72, 64
2, 55200, Note_on_c, 0, 79, 92
2, 55920, Note_off_c, 0, 79, 64
2, 55920, Note_on_c, 0, 78, 92
2, 56040, Note_off_c, 0, 78, 64
2, 56040, Note_on_c, 0, 76, 92
2, 56160, Note_off_c, 0, 76, 64
2, 56160, Note_on_c, 0, 74, 92
2, 56280, Note_off_c, 0, 74, 64
2, 56280, Note_on_c, 0, 72, 92
2, 56400, Note_off_c, 0, 72, 64
2, 56400, Note_on_c, 0, 71, 92
2, 56520, Note_off_c, 0, 71, 64
2, 56520, Note_on_c, 0, 69, 92
2, 56640, Note_off_c, 0, 69, 64
2, 56640, Note_on_c, 0, 71, 92
2, 56880, Note_off_c, 0, 71, 64
2, 56880, Note_on_c, 0, 67, 92
2, 57120, Note_off_c, 0, 67, 64
2, 57360, Note_on_c, 0, 76, 92
2, 57480, Note_off_c, 0, 76, 64
2, 57480, Note_on_c, 0, 73, 92
2, 57600, Note_off_c, 0, 73, 64
2, 57600, Note_on_c, 0, 69, 92
2, 57840, Note_off_c, 0, 69, 64
2, 57840, Note_on_c, 0, 69, 92
2, 58080, Note_off_c, 0, 69, 64
2, 58080, Note_on_c, 0, 69, 92
2, 58320, Note_off_c, 0, 69, 64
2, 58320, Note_on_c, 0, 78, 92
2, 58440, Note_off_c, 0, 78, 64
2, 58440, Note_on_c, 0, 74, 92
2, 58560, Note_off_c, 0, 74, 64
2, 58560, Note_on_c, 0, 69, 92
2, 58800, Note_off_c, 0, 69, 64
2, 58800, Note_on_c, 0, 69, 92
2, 59040, Note_off_c, 0, 69, 64
2, 59040, Note_on_c, 0, 69, 92
2, 59280, Note_off_c, 0, 69, 64
2, 59280, Note_on_c, 0, 79, 92
2, 59400, Note_off_c, 0, 79, 64
2, 59400, Note_on_c, 0, 76, 92
2, 59520, Note_off_c, 0, 76, 64
2, 59520, Note_on_c, 0, 69, 92
2, 59760, Note_off_c, 0, 69, 64
2, 59760, Note_on_c, 0, 69, 92
2, 60000, Note_off_c, 0, 69, 64
2, 60000, Note_on_c, 0, 69, 92
2, 60240, Note_off_c, 0, 69, 64
2, 60240, Note_on_c, 0, 73, 92
2, 60360, Note_off_c, 0, 73, 64
2, 60360, Note_on_c, 0, 76, 92
2, 60480, Note_off_c, 0, 76, 64
2, 60480, Note_on_c, 0, 79, 92
2, 60720, Note_off_c, 0, 79, 64
2, 60720, Note_on_c, 0, 76, 92
2, 60840, Note_off_c, 0, 76, 64
2, 60840, Note_on_c, 0, 73, 92
2, 60960, Note_off_c, 0, 73, 64
2, 60960, Note_on_c, 0, 69, 92
2, 61200, Note_off_c, 0, 69, 64
2, 61200, Note_on_c, 0, 73, 92
2, 61320, Note_off_c, 0, 73, 64
2, 61320, Note_on_c, 0, 76, 92
2, 61440, Note_off_c, 0, 76, 64
2, 61440, Note_on_c, 0, 78, 92
2, 61680, Note_off_c, 0, 78, 64
2, 61680, Note_on_c, 0, 79, 92
2, 61920, Note_off_c, 0, 79, 64
2, 61920, Note_on_c, 0, 76, 92
2, 62160, Note_off_c, 0, 76, 64
2, 62160, Note_on_c, 0, 78, 92
2, 62400, Note_off_c, 0, 78, 64
2, 62400, Note_on_c, 0, 69, 92
2, 62640, Note_off_c, 0, 69, 64
2, 62640, Note_on_c, 0, 69, 92
2, 62880, Note_off_c, 0, 69, 64
2, 62880, Note_on_c, 0, 69, 92
2, 63120, Note_off_c, 0, 69, 64
2, 63120, Note_on_c, 0, 78, 92
2, 63360, Note_off_c, 0, 78, 64
2, 63360, Note_on_c, 0, 67, 92
2, 63600, Note_off_c, 0, 67, 64
2, 63600, Note_on_c, 0, 79, 92
2, 63840, Note_off_c, 0, 79, 64
2, 63840, Note_on_c, 0, 76, 92
2, 64080, Note_off_c, 0, 76, 64
2, 64080, Note_on_c, 0, 78, 92
2, 64320, Note_off_c, 0, 78, 64
2, 64560, Note_on_c, 0, 66, 92
2, 64680, Note_off_c, 0, 66, 64
2, 64680, Note_on_c, 0, 64, 92
2, 64800, Note_off_c, 0, 64, 64
2, 64800, Note_on_c, 0, 67, 92
2, 64920, Note_off_c, 0, 67, 64
2, 64920, Note_on_c, 0, 66, 92
2, 65040, Note_off_c, 0, 66, 64
2, 65040, Note_on_c, 0, 64, 92
2, 65160, Note_off_c, 0, 64, 64
2, 65160, Note_on_c, 0, 62, 92
2, 65280, Note_off_c, 0, 62, 64
2, 65280, Note_on_c, 0, 74, 92
2, 65520, Note_off_c, 0, 74, 64
2, 65520, Note_on_c, 0, 79, 92
2, 65760, Note_off_c, 0, 79, 64
2, 65760, Note_on_c, 0, 76, 92
2, 66000, Note_off_c, 0, 76, 64
2, 66000, Note_on_c, 0, 78, 92
2, 66240, Note_off_c, 0, 78, 64
2, 66240, Note_on_c, 0, 73, 92
2, 66480, Note_off_c, 0, 73, 64
2, 66480, Note_on_c, 0, 69, 92
2, 66720, Note_off_c, 0, 69, 64
2, 66720, Note_on_c, 0, 74, 92
2, 67320, Note_off_c, 0, 74, 64
2, 67320, Note_on_c, 0, 78, 92
2, 67440, Note_off_c, 0, 78, 64
2, 67440, Note_on_c, 0, 81, 92
2, 67680, Note_off_c, 0, 81, 64
2, 67680, Note_on_c, 0, 73, 92
2, 67800, Note_off_c, 0, 73, 64
2, 67800, Note_on_c, 0, 76, 92
2, 67920, Note_off_c, 0, 76, 64
2, 67920, Note_on_c, 0, 79, 92
2, 68160, Note_off_c, 0, 79, 64
2, 68160, Note_on_c, 0, 78, 92
2, 68400, Note_off_c, 0, 78, 64
2, 68400, Note_on_c, 0, 81, 92
2, 68520, Note_off_c, 0, 81, 64
2, 68520, Note_on_c, 0, 79, 92
2, 68640, Note_off_c, 0, 79, 64
2, 68640, Note_on_c, 0, 78, 92
2, 68760, Note_off_c, 0, 78, 64
2, 68760, Note_on_c, 0, 76, 92
2, 68880, Note_off_c, 0, 76, 64
2, 68880, Note_on_c, 0, 74, 92
2, 69000, Note_off_c, 0, 74, 64
2, 69000, Note_on_c, 0, 73, 92
2, 69120, Note_off_c, 0, 73, 64
2, 69120, Note_on_c, 0, 74, 92
2, 69600, Note_off_c, 0, 74, 64
2, 69600, Note_on_c, 0, 74, 92
2, 70080, Note_off_c, 0, 74, 64
2, 70080, Note_on_c, 0, 74, 92
2, 70320, Note_off_c, 0, 74, 64
2, 70320, Note_on_c, 0, 73, 92
2, 70440, Note_off_c, 0, 73, 64
2, 70440, Note_on_c, 0, 71, 92
2, 70560, Note_off_c, 0, 71, 64
2, 70560, Note_on_c, 0, 69, 92
2, 70680, Note_off_c, 0, 69, 64
2, 70680, Note_on_c, 0, 67, 92
2, 70800, Note_off_c, 0, 67, 64
2, 70800, Note_on_c, 0, 66, 92
2, 70920, Note_off_c, 0, 66, 64
2, 70920, Note_on_c, 0, 64, 92
2, 71040, Note_off_c, 0, 64, 64
2, 71040, Note_on_c, 0, 66, 92
2, 71160, Note_off_c, 0, 66, 64
2, 71160, Note_on_c, 0, 69, 92
2, 71280, Note_off_c, 0, 69, 64
2, 71280, Note_on_c, 0, 74, 92
2, 71520, Note_off_c, 0, 74, 64
2, 71520, Note_on_c, 0, 64, 92
2, 71760, Note_off_c, 0, 64, 64
2, 71760, Note_on_c, 0, 73, 92
2, 72000, Note_off_c, 0, 73, 64
2, 72000, Note_on_c, 0, 62, 92
2, 72240, Note_off_c, 0, 62, 64
2, 72960, Note_on_c, 0, 76, 92
2, 73440, Note_off_c, 0, 76, 64
2, 73440, Note_on_c, 0, 76, 92
2, 73920, Note_off_c, 0, 76, 64
2, 73920, Note_on_c, 0, 76, 92
2, 74160, Note_off_c, 0, 76, 64
2, 74160, Note_on_c, 0, 74, 92
2, 74280, Note_off_c, 0, 74, 64
2, 74280, Note_on_c, 0, 72, 92
2, 74400, Note_off_c, 0, 72, 64
2, 74400, Note_on_c, 0, 71, 92
2, 74520, Note_off_c, 0, 71, 64
2, 74520, Note_on_c, 0, 69, 92
2, 74640, Note_off_c, 0, 69, 64
2, 74640, Note_on_c, 0, 67, 92
2, 74760, Note_off_c, 0, 67, 64
2, 74760, Note_on_c, 0, 66, 92
2, 74880, Note_off_c, 0, 66, 64
2, 74880, Note_on_c, 0, 67, 92
2, 75000, Note_off_c, 0, 67, 64
2, 75000, Note_on_c, 0, 71, 92
2, 75120, Note_off_c, 0, 71, 64
2, 75120, Note_on_c, 0, 76, 92
2, 75360, Note_off_c, 0, 76, 64
2, 75360, Note_on_c, 0, 66, 92
2, 75600, Note_off_c, 0, 66, 64
2, 75600, Note_on_c, 0, 75, 92
2, 75840, Note_off_c, 0, 75, 64
2, 75840, Note_on_c, 0, 64, 92
2, 76080, Note_off_c, 0, 64, 64
2, 76800, Note_on_c, 0, 83, 92
2, 77280, Note_off_c, 0, 83, 64
2, 77280, Note_on_c, 0, 83, 92
2, 77760, Note_off_c, 0, 83, 64
2, 77760, Note_on_c, 0, 83, 92
2, 78000, Note_off_c, 0, 83, 64
2, 78000, Note_on_c, 0, 81, 92
2, 78120, Note_off_c, 0, 81, 64
2, 78120, Note_on_c, 0, 79, 92
2, 78240, Note_off_c, 0, 79, 64
2, 78240, Note_on_c, 0, 78, 92
2, 78360, Note_off_c, 0, 78, 64
2, 78360, Note_on_c, 0, 79, 92
2, 78480, Note_off_c, 0, 79, 64
2, 78480, Note_on_c, 0, 76, 92
2, 78600, Note_off_c, 0, 76, 64
2, 78600, Note_on_c, 0, 78, 92
2, 78720, Note_off_c, 0, 78, 64
2, 78720, Note_on_c, 0, 75, 92
2, 78840, Note_off_c, 0, 75, 64
2, 78840, Note_on_c, 0, 76, 92
2, 78960, Note_off_c, 0, 76, 64
2, 78960, Note_on_c, 0, 78, 92
2, 79080, Note_off_c, 0, 78, 64
2, 79080, Note_on_c, 0, 81, 92
2, 79200, Note_off_c, 0, 81, 64
2, 79200, Note_on_c, 0, 79, 92
2, 79320, Note_off_c, 0, 79, 64
2, 79320, Note_on_c, 0, 78, 92
2, 79440, Note_off_c, 0, 78, 64
2, 79440, Note_on_c, 0, 76, 92
2, 79560, Note_off_c, 0, 76, 64
2, 79560, Note_on_c, 0, 75, 92
2, 79680, Note_off_c, 0, 75, 64
2, 79680, Note_on_c, 0, 76, 92
2, 79800, Note_off_c, 0, 76, 64
2, 79800, Note_on_c, 0, 75, 92
2, 79920, Note_off_c, 0, 75, 64
2, 79920, Note_on_c, 0, 73, 92
2, 80040, Note_off_c, 0, 73, 64
2, 80040, Note_on_c, 0, 71, 92
2, 80160, Note_off_c, 0, 71, 64
2, 80160, Note_on_c, 0, 73, 92
2, 80280, Note_off_c, 0, 73, 64
2, 80280, Note_on_c, 0, 75, 92
2, 80400, Note_off_c, 0, 75, 64
2, 80400, Note_on_c, 0, 76, 92
2, 80520, Note_off_c, 0, 76, 64
2, 80520, Note_on_c, 0, 78, 92
2, 80640, Note_off_c, 0, 78, 64
2, 80640, Note_on_c, 0, 79, 92
2, 80880, Note_off_c, 0, 79, 64
2, 80880, Note_on_c, 0, 83, 92
2, 81120, Note_off_c, 0, 83, 64
2, 81120, Note_on_c, 0, 79, 92
2, 81360, Note_off_c, 0, 79, 64
2, 81360, Note_on_c, 0, 76, 92
2, 81600, Note_off_c, 0, 76, 64
2, 81840, Note_on_c, 0, 79, 92
2, 82080, Note_off_c, 0, 79, 64
2, 82080, Note_on_c, 0, 76, 92
2, 82320, Note_off_c, 0, 76, 64
2, 82320, Note_on_c, 0, 71, 92
2, 82560, Note_off_c, 0, 71, 64
2, 82800, Note_on_c, 0, 76, 92
2, 83040, Note_off_c, 0, 76, 64
2, 83040, Note_on_c, 0, 73, 92
2, 83280, Note_off_c, 0, 73, 64
2, 83280, Note_on_c, 0, 69, 92
2, 83520, Note_off_c, 0, 69, 64
2, 83760, Note_on_c, 0, 81, 92
2, 84000, Note_off_c, 0, 81, 64
2, 84000, Note_on_c, 0, 76, 92
2, 84240, Note_off_c, 0, 76, 64
2, 84240, Note_on_c, 0, 73, 92
2, 84480, Note_off_c, 0, 73, 64
2, 84720, Note_on_c, 0, 81, 92
2, 84960, Note_off_c, 0, 81, 64
2, 84960, Note_on_c, 0, 78, 92
2, 85200, Note_off_c, 0, 78, 64
2, 85200, Note_on_c, 0, 74, 92
2, 85440, Note_off_c, 0, 74, 64
2, 85680, Note_on_c, 0, 78, 92
2, 85920, Note_off_c, 0, 78, 64
2, 85920, Note_on_c, 0, 74, 92
2, 86160, Note_off_c, 0, 74, 64
2, 86160, Note_on_c, 0, 69, 92
2, 86400, Note_off_c, 0, 69, 64
2, 86640, Note_on_c, 0, 74, 92
2, 86880, Note_off_c, 0, 74, 64
2, 86880, Note_on_c, 0, 71, 92
2, 87120, Note_off_c, 0, 71, 64
2, 87120, Note_on_c, 0, 67, 92
2, 87360, Note_off_c, 0, 67, 64
2, 87600, Note_on_c, 0, 79, 92
2, 87840, Note_off_c, 0, 79, 64
2, 87840, Note_on_c, 0, 74, 92
2, 88080, Note_off_c, 0, 74, 64
2, 88080, Note_on_c, 0, 71, 92
2, 88320, Note_off_c, 0, 71, 64
2, 88560, Note_on_c, 0, 79, 92
2, 88800, Note_off_c, 0, 79, 64
2, 88800, Note_on_c, 0, 76, 92
2, 89040, Note_off_c, 0, 76, 64
2, 89040, Note_on_c, 0, 73, 92
2, 89280, Note_off_c, 0, 73, 64
2, 89520, Note_on_c, 0, 76, 92
2, 89760, Note_off_c, 0, 76, 64
2, 89760, Note_on_c, 0, 73, 92
2, 90000, Note_off_c, 0, 73, 64
2, 90000, Note_on_c, 0, 67, 92
2, 90240, Note_off_c, 0, 67, 64
2, 90480, Note_on_c, 0, 76, 92
2, 90720, Note_off_c, 0, 76, 64
2, 90720, Note_on_c, 0, 73, 92
2, 90960, Note_off_c, 0, 73, 64
2, 90960, Note_on_c, 0, 66, 92
2, 91200, Note_off_c, 0, 66, 64
2, 91440, Note_on_c, 0, 76, 92
2, 91680, Note_off_c, 0, 76, 64
2, 91680, Note_on_c, 0, 73, 92
2, 91920, Note_off_c, 0, 73, 64
2, 91920, Note_on_c, 0, 70, 92
2, 92160, Note_off_c, 0, 70, 64
2, 92400, Note_on_c, 0, 74, 92
2, 92640, Note_off_c, 0, 74, 64
2, 92640, Note_on_c, 0, 71, 92
2, 92880, Note_off_c, 0, 71, 64
2, 92880, Note_on_c, 0, 66, 92
2, 93120, Note_off_c, 0, 66, 64
2, 93360, Note_on_c, 0, 78, 92
2, 93600, Note_off_c, 0, 78, 64
2, 93600, Note_on_c, 0, 74, 92
2, 93840, Note_off_c, 0, 74, 64
2, 93840, Note_on_c, 0, 71, 92
2, 94080, Note_off_c, 0, 71, 64
2, 94320, Note_on_c, 0, 76, 92
2, 94560, Note_off_c, 0, 76, 64
2, 94560, Note_on_c, 0, 73, 92
2, 94800, Note_off_c, 0, 73, 64
2, 94800, Note_on_c, 0, 66, 92
2, 95040, Note_off_c, 0, 66, 64
2, 95280, Note_on_c, 0, 73, 92
2, 95520, Note_off_c, 0, 73, 64
2, 95520, Note_on_c, 0, 70, 92
2, 95760, Note_off_c, 0, 70, 64
2, 95760, Note_on_c, 0, 66, 92
2, 96000, Note_off_c, 0, 66, 64
2, 96000, Note_on_c, 0, 74, 92
2, 96120, Note_off_c, 0, 74, 64
2, 96120, Note_on_c, 0, 71, 92
2, 96240, Note_off_c, 0, 71, 64
2, 96240, Note_on_c, 0, 78, 92
2, 96600, Note_off_c, 0, 78, 64
2, 96600, Note_on_c, 0, 76, 92
2, 96720, Note_off_c, 0, 76, 64
2, 96720, Note_on_c, 0, 74, 92
2, 96840, Note_off_c, 0, 74, 64
2, 96840, Note_on_c, 0, 73, 92
2, 96960, Note_off_c, 0, 73, 64
2, 96960, Note_on_c, 0, 76, 92
2, 97080, Note_off_c, 0, 76, 64
2, 97080, Note_on_c, 0, 74, 92
2, 97200, Note_off_c, 0, 74, 64
2, 97200, Note_on_c, 0, 73, 92
2, 97320, Note_off_c, 0, 73, 64
2, 97320, Note_on_c, 0, 71, 92
2, 97440, Note_off_c, 0, 71, 64
2, 97440, Note_on_c, 0, 83, 92
2, 98160, Note_off_c, 0, 83, 64
2, 98160, Note_on_c, 0, 81, 92
2, 98280, Note_off_c, 0, 81, 64
2, 98280, Note_on_c, 0, 79, 92
2, 98400, Note_off_c, 0, 79, 64
2, 98400, Note_on_c, 0, 78, 92
2, 98520, Note_off_c, 0, 78, 64
2, 98520, Note_on_c, 0, 76, 92
2, 98640, Note_off_c, 0, 76, 64
2, 98640, Note_on_c, 0, 74, 92
2, 98760, Note_off_c, 0, 74, 64
2, 98760, Note_on_c, 0, 73, 92
2, 98880, Note_off_c, 0, 73, 64
2, 98880, Note_on_c, 0, 74, 92
2, 99120, Note_off_c, 0, 74, 64
2, 99120, Note_on_c, 0, 71, 92
2, 99360, Note_off_c, 0, 71, 64
2, 100080, Note_on_c, 0, 66, 92
2, 100200, Note_off_c, 0, 66, 64
2, 100200, Note_on_c, 0, 62, 92
2, 100320, Note_off_c, 0, 62, 64
2, 100320, Note_on_c, 0, 69, 92
2, 100440, Note_off_c, 0, 69, 64
2, 100440, Note_on_c, 0, 66, 92
2, 100560, Note_off_c, 0, 66, 64
2, 100560, Note_on_c, 0, 74, 92
2, 101040, Note_off_c, 0, 74, 64
2, 101040, Note_on_c, 0, 73, 92
2, 101160, Note_off_c, 0, 73, 64
2, 101160, Note_on_c, 0, 71, 92
2, 101280, Note_off_c, 0, 71, 64
2, 101280, Note_on_c, 0, 69, 92
2, 101400, Note_off_c, 0, 69, 64
2, 101400, Note_on_c, 0, 74, 92
2, 101520, Note_off_c, 0, 74, 64
2, 101520, Note_on_c, 0, 67, 92
2, 101640, Note_off_c, 0, 67, 64
2, 101640, Note_on_c, 0, 74, 92
2, 101760, Note_off_c, 0, 74, 64
2, 101760, Note_on_c, 0, 66, 92
2, 101880, Note_off_c, 0, 66, 64
2, 101880, Note_on_c, 0, 69, 92
2, 102000, Note_off_c, 0, 69, 64
2, 102000, Note_on_c, 0, 74, 92
2, 102240, Note_off_c, 0, 74, 64
2, 102240, Note_on_c, 0, 64, 92
2, 102480, Note_off_c, 0, 64, 64
2, 102480, Note_on_c, 0, 73, 92
2, 102720, Note_off_c, 0, 73, 64
2, 102720, Note_on_c, 0, 62, 92
2, 102840, Note_off_c, 0, 62, 64
2, 102840, Note_on_c, 0, 61, 92
2, 102960, Note_off_c, 0, 61, 64
2, 102960, Note_on_c, 0, 62, 92
2, 103080, Note_off_c, 0, 62, 64
2, 103080, Note_on_c, 0, 64, 92
2, 103200, Note_off_c, 0, 64, 64
2, 103200, Note_on_c, 0, 66, 92
2, 103320, Note_off_c, 0, 66, 64
2, 103320, Note_on_c, 0, 67, 92
2, 103440, Note_off_c, 0, 67, 64
2, 103440, Note_on_c, 0, 69, 92
2, 103560, Note_off_c, 0, 69, 64
2, 103560, Note_on_c, 0, 71, 92
2, 103680, Note_off_c, 0, 71, 64
2, 103680, Note_on_c, 0, 72, 92
2, 103920, Note_off_c, 0, 72, 64
2, 103920, Note_on_c, 0, 72, 92
2, 104160, Note_off_c, 0, 72, 64
2, 104160, Note_on_c, 0, 72, 92
2, 104400, Note_off_c, 0, 72, 64
2, 104400, Note_on_c, 0, 81, 92
2, 104520, Note_off_c, 0, 81, 64
2, 104520, Note_on_c, 0, 78, 92
2, 104640, Note_off_c, 0, 78, 64
2, 104640, Note_on_c, 0, 71, 92
2, 104880, Note_off_c, 0, 71, 64
2, 104880, Note_on_c, 0, 71, 92
2, 105120, Note_off_c, 0, 71, 64
2, 105120, Note_on_c, 0, 71, 92
2, 105360, Note_off_c, 0, 71, 64
2, 105360, Note_on_c, 0, 81, 92
2, 105480, Note_off_c, 0, 81, 64
2, 105480, Note_on_c, 0, 78, 92
2, 105600, Note_off_c, 0, 78, 64
2, 105600, Note_on_c, 0, 71, 92
2, 105840, Note_off_c, 0, 71, 64
2, 105840, Note_on_c, 0, 71, 92
2, 106080, Note_off_c, 0, 71, 64
2, 106080, Note_on_c, 0, 71, 92
2, 106320, Note_off_c, 0, 71, 64
2, 106320, Note_on_c, 0, 79, 92
2, 106440, Note_off_c, 0, 79, 64
2, 106440, Note_on_c, 0, 76, 92
2, 106560, Note_off_c, 0, 76, 64
2, 106560, Note_on_c, 0, 69, 92
2, 106800, Note_off_c, 0, 69, 64
2, 106800, Note_on_c, 0, 69, 92
2, 107040, Note_off_c, 0, 69, 64
2, 107040, Note_on_c, 0, 69, 92
2, 107280, Note_off_c, 0, 69, 64
2, 107280, Note_on_c, 0, 79, 92
2, 107400, Note_off_c, 0, 79, 64
2, 107400, Note_on_c, 0, 76, 92
2, 107520, Note_off_c, 0, 76, 64
2, 107520, Note_on_c, 0, 69, 92
2, 107760, Note_off_c, 0, 69, 64
2, 107760, Note_on_c, 0, 69, 92
2, 108000, Note_off_c, 0, 69, 64
2, 108000, Note_on_c, 0, 69, 92
2, 108240, Note_off_c, 0, 69, 64
2, 108240, Note_on_c, 0, 78, 92
2, 108360, Note_off_c, 0, 78, 64
2, 108360, Note_on_c, 0, 75, 92
2, 108480, Note_off_c, 0, 75, 64
2, 108480, Note_on_c, 0, 67, 92
2, 108720, Note_off_c, 0, 67, 64
2, 108720, Note_on_c, 0, 67, 92
2, 108960, Note_off_c, 0, 67, 64
2, 108960, Note_on_c, 0, 67, 92
2, 109200, Note_off_c, 0, 67, 64
2, 109200, Note_on_c, 0, 78, 92
2, 109320, Note_off_c, 0, 78, 64
2, 109320, Note_on_c, 0, 75, 92
2, 109440, Note_off_c, 0, 75, 64
2, 109440, Note_on_c, 0, 67, 92
2, 109680, Note_off_c, 0, 67, 64
2, 109680, Note_on_c, 0, 68, 92
2, 109920, Note_off_c, 0, 68, 64
2, 109920, Note_on_c, 0, 69, 92
2, 110160, Note_off_c, 0, 69, 64
2, 110160, Note_on_c, 0, 71, 92
2, 110400, Note_off_c, 0, 71, 64
2, 110400, Note_on_c, 0, 72, 92
2, 110640, Note_off_c, 0, 72, 64
2, 110640, Note_on_c, 0, 69, 92
2, 110880, Note_off_c, 0, 69, 64
2, 110880, Note_on_c, 0, 71, 92
2, 111120, Note_off_c, 0, 71, 64
2, 111120, Note_on_c, 0, 73, 92
2, 111360, Note_off_c, 0, 73, 64
2, 111360, Note_on_c, 0, 74, 92
2, 111600, Note_off_c, 0, 74, 64
2, 111600, Note_on_c, 0, 69, 92
2, 111840, Note_off_c, 0, 69, 64
2, 111840, Note_on_c, 0, 74, 92
2, 112560, Note_off_c, 0, 74, 64
2, 112560, Note_on_c, 0, 76, 92
2, 112680, Note_off_c, 0, 76, 64
2, 112680, Note_on_c, 0, 74, 92
2, 112800, Note_off_c, 0, 74, 64
2, 112800, Note_on_c, 0, 72, 92
2, 112920, Note_off_c, 0, 72, 64
2, 112920, Note_on_c, 0, 74, 92
2, 113040, Note_off_c, 0, 74, 64
2, 113040, Note_on_c, 0, 71, 92
2, 113160, Note_off_c, 0, 71, 64
2, 113160, Note_on_c, 0, 74, 92
2, 113280, Note_off_c, 0, 74, 64
2, 113280, Note_on_c, 0, 72, 92
2, 113520, Note_off_c, 0, 72, 64
2, 113520, Note_on_c, 0, 67, 92
2, 113760, Note_off_c, 0, 67, 64
2, 113760, Note_on_c, 0, 72, 92
2, 114480, Note_off_c, 0, 72, 64
2, 114480, Note_on_c, 0, 74, 92
2, 114600, Note_off_c, 0, 74, 64
2, 114600, Note_on_c, 0, 72, 92
2, 114720, Note_off_c, 0, 72, 64
2, 114720, Note_on_c, 0, 71, 92
2, 114840, Note_off_c, 0, 71, 64
2, 114840, Note_on_c, 0, 72, 92
2, 114960, Note_off_c, 0, 72, 64
2, 114960, Note_on_c, 0, 69, 92
2, 115080, Note_off_c, 0, 69, 64
2, 115080, Note_on_c, 0, 72, 92
2, 115200, Note_off_c, 0, 72, 64
2, 115200, Note_on_c, 0, 71, 92
2, 115440, Note_off_c, 0, 71, 64
2, 115440, Note_on_c, 0, 66, 92
2, 115680, Note_off_c, 0, 66, 64
2, 115680, Note_on_c, 0, 71, 92
2, 116400, Note_off_c, 0, 71, 64
2, 116400, Note_on_c, 0, 72, 92
2, 116520, Note_off_c, 0, 72, 64
2, 116520, Note_on_c, 0, 71, 92
2, 116640, Note_off_c, 0, 71, 64
2, 116640, Note_on_c, 0, 69, 92
2, 116760, Note_off_c, 0, 69, 64
2, 116760, Note_on_c, 0, 71, 92
2, 116880, Note_off_c, 0, 71, 64
2, 116880, Note_on_c, 0, 68, 92
2, 117000, Note_off_c, 0, 68, 64
2, 117000, Note_on_c, 0, 71, 92
2, 117120, Note_off_c, 0, 71, 64
2, 117120, Note_on_c, 0, 69, 92
2, 117360, Note_off_c, 0, 69, 64
2, 117360, Note_on_c, 0, 64, 92
2, 117600, Note_off_c, 0, 64, 64
2, 117600, Note_on_c, 0, 69, 92
2, 117840, Note_off_c, 0, 69, 64
2, 117840, Note_on_c, 0, 67, 92
2, 118080, Note_off_c, 0, 67, 64
2, 118080, Note_on_c, 0, 66, 92
2, 119280, Note_off_c, 0, 66, 64
2, 119280, Note_on_c, 0, 78, 92
2, 119520, Note_off_c, 0, 78, 64
2, 119520, Note_on_c, 0, 76, 92
2, 119760, Note_off_c, 0, 76, 64
2, 119760, Note_on_c, 0, 74, 92
2, 120000, Note_off_c, 0, 74, 64
2, 120000, Note_on_c, 0, 73, 92
2, 120120, Note_off_c, 0, 73, 64
2, 120120, Note_on_c, 0, 83, 92
2, 120240, Note_off_c, 0, 83, 64
2, 120240, Note_on_c, 0, 81, 92
2, 120360, Note_off_c, 0, 81, 64
2, 120360, Note_on_c, 0, 79, 92
2, 120480, Note_off_c, 0, 79, 64
2, 120480, Note_on_c, 0, 81, 92
2, 120600, Note_off_c, 0, 81, 64
2, 120600, Note_on_c, 0, 79, 92
2, 120720, Note_off_c, 0, 79, 64
2, 120720, Note_on_c, 0, 78, 92
2, 120840, Note_off_c, 0, 78, 64
2, 120840, Note_on_c, 0, 76, 92
2, 120960, Note_off_c, 0, 76, 64
2, 120960, Note_on_c, 0, 74, 92
2, 121440, Note_off_c, 0, 74, 64
2, 121440, Note_on_c, 0, 74, 92
2, 121920, Note_off_c, 0, 74, 64
2, 121920, Note_on_c, 0, 74, 92
2, 122160, Note_off_c, 0, 74, 64
2, 122160, Note_on_c, 0, 73, 92
2, 122280, Note_off_c, 0, 73, 64
2, 122280, Note_on_c, 0, 71, 92
2, 122400, Note_off_c, 0, 71, 64
2, 122400, Note_on_c, 0, 69, 92
2, 122520, Note_off_c, 0, 69, 64
2, 122520, Note_on_c, 0, 67, 92
2, 122640, Note_off_c, 0, 67, 64
2, 122640, Note_on_c, 0, 65, 92
2, 122760, Note_off_c, 0, 65, 64
2, 122760, Note_on_c, 0, 64, 92
2, 122880, Note_off_c, 0, 64, 64
2, 122880, Note_on_c, 0, 65, 92
2, 123000, Note_off_c, 0, 65, 64
2, 123000, Note_on_c, 0, 69, 92
2, 123120, Note_off_c, 0, 69, 64
2, 123120, Note_on_c, 0, 74, 92
2, 123360, Note_off_c, 0, 74, 64
2, 123360, Note_on_c, 0, 64, 92
2, 123600, Note_off_c, 0, 64, 64
2, 123600, Note_on_c, 0, 73, 92
2, 123840, Note_off_c, 0, 73, 64
2, 123840, Note_on_c, 0, 62, 92
2, 124080, Note_off_c, 0, 62, 64
2, 124800, Note_on_c, 0, 76, 92
2, 125280, Note_off_c, 0, 76, 64
2, 125280, Note_on_c, 0, 76, 92
2, 125760, Note_off_c, 0, 76, 64
2, 125760, Note_on_c, 0, 76, 92
2, 126000, Note_off_c, 0, 76, 64
2, 126000, Note_on_c, 0, 74, 92
2, 126120, Note_off_c, 0, 74, 64
2, 126120, Note_on_c, 0, 72, 92
2, 126240, Note_off_c, 0, 72, 64
2, 126240, Note_on_c, 0, 71, 92
2, 126360, Note_off_c, 0, 71, 64
2, 126360, Note_on_c, 0, 72, 92
2, 126480, Note_off_c, 0, 72, 64
2, 126480, Note_on_c, 0, 69, 92
2, 126600, Note_off_c, 0, 69, 64
2, 126600, Note_on_c, 0, 71, 92
2, 126720, Note_off_c, 0, 71, 64
2, 126720, Note_on_c, 0, 68, 92
2, 126840, Note_off_c, 0, 68, 64
2, 126840, Note_on_c, 0, 69, 92
2, 126960, Note_off_c, 0, 69, 64
2, 126960, Note_on_c, 0, 71, 92
2, 127080, Note_off_c, 0, 71, 64
2, 127080, Note_on_c, 0, 68, 92
2, 127200, Note_off_c, 0, 68, 64
2, 127200, Note_on_c, 0, 69, 92
2, 127320, Note_off_c, 0, 69, 64
2, 127320, Note_on_c, 0, 68, 92
2, 127440, Note_off_c, 0, 68, 64
2, 127440, Note_on_c, 0, 66, 92
2, 127560, Note_off_c, 0, 66, 64
2, 127560, Note_on_c, 0, 64, 92
2, 127680, Note_off_c, 0, 64, 64
2, 127680, Note_on_c, 0, 69, 92
2, 127920, Note_off_c, 0, 69, 64
2, 127920, Note_on_c, 0, 71, 92
2, 128040, Note_off_c, 0, 71, 64
2, 128040, Note_on_c, 0, 72, 92
2, 128160, Note_off_c, 0, 72, 64
2, 128160, Note_on_c, 0, 74, 92
2, 128280, Note_off_c, 0, 74, 64
2, 128280, Note_on_c, 0, 76, 92
2, 128400, Note_off_c, 0, 76, 64
2, 128400, Note_on_c, 0, 72, 92
2, 128520, Note_off_c, 0, 72, 64
2, 128520, Note_on_c, 0, 74, 92
2, 128640, Note_off_c, 0, 74, 64
2, 128640, Note_on_c, 0, 71, 92
2, 128760, Note_off_c, 0, 71, 64
2, 128760, Note_on_c, 0, 72, 92
2, 128880, Note_off_c, 0, 72, 64
2, 128880, Note_on_c, 0, 74, 92
2, 129000, Note_off_c, 0, 74, 64
2, 129000, Note_on_c, 0, 77, 92
2, 129120, Note_off_c, 0, 77, 64
2, 129120, Note_on_c, 0, 76, 92
2, 129240, Note_off_c, 0, 76, 64
2, 129240, Note_on_c, 0, 74, 92
2, 129360, Note_off_c, 0, 74, 64
2, 129360, Note_on_c, 0, 72, 92
2, 129480, Note_off_c, 0, 72, 64
2, 129480, Note_on_c, 0, 71, 92
2, 129600, Note_off_c, 0, 71, 64
2, 129600, Note_on_c, 0, 72, 92
2, 129720, Note_off_c, 0, 72, 64
2, 129720, Note_on_c, 0, 71, 92
2, 129840, Note_off_c, 0, 71, 64
2, 129840, Note_on_c, 0, 69, 92
2, 129960, Note_off_c, 0, 69, 64
2, 129960, Note_on_c, 0, 68, 92
2, 130080, Note_off_c, 0, 68, 64
2, 130080, Note_on_c, 0, 69, 92
2, 130200, Note_off_c, 0, 69, 64
2, 130200, Note_on_c, 0, 72, 92
2, 130320, Note_off_c, 0, 72, 64
2, 130320, Note_on_c, 0, 71, 92
2, 130440, Note_off_c, 0, 71, 64
2, 130440, Note_on_c, 0, 74, 92
2, 130560, Note_off_c, 0, 74, 64
2, 130560, Note_on_c, 0, 72, 92
2, 130680, Note_off_c, 0, 72, 64
2, 130680, Note_on_c, 0, 76, 92
2, 130800, Note_off_c, 0, 76, 64
2, 130800, Note_on_c, 0, 81, 92
2, 130920, Note_off_c, 0, 81, 64
2, 130920, Note_on_c, 0, 76, 92
2, 131040, Note_off_c, 0, 76, 64
2, 131040, Note_on_c, 0, 84, 92
2, 131160, Note_off_c, 0, 84, 64
2, 131160, Note_on_c, 0, 81, 92
2, 131280, Note_off_c, 0, 81, 64
2, 131280, Note_on_c, 0, 76, 92
2, 131400, Note_off_c, 0, 76, 64
2, 131400, Note_on_c, 0, 81, 92
2, 131520, Note_off_c, 0, 81, 64
2, 131520, Note_on_c, 0, 72, 92
2, 131640, Note_off_c, 0, 72, 64
2, 131640, Note_on_c, 0, 76, 92
2, 131760, Note_off_c, 0, 76, 64
2, 131760, Note_on_c, 0, 81, 92
2, 131880, Note_off_c, 0, 81, 64
2, 131880, Note_on_c, 0, 76, 92
2, 132000, Note_off_c, 0, 76, 64
2, 132000, Note_on_c, 0, 84, 92
2, 132120, Note_off_c, 0, 84, 64
2, 132120, Note_on_c, 0, 81, 92
2, 132240, Note_off_c, 0, 81, 64
2, 132240, Note_on_c, 0, 76, 92
2, 132360, Note_off_c, 0, 76, 64
2, 132360, Note_on_c, 0, 81, 92
2, 132480, Note_off_c, 0, 81, 64
2, 132480, Note_on_c, 0, 74, 92
2, 132600, Note_off_c, 0, 74, 64
2, 132600, Note_on_c, 0, 78, 92
2, 132720, Note_off_c, 0, 78, 64
2, 132720, Note_on_c, 0, 81, 92
2, 132840, Note_off_c, 0, 81, 64
2, 132840, Note_on_c, 0, 78, 92
2, 132960, Note_off_c, 0, 78, 64
2, 132960, Note_on_c, 0, 84, 92
2, 133080, Note_off_c, 0, 84, 64
2, 133080, Note_on_c, 0, 81, 92
2, 133200, Note_off_c, 0, 81, 64
2, 133200, Note_on_c, 0, 78, 92
2, 133320, Note_off_c, 0, 78, 64
2, 133320, Note_on_c, 0, 81, 92
2, 133440, Note_off_c, 0, 81, 64
2, 133440, Note_on_c, 0, 74, 92
2, 133560, Note_off_c, 0, 74, 64
2, 133560, Note_on_c, 0, 78, 92
2, 133680, Note_off_c, 0, 78, 64
2, 133680, Note_on_c, 0, 81, 92
2, 133800, Note_off_c, 0, 81, 64
2, 133800, Note_on_c, 0, 78, 92
2, 133920, Note_off_c, 0, 78, 64
2, 133920, Note_on_c, 0, 84, 92
2, 134040, Note_off_c, 0, 84, 64
2, 134040, Note_on_c, 0, 81, 92
2, 134160, Note_off_c, 0, 81, 64
2, 134160, Note_on_c, 0, 78, 92
2, 134280, Note_off_c, 0, 78, 64
2, 134280, Note_on_c, 0, 81, 92
2, 134400, Note_off_c, 0, 81, 64
2, 134400, Note_on_c, 0, 71, 92
2, 134520, Note_off_c, 0, 71, 64
2, 134520, Note_on_c, 0, 74, 92
2, 134640, Note_off_c, 0, 74, 64
2, 134640, Note_on_c, 0, 79, 92
2, 134760, Note_off_c, 0, 79, 64
2, 134760, Note_on_c, 0, 74, 92
2, 134880, Note_off_c, 0, 74, 64
2, 134880, Note_on_c, 0, 83, 92
2, 135000, Note_off_c, 0, 83, 64
2, 135000, Note_on_c, 0, 79, 92
2, 135120, Note_off_c, 0, 79, 64
2, 135120, Note_on_c, 0, 74, 92
2, 135240, Note_off_c, 0, 74, 64
2, 135240, Note_on_c, 0, 79, 92
2, 135360, Note_off_c, 0, 79, 64
2, 135360, Note_on_c, 0, 71, 92
2, 135480, Note_off_c, 0, 71, 64
2, 135480, Note_on_c, 0, 74, 92
2, 135600, Note_off_c, 0, 74, 64
2, 135600, Note_on_c, 0, 79, 92
2, 135720, Note_off_c, 0, 79, 64
2, 135720, Note_on_c, 0, 74, 92
2, 135840, Note_off_c, 0, 74, 64
2, 135840, Note_on_c, 0, 83, 92
2, 135960, Note_off_c, 0, 83, 64
2, 135960, Note_on_c, 0, 79, 92
2, 136080, Note_off_c, 0, 79, 64
2, 136080, Note_on_c, 0, 74, 92
2, 136200, Note_off_c, 0, 74, 64
2, 136200, Note_on_c, 0, 79, 92
2, 136320, Note_off_c, 0, 79, 64
2, 136320, Note_on_c, 0, 72, 92
2, 136440, Note_off_c, 0, 72, 64
2, 136440, Note_on_c, 0, 76, 92
2, 136560, Note_off_c, 0, 76, 64
2, 136560, Note_on_c, 0, 79, 92
2, 136680, Note_off_c, 0, 79, 64
2, 136680, Note_on_c, 0, 76, 92
2, 136800, Note_off_c, 0, 76, 64
2, 136800, Note_on_c, 0, 83, 92
2, 136920, Note_off_c, 0, 83, 64
2, 136920, Note_on_c, 0, 79, 92
2, 137040, Note_off_c, 0, 79, 64
2, 137040, Note_on_c, 0, 76, 92
2, 137160, Note_off_c, 0, 76, 64
2, 137160, Note_on_c, 0, 79, 92
2, 137280, Note_off_c, 0, 79, 64
2, 137280, Note_on_c, 0, 72, 92
2, 137400, Note_off_c, 0, 72, 64
2, 137400, Note_on_c, 0, 76, 92
2, 137520, Note_off_c, 0, 76, 64
2, 137520, Note_on_c, 0, 79, 92
2, 137640, Note_off_c, 0, 79, 64
2, 137640, Note_on_c, 0, 76, 92
2, 137760, Note_off_c, 0, 76, 64
2, 137760, Note_on_c, 0, 83, 92
2, 137880, Note_off_c, 0, 83, 64
2, 137880, Note_on_c, 0, 79, 92
2, 138000, Note_off_c, 0, 79, 64
2, 138000, Note_on_c, 0, 76, 92
2, 138120, Note_off_c, 0, 76, 64
2, 138120, Note_on_c, 0, 79, 92
2, 138240, Note_off_c, 0, 79, 64
2, 138240, Note_on_c, 0, 69, 92
2, 138360, Note_off_c, 0, 69, 64
2, 138360, Note_on_c, 0, 72, 92
2, 138480, Note_off_c, 0, 72, 64
2, 138480, Note_on_c, 0, 76, 92
2, 138600, Note_off_c, 0, 76, 64
2, 138600, Note_on_c, 0, 72, 92
2, 138720, Note_off_c, 0, 72, 64
2, 138720, Note_on_c, 0, 81, 92
2, 138840, Note_off_c, 0, 81, 64
2, 138840, Note_on_c, 0, 76, 92
2, 138960, Note_off_c, 0, 76, 64
2, 138960, Note_on_c, 0, 72, 92
2, 139080, Note_off_c, 0, 72, 64
2, 139080, Note_on_c, 0, 76, 92
2, 139200, Note_off_c, 0, 76, 64
2, 139200, Note_on_c, 0, 69, 92
2, 139320, Note_off_c, 0, 69, 64
2, 139320, Note_on_c, 0, 72, 92
2, 139440, Note_off_c, 0, 72, 64
2, 139440, Note_on_c, 0, 76, 92
2, 139560, Note_off_c, 0, 76, 64
2, 139560, Note_on_c, 0, 72, 92
2, 139680, Note_off_c, 0, 72, 64
2, 139680, Note_on_c, 0, 81, 92
2, 139800, Note_off_c, 0, 81, 64
2, 139800, Note_on_c, 0, 78, 92
2, 139920, Note_off_c, 0, 78, 64
2, 139920, Note_on_c, 0, 72, 92
2, 140040, Note_off_c, 0, 72, 64
2, 140040, Note_on_c, 0, 78, 92
2, 140160, Note_off_c, 0, 78, 64
2, 140160, Note_on_c, 0, 71, 92
2, 140280, Note_off_c, 0, 71, 64
2, 140280, Note_on_c, 0, 75, 92
2, 140400, Note_off_c, 0, 75, 64
2, 140400, Note_on_c, 0, 78, 92
2, 140520, Note_off_c, 0, 78, 64
2, 140520, Note_on_c, 0, 75, 92
2, 140640, Note_off_c, 0, 75, 64
2, 140640, Note_on_c, 0, 81, 92
2, 140760, Note_off_c, 0, 81, 64
2, 140760, Note_on_c, 0, 78, 92
2, 140880, Note_off_c, 0, 78, 64
2, 140880, Note_on_c, 0, 75, 92
2, 141000, Note_off_c, 0, 75, 64
2, 141000, Note_on_c, 0, 78, 92
2, 141120, Note_off_c, 0, 78, 64
2, 141120, Note_on_c, 0, 71, 92
2, 141240, Note_off_c, 0, 71, 64
2, 141240, Note_on_c, 0, 75, 92
2, 141360, Note_off_c, 0, 75, 64
2, 141360, Note_on_c, 0, 78, 92
2, 141480, Note_off_c, 0, 78, 64
2, 141480, Note_on_c, 0, 75, 92
2, 141600, Note_off_c, 0, 75, 64
2, 141600, Note_on_c, 0, 81, 92
2, 141720, Note_off_c, 0, 81, 64
2, 141720, Note_on_c, 0, 78, 92
2, 141840, Note_off_c, 0, 78, 64
2, 141840, Note_on_c, 0, 75, 92
2, 141960, Note_off_c, 0, 75, 64
2, 141960, Note_on_c, 0, 78, 92
2, 142080, Note_off_c, 0, 78, 64
2, 142080, Note_on_c, 0, 67, 92
2, 142200, Note_off_c, 0, 67, 64
2, 142200, Note_on_c, 0, 71, 92
2, 142320, Note_off_c, 0, 71, 64
2, 142320, Note_on_c, 0, 76, 92
2, 142440, Note_off_c, 0, 76, 64
2, 142440, Note_on_c, 0, 71, 92
2, 142560, Note_off_c, 0, 71, 64
2, 142560, Note_on_c, 0, 79, 92
2, 142680, Note_off_c, 0, 79, 64
2, 142680, Note_on_c, 0, 76, 92
2, 142800, Note_off_c, 0, 76, 64
2, 142800, Note_on_c, 0, 71, 92
2, 142920, Note_off_c, 0, 71, 64
2, 142920, Note_on_c, 0, 76, 92
2, 143040, Note_off_c, 0, 76, 64
2, 143040, Note_on_c, 0, 67, 92
2, 143160, Note_off_c, 0, 67, 64
2, 143160, Note_on_c, 0, 71, 92
2, 143280, Note_off_c, 0, 71, 64
2, 143280, Note_on_c, 0, 76, 92
2, 143400, Note_off_c, 0, 76, 64
2, 143400, Note_on_c, 0, 71, 92
2, 143520, Note_off_c, 0, 71, 64
2, 143520, Note_on_c, 0, 79, 92
2, 143640, Note_off_c, 0, 79, 64
2, 143640, Note_on_c, 0, 76, 92
2, 143760, Note_off_c, 0, 76, 64
2, 143760, Note_on_c, 0, 71, 92
2, 143880, Note_off_c, 0, 71, 64
2, 143880, Note_on_c, 0, 76, 92
2, 144000, Note_off_c, 0, 76, 64
2, 144000, Note_on_c, 0, 69, 92
2, 144120, Note_off_c, 0, 69, 64
2, 144120, Note_on_c, 0, 73, 92
2, 144240, Note_off_c, 0, 73, 64
2, 144240, Note_on_c, 0, 76, 92
2, 144360, Note_off_c, 0, 76, 64
2, 144360, Note_on_c, 0, 73, 92
2, 144480, Note_off_c, 0, 73, 64
2, 144480, Note_on_c, 0, 79, 92
2, 144600, Note_off_c, 0, 79, 64
2, 144600, Note_on_c, 0, 76, 92
2, 144720, Note_off_c, 0, 76, 64
2, 144720, Note_on_c, 0, 73, 92
2, 144840, Note_off_c, 0, 73, 64
2, 144840, Note_on_c, 0, 76, 92
2, 144960, Note_off_c, 0, 76, 64
2, 144960, Note_on_c, 0, 69, 92
2, 145080, Note_off_c, 0, 69, 64
2, 145080, Note_on_c, 0, 73, 92
2, 145200, Note_off_c, 0, 73, 64
2, 145200, Note_on_c, 0, 76, 92
2, 145320, Note_off_c, 0, 76, 64
2, 145320, Note_on_c, 0, 73, 92
2, 145440, Note_off_c, 0, 73, 64
2, 145440, Note_on_c, 0, 79, 92
2, 145560, Note_off_c, 0, 79, 64
2, 145560, Note_on_c, 0, 76, 92
2, 145680, Note_off_c, 0, 76, 64
2, 145680, Note_on_c, 0, 73, 92
2, 145800, Note_off_c, 0, 73, 64
2, 145800, Note_on_c, 0, 76, 92
2, 145920, Note_off_c, 0, 76, 64
2, 145920, Note_on_c, 0, 78, 92
2, 146040, Note_off_c, 0, 78, 64
2, 146040, Note_on_c, 0, 74, 92
2, 146160, Note_off_c, 0, 74, 64
2, 146160, Note_on_c, 0, 81, 92
2, 146520, Note_off_c, 0, 81, 64
2, 146520, Note_on_c, 0, 79, 92
2, 146640, Note_off_c, 0, 79, 64
2, 146640, Note_on_c, 0, 78, 92
2, 146760, Note_off_c, 0, 78, 64
2, 146760, Note_on_c, 0, 76, 92
2, 146880, Note_off_c, 0, 76, 64
2, 146880, Note_on_c, 0, 78, 92
2, 147000, Note_off_c, 0, 78, 64
2, 147000, Note_on_c, 0, 81, 92
2, 147120, Note_off_c, 0, 81, 64
2, 147120, Note_on_c, 0, 72, 92
2, 147480, Note_off_c, 0, 72, 64
2, 147480, Note_on_c, 0, 75, 92
2, 147600, Note_off_c, 0, 75, 64
2, 147600, Note_on_c, 0, 74, 92
2, 147720, Note_off_c, 0, 74, 64
2, 147720, Note_on_c, 0, 72, 92
2, 147840, Note_off_c, 0, 72, 64
2, 147840, Note_on_c, 0, 70, 92
2, 147960, Note_off_c, 0, 70, 64
2, 147960, Note_on_c, 0, 67, 92
2, 148080, Note_off_c, 0, 67, 64
2, 148080, Note_on_c, 0, 74, 92
2, 148440, Note_off_c, 0, 74, 64
2, 148440, Note_on_c, 0, 72, 92
2, 148560, Note_off_c, 0, 72, 64
2, 148560, Note_on_c, 0, 70, 92
2, 148680, Note_off_c, 0, 70, 64
2, 148680, Note_on_c, 0, 69, 92
2, 148800, Note_off_c, 0, 69, 64
2, 148800, Note_on_c, 0, 70, 92
2, 148920, Note_off_c, 0, 70, 64
2, 148920, Note_on_c, 0, 74, 92
2, 149040, Note_off_c, 0, 74, 64
2, 149040, Note_on_c, 0, 67, 92
2, 149400, Note_off_c, 0, 67, 64
2, 149400, Note_on_c, 0, 65, 92
2, 149520, Note_off_c, 0, 65, 64
2, 149520, Note_on_c, 0, 64, 92
2, 149640, Note_off_c, 0, 64, 64
2, 149640, Note_on_c, 0, 62, 92
2, 149760, Note_off_c, 0, 62, 64
2, 149760, Note_on_c, 0, 61, 92
2, 149880, Note_off_c, 0, 61, 64
2, 149880, Note_on_c, 0, 55, 92
2, 150000, Note_off_c, 0, 55, 64
2, 150000, Note_on_c, 0, 64, 92
2, 150360, Note_off_c, 0, 64, 64
2, 150360, Note_on_c, 0, 62, 92
2, 150480, Note_off_c, 0, 62, 64
2, 150480, Note_on_c, 0, 61, 92
2, 150600, Note_off_c, 0, 61, 64
2, 150600, Note_on_c, 0, 59, 92
2, 150720, Note_off_c, 0, 59, 64
2, 150720, Note_on_c, 0, 61, 92
2, 150840, Note_off_c, 0, 61, 64
2, 150840, Note_on_c, 0, 64, 92
2, 150960, Note_off_c, 0, 64, 64
2, 150960, Note_on_c, 0, 55, 92
2, 151320, Note_off_c, 0, 55, 64
2, 151320, Note_on_c, 0, 58, 92
2, 151440, Note_off_c, 0, 58, 64
2, 151440, Note_on_c, 0, 57, 92
2, 151560, Note_off_c, 0, 57, 64
2, 151560, Note_on_c, 0, 55, 92
2, 151680, Note_off_c, 0, 55, 64
2, 151680, Note_on_c, 0, 54, 92
2, 152280, Note_off_c, 0, 54, 64
2, 152280, Note_on_c, 0, 55, 92
2, 152400, Note_off_c, 0, 55, 64
2, 152400, Note_on_c, 0, 57, 92
2, 152520, Note_off_c, 0, 57, 64
2, 152520, Note_on_c, 0, 58, 92
2, 152640, Note_off_c, 0, 58, 64
2, 152640, Note_on_c, 0, 60, 92
2, 152760, Note_off_c, 0, 60, 64
2, 152760, Note_on_c, 0, 58, 92
2, 152880, Note_off_c, 0, 58, 64
2, 152880, Note_on_c, 0, 57, 92
2, 153000, Note_off_c, 0, 57, 64
2, 153000, Note_on_c, 0, 58, 92
2, 153120, Note_off_c, 0, 58, 64
2, 153120, Note_on_c, 0, 60, 92
2, 153240, Note_off_c, 0, 60, 64
2, 153240, Note_on_c, 0, 62, 92
2, 153360, Note_off_c, 0, 62, 64
2, 153360, Note_on_c, 0, 64, 92
2, 153480, Note_off_c, 0, 64, 64
2, 153480, Note_on_c, 0, 66, 92
2, 153600, Note_off_c, 0, 66, 64
2, 153600, Note_on_c, 0, 67, 92
2, 154080, Note_off_c, 0, 67, 64
2, 154080, Note_on_c, 0, 67, 92
2, 154560, Note_off_c, 0, 67, 64
2, 154560, Note_on_c, 0, 67, 92
2, 154800, Note_off_c, 0, 67, 64
2, 154800, Note_on_c, 0, 66, 92
2, 154920, Note_off_c, 0, 66, 64
2, 154920, Note_on_c, 0, 64, 92
2, 155040, Note_off_c, 0, 64, 64
2, 155040, Note_on_c, 0, 62, 92
2, 155280, Note_off_c, 0, 62, 64
2, 155280, Note_on_c, 0, 60, 92
2, 155520, Note_off_c, 0, 60, 64
2, 155520, Note_on_c, 0, 59, 92
2, 155760, Note_off_c, 0, 59, 64
2, 155760, Note_on_c, 0, 67, 92
2, 156000, Note_off_c, 0, 67, 64
2, 156000, Note_on_c, 0, 57, 92
2, 156240, Note_off_c, 0, 57, 64
2, 156240, Note_on_c, 0, 66, 92
2, 156480, Note_off_c, 0, 66, 64
2, 156480, Note_on_c, 0, 55, 92
2, 156720, Note_off_c, 0, 55, 64
2, 156720, Note_on_c, 0, 67, 92
2, 156840, Note_off_c, 0, 67, 64
2, 156840, Note_on_c, 0, 66, 92
2, 156960, Note_off_c, 0, 66, 64
2, 156960, Note_on_c, 0, 67, 92
2, 157080, Note_off_c, 0, 67, 64
2, 157080, Note_on_c, 0, 69, 92
2, 157200, Note_off_c, 0, 69, 64
2, 157200, Note_on_c, 0, 71, 92
2, 157320, Note_off_c, 0, 71, 64
2, 157320, Note_on_c, 0, 73, 92
2, 157440, Note_off_c, 0, 73, 64
2, 157440, Note_on_c, 0, 74, 92
2, 157920, Note_off_c, 0, 74, 64
2, 157920, Note_on_c, 0, 74, 92
2, 158400, Note_off_c, 0, 74, 64
2, 158400, Note_on_c, 0, 74, 92
2, 158640, Note_off_c, 0, 74, 64
2, 158640, Note_on_c, 0, 73, 92
2, 158760, Note_off_c, 0, 73, 64
2, 158760, Note_on_c, 0, 71, 92
2, 158880, Note_off_c, 0, 71, 64
2, 158880, Note_on_c, 0, 69, 92
2, 159000, Note_off_c, 0, 69, 64
2, 159000, Note_on_c, 0, 74, 92
2, 159120, Note_off_c, 0, 74, 64
2, 159120, Note_on_c, 0, 67, 92
2, 159240, Note_off_c, 0, 67, 64
2, 159240, Note_on_c, 0, 74, 92
2, 159360, Note_off_c, 0, 74, 64
2, 159360, Note_on_c, 0, 66, 92
2, 159480, Note_off_c, 0, 66, 64
2, 159480, Note_on_c, 0, 74, 92
2, 159600, Note_off_c, 0, 74, 64
2, 159600, Note_on_c, 0, 73, 92
2, 159720, Note_off_c, 0, 73, 64
2, 159720, Note_on_c, 0, 74, 92
2, 159840, Note_off_c, 0, 74, 64
2, 159840, Note_on_c, 0, 64, 92
2, 159960, Note_off_c, 0, 64, 64
2, 159960, Note_on_c, 0, 74, 92
2, 160080, Note_off_c, 0, 74, 64
2, 160080, Note_on_c, 0, 73, 92
2, 160200, Note_off_c, 0, 73, 64
2, 160200, Note_on_c, 0, 74, 92
2, 160320, Note_off_c, 0, 74, 64
2, 160320, Note_on_c, 0, 62, 92
2, 160800, Note_off_c, 0, 62, 64
2, 161040, Note_on_c, 0, 69, 92
2, 161160, Note_off_c, 0, 69, 64
2, 161160, Note_on_c, 0, 66, 92
2, 161280, Note_off_c, 0, 66, 64
2, 161280, Note_on_c, 0, 62, 92
2, 161520, Note_off_c, 0, 62, 64
2, 161520, Note_on_c, 0, 62, 92
2, 161760, Note_off_c, 0, 62, 64
2, 161760, Note_on_c, 0, 62, 92
2, 162000, Note_off_c, 0, 62, 64
2, 162000, Note_on_c, 0, 71, 92
2, 162120, Note_off_c, 0, 71, 64
2, 162120, Note_on_c, 0, 67, 92
2, 162240, Note_off_c, 0, 67, 64
2, 162240, Note_on_c, 0, 62, 92
2, 162480, Note_off_c, 0, 62, 64
2, 162480, Note_on_c, 0, 62, 92
2, 162720, Note_off_c, 0, 62, 64
2, 162720, Note_on_c, 0, 62, 92
2, 162960, Note_off_c, 0, 62, 64
2, 162960, Note_on_c, 0, 72, 92
2, 163080, Note_off_c, 0, 72, 64
2, 163080, Note_on_c, 0, 69, 92
2, 163200, Note_off_c, 0, 69, 64
2, 163200, Note_on_c, 0, 62, 92
2, 163440, Note_off_c, 0, 62, 64
2, 163440, Note_on_c, 0, 62, 92
2, 163680, Note_off_c, 0, 62, 64
2, 163680, Note_on_c, 0, 62, 92
2, 163920, Note_off_c, 0, 62, 64
2, 163920, Note_on_c, 0, 66, 92
2, 164040, Note_off_c, 0, 66, 64
2, 164040, Note_on_c, 0, 69, 92
2, 164160, Note_off_c, 0, 69, 64
2, 164160, Note_on_c, 0, 72, 92
2, 164400, Note_off_c, 0, 72, 64
2, 164400, Note_on_c, 0, 69, 92
2, 164520, Note_off_c, 0, 69, 64
2, 164520, Note_on_c, 0, 72, 92
2, 164640, Note_off_c, 0, 72, 64
2, 164640, Note_on_c, 0, 78, 92
2, 164880, Note_off_c, 0, 78, 64
2, 164880, Note_on_c, 0, 72, 92
2, 165000, Note_off_c, 0, 72, 64
2, 165000, Note_on_c, 0, 78, 92
2, 165120, Note_off_c, 0, 78, 64
2, 165120, Note_on_c, 0, 79, 92
2, 165360, Note_off_c, 0, 79, 64
2, 165360, Note_on_c, 0, 81, 92
2, 165600, Note_off_c, 0, 81, 64
2, 165600, Note_on_c, 0, 78, 92
2, 165840, Note_off_c, 0, 78, 64
2, 165840, Note_on_c, 0, 79, 92
2, 166080, Note_off_c, 0, 79, 64
2, 166320, Note_on_c, 0, 71, 92
2, 166440, Note_off_c, 0, 71, 64
2, 166440, Note_on_c, 0, 69, 92
2, 166560, Note_off_c, 0, 69, 64
2, 166560, Note_on_c, 0, 72, 92
2, 166680, Note_off_c, 0, 72, 64
2, 166680, Note_on_c, 0, 71, 92
2, 166800, Note_off_c, 0, 71, 64
2, 166800, Note_on_c, 0, 69, 92
2, 166920, Note_off_c, 0, 69, 64
2, 166920, Note_on_c, 0, 67, 92
2, 167040, Note_off_c, 0, 67, 64
2, 167040, Note_on_c, 0, 79, 92
2, 167280, Note_off_c, 0, 79, 64
2, 167280, Note_on_c, 0, 69, 92
2, 167520, Note_off_c, 0, 69, 64
2, 167520, Note_on_c, 0, 66, 92
2, 167760, Note_off_c, 0, 66, 64
2, 167760, Note_on_c, 0, 67, 92
2, 168000, Note_off_c, 0, 67, 64
2, 168000, Note_on_c, 0, 77, 92
2, 168240, Note_off_c, 0, 77, 64
2, 168240, Note_on_c, 0, 77, 92
2, 168480, Note_off_c, 0, 77, 64
2, 168480, Note_on_c, 0, 77, 92
2, 168720, Note_off_c, 0, 77, 64
2, 168720, Note_on_c, 0, 71, 92
2, 168960, Note_off_c, 0, 71, 64
2, 168960, Note_on_c, 0, 76, 92
2, 169200, Note_off_c, 0, 76, 64
2, 169200, Note_on_c, 0, 81, 92
2, 169440, Note_off_c, 0, 81, 64
2, 169440, Note_on_c, 0, 78, 92
2, 169680, Note_off_c, 0, 78, 64
2, 169680, Note_on_c, 0, 79, 92
2, 169920, Note_off_c, 0, 79, 64
2, 169920, Note_on_c, 0, 69, 92
2, 170160, Note_off_c, 0, 69, 64
2, 170160, Note_on_c, 0, 71, 92
2, 170280, Note_off_c, 0, 71, 64
2, 170280, Note_on_c, 0, 72, 92
2, 170400, Note_off_c, 0, 72, 64
2, 170400, Note_on_c, 0, 74, 92
2, 170640, Note_off_c, 0, 74, 64
2, 170640, Note_on_c, 0, 72, 92
2, 170880, Note_off_c, 0, 72, 64
2, 170880, Note_on_c, 0, 71, 92
2, 171360, Note_off_c, 0, 71, 64
2, 171360, Note_on_c, 0, 69, 92
2, 171390, Note_off_c, 0, 69, 64
2, 171390, Note_on_c, 0, 71, 92
2, 171420, Note_off_c, 0, 71, 64
2, 171420, Note_on_c, 0, 69, 92
2, 171840, Note_off_c, 0, 69, 64
2, 171840, Note_on_c, 0, 67, 92
2, 172800, Note_off_c, 0, 67, 64
2, 174002, Note_on_c, 0, 71, 92
2, 174242, Note_on_c, 0, 76, 92
2, 174245, Note_off_c, 0, 71, 64
2, 174272, Note_on_c, 0, 78, 92
2, 174275, Note_off_c, 0, 76, 64
2, 174302, Note_on_c, 0, 79, 92
2, 174305, Note_off_c, 0, 78, 64
2, 174602, Note_on_c, 0, 78, 92
2, 174605, Note_off_c, 0, 79, 64
2, 174722, Note_on_c, 0, 76, 92
2, 174725, Note_off_c, 0, 78, 64
2, 174962, Note_on_c, 0, 76, 92
2, 174965, Note_off_c, 0, 76, 64
2, 175082, Note_on_c, 0, 75, 92
2, 175085, Note_off_c, 0, 76, 64
2, 175202, Note_on_c, 0, 76, 92
2, 175205, Note_off_c, 0, 75, 64
2, 175445, Note_off_c, 0, 76, 64
2, 175682, Note_on_c, 0, 69, 92
2, 175802, Note_on_c, 0, 68, 92
2, 175805, Note_off_c, 0, 69, 64
2, 176042, Note_on_c, 0, 69, 92
2, 176045, Note_off_c, 0, 68, 64
2, 176102, Note_on_c, 0, 71, 92
2, 176105, Note_off_c, 0, 69, 64
2, 176162, Note_on_c, 0, 69, 92
2, 176165, Note_off_c, 0, 71, 64
2, 176222, Note_on_c, 0, 68, 92
2, 176225, Note_off_c, 0, 69, 64
2, 176282, Note_on_c, 0, 66, 92
2, 176285, Note_off_c, 0, 68, 64
2, 176342, Note_on_c, 0, 64, 92
2, 176345, Note_off_c, 0, 66, 64
2, 176402, Note_on_c, 0, 74, 92
2, 176405, Note_off_c, 0, 64, 64
2, 176462, Note_on_c, 0, 73, 92
2, 176465, Note_off_c, 0, 74, 64
2, 176522, Note_on_c, 0, 71, 92
2, 176525, Note_off_c, 0, 73, 64
2, 176642, Note_on_c, 0, 73, 92
2, 176645, Note_off_c, 0, 71, 64
2, 176885, Note_off_c, 0, 73, 64
2, 177122, Note_on_c, 0, 74, 92
2, 177152, Note_on_c, 0, 72, 92
2, 177155, Note_off_c, 0, 74, 64
2, 177182, Note_on_c, 0, 71, 92
2, 177185, Note_off_c, 0, 72, 64
2, 177242, Note_on_c, 0, 72, 92
2, 177245, Note_off_c, 0, 71, 64
2, 177482, Note_on_c, 0, 75, 92
2, 177485, Note_off_c, 0, 72, 64
2, 177722, Note_on_c, 0, 78, 92
2, 177725, Note_off_c, 0, 75, 64
2, 177842, Note_on_c, 0, 81, 92
2, 177845, Note_off_c, 0, 78, 64
2, 177962, Note_on_c, 0, 72, 92
2, 177965, Note_off_c, 0, 81, 64
2, 178082, Note_on_c, 0, 72, 92
2, 178085, Note_off_c, 0, 72, 64
2, 178202, Note_on_c, 0, 71, 92
2, 178205, Note_off_c, 0, 72, 64
2, 178442, Note_on_c, 0, 70, 92
2, 178445, Note_off_c, 0, 71, 64
2, 178562, Note_on_c, 0, 71, 92
2, 178565, Note_off_c, 0, 70, 64
2, 178622, Note_on_c, 0, 75, 92
2, 178625, Note_off_c, 0, 71, 64
2, 178682, Note_on_c, 0, 76, 92
2, 178685, Note_off_c, 0, 75, 64
2, 178802, Note_on_c, 0, 64, 92
2, 178805, Note_off_c, 0, 76, 64
2, 178922, Note_on_c, 0, 69, 92
2, 178925, Note_off_c, 0, 64, 64
2, 179162, Note_on_c, 0, 67, 92
2, 179165, Note_off_c, 0, 69, 64
2, 179222, Note_on_c, 0, 66, 92
2, 179225, Note_off_c, 0, 67, 64
2, 179282, Note_on_c, 0, 67, 92
2, 179285, Note_off_c, 0, 66, 64
2, 179402, Note_on_c, 0, 79, 92
2, 179405, Note_off_c, 0, 67, 64
2, 179522, Note_on_c, 0, 78, 92
2, 179525, Note_off_c, 0, 79, 64
2, 179642, Note_on_c, 0, 71, 92
2, 179645, Note_off_c, 0, 78, 64
2, 179882, Note_on_c, 0, 70, 92
2, 179885, Note_off_c, 0, 71, 64
2, 180002, Note_on_c, 0, 71, 92
2, 180005, Note_off_c, 0, 70, 64
2, 180062, Note_on_c, 0, 69, 92
2, 180065, Note_off_c, 0, 71, 64
2, 180122, Note_on_c, 0, 67, 92
2, 180125, Note_off_c, 0, 69, 64
2, 180242, Note_on_c, 0, 66, 92
2, 180245, Note_off_c, 0, 67, 64
2, 181082, Note_on_c, 0, 78, 92
2, 181085, Note_off_c, 0, 66, 64
2, 181202, Note_on_c, 0, 76, 92
2, 181205, Note_off_c, 0, 78, 64
2, 181262, Note_on_c, 0, 75, 92
2, 181265, Note_off_c, 0, 76, 64
2, 181322, Note_on_c, 0, 73, 92
2, 181325, Note_off_c, 0, 75, 64
2, 181382, Note_on_c, 0, 75, 92
2, 181385, Note_off_c, 0, 73, 64
2, 181442, Note_on_c, 0, 81, 92
2, 181445, Note_off_c, 0, 75, 64
2, 181562, Note_on_c, 0, 72, 92
2, 181565, Note_off_c, 0, 81, 64
2, 181682, Note_on_c, 0, 71, 92
2, 181685, Note_off_c, 0, 72, 64
2, 181925, Note_off_c, 0, 71, 64
2, 182042, Note_on_c, 0, 79, 92
2, 182162, Note_on_c, 0, 78, 92
2, 182165, Note_off_c, 0, 79, 64
2, 182222, Note_on_c, 0, 76, 92
2, 182225, Note_off_c, 0, 78, 64
2, 182282, Note_on_c, 0, 75, 92
2, 182285, Note_off_c, 0, 76, 64
2, 182402, Note_on_c, 0, 76, 92
2, 182405, Note_off_c, 0, 75, 64
2, 182522, Note_on_c, 0, 74, 92
2, 182525, Note_off_c, 0, 76, 64
2, 182582, Note_on_c, 0, 73, 92
2, 182585, Note_off_c, 0, 74, 64
2, 182642, Note_on_c, 0, 71, 92
2, 182645, Note_off_c, 0, 73, 64
2, 182702, Note_on_c, 0, 70, 92
2, 182705, Note_off_c, 0, 71, 64
2, 182762, Note_on_c, 0, 71, 92
2, 182765, Note_off_c, 0, 70, 64
2, 182882, Note_on_c, 0, 64, 92
2, 182885, Note_off_c, 0, 71, 64
2, 183002, Note_on_c, 0, 71, 92
2, 183005, Note_off_c, 0, 64, 64
2, 183122, Note_on_c, 0, 70, 92
2, 183125, Note_off_c, 0, 71, 64
2, 183365, Note_off_c, 0, 70, 64
2, 183602, Note_on_c, 0, 73, 92
2, 183722, Note_on_c, 0, 64, 92
2, 183725, Note_off_c, 0, 73, 64
2, 183842, Note_on_c, 0, 62, 92
2, 183845, Note_off_c, 0, 64, 64
2, 183962, Note_on_c, 0, 66, 92
2, 183965, Note_off_c, 0, 62, 64
2, 184082, Note_on_c, 0, 70, 92
2, 184085, Note_off_c, 0, 66, 64
2, 184325, Note_off_c, 0, 70, 64
2, 184442, Note_on_c, 0, 78, 92
2, 184562, Note_on_c, 0, 79, 92
2, 184565, Note_off_c, 0, 78, 64
2, 184682, Note_on_c, 0, 76, 92
2, 184685, Note_off_c, 0, 79, 64
2, 184802, Note_on_c, 0, 73, 92
2, 184805, Note_off_c, 0, 76, 64
2, 184922, Note_on_c, 0, 82, 92
2, 184925, Note_off_c, 0, 73, 64
2, 185042, Note_on_c, 0, 83, 92
2, 185045, Note_off_c, 0, 82, 64
2, 185162, Note_on_c, 0, 71, 92
2, 185165, Note_off_c, 0, 83, 64
2, 185402, Note_on_c, 0, 69, 92
2, 185405, Note_off_c, 0, 71, 64
2, 185582, Note_on_c, 0, 68, 92
2, 185585, Note_off_c, 0, 69, 64
2, 185642, Note_on_c, 0, 69, 92
2, 185645, Note_off_c, 0, 68, 64
2, 185762, Note_on_c, 0, 68, 92
2, 185765, Note_off_c, 0, 69, 64
2, 185822, Note_on_c, 0, 69, 92
2, 185825, Note_off_c, 0, 68, 64
2, 185882, Note_on_c, 0, 71, 92
2, 185885, Note_off_c, 0, 69, 64
2, 186005, Note_off_c, 0, 71, 64
2, 186242, Note_on_c, 0, 83, 92
2, 186602, Note_on_c, 0, 81, 92
2, 186605, Note_off_c, 0, 83, 64
2, 186842, Note_on_c, 0, 79, 92
2, 186845, Note_off_c, 0, 81, 64
2, 187022, Note_on_c, 0, 78, 92
2, 187025, Note_off_c, 0, 79, 64
2, 187082, Note_on_c, 0, 76, 92
2, 187085, Note_off_c, 0, 78, 64
2, 187202, Note_on_c, 0, 78, 92
2, 187205, Note_off_c, 0, 76, 64
2, 187262, Note_on_c, 0, 79, 92
2, 187265, Note_off_c, 0, 78, 64
2, 187322, Note_on_c, 0, 81, 92
2, 187325, Note_off_c, 0, 79, 64
2, 187445, Note_off_c, 0, 81, 64
2, 187682, Note_on_c, 0, 69, 92
2, 188042, Note_on_c, 0, 67, 92
2, 188045, Note_off_c, 0, 69, 64
2, 188282, Note_on_c, 0, 66, 92
2, 188285, Note_off_c, 0, 67, 64
2, 188462, Note_on_c, 0, 64, 92
2, 188465, Note_off_c, 0, 66, 64
2, 188522, Note_on_c, 0, 62, 92
2, 188525, Note_off_c, 0, 64, 64
2, 188642, Note_on_c, 0, 64, 92
2, 188645, Note_off_c, 0, 62, 64
2, 188882, Note_on_c, 0, 69, 92
2, 188885, Note_off_c, 0, 64, 64
2, 188912, Note_on_c, 0, 67, 92
2, 188915, Note_off_c, 0, 69, 64
2, 188942, Note_on_c, 0, 69, 92
2, 188945, Note_off_c, 0, 67, 64
2, 189422, Note_on_c, 0, 67, 92
2, 189425, Note_off_c, 0, 69, 64
2, 189482, Note_on_c, 0, 66, 92
2, 189485, Note_off_c, 0, 67, 64
2, 189602, Note_on_c, 0, 67, 92
2, 189605, Note_off_c, 0, 66, 64
2, 189842, Note_on_c, 0, 81, 92
2, 189845, Note_off_c, 0, 67, 64
2, 190142, Note_on_c, 0, 79, 92
2, 190145, Note_off_c, 0, 81, 64
2, 190202, Note_on_c, 0, 78, 92
2, 190205, Note_off_c, 0, 79, 64
2, 190322, Note_on_c, 0, 79, 92
2, 190325, Note_off_c, 0, 78, 64
2, 191162, Note_on_c, 0, 78, 92
2, 191165, Note_off_c, 0, 79, 64
2, 191222, Note_on_c, 0, 76, 92
2, 191225, Note_off_c, 0, 78, 64
2, 191282, Note_on_c, 0, 74, 92
2, 191285, Note_off_c, 0, 76, 64
2, 191342, Note_on_c, 0, 73, 92
2, 191345, Note_off_c, 0, 74, 64
2, 191402, Note_on_c, 0, 71, 92
2, 191405, Note_off_c, 0, 73, 64
2, 191522, Note_on_c, 0, 70, 92
2, 191525, Note_off_c, 0, 71, 64
2, 191762, Note_on_c, 0, 71, 92
2, 191765, Note_off_c, 0, 70, 64
2, 191792, Note_on_c, 0, 70, 92
2, 191795, Note_off_c, 0, 71, 64
2, 191822, Note_on_c, 0, 71, 92
2, 191825, Note_off_c, 0, 70, 64
2, 192002, Note_on_c, 0, 83, 92
2, 192005, Note_off_c, 0, 71, 64
2, 192302, Note_on_c, 0, 82, 92
2, 192305, Note_off_c, 0, 83, 64
2, 192362, Note_on_c, 0, 80, 92
2, 192365, Note_off_c, 0, 82, 64
2, 192482, Note_on_c, 0, 82, 92
2, 192485, Note_off_c, 0, 80, 64
2, 192722, Note_on_c, 0, 81, 92
2, 192725, Note_off_c, 0, 82, 64
2, 193022, Note_on_c, 0, 80, 92
2, 193025, Note_off_c, 0, 81, 64
2, 193082, Note_on_c, 0, 78, 92
2, 193085, Note_off_c, 0, 80, 64
2, 193202, Note_on_c, 0, 80, 92
2, 193205, Note_off_c, 0, 78, 64
2, 193442, Note_on_c, 0, 79, 92
2, 193445, Note_off_c, 0, 80, 64
2, 193742, Note_on_c, 0, 78, 92
2, 193745, Note_off_c, 0, 79, 64
2, 193802, Note_on_c, 0, 77, 92
2, 193805, Note_off_c, 0, 78, 64
2, 193922, Note_on_c, 0, 78, 92
2, 193925, Note_off_c, 0, 77, 64
2, 194162, Note_on_c, 0, 77, 92
2, 194165, Note_off_c, 0, 78, 64
2, 194462, Note_on_c, 0, 76, 92
2, 194465, Note_off_c, 0, 77, 64
2, 194522, Note_on_c, 0, 75, 92
2, 194525, Note_off_c, 0, 76, 64
2, 194642, Note_on_c, 0, 76, 92
2, 194645, Note_off_c, 0, 75, 64
2, 194882, Note_on_c, 0, 64, 92
2, 194885, Note_off_c, 0, 76, 64
2, 195182, Note_on_c, 0, 62, 92
2, 195185, Note_off_c, 0, 64, 64
2, 195242, Note_on_c, 0, 61, 92
2, 195245, Note_off_c, 0, 62, 64
2, 195362, Note_on_c, 0, 62, 92
2, 195365, Note_off_c, 0, 61, 64
2, 195602, Note_on_c, 0, 74, 92
2, 195605, Note_off_c, 0, 62, 64
2, 195902, Note_on_c, 0, 73, 92
2, 195905, Note_off_c, 0, 74, 64
2, 195962, Note_on_c, 0, 71, 92
2, 195965, Note_off_c, 0, 73, 64
2, 196082, Note_on_c, 0, 73, 92
2, 196085, Note_off_c, 0, 71, 64
2, 196322, Note_on_c, 0, 70, 92
2, 196325, Note_off_c, 0, 73, 64
2, 196352, Note_on_c, 0, 71, 92
2, 196355, Note_off_c, 0, 70, 64
2, 196382, Note_on_c, 0, 70, 92
2, 196385, Note_off_c, 0, 71, 64
2, 196562, Note_on_c, 0, 71, 92
2, 196565, Note_off_c, 0, 70, 64
2, 197042, Note_on_c, 0, 71, 92
2, 197045, Note_off_c, 0, 71, 64
2, 197282, Note_on_c, 0, 76, 92
2, 197285, Note_off_c, 0, 71, 64
2, 197312, Note_on_c, 0, 78, 92
2, 197315, Note_off_c, 0, 76, 64
2, 197342, Note_on_c, 0, 79, 92
2, 197345, Note_off_c, 0, 78, 64
2, 197642, Note_on_c, 0, 78, 92
2, 197645, Note_off_c, 0, 79, 64
2, 197762, Note_on_c, 0, 76, 92
2, 197765, Note_off_c, 0, 78, 64
2, 198002, Note_on_c, 0, 76, 92
2, 198005, Note_off_c, 0, 76, 64
2, 198122, Note_on_c, 0, 75, 92
2, 198125, Note_off_c, 0, 76, 64
2, 198242, Note_on_c, 0, 76, 92
2, 198245, Note_off_c, 0, 75, 64
2, 198485, Note_off_c, 0, 76, 64
2, 198722, Note_on_c, 0, 69, 92
2, 198842, Note_on_c, 0, 68, 92
2, 198845, Note_off_c, 0, 69, 64
2, 199082, Note_on_c, 0, 69, 92
2, 199085, Note_off_c, 0, 68, 64
2, 199142, Note_on_c, 0, 71, 92
2, 199145, Note_off_c, 0, 69, 64
2, 199202, Note_on_c, 0, 69, 92
2, 199205, Note_off_c, 0, 71, 64
2, 199262, Note_on_c, 0, 68, 92
2, 199265, Note_off_c, 0, 69, 64
2, 199322, Note_on_c, 0, 66, 92
2, 199325, Note_off_c, 0, 68, 64
2, 199382, Note_on_c, 0, 64, 92
2, 199385, Note_off_c, 0, 66, 64
2, 199442, Note_on_c, 0, 74, 92
2, 199445, Note_off_c, 0, 64, 64
2, 199502, Note_on_c, 0, 73, 92
2, 199505, Note_off_c, 0, 74, 64
2, 199562, Note_on_c, 0, 71, 92
2, 199565, Note_off_c, 0, 73, 64
2, 199682, Note_on_c, 0, 73, 92
2, 199685, Note_off_c, 0, 71, 64
2, 199925, Note_off_c, 0, 73, 64
2, 200162, Note_on_c, 0, 74, 92
2, 200192, Note_on_c, 0, 72, 92
2, 200195, Note_off_c, 0, 74, 64
2, 200222, Note_on_c, 0, 71, 92
2, 200225, Note_off_c, 0, 72, 64
2, 200282, Note_on_c, 0, 72, 92
2, 200285, Note_off_c, 0, 71, 64
2, 200522, Note_on_c, 0, 75, 92
2, 200525, Note_off_c, 0, 72, 64
2, 200762, Note_on_c, 0, 78, 92
2, 200765, Note_off_c, 0, 75, 64
2, 200882, Note_on_c, 0, 81, 92
2, 200885, Note_off_c, 0, 78, 64
2, 201002, Note_on_c, 0, 72, 92
2, 201005, Note_off_c, 0, 81, 64
2, 201122, Note_on_c, 0, 72, 92
2, 201125, Note_off_c, 0, 72, 64
2, 201242, Note_on_c, 0, 71, 92
2, 201245, Note_off_c, 0, 72, 64
2, 201482, Note_on_c, 0, 70, 92
2, 201485, Note_off_c, 0, 71, 64
2, 201602, Note_on_c, 0, 71, 92
2, 201605, Note_off_c, 0, 70, 64
2, 201662, Note_on_c, 0, 75, 92
2, 201665, Note_off_c, 0, 71, 64
2, 201722, Note_on_c, 0, 76, 92
2, 201725, Note_off_c, 0, 75, 64
2, 201842, Note_on_c, 0, 64, 92
2, 201845, Note_off_c, 0, 76, 64
2, 201962, Note_on_c, 0, 69, 92
2, 201965, Note_off_c, 0, 64, 64
2, 202202, Note_on_c, 0, 67, 92
2, 202205, Note_off_c, 0, 69, 64
2, 202262, Note_on_c, 0, 66, 92
2, 202265, Note_off_c, 0, 67, 64
2, 202322, Note_on_c, 0, 67, 92
2, 202325, Note_off_c, 0, 66, 64
2, 202442, Note_on_c, 0, 79, 92
2, 202445, Note_off_c, 0, 67, 64
2, 202562, Note_on_c, 0, 78, 92
2, 202565, Note_off_c, 0, 79, 64
2, 202682, Note_on_c, 0, 71, 92
2, 202685, Note_off_c, 0, 78, 64
2, 202922, Note_on_c, 0, 70, 92
2, 202925, Note_off_c, 0, 71, 64
2, 203042, Note_on_c, 0, 71, 92
2, 203045, Note_off_c, 0, 70, 64
2, 203102, Note_on_c, 0, 69, 92
2, 203105, Note_off_c, 0, 71, 64
2, 203162, Note_on_c, 0, 67, 92
2, 203165, Note_off_c, 0, 69, 64
2, 203282, Note_on_c, 0, 66, 92
2, 203285, Note_off_c, 0, 67, 64
2, 204122, Note_on_c, 0, 78, 92
2, 204125, Note_off_c, 0, 66, 64
2, 204242, Note_on_c, 0, 76, 92
2, 204245, Note_off_c, 0, 78, 64
2, 204302, Note_on_c, 0, 75, 92
2, 204305, Note_off_c, 0, 76, 64
2, 204362, Note_on_c, 0, 73, 92
2, 204365, Note_off_c, 0, 75, 64
2, 204422, Note_on_c, 0, 75, 92
2, 204425, Note_off_c, 0, 73, 64
2, 204482, Note_on_c, 0, 81, 92
2, 204485, Note_off_c, 0, 75, 64
2, 204602, Note_on_c, 0, 72, 92
2, 204605, Note_off_c, 0, 81, 64
2, 204722, Note_on_c, 0, 71, 92
2, 204725, Note_off_c, 0, 72, 64
2, 204965, Note_off_c, 0, 71, 64
2, 205082, Note_on_c, 0, 79, 92
2, 205202, Note_on_c, 0, 78, 92
2, 205205, Note_off_c, 0, 79, 64
2, 205262, Note_on_c, 0, 76, 92
2, 205265, Note_off_c, 0, 78, 64
2, 205322, Note_on_c, 0, 75, 92
2, 205325, Note_off_c, 0, 76, 64
2, 205442, Note_on_c, 0, 76, 92
2, 205445, Note_off_c, 0, 75, 64
2, 205562, Note_on_c, 0, 74, 92
2, 205565, Note_off_c, 0, 76, 64
2, 205622, Note_on_c, 0, 73, 92
2, 205625, Note_off_c, 0, 74, 64
2, 205682, Note_on_c, 0, 71, 92
2, 205685, Note_off_c, 0, 73, 64
2, 205742, Note_on_c, 0, 70, 92
2, 205745, Note_off_c, 0, 71, 64
2, 205802, Note_on_c, 0, 71, 92
2, 205805, Note_off_c, 0, 70, 64
2, 205922, Note_on_c, 0, 64, 92
2, 205925, Note_off_c, 0, 71, 64
2, 206042, Note_on_c, 0, 71, 92
2, 206045, Note_off_c, 0, 64, 64
2, 206162, Note_on_c, 0, 70, 92
2, 206165, Note_off_c, 0, 71, 64
2, 206405, Note_off_c, 0, 70, 64
2, 206642, Note_on_c, 0, 73, 92
2, 206762, Note_on_c, 0, 64, 92
2, 206765, Note_off_c, 0, 73, 64
2, 206882, Note_on_c, 0, 62, 92
2, 206885, Note_off_c, 0, 64, 64
2, 207002, Note_on_c, 0, 66, 92
2, 207005, Note_off_c, 0, 62, 64
2, 207122, Note_on_c, 0, 70, 92
2, 207125, Note_off_c, 0, 66, 64
2, 207365, Note_off_c, 0, 70, 64
2, 207482, Note_on_c, 0, 78, 92
2, 207602, Note_on_c, 0, 79, 92
2, 207605, Note_off_c, 0, 78, 64
2, 207722, Note_on_c, 0, 76, 92
2, 207725, Note_off_c, 0, 79, 64
2, 207842, Note_on_c, 0, 73, 92
2, 207845, Note_off_c, 0, 76, 64
2, 207962, Note_on_c, 0, 82, 92
2, 207965, Note_off_c, 0, 73, 64
2, 208082, Note_on_c, 0, 83, 92
2, 208085, Note_off_c, 0, 82, 64
2, 208202, Note_on_c, 0, 71, 92
2, 208205, Note_off_c, 0, 83, 64
2, 208442, Note_on_c, 0, 69, 92
2, 208445, Note_off_c, 0, 71, 64
2, 208622, Note_on_c, 0, 68, 92
2, 208625, Note_off_c, 0, 69, 64
2, 208682, Note_on_c, 0, 69, 92
2, 208685, Note_off_c, 0, 68, 64
2, 208802, Note_on_c, 0, 68, 92
2, 208805, Note_off_c, 0, 69, 64
2, 208862, Note_on_c, 0, 69, 92
2, 208865, Note_off_c, 0, 68, 64
2, 208922, Note_on_c, 0, 71, 92
2, 208925, Note_off_c, 0, 69, 64
2, 209045, Note_off_c, 0, 71, 64
2, 209282, Note_on_c, 0, 83, 92
2, 209642, Note_on_c, 0, 81, 92
2, 209645, Note_off_c, 0, 83, 64
2, 209882, Note_on_c, 0, 79, 92
2, 209885, Note_off_c, 0, 81, 64
2, 210062, Note_on_c, 0, 78, 92
2, 210065, Note_off_c, 0, 79, 64
2, 210122, Note_on_c, 0, 76, 92
2, 210125, Note_off_c, 0, 78, 64
2, 210242, Note_on_c, 0, 78, 92
2, 210245, Note_off_c, 0, 76, 64
2, 210302, Note_on_c, 0, 79, 92
2, 210305, Note_off_c, 0, 78, 64
2, 210362, Note_on_c, 0, 81, 92
2, 210365, Note_off_c, 0, 79, 64
2, 210485, Note_off_c, 0, 81, 64
2, 210722, Note_on_c, 0, 69, 92
2, 211082, Note_on_c, 0, 67, 92
2, 211085, Note_off_c, 0, 69, 64
2, 211322, Note_on_c, 0, 66, 92
2, 211325, Note_off_c, 0, 67, 64
2, 211502, Note_on_c, 0, 64, 92
2, 211505, Note_off_c, 0, 66, 64
2, 211562, Note_on_c, 0, 62, 92
2, 211565, Note_off_c, 0, 64, 64
2, 211682, Note_on_c, 0, 64, 92
2, 211685, Note_off_c, 0, 62, 64
2, 211922, Note_on_c, 0, 69, 92
2, 211925, Note_off_c, 0, 64, 64
2, 211952, Note_on_c, 0, 67, 92
2, 211955, Note_off_c, 0, 69, 64
2, 211982, Note_on_c, 0, 69, 92
2, 211985, Note_off_c, 0, 67, 64
2, 212462, Note_on_c, 0, 67, 92
2, 212465, Note_off_c, 0, 69, 64
2, 212522, Note_on_c, 0, 66, 92
2, 212525, Note_off_c, 0, 67, 64
2, 212642, Note_on_c, 0, 67, 92
2, 212645, Note_off_c, 0, 66, 64
2, 212882, Note_on_c, 0, 81, 92
2, 212885, Note_off_c, 0, 67, 64
2, 213182, Note_on_c, 0, 79, 92
2, 213185, Note_off_c, 0, 81, 64
2, 213242, Note_on_c, 0, 78, 92
2, 213245, Note_off_c, 0, 79, 64
2, 213362, Note_on_c, 0, 79, 92
2, 213365, Note_off_c, 0, 78, 64
2, 214202, Note_on_c, 0, 78, 92
2, 214205, Note_off_c, 0, 79, 64
2, 214262, Note_on_c, 0, 76, 92
2, 214265, Note_off_c, 0, 78, 64
2, 214322, Note_on_c, 0, 74, 92
2, 214325, Note_off_c, 0, 76, 64
2, 214382, Note_on_c, 0, 73, 92
2, 214385, Note_off_c, 0, 74, 64
2, 214442, Note_on_c, 0, 71, 92
2, 214445, Note_off_c, 0, 73, 64
2, 214562, Note_on_c, 0, 70, 92
2, 214565, Note_off_c, 0, 71, 64
2, 214802, Note_on_c, 0, 71, 92
2, 214805, Note_off_c, 0, 70, 64
2, 214832, Note_on_c, 0, 70, 92
2, 214835, Note_off_c, 0, 71, 64
2, 214862, Note_on_c, 0, 71, 92
2, 214865, Note_off_c, 0, 70, 64
2, 215042, Note_on_c, 0, 83, 92
2, 215045, Note_off_c, 0, 71, 64
2, 215342, Note_on_c, 0, 82, 92
2, 215345, Note_off_c, 0, 83, 64
2, 215402, Note_on_c, 0, 80, 92
2, 215405, Note_off_c, 0, 82, 64
2, 215522, Note_on_c, 0, 82, 92
2, 215525, Note_off_c, 0, 80, 64
2, 215762, Note_on_c, 0, 81, 92
2, 215765, Note_off_c, 0, 82, 64
2, 216062, Note_on_c, 0, 80, 92
2, 216065, Note_off_c, 0, 81, 64
2, 216122, Note_on_c, 0, 78, 92
2, 216125, Note_off_c, 0, 80, 64
2, 216242, Note_on_c, 0, 80, 92
2, 216245, Note_off_c, 0, 78, 64
2, 216482, Note_on_c, 0, 79, 92
2, 216485, Note_off_c, 0, 80, 64
2, 216782, Note_on_c, 0, 78, 92
2, 216785, Note_off_c, 0, 79, 64
2, 216842, Note_on_c, 0, 77, 92
2, 216845, Note_off_c, 0, 78, 64
2, 216962, Note_on_c, 0, 78, 92
2, 216965, Note_off_c, 0, 77, 64
2, 217202, Note_on_c, 0, 77, 92
2, 217205, Note_off_c, 0, 78, 64
2, 217502, Note_on_c, 0, 76, 92
2, 217505, Note_off_c, 0, 77, 64
2, 217562, Note_on_c, 0, 75, 92
2, 217565, Note_off_c, 0, 76, 64
2, 217682, Note_on_c, 0, 76, 92
2, 217685, Note_off_c, 0, 75, 64
2, 217922, Note_on_c, 0, 64, 92
2, 217925, Note_off_c, 0, 76, 64
2, 218222, Note_on_c, 0, 62, 92
2, 218225, Note_off_c, 0, 64, 64
2, 218282, Note_on_c, 0, 61, 92
2, 218285, Note_off_c, 0, 62, 64
2, 218402, Note_on_c, 0, 62, 92
2, 218405, Note_off_c, 0, 61, 64
2, 218642, Note_on_c, 0, 74, 92
2, 218645, Note_off_c, 0, 62, 64
2, 218942, Note_on_c, 0, 73, 92
2, 218945, Note_off_c, 0, 74, 64
2, 219002, Note_on_c, 0, 71, 92
2, 219005, Note_off_c, 0, 73, 64
2, 219122, Note_on_c, 0, 73, 92
2, 219125, Note_off_c, 0, 71, 64
2, 219362, Note_on_c, 0, 70, 92
2, 219365, Note_off_c, 0, 73, 64
2, 219392, Note_on_c, 0, 71, 92
2, 219395, Note_off_c, 0, 70, 64
2, 219422, Note_on_c, 0, 70, 92
2, 219425, Note_off_c, 0, 71, 64
2, 219602, Note_on_c, 0, 71, 92
2, 219605, Note_off_c, 0, 70, 64
2, 220085, Note_off_c, 0, 71, 64
2, 222962, Note_on_c, 0, 71, 92
2, 223202, Note_on_c, 0, 69, 92
2, 223205, Note_off_c, 0, 71, 64
2, 223322, Note_on_c, 0, 68, 92
2, 223325, Note_off_c, 0, 69, 64
2, 223562, Note_on_c, 0, 64, 92
2, 223565, Note_off_c, 0, 68, 64
2, 223622, Note_on_c, 0, 66, 92
2, 223625, Note_off_c, 0, 64, 64
2, 223682, Note_on_c, 0, 68, 92
2, 223685, Note_off_c, 0, 66, 64
2, 223742, Note_on_c, 0, 69, 92
2, 223745, Note_off_c, 0, 68, 64
2, 223802, Note_on_c, 0, 71, 92
2, 223805, Note_off_c, 0, 69, 64
2, 223922, Note_on_c, 0, 74, 92
2, 223925, Note_off_c, 0, 71, 64
2, 224282, Note_on_c, 0, 68, 92
2, 224285, Note_off_c, 0, 74, 64
2, 224342, Note_on_c, 0, 69, 92
2, 224345, Note_off_c, 0, 68, 64
2, 224402, Note_on_c, 0, 71, 92
2, 224405, Note_off_c, 0, 69, 64
2, 224462, Note_on_c, 0, 72, 92
2, 224465, Note_off_c, 0, 71, 64
2, 224522, Note_on_c, 0, 74, 92
2, 224525, Note_off_c, 0, 72, 64
2, 224642, Note_on_c, 0, 78, 92
2, 224645, Note_off_c, 0, 74, 64
2, 224762, Note_on_c, 0, 76, 92
2, 224765, Note_off_c, 0, 78, 64
2, 225002, Note_on_c, 0, 74, 92
2, 225005, Note_off_c, 0, 76, 64
2, 225062, Note_on_c, 0, 72, 92
2, 225065, Note_off_c, 0, 74, 64
2, 225122, Note_on_c, 0, 71, 92
2, 225125, Note_off_c, 0, 72, 64
2, 225182, Note_on_c, 0, 72, 92
2, 225185, Note_off_c, 0, 71, 64
2, 225242, Note_on_c, 0, 74, 92
2, 225245, Note_off_c, 0, 72, 64
2, 225482, Note_on_c, 0, 72, 92
2, 225485, Note_off_c, 0, 74, 64
2, 225722, Note_on_c, 0, 71, 92
2, 225725, Note_off_c, 0, 72, 64
2, 225782, Note_on_c, 0, 69, 92
2, 225785, Note_off_c, 0, 71, 64
2, 225842, Note_on_c, 0, 68, 92
2, 225845, Note_off_c, 0, 69, 64
2, 225902, Note_on_c, 0, 69, 92
2, 225905, Note_off_c, 0, 68, 64
2, 225962, Note_on_c, 0, 71, 92
2, 225965, Note_off_c, 0, 69, 64
2, 226082, Note_on_c, 0, 69, 92
2, 226085, Note_off_c, 0, 71, 64
2, 226325, Note_off_c, 0, 69, 64
2, 226562, Note_on_c, 0, 76, 92
2, 226862, Note_on_c, 0, 70, 92
2, 226865, Note_off_c, 0, 76, 64
2, 226922, Note_on_c, 0, 69, 92
2, 226925, Note_off_c, 0, 70, 64
2, 226982, Note_on_c, 0, 67, 92
2, 226985, Note_off_c, 0, 69, 64
2, 227042, Note_on_c, 0, 69, 92
2, 227045, Note_off_c, 0, 67, 64
2, 227102, Note_on_c, 0, 75, 92
2, 227105, Note_off_c, 0, 69, 64
2, 227162, Note_on_c, 0, 74, 92
2, 227165, Note_off_c, 0, 75, 64
2, 227222, Note_on_c, 0, 73, 92
2, 227225, Note_off_c, 0, 74, 64
2, 227282, Note_on_c, 0, 74, 92
2, 227285, Note_off_c, 0, 73, 64
2, 227342, Note_on_c, 0, 82, 92
2, 227345, Note_off_c, 0, 74, 64
2, 227402, Note_on_c, 0, 81, 92
2, 227405, Note_off_c, 0, 82, 64
2, 227462, Note_on_c, 0, 80, 92
2, 227465, Note_off_c, 0, 81, 64
2, 227522, Note_on_c, 0, 81, 92
2, 227525, Note_off_c, 0, 80, 64
2, 227762, Note_on_c, 0, 75, 92
2, 227765, Note_off_c, 0, 81, 64
2, 228002, Note_on_c, 0, 78, 92
2, 228005, Note_off_c, 0, 75, 64
2, 228302, Note_on_c, 0, 72, 92
2, 228305, Note_off_c, 0, 78, 64
2, 228362, Note_on_c, 0, 71, 92
2, 228365, Note_off_c, 0, 72, 64
2, 228422, Note_on_c, 0, 69, 92
2, 228425, Note_off_c, 0, 71, 64
2, 228482, Note_on_c, 0, 71, 92
2, 228485, Note_off_c, 0, 69, 64
2, 228542, Note_on_c, 0, 77, 92
2, 228545, Note_off_c, 0, 71, 64
2, 228602, Note_on_c, 0, 76, 92
2, 228605, Note_off_c, 0, 77, 64
2, 228662, Note_on_c, 0, 75, 92
2, 228665, Note_off_c, 0, 76, 64
2, 228722, Note_on_c, 0, 76, 92
2, 228725, Note_off_c, 0, 75, 64
2, 228782, Note_on_c, 0, 84, 92
2, 228785, Note_off_c, 0, 76, 64
2, 228842, Note_on_c, 0, 83, 92
2, 228845, Note_off_c, 0, 84, 64
2, 228902, Note_on_c, 0, 82, 92
2, 228905, Note_off_c, 0, 83, 64
2, 228962, Note_on_c, 0, 83, 92
2, 228965, Note_off_c, 0, 82, 64
2, 229205, Note_off_c, 0, 83, 64
2, 229322, Note_on_c, 0, 77, 92
2, 229382, Note_on_c, 0, 76, 92
2, 229385, Note_off_c, 0, 77, 64
2, 229442, Note_on_c, 0, 74, 92
2, 229445, Note_off_c, 0, 76, 64
2, 229502, Note_on_c, 0, 72, 92
2, 229505, Note_off_c, 0, 74, 64
2, 229562, Note_on_c, 0, 71, 92
2, 229565, Note_off_c, 0, 72, 64
2, 229622, Note_on_c, 0, 69, 92
2, 229625, Note_off_c, 0, 71, 64
2, 229682, Note_on_c, 0, 68, 92
2, 229685, Note_off_c, 0, 69, 64
2, 229712, Note_on_c, 0, 69, 92
2, 229715, Note_off_c, 0, 68, 64
2, 229742, Note_on_c, 0, 68, 92
2, 229745, Note_off_c, 0, 69, 64
2, 230462, Note_on_c, 0, 71, 92
2, 230465, Note_off_c, 0, 68, 64
2, 230522, Note_on_c, 0, 69, 92
2, 230525, Note_off_c, 0, 71, 64
2, 230582, Note_on_c, 0, 68, 92
2, 230585, Note_off_c, 0, 69, 64
2, 230642, Note_on_c, 0, 69, 92
2, 230645, Note_off_c, 0, 68, 64
2, 230702, Note_on_c, 0, 73, 92
2, 230705, Note_off_c, 0, 69, 64
2, 230762, Note_on_c, 0, 76, 92
2, 230765, Note_off_c, 0, 73, 64
2, 230822, Note_on_c, 0, 80, 92
2, 230825, Note_off_c, 0, 76, 64
2, 230882, Note_on_c, 0, 81, 92
2, 230885, Note_off_c, 0, 80, 64
2, 231362, Note_on_c, 0, 80, 92
2, 231365, Note_off_c, 0, 81, 64
2, 231605, Note_off_c, 0, 80, 64
2, 237362, Note_on_c, 0, 69, 92
2, 237602, Note_on_c, 0, 76, 92
2, 237605, Note_off_c, 0, 69, 64
2, 237662, Note_on_c, 0, 78, 92
2, 237665, Note_off_c, 0, 76, 64
2, 237722, Note_on_c, 0, 79, 92
2, 237725, Note_off_c, 0, 78, 64
2, 237962, Note_on_c, 0, 78, 92
2, 237965, Note_off_c, 0, 79, 64
2, 238082, Note_on_c, 0, 76, 92
2, 238085, Note_off_c, 0, 78, 64
2, 238322, Note_on_c, 0, 75, 92
2, 238325, Note_off_c, 0, 76, 64
2, 238562, Note_on_c, 0, 76, 92
2, 238565, Note_off_c, 0, 75, 64
2, 238805, Note_off_c, 0, 76, 64
2, 239042, Note_on_c, 0, 69, 92
2, 239162, Note_on_c, 0, 68, 92
2, 239165, Note_off_c, 0, 69, 64
2, 239402, Note_on_c, 0, 69, 92
2, 239405, Note_off_c, 0, 68, 64
2, 239462, Note_on_c, 0, 71, 92
2, 239465, Note_off_c, 0, 69, 64
2, 239522, Note_on_c, 0, 69, 92
2, 239525, Note_off_c, 0, 71, 64
2, 239582, Note_on_c, 0, 68, 92
2, 239585, Note_off_c, 0, 69, 64
2, 239642, Note_on_c, 0, 66, 92
2, 239645, Note_off_c, 0, 68, 64
2, 239702, Note_on_c, 0, 64, 92
2, 239705, Note_off_c, 0, 66, 64
2, 239762, Note_on_c, 0, 74, 92
2, 239765, Note_off_c, 0, 64, 64
2, 239822, Note_on_c, 0, 73, 92
2, 239825, Note_off_c, 0, 74, 64
2, 239882, Note_on_c, 0, 71, 92
2, 239885, Note_off_c, 0, 73, 64
2, 240002, Note_on_c, 0, 73, 92
2, 240005, Note_off_c, 0, 71, 64
2, 240245, Note_off_c, 0, 73, 64
2, 240482, Note_on_c, 0, 72, 92
2, 240542, Note_on_c, 0, 71, 92
2, 240545, Note_off_c, 0, 72, 64
2, 240602, Note_on_c, 0, 72, 92
2, 240605, Note_off_c, 0, 71, 64
2, 240842, Note_on_c, 0, 75, 92
2, 240845, Note_off_c, 0, 72, 64
2, 241082, Note_on_c, 0, 78, 92
2, 241085, Note_off_c, 0, 75, 64
2, 241202, Note_on_c, 0, 81, 92
2, 241205, Note_off_c, 0, 78, 64
2, 241322, Note_on_c, 0, 72, 92
2, 241325, Note_off_c, 0, 81, 64
2, 241442, Note_on_c, 0, 71, 92
2, 241445, Note_off_c, 0, 72, 64
2, 241802, Note_on_c, 0, 70, 92
2, 241805, Note_off_c, 0, 71, 64
2, 241922, Note_on_c, 0, 71, 92
2, 241925, Note_off_c, 0, 70, 64
2, 241982, Note_on_c, 0, 75, 92
2, 241985, Note_off_c, 0, 71, 64
2, 242042, Note_on_c, 0, 76, 92
2, 242045, Note_off_c, 0, 75, 64
2, 242162, Note_on_c, 0, 64, 92
2, 242165, Note_off_c, 0, 76, 64
2, 242282, Note_on_c, 0, 69, 92
2, 242285, Note_off_c, 0, 64, 64
2, 242522, Note_on_c, 0, 67, 92
2, 242525, Note_off_c, 0, 69, 64
2, 242582, Note_on_c, 0, 66, 92
2, 242585, Note_off_c, 0, 67, 64
2, 242642, Note_on_c, 0, 67, 92
2, 242645, Note_off_c, 0, 66, 64
2, 242885, Note_off_c, 0, 67, 64
2, 243122, Note_on_c, 0, 82, 92
2, 243482, Note_on_c, 0, 81, 92
2, 243485, Note_off_c, 0, 82, 64
2, 243722, Note_on_c, 0, 79, 92
2, 243725, Note_off_c, 0, 81, 64
2, 243902, Note_on_c, 0, 77, 92
2, 243905, Note_off_c, 0, 79, 64
2, 243962, Note_on_c, 0, 76, 92
2, 243965, Note_off_c, 0, 77, 64
2, 244082, Note_on_c, 0, 77, 92
2, 244085, Note_off_c, 0, 76, 64
2, 244142, Note_on_c, 0, 79, 92
2, 244145, Note_off_c, 0, 77, 64
2, 244202, Note_on_c, 0, 81, 92
2, 244205, Note_off_c, 0, 79, 64
2, 244325, Note_off_c, 0, 81, 64
2, 244562, Note_on_c, 0, 69, 92
2, 244922, Note_on_c, 0, 67, 92
2, 244925, Note_off_c, 0, 69, 64
2, 245162, Note_on_c, 0, 65, 92
2, 245165, Note_off_c, 0, 67, 64
2, 245342, Note_on_c, 0, 64, 92
2, 245345, Note_off_c, 0, 65, 64
2, 245402, Note_on_c, 0, 62, 92
2, 245405, Note_off_c, 0, 64, 64
2, 245522, Note_on_c, 0, 64, 92
2, 245525, Note_off_c, 0, 62, 64
2, 245582, Note_on_c, 0, 65, 92
2, 245585, Note_off_c, 0, 64, 64
2, 245642, Note_on_c, 0, 67, 92
2, 245645, Note_off_c, 0, 65, 64
2, 245765, Note_off_c, 0, 67, 64
2, 246002, Note_on_c, 0, 79, 92
2, 246302, Note_on_c, 0, 77, 92
2, 246305, Note_off_c, 0, 79, 64
2, 246362, Note_on_c, 0, 76, 92
2, 246365, Note_off_c, 0, 77, 64
2, 246482, Note_on_c, 0, 77, 92
2, 246485, Note_off_c, 0, 76, 64
2, 246512, Note_on_c, 0, 76, 92
2, 246515, Note_off_c, 0, 77, 64
2, 246542, Note_on_c, 0, 77, 92
2, 246545, Note_off_c, 0, 76, 64
2, 247322, Note_on_c, 0, 76, 92
2, 247325, Note_off_c, 0, 77, 64
2, 247382, Note_on_c, 0, 78, 92
2, 247385, Note_off_c, 0, 76, 64
2, 247442, Note_on_c, 0, 80, 92
2, 247445, Note_off_c, 0, 78, 64
2, 247502, Note_on_c, 0, 81, 92
2, 247505, Note_off_c, 0, 80, 64
2, 247562, Note_on_c, 0, 83, 92
2, 247565, Note_off_c, 0, 81, 64
2, 247682, Note_on_c, 0, 76, 92
2, 247685, Note_off_c, 0, 83, 64
2, 247922, Note_on_c, 0, 81, 92
2, 247925, Note_off_c, 0, 76, 64
2, 247952, Note_on_c, 0, 79, 92
2, 247955, Note_off_c, 0, 81, 64
2, 247982, Note_on_c, 0, 81, 92
2, 247985, Note_off_c, 0, 79, 64
2, 248462, Note_on_c, 0, 79, 92
2, 248465, Note_off_c, 0, 81, 64
2, 248522, Note_on_c, 0, 78, 92
2, 248525, Note_off_c, 0, 79, 64
2, 248642, Note_on_c, 0, 79, 92
2, 248645, Note_off_c, 0, 78, 64
2, 248672, Note_on_c, 0, 78, 92
2, 248675, Note_off_c, 0, 79, 64
2, 248702, Note_on_c, 0, 79, 92
2, 248705, Note_off_c, 0, 78, 64
2, 248882, Note_on_c, 0, 69, 92
2, 248885, Note_off_c, 0, 79, 64
2, 249182, Note_on_c, 0, 67, 92
2, 249185, Note_off_c, 0, 69, 64
2, 249242, Note_on_c, 0, 66, 92
2, 249245, Note_off_c, 0, 67, 64
2, 249362, Note_on_c, 0, 67, 92
2, 249365, Note_off_c, 0, 66, 64
2, 249392, Note_on_c, 0, 66, 92
2, 249395, Note_off_c, 0, 67, 64
2, 249422, Note_on_c, 0, 67, 92
2, 249425, Note_off_c, 0, 66, 64
2, 250202, Note_on_c, 0, 66, 92
2, 250205, Note_off_c, 0, 67, 64
2, 250262, Note_on_c, 0, 64, 92
2, 250265, Note_off_c, 0, 66, 64
2, 250322, Note_on_c, 0, 66, 92
2, 250325, Note_off_c, 0, 64, 64
2, 250382, Note_on_c, 0, 68, 92
2, 250385, Note_off_c, 0, 66, 64
2, 250442, Note_on_c, 0, 69, 92
2, 250445, Note_off_c, 0, 68, 64
2, 250562, Note_on_c, 0, 71, 92
2, 250565, Note_off_c, 0, 69, 64
2, 250922, Note_on_c, 0, 69, 92
2, 250925, Note_off_c, 0, 71, 64
2, 250982, Note_on_c, 0, 68, 92
2, 250985, Note_off_c, 0, 69, 64
2, 251042, Note_on_c, 0, 69, 92
2, 251045, Note_off_c, 0, 68, 64
2, 251102, Note_on_c, 0, 71, 92
2, 251105, Note_off_c, 0, 69, 64
2, 251162, Note_on_c, 0, 72, 92
2, 251165, Note_off_c, 0, 71, 64
2, 251282, Note_on_c, 0, 75, 92
2, 251285, Note_off_c, 0, 72, 64
2, 251642, Note_on_c, 0, 76, 92
2, 251645, Note_off_c, 0, 75, 64
2, 251702, Note_on_c, 0, 75, 92
2, 251705, Note_off_c, 0, 76, 64
2, 251762, Note_on_c, 0, 76, 92
2, 251765, Note_off_c, 0, 75, 64
2, 251822, Note_on_c, 0, 78, 92
2, 251825, Note_off_c, 0, 76, 64
2, 251882, Note_on_c, 0, 79, 92
2, 251885, Note_off_c, 0, 78, 64
2, 252002, Note_on_c, 0, 73, 92
2, 252005, Note_off_c, 0, 79, 64
2, 252362, Note_on_c, 0, 74, 92
2, 252365, Note_off_c, 0, 73, 64
2, 252422, Note_on_c, 0, 76, 92
2, 252425, Note_off_c, 0, 74, 64
2, 252482, Note_on_c, 0, 74, 92
2, 252485, Note_off_c, 0, 76, 64
2, 252542, Note_on_c, 0, 72, 92
2, 252545, Note_off_c, 0, 74, 64
2, 252602, Note_on_c, 0, 71, 92
2, 252605, Note_off_c, 0, 72, 64
2, 252722, Note_on_c, 0, 72, 92
2, 252725, Note_off_c, 0, 71, 64
2, 253082, Note_on_c, 0, 71, 92
2, 253085, Note_off_c, 0, 72, 64
2, 253142, Note_on_c, 0, 70, 92
2, 253145, Note_off_c, 0, 71, 64
2, 253202, Note_on_c, 0, 71, 92
2, 253205, Note_off_c, 0, 70, 64
2, 253262, Note_on_c, 0, 75, 92
2, 253265, Note_off_c, 0, 71, 64
2, 253322, Note_on_c, 0, 76, 92
2, 253325, Note_off_c, 0, 75, 64
2, 253442, Note_on_c, 0, 64, 92
2, 253445, Note_off_c, 0, 76, 64
2, 253682, Note_on_c, 0, 69, 92
2, 253685, Note_off_c, 0, 64, 64
2, 253922, Note_on_c, 0, 66, 92
2, 253925, Note_off_c, 0, 69, 64
2, 253952, Note_on_c, 0, 67, 92
2, 253955, Note_off_c, 0, 66, 64
2, 253982, Note_on_c, 0, 66, 92
2, 253985, Note_off_c, 0, 67, 64
2, 254162, Note_on_c, 0, 64, 92
2, 254165, Note_off_c, 0, 66, 64
2, 254645, Note_off_c, 0, 64, 64
2, 257522, Note_on_c, 0, 71, 92
2, 257762, Note_on_c, 0, 69, 92
2, 257765, Note_off_c, 0, 71, 64
2, 257882, Note_on_c, 0, 68, 92
2, 257885, Note_off_c, 0, 69, 64
2, 258122, Note_on_c, 0, 64, 92
2, 258125, Note_off_c, 0, 68, 64
2, 258182, Note_on_c, 0, 66, 92
2, 258185, Note_off_c, 0, 64, 64
2, 258242, Note_on_c, 0, 68, 92
2, 258245, Note_off_c, 0, 66, 64
2, 258302, Note_on_c, 0, 69, 92
2, 258305, Note_off_c, 0, 68, 64
2, 258362, Note_on_c, 0, 71, 92
2, 258365, Note_off_c, 0, 69, 64
2, 258482, Note_on_c, 0, 74, 92
2, 258485, Note_off_c, 0, 71, 64
2, 258842, Note_on_c, 0, 68, 92
2, 258845, Note_off_c, 0, 74, 64
2, 258902, Note_on_c, 0, 69, 92
2, 258905, Note_off_c, 0, 68, 64
2, 258962, Note_on_c, 0, 71, 92
2, 258965, Note_off_c, 0, 69, 64
2, 259022, Note_on_c, 0, 72, 92
2, 259025, Note_off_c, 0, 71, 64
2, 259082, Note_on_c, 0, 74, 92
2, 259085, Note_off_c, 0, 72, 64
2, 259202, Note_on_c, 0, 78, 92
2, 259205, Note_off_c, 0, 74, 64
2, 259322, Note_on_c, 0, 76, 92
2, 259325, Note_off_c, 0, 78, 64
2, 259562, Note_on_c, 0, 74, 92
2, 259565, Note_off_c, 0, 76, 64
2, 259622, Note_on_c, 0, 72, 92
2, 259625, Note_off_c, 0, 74, 64
2, 259682, Note_on_c, 0, 71, 92
2, 259685, Note_off_c, 0, 72, 64
2, 259742, Note_on_c, 0, 72, 92
2, 259745, Note_off_c, 0, 71, 64
2, 259802, Note_on_c, 0, 74, 92
2, 259805, Note_off_c, 0, 72, 64
2, 260042, Note_on_c, 0, 72, 92
2, 260045, Note_off_c, 0, 74, 64
2, 260282, Note_on_c, 0, 71, 92
2, 260285, Note_off_c, 0, 72, 64
2, 260342, Note_on_c, 0, 69, 92
2, 260345, Note_off_c, 0, 71, 64
2, 260402, Note_on_c, 0, 68, 92
2, 260405, Note_off_c, 0, 69, 64
2, 260462, Note_on_c, 0, 69, 92
2, 260465, Note_off_c, 0, 68, 64
2, 260522, Note_on_c, 0, 71, 92
2, 260525, Note_off_c, 0, 69, 64
2, 260642, Note_on_c, 0, 69, 92
2, 260645, Note_off_c, 0, 71, 64
2, 260885, Note_off_c, 0, 69, 64
2, 261122, Note_on_c, 0, 76, 92
2, 261422, Note_on_c, 0, 70, 92
2, 261425, Note_off_c, 0, 76, 64
2, 261482, Note_on_c, 0, 69, 92
2, 261485, Note_off_c, 0, 70, 64
2, 261542, Note_on_c, 0, 67, 92
2, 261545, Note_off_c, 0, 69, 64
2, 261602, Note_on_c, 0, 69, 92
2, 261605, Note_off_c, 0, 67, 64
2, 261662, Note_on_c, 0, 75, 92
2, 261665, Note_off_c, 0, 69, 64
2, 261722, Note_on_c, 0, 74, 92
2, 261725, Note_off_c, 0, 75, 64
2, 261782, Note_on_c, 0, 73, 92
2, 261785, Note_off_c, 0, 74, 64
2, 261842, Note_on_c, 0, 74, 92
2, 261845, Note_off_c, 0, 73, 64
2, 261902, Note_on_c, 0, 82, 92
2, 261905, Note_off_c, 0, 74, 64
2, 261962, Note_on_c, 0, 81, 92
2, 261965, Note_off_c, 0, 82, 64
2, 262022, Note_on_c, 0, 80, 92
2, 262025, Note_off_c, 0, 81, 64
2, 262082, Note_on_c, 0, 81, 92
2, 262085, Note_off_c, 0, 80, 64
2, 262322, Note_on_c, 0, 75, 92
2, 262325, Note_off_c, 0, 81, 64
2, 262562, Note_on_c, 0, 78, 92
2, 262565, Note_off_c, 0, 75, 64
2, 262862, Note_on_c, 0, 72, 92
2, 262865, Note_off_c, 0, 78, 64
2, 262922, Note_on_c, 0, 71, 92
2, 262925, Note_off_c, 0, 72, 64
2, 262982, Note_on_c, 0, 69, 92
2, 262985, Note_off_c, 0, 71, 64
2, 263042, Note_on_c, 0, 71, 92
2, 263045, Note_off_c, 0, 69, 64
2, 263102, Note_on_c, 0, 77, 92
2, 263105, Note_off_c, 0, 71, 64
2, 263162, Note_on_c, 0, 76, 92
2, 263165, Note_off_c, 0, 77, 64
2, 263222, Note_on_c, 0, 75, 92
2, 263225, Note_off_c, 0, 76, 64
2, 263282, Note_on_c, 0, 76, 92
2, 263285, Note_off_c, 0, 75, 64
2, 263342, Note_on_c, 0, 84, 92
2, 263345, Note_off_c, 0, 76, 64
2, 263402, Note_on_c, 0, 83, 92
2, 263405, Note_off_c, 0, 84, 64
2, 263462, Note_on_c, 0, 82, 92
2, 263465, Note_off_c, 0, 83, 64
2, 263522, Note_on_c, 0, 83, 92
2, 263525, Note_off_c, 0, 82, 64
2, 263765, Note_off_c, 0, 83, 64
2, 263882, Note_on_c, 0, 77, 92
2, 263942, Note_on_c, 0, 76, 92
2, 263945, Note_off_c, 0, 77, 64
2, 264002, Note_on_c, 0, 74, 92
2, 264005, Note_off_c, 0, 76, 64
2, 264062, Note_on_c, 0, 72, 92
2, 264065, Note_off_c, 0, 74, 64
2, 264122, Note_on_c, 0, 71, 92
2, 264125, Note_off_c, 0, 72, 64
2, 264182, Note_on_c, 0, 69, 92
2, 264185, Note_off_c, 0, 71, 64
2, 264242, Note_on_c, 0, 68, 92
2, 264245, Note_off_c, 0, 69, 64
2, 264272, Note_on_c, 0, 69, 92
2, 264275, Note_off_c, 0, 68, 64
2, 264302, Note_on_c, 0, 68, 92
2, 264305, Note_off_c, 0, 69, 64
2, 265022, Note_on_c, 0, 71, 92
2, 265025, Note_off_c, 0, 68, 64
2, 265082, Note_on_c, 0, 69, 92
2, 265085, Note_off_c, 0, 71, 64
2, 265142, Note_on_c, 0, 68, 92
2, 265145, Note_off_c, 0, 69, 64
2, 265202, Note_on_c, 0, 69, 92
2, 265205, Note_off_c, 0, 68, 64
2, 265262, Note_on_c, 0, 73, 92
2, 265265, Note_off_c, 0, 69, 64
2, 265322, Note_on_c, 0, 76, 92
2, 265325, Note_off_c, 0, 73, 64
2, 265382, Note_on_c, 0, 80, 92
2, 265385, Note_off_c, 0, 76, 64
2, 265442, Note_on_c, 0, 81, 92
2, 265445, Note_off_c, 0, 80, 64
2, 265922, Note_on_c, 0, 80, 92
2, 265925, Note_off_c, 0, 81, 64
2, 266165, Note_off_c, 0, 80, 64
2, 271922, Note_on_c, 0, 69, 92
2, 272162, Note_on_c, 0, 76, 92
2, 272165, Note_off_c, 0, 69, 64
2, 272222, Note_on_c, 0, 78, 92
2, 272225, Note_off_c, 0, 76, 64
2, 272282, Note_on_c, 0, 79, 92
2, 272285, Note_off_c, 0, 78, 64
2, 272522, Note_on_c, 0, 78, 92
2, 272525, Note_off_c, 0, 79, 64
2, 272642, Note_on_c, 0, 76, 92
2, 272645, Note_off_c, 0, 78, 64
2, 272882, Note_on_c, 0, 75, 92
2, 272885, Note_off_c, 0, 76, 64
2, 273122, Note_on_c, 0, 76, 92
2, 273125, Note_off_c, 0, 75, 64
2, 273365, Note_off_c, 0, 76, 64
2, 273602, Note_on_c, 0, 69, 92
2, 273722, Note_on_c, 0, 68, 92
2, 273725, Note_off_c, 0, 69, 64
2, 273962, Note_on_c, 0, 69, 92
2, 273965, Note_off_c, 0, 68, 64
2, 274022, Note_on_c, 0, 71, 92
2, 274025, Note_off_c, 0, 69, 64
2, 274082, Note_on_c, 0, 69, 92
2, 274085, Note_off_c, 0, 71, 64
2, 274142, Note_on_c, 0, 68, 92
2, 274145, Note_off_c, 0, 69, 64
2, 274202, Note_on_c, 0, 66, 92
2, 274205, Note_off_c, 0, 68, 64
2, 274262, Note_on_c, 0, 64, 92
2, 274265, Note_off_c, 0, 66, 64
2, 274322, Note_on_c, 0, 74, 92
2, 274325, Note_off_c, 0, 64, 64
2, 274382, Note_on_c, 0, 73, 92
2, 274385, Note_off_c, 0, 74, 64
2, 274442, Note_on_c, 0, 71, 92
2, 274445, Note_off_c, 0, 73, 64
2, 274562, Note_on_c, 0, 73, 92
2, 274565, Note_off_c, 0, 71, 64
2, 274805, Note_off_c, 0, 73, 64
2, 275042, Note_on_c, 0, 72, 92
2, 275102, Note_on_c, 0, 71, 92
2, 275105, Note_off_c, 0, 72, 64
2, 275162, Note_on_c, 0, 72, 92
2, 275165, Note_off_c, 0, 71, 64
2, 275402, Note_on_c, 0, 75, 92
2, 275405, Note_off_c, 0, 72, 64
2, 275642, Note_on_c, 0, 78, 92
2, 275645, Note_off_c, 0, 75, 64
2, 275762, Note_on_c, 0, 81, 92
2, 275765, Note_off_c, 0, 78, 64
2, 275882, Note_on_c, 0, 72, 92
2, 275885, Note_off_c, 0, 81, 64
2, 276002, Note_on_c, 0, 71, 92
2, 276005, Note_off_c, 0, 72, 64
2, 276362, Note_on_c, 0, 70, 92
2, 276365, Note_off_c, 0, 71, 64
2, 276482, Note_on_c, 0, 71, 92
2, 276485, Note_off_c, 0, 70, 64
2, 276542, Note_on_c, 0, 75, 92
2, 276545, Note_off_c, 0, 71, 64
2, 276602, Note_on_c, 0, 76, 92
2, 276605, Note_off_c, 0, 75, 64
2, 276722, Note_on_c, 0, 64, 92
2, 276725, Note_off_c, 0, 76, 64
2, 276842, Note_on_c, 0, 69, 92
2, 276845, Note_off_c, 0, 64, 64
2, 277082, Note_on_c, 0, 67, 92
2, 277085, Note_off_c, 0, 69, 64
2, 277142, Note_on_c, 0, 66, 92
2, 277145, Note_off_c, 0, 67, 64
2, 277202, Note_on_c, 0, 67, 92
2, 277205, Note_off_c, 0, 66, 64
2, 277445, Note_off_c, 0, 67, 64
2, 277682, Note_on_c, 0, 82, 92
2, 278042, Note_on_c, 0, 81, 92
2, 278045, Note_off_c, 0, 82, 64
2, 278282, Note_on_c, 0, 79, 92
2, 278285, Note_off_c, 0, 81, 64
2, 278462, Note_on_c, 0, 77, 92
2, 278465, Note_off_c, 0, 79, 64
2, 278522, Note_on_c, 0, 76, 92
2, 278525, Note_off_c, 0, 77, 64
2, 278642, Note_on_c, 0, 77, 92
2, 278645, Note_off_c, 0, 76, 64
2, 278702, Note_on_c, 0, 79, 92
2, 278705, Note_off_c, 0, 77, 64
2, 278762, Note_on_c, 0, 81, 92
2, 278765, Note_off_c, 0, 79, 64
2, 278885, Note_off_c, 0, 81, 64
2, 279122, Note_on_c, 0, 69, 92
2, 279482, Note_on_c, 0, 67, 92
2, 279485, Note_off_c, 0, 69, 64
2, 279722, Note_on_c, 0, 65, 92
2, 279725, Note_off_c, 0, 67, 64
2, 279902, Note_on_c, 0, 64, 92
2, 279905, Note_off_c, 0, 65, 64
2, 279962, Note_on_c, 0, 62, 92
2, 279965, Note_off_c, 0, 64, 64
2, 280082, Note_on_c, 0, 64, 92
2, 280085, Note_off_c, 0, 62, 64
2, 280142, Note_on_c, 0, 65, 92
2, 280145, Note_off_c, 0, 64, 64
2, 280202, Note_on_c, 0, 67, 92
2, 280205, Note_off_c, 0, 65, 64
2, 280325, Note_off_c, 0, 67, 64
2, 280562, Note_on_c, 0, 79, 92
2, 280862, Note_on_c, 0, 77, 92
2, 280865, Note_off_c, 0, 79, 64
2, 280922, Note_on_c, 0, 76, 92
2, 280925, Note_off_c, 0, 77, 64
2, 281042, Note_on_c, 0, 77, 92
2, 281045, Note_off_c, 0, 76, 64
2, 281072, Note_on_c, 0, 76, 92
2, 281075, Note_off_c, 0, 77, 64
2, 281102, Note_on_c, 0, 77, 92
2, 281105, Note_off_c, 0, 76, 64
2, 281882, Note_on_c, 0, 76, 92
2, 281885, Note_off_c, 0, 77, 64
2, 281942, Note_on_c, 0, 78, 92
2, 281945, Note_off_c, 0, 76, 64
2, 282002, Note_on_c, 0, 80, 92
2, 282005, Note_off_c, 0, 78, 64
2, 282062, Note_on_c, 0, 81, 92
2, 282065, Note_off_c, 0, 80, 64
2, 282122, Note_on_c, 0, 83, 92
2, 282125, Note_off_c, 0, 81, 64
2, 282242, Note_on_c, 0, 76, 92
2, 282245, Note_off_c, 0, 83, 64
2, 282482, Note_on_c, 0, 81, 92
2, 282485, Note_off_c, 0, 76, 64
2, 282512, Note_on_c, 0, 79, 92
2, 282515, Note_off_c, 0, 81, 64
2, 282542, Note_on_c, 0, 81, 92
2, 282545, Note_off_c, 0, 79, 64
2, 283022, Note_on_c, 0, 79, 92
2, 283025, Note_off_c, 0, 81, 64
2, 283082, Note_on_c, 0, 78, 92
2, 283085, Note_off_c, 0, 79, 64
2, 283202, Note_on_c, 0, 79, 92
2, 283205, Note_off_c, 0, 78, 64
2, 283232, Note_on_c, 0, 78, 92
2, 283235, Note_off_c, 0, 79, 64
2, 283262, Note_on_c, 0, 79, 92
2, 283265, Note_off_c, 0, 78, 64
2, 283442, Note_on_c, 0, 69, 92
2, 283445, Note_off_c, 0, 79, 64
2, 283742, Note_on_c, 0, 67, 92
2, 283745, Note_off_c, 0, 69, 64
2, 283802, Note_on_c, 0, 66, 92
2, 283805, Note_off_c, 0, 67, 64
2, 283922, Note_on_c, 0, 67, 92
2, 283925, Note_off_c, 0, 66, 64
2, 283952, Note_on_c, 0, 66, 92
2, 283955, Note_off_c, 0, 67, 64
2, 283982, Note_on_c, 0, 67, 92
2, 283985, Note_off_c, 0, 66, 64
2, 284762, Note_on_c, 0, 66, 92
2, 284765, Note_off_c, 0, 67, 64
2, 284822, Note_on_c, 0, 64, 92
2, 284825, Note_off_c, 0, 66, 64
2, 284882, Note_on_c, 0, 66, 92
2, 284885, Note_off_c, 0, 64, 64
2, 284942, Note_on_c, 0, 68, 92
2, 284945, Note_off_c, 0, 66, 64
2, 285002, Note_on_c, 0, 69, 92
2, 285005, Note_off_c, 0, 68, 64
2, 285122, Note_on_c, 0, 71, 92
2, 285125, Note_off_c, 0, 69, 64
2, 285482, Note_on_c, 0, 69, 92
2, 285485, Note_off_c, 0, 71, 64
2, 285542, Note_on_c, 0, 68, 92
2, 285545, Note_off_c, 0, 69, 64
2, 285602, Note_on_c, 0, 69, 92
2, 285605, Note_off_c, 0, 68, 64
2, 285662, Note_on_c, 0, 71, 92
2, 285665, Note_off_c, 0, 69, 64
2, 285722, Note_on_c, 0, 72, 92
2, 285725, Note_off_c, 0, 71, 64
2, 285842, Note_on_c, 0, 75, 92
2, 285845, Note_off_c, 0, 72, 64
2, 286202, Note_on_c, 0, 76, 92
2, 286205, Note_off_c, 0, 75, 64
2, 286262, Note_on_c, 0, 75, 92
2, 286265, Note_off_c, 0, 76, 64
2, 286322, Note_on_c, 0, 76, 92
2, 286325, Note_off_c, 0, 75, 64
2, 286382, Note_on_c, 0, 78, 92
2, 286385, Note_off_c, 0, 76, 64
2, 286442, Note_on_c, 0, 79, 92
2, 286445, Note_off_c, 0, 78, 64
2, 286562, Note_on_c, 0, 73, 92
2, 286565, Note_off_c, 0, 79, 64
2, 286922, Note_on_c, 0, 74, 92
2, 286925, Note_off_c, 0, 73, 64
2, 286982, Note_on_c, 0, 76, 92
2, 286985, Note_off_c, 0, 74, 64
2, 287042, Note_on_c, 0, 74, 92
2, 287045, Note_off_c, 0, 76, 64
2, 287102, Note_on_c, 0, 72, 92
2, 287105, Note_off_c, 0, 74, 64
2, 287162, Note_on_c, 0, 71, 92
2, 287165, Note_off_c, 0, 72, 64
2, 287282, Note_on_c, 0, 72, 92
2, 287285, Note_off_c, 0, 71, 64
2, 287642, Note_on_c, 0, 71, 92
2, 287645, Note_off_c, 0, 72, 64
2, 287702, Note_on_c, 0, 70, 92
2, 287705, Note_off_c, 0, 71, 64
2, 287762, Note_on_c, 0, 71, 92
2, 287765, Note_off_c, 0, 70, 64
2, 287822, Note_on_c, 0, 75, 92
2, 287825, Note_off_c, 0, 71, 64
2, 287882, Note_on_c, 0, 76, 92
2, 287885, Note_off_c, 0, 75, 64
2, 288002, Note_on_c, 0, 64, 92
2, 288005, Note_off_c, 0, 76, 64
2, 288242, Note_on_c, 0, 69, 92
2, 288245, Note_off_c, 0, 64, 64
2, 288482, Note_on_c, 0, 66, 92
2, 288485, Note_off_c, 0, 69, 64
2, 288512, Note_on_c, 0, 67, 92
2, 288515, Note_off_c, 0, 66, 64
2, 288542, Note_on_c, 0, 66, 92
2, 288545, Note_off_c, 0, 67, 64
2, 288722, Note_on_c, 0, 64, 92
2, 288725, Note_off_c, 0, 66, 64
2, 289445, Note_off_c, 0, 64, 64
2, 293762, Note_on_c, 0, 74, 92
2, 294362, Note_on_c, 0, 73, 92
2, 294365, Note_off_c, 0, 74, 64
2, 294482, Note_on_c, 0, 71, 92
2, 294485, Note_off_c, 0, 73, 64
2, 294602, Note_on_c, 0, 76, 92
2, 294605, Note_off_c, 0, 71, 64
2, 294722, Note_on_c, 0, 69, 92
2, 294725, Note_off_c, 0, 76, 64
2, 294962, Note_on_c, 0, 76, 92
2, 294965, Note_off_c, 0, 69, 64
2, 295022, Note_on_c, 0, 78, 92
2, 295025, Note_off_c, 0, 76, 64
2, 295082, Note_on_c, 0, 79, 92
2, 295085, Note_off_c, 0, 78, 64
2, 295202, Note_on_c, 0, 78, 92
2, 295205, Note_off_c, 0, 79, 64
2, 295442, Note_on_c, 0, 76, 92
2, 295445, Note_off_c, 0, 78, 64
2, 295682, Note_on_c, 0, 78, 92
2, 295685, Note_off_c, 0, 76, 64
2, 295802, Note_on_c, 0, 74, 92
2, 295805, Note_off_c, 0, 78, 64
2, 295922, Note_on_c, 0, 78, 92
2, 295925, Note_off_c, 0, 74, 64
2, 296042, Note_on_c, 0, 81, 92
2, 296045, Note_off_c, 0, 78, 64
2, 296162, Note_on_c, 0, 79, 92
2, 296165, Note_off_c, 0, 81, 64
2, 296402, Note_on_c, 0, 78, 92
2, 296405, Note_off_c, 0, 79, 64
2, 296642, Note_on_c, 0, 76, 92
2, 296645, Note_off_c, 0, 78, 64
2, 296882, Note_on_c, 0, 69, 92
2, 296885, Note_off_c, 0, 76, 64
2, 297125, Note_off_c, 0, 69, 64
2, 297242, Note_on_c, 0, 69, 92
2, 297362, Note_on_c, 0, 73, 92
2, 297365, Note_off_c, 0, 69, 64
2, 297482, Note_on_c, 0, 76, 92
2, 297485, Note_off_c, 0, 73, 64
2, 297602, Note_on_c, 0, 79, 92
2, 297605, Note_off_c, 0, 76, 64
2, 297722, Note_on_c, 0, 78, 92
2, 297725, Note_off_c, 0, 79, 64
2, 297842, Note_on_c, 0, 79, 92
2, 297845, Note_off_c, 0, 78, 64
2, 298085, Note_off_c, 0, 79, 64
2, 298202, Note_on_c, 0, 69, 92
2, 298322, Note_on_c, 0, 73, 92
2, 298325, Note_off_c, 0, 69, 64
2, 298442, Note_on_c, 0, 76, 92
2, 298445, Note_off_c, 0, 73, 64
2, 298562, Note_on_c, 0, 79, 92
2, 298565, Note_off_c, 0, 76, 64
2, 298682, Note_on_c, 0, 78, 92
2, 298685, Note_off_c, 0, 79, 64
2, 298802, Note_on_c, 0, 79, 92
2, 298805, Note_off_c, 0, 78, 64
2, 299045, Note_off_c, 0, 79, 64
2, 300242, Note_on_c, 0, 73, 92
2, 300482, Note_on_c, 0, 74, 92
2, 300485, Note_off_c, 0, 73, 64
2, 300602, Note_on_c, 0, 62, 92
2, 300605, Note_off_c, 0, 74, 64
2, 300722, Note_on_c, 0, 66, 92
2, 300725, Note_off_c, 0, 62, 64
2, 300842, Note_on_c, 0, 69, 92
2, 300845, Note_off_c, 0, 66, 64
2, 300962, Note_on_c, 0, 72, 92
2, 300965, Note_off_c, 0, 69, 64
2, 301082, Note_on_c, 0, 71, 92
2, 301085, Note_off_c, 0, 72, 64
2, 301202, Note_on_c, 0, 72, 92
2, 301205, Note_off_c, 0, 71, 64
2, 301445, Note_off_c, 0, 72, 64
2, 301562, Note_on_c, 0, 62, 92
2, 301682, Note_on_c, 0, 66, 92
2, 301685, Note_off_c, 0, 62, 64
2, 301802, Note_on_c, 0, 69, 92
2, 301805, Note_off_c, 0, 66, 64
2, 301922, Note_on_c, 0, 72, 92
2, 301925, Note_off_c, 0, 69, 64
2, 302042, Note_on_c, 0, 71, 92
2, 302045, Note_off_c, 0, 72, 64
2, 302162, Note_on_c, 0, 72, 92
2, 302165, Note_off_c, 0, 71, 64
2, 302405, Note_off_c, 0, 72, 64
2, 302522, Note_on_c, 0, 62, 92
2, 302642, Note_on_c, 0, 66, 92
2, 302645, Note_off_c, 0, 62, 64
2, 302762, Note_on_c, 0, 69, 92
2, 302765, Note_off_c, 0, 66, 64
2, 302882, Note_on_c, 0, 72, 92
2, 302885, Note_off_c, 0, 69, 64
2, 303002, Note_on_c, 0, 71, 92
2, 303005, Note_off_c, 0, 72, 64
2, 303122, Note_on_c, 0, 69, 92
2, 303125, Note_off_c, 0, 71, 64
2, 303242, Note_on_c, 0, 67, 92
2, 303245, Note_off_c, 0, 69, 64
2, 303362, Note_on_c, 0, 66, 92
2, 303365, Note_off_c, 0, 67, 64
2, 303482, Note_on_c, 0, 62, 92
2, 303485, Note_off_c, 0, 66, 64
2, 303602, Note_on_c, 0, 66, 92
2, 303605, Note_off_c, 0, 62, 64
2, 303722, Note_on_c, 0, 69, 92
2, 303725, Note_off_c, 0, 66, 64
2, 303842, Note_on_c, 0, 74, 92
2, 303845, Note_off_c, 0, 69, 64
2, 303962, Note_on_c, 0, 72, 92
2, 303965, Note_off_c, 0, 74, 64
2, 304082, Note_on_c, 0, 71, 92
2, 304085, Note_off_c, 0, 72, 64
2, 304202, Note_on_c, 0, 69, 92
2, 304205, Note_off_c, 0, 71, 64
2, 304322, Note_on_c, 0, 71, 92
2, 304325, Note_off_c, 0, 69, 64
2, 304562, Note_on_c, 0, 74, 92
2, 304565, Note_off_c, 0, 71, 64
2, 304802, Note_on_c, 0, 79, 92
2, 304805, Note_off_c, 0, 74, 64
2, 305522, Note_on_c, 0, 78, 92
2, 305525, Note_off_c, 0, 79, 64
2, 305765, Note_off_c, 0, 78, 64
2, 306002, Note_on_c, 0, 72, 92
2, 306362, Note_on_c, 0, 69, 92
2, 306365, Note_off_c, 0, 72, 64
2, 306482, Note_on_c, 0, 71, 92
2, 306485, Note_off_c, 0, 69, 64
2, 306602, Note_on_c, 0, 72, 92
2, 306605, Note_off_c, 0, 71, 64
2, 306722, Note_on_c, 0, 74, 92
2, 306725, Note_off_c, 0, 72, 64
2, 306842, Note_on_c, 0, 78, 92
2, 306845, Note_off_c, 0, 74, 64
2, 306962, Note_on_c, 0, 76, 92
2, 306965, Note_off_c, 0, 78, 64
2, 307082, Note_on_c, 0, 74, 92
2, 307085, Note_off_c, 0, 76, 64
2, 307202, Note_on_c, 0, 72, 92
2, 307205, Note_off_c, 0, 74, 64
2, 307322, Note_on_c, 0, 71, 92
2, 307325, Note_off_c, 0, 72, 64
2, 307442, Note_on_c, 0, 69, 92
2, 307445, Note_off_c, 0, 71, 64
2, 307562, Note_on_c, 0, 67, 92
2, 307565, Note_off_c, 0, 69, 64
2, 307682, Note_on_c, 0, 66, 92
2, 307685, Note_off_c, 0, 67, 64
2, 307922, Note_on_c, 0, 78, 92
2, 307925, Note_off_c, 0, 66, 64
2, 308282, Note_on_c, 0, 71, 92
2, 308285, Note_off_c, 0, 78, 64
2, 308402, Note_on_c, 0, 76, 92
2, 308405, Note_off_c, 0, 71, 64
2, 308522, Note_on_c, 0, 74, 92
2, 308525, Note_off_c, 0, 76, 64
2, 308642, Note_on_c, 0, 72, 92
2, 308645, Note_off_c, 0, 74, 64
2, 308762, Note_on_c, 0, 71, 92
2, 308765, Note_off_c, 0, 72, 64
2, 308882, Note_on_c, 0, 69, 92
2, 308885, Note_off_c, 0, 71, 64
2, 309002, Note_on_c, 0, 67, 92
2, 309005, Note_off_c, 0, 69, 64
2, 309122, Note_on_c, 0, 66, 92
2, 309125, Note_off_c, 0, 67, 64
2, 309242, Note_on_c, 0, 64, 92
2, 309245, Note_off_c, 0, 66, 64
2, 309362, Note_on_c, 0, 66, 92
2, 309365, Note_off_c, 0, 64, 64
2, 309482, Note_on_c, 0, 67, 92
2, 309485, Note_off_c, 0, 66, 64
2, 309602, Note_on_c, 0, 69, 92
2, 309605, Note_off_c, 0, 67, 64
2, 309722, Note_on_c, 0, 71, 92
2, 309725, Note_off_c, 0, 69, 64
2, 309842, Note_on_c, 0, 73, 92
2, 309845, Note_off_c, 0, 71, 64
2, 309962, Note_on_c, 0, 75, 92
2, 309965, Note_off_c, 0, 73, 64
2, 310082, Note_on_c, 0, 76, 92
2, 310085, Note_off_c, 0, 75, 64
2, 310322, Note_on_c, 0, 71, 92
2, 310325, Note_off_c, 0, 76, 64
2, 310562, Note_on_c, 0, 76, 92
2, 310565, Note_off_c, 0, 71, 64
2, 311282, Note_on_c, 0, 74, 92
2, 311285, Note_off_c, 0, 76, 64
2, 311402, Note_on_c, 0, 72, 92
2, 311405, Note_off_c, 0, 74, 64
2, 311522, Note_on_c, 0, 71, 92
2, 311525, Note_off_c, 0, 72, 64
2, 311642, Note_on_c, 0, 69, 92
2, 311645, Note_off_c, 0, 71, 64
2, 311762, Note_on_c, 0, 67, 92
2, 311765, Note_off_c, 0, 69, 64
2, 311882, Note_on_c, 0, 65, 92
2, 311885, Note_off_c, 0, 67, 64
2, 312002, Note_on_c, 0, 64, 92
2, 312005, Note_off_c, 0, 65, 64
2, 312242, Note_on_c, 0, 67, 92
2, 312245, Note_off_c, 0, 64, 64
2, 312482, Note_on_c, 0, 72, 92
2, 312485, Note_off_c, 0, 67, 64
2, 313202, Note_on_c, 0, 71, 92
2, 313205, Note_off_c, 0, 72, 64
2, 313445, Note_off_c, 0, 71, 64
2, 313682, Note_on_c, 0, 65, 92
2, 314042, Note_on_c, 0, 62, 92
2, 314045, Note_off_c, 0, 65, 64
2, 314162, Note_on_c, 0, 64, 92
2, 314165, Note_off_c, 0, 62, 64
2, 314282, Note_on_c, 0, 66, 92
2, 314285, Note_off_c, 0, 64, 64
2, 314402, Note_on_c, 0, 67, 92
2, 314405, Note_off_c, 0, 66, 64
2, 314522, Note_on_c, 0, 71, 92
2, 314525, Note_off_c, 0, 67, 64
2, 314642, Note_on_c, 0, 69, 92
2, 314645, Note_off_c, 0, 71, 64
2, 314762, Note_on_c, 0, 67, 92
2, 314765, Note_off_c, 0, 69, 64
2, 314882, Note_on_c, 0, 69, 92
2, 314885, Note_off_c, 0, 67, 64
2, 315002, Note_on_c, 0, 67, 92
2, 315005, Note_off_c, 0, 69, 64
2, 315122, Note_on_c, 0, 66, 92
2, 315125, Note_off_c, 0, 67, 64
2, 315242, Note_on_c, 0, 67, 92
2, 315245, Note_off_c, 0, 66, 64
2, 315362, Note_on_c, 0, 69, 92
2, 315365, Note_off_c, 0, 67, 64
2, 315482, Note_on_c, 0, 72, 92
2, 315485, Note_off_c, 0, 69, 64
2, 315602, Note_on_c, 0, 71, 92
2, 315605, Note_off_c, 0, 72, 64
2, 315722, Note_on_c, 0, 69, 92
2, 315725, Note_off_c, 0, 71, 64
2, 315842, Note_on_c, 0, 67, 92
2, 315845, Note_off_c, 0, 69, 64
2, 316442, Note_on_c, 0, 66, 92
2, 316445, Note_off_c, 0, 67, 64
2, 316562, Note_on_c, 0, 64, 92
2, 316565, Note_off_c, 0, 66, 64
2, 316682, Note_on_c, 0, 69, 92
2, 316685, Note_off_c, 0, 64, 64
2, 316802, Note_on_c, 0, 62, 92
2, 316805, Note_off_c, 0, 69, 64
2, 317042, Note_on_c, 0, 69, 92
2, 317045, Note_off_c, 0, 62, 64
2, 317102, Note_on_c, 0, 71, 92
2, 317105, Note_off_c, 0, 69, 64
2, 317162, Note_on_c, 0, 72, 92
2, 317165, Note_off_c, 0, 71, 64
2, 317282, Note_on_c, 0, 71, 92
2, 317285, Note_off_c, 0, 72, 64
2, 317522, Note_on_c, 0, 69, 92
2, 317525, Note_off_c, 0, 71, 64
2, 317762, Note_on_c, 0, 71, 92
2, 317765, Note_off_c, 0, 69, 64
2, 317882, Note_on_c, 0, 67, 92
2, 317885, Note_off_c, 0, 71, 64
2, 318002, Note_on_c, 0, 71, 92
2, 318005, Note_off_c, 0, 67, 64
2, 318122, Note_on_c, 0, 74, 92
2, 318125, Note_off_c, 0, 71, 64
2, 318242, Note_on_c, 0, 72, 92
2, 318245, Note_off_c, 0, 74, 64
2, 318842, Note_on_c, 0, 69, 92
2, 318845, Note_off_c, 0, 72, 64
2, 318962, Note_on_c, 0, 72, 92
2, 318965, Note_off_c, 0, 69, 64
2, 319082, Note_on_c, 0, 76, 92
2, 319085, Note_off_c, 0, 72, 64
2, 319202, Note_on_c, 0, 74, 92
2, 319205, Note_off_c, 0, 76, 64
2, 319802, Note_on_c, 0, 71, 92
2, 319805, Note_off_c, 0, 74, 64
2, 319922, Note_on_c, 0, 74, 92
2, 319925, Note_off_c, 0, 71, 64
2, 320042, Note_on_c, 0, 77, 92
2, 320045, Note_off_c, 0, 74, 64
2, 320162, Note_on_c, 0, 76, 92
2, 320165, Note_off_c, 0, 77, 64
2, 320282, Note_on_c, 0, 74, 92
2, 320285, Note_off_c, 0, 76, 64
2, 320402, Note_on_c, 0, 72, 92
2, 320405, Note_off_c, 0, 74, 64
2, 320522, Note_on_c, 0, 71, 92
2, 320525, Note_off_c, 0, 72, 64
2, 320642, Note_on_c, 0, 69, 92
2, 320645, Note_off_c, 0, 71, 64
2, 320762, Note_on_c, 0, 66, 92
2, 320765, Note_off_c, 0, 69, 64
2, 320882, Note_on_c, 0, 69, 92
2, 320885, Note_off_c, 0, 66, 64
2, 321002, Note_on_c, 0, 72, 92
2, 321005, Note_off_c, 0, 69, 64
2, 321122, Note_on_c, 0, 71, 92
2, 321125, Note_off_c, 0, 72, 64
2, 321242, Note_on_c, 0, 69, 92
2, 321245, Note_off_c, 0, 71, 64
2, 321362, Note_on_c, 0, 67, 92
2, 321365, Note_off_c, 0, 69, 64
2, 321482, Note_on_c, 0, 66, 92
2, 321485, Note_off_c, 0, 67, 64
2, 321602, Note_on_c, 0, 67, 92
2, 321605, Note_off_c, 0, 66, 64
2, 322682, Note_on_c, 0, 62, 92
2, 322685, Note_off_c, 0, 67, 64
2, 322802, Note_on_c, 0, 66, 92
2, 322805, Note_off_c, 0, 62, 64
2, 322922, Note_on_c, 0, 69, 92
2, 322925, Note_off_c, 0, 66, 64
2, 323042, Note_on_c, 0, 67, 92
2, 323045, Note_off_c, 0, 69, 64
2, 323162, Note_on_c, 0, 66, 92
2, 323165, Note_off_c, 0, 67, 64
2, 323282, Note_on_c, 0, 64, 92
2, 323285, Note_off_c, 0, 66, 64
2, 323402, Note_on_c, 0, 62, 92
2, 323405, Note_off_c, 0, 64, 64
2, 323522, Note_on_c, 0, 74, 92
2, 323525, Note_off_c, 0, 62, 64
2, 323642, Note_on_c, 0, 72, 92
2, 323645, Note_off_c, 0, 74, 64
2, 323762, Note_on_c, 0, 76, 92
2, 323765, Note_off_c, 0, 72, 64
2, 323882, Note_on_c, 0, 74, 92
2, 323885, Note_off_c, 0, 76, 64
2, 324002, Note_on_c, 0, 72, 92
2, 324005, Note_off_c, 0, 74, 64
2, 324122, Note_on_c, 0, 71, 92
2, 324125, Note_off_c, 0, 72, 64
2, 324242, Note_on_c, 0, 69, 92
2, 324245, Note_off_c, 0, 71, 64
2, 324362, Note_on_c, 0, 71, 92
2, 324365, Note_off_c, 0, 69, 64
2, 324482, Note_on_c, 0, 69, 92
2, 324485, Note_off_c, 0, 71, 64
2, 324722, Note_on_c, 0, 67, 92
2, 324725, Note_off_c, 0, 69, 64
2, 324965, Note_off_c, 0, 67, 64
2, 326642, Note_on_c, 0, 75, 92
2, 326882, Note_on_c, 0, 76, 92
2, 326885, Note_off_c, 0, 75, 64
2, 327122, Note_on_c, 0, 75, 92
2, 327125, Note_off_c, 0, 76, 64
2, 327362, Note_on_c, 0, 76, 92
2, 327365, Note_off_c, 0, 75, 64
2, 327602, Note_on_c, 0, 71, 92
2, 327605, Note_off_c, 0, 76, 64
2, 327845, Note_off_c, 0, 71, 64
2, 328562, Note_on_c, 0, 73, 92
2, 328802, Note_on_c, 0, 74, 92
2, 328805, Note_off_c, 0, 73, 64
2, 329042, Note_on_c, 0, 73, 92
2, 329045, Note_off_c, 0, 74, 64
2, 329282, Note_on_c, 0, 74, 92
2, 329285, Note_off_c, 0, 73, 64
2, 329522, Note_on_c, 0, 69, 92
2, 329525, Note_off_c, 0, 74, 64
2, 329765, Note_off_c, 0, 69, 64
2, 332882, Note_on_c, 0, 78, 92
2, 333122, Note_on_c, 0, 79, 92
2, 333125, Note_off_c, 0, 78, 64
2, 333182, Note_on_c, 0, 78, 92
2, 333185, Note_off_c, 0, 79, 64
2, 333242, Note_on_c, 0, 76, 92
2, 333245, Note_off_c, 0, 78, 64
2, 333362, Note_on_c, 0, 78, 92
2, 333365, Note_off_c, 0, 76, 64
2, 333602, Note_on_c, 0, 71, 92
2, 333605, Note_off_c, 0, 78, 64
2, 333842, Note_on_c, 0, 73, 92
2, 333845, Note_off_c, 0, 71, 64
2, 333902, Note_on_c, 0, 71, 92
2, 333905, Note_off_c, 0, 73, 64
2, 333962, Note_on_c, 0, 73, 92
2, 333965, Note_off_c, 0, 71, 64
2, 334082, Note_on_c, 0, 74, 92
2, 334085, Note_off_c, 0, 73, 64
2, 334322, Note_on_c, 0, 73, 92
2, 334325, Note_off_c, 0, 74, 64
2, 334442, Note_on_c, 0, 74, 92
2, 334445, Note_off_c, 0, 73, 64
2, 334562, Note_on_c, 0, 71, 92
2, 334565, Note_off_c, 0, 74, 64
2, 334682, Note_on_c, 0, 66, 92
2, 334685, Note_off_c, 0, 71, 64
2, 334802, Note_on_c, 0, 73, 92
2, 334805, Note_off_c, 0, 66, 64
2, 334922, Note_on_c, 0, 66, 92
2, 334925, Note_off_c, 0, 73, 64
2, 335042, Note_on_c, 0, 74, 92
2, 335045, Note_off_c, 0, 66, 64
2, 335162, Note_on_c, 0, 66, 92
2, 335165, Note_off_c, 0, 74, 64
2, 335282, Note_on_c, 0, 73, 92
2, 335285, Note_off_c, 0, 66, 64
2, 335402, Note_on_c, 0, 66, 92
2, 335405, Note_off_c, 0, 73, 64
2, 335522, Note_on_c, 0, 74, 92
2, 335525, Note_off_c, 0, 66, 64
2, 335642, Note_on_c, 0, 71, 92
2, 335645, Note_off_c, 0, 74, 64
2, 335762, Note_on_c, 0, 76, 92
2, 335765, Note_off_c, 0, 71, 64
2, 336002, Note_on_c, 0, 73, 92
2, 336005, Note_off_c, 0, 76, 64
2, 336062, Note_on_c, 0, 74, 92
2, 336065, Note_off_c, 0, 73, 64
2, 336122, Note_on_c, 0, 73, 92
2, 336125, Note_off_c, 0, 74, 64
2, 336242, Note_on_c, 0, 71, 92
2, 336245, Note_off_c, 0, 73, 64
2, 336362, Note_on_c, 0, 73, 92
2, 336365, Note_off_c, 0, 71, 64
2, 336482, Note_on_c, 0, 69, 92
2, 336485, Note_off_c, 0, 73, 64
2, 336602, Note_on_c, 0, 64, 92
2, 336605, Note_off_c, 0, 69, 64
2, 336722, Note_on_c, 0, 71, 92
2, 336725, Note_off_c, 0, 64, 64
2, 336842, Note_on_c, 0, 64, 92
2, 336845, Note_off_c, 0, 71, 64
2, 336962, Note_on_c, 0, 73, 92
2, 336965, Note_off_c, 0, 64, 64
2, 337082, Note_on_c, 0, 64, 92
2, 337085, Note_off_c, 0, 73, 64
2, 337202, Note_on_c, 0, 71, 92
2, 337205, Note_off_c, 0, 64, 64
2, 337322, Note_on_c, 0, 64, 92
2, 337325, Note_off_c, 0, 71, 64
2, 337442, Note_on_c, 0, 73, 92
2, 337445, Note_off_c, 0, 64, 64
2, 337562, Note_on_c, 0, 69, 92
2, 337565, Note_off_c, 0, 73, 64
2, 337682, Note_on_c, 0, 74, 92
2, 337685, Note_off_c, 0, 69, 64
2, 337922, Note_on_c, 0, 73, 92
2, 337925, Note_off_c, 0, 74, 64
2, 338042, Note_on_c, 0, 71, 92
2, 338045, Note_off_c, 0, 73, 64
2, 338162, Note_on_c, 0, 70, 92
2, 338165, Note_off_c, 0, 71, 64
2, 338282, Note_on_c, 0, 71, 92
2, 338285, Note_off_c, 0, 70, 64
2, 338402, Note_on_c, 0, 75, 92
2, 338405, Note_off_c, 0, 71, 64
2, 338522, Note_on_c, 0, 71, 92
2, 338525, Note_off_c, 0, 75, 64
2, 338642, Note_on_c, 0, 70, 92
2, 338645, Note_off_c, 0, 71, 64
2, 338762, Note_on_c, 0, 71, 92
2, 338765, Note_off_c, 0, 70, 64
2, 338882, Note_on_c, 0, 76, 92
2, 338885, Note_off_c, 0, 71, 64
2, 339002, Note_on_c, 0, 71, 92
2, 339005, Note_off_c, 0, 76, 64
2, 339122, Note_on_c, 0, 70, 92
2, 339125, Note_off_c, 0, 71, 64
2, 339242, Note_on_c, 0, 71, 92
2, 339245, Note_off_c, 0, 70, 64
2, 339362, Note_on_c, 0, 77, 92
2, 339365, Note_off_c, 0, 71, 64
2, 339482, Note_on_c, 0, 71, 92
2, 339485, Note_off_c, 0, 77, 64
2, 339602, Note_on_c, 0, 70, 92
2, 339605, Note_off_c, 0, 71, 64
2, 339722, Note_on_c, 0, 71, 92
2, 339725, Note_off_c, 0, 70, 64
2, 339842, Note_on_c, 0, 78, 92
2, 339845, Note_off_c, 0, 71, 64
2, 341882, Note_on_c, 0, 78, 92
2, 341885, Note_off_c, 0, 78, 64
2, 342002, Note_on_c, 0, 79, 92
2, 342005, Note_off_c, 0, 78, 64
2, 342122, Note_on_c, 0, 81, 92
2, 342125, Note_off_c, 0, 79, 64
2, 342242, Note_on_c, 0, 71, 92
2, 342245, Note_off_c, 0, 81, 64
2, 342362, Note_on_c, 0, 81, 92
2, 342365, Note_off_c, 0, 71, 64
2, 342482, Note_on_c, 0, 79, 92
2, 342485, Note_off_c, 0, 81, 64
2, 342602, Note_on_c, 0, 78, 92
2, 342605, Note_off_c, 0, 79, 64
2, 342722, Note_on_c, 0, 79, 92
2, 342725, Note_off_c, 0, 78, 64
2, 342842, Note_on_c, 0, 76, 92
2, 342845, Note_off_c, 0, 79, 64
2, 342962, Note_on_c, 0, 78, 92
2, 342965, Note_off_c, 0, 76, 64
2, 343082, Note_on_c, 0, 79, 92
2, 343085, Note_off_c, 0, 78, 64
2, 343202, Note_on_c, 0, 75, 92
2, 343205, Note_off_c, 0, 79, 64
2, 343322, Note_on_c, 0, 78, 92
2, 343325, Note_off_c, 0, 75, 64
2, 343442, Note_on_c, 0, 76, 92
2, 343445, Note_off_c, 0, 78, 64
2, 343562, Note_on_c, 0, 75, 92
2, 343565, Note_off_c, 0, 76, 64
2, 343682, Note_on_c, 0, 76, 92
2, 343685, Note_off_c, 0, 75, 64
2, 345722, Note_on_c, 0, 76, 92
2, 345725, Note_off_c, 0, 76, 64
2, 345842, Note_on_c, 0, 78, 92
2, 345845, Note_off_c, 0, 76, 64
2, 345962, Note_on_c, 0, 79, 92
2, 345965, Note_off_c, 0, 78, 64
2, 346082, Note_on_c, 0, 69, 92
2, 346085, Note_off_c, 0, 79, 64
2, 346202, Note_on_c, 0, 79, 92
2, 346205, Note_off_c, 0, 69, 64
2, 346322, Note_on_c, 0, 78, 92
2, 346325, Note_off_c, 0, 79, 64
2, 346442, Note_on_c, 0, 76, 92
2, 346445, Note_off_c, 0, 78, 64
2, 346562, Note_on_c, 0, 78, 92
2, 346565, Note_off_c, 0, 76, 64
2, 346682, Note_on_c, 0, 74, 92
2, 346685, Note_off_c, 0, 78, 64
2, 346802, Note_on_c, 0, 76, 92
2, 346805, Note_off_c, 0, 74, 64
2, 346922, Note_on_c, 0, 78, 92
2, 346925, Note_off_c, 0, 76, 64
2, 347042, Note_on_c, 0, 73, 92
2, 347045, Note_off_c, 0, 78, 64
2, 347162, Note_on_c, 0, 76, 92
2, 347165, Note_off_c, 0, 73, 64
2, 347282, Note_on_c, 0, 74, 92
2, 347285, Note_off_c, 0, 76, 64
2, 347402, Note_on_c, 0, 73, 92
2, 347405, Note_off_c, 0, 74, 64
2, 347522, Note_on_c, 0, 74, 92
2, 347525, Note_off_c, 0, 73, 64
2, 348602, Note_on_c, 0, 71, 92
2, 348605, Note_off_c, 0, 74, 64
2, 348722, Note_on_c, 0, 72, 92
2, 348725, Note_off_c, 0, 71, 64
2, 348842, Note_on_c, 0, 74, 92
2, 348845, Note_off_c, 0, 72, 64
2, 348962, Note_on_c, 0, 62, 92
2, 348965, Note_off_c, 0, 74, 64
2, 349082, Note_on_c, 0, 72, 92
2, 349085, Note_off_c, 0, 62, 64
2, 349202, Note_on_c, 0, 71, 92
2, 349205, Note_off_c, 0, 72, 64
2, 349322, Note_on_c, 0, 69, 92
2, 349325, Note_off_c, 0, 71, 64
2, 349442, Note_on_c, 0, 71, 92
2, 349445, Note_off_c, 0, 69, 64
2, 349562, Note_on_c, 0, 67, 92
2, 349565, Note_off_c, 0, 71, 64
2, 349682, Note_on_c, 0, 69, 92
2, 349685, Note_off_c, 0, 67, 64
2, 349802, Note_on_c, 0, 71, 92
2, 349805, Note_off_c, 0, 69, 64
2, 349922, Note_on_c, 0, 62, 92
2, 349925, Note_off_c, 0, 71, 64
2, 350042, Note_on_c, 0, 69, 92
2, 350045, Note_off_c, 0, 62, 64
2, 350162, Note_on_c, 0, 67, 92
2, 350165, Note_off_c, 0, 69, 64
2, 350282, Note_on_c, 0, 66, 92
2, 350285, Note_off_c, 0, 67, 64
2, 350402, Note_on_c, 0, 67, 92
2, 350405, Note_off_c, 0, 66, 64
2, 351002, Note_on_c, 0, 66, 92
2, 351005, Note_off_c, 0, 67, 64
2, 351122, Note_on_c, 0, 64, 92
2, 351125, Note_off_c, 0, 66, 64
2, 351242, Note_on_c, 0, 69, 92
2, 351245, Note_off_c, 0, 64, 64
2, 351362, Note_on_c, 0, 62, 92
2, 351365, Note_off_c, 0, 69, 64
2, 351602, Note_on_c, 0, 69, 92
2, 351605, Note_off_c, 0, 62, 64
2, 351662, Note_on_c, 0, 71, 92
2, 351665, Note_off_c, 0, 69, 64
2, 351722, Note_on_c, 0, 72, 92
2, 351725, Note_off_c, 0, 71, 64
2, 351842, Note_on_c, 0, 71, 92
2, 351845, Note_off_c, 0, 72, 64
2, 352082, Note_on_c, 0, 69, 92
2, 352085, Note_off_c, 0, 71, 64
2, 352112, Note_on_c, 0, 67, 92
2, 352115, Note_off_c, 0, 69, 64
2, 352142, Note_on_c, 0, 69, 92
2, 352145, Note_off_c, 0, 67, 64
2, 352322, Note_on_c, 0, 71, 92
2, 352325, Note_off_c, 0, 69, 64
2, 352382, Note_on_c, 0, 72, 92
2, 352385, Note_off_c, 0, 71, 64
2, 352442, Note_on_c, 0, 71, 92
2, 352445, Note_off_c, 0, 72, 64
2, 352565, Note_off_c, 0, 71, 64
2, 353282, Note_on_c, 0, 74, 92
2, 353882, Note_on_c, 0, 73, 92
2, 353885, Note_off_c, 0, 74, 64
2, 354002, Note_on_c, 0, 71, 92
2, 354005, Note_off_c, 0, 73, 64
2, 354122, Note_on_c, 0, 76, 92
2, 354125, Note_off_c, 0, 71, 64
2, 354242, Note_on_c, 0, 69, 92
2, 354245, Note_off_c, 0, 76, 64
2, 354482, Note_on_c, 0, 76, 92
2, 354485, Note_off_c, 0, 69, 64
2, 354542, Note_on_c, 0, 78, 92
2, 354545, Note_off_c, 0, 76, 64
2, 354602, Note_on_c, 0, 79, 92
2, 354605, Note_off_c, 0, 78, 64
2, 354722, Note_on_c, 0, 78, 92
2, 354725, Note_off_c, 0, 79, 64
2, 354962, Note_on_c, 0, 76, 92
2, 354965, Note_off_c, 0, 78, 64
2, 355022, Note_on_c, 0, 78, 92
2, 355025, Note_off_c, 0, 76, 64
2, 355082, Note_on_c, 0, 76, 92
2, 355085, Note_off_c, 0, 78, 64
2, 355202, Note_on_c, 0, 78, 92
2, 355205, Note_off_c, 0, 76, 64
2, 355322, Note_on_c, 0, 74, 92
2, 355325, Note_off_c, 0, 78, 64
2, 355442, Note_on_c, 0, 78, 92
2, 355445, Note_off_c, 0, 74, 64
2, 355562, Note_on_c, 0, 81, 92
2, 355565, Note_off_c, 0, 78, 64
2, 355682, Note_on_c, 0, 79, 92
2, 355685, Note_off_c, 0, 81, 64
2, 355922, Note_on_c, 0, 78, 92
2, 355925, Note_off_c, 0, 79, 64
2, 356162, Note_on_c, 0, 76, 92
2, 356165, Note_off_c, 0, 78, 64
2, 356402, Note_on_c, 0, 69, 92
2, 356405, Note_off_c, 0, 76, 64
2, 356645, Note_off_c, 0, 69, 64
2, 356882, Note_on_c, 0, 81, 92
2, 357242, Note_on_c, 0, 78, 92
2, 357245, Note_off_c, 0, 81, 64
2, 357362, Note_on_c, 0, 79, 92
2, 357365, Note_off_c, 0, 78, 64
2, 357482, Note_on_c, 0, 83, 92
2, 357485, Note_off_c, 0, 79, 64
2, 357602, Note_on_c, 0, 81, 92
2, 357605, Note_off_c, 0, 83, 64
2, 357842, Note_on_c, 0, 79, 92
2, 357845, Note_off_c, 0, 81, 64
2, 358082, Note_on_c, 0, 78, 92
2, 358085, Note_off_c, 0, 79, 64
2, 358322, Note_on_c, 0, 71, 92
2, 358325, Note_off_c, 0, 78, 64
2, 358565, Note_off_c, 0, 71, 64
2, 358802, Note_on_c, 0, 83, 92
2, 359162, Note_on_c, 0, 79, 92
2, 359165, Note_off_c, 0, 83, 64
2, 359282, Note_on_c, 0, 81, 92
2, 359285, Note_off_c, 0, 79, 64
2, 359402, Note_on_c, 0, 78, 92
2, 359405, Note_off_c, 0, 81, 64
2, 359522, Note_on_c, 0, 75, 92
2, 359525, Note_off_c, 0, 78, 64
2, 359642, Note_on_c, 0, 73, 92
2, 359645, Note_off_c, 0, 75, 64
2, 359762, Note_on_c, 0, 75, 92
2, 359765, Note_off_c, 0, 73, 64
2, 359882, Note_on_c, 0, 78, 92
2, 359885, Note_off_c, 0, 75, 64
2, 360002, Note_on_c, 0, 81, 92
2, 360005, Note_off_c, 0, 78, 64
2, 360122, Note_on_c, 0, 78, 92
2, 360125, Note_off_c, 0, 81, 64
2, 360242, Note_on_c, 0, 79, 92
2, 360245, Note_off_c, 0, 78, 64
2, 360362, Note_on_c, 0, 76, 92
2, 360365, Note_off_c, 0, 79, 64
2, 360482, Note_on_c, 0, 73, 92
2, 360485, Note_off_c, 0, 76, 64
2, 360602, Note_on_c, 0, 71, 92
2, 360605, Note_off_c, 0, 73, 64
2, 360722, Note_on_c, 0, 73, 92
2, 360725, Note_off_c, 0, 71, 64
2, 360842, Note_on_c, 0, 76, 92
2, 360845, Note_off_c, 0, 73, 64
2, 360962, Note_on_c, 0, 79, 92
2, 360965, Note_off_c, 0, 76, 64
2, 361202, Note_on_c, 0, 78, 92
2, 361205, Note_off_c, 0, 79, 64
2, 361445, Note_off_c, 0, 78, 64
2, 361682, Note_on_c, 0, 71, 92
2, 362162, Note_on_c, 0, 69, 92
2, 362165, Note_off_c, 0, 71, 64
2, 362405, Note_off_c, 0, 69, 64
2, 362642, Note_on_c, 0, 81, 92
2, 363002, Note_on_c, 0, 78, 92
2, 363005, Note_off_c, 0, 81, 64
2, 363122, Note_on_c, 0, 79, 92
2, 363125, Note_off_c, 0, 78, 64
2, 363242, Note_on_c, 0, 76, 92
2, 363245, Note_off_c, 0, 79, 64
2, 363362, Note_on_c, 0, 73, 92
2, 363365, Note_off_c, 0, 76, 64
2, 363482, Note_on_c, 0, 71, 92
2, 363485, Note_off_c, 0, 73, 64
2, 363602, Note_on_c, 0, 73, 92
2, 363605, Note_off_c, 0, 71, 64
2, 363722, Note_on_c, 0, 76, 92
2, 363725, Note_off_c, 0, 73, 64
2, 363842, Note_on_c, 0, 79, 92
2, 363845, Note_off_c, 0, 76, 64
2, 363962, Note_on_c, 0, 76, 92
2, 363965, Note_off_c, 0, 79, 64
2, 364082, Note_on_c, 0, 78, 92
2, 364085, Note_off_c, 0, 76, 64
2, 364202, Note_on_c, 0, 74, 92
2, 364205, Note_off_c, 0, 78, 64
2, 364322, Note_on_c, 0, 71, 92
2, 364325, Note_off_c, 0, 74, 64
2, 364442, Note_on_c, 0, 69, 92
2, 364445, Note_off_c, 0, 71, 64
2, 364562, Note_on_c, 0, 71, 92
2, 364565, Note_off_c, 0, 69, 64
2, 364682, Note_on_c, 0, 74, 92
2, 364685, Note_off_c, 0, 71, 64
2, 364805, Note_off_c, 0, 74, 64
2, 365042, Note_on_c, 0, 77, 92
2, 365282, Note_on_c, 0, 76, 92
2, 365285, Note_off_c, 0, 77, 64
2, 365522, Note_on_c, 0, 69, 92
2, 365525, Note_off_c, 0, 76, 64
2, 366002, Note_on_c, 0, 67, 92
2, 366005, Note_off_c, 0, 69, 64
2, 366245, Note_off_c, 0, 67, 64
2, 366482, Note_on_c, 0, 79, 92
2, 366842, Note_on_c, 0, 76, 92
2, 366845, Note_off_c, 0, 79, 64
2, 366962, Note_on_c, 0, 78, 92
2, 366965, Note_off_c, 0, 76, 64
2, 367082, Note_on_c, 0, 74, 92
2, 367085, Note_off_c, 0, 78, 64
2, 367202, Note_on_c, 0, 71, 92
2, 367205, Note_off_c, 0, 74, 64
2, 367322, Note_on_c, 0, 69, 92
2, 367325, Note_off_c, 0, 71, 64
2, 367442, Note_on_c, 0, 71, 92
2, 367445, Note_off_c, 0, 69, 64
2, 367562, Note_on_c, 0, 78, 92
2, 367565, Note_off_c, 0, 71, 64
2, 367682, Note_on_c, 0, 81, 92
2, 367685, Note_off_c, 0, 78, 64
2, 367802, Note_on_c, 0, 78, 92
2, 367805, Note_off_c, 0, 81, 64
2, 367922, Note_on_c, 0, 79, 92
2, 367925, Note_off_c, 0, 78, 64
2, 368042, Note_on_c, 0, 76, 92
2, 368045, Note_off_c, 0, 79, 64
2, 368162, Note_on_c, 0, 73, 92
2, 368165, Note_off_c, 0, 76, 64
2, 368282, Note_on_c, 0, 71, 92
2, 368285, Note_off_c, 0, 73, 64
2, 368402, Note_on_c, 0, 73, 92
2, 368405, Note_off_c, 0, 71, 64
2, 368522, Note_on_c, 0, 80, 92
2, 368525, Note_off_c, 0, 73, 64
2, 368642, Note_on_c, 0, 83, 92
2, 368645, Note_off_c, 0, 80, 64
2, 368882, Note_on_c, 0, 82, 92
2, 368885, Note_off_c, 0, 83, 64
2, 369125, Note_off_c, 0, 82, 64
2, 369362, Note_on_c, 0, 78, 92
2, 369602, Note_on_c, 0, 79, 92
2, 369605, Note_off_c, 0, 78, 64
2, 369662, Note_on_c, 0, 78, 92
2, 369665, Note_off_c, 0, 79, 64
2, 369722, Note_on_c, 0, 76, 92
2, 369725, Note_off_c, 0, 78, 64
2, 369842, Note_on_c, 0, 78, 92
2, 369845, Note_off_c, 0, 76, 64
2, 370082, Note_on_c, 0, 71, 92
2, 370085, Note_off_c, 0, 78, 64
2, 370322, Note_on_c, 0, 73, 92
2, 370325, Note_off_c, 0, 71, 64
2, 370562, Note_on_c, 0, 74, 92
2, 370565, Note_off_c, 0, 73, 64
2, 370622, Note_on_c, 0, 76, 92
2, 370625, Note_off_c, 0, 74, 64
2, 370682, Note_on_c, 0, 74, 92
2, 370685, Note_off_c, 0, 76, 64
2, 370802, Note_on_c, 0, 73, 92
2, 370805, Note_off_c, 0, 74, 64
2, 370922, Note_on_c, 0, 74, 92
2, 370925, Note_off_c, 0, 73, 64
2, 371042, Note_on_c, 0, 71, 92
2, 371045, Note_off_c, 0, 74, 64
2, 371162, Note_on_c, 0, 66, 92
2, 371165, Note_off_c, 0, 71, 64
2, 371282, Note_on_c, 0, 73, 92
2, 371285, Note_off_c, 0, 66, 64
2, 371402, Note_on_c, 0, 66, 92
2, 371405, Note_off_c, 0, 73, 64
2, 371522, Note_on_c, 0, 74, 92
2, 371525, Note_off_c, 0, 66, 64
2, 371642, Note_on_c, 0, 66, 92
2, 371645, Note_off_c, 0, 74, 64
2, 371762, Note_on_c, 0, 73, 92
2, 371765, Note_off_c, 0, 66, 64
2, 371882, Note_on_c, 0, 66, 92
2, 371885, Note_off_c, 0, 73, 64
2, 372002, Note_on_c, 0, 74, 92
2, 372005, Note_off_c, 0, 66, 64
2, 372122, Note_on_c, 0, 71, 92
2, 372125, Note_off_c, 0, 74, 64
2, 372242, Note_on_c, 0, 76, 92
2, 372245, Note_off_c, 0, 71, 64
2, 372482, Note_on_c, 0, 73, 92
2, 372485, Note_off_c, 0, 76, 64
2, 372542, Note_on_c, 0, 74, 92
2, 372545, Note_off_c, 0, 73, 64
2, 372602, Note_on_c, 0, 73, 92
2, 372605, Note_off_c, 0, 74, 64
2, 372722, Note_on_c, 0, 71, 92
2, 372725, Note_off_c, 0, 73, 64
2, 372842, Note_on_c, 0, 73, 92
2, 372845, Note_off_c, 0, 71, 64
2, 372962, Note_on_c, 0, 69, 92
2, 372965, Note_off_c, 0, 73, 64
2, 373082, Note_on_c, 0, 64, 92
2, 373085, Note_off_c, 0, 69, 64
2, 373202, Note_on_c, 0, 71, 92
2, 373205, Note_off_c, 0, 64, 64
2, 373322, Note_on_c, 0, 64, 92
2, 373325, Note_off_c, 0, 71, 64
2, 373442, Note_on_c, 0, 73, 92
2, 373445, Note_off_c, 0, 64, 64
2, 373562, Note_on_c, 0, 64, 92
2, 373565, Note_off_c, 0, 73, 64
2, 373682, Note_on_c, 0, 71, 92
2, 373685, Note_off_c, 0, 64, 64
2, 373802, Note_on_c, 0, 64, 92
2, 373805, Note_off_c, 0, 71, 64
2, 373922, Note_on_c, 0, 73, 92
2, 373925, Note_off_c, 0, 64, 64
2, 374042, Note_on_c, 0, 69, 92
2, 374045, Note_off_c, 0, 73, 64
2, 374162, Note_on_c, 0, 74, 92
2, 374165, Note_off_c, 0, 69, 64
2, 374402, Note_on_c, 0, 72, 92
2, 374405, Note_off_c, 0, 74, 64
2, 374522, Note_on_c, 0, 71, 92
2, 374525, Note_off_c, 0, 72, 64
2, 374642, Note_on_c, 0, 70, 92
2, 374645, Note_off_c, 0, 71, 64
2, 374762, Note_on_c, 0, 71, 92
2, 374765, Note_off_c, 0, 70, 64
2, 374882, Note_on_c, 0, 75, 92
2, 374885, Note_off_c, 0, 71, 64
2, 375002, Note_on_c, 0, 71, 92
2, 375005, Note_off_c, 0, 75, 64
2, 375122, Note_on_c, 0, 70, 92
2, 375125, Note_off_c, 0, 71, 64
2, 375242, Note_on_c, 0, 71, 92
2, 375245, Note_off_c, 0, 70, 64
2, 375362, Note_on_c, 0, 76, 92
2, 375365, Note_off_c, 0, 71, 64
2, 375482, Note_on_c, 0, 71, 92
2, 375485, Note_off_c, 0, 76, 64
2, 375602, Note_on_c, 0, 70, 92
2, 375605, Note_off_c, 0, 71, 64
2, 375722, Note_on_c, 0, 71, 92
2, 375725, Note_off_c, 0, 70, 64
2, 375842, Note_on_c, 0, 78, 92
2, 375845, Note_off_c, 0, 71, 64
2, 375962, Note_on_c, 0, 71, 92
2, 375965, Note_off_c, 0, 78, 64
2, 376082, Note_on_c, 0, 70, 92
2, 376085, Note_off_c, 0, 71, 64
2, 376202, Note_on_c, 0, 71, 92
2, 376205, Note_off_c, 0, 70, 64
2, 376322, Note_on_c, 0, 79, 92
2, 376325, Note_off_c, 0, 71, 64
2, 377402, Note_on_c, 0, 78, 92
2, 377405, Note_off_c, 0, 79, 64
2, 377522, Note_on_c, 0, 79, 92
2, 377525, Note_off_c, 0, 78, 64
2, 377642, Note_on_c, 0, 76, 92
2, 377645, Note_off_c, 0, 79, 64
2, 377762, Note_on_c, 0, 73, 92
2, 377765, Note_off_c, 0, 76, 64
2, 377882, Note_on_c, 0, 76, 92
2, 377885, Note_off_c, 0, 73, 64
2, 378002, Note_on_c, 0, 81, 92
2, 378005, Note_off_c, 0, 76, 64
2, 378122, Note_on_c, 0, 75, 92
2, 378125, Note_off_c, 0, 81, 64
2, 378242, Note_on_c, 0, 76, 92
2, 378245, Note_off_c, 0, 75, 64
2, 378482, Note_on_c, 0, 75, 92
2, 378485, Note_off_c, 0, 76, 64
2, 378722, Note_on_c, 0, 76, 92
2, 378725, Note_off_c, 0, 75, 64
2, 378962, Note_on_c, 0, 75, 92
2, 378965, Note_off_c, 0, 76, 64
2, 379202, Note_on_c, 0, 76, 92
2, 379205, Note_off_c, 0, 75, 64
2, 379442, Note_on_c, 0, 71, 92
2, 379445, Note_off_c, 0, 76, 64
2, 379685, Note_off_c, 0, 71, 64
2, 380402, Note_on_c, 0, 73, 92
2, 380642, Note_on_c, 0, 74, 92
2, 380645, Note_off_c, 0, 73, 64
2, 380882, Note_on_c, 0, 73, 92
2, 380885, Note_off_c, 0, 74, 64
2, 381122, Note_on_c, 0, 74, 92
2, 381125, Note_off_c, 0, 73, 64
2, 381362, Note_on_c, 0, 69, 92
2, 381365, Note_off_c, 0, 74, 64
2, 381605, Note_off_c, 0, 69, 64
2, 382322, Note_on_c, 0, 69, 92
2, 382562, Note_on_c, 0, 71, 92
2, 382565, Note_off_c, 0, 69, 64
2, 382802, Note_on_c, 0, 68, 92
2, 382805, Note_off_c, 0, 71, 64
2, 383042, Note_on_c, 0, 72, 92
2, 383045, Note_off_c, 0, 68, 64
2, 383282, Note_on_c, 0, 69, 92
2, 383285, Note_off_c, 0, 72, 64
2, 383522, Note_on_c, 0, 74, 92
2, 383525, Note_off_c, 0, 69, 64
2, 383762, Note_on_c, 0, 71, 92
2, 383765, Note_off_c, 0, 74, 64
2, 384002, Note_on_c, 0, 76, 92
2, 384005, Note_off_c, 0, 71, 64
2, 384122, Note_on_c, 0, 69, 92
2, 384125, Note_off_c, 0, 76, 64
2, 384242, Note_on_c, 0, 68, 92
2, 384245, Note_off_c, 0, 69, 64
2, 384362, Note_on_c, 0, 69, 92
2, 384365, Note_off_c, 0, 68, 64
2, 384482, Note_on_c, 0, 73, 92
2, 384485, Note_off_c, 0, 69, 64
2, 384602, Note_on_c, 0, 69, 92
2, 384605, Note_off_c, 0, 73, 64
2, 384722, Note_on_c, 0, 68, 92
2, 384725, Note_off_c, 0, 69, 64
2, 384842, Note_on_c, 0, 69, 92
2, 384845, Note_off_c, 0, 68, 64
2, 384962, Note_on_c, 0, 74, 92
2, 384965, Note_off_c, 0, 69, 64
2, 385082, Note_on_c, 0, 69, 92
2, 385085, Note_off_c, 0, 74, 64
2, 385202, Note_on_c, 0, 68, 92
2, 385205, Note_off_c, 0, 69, 64
2, 385322, Note_on_c, 0, 69, 92
2, 385325, Note_off_c, 0, 68, 64
2, 385442, Note_on_c, 0, 76, 92
2, 385445, Note_off_c, 0, 69, 64
2, 385562, Note_on_c, 0, 69, 92
2, 385565, Note_off_c, 0, 76, 64
2, 385682, Note_on_c, 0, 68, 92
2, 385685, Note_off_c, 0, 69, 64
2, 385802, Note_on_c, 0, 69, 92
2, 385805, Note_off_c, 0, 68, 64
2, 385922, Note_on_c, 0, 78, 92
2, 385925, Note_off_c, 0, 69, 64
2, 386042, Note_on_c, 0, 78, 92
2, 386045, Note_off_c, 0, 78, 64
2, 386162, Note_on_c, 0, 79, 92
2, 386165, Note_off_c, 0, 78, 64
2, 386282, Note_on_c, 0, 78, 92
2, 386285, Note_off_c, 0, 79, 64
2, 386402, Note_on_c, 0, 69, 92
2, 386405, Note_off_c, 0, 78, 64
2, 386522, Note_on_c, 0, 78, 92
2, 386525, Note_off_c, 0, 69, 64
2, 386642, Note_on_c, 0, 79, 92
2, 386645, Note_off_c, 0, 78, 64
2, 386762, Note_on_c, 0, 78, 92
2, 386765, Note_off_c, 0, 79, 64
2, 386882, Note_on_c, 0, 71, 92
2, 386885, Note_off_c, 0, 78, 64
2, 387002, Note_on_c, 0, 78, 92
2, 387005, Note_off_c, 0, 71, 64
2, 387122, Note_on_c, 0, 79, 92
2, 387125, Note_off_c, 0, 78, 64
2, 387242, Note_on_c, 0, 78, 92
2, 387245, Note_off_c, 0, 79, 64
2, 387362, Note_on_c, 0, 72, 92
2, 387365, Note_off_c, 0, 78, 64
2, 387482, Note_on_c, 0, 78, 92
2, 387485, Note_off_c, 0, 72, 64
2, 387602, Note_on_c, 0, 79, 92
2, 387605, Note_off_c, 0, 78, 64
2, 387722, Note_on_c, 0, 78, 92
2, 387725, Note_off_c, 0, 79, 64
2, 387842, Note_on_c, 0, 79, 92
2, 387845, Note_off_c, 0, 78, 64
2, 387962, Note_on_c, 0, 67, 92
2, 387965, Note_off_c, 0, 79, 64
2, 388082, Note_on_c, 0, 66, 92
2, 388085, Note_off_c, 0, 67, 64
2, 388202, Note_on_c, 0, 67, 92
2, 388205, Note_off_c, 0, 66, 64
2, 388322, Note_on_c, 0, 71, 92
2, 388325, Note_off_c, 0, 67, 64
2, 388442, Note_on_c, 0, 67, 92
2, 388445, Note_off_c, 0, 71, 64
2, 388562, Note_on_c, 0, 66, 92
2, 388565, Note_off_c, 0, 67, 64
2, 388682, Note_on_c, 0, 67, 92
2, 388685, Note_off_c, 0, 66, 64
2, 388802, Note_on_c, 0, 72, 92
2, 388805, Note_off_c, 0, 67, 64
2, 388922, Note_on_c, 0, 67, 92
2, 388925, Note_off_c, 0, 72, 64
2, 389042, Note_on_c, 0, 66, 92
2, 389045, Note_off_c, 0, 67, 64
2, 389162, Note_on_c, 0, 67, 92
2, 389165, Note_off_c, 0, 66, 64
2, 389282, Note_on_c, 0, 74, 92
2, 389285, Note_off_c, 0, 67, 64
2, 389402, Note_on_c, 0, 67, 92
2, 389405, Note_off_c, 0, 74, 64
2, 389522, Note_on_c, 0, 66, 92
2, 389525, Note_off_c, 0, 67, 64
2, 389642, Note_on_c, 0, 67, 92
2, 389645, Note_off_c, 0, 66, 64
2, 389762, Note_on_c, 0, 76, 92
2, 389765, Note_off_c, 0, 67, 64
2, 389882, Note_on_c, 0, 74, 92
2, 389885, Note_off_c, 0, 76, 64
2, 390002, Note_on_c, 0, 72, 92
2, 390005, Note_off_c, 0, 74, 64
2, 390362, Note_on_c, 0, 71, 92
2, 390365, Note_off_c, 0, 72, 64
2, 390482, Note_on_c, 0, 69, 92
2, 390485, Note_off_c, 0, 71, 64
2, 390602, Note_on_c, 0, 74, 92
2, 390605, Note_off_c, 0, 69, 64
2, 390722, Note_on_c, 0, 67, 92
2, 390725, Note_off_c, 0, 74, 64
2, 390962, Note_on_c, 0, 74, 92
2, 390965, Note_off_c, 0, 67, 64
2, 391022, Note_on_c, 0, 76, 92
2, 391025, Note_off_c, 0, 74, 64
2, 391082, Note_on_c, 0, 77, 92
2, 391085, Note_off_c, 0, 76, 64
2, 391202, Note_on_c, 0, 76, 92
2, 391205, Note_off_c, 0, 77, 64
2, 391442, Note_on_c, 0, 74, 92
2, 391445, Note_off_c, 0, 76, 64
2, 391502, Note_on_c, 0, 72, 92
2, 391505, Note_off_c, 0, 74, 64
2, 391562, Note_on_c, 0, 74, 92
2, 391565, Note_off_c, 0, 72, 64
2, 391682, Note_on_c, 0, 76, 92
2, 391685, Note_off_c, 0, 74, 64
2, 391802, Note_on_c, 0, 72, 92
2, 391805, Note_off_c, 0, 76, 64
2, 391922, Note_on_c, 0, 76, 92
2, 391925, Note_off_c, 0, 72, 64
2, 392042, Note_on_c, 0, 79, 92
2, 392045, Note_off_c, 0, 76, 64
2, 392162, Note_on_c, 0, 77, 92
2, 392165, Note_off_c, 0, 79, 64
2, 392402, Note_on_c, 0, 76, 92
2, 392405, Note_off_c, 0, 77, 64
2, 392462, Note_on_c, 0, 77, 92
2, 392465, Note_off_c, 0, 76, 64
2, 392522, Note_on_c, 0, 76, 92
2, 392525, Note_off_c, 0, 77, 64
2, 392642, Note_on_c, 0, 74, 92
2, 392645, Note_off_c, 0, 76, 64
2, 392882, Note_on_c, 0, 67, 92
2, 392885, Note_off_c, 0, 74, 64
2, 393122, Note_on_c, 0, 79, 92
2, 393125, Note_off_c, 0, 67, 64
2, 393842, Note_on_c, 0, 78, 92
2, 393845, Note_off_c, 0, 79, 64
2, 393962, Note_on_c, 0, 76, 92
2, 393965, Note_off_c, 0, 78, 64
2, 394082, Note_on_c, 0, 78, 92
2, 394085, Note_off_c, 0, 76, 64
2, 394142, Note_on_c, 0, 79, 92
2, 394145, Note_off_c, 0, 78, 64
2, 394202, Note_on_c, 0, 78, 92
2, 394205, Note_off_c, 0, 79, 64
2, 394442, Note_on_c, 0, 76, 92
2, 394445, Note_off_c, 0, 78, 64
2, 394502, Note_on_c, 0, 78, 92
2, 394505, Note_off_c, 0, 76, 64
2, 394562, Note_on_c, 0, 79, 92
2, 394565, Note_off_c, 0, 78, 64
2, 395045, Note_off_c, 0, 79, 64
2, 395282, Note_on_c, 0, 67, 92
2, 395522, Note_on_c, 0, 66, 92
2, 395525, Note_off_c, 0, 67, 64
2, 395642, Note_on_c, 0, 62, 92
2, 395645, Note_off_c, 0, 66, 64
2, 395762, Note_on_c, 0, 66, 92
2, 395765, Note_off_c, 0, 62, 64
2, 395882, Note_on_c, 0, 69, 92
2, 395885, Note_off_c, 0, 66, 64
2, 396002, Note_on_c, 0, 72, 92
2, 396005, Note_off_c, 0, 69, 64
2, 396122, Note_on_c, 0, 71, 92
2, 396125, Note_off_c, 0, 72, 64
2, 396242, Note_on_c, 0, 72, 92
2, 396245, Note_off_c, 0, 71, 64
2, 396485, Note_off_c, 0, 72, 64
2, 396602, Note_on_c, 0, 62, 92
2, 396722, Note_on_c, 0, 66, 92
2, 396725, Note_off_c, 0, 62, 64
2, 396842, Note_on_c, 0, 69, 92
2, 396845, Note_off_c, 0, 66, 64
2, 396962, Note_on_c, 0, 72, 92
2, 396965, Note_off_c, 0, 69, 64
2, 397082, Note_on_c, 0, 71, 92
2, 397085, Note_off_c, 0, 72, 64
2, 397202, Note_on_c, 0, 72, 92
2, 397205, Note_off_c, 0, 71, 64
2, 397445, Note_off_c, 0, 72, 64
2, 397562, Note_on_c, 0, 62, 92
2, 397682, Note_on_c, 0, 66, 92
2, 397685, Note_off_c, 0, 62, 64
2, 397802, Note_on_c, 0, 69, 92
2, 397805, Note_off_c, 0, 66, 64
2, 397922, Note_on_c, 0, 72, 92
2, 397925, Note_off_c, 0, 69, 64
2, 398042, Note_on_c, 0, 71, 92
2, 398045, Note_off_c, 0, 72, 64
2, 398162, Note_on_c, 0, 69, 92
2, 398165, Note_off_c, 0, 71, 64
2, 398282, Note_on_c, 0, 67, 92
2, 398285, Note_off_c, 0, 69, 64
2, 398402, Note_on_c, 0, 66, 92
2, 398405, Note_off_c, 0, 67, 64
2, 398522, Note_on_c, 0, 62, 92
2, 398525, Note_off_c, 0, 66, 64
2, 398642, Note_on_c, 0, 66, 92
2, 398645, Note_off_c, 0, 62, 64
2, 398762, Note_on_c, 0, 69, 92
2, 398765, Note_off_c, 0, 66, 64
2, 398882, Note_on_c, 0, 74, 92
2, 398885, Note_off_c, 0, 69, 64
2, 399002, Note_on_c, 0, 72, 92
2, 399005, Note_off_c, 0, 74, 64
2, 399122, Note_on_c, 0, 71, 92
2, 399125, Note_off_c, 0, 72, 64
2, 399242, Note_on_c, 0, 69, 92
2, 399245, Note_off_c, 0, 71, 64
2, 399362, Note_on_c, 0, 71, 92
2, 399365, Note_off_c, 0, 69, 64
2, 399482, Note_on_c, 0, 69, 92
2, 399485, Note_off_c, 0, 71, 64
2, 399602, Note_on_c, 0, 67, 92
2, 399605, Note_off_c, 0, 69, 64
2, 399962, Note_on_c, 0, 66, 92
2, 399965, Note_off_c, 0, 67, 64
2, 400082, Note_on_c, 0, 64, 92
2, 400085, Note_off_c, 0, 66, 64
2, 400202, Note_on_c, 0, 69, 92
2, 400205, Note_off_c, 0, 64, 64
2, 400322, Note_on_c, 0, 62, 92
2, 400325, Note_off_c, 0, 69, 64
2, 400562, Note_on_c, 0, 69, 92
2, 400565, Note_off_c, 0, 62, 64
2, 400622, Note_on_c, 0, 71, 92
2, 400625, Note_off_c, 0, 69, 64
2, 400682, Note_on_c, 0, 72, 92
2, 400685, Note_off_c, 0, 71, 64
2, 400802, Note_on_c, 0, 71, 92
2, 400805, Note_off_c, 0, 72, 64
2, 401042, Note_on_c, 0, 69, 92
2, 401045, Note_off_c, 0, 71, 64
2, 401102, Note_on_c, 0, 71, 92
2, 401105, Note_off_c, 0, 69, 64
2, 401162, Note_on_c, 0, 69, 92
2, 401165, Note_off_c, 0, 71, 64
2, 401282, Note_on_c, 0, 71, 92
2, 401285, Note_off_c, 0, 69, 64
2, 401402, Note_on_c, 0, 67, 92
2, 401405, Note_off_c, 0, 71, 64
2, 401522, Note_on_c, 0, 71, 92
2, 401525, Note_off_c, 0, 67, 64
2, 401642, Note_on_c, 0, 74, 92
2, 401645, Note_off_c, 0, 71, 64
2, 401762, Note_on_c, 0, 72, 92
2, 401765, Note_off_c, 0, 74, 64
2, 402002, Note_on_c, 0, 71, 92
2, 402005, Note_off_c, 0, 72, 64
2, 402242, Note_on_c, 0, 69, 92
2, 402245, Note_off_c, 0, 71, 64
2, 402482, Note_on_c, 0, 62, 92
2, 402485, Note_off_c, 0, 69, 64
2, 402722, Note_on_c, 0, 74, 92
2, 402725, Note_off_c, 0, 62, 64
2, 403442, Note_on_c, 0, 73, 92
2, 403445, Note_off_c, 0, 74, 64
2, 403562, Note_on_c, 0, 71, 92
2, 403565, Note_off_c, 0, 73, 64
2, 403682, Note_on_c, 0, 73, 92
2, 403685, Note_off_c, 0, 71, 64
2, 403742, Note_on_c, 0, 74, 92
2, 403745, Note_off_c, 0, 73, 64
2, 403802, Note_on_c, 0, 73, 92
2, 403805, Note_off_c, 0, 74, 64
2, 404042, Note_on_c, 0, 71, 92
2, 404045, Note_off_c, 0, 73, 64
2, 404102, Note_on_c, 0, 73, 92
2, 404105, Note_off_c, 0, 71, 64
2, 404162, Note_on_c, 0, 74, 92
2, 404165, Note_off_c, 0, 73, 64
2, 404645, Note_off_c, 0, 74, 64
2, 404882, Note_on_c, 0, 74, 92
2, 405122, Note_on_c, 0, 73, 92
2, 405125, Note_off_c, 0, 74, 64
2, 405242, Note_on_c, 0, 69, 92
2, 405245, Note_off_c, 0, 73, 64
2, 405362, Note_on_c, 0, 73, 92
2, 405365, Note_off_c, 0, 69, 64
2, 405482, Note_on_c, 0, 76, 92
2, 405485, Note_off_c, 0, 73, 64
2, 405602, Note_on_c, 0, 79, 92
2, 405605, Note_off_c, 0, 76, 64
2, 405722, Note_on_c, 0, 78, 92
2, 405725, Note_off_c, 0, 79, 64
2, 405842, Note_on_c, 0, 79, 92
2, 405845, Note_off_c, 0, 78, 64
2, 406085, Note_off_c, 0, 79, 64
2, 406202, Note_on_c, 0, 69, 92
2, 406322, Note_on_c, 0, 73, 92
2, 406325, Note_off_c, 0, 69, 64
2, 406442, Note_on_c, 0, 76, 92
2, 406445, Note_off_c, 0, 73, 64
2, 406562, Note_on_c, 0, 79, 92
2, 406565, Note_off_c, 0, 76, 64
2, 406682, Note_on_c, 0, 78, 92
2, 406685, Note_off_c, 0, 79, 64
2, 406802, Note_on_c, 0, 79, 92
2, 406805, Note_off_c, 0, 78, 64
2, 407045, Note_off_c, 0, 79, 64
2, 407162, Note_on_c, 0, 69, 92
2, 407282, Note_on_c, 0, 73, 92
2, 407285, Note_off_c, 0, 69, 64
2, 407402, Note_on_c, 0, 76, 92
2, 407405, Note_off_c, 0, 73, 64
2, 407522, Note_on_c, 0, 79, 92
2, 407525, Note_off_c, 0, 76, 64
2, 407642, Note_on_c, 0, 78, 92
2, 407645, Note_off_c, 0, 79, 64
2, 407762, Note_on_c, 0, 76, 92
2, 407765, Note_off_c, 0, 78, 64
2, 407882, Note_on_c, 0, 74, 92
2, 407885, Note_off_c, 0, 76, 64
2, 408002, Note_on_c, 0, 73, 92
2, 408005, Note_off_c, 0, 74, 64
2, 408122, Note_on_c, 0, 69, 92
2, 408125, Note_off_c, 0, 73, 64
2, 408242, Note_on_c, 0, 73, 92
2, 408245, Note_off_c, 0, 69, 64
2, 408362, Note_on_c, 0, 76, 92
2, 408365, Note_off_c, 0, 73, 64
2, 408482, Note_on_c, 0, 81, 92
2, 408485, Note_off_c, 0, 76, 64
2, 408602, Note_on_c, 0, 79, 92
2, 408605, Note_off_c, 0, 81, 64
2, 408722, Note_on_c, 0, 78, 92
2, 408725, Note_off_c, 0, 79, 64
2, 408842, Note_on_c, 0, 76, 92
2, 408845, Note_off_c, 0, 78, 64
2, 408962, Note_on_c, 0, 78, 92
2, 408965, Note_off_c, 0, 76, 64
2, 409202, Note_on_c, 0, 74, 92
2, 409205, Note_off_c, 0, 78, 64
2, 409445, Note_off_c, 0, 74, 64
2, 409562, Note_on_c, 0, 71, 92
2, 409682, Note_on_c, 0, 75, 92
2, 409685, Note_off_c, 0, 71, 64
2, 409802, Note_on_c, 0, 78, 92
2, 409805, Note_off_c, 0, 75, 64
2, 409922, Note_on_c, 0, 81, 92
2, 409925, Note_off_c, 0, 78, 64
2, 410042, Note_on_c, 0, 79, 92
2, 410045, Note_off_c, 0, 81, 64
2, 410162, Note_on_c, 0, 81, 92
2, 410165, Note_off_c, 0, 79, 64
2, 410405, Note_off_c, 0, 81, 64
2, 410522, Note_on_c, 0, 71, 92
2, 410642, Note_on_c, 0, 75, 92
2, 410645, Note_off_c, 0, 71, 64
2, 410762, Note_on_c, 0, 78, 92
2, 410765, Note_off_c, 0, 75, 64
2, 410882, Note_on_c, 0, 81, 92
2, 410885, Note_off_c, 0, 78, 64
2, 411002, Note_on_c, 0, 79, 92
2, 411005, Note_off_c, 0, 81, 64
2, 411122, Note_on_c, 0, 81, 92
2, 411125, Note_off_c, 0, 79, 64
2, 411365, Note_off_c, 0, 81, 64
2, 411962, Note_on_c, 0, 75, 92
2, 412082, Note_on_c, 0, 78, 92
2, 412085, Note_off_c, 0, 75, 64
2, 412202, Note_on_c, 0, 83, 92
2, 412205, Note_off_c, 0, 78, 64
2, 412322, Note_on_c, 0, 71, 92
2, 412325, Note_off_c, 0, 83, 64
2, 412442, Note_on_c, 0, 78, 92
2, 412445, Note_off_c, 0, 71, 64
2, 412562, Note_on_c, 0, 76, 92
2, 412565, Note_off_c, 0, 78, 64
2, 412682, Note_on_c, 0, 75, 92
2, 412685, Note_off_c, 0, 76, 64
2, 412802, Note_on_c, 0, 76, 92
2, 412805, Note_off_c, 0, 75, 64
2, 413042, Note_on_c, 0, 71, 92
2, 413045, Note_off_c, 0, 76, 64
2, 413282, Note_on_c, 0, 76, 92
2, 413285, Note_off_c, 0, 71, 64
2, 413882, Note_on_c, 0, 74, 92
2, 413885, Note_off_c, 0, 76, 64
2, 414002, Note_on_c, 0, 78, 92
2, 414005, Note_off_c, 0, 74, 64
2, 414122, Note_on_c, 0, 81, 92
2, 414125, Note_off_c, 0, 78, 64
2, 414242, Note_on_c, 0, 79, 92
2, 414245, Note_off_c, 0, 81, 64
2, 414482, Note_on_c, 0, 77, 92
2, 414485, Note_off_c, 0, 79, 64
2, 414722, Note_on_c, 0, 76, 92
2, 414725, Note_off_c, 0, 77, 64
2, 414962, Note_on_c, 0, 67, 92
2, 414965, Note_off_c, 0, 76, 64
2, 415202, Note_on_c, 0, 69, 92
2, 415205, Note_off_c, 0, 67, 64
2, 415802, Note_on_c, 0, 66, 92
2, 415805, Note_off_c, 0, 69, 64
2, 415922, Note_on_c, 0, 67, 92
2, 415925, Note_off_c, 0, 66, 64
2, 416042, Note_on_c, 0, 71, 92
2, 416045, Note_off_c, 0, 67, 64
2, 416162, Note_on_c, 0, 69, 92
2, 416165, Note_off_c, 0, 71, 64
2, 416402, Note_on_c, 0, 67, 92
2, 416405, Note_off_c, 0, 69, 64
2, 416762, Note_on_c, 0, 64, 92
2, 416765, Note_off_c, 0, 67, 64
2, 416882, Note_on_c, 0, 66, 92
2, 416885, Note_off_c, 0, 64, 64
2, 417002, Note_on_c, 0, 69, 92
2, 417005, Note_off_c, 0, 66, 64
2, 417122, Note_on_c, 0, 74, 92
2, 417125, Note_off_c, 0, 69, 64
2, 417362, Note_on_c, 0, 72, 92
2, 417365, Note_off_c, 0, 74, 64
2, 417722, Note_on_c, 0, 69, 92
2, 417725, Note_off_c, 0, 72, 64
2, 417842, Note_on_c, 0, 71, 92
2, 417845, Note_off_c, 0, 69, 64
2, 417962, Note_on_c, 0, 74, 92
2, 417965, Note_off_c, 0, 71, 64
2, 418082, Note_on_c, 0, 79, 92
2, 418085, Note_off_c, 0, 74, 64
2, 418802, Note_on_c, 0, 78, 92
2, 418805, Note_off_c, 0, 79, 64
2, 419045, Note_off_c, 0, 78, 64
2, 419282, Note_on_c, 0, 72, 92
2, 419642, Note_on_c, 0, 69, 92
2, 419645, Note_off_c, 0, 72, 64
2, 419762, Note_on_c, 0, 71, 92
2, 419765, Note_off_c, 0, 69, 64
2, 419882, Note_on_c, 0, 72, 92
2, 419885, Note_off_c, 0, 71, 64
2, 420002, Note_on_c, 0, 74, 92
2, 420005, Note_off_c, 0, 72, 64
2, 420122, Note_on_c, 0, 78, 92
2, 420125, Note_off_c, 0, 74, 64
2, 420242, Note_on_c, 0, 76, 92
2, 420245, Note_off_c, 0, 78, 64
2, 420362, Note_on_c, 0, 74, 92
2, 420365, Note_off_c, 0, 76, 64
2, 420482, Note_on_c, 0, 72, 92
2, 420485, Note_off_c, 0, 74, 64
2, 420602, Note_on_c, 0, 71, 92
2, 420605, Note_off_c, 0, 72, 64
2, 420722, Note_on_c, 0, 69, 92
2, 420725, Note_off_c, 0, 71, 64
2, 420842, Note_on_c, 0, 67, 92
2, 420845, Note_off_c, 0, 69, 64
2, 420962, Note_on_c, 0, 66, 92
2, 420965, Note_off_c, 0, 67, 64
2, 421202, Note_on_c, 0, 78, 92
2, 421205, Note_off_c, 0, 66, 64
2, 421562, Note_on_c, 0, 71, 92
2, 421565, Note_off_c, 0, 78, 64
2, 421682, Note_on_c, 0, 76, 92
2, 421685, Note_off_c, 0, 71, 64
2, 421802, Note_on_c, 0, 74, 92
2, 421805, Note_off_c, 0, 76, 64
2, 421922, Note_on_c, 0, 72, 92
2, 421925, Note_off_c, 0, 74, 64
2, 422042, Note_on_c, 0, 71, 92
2, 422045, Note_off_c, 0, 72, 64
2, 422162, Note_on_c, 0, 69, 92
2, 422165, Note_off_c, 0, 71, 64
2, 422282, Note_on_c, 0, 67, 92
2, 422285, Note_off_c, 0, 69, 64
2, 422402, Note_on_c, 0, 66, 92
2, 422405, Note_off_c, 0, 67, 64
2, 422522, Note_on_c, 0, 64, 92
2, 422525, Note_off_c, 0, 66, 64
2, 422642, Note_on_c, 0, 66, 92
2, 422645, Note_off_c, 0, 64, 64
2, 422762, Note_on_c, 0, 67, 92
2, 422765, Note_off_c, 0, 66, 64
2, 422882, Note_on_c, 0, 69, 92
2, 422885, Note_off_c, 0, 67, 64
2, 423002, Note_on_c, 0, 71, 92
2, 423005, Note_off_c, 0, 69, 64
2, 423122, Note_on_c, 0, 73, 92
2, 423125, Note_off_c, 0, 71, 64
2, 423242, Note_on_c, 0, 75, 92
2, 423245, Note_off_c, 0, 73, 64
2, 423362, Note_on_c, 0, 76, 92
2, 423365, Note_off_c, 0, 75, 64
2, 423602, Note_on_c, 0, 71, 92
2, 423605, Note_off_c, 0, 76, 64
2, 423842, Note_on_c, 0, 76, 92
2, 423845, Note_off_c, 0, 71, 64
2, 424562, Note_on_c, 0, 74, 92
2, 424565, Note_off_c, 0, 76, 64
2, 424682, Note_on_c, 0, 72, 92
2, 424685, Note_off_c, 0, 74, 64
2, 424802, Note_on_c, 0, 71, 92
2, 424805, Note_off_c, 0, 72, 64
2, 424922, Note_on_c, 0, 69, 92
2, 424925, Note_off_c, 0, 71, 64
2, 425042, Note_on_c, 0, 67, 92
2, 425045, Note_off_c, 0, 69, 64
2, 425162, Note_on_c, 0, 65, 92
2, 425165, Note_off_c, 0, 67, 64
2, 425282, Note_on_c, 0, 64, 92
2, 425285, Note_off_c, 0, 65, 64
2, 425522, Note_on_c, 0, 67, 92
2, 425525, Note_off_c, 0, 64, 64
2, 425762, Note_on_c, 0, 72, 92
2, 425765, Note_off_c, 0, 67, 64
2, 426482, Note_on_c, 0, 71, 92
2, 426485, Note_off_c, 0, 72, 64
2, 426725, Note_off_c, 0, 71, 64
2, 426962, Note_on_c, 0, 65, 92
2, 427322, Note_on_c, 0, 62, 92
2, 427325, Note_off_c, 0, 65, 64
2, 427442, Note_on_c, 0, 64, 92
2, 427445, Note_off_c, 0, 62, 64
2, 427562, Note_on_c, 0, 66, 92
2, 427565, Note_off_c, 0, 64, 64
2, 427682, Note_on_c, 0, 67, 92
2, 427685, Note_off_c, 0, 66, 64
2, 427802, Note_on_c, 0, 71, 92
2, 427805, Note_off_c, 0, 67, 64
2, 427922, Note_on_c, 0, 69, 92
2, 427925, Note_off_c, 0, 71, 64
2, 428042, Note_on_c, 0, 67, 92
2, 428045, Note_off_c, 0, 69, 64
2, 428162, Note_on_c, 0, 69, 92
2, 428165, Note_off_c, 0, 67, 64
2, 428282, Note_on_c, 0, 67, 92
2, 428285, Note_off_c, 0, 69, 64
2, 428402, Note_on_c, 0, 66, 92
2, 428405, Note_off_c, 0, 67, 64
2, 428522, Note_on_c, 0, 67, 92
2, 428525, Note_off_c, 0, 66, 64
2, 428642, Note_on_c, 0, 69, 92
2, 428645, Note_off_c, 0, 67, 64
2, 428762, Note_on_c, 0, 72, 92
2, 428765, Note_off_c, 0, 69, 64
2, 428882, Note_on_c, 0, 71, 92
2, 428885, Note_off_c, 0, 72, 64
2, 429002, Note_on_c, 0, 69, 92
2, 429005, Note_off_c, 0, 71, 64
2, 429122, Note_on_c, 0, 67, 92
2, 429125, Note_off_c, 0, 69, 64
2, 429722, Note_on_c, 0, 66, 92
2, 429725, Note_off_c, 0, 67, 64
2, 429842, Note_on_c, 0, 64, 92
2, 429845, Note_off_c, 0, 66, 64
2, 429962, Note_on_c, 0, 69, 92
2, 429965, Note_off_c, 0, 64, 64
2, 430082, Note_on_c, 0, 62, 92
2, 430085, Note_off_c, 0, 69, 64
2, 430322, Note_on_c, 0, 69, 92
2, 430325, Note_off_c, 0, 62, 64
2, 430382, Note_on_c, 0, 71, 92
2, 430385, Note_off_c, 0, 69, 64
2, 430442, Note_on_c, 0, 72, 92
2, 430445, Note_off_c, 0, 71, 64
2, 430562, Note_on_c, 0, 71, 92
2, 430565, Note_off_c, 0, 72, 64
2, 430802, Note_on_c, 0, 69, 92
2, 430805, Note_off_c, 0, 71, 64
2, 430862, Note_on_c, 0, 71, 92
2, 430865, Note_off_c, 0, 69, 64
2, 430922, Note_on_c, 0, 69, 92
2, 430925, Note_off_c, 0, 71, 64
2, 431042, Note_on_c, 0, 71, 92
2, 431045, Note_off_c, 0, 69, 64
2, 431162, Note_on_c, 0, 67, 92
2, 431165, Note_off_c, 0, 71, 64
2, 431282, Note_on_c, 0, 71, 92
2, 431285, Note_off_c, 0, 67, 64
2, 431402, Note_on_c, 0, 74, 92
2, 431405, Note_off_c, 0, 71, 64
2, 431522, Note_on_c, 0, 72, 92
2, 431525, Note_off_c, 0, 74, 64
2, 432122, Note_on_c, 0, 69, 92
2, 432125, Note_off_c, 0, 72, 64
2, 432242, Note_on_c, 0, 72, 92
2, 432245, Note_off_c, 0, 69, 64
2, 432362, Note_on_c, 0, 76, 92
2, 432365, Note_off_c, 0, 72, 64
2, 432482, Note_on_c, 0, 74, 92
2, 432485, Note_off_c, 0, 76, 64
2, 433082, Note_on_c, 0, 71, 92
2, 433085, Note_off_c, 0, 74, 64
2, 433202, Note_on_c, 0, 74, 92
2, 433205, Note_off_c, 0, 71, 64
2, 433322, Note_on_c, 0, 77, 92
2, 433325, Note_off_c, 0, 74, 64
2, 433442, Note_on_c, 0, 76, 92
2, 433445, Note_off_c, 0, 77, 64
2, 433562, Note_on_c, 0, 74, 92
2, 433565, Note_off_c, 0, 76, 64
2, 433682, Note_on_c, 0, 72, 92
2, 433685, Note_off_c, 0, 74, 64
2, 433802, Note_on_c, 0, 71, 92
2, 433805, Note_off_c, 0, 72, 64
2, 433922, Note_on_c, 0, 69, 92
2, 433925, Note_off_c, 0, 71, 64
2, 434042, Note_on_c, 0, 66, 92
2, 434045, Note_off_c, 0, 69, 64
2, 434162, Note_on_c, 0, 69, 92
2, 434165, Note_off_c, 0, 66, 64
2, 434282, Note_on_c, 0, 72, 92
2, 434285, Note_off_c, 0, 69, 64
2, 434402, Note_on_c, 0, 71, 92
2, 434405, Note_off_c, 0, 72, 64
2, 434522, Note_on_c, 0, 69, 92
2, 434525, Note_off_c, 0, 71, 64
2, 434642, Note_on_c, 0, 67, 92
2, 434645, Note_off_c, 0, 69, 64
2, 434762, Note_on_c, 0, 66, 92
2, 434765, Note_off_c, 0, 67, 64
2, 434882, Note_on_c, 0, 67, 92
2, 434885, Note_off_c, 0, 66, 64
2, 435962, Note_on_c, 0, 62, 92
2, 435965, Note_off_c, 0, 67, 64
2, 436082, Note_on_c, 0, 66, 92
2, 436085, Note_off_c, 0, 62, 64
2, 436202, Note_on_c, 0, 69, 92
2, 436205, Note_off_c, 0, 66, 64
2, 436322, Note_on_c, 0, 67, 92
2, 436325, Note_off_c, 0, 69, 64
2, 436442, Note_on_c, 0, 66, 92
2, 436445, Note_off_c, 0, 67, 64
2, 436562, Note_on_c, 0, 64, 92
2, 436565, Note_off_c, 0, 66, 64
2, 436682, Note_on_c, 0, 62, 92
2, 436685, Note_off_c, 0, 64, 64
2, 436802, Note_on_c, 0, 74, 92
2, 436805, Note_off_c, 0, 62, 64
2, 436922, Note_on_c, 0, 72, 92
2, 436925, Note_off_c, 0, 74, 64
2, 437042, Note_on_c, 0, 76, 92
2, 437045, Note_off_c, 0, 72, 64
2, 437162, Note_on_c, 0, 74, 92
2, 437165, Note_off_c, 0, 76, 64
2, 437282, Note_on_c, 0, 72, 92
2, 437285, Note_off_c, 0, 74, 64
2, 437402, Note_on_c, 0, 71, 92
2, 437405, Note_off_c, 0, 72, 64
2, 437522, Note_on_c, 0, 69, 92
2, 437525, Note_off_c, 0, 71, 64
2, 437642, Note_on_c, 0, 67, 92
2, 437645, Note_off_c, 0, 69, 64
2, 437762, Note_on_c, 0, 67, 92
2, 437765, Note_off_c, 0, 67, 64
2, 438725, Note_off_c, 0, 67, 64
2, 438848, End_track
3, 0, Start_track
3, 0, Title_t, "Track 2"
3, 0, Note_on_c, 0, 67, 97
3, 480, Note_off_c, 0, 67, 64
3, 480, Note_on_c, 0, 67, 97
3, 960, Note_off_c, 0, 67, 64
3, 960, Note_on_c, 0, 67, 97
3, 1200, Note_off_c, 0, 67, 64
3, 1200, Note_on_c, 0, 66, 97
3, 1320, Note_off_c, 0, 66, 64
3, 1320, Note_on_c, 0, 64, 97
3, 1440, Note_off_c, 0, 64, 64
3, 1440, Note_on_c, 0, 62, 97
3, 1680, Note_off_c, 0, 62, 64
3, 1680, Note_on_c, 0, 60, 97
3, 1920, Note_off_c, 0, 60, 64
3, 1920, Note_on_c, 0, 59, 97
3, 2160, Note_off_c, 0, 59, 64
3, 2160, Note_on_c, 0, 67, 97
3, 2400, Note_off_c, 0, 67, 64
3, 2400, Note_on_c, 0, 57, 97
3, 2640, Note_off_c, 0, 57, 64
3, 2640, Note_on_c, 0, 66, 97
3, 2880, Note_off_c, 0, 66, 64
3, 2880, Note_on_c, 0, 55, 97
3, 3120, Note_off_c, 0, 55, 64
3, 3840, Note_on_c, 0, 74, 97
3, 4320, Note_off_c, 0, 74, 64
3, 4320, Note_on_c, 0, 74, 97
3, 4800, Note_off_c, 0, 74, 64
3, 4800, Note_on_c, 0, 74, 97
3, 5040, Note_off_c, 0, 74, 64
3, 5040, Note_on_c, 0, 73, 97
3, 5160, Note_off_c, 0, 73, 64
3, 5160, Note_on_c, 0, 71, 97
3, 5280, Note_off_c, 0, 71, 64
3, 5280, Note_on_c, 0, 69, 97
3, 5400, Note_off_c, 0, 69, 64
3, 5400, Note_on_c, 0, 74, 97
3, 5520, Note_off_c, 0, 74, 64
3, 5520, Note_on_c, 0, 67, 97
3, 5640, Note_off_c, 0, 67, 64
3, 5640, Note_on_c, 0, 74, 97
3, 5760, Note_off_c, 0, 74, 64
3, 5760, Note_on_c, 0, 66, 97
3, 5880, Note_off_c, 0, 66, 64
3, 5880, Note_on_c, 0, 74, 97
3, 6000, Note_off_c, 0, 74, 64
3, 6000, Note_on_c, 0, 73, 97
3, 6120, Note_off_c, 0, 73, 64
3, 6120, Note_on_c, 0, 74, 97
3, 6240, Note_off_c, 0, 74, 64
3, 6240, Note_on_c, 0, 64, 97
3, 6360, Note_off_c, 0, 64, 64
3, 6360, Note_on_c, 0, 74, 97
3, 6480, Note_off_c, 0, 74, 64
3, 6480, Note_on_c, 0, 73, 97
3, 6600, Note_off_c, 0, 73, 64
3, 6600, Note_on_c, 0, 74, 97
3, 6720, Note_off_c, 0, 74, 64
3, 6720, Note_on_c, 0, 62, 97
3, 6840, Note_off_c, 0, 62, 64
3, 6840, Note_on_c, 0, 64, 97
3, 6960, Note_off_c, 0, 64, 64
3, 6960, Note_on_c, 0, 66, 97
3, 7080, Note_off_c, 0, 66, 64
3, 7080, Note_on_c, 0, 67, 97
3, 7200, Note_off_c, 0, 67, 64
3, 7200, Note_on_c, 0, 69, 97
3, 7320, Note_off_c, 0, 69, 64
3, 7320, Note_on_c, 0, 71, 97
3, 7440, Note_off_c, 0, 71, 64
3, 7440, Note_on_c, 0, 72, 97
3, 7560, Note_off_c, 0, 72, 64
3, 7560, Note_on_c, 0, 69, 97
3, 7680, Note_off_c, 0, 69, 64
3, 7680, Note_on_c, 0, 66, 97
3, 7920, Note_off_c, 0, 66, 64
3, 7920, Note_on_c, 0, 69, 97
3, 8040, Note_off_c, 0, 69, 64
3, 8040, Note_on_c, 0, 66, 97
3, 8160, Note_off_c, 0, 66, 64
3, 8160, Note_on_c, 0, 62, 97
3, 8400, Note_off_c, 0, 62, 64
3, 8400, Note_on_c, 0, 62, 97
3, 8640, Note_off_c, 0, 62, 64
3, 8640, Note_on_c, 0, 62, 97
3, 8880, Note_off_c, 0, 62, 64
3, 8880, Note_on_c, 0, 71, 97
3, 9000, Note_off_c, 0, 71, 64
3, 9000, Note_on_c, 0, 67, 97
3, 9120, Note_off_c, 0, 67, 64
3, 9120, Note_on_c, 0, 62, 97
3, 9360, Note_off_c, 0, 62, 64
3, 9360, Note_on_c, 0, 62, 97
3, 9600, Note_off_c, 0, 62, 64
3, 9600, Note_on_c, 0, 62, 97
3, 9840, Note_off_c, 0, 62, 64
3, 9840, Note_on_c, 0, 72, 97
3, 9960, Note_off_c, 0, 72, 64
3, 9960, Note_on_c, 0, 69, 97
3, 10080, Note_off_c, 0, 69, 64
3, 10080, Note_on_c, 0, 62, 97
3, 10320, Note_off_c, 0, 62, 64
3, 10320, Note_on_c, 0, 62, 97
3, 10560, Note_off_c, 0, 62, 64
3, 10560, Note_on_c, 0, 62, 97
3, 10800, Note_off_c, 0, 62, 64
3, 10800, Note_on_c, 0, 66, 97
3, 10920, Note_off_c, 0, 66, 64
3, 10920, Note_on_c, 0, 69, 97
3, 11040, Note_off_c, 0, 69, 64
3, 11040, Note_on_c, 0, 72, 97
3, 11280, Note_off_c, 0, 72, 64
3, 11280, Note_on_c, 0, 66, 97
3, 11400, Note_off_c, 0, 66, 64
3, 11400, Note_on_c, 0, 69, 97
3, 11520, Note_off_c, 0, 69, 64
3, 11520, Note_on_c, 0, 71, 97
3, 11760, Note_off_c, 0, 71, 64
3, 11760, Note_on_c, 0, 72, 97
3, 12000, Note_off_c, 0, 72, 64
3, 12000, Note_on_c, 0, 69, 97
3, 12240, Note_off_c, 0, 69, 64
3, 12240, Note_on_c, 0, 71, 97
3, 12480, Note_off_c, 0, 71, 64
3, 12480, Note_on_c, 0, 62, 97
3, 12720, Note_off_c, 0, 62, 64
3, 12720, Note_on_c, 0, 62, 97
3, 12960, Note_off_c, 0, 62, 64
3, 12960, Note_on_c, 0, 62, 97
3, 13200, Note_off_c, 0, 62, 64
3, 13200, Note_on_c, 0, 71, 97
3, 13440, Note_off_c, 0, 71, 64
3, 13440, Note_on_c, 0, 60, 97
3, 13680, Note_off_c, 0, 60, 64
3, 13680, Note_on_c, 0, 72, 97
3, 13920, Note_off_c, 0, 72, 64
3, 13920, Note_on_c, 0, 69, 97
3, 14160, Note_off_c, 0, 69, 64
3, 14160, Note_on_c, 0, 71, 97
3, 14400, Note_off_c, 0, 71, 64
3, 14640, Note_on_c, 0, 59, 97
3, 14760, Note_off_c, 0, 59, 64
3, 14760, Note_on_c, 0, 57, 97
3, 14880, Note_off_c, 0, 57, 64
3, 14880, Note_on_c, 0, 60, 97
3, 15000, Note_off_c, 0, 60, 64
3, 15000, Note_on_c, 0, 59, 97
3, 15120, Note_off_c, 0, 59, 64
3, 15120, Note_on_c, 0, 57, 97
3, 15240, Note_off_c, 0, 57, 64
3, 15240, Note_on_c, 0, 55, 97
3, 15360, Note_off_c, 0, 55, 64
3, 15360, Note_on_c, 0, 67, 97
3, 15600, Note_off_c, 0, 67, 64
3, 15600, Note_on_c, 0, 72, 97
3, 15840, Note_off_c, 0, 72, 64
3, 15840, Note_on_c, 0, 69, 97
3, 16080, Note_off_c, 0, 69, 64
3, 16080, Note_on_c, 0, 71, 97
3, 16320, Note_off_c, 0, 71, 64
3, 16320, Note_on_c, 0, 66, 97
3, 16560, Note_off_c, 0, 66, 64
3, 16560, Note_on_c, 0, 62, 97
3, 16800, Note_off_c, 0, 62, 64
3, 16800, Note_on_c, 0, 67, 97
3, 17400, Note_off_c, 0, 67, 64
3, 17400, Note_on_c, 0, 71, 97
3, 17520, Note_off_c, 0, 71, 64
3, 17520, Note_on_c, 0, 74, 97
3, 17760, Note_off_c, 0, 74, 64
3, 17760, Note_on_c, 0, 66, 97
3, 17880, Note_off_c, 0, 66, 64
3, 17880, Note_on_c, 0, 69, 97
3, 18000, Note_off_c, 0, 69, 64
3, 18000, Note_on_c, 0, 72, 97
3, 18240, Note_off_c, 0, 72, 64
3, 18240, Note_on_c, 0, 72, 97
3, 18480, Note_off_c, 0, 72, 64
3, 18480, Note_on_c, 0, 71, 97
3, 18720, Note_off_c, 0, 71, 64
3, 19440, Note_on_c, 0, 62, 97
3, 19680, Note_off_c, 0, 62, 64
3, 19680, Note_on_c, 0, 67, 97
3, 19920, Note_off_c, 0, 67, 64
3, 19920, Note_on_c, 0, 69, 97
3, 20160, Note_off_c, 0, 69, 64
3, 20160, Note_on_c, 0, 71, 97
3, 20280, Note_off_c, 0, 71, 64
3, 20280, Note_on_c, 0, 67, 97
3, 20400, Note_off_c, 0, 67, 64
3, 20400, Note_on_c, 0, 71, 97
3, 20520, Note_off_c, 0, 71, 64
3, 20520, Note_on_c, 0, 74, 97
3, 20640, Note_off_c, 0, 74, 64
3, 20640, Note_on_c, 0, 77, 97
3, 20880, Note_off_c, 0, 77, 64
3, 21360, Note_on_c, 0, 60, 97
3, 21600, Note_off_c, 0, 60, 64
3, 21600, Note_on_c, 0, 64, 97
3, 21840, Note_off_c, 0, 64, 64
3, 21840, Note_on_c, 0, 67, 97
3, 22080, Note_off_c, 0, 67, 64
3, 22080, Note_on_c, 0, 72, 97
3, 22200, Note_off_c, 0, 72, 64
3, 22200, Note_on_c, 0, 67, 97
3, 22320, Note_off_c, 0, 67, 64
3, 22320, Note_on_c, 0, 72, 97
3, 22440, Note_off_c, 0, 72, 64
3, 22440, Note_on_c, 0, 74, 97
3, 22560, Note_off_c, 0, 74, 64
3, 22560, Note_on_c, 0, 76, 97
3, 22800, Note_off_c, 0, 76, 64
3, 23280, Note_on_c, 0, 66, 97
3, 23400, Note_off_c, 0, 66, 64
3, 23400, Note_on_c, 0, 67, 97
3, 23520, Note_off_c, 0, 67, 64
3, 23520, Note_on_c, 0, 69, 97
3, 23640, Note_off_c, 0, 69, 64
3, 23640, Note_on_c, 0, 71, 97
3, 23760, Note_off_c, 0, 71, 64
3, 23760, Note_on_c, 0, 72, 97
3, 24240, Note_off_c, 0, 72, 64
3, 24240, Note_on_c, 0, 69, 97
3, 24360, Note_off_c, 0, 69, 64
3, 24360, Note_on_c, 0, 66, 97
3, 24480, Note_off_c, 0, 66, 64
3, 24480, Note_on_c, 0, 62, 97
3, 24720, Note_off_c, 0, 62, 64
3, 24720, Note_on_c, 0, 72, 97
3, 25200, Note_off_c, 0, 72, 64
3, 25200, Note_on_c, 0, 74, 97
3, 25440, Note_off_c, 0, 74, 64
3, 25440, Note_on_c, 0, 71, 97
3, 25680, Note_off_c, 0, 71, 64
3, 25680, Note_on_c, 0, 67, 97
3, 26040, Note_off_c, 0, 67, 64
3, 26040, Note_on_c, 0, 66, 97
3, 26160, Note_off_c, 0, 66, 64
3, 26160, Note_on_c, 0, 64, 97
3, 26280, Note_off_c, 0, 64, 64
3, 26280, Note_on_c, 0, 66, 97
3, 26400, Note_off_c, 0, 66, 64
3, 26400, Note_on_c, 0, 67, 97
3, 26520, Note_off_c, 0, 67, 64
3, 26520, Note_on_c, 0, 69, 97
3, 26640, Note_off_c, 0, 69, 64
3, 26640, Note_on_c, 0, 71, 97
3, 26760, Note_off_c, 0, 71, 64
3, 26760, Note_on_c, 0, 73, 97
3, 26880, Note_off_c, 0, 73, 64
3, 26880, Note_on_c, 0, 74, 97
3, 27000, Note_off_c, 0, 74, 64
3, 27000, Note_on_c, 0, 69, 97
3, 27120, Note_off_c, 0, 69, 64
3, 27120, Note_on_c, 0, 78, 97
3, 27480, Note_off_c, 0, 78, 64
3, 27480, Note_on_c, 0, 76, 97
3, 27600, Note_off_c, 0, 76, 64
3, 27600, Note_on_c, 0, 74, 97
3, 27720, Note_off_c, 0, 74, 64
3, 27720, Note_on_c, 0, 73, 97
3, 27840, Note_off_c, 0, 73, 64
3, 27840, Note_on_c, 0, 74, 97
3, 27960, Note_off_c, 0, 74, 64
3, 27960, Note_on_c, 0, 78, 97
3, 28080, Note_off_c, 0, 78, 64
3, 28080, Note_on_c, 0, 69, 97
3, 28440, Note_off_c, 0, 69, 64
3, 28440, Note_on_c, 0, 72, 97
3, 28560, Note_off_c, 0, 72, 64
3, 28560, Note_on_c, 0, 71, 97
3, 28680, Note_off_c, 0, 71, 64
3, 28680, Note_on_c, 0, 69, 97
3, 28800, Note_off_c, 0, 69, 64
3, 28800, Note_on_c, 0, 71, 97
3, 28920, Note_off_c, 0, 71, 64
3, 28920, Note_on_c, 0, 67, 97
3, 29040, Note_off_c, 0, 67, 64
3, 29040, Note_on_c, 0, 74, 97
3, 29400, Note_off_c, 0, 74, 64
3, 29400, Note_on_c, 0, 72, 97
3, 29520, Note_off_c, 0, 72, 64
3, 29520, Note_on_c, 0, 71, 97
3, 29640, Note_off_c, 0, 71, 64
3, 29640, Note_on_c, 0, 69, 97
3, 29760, Note_off_c, 0, 69, 64
3, 29760, Note_on_c, 0, 71, 97
3, 29880, Note_off_c, 0, 71, 64
3, 29880, Note_on_c, 0, 74, 97
3, 30000, Note_off_c, 0, 74, 64
3, 30000, Note_on_c, 0, 67, 97
3, 30360, Note_off_c, 0, 67, 64
3, 30360, Note_on_c, 0, 66, 97
3, 30480, Note_off_c, 0, 66, 64
3, 30480, Note_on_c, 0, 64, 97
3, 30600, Note_off_c, 0, 64, 64
3, 30600, Note_on_c, 0, 62, 97
3, 30720, Note_off_c, 0, 62, 64
3, 30720, Note_on_c, 0, 64, 97
3, 30840, Note_off_c, 0, 64, 64
3, 30840, Note_on_c, 0, 61, 97
3, 30960, Note_off_c, 0, 61, 64
3, 30960, Note_on_c, 0, 67, 97
3, 31320, Note_off_c, 0, 67, 64
3, 31320, Note_on_c, 0, 66, 97
3, 31440, Note_off_c, 0, 66, 64
3, 31440, Note_on_c, 0, 64, 97
3, 31560, Note_off_c, 0, 64, 64
3, 31560, Note_on_c, 0, 62, 97
3, 31680, Note_off_c, 0, 62, 64
3, 31680, Note_on_c, 0, 64, 97
3, 31800, Note_off_c, 0, 64, 64
3, 31800, Note_on_c, 0, 67, 97
3, 31920, Note_off_c, 0, 67, 64
3, 31920, Note_on_c, 0, 61, 97
3, 32280, Note_off_c, 0, 61, 64
3, 32280, Note_on_c, 0, 64, 97
3, 32400, Note_off_c, 0, 64, 64
3, 32400, Note_on_c, 0, 62, 97
3, 32520, Note_off_c, 0, 62, 64
3, 32520, Note_on_c, 0, 61, 97
3, 32640, Note_off_c, 0, 61, 64
3, 32640, Note_on_c, 0, 62, 97
3, 32760, Note_off_c, 0, 62, 64
3, 32760, Note_on_c, 0, 57, 97
3, 32880, Note_off_c, 0, 57, 64
3, 32880, Note_on_c, 0, 62, 97
3, 33000, Note_off_c, 0, 62, 64
3, 33000, Note_on_c, 0, 66, 97
3, 33120, Note_off_c, 0, 66, 64
3, 33120, Note_on_c, 0, 69, 97
3, 33240, Note_off_c, 0, 69, 64
3, 33240, Note_on_c, 0, 66, 97
3, 33360, Note_off_c, 0, 66, 64
3, 33360, Note_on_c, 0, 74, 97
3, 33600, Note_off_c, 0, 74, 64
3, 33600, Note_on_c, 0, 66, 97
3, 33660, Note_off_c, 0, 66, 64
3, 33660, Note_on_c, 0, 67, 97
3, 33720, Note_off_c, 0, 67, 64
3, 33720, Note_on_c, 0, 66, 97
3, 33840, Note_off_c, 0, 66, 64
3, 33840, Note_on_c, 0, 64, 97
3, 34080, Note_off_c, 0, 64, 64
3, 34800, Note_on_c, 0, 61, 97
3, 35040, Note_off_c, 0, 61, 64
3, 35040, Note_on_c, 0, 64, 97
3, 35280, Note_off_c, 0, 64, 64
3, 35280, Note_on_c, 0, 69, 97
3, 35520, Note_off_c, 0, 69, 64
3, 35760, Note_on_c, 0, 61, 97
3, 36000, Note_off_c, 0, 61, 64
3, 36000, Note_on_c, 0, 64, 97
3, 36240, Note_off_c, 0, 64, 64
3, 36240, Note_on_c, 0, 69, 97
3, 36480, Note_off_c, 0, 69, 64
3, 36720, Note_on_c, 0, 62, 97
3, 36960, Note_off_c, 0, 62, 64
3, 36960, Note_on_c, 0, 66, 97
3, 37200, Note_off_c, 0, 66, 64
3, 37200, Note_on_c, 0, 69, 97
3, 37440, Note_off_c, 0, 69, 64
3, 37680, Note_on_c, 0, 62, 97
3, 37920, Note_off_c, 0, 62, 64
3, 37920, Note_on_c, 0, 66, 97
3, 38160, Note_off_c, 0, 66, 64
3, 38160, Note_on_c, 0, 69, 97
3, 38400, Note_off_c, 0, 69, 64
3, 38640, Note_on_c, 0, 62, 97
3, 38880, Note_off_c, 0, 62, 64
3, 38880, Note_on_c, 0, 67, 97
3, 39120, Note_off_c, 0, 67, 64
3, 39120, Note_on_c, 0, 71, 97
3, 39360, Note_off_c, 0, 71, 64
3, 39600, Note_on_c, 0, 62, 97
3, 39840, Note_off_c, 0, 62, 64
3, 39840, Note_on_c, 0, 67, 97
3, 40080, Note_off_c, 0, 67, 64
3, 40080, Note_on_c, 0, 71, 97
3, 40320, Note_off_c, 0, 71, 64
3, 40560, Note_on_c, 0, 60, 97
3, 40800, Note_off_c, 0, 60, 64
3, 40800, Note_on_c, 0, 67, 97
3, 41040, Note_off_c, 0, 67, 64
3, 41040, Note_on_c, 0, 71, 97
3, 41280, Note_off_c, 0, 71, 64
3, 41520, Note_on_c, 0, 64, 97
3, 41760, Note_off_c, 0, 64, 64
3, 41760, Note_on_c, 0, 67, 97
3, 42000, Note_off_c, 0, 67, 64
3, 42000, Note_on_c, 0, 71, 97
3, 42240, Note_off_c, 0, 71, 64
3, 42480, Note_on_c, 0, 60, 97
3, 42720, Note_off_c, 0, 60, 64
3, 42720, Note_on_c, 0, 64, 97
3, 42960, Note_off_c, 0, 64, 64
3, 42960, Note_on_c, 0, 69, 97
3, 43200, Note_off_c, 0, 69, 64
3, 43440, Note_on_c, 0, 60, 97
3, 43680, Note_off_c, 0, 60, 64
3, 43680, Note_on_c, 0, 64, 97
3, 43920, Note_off_c, 0, 64, 64
3, 43920, Note_on_c, 0, 69, 97
3, 44160, Note_off_c, 0, 69, 64
3, 44400, Note_on_c, 0, 59, 97
3, 44640, Note_off_c, 0, 59, 64
3, 44640, Note_on_c, 0, 66, 97
3, 44880, Note_off_c, 0, 66, 64
3, 44880, Note_on_c, 0, 69, 97
3, 45120, Note_off_c, 0, 69, 64
3, 45360, Note_on_c, 0, 63, 97
3, 45600, Note_off_c, 0, 63, 64
3, 45600, Note_on_c, 0, 66, 97
3, 45840, Note_off_c, 0, 66, 64
3, 45840, Note_on_c, 0, 71, 97
3, 46080, Note_off_c, 0, 71, 64
3, 46320, Note_on_c, 0, 59, 97
3, 46560, Note_off_c, 0, 59, 64
3, 46560, Note_on_c, 0, 64, 97
3, 46800, Note_off_c, 0, 64, 64
3, 46800, Note_on_c, 0, 67, 97
3, 47040, Note_off_c, 0, 67, 64
3, 47280, Note_on_c, 0, 59, 97
3, 47520, Note_off_c, 0, 59, 64
3, 47520, Note_on_c, 0, 64, 97
3, 47760, Note_off_c, 0, 64, 64
3, 47760, Note_on_c, 0, 67, 97
3, 48000, Note_off_c, 0, 67, 64
3, 48240, Note_on_c, 0, 66, 97
3, 48480, Note_off_c, 0, 66, 64
3, 48480, Note_on_c, 0, 69, 97
3, 48720, Note_off_c, 0, 69, 64
3, 48720, Note_on_c, 0, 72, 97
3, 48960, Note_off_c, 0, 72, 64
3, 49200, Note_on_c, 0, 71, 97
3, 49440, Note_off_c, 0, 71, 64
3, 49440, Note_on_c, 0, 69, 97
3, 49680, Note_off_c, 0, 69, 64
3, 49680, Note_on_c, 0, 66, 97
3, 49920, Note_off_c, 0, 66, 64
3, 49920, Note_on_c, 0, 67, 97
3, 50040, Note_off_c, 0, 67, 64
3, 50040, Note_on_c, 0, 69, 97
3, 50160, Note_off_c, 0, 69, 64
3, 50160, Note_on_c, 0, 71, 97
3, 50280, Note_off_c, 0, 71, 64
3, 50280, Note_on_c, 0, 69, 97
3, 50400, Note_off_c, 0, 69, 64
3, 50400, Note_on_c, 0, 72, 97
3, 50520, Note_off_c, 0, 72, 64
3, 50520, Note_on_c, 0, 71, 97
3, 50640, Note_off_c, 0, 71, 64
3, 50640, Note_on_c, 0, 69, 97
3, 50760, Note_off_c, 0, 69, 64
3, 50760, Note_on_c, 0, 68, 97
3, 50880, Note_off_c, 0, 68, 64
3, 50880, Note_on_c, 0, 69, 97
3, 51000, Note_off_c, 0, 69, 64
3, 51000, Note_on_c, 0, 67, 97
3, 51120, Note_off_c, 0, 67, 64
3, 51120, Note_on_c, 0, 66, 97
3, 51240, Note_off_c, 0, 66, 64
3, 51240, Note_on_c, 0, 64, 97
3, 51360, Note_off_c, 0, 64, 64
3, 51360, Note_on_c, 0, 76, 97
3, 52080, Note_off_c, 0, 76, 64
3, 52080, Note_on_c, 0, 74, 97
3, 52200, Note_off_c, 0, 74, 64
3, 52200, Note_on_c, 0, 72, 97
3, 52320, Note_off_c, 0, 72, 64
3, 52320, Note_on_c, 0, 71, 97
3, 52440, Note_off_c, 0, 71, 64
3, 52440, Note_on_c, 0, 69, 97
3, 52560, Note_off_c, 0, 69, 64
3, 52560, Note_on_c, 0, 67, 97
3, 52680, Note_off_c, 0, 67, 64
3, 52680, Note_on_c, 0, 66, 97
3, 52800, Note_off_c, 0, 66, 64
3, 52800, Note_on_c, 0, 67, 97
3, 53040, Note_off_c, 0, 67, 64
3, 53040, Note_on_c, 0, 64, 97
3, 53280, Note_off_c, 0, 64, 64
3, 54000, Note_on_c, 0, 67, 97
3, 54480, Note_off_c, 0, 67, 64
3, 54480, Note_on_c, 0, 67, 97
3, 54960, Note_off_c, 0, 67, 64
3, 54960, Note_on_c, 0, 66, 97
3, 55080, Note_off_c, 0, 66, 64
3, 55080, Note_on_c, 0, 64, 97
3, 55200, Note_off_c, 0, 64, 64
3, 55200, Note_on_c, 0, 62, 97
3, 55320, Note_off_c, 0, 62, 64
3, 55320, Note_on_c, 0, 67, 97
3, 55440, Note_off_c, 0, 67, 64
3, 55440, Note_on_c, 0, 60, 97
3, 55560, Note_off_c, 0, 60, 64
3, 55560, Note_on_c, 0, 67, 97
3, 55680, Note_off_c, 0, 67, 64
3, 55680, Note_on_c, 0, 59, 97
3, 55800, Note_off_c, 0, 59, 64
3, 55800, Note_on_c, 0, 62, 97
3, 55920, Note_off_c, 0, 62, 64
3, 55920, Note_on_c, 0, 67, 97
3, 56160, Note_off_c, 0, 67, 64
3, 56160, Note_on_c, 0, 57, 97
3, 56400, Note_off_c, 0, 57, 64
3, 56400, Note_on_c, 0, 66, 97
3, 56640, Note_off_c, 0, 66, 64
3, 56640, Note_on_c, 0, 55, 97
3, 56760, Note_off_c, 0, 55, 64
3, 56760, Note_on_c, 0, 59, 97
3, 56880, Note_off_c, 0, 59, 64
3, 56880, Note_on_c, 0, 61, 97
3, 57000, Note_off_c, 0, 61, 64
3, 57000, Note_on_c, 0, 62, 97
3, 57120, Note_off_c, 0, 62, 64
3, 57120, Note_on_c, 0, 64, 97
3, 57240, Note_off_c, 0, 64, 64
3, 57240, Note_on_c, 0, 66, 97
3, 57360, Note_off_c, 0, 66, 64
3, 57360, Note_on_c, 0, 67, 97
3, 57840, Note_off_c, 0, 67, 64
3, 57840, Note_on_c, 0, 64, 97
3, 57960, Note_off_c, 0, 64, 64
3, 57960, Note_on_c, 0, 61, 97
3, 58080, Note_off_c, 0, 61, 64
3, 58080, Note_on_c, 0, 57, 97
3, 58320, Note_off_c, 0, 57, 64
3, 58320, Note_on_c, 0, 57, 97
3, 58560, Note_off_c, 0, 57, 64
3, 58560, Note_on_c, 0, 57, 97
3, 58800, Note_off_c, 0, 57, 64
3, 58800, Note_on_c, 0, 66, 97
3, 58920, Note_off_c, 0, 66, 64
3, 58920, Note_on_c, 0, 62, 97
3, 59040, Note_off_c, 0, 62, 64
3, 59040, Note_on_c, 0, 57, 97
3, 59280, Note_off_c, 0, 57, 64
3, 59280, Note_on_c, 0, 57, 97
3, 59520, Note_off_c, 0, 57, 64
3, 59520, Note_on_c, 0, 57, 97
3, 59760, Note_off_c, 0, 57, 64
3, 59760, Note_on_c, 0, 67, 97
3, 59880, Note_off_c, 0, 67, 64
3, 59880, Note_on_c, 0, 64, 97
3, 60000, Note_off_c, 0, 64, 64
3, 60000, Note_on_c, 0, 57, 97
3, 60240, Note_off_c, 0, 57, 64
3, 60240, Note_on_c, 0, 57, 97
3, 60480, Note_off_c, 0, 57, 64
3, 60480, Note_on_c, 0, 57, 97
3, 60720, Note_off_c, 0, 57, 64
3, 60720, Note_on_c, 0, 61, 97
3, 60840, Note_off_c, 0, 61, 64
3, 60840, Note_on_c, 0, 64, 97
3, 60960, Note_off_c, 0, 64, 64
3, 60960, Note_on_c, 0, 67, 97
3, 61200, Note_off_c, 0, 67, 64
3, 61200, Note_on_c, 0, 64, 97
3, 61320, Note_off_c, 0, 64, 64
3, 61320, Note_on_c, 0, 61, 97
3, 61440, Note_off_c, 0, 61, 64
3, 61440, Note_on_c, 0, 57, 97
3, 61680, Note_off_c, 0, 57, 64
3, 61680, Note_on_c, 0, 64, 97
3, 61920, Note_off_c, 0, 64, 64
3, 61920, Note_on_c, 0, 61, 97
3, 62160, Note_off_c, 0, 61, 64
3, 62160, Note_on_c, 0, 62, 97
3, 62400, Note_off_c, 0, 62, 64
3, 62640, Note_on_c, 0, 54, 97
3, 62760, Note_off_c, 0, 54, 64
3, 62760, Note_on_c, 0, 52, 97
3, 62880, Note_off_c, 0, 52, 64
3, 62880, Note_on_c, 0, 55, 97
3, 63000, Note_off_c, 0, 55, 64
3, 63000, Note_on_c, 0, 54, 97
3, 63120, Note_off_c, 0, 54, 64
3, 63120, Note_on_c, 0, 52, 97
3, 63240, Note_off_c, 0, 52, 64
3, 63240, Note_on_c, 0, 50, 97
3, 63360, Note_off_c, 0, 50, 64
3, 63360, Note_on_c, 0, 62, 97
3, 63600, Note_off_c, 0, 62, 64
3, 63600, Note_on_c, 0, 52, 97
3, 63840, Note_off_c, 0, 52, 64
3, 63840, Note_on_c, 0, 49, 97
3, 64080, Note_off_c, 0, 49, 64
3, 64080, Note_on_c, 0, 50, 97
3, 64320, Note_off_c, 0, 50, 64
3, 64320, Note_on_c, 0, 60, 97
3, 64560, Note_off_c, 0, 60, 64
3, 64560, Note_on_c, 0, 60, 97
3, 64800, Note_off_c, 0, 60, 64
3, 64800, Note_on_c, 0, 60, 97
3, 65040, Note_off_c, 0, 60, 64
3, 65040, Note_on_c, 0, 54, 97
3, 65280, Note_off_c, 0, 54, 64
3, 65280, Note_on_c, 0, 59, 97
3, 65520, Note_off_c, 0, 59, 64
3, 65520, Note_on_c, 0, 64, 97
3, 65760, Note_off_c, 0, 64, 64
3, 65760, Note_on_c, 0, 61, 97
3, 66000, Note_off_c, 0, 61, 64
3, 66000, Note_on_c, 0, 62, 97
3, 66240, Note_off_c, 0, 62, 64
3, 66240, Note_on_c, 0, 52, 97
3, 66480, Note_off_c, 0, 52, 64
3, 66480, Note_on_c, 0, 54, 97
3, 66600, Note_off_c, 0, 54, 64
3, 66600, Note_on_c, 0, 55, 97
3, 66720, Note_off_c, 0, 55, 64
3, 66720, Note_on_c, 0, 57, 97
3, 66960, Note_off_c, 0, 57, 64
3, 66960, Note_on_c, 0, 55, 97
3, 67200, Note_off_c, 0, 55, 64
3, 67200, Note_on_c, 0, 54, 97
3, 67680, Note_off_c, 0, 54, 64
3, 67680, Note_on_c, 0, 52, 97
3, 68160, Note_off_c, 0, 52, 64
3, 68160, Note_on_c, 0, 50, 97
3, 68640, Note_off_c, 0, 50, 64
3, 71040, Note_on_c, 0, 69, 97
3, 71520, Note_off_c, 0, 69, 64
3, 71520, Note_on_c, 0, 69, 97
3, 72000, Note_off_c, 0, 69, 64
3, 72000, Note_on_c, 0, 69, 97
3, 72240, Note_off_c, 0, 69, 64
3, 72240, Note_on_c, 0, 67, 97
3, 72360, Note_off_c, 0, 67, 64
3, 72360, Note_on_c, 0, 66, 97
3, 72480, Note_off_c, 0, 66, 64
3, 72480, Note_on_c, 0, 64, 97
3, 72600, Note_off_c, 0, 64, 64
3, 72600, Note_on_c, 0, 62, 97
3, 72720, Note_off_c, 0, 62, 64
3, 72720, Note_on_c, 0, 60, 97
3, 72840, Note_off_c, 0, 60, 64
3, 72840, Note_on_c, 0, 59, 97
3, 72960, Note_off_c, 0, 59, 64
3, 72960, Note_on_c, 0, 60, 97
3, 73080, Note_off_c, 0, 60, 64
3, 73080, Note_on_c, 0, 64, 97
3, 73200, Note_off_c, 0, 64, 64
3, 73200, Note_on_c, 0, 69, 97
3, 73440, Note_off_c, 0, 69, 64
3, 73440, Note_on_c, 0, 59, 97
3, 73680, Note_off_c, 0, 59, 64
3, 73680, Note_on_c, 0, 68, 97
3, 73920, Note_off_c, 0, 68, 64
3, 73920, Note_on_c, 0, 57, 97
3, 74160, Note_off_c, 0, 57, 64
3, 74880, Note_on_c, 0, 71, 97
3, 75360, Note_off_c, 0, 71, 64
3, 75360, Note_on_c, 0, 71, 97
3, 75840, Note_off_c, 0, 71, 64
3, 75840, Note_on_c, 0, 71, 97
3, 76080, Note_off_c, 0, 71, 64
3, 76080, Note_on_c, 0, 69, 97
3, 76200, Note_off_c, 0, 69, 64
3, 76200, Note_on_c, 0, 67, 97
3, 76320, Note_off_c, 0, 67, 64
3, 76320, Note_on_c, 0, 66, 97
3, 76440, Note_off_c, 0, 66, 64
3, 76440, Note_on_c, 0, 67, 97
3, 76560, Note_off_c, 0, 67, 64
3, 76560, Note_on_c, 0, 64, 97
3, 76680, Note_off_c, 0, 64, 64
3, 76680, Note_on_c, 0, 66, 97
3, 76800, Note_off_c, 0, 66, 64
3, 76800, Note_on_c, 0, 63, 97
3, 76920, Note_off_c, 0, 63, 64
3, 76920, Note_on_c, 0, 64, 97
3, 77040, Note_off_c, 0, 64, 64
3, 77040, Note_on_c, 0, 66, 97
3, 77160, Note_off_c, 0, 66, 64
3, 77160, Note_on_c, 0, 63, 97
3, 77280, Note_off_c, 0, 63, 64
3, 77280, Note_on_c, 0, 64, 97
3, 77400, Note_off_c, 0, 64, 64
3, 77400, Note_on_c, 0, 63, 97
3, 77520, Note_off_c, 0, 63, 64
3, 77520, Note_on_c, 0, 61, 97
3, 77640, Note_off_c, 0, 61, 64
3, 77640, Note_on_c, 0, 59, 97
3, 77760, Note_off_c, 0, 59, 64
3, 77760, Note_on_c, 0, 64, 97
3, 78000, Note_off_c, 0, 64, 64
3, 78000, Note_on_c, 0, 66, 97
3, 78120, Note_off_c, 0, 66, 64
3, 78120, Note_on_c, 0, 67, 97
3, 78240, Note_off_c, 0, 67, 64
3, 78240, Note_on_c, 0, 69, 97
3, 78360, Note_off_c, 0, 69, 64
3, 78360, Note_on_c, 0, 71, 97
3, 78480, Note_off_c, 0, 71, 64
3, 78480, Note_on_c, 0, 67, 97
3, 78600, Note_off_c, 0, 67, 64
3, 78600, Note_on_c, 0, 69, 97
3, 78720, Note_off_c, 0, 69, 64
3, 78720, Note_on_c, 0, 66, 97
3, 78840, Note_off_c, 0, 66, 64
3, 78840, Note_on_c, 0, 67, 97
3, 78960, Note_off_c, 0, 67, 64
3, 78960, Note_on_c, 0, 69, 97
3, 79080, Note_off_c, 0, 69, 64
3, 79080, Note_on_c, 0, 72, 97
3, 79200, Note_off_c, 0, 72, 64
3, 79200, Note_on_c, 0, 71, 97
3, 79320, Note_off_c, 0, 71, 64
3, 79320, Note_on_c, 0, 69, 97
3, 79440, Note_off_c, 0, 69, 64
3, 79440, Note_on_c, 0, 67, 97
3, 79560, Note_off_c, 0, 67, 64
3, 79560, Note_on_c, 0, 66, 97
3, 79680, Note_off_c, 0, 66, 64
3, 79680, Note_on_c, 0, 67, 97
3, 79800, Note_off_c, 0, 67, 64
3, 79800, Note_on_c, 0, 66, 97
3, 79920, Note_off_c, 0, 66, 64
3, 79920, Note_on_c, 0, 64, 97
3, 80040, Note_off_c, 0, 64, 64
3, 80040, Note_on_c, 0, 63, 97
3, 80160, Note_off_c, 0, 63, 64
3, 80160, Note_on_c, 0, 64, 97
3, 80280, Note_off_c, 0, 64, 64
3, 80280, Note_on_c, 0, 66, 97
3, 80400, Note_off_c, 0, 66, 64
3, 80400, Note_on_c, 0, 67, 97
3, 80520, Note_off_c, 0, 67, 64
3, 80520, Note_on_c, 0, 69, 97
3, 80640, Note_off_c, 0, 69, 64
3, 80640, Note_on_c, 0, 71, 97
3, 80760, Note_off_c, 0, 71, 64
3, 80760, Note_on_c, 0, 67, 97
3, 80880, Note_off_c, 0, 67, 64
3, 80880, Note_on_c, 0, 64, 97
3, 81000, Note_off_c, 0, 64, 64
3, 81000, Note_on_c, 0, 67, 97
3, 81120, Note_off_c, 0, 67, 64
3, 81120, Note_on_c, 0, 59, 97
3, 81240, Note_off_c, 0, 59, 64
3, 81240, Note_on_c, 0, 64, 97
3, 81360, Note_off_c, 0, 64, 64
3, 81360, Note_on_c, 0, 67, 97
3, 81480, Note_off_c, 0, 67, 64
3, 81480, Note_on_c, 0, 64, 97
3, 81600, Note_off_c, 0, 64, 64
3, 81600, Note_on_c, 0, 71, 97
3, 81720, Note_off_c, 0, 71, 64
3, 81720, Note_on_c, 0, 67, 97
3, 81840, Note_off_c, 0, 67, 64
3, 81840, Note_on_c, 0, 64, 97
3, 81960, Note_off_c, 0, 64, 64
3, 81960, Note_on_c, 0, 67, 97
3, 82080, Note_off_c, 0, 67, 64
3, 82080, Note_on_c, 0, 59, 97
3, 82200, Note_off_c, 0, 59, 64
3, 82200, Note_on_c, 0, 64, 97
3, 82320, Note_off_c, 0, 64, 64
3, 82320, Note_on_c, 0, 67, 97
3, 82440, Note_off_c, 0, 67, 64
3, 82440, Note_on_c, 0, 64, 97
3, 82560, Note_off_c, 0, 64, 64
3, 82560, Note_on_c, 0, 69, 97
3, 82680, Note_off_c, 0, 69, 64
3, 82680, Note_on_c, 0, 64, 97
3, 82800, Note_off_c, 0, 64, 64
3, 82800, Note_on_c, 0, 61, 97
3, 82920, Note_off_c, 0, 61, 64
3, 82920, Note_on_c, 0, 64, 97
3, 83040, Note_off_c, 0, 64, 64
3, 83040, Note_on_c, 0, 57, 97
3, 83160, Note_off_c, 0, 57, 64
3, 83160, Note_on_c, 0, 61, 97
3, 83280, Note_off_c, 0, 61, 64
3, 83280, Note_on_c, 0, 64, 97
3, 83400, Note_off_c, 0, 64, 64
3, 83400, Note_on_c, 0, 61, 97
3, 83520, Note_off_c, 0, 61, 64
3, 83520, Note_on_c, 0, 69, 97
3, 83640, Note_off_c, 0, 69, 64
3, 83640, Note_on_c, 0, 64, 97
3, 83760, Note_off_c, 0, 64, 64
3, 83760, Note_on_c, 0, 61, 97
3, 83880, Note_off_c, 0, 61, 64
3, 83880, Note_on_c, 0, 64, 97
3, 84000, Note_off_c, 0, 64, 64
3, 84000, Note_on_c, 0, 57, 97
3, 84120, Note_off_c, 0, 57, 64
3, 84120, Note_on_c, 0, 61, 97
3, 84240, Note_off_c, 0, 61, 64
3, 84240, Note_on_c, 0, 64, 97
3, 84360, Note_off_c, 0, 64, 64
3, 84360, Note_on_c, 0, 61, 97
3, 84480, Note_off_c, 0, 61, 64
3, 84480, Note_on_c, 0, 69, 97
3, 84600, Note_off_c, 0, 69, 64
3, 84600, Note_on_c, 0, 66, 97
3, 84720, Note_off_c, 0, 66, 64
3, 84720, Note_on_c, 0, 62, 97
3, 84840, Note_off_c, 0, 62, 64
3, 84840, Note_on_c, 0, 66, 97
3, 84960, Note_off_c, 0, 66, 64
3, 84960, Note_on_c, 0, 57, 97
3, 85080, Note_off_c, 0, 57, 64
3, 85080, Note_on_c, 0, 62, 97
3, 85200, Note_off_c, 0, 62, 64
3, 85200, Note_on_c, 0, 66, 97
3, 85320, Note_off_c, 0, 66, 64
3, 85320, Note_on_c, 0, 62, 97
3, 85440, Note_off_c, 0, 62, 64
3, 85440, Note_on_c, 0, 69, 97
3, 85560, Note_off_c, 0, 69, 64
3, 85560, Note_on_c, 0, 66, 97
3, 85680, Note_off_c, 0, 66, 64
3, 85680, Note_on_c, 0, 62, 97
3, 85800, Note_off_c, 0, 62, 64
3, 85800, Note_on_c, 0, 66, 97
3, 85920, Note_off_c, 0, 66, 64
3, 85920, Note_on_c, 0, 57, 97
3, 86040, Note_off_c, 0, 57, 64
3, 86040, Note_on_c, 0, 62, 97
3, 86160, Note_off_c, 0, 62, 64
3, 86160, Note_on_c, 0, 66, 97
3, 86280, Note_off_c, 0, 66, 64
3, 86280, Note_on_c, 0, 62, 97
3, 86400, Note_off_c, 0, 62, 64
3, 86400, Note_on_c, 0, 67, 97
3, 86520, Note_off_c, 0, 67, 64
3, 86520, Note_on_c, 0, 62, 97
3, 86640, Note_off_c, 0, 62, 64
3, 86640, Note_on_c, 0, 59, 97
3, 86760, Note_off_c, 0, 59, 64
3, 86760, Note_on_c, 0, 62, 97
3, 86880, Note_off_c, 0, 62, 64
3, 86880, Note_on_c, 0, 55, 97
3, 87000, Note_off_c, 0, 55, 64
3, 87000, Note_on_c, 0, 59, 97
3, 87120, Note_off_c, 0, 59, 64
3, 87120, Note_on_c, 0, 62, 97
3, 87240, Note_off_c, 0, 62, 64
3, 87240, Note_on_c, 0, 59, 97
3, 87360, Note_off_c, 0, 59, 64
3, 87360, Note_on_c, 0, 67, 97
3, 87480, Note_off_c, 0, 67, 64
3, 87480, Note_on_c, 0, 62, 97
3, 87600, Note_off_c, 0, 62, 64
3, 87600, Note_on_c, 0, 59, 97
3, 87720, Note_off_c, 0, 59, 64
3, 87720, Note_on_c, 0, 62, 97
3, 87840, Note_off_c, 0, 62, 64
3, 87840, Note_on_c, 0, 55, 97
3, 87960, Note_off_c, 0, 55, 64
3, 87960, Note_on_c, 0, 59, 97
3, 88080, Note_off_c, 0, 59, 64
3, 88080, Note_on_c, 0, 62, 97
3, 88200, Note_off_c, 0, 62, 64
3, 88200, Note_on_c, 0, 59, 97
3, 88320, Note_off_c, 0, 59, 64
3, 88320, Note_on_c, 0, 67, 97
3, 88440, Note_off_c, 0, 67, 64
3, 88440, Note_on_c, 0, 64, 97
3, 88560, Note_off_c, 0, 64, 64
3, 88560, Note_on_c, 0, 59, 97
3, 88680, Note_off_c, 0, 59, 64
3, 88680, Note_on_c, 0, 64, 97
3, 88800, Note_off_c, 0, 64, 64
3, 88800, Note_on_c, 0, 55, 97
3, 88920, Note_off_c, 0, 55, 64
3, 88920, Note_on_c, 0, 59, 97
3, 89040, Note_off_c, 0, 59, 64
3, 89040, Note_on_c, 0, 64, 97
3, 89160, Note_off_c, 0, 64, 64
3, 89160, Note_on_c, 0, 59, 97
3, 89280, Note_off_c, 0, 59, 64
3, 89280, Note_on_c, 0, 67, 97
3, 89400, Note_off_c, 0, 67, 64
3, 89400, Note_on_c, 0, 64, 97
3, 89520, Note_off_c, 0, 64, 64
3, 89520, Note_on_c, 0, 61, 97
3, 89640, Note_off_c, 0, 61, 64
3, 89640, Note_on_c, 0, 64, 97
3, 89760, Note_off_c, 0, 64, 64
3, 89760, Note_on_c, 0, 55, 97
3, 89880, Note_off_c, 0, 55, 64
3, 89880, Note_on_c, 0, 61, 97
3, 90000, Note_off_c, 0, 61, 64
3, 90000, Note_on_c, 0, 64, 97
3, 90120, Note_off_c, 0, 64, 64
3, 90120, Note_on_c, 0, 61, 97
3, 90240, Note_off_c, 0, 61, 64
3, 90240, Note_on_c, 0, 66, 97
3, 90360, Note_off_c, 0, 66, 64
3, 90360, Note_on_c, 0, 64, 97
3, 90480, Note_off_c, 0, 64, 64
3, 90480, Note_on_c, 0, 61, 97
3, 90600, Note_off_c, 0, 61, 64
3, 90600, Note_on_c, 0, 64, 97
3, 90720, Note_off_c, 0, 64, 64
3, 90720, Note_on_c, 0, 58, 97
3, 90840, Note_off_c, 0, 58, 64
3, 90840, Note_on_c, 0, 61, 97
3, 90960, Note_off_c, 0, 61, 64
3, 90960, Note_on_c, 0, 64, 97
3, 91080, Note_off_c, 0, 64, 64
3, 91080, Note_on_c, 0, 61, 97
3, 91200, Note_off_c, 0, 61, 64
3, 91200, Note_on_c, 0, 66, 97
3, 91320, Note_off_c, 0, 66, 64
3, 91320, Note_on_c, 0, 64, 97
3, 91440, Note_off_c, 0, 64, 64
3, 91440, Note_on_c, 0, 61, 97
3, 91560, Note_off_c, 0, 61, 64
3, 91560, Note_on_c, 0, 64, 97
3, 91680, Note_off_c, 0, 64, 64
3, 91680, Note_on_c, 0, 58, 97
3, 91800, Note_off_c, 0, 58, 64
3, 91800, Note_on_c, 0, 61, 97
3, 91920, Note_off_c, 0, 61, 64
3, 91920, Note_on_c, 0, 64, 97
3, 92040, Note_off_c, 0, 64, 64
3, 92040, Note_on_c, 0, 59, 97
3, 92160, Note_off_c, 0, 59, 64
3, 92160, Note_on_c, 0, 66, 97
3, 92280, Note_off_c, 0, 66, 64
3, 92280, Note_on_c, 0, 62, 97
3, 92400, Note_off_c, 0, 62, 64
3, 92400, Note_on_c, 0, 59, 97
3, 92520, Note_off_c, 0, 59, 64
3, 92520, Note_on_c, 0, 62, 97
3, 92640, Note_off_c, 0, 62, 64
3, 92640, Note_on_c, 0, 54, 97
3, 92760, Note_off_c, 0, 54, 64
3, 92760, Note_on_c, 0, 59, 97
3, 92880, Note_off_c, 0, 59, 64
3, 92880, Note_on_c, 0, 62, 97
3, 93000, Note_off_c, 0, 62, 64
3, 93000, Note_on_c, 0, 59, 97
3, 93120, Note_off_c, 0, 59, 64
3, 93120, Note_on_c, 0, 66, 97
3, 93240, Note_off_c, 0, 66, 64
3, 93240, Note_on_c, 0, 62, 97
3, 93360, Note_off_c, 0, 62, 64
3, 93360, Note_on_c, 0, 59, 97
3, 93480, Note_off_c, 0, 59, 64
3, 93480, Note_on_c, 0, 62, 97
3, 93600, Note_off_c, 0, 62, 64
3, 93600, Note_on_c, 0, 54, 97
3, 93720, Note_off_c, 0, 54, 64
3, 93720, Note_on_c, 0, 59, 97
3, 93840, Note_off_c, 0, 59, 64
3, 93840, Note_on_c, 0, 62, 97
3, 93960, Note_off_c, 0, 62, 64
3, 93960, Note_on_c, 0, 59, 97
3, 94080, Note_off_c, 0, 59, 64
3, 94080, Note_on_c, 0, 66, 97
3, 94200, Note_off_c, 0, 66, 64
3, 94200, Note_on_c, 0, 61, 97
3, 94320, Note_off_c, 0, 61, 64
3, 94320, Note_on_c, 0, 59, 97
3, 94440, Note_off_c, 0, 59, 64
3, 94440, Note_on_c, 0, 61, 97
3, 94560, Note_off_c, 0, 61, 64
3, 94560, Note_on_c, 0, 54, 97
3, 94680, Note_off_c, 0, 54, 64
3, 94680, Note_on_c, 0, 59, 97
3, 94800, Note_off_c, 0, 59, 64
3, 94800, Note_on_c, 0, 61, 97
3, 94920, Note_off_c, 0, 61, 64
3, 94920, Note_on_c, 0, 59, 97
3, 95040, Note_off_c, 0, 59, 64
3, 95040, Note_on_c, 0, 64, 97
3, 95160, Note_off_c, 0, 64, 64
3, 95160, Note_on_c, 0, 61, 97
3, 95280, Note_off_c, 0, 61, 64
3, 95280, Note_on_c, 0, 58, 97
3, 95400, Note_off_c, 0, 58, 64
3, 95400, Note_on_c, 0, 61, 97
3, 95520, Note_off_c, 0, 61, 64
3, 95520, Note_on_c, 0, 54, 97
3, 95640, Note_off_c, 0, 54, 64
3, 95640, Note_on_c, 0, 58, 97
3, 95760, Note_off_c, 0, 58, 64
3, 95760, Note_on_c, 0, 61, 97
3, 95880, Note_off_c, 0, 61, 64
3, 95880, Note_on_c, 0, 58, 97
3, 96000, Note_off_c, 0, 58, 64
3, 96000, Note_on_c, 0, 59, 97
3, 96240, Note_off_c, 0, 59, 64
3, 96240, Note_on_c, 0, 62, 97
3, 96360, Note_off_c, 0, 62, 64
3, 96360, Note_on_c, 0, 66, 97
3, 96480, Note_off_c, 0, 66, 64
3, 96480, Note_on_c, 0, 71, 97
3, 96600, Note_off_c, 0, 71, 64
3, 96600, Note_on_c, 0, 66, 97
3, 96720, Note_off_c, 0, 66, 64
3, 96720, Note_on_c, 0, 71, 97
3, 97200, Note_off_c, 0, 71, 64
3, 97200, Note_on_c, 0, 69, 97
3, 97320, Note_off_c, 0, 69, 64
3, 97320, Note_on_c, 0, 67, 97
3, 97440, Note_off_c, 0, 67, 64
3, 97440, Note_on_c, 0, 66, 97
3, 97560, Note_off_c, 0, 66, 64
3, 97560, Note_on_c, 0, 71, 97
3, 97680, Note_off_c, 0, 71, 64
3, 97680, Note_on_c, 0, 64, 97
3, 97800, Note_off_c, 0, 64, 64
3, 97800, Note_on_c, 0, 71, 97
3, 97920, Note_off_c, 0, 71, 64
3, 97920, Note_on_c, 0, 62, 97
3, 98040, Note_off_c, 0, 62, 64
3, 98040, Note_on_c, 0, 66, 97
3, 98160, Note_off_c, 0, 66, 64
3, 98160, Note_on_c, 0, 71, 97
3, 98400, Note_off_c, 0, 71, 64
3, 98400, Note_on_c, 0, 61, 97
3, 98640, Note_off_c, 0, 61, 64
3, 98640, Note_on_c, 0, 70, 97
3, 98880, Note_off_c, 0, 70, 64
3, 98880, Note_on_c, 0, 59, 97
3, 99000, Note_off_c, 0, 59, 64
3, 99000, Note_on_c, 0, 58, 97
3, 99120, Note_off_c, 0, 58, 64
3, 99120, Note_on_c, 0, 59, 97
3, 99240, Note_off_c, 0, 59, 64
3, 99240, Note_on_c, 0, 61, 97
3, 99360, Note_off_c, 0, 61, 64
3, 99360, Note_on_c, 0, 62, 97
3, 99480, Note_off_c, 0, 62, 64
3, 99480, Note_on_c, 0, 64, 97
3, 99600, Note_off_c, 0, 64, 64
3, 99600, Note_on_c, 0, 66, 97
3, 99720, Note_off_c, 0, 66, 64
3, 99720, Note_on_c, 0, 67, 97
3, 99840, Note_off_c, 0, 67, 64
3, 99840, Note_on_c, 0, 69, 97
3, 99960, Note_off_c, 0, 69, 64
3, 99960, Note_on_c, 0, 71, 97
3, 100080, Note_off_c, 0, 71, 64
3, 100080, Note_on_c, 0, 72, 97
3, 100200, Note_off_c, 0, 72, 64
3, 100200, Note_on_c, 0, 71, 97
3, 100320, Note_off_c, 0, 71, 64
3, 100320, Note_on_c, 0, 74, 97
3, 100440, Note_off_c, 0, 74, 64
3, 100440, Note_on_c, 0, 72, 97
3, 100560, Note_off_c, 0, 72, 64
3, 100560, Note_on_c, 0, 71, 97
3, 100680, Note_off_c, 0, 71, 64
3, 100680, Note_on_c, 0, 69, 97
3, 100800, Note_off_c, 0, 69, 64
3, 100800, Note_on_c, 0, 72, 97
3, 100920, Note_off_c, 0, 72, 64
3, 100920, Note_on_c, 0, 71, 97
3, 101040, Note_off_c, 0, 71, 64
3, 101040, Note_on_c, 0, 69, 97
3, 101160, Note_off_c, 0, 69, 64
3, 101160, Note_on_c, 0, 67, 97
3, 101280, Note_off_c, 0, 67, 64
3, 101280, Note_on_c, 0, 74, 97
3, 102000, Note_off_c, 0, 74, 64
3, 102000, Note_on_c, 0, 73, 97
3, 102120, Note_off_c, 0, 73, 64
3, 102120, Note_on_c, 0, 71, 97
3, 102240, Note_off_c, 0, 71, 64
3, 102240, Note_on_c, 0, 69, 97
3, 102360, Note_off_c, 0, 69, 64
3, 102360, Note_on_c, 0, 67, 97
3, 102480, Note_off_c, 0, 67, 64
3, 102480, Note_on_c, 0, 66, 97
3, 102600, Note_off_c, 0, 66, 64
3, 102600, Note_on_c, 0, 64, 97
3, 102720, Note_off_c, 0, 64, 64
3, 102720, Note_on_c, 0, 66, 97
3, 102960, Note_off_c, 0, 66, 64
3, 102960, Note_on_c, 0, 62, 97
3, 103200, Note_off_c, 0, 62, 64
3, 104160, Note_on_c, 0, 69, 97
3, 104880, Note_off_c, 0, 69, 64
3, 104880, Note_on_c, 0, 71, 97
3, 105000, Note_off_c, 0, 71, 64
3, 105000, Note_on_c, 0, 69, 97
3, 105120, Note_off_c, 0, 69, 64
3, 105120, Note_on_c, 0, 67, 97
3, 105240, Note_off_c, 0, 67, 64
3, 105240, Note_on_c, 0, 69, 97
3, 105360, Note_off_c, 0, 69, 64
3, 105360, Note_on_c, 0, 66, 97
3, 105480, Note_off_c, 0, 66, 64
3, 105480, Note_on_c, 0, 69, 97
3, 105600, Note_off_c, 0, 69, 64
3, 105600, Note_on_c, 0, 67, 97
3, 105840, Note_off_c, 0, 67, 64
3, 105840, Note_on_c, 0, 62, 97
3, 106080, Note_off_c, 0, 62, 64
3, 106080, Note_on_c, 0, 67, 97
3, 106800, Note_off_c, 0, 67, 64
3, 106800, Note_on_c, 0, 69, 97
3, 106920, Note_off_c, 0, 69, 64
3, 106920, Note_on_c, 0, 67, 97
3, 107040, Note_off_c, 0, 67, 64
3, 107040, Note_on_c, 0, 66, 97
3, 107160, Note_off_c, 0, 66, 64
3, 107160, Note_on_c, 0, 67, 97
3, 107280, Note_off_c, 0, 67, 64
3, 107280, Note_on_c, 0, 64, 97
3, 107400, Note_off_c, 0, 64, 64
3, 107400, Note_on_c, 0, 67, 97
3, 107520, Note_off_c, 0, 67, 64
3, 107520, Note_on_c, 0, 66, 97
3, 107760, Note_off_c, 0, 66, 64
3, 107760, Note_on_c, 0, 61, 97
3, 108000, Note_off_c, 0, 61, 64
3, 108000, Note_on_c, 0, 66, 97
3, 108720, Note_off_c, 0, 66, 64
3, 108720, Note_on_c, 0, 67, 97
3, 108840, Note_off_c, 0, 67, 64
3, 108840, Note_on_c, 0, 66, 97
3, 108960, Note_off_c, 0, 66, 64
3, 108960, Note_on_c, 0, 64, 97
3, 109080, Note_off_c, 0, 64, 64
3, 109080, Note_on_c, 0, 66, 97
3, 109200, Note_off_c, 0, 66, 64
3, 109200, Note_on_c, 0, 63, 97
3, 109320, Note_off_c, 0, 63, 64
3, 109320, Note_on_c, 0, 66, 97
3, 109440, Note_off_c, 0, 66, 64
3, 109440, Note_on_c, 0, 64, 97
3, 110640, Note_off_c, 0, 64, 64
3, 110640, Note_on_c, 0, 73, 97
3, 110880, Note_off_c, 0, 73, 64
3, 110880, Note_on_c, 0, 74, 97
3, 111120, Note_off_c, 0, 74, 64
3, 111120, Note_on_c, 0, 76, 97
3, 111360, Note_off_c, 0, 76, 64
3, 111360, Note_on_c, 0, 65, 97
3, 111600, Note_off_c, 0, 65, 64
3, 111600, Note_on_c, 0, 65, 97
3, 111840, Note_off_c, 0, 65, 64
3, 111840, Note_on_c, 0, 65, 97
3, 112080, Note_off_c, 0, 65, 64
3, 112080, Note_on_c, 0, 74, 97
3, 112200, Note_off_c, 0, 74, 64
3, 112200, Note_on_c, 0, 71, 97
3, 112320, Note_off_c, 0, 71, 64
3, 112320, Note_on_c, 0, 64, 97
3, 112560, Note_off_c, 0, 64, 64
3, 112560, Note_on_c, 0, 64, 97
3, 112800, Note_off_c, 0, 64, 64
3, 112800, Note_on_c, 0, 64, 97
3, 113040, Note_off_c, 0, 64, 64
3, 113040, Note_on_c, 0, 74, 97
3, 113160, Note_off_c, 0, 74, 64
3, 113160, Note_on_c, 0, 71, 97
3, 113280, Note_off_c, 0, 71, 64
3, 113280, Note_on_c, 0, 64, 97
3, 113520, Note_off_c, 0, 64, 64
3, 113520, Note_on_c, 0, 64, 97
3, 113760, Note_off_c, 0, 64, 64
3, 113760, Note_on_c, 0, 64, 97
3, 114000, Note_off_c, 0, 64, 64
3, 114000, Note_on_c, 0, 72, 97
3, 114120, Note_off_c, 0, 72, 64
3, 114120, Note_on_c, 0, 69, 97
3, 114240, Note_off_c, 0, 69, 64
3, 114240, Note_on_c, 0, 62, 97
3, 114480, Note_off_c, 0, 62, 64
3, 114480, Note_on_c, 0, 62, 97
3, 114720, Note_off_c, 0, 62, 64
3, 114720, Note_on_c, 0, 62, 97
3, 114960, Note_off_c, 0, 62, 64
3, 114960, Note_on_c, 0, 72, 97
3, 115080, Note_off_c, 0, 72, 64
3, 115080, Note_on_c, 0, 69, 97
3, 115200, Note_off_c, 0, 69, 64
3, 115200, Note_on_c, 0, 62, 97
3, 115440, Note_off_c, 0, 62, 64
3, 115440, Note_on_c, 0, 62, 97
3, 115680, Note_off_c, 0, 62, 64
3, 115680, Note_on_c, 0, 62, 97
3, 115920, Note_off_c, 0, 62, 64
3, 115920, Note_on_c, 0, 71, 97
3, 116040, Note_off_c, 0, 71, 64
3, 116040, Note_on_c, 0, 68, 97
3, 116160, Note_off_c, 0, 68, 64
3, 116160, Note_on_c, 0, 60, 97
3, 116400, Note_off_c, 0, 60, 64
3, 116400, Note_on_c, 0, 60, 97
3, 116640, Note_off_c, 0, 60, 64
3, 116640, Note_on_c, 0, 60, 97
3, 116880, Note_off_c, 0, 60, 64
3, 116880, Note_on_c, 0, 71, 97
3, 117000, Note_off_c, 0, 71, 64
3, 117000, Note_on_c, 0, 68, 97
3, 117120, Note_off_c, 0, 68, 64
3, 117120, Note_on_c, 0, 60, 97
3, 118320, Note_off_c, 0, 60, 64
3, 118320, Note_on_c, 0, 72, 97
3, 118560, Note_off_c, 0, 72, 64
3, 118560, Note_on_c, 0, 71, 97
3, 118800, Note_off_c, 0, 71, 64
3, 118800, Note_on_c, 0, 69, 97
3, 119040, Note_off_c, 0, 69, 64
3, 119040, Note_on_c, 0, 67, 97
3, 119520, Note_off_c, 0, 67, 64
3, 119520, Note_on_c, 0, 67, 97
3, 120000, Note_off_c, 0, 67, 64
3, 120000, Note_on_c, 0, 67, 97
3, 120240, Note_off_c, 0, 67, 64
3, 120240, Note_on_c, 0, 66, 97
3, 120360, Note_off_c, 0, 66, 64
3, 120360, Note_on_c, 0, 64, 97
3, 120480, Note_off_c, 0, 64, 64
3, 120480, Note_on_c, 0, 62, 97
3, 120720, Note_off_c, 0, 62, 64
3, 120720, Note_on_c, 0, 60, 97
3, 120960, Note_off_c, 0, 60, 64
3, 120960, Note_on_c, 0, 59, 97
3, 121080, Note_off_c, 0, 59, 64
3, 121080, Note_on_c, 0, 62, 97
3, 121200, Note_off_c, 0, 62, 64
3, 121200, Note_on_c, 0, 67, 97
3, 121440, Note_off_c, 0, 67, 64
3, 121440, Note_on_c, 0, 57, 97
3, 121680, Note_off_c, 0, 57, 64
3, 121680, Note_on_c, 0, 66, 97
3, 121920, Note_off_c, 0, 66, 64
3, 121920, Note_on_c, 0, 55, 97
3, 122160, Note_off_c, 0, 55, 64
3, 122880, Note_on_c, 0, 69, 97
3, 123360, Note_off_c, 0, 69, 64
3, 123360, Note_on_c, 0, 69, 97
3, 123840, Note_off_c, 0, 69, 64
3, 123840, Note_on_c, 0, 69, 97
3, 124080, Note_off_c, 0, 69, 64
3, 124080, Note_on_c, 0, 67, 97
3, 124200, Note_off_c, 0, 67, 64
3, 124200, Note_on_c, 0, 65, 97
3, 124320, Note_off_c, 0, 65, 64
3, 124320, Note_on_c, 0, 64, 97
3, 124440, Note_off_c, 0, 64, 64
3, 124440, Note_on_c, 0, 62, 97
3, 124560, Note_off_c, 0, 62, 64
3, 124560, Note_on_c, 0, 60, 97
3, 124680, Note_off_c, 0, 60, 64
3, 124680, Note_on_c, 0, 59, 97
3, 124800, Note_off_c, 0, 59, 64
3, 124800, Note_on_c, 0, 60, 97
3, 124920, Note_off_c, 0, 60, 64
3, 124920, Note_on_c, 0, 64, 97
3, 125040, Note_off_c, 0, 64, 64
3, 125040, Note_on_c, 0, 69, 97
3, 125280, Note_off_c, 0, 69, 64
3, 125280, Note_on_c, 0, 59, 97
3, 125520, Note_off_c, 0, 59, 64
3, 125520, Note_on_c, 0, 68, 97
3, 125760, Note_off_c, 0, 68, 64
3, 125760, Note_on_c, 0, 57, 97
3, 126000, Note_off_c, 0, 57, 64
3, 126720, Note_on_c, 0, 76, 97
3, 127200, Note_off_c, 0, 76, 64
3, 127200, Note_on_c, 0, 76, 97
3, 127680, Note_off_c, 0, 76, 64
3, 127680, Note_on_c, 0, 76, 97
3, 127920, Note_off_c, 0, 76, 64
3, 127920, Note_on_c, 0, 74, 97
3, 128040, Note_off_c, 0, 74, 64
3, 128040, Note_on_c, 0, 72, 97
3, 128160, Note_off_c, 0, 72, 64
3, 128160, Note_on_c, 0, 71, 97
3, 128280, Note_off_c, 0, 71, 64
3, 128280, Note_on_c, 0, 72, 97
3, 128400, Note_off_c, 0, 72, 64
3, 128400, Note_on_c, 0, 69, 97
3, 128520, Note_off_c, 0, 69, 64
3, 128520, Note_on_c, 0, 71, 97
3, 128640, Note_off_c, 0, 71, 64
3, 128640, Note_on_c, 0, 68, 97
3, 128760, Note_off_c, 0, 68, 64
3, 128760, Note_on_c, 0, 69, 97
3, 128880, Note_off_c, 0, 69, 64
3, 128880, Note_on_c, 0, 71, 97
3, 129000, Note_off_c, 0, 71, 64
3, 129000, Note_on_c, 0, 74, 97
3, 129120, Note_off_c, 0, 74, 64
3, 129120, Note_on_c, 0, 72, 97
3, 129240, Note_off_c, 0, 72, 64
3, 129240, Note_on_c, 0, 71, 97
3, 129360, Note_off_c, 0, 71, 64
3, 129360, Note_on_c, 0, 69, 97
3, 129480, Note_off_c, 0, 69, 64
3, 129480, Note_on_c, 0, 68, 97
3, 129600, Note_off_c, 0, 68, 64
3, 129600, Note_on_c, 0, 69, 97
3, 129720, Note_off_c, 0, 69, 64
3, 129720, Note_on_c, 0, 68, 97
3, 129840, Note_off_c, 0, 68, 64
3, 129840, Note_on_c, 0, 66, 97
3, 129960, Note_off_c, 0, 66, 64
3, 129960, Note_on_c, 0, 64, 97
3, 130080, Note_off_c, 0, 64, 64
3, 130080, Note_on_c, 0, 66, 97
3, 130200, Note_off_c, 0, 66, 64
3, 130200, Note_on_c, 0, 69, 97
3, 130320, Note_off_c, 0, 69, 64
3, 130320, Note_on_c, 0, 68, 97
3, 130440, Note_off_c, 0, 68, 64
3, 130440, Note_on_c, 0, 71, 97
3, 130560, Note_off_c, 0, 71, 64
3, 130560, Note_on_c, 0, 69, 97
3, 130680, Note_off_c, 0, 69, 64
3, 130680, Note_on_c, 0, 64, 97
3, 130800, Note_off_c, 0, 64, 64
3, 130800, Note_on_c, 0, 60, 97
3, 130920, Note_off_c, 0, 60, 64
3, 130920, Note_on_c, 0, 64, 97
3, 131040, Note_off_c, 0, 64, 64
3, 131040, Note_on_c, 0, 57, 97
3, 131160, Note_off_c, 0, 57, 64
3, 131160, Note_on_c, 0, 60, 97
3, 131280, Note_off_c, 0, 60, 64
3, 131280, Note_on_c, 0, 64, 97
3, 131400, Note_off_c, 0, 64, 64
3, 131400, Note_on_c, 0, 60, 97
3, 131520, Note_off_c, 0, 60, 64
3, 131520, Note_on_c, 0, 69, 97
3, 131640, Note_off_c, 0, 69, 64
3, 131640, Note_on_c, 0, 64, 97
3, 131760, Note_off_c, 0, 64, 64
3, 131760, Note_on_c, 0, 60, 97
3, 131880, Note_off_c, 0, 60, 64
3, 131880, Note_on_c, 0, 64, 97
3, 132000, Note_off_c, 0, 64, 64
3, 132000, Note_on_c, 0, 57, 97
3, 132120, Note_off_c, 0, 57, 64
3, 132120, Note_on_c, 0, 60, 97
3, 132240, Note_off_c, 0, 60, 64
3, 132240, Note_on_c, 0, 64, 97
3, 132360, Note_off_c, 0, 64, 64
3, 132360, Note_on_c, 0, 60, 97
3, 132480, Note_off_c, 0, 60, 64
3, 132480, Note_on_c, 0, 69, 97
3, 132600, Note_off_c, 0, 69, 64
3, 132600, Note_on_c, 0, 66, 97
3, 132720, Note_off_c, 0, 66, 64
3, 132720, Note_on_c, 0, 62, 97
3, 132840, Note_off_c, 0, 62, 64
3, 132840, Note_on_c, 0, 66, 97
3, 132960, Note_off_c, 0, 66, 64
3, 132960, Note_on_c, 0, 57, 97
3, 133080, Note_off_c, 0, 57, 64
3, 133080, Note_on_c, 0, 62, 97
3, 133200, Note_off_c, 0, 62, 64
3, 133200, Note_on_c, 0, 66, 97
3, 133320, Note_off_c, 0, 66, 64
3, 133320, Note_on_c, 0, 62, 97
3, 133440, Note_off_c, 0, 62, 64
3, 133440, Note_on_c, 0, 69, 97
3, 133560, Note_off_c, 0, 69, 64
3, 133560, Note_on_c, 0, 66, 97
3, 133680, Note_off_c, 0, 66, 64
3, 133680, Note_on_c, 0, 62, 97
3, 133800, Note_off_c, 0, 62, 64
3, 133800, Note_on_c, 0, 66, 97
3, 133920, Note_off_c, 0, 66, 64
3, 133920, Note_on_c, 0, 57, 97
3, 134040, Note_off_c, 0, 57, 64
3, 134040, Note_on_c, 0, 62, 97
3, 134160, Note_off_c, 0, 62, 64
3, 134160, Note_on_c, 0, 66, 97
3, 134280, Note_off_c, 0, 66, 64
3, 134280, Note_on_c, 0, 62, 97
3, 134400, Note_off_c, 0, 62, 64
3, 134400, Note_on_c, 0, 67, 97
3, 134520, Note_off_c, 0, 67, 64
3, 134520, Note_on_c, 0, 62, 97
3, 134640, Note_off_c, 0, 62, 64
3, 134640, Note_on_c, 0, 59, 97
3, 134760, Note_off_c, 0, 59, 64
3, 134760, Note_on_c, 0, 62, 97
3, 134880, Note_off_c, 0, 62, 64
3, 134880, Note_on_c, 0, 55, 97
3, 135000, Note_off_c, 0, 55, 64
3, 135000, Note_on_c, 0, 59, 97
3, 135120, Note_off_c, 0, 59, 64
3, 135120, Note_on_c, 0, 62, 97
3, 135240, Note_off_c, 0, 62, 64
3, 135240, Note_on_c, 0, 59, 97
3, 135360, Note_off_c, 0, 59, 64
3, 135360, Note_on_c, 0, 67, 97
3, 135480, Note_off_c, 0, 67, 64
3, 135480, Note_on_c, 0, 62, 97
3, 135600, Note_off_c, 0, 62, 64
3, 135600, Note_on_c, 0, 59, 97
3, 135720, Note_off_c, 0, 59, 64
3, 135720, Note_on_c, 0, 62, 97
3, 135840, Note_off_c, 0, 62, 64
3, 135840, Note_on_c, 0, 55, 97
3, 135960, Note_off_c, 0, 55, 64
3, 135960, Note_on_c, 0, 59, 97
3, 136080, Note_off_c, 0, 59, 64
3, 136080, Note_on_c, 0, 62, 97
3, 136200, Note_off_c, 0, 62, 64
3, 136200, Note_on_c, 0, 59, 97
3, 136320, Note_off_c, 0, 59, 64
3, 136320, Note_on_c, 0, 67, 97
3, 136440, Note_off_c, 0, 67, 64
3, 136440, Note_on_c, 0, 64, 97
3, 136560, Note_off_c, 0, 64, 64
3, 136560, Note_on_c, 0, 60, 97
3, 136680, Note_off_c, 0, 60, 64
3, 136680, Note_on_c, 0, 64, 97
3, 136800, Note_off_c, 0, 64, 64
3, 136800, Note_on_c, 0, 55, 97
3, 136920, Note_off_c, 0, 55, 64
3, 136920, Note_on_c, 0, 60, 97
3, 137040, Note_off_c, 0, 60, 64
3, 137040, Note_on_c, 0, 64, 97
3, 137160, Note_off_c, 0, 64, 64
3, 137160, Note_on_c, 0, 60, 97
3, 137280, Note_off_c, 0, 60, 64
3, 137280, Note_on_c, 0, 67, 97
3, 137400, Note_off_c, 0, 67, 64
3, 137400, Note_on_c, 0, 64, 97
3, 137520, Note_off_c, 0, 64, 64
3, 137520, Note_on_c, 0, 60, 97
3, 137640, Note_off_c, 0, 60, 64
3, 137640, Note_on_c, 0, 64, 97
3, 137760, Note_off_c, 0, 64, 64
3, 137760, Note_on_c, 0, 55, 97
3, 137880, Note_off_c, 0, 55, 64
3, 137880, Note_on_c, 0, 60, 97
3, 138000, Note_off_c, 0, 60, 64
3, 138000, Note_on_c, 0, 64, 97
3, 138120, Note_off_c, 0, 64, 64
3, 138120, Note_on_c, 0, 60, 97
3, 138240, Note_off_c, 0, 60, 64
3, 138240, Note_on_c, 0, 66, 97
3, 138360, Note_off_c, 0, 66, 64
3, 138360, Note_on_c, 0, 60, 97
3, 138480, Note_off_c, 0, 60, 64
3, 138480, Note_on_c, 0, 57, 97
3, 138600, Note_off_c, 0, 57, 64
3, 138600, Note_on_c, 0, 60, 97
3, 138720, Note_off_c, 0, 60, 64
3, 138720, Note_on_c, 0, 54, 97
3, 138840, Note_off_c, 0, 54, 64
3, 138840, Note_on_c, 0, 57, 97
3, 138960, Note_off_c, 0, 57, 64
3, 138960, Note_on_c, 0, 60, 97
3, 139080, Note_off_c, 0, 60, 64
3, 139080, Note_on_c, 0, 57, 97
3, 139200, Note_off_c, 0, 57, 64
3, 139200, Note_on_c, 0, 66, 97
3, 139320, Note_off_c, 0, 66, 64
3, 139320, Note_on_c, 0, 60, 97
3, 139440, Note_off_c, 0, 60, 64
3, 139440, Note_on_c, 0, 57, 97
3, 139560, Note_off_c, 0, 57, 64
3, 139560, Note_on_c, 0, 60, 97
3, 139680, Note_off_c, 0, 60, 64
3, 139680, Note_on_c, 0, 54, 97
3, 139800, Note_off_c, 0, 54, 64
3, 139800, Note_on_c, 0, 57, 97
3, 139920, Note_off_c, 0, 57, 64
3, 139920, Note_on_c, 0, 60, 97
3, 140040, Note_off_c, 0, 60, 64
3, 140040, Note_on_c, 0, 57, 97
3, 140160, Note_off_c, 0, 57, 64
3, 140160, Note_on_c, 0, 66, 97
3, 140280, Note_off_c, 0, 66, 64
3, 140280, Note_on_c, 0, 63, 97
3, 140400, Note_off_c, 0, 63, 64
3, 140400, Note_on_c, 0, 59, 97
3, 140520, Note_off_c, 0, 59, 64
3, 140520, Note_on_c, 0, 63, 97
3, 140640, Note_off_c, 0, 63, 64
3, 140640, Note_on_c, 0, 54, 97
3, 140760, Note_off_c, 0, 54, 64
3, 140760, Note_on_c, 0, 59, 97
3, 140880, Note_off_c, 0, 59, 64
3, 140880, Note_on_c, 0, 63, 97
3, 141000, Note_off_c, 0, 63, 64
3, 141000, Note_on_c, 0, 59, 97
3, 141120, Note_off_c, 0, 59, 64
3, 141120, Note_on_c, 0, 66, 97
3, 141240, Note_off_c, 0, 66, 64
3, 141240, Note_on_c, 0, 63, 97
3, 141360, Note_off_c, 0, 63, 64
3, 141360, Note_on_c, 0, 59, 97
3, 141480, Note_off_c, 0, 59, 64
3, 141480, Note_on_c, 0, 63, 97
3, 141600, Note_off_c, 0, 63, 64
3, 141600, Note_on_c, 0, 54, 97
3, 141720, Note_off_c, 0, 54, 64
3, 141720, Note_on_c, 0, 59, 97
3, 141840, Note_off_c, 0, 59, 64
3, 141840, Note_on_c, 0, 63, 97
3, 141960, Note_off_c, 0, 63, 64
3, 141960, Note_on_c, 0, 59, 97
3, 142080, Note_off_c, 0, 59, 64
3, 142080, Note_on_c, 0, 64, 97
3, 142200, Note_off_c, 0, 64, 64
3, 142200, Note_on_c, 0, 59, 97
3, 142320, Note_off_c, 0, 59, 64
3, 142320, Note_on_c, 0, 55, 97
3, 142440, Note_off_c, 0, 55, 64
3, 142440, Note_on_c, 0, 59, 97
3, 142560, Note_off_c, 0, 59, 64
3, 142560, Note_on_c, 0, 52, 97
3, 142680, Note_off_c, 0, 52, 64
3, 142680, Note_on_c, 0, 55, 97
3, 142800, Note_off_c, 0, 55, 64
3, 142800, Note_on_c, 0, 59, 97
3, 142920, Note_off_c, 0, 59, 64
3, 142920, Note_on_c, 0, 55, 97
3, 143040, Note_off_c, 0, 55, 64
3, 143040, Note_on_c, 0, 64, 97
3, 143160, Note_off_c, 0, 64, 64
3, 143160, Note_on_c, 0, 59, 97
3, 143280, Note_off_c, 0, 59, 64
3, 143280, Note_on_c, 0, 55, 97
3, 143400, Note_off_c, 0, 55, 64
3, 143400, Note_on_c, 0, 59, 97
3, 143520, Note_off_c, 0, 59, 64
3, 143520, Note_on_c, 0, 52, 97
3, 143640, Note_off_c, 0, 52, 64
3, 143640, Note_on_c, 0, 55, 97
3, 143760, Note_off_c, 0, 55, 64
3, 143760, Note_on_c, 0, 59, 97
3, 143880, Note_off_c, 0, 59, 64
3, 143880, Note_on_c, 0, 55, 97
3, 144000, Note_off_c, 0, 55, 64
3, 144000, Note_on_c, 0, 64, 97
3, 144120, Note_off_c, 0, 64, 64
3, 144120, Note_on_c, 0, 61, 97
3, 144240, Note_off_c, 0, 61, 64
3, 144240, Note_on_c, 0, 57, 97
3, 144360, Note_off_c, 0, 57, 64
3, 144360, Note_on_c, 0, 61, 97
3, 144480, Note_off_c, 0, 61, 64
3, 144480, Note_on_c, 0, 52, 97
3, 144600, Note_off_c, 0, 52, 64
3, 144600, Note_on_c, 0, 57, 97
3, 144720, Note_off_c, 0, 57, 64
3, 144720, Note_on_c, 0, 61, 97
3, 144840, Note_off_c, 0, 61, 64
3, 144840, Note_on_c, 0, 57, 97
3, 144960, Note_off_c, 0, 57, 64
3, 144960, Note_on_c, 0, 64, 97
3, 145080, Note_off_c, 0, 64, 64
3, 145080, Note_on_c, 0, 61, 97
3, 145200, Note_off_c, 0, 61, 64
3, 145200, Note_on_c, 0, 57, 97
3, 145320, Note_off_c, 0, 57, 64
3, 145320, Note_on_c, 0, 61, 97
3, 145440, Note_off_c, 0, 61, 64
3, 145440, Note_on_c, 0, 52, 97
3, 145560, Note_off_c, 0, 52, 64
3, 145560, Note_on_c, 0, 57, 97
3, 145680, Note_off_c, 0, 57, 64
3, 145680, Note_on_c, 0, 61, 97
3, 145800, Note_off_c, 0, 61, 64
3, 145800, Note_on_c, 0, 57, 97
3, 145920, Note_off_c, 0, 57, 64
3, 145920, Note_on_c, 0, 62, 97
3, 146160, Note_off_c, 0, 62, 64
3, 146160, Note_on_c, 0, 50, 97
3, 146400, Note_off_c, 0, 50, 64
3, 146400, Note_on_c, 0, 54, 97
3, 146640, Note_off_c, 0, 54, 64
3, 146640, Note_on_c, 0, 57, 97
3, 146880, Note_off_c, 0, 57, 64
3, 146880, Note_on_c, 0, 60, 97
3, 147000, Note_off_c, 0, 60, 64
3, 147000, Note_on_c, 0, 54, 97
3, 147120, Note_off_c, 0, 54, 64
3, 147120, Note_on_c, 0, 57, 97
3, 147240, Note_off_c, 0, 57, 64
3, 147240, Note_on_c, 0, 60, 97
3, 147360, Note_off_c, 0, 60, 64
3, 147360, Note_on_c, 0, 63, 97
3, 147600, Note_off_c, 0, 63, 64
3, 148080, Note_on_c, 0, 55, 97
3, 148320, Note_off_c, 0, 55, 64
3, 148320, Note_on_c, 0, 58, 97
3, 148560, Note_off_c, 0, 58, 64
3, 148560, Note_on_c, 0, 62, 97
3, 148800, Note_off_c, 0, 62, 64
3, 148800, Note_on_c, 0, 67, 97
3, 148920, Note_off_c, 0, 67, 64
3, 148920, Note_on_c, 0, 58, 97
3, 149040, Note_off_c, 0, 58, 64
3, 149040, Note_on_c, 0, 62, 97
3, 149160, Note_off_c, 0, 62, 64
3, 149160, Note_on_c, 0, 67, 97
3, 149280, Note_off_c, 0, 67, 64
3, 149280, Note_on_c, 0, 70, 97
3, 149520, Note_off_c, 0, 70, 64
3, 150000, Note_on_c, 0, 61, 97
3, 150240, Note_off_c, 0, 61, 64
3, 150240, Note_on_c, 0, 64, 97
3, 150480, Note_off_c, 0, 64, 64
3, 150480, Note_on_c, 0, 67, 97
3, 150720, Note_off_c, 0, 67, 64
3, 150720, Note_on_c, 0, 70, 97
3, 150840, Note_off_c, 0, 70, 64
3, 150840, Note_on_c, 0, 67, 97
3, 150960, Note_off_c, 0, 67, 64
3, 150960, Note_on_c, 0, 70, 97
3, 151080, Note_off_c, 0, 70, 64
3, 151080, Note_on_c, 0, 73, 97
3, 151200, Note_off_c, 0, 73, 64
3, 151200, Note_on_c, 0, 76, 97
3, 151440, Note_off_c, 0, 76, 64
3, 151800, Note_on_c, 0, 74, 97
3, 151920, Note_off_c, 0, 74, 64
3, 151920, Note_on_c, 0, 72, 97
3, 152040, Note_off_c, 0, 72, 64
3, 152040, Note_on_c, 0, 70, 97
3, 152160, Note_off_c, 0, 70, 64
3, 152160, Note_on_c, 0, 69, 97
3, 152280, Note_off_c, 0, 69, 64
3, 152280, Note_on_c, 0, 67, 97
3, 152400, Note_off_c, 0, 67, 64
3, 152400, Note_on_c, 0, 66, 97
3, 152520, Note_off_c, 0, 66, 64
3, 152520, Note_on_c, 0, 64, 97
3, 152640, Note_off_c, 0, 64, 64
3, 152640, Note_on_c, 0, 62, 97
3, 152880, Note_off_c, 0, 62, 64
3, 153600, Note_on_c, 0, 67, 97
3, 154080, Note_off_c, 0, 67, 64
3, 154080, Note_on_c, 0, 67, 97
3, 154560, Note_off_c, 0, 67, 64
3, 154560, Note_on_c, 0, 67, 97
3, 154800, Note_off_c, 0, 67, 64
3, 155040, Note_on_c, 0, 62, 97
3, 155280, Note_off_c, 0, 62, 64
3, 155280, Note_on_c, 0, 60, 97
3, 155520, Note_off_c, 0, 60, 64
3, 155520, Note_on_c, 0, 59, 97
3, 155760, Note_off_c, 0, 59, 64
3, 155760, Note_on_c, 0, 67, 97
3, 156000, Note_off_c, 0, 67, 64
3, 156000, Note_on_c, 0, 57, 97
3, 156240, Note_off_c, 0, 57, 64
3, 156240, Note_on_c, 0, 66, 97
3, 156480, Note_off_c, 0, 66, 64
3, 156480, Note_on_c, 0, 55, 97
3, 156720, Note_off_c, 0, 55, 64
3, 157440, Note_on_c, 0, 74, 97
3, 157920, Note_off_c, 0, 74, 64
3, 157920, Note_on_c, 0, 74, 97
3, 158400, Note_off_c, 0, 74, 64
3, 158400, Note_on_c, 0, 74, 97
3, 158640, Note_off_c, 0, 74, 64
3, 158640, Note_on_c, 0, 73, 97
3, 158760, Note_off_c, 0, 73, 64
3, 158760, Note_on_c, 0, 71, 97
3, 158880, Note_off_c, 0, 71, 64
3, 158880, Note_on_c, 0, 69, 97
3, 159000, Note_off_c, 0, 69, 64
3, 159000, Note_on_c, 0, 74, 97
3, 159120, Note_off_c, 0, 74, 64
3, 159120, Note_on_c, 0, 67, 97
3, 159240, Note_off_c, 0, 67, 64
3, 159240, Note_on_c, 0, 74, 97
3, 159360, Note_off_c, 0, 74, 64
3, 159360, Note_on_c, 0, 66, 97
3, 159480, Note_off_c, 0, 66, 64
3, 159480, Note_on_c, 0, 74, 97
3, 159600, Note_off_c, 0, 74, 64
3, 159600, Note_on_c, 0, 73, 97
3, 159720, Note_off_c, 0, 73, 64
3, 159720, Note_on_c, 0, 74, 97
3, 159840, Note_off_c, 0, 74, 64
3, 159840, Note_on_c, 0, 64, 97
3, 159960, Note_off_c, 0, 64, 64
3, 159960, Note_on_c, 0, 74, 97
3, 160080, Note_off_c, 0, 74, 64
3, 160080, Note_on_c, 0, 73, 97
3, 160200, Note_off_c, 0, 73, 64
3, 160200, Note_on_c, 0, 74, 97
3, 160320, Note_off_c, 0, 74, 64
3, 160320, Note_on_c, 0, 62, 97
3, 160440, Note_off_c, 0, 62, 64
3, 160440, Note_on_c, 0, 64, 97
3, 160560, Note_off_c, 0, 64, 64
3, 160560, Note_on_c, 0, 66, 97
3, 160680, Note_off_c, 0, 66, 64
3, 160680, Note_on_c, 0, 67, 97
3, 160800, Note_off_c, 0, 67, 64
3, 160800, Note_on_c, 0, 69, 97
3, 160920, Note_off_c, 0, 69, 64
3, 160920, Note_on_c, 0, 71, 97
3, 161040, Note_off_c, 0, 71, 64
3, 161040, Note_on_c, 0, 72, 97
3, 161160, Note_off_c, 0, 72, 64
3, 161160, Note_on_c, 0, 69, 97
3, 161280, Note_off_c, 0, 69, 64
3, 161280, Note_on_c, 0, 66, 97
3, 161520, Note_off_c, 0, 66, 64
3, 161520, Note_on_c, 0, 69, 97
3, 161640, Note_off_c, 0, 69, 64
3, 161640, Note_on_c, 0, 66, 97
3, 161760, Note_off_c, 0, 66, 64
3, 161760, Note_on_c, 0, 62, 97
3, 162000, Note_off_c, 0, 62, 64
3, 162000, Note_on_c, 0, 62, 97
3, 162240, Note_off_c, 0, 62, 64
3, 162240, Note_on_c, 0, 62, 97
3, 162480, Note_off_c, 0, 62, 64
3, 162480, Note_on_c, 0, 71, 97
3, 162600, Note_off_c, 0, 71, 64
3, 162600, Note_on_c, 0, 67, 97
3, 162720, Note_off_c, 0, 67, 64
3, 162720, Note_on_c, 0, 62, 97
3, 162960, Note_off_c, 0, 62, 64
3, 162960, Note_on_c, 0, 62, 97
3, 163200, Note_off_c, 0, 62, 64
3, 163200, Note_on_c, 0, 62, 97
3, 163440, Note_off_c, 0, 62, 64
3, 163440, Note_on_c, 0, 72, 97
3, 163560, Note_off_c, 0, 72, 64
3, 163560, Note_on_c, 0, 69, 97
3, 163680, Note_off_c, 0, 69, 64
3, 163680, Note_on_c, 0, 62, 97
3, 163920, Note_off_c, 0, 62, 64
3, 163920, Note_on_c, 0, 62, 97
3, 164160, Note_off_c, 0, 62, 64
3, 164160, Note_on_c, 0, 62, 97
3, 164400, Note_off_c, 0, 62, 64
3, 164400, Note_on_c, 0, 66, 97
3, 164520, Note_off_c, 0, 66, 64
3, 164520, Note_on_c, 0, 69, 97
3, 164640, Note_off_c, 0, 69, 64
3, 164640, Note_on_c, 0, 72, 97
3, 164880, Note_off_c, 0, 72, 64
3, 164880, Note_on_c, 0, 66, 97
3, 165000, Note_off_c, 0, 66, 64
3, 165000, Note_on_c, 0, 69, 97
3, 165120, Note_off_c, 0, 69, 64
3, 165120, Note_on_c, 0, 71, 97
3, 165360, Note_off_c, 0, 71, 64
3, 165360, Note_on_c, 0, 72, 97
3, 165600, Note_off_c, 0, 72, 64
3, 165600, Note_on_c, 0, 69, 97
3, 165840, Note_off_c, 0, 69, 64
3, 165840, Note_on_c, 0, 71, 97
3, 166080, Note_off_c, 0, 71, 64
3, 166080, Note_on_c, 0, 62, 97
3, 166320, Note_off_c, 0, 62, 64
3, 166320, Note_on_c, 0, 62, 97
3, 166560, Note_off_c, 0, 62, 64
3, 166560, Note_on_c, 0, 62, 97
3, 166800, Note_off_c, 0, 62, 64
3, 166800, Note_on_c, 0, 71, 97
3, 167040, Note_off_c, 0, 71, 64
3, 167040, Note_on_c, 0, 60, 97
3, 167280, Note_off_c, 0, 60, 64
3, 167280, Note_on_c, 0, 72, 97
3, 167520, Note_off_c, 0, 72, 64
3, 167520, Note_on_c, 0, 69, 97
3, 167760, Note_off_c, 0, 69, 64
3, 167760, Note_on_c, 0, 71, 97
3, 168000, Note_off_c, 0, 71, 64
3, 168240, Note_on_c, 0, 59, 97
3, 168360, Note_off_c, 0, 59, 64
3, 168360, Note_on_c, 0, 57, 97
3, 168480, Note_off_c, 0, 57, 64
3, 168480, Note_on_c, 0, 60, 97
3, 168600, Note_off_c, 0, 60, 64
3, 168600, Note_on_c, 0, 59, 97
3, 168720, Note_off_c, 0, 59, 64
3, 168720, Note_on_c, 0, 57, 97
3, 168840, Note_off_c, 0, 57, 64
3, 168840, Note_on_c, 0, 55, 97
3, 168960, Note_off_c, 0, 55, 64
3, 168960, Note_on_c, 0, 67, 97
3, 169200, Note_off_c, 0, 67, 64
3, 169200, Note_on_c, 0, 72, 97
3, 169440, Note_off_c, 0, 72, 64
3, 169440, Note_on_c, 0, 69, 97
3, 169680, Note_off_c, 0, 69, 64
3, 169680, Note_on_c, 0, 71, 97
3, 169920, Note_off_c, 0, 71, 64
3, 169920, Note_on_c, 0, 66, 97
3, 170160, Note_off_c, 0, 66, 64
3, 170160, Note_on_c, 0, 62, 97
3, 170400, Note_off_c, 0, 62, 64
3, 170400, Note_on_c, 0, 67, 97
3, 171000, Note_off_c, 0, 67, 64
3, 171000, Note_on_c, 0, 71, 97
3, 171120, Note_off_c, 0, 71, 64
3, 171120, Note_on_c, 0, 67, 97
3, 171240, Note_off_c, 0, 67, 64
3, 171240, Note_on_c, 0, 62, 97
3, 171360, Note_off_c, 0, 62, 64
3, 171360, Note_on_c, 0, 66, 97
3, 171480, Note_off_c, 0, 66, 64
3, 171480, Note_on_c, 0, 69, 97
3, 171600, Note_off_c, 0, 69, 64
3, 171600, Note_on_c, 0, 66, 97
3, 171720, Note_off_c, 0, 66, 64
3, 171720, Note_on_c, 0, 60, 97
3, 171840, Note_off_c, 0, 60, 64
3, 171840, Note_on_c, 0, 59, 97
3, 171840, Note_on_c, 0, 67, 97
3, 172800, Note_off_c, 0, 67, 64
3, 172800, Note_off_c, 0, 59, 64
3, 179762, Note_on_c, 0, 64, 97
3, 180002, Note_on_c, 0, 71, 97
3, 180005, Note_off_c, 0, 64, 64
3, 180032, Note_on_c, 0, 73, 97
3, 180062, Note_on_c, 0, 74, 97
3, 180065, Note_off_c, 0, 71, 64
3, 180095, Note_off_c, 0, 73, 64
3, 180362, Note_on_c, 0, 73, 97
3, 180395, Note_off_c, 0, 74, 64
3, 180482, Note_on_c, 0, 71, 97
3, 180485, Note_off_c, 0, 73, 64
3, 180722, Note_on_c, 0, 71, 97
3, 180725, Note_off_c, 0, 71, 64
3, 180842, Note_on_c, 0, 70, 97
3, 180845, Note_off_c, 0, 71, 64
3, 180962, Note_on_c, 0, 71, 97
3, 180965, Note_off_c, 0, 70, 64
3, 181205, Note_off_c, 0, 71, 64
3, 181442, Note_on_c, 0, 64, 97
3, 181562, Note_on_c, 0, 63, 97
3, 181565, Note_off_c, 0, 64, 64
3, 181802, Note_on_c, 0, 64, 97
3, 181805, Note_off_c, 0, 63, 64
3, 181862, Note_on_c, 0, 66, 97
3, 181865, Note_off_c, 0, 64, 64
3, 181922, Note_on_c, 0, 64, 97
3, 181925, Note_off_c, 0, 66, 64
3, 181982, Note_on_c, 0, 63, 97
3, 181985, Note_off_c, 0, 64, 64
3, 182042, Note_on_c, 0, 61, 97
3, 182045, Note_off_c, 0, 63, 64
3, 182102, Note_on_c, 0, 59, 97
3, 182105, Note_off_c, 0, 61, 64
3, 182162, Note_on_c, 0, 69, 97
3, 182165, Note_off_c, 0, 59, 64
3, 182222, Note_on_c, 0, 68, 97
3, 182225, Note_off_c, 0, 69, 64
3, 182282, Note_on_c, 0, 66, 97
3, 182285, Note_off_c, 0, 68, 64
3, 182402, Note_on_c, 0, 68, 97
3, 182405, Note_off_c, 0, 66, 64
3, 182645, Note_off_c, 0, 68, 64
3, 182882, Note_on_c, 0, 69, 97
3, 182912, Note_on_c, 0, 67, 97
3, 182915, Note_off_c, 0, 69, 64
3, 182942, Note_on_c, 0, 66, 97
3, 182945, Note_off_c, 0, 67, 64
3, 183002, Note_on_c, 0, 67, 97
3, 183005, Note_off_c, 0, 66, 64
3, 183242, Note_on_c, 0, 70, 97
3, 183245, Note_off_c, 0, 67, 64
3, 183482, Note_on_c, 0, 73, 97
3, 183485, Note_off_c, 0, 70, 64
3, 183602, Note_on_c, 0, 76, 97
3, 183605, Note_off_c, 0, 73, 64
3, 183722, Note_on_c, 0, 67, 97
3, 183725, Note_off_c, 0, 76, 64
3, 183842, Note_on_c, 0, 66, 97
3, 183845, Note_off_c, 0, 67, 64
3, 184202, Note_on_c, 0, 65, 97
3, 184205, Note_off_c, 0, 66, 64
3, 184322, Note_on_c, 0, 66, 97
3, 184325, Note_off_c, 0, 65, 64
3, 184382, Note_on_c, 0, 70, 97
3, 184385, Note_off_c, 0, 66, 64
3, 184442, Note_on_c, 0, 71, 97
3, 184445, Note_off_c, 0, 70, 64
3, 184562, Note_on_c, 0, 59, 97
3, 184565, Note_off_c, 0, 71, 64
3, 184682, Note_on_c, 0, 64, 97
3, 184685, Note_off_c, 0, 59, 64
3, 184922, Note_on_c, 0, 62, 97
3, 184925, Note_off_c, 0, 64, 64
3, 184982, Note_on_c, 0, 61, 97
3, 184985, Note_off_c, 0, 62, 64
3, 185042, Note_on_c, 0, 62, 97
3, 185045, Note_off_c, 0, 61, 64
3, 185285, Note_off_c, 0, 62, 64
3, 185522, Note_on_c, 0, 77, 97
3, 185882, Note_on_c, 0, 76, 97
3, 185885, Note_off_c, 0, 77, 64
3, 186122, Note_on_c, 0, 74, 97
3, 186125, Note_off_c, 0, 76, 64
3, 186302, Note_on_c, 0, 72, 97
3, 186305, Note_off_c, 0, 74, 64
3, 186362, Note_on_c, 0, 71, 97
3, 186365, Note_off_c, 0, 72, 64
3, 186482, Note_on_c, 0, 72, 97
3, 186485, Note_off_c, 0, 71, 64
3, 186542, Note_on_c, 0, 74, 97
3, 186545, Note_off_c, 0, 72, 64
3, 186602, Note_on_c, 0, 76, 97
3, 186605, Note_off_c, 0, 74, 64
3, 186725, Note_off_c, 0, 76, 64
3, 186962, Note_on_c, 0, 64, 97
3, 187322, Note_on_c, 0, 62, 97
3, 187325, Note_off_c, 0, 64, 64
3, 187562, Note_on_c, 0, 60, 97
3, 187565, Note_off_c, 0, 62, 64
3, 187742, Note_on_c, 0, 59, 97
3, 187745, Note_off_c, 0, 60, 64
3, 187802, Note_on_c, 0, 57, 97
3, 187805, Note_off_c, 0, 59, 64
3, 187922, Note_on_c, 0, 59, 97
3, 187925, Note_off_c, 0, 57, 64
3, 187982, Note_on_c, 0, 60, 97
3, 187985, Note_off_c, 0, 59, 64
3, 188042, Note_on_c, 0, 62, 97
3, 188045, Note_off_c, 0, 60, 64
3, 188165, Note_off_c, 0, 62, 64
3, 188402, Note_on_c, 0, 74, 97
3, 188702, Note_on_c, 0, 72, 97
3, 188705, Note_off_c, 0, 74, 64
3, 188762, Note_on_c, 0, 71, 97
3, 188765, Note_off_c, 0, 72, 64
3, 188882, Note_on_c, 0, 71, 97
3, 188885, Note_off_c, 0, 71, 64
3, 189122, Note_on_c, 0, 72, 97
3, 189125, Note_off_c, 0, 71, 64
3, 189722, Note_on_c, 0, 71, 97
3, 189725, Note_off_c, 0, 72, 64
3, 189782, Note_on_c, 0, 73, 97
3, 189785, Note_off_c, 0, 71, 64
3, 189842, Note_on_c, 0, 75, 97
3, 189845, Note_off_c, 0, 73, 64
3, 189902, Note_on_c, 0, 76, 97
3, 189905, Note_off_c, 0, 75, 64
3, 189962, Note_on_c, 0, 78, 97
3, 189965, Note_off_c, 0, 76, 64
3, 190082, Note_on_c, 0, 71, 97
3, 190085, Note_off_c, 0, 78, 64
3, 190322, Note_on_c, 0, 76, 97
3, 190325, Note_off_c, 0, 71, 64
3, 190862, Note_on_c, 0, 74, 97
3, 190865, Note_off_c, 0, 76, 64
3, 190922, Note_on_c, 0, 73, 97
3, 190925, Note_off_c, 0, 74, 64
3, 191042, Note_on_c, 0, 74, 97
3, 191045, Note_off_c, 0, 73, 64
3, 191282, Note_on_c, 0, 64, 97
3, 191285, Note_off_c, 0, 74, 64
3, 191582, Note_on_c, 0, 62, 97
3, 191585, Note_off_c, 0, 64, 64
3, 191642, Note_on_c, 0, 61, 97
3, 191645, Note_off_c, 0, 62, 64
3, 191762, Note_on_c, 0, 62, 97
3, 191765, Note_off_c, 0, 61, 64
3, 192602, Note_on_c, 0, 61, 97
3, 192605, Note_off_c, 0, 62, 64
3, 192662, Note_on_c, 0, 59, 97
3, 192665, Note_off_c, 0, 61, 64
3, 192722, Note_on_c, 0, 61, 97
3, 192725, Note_off_c, 0, 59, 64
3, 192782, Note_on_c, 0, 63, 97
3, 192785, Note_off_c, 0, 61, 64
3, 192842, Note_on_c, 0, 64, 97
3, 192845, Note_off_c, 0, 63, 64
3, 192962, Note_on_c, 0, 66, 97
3, 192965, Note_off_c, 0, 64, 64
3, 193322, Note_on_c, 0, 64, 97
3, 193325, Note_off_c, 0, 66, 64
3, 193382, Note_on_c, 0, 63, 97
3, 193385, Note_off_c, 0, 64, 64
3, 193442, Note_on_c, 0, 64, 97
3, 193445, Note_off_c, 0, 63, 64
3, 193502, Note_on_c, 0, 66, 97
3, 193505, Note_off_c, 0, 64, 64
3, 193562, Note_on_c, 0, 67, 97
3, 193565, Note_off_c, 0, 66, 64
3, 193682, Note_on_c, 0, 70, 97
3, 193685, Note_off_c, 0, 67, 64
3, 194042, Note_on_c, 0, 71, 97
3, 194045, Note_off_c, 0, 70, 64
3, 194102, Note_on_c, 0, 70, 97
3, 194105, Note_off_c, 0, 71, 64
3, 194162, Note_on_c, 0, 71, 97
3, 194165, Note_off_c, 0, 70, 64
3, 194222, Note_on_c, 0, 73, 97
3, 194225, Note_off_c, 0, 71, 64
3, 194282, Note_on_c, 0, 74, 97
3, 194285, Note_off_c, 0, 73, 64
3, 194402, Note_on_c, 0, 68, 97
3, 194405, Note_off_c, 0, 74, 64
3, 194762, Note_on_c, 0, 69, 97
3, 194765, Note_off_c, 0, 68, 64
3, 194822, Note_on_c, 0, 71, 97
3, 194825, Note_off_c, 0, 69, 64
3, 194882, Note_on_c, 0, 69, 97
3, 194885, Note_off_c, 0, 71, 64
3, 194942, Note_on_c, 0, 67, 97
3, 194945, Note_off_c, 0, 69, 64
3, 195002, Note_on_c, 0, 66, 97
3, 195005, Note_off_c, 0, 67, 64
3, 195122, Note_on_c, 0, 67, 97
3, 195125, Note_off_c, 0, 66, 64
3, 195482, Note_on_c, 0, 66, 97
3, 195485, Note_off_c, 0, 67, 64
3, 195542, Note_on_c, 0, 65, 97
3, 195545, Note_off_c, 0, 66, 64
3, 195602, Note_on_c, 0, 66, 97
3, 195605, Note_off_c, 0, 65, 64
3, 195662, Note_on_c, 0, 70, 97
3, 195665, Note_off_c, 0, 66, 64
3, 195722, Note_on_c, 0, 71, 97
3, 195725, Note_off_c, 0, 70, 64
3, 195842, Note_on_c, 0, 59, 97
3, 195845, Note_off_c, 0, 71, 64
3, 196082, Note_on_c, 0, 64, 97
3, 196085, Note_off_c, 0, 59, 64
3, 196322, Note_on_c, 0, 61, 97
3, 196325, Note_off_c, 0, 64, 64
3, 196352, Note_on_c, 0, 62, 97
3, 196355, Note_off_c, 0, 61, 64
3, 196382, Note_on_c, 0, 61, 97
3, 196385, Note_off_c, 0, 62, 64
3, 196562, Note_on_c, 0, 59, 97
3, 196565, Note_off_c, 0, 61, 64
3, 197045, Note_off_c, 0, 59, 64
3, 202802, Note_on_c, 0, 64, 97
3, 203042, Note_on_c, 0, 71, 97
3, 203045, Note_off_c, 0, 64, 64
3, 203072, Note_on_c, 0, 73, 97
3, 203102, Note_on_c, 0, 74, 97
3, 203105, Note_off_c, 0, 71, 64
3, 203135, Note_off_c, 0, 73, 64
3, 203402, Note_on_c, 0, 73, 97
3, 203405, Note_off_c, 0, 74, 64
3, 203522, Note_on_c, 0, 71, 97
3, 203525, Note_off_c, 0, 73, 64
3, 203762, Note_on_c, 0, 71, 97
3, 203765, Note_off_c, 0, 71, 64
3, 203882, Note_on_c, 0, 70, 97
3, 203885, Note_off_c, 0, 71, 64
3, 204002, Note_on_c, 0, 71, 97
3, 204005, Note_off_c, 0, 70, 64
3, 204245, Note_off_c, 0, 71, 64
3, 204482, Note_on_c, 0, 64, 97
3, 204602, Note_on_c, 0, 63, 97
3, 204605, Note_off_c, 0, 64, 64
3, 204842, Note_on_c, 0, 64, 97
3, 204845, Note_off_c, 0, 63, 64
3, 204902, Note_on_c, 0, 66, 97
3, 204905, Note_off_c, 0, 64, 64
3, 204962, Note_on_c, 0, 64, 97
3, 204965, Note_off_c, 0, 66, 64
3, 205022, Note_on_c, 0, 63, 97
3, 205025, Note_off_c, 0, 64, 64
3, 205082, Note_on_c, 0, 61, 97
3, 205085, Note_off_c, 0, 63, 64
3, 205142, Note_on_c, 0, 59, 97
3, 205145, Note_off_c, 0, 61, 64
3, 205202, Note_on_c, 0, 69, 97
3, 205205, Note_off_c, 0, 59, 64
3, 205262, Note_on_c, 0, 68, 97
3, 205265, Note_off_c, 0, 69, 64
3, 205322, Note_on_c, 0, 66, 97
3, 205325, Note_off_c, 0, 68, 64
3, 205442, Note_on_c, 0, 68, 97
3, 205445, Note_off_c, 0, 66, 64
3, 205685, Note_off_c, 0, 68, 64
3, 205922, Note_on_c, 0, 69, 97
3, 205952, Note_on_c, 0, 67, 97
3, 205955, Note_off_c, 0, 69, 64
3, 205982, Note_on_c, 0, 66, 97
3, 205985, Note_off_c, 0, 67, 64
3, 206042, Note_on_c, 0, 67, 97
3, 206045, Note_off_c, 0, 66, 64
3, 206282, Note_on_c, 0, 70, 97
3, 206285, Note_off_c, 0, 67, 64
3, 206522, Note_on_c, 0, 73, 97
3, 206525, Note_off_c, 0, 70, 64
3, 206642, Note_on_c, 0, 76, 97
3, 206645, Note_off_c, 0, 73, 64
3, 206762, Note_on_c, 0, 67, 97
3, 206765, Note_off_c, 0, 76, 64
3, 206882, Note_on_c, 0, 66, 97
3, 206885, Note_off_c, 0, 67, 64
3, 207242, Note_on_c, 0, 65, 97
3, 207245, Note_off_c, 0, 66, 64
3, 207362, Note_on_c, 0, 66, 97
3, 207365, Note_off_c, 0, 65, 64
3, 207422, Note_on_c, 0, 70, 97
3, 207425, Note_off_c, 0, 66, 64
3, 207482, Note_on_c, 0, 71, 97
3, 207485, Note_off_c, 0, 70, 64
3, 207602, Note_on_c, 0, 59, 97
3, 207605, Note_off_c, 0, 71, 64
3, 207722, Note_on_c, 0, 64, 97
3, 207725, Note_off_c, 0, 59, 64
3, 207962, Note_on_c, 0, 62, 97
3, 207965, Note_off_c, 0, 64, 64
3, 208022, Note_on_c, 0, 61, 97
3, 208025, Note_off_c, 0, 62, 64
3, 208082, Note_on_c, 0, 62, 97
3, 208085, Note_off_c, 0, 61, 64
3, 208325, Note_off_c, 0, 62, 64
3, 208562, Note_on_c, 0, 77, 97
3, 208922, Note_on_c, 0, 76, 97
3, 208925, Note_off_c, 0, 77, 64
3, 209162, Note_on_c, 0, 74, 97
3, 209165, Note_off_c, 0, 76, 64
3, 209342, Note_on_c, 0, 72, 97
3, 209345, Note_off_c, 0, 74, 64
3, 209402, Note_on_c, 0, 71, 97
3, 209405, Note_off_c, 0, 72, 64
3, 209522, Note_on_c, 0, 72, 97
3, 209525, Note_off_c, 0, 71, 64
3, 209582, Note_on_c, 0, 74, 97
3, 209585, Note_off_c, 0, 72, 64
3, 209642, Note_on_c, 0, 76, 97
3, 209645, Note_off_c, 0, 74, 64
3, 209765, Note_off_c, 0, 76, 64
3, 210002, Note_on_c, 0, 64, 97
3, 210362, Note_on_c, 0, 62, 97
3, 210365, Note_off_c, 0, 64, 64
3, 210602, Note_on_c, 0, 60, 97
3, 210605, Note_off_c, 0, 62, 64
3, 210782, Note_on_c, 0, 59, 97
3, 210785, Note_off_c, 0, 60, 64
3, 210842, Note_on_c, 0, 57, 97
3, 210845, Note_off_c, 0, 59, 64
3, 210962, Note_on_c, 0, 59, 97
3, 210965, Note_off_c, 0, 57, 64
3, 211022, Note_on_c, 0, 60, 97
3, 211025, Note_off_c, 0, 59, 64
3, 211082, Note_on_c, 0, 62, 97
3, 211085, Note_off_c, 0, 60, 64
3, 211205, Note_off_c, 0, 62, 64
3, 211442, Note_on_c, 0, 74, 97
3, 211742, Note_on_c, 0, 72, 97
3, 211745, Note_off_c, 0, 74, 64
3, 211802, Note_on_c, 0, 71, 97
3, 211805, Note_off_c, 0, 72, 64
3, 211922, Note_on_c, 0, 71, 97
3, 211925, Note_off_c, 0, 71, 64
3, 212042, Note_on_c, 0, 72, 97
3, 212045, Note_off_c, 0, 71, 64
3, 212762, Note_on_c, 0, 71, 97
3, 212765, Note_off_c, 0, 72, 64
3, 212822, Note_on_c, 0, 73, 97
3, 212825, Note_off_c, 0, 71, 64
3, 212882, Note_on_c, 0, 75, 97
3, 212885, Note_off_c, 0, 73, 64
3, 212942, Note_on_c, 0, 76, 97
3, 212945, Note_off_c, 0, 75, 64
3, 213002, Note_on_c, 0, 78, 97
3, 213005, Note_off_c, 0, 76, 64
3, 213122, Note_on_c, 0, 71, 97
3, 213125, Note_off_c, 0, 78, 64
3, 213362, Note_on_c, 0, 76, 97
3, 213365, Note_off_c, 0, 71, 64
3, 213902, Note_on_c, 0, 74, 97
3, 213905, Note_off_c, 0, 76, 64
3, 213962, Note_on_c, 0, 73, 97
3, 213965, Note_off_c, 0, 74, 64
3, 214082, Note_on_c, 0, 74, 97
3, 214085, Note_off_c, 0, 73, 64
3, 214322, Note_on_c, 0, 64, 97
3, 214325, Note_off_c, 0, 74, 64
3, 214622, Note_on_c, 0, 62, 97
3, 214625, Note_off_c, 0, 64, 64
3, 214682, Note_on_c, 0, 61, 97
3, 214685, Note_off_c, 0, 62, 64
3, 214802, Note_on_c, 0, 62, 97
3, 214805, Note_off_c, 0, 61, 64
3, 215642, Note_on_c, 0, 61, 97
3, 215645, Note_off_c, 0, 62, 64
3, 215702, Note_on_c, 0, 59, 97
3, 215705, Note_off_c, 0, 61, 64
3, 215762, Note_on_c, 0, 61, 97
3, 215765, Note_off_c, 0, 59, 64
3, 215822, Note_on_c, 0, 63, 97
3, 215825, Note_off_c, 0, 61, 64
3, 215882, Note_on_c, 0, 64, 97
3, 215885, Note_off_c, 0, 63, 64
3, 216002, Note_on_c, 0, 66, 97
3, 216005, Note_off_c, 0, 64, 64
3, 216362, Note_on_c, 0, 64, 97
3, 216365, Note_off_c, 0, 66, 64
3, 216422, Note_on_c, 0, 63, 97
3, 216425, Note_off_c, 0, 64, 64
3, 216482, Note_on_c, 0, 64, 97
3, 216485, Note_off_c, 0, 63, 64
3, 216542, Note_on_c, 0, 66, 97
3, 216545, Note_off_c, 0, 64, 64
3, 216602, Note_on_c, 0, 67, 97
3, 216605, Note_off_c, 0, 66, 64
3, 216722, Note_on_c, 0, 70, 97
3, 216725, Note_off_c, 0, 67, 64
3, 217082, Note_on_c, 0, 71, 97
3, 217085, Note_off_c, 0, 70, 64
3, 217142, Note_on_c, 0, 70, 97
3, 217145, Note_off_c, 0, 71, 64
3, 217202, Note_on_c, 0, 71, 97
3, 217205, Note_off_c, 0, 70, 64
3, 217262, Note_on_c, 0, 73, 97
3, 217265, Note_off_c, 0, 71, 64
3, 217322, Note_on_c, 0, 74, 97
3, 217325, Note_off_c, 0, 73, 64
3, 217442, Note_on_c, 0, 68, 97
3, 217445, Note_off_c, 0, 74, 64
3, 217802, Note_on_c, 0, 69, 97
3, 217805, Note_off_c, 0, 68, 64
3, 217862, Note_on_c, 0, 71, 97
3, 217865, Note_off_c, 0, 69, 64
3, 217922, Note_on_c, 0, 69, 97
3, 217925, Note_off_c, 0, 71, 64
3, 217982, Note_on_c, 0, 67, 97
3, 217985, Note_off_c, 0, 69, 64
3, 218042, Note_on_c, 0, 66, 97
3, 218045, Note_off_c, 0, 67, 64
3, 218162, Note_on_c, 0, 67, 97
3, 218165, Note_off_c, 0, 66, 64
3, 218522, Note_on_c, 0, 66, 97
3, 218525, Note_off_c, 0, 67, 64
3, 218582, Note_on_c, 0, 65, 97
3, 218585, Note_off_c, 0, 66, 64
3, 218642, Note_on_c, 0, 66, 97
3, 218645, Note_off_c, 0, 65, 64
3, 218702, Note_on_c, 0, 70, 97
3, 218705, Note_off_c, 0, 66, 64
3, 218762, Note_on_c, 0, 71, 97
3, 218765, Note_off_c, 0, 70, 64
3, 218882, Note_on_c, 0, 59, 97
3, 218885, Note_off_c, 0, 71, 64
3, 219122, Note_on_c, 0, 64, 97
3, 219125, Note_off_c, 0, 59, 64
3, 219362, Note_on_c, 0, 61, 97
3, 219365, Note_off_c, 0, 64, 64
3, 219392, Note_on_c, 0, 62, 97
3, 219395, Note_off_c, 0, 61, 64
3, 219422, Note_on_c, 0, 61, 97
3, 219425, Note_off_c, 0, 62, 64
3, 219602, Note_on_c, 0, 59, 97
3, 219605, Note_off_c, 0, 61, 64
3, 219845, Note_off_c, 0, 59, 64
3, 220082, Note_on_c, 0, 66, 97
3, 220322, Note_on_c, 0, 64, 97
3, 220325, Note_off_c, 0, 66, 64
3, 220442, Note_on_c, 0, 63, 97
3, 220445, Note_off_c, 0, 64, 64
3, 220682, Note_on_c, 0, 59, 97
3, 220685, Note_off_c, 0, 63, 64
3, 220742, Note_on_c, 0, 61, 97
3, 220745, Note_off_c, 0, 59, 64
3, 220802, Note_on_c, 0, 63, 97
3, 220805, Note_off_c, 0, 61, 64
3, 220862, Note_on_c, 0, 64, 97
3, 220865, Note_off_c, 0, 63, 64
3, 220922, Note_on_c, 0, 66, 97
3, 220925, Note_off_c, 0, 64, 64
3, 221042, Note_on_c, 0, 69, 97
3, 221045, Note_off_c, 0, 66, 64
3, 221402, Note_on_c, 0, 63, 97
3, 221405, Note_off_c, 0, 69, 64
3, 221462, Note_on_c, 0, 64, 97
3, 221465, Note_off_c, 0, 63, 64
3, 221522, Note_on_c, 0, 66, 97
3, 221525, Note_off_c, 0, 64, 64
3, 221582, Note_on_c, 0, 67, 97
3, 221585, Note_off_c, 0, 66, 64
3, 221642, Note_on_c, 0, 69, 97
3, 221645, Note_off_c, 0, 67, 64
3, 221762, Note_on_c, 0, 72, 97
3, 221765, Note_off_c, 0, 69, 64
3, 221882, Note_on_c, 0, 71, 97
3, 221885, Note_off_c, 0, 72, 64
3, 222122, Note_on_c, 0, 69, 97
3, 222125, Note_off_c, 0, 71, 64
3, 222182, Note_on_c, 0, 67, 97
3, 222185, Note_off_c, 0, 69, 64
3, 222242, Note_on_c, 0, 66, 97
3, 222245, Note_off_c, 0, 67, 64
3, 222302, Note_on_c, 0, 67, 97
3, 222305, Note_off_c, 0, 66, 64
3, 222362, Note_on_c, 0, 69, 97
3, 222365, Note_off_c, 0, 67, 64
3, 222602, Note_on_c, 0, 67, 97
3, 222605, Note_off_c, 0, 69, 64
3, 222842, Note_on_c, 0, 66, 97
3, 222845, Note_off_c, 0, 67, 64
3, 222902, Note_on_c, 0, 64, 97
3, 222905, Note_off_c, 0, 66, 64
3, 222962, Note_on_c, 0, 63, 97
3, 222965, Note_off_c, 0, 64, 64
3, 223022, Note_on_c, 0, 64, 97
3, 223025, Note_off_c, 0, 63, 64
3, 223082, Note_on_c, 0, 66, 97
3, 223085, Note_off_c, 0, 64, 64
3, 223202, Note_on_c, 0, 64, 97
3, 223205, Note_off_c, 0, 66, 64
3, 223322, Note_on_c, 0, 68, 97
3, 223325, Note_off_c, 0, 64, 64
3, 223442, Note_on_c, 0, 71, 97
3, 223445, Note_off_c, 0, 68, 64
3, 223685, Note_off_c, 0, 71, 64
3, 223922, Note_on_c, 0, 68, 97
3, 224042, Note_on_c, 0, 71, 97
3, 224045, Note_off_c, 0, 68, 64
3, 224162, Note_on_c, 0, 74, 97
3, 224165, Note_off_c, 0, 71, 64
3, 224405, Note_off_c, 0, 74, 64
3, 224882, Note_on_c, 0, 71, 97
3, 225002, Note_on_c, 0, 74, 97
3, 225005, Note_off_c, 0, 71, 64
3, 225122, Note_on_c, 0, 77, 97
3, 225125, Note_off_c, 0, 74, 64
3, 225362, Note_on_c, 0, 76, 97
3, 225365, Note_off_c, 0, 77, 64
3, 225602, Note_on_c, 0, 69, 97
3, 225605, Note_off_c, 0, 76, 64
3, 225842, Note_on_c, 0, 71, 97
3, 225845, Note_off_c, 0, 69, 64
3, 226082, Note_on_c, 0, 72, 97
3, 226085, Note_off_c, 0, 71, 64
3, 226142, Note_on_c, 0, 77, 97
3, 226145, Note_off_c, 0, 72, 64
3, 226202, Note_on_c, 0, 76, 97
3, 226205, Note_off_c, 0, 77, 64
3, 226262, Note_on_c, 0, 74, 97
3, 226265, Note_off_c, 0, 76, 64
3, 226322, Note_on_c, 0, 76, 97
3, 226325, Note_off_c, 0, 74, 64
3, 226382, Note_on_c, 0, 81, 97
3, 226385, Note_off_c, 0, 76, 64
3, 226442, Note_on_c, 0, 79, 97
3, 226445, Note_off_c, 0, 81, 64
3, 226502, Note_on_c, 0, 77, 97
3, 226505, Note_off_c, 0, 79, 64
3, 226562, Note_on_c, 0, 79, 97
3, 226565, Note_off_c, 0, 77, 64
3, 226622, Note_on_c, 0, 70, 97
3, 226625, Note_off_c, 0, 79, 64
3, 226682, Note_on_c, 0, 69, 97
3, 226685, Note_off_c, 0, 70, 64
3, 226742, Note_on_c, 0, 67, 97
3, 226745, Note_off_c, 0, 69, 64
3, 226802, Note_on_c, 0, 73, 97
3, 226805, Note_off_c, 0, 67, 64
3, 227042, Note_on_c, 0, 74, 97
3, 227045, Note_off_c, 0, 73, 64
3, 227285, Note_off_c, 0, 74, 64
3, 227522, Note_on_c, 0, 75, 97
3, 227582, Note_on_c, 0, 79, 97
3, 227585, Note_off_c, 0, 75, 64
3, 227642, Note_on_c, 0, 78, 97
3, 227645, Note_off_c, 0, 79, 64
3, 227702, Note_on_c, 0, 76, 97
3, 227705, Note_off_c, 0, 78, 64
3, 227762, Note_on_c, 0, 78, 97
3, 227765, Note_off_c, 0, 76, 64
3, 227822, Note_on_c, 0, 83, 97
3, 227825, Note_off_c, 0, 78, 64
3, 227882, Note_on_c, 0, 81, 97
3, 227885, Note_off_c, 0, 83, 64
3, 227942, Note_on_c, 0, 79, 97
3, 227945, Note_off_c, 0, 81, 64
3, 228002, Note_on_c, 0, 81, 97
3, 228005, Note_off_c, 0, 79, 64
3, 228062, Note_on_c, 0, 72, 97
3, 228065, Note_off_c, 0, 81, 64
3, 228122, Note_on_c, 0, 71, 97
3, 228125, Note_off_c, 0, 72, 64
3, 228182, Note_on_c, 0, 69, 97
3, 228185, Note_off_c, 0, 71, 64
3, 228242, Note_on_c, 0, 75, 97
3, 228245, Note_off_c, 0, 69, 64
3, 228482, Note_on_c, 0, 76, 97
3, 228485, Note_off_c, 0, 75, 64
3, 228725, Note_off_c, 0, 76, 64
3, 229082, Note_on_c, 0, 64, 97
3, 229142, Note_on_c, 0, 66, 97
3, 229145, Note_off_c, 0, 64, 64
3, 229202, Note_on_c, 0, 68, 97
3, 229205, Note_off_c, 0, 66, 64
3, 229262, Note_on_c, 0, 69, 97
3, 229265, Note_off_c, 0, 68, 64
3, 229322, Note_on_c, 0, 71, 97
3, 229325, Note_off_c, 0, 69, 64
3, 229382, Note_on_c, 0, 72, 97
3, 229385, Note_off_c, 0, 71, 64
3, 229442, Note_on_c, 0, 74, 97
3, 229445, Note_off_c, 0, 72, 64
3, 229742, Note_on_c, 0, 71, 97
3, 229745, Note_off_c, 0, 74, 64
3, 229802, Note_on_c, 0, 68, 97
3, 229805, Note_off_c, 0, 71, 64
3, 229862, Note_on_c, 0, 69, 97
3, 229865, Note_off_c, 0, 68, 64
3, 229922, Note_on_c, 0, 71, 97
3, 229925, Note_off_c, 0, 69, 64
3, 229982, Note_on_c, 0, 72, 97
3, 229985, Note_off_c, 0, 71, 64
3, 230042, Note_on_c, 0, 74, 97
3, 230045, Note_off_c, 0, 72, 64
3, 230102, Note_on_c, 0, 76, 97
3, 230105, Note_off_c, 0, 74, 64
3, 230162, Note_on_c, 0, 77, 97
3, 230165, Note_off_c, 0, 76, 64
3, 230222, Note_on_c, 0, 76, 97
3, 230225, Note_off_c, 0, 77, 64
3, 230282, Note_on_c, 0, 75, 97
3, 230285, Note_off_c, 0, 76, 64
3, 230342, Note_on_c, 0, 76, 97
3, 230345, Note_off_c, 0, 75, 64
3, 230402, Note_on_c, 0, 74, 97
3, 230405, Note_off_c, 0, 76, 64
3, 230432, Note_on_c, 0, 73, 97
3, 230435, Note_off_c, 0, 74, 64
3, 230462, Note_on_c, 0, 74, 97
3, 230465, Note_off_c, 0, 73, 64
3, 230492, Note_on_c, 0, 73, 97
3, 230495, Note_off_c, 0, 74, 64
3, 230522, Note_on_c, 0, 74, 97
3, 230525, Note_off_c, 0, 73, 64
3, 230552, Note_on_c, 0, 73, 97
3, 230555, Note_off_c, 0, 74, 64
3, 230582, Note_on_c, 0, 74, 97
3, 230585, Note_off_c, 0, 73, 64
3, 230612, Note_on_c, 0, 73, 97
3, 230615, Note_off_c, 0, 74, 64
3, 230642, Note_on_c, 0, 74, 97
3, 230645, Note_off_c, 0, 73, 64
3, 230672, Note_on_c, 0, 73, 97
3, 230675, Note_off_c, 0, 74, 64
3, 230702, Note_on_c, 0, 74, 97
3, 230705, Note_off_c, 0, 73, 64
3, 230732, Note_on_c, 0, 73, 97
3, 230735, Note_off_c, 0, 74, 64
3, 230762, Note_on_c, 0, 74, 97
3, 230765, Note_off_c, 0, 73, 64
3, 230792, Note_on_c, 0, 73, 97
3, 230795, Note_off_c, 0, 74, 64
3, 230822, Note_on_c, 0, 74, 97
3, 230825, Note_off_c, 0, 73, 64
3, 230852, Note_on_c, 0, 73, 97
3, 230855, Note_off_c, 0, 74, 64
3, 230882, Note_on_c, 0, 74, 97
3, 230885, Note_off_c, 0, 73, 64
3, 230912, Note_on_c, 0, 72, 97
3, 230915, Note_off_c, 0, 74, 64
3, 230942, Note_on_c, 0, 74, 97
3, 230945, Note_off_c, 0, 72, 64
3, 230972, Note_on_c, 0, 72, 97
3, 230975, Note_off_c, 0, 74, 64
3, 231002, Note_on_c, 0, 74, 97
3, 231005, Note_off_c, 0, 72, 64
3, 231032, Note_on_c, 0, 72, 97
3, 231035, Note_off_c, 0, 74, 64
3, 231062, Note_on_c, 0, 74, 97
3, 231065, Note_off_c, 0, 72, 64
3, 231092, Note_on_c, 0, 72, 97
3, 231095, Note_off_c, 0, 74, 64
3, 231362, Note_on_c, 0, 71, 97
3, 231365, Note_off_c, 0, 72, 64
3, 231602, Note_on_c, 0, 64, 97
3, 231605, Note_off_c, 0, 71, 64
3, 231842, Note_on_c, 0, 69, 97
3, 231845, Note_off_c, 0, 64, 64
3, 231872, Note_on_c, 0, 71, 97
3, 231875, Note_off_c, 0, 69, 64
3, 231902, Note_on_c, 0, 72, 97
3, 231905, Note_off_c, 0, 71, 64
3, 232202, Note_on_c, 0, 71, 97
3, 232205, Note_off_c, 0, 72, 64
3, 232322, Note_on_c, 0, 69, 97
3, 232325, Note_off_c, 0, 71, 64
3, 232562, Note_on_c, 0, 68, 97
3, 232565, Note_off_c, 0, 69, 64
3, 232592, Note_on_c, 0, 69, 97
3, 232595, Note_off_c, 0, 68, 64
3, 232622, Note_on_c, 0, 68, 97
3, 232625, Note_off_c, 0, 69, 64
3, 232802, Note_on_c, 0, 69, 97
3, 232805, Note_off_c, 0, 68, 64
3, 233045, Note_off_c, 0, 69, 64
3, 233282, Note_on_c, 0, 62, 97
3, 233402, Note_on_c, 0, 61, 97
3, 233405, Note_off_c, 0, 62, 64
3, 233642, Note_on_c, 0, 62, 97
3, 233645, Note_off_c, 0, 61, 64
3, 233702, Note_on_c, 0, 64, 97
3, 233705, Note_off_c, 0, 62, 64
3, 233762, Note_on_c, 0, 62, 97
3, 233765, Note_off_c, 0, 64, 64
3, 233822, Note_on_c, 0, 61, 97
3, 233825, Note_off_c, 0, 62, 64
3, 233882, Note_on_c, 0, 59, 97
3, 233885, Note_off_c, 0, 61, 64
3, 233942, Note_on_c, 0, 57, 97
3, 233945, Note_off_c, 0, 59, 64
3, 234002, Note_on_c, 0, 67, 97
3, 234005, Note_off_c, 0, 57, 64
3, 234062, Note_on_c, 0, 66, 97
3, 234065, Note_off_c, 0, 67, 64
3, 234122, Note_on_c, 0, 64, 97
3, 234125, Note_off_c, 0, 66, 64
3, 234242, Note_on_c, 0, 64, 97
3, 234245, Note_off_c, 0, 64, 64
3, 234362, Note_on_c, 0, 66, 97
3, 234365, Note_off_c, 0, 64, 64
3, 234485, Note_off_c, 0, 66, 64
3, 234722, Note_on_c, 0, 67, 97
3, 234752, Note_on_c, 0, 65, 97
3, 234755, Note_off_c, 0, 67, 64
3, 234782, Note_on_c, 0, 64, 97
3, 234785, Note_off_c, 0, 65, 64
3, 234842, Note_on_c, 0, 65, 97
3, 234845, Note_off_c, 0, 64, 64
3, 235082, Note_on_c, 0, 68, 97
3, 235085, Note_off_c, 0, 65, 64
3, 235322, Note_on_c, 0, 71, 97
3, 235325, Note_off_c, 0, 68, 64
3, 235442, Note_on_c, 0, 74, 97
3, 235445, Note_off_c, 0, 71, 64
3, 235562, Note_on_c, 0, 65, 97
3, 235565, Note_off_c, 0, 74, 64
3, 235682, Note_on_c, 0, 64, 97
3, 235685, Note_off_c, 0, 65, 64
3, 236042, Note_on_c, 0, 63, 97
3, 236045, Note_off_c, 0, 64, 64
3, 236162, Note_on_c, 0, 64, 97
3, 236165, Note_off_c, 0, 63, 64
3, 236222, Note_on_c, 0, 68, 97
3, 236225, Note_off_c, 0, 64, 64
3, 236282, Note_on_c, 0, 69, 97
3, 236285, Note_off_c, 0, 68, 64
3, 236402, Note_on_c, 0, 57, 97
3, 236405, Note_off_c, 0, 69, 64
3, 236522, Note_on_c, 0, 62, 97
3, 236525, Note_off_c, 0, 57, 64
3, 236762, Note_on_c, 0, 60, 97
3, 236765, Note_off_c, 0, 62, 64
3, 236822, Note_on_c, 0, 59, 97
3, 236825, Note_off_c, 0, 60, 64
3, 236882, Note_on_c, 0, 60, 97
3, 236885, Note_off_c, 0, 59, 64
3, 237002, Note_on_c, 0, 72, 97
3, 237005, Note_off_c, 0, 60, 64
3, 237122, Note_on_c, 0, 71, 97
3, 237125, Note_off_c, 0, 72, 64
3, 237242, Note_on_c, 0, 64, 97
3, 237245, Note_off_c, 0, 71, 64
3, 237482, Note_on_c, 0, 63, 97
3, 237485, Note_off_c, 0, 64, 64
3, 237602, Note_on_c, 0, 64, 97
3, 237605, Note_off_c, 0, 63, 64
3, 237662, Note_on_c, 0, 62, 97
3, 237665, Note_off_c, 0, 64, 64
3, 237722, Note_on_c, 0, 60, 97
3, 237725, Note_off_c, 0, 62, 64
3, 237842, Note_on_c, 0, 59, 97
3, 237845, Note_off_c, 0, 60, 64
3, 238682, Note_on_c, 0, 71, 97
3, 238685, Note_off_c, 0, 59, 64
3, 238802, Note_on_c, 0, 69, 97
3, 238805, Note_off_c, 0, 71, 64
3, 238862, Note_on_c, 0, 68, 97
3, 238865, Note_off_c, 0, 69, 64
3, 238922, Note_on_c, 0, 66, 97
3, 238925, Note_off_c, 0, 68, 64
3, 238982, Note_on_c, 0, 68, 97
3, 238985, Note_off_c, 0, 66, 64
3, 239042, Note_on_c, 0, 74, 97
3, 239045, Note_off_c, 0, 68, 64
3, 239162, Note_on_c, 0, 65, 97
3, 239165, Note_off_c, 0, 74, 64
3, 239282, Note_on_c, 0, 64, 97
3, 239285, Note_off_c, 0, 65, 64
3, 239525, Note_off_c, 0, 64, 64
3, 239642, Note_on_c, 0, 72, 97
3, 239762, Note_on_c, 0, 71, 97
3, 239765, Note_off_c, 0, 72, 64
3, 239822, Note_on_c, 0, 69, 97
3, 239825, Note_off_c, 0, 71, 64
3, 239882, Note_on_c, 0, 68, 97
3, 239885, Note_off_c, 0, 69, 64
3, 240002, Note_on_c, 0, 69, 97
3, 240005, Note_off_c, 0, 68, 64
3, 240122, Note_on_c, 0, 67, 97
3, 240125, Note_off_c, 0, 69, 64
3, 240182, Note_on_c, 0, 66, 97
3, 240185, Note_off_c, 0, 67, 64
3, 240242, Note_on_c, 0, 64, 97
3, 240245, Note_off_c, 0, 66, 64
3, 240302, Note_on_c, 0, 63, 97
3, 240305, Note_off_c, 0, 64, 64
3, 240362, Note_on_c, 0, 64, 97
3, 240365, Note_off_c, 0, 63, 64
3, 240482, Note_on_c, 0, 57, 97
3, 240485, Note_off_c, 0, 64, 64
3, 240602, Note_on_c, 0, 64, 97
3, 240605, Note_off_c, 0, 57, 64
3, 240722, Note_on_c, 0, 63, 97
3, 240725, Note_off_c, 0, 64, 64
3, 240965, Note_off_c, 0, 63, 64
3, 241202, Note_on_c, 0, 66, 97
3, 241322, Note_on_c, 0, 57, 97
3, 241325, Note_off_c, 0, 66, 64
3, 241442, Note_on_c, 0, 55, 97
3, 241445, Note_off_c, 0, 57, 64
3, 241562, Note_on_c, 0, 59, 97
3, 241565, Note_off_c, 0, 55, 64
3, 241682, Note_on_c, 0, 63, 97
3, 241685, Note_off_c, 0, 59, 64
3, 241925, Note_off_c, 0, 63, 64
3, 242042, Note_on_c, 0, 71, 97
3, 242162, Note_on_c, 0, 72, 97
3, 242165, Note_off_c, 0, 71, 64
3, 242282, Note_on_c, 0, 69, 97
3, 242285, Note_off_c, 0, 72, 64
3, 242402, Note_on_c, 0, 66, 97
3, 242405, Note_off_c, 0, 69, 64
3, 242522, Note_on_c, 0, 75, 97
3, 242525, Note_off_c, 0, 66, 64
3, 242642, Note_on_c, 0, 76, 97
3, 242645, Note_off_c, 0, 75, 64
3, 242762, Note_on_c, 0, 64, 97
3, 242765, Note_off_c, 0, 76, 64
3, 243002, Note_on_c, 0, 62, 97
3, 243005, Note_off_c, 0, 64, 64
3, 243182, Note_on_c, 0, 61, 97
3, 243185, Note_off_c, 0, 62, 64
3, 243242, Note_on_c, 0, 62, 97
3, 243245, Note_off_c, 0, 61, 64
3, 243362, Note_on_c, 0, 61, 97
3, 243365, Note_off_c, 0, 62, 64
3, 243422, Note_on_c, 0, 62, 97
3, 243425, Note_off_c, 0, 61, 64
3, 243482, Note_on_c, 0, 64, 97
3, 243485, Note_off_c, 0, 62, 64
3, 243605, Note_off_c, 0, 64, 64
3, 243842, Note_on_c, 0, 76, 97
3, 244202, Note_on_c, 0, 74, 97
3, 244205, Note_off_c, 0, 76, 64
3, 244442, Note_on_c, 0, 72, 97
3, 244445, Note_off_c, 0, 74, 64
3, 244622, Note_on_c, 0, 71, 97
3, 244625, Note_off_c, 0, 72, 64
3, 244682, Note_on_c, 0, 69, 97
3, 244685, Note_off_c, 0, 71, 64
3, 244802, Note_on_c, 0, 71, 97
3, 244805, Note_off_c, 0, 69, 64
3, 244862, Note_on_c, 0, 72, 97
3, 244865, Note_off_c, 0, 71, 64
3, 244922, Note_on_c, 0, 74, 97
3, 244925, Note_off_c, 0, 72, 64
3, 245045, Note_off_c, 0, 74, 64
3, 245282, Note_on_c, 0, 62, 97
3, 245642, Note_on_c, 0, 60, 97
3, 245645, Note_off_c, 0, 62, 64
3, 245882, Note_on_c, 0, 58, 97
3, 245885, Note_off_c, 0, 60, 64
3, 246062, Note_on_c, 0, 57, 97
3, 246065, Note_off_c, 0, 58, 64
3, 246122, Note_on_c, 0, 55, 97
3, 246125, Note_off_c, 0, 57, 64
3, 246242, Note_on_c, 0, 57, 97
3, 246245, Note_off_c, 0, 55, 64
3, 246482, Note_on_c, 0, 62, 97
3, 246485, Note_off_c, 0, 57, 64
3, 246512, Note_on_c, 0, 60, 97
3, 246515, Note_off_c, 0, 62, 64
3, 246542, Note_on_c, 0, 62, 97
3, 246545, Note_off_c, 0, 60, 64
3, 247022, Note_on_c, 0, 60, 97
3, 247025, Note_off_c, 0, 62, 64
3, 247082, Note_on_c, 0, 59, 97
3, 247085, Note_off_c, 0, 60, 64
3, 247202, Note_on_c, 0, 60, 97
3, 247205, Note_off_c, 0, 59, 64
3, 247442, Note_on_c, 0, 74, 97
3, 247445, Note_off_c, 0, 60, 64
3, 247742, Note_on_c, 0, 72, 97
3, 247745, Note_off_c, 0, 74, 64
3, 247802, Note_on_c, 0, 71, 97
3, 247805, Note_off_c, 0, 72, 64
3, 247922, Note_on_c, 0, 72, 97
3, 247925, Note_off_c, 0, 71, 64
3, 247952, Note_on_c, 0, 71, 97
3, 247955, Note_off_c, 0, 72, 64
3, 247982, Note_on_c, 0, 72, 97
3, 247985, Note_off_c, 0, 71, 64
3, 248762, Note_on_c, 0, 71, 97
3, 248765, Note_off_c, 0, 72, 64
3, 248822, Note_on_c, 0, 69, 97
3, 248825, Note_off_c, 0, 71, 64
3, 248882, Note_on_c, 0, 67, 97
3, 248885, Note_off_c, 0, 69, 64
3, 248942, Note_on_c, 0, 66, 97
3, 248945, Note_off_c, 0, 67, 64
3, 249002, Note_on_c, 0, 64, 97
3, 249005, Note_off_c, 0, 66, 64
3, 249122, Note_on_c, 0, 63, 97
3, 249125, Note_off_c, 0, 64, 64
3, 249362, Note_on_c, 0, 64, 97
3, 249365, Note_off_c, 0, 63, 64
3, 249392, Note_on_c, 0, 63, 97
3, 249395, Note_off_c, 0, 64, 64
3, 249422, Note_on_c, 0, 64, 97
3, 249425, Note_off_c, 0, 63, 64
3, 249602, Note_on_c, 0, 76, 97
3, 249605, Note_off_c, 0, 64, 64
3, 249902, Note_on_c, 0, 75, 97
3, 249905, Note_off_c, 0, 76, 64
3, 249962, Note_on_c, 0, 73, 97
3, 249965, Note_off_c, 0, 75, 64
3, 250082, Note_on_c, 0, 75, 97
3, 250085, Note_off_c, 0, 73, 64
3, 250322, Note_on_c, 0, 74, 97
3, 250325, Note_off_c, 0, 75, 64
3, 250622, Note_on_c, 0, 73, 97
3, 250625, Note_off_c, 0, 74, 64
3, 250682, Note_on_c, 0, 71, 97
3, 250685, Note_off_c, 0, 73, 64
3, 250802, Note_on_c, 0, 73, 97
3, 250805, Note_off_c, 0, 71, 64
3, 251042, Note_on_c, 0, 72, 97
3, 251045, Note_off_c, 0, 73, 64
3, 251342, Note_on_c, 0, 71, 97
3, 251345, Note_off_c, 0, 72, 64
3, 251402, Note_on_c, 0, 70, 97
3, 251405, Note_off_c, 0, 71, 64
3, 251522, Note_on_c, 0, 71, 97
3, 251525, Note_off_c, 0, 70, 64
3, 251762, Note_on_c, 0, 70, 97
3, 251765, Note_off_c, 0, 71, 64
3, 252062, Note_on_c, 0, 69, 97
3, 252065, Note_off_c, 0, 70, 64
3, 252122, Note_on_c, 0, 68, 97
3, 252125, Note_off_c, 0, 69, 64
3, 252242, Note_on_c, 0, 69, 97
3, 252245, Note_off_c, 0, 68, 64
3, 252482, Note_on_c, 0, 57, 97
3, 252485, Note_off_c, 0, 69, 64
3, 252782, Note_on_c, 0, 55, 97
3, 252785, Note_off_c, 0, 57, 64
3, 252842, Note_on_c, 0, 54, 97
3, 252845, Note_off_c, 0, 55, 64
3, 252962, Note_on_c, 0, 55, 97
3, 252965, Note_off_c, 0, 54, 64
3, 253202, Note_on_c, 0, 67, 97
3, 253205, Note_off_c, 0, 55, 64
3, 253502, Note_on_c, 0, 66, 97
3, 253505, Note_off_c, 0, 67, 64
3, 253562, Note_on_c, 0, 64, 97
3, 253565, Note_off_c, 0, 66, 64
3, 253682, Note_on_c, 0, 66, 97
3, 253685, Note_off_c, 0, 64, 64
3, 253922, Note_on_c, 0, 63, 97
3, 253925, Note_off_c, 0, 66, 64
3, 253952, Note_on_c, 0, 64, 97
3, 253955, Note_off_c, 0, 63, 64
3, 253982, Note_on_c, 0, 63, 97
3, 253985, Note_off_c, 0, 64, 64
3, 254162, Note_on_c, 0, 64, 97
3, 254165, Note_off_c, 0, 63, 64
3, 254405, Note_off_c, 0, 64, 64
3, 254642, Note_on_c, 0, 66, 97
3, 254882, Note_on_c, 0, 64, 97
3, 254885, Note_off_c, 0, 66, 64
3, 255002, Note_on_c, 0, 63, 97
3, 255005, Note_off_c, 0, 64, 64
3, 255242, Note_on_c, 0, 59, 97
3, 255245, Note_off_c, 0, 63, 64
3, 255302, Note_on_c, 0, 61, 97
3, 255305, Note_off_c, 0, 59, 64
3, 255362, Note_on_c, 0, 63, 97
3, 255365, Note_off_c, 0, 61, 64
3, 255422, Note_on_c, 0, 64, 97
3, 255425, Note_off_c, 0, 63, 64
3, 255482, Note_on_c, 0, 66, 97
3, 255485, Note_off_c, 0, 64, 64
3, 255602, Note_on_c, 0, 69, 97
3, 255605, Note_off_c, 0, 66, 64
3, 255962, Note_on_c, 0, 63, 97
3, 255965, Note_off_c, 0, 69, 64
3, 256022, Note_on_c, 0, 64, 97
3, 256025, Note_off_c, 0, 63, 64
3, 256082, Note_on_c, 0, 66, 97
3, 256085, Note_off_c, 0, 64, 64
3, 256142, Note_on_c, 0, 67, 97
3, 256145, Note_off_c, 0, 66, 64
3, 256202, Note_on_c, 0, 69, 97
3, 256205, Note_off_c, 0, 67, 64
3, 256322, Note_on_c, 0, 72, 97
3, 256325, Note_off_c, 0, 69, 64
3, 256442, Note_on_c, 0, 71, 97
3, 256445, Note_off_c, 0, 72, 64
3, 256682, Note_on_c, 0, 69, 97
3, 256685, Note_off_c, 0, 71, 64
3, 256742, Note_on_c, 0, 67, 97
3, 256745, Note_off_c, 0, 69, 64
3, 256802, Note_on_c, 0, 66, 97
3, 256805, Note_off_c, 0, 67, 64
3, 256862, Note_on_c, 0, 67, 97
3, 256865, Note_off_c, 0, 66, 64
3, 256922, Note_on_c, 0, 69, 97
3, 256925, Note_off_c, 0, 67, 64
3, 257162, Note_on_c, 0, 67, 97
3, 257165, Note_off_c, 0, 69, 64
3, 257402, Note_on_c, 0, 66, 97
3, 257405, Note_off_c, 0, 67, 64
3, 257462, Note_on_c, 0, 64, 97
3, 257465, Note_off_c, 0, 66, 64
3, 257522, Note_on_c, 0, 63, 97
3, 257525, Note_off_c, 0, 64, 64
3, 257582, Note_on_c, 0, 64, 97
3, 257585, Note_off_c, 0, 63, 64
3, 257642, Note_on_c, 0, 66, 97
3, 257645, Note_off_c, 0, 64, 64
3, 257762, Note_on_c, 0, 64, 97
3, 257765, Note_off_c, 0, 66, 64
3, 257882, Note_on_c, 0, 68, 97
3, 257885, Note_off_c, 0, 64, 64
3, 258002, Note_on_c, 0, 71, 97
3, 258005, Note_off_c, 0, 68, 64
3, 258245, Note_off_c, 0, 71, 64
3, 258482, Note_on_c, 0, 68, 97
3, 258602, Note_on_c, 0, 71, 97
3, 258605, Note_off_c, 0, 68, 64
3, 258722, Note_on_c, 0, 74, 97
3, 258725, Note_off_c, 0, 71, 64
3, 258965, Note_off_c, 0, 74, 64
3, 259442, Note_on_c, 0, 71, 97
3, 259562, Note_on_c, 0, 74, 97
3, 259565, Note_off_c, 0, 71, 64
3, 259682, Note_on_c, 0, 77, 97
3, 259685, Note_off_c, 0, 74, 64
3, 259922, Note_on_c, 0, 76, 97
3, 259925, Note_off_c, 0, 77, 64
3, 260162, Note_on_c, 0, 69, 97
3, 260165, Note_off_c, 0, 76, 64
3, 260402, Note_on_c, 0, 71, 97
3, 260405, Note_off_c, 0, 69, 64
3, 260642, Note_on_c, 0, 72, 97
3, 260645, Note_off_c, 0, 71, 64
3, 260702, Note_on_c, 0, 77, 97
3, 260705, Note_off_c, 0, 72, 64
3, 260762, Note_on_c, 0, 76, 97
3, 260765, Note_off_c, 0, 77, 64
3, 260822, Note_on_c, 0, 74, 97
3, 260825, Note_off_c, 0, 76, 64
3, 260882, Note_on_c, 0, 76, 97
3, 260885, Note_off_c, 0, 74, 64
3, 260942, Note_on_c, 0, 81, 97
3, 260945, Note_off_c, 0, 76, 64
3, 261002, Note_on_c, 0, 79, 97
3, 261005, Note_off_c, 0, 81, 64
3, 261062, Note_on_c, 0, 77, 97
3, 261065, Note_off_c, 0, 79, 64
3, 261122, Note_on_c, 0, 79, 97
3, 261125, Note_off_c, 0, 77, 64
3, 261182, Note_on_c, 0, 70, 97
3, 261185, Note_off_c, 0, 79, 64
3, 261242, Note_on_c, 0, 69, 97
3, 261245, Note_off_c, 0, 70, 64
3, 261302, Note_on_c, 0, 67, 97
3, 261305, Note_off_c, 0, 69, 64
3, 261362, Note_on_c, 0, 73, 97
3, 261365, Note_off_c, 0, 67, 64
3, 261602, Note_on_c, 0, 74, 97
3, 261605, Note_off_c, 0, 73, 64
3, 261845, Note_off_c, 0, 74, 64
3, 262082, Note_on_c, 0, 75, 97
3, 262142, Note_on_c, 0, 79, 97
3, 262145, Note_off_c, 0, 75, 64
3, 262202, Note_on_c, 0, 78, 97
3, 262205, Note_off_c, 0, 79, 64
3, 262262, Note_on_c, 0, 76, 97
3, 262265, Note_off_c, 0, 78, 64
3, 262322, Note_on_c, 0, 78, 97
3, 262325, Note_off_c, 0, 76, 64
3, 262382, Note_on_c, 0, 83, 97
3, 262385, Note_off_c, 0, 78, 64
3, 262442, Note_on_c, 0, 81, 97
3, 262445, Note_off_c, 0, 83, 64
3, 262502, Note_on_c, 0, 79, 97
3, 262505, Note_off_c, 0, 81, 64
3, 262562, Note_on_c, 0, 81, 97
3, 262565, Note_off_c, 0, 79, 64
3, 262622, Note_on_c, 0, 72, 97
3, 262625, Note_off_c, 0, 81, 64
3, 262682, Note_on_c, 0, 71, 97
3, 262685, Note_off_c, 0, 72, 64
3, 262742, Note_on_c, 0, 69, 97
3, 262745, Note_off_c, 0, 71, 64
3, 262802, Note_on_c, 0, 75, 97
3, 262805, Note_off_c, 0, 69, 64
3, 263042, Note_on_c, 0, 76, 97
3, 263045, Note_off_c, 0, 75, 64
3, 263285, Note_off_c, 0, 76, 64
3, 263642, Note_on_c, 0, 64, 97
3, 263702, Note_on_c, 0, 66, 97
3, 263705, Note_off_c, 0, 64, 64
3, 263762, Note_on_c, 0, 68, 97
3, 263765, Note_off_c, 0, 66, 64
3, 263822, Note_on_c, 0, 69, 97
3, 263825, Note_off_c, 0, 68, 64
3, 263882, Note_on_c, 0, 71, 97
3, 263885, Note_off_c, 0, 69, 64
3, 263942, Note_on_c, 0, 72, 97
3, 263945, Note_off_c, 0, 71, 64
3, 264002, Note_on_c, 0, 74, 97
3, 264005, Note_off_c, 0, 72, 64
3, 264302, Note_on_c, 0, 71, 97
3, 264305, Note_off_c, 0, 74, 64
3, 264362, Note_on_c, 0, 68, 97
3, 264365, Note_off_c, 0, 71, 64
3, 264422, Note_on_c, 0, 69, 97
3, 264425, Note_off_c, 0, 68, 64
3, 264482, Note_on_c, 0, 71, 97
3, 264485, Note_off_c, 0, 69, 64
3, 264542, Note_on_c, 0, 72, 97
3, 264545, Note_off_c, 0, 71, 64
3, 264602, Note_on_c, 0, 74, 97
3, 264605, Note_off_c, 0, 72, 64
3, 264662, Note_on_c, 0, 76, 97
3, 264665, Note_off_c, 0, 74, 64
3, 264722, Note_on_c, 0, 77, 97
3, 264725, Note_off_c, 0, 76, 64
3, 264782, Note_on_c, 0, 76, 97
3, 264785, Note_off_c, 0, 77, 64
3, 264842, Note_on_c, 0, 75, 97
3, 264845, Note_off_c, 0, 76, 64
3, 264902, Note_on_c, 0, 76, 97
3, 264905, Note_off_c, 0, 75, 64
3, 264962, Note_on_c, 0, 74, 97
3, 264965, Note_off_c, 0, 76, 64
3, 264992, Note_on_c, 0, 73, 97
3, 264995, Note_off_c, 0, 74, 64
3, 265022, Note_on_c, 0, 74, 97
3, 265025, Note_off_c, 0, 73, 64
3, 265052, Note_on_c, 0, 73, 97
3, 265055, Note_off_c, 0, 74, 64
3, 265082, Note_on_c, 0, 74, 97
3, 265085, Note_off_c, 0, 73, 64
3, 265112, Note_on_c, 0, 73, 97
3, 265115, Note_off_c, 0, 74, 64
3, 265142, Note_on_c, 0, 74, 97
3, 265145, Note_off_c, 0, 73, 64
3, 265172, Note_on_c, 0, 73, 97
3, 265175, Note_off_c, 0, 74, 64
3, 265202, Note_on_c, 0, 74, 97
3, 265205, Note_off_c, 0, 73, 64
3, 265232, Note_on_c, 0, 73, 97
3, 265235, Note_off_c, 0, 74, 64
3, 265262, Note_on_c, 0, 74, 97
3, 265265, Note_off_c, 0, 73, 64
3, 265292, Note_on_c, 0, 73, 97
3, 265295, Note_off_c, 0, 74, 64
3, 265322, Note_on_c, 0, 74, 97
3, 265325, Note_off_c, 0, 73, 64
3, 265352, Note_on_c, 0, 73, 97
3, 265355, Note_off_c, 0, 74, 64
3, 265382, Note_on_c, 0, 74, 97
3, 265385, Note_off_c, 0, 73, 64
3, 265412, Note_on_c, 0, 73, 97
3, 265415, Note_off_c, 0, 74, 64
3, 265442, Note_on_c, 0, 74, 97
3, 265445, Note_off_c, 0, 73, 64
3, 265472, Note_on_c, 0, 72, 97
3, 265475, Note_off_c, 0, 74, 64
3, 265502, Note_on_c, 0, 74, 97
3, 265505, Note_off_c, 0, 72, 64
3, 265532, Note_on_c, 0, 72, 97
3, 265535, Note_off_c, 0, 74, 64
3, 265562, Note_on_c, 0, 74, 97
3, 265565, Note_off_c, 0, 72, 64
3, 265592, Note_on_c, 0, 72, 97
3, 265595, Note_off_c, 0, 74, 64
3, 265622, Note_on_c, 0, 74, 97
3, 265625, Note_off_c, 0, 72, 64
3, 265652, Note_on_c, 0, 72, 97
3, 265655, Note_off_c, 0, 74, 64
3, 265922, Note_on_c, 0, 71, 97
3, 265925, Note_off_c, 0, 72, 64
3, 266162, Note_on_c, 0, 64, 97
3, 266165, Note_off_c, 0, 71, 64
3, 266402, Note_on_c, 0, 69, 97
3, 266405, Note_off_c, 0, 64, 64
3, 266432, Note_on_c, 0, 71, 97
3, 266435, Note_off_c, 0, 69, 64
3, 266462, Note_on_c, 0, 72, 97
3, 266465, Note_off_c, 0, 71, 64
3, 266755, Note_off_c, 0, 72, 64
3, 266762, Note_on_c, 0, 71, 97
3, 266882, Note_on_c, 0, 69, 97
3, 266885, Note_off_c, 0, 71, 64
3, 267122, Note_on_c, 0, 68, 97
3, 267125, Note_off_c, 0, 69, 64
3, 267152, Note_on_c, 0, 69, 97
3, 267155, Note_off_c, 0, 68, 64
3, 267182, Note_on_c, 0, 68, 97
3, 267185, Note_off_c, 0, 69, 64
3, 267362, Note_on_c, 0, 69, 97
3, 267365, Note_off_c, 0, 68, 64
3, 267605, Note_off_c, 0, 69, 64
3, 267842, Note_on_c, 0, 62, 97
3, 267962, Note_on_c, 0, 61, 97
3, 267965, Note_off_c, 0, 62, 64
3, 268202, Note_on_c, 0, 62, 97
3, 268205, Note_off_c, 0, 61, 64
3, 268262, Note_on_c, 0, 64, 97
3, 268265, Note_off_c, 0, 62, 64
3, 268322, Note_on_c, 0, 62, 97
3, 268325, Note_off_c, 0, 64, 64
3, 268382, Note_on_c, 0, 61, 97
3, 268385, Note_off_c, 0, 62, 64
3, 268442, Note_on_c, 0, 59, 97
3, 268445, Note_off_c, 0, 61, 64
3, 268502, Note_on_c, 0, 57, 97
3, 268505, Note_off_c, 0, 59, 64
3, 268562, Note_on_c, 0, 67, 97
3, 268565, Note_off_c, 0, 57, 64
3, 268622, Note_on_c, 0, 66, 97
3, 268625, Note_off_c, 0, 67, 64
3, 268682, Note_on_c, 0, 64, 97
3, 268685, Note_off_c, 0, 66, 64
3, 268802, Note_on_c, 0, 64, 97
3, 268805, Note_off_c, 0, 64, 64
3, 268922, Note_on_c, 0, 66, 97
3, 268925, Note_off_c, 0, 64, 64
3, 269045, Note_off_c, 0, 66, 64
3, 269282, Note_on_c, 0, 66, 97
3, 269312, Note_on_c, 0, 65, 97
3, 269315, Note_off_c, 0, 66, 64
3, 269342, Note_on_c, 0, 64, 97
3, 269345, Note_off_c, 0, 65, 64
3, 269402, Note_on_c, 0, 65, 97
3, 269405, Note_off_c, 0, 64, 64
3, 269642, Note_on_c, 0, 68, 97
3, 269645, Note_off_c, 0, 65, 64
3, 269882, Note_on_c, 0, 71, 97
3, 269885, Note_off_c, 0, 68, 64
3, 270002, Note_on_c, 0, 74, 97
3, 270005, Note_off_c, 0, 71, 64
3, 270122, Note_on_c, 0, 65, 97
3, 270125, Note_off_c, 0, 74, 64
3, 270242, Note_on_c, 0, 64, 97
3, 270245, Note_off_c, 0, 65, 64
3, 270602, Note_on_c, 0, 63, 97
3, 270605, Note_off_c, 0, 64, 64
3, 270722, Note_on_c, 0, 64, 97
3, 270725, Note_off_c, 0, 63, 64
3, 270782, Note_on_c, 0, 68, 97
3, 270785, Note_off_c, 0, 64, 64
3, 270842, Note_on_c, 0, 69, 97
3, 270845, Note_off_c, 0, 68, 64
3, 270962, Note_on_c, 0, 57, 97
3, 270965, Note_off_c, 0, 69, 64
3, 271082, Note_on_c, 0, 62, 97
3, 271085, Note_off_c, 0, 57, 64
3, 271322, Note_on_c, 0, 60, 97
3, 271325, Note_off_c, 0, 62, 64
3, 271382, Note_on_c, 0, 59, 97
3, 271385, Note_off_c, 0, 60, 64
3, 271442, Note_on_c, 0, 60, 97
3, 271445, Note_off_c, 0, 59, 64
3, 271562, Note_on_c, 0, 72, 97
3, 271565, Note_off_c, 0, 60, 64
3, 271682, Note_on_c, 0, 71, 97
3, 271685, Note_off_c, 0, 72, 64
3, 271802, Note_on_c, 0, 64, 97
3, 271805, Note_off_c, 0, 71, 64
3, 272042, Note_on_c, 0, 63, 97
3, 272045, Note_off_c, 0, 64, 64
3, 272162, Note_on_c, 0, 64, 97
3, 272165, Note_off_c, 0, 63, 64
3, 272222, Note_on_c, 0, 62, 97
3, 272225, Note_off_c, 0, 64, 64
3, 272282, Note_on_c, 0, 60, 97
3, 272285, Note_off_c, 0, 62, 64
3, 272402, Note_on_c, 0, 59, 97
3, 272405, Note_off_c, 0, 60, 64
3, 273242, Note_on_c, 0, 71, 97
3, 273245, Note_off_c, 0, 59, 64
3, 273362, Note_on_c, 0, 69, 97
3, 273365, Note_off_c, 0, 71, 64
3, 273422, Note_on_c, 0, 68, 97
3, 273425, Note_off_c, 0, 69, 64
3, 273482, Note_on_c, 0, 66, 97
3, 273485, Note_off_c, 0, 68, 64
3, 273542, Note_on_c, 0, 68, 97
3, 273545, Note_off_c, 0, 66, 64
3, 273602, Note_on_c, 0, 74, 97
3, 273605, Note_off_c, 0, 68, 64
3, 273722, Note_on_c, 0, 65, 97
3, 273725, Note_off_c, 0, 74, 64
3, 273842, Note_on_c, 0, 64, 97
3, 273845, Note_off_c, 0, 65, 64
3, 274085, Note_off_c, 0, 64, 64
3, 274202, Note_on_c, 0, 72, 97
3, 274322, Note_on_c, 0, 71, 97
3, 274325, Note_off_c, 0, 72, 64
3, 274382, Note_on_c, 0, 69, 97
3, 274385, Note_off_c, 0, 71, 64
3, 274442, Note_on_c, 0, 68, 97
3, 274445, Note_off_c, 0, 69, 64
3, 274562, Note_on_c, 0, 69, 97
3, 274565, Note_off_c, 0, 68, 64
3, 274682, Note_on_c, 0, 67, 97
3, 274685, Note_off_c, 0, 69, 64
3, 274742, Note_on_c, 0, 66, 97
3, 274745, Note_off_c, 0, 67, 64
3, 274802, Note_on_c, 0, 64, 97
3, 274805, Note_off_c, 0, 66, 64
3, 274862, Note_on_c, 0, 63, 97
3, 274865, Note_off_c, 0, 64, 64
3, 274922, Note_on_c, 0, 64, 97
3, 274925, Note_off_c, 0, 63, 64
3, 275042, Note_on_c, 0, 57, 97
3, 275045, Note_off_c, 0, 64, 64
3, 275162, Note_on_c, 0, 64, 97
3, 275165, Note_off_c, 0, 57, 64
3, 275282, Note_on_c, 0, 63, 97
3, 275285, Note_off_c, 0, 64, 64
3, 275525, Note_off_c, 0, 63, 64
3, 275762, Note_on_c, 0, 66, 97
3, 275882, Note_on_c, 0, 57, 97
3, 275885, Note_off_c, 0, 66, 64
3, 276002, Note_on_c, 0, 55, 97
3, 276005, Note_off_c, 0, 57, 64
3, 276122, Note_on_c, 0, 59, 97
3, 276125, Note_off_c, 0, 55, 64
3, 276242, Note_on_c, 0, 63, 97
3, 276245, Note_off_c, 0, 59, 64
3, 276485, Note_off_c, 0, 63, 64
3, 276602, Note_on_c, 0, 71, 97
3, 276722, Note_on_c, 0, 72, 97
3, 276725, Note_off_c, 0, 71, 64
3, 276842, Note_on_c, 0, 69, 97
3, 276845, Note_off_c, 0, 72, 64
3, 276962, Note_on_c, 0, 66, 97
3, 276965, Note_off_c, 0, 69, 64
3, 277082, Note_on_c, 0, 75, 97
3, 277085, Note_off_c, 0, 66, 64
3, 277202, Note_on_c, 0, 76, 97
3, 277205, Note_off_c, 0, 75, 64
3, 277322, Note_on_c, 0, 64, 97
3, 277325, Note_off_c, 0, 76, 64
3, 277562, Note_on_c, 0, 62, 97
3, 277565, Note_off_c, 0, 64, 64
3, 277742, Note_on_c, 0, 61, 97
3, 277745, Note_off_c, 0, 62, 64
3, 277802, Note_on_c, 0, 62, 97
3, 277805, Note_off_c, 0, 61, 64
3, 277922, Note_on_c, 0, 61, 97
3, 277925, Note_off_c, 0, 62, 64
3, 277982, Note_on_c, 0, 62, 97
3, 277985, Note_off_c, 0, 61, 64
3, 278042, Note_on_c, 0, 64, 97
3, 278045, Note_off_c, 0, 62, 64
3, 278165, Note_off_c, 0, 64, 64
3, 278402, Note_on_c, 0, 76, 97
3, 278762, Note_on_c, 0, 74, 97
3, 278765, Note_off_c, 0, 76, 64
3, 279002, Note_on_c, 0, 72, 97
3, 279005, Note_off_c, 0, 74, 64
3, 279182, Note_on_c, 0, 71, 97
3, 279185, Note_off_c, 0, 72, 64
3, 279242, Note_on_c, 0, 69, 97
3, 279245, Note_off_c, 0, 71, 64
3, 279362, Note_on_c, 0, 71, 97
3, 279365, Note_off_c, 0, 69, 64
3, 279422, Note_on_c, 0, 72, 97
3, 279425, Note_off_c, 0, 71, 64
3, 279482, Note_on_c, 0, 74, 97
3, 279485, Note_off_c, 0, 72, 64
3, 279605, Note_off_c, 0, 74, 64
3, 279842, Note_on_c, 0, 62, 97
3, 280202, Note_on_c, 0, 60, 97
3, 280205, Note_off_c, 0, 62, 64
3, 280442, Note_on_c, 0, 58, 97
3, 280445, Note_off_c, 0, 60, 64
3, 280622, Note_on_c, 0, 57, 97
3, 280625, Note_off_c, 0, 58, 64
3, 280682, Note_on_c, 0, 55, 97
3, 280685, Note_off_c, 0, 57, 64
3, 280802, Note_on_c, 0, 57, 97
3, 280805, Note_off_c, 0, 55, 64
3, 281042, Note_on_c, 0, 62, 97
3, 281045, Note_off_c, 0, 57, 64
3, 281072, Note_on_c, 0, 60, 97
3, 281075, Note_off_c, 0, 62, 64
3, 281102, Note_on_c, 0, 62, 97
3, 281105, Note_off_c, 0, 60, 64
3, 281582, Note_on_c, 0, 60, 97
3, 281585, Note_off_c, 0, 62, 64
3, 281642, Note_on_c, 0, 59, 97
3, 281645, Note_off_c, 0, 60, 64
3, 281762, Note_on_c, 0, 60, 97
3, 281765, Note_off_c, 0, 59, 64
3, 282002, Note_on_c, 0, 74, 97
3, 282005, Note_off_c, 0, 60, 64
3, 282302, Note_on_c, 0, 72, 97
3, 282305, Note_off_c, 0, 74, 64
3, 282362, Note_on_c, 0, 71, 97
3, 282365, Note_off_c, 0, 72, 64
3, 282482, Note_on_c, 0, 72, 97
3, 282485, Note_off_c, 0, 71, 64
3, 282512, Note_on_c, 0, 71, 97
3, 282515, Note_off_c, 0, 72, 64
3, 282542, Note_on_c, 0, 72, 97
3, 282545, Note_off_c, 0, 71, 64
3, 283322, Note_on_c, 0, 71, 97
3, 283325, Note_off_c, 0, 72, 64
3, 283382, Note_on_c, 0, 69, 97
3, 283385, Note_off_c, 0, 71, 64
3, 283442, Note_on_c, 0, 67, 97
3, 283445, Note_off_c, 0, 69, 64
3, 283502, Note_on_c, 0, 66, 97
3, 283505, Note_off_c, 0, 67, 64
3, 283562, Note_on_c, 0, 64, 97
3, 283565, Note_off_c, 0, 66, 64
3, 283682, Note_on_c, 0, 63, 97
3, 283685, Note_off_c, 0, 64, 64
3, 283922, Note_on_c, 0, 64, 97
3, 283925, Note_off_c, 0, 63, 64
3, 283952, Note_on_c, 0, 63, 97
3, 283955, Note_off_c, 0, 64, 64
3, 283982, Note_on_c, 0, 64, 97
3, 283985, Note_off_c, 0, 63, 64
3, 284162, Note_on_c, 0, 76, 97
3, 284165, Note_off_c, 0, 64, 64
3, 284462, Note_on_c, 0, 75, 97
3, 284465, Note_off_c, 0, 76, 64
3, 284522, Note_on_c, 0, 73, 97
3, 284525, Note_off_c, 0, 75, 64
3, 284642, Note_on_c, 0, 75, 97
3, 284645, Note_off_c, 0, 73, 64
3, 284882, Note_on_c, 0, 74, 97
3, 284885, Note_off_c, 0, 75, 64
3, 285182, Note_on_c, 0, 73, 97
3, 285185, Note_off_c, 0, 74, 64
3, 285242, Note_on_c, 0, 71, 97
3, 285245, Note_off_c, 0, 73, 64
3, 285362, Note_on_c, 0, 73, 97
3, 285365, Note_off_c, 0, 71, 64
3, 285602, Note_on_c, 0, 72, 97
3, 285605, Note_off_c, 0, 73, 64
3, 285902, Note_on_c, 0, 71, 97
3, 285905, Note_off_c, 0, 72, 64
3, 285962, Note_on_c, 0, 70, 97
3, 285965, Note_off_c, 0, 71, 64
3, 286082, Note_on_c, 0, 71, 97
3, 286085, Note_off_c, 0, 70, 64
3, 286322, Note_on_c, 0, 70, 97
3, 286325, Note_off_c, 0, 71, 64
3, 286622, Note_on_c, 0, 69, 97
3, 286625, Note_off_c, 0, 70, 64
3, 286682, Note_on_c, 0, 68, 97
3, 286685, Note_off_c, 0, 69, 64
3, 286802, Note_on_c, 0, 69, 97
3, 286805, Note_off_c, 0, 68, 64
3, 287042, Note_on_c, 0, 57, 97
3, 287045, Note_off_c, 0, 69, 64
3, 287342, Note_on_c, 0, 55, 97
3, 287345, Note_off_c, 0, 57, 64
3, 287402, Note_on_c, 0, 54, 97
3, 287405, Note_off_c, 0, 55, 64
3, 287522, Note_on_c, 0, 55, 97
3, 287525, Note_off_c, 0, 54, 64
3, 287762, Note_on_c, 0, 67, 97
3, 287765, Note_off_c, 0, 55, 64
3, 288062, Note_on_c, 0, 66, 97
3, 288065, Note_off_c, 0, 67, 64
3, 288122, Note_on_c, 0, 64, 97
3, 288125, Note_off_c, 0, 66, 64
3, 288242, Note_on_c, 0, 66, 97
3, 288245, Note_off_c, 0, 64, 64
3, 288482, Note_on_c, 0, 63, 97
3, 288485, Note_off_c, 0, 66, 64
3, 288512, Note_on_c, 0, 64, 97
3, 288515, Note_off_c, 0, 63, 64
3, 288542, Note_on_c, 0, 63, 97
3, 288545, Note_off_c, 0, 64, 64
3, 288722, Note_on_c, 0, 64, 97
3, 288725, Note_off_c, 0, 63, 64
3, 289445, Note_off_c, 0, 64, 64
3, 290882, Note_on_c, 0, 67, 97
3, 291482, Note_on_c, 0, 66, 97
3, 291485, Note_off_c, 0, 67, 64
3, 291602, Note_on_c, 0, 64, 97
3, 291605, Note_off_c, 0, 66, 64
3, 291722, Note_on_c, 0, 69, 97
3, 291725, Note_off_c, 0, 64, 64
3, 291842, Note_on_c, 0, 62, 97
3, 291845, Note_off_c, 0, 69, 64
3, 292082, Note_on_c, 0, 69, 97
3, 292085, Note_off_c, 0, 62, 64
3, 292142, Note_on_c, 0, 71, 97
3, 292145, Note_off_c, 0, 69, 64
3, 292202, Note_on_c, 0, 72, 97
3, 292205, Note_off_c, 0, 71, 64
3, 292322, Note_on_c, 0, 71, 97
3, 292325, Note_off_c, 0, 72, 64
3, 292562, Note_on_c, 0, 69, 97
3, 292565, Note_off_c, 0, 71, 64
3, 292802, Note_on_c, 0, 71, 97
3, 292805, Note_off_c, 0, 69, 64
3, 292922, Note_on_c, 0, 67, 97
3, 292925, Note_off_c, 0, 71, 64
3, 293042, Note_on_c, 0, 71, 97
3, 293045, Note_off_c, 0, 67, 64
3, 293162, Note_on_c, 0, 74, 97
3, 293165, Note_off_c, 0, 71, 64
3, 293282, Note_on_c, 0, 72, 97
3, 293285, Note_off_c, 0, 74, 64
3, 293522, Note_on_c, 0, 71, 97
3, 293525, Note_off_c, 0, 72, 64
3, 293762, Note_on_c, 0, 69, 97
3, 293765, Note_off_c, 0, 71, 64
3, 294002, Note_on_c, 0, 62, 97
3, 294005, Note_off_c, 0, 69, 64
3, 294242, Note_on_c, 0, 74, 97
3, 294245, Note_off_c, 0, 62, 64
3, 294962, Note_on_c, 0, 73, 97
3, 294965, Note_off_c, 0, 74, 64
3, 295082, Note_on_c, 0, 71, 97
3, 295085, Note_off_c, 0, 73, 64
3, 295202, Note_on_c, 0, 73, 97
3, 295205, Note_off_c, 0, 71, 64
3, 295232, Note_on_c, 0, 74, 97
3, 295235, Note_off_c, 0, 73, 64
3, 295262, Note_on_c, 0, 73, 97
3, 295265, Note_off_c, 0, 74, 64
3, 295562, Note_on_c, 0, 71, 97
3, 295565, Note_off_c, 0, 73, 64
3, 295622, Note_on_c, 0, 73, 97
3, 295625, Note_off_c, 0, 71, 64
3, 295682, Note_on_c, 0, 74, 97
3, 295685, Note_off_c, 0, 73, 64
3, 296165, Note_off_c, 0, 74, 64
3, 296402, Note_on_c, 0, 74, 97
3, 296642, Note_on_c, 0, 73, 97
3, 296645, Note_off_c, 0, 74, 64
3, 296762, Note_on_c, 0, 69, 97
3, 296765, Note_off_c, 0, 73, 64
3, 296882, Note_on_c, 0, 73, 97
3, 296885, Note_off_c, 0, 69, 64
3, 297002, Note_on_c, 0, 76, 97
3, 297005, Note_off_c, 0, 73, 64
3, 297122, Note_on_c, 0, 79, 97
3, 297125, Note_off_c, 0, 76, 64
3, 297242, Note_on_c, 0, 78, 97
3, 297245, Note_off_c, 0, 79, 64
3, 297362, Note_on_c, 0, 79, 97
3, 297365, Note_off_c, 0, 78, 64
3, 297605, Note_off_c, 0, 79, 64
3, 297722, Note_on_c, 0, 69, 97
3, 297842, Note_on_c, 0, 73, 97
3, 297845, Note_off_c, 0, 69, 64
3, 297962, Note_on_c, 0, 76, 97
3, 297965, Note_off_c, 0, 73, 64
3, 298082, Note_on_c, 0, 79, 97
3, 298085, Note_off_c, 0, 76, 64
3, 298202, Note_on_c, 0, 78, 97
3, 298205, Note_off_c, 0, 79, 64
3, 298322, Note_on_c, 0, 79, 97
3, 298325, Note_off_c, 0, 78, 64
3, 298565, Note_off_c, 0, 79, 64
3, 298682, Note_on_c, 0, 69, 97
3, 298802, Note_on_c, 0, 73, 97
3, 298805, Note_off_c, 0, 69, 64
3, 298922, Note_on_c, 0, 76, 97
3, 298925, Note_off_c, 0, 73, 64
3, 299042, Note_on_c, 0, 79, 97
3, 299045, Note_off_c, 0, 76, 64
3, 299162, Note_on_c, 0, 78, 97
3, 299165, Note_off_c, 0, 79, 64
3, 299282, Note_on_c, 0, 76, 97
3, 299285, Note_off_c, 0, 78, 64
3, 299402, Note_on_c, 0, 74, 97
3, 299405, Note_off_c, 0, 76, 64
3, 299522, Note_on_c, 0, 73, 97
3, 299525, Note_off_c, 0, 74, 64
3, 299642, Note_on_c, 0, 69, 97
3, 299645, Note_off_c, 0, 73, 64
3, 299762, Note_on_c, 0, 73, 97
3, 299765, Note_off_c, 0, 69, 64
3, 299882, Note_on_c, 0, 76, 97
3, 299885, Note_off_c, 0, 73, 64
3, 300002, Note_on_c, 0, 81, 97
3, 300005, Note_off_c, 0, 76, 64
3, 300122, Note_on_c, 0, 79, 97
3, 300125, Note_off_c, 0, 81, 64
3, 300242, Note_on_c, 0, 78, 97
3, 300245, Note_off_c, 0, 79, 64
3, 300362, Note_on_c, 0, 76, 97
3, 300365, Note_off_c, 0, 78, 64
3, 300482, Note_on_c, 0, 78, 97
3, 300485, Note_off_c, 0, 76, 64
3, 300722, Note_on_c, 0, 74, 97
3, 300725, Note_off_c, 0, 78, 64
3, 300965, Note_off_c, 0, 74, 64
3, 301082, Note_on_c, 0, 62, 97
3, 301202, Note_on_c, 0, 66, 97
3, 301205, Note_off_c, 0, 62, 64
3, 301322, Note_on_c, 0, 69, 97
3, 301325, Note_off_c, 0, 66, 64
3, 301442, Note_on_c, 0, 72, 97
3, 301445, Note_off_c, 0, 69, 64
3, 301562, Note_on_c, 0, 71, 97
3, 301565, Note_off_c, 0, 72, 64
3, 301682, Note_on_c, 0, 72, 97
3, 301685, Note_off_c, 0, 71, 64
3, 301925, Note_off_c, 0, 72, 64
3, 302042, Note_on_c, 0, 62, 97
3, 302162, Note_on_c, 0, 66, 97
3, 302165, Note_off_c, 0, 62, 64
3, 302282, Note_on_c, 0, 69, 97
3, 302285, Note_off_c, 0, 66, 64
3, 302402, Note_on_c, 0, 72, 97
3, 302405, Note_off_c, 0, 69, 64
3, 302522, Note_on_c, 0, 71, 97
3, 302525, Note_off_c, 0, 72, 64
3, 302642, Note_on_c, 0, 72, 97
3, 302645, Note_off_c, 0, 71, 64
3, 302885, Note_off_c, 0, 72, 64
3, 304082, Note_on_c, 0, 78, 97
3, 304322, Note_on_c, 0, 79, 97
3, 304325, Note_off_c, 0, 78, 64
3, 304442, Note_on_c, 0, 81, 97
3, 304445, Note_off_c, 0, 79, 64
3, 304562, Note_on_c, 0, 79, 97
3, 304565, Note_off_c, 0, 81, 64
3, 304682, Note_on_c, 0, 78, 97
3, 304685, Note_off_c, 0, 79, 64
3, 304802, Note_on_c, 0, 76, 97
3, 304805, Note_off_c, 0, 78, 64
3, 304922, Note_on_c, 0, 74, 97
3, 304925, Note_off_c, 0, 76, 64
3, 305042, Note_on_c, 0, 72, 97
3, 305045, Note_off_c, 0, 74, 64
3, 305162, Note_on_c, 0, 71, 97
3, 305165, Note_off_c, 0, 72, 64
3, 305282, Note_on_c, 0, 69, 97
3, 305285, Note_off_c, 0, 71, 64
3, 305402, Note_on_c, 0, 67, 97
3, 305405, Note_off_c, 0, 69, 64
3, 305522, Note_on_c, 0, 69, 97
3, 305525, Note_off_c, 0, 67, 64
3, 305642, Note_on_c, 0, 71, 97
3, 305645, Note_off_c, 0, 69, 64
3, 305762, Note_on_c, 0, 72, 97
3, 305765, Note_off_c, 0, 71, 64
3, 305882, Note_on_c, 0, 74, 97
3, 305885, Note_off_c, 0, 72, 64
3, 306002, Note_on_c, 0, 76, 97
3, 306005, Note_off_c, 0, 74, 64
3, 306122, Note_on_c, 0, 78, 97
3, 306125, Note_off_c, 0, 76, 64
3, 306242, Note_on_c, 0, 79, 97
3, 306245, Note_off_c, 0, 78, 64
3, 306482, Note_on_c, 0, 74, 97
3, 306485, Note_off_c, 0, 79, 64
3, 306722, Note_on_c, 0, 79, 97
3, 306725, Note_off_c, 0, 74, 64
3, 307442, Note_on_c, 0, 78, 97
3, 307445, Note_off_c, 0, 79, 64
3, 307562, Note_on_c, 0, 76, 97
3, 307565, Note_off_c, 0, 78, 64
3, 307682, Note_on_c, 0, 74, 97
3, 307685, Note_off_c, 0, 76, 64
3, 307802, Note_on_c, 0, 72, 97
3, 307805, Note_off_c, 0, 74, 64
3, 307922, Note_on_c, 0, 71, 97
3, 307925, Note_off_c, 0, 72, 64
3, 308042, Note_on_c, 0, 69, 97
3, 308045, Note_off_c, 0, 71, 64
3, 308162, Note_on_c, 0, 67, 97
3, 308165, Note_off_c, 0, 69, 64
3, 308402, Note_on_c, 0, 71, 97
3, 308405, Note_off_c, 0, 67, 64
3, 308642, Note_on_c, 0, 76, 97
3, 308645, Note_off_c, 0, 71, 64
3, 309362, Note_on_c, 0, 75, 97
3, 309365, Note_off_c, 0, 76, 64
3, 309605, Note_off_c, 0, 75, 64
3, 309842, Note_on_c, 0, 69, 97
3, 310202, Note_on_c, 0, 66, 97
3, 310205, Note_off_c, 0, 69, 64
3, 310322, Note_on_c, 0, 67, 97
3, 310325, Note_off_c, 0, 66, 64
3, 310442, Note_on_c, 0, 69, 97
3, 310445, Note_off_c, 0, 67, 64
3, 310562, Note_on_c, 0, 71, 97
3, 310565, Note_off_c, 0, 69, 64
3, 310682, Note_on_c, 0, 74, 97
3, 310685, Note_off_c, 0, 71, 64
3, 310802, Note_on_c, 0, 72, 97
3, 310805, Note_off_c, 0, 74, 64
3, 310922, Note_on_c, 0, 71, 97
3, 310925, Note_off_c, 0, 72, 64
3, 311042, Note_on_c, 0, 69, 97
3, 311045, Note_off_c, 0, 71, 64
3, 311162, Note_on_c, 0, 67, 97
3, 311165, Note_off_c, 0, 69, 64
3, 311282, Note_on_c, 0, 66, 97
3, 311285, Note_off_c, 0, 67, 64
3, 311402, Note_on_c, 0, 64, 97
3, 311405, Note_off_c, 0, 66, 64
3, 311522, Note_on_c, 0, 62, 97
3, 311525, Note_off_c, 0, 64, 64
3, 311762, Note_on_c, 0, 74, 97
3, 311765, Note_off_c, 0, 62, 64
3, 312122, Note_on_c, 0, 67, 97
3, 312125, Note_off_c, 0, 74, 64
3, 312242, Note_on_c, 0, 72, 97
3, 312245, Note_off_c, 0, 67, 64
3, 312362, Note_on_c, 0, 71, 97
3, 312365, Note_off_c, 0, 72, 64
3, 312482, Note_on_c, 0, 69, 97
3, 312485, Note_off_c, 0, 71, 64
3, 312602, Note_on_c, 0, 67, 97
3, 312605, Note_off_c, 0, 69, 64
3, 312722, Note_on_c, 0, 65, 97
3, 312725, Note_off_c, 0, 67, 64
3, 312842, Note_on_c, 0, 64, 97
3, 312845, Note_off_c, 0, 65, 64
3, 312962, Note_on_c, 0, 62, 97
3, 312965, Note_off_c, 0, 64, 64
3, 313082, Note_on_c, 0, 60, 97
3, 313085, Note_off_c, 0, 62, 64
3, 313202, Note_on_c, 0, 62, 97
3, 313205, Note_off_c, 0, 60, 64
3, 313322, Note_on_c, 0, 64, 97
3, 313325, Note_off_c, 0, 62, 64
3, 313442, Note_on_c, 0, 65, 97
3, 313445, Note_off_c, 0, 64, 64
3, 313562, Note_on_c, 0, 67, 97
3, 313565, Note_off_c, 0, 65, 64
3, 313682, Note_on_c, 0, 69, 97
3, 313685, Note_off_c, 0, 67, 64
3, 313802, Note_on_c, 0, 71, 97
3, 313805, Note_off_c, 0, 69, 64
3, 313922, Note_on_c, 0, 72, 97
3, 313925, Note_off_c, 0, 71, 64
3, 314162, Note_on_c, 0, 67, 97
3, 314165, Note_off_c, 0, 72, 64
3, 314402, Note_on_c, 0, 72, 97
3, 314405, Note_off_c, 0, 67, 64
3, 315002, Note_on_c, 0, 71, 97
3, 315005, Note_off_c, 0, 72, 64
3, 315122, Note_on_c, 0, 69, 97
3, 315125, Note_off_c, 0, 71, 64
3, 315242, Note_on_c, 0, 71, 97
3, 315245, Note_off_c, 0, 69, 64
3, 315362, Note_on_c, 0, 72, 97
3, 315365, Note_off_c, 0, 71, 64
3, 315482, Note_on_c, 0, 76, 97
3, 315485, Note_off_c, 0, 72, 64
3, 315602, Note_on_c, 0, 74, 97
3, 315605, Note_off_c, 0, 76, 64
3, 315722, Note_on_c, 0, 72, 97
3, 315725, Note_off_c, 0, 74, 64
3, 315842, Note_on_c, 0, 71, 97
3, 315845, Note_off_c, 0, 72, 64
3, 315962, Note_on_c, 0, 67, 97
3, 315965, Note_off_c, 0, 71, 64
3, 316082, Note_on_c, 0, 69, 97
3, 316085, Note_off_c, 0, 67, 64
3, 316202, Note_on_c, 0, 71, 97
3, 316205, Note_off_c, 0, 69, 64
3, 316322, Note_on_c, 0, 72, 97
3, 316325, Note_off_c, 0, 71, 64
3, 316442, Note_on_c, 0, 74, 97
3, 316445, Note_off_c, 0, 72, 64
3, 316562, Note_on_c, 0, 76, 97
3, 316565, Note_off_c, 0, 74, 64
3, 316682, Note_on_c, 0, 78, 97
3, 316685, Note_off_c, 0, 76, 64
3, 316802, Note_on_c, 0, 79, 97
3, 316805, Note_off_c, 0, 78, 64
3, 317045, Note_off_c, 0, 79, 64
3, 317762, Note_on_c, 0, 67, 97
3, 318362, Note_on_c, 0, 66, 97
3, 318365, Note_off_c, 0, 67, 64
3, 318482, Note_on_c, 0, 64, 97
3, 318485, Note_off_c, 0, 66, 64
3, 318602, Note_on_c, 0, 69, 97
3, 318605, Note_off_c, 0, 64, 64
3, 318722, Note_on_c, 0, 62, 97
3, 318725, Note_off_c, 0, 69, 64
3, 318962, Note_on_c, 0, 69, 97
3, 318965, Note_off_c, 0, 62, 64
3, 319022, Note_on_c, 0, 71, 97
3, 319025, Note_off_c, 0, 69, 64
3, 319082, Note_on_c, 0, 72, 97
3, 319085, Note_off_c, 0, 71, 64
3, 319202, Note_on_c, 0, 71, 97
3, 319205, Note_off_c, 0, 72, 64
3, 319442, Note_on_c, 0, 69, 97
3, 319445, Note_off_c, 0, 71, 64
3, 319682, Note_on_c, 0, 71, 97
3, 319685, Note_off_c, 0, 69, 64
3, 319802, Note_on_c, 0, 67, 97
3, 319805, Note_off_c, 0, 71, 64
3, 319922, Note_on_c, 0, 71, 97
3, 319925, Note_off_c, 0, 67, 64
3, 320042, Note_on_c, 0, 74, 97
3, 320045, Note_off_c, 0, 71, 64
3, 320162, Note_on_c, 0, 72, 97
3, 320165, Note_off_c, 0, 74, 64
3, 320762, Note_on_c, 0, 69, 97
3, 320765, Note_off_c, 0, 72, 64
3, 320882, Note_on_c, 0, 72, 97
3, 320885, Note_off_c, 0, 69, 64
3, 321002, Note_on_c, 0, 76, 97
3, 321005, Note_off_c, 0, 72, 64
3, 321122, Note_on_c, 0, 74, 97
3, 321125, Note_off_c, 0, 76, 64
3, 321722, Note_on_c, 0, 71, 97
3, 321725, Note_off_c, 0, 74, 64
3, 321842, Note_on_c, 0, 74, 97
3, 321845, Note_off_c, 0, 71, 64
3, 321962, Note_on_c, 0, 77, 97
3, 321965, Note_off_c, 0, 74, 64
3, 322082, Note_on_c, 0, 76, 97
3, 322085, Note_off_c, 0, 77, 64
3, 322202, Note_on_c, 0, 74, 97
3, 322205, Note_off_c, 0, 76, 64
3, 322322, Note_on_c, 0, 72, 97
3, 322325, Note_off_c, 0, 74, 64
3, 322442, Note_on_c, 0, 71, 97
3, 322445, Note_off_c, 0, 72, 64
3, 322562, Note_on_c, 0, 69, 97
3, 322565, Note_off_c, 0, 71, 64
3, 322682, Note_on_c, 0, 66, 97
3, 322685, Note_off_c, 0, 69, 64
3, 322802, Note_on_c, 0, 69, 97
3, 322805, Note_off_c, 0, 66, 64
3, 322922, Note_on_c, 0, 72, 97
3, 322925, Note_off_c, 0, 69, 64
3, 323042, Note_on_c, 0, 71, 97
3, 323045, Note_off_c, 0, 72, 64
3, 323162, Note_on_c, 0, 69, 97
3, 323165, Note_off_c, 0, 71, 64
3, 323282, Note_on_c, 0, 67, 97
3, 323285, Note_off_c, 0, 69, 64
3, 323402, Note_on_c, 0, 66, 97
3, 323405, Note_off_c, 0, 67, 64
3, 323522, Note_on_c, 0, 67, 97
3, 323525, Note_off_c, 0, 66, 64
3, 323762, Note_on_c, 0, 59, 97
3, 323765, Note_off_c, 0, 67, 64
3, 324002, Note_on_c, 0, 57, 97
3, 324005, Note_off_c, 0, 59, 64
3, 324242, Note_on_c, 0, 66, 97
3, 324245, Note_off_c, 0, 57, 64
3, 324482, Note_on_c, 0, 67, 97
3, 324485, Note_off_c, 0, 66, 64
3, 324965, Note_off_c, 0, 67, 64
3, 325202, Note_on_c, 0, 71, 97
3, 325442, Note_on_c, 0, 72, 97
3, 325445, Note_off_c, 0, 71, 64
3, 325502, Note_on_c, 0, 71, 97
3, 325505, Note_off_c, 0, 72, 64
3, 325562, Note_on_c, 0, 69, 97
3, 325565, Note_off_c, 0, 71, 64
3, 325682, Note_on_c, 0, 71, 97
3, 325685, Note_off_c, 0, 69, 64
3, 325922, Note_on_c, 0, 64, 97
3, 325925, Note_off_c, 0, 71, 64
3, 326162, Note_on_c, 0, 66, 97
3, 326165, Note_off_c, 0, 64, 64
3, 326222, Note_on_c, 0, 64, 97
3, 326225, Note_off_c, 0, 66, 64
3, 326282, Note_on_c, 0, 66, 97
3, 326285, Note_off_c, 0, 64, 64
3, 326402, Note_on_c, 0, 67, 97
3, 326405, Note_off_c, 0, 66, 64
3, 326642, Note_on_c, 0, 66, 97
3, 326645, Note_off_c, 0, 67, 64
3, 326762, Note_on_c, 0, 67, 97
3, 326765, Note_off_c, 0, 66, 64
3, 326882, Note_on_c, 0, 64, 97
3, 326885, Note_off_c, 0, 67, 64
3, 327002, Note_on_c, 0, 59, 97
3, 327005, Note_off_c, 0, 64, 64
3, 327122, Note_on_c, 0, 66, 97
3, 327125, Note_off_c, 0, 59, 64
3, 327242, Note_on_c, 0, 59, 97
3, 327245, Note_off_c, 0, 66, 64
3, 327362, Note_on_c, 0, 67, 97
3, 327365, Note_off_c, 0, 59, 64
3, 327482, Note_on_c, 0, 59, 97
3, 327485, Note_off_c, 0, 67, 64
3, 327602, Note_on_c, 0, 66, 97
3, 327605, Note_off_c, 0, 59, 64
3, 327722, Note_on_c, 0, 59, 97
3, 327725, Note_off_c, 0, 66, 64
3, 327842, Note_on_c, 0, 67, 97
3, 327845, Note_off_c, 0, 59, 64
3, 327962, Note_on_c, 0, 64, 97
3, 327965, Note_off_c, 0, 67, 64
3, 328082, Note_on_c, 0, 69, 97
3, 328085, Note_off_c, 0, 64, 64
3, 328322, Note_on_c, 0, 66, 97
3, 328325, Note_off_c, 0, 69, 64
3, 328382, Note_on_c, 0, 67, 97
3, 328385, Note_off_c, 0, 66, 64
3, 328442, Note_on_c, 0, 66, 97
3, 328445, Note_off_c, 0, 67, 64
3, 328562, Note_on_c, 0, 64, 97
3, 328565, Note_off_c, 0, 66, 64
3, 328682, Note_on_c, 0, 66, 97
3, 328685, Note_off_c, 0, 64, 64
3, 328802, Note_on_c, 0, 62, 97
3, 328805, Note_off_c, 0, 66, 64
3, 328922, Note_on_c, 0, 57, 97
3, 328925, Note_off_c, 0, 62, 64
3, 329042, Note_on_c, 0, 64, 97
3, 329045, Note_off_c, 0, 57, 64
3, 329162, Note_on_c, 0, 57, 97
3, 329165, Note_off_c, 0, 64, 64
3, 329282, Note_on_c, 0, 66, 97
3, 329285, Note_off_c, 0, 57, 64
3, 329402, Note_on_c, 0, 57, 97
3, 329405, Note_off_c, 0, 66, 64
3, 329522, Note_on_c, 0, 64, 97
3, 329525, Note_off_c, 0, 57, 64
3, 329642, Note_on_c, 0, 57, 97
3, 329645, Note_off_c, 0, 64, 64
3, 329762, Note_on_c, 0, 66, 97
3, 329765, Note_off_c, 0, 57, 64
3, 329882, Note_on_c, 0, 62, 97
3, 329885, Note_off_c, 0, 66, 64
3, 330002, Note_on_c, 0, 67, 97
3, 330005, Note_off_c, 0, 62, 64
3, 330242, Note_on_c, 0, 66, 97
3, 330245, Note_off_c, 0, 67, 64
3, 330362, Note_on_c, 0, 64, 97
3, 330365, Note_off_c, 0, 66, 64
3, 330482, Note_on_c, 0, 63, 97
3, 330485, Note_off_c, 0, 64, 64
3, 330602, Note_on_c, 0, 64, 97
3, 330605, Note_off_c, 0, 63, 64
3, 330722, Note_on_c, 0, 68, 97
3, 330725, Note_off_c, 0, 64, 64
3, 330842, Note_on_c, 0, 64, 97
3, 330845, Note_off_c, 0, 68, 64
3, 330962, Note_on_c, 0, 63, 97
3, 330965, Note_off_c, 0, 64, 64
3, 331082, Note_on_c, 0, 64, 97
3, 331085, Note_off_c, 0, 63, 64
3, 331202, Note_on_c, 0, 69, 97
3, 331205, Note_off_c, 0, 64, 64
3, 331322, Note_on_c, 0, 64, 97
3, 331325, Note_off_c, 0, 69, 64
3, 331442, Note_on_c, 0, 63, 97
3, 331445, Note_off_c, 0, 64, 64
3, 331562, Note_on_c, 0, 64, 97
3, 331565, Note_off_c, 0, 63, 64
3, 331682, Note_on_c, 0, 70, 97
3, 331685, Note_off_c, 0, 64, 64
3, 331802, Note_on_c, 0, 64, 97
3, 331805, Note_off_c, 0, 70, 64
3, 331922, Note_on_c, 0, 63, 97
3, 331925, Note_off_c, 0, 64, 64
3, 332042, Note_on_c, 0, 64, 97
3, 332045, Note_off_c, 0, 63, 64
3, 332162, Note_on_c, 0, 71, 97
3, 332165, Note_off_c, 0, 64, 64
3, 333362, Note_on_c, 0, 70, 97
3, 333365, Note_off_c, 0, 71, 64
3, 333605, Note_off_c, 0, 70, 64
3, 334322, Note_on_c, 0, 70, 97
3, 334562, Note_on_c, 0, 71, 97
3, 334565, Note_off_c, 0, 70, 64
3, 334802, Note_on_c, 0, 70, 97
3, 334805, Note_off_c, 0, 71, 64
3, 335042, Note_on_c, 0, 71, 97
3, 335045, Note_off_c, 0, 70, 64
3, 335282, Note_on_c, 0, 66, 97
3, 335285, Note_off_c, 0, 71, 64
3, 335525, Note_off_c, 0, 66, 64
3, 336242, Note_on_c, 0, 68, 97
3, 336482, Note_on_c, 0, 69, 97
3, 336485, Note_off_c, 0, 68, 64
3, 336722, Note_on_c, 0, 68, 97
3, 336725, Note_off_c, 0, 69, 64
3, 336962, Note_on_c, 0, 69, 97
3, 336965, Note_off_c, 0, 68, 64
3, 337202, Note_on_c, 0, 64, 97
3, 337205, Note_off_c, 0, 69, 64
3, 337445, Note_off_c, 0, 64, 64
3, 339962, Note_on_c, 0, 73, 97
3, 340082, Note_on_c, 0, 74, 97
3, 340085, Note_off_c, 0, 73, 64
3, 340202, Note_on_c, 0, 76, 97
3, 340205, Note_off_c, 0, 74, 64
3, 340322, Note_on_c, 0, 66, 97
3, 340325, Note_off_c, 0, 76, 64
3, 340442, Note_on_c, 0, 76, 97
3, 340445, Note_off_c, 0, 66, 64
3, 340562, Note_on_c, 0, 74, 97
3, 340565, Note_off_c, 0, 76, 64
3, 340682, Note_on_c, 0, 73, 97
3, 340685, Note_off_c, 0, 74, 64
3, 340802, Note_on_c, 0, 74, 97
3, 340805, Note_off_c, 0, 73, 64
3, 340922, Note_on_c, 0, 71, 97
3, 340925, Note_off_c, 0, 74, 64
3, 341042, Note_on_c, 0, 73, 97
3, 341045, Note_off_c, 0, 71, 64
3, 341162, Note_on_c, 0, 74, 97
3, 341165, Note_off_c, 0, 73, 64
3, 341282, Note_on_c, 0, 70, 97
3, 341285, Note_off_c, 0, 74, 64
3, 341402, Note_on_c, 0, 73, 97
3, 341405, Note_off_c, 0, 70, 64
3, 341522, Note_on_c, 0, 71, 97
3, 341525, Note_off_c, 0, 73, 64
3, 341642, Note_on_c, 0, 70, 97
3, 341645, Note_off_c, 0, 71, 64
3, 341762, Note_on_c, 0, 71, 97
3, 341765, Note_off_c, 0, 70, 64
3, 343802, Note_on_c, 0, 71, 97
3, 343805, Note_off_c, 0, 71, 64
3, 343922, Note_on_c, 0, 72, 97
3, 343925, Note_off_c, 0, 71, 64
3, 344042, Note_on_c, 0, 74, 97
3, 344045, Note_off_c, 0, 72, 64
3, 344162, Note_on_c, 0, 64, 97
3, 344165, Note_off_c, 0, 74, 64
3, 344282, Note_on_c, 0, 74, 97
3, 344285, Note_off_c, 0, 64, 64
3, 344402, Note_on_c, 0, 72, 97
3, 344405, Note_off_c, 0, 74, 64
3, 344522, Note_on_c, 0, 71, 97
3, 344525, Note_off_c, 0, 72, 64
3, 344642, Note_on_c, 0, 72, 97
3, 344645, Note_off_c, 0, 71, 64
3, 344762, Note_on_c, 0, 69, 97
3, 344765, Note_off_c, 0, 72, 64
3, 344882, Note_on_c, 0, 71, 97
3, 344885, Note_off_c, 0, 69, 64
3, 345002, Note_on_c, 0, 72, 97
3, 345005, Note_off_c, 0, 71, 64
3, 345122, Note_on_c, 0, 68, 97
3, 345125, Note_off_c, 0, 72, 64
3, 345242, Note_on_c, 0, 71, 97
3, 345245, Note_off_c, 0, 68, 64
3, 345362, Note_on_c, 0, 69, 97
3, 345365, Note_off_c, 0, 71, 64
3, 345482, Note_on_c, 0, 68, 97
3, 345485, Note_off_c, 0, 69, 64
3, 345602, Note_on_c, 0, 69, 97
3, 345605, Note_off_c, 0, 68, 64
3, 347642, Note_on_c, 0, 69, 97
3, 347645, Note_off_c, 0, 69, 64
3, 347762, Note_on_c, 0, 71, 97
3, 347765, Note_off_c, 0, 69, 64
3, 347882, Note_on_c, 0, 72, 97
3, 347885, Note_off_c, 0, 71, 64
3, 348002, Note_on_c, 0, 62, 97
3, 348005, Note_off_c, 0, 72, 64
3, 348122, Note_on_c, 0, 72, 97
3, 348125, Note_off_c, 0, 62, 64
3, 348242, Note_on_c, 0, 71, 97
3, 348245, Note_off_c, 0, 72, 64
3, 348362, Note_on_c, 0, 69, 97
3, 348365, Note_off_c, 0, 71, 64
3, 348482, Note_on_c, 0, 71, 97
3, 348485, Note_off_c, 0, 69, 64
3, 348602, Note_on_c, 0, 67, 97
3, 348605, Note_off_c, 0, 71, 64
3, 348722, Note_on_c, 0, 69, 97
3, 348725, Note_off_c, 0, 67, 64
3, 348842, Note_on_c, 0, 71, 97
3, 348845, Note_off_c, 0, 69, 64
3, 348962, Note_on_c, 0, 66, 97
3, 348965, Note_off_c, 0, 71, 64
3, 349082, Note_on_c, 0, 69, 97
3, 349085, Note_off_c, 0, 66, 64
3, 349202, Note_on_c, 0, 67, 97
3, 349205, Note_off_c, 0, 69, 64
3, 349322, Note_on_c, 0, 66, 97
3, 349325, Note_off_c, 0, 67, 64
3, 349442, Note_on_c, 0, 67, 97
3, 349445, Note_off_c, 0, 66, 64
3, 350042, Note_on_c, 0, 66, 97
3, 350045, Note_off_c, 0, 67, 64
3, 350162, Note_on_c, 0, 64, 97
3, 350165, Note_off_c, 0, 66, 64
3, 350282, Note_on_c, 0, 69, 97
3, 350285, Note_off_c, 0, 64, 64
3, 350402, Note_on_c, 0, 62, 97
3, 350405, Note_off_c, 0, 69, 64
3, 350642, Note_on_c, 0, 69, 97
3, 350645, Note_off_c, 0, 62, 64
3, 350702, Note_on_c, 0, 71, 97
3, 350705, Note_off_c, 0, 69, 64
3, 350762, Note_on_c, 0, 72, 97
3, 350765, Note_off_c, 0, 71, 64
3, 350882, Note_on_c, 0, 71, 97
3, 350885, Note_off_c, 0, 72, 64
3, 351122, Note_on_c, 0, 69, 97
3, 351125, Note_off_c, 0, 71, 64
3, 351362, Note_on_c, 0, 67, 97
3, 351365, Note_off_c, 0, 69, 64
3, 351605, Note_off_c, 0, 67, 64
3, 352322, Note_on_c, 0, 74, 97
3, 352922, Note_on_c, 0, 73, 97
3, 352925, Note_off_c, 0, 74, 64
3, 353042, Note_on_c, 0, 71, 97
3, 353045, Note_off_c, 0, 73, 64
3, 353162, Note_on_c, 0, 76, 97
3, 353165, Note_off_c, 0, 71, 64
3, 353282, Note_on_c, 0, 69, 97
3, 353285, Note_off_c, 0, 76, 64
3, 353522, Note_on_c, 0, 76, 97
3, 353525, Note_off_c, 0, 69, 64
3, 353582, Note_on_c, 0, 78, 97
3, 353585, Note_off_c, 0, 76, 64
3, 353642, Note_on_c, 0, 79, 97
3, 353645, Note_off_c, 0, 78, 64
3, 353762, Note_on_c, 0, 78, 97
3, 353765, Note_off_c, 0, 79, 64
3, 354002, Note_on_c, 0, 76, 97
3, 354005, Note_off_c, 0, 78, 64
3, 354062, Note_on_c, 0, 78, 97
3, 354065, Note_off_c, 0, 76, 64
3, 354122, Note_on_c, 0, 76, 97
3, 354125, Note_off_c, 0, 78, 64
3, 354242, Note_on_c, 0, 74, 97
3, 354245, Note_off_c, 0, 76, 64
3, 354485, Note_off_c, 0, 74, 64
3, 355922, Note_on_c, 0, 74, 97
3, 356282, Note_on_c, 0, 71, 97
3, 356285, Note_off_c, 0, 74, 64
3, 356402, Note_on_c, 0, 73, 97
3, 356405, Note_off_c, 0, 71, 64
3, 356522, Note_on_c, 0, 76, 97
3, 356525, Note_off_c, 0, 73, 64
3, 356642, Note_on_c, 0, 74, 97
3, 356645, Note_off_c, 0, 76, 64
3, 356882, Note_on_c, 0, 73, 97
3, 356885, Note_off_c, 0, 74, 64
3, 357122, Note_on_c, 0, 71, 97
3, 357125, Note_off_c, 0, 73, 64
3, 357362, Note_on_c, 0, 64, 97
3, 357365, Note_off_c, 0, 71, 64
3, 357605, Note_off_c, 0, 64, 64
3, 357842, Note_on_c, 0, 76, 97
3, 358202, Note_on_c, 0, 73, 97
3, 358205, Note_off_c, 0, 76, 64
3, 358322, Note_on_c, 0, 74, 97
3, 358325, Note_off_c, 0, 73, 64
3, 358442, Note_on_c, 0, 78, 97
3, 358445, Note_off_c, 0, 74, 64
3, 358562, Note_on_c, 0, 76, 97
3, 358565, Note_off_c, 0, 78, 64
3, 358802, Note_on_c, 0, 74, 97
3, 358805, Note_off_c, 0, 76, 64
3, 359042, Note_on_c, 0, 73, 97
3, 359045, Note_off_c, 0, 74, 64
3, 359282, Note_on_c, 0, 66, 97
3, 359285, Note_off_c, 0, 73, 64
3, 359525, Note_off_c, 0, 66, 64
3, 359762, Note_on_c, 0, 66, 97
3, 360242, Note_on_c, 0, 64, 97
3, 360245, Note_off_c, 0, 66, 64
3, 360485, Note_off_c, 0, 64, 64
3, 360722, Note_on_c, 0, 76, 97
3, 361082, Note_on_c, 0, 73, 97
3, 361085, Note_off_c, 0, 76, 64
3, 361202, Note_on_c, 0, 74, 97
3, 361205, Note_off_c, 0, 73, 64
3, 361322, Note_on_c, 0, 71, 97
3, 361325, Note_off_c, 0, 74, 64
3, 361442, Note_on_c, 0, 68, 97
3, 361445, Note_off_c, 0, 71, 64
3, 361562, Note_on_c, 0, 66, 97
3, 361565, Note_off_c, 0, 68, 64
3, 361682, Note_on_c, 0, 68, 97
3, 361685, Note_off_c, 0, 66, 64
3, 361802, Note_on_c, 0, 71, 97
3, 361805, Note_off_c, 0, 68, 64
3, 361922, Note_on_c, 0, 74, 97
3, 361925, Note_off_c, 0, 71, 64
3, 362042, Note_on_c, 0, 71, 97
3, 362045, Note_off_c, 0, 74, 64
3, 362162, Note_on_c, 0, 72, 97
3, 362165, Note_off_c, 0, 71, 64
3, 362282, Note_on_c, 0, 69, 97
3, 362285, Note_off_c, 0, 72, 64
3, 362402, Note_on_c, 0, 66, 97
3, 362405, Note_off_c, 0, 69, 64
3, 362522, Note_on_c, 0, 64, 97
3, 362525, Note_off_c, 0, 66, 64
3, 362642, Note_on_c, 0, 66, 97
3, 362645, Note_off_c, 0, 64, 64
3, 362762, Note_on_c, 0, 69, 97
3, 362765, Note_off_c, 0, 66, 64
3, 362882, Note_on_c, 0, 72, 97
3, 362885, Note_off_c, 0, 69, 64
3, 363122, Note_on_c, 0, 71, 97
3, 363125, Note_off_c, 0, 72, 64
3, 363365, Note_off_c, 0, 71, 64
3, 363602, Note_on_c, 0, 64, 97
3, 364082, Note_on_c, 0, 62, 97
3, 364085, Note_off_c, 0, 64, 64
3, 364325, Note_off_c, 0, 62, 64
3, 364562, Note_on_c, 0, 74, 97
3, 364922, Note_on_c, 0, 71, 97
3, 364925, Note_off_c, 0, 74, 64
3, 365042, Note_on_c, 0, 72, 97
3, 365045, Note_off_c, 0, 71, 64
3, 365162, Note_on_c, 0, 69, 97
3, 365165, Note_off_c, 0, 72, 64
3, 365282, Note_on_c, 0, 66, 97
3, 365285, Note_off_c, 0, 69, 64
3, 365402, Note_on_c, 0, 64, 97
3, 365405, Note_off_c, 0, 66, 64
3, 365522, Note_on_c, 0, 66, 97
3, 365525, Note_off_c, 0, 64, 64
3, 365642, Note_on_c, 0, 69, 97
3, 365645, Note_off_c, 0, 66, 64
3, 365762, Note_on_c, 0, 72, 97
3, 365765, Note_off_c, 0, 69, 64
3, 365882, Note_on_c, 0, 69, 97
3, 365885, Note_off_c, 0, 72, 64
3, 366002, Note_on_c, 0, 71, 97
3, 366005, Note_off_c, 0, 69, 64
3, 366122, Note_on_c, 0, 67, 97
3, 366125, Note_off_c, 0, 71, 64
3, 366242, Note_on_c, 0, 64, 97
3, 366245, Note_off_c, 0, 67, 64
3, 366362, Note_on_c, 0, 62, 97
3, 366365, Note_off_c, 0, 64, 64
3, 366482, Note_on_c, 0, 64, 97
3, 366485, Note_off_c, 0, 62, 64
3, 366602, Note_on_c, 0, 67, 97
3, 366605, Note_off_c, 0, 64, 64
3, 366722, Note_on_c, 0, 70, 97
3, 366725, Note_off_c, 0, 67, 64
3, 366962, Note_on_c, 0, 69, 97
3, 366965, Note_off_c, 0, 70, 64
3, 367205, Note_off_c, 0, 69, 64
3, 367442, Note_on_c, 0, 66, 97
3, 367922, Note_on_c, 0, 64, 97
3, 367925, Note_off_c, 0, 66, 64
3, 368165, Note_off_c, 0, 64, 64
3, 368402, Note_on_c, 0, 68, 97
3, 368762, Note_on_c, 0, 65, 97
3, 368765, Note_off_c, 0, 68, 64
3, 368882, Note_on_c, 0, 66, 97
3, 368885, Note_off_c, 0, 65, 64
3, 369002, Note_on_c, 0, 61, 97
3, 369005, Note_off_c, 0, 66, 64
3, 369122, Note_on_c, 0, 58, 97
3, 369125, Note_off_c, 0, 61, 64
3, 369242, Note_on_c, 0, 56, 97
3, 369245, Note_off_c, 0, 58, 64
3, 369362, Note_on_c, 0, 58, 97
3, 369365, Note_off_c, 0, 56, 64
3, 369482, Note_on_c, 0, 61, 97
3, 369485, Note_off_c, 0, 58, 64
3, 369602, Note_on_c, 0, 64, 97
3, 369605, Note_off_c, 0, 61, 64
3, 369722, Note_on_c, 0, 61, 97
3, 369725, Note_off_c, 0, 64, 64
3, 369842, Note_on_c, 0, 62, 97
3, 369845, Note_off_c, 0, 61, 64
3, 369962, Note_on_c, 0, 59, 97
3, 369965, Note_off_c, 0, 62, 64
3, 370082, Note_on_c, 0, 56, 97
3, 370085, Note_off_c, 0, 59, 64
3, 370202, Note_on_c, 0, 54, 97
3, 370205, Note_off_c, 0, 56, 64
3, 370322, Note_on_c, 0, 56, 97
3, 370325, Note_off_c, 0, 54, 64
3, 370442, Note_on_c, 0, 58, 97
3, 370445, Note_off_c, 0, 56, 64
3, 370562, Note_on_c, 0, 59, 97
3, 370565, Note_off_c, 0, 58, 64
3, 370802, Note_on_c, 0, 70, 97
3, 370805, Note_off_c, 0, 59, 64
3, 371042, Note_on_c, 0, 71, 97
3, 371045, Note_off_c, 0, 70, 64
3, 371282, Note_on_c, 0, 70, 97
3, 371285, Note_off_c, 0, 71, 64
3, 371522, Note_on_c, 0, 71, 97
3, 371525, Note_off_c, 0, 70, 64
3, 371762, Note_on_c, 0, 66, 97
3, 371765, Note_off_c, 0, 71, 64
3, 372005, Note_off_c, 0, 66, 64
3, 372722, Note_on_c, 0, 68, 97
3, 372962, Note_on_c, 0, 69, 97
3, 372965, Note_off_c, 0, 68, 64
3, 373202, Note_on_c, 0, 68, 97
3, 373205, Note_off_c, 0, 69, 64
3, 373442, Note_on_c, 0, 69, 97
3, 373445, Note_off_c, 0, 68, 64
3, 373682, Note_on_c, 0, 64, 97
3, 373685, Note_off_c, 0, 69, 64
3, 373925, Note_off_c, 0, 64, 64
3, 374642, Note_on_c, 0, 64, 97
3, 374882, Note_on_c, 0, 66, 97
3, 374885, Note_off_c, 0, 64, 64
3, 375122, Note_on_c, 0, 63, 97
3, 375125, Note_off_c, 0, 66, 64
3, 375362, Note_on_c, 0, 67, 97
3, 375365, Note_off_c, 0, 63, 64
3, 375602, Note_on_c, 0, 64, 97
3, 375605, Note_off_c, 0, 67, 64
3, 375842, Note_on_c, 0, 69, 97
3, 375845, Note_off_c, 0, 64, 64
3, 376082, Note_on_c, 0, 66, 97
3, 376085, Note_off_c, 0, 69, 64
3, 376322, Note_on_c, 0, 71, 97
3, 376325, Note_off_c, 0, 66, 64
3, 376442, Note_on_c, 0, 69, 97
3, 376445, Note_off_c, 0, 71, 64
3, 376562, Note_on_c, 0, 71, 97
3, 376565, Note_off_c, 0, 69, 64
3, 376682, Note_on_c, 0, 67, 97
3, 376685, Note_off_c, 0, 71, 64
3, 376802, Note_on_c, 0, 64, 97
3, 376805, Note_off_c, 0, 67, 64
3, 376922, Note_on_c, 0, 63, 97
3, 376925, Note_off_c, 0, 64, 64
3, 377042, Note_on_c, 0, 64, 97
3, 377045, Note_off_c, 0, 63, 64
3, 377162, Note_on_c, 0, 71, 97
3, 377165, Note_off_c, 0, 64, 64
3, 377282, Note_on_c, 0, 72, 97
3, 377285, Note_off_c, 0, 71, 64
3, 377342, Note_on_c, 0, 71, 97
3, 377345, Note_off_c, 0, 72, 64
3, 377402, Note_on_c, 0, 69, 97
3, 377405, Note_off_c, 0, 71, 64
3, 377522, Note_on_c, 0, 71, 97
3, 377525, Note_off_c, 0, 69, 64
3, 377762, Note_on_c, 0, 64, 97
3, 377765, Note_off_c, 0, 71, 64
3, 378002, Note_on_c, 0, 66, 97
3, 378005, Note_off_c, 0, 64, 64
3, 378242, Note_on_c, 0, 67, 97
3, 378245, Note_off_c, 0, 66, 64
3, 378302, Note_on_c, 0, 69, 97
3, 378305, Note_off_c, 0, 67, 64
3, 378362, Note_on_c, 0, 67, 97
3, 378365, Note_off_c, 0, 69, 64
3, 378482, Note_on_c, 0, 66, 97
3, 378485, Note_off_c, 0, 67, 64
3, 378602, Note_on_c, 0, 67, 97
3, 378605, Note_off_c, 0, 66, 64
3, 378722, Note_on_c, 0, 64, 97
3, 378725, Note_off_c, 0, 67, 64
3, 378842, Note_on_c, 0, 59, 97
3, 378845, Note_off_c, 0, 64, 64
3, 378962, Note_on_c, 0, 66, 97
3, 378965, Note_off_c, 0, 59, 64
3, 379082, Note_on_c, 0, 59, 97
3, 379085, Note_off_c, 0, 66, 64
3, 379202, Note_on_c, 0, 67, 97
3, 379205, Note_off_c, 0, 59, 64
3, 379322, Note_on_c, 0, 59, 97
3, 379325, Note_off_c, 0, 67, 64
3, 379442, Note_on_c, 0, 66, 97
3, 379445, Note_off_c, 0, 59, 64
3, 379562, Note_on_c, 0, 59, 97
3, 379565, Note_off_c, 0, 66, 64
3, 379682, Note_on_c, 0, 67, 97
3, 379685, Note_off_c, 0, 59, 64
3, 379802, Note_on_c, 0, 64, 97
3, 379805, Note_off_c, 0, 67, 64
3, 379922, Note_on_c, 0, 69, 97
3, 379925, Note_off_c, 0, 64, 64
3, 380162, Note_on_c, 0, 66, 97
3, 380165, Note_off_c, 0, 69, 64
3, 380222, Note_on_c, 0, 67, 97
3, 380225, Note_off_c, 0, 66, 64
3, 380282, Note_on_c, 0, 66, 97
3, 380285, Note_off_c, 0, 67, 64
3, 380402, Note_on_c, 0, 64, 97
3, 380405, Note_off_c, 0, 66, 64
3, 380522, Note_on_c, 0, 66, 97
3, 380525, Note_off_c, 0, 64, 64
3, 380642, Note_on_c, 0, 62, 97
3, 380645, Note_off_c, 0, 66, 64
3, 380762, Note_on_c, 0, 57, 97
3, 380765, Note_off_c, 0, 62, 64
3, 380882, Note_on_c, 0, 64, 97
3, 380885, Note_off_c, 0, 57, 64
3, 381002, Note_on_c, 0, 57, 97
3, 381005, Note_off_c, 0, 64, 64
3, 381122, Note_on_c, 0, 66, 97
3, 381125, Note_off_c, 0, 57, 64
3, 381242, Note_on_c, 0, 57, 97
3, 381245, Note_off_c, 0, 66, 64
3, 381362, Note_on_c, 0, 64, 97
3, 381365, Note_off_c, 0, 57, 64
3, 381482, Note_on_c, 0, 57, 97
3, 381485, Note_off_c, 0, 64, 64
3, 381602, Note_on_c, 0, 66, 97
3, 381605, Note_off_c, 0, 57, 64
3, 381722, Note_on_c, 0, 62, 97
3, 381725, Note_off_c, 0, 66, 64
3, 381842, Note_on_c, 0, 67, 97
3, 381845, Note_off_c, 0, 62, 64
3, 382082, Note_on_c, 0, 65, 97
3, 382085, Note_off_c, 0, 67, 64
3, 382202, Note_on_c, 0, 64, 97
3, 382205, Note_off_c, 0, 65, 64
3, 382322, Note_on_c, 0, 63, 97
3, 382325, Note_off_c, 0, 64, 64
3, 382442, Note_on_c, 0, 64, 97
3, 382445, Note_off_c, 0, 63, 64
3, 382562, Note_on_c, 0, 68, 97
3, 382565, Note_off_c, 0, 64, 64
3, 382682, Note_on_c, 0, 64, 97
3, 382685, Note_off_c, 0, 68, 64
3, 382802, Note_on_c, 0, 63, 97
3, 382805, Note_off_c, 0, 64, 64
3, 382922, Note_on_c, 0, 64, 97
3, 382925, Note_off_c, 0, 63, 64
3, 383042, Note_on_c, 0, 69, 97
3, 383045, Note_off_c, 0, 64, 64
3, 383162, Note_on_c, 0, 64, 97
3, 383165, Note_off_c, 0, 69, 64
3, 383282, Note_on_c, 0, 63, 97
3, 383285, Note_off_c, 0, 64, 64
3, 383402, Note_on_c, 0, 64, 97
3, 383405, Note_off_c, 0, 63, 64
3, 383522, Note_on_c, 0, 71, 97
3, 383525, Note_off_c, 0, 64, 64
3, 383642, Note_on_c, 0, 64, 97
3, 383645, Note_off_c, 0, 71, 64
3, 383762, Note_on_c, 0, 63, 97
3, 383765, Note_off_c, 0, 64, 64
3, 383882, Note_on_c, 0, 64, 97
3, 383885, Note_off_c, 0, 63, 64
3, 384002, Note_on_c, 0, 72, 97
3, 384005, Note_off_c, 0, 64, 64
3, 384242, Note_on_c, 0, 62, 97
3, 384245, Note_off_c, 0, 72, 64
3, 384482, Note_on_c, 0, 64, 97
3, 384485, Note_off_c, 0, 62, 64
3, 384722, Note_on_c, 0, 61, 97
3, 384725, Note_off_c, 0, 64, 64
3, 384962, Note_on_c, 0, 66, 97
3, 384965, Note_off_c, 0, 61, 64
3, 385202, Note_on_c, 0, 62, 97
3, 385205, Note_off_c, 0, 66, 64
3, 385442, Note_on_c, 0, 67, 97
3, 385445, Note_off_c, 0, 62, 64
3, 385682, Note_on_c, 0, 64, 97
3, 385685, Note_off_c, 0, 67, 64
3, 385922, Note_on_c, 0, 69, 97
3, 385925, Note_off_c, 0, 64, 64
3, 386042, Note_on_c, 0, 62, 97
3, 386045, Note_off_c, 0, 69, 64
3, 386162, Note_on_c, 0, 61, 97
3, 386165, Note_off_c, 0, 62, 64
3, 386282, Note_on_c, 0, 62, 97
3, 386285, Note_off_c, 0, 61, 64
3, 386402, Note_on_c, 0, 66, 97
3, 386405, Note_off_c, 0, 62, 64
3, 386522, Note_on_c, 0, 62, 97
3, 386525, Note_off_c, 0, 66, 64
3, 386642, Note_on_c, 0, 61, 97
3, 386645, Note_off_c, 0, 62, 64
3, 386762, Note_on_c, 0, 62, 97
3, 386765, Note_off_c, 0, 61, 64
3, 386882, Note_on_c, 0, 67, 97
3, 386885, Note_off_c, 0, 62, 64
3, 387002, Note_on_c, 0, 62, 97
3, 387005, Note_off_c, 0, 67, 64
3, 387122, Note_on_c, 0, 61, 97
3, 387125, Note_off_c, 0, 62, 64
3, 387242, Note_on_c, 0, 62, 97
3, 387245, Note_off_c, 0, 61, 64
3, 387362, Note_on_c, 0, 69, 97
3, 387365, Note_off_c, 0, 62, 64
3, 387482, Note_on_c, 0, 62, 97
3, 387485, Note_off_c, 0, 69, 64
3, 387602, Note_on_c, 0, 61, 97
3, 387605, Note_off_c, 0, 62, 64
3, 387722, Note_on_c, 0, 62, 97
3, 387725, Note_off_c, 0, 61, 64
3, 387842, Note_on_c, 0, 71, 97
3, 387845, Note_off_c, 0, 62, 64
3, 387962, Note_on_c, 0, 71, 97
3, 387965, Note_off_c, 0, 71, 64
3, 388082, Note_on_c, 0, 72, 97
3, 388085, Note_off_c, 0, 71, 64
3, 388202, Note_on_c, 0, 71, 97
3, 388205, Note_off_c, 0, 72, 64
3, 388322, Note_on_c, 0, 62, 97
3, 388325, Note_off_c, 0, 71, 64
3, 388442, Note_on_c, 0, 71, 97
3, 388445, Note_off_c, 0, 62, 64
3, 388562, Note_on_c, 0, 72, 97
3, 388565, Note_off_c, 0, 71, 64
3, 388682, Note_on_c, 0, 71, 97
3, 388685, Note_off_c, 0, 72, 64
3, 388802, Note_on_c, 0, 64, 97
3, 388805, Note_off_c, 0, 71, 64
3, 388922, Note_on_c, 0, 71, 97
3, 388925, Note_off_c, 0, 64, 64
3, 389042, Note_on_c, 0, 72, 97
3, 389045, Note_off_c, 0, 71, 64
3, 389162, Note_on_c, 0, 71, 97
3, 389165, Note_off_c, 0, 72, 64
3, 389282, Note_on_c, 0, 65, 97
3, 389285, Note_off_c, 0, 71, 64
3, 389402, Note_on_c, 0, 71, 97
3, 389405, Note_off_c, 0, 65, 64
3, 389522, Note_on_c, 0, 72, 97
3, 389525, Note_off_c, 0, 71, 64
3, 389642, Note_on_c, 0, 71, 97
3, 389645, Note_off_c, 0, 72, 64
3, 389762, Note_on_c, 0, 67, 97
3, 389765, Note_off_c, 0, 71, 64
3, 389882, Note_on_c, 0, 71, 97
3, 389885, Note_off_c, 0, 67, 64
3, 390002, Note_on_c, 0, 72, 97
3, 390005, Note_off_c, 0, 71, 64
3, 390122, Note_on_c, 0, 67, 97
3, 390125, Note_off_c, 0, 72, 64
3, 390242, Note_on_c, 0, 64, 97
3, 390245, Note_off_c, 0, 67, 64
3, 390362, Note_on_c, 0, 67, 97
3, 390365, Note_off_c, 0, 64, 64
3, 390482, Note_on_c, 0, 60, 97
3, 390485, Note_off_c, 0, 67, 64
3, 390725, Note_off_c, 0, 60, 64
3, 392642, Note_on_c, 0, 67, 97
3, 393242, Note_on_c, 0, 66, 97
3, 393245, Note_off_c, 0, 67, 64
3, 393362, Note_on_c, 0, 64, 97
3, 393365, Note_off_c, 0, 66, 64
3, 393482, Note_on_c, 0, 69, 97
3, 393485, Note_off_c, 0, 64, 64
3, 393602, Note_on_c, 0, 62, 97
3, 393605, Note_off_c, 0, 69, 64
3, 393842, Note_on_c, 0, 69, 97
3, 393845, Note_off_c, 0, 62, 64
3, 393902, Note_on_c, 0, 71, 97
3, 393905, Note_off_c, 0, 69, 64
3, 393962, Note_on_c, 0, 72, 97
3, 393965, Note_off_c, 0, 71, 64
3, 394082, Note_on_c, 0, 71, 97
3, 394085, Note_off_c, 0, 72, 64
3, 394322, Note_on_c, 0, 69, 97
3, 394325, Note_off_c, 0, 71, 64
3, 394562, Note_on_c, 0, 71, 97
3, 394565, Note_off_c, 0, 69, 64
3, 394682, Note_on_c, 0, 67, 97
3, 394685, Note_off_c, 0, 71, 64
3, 394802, Note_on_c, 0, 71, 97
3, 394805, Note_off_c, 0, 67, 64
3, 394922, Note_on_c, 0, 74, 97
3, 394925, Note_off_c, 0, 71, 64
3, 395042, Note_on_c, 0, 72, 97
3, 395045, Note_off_c, 0, 74, 64
3, 395282, Note_on_c, 0, 71, 97
3, 395285, Note_off_c, 0, 72, 64
3, 395522, Note_on_c, 0, 69, 97
3, 395525, Note_off_c, 0, 71, 64
3, 395762, Note_on_c, 0, 62, 97
3, 395765, Note_off_c, 0, 69, 64
3, 396005, Note_off_c, 0, 62, 64
3, 396122, Note_on_c, 0, 62, 97
3, 396242, Note_on_c, 0, 66, 97
3, 396245, Note_off_c, 0, 62, 64
3, 396362, Note_on_c, 0, 69, 97
3, 396365, Note_off_c, 0, 66, 64
3, 396482, Note_on_c, 0, 72, 97
3, 396485, Note_off_c, 0, 69, 64
3, 396602, Note_on_c, 0, 71, 97
3, 396605, Note_off_c, 0, 72, 64
3, 396722, Note_on_c, 0, 72, 97
3, 396725, Note_off_c, 0, 71, 64
3, 396965, Note_off_c, 0, 72, 64
3, 397082, Note_on_c, 0, 62, 97
3, 397202, Note_on_c, 0, 66, 97
3, 397205, Note_off_c, 0, 62, 64
3, 397322, Note_on_c, 0, 69, 97
3, 397325, Note_off_c, 0, 66, 64
3, 397442, Note_on_c, 0, 72, 97
3, 397445, Note_off_c, 0, 69, 64
3, 397562, Note_on_c, 0, 71, 97
3, 397565, Note_off_c, 0, 72, 64
3, 397682, Note_on_c, 0, 72, 97
3, 397685, Note_off_c, 0, 71, 64
3, 397925, Note_off_c, 0, 72, 64
3, 398522, Note_on_c, 0, 66, 97
3, 398642, Note_on_c, 0, 69, 97
3, 398645, Note_off_c, 0, 66, 64
3, 398762, Note_on_c, 0, 74, 97
3, 398765, Note_off_c, 0, 69, 64
3, 398882, Note_on_c, 0, 78, 97
3, 398885, Note_off_c, 0, 74, 64
3, 399002, Note_on_c, 0, 81, 97
3, 399005, Note_off_c, 0, 78, 64
3, 399122, Note_on_c, 0, 79, 97
3, 399125, Note_off_c, 0, 81, 64
3, 399242, Note_on_c, 0, 78, 97
3, 399245, Note_off_c, 0, 79, 64
3, 399362, Note_on_c, 0, 79, 97
3, 399365, Note_off_c, 0, 78, 64
3, 399602, Note_on_c, 0, 62, 97
3, 399605, Note_off_c, 0, 79, 64
3, 399842, Note_on_c, 0, 67, 97
3, 399845, Note_off_c, 0, 62, 64
3, 400562, Note_on_c, 0, 66, 97
3, 400565, Note_off_c, 0, 67, 64
3, 400682, Note_on_c, 0, 64, 97
3, 400685, Note_off_c, 0, 66, 64
3, 400802, Note_on_c, 0, 66, 97
3, 400805, Note_off_c, 0, 64, 64
3, 400862, Note_on_c, 0, 67, 97
3, 400865, Note_off_c, 0, 66, 64
3, 400922, Note_on_c, 0, 66, 97
3, 400925, Note_off_c, 0, 67, 64
3, 401162, Note_on_c, 0, 64, 97
3, 401165, Note_off_c, 0, 66, 64
3, 401222, Note_on_c, 0, 66, 97
3, 401225, Note_off_c, 0, 64, 64
3, 401282, Note_on_c, 0, 67, 97
3, 401285, Note_off_c, 0, 66, 64
3, 401765, Note_off_c, 0, 67, 64
3, 402242, Note_on_c, 0, 62, 97
3, 402842, Note_on_c, 0, 61, 97
3, 402845, Note_off_c, 0, 62, 64
3, 402962, Note_on_c, 0, 59, 97
3, 402965, Note_off_c, 0, 61, 64
3, 403082, Note_on_c, 0, 64, 97
3, 403085, Note_off_c, 0, 59, 64
3, 403202, Note_on_c, 0, 57, 97
3, 403205, Note_off_c, 0, 64, 64
3, 403442, Note_on_c, 0, 64, 97
3, 403445, Note_off_c, 0, 57, 64
3, 403502, Note_on_c, 0, 66, 97
3, 403505, Note_off_c, 0, 64, 64
3, 403562, Note_on_c, 0, 67, 97
3, 403565, Note_off_c, 0, 66, 64
3, 403682, Note_on_c, 0, 66, 97
3, 403685, Note_off_c, 0, 67, 64
3, 403922, Note_on_c, 0, 64, 97
3, 403925, Note_off_c, 0, 66, 64
3, 403982, Note_on_c, 0, 66, 97
3, 403985, Note_off_c, 0, 64, 64
3, 404042, Note_on_c, 0, 64, 97
3, 404045, Note_off_c, 0, 66, 64
3, 404162, Note_on_c, 0, 66, 97
3, 404165, Note_off_c, 0, 64, 64
3, 404282, Note_on_c, 0, 62, 97
3, 404285, Note_off_c, 0, 66, 64
3, 404402, Note_on_c, 0, 66, 97
3, 404405, Note_off_c, 0, 62, 64
3, 404522, Note_on_c, 0, 69, 97
3, 404525, Note_off_c, 0, 66, 64
3, 404642, Note_on_c, 0, 67, 97
3, 404645, Note_off_c, 0, 69, 64
3, 404882, Note_on_c, 0, 66, 97
3, 404885, Note_off_c, 0, 67, 64
3, 405122, Note_on_c, 0, 64, 97
3, 405125, Note_off_c, 0, 66, 64
3, 405362, Note_on_c, 0, 57, 97
3, 405365, Note_off_c, 0, 64, 64
3, 405605, Note_off_c, 0, 57, 64
3, 405722, Note_on_c, 0, 69, 97
3, 405842, Note_on_c, 0, 73, 97
3, 405845, Note_off_c, 0, 69, 64
3, 405962, Note_on_c, 0, 76, 97
3, 405965, Note_off_c, 0, 73, 64
3, 406082, Note_on_c, 0, 79, 97
3, 406085, Note_off_c, 0, 76, 64
3, 406202, Note_on_c, 0, 78, 97
3, 406205, Note_off_c, 0, 79, 64
3, 406322, Note_on_c, 0, 79, 97
3, 406325, Note_off_c, 0, 78, 64
3, 406565, Note_off_c, 0, 79, 64
3, 406682, Note_on_c, 0, 69, 97
3, 406802, Note_on_c, 0, 73, 97
3, 406805, Note_off_c, 0, 69, 64
3, 406922, Note_on_c, 0, 76, 97
3, 406925, Note_off_c, 0, 73, 64
3, 407042, Note_on_c, 0, 79, 97
3, 407045, Note_off_c, 0, 76, 64
3, 407162, Note_on_c, 0, 78, 97
3, 407165, Note_off_c, 0, 79, 64
3, 407282, Note_on_c, 0, 79, 97
3, 407285, Note_off_c, 0, 78, 64
3, 407525, Note_off_c, 0, 79, 64
3, 408122, Note_on_c, 0, 61, 97
3, 408242, Note_on_c, 0, 64, 97
3, 408245, Note_off_c, 0, 61, 64
3, 408362, Note_on_c, 0, 67, 97
3, 408365, Note_off_c, 0, 64, 64
3, 408482, Note_on_c, 0, 73, 97
3, 408485, Note_off_c, 0, 67, 64
3, 408602, Note_on_c, 0, 76, 97
3, 408605, Note_off_c, 0, 73, 64
3, 408722, Note_on_c, 0, 74, 97
3, 408725, Note_off_c, 0, 76, 64
3, 408842, Note_on_c, 0, 73, 97
3, 408845, Note_off_c, 0, 74, 64
3, 408962, Note_on_c, 0, 74, 97
3, 408965, Note_off_c, 0, 73, 64
3, 409082, Note_on_c, 0, 57, 97
3, 409085, Note_off_c, 0, 74, 64
3, 409202, Note_on_c, 0, 62, 97
3, 409205, Note_off_c, 0, 57, 64
3, 409322, Note_on_c, 0, 66, 97
3, 409325, Note_off_c, 0, 62, 64
3, 409442, Note_on_c, 0, 69, 97
3, 409445, Note_off_c, 0, 66, 64
3, 409562, Note_on_c, 0, 67, 97
3, 409565, Note_off_c, 0, 69, 64
3, 409682, Note_on_c, 0, 69, 97
3, 409685, Note_off_c, 0, 67, 64
3, 409925, Note_off_c, 0, 69, 64
3, 410042, Note_on_c, 0, 59, 97
3, 410162, Note_on_c, 0, 63, 97
3, 410165, Note_off_c, 0, 59, 64
3, 410282, Note_on_c, 0, 66, 97
3, 410285, Note_off_c, 0, 63, 64
3, 410402, Note_on_c, 0, 69, 97
3, 410405, Note_off_c, 0, 66, 64
3, 410522, Note_on_c, 0, 67, 97
3, 410525, Note_off_c, 0, 69, 64
3, 410642, Note_on_c, 0, 69, 97
3, 410645, Note_off_c, 0, 67, 64
3, 410885, Note_off_c, 0, 69, 64
3, 411002, Note_on_c, 0, 59, 97
3, 411122, Note_on_c, 0, 63, 97
3, 411125, Note_off_c, 0, 59, 64
3, 411242, Note_on_c, 0, 66, 97
3, 411245, Note_off_c, 0, 63, 64
3, 411362, Note_on_c, 0, 69, 97
3, 411365, Note_off_c, 0, 66, 64
3, 411482, Note_on_c, 0, 67, 97
3, 411485, Note_off_c, 0, 69, 64
3, 411602, Note_on_c, 0, 66, 97
3, 411605, Note_off_c, 0, 67, 64
3, 411722, Note_on_c, 0, 64, 97
3, 411725, Note_off_c, 0, 66, 64
3, 411842, Note_on_c, 0, 63, 97
3, 411845, Note_off_c, 0, 64, 64
3, 411962, Note_on_c, 0, 59, 97
3, 411965, Note_off_c, 0, 63, 64
3, 412082, Note_on_c, 0, 63, 97
3, 412085, Note_off_c, 0, 59, 64
3, 412202, Note_on_c, 0, 66, 97
3, 412205, Note_off_c, 0, 63, 64
3, 412322, Note_on_c, 0, 71, 97
3, 412325, Note_off_c, 0, 66, 64
3, 412442, Note_on_c, 0, 69, 97
3, 412445, Note_off_c, 0, 71, 64
3, 412562, Note_on_c, 0, 67, 97
3, 412565, Note_off_c, 0, 69, 64
3, 412682, Note_on_c, 0, 66, 97
3, 412685, Note_off_c, 0, 67, 64
3, 412802, Note_on_c, 0, 67, 97
3, 412805, Note_off_c, 0, 66, 64
3, 412922, Note_on_c, 0, 64, 97
3, 412925, Note_off_c, 0, 67, 64
3, 413042, Note_on_c, 0, 67, 97
3, 413045, Note_off_c, 0, 64, 64
3, 413162, Note_on_c, 0, 71, 97
3, 413165, Note_off_c, 0, 67, 64
3, 413282, Note_on_c, 0, 69, 97
3, 413285, Note_off_c, 0, 71, 64
3, 413522, Note_on_c, 0, 67, 97
3, 413525, Note_off_c, 0, 69, 64
3, 413762, Note_on_c, 0, 66, 97
3, 413765, Note_off_c, 0, 67, 64
3, 414002, Note_on_c, 0, 69, 97
3, 414005, Note_off_c, 0, 66, 64
3, 414242, Note_on_c, 0, 74, 97
3, 414245, Note_off_c, 0, 69, 64
3, 414842, Note_on_c, 0, 71, 97
3, 414845, Note_off_c, 0, 74, 64
3, 414962, Note_on_c, 0, 72, 97
3, 414965, Note_off_c, 0, 71, 64
3, 415082, Note_on_c, 0, 76, 97
3, 415085, Note_off_c, 0, 72, 64
3, 415202, Note_on_c, 0, 74, 97
3, 415205, Note_off_c, 0, 76, 64
3, 415442, Note_on_c, 0, 72, 97
3, 415445, Note_off_c, 0, 74, 64
3, 415682, Note_on_c, 0, 71, 97
3, 415685, Note_off_c, 0, 72, 64
3, 415802, Note_on_c, 0, 69, 97
3, 415805, Note_off_c, 0, 71, 64
3, 415922, Note_on_c, 0, 71, 97
3, 415925, Note_off_c, 0, 69, 64
3, 416042, Note_on_c, 0, 74, 97
3, 416045, Note_off_c, 0, 71, 64
3, 416162, Note_on_c, 0, 72, 97
3, 416165, Note_off_c, 0, 74, 64
3, 416402, Note_on_c, 0, 71, 97
3, 416405, Note_off_c, 0, 72, 64
3, 416642, Note_on_c, 0, 71, 97
3, 416645, Note_off_c, 0, 71, 64
3, 416702, Note_on_c, 0, 72, 97
3, 416705, Note_off_c, 0, 71, 64
3, 416762, Note_on_c, 0, 71, 97
3, 416765, Note_off_c, 0, 72, 64
3, 416882, Note_on_c, 0, 69, 97
3, 416885, Note_off_c, 0, 71, 64
3, 417125, Note_off_c, 0, 69, 64
3, 417242, Note_on_c, 0, 69, 97
3, 417362, Note_on_c, 0, 74, 97
3, 417365, Note_off_c, 0, 69, 64
3, 417482, Note_on_c, 0, 78, 97
3, 417485, Note_off_c, 0, 74, 64
3, 417602, Note_on_c, 0, 79, 97
3, 417605, Note_off_c, 0, 78, 64
3, 417722, Note_on_c, 0, 81, 97
3, 417725, Note_off_c, 0, 79, 64
3, 417842, Note_on_c, 0, 79, 97
3, 417845, Note_off_c, 0, 81, 64
3, 417962, Note_on_c, 0, 78, 97
3, 417965, Note_off_c, 0, 79, 64
3, 418082, Note_on_c, 0, 76, 97
3, 418085, Note_off_c, 0, 78, 64
3, 418202, Note_on_c, 0, 74, 97
3, 418205, Note_off_c, 0, 76, 64
3, 418322, Note_on_c, 0, 72, 97
3, 418325, Note_off_c, 0, 74, 64
3, 418442, Note_on_c, 0, 71, 97
3, 418445, Note_off_c, 0, 72, 64
3, 418562, Note_on_c, 0, 69, 97
3, 418565, Note_off_c, 0, 71, 64
3, 418682, Note_on_c, 0, 67, 97
3, 418685, Note_off_c, 0, 69, 64
3, 418802, Note_on_c, 0, 69, 97
3, 418805, Note_off_c, 0, 67, 64
3, 418922, Note_on_c, 0, 71, 97
3, 418925, Note_off_c, 0, 69, 64
3, 419042, Note_on_c, 0, 72, 97
3, 419045, Note_off_c, 0, 71, 64
3, 419162, Note_on_c, 0, 74, 97
3, 419165, Note_off_c, 0, 72, 64
3, 419282, Note_on_c, 0, 76, 97
3, 419285, Note_off_c, 0, 74, 64
3, 419402, Note_on_c, 0, 78, 97
3, 419405, Note_off_c, 0, 76, 64
3, 419522, Note_on_c, 0, 79, 97
3, 419525, Note_off_c, 0, 78, 64
3, 419762, Note_on_c, 0, 74, 97
3, 419765, Note_off_c, 0, 79, 64
3, 420002, Note_on_c, 0, 79, 97
3, 420005, Note_off_c, 0, 74, 64
3, 420722, Note_on_c, 0, 78, 97
3, 420725, Note_off_c, 0, 79, 64
3, 420842, Note_on_c, 0, 76, 97
3, 420845, Note_off_c, 0, 78, 64
3, 420962, Note_on_c, 0, 74, 97
3, 420965, Note_off_c, 0, 76, 64
3, 421082, Note_on_c, 0, 72, 97
3, 421085, Note_off_c, 0, 74, 64
3, 421202, Note_on_c, 0, 71, 97
3, 421205, Note_off_c, 0, 72, 64
3, 421322, Note_on_c, 0, 69, 97
3, 421325, Note_off_c, 0, 71, 64
3, 421442, Note_on_c, 0, 67, 97
3, 421445, Note_off_c, 0, 69, 64
3, 421562, Note_on_c, 0, 66, 97
3, 421565, Note_off_c, 0, 67, 64
3, 421682, Note_on_c, 0, 67, 97
3, 421685, Note_off_c, 0, 66, 64
3, 421802, Note_on_c, 0, 71, 97
3, 421805, Note_off_c, 0, 67, 64
3, 421922, Note_on_c, 0, 76, 97
3, 421925, Note_off_c, 0, 71, 64
3, 422642, Note_on_c, 0, 75, 97
3, 422645, Note_off_c, 0, 76, 64
3, 422885, Note_off_c, 0, 75, 64
3, 423122, Note_on_c, 0, 69, 97
3, 423482, Note_on_c, 0, 66, 97
3, 423485, Note_off_c, 0, 69, 64
3, 423602, Note_on_c, 0, 67, 97
3, 423605, Note_off_c, 0, 66, 64
3, 423722, Note_on_c, 0, 69, 97
3, 423725, Note_off_c, 0, 67, 64
3, 423842, Note_on_c, 0, 71, 97
3, 423845, Note_off_c, 0, 69, 64
3, 423962, Note_on_c, 0, 74, 97
3, 423965, Note_off_c, 0, 71, 64
3, 424082, Note_on_c, 0, 72, 97
3, 424085, Note_off_c, 0, 74, 64
3, 424202, Note_on_c, 0, 71, 97
3, 424205, Note_off_c, 0, 72, 64
3, 424322, Note_on_c, 0, 69, 97
3, 424325, Note_off_c, 0, 71, 64
3, 424442, Note_on_c, 0, 67, 97
3, 424445, Note_off_c, 0, 69, 64
3, 424562, Note_on_c, 0, 66, 97
3, 424565, Note_off_c, 0, 67, 64
3, 424682, Note_on_c, 0, 64, 97
3, 424685, Note_off_c, 0, 66, 64
3, 424802, Note_on_c, 0, 62, 97
3, 424805, Note_off_c, 0, 64, 64
3, 425042, Note_on_c, 0, 74, 97
3, 425045, Note_off_c, 0, 62, 64
3, 425402, Note_on_c, 0, 67, 97
3, 425405, Note_off_c, 0, 74, 64
3, 425522, Note_on_c, 0, 72, 97
3, 425525, Note_off_c, 0, 67, 64
3, 425642, Note_on_c, 0, 71, 97
3, 425645, Note_off_c, 0, 72, 64
3, 425762, Note_on_c, 0, 69, 97
3, 425765, Note_off_c, 0, 71, 64
3, 425882, Note_on_c, 0, 67, 97
3, 425885, Note_off_c, 0, 69, 64
3, 426002, Note_on_c, 0, 65, 97
3, 426005, Note_off_c, 0, 67, 64
3, 426122, Note_on_c, 0, 64, 97
3, 426125, Note_off_c, 0, 65, 64
3, 426242, Note_on_c, 0, 62, 97
3, 426245, Note_off_c, 0, 64, 64
3, 426362, Note_on_c, 0, 60, 97
3, 426365, Note_off_c, 0, 62, 64
3, 426482, Note_on_c, 0, 62, 97
3, 426485, Note_off_c, 0, 60, 64
3, 426602, Note_on_c, 0, 64, 97
3, 426605, Note_off_c, 0, 62, 64
3, 426722, Note_on_c, 0, 65, 97
3, 426725, Note_off_c, 0, 64, 64
3, 426842, Note_on_c, 0, 67, 97
3, 426845, Note_off_c, 0, 65, 64
3, 426962, Note_on_c, 0, 69, 97
3, 426965, Note_off_c, 0, 67, 64
3, 427082, Note_on_c, 0, 71, 97
3, 427085, Note_off_c, 0, 69, 64
3, 427202, Note_on_c, 0, 72, 97
3, 427205, Note_off_c, 0, 71, 64
3, 427442, Note_on_c, 0, 67, 97
3, 427445, Note_off_c, 0, 72, 64
3, 427682, Note_on_c, 0, 72, 97
3, 427685, Note_off_c, 0, 67, 64
3, 428282, Note_on_c, 0, 71, 97
3, 428285, Note_off_c, 0, 72, 64
3, 428402, Note_on_c, 0, 69, 97
3, 428405, Note_off_c, 0, 71, 64
3, 428522, Note_on_c, 0, 71, 97
3, 428525, Note_off_c, 0, 69, 64
3, 428642, Note_on_c, 0, 72, 97
3, 428645, Note_off_c, 0, 71, 64
3, 428762, Note_on_c, 0, 76, 97
3, 428765, Note_off_c, 0, 72, 64
3, 428882, Note_on_c, 0, 74, 97
3, 428885, Note_off_c, 0, 76, 64
3, 429002, Note_on_c, 0, 72, 97
3, 429005, Note_off_c, 0, 74, 64
3, 429122, Note_on_c, 0, 71, 97
3, 429125, Note_off_c, 0, 72, 64
3, 429242, Note_on_c, 0, 67, 97
3, 429245, Note_off_c, 0, 71, 64
3, 429362, Note_on_c, 0, 69, 97
3, 429365, Note_off_c, 0, 67, 64
3, 429482, Note_on_c, 0, 71, 97
3, 429485, Note_off_c, 0, 69, 64
3, 429602, Note_on_c, 0, 72, 97
3, 429605, Note_off_c, 0, 71, 64
3, 429722, Note_on_c, 0, 74, 97
3, 429725, Note_off_c, 0, 72, 64
3, 429842, Note_on_c, 0, 76, 97
3, 429845, Note_off_c, 0, 74, 64
3, 429962, Note_on_c, 0, 78, 97
3, 429965, Note_off_c, 0, 76, 64
3, 430082, Note_on_c, 0, 79, 97
3, 430085, Note_off_c, 0, 78, 64
3, 430325, Note_off_c, 0, 79, 64
3, 431042, Note_on_c, 0, 67, 97
3, 431642, Note_on_c, 0, 66, 97
3, 431645, Note_off_c, 0, 67, 64
3, 431762, Note_on_c, 0, 64, 97
3, 431765, Note_off_c, 0, 66, 64
3, 431882, Note_on_c, 0, 69, 97
3, 431885, Note_off_c, 0, 64, 64
3, 432002, Note_on_c, 0, 62, 97
3, 432005, Note_off_c, 0, 69, 64
3, 432242, Note_on_c, 0, 69, 97
3, 432245, Note_off_c, 0, 62, 64
3, 432302, Note_on_c, 0, 71, 97
3, 432305, Note_off_c, 0, 69, 64
3, 432362, Note_on_c, 0, 72, 97
3, 432365, Note_off_c, 0, 71, 64
3, 432482, Note_on_c, 0, 71, 97
3, 432485, Note_off_c, 0, 72, 64
3, 432722, Note_on_c, 0, 69, 97
3, 432725, Note_off_c, 0, 71, 64
3, 432782, Note_on_c, 0, 71, 97
3, 432785, Note_off_c, 0, 69, 64
3, 432842, Note_on_c, 0, 69, 97
3, 432845, Note_off_c, 0, 71, 64
3, 432962, Note_on_c, 0, 71, 97
3, 432965, Note_off_c, 0, 69, 64
3, 433082, Note_on_c, 0, 67, 97
3, 433085, Note_off_c, 0, 71, 64
3, 433202, Note_on_c, 0, 71, 97
3, 433205, Note_off_c, 0, 67, 64
3, 433322, Note_on_c, 0, 74, 97
3, 433325, Note_off_c, 0, 71, 64
3, 433442, Note_on_c, 0, 72, 97
3, 433445, Note_off_c, 0, 74, 64
3, 434042, Note_on_c, 0, 69, 97
3, 434045, Note_off_c, 0, 72, 64
3, 434162, Note_on_c, 0, 72, 97
3, 434165, Note_off_c, 0, 69, 64
3, 434282, Note_on_c, 0, 76, 97
3, 434285, Note_off_c, 0, 72, 64
3, 434402, Note_on_c, 0, 74, 97
3, 434405, Note_off_c, 0, 76, 64
3, 435002, Note_on_c, 0, 71, 97
3, 435005, Note_off_c, 0, 74, 64
3, 435122, Note_on_c, 0, 74, 97
3, 435125, Note_off_c, 0, 71, 64
3, 435242, Note_on_c, 0, 77, 97
3, 435245, Note_off_c, 0, 74, 64
3, 435362, Note_on_c, 0, 76, 97
3, 435365, Note_off_c, 0, 77, 64
3, 435482, Note_on_c, 0, 74, 97
3, 435485, Note_off_c, 0, 76, 64
3, 435602, Note_on_c, 0, 72, 97
3, 435605, Note_off_c, 0, 74, 64
3, 435722, Note_on_c, 0, 71, 97
3, 435725, Note_off_c, 0, 72, 64
3, 435842, Note_on_c, 0, 69, 97
3, 435845, Note_off_c, 0, 71, 64
3, 435962, Note_on_c, 0, 66, 97
3, 435965, Note_off_c, 0, 69, 64
3, 436082, Note_on_c, 0, 69, 97
3, 436085, Note_off_c, 0, 66, 64
3, 436202, Note_on_c, 0, 72, 97
3, 436205, Note_off_c, 0, 69, 64
3, 436322, Note_on_c, 0, 71, 97
3, 436325, Note_off_c, 0, 72, 64
3, 436442, Note_on_c, 0, 69, 97
3, 436445, Note_off_c, 0, 71, 64
3, 436562, Note_on_c, 0, 67, 97
3, 436565, Note_off_c, 0, 69, 64
3, 436682, Note_on_c, 0, 66, 97
3, 436685, Note_off_c, 0, 67, 64
3, 436802, Note_on_c, 0, 67, 97
3, 436805, Note_off_c, 0, 66, 64
3, 437042, Note_on_c, 0, 59, 97
3, 437045, Note_off_c, 0, 67, 64
3, 437282, Note_on_c, 0, 57, 97
3, 437285, Note_off_c, 0, 59, 64
3, 437522, Note_on_c, 0, 66, 97
3, 437525, Note_off_c, 0, 57, 64
3, 437762, Note_on_c, 0, 67, 97
3, 437765, Note_off_c, 0, 66, 64
3, 438725, Note_off_c, 0, 67, 64
3, 438848, End_track
4, 0, Start_track
4, 0, Title_t, "Track 3"
4, 0, Note_on_c, 0, 55, 97
4, 240, Note_off_c, 0, 55, 64
4, 240, Note_on_c, 0, 54, 97
4, 480, Note_off_c, 0, 54, 64
4, 480, Note_on_c, 0, 55, 97
4, 720, Note_off_c, 0, 55, 64
4, 720, Note_on_c, 0, 57, 97
4, 960, Note_off_c, 0, 57, 64
4, 960, Note_on_c, 0, 59, 97
4, 1200, Note_off_c, 0, 59, 64
4, 1200, Note_on_c, 0, 57, 97
4, 1440, Note_off_c, 0, 57, 64
4, 1440, Note_on_c, 0, 59, 97
4, 1680, Note_off_c, 0, 59, 64
4, 1680, Note_on_c, 0, 60, 97
4, 1920, Note_off_c, 0, 60, 64
4, 1920, Note_on_c, 0, 62, 97
4, 2400, Note_off_c, 0, 62, 64
4, 2400, Note_on_c, 0, 50, 97
4, 2880, Note_off_c, 0, 50, 64
4, 2880, Note_on_c, 0, 43, 97
4, 3120, Note_off_c, 0, 43, 64
4, 3120, Note_on_c, 0, 59, 97
4, 3360, Note_off_c, 0, 59, 64
4, 3360, Note_on_c, 0, 57, 97
4, 3600, Note_off_c, 0, 57, 64
4, 3600, Note_on_c, 0, 55, 97
4, 3840, Note_off_c, 0, 55, 64
4, 3840, Note_on_c, 0, 54, 97
4, 4080, Note_off_c, 0, 54, 64
4, 4080, Note_on_c, 0, 52, 97
4, 4320, Note_off_c, 0, 52, 64
4, 4320, Note_on_c, 0, 50, 97
4, 4560, Note_off_c, 0, 50, 64
4, 4560, Note_on_c, 0, 52, 97
4, 4800, Note_off_c, 0, 52, 64
4, 4800, Note_on_c, 0, 54, 97
4, 5040, Note_off_c, 0, 54, 64
4, 5040, Note_on_c, 0, 52, 97
4, 5280, Note_off_c, 0, 52, 64
4, 5280, Note_on_c, 0, 54, 97
4, 5520, Note_off_c, 0, 54, 64
4, 5520, Note_on_c, 0, 55, 97
4, 5760, Note_off_c, 0, 55, 64
4, 5760, Note_on_c, 0, 57, 97
4, 6240, Note_off_c, 0, 57, 64
4, 6240, Note_on_c, 0, 45, 97
4, 6720, Note_off_c, 0, 45, 64
4, 6720, Note_on_c, 0, 38, 97
4, 6960, Note_off_c, 0, 38, 64
4, 6960, Note_on_c, 0, 50, 97
4, 7200, Note_off_c, 0, 50, 64
4, 7200, Note_on_c, 0, 54, 97
4, 7440, Note_off_c, 0, 54, 64
4, 7440, Note_on_c, 0, 57, 97
4, 7680, Note_off_c, 0, 57, 64
4, 7680, Note_on_c, 0, 60, 97
4, 8160, Note_off_c, 0, 60, 64
4, 8400, Note_on_c, 0, 50, 97
4, 8640, Note_off_c, 0, 50, 64
4, 8640, Note_on_c, 0, 59, 97
4, 9120, Note_off_c, 0, 59, 64
4, 9360, Note_on_c, 0, 50, 97
4, 9600, Note_off_c, 0, 50, 64
4, 9600, Note_on_c, 0, 57, 97
4, 9840, Note_off_c, 0, 57, 64
4, 9840, Note_on_c, 0, 55, 97
4, 10080, Note_off_c, 0, 55, 64
4, 10080, Note_on_c, 0, 54, 97
4, 10320, Note_off_c, 0, 54, 64
4, 10320, Note_on_c, 0, 52, 97
4, 10560, Note_off_c, 0, 52, 64
4, 10560, Note_on_c, 0, 50, 97
4, 10800, Note_off_c, 0, 50, 64
4, 10800, Note_on_c, 0, 48, 97
4, 11040, Note_off_c, 0, 48, 64
4, 11040, Note_on_c, 0, 47, 97
4, 11280, Note_off_c, 0, 47, 64
4, 11280, Note_on_c, 0, 45, 97
4, 11520, Note_off_c, 0, 45, 64
4, 11520, Note_on_c, 0, 43, 97
4, 12000, Note_off_c, 0, 43, 64
4, 12480, Note_on_c, 0, 42, 97
4, 12960, Note_off_c, 0, 42, 64
4, 13440, Note_on_c, 0, 40, 97
4, 13920, Note_off_c, 0, 40, 64
4, 14400, Note_on_c, 0, 38, 97
4, 14880, Note_off_c, 0, 38, 64
4, 15360, Note_on_c, 0, 36, 97
4, 15840, Note_off_c, 0, 36, 64
4, 15840, Note_on_c, 0, 48, 97
4, 16800, Note_off_c, 0, 48, 64
4, 16800, Note_on_c, 0, 47, 97
4, 17040, Note_off_c, 0, 47, 64
4, 17040, Note_on_c, 0, 48, 97
4, 17280, Note_off_c, 0, 48, 64
4, 17280, Note_on_c, 0, 50, 97
4, 17760, Note_off_c, 0, 50, 64
4, 17760, Note_on_c, 0, 38, 97
4, 18240, Note_off_c, 0, 38, 64
4, 18240, Note_on_c, 0, 43, 97
4, 18480, Note_off_c, 0, 43, 64
4, 18480, Note_on_c, 0, 60, 97
4, 18720, Note_off_c, 0, 60, 64
4, 18720, Note_on_c, 0, 59, 97
4, 18960, Note_off_c, 0, 59, 64
4, 18960, Note_on_c, 0, 57, 97
4, 19200, Note_off_c, 0, 57, 64
4, 19200, Note_on_c, 0, 55, 97
4, 19680, Note_off_c, 0, 55, 64
4, 20400, Note_on_c, 0, 55, 97
4, 20640, Note_off_c, 0, 55, 64
4, 20640, Note_on_c, 0, 55, 97
4, 20880, Note_off_c, 0, 55, 64
4, 20880, Note_on_c, 0, 55, 97
4, 21120, Note_off_c, 0, 55, 64
4, 21120, Note_on_c, 0, 43, 97
4, 21600, Note_off_c, 0, 43, 64
4, 22320, Note_on_c, 0, 55, 97
4, 22560, Note_off_c, 0, 55, 64
4, 22560, Note_on_c, 0, 55, 97
4, 22800, Note_off_c, 0, 55, 64
4, 22800, Note_on_c, 0, 55, 97
4, 23040, Note_off_c, 0, 55, 64
4, 23040, Note_on_c, 0, 43, 97
4, 23520, Note_off_c, 0, 43, 64
4, 24240, Note_on_c, 0, 55, 97
4, 24480, Note_off_c, 0, 55, 64
4, 24480, Note_on_c, 0, 55, 97
4, 24720, Note_off_c, 0, 55, 64
4, 24720, Note_on_c, 0, 55, 97
4, 24960, Note_off_c, 0, 55, 64
4, 24960, Note_on_c, 0, 43, 97
4, 25200, Note_off_c, 0, 43, 64
4, 25200, Note_on_c, 0, 47, 97
4, 25440, Note_off_c, 0, 47, 64
4, 25440, Note_on_c, 0, 43, 97
4, 25680, Note_off_c, 0, 43, 64
4, 25680, Note_on_c, 0, 47, 97
4, 25920, Note_off_c, 0, 47, 64
4, 25920, Note_on_c, 0, 50, 97
4, 26160, Note_off_c, 0, 50, 64
4, 26160, Note_on_c, 0, 43, 97
4, 26400, Note_off_c, 0, 43, 64
4, 26400, Note_on_c, 0, 42, 97
4, 26640, Note_off_c, 0, 42, 64
4, 26640, Note_on_c, 0, 40, 97
4, 26880, Note_off_c, 0, 40, 64
4, 26880, Note_on_c, 0, 38, 97
4, 27360, Note_off_c, 0, 38, 64
4, 28080, Note_on_c, 0, 50, 97
4, 28320, Note_off_c, 0, 50, 64
4, 28320, Note_on_c, 0, 50, 97
4, 28560, Note_off_c, 0, 50, 64
4, 28560, Note_on_c, 0, 50, 97
4, 28800, Note_off_c, 0, 50, 64
4, 28800, Note_on_c, 0, 38, 97
4, 29280, Note_off_c, 0, 38, 64
4, 30000, Note_on_c, 0, 50, 97
4, 30240, Note_off_c, 0, 50, 64
4, 30240, Note_on_c, 0, 50, 97
4, 30480, Note_off_c, 0, 50, 64
4, 30480, Note_on_c, 0, 50, 97
4, 30720, Note_off_c, 0, 50, 64
4, 30720, Note_on_c, 0, 38, 97
4, 31200, Note_off_c, 0, 38, 64
4, 31920, Note_on_c, 0, 50, 97
4, 32160, Note_off_c, 0, 50, 64
4, 32160, Note_on_c, 0, 50, 97
4, 32400, Note_off_c, 0, 50, 64
4, 32400, Note_on_c, 0, 50, 97
4, 32640, Note_off_c, 0, 50, 64
4, 32640, Note_on_c, 0, 38, 97
4, 32880, Note_off_c, 0, 38, 64
4, 32880, Note_on_c, 0, 54, 97
4, 33120, Note_off_c, 0, 54, 64
4, 33120, Note_on_c, 0, 50, 97
4, 33360, Note_off_c, 0, 50, 64
4, 33360, Note_on_c, 0, 54, 97
4, 33600, Note_off_c, 0, 54, 64
4, 33600, Note_on_c, 0, 57, 97
4, 33840, Note_off_c, 0, 57, 64
4, 33840, Note_on_c, 0, 45, 97
4, 34080, Note_off_c, 0, 45, 64
4, 34080, Note_on_c, 0, 49, 97
4, 34320, Note_off_c, 0, 49, 64
4, 34320, Note_on_c, 0, 52, 97
4, 34560, Note_off_c, 0, 52, 64
4, 34560, Note_on_c, 0, 57, 97
4, 35040, Note_off_c, 0, 57, 64
4, 35520, Note_on_c, 0, 55, 97
4, 36000, Note_off_c, 0, 55, 64
4, 36480, Note_on_c, 0, 54, 97
4, 36960, Note_off_c, 0, 54, 64
4, 37440, Note_on_c, 0, 50, 97
4, 37920, Note_off_c, 0, 50, 64
4, 38400, Note_on_c, 0, 55, 97
4, 38880, Note_off_c, 0, 55, 64
4, 39360, Note_on_c, 0, 54, 97
4, 39840, Note_off_c, 0, 54, 64
4, 40320, Note_on_c, 0, 52, 97
4, 40800, Note_off_c, 0, 52, 64
4, 41280, Note_on_c, 0, 48, 97
4, 41760, Note_off_c, 0, 48, 64
4, 42240, Note_on_c, 0, 54, 97
4, 42720, Note_off_c, 0, 54, 64
4, 43200, Note_on_c, 0, 52, 97
4, 43680, Note_off_c, 0, 52, 64
4, 44160, Note_on_c, 0, 51, 97
4, 44640, Note_off_c, 0, 51, 64
4, 45120, Note_on_c, 0, 47, 97
4, 45600, Note_off_c, 0, 47, 64
4, 46080, Note_on_c, 0, 52, 97
4, 46560, Note_off_c, 0, 52, 64
4, 47040, Note_on_c, 0, 55, 97
4, 47520, Note_off_c, 0, 55, 64
4, 48000, Note_on_c, 0, 59, 97
4, 48480, Note_off_c, 0, 59, 64
4, 48960, Note_on_c, 0, 47, 97
4, 49440, Note_off_c, 0, 47, 64
4, 49920, Note_on_c, 0, 52, 97
4, 50400, Note_off_c, 0, 52, 64
4, 50400, Note_on_c, 0, 50, 97
4, 50880, Note_off_c, 0, 50, 64
4, 50880, Note_on_c, 0, 48, 97
4, 51360, Note_off_c, 0, 48, 64
4, 51360, Note_on_c, 0, 43, 97
4, 51840, Note_off_c, 0, 43, 64
4, 51840, Note_on_c, 0, 45, 97
4, 52320, Note_off_c, 0, 45, 64
4, 52320, Note_on_c, 0, 47, 97
4, 52800, Note_off_c, 0, 47, 64
4, 52800, Note_on_c, 0, 40, 97
4, 53040, Note_off_c, 0, 40, 64
4, 53040, Note_on_c, 0, 52, 97
4, 53280, Note_off_c, 0, 52, 64
4, 53280, Note_on_c, 0, 50, 97
4, 53520, Note_off_c, 0, 50, 64
4, 53520, Note_on_c, 0, 48, 97
4, 53760, Note_off_c, 0, 48, 64
4, 53760, Note_on_c, 0, 47, 97
4, 54000, Note_off_c, 0, 47, 64
4, 54000, Note_on_c, 0, 50, 97
4, 54240, Note_off_c, 0, 50, 64
4, 54240, Note_on_c, 0, 47, 97
4, 54480, Note_off_c, 0, 47, 64
4, 54480, Note_on_c, 0, 43, 97
4, 54720, Note_off_c, 0, 43, 64
4, 54720, Note_on_c, 0, 48, 97
4, 54960, Note_off_c, 0, 48, 64
4, 54960, Note_on_c, 0, 45, 97
4, 55200, Note_off_c, 0, 45, 64
4, 55200, Note_on_c, 0, 47, 97
4, 55440, Note_off_c, 0, 47, 64
4, 55440, Note_on_c, 0, 52, 97
4, 55680, Note_off_c, 0, 52, 64
4, 55680, Note_on_c, 0, 50, 97
4, 55920, Note_off_c, 0, 50, 64
4, 55920, Note_on_c, 0, 48, 97
4, 56160, Note_off_c, 0, 48, 64
4, 56160, Note_on_c, 0, 50, 97
4, 56400, Note_off_c, 0, 50, 64
4, 56400, Note_on_c, 0, 38, 97
4, 56640, Note_off_c, 0, 38, 64
4, 56640, Note_on_c, 0, 43, 97
4, 56880, Note_off_c, 0, 43, 64
4, 56880, Note_on_c, 0, 42, 97
4, 57120, Note_off_c, 0, 42, 64
4, 57120, Note_on_c, 0, 43, 97
4, 57360, Note_off_c, 0, 43, 64
4, 57360, Note_on_c, 0, 40, 97
4, 57600, Note_off_c, 0, 40, 64
4, 57600, Note_on_c, 0, 49, 97
4, 58080, Note_off_c, 0, 49, 64
4, 58320, Note_on_c, 0, 45, 97
4, 58560, Note_off_c, 0, 45, 64
4, 58560, Note_on_c, 0, 54, 97
4, 59040, Note_off_c, 0, 54, 64
4, 59280, Note_on_c, 0, 45, 97
4, 59520, Note_off_c, 0, 45, 64
4, 59520, Note_on_c, 0, 52, 97
4, 59760, Note_off_c, 0, 52, 64
4, 59760, Note_on_c, 0, 50, 97
4, 60000, Note_off_c, 0, 50, 64
4, 60000, Note_on_c, 0, 49, 97
4, 60240, Note_off_c, 0, 49, 64
4, 60240, Note_on_c, 0, 47, 97
4, 60480, Note_off_c, 0, 47, 64
4, 60480, Note_on_c, 0, 45, 97
4, 60720, Note_off_c, 0, 45, 64
4, 60720, Note_on_c, 0, 55, 97
4, 60960, Note_off_c, 0, 55, 64
4, 60960, Note_on_c, 0, 54, 97
4, 61200, Note_off_c, 0, 54, 64
4, 61200, Note_on_c, 0, 52, 97
4, 61440, Note_off_c, 0, 52, 64
4, 61440, Note_on_c, 0, 50, 97
4, 61920, Note_off_c, 0, 50, 64
4, 62400, Note_on_c, 0, 49, 97
4, 62880, Note_off_c, 0, 49, 64
4, 63360, Note_on_c, 0, 47, 97
4, 63840, Note_off_c, 0, 47, 64
4, 64320, Note_on_c, 0, 45, 97
4, 64800, Note_off_c, 0, 45, 64
4, 65280, Note_on_c, 0, 43, 97
4, 65760, Note_off_c, 0, 43, 64
4, 65760, Note_on_c, 0, 55, 97
4, 66720, Note_off_c, 0, 55, 64
4, 66720, Note_on_c, 0, 54, 97
4, 66960, Note_off_c, 0, 54, 64
4, 66960, Note_on_c, 0, 55, 97
4, 67200, Note_off_c, 0, 55, 64
4, 67200, Note_on_c, 0, 57, 97
4, 67680, Note_off_c, 0, 57, 64
4, 67680, Note_on_c, 0, 45, 97
4, 68160, Note_off_c, 0, 45, 64
4, 68160, Note_on_c, 0, 50, 97
4, 68400, Note_off_c, 0, 50, 64
4, 68400, Note_on_c, 0, 49, 97
4, 68640, Note_off_c, 0, 49, 64
4, 68640, Note_on_c, 0, 50, 97
4, 68880, Note_off_c, 0, 50, 64
4, 68880, Note_on_c, 0, 52, 97
4, 69120, Note_off_c, 0, 52, 64
4, 69120, Note_on_c, 0, 54, 97
4, 69240, Note_off_c, 0, 54, 64
4, 69240, Note_on_c, 0, 55, 97
4, 69360, Note_off_c, 0, 55, 64
4, 69360, Note_on_c, 0, 52, 97
4, 69480, Note_off_c, 0, 52, 64
4, 69480, Note_on_c, 0, 54, 97
4, 69600, Note_off_c, 0, 54, 64
4, 69600, Note_on_c, 0, 50, 97
4, 69720, Note_off_c, 0, 50, 64
4, 69720, Note_on_c, 0, 52, 97
4, 69840, Note_off_c, 0, 52, 64
4, 69840, Note_on_c, 0, 49, 97
4, 69960, Note_off_c, 0, 49, 64
4, 69960, Note_on_c, 0, 50, 97
4, 70080, Note_off_c, 0, 50, 64
4, 70080, Note_on_c, 0, 47, 97
4, 70320, Note_off_c, 0, 47, 64
4, 70320, Note_on_c, 0, 55, 97
4, 70560, Note_off_c, 0, 55, 64
4, 70560, Note_on_c, 0, 49, 97
4, 70800, Note_off_c, 0, 49, 64
4, 70800, Note_on_c, 0, 57, 97
4, 71040, Note_off_c, 0, 57, 64
4, 71040, Note_on_c, 0, 50, 97
4, 71280, Note_off_c, 0, 50, 64
4, 71280, Note_on_c, 0, 54, 97
4, 71400, Note_off_c, 0, 54, 64
4, 71400, Note_on_c, 0, 50, 97
4, 71520, Note_off_c, 0, 50, 64
4, 71520, Note_on_c, 0, 57, 97
4, 71640, Note_off_c, 0, 57, 64
4, 71640, Note_on_c, 0, 54, 97
4, 71760, Note_off_c, 0, 54, 64
4, 71760, Note_on_c, 0, 55, 97
4, 71880, Note_off_c, 0, 55, 64
4, 71880, Note_on_c, 0, 52, 97
4, 72000, Note_off_c, 0, 52, 64
4, 72000, Note_on_c, 0, 54, 97
4, 72240, Note_off_c, 0, 54, 64
4, 72240, Note_on_c, 0, 50, 97
4, 72480, Note_off_c, 0, 50, 64
4, 72480, Note_on_c, 0, 56, 97
4, 72720, Note_off_c, 0, 56, 64
4, 72720, Note_on_c, 0, 52, 97
4, 72960, Note_off_c, 0, 52, 64
4, 72960, Note_on_c, 0, 57, 97
4, 73080, Note_off_c, 0, 57, 64
4, 73080, Note_on_c, 0, 45, 97
4, 73200, Note_off_c, 0, 45, 64
4, 73200, Note_on_c, 0, 48, 97
4, 73320, Note_off_c, 0, 48, 64
4, 73320, Note_on_c, 0, 45, 97
4, 73440, Note_off_c, 0, 45, 64
4, 73440, Note_on_c, 0, 52, 97
4, 73560, Note_off_c, 0, 52, 64
4, 73560, Note_on_c, 0, 48, 97
4, 73680, Note_off_c, 0, 48, 64
4, 73680, Note_on_c, 0, 50, 97
4, 73800, Note_off_c, 0, 50, 64
4, 73800, Note_on_c, 0, 47, 97
4, 73920, Note_off_c, 0, 47, 64
4, 73920, Note_on_c, 0, 48, 97
4, 74160, Note_off_c, 0, 48, 64
4, 74160, Note_on_c, 0, 45, 97
4, 74400, Note_off_c, 0, 45, 64
4, 74400, Note_on_c, 0, 51, 97
4, 74640, Note_off_c, 0, 51, 64
4, 74640, Note_on_c, 0, 47, 97
4, 74880, Note_off_c, 0, 47, 64
4, 74880, Note_on_c, 0, 52, 97
4, 75120, Note_off_c, 0, 52, 64
4, 75120, Note_on_c, 0, 55, 97
4, 75240, Note_off_c, 0, 55, 64
4, 75240, Note_on_c, 0, 52, 97
4, 75360, Note_off_c, 0, 52, 64
4, 75360, Note_on_c, 0, 59, 97
4, 75480, Note_off_c, 0, 59, 64
4, 75480, Note_on_c, 0, 55, 97
4, 75600, Note_off_c, 0, 55, 64
4, 75600, Note_on_c, 0, 57, 97
4, 75720, Note_off_c, 0, 57, 64
4, 75720, Note_on_c, 0, 54, 97
4, 75840, Note_off_c, 0, 54, 64
4, 75840, Note_on_c, 0, 55, 97
4, 76080, Note_off_c, 0, 55, 64
4, 76080, Note_on_c, 0, 52, 97
4, 76320, Note_off_c, 0, 52, 64
4, 76320, Note_on_c, 0, 57, 97
4, 77040, Note_off_c, 0, 57, 64
4, 77040, Note_on_c, 0, 54, 97
4, 77280, Note_off_c, 0, 54, 64
4, 77280, Note_on_c, 0, 55, 97
4, 77520, Note_off_c, 0, 55, 64
4, 77520, Note_on_c, 0, 52, 97
4, 77760, Note_off_c, 0, 52, 64
4, 77760, Note_on_c, 0, 60, 97
4, 78000, Note_off_c, 0, 60, 64
4, 78000, Note_on_c, 0, 48, 97
4, 78240, Note_off_c, 0, 48, 64
4, 78240, Note_on_c, 0, 60, 97
4, 78960, Note_off_c, 0, 60, 64
4, 78960, Note_on_c, 0, 51, 97
4, 79200, Note_off_c, 0, 51, 64
4, 79200, Note_on_c, 0, 52, 97
4, 79440, Note_off_c, 0, 52, 64
4, 79440, Note_on_c, 0, 46, 97
4, 79680, Note_off_c, 0, 46, 64
4, 79680, Note_on_c, 0, 47, 97
4, 79920, Note_off_c, 0, 47, 64
4, 79920, Note_on_c, 0, 57, 97
4, 80160, Note_off_c, 0, 57, 64
4, 80160, Note_on_c, 0, 55, 97
4, 80400, Note_off_c, 0, 55, 64
4, 80400, Note_on_c, 0, 54, 97
4, 80640, Note_off_c, 0, 54, 64
4, 80640, Note_on_c, 0, 52, 97
4, 81120, Note_off_c, 0, 52, 64
4, 81600, Note_on_c, 0, 50, 97
4, 82080, Note_off_c, 0, 50, 64
4, 82560, Note_on_c, 0, 49, 97
4, 83040, Note_off_c, 0, 49, 64
4, 83520, Note_on_c, 0, 45, 97
4, 84000, Note_off_c, 0, 45, 64
4, 84480, Note_on_c, 0, 50, 97
4, 84960, Note_off_c, 0, 50, 64
4, 85440, Note_on_c, 0, 49, 97
4, 85920, Note_off_c, 0, 49, 64
4, 86400, Note_on_c, 0, 47, 97
4, 86880, Note_off_c, 0, 47, 64
4, 87360, Note_on_c, 0, 43, 97
4, 87840, Note_off_c, 0, 43, 64
4, 88320, Note_on_c, 0, 49, 97
4, 88800, Note_off_c, 0, 49, 64
4, 89280, Note_on_c, 0, 47, 97
4, 89760, Note_off_c, 0, 47, 64
4, 90240, Note_on_c, 0, 46, 97
4, 90720, Note_off_c, 0, 46, 64
4, 91200, Note_on_c, 0, 42, 97
4, 91680, Note_off_c, 0, 42, 64
4, 92160, Note_on_c, 0, 47, 97
4, 92640, Note_off_c, 0, 47, 64
4, 93120, Note_on_c, 0, 50, 97
4, 93600, Note_off_c, 0, 50, 64
4, 94080, Note_on_c, 0, 54, 97
4, 94560, Note_off_c, 0, 54, 64
4, 95040, Note_on_c, 0, 42, 97
4, 95520, Note_off_c, 0, 42, 64
4, 96000, Note_on_c, 0, 47, 97
4, 96480, Note_off_c, 0, 47, 64
4, 96480, Note_on_c, 0, 45, 97
4, 96960, Note_off_c, 0, 45, 64
4, 96960, Note_on_c, 0, 43, 97
4, 97440, Note_off_c, 0, 43, 64
4, 97440, Note_on_c, 0, 38, 97
4, 97920, Note_off_c, 0, 38, 64
4, 97920, Note_on_c, 0, 40, 97
4, 98400, Note_off_c, 0, 40, 64
4, 98400, Note_on_c, 0, 42, 97
4, 98880, Note_off_c, 0, 42, 64
4, 98880, Note_on_c, 0, 47, 97
4, 99120, Note_off_c, 0, 47, 64
4, 99120, Note_on_c, 0, 59, 97
4, 99360, Note_off_c, 0, 59, 64
4, 99360, Note_on_c, 0, 57, 97
4, 99600, Note_off_c, 0, 57, 64
4, 99600, Note_on_c, 0, 55, 97
4, 99840, Note_off_c, 0, 55, 64
4, 99840, Note_on_c, 0, 54, 97
4, 100080, Note_off_c, 0, 54, 64
4, 100080, Note_on_c, 0, 57, 97
4, 100320, Note_off_c, 0, 57, 64
4, 100320, Note_on_c, 0, 54, 97
4, 100560, Note_off_c, 0, 54, 64
4, 100560, Note_on_c, 0, 50, 97
4, 100800, Note_off_c, 0, 50, 64
4, 100800, Note_on_c, 0, 55, 97
4, 101040, Note_off_c, 0, 55, 64
4, 101040, Note_on_c, 0, 52, 97
4, 101280, Note_off_c, 0, 52, 64
4, 101280, Note_on_c, 0, 54, 97
4, 101520, Note_off_c, 0, 54, 64
4, 101520, Note_on_c, 0, 59, 97
4, 101760, Note_off_c, 0, 59, 64
4, 101760, Note_on_c, 0, 57, 97
4, 102000, Note_off_c, 0, 57, 64
4, 102000, Note_on_c, 0, 55, 97
4, 102240, Note_off_c, 0, 55, 64
4, 102240, Note_on_c, 0, 57, 97
4, 102480, Note_off_c, 0, 57, 64
4, 102480, Note_on_c, 0, 45, 97
4, 102720, Note_off_c, 0, 45, 64
4, 102720, Note_on_c, 0, 50, 97
4, 102960, Note_off_c, 0, 50, 64
4, 102960, Note_on_c, 0, 62, 97
4, 103200, Note_off_c, 0, 62, 64
4, 103200, Note_on_c, 0, 60, 97
4, 103440, Note_off_c, 0, 60, 64
4, 103440, Note_on_c, 0, 59, 97
4, 103680, Note_off_c, 0, 59, 64
4, 103680, Note_on_c, 0, 57, 97
4, 103800, Note_off_c, 0, 57, 64
4, 103800, Note_on_c, 0, 59, 97
4, 103920, Note_off_c, 0, 59, 64
4, 103920, Note_on_c, 0, 55, 97
4, 104040, Note_off_c, 0, 55, 64
4, 104040, Note_on_c, 0, 57, 97
4, 104160, Note_off_c, 0, 57, 64
4, 104160, Note_on_c, 0, 54, 97
4, 104280, Note_off_c, 0, 54, 64
4, 104280, Note_on_c, 0, 55, 97
4, 104400, Note_off_c, 0, 55, 64
4, 104400, Note_on_c, 0, 52, 97
4, 104520, Note_off_c, 0, 52, 64
4, 104520, Note_on_c, 0, 54, 97
4, 104640, Note_off_c, 0, 54, 64
4, 104640, Note_on_c, 0, 50, 97
4, 105720, Note_off_c, 0, 50, 64
4, 105720, Note_on_c, 0, 55, 97
4, 105840, Note_off_c, 0, 55, 64
4, 105840, Note_on_c, 0, 54, 97
4, 105960, Note_off_c, 0, 54, 64
4, 105960, Note_on_c, 0, 55, 97
4, 106080, Note_off_c, 0, 55, 64
4, 106080, Note_on_c, 0, 52, 97
4, 106200, Note_off_c, 0, 52, 64
4, 106200, Note_on_c, 0, 54, 97
4, 106320, Note_off_c, 0, 54, 64
4, 106320, Note_on_c, 0, 50, 97
4, 106440, Note_off_c, 0, 50, 64
4, 106440, Note_on_c, 0, 52, 97
4, 106560, Note_off_c, 0, 52, 64
4, 106560, Note_on_c, 0, 49, 97
4, 107640, Note_off_c, 0, 49, 64
4, 107640, Note_on_c, 0, 54, 97
4, 107760, Note_off_c, 0, 54, 64
4, 107760, Note_on_c, 0, 52, 97
4, 107880, Note_off_c, 0, 52, 64
4, 107880, Note_on_c, 0, 54, 97
4, 108000, Note_off_c, 0, 54, 64
4, 108000, Note_on_c, 0, 51, 97
4, 108120, Note_off_c, 0, 51, 64
4, 108120, Note_on_c, 0, 52, 97
4, 108240, Note_off_c, 0, 52, 64
4, 108240, Note_on_c, 0, 49, 97
4, 108360, Note_off_c, 0, 49, 64
4, 108360, Note_on_c, 0, 51, 97
4, 108480, Note_off_c, 0, 51, 64
4, 108480, Note_on_c, 0, 47, 97
4, 109560, Note_off_c, 0, 47, 64
4, 109560, Note_on_c, 0, 52, 97
4, 109680, Note_off_c, 0, 52, 64
4, 109680, Note_on_c, 0, 50, 97
4, 109800, Note_off_c, 0, 50, 64
4, 109800, Note_on_c, 0, 52, 97
4, 109920, Note_off_c, 0, 52, 64
4, 109920, Note_on_c, 0, 48, 97
4, 110040, Note_off_c, 0, 48, 64
4, 110040, Note_on_c, 0, 50, 97
4, 110160, Note_off_c, 0, 50, 64
4, 110160, Note_on_c, 0, 47, 97
4, 110280, Note_off_c, 0, 47, 64
4, 110280, Note_on_c, 0, 48, 97
4, 110400, Note_off_c, 0, 48, 64
4, 110400, Note_on_c, 0, 45, 97
4, 110520, Note_off_c, 0, 45, 64
4, 110520, Note_on_c, 0, 57, 97
4, 110640, Note_off_c, 0, 57, 64
4, 110640, Note_on_c, 0, 55, 97
4, 110760, Note_off_c, 0, 55, 64
4, 110760, Note_on_c, 0, 57, 97
4, 110880, Note_off_c, 0, 57, 64
4, 110880, Note_on_c, 0, 54, 97
4, 111000, Note_off_c, 0, 54, 64
4, 111000, Note_on_c, 0, 55, 97
4, 111120, Note_off_c, 0, 55, 64
4, 111120, Note_on_c, 0, 52, 97
4, 111240, Note_off_c, 0, 52, 64
4, 111240, Note_on_c, 0, 54, 97
4, 111360, Note_off_c, 0, 54, 64
4, 111360, Note_on_c, 0, 50, 97
4, 111480, Note_off_c, 0, 50, 64
4, 111480, Note_on_c, 0, 62, 97
4, 111600, Note_off_c, 0, 62, 64
4, 111600, Note_on_c, 0, 60, 97
4, 111720, Note_off_c, 0, 60, 64
4, 111720, Note_on_c, 0, 62, 97
4, 111840, Note_off_c, 0, 62, 64
4, 111840, Note_on_c, 0, 59, 97
4, 111960, Note_off_c, 0, 59, 64
4, 111960, Note_on_c, 0, 60, 97
4, 112080, Note_off_c, 0, 60, 64
4, 112080, Note_on_c, 0, 57, 97
4, 112200, Note_off_c, 0, 57, 64
4, 112200, Note_on_c, 0, 59, 97
4, 112320, Note_off_c, 0, 59, 64
4, 112320, Note_on_c, 0, 55, 97
4, 113400, Note_off_c, 0, 55, 64
4, 113400, Note_on_c, 0, 60, 97
4, 113520, Note_off_c, 0, 60, 64
4, 113520, Note_on_c, 0, 59, 97
4, 113640, Note_off_c, 0, 59, 64
4, 113640, Note_on_c, 0, 60, 97
4, 113760, Note_off_c, 0, 60, 64
4, 113760, Note_on_c, 0, 57, 97
4, 113880, Note_off_c, 0, 57, 64
4, 113880, Note_on_c, 0, 59, 97
4, 114000, Note_off_c, 0, 59, 64
4, 114000, Note_on_c, 0, 55, 97
4, 114120, Note_off_c, 0, 55, 64
4, 114120, Note_on_c, 0, 57, 97
4, 114240, Note_off_c, 0, 57, 64
4, 114240, Note_on_c, 0, 54, 97
4, 115320, Note_off_c, 0, 54, 64
4, 115320, Note_on_c, 0, 59, 97
4, 115440, Note_off_c, 0, 59, 64
4, 115440, Note_on_c, 0, 57, 97
4, 115560, Note_off_c, 0, 57, 64
4, 115560, Note_on_c, 0, 59, 97
4, 115680, Note_off_c, 0, 59, 64
4, 115680, Note_on_c, 0, 56, 97
4, 115800, Note_off_c, 0, 56, 64
4, 115800, Note_on_c, 0, 57, 97
4, 115920, Note_off_c, 0, 57, 64
4, 115920, Note_on_c, 0, 54, 97
4, 116040, Note_off_c, 0, 54, 64
4, 116040, Note_on_c, 0, 56, 97
4, 116160, Note_off_c, 0, 56, 64
4, 116160, Note_on_c, 0, 52, 97
4, 117240, Note_off_c, 0, 52, 64
4, 117240, Note_on_c, 0, 57, 97
4, 117360, Note_off_c, 0, 57, 64
4, 117360, Note_on_c, 0, 55, 97
4, 117480, Note_off_c, 0, 55, 64
4, 117480, Note_on_c, 0, 57, 97
4, 117600, Note_off_c, 0, 57, 64
4, 117600, Note_on_c, 0, 54, 97
4, 117720, Note_off_c, 0, 54, 64
4, 117720, Note_on_c, 0, 55, 97
4, 117840, Note_off_c, 0, 55, 64
4, 117840, Note_on_c, 0, 52, 97
4, 117960, Note_off_c, 0, 52, 64
4, 117960, Note_on_c, 0, 54, 97
4, 118080, Note_off_c, 0, 54, 64
4, 118080, Note_on_c, 0, 50, 97
4, 118200, Note_off_c, 0, 50, 64
4, 118200, Note_on_c, 0, 54, 97
4, 118320, Note_off_c, 0, 54, 64
4, 118320, Note_on_c, 0, 52, 97
4, 118440, Note_off_c, 0, 52, 64
4, 118440, Note_on_c, 0, 54, 97
4, 118560, Note_off_c, 0, 54, 64
4, 118560, Note_on_c, 0, 50, 97
4, 118680, Note_off_c, 0, 50, 64
4, 118680, Note_on_c, 0, 52, 97
4, 118800, Note_off_c, 0, 52, 64
4, 118800, Note_on_c, 0, 48, 97
4, 118920, Note_off_c, 0, 48, 64
4, 118920, Note_on_c, 0, 50, 97
4, 119040, Note_off_c, 0, 50, 64
4, 119040, Note_on_c, 0, 47, 97
4, 119160, Note_off_c, 0, 47, 64
4, 119160, Note_on_c, 0, 59, 97
4, 119280, Note_off_c, 0, 59, 64
4, 119280, Note_on_c, 0, 57, 97
4, 119400, Note_off_c, 0, 57, 64
4, 119400, Note_on_c, 0, 59, 97
4, 119520, Note_off_c, 0, 59, 64
4, 119520, Note_on_c, 0, 55, 97
4, 119640, Note_off_c, 0, 55, 64
4, 119640, Note_on_c, 0, 57, 97
4, 119760, Note_off_c, 0, 57, 64
4, 119760, Note_on_c, 0, 54, 97
4, 119880, Note_off_c, 0, 54, 64
4, 119880, Note_on_c, 0, 55, 97
4, 120000, Note_off_c, 0, 55, 64
4, 120000, Note_on_c, 0, 52, 97
4, 120240, Note_off_c, 0, 52, 64
4, 120240, Note_on_c, 0, 57, 97
4, 120480, Note_off_c, 0, 57, 64
4, 120480, Note_on_c, 0, 54, 97
4, 120720, Note_off_c, 0, 54, 64
4, 120720, Note_on_c, 0, 50, 97
4, 120960, Note_off_c, 0, 50, 64
4, 120960, Note_on_c, 0, 55, 97
4, 121080, Note_off_c, 0, 55, 64
4, 121080, Note_on_c, 0, 43, 97
4, 121200, Note_off_c, 0, 43, 64
4, 121200, Note_on_c, 0, 48, 97
4, 121320, Note_off_c, 0, 48, 64
4, 121320, Note_on_c, 0, 43, 97
4, 121440, Note_off_c, 0, 43, 64
4, 121440, Note_on_c, 0, 50, 97
4, 121560, Note_off_c, 0, 50, 64
4, 121560, Note_on_c, 0, 47, 97
4, 121680, Note_off_c, 0, 47, 64
4, 121680, Note_on_c, 0, 48, 97
4, 121800, Note_off_c, 0, 48, 64
4, 121800, Note_on_c, 0, 45, 97
4, 121920, Note_off_c, 0, 45, 64
4, 121920, Note_on_c, 0, 47, 97
4, 122160, Note_off_c, 0, 47, 64
4, 122160, Note_on_c, 0, 43, 97
4, 122400, Note_off_c, 0, 43, 64
4, 122400, Note_on_c, 0, 49, 97
4, 122640, Note_off_c, 0, 49, 64
4, 122640, Note_on_c, 0, 45, 97
4, 122880, Note_off_c, 0, 45, 64
4, 122880, Note_on_c, 0, 50, 97
4, 123120, Note_off_c, 0, 50, 64
4, 123120, Note_on_c, 0, 53, 97
4, 123240, Note_off_c, 0, 53, 64
4, 123240, Note_on_c, 0, 50, 97
4, 123360, Note_off_c, 0, 50, 64
4, 123360, Note_on_c, 0, 57, 97
4, 123480, Note_off_c, 0, 57, 64
4, 123480, Note_on_c, 0, 53, 97
4, 123600, Note_off_c, 0, 53, 64
4, 123600, Note_on_c, 0, 55, 97
4, 123720, Note_off_c, 0, 55, 64
4, 123720, Note_on_c, 0, 52, 97
4, 123840, Note_off_c, 0, 52, 64
4, 123840, Note_on_c, 0, 53, 97
4, 124080, Note_off_c, 0, 53, 64
4, 124080, Note_on_c, 0, 50, 97
4, 124320, Note_off_c, 0, 50, 64
4, 124320, Note_on_c, 0, 56, 97
4, 124560, Note_off_c, 0, 56, 64
4, 124560, Note_on_c, 0, 52, 97
4, 124800, Note_off_c, 0, 52, 64
4, 124800, Note_on_c, 0, 57, 97
4, 124920, Note_off_c, 0, 57, 64
4, 124920, Note_on_c, 0, 45, 97
4, 125040, Note_off_c, 0, 45, 64
4, 125040, Note_on_c, 0, 48, 97
4, 125160, Note_off_c, 0, 48, 64
4, 125160, Note_on_c, 0, 45, 97
4, 125280, Note_off_c, 0, 45, 64
4, 125280, Note_on_c, 0, 52, 97
4, 125400, Note_off_c, 0, 52, 64
4, 125400, Note_on_c, 0, 48, 97
4, 125520, Note_off_c, 0, 48, 64
4, 125520, Note_on_c, 0, 50, 97
4, 125640, Note_off_c, 0, 50, 64
4, 125640, Note_on_c, 0, 47, 97
4, 125760, Note_off_c, 0, 47, 64
4, 125760, Note_on_c, 0, 48, 97
4, 126000, Note_off_c, 0, 48, 64
4, 126000, Note_on_c, 0, 45, 97
4, 126240, Note_off_c, 0, 45, 64
4, 126240, Note_on_c, 0, 50, 97
4, 126960, Note_off_c, 0, 50, 64
4, 126960, Note_on_c, 0, 47, 97
4, 127200, Note_off_c, 0, 47, 64
4, 127200, Note_on_c, 0, 48, 97
4, 127440, Note_off_c, 0, 48, 64
4, 127440, Note_on_c, 0, 45, 97
4, 127680, Note_off_c, 0, 45, 64
4, 127680, Note_on_c, 0, 53, 97
4, 127920, Note_off_c, 0, 53, 64
4, 127920, Note_on_c, 0, 41, 97
4, 128160, Note_off_c, 0, 41, 64
4, 128160, Note_on_c, 0, 53, 97
4, 128880, Note_off_c, 0, 53, 64
4, 128880, Note_on_c, 0, 44, 97
4, 129120, Note_off_c, 0, 44, 64
4, 129120, Note_on_c, 0, 45, 97
4, 129360, Note_off_c, 0, 45, 64
4, 129360, Note_on_c, 0, 39, 97
4, 129600, Note_off_c, 0, 39, 64
4, 129600, Note_on_c, 0, 40, 97
4, 130080, Note_off_c, 0, 40, 64
4, 131040, Note_on_c, 0, 57, 97
4, 131520, Note_off_c, 0, 57, 64
4, 132000, Note_on_c, 0, 55, 97
4, 132480, Note_off_c, 0, 55, 64
4, 132960, Note_on_c, 0, 54, 97
4, 133440, Note_off_c, 0, 54, 64
4, 133920, Note_on_c, 0, 50, 97
4, 134400, Note_off_c, 0, 50, 64
4, 134880, Note_on_c, 0, 55, 97
4, 135360, Note_off_c, 0, 55, 64
4, 135840, Note_on_c, 0, 54, 97
4, 136320, Note_off_c, 0, 54, 64
4, 136800, Note_on_c, 0, 52, 97
4, 137280, Note_off_c, 0, 52, 64
4, 137760, Note_on_c, 0, 48, 97
4, 138240, Note_off_c, 0, 48, 64
4, 138720, Note_on_c, 0, 54, 97
4, 139200, Note_off_c, 0, 54, 64
4, 139680, Note_on_c, 0, 52, 97
4, 140160, Note_off_c, 0, 52, 64
4, 140640, Note_on_c, 0, 51, 97
4, 141120, Note_off_c, 0, 51, 64
4, 141600, Note_on_c, 0, 47, 97
4, 142080, Note_off_c, 0, 47, 64
4, 142560, Note_on_c, 0, 52, 97
4, 143040, Note_off_c, 0, 52, 64
4, 143520, Note_on_c, 0, 50, 97
4, 144000, Note_off_c, 0, 50, 64
4, 144480, Note_on_c, 0, 49, 97
4, 144960, Note_off_c, 0, 49, 64
4, 145440, Note_on_c, 0, 45, 97
4, 145920, Note_off_c, 0, 45, 64
4, 145920, Note_on_c, 0, 38, 97
4, 152160, Note_off_c, 0, 38, 64
4, 153600, Note_on_c, 0, 55, 97
4, 153840, Note_off_c, 0, 55, 64
4, 153840, Note_on_c, 0, 54, 97
4, 154080, Note_off_c, 0, 54, 64
4, 154080, Note_on_c, 0, 55, 97
4, 154320, Note_off_c, 0, 55, 64
4, 154320, Note_on_c, 0, 57, 97
4, 154560, Note_off_c, 0, 57, 64
4, 154560, Note_on_c, 0, 59, 97
4, 154800, Note_off_c, 0, 59, 64
4, 154800, Note_on_c, 0, 57, 97
4, 155040, Note_off_c, 0, 57, 64
4, 155040, Note_on_c, 0, 59, 97
4, 155280, Note_off_c, 0, 59, 64
4, 155280, Note_on_c, 0, 60, 97
4, 155520, Note_off_c, 0, 60, 64
4, 155520, Note_on_c, 0, 62, 97
4, 156000, Note_off_c, 0, 62, 64
4, 156000, Note_on_c, 0, 50, 97
4, 156480, Note_off_c, 0, 50, 64
4, 156480, Note_on_c, 0, 43, 97
4, 156720, Note_off_c, 0, 43, 64
4, 156720, Note_on_c, 0, 59, 97
4, 156960, Note_off_c, 0, 59, 64
4, 156960, Note_on_c, 0, 57, 97
4, 157200, Note_off_c, 0, 57, 64
4, 157200, Note_on_c, 0, 55, 97
4, 157440, Note_off_c, 0, 55, 64
4, 157440, Note_on_c, 0, 54, 97
4, 157680, Note_off_c, 0, 54, 64
4, 157680, Note_on_c, 0, 52, 97
4, 157920, Note_off_c, 0, 52, 64
4, 157920, Note_on_c, 0, 50, 97
4, 158160, Note_off_c, 0, 50, 64
4, 158160, Note_on_c, 0, 52, 97
4, 158400, Note_off_c, 0, 52, 64
4, 158400, Note_on_c, 0, 54, 97
4, 158640, Note_off_c, 0, 54, 64
4, 158640, Note_on_c, 0, 52, 97
4, 158880, Note_off_c, 0, 52, 64
4, 158880, Note_on_c, 0, 54, 97
4, 159120, Note_off_c, 0, 54, 64
4, 159120, Note_on_c, 0, 55, 97
4, 159360, Note_off_c, 0, 55, 64
4, 159360, Note_on_c, 0, 57, 97
4, 159840, Note_off_c, 0, 57, 64
4, 159840, Note_on_c, 0, 45, 97
4, 160320, Note_off_c, 0, 45, 64
4, 160320, Note_on_c, 0, 38, 97
4, 160560, Note_off_c, 0, 38, 64
4, 160560, Note_on_c, 0, 50, 97
4, 160800, Note_off_c, 0, 50, 64
4, 160800, Note_on_c, 0, 54, 97
4, 161040, Note_off_c, 0, 54, 64
4, 161040, Note_on_c, 0, 57, 97
4, 161280, Note_off_c, 0, 57, 64
4, 161280, Note_on_c, 0, 60, 97
4, 161760, Note_off_c, 0, 60, 64
4, 162000, Note_on_c, 0, 50, 97
4, 162240, Note_off_c, 0, 50, 64
4, 162240, Note_on_c, 0, 59, 97
4, 162720, Note_off_c, 0, 59, 64
4, 162960, Note_on_c, 0, 50, 97
4, 163200, Note_off_c, 0, 50, 64
4, 163200, Note_on_c, 0, 57, 97
4, 163440, Note_off_c, 0, 57, 64
4, 163440, Note_on_c, 0, 55, 97
4, 163680, Note_off_c, 0, 55, 64
4, 163680, Note_on_c, 0, 54, 97
4, 163920, Note_off_c, 0, 54, 64
4, 163920, Note_on_c, 0, 52, 97
4, 164160, Note_off_c, 0, 52, 64
4, 164160, Note_on_c, 0, 50, 97
4, 164400, Note_off_c, 0, 50, 64
4, 164400, Note_on_c, 0, 48, 97
4, 164640, Note_off_c, 0, 48, 64
4, 164640, Note_on_c, 0, 47, 97
4, 164880, Note_off_c, 0, 47, 64
4, 164880, Note_on_c, 0, 45, 97
4, 165120, Note_off_c, 0, 45, 64
4, 165120, Note_on_c, 0, 43, 97
4, 165600, Note_off_c, 0, 43, 64
4, 166080, Note_on_c, 0, 42, 97
4, 166560, Note_off_c, 0, 42, 64
4, 167040, Note_on_c, 0, 40, 97
4, 167520, Note_off_c, 0, 40, 64
4, 168000, Note_on_c, 0, 38, 97
4, 168480, Note_off_c, 0, 38, 64
4, 168960, Note_on_c, 0, 36, 97
4, 169440, Note_off_c, 0, 36, 64
4, 169440, Note_on_c, 0, 48, 97
4, 170400, Note_off_c, 0, 48, 64
4, 170400, Note_on_c, 0, 47, 97
4, 170640, Note_off_c, 0, 47, 64
4, 170640, Note_on_c, 0, 48, 97
4, 170880, Note_off_c, 0, 48, 64
4, 170880, Note_on_c, 0, 50, 97
4, 171360, Note_off_c, 0, 50, 64
4, 171360, Note_on_c, 0, 38, 97
4, 171840, Note_off_c, 0, 38, 64
4, 171840, Note_on_c, 0, 43, 97
4, 172800, Note_off_c, 0, 43, 64
4, 174242, Note_on_c, 0, 52, 97
4, 174482, Note_on_c, 0, 54, 97
4, 174485, Note_off_c, 0, 52, 64
4, 174722, Note_on_c, 0, 55, 97
4, 174725, Note_off_c, 0, 54, 64
4, 174962, Note_on_c, 0, 57, 97
4, 174965, Note_off_c, 0, 55, 64
4, 175202, Note_on_c, 0, 55, 97
4, 175205, Note_off_c, 0, 57, 64
4, 175442, Note_on_c, 0, 57, 97
4, 175445, Note_off_c, 0, 55, 64
4, 175682, Note_on_c, 0, 59, 97
4, 175685, Note_off_c, 0, 57, 64
4, 175922, Note_on_c, 0, 60, 97
4, 175925, Note_off_c, 0, 59, 64
4, 176162, Note_on_c, 0, 62, 97
4, 176165, Note_off_c, 0, 60, 64
4, 176402, Note_on_c, 0, 52, 97
4, 176405, Note_off_c, 0, 62, 64
4, 176642, Note_on_c, 0, 57, 97
4, 176645, Note_off_c, 0, 52, 64
4, 176882, Note_on_c, 0, 55, 97
4, 176885, Note_off_c, 0, 57, 64
4, 177122, Note_on_c, 0, 54, 97
4, 177125, Note_off_c, 0, 55, 64
4, 177362, Note_on_c, 0, 57, 97
4, 177365, Note_off_c, 0, 54, 64
4, 177602, Note_on_c, 0, 60, 97
4, 177605, Note_off_c, 0, 57, 64
4, 177842, Note_on_c, 0, 51, 97
4, 177845, Note_off_c, 0, 60, 64
4, 178082, Note_on_c, 0, 52, 97
4, 178085, Note_off_c, 0, 51, 64
4, 178322, Note_on_c, 0, 54, 97
4, 178325, Note_off_c, 0, 52, 64
4, 178562, Note_on_c, 0, 55, 97
4, 178565, Note_off_c, 0, 54, 64
4, 178802, Note_on_c, 0, 57, 97
4, 178805, Note_off_c, 0, 55, 64
4, 179042, Note_on_c, 0, 59, 97
4, 179045, Note_off_c, 0, 57, 64
4, 179282, Note_on_c, 0, 52, 97
4, 179285, Note_off_c, 0, 59, 64
4, 179522, Note_on_c, 0, 50, 97
4, 179525, Note_off_c, 0, 52, 64
4, 179762, Note_on_c, 0, 49, 97
4, 179765, Note_off_c, 0, 50, 64
4, 180002, Note_on_c, 0, 47, 97
4, 180005, Note_off_c, 0, 49, 64
4, 180242, Note_on_c, 0, 49, 97
4, 180245, Note_off_c, 0, 47, 64
4, 180482, Note_on_c, 0, 50, 97
4, 180485, Note_off_c, 0, 49, 64
4, 180722, Note_on_c, 0, 52, 97
4, 180725, Note_off_c, 0, 50, 64
4, 180962, Note_on_c, 0, 50, 97
4, 180965, Note_off_c, 0, 52, 64
4, 181202, Note_on_c, 0, 52, 97
4, 181205, Note_off_c, 0, 50, 64
4, 181442, Note_on_c, 0, 54, 97
4, 181445, Note_off_c, 0, 52, 64
4, 181682, Note_on_c, 0, 55, 97
4, 181685, Note_off_c, 0, 54, 64
4, 181922, Note_on_c, 0, 57, 97
4, 181925, Note_off_c, 0, 55, 64
4, 182162, Note_on_c, 0, 47, 97
4, 182165, Note_off_c, 0, 57, 64
4, 182402, Note_on_c, 0, 52, 97
4, 182405, Note_off_c, 0, 47, 64
4, 182642, Note_on_c, 0, 50, 97
4, 182645, Note_off_c, 0, 52, 64
4, 182882, Note_on_c, 0, 49, 97
4, 182885, Note_off_c, 0, 50, 64
4, 183122, Note_on_c, 0, 52, 97
4, 183125, Note_off_c, 0, 49, 64
4, 183362, Note_on_c, 0, 55, 97
4, 183365, Note_off_c, 0, 52, 64
4, 183602, Note_on_c, 0, 46, 97
4, 183605, Note_off_c, 0, 55, 64
4, 183842, Note_on_c, 0, 47, 97
4, 183845, Note_off_c, 0, 46, 64
4, 184082, Note_on_c, 0, 49, 97
4, 184085, Note_off_c, 0, 47, 64
4, 184322, Note_on_c, 0, 50, 97
4, 184325, Note_off_c, 0, 49, 64
4, 184562, Note_on_c, 0, 52, 97
4, 184565, Note_off_c, 0, 50, 64
4, 184802, Note_on_c, 0, 54, 97
4, 184805, Note_off_c, 0, 52, 64
4, 185042, Note_on_c, 0, 47, 97
4, 185045, Note_off_c, 0, 54, 64
4, 185282, Note_on_c, 0, 48, 97
4, 185285, Note_off_c, 0, 47, 64
4, 185522, Note_on_c, 0, 50, 97
4, 185525, Note_off_c, 0, 48, 64
4, 185762, Note_on_c, 0, 52, 97
4, 185765, Note_off_c, 0, 50, 64
4, 186002, Note_on_c, 0, 54, 97
4, 186005, Note_off_c, 0, 52, 64
4, 186242, Note_on_c, 0, 56, 97
4, 186245, Note_off_c, 0, 54, 64
4, 186482, Note_on_c, 0, 45, 97
4, 186485, Note_off_c, 0, 56, 64
4, 186722, Note_on_c, 0, 47, 97
4, 186725, Note_off_c, 0, 45, 64
4, 186962, Note_on_c, 0, 48, 97
4, 186965, Note_off_c, 0, 47, 64
4, 187202, Note_on_c, 0, 50, 97
4, 187205, Note_off_c, 0, 48, 64
4, 187442, Note_on_c, 0, 52, 97
4, 187445, Note_off_c, 0, 50, 64
4, 187682, Note_on_c, 0, 54, 97
4, 187685, Note_off_c, 0, 52, 64
4, 187922, Note_on_c, 0, 43, 97
4, 187925, Note_off_c, 0, 54, 64
4, 188162, Note_on_c, 0, 45, 97
4, 188165, Note_off_c, 0, 43, 64
4, 188402, Note_on_c, 0, 47, 97
4, 188405, Note_off_c, 0, 45, 64
4, 188642, Note_on_c, 0, 48, 97
4, 188645, Note_off_c, 0, 47, 64
4, 189002, Note_on_c, 0, 47, 97
4, 189005, Note_off_c, 0, 48, 64
4, 189122, Note_on_c, 0, 45, 97
4, 189125, Note_off_c, 0, 47, 64
4, 189362, Note_on_c, 0, 51, 97
4, 189365, Note_off_c, 0, 45, 64
4, 189602, Note_on_c, 0, 52, 97
4, 189605, Note_off_c, 0, 51, 64
4, 189842, Note_on_c, 0, 54, 97
4, 189845, Note_off_c, 0, 52, 64
4, 190082, Note_on_c, 0, 55, 97
4, 190085, Note_off_c, 0, 54, 64
4, 190442, Note_on_c, 0, 54, 97
4, 190445, Note_off_c, 0, 55, 64
4, 190562, Note_on_c, 0, 52, 97
4, 190565, Note_off_c, 0, 54, 64
4, 190802, Note_on_c, 0, 58, 97
4, 190805, Note_off_c, 0, 52, 64
4, 191042, Note_on_c, 0, 59, 97
4, 191045, Note_off_c, 0, 58, 64
4, 191282, Note_on_c, 0, 49, 97
4, 191285, Note_off_c, 0, 59, 64
4, 191522, Note_on_c, 0, 50, 97
4, 191525, Note_off_c, 0, 49, 64
4, 191882, Note_on_c, 0, 49, 97
4, 191885, Note_off_c, 0, 50, 64
4, 192002, Note_on_c, 0, 47, 97
4, 192005, Note_off_c, 0, 49, 64
4, 192242, Note_on_c, 0, 53, 97
4, 192245, Note_off_c, 0, 47, 64
4, 192482, Note_on_c, 0, 54, 97
4, 192485, Note_off_c, 0, 53, 64
4, 192725, Note_off_c, 0, 54, 64
4, 192962, Note_on_c, 0, 51, 97
4, 193202, Note_on_c, 0, 52, 97
4, 193205, Note_off_c, 0, 51, 64
4, 193445, Note_off_c, 0, 52, 64
4, 193682, Note_on_c, 0, 49, 97
4, 193922, Note_on_c, 0, 50, 97
4, 193925, Note_off_c, 0, 49, 64
4, 194165, Note_off_c, 0, 50, 64
4, 194402, Note_on_c, 0, 47, 97
4, 194642, Note_on_c, 0, 48, 97
4, 194645, Note_off_c, 0, 47, 64
4, 194885, Note_off_c, 0, 48, 64
4, 195122, Note_on_c, 0, 46, 97
4, 195362, Note_on_c, 0, 47, 97
4, 195365, Note_off_c, 0, 46, 64
4, 195605, Note_off_c, 0, 47, 64
4, 195842, Note_on_c, 0, 43, 97
4, 196082, Note_on_c, 0, 40, 97
4, 196085, Note_off_c, 0, 43, 64
4, 196322, Note_on_c, 0, 42, 97
4, 196325, Note_off_c, 0, 40, 64
4, 196562, Note_on_c, 0, 47, 97
4, 196565, Note_off_c, 0, 42, 64
4, 197045, Note_off_c, 0, 47, 64
4, 197282, Note_on_c, 0, 52, 97
4, 197522, Note_on_c, 0, 54, 97
4, 197525, Note_off_c, 0, 52, 64
4, 197762, Note_on_c, 0, 55, 97
4, 197765, Note_off_c, 0, 54, 64
4, 198002, Note_on_c, 0, 57, 97
4, 198005, Note_off_c, 0, 55, 64
4, 198242, Note_on_c, 0, 55, 97
4, 198245, Note_off_c, 0, 57, 64
4, 198482, Note_on_c, 0, 57, 97
4, 198485, Note_off_c, 0, 55, 64
4, 198722, Note_on_c, 0, 59, 97
4, 198725, Note_off_c, 0, 57, 64
4, 198962, Note_on_c, 0, 60, 97
4, 198965, Note_off_c, 0, 59, 64
4, 199202, Note_on_c, 0, 62, 97
4, 199205, Note_off_c, 0, 60, 64
4, 199442, Note_on_c, 0, 52, 97
4, 199445, Note_off_c, 0, 62, 64
4, 199682, Note_on_c, 0, 57, 97
4, 199685, Note_off_c, 0, 52, 64
4, 199922, Note_on_c, 0, 55, 97
4, 199925, Note_off_c, 0, 57, 64
4, 200162, Note_on_c, 0, 54, 97
4, 200165, Note_off_c, 0, 55, 64
4, 200402, Note_on_c, 0, 57, 97
4, 200405, Note_off_c, 0, 54, 64
4, 200642, Note_on_c, 0, 60, 97
4, 200645, Note_off_c, 0, 57, 64
4, 200882, Note_on_c, 0, 51, 97
4, 200885, Note_off_c, 0, 60, 64
4, 201122, Note_on_c, 0, 52, 97
4, 201125, Note_off_c, 0, 51, 64
4, 201362, Note_on_c, 0, 54, 97
4, 201365, Note_off_c, 0, 52, 64
4, 201602, Note_on_c, 0, 55, 97
4, 201605, Note_off_c, 0, 54, 64
4, 201842, Note_on_c, 0, 57, 97
4, 201845, Note_off_c, 0, 55, 64
4, 202082, Note_on_c, 0, 59, 97
4, 202085, Note_off_c, 0, 57, 64
4, 202322, Note_on_c, 0, 52, 97
4, 202325, Note_off_c, 0, 59, 64
4, 202562, Note_on_c, 0, 50, 97
4, 202565, Note_off_c, 0, 52, 64
4, 202802, Note_on_c, 0, 49, 97
4, 202805, Note_off_c, 0, 50, 64
4, 203042, Note_on_c, 0, 47, 97
4, 203045, Note_off_c, 0, 49, 64
4, 203282, Note_on_c, 0, 49, 97
4, 203285, Note_off_c, 0, 47, 64
4, 203522, Note_on_c, 0, 50, 97
4, 203525, Note_off_c, 0, 49, 64
4, 203762, Note_on_c, 0, 52, 97
4, 203765, Note_off_c, 0, 50, 64
4, 204002, Note_on_c, 0, 50, 97
4, 204005, Note_off_c, 0, 52, 64
4, 204242, Note_on_c, 0, 52, 97
4, 204245, Note_off_c, 0, 50, 64
4, 204482, Note_on_c, 0, 54, 97
4, 204485, Note_off_c, 0, 52, 64
4, 204722, Note_on_c, 0, 55, 97
4, 204725, Note_off_c, 0, 54, 64
4, 204962, Note_on_c, 0, 57, 97
4, 204965, Note_off_c, 0, 55, 64
4, 205202, Note_on_c, 0, 47, 97
4, 205205, Note_off_c, 0, 57, 64
4, 205442, Note_on_c, 0, 52, 97
4, 205445, Note_off_c, 0, 47, 64
4, 205682, Note_on_c, 0, 50, 97
4, 205685, Note_off_c, 0, 52, 64
4, 205922, Note_on_c, 0, 49, 97
4, 205925, Note_off_c, 0, 50, 64
4, 206162, Note_on_c, 0, 52, 97
4, 206165, Note_off_c, 0, 49, 64
4, 206402, Note_on_c, 0, 55, 97
4, 206405, Note_off_c, 0, 52, 64
4, 206642, Note_on_c, 0, 46, 97
4, 206645, Note_off_c, 0, 55, 64
4, 206882, Note_on_c, 0, 47, 97
4, 206885, Note_off_c, 0, 46, 64
4, 207122, Note_on_c, 0, 49, 97
4, 207125, Note_off_c, 0, 47, 64
4, 207362, Note_on_c, 0, 50, 97
4, 207365, Note_off_c, 0, 49, 64
4, 207602, Note_on_c, 0, 52, 97
4, 207605, Note_off_c, 0, 50, 64
4, 207842, Note_on_c, 0, 54, 97
4, 207845, Note_off_c, 0, 52, 64
4, 208082, Note_on_c, 0, 47, 97
4, 208085, Note_off_c, 0, 54, 64
4, 208322, Note_on_c, 0, 48, 97
4, 208325, Note_off_c, 0, 47, 64
4, 208562, Note_on_c, 0, 50, 97
4, 208565, Note_off_c, 0, 48, 64
4, 208802, Note_on_c, 0, 52, 97
4, 208805, Note_off_c, 0, 50, 64
4, 209042, Note_on_c, 0, 54, 97
4, 209045, Note_off_c, 0, 52, 64
4, 209282, Note_on_c, 0, 56, 97
4, 209285, Note_off_c, 0, 54, 64
4, 209522, Note_on_c, 0, 45, 97
4, 209525, Note_off_c, 0, 56, 64
4, 209762, Note_on_c, 0, 47, 97
4, 209765, Note_off_c, 0, 45, 64
4, 210002, Note_on_c, 0, 48, 97
4, 210005, Note_off_c, 0, 47, 64
4, 210242, Note_on_c, 0, 50, 97
4, 210245, Note_off_c, 0, 48, 64
4, 210482, Note_on_c, 0, 52, 97
4, 210485, Note_off_c, 0, 50, 64
4, 210722, Note_on_c, 0, 54, 97
4, 210725, Note_off_c, 0, 52, 64
4, 210962, Note_on_c, 0, 43, 97
4, 210965, Note_off_c, 0, 54, 64
4, 211202, Note_on_c, 0, 45, 97
4, 211205, Note_off_c, 0, 43, 64
4, 211442, Note_on_c, 0, 47, 97
4, 211445, Note_off_c, 0, 45, 64
4, 211682, Note_on_c, 0, 48, 97
4, 211685, Note_off_c, 0, 47, 64
4, 212042, Note_on_c, 0, 47, 97
4, 212045, Note_off_c, 0, 48, 64
4, 212162, Note_on_c, 0, 45, 97
4, 212165, Note_off_c, 0, 47, 64
4, 212402, Note_on_c, 0, 51, 97
4, 212405, Note_off_c, 0, 45, 64
4, 212642, Note_on_c, 0, 52, 97
4, 212645, Note_off_c, 0, 51, 64
4, 212882, Note_on_c, 0, 54, 97
4, 212885, Note_off_c, 0, 52, 64
4, 213122, Note_on_c, 0, 55, 97
4, 213125, Note_off_c, 0, 54, 64
4, 213482, Note_on_c, 0, 54, 97
4, 213485, Note_off_c, 0, 55, 64
4, 213602, Note_on_c, 0, 52, 97
4, 213605, Note_off_c, 0, 54, 64
4, 213842, Note_on_c, 0, 58, 97
4, 213845, Note_off_c, 0, 52, 64
4, 214082, Note_on_c, 0, 59, 97
4, 214085, Note_off_c, 0, 58, 64
4, 214322, Note_on_c, 0, 49, 97
4, 214325, Note_off_c, 0, 59, 64
4, 214562, Note_on_c, 0, 50, 97
4, 214565, Note_off_c, 0, 49, 64
4, 214922, Note_on_c, 0, 49, 97
4, 214925, Note_off_c, 0, 50, 64
4, 215042, Note_on_c, 0, 47, 97
4, 215045, Note_off_c, 0, 49, 64
4, 215282, Note_on_c, 0, 53, 97
4, 215285, Note_off_c, 0, 47, 64
4, 215522, Note_on_c, 0, 54, 97
4, 215525, Note_off_c, 0, 53, 64
4, 215765, Note_off_c, 0, 54, 64
4, 216002, Note_on_c, 0, 51, 97
4, 216242, Note_on_c, 0, 52, 97
4, 216245, Note_off_c, 0, 51, 64
4, 216485, Note_off_c, 0, 52, 64
4, 216722, Note_on_c, 0, 49, 97
4, 216962, Note_on_c, 0, 50, 97
4, 216965, Note_off_c, 0, 49, 64
4, 217205, Note_off_c, 0, 50, 64
4, 217442, Note_on_c, 0, 47, 97
4, 217682, Note_on_c, 0, 48, 97
4, 217685, Note_off_c, 0, 47, 64
4, 217925, Note_off_c, 0, 48, 64
4, 218162, Note_on_c, 0, 46, 97
4, 218402, Note_on_c, 0, 47, 97
4, 218405, Note_off_c, 0, 46, 64
4, 218645, Note_off_c, 0, 47, 64
4, 218882, Note_on_c, 0, 43, 97
4, 219122, Note_on_c, 0, 40, 97
4, 219125, Note_off_c, 0, 43, 64
4, 219362, Note_on_c, 0, 42, 97
4, 219365, Note_off_c, 0, 40, 64
4, 219602, Note_on_c, 0, 47, 97
4, 219605, Note_off_c, 0, 42, 64
4, 219842, Note_on_c, 0, 50, 97
4, 219845, Note_off_c, 0, 47, 64
4, 220082, Note_on_c, 0, 54, 97
4, 220085, Note_off_c, 0, 50, 64
4, 220322, Note_on_c, 0, 57, 97
4, 220325, Note_off_c, 0, 54, 64
4, 220562, Note_on_c, 0, 57, 97
4, 220565, Note_off_c, 0, 57, 64
4, 220802, Note_on_c, 0, 57, 97
4, 220805, Note_off_c, 0, 57, 64
4, 221042, Note_on_c, 0, 54, 97
4, 221045, Note_off_c, 0, 57, 64
4, 221282, Note_on_c, 0, 54, 97
4, 221285, Note_off_c, 0, 54, 64
4, 221522, Note_on_c, 0, 54, 97
4, 221525, Note_off_c, 0, 54, 64
4, 221762, Note_on_c, 0, 51, 97
4, 221765, Note_off_c, 0, 54, 64
4, 222002, Note_on_c, 0, 51, 97
4, 222005, Note_off_c, 0, 51, 64
4, 222242, Note_on_c, 0, 51, 97
4, 222245, Note_off_c, 0, 51, 64
4, 222482, Note_on_c, 0, 52, 97
4, 222485, Note_off_c, 0, 51, 64
4, 222722, Note_on_c, 0, 55, 97
4, 222725, Note_off_c, 0, 52, 64
4, 222962, Note_on_c, 0, 59, 97
4, 222965, Note_off_c, 0, 55, 64
4, 223202, Note_on_c, 0, 62, 97
4, 223205, Note_off_c, 0, 59, 64
4, 223442, Note_on_c, 0, 62, 97
4, 223445, Note_off_c, 0, 62, 64
4, 223682, Note_on_c, 0, 62, 97
4, 223685, Note_off_c, 0, 62, 64
4, 223922, Note_on_c, 0, 59, 97
4, 223925, Note_off_c, 0, 62, 64
4, 224162, Note_on_c, 0, 59, 97
4, 224165, Note_off_c, 0, 59, 64
4, 224402, Note_on_c, 0, 59, 97
4, 224405, Note_off_c, 0, 59, 64
4, 224642, Note_on_c, 0, 56, 97
4, 224645, Note_off_c, 0, 59, 64
4, 224882, Note_on_c, 0, 56, 97
4, 224885, Note_off_c, 0, 56, 64
4, 225122, Note_on_c, 0, 56, 97
4, 225125, Note_off_c, 0, 56, 64
4, 225362, Note_on_c, 0, 57, 97
4, 225365, Note_off_c, 0, 56, 64
4, 225602, Note_on_c, 0, 48, 97
4, 225605, Note_off_c, 0, 57, 64
4, 225842, Note_on_c, 0, 52, 97
4, 225845, Note_off_c, 0, 48, 64
4, 226082, Note_on_c, 0, 45, 97
4, 226085, Note_off_c, 0, 52, 64
4, 226442, Note_on_c, 0, 47, 97
4, 226445, Note_off_c, 0, 45, 64
4, 226562, Note_on_c, 0, 49, 97
4, 226565, Note_off_c, 0, 47, 64
4, 226802, Note_on_c, 0, 43, 97
4, 226805, Note_off_c, 0, 49, 64
4, 227042, Note_on_c, 0, 41, 97
4, 227045, Note_off_c, 0, 43, 64
4, 227285, Note_off_c, 0, 41, 64
4, 227522, Note_on_c, 0, 47, 97
4, 227882, Note_on_c, 0, 49, 97
4, 227885, Note_off_c, 0, 47, 64
4, 228002, Note_on_c, 0, 51, 97
4, 228005, Note_off_c, 0, 49, 64
4, 228242, Note_on_c, 0, 45, 97
4, 228245, Note_off_c, 0, 51, 64
4, 228482, Note_on_c, 0, 43, 97
4, 228485, Note_off_c, 0, 45, 64
4, 228725, Note_off_c, 0, 43, 64
4, 228962, Note_on_c, 0, 56, 97
4, 229322, Note_on_c, 0, 57, 97
4, 229325, Note_off_c, 0, 56, 64
4, 229442, Note_on_c, 0, 59, 97
4, 229445, Note_off_c, 0, 57, 64
4, 229682, Note_on_c, 0, 53, 97
4, 229685, Note_off_c, 0, 59, 64
4, 229922, Note_on_c, 0, 52, 97
4, 229925, Note_off_c, 0, 53, 64
4, 230165, Note_off_c, 0, 52, 64
4, 230402, Note_on_c, 0, 52, 97
4, 230642, Note_on_c, 0, 51, 97
4, 230645, Note_off_c, 0, 52, 64
4, 230885, Note_off_c, 0, 51, 64
4, 231122, Note_on_c, 0, 52, 97
4, 231362, Note_on_c, 0, 40, 97
4, 231365, Note_off_c, 0, 52, 64
4, 231602, Note_on_c, 0, 44, 97
4, 231605, Note_off_c, 0, 40, 64
4, 231842, Note_on_c, 0, 45, 97
4, 231845, Note_off_c, 0, 44, 64
4, 232082, Note_on_c, 0, 47, 97
4, 232085, Note_off_c, 0, 45, 64
4, 232322, Note_on_c, 0, 48, 97
4, 232325, Note_off_c, 0, 47, 64
4, 232562, Note_on_c, 0, 50, 97
4, 232565, Note_off_c, 0, 48, 64
4, 232802, Note_on_c, 0, 48, 97
4, 232805, Note_off_c, 0, 50, 64
4, 233042, Note_on_c, 0, 50, 97
4, 233045, Note_off_c, 0, 48, 64
4, 233282, Note_on_c, 0, 52, 97
4, 233285, Note_off_c, 0, 50, 64
4, 233522, Note_on_c, 0, 53, 97
4, 233525, Note_off_c, 0, 52, 64
4, 233762, Note_on_c, 0, 55, 97
4, 233765, Note_off_c, 0, 53, 64
4, 234002, Note_on_c, 0, 45, 97
4, 234005, Note_off_c, 0, 55, 64
4, 234242, Note_on_c, 0, 50, 97
4, 234245, Note_off_c, 0, 45, 64
4, 234482, Note_on_c, 0, 48, 97
4, 234485, Note_off_c, 0, 50, 64
4, 234722, Note_on_c, 0, 47, 97
4, 234725, Note_off_c, 0, 48, 64
4, 234962, Note_on_c, 0, 50, 97
4, 234965, Note_off_c, 0, 47, 64
4, 235202, Note_on_c, 0, 53, 97
4, 235205, Note_off_c, 0, 50, 64
4, 235442, Note_on_c, 0, 44, 97
4, 235445, Note_off_c, 0, 53, 64
4, 235682, Note_on_c, 0, 45, 97
4, 235685, Note_off_c, 0, 44, 64
4, 235922, Note_on_c, 0, 47, 97
4, 235925, Note_off_c, 0, 45, 64
4, 236162, Note_on_c, 0, 48, 97
4, 236165, Note_off_c, 0, 47, 64
4, 236402, Note_on_c, 0, 50, 97
4, 236405, Note_off_c, 0, 48, 64
4, 236642, Note_on_c, 0, 52, 97
4, 236645, Note_off_c, 0, 50, 64
4, 236882, Note_on_c, 0, 45, 97
4, 236885, Note_off_c, 0, 52, 64
4, 237122, Note_on_c, 0, 43, 97
4, 237125, Note_off_c, 0, 45, 64
4, 237362, Note_on_c, 0, 42, 97
4, 237365, Note_off_c, 0, 43, 64
4, 237602, Note_on_c, 0, 40, 97
4, 237605, Note_off_c, 0, 42, 64
4, 237842, Note_on_c, 0, 42, 97
4, 237845, Note_off_c, 0, 40, 64
4, 238082, Note_on_c, 0, 43, 97
4, 238085, Note_off_c, 0, 42, 64
4, 238322, Note_on_c, 0, 45, 97
4, 238325, Note_off_c, 0, 43, 64
4, 238562, Note_on_c, 0, 43, 97
4, 238565, Note_off_c, 0, 45, 64
4, 238802, Note_on_c, 0, 45, 97
4, 238805, Note_off_c, 0, 43, 64
4, 239042, Note_on_c, 0, 47, 97
4, 239045, Note_off_c, 0, 45, 64
4, 239282, Note_on_c, 0, 48, 97
4, 239285, Note_off_c, 0, 47, 64
4, 239522, Note_on_c, 0, 50, 97
4, 239525, Note_off_c, 0, 48, 64
4, 239762, Note_on_c, 0, 40, 97
4, 239765, Note_off_c, 0, 50, 64
4, 240002, Note_on_c, 0, 45, 97
4, 240005, Note_off_c, 0, 40, 64
4, 240242, Note_on_c, 0, 43, 97
4, 240245, Note_off_c, 0, 45, 64
4, 240482, Note_on_c, 0, 42, 97
4, 240485, Note_off_c, 0, 43, 64
4, 240722, Note_on_c, 0, 45, 97
4, 240725, Note_off_c, 0, 42, 64
4, 240962, Note_on_c, 0, 48, 97
4, 240965, Note_off_c, 0, 45, 64
4, 241202, Note_on_c, 0, 39, 97
4, 241205, Note_off_c, 0, 48, 64
4, 241442, Note_on_c, 0, 40, 97
4, 241445, Note_off_c, 0, 39, 64
4, 241682, Note_on_c, 0, 42, 97
4, 241685, Note_off_c, 0, 40, 64
4, 241922, Note_on_c, 0, 43, 97
4, 241925, Note_off_c, 0, 42, 64
4, 242162, Note_on_c, 0, 45, 97
4, 242165, Note_off_c, 0, 43, 64
4, 242402, Note_on_c, 0, 47, 97
4, 242405, Note_off_c, 0, 45, 64
4, 242642, Note_on_c, 0, 40, 97
4, 242645, Note_off_c, 0, 47, 64
4, 242882, Note_on_c, 0, 41, 97
4, 242885, Note_off_c, 0, 40, 64
4, 243122, Note_on_c, 0, 43, 97
4, 243125, Note_off_c, 0, 41, 64
4, 243362, Note_on_c, 0, 45, 97
4, 243365, Note_off_c, 0, 43, 64
4, 243602, Note_on_c, 0, 47, 97
4, 243605, Note_off_c, 0, 45, 64
4, 243842, Note_on_c, 0, 49, 97
4, 243845, Note_off_c, 0, 47, 64
4, 244082, Note_on_c, 0, 50, 97
4, 244085, Note_off_c, 0, 49, 64
4, 244322, Note_on_c, 0, 52, 97
4, 244325, Note_off_c, 0, 50, 64
4, 244562, Note_on_c, 0, 53, 97
4, 244565, Note_off_c, 0, 52, 64
4, 244802, Note_on_c, 0, 55, 97
4, 244805, Note_off_c, 0, 53, 64
4, 245042, Note_on_c, 0, 57, 97
4, 245045, Note_off_c, 0, 55, 64
4, 245282, Note_on_c, 0, 59, 97
4, 245285, Note_off_c, 0, 57, 64
4, 245522, Note_on_c, 0, 48, 97
4, 245525, Note_off_c, 0, 59, 64
4, 245762, Note_on_c, 0, 50, 97
4, 245765, Note_off_c, 0, 48, 64
4, 246002, Note_on_c, 0, 52, 97
4, 246005, Note_off_c, 0, 50, 64
4, 246242, Note_on_c, 0, 41, 97
4, 246245, Note_off_c, 0, 52, 64
4, 246602, Note_on_c, 0, 40, 97
4, 246605, Note_off_c, 0, 41, 64
4, 246722, Note_on_c, 0, 38, 97
4, 246725, Note_off_c, 0, 40, 64
4, 246962, Note_on_c, 0, 44, 97
4, 246965, Note_off_c, 0, 38, 64
4, 247202, Note_on_c, 0, 45, 97
4, 247205, Note_off_c, 0, 44, 64
4, 247442, Note_on_c, 0, 47, 97
4, 247445, Note_off_c, 0, 45, 64
4, 247682, Note_on_c, 0, 48, 97
4, 247685, Note_off_c, 0, 47, 64
4, 248042, Note_on_c, 0, 47, 97
4, 248045, Note_off_c, 0, 48, 64
4, 248162, Note_on_c, 0, 45, 97
4, 248165, Note_off_c, 0, 47, 64
4, 248402, Note_on_c, 0, 51, 97
4, 248405, Note_off_c, 0, 45, 64
4, 248642, Note_on_c, 0, 52, 97
4, 248645, Note_off_c, 0, 51, 64
4, 248882, Note_on_c, 0, 54, 97
4, 248885, Note_off_c, 0, 52, 64
4, 249122, Note_on_c, 0, 55, 97
4, 249125, Note_off_c, 0, 54, 64
4, 249482, Note_on_c, 0, 54, 97
4, 249485, Note_off_c, 0, 55, 64
4, 249602, Note_on_c, 0, 52, 97
4, 249605, Note_off_c, 0, 54, 64
4, 249842, Note_on_c, 0, 58, 97
4, 249845, Note_off_c, 0, 52, 64
4, 250082, Note_on_c, 0, 59, 97
4, 250085, Note_off_c, 0, 58, 64
4, 250325, Note_off_c, 0, 59, 64
4, 250562, Note_on_c, 0, 56, 97
4, 250802, Note_on_c, 0, 57, 97
4, 250805, Note_off_c, 0, 56, 64
4, 251045, Note_off_c, 0, 57, 64
4, 251282, Note_on_c, 0, 54, 97
4, 251522, Note_on_c, 0, 55, 97
4, 251525, Note_off_c, 0, 54, 64
4, 251765, Note_off_c, 0, 55, 64
4, 252002, Note_on_c, 0, 52, 97
4, 252242, Note_on_c, 0, 53, 97
4, 252245, Note_off_c, 0, 52, 64
4, 252485, Note_off_c, 0, 53, 64
4, 252722, Note_on_c, 0, 51, 97
4, 252962, Note_on_c, 0, 52, 97
4, 252965, Note_off_c, 0, 51, 64
4, 253205, Note_off_c, 0, 52, 64
4, 253442, Note_on_c, 0, 48, 97
4, 253682, Note_on_c, 0, 45, 97
4, 253685, Note_off_c, 0, 48, 64
4, 253922, Note_on_c, 0, 47, 97
4, 253925, Note_off_c, 0, 45, 64
4, 254162, Note_on_c, 0, 52, 97
4, 254165, Note_off_c, 0, 47, 64
4, 254402, Note_on_c, 0, 55, 97
4, 254405, Note_off_c, 0, 52, 64
4, 254642, Note_on_c, 0, 59, 97
4, 254645, Note_off_c, 0, 55, 64
4, 254882, Note_on_c, 0, 57, 97
4, 254885, Note_off_c, 0, 59, 64
4, 255122, Note_on_c, 0, 57, 97
4, 255125, Note_off_c, 0, 57, 64
4, 255362, Note_on_c, 0, 57, 97
4, 255365, Note_off_c, 0, 57, 64
4, 255602, Note_on_c, 0, 54, 97
4, 255605, Note_off_c, 0, 57, 64
4, 255842, Note_on_c, 0, 54, 97
4, 255845, Note_off_c, 0, 54, 64
4, 256082, Note_on_c, 0, 54, 97
4, 256085, Note_off_c, 0, 54, 64
4, 256322, Note_on_c, 0, 51, 97
4, 256325, Note_off_c, 0, 54, 64
4, 256562, Note_on_c, 0, 51, 97
4, 256565, Note_off_c, 0, 51, 64
4, 256802, Note_on_c, 0, 51, 97
4, 256805, Note_off_c, 0, 51, 64
4, 257042, Note_on_c, 0, 52, 97
4, 257045, Note_off_c, 0, 51, 64
4, 257282, Note_on_c, 0, 55, 97
4, 257285, Note_off_c, 0, 52, 64
4, 257522, Note_on_c, 0, 59, 97
4, 257525, Note_off_c, 0, 55, 64
4, 257762, Note_on_c, 0, 62, 97
4, 257765, Note_off_c, 0, 59, 64
4, 258002, Note_on_c, 0, 62, 97
4, 258005, Note_off_c, 0, 62, 64
4, 258242, Note_on_c, 0, 62, 97
4, 258245, Note_off_c, 0, 62, 64
4, 258482, Note_on_c, 0, 59, 97
4, 258485, Note_off_c, 0, 62, 64
4, 258722, Note_on_c, 0, 59, 97
4, 258725, Note_off_c, 0, 59, 64
4, 258962, Note_on_c, 0, 59, 97
4, 258965, Note_off_c, 0, 59, 64
4, 259202, Note_on_c, 0, 56, 97
4, 259205, Note_off_c, 0, 59, 64
4, 259442, Note_on_c, 0, 56, 97
4, 259445, Note_off_c, 0, 56, 64
4, 259682, Note_on_c, 0, 56, 97
4, 259685, Note_off_c, 0, 56, 64
4, 259922, Note_on_c, 0, 57, 97
4, 259925, Note_off_c, 0, 56, 64
4, 260162, Note_on_c, 0, 48, 97
4, 260165, Note_off_c, 0, 57, 64
4, 260402, Note_on_c, 0, 52, 97
4, 260405, Note_off_c, 0, 48, 64
4, 260642, Note_on_c, 0, 45, 97
4, 260645, Note_off_c, 0, 52, 64
4, 261002, Note_on_c, 0, 47, 97
4, 261005, Note_off_c, 0, 45, 64
4, 261122, Note_on_c, 0, 49, 97
4, 261125, Note_off_c, 0, 47, 64
4, 261362, Note_on_c, 0, 43, 97
4, 261365, Note_off_c, 0, 49, 64
4, 261602, Note_on_c, 0, 41, 97
4, 261605, Note_off_c, 0, 43, 64
4, 261845, Note_off_c, 0, 41, 64
4, 262082, Note_on_c, 0, 47, 97
4, 262442, Note_on_c, 0, 49, 97
4, 262445, Note_off_c, 0, 47, 64
4, 262562, Note_on_c, 0, 51, 97
4, 262565, Note_off_c, 0, 49, 64
4, 262802, Note_on_c, 0, 45, 97
4, 262805, Note_off_c, 0, 51, 64
4, 263042, Note_on_c, 0, 43, 97
4, 263045, Note_off_c, 0, 45, 64
4, 263285, Note_off_c, 0, 43, 64
4, 263522, Note_on_c, 0, 56, 97
4, 263882, Note_on_c, 0, 57, 97
4, 263885, Note_off_c, 0, 56, 64
4, 264002, Note_on_c, 0, 59, 97
4, 264005, Note_off_c, 0, 57, 64
4, 264242, Note_on_c, 0, 53, 97
4, 264245, Note_off_c, 0, 59, 64
4, 264482, Note_on_c, 0, 52, 97
4, 264485, Note_off_c, 0, 53, 64
4, 264725, Note_off_c, 0, 52, 64
4, 264962, Note_on_c, 0, 52, 97
4, 265202, Note_on_c, 0, 51, 97
4, 265205, Note_off_c, 0, 52, 64
4, 265445, Note_off_c, 0, 51, 64
4, 265682, Note_on_c, 0, 52, 97
4, 265922, Note_on_c, 0, 40, 97
4, 265925, Note_off_c, 0, 52, 64
4, 266162, Note_on_c, 0, 44, 97
4, 266165, Note_off_c, 0, 40, 64
4, 266402, Note_on_c, 0, 45, 97
4, 266405, Note_off_c, 0, 44, 64
4, 266642, Note_on_c, 0, 47, 97
4, 266645, Note_off_c, 0, 45, 64
4, 266882, Note_on_c, 0, 48, 97
4, 266885, Note_off_c, 0, 47, 64
4, 267122, Note_on_c, 0, 50, 97
4, 267125, Note_off_c, 0, 48, 64
4, 267362, Note_on_c, 0, 48, 97
4, 267365, Note_off_c, 0, 50, 64
4, 267602, Note_on_c, 0, 50, 97
4, 267605, Note_off_c, 0, 48, 64
4, 267842, Note_on_c, 0, 52, 97
4, 267845, Note_off_c, 0, 50, 64
4, 268082, Note_on_c, 0, 53, 97
4, 268085, Note_off_c, 0, 52, 64
4, 268322, Note_on_c, 0, 55, 97
4, 268325, Note_off_c, 0, 53, 64
4, 268562, Note_on_c, 0, 45, 97
4, 268565, Note_off_c, 0, 55, 64
4, 268802, Note_on_c, 0, 50, 97
4, 268805, Note_off_c, 0, 45, 64
4, 269042, Note_on_c, 0, 48, 97
4, 269045, Note_off_c, 0, 50, 64
4, 269282, Note_on_c, 0, 47, 97
4, 269285, Note_off_c, 0, 48, 64
4, 269522, Note_on_c, 0, 50, 97
4, 269525, Note_off_c, 0, 47, 64
4, 269762, Note_on_c, 0, 53, 97
4, 269765, Note_off_c, 0, 50, 64
4, 270002, Note_on_c, 0, 44, 97
4, 270005, Note_off_c, 0, 53, 64
4, 270242, Note_on_c, 0, 45, 97
4, 270245, Note_off_c, 0, 44, 64
4, 270482, Note_on_c, 0, 47, 97
4, 270485, Note_off_c, 0, 45, 64
4, 270722, Note_on_c, 0, 48, 97
4, 270725, Note_off_c, 0, 47, 64
4, 270962, Note_on_c, 0, 50, 97
4, 270965, Note_off_c, 0, 48, 64
4, 271202, Note_on_c, 0, 52, 97
4, 271205, Note_off_c, 0, 50, 64
4, 271442, Note_on_c, 0, 45, 97
4, 271445, Note_off_c, 0, 52, 64
4, 271682, Note_on_c, 0, 43, 97
4, 271685, Note_off_c, 0, 45, 64
4, 271922, Note_on_c, 0, 42, 97
4, 271925, Note_off_c, 0, 43, 64
4, 272162, Note_on_c, 0, 40, 97
4, 272165, Note_off_c, 0, 42, 64
4, 272402, Note_on_c, 0, 42, 97
4, 272405, Note_off_c, 0, 40, 64
4, 272642, Note_on_c, 0, 43, 97
4, 272645, Note_off_c, 0, 42, 64
4, 272882, Note_on_c, 0, 45, 97
4, 272885, Note_off_c, 0, 43, 64
4, 273122, Note_on_c, 0, 43, 97
4, 273125, Note_off_c, 0, 45, 64
4, 273362, Note_on_c, 0, 45, 97
4, 273365, Note_off_c, 0, 43, 64
4, 273602, Note_on_c, 0, 47, 97
4, 273605, Note_off_c, 0, 45, 64
4, 273842, Note_on_c, 0, 48, 97
4, 273845, Note_off_c, 0, 47, 64
4, 274082, Note_on_c, 0, 50, 97
4, 274085, Note_off_c, 0, 48, 64
4, 274322, Note_on_c, 0, 40, 97
4, 274325, Note_off_c, 0, 50, 64
4, 274562, Note_on_c, 0, 45, 97
4, 274565, Note_off_c, 0, 40, 64
4, 274802, Note_on_c, 0, 43, 97
4, 274805, Note_off_c, 0, 45, 64
4, 275042, Note_on_c, 0, 42, 97
4, 275045, Note_off_c, 0, 43, 64
4, 275282, Note_on_c, 0, 45, 97
4, 275285, Note_off_c, 0, 42, 64
4, 275522, Note_on_c, 0, 48, 97
4, 275525, Note_off_c, 0, 45, 64
4, 275762, Note_on_c, 0, 39, 97
4, 275765, Note_off_c, 0, 48, 64
4, 276002, Note_on_c, 0, 40, 97
4, 276005, Note_off_c, 0, 39, 64
4, 276242, Note_on_c, 0, 42, 97
4, 276245, Note_off_c, 0, 40, 64
4, 276482, Note_on_c, 0, 43, 97
4, 276485, Note_off_c, 0, 42, 64
4, 276722, Note_on_c, 0, 45, 97
4, 276725, Note_off_c, 0, 43, 64
4, 276962, Note_on_c, 0, 47, 97
4, 276965, Note_off_c, 0, 45, 64
4, 277202, Note_on_c, 0, 40, 97
4, 277205, Note_off_c, 0, 47, 64
4, 277442, Note_on_c, 0, 41, 97
4, 277445, Note_off_c, 0, 40, 64
4, 277682, Note_on_c, 0, 43, 97
4, 277685, Note_off_c, 0, 41, 64
4, 277922, Note_on_c, 0, 45, 97
4, 277925, Note_off_c, 0, 43, 64
4, 278162, Note_on_c, 0, 47, 97
4, 278165, Note_off_c, 0, 45, 64
4, 278402, Note_on_c, 0, 49, 97
4, 278405, Note_off_c, 0, 47, 64
4, 278642, Note_on_c, 0, 50, 97
4, 278645, Note_off_c, 0, 49, 64
4, 278882, Note_on_c, 0, 52, 97
4, 278885, Note_off_c, 0, 50, 64
4, 279122, Note_on_c, 0, 53, 97
4, 279125, Note_off_c, 0, 52, 64
4, 279362, Note_on_c, 0, 55, 97
4, 279365, Note_off_c, 0, 53, 64
4, 279602, Note_on_c, 0, 57, 97
4, 279605, Note_off_c, 0, 55, 64
4, 279842, Note_on_c, 0, 59, 97
4, 279845, Note_off_c, 0, 57, 64
4, 280082, Note_on_c, 0, 48, 97
4, 280085, Note_off_c, 0, 59, 64
4, 280322, Note_on_c, 0, 50, 97
4, 280325, Note_off_c, 0, 48, 64
4, 280562, Note_on_c, 0, 52, 97
4, 280565, Note_off_c, 0, 50, 64
4, 280802, Note_on_c, 0, 41, 97
4, 280805, Note_off_c, 0, 52, 64
4, 281162, Note_on_c, 0, 40, 97
4, 281165, Note_off_c, 0, 41, 64
4, 281282, Note_on_c, 0, 38, 97
4, 281285, Note_off_c, 0, 40, 64
4, 281522, Note_on_c, 0, 44, 97
4, 281525, Note_off_c, 0, 38, 64
4, 281762, Note_on_c, 0, 45, 97
4, 281765, Note_off_c, 0, 44, 64
4, 282002, Note_on_c, 0, 47, 97
4, 282005, Note_off_c, 0, 45, 64
4, 282242, Note_on_c, 0, 48, 97
4, 282245, Note_off_c, 0, 47, 64
4, 282602, Note_on_c, 0, 47, 97
4, 282605, Note_off_c, 0, 48, 64
4, 282722, Note_on_c, 0, 45, 97
4, 282725, Note_off_c, 0, 47, 64
4, 282962, Note_on_c, 0, 51, 97
4, 282965, Note_off_c, 0, 45, 64
4, 283202, Note_on_c, 0, 52, 97
4, 283205, Note_off_c, 0, 51, 64
4, 283442, Note_on_c, 0, 54, 97
4, 283445, Note_off_c, 0, 52, 64
4, 283682, Note_on_c, 0, 55, 97
4, 283685, Note_off_c, 0, 54, 64
4, 284042, Note_on_c, 0, 54, 97
4, 284045, Note_off_c, 0, 55, 64
4, 284162, Note_on_c, 0, 52, 97
4, 284165, Note_off_c, 0, 54, 64
4, 284402, Note_on_c, 0, 58, 97
4, 284405, Note_off_c, 0, 52, 64
4, 284642, Note_on_c, 0, 59, 97
4, 284645, Note_off_c, 0, 58, 64
4, 284885, Note_off_c, 0, 59, 64
4, 285122, Note_on_c, 0, 56, 97
4, 285362, Note_on_c, 0, 57, 97
4, 285365, Note_off_c, 0, 56, 64
4, 285605, Note_off_c, 0, 57, 64
4, 285842, Note_on_c, 0, 54, 97
4, 286082, Note_on_c, 0, 55, 97
4, 286085, Note_off_c, 0, 54, 64
4, 286325, Note_off_c, 0, 55, 64
4, 286562, Note_on_c, 0, 52, 97
4, 286802, Note_on_c, 0, 53, 97
4, 286805, Note_off_c, 0, 52, 64
4, 287045, Note_off_c, 0, 53, 64
4, 287282, Note_on_c, 0, 51, 97
4, 287522, Note_on_c, 0, 52, 97
4, 287525, Note_off_c, 0, 51, 64
4, 287765, Note_off_c, 0, 52, 64
4, 288002, Note_on_c, 0, 48, 97
4, 288242, Note_on_c, 0, 45, 97
4, 288245, Note_off_c, 0, 48, 64
4, 288482, Note_on_c, 0, 47, 97
4, 288485, Note_off_c, 0, 45, 64
4, 288722, Note_on_c, 0, 40, 97
4, 288725, Note_off_c, 0, 47, 64
4, 289445, Note_off_c, 0, 40, 64
4, 290882, Note_on_c, 0, 43, 97
4, 291362, Note_on_c, 0, 55, 97
4, 291365, Note_off_c, 0, 43, 64
4, 292322, Note_on_c, 0, 54, 97
4, 292325, Note_off_c, 0, 55, 64
4, 292802, Note_on_c, 0, 55, 97
4, 292805, Note_off_c, 0, 54, 64
4, 293285, Note_off_c, 0, 55, 64
4, 293522, Note_on_c, 0, 43, 97
4, 293762, Note_on_c, 0, 50, 97
4, 293765, Note_off_c, 0, 43, 64
4, 294002, Note_on_c, 0, 52, 97
4, 294005, Note_off_c, 0, 50, 64
4, 294242, Note_on_c, 0, 54, 97
4, 294245, Note_off_c, 0, 52, 64
4, 294482, Note_on_c, 0, 55, 97
4, 294485, Note_off_c, 0, 54, 64
4, 294722, Note_on_c, 0, 57, 97
4, 294725, Note_off_c, 0, 55, 64
4, 294962, Note_on_c, 0, 59, 97
4, 294965, Note_off_c, 0, 57, 64
4, 295202, Note_on_c, 0, 57, 97
4, 295205, Note_off_c, 0, 59, 64
4, 295442, Note_on_c, 0, 55, 97
4, 295445, Note_off_c, 0, 57, 64
4, 295682, Note_on_c, 0, 54, 97
4, 295685, Note_off_c, 0, 55, 64
4, 295922, Note_on_c, 0, 57, 97
4, 295925, Note_off_c, 0, 54, 64
4, 296162, Note_on_c, 0, 49, 97
4, 296165, Note_off_c, 0, 57, 64
4, 296402, Note_on_c, 0, 50, 97
4, 296405, Note_off_c, 0, 49, 64
4, 296642, Note_on_c, 0, 45, 97
4, 296645, Note_off_c, 0, 50, 64
4, 296882, Note_on_c, 0, 57, 97
4, 296885, Note_off_c, 0, 45, 64
4, 297122, Note_on_c, 0, 49, 97
4, 297125, Note_off_c, 0, 57, 64
4, 297362, Note_on_c, 0, 52, 97
4, 297365, Note_off_c, 0, 49, 64
4, 297602, Note_on_c, 0, 45, 97
4, 297605, Note_off_c, 0, 52, 64
4, 297842, Note_on_c, 0, 57, 97
4, 297845, Note_off_c, 0, 45, 64
4, 298082, Note_on_c, 0, 49, 97
4, 298085, Note_off_c, 0, 57, 64
4, 298322, Note_on_c, 0, 52, 97
4, 298325, Note_off_c, 0, 49, 64
4, 298562, Note_on_c, 0, 45, 97
4, 298565, Note_off_c, 0, 52, 64
4, 298802, Note_on_c, 0, 57, 97
4, 298805, Note_off_c, 0, 45, 64
4, 299042, Note_on_c, 0, 49, 97
4, 299045, Note_off_c, 0, 57, 64
4, 299282, Note_on_c, 0, 52, 97
4, 299285, Note_off_c, 0, 49, 64
4, 299522, Note_on_c, 0, 45, 97
4, 299525, Note_off_c, 0, 52, 64
4, 299762, Note_on_c, 0, 55, 97
4, 299765, Note_off_c, 0, 45, 64
4, 300002, Note_on_c, 0, 54, 97
4, 300005, Note_off_c, 0, 55, 64
4, 300242, Note_on_c, 0, 57, 97
4, 300245, Note_off_c, 0, 54, 64
4, 300482, Note_on_c, 0, 50, 97
4, 300485, Note_off_c, 0, 57, 64
4, 300722, Note_on_c, 0, 62, 97
4, 300725, Note_off_c, 0, 50, 64
4, 300962, Note_on_c, 0, 54, 97
4, 300965, Note_off_c, 0, 62, 64
4, 301202, Note_on_c, 0, 57, 97
4, 301205, Note_off_c, 0, 54, 64
4, 301442, Note_on_c, 0, 50, 97
4, 301445, Note_off_c, 0, 57, 64
4, 301682, Note_on_c, 0, 62, 97
4, 301685, Note_off_c, 0, 50, 64
4, 301922, Note_on_c, 0, 54, 97
4, 301925, Note_off_c, 0, 62, 64
4, 302162, Note_on_c, 0, 57, 97
4, 302165, Note_off_c, 0, 54, 64
4, 302402, Note_on_c, 0, 50, 97
4, 302405, Note_off_c, 0, 57, 64
4, 302642, Note_on_c, 0, 62, 97
4, 302645, Note_off_c, 0, 50, 64
4, 302882, Note_on_c, 0, 54, 97
4, 302885, Note_off_c, 0, 62, 64
4, 303122, Note_on_c, 0, 57, 97
4, 303125, Note_off_c, 0, 54, 64
4, 303362, Note_on_c, 0, 50, 97
4, 303365, Note_off_c, 0, 57, 64
4, 303602, Note_on_c, 0, 60, 97
4, 303605, Note_off_c, 0, 50, 64
4, 303842, Note_on_c, 0, 59, 97
4, 303845, Note_off_c, 0, 60, 64
4, 304082, Note_on_c, 0, 62, 97
4, 304085, Note_off_c, 0, 59, 64
4, 304322, Note_on_c, 0, 55, 97
4, 304325, Note_off_c, 0, 62, 64
4, 305042, Note_on_c, 0, 57, 97
4, 305045, Note_off_c, 0, 55, 64
4, 305282, Note_on_c, 0, 50, 97
4, 305285, Note_off_c, 0, 57, 64
4, 305522, Note_on_c, 0, 60, 97
4, 305525, Note_off_c, 0, 50, 64
4, 305762, Note_on_c, 0, 59, 97
4, 305765, Note_off_c, 0, 60, 64
4, 306002, Note_on_c, 0, 57, 97
4, 306005, Note_off_c, 0, 59, 64
4, 306242, Note_on_c, 0, 59, 97
4, 306245, Note_off_c, 0, 57, 64
4, 306482, Note_on_c, 0, 62, 97
4, 306485, Note_off_c, 0, 59, 64
4, 306722, Note_on_c, 0, 60, 97
4, 306725, Note_off_c, 0, 62, 64
4, 306962, Note_on_c, 0, 59, 97
4, 306965, Note_off_c, 0, 60, 64
4, 307202, Note_on_c, 0, 57, 97
4, 307205, Note_off_c, 0, 59, 64
4, 307442, Note_on_c, 0, 50, 97
4, 307445, Note_off_c, 0, 57, 64
4, 307685, Note_off_c, 0, 50, 64
4, 307922, Note_on_c, 0, 51, 97
4, 308162, Note_on_c, 0, 52, 97
4, 308165, Note_off_c, 0, 51, 64
4, 308882, Note_on_c, 0, 54, 97
4, 308885, Note_off_c, 0, 52, 64
4, 309122, Note_on_c, 0, 47, 97
4, 309125, Note_off_c, 0, 54, 64
4, 309362, Note_on_c, 0, 57, 97
4, 309365, Note_off_c, 0, 47, 64
4, 309602, Note_on_c, 0, 55, 97
4, 309605, Note_off_c, 0, 57, 64
4, 309842, Note_on_c, 0, 54, 97
4, 309845, Note_off_c, 0, 55, 64
4, 310082, Note_on_c, 0, 55, 97
4, 310085, Note_off_c, 0, 54, 64
4, 310322, Note_on_c, 0, 59, 97
4, 310325, Note_off_c, 0, 55, 64
4, 310562, Note_on_c, 0, 57, 97
4, 310565, Note_off_c, 0, 59, 64
4, 310802, Note_on_c, 0, 55, 97
4, 310805, Note_off_c, 0, 57, 64
4, 311042, Note_on_c, 0, 54, 97
4, 311045, Note_off_c, 0, 55, 64
4, 311282, Note_on_c, 0, 47, 97
4, 311285, Note_off_c, 0, 54, 64
4, 311525, Note_off_c, 0, 47, 64
4, 311762, Note_on_c, 0, 47, 97
4, 312002, Note_on_c, 0, 48, 97
4, 312005, Note_off_c, 0, 47, 64
4, 312722, Note_on_c, 0, 50, 97
4, 312725, Note_off_c, 0, 48, 64
4, 312962, Note_on_c, 0, 43, 97
4, 312965, Note_off_c, 0, 50, 64
4, 313202, Note_on_c, 0, 53, 97
4, 313205, Note_off_c, 0, 43, 64
4, 313442, Note_on_c, 0, 52, 97
4, 313445, Note_off_c, 0, 53, 64
4, 313682, Note_on_c, 0, 50, 97
4, 313685, Note_off_c, 0, 52, 64
4, 313922, Note_on_c, 0, 52, 97
4, 313925, Note_off_c, 0, 50, 64
4, 314162, Note_on_c, 0, 55, 97
4, 314165, Note_off_c, 0, 52, 64
4, 314402, Note_on_c, 0, 54, 97
4, 314405, Note_off_c, 0, 55, 64
4, 314642, Note_on_c, 0, 52, 97
4, 314645, Note_off_c, 0, 54, 64
4, 314882, Note_on_c, 0, 54, 97
4, 314885, Note_off_c, 0, 52, 64
4, 315122, Note_on_c, 0, 57, 97
4, 315125, Note_off_c, 0, 54, 64
4, 315362, Note_on_c, 0, 55, 97
4, 315365, Note_off_c, 0, 57, 64
4, 315602, Note_on_c, 0, 54, 97
4, 315605, Note_off_c, 0, 55, 64
4, 315842, Note_on_c, 0, 55, 97
4, 315845, Note_off_c, 0, 54, 64
4, 316082, Note_on_c, 0, 52, 97
4, 316085, Note_off_c, 0, 55, 64
4, 316322, Note_on_c, 0, 50, 97
4, 316325, Note_off_c, 0, 52, 64
4, 316562, Note_on_c, 0, 48, 97
4, 316565, Note_off_c, 0, 50, 64
4, 316802, Note_on_c, 0, 47, 97
4, 316805, Note_off_c, 0, 48, 64
4, 317042, Note_on_c, 0, 45, 97
4, 317045, Note_off_c, 0, 47, 64
4, 317282, Note_on_c, 0, 43, 97
4, 317285, Note_off_c, 0, 45, 64
4, 317522, Note_on_c, 0, 42, 97
4, 317525, Note_off_c, 0, 43, 64
4, 317762, Note_on_c, 0, 43, 97
4, 317765, Note_off_c, 0, 42, 64
4, 318002, Note_on_c, 0, 55, 97
4, 318005, Note_off_c, 0, 43, 64
4, 318242, Note_on_c, 0, 52, 97
4, 318245, Note_off_c, 0, 55, 64
4, 318482, Note_on_c, 0, 57, 97
4, 318485, Note_off_c, 0, 52, 64
4, 318722, Note_on_c, 0, 54, 97
4, 318725, Note_off_c, 0, 57, 64
4, 318962, Note_on_c, 0, 50, 97
4, 318965, Note_off_c, 0, 54, 64
4, 319205, Note_off_c, 0, 50, 64
4, 319442, Note_on_c, 0, 54, 97
4, 319682, Note_on_c, 0, 55, 97
4, 319685, Note_off_c, 0, 54, 64
4, 319922, Note_on_c, 0, 43, 97
4, 319925, Note_off_c, 0, 55, 64
4, 320162, Note_on_c, 0, 48, 97
4, 320165, Note_off_c, 0, 43, 64
4, 320402, Note_on_c, 0, 52, 97
4, 320405, Note_off_c, 0, 48, 64
4, 320642, Note_on_c, 0, 54, 97
4, 320645, Note_off_c, 0, 52, 64
4, 320882, Note_on_c, 0, 42, 97
4, 320885, Note_off_c, 0, 54, 64
4, 321122, Note_on_c, 0, 47, 97
4, 321125, Note_off_c, 0, 42, 64
4, 321362, Note_on_c, 0, 50, 97
4, 321365, Note_off_c, 0, 47, 64
4, 321602, Note_on_c, 0, 52, 97
4, 321605, Note_off_c, 0, 50, 64
4, 321842, Note_on_c, 0, 47, 97
4, 321845, Note_off_c, 0, 52, 64
4, 322082, Note_on_c, 0, 48, 97
4, 322085, Note_off_c, 0, 47, 64
4, 322322, Note_on_c, 0, 45, 97
4, 322325, Note_off_c, 0, 48, 64
4, 322562, Note_on_c, 0, 50, 97
4, 322565, Note_off_c, 0, 45, 64
4, 322802, Note_on_c, 0, 38, 97
4, 322805, Note_off_c, 0, 50, 64
4, 323045, Note_off_c, 0, 38, 64
4, 323282, Note_on_c, 0, 48, 97
4, 323522, Note_on_c, 0, 47, 97
4, 323525, Note_off_c, 0, 48, 64
4, 323762, Note_on_c, 0, 43, 97
4, 323765, Note_off_c, 0, 47, 64
4, 324002, Note_on_c, 0, 50, 97
4, 324005, Note_off_c, 0, 43, 64
4, 324242, Note_on_c, 0, 38, 97
4, 324245, Note_off_c, 0, 50, 64
4, 324482, Note_on_c, 0, 43, 97
4, 324485, Note_off_c, 0, 38, 64
4, 324722, Note_on_c, 0, 55, 97
4, 324725, Note_off_c, 0, 43, 64
4, 324962, Note_on_c, 0, 54, 97
4, 324965, Note_off_c, 0, 55, 64
4, 325202, Note_on_c, 0, 52, 97
4, 325205, Note_off_c, 0, 54, 64
4, 325442, Note_on_c, 0, 45, 97
4, 325445, Note_off_c, 0, 52, 64
4, 325682, Note_on_c, 0, 57, 97
4, 325685, Note_off_c, 0, 45, 64
4, 325922, Note_on_c, 0, 55, 97
4, 325925, Note_off_c, 0, 57, 64
4, 326162, Note_on_c, 0, 54, 97
4, 326165, Note_off_c, 0, 55, 64
4, 326402, Note_on_c, 0, 52, 97
4, 326405, Note_off_c, 0, 54, 64
4, 326642, Note_on_c, 0, 59, 97
4, 326645, Note_off_c, 0, 52, 64
4, 326882, Note_on_c, 0, 55, 97
4, 326885, Note_off_c, 0, 59, 64
4, 327122, Note_on_c, 0, 59, 97
4, 327125, Note_off_c, 0, 55, 64
4, 327362, Note_on_c, 0, 52, 97
4, 327365, Note_off_c, 0, 59, 64
4, 327602, Note_on_c, 0, 51, 97
4, 327605, Note_off_c, 0, 52, 64
4, 327842, Note_on_c, 0, 52, 97
4, 327845, Note_off_c, 0, 51, 64
4, 328082, Note_on_c, 0, 49, 97
4, 328085, Note_off_c, 0, 52, 64
4, 328322, Note_on_c, 0, 50, 97
4, 328325, Note_off_c, 0, 49, 64
4, 328562, Note_on_c, 0, 57, 97
4, 328565, Note_off_c, 0, 50, 64
4, 328802, Note_on_c, 0, 54, 97
4, 328805, Note_off_c, 0, 57, 64
4, 329042, Note_on_c, 0, 57, 97
4, 329045, Note_off_c, 0, 54, 64
4, 329282, Note_on_c, 0, 50, 97
4, 329285, Note_off_c, 0, 57, 64
4, 329522, Note_on_c, 0, 49, 97
4, 329525, Note_off_c, 0, 50, 64
4, 329762, Note_on_c, 0, 50, 97
4, 329765, Note_off_c, 0, 49, 64
4, 330002, Note_on_c, 0, 47, 97
4, 330005, Note_off_c, 0, 50, 64
4, 330242, Note_on_c, 0, 48, 97
4, 330245, Note_off_c, 0, 47, 64
4, 330482, Note_on_c, 0, 36, 97
4, 330485, Note_off_c, 0, 48, 64
4, 330725, Note_off_c, 0, 36, 64
4, 330962, Note_on_c, 0, 47, 97
4, 331202, Note_on_c, 0, 48, 97
4, 331205, Note_off_c, 0, 47, 64
4, 331442, Note_on_c, 0, 57, 97
4, 331445, Note_off_c, 0, 48, 64
4, 331682, Note_on_c, 0, 49, 97
4, 331685, Note_off_c, 0, 57, 64
4, 331922, Note_on_c, 0, 58, 97
4, 331925, Note_off_c, 0, 49, 64
4, 332162, Note_on_c, 0, 50, 97
4, 332165, Note_off_c, 0, 58, 64
4, 332402, Note_on_c, 0, 59, 97
4, 332405, Note_off_c, 0, 50, 64
4, 332642, Note_on_c, 0, 51, 97
4, 332645, Note_off_c, 0, 59, 64
4, 332882, Note_on_c, 0, 59, 97
4, 332885, Note_off_c, 0, 51, 64
4, 333122, Note_on_c, 0, 40, 97
4, 333125, Note_off_c, 0, 59, 64
4, 333362, Note_on_c, 0, 52, 97
4, 333365, Note_off_c, 0, 40, 64
4, 333602, Note_on_c, 0, 50, 97
4, 333605, Note_off_c, 0, 52, 64
4, 333842, Note_on_c, 0, 49, 97
4, 333845, Note_off_c, 0, 50, 64
4, 334082, Note_on_c, 0, 47, 97
4, 334085, Note_off_c, 0, 49, 64
4, 334322, Note_on_c, 0, 54, 97
4, 334325, Note_off_c, 0, 47, 64
4, 334562, Note_on_c, 0, 50, 97
4, 334565, Note_off_c, 0, 54, 64
4, 334802, Note_on_c, 0, 54, 97
4, 334805, Note_off_c, 0, 50, 64
4, 335042, Note_on_c, 0, 47, 97
4, 335045, Note_off_c, 0, 54, 64
4, 335282, Note_on_c, 0, 58, 97
4, 335285, Note_off_c, 0, 47, 64
4, 335522, Note_on_c, 0, 59, 97
4, 335525, Note_off_c, 0, 58, 64
4, 335762, Note_on_c, 0, 56, 97
4, 335765, Note_off_c, 0, 59, 64
4, 336002, Note_on_c, 0, 57, 97
4, 336005, Note_off_c, 0, 56, 64
4, 336242, Note_on_c, 0, 52, 97
4, 336245, Note_off_c, 0, 57, 64
4, 336482, Note_on_c, 0, 49, 97
4, 336485, Note_off_c, 0, 52, 64
4, 336722, Note_on_c, 0, 52, 97
4, 336725, Note_off_c, 0, 49, 64
4, 336962, Note_on_c, 0, 45, 97
4, 336965, Note_off_c, 0, 52, 64
4, 337202, Note_on_c, 0, 56, 97
4, 337205, Note_off_c, 0, 45, 64
4, 337442, Note_on_c, 0, 57, 97
4, 337445, Note_off_c, 0, 56, 64
4, 337682, Note_on_c, 0, 54, 97
4, 337685, Note_off_c, 0, 57, 64
4, 337922, Note_on_c, 0, 55, 97
4, 337925, Note_off_c, 0, 54, 64
4, 338162, Note_on_c, 0, 43, 97
4, 338165, Note_off_c, 0, 55, 64
4, 338405, Note_off_c, 0, 43, 64
4, 338642, Note_on_c, 0, 42, 97
4, 338882, Note_on_c, 0, 43, 97
4, 338885, Note_off_c, 0, 42, 64
4, 339122, Note_on_c, 0, 52, 97
4, 339125, Note_off_c, 0, 43, 64
4, 339362, Note_on_c, 0, 44, 97
4, 339365, Note_off_c, 0, 52, 64
4, 339602, Note_on_c, 0, 53, 97
4, 339605, Note_off_c, 0, 44, 64
4, 339842, Note_on_c, 0, 45, 97
4, 339845, Note_off_c, 0, 53, 64
4, 340082, Note_on_c, 0, 54, 97
4, 340085, Note_off_c, 0, 45, 64
4, 340322, Note_on_c, 0, 46, 97
4, 340325, Note_off_c, 0, 54, 64
4, 340562, Note_on_c, 0, 54, 97
4, 340565, Note_off_c, 0, 46, 64
4, 340802, Note_on_c, 0, 47, 97
4, 340805, Note_off_c, 0, 54, 64
4, 341042, Note_on_c, 0, 54, 97
4, 341045, Note_off_c, 0, 47, 64
4, 341282, Note_on_c, 0, 49, 97
4, 341285, Note_off_c, 0, 54, 64
4, 341522, Note_on_c, 0, 52, 97
4, 341525, Note_off_c, 0, 49, 64
4, 341762, Note_on_c, 0, 50, 97
4, 341765, Note_off_c, 0, 52, 64
4, 342002, Note_on_c, 0, 59, 97
4, 342005, Note_off_c, 0, 50, 64
4, 342242, Note_on_c, 0, 51, 97
4, 342245, Note_off_c, 0, 59, 64
4, 342482, Note_on_c, 0, 59, 97
4, 342485, Note_off_c, 0, 51, 64
4, 342722, Note_on_c, 0, 52, 97
4, 342725, Note_off_c, 0, 59, 64
4, 342962, Note_on_c, 0, 59, 97
4, 342965, Note_off_c, 0, 52, 64
4, 343202, Note_on_c, 0, 54, 97
4, 343205, Note_off_c, 0, 59, 64
4, 343442, Note_on_c, 0, 57, 97
4, 343445, Note_off_c, 0, 54, 64
4, 343682, Note_on_c, 0, 55, 97
4, 343685, Note_off_c, 0, 57, 64
4, 343922, Note_on_c, 0, 54, 97
4, 343925, Note_off_c, 0, 55, 64
4, 344162, Note_on_c, 0, 56, 97
4, 344165, Note_off_c, 0, 54, 64
4, 344402, Note_on_c, 0, 52, 97
4, 344405, Note_off_c, 0, 56, 64
4, 344642, Note_on_c, 0, 57, 97
4, 344645, Note_off_c, 0, 52, 64
4, 344882, Note_on_c, 0, 52, 97
4, 344885, Note_off_c, 0, 57, 64
4, 345122, Note_on_c, 0, 59, 97
4, 345125, Note_off_c, 0, 52, 64
4, 345362, Note_on_c, 0, 52, 97
4, 345365, Note_off_c, 0, 59, 64
4, 345602, Note_on_c, 0, 60, 97
4, 345605, Note_off_c, 0, 52, 64
4, 345842, Note_on_c, 0, 59, 97
4, 345845, Note_off_c, 0, 60, 64
4, 346082, Note_on_c, 0, 61, 97
4, 346085, Note_off_c, 0, 59, 64
4, 346322, Note_on_c, 0, 57, 97
4, 346325, Note_off_c, 0, 61, 64
4, 346562, Note_on_c, 0, 50, 97
4, 346565, Note_off_c, 0, 57, 64
4, 346802, Note_on_c, 0, 57, 97
4, 346805, Note_off_c, 0, 50, 64
4, 347042, Note_on_c, 0, 52, 97
4, 347045, Note_off_c, 0, 57, 64
4, 347282, Note_on_c, 0, 55, 97
4, 347285, Note_off_c, 0, 52, 64
4, 347522, Note_on_c, 0, 54, 97
4, 347525, Note_off_c, 0, 55, 64
4, 347762, Note_on_c, 0, 52, 97
4, 347765, Note_off_c, 0, 54, 64
4, 348002, Note_on_c, 0, 54, 97
4, 348005, Note_off_c, 0, 52, 64
4, 348242, Note_on_c, 0, 50, 97
4, 348245, Note_off_c, 0, 54, 64
4, 348482, Note_on_c, 0, 55, 97
4, 348485, Note_off_c, 0, 50, 64
4, 348722, Note_on_c, 0, 50, 97
4, 348725, Note_off_c, 0, 55, 64
4, 348962, Note_on_c, 0, 62, 97
4, 348965, Note_off_c, 0, 50, 64
4, 349202, Note_on_c, 0, 50, 97
4, 349205, Note_off_c, 0, 62, 64
4, 349442, Note_on_c, 0, 55, 97
4, 349445, Note_off_c, 0, 50, 64
4, 349682, Note_on_c, 0, 54, 97
4, 349685, Note_off_c, 0, 55, 64
4, 349922, Note_on_c, 0, 55, 97
4, 349925, Note_off_c, 0, 54, 64
4, 350162, Note_on_c, 0, 57, 97
4, 350165, Note_off_c, 0, 55, 64
4, 350402, Note_on_c, 0, 59, 97
4, 350405, Note_off_c, 0, 57, 64
4, 350642, Note_on_c, 0, 60, 97
4, 350645, Note_off_c, 0, 59, 64
4, 350882, Note_on_c, 0, 62, 97
4, 350885, Note_off_c, 0, 60, 64
4, 351122, Note_on_c, 0, 60, 97
4, 351125, Note_off_c, 0, 62, 64
4, 351362, Note_on_c, 0, 59, 97
4, 351365, Note_off_c, 0, 60, 64
4, 351602, Note_on_c, 0, 57, 97
4, 351605, Note_off_c, 0, 59, 64
4, 351842, Note_on_c, 0, 55, 97
4, 351845, Note_off_c, 0, 57, 64
4, 352082, Note_on_c, 0, 54, 97
4, 352085, Note_off_c, 0, 55, 64
4, 352322, Note_on_c, 0, 55, 97
4, 352325, Note_off_c, 0, 54, 64
4, 352562, Note_on_c, 0, 59, 97
4, 352565, Note_off_c, 0, 55, 64
4, 352802, Note_on_c, 0, 57, 97
4, 352805, Note_off_c, 0, 59, 64
4, 353042, Note_on_c, 0, 55, 97
4, 353045, Note_off_c, 0, 57, 64
4, 353282, Note_on_c, 0, 54, 97
4, 353285, Note_off_c, 0, 55, 64
4, 353522, Note_on_c, 0, 55, 97
4, 353525, Note_off_c, 0, 54, 64
4, 353762, Note_on_c, 0, 57, 97
4, 353765, Note_off_c, 0, 55, 64
4, 354002, Note_on_c, 0, 55, 97
4, 354005, Note_off_c, 0, 57, 64
4, 354242, Note_on_c, 0, 54, 97
4, 354245, Note_off_c, 0, 55, 64
4, 354482, Note_on_c, 0, 52, 97
4, 354485, Note_off_c, 0, 54, 64
4, 354722, Note_on_c, 0, 50, 97
4, 354725, Note_off_c, 0, 52, 64
4, 354962, Note_on_c, 0, 49, 97
4, 354965, Note_off_c, 0, 50, 64
4, 355202, Note_on_c, 0, 50, 97
4, 355205, Note_off_c, 0, 49, 64
4, 355442, Note_on_c, 0, 57, 97
4, 355445, Note_off_c, 0, 50, 64
4, 355682, Note_on_c, 0, 49, 97
4, 355685, Note_off_c, 0, 57, 64
4, 355922, Note_on_c, 0, 50, 97
4, 355925, Note_off_c, 0, 49, 64
4, 356162, Note_on_c, 0, 45, 97
4, 356165, Note_off_c, 0, 50, 64
4, 356645, Note_off_c, 0, 45, 64
4, 357122, Note_on_c, 0, 40, 97
4, 357605, Note_off_c, 0, 40, 64
4, 358082, Note_on_c, 0, 47, 97
4, 358565, Note_off_c, 0, 47, 64
4, 359042, Note_on_c, 0, 42, 97
4, 359285, Note_off_c, 0, 42, 64
4, 359522, Note_on_c, 0, 47, 97
4, 359765, Note_off_c, 0, 47, 64
4, 360002, Note_on_c, 0, 40, 97
4, 360245, Note_off_c, 0, 40, 64
4, 360482, Note_on_c, 0, 45, 97
4, 360725, Note_off_c, 0, 45, 64
4, 360962, Note_on_c, 0, 50, 97
4, 361205, Note_off_c, 0, 50, 64
4, 361442, Note_on_c, 0, 52, 97
4, 361685, Note_off_c, 0, 52, 64
4, 361922, Note_on_c, 0, 45, 97
4, 362165, Note_off_c, 0, 45, 64
4, 362402, Note_on_c, 0, 50, 97
4, 362645, Note_off_c, 0, 50, 64
4, 362882, Note_on_c, 0, 55, 97
4, 363125, Note_off_c, 0, 55, 64
4, 363362, Note_on_c, 0, 57, 97
4, 363605, Note_off_c, 0, 57, 64
4, 363842, Note_on_c, 0, 50, 97
4, 364085, Note_off_c, 0, 50, 64
4, 364322, Note_on_c, 0, 55, 97
4, 364565, Note_off_c, 0, 55, 64
4, 364802, Note_on_c, 0, 48, 97
4, 365045, Note_off_c, 0, 48, 64
4, 365282, Note_on_c, 0, 50, 97
4, 365525, Note_off_c, 0, 50, 64
4, 365762, Note_on_c, 0, 55, 97
4, 366005, Note_off_c, 0, 55, 64
4, 366242, Note_on_c, 0, 49, 97
4, 366485, Note_off_c, 0, 49, 64
4, 366722, Note_on_c, 0, 50, 97
4, 366965, Note_off_c, 0, 50, 64
4, 367202, Note_on_c, 0, 51, 97
4, 367445, Note_off_c, 0, 51, 64
4, 367682, Note_on_c, 0, 52, 97
4, 367925, Note_off_c, 0, 52, 64
4, 368162, Note_on_c, 0, 53, 97
4, 368405, Note_off_c, 0, 53, 64
4, 368642, Note_on_c, 0, 54, 97
4, 368882, Note_on_c, 0, 42, 97
4, 368885, Note_off_c, 0, 54, 64
4, 369125, Note_off_c, 0, 42, 64
4, 370322, Note_on_c, 0, 54, 97
4, 370562, Note_on_c, 0, 47, 97
4, 370565, Note_off_c, 0, 54, 64
4, 370802, Note_on_c, 0, 54, 97
4, 370805, Note_off_c, 0, 47, 64
4, 371042, Note_on_c, 0, 50, 97
4, 371045, Note_off_c, 0, 54, 64
4, 371282, Note_on_c, 0, 54, 97
4, 371285, Note_off_c, 0, 50, 64
4, 371522, Note_on_c, 0, 47, 97
4, 371525, Note_off_c, 0, 54, 64
4, 371762, Note_on_c, 0, 46, 97
4, 371765, Note_off_c, 0, 47, 64
4, 372002, Note_on_c, 0, 47, 97
4, 372005, Note_off_c, 0, 46, 64
4, 372242, Note_on_c, 0, 44, 97
4, 372245, Note_off_c, 0, 47, 64
4, 372482, Note_on_c, 0, 45, 97
4, 372485, Note_off_c, 0, 44, 64
4, 372722, Note_on_c, 0, 52, 97
4, 372725, Note_off_c, 0, 45, 64
4, 372962, Note_on_c, 0, 49, 97
4, 372965, Note_off_c, 0, 52, 64
4, 373202, Note_on_c, 0, 52, 97
4, 373205, Note_off_c, 0, 49, 64
4, 373442, Note_on_c, 0, 45, 97
4, 373445, Note_off_c, 0, 52, 64
4, 373682, Note_on_c, 0, 44, 97
4, 373685, Note_off_c, 0, 45, 64
4, 373922, Note_on_c, 0, 45, 97
4, 373925, Note_off_c, 0, 44, 64
4, 374162, Note_on_c, 0, 42, 97
4, 374165, Note_off_c, 0, 45, 64
4, 374402, Note_on_c, 0, 43, 97
4, 374405, Note_off_c, 0, 42, 64
4, 374645, Note_off_c, 0, 43, 64
4, 374882, Note_on_c, 0, 45, 97
4, 375125, Note_off_c, 0, 45, 64
4, 375362, Note_on_c, 0, 43, 97
4, 375605, Note_off_c, 0, 43, 64
4, 375842, Note_on_c, 0, 42, 97
4, 376085, Note_off_c, 0, 42, 64
4, 376322, Note_on_c, 0, 40, 97
4, 376562, Note_on_c, 0, 43, 97
4, 376565, Note_off_c, 0, 40, 64
4, 376802, Note_on_c, 0, 48, 97
4, 376805, Note_off_c, 0, 43, 64
4, 377042, Note_on_c, 0, 47, 97
4, 377045, Note_off_c, 0, 48, 64
4, 377282, Note_on_c, 0, 45, 97
4, 377285, Note_off_c, 0, 47, 64
4, 377522, Note_on_c, 0, 43, 97
4, 377525, Note_off_c, 0, 45, 64
4, 378002, Note_on_c, 0, 42, 97
4, 378005, Note_off_c, 0, 43, 64
4, 378242, Note_on_c, 0, 40, 97
4, 378245, Note_off_c, 0, 42, 64
4, 378482, Note_on_c, 0, 59, 97
4, 378485, Note_off_c, 0, 40, 64
4, 378722, Note_on_c, 0, 55, 97
4, 378725, Note_off_c, 0, 59, 64
4, 378962, Note_on_c, 0, 59, 97
4, 378965, Note_off_c, 0, 55, 64
4, 379202, Note_on_c, 0, 52, 97
4, 379205, Note_off_c, 0, 59, 64
4, 379442, Note_on_c, 0, 51, 97
4, 379445, Note_off_c, 0, 52, 64
4, 379682, Note_on_c, 0, 52, 97
4, 379685, Note_off_c, 0, 51, 64
4, 379922, Note_on_c, 0, 49, 97
4, 379925, Note_off_c, 0, 52, 64
4, 380162, Note_on_c, 0, 50, 97
4, 380165, Note_off_c, 0, 49, 64
4, 380402, Note_on_c, 0, 57, 97
4, 380405, Note_off_c, 0, 50, 64
4, 380642, Note_on_c, 0, 54, 97
4, 380645, Note_off_c, 0, 57, 64
4, 380882, Note_on_c, 0, 57, 97
4, 380885, Note_off_c, 0, 54, 64
4, 381122, Note_on_c, 0, 50, 97
4, 381125, Note_off_c, 0, 57, 64
4, 381362, Note_on_c, 0, 49, 97
4, 381365, Note_off_c, 0, 50, 64
4, 381602, Note_on_c, 0, 50, 97
4, 381605, Note_off_c, 0, 49, 64
4, 381842, Note_on_c, 0, 47, 97
4, 381845, Note_off_c, 0, 50, 64
4, 382082, Note_on_c, 0, 48, 97
4, 382085, Note_off_c, 0, 47, 64
4, 382325, Note_off_c, 0, 48, 64
4, 382562, Note_on_c, 0, 50, 97
4, 382805, Note_off_c, 0, 50, 64
4, 383042, Note_on_c, 0, 48, 97
4, 383285, Note_off_c, 0, 48, 64
4, 383522, Note_on_c, 0, 47, 97
4, 383765, Note_off_c, 0, 47, 64
4, 384002, Note_on_c, 0, 45, 97
4, 384245, Note_off_c, 0, 45, 64
4, 384482, Note_on_c, 0, 55, 97
4, 384725, Note_off_c, 0, 55, 64
4, 384962, Note_on_c, 0, 54, 97
4, 385205, Note_off_c, 0, 54, 64
4, 385442, Note_on_c, 0, 52, 97
4, 385685, Note_off_c, 0, 52, 64
4, 385922, Note_on_c, 0, 50, 97
4, 386165, Note_off_c, 0, 50, 64
4, 386402, Note_on_c, 0, 48, 97
4, 386645, Note_off_c, 0, 48, 64
4, 386882, Note_on_c, 0, 47, 97
4, 387125, Note_off_c, 0, 47, 64
4, 387362, Note_on_c, 0, 45, 97
4, 387605, Note_off_c, 0, 45, 64
4, 387842, Note_on_c, 0, 43, 97
4, 388085, Note_off_c, 0, 43, 64
4, 388322, Note_on_c, 0, 41, 97
4, 388565, Note_off_c, 0, 41, 64
4, 388802, Note_on_c, 0, 40, 97
4, 389045, Note_off_c, 0, 40, 64
4, 389282, Note_on_c, 0, 38, 97
4, 389525, Note_off_c, 0, 38, 64
4, 389762, Note_on_c, 0, 36, 97
4, 390242, Note_on_c, 0, 48, 97
4, 390245, Note_off_c, 0, 36, 64
4, 391202, Note_on_c, 0, 47, 97
4, 391205, Note_off_c, 0, 48, 64
4, 391682, Note_on_c, 0, 48, 97
4, 391685, Note_off_c, 0, 47, 64
4, 392165, Note_off_c, 0, 48, 64
4, 392402, Note_on_c, 0, 36, 97
4, 392642, Note_on_c, 0, 43, 97
4, 392645, Note_off_c, 0, 36, 64
4, 392882, Note_on_c, 0, 45, 97
4, 392885, Note_off_c, 0, 43, 64
4, 393122, Note_on_c, 0, 47, 97
4, 393125, Note_off_c, 0, 45, 64
4, 393362, Note_on_c, 0, 48, 97
4, 393365, Note_off_c, 0, 47, 64
4, 393602, Note_on_c, 0, 50, 97
4, 393605, Note_off_c, 0, 48, 64
4, 393842, Note_on_c, 0, 52, 97
4, 393845, Note_off_c, 0, 50, 64
4, 394082, Note_on_c, 0, 50, 97
4, 394085, Note_off_c, 0, 52, 64
4, 394322, Note_on_c, 0, 48, 97
4, 394325, Note_off_c, 0, 50, 64
4, 394562, Note_on_c, 0, 47, 97
4, 394565, Note_off_c, 0, 48, 64
4, 394802, Note_on_c, 0, 50, 97
4, 394805, Note_off_c, 0, 47, 64
4, 395042, Note_on_c, 0, 42, 97
4, 395045, Note_off_c, 0, 50, 64
4, 395282, Note_on_c, 0, 43, 97
4, 395285, Note_off_c, 0, 42, 64
4, 395522, Note_on_c, 0, 38, 97
4, 395525, Note_off_c, 0, 43, 64
4, 395762, Note_on_c, 0, 62, 97
4, 395765, Note_off_c, 0, 38, 64
4, 396002, Note_on_c, 0, 54, 97
4, 396005, Note_off_c, 0, 62, 64
4, 396242, Note_on_c, 0, 57, 97
4, 396245, Note_off_c, 0, 54, 64
4, 396482, Note_on_c, 0, 50, 97
4, 396485, Note_off_c, 0, 57, 64
4, 396722, Note_on_c, 0, 62, 97
4, 396725, Note_off_c, 0, 50, 64
4, 396962, Note_on_c, 0, 54, 97
4, 396965, Note_off_c, 0, 62, 64
4, 397202, Note_on_c, 0, 57, 97
4, 397205, Note_off_c, 0, 54, 64
4, 397442, Note_on_c, 0, 50, 97
4, 397445, Note_off_c, 0, 57, 64
4, 397682, Note_on_c, 0, 62, 97
4, 397685, Note_off_c, 0, 50, 64
4, 397922, Note_on_c, 0, 54, 97
4, 397925, Note_off_c, 0, 62, 64
4, 398162, Note_on_c, 0, 57, 97
4, 398165, Note_off_c, 0, 54, 64
4, 398402, Note_on_c, 0, 50, 97
4, 398405, Note_off_c, 0, 57, 64
4, 398642, Note_on_c, 0, 48, 97
4, 398645, Note_off_c, 0, 50, 64
4, 398882, Note_on_c, 0, 47, 97
4, 398885, Note_off_c, 0, 48, 64
4, 399122, Note_on_c, 0, 50, 97
4, 399125, Note_off_c, 0, 47, 64
4, 399362, Note_on_c, 0, 43, 97
4, 399365, Note_off_c, 0, 50, 64
4, 399602, Note_on_c, 0, 45, 97
4, 399605, Note_off_c, 0, 43, 64
4, 399842, Note_on_c, 0, 47, 97
4, 399845, Note_off_c, 0, 45, 64
4, 400082, Note_on_c, 0, 48, 97
4, 400085, Note_off_c, 0, 47, 64
4, 400322, Note_on_c, 0, 50, 97
4, 400325, Note_off_c, 0, 48, 64
4, 400562, Note_on_c, 0, 52, 97
4, 400565, Note_off_c, 0, 50, 64
4, 400802, Note_on_c, 0, 50, 97
4, 400805, Note_off_c, 0, 52, 64
4, 401042, Note_on_c, 0, 48, 97
4, 401045, Note_off_c, 0, 50, 64
4, 401282, Note_on_c, 0, 47, 97
4, 401285, Note_off_c, 0, 48, 64
4, 401522, Note_on_c, 0, 50, 97
4, 401525, Note_off_c, 0, 47, 64
4, 401762, Note_on_c, 0, 42, 97
4, 401765, Note_off_c, 0, 50, 64
4, 402002, Note_on_c, 0, 43, 97
4, 402005, Note_off_c, 0, 42, 64
4, 402242, Note_on_c, 0, 50, 97
4, 402245, Note_off_c, 0, 43, 64
4, 402482, Note_on_c, 0, 52, 97
4, 402485, Note_off_c, 0, 50, 64
4, 402722, Note_on_c, 0, 54, 97
4, 402725, Note_off_c, 0, 52, 64
4, 402962, Note_on_c, 0, 55, 97
4, 402965, Note_off_c, 0, 54, 64
4, 403202, Note_on_c, 0, 57, 97
4, 403205, Note_off_c, 0, 55, 64
4, 403442, Note_on_c, 0, 59, 97
4, 403445, Note_off_c, 0, 57, 64
4, 403682, Note_on_c, 0, 57, 97
4, 403685, Note_off_c, 0, 59, 64
4, 403922, Note_on_c, 0, 55, 97
4, 403925, Note_off_c, 0, 57, 64
4, 404162, Note_on_c, 0, 54, 97
4, 404165, Note_off_c, 0, 55, 64
4, 404402, Note_on_c, 0, 57, 97
4, 404405, Note_off_c, 0, 54, 64
4, 404642, Note_on_c, 0, 49, 97
4, 404645, Note_off_c, 0, 57, 64
4, 404882, Note_on_c, 0, 50, 97
4, 404885, Note_off_c, 0, 49, 64
4, 405122, Note_on_c, 0, 45, 97
4, 405125, Note_off_c, 0, 50, 64
4, 405362, Note_on_c, 0, 57, 97
4, 405365, Note_off_c, 0, 45, 64
4, 405602, Note_on_c, 0, 49, 97
4, 405605, Note_off_c, 0, 57, 64
4, 405842, Note_on_c, 0, 52, 97
4, 405845, Note_off_c, 0, 49, 64
4, 406082, Note_on_c, 0, 45, 97
4, 406085, Note_off_c, 0, 52, 64
4, 406322, Note_on_c, 0, 57, 97
4, 406325, Note_off_c, 0, 45, 64
4, 406562, Note_on_c, 0, 49, 97
4, 406565, Note_off_c, 0, 57, 64
4, 406802, Note_on_c, 0, 52, 97
4, 406805, Note_off_c, 0, 49, 64
4, 407042, Note_on_c, 0, 45, 97
4, 407045, Note_off_c, 0, 52, 64
4, 407282, Note_on_c, 0, 57, 97
4, 407285, Note_off_c, 0, 45, 64
4, 407522, Note_on_c, 0, 49, 97
4, 407525, Note_off_c, 0, 57, 64
4, 407762, Note_on_c, 0, 52, 97
4, 407765, Note_off_c, 0, 49, 64
4, 408002, Note_on_c, 0, 45, 97
4, 408005, Note_off_c, 0, 52, 64
4, 408242, Note_on_c, 0, 55, 97
4, 408245, Note_off_c, 0, 45, 64
4, 408482, Note_on_c, 0, 54, 97
4, 408485, Note_off_c, 0, 55, 64
4, 408722, Note_on_c, 0, 57, 97
4, 408725, Note_off_c, 0, 54, 64
4, 408962, Note_on_c, 0, 50, 97
4, 408965, Note_off_c, 0, 57, 64
4, 409202, Note_on_c, 0, 59, 97
4, 409205, Note_off_c, 0, 50, 64
4, 409442, Note_on_c, 0, 51, 97
4, 409445, Note_off_c, 0, 59, 64
4, 409682, Note_on_c, 0, 54, 97
4, 409685, Note_off_c, 0, 51, 64
4, 409922, Note_on_c, 0, 47, 97
4, 409925, Note_off_c, 0, 54, 64
4, 410162, Note_on_c, 0, 59, 97
4, 410165, Note_off_c, 0, 47, 64
4, 410402, Note_on_c, 0, 51, 97
4, 410405, Note_off_c, 0, 59, 64
4, 410642, Note_on_c, 0, 54, 97
4, 410645, Note_off_c, 0, 51, 64
4, 410882, Note_on_c, 0, 47, 97
4, 410885, Note_off_c, 0, 54, 64
4, 411122, Note_on_c, 0, 59, 97
4, 411125, Note_off_c, 0, 47, 64
4, 411362, Note_on_c, 0, 51, 97
4, 411365, Note_off_c, 0, 59, 64
4, 411602, Note_on_c, 0, 54, 97
4, 411605, Note_off_c, 0, 51, 64
4, 411842, Note_on_c, 0, 47, 97
4, 411845, Note_off_c, 0, 54, 64
4, 412082, Note_on_c, 0, 57, 97
4, 412085, Note_off_c, 0, 47, 64
4, 412322, Note_on_c, 0, 55, 97
4, 412325, Note_off_c, 0, 57, 64
4, 412562, Note_on_c, 0, 59, 97
4, 412565, Note_off_c, 0, 55, 64
4, 412802, Note_on_c, 0, 52, 97
4, 412805, Note_off_c, 0, 59, 64
4, 413042, Note_on_c, 0, 50, 97
4, 413045, Note_off_c, 0, 52, 64
4, 413282, Note_on_c, 0, 49, 97
4, 413285, Note_off_c, 0, 50, 64
4, 413522, Note_on_c, 0, 45, 97
4, 413525, Note_off_c, 0, 49, 64
4, 413762, Note_on_c, 0, 50, 97
4, 413765, Note_off_c, 0, 45, 64
4, 414002, Note_on_c, 0, 48, 97
4, 414005, Note_off_c, 0, 50, 64
4, 414242, Note_on_c, 0, 47, 97
4, 414245, Note_off_c, 0, 48, 64
4, 414482, Note_on_c, 0, 43, 97
4, 414485, Note_off_c, 0, 47, 64
4, 414722, Note_on_c, 0, 48, 97
4, 414725, Note_off_c, 0, 43, 64
4, 414962, Note_on_c, 0, 40, 97
4, 414965, Note_off_c, 0, 48, 64
4, 415202, Note_on_c, 0, 42, 97
4, 415205, Note_off_c, 0, 40, 64
4, 415442, Note_on_c, 0, 38, 97
4, 415445, Note_off_c, 0, 42, 64
4, 415682, Note_on_c, 0, 43, 97
4, 415685, Note_off_c, 0, 38, 64
4, 415922, Note_on_c, 0, 50, 97
4, 415925, Note_off_c, 0, 43, 64
4, 416162, Note_on_c, 0, 42, 97
4, 416165, Note_off_c, 0, 50, 64
4, 416402, Note_on_c, 0, 43, 97
4, 416405, Note_off_c, 0, 42, 64
4, 416642, Note_on_c, 0, 38, 97
4, 416645, Note_off_c, 0, 43, 64
4, 417125, Note_off_c, 0, 38, 64
4, 417602, Note_on_c, 0, 55, 97
4, 418322, Note_on_c, 0, 57, 97
4, 418325, Note_off_c, 0, 55, 64
4, 418562, Note_on_c, 0, 50, 97
4, 418565, Note_off_c, 0, 57, 64
4, 418802, Note_on_c, 0, 60, 97
4, 418805, Note_off_c, 0, 50, 64
4, 419042, Note_on_c, 0, 59, 97
4, 419045, Note_off_c, 0, 60, 64
4, 419282, Note_on_c, 0, 57, 97
4, 419285, Note_off_c, 0, 59, 64
4, 419522, Note_on_c, 0, 59, 97
4, 419525, Note_off_c, 0, 57, 64
4, 419762, Note_on_c, 0, 62, 97
4, 419765, Note_off_c, 0, 59, 64
4, 420002, Note_on_c, 0, 60, 97
4, 420005, Note_off_c, 0, 62, 64
4, 420242, Note_on_c, 0, 59, 97
4, 420245, Note_off_c, 0, 60, 64
4, 420482, Note_on_c, 0, 57, 97
4, 420485, Note_off_c, 0, 59, 64
4, 420722, Note_on_c, 0, 50, 97
4, 420725, Note_off_c, 0, 57, 64
4, 420965, Note_off_c, 0, 50, 64
4, 421202, Note_on_c, 0, 51, 97
4, 421442, Note_on_c, 0, 52, 97
4, 421445, Note_off_c, 0, 51, 64
4, 422162, Note_on_c, 0, 54, 97
4, 422165, Note_off_c, 0, 52, 64
4, 422402, Note_on_c, 0, 47, 97
4, 422405, Note_off_c, 0, 54, 64
4, 422642, Note_on_c, 0, 57, 97
4, 422645, Note_off_c, 0, 47, 64
4, 422882, Note_on_c, 0, 55, 97
4, 422885, Note_off_c, 0, 57, 64
4, 423122, Note_on_c, 0, 54, 97
4, 423125, Note_off_c, 0, 55, 64
4, 423362, Note_on_c, 0, 55, 97
4, 423365, Note_off_c, 0, 54, 64
4, 423602, Note_on_c, 0, 59, 97
4, 423605, Note_off_c, 0, 55, 64
4, 423842, Note_on_c, 0, 57, 97
4, 423845, Note_off_c, 0, 59, 64
4, 424082, Note_on_c, 0, 55, 97
4, 424085, Note_off_c, 0, 57, 64
4, 424322, Note_on_c, 0, 54, 97
4, 424325, Note_off_c, 0, 55, 64
4, 424562, Note_on_c, 0, 47, 97
4, 424565, Note_off_c, 0, 54, 64
4, 424805, Note_off_c, 0, 47, 64
4, 425042, Note_on_c, 0, 47, 97
4, 425282, Note_on_c, 0, 48, 97
4, 425285, Note_off_c, 0, 47, 64
4, 426002, Note_on_c, 0, 50, 97
4, 426005, Note_off_c, 0, 48, 64
4, 426242, Note_on_c, 0, 43, 97
4, 426245, Note_off_c, 0, 50, 64
4, 426482, Note_on_c, 0, 53, 97
4, 426485, Note_off_c, 0, 43, 64
4, 426722, Note_on_c, 0, 52, 97
4, 426725, Note_off_c, 0, 53, 64
4, 426962, Note_on_c, 0, 50, 97
4, 426965, Note_off_c, 0, 52, 64
4, 427202, Note_on_c, 0, 52, 97
4, 427205, Note_off_c, 0, 50, 64
4, 427442, Note_on_c, 0, 55, 97
4, 427445, Note_off_c, 0, 52, 64
4, 427682, Note_on_c, 0, 54, 97
4, 427685, Note_off_c, 0, 55, 64
4, 427922, Note_on_c, 0, 52, 97
4, 427925, Note_off_c, 0, 54, 64
4, 428162, Note_on_c, 0, 54, 97
4, 428165, Note_off_c, 0, 52, 64
4, 428402, Note_on_c, 0, 57, 97
4, 428405, Note_off_c, 0, 54, 64
4, 428642, Note_on_c, 0, 55, 97
4, 428645, Note_off_c, 0, 57, 64
4, 428882, Note_on_c, 0, 54, 97
4, 428885, Note_off_c, 0, 55, 64
4, 429122, Note_on_c, 0, 55, 97
4, 429125, Note_off_c, 0, 54, 64
4, 429362, Note_on_c, 0, 52, 97
4, 429365, Note_off_c, 0, 55, 64
4, 429602, Note_on_c, 0, 50, 97
4, 429605, Note_off_c, 0, 52, 64
4, 429842, Note_on_c, 0, 48, 97
4, 429845, Note_off_c, 0, 50, 64
4, 430082, Note_on_c, 0, 47, 97
4, 430085, Note_off_c, 0, 48, 64
4, 430322, Note_on_c, 0, 45, 97
4, 430325, Note_off_c, 0, 47, 64
4, 430562, Note_on_c, 0, 43, 97
4, 430565, Note_off_c, 0, 45, 64
4, 430802, Note_on_c, 0, 42, 97
4, 430805, Note_off_c, 0, 43, 64
4, 431042, Note_on_c, 0, 43, 97
4, 431045, Note_off_c, 0, 42, 64
4, 431282, Note_on_c, 0, 55, 97
4, 431285, Note_off_c, 0, 43, 64
4, 431522, Note_on_c, 0, 52, 97
4, 431525, Note_off_c, 0, 55, 64
4, 431762, Note_on_c, 0, 57, 97
4, 431765, Note_off_c, 0, 52, 64
4, 432002, Note_on_c, 0, 54, 97
4, 432005, Note_off_c, 0, 57, 64
4, 432242, Note_on_c, 0, 50, 97
4, 432245, Note_off_c, 0, 54, 64
4, 432485, Note_off_c, 0, 50, 64
4, 432722, Note_on_c, 0, 54, 97
4, 432962, Note_on_c, 0, 55, 97
4, 432965, Note_off_c, 0, 54, 64
4, 433202, Note_on_c, 0, 43, 97
4, 433205, Note_off_c, 0, 55, 64
4, 433442, Note_on_c, 0, 48, 97
4, 433445, Note_off_c, 0, 43, 64
4, 433682, Note_on_c, 0, 52, 97
4, 433685, Note_off_c, 0, 48, 64
4, 433922, Note_on_c, 0, 54, 97
4, 433925, Note_off_c, 0, 52, 64
4, 434162, Note_on_c, 0, 42, 97
4, 434165, Note_off_c, 0, 54, 64
4, 434402, Note_on_c, 0, 47, 97
4, 434405, Note_off_c, 0, 42, 64
4, 434642, Note_on_c, 0, 50, 97
4, 434645, Note_off_c, 0, 47, 64
4, 434882, Note_on_c, 0, 52, 97
4, 434885, Note_off_c, 0, 50, 64
4, 435122, Note_on_c, 0, 47, 97
4, 435125, Note_off_c, 0, 52, 64
4, 435362, Note_on_c, 0, 48, 97
4, 435365, Note_off_c, 0, 47, 64
4, 435602, Note_on_c, 0, 45, 97
4, 435605, Note_off_c, 0, 48, 64
4, 435842, Note_on_c, 0, 50, 97
4, 435845, Note_off_c, 0, 45, 64
4, 436082, Note_on_c, 0, 38, 97
4, 436085, Note_off_c, 0, 50, 64
4, 436325, Note_off_c, 0, 38, 64
4, 436562, Note_on_c, 0, 48, 97
4, 436802, Note_on_c, 0, 47, 97
4, 436805, Note_off_c, 0, 48, 64
4, 437042, Note_on_c, 0, 43, 97
4, 437045, Note_off_c, 0, 47, 64
4, 437282, Note_on_c, 0, 50, 97
4, 437285, Note_off_c, 0, 43, 64
4, 437522, Note_on_c, 0, 38, 97
4, 437525, Note_off_c, 0, 50, 64
4, 437762, Note_on_c, 0, 43, 97
4, 437765, Note_off_c, 0, 38, 64
4, 438725, Note_off_c, 0, 43, 64
4, 438848, End_track
0, 0, End_of_file
