0, 0, Header, 1, 17, 240
1, 0, Start_track
1, 0, Sequencer_specific, 10, 0, 0, 91, 35, 1, 0, 5, 6, 42, 0
1, 0, Title_t, "J. S. Bach - Orchestral Suite No.3 in D Major BWV1068"
1, 0, Instrument_name_t, "Conductor Track"
1, 0, SMPTE_offset, 96, 0, 3, 0, 0
1, 0, MIDI_port, 0
1, 0, Marker_t, "Originally sequenced 1 Dec 1999"
1, 0, Tempo, 357142
1, 0, Key_signature, 2, "major"
1, 0, Time_signature, 1, 2, 24, 8
1, 240, Time_signature, 4, 2, 24, 8
1, 59760, Tempo, 357142
1, 59787, Tempo, 359281
1, 59813, Tempo, 361445
1, 59840, Tempo, 363636
1, 59867, Tempo, 365853
1, 59893, Tempo, 368098
1, 59920, Tempo, 370370
1, 59947, Tempo, 372670
1, 59973, Tempo, 375000
1, 60000, Tempo, 377358
1, 60027, Tempo, 379746
1, 60053, Tempo, 382165
1, 60080, Tempo, 384615
1, 60107, Tempo, 387096
1, 60133, Tempo, 389610
1, 60160, Tempo, 392156
1, 60187, Tempo, 394736
1, 60213, Tempo, 397350
1, 60240, Tempo, 400000
1, 60267, Tempo, 402684
1, 60293, Tempo, 405405
1, 60320, Tempo, 408163
1, 60347, Tempo, 410958
1, 60373, Tempo, 413793
1, 60400, Tempo, 416666
1, 60427, Tempo, 419580
1, 60453, Tempo, 422535
1, 60480, Tempo, 425531
1, 60507, Tempo, 428571
1, 60533, Tempo, 431654
1, 60560, Tempo, 434782
1, 60587, Tempo, 437956
1, 60613, Tempo, 441176
1, 60640, Tempo, 444444
1, 60667, Tempo, 447761
1, 60693, Tempo, 451127
1, 60720, Tempo, 454545
1, 61440, Tempo, 3000000
1, 61920, Tempo, 3000000
1, 61920, End_track
2, 0, Start_track
2, 0, Title_t, "4th Movement - Bourrée"
2, 0, MIDI_port, 0
2, 0, End_track
3, 0, Start_track
3, 0, Title_t, "Sequenced by D. L. Viens 31 Dec 1999"
3, 0, MIDI_port, 0
3, 0, End_track
4, 0, Start_track
4, 0, Title_t, "dlviens@empire.net"
4, 0, MIDI_port, 0
4, 0, End_track
5, 0, Start_track
5, 0, MIDI_port, 0
5, 0, End_track
6, 0, Start_track
6, 0, Title_t, "Trumpet I in D"
6, 0, MIDI_port, 0
6, 0, Program_c, 0, 56
6, 0, Control_c, 0, 10, 54
6, 0, Control_c, 0, 11, 127
6, 0, Control_c, 0, 7, 96
6, 480, Note_on_c, 0, 69, 76
6, 704, Note_on_c, 0, 69, 0
6, 720, Note_on_c, 0, 74, 76
6, 959, Note_on_c, 0, 74, 0
6, 1440, Note_on_c, 0, 69, 76
6, 1664, Note_on_c, 0, 69, 0
6, 1680, Note_on_c, 0, 74, 76
6, 1919, Note_on_c, 0, 74, 0
6, 2400, Note_on_c, 0, 78, 76
6, 2504, Note_on_c, 0, 78, 0
6, 2520, Note_on_c, 0, 76, 76
6, 2624, Note_on_c, 0, 76, 0
6, 2640, Note_on_c, 0, 78, 76
6, 2864, Note_on_c, 0, 78, 0
6, 2880, Note_on_c, 0, 80, 76
6, 3104, Note_on_c, 0, 80, 0
6, 3120, Note_on_c, 0, 81, 76
6, 3224, Note_on_c, 0, 81, 0
6, 3240, Note_on_c, 0, 80, 76
6, 3344, Note_on_c, 0, 80, 0
6, 3360, Note_on_c, 0, 81, 76
6, 3464, Note_on_c, 0, 81, 0
6, 3480, Note_on_c, 0, 83, 76
6, 3584, Note_on_c, 0, 83, 0
6, 3600, Note_on_c, 0, 81, 76
6, 3839, Note_on_c, 0, 81, 0
6, 4320, Note_on_c, 0, 78, 76
6, 4544, Note_on_c, 0, 78, 0
6, 4560, Note_on_c, 0, 83, 76
6, 4799, Note_on_c, 0, 83, 0
6, 5280, Note_on_c, 0, 76, 76
6, 5504, Note_on_c, 0, 76, 0
6, 5520, Note_on_c, 0, 83, 76
6, 5759, Note_on_c, 0, 83, 0
6, 6240, Note_on_c, 0, 81, 76
6, 6464, Note_on_c, 0, 81, 0
6, 6480, Note_on_c, 0, 85, 76
6, 6584, Note_on_c, 0, 85, 0
6, 6600, Note_on_c, 0, 83, 76
6, 6704, Note_on_c, 0, 83, 0
6, 6720, Note_on_c, 0, 81, 76
6, 6824, Note_on_c, 0, 81, 0
6, 6840, Note_on_c, 0, 80, 76
6, 6944, Note_on_c, 0, 80, 0
6, 6960, Note_on_c, 0, 81, 76
6, 7679, Note_on_c, 0, 81, 0
6, 8160, Note_on_c, 0, 69, 76
6, 8384, Note_on_c, 0, 69, 0
6, 8400, Note_on_c, 0, 74, 76
6, 8639, Note_on_c, 0, 74, 0
6, 9120, Note_on_c, 0, 69, 76
6, 9344, Note_on_c, 0, 69, 0
6, 9360, Note_on_c, 0, 74, 76
6, 9599, Note_on_c, 0, 74, 0
6, 10080, Note_on_c, 0, 78, 76
6, 10184, Note_on_c, 0, 78, 0
6, 10200, Note_on_c, 0, 76, 76
6, 10304, Note_on_c, 0, 76, 0
6, 10320, Note_on_c, 0, 78, 76
6, 10544, Note_on_c, 0, 78, 0
6, 10560, Note_on_c, 0, 80, 76
6, 10784, Note_on_c, 0, 80, 0
6, 10800, Note_on_c, 0, 81, 76
6, 10904, Note_on_c, 0, 81, 0
6, 10920, Note_on_c, 0, 80, 76
6, 11024, Note_on_c, 0, 80, 0
6, 11040, Note_on_c, 0, 81, 76
6, 11144, Note_on_c, 0, 81, 0
6, 11160, Note_on_c, 0, 83, 76
6, 11264, Note_on_c, 0, 83, 0
6, 11280, Note_on_c, 0, 81, 76
6, 11519, Note_on_c, 0, 81, 0
6, 12000, Note_on_c, 0, 78, 76
6, 12224, Note_on_c, 0, 78, 0
6, 12240, Note_on_c, 0, 83, 76
6, 12479, Note_on_c, 0, 83, 0
6, 12960, Note_on_c, 0, 76, 76
6, 13184, Note_on_c, 0, 76, 0
6, 13200, Note_on_c, 0, 83, 76
6, 13439, Note_on_c, 0, 83, 0
6, 13920, Note_on_c, 0, 81, 76
6, 14144, Note_on_c, 0, 81, 0
6, 14160, Note_on_c, 0, 85, 76
6, 14264, Note_on_c, 0, 85, 0
6, 14280, Note_on_c, 0, 83, 76
6, 14384, Note_on_c, 0, 83, 0
6, 14400, Note_on_c, 0, 81, 76
6, 14504, Note_on_c, 0, 81, 0
6, 14520, Note_on_c, 0, 80, 76
6, 14624, Note_on_c, 0, 80, 0
6, 14640, Note_on_c, 0, 81, 76
6, 15359, Note_on_c, 0, 81, 0
6, 15840, Note_on_c, 0, 76, 76
6, 16064, Note_on_c, 0, 76, 0
6, 16080, Note_on_c, 0, 81, 76
6, 16319, Note_on_c, 0, 81, 0
6, 16800, Note_on_c, 0, 76, 76
6, 17024, Note_on_c, 0, 76, 0
6, 17040, Note_on_c, 0, 81, 76
6, 17279, Note_on_c, 0, 81, 0
6, 17760, Note_on_c, 0, 74, 76
6, 17984, Note_on_c, 0, 74, 0
6, 18000, Note_on_c, 0, 79, 76
6, 18224, Note_on_c, 0, 79, 0
6, 18240, Note_on_c, 0, 78, 76
6, 18344, Note_on_c, 0, 78, 0
6, 18360, Note_on_c, 0, 76, 76
6, 18464, Note_on_c, 0, 76, 0
6, 18480, Note_on_c, 0, 78, 76
6, 18584, Note_on_c, 0, 78, 0
6, 18600, Note_on_c, 0, 79, 76
6, 18704, Note_on_c, 0, 79, 0
6, 18720, Note_on_c, 0, 78, 76
6, 18824, Note_on_c, 0, 78, 0
6, 18840, Note_on_c, 0, 76, 76
6, 18944, Note_on_c, 0, 76, 0
6, 18960, Note_on_c, 0, 74, 76
6, 19199, Note_on_c, 0, 74, 0
6, 27360, Note_on_c, 0, 69, 76
6, 27584, Note_on_c, 0, 69, 0
6, 27600, Note_on_c, 0, 74, 76
6, 27839, Note_on_c, 0, 74, 0
6, 28320, Note_on_c, 0, 69, 76
6, 28544, Note_on_c, 0, 69, 0
6, 28560, Note_on_c, 0, 74, 76
6, 28799, Note_on_c, 0, 74, 0
6, 29280, Note_on_c, 0, 78, 76
6, 29384, Note_on_c, 0, 78, 0
6, 29400, Note_on_c, 0, 79, 76
6, 29504, Note_on_c, 0, 79, 0
6, 29520, Note_on_c, 0, 81, 76
6, 29624, Note_on_c, 0, 81, 0
6, 29640, Note_on_c, 0, 83, 76
6, 29744, Note_on_c, 0, 83, 0
6, 29760, Note_on_c, 0, 81, 76
6, 29864, Note_on_c, 0, 81, 0
6, 29880, Note_on_c, 0, 83, 76
6, 29984, Note_on_c, 0, 83, 0
6, 30000, Note_on_c, 0, 79, 76
6, 30104, Note_on_c, 0, 79, 0
6, 30120, Note_on_c, 0, 81, 76
6, 30224, Note_on_c, 0, 81, 0
6, 30240, Note_on_c, 0, 83, 76
6, 30344, Note_on_c, 0, 83, 0
6, 30360, Note_on_c, 0, 81, 76
6, 30464, Note_on_c, 0, 81, 0
6, 30480, Note_on_c, 0, 79, 76
6, 30719, Note_on_c, 0, 79, 0
6, 35040, Note_on_c, 0, 78, 76
6, 35264, Note_on_c, 0, 78, 0
6, 35280, Note_on_c, 0, 83, 76
6, 35519, Note_on_c, 0, 83, 0
6, 36000, Note_on_c, 0, 83, 76
6, 36224, Note_on_c, 0, 83, 0
6, 36240, Note_on_c, 0, 86, 76
6, 36479, Note_on_c, 0, 86, 0
6, 36960, Note_on_c, 0, 81, 76
6, 37064, Note_on_c, 0, 81, 0
6, 37080, Note_on_c, 0, 79, 76
6, 37184, Note_on_c, 0, 79, 0
6, 37200, Note_on_c, 0, 78, 76
6, 37304, Note_on_c, 0, 78, 0
6, 37320, Note_on_c, 0, 79, 76
6, 37424, Note_on_c, 0, 79, 0
6, 37440, Note_on_c, 0, 81, 76
6, 37544, Note_on_c, 0, 81, 0
6, 37560, Note_on_c, 0, 79, 76
6, 37664, Note_on_c, 0, 79, 0
6, 37680, Note_on_c, 0, 78, 76
6, 38399, Note_on_c, 0, 78, 0
6, 38880, Note_on_c, 0, 76, 76
6, 39104, Note_on_c, 0, 76, 0
6, 39120, Note_on_c, 0, 81, 76
6, 39359, Note_on_c, 0, 81, 0
6, 39840, Note_on_c, 0, 76, 76
6, 40064, Note_on_c, 0, 76, 0
6, 40080, Note_on_c, 0, 81, 76
6, 40319, Note_on_c, 0, 81, 0
6, 40800, Note_on_c, 0, 74, 76
6, 41024, Note_on_c, 0, 74, 0
6, 41040, Note_on_c, 0, 79, 76
6, 41264, Note_on_c, 0, 79, 0
6, 41280, Note_on_c, 0, 78, 76
6, 41384, Note_on_c, 0, 78, 0
6, 41400, Note_on_c, 0, 76, 76
6, 41504, Note_on_c, 0, 76, 0
6, 41520, Note_on_c, 0, 78, 76
6, 41624, Note_on_c, 0, 78, 0
6, 41640, Note_on_c, 0, 79, 76
6, 41744, Note_on_c, 0, 79, 0
6, 41760, Note_on_c, 0, 78, 76
6, 41864, Note_on_c, 0, 78, 0
6, 41880, Note_on_c, 0, 76, 76
6, 41984, Note_on_c, 0, 76, 0
6, 42000, Note_on_c, 0, 74, 76
6, 42239, Note_on_c, 0, 74, 0
6, 50400, Note_on_c, 0, 69, 76
6, 50624, Note_on_c, 0, 69, 0
6, 50640, Note_on_c, 0, 74, 76
6, 50879, Note_on_c, 0, 74, 0
6, 51360, Note_on_c, 0, 69, 76
6, 51584, Note_on_c, 0, 69, 0
6, 51600, Note_on_c, 0, 74, 76
6, 51839, Note_on_c, 0, 74, 0
6, 52320, Note_on_c, 0, 78, 76
6, 52424, Note_on_c, 0, 78, 0
6, 52440, Note_on_c, 0, 79, 76
6, 52544, Note_on_c, 0, 79, 0
6, 52560, Note_on_c, 0, 81, 76
6, 52664, Note_on_c, 0, 81, 0
6, 52680, Note_on_c, 0, 83, 76
6, 52784, Note_on_c, 0, 83, 0
6, 52800, Note_on_c, 0, 81, 76
6, 52904, Note_on_c, 0, 81, 0
6, 52920, Note_on_c, 0, 83, 76
6, 53024, Note_on_c, 0, 83, 0
6, 53040, Note_on_c, 0, 79, 76
6, 53144, Note_on_c, 0, 79, 0
6, 53160, Note_on_c, 0, 81, 76
6, 53264, Note_on_c, 0, 81, 0
6, 53280, Note_on_c, 0, 83, 76
6, 53384, Note_on_c, 0, 83, 0
6, 53400, Note_on_c, 0, 81, 76
6, 53504, Note_on_c, 0, 81, 0
6, 53520, Note_on_c, 0, 79, 76
6, 53759, Note_on_c, 0, 79, 0
6, 58080, Note_on_c, 0, 78, 76
6, 58304, Note_on_c, 0, 78, 0
6, 58320, Note_on_c, 0, 83, 76
6, 58559, Note_on_c, 0, 83, 0
6, 59040, Note_on_c, 0, 83, 76
6, 59264, Note_on_c, 0, 83, 0
6, 59280, Note_on_c, 0, 86, 76
6, 59519, Note_on_c, 0, 86, 0
6, 60000, Note_on_c, 0, 81, 76
6, 60104, Note_on_c, 0, 81, 0
6, 60120, Note_on_c, 0, 79, 76
6, 60224, Note_on_c, 0, 79, 0
6, 60240, Note_on_c, 0, 78, 76
6, 60344, Note_on_c, 0, 78, 0
6, 60360, Note_on_c, 0, 79, 76
6, 60464, Note_on_c, 0, 79, 0
6, 60480, Note_on_c, 0, 81, 76
6, 60584, Note_on_c, 0, 81, 0
6, 60600, Note_on_c, 0, 79, 76
6, 60704, Note_on_c, 0, 79, 0
6, 60720, Note_on_c, 0, 78, 76
6, 61439, Note_on_c, 0, 78, 0
6, 61439, End_track
7, 0, Start_track
7, 0, Title_t, "Trumpet II in D"
7, 0, MIDI_port, 0
7, 0, Program_c, 1, 56
7, 0, Control_c, 1, 10, 64
7, 0, Control_c, 1, 11, 127
7, 0, Control_c, 1, 7, 96
7, 480, Note_on_c, 1, 66, 76
7, 704, Note_on_c, 1, 66, 0
7, 720, Note_on_c, 1, 69, 76
7, 959, Note_on_c, 1, 69, 0
7, 1440, Note_on_c, 1, 66, 76
7, 1664, Note_on_c, 1, 66, 0
7, 1680, Note_on_c, 1, 69, 76
7, 1919, Note_on_c, 1, 69, 0
7, 2400, Note_on_c, 1, 74, 76
7, 2504, Note_on_c, 1, 74, 0
7, 2520, Note_on_c, 1, 73, 76
7, 2624, Note_on_c, 1, 73, 0
7, 2640, Note_on_c, 1, 74, 76
7, 2864, Note_on_c, 1, 74, 0
7, 2880, Note_on_c, 1, 74, 76
7, 3104, Note_on_c, 1, 74, 0
7, 3120, Note_on_c, 1, 76, 76
7, 3344, Note_on_c, 1, 76, 0
7, 3360, Note_on_c, 1, 69, 76
7, 3464, Note_on_c, 1, 69, 0
7, 3480, Note_on_c, 1, 69, 76
7, 3584, Note_on_c, 1, 69, 0
7, 3600, Note_on_c, 1, 69, 76
7, 3839, Note_on_c, 1, 69, 0
7, 4320, Note_on_c, 1, 74, 76
7, 4544, Note_on_c, 1, 74, 0
7, 4560, Note_on_c, 1, 78, 76
7, 4799, Note_on_c, 1, 78, 0
7, 5280, Note_on_c, 1, 76, 76
7, 5504, Note_on_c, 1, 76, 0
7, 5520, Note_on_c, 1, 76, 76
7, 5759, Note_on_c, 1, 76, 0
7, 6240, Note_on_c, 1, 76, 76
7, 6464, Note_on_c, 1, 76, 0
7, 6480, Note_on_c, 1, 78, 76
7, 6704, Note_on_c, 1, 78, 0
7, 6720, Note_on_c, 1, 76, 76
7, 6944, Note_on_c, 1, 76, 0
7, 6960, Note_on_c, 1, 76, 76
7, 7679, Note_on_c, 1, 76, 0
7, 8160, Note_on_c, 1, 66, 76
7, 8384, Note_on_c, 1, 66, 0
7, 8400, Note_on_c, 1, 69, 76
7, 8639, Note_on_c, 1, 69, 0
7, 9120, Note_on_c, 1, 66, 76
7, 9344, Note_on_c, 1, 66, 0
7, 9360, Note_on_c, 1, 69, 76
7, 9599, Note_on_c, 1, 69, 0
7, 10080, Note_on_c, 1, 74, 76
7, 10184, Note_on_c, 1, 74, 0
7, 10200, Note_on_c, 1, 73, 76
7, 10304, Note_on_c, 1, 73, 0
7, 10320, Note_on_c, 1, 74, 76
7, 10544, Note_on_c, 1, 74, 0
7, 10560, Note_on_c, 1, 74, 76
7, 10784, Note_on_c, 1, 74, 0
7, 10800, Note_on_c, 1, 76, 76
7, 11024, Note_on_c, 1, 76, 0
7, 11040, Note_on_c, 1, 69, 76
7, 11144, Note_on_c, 1, 69, 0
7, 11160, Note_on_c, 1, 69, 76
7, 11264, Note_on_c, 1, 69, 0
7, 11280, Note_on_c, 1, 69, 76
7, 11519, Note_on_c, 1, 69, 0
7, 12000, Note_on_c, 1, 74, 76
7, 12224, Note_on_c, 1, 74, 0
7, 12240, Note_on_c, 1, 78, 76
7, 12479, Note_on_c, 1, 78, 0
7, 12960, Note_on_c, 1, 76, 76
7, 13184, Note_on_c, 1, 76, 0
7, 13200, Note_on_c, 1, 76, 76
7, 13439, Note_on_c, 1, 76, 0
7, 13920, Note_on_c, 1, 76, 76
7, 14144, Note_on_c, 1, 76, 0
7, 14160, Note_on_c, 1, 78, 76
7, 14384, Note_on_c, 1, 78, 0
7, 14400, Note_on_c, 1, 76, 76
7, 14624, Note_on_c, 1, 76, 0
7, 14640, Note_on_c, 1, 76, 76
7, 15359, Note_on_c, 1, 76, 0
7, 15840, Note_on_c, 1, 69, 76
7, 16064, Note_on_c, 1, 69, 0
7, 16080, Note_on_c, 1, 76, 76
7, 16319, Note_on_c, 1, 76, 0
7, 16800, Note_on_c, 1, 69, 76
7, 17024, Note_on_c, 1, 69, 0
7, 17040, Note_on_c, 1, 76, 76
7, 17279, Note_on_c, 1, 76, 0
7, 17760, Note_on_c, 1, 78, 76
7, 17984, Note_on_c, 1, 78, 0
7, 18000, Note_on_c, 1, 76, 76
7, 18224, Note_on_c, 1, 76, 0
7, 18240, Note_on_c, 1, 76, 76
7, 18464, Note_on_c, 1, 76, 0
7, 18480, Note_on_c, 1, 74, 76
7, 18704, Note_on_c, 1, 74, 0
7, 18720, Note_on_c, 1, 74, 76
7, 18824, Note_on_c, 1, 74, 0
7, 18840, Note_on_c, 1, 74, 76
7, 18944, Note_on_c, 1, 74, 0
7, 18960, Note_on_c, 1, 69, 76
7, 19199, Note_on_c, 1, 69, 0
7, 27360, Note_on_c, 1, 66, 76
7, 27584, Note_on_c, 1, 66, 0
7, 27600, Note_on_c, 1, 62, 76
7, 27839, Note_on_c, 1, 62, 0
7, 28320, Note_on_c, 1, 66, 76
7, 28544, Note_on_c, 1, 66, 0
7, 28560, Note_on_c, 1, 69, 76
7, 28799, Note_on_c, 1, 69, 0
7, 29280, Note_on_c, 1, 74, 76
7, 29384, Note_on_c, 1, 74, 0
7, 29400, Note_on_c, 1, 76, 76
7, 29504, Note_on_c, 1, 76, 0
7, 29520, Note_on_c, 1, 78, 76
7, 29624, Note_on_c, 1, 78, 0
7, 29640, Note_on_c, 1, 79, 76
7, 29744, Note_on_c, 1, 79, 0
7, 29760, Note_on_c, 1, 78, 76
7, 29864, Note_on_c, 1, 78, 0
7, 29880, Note_on_c, 1, 76, 76
7, 29984, Note_on_c, 1, 76, 0
7, 30000, Note_on_c, 1, 74, 76
7, 30239, Note_on_c, 1, 74, 0
7, 35040, Note_on_c, 1, 74, 76
7, 35264, Note_on_c, 1, 74, 0
7, 35280, Note_on_c, 1, 78, 76
7, 35519, Note_on_c, 1, 78, 0
7, 36000, Note_on_c, 1, 76, 76
7, 36224, Note_on_c, 1, 76, 0
7, 36240, Note_on_c, 1, 83, 76
7, 36479, Note_on_c, 1, 83, 0
7, 36960, Note_on_c, 1, 78, 76
7, 37064, Note_on_c, 1, 78, 0
7, 37080, Note_on_c, 1, 76, 76
7, 37184, Note_on_c, 1, 76, 0
7, 37200, Note_on_c, 1, 74, 76
7, 37424, Note_on_c, 1, 74, 0
7, 37440, Note_on_c, 1, 76, 76
7, 37664, Note_on_c, 1, 76, 0
7, 37680, Note_on_c, 1, 74, 76
7, 38399, Note_on_c, 1, 74, 0
7, 38880, Note_on_c, 1, 69, 76
7, 39104, Note_on_c, 1, 69, 0
7, 39120, Note_on_c, 1, 76, 76
7, 39359, Note_on_c, 1, 76, 0
7, 39840, Note_on_c, 1, 69, 76
7, 40064, Note_on_c, 1, 69, 0
7, 40080, Note_on_c, 1, 76, 76
7, 40319, Note_on_c, 1, 76, 0
7, 40800, Note_on_c, 1, 78, 76
7, 41024, Note_on_c, 1, 78, 0
7, 41040, Note_on_c, 1, 76, 76
7, 41264, Note_on_c, 1, 76, 0
7, 41280, Note_on_c, 1, 76, 76
7, 41504, Note_on_c, 1, 76, 0
7, 41520, Note_on_c, 1, 74, 76
7, 41744, Note_on_c, 1, 74, 0
7, 41760, Note_on_c, 1, 74, 76
7, 41864, Note_on_c, 1, 74, 0
7, 41880, Note_on_c, 1, 74, 76
7, 41984, Note_on_c, 1, 74, 0
7, 42000, Note_on_c, 1, 69, 76
7, 42239, Note_on_c, 1, 69, 0
7, 50400, Note_on_c, 1, 66, 76
7, 50624, Note_on_c, 1, 66, 0
7, 50640, Note_on_c, 1, 62, 76
7, 50879, Note_on_c, 1, 62, 0
7, 51360, Note_on_c, 1, 66, 76
7, 51584, Note_on_c, 1, 66, 0
7, 51600, Note_on_c, 1, 69, 76
7, 51839, Note_on_c, 1, 69, 0
7, 52320, Note_on_c, 1, 74, 76
7, 52424, Note_on_c, 1, 74, 0
7, 52440, Note_on_c, 1, 76, 76
7, 52544, Note_on_c, 1, 76, 0
7, 52560, Note_on_c, 1, 78, 76
7, 52664, Note_on_c, 1, 78, 0
7, 52680, Note_on_c, 1, 79, 76
7, 52784, Note_on_c, 1, 79, 0
7, 52800, Note_on_c, 1, 78, 76
7, 52904, Note_on_c, 1, 78, 0
7, 52920, Note_on_c, 1, 76, 76
7, 53024, Note_on_c, 1, 76, 0
7, 53040, Note_on_c, 1, 74, 76
7, 53279, Note_on_c, 1, 74, 0
7, 58080, Note_on_c, 1, 74, 76
7, 58304, Note_on_c, 1, 74, 0
7, 58320, Note_on_c, 1, 78, 76
7, 58559, Note_on_c, 1, 78, 0
7, 59040, Note_on_c, 1, 76, 76
7, 59264, Note_on_c, 1, 76, 0
7, 59280, Note_on_c, 1, 83, 76
7, 59519, Note_on_c, 1, 83, 0
7, 60000, Note_on_c, 1, 78, 76
7, 60104, Note_on_c, 1, 78, 0
7, 60120, Note_on_c, 1, 76, 76
7, 60224, Note_on_c, 1, 76, 0
7, 60240, Note_on_c, 1, 74, 76
7, 60464, Note_on_c, 1, 74, 0
7, 60480, Note_on_c, 1, 76, 76
7, 60704, Note_on_c, 1, 76, 0
7, 60720, Note_on_c, 1, 74, 76
7, 61439, Note_on_c, 1, 74, 0
7, 61439, End_track
8, 0, Start_track
8, 0, Title_t, "Trumpet III in D"
8, 0, MIDI_port, 0
8, 0, Program_c, 2, 56
8, 0, Control_c, 2, 10, 74
8, 0, Control_c, 2, 11, 127
8, 0, Control_c, 2, 7, 96
8, 480, Note_on_c, 2, 62, 76
8, 704, Note_on_c, 2, 62, 0
8, 720, Note_on_c, 2, 66, 76
8, 959, Note_on_c, 2, 66, 0
8, 1440, Note_on_c, 2, 62, 76
8, 1664, Note_on_c, 2, 62, 0
8, 1680, Note_on_c, 2, 66, 76
8, 1919, Note_on_c, 2, 66, 0
8, 2400, Note_on_c, 2, 66, 76
8, 2624, Note_on_c, 2, 66, 0
8, 2640, Note_on_c, 2, 62, 76
8, 2864, Note_on_c, 2, 62, 0
8, 2880, Note_on_c, 2, 62, 76
8, 3104, Note_on_c, 2, 62, 0
8, 3120, Note_on_c, 2, 69, 76
8, 3344, Note_on_c, 2, 69, 0
8, 3360, Note_on_c, 2, 69, 76
8, 3464, Note_on_c, 2, 69, 0
8, 3480, Note_on_c, 2, 69, 76
8, 3584, Note_on_c, 2, 69, 0
8, 3600, Note_on_c, 2, 69, 76
8, 3839, Note_on_c, 2, 69, 0
8, 4320, Note_on_c, 2, 66, 76
8, 4544, Note_on_c, 2, 66, 0
8, 4560, Note_on_c, 2, 74, 76
8, 4799, Note_on_c, 2, 74, 0
8, 5280, Note_on_c, 2, 74, 76
8, 5504, Note_on_c, 2, 74, 0
8, 5520, Note_on_c, 2, 74, 76
8, 5759, Note_on_c, 2, 74, 0
8, 6240, Note_on_c, 2, 69, 76
8, 6464, Note_on_c, 2, 69, 0
8, 6480, Note_on_c, 2, 74, 76
8, 6704, Note_on_c, 2, 74, 0
8, 6720, Note_on_c, 2, 74, 76
8, 6944, Note_on_c, 2, 74, 0
8, 6960, Note_on_c, 2, 69, 76
8, 7679, Note_on_c, 2, 69, 0
8, 8160, Note_on_c, 2, 62, 76
8, 8384, Note_on_c, 2, 62, 0
8, 8400, Note_on_c, 2, 66, 76
8, 8639, Note_on_c, 2, 66, 0
8, 9120, Note_on_c, 2, 62, 76
8, 9344, Note_on_c, 2, 62, 0
8, 9360, Note_on_c, 2, 66, 76
8, 9599, Note_on_c, 2, 66, 0
8, 10080, Note_on_c, 2, 66, 76
8, 10304, Note_on_c, 2, 66, 0
8, 10320, Note_on_c, 2, 62, 76
8, 10544, Note_on_c, 2, 62, 0
8, 10560, Note_on_c, 2, 62, 76
8, 10784, Note_on_c, 2, 62, 0
8, 10800, Note_on_c, 2, 69, 76
8, 11024, Note_on_c, 2, 69, 0
8, 11040, Note_on_c, 2, 69, 76
8, 11144, Note_on_c, 2, 69, 0
8, 11160, Note_on_c, 2, 69, 76
8, 11264, Note_on_c, 2, 69, 0
8, 11280, Note_on_c, 2, 69, 76
8, 11519, Note_on_c, 2, 69, 0
8, 12000, Note_on_c, 2, 66, 76
8, 12224, Note_on_c, 2, 66, 0
8, 12240, Note_on_c, 2, 74, 76
8, 12479, Note_on_c, 2, 74, 0
8, 12960, Note_on_c, 2, 74, 76
8, 13184, Note_on_c, 2, 74, 0
8, 13200, Note_on_c, 2, 74, 76
8, 13439, Note_on_c, 2, 74, 0
8, 13920, Note_on_c, 2, 69, 76
8, 14144, Note_on_c, 2, 69, 0
8, 14160, Note_on_c, 2, 74, 76
8, 14384, Note_on_c, 2, 74, 0
8, 14400, Note_on_c, 2, 74, 76
8, 14624, Note_on_c, 2, 74, 0
8, 14640, Note_on_c, 2, 69, 76
8, 15359, Note_on_c, 2, 69, 0
8, 15840, Note_on_c, 2, 69, 76
8, 15944, Note_on_c, 2, 69, 0
8, 15960, Note_on_c, 2, 69, 76
8, 16064, Note_on_c, 2, 69, 0
8, 16080, Note_on_c, 2, 69, 76
8, 16319, Note_on_c, 2, 69, 0
8, 16800, Note_on_c, 2, 69, 76
8, 16904, Note_on_c, 2, 69, 0
8, 16920, Note_on_c, 2, 69, 76
8, 17024, Note_on_c, 2, 69, 0
8, 17040, Note_on_c, 2, 69, 76
8, 17279, Note_on_c, 2, 69, 0
8, 17760, Note_on_c, 2, 74, 76
8, 17984, Note_on_c, 2, 74, 0
8, 18000, Note_on_c, 2, 74, 76
8, 18224, Note_on_c, 2, 74, 0
8, 18240, Note_on_c, 2, 69, 76
8, 18464, Note_on_c, 2, 69, 0
8, 18480, Note_on_c, 2, 69, 76
8, 18704, Note_on_c, 2, 69, 0
8, 18720, Note_on_c, 2, 69, 76
8, 18824, Note_on_c, 2, 69, 0
8, 18840, Note_on_c, 2, 69, 76
8, 18944, Note_on_c, 2, 69, 0
8, 18960, Note_on_c, 2, 66, 76
8, 19199, Note_on_c, 2, 66, 0
8, 27360, Note_on_c, 2, 62, 76
8, 27584, Note_on_c, 2, 62, 0
8, 27600, Note_on_c, 2, 69, 76
8, 27839, Note_on_c, 2, 69, 0
8, 28320, Note_on_c, 2, 62, 76
8, 28544, Note_on_c, 2, 62, 0
8, 28560, Note_on_c, 2, 62, 76
8, 28799, Note_on_c, 2, 62, 0
8, 29280, Note_on_c, 2, 69, 76
8, 29504, Note_on_c, 2, 69, 0
8, 29520, Note_on_c, 2, 74, 76
8, 29744, Note_on_c, 2, 74, 0
8, 29760, Note_on_c, 2, 62, 76
8, 29984, Note_on_c, 2, 62, 0
8, 30000, Note_on_c, 2, 62, 76
8, 30239, Note_on_c, 2, 62, 0
8, 35040, Note_on_c, 2, 66, 76
8, 35264, Note_on_c, 2, 66, 0
8, 35280, Note_on_c, 2, 62, 76
8, 35519, Note_on_c, 2, 62, 0
8, 36000, Note_on_c, 2, 74, 76
8, 36224, Note_on_c, 2, 74, 0
8, 36240, Note_on_c, 2, 76, 76
8, 36479, Note_on_c, 2, 76, 0
8, 36960, Note_on_c, 2, 69, 76
8, 37064, Note_on_c, 2, 69, 0
8, 37080, Note_on_c, 2, 69, 76
8, 37184, Note_on_c, 2, 69, 0
8, 37200, Note_on_c, 2, 69, 76
8, 37424, Note_on_c, 2, 69, 0
8, 37440, Note_on_c, 2, 69, 76
8, 37664, Note_on_c, 2, 69, 0
8, 37680, Note_on_c, 2, 69, 76
8, 38399, Note_on_c, 2, 69, 0
8, 38880, Note_on_c, 2, 69, 76
8, 38984, Note_on_c, 2, 69, 0
8, 39000, Note_on_c, 2, 69, 76
8, 39104, Note_on_c, 2, 69, 0
8, 39120, Note_on_c, 2, 69, 76
8, 39359, Note_on_c, 2, 69, 0
8, 39840, Note_on_c, 2, 69, 76
8, 39944, Note_on_c, 2, 69, 0
8, 39960, Note_on_c, 2, 69, 76
8, 40064, Note_on_c, 2, 69, 0
8, 40080, Note_on_c, 2, 69, 76
8, 40319, Note_on_c, 2, 69, 0
8, 40800, Note_on_c, 2, 74, 76
8, 41024, Note_on_c, 2, 74, 0
8, 41040, Note_on_c, 2, 74, 76
8, 41264, Note_on_c, 2, 74, 0
8, 41280, Note_on_c, 2, 69, 76
8, 41504, Note_on_c, 2, 69, 0
8, 41520, Note_on_c, 2, 69, 76
8, 41744, Note_on_c, 2, 69, 0
8, 41760, Note_on_c, 2, 69, 76
8, 41864, Note_on_c, 2, 69, 0
8, 41880, Note_on_c, 2, 69, 76
8, 41984, Note_on_c, 2, 69, 0
8, 42000, Note_on_c, 2, 66, 76
8, 42239, Note_on_c, 2, 66, 0
8, 50400, Note_on_c, 2, 62, 76
8, 50624, Note_on_c, 2, 62, 0
8, 50640, Note_on_c, 2, 69, 76
8, 50879, Note_on_c, 2, 69, 0
8, 51360, Note_on_c, 2, 62, 76
8, 51584, Note_on_c, 2, 62, 0
8, 51600, Note_on_c, 2, 62, 76
8, 51839, Note_on_c, 2, 62, 0
8, 52320, Note_on_c, 2, 69, 76
8, 52544, Note_on_c, 2, 69, 0
8, 52560, Note_on_c, 2, 74, 76
8, 52784, Note_on_c, 2, 74, 0
8, 52800, Note_on_c, 2, 62, 76
8, 53024, Note_on_c, 2, 62, 0
8, 53040, Note_on_c, 2, 62, 76
8, 53279, Note_on_c, 2, 62, 0
8, 58080, Note_on_c, 2, 66, 76
8, 58304, Note_on_c, 2, 66, 0
8, 58320, Note_on_c, 2, 62, 76
8, 58559, Note_on_c, 2, 62, 0
8, 59040, Note_on_c, 2, 74, 76
8, 59264, Note_on_c, 2, 74, 0
8, 59280, Note_on_c, 2, 76, 76
8, 59519, Note_on_c, 2, 76, 0
8, 60000, Note_on_c, 2, 69, 76
8, 60104, Note_on_c, 2, 69, 0
8, 60120, Note_on_c, 2, 69, 76
8, 60224, Note_on_c, 2, 69, 0
8, 60240, Note_on_c, 2, 69, 76
8, 60464, Note_on_c, 2, 69, 0
8, 60480, Note_on_c, 2, 69, 76
8, 60704, Note_on_c, 2, 69, 0
8, 60720, Note_on_c, 2, 69, 76
8, 61439, Note_on_c, 2, 69, 0
8, 61439, End_track
9, 0, Start_track
9, 0, Title_t, "Timpani"
9, 0, MIDI_port, 0
9, 0, Program_c, 3, 47
9, 0, Control_c, 3, 10, 25
9, 0, Control_c, 3, 11, 127
9, 0, Control_c, 3, 7, 96
9, 480, Note_on_c, 3, 50, 76
9, 599, Note_on_c, 3, 50, 0
9, 600, Note_on_c, 3, 50, 76
9, 719, Note_on_c, 3, 50, 0
9, 720, Note_on_c, 3, 50, 76
9, 959, Note_on_c, 3, 50, 0
9, 1440, Note_on_c, 3, 50, 76
9, 1559, Note_on_c, 3, 50, 0
9, 1560, Note_on_c, 3, 50, 76
9, 1679, Note_on_c, 3, 50, 0
9, 1680, Note_on_c, 3, 50, 76
9, 1919, Note_on_c, 3, 50, 0
9, 2400, Note_on_c, 3, 50, 76
9, 2519, Note_on_c, 3, 50, 0
9, 2520, Note_on_c, 3, 50, 76
9, 2639, Note_on_c, 3, 50, 0
9, 2640, Note_on_c, 3, 50, 76
9, 2879, Note_on_c, 3, 50, 0
9, 2880, Note_on_c, 3, 50, 76
9, 3119, Note_on_c, 3, 50, 0
9, 3120, Note_on_c, 3, 45, 76
9, 3359, Note_on_c, 3, 45, 0
9, 3360, Note_on_c, 3, 45, 76
9, 3479, Note_on_c, 3, 45, 0
9, 3480, Note_on_c, 3, 45, 76
9, 3599, Note_on_c, 3, 45, 0
9, 3600, Note_on_c, 3, 45, 76
9, 3839, Note_on_c, 3, 45, 0
9, 4320, Note_on_c, 3, 50, 76
9, 4439, Note_on_c, 3, 50, 0
9, 4440, Note_on_c, 3, 50, 76
9, 4559, Note_on_c, 3, 50, 0
9, 4560, Note_on_c, 3, 50, 76
9, 4799, Note_on_c, 3, 50, 0
9, 5280, Note_on_c, 3, 50, 76
9, 5399, Note_on_c, 3, 50, 0
9, 5400, Note_on_c, 3, 50, 76
9, 5519, Note_on_c, 3, 50, 0
9, 5520, Note_on_c, 3, 50, 76
9, 5759, Note_on_c, 3, 50, 0
9, 6240, Note_on_c, 3, 45, 76
9, 6479, Note_on_c, 3, 45, 0
9, 6480, Note_on_c, 3, 50, 76
9, 6719, Note_on_c, 3, 50, 0
9, 6960, Note_on_c, 3, 45, 76
9, 7679, Note_on_c, 3, 45, 0
9, 8160, Note_on_c, 3, 50, 76
9, 8279, Note_on_c, 3, 50, 0
9, 8280, Note_on_c, 3, 50, 76
9, 8399, Note_on_c, 3, 50, 0
9, 8400, Note_on_c, 3, 50, 76
9, 8639, Note_on_c, 3, 50, 0
9, 9120, Note_on_c, 3, 50, 76
9, 9239, Note_on_c, 3, 50, 0
9, 9240, Note_on_c, 3, 50, 76
9, 9359, Note_on_c, 3, 50, 0
9, 9360, Note_on_c, 3, 50, 76
9, 9599, Note_on_c, 3, 50, 0
9, 10080, Note_on_c, 3, 50, 76
9, 10199, Note_on_c, 3, 50, 0
9, 10200, Note_on_c, 3, 50, 76
9, 10319, Note_on_c, 3, 50, 0
9, 10320, Note_on_c, 3, 50, 76
9, 10559, Note_on_c, 3, 50, 0
9, 10560, Note_on_c, 3, 50, 76
9, 10799, Note_on_c, 3, 50, 0
9, 10800, Note_on_c, 3, 45, 76
9, 11039, Note_on_c, 3, 45, 0
9, 11040, Note_on_c, 3, 45, 76
9, 11159, Note_on_c, 3, 45, 0
9, 11160, Note_on_c, 3, 45, 76
9, 11279, Note_on_c, 3, 45, 0
9, 11280, Note_on_c, 3, 45, 76
9, 11519, Note_on_c, 3, 45, 0
9, 12000, Note_on_c, 3, 50, 76
9, 12119, Note_on_c, 3, 50, 0
9, 12120, Note_on_c, 3, 50, 76
9, 12239, Note_on_c, 3, 50, 0
9, 12240, Note_on_c, 3, 50, 76
9, 12479, Note_on_c, 3, 50, 0
9, 12960, Note_on_c, 3, 50, 76
9, 13079, Note_on_c, 3, 50, 0
9, 13080, Note_on_c, 3, 50, 76
9, 13199, Note_on_c, 3, 50, 0
9, 13200, Note_on_c, 3, 50, 76
9, 13439, Note_on_c, 3, 50, 0
9, 13920, Note_on_c, 3, 45, 76
9, 14159, Note_on_c, 3, 45, 0
9, 14160, Note_on_c, 3, 50, 76
9, 14399, Note_on_c, 3, 50, 0
9, 14640, Note_on_c, 3, 45, 76
9, 15359, Note_on_c, 3, 45, 0
9, 15840, Note_on_c, 3, 45, 76
9, 15959, Note_on_c, 3, 45, 0
9, 15960, Note_on_c, 3, 45, 76
9, 16079, Note_on_c, 3, 45, 0
9, 16080, Note_on_c, 3, 45, 76
9, 16319, Note_on_c, 3, 45, 0
9, 16800, Note_on_c, 3, 45, 76
9, 16919, Note_on_c, 3, 45, 0
9, 16920, Note_on_c, 3, 45, 76
9, 17039, Note_on_c, 3, 45, 0
9, 17040, Note_on_c, 3, 45, 76
9, 17279, Note_on_c, 3, 45, 0
9, 17760, Note_on_c, 3, 50, 76
9, 17999, Note_on_c, 3, 50, 0
9, 18000, Note_on_c, 3, 50, 76
9, 18239, Note_on_c, 3, 50, 0
9, 18240, Note_on_c, 3, 45, 76
9, 18479, Note_on_c, 3, 45, 0
9, 18480, Note_on_c, 3, 50, 76
9, 18719, Note_on_c, 3, 50, 0
9, 18720, Note_on_c, 3, 50, 76
9, 18839, Note_on_c, 3, 50, 0
9, 18840, Note_on_c, 3, 50, 76
9, 18959, Note_on_c, 3, 50, 0
9, 18960, Note_on_c, 3, 50, 76
9, 19199, Note_on_c, 3, 50, 0
9, 27360, Note_on_c, 3, 50, 76
9, 27479, Note_on_c, 3, 50, 0
9, 27480, Note_on_c, 3, 50, 76
9, 27599, Note_on_c, 3, 50, 0
9, 27600, Note_on_c, 3, 50, 76
9, 27839, Note_on_c, 3, 50, 0
9, 28320, Note_on_c, 3, 50, 76
9, 28439, Note_on_c, 3, 50, 0
9, 28440, Note_on_c, 3, 50, 76
9, 28559, Note_on_c, 3, 50, 0
9, 28560, Note_on_c, 3, 50, 76
9, 28799, Note_on_c, 3, 50, 0
9, 29280, Note_on_c, 3, 50, 76
9, 29399, Note_on_c, 3, 50, 0
9, 29400, Note_on_c, 3, 50, 76
9, 29519, Note_on_c, 3, 50, 0
9, 29520, Note_on_c, 3, 50, 76
9, 29759, Note_on_c, 3, 50, 0
9, 29760, Note_on_c, 3, 50, 76
9, 29999, Note_on_c, 3, 50, 0
9, 30000, Note_on_c, 3, 50, 76
9, 30239, Note_on_c, 3, 50, 0
9, 35040, Note_on_c, 3, 50, 76
9, 35159, Note_on_c, 3, 50, 0
9, 35160, Note_on_c, 3, 50, 76
9, 35279, Note_on_c, 3, 50, 0
9, 35280, Note_on_c, 3, 50, 76
9, 35519, Note_on_c, 3, 50, 0
9, 36000, Note_on_c, 3, 50, 76
9, 36119, Note_on_c, 3, 50, 0
9, 36120, Note_on_c, 3, 50, 76
9, 36239, Note_on_c, 3, 50, 0
9, 36240, Note_on_c, 3, 50, 76
9, 36479, Note_on_c, 3, 50, 0
9, 36960, Note_on_c, 3, 50, 76
9, 37079, Note_on_c, 3, 50, 0
9, 37080, Note_on_c, 3, 50, 76
9, 37199, Note_on_c, 3, 50, 0
9, 37200, Note_on_c, 3, 45, 76
9, 37439, Note_on_c, 3, 45, 0
9, 37440, Note_on_c, 3, 45, 76
9, 37679, Note_on_c, 3, 45, 0
9, 37680, Note_on_c, 3, 50, 76
9, 38399, Note_on_c, 3, 50, 0
9, 38880, Note_on_c, 3, 45, 76
9, 38999, Note_on_c, 3, 45, 0
9, 39000, Note_on_c, 3, 45, 76
9, 39119, Note_on_c, 3, 45, 0
9, 39120, Note_on_c, 3, 45, 76
9, 39359, Note_on_c, 3, 45, 0
9, 39840, Note_on_c, 3, 45, 76
9, 39959, Note_on_c, 3, 45, 0
9, 39960, Note_on_c, 3, 45, 76
9, 40079, Note_on_c, 3, 45, 0
9, 40080, Note_on_c, 3, 45, 76
9, 40319, Note_on_c, 3, 45, 0
9, 40800, Note_on_c, 3, 50, 76
9, 41039, Note_on_c, 3, 50, 0
9, 41040, Note_on_c, 3, 50, 76
9, 41279, Note_on_c, 3, 50, 0
9, 41280, Note_on_c, 3, 45, 76
9, 41519, Note_on_c, 3, 45, 0
9, 41520, Note_on_c, 3, 50, 76
9, 41759, Note_on_c, 3, 50, 0
9, 41760, Note_on_c, 3, 50, 76
9, 41879, Note_on_c, 3, 50, 0
9, 41880, Note_on_c, 3, 50, 76
9, 41999, Note_on_c, 3, 50, 0
9, 42000, Note_on_c, 3, 50, 76
9, 42239, Note_on_c, 3, 50, 0
9, 50400, Note_on_c, 3, 50, 76
9, 50519, Note_on_c, 3, 50, 0
9, 50520, Note_on_c, 3, 50, 76
9, 50639, Note_on_c, 3, 50, 0
9, 50640, Note_on_c, 3, 50, 76
9, 50879, Note_on_c, 3, 50, 0
9, 51360, Note_on_c, 3, 50, 76
9, 51479, Note_on_c, 3, 50, 0
9, 51480, Note_on_c, 3, 50, 76
9, 51599, Note_on_c, 3, 50, 0
9, 51600, Note_on_c, 3, 50, 76
9, 51839, Note_on_c, 3, 50, 0
9, 52320, Note_on_c, 3, 50, 76
9, 52439, Note_on_c, 3, 50, 0
9, 52440, Note_on_c, 3, 50, 76
9, 52559, Note_on_c, 3, 50, 0
9, 52560, Note_on_c, 3, 50, 76
9, 52799, Note_on_c, 3, 50, 0
9, 52800, Note_on_c, 3, 50, 76
9, 53039, Note_on_c, 3, 50, 0
9, 53040, Note_on_c, 3, 50, 76
9, 53279, Note_on_c, 3, 50, 0
9, 58080, Note_on_c, 3, 50, 76
9, 58199, Note_on_c, 3, 50, 0
9, 58200, Note_on_c, 3, 50, 76
9, 58319, Note_on_c, 3, 50, 0
9, 58320, Note_on_c, 3, 50, 76
9, 58559, Note_on_c, 3, 50, 0
9, 59040, Note_on_c, 3, 50, 76
9, 59159, Note_on_c, 3, 50, 0
9, 59160, Note_on_c, 3, 50, 76
9, 59279, Note_on_c, 3, 50, 0
9, 59280, Note_on_c, 3, 50, 76
9, 59519, Note_on_c, 3, 50, 0
9, 60000, Note_on_c, 3, 50, 76
9, 60119, Note_on_c, 3, 50, 0
9, 60120, Note_on_c, 3, 50, 76
9, 60239, Note_on_c, 3, 50, 0
9, 60240, Note_on_c, 3, 45, 76
9, 60479, Note_on_c, 3, 45, 0
9, 60480, Note_on_c, 3, 45, 76
9, 60719, Note_on_c, 3, 45, 0
9, 60720, Note_on_c, 3, 50, 76
9, 61439, Note_on_c, 3, 50, 0
9, 61439, End_track
10, 0, Start_track
10, 0, Title_t, "Oboe I"
10, 0, MIDI_port, 0
10, 0, Program_c, 4, 68
10, 0, Control_c, 4, 10, 59
10, 0, Control_c, 4, 11, 127
10, 0, Control_c, 4, 7, 80
10, 0, Note_on_c, 4, 66, 76
10, 104, Note_on_c, 4, 66, 0
10, 120, Note_on_c, 4, 67, 76
10, 224, Note_on_c, 4, 67, 0
10, 240, Note_on_c, 4, 69, 76
10, 464, Note_on_c, 4, 69, 0
10, 480, Note_on_c, 4, 74, 76
10, 704, Note_on_c, 4, 74, 0
10, 720, Note_on_c, 4, 69, 76
10, 959, Note_on_c, 4, 69, 0
10, 960, Note_on_c, 4, 67, 76
10, 1199, Note_on_c, 4, 67, 0
10, 1200, Note_on_c, 4, 66, 76
10, 1424, Note_on_c, 4, 66, 0
10, 1440, Note_on_c, 4, 74, 76
10, 1664, Note_on_c, 4, 74, 0
10, 1680, Note_on_c, 4, 66, 76
10, 1919, Note_on_c, 4, 66, 0
10, 1920, Note_on_c, 4, 64, 76
10, 2159, Note_on_c, 4, 64, 0
10, 2160, Note_on_c, 4, 62, 76
10, 2384, Note_on_c, 4, 62, 0
10, 2400, Note_on_c, 4, 66, 76
10, 2504, Note_on_c, 4, 66, 0
10, 2520, Note_on_c, 4, 64, 76
10, 2624, Note_on_c, 4, 64, 0
10, 2640, Note_on_c, 4, 66, 76
10, 2864, Note_on_c, 4, 66, 0
10, 2880, Note_on_c, 4, 68, 76
10, 3104, Note_on_c, 4, 68, 0
10, 3120, Note_on_c, 4, 69, 76
10, 3224, Note_on_c, 4, 69, 0
10, 3240, Note_on_c, 4, 68, 76
10, 3344, Note_on_c, 4, 68, 0
10, 3360, Note_on_c, 4, 69, 76
10, 3464, Note_on_c, 4, 69, 0
10, 3480, Note_on_c, 4, 71, 76
10, 3584, Note_on_c, 4, 71, 0
10, 3600, Note_on_c, 4, 69, 76
10, 3704, Note_on_c, 4, 69, 0
10, 3720, Note_on_c, 4, 67, 76
10, 3824, Note_on_c, 4, 67, 0
10, 3840, Note_on_c, 4, 66, 76
10, 3944, Note_on_c, 4, 66, 0
10, 3960, Note_on_c, 4, 64, 76
10, 4064, Note_on_c, 4, 64, 0
10, 4080, Note_on_c, 4, 66, 76
10, 4304, Note_on_c, 4, 66, 0
10, 4320, Note_on_c, 4, 78, 76
10, 4544, Note_on_c, 4, 78, 0
10, 4560, Note_on_c, 4, 71, 76
10, 4799, Note_on_c, 4, 71, 0
10, 4800, Note_on_c, 4, 69, 76
10, 5039, Note_on_c, 4, 69, 0
10, 5040, Note_on_c, 4, 68, 76
10, 5264, Note_on_c, 4, 68, 0
10, 5280, Note_on_c, 4, 83, 76
10, 5504, Note_on_c, 4, 83, 0
10, 5520, Note_on_c, 4, 76, 76
10, 5759, Note_on_c, 4, 76, 0
10, 5760, Note_on_c, 4, 74, 76
10, 5999, Note_on_c, 4, 74, 0
10, 6000, Note_on_c, 4, 73, 76
10, 6104, Note_on_c, 4, 73, 0
10, 6120, Note_on_c, 4, 71, 76
10, 6224, Note_on_c, 4, 71, 0
10, 6240, Note_on_c, 4, 73, 76
10, 6344, Note_on_c, 4, 73, 0
10, 6360, Note_on_c, 4, 74, 76
10, 6464, Note_on_c, 4, 74, 0
10, 6480, Note_on_c, 4, 73, 76
10, 6584, Note_on_c, 4, 73, 0
10, 6600, Note_on_c, 4, 71, 76
10, 6704, Note_on_c, 4, 71, 0
10, 6720, Note_on_c, 4, 69, 76
10, 6824, Note_on_c, 4, 69, 0
10, 6840, Note_on_c, 4, 68, 76
10, 6944, Note_on_c, 4, 68, 0
10, 6960, Note_on_c, 4, 69, 76
10, 7664, Note_on_c, 4, 69, 0
10, 7680, Note_on_c, 4, 66, 76
10, 7784, Note_on_c, 4, 66, 0
10, 7800, Note_on_c, 4, 67, 76
10, 7904, Note_on_c, 4, 67, 0
10, 7920, Note_on_c, 4, 69, 76
10, 8144, Note_on_c, 4, 69, 0
10, 8160, Note_on_c, 4, 74, 76
10, 8384, Note_on_c, 4, 74, 0
10, 8400, Note_on_c, 4, 69, 76
10, 8639, Note_on_c, 4, 69, 0
10, 8640, Note_on_c, 4, 67, 76
10, 8879, Note_on_c, 4, 67, 0
10, 8880, Note_on_c, 4, 66, 76
10, 9104, Note_on_c, 4, 66, 0
10, 9120, Note_on_c, 4, 74, 76
10, 9344, Note_on_c, 4, 74, 0
10, 9360, Note_on_c, 4, 66, 76
10, 9599, Note_on_c, 4, 66, 0
10, 9600, Note_on_c, 4, 64, 76
10, 9839, Note_on_c, 4, 64, 0
10, 9840, Note_on_c, 4, 62, 76
10, 10064, Note_on_c, 4, 62, 0
10, 10080, Note_on_c, 4, 66, 76
10, 10184, Note_on_c, 4, 66, 0
10, 10200, Note_on_c, 4, 64, 76
10, 10304, Note_on_c, 4, 64, 0
10, 10320, Note_on_c, 4, 66, 76
10, 10544, Note_on_c, 4, 66, 0
10, 10560, Note_on_c, 4, 68, 76
10, 10784, Note_on_c, 4, 68, 0
10, 10800, Note_on_c, 4, 69, 76
10, 10904, Note_on_c, 4, 69, 0
10, 10920, Note_on_c, 4, 68, 76
10, 11024, Note_on_c, 4, 68, 0
10, 11040, Note_on_c, 4, 69, 76
10, 11144, Note_on_c, 4, 69, 0
10, 11160, Note_on_c, 4, 71, 76
10, 11264, Note_on_c, 4, 71, 0
10, 11280, Note_on_c, 4, 69, 76
10, 11384, Note_on_c, 4, 69, 0
10, 11400, Note_on_c, 4, 67, 76
10, 11504, Note_on_c, 4, 67, 0
10, 11520, Note_on_c, 4, 66, 76
10, 11624, Note_on_c, 4, 66, 0
10, 11640, Note_on_c, 4, 64, 76
10, 11744, Note_on_c, 4, 64, 0
10, 11760, Note_on_c, 4, 66, 76
10, 11984, Note_on_c, 4, 66, 0
10, 12000, Note_on_c, 4, 78, 76
10, 12224, Note_on_c, 4, 78, 0
10, 12240, Note_on_c, 4, 71, 76
10, 12479, Note_on_c, 4, 71, 0
10, 12480, Note_on_c, 4, 69, 76
10, 12719, Note_on_c, 4, 69, 0
10, 12720, Note_on_c, 4, 68, 76
10, 12944, Note_on_c, 4, 68, 0
10, 12960, Note_on_c, 4, 83, 76
10, 13184, Note_on_c, 4, 83, 0
10, 13200, Note_on_c, 4, 76, 76
10, 13439, Note_on_c, 4, 76, 0
10, 13440, Note_on_c, 4, 74, 76
10, 13679, Note_on_c, 4, 74, 0
10, 13680, Note_on_c, 4, 73, 76
10, 13784, Note_on_c, 4, 73, 0
10, 13800, Note_on_c, 4, 71, 76
10, 13904, Note_on_c, 4, 71, 0
10, 13920, Note_on_c, 4, 73, 76
10, 14024, Note_on_c, 4, 73, 0
10, 14040, Note_on_c, 4, 74, 76
10, 14144, Note_on_c, 4, 74, 0
10, 14160, Note_on_c, 4, 73, 76
10, 14264, Note_on_c, 4, 73, 0
10, 14280, Note_on_c, 4, 71, 76
10, 14384, Note_on_c, 4, 71, 0
10, 14400, Note_on_c, 4, 69, 76
10, 14504, Note_on_c, 4, 69, 0
10, 14520, Note_on_c, 4, 68, 76
10, 14624, Note_on_c, 4, 68, 0
10, 14640, Note_on_c, 4, 69, 76
10, 15344, Note_on_c, 4, 69, 0
10, 15360, Note_on_c, 4, 73, 76
10, 15464, Note_on_c, 4, 73, 0
10, 15480, Note_on_c, 4, 74, 76
10, 15584, Note_on_c, 4, 74, 0
10, 15600, Note_on_c, 4, 76, 76
10, 15824, Note_on_c, 4, 76, 0
10, 15840, Note_on_c, 4, 81, 76
10, 16064, Note_on_c, 4, 81, 0
10, 16080, Note_on_c, 4, 76, 76
10, 16319, Note_on_c, 4, 76, 0
10, 16320, Note_on_c, 4, 74, 76
10, 16559, Note_on_c, 4, 74, 0
10, 16560, Note_on_c, 4, 73, 76
10, 16784, Note_on_c, 4, 73, 0
10, 16800, Note_on_c, 4, 81, 76
10, 17024, Note_on_c, 4, 81, 0
10, 17040, Note_on_c, 4, 73, 76
10, 17279, Note_on_c, 4, 73, 0
10, 17280, Note_on_c, 4, 71, 76
10, 17519, Note_on_c, 4, 71, 0
10, 17520, Note_on_c, 4, 69, 76
10, 17744, Note_on_c, 4, 69, 0
10, 17760, Note_on_c, 4, 74, 76
10, 17984, Note_on_c, 4, 74, 0
10, 18000, Note_on_c, 4, 79, 76
10, 18224, Note_on_c, 4, 79, 0
10, 18240, Note_on_c, 4, 78, 76
10, 18344, Note_on_c, 4, 78, 0
10, 18360, Note_on_c, 4, 76, 76
10, 18464, Note_on_c, 4, 76, 0
10, 18480, Note_on_c, 4, 78, 76
10, 18584, Note_on_c, 4, 78, 0
10, 18600, Note_on_c, 4, 79, 76
10, 18704, Note_on_c, 4, 79, 0
10, 18720, Note_on_c, 4, 78, 76
10, 18824, Note_on_c, 4, 78, 0
10, 18840, Note_on_c, 4, 76, 76
10, 18944, Note_on_c, 4, 76, 0
10, 18960, Note_on_c, 4, 74, 76
10, 19064, Note_on_c, 4, 74, 0
10, 19080, Note_on_c, 4, 76, 76
10, 19184, Note_on_c, 4, 76, 0
10, 19200, Note_on_c, 4, 78, 76
10, 19304, Note_on_c, 4, 78, 0
10, 19320, Note_on_c, 4, 74, 76
10, 19424, Note_on_c, 4, 74, 0
10, 19440, Note_on_c, 4, 71, 76
10, 19559, Note_on_c, 4, 71, 0
10, 19560, Note_on_c, 4, 78, 76
10, 19679, Note_on_c, 4, 78, 0
10, 19680, Note_on_c, 4, 79, 76
10, 20144, Note_on_c, 4, 79, 0
10, 20160, Note_on_c, 4, 78, 76
10, 20384, Note_on_c, 4, 78, 0
10, 20400, Note_on_c, 4, 67, 76
10, 20519, Note_on_c, 4, 67, 0
10, 20520, Note_on_c, 4, 75, 76
10, 20639, Note_on_c, 4, 75, 0
10, 20640, Note_on_c, 4, 76, 76
10, 21104, Note_on_c, 4, 76, 0
10, 21120, Note_on_c, 4, 78, 76
10, 21344, Note_on_c, 4, 78, 0
10, 21360, Note_on_c, 4, 71, 76
10, 21479, Note_on_c, 4, 71, 0
10, 21480, Note_on_c, 4, 78, 76
10, 21599, Note_on_c, 4, 78, 0
10, 21600, Note_on_c, 4, 79, 76
10, 22064, Note_on_c, 4, 79, 0
10, 22080, Note_on_c, 4, 78, 76
10, 22304, Note_on_c, 4, 78, 0
10, 22320, Note_on_c, 4, 64, 76
10, 22439, Note_on_c, 4, 64, 0
10, 22440, Note_on_c, 4, 75, 76
10, 22559, Note_on_c, 4, 75, 0
10, 22560, Note_on_c, 4, 76, 76
10, 23024, Note_on_c, 4, 76, 0
10, 23040, Note_on_c, 4, 70, 76
10, 23144, Note_on_c, 4, 70, 0
10, 23160, Note_on_c, 4, 71, 76
10, 23264, Note_on_c, 4, 71, 0
10, 23280, Note_on_c, 4, 73, 76
10, 23504, Note_on_c, 4, 73, 0
10, 23520, Note_on_c, 4, 76, 76
10, 23744, Note_on_c, 4, 76, 0
10, 23760, Note_on_c, 4, 79, 76
10, 23999, Note_on_c, 4, 79, 0
10, 24000, Note_on_c, 4, 78, 76
10, 24224, Note_on_c, 4, 78, 0
10, 24240, Note_on_c, 4, 66, 76
10, 24464, Note_on_c, 4, 66, 0
10, 24480, Note_on_c, 4, 73, 76
10, 24704, Note_on_c, 4, 73, 0
10, 24720, Note_on_c, 4, 76, 76
10, 24959, Note_on_c, 4, 76, 0
10, 24960, Note_on_c, 4, 74, 76
10, 25184, Note_on_c, 4, 74, 0
10, 25200, Note_on_c, 4, 83, 76
10, 25424, Note_on_c, 4, 83, 0
10, 25440, Note_on_c, 4, 78, 76
10, 25544, Note_on_c, 4, 78, 0
10, 25560, Note_on_c, 4, 76, 76
10, 25664, Note_on_c, 4, 76, 0
10, 25680, Note_on_c, 4, 74, 76
10, 25904, Note_on_c, 4, 74, 0
10, 25920, Note_on_c, 4, 73, 76
10, 26144, Note_on_c, 4, 73, 0
10, 26160, Note_on_c, 4, 71, 76
10, 26864, Note_on_c, 4, 71, 0
10, 26880, Note_on_c, 4, 66, 76
10, 26984, Note_on_c, 4, 66, 0
10, 27000, Note_on_c, 4, 67, 76
10, 27104, Note_on_c, 4, 67, 0
10, 27120, Note_on_c, 4, 69, 76
10, 27344, Note_on_c, 4, 69, 0
10, 27360, Note_on_c, 4, 74, 76
10, 27584, Note_on_c, 4, 74, 0
10, 27600, Note_on_c, 4, 66, 76
10, 27839, Note_on_c, 4, 66, 0
10, 27840, Note_on_c, 4, 64, 76
10, 28079, Note_on_c, 4, 64, 0
10, 28080, Note_on_c, 4, 62, 76
10, 28304, Note_on_c, 4, 62, 0
10, 28320, Note_on_c, 4, 81, 76
10, 28544, Note_on_c, 4, 81, 0
10, 28560, Note_on_c, 4, 72, 76
10, 28799, Note_on_c, 4, 72, 0
10, 28800, Note_on_c, 4, 71, 76
10, 29039, Note_on_c, 4, 71, 0
10, 29040, Note_on_c, 4, 72, 76
10, 29264, Note_on_c, 4, 72, 0
10, 29280, Note_on_c, 4, 78, 76
10, 29384, Note_on_c, 4, 78, 0
10, 29400, Note_on_c, 4, 79, 76
10, 29504, Note_on_c, 4, 79, 0
10, 29520, Note_on_c, 4, 81, 76
10, 29744, Note_on_c, 4, 81, 0
10, 29760, Note_on_c, 4, 72, 76
10, 29984, Note_on_c, 4, 72, 0
10, 30000, Note_on_c, 4, 71, 76
10, 30119, Note_on_c, 4, 71, 0
10, 30120, Note_on_c, 4, 69, 76
10, 30239, Note_on_c, 4, 69, 0
10, 30240, Note_on_c, 4, 67, 76
10, 30344, Note_on_c, 4, 67, 0
10, 30360, Note_on_c, 4, 69, 76
10, 30464, Note_on_c, 4, 69, 0
10, 30480, Note_on_c, 4, 71, 76
10, 30584, Note_on_c, 4, 71, 0
10, 30600, Note_on_c, 4, 74, 76
10, 30704, Note_on_c, 4, 74, 0
10, 30720, Note_on_c, 4, 73, 76
10, 30824, Note_on_c, 4, 73, 0
10, 30840, Note_on_c, 4, 76, 76
10, 30944, Note_on_c, 4, 76, 0
10, 30960, Note_on_c, 4, 74, 76
10, 31079, Note_on_c, 4, 74, 0
10, 31080, Note_on_c, 4, 73, 76
10, 31199, Note_on_c, 4, 73, 0
10, 31200, Note_on_c, 4, 71, 76
10, 31304, Note_on_c, 4, 71, 0
10, 31320, Note_on_c, 4, 73, 76
10, 31424, Note_on_c, 4, 73, 0
10, 31440, Note_on_c, 4, 74, 76
10, 31544, Note_on_c, 4, 74, 0
10, 31560, Note_on_c, 4, 78, 76
10, 31664, Note_on_c, 4, 78, 0
10, 31680, Note_on_c, 4, 76, 76
10, 31784, Note_on_c, 4, 76, 0
10, 31800, Note_on_c, 4, 79, 76
10, 31904, Note_on_c, 4, 79, 0
10, 31920, Note_on_c, 4, 78, 76
10, 32039, Note_on_c, 4, 78, 0
10, 32040, Note_on_c, 4, 76, 76
10, 32159, Note_on_c, 4, 76, 0
10, 32160, Note_on_c, 4, 74, 76
10, 32264, Note_on_c, 4, 74, 0
10, 32280, Note_on_c, 4, 76, 76
10, 32384, Note_on_c, 4, 76, 0
10, 32400, Note_on_c, 4, 78, 76
10, 32504, Note_on_c, 4, 78, 0
10, 32520, Note_on_c, 4, 81, 76
10, 32624, Note_on_c, 4, 81, 0
10, 32640, Note_on_c, 4, 79, 76
10, 32744, Note_on_c, 4, 79, 0
10, 32760, Note_on_c, 4, 83, 76
10, 32864, Note_on_c, 4, 83, 0
10, 32880, Note_on_c, 4, 81, 76
10, 33104, Note_on_c, 4, 81, 0
10, 33120, Note_on_c, 4, 80, 76
10, 33239, Note_on_c, 4, 80, 0
10, 33240, Note_on_c, 4, 81, 76
10, 33359, Note_on_c, 4, 81, 0
10, 33360, Note_on_c, 4, 83, 76
10, 33584, Note_on_c, 4, 83, 0
10, 33600, Note_on_c, 4, 74, 76
10, 33824, Note_on_c, 4, 74, 0
10, 33840, Note_on_c, 4, 73, 76
10, 33944, Note_on_c, 4, 73, 0
10, 33960, Note_on_c, 4, 74, 76
10, 34064, Note_on_c, 4, 74, 0
10, 34080, Note_on_c, 4, 73, 76
10, 34184, Note_on_c, 4, 73, 0
10, 34200, Note_on_c, 4, 71, 76
10, 34304, Note_on_c, 4, 71, 0
10, 34320, Note_on_c, 4, 69, 76
10, 34424, Note_on_c, 4, 69, 0
10, 34440, Note_on_c, 4, 71, 76
10, 34544, Note_on_c, 4, 71, 0
10, 34560, Note_on_c, 4, 73, 76
10, 34664, Note_on_c, 4, 73, 0
10, 34680, Note_on_c, 4, 69, 76
10, 34784, Note_on_c, 4, 69, 0
10, 34800, Note_on_c, 4, 66, 76
10, 34919, Note_on_c, 4, 66, 0
10, 34920, Note_on_c, 4, 73, 76
10, 35039, Note_on_c, 4, 73, 0
10, 35040, Note_on_c, 4, 74, 76
10, 35504, Note_on_c, 4, 74, 0
10, 35520, Note_on_c, 4, 78, 76
10, 35744, Note_on_c, 4, 78, 0
10, 35760, Note_on_c, 4, 83, 76
10, 35879, Note_on_c, 4, 83, 0
10, 35880, Note_on_c, 4, 73, 76
10, 35999, Note_on_c, 4, 73, 0
10, 36000, Note_on_c, 4, 74, 76
10, 36464, Note_on_c, 4, 74, 0
10, 36480, Note_on_c, 4, 73, 76
10, 36584, Note_on_c, 4, 73, 0
10, 36600, Note_on_c, 4, 71, 76
10, 36704, Note_on_c, 4, 71, 0
10, 36720, Note_on_c, 4, 73, 76
10, 36824, Note_on_c, 4, 73, 0
10, 36840, Note_on_c, 4, 69, 76
10, 36944, Note_on_c, 4, 69, 0
10, 36960, Note_on_c, 4, 81, 76
10, 37184, Note_on_c, 4, 81, 0
10, 37200, Note_on_c, 4, 74, 76
10, 37424, Note_on_c, 4, 74, 0
10, 37440, Note_on_c, 4, 76, 76
10, 37544, Note_on_c, 4, 76, 0
10, 37560, Note_on_c, 4, 73, 76
10, 37664, Note_on_c, 4, 73, 0
10, 37680, Note_on_c, 4, 74, 76
10, 38384, Note_on_c, 4, 74, 0
10, 38400, Note_on_c, 4, 73, 76
10, 38504, Note_on_c, 4, 73, 0
10, 38520, Note_on_c, 4, 74, 76
10, 38624, Note_on_c, 4, 74, 0
10, 38640, Note_on_c, 4, 76, 76
10, 38864, Note_on_c, 4, 76, 0
10, 38880, Note_on_c, 4, 81, 76
10, 39104, Note_on_c, 4, 81, 0
10, 39120, Note_on_c, 4, 76, 76
10, 39359, Note_on_c, 4, 76, 0
10, 39360, Note_on_c, 4, 74, 76
10, 39599, Note_on_c, 4, 74, 0
10, 39600, Note_on_c, 4, 73, 76
10, 39824, Note_on_c, 4, 73, 0
10, 39840, Note_on_c, 4, 81, 76
10, 40064, Note_on_c, 4, 81, 0
10, 40080, Note_on_c, 4, 73, 76
10, 40319, Note_on_c, 4, 73, 0
10, 40320, Note_on_c, 4, 71, 76
10, 40559, Note_on_c, 4, 71, 0
10, 40560, Note_on_c, 4, 69, 76
10, 40784, Note_on_c, 4, 69, 0
10, 40800, Note_on_c, 4, 74, 76
10, 41024, Note_on_c, 4, 74, 0
10, 41040, Note_on_c, 4, 79, 76
10, 41264, Note_on_c, 4, 79, 0
10, 41280, Note_on_c, 4, 78, 76
10, 41384, Note_on_c, 4, 78, 0
10, 41400, Note_on_c, 4, 76, 76
10, 41504, Note_on_c, 4, 76, 0
10, 41520, Note_on_c, 4, 78, 76
10, 41624, Note_on_c, 4, 78, 0
10, 41640, Note_on_c, 4, 79, 76
10, 41744, Note_on_c, 4, 79, 0
10, 41760, Note_on_c, 4, 78, 76
10, 41864, Note_on_c, 4, 78, 0
10, 41880, Note_on_c, 4, 76, 76
10, 41984, Note_on_c, 4, 76, 0
10, 42000, Note_on_c, 4, 74, 76
10, 42104, Note_on_c, 4, 74, 0
10, 42120, Note_on_c, 4, 76, 76
10, 42224, Note_on_c, 4, 76, 0
10, 42240, Note_on_c, 4, 78, 76
10, 42344, Note_on_c, 4, 78, 0
10, 42360, Note_on_c, 4, 74, 76
10, 42464, Note_on_c, 4, 74, 0
10, 42480, Note_on_c, 4, 71, 76
10, 42599, Note_on_c, 4, 71, 0
10, 42600, Note_on_c, 4, 78, 76
10, 42719, Note_on_c, 4, 78, 0
10, 42720, Note_on_c, 4, 79, 76
10, 43184, Note_on_c, 4, 79, 0
10, 43200, Note_on_c, 4, 78, 76
10, 43424, Note_on_c, 4, 78, 0
10, 43440, Note_on_c, 4, 67, 76
10, 43559, Note_on_c, 4, 67, 0
10, 43560, Note_on_c, 4, 75, 76
10, 43679, Note_on_c, 4, 75, 0
10, 43680, Note_on_c, 4, 76, 76
10, 44144, Note_on_c, 4, 76, 0
10, 44160, Note_on_c, 4, 78, 76
10, 44384, Note_on_c, 4, 78, 0
10, 44400, Note_on_c, 4, 71, 76
10, 44519, Note_on_c, 4, 71, 0
10, 44520, Note_on_c, 4, 78, 76
10, 44639, Note_on_c, 4, 78, 0
10, 44640, Note_on_c, 4, 79, 76
10, 45104, Note_on_c, 4, 79, 0
10, 45120, Note_on_c, 4, 78, 76
10, 45344, Note_on_c, 4, 78, 0
10, 45360, Note_on_c, 4, 64, 76
10, 45479, Note_on_c, 4, 64, 0
10, 45480, Note_on_c, 4, 75, 76
10, 45599, Note_on_c, 4, 75, 0
10, 45600, Note_on_c, 4, 76, 76
10, 46064, Note_on_c, 4, 76, 0
10, 46080, Note_on_c, 4, 70, 76
10, 46184, Note_on_c, 4, 70, 0
10, 46200, Note_on_c, 4, 71, 76
10, 46304, Note_on_c, 4, 71, 0
10, 46320, Note_on_c, 4, 73, 76
10, 46544, Note_on_c, 4, 73, 0
10, 46560, Note_on_c, 4, 76, 76
10, 46784, Note_on_c, 4, 76, 0
10, 46800, Note_on_c, 4, 79, 76
10, 47039, Note_on_c, 4, 79, 0
10, 47040, Note_on_c, 4, 78, 76
10, 47264, Note_on_c, 4, 78, 0
10, 47280, Note_on_c, 4, 66, 76
10, 47504, Note_on_c, 4, 66, 0
10, 47520, Note_on_c, 4, 73, 76
10, 47744, Note_on_c, 4, 73, 0
10, 47760, Note_on_c, 4, 76, 76
10, 47999, Note_on_c, 4, 76, 0
10, 48000, Note_on_c, 4, 74, 76
10, 48224, Note_on_c, 4, 74, 0
10, 48240, Note_on_c, 4, 83, 76
10, 48464, Note_on_c, 4, 83, 0
10, 48480, Note_on_c, 4, 78, 76
10, 48584, Note_on_c, 4, 78, 0
10, 48600, Note_on_c, 4, 76, 76
10, 48704, Note_on_c, 4, 76, 0
10, 48720, Note_on_c, 4, 74, 76
10, 48944, Note_on_c, 4, 74, 0
10, 48960, Note_on_c, 4, 73, 76
10, 49184, Note_on_c, 4, 73, 0
10, 49200, Note_on_c, 4, 71, 76
10, 49904, Note_on_c, 4, 71, 0
10, 49920, Note_on_c, 4, 66, 76
10, 50024, Note_on_c, 4, 66, 0
10, 50040, Note_on_c, 4, 67, 76
10, 50144, Note_on_c, 4, 67, 0
10, 50160, Note_on_c, 4, 69, 76
10, 50384, Note_on_c, 4, 69, 0
10, 50400, Note_on_c, 4, 74, 76
10, 50624, Note_on_c, 4, 74, 0
10, 50640, Note_on_c, 4, 66, 76
10, 50879, Note_on_c, 4, 66, 0
10, 50880, Note_on_c, 4, 64, 76
10, 51119, Note_on_c, 4, 64, 0
10, 51120, Note_on_c, 4, 62, 76
10, 51344, Note_on_c, 4, 62, 0
10, 51360, Note_on_c, 4, 81, 76
10, 51584, Note_on_c, 4, 81, 0
10, 51600, Note_on_c, 4, 72, 76
10, 51839, Note_on_c, 4, 72, 0
10, 51840, Note_on_c, 4, 71, 76
10, 52079, Note_on_c, 4, 71, 0
10, 52080, Note_on_c, 4, 72, 76
10, 52304, Note_on_c, 4, 72, 0
10, 52320, Note_on_c, 4, 78, 76
10, 52424, Note_on_c, 4, 78, 0
10, 52440, Note_on_c, 4, 79, 76
10, 52544, Note_on_c, 4, 79, 0
10, 52560, Note_on_c, 4, 81, 76
10, 52784, Note_on_c, 4, 81, 0
10, 52800, Note_on_c, 4, 72, 76
10, 53024, Note_on_c, 4, 72, 0
10, 53040, Note_on_c, 4, 71, 76
10, 53159, Note_on_c, 4, 71, 0
10, 53160, Note_on_c, 4, 69, 76
10, 53279, Note_on_c, 4, 69, 0
10, 53280, Note_on_c, 4, 67, 76
10, 53384, Note_on_c, 4, 67, 0
10, 53400, Note_on_c, 4, 69, 76
10, 53504, Note_on_c, 4, 69, 0
10, 53520, Note_on_c, 4, 71, 76
10, 53624, Note_on_c, 4, 71, 0
10, 53640, Note_on_c, 4, 74, 76
10, 53744, Note_on_c, 4, 74, 0
10, 53760, Note_on_c, 4, 73, 76
10, 53864, Note_on_c, 4, 73, 0
10, 53880, Note_on_c, 4, 76, 76
10, 53984, Note_on_c, 4, 76, 0
10, 54000, Note_on_c, 4, 74, 76
10, 54119, Note_on_c, 4, 74, 0
10, 54120, Note_on_c, 4, 73, 76
10, 54239, Note_on_c, 4, 73, 0
10, 54240, Note_on_c, 4, 71, 76
10, 54344, Note_on_c, 4, 71, 0
10, 54360, Note_on_c, 4, 73, 76
10, 54464, Note_on_c, 4, 73, 0
10, 54480, Note_on_c, 4, 74, 76
10, 54584, Note_on_c, 4, 74, 0
10, 54600, Note_on_c, 4, 78, 76
10, 54704, Note_on_c, 4, 78, 0
10, 54720, Note_on_c, 4, 76, 76
10, 54824, Note_on_c, 4, 76, 0
10, 54840, Note_on_c, 4, 79, 76
10, 54944, Note_on_c, 4, 79, 0
10, 54960, Note_on_c, 4, 78, 76
10, 55079, Note_on_c, 4, 78, 0
10, 55080, Note_on_c, 4, 76, 76
10, 55199, Note_on_c, 4, 76, 0
10, 55200, Note_on_c, 4, 74, 76
10, 55304, Note_on_c, 4, 74, 0
10, 55320, Note_on_c, 4, 76, 76
10, 55424, Note_on_c, 4, 76, 0
10, 55440, Note_on_c, 4, 78, 76
10, 55544, Note_on_c, 4, 78, 0
10, 55560, Note_on_c, 4, 81, 76
10, 55664, Note_on_c, 4, 81, 0
10, 55680, Note_on_c, 4, 79, 76
10, 55784, Note_on_c, 4, 79, 0
10, 55800, Note_on_c, 4, 83, 76
10, 55904, Note_on_c, 4, 83, 0
10, 55920, Note_on_c, 4, 81, 76
10, 56144, Note_on_c, 4, 81, 0
10, 56160, Note_on_c, 4, 80, 76
10, 56279, Note_on_c, 4, 80, 0
10, 56280, Note_on_c, 4, 81, 76
10, 56399, Note_on_c, 4, 81, 0
10, 56400, Note_on_c, 4, 83, 76
10, 56624, Note_on_c, 4, 83, 0
10, 56640, Note_on_c, 4, 74, 76
10, 56864, Note_on_c, 4, 74, 0
10, 56880, Note_on_c, 4, 73, 76
10, 56984, Note_on_c, 4, 73, 0
10, 57000, Note_on_c, 4, 74, 76
10, 57104, Note_on_c, 4, 74, 0
10, 57120, Note_on_c, 4, 73, 76
10, 57224, Note_on_c, 4, 73, 0
10, 57240, Note_on_c, 4, 71, 76
10, 57344, Note_on_c, 4, 71, 0
10, 57360, Note_on_c, 4, 69, 76
10, 57464, Note_on_c, 4, 69, 0
10, 57480, Note_on_c, 4, 71, 76
10, 57584, Note_on_c, 4, 71, 0
10, 57600, Note_on_c, 4, 73, 76
10, 57704, Note_on_c, 4, 73, 0
10, 57720, Note_on_c, 4, 69, 76
10, 57824, Note_on_c, 4, 69, 0
10, 57840, Note_on_c, 4, 66, 76
10, 57959, Note_on_c, 4, 66, 0
10, 57960, Note_on_c, 4, 73, 76
10, 58079, Note_on_c, 4, 73, 0
10, 58080, Note_on_c, 4, 74, 76
10, 58544, Note_on_c, 4, 74, 0
10, 58560, Note_on_c, 4, 78, 76
10, 58784, Note_on_c, 4, 78, 0
10, 58800, Note_on_c, 4, 83, 76
10, 58919, Note_on_c, 4, 83, 0
10, 58920, Note_on_c, 4, 73, 76
10, 59039, Note_on_c, 4, 73, 0
10, 59040, Note_on_c, 4, 74, 76
10, 59504, Note_on_c, 4, 74, 0
10, 59520, Note_on_c, 4, 73, 76
10, 59624, Note_on_c, 4, 73, 0
10, 59640, Note_on_c, 4, 71, 76
10, 59744, Note_on_c, 4, 71, 0
10, 59760, Note_on_c, 4, 73, 76
10, 59864, Note_on_c, 4, 73, 0
10, 59880, Note_on_c, 4, 69, 76
10, 59984, Note_on_c, 4, 69, 0
10, 60000, Note_on_c, 4, 81, 76
10, 60224, Note_on_c, 4, 81, 0
10, 60240, Note_on_c, 4, 74, 76
10, 60464, Note_on_c, 4, 74, 0
10, 60480, Note_on_c, 4, 76, 76
10, 60584, Note_on_c, 4, 76, 0
10, 60600, Note_on_c, 4, 73, 76
10, 60704, Note_on_c, 4, 73, 0
10, 60720, Note_on_c, 4, 74, 76
10, 61439, Note_on_c, 4, 74, 0
10, 61439, End_track
11, 0, Start_track
11, 0, Title_t, "Oboe II"
11, 0, MIDI_port, 0
11, 0, Program_c, 5, 68
11, 0, Control_c, 5, 10, 69
11, 0, Control_c, 5, 11, 127
11, 0, Control_c, 5, 7, 80
11, 0, Note_on_c, 5, 66, 76
11, 104, Note_on_c, 5, 66, 0
11, 120, Note_on_c, 5, 67, 76
11, 224, Note_on_c, 5, 67, 0
11, 240, Note_on_c, 5, 69, 76
11, 464, Note_on_c, 5, 69, 0
11, 480, Note_on_c, 5, 74, 76
11, 704, Note_on_c, 5, 74, 0
11, 720, Note_on_c, 5, 69, 76
11, 959, Note_on_c, 5, 69, 0
11, 960, Note_on_c, 5, 67, 76
11, 1199, Note_on_c, 5, 67, 0
11, 1200, Note_on_c, 5, 66, 76
11, 1424, Note_on_c, 5, 66, 0
11, 1440, Note_on_c, 5, 74, 76
11, 1664, Note_on_c, 5, 74, 0
11, 1680, Note_on_c, 5, 66, 76
11, 1919, Note_on_c, 5, 66, 0
11, 1920, Note_on_c, 5, 64, 76
11, 2159, Note_on_c, 5, 64, 0
11, 2160, Note_on_c, 5, 62, 76
11, 2384, Note_on_c, 5, 62, 0
11, 2400, Note_on_c, 5, 66, 76
11, 2504, Note_on_c, 5, 66, 0
11, 2520, Note_on_c, 5, 64, 76
11, 2624, Note_on_c, 5, 64, 0
11, 2640, Note_on_c, 5, 66, 76
11, 2864, Note_on_c, 5, 66, 0
11, 2880, Note_on_c, 5, 68, 76
11, 3104, Note_on_c, 5, 68, 0
11, 3120, Note_on_c, 5, 69, 76
11, 3224, Note_on_c, 5, 69, 0
11, 3240, Note_on_c, 5, 68, 76
11, 3344, Note_on_c, 5, 68, 0
11, 3360, Note_on_c, 5, 69, 76
11, 3464, Note_on_c, 5, 69, 0
11, 3480, Note_on_c, 5, 71, 76
11, 3584, Note_on_c, 5, 71, 0
11, 3600, Note_on_c, 5, 69, 76
11, 3704, Note_on_c, 5, 69, 0
11, 3720, Note_on_c, 5, 67, 76
11, 3824, Note_on_c, 5, 67, 0
11, 3840, Note_on_c, 5, 66, 76
11, 3944, Note_on_c, 5, 66, 0
11, 3960, Note_on_c, 5, 64, 76
11, 4064, Note_on_c, 5, 64, 0
11, 4080, Note_on_c, 5, 66, 76
11, 4304, Note_on_c, 5, 66, 0
11, 4320, Note_on_c, 5, 78, 76
11, 4544, Note_on_c, 5, 78, 0
11, 4560, Note_on_c, 5, 71, 76
11, 4799, Note_on_c, 5, 71, 0
11, 4800, Note_on_c, 5, 69, 76
11, 5039, Note_on_c, 5, 69, 0
11, 5040, Note_on_c, 5, 68, 76
11, 5264, Note_on_c, 5, 68, 0
11, 5280, Note_on_c, 5, 83, 76
11, 5504, Note_on_c, 5, 83, 0
11, 5520, Note_on_c, 5, 76, 76
11, 5759, Note_on_c, 5, 76, 0
11, 5760, Note_on_c, 5, 74, 76
11, 5999, Note_on_c, 5, 74, 0
11, 6000, Note_on_c, 5, 73, 76
11, 6104, Note_on_c, 5, 73, 0
11, 6120, Note_on_c, 5, 71, 76
11, 6224, Note_on_c, 5, 71, 0
11, 6240, Note_on_c, 5, 73, 76
11, 6344, Note_on_c, 5, 73, 0
11, 6360, Note_on_c, 5, 74, 76
11, 6464, Note_on_c, 5, 74, 0
11, 6480, Note_on_c, 5, 73, 76
11, 6584, Note_on_c, 5, 73, 0
11, 6600, Note_on_c, 5, 71, 76
11, 6704, Note_on_c, 5, 71, 0
11, 6720, Note_on_c, 5, 69, 76
11, 6824, Note_on_c, 5, 69, 0
11, 6840, Note_on_c, 5, 68, 76
11, 6944, Note_on_c, 5, 68, 0
11, 6960, Note_on_c, 5, 69, 76
11, 7664, Note_on_c, 5, 69, 0
11, 7680, Note_on_c, 5, 66, 76
11, 7784, Note_on_c, 5, 66, 0
11, 7800, Note_on_c, 5, 67, 76
11, 7904, Note_on_c, 5, 67, 0
11, 7920, Note_on_c, 5, 69, 76
11, 8144, Note_on_c, 5, 69, 0
11, 8160, Note_on_c, 5, 74, 76
11, 8384, Note_on_c, 5, 74, 0
11, 8400, Note_on_c, 5, 69, 76
11, 8639, Note_on_c, 5, 69, 0
11, 8640, Note_on_c, 5, 67, 76
11, 8879, Note_on_c, 5, 67, 0
11, 8880, Note_on_c, 5, 66, 76
11, 9104, Note_on_c, 5, 66, 0
11, 9120, Note_on_c, 5, 74, 76
11, 9344, Note_on_c, 5, 74, 0
11, 9360, Note_on_c, 5, 66, 76
11, 9599, Note_on_c, 5, 66, 0
11, 9600, Note_on_c, 5, 64, 76
11, 9839, Note_on_c, 5, 64, 0
11, 9840, Note_on_c, 5, 62, 76
11, 10064, Note_on_c, 5, 62, 0
11, 10080, Note_on_c, 5, 66, 76
11, 10184, Note_on_c, 5, 66, 0
11, 10200, Note_on_c, 5, 64, 76
11, 10304, Note_on_c, 5, 64, 0
11, 10320, Note_on_c, 5, 66, 76
11, 10544, Note_on_c, 5, 66, 0
11, 10560, Note_on_c, 5, 68, 76
11, 10784, Note_on_c, 5, 68, 0
11, 10800, Note_on_c, 5, 69, 76
11, 10904, Note_on_c, 5, 69, 0
11, 10920, Note_on_c, 5, 68, 76
11, 11024, Note_on_c, 5, 68, 0
11, 11040, Note_on_c, 5, 69, 76
11, 11144, Note_on_c, 5, 69, 0
11, 11160, Note_on_c, 5, 71, 76
11, 11264, Note_on_c, 5, 71, 0
11, 11280, Note_on_c, 5, 69, 76
11, 11384, Note_on_c, 5, 69, 0
11, 11400, Note_on_c, 5, 67, 76
11, 11504, Note_on_c, 5, 67, 0
11, 11520, Note_on_c, 5, 66, 76
11, 11624, Note_on_c, 5, 66, 0
11, 11640, Note_on_c, 5, 64, 76
11, 11744, Note_on_c, 5, 64, 0
11, 11760, Note_on_c, 5, 66, 76
11, 11984, Note_on_c, 5, 66, 0
11, 12000, Note_on_c, 5, 78, 76
11, 12224, Note_on_c, 5, 78, 0
11, 12240, Note_on_c, 5, 71, 76
11, 12479, Note_on_c, 5, 71, 0
11, 12480, Note_on_c, 5, 69, 76
11, 12719, Note_on_c, 5, 69, 0
11, 12720, Note_on_c, 5, 68, 76
11, 12944, Note_on_c, 5, 68, 0
11, 12960, Note_on_c, 5, 83, 76
11, 13184, Note_on_c, 5, 83, 0
11, 13200, Note_on_c, 5, 76, 76
11, 13439, Note_on_c, 5, 76, 0
11, 13440, Note_on_c, 5, 74, 76
11, 13679, Note_on_c, 5, 74, 0
11, 13680, Note_on_c, 5, 73, 76
11, 13784, Note_on_c, 5, 73, 0
11, 13800, Note_on_c, 5, 71, 76
11, 13904, Note_on_c, 5, 71, 0
11, 13920, Note_on_c, 5, 73, 76
11, 14024, Note_on_c, 5, 73, 0
11, 14040, Note_on_c, 5, 74, 76
11, 14144, Note_on_c, 5, 74, 0
11, 14160, Note_on_c, 5, 73, 76
11, 14264, Note_on_c, 5, 73, 0
11, 14280, Note_on_c, 5, 71, 76
11, 14384, Note_on_c, 5, 71, 0
11, 14400, Note_on_c, 5, 69, 76
11, 14504, Note_on_c, 5, 69, 0
11, 14520, Note_on_c, 5, 68, 76
11, 14624, Note_on_c, 5, 68, 0
11, 14640, Note_on_c, 5, 69, 76
11, 15344, Note_on_c, 5, 69, 0
11, 15360, Note_on_c, 5, 73, 76
11, 15464, Note_on_c, 5, 73, 0
11, 15480, Note_on_c, 5, 74, 76
11, 15584, Note_on_c, 5, 74, 0
11, 15600, Note_on_c, 5, 76, 76
11, 15824, Note_on_c, 5, 76, 0
11, 15840, Note_on_c, 5, 81, 76
11, 16064, Note_on_c, 5, 81, 0
11, 16080, Note_on_c, 5, 76, 76
11, 16319, Note_on_c, 5, 76, 0
11, 16320, Note_on_c, 5, 74, 76
11, 16559, Note_on_c, 5, 74, 0
11, 16560, Note_on_c, 5, 73, 76
11, 16784, Note_on_c, 5, 73, 0
11, 16800, Note_on_c, 5, 81, 76
11, 17024, Note_on_c, 5, 81, 0
11, 17040, Note_on_c, 5, 73, 76
11, 17279, Note_on_c, 5, 73, 0
11, 17280, Note_on_c, 5, 71, 76
11, 17519, Note_on_c, 5, 71, 0
11, 17520, Note_on_c, 5, 69, 76
11, 17744, Note_on_c, 5, 69, 0
11, 17760, Note_on_c, 5, 74, 76
11, 17984, Note_on_c, 5, 74, 0
11, 18000, Note_on_c, 5, 79, 76
11, 18224, Note_on_c, 5, 79, 0
11, 18240, Note_on_c, 5, 78, 76
11, 18344, Note_on_c, 5, 78, 0
11, 18360, Note_on_c, 5, 76, 76
11, 18464, Note_on_c, 5, 76, 0
11, 18480, Note_on_c, 5, 78, 76
11, 18584, Note_on_c, 5, 78, 0
11, 18600, Note_on_c, 5, 79, 76
11, 18704, Note_on_c, 5, 79, 0
11, 18720, Note_on_c, 5, 78, 76
11, 18824, Note_on_c, 5, 78, 0
11, 18840, Note_on_c, 5, 76, 76
11, 18944, Note_on_c, 5, 76, 0
11, 18960, Note_on_c, 5, 74, 76
11, 19064, Note_on_c, 5, 74, 0
11, 19080, Note_on_c, 5, 76, 76
11, 19184, Note_on_c, 5, 76, 0
11, 19200, Note_on_c, 5, 78, 76
11, 19304, Note_on_c, 5, 78, 0
11, 19320, Note_on_c, 5, 74, 76
11, 19424, Note_on_c, 5, 74, 0
11, 19440, Note_on_c, 5, 71, 76
11, 19559, Note_on_c, 5, 71, 0
11, 19560, Note_on_c, 5, 78, 76
11, 19679, Note_on_c, 5, 78, 0
11, 19680, Note_on_c, 5, 79, 76
11, 20144, Note_on_c, 5, 79, 0
11, 20160, Note_on_c, 5, 78, 76
11, 20384, Note_on_c, 5, 78, 0
11, 20400, Note_on_c, 5, 67, 76
11, 20519, Note_on_c, 5, 67, 0
11, 20520, Note_on_c, 5, 75, 76
11, 20639, Note_on_c, 5, 75, 0
11, 20640, Note_on_c, 5, 76, 76
11, 21104, Note_on_c, 5, 76, 0
11, 21120, Note_on_c, 5, 78, 76
11, 21344, Note_on_c, 5, 78, 0
11, 21360, Note_on_c, 5, 71, 76
11, 21479, Note_on_c, 5, 71, 0
11, 21480, Note_on_c, 5, 78, 76
11, 21599, Note_on_c, 5, 78, 0
11, 21600, Note_on_c, 5, 79, 76
11, 22064, Note_on_c, 5, 79, 0
11, 22080, Note_on_c, 5, 78, 76
11, 22304, Note_on_c, 5, 78, 0
11, 22320, Note_on_c, 5, 64, 76
11, 22439, Note_on_c, 5, 64, 0
11, 22440, Note_on_c, 5, 75, 76
11, 22559, Note_on_c, 5, 75, 0
11, 22560, Note_on_c, 5, 76, 76
11, 23024, Note_on_c, 5, 76, 0
11, 23040, Note_on_c, 5, 70, 76
11, 23144, Note_on_c, 5, 70, 0
11, 23160, Note_on_c, 5, 71, 76
11, 23264, Note_on_c, 5, 71, 0
11, 23280, Note_on_c, 5, 73, 76
11, 23504, Note_on_c, 5, 73, 0
11, 23520, Note_on_c, 5, 76, 76
11, 23744, Note_on_c, 5, 76, 0
11, 23760, Note_on_c, 5, 79, 76
11, 23999, Note_on_c, 5, 79, 0
11, 24000, Note_on_c, 5, 78, 76
11, 24224, Note_on_c, 5, 78, 0
11, 24240, Note_on_c, 5, 66, 76
11, 24464, Note_on_c, 5, 66, 0
11, 24480, Note_on_c, 5, 73, 76
11, 24704, Note_on_c, 5, 73, 0
11, 24720, Note_on_c, 5, 76, 76
11, 24959, Note_on_c, 5, 76, 0
11, 24960, Note_on_c, 5, 74, 76
11, 25184, Note_on_c, 5, 74, 0
11, 25200, Note_on_c, 5, 83, 76
11, 25424, Note_on_c, 5, 83, 0
11, 25440, Note_on_c, 5, 78, 76
11, 25544, Note_on_c, 5, 78, 0
11, 25560, Note_on_c, 5, 76, 76
11, 25664, Note_on_c, 5, 76, 0
11, 25680, Note_on_c, 5, 74, 76
11, 25904, Note_on_c, 5, 74, 0
11, 25920, Note_on_c, 5, 73, 76
11, 26144, Note_on_c, 5, 73, 0
11, 26160, Note_on_c, 5, 71, 76
11, 26864, Note_on_c, 5, 71, 0
11, 26880, Note_on_c, 5, 66, 76
11, 26984, Note_on_c, 5, 66, 0
11, 27000, Note_on_c, 5, 67, 76
11, 27104, Note_on_c, 5, 67, 0
11, 27120, Note_on_c, 5, 69, 76
11, 27344, Note_on_c, 5, 69, 0
11, 27360, Note_on_c, 5, 74, 76
11, 27584, Note_on_c, 5, 74, 0
11, 27600, Note_on_c, 5, 66, 76
11, 27839, Note_on_c, 5, 66, 0
11, 27840, Note_on_c, 5, 64, 76
11, 28079, Note_on_c, 5, 64, 0
11, 28080, Note_on_c, 5, 62, 76
11, 28304, Note_on_c, 5, 62, 0
11, 28320, Note_on_c, 5, 81, 76
11, 28544, Note_on_c, 5, 81, 0
11, 28560, Note_on_c, 5, 72, 76
11, 28799, Note_on_c, 5, 72, 0
11, 28800, Note_on_c, 5, 71, 76
11, 29039, Note_on_c, 5, 71, 0
11, 29040, Note_on_c, 5, 72, 76
11, 29264, Note_on_c, 5, 72, 0
11, 29280, Note_on_c, 5, 78, 76
11, 29384, Note_on_c, 5, 78, 0
11, 29400, Note_on_c, 5, 79, 76
11, 29504, Note_on_c, 5, 79, 0
11, 29520, Note_on_c, 5, 81, 76
11, 29744, Note_on_c, 5, 81, 0
11, 29760, Note_on_c, 5, 72, 76
11, 29984, Note_on_c, 5, 72, 0
11, 30000, Note_on_c, 5, 71, 76
11, 30119, Note_on_c, 5, 71, 0
11, 30120, Note_on_c, 5, 69, 76
11, 30239, Note_on_c, 5, 69, 0
11, 30240, Note_on_c, 5, 67, 76
11, 30344, Note_on_c, 5, 67, 0
11, 30360, Note_on_c, 5, 69, 76
11, 30464, Note_on_c, 5, 69, 0
11, 30480, Note_on_c, 5, 71, 76
11, 30584, Note_on_c, 5, 71, 0
11, 30600, Note_on_c, 5, 74, 76
11, 30704, Note_on_c, 5, 74, 0
11, 30720, Note_on_c, 5, 73, 76
11, 30824, Note_on_c, 5, 73, 0
11, 30840, Note_on_c, 5, 76, 76
11, 30944, Note_on_c, 5, 76, 0
11, 30960, Note_on_c, 5, 74, 76
11, 31079, Note_on_c, 5, 74, 0
11, 31080, Note_on_c, 5, 73, 76
11, 31199, Note_on_c, 5, 73, 0
11, 31200, Note_on_c, 5, 71, 76
11, 31304, Note_on_c, 5, 71, 0
11, 31320, Note_on_c, 5, 73, 76
11, 31424, Note_on_c, 5, 73, 0
11, 31440, Note_on_c, 5, 74, 76
11, 31544, Note_on_c, 5, 74, 0
11, 31560, Note_on_c, 5, 78, 76
11, 31664, Note_on_c, 5, 78, 0
11, 31680, Note_on_c, 5, 76, 76
11, 31784, Note_on_c, 5, 76, 0
11, 31800, Note_on_c, 5, 79, 76
11, 31904, Note_on_c, 5, 79, 0
11, 31920, Note_on_c, 5, 78, 76
11, 32039, Note_on_c, 5, 78, 0
11, 32040, Note_on_c, 5, 76, 76
11, 32159, Note_on_c, 5, 76, 0
11, 32160, Note_on_c, 5, 74, 76
11, 32264, Note_on_c, 5, 74, 0
11, 32280, Note_on_c, 5, 76, 76
11, 32384, Note_on_c, 5, 76, 0
11, 32400, Note_on_c, 5, 78, 76
11, 32504, Note_on_c, 5, 78, 0
11, 32520, Note_on_c, 5, 81, 76
11, 32624, Note_on_c, 5, 81, 0
11, 32640, Note_on_c, 5, 79, 76
11, 32744, Note_on_c, 5, 79, 0
11, 32760, Note_on_c, 5, 83, 76
11, 32864, Note_on_c, 5, 83, 0
11, 32880, Note_on_c, 5, 81, 76
11, 33104, Note_on_c, 5, 81, 0
11, 33120, Note_on_c, 5, 80, 76
11, 33239, Note_on_c, 5, 80, 0
11, 33240, Note_on_c, 5, 81, 76
11, 33359, Note_on_c, 5, 81, 0
11, 33360, Note_on_c, 5, 83, 76
11, 33584, Note_on_c, 5, 83, 0
11, 33600, Note_on_c, 5, 74, 76
11, 33824, Note_on_c, 5, 74, 0
11, 33840, Note_on_c, 5, 73, 76
11, 33944, Note_on_c, 5, 73, 0
11, 33960, Note_on_c, 5, 74, 76
11, 34064, Note_on_c, 5, 74, 0
11, 34080, Note_on_c, 5, 73, 76
11, 34184, Note_on_c, 5, 73, 0
11, 34200, Note_on_c, 5, 71, 76
11, 34304, Note_on_c, 5, 71, 0
11, 34320, Note_on_c, 5, 69, 76
11, 34424, Note_on_c, 5, 69, 0
11, 34440, Note_on_c, 5, 71, 76
11, 34544, Note_on_c, 5, 71, 0
11, 34560, Note_on_c, 5, 73, 76
11, 34664, Note_on_c, 5, 73, 0
11, 34680, Note_on_c, 5, 69, 76
11, 34784, Note_on_c, 5, 69, 0
11, 34800, Note_on_c, 5, 66, 76
11, 34919, Note_on_c, 5, 66, 0
11, 34920, Note_on_c, 5, 73, 76
11, 35039, Note_on_c, 5, 73, 0
11, 35040, Note_on_c, 5, 74, 76
11, 35504, Note_on_c, 5, 74, 0
11, 35520, Note_on_c, 5, 78, 76
11, 35744, Note_on_c, 5, 78, 0
11, 35760, Note_on_c, 5, 83, 76
11, 35879, Note_on_c, 5, 83, 0
11, 35880, Note_on_c, 5, 73, 76
11, 35999, Note_on_c, 5, 73, 0
11, 36000, Note_on_c, 5, 74, 76
11, 36464, Note_on_c, 5, 74, 0
11, 36480, Note_on_c, 5, 73, 76
11, 36584, Note_on_c, 5, 73, 0
11, 36600, Note_on_c, 5, 71, 76
11, 36704, Note_on_c, 5, 71, 0
11, 36720, Note_on_c, 5, 73, 76
11, 36824, Note_on_c, 5, 73, 0
11, 36840, Note_on_c, 5, 69, 76
11, 36944, Note_on_c, 5, 69, 0
11, 36960, Note_on_c, 5, 81, 76
11, 37184, Note_on_c, 5, 81, 0
11, 37200, Note_on_c, 5, 74, 76
11, 37424, Note_on_c, 5, 74, 0
11, 37440, Note_on_c, 5, 76, 76
11, 37544, Note_on_c, 5, 76, 0
11, 37560, Note_on_c, 5, 73, 76
11, 37664, Note_on_c, 5, 73, 0
11, 37680, Note_on_c, 5, 74, 76
11, 38384, Note_on_c, 5, 74, 0
11, 38400, Note_on_c, 5, 73, 76
11, 38504, Note_on_c, 5, 73, 0
11, 38520, Note_on_c, 5, 74, 76
11, 38624, Note_on_c, 5, 74, 0
11, 38640, Note_on_c, 5, 76, 76
11, 38864, Note_on_c, 5, 76, 0
11, 38880, Note_on_c, 5, 81, 76
11, 39104, Note_on_c, 5, 81, 0
11, 39120, Note_on_c, 5, 76, 76
11, 39359, Note_on_c, 5, 76, 0
11, 39360, Note_on_c, 5, 74, 76
11, 39599, Note_on_c, 5, 74, 0
11, 39600, Note_on_c, 5, 73, 76
11, 39824, Note_on_c, 5, 73, 0
11, 39840, Note_on_c, 5, 81, 76
11, 40064, Note_on_c, 5, 81, 0
11, 40080, Note_on_c, 5, 73, 76
11, 40319, Note_on_c, 5, 73, 0
11, 40320, Note_on_c, 5, 71, 76
11, 40559, Note_on_c, 5, 71, 0
11, 40560, Note_on_c, 5, 69, 76
11, 40784, Note_on_c, 5, 69, 0
11, 40800, Note_on_c, 5, 74, 76
11, 41024, Note_on_c, 5, 74, 0
11, 41040, Note_on_c, 5, 79, 76
11, 41264, Note_on_c, 5, 79, 0
11, 41280, Note_on_c, 5, 78, 76
11, 41384, Note_on_c, 5, 78, 0
11, 41400, Note_on_c, 5, 76, 76
11, 41504, Note_on_c, 5, 76, 0
11, 41520, Note_on_c, 5, 78, 76
11, 41624, Note_on_c, 5, 78, 0
11, 41640, Note_on_c, 5, 79, 76
11, 41744, Note_on_c, 5, 79, 0
11, 41760, Note_on_c, 5, 78, 76
11, 41864, Note_on_c, 5, 78, 0
11, 41880, Note_on_c, 5, 76, 76
11, 41984, Note_on_c, 5, 76, 0
11, 42000, Note_on_c, 5, 74, 76
11, 42104, Note_on_c, 5, 74, 0
11, 42120, Note_on_c, 5, 76, 76
11, 42224, Note_on_c, 5, 76, 0
11, 42240, Note_on_c, 5, 78, 76
11, 42344, Note_on_c, 5, 78, 0
11, 42360, Note_on_c, 5, 74, 76
11, 42464, Note_on_c, 5, 74, 0
11, 42480, Note_on_c, 5, 71, 76
11, 42599, Note_on_c, 5, 71, 0
11, 42600, Note_on_c, 5, 78, 76
11, 42719, Note_on_c, 5, 78, 0
11, 42720, Note_on_c, 5, 79, 76
11, 43184, Note_on_c, 5, 79, 0
11, 43200, Note_on_c, 5, 78, 76
11, 43424, Note_on_c, 5, 78, 0
11, 43440, Note_on_c, 5, 67, 76
11, 43559, Note_on_c, 5, 67, 0
11, 43560, Note_on_c, 5, 75, 76
11, 43679, Note_on_c, 5, 75, 0
11, 43680, Note_on_c, 5, 76, 76
11, 44144, Note_on_c, 5, 76, 0
11, 44160, Note_on_c, 5, 78, 76
11, 44384, Note_on_c, 5, 78, 0
11, 44400, Note_on_c, 5, 71, 76
11, 44519, Note_on_c, 5, 71, 0
11, 44520, Note_on_c, 5, 78, 76
11, 44639, Note_on_c, 5, 78, 0
11, 44640, Note_on_c, 5, 79, 76
11, 45104, Note_on_c, 5, 79, 0
11, 45120, Note_on_c, 5, 78, 76
11, 45344, Note_on_c, 5, 78, 0
11, 45360, Note_on_c, 5, 64, 76
11, 45479, Note_on_c, 5, 64, 0
11, 45480, Note_on_c, 5, 75, 76
11, 45599, Note_on_c, 5, 75, 0
11, 45600, Note_on_c, 5, 76, 76
11, 46064, Note_on_c, 5, 76, 0
11, 46080, Note_on_c, 5, 70, 76
11, 46184, Note_on_c, 5, 70, 0
11, 46200, Note_on_c, 5, 71, 76
11, 46304, Note_on_c, 5, 71, 0
11, 46320, Note_on_c, 5, 73, 76
11, 46544, Note_on_c, 5, 73, 0
11, 46560, Note_on_c, 5, 76, 76
11, 46784, Note_on_c, 5, 76, 0
11, 46800, Note_on_c, 5, 79, 76
11, 47039, Note_on_c, 5, 79, 0
11, 47040, Note_on_c, 5, 78, 76
11, 47264, Note_on_c, 5, 78, 0
11, 47280, Note_on_c, 5, 66, 76
11, 47504, Note_on_c, 5, 66, 0
11, 47520, Note_on_c, 5, 73, 76
11, 47744, Note_on_c, 5, 73, 0
11, 47760, Note_on_c, 5, 76, 76
11, 47999, Note_on_c, 5, 76, 0
11, 48000, Note_on_c, 5, 74, 76
11, 48224, Note_on_c, 5, 74, 0
11, 48240, Note_on_c, 5, 83, 76
11, 48464, Note_on_c, 5, 83, 0
11, 48480, Note_on_c, 5, 78, 76
11, 48584, Note_on_c, 5, 78, 0
11, 48600, Note_on_c, 5, 76, 76
11, 48704, Note_on_c, 5, 76, 0
11, 48720, Note_on_c, 5, 74, 76
11, 48944, Note_on_c, 5, 74, 0
11, 48960, Note_on_c, 5, 73, 76
11, 49184, Note_on_c, 5, 73, 0
11, 49200, Note_on_c, 5, 71, 76
11, 49904, Note_on_c, 5, 71, 0
11, 49920, Note_on_c, 5, 66, 76
11, 50024, Note_on_c, 5, 66, 0
11, 50040, Note_on_c, 5, 67, 76
11, 50144, Note_on_c, 5, 67, 0
11, 50160, Note_on_c, 5, 69, 76
11, 50384, Note_on_c, 5, 69, 0
11, 50400, Note_on_c, 5, 74, 76
11, 50624, Note_on_c, 5, 74, 0
11, 50640, Note_on_c, 5, 66, 76
11, 50879, Note_on_c, 5, 66, 0
11, 50880, Note_on_c, 5, 64, 76
11, 51119, Note_on_c, 5, 64, 0
11, 51120, Note_on_c, 5, 62, 76
11, 51344, Note_on_c, 5, 62, 0
11, 51360, Note_on_c, 5, 81, 76
11, 51584, Note_on_c, 5, 81, 0
11, 51600, Note_on_c, 5, 72, 76
11, 51839, Note_on_c, 5, 72, 0
11, 51840, Note_on_c, 5, 71, 76
11, 52079, Note_on_c, 5, 71, 0
11, 52080, Note_on_c, 5, 72, 76
11, 52304, Note_on_c, 5, 72, 0
11, 52320, Note_on_c, 5, 78, 76
11, 52424, Note_on_c, 5, 78, 0
11, 52440, Note_on_c, 5, 79, 76
11, 52544, Note_on_c, 5, 79, 0
11, 52560, Note_on_c, 5, 81, 76
11, 52784, Note_on_c, 5, 81, 0
11, 52800, Note_on_c, 5, 72, 76
11, 53024, Note_on_c, 5, 72, 0
11, 53040, Note_on_c, 5, 71, 76
11, 53159, Note_on_c, 5, 71, 0
11, 53160, Note_on_c, 5, 69, 76
11, 53279, Note_on_c, 5, 69, 0
11, 53280, Note_on_c, 5, 67, 76
11, 53384, Note_on_c, 5, 67, 0
11, 53400, Note_on_c, 5, 69, 76
11, 53504, Note_on_c, 5, 69, 0
11, 53520, Note_on_c, 5, 71, 76
11, 53624, Note_on_c, 5, 71, 0
11, 53640, Note_on_c, 5, 74, 76
11, 53744, Note_on_c, 5, 74, 0
11, 53760, Note_on_c, 5, 73, 76
11, 53864, Note_on_c, 5, 73, 0
11, 53880, Note_on_c, 5, 76, 76
11, 53984, Note_on_c, 5, 76, 0
11, 54000, Note_on_c, 5, 74, 76
11, 54119, Note_on_c, 5, 74, 0
11, 54120, Note_on_c, 5, 73, 76
11, 54239, Note_on_c, 5, 73, 0
11, 54240, Note_on_c, 5, 71, 76
11, 54344, Note_on_c, 5, 71, 0
11, 54360, Note_on_c, 5, 73, 76
11, 54464, Note_on_c, 5, 73, 0
11, 54480, Note_on_c, 5, 74, 76
11, 54584, Note_on_c, 5, 74, 0
11, 54600, Note_on_c, 5, 78, 76
11, 54704, Note_on_c, 5, 78, 0
11, 54720, Note_on_c, 5, 76, 76
11, 54824, Note_on_c, 5, 76, 0
11, 54840, Note_on_c, 5, 79, 76
11, 54944, Note_on_c, 5, 79, 0
11, 54960, Note_on_c, 5, 78, 76
11, 55079, Note_on_c, 5, 78, 0
11, 55080, Note_on_c, 5, 76, 76
11, 55199, Note_on_c, 5, 76, 0
11, 55200, Note_on_c, 5, 74, 76
11, 55304, Note_on_c, 5, 74, 0
11, 55320, Note_on_c, 5, 76, 76
11, 55424, Note_on_c, 5, 76, 0
11, 55440, Note_on_c, 5, 78, 76
11, 55544, Note_on_c, 5, 78, 0
11, 55560, Note_on_c, 5, 81, 76
11, 55664, Note_on_c, 5, 81, 0
11, 55680, Note_on_c, 5, 79, 76
11, 55784, Note_on_c, 5, 79, 0
11, 55800, Note_on_c, 5, 83, 76
11, 55904, Note_on_c, 5, 83, 0
11, 55920, Note_on_c, 5, 81, 76
11, 56144, Note_on_c, 5, 81, 0
11, 56160, Note_on_c, 5, 80, 76
11, 56279, Note_on_c, 5, 80, 0
11, 56280, Note_on_c, 5, 81, 76
11, 56399, Note_on_c, 5, 81, 0
11, 56400, Note_on_c, 5, 83, 76
11, 56624, Note_on_c, 5, 83, 0
11, 56640, Note_on_c, 5, 74, 76
11, 56864, Note_on_c, 5, 74, 0
11, 56880, Note_on_c, 5, 73, 76
11, 56984, Note_on_c, 5, 73, 0
11, 57000, Note_on_c, 5, 74, 76
11, 57104, Note_on_c, 5, 74, 0
11, 57120, Note_on_c, 5, 73, 76
11, 57224, Note_on_c, 5, 73, 0
11, 57240, Note_on_c, 5, 71, 76
11, 57344, Note_on_c, 5, 71, 0
11, 57360, Note_on_c, 5, 69, 76
11, 57464, Note_on_c, 5, 69, 0
11, 57480, Note_on_c, 5, 71, 76
11, 57584, Note_on_c, 5, 71, 0
11, 57600, Note_on_c, 5, 73, 76
11, 57704, Note_on_c, 5, 73, 0
11, 57720, Note_on_c, 5, 69, 76
11, 57824, Note_on_c, 5, 69, 0
11, 57840, Note_on_c, 5, 66, 76
11, 57959, Note_on_c, 5, 66, 0
11, 57960, Note_on_c, 5, 73, 76
11, 58079, Note_on_c, 5, 73, 0
11, 58080, Note_on_c, 5, 74, 76
11, 58544, Note_on_c, 5, 74, 0
11, 58560, Note_on_c, 5, 78, 76
11, 58784, Note_on_c, 5, 78, 0
11, 58800, Note_on_c, 5, 83, 76
11, 58919, Note_on_c, 5, 83, 0
11, 58920, Note_on_c, 5, 73, 76
11, 59039, Note_on_c, 5, 73, 0
11, 59040, Note_on_c, 5, 74, 76
11, 59504, Note_on_c, 5, 74, 0
11, 59520, Note_on_c, 5, 73, 76
11, 59624, Note_on_c, 5, 73, 0
11, 59640, Note_on_c, 5, 71, 76
11, 59744, Note_on_c, 5, 71, 0
11, 59760, Note_on_c, 5, 73, 76
11, 59864, Note_on_c, 5, 73, 0
11, 59880, Note_on_c, 5, 69, 76
11, 59984, Note_on_c, 5, 69, 0
11, 60000, Note_on_c, 5, 81, 76
11, 60224, Note_on_c, 5, 81, 0
11, 60240, Note_on_c, 5, 74, 76
11, 60464, Note_on_c, 5, 74, 0
11, 60480, Note_on_c, 5, 76, 76
11, 60584, Note_on_c, 5, 76, 0
11, 60600, Note_on_c, 5, 73, 76
11, 60704, Note_on_c, 5, 73, 0
11, 60720, Note_on_c, 5, 74, 76
11, 61439, Note_on_c, 5, 74, 0
11, 61439, End_track
12, 0, Start_track
12, 0, Title_t, "Violin I"
12, 0, MIDI_port, 0
12, 0, Program_c, 10, 48
12, 0, Control_c, 10, 10, 48
12, 0, Control_c, 10, 11, 127
12, 0, Control_c, 10, 7, 96
12, 0, Note_on_c, 10, 66, 76
12, 104, Note_on_c, 10, 66, 0
12, 120, Note_on_c, 10, 67, 76
12, 224, Note_on_c, 10, 67, 0
12, 240, Note_on_c, 10, 69, 76
12, 464, Note_on_c, 10, 69, 0
12, 480, Note_on_c, 10, 74, 76
12, 704, Note_on_c, 10, 74, 0
12, 720, Note_on_c, 10, 69, 76
12, 959, Note_on_c, 10, 69, 0
12, 960, Note_on_c, 10, 67, 76
12, 1199, Note_on_c, 10, 67, 0
12, 1200, Note_on_c, 10, 66, 76
12, 1424, Note_on_c, 10, 66, 0
12, 1440, Note_on_c, 10, 74, 76
12, 1664, Note_on_c, 10, 74, 0
12, 1680, Note_on_c, 10, 66, 76
12, 1919, Note_on_c, 10, 66, 0
12, 1920, Note_on_c, 10, 64, 76
12, 2159, Note_on_c, 10, 64, 0
12, 2160, Note_on_c, 10, 62, 76
12, 2384, Note_on_c, 10, 62, 0
12, 2400, Note_on_c, 10, 66, 76
12, 2504, Note_on_c, 10, 66, 0
12, 2520, Note_on_c, 10, 64, 76
12, 2624, Note_on_c, 10, 64, 0
12, 2640, Note_on_c, 10, 66, 76
12, 2864, Note_on_c, 10, 66, 0
12, 2880, Note_on_c, 10, 68, 76
12, 3104, Note_on_c, 10, 68, 0
12, 3120, Note_on_c, 10, 69, 76
12, 3224, Note_on_c, 10, 69, 0
12, 3240, Note_on_c, 10, 68, 76
12, 3344, Note_on_c, 10, 68, 0
12, 3360, Note_on_c, 10, 69, 76
12, 3464, Note_on_c, 10, 69, 0
12, 3480, Note_on_c, 10, 71, 76
12, 3584, Note_on_c, 10, 71, 0
12, 3600, Note_on_c, 10, 69, 76
12, 3704, Note_on_c, 10, 69, 0
12, 3720, Note_on_c, 10, 67, 76
12, 3824, Note_on_c, 10, 67, 0
12, 3840, Note_on_c, 10, 66, 76
12, 3944, Note_on_c, 10, 66, 0
12, 3960, Note_on_c, 10, 64, 76
12, 4064, Note_on_c, 10, 64, 0
12, 4080, Note_on_c, 10, 66, 76
12, 4304, Note_on_c, 10, 66, 0
12, 4320, Note_on_c, 10, 78, 76
12, 4544, Note_on_c, 10, 78, 0
12, 4560, Note_on_c, 10, 71, 76
12, 4799, Note_on_c, 10, 71, 0
12, 4800, Note_on_c, 10, 69, 76
12, 5039, Note_on_c, 10, 69, 0
12, 5040, Note_on_c, 10, 68, 76
12, 5264, Note_on_c, 10, 68, 0
12, 5280, Note_on_c, 10, 83, 76
12, 5504, Note_on_c, 10, 83, 0
12, 5520, Note_on_c, 10, 76, 76
12, 5759, Note_on_c, 10, 76, 0
12, 5760, Note_on_c, 10, 74, 76
12, 5999, Note_on_c, 10, 74, 0
12, 6000, Note_on_c, 10, 73, 76
12, 6104, Note_on_c, 10, 73, 0
12, 6120, Note_on_c, 10, 71, 76
12, 6224, Note_on_c, 10, 71, 0
12, 6240, Note_on_c, 10, 73, 76
12, 6344, Note_on_c, 10, 73, 0
12, 6360, Note_on_c, 10, 74, 76
12, 6464, Note_on_c, 10, 74, 0
12, 6480, Note_on_c, 10, 73, 76
12, 6584, Note_on_c, 10, 73, 0
12, 6600, Note_on_c, 10, 71, 76
12, 6704, Note_on_c, 10, 71, 0
12, 6720, Note_on_c, 10, 69, 76
12, 6824, Note_on_c, 10, 69, 0
12, 6840, Note_on_c, 10, 68, 76
12, 6944, Note_on_c, 10, 68, 0
12, 6960, Note_on_c, 10, 69, 76
12, 7664, Note_on_c, 10, 69, 0
12, 7680, Note_on_c, 10, 66, 76
12, 7784, Note_on_c, 10, 66, 0
12, 7800, Note_on_c, 10, 67, 76
12, 7904, Note_on_c, 10, 67, 0
12, 7920, Note_on_c, 10, 69, 76
12, 8144, Note_on_c, 10, 69, 0
12, 8160, Note_on_c, 10, 74, 76
12, 8384, Note_on_c, 10, 74, 0
12, 8400, Note_on_c, 10, 69, 76
12, 8639, Note_on_c, 10, 69, 0
12, 8640, Note_on_c, 10, 67, 76
12, 8879, Note_on_c, 10, 67, 0
12, 8880, Note_on_c, 10, 66, 76
12, 9104, Note_on_c, 10, 66, 0
12, 9120, Note_on_c, 10, 74, 76
12, 9344, Note_on_c, 10, 74, 0
12, 9360, Note_on_c, 10, 66, 76
12, 9599, Note_on_c, 10, 66, 0
12, 9600, Note_on_c, 10, 64, 76
12, 9839, Note_on_c, 10, 64, 0
12, 9840, Note_on_c, 10, 62, 76
12, 10064, Note_on_c, 10, 62, 0
12, 10080, Note_on_c, 10, 66, 76
12, 10184, Note_on_c, 10, 66, 0
12, 10200, Note_on_c, 10, 64, 76
12, 10304, Note_on_c, 10, 64, 0
12, 10320, Note_on_c, 10, 66, 76
12, 10544, Note_on_c, 10, 66, 0
12, 10560, Note_on_c, 10, 68, 76
12, 10784, Note_on_c, 10, 68, 0
12, 10800, Note_on_c, 10, 69, 76
12, 10904, Note_on_c, 10, 69, 0
12, 10920, Note_on_c, 10, 68, 76
12, 11024, Note_on_c, 10, 68, 0
12, 11040, Note_on_c, 10, 69, 76
12, 11144, Note_on_c, 10, 69, 0
12, 11160, Note_on_c, 10, 71, 76
12, 11264, Note_on_c, 10, 71, 0
12, 11280, Note_on_c, 10, 69, 76
12, 11384, Note_on_c, 10, 69, 0
12, 11400, Note_on_c, 10, 67, 76
12, 11504, Note_on_c, 10, 67, 0
12, 11520, Note_on_c, 10, 66, 76
12, 11624, Note_on_c, 10, 66, 0
12, 11640, Note_on_c, 10, 64, 76
12, 11744, Note_on_c, 10, 64, 0
12, 11760, Note_on_c, 10, 66, 76
12, 11984, Note_on_c, 10, 66, 0
12, 12000, Note_on_c, 10, 78, 76
12, 12224, Note_on_c, 10, 78, 0
12, 12240, Note_on_c, 10, 71, 76
12, 12479, Note_on_c, 10, 71, 0
12, 12480, Note_on_c, 10, 69, 76
12, 12719, Note_on_c, 10, 69, 0
12, 12720, Note_on_c, 10, 68, 76
12, 12944, Note_on_c, 10, 68, 0
12, 12960, Note_on_c, 10, 83, 76
12, 13184, Note_on_c, 10, 83, 0
12, 13200, Note_on_c, 10, 76, 76
12, 13439, Note_on_c, 10, 76, 0
12, 13440, Note_on_c, 10, 74, 76
12, 13679, Note_on_c, 10, 74, 0
12, 13680, Note_on_c, 10, 73, 76
12, 13784, Note_on_c, 10, 73, 0
12, 13800, Note_on_c, 10, 71, 76
12, 13904, Note_on_c, 10, 71, 0
12, 13920, Note_on_c, 10, 73, 76
12, 14024, Note_on_c, 10, 73, 0
12, 14040, Note_on_c, 10, 74, 76
12, 14144, Note_on_c, 10, 74, 0
12, 14160, Note_on_c, 10, 73, 76
12, 14264, Note_on_c, 10, 73, 0
12, 14280, Note_on_c, 10, 71, 76
12, 14384, Note_on_c, 10, 71, 0
12, 14400, Note_on_c, 10, 69, 76
12, 14504, Note_on_c, 10, 69, 0
12, 14520, Note_on_c, 10, 68, 76
12, 14624, Note_on_c, 10, 68, 0
12, 14640, Note_on_c, 10, 69, 76
12, 15344, Note_on_c, 10, 69, 0
12, 15360, Note_on_c, 10, 73, 76
12, 15464, Note_on_c, 10, 73, 0
12, 15480, Note_on_c, 10, 74, 76
12, 15584, Note_on_c, 10, 74, 0
12, 15600, Note_on_c, 10, 76, 76
12, 15824, Note_on_c, 10, 76, 0
12, 15840, Note_on_c, 10, 81, 76
12, 16064, Note_on_c, 10, 81, 0
12, 16080, Note_on_c, 10, 76, 76
12, 16319, Note_on_c, 10, 76, 0
12, 16320, Note_on_c, 10, 74, 76
12, 16559, Note_on_c, 10, 74, 0
12, 16560, Note_on_c, 10, 73, 76
12, 16784, Note_on_c, 10, 73, 0
12, 16800, Note_on_c, 10, 81, 76
12, 17024, Note_on_c, 10, 81, 0
12, 17040, Note_on_c, 10, 73, 76
12, 17279, Note_on_c, 10, 73, 0
12, 17280, Note_on_c, 10, 71, 76
12, 17519, Note_on_c, 10, 71, 0
12, 17520, Note_on_c, 10, 69, 76
12, 17744, Note_on_c, 10, 69, 0
12, 17760, Note_on_c, 10, 74, 76
12, 17984, Note_on_c, 10, 74, 0
12, 18000, Note_on_c, 10, 79, 76
12, 18224, Note_on_c, 10, 79, 0
12, 18240, Note_on_c, 10, 78, 76
12, 18344, Note_on_c, 10, 78, 0
12, 18360, Note_on_c, 10, 76, 76
12, 18464, Note_on_c, 10, 76, 0
12, 18480, Note_on_c, 10, 78, 76
12, 18584, Note_on_c, 10, 78, 0
12, 18600, Note_on_c, 10, 79, 76
12, 18704, Note_on_c, 10, 79, 0
12, 18720, Note_on_c, 10, 78, 76
12, 18824, Note_on_c, 10, 78, 0
12, 18840, Note_on_c, 10, 76, 76
12, 18944, Note_on_c, 10, 76, 0
12, 18960, Note_on_c, 10, 74, 76
12, 19064, Note_on_c, 10, 74, 0
12, 19080, Note_on_c, 10, 76, 76
12, 19184, Note_on_c, 10, 76, 0
12, 19200, Note_on_c, 10, 78, 76
12, 19304, Note_on_c, 10, 78, 0
12, 19320, Note_on_c, 10, 74, 76
12, 19424, Note_on_c, 10, 74, 0
12, 19440, Note_on_c, 10, 71, 76
12, 19559, Note_on_c, 10, 71, 0
12, 19560, Note_on_c, 10, 78, 76
12, 19679, Note_on_c, 10, 78, 0
12, 19680, Note_on_c, 10, 79, 76
12, 20144, Note_on_c, 10, 79, 0
12, 20160, Note_on_c, 10, 78, 76
12, 20384, Note_on_c, 10, 78, 0
12, 20400, Note_on_c, 10, 67, 76
12, 20519, Note_on_c, 10, 67, 0
12, 20520, Note_on_c, 10, 75, 76
12, 20639, Note_on_c, 10, 75, 0
12, 20640, Note_on_c, 10, 76, 76
12, 21104, Note_on_c, 10, 76, 0
12, 21120, Note_on_c, 10, 78, 76
12, 21344, Note_on_c, 10, 78, 0
12, 21360, Note_on_c, 10, 71, 76
12, 21479, Note_on_c, 10, 71, 0
12, 21480, Note_on_c, 10, 78, 76
12, 21599, Note_on_c, 10, 78, 0
12, 21600, Note_on_c, 10, 79, 76
12, 22064, Note_on_c, 10, 79, 0
12, 22080, Note_on_c, 10, 78, 76
12, 22304, Note_on_c, 10, 78, 0
12, 22320, Note_on_c, 10, 64, 76
12, 22439, Note_on_c, 10, 64, 0
12, 22440, Note_on_c, 10, 75, 76
12, 22559, Note_on_c, 10, 75, 0
12, 22560, Note_on_c, 10, 76, 76
12, 23024, Note_on_c, 10, 76, 0
12, 23040, Note_on_c, 10, 70, 76
12, 23144, Note_on_c, 10, 70, 0
12, 23160, Note_on_c, 10, 71, 76
12, 23264, Note_on_c, 10, 71, 0
12, 23280, Note_on_c, 10, 73, 76
12, 23504, Note_on_c, 10, 73, 0
12, 23520, Note_on_c, 10, 76, 76
12, 23744, Note_on_c, 10, 76, 0
12, 23760, Note_on_c, 10, 79, 76
12, 23999, Note_on_c, 10, 79, 0
12, 24000, Note_on_c, 10, 78, 76
12, 24224, Note_on_c, 10, 78, 0
12, 24240, Note_on_c, 10, 66, 76
12, 24464, Note_on_c, 10, 66, 0
12, 24480, Note_on_c, 10, 73, 76
12, 24704, Note_on_c, 10, 73, 0
12, 24720, Note_on_c, 10, 76, 76
12, 24959, Note_on_c, 10, 76, 0
12, 24960, Note_on_c, 10, 74, 76
12, 25184, Note_on_c, 10, 74, 0
12, 25200, Note_on_c, 10, 83, 76
12, 25424, Note_on_c, 10, 83, 0
12, 25440, Note_on_c, 10, 78, 76
12, 25544, Note_on_c, 10, 78, 0
12, 25560, Note_on_c, 10, 76, 76
12, 25664, Note_on_c, 10, 76, 0
12, 25680, Note_on_c, 10, 74, 76
12, 25904, Note_on_c, 10, 74, 0
12, 25920, Note_on_c, 10, 73, 76
12, 26144, Note_on_c, 10, 73, 0
12, 26160, Note_on_c, 10, 71, 76
12, 26864, Note_on_c, 10, 71, 0
12, 26880, Note_on_c, 10, 66, 76
12, 26984, Note_on_c, 10, 66, 0
12, 27000, Note_on_c, 10, 67, 76
12, 27104, Note_on_c, 10, 67, 0
12, 27120, Note_on_c, 10, 69, 76
12, 27344, Note_on_c, 10, 69, 0
12, 27360, Note_on_c, 10, 74, 76
12, 27584, Note_on_c, 10, 74, 0
12, 27600, Note_on_c, 10, 66, 76
12, 27839, Note_on_c, 10, 66, 0
12, 27840, Note_on_c, 10, 64, 76
12, 28079, Note_on_c, 10, 64, 0
12, 28080, Note_on_c, 10, 62, 76
12, 28304, Note_on_c, 10, 62, 0
12, 28320, Note_on_c, 10, 81, 76
12, 28544, Note_on_c, 10, 81, 0
12, 28560, Note_on_c, 10, 72, 76
12, 28799, Note_on_c, 10, 72, 0
12, 28800, Note_on_c, 10, 71, 76
12, 29039, Note_on_c, 10, 71, 0
12, 29040, Note_on_c, 10, 72, 76
12, 29264, Note_on_c, 10, 72, 0
12, 29280, Note_on_c, 10, 78, 76
12, 29384, Note_on_c, 10, 78, 0
12, 29400, Note_on_c, 10, 79, 76
12, 29504, Note_on_c, 10, 79, 0
12, 29520, Note_on_c, 10, 81, 76
12, 29744, Note_on_c, 10, 81, 0
12, 29760, Note_on_c, 10, 72, 76
12, 29984, Note_on_c, 10, 72, 0
12, 30000, Note_on_c, 10, 71, 76
12, 30119, Note_on_c, 10, 71, 0
12, 30120, Note_on_c, 10, 69, 76
12, 30239, Note_on_c, 10, 69, 0
12, 30240, Note_on_c, 10, 67, 76
12, 30344, Note_on_c, 10, 67, 0
12, 30360, Note_on_c, 10, 69, 76
12, 30464, Note_on_c, 10, 69, 0
12, 30480, Note_on_c, 10, 71, 76
12, 30584, Note_on_c, 10, 71, 0
12, 30600, Note_on_c, 10, 74, 76
12, 30704, Note_on_c, 10, 74, 0
12, 30720, Note_on_c, 10, 73, 76
12, 30824, Note_on_c, 10, 73, 0
12, 30840, Note_on_c, 10, 76, 76
12, 30944, Note_on_c, 10, 76, 0
12, 30960, Note_on_c, 10, 74, 76
12, 31079, Note_on_c, 10, 74, 0
12, 31080, Note_on_c, 10, 73, 76
12, 31199, Note_on_c, 10, 73, 0
12, 31200, Note_on_c, 10, 71, 76
12, 31304, Note_on_c, 10, 71, 0
12, 31320, Note_on_c, 10, 73, 76
12, 31424, Note_on_c, 10, 73, 0
12, 31440, Note_on_c, 10, 74, 76
12, 31544, Note_on_c, 10, 74, 0
12, 31560, Note_on_c, 10, 78, 76
12, 31664, Note_on_c, 10, 78, 0
12, 31680, Note_on_c, 10, 76, 76
12, 31784, Note_on_c, 10, 76, 0
12, 31800, Note_on_c, 10, 79, 76
12, 31904, Note_on_c, 10, 79, 0
12, 31920, Note_on_c, 10, 78, 76
12, 32039, Note_on_c, 10, 78, 0
12, 32040, Note_on_c, 10, 76, 76
12, 32159, Note_on_c, 10, 76, 0
12, 32160, Note_on_c, 10, 74, 76
12, 32264, Note_on_c, 10, 74, 0
12, 32280, Note_on_c, 10, 76, 76
12, 32384, Note_on_c, 10, 76, 0
12, 32400, Note_on_c, 10, 78, 76
12, 32504, Note_on_c, 10, 78, 0
12, 32520, Note_on_c, 10, 81, 76
12, 32624, Note_on_c, 10, 81, 0
12, 32640, Note_on_c, 10, 79, 76
12, 32744, Note_on_c, 10, 79, 0
12, 32760, Note_on_c, 10, 83, 76
12, 32864, Note_on_c, 10, 83, 0
12, 32880, Note_on_c, 10, 81, 76
12, 33104, Note_on_c, 10, 81, 0
12, 33120, Note_on_c, 10, 80, 76
12, 33239, Note_on_c, 10, 80, 0
12, 33240, Note_on_c, 10, 81, 76
12, 33359, Note_on_c, 10, 81, 0
12, 33360, Note_on_c, 10, 83, 76
12, 33584, Note_on_c, 10, 83, 0
12, 33600, Note_on_c, 10, 74, 76
12, 33824, Note_on_c, 10, 74, 0
12, 33840, Note_on_c, 10, 73, 76
12, 33944, Note_on_c, 10, 73, 0
12, 33960, Note_on_c, 10, 74, 76
12, 34064, Note_on_c, 10, 74, 0
12, 34080, Note_on_c, 10, 73, 76
12, 34184, Note_on_c, 10, 73, 0
12, 34200, Note_on_c, 10, 71, 76
12, 34304, Note_on_c, 10, 71, 0
12, 34320, Note_on_c, 10, 69, 76
12, 34424, Note_on_c, 10, 69, 0
12, 34440, Note_on_c, 10, 71, 76
12, 34544, Note_on_c, 10, 71, 0
12, 34560, Note_on_c, 10, 73, 76
12, 34664, Note_on_c, 10, 73, 0
12, 34680, Note_on_c, 10, 69, 76
12, 34784, Note_on_c, 10, 69, 0
12, 34800, Note_on_c, 10, 66, 76
12, 34919, Note_on_c, 10, 66, 0
12, 34920, Note_on_c, 10, 73, 76
12, 35039, Note_on_c, 10, 73, 0
12, 35040, Note_on_c, 10, 74, 76
12, 35504, Note_on_c, 10, 74, 0
12, 35520, Note_on_c, 10, 78, 76
12, 35744, Note_on_c, 10, 78, 0
12, 35760, Note_on_c, 10, 83, 76
12, 35879, Note_on_c, 10, 83, 0
12, 35880, Note_on_c, 10, 73, 76
12, 35999, Note_on_c, 10, 73, 0
12, 36000, Note_on_c, 10, 74, 76
12, 36464, Note_on_c, 10, 74, 0
12, 36480, Note_on_c, 10, 73, 76
12, 36584, Note_on_c, 10, 73, 0
12, 36600, Note_on_c, 10, 71, 76
12, 36704, Note_on_c, 10, 71, 0
12, 36720, Note_on_c, 10, 73, 76
12, 36824, Note_on_c, 10, 73, 0
12, 36840, Note_on_c, 10, 69, 76
12, 36944, Note_on_c, 10, 69, 0
12, 36960, Note_on_c, 10, 81, 76
12, 37184, Note_on_c, 10, 81, 0
12, 37200, Note_on_c, 10, 74, 76
12, 37424, Note_on_c, 10, 74, 0
12, 37440, Note_on_c, 10, 76, 76
12, 37544, Note_on_c, 10, 76, 0
12, 37560, Note_on_c, 10, 73, 76
12, 37664, Note_on_c, 10, 73, 0
12, 37680, Note_on_c, 10, 74, 76
12, 38384, Note_on_c, 10, 74, 0
12, 38400, Note_on_c, 10, 73, 76
12, 38504, Note_on_c, 10, 73, 0
12, 38520, Note_on_c, 10, 74, 76
12, 38624, Note_on_c, 10, 74, 0
12, 38640, Note_on_c, 10, 76, 76
12, 38864, Note_on_c, 10, 76, 0
12, 38880, Note_on_c, 10, 81, 76
12, 39104, Note_on_c, 10, 81, 0
12, 39120, Note_on_c, 10, 76, 76
12, 39359, Note_on_c, 10, 76, 0
12, 39360, Note_on_c, 10, 74, 76
12, 39599, Note_on_c, 10, 74, 0
12, 39600, Note_on_c, 10, 73, 76
12, 39824, Note_on_c, 10, 73, 0
12, 39840, Note_on_c, 10, 81, 76
12, 40064, Note_on_c, 10, 81, 0
12, 40080, Note_on_c, 10, 73, 76
12, 40319, Note_on_c, 10, 73, 0
12, 40320, Note_on_c, 10, 71, 76
12, 40559, Note_on_c, 10, 71, 0
12, 40560, Note_on_c, 10, 69, 76
12, 40784, Note_on_c, 10, 69, 0
12, 40800, Note_on_c, 10, 74, 76
12, 41024, Note_on_c, 10, 74, 0
12, 41040, Note_on_c, 10, 79, 76
12, 41264, Note_on_c, 10, 79, 0
12, 41280, Note_on_c, 10, 78, 76
12, 41384, Note_on_c, 10, 78, 0
12, 41400, Note_on_c, 10, 76, 76
12, 41504, Note_on_c, 10, 76, 0
12, 41520, Note_on_c, 10, 78, 76
12, 41624, Note_on_c, 10, 78, 0
12, 41640, Note_on_c, 10, 79, 76
12, 41744, Note_on_c, 10, 79, 0
12, 41760, Note_on_c, 10, 78, 76
12, 41864, Note_on_c, 10, 78, 0
12, 41880, Note_on_c, 10, 76, 76
12, 41984, Note_on_c, 10, 76, 0
12, 42000, Note_on_c, 10, 74, 76
12, 42104, Note_on_c, 10, 74, 0
12, 42120, Note_on_c, 10, 76, 76
12, 42224, Note_on_c, 10, 76, 0
12, 42240, Note_on_c, 10, 78, 76
12, 42344, Note_on_c, 10, 78, 0
12, 42360, Note_on_c, 10, 74, 76
12, 42464, Note_on_c, 10, 74, 0
12, 42480, Note_on_c, 10, 71, 76
12, 42599, Note_on_c, 10, 71, 0
12, 42600, Note_on_c, 10, 78, 76
12, 42719, Note_on_c, 10, 78, 0
12, 42720, Note_on_c, 10, 79, 76
12, 43184, Note_on_c, 10, 79, 0
12, 43200, Note_on_c, 10, 78, 76
12, 43424, Note_on_c, 10, 78, 0
12, 43440, Note_on_c, 10, 67, 76
12, 43559, Note_on_c, 10, 67, 0
12, 43560, Note_on_c, 10, 75, 76
12, 43679, Note_on_c, 10, 75, 0
12, 43680, Note_on_c, 10, 76, 76
12, 44144, Note_on_c, 10, 76, 0
12, 44160, Note_on_c, 10, 78, 76
12, 44384, Note_on_c, 10, 78, 0
12, 44400, Note_on_c, 10, 71, 76
12, 44519, Note_on_c, 10, 71, 0
12, 44520, Note_on_c, 10, 78, 76
12, 44639, Note_on_c, 10, 78, 0
12, 44640, Note_on_c, 10, 79, 76
12, 45104, Note_on_c, 10, 79, 0
12, 45120, Note_on_c, 10, 78, 76
12, 45344, Note_on_c, 10, 78, 0
12, 45360, Note_on_c, 10, 64, 76
12, 45479, Note_on_c, 10, 64, 0
12, 45480, Note_on_c, 10, 75, 76
12, 45599, Note_on_c, 10, 75, 0
12, 45600, Note_on_c, 10, 76, 76
12, 46064, Note_on_c, 10, 76, 0
12, 46080, Note_on_c, 10, 70, 76
12, 46184, Note_on_c, 10, 70, 0
12, 46200, Note_on_c, 10, 71, 76
12, 46304, Note_on_c, 10, 71, 0
12, 46320, Note_on_c, 10, 73, 76
12, 46544, Note_on_c, 10, 73, 0
12, 46560, Note_on_c, 10, 76, 76
12, 46784, Note_on_c, 10, 76, 0
12, 46800, Note_on_c, 10, 79, 76
12, 47039, Note_on_c, 10, 79, 0
12, 47040, Note_on_c, 10, 78, 76
12, 47264, Note_on_c, 10, 78, 0
12, 47280, Note_on_c, 10, 66, 76
12, 47504, Note_on_c, 10, 66, 0
12, 47520, Note_on_c, 10, 73, 76
12, 47744, Note_on_c, 10, 73, 0
12, 47760, Note_on_c, 10, 76, 76
12, 47999, Note_on_c, 10, 76, 0
12, 48000, Note_on_c, 10, 74, 76
12, 48224, Note_on_c, 10, 74, 0
12, 48240, Note_on_c, 10, 83, 76
12, 48464, Note_on_c, 10, 83, 0
12, 48480, Note_on_c, 10, 78, 76
12, 48584, Note_on_c, 10, 78, 0
12, 48600, Note_on_c, 10, 76, 76
12, 48704, Note_on_c, 10, 76, 0
12, 48720, Note_on_c, 10, 74, 76
12, 48944, Note_on_c, 10, 74, 0
12, 48960, Note_on_c, 10, 73, 76
12, 49184, Note_on_c, 10, 73, 0
12, 49200, Note_on_c, 10, 71, 76
12, 49904, Note_on_c, 10, 71, 0
12, 49920, Note_on_c, 10, 66, 76
12, 50024, Note_on_c, 10, 66, 0
12, 50040, Note_on_c, 10, 67, 76
12, 50144, Note_on_c, 10, 67, 0
12, 50160, Note_on_c, 10, 69, 76
12, 50384, Note_on_c, 10, 69, 0
12, 50400, Note_on_c, 10, 74, 76
12, 50624, Note_on_c, 10, 74, 0
12, 50640, Note_on_c, 10, 66, 76
12, 50879, Note_on_c, 10, 66, 0
12, 50880, Note_on_c, 10, 64, 76
12, 51119, Note_on_c, 10, 64, 0
12, 51120, Note_on_c, 10, 62, 76
12, 51344, Note_on_c, 10, 62, 0
12, 51360, Note_on_c, 10, 81, 76
12, 51584, Note_on_c, 10, 81, 0
12, 51600, Note_on_c, 10, 72, 76
12, 51839, Note_on_c, 10, 72, 0
12, 51840, Note_on_c, 10, 71, 76
12, 52079, Note_on_c, 10, 71, 0
12, 52080, Note_on_c, 10, 72, 76
12, 52304, Note_on_c, 10, 72, 0
12, 52320, Note_on_c, 10, 78, 76
12, 52424, Note_on_c, 10, 78, 0
12, 52440, Note_on_c, 10, 79, 76
12, 52544, Note_on_c, 10, 79, 0
12, 52560, Note_on_c, 10, 81, 76
12, 52784, Note_on_c, 10, 81, 0
12, 52800, Note_on_c, 10, 72, 76
12, 53024, Note_on_c, 10, 72, 0
12, 53040, Note_on_c, 10, 71, 76
12, 53159, Note_on_c, 10, 71, 0
12, 53160, Note_on_c, 10, 69, 76
12, 53279, Note_on_c, 10, 69, 0
12, 53280, Note_on_c, 10, 67, 76
12, 53384, Note_on_c, 10, 67, 0
12, 53400, Note_on_c, 10, 69, 76
12, 53504, Note_on_c, 10, 69, 0
12, 53520, Note_on_c, 10, 71, 76
12, 53624, Note_on_c, 10, 71, 0
12, 53640, Note_on_c, 10, 74, 76
12, 53744, Note_on_c, 10, 74, 0
12, 53760, Note_on_c, 10, 73, 76
12, 53864, Note_on_c, 10, 73, 0
12, 53880, Note_on_c, 10, 76, 76
12, 53984, Note_on_c, 10, 76, 0
12, 54000, Note_on_c, 10, 74, 76
12, 54119, Note_on_c, 10, 74, 0
12, 54120, Note_on_c, 10, 73, 76
12, 54239, Note_on_c, 10, 73, 0
12, 54240, Note_on_c, 10, 71, 76
12, 54344, Note_on_c, 10, 71, 0
12, 54360, Note_on_c, 10, 73, 76
12, 54464, Note_on_c, 10, 73, 0
12, 54480, Note_on_c, 10, 74, 76
12, 54584, Note_on_c, 10, 74, 0
12, 54600, Note_on_c, 10, 78, 76
12, 54704, Note_on_c, 10, 78, 0
12, 54720, Note_on_c, 10, 76, 76
12, 54824, Note_on_c, 10, 76, 0
12, 54840, Note_on_c, 10, 79, 76
12, 54944, Note_on_c, 10, 79, 0
12, 54960, Note_on_c, 10, 78, 76
12, 55079, Note_on_c, 10, 78, 0
12, 55080, Note_on_c, 10, 76, 76
12, 55199, Note_on_c, 10, 76, 0
12, 55200, Note_on_c, 10, 74, 76
12, 55304, Note_on_c, 10, 74, 0
12, 55320, Note_on_c, 10, 76, 76
12, 55424, Note_on_c, 10, 76, 0
12, 55440, Note_on_c, 10, 78, 76
12, 55544, Note_on_c, 10, 78, 0
12, 55560, Note_on_c, 10, 81, 76
12, 55664, Note_on_c, 10, 81, 0
12, 55680, Note_on_c, 10, 79, 76
12, 55784, Note_on_c, 10, 79, 0
12, 55800, Note_on_c, 10, 83, 76
12, 55904, Note_on_c, 10, 83, 0
12, 55920, Note_on_c, 10, 81, 76
12, 56144, Note_on_c, 10, 81, 0
12, 56160, Note_on_c, 10, 80, 76
12, 56279, Note_on_c, 10, 80, 0
12, 56280, Note_on_c, 10, 81, 76
12, 56399, Note_on_c, 10, 81, 0
12, 56400, Note_on_c, 10, 83, 76
12, 56624, Note_on_c, 10, 83, 0
12, 56640, Note_on_c, 10, 74, 76
12, 56864, Note_on_c, 10, 74, 0
12, 56880, Note_on_c, 10, 73, 76
12, 56984, Note_on_c, 10, 73, 0
12, 57000, Note_on_c, 10, 74, 76
12, 57104, Note_on_c, 10, 74, 0
12, 57120, Note_on_c, 10, 73, 76
12, 57224, Note_on_c, 10, 73, 0
12, 57240, Note_on_c, 10, 71, 76
12, 57344, Note_on_c, 10, 71, 0
12, 57360, Note_on_c, 10, 69, 76
12, 57464, Note_on_c, 10, 69, 0
12, 57480, Note_on_c, 10, 71, 76
12, 57584, Note_on_c, 10, 71, 0
12, 57600, Note_on_c, 10, 73, 76
12, 57704, Note_on_c, 10, 73, 0
12, 57720, Note_on_c, 10, 69, 76
12, 57824, Note_on_c, 10, 69, 0
12, 57840, Note_on_c, 10, 66, 76
12, 57959, Note_on_c, 10, 66, 0
12, 57960, Note_on_c, 10, 73, 76
12, 58079, Note_on_c, 10, 73, 0
12, 58080, Note_on_c, 10, 74, 76
12, 58544, Note_on_c, 10, 74, 0
12, 58560, Note_on_c, 10, 78, 76
12, 58784, Note_on_c, 10, 78, 0
12, 58800, Note_on_c, 10, 83, 76
12, 58919, Note_on_c, 10, 83, 0
12, 58920, Note_on_c, 10, 73, 76
12, 59039, Note_on_c, 10, 73, 0
12, 59040, Note_on_c, 10, 74, 76
12, 59504, Note_on_c, 10, 74, 0
12, 59520, Note_on_c, 10, 73, 76
12, 59624, Note_on_c, 10, 73, 0
12, 59640, Note_on_c, 10, 71, 76
12, 59744, Note_on_c, 10, 71, 0
12, 59760, Note_on_c, 10, 73, 76
12, 59864, Note_on_c, 10, 73, 0
12, 59880, Note_on_c, 10, 69, 76
12, 59984, Note_on_c, 10, 69, 0
12, 60000, Note_on_c, 10, 81, 76
12, 60224, Note_on_c, 10, 81, 0
12, 60240, Note_on_c, 10, 74, 76
12, 60464, Note_on_c, 10, 74, 0
12, 60480, Note_on_c, 10, 76, 76
12, 60584, Note_on_c, 10, 76, 0
12, 60600, Note_on_c, 10, 73, 76
12, 60704, Note_on_c, 10, 73, 0
12, 60720, Note_on_c, 10, 74, 76
12, 61439, Note_on_c, 10, 74, 0
12, 61439, End_track
13, 0, Start_track
13, 0, Title_t, "Violin II"
13, 0, MIDI_port, 0
13, 0, Program_c, 11, 48
13, 0, Control_c, 11, 10, 24
13, 0, Control_c, 11, 11, 127
13, 0, Control_c, 11, 7, 96
13, 0, Note_on_c, 11, 62, 76
13, 104, Note_on_c, 11, 62, 0
13, 120, Note_on_c, 11, 64, 76
13, 224, Note_on_c, 11, 64, 0
13, 240, Note_on_c, 11, 66, 76
13, 464, Note_on_c, 11, 66, 0
13, 480, Note_on_c, 11, 69, 76
13, 704, Note_on_c, 11, 69, 0
13, 720, Note_on_c, 11, 66, 76
13, 944, Note_on_c, 11, 66, 0
13, 960, Note_on_c, 11, 61, 76
13, 1184, Note_on_c, 11, 61, 0
13, 1200, Note_on_c, 11, 62, 76
13, 1424, Note_on_c, 11, 62, 0
13, 1440, Note_on_c, 11, 66, 76
13, 1664, Note_on_c, 11, 66, 0
13, 1680, Note_on_c, 11, 62, 76
13, 1904, Note_on_c, 11, 62, 0
13, 1920, Note_on_c, 11, 58, 76
13, 2144, Note_on_c, 11, 58, 0
13, 2160, Note_on_c, 11, 59, 76
13, 2384, Note_on_c, 11, 59, 0
13, 2400, Note_on_c, 11, 62, 76
13, 2504, Note_on_c, 11, 62, 0
13, 2520, Note_on_c, 11, 61, 76
13, 2624, Note_on_c, 11, 61, 0
13, 2640, Note_on_c, 11, 59, 76
13, 2864, Note_on_c, 11, 59, 0
13, 2880, Note_on_c, 11, 64, 76
13, 3104, Note_on_c, 11, 64, 0
13, 3120, Note_on_c, 11, 64, 76
13, 3344, Note_on_c, 11, 64, 0
13, 3360, Note_on_c, 11, 61, 76
13, 3584, Note_on_c, 11, 61, 0
13, 3600, Note_on_c, 11, 57, 76
13, 3824, Note_on_c, 11, 57, 0
13, 3840, Note_on_c, 11, 61, 76
13, 4064, Note_on_c, 11, 61, 0
13, 4080, Note_on_c, 11, 62, 76
13, 4304, Note_on_c, 11, 62, 0
13, 4320, Note_on_c, 11, 71, 76
13, 4424, Note_on_c, 11, 71, 0
13, 4440, Note_on_c, 11, 69, 76
13, 4544, Note_on_c, 11, 69, 0
13, 4560, Note_on_c, 11, 71, 76
13, 4784, Note_on_c, 11, 71, 0
13, 4800, Note_on_c, 11, 62, 76
13, 5024, Note_on_c, 11, 62, 0
13, 5040, Note_on_c, 11, 64, 76
13, 5264, Note_on_c, 11, 64, 0
13, 5280, Note_on_c, 11, 76, 76
13, 5384, Note_on_c, 11, 76, 0
13, 5400, Note_on_c, 11, 74, 76
13, 5504, Note_on_c, 11, 74, 0
13, 5520, Note_on_c, 11, 76, 76
13, 5744, Note_on_c, 11, 76, 0
13, 5760, Note_on_c, 11, 68, 76
13, 5984, Note_on_c, 11, 68, 0
13, 6000, Note_on_c, 11, 64, 76
13, 6224, Note_on_c, 11, 64, 0
13, 6240, Note_on_c, 11, 69, 76
13, 6464, Note_on_c, 11, 69, 0
13, 6480, Note_on_c, 11, 66, 76
13, 6704, Note_on_c, 11, 66, 0
13, 6720, Note_on_c, 11, 64, 76
13, 6944, Note_on_c, 11, 64, 0
13, 6960, Note_on_c, 11, 64, 76
13, 7664, Note_on_c, 11, 64, 0
13, 7680, Note_on_c, 11, 62, 76
13, 7784, Note_on_c, 11, 62, 0
13, 7800, Note_on_c, 11, 64, 76
13, 7904, Note_on_c, 11, 64, 0
13, 7920, Note_on_c, 11, 66, 76
13, 8144, Note_on_c, 11, 66, 0
13, 8160, Note_on_c, 11, 69, 76
13, 8384, Note_on_c, 11, 69, 0
13, 8400, Note_on_c, 11, 66, 76
13, 8624, Note_on_c, 11, 66, 0
13, 8640, Note_on_c, 11, 61, 76
13, 8864, Note_on_c, 11, 61, 0
13, 8880, Note_on_c, 11, 62, 76
13, 9104, Note_on_c, 11, 62, 0
13, 9120, Note_on_c, 11, 66, 76
13, 9344, Note_on_c, 11, 66, 0
13, 9360, Note_on_c, 11, 62, 76
13, 9584, Note_on_c, 11, 62, 0
13, 9600, Note_on_c, 11, 58, 76
13, 9824, Note_on_c, 11, 58, 0
13, 9840, Note_on_c, 11, 59, 76
13, 10064, Note_on_c, 11, 59, 0
13, 10080, Note_on_c, 11, 62, 76
13, 10184, Note_on_c, 11, 62, 0
13, 10200, Note_on_c, 11, 61, 76
13, 10304, Note_on_c, 11, 61, 0
13, 10320, Note_on_c, 11, 59, 76
13, 10544, Note_on_c, 11, 59, 0
13, 10560, Note_on_c, 11, 64, 76
13, 10784, Note_on_c, 11, 64, 0
13, 10800, Note_on_c, 11, 64, 76
13, 11024, Note_on_c, 11, 64, 0
13, 11040, Note_on_c, 11, 61, 76
13, 11264, Note_on_c, 11, 61, 0
13, 11280, Note_on_c, 11, 57, 76
13, 11504, Note_on_c, 11, 57, 0
13, 11520, Note_on_c, 11, 61, 76
13, 11744, Note_on_c, 11, 61, 0
13, 11760, Note_on_c, 11, 62, 76
13, 11984, Note_on_c, 11, 62, 0
13, 12000, Note_on_c, 11, 71, 76
13, 12104, Note_on_c, 11, 71, 0
13, 12120, Note_on_c, 11, 69, 76
13, 12224, Note_on_c, 11, 69, 0
13, 12240, Note_on_c, 11, 71, 76
13, 12464, Note_on_c, 11, 71, 0
13, 12480, Note_on_c, 11, 62, 76
13, 12704, Note_on_c, 11, 62, 0
13, 12720, Note_on_c, 11, 64, 76
13, 12944, Note_on_c, 11, 64, 0
13, 12960, Note_on_c, 11, 76, 76
13, 13064, Note_on_c, 11, 76, 0
13, 13080, Note_on_c, 11, 74, 76
13, 13184, Note_on_c, 11, 74, 0
13, 13200, Note_on_c, 11, 76, 76
13, 13424, Note_on_c, 11, 76, 0
13, 13440, Note_on_c, 11, 68, 76
13, 13664, Note_on_c, 11, 68, 0
13, 13680, Note_on_c, 11, 64, 76
13, 13904, Note_on_c, 11, 64, 0
13, 13920, Note_on_c, 11, 69, 76
13, 14144, Note_on_c, 11, 69, 0
13, 14160, Note_on_c, 11, 66, 76
13, 14384, Note_on_c, 11, 66, 0
13, 14400, Note_on_c, 11, 64, 76
13, 14624, Note_on_c, 11, 64, 0
13, 14640, Note_on_c, 11, 64, 76
13, 15344, Note_on_c, 11, 64, 0
13, 15360, Note_on_c, 11, 69, 76
13, 15464, Note_on_c, 11, 69, 0
13, 15480, Note_on_c, 11, 71, 76
13, 15584, Note_on_c, 11, 71, 0
13, 15600, Note_on_c, 11, 73, 76
13, 15824, Note_on_c, 11, 73, 0
13, 15840, Note_on_c, 11, 76, 76
13, 16064, Note_on_c, 11, 76, 0
13, 16080, Note_on_c, 11, 73, 76
13, 16304, Note_on_c, 11, 73, 0
13, 16320, Note_on_c, 11, 68, 76
13, 16544, Note_on_c, 11, 68, 0
13, 16560, Note_on_c, 11, 69, 76
13, 16784, Note_on_c, 11, 69, 0
13, 16800, Note_on_c, 11, 73, 76
13, 17024, Note_on_c, 11, 73, 0
13, 17040, Note_on_c, 11, 69, 76
13, 17264, Note_on_c, 11, 69, 0
13, 17280, Note_on_c, 11, 64, 76
13, 17504, Note_on_c, 11, 64, 0
13, 17520, Note_on_c, 11, 66, 76
13, 17744, Note_on_c, 11, 66, 0
13, 17760, Note_on_c, 11, 69, 76
13, 17984, Note_on_c, 11, 69, 0
13, 18000, Note_on_c, 11, 71, 76
13, 18224, Note_on_c, 11, 71, 0
13, 18240, Note_on_c, 11, 69, 76
13, 18464, Note_on_c, 11, 69, 0
13, 18480, Note_on_c, 11, 69, 76
13, 18944, Note_on_c, 11, 69, 0
13, 18960, Note_on_c, 11, 69, 76
13, 19184, Note_on_c, 11, 69, 0
13, 19200, Note_on_c, 11, 69, 76
13, 19424, Note_on_c, 11, 69, 0
13, 19440, Note_on_c, 11, 71, 76
13, 19559, Note_on_c, 11, 71, 0
13, 19560, Note_on_c, 11, 75, 76
13, 19679, Note_on_c, 11, 75, 0
13, 19680, Note_on_c, 11, 76, 76
13, 20144, Note_on_c, 11, 76, 0
13, 20160, Note_on_c, 11, 71, 76
13, 20384, Note_on_c, 11, 71, 0
13, 20400, Note_on_c, 11, 69, 76
13, 20519, Note_on_c, 11, 69, 0
13, 20520, Note_on_c, 11, 66, 76
13, 20639, Note_on_c, 11, 66, 0
13, 20640, Note_on_c, 11, 67, 76
13, 21104, Note_on_c, 11, 67, 0
13, 21120, Note_on_c, 11, 63, 76
13, 21344, Note_on_c, 11, 63, 0
13, 21360, Note_on_c, 11, 64, 76
13, 21479, Note_on_c, 11, 64, 0
13, 21480, Note_on_c, 11, 75, 76
13, 21599, Note_on_c, 11, 75, 0
13, 21600, Note_on_c, 11, 76, 76
13, 22064, Note_on_c, 11, 76, 0
13, 22080, Note_on_c, 11, 75, 76
13, 22304, Note_on_c, 11, 75, 0
13, 22320, Note_on_c, 11, 76, 76
13, 22544, Note_on_c, 11, 76, 0
13, 22560, Note_on_c, 11, 70, 76
13, 22664, Note_on_c, 11, 70, 0
13, 22680, Note_on_c, 11, 71, 76
13, 22784, Note_on_c, 11, 71, 0
13, 22800, Note_on_c, 11, 70, 76
13, 23024, Note_on_c, 11, 70, 0
13, 23040, Note_on_c, 11, 73, 76
13, 23264, Note_on_c, 11, 73, 0
13, 23280, Note_on_c, 11, 66, 76
13, 23504, Note_on_c, 11, 66, 0
13, 23520, Note_on_c, 11, 73, 76
13, 23744, Note_on_c, 11, 73, 0
13, 23760, Note_on_c, 11, 76, 76
13, 23984, Note_on_c, 11, 76, 0
13, 24000, Note_on_c, 11, 66, 76
13, 24104, Note_on_c, 11, 66, 0
13, 24120, Note_on_c, 11, 68, 76
13, 24224, Note_on_c, 11, 68, 0
13, 24240, Note_on_c, 11, 70, 76
13, 24464, Note_on_c, 11, 70, 0
13, 24480, Note_on_c, 11, 66, 76
13, 24704, Note_on_c, 11, 66, 0
13, 24720, Note_on_c, 11, 73, 76
13, 24944, Note_on_c, 11, 73, 0
13, 24960, Note_on_c, 11, 71, 76
13, 25184, Note_on_c, 11, 71, 0
13, 25200, Note_on_c, 11, 71, 76
13, 25424, Note_on_c, 11, 71, 0
13, 25440, Note_on_c, 11, 74, 76
13, 25544, Note_on_c, 11, 74, 0
13, 25560, Note_on_c, 11, 73, 76
13, 25664, Note_on_c, 11, 73, 0
13, 25680, Note_on_c, 11, 71, 76
13, 25904, Note_on_c, 11, 71, 0
13, 25920, Note_on_c, 11, 70, 76
13, 26144, Note_on_c, 11, 70, 0
13, 26160, Note_on_c, 11, 66, 76
13, 26864, Note_on_c, 11, 66, 0
13, 26880, Note_on_c, 11, 62, 76
13, 26984, Note_on_c, 11, 62, 0
13, 27000, Note_on_c, 11, 64, 76
13, 27104, Note_on_c, 11, 64, 0
13, 27120, Note_on_c, 11, 66, 76
13, 27344, Note_on_c, 11, 66, 0
13, 27360, Note_on_c, 11, 62, 76
13, 27584, Note_on_c, 11, 62, 0
13, 27600, Note_on_c, 11, 69, 76
13, 27839, Note_on_c, 11, 69, 0
13, 27840, Note_on_c, 11, 71, 76
13, 28079, Note_on_c, 11, 71, 0
13, 28080, Note_on_c, 11, 72, 76
13, 28304, Note_on_c, 11, 72, 0
13, 28320, Note_on_c, 11, 62, 76
13, 28544, Note_on_c, 11, 62, 0
13, 28560, Note_on_c, 11, 69, 76
13, 28799, Note_on_c, 11, 69, 0
13, 28800, Note_on_c, 11, 67, 76
13, 29039, Note_on_c, 11, 67, 0
13, 29040, Note_on_c, 11, 66, 76
13, 29264, Note_on_c, 11, 66, 0
13, 29280, Note_on_c, 11, 72, 76
13, 29384, Note_on_c, 11, 72, 0
13, 29400, Note_on_c, 11, 71, 76
13, 29504, Note_on_c, 11, 71, 0
13, 29520, Note_on_c, 11, 69, 76
13, 29744, Note_on_c, 11, 69, 0
13, 29760, Note_on_c, 11, 66, 76
13, 29984, Note_on_c, 11, 66, 0
13, 30000, Note_on_c, 11, 67, 76
13, 30224, Note_on_c, 11, 67, 0
13, 30240, Note_on_c, 11, 62, 76
13, 30464, Note_on_c, 11, 62, 0
13, 30480, Note_on_c, 11, 67, 76
13, 30704, Note_on_c, 11, 67, 0
13, 30720, Note_on_c, 11, 67, 76
13, 30944, Note_on_c, 11, 67, 0
13, 30960, Note_on_c, 11, 66, 76
13, 31184, Note_on_c, 11, 66, 0
13, 31200, Note_on_c, 11, 62, 76
13, 31424, Note_on_c, 11, 62, 0
13, 31440, Note_on_c, 11, 74, 76
13, 31664, Note_on_c, 11, 74, 0
13, 31680, Note_on_c, 11, 69, 76
13, 31904, Note_on_c, 11, 69, 0
13, 31920, Note_on_c, 11, 69, 76
13, 32144, Note_on_c, 11, 69, 0
13, 32160, Note_on_c, 11, 66, 76
13, 32384, Note_on_c, 11, 66, 0
13, 32400, Note_on_c, 11, 69, 76
13, 32624, Note_on_c, 11, 69, 0
13, 32640, Note_on_c, 11, 73, 76
13, 32864, Note_on_c, 11, 73, 0
13, 32880, Note_on_c, 11, 74, 76
13, 32984, Note_on_c, 11, 74, 0
13, 33000, Note_on_c, 11, 76, 76
13, 33104, Note_on_c, 11, 76, 0
13, 33120, Note_on_c, 11, 74, 76
13, 33224, Note_on_c, 11, 74, 0
13, 33240, Note_on_c, 11, 73, 76
13, 33344, Note_on_c, 11, 73, 0
13, 33360, Note_on_c, 11, 71, 76
13, 33584, Note_on_c, 11, 71, 0
13, 33600, Note_on_c, 11, 68, 76
13, 33824, Note_on_c, 11, 68, 0
13, 33840, Note_on_c, 11, 69, 76
13, 34064, Note_on_c, 11, 69, 0
13, 34080, Note_on_c, 11, 64, 76
13, 34304, Note_on_c, 11, 64, 0
13, 34320, Note_on_c, 11, 66, 76
13, 34544, Note_on_c, 11, 66, 0
13, 34560, Note_on_c, 11, 67, 76
13, 34784, Note_on_c, 11, 67, 0
13, 34800, Note_on_c, 11, 69, 76
13, 34919, Note_on_c, 11, 69, 0
13, 34920, Note_on_c, 11, 64, 76
13, 35039, Note_on_c, 11, 64, 0
13, 35040, Note_on_c, 11, 66, 76
13, 35504, Note_on_c, 11, 66, 0
13, 35520, Note_on_c, 11, 71, 76
13, 35624, Note_on_c, 11, 71, 0
13, 35640, Note_on_c, 11, 69, 76
13, 35744, Note_on_c, 11, 69, 0
13, 35760, Note_on_c, 11, 68, 76
13, 35879, Note_on_c, 11, 68, 0
13, 35880, Note_on_c, 11, 69, 76
13, 35999, Note_on_c, 11, 69, 0
13, 36000, Note_on_c, 11, 71, 76
13, 36464, Note_on_c, 11, 71, 0
13, 36480, Note_on_c, 11, 68, 76
13, 36704, Note_on_c, 11, 68, 0
13, 36720, Note_on_c, 11, 69, 76
13, 36944, Note_on_c, 11, 69, 0
13, 36960, Note_on_c, 11, 69, 76
13, 37184, Note_on_c, 11, 69, 0
13, 37200, Note_on_c, 11, 69, 76
13, 37424, Note_on_c, 11, 69, 0
13, 37440, Note_on_c, 11, 69, 76
13, 37664, Note_on_c, 11, 69, 0
13, 37680, Note_on_c, 11, 69, 76
13, 38384, Note_on_c, 11, 69, 0
13, 38400, Note_on_c, 11, 69, 76
13, 38504, Note_on_c, 11, 69, 0
13, 38520, Note_on_c, 11, 71, 76
13, 38624, Note_on_c, 11, 71, 0
13, 38640, Note_on_c, 11, 73, 76
13, 38864, Note_on_c, 11, 73, 0
13, 38880, Note_on_c, 11, 76, 76
13, 39104, Note_on_c, 11, 76, 0
13, 39120, Note_on_c, 11, 73, 76
13, 39344, Note_on_c, 11, 73, 0
13, 39360, Note_on_c, 11, 68, 76
13, 39584, Note_on_c, 11, 68, 0
13, 39600, Note_on_c, 11, 69, 76
13, 39824, Note_on_c, 11, 69, 0
13, 39840, Note_on_c, 11, 73, 76
13, 40064, Note_on_c, 11, 73, 0
13, 40080, Note_on_c, 11, 69, 76
13, 40304, Note_on_c, 11, 69, 0
13, 40320, Note_on_c, 11, 64, 76
13, 40544, Note_on_c, 11, 64, 0
13, 40560, Note_on_c, 11, 66, 76
13, 40784, Note_on_c, 11, 66, 0
13, 40800, Note_on_c, 11, 69, 76
13, 41024, Note_on_c, 11, 69, 0
13, 41040, Note_on_c, 11, 71, 76
13, 41264, Note_on_c, 11, 71, 0
13, 41280, Note_on_c, 11, 69, 76
13, 41504, Note_on_c, 11, 69, 0
13, 41520, Note_on_c, 11, 69, 76
13, 41984, Note_on_c, 11, 69, 0
13, 42000, Note_on_c, 11, 69, 76
13, 42224, Note_on_c, 11, 69, 0
13, 42240, Note_on_c, 11, 69, 76
13, 42464, Note_on_c, 11, 69, 0
13, 42480, Note_on_c, 11, 71, 76
13, 42599, Note_on_c, 11, 71, 0
13, 42600, Note_on_c, 11, 75, 76
13, 42719, Note_on_c, 11, 75, 0
13, 42720, Note_on_c, 11, 76, 76
13, 43184, Note_on_c, 11, 76, 0
13, 43200, Note_on_c, 11, 71, 76
13, 43424, Note_on_c, 11, 71, 0
13, 43440, Note_on_c, 11, 69, 76
13, 43559, Note_on_c, 11, 69, 0
13, 43560, Note_on_c, 11, 66, 76
13, 43679, Note_on_c, 11, 66, 0
13, 43680, Note_on_c, 11, 67, 76
13, 44144, Note_on_c, 11, 67, 0
13, 44160, Note_on_c, 11, 63, 76
13, 44384, Note_on_c, 11, 63, 0
13, 44400, Note_on_c, 11, 64, 76
13, 44519, Note_on_c, 11, 64, 0
13, 44520, Note_on_c, 11, 75, 76
13, 44639, Note_on_c, 11, 75, 0
13, 44640, Note_on_c, 11, 76, 76
13, 45104, Note_on_c, 11, 76, 0
13, 45120, Note_on_c, 11, 75, 76
13, 45344, Note_on_c, 11, 75, 0
13, 45360, Note_on_c, 11, 76, 76
13, 45584, Note_on_c, 11, 76, 0
13, 45600, Note_on_c, 11, 70, 76
13, 45704, Note_on_c, 11, 70, 0
13, 45720, Note_on_c, 11, 71, 76
13, 45824, Note_on_c, 11, 71, 0
13, 45840, Note_on_c, 11, 70, 76
13, 46064, Note_on_c, 11, 70, 0
13, 46080, Note_on_c, 11, 73, 76
13, 46304, Note_on_c, 11, 73, 0
13, 46320, Note_on_c, 11, 66, 76
13, 46544, Note_on_c, 11, 66, 0
13, 46560, Note_on_c, 11, 73, 76
13, 46784, Note_on_c, 11, 73, 0
13, 46800, Note_on_c, 11, 76, 76
13, 47024, Note_on_c, 11, 76, 0
13, 47040, Note_on_c, 11, 66, 76
13, 47144, Note_on_c, 11, 66, 0
13, 47160, Note_on_c, 11, 68, 76
13, 47264, Note_on_c, 11, 68, 0
13, 47280, Note_on_c, 11, 70, 76
13, 47504, Note_on_c, 11, 70, 0
13, 47520, Note_on_c, 11, 66, 76
13, 47744, Note_on_c, 11, 66, 0
13, 47760, Note_on_c, 11, 73, 76
13, 47984, Note_on_c, 11, 73, 0
13, 48000, Note_on_c, 11, 71, 76
13, 48224, Note_on_c, 11, 71, 0
13, 48240, Note_on_c, 11, 71, 76
13, 48464, Note_on_c, 11, 71, 0
13, 48480, Note_on_c, 11, 74, 76
13, 48584, Note_on_c, 11, 74, 0
13, 48600, Note_on_c, 11, 73, 76
13, 48704, Note_on_c, 11, 73, 0
13, 48720, Note_on_c, 11, 71, 76
13, 48944, Note_on_c, 11, 71, 0
13, 48960, Note_on_c, 11, 70, 76
13, 49184, Note_on_c, 11, 70, 0
13, 49200, Note_on_c, 11, 66, 76
13, 49904, Note_on_c, 11, 66, 0
13, 49920, Note_on_c, 11, 62, 76
13, 50024, Note_on_c, 11, 62, 0
13, 50040, Note_on_c, 11, 64, 76
13, 50144, Note_on_c, 11, 64, 0
13, 50160, Note_on_c, 11, 66, 76
13, 50384, Note_on_c, 11, 66, 0
13, 50400, Note_on_c, 11, 62, 76
13, 50624, Note_on_c, 11, 62, 0
13, 50640, Note_on_c, 11, 69, 76
13, 50879, Note_on_c, 11, 69, 0
13, 50880, Note_on_c, 11, 71, 76
13, 51119, Note_on_c, 11, 71, 0
13, 51120, Note_on_c, 11, 72, 76
13, 51344, Note_on_c, 11, 72, 0
13, 51360, Note_on_c, 11, 62, 76
13, 51584, Note_on_c, 11, 62, 0
13, 51600, Note_on_c, 11, 69, 76
13, 51839, Note_on_c, 11, 69, 0
13, 51840, Note_on_c, 11, 67, 76
13, 52079, Note_on_c, 11, 67, 0
13, 52080, Note_on_c, 11, 66, 76
13, 52304, Note_on_c, 11, 66, 0
13, 52320, Note_on_c, 11, 72, 76
13, 52424, Note_on_c, 11, 72, 0
13, 52440, Note_on_c, 11, 71, 76
13, 52544, Note_on_c, 11, 71, 0
13, 52560, Note_on_c, 11, 69, 76
13, 52784, Note_on_c, 11, 69, 0
13, 52800, Note_on_c, 11, 66, 76
13, 53024, Note_on_c, 11, 66, 0
13, 53040, Note_on_c, 11, 67, 76
13, 53264, Note_on_c, 11, 67, 0
13, 53280, Note_on_c, 11, 62, 76
13, 53504, Note_on_c, 11, 62, 0
13, 53520, Note_on_c, 11, 67, 76
13, 53744, Note_on_c, 11, 67, 0
13, 53760, Note_on_c, 11, 67, 76
13, 53984, Note_on_c, 11, 67, 0
13, 54000, Note_on_c, 11, 66, 76
13, 54224, Note_on_c, 11, 66, 0
13, 54240, Note_on_c, 11, 62, 76
13, 54464, Note_on_c, 11, 62, 0
13, 54480, Note_on_c, 11, 74, 76
13, 54704, Note_on_c, 11, 74, 0
13, 54720, Note_on_c, 11, 69, 76
13, 54944, Note_on_c, 11, 69, 0
13, 54960, Note_on_c, 11, 69, 76
13, 55184, Note_on_c, 11, 69, 0
13, 55200, Note_on_c, 11, 66, 76
13, 55424, Note_on_c, 11, 66, 0
13, 55440, Note_on_c, 11, 69, 76
13, 55664, Note_on_c, 11, 69, 0
13, 55680, Note_on_c, 11, 73, 76
13, 55904, Note_on_c, 11, 73, 0
13, 55920, Note_on_c, 11, 74, 76
13, 56024, Note_on_c, 11, 74, 0
13, 56040, Note_on_c, 11, 76, 76
13, 56144, Note_on_c, 11, 76, 0
13, 56160, Note_on_c, 11, 74, 76
13, 56264, Note_on_c, 11, 74, 0
13, 56280, Note_on_c, 11, 73, 76
13, 56384, Note_on_c, 11, 73, 0
13, 56400, Note_on_c, 11, 71, 76
13, 56624, Note_on_c, 11, 71, 0
13, 56640, Note_on_c, 11, 68, 76
13, 56864, Note_on_c, 11, 68, 0
13, 56880, Note_on_c, 11, 69, 76
13, 57104, Note_on_c, 11, 69, 0
13, 57120, Note_on_c, 11, 64, 76
13, 57344, Note_on_c, 11, 64, 0
13, 57360, Note_on_c, 11, 66, 76
13, 57584, Note_on_c, 11, 66, 0
13, 57600, Note_on_c, 11, 67, 76
13, 57824, Note_on_c, 11, 67, 0
13, 57840, Note_on_c, 11, 69, 76
13, 57959, Note_on_c, 11, 69, 0
13, 57960, Note_on_c, 11, 64, 76
13, 58079, Note_on_c, 11, 64, 0
13, 58080, Note_on_c, 11, 66, 76
13, 58544, Note_on_c, 11, 66, 0
13, 58560, Note_on_c, 11, 71, 76
13, 58664, Note_on_c, 11, 71, 0
13, 58680, Note_on_c, 11, 69, 76
13, 58784, Note_on_c, 11, 69, 0
13, 58800, Note_on_c, 11, 68, 76
13, 58919, Note_on_c, 11, 68, 0
13, 58920, Note_on_c, 11, 69, 76
13, 59039, Note_on_c, 11, 69, 0
13, 59040, Note_on_c, 11, 71, 76
13, 59504, Note_on_c, 11, 71, 0
13, 59520, Note_on_c, 11, 68, 76
13, 59744, Note_on_c, 11, 68, 0
13, 59760, Note_on_c, 11, 69, 76
13, 59984, Note_on_c, 11, 69, 0
13, 60000, Note_on_c, 11, 69, 76
13, 60224, Note_on_c, 11, 69, 0
13, 60240, Note_on_c, 11, 69, 76
13, 60464, Note_on_c, 11, 69, 0
13, 60480, Note_on_c, 11, 69, 76
13, 60704, Note_on_c, 11, 69, 0
13, 60720, Note_on_c, 11, 69, 76
13, 61439, Note_on_c, 11, 69, 0
13, 61439, End_track
14, 0, Start_track
14, 0, Title_t, "Viola"
14, 0, MIDI_port, 0
14, 0, Program_c, 12, 48
14, 0, Control_c, 12, 10, 70
14, 0, Control_c, 12, 11, 127
14, 0, Control_c, 12, 7, 96
14, 480, Note_on_c, 12, 66, 76
14, 584, Note_on_c, 12, 66, 0
14, 600, Note_on_c, 12, 64, 76
14, 704, Note_on_c, 12, 64, 0
14, 720, Note_on_c, 12, 66, 76
14, 959, Note_on_c, 12, 66, 0
14, 1440, Note_on_c, 12, 69, 76
14, 1544, Note_on_c, 12, 69, 0
14, 1560, Note_on_c, 12, 67, 76
14, 1664, Note_on_c, 12, 67, 0
14, 1680, Note_on_c, 12, 69, 76
14, 1919, Note_on_c, 12, 69, 0
14, 2400, Note_on_c, 12, 62, 76
14, 2504, Note_on_c, 12, 62, 0
14, 2520, Note_on_c, 12, 64, 76
14, 2624, Note_on_c, 12, 64, 0
14, 2640, Note_on_c, 12, 62, 76
14, 2864, Note_on_c, 12, 62, 0
14, 2880, Note_on_c, 12, 62, 76
14, 3104, Note_on_c, 12, 62, 0
14, 3120, Note_on_c, 12, 61, 76
14, 3344, Note_on_c, 12, 61, 0
14, 3360, Note_on_c, 12, 64, 76
14, 3584, Note_on_c, 12, 64, 0
14, 3600, Note_on_c, 12, 62, 76
14, 3824, Note_on_c, 12, 62, 0
14, 3840, Note_on_c, 12, 57, 76
14, 4064, Note_on_c, 12, 57, 0
14, 4080, Note_on_c, 12, 57, 76
14, 4304, Note_on_c, 12, 57, 0
14, 4320, Note_on_c, 12, 66, 76
14, 4424, Note_on_c, 12, 66, 0
14, 4440, Note_on_c, 12, 64, 76
14, 4544, Note_on_c, 12, 64, 0
14, 4560, Note_on_c, 12, 66, 76
14, 4799, Note_on_c, 12, 66, 0
14, 5280, Note_on_c, 12, 71, 76
14, 5384, Note_on_c, 12, 71, 0
14, 5400, Note_on_c, 12, 69, 76
14, 5504, Note_on_c, 12, 69, 0
14, 5520, Note_on_c, 12, 71, 76
14, 5744, Note_on_c, 12, 71, 0
14, 5760, Note_on_c, 12, 59, 76
14, 5984, Note_on_c, 12, 59, 0
14, 6000, Note_on_c, 12, 57, 76
14, 6224, Note_on_c, 12, 57, 0
14, 6240, Note_on_c, 12, 61, 76
14, 6464, Note_on_c, 12, 61, 0
14, 6480, Note_on_c, 12, 62, 76
14, 6704, Note_on_c, 12, 62, 0
14, 6720, Note_on_c, 12, 59, 76
14, 6944, Note_on_c, 12, 59, 0
14, 6960, Note_on_c, 12, 61, 76
14, 7679, Note_on_c, 12, 61, 0
14, 8160, Note_on_c, 12, 66, 76
14, 8264, Note_on_c, 12, 66, 0
14, 8280, Note_on_c, 12, 64, 76
14, 8384, Note_on_c, 12, 64, 0
14, 8400, Note_on_c, 12, 66, 76
14, 8639, Note_on_c, 12, 66, 0
14, 9120, Note_on_c, 12, 69, 76
14, 9224, Note_on_c, 12, 69, 0
14, 9240, Note_on_c, 12, 67, 76
14, 9344, Note_on_c, 12, 67, 0
14, 9360, Note_on_c, 12, 69, 76
14, 9599, Note_on_c, 12, 69, 0
14, 10080, Note_on_c, 12, 62, 76
14, 10184, Note_on_c, 12, 62, 0
14, 10200, Note_on_c, 12, 64, 76
14, 10304, Note_on_c, 12, 64, 0
14, 10320, Note_on_c, 12, 62, 76
14, 10544, Note_on_c, 12, 62, 0
14, 10560, Note_on_c, 12, 62, 76
14, 10784, Note_on_c, 12, 62, 0
14, 10800, Note_on_c, 12, 61, 76
14, 11024, Note_on_c, 12, 61, 0
14, 11040, Note_on_c, 12, 64, 76
14, 11264, Note_on_c, 12, 64, 0
14, 11280, Note_on_c, 12, 62, 76
14, 11504, Note_on_c, 12, 62, 0
14, 11520, Note_on_c, 12, 57, 76
14, 11744, Note_on_c, 12, 57, 0
14, 11760, Note_on_c, 12, 57, 76
14, 11984, Note_on_c, 12, 57, 0
14, 12000, Note_on_c, 12, 66, 76
14, 12104, Note_on_c, 12, 66, 0
14, 12120, Note_on_c, 12, 64, 76
14, 12224, Note_on_c, 12, 64, 0
14, 12240, Note_on_c, 12, 66, 76
14, 12479, Note_on_c, 12, 66, 0
14, 12960, Note_on_c, 12, 71, 76
14, 13064, Note_on_c, 12, 71, 0
14, 13080, Note_on_c, 12, 69, 76
14, 13184, Note_on_c, 12, 69, 0
14, 13200, Note_on_c, 12, 71, 76
14, 13424, Note_on_c, 12, 71, 0
14, 13440, Note_on_c, 12, 59, 76
14, 13664, Note_on_c, 12, 59, 0
14, 13680, Note_on_c, 12, 57, 76
14, 13904, Note_on_c, 12, 57, 0
14, 13920, Note_on_c, 12, 61, 76
14, 14144, Note_on_c, 12, 61, 0
14, 14160, Note_on_c, 12, 62, 76
14, 14384, Note_on_c, 12, 62, 0
14, 14400, Note_on_c, 12, 59, 76
14, 14624, Note_on_c, 12, 59, 0
14, 14640, Note_on_c, 12, 61, 76
14, 15359, Note_on_c, 12, 61, 0
14, 15840, Note_on_c, 12, 73, 76
14, 15944, Note_on_c, 12, 73, 0
14, 15960, Note_on_c, 12, 71, 76
14, 16064, Note_on_c, 12, 71, 0
14, 16080, Note_on_c, 12, 73, 76
14, 16319, Note_on_c, 12, 73, 0
14, 16800, Note_on_c, 12, 64, 76
14, 16904, Note_on_c, 12, 64, 0
14, 16920, Note_on_c, 12, 62, 76
14, 17024, Note_on_c, 12, 62, 0
14, 17040, Note_on_c, 12, 64, 76
14, 17279, Note_on_c, 12, 64, 0
14, 17760, Note_on_c, 12, 62, 76
14, 17984, Note_on_c, 12, 62, 0
14, 18000, Note_on_c, 12, 62, 76
14, 18224, Note_on_c, 12, 62, 0
14, 18240, Note_on_c, 12, 61, 76
14, 18464, Note_on_c, 12, 61, 0
14, 18480, Note_on_c, 12, 62, 76
14, 18704, Note_on_c, 12, 62, 0
14, 18720, Note_on_c, 12, 62, 76
14, 18824, Note_on_c, 12, 62, 0
14, 18840, Note_on_c, 12, 64, 76
14, 18944, Note_on_c, 12, 64, 0
14, 18960, Note_on_c, 12, 66, 76
14, 19199, Note_on_c, 12, 66, 0
14, 19680, Note_on_c, 12, 64, 76
14, 19799, Note_on_c, 12, 64, 0
14, 19800, Note_on_c, 12, 63, 76
14, 19919, Note_on_c, 12, 63, 0
14, 19920, Note_on_c, 12, 64, 76
14, 20159, Note_on_c, 12, 64, 0
14, 20640, Note_on_c, 12, 64, 76
14, 20759, Note_on_c, 12, 64, 0
14, 20760, Note_on_c, 12, 63, 76
14, 20879, Note_on_c, 12, 63, 0
14, 20880, Note_on_c, 12, 64, 76
14, 21119, Note_on_c, 12, 64, 0
14, 21600, Note_on_c, 12, 64, 76
14, 21719, Note_on_c, 12, 64, 0
14, 21720, Note_on_c, 12, 63, 76
14, 21839, Note_on_c, 12, 63, 0
14, 21840, Note_on_c, 12, 64, 76
14, 22064, Note_on_c, 12, 64, 0
14, 22080, Note_on_c, 12, 66, 76
14, 22304, Note_on_c, 12, 66, 0
14, 22320, Note_on_c, 12, 59, 76
14, 22544, Note_on_c, 12, 59, 0
14, 22560, Note_on_c, 12, 64, 76
14, 22664, Note_on_c, 12, 64, 0
14, 22680, Note_on_c, 12, 62, 76
14, 22784, Note_on_c, 12, 62, 0
14, 22800, Note_on_c, 12, 64, 76
14, 23039, Note_on_c, 12, 64, 0
14, 23520, Note_on_c, 12, 61, 76
14, 23624, Note_on_c, 12, 61, 0
14, 23640, Note_on_c, 12, 59, 76
14, 23744, Note_on_c, 12, 59, 0
14, 23760, Note_on_c, 12, 61, 76
14, 23999, Note_on_c, 12, 61, 0
14, 24480, Note_on_c, 12, 70, 76
14, 24584, Note_on_c, 12, 70, 0
14, 24600, Note_on_c, 12, 68, 76
14, 24704, Note_on_c, 12, 68, 0
14, 24720, Note_on_c, 12, 70, 76
14, 24944, Note_on_c, 12, 70, 0
14, 24960, Note_on_c, 12, 71, 76
14, 25184, Note_on_c, 12, 71, 0
14, 25200, Note_on_c, 12, 66, 76
14, 25424, Note_on_c, 12, 66, 0
14, 25440, Note_on_c, 12, 71, 76
14, 25664, Note_on_c, 12, 71, 0
14, 25680, Note_on_c, 12, 66, 76
14, 25904, Note_on_c, 12, 66, 0
14, 25920, Note_on_c, 12, 64, 76
14, 26144, Note_on_c, 12, 64, 0
14, 26160, Note_on_c, 12, 62, 76
14, 26384, Note_on_c, 12, 62, 0
14, 26400, Note_on_c, 12, 62, 76
14, 26504, Note_on_c, 12, 62, 0
14, 26520, Note_on_c, 12, 61, 76
14, 26624, Note_on_c, 12, 61, 0
14, 26640, Note_on_c, 12, 62, 76
14, 26879, Note_on_c, 12, 62, 0
14, 27360, Note_on_c, 12, 57, 76
14, 27464, Note_on_c, 12, 57, 0
14, 27480, Note_on_c, 12, 59, 76
14, 27584, Note_on_c, 12, 59, 0
14, 27600, Note_on_c, 12, 60, 76
14, 27839, Note_on_c, 12, 60, 0
14, 28320, Note_on_c, 12, 66, 76
14, 28424, Note_on_c, 12, 66, 0
14, 28440, Note_on_c, 12, 67, 76
14, 28544, Note_on_c, 12, 67, 0
14, 28560, Note_on_c, 12, 69, 76
14, 28799, Note_on_c, 12, 69, 0
14, 29280, Note_on_c, 12, 69, 76
14, 29504, Note_on_c, 12, 69, 0
14, 29520, Note_on_c, 12, 62, 76
14, 29744, Note_on_c, 12, 62, 0
14, 29760, Note_on_c, 12, 62, 76
14, 29984, Note_on_c, 12, 62, 0
14, 30000, Note_on_c, 12, 62, 76
14, 30224, Note_on_c, 12, 62, 0
14, 30240, Note_on_c, 12, 59, 76
14, 30464, Note_on_c, 12, 59, 0
14, 30480, Note_on_c, 12, 64, 76
14, 30704, Note_on_c, 12, 64, 0
14, 30720, Note_on_c, 12, 64, 76
14, 30944, Note_on_c, 12, 64, 0
14, 30960, Note_on_c, 12, 62, 76
14, 31184, Note_on_c, 12, 62, 0
14, 31200, Note_on_c, 12, 66, 76
14, 31424, Note_on_c, 12, 66, 0
14, 31440, Note_on_c, 12, 66, 76
14, 31664, Note_on_c, 12, 66, 0
14, 31680, Note_on_c, 12, 69, 76
14, 31904, Note_on_c, 12, 69, 0
14, 31920, Note_on_c, 12, 62, 76
14, 32144, Note_on_c, 12, 62, 0
14, 32160, Note_on_c, 12, 57, 76
14, 32384, Note_on_c, 12, 57, 0
14, 32400, Note_on_c, 12, 62, 76
14, 32624, Note_on_c, 12, 62, 0
14, 32640, Note_on_c, 12, 67, 76
14, 32864, Note_on_c, 12, 67, 0
14, 32880, Note_on_c, 12, 66, 76
14, 33104, Note_on_c, 12, 66, 0
14, 33120, Note_on_c, 12, 62, 76
14, 33344, Note_on_c, 12, 62, 0
14, 33360, Note_on_c, 12, 62, 76
14, 33584, Note_on_c, 12, 62, 0
14, 33600, Note_on_c, 12, 64, 76
14, 33824, Note_on_c, 12, 64, 0
14, 33840, Note_on_c, 12, 64, 76
14, 34064, Note_on_c, 12, 64, 0
14, 34080, Note_on_c, 12, 57, 76
14, 34304, Note_on_c, 12, 57, 0
14, 34320, Note_on_c, 12, 62, 76
14, 34544, Note_on_c, 12, 62, 0
14, 34560, Note_on_c, 12, 64, 76
14, 34784, Note_on_c, 12, 64, 0
14, 34800, Note_on_c, 12, 66, 76
14, 35024, Note_on_c, 12, 66, 0
14, 35040, Note_on_c, 12, 62, 76
14, 35144, Note_on_c, 12, 62, 0
14, 35160, Note_on_c, 12, 61, 76
14, 35264, Note_on_c, 12, 61, 0
14, 35280, Note_on_c, 12, 62, 76
14, 35519, Note_on_c, 12, 62, 0
14, 36000, Note_on_c, 12, 64, 76
14, 36104, Note_on_c, 12, 64, 0
14, 36120, Note_on_c, 12, 62, 76
14, 36224, Note_on_c, 12, 62, 0
14, 36240, Note_on_c, 12, 64, 76
14, 36464, Note_on_c, 12, 64, 0
14, 36480, Note_on_c, 12, 64, 76
14, 36704, Note_on_c, 12, 64, 0
14, 36720, Note_on_c, 12, 64, 76
14, 36944, Note_on_c, 12, 64, 0
14, 36960, Note_on_c, 12, 62, 76
14, 37064, Note_on_c, 12, 62, 0
14, 37080, Note_on_c, 12, 64, 76
14, 37184, Note_on_c, 12, 64, 0
14, 37200, Note_on_c, 12, 66, 76
14, 37424, Note_on_c, 12, 66, 0
14, 37440, Note_on_c, 12, 64, 76
14, 37664, Note_on_c, 12, 64, 0
14, 37680, Note_on_c, 12, 66, 76
14, 38399, Note_on_c, 12, 66, 0
14, 38880, Note_on_c, 12, 73, 76
14, 38984, Note_on_c, 12, 73, 0
14, 39000, Note_on_c, 12, 71, 76
14, 39104, Note_on_c, 12, 71, 0
14, 39120, Note_on_c, 12, 73, 76
14, 39359, Note_on_c, 12, 73, 0
14, 39840, Note_on_c, 12, 64, 76
14, 39944, Note_on_c, 12, 64, 0
14, 39960, Note_on_c, 12, 62, 76
14, 40064, Note_on_c, 12, 62, 0
14, 40080, Note_on_c, 12, 64, 76
14, 40319, Note_on_c, 12, 64, 0
14, 40800, Note_on_c, 12, 62, 76
14, 41024, Note_on_c, 12, 62, 0
14, 41040, Note_on_c, 12, 62, 76
14, 41264, Note_on_c, 12, 62, 0
14, 41280, Note_on_c, 12, 61, 76
14, 41504, Note_on_c, 12, 61, 0
14, 41520, Note_on_c, 12, 62, 76
14, 41744, Note_on_c, 12, 62, 0
14, 41760, Note_on_c, 12, 62, 76
14, 41864, Note_on_c, 12, 62, 0
14, 41880, Note_on_c, 12, 64, 76
14, 41984, Note_on_c, 12, 64, 0
14, 42000, Note_on_c, 12, 66, 76
14, 42239, Note_on_c, 12, 66, 0
14, 42720, Note_on_c, 12, 64, 76
14, 42839, Note_on_c, 12, 64, 0
14, 42840, Note_on_c, 12, 63, 76
14, 42959, Note_on_c, 12, 63, 0
14, 42960, Note_on_c, 12, 64, 76
14, 43199, Note_on_c, 12, 64, 0
14, 43680, Note_on_c, 12, 64, 76
14, 43799, Note_on_c, 12, 64, 0
14, 43800, Note_on_c, 12, 63, 76
14, 43919, Note_on_c, 12, 63, 0
14, 43920, Note_on_c, 12, 64, 76
14, 44159, Note_on_c, 12, 64, 0
14, 44640, Note_on_c, 12, 64, 76
14, 44759, Note_on_c, 12, 64, 0
14, 44760, Note_on_c, 12, 63, 76
14, 44879, Note_on_c, 12, 63, 0
14, 44880, Note_on_c, 12, 64, 76
14, 45104, Note_on_c, 12, 64, 0
14, 45120, Note_on_c, 12, 66, 76
14, 45344, Note_on_c, 12, 66, 0
14, 45360, Note_on_c, 12, 59, 76
14, 45584, Note_on_c, 12, 59, 0
14, 45600, Note_on_c, 12, 64, 76
14, 45704, Note_on_c, 12, 64, 0
14, 45720, Note_on_c, 12, 62, 76
14, 45824, Note_on_c, 12, 62, 0
14, 45840, Note_on_c, 12, 64, 76
14, 46079, Note_on_c, 12, 64, 0
14, 46560, Note_on_c, 12, 61, 76
14, 46664, Note_on_c, 12, 61, 0
14, 46680, Note_on_c, 12, 59, 76
14, 46784, Note_on_c, 12, 59, 0
14, 46800, Note_on_c, 12, 61, 76
14, 47039, Note_on_c, 12, 61, 0
14, 47520, Note_on_c, 12, 70, 76
14, 47624, Note_on_c, 12, 70, 0
14, 47640, Note_on_c, 12, 68, 76
14, 47744, Note_on_c, 12, 68, 0
14, 47760, Note_on_c, 12, 70, 76
14, 47984, Note_on_c, 12, 70, 0
14, 48000, Note_on_c, 12, 71, 76
14, 48224, Note_on_c, 12, 71, 0
14, 48240, Note_on_c, 12, 66, 76
14, 48464, Note_on_c, 12, 66, 0
14, 48480, Note_on_c, 12, 71, 76
14, 48704, Note_on_c, 12, 71, 0
14, 48720, Note_on_c, 12, 66, 76
14, 48944, Note_on_c, 12, 66, 0
14, 48960, Note_on_c, 12, 64, 76
14, 49184, Note_on_c, 12, 64, 0
14, 49200, Note_on_c, 12, 62, 76
14, 49424, Note_on_c, 12, 62, 0
14, 49440, Note_on_c, 12, 62, 76
14, 49544, Note_on_c, 12, 62, 0
14, 49560, Note_on_c, 12, 61, 76
14, 49664, Note_on_c, 12, 61, 0
14, 49680, Note_on_c, 12, 62, 76
14, 49919, Note_on_c, 12, 62, 0
14, 50400, Note_on_c, 12, 57, 76
14, 50504, Note_on_c, 12, 57, 0
14, 50520, Note_on_c, 12, 59, 76
14, 50624, Note_on_c, 12, 59, 0
14, 50640, Note_on_c, 12, 60, 76
14, 50879, Note_on_c, 12, 60, 0
14, 51360, Note_on_c, 12, 66, 76
14, 51464, Note_on_c, 12, 66, 0
14, 51480, Note_on_c, 12, 67, 76
14, 51584, Note_on_c, 12, 67, 0
14, 51600, Note_on_c, 12, 69, 76
14, 51839, Note_on_c, 12, 69, 0
14, 52320, Note_on_c, 12, 69, 76
14, 52544, Note_on_c, 12, 69, 0
14, 52560, Note_on_c, 12, 62, 76
14, 52784, Note_on_c, 12, 62, 0
14, 52800, Note_on_c, 12, 62, 76
14, 53024, Note_on_c, 12, 62, 0
14, 53040, Note_on_c, 12, 62, 76
14, 53264, Note_on_c, 12, 62, 0
14, 53280, Note_on_c, 12, 59, 76
14, 53504, Note_on_c, 12, 59, 0
14, 53520, Note_on_c, 12, 64, 76
14, 53744, Note_on_c, 12, 64, 0
14, 53760, Note_on_c, 12, 64, 76
14, 53984, Note_on_c, 12, 64, 0
14, 54000, Note_on_c, 12, 62, 76
14, 54224, Note_on_c, 12, 62, 0
14, 54240, Note_on_c, 12, 66, 76
14, 54464, Note_on_c, 12, 66, 0
14, 54480, Note_on_c, 12, 66, 76
14, 54704, Note_on_c, 12, 66, 0
14, 54720, Note_on_c, 12, 69, 76
14, 54944, Note_on_c, 12, 69, 0
14, 54960, Note_on_c, 12, 62, 76
14, 55184, Note_on_c, 12, 62, 0
14, 55200, Note_on_c, 12, 57, 76
14, 55424, Note_on_c, 12, 57, 0
14, 55440, Note_on_c, 12, 62, 76
14, 55664, Note_on_c, 12, 62, 0
14, 55680, Note_on_c, 12, 67, 76
14, 55904, Note_on_c, 12, 67, 0
14, 55920, Note_on_c, 12, 66, 76
14, 56144, Note_on_c, 12, 66, 0
14, 56160, Note_on_c, 12, 62, 76
14, 56384, Note_on_c, 12, 62, 0
14, 56400, Note_on_c, 12, 62, 76
14, 56624, Note_on_c, 12, 62, 0
14, 56640, Note_on_c, 12, 64, 76
14, 56864, Note_on_c, 12, 64, 0
14, 56880, Note_on_c, 12, 64, 76
14, 57104, Note_on_c, 12, 64, 0
14, 57120, Note_on_c, 12, 57, 76
14, 57344, Note_on_c, 12, 57, 0
14, 57360, Note_on_c, 12, 62, 76
14, 57584, Note_on_c, 12, 62, 0
14, 57600, Note_on_c, 12, 64, 76
14, 57824, Note_on_c, 12, 64, 0
14, 57840, Note_on_c, 12, 66, 76
14, 58064, Note_on_c, 12, 66, 0
14, 58080, Note_on_c, 12, 62, 76
14, 58184, Note_on_c, 12, 62, 0
14, 58200, Note_on_c, 12, 61, 76
14, 58304, Note_on_c, 12, 61, 0
14, 58320, Note_on_c, 12, 62, 76
14, 58559, Note_on_c, 12, 62, 0
14, 59040, Note_on_c, 12, 64, 76
14, 59144, Note_on_c, 12, 64, 0
14, 59160, Note_on_c, 12, 62, 76
14, 59264, Note_on_c, 12, 62, 0
14, 59280, Note_on_c, 12, 64, 76
14, 59504, Note_on_c, 12, 64, 0
14, 59520, Note_on_c, 12, 64, 76
14, 59744, Note_on_c, 12, 64, 0
14, 59760, Note_on_c, 12, 64, 76
14, 59984, Note_on_c, 12, 64, 0
14, 60000, Note_on_c, 12, 62, 76
14, 60104, Note_on_c, 12, 62, 0
14, 60120, Note_on_c, 12, 64, 76
14, 60224, Note_on_c, 12, 64, 0
14, 60240, Note_on_c, 12, 66, 76
14, 60464, Note_on_c, 12, 66, 0
14, 60480, Note_on_c, 12, 64, 76
14, 60704, Note_on_c, 12, 64, 0
14, 60720, Note_on_c, 12, 66, 76
14, 61424, Note_on_c, 12, 66, 0
14, 61424, End_track
15, 0, Start_track
15, 0, Title_t, "Cello"
15, 0, MIDI_port, 0
15, 0, Program_c, 13, 48
15, 0, Control_c, 13, 10, 90
15, 0, Control_c, 13, 11, 127
15, 0, Control_c, 13, 7, 96
15, 480, Note_on_c, 13, 62, 76
15, 584, Note_on_c, 13, 62, 0
15, 600, Note_on_c, 13, 61, 76
15, 704, Note_on_c, 13, 61, 0
15, 720, Note_on_c, 13, 62, 76
15, 959, Note_on_c, 13, 62, 0
15, 1440, Note_on_c, 13, 61, 76
15, 1544, Note_on_c, 13, 61, 0
15, 1560, Note_on_c, 13, 59, 76
15, 1664, Note_on_c, 13, 59, 0
15, 1680, Note_on_c, 13, 61, 76
15, 1919, Note_on_c, 13, 61, 0
15, 2400, Note_on_c, 13, 59, 76
15, 2504, Note_on_c, 13, 59, 0
15, 2520, Note_on_c, 13, 61, 76
15, 2624, Note_on_c, 13, 61, 0
15, 2640, Note_on_c, 13, 62, 76
15, 2864, Note_on_c, 13, 62, 0
15, 2880, Note_on_c, 13, 59, 76
15, 3104, Note_on_c, 13, 59, 0
15, 3120, Note_on_c, 13, 61, 76
15, 3344, Note_on_c, 13, 61, 0
15, 3360, Note_on_c, 13, 57, 76
15, 3584, Note_on_c, 13, 57, 0
15, 3600, Note_on_c, 13, 54, 76
15, 3824, Note_on_c, 13, 54, 0
15, 3840, Note_on_c, 13, 57, 76
15, 4064, Note_on_c, 13, 57, 0
15, 4080, Note_on_c, 13, 50, 76
15, 4304, Note_on_c, 13, 50, 0
15, 4320, Note_on_c, 13, 62, 76
15, 4424, Note_on_c, 13, 62, 0
15, 4440, Note_on_c, 13, 61, 76
15, 4544, Note_on_c, 13, 61, 0
15, 4560, Note_on_c, 13, 62, 76
15, 4799, Note_on_c, 13, 62, 0
15, 5280, Note_on_c, 13, 56, 76
15, 5384, Note_on_c, 13, 56, 0
15, 5400, Note_on_c, 13, 54, 76
15, 5504, Note_on_c, 13, 54, 0
15, 5520, Note_on_c, 13, 56, 76
15, 5744, Note_on_c, 13, 56, 0
15, 5760, Note_on_c, 13, 52, 76
15, 5984, Note_on_c, 13, 52, 0
15, 6000, Note_on_c, 13, 57, 76
15, 6224, Note_on_c, 13, 57, 0
15, 6240, Note_on_c, 13, 54, 76
15, 6464, Note_on_c, 13, 54, 0
15, 6480, Note_on_c, 13, 50, 76
15, 6704, Note_on_c, 13, 50, 0
15, 6720, Note_on_c, 13, 52, 76
15, 6944, Note_on_c, 13, 52, 0
15, 6960, Note_on_c, 13, 45, 76
15, 7679, Note_on_c, 13, 45, 0
15, 8160, Note_on_c, 13, 62, 76
15, 8264, Note_on_c, 13, 62, 0
15, 8280, Note_on_c, 13, 61, 76
15, 8384, Note_on_c, 13, 61, 0
15, 8400, Note_on_c, 13, 62, 76
15, 8639, Note_on_c, 13, 62, 0
15, 9120, Note_on_c, 13, 61, 76
15, 9224, Note_on_c, 13, 61, 0
15, 9240, Note_on_c, 13, 59, 76
15, 9344, Note_on_c, 13, 59, 0
15, 9360, Note_on_c, 13, 61, 76
15, 9599, Note_on_c, 13, 61, 0
15, 10080, Note_on_c, 13, 59, 76
15, 10184, Note_on_c, 13, 59, 0
15, 10200, Note_on_c, 13, 61, 76
15, 10304, Note_on_c, 13, 61, 0
15, 10320, Note_on_c, 13, 62, 76
15, 10544, Note_on_c, 13, 62, 0
15, 10560, Note_on_c, 13, 59, 76
15, 10784, Note_on_c, 13, 59, 0
15, 10800, Note_on_c, 13, 61, 76
15, 11024, Note_on_c, 13, 61, 0
15, 11040, Note_on_c, 13, 57, 76
15, 11264, Note_on_c, 13, 57, 0
15, 11280, Note_on_c, 13, 54, 76
15, 11504, Note_on_c, 13, 54, 0
15, 11520, Note_on_c, 13, 57, 76
15, 11744, Note_on_c, 13, 57, 0
15, 11760, Note_on_c, 13, 50, 76
15, 11984, Note_on_c, 13, 50, 0
15, 12000, Note_on_c, 13, 62, 76
15, 12104, Note_on_c, 13, 62, 0
15, 12120, Note_on_c, 13, 61, 76
15, 12224, Note_on_c, 13, 61, 0
15, 12240, Note_on_c, 13, 62, 76
15, 12479, Note_on_c, 13, 62, 0
15, 12960, Note_on_c, 13, 56, 76
15, 13064, Note_on_c, 13, 56, 0
15, 13080, Note_on_c, 13, 54, 76
15, 13184, Note_on_c, 13, 54, 0
15, 13200, Note_on_c, 13, 56, 76
15, 13424, Note_on_c, 13, 56, 0
15, 13440, Note_on_c, 13, 52, 76
15, 13664, Note_on_c, 13, 52, 0
15, 13680, Note_on_c, 13, 57, 76
15, 13904, Note_on_c, 13, 57, 0
15, 13920, Note_on_c, 13, 54, 76
15, 14144, Note_on_c, 13, 54, 0
15, 14160, Note_on_c, 13, 50, 76
15, 14384, Note_on_c, 13, 50, 0
15, 14400, Note_on_c, 13, 52, 76
15, 14624, Note_on_c, 13, 52, 0
15, 14640, Note_on_c, 13, 45, 76
15, 15359, Note_on_c, 13, 45, 0
15, 15840, Note_on_c, 13, 57, 76
15, 15944, Note_on_c, 13, 57, 0
15, 15960, Note_on_c, 13, 56, 76
15, 16064, Note_on_c, 13, 56, 0
15, 16080, Note_on_c, 13, 57, 76
15, 16319, Note_on_c, 13, 57, 0
15, 16800, Note_on_c, 13, 55, 76
15, 16904, Note_on_c, 13, 55, 0
15, 16920, Note_on_c, 13, 54, 76
15, 17024, Note_on_c, 13, 54, 0
15, 17040, Note_on_c, 13, 55, 76
15, 17279, Note_on_c, 13, 55, 0
15, 17760, Note_on_c, 13, 54, 76
15, 17984, Note_on_c, 13, 54, 0
15, 18000, Note_on_c, 13, 52, 76
15, 18224, Note_on_c, 13, 52, 0
15, 18240, Note_on_c, 13, 57, 76
15, 18464, Note_on_c, 13, 57, 0
15, 18480, Note_on_c, 13, 50, 76
15, 18704, Note_on_c, 13, 50, 0
15, 18720, Note_on_c, 13, 62, 76
15, 18824, Note_on_c, 13, 62, 0
15, 18840, Note_on_c, 13, 61, 76
15, 18944, Note_on_c, 13, 61, 0
15, 18960, Note_on_c, 13, 62, 76
15, 19184, Note_on_c, 13, 62, 0
15, 19200, Note_on_c, 13, 50, 76
15, 19424, Note_on_c, 13, 50, 0
15, 19440, Note_on_c, 13, 55, 76
15, 19664, Note_on_c, 13, 55, 0
15, 19680, Note_on_c, 13, 59, 76
15, 19904, Note_on_c, 13, 59, 0
15, 19920, Note_on_c, 13, 52, 76
15, 20159, Note_on_c, 13, 52, 0
15, 20160, Note_on_c, 13, 50, 76
15, 20399, Note_on_c, 13, 50, 0
15, 20400, Note_on_c, 13, 48, 76
15, 20624, Note_on_c, 13, 48, 0
15, 20640, Note_on_c, 13, 60, 76
15, 20864, Note_on_c, 13, 60, 0
15, 20880, Note_on_c, 13, 55, 76
15, 21119, Note_on_c, 13, 55, 0
15, 21120, Note_on_c, 13, 54, 76
15, 21359, Note_on_c, 13, 54, 0
15, 21360, Note_on_c, 13, 52, 76
15, 21584, Note_on_c, 13, 52, 0
15, 21600, Note_on_c, 13, 64, 76
15, 21824, Note_on_c, 13, 64, 0
15, 21840, Note_on_c, 13, 59, 76
15, 22079, Note_on_c, 13, 59, 0
15, 22080, Note_on_c, 13, 57, 76
15, 22319, Note_on_c, 13, 57, 0
15, 22320, Note_on_c, 13, 55, 76
15, 22544, Note_on_c, 13, 55, 0
15, 22560, Note_on_c, 13, 49, 76
15, 22664, Note_on_c, 13, 49, 0
15, 22680, Note_on_c, 13, 47, 76
15, 22784, Note_on_c, 13, 47, 0
15, 22800, Note_on_c, 13, 49, 76
15, 23039, Note_on_c, 13, 49, 0
15, 23520, Note_on_c, 13, 58, 76
15, 23624, Note_on_c, 13, 58, 0
15, 23640, Note_on_c, 13, 56, 76
15, 23744, Note_on_c, 13, 56, 0
15, 23760, Note_on_c, 13, 58, 76
15, 23999, Note_on_c, 13, 58, 0
15, 24480, Note_on_c, 13, 54, 76
15, 24584, Note_on_c, 13, 54, 0
15, 24600, Note_on_c, 13, 52, 76
15, 24704, Note_on_c, 13, 52, 0
15, 24720, Note_on_c, 13, 54, 76
15, 24944, Note_on_c, 13, 54, 0
15, 24960, Note_on_c, 13, 55, 76
15, 25184, Note_on_c, 13, 55, 0
15, 25200, Note_on_c, 13, 50, 76
15, 25304, Note_on_c, 13, 50, 0
15, 25320, Note_on_c, 13, 49, 76
15, 25424, Note_on_c, 13, 49, 0
15, 25440, Note_on_c, 13, 50, 76
15, 25544, Note_on_c, 13, 50, 0
15, 25560, Note_on_c, 13, 52, 76
15, 25664, Note_on_c, 13, 52, 0
15, 25680, Note_on_c, 13, 54, 76
15, 25904, Note_on_c, 13, 54, 0
15, 25920, Note_on_c, 13, 42, 76
15, 26144, Note_on_c, 13, 42, 0
15, 26160, Note_on_c, 13, 47, 76
15, 26384, Note_on_c, 13, 47, 0
15, 26400, Note_on_c, 13, 59, 76
15, 26504, Note_on_c, 13, 59, 0
15, 26520, Note_on_c, 13, 58, 76
15, 26624, Note_on_c, 13, 58, 0
15, 26640, Note_on_c, 13, 59, 76
15, 26879, Note_on_c, 13, 59, 0
15, 27360, Note_on_c, 13, 54, 76
15, 27464, Note_on_c, 13, 54, 0
15, 27480, Note_on_c, 13, 55, 76
15, 27584, Note_on_c, 13, 55, 0
15, 27600, Note_on_c, 13, 57, 76
15, 27839, Note_on_c, 13, 57, 0
15, 28320, Note_on_c, 13, 50, 76
15, 28424, Note_on_c, 13, 50, 0
15, 28440, Note_on_c, 13, 52, 76
15, 28544, Note_on_c, 13, 52, 0
15, 28560, Note_on_c, 13, 54, 76
15, 28799, Note_on_c, 13, 54, 0
15, 29280, Note_on_c, 13, 57, 76
15, 29384, Note_on_c, 13, 57, 0
15, 29400, Note_on_c, 13, 55, 76
15, 29504, Note_on_c, 13, 55, 0
15, 29520, Note_on_c, 13, 54, 76
15, 29744, Note_on_c, 13, 54, 0
15, 29760, Note_on_c, 13, 50, 76
15, 29984, Note_on_c, 13, 50, 0
15, 30000, Note_on_c, 13, 43, 76
15, 30224, Note_on_c, 13, 43, 0
15, 30240, Note_on_c, 13, 55, 76
15, 30344, Note_on_c, 13, 55, 0
15, 30360, Note_on_c, 13, 54, 76
15, 30464, Note_on_c, 13, 54, 0
15, 30480, Note_on_c, 13, 55, 76
15, 30704, Note_on_c, 13, 55, 0
15, 30720, Note_on_c, 13, 45, 76
15, 30944, Note_on_c, 13, 45, 0
15, 30960, Note_on_c, 13, 47, 76
15, 31184, Note_on_c, 13, 47, 0
15, 31200, Note_on_c, 13, 59, 76
15, 31304, Note_on_c, 13, 59, 0
15, 31320, Note_on_c, 13, 57, 76
15, 31424, Note_on_c, 13, 57, 0
15, 31440, Note_on_c, 13, 59, 76
15, 31664, Note_on_c, 13, 59, 0
15, 31680, Note_on_c, 13, 49, 76
15, 31904, Note_on_c, 13, 49, 0
15, 31920, Note_on_c, 13, 50, 76
15, 32144, Note_on_c, 13, 50, 0
15, 32160, Note_on_c, 13, 62, 76
15, 32264, Note_on_c, 13, 62, 0
15, 32280, Note_on_c, 13, 61, 76
15, 32384, Note_on_c, 13, 61, 0
15, 32400, Note_on_c, 13, 62, 76
15, 32624, Note_on_c, 13, 62, 0
15, 32640, Note_on_c, 13, 52, 76
15, 32864, Note_on_c, 13, 52, 0
15, 32880, Note_on_c, 13, 54, 76
15, 33104, Note_on_c, 13, 54, 0
15, 33120, Note_on_c, 13, 59, 76
15, 33344, Note_on_c, 13, 59, 0
15, 33360, Note_on_c, 13, 57, 76
15, 33479, Note_on_c, 13, 57, 0
15, 33480, Note_on_c, 13, 56, 76
15, 33584, Note_on_c, 13, 56, 0
15, 33600, Note_on_c, 13, 54, 76
15, 33719, Note_on_c, 13, 54, 0
15, 33720, Note_on_c, 13, 52, 76
15, 33824, Note_on_c, 13, 52, 0
15, 33840, Note_on_c, 13, 57, 76
15, 34064, Note_on_c, 13, 57, 0
15, 34080, Note_on_c, 13, 55, 76
15, 34304, Note_on_c, 13, 55, 0
15, 34320, Note_on_c, 13, 54, 76
15, 34544, Note_on_c, 13, 54, 0
15, 34560, Note_on_c, 13, 52, 76
15, 34784, Note_on_c, 13, 52, 0
15, 34800, Note_on_c, 13, 50, 76
15, 35024, Note_on_c, 13, 50, 0
15, 35040, Note_on_c, 13, 59, 76
15, 35144, Note_on_c, 13, 59, 0
15, 35160, Note_on_c, 13, 57, 76
15, 35264, Note_on_c, 13, 57, 0
15, 35280, Note_on_c, 13, 59, 76
15, 35519, Note_on_c, 13, 59, 0
15, 36000, Note_on_c, 13, 56, 76
15, 36104, Note_on_c, 13, 56, 0
15, 36120, Note_on_c, 13, 54, 76
15, 36224, Note_on_c, 13, 54, 0
15, 36240, Note_on_c, 13, 56, 76
15, 36464, Note_on_c, 13, 56, 0
15, 36480, Note_on_c, 13, 52, 76
15, 36704, Note_on_c, 13, 52, 0
15, 36720, Note_on_c, 13, 57, 76
15, 36824, Note_on_c, 13, 57, 0
15, 36840, Note_on_c, 13, 55, 76
15, 36944, Note_on_c, 13, 55, 0
15, 36960, Note_on_c, 13, 54, 76
15, 37064, Note_on_c, 13, 54, 0
15, 37080, Note_on_c, 13, 55, 76
15, 37184, Note_on_c, 13, 55, 0
15, 37200, Note_on_c, 13, 57, 76
15, 37424, Note_on_c, 13, 57, 0
15, 37440, Note_on_c, 13, 45, 76
15, 37664, Note_on_c, 13, 45, 0
15, 37680, Note_on_c, 13, 50, 76
15, 38399, Note_on_c, 13, 50, 0
15, 38880, Note_on_c, 13, 57, 76
15, 38984, Note_on_c, 13, 57, 0
15, 39000, Note_on_c, 13, 56, 76
15, 39104, Note_on_c, 13, 56, 0
15, 39120, Note_on_c, 13, 57, 76
15, 39359, Note_on_c, 13, 57, 0
15, 39840, Note_on_c, 13, 55, 76
15, 39944, Note_on_c, 13, 55, 0
15, 39960, Note_on_c, 13, 54, 76
15, 40064, Note_on_c, 13, 54, 0
15, 40080, Note_on_c, 13, 55, 76
15, 40319, Note_on_c, 13, 55, 0
15, 40800, Note_on_c, 13, 54, 76
15, 41024, Note_on_c, 13, 54, 0
15, 41040, Note_on_c, 13, 52, 76
15, 41264, Note_on_c, 13, 52, 0
15, 41280, Note_on_c, 13, 57, 76
15, 41504, Note_on_c, 13, 57, 0
15, 41520, Note_on_c, 13, 50, 76
15, 41744, Note_on_c, 13, 50, 0
15, 41760, Note_on_c, 13, 62, 76
15, 41864, Note_on_c, 13, 62, 0
15, 41880, Note_on_c, 13, 61, 76
15, 41984, Note_on_c, 13, 61, 0
15, 42000, Note_on_c, 13, 62, 76
15, 42224, Note_on_c, 13, 62, 0
15, 42240, Note_on_c, 13, 50, 76
15, 42464, Note_on_c, 13, 50, 0
15, 42480, Note_on_c, 13, 55, 76
15, 42704, Note_on_c, 13, 55, 0
15, 42720, Note_on_c, 13, 59, 76
15, 42944, Note_on_c, 13, 59, 0
15, 42960, Note_on_c, 13, 52, 76
15, 43199, Note_on_c, 13, 52, 0
15, 43200, Note_on_c, 13, 50, 76
15, 43439, Note_on_c, 13, 50, 0
15, 43440, Note_on_c, 13, 48, 76
15, 43664, Note_on_c, 13, 48, 0
15, 43680, Note_on_c, 13, 60, 76
15, 43904, Note_on_c, 13, 60, 0
15, 43920, Note_on_c, 13, 55, 76
15, 44159, Note_on_c, 13, 55, 0
15, 44160, Note_on_c, 13, 54, 76
15, 44399, Note_on_c, 13, 54, 0
15, 44400, Note_on_c, 13, 52, 76
15, 44624, Note_on_c, 13, 52, 0
15, 44640, Note_on_c, 13, 64, 76
15, 44864, Note_on_c, 13, 64, 0
15, 44880, Note_on_c, 13, 59, 76
15, 45119, Note_on_c, 13, 59, 0
15, 45120, Note_on_c, 13, 57, 76
15, 45359, Note_on_c, 13, 57, 0
15, 45360, Note_on_c, 13, 55, 76
15, 45584, Note_on_c, 13, 55, 0
15, 45600, Note_on_c, 13, 49, 76
15, 45704, Note_on_c, 13, 49, 0
15, 45720, Note_on_c, 13, 47, 76
15, 45824, Note_on_c, 13, 47, 0
15, 45840, Note_on_c, 13, 49, 76
15, 46079, Note_on_c, 13, 49, 0
15, 46560, Note_on_c, 13, 58, 76
15, 46664, Note_on_c, 13, 58, 0
15, 46680, Note_on_c, 13, 56, 76
15, 46784, Note_on_c, 13, 56, 0
15, 46800, Note_on_c, 13, 58, 76
15, 47039, Note_on_c, 13, 58, 0
15, 47520, Note_on_c, 13, 54, 76
15, 47624, Note_on_c, 13, 54, 0
15, 47640, Note_on_c, 13, 52, 76
15, 47744, Note_on_c, 13, 52, 0
15, 47760, Note_on_c, 13, 54, 76
15, 47984, Note_on_c, 13, 54, 0
15, 48000, Note_on_c, 13, 55, 76
15, 48224, Note_on_c, 13, 55, 0
15, 48240, Note_on_c, 13, 50, 76
15, 48344, Note_on_c, 13, 50, 0
15, 48360, Note_on_c, 13, 49, 76
15, 48464, Note_on_c, 13, 49, 0
15, 48480, Note_on_c, 13, 50, 76
15, 48584, Note_on_c, 13, 50, 0
15, 48600, Note_on_c, 13, 52, 76
15, 48704, Note_on_c, 13, 52, 0
15, 48720, Note_on_c, 13, 54, 76
15, 48944, Note_on_c, 13, 54, 0
15, 48960, Note_on_c, 13, 42, 76
15, 49184, Note_on_c, 13, 42, 0
15, 49200, Note_on_c, 13, 47, 76
15, 49424, Note_on_c, 13, 47, 0
15, 49440, Note_on_c, 13, 59, 76
15, 49544, Note_on_c, 13, 59, 0
15, 49560, Note_on_c, 13, 58, 76
15, 49664, Note_on_c, 13, 58, 0
15, 49680, Note_on_c, 13, 59, 76
15, 49919, Note_on_c, 13, 59, 0
15, 50400, Note_on_c, 13, 54, 76
15, 50504, Note_on_c, 13, 54, 0
15, 50520, Note_on_c, 13, 55, 76
15, 50624, Note_on_c, 13, 55, 0
15, 50640, Note_on_c, 13, 57, 76
15, 50879, Note_on_c, 13, 57, 0
15, 51360, Note_on_c, 13, 50, 76
15, 51464, Note_on_c, 13, 50, 0
15, 51480, Note_on_c, 13, 52, 76
15, 51584, Note_on_c, 13, 52, 0
15, 51600, Note_on_c, 13, 54, 76
15, 51839, Note_on_c, 13, 54, 0
15, 52320, Note_on_c, 13, 57, 76
15, 52424, Note_on_c, 13, 57, 0
15, 52440, Note_on_c, 13, 55, 76
15, 52544, Note_on_c, 13, 55, 0
15, 52560, Note_on_c, 13, 54, 76
15, 52784, Note_on_c, 13, 54, 0
15, 52800, Note_on_c, 13, 50, 76
15, 53024, Note_on_c, 13, 50, 0
15, 53040, Note_on_c, 13, 43, 76
15, 53264, Note_on_c, 13, 43, 0
15, 53280, Note_on_c, 13, 55, 76
15, 53384, Note_on_c, 13, 55, 0
15, 53400, Note_on_c, 13, 54, 76
15, 53504, Note_on_c, 13, 54, 0
15, 53520, Note_on_c, 13, 55, 76
15, 53744, Note_on_c, 13, 55, 0
15, 53760, Note_on_c, 13, 45, 76
15, 53984, Note_on_c, 13, 45, 0
15, 54000, Note_on_c, 13, 47, 76
15, 54224, Note_on_c, 13, 47, 0
15, 54240, Note_on_c, 13, 59, 76
15, 54344, Note_on_c, 13, 59, 0
15, 54360, Note_on_c, 13, 57, 76
15, 54464, Note_on_c, 13, 57, 0
15, 54480, Note_on_c, 13, 59, 76
15, 54704, Note_on_c, 13, 59, 0
15, 54720, Note_on_c, 13, 49, 76
15, 54944, Note_on_c, 13, 49, 0
15, 54960, Note_on_c, 13, 50, 76
15, 55184, Note_on_c, 13, 50, 0
15, 55200, Note_on_c, 13, 62, 76
15, 55304, Note_on_c, 13, 62, 0
15, 55320, Note_on_c, 13, 61, 76
15, 55424, Note_on_c, 13, 61, 0
15, 55440, Note_on_c, 13, 62, 76
15, 55664, Note_on_c, 13, 62, 0
15, 55680, Note_on_c, 13, 52, 76
15, 55904, Note_on_c, 13, 52, 0
15, 55920, Note_on_c, 13, 54, 76
15, 56144, Note_on_c, 13, 54, 0
15, 56160, Note_on_c, 13, 59, 76
15, 56384, Note_on_c, 13, 59, 0
15, 56400, Note_on_c, 13, 57, 76
15, 56519, Note_on_c, 13, 57, 0
15, 56520, Note_on_c, 13, 56, 76
15, 56624, Note_on_c, 13, 56, 0
15, 56640, Note_on_c, 13, 54, 76
15, 56759, Note_on_c, 13, 54, 0
15, 56760, Note_on_c, 13, 52, 76
15, 56864, Note_on_c, 13, 52, 0
15, 56880, Note_on_c, 13, 57, 76
15, 57104, Note_on_c, 13, 57, 0
15, 57120, Note_on_c, 13, 55, 76
15, 57344, Note_on_c, 13, 55, 0
15, 57360, Note_on_c, 13, 54, 76
15, 57584, Note_on_c, 13, 54, 0
15, 57600, Note_on_c, 13, 52, 76
15, 57824, Note_on_c, 13, 52, 0
15, 57840, Note_on_c, 13, 50, 76
15, 58064, Note_on_c, 13, 50, 0
15, 58080, Note_on_c, 13, 59, 76
15, 58184, Note_on_c, 13, 59, 0
15, 58200, Note_on_c, 13, 57, 76
15, 58304, Note_on_c, 13, 57, 0
15, 58320, Note_on_c, 13, 59, 76
15, 58559, Note_on_c, 13, 59, 0
15, 59040, Note_on_c, 13, 56, 76
15, 59144, Note_on_c, 13, 56, 0
15, 59160, Note_on_c, 13, 54, 76
15, 59264, Note_on_c, 13, 54, 0
15, 59280, Note_on_c, 13, 56, 76
15, 59504, Note_on_c, 13, 56, 0
15, 59520, Note_on_c, 13, 52, 76
15, 59744, Note_on_c, 13, 52, 0
15, 59760, Note_on_c, 13, 57, 76
15, 59864, Note_on_c, 13, 57, 0
15, 59880, Note_on_c, 13, 55, 76
15, 59984, Note_on_c, 13, 55, 0
15, 60000, Note_on_c, 13, 54, 76
15, 60104, Note_on_c, 13, 54, 0
15, 60120, Note_on_c, 13, 55, 76
15, 60224, Note_on_c, 13, 55, 0
15, 60240, Note_on_c, 13, 57, 76
15, 60464, Note_on_c, 13, 57, 0
15, 60480, Note_on_c, 13, 45, 76
15, 60704, Note_on_c, 13, 45, 0
15, 60720, Note_on_c, 13, 50, 76
15, 61439, Note_on_c, 13, 50, 0
15, 61439, End_track
16, 0, Start_track
16, 0, Title_t, "Harpsichord "
16, 0, MIDI_port, 0
16, 0, Control_c, 14, 10, 64
16, 0, Control_c, 14, 11, 127
16, 0, Control_c, 14, 7, 72
16, 0, Program_c, 14, 6
16, 480, Note_on_c, 14, 62, 76
16, 584, Note_on_c, 14, 62, 0
16, 600, Note_on_c, 14, 61, 76
16, 704, Note_on_c, 14, 61, 0
16, 720, Note_on_c, 14, 62, 76
16, 959, Note_on_c, 14, 62, 0
16, 1440, Note_on_c, 14, 61, 76
16, 1544, Note_on_c, 14, 61, 0
16, 1560, Note_on_c, 14, 59, 76
16, 1664, Note_on_c, 14, 59, 0
16, 1680, Note_on_c, 14, 61, 76
16, 1919, Note_on_c, 14, 61, 0
16, 2400, Note_on_c, 14, 59, 76
16, 2504, Note_on_c, 14, 59, 0
16, 2520, Note_on_c, 14, 61, 76
16, 2624, Note_on_c, 14, 61, 0
16, 2640, Note_on_c, 14, 62, 76
16, 2864, Note_on_c, 14, 62, 0
16, 2880, Note_on_c, 14, 59, 76
16, 3104, Note_on_c, 14, 59, 0
16, 3120, Note_on_c, 14, 61, 76
16, 3344, Note_on_c, 14, 61, 0
16, 3360, Note_on_c, 14, 57, 76
16, 3584, Note_on_c, 14, 57, 0
16, 3600, Note_on_c, 14, 54, 76
16, 3824, Note_on_c, 14, 54, 0
16, 3840, Note_on_c, 14, 57, 76
16, 4064, Note_on_c, 14, 57, 0
16, 4080, Note_on_c, 14, 50, 76
16, 4304, Note_on_c, 14, 50, 0
16, 4320, Note_on_c, 14, 62, 76
16, 4424, Note_on_c, 14, 62, 0
16, 4440, Note_on_c, 14, 61, 76
16, 4544, Note_on_c, 14, 61, 0
16, 4560, Note_on_c, 14, 62, 76
16, 4799, Note_on_c, 14, 62, 0
16, 5280, Note_on_c, 14, 56, 76
16, 5384, Note_on_c, 14, 56, 0
16, 5400, Note_on_c, 14, 54, 76
16, 5504, Note_on_c, 14, 54, 0
16, 5520, Note_on_c, 14, 56, 76
16, 5744, Note_on_c, 14, 56, 0
16, 5760, Note_on_c, 14, 52, 76
16, 5984, Note_on_c, 14, 52, 0
16, 6000, Note_on_c, 14, 57, 76
16, 6224, Note_on_c, 14, 57, 0
16, 6240, Note_on_c, 14, 54, 76
16, 6464, Note_on_c, 14, 54, 0
16, 6480, Note_on_c, 14, 50, 76
16, 6704, Note_on_c, 14, 50, 0
16, 6720, Note_on_c, 14, 52, 76
16, 6944, Note_on_c, 14, 52, 0
16, 6960, Note_on_c, 14, 45, 76
16, 7679, Note_on_c, 14, 45, 0
16, 8160, Note_on_c, 14, 62, 76
16, 8264, Note_on_c, 14, 62, 0
16, 8280, Note_on_c, 14, 61, 76
16, 8384, Note_on_c, 14, 61, 0
16, 8400, Note_on_c, 14, 62, 76
16, 8639, Note_on_c, 14, 62, 0
16, 9120, Note_on_c, 14, 61, 76
16, 9224, Note_on_c, 14, 61, 0
16, 9240, Note_on_c, 14, 59, 76
16, 9344, Note_on_c, 14, 59, 0
16, 9360, Note_on_c, 14, 61, 76
16, 9599, Note_on_c, 14, 61, 0
16, 10080, Note_on_c, 14, 59, 76
16, 10184, Note_on_c, 14, 59, 0
16, 10200, Note_on_c, 14, 61, 76
16, 10304, Note_on_c, 14, 61, 0
16, 10320, Note_on_c, 14, 62, 76
16, 10544, Note_on_c, 14, 62, 0
16, 10560, Note_on_c, 14, 59, 76
16, 10784, Note_on_c, 14, 59, 0
16, 10800, Note_on_c, 14, 61, 76
16, 11024, Note_on_c, 14, 61, 0
16, 11040, Note_on_c, 14, 57, 76
16, 11264, Note_on_c, 14, 57, 0
16, 11280, Note_on_c, 14, 54, 76
16, 11504, Note_on_c, 14, 54, 0
16, 11520, Note_on_c, 14, 57, 76
16, 11744, Note_on_c, 14, 57, 0
16, 11760, Note_on_c, 14, 50, 76
16, 11984, Note_on_c, 14, 50, 0
16, 12000, Note_on_c, 14, 62, 76
16, 12104, Note_on_c, 14, 62, 0
16, 12120, Note_on_c, 14, 61, 76
16, 12224, Note_on_c, 14, 61, 0
16, 12240, Note_on_c, 14, 62, 76
16, 12479, Note_on_c, 14, 62, 0
16, 12960, Note_on_c, 14, 56, 76
16, 13064, Note_on_c, 14, 56, 0
16, 13080, Note_on_c, 14, 54, 76
16, 13184, Note_on_c, 14, 54, 0
16, 13200, Note_on_c, 14, 56, 76
16, 13424, Note_on_c, 14, 56, 0
16, 13440, Note_on_c, 14, 52, 76
16, 13664, Note_on_c, 14, 52, 0
16, 13680, Note_on_c, 14, 57, 76
16, 13904, Note_on_c, 14, 57, 0
16, 13920, Note_on_c, 14, 54, 76
16, 14144, Note_on_c, 14, 54, 0
16, 14160, Note_on_c, 14, 50, 76
16, 14384, Note_on_c, 14, 50, 0
16, 14400, Note_on_c, 14, 52, 76
16, 14624, Note_on_c, 14, 52, 0
16, 14640, Note_on_c, 14, 45, 76
16, 15359, Note_on_c, 14, 45, 0
16, 15840, Note_on_c, 14, 57, 76
16, 15944, Note_on_c, 14, 57, 0
16, 15960, Note_on_c, 14, 56, 76
16, 16064, Note_on_c, 14, 56, 0
16, 16080, Note_on_c, 14, 57, 76
16, 16319, Note_on_c, 14, 57, 0
16, 16800, Note_on_c, 14, 55, 76
16, 16904, Note_on_c, 14, 55, 0
16, 16920, Note_on_c, 14, 54, 76
16, 17024, Note_on_c, 14, 54, 0
16, 17040, Note_on_c, 14, 55, 76
16, 17279, Note_on_c, 14, 55, 0
16, 17760, Note_on_c, 14, 54, 76
16, 17984, Note_on_c, 14, 54, 0
16, 18000, Note_on_c, 14, 52, 76
16, 18224, Note_on_c, 14, 52, 0
16, 18240, Note_on_c, 14, 57, 76
16, 18464, Note_on_c, 14, 57, 0
16, 18480, Note_on_c, 14, 50, 76
16, 18704, Note_on_c, 14, 50, 0
16, 18720, Note_on_c, 14, 62, 76
16, 18824, Note_on_c, 14, 62, 0
16, 18840, Note_on_c, 14, 61, 76
16, 18944, Note_on_c, 14, 61, 0
16, 18960, Note_on_c, 14, 62, 76
16, 19184, Note_on_c, 14, 62, 0
16, 19200, Note_on_c, 14, 50, 76
16, 19424, Note_on_c, 14, 50, 0
16, 19440, Note_on_c, 14, 55, 76
16, 19664, Note_on_c, 14, 55, 0
16, 19680, Note_on_c, 14, 59, 76
16, 19904, Note_on_c, 14, 59, 0
16, 19920, Note_on_c, 14, 52, 76
16, 20159, Note_on_c, 14, 52, 0
16, 20160, Note_on_c, 14, 50, 76
16, 20399, Note_on_c, 14, 50, 0
16, 20400, Note_on_c, 14, 48, 76
16, 20624, Note_on_c, 14, 48, 0
16, 20640, Note_on_c, 14, 60, 76
16, 20864, Note_on_c, 14, 60, 0
16, 20880, Note_on_c, 14, 55, 76
16, 21119, Note_on_c, 14, 55, 0
16, 21120, Note_on_c, 14, 54, 76
16, 21359, Note_on_c, 14, 54, 0
16, 21360, Note_on_c, 14, 52, 76
16, 21584, Note_on_c, 14, 52, 0
16, 21600, Note_on_c, 14, 64, 76
16, 21824, Note_on_c, 14, 64, 0
16, 21840, Note_on_c, 14, 59, 76
16, 22079, Note_on_c, 14, 59, 0
16, 22080, Note_on_c, 14, 57, 76
16, 22319, Note_on_c, 14, 57, 0
16, 22320, Note_on_c, 14, 55, 76
16, 22544, Note_on_c, 14, 55, 0
16, 22560, Note_on_c, 14, 49, 76
16, 22664, Note_on_c, 14, 49, 0
16, 22680, Note_on_c, 14, 47, 76
16, 22784, Note_on_c, 14, 47, 0
16, 22800, Note_on_c, 14, 49, 76
16, 23039, Note_on_c, 14, 49, 0
16, 23520, Note_on_c, 14, 58, 76
16, 23624, Note_on_c, 14, 58, 0
16, 23640, Note_on_c, 14, 56, 76
16, 23744, Note_on_c, 14, 56, 0
16, 23760, Note_on_c, 14, 58, 76
16, 23999, Note_on_c, 14, 58, 0
16, 24480, Note_on_c, 14, 54, 76
16, 24584, Note_on_c, 14, 54, 0
16, 24600, Note_on_c, 14, 52, 76
16, 24704, Note_on_c, 14, 52, 0
16, 24720, Note_on_c, 14, 54, 76
16, 24944, Note_on_c, 14, 54, 0
16, 24960, Note_on_c, 14, 55, 76
16, 25184, Note_on_c, 14, 55, 0
16, 25200, Note_on_c, 14, 50, 76
16, 25304, Note_on_c, 14, 50, 0
16, 25320, Note_on_c, 14, 49, 76
16, 25424, Note_on_c, 14, 49, 0
16, 25440, Note_on_c, 14, 50, 76
16, 25544, Note_on_c, 14, 50, 0
16, 25560, Note_on_c, 14, 52, 76
16, 25664, Note_on_c, 14, 52, 0
16, 25680, Note_on_c, 14, 54, 76
16, 25904, Note_on_c, 14, 54, 0
16, 25920, Note_on_c, 14, 42, 76
16, 26144, Note_on_c, 14, 42, 0
16, 26160, Note_on_c, 14, 47, 76
16, 26384, Note_on_c, 14, 47, 0
16, 26400, Note_on_c, 14, 59, 76
16, 26504, Note_on_c, 14, 59, 0
16, 26520, Note_on_c, 14, 58, 76
16, 26624, Note_on_c, 14, 58, 0
16, 26640, Note_on_c, 14, 59, 76
16, 26879, Note_on_c, 14, 59, 0
16, 27360, Note_on_c, 14, 54, 76
16, 27464, Note_on_c, 14, 54, 0
16, 27480, Note_on_c, 14, 55, 76
16, 27584, Note_on_c, 14, 55, 0
16, 27600, Note_on_c, 14, 57, 76
16, 27839, Note_on_c, 14, 57, 0
16, 28320, Note_on_c, 14, 50, 76
16, 28424, Note_on_c, 14, 50, 0
16, 28440, Note_on_c, 14, 52, 76
16, 28544, Note_on_c, 14, 52, 0
16, 28560, Note_on_c, 14, 54, 76
16, 28799, Note_on_c, 14, 54, 0
16, 29280, Note_on_c, 14, 57, 76
16, 29384, Note_on_c, 14, 57, 0
16, 29400, Note_on_c, 14, 55, 76
16, 29504, Note_on_c, 14, 55, 0
16, 29520, Note_on_c, 14, 54, 76
16, 29744, Note_on_c, 14, 54, 0
16, 29760, Note_on_c, 14, 50, 76
16, 29984, Note_on_c, 14, 50, 0
16, 30000, Note_on_c, 14, 43, 76
16, 30224, Note_on_c, 14, 43, 0
16, 30240, Note_on_c, 14, 55, 76
16, 30344, Note_on_c, 14, 55, 0
16, 30360, Note_on_c, 14, 54, 76
16, 30464, Note_on_c, 14, 54, 0
16, 30480, Note_on_c, 14, 55, 76
16, 30704, Note_on_c, 14, 55, 0
16, 30720, Note_on_c, 14, 45, 76
16, 30944, Note_on_c, 14, 45, 0
16, 30960, Note_on_c, 14, 47, 76
16, 31184, Note_on_c, 14, 47, 0
16, 31200, Note_on_c, 14, 59, 76
16, 31304, Note_on_c, 14, 59, 0
16, 31320, Note_on_c, 14, 57, 76
16, 31424, Note_on_c, 14, 57, 0
16, 31440, Note_on_c, 14, 59, 76
16, 31664, Note_on_c, 14, 59, 0
16, 31680, Note_on_c, 14, 49, 76
16, 31904, Note_on_c, 14, 49, 0
16, 31920, Note_on_c, 14, 50, 76
16, 32144, Note_on_c, 14, 50, 0
16, 32160, Note_on_c, 14, 62, 76
16, 32264, Note_on_c, 14, 62, 0
16, 32280, Note_on_c, 14, 61, 76
16, 32384, Note_on_c, 14, 61, 0
16, 32400, Note_on_c, 14, 62, 76
16, 32624, Note_on_c, 14, 62, 0
16, 32640, Note_on_c, 14, 52, 76
16, 32864, Note_on_c, 14, 52, 0
16, 32880, Note_on_c, 14, 54, 76
16, 33104, Note_on_c, 14, 54, 0
16, 33120, Note_on_c, 14, 59, 76
16, 33344, Note_on_c, 14, 59, 0
16, 33360, Note_on_c, 14, 57, 76
16, 33479, Note_on_c, 14, 57, 0
16, 33480, Note_on_c, 14, 56, 76
16, 33584, Note_on_c, 14, 56, 0
16, 33600, Note_on_c, 14, 54, 76
16, 33719, Note_on_c, 14, 54, 0
16, 33720, Note_on_c, 14, 52, 76
16, 33824, Note_on_c, 14, 52, 0
16, 33840, Note_on_c, 14, 57, 76
16, 34064, Note_on_c, 14, 57, 0
16, 34080, Note_on_c, 14, 55, 76
16, 34304, Note_on_c, 14, 55, 0
16, 34320, Note_on_c, 14, 54, 76
16, 34544, Note_on_c, 14, 54, 0
16, 34560, Note_on_c, 14, 52, 76
16, 34784, Note_on_c, 14, 52, 0
16, 34800, Note_on_c, 14, 50, 76
16, 35024, Note_on_c, 14, 50, 0
16, 35040, Note_on_c, 14, 59, 76
16, 35144, Note_on_c, 14, 59, 0
16, 35160, Note_on_c, 14, 57, 76
16, 35264, Note_on_c, 14, 57, 0
16, 35280, Note_on_c, 14, 59, 76
16, 35519, Note_on_c, 14, 59, 0
16, 36000, Note_on_c, 14, 56, 76
16, 36104, Note_on_c, 14, 56, 0
16, 36120, Note_on_c, 14, 54, 76
16, 36224, Note_on_c, 14, 54, 0
16, 36240, Note_on_c, 14, 56, 76
16, 36464, Note_on_c, 14, 56, 0
16, 36480, Note_on_c, 14, 52, 76
16, 36704, Note_on_c, 14, 52, 0
16, 36720, Note_on_c, 14, 57, 76
16, 36824, Note_on_c, 14, 57, 0
16, 36840, Note_on_c, 14, 55, 76
16, 36944, Note_on_c, 14, 55, 0
16, 36960, Note_on_c, 14, 54, 76
16, 37064, Note_on_c, 14, 54, 0
16, 37080, Note_on_c, 14, 55, 76
16, 37184, Note_on_c, 14, 55, 0
16, 37200, Note_on_c, 14, 57, 76
16, 37424, Note_on_c, 14, 57, 0
16, 37440, Note_on_c, 14, 45, 76
16, 37664, Note_on_c, 14, 45, 0
16, 37680, Note_on_c, 14, 50, 76
16, 38399, Note_on_c, 14, 50, 0
16, 38880, Note_on_c, 14, 57, 76
16, 38984, Note_on_c, 14, 57, 0
16, 39000, Note_on_c, 14, 56, 76
16, 39104, Note_on_c, 14, 56, 0
16, 39120, Note_on_c, 14, 57, 76
16, 39359, Note_on_c, 14, 57, 0
16, 39840, Note_on_c, 14, 55, 76
16, 39944, Note_on_c, 14, 55, 0
16, 39960, Note_on_c, 14, 54, 76
16, 40064, Note_on_c, 14, 54, 0
16, 40080, Note_on_c, 14, 55, 76
16, 40319, Note_on_c, 14, 55, 0
16, 40800, Note_on_c, 14, 54, 76
16, 41024, Note_on_c, 14, 54, 0
16, 41040, Note_on_c, 14, 52, 76
16, 41264, Note_on_c, 14, 52, 0
16, 41280, Note_on_c, 14, 57, 76
16, 41504, Note_on_c, 14, 57, 0
16, 41520, Note_on_c, 14, 50, 76
16, 41744, Note_on_c, 14, 50, 0
16, 41760, Note_on_c, 14, 62, 76
16, 41864, Note_on_c, 14, 62, 0
16, 41880, Note_on_c, 14, 61, 76
16, 41984, Note_on_c, 14, 61, 0
16, 42000, Note_on_c, 14, 62, 76
16, 42224, Note_on_c, 14, 62, 0
16, 42240, Note_on_c, 14, 50, 76
16, 42464, Note_on_c, 14, 50, 0
16, 42480, Note_on_c, 14, 55, 76
16, 42704, Note_on_c, 14, 55, 0
16, 42720, Note_on_c, 14, 59, 76
16, 42944, Note_on_c, 14, 59, 0
16, 42960, Note_on_c, 14, 52, 76
16, 43199, Note_on_c, 14, 52, 0
16, 43200, Note_on_c, 14, 50, 76
16, 43439, Note_on_c, 14, 50, 0
16, 43440, Note_on_c, 14, 48, 76
16, 43664, Note_on_c, 14, 48, 0
16, 43680, Note_on_c, 14, 60, 76
16, 43904, Note_on_c, 14, 60, 0
16, 43920, Note_on_c, 14, 55, 76
16, 44159, Note_on_c, 14, 55, 0
16, 44160, Note_on_c, 14, 54, 76
16, 44399, Note_on_c, 14, 54, 0
16, 44400, Note_on_c, 14, 52, 76
16, 44624, Note_on_c, 14, 52, 0
16, 44640, Note_on_c, 14, 64, 76
16, 44864, Note_on_c, 14, 64, 0
16, 44880, Note_on_c, 14, 59, 76
16, 45119, Note_on_c, 14, 59, 0
16, 45120, Note_on_c, 14, 57, 76
16, 45359, Note_on_c, 14, 57, 0
16, 45360, Note_on_c, 14, 55, 76
16, 45584, Note_on_c, 14, 55, 0
16, 45600, Note_on_c, 14, 49, 76
16, 45704, Note_on_c, 14, 49, 0
16, 45720, Note_on_c, 14, 47, 76
16, 45824, Note_on_c, 14, 47, 0
16, 45840, Note_on_c, 14, 49, 76
16, 46079, Note_on_c, 14, 49, 0
16, 46560, Note_on_c, 14, 58, 76
16, 46664, Note_on_c, 14, 58, 0
16, 46680, Note_on_c, 14, 56, 76
16, 46784, Note_on_c, 14, 56, 0
16, 46800, Note_on_c, 14, 58, 76
16, 47039, Note_on_c, 14, 58, 0
16, 47520, Note_on_c, 14, 54, 76
16, 47624, Note_on_c, 14, 54, 0
16, 47640, Note_on_c, 14, 52, 76
16, 47744, Note_on_c, 14, 52, 0
16, 47760, Note_on_c, 14, 54, 76
16, 47984, Note_on_c, 14, 54, 0
16, 48000, Note_on_c, 14, 55, 76
16, 48224, Note_on_c, 14, 55, 0
16, 48240, Note_on_c, 14, 50, 76
16, 48344, Note_on_c, 14, 50, 0
16, 48360, Note_on_c, 14, 49, 76
16, 48464, Note_on_c, 14, 49, 0
16, 48480, Note_on_c, 14, 50, 76
16, 48584, Note_on_c, 14, 50, 0
16, 48600, Note_on_c, 14, 52, 76
16, 48704, Note_on_c, 14, 52, 0
16, 48720, Note_on_c, 14, 54, 76
16, 48944, Note_on_c, 14, 54, 0
16, 48960, Note_on_c, 14, 42, 76
16, 49184, Note_on_c, 14, 42, 0
16, 49200, Note_on_c, 14, 47, 76
16, 49424, Note_on_c, 14, 47, 0
16, 49440, Note_on_c, 14, 59, 76
16, 49544, Note_on_c, 14, 59, 0
16, 49560, Note_on_c, 14, 58, 76
16, 49664, Note_on_c, 14, 58, 0
16, 49680, Note_on_c, 14, 59, 76
16, 49919, Note_on_c, 14, 59, 0
16, 50400, Note_on_c, 14, 54, 76
16, 50504, Note_on_c, 14, 54, 0
16, 50520, Note_on_c, 14, 55, 76
16, 50624, Note_on_c, 14, 55, 0
16, 50640, Note_on_c, 14, 57, 76
16, 50879, Note_on_c, 14, 57, 0
16, 51360, Note_on_c, 14, 50, 76
16, 51464, Note_on_c, 14, 50, 0
16, 51480, Note_on_c, 14, 52, 76
16, 51584, Note_on_c, 14, 52, 0
16, 51600, Note_on_c, 14, 54, 76
16, 51839, Note_on_c, 14, 54, 0
16, 52320, Note_on_c, 14, 57, 76
16, 52424, Note_on_c, 14, 57, 0
16, 52440, Note_on_c, 14, 55, 76
16, 52544, Note_on_c, 14, 55, 0
16, 52560, Note_on_c, 14, 54, 76
16, 52784, Note_on_c, 14, 54, 0
16, 52800, Note_on_c, 14, 50, 76
16, 53024, Note_on_c, 14, 50, 0
16, 53040, Note_on_c, 14, 43, 76
16, 53264, Note_on_c, 14, 43, 0
16, 53280, Note_on_c, 14, 55, 76
16, 53384, Note_on_c, 14, 55, 0
16, 53400, Note_on_c, 14, 54, 76
16, 53504, Note_on_c, 14, 54, 0
16, 53520, Note_on_c, 14, 55, 76
16, 53744, Note_on_c, 14, 55, 0
16, 53760, Note_on_c, 14, 45, 76
16, 53984, Note_on_c, 14, 45, 0
16, 54000, Note_on_c, 14, 47, 76
16, 54224, Note_on_c, 14, 47, 0
16, 54240, Note_on_c, 14, 59, 76
16, 54344, Note_on_c, 14, 59, 0
16, 54360, Note_on_c, 14, 57, 76
16, 54464, Note_on_c, 14, 57, 0
16, 54480, Note_on_c, 14, 59, 76
16, 54704, Note_on_c, 14, 59, 0
16, 54720, Note_on_c, 14, 49, 76
16, 54944, Note_on_c, 14, 49, 0
16, 54960, Note_on_c, 14, 50, 76
16, 55184, Note_on_c, 14, 50, 0
16, 55200, Note_on_c, 14, 62, 76
16, 55304, Note_on_c, 14, 62, 0
16, 55320, Note_on_c, 14, 61, 76
16, 55424, Note_on_c, 14, 61, 0
16, 55440, Note_on_c, 14, 62, 76
16, 55664, Note_on_c, 14, 62, 0
16, 55680, Note_on_c, 14, 52, 76
16, 55904, Note_on_c, 14, 52, 0
16, 55920, Note_on_c, 14, 54, 76
16, 56144, Note_on_c, 14, 54, 0
16, 56160, Note_on_c, 14, 59, 76
16, 56384, Note_on_c, 14, 59, 0
16, 56400, Note_on_c, 14, 57, 76
16, 56519, Note_on_c, 14, 57, 0
16, 56520, Note_on_c, 14, 56, 76
16, 56624, Note_on_c, 14, 56, 0
16, 56640, Note_on_c, 14, 54, 76
16, 56759, Note_on_c, 14, 54, 0
16, 56760, Note_on_c, 14, 52, 76
16, 56864, Note_on_c, 14, 52, 0
16, 56880, Note_on_c, 14, 57, 76
16, 57104, Note_on_c, 14, 57, 0
16, 57120, Note_on_c, 14, 55, 76
16, 57344, Note_on_c, 14, 55, 0
16, 57360, Note_on_c, 14, 54, 76
16, 57584, Note_on_c, 14, 54, 0
16, 57600, Note_on_c, 14, 52, 76
16, 57824, Note_on_c, 14, 52, 0
16, 57840, Note_on_c, 14, 50, 76
16, 58064, Note_on_c, 14, 50, 0
16, 58080, Note_on_c, 14, 59, 76
16, 58184, Note_on_c, 14, 59, 0
16, 58200, Note_on_c, 14, 57, 76
16, 58304, Note_on_c, 14, 57, 0
16, 58320, Note_on_c, 14, 59, 76
16, 58559, Note_on_c, 14, 59, 0
16, 59040, Note_on_c, 14, 56, 76
16, 59144, Note_on_c, 14, 56, 0
16, 59160, Note_on_c, 14, 54, 76
16, 59264, Note_on_c, 14, 54, 0
16, 59280, Note_on_c, 14, 56, 76
16, 59504, Note_on_c, 14, 56, 0
16, 59520, Note_on_c, 14, 52, 76
16, 59744, Note_on_c, 14, 52, 0
16, 59760, Note_on_c, 14, 57, 76
16, 59864, Note_on_c, 14, 57, 0
16, 59880, Note_on_c, 14, 55, 76
16, 59984, Note_on_c, 14, 55, 0
16, 60000, Note_on_c, 14, 54, 76
16, 60104, Note_on_c, 14, 54, 0
16, 60120, Note_on_c, 14, 55, 76
16, 60224, Note_on_c, 14, 55, 0
16, 60240, Note_on_c, 14, 57, 76
16, 60464, Note_on_c, 14, 57, 0
16, 60480, Note_on_c, 14, 45, 76
16, 60704, Note_on_c, 14, 45, 0
16, 60720, Note_on_c, 14, 50, 76
16, 61439, Note_on_c, 14, 50, 0
16, 61439, End_track
17, 0, Start_track
17, 0, Title_t, "Johann Sebastian Bach - Orchestral Suite No. 3 in D Major, BWV1068 - No. 4 Bourrée"
17, 0, MIDI_port, 0
17, 0, End_track
0, 0, End_of_file
