0, 0, Header, 1, 10, 120
1, 0, Start_track
1, 0, Text_t, "\015\012\015\012Mass in B Minor          Johann Sebastion Bach\015\012No. 5, Aria for Soprano,  Laudamus te\015\012\015\012seq by David Siu  dss@po.cwru.edu\015\012\015\012\015\012"
1, 0, Time_signature, 1, 2, 24, 8
1, 0, Key_signature, 3, "major"
1, 0, Tempo, 625000
1, 120, Time_signature, 1, 3, 12, 8
1, 120, Tempo, 923077
1, 180, Time_signature, 4, 2, 24, 8
1, 21966, Tempo, 1333333
1, 22001, Tempo, 2000000
1, 22193, Tempo, 923077
1, 27720, Tempo, 1333333
1, 27805, Tempo, 923077
1, 29589, Tempo, 1333333
1, 29672, Tempo, 2000000
1, 30420, End_track
2, 0, Start_track
2, 0, MIDI_port, 0
2, 0, Title_t, "Instrument  1"
2, 0, Program_c, 0, 40
2, 30420, End_track
3, 0, Start_track
3, 0, MIDI_port, 0
3, 0, Title_t, "Vln solo"
3, 0, Program_c, 0, 40
3, 120, Note_on_c, 0, 64, 45
3, 155, Note_on_c, 0, 64, 0
3, 180, Note_on_c, 0, 69, 45
3, 270, Note_on_c, 0, 69, 0
3, 270, Note_on_c, 0, 71, 45
3, 285, Note_on_c, 0, 71, 0
3, 285, Note_on_c, 0, 73, 45
3, 300, Note_on_c, 0, 73, 0
3, 300, Note_on_c, 0, 71, 45
3, 330, Note_on_c, 0, 71, 0
3, 330, Note_on_c, 0, 73, 45
3, 360, Note_on_c, 0, 73, 0
3, 360, Note_on_c, 0, 71, 45
3, 390, Note_on_c, 0, 71, 0
3, 390, Note_on_c, 0, 68, 45
3, 420, Note_on_c, 0, 68, 0
3, 420, Note_on_c, 0, 69, 45
3, 480, Note_on_c, 0, 69, 0
3, 480, Note_on_c, 0, 68, 45
3, 510, Note_on_c, 0, 68, 0
3, 510, Note_on_c, 0, 66, 45
3, 540, Note_on_c, 0, 66, 0
3, 540, Note_on_c, 0, 64, 45
3, 575, Note_on_c, 0, 64, 0
3, 600, Note_on_c, 0, 76, 64
3, 635, Note_on_c, 0, 76, 0
3, 660, Note_on_c, 0, 74, 64
3, 690, Note_on_c, 0, 74, 0
3, 690, Note_on_c, 0, 73, 64
3, 708, Note_on_c, 0, 73, 0
3, 720, Note_on_c, 0, 71, 64
3, 750, Note_on_c, 0, 71, 0
3, 750, Note_on_c, 0, 69, 64
3, 768, Note_on_c, 0, 69, 0
3, 780, Note_on_c, 0, 74, 64
3, 815, Note_on_c, 0, 74, 0
3, 840, Note_on_c, 0, 73, 64
3, 875, Note_on_c, 0, 73, 0
3, 900, Note_on_c, 0, 73, 64
3, 960, Note_on_c, 0, 73, 0
3, 960, Note_on_c, 0, 71, 64
3, 995, Note_on_c, 0, 71, 0
3, 1080, Note_on_c, 0, 71, 50
3, 1140, Note_on_c, 0, 71, 0
3, 1140, Note_on_c, 0, 73, 50
3, 1158, Note_on_c, 0, 73, 0
3, 1170, Note_on_c, 0, 69, 50
3, 1230, Note_on_c, 0, 69, 0
3, 1230, Note_on_c, 0, 71, 50
3, 1245, Note_on_c, 0, 71, 0
3, 1245, Note_on_c, 0, 73, 50
3, 1260, Note_on_c, 0, 73, 0
3, 1260, Note_on_c, 0, 71, 50
3, 1278, Note_on_c, 0, 71, 0
3, 1290, Note_on_c, 0, 68, 50
3, 1350, Note_on_c, 0, 68, 0
3, 1350, Note_on_c, 0, 69, 50
3, 1365, Note_on_c, 0, 69, 0
3, 1365, Note_on_c, 0, 71, 50
3, 1380, Note_on_c, 0, 71, 0
3, 1380, Note_on_c, 0, 69, 50
3, 1398, Note_on_c, 0, 69, 0
3, 1410, Note_on_c, 0, 66, 50
3, 1470, Note_on_c, 0, 66, 0
3, 1470, Note_on_c, 0, 68, 50
3, 1485, Note_on_c, 0, 68, 0
3, 1485, Note_on_c, 0, 69, 52
3, 1500, Note_on_c, 0, 69, 0
3, 1500, Note_on_c, 0, 68, 54
3, 1515, Note_on_c, 0, 68, 0
3, 1515, Note_on_c, 0, 66, 55
3, 1530, Note_on_c, 0, 66, 0
3, 1530, Note_on_c, 0, 64, 57
3, 1548, Note_on_c, 0, 64, 0
3, 1560, Note_on_c, 0, 71, 61
3, 1575, Note_on_c, 0, 71, 0
3, 1575, Note_on_c, 0, 69, 62
3, 1590, Note_on_c, 0, 69, 0
3, 1590, Note_on_c, 0, 68, 64
3, 1608, Note_on_c, 0, 68, 0
3, 1620, Note_on_c, 0, 76, 64
3, 1890, Note_on_c, 0, 76, 0
3, 1890, Note_on_c, 0, 78, 59
3, 1905, Note_on_c, 0, 78, 0
3, 1905, Note_on_c, 0, 76, 57
3, 1920, Note_on_c, 0, 76, 0
3, 1920, Note_on_c, 0, 75, 55
3, 1935, Note_on_c, 0, 75, 0
3, 1935, Note_on_c, 0, 73, 53
3, 1950, Note_on_c, 0, 73, 0
3, 1950, Note_on_c, 0, 71, 50
3, 2010, Note_on_c, 0, 71, 0
3, 2010, Note_on_c, 0, 73, 41
3, 2025, Note_on_c, 0, 73, 0
3, 2025, Note_on_c, 0, 71, 39
3, 2040, Note_on_c, 0, 71, 0
3, 2040, Note_on_c, 0, 69, 37
3, 2055, Note_on_c, 0, 69, 0
3, 2055, Note_on_c, 0, 68, 35
3, 2070, Note_on_c, 0, 68, 0
3, 2070, Note_on_c, 0, 66, 32
3, 2085, Note_on_c, 0, 66, 0
3, 2085, Note_on_c, 0, 64, 30
3, 2100, Note_on_c, 0, 64, 0
3, 2100, Note_on_c, 0, 73, 32
3, 2115, Note_on_c, 0, 73, 0
3, 2115, Note_on_c, 0, 71, 33
3, 2130, Note_on_c, 0, 71, 0
3, 2130, Note_on_c, 0, 69, 35
3, 2148, Note_on_c, 0, 69, 0
3, 2160, Note_on_c, 0, 75, 37
3, 2175, Note_on_c, 0, 75, 0
3, 2175, Note_on_c, 0, 73, 38
3, 2190, Note_on_c, 0, 73, 0
3, 2190, Note_on_c, 0, 71, 40
3, 2208, Note_on_c, 0, 71, 0
3, 2220, Note_on_c, 0, 76, 42
3, 2235, Note_on_c, 0, 76, 0
3, 2235, Note_on_c, 0, 75, 43
3, 2244, Note_on_c, 0, 75, 0
3, 2250, Note_on_c, 0, 73, 45
3, 2280, Note_on_c, 0, 73, 0
3, 2280, Note_on_c, 0, 78, 47
3, 2295, Note_on_c, 0, 78, 0
3, 2295, Note_on_c, 0, 76, 48
3, 2310, Note_on_c, 0, 76, 0
3, 2310, Note_on_c, 0, 75, 50
3, 2328, Note_on_c, 0, 75, 0
3, 2340, Note_on_c, 0, 80, 52
3, 2355, Note_on_c, 0, 80, 0
3, 2355, Note_on_c, 0, 78, 54
3, 2370, Note_on_c, 0, 78, 0
3, 2370, Note_on_c, 0, 76, 55
3, 2388, Note_on_c, 0, 76, 0
3, 2400, Note_on_c, 0, 81, 57
3, 2415, Note_on_c, 0, 81, 0
3, 2415, Note_on_c, 0, 80, 59
3, 2430, Note_on_c, 0, 80, 0
3, 2430, Note_on_c, 0, 78, 60
3, 2448, Note_on_c, 0, 78, 0
3, 2460, Note_on_c, 0, 83, 62
3, 2475, Note_on_c, 0, 83, 0
3, 2475, Note_on_c, 0, 81, 64
3, 2490, Note_on_c, 0, 81, 0
3, 2490, Note_on_c, 0, 80, 65
3, 2508, Note_on_c, 0, 80, 0
3, 2520, Note_on_c, 0, 85, 67
3, 2535, Note_on_c, 0, 85, 0
3, 2535, Note_on_c, 0, 83, 69
3, 2550, Note_on_c, 0, 83, 0
3, 2550, Note_on_c, 0, 81, 70
3, 2568, Note_on_c, 0, 81, 0
3, 2580, Note_on_c, 0, 87, 72
3, 2595, Note_on_c, 0, 87, 0
3, 2595, Note_on_c, 0, 85, 74
3, 2610, Note_on_c, 0, 85, 0
3, 2610, Note_on_c, 0, 83, 75
3, 2628, Note_on_c, 0, 83, 0
3, 2640, Note_on_c, 0, 88, 64
3, 2670, Note_on_c, 0, 88, 0
3, 2670, Note_on_c, 0, 87, 64
3, 2685, Note_on_c, 0, 87, 0
3, 2685, Note_on_c, 0, 85, 64
3, 2700, Note_on_c, 0, 85, 0
3, 2700, Note_on_c, 0, 83, 64
3, 2730, Note_on_c, 0, 83, 0
3, 2730, Note_on_c, 0, 81, 64
3, 2745, Note_on_c, 0, 81, 0
3, 2745, Note_on_c, 0, 80, 64
3, 2760, Note_on_c, 0, 80, 0
3, 2760, Note_on_c, 0, 81, 64
3, 2790, Note_on_c, 0, 81, 0
3, 2790, Note_on_c, 0, 80, 64
3, 2805, Note_on_c, 0, 80, 0
3, 2805, Note_on_c, 0, 78, 64
3, 2820, Note_on_c, 0, 78, 0
3, 2820, Note_on_c, 0, 76, 64
3, 2855, Note_on_c, 0, 76, 0
3, 2880, Note_on_c, 0, 64, 64
3, 2915, Note_on_c, 0, 64, 0
3, 3000, Note_on_c, 0, 71, 40
3, 3035, Note_on_c, 0, 71, 0
3, 3060, Note_on_c, 0, 70, 40
3, 3090, Note_on_c, 0, 70, 0
3, 3090, Note_on_c, 0, 71, 40
3, 3108, Note_on_c, 0, 71, 0
3, 3120, Note_on_c, 0, 71, 40
3, 3150, Note_on_c, 0, 71, 0
3, 3150, Note_on_c, 0, 73, 40
3, 3168, Note_on_c, 0, 73, 0
3, 3180, Note_on_c, 0, 66, 40
3, 3198, Note_on_c, 0, 66, 0
3, 3210, Note_on_c, 0, 76, 40
3, 3270, Note_on_c, 0, 76, 0
3, 3270, Note_on_c, 0, 74, 40
3, 3285, Note_on_c, 0, 74, 0
3, 3285, Note_on_c, 0, 73, 40
3, 3300, Note_on_c, 0, 73, 0
3, 3300, Note_on_c, 0, 74, 40
3, 3318, Note_on_c, 0, 74, 0
3, 3330, Note_on_c, 0, 73, 40
3, 3345, Note_on_c, 0, 73, 0
3, 3345, Note_on_c, 0, 71, 40
3, 3360, Note_on_c, 0, 71, 0
3, 3360, Note_on_c, 0, 70, 40
3, 3375, Note_on_c, 0, 70, 0
3, 3375, Note_on_c, 0, 71, 40
3, 3390, Note_on_c, 0, 71, 0
3, 3390, Note_on_c, 0, 73, 40
3, 3450, Note_on_c, 0, 73, 0
3, 3450, Note_on_c, 0, 71, 40
3, 3465, Note_on_c, 0, 71, 0
3, 3465, Note_on_c, 0, 70, 40
3, 3480, Note_on_c, 0, 70, 0
3, 3480, Note_on_c, 0, 71, 40
3, 3495, Note_on_c, 0, 71, 0
3, 3495, Note_on_c, 0, 73, 40
3, 3510, Note_on_c, 0, 73, 0
3, 3510, Note_on_c, 0, 74, 40
3, 3528, Note_on_c, 0, 74, 0
3, 3540, Note_on_c, 0, 68, 40
3, 3570, Note_on_c, 0, 68, 0
3, 3570, Note_on_c, 0, 69, 40
3, 3588, Note_on_c, 0, 69, 0
3, 3600, Note_on_c, 0, 69, 40
3, 3630, Note_on_c, 0, 69, 0
3, 3630, Note_on_c, 0, 71, 40
3, 3648, Note_on_c, 0, 71, 0
3, 3660, Note_on_c, 0, 64, 40
3, 3678, Note_on_c, 0, 64, 0
3, 3690, Note_on_c, 0, 74, 40
3, 3750, Note_on_c, 0, 74, 0
3, 3750, Note_on_c, 0, 73, 40
3, 3765, Note_on_c, 0, 73, 0
3, 3765, Note_on_c, 0, 71, 40
3, 3780, Note_on_c, 0, 71, 0
3, 3780, Note_on_c, 0, 73, 40
3, 3798, Note_on_c, 0, 73, 0
3, 3810, Note_on_c, 0, 71, 40
3, 3825, Note_on_c, 0, 71, 0
3, 3825, Note_on_c, 0, 69, 40
3, 3840, Note_on_c, 0, 69, 0
3, 3840, Note_on_c, 0, 68, 40
3, 3855, Note_on_c, 0, 68, 0
3, 3855, Note_on_c, 0, 69, 40
3, 3870, Note_on_c, 0, 69, 0
3, 3870, Note_on_c, 0, 71, 40
3, 3900, Note_on_c, 0, 71, 0
3, 3900, Note_on_c, 0, 69, 40
3, 3930, Note_on_c, 0, 69, 0
3, 3930, Note_on_c, 0, 67, 40
3, 3945, Note_on_c, 0, 67, 0
3, 3945, Note_on_c, 0, 66, 40
3, 3960, Note_on_c, 0, 66, 0
3, 3960, Note_on_c, 0, 64, 40
3, 3975, Note_on_c, 0, 64, 0
3, 3975, Note_on_c, 0, 66, 40
3, 3990, Note_on_c, 0, 66, 0
3, 3990, Note_on_c, 0, 67, 40
3, 4020, Note_on_c, 0, 67, 0
3, 4020, Note_on_c, 0, 66, 30
3, 4050, Note_on_c, 0, 66, 0
3, 4050, Note_on_c, 0, 62, 31
3, 4080, Note_on_c, 0, 62, 0
3, 4080, Note_on_c, 0, 62, 31
3, 4085, Note_on_c, 0, 62, 0
3, 4085, Note_on_c, 0, 64, 31
3, 4089, Note_on_c, 0, 64, 0
3, 4089, Note_on_c, 0, 62, 32
3, 4095, Note_on_c, 0, 62, 0
3, 4095, Note_on_c, 0, 61, 32
3, 4110, Note_on_c, 0, 61, 0
3, 4110, Note_on_c, 0, 62, 32
3, 4140, Note_on_c, 0, 62, 0
3, 4140, Note_on_c, 0, 62, 33
3, 4155, Note_on_c, 0, 62, 0
3, 4155, Note_on_c, 0, 68, 33
3, 4170, Note_on_c, 0, 68, 0
3, 4170, Note_on_c, 0, 76, 33
3, 4215, Note_on_c, 0, 76, 0
3, 4215, Note_on_c, 0, 74, 34
3, 4230, Note_on_c, 0, 74, 0
3, 4230, Note_on_c, 0, 73, 35
3, 4245, Note_on_c, 0, 73, 0
3, 4245, Note_on_c, 0, 71, 35
3, 4260, Note_on_c, 0, 71, 0
3, 4260, Note_on_c, 0, 69, 35
3, 4290, Note_on_c, 0, 69, 0
3, 4290, Note_on_c, 0, 62, 36
3, 4320, Note_on_c, 0, 62, 0
3, 4320, Note_on_c, 0, 62, 37
3, 4325, Note_on_c, 0, 62, 0
3, 4325, Note_on_c, 0, 64, 37
3, 4329, Note_on_c, 0, 64, 0
3, 4329, Note_on_c, 0, 62, 37
3, 4335, Note_on_c, 0, 62, 0
3, 4335, Note_on_c, 0, 61, 37
3, 4350, Note_on_c, 0, 61, 0
3, 4350, Note_on_c, 0, 62, 37
3, 4380, Note_on_c, 0, 62, 0
3, 4380, Note_on_c, 0, 62, 38
3, 4395, Note_on_c, 0, 62, 0
3, 4395, Note_on_c, 0, 71, 38
3, 4410, Note_on_c, 0, 71, 0
3, 4410, Note_on_c, 0, 78, 39
3, 4470, Note_on_c, 0, 78, 0
3, 4470, Note_on_c, 0, 76, 40
3, 4485, Note_on_c, 0, 76, 0
3, 4485, Note_on_c, 0, 74, 40
3, 4500, Note_on_c, 0, 74, 0
3, 4500, Note_on_c, 0, 73, 41
3, 4515, Note_on_c, 0, 73, 0
3, 4515, Note_on_c, 0, 71, 41
3, 4530, Note_on_c, 0, 71, 0
3, 4530, Note_on_c, 0, 69, 41
3, 4560, Note_on_c, 0, 69, 0
3, 4560, Note_on_c, 0, 74, 42
3, 4575, Note_on_c, 0, 74, 0
3, 4575, Note_on_c, 0, 73, 42
3, 4590, Note_on_c, 0, 73, 0
3, 4590, Note_on_c, 0, 71, 43
3, 4620, Note_on_c, 0, 71, 0
3, 4620, Note_on_c, 0, 69, 43
3, 4687, Note_on_c, 0, 69, 0
3, 4687, Note_on_c, 0, 68, 45
3, 4695, Note_on_c, 0, 68, 0
3, 4695, Note_on_c, 0, 69, 45
3, 4702, Note_on_c, 0, 69, 0
3, 4702, Note_on_c, 0, 68, 45
3, 4710, Note_on_c, 0, 68, 0
3, 4710, Note_on_c, 0, 69, 45
3, 4717, Note_on_c, 0, 69, 0
3, 4717, Note_on_c, 0, 68, 46
3, 4725, Note_on_c, 0, 68, 0
3, 4725, Note_on_c, 0, 69, 46
3, 4740, Note_on_c, 0, 69, 0
3, 4740, Note_on_c, 0, 69, 46
3, 4770, Note_on_c, 0, 69, 0
3, 4770, Note_on_c, 0, 63, 47
3, 4785, Note_on_c, 0, 63, 0
3, 4785, Note_on_c, 0, 64, 47
3, 4800, Note_on_c, 0, 64, 0
3, 4800, Note_on_c, 0, 66, 47
3, 4830, Note_on_c, 0, 66, 0
3, 4830, Note_on_c, 0, 66, 48
3, 4845, Note_on_c, 0, 66, 0
3, 4845, Note_on_c, 0, 68, 48
3, 4860, Note_on_c, 0, 68, 0
3, 4860, Note_on_c, 0, 69, 49
3, 4890, Note_on_c, 0, 69, 0
3, 4890, Note_on_c, 0, 69, 49
3, 4905, Note_on_c, 0, 69, 0
3, 4905, Note_on_c, 0, 71, 50
3, 4920, Note_on_c, 0, 71, 0
3, 4920, Note_on_c, 0, 72, 50
3, 4995, Note_on_c, 0, 72, 0
3, 4995, Note_on_c, 0, 71, 46
3, 5010, Note_on_c, 0, 71, 0
3, 5010, Note_on_c, 0, 69, 46
3, 5025, Note_on_c, 0, 69, 0
3, 5025, Note_on_c, 0, 68, 47
3, 5040, Note_on_c, 0, 68, 0
3, 5040, Note_on_c, 0, 69, 47
3, 5055, Note_on_c, 0, 69, 0
3, 5055, Note_on_c, 0, 72, 48
3, 5070, Note_on_c, 0, 72, 0
3, 5070, Note_on_c, 0, 75, 49
3, 5115, Note_on_c, 0, 75, 0
3, 5115, Note_on_c, 0, 76, 51
3, 5130, Note_on_c, 0, 76, 0
3, 5130, Note_on_c, 0, 78, 51
3, 5145, Note_on_c, 0, 78, 0
3, 5145, Note_on_c, 0, 76, 52
3, 5160, Note_on_c, 0, 76, 0
3, 5160, Note_on_c, 0, 75, 52
3, 5175, Note_on_c, 0, 75, 0
3, 5175, Note_on_c, 0, 72, 53
3, 5190, Note_on_c, 0, 72, 0
3, 5190, Note_on_c, 0, 71, 54
3, 5205, Note_on_c, 0, 71, 0
3, 5205, Note_on_c, 0, 69, 54
3, 5220, Note_on_c, 0, 69, 0
3, 5220, Note_on_c, 0, 68, 55
3, 5235, Note_on_c, 0, 68, 0
3, 5235, Note_on_c, 0, 64, 55
3, 5250, Note_on_c, 0, 64, 0
3, 5250, Note_on_c, 0, 62, 56
3, 5265, Note_on_c, 0, 62, 0
3, 5265, Note_on_c, 0, 61, 57
3, 5280, Note_on_c, 0, 61, 0
3, 5280, Note_on_c, 0, 62, 57
3, 5295, Note_on_c, 0, 62, 0
3, 5295, Note_on_c, 0, 68, 58
3, 5310, Note_on_c, 0, 68, 0
3, 5310, Note_on_c, 0, 71, 58
3, 5355, Note_on_c, 0, 71, 0
3, 5355, Note_on_c, 0, 69, 60
3, 5370, Note_on_c, 0, 69, 0
3, 5370, Note_on_c, 0, 68, 61
3, 5385, Note_on_c, 0, 68, 0
3, 5385, Note_on_c, 0, 66, 62
3, 5400, Note_on_c, 0, 66, 0
3, 5400, Note_on_c, 0, 64, 62
3, 5415, Note_on_c, 0, 64, 0
3, 5415, Note_on_c, 0, 62, 63
3, 5430, Note_on_c, 0, 62, 0
3, 5430, Note_on_c, 0, 61, 63
3, 5445, Note_on_c, 0, 61, 0
3, 5445, Note_on_c, 0, 59, 64
3, 5460, Note_on_c, 0, 59, 0
3, 5460, Note_on_c, 0, 61, 64
3, 5475, Note_on_c, 0, 61, 0
3, 5475, Note_on_c, 0, 66, 64
3, 5490, Note_on_c, 0, 66, 0
3, 5490, Note_on_c, 0, 63, 64
3, 5550, Note_on_c, 0, 63, 0
3, 5550, Note_on_c, 0, 64, 64
3, 5565, Note_on_c, 0, 64, 0
3, 5565, Note_on_c, 0, 57, 64
3, 5580, Note_on_c, 0, 57, 0
3, 5580, Note_on_c, 0, 61, 64
3, 5647, Note_on_c, 0, 61, 0
3, 5647, Note_on_c, 0, 59, 64
3, 5655, Note_on_c, 0, 59, 0
3, 5655, Note_on_c, 0, 61, 64
3, 5662, Note_on_c, 0, 61, 0
3, 5662, Note_on_c, 0, 59, 64
3, 5670, Note_on_c, 0, 59, 0
3, 5670, Note_on_c, 0, 61, 64
3, 5677, Note_on_c, 0, 61, 0
3, 5677, Note_on_c, 0, 59, 64
3, 5685, Note_on_c, 0, 59, 0
3, 5685, Note_on_c, 0, 57, 64
3, 5700, Note_on_c, 0, 57, 0
3, 5700, Note_on_c, 0, 57, 64
3, 5718, Note_on_c, 0, 57, 0
3, 5730, Note_on_c, 0, 61, 59
3, 5745, Note_on_c, 0, 61, 0
3, 5745, Note_on_c, 0, 64, 57
3, 5760, Note_on_c, 0, 64, 0
3, 5760, Note_on_c, 0, 69, 54
3, 5775, Note_on_c, 0, 69, 0
3, 5775, Note_on_c, 0, 73, 52
3, 5790, Note_on_c, 0, 73, 0
3, 5790, Note_on_c, 0, 76, 50
3, 5805, Note_on_c, 0, 76, 0
3, 5805, Note_on_c, 0, 80, 47
3, 5820, Note_on_c, 0, 80, 0
3, 5820, Note_on_c, 0, 81, 45
3, 5855, Note_on_c, 0, 81, 0
3, 7320, Note_on_c, 0, 76, 64
3, 7355, Note_on_c, 0, 76, 0
3, 7380, Note_on_c, 0, 74, 64
3, 7410, Note_on_c, 0, 74, 0
3, 7410, Note_on_c, 0, 73, 64
3, 7428, Note_on_c, 0, 73, 0
3, 7440, Note_on_c, 0, 71, 64
3, 7470, Note_on_c, 0, 71, 0
3, 7470, Note_on_c, 0, 69, 64
3, 7488, Note_on_c, 0, 69, 0
3, 7500, Note_on_c, 0, 74, 64
3, 7535, Note_on_c, 0, 74, 0
3, 7560, Note_on_c, 0, 73, 64
3, 7595, Note_on_c, 0, 73, 0
3, 7620, Note_on_c, 0, 71, 64
3, 7691, Note_on_c, 0, 71, 0
3, 7800, Note_on_c, 0, 71, 45
3, 7860, Note_on_c, 0, 71, 0
3, 7860, Note_on_c, 0, 73, 45
3, 7878, Note_on_c, 0, 73, 0
3, 7890, Note_on_c, 0, 69, 45
3, 7950, Note_on_c, 0, 69, 0
3, 7950, Note_on_c, 0, 71, 45
3, 7965, Note_on_c, 0, 71, 0
3, 7965, Note_on_c, 0, 73, 45
3, 7980, Note_on_c, 0, 73, 0
3, 7980, Note_on_c, 0, 71, 45
3, 7998, Note_on_c, 0, 71, 0
3, 8010, Note_on_c, 0, 68, 45
3, 8070, Note_on_c, 0, 68, 0
3, 8070, Note_on_c, 0, 69, 45
3, 8085, Note_on_c, 0, 69, 0
3, 8085, Note_on_c, 0, 71, 45
3, 8100, Note_on_c, 0, 71, 0
3, 8100, Note_on_c, 0, 69, 45
3, 8118, Note_on_c, 0, 69, 0
3, 8130, Note_on_c, 0, 66, 45
3, 8190, Note_on_c, 0, 66, 0
3, 8190, Note_on_c, 0, 68, 45
3, 8205, Note_on_c, 0, 68, 0
3, 8205, Note_on_c, 0, 69, 45
3, 8220, Note_on_c, 0, 69, 0
3, 8220, Note_on_c, 0, 68, 45
3, 8235, Note_on_c, 0, 68, 0
3, 8235, Note_on_c, 0, 66, 48
3, 8250, Note_on_c, 0, 66, 0
3, 8250, Note_on_c, 0, 64, 51
3, 8268, Note_on_c, 0, 64, 0
3, 8280, Note_on_c, 0, 71, 58
3, 8295, Note_on_c, 0, 71, 0
3, 8295, Note_on_c, 0, 69, 61
3, 8310, Note_on_c, 0, 69, 0
3, 8310, Note_on_c, 0, 68, 64
3, 8328, Note_on_c, 0, 68, 0
3, 8340, Note_on_c, 0, 76, 64
3, 8610, Note_on_c, 0, 76, 0
3, 8610, Note_on_c, 0, 78, 62
3, 8625, Note_on_c, 0, 78, 0
3, 8625, Note_on_c, 0, 76, 61
3, 8640, Note_on_c, 0, 76, 0
3, 8640, Note_on_c, 0, 75, 60
3, 8655, Note_on_c, 0, 75, 0
3, 8655, Note_on_c, 0, 73, 59
3, 8670, Note_on_c, 0, 73, 0
3, 8670, Note_on_c, 0, 71, 58
3, 8715, Note_on_c, 0, 71, 0
3, 8715, Note_on_c, 0, 76, 56
3, 8730, Note_on_c, 0, 76, 0
3, 8730, Note_on_c, 0, 75, 55
3, 8745, Note_on_c, 0, 75, 0
3, 8745, Note_on_c, 0, 73, 54
3, 8760, Note_on_c, 0, 73, 0
3, 8760, Note_on_c, 0, 71, 53
3, 8775, Note_on_c, 0, 71, 0
3, 8775, Note_on_c, 0, 69, 52
3, 8790, Note_on_c, 0, 69, 0
3, 8790, Note_on_c, 0, 68, 51
3, 8805, Note_on_c, 0, 68, 0
3, 8805, Note_on_c, 0, 66, 50
3, 8820, Note_on_c, 0, 66, 0
3, 8820, Note_on_c, 0, 68, 50
3, 8835, Note_on_c, 0, 68, 0
3, 8835, Note_on_c, 0, 66, 51
3, 8850, Note_on_c, 0, 66, 0
3, 8850, Note_on_c, 0, 64, 53
3, 8868, Note_on_c, 0, 64, 0
3, 8880, Note_on_c, 0, 71, 55
3, 8895, Note_on_c, 0, 71, 0
3, 8895, Note_on_c, 0, 69, 56
3, 8910, Note_on_c, 0, 69, 0
3, 8910, Note_on_c, 0, 68, 58
3, 8928, Note_on_c, 0, 68, 0
3, 8940, Note_on_c, 0, 69, 60
3, 8955, Note_on_c, 0, 69, 0
3, 8955, Note_on_c, 0, 68, 61
3, 8970, Note_on_c, 0, 68, 0
3, 8970, Note_on_c, 0, 66, 63
3, 8988, Note_on_c, 0, 66, 0
3, 9000, Note_on_c, 0, 75, 65
3, 9015, Note_on_c, 0, 75, 0
3, 9015, Note_on_c, 0, 73, 66
3, 9030, Note_on_c, 0, 73, 0
3, 9030, Note_on_c, 0, 71, 68
3, 9048, Note_on_c, 0, 71, 0
3, 9060, Note_on_c, 0, 76, 70
3, 9120, Note_on_c, 0, 76, 0
3, 9720, Note_on_c, 0, 71, 64
3, 9755, Note_on_c, 0, 71, 0
3, 9780, Note_on_c, 0, 76, 64
3, 9870, Note_on_c, 0, 76, 0
3, 9870, Note_on_c, 0, 78, 64
3, 9885, Note_on_c, 0, 78, 0
3, 9885, Note_on_c, 0, 80, 64
3, 9900, Note_on_c, 0, 80, 0
3, 9900, Note_on_c, 0, 78, 64
3, 9930, Note_on_c, 0, 78, 0
3, 9930, Note_on_c, 0, 80, 64
3, 9960, Note_on_c, 0, 80, 0
3, 9960, Note_on_c, 0, 78, 64
3, 9990, Note_on_c, 0, 78, 0
3, 9990, Note_on_c, 0, 75, 64
3, 10020, Note_on_c, 0, 75, 0
3, 10020, Note_on_c, 0, 76, 64
3, 10055, Note_on_c, 0, 76, 0
3, 10080, Note_on_c, 0, 75, 64
3, 10110, Note_on_c, 0, 75, 0
3, 10110, Note_on_c, 0, 73, 64
3, 10140, Note_on_c, 0, 73, 0
3, 10140, Note_on_c, 0, 71, 64
3, 10200, Note_on_c, 0, 71, 0
3, 10200, Note_on_c, 0, 73, 64
3, 10230, Note_on_c, 0, 73, 0
3, 10230, Note_on_c, 0, 71, 64
3, 10260, Note_on_c, 0, 71, 0
3, 10260, Note_on_c, 0, 69, 64
3, 10290, Note_on_c, 0, 69, 0
3, 10290, Note_on_c, 0, 68, 64
3, 10308, Note_on_c, 0, 68, 0
3, 10320, Note_on_c, 0, 66, 64
3, 10350, Note_on_c, 0, 66, 0
3, 10350, Note_on_c, 0, 64, 64
3, 10368, Note_on_c, 0, 64, 0
3, 10380, Note_on_c, 0, 69, 64
3, 10415, Note_on_c, 0, 69, 0
3, 10440, Note_on_c, 0, 68, 64
3, 10475, Note_on_c, 0, 68, 0
3, 10500, Note_on_c, 0, 66, 64
3, 10571, Note_on_c, 0, 66, 0
3, 10680, Note_on_c, 0, 71, 40
3, 10740, Note_on_c, 0, 71, 0
3, 10740, Note_on_c, 0, 73, 40
3, 10758, Note_on_c, 0, 73, 0
3, 10770, Note_on_c, 0, 69, 40
3, 10830, Note_on_c, 0, 69, 0
3, 10830, Note_on_c, 0, 71, 40
3, 10845, Note_on_c, 0, 71, 0
3, 10845, Note_on_c, 0, 73, 40
3, 10860, Note_on_c, 0, 73, 0
3, 10860, Note_on_c, 0, 71, 40
3, 10878, Note_on_c, 0, 71, 0
3, 10890, Note_on_c, 0, 68, 40
3, 10950, Note_on_c, 0, 68, 0
3, 10950, Note_on_c, 0, 69, 40
3, 10965, Note_on_c, 0, 69, 0
3, 10965, Note_on_c, 0, 71, 40
3, 10980, Note_on_c, 0, 71, 0
3, 10980, Note_on_c, 0, 69, 40
3, 10998, Note_on_c, 0, 69, 0
3, 11010, Note_on_c, 0, 66, 40
3, 11070, Note_on_c, 0, 66, 0
3, 11070, Note_on_c, 0, 68, 40
3, 11085, Note_on_c, 0, 68, 0
3, 11085, Note_on_c, 0, 69, 40
3, 11100, Note_on_c, 0, 69, 0
3, 11100, Note_on_c, 0, 68, 40
3, 11115, Note_on_c, 0, 68, 0
3, 11115, Note_on_c, 0, 66, 40
3, 11130, Note_on_c, 0, 66, 0
3, 11130, Note_on_c, 0, 64, 40
3, 11148, Note_on_c, 0, 64, 0
3, 11160, Note_on_c, 0, 71, 40
3, 11175, Note_on_c, 0, 71, 0
3, 11175, Note_on_c, 0, 69, 40
3, 11190, Note_on_c, 0, 69, 0
3, 11190, Note_on_c, 0, 68, 40
3, 11208, Note_on_c, 0, 68, 0
3, 11220, Note_on_c, 0, 76, 64
3, 11490, Note_on_c, 0, 76, 0
3, 11490, Note_on_c, 0, 78, 59
3, 11505, Note_on_c, 0, 78, 0
3, 11505, Note_on_c, 0, 76, 57
3, 11520, Note_on_c, 0, 76, 0
3, 11520, Note_on_c, 0, 75, 55
3, 11535, Note_on_c, 0, 75, 0
3, 11535, Note_on_c, 0, 73, 53
3, 11550, Note_on_c, 0, 73, 0
3, 11550, Note_on_c, 0, 71, 50
3, 11610, Note_on_c, 0, 71, 0
3, 11610, Note_on_c, 0, 73, 41
3, 11625, Note_on_c, 0, 73, 0
3, 11625, Note_on_c, 0, 71, 39
3, 11640, Note_on_c, 0, 71, 0
3, 11640, Note_on_c, 0, 69, 37
3, 11655, Note_on_c, 0, 69, 0
3, 11655, Note_on_c, 0, 68, 35
3, 11670, Note_on_c, 0, 68, 0
3, 11670, Note_on_c, 0, 66, 32
3, 11685, Note_on_c, 0, 66, 0
3, 11685, Note_on_c, 0, 64, 30
3, 11700, Note_on_c, 0, 64, 0
3, 11700, Note_on_c, 0, 73, 40
3, 11715, Note_on_c, 0, 73, 0
3, 11715, Note_on_c, 0, 71, 41
3, 11730, Note_on_c, 0, 71, 0
3, 11730, Note_on_c, 0, 69, 43
3, 11748, Note_on_c, 0, 69, 0
3, 11760, Note_on_c, 0, 75, 46
3, 11775, Note_on_c, 0, 75, 0
3, 11775, Note_on_c, 0, 73, 47
3, 11790, Note_on_c, 0, 73, 0
3, 11790, Note_on_c, 0, 71, 48
3, 11808, Note_on_c, 0, 71, 0
3, 11820, Note_on_c, 0, 76, 51
3, 11835, Note_on_c, 0, 76, 0
3, 11835, Note_on_c, 0, 75, 53
3, 11844, Note_on_c, 0, 75, 0
3, 11850, Note_on_c, 0, 73, 54
3, 11880, Note_on_c, 0, 73, 0
3, 11880, Note_on_c, 0, 78, 57
3, 11895, Note_on_c, 0, 78, 0
3, 11895, Note_on_c, 0, 76, 58
3, 11910, Note_on_c, 0, 76, 0
3, 11910, Note_on_c, 0, 75, 60
3, 11928, Note_on_c, 0, 75, 0
3, 11940, Note_on_c, 0, 80, 63
3, 11955, Note_on_c, 0, 80, 0
3, 11955, Note_on_c, 0, 78, 64
3, 11970, Note_on_c, 0, 78, 0
3, 11970, Note_on_c, 0, 76, 65
3, 11988, Note_on_c, 0, 76, 0
3, 12000, Note_on_c, 0, 81, 68
3, 12015, Note_on_c, 0, 81, 0
3, 12015, Note_on_c, 0, 80, 70
3, 12030, Note_on_c, 0, 80, 0
3, 12030, Note_on_c, 0, 78, 71
3, 12048, Note_on_c, 0, 78, 0
3, 12060, Note_on_c, 0, 83, 74
3, 12075, Note_on_c, 0, 83, 0
3, 12075, Note_on_c, 0, 81, 75
3, 12090, Note_on_c, 0, 81, 0
3, 12090, Note_on_c, 0, 80, 77
3, 12108, Note_on_c, 0, 80, 0
3, 12120, Note_on_c, 0, 85, 79
3, 12135, Note_on_c, 0, 85, 0
3, 12135, Note_on_c, 0, 83, 81
3, 12150, Note_on_c, 0, 83, 0
3, 12150, Note_on_c, 0, 81, 82
3, 12168, Note_on_c, 0, 81, 0
3, 12180, Note_on_c, 0, 87, 85
3, 12195, Note_on_c, 0, 87, 0
3, 12195, Note_on_c, 0, 85, 86
3, 12210, Note_on_c, 0, 85, 0
3, 12210, Note_on_c, 0, 83, 88
3, 12228, Note_on_c, 0, 83, 0
3, 12240, Note_on_c, 0, 88, 90
3, 12270, Note_on_c, 0, 88, 0
3, 12270, Note_on_c, 0, 87, 80
3, 12285, Note_on_c, 0, 87, 0
3, 12285, Note_on_c, 0, 85, 78
3, 12300, Note_on_c, 0, 85, 0
3, 12300, Note_on_c, 0, 83, 77
3, 12330, Note_on_c, 0, 83, 0
3, 12330, Note_on_c, 0, 81, 74
3, 12345, Note_on_c, 0, 81, 0
3, 12345, Note_on_c, 0, 80, 72
3, 12360, Note_on_c, 0, 80, 0
3, 12360, Note_on_c, 0, 81, 70
3, 12390, Note_on_c, 0, 81, 0
3, 12390, Note_on_c, 0, 80, 67
3, 12405, Note_on_c, 0, 80, 0
3, 12405, Note_on_c, 0, 78, 66
3, 12420, Note_on_c, 0, 78, 0
3, 12420, Note_on_c, 0, 76, 64
3, 12442, Control_c, 0, 7, 127
3, 12540, Note_on_c, 0, 76, 0
3, 12600, Note_on_c, 0, 62, 30
3, 12660, Note_on_c, 0, 62, 0
3, 12660, Note_on_c, 0, 61, 35
3, 12690, Note_on_c, 0, 61, 0
3, 12690, Note_on_c, 0, 57, 36
3, 12720, Note_on_c, 0, 57, 0
3, 12720, Note_on_c, 0, 57, 36
3, 12725, Note_on_c, 0, 57, 0
3, 12725, Note_on_c, 0, 59, 36
3, 12729, Note_on_c, 0, 59, 0
3, 12729, Note_on_c, 0, 57, 36
3, 12735, Note_on_c, 0, 57, 0
3, 12735, Note_on_c, 0, 56, 37
3, 12750, Note_on_c, 0, 56, 0
3, 12750, Note_on_c, 0, 57, 37
3, 12780, Note_on_c, 0, 57, 0
3, 12780, Note_on_c, 0, 57, 37
3, 12795, Note_on_c, 0, 57, 0
3, 12795, Note_on_c, 0, 63, 38
3, 12810, Note_on_c, 0, 63, 0
3, 12810, Note_on_c, 0, 71, 38
3, 12855, Note_on_c, 0, 71, 0
3, 12855, Note_on_c, 0, 69, 39
3, 12870, Note_on_c, 0, 69, 0
3, 12870, Note_on_c, 0, 68, 39
3, 12885, Note_on_c, 0, 68, 0
3, 12885, Note_on_c, 0, 66, 40
3, 12900, Note_on_c, 0, 66, 0
3, 12900, Note_on_c, 0, 64, 40
3, 12930, Note_on_c, 0, 64, 0
3, 12930, Note_on_c, 0, 57, 40
3, 12960, Note_on_c, 0, 57, 0
3, 12960, Note_on_c, 0, 57, 41
3, 12965, Note_on_c, 0, 57, 0
3, 12965, Note_on_c, 0, 59, 41
3, 12969, Note_on_c, 0, 59, 0
3, 12969, Note_on_c, 0, 57, 41
3, 12975, Note_on_c, 0, 57, 0
3, 12975, Note_on_c, 0, 56, 41
3, 12990, Note_on_c, 0, 56, 0
3, 12990, Note_on_c, 0, 57, 42
3, 13020, Note_on_c, 0, 57, 0
3, 13020, Note_on_c, 0, 57, 42
3, 13035, Note_on_c, 0, 57, 0
3, 13035, Note_on_c, 0, 66, 43
3, 13050, Note_on_c, 0, 66, 0
3, 13050, Note_on_c, 0, 73, 43
3, 13110, Note_on_c, 0, 73, 0
3, 13110, Note_on_c, 0, 71, 44
3, 13125, Note_on_c, 0, 71, 0
3, 13125, Note_on_c, 0, 69, 44
3, 13140, Note_on_c, 0, 69, 0
3, 13140, Note_on_c, 0, 68, 45
3, 13155, Note_on_c, 0, 68, 0
3, 13155, Note_on_c, 0, 66, 45
3, 13170, Note_on_c, 0, 66, 0
3, 13170, Note_on_c, 0, 64, 45
3, 13200, Note_on_c, 0, 64, 0
3, 13200, Note_on_c, 0, 69, 46
3, 13215, Note_on_c, 0, 69, 0
3, 13215, Note_on_c, 0, 68, 46
3, 13230, Note_on_c, 0, 68, 0
3, 13230, Note_on_c, 0, 66, 47
3, 13260, Note_on_c, 0, 66, 0
3, 13260, Note_on_c, 0, 64, 47
3, 13327, Note_on_c, 0, 64, 0
3, 13327, Note_on_c, 0, 63, 49
3, 13335, Note_on_c, 0, 63, 0
3, 13335, Note_on_c, 0, 64, 49
3, 13342, Note_on_c, 0, 64, 0
3, 13342, Note_on_c, 0, 63, 49
3, 13350, Note_on_c, 0, 63, 0
3, 13350, Note_on_c, 0, 64, 49
3, 13357, Note_on_c, 0, 64, 0
3, 13357, Note_on_c, 0, 63, 49
3, 13365, Note_on_c, 0, 63, 0
3, 13365, Note_on_c, 0, 64, 49
3, 13380, Note_on_c, 0, 64, 0
3, 13380, Note_on_c, 0, 64, 50
3, 13410, Note_on_c, 0, 64, 0
3, 13410, Note_on_c, 0, 70, 50
3, 13425, Note_on_c, 0, 70, 0
3, 13425, Note_on_c, 0, 71, 51
3, 13440, Note_on_c, 0, 71, 0
3, 13440, Note_on_c, 0, 73, 51
3, 13470, Note_on_c, 0, 73, 0
3, 13470, Note_on_c, 0, 73, 51
3, 13485, Note_on_c, 0, 73, 0
3, 13485, Note_on_c, 0, 75, 52
3, 13500, Note_on_c, 0, 75, 0
3, 13500, Note_on_c, 0, 76, 52
3, 13530, Note_on_c, 0, 76, 0
3, 13530, Note_on_c, 0, 76, 53
3, 13545, Note_on_c, 0, 76, 0
3, 13545, Note_on_c, 0, 78, 53
3, 13560, Note_on_c, 0, 78, 0
3, 13560, Note_on_c, 0, 79, 53
3, 13635, Note_on_c, 0, 79, 0
3, 13635, Note_on_c, 0, 78, 55
3, 13650, Note_on_c, 0, 78, 0
3, 13650, Note_on_c, 0, 76, 55
3, 13665, Note_on_c, 0, 76, 0
3, 13665, Note_on_c, 0, 75, 55
3, 13680, Note_on_c, 0, 75, 0
3, 13680, Note_on_c, 0, 76, 56
3, 13695, Note_on_c, 0, 76, 0
3, 13695, Note_on_c, 0, 79, 56
3, 13710, Note_on_c, 0, 79, 0
3, 13710, Note_on_c, 0, 70, 56
3, 13755, Note_on_c, 0, 70, 0
3, 13755, Note_on_c, 0, 71, 57
3, 13770, Note_on_c, 0, 71, 0
3, 13770, Note_on_c, 0, 73, 58
3, 13785, Note_on_c, 0, 73, 0
3, 13785, Note_on_c, 0, 71, 58
3, 13800, Note_on_c, 0, 71, 0
3, 13800, Note_on_c, 0, 70, 58
3, 13815, Note_on_c, 0, 70, 0
3, 13815, Note_on_c, 0, 67, 59
3, 13830, Note_on_c, 0, 67, 0
3, 13830, Note_on_c, 0, 66, 59
3, 13845, Note_on_c, 0, 66, 0
3, 13845, Note_on_c, 0, 64, 59
3, 13860, Note_on_c, 0, 64, 0
3, 13860, Note_on_c, 0, 63, 59
3, 13875, Note_on_c, 0, 63, 0
3, 13875, Note_on_c, 0, 71, 60
3, 13890, Note_on_c, 0, 71, 0
3, 13890, Note_on_c, 0, 69, 60
3, 13905, Note_on_c, 0, 69, 0
3, 13905, Note_on_c, 0, 68, 60
3, 13920, Note_on_c, 0, 68, 0
3, 13920, Note_on_c, 0, 69, 61
3, 13935, Note_on_c, 0, 69, 0
3, 13935, Note_on_c, 0, 75, 61
3, 13950, Note_on_c, 0, 75, 0
3, 13950, Note_on_c, 0, 78, 61
3, 13995, Note_on_c, 0, 78, 0
3, 13995, Note_on_c, 0, 76, 62
3, 14010, Note_on_c, 0, 76, 0
3, 14010, Note_on_c, 0, 75, 62
3, 14025, Note_on_c, 0, 75, 0
3, 14025, Note_on_c, 0, 73, 63
3, 14040, Note_on_c, 0, 73, 0
3, 14040, Note_on_c, 0, 71, 63
3, 14055, Note_on_c, 0, 71, 0
3, 14055, Note_on_c, 0, 69, 63
3, 14070, Note_on_c, 0, 69, 0
3, 14070, Note_on_c, 0, 68, 64
3, 14085, Note_on_c, 0, 68, 0
3, 14085, Note_on_c, 0, 66, 64
3, 14100, Note_on_c, 0, 66, 0
3, 14100, Note_on_c, 0, 68, 64
3, 14115, Note_on_c, 0, 68, 0
3, 14115, Note_on_c, 0, 73, 64
3, 14130, Note_on_c, 0, 73, 0
3, 14130, Note_on_c, 0, 70, 64
3, 14190, Note_on_c, 0, 70, 0
3, 14190, Note_on_c, 0, 71, 64
3, 14205, Note_on_c, 0, 71, 0
3, 14205, Note_on_c, 0, 64, 64
3, 14220, Note_on_c, 0, 64, 0
3, 14220, Note_on_c, 0, 68, 64
3, 14287, Note_on_c, 0, 68, 0
3, 14287, Note_on_c, 0, 66, 64
3, 14295, Note_on_c, 0, 66, 0
3, 14295, Note_on_c, 0, 68, 64
3, 14302, Note_on_c, 0, 68, 0
3, 14302, Note_on_c, 0, 66, 64
3, 14310, Note_on_c, 0, 66, 0
3, 14310, Note_on_c, 0, 68, 64
3, 14317, Note_on_c, 0, 68, 0
3, 14317, Note_on_c, 0, 66, 64
3, 14325, Note_on_c, 0, 66, 0
3, 14325, Note_on_c, 0, 64, 64
3, 14340, Note_on_c, 0, 64, 0
3, 14340, Note_on_c, 0, 64, 64
3, 14358, Note_on_c, 0, 64, 0
3, 14370, Note_on_c, 0, 66, 64
3, 14385, Note_on_c, 0, 66, 0
3, 14385, Note_on_c, 0, 68, 62
3, 14400, Note_on_c, 0, 68, 0
3, 14400, Note_on_c, 0, 69, 59
3, 14415, Note_on_c, 0, 69, 0
3, 14415, Note_on_c, 0, 71, 57
3, 14430, Note_on_c, 0, 71, 0
3, 14430, Note_on_c, 0, 73, 55
3, 14445, Note_on_c, 0, 73, 0
3, 14445, Note_on_c, 0, 75, 52
3, 14460, Note_on_c, 0, 75, 0
3, 14460, Note_on_c, 0, 76, 50
3, 14495, Note_on_c, 0, 76, 0
3, 14760, Note_on_c, 0, 76, 40
3, 14790, Note_on_c, 0, 76, 0
3, 14790, Note_on_c, 0, 78, 40
3, 14805, Note_on_c, 0, 78, 0
3, 14805, Note_on_c, 0, 79, 40
3, 14820, Note_on_c, 0, 79, 0
3, 14820, Note_on_c, 0, 79, 40
3, 14850, Note_on_c, 0, 79, 0
3, 14850, Note_on_c, 0, 78, 40
3, 14868, Note_on_c, 0, 78, 0
3, 15000, Note_on_c, 0, 77, 40
3, 15030, Note_on_c, 0, 77, 0
3, 15030, Note_on_c, 0, 78, 40
3, 15045, Note_on_c, 0, 78, 0
3, 15045, Note_on_c, 0, 80, 40
3, 15060, Note_on_c, 0, 80, 0
3, 15060, Note_on_c, 0, 80, 40
3, 15090, Note_on_c, 0, 80, 0
3, 15090, Note_on_c, 0, 78, 40
3, 15108, Note_on_c, 0, 78, 0
3, 15240, Note_on_c, 0, 75, 40
3, 15270, Note_on_c, 0, 75, 0
3, 15270, Note_on_c, 0, 77, 40
3, 15285, Note_on_c, 0, 77, 0
3, 15285, Note_on_c, 0, 78, 40
3, 15300, Note_on_c, 0, 78, 0
3, 15300, Note_on_c, 0, 78, 40
3, 15330, Note_on_c, 0, 78, 0
3, 15330, Note_on_c, 0, 77, 40
3, 15348, Note_on_c, 0, 77, 0
3, 15600, Note_on_c, 0, 74, 42
3, 15630, Note_on_c, 0, 74, 0
3, 15630, Note_on_c, 0, 73, 43
3, 15648, Note_on_c, 0, 73, 0
3, 15660, Note_on_c, 0, 73, 44
3, 15690, Note_on_c, 0, 73, 0
3, 15690, Note_on_c, 0, 71, 45
3, 15708, Note_on_c, 0, 71, 0
3, 15720, Note_on_c, 0, 71, 46
3, 15750, Note_on_c, 0, 71, 0
3, 15750, Note_on_c, 0, 69, 47
3, 15768, Note_on_c, 0, 69, 0
3, 15780, Note_on_c, 0, 69, 48
3, 15810, Note_on_c, 0, 69, 0
3, 15810, Note_on_c, 0, 68, 48
3, 15828, Note_on_c, 0, 68, 0
3, 15840, Note_on_c, 0, 68, 49
3, 15870, Note_on_c, 0, 68, 0
3, 15870, Note_on_c, 0, 69, 50
3, 15888, Note_on_c, 0, 69, 0
3, 15900, Note_on_c, 0, 69, 51
3, 15930, Note_on_c, 0, 69, 0
3, 15930, Note_on_c, 0, 70, 52
3, 15948, Note_on_c, 0, 70, 0
3, 15960, Note_on_c, 0, 70, 53
3, 15990, Note_on_c, 0, 70, 0
3, 15990, Note_on_c, 0, 71, 54
3, 16008, Note_on_c, 0, 71, 0
3, 16020, Note_on_c, 0, 71, 55
3, 16050, Note_on_c, 0, 71, 0
3, 16050, Note_on_c, 0, 70, 56
3, 16068, Note_on_c, 0, 70, 0
3, 16080, Note_on_c, 0, 70, 57
3, 16110, Note_on_c, 0, 70, 0
3, 16110, Note_on_c, 0, 71, 58
3, 16128, Note_on_c, 0, 71, 0
3, 16140, Note_on_c, 0, 71, 59
3, 16170, Note_on_c, 0, 71, 0
3, 16170, Note_on_c, 0, 73, 60
3, 16188, Note_on_c, 0, 73, 0
3, 16200, Note_on_c, 0, 73, 61
3, 16230, Note_on_c, 0, 73, 0
3, 16230, Note_on_c, 0, 74, 62
3, 16248, Note_on_c, 0, 74, 0
3, 16260, Note_on_c, 0, 74, 63
3, 16290, Note_on_c, 0, 74, 0
3, 16290, Note_on_c, 0, 76, 63
3, 16308, Note_on_c, 0, 76, 0
3, 16320, Note_on_c, 0, 76, 64
3, 16350, Note_on_c, 0, 76, 0
3, 16350, Note_on_c, 0, 74, 65
3, 16368, Note_on_c, 0, 74, 0
3, 16380, Note_on_c, 0, 74, 66
3, 16410, Note_on_c, 0, 74, 0
3, 16410, Note_on_c, 0, 73, 67
3, 16428, Note_on_c, 0, 73, 0
3, 16440, Note_on_c, 0, 73, 68
3, 16470, Note_on_c, 0, 73, 0
3, 16470, Note_on_c, 0, 78, 69
3, 16488, Note_on_c, 0, 78, 0
3, 16500, Note_on_c, 0, 78, 70
3, 16530, Note_on_c, 0, 78, 0
3, 16530, Note_on_c, 0, 81, 70
3, 16548, Note_on_c, 0, 81, 0
3, 16560, Note_on_c, 0, 81, 70
3, 16590, Note_on_c, 0, 81, 0
3, 16590, Note_on_c, 0, 80, 70
3, 16608, Note_on_c, 0, 80, 0
3, 16620, Note_on_c, 0, 80, 70
3, 16650, Note_on_c, 0, 80, 0
3, 16650, Note_on_c, 0, 78, 70
3, 16668, Note_on_c, 0, 78, 0
3, 16680, Note_on_c, 0, 78, 70
3, 16710, Note_on_c, 0, 78, 0
3, 16710, Note_on_c, 0, 77, 70
3, 16728, Note_on_c, 0, 77, 0
3, 16740, Note_on_c, 0, 77, 70
3, 16775, Note_on_c, 0, 77, 0
3, 17390, Control_c, 0, 7, 127
3, 17400, Note_on_c, 0, 73, 30
3, 17460, Note_on_c, 0, 73, 0
3, 17460, Note_on_c, 0, 74, 34
3, 17478, Note_on_c, 0, 74, 0
3, 17490, Note_on_c, 0, 71, 36
3, 17550, Note_on_c, 0, 71, 0
3, 17550, Note_on_c, 0, 73, 40
3, 17565, Note_on_c, 0, 73, 0
3, 17565, Note_on_c, 0, 74, 41
3, 17580, Note_on_c, 0, 74, 0
3, 17580, Note_on_c, 0, 73, 42
3, 17598, Note_on_c, 0, 73, 0
3, 17610, Note_on_c, 0, 69, 44
3, 17670, Note_on_c, 0, 69, 0
3, 17670, Note_on_c, 0, 71, 48
3, 17685, Note_on_c, 0, 71, 0
3, 17685, Note_on_c, 0, 73, 49
3, 17700, Note_on_c, 0, 73, 0
3, 17700, Note_on_c, 0, 71, 50
3, 17718, Note_on_c, 0, 71, 0
3, 17730, Note_on_c, 0, 68, 52
3, 17790, Note_on_c, 0, 68, 0
3, 17790, Note_on_c, 0, 69, 56
3, 17805, Note_on_c, 0, 69, 0
3, 17805, Note_on_c, 0, 71, 57
3, 17820, Note_on_c, 0, 71, 0
3, 17820, Note_on_c, 0, 69, 58
3, 17835, Note_on_c, 0, 69, 0
3, 17835, Note_on_c, 0, 68, 59
3, 17850, Note_on_c, 0, 68, 0
3, 17850, Note_on_c, 0, 66, 60
3, 17868, Note_on_c, 0, 66, 0
3, 17880, Note_on_c, 0, 73, 62
3, 17895, Note_on_c, 0, 73, 0
3, 17895, Note_on_c, 0, 71, 63
3, 17910, Note_on_c, 0, 71, 0
3, 17910, Note_on_c, 0, 69, 64
3, 17928, Note_on_c, 0, 69, 0
3, 17940, Note_on_c, 0, 78, 64
3, 18210, Note_on_c, 0, 78, 0
3, 18210, Note_on_c, 0, 80, 64
3, 18225, Note_on_c, 0, 80, 0
3, 18225, Note_on_c, 0, 78, 61
3, 18240, Note_on_c, 0, 78, 0
3, 18240, Note_on_c, 0, 77, 59
3, 18255, Note_on_c, 0, 77, 0
3, 18255, Note_on_c, 0, 75, 56
3, 18270, Note_on_c, 0, 75, 0
3, 18270, Note_on_c, 0, 73, 54
3, 18315, Note_on_c, 0, 73, 0
3, 18315, Note_on_c, 0, 74, 46
3, 18330, Note_on_c, 0, 74, 0
3, 18330, Note_on_c, 0, 73, 43
3, 18345, Note_on_c, 0, 73, 0
3, 18345, Note_on_c, 0, 71, 40
3, 18360, Note_on_c, 0, 71, 0
3, 18360, Note_on_c, 0, 69, 38
3, 18375, Note_on_c, 0, 69, 0
3, 18375, Note_on_c, 0, 68, 35
3, 18390, Note_on_c, 0, 68, 0
3, 18390, Note_on_c, 0, 66, 33
3, 18405, Note_on_c, 0, 66, 0
3, 18405, Note_on_c, 0, 64, 30
3, 18420, Note_on_c, 0, 64, 0
3, 18420, Note_on_c, 0, 62, 30
3, 18435, Note_on_c, 0, 62, 0
3, 18435, Note_on_c, 0, 61, 31
3, 18450, Note_on_c, 0, 61, 0
3, 18450, Note_on_c, 0, 59, 33
3, 18468, Note_on_c, 0, 59, 0
3, 18480, Note_on_c, 0, 65, 35
3, 18495, Note_on_c, 0, 65, 0
3, 18495, Note_on_c, 0, 63, 36
3, 18510, Note_on_c, 0, 63, 0
3, 18510, Note_on_c, 0, 61, 38
3, 18528, Note_on_c, 0, 61, 0
3, 18540, Note_on_c, 0, 66, 40
3, 18555, Note_on_c, 0, 66, 0
3, 18555, Note_on_c, 0, 65, 41
3, 18564, Note_on_c, 0, 65, 0
3, 18570, Note_on_c, 0, 63, 43
3, 18600, Note_on_c, 0, 63, 0
3, 18600, Note_on_c, 0, 68, 45
3, 18615, Note_on_c, 0, 68, 0
3, 18615, Note_on_c, 0, 66, 46
3, 18630, Note_on_c, 0, 66, 0
3, 18630, Note_on_c, 0, 65, 48
3, 18648, Note_on_c, 0, 65, 0
3, 18660, Note_on_c, 0, 69, 50
3, 18675, Note_on_c, 0, 69, 0
3, 18675, Note_on_c, 0, 68, 51
3, 18690, Note_on_c, 0, 68, 0
3, 18690, Note_on_c, 0, 66, 53
3, 18708, Note_on_c, 0, 66, 0
3, 18720, Note_on_c, 0, 71, 55
3, 18735, Note_on_c, 0, 71, 0
3, 18735, Note_on_c, 0, 69, 56
3, 18750, Note_on_c, 0, 69, 0
3, 18750, Note_on_c, 0, 68, 58
3, 18768, Note_on_c, 0, 68, 0
3, 18780, Note_on_c, 0, 73, 60
3, 18795, Note_on_c, 0, 73, 0
3, 18795, Note_on_c, 0, 71, 61
3, 18810, Note_on_c, 0, 71, 0
3, 18810, Note_on_c, 0, 69, 63
3, 18828, Note_on_c, 0, 69, 0
3, 18840, Note_on_c, 0, 74, 65
3, 18855, Note_on_c, 0, 74, 0
3, 18855, Note_on_c, 0, 73, 66
3, 18870, Note_on_c, 0, 73, 0
3, 18870, Note_on_c, 0, 71, 68
3, 18888, Note_on_c, 0, 71, 0
3, 18900, Note_on_c, 0, 77, 70
3, 18915, Note_on_c, 0, 77, 0
3, 18915, Note_on_c, 0, 75, 71
3, 18930, Note_on_c, 0, 75, 0
3, 18930, Note_on_c, 0, 73, 73
3, 18948, Note_on_c, 0, 73, 0
3, 18960, Note_on_c, 0, 78, 75
3, 18990, Note_on_c, 0, 78, 0
3, 18990, Note_on_c, 0, 76, 75
3, 19005, Note_on_c, 0, 76, 0
3, 19005, Note_on_c, 0, 74, 74
3, 19020, Note_on_c, 0, 74, 0
3, 19020, Note_on_c, 0, 73, 73
3, 19050, Note_on_c, 0, 73, 0
3, 19050, Note_on_c, 0, 71, 71
3, 19065, Note_on_c, 0, 71, 0
3, 19065, Note_on_c, 0, 69, 69
3, 19080, Note_on_c, 0, 69, 0
3, 19080, Note_on_c, 0, 71, 68
3, 19110, Note_on_c, 0, 71, 0
3, 19110, Note_on_c, 0, 69, 66
3, 19125, Note_on_c, 0, 69, 0
3, 19125, Note_on_c, 0, 68, 65
3, 19140, Note_on_c, 0, 68, 0
3, 19140, Note_on_c, 0, 66, 64
3, 19260, Note_on_c, 0, 66, 0
3, 23160, Note_on_c, 0, 76, 50
3, 23195, Note_on_c, 0, 76, 0
3, 23220, Note_on_c, 0, 81, 50
3, 23310, Note_on_c, 0, 81, 0
3, 23310, Note_on_c, 0, 83, 50
3, 23325, Note_on_c, 0, 83, 0
3, 23325, Note_on_c, 0, 85, 50
3, 23340, Note_on_c, 0, 85, 0
3, 23340, Note_on_c, 0, 83, 50
3, 23370, Note_on_c, 0, 83, 0
3, 23370, Note_on_c, 0, 85, 50
3, 23400, Note_on_c, 0, 85, 0
3, 23400, Note_on_c, 0, 83, 50
3, 23430, Note_on_c, 0, 83, 0
3, 23430, Note_on_c, 0, 80, 50
3, 23460, Note_on_c, 0, 80, 0
3, 23460, Note_on_c, 0, 81, 50
3, 23520, Note_on_c, 0, 81, 0
3, 23520, Note_on_c, 0, 80, 50
3, 23550, Note_on_c, 0, 80, 0
3, 23550, Note_on_c, 0, 78, 50
3, 23580, Note_on_c, 0, 78, 0
3, 23580, Note_on_c, 0, 76, 50
3, 23615, Note_on_c, 0, 76, 0
3, 23640, Note_on_c, 0, 76, 64
3, 23675, Note_on_c, 0, 76, 0
3, 23700, Note_on_c, 0, 74, 64
3, 23730, Note_on_c, 0, 74, 0
3, 23730, Note_on_c, 0, 73, 64
3, 23748, Note_on_c, 0, 73, 0
3, 23760, Note_on_c, 0, 71, 64
3, 23790, Note_on_c, 0, 71, 0
3, 23790, Note_on_c, 0, 69, 64
3, 23808, Note_on_c, 0, 69, 0
3, 23820, Note_on_c, 0, 74, 64
3, 23855, Note_on_c, 0, 74, 0
3, 23880, Note_on_c, 0, 73, 64
3, 23915, Note_on_c, 0, 73, 0
3, 23940, Note_on_c, 0, 71, 64
3, 24011, Note_on_c, 0, 71, 0
3, 24120, Note_on_c, 0, 71, 40
3, 24180, Note_on_c, 0, 71, 0
3, 24180, Note_on_c, 0, 73, 40
3, 24198, Note_on_c, 0, 73, 0
3, 24210, Note_on_c, 0, 69, 40
3, 24270, Note_on_c, 0, 69, 0
3, 24270, Note_on_c, 0, 71, 40
3, 24285, Note_on_c, 0, 71, 0
3, 24285, Note_on_c, 0, 73, 40
3, 24300, Note_on_c, 0, 73, 0
3, 24300, Note_on_c, 0, 71, 40
3, 24318, Note_on_c, 0, 71, 0
3, 24330, Note_on_c, 0, 68, 40
3, 24390, Note_on_c, 0, 68, 0
3, 24390, Note_on_c, 0, 69, 40
3, 24405, Note_on_c, 0, 69, 0
3, 24405, Note_on_c, 0, 71, 40
3, 24420, Note_on_c, 0, 71, 0
3, 24420, Note_on_c, 0, 69, 40
3, 24438, Note_on_c, 0, 69, 0
3, 24450, Note_on_c, 0, 66, 40
3, 24510, Note_on_c, 0, 66, 0
3, 24510, Note_on_c, 0, 68, 40
3, 24525, Note_on_c, 0, 68, 0
3, 24525, Note_on_c, 0, 69, 40
3, 24540, Note_on_c, 0, 69, 0
3, 24540, Note_on_c, 0, 68, 40
3, 24555, Note_on_c, 0, 68, 0
3, 24555, Note_on_c, 0, 66, 40
3, 24570, Note_on_c, 0, 66, 0
3, 24570, Note_on_c, 0, 64, 40
3, 24588, Note_on_c, 0, 64, 0
3, 24600, Note_on_c, 0, 71, 40
3, 24615, Note_on_c, 0, 71, 0
3, 24615, Note_on_c, 0, 69, 40
3, 24630, Note_on_c, 0, 69, 0
3, 24630, Note_on_c, 0, 68, 40
3, 24648, Note_on_c, 0, 68, 0
3, 24660, Note_on_c, 0, 76, 64
3, 24930, Note_on_c, 0, 76, 0
3, 24930, Note_on_c, 0, 78, 64
3, 24945, Note_on_c, 0, 78, 0
3, 24945, Note_on_c, 0, 76, 64
3, 24960, Note_on_c, 0, 76, 0
3, 24960, Note_on_c, 0, 75, 64
3, 24975, Note_on_c, 0, 75, 0
3, 24975, Note_on_c, 0, 73, 64
3, 24990, Note_on_c, 0, 73, 0
3, 24990, Note_on_c, 0, 71, 64
3, 25050, Note_on_c, 0, 71, 0
3, 25050, Note_on_c, 0, 73, 64
3, 25065, Note_on_c, 0, 73, 0
3, 25065, Note_on_c, 0, 71, 64
3, 25080, Note_on_c, 0, 71, 0
3, 25080, Note_on_c, 0, 69, 64
3, 25095, Note_on_c, 0, 69, 0
3, 25095, Note_on_c, 0, 68, 64
3, 25110, Note_on_c, 0, 68, 0
3, 25110, Note_on_c, 0, 66, 64
3, 25125, Note_on_c, 0, 66, 0
3, 25125, Note_on_c, 0, 64, 64
3, 25140, Note_on_c, 0, 64, 0
3, 25140, Note_on_c, 0, 70, 40
3, 25170, Note_on_c, 0, 70, 0
3, 25170, Note_on_c, 0, 71, 40
3, 25188, Note_on_c, 0, 71, 0
3, 25200, Note_on_c, 0, 71, 40
3, 25230, Note_on_c, 0, 71, 0
3, 25230, Note_on_c, 0, 73, 40
3, 25248, Note_on_c, 0, 73, 0
3, 25260, Note_on_c, 0, 66, 40
3, 25278, Note_on_c, 0, 66, 0
3, 25290, Note_on_c, 0, 76, 40
3, 25350, Note_on_c, 0, 76, 0
3, 25350, Note_on_c, 0, 74, 40
3, 25365, Note_on_c, 0, 74, 0
3, 25365, Note_on_c, 0, 73, 40
3, 25380, Note_on_c, 0, 73, 0
3, 25380, Note_on_c, 0, 74, 40
3, 25398, Note_on_c, 0, 74, 0
3, 25410, Note_on_c, 0, 73, 40
3, 25425, Note_on_c, 0, 73, 0
3, 25425, Note_on_c, 0, 71, 40
3, 25440, Note_on_c, 0, 71, 0
3, 25440, Note_on_c, 0, 70, 40
3, 25455, Note_on_c, 0, 70, 0
3, 25455, Note_on_c, 0, 71, 40
3, 25470, Note_on_c, 0, 71, 0
3, 25470, Note_on_c, 0, 73, 40
3, 25530, Note_on_c, 0, 73, 0
3, 25530, Note_on_c, 0, 71, 40
3, 25545, Note_on_c, 0, 71, 0
3, 25545, Note_on_c, 0, 70, 40
3, 25560, Note_on_c, 0, 70, 0
3, 25560, Note_on_c, 0, 71, 40
3, 25575, Note_on_c, 0, 71, 0
3, 25575, Note_on_c, 0, 73, 40
3, 25590, Note_on_c, 0, 73, 0
3, 25590, Note_on_c, 0, 74, 40
3, 25608, Note_on_c, 0, 74, 0
3, 25620, Note_on_c, 0, 68, 40
3, 25650, Note_on_c, 0, 68, 0
3, 25650, Note_on_c, 0, 69, 40
3, 25668, Note_on_c, 0, 69, 0
3, 25680, Note_on_c, 0, 69, 40
3, 25710, Note_on_c, 0, 69, 0
3, 25710, Note_on_c, 0, 71, 40
3, 25728, Note_on_c, 0, 71, 0
3, 25740, Note_on_c, 0, 64, 40
3, 25758, Note_on_c, 0, 64, 0
3, 25770, Note_on_c, 0, 74, 40
3, 25830, Note_on_c, 0, 74, 0
3, 25830, Note_on_c, 0, 73, 40
3, 25845, Note_on_c, 0, 73, 0
3, 25845, Note_on_c, 0, 71, 40
3, 25860, Note_on_c, 0, 71, 0
3, 25860, Note_on_c, 0, 73, 40
3, 25878, Note_on_c, 0, 73, 0
3, 25890, Note_on_c, 0, 71, 40
3, 25905, Note_on_c, 0, 71, 0
3, 25905, Note_on_c, 0, 69, 40
3, 25920, Note_on_c, 0, 69, 0
3, 25920, Note_on_c, 0, 68, 40
3, 25935, Note_on_c, 0, 68, 0
3, 25935, Note_on_c, 0, 69, 40
3, 25950, Note_on_c, 0, 69, 0
3, 25950, Note_on_c, 0, 71, 40
3, 25980, Note_on_c, 0, 71, 0
3, 25980, Note_on_c, 0, 69, 40
3, 26010, Note_on_c, 0, 69, 0
3, 26010, Note_on_c, 0, 67, 40
3, 26025, Note_on_c, 0, 67, 0
3, 26025, Note_on_c, 0, 66, 40
3, 26040, Note_on_c, 0, 66, 0
3, 26040, Note_on_c, 0, 64, 40
3, 26055, Note_on_c, 0, 64, 0
3, 26055, Note_on_c, 0, 66, 40
3, 26070, Note_on_c, 0, 66, 0
3, 26070, Note_on_c, 0, 67, 40
3, 26100, Note_on_c, 0, 67, 0
3, 26100, Note_on_c, 0, 66, 40
3, 26118, Note_on_c, 0, 66, 0
3, 26130, Note_on_c, 0, 62, 40
3, 26190, Note_on_c, 0, 62, 0
3, 26190, Note_on_c, 0, 64, 40
3, 26205, Note_on_c, 0, 64, 0
3, 26205, Note_on_c, 0, 66, 40
3, 26220, Note_on_c, 0, 66, 0
3, 26220, Note_on_c, 0, 64, 40
3, 26238, Note_on_c, 0, 64, 0
3, 26250, Note_on_c, 0, 61, 40
3, 26310, Note_on_c, 0, 61, 0
3, 26310, Note_on_c, 0, 62, 40
3, 26325, Note_on_c, 0, 62, 0
3, 26325, Note_on_c, 0, 64, 40
3, 26340, Note_on_c, 0, 64, 0
3, 26340, Note_on_c, 0, 62, 40
3, 26358, Note_on_c, 0, 62, 0
3, 26370, Note_on_c, 0, 59, 40
3, 26430, Note_on_c, 0, 59, 0
3, 26430, Note_on_c, 0, 61, 40
3, 26445, Note_on_c, 0, 61, 0
3, 26445, Note_on_c, 0, 62, 40
3, 26460, Note_on_c, 0, 62, 0
3, 26460, Note_on_c, 0, 61, 40
3, 26475, Note_on_c, 0, 61, 0
3, 26475, Note_on_c, 0, 59, 40
3, 26490, Note_on_c, 0, 59, 0
3, 26490, Note_on_c, 0, 57, 40
3, 26508, Note_on_c, 0, 57, 0
3, 26520, Note_on_c, 0, 64, 40
3, 26535, Note_on_c, 0, 64, 0
3, 26535, Note_on_c, 0, 62, 40
3, 26550, Note_on_c, 0, 62, 0
3, 26550, Note_on_c, 0, 61, 40
3, 26568, Note_on_c, 0, 61, 0
3, 26580, Note_on_c, 0, 69, 50
3, 26850, Note_on_c, 0, 69, 0
3, 26850, Note_on_c, 0, 83, 64
3, 26865, Note_on_c, 0, 83, 0
3, 26865, Note_on_c, 0, 81, 64
3, 26880, Note_on_c, 0, 81, 0
3, 26880, Note_on_c, 0, 80, 64
3, 26895, Note_on_c, 0, 80, 0
3, 26895, Note_on_c, 0, 78, 64
3, 26910, Note_on_c, 0, 78, 0
3, 26910, Note_on_c, 0, 76, 64
3, 26970, Note_on_c, 0, 76, 0
3, 26970, Note_on_c, 0, 78, 64
3, 26985, Note_on_c, 0, 78, 0
3, 26985, Note_on_c, 0, 76, 64
3, 27000, Note_on_c, 0, 76, 0
3, 27000, Note_on_c, 0, 74, 64
3, 27015, Note_on_c, 0, 74, 0
3, 27015, Note_on_c, 0, 73, 64
3, 27030, Note_on_c, 0, 73, 0
3, 27030, Note_on_c, 0, 71, 64
3, 27045, Note_on_c, 0, 71, 0
3, 27045, Note_on_c, 0, 69, 64
3, 27060, Note_on_c, 0, 69, 0
3, 27060, Note_on_c, 0, 78, 40
3, 27075, Note_on_c, 0, 78, 0
3, 27075, Note_on_c, 0, 76, 41
3, 27090, Note_on_c, 0, 76, 0
3, 27090, Note_on_c, 0, 74, 42
3, 27108, Note_on_c, 0, 74, 0
3, 27120, Note_on_c, 0, 80, 45
3, 27135, Note_on_c, 0, 80, 0
3, 27135, Note_on_c, 0, 78, 46
3, 27150, Note_on_c, 0, 78, 0
3, 27150, Note_on_c, 0, 76, 47
3, 27168, Note_on_c, 0, 76, 0
3, 27180, Note_on_c, 0, 81, 49
3, 27195, Note_on_c, 0, 81, 0
3, 27195, Note_on_c, 0, 80, 50
3, 27204, Note_on_c, 0, 80, 0
3, 27210, Note_on_c, 0, 78, 51
3, 27240, Note_on_c, 0, 78, 0
3, 27240, Note_on_c, 0, 83, 54
3, 27255, Note_on_c, 0, 83, 0
3, 27255, Note_on_c, 0, 81, 55
3, 27270, Note_on_c, 0, 81, 0
3, 27270, Note_on_c, 0, 80, 56
3, 27288, Note_on_c, 0, 80, 0
3, 27300, Note_on_c, 0, 85, 58
3, 27315, Note_on_c, 0, 85, 0
3, 27315, Note_on_c, 0, 83, 59
3, 27330, Note_on_c, 0, 83, 0
3, 27330, Note_on_c, 0, 81, 60
3, 27348, Note_on_c, 0, 81, 0
3, 27360, Note_on_c, 0, 86, 63
3, 27375, Note_on_c, 0, 86, 0
3, 27375, Note_on_c, 0, 85, 64
3, 27390, Note_on_c, 0, 85, 0
3, 27390, Note_on_c, 0, 83, 65
3, 27408, Note_on_c, 0, 83, 0
3, 27420, Note_on_c, 0, 88, 67
3, 27435, Note_on_c, 0, 88, 0
3, 27435, Note_on_c, 0, 86, 68
3, 27450, Note_on_c, 0, 86, 0
3, 27450, Note_on_c, 0, 85, 69
3, 27468, Note_on_c, 0, 85, 0
3, 27480, Note_on_c, 0, 90, 72
3, 27495, Note_on_c, 0, 90, 0
3, 27495, Note_on_c, 0, 88, 73
3, 27510, Note_on_c, 0, 88, 0
3, 27510, Note_on_c, 0, 86, 74
3, 27528, Note_on_c, 0, 86, 0
3, 27540, Note_on_c, 0, 92, 70
3, 27555, Note_on_c, 0, 92, 0
3, 27555, Note_on_c, 0, 90, 70
3, 27570, Note_on_c, 0, 90, 0
3, 27570, Note_on_c, 0, 88, 70
3, 27588, Note_on_c, 0, 88, 0
3, 27600, Note_on_c, 0, 93, 70
3, 27630, Note_on_c, 0, 93, 0
3, 27630, Note_on_c, 0, 92, 70
3, 27645, Note_on_c, 0, 92, 0
3, 27645, Note_on_c, 0, 90, 70
3, 27660, Note_on_c, 0, 90, 0
3, 27660, Note_on_c, 0, 88, 70
3, 27690, Note_on_c, 0, 88, 0
3, 27690, Note_on_c, 0, 86, 70
3, 27705, Note_on_c, 0, 86, 0
3, 27705, Note_on_c, 0, 85, 70
3, 27720, Note_on_c, 0, 85, 0
3, 27720, Note_on_c, 0, 86, 70
3, 27750, Note_on_c, 0, 86, 0
3, 27750, Note_on_c, 0, 85, 70
3, 27765, Note_on_c, 0, 85, 0
3, 27765, Note_on_c, 0, 83, 70
3, 27780, Note_on_c, 0, 83, 0
3, 27780, Note_on_c, 0, 81, 70
3, 27815, Note_on_c, 0, 81, 0
3, 27840, Note_on_c, 0, 69, 70
3, 27850, Control_c, 0, 7, 127
3, 27930, Note_on_c, 0, 69, 0
3, 27930, Note_on_c, 0, 67, 70
3, 27945, Note_on_c, 0, 67, 0
3, 27945, Note_on_c, 0, 66, 70
3, 27960, Note_on_c, 0, 66, 0
3, 27960, Note_on_c, 0, 64, 70
3, 27975, Note_on_c, 0, 64, 0
3, 27975, Note_on_c, 0, 66, 70
3, 27990, Note_on_c, 0, 66, 0
3, 27990, Note_on_c, 0, 67, 70
3, 28008, Note_on_c, 0, 67, 0
3, 28020, Note_on_c, 0, 66, 64
3, 28050, Note_on_c, 0, 66, 0
3, 28050, Note_on_c, 0, 62, 64
3, 28080, Note_on_c, 0, 62, 0
3, 28080, Note_on_c, 0, 62, 64
3, 28085, Note_on_c, 0, 62, 0
3, 28085, Note_on_c, 0, 64, 64
3, 28089, Note_on_c, 0, 64, 0
3, 28089, Note_on_c, 0, 62, 64
3, 28095, Note_on_c, 0, 62, 0
3, 28095, Note_on_c, 0, 61, 64
3, 28110, Note_on_c, 0, 61, 0
3, 28110, Note_on_c, 0, 62, 64
3, 28140, Note_on_c, 0, 62, 0
3, 28140, Note_on_c, 0, 62, 64
3, 28155, Note_on_c, 0, 62, 0
3, 28155, Note_on_c, 0, 68, 64
3, 28170, Note_on_c, 0, 68, 0
3, 28170, Note_on_c, 0, 76, 64
3, 28215, Note_on_c, 0, 76, 0
3, 28215, Note_on_c, 0, 74, 65
3, 28230, Note_on_c, 0, 74, 0
3, 28230, Note_on_c, 0, 73, 65
3, 28245, Note_on_c, 0, 73, 0
3, 28245, Note_on_c, 0, 71, 65
3, 28260, Note_on_c, 0, 71, 0
3, 28260, Note_on_c, 0, 69, 65
3, 28290, Note_on_c, 0, 69, 0
3, 28290, Note_on_c, 0, 62, 65
3, 28320, Note_on_c, 0, 62, 0
3, 28320, Note_on_c, 0, 62, 65
3, 28325, Note_on_c, 0, 62, 0
3, 28325, Note_on_c, 0, 64, 65
3, 28329, Note_on_c, 0, 64, 0
3, 28329, Note_on_c, 0, 62, 65
3, 28335, Note_on_c, 0, 62, 0
3, 28335, Note_on_c, 0, 61, 65
3, 28350, Note_on_c, 0, 61, 0
3, 28350, Note_on_c, 0, 62, 65
3, 28380, Note_on_c, 0, 62, 0
3, 28380, Note_on_c, 0, 62, 65
3, 28395, Note_on_c, 0, 62, 0
3, 28395, Note_on_c, 0, 71, 65
3, 28410, Note_on_c, 0, 71, 0
3, 28410, Note_on_c, 0, 78, 65
3, 28470, Note_on_c, 0, 78, 0
3, 28470, Note_on_c, 0, 76, 65
3, 28485, Note_on_c, 0, 76, 0
3, 28485, Note_on_c, 0, 74, 65
3, 28500, Note_on_c, 0, 74, 0
3, 28500, Note_on_c, 0, 73, 66
3, 28515, Note_on_c, 0, 73, 0
3, 28515, Note_on_c, 0, 71, 66
3, 28530, Note_on_c, 0, 71, 0
3, 28530, Note_on_c, 0, 69, 66
3, 28560, Note_on_c, 0, 69, 0
3, 28560, Note_on_c, 0, 74, 66
3, 28575, Note_on_c, 0, 74, 0
3, 28575, Note_on_c, 0, 73, 66
3, 28590, Note_on_c, 0, 73, 0
3, 28590, Note_on_c, 0, 71, 66
3, 28620, Note_on_c, 0, 71, 0
3, 28620, Note_on_c, 0, 69, 66
3, 28687, Note_on_c, 0, 69, 0
3, 28687, Note_on_c, 0, 68, 66
3, 28695, Note_on_c, 0, 68, 0
3, 28695, Note_on_c, 0, 69, 66
3, 28702, Note_on_c, 0, 69, 0
3, 28702, Note_on_c, 0, 68, 66
3, 28710, Note_on_c, 0, 68, 0
3, 28710, Note_on_c, 0, 69, 66
3, 28717, Note_on_c, 0, 69, 0
3, 28717, Note_on_c, 0, 68, 66
3, 28725, Note_on_c, 0, 68, 0
3, 28725, Note_on_c, 0, 69, 66
3, 28740, Note_on_c, 0, 69, 0
3, 28740, Note_on_c, 0, 69, 66
3, 28770, Note_on_c, 0, 69, 0
3, 28770, Note_on_c, 0, 75, 66
3, 28785, Note_on_c, 0, 75, 0
3, 28785, Note_on_c, 0, 76, 66
3, 28800, Note_on_c, 0, 76, 0
3, 28800, Note_on_c, 0, 78, 66
3, 28830, Note_on_c, 0, 78, 0
3, 28830, Note_on_c, 0, 78, 67
3, 28845, Note_on_c, 0, 78, 0
3, 28845, Note_on_c, 0, 80, 67
3, 28860, Note_on_c, 0, 80, 0
3, 28860, Note_on_c, 0, 81, 67
3, 28890, Note_on_c, 0, 81, 0
3, 28890, Note_on_c, 0, 81, 67
3, 28905, Note_on_c, 0, 81, 0
3, 28905, Note_on_c, 0, 83, 67
3, 28920, Note_on_c, 0, 83, 0
3, 28920, Note_on_c, 0, 84, 67
3, 28995, Note_on_c, 0, 84, 0
3, 28995, Note_on_c, 0, 83, 67
3, 29010, Note_on_c, 0, 83, 0
3, 29010, Note_on_c, 0, 81, 67
3, 29025, Note_on_c, 0, 81, 0
3, 29025, Note_on_c, 0, 80, 67
3, 29040, Note_on_c, 0, 80, 0
3, 29040, Note_on_c, 0, 81, 67
3, 29055, Note_on_c, 0, 81, 0
3, 29055, Note_on_c, 0, 84, 67
3, 29070, Note_on_c, 0, 84, 0
3, 29070, Note_on_c, 0, 75, 67
3, 29115, Note_on_c, 0, 75, 0
3, 29115, Note_on_c, 0, 76, 67
3, 29130, Note_on_c, 0, 76, 0
3, 29130, Note_on_c, 0, 78, 67
3, 29145, Note_on_c, 0, 78, 0
3, 29145, Note_on_c, 0, 76, 68
3, 29160, Note_on_c, 0, 76, 0
3, 29160, Note_on_c, 0, 75, 68
3, 29175, Note_on_c, 0, 75, 0
3, 29175, Note_on_c, 0, 72, 68
3, 29190, Note_on_c, 0, 72, 0
3, 29190, Note_on_c, 0, 71, 68
3, 29205, Note_on_c, 0, 71, 0
3, 29205, Note_on_c, 0, 69, 68
3, 29220, Note_on_c, 0, 69, 0
3, 29220, Note_on_c, 0, 68, 68
3, 29235, Note_on_c, 0, 68, 0
3, 29235, Note_on_c, 0, 76, 68
3, 29250, Note_on_c, 0, 76, 0
3, 29250, Note_on_c, 0, 74, 68
3, 29265, Note_on_c, 0, 74, 0
3, 29265, Note_on_c, 0, 73, 68
3, 29280, Note_on_c, 0, 73, 0
3, 29280, Note_on_c, 0, 74, 68
3, 29295, Note_on_c, 0, 74, 0
3, 29295, Note_on_c, 0, 80, 68
3, 29310, Note_on_c, 0, 80, 0
3, 29310, Note_on_c, 0, 83, 68
3, 29355, Note_on_c, 0, 83, 0
3, 29355, Note_on_c, 0, 81, 68
3, 29370, Note_on_c, 0, 81, 0
3, 29370, Note_on_c, 0, 80, 68
3, 29385, Note_on_c, 0, 80, 0
3, 29385, Note_on_c, 0, 78, 68
3, 29400, Note_on_c, 0, 78, 0
3, 29400, Note_on_c, 0, 76, 68
3, 29415, Note_on_c, 0, 76, 0
3, 29415, Note_on_c, 0, 74, 68
3, 29430, Note_on_c, 0, 74, 0
3, 29430, Note_on_c, 0, 73, 68
3, 29445, Note_on_c, 0, 73, 0
3, 29445, Note_on_c, 0, 71, 68
3, 29460, Note_on_c, 0, 71, 0
3, 29460, Note_on_c, 0, 73, 69
3, 29475, Note_on_c, 0, 73, 0
3, 29475, Note_on_c, 0, 78, 69
3, 29490, Note_on_c, 0, 78, 0
3, 29490, Note_on_c, 0, 75, 69
3, 29550, Note_on_c, 0, 75, 0
3, 29550, Note_on_c, 0, 76, 69
3, 29565, Note_on_c, 0, 76, 0
3, 29565, Note_on_c, 0, 69, 69
3, 29580, Note_on_c, 0, 69, 0
3, 29580, Note_on_c, 0, 73, 69
3, 29640, Note_on_c, 0, 73, 0
3, 29640, Note_on_c, 0, 71, 69
3, 29685, Note_on_c, 0, 71, 0
3, 29685, Note_on_c, 0, 69, 69
3, 29700, Note_on_c, 0, 69, 0
3, 29700, Note_on_c, 0, 69, 69
3, 29940, Note_on_c, 0, 69, 0
3, 30420, End_track
4, 0, Start_track
4, 0, MIDI_port, 0
4, 0, Title_t, "Vln I"
4, 0, Program_c, 1, 49
4, 600, Note_on_c, 1, 76, 64
4, 635, Note_on_c, 1, 76, 0
4, 660, Note_on_c, 1, 74, 64
4, 690, Note_on_c, 1, 74, 0
4, 690, Note_on_c, 1, 73, 64
4, 708, Note_on_c, 1, 73, 0
4, 720, Note_on_c, 1, 71, 64
4, 750, Note_on_c, 1, 71, 0
4, 750, Note_on_c, 1, 69, 64
4, 768, Note_on_c, 1, 69, 0
4, 780, Note_on_c, 1, 74, 64
4, 815, Note_on_c, 1, 74, 0
4, 840, Note_on_c, 1, 73, 64
4, 875, Note_on_c, 1, 73, 0
4, 1560, Note_on_c, 1, 71, 64
4, 1595, Note_on_c, 1, 71, 0
4, 1620, Note_on_c, 1, 73, 64
4, 1638, Note_on_c, 1, 73, 0
4, 1650, Note_on_c, 1, 69, 64
4, 1710, Note_on_c, 1, 69, 0
4, 1710, Note_on_c, 1, 71, 64
4, 1725, Note_on_c, 1, 71, 0
4, 1725, Note_on_c, 1, 73, 64
4, 1740, Note_on_c, 1, 73, 0
4, 1740, Note_on_c, 1, 71, 64
4, 1758, Note_on_c, 1, 71, 0
4, 1770, Note_on_c, 1, 68, 64
4, 1830, Note_on_c, 1, 68, 0
4, 1830, Note_on_c, 1, 69, 64
4, 1845, Note_on_c, 1, 69, 0
4, 1845, Note_on_c, 1, 71, 64
4, 1860, Note_on_c, 1, 71, 0
4, 1860, Note_on_c, 1, 69, 64
4, 1878, Note_on_c, 1, 69, 0
4, 1890, Note_on_c, 1, 66, 64
4, 1950, Note_on_c, 1, 66, 0
4, 1950, Note_on_c, 1, 68, 64
4, 1965, Note_on_c, 1, 68, 0
4, 1965, Note_on_c, 1, 69, 64
4, 1980, Note_on_c, 1, 69, 0
4, 1980, Note_on_c, 1, 68, 64
4, 2015, Note_on_c, 1, 68, 0
4, 2040, Note_on_c, 1, 71, 64
4, 2075, Note_on_c, 1, 71, 0
4, 2100, Note_on_c, 1, 69, 40
4, 2135, Note_on_c, 1, 69, 0
4, 2280, Note_on_c, 1, 69, 49
4, 2315, Note_on_c, 1, 69, 0
4, 2340, Note_on_c, 1, 68, 52
4, 2375, Note_on_c, 1, 68, 0
4, 2520, Note_on_c, 1, 68, 61
4, 2555, Note_on_c, 1, 68, 0
4, 2580, Note_on_c, 1, 66, 64
4, 2615, Note_on_c, 1, 66, 0
4, 2640, Note_on_c, 1, 76, 64
4, 2760, Note_on_c, 1, 76, 0
4, 2760, Note_on_c, 1, 75, 64
4, 2795, Note_on_c, 1, 75, 0
4, 2820, Note_on_c, 1, 76, 64
4, 2850, Note_on_c, 1, 76, 0
4, 2850, Note_on_c, 1, 74, 61
4, 2868, Note_on_c, 1, 74, 0
4, 2880, Note_on_c, 1, 74, 57
4, 2910, Note_on_c, 1, 74, 0
4, 2910, Note_on_c, 1, 73, 54
4, 2928, Note_on_c, 1, 73, 0
4, 2940, Note_on_c, 1, 73, 50
4, 2970, Note_on_c, 1, 73, 0
4, 2970, Note_on_c, 1, 71, 47
4, 2988, Note_on_c, 1, 71, 0
4, 3000, Note_on_c, 1, 71, 43
4, 3030, Note_on_c, 1, 71, 0
4, 3030, Note_on_c, 1, 70, 40
4, 3048, Note_on_c, 1, 70, 0
4, 3060, Note_on_c, 1, 70, 35
4, 3095, Note_on_c, 1, 70, 0
4, 3240, Note_on_c, 1, 73, 35
4, 3275, Note_on_c, 1, 73, 0
4, 3300, Note_on_c, 1, 74, 35
4, 3335, Note_on_c, 1, 74, 0
4, 3480, Note_on_c, 1, 74, 35
4, 3515, Note_on_c, 1, 74, 0
4, 3540, Note_on_c, 1, 68, 35
4, 3575, Note_on_c, 1, 68, 0
4, 3720, Note_on_c, 1, 71, 35
4, 3755, Note_on_c, 1, 71, 0
4, 3780, Note_on_c, 1, 73, 35
4, 3815, Note_on_c, 1, 73, 0
4, 3960, Note_on_c, 1, 64, 35
4, 3995, Note_on_c, 1, 64, 0
4, 4020, Note_on_c, 1, 66, 35
4, 4055, Note_on_c, 1, 66, 0
4, 4140, Note_on_c, 1, 68, 36
4, 4175, Note_on_c, 1, 68, 0
4, 4260, Note_on_c, 1, 69, 38
4, 4295, Note_on_c, 1, 69, 0
4, 4380, Note_on_c, 1, 71, 39
4, 4415, Note_on_c, 1, 71, 0
4, 4560, Note_on_c, 1, 69, 41
4, 4595, Note_on_c, 1, 69, 0
4, 4620, Note_on_c, 1, 71, 41
4, 4655, Note_on_c, 1, 71, 0
4, 4680, Note_on_c, 1, 68, 42
4, 4715, Note_on_c, 1, 68, 0
4, 4740, Note_on_c, 1, 69, 43
4, 4775, Note_on_c, 1, 69, 0
4, 4800, Note_on_c, 1, 72, 43
4, 4835, Note_on_c, 1, 72, 0
4, 4860, Note_on_c, 1, 63, 44
4, 4895, Note_on_c, 1, 63, 0
4, 5040, Note_on_c, 1, 78, 46
4, 5075, Note_on_c, 1, 78, 0
4, 5100, Note_on_c, 1, 69, 46
4, 5135, Note_on_c, 1, 69, 0
4, 5280, Note_on_c, 1, 71, 48
4, 5315, Note_on_c, 1, 71, 0
4, 5340, Note_on_c, 1, 62, 49
4, 5375, Note_on_c, 1, 62, 0
4, 5520, Note_on_c, 1, 69, 64
4, 5555, Note_on_c, 1, 69, 0
4, 5580, Note_on_c, 1, 61, 64
4, 5615, Note_on_c, 1, 61, 0
4, 5640, Note_on_c, 1, 59, 64
4, 5700, Note_on_c, 1, 59, 0
4, 5700, Note_on_c, 1, 57, 64
4, 5880, Note_on_c, 1, 57, 0
4, 5940, Control_c, 1, 7, 100
4, 6000, Note_on_c, 1, 69, 32
4, 6030, Note_on_c, 1, 69, 0
4, 6030, Note_on_c, 1, 68, 32
4, 6048, Note_on_c, 1, 68, 0
4, 6060, Note_on_c, 1, 68, 33
4, 6090, Note_on_c, 1, 68, 0
4, 6090, Note_on_c, 1, 71, 34
4, 6108, Note_on_c, 1, 71, 0
4, 6120, Note_on_c, 1, 71, 35
4, 6150, Note_on_c, 1, 71, 0
4, 6150, Note_on_c, 1, 69, 35
4, 6168, Note_on_c, 1, 69, 0
4, 6180, Note_on_c, 1, 69, 36
4, 6210, Note_on_c, 1, 69, 0
4, 6210, Note_on_c, 1, 73, 37
4, 6228, Note_on_c, 1, 73, 0
4, 6240, Note_on_c, 1, 73, 38
4, 6270, Note_on_c, 1, 73, 0
4, 6270, Note_on_c, 1, 71, 39
4, 6288, Note_on_c, 1, 71, 0
4, 6300, Note_on_c, 1, 71, 39
4, 6330, Note_on_c, 1, 71, 0
4, 6330, Note_on_c, 1, 74, 40
4, 6348, Note_on_c, 1, 74, 0
4, 6360, Note_on_c, 1, 74, 41
4, 6390, Note_on_c, 1, 74, 0
4, 6390, Note_on_c, 1, 73, 42
4, 6408, Note_on_c, 1, 73, 0
4, 6420, Note_on_c, 1, 73, 43
4, 6450, Note_on_c, 1, 73, 0
4, 6450, Note_on_c, 1, 76, 43
4, 6468, Note_on_c, 1, 76, 0
4, 6480, Note_on_c, 1, 76, 44
4, 6510, Note_on_c, 1, 76, 0
4, 6510, Note_on_c, 1, 74, 45
4, 6528, Note_on_c, 1, 74, 0
4, 6540, Note_on_c, 1, 74, 46
4, 6570, Note_on_c, 1, 74, 0
4, 6570, Note_on_c, 1, 78, 46
4, 6588, Note_on_c, 1, 78, 0
4, 6600, Note_on_c, 1, 78, 47
4, 6630, Note_on_c, 1, 78, 0
4, 6630, Note_on_c, 1, 76, 48
4, 6648, Note_on_c, 1, 76, 0
4, 6660, Note_on_c, 1, 76, 49
4, 6935, Note_on_c, 1, 76, 0
4, 6960, Note_on_c, 1, 74, 64
4, 6990, Note_on_c, 1, 74, 0
4, 6990, Note_on_c, 1, 73, 64
4, 7020, Note_on_c, 1, 73, 0
4, 7020, Note_on_c, 1, 74, 64
4, 7055, Note_on_c, 1, 74, 0
4, 7080, Note_on_c, 1, 68, 64
4, 7115, Note_on_c, 1, 68, 0
4, 7140, Note_on_c, 1, 69, 64
4, 7200, Note_on_c, 1, 69, 0
4, 7200, Note_on_c, 1, 64, 64
4, 7235, Note_on_c, 1, 64, 0
4, 7320, Note_on_c, 1, 76, 64
4, 7355, Note_on_c, 1, 76, 0
4, 7380, Note_on_c, 1, 74, 64
4, 7410, Note_on_c, 1, 74, 0
4, 7410, Note_on_c, 1, 73, 64
4, 7428, Note_on_c, 1, 73, 0
4, 7440, Note_on_c, 1, 71, 64
4, 7470, Note_on_c, 1, 71, 0
4, 7470, Note_on_c, 1, 69, 64
4, 7488, Note_on_c, 1, 69, 0
4, 7500, Note_on_c, 1, 74, 64
4, 7535, Note_on_c, 1, 74, 0
4, 7560, Note_on_c, 1, 73, 64
4, 7595, Note_on_c, 1, 73, 0
4, 7620, Note_on_c, 1, 71, 64
4, 7740, Note_on_c, 1, 71, 0
4, 8280, Note_on_c, 1, 71, 64
4, 8315, Note_on_c, 1, 71, 0
4, 8340, Note_on_c, 1, 73, 64
4, 8358, Note_on_c, 1, 73, 0
4, 8370, Note_on_c, 1, 69, 64
4, 8430, Note_on_c, 1, 69, 0
4, 8430, Note_on_c, 1, 71, 64
4, 8445, Note_on_c, 1, 71, 0
4, 8445, Note_on_c, 1, 73, 64
4, 8460, Note_on_c, 1, 73, 0
4, 8460, Note_on_c, 1, 71, 64
4, 8478, Note_on_c, 1, 71, 0
4, 8490, Note_on_c, 1, 68, 64
4, 8550, Note_on_c, 1, 68, 0
4, 8550, Note_on_c, 1, 69, 64
4, 8565, Note_on_c, 1, 69, 0
4, 8565, Note_on_c, 1, 71, 64
4, 8580, Note_on_c, 1, 71, 0
4, 8580, Note_on_c, 1, 69, 64
4, 8598, Note_on_c, 1, 69, 0
4, 8610, Note_on_c, 1, 66, 64
4, 8670, Note_on_c, 1, 66, 0
4, 8670, Note_on_c, 1, 68, 64
4, 8685, Note_on_c, 1, 68, 0
4, 8685, Note_on_c, 1, 69, 64
4, 8700, Note_on_c, 1, 69, 0
4, 8700, Note_on_c, 1, 68, 64
4, 8735, Note_on_c, 1, 68, 0
4, 8880, Note_on_c, 1, 64, 51
4, 8910, Note_on_c, 1, 64, 0
4, 8910, Note_on_c, 1, 63, 51
4, 8928, Note_on_c, 1, 63, 0
4, 8940, Note_on_c, 1, 63, 52
4, 8970, Note_on_c, 1, 63, 0
4, 8970, Note_on_c, 1, 66, 52
4, 8988, Note_on_c, 1, 66, 0
4, 9000, Note_on_c, 1, 66, 53
4, 9030, Note_on_c, 1, 66, 0
4, 9030, Note_on_c, 1, 64, 53
4, 9048, Note_on_c, 1, 64, 0
4, 9060, Note_on_c, 1, 64, 54
4, 9090, Note_on_c, 1, 64, 0
4, 9090, Note_on_c, 1, 68, 54
4, 9108, Note_on_c, 1, 68, 0
4, 9120, Note_on_c, 1, 68, 54
4, 9150, Note_on_c, 1, 68, 0
4, 9150, Note_on_c, 1, 66, 55
4, 9168, Note_on_c, 1, 66, 0
4, 9180, Note_on_c, 1, 66, 55
4, 9210, Note_on_c, 1, 66, 0
4, 9210, Note_on_c, 1, 69, 56
4, 9228, Note_on_c, 1, 69, 0
4, 9240, Note_on_c, 1, 69, 56
4, 9270, Note_on_c, 1, 69, 0
4, 9270, Note_on_c, 1, 68, 57
4, 9288, Note_on_c, 1, 68, 0
4, 9300, Note_on_c, 1, 68, 57
4, 9330, Note_on_c, 1, 68, 0
4, 9330, Note_on_c, 1, 71, 57
4, 9348, Note_on_c, 1, 71, 0
4, 9360, Note_on_c, 1, 71, 58
4, 9390, Note_on_c, 1, 71, 0
4, 9390, Note_on_c, 1, 69, 58
4, 9408, Note_on_c, 1, 69, 0
4, 9420, Note_on_c, 1, 69, 59
4, 9450, Note_on_c, 1, 69, 0
4, 9450, Note_on_c, 1, 73, 59
4, 9468, Note_on_c, 1, 73, 0
4, 9480, Note_on_c, 1, 73, 60
4, 9510, Note_on_c, 1, 73, 0
4, 9510, Note_on_c, 1, 71, 60
4, 9528, Note_on_c, 1, 71, 0
4, 9540, Note_on_c, 1, 71, 61
4, 9815, Note_on_c, 1, 71, 0
4, 9840, Note_on_c, 1, 68, 64
4, 9875, Note_on_c, 1, 68, 0
4, 9900, Note_on_c, 1, 69, 64
4, 9935, Note_on_c, 1, 69, 0
4, 9960, Note_on_c, 1, 66, 64
4, 9995, Note_on_c, 1, 66, 0
4, 10020, Note_on_c, 1, 68, 64
4, 10055, Note_on_c, 1, 68, 0
4, 10080, Note_on_c, 1, 69, 64
4, 10115, Note_on_c, 1, 69, 0
4, 10140, Note_on_c, 1, 71, 64
4, 10175, Note_on_c, 1, 71, 0
4, 10200, Note_on_c, 1, 73, 64
4, 10230, Note_on_c, 1, 73, 0
4, 10230, Note_on_c, 1, 71, 64
4, 10260, Note_on_c, 1, 71, 0
4, 10260, Note_on_c, 1, 69, 64
4, 10290, Note_on_c, 1, 69, 0
4, 10290, Note_on_c, 1, 68, 64
4, 10308, Note_on_c, 1, 68, 0
4, 10320, Note_on_c, 1, 66, 64
4, 10350, Note_on_c, 1, 66, 0
4, 10350, Note_on_c, 1, 64, 64
4, 10368, Note_on_c, 1, 64, 0
4, 10380, Note_on_c, 1, 69, 64
4, 10415, Note_on_c, 1, 69, 0
4, 10440, Note_on_c, 1, 68, 64
4, 10475, Note_on_c, 1, 68, 0
4, 10500, Note_on_c, 1, 66, 64
4, 10620, Note_on_c, 1, 66, 0
4, 11160, Note_on_c, 1, 71, 40
4, 11195, Note_on_c, 1, 71, 0
4, 11220, Note_on_c, 1, 73, 64
4, 11238, Note_on_c, 1, 73, 0
4, 11250, Note_on_c, 1, 69, 64
4, 11310, Note_on_c, 1, 69, 0
4, 11310, Note_on_c, 1, 71, 64
4, 11325, Note_on_c, 1, 71, 0
4, 11325, Note_on_c, 1, 73, 64
4, 11340, Note_on_c, 1, 73, 0
4, 11340, Note_on_c, 1, 71, 64
4, 11358, Note_on_c, 1, 71, 0
4, 11370, Note_on_c, 1, 68, 64
4, 11430, Note_on_c, 1, 68, 0
4, 11430, Note_on_c, 1, 69, 64
4, 11445, Note_on_c, 1, 69, 0
4, 11445, Note_on_c, 1, 71, 64
4, 11460, Note_on_c, 1, 71, 0
4, 11460, Note_on_c, 1, 69, 64
4, 11478, Note_on_c, 1, 69, 0
4, 11490, Note_on_c, 1, 66, 64
4, 11550, Note_on_c, 1, 66, 0
4, 11550, Note_on_c, 1, 68, 64
4, 11565, Note_on_c, 1, 68, 0
4, 11565, Note_on_c, 1, 69, 64
4, 11580, Note_on_c, 1, 69, 0
4, 11580, Note_on_c, 1, 68, 64
4, 11615, Note_on_c, 1, 68, 0
4, 12442, Control_c, 1, 7, 127
4, 12480, Note_on_c, 1, 66, 49
4, 12510, Note_on_c, 1, 66, 0
4, 12510, Note_on_c, 1, 64, 47
4, 12528, Note_on_c, 1, 64, 0
4, 12540, Note_on_c, 1, 64, 46
4, 12570, Note_on_c, 1, 64, 0
4, 12570, Note_on_c, 1, 62, 44
4, 12588, Note_on_c, 1, 62, 0
4, 12600, Note_on_c, 1, 62, 43
4, 12630, Note_on_c, 1, 62, 0
4, 12630, Note_on_c, 1, 61, 41
4, 12648, Note_on_c, 1, 61, 0
4, 12660, Note_on_c, 1, 61, 40
4, 12695, Note_on_c, 1, 61, 0
4, 12780, Note_on_c, 1, 63, 43
4, 12815, Note_on_c, 1, 63, 0
4, 12900, Note_on_c, 1, 64, 45
4, 12935, Note_on_c, 1, 64, 0
4, 13020, Note_on_c, 1, 66, 48
4, 13055, Note_on_c, 1, 66, 0
4, 13200, Note_on_c, 1, 64, 51
4, 13235, Note_on_c, 1, 64, 0
4, 13260, Note_on_c, 1, 66, 53
4, 13295, Note_on_c, 1, 66, 0
4, 13320, Note_on_c, 1, 63, 54
4, 13355, Note_on_c, 1, 63, 0
4, 13380, Note_on_c, 1, 64, 55
4, 13415, Note_on_c, 1, 64, 0
4, 13440, Note_on_c, 1, 67, 56
4, 13475, Note_on_c, 1, 67, 0
4, 13500, Note_on_c, 1, 58, 58
4, 13535, Note_on_c, 1, 58, 0
4, 13680, Note_on_c, 1, 73, 61
4, 13715, Note_on_c, 1, 73, 0
4, 13740, Note_on_c, 1, 64, 63
4, 13775, Note_on_c, 1, 64, 0
4, 13920, Note_on_c, 1, 78, 66
4, 13955, Note_on_c, 1, 78, 0
4, 13980, Note_on_c, 1, 69, 68
4, 14015, Note_on_c, 1, 69, 0
4, 14160, Note_on_c, 1, 76, 70
4, 14195, Note_on_c, 1, 76, 0
4, 14220, Note_on_c, 1, 68, 70
4, 14231, Note_on_c, 1, 68, 0
4, 14280, Note_on_c, 1, 66, 70
4, 14315, Note_on_c, 1, 66, 0
4, 14340, Note_on_c, 1, 64, 70
4, 14510, Control_c, 1, 7, 100
4, 14520, Note_on_c, 1, 64, 0
4, 14640, Note_on_c, 1, 64, 40
4, 14675, Note_on_c, 1, 64, 0
4, 14700, Note_on_c, 1, 62, 40
4, 14735, Note_on_c, 1, 62, 0
4, 14880, Note_on_c, 1, 62, 40
4, 14915, Note_on_c, 1, 62, 0
4, 14940, Note_on_c, 1, 61, 40
4, 14975, Note_on_c, 1, 61, 0
4, 15120, Note_on_c, 1, 73, 40
4, 15155, Note_on_c, 1, 73, 0
4, 15180, Note_on_c, 1, 65, 40
4, 15215, Note_on_c, 1, 65, 0
4, 15360, Note_on_c, 1, 71, 40
4, 15390, Note_on_c, 1, 71, 0
4, 15390, Note_on_c, 1, 69, 40
4, 15408, Note_on_c, 1, 69, 0
4, 15420, Note_on_c, 1, 69, 40
4, 15450, Note_on_c, 1, 69, 0
4, 15450, Note_on_c, 1, 68, 40
4, 15468, Note_on_c, 1, 68, 0
4, 15480, Note_on_c, 1, 68, 40
4, 15510, Note_on_c, 1, 68, 0
4, 15510, Note_on_c, 1, 66, 40
4, 15528, Note_on_c, 1, 66, 0
4, 15540, Note_on_c, 1, 66, 40
4, 15575, Note_on_c, 1, 66, 0
4, 15840, Note_on_c, 1, 65, 49
4, 15870, Note_on_c, 1, 65, 0
4, 15870, Note_on_c, 1, 66, 50
4, 15888, Note_on_c, 1, 66, 0
4, 15900, Note_on_c, 1, 66, 51
4, 15930, Note_on_c, 1, 66, 0
4, 15930, Note_on_c, 1, 61, 52
4, 15948, Note_on_c, 1, 61, 0
4, 15960, Note_on_c, 1, 61, 53
4, 15990, Note_on_c, 1, 61, 0
4, 15990, Note_on_c, 1, 62, 54
4, 16008, Note_on_c, 1, 62, 0
4, 16020, Note_on_c, 1, 62, 55
4, 16050, Note_on_c, 1, 62, 0
4, 16050, Note_on_c, 1, 61, 56
4, 16068, Note_on_c, 1, 61, 0
4, 16080, Note_on_c, 1, 61, 57
4, 16110, Note_on_c, 1, 61, 0
4, 16110, Note_on_c, 1, 62, 58
4, 16128, Note_on_c, 1, 62, 0
4, 16140, Note_on_c, 1, 62, 59
4, 16170, Note_on_c, 1, 62, 0
4, 16170, Note_on_c, 1, 64, 60
4, 16188, Note_on_c, 1, 64, 0
4, 16200, Note_on_c, 1, 64, 61
4, 16230, Note_on_c, 1, 64, 0
4, 16230, Note_on_c, 1, 62, 62
4, 16248, Note_on_c, 1, 62, 0
4, 16260, Note_on_c, 1, 62, 63
4, 16290, Note_on_c, 1, 62, 0
4, 16290, Note_on_c, 1, 70, 63
4, 16308, Note_on_c, 1, 70, 0
4, 16320, Note_on_c, 1, 70, 64
4, 16350, Note_on_c, 1, 70, 0
4, 16350, Note_on_c, 1, 71, 65
4, 16368, Note_on_c, 1, 71, 0
4, 16380, Note_on_c, 1, 71, 66
4, 16410, Note_on_c, 1, 71, 0
4, 16410, Note_on_c, 1, 73, 67
4, 16428, Note_on_c, 1, 73, 0
4, 16440, Note_on_c, 1, 73, 68
4, 16470, Note_on_c, 1, 73, 0
4, 16470, Note_on_c, 1, 75, 69
4, 16488, Note_on_c, 1, 75, 0
4, 16500, Note_on_c, 1, 75, 70
4, 16530, Note_on_c, 1, 75, 0
4, 16530, Note_on_c, 1, 78, 70
4, 16548, Note_on_c, 1, 78, 0
4, 16560, Note_on_c, 1, 78, 70
4, 16590, Note_on_c, 1, 78, 0
4, 16590, Note_on_c, 1, 77, 70
4, 16608, Note_on_c, 1, 77, 0
4, 16620, Note_on_c, 1, 77, 70
4, 16650, Note_on_c, 1, 77, 0
4, 16650, Note_on_c, 1, 75, 70
4, 16668, Note_on_c, 1, 75, 0
4, 16680, Note_on_c, 1, 75, 70
4, 16710, Note_on_c, 1, 75, 0
4, 16710, Note_on_c, 1, 73, 70
4, 16728, Note_on_c, 1, 73, 0
4, 16740, Note_on_c, 1, 73, 70
4, 16775, Note_on_c, 1, 73, 0
4, 17390, Control_c, 1, 7, 127
4, 17880, Note_on_c, 1, 69, 64
4, 17915, Note_on_c, 1, 69, 0
4, 17940, Note_on_c, 1, 71, 64
4, 17958, Note_on_c, 1, 71, 0
4, 17970, Note_on_c, 1, 68, 64
4, 18030, Note_on_c, 1, 68, 0
4, 18030, Note_on_c, 1, 69, 64
4, 18045, Note_on_c, 1, 69, 0
4, 18045, Note_on_c, 1, 71, 64
4, 18060, Note_on_c, 1, 71, 0
4, 18060, Note_on_c, 1, 69, 64
4, 18078, Note_on_c, 1, 69, 0
4, 18090, Note_on_c, 1, 66, 64
4, 18150, Note_on_c, 1, 66, 0
4, 18150, Note_on_c, 1, 68, 64
4, 18165, Note_on_c, 1, 68, 0
4, 18165, Note_on_c, 1, 69, 64
4, 18180, Note_on_c, 1, 69, 0
4, 18180, Note_on_c, 1, 68, 64
4, 18198, Note_on_c, 1, 68, 0
4, 18210, Note_on_c, 1, 65, 64
4, 18270, Note_on_c, 1, 65, 0
4, 18270, Note_on_c, 1, 66, 64
4, 18285, Note_on_c, 1, 66, 0
4, 18285, Note_on_c, 1, 68, 64
4, 18300, Note_on_c, 1, 68, 0
4, 18300, Note_on_c, 1, 66, 64
4, 18335, Note_on_c, 1, 66, 0
4, 18360, Note_on_c, 1, 73, 64
4, 18395, Note_on_c, 1, 73, 0
4, 18420, Note_on_c, 1, 71, 40
4, 18455, Note_on_c, 1, 71, 0
4, 18600, Note_on_c, 1, 71, 49
4, 18635, Note_on_c, 1, 71, 0
4, 18660, Note_on_c, 1, 69, 52
4, 18695, Note_on_c, 1, 69, 0
4, 18840, Note_on_c, 1, 69, 61
4, 18875, Note_on_c, 1, 69, 0
4, 18900, Note_on_c, 1, 68, 64
4, 18935, Note_on_c, 1, 68, 0
4, 18960, Note_on_c, 1, 66, 64
4, 19080, Note_on_c, 1, 66, 0
4, 19080, Note_on_c, 1, 65, 64
4, 19115, Note_on_c, 1, 65, 0
4, 19140, Note_on_c, 1, 66, 64
4, 19260, Note_on_c, 1, 66, 0
4, 22280, Control_c, 1, 7, 100
4, 22320, Note_on_c, 1, 69, 42
4, 22350, Note_on_c, 1, 69, 0
4, 22350, Note_on_c, 1, 68, 43
4, 22368, Note_on_c, 1, 68, 0
4, 22380, Note_on_c, 1, 68, 44
4, 22410, Note_on_c, 1, 68, 0
4, 22410, Note_on_c, 1, 71, 45
4, 22428, Note_on_c, 1, 71, 0
4, 22440, Note_on_c, 1, 71, 47
4, 22470, Note_on_c, 1, 71, 0
4, 22470, Note_on_c, 1, 69, 48
4, 22488, Note_on_c, 1, 69, 0
4, 22500, Note_on_c, 1, 69, 49
4, 22530, Note_on_c, 1, 69, 0
4, 22530, Note_on_c, 1, 73, 50
4, 22548, Note_on_c, 1, 73, 0
4, 22560, Note_on_c, 1, 73, 51
4, 22590, Note_on_c, 1, 73, 0
4, 22590, Note_on_c, 1, 71, 52
4, 22608, Note_on_c, 1, 71, 0
4, 22620, Note_on_c, 1, 71, 53
4, 22650, Note_on_c, 1, 71, 0
4, 22650, Note_on_c, 1, 74, 54
4, 22668, Note_on_c, 1, 74, 0
4, 22680, Note_on_c, 1, 74, 55
4, 22710, Note_on_c, 1, 74, 0
4, 22710, Note_on_c, 1, 73, 56
4, 22728, Note_on_c, 1, 73, 0
4, 22740, Note_on_c, 1, 73, 58
4, 22770, Note_on_c, 1, 73, 0
4, 22770, Note_on_c, 1, 76, 59
4, 22788, Note_on_c, 1, 76, 0
4, 22800, Note_on_c, 1, 76, 60
4, 22830, Note_on_c, 1, 76, 0
4, 22830, Note_on_c, 1, 74, 61
4, 22848, Note_on_c, 1, 74, 0
4, 22860, Note_on_c, 1, 74, 62
4, 22890, Note_on_c, 1, 74, 0
4, 22890, Note_on_c, 1, 78, 63
4, 22908, Note_on_c, 1, 78, 0
4, 22920, Note_on_c, 1, 78, 64
4, 22950, Note_on_c, 1, 78, 0
4, 22950, Note_on_c, 1, 76, 65
4, 22968, Note_on_c, 1, 76, 0
4, 22980, Note_on_c, 1, 76, 66
4, 23255, Note_on_c, 1, 76, 0
4, 23280, Note_on_c, 1, 74, 52
4, 23310, Note_on_c, 1, 74, 0
4, 23310, Note_on_c, 1, 73, 53
4, 23340, Note_on_c, 1, 73, 0
4, 23340, Note_on_c, 1, 74, 54
4, 23375, Note_on_c, 1, 74, 0
4, 23400, Note_on_c, 1, 80, 55
4, 23435, Note_on_c, 1, 80, 0
4, 23460, Note_on_c, 1, 81, 57
4, 23520, Note_on_c, 1, 81, 0
4, 23520, Note_on_c, 1, 76, 59
4, 23555, Note_on_c, 1, 76, 0
4, 23640, Note_on_c, 1, 76, 62
4, 23675, Note_on_c, 1, 76, 0
4, 23700, Note_on_c, 1, 74, 64
4, 23730, Note_on_c, 1, 74, 0
4, 23730, Note_on_c, 1, 73, 64
4, 23748, Note_on_c, 1, 73, 0
4, 23760, Note_on_c, 1, 71, 64
4, 23790, Note_on_c, 1, 71, 0
4, 23790, Note_on_c, 1, 69, 64
4, 23808, Note_on_c, 1, 69, 0
4, 23820, Note_on_c, 1, 74, 64
4, 23855, Note_on_c, 1, 74, 0
4, 23880, Note_on_c, 1, 73, 64
4, 23915, Note_on_c, 1, 73, 0
4, 23940, Note_on_c, 1, 71, 64
4, 24060, Note_on_c, 1, 71, 0
4, 24600, Note_on_c, 1, 71, 64
4, 24635, Note_on_c, 1, 71, 0
4, 24660, Note_on_c, 1, 73, 64
4, 24678, Note_on_c, 1, 73, 0
4, 24690, Note_on_c, 1, 69, 64
4, 24750, Note_on_c, 1, 69, 0
4, 24750, Note_on_c, 1, 71, 64
4, 24765, Note_on_c, 1, 71, 0
4, 24765, Note_on_c, 1, 73, 64
4, 24780, Note_on_c, 1, 73, 0
4, 24780, Note_on_c, 1, 71, 64
4, 24798, Note_on_c, 1, 71, 0
4, 24810, Note_on_c, 1, 68, 64
4, 24870, Note_on_c, 1, 68, 0
4, 24870, Note_on_c, 1, 69, 64
4, 24885, Note_on_c, 1, 69, 0
4, 24885, Note_on_c, 1, 71, 64
4, 24900, Note_on_c, 1, 71, 0
4, 24900, Note_on_c, 1, 69, 64
4, 24918, Note_on_c, 1, 69, 0
4, 24930, Note_on_c, 1, 66, 64
4, 24990, Note_on_c, 1, 66, 0
4, 24990, Note_on_c, 1, 68, 64
4, 25005, Note_on_c, 1, 68, 0
4, 25005, Note_on_c, 1, 69, 64
4, 25020, Note_on_c, 1, 69, 0
4, 25020, Note_on_c, 1, 68, 64
4, 25055, Note_on_c, 1, 68, 0
4, 25320, Note_on_c, 1, 76, 40
4, 25355, Note_on_c, 1, 76, 0
4, 25380, Note_on_c, 1, 74, 40
4, 25415, Note_on_c, 1, 74, 0
4, 25800, Note_on_c, 1, 74, 40
4, 25835, Note_on_c, 1, 74, 0
4, 25860, Note_on_c, 1, 73, 40
4, 25895, Note_on_c, 1, 73, 0
4, 26520, Note_on_c, 1, 73, 40
4, 26580, Note_on_c, 1, 73, 0
4, 26580, Note_on_c, 1, 74, 40
4, 26598, Note_on_c, 1, 74, 0
4, 26610, Note_on_c, 1, 71, 40
4, 26670, Note_on_c, 1, 71, 0
4, 26670, Note_on_c, 1, 73, 40
4, 26685, Note_on_c, 1, 73, 0
4, 26685, Note_on_c, 1, 74, 40
4, 26700, Note_on_c, 1, 74, 0
4, 26700, Note_on_c, 1, 73, 40
4, 26718, Note_on_c, 1, 73, 0
4, 26730, Note_on_c, 1, 69, 40
4, 26790, Note_on_c, 1, 69, 0
4, 26790, Note_on_c, 1, 71, 40
4, 26805, Note_on_c, 1, 71, 0
4, 26805, Note_on_c, 1, 73, 40
4, 26820, Note_on_c, 1, 73, 0
4, 26820, Note_on_c, 1, 71, 40
4, 26838, Note_on_c, 1, 71, 0
4, 26850, Note_on_c, 1, 68, 40
4, 26910, Note_on_c, 1, 68, 0
4, 26910, Note_on_c, 1, 69, 40
4, 26925, Note_on_c, 1, 69, 0
4, 26925, Note_on_c, 1, 71, 40
4, 26940, Note_on_c, 1, 71, 0
4, 26940, Note_on_c, 1, 69, 40
4, 26975, Note_on_c, 1, 69, 0
4, 27840, Note_on_c, 1, 61, 70
4, 27850, Control_c, 1, 7, 127
4, 27870, Note_on_c, 1, 61, 0
4, 27870, Note_on_c, 1, 62, 70
4, 27888, Note_on_c, 1, 62, 0
4, 27900, Note_on_c, 1, 62, 70
4, 27930, Note_on_c, 1, 62, 0
4, 27930, Note_on_c, 1, 64, 70
4, 27948, Note_on_c, 1, 64, 0
4, 27960, Note_on_c, 1, 64, 70
4, 27990, Note_on_c, 1, 64, 0
4, 27990, Note_on_c, 1, 66, 70
4, 28008, Note_on_c, 1, 66, 0
4, 28020, Note_on_c, 1, 66, 64
4, 28055, Note_on_c, 1, 66, 0
4, 28140, Note_on_c, 1, 68, 64
4, 28175, Note_on_c, 1, 68, 0
4, 28260, Note_on_c, 1, 69, 65
4, 28295, Note_on_c, 1, 69, 0
4, 28380, Note_on_c, 1, 71, 65
4, 28415, Note_on_c, 1, 71, 0
4, 28560, Note_on_c, 1, 69, 66
4, 28595, Note_on_c, 1, 69, 0
4, 28620, Note_on_c, 1, 71, 66
4, 28655, Note_on_c, 1, 71, 0
4, 28680, Note_on_c, 1, 68, 66
4, 28715, Note_on_c, 1, 68, 0
4, 28740, Note_on_c, 1, 69, 66
4, 28775, Note_on_c, 1, 69, 0
4, 28800, Note_on_c, 1, 72, 66
4, 28835, Note_on_c, 1, 72, 0
4, 28860, Note_on_c, 1, 63, 67
4, 28895, Note_on_c, 1, 63, 0
4, 29040, Note_on_c, 1, 78, 67
4, 29075, Note_on_c, 1, 78, 0
4, 29100, Note_on_c, 1, 69, 67
4, 29135, Note_on_c, 1, 69, 0
4, 29280, Note_on_c, 1, 83, 68
4, 29315, Note_on_c, 1, 83, 0
4, 29340, Note_on_c, 1, 74, 68
4, 29375, Note_on_c, 1, 74, 0
4, 29520, Note_on_c, 1, 81, 69
4, 29555, Note_on_c, 1, 81, 0
4, 29580, Note_on_c, 1, 73, 69
4, 29615, Note_on_c, 1, 73, 0
4, 29640, Note_on_c, 1, 71, 69
4, 29700, Note_on_c, 1, 71, 0
4, 29700, Note_on_c, 1, 69, 69
4, 29940, Note_on_c, 1, 69, 0
4, 30420, End_track
5, 0, Start_track
5, 0, MIDI_port, 0
5, 0, Title_t, "Vln II"
5, 0, Program_c, 2, 49
5, 600, Note_on_c, 2, 71, 64
5, 635, Note_on_c, 2, 71, 0
5, 660, Note_on_c, 2, 69, 64
5, 720, Note_on_c, 2, 69, 0
5, 720, Note_on_c, 2, 64, 64
5, 755, Note_on_c, 2, 64, 0
5, 780, Note_on_c, 2, 68, 64
5, 815, Note_on_c, 2, 68, 0
5, 840, Note_on_c, 2, 69, 64
5, 875, Note_on_c, 2, 69, 0
5, 900, Note_on_c, 2, 68, 64
5, 1020, Note_on_c, 2, 68, 0
5, 1560, Note_on_c, 2, 68, 64
5, 1595, Note_on_c, 2, 68, 0
5, 1620, Note_on_c, 2, 69, 64
5, 1638, Note_on_c, 2, 69, 0
5, 1650, Note_on_c, 2, 66, 64
5, 1710, Note_on_c, 2, 66, 0
5, 1710, Note_on_c, 2, 68, 64
5, 1725, Note_on_c, 2, 68, 0
5, 1725, Note_on_c, 2, 69, 64
5, 1740, Note_on_c, 2, 69, 0
5, 1740, Note_on_c, 2, 68, 64
5, 1758, Note_on_c, 2, 68, 0
5, 1770, Note_on_c, 2, 64, 64
5, 1830, Note_on_c, 2, 64, 0
5, 1830, Note_on_c, 2, 66, 64
5, 1845, Note_on_c, 2, 66, 0
5, 1845, Note_on_c, 2, 68, 64
5, 1860, Note_on_c, 2, 68, 0
5, 1860, Note_on_c, 2, 66, 64
5, 1878, Note_on_c, 2, 66, 0
5, 1890, Note_on_c, 2, 63, 64
5, 1950, Note_on_c, 2, 63, 0
5, 1950, Note_on_c, 2, 64, 64
5, 1965, Note_on_c, 2, 64, 0
5, 1965, Note_on_c, 2, 66, 64
5, 1980, Note_on_c, 2, 66, 0
5, 1980, Note_on_c, 2, 64, 64
5, 2015, Note_on_c, 2, 64, 0
5, 2040, Note_on_c, 2, 64, 64
5, 2075, Note_on_c, 2, 64, 0
5, 2100, Note_on_c, 2, 64, 40
5, 2135, Note_on_c, 2, 64, 0
5, 2280, Note_on_c, 2, 66, 49
5, 2315, Note_on_c, 2, 66, 0
5, 2340, Note_on_c, 2, 64, 52
5, 2375, Note_on_c, 2, 64, 0
5, 2520, Note_on_c, 2, 64, 61
5, 2555, Note_on_c, 2, 64, 0
5, 2580, Note_on_c, 2, 59, 64
5, 2615, Note_on_c, 2, 59, 0
5, 2640, Note_on_c, 2, 71, 64
5, 2675, Note_on_c, 2, 71, 0
5, 2700, Note_on_c, 2, 71, 64
5, 2735, Note_on_c, 2, 71, 0
5, 2760, Note_on_c, 2, 71, 64
5, 2795, Note_on_c, 2, 71, 0
5, 2820, Note_on_c, 2, 71, 64
5, 2940, Note_on_c, 2, 71, 0
5, 3000, Note_on_c, 2, 66, 40
5, 3035, Note_on_c, 2, 66, 0
5, 3060, Note_on_c, 2, 64, 35
5, 3095, Note_on_c, 2, 64, 0
5, 3240, Note_on_c, 2, 70, 35
5, 3275, Note_on_c, 2, 70, 0
5, 3300, Note_on_c, 2, 71, 35
5, 3335, Note_on_c, 2, 71, 0
5, 3480, Note_on_c, 2, 66, 35
5, 3515, Note_on_c, 2, 66, 0
5, 3540, Note_on_c, 2, 64, 35
5, 3575, Note_on_c, 2, 64, 0
5, 3720, Note_on_c, 2, 68, 35
5, 3755, Note_on_c, 2, 68, 0
5, 3780, Note_on_c, 2, 69, 35
5, 3815, Note_on_c, 2, 69, 0
5, 3960, Note_on_c, 2, 61, 35
5, 3995, Note_on_c, 2, 61, 0
5, 4020, Note_on_c, 2, 62, 35
5, 4055, Note_on_c, 2, 62, 0
5, 4140, Note_on_c, 2, 62, 36
5, 4175, Note_on_c, 2, 62, 0
5, 4260, Note_on_c, 2, 62, 38
5, 4295, Note_on_c, 2, 62, 0
5, 4380, Note_on_c, 2, 62, 39
5, 4415, Note_on_c, 2, 62, 0
5, 4560, Note_on_c, 2, 57, 41
5, 4595, Note_on_c, 2, 57, 0
5, 4620, Note_on_c, 2, 66, 41
5, 4655, Note_on_c, 2, 66, 0
5, 4680, Note_on_c, 2, 64, 42
5, 4715, Note_on_c, 2, 64, 0
5, 4740, Note_on_c, 2, 63, 43
5, 4775, Note_on_c, 2, 63, 0
5, 4920, Note_on_c, 2, 64, 44
5, 4955, Note_on_c, 2, 64, 0
5, 4980, Note_on_c, 2, 66, 45
5, 5015, Note_on_c, 2, 66, 0
5, 5160, Note_on_c, 2, 66, 47
5, 5195, Note_on_c, 2, 66, 0
5, 5220, Note_on_c, 2, 64, 48
5, 5255, Note_on_c, 2, 64, 0
5, 5400, Note_on_c, 2, 59, 49
5, 5435, Note_on_c, 2, 59, 0
5, 5460, Note_on_c, 2, 57, 64
5, 5495, Note_on_c, 2, 57, 0
5, 5520, Note_on_c, 2, 57, 64
5, 5555, Note_on_c, 2, 57, 0
5, 5580, Note_on_c, 2, 57, 64
5, 5615, Note_on_c, 2, 57, 0
5, 5640, Note_on_c, 2, 56, 64
5, 5700, Note_on_c, 2, 56, 0
5, 5700, Note_on_c, 2, 57, 64
5, 5880, Note_on_c, 2, 57, 0
5, 5940, Control_c, 2, 7, 100
5, 6240, Note_on_c, 2, 69, 38
5, 6270, Note_on_c, 2, 69, 0
5, 6270, Note_on_c, 2, 68, 39
5, 6288, Note_on_c, 2, 68, 0
5, 6300, Note_on_c, 2, 68, 39
5, 6330, Note_on_c, 2, 68, 0
5, 6330, Note_on_c, 2, 71, 40
5, 6348, Note_on_c, 2, 71, 0
5, 6360, Note_on_c, 2, 71, 41
5, 6390, Note_on_c, 2, 71, 0
5, 6390, Note_on_c, 2, 69, 42
5, 6408, Note_on_c, 2, 69, 0
5, 6420, Note_on_c, 2, 69, 43
5, 6450, Note_on_c, 2, 69, 0
5, 6450, Note_on_c, 2, 73, 43
5, 6468, Note_on_c, 2, 73, 0
5, 6480, Note_on_c, 2, 73, 44
5, 6510, Note_on_c, 2, 73, 0
5, 6510, Note_on_c, 2, 71, 45
5, 6528, Note_on_c, 2, 71, 0
5, 6540, Note_on_c, 2, 71, 46
5, 6570, Note_on_c, 2, 71, 0
5, 6570, Note_on_c, 2, 74, 46
5, 6588, Note_on_c, 2, 74, 0
5, 6600, Note_on_c, 2, 74, 47
5, 6630, Note_on_c, 2, 74, 0
5, 6630, Note_on_c, 2, 73, 48
5, 6648, Note_on_c, 2, 73, 0
5, 6660, Note_on_c, 2, 73, 49
5, 7020, Note_on_c, 2, 73, 0
5, 7020, Note_on_c, 2, 66, 64
5, 7055, Note_on_c, 2, 66, 0
5, 7080, Note_on_c, 2, 71, 64
5, 7115, Note_on_c, 2, 71, 0
5, 7140, Note_on_c, 2, 64, 64
5, 7200, Note_on_c, 2, 64, 0
5, 7200, Note_on_c, 2, 61, 64
5, 7235, Note_on_c, 2, 61, 0
5, 7320, Note_on_c, 2, 71, 64
5, 7355, Note_on_c, 2, 71, 0
5, 7380, Note_on_c, 2, 69, 64
5, 7440, Note_on_c, 2, 69, 0
5, 7440, Note_on_c, 2, 64, 64
5, 7475, Note_on_c, 2, 64, 0
5, 7500, Note_on_c, 2, 68, 64
5, 7535, Note_on_c, 2, 68, 0
5, 7560, Note_on_c, 2, 69, 64
5, 7595, Note_on_c, 2, 69, 0
5, 7620, Note_on_c, 2, 68, 64
5, 7740, Note_on_c, 2, 68, 0
5, 8280, Note_on_c, 2, 68, 64
5, 8315, Note_on_c, 2, 68, 0
5, 8340, Note_on_c, 2, 69, 64
5, 8358, Note_on_c, 2, 69, 0
5, 8370, Note_on_c, 2, 66, 64
5, 8430, Note_on_c, 2, 66, 0
5, 8430, Note_on_c, 2, 68, 64
5, 8445, Note_on_c, 2, 68, 0
5, 8445, Note_on_c, 2, 69, 64
5, 8460, Note_on_c, 2, 69, 0
5, 8460, Note_on_c, 2, 68, 64
5, 8478, Note_on_c, 2, 68, 0
5, 8490, Note_on_c, 2, 64, 64
5, 8550, Note_on_c, 2, 64, 0
5, 8550, Note_on_c, 2, 66, 64
5, 8565, Note_on_c, 2, 66, 0
5, 8565, Note_on_c, 2, 68, 64
5, 8580, Note_on_c, 2, 68, 0
5, 8580, Note_on_c, 2, 66, 64
5, 8598, Note_on_c, 2, 66, 0
5, 8610, Note_on_c, 2, 63, 64
5, 8670, Note_on_c, 2, 63, 0
5, 8670, Note_on_c, 2, 64, 64
5, 8685, Note_on_c, 2, 64, 0
5, 8685, Note_on_c, 2, 66, 64
5, 8700, Note_on_c, 2, 66, 0
5, 8700, Note_on_c, 2, 64, 64
5, 8735, Note_on_c, 2, 64, 0
5, 9120, Note_on_c, 2, 64, 54
5, 9150, Note_on_c, 2, 64, 0
5, 9150, Note_on_c, 2, 63, 55
5, 9168, Note_on_c, 2, 63, 0
5, 9180, Note_on_c, 2, 63, 55
5, 9210, Note_on_c, 2, 63, 0
5, 9210, Note_on_c, 2, 66, 56
5, 9228, Note_on_c, 2, 66, 0
5, 9240, Note_on_c, 2, 66, 56
5, 9270, Note_on_c, 2, 66, 0
5, 9270, Note_on_c, 2, 64, 57
5, 9288, Note_on_c, 2, 64, 0
5, 9300, Note_on_c, 2, 64, 57
5, 9330, Note_on_c, 2, 64, 0
5, 9330, Note_on_c, 2, 68, 57
5, 9348, Note_on_c, 2, 68, 0
5, 9360, Note_on_c, 2, 68, 58
5, 9390, Note_on_c, 2, 68, 0
5, 9390, Note_on_c, 2, 66, 58
5, 9408, Note_on_c, 2, 66, 0
5, 9420, Note_on_c, 2, 66, 59
5, 9450, Note_on_c, 2, 66, 0
5, 9450, Note_on_c, 2, 69, 59
5, 9468, Note_on_c, 2, 69, 0
5, 9480, Note_on_c, 2, 69, 60
5, 9510, Note_on_c, 2, 69, 0
5, 9510, Note_on_c, 2, 68, 60
5, 9528, Note_on_c, 2, 68, 0
5, 9540, Note_on_c, 2, 68, 61
5, 9570, Note_on_c, 2, 68, 0
5, 9570, Note_on_c, 2, 64, 61
5, 9588, Note_on_c, 2, 64, 0
5, 9600, Note_on_c, 2, 64, 61
5, 9630, Note_on_c, 2, 64, 0
5, 9630, Note_on_c, 2, 63, 62
5, 9648, Note_on_c, 2, 63, 0
5, 9660, Note_on_c, 2, 63, 62
5, 9690, Note_on_c, 2, 63, 0
5, 9690, Note_on_c, 2, 66, 63
5, 9708, Note_on_c, 2, 66, 0
5, 9720, Note_on_c, 2, 66, 63
5, 9750, Note_on_c, 2, 66, 0
5, 9750, Note_on_c, 2, 64, 64
5, 9768, Note_on_c, 2, 64, 0
5, 9780, Note_on_c, 2, 64, 64
5, 9815, Note_on_c, 2, 64, 0
5, 9840, Note_on_c, 2, 64, 64
5, 9875, Note_on_c, 2, 64, 0
5, 9900, Note_on_c, 2, 63, 64
5, 9935, Note_on_c, 2, 63, 0
5, 9960, Note_on_c, 2, 66, 64
5, 9995, Note_on_c, 2, 66, 0
5, 10020, Note_on_c, 2, 59, 64
5, 10055, Note_on_c, 2, 59, 0
5, 10080, Note_on_c, 2, 57, 64
5, 10115, Note_on_c, 2, 57, 0
5, 10140, Note_on_c, 2, 56, 64
5, 10175, Note_on_c, 2, 56, 0
5, 10200, Note_on_c, 2, 63, 64
5, 10235, Note_on_c, 2, 63, 0
5, 10260, Note_on_c, 2, 64, 64
5, 10320, Note_on_c, 2, 64, 0
5, 10320, Note_on_c, 2, 59, 64
5, 10355, Note_on_c, 2, 59, 0
5, 10380, Note_on_c, 2, 63, 64
5, 10415, Note_on_c, 2, 63, 0
5, 10440, Note_on_c, 2, 64, 64
5, 10475, Note_on_c, 2, 64, 0
5, 10500, Note_on_c, 2, 63, 64
5, 10620, Note_on_c, 2, 63, 0
5, 11160, Note_on_c, 2, 68, 40
5, 11195, Note_on_c, 2, 68, 0
5, 11220, Note_on_c, 2, 69, 64
5, 11238, Note_on_c, 2, 69, 0
5, 11250, Note_on_c, 2, 66, 64
5, 11310, Note_on_c, 2, 66, 0
5, 11310, Note_on_c, 2, 68, 64
5, 11325, Note_on_c, 2, 68, 0
5, 11325, Note_on_c, 2, 69, 64
5, 11340, Note_on_c, 2, 69, 0
5, 11340, Note_on_c, 2, 68, 64
5, 11358, Note_on_c, 2, 68, 0
5, 11370, Note_on_c, 2, 64, 64
5, 11430, Note_on_c, 2, 64, 0
5, 11430, Note_on_c, 2, 66, 64
5, 11445, Note_on_c, 2, 66, 0
5, 11445, Note_on_c, 2, 68, 64
5, 11460, Note_on_c, 2, 68, 0
5, 11460, Note_on_c, 2, 66, 64
5, 11478, Note_on_c, 2, 66, 0
5, 11490, Note_on_c, 2, 63, 64
5, 11550, Note_on_c, 2, 63, 0
5, 11550, Note_on_c, 2, 64, 64
5, 11565, Note_on_c, 2, 64, 0
5, 11565, Note_on_c, 2, 66, 64
5, 11580, Note_on_c, 2, 66, 0
5, 11580, Note_on_c, 2, 64, 64
5, 11615, Note_on_c, 2, 64, 0
5, 12442, Control_c, 2, 7, 127
5, 12480, Note_on_c, 2, 62, 49
5, 12510, Note_on_c, 2, 62, 0
5, 12510, Note_on_c, 2, 61, 47
5, 12528, Note_on_c, 2, 61, 0
5, 12540, Note_on_c, 2, 61, 46
5, 12570, Note_on_c, 2, 61, 0
5, 12570, Note_on_c, 2, 59, 44
5, 12588, Note_on_c, 2, 59, 0
5, 12600, Note_on_c, 2, 59, 43
5, 12630, Note_on_c, 2, 59, 0
5, 12630, Note_on_c, 2, 57, 41
5, 12648, Note_on_c, 2, 57, 0
5, 12660, Note_on_c, 2, 57, 40
5, 12695, Note_on_c, 2, 57, 0
5, 12780, Note_on_c, 2, 57, 43
5, 12815, Note_on_c, 2, 57, 0
5, 12900, Note_on_c, 2, 57, 45
5, 12935, Note_on_c, 2, 57, 0
5, 13020, Note_on_c, 2, 57, 48
5, 13055, Note_on_c, 2, 57, 0
5, 13200, Note_on_c, 2, 61, 51
5, 13235, Note_on_c, 2, 61, 0
5, 13260, Note_on_c, 2, 61, 53
5, 13295, Note_on_c, 2, 61, 0
5, 13320, Note_on_c, 2, 59, 54
5, 13355, Note_on_c, 2, 59, 0
5, 13380, Note_on_c, 2, 58, 55
5, 13415, Note_on_c, 2, 58, 0
5, 13560, Note_on_c, 2, 59, 59
5, 13595, Note_on_c, 2, 59, 0
5, 13620, Note_on_c, 2, 61, 60
5, 13655, Note_on_c, 2, 61, 0
5, 13800, Note_on_c, 2, 61, 64
5, 13835, Note_on_c, 2, 61, 0
5, 13860, Note_on_c, 2, 59, 65
5, 13895, Note_on_c, 2, 59, 0
5, 14040, Note_on_c, 2, 66, 69
5, 14075, Note_on_c, 2, 66, 0
5, 14100, Note_on_c, 2, 64, 70
5, 14135, Note_on_c, 2, 64, 0
5, 14160, Note_on_c, 2, 64, 70
5, 14195, Note_on_c, 2, 64, 0
5, 14220, Note_on_c, 2, 64, 70
5, 14231, Note_on_c, 2, 64, 0
5, 14280, Note_on_c, 2, 63, 70
5, 14315, Note_on_c, 2, 63, 0
5, 14340, Note_on_c, 2, 64, 70
5, 14510, Control_c, 2, 7, 100
5, 14520, Note_on_c, 2, 64, 0
5, 14640, Note_on_c, 2, 61, 40
5, 14675, Note_on_c, 2, 61, 0
5, 14700, Note_on_c, 2, 59, 40
5, 14735, Note_on_c, 2, 59, 0
5, 14880, Note_on_c, 2, 56, 40
5, 14915, Note_on_c, 2, 56, 0
5, 14940, Note_on_c, 2, 57, 40
5, 14975, Note_on_c, 2, 57, 0
5, 15120, Note_on_c, 2, 61, 40
5, 15155, Note_on_c, 2, 61, 0
5, 15180, Note_on_c, 2, 59, 40
5, 15215, Note_on_c, 2, 59, 0
5, 15360, Note_on_c, 2, 65, 40
5, 15390, Note_on_c, 2, 65, 0
5, 15390, Note_on_c, 2, 66, 40
5, 15408, Note_on_c, 2, 66, 0
5, 15420, Note_on_c, 2, 66, 40
5, 15450, Note_on_c, 2, 66, 0
5, 15450, Note_on_c, 2, 65, 40
5, 15468, Note_on_c, 2, 65, 0
5, 15480, Note_on_c, 2, 65, 40
5, 15510, Note_on_c, 2, 65, 0
5, 15510, Note_on_c, 2, 66, 40
5, 15528, Note_on_c, 2, 66, 0
5, 15540, Note_on_c, 2, 66, 40
5, 15575, Note_on_c, 2, 66, 0
5, 15840, Note_on_c, 2, 59, 49
5, 15870, Note_on_c, 2, 59, 0
5, 15870, Note_on_c, 2, 61, 50
5, 15888, Note_on_c, 2, 61, 0
5, 15900, Note_on_c, 2, 61, 51
5, 15935, Note_on_c, 2, 61, 0
5, 16080, Note_on_c, 2, 61, 57
5, 16110, Note_on_c, 2, 61, 0
5, 16110, Note_on_c, 2, 59, 58
5, 16128, Note_on_c, 2, 59, 0
5, 16140, Note_on_c, 2, 59, 59
5, 16175, Note_on_c, 2, 59, 0
5, 16320, Note_on_c, 2, 61, 64
5, 16350, Note_on_c, 2, 61, 0
5, 16350, Note_on_c, 2, 62, 65
5, 16368, Note_on_c, 2, 62, 0
5, 16380, Note_on_c, 2, 62, 66
5, 16415, Note_on_c, 2, 62, 0
5, 16560, Note_on_c, 2, 72, 70
5, 16590, Note_on_c, 2, 72, 0
5, 16590, Note_on_c, 2, 73, 70
5, 16608, Note_on_c, 2, 73, 0
5, 16620, Note_on_c, 2, 73, 70
5, 16650, Note_on_c, 2, 73, 0
5, 16650, Note_on_c, 2, 75, 70
5, 16668, Note_on_c, 2, 75, 0
5, 16680, Note_on_c, 2, 75, 70
5, 16710, Note_on_c, 2, 75, 0
5, 16710, Note_on_c, 2, 68, 70
5, 16728, Note_on_c, 2, 68, 0
5, 16740, Note_on_c, 2, 68, 70
5, 16775, Note_on_c, 2, 68, 0
5, 17390, Control_c, 2, 7, 127
5, 17880, Note_on_c, 2, 61, 64
5, 17915, Note_on_c, 2, 61, 0
5, 17940, Note_on_c, 2, 62, 64
5, 17958, Note_on_c, 2, 62, 0
5, 17970, Note_on_c, 2, 59, 64
5, 18030, Note_on_c, 2, 59, 0
5, 18030, Note_on_c, 2, 61, 64
5, 18045, Note_on_c, 2, 61, 0
5, 18045, Note_on_c, 2, 62, 64
5, 18060, Note_on_c, 2, 62, 0
5, 18060, Note_on_c, 2, 61, 64
5, 18078, Note_on_c, 2, 61, 0
5, 18090, Note_on_c, 2, 57, 64
5, 18150, Note_on_c, 2, 57, 0
5, 18150, Note_on_c, 2, 59, 64
5, 18165, Note_on_c, 2, 59, 0
5, 18165, Note_on_c, 2, 61, 64
5, 18180, Note_on_c, 2, 61, 0
5, 18180, Note_on_c, 2, 59, 64
5, 18198, Note_on_c, 2, 59, 0
5, 18210, Note_on_c, 2, 56, 64
5, 18270, Note_on_c, 2, 56, 0
5, 18270, Note_on_c, 2, 57, 64
5, 18285, Note_on_c, 2, 57, 0
5, 18285, Note_on_c, 2, 59, 64
5, 18300, Note_on_c, 2, 59, 0
5, 18300, Note_on_c, 2, 57, 64
5, 18335, Note_on_c, 2, 57, 0
5, 18360, Note_on_c, 2, 66, 64
5, 18395, Note_on_c, 2, 66, 0
5, 18420, Note_on_c, 2, 66, 40
5, 18455, Note_on_c, 2, 66, 0
5, 18600, Note_on_c, 2, 68, 49
5, 18635, Note_on_c, 2, 68, 0
5, 18660, Note_on_c, 2, 66, 52
5, 18695, Note_on_c, 2, 66, 0
5, 18840, Note_on_c, 2, 66, 61
5, 18875, Note_on_c, 2, 66, 0
5, 18900, Note_on_c, 2, 61, 64
5, 18935, Note_on_c, 2, 61, 0
5, 18960, Note_on_c, 2, 61, 64
5, 18995, Note_on_c, 2, 61, 0
5, 19020, Note_on_c, 2, 61, 64
5, 19055, Note_on_c, 2, 61, 0
5, 19080, Note_on_c, 2, 61, 64
5, 19115, Note_on_c, 2, 61, 0
5, 19140, Note_on_c, 2, 61, 64
5, 19260, Note_on_c, 2, 61, 0
5, 22280, Control_c, 2, 7, 100
5, 22560, Note_on_c, 2, 69, 51
5, 22590, Note_on_c, 2, 69, 0
5, 22590, Note_on_c, 2, 68, 52
5, 22608, Note_on_c, 2, 68, 0
5, 22620, Note_on_c, 2, 68, 53
5, 22650, Note_on_c, 2, 68, 0
5, 22650, Note_on_c, 2, 71, 54
5, 22668, Note_on_c, 2, 71, 0
5, 22680, Note_on_c, 2, 71, 55
5, 22710, Note_on_c, 2, 71, 0
5, 22710, Note_on_c, 2, 69, 56
5, 22728, Note_on_c, 2, 69, 0
5, 22740, Note_on_c, 2, 69, 58
5, 22770, Note_on_c, 2, 69, 0
5, 22770, Note_on_c, 2, 73, 59
5, 22788, Note_on_c, 2, 73, 0
5, 22800, Note_on_c, 2, 73, 60
5, 22830, Note_on_c, 2, 73, 0
5, 22830, Note_on_c, 2, 71, 61
5, 22848, Note_on_c, 2, 71, 0
5, 22860, Note_on_c, 2, 71, 62
5, 22890, Note_on_c, 2, 71, 0
5, 22890, Note_on_c, 2, 74, 63
5, 22908, Note_on_c, 2, 74, 0
5, 22920, Note_on_c, 2, 74, 64
5, 22950, Note_on_c, 2, 74, 0
5, 22950, Note_on_c, 2, 73, 65
5, 22968, Note_on_c, 2, 73, 0
5, 22980, Note_on_c, 2, 73, 66
5, 23340, Note_on_c, 2, 73, 0
5, 23340, Note_on_c, 2, 66, 54
5, 23375, Note_on_c, 2, 66, 0
5, 23400, Note_on_c, 2, 71, 55
5, 23435, Note_on_c, 2, 71, 0
5, 23460, Note_on_c, 2, 76, 57
5, 23520, Note_on_c, 2, 76, 0
5, 23520, Note_on_c, 2, 73, 59
5, 23555, Note_on_c, 2, 73, 0
5, 23640, Note_on_c, 2, 71, 62
5, 23675, Note_on_c, 2, 71, 0
5, 23700, Note_on_c, 2, 69, 64
5, 23760, Note_on_c, 2, 69, 0
5, 23760, Note_on_c, 2, 64, 64
5, 23795, Note_on_c, 2, 64, 0
5, 23820, Note_on_c, 2, 68, 64
5, 23855, Note_on_c, 2, 68, 0
5, 23880, Note_on_c, 2, 69, 64
5, 23915, Note_on_c, 2, 69, 0
5, 23940, Note_on_c, 2, 68, 64
5, 24060, Note_on_c, 2, 68, 0
5, 24600, Note_on_c, 2, 68, 64
5, 24635, Note_on_c, 2, 68, 0
5, 24660, Note_on_c, 2, 69, 64
5, 24678, Note_on_c, 2, 69, 0
5, 24690, Note_on_c, 2, 66, 64
5, 24750, Note_on_c, 2, 66, 0
5, 24750, Note_on_c, 2, 68, 64
5, 24765, Note_on_c, 2, 68, 0
5, 24765, Note_on_c, 2, 69, 64
5, 24780, Note_on_c, 2, 69, 0
5, 24780, Note_on_c, 2, 68, 64
5, 24798, Note_on_c, 2, 68, 0
5, 24810, Note_on_c, 2, 64, 64
5, 24870, Note_on_c, 2, 64, 0
5, 24870, Note_on_c, 2, 66, 64
5, 24885, Note_on_c, 2, 66, 0
5, 24885, Note_on_c, 2, 68, 64
5, 24900, Note_on_c, 2, 68, 0
5, 24900, Note_on_c, 2, 66, 64
5, 24918, Note_on_c, 2, 66, 0
5, 24930, Note_on_c, 2, 63, 64
5, 24990, Note_on_c, 2, 63, 0
5, 24990, Note_on_c, 2, 64, 64
5, 25005, Note_on_c, 2, 64, 0
5, 25005, Note_on_c, 2, 66, 64
5, 25020, Note_on_c, 2, 66, 0
5, 25020, Note_on_c, 2, 64, 64
5, 25055, Note_on_c, 2, 64, 0
5, 25320, Note_on_c, 2, 73, 40
5, 25355, Note_on_c, 2, 73, 0
5, 25380, Note_on_c, 2, 71, 40
5, 25415, Note_on_c, 2, 71, 0
5, 25800, Note_on_c, 2, 71, 40
5, 25835, Note_on_c, 2, 71, 0
5, 25860, Note_on_c, 2, 69, 40
5, 25895, Note_on_c, 2, 69, 0
5, 26520, Note_on_c, 2, 64, 40
5, 26580, Note_on_c, 2, 64, 0
5, 26580, Note_on_c, 2, 66, 40
5, 26598, Note_on_c, 2, 66, 0
5, 26610, Note_on_c, 2, 62, 40
5, 26670, Note_on_c, 2, 62, 0
5, 26670, Note_on_c, 2, 64, 40
5, 26685, Note_on_c, 2, 64, 0
5, 26685, Note_on_c, 2, 66, 40
5, 26700, Note_on_c, 2, 66, 0
5, 26700, Note_on_c, 2, 64, 40
5, 26718, Note_on_c, 2, 64, 0
5, 26730, Note_on_c, 2, 61, 40
5, 26790, Note_on_c, 2, 61, 0
5, 26790, Note_on_c, 2, 62, 40
5, 26805, Note_on_c, 2, 62, 0
5, 26805, Note_on_c, 2, 64, 40
5, 26820, Note_on_c, 2, 64, 0
5, 26820, Note_on_c, 2, 62, 40
5, 26838, Note_on_c, 2, 62, 0
5, 26850, Note_on_c, 2, 59, 40
5, 26910, Note_on_c, 2, 59, 0
5, 26910, Note_on_c, 2, 61, 40
5, 26925, Note_on_c, 2, 61, 0
5, 26925, Note_on_c, 2, 62, 40
5, 26940, Note_on_c, 2, 62, 0
5, 26940, Note_on_c, 2, 61, 40
5, 26975, Note_on_c, 2, 61, 0
5, 27840, Note_on_c, 2, 67, 70
5, 27850, Control_c, 2, 7, 127
5, 27870, Note_on_c, 2, 67, 0
5, 27870, Note_on_c, 2, 66, 70
5, 27888, Note_on_c, 2, 66, 0
5, 27900, Note_on_c, 2, 66, 70
5, 27930, Note_on_c, 2, 66, 0
5, 27930, Note_on_c, 2, 64, 70
5, 27948, Note_on_c, 2, 64, 0
5, 27960, Note_on_c, 2, 64, 70
5, 27990, Note_on_c, 2, 64, 0
5, 27990, Note_on_c, 2, 62, 70
5, 28008, Note_on_c, 2, 62, 0
5, 28020, Note_on_c, 2, 62, 64
5, 28055, Note_on_c, 2, 62, 0
5, 28140, Note_on_c, 2, 62, 64
5, 28175, Note_on_c, 2, 62, 0
5, 28260, Note_on_c, 2, 62, 65
5, 28295, Note_on_c, 2, 62, 0
5, 28380, Note_on_c, 2, 62, 65
5, 28415, Note_on_c, 2, 62, 0
5, 28560, Note_on_c, 2, 57, 66
5, 28595, Note_on_c, 2, 57, 0
5, 28620, Note_on_c, 2, 66, 66
5, 28655, Note_on_c, 2, 66, 0
5, 28680, Note_on_c, 2, 64, 66
5, 28715, Note_on_c, 2, 64, 0
5, 28740, Note_on_c, 2, 63, 66
5, 28775, Note_on_c, 2, 63, 0
5, 28920, Note_on_c, 2, 64, 67
5, 28955, Note_on_c, 2, 64, 0
5, 28980, Note_on_c, 2, 66, 67
5, 29015, Note_on_c, 2, 66, 0
5, 29160, Note_on_c, 2, 66, 68
5, 29195, Note_on_c, 2, 66, 0
5, 29220, Note_on_c, 2, 64, 68
5, 29255, Note_on_c, 2, 64, 0
5, 29400, Note_on_c, 2, 71, 68
5, 29435, Note_on_c, 2, 71, 0
5, 29460, Note_on_c, 2, 69, 69
5, 29495, Note_on_c, 2, 69, 0
5, 29520, Note_on_c, 2, 69, 69
5, 29555, Note_on_c, 2, 69, 0
5, 29580, Note_on_c, 2, 69, 69
5, 29615, Note_on_c, 2, 69, 0
5, 29640, Note_on_c, 2, 68, 69
5, 29700, Note_on_c, 2, 68, 0
5, 29700, Note_on_c, 2, 64, 69
5, 29940, Note_on_c, 2, 64, 0
5, 30420, End_track
6, 0, Start_track
6, 0, MIDI_port, 0
6, 0, Title_t, "Vla"
6, 0, Program_c, 3, 49
6, 600, Note_on_c, 3, 64, 64
6, 635, Note_on_c, 3, 64, 0
6, 660, Note_on_c, 3, 64, 64
6, 720, Note_on_c, 3, 64, 0
6, 720, Note_on_c, 3, 61, 64
6, 755, Note_on_c, 3, 61, 0
6, 780, Note_on_c, 3, 62, 64
6, 815, Note_on_c, 3, 62, 0
6, 840, Note_on_c, 3, 64, 64
6, 875, Note_on_c, 3, 64, 0
6, 900, Note_on_c, 3, 64, 64
6, 1020, Note_on_c, 3, 64, 0
6, 1560, Note_on_c, 3, 64, 64
6, 1595, Note_on_c, 3, 64, 0
6, 1620, Note_on_c, 3, 57, 64
6, 1655, Note_on_c, 3, 57, 0
6, 1680, Note_on_c, 3, 61, 64
6, 1715, Note_on_c, 3, 61, 0
6, 1740, Note_on_c, 3, 64, 64
6, 1775, Note_on_c, 3, 64, 0
6, 1800, Note_on_c, 3, 59, 64
6, 1835, Note_on_c, 3, 59, 0
6, 1860, Note_on_c, 3, 59, 64
6, 1895, Note_on_c, 3, 59, 0
6, 1920, Note_on_c, 3, 59, 64
6, 1955, Note_on_c, 3, 59, 0
6, 1980, Note_on_c, 3, 59, 64
6, 2015, Note_on_c, 3, 59, 0
6, 2040, Note_on_c, 3, 59, 64
6, 2075, Note_on_c, 3, 59, 0
6, 2100, Note_on_c, 3, 61, 40
6, 2135, Note_on_c, 3, 61, 0
6, 2280, Note_on_c, 3, 59, 49
6, 2315, Note_on_c, 3, 59, 0
6, 2340, Note_on_c, 3, 59, 52
6, 2375, Note_on_c, 3, 59, 0
6, 2520, Note_on_c, 3, 61, 61
6, 2555, Note_on_c, 3, 61, 0
6, 2580, Note_on_c, 3, 66, 64
6, 2615, Note_on_c, 3, 66, 0
6, 2640, Note_on_c, 3, 68, 64
6, 2675, Note_on_c, 3, 68, 0
6, 2700, Note_on_c, 3, 68, 64
6, 2735, Note_on_c, 3, 68, 0
6, 2760, Note_on_c, 3, 66, 64
6, 2795, Note_on_c, 3, 66, 0
6, 2820, Note_on_c, 3, 68, 64
6, 2940, Note_on_c, 3, 68, 0
6, 3000, Note_on_c, 3, 59, 40
6, 3035, Note_on_c, 3, 59, 0
6, 3060, Note_on_c, 3, 61, 35
6, 3095, Note_on_c, 3, 61, 0
6, 3240, Note_on_c, 3, 66, 35
6, 3275, Note_on_c, 3, 66, 0
6, 3300, Note_on_c, 3, 66, 35
6, 3335, Note_on_c, 3, 66, 0
6, 3480, Note_on_c, 3, 59, 35
6, 3515, Note_on_c, 3, 59, 0
6, 3540, Note_on_c, 3, 59, 35
6, 3575, Note_on_c, 3, 59, 0
6, 3720, Note_on_c, 3, 64, 35
6, 3755, Note_on_c, 3, 64, 0
6, 3780, Note_on_c, 3, 64, 35
6, 3815, Note_on_c, 3, 64, 0
6, 3960, Note_on_c, 3, 57, 35
6, 3995, Note_on_c, 3, 57, 0
6, 4020, Note_on_c, 3, 57, 35
6, 4055, Note_on_c, 3, 57, 0
6, 4140, Note_on_c, 3, 52, 36
6, 4175, Note_on_c, 3, 52, 0
6, 4260, Note_on_c, 3, 57, 38
6, 4295, Note_on_c, 3, 57, 0
6, 4380, Note_on_c, 3, 56, 39
6, 4415, Note_on_c, 3, 56, 0
6, 4560, Note_on_c, 3, 62, 41
6, 4595, Note_on_c, 3, 62, 0
6, 4620, Note_on_c, 3, 62, 41
6, 4655, Note_on_c, 3, 62, 0
6, 4680, Note_on_c, 3, 59, 42
6, 4715, Note_on_c, 3, 59, 0
6, 4740, Note_on_c, 3, 57, 43
6, 4775, Note_on_c, 3, 57, 0
6, 4920, Note_on_c, 3, 57, 44
6, 4955, Note_on_c, 3, 57, 0
6, 4980, Note_on_c, 3, 57, 45
6, 5015, Note_on_c, 3, 57, 0
6, 5160, Note_on_c, 3, 59, 47
6, 5195, Note_on_c, 3, 59, 0
6, 5220, Note_on_c, 3, 59, 48
6, 5255, Note_on_c, 3, 59, 0
6, 5400, Note_on_c, 3, 59, 49
6, 5435, Note_on_c, 3, 59, 0
6, 5460, Note_on_c, 3, 52, 64
6, 5495, Note_on_c, 3, 52, 0
6, 5520, Note_on_c, 3, 52, 64
6, 5555, Note_on_c, 3, 52, 0
6, 5580, Note_on_c, 3, 54, 64
6, 5615, Note_on_c, 3, 54, 0
6, 5640, Note_on_c, 3, 56, 64
6, 5700, Note_on_c, 3, 56, 0
6, 5700, Note_on_c, 3, 49, 64
6, 5880, Note_on_c, 3, 49, 0
6, 5940, Control_c, 3, 7, 100
6, 6000, Note_on_c, 3, 61, 32
6, 6030, Note_on_c, 3, 61, 0
6, 6030, Note_on_c, 3, 59, 32
6, 6048, Note_on_c, 3, 59, 0
6, 6060, Note_on_c, 3, 59, 33
6, 6090, Note_on_c, 3, 59, 0
6, 6090, Note_on_c, 3, 62, 34
6, 6108, Note_on_c, 3, 62, 0
6, 6120, Note_on_c, 3, 62, 35
6, 6150, Note_on_c, 3, 62, 0
6, 6150, Note_on_c, 3, 61, 35
6, 6168, Note_on_c, 3, 61, 0
6, 6180, Note_on_c, 3, 61, 36
6, 6240, Note_on_c, 3, 61, 0
6, 6240, Note_on_c, 3, 64, 38
6, 6275, Note_on_c, 3, 64, 0
6, 6300, Note_on_c, 3, 64, 39
6, 6360, Note_on_c, 3, 64, 0
6, 6360, Note_on_c, 3, 68, 41
6, 6395, Note_on_c, 3, 68, 0
6, 6420, Note_on_c, 3, 64, 43
6, 6480, Note_on_c, 3, 64, 0
6, 6480, Note_on_c, 3, 61, 44
6, 6515, Note_on_c, 3, 61, 0
6, 6540, Note_on_c, 3, 62, 46
6, 6600, Note_on_c, 3, 62, 0
6, 6600, Note_on_c, 3, 57, 47
6, 6635, Note_on_c, 3, 57, 0
6, 6660, Note_on_c, 3, 57, 49
6, 7020, Note_on_c, 3, 57, 0
6, 7020, Note_on_c, 3, 57, 64
6, 7055, Note_on_c, 3, 57, 0
6, 7080, Note_on_c, 3, 62, 64
6, 7115, Note_on_c, 3, 62, 0
6, 7140, Note_on_c, 3, 61, 64
6, 7200, Note_on_c, 3, 61, 0
6, 7200, Note_on_c, 3, 64, 64
6, 7235, Note_on_c, 3, 64, 0
6, 7320, Note_on_c, 3, 64, 64
6, 7355, Note_on_c, 3, 64, 0
6, 7380, Note_on_c, 3, 64, 64
6, 7440, Note_on_c, 3, 64, 0
6, 7440, Note_on_c, 3, 61, 64
6, 7475, Note_on_c, 3, 61, 0
6, 7500, Note_on_c, 3, 62, 64
6, 7535, Note_on_c, 3, 62, 0
6, 7560, Note_on_c, 3, 64, 64
6, 7595, Note_on_c, 3, 64, 0
6, 7620, Note_on_c, 3, 64, 64
6, 7740, Note_on_c, 3, 64, 0
6, 8280, Note_on_c, 3, 64, 64
6, 8315, Note_on_c, 3, 64, 0
6, 8340, Note_on_c, 3, 57, 64
6, 8375, Note_on_c, 3, 57, 0
6, 8400, Note_on_c, 3, 61, 64
6, 8435, Note_on_c, 3, 61, 0
6, 8460, Note_on_c, 3, 64, 64
6, 8495, Note_on_c, 3, 64, 0
6, 8520, Note_on_c, 3, 59, 64
6, 8555, Note_on_c, 3, 59, 0
6, 8580, Note_on_c, 3, 59, 64
6, 8615, Note_on_c, 3, 59, 0
6, 8640, Note_on_c, 3, 59, 64
6, 8675, Note_on_c, 3, 59, 0
6, 8700, Note_on_c, 3, 59, 64
6, 8735, Note_on_c, 3, 59, 0
6, 8880, Note_on_c, 3, 56, 51
6, 8910, Note_on_c, 3, 56, 0
6, 8910, Note_on_c, 3, 54, 51
6, 8928, Note_on_c, 3, 54, 0
6, 8940, Note_on_c, 3, 54, 52
6, 8970, Note_on_c, 3, 54, 0
6, 8970, Note_on_c, 3, 57, 52
6, 8988, Note_on_c, 3, 57, 0
6, 9000, Note_on_c, 3, 57, 53
6, 9030, Note_on_c, 3, 57, 0
6, 9030, Note_on_c, 3, 56, 53
6, 9048, Note_on_c, 3, 56, 0
6, 9060, Note_on_c, 3, 56, 54
6, 9090, Note_on_c, 3, 56, 0
6, 9090, Note_on_c, 3, 59, 54
6, 9108, Note_on_c, 3, 59, 0
6, 9120, Note_on_c, 3, 59, 54
6, 9150, Note_on_c, 3, 59, 0
6, 9150, Note_on_c, 3, 57, 55
6, 9168, Note_on_c, 3, 57, 0
6, 9180, Note_on_c, 3, 57, 55
6, 9210, Note_on_c, 3, 57, 0
6, 9210, Note_on_c, 3, 61, 56
6, 9228, Note_on_c, 3, 61, 0
6, 9240, Note_on_c, 3, 61, 56
6, 9270, Note_on_c, 3, 61, 0
6, 9270, Note_on_c, 3, 59, 57
6, 9288, Note_on_c, 3, 59, 0
6, 9300, Note_on_c, 3, 59, 57
6, 9360, Note_on_c, 3, 59, 0
6, 9360, Note_on_c, 3, 64, 58
6, 9480, Note_on_c, 3, 64, 0
6, 9480, Note_on_c, 3, 63, 60
6, 9540, Note_on_c, 3, 63, 0
6, 9540, Note_on_c, 3, 64, 61
6, 9570, Note_on_c, 3, 64, 0
6, 9570, Note_on_c, 3, 59, 61
6, 9588, Note_on_c, 3, 59, 0
6, 9600, Note_on_c, 3, 59, 61
6, 9630, Note_on_c, 3, 59, 0
6, 9630, Note_on_c, 3, 57, 62
6, 9648, Note_on_c, 3, 57, 0
6, 9660, Note_on_c, 3, 57, 62
6, 9690, Note_on_c, 3, 57, 0
6, 9690, Note_on_c, 3, 63, 63
6, 9708, Note_on_c, 3, 63, 0
6, 9720, Note_on_c, 3, 63, 63
6, 9750, Note_on_c, 3, 63, 0
6, 9750, Note_on_c, 3, 59, 64
6, 9768, Note_on_c, 3, 59, 0
6, 9780, Note_on_c, 3, 59, 64
6, 9815, Note_on_c, 3, 59, 0
6, 9840, Note_on_c, 3, 52, 64
6, 9875, Note_on_c, 3, 52, 0
6, 9900, Note_on_c, 3, 54, 64
6, 9935, Note_on_c, 3, 54, 0
6, 9960, Note_on_c, 3, 57, 64
6, 9995, Note_on_c, 3, 57, 0
6, 10020, Note_on_c, 3, 56, 64
6, 10055, Note_on_c, 3, 56, 0
6, 10080, Note_on_c, 3, 59, 64
6, 10115, Note_on_c, 3, 59, 0
6, 10140, Note_on_c, 3, 64, 64
6, 10175, Note_on_c, 3, 64, 0
6, 10200, Note_on_c, 3, 57, 64
6, 10235, Note_on_c, 3, 57, 0
6, 10260, Note_on_c, 3, 59, 64
6, 10320, Note_on_c, 3, 59, 0
6, 10320, Note_on_c, 3, 56, 64
6, 10355, Note_on_c, 3, 56, 0
6, 10380, Note_on_c, 3, 57, 64
6, 10415, Note_on_c, 3, 57, 0
6, 10440, Note_on_c, 3, 59, 64
6, 10475, Note_on_c, 3, 59, 0
6, 10500, Note_on_c, 3, 59, 64
6, 10620, Note_on_c, 3, 59, 0
6, 11160, Note_on_c, 3, 52, 40
6, 11195, Note_on_c, 3, 52, 0
6, 11220, Note_on_c, 3, 52, 64
6, 11255, Note_on_c, 3, 52, 0
6, 11280, Note_on_c, 3, 61, 64
6, 11315, Note_on_c, 3, 61, 0
6, 11340, Note_on_c, 3, 64, 64
6, 11375, Note_on_c, 3, 64, 0
6, 11400, Note_on_c, 3, 64, 64
6, 11435, Note_on_c, 3, 64, 0
6, 11460, Note_on_c, 3, 61, 64
6, 11495, Note_on_c, 3, 61, 0
6, 11520, Note_on_c, 3, 59, 64
6, 11555, Note_on_c, 3, 59, 0
6, 11580, Note_on_c, 3, 59, 64
6, 11615, Note_on_c, 3, 59, 0
6, 12442, Control_c, 3, 7, 127
6, 12480, Note_on_c, 3, 56, 49
6, 12540, Note_on_c, 3, 56, 0
6, 12540, Note_on_c, 3, 57, 46
6, 12600, Note_on_c, 3, 57, 0
6, 12600, Note_on_c, 3, 59, 43
6, 12660, Note_on_c, 3, 59, 0
6, 12660, Note_on_c, 3, 52, 40
6, 12695, Note_on_c, 3, 52, 0
6, 12780, Note_on_c, 3, 59, 43
6, 12815, Note_on_c, 3, 59, 0
6, 12900, Note_on_c, 3, 52, 45
6, 12935, Note_on_c, 3, 52, 0
6, 13020, Note_on_c, 3, 51, 48
6, 13055, Note_on_c, 3, 51, 0
6, 13200, Note_on_c, 3, 57, 51
6, 13235, Note_on_c, 3, 57, 0
6, 13260, Note_on_c, 3, 57, 53
6, 13295, Note_on_c, 3, 57, 0
6, 13320, Note_on_c, 3, 54, 54
6, 13355, Note_on_c, 3, 54, 0
6, 13380, Note_on_c, 3, 52, 55
6, 13415, Note_on_c, 3, 52, 0
6, 13560, Note_on_c, 3, 52, 59
6, 13595, Note_on_c, 3, 52, 0
6, 13620, Note_on_c, 3, 52, 60
6, 13655, Note_on_c, 3, 52, 0
6, 13800, Note_on_c, 3, 54, 64
6, 13835, Note_on_c, 3, 54, 0
6, 13860, Note_on_c, 3, 54, 65
6, 13895, Note_on_c, 3, 54, 0
6, 14040, Note_on_c, 3, 59, 69
6, 14075, Note_on_c, 3, 59, 0
6, 14100, Note_on_c, 3, 59, 70
6, 14135, Note_on_c, 3, 59, 0
6, 14160, Note_on_c, 3, 59, 70
6, 14195, Note_on_c, 3, 59, 0
6, 14220, Note_on_c, 3, 61, 70
6, 14231, Note_on_c, 3, 61, 0
6, 14280, Note_on_c, 3, 54, 70
6, 14315, Note_on_c, 3, 54, 0
6, 14340, Note_on_c, 3, 56, 70
6, 14510, Control_c, 3, 7, 100
6, 14520, Note_on_c, 3, 56, 0
6, 14640, Note_on_c, 3, 58, 40
6, 14675, Note_on_c, 3, 58, 0
6, 14700, Note_on_c, 3, 59, 40
6, 14735, Note_on_c, 3, 59, 0
6, 14880, Note_on_c, 3, 53, 40
6, 14915, Note_on_c, 3, 53, 0
6, 14940, Note_on_c, 3, 54, 40
6, 14975, Note_on_c, 3, 54, 0
6, 15120, Note_on_c, 3, 57, 40
6, 15155, Note_on_c, 3, 57, 0
6, 15180, Note_on_c, 3, 56, 40
6, 15215, Note_on_c, 3, 56, 0
6, 15360, Note_on_c, 3, 56, 40
6, 15390, Note_on_c, 3, 56, 0
6, 15390, Note_on_c, 3, 57, 40
6, 15408, Note_on_c, 3, 57, 0
6, 15420, Note_on_c, 3, 57, 40
6, 15450, Note_on_c, 3, 57, 0
6, 15450, Note_on_c, 3, 59, 40
6, 15468, Note_on_c, 3, 59, 0
6, 15480, Note_on_c, 3, 59, 40
6, 15510, Note_on_c, 3, 59, 0
6, 15510, Note_on_c, 3, 61, 40
6, 15528, Note_on_c, 3, 61, 0
6, 15540, Note_on_c, 3, 61, 40
6, 15575, Note_on_c, 3, 61, 0
6, 15840, Note_on_c, 3, 56, 49
6, 15870, Note_on_c, 3, 56, 0
6, 15870, Note_on_c, 3, 49, 50
6, 15888, Note_on_c, 3, 49, 0
6, 15900, Note_on_c, 3, 49, 51
6, 15935, Note_on_c, 3, 49, 0
6, 16080, Note_on_c, 3, 61, 57
6, 16110, Note_on_c, 3, 61, 0
6, 16110, Note_on_c, 3, 54, 58
6, 16128, Note_on_c, 3, 54, 0
6, 16140, Note_on_c, 3, 54, 59
6, 16175, Note_on_c, 3, 54, 0
6, 16320, Note_on_c, 3, 52, 64
6, 16350, Note_on_c, 3, 52, 0
6, 16350, Note_on_c, 3, 54, 65
6, 16368, Note_on_c, 3, 54, 0
6, 16380, Note_on_c, 3, 54, 66
6, 16415, Note_on_c, 3, 54, 0
6, 16560, Note_on_c, 3, 51, 70
6, 16590, Note_on_c, 3, 51, 0
6, 16590, Note_on_c, 3, 56, 70
6, 16608, Note_on_c, 3, 56, 0
6, 16620, Note_on_c, 3, 56, 70
6, 16650, Note_on_c, 3, 56, 0
6, 16650, Note_on_c, 3, 60, 70
6, 16668, Note_on_c, 3, 60, 0
6, 16680, Note_on_c, 3, 60, 70
6, 16710, Note_on_c, 3, 60, 0
6, 16710, Note_on_c, 3, 61, 70
6, 16728, Note_on_c, 3, 61, 0
6, 16740, Note_on_c, 3, 61, 70
6, 16775, Note_on_c, 3, 61, 0
6, 17390, Control_c, 3, 7, 127
6, 17880, Note_on_c, 3, 66, 64
6, 17915, Note_on_c, 3, 66, 0
6, 17940, Note_on_c, 3, 59, 64
6, 17975, Note_on_c, 3, 59, 0
6, 18000, Note_on_c, 3, 62, 64
6, 18035, Note_on_c, 3, 62, 0
6, 18060, Note_on_c, 3, 66, 64
6, 18095, Note_on_c, 3, 66, 0
6, 18120, Note_on_c, 3, 61, 64
6, 18155, Note_on_c, 3, 61, 0
6, 18180, Note_on_c, 3, 61, 64
6, 18215, Note_on_c, 3, 61, 0
6, 18240, Note_on_c, 3, 61, 64
6, 18275, Note_on_c, 3, 61, 0
6, 18300, Note_on_c, 3, 61, 64
6, 18335, Note_on_c, 3, 61, 0
6, 18360, Note_on_c, 3, 61, 64
6, 18395, Note_on_c, 3, 61, 0
6, 18420, Note_on_c, 3, 54, 40
6, 18455, Note_on_c, 3, 54, 0
6, 18600, Note_on_c, 3, 61, 49
6, 18635, Note_on_c, 3, 61, 0
6, 18660, Note_on_c, 3, 61, 52
6, 18695, Note_on_c, 3, 61, 0
6, 18840, Note_on_c, 3, 62, 61
6, 18875, Note_on_c, 3, 62, 0
6, 18900, Note_on_c, 3, 56, 64
6, 18935, Note_on_c, 3, 56, 0
6, 18960, Note_on_c, 3, 57, 64
6, 18995, Note_on_c, 3, 57, 0
6, 19020, Note_on_c, 3, 57, 64
6, 19055, Note_on_c, 3, 57, 0
6, 19080, Note_on_c, 3, 56, 64
6, 19115, Note_on_c, 3, 56, 0
6, 19140, Note_on_c, 3, 57, 64
6, 19260, Note_on_c, 3, 57, 0
6, 22280, Control_c, 3, 7, 100
6, 22320, Note_on_c, 3, 61, 42
6, 22350, Note_on_c, 3, 61, 0
6, 22350, Note_on_c, 3, 59, 43
6, 22368, Note_on_c, 3, 59, 0
6, 22380, Note_on_c, 3, 59, 44
6, 22410, Note_on_c, 3, 59, 0
6, 22410, Note_on_c, 3, 62, 45
6, 22428, Note_on_c, 3, 62, 0
6, 22440, Note_on_c, 3, 62, 47
6, 22470, Note_on_c, 3, 62, 0
6, 22470, Note_on_c, 3, 61, 48
6, 22488, Note_on_c, 3, 61, 0
6, 22500, Note_on_c, 3, 61, 49
6, 22560, Note_on_c, 3, 61, 0
6, 22560, Note_on_c, 3, 64, 51
6, 22595, Note_on_c, 3, 64, 0
6, 22620, Note_on_c, 3, 64, 53
6, 22680, Note_on_c, 3, 64, 0
6, 22680, Note_on_c, 3, 68, 55
6, 22715, Note_on_c, 3, 68, 0
6, 22740, Note_on_c, 3, 64, 58
6, 22800, Note_on_c, 3, 64, 0
6, 22800, Note_on_c, 3, 61, 60
6, 22835, Note_on_c, 3, 61, 0
6, 22860, Note_on_c, 3, 62, 62
6, 22920, Note_on_c, 3, 62, 0
6, 22920, Note_on_c, 3, 57, 64
6, 22955, Note_on_c, 3, 57, 0
6, 22980, Note_on_c, 3, 57, 66
6, 23340, Note_on_c, 3, 57, 0
6, 23340, Note_on_c, 3, 57, 54
6, 23375, Note_on_c, 3, 57, 0
6, 23400, Note_on_c, 3, 62, 55
6, 23435, Note_on_c, 3, 62, 0
6, 23460, Note_on_c, 3, 61, 57
6, 23520, Note_on_c, 3, 61, 0
6, 23520, Note_on_c, 3, 64, 59
6, 23555, Note_on_c, 3, 64, 0
6, 23640, Note_on_c, 3, 64, 62
6, 23675, Note_on_c, 3, 64, 0
6, 23700, Note_on_c, 3, 64, 64
6, 23760, Note_on_c, 3, 64, 0
6, 23760, Note_on_c, 3, 61, 64
6, 23795, Note_on_c, 3, 61, 0
6, 23820, Note_on_c, 3, 62, 64
6, 23855, Note_on_c, 3, 62, 0
6, 23880, Note_on_c, 3, 64, 64
6, 23915, Note_on_c, 3, 64, 0
6, 23940, Note_on_c, 3, 64, 64
6, 24060, Note_on_c, 3, 64, 0
6, 24600, Note_on_c, 3, 64, 64
6, 24635, Note_on_c, 3, 64, 0
6, 24660, Note_on_c, 3, 57, 64
6, 24695, Note_on_c, 3, 57, 0
6, 24720, Note_on_c, 3, 61, 64
6, 24755, Note_on_c, 3, 61, 0
6, 24780, Note_on_c, 3, 64, 64
6, 24815, Note_on_c, 3, 64, 0
6, 24840, Note_on_c, 3, 59, 64
6, 24875, Note_on_c, 3, 59, 0
6, 24900, Note_on_c, 3, 59, 64
6, 24935, Note_on_c, 3, 59, 0
6, 24960, Note_on_c, 3, 59, 64
6, 24995, Note_on_c, 3, 59, 0
6, 25020, Note_on_c, 3, 59, 64
6, 25055, Note_on_c, 3, 59, 0
6, 25320, Note_on_c, 3, 66, 40
6, 25355, Note_on_c, 3, 66, 0
6, 25380, Note_on_c, 3, 66, 40
6, 25415, Note_on_c, 3, 66, 0
6, 25800, Note_on_c, 3, 64, 40
6, 25835, Note_on_c, 3, 64, 0
6, 25860, Note_on_c, 3, 64, 40
6, 25895, Note_on_c, 3, 64, 0
6, 26520, Note_on_c, 3, 57, 40
6, 26580, Note_on_c, 3, 57, 0
6, 26580, Note_on_c, 3, 57, 40
6, 26615, Note_on_c, 3, 57, 0
6, 26640, Note_on_c, 3, 54, 40
6, 26675, Note_on_c, 3, 54, 0
6, 26700, Note_on_c, 3, 57, 40
6, 26735, Note_on_c, 3, 57, 0
6, 26760, Note_on_c, 3, 52, 40
6, 26795, Note_on_c, 3, 52, 0
6, 26820, Note_on_c, 3, 52, 40
6, 26855, Note_on_c, 3, 52, 0
6, 26880, Note_on_c, 3, 52, 40
6, 26915, Note_on_c, 3, 52, 0
6, 26940, Note_on_c, 3, 52, 40
6, 26975, Note_on_c, 3, 52, 0
6, 27840, Note_on_c, 3, 64, 70
6, 27850, Control_c, 3, 7, 127
6, 27870, Note_on_c, 3, 64, 0
6, 27870, Note_on_c, 3, 62, 70
6, 27888, Note_on_c, 3, 62, 0
6, 27900, Note_on_c, 3, 62, 70
6, 27935, Note_on_c, 3, 62, 0
6, 27960, Note_on_c, 3, 57, 70
6, 27995, Note_on_c, 3, 57, 0
6, 28020, Note_on_c, 3, 57, 64
6, 28055, Note_on_c, 3, 57, 0
6, 28140, Note_on_c, 3, 52, 64
6, 28175, Note_on_c, 3, 52, 0
6, 28260, Note_on_c, 3, 57, 65
6, 28295, Note_on_c, 3, 57, 0
6, 28380, Note_on_c, 3, 56, 65
6, 28415, Note_on_c, 3, 56, 0
6, 28560, Note_on_c, 3, 62, 66
6, 28595, Note_on_c, 3, 62, 0
6, 28620, Note_on_c, 3, 62, 66
6, 28655, Note_on_c, 3, 62, 0
6, 28680, Note_on_c, 3, 59, 66
6, 28715, Note_on_c, 3, 59, 0
6, 28740, Note_on_c, 3, 57, 66
6, 28775, Note_on_c, 3, 57, 0
6, 28920, Note_on_c, 3, 57, 67
6, 28955, Note_on_c, 3, 57, 0
6, 28980, Note_on_c, 3, 57, 67
6, 29015, Note_on_c, 3, 57, 0
6, 29160, Note_on_c, 3, 59, 68
6, 29195, Note_on_c, 3, 59, 0
6, 29220, Note_on_c, 3, 59, 68
6, 29255, Note_on_c, 3, 59, 0
6, 29400, Note_on_c, 3, 64, 68
6, 29435, Note_on_c, 3, 64, 0
6, 29460, Note_on_c, 3, 64, 69
6, 29495, Note_on_c, 3, 64, 0
6, 29520, Note_on_c, 3, 64, 69
6, 29555, Note_on_c, 3, 64, 0
6, 29580, Note_on_c, 3, 66, 69
6, 29615, Note_on_c, 3, 66, 0
6, 29640, Note_on_c, 3, 59, 69
6, 29700, Note_on_c, 3, 59, 0
6, 29700, Note_on_c, 3, 61, 69
6, 29940, Note_on_c, 3, 61, 0
6, 30420, End_track
7, 0, Start_track
7, 0, MIDI_port, 0
7, 0, Title_t, "Vc"
7, 0, Program_c, 4, 49
7, 120, Note_on_c, 4, 45, 50
7, 150, Note_on_c, 4, 45, 0
7, 150, Note_on_c, 4, 47, 50
7, 180, Note_on_c, 4, 47, 0
7, 180, Note_on_c, 4, 49, 50
7, 215, Note_on_c, 4, 49, 0
7, 240, Note_on_c, 4, 45, 50
7, 275, Note_on_c, 4, 45, 0
7, 300, Note_on_c, 4, 52, 50
7, 335, Note_on_c, 4, 52, 0
7, 360, Note_on_c, 4, 50, 50
7, 395, Note_on_c, 4, 50, 0
7, 420, Note_on_c, 4, 49, 50
7, 455, Note_on_c, 4, 49, 0
7, 480, Note_on_c, 4, 47, 50
7, 515, Note_on_c, 4, 47, 0
7, 540, Note_on_c, 4, 49, 50
7, 575, Note_on_c, 4, 49, 0
7, 600, Note_on_c, 4, 44, 50
7, 635, Note_on_c, 4, 44, 0
7, 660, Note_on_c, 4, 45, 64
7, 695, Note_on_c, 4, 45, 0
7, 720, Note_on_c, 4, 49, 64
7, 755, Note_on_c, 4, 49, 0
7, 780, Note_on_c, 4, 47, 64
7, 815, Note_on_c, 4, 47, 0
7, 840, Note_on_c, 4, 45, 64
7, 875, Note_on_c, 4, 45, 0
7, 900, Note_on_c, 4, 52, 64
7, 935, Note_on_c, 4, 52, 0
7, 960, Note_on_c, 4, 54, 64
7, 995, Note_on_c, 4, 54, 0
7, 1020, Note_on_c, 4, 56, 64
7, 1055, Note_on_c, 4, 56, 0
7, 1080, Note_on_c, 4, 52, 64
7, 1115, Note_on_c, 4, 52, 0
7, 1140, Note_on_c, 4, 57, 50
7, 1175, Note_on_c, 4, 57, 0
7, 1200, Note_on_c, 4, 54, 50
7, 1235, Note_on_c, 4, 54, 0
7, 1260, Note_on_c, 4, 56, 50
7, 1295, Note_on_c, 4, 56, 0
7, 1320, Note_on_c, 4, 52, 50
7, 1355, Note_on_c, 4, 52, 0
7, 1380, Note_on_c, 4, 54, 50
7, 1415, Note_on_c, 4, 54, 0
7, 1440, Note_on_c, 4, 47, 50
7, 1475, Note_on_c, 4, 47, 0
7, 1500, Note_on_c, 4, 52, 50
7, 1535, Note_on_c, 4, 52, 0
7, 1560, Note_on_c, 4, 50, 50
7, 1595, Note_on_c, 4, 50, 0
7, 1620, Note_on_c, 4, 49, 64
7, 1655, Note_on_c, 4, 49, 0
7, 1680, Note_on_c, 4, 45, 64
7, 1715, Note_on_c, 4, 45, 0
7, 1740, Note_on_c, 4, 52, 64
7, 1775, Note_on_c, 4, 52, 0
7, 1800, Note_on_c, 4, 56, 64
7, 1835, Note_on_c, 4, 56, 0
7, 1860, Note_on_c, 4, 59, 64
7, 1895, Note_on_c, 4, 59, 0
7, 1920, Note_on_c, 4, 47, 64
7, 1955, Note_on_c, 4, 47, 0
7, 1980, Note_on_c, 4, 52, 64
7, 2015, Note_on_c, 4, 52, 0
7, 2040, Note_on_c, 4, 44, 64
7, 2075, Note_on_c, 4, 44, 0
7, 2100, Note_on_c, 4, 45, 40
7, 2135, Note_on_c, 4, 45, 0
7, 2160, Note_on_c, 4, 47, 43
7, 2195, Note_on_c, 4, 47, 0
7, 2220, Note_on_c, 4, 49, 46
7, 2255, Note_on_c, 4, 49, 0
7, 2280, Note_on_c, 4, 51, 49
7, 2315, Note_on_c, 4, 51, 0
7, 2340, Note_on_c, 4, 52, 52
7, 2375, Note_on_c, 4, 52, 0
7, 2400, Note_on_c, 4, 54, 55
7, 2435, Note_on_c, 4, 54, 0
7, 2460, Note_on_c, 4, 56, 58
7, 2495, Note_on_c, 4, 56, 0
7, 2520, Note_on_c, 4, 57, 61
7, 2615, Note_on_c, 4, 57, 0
7, 2640, Note_on_c, 4, 56, 64
7, 2670, Note_on_c, 4, 56, 0
7, 2670, Note_on_c, 4, 57, 64
7, 2700, Note_on_c, 4, 57, 0
7, 2700, Note_on_c, 4, 59, 64
7, 2735, Note_on_c, 4, 59, 0
7, 2760, Note_on_c, 4, 47, 64
7, 2795, Note_on_c, 4, 47, 0
7, 2820, Note_on_c, 4, 40, 64
7, 2855, Note_on_c, 4, 40, 0
7, 2880, Note_on_c, 4, 52, 56
7, 2910, Note_on_c, 4, 52, 0
7, 2910, Note_on_c, 4, 54, 52
7, 2940, Note_on_c, 4, 54, 0
7, 2940, Note_on_c, 4, 52, 48
7, 2975, Note_on_c, 4, 52, 0
7, 3000, Note_on_c, 4, 50, 40
7, 3035, Note_on_c, 4, 50, 0
7, 3060, Note_on_c, 4, 49, 35
7, 3095, Note_on_c, 4, 49, 0
7, 3120, Note_on_c, 4, 47, 35
7, 3155, Note_on_c, 4, 47, 0
7, 3180, Note_on_c, 4, 46, 35
7, 3215, Note_on_c, 4, 46, 0
7, 3240, Note_on_c, 4, 42, 35
7, 3275, Note_on_c, 4, 42, 0
7, 3300, Note_on_c, 4, 47, 35
7, 3335, Note_on_c, 4, 47, 0
7, 3360, Note_on_c, 4, 49, 35
7, 3395, Note_on_c, 4, 49, 0
7, 3420, Note_on_c, 4, 50, 35
7, 3455, Note_on_c, 4, 50, 0
7, 3480, Note_on_c, 4, 47, 35
7, 3515, Note_on_c, 4, 47, 0
7, 3540, Note_on_c, 4, 52, 35
7, 3575, Note_on_c, 4, 52, 0
7, 3600, Note_on_c, 4, 54, 35
7, 3635, Note_on_c, 4, 54, 0
7, 3660, Note_on_c, 4, 56, 35
7, 3695, Note_on_c, 4, 56, 0
7, 3720, Note_on_c, 4, 52, 35
7, 3755, Note_on_c, 4, 52, 0
7, 3780, Note_on_c, 4, 45, 35
7, 3815, Note_on_c, 4, 45, 0
7, 3840, Note_on_c, 4, 47, 35
7, 3875, Note_on_c, 4, 47, 0
7, 3900, Note_on_c, 4, 49, 35
7, 3935, Note_on_c, 4, 49, 0
7, 3960, Note_on_c, 4, 45, 35
7, 3995, Note_on_c, 4, 45, 0
7, 4020, Note_on_c, 4, 50, 35
7, 4055, Note_on_c, 4, 50, 0
7, 4080, Note_on_c, 4, 47, 36
7, 4115, Note_on_c, 4, 47, 0
7, 4140, Note_on_c, 4, 52, 36
7, 4175, Note_on_c, 4, 52, 0
7, 4200, Note_on_c, 4, 49, 37
7, 4235, Note_on_c, 4, 49, 0
7, 4260, Note_on_c, 4, 54, 38
7, 4295, Note_on_c, 4, 54, 0
7, 4320, Note_on_c, 4, 42, 38
7, 4355, Note_on_c, 4, 42, 0
7, 4380, Note_on_c, 4, 44, 39
7, 4415, Note_on_c, 4, 44, 0
7, 4440, Note_on_c, 4, 40, 39
7, 4475, Note_on_c, 4, 40, 0
7, 4500, Note_on_c, 4, 45, 40
7, 4535, Note_on_c, 4, 45, 0
7, 4560, Note_on_c, 4, 42, 41
7, 4595, Note_on_c, 4, 42, 0
7, 4620, Note_on_c, 4, 38, 41
7, 4655, Note_on_c, 4, 38, 0
7, 4680, Note_on_c, 4, 40, 42
7, 4715, Note_on_c, 4, 40, 0
7, 4740, Note_on_c, 4, 42, 43
7, 4775, Note_on_c, 4, 42, 0
7, 4920, Note_on_c, 4, 52, 44
7, 4955, Note_on_c, 4, 52, 0
7, 4980, Note_on_c, 4, 51, 45
7, 5015, Note_on_c, 4, 51, 0
7, 5160, Note_on_c, 4, 47, 47
7, 5195, Note_on_c, 4, 47, 0
7, 5220, Note_on_c, 4, 52, 48
7, 5255, Note_on_c, 4, 52, 0
7, 5400, Note_on_c, 4, 44, 49
7, 5435, Note_on_c, 4, 44, 0
7, 5460, Note_on_c, 4, 45, 64
7, 5495, Note_on_c, 4, 45, 0
7, 5520, Note_on_c, 4, 37, 64
7, 5555, Note_on_c, 4, 37, 0
7, 5580, Note_on_c, 4, 38, 64
7, 5615, Note_on_c, 4, 38, 0
7, 5640, Note_on_c, 4, 40, 64
7, 5675, Note_on_c, 4, 40, 0
7, 5700, Note_on_c, 4, 45, 64
7, 5820, Note_on_c, 4, 45, 0
7, 6600, Note_on_c, 4, 38, 64
7, 6660, Note_on_c, 4, 38, 0
7, 6660, Note_on_c, 4, 45, 64
7, 6690, Note_on_c, 4, 45, 0
7, 6690, Note_on_c, 4, 49, 64
7, 6708, Note_on_c, 4, 49, 0
7, 6720, Note_on_c, 4, 49, 64
7, 6750, Note_on_c, 4, 49, 0
7, 6750, Note_on_c, 4, 47, 64
7, 6768, Note_on_c, 4, 47, 0
7, 6780, Note_on_c, 4, 47, 64
7, 6810, Note_on_c, 4, 47, 0
7, 6810, Note_on_c, 4, 50, 64
7, 6828, Note_on_c, 4, 50, 0
7, 6840, Note_on_c, 4, 50, 64
7, 6870, Note_on_c, 4, 50, 0
7, 6870, Note_on_c, 4, 49, 64
7, 6888, Note_on_c, 4, 49, 0
7, 6900, Note_on_c, 4, 49, 64
7, 6935, Note_on_c, 4, 49, 0
7, 6960, Note_on_c, 4, 45, 64
7, 6995, Note_on_c, 4, 45, 0
7, 7020, Note_on_c, 4, 50, 64
7, 7055, Note_on_c, 4, 50, 0
7, 7080, Note_on_c, 4, 47, 64
7, 7115, Note_on_c, 4, 47, 0
7, 7140, Note_on_c, 4, 49, 64
7, 7200, Note_on_c, 4, 49, 0
7, 7200, Note_on_c, 4, 47, 64
7, 7230, Note_on_c, 4, 47, 0
7, 7230, Note_on_c, 4, 45, 64
7, 7260, Note_on_c, 4, 45, 0
7, 7260, Note_on_c, 4, 44, 64
7, 7295, Note_on_c, 4, 44, 0
7, 7320, Note_on_c, 4, 40, 64
7, 7355, Note_on_c, 4, 40, 0
7, 7380, Note_on_c, 4, 45, 64
7, 7415, Note_on_c, 4, 45, 0
7, 7440, Note_on_c, 4, 49, 64
7, 7475, Note_on_c, 4, 49, 0
7, 7500, Note_on_c, 4, 47, 64
7, 7535, Note_on_c, 4, 47, 0
7, 7560, Note_on_c, 4, 45, 64
7, 7595, Note_on_c, 4, 45, 0
7, 7620, Note_on_c, 4, 52, 64
7, 7655, Note_on_c, 4, 52, 0
7, 7680, Note_on_c, 4, 54, 64
7, 7715, Note_on_c, 4, 54, 0
7, 7740, Note_on_c, 4, 56, 64
7, 7775, Note_on_c, 4, 56, 0
7, 7800, Note_on_c, 4, 52, 64
7, 7835, Note_on_c, 4, 52, 0
7, 7860, Note_on_c, 4, 57, 40
7, 7895, Note_on_c, 4, 57, 0
7, 7920, Note_on_c, 4, 54, 40
7, 7955, Note_on_c, 4, 54, 0
7, 7980, Note_on_c, 4, 56, 40
7, 8015, Note_on_c, 4, 56, 0
7, 8040, Note_on_c, 4, 52, 40
7, 8075, Note_on_c, 4, 52, 0
7, 8100, Note_on_c, 4, 54, 40
7, 8135, Note_on_c, 4, 54, 0
7, 8160, Note_on_c, 4, 47, 40
7, 8195, Note_on_c, 4, 47, 0
7, 8220, Note_on_c, 4, 52, 40
7, 8255, Note_on_c, 4, 52, 0
7, 8280, Note_on_c, 4, 50, 40
7, 8315, Note_on_c, 4, 50, 0
7, 8340, Note_on_c, 4, 49, 64
7, 8375, Note_on_c, 4, 49, 0
7, 8400, Note_on_c, 4, 45, 64
7, 8435, Note_on_c, 4, 45, 0
7, 8460, Note_on_c, 4, 52, 64
7, 8495, Note_on_c, 4, 52, 0
7, 8520, Note_on_c, 4, 56, 64
7, 8555, Note_on_c, 4, 56, 0
7, 8580, Note_on_c, 4, 59, 64
7, 8615, Note_on_c, 4, 59, 0
7, 8640, Note_on_c, 4, 47, 64
7, 8675, Note_on_c, 4, 47, 0
7, 8700, Note_on_c, 4, 52, 64
7, 8735, Note_on_c, 4, 52, 0
7, 9060, Note_on_c, 4, 40, 54
7, 9180, Note_on_c, 4, 40, 0
7, 9300, Note_on_c, 4, 40, 57
7, 9420, Note_on_c, 4, 40, 0
7, 9540, Note_on_c, 4, 40, 61
7, 10055, Note_on_c, 4, 40, 0
7, 10080, Note_on_c, 4, 42, 64
7, 10115, Note_on_c, 4, 42, 0
7, 10140, Note_on_c, 4, 44, 64
7, 10175, Note_on_c, 4, 44, 0
7, 10200, Note_on_c, 4, 42, 64
7, 10235, Note_on_c, 4, 42, 0
7, 10260, Note_on_c, 4, 40, 64
7, 10295, Note_on_c, 4, 40, 0
7, 10320, Note_on_c, 4, 44, 64
7, 10355, Note_on_c, 4, 44, 0
7, 10380, Note_on_c, 4, 42, 64
7, 10415, Note_on_c, 4, 42, 0
7, 10440, Note_on_c, 4, 40, 64
7, 10475, Note_on_c, 4, 40, 0
7, 10500, Note_on_c, 4, 47, 64
7, 10535, Note_on_c, 4, 47, 0
7, 10560, Note_on_c, 4, 49, 64
7, 10590, Note_on_c, 4, 49, 0
7, 10590, Note_on_c, 4, 51, 57
7, 10620, Note_on_c, 4, 51, 0
7, 10620, Note_on_c, 4, 52, 49
7, 10655, Note_on_c, 4, 52, 0
7, 10680, Note_on_c, 4, 40, 35
7, 10715, Note_on_c, 4, 40, 0
7, 10740, Note_on_c, 4, 45, 40
7, 10775, Note_on_c, 4, 45, 0
7, 10800, Note_on_c, 4, 57, 40
7, 10835, Note_on_c, 4, 57, 0
7, 10860, Note_on_c, 4, 56, 40
7, 10895, Note_on_c, 4, 56, 0
7, 10920, Note_on_c, 4, 61, 40
7, 10955, Note_on_c, 4, 61, 0
7, 10980, Note_on_c, 4, 54, 40
7, 11015, Note_on_c, 4, 54, 0
7, 11040, Note_on_c, 4, 59, 40
7, 11075, Note_on_c, 4, 59, 0
7, 11100, Note_on_c, 4, 52, 40
7, 11135, Note_on_c, 4, 52, 0
7, 11160, Note_on_c, 4, 40, 40
7, 11195, Note_on_c, 4, 40, 0
7, 11220, Note_on_c, 4, 45, 64
7, 11255, Note_on_c, 4, 45, 0
7, 11280, Note_on_c, 4, 57, 64
7, 11315, Note_on_c, 4, 57, 0
7, 11340, Note_on_c, 4, 52, 64
7, 11375, Note_on_c, 4, 52, 0
7, 11400, Note_on_c, 4, 49, 64
7, 11435, Note_on_c, 4, 49, 0
7, 11460, Note_on_c, 4, 54, 64
7, 11495, Note_on_c, 4, 54, 0
7, 11520, Note_on_c, 4, 47, 64
7, 11555, Note_on_c, 4, 47, 0
7, 11580, Note_on_c, 4, 52, 64
7, 11615, Note_on_c, 4, 52, 0
7, 11640, Note_on_c, 4, 40, 64
7, 11675, Note_on_c, 4, 40, 0
7, 11700, Note_on_c, 4, 45, 40
7, 11735, Note_on_c, 4, 45, 0
7, 11760, Note_on_c, 4, 47, 46
7, 11795, Note_on_c, 4, 47, 0
7, 11820, Note_on_c, 4, 49, 51
7, 11855, Note_on_c, 4, 49, 0
7, 11880, Note_on_c, 4, 51, 57
7, 11915, Note_on_c, 4, 51, 0
7, 11940, Note_on_c, 4, 52, 63
7, 11975, Note_on_c, 4, 52, 0
7, 12000, Note_on_c, 4, 54, 68
7, 12035, Note_on_c, 4, 54, 0
7, 12060, Note_on_c, 4, 56, 74
7, 12095, Note_on_c, 4, 56, 0
7, 12120, Note_on_c, 4, 57, 79
7, 12215, Note_on_c, 4, 57, 0
7, 12240, Note_on_c, 4, 56, 85
7, 12270, Note_on_c, 4, 56, 0
7, 12270, Note_on_c, 4, 57, 85
7, 12300, Note_on_c, 4, 57, 0
7, 12300, Note_on_c, 4, 59, 85
7, 12335, Note_on_c, 4, 59, 0
7, 12360, Note_on_c, 4, 47, 85
7, 12395, Note_on_c, 4, 47, 0
7, 12420, Note_on_c, 4, 52, 85
7, 12442, Control_c, 4, 7, 127
7, 12455, Note_on_c, 4, 52, 0
7, 12480, Note_on_c, 4, 40, 64
7, 12515, Note_on_c, 4, 40, 0
7, 12540, Note_on_c, 4, 42, 64
7, 12575, Note_on_c, 4, 42, 0
7, 12600, Note_on_c, 4, 44, 64
7, 12635, Note_on_c, 4, 44, 0
7, 12660, Note_on_c, 4, 45, 40
7, 12695, Note_on_c, 4, 45, 0
7, 12720, Note_on_c, 4, 42, 41
7, 12755, Note_on_c, 4, 42, 0
7, 12780, Note_on_c, 4, 47, 43
7, 12815, Note_on_c, 4, 47, 0
7, 12840, Note_on_c, 4, 44, 44
7, 12875, Note_on_c, 4, 44, 0
7, 12900, Note_on_c, 4, 49, 45
7, 12935, Note_on_c, 4, 49, 0
7, 12960, Note_on_c, 4, 49, 46
7, 12995, Note_on_c, 4, 49, 0
7, 13020, Note_on_c, 4, 51, 48
7, 13055, Note_on_c, 4, 51, 0
7, 13080, Note_on_c, 4, 47, 49
7, 13115, Note_on_c, 4, 47, 0
7, 13140, Note_on_c, 4, 52, 50
7, 13175, Note_on_c, 4, 52, 0
7, 13200, Note_on_c, 4, 49, 51
7, 13235, Note_on_c, 4, 49, 0
7, 13260, Note_on_c, 4, 45, 53
7, 13295, Note_on_c, 4, 45, 0
7, 13320, Note_on_c, 4, 47, 54
7, 13355, Note_on_c, 4, 47, 0
7, 13380, Note_on_c, 4, 49, 55
7, 13415, Note_on_c, 4, 49, 0
7, 13560, Note_on_c, 4, 47, 59
7, 13595, Note_on_c, 4, 47, 0
7, 13620, Note_on_c, 4, 46, 60
7, 13655, Note_on_c, 4, 46, 0
7, 13800, Note_on_c, 4, 42, 64
7, 13835, Note_on_c, 4, 42, 0
7, 13860, Note_on_c, 4, 47, 65
7, 13895, Note_on_c, 4, 47, 0
7, 14040, Note_on_c, 4, 51, 69
7, 14075, Note_on_c, 4, 51, 0
7, 14100, Note_on_c, 4, 52, 70
7, 14135, Note_on_c, 4, 52, 0
7, 14160, Note_on_c, 4, 44, 70
7, 14195, Note_on_c, 4, 44, 0
7, 14220, Note_on_c, 4, 45, 70
7, 14255, Note_on_c, 4, 45, 0
7, 14280, Note_on_c, 4, 47, 70
7, 14315, Note_on_c, 4, 47, 0
7, 14340, Note_on_c, 4, 52, 70
7, 14460, Note_on_c, 4, 52, 0
7, 14510, Control_c, 4, 7, 100
7, 14520, Note_on_c, 4, 52, 70
7, 14555, Note_on_c, 4, 52, 0
7, 14580, Note_on_c, 4, 50, 40
7, 14615, Note_on_c, 4, 50, 0
7, 14760, Note_on_c, 4, 46, 40
7, 14795, Note_on_c, 4, 46, 0
7, 14820, Note_on_c, 4, 47, 40
7, 14855, Note_on_c, 4, 47, 0
7, 15000, Note_on_c, 4, 49, 40
7, 15035, Note_on_c, 4, 49, 0
7, 15060, Note_on_c, 4, 45, 40
7, 15095, Note_on_c, 4, 45, 0
7, 15240, Note_on_c, 4, 42, 40
7, 15275, Note_on_c, 4, 42, 0
7, 15300, Note_on_c, 4, 37, 40
7, 15335, Note_on_c, 4, 37, 0
7, 15360, Note_on_c, 4, 49, 40
7, 15450, Note_on_c, 4, 49, 0
7, 15450, Note_on_c, 4, 47, 40
7, 15468, Note_on_c, 4, 47, 0
7, 15480, Note_on_c, 4, 47, 40
7, 15510, Note_on_c, 4, 47, 0
7, 15510, Note_on_c, 4, 45, 40
7, 15528, Note_on_c, 4, 45, 0
7, 15540, Note_on_c, 4, 45, 40
7, 15570, Note_on_c, 4, 45, 0
7, 15570, Note_on_c, 4, 47, 41
7, 15588, Note_on_c, 4, 47, 0
7, 15600, Note_on_c, 4, 47, 42
7, 15630, Note_on_c, 4, 47, 0
7, 15630, Note_on_c, 4, 45, 43
7, 15648, Note_on_c, 4, 45, 0
7, 15660, Note_on_c, 4, 45, 44
7, 15690, Note_on_c, 4, 45, 0
7, 15690, Note_on_c, 4, 44, 45
7, 15708, Note_on_c, 4, 44, 0
7, 15720, Note_on_c, 4, 44, 46
7, 15750, Note_on_c, 4, 44, 0
7, 15750, Note_on_c, 4, 42, 47
7, 15768, Note_on_c, 4, 42, 0
7, 15780, Note_on_c, 4, 42, 48
7, 15815, Note_on_c, 4, 42, 0
7, 15840, Note_on_c, 4, 54, 49
7, 15930, Note_on_c, 4, 54, 0
7, 15930, Note_on_c, 4, 52, 52
7, 15948, Note_on_c, 4, 52, 0
7, 15960, Note_on_c, 4, 52, 53
7, 15990, Note_on_c, 4, 52, 0
7, 15990, Note_on_c, 4, 50, 54
7, 16008, Note_on_c, 4, 50, 0
7, 16020, Note_on_c, 4, 50, 55
7, 16050, Note_on_c, 4, 50, 0
7, 16050, Note_on_c, 4, 52, 56
7, 16068, Note_on_c, 4, 52, 0
7, 16080, Note_on_c, 4, 52, 57
7, 16110, Note_on_c, 4, 52, 0
7, 16110, Note_on_c, 4, 50, 58
7, 16128, Note_on_c, 4, 50, 0
7, 16140, Note_on_c, 4, 50, 59
7, 16170, Note_on_c, 4, 50, 0
7, 16170, Note_on_c, 4, 49, 60
7, 16188, Note_on_c, 4, 49, 0
7, 16200, Note_on_c, 4, 49, 61
7, 16230, Note_on_c, 4, 49, 0
7, 16230, Note_on_c, 4, 47, 62
7, 16248, Note_on_c, 4, 47, 0
7, 16260, Note_on_c, 4, 47, 63
7, 16295, Note_on_c, 4, 47, 0
7, 16320, Note_on_c, 4, 59, 64
7, 16410, Note_on_c, 4, 59, 0
7, 16410, Note_on_c, 4, 57, 67
7, 16428, Note_on_c, 4, 57, 0
7, 16440, Note_on_c, 4, 57, 68
7, 16470, Note_on_c, 4, 57, 0
7, 16470, Note_on_c, 4, 56, 69
7, 16488, Note_on_c, 4, 56, 0
7, 16500, Note_on_c, 4, 56, 64
7, 16535, Note_on_c, 4, 56, 0
7, 16560, Note_on_c, 4, 44, 64
7, 16595, Note_on_c, 4, 44, 0
7, 16620, Note_on_c, 4, 44, 64
7, 16655, Note_on_c, 4, 44, 0
7, 16680, Note_on_c, 4, 44, 64
7, 16715, Note_on_c, 4, 44, 0
7, 16740, Note_on_c, 4, 49, 70
7, 16770, Note_on_c, 4, 49, 0
7, 16770, Note_on_c, 4, 47, 67
7, 16788, Note_on_c, 4, 47, 0
7, 16800, Note_on_c, 4, 47, 64
7, 16830, Note_on_c, 4, 47, 0
7, 16830, Note_on_c, 4, 45, 61
7, 16848, Note_on_c, 4, 45, 0
7, 16860, Note_on_c, 4, 45, 59
7, 16890, Note_on_c, 4, 45, 0
7, 16890, Note_on_c, 4, 44, 56
7, 16908, Note_on_c, 4, 44, 0
7, 16920, Note_on_c, 4, 44, 53
7, 16950, Note_on_c, 4, 44, 0
7, 16950, Note_on_c, 4, 42, 50
7, 16968, Note_on_c, 4, 42, 0
7, 16980, Note_on_c, 4, 42, 64
7, 17015, Note_on_c, 4, 42, 0
7, 17040, Note_on_c, 4, 47, 64
7, 17075, Note_on_c, 4, 47, 0
7, 17100, Note_on_c, 4, 49, 64
7, 17135, Note_on_c, 4, 49, 0
7, 17160, Note_on_c, 4, 37, 64
7, 17195, Note_on_c, 4, 37, 0
7, 17220, Note_on_c, 4, 42, 64
7, 17255, Note_on_c, 4, 42, 0
7, 17280, Note_on_c, 4, 44, 64
7, 17315, Note_on_c, 4, 44, 0
7, 17340, Note_on_c, 4, 45, 64
7, 17375, Note_on_c, 4, 45, 0
7, 17390, Control_c, 4, 7, 127
7, 17400, Note_on_c, 4, 42, 64
7, 17435, Note_on_c, 4, 42, 0
7, 17460, Note_on_c, 4, 47, 50
7, 17495, Note_on_c, 4, 47, 0
7, 17520, Note_on_c, 4, 54, 50
7, 17555, Note_on_c, 4, 54, 0
7, 17580, Note_on_c, 4, 45, 50
7, 17615, Note_on_c, 4, 45, 0
7, 17640, Note_on_c, 4, 54, 50
7, 17675, Note_on_c, 4, 54, 0
7, 17700, Note_on_c, 4, 44, 50
7, 17735, Note_on_c, 4, 44, 0
7, 17760, Note_on_c, 4, 53, 50
7, 17795, Note_on_c, 4, 53, 0
7, 17820, Note_on_c, 4, 54, 50
7, 17855, Note_on_c, 4, 54, 0
7, 17880, Note_on_c, 4, 52, 50
7, 17915, Note_on_c, 4, 52, 0
7, 17940, Note_on_c, 4, 50, 64
7, 17975, Note_on_c, 4, 50, 0
7, 18000, Note_on_c, 4, 47, 64
7, 18035, Note_on_c, 4, 47, 0
7, 18060, Note_on_c, 4, 42, 64
7, 18095, Note_on_c, 4, 42, 0
7, 18120, Note_on_c, 4, 45, 64
7, 18155, Note_on_c, 4, 45, 0
7, 18180, Note_on_c, 4, 49, 64
7, 18215, Note_on_c, 4, 49, 0
7, 18240, Note_on_c, 4, 37, 64
7, 18275, Note_on_c, 4, 37, 0
7, 18300, Note_on_c, 4, 42, 64
7, 18335, Note_on_c, 4, 42, 0
7, 18360, Note_on_c, 4, 45, 64
7, 18395, Note_on_c, 4, 45, 0
7, 18420, Note_on_c, 4, 47, 40
7, 18455, Note_on_c, 4, 47, 0
7, 18480, Note_on_c, 4, 49, 43
7, 18515, Note_on_c, 4, 49, 0
7, 18540, Note_on_c, 4, 51, 46
7, 18575, Note_on_c, 4, 51, 0
7, 18600, Note_on_c, 4, 53, 49
7, 18635, Note_on_c, 4, 53, 0
7, 18660, Note_on_c, 4, 54, 52
7, 18695, Note_on_c, 4, 54, 0
7, 18720, Note_on_c, 4, 56, 55
7, 18755, Note_on_c, 4, 56, 0
7, 18780, Note_on_c, 4, 57, 58
7, 18815, Note_on_c, 4, 57, 0
7, 18840, Note_on_c, 4, 59, 61
7, 18935, Note_on_c, 4, 59, 0
7, 18960, Note_on_c, 4, 57, 64
7, 18990, Note_on_c, 4, 57, 0
7, 18990, Note_on_c, 4, 59, 64
7, 19020, Note_on_c, 4, 59, 0
7, 19020, Note_on_c, 4, 61, 64
7, 19055, Note_on_c, 4, 61, 0
7, 19080, Note_on_c, 4, 49, 64
7, 19115, Note_on_c, 4, 49, 0
7, 19140, Note_on_c, 4, 42, 64
7, 19175, Note_on_c, 4, 42, 0
7, 19200, Note_on_c, 4, 49, 64
7, 19235, Note_on_c, 4, 49, 0
7, 19260, Note_on_c, 4, 54, 54
7, 19295, Note_on_c, 4, 54, 0
7, 19320, Note_on_c, 4, 52, 45
7, 19350, Note_on_c, 4, 52, 0
7, 19350, Note_on_c, 4, 50, 40
7, 19380, Note_on_c, 4, 50, 0
7, 19380, Note_on_c, 4, 49, 40
7, 19415, Note_on_c, 4, 49, 0
7, 19440, Note_on_c, 4, 52, 40
7, 19475, Note_on_c, 4, 52, 0
7, 19500, Note_on_c, 4, 45, 40
7, 19535, Note_on_c, 4, 45, 0
7, 19560, Note_on_c, 4, 49, 40
7, 19595, Note_on_c, 4, 49, 0
7, 19620, Note_on_c, 4, 50, 40
7, 19655, Note_on_c, 4, 50, 0
7, 19680, Note_on_c, 4, 52, 40
7, 19710, Note_on_c, 4, 52, 0
7, 19710, Note_on_c, 4, 54, 40
7, 19740, Note_on_c, 4, 54, 0
7, 19740, Note_on_c, 4, 52, 40
7, 19770, Note_on_c, 4, 52, 0
7, 19770, Note_on_c, 4, 50, 40
7, 19800, Note_on_c, 4, 50, 0
7, 19800, Note_on_c, 4, 49, 40
7, 19830, Note_on_c, 4, 49, 0
7, 19830, Note_on_c, 4, 47, 40
7, 19860, Note_on_c, 4, 47, 0
7, 19860, Note_on_c, 4, 46, 40
7, 19895, Note_on_c, 4, 46, 0
7, 19920, Note_on_c, 4, 49, 40
7, 19955, Note_on_c, 4, 49, 0
7, 19980, Note_on_c, 4, 42, 40
7, 20015, Note_on_c, 4, 42, 0
7, 20040, Note_on_c, 4, 46, 40
7, 20075, Note_on_c, 4, 46, 0
7, 20100, Note_on_c, 4, 47, 40
7, 20190, Note_on_c, 4, 47, 0
7, 20190, Note_on_c, 4, 46, 40
7, 20220, Note_on_c, 4, 46, 0
7, 20220, Note_on_c, 4, 47, 40
7, 20250, Note_on_c, 4, 47, 0
7, 20250, Note_on_c, 4, 49, 40
7, 20280, Note_on_c, 4, 49, 0
7, 20280, Note_on_c, 4, 50, 40
7, 20375, Note_on_c, 4, 50, 0
7, 20400, Note_on_c, 4, 49, 40
7, 20430, Note_on_c, 4, 49, 0
7, 20430, Note_on_c, 4, 47, 40
7, 20460, Note_on_c, 4, 47, 0
7, 20460, Note_on_c, 4, 45, 40
7, 20495, Note_on_c, 4, 45, 0
7, 20520, Note_on_c, 4, 57, 40
7, 20615, Note_on_c, 4, 57, 0
7, 20640, Note_on_c, 4, 56, 40
7, 20670, Note_on_c, 4, 56, 0
7, 20670, Note_on_c, 4, 54, 40
7, 20700, Note_on_c, 4, 54, 0
7, 20700, Note_on_c, 4, 56, 40
7, 20735, Note_on_c, 4, 56, 0
7, 20760, Note_on_c, 4, 49, 40
7, 20795, Note_on_c, 4, 49, 0
7, 20820, Note_on_c, 4, 54, 45
7, 21000, Note_on_c, 4, 54, 0
7, 21000, Note_on_c, 4, 52, 51
7, 21030, Note_on_c, 4, 52, 0
7, 21030, Note_on_c, 4, 51, 52
7, 21060, Note_on_c, 4, 51, 0
7, 21060, Note_on_c, 4, 52, 53
7, 21095, Note_on_c, 4, 52, 0
7, 21120, Note_on_c, 4, 49, 55
7, 21155, Note_on_c, 4, 49, 0
7, 21180, Note_on_c, 4, 45, 57
7, 21215, Note_on_c, 4, 45, 0
7, 21240, Note_on_c, 4, 49, 59
7, 21275, Note_on_c, 4, 49, 0
7, 21300, Note_on_c, 4, 39, 61
7, 21335, Note_on_c, 4, 39, 0
7, 21360, Note_on_c, 4, 49, 62
7, 21395, Note_on_c, 4, 49, 0
7, 21420, Note_on_c, 4, 48, 64
7, 21455, Note_on_c, 4, 48, 0
7, 21480, Note_on_c, 4, 51, 66
7, 21515, Note_on_c, 4, 51, 0
7, 21540, Note_on_c, 4, 54, 68
7, 21575, Note_on_c, 4, 54, 0
7, 21600, Note_on_c, 4, 51, 70
7, 21635, Note_on_c, 4, 51, 0
7, 21660, Note_on_c, 4, 52, 72
7, 21695, Note_on_c, 4, 52, 0
7, 21720, Note_on_c, 4, 49, 74
7, 21755, Note_on_c, 4, 49, 0
7, 21780, Note_on_c, 4, 56, 75
7, 21815, Note_on_c, 4, 56, 0
7, 21840, Note_on_c, 4, 54, 75
7, 21875, Note_on_c, 4, 54, 0
7, 21900, Note_on_c, 4, 56, 75
7, 21935, Note_on_c, 4, 56, 0
7, 21960, Note_on_c, 4, 44, 75
7, 21995, Note_on_c, 4, 44, 0
7, 22020, Note_on_c, 4, 49, 75
7, 22140, Note_on_c, 4, 49, 0
7, 22920, Note_on_c, 4, 38, 64
7, 22980, Note_on_c, 4, 38, 0
7, 22980, Note_on_c, 4, 45, 66
7, 23010, Note_on_c, 4, 45, 0
7, 23010, Note_on_c, 4, 49, 67
7, 23028, Note_on_c, 4, 49, 0
7, 23040, Note_on_c, 4, 49, 68
7, 23070, Note_on_c, 4, 49, 0
7, 23070, Note_on_c, 4, 47, 70
7, 23088, Note_on_c, 4, 47, 0
7, 23100, Note_on_c, 4, 47, 71
7, 23130, Note_on_c, 4, 47, 0
7, 23130, Note_on_c, 4, 50, 72
7, 23148, Note_on_c, 4, 50, 0
7, 23160, Note_on_c, 4, 50, 73
7, 23190, Note_on_c, 4, 50, 0
7, 23190, Note_on_c, 4, 49, 74
7, 23208, Note_on_c, 4, 49, 0
7, 23220, Note_on_c, 4, 49, 50
7, 23255, Note_on_c, 4, 49, 0
7, 23280, Note_on_c, 4, 45, 52
7, 23315, Note_on_c, 4, 45, 0
7, 23340, Note_on_c, 4, 50, 54
7, 23375, Note_on_c, 4, 50, 0
7, 23400, Note_on_c, 4, 47, 55
7, 23435, Note_on_c, 4, 47, 0
7, 23460, Note_on_c, 4, 49, 57
7, 23520, Note_on_c, 4, 49, 0
7, 23520, Note_on_c, 4, 47, 59
7, 23550, Note_on_c, 4, 47, 0
7, 23550, Note_on_c, 4, 45, 60
7, 23580, Note_on_c, 4, 45, 0
7, 23580, Note_on_c, 4, 44, 61
7, 23615, Note_on_c, 4, 44, 0
7, 23640, Note_on_c, 4, 40, 62
7, 23675, Note_on_c, 4, 40, 0
7, 23700, Note_on_c, 4, 45, 64
7, 23735, Note_on_c, 4, 45, 0
7, 23760, Note_on_c, 4, 49, 64
7, 23795, Note_on_c, 4, 49, 0
7, 23820, Note_on_c, 4, 47, 64
7, 23855, Note_on_c, 4, 47, 0
7, 23880, Note_on_c, 4, 45, 64
7, 23915, Note_on_c, 4, 45, 0
7, 23940, Note_on_c, 4, 52, 64
7, 23975, Note_on_c, 4, 52, 0
7, 24000, Note_on_c, 4, 54, 56
7, 24035, Note_on_c, 4, 54, 0
7, 24060, Note_on_c, 4, 56, 48
7, 24095, Note_on_c, 4, 56, 0
7, 24120, Note_on_c, 4, 52, 40
7, 24155, Note_on_c, 4, 52, 0
7, 24180, Note_on_c, 4, 57, 40
7, 24215, Note_on_c, 4, 57, 0
7, 24240, Note_on_c, 4, 54, 40
7, 24275, Note_on_c, 4, 54, 0
7, 24300, Note_on_c, 4, 56, 40
7, 24335, Note_on_c, 4, 56, 0
7, 24360, Note_on_c, 4, 52, 40
7, 24395, Note_on_c, 4, 52, 0
7, 24420, Note_on_c, 4, 54, 40
7, 24455, Note_on_c, 4, 54, 0
7, 24480, Note_on_c, 4, 47, 40
7, 24515, Note_on_c, 4, 47, 0
7, 24540, Note_on_c, 4, 52, 40
7, 24575, Note_on_c, 4, 52, 0
7, 24600, Note_on_c, 4, 40, 40
7, 24635, Note_on_c, 4, 40, 0
7, 24660, Note_on_c, 4, 45, 64
7, 24695, Note_on_c, 4, 45, 0
7, 24720, Note_on_c, 4, 57, 64
7, 24755, Note_on_c, 4, 57, 0
7, 24780, Note_on_c, 4, 52, 64
7, 24815, Note_on_c, 4, 52, 0
7, 24840, Note_on_c, 4, 56, 64
7, 24875, Note_on_c, 4, 56, 0
7, 24900, Note_on_c, 4, 59, 64
7, 24935, Note_on_c, 4, 59, 0
7, 24960, Note_on_c, 4, 47, 64
7, 24995, Note_on_c, 4, 47, 0
7, 25020, Note_on_c, 4, 40, 64
7, 25055, Note_on_c, 4, 40, 0
7, 25080, Note_on_c, 4, 52, 64
7, 25110, Note_on_c, 4, 52, 0
7, 25110, Note_on_c, 4, 50, 64
7, 25140, Note_on_c, 4, 50, 0
7, 25140, Note_on_c, 4, 49, 40
7, 25175, Note_on_c, 4, 49, 0
7, 25200, Note_on_c, 4, 47, 40
7, 25235, Note_on_c, 4, 47, 0
7, 25260, Note_on_c, 4, 46, 40
7, 25295, Note_on_c, 4, 46, 0
7, 25320, Note_on_c, 4, 42, 40
7, 25355, Note_on_c, 4, 42, 0
7, 25380, Note_on_c, 4, 47, 40
7, 25415, Note_on_c, 4, 47, 0
7, 25440, Note_on_c, 4, 54, 40
7, 25475, Note_on_c, 4, 54, 0
7, 25500, Note_on_c, 4, 59, 40
7, 25535, Note_on_c, 4, 59, 0
7, 25560, Note_on_c, 4, 50, 40
7, 25590, Note_on_c, 4, 50, 0
7, 25590, Note_on_c, 4, 49, 40
7, 25620, Note_on_c, 4, 49, 0
7, 25620, Note_on_c, 4, 47, 40
7, 25655, Note_on_c, 4, 47, 0
7, 25680, Note_on_c, 4, 45, 40
7, 25715, Note_on_c, 4, 45, 0
7, 25740, Note_on_c, 4, 44, 40
7, 25775, Note_on_c, 4, 44, 0
7, 25800, Note_on_c, 4, 40, 40
7, 25835, Note_on_c, 4, 40, 0
7, 25860, Note_on_c, 4, 45, 40
7, 25895, Note_on_c, 4, 45, 0
7, 25920, Note_on_c, 4, 52, 40
7, 25955, Note_on_c, 4, 52, 0
7, 25980, Note_on_c, 4, 57, 40
7, 26015, Note_on_c, 4, 57, 0
7, 26040, Note_on_c, 4, 45, 40
7, 26075, Note_on_c, 4, 45, 0
7, 26100, Note_on_c, 4, 38, 40
7, 26135, Note_on_c, 4, 38, 0
7, 26160, Note_on_c, 4, 50, 40
7, 26195, Note_on_c, 4, 50, 0
7, 26220, Note_on_c, 4, 49, 40
7, 26255, Note_on_c, 4, 49, 0
7, 26280, Note_on_c, 4, 54, 40
7, 26315, Note_on_c, 4, 54, 0
7, 26340, Note_on_c, 4, 47, 40
7, 26375, Note_on_c, 4, 47, 0
7, 26400, Note_on_c, 4, 52, 40
7, 26435, Note_on_c, 4, 52, 0
7, 26460, Note_on_c, 4, 45, 40
7, 26495, Note_on_c, 4, 45, 0
7, 26520, Note_on_c, 4, 57, 40
7, 26555, Note_on_c, 4, 57, 0
7, 26580, Note_on_c, 4, 62, 40
7, 26615, Note_on_c, 4, 62, 0
7, 26640, Note_on_c, 4, 50, 40
7, 26675, Note_on_c, 4, 50, 0
7, 26700, Note_on_c, 4, 49, 40
7, 26735, Note_on_c, 4, 49, 0
7, 26760, Note_on_c, 4, 54, 40
7, 26795, Note_on_c, 4, 54, 0
7, 26820, Note_on_c, 4, 47, 40
7, 26855, Note_on_c, 4, 47, 0
7, 26880, Note_on_c, 4, 40, 40
7, 26915, Note_on_c, 4, 40, 0
7, 26940, Note_on_c, 4, 45, 40
7, 26975, Note_on_c, 4, 45, 0
7, 27000, Note_on_c, 4, 49, 40
7, 27035, Note_on_c, 4, 49, 0
7, 27060, Note_on_c, 4, 50, 40
7, 27095, Note_on_c, 4, 50, 0
7, 27120, Note_on_c, 4, 52, 45
7, 27155, Note_on_c, 4, 52, 0
7, 27180, Note_on_c, 4, 54, 49
7, 27215, Note_on_c, 4, 54, 0
7, 27240, Note_on_c, 4, 56, 54
7, 27275, Note_on_c, 4, 56, 0
7, 27300, Note_on_c, 4, 57, 58
7, 27335, Note_on_c, 4, 57, 0
7, 27360, Note_on_c, 4, 59, 63
7, 27395, Note_on_c, 4, 59, 0
7, 27420, Note_on_c, 4, 61, 67
7, 27455, Note_on_c, 4, 61, 0
7, 27480, Note_on_c, 4, 62, 72
7, 27575, Note_on_c, 4, 62, 0
7, 27600, Note_on_c, 4, 61, 70
7, 27630, Note_on_c, 4, 61, 0
7, 27630, Note_on_c, 4, 62, 70
7, 27660, Note_on_c, 4, 62, 0
7, 27660, Note_on_c, 4, 64, 70
7, 27695, Note_on_c, 4, 64, 0
7, 27720, Note_on_c, 4, 52, 70
7, 27755, Note_on_c, 4, 52, 0
7, 27780, Note_on_c, 4, 57, 70
7, 27815, Note_on_c, 4, 57, 0
7, 27840, Note_on_c, 4, 45, 70
7, 27850, Control_c, 4, 7, 127
7, 27875, Note_on_c, 4, 45, 0
7, 27900, Note_on_c, 4, 47, 70
7, 27935, Note_on_c, 4, 47, 0
7, 27960, Note_on_c, 4, 49, 70
7, 27995, Note_on_c, 4, 49, 0
7, 28020, Note_on_c, 4, 50, 64
7, 28055, Note_on_c, 4, 50, 0
7, 28080, Note_on_c, 4, 47, 64
7, 28115, Note_on_c, 4, 47, 0
7, 28140, Note_on_c, 4, 52, 64
7, 28175, Note_on_c, 4, 52, 0
7, 28200, Note_on_c, 4, 49, 65
7, 28235, Note_on_c, 4, 49, 0
7, 28260, Note_on_c, 4, 54, 65
7, 28295, Note_on_c, 4, 54, 0
7, 28320, Note_on_c, 4, 42, 65
7, 28355, Note_on_c, 4, 42, 0
7, 28380, Note_on_c, 4, 44, 65
7, 28415, Note_on_c, 4, 44, 0
7, 28440, Note_on_c, 4, 40, 65
7, 28475, Note_on_c, 4, 40, 0
7, 28500, Note_on_c, 4, 45, 66
7, 28535, Note_on_c, 4, 45, 0
7, 28560, Note_on_c, 4, 42, 66
7, 28595, Note_on_c, 4, 42, 0
7, 28620, Note_on_c, 4, 38, 66
7, 28655, Note_on_c, 4, 38, 0
7, 28680, Note_on_c, 4, 40, 66
7, 28715, Note_on_c, 4, 40, 0
7, 28740, Note_on_c, 4, 42, 66
7, 28775, Note_on_c, 4, 42, 0
7, 28920, Note_on_c, 4, 52, 67
7, 28955, Note_on_c, 4, 52, 0
7, 28980, Note_on_c, 4, 51, 67
7, 29015, Note_on_c, 4, 51, 0
7, 29160, Note_on_c, 4, 47, 68
7, 29195, Note_on_c, 4, 47, 0
7, 29220, Note_on_c, 4, 52, 68
7, 29255, Note_on_c, 4, 52, 0
7, 29400, Note_on_c, 4, 56, 68
7, 29435, Note_on_c, 4, 56, 0
7, 29460, Note_on_c, 4, 57, 69
7, 29495, Note_on_c, 4, 57, 0
7, 29520, Note_on_c, 4, 49, 69
7, 29555, Note_on_c, 4, 49, 0
7, 29580, Note_on_c, 4, 50, 69
7, 29615, Note_on_c, 4, 50, 0
7, 29640, Note_on_c, 4, 52, 69
7, 29675, Note_on_c, 4, 52, 0
7, 29700, Note_on_c, 4, 45, 69
7, 29940, Note_on_c, 4, 45, 0
7, 30420, End_track
8, 0, Start_track
8, 0, MIDI_port, 0
8, 0, Title_t, "Soprano"
8, 0, Program_c, 5, 53
8, 5460, Control_c, 5, 7, 127
8, 5880, Note_on_c, 5, 64, 59
8, 5940, Note_on_c, 5, 64, 0
8, 5940, Note_on_c, 5, 69, 60
8, 5947, Note_on_c, 5, 69, 0
8, 5947, Note_on_c, 5, 71, 60
8, 5955, Note_on_c, 5, 71, 0
8, 5955, Note_on_c, 5, 69, 60
8, 5970, Note_on_c, 5, 69, 0
8, 5970, Note_on_c, 5, 68, 61
8, 6000, Note_on_c, 5, 68, 0
8, 6000, Note_on_c, 5, 69, 61
8, 6030, Note_on_c, 5, 69, 0
8, 6030, Note_on_c, 5, 71, 62
8, 6060, Note_on_c, 5, 71, 0
8, 6060, Note_on_c, 5, 71, 63
8, 6067, Note_on_c, 5, 71, 0
8, 6067, Note_on_c, 5, 73, 63
8, 6075, Note_on_c, 5, 73, 0
8, 6075, Note_on_c, 5, 71, 63
8, 6090, Note_on_c, 5, 71, 0
8, 6090, Note_on_c, 5, 69, 63
8, 6120, Note_on_c, 5, 69, 0
8, 6120, Note_on_c, 5, 71, 64
8, 6150, Note_on_c, 5, 71, 0
8, 6150, Note_on_c, 5, 73, 64
8, 6180, Note_on_c, 5, 73, 0
8, 6180, Note_on_c, 5, 73, 65
8, 6187, Note_on_c, 5, 73, 0
8, 6187, Note_on_c, 5, 74, 65
8, 6195, Note_on_c, 5, 74, 0
8, 6195, Note_on_c, 5, 73, 65
8, 6210, Note_on_c, 5, 73, 0
8, 6210, Note_on_c, 5, 71, 66
8, 6240, Note_on_c, 5, 71, 0
8, 6240, Note_on_c, 5, 73, 66
8, 6270, Note_on_c, 5, 73, 0
8, 6270, Note_on_c, 5, 74, 67
8, 6300, Note_on_c, 5, 74, 0
8, 6300, Note_on_c, 5, 74, 68
8, 6307, Note_on_c, 5, 74, 0
8, 6307, Note_on_c, 5, 76, 68
8, 6315, Note_on_c, 5, 76, 0
8, 6315, Note_on_c, 5, 74, 68
8, 6330, Note_on_c, 5, 74, 0
8, 6330, Note_on_c, 5, 73, 68
8, 6360, Note_on_c, 5, 73, 0
8, 6360, Note_on_c, 5, 74, 69
8, 6390, Note_on_c, 5, 74, 0
8, 6390, Note_on_c, 5, 76, 69
8, 6420, Note_on_c, 5, 76, 0
8, 6420, Note_on_c, 5, 76, 70
8, 6450, Note_on_c, 5, 76, 0
8, 6450, Note_on_c, 5, 73, 70
8, 6480, Note_on_c, 5, 73, 0
8, 6480, Note_on_c, 5, 69, 70
8, 6570, Note_on_c, 5, 69, 0
8, 6570, Note_on_c, 5, 67, 70
8, 6600, Note_on_c, 5, 67, 0
8, 6600, Note_on_c, 5, 66, 70
8, 6630, Note_on_c, 5, 66, 0
8, 6630, Note_on_c, 5, 69, 70
8, 6660, Note_on_c, 5, 69, 0
8, 6660, Note_on_c, 5, 67, 70
8, 6667, Note_on_c, 5, 67, 0
8, 6667, Note_on_c, 5, 69, 70
8, 6675, Note_on_c, 5, 69, 0
8, 6675, Note_on_c, 5, 67, 70
8, 6690, Note_on_c, 5, 67, 0
8, 6690, Note_on_c, 5, 66, 70
8, 6720, Note_on_c, 5, 66, 0
8, 6720, Note_on_c, 5, 67, 70
8, 6810, Note_on_c, 5, 67, 0
8, 6810, Note_on_c, 5, 66, 70
8, 6840, Note_on_c, 5, 66, 0
8, 6840, Note_on_c, 5, 67, 70
8, 6930, Note_on_c, 5, 67, 0
8, 6930, Note_on_c, 5, 64, 70
8, 6960, Note_on_c, 5, 64, 0
8, 6960, Note_on_c, 5, 66, 70
8, 6990, Note_on_c, 5, 66, 0
8, 6990, Note_on_c, 5, 67, 70
8, 7020, Note_on_c, 5, 67, 0
8, 7020, Note_on_c, 5, 66, 70
8, 7080, Note_on_c, 5, 66, 0
8, 7080, Note_on_c, 5, 62, 70
8, 7140, Note_on_c, 5, 62, 0
8, 7140, Note_on_c, 5, 64, 70
8, 7260, Note_on_c, 5, 64, 0
8, 7290, Note_on_c, 5, 68, 70
8, 7320, Note_on_c, 5, 68, 0
8, 7320, Note_on_c, 5, 71, 70
8, 7350, Note_on_c, 5, 71, 0
8, 7350, Note_on_c, 5, 76, 70
8, 7380, Note_on_c, 5, 76, 0
8, 7380, Note_on_c, 5, 74, 75
8, 7410, Note_on_c, 5, 74, 0
8, 7410, Note_on_c, 5, 73, 75
8, 7440, Note_on_c, 5, 73, 0
8, 7440, Note_on_c, 5, 71, 75
8, 7470, Note_on_c, 5, 71, 0
8, 7470, Note_on_c, 5, 69, 75
8, 7500, Note_on_c, 5, 69, 0
8, 7500, Note_on_c, 5, 74, 75
8, 7560, Note_on_c, 5, 74, 0
8, 7560, Note_on_c, 5, 73, 75
8, 7620, Note_on_c, 5, 73, 0
8, 7620, Note_on_c, 5, 71, 75
8, 7740, Note_on_c, 5, 71, 0
8, 8280, Note_on_c, 5, 71, 70
8, 8340, Note_on_c, 5, 71, 0
8, 8340, Note_on_c, 5, 73, 75
8, 8370, Note_on_c, 5, 73, 0
8, 8370, Note_on_c, 5, 69, 75
8, 8430, Note_on_c, 5, 69, 0
8, 8430, Note_on_c, 5, 71, 75
8, 8445, Note_on_c, 5, 71, 0
8, 8445, Note_on_c, 5, 73, 75
8, 8460, Note_on_c, 5, 73, 0
8, 8460, Note_on_c, 5, 71, 75
8, 8490, Note_on_c, 5, 71, 0
8, 8490, Note_on_c, 5, 68, 75
8, 8550, Note_on_c, 5, 68, 0
8, 8550, Note_on_c, 5, 69, 75
8, 8565, Note_on_c, 5, 69, 0
8, 8565, Note_on_c, 5, 71, 75
8, 8580, Note_on_c, 5, 71, 0
8, 8580, Note_on_c, 5, 69, 75
8, 8610, Note_on_c, 5, 69, 0
8, 8610, Note_on_c, 5, 66, 75
8, 8670, Note_on_c, 5, 66, 0
8, 8670, Note_on_c, 5, 68, 75
8, 8685, Note_on_c, 5, 68, 0
8, 8685, Note_on_c, 5, 69, 75
8, 8700, Note_on_c, 5, 69, 0
8, 8700, Note_on_c, 5, 68, 75
8, 8718, Note_on_c, 5, 68, 0
8, 8730, Note_on_c, 5, 64, 75
8, 8760, Note_on_c, 5, 64, 0
8, 8760, Note_on_c, 5, 68, 75
8, 8790, Note_on_c, 5, 68, 0
8, 8790, Note_on_c, 5, 71, 75
8, 8820, Note_on_c, 5, 71, 0
8, 8820, Note_on_c, 5, 76, 75
8, 8880, Note_on_c, 5, 76, 0
8, 8880, Note_on_c, 5, 71, 75
8, 9000, Note_on_c, 5, 71, 0
8, 9000, Note_on_c, 5, 69, 75
8, 9030, Note_on_c, 5, 69, 0
8, 9030, Note_on_c, 5, 71, 75
8, 9060, Note_on_c, 5, 71, 0
8, 9060, Note_on_c, 5, 64, 75
8, 9180, Note_on_c, 5, 64, 0
8, 9420, Note_on_c, 5, 64, 53
8, 9570, Note_on_c, 5, 64, 0
8, 9570, Note_on_c, 5, 68, 56
8, 9588, Note_on_c, 5, 68, 0
8, 9600, Note_on_c, 5, 68, 56
8, 9630, Note_on_c, 5, 68, 0
8, 9630, Note_on_c, 5, 66, 57
8, 9648, Note_on_c, 5, 66, 0
8, 9660, Note_on_c, 5, 66, 58
8, 9690, Note_on_c, 5, 66, 0
8, 9690, Note_on_c, 5, 69, 58
8, 9720, Note_on_c, 5, 69, 0
8, 9720, Note_on_c, 5, 69, 59
8, 9750, Note_on_c, 5, 69, 0
8, 9750, Note_on_c, 5, 68, 59
8, 9780, Note_on_c, 5, 68, 0
8, 9780, Note_on_c, 5, 68, 60
8, 9810, Note_on_c, 5, 68, 0
8, 9810, Note_on_c, 5, 71, 61
8, 9840, Note_on_c, 5, 71, 0
8, 9840, Note_on_c, 5, 71, 61
8, 9870, Note_on_c, 5, 71, 0
8, 9870, Note_on_c, 5, 69, 62
8, 9930, Note_on_c, 5, 69, 0
8, 9930, Note_on_c, 5, 73, 63
8, 9960, Note_on_c, 5, 73, 0
8, 9960, Note_on_c, 5, 73, 64
8, 9990, Note_on_c, 5, 73, 0
8, 9990, Note_on_c, 5, 71, 64
8, 10020, Note_on_c, 5, 71, 0
8, 10020, Note_on_c, 5, 71, 65
8, 10530, Note_on_c, 5, 71, 0
8, 10530, Note_on_c, 5, 69, 59
8, 10548, Note_on_c, 5, 69, 0
8, 10560, Note_on_c, 5, 69, 58
8, 10590, Note_on_c, 5, 69, 0
8, 10590, Note_on_c, 5, 68, 57
8, 10608, Note_on_c, 5, 68, 0
8, 10620, Note_on_c, 5, 68, 57
8, 10650, Note_on_c, 5, 68, 0
8, 10650, Note_on_c, 5, 66, 56
8, 10668, Note_on_c, 5, 66, 0
8, 10680, Note_on_c, 5, 68, 56
8, 10800, Note_on_c, 5, 68, 0
8, 10800, Note_on_c, 5, 66, 53
8, 10890, Note_on_c, 5, 66, 0
8, 10890, Note_on_c, 5, 68, 52
8, 10920, Note_on_c, 5, 68, 0
8, 10920, Note_on_c, 5, 64, 51
8, 11010, Note_on_c, 5, 64, 0
8, 11010, Note_on_c, 5, 63, 49
8, 11040, Note_on_c, 5, 63, 0
8, 11040, Note_on_c, 5, 63, 49
8, 11070, Note_on_c, 5, 63, 0
8, 11070, Note_on_c, 5, 64, 48
8, 11100, Note_on_c, 5, 64, 0
8, 11100, Note_on_c, 5, 64, 47
8, 11118, Note_on_c, 5, 64, 0
8, 11130, Note_on_c, 5, 71, 50
8, 11190, Note_on_c, 5, 71, 0
8, 11190, Note_on_c, 5, 73, 66
8, 11205, Note_on_c, 5, 73, 0
8, 11205, Note_on_c, 5, 74, 70
8, 11220, Note_on_c, 5, 74, 0
8, 11220, Note_on_c, 5, 73, 64
8, 11250, Note_on_c, 5, 73, 0
8, 11250, Note_on_c, 5, 69, 64
8, 11310, Note_on_c, 5, 69, 0
8, 11310, Note_on_c, 5, 71, 64
8, 11325, Note_on_c, 5, 71, 0
8, 11325, Note_on_c, 5, 73, 64
8, 11340, Note_on_c, 5, 73, 0
8, 11340, Note_on_c, 5, 71, 64
8, 11375, Note_on_c, 5, 71, 0
8, 11400, Note_on_c, 5, 76, 64
8, 11430, Note_on_c, 5, 76, 0
8, 11430, Note_on_c, 5, 73, 64
8, 11460, Note_on_c, 5, 73, 0
8, 11460, Note_on_c, 5, 69, 64
8, 11490, Note_on_c, 5, 69, 0
8, 11490, Note_on_c, 5, 68, 64
8, 11520, Note_on_c, 5, 68, 0
8, 11520, Note_on_c, 5, 69, 64
8, 11580, Note_on_c, 5, 69, 0
8, 11580, Note_on_c, 5, 68, 64
8, 11615, Note_on_c, 5, 68, 0
8, 11640, Note_on_c, 5, 71, 64
8, 11670, Note_on_c, 5, 71, 0
8, 11670, Note_on_c, 5, 68, 64
8, 11700, Note_on_c, 5, 68, 0
8, 11700, Note_on_c, 5, 64, 40
8, 11730, Note_on_c, 5, 64, 0
8, 11730, Note_on_c, 5, 66, 43
8, 11790, Note_on_c, 5, 66, 0
8, 11790, Note_on_c, 5, 68, 48
8, 11850, Note_on_c, 5, 68, 0
8, 11850, Note_on_c, 5, 69, 54
8, 11910, Note_on_c, 5, 69, 0
8, 11910, Note_on_c, 5, 71, 60
8, 11970, Note_on_c, 5, 71, 0
8, 11970, Note_on_c, 5, 73, 65
8, 12030, Note_on_c, 5, 73, 0
8, 12030, Note_on_c, 5, 75, 71
8, 12090, Note_on_c, 5, 75, 0
8, 12090, Note_on_c, 5, 76, 77
8, 12120, Note_on_c, 5, 76, 0
8, 12120, Note_on_c, 5, 75, 79
8, 12150, Note_on_c, 5, 75, 0
8, 12150, Note_on_c, 5, 73, 82
8, 12180, Note_on_c, 5, 73, 0
8, 12180, Note_on_c, 5, 71, 85
8, 12240, Note_on_c, 5, 71, 0
8, 12240, Note_on_c, 5, 64, 85
8, 12300, Note_on_c, 5, 64, 0
8, 12300, Note_on_c, 5, 68, 85
8, 12330, Note_on_c, 5, 68, 0
8, 12330, Note_on_c, 5, 66, 85
8, 12360, Note_on_c, 5, 66, 0
8, 12360, Note_on_c, 5, 64, 85
8, 12390, Note_on_c, 5, 64, 0
8, 12390, Note_on_c, 5, 63, 85
8, 12420, Note_on_c, 5, 63, 0
8, 12420, Note_on_c, 5, 64, 85
8, 12540, Note_on_c, 5, 64, 0
8, 14100, Control_c, 5, 7, 127
8, 14520, Note_on_c, 5, 68, 70
8, 14550, Note_on_c, 5, 68, 0
8, 14550, Note_on_c, 5, 70, 70
8, 14580, Note_on_c, 5, 70, 0
8, 14580, Note_on_c, 5, 71, 64
8, 14640, Note_on_c, 5, 71, 0
8, 14640, Note_on_c, 5, 73, 64
8, 14655, Note_on_c, 5, 73, 0
8, 14655, Note_on_c, 5, 71, 64
8, 14670, Note_on_c, 5, 71, 0
8, 14670, Note_on_c, 5, 70, 64
8, 14700, Note_on_c, 5, 70, 0
8, 14700, Note_on_c, 5, 71, 64
8, 14760, Note_on_c, 5, 71, 0
8, 14760, Note_on_c, 5, 73, 64
8, 14820, Note_on_c, 5, 73, 0
8, 14820, Note_on_c, 5, 74, 64
8, 14855, Note_on_c, 5, 74, 0
8, 14880, Note_on_c, 5, 73, 64
8, 14910, Note_on_c, 5, 73, 0
8, 14910, Note_on_c, 5, 71, 64
8, 14940, Note_on_c, 5, 71, 0
8, 14940, Note_on_c, 5, 69, 64
8, 14970, Note_on_c, 5, 69, 0
8, 14970, Note_on_c, 5, 71, 64
8, 15000, Note_on_c, 5, 71, 0
8, 15000, Note_on_c, 5, 68, 64
8, 15060, Note_on_c, 5, 68, 0
8, 15060, Note_on_c, 5, 73, 64
8, 15090, Note_on_c, 5, 73, 0
8, 15090, Note_on_c, 5, 66, 64
8, 15120, Note_on_c, 5, 66, 0
8, 15120, Note_on_c, 5, 65, 64
8, 15150, Note_on_c, 5, 65, 0
8, 15150, Note_on_c, 5, 66, 64
8, 15180, Note_on_c, 5, 66, 0
8, 15180, Note_on_c, 5, 71, 64
8, 15210, Note_on_c, 5, 71, 0
8, 15210, Note_on_c, 5, 68, 64
8, 15228, Note_on_c, 5, 68, 0
8, 15240, Note_on_c, 5, 69, 64
8, 15270, Note_on_c, 5, 69, 0
8, 15270, Note_on_c, 5, 66, 64
8, 15300, Note_on_c, 5, 66, 0
8, 15300, Note_on_c, 5, 68, 64
8, 15330, Note_on_c, 5, 68, 0
8, 15330, Note_on_c, 5, 65, 64
8, 15360, Note_on_c, 5, 65, 0
8, 15360, Note_on_c, 5, 61, 64
8, 15420, Note_on_c, 5, 61, 0
8, 15420, Note_on_c, 5, 73, 64
8, 15480, Note_on_c, 5, 73, 0
8, 15600, Note_on_c, 5, 65, 51
8, 15660, Note_on_c, 5, 65, 0
8, 15660, Note_on_c, 5, 66, 52
8, 15720, Note_on_c, 5, 66, 0
8, 15720, Note_on_c, 5, 68, 53
8, 15780, Note_on_c, 5, 68, 0
8, 15780, Note_on_c, 5, 69, 54
8, 15840, Note_on_c, 5, 69, 0
8, 15840, Note_on_c, 5, 71, 55
8, 15855, Note_on_c, 5, 71, 0
8, 15855, Note_on_c, 5, 69, 56
8, 15870, Note_on_c, 5, 69, 0
8, 15870, Note_on_c, 5, 68, 56
8, 15900, Note_on_c, 5, 68, 0
8, 15900, Note_on_c, 5, 69, 57
8, 15960, Note_on_c, 5, 69, 0
8, 16080, Note_on_c, 5, 66, 60
8, 16140, Note_on_c, 5, 66, 0
8, 16140, Note_on_c, 5, 71, 61
8, 16170, Note_on_c, 5, 71, 0
8, 16170, Note_on_c, 5, 70, 61
8, 16188, Note_on_c, 5, 70, 0
8, 16200, Note_on_c, 5, 70, 62
8, 16230, Note_on_c, 5, 70, 0
8, 16230, Note_on_c, 5, 71, 62
8, 16248, Note_on_c, 5, 71, 0
8, 16260, Note_on_c, 5, 71, 63
8, 16380, Note_on_c, 5, 71, 0
8, 16410, Note_on_c, 5, 66, 66
8, 16440, Note_on_c, 5, 66, 0
8, 16440, Note_on_c, 5, 65, 66
8, 16470, Note_on_c, 5, 65, 0
8, 16470, Note_on_c, 5, 66, 67
8, 16500, Note_on_c, 5, 66, 0
8, 16500, Note_on_c, 5, 72, 67
8, 16680, Note_on_c, 5, 72, 0
8, 16680, Note_on_c, 5, 73, 71
8, 16695, Note_on_c, 5, 73, 0
8, 16695, Note_on_c, 5, 72, 71
8, 16710, Note_on_c, 5, 72, 0
8, 16710, Note_on_c, 5, 70, 71
8, 16725, Note_on_c, 5, 70, 0
8, 16725, Note_on_c, 5, 72, 71
8, 16740, Note_on_c, 5, 72, 0
8, 16740, Note_on_c, 5, 73, 72
8, 16800, Note_on_c, 5, 73, 0
8, 16800, Note_on_c, 5, 68, 73
8, 16860, Note_on_c, 5, 68, 0
8, 16860, Note_on_c, 5, 66, 74
8, 16890, Note_on_c, 5, 66, 0
8, 16890, Note_on_c, 5, 65, 74
8, 16908, Note_on_c, 5, 65, 0
8, 16920, Note_on_c, 5, 71, 75
8, 16980, Note_on_c, 5, 71, 0
8, 16980, Note_on_c, 5, 69, 78
8, 17010, Note_on_c, 5, 69, 0
8, 17010, Note_on_c, 5, 74, 78
8, 17040, Note_on_c, 5, 74, 0
8, 17040, Note_on_c, 5, 73, 78
8, 17070, Note_on_c, 5, 73, 0
8, 17070, Note_on_c, 5, 71, 78
8, 17100, Note_on_c, 5, 71, 0
8, 17100, Note_on_c, 5, 69, 78
8, 17135, Note_on_c, 5, 69, 0
8, 17160, Note_on_c, 5, 68, 78
8, 17195, Note_on_c, 5, 68, 0
8, 17220, Note_on_c, 5, 66, 78
8, 17340, Note_on_c, 5, 66, 0
8, 17390, Control_c, 5, 7, 127
8, 19245, Note_on_c, 5, 71, 64
8, 19260, Note_on_c, 5, 71, 0
8, 19260, Note_on_c, 5, 69, 64
8, 19290, Note_on_c, 5, 69, 0
8, 19290, Note_on_c, 5, 68, 64
8, 19320, Note_on_c, 5, 68, 0
8, 19320, Note_on_c, 5, 69, 64
8, 19338, Note_on_c, 5, 69, 0
8, 19350, Note_on_c, 5, 69, 64
8, 19350, Note_on_c, 5, 73, 64
8, 19365, Note_on_c, 5, 73, 0
8, 19365, Note_on_c, 5, 74, 64
8, 19380, Note_on_c, 5, 74, 0
8, 19380, Note_on_c, 5, 69, 0
8, 19380, Note_on_c, 5, 76, 64
8, 19470, Note_on_c, 5, 76, 0
8, 19470, Note_on_c, 5, 74, 64
8, 19500, Note_on_c, 5, 74, 0
8, 19500, Note_on_c, 5, 73, 64
8, 19530, Note_on_c, 5, 73, 0
8, 19530, Note_on_c, 5, 71, 64
8, 19560, Note_on_c, 5, 71, 0
8, 19560, Note_on_c, 5, 69, 64
8, 19590, Note_on_c, 5, 69, 0
8, 19590, Note_on_c, 5, 67, 64
8, 19620, Note_on_c, 5, 67, 0
8, 19620, Note_on_c, 5, 66, 64
8, 19655, Note_on_c, 5, 66, 0
8, 19680, Note_on_c, 5, 66, 64
8, 19725, Note_on_c, 5, 71, 64
8, 19740, Note_on_c, 5, 71, 0
8, 19740, Note_on_c, 5, 66, 0
8, 19740, Note_on_c, 5, 70, 64
8, 19830, Note_on_c, 5, 70, 0
8, 19830, Note_on_c, 5, 71, 64
8, 19860, Note_on_c, 5, 71, 0
8, 19860, Note_on_c, 5, 67, 64
8, 19890, Note_on_c, 5, 67, 0
8, 19890, Note_on_c, 5, 66, 64
8, 19920, Note_on_c, 5, 66, 0
8, 19920, Note_on_c, 5, 64, 64
8, 20010, Note_on_c, 5, 64, 0
8, 20010, Note_on_c, 5, 70, 64
8, 20025, Note_on_c, 5, 70, 0
8, 20025, Note_on_c, 5, 71, 64
8, 20040, Note_on_c, 5, 71, 0
8, 20040, Note_on_c, 5, 73, 64
8, 20070, Note_on_c, 5, 73, 0
8, 20070, Note_on_c, 5, 64, 64
8, 20130, Note_on_c, 5, 64, 0
8, 20130, Note_on_c, 5, 61, 64
8, 20160, Note_on_c, 5, 61, 0
8, 20160, Note_on_c, 5, 62, 64
8, 20220, Note_on_c, 5, 62, 0
8, 20220, Note_on_c, 5, 74, 64
8, 20255, Note_on_c, 5, 74, 0
8, 20280, Note_on_c, 5, 71, 64
8, 20340, Note_on_c, 5, 71, 0
8, 20340, Note_on_c, 5, 68, 64
8, 20400, Note_on_c, 5, 68, 0
8, 20400, Note_on_c, 5, 69, 64
8, 20430, Note_on_c, 5, 69, 0
8, 20430, Note_on_c, 5, 71, 64
8, 20460, Note_on_c, 5, 71, 0
8, 20460, Note_on_c, 5, 73, 64
8, 20490, Note_on_c, 5, 73, 0
8, 20490, Note_on_c, 5, 74, 64
8, 20505, Note_on_c, 5, 74, 0
8, 20505, Note_on_c, 5, 76, 64
8, 20520, Note_on_c, 5, 76, 0
8, 20520, Note_on_c, 5, 74, 64
8, 20550, Note_on_c, 5, 74, 0
8, 20550, Note_on_c, 5, 73, 64
8, 20580, Note_on_c, 5, 73, 0
8, 20580, Note_on_c, 5, 71, 64
8, 20700, Note_on_c, 5, 71, 0
8, 20760, Note_on_c, 5, 73, 40
8, 20820, Note_on_c, 5, 73, 0
8, 20820, Note_on_c, 5, 71, 45
8, 20850, Note_on_c, 5, 71, 0
8, 20850, Note_on_c, 5, 69, 46
8, 20880, Note_on_c, 5, 69, 0
8, 20880, Note_on_c, 5, 68, 47
8, 20910, Note_on_c, 5, 68, 0
8, 20910, Note_on_c, 5, 66, 48
8, 20940, Note_on_c, 5, 66, 0
8, 20940, Note_on_c, 5, 68, 49
8, 21075, Note_on_c, 5, 68, 0
8, 21075, Note_on_c, 5, 69, 53
8, 21090, Note_on_c, 5, 69, 0
8, 21090, Note_on_c, 5, 68, 54
8, 21105, Note_on_c, 5, 68, 0
8, 21105, Note_on_c, 5, 66, 54
8, 21120, Note_on_c, 5, 66, 0
8, 21120, Note_on_c, 5, 68, 55
8, 21150, Note_on_c, 5, 68, 0
8, 21150, Note_on_c, 5, 73, 56
8, 21210, Note_on_c, 5, 73, 0
8, 21210, Note_on_c, 5, 71, 58
8, 21240, Note_on_c, 5, 71, 0
8, 21240, Note_on_c, 5, 69, 59
8, 21270, Note_on_c, 5, 69, 0
8, 21270, Note_on_c, 5, 68, 60
8, 21300, Note_on_c, 5, 68, 0
8, 21300, Note_on_c, 5, 66, 61
8, 21315, Note_on_c, 5, 66, 0
8, 21315, Note_on_c, 5, 68, 61
8, 21330, Note_on_c, 5, 68, 0
8, 21330, Note_on_c, 5, 66, 61
8, 21345, Note_on_c, 5, 66, 0
8, 21345, Note_on_c, 5, 65, 62
8, 21360, Note_on_c, 5, 65, 0
8, 21360, Note_on_c, 5, 66, 62
8, 21390, Note_on_c, 5, 66, 0
8, 21390, Note_on_c, 5, 69, 63
8, 21450, Note_on_c, 5, 69, 0
8, 21450, Note_on_c, 5, 68, 65
8, 21480, Note_on_c, 5, 68, 0
8, 21480, Note_on_c, 5, 66, 66
8, 21510, Note_on_c, 5, 66, 0
8, 21510, Note_on_c, 5, 64, 67
8, 21540, Note_on_c, 5, 64, 0
8, 21540, Note_on_c, 5, 63, 68
8, 21570, Note_on_c, 5, 63, 0
8, 21570, Note_on_c, 5, 72, 69
8, 21630, Note_on_c, 5, 72, 0
8, 21630, Note_on_c, 5, 73, 71
8, 21690, Note_on_c, 5, 73, 0
8, 21690, Note_on_c, 5, 71, 73
8, 21705, Note_on_c, 5, 71, 0
8, 21705, Note_on_c, 5, 69, 74
8, 21720, Note_on_c, 5, 69, 0
8, 21720, Note_on_c, 5, 68, 74
8, 21750, Note_on_c, 5, 68, 0
8, 21750, Note_on_c, 5, 66, 75
8, 21780, Note_on_c, 5, 66, 0
8, 21780, Note_on_c, 5, 64, 75
8, 21840, Note_on_c, 5, 64, 0
8, 21840, Note_on_c, 5, 66, 75
8, 21960, Note_on_c, 5, 66, 0
8, 21960, Note_on_c, 5, 63, 75
8, 21975, Note_on_c, 5, 63, 0
8, 21975, Note_on_c, 5, 61, 75
8, 21990, Note_on_c, 5, 61, 0
8, 21990, Note_on_c, 5, 63, 75
8, 22020, Note_on_c, 5, 63, 0
8, 22020, Note_on_c, 5, 61, 75
8, 22140, Note_on_c, 5, 61, 0
8, 22190, Control_c, 5, 7, 127
8, 22200, Note_on_c, 5, 64, 75
8, 22260, Note_on_c, 5, 64, 0
8, 22260, Note_on_c, 5, 69, 40
8, 22267, Note_on_c, 5, 69, 0
8, 22267, Note_on_c, 5, 71, 40
8, 22275, Note_on_c, 5, 71, 0
8, 22275, Note_on_c, 5, 69, 41
8, 22290, Note_on_c, 5, 69, 0
8, 22290, Note_on_c, 5, 68, 41
8, 22320, Note_on_c, 5, 68, 0
8, 22320, Note_on_c, 5, 69, 42
8, 22350, Note_on_c, 5, 69, 0
8, 22350, Note_on_c, 5, 71, 43
8, 22380, Note_on_c, 5, 71, 0
8, 22380, Note_on_c, 5, 71, 44
8, 22387, Note_on_c, 5, 71, 0
8, 22387, Note_on_c, 5, 73, 45
8, 22395, Note_on_c, 5, 73, 0
8, 22395, Note_on_c, 5, 71, 45
8, 22410, Note_on_c, 5, 71, 0
8, 22410, Note_on_c, 5, 69, 45
8, 22440, Note_on_c, 5, 69, 0
8, 22440, Note_on_c, 5, 71, 47
8, 22470, Note_on_c, 5, 71, 0
8, 22470, Note_on_c, 5, 73, 48
8, 22500, Note_on_c, 5, 73, 0
8, 22500, Note_on_c, 5, 73, 49
8, 22507, Note_on_c, 5, 73, 0
8, 22507, Note_on_c, 5, 74, 49
8, 22515, Note_on_c, 5, 74, 0
8, 22515, Note_on_c, 5, 73, 49
8, 22530, Note_on_c, 5, 73, 0
8, 22530, Note_on_c, 5, 71, 50
8, 22560, Note_on_c, 5, 71, 0
8, 22560, Note_on_c, 5, 73, 51
8, 22590, Note_on_c, 5, 73, 0
8, 22590, Note_on_c, 5, 74, 52
8, 22620, Note_on_c, 5, 74, 0
8, 22620, Note_on_c, 5, 74, 53
8, 22627, Note_on_c, 5, 74, 0
8, 22627, Note_on_c, 5, 76, 53
8, 22635, Note_on_c, 5, 76, 0
8, 22635, Note_on_c, 5, 74, 54
8, 22650, Note_on_c, 5, 74, 0
8, 22650, Note_on_c, 5, 73, 54
8, 22680, Note_on_c, 5, 73, 0
8, 22680, Note_on_c, 5, 74, 55
8, 22710, Note_on_c, 5, 74, 0
8, 22710, Note_on_c, 5, 76, 56
8, 22740, Note_on_c, 5, 76, 0
8, 22740, Note_on_c, 5, 76, 58
8, 22770, Note_on_c, 5, 76, 0
8, 22770, Note_on_c, 5, 73, 59
8, 22800, Note_on_c, 5, 73, 0
8, 22800, Note_on_c, 5, 69, 60
8, 22890, Note_on_c, 5, 69, 0
8, 22890, Note_on_c, 5, 67, 63
8, 22920, Note_on_c, 5, 67, 0
8, 22920, Note_on_c, 5, 66, 64
8, 22950, Note_on_c, 5, 66, 0
8, 22950, Note_on_c, 5, 69, 65
8, 22980, Note_on_c, 5, 69, 0
8, 22980, Note_on_c, 5, 67, 66
8, 22987, Note_on_c, 5, 67, 0
8, 22987, Note_on_c, 5, 69, 67
8, 22995, Note_on_c, 5, 69, 0
8, 22995, Note_on_c, 5, 67, 67
8, 23010, Note_on_c, 5, 67, 0
8, 23010, Note_on_c, 5, 66, 67
8, 23040, Note_on_c, 5, 66, 0
8, 23040, Note_on_c, 5, 67, 68
8, 23130, Note_on_c, 5, 67, 0
8, 23130, Note_on_c, 5, 66, 72
8, 23160, Note_on_c, 5, 66, 0
8, 23160, Note_on_c, 5, 67, 73
8, 23250, Note_on_c, 5, 67, 0
8, 23250, Note_on_c, 5, 64, 75
8, 23280, Note_on_c, 5, 64, 0
8, 23280, Note_on_c, 5, 66, 75
8, 23310, Note_on_c, 5, 66, 0
8, 23310, Note_on_c, 5, 67, 75
8, 23340, Note_on_c, 5, 67, 0
8, 23340, Note_on_c, 5, 66, 75
8, 23400, Note_on_c, 5, 66, 0
8, 23400, Note_on_c, 5, 62, 75
8, 23460, Note_on_c, 5, 62, 0
8, 23460, Note_on_c, 5, 64, 75
8, 23580, Note_on_c, 5, 64, 0
8, 23610, Note_on_c, 5, 68, 75
8, 23640, Note_on_c, 5, 68, 0
8, 23640, Note_on_c, 5, 71, 75
8, 23670, Note_on_c, 5, 71, 0
8, 23670, Note_on_c, 5, 76, 75
8, 23700, Note_on_c, 5, 76, 0
8, 23700, Note_on_c, 5, 74, 64
8, 23730, Note_on_c, 5, 74, 0
8, 23730, Note_on_c, 5, 73, 64
8, 23760, Note_on_c, 5, 73, 0
8, 23760, Note_on_c, 5, 71, 64
8, 23790, Note_on_c, 5, 71, 0
8, 23790, Note_on_c, 5, 69, 64
8, 23820, Note_on_c, 5, 69, 0
8, 23820, Note_on_c, 5, 74, 64
8, 23880, Note_on_c, 5, 74, 0
8, 23880, Note_on_c, 5, 73, 64
8, 23940, Note_on_c, 5, 73, 0
8, 23940, Note_on_c, 5, 71, 64
8, 24060, Note_on_c, 5, 71, 0
8, 24600, Note_on_c, 5, 71, 64
8, 24660, Note_on_c, 5, 71, 0
8, 24660, Note_on_c, 5, 73, 64
8, 24690, Note_on_c, 5, 73, 0
8, 24690, Note_on_c, 5, 69, 64
8, 24750, Note_on_c, 5, 69, 0
8, 24750, Note_on_c, 5, 71, 64
8, 24765, Note_on_c, 5, 71, 0
8, 24765, Note_on_c, 5, 73, 64
8, 24780, Note_on_c, 5, 73, 0
8, 24780, Note_on_c, 5, 71, 64
8, 24810, Note_on_c, 5, 71, 0
8, 24810, Note_on_c, 5, 68, 64
8, 24870, Note_on_c, 5, 68, 0
8, 24870, Note_on_c, 5, 69, 64
8, 24885, Note_on_c, 5, 69, 0
8, 24885, Note_on_c, 5, 71, 64
8, 24900, Note_on_c, 5, 71, 0
8, 24900, Note_on_c, 5, 69, 64
8, 24930, Note_on_c, 5, 69, 0
8, 24930, Note_on_c, 5, 66, 64
8, 24990, Note_on_c, 5, 66, 0
8, 24990, Note_on_c, 5, 68, 64
8, 25005, Note_on_c, 5, 68, 0
8, 25005, Note_on_c, 5, 69, 64
8, 25020, Note_on_c, 5, 69, 0
8, 25020, Note_on_c, 5, 68, 64
8, 25038, Note_on_c, 5, 68, 0
8, 25050, Note_on_c, 5, 64, 64
8, 25080, Note_on_c, 5, 64, 0
8, 25080, Note_on_c, 5, 68, 64
8, 25110, Note_on_c, 5, 68, 0
8, 25110, Note_on_c, 5, 71, 64
8, 25140, Note_on_c, 5, 71, 0
8, 25140, Note_on_c, 5, 76, 55
8, 25170, Note_on_c, 5, 76, 0
8, 25170, Note_on_c, 5, 74, 55
8, 25188, Note_on_c, 5, 74, 0
8, 25200, Note_on_c, 5, 74, 55
8, 25230, Note_on_c, 5, 74, 0
8, 25230, Note_on_c, 5, 73, 55
8, 25248, Note_on_c, 5, 73, 0
8, 25260, Note_on_c, 5, 73, 55
8, 25290, Note_on_c, 5, 73, 0
8, 25290, Note_on_c, 5, 71, 55
8, 25308, Note_on_c, 5, 71, 0
8, 25320, Note_on_c, 5, 71, 55
8, 25350, Note_on_c, 5, 71, 0
8, 25350, Note_on_c, 5, 70, 55
8, 25368, Note_on_c, 5, 70, 0
8, 25380, Note_on_c, 5, 71, 55
8, 25410, Note_on_c, 5, 71, 0
8, 25410, Note_on_c, 5, 73, 55
8, 25428, Note_on_c, 5, 73, 0
8, 25440, Note_on_c, 5, 73, 55
8, 25470, Note_on_c, 5, 73, 0
8, 25470, Note_on_c, 5, 74, 55
8, 25488, Note_on_c, 5, 74, 0
8, 25500, Note_on_c, 5, 74, 55
8, 25535, Note_on_c, 5, 74, 0
8, 25560, Note_on_c, 5, 66, 55
8, 25590, Note_on_c, 5, 66, 0
8, 25590, Note_on_c, 5, 66, 55
8, 25620, Note_on_c, 5, 66, 0
8, 25620, Note_on_c, 5, 74, 55
8, 25680, Note_on_c, 5, 74, 0
8, 25680, Note_on_c, 5, 73, 55
8, 25710, Note_on_c, 5, 73, 0
8, 25710, Note_on_c, 5, 71, 55
8, 25740, Note_on_c, 5, 71, 0
8, 25740, Note_on_c, 5, 71, 55
8, 25775, Note_on_c, 5, 71, 0
8, 25800, Note_on_c, 5, 69, 55
8, 25830, Note_on_c, 5, 69, 0
8, 25830, Note_on_c, 5, 68, 55
8, 25860, Note_on_c, 5, 68, 0
8, 25860, Note_on_c, 5, 69, 55
8, 25890, Note_on_c, 5, 69, 0
8, 25890, Note_on_c, 5, 71, 55
8, 25908, Note_on_c, 5, 71, 0
8, 25920, Note_on_c, 5, 71, 55
8, 25950, Note_on_c, 5, 71, 0
8, 25950, Note_on_c, 5, 73, 55
8, 25968, Note_on_c, 5, 73, 0
8, 25980, Note_on_c, 5, 73, 55
8, 26015, Note_on_c, 5, 73, 0
8, 26040, Note_on_c, 5, 73, 55
8, 26100, Note_on_c, 5, 73, 0
8, 26100, Note_on_c, 5, 73, 50
8, 26160, Note_on_c, 5, 73, 0
8, 26160, Note_on_c, 5, 71, 50
8, 26250, Note_on_c, 5, 71, 0
8, 26250, Note_on_c, 5, 73, 50
8, 26280, Note_on_c, 5, 73, 0
8, 26280, Note_on_c, 5, 69, 50
8, 26340, Note_on_c, 5, 69, 0
8, 26340, Note_on_c, 5, 69, 50
8, 26370, Note_on_c, 5, 69, 0
8, 26370, Note_on_c, 5, 68, 50
8, 26400, Note_on_c, 5, 68, 0
8, 26400, Note_on_c, 5, 68, 50
8, 26430, Note_on_c, 5, 68, 0
8, 26430, Note_on_c, 5, 69, 50
8, 26460, Note_on_c, 5, 69, 0
8, 26460, Note_on_c, 5, 69, 50
8, 26478, Note_on_c, 5, 69, 0
8, 26490, Note_on_c, 5, 64, 50
8, 26550, Note_on_c, 5, 64, 0
8, 26550, Note_on_c, 5, 66, 50
8, 26565, Note_on_c, 5, 66, 0
8, 26565, Note_on_c, 5, 67, 50
8, 26580, Note_on_c, 5, 67, 0
8, 26580, Note_on_c, 5, 66, 50
8, 26610, Note_on_c, 5, 66, 0
8, 26610, Note_on_c, 5, 62, 50
8, 26670, Note_on_c, 5, 62, 0
8, 26670, Note_on_c, 5, 64, 50
8, 26685, Note_on_c, 5, 64, 0
8, 26685, Note_on_c, 5, 66, 50
8, 26700, Note_on_c, 5, 66, 0
8, 26700, Note_on_c, 5, 64, 50
8, 26735, Note_on_c, 5, 64, 0
8, 26760, Note_on_c, 5, 69, 50
8, 26790, Note_on_c, 5, 69, 0
8, 26790, Note_on_c, 5, 66, 50
8, 26820, Note_on_c, 5, 66, 0
8, 26820, Note_on_c, 5, 62, 50
8, 26850, Note_on_c, 5, 62, 0
8, 26850, Note_on_c, 5, 61, 50
8, 26880, Note_on_c, 5, 61, 0
8, 26880, Note_on_c, 5, 62, 50
8, 26940, Note_on_c, 5, 62, 0
8, 26940, Note_on_c, 5, 61, 50
8, 26975, Note_on_c, 5, 61, 0
8, 27000, Note_on_c, 5, 69, 50
8, 27090, Note_on_c, 5, 69, 0
8, 27090, Note_on_c, 5, 71, 42
8, 27150, Note_on_c, 5, 71, 0
8, 27150, Note_on_c, 5, 73, 47
8, 27210, Note_on_c, 5, 73, 0
8, 27210, Note_on_c, 5, 74, 51
8, 27270, Note_on_c, 5, 74, 0
8, 27270, Note_on_c, 5, 76, 56
8, 27300, Note_on_c, 5, 76, 0
8, 27300, Note_on_c, 5, 76, 58
8, 27480, Note_on_c, 5, 76, 0
8, 27480, Note_on_c, 5, 74, 72
8, 27510, Note_on_c, 5, 74, 0
8, 27510, Note_on_c, 5, 73, 74
8, 27540, Note_on_c, 5, 73, 0
8, 27540, Note_on_c, 5, 71, 70
8, 27570, Note_on_c, 5, 71, 0
8, 27570, Note_on_c, 5, 68, 70
8, 27600, Note_on_c, 5, 68, 0
8, 27600, Note_on_c, 5, 76, 70
8, 27660, Note_on_c, 5, 76, 0
8, 27660, Note_on_c, 5, 69, 70
8, 27720, Note_on_c, 5, 69, 0
8, 27720, Note_on_c, 5, 71, 70
8, 27750, Note_on_c, 5, 71, 0
8, 27750, Note_on_c, 5, 68, 70
8, 27780, Note_on_c, 5, 68, 0
8, 27780, Note_on_c, 5, 69, 70
8, 27900, Note_on_c, 5, 69, 0
8, 30420, End_track
9, 0, Start_track
9, 0, MIDI_port, 0
9, 0, Title_t, "Harpsichord"
9, 0, Program_c, 6, 6
9, 120, Note_on_c, 6, 61, 50
9, 120, Note_on_c, 6, 64, 50
9, 180, Note_on_c, 6, 64, 0
9, 180, Note_on_c, 6, 61, 0
9, 180, Note_on_c, 6, 57, 50
9, 180, Note_on_c, 6, 64, 50
9, 180, Note_on_c, 6, 69, 50
9, 300, Note_on_c, 6, 69, 0
9, 300, Note_on_c, 6, 64, 0
9, 300, Note_on_c, 6, 57, 0
9, 300, Note_on_c, 6, 59, 50
9, 300, Note_on_c, 6, 64, 50
9, 300, Note_on_c, 6, 68, 50
9, 420, Note_on_c, 6, 68, 0
9, 420, Note_on_c, 6, 64, 0
9, 420, Note_on_c, 6, 59, 0
9, 420, Note_on_c, 6, 64, 50
9, 420, Note_on_c, 6, 69, 50
9, 480, Note_on_c, 6, 69, 0
9, 480, Note_on_c, 6, 64, 0
9, 480, Note_on_c, 6, 62, 50
9, 480, Note_on_c, 6, 68, 50
9, 540, Note_on_c, 6, 68, 0
9, 540, Note_on_c, 6, 62, 0
9, 540, Note_on_c, 6, 61, 50
9, 540, Note_on_c, 6, 64, 50
9, 540, Note_on_c, 6, 69, 50
9, 600, Note_on_c, 6, 69, 0
9, 600, Note_on_c, 6, 64, 0
9, 600, Note_on_c, 6, 61, 0
9, 600, Note_on_c, 6, 64, 50
9, 600, Note_on_c, 6, 71, 50
9, 660, Note_on_c, 6, 71, 0
9, 660, Note_on_c, 6, 64, 0
9, 660, Note_on_c, 6, 64, 64
9, 660, Note_on_c, 6, 73, 64
9, 720, Note_on_c, 6, 73, 0
9, 720, Note_on_c, 6, 69, 64
9, 780, Note_on_c, 6, 69, 0
9, 780, Note_on_c, 6, 64, 0
9, 780, Note_on_c, 6, 62, 64
9, 780, Note_on_c, 6, 68, 64
9, 840, Note_on_c, 6, 68, 0
9, 840, Note_on_c, 6, 62, 0
9, 840, Note_on_c, 6, 61, 64
9, 840, Note_on_c, 6, 64, 64
9, 840, Note_on_c, 6, 69, 64
9, 960, Note_on_c, 6, 69, 0
9, 960, Note_on_c, 6, 64, 0
9, 960, Note_on_c, 6, 61, 0
9, 960, Note_on_c, 6, 59, 64
9, 960, Note_on_c, 6, 64, 64
9, 960, Note_on_c, 6, 68, 64
9, 1020, Note_on_c, 6, 68, 0
9, 1020, Note_on_c, 6, 64, 0
9, 1020, Note_on_c, 6, 59, 0
9, 1080, Note_on_c, 6, 68, 64
9, 1080, Note_on_c, 6, 71, 64
9, 1140, Note_on_c, 6, 71, 0
9, 1140, Note_on_c, 6, 68, 0
9, 1140, Note_on_c, 6, 69, 50
9, 1140, Note_on_c, 6, 73, 50
9, 1260, Note_on_c, 6, 73, 0
9, 1260, Note_on_c, 6, 69, 0
9, 1260, Note_on_c, 6, 64, 50
9, 1260, Note_on_c, 6, 71, 50
9, 1380, Note_on_c, 6, 71, 0
9, 1380, Note_on_c, 6, 69, 50
9, 1440, Note_on_c, 6, 64, 0
9, 1440, Note_on_c, 6, 63, 50
9, 1500, Note_on_c, 6, 63, 0
9, 1500, Note_on_c, 6, 69, 0
9, 1500, Note_on_c, 6, 64, 50
9, 1500, Note_on_c, 6, 68, 50
9, 1620, Note_on_c, 6, 68, 0
9, 1620, Note_on_c, 6, 64, 0
9, 1620, Note_on_c, 6, 57, 64
9, 1620, Note_on_c, 6, 64, 64
9, 1620, Note_on_c, 6, 69, 64
9, 1740, Note_on_c, 6, 69, 0
9, 1740, Note_on_c, 6, 64, 0
9, 1740, Note_on_c, 6, 57, 0
9, 1740, Note_on_c, 6, 64, 64
9, 1740, Note_on_c, 6, 68, 64
9, 1860, Note_on_c, 6, 68, 0
9, 1860, Note_on_c, 6, 69, 64
9, 1920, Note_on_c, 6, 69, 0
9, 1920, Note_on_c, 6, 64, 0
9, 1920, Note_on_c, 6, 63, 64
9, 1920, Note_on_c, 6, 69, 64
9, 1980, Note_on_c, 6, 69, 0
9, 1980, Note_on_c, 6, 63, 0
9, 1980, Note_on_c, 6, 64, 64
9, 1980, Note_on_c, 6, 68, 64
9, 2040, Note_on_c, 6, 68, 0
9, 2040, Note_on_c, 6, 71, 64
9, 2100, Note_on_c, 6, 71, 0
9, 2100, Note_on_c, 6, 64, 0
9, 2100, Note_on_c, 6, 61, 40
9, 2100, Note_on_c, 6, 64, 40
9, 2100, Note_on_c, 6, 69, 40
9, 2160, Note_on_c, 6, 64, 0
9, 2160, Note_on_c, 6, 61, 0
9, 2160, Note_on_c, 6, 59, 43
9, 2160, Note_on_c, 6, 63, 43
9, 2220, Note_on_c, 6, 63, 0
9, 2220, Note_on_c, 6, 59, 0
9, 2220, Note_on_c, 6, 57, 46
9, 2220, Note_on_c, 6, 64, 46
9, 2280, Note_on_c, 6, 64, 0
9, 2280, Note_on_c, 6, 69, 0
9, 2280, Note_on_c, 6, 66, 49
9, 2280, Note_on_c, 6, 71, 49
9, 2340, Note_on_c, 6, 71, 0
9, 2340, Note_on_c, 6, 66, 0
9, 2340, Note_on_c, 6, 57, 0
9, 2340, Note_on_c, 6, 56, 52
9, 2340, Note_on_c, 6, 64, 52
9, 2340, Note_on_c, 6, 68, 52
9, 2400, Note_on_c, 6, 68, 0
9, 2400, Note_on_c, 6, 64, 0
9, 2400, Note_on_c, 6, 56, 0
9, 2400, Note_on_c, 6, 57, 55
9, 2400, Note_on_c, 6, 64, 55
9, 2400, Note_on_c, 6, 69, 55
9, 2460, Note_on_c, 6, 69, 0
9, 2460, Note_on_c, 6, 64, 0
9, 2460, Note_on_c, 6, 57, 0
9, 2460, Note_on_c, 6, 59, 58
9, 2460, Note_on_c, 6, 64, 58
9, 2460, Note_on_c, 6, 71, 58
9, 2520, Note_on_c, 6, 71, 0
9, 2520, Note_on_c, 6, 64, 0
9, 2520, Note_on_c, 6, 59, 0
9, 2520, Note_on_c, 6, 61, 61
9, 2520, Note_on_c, 6, 64, 61
9, 2520, Note_on_c, 6, 73, 61
9, 2580, Note_on_c, 6, 73, 0
9, 2580, Note_on_c, 6, 64, 0
9, 2580, Note_on_c, 6, 61, 0
9, 2580, Note_on_c, 6, 66, 64
9, 2580, Note_on_c, 6, 71, 64
9, 2580, Note_on_c, 6, 75, 64
9, 2640, Note_on_c, 6, 75, 0
9, 2640, Note_on_c, 6, 71, 0
9, 2640, Note_on_c, 6, 66, 0
9, 2640, Note_on_c, 6, 64, 64
9, 2640, Note_on_c, 6, 71, 64
9, 2640, Note_on_c, 6, 76, 64
9, 2700, Note_on_c, 6, 76, 0
9, 2700, Note_on_c, 6, 71, 0
9, 2700, Note_on_c, 6, 64, 0
9, 2700, Note_on_c, 6, 64, 64
9, 2700, Note_on_c, 6, 68, 64
9, 2700, Note_on_c, 6, 71, 64
9, 2760, Note_on_c, 6, 71, 0
9, 2760, Note_on_c, 6, 68, 0
9, 2760, Note_on_c, 6, 64, 0
9, 2760, Note_on_c, 6, 63, 64
9, 2760, Note_on_c, 6, 66, 64
9, 2760, Note_on_c, 6, 69, 64
9, 2820, Note_on_c, 6, 69, 0
9, 2820, Note_on_c, 6, 66, 0
9, 2820, Note_on_c, 6, 63, 0
9, 2820, Note_on_c, 6, 64, 64
9, 2820, Note_on_c, 6, 68, 64
9, 2940, Note_on_c, 6, 68, 0
9, 2940, Note_on_c, 6, 64, 0
9, 2940, Note_on_c, 6, 68, 64
9, 2940, Note_on_c, 6, 73, 64
9, 3000, Note_on_c, 6, 73, 0
9, 3000, Note_on_c, 6, 68, 0
9, 3000, Note_on_c, 6, 66, 64
9, 3000, Note_on_c, 6, 71, 64
9, 3060, Note_on_c, 6, 71, 0
9, 3060, Note_on_c, 6, 66, 0
9, 3060, Note_on_c, 6, 64, 35
9, 3060, Note_on_c, 6, 70, 35
9, 3180, Note_on_c, 6, 70, 0
9, 3180, Note_on_c, 6, 64, 0
9, 3180, Note_on_c, 6, 61, 35
9, 3180, Note_on_c, 6, 64, 35
9, 3180, Note_on_c, 6, 66, 35
9, 3300, Note_on_c, 6, 66, 0
9, 3300, Note_on_c, 6, 64, 0
9, 3300, Note_on_c, 6, 61, 0
9, 3300, Note_on_c, 6, 59, 35
9, 3300, Note_on_c, 6, 62, 35
9, 3300, Note_on_c, 6, 66, 35
9, 3360, Note_on_c, 6, 62, 0
9, 3360, Note_on_c, 6, 59, 0
9, 3360, Note_on_c, 6, 58, 35
9, 3420, Note_on_c, 6, 58, 0
9, 3420, Note_on_c, 6, 66, 0
9, 3420, Note_on_c, 6, 59, 35
9, 3420, Note_on_c, 6, 66, 35
9, 3480, Note_on_c, 6, 66, 0
9, 3480, Note_on_c, 6, 59, 0
9, 3480, Note_on_c, 6, 62, 35
9, 3540, Note_on_c, 6, 62, 0
9, 3540, Note_on_c, 6, 62, 35
9, 3540, Note_on_c, 6, 64, 35
9, 3540, Note_on_c, 6, 68, 35
9, 3660, Note_on_c, 6, 68, 0
9, 3660, Note_on_c, 6, 64, 0
9, 3660, Note_on_c, 6, 62, 0
9, 3660, Note_on_c, 6, 62, 35
9, 3660, Note_on_c, 6, 64, 35
9, 3660, Note_on_c, 6, 71, 35
9, 3780, Note_on_c, 6, 71, 0
9, 3780, Note_on_c, 6, 64, 0
9, 3780, Note_on_c, 6, 62, 0
9, 3780, Note_on_c, 6, 61, 35
9, 3780, Note_on_c, 6, 64, 35
9, 3780, Note_on_c, 6, 69, 35
9, 3840, Note_on_c, 6, 69, 0
9, 3840, Note_on_c, 6, 64, 0
9, 3840, Note_on_c, 6, 61, 0
9, 3840, Note_on_c, 6, 62, 35
9, 3840, Note_on_c, 6, 68, 35
9, 3900, Note_on_c, 6, 68, 0
9, 3900, Note_on_c, 6, 62, 0
9, 3900, Note_on_c, 6, 64, 35
9, 3900, Note_on_c, 6, 69, 35
9, 3960, Note_on_c, 6, 69, 0
9, 3960, Note_on_c, 6, 64, 0
9, 3960, Note_on_c, 6, 61, 35
9, 3960, Note_on_c, 6, 64, 35
9, 3960, Note_on_c, 6, 67, 35
9, 4020, Note_on_c, 6, 67, 0
9, 4020, Note_on_c, 6, 64, 0
9, 4020, Note_on_c, 6, 61, 0
9, 4020, Note_on_c, 6, 59, 35
9, 4020, Note_on_c, 6, 62, 35
9, 4020, Note_on_c, 6, 66, 35
9, 4140, Note_on_c, 6, 66, 0
9, 4140, Note_on_c, 6, 62, 0
9, 4140, Note_on_c, 6, 59, 0
9, 4140, Note_on_c, 6, 59, 36
9, 4140, Note_on_c, 6, 62, 36
9, 4140, Note_on_c, 6, 68, 36
9, 4260, Note_on_c, 6, 68, 0
9, 4260, Note_on_c, 6, 62, 0
9, 4260, Note_on_c, 6, 59, 0
9, 4260, Note_on_c, 6, 62, 38
9, 4260, Note_on_c, 6, 66, 38
9, 4260, Note_on_c, 6, 69, 38
9, 4380, Note_on_c, 6, 69, 0
9, 4380, Note_on_c, 6, 71, 39
9, 4440, Note_on_c, 6, 66, 0
9, 4440, Note_on_c, 6, 62, 0
9, 4440, Note_on_c, 6, 64, 39
9, 4440, Note_on_c, 6, 68, 39
9, 4500, Note_on_c, 6, 68, 0
9, 4500, Note_on_c, 6, 64, 0
9, 4500, Note_on_c, 6, 71, 0
9, 4500, Note_on_c, 6, 64, 40
9, 4500, Note_on_c, 6, 69, 40
9, 4500, Note_on_c, 6, 73, 40
9, 4560, Note_on_c, 6, 73, 0
9, 4560, Note_on_c, 6, 69, 0
9, 4560, Note_on_c, 6, 64, 0
9, 4560, Note_on_c, 6, 66, 41
9, 4560, Note_on_c, 6, 69, 41
9, 4560, Note_on_c, 6, 74, 41
9, 4620, Note_on_c, 6, 74, 0
9, 4620, Note_on_c, 6, 69, 0
9, 4620, Note_on_c, 6, 66, 0
9, 4620, Note_on_c, 6, 69, 41
9, 4620, Note_on_c, 6, 71, 41
9, 4620, Note_on_c, 6, 74, 41
9, 4680, Note_on_c, 6, 74, 0
9, 4680, Note_on_c, 6, 71, 0
9, 4680, Note_on_c, 6, 69, 0
9, 4680, Note_on_c, 6, 68, 42
9, 4680, Note_on_c, 6, 71, 42
9, 4740, Note_on_c, 6, 71, 0
9, 4740, Note_on_c, 6, 68, 0
9, 4740, Note_on_c, 6, 63, 43
9, 4740, Note_on_c, 6, 69, 43
9, 4800, Note_on_c, 6, 69, 0
9, 4800, Note_on_c, 6, 63, 0
9, 4920, Note_on_c, 6, 69, 44
9, 4920, Note_on_c, 6, 72, 44
9, 5010, Note_on_c, 6, 72, 0
9, 5010, Note_on_c, 6, 71, 45
9, 5040, Note_on_c, 6, 71, 0
9, 5040, Note_on_c, 6, 69, 0
9, 5160, Note_on_c, 6, 66, 47
9, 5160, Note_on_c, 6, 69, 47
9, 5220, Note_on_c, 6, 69, 0
9, 5220, Note_on_c, 6, 66, 0
9, 5220, Note_on_c, 6, 64, 48
9, 5220, Note_on_c, 6, 68, 48
9, 5280, Note_on_c, 6, 68, 0
9, 5280, Note_on_c, 6, 64, 0
9, 5400, Note_on_c, 6, 62, 49
9, 5400, Note_on_c, 6, 64, 49
9, 5460, Note_on_c, 6, 64, 0
9, 5460, Note_on_c, 6, 62, 0
9, 5460, Note_on_c, 6, 61, 64
9, 5460, Note_on_c, 6, 64, 64
9, 5520, Note_on_c, 6, 64, 0
9, 5520, Note_on_c, 6, 61, 0
9, 5520, Note_on_c, 6, 64, 64
9, 5520, Note_on_c, 6, 69, 64
9, 5580, Note_on_c, 6, 69, 0
9, 5580, Note_on_c, 6, 64, 0
9, 5580, Note_on_c, 6, 66, 64
9, 5580, Note_on_c, 6, 69, 64
9, 5580, Note_on_c, 6, 73, 64
9, 5640, Note_on_c, 6, 73, 0
9, 5640, Note_on_c, 6, 69, 0
9, 5640, Note_on_c, 6, 66, 0
9, 5640, Note_on_c, 6, 68, 64
9, 5640, Note_on_c, 6, 71, 64
9, 5700, Note_on_c, 6, 71, 0
9, 5700, Note_on_c, 6, 68, 0
9, 5700, Note_on_c, 6, 61, 64
9, 5700, Note_on_c, 6, 64, 64
9, 5700, Note_on_c, 6, 69, 64
9, 5820, Note_on_c, 6, 69, 0
9, 5820, Note_on_c, 6, 64, 0
9, 5820, Note_on_c, 6, 61, 0
9, 5940, Control_c, 6, 7, 100
9, 6600, Note_on_c, 6, 66, 64
9, 6600, Note_on_c, 6, 69, 64
9, 6660, Note_on_c, 6, 69, 0
9, 6660, Note_on_c, 6, 66, 0
9, 6660, Note_on_c, 6, 57, 64
9, 6660, Note_on_c, 6, 61, 64
9, 6660, Note_on_c, 6, 64, 64
9, 6660, Note_on_c, 6, 67, 64
9, 6780, Note_on_c, 6, 64, 0
9, 6780, Note_on_c, 6, 57, 0
9, 6780, Note_on_c, 6, 61, 0
9, 6780, Note_on_c, 6, 59, 64
9, 6780, Note_on_c, 6, 62, 64
9, 6900, Note_on_c, 6, 62, 0
9, 6900, Note_on_c, 6, 59, 0
9, 6900, Note_on_c, 6, 57, 64
9, 6900, Note_on_c, 6, 64, 64
9, 6960, Note_on_c, 6, 64, 0
9, 6960, Note_on_c, 6, 57, 0
9, 6960, Note_on_c, 6, 67, 0
9, 6960, Note_on_c, 6, 61, 64
9, 6960, Note_on_c, 6, 64, 64
9, 7020, Note_on_c, 6, 64, 0
9, 7020, Note_on_c, 6, 61, 0
9, 7020, Note_on_c, 6, 62, 64
9, 7020, Note_on_c, 6, 66, 64
9, 7080, Note_on_c, 6, 66, 0
9, 7080, Note_on_c, 6, 62, 0
9, 7080, Note_on_c, 6, 62, 64
9, 7080, Note_on_c, 6, 68, 64
9, 7140, Note_on_c, 6, 68, 0
9, 7140, Note_on_c, 6, 62, 0
9, 7140, Note_on_c, 6, 64, 64
9, 7140, Note_on_c, 6, 69, 64
9, 7260, Note_on_c, 6, 69, 0
9, 7260, Note_on_c, 6, 64, 0
9, 7260, Note_on_c, 6, 64, 64
9, 7260, Note_on_c, 6, 68, 64
9, 7260, Note_on_c, 6, 71, 64
9, 7380, Note_on_c, 6, 71, 0
9, 7380, Note_on_c, 6, 68, 0
9, 7380, Note_on_c, 6, 64, 0
9, 7380, Note_on_c, 6, 64, 64
9, 7380, Note_on_c, 6, 73, 64
9, 7440, Note_on_c, 6, 73, 0
9, 7440, Note_on_c, 6, 69, 64
9, 7500, Note_on_c, 6, 69, 0
9, 7500, Note_on_c, 6, 64, 0
9, 7500, Note_on_c, 6, 62, 64
9, 7500, Note_on_c, 6, 68, 64
9, 7560, Note_on_c, 6, 68, 0
9, 7560, Note_on_c, 6, 62, 0
9, 7560, Note_on_c, 6, 61, 64
9, 7560, Note_on_c, 6, 64, 64
9, 7560, Note_on_c, 6, 69, 64
9, 7620, Note_on_c, 6, 69, 0
9, 7620, Note_on_c, 6, 64, 0
9, 7620, Note_on_c, 6, 61, 0
9, 7620, Note_on_c, 6, 59, 64
9, 7620, Note_on_c, 6, 64, 64
9, 7620, Note_on_c, 6, 68, 64
9, 7740, Note_on_c, 6, 68, 0
9, 7740, Note_on_c, 6, 64, 0
9, 7740, Note_on_c, 6, 59, 0
9, 7800, Note_on_c, 6, 68, 64
9, 7800, Note_on_c, 6, 71, 64
9, 7860, Note_on_c, 6, 71, 0
9, 7860, Note_on_c, 6, 68, 0
9, 7860, Note_on_c, 6, 69, 40
9, 7860, Note_on_c, 6, 73, 40
9, 7980, Note_on_c, 6, 73, 0
9, 7980, Note_on_c, 6, 69, 0
9, 7980, Note_on_c, 6, 64, 40
9, 7980, Note_on_c, 6, 71, 40
9, 8100, Note_on_c, 6, 71, 0
9, 8100, Note_on_c, 6, 69, 40
9, 8160, Note_on_c, 6, 64, 0
9, 8160, Note_on_c, 6, 63, 40
9, 8220, Note_on_c, 6, 63, 0
9, 8220, Note_on_c, 6, 69, 0
9, 8220, Note_on_c, 6, 64, 40
9, 8220, Note_on_c, 6, 68, 40
9, 8340, Note_on_c, 6, 68, 0
9, 8340, Note_on_c, 6, 64, 0
9, 8340, Note_on_c, 6, 57, 64
9, 8340, Note_on_c, 6, 64, 64
9, 8340, Note_on_c, 6, 69, 64
9, 8460, Note_on_c, 6, 69, 0
9, 8460, Note_on_c, 6, 64, 0
9, 8460, Note_on_c, 6, 57, 0
9, 8460, Note_on_c, 6, 64, 64
9, 8460, Note_on_c, 6, 68, 64
9, 8580, Note_on_c, 6, 68, 0
9, 8580, Note_on_c, 6, 69, 64
9, 8640, Note_on_c, 6, 69, 0
9, 8640, Note_on_c, 6, 64, 0
9, 8640, Note_on_c, 6, 63, 64
9, 8640, Note_on_c, 6, 69, 64
9, 8700, Note_on_c, 6, 69, 0
9, 8700, Note_on_c, 6, 63, 0
9, 8700, Note_on_c, 6, 64, 64
9, 8700, Note_on_c, 6, 68, 64
9, 8760, Note_on_c, 6, 68, 0
9, 8760, Note_on_c, 6, 64, 0
9, 9060, Note_on_c, 6, 56, 64
9, 9060, Note_on_c, 6, 59, 64
9, 9060, Note_on_c, 6, 64, 64
9, 9180, Note_on_c, 6, 64, 0
9, 9180, Note_on_c, 6, 59, 0
9, 9180, Note_on_c, 6, 56, 0
9, 9300, Note_on_c, 6, 59, 64
9, 9300, Note_on_c, 6, 64, 64
9, 9300, Note_on_c, 6, 68, 64
9, 9420, Note_on_c, 6, 68, 0
9, 9420, Note_on_c, 6, 64, 0
9, 9420, Note_on_c, 6, 59, 0
9, 10020, Note_on_c, 6, 56, 64
9, 10020, Note_on_c, 6, 59, 64
9, 10020, Note_on_c, 6, 64, 64
9, 10140, Note_on_c, 6, 64, 0
9, 10140, Note_on_c, 6, 59, 0
9, 10140, Note_on_c, 6, 56, 0
9, 10140, Note_on_c, 6, 64, 64
9, 10140, Note_on_c, 6, 71, 64
9, 10200, Note_on_c, 6, 71, 0
9, 10200, Note_on_c, 6, 64, 0
9, 10200, Note_on_c, 6, 63, 64
9, 10200, Note_on_c, 6, 69, 64
9, 10260, Note_on_c, 6, 69, 0
9, 10260, Note_on_c, 6, 63, 0
9, 10260, Note_on_c, 6, 69, 64
9, 10290, Note_on_c, 6, 69, 0
9, 10290, Note_on_c, 6, 68, 64
9, 10320, Note_on_c, 6, 68, 0
9, 10320, Note_on_c, 6, 66, 64
9, 10350, Note_on_c, 6, 66, 0
9, 10350, Note_on_c, 6, 64, 64
9, 10380, Note_on_c, 6, 64, 0
9, 10380, Note_on_c, 6, 59, 64
9, 10380, Note_on_c, 6, 63, 64
9, 10380, Note_on_c, 6, 69, 64
9, 10440, Note_on_c, 6, 69, 0
9, 10440, Note_on_c, 6, 63, 0
9, 10440, Note_on_c, 6, 59, 0
9, 10440, Note_on_c, 6, 64, 64
9, 10440, Note_on_c, 6, 68, 64
9, 10500, Note_on_c, 6, 68, 0
9, 10500, Note_on_c, 6, 64, 0
9, 10500, Note_on_c, 6, 63, 64
9, 10500, Note_on_c, 6, 66, 64
9, 10560, Note_on_c, 6, 66, 0
9, 10560, Note_on_c, 6, 63, 0
9, 10560, Note_on_c, 6, 57, 64
9, 10560, Note_on_c, 6, 64, 64
9, 10620, Note_on_c, 6, 64, 0
9, 10620, Note_on_c, 6, 57, 0
9, 10620, Note_on_c, 6, 56, 64
9, 10620, Note_on_c, 6, 59, 64
9, 10740, Note_on_c, 6, 59, 0
9, 10740, Note_on_c, 6, 56, 0
9, 10740, Note_on_c, 6, 61, 40
9, 10740, Note_on_c, 6, 68, 40
9, 10800, Note_on_c, 6, 68, 0
9, 10800, Note_on_c, 6, 66, 40
9, 10860, Note_on_c, 6, 61, 0
9, 10860, Note_on_c, 6, 59, 40
9, 10920, Note_on_c, 6, 66, 0
9, 10920, Note_on_c, 6, 64, 40
9, 10980, Note_on_c, 6, 59, 0
9, 10980, Note_on_c, 6, 57, 40
9, 11040, Note_on_c, 6, 64, 0
9, 11040, Note_on_c, 6, 63, 40
9, 11100, Note_on_c, 6, 63, 0
9, 11100, Note_on_c, 6, 57, 0
9, 11100, Note_on_c, 6, 56, 40
9, 11100, Note_on_c, 6, 64, 40
9, 11160, Note_on_c, 6, 64, 0
9, 11160, Note_on_c, 6, 56, 0
9, 11160, Note_on_c, 6, 64, 40
9, 11160, Note_on_c, 6, 68, 40
9, 11220, Note_on_c, 6, 68, 0
9, 11220, Note_on_c, 6, 64, 0
9, 11220, Note_on_c, 6, 61, 64
9, 11220, Note_on_c, 6, 69, 64
9, 11340, Note_on_c, 6, 69, 0
9, 11340, Note_on_c, 6, 61, 0
9, 11340, Note_on_c, 6, 64, 64
9, 11340, Note_on_c, 6, 68, 64
9, 11340, Note_on_c, 6, 71, 64
9, 11460, Note_on_c, 6, 71, 0
9, 11460, Note_on_c, 6, 68, 0
9, 11460, Note_on_c, 6, 64, 0
9, 11460, Note_on_c, 6, 61, 64
9, 11460, Note_on_c, 6, 66, 64
9, 11460, Note_on_c, 6, 69, 64
9, 11520, Note_on_c, 6, 69, 0
9, 11520, Note_on_c, 6, 66, 0
9, 11520, Note_on_c, 6, 61, 0
9, 11520, Note_on_c, 6, 63, 64
9, 11520, Note_on_c, 6, 66, 64
9, 11580, Note_on_c, 6, 66, 0
9, 11580, Note_on_c, 6, 63, 0
9, 11580, Note_on_c, 6, 64, 64
9, 11580, Note_on_c, 6, 68, 64
9, 11640, Note_on_c, 6, 68, 0
9, 11640, Note_on_c, 6, 64, 0
9, 11640, Note_on_c, 6, 56, 64
9, 11640, Note_on_c, 6, 59, 64
9, 11700, Note_on_c, 6, 59, 0
9, 11700, Note_on_c, 6, 56, 0
9, 11700, Note_on_c, 6, 64, 40
9, 11700, Note_on_c, 6, 61, 40
9, 11730, Note_on_c, 6, 64, 0
9, 11730, Note_on_c, 6, 66, 43
9, 11760, Note_on_c, 6, 61, 0
9, 11760, Note_on_c, 6, 63, 46
9, 11790, Note_on_c, 6, 66, 0
9, 11790, Note_on_c, 6, 68, 48
9, 11820, Note_on_c, 6, 63, 0
9, 11820, Note_on_c, 6, 64, 51
9, 11850, Note_on_c, 6, 68, 0
9, 11850, Note_on_c, 6, 69, 54
9, 11880, Note_on_c, 6, 64, 0
9, 11880, Note_on_c, 6, 66, 57
9, 11910, Note_on_c, 6, 69, 0
9, 11910, Note_on_c, 6, 71, 60
9, 11940, Note_on_c, 6, 66, 0
9, 11940, Note_on_c, 6, 68, 63
9, 11970, Note_on_c, 6, 71, 0
9, 11970, Note_on_c, 6, 73, 65
9, 12000, Note_on_c, 6, 68, 0
9, 12000, Note_on_c, 6, 69, 68
9, 12030, Note_on_c, 6, 73, 0
9, 12030, Note_on_c, 6, 75, 71
9, 12060, Note_on_c, 6, 69, 0
9, 12060, Note_on_c, 6, 71, 74
9, 12090, Note_on_c, 6, 75, 0
9, 12090, Note_on_c, 6, 76, 77
9, 12120, Note_on_c, 6, 76, 0
9, 12120, Note_on_c, 6, 71, 0
9, 12120, Note_on_c, 6, 69, 79
9, 12120, Note_on_c, 6, 73, 79
9, 12120, Note_on_c, 6, 76, 79
9, 12180, Note_on_c, 6, 76, 0
9, 12180, Note_on_c, 6, 73, 0
9, 12180, Note_on_c, 6, 69, 0
9, 12180, Note_on_c, 6, 66, 70
9, 12180, Note_on_c, 6, 71, 70
9, 12180, Note_on_c, 6, 75, 70
9, 12300, Note_on_c, 6, 75, 0
9, 12300, Note_on_c, 6, 71, 0
9, 12300, Note_on_c, 6, 66, 0
9, 12300, Note_on_c, 6, 68, 70
9, 12300, Note_on_c, 6, 71, 70
9, 12300, Note_on_c, 6, 76, 70
9, 12360, Note_on_c, 6, 76, 0
9, 12360, Note_on_c, 6, 71, 0
9, 12360, Note_on_c, 6, 68, 0
9, 12360, Note_on_c, 6, 63, 70
9, 12360, Note_on_c, 6, 71, 70
9, 12420, Note_on_c, 6, 71, 0
9, 12420, Note_on_c, 6, 63, 0
9, 12420, Note_on_c, 6, 64, 70
9, 12420, Note_on_c, 6, 68, 70
9, 12442, Control_c, 6, 7, 127
9, 12480, Note_on_c, 6, 68, 0
9, 12480, Note_on_c, 6, 64, 0
9, 12480, Note_on_c, 6, 62, 50
9, 12480, Note_on_c, 6, 66, 50
9, 12540, Note_on_c, 6, 66, 0
9, 12540, Note_on_c, 6, 62, 0
9, 12540, Note_on_c, 6, 61, 50
9, 12540, Note_on_c, 6, 64, 50
9, 12600, Note_on_c, 6, 64, 0
9, 12600, Note_on_c, 6, 61, 0
9, 12600, Note_on_c, 6, 59, 50
9, 12600, Note_on_c, 6, 62, 50
9, 12600, Note_on_c, 6, 64, 50
9, 12660, Note_on_c, 6, 64, 0
9, 12660, Note_on_c, 6, 62, 0
9, 12660, Note_on_c, 6, 59, 0
9, 12660, Note_on_c, 6, 61, 40
9, 12660, Note_on_c, 6, 64, 40
9, 12720, Note_on_c, 6, 64, 0
9, 12720, Note_on_c, 6, 61, 0
9, 12780, Note_on_c, 6, 63, 43
9, 12780, Note_on_c, 6, 66, 43
9, 12840, Note_on_c, 6, 66, 0
9, 12840, Note_on_c, 6, 63, 0
9, 12900, Note_on_c, 6, 64, 45
9, 12900, Note_on_c, 6, 69, 45
9, 12960, Note_on_c, 6, 69, 0
9, 12960, Note_on_c, 6, 64, 0
9, 13020, Note_on_c, 6, 66, 48
9, 13020, Note_on_c, 6, 71, 48
9, 13080, Note_on_c, 6, 71, 0
9, 13080, Note_on_c, 6, 66, 0
9, 13140, Note_on_c, 6, 59, 50
9, 13140, Note_on_c, 6, 64, 50
9, 13140, Note_on_c, 6, 68, 50
9, 13200, Note_on_c, 6, 68, 0
9, 13200, Note_on_c, 6, 64, 0
9, 13200, Note_on_c, 6, 59, 0
9, 13200, Note_on_c, 6, 57, 51
9, 13200, Note_on_c, 6, 64, 51
9, 13200, Note_on_c, 6, 69, 51
9, 13260, Note_on_c, 6, 69, 0
9, 13260, Note_on_c, 6, 64, 0
9, 13260, Note_on_c, 6, 57, 0
9, 13260, Note_on_c, 6, 57, 53
9, 13260, Note_on_c, 6, 61, 53
9, 13260, Note_on_c, 6, 66, 53
9, 13320, Note_on_c, 6, 66, 0
9, 13320, Note_on_c, 6, 61, 0
9, 13320, Note_on_c, 6, 57, 0
9, 13320, Note_on_c, 6, 57, 54
9, 13320, Note_on_c, 6, 59, 54
9, 13320, Note_on_c, 6, 63, 54
9, 13380, Note_on_c, 6, 63, 0
9, 13380, Note_on_c, 6, 59, 0
9, 13380, Note_on_c, 6, 57, 0
9, 13380, Note_on_c, 6, 55, 55
9, 13380, Note_on_c, 6, 58, 55
9, 13380, Note_on_c, 6, 64, 55
9, 13440, Note_on_c, 6, 64, 0
9, 13440, Note_on_c, 6, 58, 0
9, 13440, Note_on_c, 6, 55, 0
9, 13560, Note_on_c, 6, 59, 59
9, 13560, Note_on_c, 6, 64, 59
9, 13560, Note_on_c, 6, 67, 59
9, 13620, Note_on_c, 6, 59, 0
9, 13620, Note_on_c, 6, 61, 60
9, 13680, Note_on_c, 6, 61, 0
9, 13680, Note_on_c, 6, 67, 0
9, 13680, Note_on_c, 6, 64, 0
9, 13800, Note_on_c, 6, 61, 64
9, 13800, Note_on_c, 6, 64, 64
9, 13860, Note_on_c, 6, 64, 0
9, 13860, Note_on_c, 6, 61, 0
9, 13860, Note_on_c, 6, 59, 65
9, 13860, Note_on_c, 6, 63, 65
9, 13920, Note_on_c, 6, 63, 0
9, 13920, Note_on_c, 6, 59, 0
9, 14040, Note_on_c, 6, 69, 69
9, 14040, Note_on_c, 6, 71, 69
9, 14100, Note_on_c, 6, 69, 0
9, 14100, Note_on_c, 6, 68, 70
9, 14160, Note_on_c, 6, 68, 0
9, 14160, Note_on_c, 6, 71, 0
9, 14160, Note_on_c, 6, 59, 70
9, 14160, Note_on_c, 6, 64, 70
9, 14220, Note_on_c, 6, 64, 0
9, 14220, Note_on_c, 6, 59, 0
9, 14220, Note_on_c, 6, 57, 70
9, 14220, Note_on_c, 6, 64, 70
9, 14220, Note_on_c, 6, 66, 70
9, 14280, Note_on_c, 6, 66, 0
9, 14280, Note_on_c, 6, 64, 0
9, 14280, Note_on_c, 6, 57, 0
9, 14280, Note_on_c, 6, 59, 70
9, 14280, Note_on_c, 6, 63, 70
9, 14340, Note_on_c, 6, 63, 0
9, 14340, Note_on_c, 6, 59, 0
9, 14340, Note_on_c, 6, 56, 70
9, 14340, Note_on_c, 6, 59, 70
9, 14340, Note_on_c, 6, 64, 70
9, 14460, Note_on_c, 6, 64, 0
9, 14460, Note_on_c, 6, 59, 0
9, 14460, Note_on_c, 6, 56, 0
9, 14510, Control_c, 6, 7, 100
9, 15360, Note_on_c, 6, 68, 40
9, 15360, Note_on_c, 6, 71, 40
9, 15420, Note_on_c, 6, 71, 0
9, 15420, Note_on_c, 6, 68, 0
9, 15420, Note_on_c, 6, 66, 40
9, 15420, Note_on_c, 6, 69, 40
9, 15480, Note_on_c, 6, 69, 0
9, 15480, Note_on_c, 6, 66, 0
9, 15480, Note_on_c, 6, 61, 40
9, 15480, Note_on_c, 6, 65, 40
9, 15480, Note_on_c, 6, 68, 40
9, 15540, Note_on_c, 6, 68, 0
9, 15540, Note_on_c, 6, 65, 0
9, 15540, Note_on_c, 6, 61, 0
9, 15540, Note_on_c, 6, 66, 40
9, 15540, Note_on_c, 6, 69, 40
9, 15600, Note_on_c, 6, 69, 0
9, 15600, Note_on_c, 6, 66, 0
9, 15600, Note_on_c, 6, 62, 42
9, 15600, Note_on_c, 6, 65, 42
9, 15660, Note_on_c, 6, 65, 0
9, 15660, Note_on_c, 6, 62, 0
9, 15660, Note_on_c, 6, 61, 44
9, 15660, Note_on_c, 6, 66, 44
9, 15720, Note_on_c, 6, 66, 0
9, 15720, Note_on_c, 6, 61, 0
9, 15720, Note_on_c, 6, 59, 46
9, 15720, Note_on_c, 6, 65, 46
9, 15780, Note_on_c, 6, 65, 0
9, 15780, Note_on_c, 6, 59, 0
9, 15780, Note_on_c, 6, 57, 48
9, 15780, Note_on_c, 6, 66, 48
9, 15840, Note_on_c, 6, 66, 0
9, 15840, Note_on_c, 6, 57, 0
9, 15840, Note_on_c, 6, 56, 49
9, 15840, Note_on_c, 6, 59, 49
9, 15840, Note_on_c, 6, 65, 49
9, 15900, Note_on_c, 6, 65, 0
9, 15900, Note_on_c, 6, 59, 0
9, 15900, Note_on_c, 6, 56, 0
9, 15900, Note_on_c, 6, 57, 51
9, 15900, Note_on_c, 6, 61, 51
9, 15900, Note_on_c, 6, 66, 51
9, 15960, Note_on_c, 6, 66, 0
9, 15960, Note_on_c, 6, 61, 0
9, 15960, Note_on_c, 6, 57, 0
9, 15960, Note_on_c, 6, 66, 53
9, 15960, Note_on_c, 6, 70, 53
9, 16020, Note_on_c, 6, 70, 0
9, 16020, Note_on_c, 6, 66, 0
9, 16020, Note_on_c, 6, 66, 55
9, 16020, Note_on_c, 6, 71, 55
9, 16080, Note_on_c, 6, 71, 0
9, 16080, Note_on_c, 6, 66, 0
9, 16080, Note_on_c, 6, 66, 57
9, 16080, Note_on_c, 6, 70, 57
9, 16140, Note_on_c, 6, 70, 0
9, 16140, Note_on_c, 6, 66, 0
9, 16140, Note_on_c, 6, 66, 59
9, 16140, Note_on_c, 6, 71, 59
9, 16200, Note_on_c, 6, 71, 0
9, 16200, Note_on_c, 6, 66, 0
9, 16200, Note_on_c, 6, 64, 61
9, 16200, Note_on_c, 6, 70, 61
9, 16260, Note_on_c, 6, 70, 0
9, 16260, Note_on_c, 6, 64, 0
9, 16260, Note_on_c, 6, 62, 63
9, 16260, Note_on_c, 6, 71, 63
9, 16320, Note_on_c, 6, 71, 0
9, 16320, Note_on_c, 6, 62, 0
9, 16320, Note_on_c, 6, 61, 64
9, 16320, Note_on_c, 6, 64, 64
9, 16320, Note_on_c, 6, 70, 64
9, 16380, Note_on_c, 6, 70, 0
9, 16380, Note_on_c, 6, 64, 0
9, 16380, Note_on_c, 6, 61, 0
9, 16380, Note_on_c, 6, 62, 66
9, 16380, Note_on_c, 6, 66, 66
9, 16380, Note_on_c, 6, 71, 66
9, 16440, Note_on_c, 6, 71, 0
9, 16440, Note_on_c, 6, 66, 0
9, 16440, Note_on_c, 6, 62, 0
9, 16440, Note_on_c, 6, 61, 68
9, 16440, Note_on_c, 6, 64, 68
9, 16440, Note_on_c, 6, 69, 68
9, 16500, Note_on_c, 6, 69, 0
9, 16500, Note_on_c, 6, 64, 0
9, 16500, Note_on_c, 6, 61, 0
9, 16500, Note_on_c, 6, 60, 64
9, 16500, Note_on_c, 6, 63, 64
9, 16500, Note_on_c, 6, 68, 64
9, 16560, Note_on_c, 6, 68, 0
9, 16560, Note_on_c, 6, 69, 64
9, 16620, Note_on_c, 6, 69, 0
9, 16620, Note_on_c, 6, 63, 0
9, 16620, Note_on_c, 6, 60, 0
9, 16620, Note_on_c, 6, 61, 64
9, 16620, Note_on_c, 6, 65, 64
9, 16620, Note_on_c, 6, 68, 64
9, 16680, Note_on_c, 6, 68, 0
9, 16680, Note_on_c, 6, 65, 0
9, 16680, Note_on_c, 6, 61, 0
9, 16680, Note_on_c, 6, 63, 64
9, 16680, Note_on_c, 6, 66, 64
9, 16740, Note_on_c, 6, 66, 0
9, 16740, Note_on_c, 6, 63, 0
9, 16740, Note_on_c, 6, 61, 64
9, 16740, Note_on_c, 6, 65, 64
9, 16860, Note_on_c, 6, 65, 0
9, 16860, Note_on_c, 6, 61, 0
9, 16860, Note_on_c, 6, 61, 40
9, 16860, Note_on_c, 6, 66, 40
9, 16920, Note_on_c, 6, 66, 0
9, 16920, Note_on_c, 6, 61, 0
9, 16920, Note_on_c, 6, 59, 40
9, 16920, Note_on_c, 6, 65, 40
9, 16980, Note_on_c, 6, 65, 0
9, 16980, Note_on_c, 6, 59, 0
9, 16980, Note_on_c, 6, 57, 64
9, 16980, Note_on_c, 6, 66, 64
9, 17040, Note_on_c, 6, 57, 0
9, 17040, Note_on_c, 6, 56, 64
9, 17100, Note_on_c, 6, 56, 0
9, 17100, Note_on_c, 6, 66, 0
9, 17100, Note_on_c, 6, 57, 64
9, 17100, Note_on_c, 6, 66, 64
9, 17160, Note_on_c, 6, 66, 0
9, 17160, Note_on_c, 6, 57, 0
9, 17160, Note_on_c, 6, 56, 64
9, 17160, Note_on_c, 6, 65, 64
9, 17200, Note_on_c, 6, 57, 64
9, 17210, Note_on_c, 6, 61, 64
9, 17220, Note_on_c, 6, 65, 0
9, 17220, Note_on_c, 6, 56, 0
9, 17220, Note_on_c, 6, 66, 64
9, 17340, Note_on_c, 6, 66, 0
9, 17340, Note_on_c, 6, 57, 0
9, 17340, Note_on_c, 6, 61, 0
9, 17340, Note_on_c, 6, 54, 64
9, 17340, Note_on_c, 6, 61, 64
9, 17340, Note_on_c, 6, 66, 64
9, 17390, Control_c, 6, 7, 127
9, 17400, Note_on_c, 6, 66, 0
9, 17400, Note_on_c, 6, 61, 0
9, 17400, Note_on_c, 6, 54, 0
9, 17400, Note_on_c, 6, 61, 64
9, 17400, Note_on_c, 6, 69, 64
9, 17460, Note_on_c, 6, 69, 0
9, 17460, Note_on_c, 6, 61, 0
9, 17460, Note_on_c, 6, 62, 50
9, 17460, Note_on_c, 6, 66, 50
9, 17460, Note_on_c, 6, 71, 50
9, 17580, Note_on_c, 6, 71, 0
9, 17580, Note_on_c, 6, 66, 0
9, 17580, Note_on_c, 6, 62, 0
9, 17580, Note_on_c, 6, 61, 50
9, 17580, Note_on_c, 6, 66, 50
9, 17580, Note_on_c, 6, 69, 50
9, 17700, Note_on_c, 6, 69, 0
9, 17700, Note_on_c, 6, 66, 0
9, 17700, Note_on_c, 6, 61, 0
9, 17700, Note_on_c, 6, 59, 50
9, 17700, Note_on_c, 6, 65, 50
9, 17700, Note_on_c, 6, 68, 50
9, 17820, Note_on_c, 6, 68, 0
9, 17820, Note_on_c, 6, 65, 0
9, 17820, Note_on_c, 6, 59, 0
9, 17820, Note_on_c, 6, 57, 50
9, 17820, Note_on_c, 6, 61, 50
9, 17820, Note_on_c, 6, 66, 50
9, 17940, Note_on_c, 6, 66, 0
9, 17940, Note_on_c, 6, 61, 0
9, 17940, Note_on_c, 6, 57, 0
9, 17940, Note_on_c, 6, 59, 64
9, 17940, Note_on_c, 6, 62, 64
9, 17940, Note_on_c, 6, 66, 64
9, 18060, Note_on_c, 6, 66, 0
9, 18060, Note_on_c, 6, 62, 0
9, 18060, Note_on_c, 6, 59, 0
9, 18060, Note_on_c, 6, 57, 64
9, 18060, Note_on_c, 6, 61, 64
9, 18060, Note_on_c, 6, 66, 64
9, 18180, Note_on_c, 6, 66, 0
9, 18180, Note_on_c, 6, 61, 0
9, 18180, Note_on_c, 6, 57, 0
9, 18180, Note_on_c, 6, 56, 64
9, 18180, Note_on_c, 6, 59, 64
9, 18180, Note_on_c, 6, 66, 64
9, 18240, Note_on_c, 6, 66, 0
9, 18240, Note_on_c, 6, 65, 64
9, 18300, Note_on_c, 6, 65, 0
9, 18300, Note_on_c, 6, 59, 0
9, 18300, Note_on_c, 6, 56, 0
9, 18300, Note_on_c, 6, 57, 64
9, 18300, Note_on_c, 6, 61, 64
9, 18300, Note_on_c, 6, 66, 64
9, 18420, Note_on_c, 6, 66, 0
9, 18420, Note_on_c, 6, 61, 0
9, 18420, Note_on_c, 6, 57, 0
9, 18420, Note_on_c, 6, 54, 40
9, 18420, Note_on_c, 6, 59, 40
9, 18420, Note_on_c, 6, 62, 40
9, 18480, Note_on_c, 6, 62, 0
9, 18480, Note_on_c, 6, 59, 0
9, 18480, Note_on_c, 6, 54, 0
9, 18480, Note_on_c, 6, 56, 43
9, 18480, Note_on_c, 6, 59, 43
9, 18480, Note_on_c, 6, 65, 43
9, 18540, Note_on_c, 6, 65, 0
9, 18540, Note_on_c, 6, 59, 0
9, 18540, Note_on_c, 6, 56, 0
9, 18540, Note_on_c, 6, 59, 46
9, 18540, Note_on_c, 6, 66, 46
9, 18540, Note_on_c, 6, 63, 46
9, 18600, Note_on_c, 6, 66, 0
9, 18600, Note_on_c, 6, 59, 0
9, 18600, Note_on_c, 6, 63, 0
9, 18600, Note_on_c, 6, 59, 49
9, 18600, Note_on_c, 6, 68, 49
9, 18660, Note_on_c, 6, 68, 0
9, 18660, Note_on_c, 6, 59, 0
9, 18660, Note_on_c, 6, 57, 52
9, 18660, Note_on_c, 6, 61, 52
9, 18660, Note_on_c, 6, 66, 52
9, 18660, Note_on_c, 6, 69, 52
9, 18720, Note_on_c, 6, 69, 0
9, 18720, Note_on_c, 6, 57, 0
9, 18720, Note_on_c, 6, 61, 0
9, 18720, Note_on_c, 6, 66, 0
9, 18720, Note_on_c, 6, 62, 55
9, 18720, Note_on_c, 6, 66, 55
9, 18720, Note_on_c, 6, 71, 55
9, 18780, Note_on_c, 6, 71, 0
9, 18780, Note_on_c, 6, 66, 0
9, 18780, Note_on_c, 6, 62, 0
9, 18780, Note_on_c, 6, 66, 58
9, 18780, Note_on_c, 6, 69, 58
9, 18780, Note_on_c, 6, 73, 58
9, 18840, Note_on_c, 6, 73, 0
9, 18840, Note_on_c, 6, 69, 0
9, 18840, Note_on_c, 6, 66, 0
9, 18840, Note_on_c, 6, 66, 61
9, 18840, Note_on_c, 6, 71, 61
9, 18840, Note_on_c, 6, 74, 61
9, 18900, Note_on_c, 6, 74, 0
9, 18900, Note_on_c, 6, 71, 0
9, 18900, Note_on_c, 6, 66, 0
9, 18900, Note_on_c, 6, 65, 64
9, 18900, Note_on_c, 6, 68, 64
9, 18900, Note_on_c, 6, 73, 64
9, 18960, Note_on_c, 6, 68, 0
9, 18960, Note_on_c, 6, 65, 0
9, 18960, Note_on_c, 6, 66, 64
9, 19020, Note_on_c, 6, 66, 0
9, 19020, Note_on_c, 6, 73, 0
9, 19020, Note_on_c, 6, 66, 64
9, 19020, Note_on_c, 6, 69, 64
9, 19080, Note_on_c, 6, 69, 0
9, 19080, Note_on_c, 6, 66, 0
9, 19080, Note_on_c, 6, 65, 64
9, 19080, Note_on_c, 6, 68, 64
9, 19140, Note_on_c, 6, 68, 0
9, 19140, Note_on_c, 6, 65, 0
9, 19140, Note_on_c, 6, 57, 64
9, 19140, Note_on_c, 6, 66, 64
9, 19320, Note_on_c, 6, 66, 0
9, 19320, Note_on_c, 6, 57, 0
9, 19380, Note_on_c, 6, 64, 45
9, 19380, Note_on_c, 6, 69, 45
9, 19440, Note_on_c, 6, 69, 0
9, 19440, Note_on_c, 6, 64, 0
9, 19440, Note_on_c, 6, 64, 45
9, 19440, Note_on_c, 6, 68, 45
9, 19500, Note_on_c, 6, 68, 0
9, 19500, Note_on_c, 6, 64, 0
9, 19500, Note_on_c, 6, 61, 45
9, 19500, Note_on_c, 6, 69, 45
9, 19560, Note_on_c, 6, 69, 0
9, 19560, Note_on_c, 6, 61, 0
9, 19560, Note_on_c, 6, 57, 45
9, 19560, Note_on_c, 6, 67, 45
9, 19620, Note_on_c, 6, 67, 0
9, 19620, Note_on_c, 6, 57, 0
9, 19620, Note_on_c, 6, 57, 45
9, 19620, Note_on_c, 6, 62, 45
9, 19620, Note_on_c, 6, 66, 45
9, 19740, Note_on_c, 6, 66, 0
9, 19740, Note_on_c, 6, 62, 0
9, 19740, Note_on_c, 6, 57, 0
9, 19740, Note_on_c, 6, 57, 45
9, 19740, Note_on_c, 6, 61, 45
9, 19740, Note_on_c, 6, 66, 45
9, 19800, Note_on_c, 6, 66, 0
9, 19800, Note_on_c, 6, 61, 0
9, 19800, Note_on_c, 6, 57, 0
9, 19800, Note_on_c, 6, 59, 45
9, 19800, Note_on_c, 6, 62, 45
9, 19860, Note_on_c, 6, 62, 0
9, 19860, Note_on_c, 6, 59, 0
9, 19860, Note_on_c, 6, 55, 45
9, 19860, Note_on_c, 6, 61, 45
9, 19920, Note_on_c, 6, 61, 0
9, 19920, Note_on_c, 6, 64, 45
9, 19980, Note_on_c, 6, 55, 0
9, 19980, Note_on_c, 6, 58, 45
9, 20040, Note_on_c, 6, 58, 0
9, 20040, Note_on_c, 6, 64, 0
9, 20040, Note_on_c, 6, 54, 45
9, 20040, Note_on_c, 6, 64, 45
9, 20100, Note_on_c, 6, 54, 0
9, 20100, Note_on_c, 6, 59, 45
9, 20160, Note_on_c, 6, 64, 0
9, 20160, Note_on_c, 6, 62, 45
9, 20220, Note_on_c, 6, 62, 0
9, 20220, Note_on_c, 6, 59, 0
9, 20220, Note_on_c, 6, 62, 45
9, 20220, Note_on_c, 6, 66, 45
9, 20280, Note_on_c, 6, 66, 0
9, 20280, Note_on_c, 6, 62, 0
9, 20280, Note_on_c, 6, 66, 45
9, 20280, Note_on_c, 6, 71, 45
9, 20340, Note_on_c, 6, 71, 0
9, 20340, Note_on_c, 6, 66, 0
9, 20340, Note_on_c, 6, 64, 45
9, 20340, Note_on_c, 6, 68, 45
9, 20400, Note_on_c, 6, 68, 0
9, 20400, Note_on_c, 6, 64, 0
9, 20400, Note_on_c, 6, 64, 45
9, 20400, Note_on_c, 6, 69, 45
9, 20460, Note_on_c, 6, 69, 0
9, 20460, Note_on_c, 6, 64, 0
9, 20460, Note_on_c, 6, 61, 45
9, 20460, Note_on_c, 6, 64, 45
9, 20580, Note_on_c, 6, 64, 0
9, 20580, Note_on_c, 6, 61, 0
9, 20580, Note_on_c, 6, 59, 45
9, 20580, Note_on_c, 6, 62, 45
9, 20700, Note_on_c, 6, 62, 0
9, 20700, Note_on_c, 6, 59, 0
9, 20700, Note_on_c, 6, 59, 45
9, 20700, Note_on_c, 6, 65, 45
9, 20820, Note_on_c, 6, 65, 0
9, 20820, Note_on_c, 6, 59, 0
9, 20820, Note_on_c, 6, 57, 45
9, 20820, Note_on_c, 6, 61, 45
9, 20820, Note_on_c, 6, 66, 45
9, 20940, Note_on_c, 6, 61, 0
9, 20940, Note_on_c, 6, 57, 0
9, 20940, Note_on_c, 6, 56, 49
9, 20940, Note_on_c, 6, 60, 49
9, 20940, Note_on_c, 6, 63, 49
9, 21060, Note_on_c, 6, 63, 0
9, 21060, Note_on_c, 6, 66, 0
9, 21060, Note_on_c, 6, 56, 0
9, 21060, Note_on_c, 6, 60, 0
9, 21060, Note_on_c, 6, 56, 53
9, 21060, Note_on_c, 6, 61, 53
9, 21060, Note_on_c, 6, 64, 53
9, 21180, Note_on_c, 6, 64, 0
9, 21180, Note_on_c, 6, 61, 0
9, 21180, Note_on_c, 6, 56, 0
9, 21180, Note_on_c, 6, 61, 57
9, 21180, Note_on_c, 6, 64, 57
9, 21180, Note_on_c, 6, 68, 57
9, 21300, Note_on_c, 6, 68, 0
9, 21300, Note_on_c, 6, 64, 0
9, 21300, Note_on_c, 6, 61, 0
9, 21300, Note_on_c, 6, 57, 61
9, 21300, Note_on_c, 6, 61, 61
9, 21360, Note_on_c, 6, 61, 0
9, 21360, Note_on_c, 6, 57, 0
9, 21360, Note_on_c, 6, 57, 62
9, 21360, Note_on_c, 6, 59, 62
9, 21420, Note_on_c, 6, 59, 0
9, 21420, Note_on_c, 6, 57, 0
9, 21420, Note_on_c, 6, 54, 64
9, 21420, Note_on_c, 6, 57, 64
9, 21480, Note_on_c, 6, 57, 0
9, 21480, Note_on_c, 6, 54, 0
9, 21480, Note_on_c, 6, 57, 66
9, 21480, Note_on_c, 6, 61, 66
9, 21540, Note_on_c, 6, 61, 0
9, 21540, Note_on_c, 6, 57, 0
9, 21540, Note_on_c, 6, 56, 68
9, 21540, Note_on_c, 6, 60, 68
9, 21540, Note_on_c, 6, 63, 68
9, 21600, Note_on_c, 6, 56, 0
9, 21600, Note_on_c, 6, 54, 70
9, 21660, Note_on_c, 6, 54, 0
9, 21660, Note_on_c, 6, 63, 0
9, 21660, Note_on_c, 6, 60, 0
9, 21660, Note_on_c, 6, 56, 72
9, 21660, Note_on_c, 6, 61, 72
9, 21720, Note_on_c, 6, 61, 0
9, 21720, Note_on_c, 6, 56, 0
9, 21720, Note_on_c, 6, 61, 74
9, 21720, Note_on_c, 6, 64, 74
9, 21780, Note_on_c, 6, 64, 0
9, 21780, Note_on_c, 6, 61, 0
9, 21780, Note_on_c, 6, 61, 75
9, 21780, Note_on_c, 6, 64, 75
9, 21900, Note_on_c, 6, 64, 0
9, 21900, Note_on_c, 6, 61, 0
9, 21900, Note_on_c, 6, 56, 75
9, 21900, Note_on_c, 6, 60, 75
9, 21900, Note_on_c, 6, 63, 75
9, 22020, Note_on_c, 6, 63, 0
9, 22020, Note_on_c, 6, 60, 0
9, 22020, Note_on_c, 6, 56, 0
9, 22280, Control_c, 6, 7, 100
9, 22920, Note_on_c, 6, 66, 64
9, 22920, Note_on_c, 6, 69, 64
9, 22980, Note_on_c, 6, 69, 0
9, 22980, Note_on_c, 6, 66, 0
9, 22980, Note_on_c, 6, 57, 64
9, 22980, Note_on_c, 6, 61, 64
9, 22980, Note_on_c, 6, 64, 64
9, 22980, Note_on_c, 6, 67, 64
9, 23100, Note_on_c, 6, 64, 0
9, 23100, Note_on_c, 6, 57, 0
9, 23100, Note_on_c, 6, 61, 0
9, 23100, Note_on_c, 6, 59, 64
9, 23100, Note_on_c, 6, 62, 64
9, 23220, Note_on_c, 6, 62, 0
9, 23220, Note_on_c, 6, 59, 0
9, 23220, Note_on_c, 6, 57, 64
9, 23220, Note_on_c, 6, 64, 64
9, 23280, Note_on_c, 6, 57, 0
9, 23280, Note_on_c, 6, 67, 0
9, 23280, Note_on_c, 6, 61, 64
9, 23340, Note_on_c, 6, 61, 0
9, 23340, Note_on_c, 6, 64, 0
9, 23340, Note_on_c, 6, 62, 64
9, 23340, Note_on_c, 6, 66, 64
9, 23400, Note_on_c, 6, 66, 0
9, 23400, Note_on_c, 6, 62, 0
9, 23400, Note_on_c, 6, 62, 64
9, 23400, Note_on_c, 6, 68, 64
9, 23460, Note_on_c, 6, 68, 0
9, 23460, Note_on_c, 6, 62, 0
9, 23460, Note_on_c, 6, 64, 64
9, 23460, Note_on_c, 6, 69, 64
9, 23580, Note_on_c, 6, 69, 0
9, 23580, Note_on_c, 6, 64, 0
9, 23580, Note_on_c, 6, 64, 64
9, 23580, Note_on_c, 6, 68, 64
9, 23580, Note_on_c, 6, 71, 64
9, 23700, Note_on_c, 6, 71, 0
9, 23700, Note_on_c, 6, 68, 0
9, 23700, Note_on_c, 6, 64, 0
9, 23700, Note_on_c, 6, 64, 64
9, 23700, Note_on_c, 6, 73, 64
9, 23760, Note_on_c, 6, 73, 0
9, 23760, Note_on_c, 6, 69, 64
9, 23820, Note_on_c, 6, 69, 0
9, 23820, Note_on_c, 6, 64, 0
9, 23820, Note_on_c, 6, 62, 64
9, 23820, Note_on_c, 6, 68, 64
9, 23880, Note_on_c, 6, 68, 0
9, 23880, Note_on_c, 6, 62, 0
9, 23880, Note_on_c, 6, 61, 64
9, 23880, Note_on_c, 6, 64, 64
9, 23880, Note_on_c, 6, 69, 64
9, 23940, Note_on_c, 6, 69, 0
9, 23940, Note_on_c, 6, 64, 0
9, 23940, Note_on_c, 6, 61, 0
9, 23940, Note_on_c, 6, 59, 64
9, 23940, Note_on_c, 6, 64, 64
9, 23940, Note_on_c, 6, 68, 64
9, 24060, Note_on_c, 6, 68, 0
9, 24060, Note_on_c, 6, 64, 0
9, 24060, Note_on_c, 6, 59, 0
9, 24120, Note_on_c, 6, 68, 46
9, 24120, Note_on_c, 6, 71, 46
9, 24180, Note_on_c, 6, 71, 0
9, 24180, Note_on_c, 6, 68, 0
9, 24180, Note_on_c, 6, 69, 40
9, 24180, Note_on_c, 6, 73, 40
9, 24300, Note_on_c, 6, 73, 0
9, 24300, Note_on_c, 6, 69, 0
9, 24300, Note_on_c, 6, 64, 40
9, 24300, Note_on_c, 6, 71, 40
9, 24420, Note_on_c, 6, 71, 0
9, 24420, Note_on_c, 6, 69, 40
9, 24480, Note_on_c, 6, 64, 0
9, 24480, Note_on_c, 6, 63, 40
9, 24540, Note_on_c, 6, 63, 0
9, 24540, Note_on_c, 6, 69, 0
9, 24540, Note_on_c, 6, 64, 40
9, 24540, Note_on_c, 6, 68, 40
9, 24660, Note_on_c, 6, 68, 0
9, 24660, Note_on_c, 6, 64, 0
9, 24660, Note_on_c, 6, 57, 64
9, 24660, Note_on_c, 6, 64, 64
9, 24660, Note_on_c, 6, 69, 64
9, 24780, Note_on_c, 6, 69, 0
9, 24780, Note_on_c, 6, 64, 0
9, 24780, Note_on_c, 6, 57, 0
9, 24780, Note_on_c, 6, 64, 64
9, 24780, Note_on_c, 6, 68, 64
9, 24900, Note_on_c, 6, 68, 0
9, 24900, Note_on_c, 6, 69, 64
9, 24960, Note_on_c, 6, 69, 0
9, 24960, Note_on_c, 6, 64, 0
9, 24960, Note_on_c, 6, 63, 64
9, 24960, Note_on_c, 6, 69, 64
9, 25020, Note_on_c, 6, 69, 0
9, 25020, Note_on_c, 6, 63, 0
9, 25020, Note_on_c, 6, 64, 64
9, 25020, Note_on_c, 6, 68, 64
9, 25140, Note_on_c, 6, 68, 0
9, 25140, Note_on_c, 6, 64, 0
9, 25140, Note_on_c, 6, 58, 45
9, 25140, Note_on_c, 6, 64, 45
9, 25260, Note_on_c, 6, 64, 0
9, 25260, Note_on_c, 6, 58, 0
9, 25260, Note_on_c, 6, 54, 45
9, 25260, Note_on_c, 6, 61, 45
9, 25260, Note_on_c, 6, 66, 45
9, 25320, Note_on_c, 6, 66, 0
9, 25320, Note_on_c, 6, 61, 0
9, 25320, Note_on_c, 6, 54, 0
9, 25320, Note_on_c, 6, 58, 45
9, 25320, Note_on_c, 6, 61, 45
9, 25320, Note_on_c, 6, 64, 45
9, 25380, Note_on_c, 6, 64, 0
9, 25380, Note_on_c, 6, 61, 0
9, 25380, Note_on_c, 6, 58, 0
9, 25380, Note_on_c, 6, 59, 45
9, 25380, Note_on_c, 6, 62, 45
9, 25440, Note_on_c, 6, 62, 0
9, 25440, Note_on_c, 6, 59, 0
9, 25440, Note_on_c, 6, 58, 45
9, 25440, Note_on_c, 6, 66, 45
9, 25500, Note_on_c, 6, 66, 0
9, 25500, Note_on_c, 6, 58, 0
9, 25500, Note_on_c, 6, 62, 45
9, 25500, Note_on_c, 6, 66, 45
9, 25560, Note_on_c, 6, 66, 0
9, 25560, Note_on_c, 6, 62, 0
9, 25560, Note_on_c, 6, 66, 45
9, 25560, Note_on_c, 6, 71, 45
9, 25620, Note_on_c, 6, 71, 0
9, 25620, Note_on_c, 6, 66, 0
9, 25620, Note_on_c, 6, 56, 45
9, 25620, Note_on_c, 6, 62, 45
9, 25740, Note_on_c, 6, 62, 0
9, 25740, Note_on_c, 6, 56, 0
9, 25740, Note_on_c, 6, 52, 45
9, 25740, Note_on_c, 6, 59, 45
9, 25740, Note_on_c, 6, 64, 45
9, 25800, Note_on_c, 6, 64, 0
9, 25800, Note_on_c, 6, 59, 0
9, 25800, Note_on_c, 6, 52, 0
9, 25800, Note_on_c, 6, 56, 45
9, 25800, Note_on_c, 6, 59, 45
9, 25800, Note_on_c, 6, 62, 45
9, 25860, Note_on_c, 6, 62, 0
9, 25860, Note_on_c, 6, 59, 0
9, 25860, Note_on_c, 6, 56, 0
9, 25860, Note_on_c, 6, 57, 45
9, 25860, Note_on_c, 6, 61, 45
9, 25980, Note_on_c, 6, 61, 0
9, 25980, Note_on_c, 6, 57, 0
9, 25980, Note_on_c, 6, 61, 45
9, 25980, Note_on_c, 6, 64, 45
9, 25980, Note_on_c, 6, 69, 45
9, 26100, Note_on_c, 6, 69, 0
9, 26100, Note_on_c, 6, 64, 0
9, 26100, Note_on_c, 6, 61, 0
9, 26100, Note_on_c, 6, 61, 40
9, 26100, Note_on_c, 6, 66, 40
9, 26160, Note_on_c, 6, 61, 0
9, 26160, Note_on_c, 6, 59, 40
9, 26220, Note_on_c, 6, 66, 0
9, 26220, Note_on_c, 6, 64, 40
9, 26280, Note_on_c, 6, 59, 0
9, 26280, Note_on_c, 6, 57, 40
9, 26340, Note_on_c, 6, 64, 0
9, 26340, Note_on_c, 6, 62, 40
9, 26400, Note_on_c, 6, 57, 0
9, 26400, Note_on_c, 6, 56, 40
9, 26460, Note_on_c, 6, 56, 0
9, 26460, Note_on_c, 6, 62, 0
9, 26460, Note_on_c, 6, 57, 40
9, 26460, Note_on_c, 6, 61, 40
9, 26520, Note_on_c, 6, 61, 0
9, 26520, Note_on_c, 6, 57, 0
9, 26520, Note_on_c, 6, 61, 40
9, 26520, Note_on_c, 6, 64, 40
9, 26580, Note_on_c, 6, 64, 0
9, 26580, Note_on_c, 6, 61, 0
9, 26580, Note_on_c, 6, 62, 40
9, 26580, Note_on_c, 6, 66, 40
9, 26700, Note_on_c, 6, 66, 0
9, 26700, Note_on_c, 6, 62, 0
9, 26700, Note_on_c, 6, 64, 40
9, 26700, Note_on_c, 6, 69, 40
9, 26820, Note_on_c, 6, 64, 0
9, 26820, Note_on_c, 6, 62, 40
9, 26880, Note_on_c, 6, 69, 0
9, 26880, Note_on_c, 6, 68, 40
9, 26940, Note_on_c, 6, 68, 0
9, 26940, Note_on_c, 6, 62, 0
9, 26940, Note_on_c, 6, 61, 40
9, 26940, Note_on_c, 6, 69, 40
9, 27000, Note_on_c, 6, 69, 0
9, 27000, Note_on_c, 6, 61, 0
9, 27000, Note_on_c, 6, 57, 40
9, 27000, Note_on_c, 6, 64, 40
9, 27060, Note_on_c, 6, 64, 0
9, 27060, Note_on_c, 6, 57, 0
9, 27060, Note_on_c, 6, 69, 40
9, 27060, Note_on_c, 6, 66, 40
9, 27090, Note_on_c, 6, 69, 0
9, 27090, Note_on_c, 6, 71, 42
9, 27120, Note_on_c, 6, 66, 0
9, 27120, Note_on_c, 6, 68, 45
9, 27150, Note_on_c, 6, 71, 0
9, 27150, Note_on_c, 6, 73, 47
9, 27180, Note_on_c, 6, 68, 0
9, 27180, Note_on_c, 6, 69, 49
9, 27210, Note_on_c, 6, 73, 0
9, 27210, Note_on_c, 6, 74, 51
9, 27240, Note_on_c, 6, 69, 0
9, 27240, Note_on_c, 6, 71, 54
9, 27270, Note_on_c, 6, 74, 0
9, 27270, Note_on_c, 6, 76, 56
9, 27300, Note_on_c, 6, 71, 0
9, 27300, Note_on_c, 6, 73, 58
9, 27330, Note_on_c, 6, 76, 0
9, 27330, Note_on_c, 6, 78, 60
9, 27360, Note_on_c, 6, 73, 0
9, 27360, Note_on_c, 6, 74, 63
9, 27390, Note_on_c, 6, 78, 0
9, 27390, Note_on_c, 6, 80, 65
9, 27420, Note_on_c, 6, 74, 0
9, 27420, Note_on_c, 6, 76, 67
9, 27450, Note_on_c, 6, 80, 0
9, 27450, Note_on_c, 6, 81, 69
9, 27480, Note_on_c, 6, 81, 0
9, 27480, Note_on_c, 6, 76, 0
9, 27480, Note_on_c, 6, 74, 72
9, 27480, Note_on_c, 6, 78, 72
9, 27480, Note_on_c, 6, 81, 72
9, 27540, Note_on_c, 6, 81, 0
9, 27540, Note_on_c, 6, 78, 0
9, 27540, Note_on_c, 6, 74, 0
9, 27540, Note_on_c, 6, 71, 70
9, 27540, Note_on_c, 6, 76, 70
9, 27540, Note_on_c, 6, 80, 70
9, 27600, Note_on_c, 6, 80, 0
9, 27600, Note_on_c, 6, 76, 0
9, 27600, Note_on_c, 6, 71, 0
9, 27600, Note_on_c, 6, 69, 70
9, 27600, Note_on_c, 6, 76, 70
9, 27600, Note_on_c, 6, 81, 70
9, 27660, Note_on_c, 6, 81, 0
9, 27660, Note_on_c, 6, 76, 0
9, 27660, Note_on_c, 6, 69, 0
9, 27660, Note_on_c, 6, 64, 70
9, 27660, Note_on_c, 6, 69, 70
9, 27660, Note_on_c, 6, 73, 70
9, 27720, Note_on_c, 6, 73, 0
9, 27720, Note_on_c, 6, 69, 0
9, 27720, Note_on_c, 6, 64, 0
9, 27720, Note_on_c, 6, 64, 70
9, 27720, Note_on_c, 6, 68, 70
9, 27720, Note_on_c, 6, 71, 70
9, 27780, Note_on_c, 6, 71, 0
9, 27780, Note_on_c, 6, 68, 0
9, 27780, Note_on_c, 6, 64, 0
9, 27780, Note_on_c, 6, 61, 70
9, 27780, Note_on_c, 6, 64, 70
9, 27780, Note_on_c, 6, 69, 70
9, 27850, Control_c, 6, 7, 127
9, 27960, Note_on_c, 6, 69, 0
9, 27960, Note_on_c, 6, 64, 0
9, 27960, Note_on_c, 6, 61, 0
9, 27960, Note_on_c, 6, 64, 70
9, 27960, Note_on_c, 6, 67, 70
9, 28020, Note_on_c, 6, 67, 0
9, 28020, Note_on_c, 6, 64, 0
9, 28020, Note_on_c, 6, 59, 64
9, 28020, Note_on_c, 6, 62, 64
9, 28020, Note_on_c, 6, 66, 64
9, 28140, Note_on_c, 6, 66, 0
9, 28140, Note_on_c, 6, 62, 0
9, 28140, Note_on_c, 6, 59, 0
9, 28140, Note_on_c, 6, 59, 64
9, 28140, Note_on_c, 6, 62, 64
9, 28140, Note_on_c, 6, 68, 64
9, 28260, Note_on_c, 6, 68, 0
9, 28260, Note_on_c, 6, 62, 0
9, 28260, Note_on_c, 6, 59, 0
9, 28260, Note_on_c, 6, 62, 65
9, 28260, Note_on_c, 6, 66, 65
9, 28260, Note_on_c, 6, 69, 65
9, 28380, Note_on_c, 6, 69, 0
9, 28380, Note_on_c, 6, 71, 65
9, 28440, Note_on_c, 6, 66, 0
9, 28440, Note_on_c, 6, 62, 0
9, 28440, Note_on_c, 6, 64, 65
9, 28440, Note_on_c, 6, 68, 65
9, 28500, Note_on_c, 6, 68, 0
9, 28500, Note_on_c, 6, 64, 0
9, 28500, Note_on_c, 6, 71, 0
9, 28500, Note_on_c, 6, 64, 66
9, 28500, Note_on_c, 6, 69, 66
9, 28500, Note_on_c, 6, 73, 66
9, 28560, Note_on_c, 6, 73, 0
9, 28560, Note_on_c, 6, 69, 0
9, 28560, Note_on_c, 6, 64, 0
9, 28560, Note_on_c, 6, 66, 66
9, 28560, Note_on_c, 6, 69, 66
9, 28560, Note_on_c, 6, 74, 66
9, 28620, Note_on_c, 6, 74, 0
9, 28620, Note_on_c, 6, 69, 0
9, 28620, Note_on_c, 6, 66, 0
9, 28620, Note_on_c, 6, 69, 66
9, 28620, Note_on_c, 6, 71, 66
9, 28620, Note_on_c, 6, 74, 66
9, 28680, Note_on_c, 6, 74, 0
9, 28680, Note_on_c, 6, 71, 0
9, 28680, Note_on_c, 6, 69, 0
9, 28680, Note_on_c, 6, 68, 66
9, 28680, Note_on_c, 6, 71, 66
9, 28740, Note_on_c, 6, 71, 0
9, 28740, Note_on_c, 6, 68, 0
9, 28740, Note_on_c, 6, 63, 66
9, 28740, Note_on_c, 6, 69, 66
9, 28800, Note_on_c, 6, 69, 0
9, 28800, Note_on_c, 6, 63, 0
9, 28920, Note_on_c, 6, 69, 67
9, 28920, Note_on_c, 6, 72, 67
9, 29010, Note_on_c, 6, 72, 0
9, 29010, Note_on_c, 6, 71, 67
9, 29040, Note_on_c, 6, 71, 0
9, 29040, Note_on_c, 6, 69, 0
9, 29160, Note_on_c, 6, 66, 68
9, 29160, Note_on_c, 6, 69, 68
9, 29220, Note_on_c, 6, 69, 0
9, 29220, Note_on_c, 6, 66, 0
9, 29220, Note_on_c, 6, 64, 68
9, 29220, Note_on_c, 6, 68, 68
9, 29280, Note_on_c, 6, 68, 0
9, 29280, Note_on_c, 6, 64, 0
9, 29400, Note_on_c, 6, 62, 68
9, 29400, Note_on_c, 6, 64, 68
9, 29460, Note_on_c, 6, 62, 0
9, 29460, Note_on_c, 6, 61, 69
9, 29520, Note_on_c, 6, 61, 0
9, 29520, Note_on_c, 6, 64, 0
9, 29520, Note_on_c, 6, 64, 69
9, 29520, Note_on_c, 6, 69, 69
9, 29580, Note_on_c, 6, 69, 0
9, 29580, Note_on_c, 6, 64, 0
9, 29580, Note_on_c, 6, 66, 69
9, 29580, Note_on_c, 6, 69, 69
9, 29580, Note_on_c, 6, 73, 69
9, 29640, Note_on_c, 6, 73, 0
9, 29640, Note_on_c, 6, 69, 0
9, 29640, Note_on_c, 6, 66, 0
9, 29640, Note_on_c, 6, 68, 69
9, 29640, Note_on_c, 6, 71, 69
9, 29700, Note_on_c, 6, 71, 0
9, 29700, Note_on_c, 6, 68, 0
9, 29700, Note_on_c, 6, 61, 69
9, 29700, Note_on_c, 6, 64, 69
9, 29700, Note_on_c, 6, 69, 69
9, 29940, Note_on_c, 6, 69, 0
9, 29940, Note_on_c, 6, 64, 0
9, 29940, Note_on_c, 6, 61, 0
9, 30420, End_track
10, 0, Start_track
10, 0, MIDI_port, 0
10, 0, Title_t, "Harpsichord lh"
10, 0, Program_c, 7, 6
10, 120, Note_on_c, 7, 45, 50
10, 150, Note_on_c, 7, 45, 0
10, 150, Note_on_c, 7, 47, 50
10, 180, Note_on_c, 7, 47, 0
10, 180, Note_on_c, 7, 49, 50
10, 215, Note_on_c, 7, 49, 0
10, 240, Note_on_c, 7, 45, 50
10, 275, Note_on_c, 7, 45, 0
10, 300, Note_on_c, 7, 52, 50
10, 335, Note_on_c, 7, 52, 0
10, 360, Note_on_c, 7, 50, 50
10, 395, Note_on_c, 7, 50, 0
10, 420, Note_on_c, 7, 49, 50
10, 455, Note_on_c, 7, 49, 0
10, 480, Note_on_c, 7, 47, 50
10, 515, Note_on_c, 7, 47, 0
10, 540, Note_on_c, 7, 49, 50
10, 575, Note_on_c, 7, 49, 0
10, 600, Note_on_c, 7, 44, 50
10, 635, Note_on_c, 7, 44, 0
10, 660, Note_on_c, 7, 45, 64
10, 695, Note_on_c, 7, 45, 0
10, 720, Note_on_c, 7, 49, 64
10, 755, Note_on_c, 7, 49, 0
10, 780, Note_on_c, 7, 47, 64
10, 815, Note_on_c, 7, 47, 0
10, 840, Note_on_c, 7, 45, 64
10, 875, Note_on_c, 7, 45, 0
10, 900, Note_on_c, 7, 52, 64
10, 935, Note_on_c, 7, 52, 0
10, 960, Note_on_c, 7, 54, 64
10, 995, Note_on_c, 7, 54, 0
10, 1020, Note_on_c, 7, 56, 64
10, 1055, Note_on_c, 7, 56, 0
10, 1080, Note_on_c, 7, 52, 64
10, 1115, Note_on_c, 7, 52, 0
10, 1140, Note_on_c, 7, 57, 50
10, 1175, Note_on_c, 7, 57, 0
10, 1200, Note_on_c, 7, 54, 50
10, 1235, Note_on_c, 7, 54, 0
10, 1260, Note_on_c, 7, 56, 50
10, 1295, Note_on_c, 7, 56, 0
10, 1320, Note_on_c, 7, 52, 50
10, 1355, Note_on_c, 7, 52, 0
10, 1380, Note_on_c, 7, 54, 50
10, 1415, Note_on_c, 7, 54, 0
10, 1440, Note_on_c, 7, 47, 50
10, 1475, Note_on_c, 7, 47, 0
10, 1500, Note_on_c, 7, 52, 50
10, 1535, Note_on_c, 7, 52, 0
10, 1560, Note_on_c, 7, 50, 50
10, 1595, Note_on_c, 7, 50, 0
10, 1620, Note_on_c, 7, 49, 64
10, 1655, Note_on_c, 7, 49, 0
10, 1680, Note_on_c, 7, 45, 64
10, 1715, Note_on_c, 7, 45, 0
10, 1740, Note_on_c, 7, 52, 64
10, 1775, Note_on_c, 7, 52, 0
10, 1800, Note_on_c, 7, 56, 64
10, 1835, Note_on_c, 7, 56, 0
10, 1860, Note_on_c, 7, 59, 64
10, 1895, Note_on_c, 7, 59, 0
10, 1920, Note_on_c, 7, 47, 64
10, 1955, Note_on_c, 7, 47, 0
10, 1980, Note_on_c, 7, 52, 64
10, 2015, Note_on_c, 7, 52, 0
10, 2040, Note_on_c, 7, 44, 64
10, 2075, Note_on_c, 7, 44, 0
10, 2100, Note_on_c, 7, 45, 40
10, 2135, Note_on_c, 7, 45, 0
10, 2160, Note_on_c, 7, 47, 43
10, 2195, Note_on_c, 7, 47, 0
10, 2220, Note_on_c, 7, 49, 46
10, 2255, Note_on_c, 7, 49, 0
10, 2280, Note_on_c, 7, 51, 49
10, 2315, Note_on_c, 7, 51, 0
10, 2340, Note_on_c, 7, 52, 52
10, 2375, Note_on_c, 7, 52, 0
10, 2400, Note_on_c, 7, 54, 55
10, 2435, Note_on_c, 7, 54, 0
10, 2460, Note_on_c, 7, 56, 58
10, 2495, Note_on_c, 7, 56, 0
10, 2520, Note_on_c, 7, 57, 61
10, 2615, Note_on_c, 7, 57, 0
10, 2640, Note_on_c, 7, 56, 64
10, 2670, Note_on_c, 7, 56, 0
10, 2670, Note_on_c, 7, 57, 64
10, 2700, Note_on_c, 7, 57, 0
10, 2700, Note_on_c, 7, 59, 64
10, 2735, Note_on_c, 7, 59, 0
10, 2760, Note_on_c, 7, 47, 64
10, 2795, Note_on_c, 7, 47, 0
10, 2820, Note_on_c, 7, 40, 64
10, 2855, Note_on_c, 7, 40, 0
10, 2880, Note_on_c, 7, 52, 64
10, 2910, Note_on_c, 7, 52, 0
10, 2910, Note_on_c, 7, 54, 64
10, 2940, Note_on_c, 7, 54, 0
10, 2940, Note_on_c, 7, 52, 64
10, 2975, Note_on_c, 7, 52, 0
10, 3000, Note_on_c, 7, 50, 64
10, 3035, Note_on_c, 7, 50, 0
10, 3060, Note_on_c, 7, 49, 35
10, 3095, Note_on_c, 7, 49, 0
10, 3120, Note_on_c, 7, 47, 35
10, 3155, Note_on_c, 7, 47, 0
10, 3180, Note_on_c, 7, 46, 35
10, 3215, Note_on_c, 7, 46, 0
10, 3240, Note_on_c, 7, 42, 35
10, 3275, Note_on_c, 7, 42, 0
10, 3300, Note_on_c, 7, 47, 35
10, 3335, Note_on_c, 7, 47, 0
10, 3360, Note_on_c, 7, 49, 35
10, 3395, Note_on_c, 7, 49, 0
10, 3420, Note_on_c, 7, 50, 35
10, 3455, Note_on_c, 7, 50, 0
10, 3480, Note_on_c, 7, 47, 35
10, 3515, Note_on_c, 7, 47, 0
10, 3540, Note_on_c, 7, 52, 35
10, 3575, Note_on_c, 7, 52, 0
10, 3600, Note_on_c, 7, 54, 35
10, 3635, Note_on_c, 7, 54, 0
10, 3660, Note_on_c, 7, 56, 35
10, 3695, Note_on_c, 7, 56, 0
10, 3720, Note_on_c, 7, 52, 35
10, 3755, Note_on_c, 7, 52, 0
10, 3780, Note_on_c, 7, 45, 35
10, 3815, Note_on_c, 7, 45, 0
10, 3840, Note_on_c, 7, 47, 35
10, 3875, Note_on_c, 7, 47, 0
10, 3900, Note_on_c, 7, 49, 35
10, 3935, Note_on_c, 7, 49, 0
10, 3960, Note_on_c, 7, 45, 35
10, 3995, Note_on_c, 7, 45, 0
10, 4020, Note_on_c, 7, 50, 35
10, 4055, Note_on_c, 7, 50, 0
10, 4080, Note_on_c, 7, 47, 36
10, 4115, Note_on_c, 7, 47, 0
10, 4140, Note_on_c, 7, 52, 36
10, 4175, Note_on_c, 7, 52, 0
10, 4200, Note_on_c, 7, 49, 37
10, 4235, Note_on_c, 7, 49, 0
10, 4260, Note_on_c, 7, 54, 38
10, 4295, Note_on_c, 7, 54, 0
10, 4320, Note_on_c, 7, 42, 38
10, 4355, Note_on_c, 7, 42, 0
10, 4380, Note_on_c, 7, 44, 39
10, 4415, Note_on_c, 7, 44, 0
10, 4440, Note_on_c, 7, 40, 39
10, 4475, Note_on_c, 7, 40, 0
10, 4500, Note_on_c, 7, 45, 40
10, 4535, Note_on_c, 7, 45, 0
10, 4560, Note_on_c, 7, 42, 41
10, 4595, Note_on_c, 7, 42, 0
10, 4620, Note_on_c, 7, 38, 41
10, 4655, Note_on_c, 7, 38, 0
10, 4680, Note_on_c, 7, 40, 42
10, 4715, Note_on_c, 7, 40, 0
10, 4740, Note_on_c, 7, 42, 43
10, 4775, Note_on_c, 7, 42, 0
10, 4920, Note_on_c, 7, 52, 44
10, 4955, Note_on_c, 7, 52, 0
10, 4980, Note_on_c, 7, 51, 45
10, 5015, Note_on_c, 7, 51, 0
10, 5160, Note_on_c, 7, 47, 47
10, 5195, Note_on_c, 7, 47, 0
10, 5220, Note_on_c, 7, 52, 48
10, 5255, Note_on_c, 7, 52, 0
10, 5400, Note_on_c, 7, 44, 49
10, 5435, Note_on_c, 7, 44, 0
10, 5460, Note_on_c, 7, 45, 64
10, 5495, Note_on_c, 7, 45, 0
10, 5520, Note_on_c, 7, 37, 64
10, 5555, Note_on_c, 7, 37, 0
10, 5580, Note_on_c, 7, 38, 64
10, 5615, Note_on_c, 7, 38, 0
10, 5640, Note_on_c, 7, 40, 64
10, 5675, Note_on_c, 7, 40, 0
10, 5700, Note_on_c, 7, 45, 64
10, 5820, Note_on_c, 7, 45, 0
10, 5940, Control_c, 7, 7, 100
10, 6600, Note_on_c, 7, 38, 64
10, 6660, Note_on_c, 7, 38, 0
10, 6660, Note_on_c, 7, 45, 64
10, 6690, Note_on_c, 7, 45, 0
10, 6690, Note_on_c, 7, 49, 64
10, 6708, Note_on_c, 7, 49, 0
10, 6720, Note_on_c, 7, 49, 64
10, 6750, Note_on_c, 7, 49, 0
10, 6750, Note_on_c, 7, 47, 64
10, 6768, Note_on_c, 7, 47, 0
10, 6780, Note_on_c, 7, 47, 64
10, 6810, Note_on_c, 7, 47, 0
10, 6810, Note_on_c, 7, 50, 64
10, 6828, Note_on_c, 7, 50, 0
10, 6840, Note_on_c, 7, 50, 64
10, 6870, Note_on_c, 7, 50, 0
10, 6870, Note_on_c, 7, 49, 64
10, 6888, Note_on_c, 7, 49, 0
10, 6900, Note_on_c, 7, 49, 64
10, 6935, Note_on_c, 7, 49, 0
10, 6960, Note_on_c, 7, 45, 64
10, 6995, Note_on_c, 7, 45, 0
10, 7020, Note_on_c, 7, 50, 64
10, 7055, Note_on_c, 7, 50, 0
10, 7080, Note_on_c, 7, 47, 64
10, 7115, Note_on_c, 7, 47, 0
10, 7140, Note_on_c, 7, 49, 64
10, 7200, Note_on_c, 7, 49, 0
10, 7200, Note_on_c, 7, 47, 64
10, 7230, Note_on_c, 7, 47, 0
10, 7230, Note_on_c, 7, 45, 64
10, 7260, Note_on_c, 7, 45, 0
10, 7260, Note_on_c, 7, 44, 64
10, 7295, Note_on_c, 7, 44, 0
10, 7320, Note_on_c, 7, 40, 64
10, 7355, Note_on_c, 7, 40, 0
10, 7380, Note_on_c, 7, 45, 64
10, 7415, Note_on_c, 7, 45, 0
10, 7440, Note_on_c, 7, 49, 64
10, 7475, Note_on_c, 7, 49, 0
10, 7500, Note_on_c, 7, 47, 64
10, 7535, Note_on_c, 7, 47, 0
10, 7560, Note_on_c, 7, 45, 64
10, 7595, Note_on_c, 7, 45, 0
10, 7620, Note_on_c, 7, 52, 64
10, 7655, Note_on_c, 7, 52, 0
10, 7680, Note_on_c, 7, 54, 64
10, 7715, Note_on_c, 7, 54, 0
10, 7740, Note_on_c, 7, 56, 64
10, 7775, Note_on_c, 7, 56, 0
10, 7800, Note_on_c, 7, 52, 64
10, 7835, Note_on_c, 7, 52, 0
10, 7860, Note_on_c, 7, 57, 40
10, 7895, Note_on_c, 7, 57, 0
10, 7920, Note_on_c, 7, 54, 40
10, 7955, Note_on_c, 7, 54, 0
10, 7980, Note_on_c, 7, 56, 40
10, 8015, Note_on_c, 7, 56, 0
10, 8040, Note_on_c, 7, 52, 40
10, 8075, Note_on_c, 7, 52, 0
10, 8100, Note_on_c, 7, 54, 40
10, 8135, Note_on_c, 7, 54, 0
10, 8160, Note_on_c, 7, 47, 40
10, 8195, Note_on_c, 7, 47, 0
10, 8220, Note_on_c, 7, 52, 40
10, 8255, Note_on_c, 7, 52, 0
10, 8280, Note_on_c, 7, 50, 40
10, 8315, Note_on_c, 7, 50, 0
10, 8340, Note_on_c, 7, 49, 64
10, 8375, Note_on_c, 7, 49, 0
10, 8400, Note_on_c, 7, 45, 64
10, 8435, Note_on_c, 7, 45, 0
10, 8460, Note_on_c, 7, 52, 64
10, 8495, Note_on_c, 7, 52, 0
10, 8520, Note_on_c, 7, 56, 64
10, 8555, Note_on_c, 7, 56, 0
10, 8580, Note_on_c, 7, 59, 64
10, 8615, Note_on_c, 7, 59, 0
10, 8640, Note_on_c, 7, 47, 64
10, 8675, Note_on_c, 7, 47, 0
10, 8700, Note_on_c, 7, 52, 64
10, 8735, Note_on_c, 7, 52, 0
10, 9060, Note_on_c, 7, 40, 64
10, 9060, Note_on_c, 7, 52, 64
10, 9180, Note_on_c, 7, 52, 0
10, 9180, Note_on_c, 7, 40, 0
10, 9300, Note_on_c, 7, 40, 64
10, 9420, Note_on_c, 7, 40, 0
10, 10020, Note_on_c, 7, 40, 64
10, 10055, Note_on_c, 7, 40, 0
10, 10080, Note_on_c, 7, 42, 64
10, 10115, Note_on_c, 7, 42, 0
10, 10140, Note_on_c, 7, 44, 64
10, 10175, Note_on_c, 7, 44, 0
10, 10200, Note_on_c, 7, 42, 64
10, 10235, Note_on_c, 7, 42, 0
10, 10260, Note_on_c, 7, 40, 64
10, 10260, Note_on_c, 7, 64, 64
10, 10295, Note_on_c, 7, 64, 0
10, 10295, Note_on_c, 7, 40, 0
10, 10320, Note_on_c, 7, 44, 64
10, 10320, Note_on_c, 7, 59, 64
10, 10355, Note_on_c, 7, 59, 0
10, 10355, Note_on_c, 7, 44, 0
10, 10380, Note_on_c, 7, 42, 64
10, 10415, Note_on_c, 7, 42, 0
10, 10440, Note_on_c, 7, 40, 64
10, 10475, Note_on_c, 7, 40, 0
10, 10500, Note_on_c, 7, 47, 64
10, 10535, Note_on_c, 7, 47, 0
10, 10560, Note_on_c, 7, 49, 64
10, 10590, Note_on_c, 7, 49, 0
10, 10590, Note_on_c, 7, 51, 64
10, 10620, Note_on_c, 7, 51, 0
10, 10620, Note_on_c, 7, 52, 64
10, 10655, Note_on_c, 7, 52, 0
10, 10680, Note_on_c, 7, 40, 64
10, 10715, Note_on_c, 7, 40, 0
10, 10740, Note_on_c, 7, 45, 40
10, 10775, Note_on_c, 7, 45, 0
10, 10800, Note_on_c, 7, 57, 40
10, 10835, Note_on_c, 7, 57, 0
10, 10860, Note_on_c, 7, 56, 40
10, 10895, Note_on_c, 7, 56, 0
10, 10920, Note_on_c, 7, 61, 40
10, 10955, Note_on_c, 7, 61, 0
10, 10980, Note_on_c, 7, 54, 40
10, 11015, Note_on_c, 7, 54, 0
10, 11040, Note_on_c, 7, 59, 40
10, 11075, Note_on_c, 7, 59, 0
10, 11100, Note_on_c, 7, 52, 40
10, 11135, Note_on_c, 7, 52, 0
10, 11160, Note_on_c, 7, 40, 40
10, 11195, Note_on_c, 7, 40, 0
10, 11220, Note_on_c, 7, 45, 64
10, 11255, Note_on_c, 7, 45, 0
10, 11280, Note_on_c, 7, 57, 64
10, 11315, Note_on_c, 7, 57, 0
10, 11340, Note_on_c, 7, 52, 64
10, 11375, Note_on_c, 7, 52, 0
10, 11400, Note_on_c, 7, 49, 64
10, 11435, Note_on_c, 7, 49, 0
10, 11460, Note_on_c, 7, 54, 64
10, 11495, Note_on_c, 7, 54, 0
10, 11520, Note_on_c, 7, 47, 64
10, 11555, Note_on_c, 7, 47, 0
10, 11580, Note_on_c, 7, 52, 64
10, 11615, Note_on_c, 7, 52, 0
10, 11640, Note_on_c, 7, 40, 64
10, 11675, Note_on_c, 7, 40, 0
10, 11700, Note_on_c, 7, 45, 40
10, 11735, Note_on_c, 7, 45, 0
10, 11760, Note_on_c, 7, 47, 46
10, 11795, Note_on_c, 7, 47, 0
10, 11820, Note_on_c, 7, 49, 51
10, 11855, Note_on_c, 7, 49, 0
10, 11880, Note_on_c, 7, 51, 57
10, 11915, Note_on_c, 7, 51, 0
10, 11940, Note_on_c, 7, 52, 63
10, 11975, Note_on_c, 7, 52, 0
10, 12000, Note_on_c, 7, 54, 68
10, 12035, Note_on_c, 7, 54, 0
10, 12060, Note_on_c, 7, 56, 74
10, 12095, Note_on_c, 7, 56, 0
10, 12120, Note_on_c, 7, 57, 79
10, 12215, Note_on_c, 7, 57, 0
10, 12240, Note_on_c, 7, 56, 85
10, 12270, Note_on_c, 7, 56, 0
10, 12270, Note_on_c, 7, 57, 85
10, 12300, Note_on_c, 7, 57, 0
10, 12300, Note_on_c, 7, 59, 85
10, 12335, Note_on_c, 7, 59, 0
10, 12360, Note_on_c, 7, 47, 85
10, 12395, Note_on_c, 7, 47, 0
10, 12420, Note_on_c, 7, 52, 85
10, 12442, Control_c, 7, 7, 127
10, 12455, Note_on_c, 7, 52, 0
10, 12480, Note_on_c, 7, 40, 64
10, 12515, Note_on_c, 7, 40, 0
10, 12540, Note_on_c, 7, 42, 64
10, 12575, Note_on_c, 7, 42, 0
10, 12600, Note_on_c, 7, 44, 64
10, 12635, Note_on_c, 7, 44, 0
10, 12660, Note_on_c, 7, 45, 40
10, 12695, Note_on_c, 7, 45, 0
10, 12720, Note_on_c, 7, 42, 41
10, 12755, Note_on_c, 7, 42, 0
10, 12780, Note_on_c, 7, 47, 43
10, 12815, Note_on_c, 7, 47, 0
10, 12840, Note_on_c, 7, 44, 44
10, 12875, Note_on_c, 7, 44, 0
10, 12900, Note_on_c, 7, 49, 45
10, 12935, Note_on_c, 7, 49, 0
10, 12960, Note_on_c, 7, 49, 46
10, 12995, Note_on_c, 7, 49, 0
10, 13020, Note_on_c, 7, 51, 48
10, 13055, Note_on_c, 7, 51, 0
10, 13080, Note_on_c, 7, 47, 49
10, 13115, Note_on_c, 7, 47, 0
10, 13140, Note_on_c, 7, 52, 50
10, 13175, Note_on_c, 7, 52, 0
10, 13200, Note_on_c, 7, 49, 51
10, 13235, Note_on_c, 7, 49, 0
10, 13260, Note_on_c, 7, 45, 53
10, 13295, Note_on_c, 7, 45, 0
10, 13320, Note_on_c, 7, 47, 54
10, 13355, Note_on_c, 7, 47, 0
10, 13380, Note_on_c, 7, 49, 55
10, 13415, Note_on_c, 7, 49, 0
10, 13560, Note_on_c, 7, 47, 59
10, 13595, Note_on_c, 7, 47, 0
10, 13620, Note_on_c, 7, 46, 60
10, 13655, Note_on_c, 7, 46, 0
10, 13800, Note_on_c, 7, 42, 64
10, 13835, Note_on_c, 7, 42, 0
10, 13860, Note_on_c, 7, 47, 65
10, 13895, Note_on_c, 7, 47, 0
10, 14040, Note_on_c, 7, 51, 69
10, 14075, Note_on_c, 7, 51, 0
10, 14100, Note_on_c, 7, 52, 70
10, 14135, Note_on_c, 7, 52, 0
10, 14160, Note_on_c, 7, 44, 70
10, 14195, Note_on_c, 7, 44, 0
10, 14220, Note_on_c, 7, 45, 70
10, 14255, Note_on_c, 7, 45, 0
10, 14280, Note_on_c, 7, 47, 70
10, 14315, Note_on_c, 7, 47, 0
10, 14340, Note_on_c, 7, 52, 70
10, 14460, Note_on_c, 7, 52, 0
10, 14510, Control_c, 7, 7, 100
10, 14520, Note_on_c, 7, 52, 40
10, 14520, Note_on_c, 7, 56, 40
10, 14520, Note_on_c, 7, 59, 40
10, 14555, Note_on_c, 7, 59, 0
10, 14555, Note_on_c, 7, 56, 0
10, 14555, Note_on_c, 7, 52, 0
10, 14580, Note_on_c, 7, 50, 40
10, 14580, Note_on_c, 7, 54, 40
10, 14580, Note_on_c, 7, 59, 40
10, 14615, Note_on_c, 7, 59, 0
10, 14615, Note_on_c, 7, 54, 0
10, 14615, Note_on_c, 7, 50, 0
10, 14760, Note_on_c, 7, 46, 40
10, 14760, Note_on_c, 7, 52, 40
10, 14760, Note_on_c, 7, 54, 40
10, 14795, Note_on_c, 7, 54, 0
10, 14795, Note_on_c, 7, 52, 0
10, 14795, Note_on_c, 7, 46, 0
10, 14820, Note_on_c, 7, 47, 40
10, 14820, Note_on_c, 7, 50, 40
10, 14820, Note_on_c, 7, 54, 40
10, 14855, Note_on_c, 7, 54, 0
10, 14855, Note_on_c, 7, 50, 0
10, 14855, Note_on_c, 7, 47, 0
10, 15000, Note_on_c, 7, 49, 40
10, 15000, Note_on_c, 7, 53, 40
10, 15000, Note_on_c, 7, 56, 40
10, 15035, Note_on_c, 7, 56, 0
10, 15035, Note_on_c, 7, 53, 0
10, 15035, Note_on_c, 7, 49, 0
10, 15060, Note_on_c, 7, 45, 40
10, 15060, Note_on_c, 7, 49, 40
10, 15060, Note_on_c, 7, 54, 40
10, 15095, Note_on_c, 7, 54, 0
10, 15095, Note_on_c, 7, 49, 0
10, 15095, Note_on_c, 7, 45, 0
10, 15240, Note_on_c, 7, 42, 40
10, 15240, Note_on_c, 7, 54, 40
10, 15240, Note_on_c, 7, 57, 40
10, 15275, Note_on_c, 7, 57, 0
10, 15275, Note_on_c, 7, 54, 0
10, 15275, Note_on_c, 7, 42, 0
10, 15300, Note_on_c, 7, 37, 40
10, 15300, Note_on_c, 7, 53, 40
10, 15300, Note_on_c, 7, 56, 40
10, 15335, Note_on_c, 7, 56, 0
10, 15335, Note_on_c, 7, 53, 0
10, 15335, Note_on_c, 7, 37, 0
10, 15360, Note_on_c, 7, 49, 40
10, 15450, Note_on_c, 7, 49, 0
10, 15450, Note_on_c, 7, 47, 40
10, 15468, Note_on_c, 7, 47, 0
10, 15480, Note_on_c, 7, 47, 40
10, 15510, Note_on_c, 7, 47, 0
10, 15510, Note_on_c, 7, 45, 40
10, 15528, Note_on_c, 7, 45, 0
10, 15540, Note_on_c, 7, 45, 40
10, 15570, Note_on_c, 7, 45, 0
10, 15570, Note_on_c, 7, 47, 41
10, 15588, Note_on_c, 7, 47, 0
10, 15600, Note_on_c, 7, 47, 42
10, 15630, Note_on_c, 7, 47, 0
10, 15630, Note_on_c, 7, 45, 43
10, 15648, Note_on_c, 7, 45, 0
10, 15660, Note_on_c, 7, 45, 44
10, 15690, Note_on_c, 7, 45, 0
10, 15690, Note_on_c, 7, 44, 45
10, 15708, Note_on_c, 7, 44, 0
10, 15720, Note_on_c, 7, 44, 46
10, 15750, Note_on_c, 7, 44, 0
10, 15750, Note_on_c, 7, 42, 47
10, 15768, Note_on_c, 7, 42, 0
10, 15780, Note_on_c, 7, 42, 48
10, 15815, Note_on_c, 7, 42, 0
10, 15840, Note_on_c, 7, 54, 49
10, 15930, Note_on_c, 7, 54, 0
10, 15930, Note_on_c, 7, 52, 52
10, 15948, Note_on_c, 7, 52, 0
10, 15960, Note_on_c, 7, 52, 53
10, 15990, Note_on_c, 7, 52, 0
10, 15990, Note_on_c, 7, 50, 54
10, 16008, Note_on_c, 7, 50, 0
10, 16020, Note_on_c, 7, 50, 55
10, 16050, Note_on_c, 7, 50, 0
10, 16050, Note_on_c, 7, 52, 56
10, 16068, Note_on_c, 7, 52, 0
10, 16080, Note_on_c, 7, 52, 57
10, 16110, Note_on_c, 7, 52, 0
10, 16110, Note_on_c, 7, 50, 58
10, 16128, Note_on_c, 7, 50, 0
10, 16140, Note_on_c, 7, 50, 59
10, 16170, Note_on_c, 7, 50, 0
10, 16170, Note_on_c, 7, 49, 60
10, 16188, Note_on_c, 7, 49, 0
10, 16200, Note_on_c, 7, 49, 61
10, 16230, Note_on_c, 7, 49, 0
10, 16230, Note_on_c, 7, 47, 62
10, 16248, Note_on_c, 7, 47, 0
10, 16260, Note_on_c, 7, 47, 63
10, 16295, Note_on_c, 7, 47, 0
10, 16320, Note_on_c, 7, 59, 64
10, 16410, Note_on_c, 7, 59, 0
10, 16410, Note_on_c, 7, 57, 67
10, 16428, Note_on_c, 7, 57, 0
10, 16440, Note_on_c, 7, 57, 68
10, 16470, Note_on_c, 7, 57, 0
10, 16470, Note_on_c, 7, 56, 69
10, 16488, Note_on_c, 7, 56, 0
10, 16500, Note_on_c, 7, 56, 64
10, 16535, Note_on_c, 7, 56, 0
10, 16560, Note_on_c, 7, 44, 64
10, 16595, Note_on_c, 7, 44, 0
10, 16620, Note_on_c, 7, 44, 64
10, 16655, Note_on_c, 7, 44, 0
10, 16680, Note_on_c, 7, 44, 64
10, 16715, Note_on_c, 7, 44, 0
10, 16740, Note_on_c, 7, 49, 64
10, 16770, Note_on_c, 7, 49, 0
10, 16770, Note_on_c, 7, 47, 61
10, 16788, Note_on_c, 7, 47, 0
10, 16800, Note_on_c, 7, 47, 57
10, 16830, Note_on_c, 7, 47, 0
10, 16830, Note_on_c, 7, 45, 54
10, 16848, Note_on_c, 7, 45, 0
10, 16860, Note_on_c, 7, 45, 50
10, 16890, Note_on_c, 7, 45, 0
10, 16890, Note_on_c, 7, 44, 47
10, 16908, Note_on_c, 7, 44, 0
10, 16920, Note_on_c, 7, 44, 43
10, 16950, Note_on_c, 7, 44, 0
10, 16950, Note_on_c, 7, 42, 40
10, 16968, Note_on_c, 7, 42, 0
10, 16980, Note_on_c, 7, 42, 64
10, 17015, Note_on_c, 7, 42, 0
10, 17040, Note_on_c, 7, 47, 64
10, 17075, Note_on_c, 7, 47, 0
10, 17100, Note_on_c, 7, 49, 64
10, 17135, Note_on_c, 7, 49, 0
10, 17160, Note_on_c, 7, 37, 64
10, 17195, Note_on_c, 7, 37, 0
10, 17220, Note_on_c, 7, 42, 64
10, 17255, Note_on_c, 7, 42, 0
10, 17280, Note_on_c, 7, 44, 64
10, 17315, Note_on_c, 7, 44, 0
10, 17340, Note_on_c, 7, 45, 64
10, 17375, Note_on_c, 7, 45, 0
10, 17390, Control_c, 7, 7, 127
10, 17400, Note_on_c, 7, 42, 64
10, 17435, Note_on_c, 7, 42, 0
10, 17460, Note_on_c, 7, 47, 50
10, 17495, Note_on_c, 7, 47, 0
10, 17520, Note_on_c, 7, 54, 50
10, 17555, Note_on_c, 7, 54, 0
10, 17580, Note_on_c, 7, 45, 50
10, 17615, Note_on_c, 7, 45, 0
10, 17640, Note_on_c, 7, 54, 50
10, 17675, Note_on_c, 7, 54, 0
10, 17700, Note_on_c, 7, 44, 50
10, 17735, Note_on_c, 7, 44, 0
10, 17760, Note_on_c, 7, 53, 50
10, 17795, Note_on_c, 7, 53, 0
10, 17820, Note_on_c, 7, 54, 50
10, 17855, Note_on_c, 7, 54, 0
10, 17880, Note_on_c, 7, 52, 50
10, 17915, Note_on_c, 7, 52, 0
10, 17940, Note_on_c, 7, 50, 64
10, 17975, Note_on_c, 7, 50, 0
10, 18000, Note_on_c, 7, 47, 64
10, 18035, Note_on_c, 7, 47, 0
10, 18060, Note_on_c, 7, 42, 64
10, 18095, Note_on_c, 7, 42, 0
10, 18120, Note_on_c, 7, 45, 64
10, 18155, Note_on_c, 7, 45, 0
10, 18180, Note_on_c, 7, 49, 64
10, 18215, Note_on_c, 7, 49, 0
10, 18240, Note_on_c, 7, 37, 64
10, 18275, Note_on_c, 7, 37, 0
10, 18300, Note_on_c, 7, 42, 64
10, 18335, Note_on_c, 7, 42, 0
10, 18360, Note_on_c, 7, 45, 64
10, 18395, Note_on_c, 7, 45, 0
10, 18420, Note_on_c, 7, 47, 40
10, 18455, Note_on_c, 7, 47, 0
10, 18480, Note_on_c, 7, 49, 43
10, 18515, Note_on_c, 7, 49, 0
10, 18540, Note_on_c, 7, 51, 46
10, 18575, Note_on_c, 7, 51, 0
10, 18600, Note_on_c, 7, 53, 49
10, 18635, Note_on_c, 7, 53, 0
10, 18660, Note_on_c, 7, 54, 52
10, 18695, Note_on_c, 7, 54, 0
10, 18720, Note_on_c, 7, 56, 55
10, 18755, Note_on_c, 7, 56, 0
10, 18780, Note_on_c, 7, 57, 58
10, 18815, Note_on_c, 7, 57, 0
10, 18840, Note_on_c, 7, 59, 61
10, 18935, Note_on_c, 7, 59, 0
10, 18960, Note_on_c, 7, 57, 64
10, 18990, Note_on_c, 7, 57, 0
10, 18990, Note_on_c, 7, 59, 64
10, 19020, Note_on_c, 7, 59, 0
10, 19020, Note_on_c, 7, 61, 64
10, 19055, Note_on_c, 7, 61, 0
10, 19080, Note_on_c, 7, 49, 64
10, 19115, Note_on_c, 7, 49, 0
10, 19140, Note_on_c, 7, 42, 64
10, 19175, Note_on_c, 7, 42, 0
10, 19200, Note_on_c, 7, 49, 64
10, 19235, Note_on_c, 7, 49, 0
10, 19260, Note_on_c, 7, 54, 54
10, 19295, Note_on_c, 7, 54, 0
10, 19320, Note_on_c, 7, 52, 45
10, 19350, Note_on_c, 7, 52, 0
10, 19350, Note_on_c, 7, 50, 40
10, 19380, Note_on_c, 7, 50, 0
10, 19380, Note_on_c, 7, 49, 45
10, 19415, Note_on_c, 7, 49, 0
10, 19440, Note_on_c, 7, 52, 45
10, 19475, Note_on_c, 7, 52, 0
10, 19500, Note_on_c, 7, 45, 45
10, 19535, Note_on_c, 7, 45, 0
10, 19560, Note_on_c, 7, 49, 45
10, 19595, Note_on_c, 7, 49, 0
10, 19620, Note_on_c, 7, 50, 45
10, 19655, Note_on_c, 7, 50, 0
10, 19680, Note_on_c, 7, 52, 45
10, 19710, Note_on_c, 7, 52, 0
10, 19710, Note_on_c, 7, 54, 45
10, 19740, Note_on_c, 7, 54, 0
10, 19740, Note_on_c, 7, 52, 45
10, 19770, Note_on_c, 7, 52, 0
10, 19770, Note_on_c, 7, 50, 45
10, 19800, Note_on_c, 7, 50, 0
10, 19800, Note_on_c, 7, 49, 45
10, 19830, Note_on_c, 7, 49, 0
10, 19830, Note_on_c, 7, 47, 45
10, 19860, Note_on_c, 7, 47, 0
10, 19860, Note_on_c, 7, 46, 45
10, 19895, Note_on_c, 7, 46, 0
10, 19920, Note_on_c, 7, 49, 45
10, 19955, Note_on_c, 7, 49, 0
10, 19980, Note_on_c, 7, 42, 45
10, 20015, Note_on_c, 7, 42, 0
10, 20040, Note_on_c, 7, 46, 45
10, 20075, Note_on_c, 7, 46, 0
10, 20100, Note_on_c, 7, 47, 45
10, 20190, Note_on_c, 7, 47, 0
10, 20190, Note_on_c, 7, 46, 45
10, 20220, Note_on_c, 7, 46, 0
10, 20220, Note_on_c, 7, 47, 45
10, 20250, Note_on_c, 7, 47, 0
10, 20250, Note_on_c, 7, 49, 45
10, 20280, Note_on_c, 7, 49, 0
10, 20280, Note_on_c, 7, 50, 45
10, 20375, Note_on_c, 7, 50, 0
10, 20400, Note_on_c, 7, 49, 45
10, 20430, Note_on_c, 7, 49, 0
10, 20430, Note_on_c, 7, 47, 45
10, 20460, Note_on_c, 7, 47, 0
10, 20460, Note_on_c, 7, 45, 45
10, 20495, Note_on_c, 7, 45, 0
10, 20520, Note_on_c, 7, 57, 45
10, 20615, Note_on_c, 7, 57, 0
10, 20640, Note_on_c, 7, 56, 45
10, 20670, Note_on_c, 7, 56, 0
10, 20670, Note_on_c, 7, 54, 45
10, 20700, Note_on_c, 7, 54, 0
10, 20700, Note_on_c, 7, 56, 45
10, 20735, Note_on_c, 7, 56, 0
10, 20760, Note_on_c, 7, 49, 45
10, 20795, Note_on_c, 7, 49, 0
10, 20820, Note_on_c, 7, 54, 45
10, 21000, Note_on_c, 7, 54, 0
10, 21000, Note_on_c, 7, 52, 51
10, 21030, Note_on_c, 7, 52, 0
10, 21030, Note_on_c, 7, 51, 52
10, 21060, Note_on_c, 7, 51, 0
10, 21060, Note_on_c, 7, 52, 53
10, 21095, Note_on_c, 7, 52, 0
10, 21120, Note_on_c, 7, 49, 55
10, 21155, Note_on_c, 7, 49, 0
10, 21180, Note_on_c, 7, 45, 57
10, 21215, Note_on_c, 7, 45, 0
10, 21240, Note_on_c, 7, 49, 59
10, 21275, Note_on_c, 7, 49, 0
10, 21300, Note_on_c, 7, 39, 61
10, 21335, Note_on_c, 7, 39, 0
10, 21360, Note_on_c, 7, 49, 62
10, 21395, Note_on_c, 7, 49, 0
10, 21420, Note_on_c, 7, 48, 64
10, 21455, Note_on_c, 7, 48, 0
10, 21480, Note_on_c, 7, 51, 66
10, 21515, Note_on_c, 7, 51, 0
10, 21540, Note_on_c, 7, 54, 68
10, 21575, Note_on_c, 7, 54, 0
10, 21600, Note_on_c, 7, 51, 70
10, 21635, Note_on_c, 7, 51, 0
10, 21660, Note_on_c, 7, 52, 72
10, 21695, Note_on_c, 7, 52, 0
10, 21720, Note_on_c, 7, 49, 74
10, 21755, Note_on_c, 7, 49, 0
10, 21780, Note_on_c, 7, 56, 75
10, 21815, Note_on_c, 7, 56, 0
10, 21840, Note_on_c, 7, 54, 75
10, 21875, Note_on_c, 7, 54, 0
10, 21900, Note_on_c, 7, 56, 75
10, 21935, Note_on_c, 7, 56, 0
10, 21960, Note_on_c, 7, 44, 75
10, 21995, Note_on_c, 7, 44, 0
10, 22020, Note_on_c, 7, 49, 75
10, 22020, Note_on_c, 7, 52, 75
10, 22020, Note_on_c, 7, 56, 75
10, 22020, Note_on_c, 7, 61, 75
10, 22140, Note_on_c, 7, 61, 0
10, 22140, Note_on_c, 7, 49, 0
10, 22140, Note_on_c, 7, 52, 0
10, 22140, Note_on_c, 7, 56, 0
10, 22280, Control_c, 7, 7, 100
10, 22920, Note_on_c, 7, 38, 64
10, 22980, Note_on_c, 7, 38, 0
10, 22980, Note_on_c, 7, 45, 64
10, 23010, Note_on_c, 7, 45, 0
10, 23010, Note_on_c, 7, 49, 64
10, 23028, Note_on_c, 7, 49, 0
10, 23040, Note_on_c, 7, 49, 64
10, 23070, Note_on_c, 7, 49, 0
10, 23070, Note_on_c, 7, 47, 64
10, 23088, Note_on_c, 7, 47, 0
10, 23100, Note_on_c, 7, 47, 64
10, 23130, Note_on_c, 7, 47, 0
10, 23130, Note_on_c, 7, 50, 64
10, 23148, Note_on_c, 7, 50, 0
10, 23160, Note_on_c, 7, 50, 64
10, 23190, Note_on_c, 7, 50, 0
10, 23190, Note_on_c, 7, 49, 64
10, 23208, Note_on_c, 7, 49, 0
10, 23220, Note_on_c, 7, 49, 64
10, 23255, Note_on_c, 7, 49, 0
10, 23280, Note_on_c, 7, 45, 64
10, 23315, Note_on_c, 7, 45, 0
10, 23340, Note_on_c, 7, 50, 64
10, 23375, Note_on_c, 7, 50, 0
10, 23400, Note_on_c, 7, 47, 64
10, 23435, Note_on_c, 7, 47, 0
10, 23460, Note_on_c, 7, 49, 64
10, 23520, Note_on_c, 7, 49, 0
10, 23520, Note_on_c, 7, 47, 64
10, 23550, Note_on_c, 7, 47, 0
10, 23550, Note_on_c, 7, 45, 64
10, 23580, Note_on_c, 7, 45, 0
10, 23580, Note_on_c, 7, 44, 64
10, 23615, Note_on_c, 7, 44, 0
10, 23640, Note_on_c, 7, 40, 64
10, 23675, Note_on_c, 7, 40, 0
10, 23700, Note_on_c, 7, 45, 64
10, 23735, Note_on_c, 7, 45, 0
10, 23760, Note_on_c, 7, 49, 64
10, 23795, Note_on_c, 7, 49, 0
10, 23820, Note_on_c, 7, 47, 64
10, 23855, Note_on_c, 7, 47, 0
10, 23880, Note_on_c, 7, 45, 64
10, 23915, Note_on_c, 7, 45, 0
10, 23940, Note_on_c, 7, 52, 64
10, 23975, Note_on_c, 7, 52, 0
10, 24000, Note_on_c, 7, 54, 59
10, 24035, Note_on_c, 7, 54, 0
10, 24060, Note_on_c, 7, 56, 55
10, 24095, Note_on_c, 7, 56, 0
10, 24120, Note_on_c, 7, 52, 50
10, 24155, Note_on_c, 7, 52, 0
10, 24180, Note_on_c, 7, 57, 40
10, 24215, Note_on_c, 7, 57, 0
10, 24240, Note_on_c, 7, 54, 40
10, 24275, Note_on_c, 7, 54, 0
10, 24300, Note_on_c, 7, 56, 40
10, 24335, Note_on_c, 7, 56, 0
10, 24360, Note_on_c, 7, 52, 40
10, 24395, Note_on_c, 7, 52, 0
10, 24420, Note_on_c, 7, 54, 40
10, 24455, Note_on_c, 7, 54, 0
10, 24480, Note_on_c, 7, 47, 40
10, 24515, Note_on_c, 7, 47, 0
10, 24540, Note_on_c, 7, 52, 40
10, 24575, Note_on_c, 7, 52, 0
10, 24600, Note_on_c, 7, 40, 40
10, 24635, Note_on_c, 7, 40, 0
10, 24660, Note_on_c, 7, 45, 64
10, 24695, Note_on_c, 7, 45, 0
10, 24720, Note_on_c, 7, 57, 64
10, 24755, Note_on_c, 7, 57, 0
10, 24780, Note_on_c, 7, 52, 64
10, 24815, Note_on_c, 7, 52, 0
10, 24840, Note_on_c, 7, 56, 64
10, 24875, Note_on_c, 7, 56, 0
10, 24900, Note_on_c, 7, 59, 64
10, 24935, Note_on_c, 7, 59, 0
10, 24960, Note_on_c, 7, 47, 64
10, 24995, Note_on_c, 7, 47, 0
10, 25020, Note_on_c, 7, 40, 64
10, 25055, Note_on_c, 7, 40, 0
10, 25080, Note_on_c, 7, 52, 64
10, 25110, Note_on_c, 7, 52, 0
10, 25110, Note_on_c, 7, 50, 64
10, 25140, Note_on_c, 7, 50, 0
10, 25140, Note_on_c, 7, 49, 45
10, 25175, Note_on_c, 7, 49, 0
10, 25200, Note_on_c, 7, 47, 45
10, 25235, Note_on_c, 7, 47, 0
10, 25260, Note_on_c, 7, 46, 45
10, 25295, Note_on_c, 7, 46, 0
10, 25320, Note_on_c, 7, 42, 45
10, 25355, Note_on_c, 7, 42, 0
10, 25380, Note_on_c, 7, 47, 45
10, 25415, Note_on_c, 7, 47, 0
10, 25440, Note_on_c, 7, 54, 45
10, 25475, Note_on_c, 7, 54, 0
10, 25500, Note_on_c, 7, 59, 45
10, 25535, Note_on_c, 7, 59, 0
10, 25560, Note_on_c, 7, 50, 45
10, 25590, Note_on_c, 7, 50, 0
10, 25590, Note_on_c, 7, 49, 45
10, 25620, Note_on_c, 7, 49, 0
10, 25620, Note_on_c, 7, 47, 45
10, 25655, Note_on_c, 7, 47, 0
10, 25680, Note_on_c, 7, 45, 45
10, 25715, Note_on_c, 7, 45, 0
10, 25740, Note_on_c, 7, 44, 45
10, 25775, Note_on_c, 7, 44, 0
10, 25800, Note_on_c, 7, 40, 45
10, 25835, Note_on_c, 7, 40, 0
10, 25860, Note_on_c, 7, 45, 45
10, 25895, Note_on_c, 7, 45, 0
10, 25920, Note_on_c, 7, 52, 45
10, 25955, Note_on_c, 7, 52, 0
10, 25980, Note_on_c, 7, 57, 45
10, 26015, Note_on_c, 7, 57, 0
10, 26040, Note_on_c, 7, 45, 45
10, 26075, Note_on_c, 7, 45, 0
10, 26100, Note_on_c, 7, 38, 40
10, 26135, Note_on_c, 7, 38, 0
10, 26160, Note_on_c, 7, 50, 40
10, 26195, Note_on_c, 7, 50, 0
10, 26220, Note_on_c, 7, 49, 40
10, 26255, Note_on_c, 7, 49, 0
10, 26280, Note_on_c, 7, 54, 40
10, 26315, Note_on_c, 7, 54, 0
10, 26340, Note_on_c, 7, 47, 40
10, 26375, Note_on_c, 7, 47, 0
10, 26400, Note_on_c, 7, 52, 40
10, 26435, Note_on_c, 7, 52, 0
10, 26460, Note_on_c, 7, 45, 40
10, 26495, Note_on_c, 7, 45, 0
10, 26520, Note_on_c, 7, 57, 40
10, 26555, Note_on_c, 7, 57, 0
10, 26580, Note_on_c, 7, 62, 40
10, 26615, Note_on_c, 7, 62, 0
10, 26640, Note_on_c, 7, 50, 40
10, 26675, Note_on_c, 7, 50, 0
10, 26700, Note_on_c, 7, 49, 40
10, 26735, Note_on_c, 7, 49, 0
10, 26760, Note_on_c, 7, 54, 40
10, 26795, Note_on_c, 7, 54, 0
10, 26820, Note_on_c, 7, 47, 40
10, 26855, Note_on_c, 7, 47, 0
10, 26880, Note_on_c, 7, 40, 40
10, 26915, Note_on_c, 7, 40, 0
10, 26940, Note_on_c, 7, 45, 40
10, 26975, Note_on_c, 7, 45, 0
10, 27000, Note_on_c, 7, 49, 40
10, 27035, Note_on_c, 7, 49, 0
10, 27060, Note_on_c, 7, 50, 40
10, 27095, Note_on_c, 7, 50, 0
10, 27120, Note_on_c, 7, 52, 45
10, 27155, Note_on_c, 7, 52, 0
10, 27180, Note_on_c, 7, 54, 49
10, 27215, Note_on_c, 7, 54, 0
10, 27240, Note_on_c, 7, 56, 54
10, 27275, Note_on_c, 7, 56, 0
10, 27300, Note_on_c, 7, 57, 58
10, 27335, Note_on_c, 7, 57, 0
10, 27360, Note_on_c, 7, 59, 63
10, 27395, Note_on_c, 7, 59, 0
10, 27420, Note_on_c, 7, 61, 67
10, 27455, Note_on_c, 7, 61, 0
10, 27480, Note_on_c, 7, 62, 72
10, 27575, Note_on_c, 7, 62, 0
10, 27600, Note_on_c, 7, 61, 70
10, 27630, Note_on_c, 7, 61, 0
10, 27630, Note_on_c, 7, 62, 70
10, 27660, Note_on_c, 7, 62, 0
10, 27660, Note_on_c, 7, 64, 70
10, 27695, Note_on_c, 7, 64, 0
10, 27720, Note_on_c, 7, 52, 70
10, 27755, Note_on_c, 7, 52, 0
10, 27780, Note_on_c, 7, 57, 70
10, 27815, Note_on_c, 7, 57, 0
10, 27840, Note_on_c, 7, 45, 70
10, 27850, Control_c, 7, 7, 127
10, 27875, Note_on_c, 7, 45, 0
10, 27900, Note_on_c, 7, 47, 70
10, 27935, Note_on_c, 7, 47, 0
10, 27960, Note_on_c, 7, 49, 70
10, 27995, Note_on_c, 7, 49, 0
10, 28020, Note_on_c, 7, 50, 64
10, 28055, Note_on_c, 7, 50, 0
10, 28080, Note_on_c, 7, 47, 64
10, 28115, Note_on_c, 7, 47, 0
10, 28140, Note_on_c, 7, 52, 64
10, 28175, Note_on_c, 7, 52, 0
10, 28200, Note_on_c, 7, 49, 65
10, 28235, Note_on_c, 7, 49, 0
10, 28260, Note_on_c, 7, 54, 65
10, 28295, Note_on_c, 7, 54, 0
10, 28320, Note_on_c, 7, 42, 65
10, 28355, Note_on_c, 7, 42, 0
10, 28380, Note_on_c, 7, 44, 65
10, 28415, Note_on_c, 7, 44, 0
10, 28440, Note_on_c, 7, 40, 65
10, 28475, Note_on_c, 7, 40, 0
10, 28500, Note_on_c, 7, 45, 66
10, 28535, Note_on_c, 7, 45, 0
10, 28560, Note_on_c, 7, 42, 66
10, 28595, Note_on_c, 7, 42, 0
10, 28620, Note_on_c, 7, 38, 66
10, 28655, Note_on_c, 7, 38, 0
10, 28680, Note_on_c, 7, 40, 66
10, 28715, Note_on_c, 7, 40, 0
10, 28740, Note_on_c, 7, 42, 66
10, 28775, Note_on_c, 7, 42, 0
10, 28920, Note_on_c, 7, 52, 67
10, 28955, Note_on_c, 7, 52, 0
10, 28980, Note_on_c, 7, 51, 67
10, 29015, Note_on_c, 7, 51, 0
10, 29160, Note_on_c, 7, 47, 68
10, 29195, Note_on_c, 7, 47, 0
10, 29220, Note_on_c, 7, 52, 68
10, 29255, Note_on_c, 7, 52, 0
10, 29400, Note_on_c, 7, 56, 68
10, 29435, Note_on_c, 7, 56, 0
10, 29460, Note_on_c, 7, 57, 69
10, 29495, Note_on_c, 7, 57, 0
10, 29520, Note_on_c, 7, 49, 69
10, 29555, Note_on_c, 7, 49, 0
10, 29580, Note_on_c, 7, 50, 69
10, 29615, Note_on_c, 7, 50, 0
10, 29640, Note_on_c, 7, 52, 69
10, 29675, Note_on_c, 7, 52, 0
10, 29700, Note_on_c, 7, 45, 69
10, 29700, Note_on_c, 7, 57, 69
10, 29940, Note_on_c, 7, 57, 0
10, 29940, Note_on_c, 7, 45, 0
10, 30420, End_track
0, 0, End_of_file
