0, 0, Header, 1, 6, 1024
1, 0, Start_track
1, 0, Time_signature, 3, 2, 24, 8
1, 0, Key_signature, -2, "major"
1, 0, Tempo, 500000
1, 52224, End_track
2, 0, Start_track
2, 0, Title_t, "Instrument 1"
2, 2048, Note_on_c, 0, 70, 96
2, 3072, Note_off_c, 0, 70, 0
2, 3072, Note_on_c, 0, 70, 96
2, 5120, Note_off_c, 0, 70, 0
2, 5120, Note_on_c, 0, 69, 96
2, 6144, Note_off_c, 0, 69, 0
2, 6144, Note_on_c, 0, 67, 96
2, 7168, Note_off_c, 0, 67, 0
2, 7168, Note_on_c, 0, 69, 96
2, 8192, Note_off_c, 0, 69, 0
2, 8192, Note_on_c, 0, 70, 96
2, 9216, Note_off_c, 0, 70, 0
2, 9216, Note_on_c, 0, 72, 96
2, 12288, Note_off_c, 0, 72, 0
2, 12288, Note_on_c, 0, 70, 96
2, 14336, Note_off_c, 0, 70, 0
2, 14336, Note_on_c, 0, 70, 96
2, 15360, Note_off_c, 0, 70, 0
2, 15360, Note_on_c, 0, 70, 96
2, 17408, Note_off_c, 0, 70, 0
2, 17408, Note_on_c, 0, 72, 96
2, 18432, Note_off_c, 0, 72, 0
2, 18432, Note_on_c, 0, 69, 96
2, 19456, Note_off_c, 0, 69, 0
2, 19456, Note_on_c, 0, 67, 96
2, 20480, Note_off_c, 0, 67, 0
2, 20480, Note_on_c, 0, 65, 96
2, 21504, Note_off_c, 0, 65, 0
2, 21504, Note_on_c, 0, 70, 96
2, 24576, Note_off_c, 0, 70, 0
2, 24576, Note_on_c, 0, 69, 96
2, 26624, Note_off_c, 0, 69, 0
2, 26624, Note_on_c, 0, 69, 96
2, 27648, Note_off_c, 0, 69, 0
2, 27648, Note_on_c, 0, 70, 96
2, 29696, Note_off_c, 0, 70, 0
2, 29696, Note_on_c, 0, 70, 96
2, 30720, Note_off_c, 0, 70, 0
2, 30720, Note_on_c, 0, 72, 96
2, 32768, Note_off_c, 0, 72, 0
2, 32768, Note_on_c, 0, 74, 96
2, 33792, Note_off_c, 0, 74, 0
2, 33792, Note_on_c, 0, 72, 96
2, 36864, Note_off_c, 0, 72, 0
2, 36864, Note_on_c, 0, 72, 96
2, 38912, Note_off_c, 0, 72, 0
2, 38912, Note_on_c, 0, 74, 96
2, 39936, Note_off_c, 0, 74, 0
2, 39936, Note_on_c, 0, 75, 96
2, 41984, Note_off_c, 0, 75, 0
2, 41984, Note_on_c, 0, 74, 96
2, 43008, Note_off_c, 0, 74, 0
2, 43008, Note_on_c, 0, 72, 96
2, 44032, Note_off_c, 0, 72, 0
2, 44032, Note_on_c, 0, 74, 96
2, 44544, Note_off_c, 0, 74, 0
2, 44544, Note_on_c, 0, 72, 96
2, 45056, Note_off_c, 0, 72, 0
2, 45056, Note_on_c, 0, 70, 96
2, 46592, Note_off_c, 0, 70, 0
2, 46592, Note_on_c, 0, 72, 96
2, 47104, Note_off_c, 0, 72, 0
2, 47104, Note_on_c, 0, 72, 96
2, 48640, Note_off_c, 0, 72, 0
2, 48640, Note_on_c, 0, 70, 96
2, 49152, Note_off_c, 0, 70, 0
2, 49152, Note_on_c, 0, 70, 96
2, 52224, Note_off_c, 0, 70, 0
2, 52224, End_track
3, 0, Start_track
3, 0, Title_t, "Instrument 2"
3, 2048, Note_on_c, 1, 65, 96
3, 3072, Note_off_c, 1, 65, 0
3, 3072, Note_on_c, 1, 67, 96
3, 5120, Note_off_c, 1, 67, 0
3, 5120, Note_on_c, 1, 65, 96
3, 6144, Note_off_c, 1, 65, 0
3, 6144, Note_on_c, 1, 63, 96
3, 7168, Note_off_c, 1, 63, 0
3, 7168, Note_on_c, 1, 65, 96
3, 8192, Note_off_c, 1, 65, 0
3, 8192, Note_on_c, 1, 65, 96
3, 9216, Note_off_c, 1, 65, 0
3, 9216, Note_on_c, 1, 67, 96
3, 10240, Note_off_c, 1, 67, 0
3, 10240, Note_on_c, 1, 65, 96
3, 12288, Note_off_c, 1, 65, 0
3, 12288, Note_on_c, 1, 65, 96
3, 14336, Note_off_c, 1, 65, 0
3, 14336, Note_on_c, 1, 65, 96
3, 15360, Note_off_c, 1, 65, 0
3, 15360, Note_on_c, 1, 65, 96
3, 17408, Note_off_c, 1, 65, 0
3, 17408, Note_on_c, 1, 67, 96
3, 18432, Note_off_c, 1, 67, 0
3, 18432, Note_on_c, 1, 65, 96
3, 20480, Note_off_c, 1, 65, 0
3, 20480, Note_on_c, 1, 65, 96
3, 21504, Note_off_c, 1, 65, 0
3, 21504, Note_on_c, 1, 65, 96
3, 22528, Note_off_c, 1, 65, 0
3, 22528, Note_on_c, 1, 64, 96
3, 23040, Note_off_c, 1, 64, 0
3, 23040, Note_on_c, 1, 62, 96
3, 23552, Note_off_c, 1, 62, 0
3, 23552, Note_on_c, 1, 64, 96
3, 24576, Note_off_c, 1, 64, 0
3, 24576, Note_on_c, 1, 65, 96
3, 26624, Note_off_c, 1, 65, 0
3, 26624, Note_on_c, 1, 66, 96
3, 27648, Note_off_c, 1, 66, 0
3, 27648, Note_on_c, 1, 67, 96
3, 29696, Note_off_c, 1, 67, 0
3, 29696, Note_on_c, 1, 67, 96
3, 30720, Note_off_c, 1, 67, 0
3, 30720, Note_on_c, 1, 63, 96
3, 32768, Note_off_c, 1, 63, 0
3, 32768, Note_on_c, 1, 62, 96
3, 33792, Note_off_c, 1, 62, 0
3, 33792, Note_on_c, 1, 64, 96
3, 34816, Note_off_c, 1, 64, 0
3, 34816, Note_on_c, 1, 65, 96
3, 35328, Note_off_c, 1, 65, 0
3, 35328, Note_on_c, 1, 64, 96
3, 35840, Note_off_c, 1, 64, 0
3, 35840, Note_on_c, 1, 67, 96
3, 36352, Note_off_c, 1, 67, 0
3, 36352, Note_on_c, 1, 65, 96
3, 36864, Note_off_c, 1, 65, 0
3, 36864, Note_on_c, 1, 65, 96
3, 38912, Note_off_c, 1, 65, 0
3, 38912, Note_on_c, 1, 69, 96
3, 39936, Note_off_c, 1, 69, 0
3, 39936, Note_on_c, 1, 70, 96
3, 40960, Note_off_c, 1, 70, 0
3, 40960, Note_on_c, 1, 72, 96
3, 41984, Note_off_c, 1, 72, 0
3, 41984, Note_on_c, 1, 65, 96
3, 43008, Note_off_c, 1, 65, 0
3, 43008, Note_on_c, 1, 67, 96
3, 44032, Note_off_c, 1, 67, 0
3, 44032, Note_on_c, 1, 69, 96
3, 45056, Note_off_c, 1, 69, 0
3, 45056, Note_on_c, 1, 62, 96
3, 45568, Note_off_c, 1, 62, 0
3, 45568, Note_on_c, 1, 63, 96
3, 46080, Note_off_c, 1, 63, 0
3, 46080, Note_on_c, 1, 65, 96
3, 47104, Note_off_c, 1, 65, 0
3, 47104, Note_on_c, 1, 67, 96
3, 48128, Note_off_c, 1, 67, 0
3, 48128, Note_on_c, 1, 65, 96
3, 49152, Note_off_c, 1, 65, 0
3, 49152, Note_on_c, 1, 65, 96
3, 52224, Note_off_c, 1, 65, 0
3, 52224, End_track
4, 0, Start_track
4, 0, Title_t, "Instrument 3"
4, 2048, Note_on_c, 2, 62, 96
4, 3072, Note_off_c, 2, 62, 0
4, 3072, Note_on_c, 2, 62, 96
4, 5120, Note_off_c, 2, 62, 0
4, 5120, Note_on_c, 2, 62, 96
4, 5632, Note_off_c, 2, 62, 0
4, 5632, Note_on_c, 2, 60, 96
4, 6144, Note_off_c, 2, 60, 0
4, 6144, Note_on_c, 2, 58, 96
4, 7168, Note_off_c, 2, 58, 0
4, 7168, Note_on_c, 2, 60, 96
4, 8192, Note_off_c, 2, 60, 0
4, 8192, Note_on_c, 2, 58, 96
4, 9216, Note_off_c, 2, 58, 0
4, 9216, Note_on_c, 2, 58, 96
4, 11264, Note_off_c, 2, 58, 0
4, 11264, Note_on_c, 2, 57, 96
4, 12288, Note_off_c, 2, 57, 0
4, 12288, Note_on_c, 2, 62, 96
4, 14336, Note_off_c, 2, 62, 0
4, 14336, Note_on_c, 2, 62, 96
4, 15360, Note_off_c, 2, 62, 0
4, 15360, Note_on_c, 2, 62, 96
4, 17408, Note_off_c, 2, 62, 0
4, 17408, Note_on_c, 2, 60, 96
4, 18432, Note_off_c, 2, 60, 0
4, 18432, Note_on_c, 2, 60, 96
4, 20480, Note_off_c, 2, 60, 0
4, 20480, Note_on_c, 2, 60, 96
4, 21504, Note_off_c, 2, 60, 0
4, 21504, Note_on_c, 2, 62, 96
4, 22528, Note_off_c, 2, 62, 0
4, 22528, Note_on_c, 2, 60, 96
4, 23552, Note_off_c, 2, 60, 0
4, 23552, Note_on_c, 2, 58, 96
4, 24576, Note_off_c, 2, 58, 0
4, 24576, Note_on_c, 2, 60, 96
4, 26624, Note_off_c, 2, 60, 0
4, 26624, Note_on_c, 2, 62, 96
4, 27648, Note_off_c, 2, 62, 0
4, 27648, Note_on_c, 2, 62, 96
4, 29696, Note_off_c, 2, 62, 0
4, 29696, Note_on_c, 2, 63, 96
4, 30720, Note_off_c, 2, 63, 0
4, 30720, Note_on_c, 2, 57, 96
4, 32768, Note_off_c, 2, 57, 0
4, 32768, Note_on_c, 2, 58, 96
4, 33792, Note_off_c, 2, 58, 0
4, 33792, Note_on_c, 2, 58, 96
4, 34816, Note_off_c, 2, 58, 0
4, 34816, Note_on_c, 2, 57, 96
4, 35328, Note_off_c, 2, 57, 0
4, 35328, Note_on_c, 2, 55, 96
4, 35840, Note_off_c, 2, 55, 0
4, 35840, Note_on_c, 2, 58, 96
4, 36352, Note_off_c, 2, 58, 0
4, 36352, Note_on_c, 2, 57, 96
4, 36864, Note_off_c, 2, 57, 0
4, 36864, Note_on_c, 2, 57, 96
4, 38912, Note_off_c, 2, 57, 0
4, 38912, Note_on_c, 2, 62, 96
4, 39936, Note_off_c, 2, 62, 0
4, 39936, Note_on_c, 2, 62, 96
4, 40960, Note_off_c, 2, 62, 0
4, 40960, Note_on_c, 2, 60, 96
4, 41984, Note_off_c, 2, 60, 0
4, 41984, Note_on_c, 2, 58, 96
4, 43008, Note_off_c, 2, 58, 0
4, 43008, Note_on_c, 2, 58, 96
4, 44032, Note_off_c, 2, 58, 0
4, 44032, Note_on_c, 2, 57, 96
4, 45056, Note_off_c, 2, 57, 0
4, 45056, Note_on_c, 2, 58, 96
4, 46080, Note_off_c, 2, 58, 0
4, 46080, Note_on_c, 2, 58, 96
4, 48128, Note_off_c, 2, 58, 0
4, 48128, Note_on_c, 2, 57, 96
4, 49152, Note_off_c, 2, 57, 0
4, 49152, Note_on_c, 2, 62, 96
4, 52224, Note_off_c, 2, 62, 0
4, 52224, End_track
5, 0, Start_track
5, 0, Title_t, "Instrument 4"
5, 2048, Note_on_c, 3, 58, 96
5, 3072, Note_off_c, 3, 58, 0
5, 3072, Note_on_c, 3, 55, 96
5, 5120, Note_off_c, 3, 55, 0
5, 5120, Note_on_c, 3, 50, 96
5, 6144, Note_off_c, 3, 50, 0
5, 6144, Note_on_c, 3, 51, 96
5, 8192, Note_off_c, 3, 51, 0
5, 8192, Note_on_c, 3, 50, 96
5, 9216, Note_off_c, 3, 50, 0
5, 9216, Note_on_c, 3, 51, 96
5, 10240, Note_off_c, 3, 51, 0
5, 10240, Note_on_c, 3, 53, 96
5, 12288, Note_off_c, 3, 53, 0
5, 12288, Note_on_c, 3, 46, 96
5, 14336, Note_off_c, 3, 46, 0
5, 14336, Note_on_c, 3, 58, 96
5, 15360, Note_off_c, 3, 58, 0
5, 15360, Note_on_c, 3, 50, 96
5, 17408, Note_off_c, 3, 50, 0
5, 17408, Note_on_c, 3, 52, 96
5, 18432, Note_off_c, 3, 52, 0
5, 18432, Note_on_c, 3, 53, 96
5, 19456, Note_off_c, 3, 53, 0
5, 19456, Note_on_c, 3, 55, 96
5, 20480, Note_off_c, 3, 55, 0
5, 20480, Note_on_c, 3, 57, 96
5, 21504, Note_off_c, 3, 57, 0
5, 21504, Note_on_c, 3, 55, 96
5, 24576, Note_off_c, 3, 55, 0
5, 24576, Note_on_c, 3, 53, 96
5, 26624, Note_off_c, 3, 53, 0
5, 26624, Note_on_c, 3, 50, 96
5, 27648, Note_off_c, 3, 50, 0
5, 27648, Note_on_c, 3, 55, 96
5, 29696, Note_off_c, 3, 55, 0
5, 29696, Note_on_c, 3, 51, 96
5, 30720, Note_off_c, 3, 51, 0
5, 30720, Note_on_c, 3, 48, 96
5, 32768, Note_off_c, 3, 48, 0
5, 32768, Note_on_c, 3, 46, 96
5, 33792, Note_off_c, 3, 46, 0
5, 33792, Note_on_c, 3, 48, 96
5, 36864, Note_off_c, 3, 48, 0
5, 36864, Note_on_c, 3, 53, 96
5, 38912, Note_off_c, 3, 53, 0
5, 38912, Note_on_c, 3, 54, 96
5, 39936, Note_off_c, 3, 54, 0
5, 39936, Note_on_c, 3, 55, 96
5, 40960, Note_off_c, 3, 55, 0
5, 40960, Note_on_c, 3, 57, 96
5, 41984, Note_off_c, 3, 57, 0
5, 41984, Note_on_c, 3, 58, 96
5, 43008, Note_off_c, 3, 58, 0
5, 43008, Note_on_c, 3, 52, 96
5, 44032, Note_off_c, 3, 52, 0
5, 44032, Note_on_c, 3, 54, 96
5, 45056, Note_off_c, 3, 54, 0
5, 45056, Note_on_c, 3, 55, 96
5, 46080, Note_off_c, 3, 55, 0
5, 46080, Note_on_c, 3, 50, 96
5, 47104, Note_off_c, 3, 50, 0
5, 47104, Note_on_c, 3, 51, 96
5, 48128, Note_off_c, 3, 51, 0
5, 48128, Note_on_c, 3, 53, 96
5, 49152, Note_off_c, 3, 53, 0
5, 49152, Note_on_c, 3, 46, 96
5, 52224, Note_off_c, 3, 46, 0
5, 52224, End_track
6, 0, Start_track
6, 0, Title_t, "Instrument 5"
6, 2048, Note_on_c, 4, 62, 96
6, 3072, Note_off_c, 4, 62, 0
6, 3072, Note_on_c, 4, 62, 96
6, 5120, Note_off_c, 4, 62, 0
6, 5120, Note_on_c, 4, 62, 96
6, 6144, Note_off_c, 4, 62, 0
6, 6144, Note_on_c, 4, 67, 96
6, 7168, Note_off_c, 4, 67, 0
6, 7168, Note_on_c, 4, 60, 96
6, 8192, Note_off_c, 4, 60, 0
6, 8192, Note_on_c, 4, 62, 96
6, 9216, Note_off_c, 4, 62, 0
6, 9216, Note_on_c, 4, 60, 96
6, 10752, Note_off_c, 4, 60, 0
6, 10752, Note_on_c, 4, 62, 96
6, 11264, Note_off_c, 4, 62, 0
6, 11264, Note_on_c, 4, 63, 96
6, 12288, Note_off_c, 4, 63, 0
6, 12288, Note_on_c, 4, 62, 96
6, 14336, Note_off_c, 4, 62, 0
6, 14336, Note_on_c, 4, 62, 96
6, 15360, Note_off_c, 4, 62, 0
6, 15360, Note_on_c, 4, 62, 96
6, 17408, Note_off_c, 4, 62, 0
6, 17408, Note_on_c, 4, 60, 96
6, 18432, Note_off_c, 4, 60, 0
6, 18432, Note_on_c, 4, 60, 96
6, 20480, Note_off_c, 4, 60, 0
6, 20480, Note_on_c, 4, 60, 96
6, 21504, Note_off_c, 4, 60, 0
6, 21504, Note_on_c, 4, 62, 96
6, 22528, Note_off_c, 4, 62, 0
6, 22528, Note_on_c, 4, 64, 96
6, 23040, Note_off_c, 4, 64, 0
6, 23040, Note_on_c, 4, 65, 96
6, 23552, Note_off_c, 4, 65, 0
6, 23552, Note_on_c, 4, 67, 96
6, 24576, Note_off_c, 4, 67, 0
6, 24576, Note_on_c, 4, 60, 96
6, 26624, Note_off_c, 4, 60, 0
6, 26624, Note_on_c, 4, 62, 96
6, 27648, Note_off_c, 4, 62, 0
6, 27648, Note_on_c, 4, 62, 96
6, 29696, Note_off_c, 4, 62, 0
6, 29696, Note_on_c, 4, 63, 96
6, 30720, Note_off_c, 4, 63, 0
6, 30720, Note_on_c, 4, 63, 96
6, 31744, Note_off_c, 4, 63, 0
6, 31744, Note_on_c, 4, 60, 96
6, 32768, Note_off_c, 4, 60, 0
6, 32768, Note_on_c, 4, 65, 96
6, 33792, Note_off_c, 4, 65, 0
6, 33792, Note_on_c, 4, 60, 96
6, 38912, Note_off_c, 4, 60, 0
6, 38912, Note_on_c, 4, 72, 96
6, 39936, Note_off_c, 4, 72, 0
6, 39936, Note_on_c, 4, 70, 96
6, 40960, Note_off_c, 4, 70, 0
6, 40960, Note_on_c, 4, 65, 96
6, 41984, Note_off_c, 4, 65, 0
6, 41984, Note_on_c, 4, 70, 96
6, 43008, Note_off_c, 4, 70, 0
6, 43008, Note_on_c, 4, 67, 96
6, 44032, Note_off_c, 4, 67, 0
6, 44032, Note_on_c, 4, 62, 96
6, 45056, Note_off_c, 4, 62, 0
6, 45056, Note_on_c, 4, 67, 96
6, 46080, Note_off_c, 4, 67, 0
6, 46080, Note_on_c, 4, 65, 96
6, 47104, Note_off_c, 4, 65, 0
6, 47104, Note_on_c, 4, 60, 96
6, 47616, Note_off_c, 4, 60, 0
6, 47616, Note_on_c, 4, 62, 96
6, 48128, Note_off_c, 4, 62, 0
6, 48128, Note_on_c, 4, 63, 96
6, 49152, Note_off_c, 4, 63, 0
6, 49152, Note_on_c, 4, 62, 96
6, 52224, Note_off_c, 4, 62, 0
6, 52224, End_track
0, 0, End_of_file
