0, 0, Header, 1, 5, 1024
1, 0, Start_track
1, 0, Time_signature, 3, 2, 24, 8
1, 0, Key_signature, 0, "major"
1, 0, Tempo, 576923
1, 3072, Time_signature, 3, 2, 24, 8
1, 3072, Key_signature, 0, "major"
1, 6144, Time_signature, 3, 2, 24, 8
1, 6144, Key_signature, 0, "major"
1, 9216, Time_signature, 3, 2, 24, 8
1, 9216, Key_signature, 0, "major"
1, 12288, Time_signature, 3, 2, 24, 8
1, 12288, Key_signature, 0, "major"
1, 15360, Time_signature, 3, 2, 24, 8
1, 15360, Key_signature, 0, "major"
1, 18432, Time_signature, 3, 2, 24, 8
1, 18432, Key_signature, 0, "major"
1, 21504, Time_signature, 3, 2, 24, 8
1, 21504, Key_signature, 0, "major"
1, 24576, Time_signature, 3, 2, 24, 8
1, 24576, Key_signature, 0, "major"
1, 27648, Time_signature, 3, 2, 24, 8
1, 27648, Key_signature, 0, "major"
1, 30720, Time_signature, 3, 2, 24, 8
1, 30720, Key_signature, 0, "major"
1, 33792, Time_signature, 3, 2, 24, 8
1, 33792, Key_signature, 0, "major"
1, 36864, Time_signature, 3, 2, 24, 8
1, 36864, Key_signature, 0, "major"
1, 39936, Time_signature, 3, 2, 24, 8
1, 39936, Key_signature, 0, "major"
1, 43008, Time_signature, 3, 2, 24, 8
1, 43008, Key_signature, 0, "major"
1, 46080, Time_signature, 3, 2, 24, 8
1, 46080, Key_signature, 0, "major"
1, 49152, Time_signature, 3, 2, 24, 8
1, 49152, Key_signature, 0, "major"
1, 52224, Time_signature, 3, 2, 24, 8
1, 52224, Key_signature, 0, "major"
1, 55296, Time_signature, 3, 2, 24, 8
1, 55296, Key_signature, 0, "major"
1, 58368, End_track
2, 0, Start_track
2, 0, Title_t, "Instrument 1"
2, 0, Note_on_c, 0, 72, 110
2, 1024, Note_off_c, 0, 72, 0
2, 1024, Note_on_c, 0, 72, 110
2, 2048, Note_off_c, 0, 72, 0
2, 2048, Note_on_c, 0, 79, 110
2, 3072, Note_off_c, 0, 79, 0
2, 3072, Note_on_c, 0, 76, 110
2, 4608, Note_off_c, 0, 76, 0
2, 4608, Note_on_c, 0, 74, 110
2, 5120, Note_off_c, 0, 74, 0
2, 5120, Note_on_c, 0, 72, 110
2, 6144, Note_off_c, 0, 72, 0
2, 6144, Note_on_c, 0, 71, 110
2, 7680, Note_off_c, 0, 71, 0
2, 7680, Note_on_c, 0, 69, 110
2, 8192, Note_off_c, 0, 69, 0
2, 8192, Note_on_c, 0, 67, 110
2, 9216, Note_off_c, 0, 67, 0
2, 9216, Note_on_c, 0, 72, 110
2, 10240, Note_off_c, 0, 72, 0
2, 10240, Note_on_c, 0, 74, 110
2, 11264, Note_off_c, 0, 74, 0
2, 11264, Note_on_c, 0, 76, 110
2, 11776, Note_off_c, 0, 76, 0
2, 11776, Note_on_c, 0, 77, 110
2, 12288, Note_off_c, 0, 77, 0
2, 12288, Note_on_c, 0, 74, 110
2, 14336, Note_off_c, 0, 74, 0
2, 14336, Note_on_c, 0, 72, 110
2, 15360, Note_off_c, 0, 72, 0
2, 15360, Note_on_c, 0, 72, 110
2, 16384, Note_off_c, 0, 72, 0
2, 16384, Note_on_c, 0, 72, 110
2, 17408, Note_off_c, 0, 72, 0
2, 17408, Note_on_c, 0, 79, 110
2, 18432, Note_off_c, 0, 79, 0
2, 18432, Note_on_c, 0, 76, 110
2, 19968, Note_off_c, 0, 76, 0
2, 19968, Note_on_c, 0, 74, 110
2, 20480, Note_off_c, 0, 74, 0
2, 20480, Note_on_c, 0, 72, 110
2, 21504, Note_off_c, 0, 72, 0
2, 21504, Note_on_c, 0, 71, 110
2, 23040, Note_off_c, 0, 71, 0
2, 23040, Note_on_c, 0, 69, 110
2, 23552, Note_off_c, 0, 69, 0
2, 23552, Note_on_c, 0, 67, 110
2, 24576, Note_off_c, 0, 67, 0
2, 24576, Note_on_c, 0, 72, 110
2, 25600, Note_off_c, 0, 72, 0
2, 25600, Note_on_c, 0, 74, 110
2, 26624, Note_off_c, 0, 74, 0
2, 26624, Note_on_c, 0, 76, 110
2, 27136, Note_off_c, 0, 76, 0
2, 27136, Note_on_c, 0, 77, 110
2, 27648, Note_off_c, 0, 77, 0
2, 27648, Note_on_c, 0, 74, 110
2, 29696, Note_off_c, 0, 74, 0
2, 29696, Note_on_c, 0, 72, 110
2, 30720, Note_off_c, 0, 72, 0
2, 30720, Note_on_c, 0, 76, 110
2, 32256, Note_off_c, 0, 76, 0
2, 32256, Note_on_c, 0, 74, 110
2, 32768, Note_off_c, 0, 74, 0
2, 32768, Note_on_c, 0, 76, 110
2, 33792, Note_off_c, 0, 76, 0
2, 33792, Note_on_c, 0, 77, 110
2, 36864, Note_off_c, 0, 77, 0
2, 36864, Note_on_c, 0, 76, 110
2, 38400, Note_off_c, 0, 76, 0
2, 38400, Note_on_c, 0, 77, 110
2, 38912, Note_off_c, 0, 77, 0
2, 38912, Note_on_c, 0, 79, 110
2, 39936, Note_off_c, 0, 79, 0
2, 39936, Note_on_c, 0, 79, 110
2, 41472, Note_off_c, 0, 79, 0
2, 41472, Note_on_c, 0, 77, 110
2, 41984, Note_off_c, 0, 77, 0
2, 41984, Note_on_c, 0, 76, 110
2, 43008, Note_off_c, 0, 76, 0
2, 43008, Note_on_c, 0, 74, 110
2, 46080, Note_off_c, 0, 74, 0
2, 46080, Note_on_c, 0, 67, 110
2, 47104, Note_off_c, 0, 67, 0
2, 47104, Note_on_c, 0, 69, 110
2, 48128, Note_off_c, 0, 69, 0
2, 48128, Note_on_c, 0, 71, 110
2, 49152, Note_off_c, 0, 71, 0
2, 49152, Note_on_c, 0, 72, 110
2, 50176, Note_off_c, 0, 72, 0
2, 50176, Note_on_c, 0, 74, 110
2, 51200, Note_off_c, 0, 74, 0
2, 51200, Note_on_c, 0, 76, 110
2, 51968, Note_off_c, 0, 76, 0
2, 51968, Note_on_c, 0, 77, 110
2, 52224, Note_off_c, 0, 77, 0
2, 52224, Note_on_c, 0, 74, 110
2, 54272, Note_off_c, 0, 74, 0
2, 54272, Note_on_c, 0, 72, 110
2, 58368, Note_off_c, 0, 72, 0
2, 58368, End_track
3, 0, Start_track
3, 0, Title_t, "Instrument 2"
3, 0, Note_on_c, 1, 67, 110
3, 1024, Note_off_c, 1, 67, 0
3, 1024, Note_on_c, 1, 67, 110
3, 2048, Note_off_c, 1, 67, 0
3, 2048, Note_on_c, 1, 67, 110
3, 3072, Note_off_c, 1, 67, 0
3, 3072, Note_on_c, 1, 67, 110
3, 4608, Note_off_c, 1, 67, 0
3, 4608, Note_on_c, 1, 67, 110
3, 5120, Note_off_c, 1, 67, 0
3, 5120, Note_on_c, 1, 66, 110
3, 6144, Note_off_c, 1, 66, 0
3, 6144, Note_on_c, 1, 62, 110
3, 7168, Note_off_c, 1, 62, 0
3, 7168, Note_on_c, 1, 67, 110
3, 8192, Note_off_c, 1, 67, 0
3, 8192, Note_on_c, 1, 67, 110
3, 9216, Note_off_c, 1, 67, 0
3, 9216, Note_on_c, 1, 67, 110
3, 10240, Note_off_c, 1, 67, 0
3, 10240, Note_on_c, 1, 71, 110
3, 11264, Note_off_c, 1, 71, 0
3, 11264, Note_on_c, 1, 67, 110
3, 12288, Note_off_c, 1, 67, 0
3, 12288, Note_on_c, 1, 67, 110
3, 13312, Note_off_c, 1, 67, 0
3, 13312, Note_on_c, 1, 65, 110
3, 14336, Note_off_c, 1, 65, 0
3, 14336, Note_on_c, 1, 64, 110
3, 15360, Note_off_c, 1, 64, 0
3, 15360, Note_on_c, 1, 67, 110
3, 16384, Note_off_c, 1, 67, 0
3, 16384, Note_on_c, 1, 67, 110
3, 17408, Note_off_c, 1, 67, 0
3, 17408, Note_on_c, 1, 67, 110
3, 18432, Note_off_c, 1, 67, 0
3, 18432, Note_on_c, 1, 67, 110
3, 19968, Note_off_c, 1, 67, 0
3, 19968, Note_on_c, 1, 67, 110
3, 20480, Note_off_c, 1, 67, 0
3, 20480, Note_on_c, 1, 66, 110
3, 21504, Note_off_c, 1, 66, 0
3, 21504, Note_on_c, 1, 62, 110
3, 22528, Note_off_c, 1, 62, 0
3, 22528, Note_on_c, 1, 67, 110
3, 23552, Note_off_c, 1, 67, 0
3, 23552, Note_on_c, 1, 67, 110
3, 24576, Note_off_c, 1, 67, 0
3, 24576, Note_on_c, 1, 67, 110
3, 25600, Note_off_c, 1, 67, 0
3, 25600, Note_on_c, 1, 71, 110
3, 26624, Note_off_c, 1, 71, 0
3, 26624, Note_on_c, 1, 67, 110
3, 27648, Note_off_c, 1, 67, 0
3, 27648, Note_on_c, 1, 67, 110
3, 28672, Note_off_c, 1, 67, 0
3, 28672, Note_on_c, 1, 65, 110
3, 29696, Note_off_c, 1, 65, 0
3, 29696, Note_on_c, 1, 64, 110
3, 30720, Note_off_c, 1, 64, 0
3, 30720, Note_on_c, 1, 67, 110
3, 32256, Note_off_c, 1, 67, 0
3, 32256, Note_on_c, 1, 67, 110
3, 32768, Note_off_c, 1, 67, 0
3, 32768, Note_on_c, 1, 60, 110
3, 33792, Note_off_c, 1, 60, 0
3, 33792, Note_on_c, 1, 69, 110
3, 36864, Note_off_c, 1, 69, 0
3, 36864, Note_on_c, 1, 69, 110
3, 38400, Note_off_c, 1, 69, 0
3, 38400, Note_on_c, 1, 69, 110
3, 38912, Note_off_c, 1, 69, 0
3, 38912, Note_on_c, 1, 62, 110
3, 39936, Note_off_c, 1, 62, 0
3, 39936, Note_on_c, 1, 60, 110
3, 40960, Note_off_c, 1, 60, 0
3, 40960, Note_on_c, 1, 67, 110
3, 41984, Note_off_c, 1, 67, 0
3, 41984, Note_on_c, 1, 67, 110
3, 43008, Note_off_c, 1, 67, 0
3, 43008, Note_on_c, 1, 67, 110
3, 46080, Note_off_c, 1, 67, 0
3, 46080, Note_on_c, 1, 62, 110
3, 47104, Note_off_c, 1, 62, 0
3, 47104, Note_on_c, 1, 62, 110
3, 48128, Note_off_c, 1, 62, 0
3, 48128, Note_on_c, 1, 62, 110
3, 49152, Note_off_c, 1, 62, 0
3, 49152, Note_on_c, 1, 67, 110
3, 50176, Note_off_c, 1, 67, 0
3, 50176, Note_on_c, 1, 67, 110
3, 51200, Note_off_c, 1, 67, 0
3, 51200, Note_on_c, 1, 67, 110
3, 52224, Note_off_c, 1, 67, 0
3, 52224, Note_on_c, 1, 67, 110
3, 54272, Note_off_c, 1, 67, 0
3, 54272, Note_on_c, 1, 64, 110
3, 58368, Note_off_c, 1, 64, 0
3, 58368, End_track
4, 0, Start_track
4, 0, Title_t, "Instrument 3"
4, 0, Note_on_c, 2, 64, 110
4, 1024, Note_off_c, 2, 64, 0
4, 1024, Note_on_c, 2, 64, 110
4, 2048, Note_off_c, 2, 64, 0
4, 2048, Note_on_c, 2, 62, 110
4, 3072, Note_off_c, 2, 62, 0
4, 3072, Note_on_c, 2, 60, 110
4, 4608, Note_off_c, 2, 60, 0
4, 4608, Note_on_c, 2, 55, 110
4, 5120, Note_off_c, 2, 55, 0
4, 5120, Note_on_c, 2, 60, 110
4, 6144, Note_off_c, 2, 60, 0
4, 6144, Note_on_c, 2, 67, 110
4, 7168, Note_off_c, 2, 67, 0
4, 7168, Note_on_c, 2, 55, 110
4, 8192, Note_off_c, 2, 55, 0
4, 8192, Note_on_c, 2, 62, 110
4, 9216, Note_off_c, 2, 62, 0
4, 9216, Note_on_c, 2, 60, 110
4, 10240, Note_off_c, 2, 60, 0
4, 10240, Note_on_c, 2, 53, 110
4, 11264, Note_off_c, 2, 53, 0
4, 11264, Note_on_c, 2, 60, 110
4, 12288, Note_off_c, 2, 60, 0
4, 12288, Note_on_c, 2, 62, 110
4, 13312, Note_off_c, 2, 62, 0
4, 13312, Note_on_c, 2, 59, 110
4, 14336, Note_off_c, 2, 59, 0
4, 14336, Note_on_c, 2, 55, 110
4, 15360, Note_off_c, 2, 55, 0
4, 15360, Note_on_c, 2, 64, 110
4, 16384, Note_off_c, 2, 64, 0
4, 16384, Note_on_c, 2, 64, 110
4, 17408, Note_off_c, 2, 64, 0
4, 17408, Note_on_c, 2, 62, 110
4, 18432, Note_off_c, 2, 62, 0
4, 18432, Note_on_c, 2, 60, 110
4, 19968, Note_off_c, 2, 60, 0
4, 19968, Note_on_c, 2, 55, 110
4, 20480, Note_off_c, 2, 55, 0
4, 20480, Note_on_c, 2, 60, 110
4, 21504, Note_off_c, 2, 60, 0
4, 21504, Note_on_c, 2, 67, 110
4, 22528, Note_off_c, 2, 67, 0
4, 22528, Note_on_c, 2, 55, 110
4, 23552, Note_off_c, 2, 55, 0
4, 23552, Note_on_c, 2, 62, 110
4, 24576, Note_off_c, 2, 62, 0
4, 24576, Note_on_c, 2, 60, 110
4, 25600, Note_off_c, 2, 60, 0
4, 25600, Note_on_c, 2, 53, 110
4, 26624, Note_off_c, 2, 53, 0
4, 26624, Note_on_c, 2, 60, 110
4, 27648, Note_off_c, 2, 60, 0
4, 27648, Note_on_c, 2, 62, 110
4, 28672, Note_off_c, 2, 62, 0
4, 28672, Note_on_c, 2, 59, 110
4, 29696, Note_off_c, 2, 59, 0
4, 29696, Note_on_c, 2, 55, 110
4, 30720, Note_off_c, 2, 55, 0
4, 30720, Note_on_c, 2, 64, 110
4, 32256, Note_off_c, 2, 64, 0
4, 32256, Note_on_c, 2, 64, 110
4, 32768, Note_off_c, 2, 64, 0
4, 32768, Note_on_c, 2, 64, 110
4, 33280, Note_off_c, 2, 64, 0
4, 33280, Note_on_c, 2, 61, 110
4, 33792, Note_off_c, 2, 61, 0
4, 33792, Note_on_c, 2, 62, 110
4, 36864, Note_off_c, 2, 62, 0
4, 36864, Note_on_c, 2, 64, 110
4, 38400, Note_off_c, 2, 64, 0
4, 38400, Note_on_c, 2, 60, 110
4, 38912, Note_off_c, 2, 60, 0
4, 38912, Note_on_c, 2, 59, 110
4, 39424, Note_off_c, 2, 59, 0
4, 39424, Note_on_c, 2, 57, 110
4, 39936, Note_off_c, 2, 57, 0
4, 39936, Note_on_c, 2, 55, 110
4, 40960, Note_off_c, 2, 55, 0
4, 40960, Note_on_c, 2, 59, 110
4, 41984, Note_off_c, 2, 59, 0
4, 41984, Note_on_c, 2, 60, 110
4, 43008, Note_off_c, 2, 60, 0
4, 43008, Note_on_c, 2, 59, 110
4, 46080, Note_off_c, 2, 59, 0
4, 46080, Note_on_c, 2, 59, 110
4, 47104, Note_off_c, 2, 59, 0
4, 47104, Note_on_c, 2, 62, 110
4, 48128, Note_off_c, 2, 62, 0
4, 48128, Note_on_c, 2, 55, 110
4, 49152, Note_off_c, 2, 55, 0
4, 49152, Note_on_c, 2, 55, 110
4, 50176, Note_off_c, 2, 55, 0
4, 50176, Note_on_c, 2, 55, 110
4, 51200, Note_off_c, 2, 55, 0
4, 51200, Note_on_c, 2, 55, 110
4, 51712, Note_off_c, 2, 55, 0
4, 51712, Note_on_c, 2, 60, 110
4, 52224, Note_off_c, 2, 60, 0
4, 52224, Note_on_c, 2, 60, 110
4, 53248, Note_off_c, 2, 60, 0
4, 53248, Note_on_c, 2, 59, 110
4, 54272, Note_off_c, 2, 59, 0
4, 54272, Note_on_c, 2, 55, 110
4, 58368, Note_off_c, 2, 55, 0
4, 58368, End_track
5, 0, Start_track
5, 0, Title_t, "Instrument 4"
5, 0, Note_on_c, 3, 48, 110
5, 1024, Note_off_c, 3, 48, 0
5, 1024, Note_on_c, 3, 60, 110
5, 2048, Note_off_c, 3, 60, 0
5, 2048, Note_on_c, 3, 59, 110
5, 3072, Note_off_c, 3, 59, 0
5, 3072, Note_on_c, 3, 60, 110
5, 4608, Note_off_c, 3, 60, 0
5, 4608, Note_on_c, 3, 59, 110
5, 5120, Note_off_c, 3, 59, 0
5, 5120, Note_on_c, 3, 57, 110
5, 6144, Note_off_c, 3, 57, 0
5, 6144, Note_on_c, 3, 55, 110
5, 7168, Note_off_c, 3, 55, 0
5, 7168, Note_on_c, 3, 43, 110
5, 8192, Note_off_c, 3, 43, 0
5, 8192, Note_on_c, 3, 53, 110
5, 9216, Note_off_c, 3, 53, 0
5, 9216, Note_on_c, 3, 52, 110
5, 10240, Note_off_c, 3, 52, 0
5, 10240, Note_on_c, 3, 50, 110
5, 11264, Note_off_c, 3, 50, 0
5, 11264, Note_on_c, 3, 48, 110
5, 12288, Note_off_c, 3, 48, 0
5, 12288, Note_on_c, 3, 55, 110
5, 13312, Note_off_c, 3, 55, 0
5, 13312, Note_on_c, 3, 43, 110
5, 14336, Note_off_c, 3, 43, 0
5, 14336, Note_on_c, 3, 36, 110
5, 14336, Note_on_c, 3, 48, 110
5, 15360, Note_off_c, 3, 36, 0
5, 15360, Note_off_c, 3, 48, 0
5, 15360, Note_on_c, 3, 48, 110
5, 16384, Note_off_c, 3, 48, 0
5, 16384, Note_on_c, 3, 60, 110
5, 17408, Note_off_c, 3, 60, 0
5, 17408, Note_on_c, 3, 59, 110
5, 18432, Note_off_c, 3, 59, 0
5, 18432, Note_on_c, 3, 60, 110
5, 19968, Note_off_c, 3, 60, 0
5, 19968, Note_on_c, 3, 59, 110
5, 20480, Note_off_c, 3, 59, 0
5, 20480, Note_on_c, 3, 57, 110
5, 21504, Note_off_c, 3, 57, 0
5, 21504, Note_on_c, 3, 55, 110
5, 22528, Note_off_c, 3, 55, 0
5, 22528, Note_on_c, 3, 43, 110
5, 23552, Note_off_c, 3, 43, 0
5, 23552, Note_on_c, 3, 53, 110
5, 24576, Note_off_c, 3, 53, 0
5, 24576, Note_on_c, 3, 52, 110
5, 25600, Note_off_c, 3, 52, 0
5, 25600, Note_on_c, 3, 50, 110
5, 26624, Note_off_c, 3, 50, 0
5, 26624, Note_on_c, 3, 48, 110
5, 27648, Note_off_c, 3, 48, 0
5, 27648, Note_on_c, 3, 55, 110
5, 28672, Note_off_c, 3, 55, 0
5, 28672, Note_on_c, 3, 43, 110
5, 29696, Note_off_c, 3, 43, 0
5, 29696, Note_on_c, 3, 36, 110
5, 29696, Note_on_c, 3, 48, 110
5, 30720, Note_off_c, 3, 36, 0
5, 30720, Note_off_c, 3, 48, 0
5, 30720, Note_on_c, 3, 48, 110
5, 31744, Note_off_c, 3, 48, 0
5, 31744, Note_on_c, 3, 52, 110
5, 32768, Note_off_c, 3, 52, 0
5, 32768, Note_on_c, 3, 57, 110
5, 33792, Note_off_c, 3, 57, 0
5, 33792, Note_on_c, 3, 50, 110
5, 36864, Note_off_c, 3, 50, 0
5, 36864, Note_on_c, 3, 57, 110
5, 37888, Note_off_c, 3, 57, 0
5, 37888, Note_on_c, 3, 55, 110
5, 38912, Note_off_c, 3, 55, 0
5, 38912, Note_on_c, 3, 53, 110
5, 39936, Note_off_c, 3, 53, 0
5, 39936, Note_on_c, 3, 52, 110
5, 41472, Note_off_c, 3, 52, 0
5, 41472, Note_on_c, 3, 50, 110
5, 41984, Note_off_c, 3, 50, 0
5, 41984, Note_on_c, 3, 48, 110
5, 43008, Note_off_c, 3, 48, 0
5, 43008, Note_on_c, 3, 43, 110
5, 46080, Note_off_c, 3, 43, 0
5, 46080, Note_on_c, 3, 55, 110
5, 47104, Note_off_c, 3, 55, 0
5, 47104, Note_on_c, 3, 53, 110
5, 47616, Note_off_c, 3, 53, 0
5, 47616, Note_on_c, 3, 52, 110
5, 48128, Note_off_c, 3, 52, 0
5, 48128, Note_on_c, 3, 53, 110
5, 48640, Note_off_c, 3, 53, 0
5, 48640, Note_on_c, 3, 50, 110
5, 49152, Note_off_c, 3, 50, 0
5, 49152, Note_on_c, 3, 52, 110
5, 50176, Note_off_c, 3, 52, 0
5, 50176, Note_on_c, 3, 47, 110
5, 51200, Note_off_c, 3, 47, 0
5, 51200, Note_on_c, 3, 48, 110
5, 52224, Note_off_c, 3, 48, 0
5, 52224, Note_on_c, 3, 55, 110
5, 53248, Note_off_c, 3, 55, 0
5, 53248, Note_on_c, 3, 43, 110
5, 54272, Note_off_c, 3, 43, 0
5, 54272, Note_on_c, 3, 48, 110
5, 58368, Note_off_c, 3, 48, 0
5, 58368, End_track
0, 0, End_of_file
