0, 0, Header, 1, 4, 1024
1, 0, Start_track
1, 0, Time_signature, 9, 3, 36, 8
1, 0, Key_signature, 1, "major"
1, 0, Tempo, 714285
1, 304129, End_track
2, 0, Start_track
2, 0, Title_t, "Instrument 1"
2, 0, Note_on_c, 0, 67, 96
2, 256, Note_off_c, 0, 67, 0
2, 256, Note_on_c, 0, 71, 96
2, 512, Note_off_c, 0, 71, 0
2, 512, Note_on_c, 0, 74, 96
2, 768, Note_off_c, 0, 74, 0
2, 768, Note_on_c, 0, 71, 96
2, 1024, Note_off_c, 0, 71, 0
2, 1024, Note_on_c, 0, 67, 96
2, 1280, Note_off_c, 0, 67, 0
2, 1280, Note_on_c, 0, 66, 96
2, 1536, Note_off_c, 0, 66, 0
2, 1536, Note_on_c, 0, 67, 96
2, 1792, Note_off_c, 0, 67, 0
2, 1792, Note_on_c, 0, 71, 96
2, 2048, Note_off_c, 0, 71, 0
2, 2048, Note_on_c, 0, 74, 96
2, 2304, Note_off_c, 0, 74, 0
2, 2304, Note_on_c, 0, 71, 96
2, 2560, Note_off_c, 0, 71, 0
2, 2560, Note_on_c, 0, 67, 96
2, 2816, Note_off_c, 0, 67, 0
2, 2816, Note_on_c, 0, 66, 96
2, 3072, Note_off_c, 0, 66, 0
2, 3072, Note_on_c, 0, 67, 96
2, 3584, Note_off_c, 0, 67, 0
2, 3584, Note_on_c, 0, 76, 96
2, 4096, Note_off_c, 0, 76, 0
2, 4096, Note_on_c, 0, 74, 96
2, 4608, Note_off_c, 0, 74, 0
2, 4608, Note_on_c, 0, 74, 96
2, 6400, Note_off_c, 0, 74, 0
2, 6400, Note_on_c, 0, 78, 96
2, 6656, Note_off_c, 0, 78, 0
2, 6656, Note_on_c, 0, 81, 96
2, 6912, Note_off_c, 0, 81, 0
2, 6912, Note_on_c, 0, 78, 96
2, 7168, Note_off_c, 0, 78, 0
2, 7168, Note_on_c, 0, 72, 96
2, 7424, Note_off_c, 0, 72, 0
2, 7424, Note_on_c, 0, 71, 96
2, 7680, Note_off_c, 0, 71, 0
2, 7680, Note_on_c, 0, 72, 96
2, 7936, Note_off_c, 0, 72, 0
2, 7936, Note_on_c, 0, 78, 96
2, 8192, Note_off_c, 0, 78, 0
2, 8192, Note_on_c, 0, 81, 96
2, 8448, Note_off_c, 0, 81, 0
2, 8448, Note_on_c, 0, 78, 96
2, 8704, Note_off_c, 0, 78, 0
2, 8704, Note_on_c, 0, 71, 96
2, 8960, Note_off_c, 0, 71, 0
2, 8960, Note_on_c, 0, 69, 96
2, 9216, Note_off_c, 0, 69, 0
2, 9216, Note_on_c, 0, 71, 96
2, 9472, Note_off_c, 0, 71, 0
2, 9472, Note_on_c, 0, 74, 96
2, 9728, Note_off_c, 0, 74, 0
2, 9728, Note_on_c, 0, 79, 96
2, 9984, Note_off_c, 0, 79, 0
2, 9984, Note_on_c, 0, 74, 96
2, 10240, Note_off_c, 0, 74, 0
2, 10240, Note_on_c, 0, 71, 96
2, 10496, Note_off_c, 0, 71, 0
2, 10496, Note_on_c, 0, 69, 96
2, 10752, Note_off_c, 0, 69, 0
2, 10752, Note_on_c, 0, 67, 96
2, 11008, Note_off_c, 0, 67, 0
2, 11008, Note_on_c, 0, 71, 96
2, 11264, Note_off_c, 0, 71, 0
2, 11264, Note_on_c, 0, 74, 96
2, 11520, Note_off_c, 0, 74, 0
2, 11520, Note_on_c, 0, 71, 96
2, 11776, Note_off_c, 0, 71, 0
2, 11776, Note_on_c, 0, 67, 96
2, 12032, Note_off_c, 0, 67, 0
2, 12032, Note_on_c, 0, 66, 96
2, 12288, Note_off_c, 0, 66, 0
2, 12288, Note_on_c, 0, 64, 96
2, 12800, Note_off_c, 0, 64, 0
2, 12800, Note_on_c, 0, 72, 96
2, 13312, Note_off_c, 0, 72, 0
2, 13312, Note_on_c, 0, 69, 96
2, 13824, Note_off_c, 0, 69, 0
2, 13824, Note_on_c, 0, 66, 96
2, 14848, Note_off_c, 0, 66, 0
2, 14848, Note_on_c, 0, 64, 96
2, 15360, Note_off_c, 0, 64, 0
2, 15360, Note_on_c, 0, 62, 96
2, 16896, Note_off_c, 0, 62, 0
2, 16896, Note_on_c, 0, 74, 96
2, 18688, Note_off_c, 0, 74, 0
2, 18688, Note_on_c, 0, 64, 96
2, 18944, Note_off_c, 0, 64, 0
2, 18944, Note_on_c, 0, 68, 96
2, 19200, Note_off_c, 0, 68, 0
2, 19200, Note_on_c, 0, 71, 96
2, 19456, Note_off_c, 0, 71, 0
2, 19456, Note_on_c, 0, 74, 96
2, 19712, Note_off_c, 0, 74, 0
2, 19712, Note_on_c, 0, 72, 96
2, 19968, Note_off_c, 0, 72, 0
2, 19968, Note_on_c, 0, 74, 96
2, 20224, Note_off_c, 0, 74, 0
2, 20224, Note_on_c, 0, 80, 96
2, 20480, Note_off_c, 0, 80, 0
2, 20480, Note_on_c, 0, 83, 96
2, 20736, Note_off_c, 0, 83, 0
2, 20736, Note_on_c, 0, 80, 96
2, 20992, Note_off_c, 0, 80, 0
2, 20992, Note_on_c, 0, 76, 96
2, 21248, Note_off_c, 0, 76, 0
2, 21248, Note_on_c, 0, 74, 96
2, 21504, Note_off_c, 0, 74, 0
2, 21504, Note_on_c, 0, 72, 96
2, 22528, Note_off_c, 0, 72, 0
2, 22528, Note_on_c, 0, 71, 96
2, 23040, Note_off_c, 0, 71, 0
2, 23040, Note_on_c, 0, 72, 96
2, 24832, Note_off_c, 0, 72, 0
2, 24832, Note_on_c, 0, 69, 96
2, 25088, Note_off_c, 0, 69, 0
2, 25088, Note_on_c, 0, 68, 96
2, 25344, Note_off_c, 0, 68, 0
2, 25344, Note_on_c, 0, 69, 96
2, 25600, Note_off_c, 0, 69, 0
2, 25600, Note_on_c, 0, 64, 96
2, 25856, Note_off_c, 0, 64, 0
2, 25856, Note_on_c, 0, 69, 96
2, 26112, Note_off_c, 0, 69, 0
2, 26112, Note_on_c, 0, 60, 96
2, 26368, Note_off_c, 0, 60, 0
2, 26368, Note_on_c, 0, 64, 96
2, 26624, Note_off_c, 0, 64, 0
2, 26624, Note_on_c, 0, 57, 96
2, 26880, Note_off_c, 0, 57, 0
2, 26880, Note_on_c, 0, 60, 96
2, 27136, Note_off_c, 0, 60, 0
2, 27136, Note_on_c, 0, 64, 96
2, 27392, Note_off_c, 0, 64, 0
2, 27392, Note_on_c, 0, 69, 96
2, 27648, Note_off_c, 0, 69, 0
2, 27648, Note_on_c, 0, 72, 96
2, 27904, Note_off_c, 0, 72, 0
2, 27904, Note_on_c, 0, 62, 96
2, 28160, Note_off_c, 0, 62, 0
2, 28160, Note_on_c, 0, 66, 96
2, 28416, Note_off_c, 0, 66, 0
2, 28416, Note_on_c, 0, 69, 96
2, 28672, Note_off_c, 0, 69, 0
2, 28672, Note_on_c, 0, 72, 96
2, 28928, Note_off_c, 0, 72, 0
2, 28928, Note_on_c, 0, 71, 96
2, 29184, Note_off_c, 0, 71, 0
2, 29184, Note_on_c, 0, 72, 96
2, 29440, Note_off_c, 0, 72, 0
2, 29440, Note_on_c, 0, 78, 96
2, 29696, Note_off_c, 0, 78, 0
2, 29696, Note_on_c, 0, 81, 96
2, 29952, Note_off_c, 0, 81, 0
2, 29952, Note_on_c, 0, 78, 96
2, 30208, Note_off_c, 0, 78, 0
2, 30208, Note_on_c, 0, 74, 96
2, 30464, Note_off_c, 0, 74, 0
2, 30464, Note_on_c, 0, 72, 96
2, 30720, Note_off_c, 0, 72, 0
2, 30720, Note_on_c, 0, 71, 96
2, 31744, Note_off_c, 0, 71, 0
2, 31744, Note_on_c, 0, 69, 96
2, 32256, Note_off_c, 0, 69, 0
2, 32256, Note_on_c, 0, 71, 96
2, 34048, Note_off_c, 0, 71, 0
2, 34048, Note_on_c, 0, 67, 96
2, 34304, Note_off_c, 0, 67, 0
2, 34304, Note_on_c, 0, 66, 96
2, 34560, Note_off_c, 0, 66, 0
2, 34560, Note_on_c, 0, 67, 96
2, 34816, Note_off_c, 0, 67, 0
2, 34816, Note_on_c, 0, 62, 96
2, 35072, Note_off_c, 0, 62, 0
2, 35072, Note_on_c, 0, 67, 96
2, 35328, Note_off_c, 0, 67, 0
2, 35328, Note_on_c, 0, 59, 96
2, 35584, Note_off_c, 0, 59, 0
2, 35584, Note_on_c, 0, 62, 96
2, 35840, Note_off_c, 0, 62, 0
2, 35840, Note_on_c, 0, 55, 96
2, 36096, Note_off_c, 0, 55, 0
2, 36096, Note_on_c, 0, 59, 96
2, 36352, Note_off_c, 0, 59, 0
2, 36352, Note_on_c, 0, 62, 96
2, 36608, Note_off_c, 0, 62, 0
2, 36608, Note_on_c, 0, 65, 96
2, 36864, Note_off_c, 0, 65, 0
2, 36864, Note_on_c, 0, 64, 96
2, 38656, Note_off_c, 0, 64, 0
2, 38656, Note_on_c, 0, 72, 96
2, 38912, Note_off_c, 0, 72, 0
2, 38912, Note_on_c, 0, 71, 96
2, 39168, Note_off_c, 0, 71, 0
2, 39168, Note_on_c, 0, 72, 96
2, 39424, Note_off_c, 0, 72, 0
2, 39424, Note_on_c, 0, 81, 96
2, 39680, Note_off_c, 0, 81, 0
2, 39680, Note_on_c, 0, 72, 96
2, 39936, Note_off_c, 0, 72, 0
2, 39936, Note_on_c, 0, 64, 96
2, 40192, Note_off_c, 0, 64, 0
2, 40192, Note_on_c, 0, 72, 96
2, 40448, Note_off_c, 0, 72, 0
2, 40448, Note_on_c, 0, 71, 96
2, 40704, Note_off_c, 0, 71, 0
2, 40704, Note_on_c, 0, 72, 96
2, 40960, Note_off_c, 0, 72, 0
2, 40960, Note_on_c, 0, 79, 96
2, 41216, Note_off_c, 0, 79, 0
2, 41216, Note_on_c, 0, 72, 96
2, 41472, Note_off_c, 0, 72, 0
2, 41472, Note_on_c, 0, 62, 96
2, 41728, Note_off_c, 0, 62, 0
2, 41728, Note_on_c, 0, 72, 96
2, 41984, Note_off_c, 0, 72, 0
2, 41984, Note_on_c, 0, 71, 96
2, 42240, Note_off_c, 0, 71, 0
2, 42240, Note_on_c, 0, 72, 96
2, 42496, Note_off_c, 0, 72, 0
2, 42496, Note_on_c, 0, 78, 96
2, 42752, Note_off_c, 0, 78, 0
2, 42752, Note_on_c, 0, 72, 96
2, 43008, Note_off_c, 0, 72, 0
2, 43008, Note_on_c, 0, 62, 96
2, 43264, Note_off_c, 0, 62, 0
2, 43264, Note_on_c, 0, 72, 96
2, 43520, Note_off_c, 0, 72, 0
2, 43520, Note_on_c, 0, 71, 96
2, 43776, Note_off_c, 0, 71, 0
2, 43776, Note_on_c, 0, 72, 96
2, 44032, Note_off_c, 0, 72, 0
2, 44032, Note_on_c, 0, 81, 96
2, 44288, Note_off_c, 0, 81, 0
2, 44288, Note_on_c, 0, 72, 96
2, 44544, Note_off_c, 0, 72, 0
2, 44544, Note_on_c, 0, 62, 96
2, 44800, Note_off_c, 0, 62, 0
2, 44800, Note_on_c, 0, 72, 96
2, 45056, Note_off_c, 0, 72, 0
2, 45056, Note_on_c, 0, 71, 96
2, 45312, Note_off_c, 0, 71, 0
2, 45312, Note_on_c, 0, 72, 96
2, 45568, Note_off_c, 0, 72, 0
2, 45568, Note_on_c, 0, 78, 96
2, 45824, Note_off_c, 0, 78, 0
2, 45824, Note_on_c, 0, 72, 96
2, 46080, Note_off_c, 0, 72, 0
2, 46080, Note_on_c, 0, 62, 96
2, 46336, Note_off_c, 0, 62, 0
2, 46336, Note_on_c, 0, 71, 96
2, 46592, Note_off_c, 0, 71, 0
2, 46592, Note_on_c, 0, 69, 96
2, 46848, Note_off_c, 0, 69, 0
2, 46848, Note_on_c, 0, 71, 96
2, 47104, Note_off_c, 0, 71, 0
2, 47104, Note_on_c, 0, 79, 96
2, 47360, Note_off_c, 0, 79, 0
2, 47360, Note_on_c, 0, 71, 96
2, 47616, Note_off_c, 0, 71, 0
2, 47616, Note_on_c, 0, 62, 96
2, 47872, Note_off_c, 0, 62, 0
2, 47872, Note_on_c, 0, 71, 96
2, 48128, Note_off_c, 0, 71, 0
2, 48128, Note_on_c, 0, 69, 96
2, 48384, Note_off_c, 0, 69, 0
2, 48384, Note_on_c, 0, 71, 96
2, 48640, Note_off_c, 0, 71, 0
2, 48640, Note_on_c, 0, 74, 96
2, 48896, Note_off_c, 0, 74, 0
2, 48896, Note_on_c, 0, 71, 96
2, 49152, Note_off_c, 0, 71, 0
2, 49152, Note_on_c, 0, 62, 96
2, 49408, Note_off_c, 0, 62, 0
2, 49408, Note_on_c, 0, 71, 96
2, 49664, Note_off_c, 0, 71, 0
2, 49664, Note_on_c, 0, 69, 96
2, 49920, Note_off_c, 0, 69, 0
2, 49920, Note_on_c, 0, 71, 96
2, 50176, Note_off_c, 0, 71, 0
2, 50176, Note_on_c, 0, 79, 96
2, 50432, Note_off_c, 0, 79, 0
2, 50432, Note_on_c, 0, 71, 96
2, 50688, Note_off_c, 0, 71, 0
2, 50688, Note_on_c, 0, 73, 96
2, 50944, Note_off_c, 0, 73, 0
2, 50944, Note_on_c, 0, 82, 96
2, 51200, Note_off_c, 0, 82, 0
2, 51200, Note_on_c, 0, 81, 96
2, 51456, Note_off_c, 0, 81, 0
2, 51456, Note_on_c, 0, 79, 96
2, 51712, Note_off_c, 0, 79, 0
2, 51712, Note_on_c, 0, 78, 96
2, 51968, Note_off_c, 0, 78, 0
2, 51968, Note_on_c, 0, 79, 96
2, 52224, Note_off_c, 0, 79, 0
2, 52224, Note_on_c, 0, 72, 96
2, 52480, Note_off_c, 0, 72, 0
2, 52480, Note_on_c, 0, 83, 96
2, 52736, Note_off_c, 0, 83, 0
2, 52736, Note_on_c, 0, 81, 96
2, 52992, Note_off_c, 0, 81, 0
2, 52992, Note_on_c, 0, 79, 96
2, 53248, Note_off_c, 0, 79, 0
2, 53248, Note_on_c, 0, 78, 96
2, 53504, Note_off_c, 0, 78, 0
2, 53504, Note_on_c, 0, 79, 96
2, 53760, Note_off_c, 0, 79, 0
2, 53760, Note_on_c, 0, 71, 96
2, 54272, Note_off_c, 0, 71, 0
2, 54272, Note_on_c, 0, 72, 96
2, 54784, Note_off_c, 0, 72, 0
2, 54784, Note_on_c, 0, 69, 96
2, 55296, Note_off_c, 0, 69, 0
2, 55296, Note_on_c, 0, 67, 96
2, 56832, Note_off_c, 0, 67, 0
2, 59904, Note_on_c, 0, 67, 96
2, 60160, Note_off_c, 0, 67, 0
2, 60160, Note_on_c, 0, 71, 96
2, 60416, Note_off_c, 0, 71, 0
2, 60416, Note_on_c, 0, 74, 96
2, 60672, Note_off_c, 0, 74, 0
2, 60672, Note_on_c, 0, 71, 96
2, 60928, Note_off_c, 0, 71, 0
2, 60928, Note_on_c, 0, 67, 96
2, 61184, Note_off_c, 0, 67, 0
2, 61184, Note_on_c, 0, 66, 96
2, 61440, Note_off_c, 0, 66, 0
2, 61440, Note_on_c, 0, 67, 96
2, 61696, Note_off_c, 0, 67, 0
2, 61696, Note_on_c, 0, 71, 96
2, 61952, Note_off_c, 0, 71, 0
2, 61952, Note_on_c, 0, 74, 96
2, 62208, Note_off_c, 0, 74, 0
2, 62208, Note_on_c, 0, 71, 96
2, 62464, Note_off_c, 0, 71, 0
2, 62464, Note_on_c, 0, 67, 96
2, 62720, Note_off_c, 0, 67, 0
2, 62720, Note_on_c, 0, 66, 96
2, 62976, Note_off_c, 0, 66, 0
2, 62976, Note_on_c, 0, 67, 96
2, 63488, Note_off_c, 0, 67, 0
2, 63488, Note_on_c, 0, 76, 96
2, 64000, Note_off_c, 0, 76, 0
2, 64000, Note_on_c, 0, 74, 96
2, 64512, Note_off_c, 0, 74, 0
2, 64512, Note_on_c, 0, 74, 96
2, 66304, Note_off_c, 0, 74, 0
2, 66304, Note_on_c, 0, 78, 96
2, 66560, Note_off_c, 0, 78, 0
2, 66560, Note_on_c, 0, 81, 96
2, 66816, Note_off_c, 0, 81, 0
2, 66816, Note_on_c, 0, 78, 96
2, 67072, Note_off_c, 0, 78, 0
2, 67072, Note_on_c, 0, 72, 96
2, 67328, Note_off_c, 0, 72, 0
2, 67328, Note_on_c, 0, 71, 96
2, 67584, Note_off_c, 0, 71, 0
2, 67584, Note_on_c, 0, 72, 96
2, 67840, Note_off_c, 0, 72, 0
2, 67840, Note_on_c, 0, 78, 96
2, 68096, Note_off_c, 0, 78, 0
2, 68096, Note_on_c, 0, 81, 96
2, 68352, Note_off_c, 0, 81, 0
2, 68352, Note_on_c, 0, 78, 96
2, 68608, Note_off_c, 0, 78, 0
2, 68608, Note_on_c, 0, 71, 96
2, 68864, Note_off_c, 0, 71, 0
2, 68864, Note_on_c, 0, 69, 96
2, 69120, Note_off_c, 0, 69, 0
2, 69120, Note_on_c, 0, 67, 96
2, 69632, Note_off_c, 0, 67, 0
2, 73984, Note_on_c, 0, 62, 96
2, 74240, Note_off_c, 0, 62, 0
2, 74240, Note_on_c, 0, 66, 96
2, 74496, Note_off_c, 0, 66, 0
2, 74496, Note_on_c, 0, 69, 96
2, 74752, Note_off_c, 0, 69, 0
2, 74752, Note_on_c, 0, 72, 96
2, 75008, Note_off_c, 0, 72, 0
2, 75008, Note_on_c, 0, 71, 96
2, 75264, Note_off_c, 0, 71, 0
2, 75264, Note_on_c, 0, 72, 96
2, 75520, Note_off_c, 0, 72, 0
2, 75520, Note_on_c, 0, 78, 96
2, 75776, Note_off_c, 0, 78, 0
2, 75776, Note_on_c, 0, 81, 96
2, 76032, Note_off_c, 0, 81, 0
2, 76032, Note_on_c, 0, 78, 96
2, 76288, Note_off_c, 0, 78, 0
2, 76288, Note_on_c, 0, 74, 96
2, 76544, Note_off_c, 0, 74, 0
2, 76544, Note_on_c, 0, 72, 96
2, 76800, Note_off_c, 0, 72, 0
2, 76800, Note_on_c, 0, 71, 96
2, 77824, Note_off_c, 0, 71, 0
2, 77824, Note_on_c, 0, 69, 96
2, 78336, Note_off_c, 0, 69, 0
2, 78336, Note_on_c, 0, 71, 96
2, 80128, Note_off_c, 0, 71, 0
2, 80128, Note_on_c, 0, 67, 96
2, 80384, Note_off_c, 0, 67, 0
2, 80384, Note_on_c, 0, 66, 96
2, 80640, Note_off_c, 0, 66, 0
2, 80640, Note_on_c, 0, 67, 96
2, 80896, Note_off_c, 0, 67, 0
2, 80896, Note_on_c, 0, 62, 96
2, 81152, Note_off_c, 0, 62, 0
2, 81152, Note_on_c, 0, 67, 96
2, 81408, Note_off_c, 0, 67, 0
2, 81408, Note_on_c, 0, 59, 96
2, 81664, Note_off_c, 0, 59, 0
2, 81664, Note_on_c, 0, 62, 96
2, 81920, Note_off_c, 0, 62, 0
2, 81920, Note_on_c, 0, 55, 96
2, 82176, Note_off_c, 0, 55, 0
2, 82176, Note_on_c, 0, 59, 96
2, 82432, Note_off_c, 0, 59, 0
2, 82432, Note_on_c, 0, 62, 96
2, 82688, Note_off_c, 0, 62, 0
2, 82688, Note_on_c, 0, 65, 96
2, 82944, Note_off_c, 0, 65, 0
2, 82944, Note_on_c, 0, 64, 96
2, 84736, Note_off_c, 0, 64, 0
2, 84736, Note_on_c, 0, 72, 96
2, 84992, Note_off_c, 0, 72, 0
2, 84992, Note_on_c, 0, 71, 96
2, 85248, Note_off_c, 0, 71, 0
2, 85248, Note_on_c, 0, 72, 96
2, 85504, Note_off_c, 0, 72, 0
2, 85504, Note_on_c, 0, 81, 96
2, 85760, Note_off_c, 0, 81, 0
2, 85760, Note_on_c, 0, 72, 96
2, 86016, Note_off_c, 0, 72, 0
2, 86016, Note_on_c, 0, 64, 96
2, 86272, Note_off_c, 0, 64, 0
2, 86272, Note_on_c, 0, 72, 96
2, 86528, Note_off_c, 0, 72, 0
2, 86528, Note_on_c, 0, 71, 96
2, 86784, Note_off_c, 0, 71, 0
2, 86784, Note_on_c, 0, 72, 96
2, 87040, Note_off_c, 0, 72, 0
2, 87040, Note_on_c, 0, 79, 96
2, 87296, Note_off_c, 0, 79, 0
2, 87296, Note_on_c, 0, 72, 96
2, 87552, Note_off_c, 0, 72, 0
2, 87552, Note_on_c, 0, 62, 96
2, 87808, Note_off_c, 0, 62, 0
2, 87808, Note_on_c, 0, 72, 96
2, 88064, Note_off_c, 0, 72, 0
2, 88064, Note_on_c, 0, 71, 96
2, 88320, Note_off_c, 0, 71, 0
2, 88320, Note_on_c, 0, 72, 96
2, 88576, Note_off_c, 0, 72, 0
2, 88576, Note_on_c, 0, 78, 96
2, 88832, Note_off_c, 0, 78, 0
2, 88832, Note_on_c, 0, 72, 96
2, 89088, Note_off_c, 0, 72, 0
2, 89088, Note_on_c, 0, 62, 96
2, 89344, Note_off_c, 0, 62, 0
2, 89344, Note_on_c, 0, 72, 96
2, 89600, Note_off_c, 0, 72, 0
2, 89600, Note_on_c, 0, 71, 96
2, 89856, Note_off_c, 0, 71, 0
2, 89856, Note_on_c, 0, 72, 96
2, 90112, Note_off_c, 0, 72, 0
2, 90112, Note_on_c, 0, 81, 96
2, 90368, Note_off_c, 0, 81, 0
2, 90368, Note_on_c, 0, 72, 96
2, 90624, Note_off_c, 0, 72, 0
2, 90624, Note_on_c, 0, 62, 96
2, 90880, Note_off_c, 0, 62, 0
2, 90880, Note_on_c, 0, 72, 96
2, 91136, Note_off_c, 0, 72, 0
2, 91136, Note_on_c, 0, 71, 96
2, 91392, Note_off_c, 0, 71, 0
2, 91392, Note_on_c, 0, 72, 96
2, 91648, Note_off_c, 0, 72, 0
2, 91648, Note_on_c, 0, 78, 96
2, 91904, Note_off_c, 0, 78, 0
2, 91904, Note_on_c, 0, 72, 96
2, 92160, Note_off_c, 0, 72, 0
2, 92160, Note_on_c, 0, 62, 96
2, 92416, Note_off_c, 0, 62, 0
2, 92416, Note_on_c, 0, 71, 96
2, 92672, Note_off_c, 0, 71, 0
2, 92672, Note_on_c, 0, 69, 96
2, 92928, Note_off_c, 0, 69, 0
2, 92928, Note_on_c, 0, 71, 96
2, 93184, Note_off_c, 0, 71, 0
2, 93184, Note_on_c, 0, 79, 96
2, 93440, Note_off_c, 0, 79, 0
2, 93440, Note_on_c, 0, 71, 96
2, 93696, Note_off_c, 0, 71, 0
2, 93696, Note_on_c, 0, 62, 96
2, 93952, Note_off_c, 0, 62, 0
2, 93952, Note_on_c, 0, 71, 96
2, 94208, Note_off_c, 0, 71, 0
2, 94208, Note_on_c, 0, 69, 96
2, 94464, Note_off_c, 0, 69, 0
2, 94464, Note_on_c, 0, 71, 96
2, 94720, Note_off_c, 0, 71, 0
2, 94720, Note_on_c, 0, 74, 96
2, 94976, Note_off_c, 0, 74, 0
2, 94976, Note_on_c, 0, 71, 96
2, 95232, Note_off_c, 0, 71, 0
2, 95232, Note_on_c, 0, 62, 96
2, 95488, Note_off_c, 0, 62, 0
2, 95488, Note_on_c, 0, 71, 96
2, 95744, Note_off_c, 0, 71, 0
2, 95744, Note_on_c, 0, 69, 96
2, 96000, Note_off_c, 0, 69, 0
2, 96000, Note_on_c, 0, 71, 96
2, 96256, Note_off_c, 0, 71, 0
2, 96256, Note_on_c, 0, 79, 96
2, 96512, Note_off_c, 0, 79, 0
2, 96512, Note_on_c, 0, 71, 96
2, 96768, Note_off_c, 0, 71, 0
2, 96768, Note_on_c, 0, 73, 96
2, 97024, Note_off_c, 0, 73, 0
2, 97024, Note_on_c, 0, 82, 96
2, 97280, Note_off_c, 0, 82, 0
2, 97280, Note_on_c, 0, 81, 96
2, 97536, Note_off_c, 0, 81, 0
2, 97536, Note_on_c, 0, 79, 96
2, 97792, Note_off_c, 0, 79, 0
2, 97792, Note_on_c, 0, 78, 96
2, 98048, Note_off_c, 0, 78, 0
2, 98048, Note_on_c, 0, 79, 96
2, 98304, Note_off_c, 0, 79, 0
2, 98304, Note_on_c, 0, 72, 96
2, 98560, Note_off_c, 0, 72, 0
2, 98560, Note_on_c, 0, 83, 96
2, 98816, Note_off_c, 0, 83, 0
2, 98816, Note_on_c, 0, 81, 96
2, 99072, Note_off_c, 0, 81, 0
2, 99072, Note_on_c, 0, 79, 96
2, 99328, Note_off_c, 0, 79, 0
2, 99328, Note_on_c, 0, 78, 96
2, 99584, Note_off_c, 0, 78, 0
2, 99584, Note_on_c, 0, 79, 96
2, 99840, Note_off_c, 0, 79, 0
2, 99840, Note_on_c, 0, 71, 96
2, 100352, Note_off_c, 0, 71, 0
2, 100352, Note_on_c, 0, 72, 96
2, 100864, Note_off_c, 0, 72, 0
2, 100864, Note_on_c, 0, 69, 96
2, 101376, Note_off_c, 0, 69, 0
2, 101376, Note_on_c, 0, 67, 96
2, 102912, Note_off_c, 0, 67, 0
2, 105984, Note_on_c, 0, 67, 96
2, 106240, Note_off_c, 0, 67, 0
2, 106240, Note_on_c, 0, 71, 96
2, 106496, Note_off_c, 0, 71, 0
2, 106496, Note_on_c, 0, 74, 96
2, 106752, Note_off_c, 0, 74, 0
2, 106752, Note_on_c, 0, 71, 96
2, 107008, Note_off_c, 0, 71, 0
2, 107008, Note_on_c, 0, 67, 96
2, 107264, Note_off_c, 0, 67, 0
2, 107264, Note_on_c, 0, 66, 96
2, 107520, Note_off_c, 0, 66, 0
2, 107520, Note_on_c, 0, 67, 96
2, 107776, Note_off_c, 0, 67, 0
2, 107776, Note_on_c, 0, 71, 96
2, 108032, Note_off_c, 0, 71, 0
2, 108032, Note_on_c, 0, 74, 96
2, 108288, Note_off_c, 0, 74, 0
2, 108288, Note_on_c, 0, 71, 96
2, 108544, Note_off_c, 0, 71, 0
2, 108544, Note_on_c, 0, 67, 96
2, 108800, Note_off_c, 0, 67, 0
2, 108800, Note_on_c, 0, 66, 96
2, 109056, Note_off_c, 0, 66, 0
2, 109056, Note_on_c, 0, 67, 96
2, 109568, Note_off_c, 0, 67, 0
2, 109568, Note_on_c, 0, 76, 96
2, 110080, Note_off_c, 0, 76, 0
2, 110080, Note_on_c, 0, 74, 96
2, 110592, Note_off_c, 0, 74, 0
2, 110592, Note_on_c, 0, 74, 96
2, 112384, Note_off_c, 0, 74, 0
2, 112384, Note_on_c, 0, 78, 96
2, 112640, Note_off_c, 0, 78, 0
2, 112640, Note_on_c, 0, 81, 96
2, 112896, Note_off_c, 0, 81, 0
2, 112896, Note_on_c, 0, 78, 96
2, 113152, Note_off_c, 0, 78, 0
2, 113152, Note_on_c, 0, 72, 96
2, 113408, Note_off_c, 0, 72, 0
2, 113408, Note_on_c, 0, 71, 96
2, 113664, Note_off_c, 0, 71, 0
2, 113664, Note_on_c, 0, 72, 96
2, 113920, Note_off_c, 0, 72, 0
2, 113920, Note_on_c, 0, 78, 96
2, 114176, Note_off_c, 0, 78, 0
2, 114176, Note_on_c, 0, 81, 96
2, 114432, Note_off_c, 0, 81, 0
2, 114432, Note_on_c, 0, 78, 96
2, 114688, Note_off_c, 0, 78, 0
2, 114688, Note_on_c, 0, 71, 96
2, 114944, Note_off_c, 0, 71, 0
2, 114944, Note_on_c, 0, 69, 96
2, 115200, Note_off_c, 0, 69, 0
2, 115200, Note_on_c, 0, 67, 96
2, 115712, Note_off_c, 0, 67, 0
2, 120064, Note_on_c, 0, 62, 96
2, 120320, Note_off_c, 0, 62, 0
2, 120320, Note_on_c, 0, 66, 96
2, 120576, Note_off_c, 0, 66, 0
2, 120576, Note_on_c, 0, 69, 96
2, 120832, Note_off_c, 0, 69, 0
2, 120832, Note_on_c, 0, 72, 96
2, 121088, Note_off_c, 0, 72, 0
2, 121088, Note_on_c, 0, 71, 96
2, 121344, Note_off_c, 0, 71, 0
2, 121344, Note_on_c, 0, 72, 96
2, 121600, Note_off_c, 0, 72, 0
2, 121600, Note_on_c, 0, 78, 96
2, 121856, Note_off_c, 0, 78, 0
2, 121856, Note_on_c, 0, 81, 96
2, 122112, Note_off_c, 0, 81, 0
2, 122112, Note_on_c, 0, 78, 96
2, 122368, Note_off_c, 0, 78, 0
2, 122368, Note_on_c, 0, 74, 96
2, 122624, Note_off_c, 0, 74, 0
2, 122624, Note_on_c, 0, 72, 96
2, 122880, Note_off_c, 0, 72, 0
2, 122880, Note_on_c, 0, 71, 96
2, 123904, Note_off_c, 0, 71, 0
2, 123904, Note_on_c, 0, 69, 96
2, 124416, Note_off_c, 0, 69, 0
2, 124416, Note_on_c, 0, 71, 96
2, 124672, Note_off_c, 0, 71, 0
2, 124672, Note_on_c, 0, 74, 96
2, 124928, Note_off_c, 0, 74, 0
2, 124928, Note_on_c, 0, 79, 96
2, 125184, Note_off_c, 0, 79, 0
2, 125184, Note_on_c, 0, 74, 96
2, 125440, Note_off_c, 0, 74, 0
2, 125440, Note_on_c, 0, 71, 96
2, 125696, Note_off_c, 0, 71, 0
2, 125696, Note_on_c, 0, 69, 96
2, 125952, Note_off_c, 0, 69, 0
2, 125952, Note_on_c, 0, 67, 96
2, 126208, Note_off_c, 0, 67, 0
2, 126208, Note_on_c, 0, 71, 96
2, 126464, Note_off_c, 0, 71, 0
2, 126464, Note_on_c, 0, 74, 96
2, 126720, Note_off_c, 0, 74, 0
2, 126720, Note_on_c, 0, 71, 96
2, 126976, Note_off_c, 0, 71, 0
2, 126976, Note_on_c, 0, 67, 96
2, 127232, Note_off_c, 0, 67, 0
2, 127232, Note_on_c, 0, 66, 96
2, 127488, Note_off_c, 0, 66, 0
2, 127488, Note_on_c, 0, 64, 96
2, 128000, Note_off_c, 0, 64, 0
2, 128000, Note_on_c, 0, 72, 96
2, 128512, Note_off_c, 0, 72, 0
2, 128512, Note_on_c, 0, 69, 96
2, 129024, Note_off_c, 0, 69, 0
2, 129024, Note_on_c, 0, 66, 96
2, 130048, Note_off_c, 0, 66, 0
2, 130048, Note_on_c, 0, 64, 96
2, 130560, Note_off_c, 0, 64, 0
2, 130560, Note_on_c, 0, 62, 96
2, 132096, Note_off_c, 0, 62, 0
2, 132096, Note_on_c, 0, 74, 96
2, 133888, Note_off_c, 0, 74, 0
2, 133888, Note_on_c, 0, 64, 96
2, 134144, Note_off_c, 0, 64, 0
2, 134144, Note_on_c, 0, 68, 96
2, 134400, Note_off_c, 0, 68, 0
2, 134400, Note_on_c, 0, 71, 96
2, 134656, Note_off_c, 0, 71, 0
2, 134656, Note_on_c, 0, 74, 96
2, 134912, Note_off_c, 0, 74, 0
2, 134912, Note_on_c, 0, 72, 96
2, 135168, Note_off_c, 0, 72, 0
2, 135168, Note_on_c, 0, 74, 96
2, 135424, Note_off_c, 0, 74, 0
2, 135424, Note_on_c, 0, 80, 96
2, 135680, Note_off_c, 0, 80, 0
2, 135680, Note_on_c, 0, 83, 96
2, 135936, Note_off_c, 0, 83, 0
2, 135936, Note_on_c, 0, 80, 96
2, 136192, Note_off_c, 0, 80, 0
2, 136192, Note_on_c, 0, 76, 96
2, 136448, Note_off_c, 0, 76, 0
2, 136448, Note_on_c, 0, 74, 96
2, 136704, Note_off_c, 0, 74, 0
2, 136704, Note_on_c, 0, 72, 96
2, 137728, Note_off_c, 0, 72, 0
2, 137728, Note_on_c, 0, 71, 96
2, 138240, Note_off_c, 0, 71, 0
2, 138240, Note_on_c, 0, 72, 96
2, 140032, Note_off_c, 0, 72, 0
2, 140032, Note_on_c, 0, 69, 96
2, 140288, Note_off_c, 0, 69, 0
2, 140288, Note_on_c, 0, 68, 96
2, 140544, Note_off_c, 0, 68, 0
2, 140544, Note_on_c, 0, 69, 96
2, 140800, Note_off_c, 0, 69, 0
2, 140800, Note_on_c, 0, 64, 96
2, 141056, Note_off_c, 0, 64, 0
2, 141056, Note_on_c, 0, 69, 96
2, 141312, Note_off_c, 0, 69, 0
2, 141312, Note_on_c, 0, 60, 96
2, 141568, Note_off_c, 0, 60, 0
2, 141568, Note_on_c, 0, 64, 96
2, 141824, Note_off_c, 0, 64, 0
2, 141824, Note_on_c, 0, 57, 96
2, 142080, Note_off_c, 0, 57, 0
2, 142080, Note_on_c, 0, 60, 96
2, 142336, Note_off_c, 0, 60, 0
2, 142336, Note_on_c, 0, 64, 96
2, 142592, Note_off_c, 0, 64, 0
2, 142592, Note_on_c, 0, 69, 96
2, 142848, Note_off_c, 0, 69, 0
2, 142848, Note_on_c, 0, 72, 96
2, 143104, Note_off_c, 0, 72, 0
2, 143104, Note_on_c, 0, 63, 96
2, 143360, Note_off_c, 0, 63, 0
2, 143360, Note_on_c, 0, 66, 96
2, 143616, Note_off_c, 0, 66, 0
2, 143616, Note_on_c, 0, 69, 96
2, 143872, Note_off_c, 0, 69, 0
2, 143872, Note_on_c, 0, 72, 96
2, 144128, Note_off_c, 0, 72, 0
2, 144128, Note_on_c, 0, 71, 96
2, 144384, Note_off_c, 0, 71, 0
2, 144384, Note_on_c, 0, 72, 96
2, 144640, Note_off_c, 0, 72, 0
2, 144640, Note_on_c, 0, 78, 96
2, 144896, Note_off_c, 0, 78, 0
2, 144896, Note_on_c, 0, 81, 96
2, 145152, Note_off_c, 0, 81, 0
2, 145152, Note_on_c, 0, 78, 96
2, 145408, Note_off_c, 0, 78, 0
2, 145408, Note_on_c, 0, 72, 96
2, 145664, Note_off_c, 0, 72, 0
2, 145664, Note_on_c, 0, 71, 96
2, 145920, Note_off_c, 0, 71, 0
2, 145920, Note_on_c, 0, 69, 96
2, 146432, Note_off_c, 0, 69, 0
2, 146432, Note_on_c, 0, 67, 96
2, 146944, Note_off_c, 0, 67, 0
2, 146944, Note_on_c, 0, 66, 96
2, 147456, Note_off_c, 0, 66, 0
2, 147456, Note_on_c, 0, 67, 96
2, 149248, Note_off_c, 0, 67, 0
2, 149248, Note_on_c, 0, 64, 96
2, 149504, Note_off_c, 0, 64, 0
2, 149504, Note_on_c, 0, 63, 96
2, 149760, Note_off_c, 0, 63, 0
2, 149760, Note_on_c, 0, 64, 96
2, 150016, Note_off_c, 0, 64, 0
2, 150016, Note_on_c, 0, 59, 96
2, 150272, Note_off_c, 0, 59, 0
2, 150272, Note_on_c, 0, 64, 96
2, 150528, Note_off_c, 0, 64, 0
2, 150528, Note_on_c, 0, 55, 96
2, 150784, Note_off_c, 0, 55, 0
2, 150784, Note_on_c, 0, 59, 96
2, 151040, Note_off_c, 0, 59, 0
2, 151040, Note_on_c, 0, 64, 96
2, 151296, Note_off_c, 0, 64, 0
2, 151296, Note_on_c, 0, 67, 96
2, 151552, Note_off_c, 0, 67, 0
2, 151552, Note_on_c, 0, 71, 96
2, 151808, Note_off_c, 0, 71, 0
2, 151808, Note_on_c, 0, 74, 96
2, 152064, Note_off_c, 0, 74, 0
2, 152064, Note_on_c, 0, 72, 96
2, 153856, Note_off_c, 0, 72, 0
2, 153856, Note_on_c, 0, 77, 96
2, 154112, Note_off_c, 0, 77, 0
2, 154112, Note_on_c, 0, 76, 96
2, 154368, Note_off_c, 0, 76, 0
2, 154368, Note_on_c, 0, 77, 96
2, 154624, Note_off_c, 0, 77, 0
2, 154624, Note_on_c, 0, 81, 96
2, 154880, Note_off_c, 0, 81, 0
2, 154880, Note_on_c, 0, 77, 96
2, 155136, Note_off_c, 0, 77, 0
2, 155136, Note_on_c, 0, 72, 96
2, 155392, Note_off_c, 0, 72, 0
2, 155392, Note_on_c, 0, 77, 96
2, 155648, Note_off_c, 0, 77, 0
2, 155648, Note_on_c, 0, 76, 96
2, 155904, Note_off_c, 0, 76, 0
2, 155904, Note_on_c, 0, 77, 96
2, 156160, Note_off_c, 0, 77, 0
2, 156160, Note_on_c, 0, 81, 96
2, 156416, Note_off_c, 0, 81, 0
2, 156416, Note_on_c, 0, 77, 96
2, 156672, Note_off_c, 0, 77, 0
2, 156672, Note_on_c, 0, 75, 96
2, 156928, Note_off_c, 0, 75, 0
2, 156928, Note_on_c, 0, 71, 96
2, 157184, Note_off_c, 0, 71, 0
2, 157184, Note_on_c, 0, 69, 96
2, 157440, Note_off_c, 0, 69, 0
2, 157440, Note_on_c, 0, 71, 96
2, 157696, Note_off_c, 0, 71, 0
2, 157696, Note_on_c, 0, 73, 96
2, 157952, Note_off_c, 0, 73, 0
2, 157952, Note_on_c, 0, 71, 96
2, 158208, Note_off_c, 0, 71, 0
2, 158208, Note_on_c, 0, 75, 96
2, 158464, Note_off_c, 0, 75, 0
2, 158464, Note_on_c, 0, 71, 96
2, 158720, Note_off_c, 0, 71, 0
2, 158720, Note_on_c, 0, 69, 96
2, 158976, Note_off_c, 0, 69, 0
2, 158976, Note_on_c, 0, 71, 96
2, 159232, Note_off_c, 0, 71, 0
2, 159232, Note_on_c, 0, 76, 96
2, 159488, Note_off_c, 0, 76, 0
2, 159488, Note_on_c, 0, 71, 96
2, 159744, Note_off_c, 0, 71, 0
2, 159744, Note_on_c, 0, 78, 96
2, 160000, Note_off_c, 0, 78, 0
2, 160000, Note_on_c, 0, 71, 96
2, 160256, Note_off_c, 0, 71, 0
2, 160256, Note_on_c, 0, 69, 96
2, 160512, Note_off_c, 0, 69, 0
2, 160512, Note_on_c, 0, 71, 96
2, 160768, Note_off_c, 0, 71, 0
2, 160768, Note_on_c, 0, 81, 96
2, 161024, Note_off_c, 0, 81, 0
2, 161024, Note_on_c, 0, 71, 96
2, 161280, Note_off_c, 0, 71, 0
2, 161280, Note_on_c, 0, 79, 96
2, 161536, Note_off_c, 0, 79, 0
2, 161536, Note_on_c, 0, 71, 96
2, 161792, Note_off_c, 0, 71, 0
2, 161792, Note_on_c, 0, 69, 96
2, 162048, Note_off_c, 0, 69, 0
2, 162048, Note_on_c, 0, 71, 96
2, 162304, Note_off_c, 0, 71, 0
2, 162304, Note_on_c, 0, 76, 96
2, 162560, Note_off_c, 0, 76, 0
2, 162560, Note_on_c, 0, 71, 96
2, 162816, Note_off_c, 0, 71, 0
2, 162816, Note_on_c, 0, 79, 96
2, 163072, Note_off_c, 0, 79, 0
2, 163072, Note_on_c, 0, 71, 96
2, 163328, Note_off_c, 0, 71, 0
2, 163328, Note_on_c, 0, 69, 96
2, 163584, Note_off_c, 0, 69, 0
2, 163584, Note_on_c, 0, 71, 96
2, 163840, Note_off_c, 0, 71, 0
2, 163840, Note_on_c, 0, 83, 96
2, 164096, Note_off_c, 0, 83, 0
2, 164096, Note_on_c, 0, 71, 96
2, 164352, Note_off_c, 0, 71, 0
2, 164352, Note_on_c, 0, 79, 96
2, 164608, Note_off_c, 0, 79, 0
2, 164608, Note_on_c, 0, 71, 96
2, 164864, Note_off_c, 0, 71, 0
2, 164864, Note_on_c, 0, 69, 96
2, 165120, Note_off_c, 0, 69, 0
2, 165120, Note_on_c, 0, 71, 96
2, 165376, Note_off_c, 0, 71, 0
2, 165376, Note_on_c, 0, 79, 96
2, 165632, Note_off_c, 0, 79, 0
2, 165632, Note_on_c, 0, 76, 96
2, 165888, Note_off_c, 0, 76, 0
2, 165888, Note_on_c, 0, 70, 96
2, 166144, Note_off_c, 0, 70, 0
2, 166144, Note_on_c, 0, 79, 96
2, 166400, Note_off_c, 0, 79, 0
2, 166400, Note_on_c, 0, 78, 96
2, 166656, Note_off_c, 0, 78, 0
2, 166656, Note_on_c, 0, 76, 96
2, 166912, Note_off_c, 0, 76, 0
2, 166912, Note_on_c, 0, 75, 96
2, 167168, Note_off_c, 0, 75, 0
2, 167168, Note_on_c, 0, 76, 96
2, 167424, Note_off_c, 0, 76, 0
2, 167424, Note_on_c, 0, 69, 96
2, 167680, Note_off_c, 0, 69, 0
2, 167680, Note_on_c, 0, 79, 96
2, 167936, Note_off_c, 0, 79, 0
2, 167936, Note_on_c, 0, 78, 96
2, 168192, Note_off_c, 0, 78, 0
2, 168192, Note_on_c, 0, 76, 96
2, 168448, Note_off_c, 0, 76, 0
2, 168448, Note_on_c, 0, 75, 96
2, 168704, Note_off_c, 0, 75, 0
2, 168704, Note_on_c, 0, 76, 96
2, 168960, Note_off_c, 0, 76, 0
2, 168960, Note_on_c, 0, 67, 96
2, 169472, Note_off_c, 0, 67, 0
2, 169472, Note_on_c, 0, 69, 96
2, 169984, Note_off_c, 0, 69, 0
2, 169984, Note_on_c, 0, 66, 96
2, 170496, Note_off_c, 0, 66, 0
2, 170496, Note_on_c, 0, 64, 96
2, 172032, Note_off_c, 0, 64, 0
2, 175360, Note_on_c, 0, 72, 96
2, 175616, Note_off_c, 0, 72, 0
2, 175616, Note_on_c, 0, 71, 96
2, 175872, Note_off_c, 0, 71, 0
2, 175872, Note_on_c, 0, 72, 96
2, 176128, Note_off_c, 0, 72, 0
2, 176128, Note_on_c, 0, 81, 96
2, 176384, Note_off_c, 0, 81, 0
2, 176384, Note_on_c, 0, 72, 96
2, 176640, Note_off_c, 0, 72, 0
2, 176640, Note_on_c, 0, 64, 96
2, 176896, Note_off_c, 0, 64, 0
2, 176896, Note_on_c, 0, 72, 96
2, 177152, Note_off_c, 0, 72, 0
2, 177152, Note_on_c, 0, 71, 96
2, 177408, Note_off_c, 0, 71, 0
2, 177408, Note_on_c, 0, 72, 96
2, 177664, Note_off_c, 0, 72, 0
2, 177664, Note_on_c, 0, 81, 96
2, 177920, Note_off_c, 0, 81, 0
2, 177920, Note_on_c, 0, 72, 96
2, 178176, Note_off_c, 0, 72, 0
2, 178176, Note_on_c, 0, 64, 96
2, 178432, Note_off_c, 0, 64, 0
2, 178432, Note_on_c, 0, 72, 96
2, 178688, Note_off_c, 0, 72, 0
2, 178688, Note_on_c, 0, 71, 96
2, 178944, Note_off_c, 0, 71, 0
2, 178944, Note_on_c, 0, 72, 96
2, 179200, Note_off_c, 0, 72, 0
2, 179200, Note_on_c, 0, 79, 96
2, 179456, Note_off_c, 0, 79, 0
2, 179456, Note_on_c, 0, 72, 96
2, 179712, Note_off_c, 0, 72, 0
2, 179712, Note_on_c, 0, 62, 96
2, 179968, Note_off_c, 0, 62, 0
2, 179968, Note_on_c, 0, 72, 96
2, 180224, Note_off_c, 0, 72, 0
2, 180224, Note_on_c, 0, 71, 96
2, 180480, Note_off_c, 0, 71, 0
2, 180480, Note_on_c, 0, 72, 96
2, 180736, Note_off_c, 0, 72, 0
2, 180736, Note_on_c, 0, 78, 96
2, 180992, Note_off_c, 0, 78, 0
2, 180992, Note_on_c, 0, 72, 96
2, 181248, Note_off_c, 0, 72, 0
2, 181248, Note_on_c, 0, 62, 96
2, 181504, Note_off_c, 0, 62, 0
2, 181504, Note_on_c, 0, 72, 96
2, 181760, Note_off_c, 0, 72, 0
2, 181760, Note_on_c, 0, 71, 96
2, 182016, Note_off_c, 0, 71, 0
2, 182016, Note_on_c, 0, 72, 96
2, 182272, Note_off_c, 0, 72, 0
2, 182272, Note_on_c, 0, 81, 96
2, 182528, Note_off_c, 0, 81, 0
2, 182528, Note_on_c, 0, 72, 96
2, 182784, Note_off_c, 0, 72, 0
2, 182784, Note_on_c, 0, 62, 96
2, 183040, Note_off_c, 0, 62, 0
2, 183040, Note_on_c, 0, 72, 96
2, 183296, Note_off_c, 0, 72, 0
2, 183296, Note_on_c, 0, 71, 96
2, 183552, Note_off_c, 0, 71, 0
2, 183552, Note_on_c, 0, 72, 96
2, 183808, Note_off_c, 0, 72, 0
2, 183808, Note_on_c, 0, 78, 96
2, 184064, Note_off_c, 0, 78, 0
2, 184064, Note_on_c, 0, 72, 96
2, 184320, Note_off_c, 0, 72, 0
2, 184320, Note_on_c, 0, 62, 96
2, 184576, Note_off_c, 0, 62, 0
2, 184576, Note_on_c, 0, 71, 96
2, 184832, Note_off_c, 0, 71, 0
2, 184832, Note_on_c, 0, 69, 96
2, 185088, Note_off_c, 0, 69, 0
2, 185088, Note_on_c, 0, 71, 96
2, 185344, Note_off_c, 0, 71, 0
2, 185344, Note_on_c, 0, 79, 96
2, 185600, Note_off_c, 0, 79, 0
2, 185600, Note_on_c, 0, 71, 96
2, 185856, Note_off_c, 0, 71, 0
2, 185856, Note_on_c, 0, 62, 96
2, 186112, Note_off_c, 0, 62, 0
2, 186112, Note_on_c, 0, 72, 96
2, 186368, Note_off_c, 0, 72, 0
2, 186368, Note_on_c, 0, 71, 96
2, 186624, Note_off_c, 0, 71, 0
2, 186624, Note_on_c, 0, 72, 96
2, 186880, Note_off_c, 0, 72, 0
2, 186880, Note_on_c, 0, 81, 96
2, 187136, Note_off_c, 0, 81, 0
2, 187136, Note_on_c, 0, 72, 96
2, 187392, Note_off_c, 0, 72, 0
2, 187392, Note_on_c, 0, 62, 96
2, 187648, Note_off_c, 0, 62, 0
2, 187648, Note_on_c, 0, 74, 96
2, 187904, Note_off_c, 0, 74, 0
2, 187904, Note_on_c, 0, 72, 96
2, 188160, Note_off_c, 0, 72, 0
2, 188160, Note_on_c, 0, 74, 96
2, 188416, Note_off_c, 0, 74, 0
2, 188416, Note_on_c, 0, 83, 96
2, 188672, Note_off_c, 0, 83, 0
2, 188672, Note_on_c, 0, 74, 96
2, 188928, Note_off_c, 0, 74, 0
2, 188928, Note_on_c, 0, 67, 96
2, 189440, Note_off_c, 0, 67, 0
2, 193536, Note_on_c, 0, 62, 96
2, 193792, Note_off_c, 0, 62, 0
2, 193792, Note_on_c, 0, 66, 96
2, 194048, Note_off_c, 0, 66, 0
2, 194048, Note_on_c, 0, 69, 96
2, 194304, Note_off_c, 0, 69, 0
2, 194304, Note_on_c, 0, 66, 96
2, 194560, Note_off_c, 0, 66, 0
2, 194560, Note_on_c, 0, 62, 96
2, 194816, Note_off_c, 0, 62, 0
2, 194816, Note_on_c, 0, 61, 96
2, 195072, Note_off_c, 0, 61, 0
2, 195072, Note_on_c, 0, 62, 96
2, 195328, Note_off_c, 0, 62, 0
2, 195328, Note_on_c, 0, 66, 96
2, 195584, Note_off_c, 0, 66, 0
2, 195584, Note_on_c, 0, 69, 96
2, 195840, Note_off_c, 0, 69, 0
2, 195840, Note_on_c, 0, 66, 96
2, 196096, Note_off_c, 0, 66, 0
2, 196096, Note_on_c, 0, 62, 96
2, 196352, Note_off_c, 0, 62, 0
2, 196352, Note_on_c, 0, 61, 96
2, 196608, Note_off_c, 0, 61, 0
2, 196608, Note_on_c, 0, 62, 96
2, 197120, Note_off_c, 0, 62, 0
2, 197120, Note_on_c, 0, 71, 96
2, 197632, Note_off_c, 0, 71, 0
2, 197632, Note_on_c, 0, 69, 96
2, 198144, Note_off_c, 0, 69, 0
2, 198144, Note_on_c, 0, 69, 96
2, 199936, Note_off_c, 0, 69, 0
2, 199936, Note_on_c, 0, 73, 96
2, 200192, Note_off_c, 0, 73, 0
2, 200192, Note_on_c, 0, 76, 96
2, 200448, Note_off_c, 0, 76, 0
2, 200448, Note_on_c, 0, 73, 96
2, 200704, Note_off_c, 0, 73, 0
2, 200704, Note_on_c, 0, 67, 96
2, 200960, Note_off_c, 0, 67, 0
2, 200960, Note_on_c, 0, 66, 96
2, 201216, Note_off_c, 0, 66, 0
2, 201216, Note_on_c, 0, 67, 96
2, 201472, Note_off_c, 0, 67, 0
2, 201472, Note_on_c, 0, 73, 96
2, 201728, Note_off_c, 0, 73, 0
2, 201728, Note_on_c, 0, 76, 96
2, 201984, Note_off_c, 0, 76, 0
2, 201984, Note_on_c, 0, 73, 96
2, 202240, Note_off_c, 0, 73, 0
2, 202240, Note_on_c, 0, 66, 96
2, 202496, Note_off_c, 0, 66, 0
2, 202496, Note_on_c, 0, 64, 96
2, 202752, Note_off_c, 0, 64, 0
2, 202752, Note_on_c, 0, 66, 96
2, 203008, Note_off_c, 0, 66, 0
2, 203008, Note_on_c, 0, 69, 96
2, 203264, Note_off_c, 0, 69, 0
2, 203264, Note_on_c, 0, 74, 96
2, 203520, Note_off_c, 0, 74, 0
2, 203520, Note_on_c, 0, 69, 96
2, 203776, Note_off_c, 0, 69, 0
2, 203776, Note_on_c, 0, 66, 96
2, 204032, Note_off_c, 0, 66, 0
2, 204032, Note_on_c, 0, 64, 96
2, 204288, Note_off_c, 0, 64, 0
2, 204288, Note_on_c, 0, 62, 96
2, 204544, Note_off_c, 0, 62, 0
2, 204544, Note_on_c, 0, 66, 96
2, 204800, Note_off_c, 0, 66, 0
2, 204800, Note_on_c, 0, 69, 96
2, 205056, Note_off_c, 0, 69, 0
2, 205056, Note_on_c, 0, 66, 96
2, 205312, Note_off_c, 0, 66, 0
2, 205312, Note_on_c, 0, 62, 96
2, 205568, Note_off_c, 0, 62, 0
2, 205568, Note_on_c, 0, 61, 96
2, 205824, Note_off_c, 0, 61, 0
2, 205824, Note_on_c, 0, 59, 96
2, 206336, Note_off_c, 0, 59, 0
2, 206336, Note_on_c, 0, 71, 96
2, 206848, Note_off_c, 0, 71, 0
2, 206848, Note_on_c, 0, 64, 96
2, 207360, Note_off_c, 0, 64, 0
2, 207360, Note_on_c, 0, 61, 96
2, 208384, Note_off_c, 0, 61, 0
2, 208384, Note_on_c, 0, 59, 96
2, 208896, Note_off_c, 0, 59, 0
2, 208896, Note_on_c, 0, 57, 96
2, 210432, Note_off_c, 0, 57, 0
2, 210432, Note_on_c, 0, 67, 96
2, 212224, Note_off_c, 0, 67, 0
2, 212224, Note_on_c, 0, 67, 96
2, 212480, Note_off_c, 0, 67, 0
2, 212480, Note_on_c, 0, 66, 96
2, 212736, Note_off_c, 0, 66, 0
2, 212736, Note_on_c, 0, 67, 96
2, 212992, Note_off_c, 0, 67, 0
2, 212992, Note_on_c, 0, 73, 96
2, 213248, Note_off_c, 0, 73, 0
2, 213248, Note_on_c, 0, 67, 96
2, 213504, Note_off_c, 0, 67, 0
2, 213504, Note_on_c, 0, 57, 96
2, 213760, Note_off_c, 0, 57, 0
2, 213760, Note_on_c, 0, 67, 96
2, 214016, Note_off_c, 0, 67, 0
2, 214016, Note_on_c, 0, 66, 96
2, 214272, Note_off_c, 0, 66, 0
2, 214272, Note_on_c, 0, 67, 96
2, 214528, Note_off_c, 0, 67, 0
2, 214528, Note_on_c, 0, 76, 96
2, 214784, Note_off_c, 0, 76, 0
2, 214784, Note_on_c, 0, 67, 96
2, 215040, Note_off_c, 0, 67, 0
2, 215040, Note_on_c, 0, 57, 96
2, 215296, Note_off_c, 0, 57, 0
2, 215296, Note_on_c, 0, 67, 96
2, 215552, Note_off_c, 0, 67, 0
2, 215552, Note_on_c, 0, 66, 96
2, 215808, Note_off_c, 0, 66, 0
2, 215808, Note_on_c, 0, 67, 96
2, 216064, Note_off_c, 0, 67, 0
2, 216064, Note_on_c, 0, 73, 96
2, 216320, Note_off_c, 0, 73, 0
2, 216320, Note_on_c, 0, 67, 96
2, 216576, Note_off_c, 0, 67, 0
2, 216576, Note_on_c, 0, 57, 96
2, 216832, Note_off_c, 0, 57, 0
2, 216832, Note_on_c, 0, 66, 96
2, 217088, Note_off_c, 0, 66, 0
2, 217088, Note_on_c, 0, 64, 96
2, 217344, Note_off_c, 0, 64, 0
2, 217344, Note_on_c, 0, 66, 96
2, 217600, Note_off_c, 0, 66, 0
2, 217600, Note_on_c, 0, 74, 96
2, 217856, Note_off_c, 0, 74, 0
2, 217856, Note_on_c, 0, 66, 96
2, 218112, Note_off_c, 0, 66, 0
2, 218112, Note_on_c, 0, 57, 96
2, 218368, Note_off_c, 0, 57, 0
2, 218368, Note_on_c, 0, 66, 96
2, 218624, Note_off_c, 0, 66, 0
2, 218624, Note_on_c, 0, 64, 96
2, 218880, Note_off_c, 0, 64, 0
2, 218880, Note_on_c, 0, 66, 96
2, 219136, Note_off_c, 0, 66, 0
2, 219136, Note_on_c, 0, 69, 96
2, 219392, Note_off_c, 0, 69, 0
2, 219392, Note_on_c, 0, 66, 96
2, 219648, Note_off_c, 0, 66, 0
2, 219648, Note_on_c, 0, 57, 96
2, 219904, Note_off_c, 0, 57, 0
2, 219904, Note_on_c, 0, 66, 96
2, 220160, Note_off_c, 0, 66, 0
2, 220160, Note_on_c, 0, 64, 96
2, 220416, Note_off_c, 0, 64, 0
2, 220416, Note_on_c, 0, 66, 96
2, 220672, Note_off_c, 0, 66, 0
2, 220672, Note_on_c, 0, 74, 96
2, 220928, Note_off_c, 0, 74, 0
2, 220928, Note_on_c, 0, 66, 96
2, 221184, Note_off_c, 0, 66, 0
2, 221184, Note_on_c, 0, 68, 96
2, 221440, Note_off_c, 0, 68, 0
2, 221440, Note_on_c, 0, 77, 96
2, 221696, Note_off_c, 0, 77, 0
2, 221696, Note_on_c, 0, 76, 96
2, 221952, Note_off_c, 0, 76, 0
2, 221952, Note_on_c, 0, 74, 96
2, 222208, Note_off_c, 0, 74, 0
2, 222208, Note_on_c, 0, 73, 96
2, 222464, Note_off_c, 0, 73, 0
2, 222464, Note_on_c, 0, 74, 96
2, 222720, Note_off_c, 0, 74, 0
2, 222720, Note_on_c, 0, 67, 96
2, 222976, Note_off_c, 0, 67, 0
2, 222976, Note_on_c, 0, 78, 96
2, 223232, Note_off_c, 0, 78, 0
2, 223232, Note_on_c, 0, 76, 96
2, 223488, Note_off_c, 0, 76, 0
2, 223488, Note_on_c, 0, 74, 96
2, 223744, Note_off_c, 0, 74, 0
2, 223744, Note_on_c, 0, 73, 96
2, 224000, Note_off_c, 0, 73, 0
2, 224000, Note_on_c, 0, 74, 96
2, 224256, Note_off_c, 0, 74, 0
2, 224256, Note_on_c, 0, 66, 96
2, 224768, Note_off_c, 0, 66, 0
2, 224768, Note_on_c, 0, 67, 96
2, 225280, Note_off_c, 0, 67, 0
2, 225280, Note_on_c, 0, 64, 96
2, 225792, Note_off_c, 0, 64, 0
2, 225792, Note_on_c, 0, 62, 96
2, 226048, Note_off_c, 0, 62, 0
2, 226048, Note_on_c, 0, 64, 96
2, 226304, Note_off_c, 0, 64, 0
2, 226304, Note_on_c, 0, 66, 96
2, 226560, Note_off_c, 0, 66, 0
2, 226560, Note_on_c, 0, 69, 96
2, 226816, Note_off_c, 0, 69, 0
2, 226816, Note_on_c, 0, 72, 96
2, 227072, Note_off_c, 0, 72, 0
2, 227072, Note_on_c, 0, 71, 96
2, 227328, Note_off_c, 0, 71, 0
2, 227328, Note_on_c, 0, 72, 96
2, 227584, Note_off_c, 0, 72, 0
2, 227584, Note_on_c, 0, 78, 96
2, 227840, Note_off_c, 0, 78, 0
2, 227840, Note_on_c, 0, 81, 96
2, 228096, Note_off_c, 0, 81, 0
2, 228096, Note_on_c, 0, 78, 96
2, 228352, Note_off_c, 0, 78, 0
2, 228352, Note_on_c, 0, 74, 96
2, 228608, Note_off_c, 0, 74, 0
2, 228608, Note_on_c, 0, 72, 96
2, 228864, Note_off_c, 0, 72, 0
2, 228864, Note_on_c, 0, 71, 96
2, 229888, Note_off_c, 0, 71, 0
2, 229888, Note_on_c, 0, 69, 96
2, 230400, Note_off_c, 0, 69, 0
2, 230400, Note_on_c, 0, 71, 96
2, 235264, Note_off_c, 0, 71, 0
2, 235264, Note_on_c, 0, 76, 96
2, 235520, Note_off_c, 0, 76, 0
2, 235520, Note_on_c, 0, 79, 96
2, 235776, Note_off_c, 0, 79, 0
2, 235776, Note_on_c, 0, 76, 96
2, 236032, Note_off_c, 0, 76, 0
2, 236032, Note_on_c, 0, 72, 96
2, 236288, Note_off_c, 0, 72, 0
2, 236288, Note_on_c, 0, 71, 96
2, 236544, Note_off_c, 0, 71, 0
2, 236544, Note_on_c, 0, 69, 96
2, 236800, Note_off_c, 0, 69, 0
2, 236800, Note_on_c, 0, 74, 96
2, 237056, Note_off_c, 0, 74, 0
2, 237056, Note_on_c, 0, 81, 96
2, 237312, Note_off_c, 0, 81, 0
2, 237312, Note_on_c, 0, 72, 96
2, 237568, Note_off_c, 0, 72, 0
2, 237568, Note_on_c, 0, 71, 96
2, 237824, Note_off_c, 0, 71, 0
2, 237824, Note_on_c, 0, 69, 96
2, 238080, Note_off_c, 0, 69, 0
2, 238080, Note_on_c, 0, 67, 96
2, 238592, Note_off_c, 0, 67, 0
2, 241408, Note_on_c, 0, 62, 96
2, 241664, Note_off_c, 0, 62, 0
2, 241664, Note_on_c, 0, 66, 96
2, 241920, Note_off_c, 0, 66, 0
2, 241920, Note_on_c, 0, 69, 96
2, 242176, Note_off_c, 0, 69, 0
2, 242176, Note_on_c, 0, 72, 96
2, 242432, Note_off_c, 0, 72, 0
2, 242432, Note_on_c, 0, 71, 96
2, 242688, Note_off_c, 0, 71, 0
2, 242688, Note_on_c, 0, 72, 96
2, 242944, Note_off_c, 0, 72, 0
2, 242944, Note_on_c, 0, 78, 96
2, 243200, Note_off_c, 0, 78, 0
2, 243200, Note_on_c, 0, 81, 96
2, 243456, Note_off_c, 0, 81, 0
2, 243456, Note_on_c, 0, 78, 96
2, 243712, Note_off_c, 0, 78, 0
2, 243712, Note_on_c, 0, 74, 96
2, 243968, Note_off_c, 0, 74, 0
2, 243968, Note_on_c, 0, 72, 96
2, 244224, Note_off_c, 0, 72, 0
2, 244224, Note_on_c, 0, 71, 96
2, 244480, Note_off_c, 0, 71, 0
2, 244480, Note_on_c, 0, 74, 96
2, 244736, Note_off_c, 0, 74, 0
2, 244736, Note_on_c, 0, 79, 96
2, 244992, Note_off_c, 0, 79, 0
2, 244992, Note_on_c, 0, 74, 96
2, 245248, Note_off_c, 0, 74, 0
2, 245248, Note_on_c, 0, 71, 96
2, 245504, Note_off_c, 0, 71, 0
2, 245504, Note_on_c, 0, 69, 96
2, 245760, Note_off_c, 0, 69, 0
2, 245760, Note_on_c, 0, 67, 96
2, 246016, Note_off_c, 0, 67, 0
2, 246016, Note_on_c, 0, 71, 96
2, 246272, Note_off_c, 0, 71, 0
2, 246272, Note_on_c, 0, 74, 96
2, 246528, Note_off_c, 0, 74, 0
2, 246528, Note_on_c, 0, 71, 96
2, 246784, Note_off_c, 0, 71, 0
2, 246784, Note_on_c, 0, 67, 96
2, 247040, Note_off_c, 0, 67, 0
2, 247040, Note_on_c, 0, 66, 96
2, 247296, Note_off_c, 0, 66, 0
2, 247296, Note_on_c, 0, 67, 96
2, 247808, Note_off_c, 0, 67, 0
2, 247808, Note_on_c, 0, 76, 96
2, 248320, Note_off_c, 0, 76, 0
2, 248320, Note_on_c, 0, 74, 96
2, 248832, Note_off_c, 0, 74, 0
2, 248832, Note_on_c, 0, 74, 96
2, 250624, Note_off_c, 0, 74, 0
2, 250624, Note_on_c, 0, 78, 96
2, 250880, Note_off_c, 0, 78, 0
2, 250880, Note_on_c, 0, 81, 96
2, 251136, Note_off_c, 0, 81, 0
2, 251136, Note_on_c, 0, 78, 96
2, 251392, Note_off_c, 0, 78, 0
2, 251392, Note_on_c, 0, 72, 96
2, 251648, Note_off_c, 0, 72, 0
2, 251648, Note_on_c, 0, 71, 96
2, 251904, Note_off_c, 0, 71, 0
2, 251904, Note_on_c, 0, 72, 96
2, 252160, Note_off_c, 0, 72, 0
2, 252160, Note_on_c, 0, 78, 96
2, 252416, Note_off_c, 0, 78, 0
2, 252416, Note_on_c, 0, 81, 96
2, 252672, Note_off_c, 0, 81, 0
2, 252672, Note_on_c, 0, 78, 96
2, 252928, Note_off_c, 0, 78, 0
2, 252928, Note_on_c, 0, 71, 96
2, 253184, Note_off_c, 0, 71, 0
2, 253184, Note_on_c, 0, 69, 96
2, 253440, Note_off_c, 0, 69, 0
2, 253440, Note_on_c, 0, 71, 96
2, 253696, Note_off_c, 0, 71, 0
2, 253696, Note_on_c, 0, 74, 96
2, 253952, Note_off_c, 0, 74, 0
2, 253952, Note_on_c, 0, 79, 96
2, 254208, Note_off_c, 0, 79, 0
2, 254208, Note_on_c, 0, 74, 96
2, 254464, Note_off_c, 0, 74, 0
2, 254464, Note_on_c, 0, 71, 96
2, 254720, Note_off_c, 0, 71, 0
2, 254720, Note_on_c, 0, 69, 96
2, 254976, Note_off_c, 0, 69, 0
2, 254976, Note_on_c, 0, 67, 96
2, 255232, Note_off_c, 0, 67, 0
2, 255232, Note_on_c, 0, 71, 96
2, 255488, Note_off_c, 0, 71, 0
2, 255488, Note_on_c, 0, 74, 96
2, 255744, Note_off_c, 0, 74, 0
2, 255744, Note_on_c, 0, 71, 96
2, 256000, Note_off_c, 0, 71, 0
2, 256000, Note_on_c, 0, 67, 96
2, 256256, Note_off_c, 0, 67, 0
2, 256256, Note_on_c, 0, 66, 96
2, 256512, Note_off_c, 0, 66, 0
2, 256512, Note_on_c, 0, 64, 96
2, 257024, Note_off_c, 0, 64, 0
2, 257024, Note_on_c, 0, 72, 96
2, 257536, Note_off_c, 0, 72, 0
2, 257536, Note_on_c, 0, 69, 96
2, 258048, Note_off_c, 0, 69, 0
2, 258048, Note_on_c, 0, 66, 96
2, 259072, Note_off_c, 0, 66, 0
2, 259072, Note_on_c, 0, 64, 96
2, 259584, Note_off_c, 0, 64, 0
2, 259584, Note_on_c, 0, 62, 96
2, 261120, Note_off_c, 0, 62, 0
2, 261120, Note_on_c, 0, 74, 96
2, 262912, Note_off_c, 0, 74, 0
2, 262912, Note_on_c, 0, 64, 96
2, 263168, Note_off_c, 0, 64, 0
2, 263168, Note_on_c, 0, 68, 96
2, 263424, Note_off_c, 0, 68, 0
2, 263424, Note_on_c, 0, 71, 96
2, 263680, Note_off_c, 0, 71, 0
2, 263680, Note_on_c, 0, 74, 96
2, 263936, Note_off_c, 0, 74, 0
2, 263936, Note_on_c, 0, 72, 96
2, 264192, Note_off_c, 0, 72, 0
2, 264192, Note_on_c, 0, 74, 96
2, 264448, Note_off_c, 0, 74, 0
2, 264448, Note_on_c, 0, 80, 96
2, 264704, Note_off_c, 0, 80, 0
2, 264704, Note_on_c, 0, 83, 96
2, 264960, Note_off_c, 0, 83, 0
2, 264960, Note_on_c, 0, 80, 96
2, 265216, Note_off_c, 0, 80, 0
2, 265216, Note_on_c, 0, 76, 96
2, 265472, Note_off_c, 0, 76, 0
2, 265472, Note_on_c, 0, 74, 96
2, 265728, Note_off_c, 0, 74, 0
2, 265728, Note_on_c, 0, 72, 96
2, 266752, Note_off_c, 0, 72, 0
2, 266752, Note_on_c, 0, 71, 96
2, 267264, Note_off_c, 0, 71, 0
2, 267264, Note_on_c, 0, 72, 96
2, 269056, Note_off_c, 0, 72, 0
2, 269056, Note_on_c, 0, 69, 96
2, 269312, Note_off_c, 0, 69, 0
2, 269312, Note_on_c, 0, 68, 96
2, 269568, Note_off_c, 0, 68, 0
2, 269568, Note_on_c, 0, 69, 96
2, 269824, Note_off_c, 0, 69, 0
2, 269824, Note_on_c, 0, 64, 96
2, 270080, Note_off_c, 0, 64, 0
2, 270080, Note_on_c, 0, 69, 96
2, 270336, Note_off_c, 0, 69, 0
2, 270336, Note_on_c, 0, 60, 96
2, 270592, Note_off_c, 0, 60, 0
2, 270592, Note_on_c, 0, 64, 96
2, 270848, Note_off_c, 0, 64, 0
2, 270848, Note_on_c, 0, 57, 96
2, 271104, Note_off_c, 0, 57, 0
2, 271104, Note_on_c, 0, 60, 96
2, 271360, Note_off_c, 0, 60, 0
2, 271360, Note_on_c, 0, 64, 96
2, 271616, Note_off_c, 0, 64, 0
2, 271616, Note_on_c, 0, 69, 96
2, 271872, Note_off_c, 0, 69, 0
2, 271872, Note_on_c, 0, 72, 96
2, 272128, Note_off_c, 0, 72, 0
2, 272128, Note_on_c, 0, 62, 96
2, 272384, Note_off_c, 0, 62, 0
2, 272384, Note_on_c, 0, 66, 96
2, 272640, Note_off_c, 0, 66, 0
2, 272640, Note_on_c, 0, 69, 96
2, 272896, Note_off_c, 0, 69, 0
2, 272896, Note_on_c, 0, 72, 96
2, 273152, Note_off_c, 0, 72, 0
2, 273152, Note_on_c, 0, 71, 96
2, 273408, Note_off_c, 0, 71, 0
2, 273408, Note_on_c, 0, 72, 96
2, 273664, Note_off_c, 0, 72, 0
2, 273664, Note_on_c, 0, 78, 96
2, 273920, Note_off_c, 0, 78, 0
2, 273920, Note_on_c, 0, 81, 96
2, 274176, Note_off_c, 0, 81, 0
2, 274176, Note_on_c, 0, 78, 96
2, 274432, Note_off_c, 0, 78, 0
2, 274432, Note_on_c, 0, 74, 96
2, 274688, Note_off_c, 0, 74, 0
2, 274688, Note_on_c, 0, 72, 96
2, 274944, Note_off_c, 0, 72, 0
2, 274944, Note_on_c, 0, 71, 96
2, 275968, Note_off_c, 0, 71, 0
2, 275968, Note_on_c, 0, 69, 96
2, 276480, Note_off_c, 0, 69, 0
2, 276480, Note_on_c, 0, 71, 96
2, 278272, Note_off_c, 0, 71, 0
2, 278272, Note_on_c, 0, 67, 96
2, 278528, Note_off_c, 0, 67, 0
2, 278528, Note_on_c, 0, 66, 96
2, 278784, Note_off_c, 0, 66, 0
2, 278784, Note_on_c, 0, 67, 96
2, 279040, Note_off_c, 0, 67, 0
2, 279040, Note_on_c, 0, 62, 96
2, 279296, Note_off_c, 0, 62, 0
2, 279296, Note_on_c, 0, 67, 96
2, 279552, Note_off_c, 0, 67, 0
2, 279552, Note_on_c, 0, 59, 96
2, 279808, Note_off_c, 0, 59, 0
2, 279808, Note_on_c, 0, 62, 96
2, 280064, Note_off_c, 0, 62, 0
2, 280064, Note_on_c, 0, 55, 96
2, 280320, Note_off_c, 0, 55, 0
2, 280320, Note_on_c, 0, 59, 96
2, 280576, Note_off_c, 0, 59, 0
2, 280576, Note_on_c, 0, 62, 96
2, 280832, Note_off_c, 0, 62, 0
2, 280832, Note_on_c, 0, 65, 96
2, 281088, Note_off_c, 0, 65, 0
2, 281088, Note_on_c, 0, 64, 96
2, 282880, Note_off_c, 0, 64, 0
2, 282880, Note_on_c, 0, 72, 96
2, 283136, Note_off_c, 0, 72, 0
2, 283136, Note_on_c, 0, 71, 96
2, 283392, Note_off_c, 0, 71, 0
2, 283392, Note_on_c, 0, 72, 96
2, 283648, Note_off_c, 0, 72, 0
2, 283648, Note_on_c, 0, 81, 96
2, 283904, Note_off_c, 0, 81, 0
2, 283904, Note_on_c, 0, 72, 96
2, 284160, Note_off_c, 0, 72, 0
2, 284160, Note_on_c, 0, 64, 96
2, 284416, Note_off_c, 0, 64, 0
2, 284416, Note_on_c, 0, 72, 96
2, 284672, Note_off_c, 0, 72, 0
2, 284672, Note_on_c, 0, 71, 96
2, 284928, Note_off_c, 0, 71, 0
2, 284928, Note_on_c, 0, 72, 96
2, 285184, Note_off_c, 0, 72, 0
2, 285184, Note_on_c, 0, 79, 96
2, 285440, Note_off_c, 0, 79, 0
2, 285440, Note_on_c, 0, 72, 96
2, 285696, Note_off_c, 0, 72, 0
2, 285696, Note_on_c, 0, 62, 96
2, 285952, Note_off_c, 0, 62, 0
2, 285952, Note_on_c, 0, 72, 96
2, 286208, Note_off_c, 0, 72, 0
2, 286208, Note_on_c, 0, 71, 96
2, 286464, Note_off_c, 0, 71, 0
2, 286464, Note_on_c, 0, 72, 96
2, 286720, Note_off_c, 0, 72, 0
2, 286720, Note_on_c, 0, 78, 96
2, 286976, Note_off_c, 0, 78, 0
2, 286976, Note_on_c, 0, 72, 96
2, 287232, Note_off_c, 0, 72, 0
2, 287232, Note_on_c, 0, 62, 96
2, 287488, Note_off_c, 0, 62, 0
2, 287488, Note_on_c, 0, 72, 96
2, 287744, Note_off_c, 0, 72, 0
2, 287744, Note_on_c, 0, 71, 96
2, 288000, Note_off_c, 0, 71, 0
2, 288000, Note_on_c, 0, 72, 96
2, 288256, Note_off_c, 0, 72, 0
2, 288256, Note_on_c, 0, 81, 96
2, 288512, Note_off_c, 0, 81, 0
2, 288512, Note_on_c, 0, 72, 96
2, 288768, Note_off_c, 0, 72, 0
2, 288768, Note_on_c, 0, 62, 96
2, 289024, Note_off_c, 0, 62, 0
2, 289024, Note_on_c, 0, 72, 96
2, 289280, Note_off_c, 0, 72, 0
2, 289280, Note_on_c, 0, 71, 96
2, 289536, Note_off_c, 0, 71, 0
2, 289536, Note_on_c, 0, 72, 96
2, 289792, Note_off_c, 0, 72, 0
2, 289792, Note_on_c, 0, 78, 96
2, 290048, Note_off_c, 0, 78, 0
2, 290048, Note_on_c, 0, 72, 96
2, 290304, Note_off_c, 0, 72, 0
2, 290304, Note_on_c, 0, 62, 96
2, 290560, Note_off_c, 0, 62, 0
2, 290560, Note_on_c, 0, 71, 96
2, 290816, Note_off_c, 0, 71, 0
2, 290816, Note_on_c, 0, 69, 96
2, 291072, Note_off_c, 0, 69, 0
2, 291072, Note_on_c, 0, 71, 96
2, 291328, Note_off_c, 0, 71, 0
2, 291328, Note_on_c, 0, 79, 96
2, 291584, Note_off_c, 0, 79, 0
2, 291584, Note_on_c, 0, 71, 96
2, 291840, Note_off_c, 0, 71, 0
2, 291840, Note_on_c, 0, 62, 96
2, 292096, Note_off_c, 0, 62, 0
2, 292096, Note_on_c, 0, 71, 96
2, 292352, Note_off_c, 0, 71, 0
2, 292352, Note_on_c, 0, 69, 96
2, 292608, Note_off_c, 0, 69, 0
2, 292608, Note_on_c, 0, 71, 96
2, 292864, Note_off_c, 0, 71, 0
2, 292864, Note_on_c, 0, 74, 96
2, 293120, Note_off_c, 0, 74, 0
2, 293120, Note_on_c, 0, 71, 96
2, 293376, Note_off_c, 0, 71, 0
2, 293376, Note_on_c, 0, 62, 96
2, 293632, Note_off_c, 0, 62, 0
2, 293632, Note_on_c, 0, 71, 96
2, 293888, Note_off_c, 0, 71, 0
2, 293888, Note_on_c, 0, 69, 96
2, 294144, Note_off_c, 0, 69, 0
2, 294144, Note_on_c, 0, 71, 96
2, 294400, Note_off_c, 0, 71, 0
2, 294400, Note_on_c, 0, 79, 96
2, 294656, Note_off_c, 0, 79, 0
2, 294656, Note_on_c, 0, 71, 96
2, 294912, Note_off_c, 0, 71, 0
2, 294912, Note_on_c, 0, 73, 96
2, 295168, Note_off_c, 0, 73, 0
2, 295168, Note_on_c, 0, 82, 96
2, 295424, Note_off_c, 0, 82, 0
2, 295424, Note_on_c, 0, 81, 96
2, 295680, Note_off_c, 0, 81, 0
2, 295680, Note_on_c, 0, 79, 96
2, 295936, Note_off_c, 0, 79, 0
2, 295936, Note_on_c, 0, 78, 96
2, 296192, Note_off_c, 0, 78, 0
2, 296192, Note_on_c, 0, 79, 96
2, 296448, Note_off_c, 0, 79, 0
2, 296448, Note_on_c, 0, 72, 96
2, 296704, Note_off_c, 0, 72, 0
2, 296704, Note_on_c, 0, 83, 96
2, 296960, Note_off_c, 0, 83, 0
2, 296960, Note_on_c, 0, 81, 96
2, 297216, Note_off_c, 0, 81, 0
2, 297216, Note_on_c, 0, 79, 96
2, 297472, Note_off_c, 0, 79, 0
2, 297472, Note_on_c, 0, 78, 96
2, 297728, Note_off_c, 0, 78, 0
2, 297728, Note_on_c, 0, 79, 96
2, 297984, Note_off_c, 0, 79, 0
2, 297984, Note_on_c, 0, 71, 96
2, 298496, Note_off_c, 0, 71, 0
2, 298496, Note_on_c, 0, 72, 96
2, 299008, Note_off_c, 0, 72, 0
2, 299008, Note_on_c, 0, 69, 96
2, 299520, Note_off_c, 0, 69, 0
2, 299520, Note_on_c, 0, 67, 96
2, 304128, Note_off_c, 0, 67, 0
2, 304129, End_track
3, 0, Start_track
3, 0, Title_t, "Instrument 2"
3, 55296, Note_on_c, 1, 67, 96
3, 56832, Note_off_c, 1, 67, 0
3, 56832, Note_on_c, 1, 67, 96
3, 58368, Note_off_c, 1, 67, 0
3, 58368, Note_on_c, 1, 71, 96
3, 59392, Note_off_c, 1, 71, 0
3, 59392, Note_on_c, 1, 72, 96
3, 59648, Note_off_c, 1, 72, 0
3, 59648, Note_on_c, 1, 74, 96
3, 59904, Note_off_c, 1, 74, 0
3, 59904, Note_on_c, 1, 71, 96
3, 62464, Note_off_c, 1, 71, 0
3, 62464, Note_on_c, 1, 69, 96
3, 62976, Note_off_c, 1, 69, 0
3, 62976, Note_on_c, 1, 67, 96
3, 64000, Note_off_c, 1, 67, 0
3, 64000, Note_on_c, 1, 66, 96
3, 64256, Note_off_c, 1, 66, 0
3, 64256, Note_on_c, 1, 67, 96
3, 64512, Note_off_c, 1, 67, 0
3, 64512, Note_on_c, 1, 66, 96
3, 67072, Note_off_c, 1, 66, 0
3, 67072, Note_on_c, 1, 64, 96
3, 67584, Note_off_c, 1, 64, 0
3, 67584, Note_on_c, 1, 62, 96
3, 69120, Note_off_c, 1, 62, 0
3, 69120, Note_on_c, 1, 64, 96
3, 70144, Note_off_c, 1, 64, 0
3, 70144, Note_on_c, 1, 66, 96
3, 70656, Note_off_c, 1, 66, 0
3, 70656, Note_on_c, 1, 67, 96
3, 71680, Note_off_c, 1, 67, 0
3, 71680, Note_on_c, 1, 66, 96
3, 72192, Note_off_c, 1, 66, 0
3, 72192, Note_on_c, 1, 67, 96
3, 73216, Note_off_c, 1, 67, 0
3, 73216, Note_on_c, 1, 69, 96
3, 73728, Note_off_c, 1, 69, 0
3, 73728, Note_on_c, 1, 66, 96
3, 78336, Note_off_c, 1, 66, 0
3, 78336, Note_on_c, 1, 67, 96
3, 79872, Note_off_c, 1, 67, 0
3, 101376, Note_on_c, 1, 67, 96
3, 102912, Note_off_c, 1, 67, 0
3, 102912, Note_on_c, 1, 67, 96
3, 104448, Note_off_c, 1, 67, 0
3, 104448, Note_on_c, 1, 71, 96
3, 105472, Note_off_c, 1, 71, 0
3, 105472, Note_on_c, 1, 72, 96
3, 105728, Note_off_c, 1, 72, 0
3, 105728, Note_on_c, 1, 74, 96
3, 105984, Note_off_c, 1, 74, 0
3, 105984, Note_on_c, 1, 71, 96
3, 108544, Note_off_c, 1, 71, 0
3, 108544, Note_on_c, 1, 69, 96
3, 109056, Note_off_c, 1, 69, 0
3, 109056, Note_on_c, 1, 67, 96
3, 110592, Note_off_c, 1, 67, 0
3, 110592, Note_on_c, 1, 66, 96
3, 113152, Note_off_c, 1, 66, 0
3, 113152, Note_on_c, 1, 64, 96
3, 113664, Note_off_c, 1, 64, 0
3, 113664, Note_on_c, 1, 62, 96
3, 115200, Note_off_c, 1, 62, 0
3, 115200, Note_on_c, 1, 64, 96
3, 116224, Note_off_c, 1, 64, 0
3, 116224, Note_on_c, 1, 66, 96
3, 116736, Note_off_c, 1, 66, 0
3, 116736, Note_on_c, 1, 67, 96
3, 117760, Note_off_c, 1, 67, 0
3, 117760, Note_on_c, 1, 66, 96
3, 118272, Note_off_c, 1, 66, 0
3, 118272, Note_on_c, 1, 67, 96
3, 119296, Note_off_c, 1, 67, 0
3, 119296, Note_on_c, 1, 69, 96
3, 119808, Note_off_c, 1, 69, 0
3, 119808, Note_on_c, 1, 66, 96
3, 124416, Note_off_c, 1, 66, 0
3, 124416, Note_on_c, 1, 67, 96
3, 127488, Note_off_c, 1, 67, 0
3, 170496, Note_on_c, 1, 71, 96
3, 172032, Note_off_c, 1, 71, 0
3, 172032, Note_on_c, 1, 72, 96
3, 173056, Note_off_c, 1, 72, 0
3, 173056, Note_on_c, 1, 71, 96
3, 173568, Note_off_c, 1, 71, 0
3, 173568, Note_on_c, 1, 69, 96
3, 174592, Note_off_c, 1, 69, 0
3, 174592, Note_on_c, 1, 71, 96
3, 175104, Note_off_c, 1, 71, 0
3, 175104, Note_on_c, 1, 72, 96
3, 184320, Note_off_c, 1, 72, 0
3, 184320, Note_on_c, 1, 71, 96
3, 186624, Note_off_c, 1, 71, 0
3, 186624, Note_on_c, 1, 72, 96
3, 187392, Note_off_c, 1, 72, 0
3, 187392, Note_on_c, 1, 74, 96
3, 188928, Note_off_c, 1, 74, 0
3, 188928, Note_on_c, 1, 74, 96
3, 190464, Note_off_c, 1, 74, 0
3, 190464, Note_on_c, 1, 67, 96
3, 191488, Note_off_c, 1, 67, 0
3, 191488, Note_on_c, 1, 66, 96
3, 192000, Note_off_c, 1, 66, 0
3, 192000, Note_on_c, 1, 67, 96
3, 193024, Note_off_c, 1, 67, 0
3, 193024, Note_on_c, 1, 72, 96
3, 193536, Note_off_c, 1, 72, 0
3, 193536, Note_on_c, 1, 69, 96
3, 196608, Note_off_c, 1, 69, 0
3, 230400, Note_on_c, 1, 62, 96
3, 231936, Note_off_c, 1, 62, 0
3, 231936, Note_on_c, 1, 64, 96
3, 233472, Note_off_c, 1, 64, 0
3, 233472, Note_on_c, 1, 66, 96
3, 235008, Note_off_c, 1, 66, 0
3, 235008, Note_on_c, 1, 67, 96
3, 236544, Note_off_c, 1, 67, 0
3, 236544, Note_on_c, 1, 69, 96
3, 238080, Note_off_c, 1, 69, 0
3, 238080, Note_on_c, 1, 71, 96
3, 239104, Note_off_c, 1, 71, 0
3, 239104, Note_on_c, 1, 72, 96
3, 239360, Note_off_c, 1, 72, 0
3, 239360, Note_on_c, 1, 74, 96
3, 239616, Note_off_c, 1, 74, 0
3, 239616, Note_on_c, 1, 69, 96
3, 244224, Note_off_c, 1, 69, 0
3, 244224, Note_on_c, 1, 67, 96
3, 247296, Note_off_c, 1, 67, 0
3, 304129, End_track
4, 0, Start_track
4, 0, Title_t, "Instrument 3"
4, 0, Note_on_c, 2, 55, 96
4, 1024, Note_off_c, 2, 55, 0
4, 1536, Note_on_c, 2, 52, 96
4, 2560, Note_off_c, 2, 52, 0
4, 3072, Note_on_c, 2, 48, 96
4, 4096, Note_off_c, 2, 48, 0
4, 4608, Note_on_c, 2, 60, 96
4, 5120, Note_off_c, 2, 60, 0
4, 5120, Note_on_c, 2, 59, 96
4, 5632, Note_off_c, 2, 59, 0
4, 5632, Note_on_c, 2, 57, 96
4, 6144, Note_off_c, 2, 57, 0
4, 6144, Note_on_c, 2, 59, 96
4, 6656, Note_off_c, 2, 59, 0
4, 6656, Note_on_c, 2, 57, 96
4, 7168, Note_off_c, 2, 57, 0
4, 7168, Note_on_c, 2, 55, 96
4, 7680, Note_off_c, 2, 55, 0
4, 7680, Note_on_c, 2, 57, 96
4, 8192, Note_off_c, 2, 57, 0
4, 8192, Note_on_c, 2, 55, 96
4, 8704, Note_off_c, 2, 55, 0
4, 8704, Note_on_c, 2, 54, 96
4, 9216, Note_off_c, 2, 54, 0
4, 9216, Note_on_c, 2, 55, 96
4, 10240, Note_off_c, 2, 55, 0
4, 10752, Note_on_c, 2, 47, 96
4, 11776, Note_off_c, 2, 47, 0
4, 12288, Note_on_c, 2, 48, 96
4, 12800, Note_off_c, 2, 48, 0
4, 12800, Note_on_c, 2, 45, 96
4, 13312, Note_off_c, 2, 45, 0
4, 13312, Note_on_c, 2, 48, 96
4, 13824, Note_off_c, 2, 48, 0
4, 13824, Note_on_c, 2, 50, 96
4, 15616, Note_off_c, 2, 50, 0
4, 15616, Note_on_c, 2, 52, 96
4, 15872, Note_off_c, 2, 52, 0
4, 15872, Note_on_c, 2, 54, 96
4, 16384, Note_off_c, 2, 54, 0
4, 16384, Note_on_c, 2, 50, 96
4, 16896, Note_off_c, 2, 50, 0
4, 16896, Note_on_c, 2, 47, 96
4, 17152, Note_off_c, 2, 47, 0
4, 17152, Note_on_c, 2, 48, 96
4, 17408, Note_off_c, 2, 48, 0
4, 17408, Note_on_c, 2, 50, 96
4, 17920, Note_off_c, 2, 50, 0
4, 17920, Note_on_c, 2, 47, 96
4, 18432, Note_off_c, 2, 47, 0
4, 18432, Note_on_c, 2, 44, 96
4, 18688, Note_off_c, 2, 44, 0
4, 18688, Note_on_c, 2, 45, 96
4, 18944, Note_off_c, 2, 45, 0
4, 18944, Note_on_c, 2, 47, 96
4, 19456, Note_off_c, 2, 47, 0
4, 19456, Note_on_c, 2, 44, 96
4, 19968, Note_off_c, 2, 44, 0
4, 19968, Note_on_c, 2, 40, 96
4, 20992, Note_off_c, 2, 40, 0
4, 21504, Note_on_c, 2, 52, 96
4, 22528, Note_off_c, 2, 52, 0
4, 23040, Note_on_c, 2, 45, 96
4, 23552, Note_off_c, 2, 45, 0
4, 23552, Note_on_c, 2, 48, 96
4, 24064, Note_off_c, 2, 48, 0
4, 24064, Note_on_c, 2, 52, 96
4, 24576, Note_off_c, 2, 52, 0
4, 24576, Note_on_c, 2, 57, 96
4, 26368, Note_off_c, 2, 57, 0
4, 26368, Note_on_c, 2, 59, 96
4, 26624, Note_off_c, 2, 59, 0
4, 26624, Note_on_c, 2, 60, 96
4, 27136, Note_off_c, 2, 60, 0
4, 27136, Note_on_c, 2, 57, 96
4, 27648, Note_off_c, 2, 57, 0
4, 27648, Note_on_c, 2, 54, 96
4, 27904, Note_off_c, 2, 54, 0
4, 27904, Note_on_c, 2, 55, 96
4, 28160, Note_off_c, 2, 55, 0
4, 28160, Note_on_c, 2, 57, 96
4, 28672, Note_off_c, 2, 57, 0
4, 28672, Note_on_c, 2, 54, 96
4, 29184, Note_off_c, 2, 54, 0
4, 29184, Note_on_c, 2, 50, 96
4, 30208, Note_off_c, 2, 50, 0
4, 30720, Note_on_c, 2, 38, 96
4, 31744, Note_off_c, 2, 38, 0
4, 32256, Note_on_c, 2, 43, 96
4, 32768, Note_off_c, 2, 43, 0
4, 32768, Note_on_c, 2, 47, 96
4, 33280, Note_off_c, 2, 47, 0
4, 33280, Note_on_c, 2, 50, 96
4, 33792, Note_off_c, 2, 50, 0
4, 33792, Note_on_c, 2, 55, 96
4, 35584, Note_off_c, 2, 55, 0
4, 35584, Note_on_c, 2, 57, 96
4, 35840, Note_off_c, 2, 57, 0
4, 35840, Note_on_c, 2, 59, 96
4, 36352, Note_off_c, 2, 59, 0
4, 36352, Note_on_c, 2, 55, 96
4, 36864, Note_off_c, 2, 55, 0
4, 36864, Note_on_c, 2, 48, 96
4, 37120, Note_off_c, 2, 48, 0
4, 37120, Note_on_c, 2, 50, 96
4, 37376, Note_off_c, 2, 50, 0
4, 37376, Note_on_c, 2, 52, 96
4, 37888, Note_off_c, 2, 52, 0
4, 37888, Note_on_c, 2, 48, 96
4, 38400, Note_off_c, 2, 48, 0
4, 38400, Note_on_c, 2, 45, 96
4, 38912, Note_off_c, 2, 45, 0
4, 38912, Note_on_c, 2, 48, 96
4, 39424, Note_off_c, 2, 48, 0
4, 39424, Note_on_c, 2, 52, 96
4, 39936, Note_off_c, 2, 52, 0
4, 39936, Note_on_c, 2, 57, 96
4, 40448, Note_off_c, 2, 57, 0
4, 40448, Note_on_c, 2, 55, 96
4, 40960, Note_off_c, 2, 55, 0
4, 40960, Note_on_c, 2, 57, 96
4, 41472, Note_off_c, 2, 57, 0
4, 41472, Note_on_c, 2, 50, 96
4, 41984, Note_off_c, 2, 50, 0
4, 41984, Note_on_c, 2, 54, 96
4, 42496, Note_off_c, 2, 54, 0
4, 42496, Note_on_c, 2, 57, 96
4, 43008, Note_off_c, 2, 57, 0
4, 43008, Note_on_c, 2, 54, 96
4, 45056, Note_off_c, 2, 54, 0
4, 45056, Note_on_c, 2, 55, 96
4, 45568, Note_off_c, 2, 55, 0
4, 45568, Note_on_c, 2, 57, 96
4, 46080, Note_off_c, 2, 57, 0
4, 46080, Note_on_c, 2, 50, 96
4, 46592, Note_off_c, 2, 50, 0
4, 46592, Note_on_c, 2, 55, 96
4, 47104, Note_off_c, 2, 55, 0
4, 47104, Note_on_c, 2, 59, 96
4, 47616, Note_off_c, 2, 59, 0
4, 47616, Note_on_c, 2, 55, 96
4, 49664, Note_off_c, 2, 55, 0
4, 49664, Note_on_c, 2, 57, 96
4, 50176, Note_off_c, 2, 57, 0
4, 50176, Note_on_c, 2, 59, 96
4, 50688, Note_off_c, 2, 59, 0
4, 50688, Note_on_c, 2, 52, 96
4, 51712, Note_off_c, 2, 52, 0
4, 52224, Note_on_c, 2, 54, 96
4, 53248, Note_off_c, 2, 54, 0
4, 53760, Note_on_c, 2, 55, 96
4, 54272, Note_off_c, 2, 55, 0
4, 54272, Note_on_c, 2, 48, 96
4, 54784, Note_off_c, 2, 48, 0
4, 54784, Note_on_c, 2, 50, 96
4, 55296, Note_off_c, 2, 50, 0
4, 55296, Note_on_c, 2, 43, 96
4, 55808, Note_off_c, 2, 43, 0
4, 55808, Note_on_c, 2, 47, 96
4, 56320, Note_off_c, 2, 47, 0
4, 56320, Note_on_c, 2, 50, 96
4, 56832, Note_off_c, 2, 50, 0
4, 56832, Note_on_c, 2, 55, 96
4, 57088, Note_off_c, 2, 55, 0
4, 57088, Note_on_c, 2, 57, 96
4, 57344, Note_off_c, 2, 57, 0
4, 57344, Note_on_c, 2, 59, 96
4, 57856, Note_off_c, 2, 59, 0
4, 57856, Note_on_c, 2, 55, 96
4, 58368, Note_off_c, 2, 55, 0
4, 58368, Note_on_c, 2, 54, 96
4, 58880, Note_off_c, 2, 54, 0
4, 58880, Note_on_c, 2, 52, 96
4, 59392, Note_off_c, 2, 52, 0
4, 59392, Note_on_c, 2, 50, 96
4, 59904, Note_off_c, 2, 50, 0
4, 59904, Note_on_c, 2, 55, 96
4, 60928, Note_off_c, 2, 55, 0
4, 61440, Note_on_c, 2, 47, 96
4, 62464, Note_off_c, 2, 47, 0
4, 62976, Note_on_c, 2, 49, 96
4, 64000, Note_off_c, 2, 49, 0
4, 64512, Note_on_c, 2, 60, 96
4, 65024, Note_off_c, 2, 60, 0
4, 65024, Note_on_c, 2, 59, 96
4, 65536, Note_off_c, 2, 59, 0
4, 65536, Note_on_c, 2, 57, 96
4, 66048, Note_off_c, 2, 57, 0
4, 66048, Note_on_c, 2, 59, 96
4, 66560, Note_off_c, 2, 59, 0
4, 66560, Note_on_c, 2, 57, 96
4, 67072, Note_off_c, 2, 57, 0
4, 67072, Note_on_c, 2, 55, 96
4, 67584, Note_off_c, 2, 55, 0
4, 67584, Note_on_c, 2, 54, 96
4, 68096, Note_off_c, 2, 54, 0
4, 68096, Note_on_c, 2, 50, 96
4, 68608, Note_off_c, 2, 50, 0
4, 68608, Note_on_c, 2, 55, 96
4, 69120, Note_off_c, 2, 55, 0
4, 69120, Note_on_c, 2, 48, 96
4, 69632, Note_off_c, 2, 48, 0
4, 69632, Note_on_c, 2, 47, 96
4, 70144, Note_off_c, 2, 47, 0
4, 70144, Note_on_c, 2, 45, 96
4, 70656, Note_off_c, 2, 45, 0
4, 70656, Note_on_c, 2, 47, 96
4, 71168, Note_off_c, 2, 47, 0
4, 71168, Note_on_c, 2, 48, 96
4, 71680, Note_off_c, 2, 48, 0
4, 71680, Note_on_c, 2, 50, 96
4, 72192, Note_off_c, 2, 50, 0
4, 72192, Note_on_c, 2, 52, 96
4, 72704, Note_off_c, 2, 52, 0
4, 72704, Note_on_c, 2, 50, 96
4, 73216, Note_off_c, 2, 50, 0
4, 73216, Note_on_c, 2, 48, 96
4, 73728, Note_off_c, 2, 48, 0
4, 73728, Note_on_c, 2, 50, 96
4, 75776, Note_off_c, 2, 50, 0
4, 75776, Note_on_c, 2, 54, 96
4, 76288, Note_off_c, 2, 54, 0
4, 76288, Note_on_c, 2, 57, 96
4, 76800, Note_off_c, 2, 57, 0
4, 76800, Note_on_c, 2, 62, 96
4, 77824, Note_off_c, 2, 62, 0
4, 77824, Note_on_c, 2, 50, 96
4, 78336, Note_off_c, 2, 50, 0
4, 78336, Note_on_c, 2, 55, 96
4, 78848, Note_off_c, 2, 55, 0
4, 78848, Note_on_c, 2, 50, 96
4, 79360, Note_off_c, 2, 50, 0
4, 79360, Note_on_c, 2, 47, 96
4, 79872, Note_off_c, 2, 47, 0
4, 79872, Note_on_c, 2, 43, 96
4, 81664, Note_off_c, 2, 43, 0
4, 81664, Note_on_c, 2, 45, 96
4, 81920, Note_off_c, 2, 45, 0
4, 81920, Note_on_c, 2, 47, 96
4, 82432, Note_off_c, 2, 47, 0
4, 82432, Note_on_c, 2, 43, 96
4, 82944, Note_off_c, 2, 43, 0
4, 82944, Note_on_c, 2, 48, 96
4, 83200, Note_off_c, 2, 48, 0
4, 83200, Note_on_c, 2, 50, 96
4, 83456, Note_off_c, 2, 50, 0
4, 83456, Note_on_c, 2, 52, 96
4, 83968, Note_off_c, 2, 52, 0
4, 83968, Note_on_c, 2, 48, 96
4, 84480, Note_off_c, 2, 48, 0
4, 84480, Note_on_c, 2, 45, 96
4, 84992, Note_off_c, 2, 45, 0
4, 84992, Note_on_c, 2, 48, 96
4, 85504, Note_off_c, 2, 48, 0
4, 85504, Note_on_c, 2, 52, 96
4, 86016, Note_off_c, 2, 52, 0
4, 86016, Note_on_c, 2, 57, 96
4, 86528, Note_off_c, 2, 57, 0
4, 86528, Note_on_c, 2, 55, 96
4, 87040, Note_off_c, 2, 55, 0
4, 87040, Note_on_c, 2, 57, 96
4, 87552, Note_off_c, 2, 57, 0
4, 87552, Note_on_c, 2, 50, 96
4, 88064, Note_off_c, 2, 50, 0
4, 88064, Note_on_c, 2, 54, 96
4, 88576, Note_off_c, 2, 54, 0
4, 88576, Note_on_c, 2, 57, 96
4, 89088, Note_off_c, 2, 57, 0
4, 89088, Note_on_c, 2, 54, 96
4, 91136, Note_off_c, 2, 54, 0
4, 91136, Note_on_c, 2, 55, 96
4, 91648, Note_off_c, 2, 55, 0
4, 91648, Note_on_c, 2, 57, 96
4, 92160, Note_off_c, 2, 57, 0
4, 92160, Note_on_c, 2, 50, 96
4, 92672, Note_off_c, 2, 50, 0
4, 92672, Note_on_c, 2, 55, 96
4, 93184, Note_off_c, 2, 55, 0
4, 93184, Note_on_c, 2, 59, 96
4, 93696, Note_off_c, 2, 59, 0
4, 93696, Note_on_c, 2, 55, 96
4, 95744, Note_off_c, 2, 55, 0
4, 95744, Note_on_c, 2, 57, 96
4, 96256, Note_off_c, 2, 57, 0
4, 96256, Note_on_c, 2, 59, 96
4, 96768, Note_off_c, 2, 59, 0
4, 96768, Note_on_c, 2, 52, 96
4, 97792, Note_off_c, 2, 52, 0
4, 98304, Note_on_c, 2, 54, 96
4, 99328, Note_off_c, 2, 54, 0
4, 99840, Note_on_c, 2, 55, 96
4, 100352, Note_off_c, 2, 55, 0
4, 100352, Note_on_c, 2, 48, 96
4, 100864, Note_off_c, 2, 48, 0
4, 100864, Note_on_c, 2, 50, 96
4, 101376, Note_off_c, 2, 50, 0
4, 101376, Note_on_c, 2, 43, 96
4, 101888, Note_off_c, 2, 43, 0
4, 101888, Note_on_c, 2, 47, 96
4, 102400, Note_off_c, 2, 47, 0
4, 102400, Note_on_c, 2, 50, 96
4, 102912, Note_off_c, 2, 50, 0
4, 102912, Note_on_c, 2, 55, 96
4, 103168, Note_off_c, 2, 55, 0
4, 103168, Note_on_c, 2, 57, 96
4, 103424, Note_off_c, 2, 57, 0
4, 103424, Note_on_c, 2, 59, 96
4, 103936, Note_off_c, 2, 59, 0
4, 103936, Note_on_c, 2, 55, 96
4, 104448, Note_off_c, 2, 55, 0
4, 104448, Note_on_c, 2, 54, 96
4, 104960, Note_off_c, 2, 54, 0
4, 104960, Note_on_c, 2, 52, 96
4, 105472, Note_off_c, 2, 52, 0
4, 105472, Note_on_c, 2, 50, 96
4, 105984, Note_off_c, 2, 50, 0
4, 105984, Note_on_c, 2, 55, 96
4, 107008, Note_off_c, 2, 55, 0
4, 107520, Note_on_c, 2, 57, 96
4, 108544, Note_off_c, 2, 57, 0
4, 109056, Note_on_c, 2, 59, 96
4, 110080, Note_off_c, 2, 59, 0
4, 110592, Note_on_c, 2, 60, 96
4, 111104, Note_off_c, 2, 60, 0
4, 111104, Note_on_c, 2, 59, 96
4, 111616, Note_off_c, 2, 59, 0
4, 111616, Note_on_c, 2, 57, 96
4, 112128, Note_off_c, 2, 57, 0
4, 112128, Note_on_c, 2, 59, 96
4, 112640, Note_off_c, 2, 59, 0
4, 112640, Note_on_c, 2, 57, 96
4, 113152, Note_off_c, 2, 57, 0
4, 113152, Note_on_c, 2, 55, 96
4, 113664, Note_off_c, 2, 55, 0
4, 113664, Note_on_c, 2, 54, 96
4, 114176, Note_off_c, 2, 54, 0
4, 114176, Note_on_c, 2, 50, 96
4, 114688, Note_off_c, 2, 50, 0
4, 114688, Note_on_c, 2, 55, 96
4, 115200, Note_off_c, 2, 55, 0
4, 115200, Note_on_c, 2, 48, 96
4, 115712, Note_off_c, 2, 48, 0
4, 115712, Note_on_c, 2, 47, 96
4, 116224, Note_off_c, 2, 47, 0
4, 116224, Note_on_c, 2, 45, 96
4, 116736, Note_off_c, 2, 45, 0
4, 116736, Note_on_c, 2, 47, 96
4, 117248, Note_off_c, 2, 47, 0
4, 117248, Note_on_c, 2, 48, 96
4, 117760, Note_off_c, 2, 48, 0
4, 117760, Note_on_c, 2, 50, 96
4, 118272, Note_off_c, 2, 50, 0
4, 118272, Note_on_c, 2, 52, 96
4, 118784, Note_off_c, 2, 52, 0
4, 118784, Note_on_c, 2, 50, 96
4, 119296, Note_off_c, 2, 50, 0
4, 119296, Note_on_c, 2, 48, 96
4, 119808, Note_off_c, 2, 48, 0
4, 119808, Note_on_c, 2, 50, 96
4, 121856, Note_off_c, 2, 50, 0
4, 121856, Note_on_c, 2, 54, 96
4, 122368, Note_off_c, 2, 54, 0
4, 122368, Note_on_c, 2, 57, 96
4, 122880, Note_off_c, 2, 57, 0
4, 122880, Note_on_c, 2, 62, 96
4, 123904, Note_off_c, 2, 62, 0
4, 123904, Note_on_c, 2, 50, 96
4, 124416, Note_off_c, 2, 50, 0
4, 124416, Note_on_c, 2, 55, 96
4, 125440, Note_off_c, 2, 55, 0
4, 125952, Note_on_c, 2, 47, 96
4, 126976, Note_off_c, 2, 47, 0
4, 127488, Note_on_c, 2, 48, 96
4, 128000, Note_off_c, 2, 48, 0
4, 128000, Note_on_c, 2, 45, 96
4, 128512, Note_off_c, 2, 45, 0
4, 128512, Note_on_c, 2, 48, 96
4, 129024, Note_off_c, 2, 48, 0
4, 129024, Note_on_c, 2, 50, 96
4, 130816, Note_off_c, 2, 50, 0
4, 130816, Note_on_c, 2, 52, 96
4, 131072, Note_off_c, 2, 52, 0
4, 131072, Note_on_c, 2, 54, 96
4, 131584, Note_off_c, 2, 54, 0
4, 131584, Note_on_c, 2, 50, 96
4, 132096, Note_off_c, 2, 50, 0
4, 132096, Note_on_c, 2, 47, 96
4, 132352, Note_off_c, 2, 47, 0
4, 132352, Note_on_c, 2, 48, 96
4, 132608, Note_off_c, 2, 48, 0
4, 132608, Note_on_c, 2, 50, 96
4, 133120, Note_off_c, 2, 50, 0
4, 133120, Note_on_c, 2, 47, 96
4, 133632, Note_off_c, 2, 47, 0
4, 133632, Note_on_c, 2, 44, 96
4, 133888, Note_off_c, 2, 44, 0
4, 133888, Note_on_c, 2, 45, 96
4, 134144, Note_off_c, 2, 45, 0
4, 134144, Note_on_c, 2, 47, 96
4, 134656, Note_off_c, 2, 47, 0
4, 134656, Note_on_c, 2, 44, 96
4, 135168, Note_off_c, 2, 44, 0
4, 135168, Note_on_c, 2, 40, 96
4, 136192, Note_off_c, 2, 40, 0
4, 136704, Note_on_c, 2, 52, 96
4, 137728, Note_off_c, 2, 52, 0
4, 138240, Note_on_c, 2, 45, 96
4, 138752, Note_off_c, 2, 45, 0
4, 138752, Note_on_c, 2, 48, 96
4, 139264, Note_off_c, 2, 48, 0
4, 139264, Note_on_c, 2, 52, 96
4, 139776, Note_off_c, 2, 52, 0
4, 139776, Note_on_c, 2, 57, 96
4, 141568, Note_off_c, 2, 57, 0
4, 141568, Note_on_c, 2, 59, 96
4, 141824, Note_off_c, 2, 59, 0
4, 141824, Note_on_c, 2, 60, 96
4, 142336, Note_off_c, 2, 60, 0
4, 142336, Note_on_c, 2, 57, 96
4, 142848, Note_off_c, 2, 57, 0
4, 142848, Note_on_c, 2, 54, 96
4, 143104, Note_off_c, 2, 54, 0
4, 143104, Note_on_c, 2, 55, 96
4, 143360, Note_off_c, 2, 55, 0
4, 143360, Note_on_c, 2, 57, 96
4, 143872, Note_off_c, 2, 57, 0
4, 143872, Note_on_c, 2, 54, 96
4, 144384, Note_off_c, 2, 54, 0
4, 144384, Note_on_c, 2, 51, 96
4, 145408, Note_off_c, 2, 51, 0
4, 145920, Note_on_c, 2, 47, 96
4, 146944, Note_off_c, 2, 47, 0
4, 147456, Note_on_c, 2, 40, 96
4, 147968, Note_off_c, 2, 40, 0
4, 147968, Note_on_c, 2, 43, 96
4, 148480, Note_off_c, 2, 43, 0
4, 148480, Note_on_c, 2, 47, 96
4, 148992, Note_off_c, 2, 47, 0
4, 148992, Note_on_c, 2, 52, 96
4, 150784, Note_off_c, 2, 52, 0
4, 150784, Note_on_c, 2, 54, 96
4, 151040, Note_off_c, 2, 54, 0
4, 151040, Note_on_c, 2, 55, 96
4, 151552, Note_off_c, 2, 55, 0
4, 151552, Note_on_c, 2, 52, 96
4, 152064, Note_off_c, 2, 52, 0
4, 152064, Note_on_c, 2, 57, 96
4, 152320, Note_off_c, 2, 57, 0
4, 152320, Note_on_c, 2, 59, 96
4, 152576, Note_off_c, 2, 59, 0
4, 152576, Note_on_c, 2, 60, 96
4, 153088, Note_off_c, 2, 60, 0
4, 153088, Note_on_c, 2, 57, 96
4, 153600, Note_off_c, 2, 57, 0
4, 153600, Note_on_c, 2, 45, 96
4, 154112, Note_off_c, 2, 45, 0
4, 154112, Note_on_c, 2, 48, 96
4, 154624, Note_off_c, 2, 48, 0
4, 154624, Note_on_c, 2, 53, 96
4, 155136, Note_off_c, 2, 53, 0
4, 155136, Note_on_c, 2, 57, 96
4, 155648, Note_off_c, 2, 57, 0
4, 155648, Note_on_c, 2, 55, 96
4, 156160, Note_off_c, 2, 55, 0
4, 156160, Note_on_c, 2, 57, 96
4, 156672, Note_off_c, 2, 57, 0
4, 156672, Note_on_c, 2, 47, 96
4, 157184, Note_off_c, 2, 47, 0
4, 157184, Note_on_c, 2, 51, 96
4, 157696, Note_off_c, 2, 51, 0
4, 157696, Note_on_c, 2, 54, 96
4, 158208, Note_off_c, 2, 54, 0
4, 158208, Note_on_c, 2, 57, 96
4, 160256, Note_off_c, 2, 57, 0
4, 160256, Note_on_c, 2, 54, 96
4, 160768, Note_off_c, 2, 54, 0
4, 160768, Note_on_c, 2, 51, 96
4, 161280, Note_off_c, 2, 51, 0
4, 161280, Note_on_c, 2, 47, 96
4, 161792, Note_off_c, 2, 47, 0
4, 161792, Note_on_c, 2, 52, 96
4, 162304, Note_off_c, 2, 52, 0
4, 162304, Note_on_c, 2, 55, 96
4, 162816, Note_off_c, 2, 55, 0
4, 162816, Note_on_c, 2, 59, 96
4, 164864, Note_off_c, 2, 59, 0
4, 164864, Note_on_c, 2, 55, 96
4, 165376, Note_off_c, 2, 55, 0
4, 165376, Note_on_c, 2, 52, 96
4, 165888, Note_off_c, 2, 52, 0
4, 165888, Note_on_c, 2, 49, 96
4, 166912, Note_off_c, 2, 49, 0
4, 167424, Note_on_c, 2, 51, 96
4, 168448, Note_off_c, 2, 51, 0
4, 168960, Note_on_c, 2, 52, 96
4, 169472, Note_off_c, 2, 52, 0
4, 169472, Note_on_c, 2, 45, 96
4, 169984, Note_off_c, 2, 45, 0
4, 169984, Note_on_c, 2, 47, 96
4, 170496, Note_off_c, 2, 47, 0
4, 170496, Note_on_c, 2, 40, 96
4, 171008, Note_off_c, 2, 40, 0
4, 171008, Note_on_c, 2, 43, 96
4, 171520, Note_off_c, 2, 43, 0
4, 171520, Note_on_c, 2, 47, 96
4, 172032, Note_off_c, 2, 47, 0
4, 172032, Note_on_c, 2, 52, 96
4, 172288, Note_off_c, 2, 52, 0
4, 172288, Note_on_c, 2, 54, 96
4, 172544, Note_off_c, 2, 54, 0
4, 172544, Note_on_c, 2, 55, 96
4, 173056, Note_off_c, 2, 55, 0
4, 173056, Note_on_c, 2, 52, 96
4, 173568, Note_off_c, 2, 52, 0
4, 173568, Note_on_c, 2, 48, 96
4, 173824, Note_off_c, 2, 48, 0
4, 173824, Note_on_c, 2, 50, 96
4, 174080, Note_off_c, 2, 50, 0
4, 174080, Note_on_c, 2, 52, 96
4, 174592, Note_off_c, 2, 52, 0
4, 174592, Note_on_c, 2, 48, 96
4, 175104, Note_off_c, 2, 48, 0
4, 175104, Note_on_c, 2, 45, 96
4, 175616, Note_off_c, 2, 45, 0
4, 175616, Note_on_c, 2, 48, 96
4, 176128, Note_off_c, 2, 48, 0
4, 176128, Note_on_c, 2, 52, 96
4, 176640, Note_off_c, 2, 52, 0
4, 176640, Note_on_c, 2, 57, 96
4, 178688, Note_off_c, 2, 57, 0
4, 178688, Note_on_c, 2, 55, 96
4, 179200, Note_off_c, 2, 55, 0
4, 179200, Note_on_c, 2, 57, 96
4, 179712, Note_off_c, 2, 57, 0
4, 179712, Note_on_c, 2, 50, 96
4, 180224, Note_off_c, 2, 50, 0
4, 180224, Note_on_c, 2, 54, 96
4, 180736, Note_off_c, 2, 54, 0
4, 180736, Note_on_c, 2, 57, 96
4, 181248, Note_off_c, 2, 57, 0
4, 181248, Note_on_c, 2, 62, 96
4, 183296, Note_off_c, 2, 62, 0
4, 183296, Note_on_c, 2, 60, 96
4, 183808, Note_off_c, 2, 60, 0
4, 183808, Note_on_c, 2, 62, 96
4, 184320, Note_off_c, 2, 62, 0
4, 184320, Note_on_c, 2, 55, 96
4, 184832, Note_off_c, 2, 55, 0
4, 184832, Note_on_c, 2, 50, 96
4, 185344, Note_off_c, 2, 50, 0
4, 185344, Note_on_c, 2, 47, 96
4, 185856, Note_off_c, 2, 47, 0
4, 185856, Note_on_c, 2, 43, 96
4, 187904, Note_off_c, 2, 43, 0
4, 187904, Note_on_c, 2, 47, 96
4, 188416, Note_off_c, 2, 47, 0
4, 188416, Note_on_c, 2, 45, 96
4, 188928, Note_off_c, 2, 45, 0
4, 188928, Note_on_c, 2, 47, 96
4, 189440, Note_off_c, 2, 47, 0
4, 189440, Note_on_c, 2, 48, 96
4, 189952, Note_off_c, 2, 48, 0
4, 189952, Note_on_c, 2, 50, 96
4, 190464, Note_off_c, 2, 50, 0
4, 190464, Note_on_c, 2, 52, 96
4, 190976, Note_off_c, 2, 52, 0
4, 190976, Note_on_c, 2, 55, 96
4, 191488, Note_off_c, 2, 55, 0
4, 191488, Note_on_c, 2, 59, 96
4, 192000, Note_off_c, 2, 59, 0
4, 192000, Note_on_c, 2, 64, 96
4, 192512, Note_off_c, 2, 64, 0
4, 192512, Note_on_c, 2, 62, 96
4, 193024, Note_off_c, 2, 62, 0
4, 193024, Note_on_c, 2, 60, 96
4, 193536, Note_off_c, 2, 60, 0
4, 193536, Note_on_c, 2, 62, 96
4, 194560, Note_off_c, 2, 62, 0
4, 195072, Note_on_c, 2, 59, 96
4, 196096, Note_off_c, 2, 59, 0
4, 196608, Note_on_c, 2, 55, 96
4, 198656, Note_off_c, 2, 55, 0
4, 198656, Note_on_c, 2, 54, 96
4, 199168, Note_off_c, 2, 54, 0
4, 199168, Note_on_c, 2, 52, 96
4, 199680, Note_off_c, 2, 52, 0
4, 199680, Note_on_c, 2, 54, 96
4, 200192, Note_off_c, 2, 54, 0
4, 200192, Note_on_c, 2, 52, 96
4, 200704, Note_off_c, 2, 52, 0
4, 200704, Note_on_c, 2, 50, 96
4, 201216, Note_off_c, 2, 50, 0
4, 201216, Note_on_c, 2, 52, 96
4, 201728, Note_off_c, 2, 52, 0
4, 201728, Note_on_c, 2, 50, 96
4, 202240, Note_off_c, 2, 50, 0
4, 202240, Note_on_c, 2, 49, 96
4, 202752, Note_off_c, 2, 49, 0
4, 202752, Note_on_c, 2, 50, 96
4, 203776, Note_off_c, 2, 50, 0
4, 204288, Note_on_c, 2, 42, 96
4, 205312, Note_off_c, 2, 42, 0
4, 205824, Note_on_c, 2, 43, 96
4, 206848, Note_off_c, 2, 43, 0
4, 207360, Note_on_c, 2, 57, 96
4, 207616, Note_off_c, 2, 57, 0
4, 207616, Note_on_c, 2, 59, 96
4, 207872, Note_off_c, 2, 59, 0
4, 207872, Note_on_c, 2, 61, 96
4, 208384, Note_off_c, 2, 61, 0
4, 208384, Note_on_c, 2, 57, 96
4, 208896, Note_off_c, 2, 57, 0
4, 208896, Note_on_c, 2, 52, 96
4, 209152, Note_off_c, 2, 52, 0
4, 209152, Note_on_c, 2, 54, 96
4, 209408, Note_off_c, 2, 54, 0
4, 209408, Note_on_c, 2, 55, 96
4, 209920, Note_off_c, 2, 55, 0
4, 209920, Note_on_c, 2, 52, 96
4, 210432, Note_off_c, 2, 52, 0
4, 210432, Note_on_c, 2, 49, 96
4, 210688, Note_off_c, 2, 49, 0
4, 210688, Note_on_c, 2, 50, 96
4, 210944, Note_off_c, 2, 50, 0
4, 210944, Note_on_c, 2, 52, 96
4, 211456, Note_off_c, 2, 52, 0
4, 211456, Note_on_c, 2, 49, 96
4, 211968, Note_off_c, 2, 49, 0
4, 211968, Note_on_c, 2, 45, 96
4, 212480, Note_off_c, 2, 45, 0
4, 212480, Note_on_c, 2, 49, 96
4, 212992, Note_off_c, 2, 49, 0
4, 212992, Note_on_c, 2, 52, 96
4, 213504, Note_off_c, 2, 52, 0
4, 213504, Note_on_c, 2, 49, 96
4, 215552, Note_off_c, 2, 49, 0
4, 215552, Note_on_c, 2, 50, 96
4, 216064, Note_off_c, 2, 50, 0
4, 216064, Note_on_c, 2, 52, 96
4, 216576, Note_off_c, 2, 52, 0
4, 216576, Note_on_c, 2, 45, 96
4, 217088, Note_off_c, 2, 45, 0
4, 217088, Note_on_c, 2, 50, 96
4, 217600, Note_off_c, 2, 50, 0
4, 217600, Note_on_c, 2, 54, 96
4, 218112, Note_off_c, 2, 54, 0
4, 218112, Note_on_c, 2, 50, 96
4, 220160, Note_off_c, 2, 50, 0
4, 220160, Note_on_c, 2, 52, 96
4, 220672, Note_off_c, 2, 52, 0
4, 220672, Note_on_c, 2, 54, 96
4, 221184, Note_off_c, 2, 54, 0
4, 221184, Note_on_c, 2, 47, 96
4, 222208, Note_off_c, 2, 47, 0
4, 222720, Note_on_c, 2, 49, 96
4, 223744, Note_off_c, 2, 49, 0
4, 224256, Note_on_c, 2, 50, 96
4, 224768, Note_off_c, 2, 50, 0
4, 224768, Note_on_c, 2, 43, 96
4, 225280, Note_off_c, 2, 43, 0
4, 225280, Note_on_c, 2, 45, 96
4, 225792, Note_off_c, 2, 45, 0
4, 225792, Note_on_c, 2, 38, 96
4, 226304, Note_off_c, 2, 38, 0
4, 226304, Note_on_c, 2, 42, 96
4, 226816, Note_off_c, 2, 42, 0
4, 226816, Note_on_c, 2, 45, 96
4, 227328, Note_off_c, 2, 45, 0
4, 227328, Note_on_c, 2, 50, 96
4, 229376, Note_off_c, 2, 50, 0
4, 229376, Note_on_c, 2, 52, 96
4, 229888, Note_off_c, 2, 52, 0
4, 229888, Note_on_c, 2, 54, 96
4, 230400, Note_off_c, 2, 54, 0
4, 230400, Note_on_c, 2, 55, 96
4, 230656, Note_off_c, 2, 55, 0
4, 230656, Note_on_c, 2, 57, 96
4, 230912, Note_off_c, 2, 57, 0
4, 230912, Note_on_c, 2, 59, 96
4, 231424, Note_off_c, 2, 59, 0
4, 231424, Note_on_c, 2, 57, 96
4, 231936, Note_off_c, 2, 57, 0
4, 231936, Note_on_c, 2, 55, 96
4, 232448, Note_off_c, 2, 55, 0
4, 232448, Note_on_c, 2, 54, 96
4, 232960, Note_off_c, 2, 54, 0
4, 232960, Note_on_c, 2, 52, 96
4, 233472, Note_off_c, 2, 52, 0
4, 233472, Note_on_c, 2, 51, 96
4, 233984, Note_off_c, 2, 51, 0
4, 233984, Note_on_c, 2, 49, 96
4, 234496, Note_off_c, 2, 49, 0
4, 234496, Note_on_c, 2, 47, 96
4, 235008, Note_off_c, 2, 47, 0
4, 235008, Note_on_c, 2, 48, 96
4, 236032, Note_off_c, 2, 48, 0
4, 236544, Note_on_c, 2, 50, 96
4, 237568, Note_off_c, 2, 50, 0
4, 238080, Note_on_c, 2, 55, 96
4, 238592, Note_off_c, 2, 55, 0
4, 238592, Note_on_c, 2, 57, 96
4, 239104, Note_off_c, 2, 57, 0
4, 239104, Note_on_c, 2, 59, 96
4, 239616, Note_off_c, 2, 59, 0
4, 239616, Note_on_c, 2, 60, 96
4, 240128, Note_off_c, 2, 60, 0
4, 240128, Note_on_c, 2, 59, 96
4, 240640, Note_off_c, 2, 59, 0
4, 240640, Note_on_c, 2, 57, 96
4, 241152, Note_off_c, 2, 57, 0
4, 241152, Note_on_c, 2, 62, 96
4, 242176, Note_off_c, 2, 62, 0
4, 242688, Note_on_c, 2, 50, 96
4, 243712, Note_off_c, 2, 50, 0
4, 244224, Note_on_c, 2, 55, 96
4, 245248, Note_off_c, 2, 55, 0
4, 245760, Note_on_c, 2, 52, 96
4, 246784, Note_off_c, 2, 52, 0
4, 247296, Note_on_c, 2, 48, 96
4, 248320, Note_off_c, 2, 48, 0
4, 248832, Note_on_c, 2, 60, 96
4, 249344, Note_off_c, 2, 60, 0
4, 249344, Note_on_c, 2, 59, 96
4, 249856, Note_off_c, 2, 59, 0
4, 249856, Note_on_c, 2, 57, 96
4, 250368, Note_off_c, 2, 57, 0
4, 250368, Note_on_c, 2, 59, 96
4, 250880, Note_off_c, 2, 59, 0
4, 250880, Note_on_c, 2, 57, 96
4, 251392, Note_off_c, 2, 57, 0
4, 251392, Note_on_c, 2, 55, 96
4, 251904, Note_off_c, 2, 55, 0
4, 251904, Note_on_c, 2, 57, 96
4, 252416, Note_off_c, 2, 57, 0
4, 252416, Note_on_c, 2, 55, 96
4, 252928, Note_off_c, 2, 55, 0
4, 252928, Note_on_c, 2, 54, 96
4, 253440, Note_off_c, 2, 54, 0
4, 253440, Note_on_c, 2, 55, 96
4, 254464, Note_off_c, 2, 55, 0
4, 254976, Note_on_c, 2, 47, 96
4, 256000, Note_off_c, 2, 47, 0
4, 256512, Note_on_c, 2, 48, 96
4, 257024, Note_off_c, 2, 48, 0
4, 257024, Note_on_c, 2, 45, 96
4, 257536, Note_off_c, 2, 45, 0
4, 257536, Note_on_c, 2, 48, 96
4, 258048, Note_off_c, 2, 48, 0
4, 258048, Note_on_c, 2, 50, 96
4, 259840, Note_off_c, 2, 50, 0
4, 259840, Note_on_c, 2, 52, 96
4, 260096, Note_off_c, 2, 52, 0
4, 260096, Note_on_c, 2, 54, 96
4, 260608, Note_off_c, 2, 54, 0
4, 260608, Note_on_c, 2, 50, 96
4, 261120, Note_off_c, 2, 50, 0
4, 261120, Note_on_c, 2, 47, 96
4, 261376, Note_off_c, 2, 47, 0
4, 261376, Note_on_c, 2, 48, 96
4, 261632, Note_off_c, 2, 48, 0
4, 261632, Note_on_c, 2, 50, 96
4, 262144, Note_off_c, 2, 50, 0
4, 262144, Note_on_c, 2, 47, 96
4, 262656, Note_off_c, 2, 47, 0
4, 262656, Note_on_c, 2, 44, 96
4, 262912, Note_off_c, 2, 44, 0
4, 262912, Note_on_c, 2, 45, 96
4, 263168, Note_off_c, 2, 45, 0
4, 263168, Note_on_c, 2, 47, 96
4, 263680, Note_off_c, 2, 47, 0
4, 263680, Note_on_c, 2, 44, 96
4, 264192, Note_off_c, 2, 44, 0
4, 264192, Note_on_c, 2, 40, 96
4, 265216, Note_off_c, 2, 40, 0
4, 265728, Note_on_c, 2, 52, 96
4, 266752, Note_off_c, 2, 52, 0
4, 267264, Note_on_c, 2, 45, 96
4, 267776, Note_off_c, 2, 45, 0
4, 267776, Note_on_c, 2, 48, 96
4, 268288, Note_off_c, 2, 48, 0
4, 268288, Note_on_c, 2, 52, 96
4, 268800, Note_off_c, 2, 52, 0
4, 268800, Note_on_c, 2, 57, 96
4, 270592, Note_off_c, 2, 57, 0
4, 270592, Note_on_c, 2, 59, 96
4, 270848, Note_off_c, 2, 59, 0
4, 270848, Note_on_c, 2, 60, 96
4, 271360, Note_off_c, 2, 60, 0
4, 271360, Note_on_c, 2, 57, 96
4, 271872, Note_off_c, 2, 57, 0
4, 271872, Note_on_c, 2, 54, 96
4, 272128, Note_off_c, 2, 54, 0
4, 272128, Note_on_c, 2, 55, 96
4, 272384, Note_off_c, 2, 55, 0
4, 272384, Note_on_c, 2, 57, 96
4, 272896, Note_off_c, 2, 57, 0
4, 272896, Note_on_c, 2, 54, 96
4, 273408, Note_off_c, 2, 54, 0
4, 273408, Note_on_c, 2, 50, 96
4, 274432, Note_off_c, 2, 50, 0
4, 274944, Note_on_c, 2, 38, 96
4, 275968, Note_off_c, 2, 38, 0
4, 276480, Note_on_c, 2, 43, 96
4, 276992, Note_off_c, 2, 43, 0
4, 276992, Note_on_c, 2, 47, 96
4, 277504, Note_off_c, 2, 47, 0
4, 277504, Note_on_c, 2, 50, 96
4, 278016, Note_off_c, 2, 50, 0
4, 278016, Note_on_c, 2, 55, 96
4, 279808, Note_off_c, 2, 55, 0
4, 279808, Note_on_c, 2, 57, 96
4, 280064, Note_off_c, 2, 57, 0
4, 280064, Note_on_c, 2, 59, 96
4, 280576, Note_off_c, 2, 59, 0
4, 280576, Note_on_c, 2, 55, 96
4, 281088, Note_off_c, 2, 55, 0
4, 281088, Note_on_c, 2, 48, 96
4, 281344, Note_off_c, 2, 48, 0
4, 281344, Note_on_c, 2, 50, 96
4, 281600, Note_off_c, 2, 50, 0
4, 281600, Note_on_c, 2, 52, 96
4, 282112, Note_off_c, 2, 52, 0
4, 282112, Note_on_c, 2, 48, 96
4, 282624, Note_off_c, 2, 48, 0
4, 282624, Note_on_c, 2, 45, 96
4, 283136, Note_off_c, 2, 45, 0
4, 283136, Note_on_c, 2, 48, 96
4, 283648, Note_off_c, 2, 48, 0
4, 283648, Note_on_c, 2, 52, 96
4, 284160, Note_off_c, 2, 52, 0
4, 284160, Note_on_c, 2, 57, 96
4, 284672, Note_off_c, 2, 57, 0
4, 284672, Note_on_c, 2, 55, 96
4, 285184, Note_off_c, 2, 55, 0
4, 285184, Note_on_c, 2, 57, 96
4, 285696, Note_off_c, 2, 57, 0
4, 285696, Note_on_c, 2, 50, 96
4, 286208, Note_off_c, 2, 50, 0
4, 286208, Note_on_c, 2, 54, 96
4, 286720, Note_off_c, 2, 54, 0
4, 286720, Note_on_c, 2, 57, 96
4, 287232, Note_off_c, 2, 57, 0
4, 287232, Note_on_c, 2, 54, 96
4, 289280, Note_off_c, 2, 54, 0
4, 289280, Note_on_c, 2, 55, 96
4, 289792, Note_off_c, 2, 55, 0
4, 289792, Note_on_c, 2, 57, 96
4, 290304, Note_off_c, 2, 57, 0
4, 290304, Note_on_c, 2, 50, 96
4, 290816, Note_off_c, 2, 50, 0
4, 290816, Note_on_c, 2, 55, 96
4, 291328, Note_off_c, 2, 55, 0
4, 291328, Note_on_c, 2, 59, 96
4, 291840, Note_off_c, 2, 59, 0
4, 291840, Note_on_c, 2, 55, 96
4, 293888, Note_off_c, 2, 55, 0
4, 293888, Note_on_c, 2, 57, 96
4, 294400, Note_off_c, 2, 57, 0
4, 294400, Note_on_c, 2, 59, 96
4, 294912, Note_off_c, 2, 59, 0
4, 294912, Note_on_c, 2, 52, 96
4, 295936, Note_off_c, 2, 52, 0
4, 296448, Note_on_c, 2, 54, 96
4, 297472, Note_off_c, 2, 54, 0
4, 297984, Note_on_c, 2, 55, 96
4, 298496, Note_off_c, 2, 55, 0
4, 298496, Note_on_c, 2, 48, 96
4, 299008, Note_off_c, 2, 48, 0
4, 299008, Note_on_c, 2, 50, 96
4, 299520, Note_off_c, 2, 50, 0
4, 299520, Note_on_c, 2, 43, 96
4, 304128, Note_off_c, 2, 43, 0
4, 304129, End_track
0, 0, End_of_file
