0, 0, Header, 1, 4, 384
1, 0, Start_track
1, 0, Tempo, 857140
1, 0, Time_signature, 4, 2, 24, 8
1, 28416, Tempo, 923070
1, 35328, Tempo, 1000000
1, 36864, Time_signature, 3, 2, 24, 8
1, 36864, Tempo, 461530
1, 163584, Tempo, 480000
1, 164736, Tempo, 500000
1, 165120, Tempo, 631570
1, 165888, Tempo, 1000000
1, 167040, End_track
2, 0, Start_track
2, 0, Title_t, "Track 1"
2, 0, Program_c, 0, 19
2, 0, Note_on_c, 0, 66, 92
2, 192, Note_on_c, 0, 78, 92
2, 288, Note_off_c, 0, 78, 64
2, 288, Note_on_c, 0, 76, 92
2, 384, Note_off_c, 0, 76, 64
2, 384, Note_off_c, 0, 66, 64
2, 384, Note_on_c, 0, 78, 92
2, 576, Note_off_c, 0, 78, 64
2, 576, Note_on_c, 0, 74, 92
2, 672, Note_off_c, 0, 74, 64
2, 672, Note_on_c, 0, 73, 92
2, 768, Note_off_c, 0, 73, 64
2, 768, Note_on_c, 0, 74, 92
2, 960, Note_off_c, 0, 74, 64
2, 960, Note_on_c, 0, 71, 92
2, 1152, Note_off_c, 0, 71, 64
2, 1152, Note_on_c, 0, 76, 92
2, 1728, Note_off_c, 0, 76, 64
2, 1728, Note_on_c, 0, 74, 92
2, 1824, Note_off_c, 0, 74, 64
2, 1824, Note_on_c, 0, 73, 92
2, 1920, Note_off_c, 0, 73, 64
2, 1920, Note_on_c, 0, 74, 92
2, 2496, Note_off_c, 0, 74, 64
2, 2496, Note_on_c, 0, 73, 92
2, 2592, Note_off_c, 0, 73, 64
2, 2592, Note_on_c, 0, 71, 92
2, 2688, Note_off_c, 0, 71, 64
2, 2688, Note_on_c, 0, 70, 92
2, 2688, Note_on_c, 0, 73, 92
2, 2880, Note_off_c, 0, 73, 64
2, 2880, Note_on_c, 0, 74, 92
2, 2976, Note_off_c, 0, 74, 64
2, 2976, Note_on_c, 0, 76, 92
2, 3072, Note_off_c, 0, 76, 64
2, 3072, Note_off_c, 0, 70, 64
2, 3072, Note_on_c, 0, 71, 92
2, 3072, Note_on_c, 0, 74, 92
2, 3456, Note_off_c, 0, 74, 64
2, 3456, Note_off_c, 0, 71, 64
2, 4032, Note_on_c, 0, 66, 92
2, 4128, Note_off_c, 0, 66, 64
2, 4128, Note_on_c, 0, 64, 92
2, 4224, Note_off_c, 0, 64, 64
2, 4224, Note_on_c, 0, 66, 92
2, 4416, Note_off_c, 0, 66, 64
2, 4416, Note_on_c, 0, 67, 92
2, 4512, Note_off_c, 0, 67, 64
2, 4512, Note_on_c, 0, 69, 92
2, 4608, Note_off_c, 0, 69, 64
2, 4608, Note_on_c, 0, 71, 92
2, 5184, Note_on_c, 0, 76, 92
2, 5280, Note_off_c, 0, 76, 64
2, 5280, Note_on_c, 0, 78, 92
2, 5376, Note_off_c, 0, 78, 64
2, 5376, Note_on_c, 0, 79, 92
2, 5568, Note_off_c, 0, 79, 64
2, 5568, Note_off_c, 0, 71, 64
2, 5568, Note_on_c, 0, 71, 92
2, 5664, Note_on_c, 0, 73, 92
2, 5760, Note_off_c, 0, 73, 64
2, 5760, Note_on_c, 0, 74, 92
2, 5952, Note_off_c, 0, 74, 64
2, 5952, Note_on_c, 0, 73, 92
2, 6048, Note_off_c, 0, 73, 64
2, 6048, Note_off_c, 0, 71, 64
2, 6048, Note_on_c, 0, 71, 92
2, 6144, Note_on_c, 0, 73, 92
2, 6336, Note_off_c, 0, 71, 64
2, 6336, Note_on_c, 0, 69, 92
2, 6432, Note_off_c, 0, 69, 64
2, 6432, Note_on_c, 0, 68, 92
2, 6528, Note_off_c, 0, 68, 64
2, 6528, Note_on_c, 0, 69, 92
2, 7680, Note_off_c, 0, 69, 64
2, 7872, Note_off_c, 0, 73, 64
2, 7872, Note_on_c, 0, 71, 92
2, 7968, Note_off_c, 0, 71, 64
2, 7968, Note_on_c, 0, 70, 92
2, 8064, Note_off_c, 0, 70, 64
2, 8064, Note_on_c, 0, 71, 92
2, 8256, Note_on_c, 0, 68, 92
2, 8352, Note_off_c, 0, 68, 64
2, 8352, Note_on_c, 0, 66, 92
2, 8448, Note_off_c, 0, 66, 64
2, 8448, Note_on_c, 0, 68, 92
2, 9408, Note_off_c, 0, 71, 64
2, 9408, Note_on_c, 0, 74, 92
2, 9504, Note_off_c, 0, 74, 64
2, 9504, Note_on_c, 0, 73, 92
2, 9600, Note_off_c, 0, 73, 64
2, 9600, Note_on_c, 0, 80, 92
2, 9792, Note_off_c, 0, 68, 64
2, 9792, Note_on_c, 0, 69, 92
2, 9888, Note_off_c, 0, 69, 64
2, 9888, Note_on_c, 0, 71, 92
2, 9984, Note_off_c, 0, 71, 64
2, 9984, Note_on_c, 0, 69, 92
2, 10176, Note_off_c, 0, 80, 64
2, 10176, Note_on_c, 0, 78, 92
2, 10272, Note_off_c, 0, 78, 64
2, 10272, Note_on_c, 0, 80, 92
2, 10368, Note_off_c, 0, 80, 64
2, 10368, Note_off_c, 0, 69, 64
2, 10368, Note_on_c, 0, 81, 92
2, 10560, Note_on_c, 0, 71, 92
2, 10656, Note_off_c, 0, 71, 64
2, 10656, Note_on_c, 0, 73, 92
2, 10752, Note_off_c, 0, 73, 64
2, 10752, Note_off_c, 0, 81, 64
2, 10752, Note_on_c, 0, 74, 92
2, 10944, Note_on_c, 0, 80, 92
2, 11040, Note_off_c, 0, 80, 64
2, 11040, Note_on_c, 0, 81, 92
2, 11136, Note_off_c, 0, 81, 64
2, 11136, Note_on_c, 0, 83, 92
2, 11328, Note_off_c, 0, 83, 64
2, 11328, Note_on_c, 0, 80, 92
2, 11424, Note_off_c, 0, 80, 64
2, 11424, Note_on_c, 0, 78, 92
2, 11520, Note_off_c, 0, 78, 64
2, 11520, Note_off_c, 0, 74, 64
2, 11520, Note_on_c, 0, 77, 92
2, 11712, Note_on_c, 0, 74, 92
2, 11808, Note_off_c, 0, 74, 64
2, 11808, Note_on_c, 0, 73, 92
2, 11904, Note_off_c, 0, 73, 64
2, 11904, Note_on_c, 0, 71, 92
2, 12192, Note_off_c, 0, 71, 64
2, 12192, Note_off_c, 0, 77, 64
2, 12192, Note_on_c, 0, 69, 92
2, 12192, Note_on_c, 0, 78, 92
2, 12288, Note_off_c, 0, 78, 64
2, 12288, Note_off_c, 0, 69, 64
2, 12288, Note_on_c, 0, 68, 92
2, 12288, Note_on_c, 0, 80, 92
2, 12480, Note_off_c, 0, 80, 64
2, 12480, Note_on_c, 0, 73, 92
2, 12576, Note_off_c, 0, 73, 64
2, 12576, Note_on_c, 0, 71, 92
2, 12672, Note_off_c, 0, 71, 64
2, 12672, Note_on_c, 0, 74, 92
2, 12864, Note_off_c, 0, 74, 64
2, 12864, Note_on_c, 0, 73, 92
2, 12960, Note_off_c, 0, 73, 64
2, 12960, Note_on_c, 0, 71, 92
2, 13056, Note_off_c, 0, 71, 64
2, 13056, Note_off_c, 0, 68, 64
2, 13056, Note_on_c, 0, 69, 92
2, 13248, Note_on_c, 0, 62, 92
2, 13344, Note_off_c, 0, 62, 64
2, 13344, Note_on_c, 0, 61, 92
2, 13440, Note_off_c, 0, 61, 64
2, 13440, Note_on_c, 0, 66, 92
2, 13632, Note_off_c, 0, 66, 64
2, 13632, Note_on_c, 0, 62, 92
2, 13728, Note_off_c, 0, 62, 64
2, 13728, Note_on_c, 0, 61, 92
2, 13824, Note_off_c, 0, 61, 64
2, 13824, Note_on_c, 0, 59, 92
2, 14016, Note_off_c, 0, 69, 64
2, 14016, Note_on_c, 0, 71, 92
2, 14112, Note_off_c, 0, 71, 64
2, 14112, Note_on_c, 0, 69, 92
2, 14208, Note_off_c, 0, 69, 64
2, 14208, Note_on_c, 0, 67, 92
2, 14400, Note_off_c, 0, 59, 64
2, 14400, Note_on_c, 0, 64, 92
2, 14496, Note_off_c, 0, 64, 64
2, 14496, Note_on_c, 0, 62, 92
2, 14592, Note_off_c, 0, 62, 64
2, 14592, Note_on_c, 0, 61, 92
2, 14784, Note_off_c, 0, 67, 64
2, 14784, Note_on_c, 0, 69, 92
2, 14880, Note_off_c, 0, 69, 64
2, 14880, Note_on_c, 0, 67, 92
2, 14976, Note_off_c, 0, 67, 64
2, 14976, Note_off_c, 0, 61, 64
2, 14976, Note_on_c, 0, 62, 92
2, 14976, Note_on_c, 0, 66, 92
2, 15360, Note_off_c, 0, 66, 64
2, 15360, Note_on_c, 0, 64, 92
2, 15552, Note_off_c, 0, 64, 64
2, 15552, Note_on_c, 0, 66, 92
2, 15648, Note_off_c, 0, 66, 64
2, 15648, Note_on_c, 0, 67, 92
2, 15744, Note_off_c, 0, 67, 64
2, 15744, Note_off_c, 0, 62, 64
2, 15744, Note_on_c, 0, 60, 92
2, 15744, Note_on_c, 0, 69, 92
2, 15936, Note_off_c, 0, 69, 64
2, 15936, Note_off_c, 0, 60, 64
2, 15936, Note_on_c, 0, 72, 92
2, 15936, Note_on_c, 0, 57, 92
2, 16128, Note_off_c, 0, 57, 64
2, 16128, Note_on_c, 0, 66, 92
2, 16320, Note_off_c, 0, 66, 64
2, 16320, Note_on_c, 0, 64, 92
2, 16416, Note_off_c, 0, 64, 64
2, 16416, Note_on_c, 0, 66, 92
2, 16512, Note_off_c, 0, 66, 64
2, 16512, Note_off_c, 0, 72, 64
2, 16512, Note_on_c, 0, 67, 92
2, 16512, Note_on_c, 0, 71, 92
2, 16608, Note_off_c, 0, 67, 64
2, 16608, Note_on_c, 0, 69, 92
2, 16704, Note_off_c, 0, 69, 64
2, 16704, Note_on_c, 0, 66, 92
2, 16800, Note_off_c, 0, 66, 64
2, 16800, Note_on_c, 0, 67, 92
2, 16896, Note_off_c, 0, 67, 64
2, 16896, Note_on_c, 0, 64, 92
2, 17088, Note_off_c, 0, 71, 64
2, 17088, Note_on_c, 0, 72, 92
2, 17184, Note_off_c, 0, 72, 64
2, 17184, Note_on_c, 0, 71, 92
2, 17280, Note_off_c, 0, 71, 64
2, 17280, Note_on_c, 0, 69, 92
2, 17472, Note_off_c, 0, 69, 64
2, 17472, Note_off_c, 0, 64, 64
2, 17472, Note_on_c, 0, 76, 92
2, 17472, Note_on_c, 0, 69, 92
2, 17568, Note_off_c, 0, 69, 64
2, 17568, Note_on_c, 0, 67, 92
2, 17664, Note_off_c, 0, 67, 64
2, 17664, Note_on_c, 0, 66, 92
2, 17856, Note_off_c, 0, 76, 64
2, 17856, Note_on_c, 0, 74, 92
2, 17952, Note_off_c, 0, 74, 64
2, 17952, Note_on_c, 0, 73, 92
2, 18048, Note_off_c, 0, 73, 64
2, 18048, Note_on_c, 0, 74, 92
2, 18240, Note_off_c, 0, 66, 64
2, 18240, Note_on_c, 0, 71, 92
2, 18336, Note_off_c, 0, 71, 64
2, 18336, Note_on_c, 0, 69, 92
2, 18432, Note_off_c, 0, 69, 64
2, 18432, Note_on_c, 0, 67, 92
2, 19008, Note_off_c, 0, 74, 64
2, 19008, Note_on_c, 0, 73, 92
2, 19104, Note_off_c, 0, 73, 64
2, 19104, Note_on_c, 0, 71, 92
2, 19200, Note_off_c, 0, 71, 64
2, 19200, Note_off_c, 0, 67, 64
2, 19200, Note_on_c, 0, 68, 92
2, 19200, Note_on_c, 0, 73, 92
2, 19392, Note_off_c, 0, 73, 64
2, 19392, Note_on_c, 0, 74, 92
2, 19488, Note_off_c, 0, 74, 64
2, 19488, Note_on_c, 0, 73, 92
2, 19584, Note_off_c, 0, 73, 64
2, 19584, Note_on_c, 0, 71, 92
2, 19776, Note_off_c, 0, 71, 64
2, 19776, Note_on_c, 0, 69, 92
2, 19872, Note_off_c, 0, 69, 64
2, 19872, Note_off_c, 0, 68, 64
2, 19872, Note_on_c, 0, 68, 92
2, 19968, Note_off_c, 0, 68, 64
2, 19968, Note_on_c, 0, 69, 92
2, 20160, Note_on_c, 0, 66, 92
2, 20256, Note_off_c, 0, 66, 64
2, 20256, Note_on_c, 0, 64, 92
2, 20352, Note_off_c, 0, 64, 64
2, 20352, Note_off_c, 0, 69, 64
2, 20352, Note_on_c, 0, 73, 92
2, 20352, Note_on_c, 0, 67, 92
2, 20544, Note_off_c, 0, 67, 64
2, 20544, Note_on_c, 0, 66, 92
2, 20640, Note_off_c, 0, 66, 64
2, 20640, Note_on_c, 0, 64, 92
2, 20736, Note_off_c, 0, 64, 64
2, 20736, Note_off_c, 0, 73, 64
2, 20736, Note_on_c, 0, 62, 92
2, 20736, Note_on_c, 0, 66, 92
2, 21120, Note_off_c, 0, 66, 64
2, 21120, Note_off_c, 0, 62, 64
2, 21120, Note_on_c, 0, 69, 92
2, 21120, Note_on_c, 0, 63, 92
2, 21504, Note_off_c, 0, 63, 64
2, 21504, Note_on_c, 0, 64, 92
2, 21696, Note_off_c, 0, 69, 64
2, 21696, Note_on_c, 0, 67, 92
2, 21792, Note_off_c, 0, 67, 64
2, 21792, Note_on_c, 0, 66, 92
2, 21888, Note_off_c, 0, 66, 64
2, 21888, Note_off_c, 0, 64, 64
2, 21888, Note_on_c, 0, 67, 92
2, 22080, Note_off_c, 0, 67, 64
2, 22080, Note_on_c, 0, 64, 92
2, 22176, Note_off_c, 0, 64, 64
2, 22176, Note_on_c, 0, 63, 92
2, 22272, Note_off_c, 0, 63, 64
2, 22272, Note_on_c, 0, 59, 92
2, 22272, Note_on_c, 0, 64, 92
2, 22464, Note_off_c, 0, 64, 64
2, 22464, Note_off_c, 0, 59, 64
2, 23136, Note_on_c, 0, 79, 92
2, 23232, Note_off_c, 0, 79, 64
2, 23232, Note_on_c, 0, 83, 92
2, 23328, Note_off_c, 0, 83, 64
2, 23328, Note_on_c, 0, 71, 92
2, 23424, Note_off_c, 0, 71, 64
2, 23424, Note_on_c, 0, 76, 92
2, 23616, Note_off_c, 0, 76, 64
2, 23904, Note_on_c, 0, 76, 92
2, 24000, Note_off_c, 0, 76, 64
2, 24000, Note_on_c, 0, 78, 92
2, 24096, Note_off_c, 0, 78, 64
2, 24096, Note_on_c, 0, 80, 92
2, 24192, Note_off_c, 0, 80, 64
2, 24192, Note_on_c, 0, 81, 92
2, 24576, Note_off_c, 0, 81, 64
2, 24672, Note_on_c, 0, 76, 92
2, 24768, Note_off_c, 0, 76, 64
2, 24768, Note_on_c, 0, 79, 92
2, 24864, Note_off_c, 0, 79, 64
2, 24864, Note_on_c, 0, 67, 92
2, 24960, Note_off_c, 0, 67, 64
2, 24960, Note_on_c, 0, 71, 92
2, 25344, Note_off_c, 0, 71, 64
2, 25440, Note_on_c, 0, 66, 92
2, 25536, Note_off_c, 0, 66, 64
2, 25536, Note_on_c, 0, 69, 92
2, 25632, Note_off_c, 0, 69, 64
2, 25632, Note_on_c, 0, 72, 92
2, 25728, Note_off_c, 0, 72, 64
2, 25728, Note_on_c, 0, 63, 92
2, 26112, Note_off_c, 0, 63, 64
2, 26112, Note_on_c, 0, 64, 92
2, 26208, Note_off_c, 0, 64, 64
2, 26208, Note_on_c, 0, 67, 92
2, 26304, Note_off_c, 0, 67, 64
2, 26304, Note_on_c, 0, 66, 92
2, 26400, Note_off_c, 0, 66, 64
2, 26400, Note_on_c, 0, 69, 92
2, 26496, Note_off_c, 0, 69, 64
2, 26496, Note_on_c, 0, 67, 92
2, 26592, Note_off_c, 0, 67, 64
2, 26592, Note_on_c, 0, 64, 92
2, 26688, Note_off_c, 0, 64, 64
2, 26688, Note_on_c, 0, 71, 92
2, 26784, Note_off_c, 0, 71, 64
2, 26784, Note_on_c, 0, 69, 92
2, 26880, Note_off_c, 0, 69, 64
2, 26880, Note_on_c, 0, 67, 92
2, 26976, Note_off_c, 0, 67, 64
2, 26976, Note_on_c, 0, 71, 92
2, 27072, Note_off_c, 0, 71, 64
2, 27072, Note_on_c, 0, 76, 92
2, 27168, Note_off_c, 0, 76, 64
2, 27168, Note_on_c, 0, 78, 92
2, 27264, Note_off_c, 0, 78, 64
2, 27264, Note_on_c, 0, 79, 92
2, 27360, Note_off_c, 0, 79, 64
2, 27360, Note_on_c, 0, 71, 92
2, 27456, Note_off_c, 0, 71, 64
2, 27456, Note_on_c, 0, 73, 92
2, 27552, Note_off_c, 0, 73, 64
2, 27552, Note_on_c, 0, 74, 92
2, 27648, Note_off_c, 0, 74, 64
2, 27648, Note_on_c, 0, 73, 92
2, 27744, Note_off_c, 0, 73, 64
2, 27744, Note_on_c, 0, 79, 92
2, 27840, Note_off_c, 0, 79, 64
2, 27840, Note_on_c, 0, 78, 92
2, 27936, Note_off_c, 0, 78, 64
2, 27936, Note_on_c, 0, 76, 92
2, 28032, Note_off_c, 0, 76, 64
2, 28032, Note_on_c, 0, 74, 92
2, 28128, Note_off_c, 0, 74, 64
2, 28128, Note_on_c, 0, 73, 92
2, 28224, Note_off_c, 0, 73, 64
2, 28224, Note_on_c, 0, 71, 92
2, 28320, Note_off_c, 0, 71, 64
2, 28320, Note_on_c, 0, 73, 92
2, 28416, Note_off_c, 0, 73, 64
2, 28416, Note_on_c, 0, 64, 92
2, 28416, Note_on_c, 0, 70, 92
2, 28800, Note_off_c, 0, 70, 64
2, 28800, Note_off_c, 0, 64, 64
2, 28992, Note_on_c, 0, 64, 92
2, 28992, Note_on_c, 0, 70, 92
2, 29184, Note_off_c, 0, 70, 64
2, 29184, Note_off_c, 0, 64, 64
2, 29184, Note_on_c, 0, 66, 92
2, 29184, Note_on_c, 0, 71, 92
2, 29568, Note_off_c, 0, 66, 64
2, 29568, Note_on_c, 0, 67, 92
2, 29760, Note_off_c, 0, 71, 64
2, 29760, Note_on_c, 0, 73, 92
2, 29952, Note_off_c, 0, 73, 64
2, 29952, Note_off_c, 0, 67, 64
2, 29952, Note_on_c, 0, 66, 92
2, 29952, Note_on_c, 0, 74, 92
2, 30144, Note_off_c, 0, 74, 64
2, 30144, Note_on_c, 0, 73, 92
2, 30528, Note_off_c, 0, 73, 64
2, 30528, Note_on_c, 0, 71, 92
2, 30912, Note_off_c, 0, 71, 64
2, 30912, Note_on_c, 0, 70, 92
2, 31008, Note_off_c, 0, 66, 64
2, 31008, Note_on_c, 0, 64, 92
2, 31104, Note_off_c, 0, 64, 64
2, 31104, Note_off_c, 0, 70, 64
2, 31104, Note_on_c, 0, 79, 92
2, 31104, Note_on_c, 0, 62, 92
2, 31296, Note_off_c, 0, 62, 64
2, 31296, Note_off_c, 0, 79, 64
2, 31296, Note_on_c, 0, 78, 92
2, 31296, Note_on_c, 0, 61, 92
2, 31488, Note_off_c, 0, 61, 64
2, 31488, Note_on_c, 0, 62, 92
2, 31680, Note_off_c, 0, 62, 64
2, 31680, Note_off_c, 0, 78, 64
2, 31680, Note_on_c, 0, 76, 92
2, 31680, Note_on_c, 0, 64, 92
2, 31872, Note_off_c, 0, 64, 64
2, 31872, Note_off_c, 0, 76, 64
2, 31872, Note_on_c, 0, 74, 92
2, 31872, Note_on_c, 0, 66, 92
2, 32064, Note_off_c, 0, 66, 64
2, 32064, Note_off_c, 0, 74, 64
2, 32064, Note_on_c, 0, 73, 92
2, 32064, Note_on_c, 0, 67, 92
2, 32256, Note_off_c, 0, 67, 64
2, 32256, Note_on_c, 0, 66, 92
2, 32448, Note_off_c, 0, 73, 64
2, 32448, Note_on_c, 0, 71, 92
2, 32640, Note_off_c, 0, 66, 64
2, 32640, Note_on_c, 0, 64, 92
2, 32832, Note_off_c, 0, 71, 64
2, 32832, Note_on_c, 0, 70, 92
2, 33024, Note_off_c, 0, 64, 64
2, 33024, Note_on_c, 0, 62, 92
2, 33216, Note_off_c, 0, 70, 64
2, 33216, Note_on_c, 0, 68, 92
2, 33408, Note_off_c, 0, 68, 64
2, 33408, Note_on_c, 0, 70, 92
2, 33600, Note_off_c, 0, 70, 64
2, 33600, Note_on_c, 0, 65, 92
2, 33792, Note_off_c, 0, 65, 64
2, 33792, Note_off_c, 0, 62, 64
2, 33792, Note_on_c, 0, 61, 92
2, 33792, Note_on_c, 0, 66, 92
2, 34176, Note_off_c, 0, 66, 64
2, 34176, Note_off_c, 0, 61, 64
2, 34176, Note_on_c, 0, 71, 92
2, 34176, Note_on_c, 0, 59, 92
2, 34560, Note_off_c, 0, 59, 64
2, 34560, Note_on_c, 0, 66, 92
2, 34656, Note_off_c, 0, 71, 64
2, 34656, Note_on_c, 0, 74, 92
2, 34752, Note_off_c, 0, 74, 64
2, 34752, Note_on_c, 0, 73, 92
2, 34848, Note_off_c, 0, 73, 64
2, 34848, Note_on_c, 0, 71, 92
2, 34944, Note_off_c, 0, 71, 64
2, 34944, Note_on_c, 0, 70, 92
2, 35232, Note_off_c, 0, 70, 64
2, 35232, Note_on_c, 0, 71, 92
2, 35328, Note_off_c, 0, 71, 64
2, 35328, Note_off_c, 0, 66, 64
2, 35328, Note_on_c, 0, 66, 92
2, 35328, Note_on_c, 0, 71, 92
2, 36864, Note_off_c, 0, 71, 64
2, 36864, Note_off_c, 0, 66, 64
2, 38400, Note_on_c, 0, 71, 92
2, 38784, Note_off_c, 0, 71, 64
2, 38784, Note_on_c, 0, 73, 92
2, 39168, Note_off_c, 0, 73, 64
2, 39168, Note_on_c, 0, 74, 92
2, 39552, Note_off_c, 0, 74, 64
2, 39552, Note_on_c, 0, 73, 92
2, 39936, Note_off_c, 0, 73, 64
2, 39936, Note_on_c, 0, 71, 92
2, 40320, Note_off_c, 0, 71, 64
2, 40320, Note_on_c, 0, 78, 92
2, 40704, Note_on_c, 0, 66, 92
2, 41088, Note_off_c, 0, 66, 64
2, 41088, Note_off_c, 0, 78, 64
2, 41088, Note_on_c, 0, 78, 92
2, 41088, Note_on_c, 0, 68, 92
2, 41472, Note_off_c, 0, 68, 64
2, 41472, Note_on_c, 0, 70, 92
2, 41856, Note_off_c, 0, 70, 64
2, 41856, Note_off_c, 0, 78, 64
2, 41856, Note_on_c, 0, 73, 92
2, 41856, Note_on_c, 0, 68, 92
2, 42240, Note_off_c, 0, 68, 64
2, 42240, Note_off_c, 0, 73, 64
2, 42240, Note_on_c, 0, 76, 92
2, 42240, Note_on_c, 0, 66, 92
2, 42624, Note_off_c, 0, 66, 64
2, 42624, Note_off_c, 0, 76, 64
2, 42624, Note_on_c, 0, 71, 92
2, 42624, Note_on_c, 0, 74, 92
2, 43392, Note_off_c, 0, 74, 64
2, 43392, Note_off_c, 0, 71, 64
2, 43392, Note_on_c, 0, 70, 92
2, 43392, Note_on_c, 0, 76, 92
2, 43776, Note_off_c, 0, 76, 64
2, 43776, Note_off_c, 0, 70, 64
2, 43776, Note_on_c, 0, 71, 92
2, 43776, Note_on_c, 0, 78, 92
2, 44160, Note_off_c, 0, 78, 64
2, 44160, Note_on_c, 0, 76, 92
2, 44544, Note_off_c, 0, 76, 64
2, 44544, Note_on_c, 0, 74, 92
2, 44928, Note_off_c, 0, 74, 64
2, 44928, Note_on_c, 0, 73, 92
2, 45312, Note_off_c, 0, 71, 64
2, 45312, Note_on_c, 0, 70, 92
2, 45696, Note_off_c, 0, 70, 64
2, 45696, Note_on_c, 0, 68, 92
2, 46080, Note_off_c, 0, 68, 64
2, 46080, Note_off_c, 0, 73, 64
2, 46080, Note_on_c, 0, 70, 92
2, 46464, Note_on_c, 0, 78, 92
2, 46848, Note_off_c, 0, 78, 64
2, 46848, Note_on_c, 0, 76, 92
2, 47232, Note_off_c, 0, 76, 64
2, 47232, Note_off_c, 0, 70, 64
2, 47232, Note_on_c, 0, 71, 92
2, 47232, Note_on_c, 0, 74, 92
2, 48000, Note_off_c, 0, 74, 64
2, 48000, Note_off_c, 0, 71, 64
2, 48768, Note_on_c, 0, 76, 92
2, 48768, Note_on_c, 0, 79, 92
2, 49152, Note_off_c, 0, 79, 64
2, 49152, Note_off_c, 0, 76, 64
2, 49152, Note_on_c, 0, 74, 92
2, 49152, Note_on_c, 0, 78, 92
2, 49536, Note_off_c, 0, 78, 64
2, 49536, Note_off_c, 0, 74, 64
2, 49536, Note_on_c, 0, 73, 92
2, 49536, Note_on_c, 0, 76, 92
2, 49920, Note_off_c, 0, 76, 64
2, 49920, Note_off_c, 0, 73, 64
2, 49920, Note_on_c, 0, 74, 92
2, 49920, Note_on_c, 0, 78, 92
2, 50304, Note_off_c, 0, 78, 64
2, 50304, Note_off_c, 0, 74, 64
2, 50304, Note_on_c, 0, 74, 92
2, 50304, Note_on_c, 0, 71, 92
2, 50688, Note_off_c, 0, 74, 64
2, 50688, Note_on_c, 0, 73, 92
2, 51072, Note_off_c, 0, 71, 64
2, 51072, Note_on_c, 0, 70, 92
2, 51456, Note_off_c, 0, 70, 64
2, 51456, Note_off_c, 0, 73, 64
2, 51456, Note_on_c, 0, 71, 92
2, 51840, Note_off_c, 0, 71, 64
2, 51840, Note_on_c, 0, 73, 92
2, 52224, Note_off_c, 0, 73, 64
2, 52224, Note_on_c, 0, 71, 92
2, 52608, Note_off_c, 0, 71, 64
2, 52608, Note_on_c, 0, 70, 92
2, 52992, Note_off_c, 0, 70, 64
2, 52992, Note_on_c, 0, 74, 92
2, 53376, Note_on_c, 0, 78, 92
2, 53760, Note_off_c, 0, 78, 64
2, 53760, Note_on_c, 0, 79, 92
2, 54144, Note_off_c, 0, 79, 64
2, 54144, Note_off_c, 0, 74, 64
2, 54144, Note_on_c, 0, 69, 92
2, 54144, Note_on_c, 0, 81, 92
2, 54528, Note_off_c, 0, 81, 64
2, 54528, Note_on_c, 0, 79, 92
2, 54912, Note_off_c, 0, 79, 64
2, 54912, Note_on_c, 0, 78, 92
2, 55296, Note_off_c, 0, 78, 64
2, 55296, Note_off_c, 0, 69, 64
2, 55296, Note_on_c, 0, 71, 92
2, 55296, Note_on_c, 0, 76, 92
2, 55680, Note_off_c, 0, 76, 64
2, 55680, Note_on_c, 0, 78, 92
2, 56064, Note_off_c, 0, 78, 64
2, 56064, Note_on_c, 0, 74, 92
2, 56448, Note_off_c, 0, 74, 64
2, 56448, Note_off_c, 0, 71, 64
2, 56448, Note_on_c, 0, 69, 92
2, 56448, Note_on_c, 0, 73, 92
2, 56832, Note_off_c, 0, 73, 64
2, 56832, Note_off_c, 0, 69, 64
2, 56832, Note_on_c, 0, 69, 92
2, 57216, Note_on_c, 0, 74, 92
2, 57600, Note_off_c, 0, 69, 64
2, 57984, Note_off_c, 0, 74, 64
2, 57984, Note_on_c, 0, 69, 92
2, 57984, Note_on_c, 0, 76, 92
2, 58368, Note_off_c, 0, 76, 64
2, 58368, Note_off_c, 0, 69, 64
2, 58368, Note_on_c, 0, 67, 92
2, 58368, Note_on_c, 0, 73, 92
2, 58752, Note_off_c, 0, 73, 64
2, 58752, Note_off_c, 0, 67, 64
2, 58752, Note_on_c, 0, 66, 92
2, 58752, Note_on_c, 0, 74, 92
2, 59904, Note_off_c, 0, 74, 64
2, 59904, Note_off_c, 0, 66, 64
2, 59904, Note_on_c, 0, 62, 92
2, 60288, Note_off_c, 0, 62, 64
2, 60288, Note_on_c, 0, 64, 92
2, 60672, Note_off_c, 0, 64, 64
2, 60672, Note_on_c, 0, 66, 92
2, 61056, Note_off_c, 0, 66, 64
2, 61056, Note_on_c, 0, 67, 92
2, 61440, Note_off_c, 0, 67, 64
2, 61440, Note_on_c, 0, 69, 92
2, 61824, Note_off_c, 0, 69, 64
2, 61824, Note_on_c, 0, 71, 92
2, 62208, Note_off_c, 0, 71, 64
2, 62208, Note_on_c, 0, 66, 92
2, 63360, Note_off_c, 0, 66, 64
2, 63744, Note_on_c, 0, 71, 92
2, 64128, Note_off_c, 0, 71, 64
2, 64128, Note_on_c, 0, 69, 92
2, 64512, Note_off_c, 0, 69, 64
2, 64512, Note_on_c, 0, 68, 92
2, 64896, Note_off_c, 0, 68, 64
2, 64896, Note_on_c, 0, 76, 92
2, 64896, Note_on_c, 0, 66, 92
2, 65280, Note_off_c, 0, 66, 64
2, 65280, Note_off_c, 0, 76, 64
2, 65280, Note_on_c, 0, 74, 92
2, 65280, Note_on_c, 0, 68, 92
2, 65664, Note_off_c, 0, 68, 64
2, 65664, Note_off_c, 0, 74, 64
2, 65664, Note_on_c, 0, 69, 92
2, 65664, Note_on_c, 0, 73, 92
2, 66048, Note_off_c, 0, 73, 64
2, 66048, Note_on_c, 0, 71, 92
2, 66432, Note_off_c, 0, 71, 64
2, 66432, Note_off_c, 0, 69, 64
2, 66432, Note_on_c, 0, 67, 92
2, 66432, Note_on_c, 0, 73, 92
2, 66816, Note_off_c, 0, 73, 64
2, 66816, Note_off_c, 0, 67, 64
2, 66816, Note_on_c, 0, 66, 92
2, 66816, Note_on_c, 0, 74, 92
2, 67200, Note_off_c, 0, 74, 64
2, 67200, Note_on_c, 0, 78, 92
2, 67584, Note_off_c, 0, 78, 64
2, 67584, Note_off_c, 0, 66, 64
2, 67584, Note_on_c, 0, 71, 92
2, 67968, Note_on_c, 0, 76, 92
2, 68352, Note_off_c, 0, 76, 64
2, 68352, Note_on_c, 0, 79, 92
2, 68736, Note_off_c, 0, 79, 64
2, 68736, Note_off_c, 0, 71, 64
2, 68736, Note_on_c, 0, 70, 92
2, 68736, Note_on_c, 0, 73, 92
2, 69120, Note_off_c, 0, 73, 64
2, 69120, Note_off_c, 0, 70, 64
2, 69120, Note_on_c, 0, 71, 92
2, 69120, Note_on_c, 0, 74, 92
2, 69888, Note_off_c, 0, 74, 64
2, 69888, Note_off_c, 0, 71, 64
2, 69888, Note_on_c, 0, 73, 92
2, 70272, Note_off_c, 0, 73, 64
2, 70272, Note_on_c, 0, 71, 92
2, 70656, Note_off_c, 0, 71, 64
2, 70656, Note_on_c, 0, 73, 92
2, 71040, Note_off_c, 0, 73, 64
2, 71040, Note_on_c, 0, 74, 92
2, 71424, Note_off_c, 0, 74, 64
2, 71424, Note_on_c, 0, 76, 92
2, 71808, Note_off_c, 0, 76, 64
2, 71808, Note_on_c, 0, 69, 92
2, 73344, Note_off_c, 0, 69, 64
2, 73344, Note_on_c, 0, 67, 92
2, 74112, Note_off_c, 0, 67, 64
2, 74112, Note_on_c, 0, 69, 92
2, 74304, Note_off_c, 0, 69, 64
2, 74304, Note_on_c, 0, 67, 92
2, 74496, Note_off_c, 0, 67, 64
2, 74496, Note_on_c, 0, 66, 92
2, 74688, Note_off_c, 0, 66, 64
2, 74688, Note_on_c, 0, 64, 92
2, 74880, Note_off_c, 0, 64, 64
2, 74880, Note_on_c, 0, 66, 92
2, 75264, Note_off_c, 0, 66, 64
2, 75264, Note_on_c, 0, 74, 92
2, 76416, Note_off_c, 0, 74, 64
2, 76416, Note_on_c, 0, 69, 92
2, 76416, Note_on_c, 0, 73, 92
2, 76800, Note_off_c, 0, 73, 64
2, 76800, Note_off_c, 0, 69, 64
2, 76800, Note_on_c, 0, 71, 92
2, 76800, Note_on_c, 0, 74, 92
2, 77184, Note_off_c, 0, 74, 64
2, 77184, Note_off_c, 0, 71, 64
2, 77184, Note_on_c, 0, 73, 92
2, 77184, Note_on_c, 0, 76, 92
2, 78720, Note_off_c, 0, 76, 64
2, 78720, Note_off_c, 0, 73, 64
2, 78720, Note_on_c, 0, 71, 92
2, 78720, Note_on_c, 0, 74, 92
2, 79104, Note_off_c, 0, 74, 64
2, 79104, Note_off_c, 0, 71, 64
2, 79104, Note_on_c, 0, 69, 92
2, 79104, Note_on_c, 0, 73, 92
2, 79488, Note_off_c, 0, 73, 64
2, 79488, Note_off_c, 0, 69, 64
2, 79488, Note_on_c, 0, 68, 92
2, 79488, Note_on_c, 0, 71, 92
2, 80256, Note_off_c, 0, 71, 64
2, 80256, Note_off_c, 0, 68, 64
2, 80256, Note_on_c, 0, 70, 92
2, 80256, Note_on_c, 0, 73, 92
2, 80640, Note_off_c, 0, 73, 64
2, 80640, Note_off_c, 0, 70, 64
2, 80640, Note_on_c, 0, 74, 92
2, 80640, Note_on_c, 0, 71, 92
2, 81024, Note_off_c, 0, 71, 64
2, 81024, Note_off_c, 0, 74, 64
2, 81024, Note_on_c, 0, 74, 92
2, 81024, Note_on_c, 0, 78, 92
2, 81408, Note_off_c, 0, 78, 64
2, 81408, Note_on_c, 0, 79, 92
2, 81792, Note_off_c, 0, 79, 64
2, 81792, Note_off_c, 0, 74, 64
2, 81792, Note_on_c, 0, 73, 92
2, 81792, Note_on_c, 0, 76, 92
2, 82176, Note_off_c, 0, 76, 64
2, 82176, Note_on_c, 0, 78, 92
2, 82560, Note_off_c, 0, 73, 64
2, 82560, Note_on_c, 0, 73, 92
2, 82944, Note_off_c, 0, 73, 64
2, 82944, Note_off_c, 0, 78, 64
2, 82944, Note_on_c, 0, 71, 92
2, 82944, Note_on_c, 0, 75, 92
2, 83328, Note_off_c, 0, 75, 64
2, 83328, Note_on_c, 0, 76, 92
2, 83712, Note_off_c, 0, 71, 64
2, 83712, Note_on_c, 0, 71, 92
2, 84096, Note_off_c, 0, 71, 64
2, 84096, Note_off_c, 0, 76, 64
2, 84096, Note_on_c, 0, 69, 92
2, 84096, Note_on_c, 0, 81, 92
2, 84480, Note_off_c, 0, 81, 64
2, 84480, Note_on_c, 0, 73, 92
2, 84864, Note_off_c, 0, 73, 64
2, 84864, Note_off_c, 0, 69, 64
2, 84864, Note_on_c, 0, 69, 92
2, 84864, Note_on_c, 0, 74, 92
2, 85248, Note_off_c, 0, 74, 64
2, 85248, Note_off_c, 0, 69, 64
2, 85248, Note_on_c, 0, 76, 92
2, 85248, Note_on_c, 0, 71, 92
2, 85632, Note_off_c, 0, 71, 64
2, 85632, Note_on_c, 0, 73, 92
2, 85824, Note_off_c, 0, 76, 64
2, 85824, Note_on_c, 0, 78, 92
2, 86016, Note_off_c, 0, 78, 64
2, 86016, Note_on_c, 0, 79, 92
2, 86208, Note_off_c, 0, 79, 64
2, 86208, Note_on_c, 0, 81, 92
2, 86400, Note_off_c, 0, 81, 64
2, 86400, Note_off_c, 0, 73, 64
2, 86400, Note_on_c, 0, 74, 92
2, 86400, Note_on_c, 0, 78, 92
2, 86784, Note_off_c, 0, 78, 64
2, 86784, Note_off_c, 0, 74, 64
2, 86784, Note_on_c, 0, 74, 92
2, 86784, Note_on_c, 0, 71, 92
2, 87168, Note_off_c, 0, 71, 64
2, 87168, Note_off_c, 0, 74, 64
2, 87168, Note_on_c, 0, 71, 92
2, 87168, Note_on_c, 0, 74, 92
2, 87552, Note_off_c, 0, 74, 64
2, 87552, Note_off_c, 0, 71, 64
2, 87552, Note_on_c, 0, 71, 92
2, 87552, Note_on_c, 0, 74, 92
2, 87936, Note_off_c, 0, 74, 64
2, 87936, Note_off_c, 0, 71, 64
2, 87936, Note_on_c, 0, 70, 92
2, 87936, Note_on_c, 0, 73, 92
2, 88320, Note_off_c, 0, 73, 64
2, 88320, Note_off_c, 0, 70, 64
2, 88320, Note_on_c, 0, 68, 92
2, 88320, Note_on_c, 0, 71, 92
2, 88704, Note_off_c, 0, 71, 64
2, 88704, Note_off_c, 0, 68, 64
2, 88704, Note_on_c, 0, 66, 92
2, 88704, Note_on_c, 0, 70, 92
2, 89472, Note_off_c, 0, 70, 64
2, 89472, Note_off_c, 0, 66, 64
2, 89472, Note_on_c, 0, 66, 92
2, 89472, Note_on_c, 0, 71, 92
2, 89856, Note_off_c, 0, 71, 64
2, 89856, Note_off_c, 0, 66, 64
2, 89856, Note_on_c, 0, 67, 92
2, 89856, Note_on_c, 0, 73, 92
2, 90240, Note_off_c, 0, 73, 64
2, 90240, Note_off_c, 0, 67, 64
2, 90240, Note_on_c, 0, 66, 92
2, 90240, Note_on_c, 0, 70, 92
2, 90816, Note_off_c, 0, 70, 64
2, 90816, Note_off_c, 0, 66, 64
2, 90816, Note_on_c, 0, 64, 92
2, 90816, Note_on_c, 0, 71, 92
2, 91008, Note_off_c, 0, 71, 64
2, 91008, Note_off_c, 0, 64, 64
2, 91008, Note_on_c, 0, 62, 92
2, 91008, Note_on_c, 0, 71, 92
2, 92160, Note_off_c, 0, 71, 64
2, 92160, Note_off_c, 0, 62, 64
2, 92544, Note_on_c, 0, 64, 92
2, 92928, Note_off_c, 0, 64, 64
2, 92928, Note_on_c, 0, 62, 92
2, 93312, Note_off_c, 0, 62, 64
2, 93312, Note_on_c, 0, 61, 92
2, 93696, Note_off_c, 0, 61, 64
2, 93696, Note_on_c, 0, 69, 92
2, 93696, Note_on_c, 0, 59, 92
2, 94080, Note_off_c, 0, 59, 64
2, 94080, Note_off_c, 0, 69, 64
2, 94080, Note_on_c, 0, 67, 92
2, 94080, Note_on_c, 0, 61, 92
2, 94464, Note_off_c, 0, 61, 64
2, 94464, Note_off_c, 0, 67, 64
2, 94464, Note_on_c, 0, 62, 92
2, 94464, Note_on_c, 0, 66, 92
2, 94848, Note_off_c, 0, 66, 64
2, 94848, Note_off_c, 0, 62, 64
2, 94848, Note_on_c, 0, 61, 92
2, 94848, Note_on_c, 0, 64, 92
2, 95232, Note_off_c, 0, 64, 64
2, 95232, Note_off_c, 0, 61, 64
2, 95232, Note_on_c, 0, 62, 92
2, 95232, Note_on_c, 0, 66, 92
2, 95616, Note_off_c, 0, 66, 64
2, 95616, Note_off_c, 0, 62, 64
2, 95616, Note_on_c, 0, 67, 92
2, 95616, Note_on_c, 0, 64, 92
2, 96000, Note_off_c, 0, 64, 64
2, 96000, Note_off_c, 0, 67, 64
2, 96000, Note_on_c, 0, 67, 92
2, 96000, Note_on_c, 0, 71, 92
2, 96384, Note_off_c, 0, 71, 64
2, 96384, Note_on_c, 0, 73, 92
2, 96768, Note_off_c, 0, 73, 64
2, 96768, Note_off_c, 0, 67, 64
2, 96768, Note_on_c, 0, 74, 92
2, 96768, Note_on_c, 0, 66, 92
2, 97152, Note_off_c, 0, 66, 64
2, 97152, Note_on_c, 0, 71, 92
2, 97536, Note_off_c, 0, 74, 64
2, 97536, Note_on_c, 0, 76, 92
2, 97920, Note_off_c, 0, 76, 64
2, 97920, Note_on_c, 0, 78, 92
2, 98304, Note_off_c, 0, 78, 64
2, 98304, Note_on_c, 0, 66, 92
2, 98496, Note_off_c, 0, 71, 64
2, 98496, Note_on_c, 0, 73, 92
2, 98688, Note_off_c, 0, 73, 64
2, 98688, Note_on_c, 0, 71, 92
2, 98880, Note_off_c, 0, 71, 64
2, 98880, Note_on_c, 0, 69, 92
2, 99072, Note_off_c, 0, 69, 64
2, 99072, Note_off_c, 0, 66, 64
2, 99072, Note_on_c, 0, 68, 92
2, 99072, Note_on_c, 0, 64, 92
2, 99456, Note_off_c, 0, 68, 64
2, 99456, Note_on_c, 0, 70, 92
2, 99840, Note_off_c, 0, 70, 64
2, 99840, Note_off_c, 0, 64, 64
2, 99840, Note_on_c, 0, 62, 92
2, 99840, Note_on_c, 0, 71, 92
2, 100224, Note_off_c, 0, 71, 64
2, 100224, Note_off_c, 0, 62, 64
2, 100224, Note_on_c, 0, 61, 92
2, 100224, Note_on_c, 0, 70, 92
2, 100608, Note_off_c, 0, 70, 64
2, 100608, Note_off_c, 0, 61, 64
2, 100608, Note_on_c, 0, 70, 92
2, 100608, Note_on_c, 0, 66, 92
2, 100992, Note_off_c, 0, 70, 64
2, 100992, Note_on_c, 0, 71, 92
2, 101376, Note_off_c, 0, 71, 64
2, 101376, Note_off_c, 0, 66, 64
2, 101376, Note_on_c, 0, 73, 92
2, 101760, Note_on_c, 0, 66, 92
2, 102144, Note_off_c, 0, 66, 64
2, 102144, Note_on_c, 0, 64, 92
2, 102528, Note_off_c, 0, 64, 64
2, 102528, Note_off_c, 0, 73, 64
2, 102528, Note_on_c, 0, 63, 92
2, 103296, Note_off_c, 0, 63, 64
2, 103296, Note_on_c, 0, 64, 92
2, 103680, Note_off_c, 0, 64, 64
2, 103680, Note_on_c, 0, 66, 92
2, 104064, Note_off_c, 0, 66, 64
2, 104064, Note_on_c, 0, 64, 92
2, 104448, Note_off_c, 0, 64, 64
2, 104448, Note_on_c, 0, 66, 92
2, 104832, Note_off_c, 0, 66, 64
2, 104832, Note_on_c, 0, 67, 92
2, 105216, Note_off_c, 0, 67, 64
2, 105216, Note_on_c, 0, 64, 92
2, 105600, Note_off_c, 0, 64, 64
2, 105600, Note_on_c, 0, 66, 92
2, 105984, Note_off_c, 0, 66, 64
2, 105984, Note_on_c, 0, 67, 92
2, 106368, Note_off_c, 0, 67, 64
2, 106368, Note_on_c, 0, 64, 92
2, 106752, Note_off_c, 0, 64, 64
2, 106752, Note_on_c, 0, 62, 92
2, 107136, Note_off_c, 0, 62, 64
2, 107136, Note_on_c, 0, 61, 92
2, 107520, Note_on_c, 0, 66, 92
2, 107904, Note_off_c, 0, 66, 64
2, 107904, Note_on_c, 0, 68, 92
2, 108288, Note_off_c, 0, 68, 64
2, 108288, Note_off_c, 0, 61, 64
2, 108288, Note_on_c, 0, 66, 92
2, 108288, Note_on_c, 0, 70, 92
2, 108672, Note_off_c, 0, 70, 64
2, 108672, Note_on_c, 0, 71, 92
2, 109056, Note_off_c, 0, 71, 64
2, 109056, Note_on_c, 0, 73, 92
2, 109440, Note_off_c, 0, 73, 64
2, 109440, Note_on_c, 0, 74, 92
2, 109824, Note_off_c, 0, 74, 64
2, 109824, Note_on_c, 0, 73, 92
2, 110208, Note_off_c, 0, 73, 64
2, 110208, Note_on_c, 0, 71, 92
2, 110592, Note_off_c, 0, 71, 64
2, 110592, Note_off_c, 0, 66, 64
2, 110592, Note_on_c, 0, 64, 92
2, 110592, Note_on_c, 0, 69, 92
2, 110976, Note_off_c, 0, 69, 64
2, 110976, Note_off_c, 0, 64, 64
2, 110976, Note_on_c, 0, 71, 92
2, 110976, Note_on_c, 0, 62, 92
2, 111168, Note_off_c, 0, 71, 64
2, 111168, Note_on_c, 0, 69, 92
2, 111360, Note_off_c, 0, 69, 64
2, 111360, Note_off_c, 0, 62, 64
2, 111360, Note_on_c, 0, 67, 92
2, 111360, Note_on_c, 0, 64, 92
2, 111552, Note_off_c, 0, 67, 64
2, 111552, Note_on_c, 0, 69, 92
2, 111744, Note_off_c, 0, 69, 64
2, 111744, Note_off_c, 0, 64, 64
2, 111744, Note_on_c, 0, 66, 92
2, 112128, Note_on_c, 0, 74, 92
2, 112512, Note_off_c, 0, 74, 64
2, 112512, Note_off_c, 0, 66, 64
2, 112512, Note_on_c, 0, 76, 92
2, 112512, Note_on_c, 0, 64, 92
2, 112896, Note_off_c, 0, 64, 64
2, 112896, Note_off_c, 0, 76, 64
2, 112896, Note_on_c, 0, 62, 92
2, 112896, Note_on_c, 0, 78, 92
2, 113280, Note_off_c, 0, 78, 64
2, 113280, Note_on_c, 0, 79, 92
2, 113664, Note_off_c, 0, 79, 64
2, 113664, Note_on_c, 0, 81, 92
2, 114048, Note_off_c, 0, 81, 64
2, 114048, Note_on_c, 0, 71, 92
2, 114432, Note_off_c, 0, 71, 64
2, 114432, Note_off_c, 0, 62, 64
2, 114432, Note_on_c, 0, 73, 92
2, 114432, Note_on_c, 0, 64, 92
2, 114816, Note_off_c, 0, 64, 64
2, 114816, Note_off_c, 0, 73, 64
2, 114816, Note_on_c, 0, 74, 92
2, 114816, Note_on_c, 0, 66, 92
2, 115200, Note_off_c, 0, 66, 64
2, 115200, Note_off_c, 0, 74, 64
2, 115200, Note_on_c, 0, 67, 92
2, 115200, Note_on_c, 0, 76, 92
2, 115584, Note_off_c, 0, 76, 64
2, 115584, Note_off_c, 0, 67, 64
2, 115584, Note_on_c, 0, 64, 92
2, 115584, Note_on_c, 0, 73, 92
2, 116160, Note_off_c, 0, 73, 64
2, 116160, Note_off_c, 0, 64, 64
2, 116160, Note_on_c, 0, 64, 92
2, 116160, Note_on_c, 0, 73, 92
2, 116352, Note_off_c, 0, 73, 64
2, 116352, Note_off_c, 0, 64, 64
2, 116352, Note_on_c, 0, 74, 92
2, 116352, Note_on_c, 0, 66, 92
2, 116736, Note_off_c, 0, 66, 64
2, 116736, Note_on_c, 0, 66, 92
2, 117120, Note_off_c, 0, 66, 64
2, 117120, Note_on_c, 0, 67, 92
2, 117504, Note_off_c, 0, 67, 64
2, 117504, Note_off_c, 0, 74, 64
2, 117504, Note_on_c, 0, 69, 92
2, 118272, Note_off_c, 0, 69, 64
2, 118272, Note_on_c, 0, 67, 92
2, 118464, Note_off_c, 0, 67, 64
2, 118464, Note_on_c, 0, 66, 92
2, 118656, Note_off_c, 0, 66, 64
2, 118656, Note_on_c, 0, 64, 92
2, 119040, Note_off_c, 0, 64, 64
2, 119040, Note_on_c, 0, 76, 92
2, 119040, Note_on_c, 0, 69, 92
2, 119424, Note_off_c, 0, 76, 64
2, 119424, Note_on_c, 0, 78, 92
2, 119808, Note_off_c, 0, 78, 64
2, 119808, Note_off_c, 0, 69, 64
2, 119808, Note_on_c, 0, 67, 92
2, 119808, Note_on_c, 0, 79, 92
2, 120192, Note_off_c, 0, 67, 64
2, 120192, Note_on_c, 0, 71, 92
2, 120576, Note_off_c, 0, 71, 64
2, 120576, Note_on_c, 0, 73, 92
2, 120960, Note_off_c, 0, 73, 64
2, 120960, Note_off_c, 0, 79, 64
2, 120960, Note_on_c, 0, 74, 92
2, 120960, Note_on_c, 0, 78, 92
2, 121344, Note_off_c, 0, 78, 64
2, 121344, Note_off_c, 0, 74, 64
2, 121344, Note_on_c, 0, 73, 92
2, 121344, Note_on_c, 0, 76, 92
2, 121728, Note_off_c, 0, 76, 64
2, 121728, Note_off_c, 0, 73, 64
2, 121728, Note_on_c, 0, 71, 92
2, 121728, Note_on_c, 0, 74, 92
2, 122112, Note_off_c, 0, 74, 64
2, 122112, Note_off_c, 0, 71, 64
2, 122112, Note_on_c, 0, 67, 92
2, 122112, Note_on_c, 0, 73, 92
2, 122496, Note_off_c, 0, 73, 64
2, 122496, Note_on_c, 0, 71, 92
2, 122880, Note_off_c, 0, 71, 64
2, 122880, Note_off_c, 0, 67, 64
2, 122880, Note_on_c, 0, 66, 92
2, 122880, Note_on_c, 0, 70, 92
2, 123264, Note_off_c, 0, 70, 64
2, 123264, Note_off_c, 0, 66, 64
2, 123264, Note_on_c, 0, 71, 92
2, 123264, Note_on_c, 0, 66, 92
2, 123648, Note_off_c, 0, 71, 64
2, 123648, Note_on_c, 0, 73, 92
2, 124032, Note_off_c, 0, 73, 64
2, 124032, Note_on_c, 0, 74, 92
2, 124416, Note_off_c, 0, 74, 64
2, 124416, Note_off_c, 0, 66, 64
2, 124416, Note_on_c, 0, 64, 92
2, 124416, Note_on_c, 0, 73, 92
2, 124800, Note_off_c, 0, 73, 64
2, 124800, Note_off_c, 0, 64, 64
2, 124800, Note_on_c, 0, 62, 92
2, 124800, Note_on_c, 0, 71, 92
2, 125184, Note_off_c, 0, 71, 64
2, 125184, Note_off_c, 0, 62, 64
2, 125184, Note_on_c, 0, 61, 92
2, 125184, Note_on_c, 0, 70, 92
2, 125568, Note_off_c, 0, 70, 64
2, 125568, Note_off_c, 0, 61, 64
2, 125568, Note_on_c, 0, 71, 92
2, 125568, Note_on_c, 0, 66, 92
2, 125952, Note_off_c, 0, 71, 64
2, 125952, Note_on_c, 0, 73, 92
2, 126336, Note_off_c, 0, 73, 64
2, 126336, Note_on_c, 0, 74, 92
2, 126720, Note_off_c, 0, 74, 64
2, 126720, Note_off_c, 0, 66, 64
2, 126720, Note_on_c, 0, 67, 92
2, 126720, Note_on_c, 0, 73, 92
2, 127104, Note_off_c, 0, 73, 64
2, 127104, Note_off_c, 0, 67, 64
2, 127104, Note_on_c, 0, 66, 92
2, 127104, Note_on_c, 0, 71, 92
2, 127488, Note_off_c, 0, 71, 64
2, 127488, Note_off_c, 0, 66, 64
2, 127488, Note_on_c, 0, 64, 92
2, 127488, Note_on_c, 0, 70, 92
2, 127872, Note_off_c, 0, 70, 64
2, 127872, Note_off_c, 0, 64, 64
2, 127872, Note_on_c, 0, 66, 92
2, 127872, Note_on_c, 0, 71, 92
2, 128256, Note_off_c, 0, 66, 64
2, 128256, Note_on_c, 0, 66, 92
2, 128640, Note_off_c, 0, 66, 64
2, 128640, Note_on_c, 0, 67, 92
2, 129024, Note_off_c, 0, 67, 64
2, 129024, Note_off_c, 0, 71, 64
2, 129024, Note_on_c, 0, 69, 92
2, 129792, Note_off_c, 0, 69, 64
2, 129792, Note_on_c, 0, 71, 92
2, 130176, Note_off_c, 0, 71, 64
2, 130176, Note_on_c, 0, 64, 92
2, 130560, Note_off_c, 0, 64, 64
2, 130560, Note_on_c, 0, 76, 92
2, 130944, Note_off_c, 0, 76, 64
2, 130944, Note_on_c, 0, 78, 92
2, 131328, Note_off_c, 0, 78, 64
2, 131328, Note_on_c, 0, 79, 92
2, 131712, Note_on_c, 0, 76, 92
2, 132096, Note_off_c, 0, 76, 64
2, 132096, Note_off_c, 0, 79, 64
2, 132096, Note_on_c, 0, 74, 92
2, 132096, Note_on_c, 0, 81, 92
2, 132480, Note_off_c, 0, 81, 64
2, 132480, Note_off_c, 0, 74, 64
2, 132480, Note_on_c, 0, 74, 92
2, 132480, Note_on_c, 0, 71, 92
2, 133248, Note_off_c, 0, 71, 64
2, 133248, Note_off_c, 0, 74, 64
2, 133248, Note_on_c, 0, 73, 92
2, 133248, Note_on_c, 0, 76, 92
2, 133632, Note_off_c, 0, 76, 64
2, 133632, Note_off_c, 0, 73, 64
2, 133632, Note_on_c, 0, 78, 92
2, 133632, Note_on_c, 0, 74, 92
2, 134016, Note_off_c, 0, 78, 64
2, 134016, Note_on_c, 0, 79, 92
2, 134400, Note_off_c, 0, 79, 64
2, 134400, Note_on_c, 0, 81, 92
2, 134784, Note_off_c, 0, 81, 64
2, 134784, Note_on_c, 0, 79, 92
2, 135168, Note_off_c, 0, 79, 64
2, 135168, Note_on_c, 0, 78, 92
2, 135552, Note_off_c, 0, 78, 64
2, 135552, Note_off_c, 0, 74, 64
2, 135552, Note_on_c, 0, 73, 92
2, 135552, Note_on_c, 0, 76, 92
2, 135936, Note_off_c, 0, 76, 64
2, 135936, Note_on_c, 0, 78, 92
2, 136320, Note_off_c, 0, 73, 64
2, 136320, Note_on_c, 0, 70, 92
2, 136704, Note_off_c, 0, 70, 64
2, 136704, Note_on_c, 0, 71, 92
2, 137088, Note_off_c, 0, 78, 64
2, 137088, Note_on_c, 0, 76, 92
2, 137472, Note_off_c, 0, 71, 64
2, 137472, Note_on_c, 0, 68, 92
2, 137856, Note_off_c, 0, 68, 64
2, 137856, Note_on_c, 0, 69, 92
2, 138240, Note_off_c, 0, 76, 64
2, 138240, Note_on_c, 0, 74, 92
2, 138624, Note_off_c, 0, 69, 64
2, 138624, Note_on_c, 0, 66, 92
2, 139008, Note_off_c, 0, 66, 64
2, 139008, Note_on_c, 0, 67, 92
2, 139392, Note_off_c, 0, 74, 64
2, 139392, Note_on_c, 0, 73, 92
2, 139776, Note_off_c, 0, 67, 64
2, 139776, Note_on_c, 0, 64, 92
2, 140160, Note_off_c, 0, 64, 64
2, 140160, Note_on_c, 0, 66, 92
2, 140544, Note_off_c, 0, 73, 64
2, 140544, Note_on_c, 0, 71, 92
2, 140928, Note_off_c, 0, 66, 64
2, 140928, Note_on_c, 0, 64, 92
2, 141696, Note_off_c, 0, 64, 64
2, 141696, Note_off_c, 0, 71, 64
2, 141696, Note_on_c, 0, 66, 92
2, 141696, Note_on_c, 0, 70, 92
2, 142464, Note_off_c, 0, 70, 64
2, 142464, Note_on_c, 0, 78, 92
2, 142848, Note_off_c, 0, 78, 64
2, 142848, Note_off_c, 0, 66, 64
2, 142848, Note_on_c, 0, 79, 92
2, 142848, Note_on_c, 0, 71, 92
2, 143232, Note_off_c, 0, 79, 64
2, 143232, Note_on_c, 0, 78, 92
2, 143616, Note_off_c, 0, 78, 64
2, 143616, Note_on_c, 0, 76, 92
2, 144000, Note_off_c, 0, 76, 64
2, 144000, Note_off_c, 0, 71, 64
2, 144000, Note_on_c, 0, 78, 92
2, 144000, Note_on_c, 0, 66, 92
2, 144384, Note_off_c, 0, 78, 64
2, 144384, Note_on_c, 0, 76, 92
2, 144768, Note_off_c, 0, 76, 64
2, 144768, Note_on_c, 0, 74, 92
2, 145152, Note_off_c, 0, 74, 64
2, 145152, Note_off_c, 0, 66, 64
2, 145152, Note_on_c, 0, 71, 92
2, 145152, Note_on_c, 0, 76, 92
2, 145536, Note_off_c, 0, 76, 64
2, 145536, Note_off_c, 0, 71, 64
2, 145536, Note_on_c, 0, 69, 92
2, 145536, Note_on_c, 0, 74, 92
2, 145920, Note_off_c, 0, 74, 64
2, 145920, Note_off_c, 0, 69, 64
2, 145920, Note_on_c, 0, 67, 92
2, 145920, Note_on_c, 0, 73, 92
2, 146304, Note_off_c, 0, 73, 64
2, 146304, Note_off_c, 0, 67, 64
2, 146304, Note_on_c, 0, 74, 92
2, 146304, Note_on_c, 0, 66, 92
2, 146688, Note_off_c, 0, 74, 64
2, 146688, Note_on_c, 0, 73, 92
2, 147072, Note_off_c, 0, 73, 64
2, 147072, Note_on_c, 0, 71, 92
2, 147456, Note_off_c, 0, 71, 64
2, 147456, Note_off_c, 0, 66, 64
2, 147456, Note_on_c, 0, 64, 92
2, 147456, Note_on_c, 0, 76, 92
2, 147840, Note_off_c, 0, 76, 64
2, 147840, Note_off_c, 0, 64, 64
2, 147840, Note_on_c, 0, 66, 92
2, 147840, Note_on_c, 0, 74, 92
2, 148224, Note_off_c, 0, 74, 64
2, 148224, Note_on_c, 0, 73, 92
2, 148608, Note_off_c, 0, 73, 64
2, 148608, Note_on_c, 0, 74, 92
2, 148992, Note_off_c, 0, 74, 64
2, 148992, Note_on_c, 0, 73, 92
2, 149376, Note_off_c, 0, 73, 64
2, 149376, Note_on_c, 0, 71, 92
2, 149760, Note_off_c, 0, 71, 64
2, 149760, Note_off_c, 0, 66, 64
2, 149760, Note_on_c, 0, 67, 92
2, 149760, Note_on_c, 0, 73, 92
2, 150144, Note_off_c, 0, 73, 64
2, 150144, Note_off_c, 0, 67, 64
2, 150144, Note_on_c, 0, 70, 92
2, 150144, Note_on_c, 0, 66, 92
2, 150720, Note_off_c, 0, 70, 64
2, 150720, Note_on_c, 0, 70, 92
2, 150912, Note_off_c, 0, 70, 64
2, 150912, Note_on_c, 0, 71, 92
2, 151296, Note_off_c, 0, 71, 64
2, 151296, Note_off_c, 0, 66, 64
2, 151296, Note_on_c, 0, 78, 92
2, 151296, Note_on_c, 0, 63, 92
2, 151680, Note_off_c, 0, 63, 64
2, 151680, Note_off_c, 0, 78, 64
2, 151680, Note_on_c, 0, 79, 92
2, 151680, Note_on_c, 0, 64, 92
2, 152064, Note_off_c, 0, 64, 64
2, 152064, Note_off_c, 0, 79, 64
2, 152064, Note_on_c, 0, 66, 92
2, 152064, Note_on_c, 0, 81, 92
2, 152448, Note_off_c, 0, 81, 64
2, 152448, Note_off_c, 0, 66, 64
2, 152448, Note_on_c, 0, 63, 92
2, 152448, Note_on_c, 0, 78, 92
2, 152832, Note_off_c, 0, 78, 64
2, 152832, Note_off_c, 0, 63, 64
2, 152832, Note_on_c, 0, 64, 92
2, 152832, Note_on_c, 0, 79, 92
2, 153216, Note_off_c, 0, 79, 64
2, 153216, Note_off_c, 0, 64, 64
2, 153216, Note_on_c, 0, 75, 92
2, 153216, Note_on_c, 0, 66, 92
2, 153600, Note_off_c, 0, 66, 64
2, 153600, Note_off_c, 0, 75, 64
2, 153600, Note_on_c, 0, 78, 92
2, 153600, Note_on_c, 0, 69, 92
2, 153984, Note_off_c, 0, 69, 64
2, 153984, Note_off_c, 0, 78, 64
2, 153984, Note_on_c, 0, 76, 92
2, 153984, Note_on_c, 0, 67, 92
2, 154368, Note_off_c, 0, 67, 64
2, 154368, Note_off_c, 0, 76, 64
2, 154368, Note_on_c, 0, 64, 92
2, 154368, Note_on_c, 0, 73, 92
2, 154752, Note_off_c, 0, 73, 64
2, 154752, Note_off_c, 0, 64, 64
2, 154752, Note_on_c, 0, 61, 92
2, 154752, Note_on_c, 0, 76, 92
2, 155136, Note_off_c, 0, 76, 64
2, 155136, Note_off_c, 0, 61, 64
2, 155136, Note_on_c, 0, 64, 92
2, 155136, Note_on_c, 0, 70, 92
2, 155520, Note_off_c, 0, 70, 64
2, 155520, Note_off_c, 0, 64, 64
2, 155520, Note_on_c, 0, 63, 92
2, 155520, Note_on_c, 0, 71, 92
2, 156672, Note_off_c, 0, 63, 64
2, 156672, Note_on_c, 0, 64, 92
2, 157056, Note_off_c, 0, 64, 64
2, 157056, Note_on_c, 0, 66, 92
2, 157440, Note_off_c, 0, 66, 64
2, 157440, Note_on_c, 0, 67, 92
2, 157824, Note_off_c, 0, 67, 64
2, 157824, Note_on_c, 0, 66, 92
2, 158208, Note_off_c, 0, 66, 64
2, 158208, Note_on_c, 0, 67, 92
2, 158592, Note_off_c, 0, 67, 64
2, 158592, Note_on_c, 0, 69, 92
2, 158976, Note_off_c, 0, 69, 64
2, 158976, Note_off_c, 0, 71, 64
2, 158976, Note_on_c, 0, 71, 92
2, 159360, Note_off_c, 0, 71, 64
2, 159360, Note_on_c, 0, 69, 92
2, 159744, Note_off_c, 0, 69, 64
2, 159744, Note_on_c, 0, 67, 92
2, 160128, Note_off_c, 0, 67, 64
2, 160128, Note_on_c, 0, 66, 92
2, 160896, Note_off_c, 0, 66, 64
2, 160896, Note_on_c, 0, 64, 92
2, 161280, Note_off_c, 0, 64, 64
2, 161280, Note_on_c, 0, 63, 92
2, 162432, Note_off_c, 0, 63, 64
2, 162432, Note_on_c, 0, 64, 92
2, 162816, Note_off_c, 0, 64, 64
2, 162816, Note_on_c, 0, 71, 92
2, 163200, Note_off_c, 0, 71, 64
2, 163200, Note_on_c, 0, 69, 92
2, 163584, Note_off_c, 0, 69, 64
2, 163584, Note_on_c, 0, 67, 92
2, 163968, Note_on_c, 0, 76, 92
2, 164352, Note_off_c, 0, 76, 64
2, 164352, Note_on_c, 0, 74, 92
2, 164736, Note_off_c, 0, 74, 64
2, 164736, Note_on_c, 0, 73, 92
2, 164928, Note_off_c, 0, 73, 64
2, 164928, Note_on_c, 0, 71, 92
2, 165120, Note_off_c, 0, 71, 64
2, 165120, Note_off_c, 0, 67, 64
2, 165120, Note_on_c, 0, 66, 92
2, 165120, Note_on_c, 0, 70, 92
2, 165168, Note_off_c, 0, 70, 64
2, 165168, Note_on_c, 0, 71, 92
2, 165216, Note_off_c, 0, 71, 64
2, 165216, Note_on_c, 0, 70, 92
2, 165504, Note_off_c, 0, 66, 64
2, 165504, Note_on_c, 0, 64, 92
2, 165696, Note_off_c, 0, 70, 64
2, 165696, Note_on_c, 0, 71, 92
2, 165888, Note_off_c, 0, 71, 64
2, 165888, Note_off_c, 0, 64, 64
2, 165888, Note_on_c, 0, 71, 92
2, 165888, Note_on_c, 0, 63, 92
2, 167040, Note_off_c, 0, 63, 64
2, 167040, Note_off_c, 0, 71, 64
2, 167040, End_track
3, 0, Start_track
3, 0, Title_t, "Track 2"
3, 0, Note_on_c, 0, 62, 92
3, 384, Note_off_c, 0, 62, 64
3, 576, Note_on_c, 0, 71, 92
3, 672, Note_off_c, 0, 71, 64
3, 672, Note_on_c, 0, 69, 92
3, 768, Note_off_c, 0, 69, 64
3, 768, Note_on_c, 0, 71, 92
3, 960, Note_off_c, 0, 71, 64
3, 960, Note_on_c, 0, 67, 92
3, 1056, Note_off_c, 0, 67, 64
3, 1056, Note_on_c, 0, 66, 92
3, 1152, Note_off_c, 0, 66, 64
3, 1152, Note_on_c, 0, 67, 92
3, 1344, Note_off_c, 0, 67, 64
3, 1344, Note_on_c, 0, 66, 92
3, 1440, Note_off_c, 0, 66, 64
3, 1440, Note_on_c, 0, 64, 92
3, 1536, Note_off_c, 0, 64, 64
3, 1536, Note_on_c, 0, 66, 92
3, 2112, Note_off_c, 0, 66, 64
3, 2112, Note_on_c, 0, 64, 92
3, 2208, Note_off_c, 0, 64, 64
3, 2208, Note_on_c, 0, 62, 92
3, 2304, Note_off_c, 0, 62, 64
3, 2304, Note_on_c, 0, 64, 92
3, 3072, Note_off_c, 0, 64, 64
3, 3072, Note_on_c, 0, 66, 92
3, 3456, Note_off_c, 0, 66, 64
3, 3648, Note_on_c, 0, 62, 92
3, 3744, Note_off_c, 0, 62, 64
3, 3744, Note_on_c, 0, 61, 92
3, 3840, Note_off_c, 0, 61, 64
3, 3840, Note_on_c, 0, 62, 92
3, 4800, Note_off_c, 0, 62, 64
3, 4800, Note_on_c, 0, 61, 92
3, 4896, Note_off_c, 0, 61, 64
3, 4896, Note_on_c, 0, 59, 92
3, 4992, Note_off_c, 0, 59, 64
3, 4992, Note_on_c, 0, 64, 92
3, 6720, Note_off_c, 0, 64, 64
3, 6720, Note_on_c, 0, 62, 92
3, 6816, Note_off_c, 0, 62, 64
3, 6816, Note_on_c, 0, 61, 92
3, 6912, Note_off_c, 0, 61, 64
3, 6912, Note_on_c, 0, 66, 92
3, 7680, Note_off_c, 0, 66, 64
3, 7680, Note_on_c, 0, 62, 92
3, 8448, Note_off_c, 0, 62, 64
3, 8640, Note_on_c, 0, 62, 92
3, 8736, Note_off_c, 0, 62, 64
3, 8736, Note_on_c, 0, 61, 92
3, 8832, Note_off_c, 0, 61, 64
3, 8832, Note_on_c, 0, 62, 92
3, 9600, Note_off_c, 0, 62, 64
3, 9600, Note_on_c, 0, 61, 92
3, 10368, Note_off_c, 0, 61, 64
3, 10368, Note_on_c, 0, 66, 92
3, 11136, Note_off_c, 0, 66, 64
3, 11136, Note_on_c, 0, 68, 92
3, 11904, Note_off_c, 0, 68, 64
3, 12096, Note_on_c, 0, 68, 92
3, 12192, Note_off_c, 0, 68, 64
3, 12192, Note_on_c, 0, 66, 92
3, 12288, Note_off_c, 0, 66, 64
3, 12288, Note_on_c, 0, 65, 92
3, 13056, Note_off_c, 0, 65, 64
3, 13056, Note_on_c, 0, 66, 92
3, 13440, Note_off_c, 0, 66, 64
3, 15168, Note_on_c, 0, 54, 92
3, 15264, Note_off_c, 0, 54, 64
3, 15264, Note_on_c, 0, 55, 92
3, 15360, Note_off_c, 0, 55, 64
3, 15360, Note_on_c, 0, 57, 92
3, 15936, Note_off_c, 0, 57, 64
3, 15936, Note_on_c, 0, 54, 92
3, 16032, Note_off_c, 0, 54, 64
3, 16032, Note_on_c, 0, 52, 92
3, 16128, Note_off_c, 0, 52, 64
3, 16128, Note_on_c, 0, 50, 92
3, 16512, Note_off_c, 0, 50, 64
3, 16512, Note_on_c, 0, 55, 92
3, 17088, Note_off_c, 0, 55, 64
3, 17088, Note_on_c, 0, 52, 92
3, 17280, Note_off_c, 0, 52, 64
3, 17280, Note_on_c, 0, 57, 92
3, 17856, Note_off_c, 0, 57, 64
3, 17856, Note_on_c, 0, 54, 92
3, 18048, Note_off_c, 0, 54, 64
3, 18048, Note_on_c, 0, 59, 92
3, 18624, Note_off_c, 0, 59, 64
3, 18624, Note_on_c, 0, 61, 92
3, 18720, Note_off_c, 0, 61, 64
3, 18720, Note_on_c, 0, 62, 92
3, 18816, Note_off_c, 0, 62, 64
3, 18816, Note_on_c, 0, 64, 92
3, 19584, Note_off_c, 0, 64, 64
3, 19584, Note_on_c, 0, 62, 92
3, 19968, Note_off_c, 0, 62, 64
3, 19968, Note_on_c, 0, 61, 92
3, 20352, Note_off_c, 0, 61, 64
3, 20928, Note_on_c, 0, 59, 92
3, 21024, Note_off_c, 0, 59, 64
3, 21024, Note_on_c, 0, 57, 92
3, 21120, Note_off_c, 0, 57, 64
3, 21120, Note_on_c, 0, 60, 92
3, 21312, Note_off_c, 0, 60, 64
3, 21312, Note_on_c, 0, 59, 92
3, 21408, Note_off_c, 0, 59, 64
3, 21408, Note_on_c, 0, 57, 92
3, 21504, Note_off_c, 0, 57, 64
3, 21504, Note_on_c, 0, 59, 92
3, 22080, Note_off_c, 0, 59, 64
3, 22080, Note_on_c, 0, 55, 92
3, 22176, Note_off_c, 0, 55, 64
3, 22176, Note_on_c, 0, 54, 92
3, 22272, Note_off_c, 0, 54, 64
3, 22272, Note_on_c, 0, 55, 92
3, 22464, Note_off_c, 0, 55, 64
3, 22464, Note_on_c, 0, 52, 92
3, 22560, Note_off_c, 0, 52, 64
3, 22560, Note_on_c, 0, 54, 92
3, 22656, Note_off_c, 0, 54, 64
3, 22656, Note_on_c, 0, 55, 92
3, 22848, Note_off_c, 0, 55, 64
3, 22848, Note_on_c, 0, 47, 92
3, 22944, Note_off_c, 0, 47, 64
3, 22944, Note_on_c, 0, 51, 92
3, 23040, Note_off_c, 0, 51, 64
3, 23040, Note_on_c, 0, 52, 92
3, 23232, Note_off_c, 0, 52, 64
3, 23520, Note_on_c, 0, 64, 92
3, 23616, Note_off_c, 0, 64, 64
3, 23616, Note_on_c, 0, 67, 92
3, 23712, Note_off_c, 0, 67, 64
3, 23712, Note_on_c, 0, 59, 92
3, 23808, Note_off_c, 0, 59, 64
3, 23808, Note_on_c, 0, 60, 92
3, 24192, Note_off_c, 0, 60, 64
3, 24288, Note_on_c, 0, 60, 92
3, 24384, Note_off_c, 0, 60, 64
3, 24384, Note_on_c, 0, 59, 92
3, 24480, Note_off_c, 0, 59, 64
3, 24480, Note_on_c, 0, 57, 92
3, 24576, Note_off_c, 0, 57, 64
3, 24576, Note_on_c, 0, 59, 92
3, 24960, Note_off_c, 0, 59, 64
3, 25056, Note_on_c, 0, 59, 92
3, 25152, Note_off_c, 0, 59, 64
3, 25152, Note_on_c, 0, 64, 92
3, 25248, Note_off_c, 0, 64, 64
3, 25248, Note_on_c, 0, 55, 92
3, 25344, Note_off_c, 0, 55, 64
3, 25344, Note_on_c, 0, 57, 92
3, 25728, Note_off_c, 0, 57, 64
3, 25728, Note_on_c, 0, 54, 92
3, 25824, Note_off_c, 0, 54, 64
3, 25824, Note_on_c, 0, 57, 92
3, 25920, Note_off_c, 0, 57, 64
3, 25920, Note_on_c, 0, 55, 92
3, 26016, Note_off_c, 0, 55, 64
3, 26016, Note_on_c, 0, 54, 92
3, 26112, Note_off_c, 0, 54, 64
3, 26112, Note_on_c, 0, 55, 92
3, 26496, Note_off_c, 0, 55, 64
3, 28416, Note_on_c, 0, 61, 92
3, 28800, Note_off_c, 0, 61, 64
3, 28992, Note_on_c, 0, 61, 92
3, 29184, Note_off_c, 0, 61, 64
3, 29184, Note_on_c, 0, 59, 92
3, 30144, Note_off_c, 0, 59, 64
3, 30144, Note_on_c, 0, 58, 92
3, 30336, Note_off_c, 0, 58, 64
3, 30336, Note_on_c, 0, 62, 92
3, 30720, Note_off_c, 0, 62, 64
3, 30720, Note_on_c, 0, 61, 92
3, 31104, Note_off_c, 0, 61, 64
3, 31104, Note_on_c, 0, 59, 92
3, 31296, Note_off_c, 0, 59, 64
3, 31296, Note_on_c, 0, 58, 92
3, 31488, Note_off_c, 0, 58, 64
3, 31488, Note_on_c, 0, 59, 92
3, 31680, Note_off_c, 0, 59, 64
3, 31680, Note_on_c, 0, 61, 92
3, 31872, Note_off_c, 0, 61, 64
3, 31872, Note_on_c, 0, 62, 92
3, 32064, Note_off_c, 0, 62, 64
3, 32064, Note_on_c, 0, 64, 92
3, 32256, Note_off_c, 0, 64, 64
3, 32256, Note_on_c, 0, 62, 92
3, 32640, Note_off_c, 0, 62, 64
3, 32640, Note_on_c, 0, 61, 92
3, 33024, Note_off_c, 0, 61, 64
3, 33024, Note_on_c, 0, 59, 92
3, 33792, Note_off_c, 0, 59, 64
3, 33792, Note_on_c, 0, 58, 92
3, 33984, Note_off_c, 0, 58, 64
3, 33984, Note_on_c, 0, 64, 92
3, 34176, Note_off_c, 0, 64, 64
3, 34176, Note_on_c, 0, 62, 92
3, 34368, Note_off_c, 0, 62, 64
3, 34368, Note_on_c, 0, 61, 92
3, 34560, Note_off_c, 0, 61, 64
3, 34560, Note_on_c, 0, 61, 92
3, 35328, Note_off_c, 0, 61, 64
3, 35328, Note_on_c, 0, 63, 92
3, 36864, Note_off_c, 0, 63, 64
3, 43008, Note_on_c, 0, 59, 92
3, 43392, Note_off_c, 0, 59, 64
3, 43392, Note_on_c, 0, 61, 92
3, 43776, Note_off_c, 0, 61, 64
3, 43776, Note_on_c, 0, 62, 92
3, 44160, Note_off_c, 0, 62, 64
3, 44160, Note_on_c, 0, 61, 92
3, 44544, Note_off_c, 0, 61, 64
3, 44544, Note_on_c, 0, 59, 92
3, 44928, Note_off_c, 0, 59, 64
3, 44928, Note_on_c, 0, 66, 92
3, 46080, Note_off_c, 0, 66, 64
3, 46080, Note_on_c, 0, 54, 92
3, 47232, Note_off_c, 0, 54, 64
3, 47232, Note_on_c, 0, 55, 92
3, 47616, Note_off_c, 0, 55, 64
3, 47616, Note_on_c, 0, 67, 92
3, 48000, Note_off_c, 0, 67, 64
3, 48000, Note_on_c, 0, 66, 92
3, 48384, Note_off_c, 0, 66, 64
3, 48384, Note_on_c, 0, 64, 92
3, 49152, Note_off_c, 0, 64, 64
3, 49536, Note_on_c, 0, 64, 92
3, 50304, Note_off_c, 0, 64, 64
3, 50688, Note_on_c, 0, 66, 92
3, 54528, Note_off_c, 0, 66, 64
3, 54528, Note_on_c, 0, 64, 92
3, 54912, Note_off_c, 0, 64, 64
3, 54912, Note_on_c, 0, 62, 92
3, 55296, Note_off_c, 0, 62, 64
3, 55296, Note_on_c, 0, 67, 92
3, 56064, Note_off_c, 0, 67, 64
3, 56064, Note_on_c, 0, 66, 92
3, 56448, Note_off_c, 0, 66, 64
3, 56448, Note_on_c, 0, 64, 92
3, 56832, Note_off_c, 0, 64, 64
3, 56832, Note_on_c, 0, 67, 92
3, 57216, Note_off_c, 0, 67, 64
3, 57216, Note_on_c, 0, 66, 92
3, 57600, Note_off_c, 0, 66, 64
3, 57600, Note_on_c, 0, 64, 92
3, 58752, Note_off_c, 0, 64, 64
3, 59136, Note_on_c, 0, 62, 92
3, 59520, Note_off_c, 0, 62, 64
3, 59520, Note_on_c, 0, 61, 92
3, 59904, Note_off_c, 0, 61, 64
3, 59904, Note_on_c, 0, 59, 92
3, 60288, Note_off_c, 0, 59, 64
3, 60288, Note_on_c, 0, 61, 92
3, 60672, Note_off_c, 0, 61, 64
3, 60672, Note_on_c, 0, 62, 92
3, 61056, Note_off_c, 0, 62, 64
3, 61056, Note_on_c, 0, 64, 92
3, 62592, Note_off_c, 0, 64, 64
3, 62592, Note_on_c, 0, 62, 92
3, 62976, Note_off_c, 0, 62, 64
3, 62976, Note_on_c, 0, 61, 92
3, 63360, Note_off_c, 0, 61, 64
3, 63360, Note_on_c, 0, 62, 92
3, 64512, Note_off_c, 0, 62, 64
3, 64512, Note_on_c, 0, 64, 92
3, 65664, Note_off_c, 0, 64, 64
3, 65664, Note_on_c, 0, 57, 92
3, 66816, Note_off_c, 0, 57, 64
3, 66816, Note_on_c, 0, 62, 92
3, 67968, Note_off_c, 0, 62, 64
3, 67968, Note_on_c, 0, 61, 92
3, 69120, Note_off_c, 0, 61, 64
3, 69504, Note_on_c, 0, 59, 92
3, 69888, Note_off_c, 0, 59, 64
3, 69888, Note_on_c, 0, 61, 92
3, 70272, Note_off_c, 0, 61, 64
3, 70272, Note_on_c, 0, 62, 92
3, 70656, Note_off_c, 0, 62, 64
3, 70656, Note_on_c, 0, 61, 92
3, 71040, Note_off_c, 0, 61, 64
3, 71040, Note_on_c, 0, 59, 92
3, 71424, Note_off_c, 0, 59, 64
3, 71424, Note_on_c, 0, 61, 92
3, 71808, Note_off_c, 0, 61, 64
3, 71808, Note_on_c, 0, 66, 92
3, 72192, Note_off_c, 0, 66, 64
3, 72192, Note_on_c, 0, 64, 92
3, 72576, Note_off_c, 0, 64, 64
3, 72576, Note_on_c, 0, 63, 92
3, 72960, Note_off_c, 0, 63, 64
3, 72960, Note_on_c, 0, 59, 92
3, 73344, Note_off_c, 0, 59, 64
3, 73344, Note_on_c, 0, 64, 92
3, 73728, Note_off_c, 0, 64, 64
3, 73728, Note_on_c, 0, 61, 92
3, 74880, Note_off_c, 0, 61, 64
3, 74880, Note_on_c, 0, 62, 92
3, 75456, Note_off_c, 0, 62, 64
3, 75456, Note_on_c, 0, 64, 92
3, 75648, Note_off_c, 0, 64, 64
3, 75648, Note_on_c, 0, 66, 92
3, 76032, Note_off_c, 0, 66, 64
3, 76032, Note_on_c, 0, 64, 92
3, 77184, Note_off_c, 0, 64, 64
3, 81024, Note_on_c, 0, 67, 92
3, 81408, Note_off_c, 0, 67, 64
3, 81408, Note_on_c, 0, 67, 92
3, 82176, Note_off_c, 0, 67, 64
3, 82176, Note_on_c, 0, 69, 92
3, 82560, Note_off_c, 0, 69, 64
3, 82560, Note_on_c, 0, 69, 92
3, 83328, Note_off_c, 0, 69, 64
3, 83328, Note_on_c, 0, 67, 92
3, 83712, Note_off_c, 0, 67, 64
3, 83712, Note_on_c, 0, 67, 92
3, 84864, Note_off_c, 0, 67, 64
3, 84864, Note_on_c, 0, 66, 92
3, 85248, Note_off_c, 0, 66, 64
3, 85248, Note_on_c, 0, 67, 92
3, 85632, Note_off_c, 0, 67, 64
3, 85632, Note_on_c, 0, 69, 92
3, 86016, Note_off_c, 0, 69, 64
3, 86016, Note_on_c, 0, 57, 92
3, 86400, Note_off_c, 0, 57, 64
3, 86400, Note_on_c, 0, 62, 92
3, 86784, Note_off_c, 0, 62, 64
3, 91392, Note_on_c, 0, 59, 92
3, 91776, Note_off_c, 0, 59, 64
3, 91776, Note_on_c, 0, 57, 92
3, 92160, Note_off_c, 0, 57, 64
3, 92160, Note_on_c, 0, 56, 92
3, 92544, Note_off_c, 0, 56, 64
3, 92544, Note_on_c, 0, 54, 92
3, 92928, Note_off_c, 0, 54, 64
3, 92928, Note_on_c, 0, 56, 92
3, 93312, Note_off_c, 0, 56, 64
3, 93312, Note_on_c, 0, 57, 92
3, 94080, Note_off_c, 0, 57, 64
3, 94080, Note_on_c, 0, 57, 92
3, 94464, Note_off_c, 0, 57, 64
3, 94464, Note_on_c, 0, 59, 92
3, 94848, Note_off_c, 0, 59, 64
3, 94848, Note_on_c, 0, 59, 92
3, 95232, Note_off_c, 0, 59, 64
3, 95232, Note_on_c, 0, 57, 92
3, 95616, Note_off_c, 0, 57, 64
3, 95616, Note_on_c, 0, 55, 92
3, 96384, Note_off_c, 0, 55, 64
3, 96384, Note_on_c, 0, 57, 92
3, 96768, Note_off_c, 0, 57, 64
3, 96768, Note_on_c, 0, 59, 92
3, 97536, Note_off_c, 0, 59, 64
3, 97536, Note_on_c, 0, 61, 92
3, 97920, Note_off_c, 0, 61, 64
3, 97920, Note_on_c, 0, 62, 92
3, 99456, Note_off_c, 0, 62, 64
3, 99456, Note_on_c, 0, 61, 92
3, 99840, Note_off_c, 0, 61, 64
3, 99840, Note_on_c, 0, 59, 92
3, 100224, Note_off_c, 0, 59, 64
3, 100224, Note_on_c, 0, 54, 92
3, 102528, Note_off_c, 0, 54, 64
3, 102912, Note_on_c, 0, 59, 92
3, 104064, Note_off_c, 0, 59, 64
3, 104064, Note_on_c, 0, 59, 92
3, 104448, Note_off_c, 0, 59, 64
3, 104448, Note_on_c, 0, 57, 92
3, 104832, Note_off_c, 0, 57, 64
3, 104832, Note_on_c, 0, 55, 92
3, 105216, Note_off_c, 0, 55, 64
3, 105216, Note_on_c, 0, 61, 92
3, 105600, Note_off_c, 0, 61, 64
3, 105600, Note_on_c, 0, 62, 92
3, 105984, Note_off_c, 0, 62, 64
3, 105984, Note_on_c, 0, 64, 92
3, 106368, Note_off_c, 0, 64, 64
3, 106368, Note_on_c, 0, 61, 92
3, 106752, Note_off_c, 0, 61, 64
3, 106752, Note_on_c, 0, 59, 92
3, 107136, Note_off_c, 0, 59, 64
3, 107136, Note_on_c, 0, 58, 92
3, 107904, Note_off_c, 0, 58, 64
3, 107904, Note_on_c, 0, 59, 92
3, 108288, Note_off_c, 0, 59, 64
3, 108288, Note_on_c, 0, 61, 92
3, 109440, Note_off_c, 0, 61, 64
3, 109440, Note_on_c, 0, 59, 92
3, 109824, Note_off_c, 0, 59, 64
3, 109824, Note_on_c, 0, 61, 92
3, 110208, Note_off_c, 0, 61, 64
3, 110208, Note_on_c, 0, 62, 92
3, 110592, Note_off_c, 0, 62, 64
3, 110592, Note_on_c, 0, 61, 92
3, 110976, Note_off_c, 0, 61, 64
3, 110976, Note_on_c, 0, 59, 92
3, 111360, Note_off_c, 0, 59, 64
3, 111360, Note_on_c, 0, 61, 92
3, 111744, Note_off_c, 0, 61, 64
3, 111744, Note_on_c, 0, 62, 92
3, 112512, Note_off_c, 0, 62, 64
3, 112512, Note_on_c, 0, 61, 92
3, 112896, Note_off_c, 0, 61, 64
3, 112896, Note_on_c, 0, 59, 92
3, 113664, Note_off_c, 0, 59, 64
3, 113664, Note_on_c, 0, 54, 92
3, 114048, Note_off_c, 0, 54, 64
3, 114048, Note_on_c, 0, 55, 92
3, 114816, Note_off_c, 0, 55, 64
3, 114816, Note_on_c, 0, 54, 92
3, 115200, Note_off_c, 0, 54, 64
3, 115200, Note_on_c, 0, 52, 92
3, 115584, Note_off_c, 0, 52, 64
3, 115584, Note_on_c, 0, 57, 92
3, 116352, Note_off_c, 0, 57, 64
3, 116352, Note_on_c, 0, 50, 92
3, 116736, Note_off_c, 0, 50, 64
3, 116736, Note_on_c, 0, 62, 92
3, 117504, Note_off_c, 0, 62, 64
3, 117888, Note_on_c, 0, 57, 92
3, 118272, Note_off_c, 0, 57, 64
3, 118272, Note_on_c, 0, 59, 92
3, 118656, Note_off_c, 0, 59, 64
3, 118656, Note_on_c, 0, 61, 92
3, 119424, Note_off_c, 0, 61, 64
3, 119424, Note_on_c, 0, 63, 92
3, 119808, Note_off_c, 0, 63, 64
3, 119808, Note_on_c, 0, 64, 92
3, 120960, Note_off_c, 0, 64, 64
3, 120960, Note_on_c, 0, 62, 92
3, 121344, Note_off_c, 0, 62, 64
3, 121344, Note_on_c, 0, 64, 92
3, 121728, Note_off_c, 0, 64, 64
3, 121728, Note_on_c, 0, 66, 92
3, 122112, Note_off_c, 0, 66, 64
3, 122112, Note_on_c, 0, 64, 92
3, 122496, Note_off_c, 0, 64, 64
3, 122496, Note_on_c, 0, 62, 92
3, 122880, Note_off_c, 0, 62, 64
3, 122880, Note_on_c, 0, 61, 92
3, 123264, Note_off_c, 0, 61, 64
3, 123264, Note_on_c, 0, 54, 92
3, 124032, Note_off_c, 0, 54, 64
3, 124032, Note_on_c, 0, 59, 92
3, 124416, Note_off_c, 0, 59, 64
3, 124416, Note_on_c, 0, 55, 92
3, 124800, Note_off_c, 0, 55, 64
3, 124800, Note_on_c, 0, 59, 92
3, 125184, Note_off_c, 0, 59, 64
3, 125184, Note_on_c, 0, 54, 92
3, 125952, Note_off_c, 0, 54, 64
3, 125952, Note_on_c, 0, 61, 92
3, 126336, Note_off_c, 0, 61, 64
3, 126336, Note_on_c, 0, 59, 92
3, 126720, Note_off_c, 0, 59, 64
3, 126720, Note_on_c, 0, 64, 92
3, 127104, Note_off_c, 0, 64, 64
3, 127104, Note_on_c, 0, 62, 92
3, 127488, Note_off_c, 0, 62, 64
3, 127488, Note_on_c, 0, 61, 92
3, 127872, Note_off_c, 0, 61, 64
3, 127872, Note_on_c, 0, 62, 92
3, 128256, Note_off_c, 0, 62, 64
3, 128256, Note_on_c, 0, 62, 92
3, 128640, Note_off_c, 0, 62, 64
3, 128640, Note_on_c, 0, 64, 92
3, 129024, Note_off_c, 0, 64, 64
3, 129024, Note_on_c, 0, 66, 92
3, 129408, Note_off_c, 0, 66, 64
3, 129408, Note_on_c, 0, 64, 92
3, 129792, Note_off_c, 0, 64, 64
3, 129792, Note_on_c, 0, 62, 92
3, 130176, Note_off_c, 0, 62, 64
3, 130176, Note_on_c, 0, 61, 92
3, 130560, Note_off_c, 0, 61, 64
3, 130560, Note_on_c, 0, 61, 92
3, 130944, Note_off_c, 0, 61, 64
3, 130944, Note_on_c, 0, 63, 92
3, 131328, Note_off_c, 0, 63, 64
3, 131328, Note_on_c, 0, 64, 92
3, 132096, Note_off_c, 0, 64, 64
3, 132096, Note_on_c, 0, 66, 92
3, 132480, Note_off_c, 0, 66, 64
3, 132480, Note_on_c, 0, 67, 92
3, 132864, Note_off_c, 0, 67, 64
3, 132864, Note_on_c, 0, 66, 92
3, 133248, Note_off_c, 0, 66, 64
3, 133248, Note_on_c, 0, 64, 92
3, 133632, Note_off_c, 0, 64, 64
3, 133632, Note_on_c, 0, 62, 92
3, 134016, Note_off_c, 0, 62, 64
3, 134016, Note_on_c, 0, 59, 92
3, 134400, Note_off_c, 0, 59, 64
3, 134400, Note_on_c, 0, 54, 92
3, 134784, Note_off_c, 0, 54, 64
3, 134784, Note_on_c, 0, 52, 92
3, 135168, Note_off_c, 0, 52, 64
3, 135168, Note_on_c, 0, 57, 92
3, 135552, Note_off_c, 0, 57, 64
3, 135552, Note_on_c, 0, 69, 92
3, 135936, Note_off_c, 0, 69, 64
3, 135936, Note_on_c, 0, 62, 92
3, 136320, Note_off_c, 0, 62, 64
3, 136320, Note_on_c, 0, 66, 92
3, 136704, Note_off_c, 0, 66, 64
3, 136704, Note_on_c, 0, 67, 92
3, 137088, Note_off_c, 0, 67, 64
3, 137088, Note_on_c, 0, 61, 92
3, 137472, Note_off_c, 0, 61, 64
3, 137472, Note_on_c, 0, 64, 92
3, 137856, Note_off_c, 0, 64, 64
3, 137856, Note_on_c, 0, 66, 92
3, 138240, Note_off_c, 0, 66, 64
3, 138240, Note_on_c, 0, 59, 92
3, 138624, Note_off_c, 0, 59, 64
3, 138624, Note_on_c, 0, 62, 92
3, 139008, Note_off_c, 0, 62, 64
3, 139008, Note_on_c, 0, 64, 92
3, 139392, Note_off_c, 0, 64, 64
3, 139392, Note_on_c, 0, 57, 92
3, 139776, Note_off_c, 0, 57, 64
3, 139776, Note_on_c, 0, 61, 92
3, 140160, Note_off_c, 0, 61, 64
3, 140160, Note_on_c, 0, 62, 92
3, 140544, Note_off_c, 0, 62, 64
3, 140544, Note_on_c, 0, 55, 92
3, 141312, Note_off_c, 0, 55, 64
3, 141312, Note_on_c, 0, 59, 92
3, 141696, Note_off_c, 0, 59, 64
3, 141696, Note_on_c, 0, 61, 92
3, 142464, Note_off_c, 0, 61, 64
3, 142464, Note_on_c, 0, 59, 92
3, 142848, Note_off_c, 0, 59, 64
3, 142848, Note_on_c, 0, 59, 92
3, 146304, Note_off_c, 0, 59, 64
3, 146304, Note_on_c, 0, 58, 92
3, 147072, Note_off_c, 0, 58, 64
3, 147072, Note_on_c, 0, 59, 92
3, 148224, Note_off_c, 0, 59, 64
3, 148224, Note_on_c, 0, 58, 92
3, 148608, Note_off_c, 0, 58, 64
3, 148608, Note_on_c, 0, 59, 92
3, 149760, Note_off_c, 0, 59, 64
3, 149760, Note_on_c, 0, 64, 92
3, 150144, Note_off_c, 0, 64, 64
3, 150144, Note_on_c, 0, 61, 92
3, 150912, Note_off_c, 0, 61, 64
3, 150912, Note_on_c, 0, 63, 92
3, 151296, Note_off_c, 0, 63, 64
3, 155904, Note_on_c, 0, 59, 92
3, 156288, Note_off_c, 0, 59, 64
3, 156288, Note_on_c, 0, 57, 92
3, 156672, Note_off_c, 0, 57, 64
3, 156672, Note_on_c, 0, 55, 92
3, 157056, Note_off_c, 0, 55, 64
3, 157056, Note_on_c, 0, 54, 92
3, 157440, Note_off_c, 0, 54, 64
3, 157440, Note_on_c, 0, 52, 92
3, 157824, Note_off_c, 0, 52, 64
3, 157824, Note_on_c, 0, 51, 92
3, 158976, Note_off_c, 0, 51, 64
3, 158976, Note_on_c, 0, 52, 92
3, 159360, Note_off_c, 0, 52, 64
3, 159360, Note_on_c, 0, 54, 92
3, 159744, Note_off_c, 0, 54, 64
3, 159744, Note_on_c, 0, 55, 92
3, 160128, Note_off_c, 0, 55, 64
3, 160128, Note_on_c, 0, 57, 92
3, 160512, Note_off_c, 0, 57, 64
3, 160512, Note_on_c, 0, 55, 92
3, 161280, Note_off_c, 0, 55, 64
3, 161280, Note_on_c, 0, 54, 92
3, 162432, Note_off_c, 0, 54, 64
3, 162432, Note_on_c, 0, 59, 92
3, 164736, Note_off_c, 0, 59, 64
3, 164736, Note_on_c, 0, 64, 92
3, 164928, Note_off_c, 0, 64, 64
3, 164928, Note_on_c, 0, 62, 92
3, 165120, Note_off_c, 0, 62, 64
3, 165120, Note_on_c, 0, 61, 92
3, 165888, Note_off_c, 0, 61, 64
3, 165888, Note_on_c, 0, 59, 92
3, 167040, Note_off_c, 0, 59, 64
3, 167040, End_track
4, 0, Start_track
4, 0, Title_t, "Track 3"
4, 0, Note_on_c, 0, 59, 102
4, 384, Note_off_c, 0, 59, 64
4, 1536, Note_on_c, 0, 59, 102
4, 1920, Note_off_c, 0, 59, 64
4, 2304, Note_on_c, 0, 61, 102
4, 2688, Note_off_c, 0, 61, 64
4, 3264, Note_on_c, 0, 59, 102
4, 3360, Note_off_c, 0, 59, 64
4, 3360, Note_on_c, 0, 58, 102
4, 3456, Note_off_c, 0, 58, 64
4, 3456, Note_on_c, 0, 59, 102
4, 4608, Note_off_c, 0, 59, 64
4, 4608, Note_on_c, 0, 55, 102
4, 5760, Note_off_c, 0, 55, 64
4, 5760, Note_on_c, 0, 56, 102
4, 6144, Note_off_c, 0, 56, 64
4, 6144, Note_on_c, 0, 57, 102
4, 7104, Note_off_c, 0, 57, 64
4, 7104, Note_on_c, 0, 57, 102
4, 7200, Note_off_c, 0, 57, 64
4, 7200, Note_on_c, 0, 56, 102
4, 7296, Note_off_c, 0, 56, 64
4, 7296, Note_on_c, 0, 54, 102
4, 7488, Note_off_c, 0, 54, 64
4, 7488, Note_on_c, 0, 56, 102
4, 7584, Note_off_c, 0, 56, 64
4, 7584, Note_on_c, 0, 57, 102
4, 7680, Note_off_c, 0, 57, 64
4, 7680, Note_on_c, 0, 59, 102
4, 8832, Note_off_c, 0, 59, 64
4, 9024, Note_on_c, 0, 56, 102
4, 9120, Note_off_c, 0, 56, 64
4, 9120, Note_on_c, 0, 54, 102
4, 9216, Note_off_c, 0, 54, 64
4, 9216, Note_on_c, 0, 53, 102
4, 9984, Note_off_c, 0, 53, 64
4, 9984, Note_on_c, 0, 54, 102
4, 10752, Note_off_c, 0, 54, 64
4, 10752, Note_on_c, 0, 59, 102
4, 11520, Note_off_c, 0, 59, 64
4, 11520, Note_on_c, 0, 61, 102
4, 11904, Note_off_c, 0, 61, 64
4, 12672, Note_on_c, 0, 61, 102
4, 13056, Note_off_c, 0, 61, 64
4, 13056, Note_on_c, 0, 54, 102
4, 13824, Note_off_c, 0, 54, 64
4, 13824, Note_on_c, 0, 55, 102
4, 14208, Note_off_c, 0, 55, 64
4, 14208, Note_on_c, 0, 52, 102
4, 14592, Note_off_c, 0, 52, 64
4, 14592, Note_on_c, 0, 45, 102
4, 16128, Note_off_c, 0, 45, 64
4, 16128, Note_on_c, 0, 47, 102
4, 16896, Note_off_c, 0, 47, 64
4, 16896, Note_on_c, 0, 48, 102
4, 17280, Note_off_c, 0, 48, 64
4, 17280, Note_on_c, 0, 49, 102
4, 17664, Note_off_c, 0, 49, 64
4, 17664, Note_on_c, 0, 50, 102
4, 18048, Note_off_c, 0, 50, 64
4, 18048, Note_on_c, 0, 47, 102
4, 18432, Note_off_c, 0, 47, 64
4, 18432, Note_on_c, 0, 52, 102
4, 19200, Note_off_c, 0, 52, 64
4, 19200, Note_on_c, 0, 52, 102
4, 19584, Note_off_c, 0, 52, 64
4, 19584, Note_on_c, 0, 53, 102
4, 19968, Note_off_c, 0, 53, 64
4, 19968, Note_on_c, 0, 54, 102
4, 20352, Note_off_c, 0, 54, 64
4, 20352, Note_on_c, 0, 46, 102
4, 20736, Note_off_c, 0, 46, 64
4, 20736, Note_on_c, 0, 47, 102
4, 21120, Note_off_c, 0, 47, 64
4, 21120, Note_on_c, 0, 54, 102
4, 21504, Note_off_c, 0, 54, 64
4, 21504, Note_on_c, 0, 52, 102
4, 22272, Note_off_c, 0, 52, 64
4, 22272, Note_on_c, 0, 40, 102
4, 26496, Note_off_c, 0, 40, 64
4, 28416, Note_on_c, 0, 37, 102
4, 28800, Note_off_c, 0, 37, 64
4, 28992, Note_on_c, 0, 37, 102
4, 29184, Note_off_c, 0, 37, 64
4, 29184, Note_on_c, 0, 38, 102
4, 29568, Note_off_c, 0, 38, 64
4, 29568, Note_on_c, 0, 40, 102
4, 29952, Note_off_c, 0, 40, 64
4, 29952, Note_on_c, 0, 42, 102
4, 35328, Note_off_c, 0, 42, 64
4, 35328, Note_on_c, 0, 47, 102
4, 36864, Note_off_c, 0, 47, 64
4, 51072, Note_on_c, 0, 54, 102
4, 51456, Note_off_c, 0, 54, 64
4, 51456, Note_on_c, 0, 56, 102
4, 51840, Note_off_c, 0, 56, 64
4, 51840, Note_on_c, 0, 58, 102
4, 52224, Note_off_c, 0, 58, 64
4, 52224, Note_on_c, 0, 56, 102
4, 52608, Note_off_c, 0, 56, 64
4, 52608, Note_on_c, 0, 54, 102
4, 52992, Note_off_c, 0, 54, 64
4, 52992, Note_on_c, 0, 59, 102
4, 53376, Note_off_c, 0, 59, 64
4, 53376, Note_on_c, 0, 57, 102
4, 53760, Note_off_c, 0, 57, 64
4, 53760, Note_on_c, 0, 55, 102
4, 54144, Note_off_c, 0, 55, 64
4, 54144, Note_on_c, 0, 54, 102
4, 55296, Note_off_c, 0, 54, 64
4, 55296, Note_on_c, 0, 55, 102
4, 56448, Note_off_c, 0, 55, 64
4, 56448, Note_on_c, 0, 57, 102
4, 58752, Note_off_c, 0, 57, 64
4, 58752, Note_on_c, 0, 50, 102
4, 59904, Note_off_c, 0, 50, 64
4, 60288, Note_on_c, 0, 55, 102
4, 60672, Note_off_c, 0, 55, 64
4, 60672, Note_on_c, 0, 54, 102
4, 61056, Note_off_c, 0, 54, 64
4, 61056, Note_on_c, 0, 52, 102
4, 61440, Note_off_c, 0, 52, 64
4, 61440, Note_on_c, 0, 54, 102
4, 61824, Note_off_c, 0, 54, 64
4, 61824, Note_on_c, 0, 55, 102
4, 62208, Note_off_c, 0, 55, 64
4, 62208, Note_on_c, 0, 57, 102
4, 62976, Note_off_c, 0, 57, 64
4, 62976, Note_on_c, 0, 58, 102
4, 63360, Note_off_c, 0, 58, 64
4, 63360, Note_on_c, 0, 59, 102
4, 64512, Note_off_c, 0, 59, 64
4, 69504, Note_on_c, 0, 59, 102
4, 69888, Note_off_c, 0, 59, 64
4, 69888, Note_on_c, 0, 57, 102
4, 70272, Note_off_c, 0, 57, 64
4, 70272, Note_on_c, 0, 55, 102
4, 71040, Note_off_c, 0, 55, 64
4, 71040, Note_on_c, 0, 54, 102
4, 71424, Note_off_c, 0, 54, 64
4, 71424, Note_on_c, 0, 52, 102
4, 71808, Note_off_c, 0, 52, 64
4, 71808, Note_on_c, 0, 54, 102
4, 72576, Note_off_c, 0, 54, 64
4, 72576, Note_on_c, 0, 59, 102
4, 73344, Note_off_c, 0, 59, 64
4, 73344, Note_on_c, 0, 52, 102
4, 73728, Note_off_c, 0, 52, 64
4, 73728, Note_on_c, 0, 57, 102
4, 77184, Note_off_c, 0, 57, 64
4, 77568, Note_on_c, 0, 57, 102
4, 77952, Note_off_c, 0, 57, 64
4, 77952, Note_on_c, 0, 59, 102
4, 78336, Note_off_c, 0, 59, 64
4, 78336, Note_on_c, 0, 61, 102
4, 79104, Note_off_c, 0, 61, 64
4, 79104, Note_on_c, 0, 62, 102
4, 79488, Note_off_c, 0, 62, 64
4, 79488, Note_on_c, 0, 64, 102
4, 79872, Note_off_c, 0, 64, 64
4, 79872, Note_on_c, 0, 62, 102
4, 80256, Note_off_c, 0, 62, 64
4, 80256, Note_on_c, 0, 61, 102
4, 80640, Note_off_c, 0, 61, 64
4, 80640, Note_on_c, 0, 59, 102
4, 81792, Note_off_c, 0, 59, 64
4, 86784, Note_on_c, 0, 50, 102
4, 87168, Note_off_c, 0, 50, 64
4, 87168, Note_on_c, 0, 47, 102
4, 87552, Note_off_c, 0, 47, 64
4, 87552, Note_on_c, 0, 52, 102
4, 87936, Note_off_c, 0, 52, 64
4, 87936, Note_on_c, 0, 54, 102
4, 88320, Note_off_c, 0, 54, 64
4, 88320, Note_on_c, 0, 49, 102
4, 88704, Note_off_c, 0, 49, 64
4, 88704, Note_on_c, 0, 54, 102
4, 89088, Note_off_c, 0, 54, 64
4, 89088, Note_on_c, 0, 52, 102
4, 89472, Note_off_c, 0, 52, 64
4, 89472, Note_on_c, 0, 50, 102
4, 89856, Note_off_c, 0, 50, 64
4, 89856, Note_on_c, 0, 52, 102
4, 90240, Note_off_c, 0, 52, 64
4, 90240, Note_on_c, 0, 54, 102
4, 91008, Note_off_c, 0, 54, 64
4, 91008, Note_on_c, 0, 47, 102
4, 92160, Note_off_c, 0, 47, 64
4, 100608, Note_on_c, 0, 42, 102
4, 100992, Note_off_c, 0, 42, 64
4, 100992, Note_on_c, 0, 44, 102
4, 101376, Note_off_c, 0, 44, 64
4, 101376, Note_on_c, 0, 46, 102
4, 101760, Note_off_c, 0, 46, 64
4, 101760, Note_on_c, 0, 44, 102
4, 102144, Note_off_c, 0, 44, 64
4, 102144, Note_on_c, 0, 46, 102
4, 102528, Note_off_c, 0, 46, 64
4, 102528, Note_on_c, 0, 47, 102
4, 103296, Note_off_c, 0, 47, 64
4, 103296, Note_on_c, 0, 49, 102
4, 103680, Note_off_c, 0, 49, 64
4, 103680, Note_on_c, 0, 51, 102
4, 104064, Note_off_c, 0, 51, 64
4, 104064, Note_on_c, 0, 49, 102
4, 104448, Note_off_c, 0, 49, 64
4, 104448, Note_on_c, 0, 51, 102
4, 104832, Note_off_c, 0, 51, 64
4, 104832, Note_on_c, 0, 52, 102
4, 106368, Note_off_c, 0, 52, 64
4, 106368, Note_on_c, 0, 40, 102
4, 106752, Note_off_c, 0, 40, 64
4, 106752, Note_on_c, 0, 52, 102
4, 107136, Note_off_c, 0, 52, 64
4, 107136, Note_on_c, 0, 54, 102
4, 108672, Note_off_c, 0, 54, 64
4, 108672, Note_on_c, 0, 56, 102
4, 109056, Note_off_c, 0, 56, 64
4, 109056, Note_on_c, 0, 58, 102
4, 109440, Note_off_c, 0, 58, 64
4, 109440, Note_on_c, 0, 59, 102
4, 109824, Note_off_c, 0, 59, 64
4, 116736, Note_on_c, 0, 38, 102
4, 117120, Note_off_c, 0, 38, 64
4, 117120, Note_on_c, 0, 40, 102
4, 117504, Note_off_c, 0, 40, 64
4, 117504, Note_on_c, 0, 42, 102
4, 117888, Note_off_c, 0, 42, 64
4, 117888, Note_on_c, 0, 54, 102
4, 118272, Note_off_c, 0, 54, 64
4, 118272, Note_on_c, 0, 55, 102
4, 118656, Note_off_c, 0, 55, 64
4, 118656, Note_on_c, 0, 57, 102
4, 119040, Note_off_c, 0, 57, 64
4, 119040, Note_on_c, 0, 55, 102
4, 119424, Note_off_c, 0, 55, 64
4, 119424, Note_on_c, 0, 54, 102
4, 119808, Note_off_c, 0, 54, 64
4, 119808, Note_on_c, 0, 52, 102
4, 120192, Note_off_c, 0, 52, 64
4, 120192, Note_on_c, 0, 55, 102
4, 120576, Note_off_c, 0, 55, 64
4, 120576, Note_on_c, 0, 57, 102
4, 120960, Note_off_c, 0, 57, 64
4, 120960, Note_on_c, 0, 59, 102
4, 122112, Note_off_c, 0, 59, 64
4, 122112, Note_on_c, 0, 52, 102
4, 122880, Note_off_c, 0, 52, 64
4, 122880, Note_on_c, 0, 54, 102
4, 123264, Note_off_c, 0, 54, 64
4, 123264, Note_on_c, 0, 50, 102
4, 123648, Note_off_c, 0, 50, 64
4, 123648, Note_on_c, 0, 49, 102
4, 124032, Note_off_c, 0, 49, 64
4, 124032, Note_on_c, 0, 47, 102
4, 124416, Note_off_c, 0, 47, 64
4, 124416, Note_on_c, 0, 52, 102
4, 125184, Note_off_c, 0, 52, 64
4, 125184, Note_on_c, 0, 54, 102
4, 125568, Note_off_c, 0, 54, 64
4, 125568, Note_on_c, 0, 50, 102
4, 125952, Note_off_c, 0, 50, 64
4, 127872, Note_on_c, 0, 59, 102
4, 128256, Note_off_c, 0, 59, 64
4, 128256, Note_on_c, 0, 57, 102
4, 128640, Note_off_c, 0, 57, 64
4, 128640, Note_on_c, 0, 55, 102
4, 129024, Note_off_c, 0, 55, 64
4, 129024, Note_on_c, 0, 54, 102
4, 129792, Note_off_c, 0, 54, 64
4, 129792, Note_on_c, 0, 55, 102
4, 130176, Note_off_c, 0, 55, 64
4, 130176, Note_on_c, 0, 57, 102
4, 130560, Note_off_c, 0, 57, 64
4, 130560, Note_on_c, 0, 55, 102
4, 130944, Note_off_c, 0, 55, 64
4, 130944, Note_on_c, 0, 54, 102
4, 131328, Note_off_c, 0, 54, 64
4, 131328, Note_on_c, 0, 52, 102
4, 132096, Note_off_c, 0, 52, 64
4, 141312, Note_on_c, 0, 55, 102
4, 141696, Note_off_c, 0, 55, 64
4, 141696, Note_on_c, 0, 54, 102
4, 142080, Note_off_c, 0, 54, 64
4, 142080, Note_on_c, 0, 52, 102
4, 142464, Note_off_c, 0, 52, 64
4, 142464, Note_on_c, 0, 51, 102
4, 142848, Note_off_c, 0, 51, 64
4, 142848, Note_on_c, 0, 52, 102
4, 143232, Note_off_c, 0, 52, 64
4, 143232, Note_on_c, 0, 50, 102
4, 143616, Note_off_c, 0, 50, 64
4, 143616, Note_on_c, 0, 49, 102
4, 144000, Note_off_c, 0, 49, 64
4, 144000, Note_on_c, 0, 50, 102
4, 144384, Note_off_c, 0, 50, 64
4, 144384, Note_on_c, 0, 49, 102
4, 144768, Note_off_c, 0, 49, 64
4, 144768, Note_on_c, 0, 47, 102
4, 145152, Note_off_c, 0, 47, 64
4, 145152, Note_on_c, 0, 55, 102
4, 145536, Note_off_c, 0, 55, 64
4, 145536, Note_on_c, 0, 54, 102
4, 145920, Note_off_c, 0, 54, 64
4, 145920, Note_on_c, 0, 52, 102
4, 146304, Note_off_c, 0, 52, 64
4, 146304, Note_on_c, 0, 54, 102
4, 146688, Note_off_c, 0, 54, 64
4, 146688, Note_on_c, 0, 52, 102
4, 147072, Note_off_c, 0, 52, 64
4, 147072, Note_on_c, 0, 50, 102
4, 147456, Note_off_c, 0, 50, 64
4, 147456, Note_on_c, 0, 49, 102
4, 147840, Note_off_c, 0, 49, 64
4, 147840, Note_on_c, 0, 54, 102
4, 148608, Note_off_c, 0, 54, 64
4, 148608, Note_on_c, 0, 47, 102
4, 148992, Note_off_c, 0, 47, 64
4, 148992, Note_on_c, 0, 49, 102
4, 149376, Note_off_c, 0, 49, 64
4, 149376, Note_on_c, 0, 50, 102
4, 149760, Note_off_c, 0, 50, 64
4, 149760, Note_on_c, 0, 52, 102
4, 150144, Note_off_c, 0, 52, 64
4, 150144, Note_on_c, 0, 54, 102
4, 150912, Note_off_c, 0, 54, 64
4, 150912, Note_on_c, 0, 59, 102
4, 155520, Note_off_c, 0, 59, 64
4, 158208, Note_on_c, 0, 59, 102
4, 158592, Note_off_c, 0, 59, 64
4, 158592, Note_on_c, 0, 57, 102
4, 158976, Note_off_c, 0, 57, 64
4, 158976, Note_on_c, 0, 55, 102
4, 159360, Note_off_c, 0, 55, 64
4, 159360, Note_on_c, 0, 54, 102
4, 159744, Note_off_c, 0, 54, 64
4, 159744, Note_on_c, 0, 52, 102
4, 160128, Note_off_c, 0, 52, 64
4, 160128, Note_on_c, 0, 51, 102
4, 160512, Note_off_c, 0, 51, 64
4, 160512, Note_on_c, 0, 52, 102
4, 161280, Note_off_c, 0, 52, 64
4, 161280, Note_on_c, 0, 47, 102
4, 161664, Note_off_c, 0, 47, 64
4, 161664, Note_on_c, 0, 47, 102
4, 162048, Note_off_c, 0, 47, 64
4, 162048, Note_on_c, 0, 45, 102
4, 162432, Note_off_c, 0, 45, 64
4, 162432, Note_on_c, 0, 43, 102
4, 162816, Note_off_c, 0, 43, 64
4, 162816, Note_on_c, 0, 55, 102
4, 163200, Note_off_c, 0, 55, 64
4, 163200, Note_on_c, 0, 54, 102
4, 163584, Note_off_c, 0, 54, 64
4, 163584, Note_on_c, 0, 52, 102
4, 165120, Note_off_c, 0, 52, 64
4, 165120, Note_on_c, 0, 54, 102
4, 165888, Note_off_c, 0, 54, 64
4, 165888, Note_on_c, 0, 47, 102
4, 167040, Note_off_c, 0, 47, 64
4, 167040, End_track
0, 0, End_of_file
