0, 0, Header, 1, 6, 1024
1, 0, Start_track
1, 0, Time_signature, 4, 2, 24, 8
1, 0, Key_signature, -3, "major"
1, 0, Tempo, 789473
1, 307201, End_track
2, 0, Start_track
2, 0, Title_t, "Instrument 1"
2, 3584, Note_on_c, 0, 58, 96
2, 4096, Note_off_c, 0, 58, 0
2, 4096, Note_on_c, 0, 63, 96
2, 4352, Note_off_c, 0, 63, 0
2, 4352, Note_on_c, 0, 65, 96
2, 4608, Note_off_c, 0, 65, 0
2, 4608, Note_on_c, 0, 67, 96
2, 5120, Note_off_c, 0, 67, 0
2, 5120, Note_on_c, 0, 67, 96
2, 5632, Note_off_c, 0, 67, 0
2, 5632, Note_on_c, 0, 65, 96
2, 6144, Note_off_c, 0, 65, 0
2, 6144, Note_on_c, 0, 68, 96
2, 6656, Note_off_c, 0, 68, 0
2, 6656, Note_on_c, 0, 67, 96
2, 7168, Note_off_c, 0, 67, 0
2, 7168, Note_on_c, 0, 58, 96
2, 7680, Note_off_c, 0, 58, 0
2, 7680, Note_on_c, 0, 56, 96
2, 8192, Note_off_c, 0, 56, 0
2, 8192, Note_on_c, 0, 67, 96
2, 8448, Note_off_c, 0, 67, 0
2, 8448, Note_on_c, 0, 63, 96
2, 8704, Note_off_c, 0, 63, 0
2, 8704, Note_on_c, 0, 65, 96
2, 9216, Note_off_c, 0, 65, 0
2, 9216, Note_on_c, 0, 56, 96
2, 9728, Note_off_c, 0, 56, 0
2, 9728, Note_on_c, 0, 55, 96
2, 10240, Note_off_c, 0, 55, 0
2, 10240, Note_on_c, 0, 62, 96
2, 10752, Note_off_c, 0, 62, 0
2, 10752, Note_on_c, 0, 63, 96
2, 11264, Note_off_c, 0, 63, 0
2, 11776, Note_on_c, 0, 58, 96
2, 12288, Note_off_c, 0, 58, 0
2, 12288, Note_on_c, 0, 63, 96
2, 12544, Note_off_c, 0, 63, 0
2, 12544, Note_on_c, 0, 65, 96
2, 12800, Note_off_c, 0, 65, 0
2, 12800, Note_on_c, 0, 67, 96
2, 13312, Note_off_c, 0, 67, 0
2, 13312, Note_on_c, 0, 67, 96
2, 13824, Note_off_c, 0, 67, 0
2, 13824, Note_on_c, 0, 65, 96
2, 14336, Note_off_c, 0, 65, 0
2, 14336, Note_on_c, 0, 68, 96
2, 14848, Note_off_c, 0, 68, 0
2, 14848, Note_on_c, 0, 67, 96
2, 15360, Note_off_c, 0, 67, 0
2, 15360, Note_on_c, 0, 58, 96
2, 15872, Note_off_c, 0, 58, 0
2, 15872, Note_on_c, 0, 56, 96
2, 16384, Note_off_c, 0, 56, 0
2, 16384, Note_on_c, 0, 67, 96
2, 16640, Note_off_c, 0, 67, 0
2, 16640, Note_on_c, 0, 63, 96
2, 16896, Note_off_c, 0, 63, 0
2, 16896, Note_on_c, 0, 65, 96
2, 17408, Note_off_c, 0, 65, 0
2, 17408, Note_on_c, 0, 56, 96
2, 17920, Note_off_c, 0, 56, 0
2, 17920, Note_on_c, 0, 55, 96
2, 18432, Note_off_c, 0, 55, 0
2, 18432, Note_on_c, 0, 62, 96
2, 18944, Note_off_c, 0, 62, 0
2, 18944, Note_on_c, 0, 63, 96
2, 19456, Note_off_c, 0, 63, 0
2, 19968, Note_on_c, 0, 70, 96
2, 20480, Note_off_c, 0, 70, 0
2, 20480, Note_on_c, 0, 70, 96
2, 21504, Note_off_c, 0, 70, 0
2, 21504, Note_on_c, 0, 68, 96
2, 21760, Note_off_c, 0, 68, 0
2, 21760, Note_on_c, 0, 67, 96
2, 22016, Note_off_c, 0, 67, 0
2, 22016, Note_on_c, 0, 65, 96
2, 22272, Note_off_c, 0, 65, 0
2, 22272, Note_on_c, 0, 63, 96
2, 22528, Note_off_c, 0, 63, 0
2, 22528, Note_on_c, 0, 65, 96
2, 22784, Note_off_c, 0, 65, 0
2, 22784, Note_on_c, 0, 63, 96
2, 23040, Note_off_c, 0, 63, 0
2, 23040, Note_on_c, 0, 62, 96
2, 23296, Note_off_c, 0, 62, 0
2, 23296, Note_on_c, 0, 60, 96
2, 23552, Note_off_c, 0, 60, 0
2, 23552, Note_on_c, 0, 58, 96
2, 24064, Note_off_c, 0, 58, 0
2, 24064, Note_on_c, 0, 60, 96
2, 24320, Note_off_c, 0, 60, 0
2, 24320, Note_on_c, 0, 62, 96
2, 24576, Note_off_c, 0, 62, 0
2, 24576, Note_on_c, 0, 63, 96
2, 24832, Note_off_c, 0, 63, 0
2, 24832, Note_on_c, 0, 65, 96
2, 25088, Note_off_c, 0, 65, 0
2, 25088, Note_on_c, 0, 67, 96
2, 25344, Note_off_c, 0, 67, 0
2, 25344, Note_on_c, 0, 65, 96
2, 25600, Note_off_c, 0, 65, 0
2, 25600, Note_on_c, 0, 68, 96
2, 25856, Note_off_c, 0, 68, 0
2, 25856, Note_on_c, 0, 67, 96
2, 26112, Note_off_c, 0, 67, 0
2, 26112, Note_on_c, 0, 65, 96
2, 26368, Note_off_c, 0, 65, 0
2, 26368, Note_on_c, 0, 63, 96
2, 26624, Note_off_c, 0, 63, 0
2, 26624, Note_on_c, 0, 67, 96
2, 27136, Note_off_c, 0, 67, 0
2, 27136, Note_on_c, 0, 65, 96
2, 27648, Note_off_c, 0, 65, 0
2, 28160, Note_on_c, 0, 58, 96
2, 28672, Note_off_c, 0, 58, 0
2, 28672, Note_on_c, 0, 67, 96
2, 29184, Note_off_c, 0, 67, 0
2, 29184, Note_on_c, 0, 69, 96
2, 30208, Note_off_c, 0, 69, 0
2, 30208, Note_on_c, 0, 70, 96
2, 30720, Note_off_c, 0, 70, 0
2, 30720, Note_on_c, 0, 63, 96
2, 30976, Note_off_c, 0, 63, 0
2, 30976, Note_on_c, 0, 62, 96
2, 31232, Note_off_c, 0, 62, 0
2, 31232, Note_on_c, 0, 63, 96
2, 31744, Note_off_c, 0, 63, 0
2, 32256, Note_on_c, 0, 60, 96
2, 32768, Note_off_c, 0, 60, 0
2, 32768, Note_on_c, 0, 69, 96
2, 33280, Note_off_c, 0, 69, 0
2, 33280, Note_on_c, 0, 70, 96
2, 34304, Note_off_c, 0, 70, 0
2, 34304, Note_on_c, 0, 72, 96
2, 34816, Note_off_c, 0, 72, 0
2, 34816, Note_on_c, 0, 63, 96
2, 35072, Note_off_c, 0, 63, 0
2, 35072, Note_on_c, 0, 62, 96
2, 35328, Note_off_c, 0, 62, 0
2, 35328, Note_on_c, 0, 63, 96
2, 35840, Note_off_c, 0, 63, 0
2, 36352, Note_on_c, 0, 75, 96
2, 36864, Note_off_c, 0, 75, 0
2, 36864, Note_on_c, 0, 74, 96
2, 37120, Note_off_c, 0, 74, 0
2, 37120, Note_on_c, 0, 72, 96
2, 37376, Note_off_c, 0, 72, 0
2, 37376, Note_on_c, 0, 70, 96
2, 38144, Note_off_c, 0, 70, 0
2, 38144, Note_on_c, 0, 69, 96
2, 38400, Note_off_c, 0, 69, 0
2, 38400, Note_on_c, 0, 70, 96
2, 39168, Note_off_c, 0, 70, 0
2, 39168, Note_on_c, 0, 69, 96
2, 39424, Note_off_c, 0, 69, 0
2, 39424, Note_on_c, 0, 67, 96
2, 39680, Note_off_c, 0, 67, 0
2, 39680, Note_on_c, 0, 65, 96
2, 39936, Note_off_c, 0, 65, 0
2, 39936, Note_on_c, 0, 63, 96
2, 40192, Note_off_c, 0, 63, 0
2, 40192, Note_on_c, 0, 62, 96
2, 40448, Note_off_c, 0, 62, 0
2, 40448, Note_on_c, 0, 60, 96
2, 40704, Note_off_c, 0, 60, 0
2, 40704, Note_on_c, 0, 58, 96
2, 40960, Note_off_c, 0, 58, 0
2, 40960, Note_on_c, 0, 60, 96
2, 41216, Note_off_c, 0, 60, 0
2, 41216, Note_on_c, 0, 62, 96
2, 41472, Note_off_c, 0, 62, 0
2, 41472, Note_on_c, 0, 63, 96
2, 41984, Note_off_c, 0, 63, 0
2, 41984, Note_on_c, 0, 63, 96
2, 42240, Note_off_c, 0, 63, 0
2, 42240, Note_on_c, 0, 62, 96
2, 42496, Note_off_c, 0, 62, 0
2, 42496, Note_on_c, 0, 63, 96
2, 43264, Note_off_c, 0, 63, 0
2, 43264, Note_on_c, 0, 69, 96
2, 43520, Note_off_c, 0, 69, 0
2, 43520, Note_on_c, 0, 70, 96
2, 43776, Note_off_c, 0, 70, 0
2, 43776, Note_on_c, 0, 72, 96
2, 44032, Note_off_c, 0, 72, 0
2, 44032, Note_on_c, 0, 70, 96
2, 44288, Note_off_c, 0, 70, 0
2, 44288, Note_on_c, 0, 69, 96
2, 44544, Note_off_c, 0, 69, 0
2, 44544, Note_on_c, 0, 67, 96
2, 44800, Note_off_c, 0, 67, 0
2, 44800, Note_on_c, 0, 65, 96
2, 45056, Note_off_c, 0, 65, 0
2, 45056, Note_on_c, 0, 70, 96
2, 45568, Note_off_c, 0, 70, 0
2, 45568, Note_on_c, 0, 65, 96
2, 46080, Note_off_c, 0, 65, 0
2, 46080, Note_on_c, 0, 62, 96
2, 46592, Note_off_c, 0, 62, 0
2, 46592, Note_on_c, 0, 60, 96
2, 46848, Note_off_c, 0, 60, 0
2, 46848, Note_on_c, 0, 58, 96
2, 47104, Note_off_c, 0, 58, 0
2, 47104, Note_on_c, 0, 58, 96
2, 47360, Note_off_c, 0, 58, 0
2, 47360, Note_on_c, 0, 63, 96
2, 47616, Note_off_c, 0, 63, 0
2, 47616, Note_on_c, 0, 62, 96
2, 47872, Note_off_c, 0, 62, 0
2, 47872, Note_on_c, 0, 60, 96
2, 48128, Note_off_c, 0, 60, 0
2, 48128, Note_on_c, 0, 62, 96
2, 48640, Note_off_c, 0, 62, 0
2, 48640, Note_on_c, 0, 58, 96
2, 49152, Note_off_c, 0, 58, 0
2, 49152, Note_on_c, 0, 55, 96
2, 49920, Note_off_c, 0, 55, 0
2, 49920, Note_on_c, 0, 57, 96
2, 50176, Note_off_c, 0, 57, 0
2, 50176, Note_on_c, 0, 57, 96
2, 50944, Note_off_c, 0, 57, 0
2, 50944, Note_on_c, 0, 55, 96
2, 51072, Note_off_c, 0, 55, 0
2, 51072, Note_on_c, 0, 57, 96
2, 51200, Note_off_c, 0, 57, 0
2, 51200, Note_on_c, 0, 58, 96
2, 52224, Note_off_c, 0, 58, 0
2, 52736, Note_on_c, 0, 58, 96
2, 53248, Note_off_c, 0, 58, 0
2, 53248, Note_on_c, 0, 63, 96
2, 53504, Note_off_c, 0, 63, 0
2, 53504, Note_on_c, 0, 65, 96
2, 53760, Note_off_c, 0, 65, 0
2, 53760, Note_on_c, 0, 67, 96
2, 54272, Note_off_c, 0, 67, 0
2, 54272, Note_on_c, 0, 67, 96
2, 54784, Note_off_c, 0, 67, 0
2, 54784, Note_on_c, 0, 65, 96
2, 55296, Note_off_c, 0, 65, 0
2, 55296, Note_on_c, 0, 68, 96
2, 55808, Note_off_c, 0, 68, 0
2, 55808, Note_on_c, 0, 67, 96
2, 56320, Note_off_c, 0, 67, 0
2, 56320, Note_on_c, 0, 58, 96
2, 56832, Note_off_c, 0, 58, 0
2, 56832, Note_on_c, 0, 56, 96
2, 57344, Note_off_c, 0, 56, 0
2, 57344, Note_on_c, 0, 67, 96
2, 57600, Note_off_c, 0, 67, 0
2, 57600, Note_on_c, 0, 63, 96
2, 57856, Note_off_c, 0, 63, 0
2, 57856, Note_on_c, 0, 65, 96
2, 58368, Note_off_c, 0, 65, 0
2, 58368, Note_on_c, 0, 56, 96
2, 58880, Note_off_c, 0, 56, 0
2, 58880, Note_on_c, 0, 55, 96
2, 59392, Note_off_c, 0, 55, 0
2, 59392, Note_on_c, 0, 62, 96
2, 59904, Note_off_c, 0, 62, 0
2, 59904, Note_on_c, 0, 63, 96
2, 60416, Note_off_c, 0, 63, 0
2, 60928, Note_on_c, 0, 58, 96
2, 61440, Note_off_c, 0, 58, 0
2, 61440, Note_on_c, 0, 63, 96
2, 61696, Note_off_c, 0, 63, 0
2, 61696, Note_on_c, 0, 65, 96
2, 61952, Note_off_c, 0, 65, 0
2, 61952, Note_on_c, 0, 67, 96
2, 62464, Note_off_c, 0, 67, 0
2, 62464, Note_on_c, 0, 67, 96
2, 62976, Note_off_c, 0, 67, 0
2, 62976, Note_on_c, 0, 65, 96
2, 63488, Note_off_c, 0, 65, 0
2, 63488, Note_on_c, 0, 68, 96
2, 64000, Note_off_c, 0, 68, 0
2, 64000, Note_on_c, 0, 67, 96
2, 64512, Note_off_c, 0, 67, 0
2, 64512, Note_on_c, 0, 58, 96
2, 65024, Note_off_c, 0, 58, 0
2, 65024, Note_on_c, 0, 56, 96
2, 65536, Note_off_c, 0, 56, 0
2, 65536, Note_on_c, 0, 67, 96
2, 65792, Note_off_c, 0, 67, 0
2, 65792, Note_on_c, 0, 63, 96
2, 66048, Note_off_c, 0, 63, 0
2, 66048, Note_on_c, 0, 65, 96
2, 66560, Note_off_c, 0, 65, 0
2, 66560, Note_on_c, 0, 56, 96
2, 67072, Note_off_c, 0, 56, 0
2, 67072, Note_on_c, 0, 55, 96
2, 67584, Note_off_c, 0, 55, 0
2, 67584, Note_on_c, 0, 62, 96
2, 68096, Note_off_c, 0, 62, 0
2, 68096, Note_on_c, 0, 63, 96
2, 68608, Note_off_c, 0, 63, 0
2, 69120, Note_on_c, 0, 65, 96
2, 69632, Note_off_c, 0, 65, 0
2, 69632, Note_on_c, 0, 67, 96
2, 70144, Note_off_c, 0, 67, 0
2, 70144, Note_on_c, 0, 69, 96
2, 71168, Note_off_c, 0, 69, 0
2, 71168, Note_on_c, 0, 70, 96
2, 71680, Note_off_c, 0, 70, 0
2, 71680, Note_on_c, 0, 63, 96
2, 71936, Note_off_c, 0, 63, 0
2, 71936, Note_on_c, 0, 62, 96
2, 72192, Note_off_c, 0, 62, 0
2, 72192, Note_on_c, 0, 63, 96
2, 72704, Note_off_c, 0, 63, 0
2, 73216, Note_on_c, 0, 63, 96
2, 73728, Note_off_c, 0, 63, 0
2, 73728, Note_on_c, 0, 69, 96
2, 74240, Note_off_c, 0, 69, 0
2, 74240, Note_on_c, 0, 70, 96
2, 75264, Note_off_c, 0, 70, 0
2, 75264, Note_on_c, 0, 72, 96
2, 75776, Note_off_c, 0, 72, 0
2, 75776, Note_on_c, 0, 65, 96
2, 76032, Note_off_c, 0, 65, 0
2, 76032, Note_on_c, 0, 63, 96
2, 76288, Note_off_c, 0, 63, 0
2, 76288, Note_on_c, 0, 65, 96
2, 76800, Note_off_c, 0, 65, 0
2, 79360, Note_on_c, 0, 70, 96
2, 79872, Note_off_c, 0, 70, 0
2, 79872, Note_on_c, 0, 70, 96
2, 80896, Note_off_c, 0, 70, 0
2, 80896, Note_on_c, 0, 68, 96
2, 81152, Note_off_c, 0, 68, 0
2, 81152, Note_on_c, 0, 67, 96
2, 81408, Note_off_c, 0, 67, 0
2, 81408, Note_on_c, 0, 65, 96
2, 81664, Note_off_c, 0, 65, 0
2, 81664, Note_on_c, 0, 63, 96
2, 81920, Note_off_c, 0, 63, 0
2, 81920, Note_on_c, 0, 65, 96
2, 82176, Note_off_c, 0, 65, 0
2, 82176, Note_on_c, 0, 63, 96
2, 82432, Note_off_c, 0, 63, 0
2, 82432, Note_on_c, 0, 62, 96
2, 82688, Note_off_c, 0, 62, 0
2, 82688, Note_on_c, 0, 60, 96
2, 82944, Note_off_c, 0, 60, 0
2, 82944, Note_on_c, 0, 58, 96
2, 83456, Note_off_c, 0, 58, 0
2, 83456, Note_on_c, 0, 60, 96
2, 83712, Note_off_c, 0, 60, 0
2, 83712, Note_on_c, 0, 62, 96
2, 83968, Note_off_c, 0, 62, 0
2, 83968, Note_on_c, 0, 63, 96
2, 84224, Note_off_c, 0, 63, 0
2, 84224, Note_on_c, 0, 65, 96
2, 84480, Note_off_c, 0, 65, 0
2, 84480, Note_on_c, 0, 67, 96
2, 84736, Note_off_c, 0, 67, 0
2, 84736, Note_on_c, 0, 65, 96
2, 84992, Note_off_c, 0, 65, 0
2, 84992, Note_on_c, 0, 68, 96
2, 85248, Note_off_c, 0, 68, 0
2, 85248, Note_on_c, 0, 67, 96
2, 85504, Note_off_c, 0, 67, 0
2, 85504, Note_on_c, 0, 65, 96
2, 85760, Note_off_c, 0, 65, 0
2, 85760, Note_on_c, 0, 63, 96
2, 86016, Note_off_c, 0, 63, 0
2, 86016, Note_on_c, 0, 67, 96
2, 86528, Note_off_c, 0, 67, 0
2, 86528, Note_on_c, 0, 65, 96
2, 87040, Note_off_c, 0, 65, 0
2, 89600, Note_on_c, 0, 58, 96
2, 90112, Note_off_c, 0, 58, 0
2, 90112, Note_on_c, 0, 63, 96
2, 90368, Note_off_c, 0, 63, 0
2, 90368, Note_on_c, 0, 65, 96
2, 90624, Note_off_c, 0, 65, 0
2, 90624, Note_on_c, 0, 67, 96
2, 91136, Note_off_c, 0, 67, 0
2, 91136, Note_on_c, 0, 67, 96
2, 91648, Note_off_c, 0, 67, 0
2, 91648, Note_on_c, 0, 65, 96
2, 92160, Note_off_c, 0, 65, 0
2, 92160, Note_on_c, 0, 68, 96
2, 92672, Note_off_c, 0, 68, 0
2, 92672, Note_on_c, 0, 67, 96
2, 93184, Note_off_c, 0, 67, 0
2, 93184, Note_on_c, 0, 58, 96
2, 93696, Note_off_c, 0, 58, 0
2, 93696, Note_on_c, 0, 56, 96
2, 94208, Note_off_c, 0, 56, 0
2, 94208, Note_on_c, 0, 67, 96
2, 94464, Note_off_c, 0, 67, 0
2, 94464, Note_on_c, 0, 63, 96
2, 94720, Note_off_c, 0, 63, 0
2, 94720, Note_on_c, 0, 65, 96
2, 95232, Note_off_c, 0, 65, 0
2, 95232, Note_on_c, 0, 56, 96
2, 95744, Note_off_c, 0, 56, 0
2, 95744, Note_on_c, 0, 55, 96
2, 96256, Note_off_c, 0, 55, 0
2, 96256, Note_on_c, 0, 62, 96
2, 96768, Note_off_c, 0, 62, 0
2, 96768, Note_on_c, 0, 63, 96
2, 97280, Note_off_c, 0, 63, 0
2, 97792, Note_on_c, 0, 58, 96
2, 98304, Note_off_c, 0, 58, 0
2, 98304, Note_on_c, 0, 63, 96
2, 98560, Note_off_c, 0, 63, 0
2, 98560, Note_on_c, 0, 65, 96
2, 98816, Note_off_c, 0, 65, 0
2, 98816, Note_on_c, 0, 67, 96
2, 99328, Note_off_c, 0, 67, 0
2, 99328, Note_on_c, 0, 67, 96
2, 99840, Note_off_c, 0, 67, 0
2, 99840, Note_on_c, 0, 65, 96
2, 100352, Note_off_c, 0, 65, 0
2, 100352, Note_on_c, 0, 68, 96
2, 100864, Note_off_c, 0, 68, 0
2, 100864, Note_on_c, 0, 67, 96
2, 101376, Note_off_c, 0, 67, 0
2, 101376, Note_on_c, 0, 58, 96
2, 101888, Note_off_c, 0, 58, 0
2, 101888, Note_on_c, 0, 56, 96
2, 102400, Note_off_c, 0, 56, 0
2, 102400, Note_on_c, 0, 67, 96
2, 102656, Note_off_c, 0, 67, 0
2, 102656, Note_on_c, 0, 63, 96
2, 102912, Note_off_c, 0, 63, 0
2, 102912, Note_on_c, 0, 65, 96
2, 103424, Note_off_c, 0, 65, 0
2, 103424, Note_on_c, 0, 56, 96
2, 103936, Note_off_c, 0, 56, 0
2, 103936, Note_on_c, 0, 55, 96
2, 104448, Note_off_c, 0, 55, 0
2, 104448, Note_on_c, 0, 62, 96
2, 104960, Note_off_c, 0, 62, 0
2, 104960, Note_on_c, 0, 63, 96
2, 105472, Note_off_c, 0, 63, 0
2, 105984, Note_on_c, 0, 70, 96
2, 106496, Note_off_c, 0, 70, 0
2, 106496, Note_on_c, 0, 70, 96
2, 107520, Note_off_c, 0, 70, 0
2, 107520, Note_on_c, 0, 68, 96
2, 107776, Note_off_c, 0, 68, 0
2, 107776, Note_on_c, 0, 67, 96
2, 108032, Note_off_c, 0, 67, 0
2, 108032, Note_on_c, 0, 65, 96
2, 108288, Note_off_c, 0, 65, 0
2, 108288, Note_on_c, 0, 63, 96
2, 108544, Note_off_c, 0, 63, 0
2, 108544, Note_on_c, 0, 65, 96
2, 108800, Note_off_c, 0, 65, 0
2, 108800, Note_on_c, 0, 63, 96
2, 109056, Note_off_c, 0, 63, 0
2, 109056, Note_on_c, 0, 62, 96
2, 109312, Note_off_c, 0, 62, 0
2, 109312, Note_on_c, 0, 60, 96
2, 109568, Note_off_c, 0, 60, 0
2, 109568, Note_on_c, 0, 58, 96
2, 110080, Note_off_c, 0, 58, 0
2, 110080, Note_on_c, 0, 60, 96
2, 110336, Note_off_c, 0, 60, 0
2, 110336, Note_on_c, 0, 62, 96
2, 110592, Note_off_c, 0, 62, 0
2, 110592, Note_on_c, 0, 63, 96
2, 110848, Note_off_c, 0, 63, 0
2, 110848, Note_on_c, 0, 65, 96
2, 111104, Note_off_c, 0, 65, 0
2, 111104, Note_on_c, 0, 67, 96
2, 111360, Note_off_c, 0, 67, 0
2, 111360, Note_on_c, 0, 65, 96
2, 111616, Note_off_c, 0, 65, 0
2, 111616, Note_on_c, 0, 68, 96
2, 111872, Note_off_c, 0, 68, 0
2, 111872, Note_on_c, 0, 67, 96
2, 112128, Note_off_c, 0, 67, 0
2, 112128, Note_on_c, 0, 65, 96
2, 112384, Note_off_c, 0, 65, 0
2, 112384, Note_on_c, 0, 63, 96
2, 112640, Note_off_c, 0, 63, 0
2, 112640, Note_on_c, 0, 67, 96
2, 113152, Note_off_c, 0, 67, 0
2, 113152, Note_on_c, 0, 65, 96
2, 113664, Note_off_c, 0, 65, 0
2, 114176, Note_on_c, 0, 65, 96
2, 114688, Note_off_c, 0, 65, 0
2, 114688, Note_on_c, 0, 67, 96
2, 115200, Note_off_c, 0, 67, 0
2, 115200, Note_on_c, 0, 69, 96
2, 116224, Note_off_c, 0, 69, 0
2, 116224, Note_on_c, 0, 70, 96
2, 116736, Note_off_c, 0, 70, 0
2, 116736, Note_on_c, 0, 63, 96
2, 116992, Note_off_c, 0, 63, 0
2, 116992, Note_on_c, 0, 62, 96
2, 117248, Note_off_c, 0, 62, 0
2, 117248, Note_on_c, 0, 63, 96
2, 117760, Note_off_c, 0, 63, 0
2, 118272, Note_on_c, 0, 60, 96
2, 118784, Note_off_c, 0, 60, 0
2, 118784, Note_on_c, 0, 69, 96
2, 119296, Note_off_c, 0, 69, 0
2, 119296, Note_on_c, 0, 70, 96
2, 120320, Note_off_c, 0, 70, 0
2, 120320, Note_on_c, 0, 72, 96
2, 120832, Note_off_c, 0, 72, 0
2, 120832, Note_on_c, 0, 63, 96
2, 121088, Note_off_c, 0, 63, 0
2, 121088, Note_on_c, 0, 62, 96
2, 121344, Note_off_c, 0, 62, 0
2, 121344, Note_on_c, 0, 63, 96
2, 121856, Note_off_c, 0, 63, 0
2, 122368, Note_on_c, 0, 75, 96
2, 122880, Note_off_c, 0, 75, 0
2, 122880, Note_on_c, 0, 74, 96
2, 123136, Note_off_c, 0, 74, 0
2, 123136, Note_on_c, 0, 72, 96
2, 123392, Note_off_c, 0, 72, 0
2, 123392, Note_on_c, 0, 70, 96
2, 124160, Note_off_c, 0, 70, 0
2, 124160, Note_on_c, 0, 69, 96
2, 124416, Note_off_c, 0, 69, 0
2, 124416, Note_on_c, 0, 70, 96
2, 125184, Note_off_c, 0, 70, 0
2, 125184, Note_on_c, 0, 69, 96
2, 125440, Note_off_c, 0, 69, 0
2, 125440, Note_on_c, 0, 67, 96
2, 125696, Note_off_c, 0, 67, 0
2, 125696, Note_on_c, 0, 65, 96
2, 125952, Note_off_c, 0, 65, 0
2, 125952, Note_on_c, 0, 63, 96
2, 126208, Note_off_c, 0, 63, 0
2, 126208, Note_on_c, 0, 62, 96
2, 126464, Note_off_c, 0, 62, 0
2, 126464, Note_on_c, 0, 60, 96
2, 126720, Note_off_c, 0, 60, 0
2, 126720, Note_on_c, 0, 58, 96
2, 126976, Note_off_c, 0, 58, 0
2, 126976, Note_on_c, 0, 60, 96
2, 127232, Note_off_c, 0, 60, 0
2, 127232, Note_on_c, 0, 62, 96
2, 127488, Note_off_c, 0, 62, 0
2, 127488, Note_on_c, 0, 63, 96
2, 128000, Note_off_c, 0, 63, 0
2, 128000, Note_on_c, 0, 63, 96
2, 128256, Note_off_c, 0, 63, 0
2, 128256, Note_on_c, 0, 62, 96
2, 128512, Note_off_c, 0, 62, 0
2, 128512, Note_on_c, 0, 63, 96
2, 129280, Note_off_c, 0, 63, 0
2, 129280, Note_on_c, 0, 69, 96
2, 129536, Note_off_c, 0, 69, 0
2, 129536, Note_on_c, 0, 70, 96
2, 129792, Note_off_c, 0, 70, 0
2, 129792, Note_on_c, 0, 72, 96
2, 130048, Note_off_c, 0, 72, 0
2, 130048, Note_on_c, 0, 70, 96
2, 130304, Note_off_c, 0, 70, 0
2, 130304, Note_on_c, 0, 69, 96
2, 130560, Note_off_c, 0, 69, 0
2, 130560, Note_on_c, 0, 67, 96
2, 130816, Note_off_c, 0, 67, 0
2, 130816, Note_on_c, 0, 65, 96
2, 131072, Note_off_c, 0, 65, 0
2, 131072, Note_on_c, 0, 70, 96
2, 131584, Note_off_c, 0, 70, 0
2, 131584, Note_on_c, 0, 65, 96
2, 132096, Note_off_c, 0, 65, 0
2, 132096, Note_on_c, 0, 62, 96
2, 132608, Note_off_c, 0, 62, 0
2, 132608, Note_on_c, 0, 60, 96
2, 132864, Note_off_c, 0, 60, 0
2, 132864, Note_on_c, 0, 58, 96
2, 133120, Note_off_c, 0, 58, 0
2, 133120, Note_on_c, 0, 58, 96
2, 133376, Note_off_c, 0, 58, 0
2, 133376, Note_on_c, 0, 63, 96
2, 133632, Note_off_c, 0, 63, 0
2, 133632, Note_on_c, 0, 62, 96
2, 133888, Note_off_c, 0, 62, 0
2, 133888, Note_on_c, 0, 60, 96
2, 134144, Note_off_c, 0, 60, 0
2, 134144, Note_on_c, 0, 62, 96
2, 134656, Note_off_c, 0, 62, 0
2, 134656, Note_on_c, 0, 58, 96
2, 135168, Note_off_c, 0, 58, 0
2, 135168, Note_on_c, 0, 55, 96
2, 135936, Note_off_c, 0, 55, 0
2, 135936, Note_on_c, 0, 57, 96
2, 136192, Note_off_c, 0, 57, 0
2, 136192, Note_on_c, 0, 57, 96
2, 136960, Note_off_c, 0, 57, 0
2, 136960, Note_on_c, 0, 55, 96
2, 137088, Note_off_c, 0, 55, 0
2, 137088, Note_on_c, 0, 57, 96
2, 137216, Note_off_c, 0, 57, 0
2, 137216, Note_on_c, 0, 58, 96
2, 138240, Note_off_c, 0, 58, 0
2, 138752, Note_on_c, 0, 58, 96
2, 139264, Note_off_c, 0, 58, 0
2, 139264, Note_on_c, 0, 63, 96
2, 139520, Note_off_c, 0, 63, 0
2, 139520, Note_on_c, 0, 65, 96
2, 139776, Note_off_c, 0, 65, 0
2, 139776, Note_on_c, 0, 67, 96
2, 140288, Note_off_c, 0, 67, 0
2, 140288, Note_on_c, 0, 67, 96
2, 140800, Note_off_c, 0, 67, 0
2, 140800, Note_on_c, 0, 65, 96
2, 141312, Note_off_c, 0, 65, 0
2, 141312, Note_on_c, 0, 68, 96
2, 141824, Note_off_c, 0, 68, 0
2, 141824, Note_on_c, 0, 67, 96
2, 142336, Note_off_c, 0, 67, 0
2, 142336, Note_on_c, 0, 58, 96
2, 142848, Note_off_c, 0, 58, 0
2, 142848, Note_on_c, 0, 56, 96
2, 143360, Note_off_c, 0, 56, 0
2, 143360, Note_on_c, 0, 67, 96
2, 143616, Note_off_c, 0, 67, 0
2, 143616, Note_on_c, 0, 63, 96
2, 143872, Note_off_c, 0, 63, 0
2, 143872, Note_on_c, 0, 65, 96
2, 144384, Note_off_c, 0, 65, 0
2, 144384, Note_on_c, 0, 56, 96
2, 144896, Note_off_c, 0, 56, 0
2, 144896, Note_on_c, 0, 55, 96
2, 145408, Note_off_c, 0, 55, 0
2, 145408, Note_on_c, 0, 62, 96
2, 145920, Note_off_c, 0, 62, 0
2, 145920, Note_on_c, 0, 63, 96
2, 146432, Note_off_c, 0, 63, 0
2, 146944, Note_on_c, 0, 58, 96
2, 147456, Note_off_c, 0, 58, 0
2, 147456, Note_on_c, 0, 63, 96
2, 147712, Note_off_c, 0, 63, 0
2, 147712, Note_on_c, 0, 65, 96
2, 147968, Note_off_c, 0, 65, 0
2, 147968, Note_on_c, 0, 67, 96
2, 148480, Note_off_c, 0, 67, 0
2, 148480, Note_on_c, 0, 67, 96
2, 148992, Note_off_c, 0, 67, 0
2, 148992, Note_on_c, 0, 65, 96
2, 149504, Note_off_c, 0, 65, 0
2, 149504, Note_on_c, 0, 68, 96
2, 150016, Note_off_c, 0, 68, 0
2, 150016, Note_on_c, 0, 67, 96
2, 150528, Note_off_c, 0, 67, 0
2, 150528, Note_on_c, 0, 58, 96
2, 151040, Note_off_c, 0, 58, 0
2, 151040, Note_on_c, 0, 56, 96
2, 151552, Note_off_c, 0, 56, 0
2, 151552, Note_on_c, 0, 67, 96
2, 151808, Note_off_c, 0, 67, 0
2, 151808, Note_on_c, 0, 63, 96
2, 152064, Note_off_c, 0, 63, 0
2, 152064, Note_on_c, 0, 65, 96
2, 152576, Note_off_c, 0, 65, 0
2, 152576, Note_on_c, 0, 56, 96
2, 153088, Note_off_c, 0, 56, 0
2, 153088, Note_on_c, 0, 55, 96
2, 153600, Note_off_c, 0, 55, 0
2, 153600, Note_on_c, 0, 62, 96
2, 154112, Note_off_c, 0, 62, 0
2, 154112, Note_on_c, 0, 63, 96
2, 154624, Note_off_c, 0, 63, 0
2, 155136, Note_on_c, 0, 65, 96
2, 155648, Note_off_c, 0, 65, 0
2, 155648, Note_on_c, 0, 67, 96
2, 156160, Note_off_c, 0, 67, 0
2, 156160, Note_on_c, 0, 69, 96
2, 157184, Note_off_c, 0, 69, 0
2, 157184, Note_on_c, 0, 70, 96
2, 157696, Note_off_c, 0, 70, 0
2, 157696, Note_on_c, 0, 63, 96
2, 157952, Note_off_c, 0, 63, 0
2, 157952, Note_on_c, 0, 62, 96
2, 158208, Note_off_c, 0, 62, 0
2, 158208, Note_on_c, 0, 63, 96
2, 158720, Note_off_c, 0, 63, 0
2, 159232, Note_on_c, 0, 63, 96
2, 159744, Note_off_c, 0, 63, 0
2, 159744, Note_on_c, 0, 69, 96
2, 160256, Note_off_c, 0, 69, 0
2, 160256, Note_on_c, 0, 70, 96
2, 161280, Note_off_c, 0, 70, 0
2, 161280, Note_on_c, 0, 72, 96
2, 161792, Note_off_c, 0, 72, 0
2, 161792, Note_on_c, 0, 65, 96
2, 162048, Note_off_c, 0, 65, 0
2, 162048, Note_on_c, 0, 63, 96
2, 162304, Note_off_c, 0, 63, 0
2, 162304, Note_on_c, 0, 65, 96
2, 162816, Note_off_c, 0, 65, 0
2, 165376, Note_on_c, 0, 70, 96
2, 165888, Note_off_c, 0, 70, 0
2, 165888, Note_on_c, 0, 70, 96
2, 166912, Note_off_c, 0, 70, 0
2, 166912, Note_on_c, 0, 68, 96
2, 167168, Note_off_c, 0, 68, 0
2, 167168, Note_on_c, 0, 67, 96
2, 167424, Note_off_c, 0, 67, 0
2, 167424, Note_on_c, 0, 65, 96
2, 167680, Note_off_c, 0, 65, 0
2, 167680, Note_on_c, 0, 63, 96
2, 167936, Note_off_c, 0, 63, 0
2, 167936, Note_on_c, 0, 65, 96
2, 168192, Note_off_c, 0, 65, 0
2, 168192, Note_on_c, 0, 63, 96
2, 168448, Note_off_c, 0, 63, 0
2, 168448, Note_on_c, 0, 62, 96
2, 168704, Note_off_c, 0, 62, 0
2, 168704, Note_on_c, 0, 60, 96
2, 168960, Note_off_c, 0, 60, 0
2, 168960, Note_on_c, 0, 58, 96
2, 169472, Note_off_c, 0, 58, 0
2, 169472, Note_on_c, 0, 60, 96
2, 169728, Note_off_c, 0, 60, 0
2, 169728, Note_on_c, 0, 62, 96
2, 169984, Note_off_c, 0, 62, 0
2, 169984, Note_on_c, 0, 63, 96
2, 170240, Note_off_c, 0, 63, 0
2, 170240, Note_on_c, 0, 65, 96
2, 170496, Note_off_c, 0, 65, 0
2, 170496, Note_on_c, 0, 67, 96
2, 170752, Note_off_c, 0, 67, 0
2, 170752, Note_on_c, 0, 65, 96
2, 171008, Note_off_c, 0, 65, 0
2, 171008, Note_on_c, 0, 68, 96
2, 171264, Note_off_c, 0, 68, 0
2, 171264, Note_on_c, 0, 67, 96
2, 171520, Note_off_c, 0, 67, 0
2, 171520, Note_on_c, 0, 65, 96
2, 171776, Note_off_c, 0, 65, 0
2, 171776, Note_on_c, 0, 63, 96
2, 172032, Note_off_c, 0, 63, 0
2, 172032, Note_on_c, 0, 67, 96
2, 172544, Note_off_c, 0, 67, 0
2, 172544, Note_on_c, 0, 65, 96
2, 173056, Note_off_c, 0, 65, 0
2, 175616, Note_on_c, 0, 70, 96
2, 176128, Note_off_c, 0, 70, 0
2, 176128, Note_on_c, 0, 70, 96
2, 177152, Note_off_c, 0, 70, 0
2, 177152, Note_on_c, 0, 68, 96
2, 177408, Note_off_c, 0, 68, 0
2, 177408, Note_on_c, 0, 67, 96
2, 177664, Note_off_c, 0, 67, 0
2, 177664, Note_on_c, 0, 65, 96
2, 177920, Note_off_c, 0, 65, 0
2, 177920, Note_on_c, 0, 63, 96
2, 178176, Note_off_c, 0, 63, 0
2, 178176, Note_on_c, 0, 65, 96
2, 178432, Note_off_c, 0, 65, 0
2, 178432, Note_on_c, 0, 63, 96
2, 178688, Note_off_c, 0, 63, 0
2, 178688, Note_on_c, 0, 62, 96
2, 178944, Note_off_c, 0, 62, 0
2, 178944, Note_on_c, 0, 60, 96
2, 179200, Note_off_c, 0, 60, 0
2, 179200, Note_on_c, 0, 58, 96
2, 179712, Note_off_c, 0, 58, 0
2, 179712, Note_on_c, 0, 60, 96
2, 179968, Note_off_c, 0, 60, 0
2, 179968, Note_on_c, 0, 62, 96
2, 180224, Note_off_c, 0, 62, 0
2, 180224, Note_on_c, 0, 63, 96
2, 180480, Note_off_c, 0, 63, 0
2, 180480, Note_on_c, 0, 65, 96
2, 180736, Note_off_c, 0, 65, 0
2, 180736, Note_on_c, 0, 67, 96
2, 180992, Note_off_c, 0, 67, 0
2, 180992, Note_on_c, 0, 65, 96
2, 181248, Note_off_c, 0, 65, 0
2, 181248, Note_on_c, 0, 68, 96
2, 181504, Note_off_c, 0, 68, 0
2, 181504, Note_on_c, 0, 67, 96
2, 181760, Note_off_c, 0, 67, 0
2, 181760, Note_on_c, 0, 65, 96
2, 182016, Note_off_c, 0, 65, 0
2, 182016, Note_on_c, 0, 63, 96
2, 182272, Note_off_c, 0, 63, 0
2, 182272, Note_on_c, 0, 67, 96
2, 182784, Note_off_c, 0, 67, 0
2, 182784, Note_on_c, 0, 65, 96
2, 183296, Note_off_c, 0, 65, 0
2, 183808, Note_on_c, 0, 58, 96
2, 184320, Note_off_c, 0, 58, 0
2, 184320, Note_on_c, 0, 67, 96
2, 184832, Note_off_c, 0, 67, 0
2, 184832, Note_on_c, 0, 69, 96
2, 185856, Note_off_c, 0, 69, 0
2, 185856, Note_on_c, 0, 70, 96
2, 186368, Note_off_c, 0, 70, 0
2, 186368, Note_on_c, 0, 63, 96
2, 186624, Note_off_c, 0, 63, 0
2, 186624, Note_on_c, 0, 62, 96
2, 186880, Note_off_c, 0, 62, 0
2, 186880, Note_on_c, 0, 63, 96
2, 187392, Note_off_c, 0, 63, 0
2, 187904, Note_on_c, 0, 60, 96
2, 188416, Note_off_c, 0, 60, 0
2, 188416, Note_on_c, 0, 69, 96
2, 188928, Note_off_c, 0, 69, 0
2, 188928, Note_on_c, 0, 70, 96
2, 189952, Note_off_c, 0, 70, 0
2, 189952, Note_on_c, 0, 72, 96
2, 190464, Note_off_c, 0, 72, 0
2, 190464, Note_on_c, 0, 63, 96
2, 190720, Note_off_c, 0, 63, 0
2, 190720, Note_on_c, 0, 62, 96
2, 190976, Note_off_c, 0, 62, 0
2, 190976, Note_on_c, 0, 63, 96
2, 191488, Note_off_c, 0, 63, 0
2, 192000, Note_on_c, 0, 75, 96
2, 192512, Note_off_c, 0, 75, 0
2, 192512, Note_on_c, 0, 74, 96
2, 192768, Note_off_c, 0, 74, 0
2, 192768, Note_on_c, 0, 72, 96
2, 193024, Note_off_c, 0, 72, 0
2, 193024, Note_on_c, 0, 70, 96
2, 193792, Note_off_c, 0, 70, 0
2, 193792, Note_on_c, 0, 69, 96
2, 194048, Note_off_c, 0, 69, 0
2, 194048, Note_on_c, 0, 70, 96
2, 194816, Note_off_c, 0, 70, 0
2, 194816, Note_on_c, 0, 69, 96
2, 195072, Note_off_c, 0, 69, 0
2, 195072, Note_on_c, 0, 67, 96
2, 195328, Note_off_c, 0, 67, 0
2, 195328, Note_on_c, 0, 65, 96
2, 195584, Note_off_c, 0, 65, 0
2, 195584, Note_on_c, 0, 63, 96
2, 195840, Note_off_c, 0, 63, 0
2, 195840, Note_on_c, 0, 62, 96
2, 196096, Note_off_c, 0, 62, 0
2, 196096, Note_on_c, 0, 60, 96
2, 196352, Note_off_c, 0, 60, 0
2, 196352, Note_on_c, 0, 58, 96
2, 196608, Note_off_c, 0, 58, 0
2, 196608, Note_on_c, 0, 60, 96
2, 196864, Note_off_c, 0, 60, 0
2, 196864, Note_on_c, 0, 62, 96
2, 197120, Note_off_c, 0, 62, 0
2, 197120, Note_on_c, 0, 63, 96
2, 197632, Note_off_c, 0, 63, 0
2, 197632, Note_on_c, 0, 63, 96
2, 197888, Note_off_c, 0, 63, 0
2, 197888, Note_on_c, 0, 62, 96
2, 198144, Note_off_c, 0, 62, 0
2, 198144, Note_on_c, 0, 63, 96
2, 198912, Note_off_c, 0, 63, 0
2, 198912, Note_on_c, 0, 69, 96
2, 199168, Note_off_c, 0, 69, 0
2, 199168, Note_on_c, 0, 70, 96
2, 199424, Note_off_c, 0, 70, 0
2, 199424, Note_on_c, 0, 72, 96
2, 199680, Note_off_c, 0, 72, 0
2, 199680, Note_on_c, 0, 70, 96
2, 199936, Note_off_c, 0, 70, 0
2, 199936, Note_on_c, 0, 69, 96
2, 200192, Note_off_c, 0, 69, 0
2, 200192, Note_on_c, 0, 67, 96
2, 200448, Note_off_c, 0, 67, 0
2, 200448, Note_on_c, 0, 65, 96
2, 200704, Note_off_c, 0, 65, 0
2, 200704, Note_on_c, 0, 70, 96
2, 201216, Note_off_c, 0, 70, 0
2, 201216, Note_on_c, 0, 65, 96
2, 201728, Note_off_c, 0, 65, 0
2, 201728, Note_on_c, 0, 62, 96
2, 202240, Note_off_c, 0, 62, 0
2, 202240, Note_on_c, 0, 60, 96
2, 202496, Note_off_c, 0, 60, 0
2, 202496, Note_on_c, 0, 58, 96
2, 202752, Note_off_c, 0, 58, 0
2, 202752, Note_on_c, 0, 58, 96
2, 203008, Note_off_c, 0, 58, 0
2, 203008, Note_on_c, 0, 63, 96
2, 203264, Note_off_c, 0, 63, 0
2, 203264, Note_on_c, 0, 62, 96
2, 203520, Note_off_c, 0, 62, 0
2, 203520, Note_on_c, 0, 60, 96
2, 203776, Note_off_c, 0, 60, 0
2, 203776, Note_on_c, 0, 62, 96
2, 204288, Note_off_c, 0, 62, 0
2, 204288, Note_on_c, 0, 58, 96
2, 204800, Note_off_c, 0, 58, 0
2, 204800, Note_on_c, 0, 55, 96
2, 205568, Note_off_c, 0, 55, 0
2, 205568, Note_on_c, 0, 57, 96
2, 205824, Note_off_c, 0, 57, 0
2, 205824, Note_on_c, 0, 57, 96
2, 206592, Note_off_c, 0, 57, 0
2, 206592, Note_on_c, 0, 55, 96
2, 206720, Note_off_c, 0, 55, 0
2, 206720, Note_on_c, 0, 57, 96
2, 206848, Note_off_c, 0, 57, 0
2, 206848, Note_on_c, 0, 58, 96
2, 207872, Note_off_c, 0, 58, 0
2, 208384, Note_on_c, 0, 62, 96
2, 208896, Note_off_c, 0, 62, 0
2, 208896, Note_on_c, 0, 63, 96
2, 209408, Note_off_c, 0, 63, 0
2, 209408, Note_on_c, 0, 65, 96
2, 210432, Note_off_c, 0, 65, 0
2, 210432, Note_on_c, 0, 67, 96
2, 210944, Note_off_c, 0, 67, 0
2, 210944, Note_on_c, 0, 58, 96
2, 211200, Note_off_c, 0, 58, 0
2, 211200, Note_on_c, 0, 56, 96
2, 211456, Note_off_c, 0, 56, 0
2, 211456, Note_on_c, 0, 58, 96
2, 211968, Note_off_c, 0, 58, 0
2, 212480, Note_on_c, 0, 70, 96
2, 212992, Note_off_c, 0, 70, 0
2, 212992, Note_on_c, 0, 70, 96
2, 214016, Note_off_c, 0, 70, 0
2, 214016, Note_on_c, 0, 68, 96
2, 214272, Note_off_c, 0, 68, 0
2, 214272, Note_on_c, 0, 67, 96
2, 214528, Note_off_c, 0, 67, 0
2, 214528, Note_on_c, 0, 65, 96
2, 214784, Note_off_c, 0, 65, 0
2, 214784, Note_on_c, 0, 63, 96
2, 215040, Note_off_c, 0, 63, 0
2, 215040, Note_on_c, 0, 65, 96
2, 215296, Note_off_c, 0, 65, 0
2, 215296, Note_on_c, 0, 63, 96
2, 215552, Note_off_c, 0, 63, 0
2, 215552, Note_on_c, 0, 62, 96
2, 215808, Note_off_c, 0, 62, 0
2, 215808, Note_on_c, 0, 60, 96
2, 216064, Note_off_c, 0, 60, 0
2, 216064, Note_on_c, 0, 58, 96
2, 216576, Note_off_c, 0, 58, 0
2, 216576, Note_on_c, 0, 60, 96
2, 216832, Note_off_c, 0, 60, 0
2, 216832, Note_on_c, 0, 62, 96
2, 217088, Note_off_c, 0, 62, 0
2, 217088, Note_on_c, 0, 63, 96
2, 217344, Note_off_c, 0, 63, 0
2, 217344, Note_on_c, 0, 65, 96
2, 217600, Note_off_c, 0, 65, 0
2, 217600, Note_on_c, 0, 67, 96
2, 217856, Note_off_c, 0, 67, 0
2, 217856, Note_on_c, 0, 65, 96
2, 218112, Note_off_c, 0, 65, 0
2, 218112, Note_on_c, 0, 68, 96
2, 218368, Note_off_c, 0, 68, 0
2, 218368, Note_on_c, 0, 67, 96
2, 218624, Note_off_c, 0, 67, 0
2, 218624, Note_on_c, 0, 65, 96
2, 218880, Note_off_c, 0, 65, 0
2, 218880, Note_on_c, 0, 63, 96
2, 219136, Note_off_c, 0, 63, 0
2, 219136, Note_on_c, 0, 67, 96
2, 219648, Note_off_c, 0, 67, 0
2, 219648, Note_on_c, 0, 65, 96
2, 220160, Note_off_c, 0, 65, 0
2, 222720, Note_on_c, 0, 67, 96
2, 223232, Note_off_c, 0, 67, 0
2, 223232, Note_on_c, 0, 72, 96
2, 223488, Note_off_c, 0, 72, 0
2, 223488, Note_on_c, 0, 74, 96
2, 223744, Note_off_c, 0, 74, 0
2, 223744, Note_on_c, 0, 75, 96
2, 224256, Note_off_c, 0, 75, 0
2, 224256, Note_on_c, 0, 75, 96
2, 224768, Note_off_c, 0, 75, 0
2, 224768, Note_on_c, 0, 74, 96
2, 225280, Note_off_c, 0, 74, 0
2, 225280, Note_on_c, 0, 77, 96
2, 225792, Note_off_c, 0, 77, 0
2, 225792, Note_on_c, 0, 75, 96
2, 226304, Note_off_c, 0, 75, 0
2, 226304, Note_on_c, 0, 67, 96
2, 226816, Note_off_c, 0, 67, 0
2, 226816, Note_on_c, 0, 65, 96
2, 227328, Note_off_c, 0, 65, 0
2, 227328, Note_on_c, 0, 75, 96
2, 227584, Note_off_c, 0, 75, 0
2, 227584, Note_on_c, 0, 72, 96
2, 227840, Note_off_c, 0, 72, 0
2, 227840, Note_on_c, 0, 74, 96
2, 228352, Note_off_c, 0, 74, 0
2, 228352, Note_on_c, 0, 65, 96
2, 228864, Note_off_c, 0, 65, 0
2, 228864, Note_on_c, 0, 63, 96
2, 229376, Note_off_c, 0, 63, 0
2, 229376, Note_on_c, 0, 71, 96
2, 229888, Note_off_c, 0, 71, 0
2, 229888, Note_on_c, 0, 72, 96
2, 230400, Note_off_c, 0, 72, 0
2, 230912, Note_on_c, 0, 67, 96
2, 231424, Note_off_c, 0, 67, 0
2, 231424, Note_on_c, 0, 67, 96
2, 232448, Note_off_c, 0, 67, 0
2, 232448, Note_on_c, 0, 65, 96
2, 232704, Note_off_c, 0, 65, 0
2, 232704, Note_on_c, 0, 63, 96
2, 232960, Note_off_c, 0, 63, 0
2, 232960, Note_on_c, 0, 62, 96
2, 233216, Note_off_c, 0, 62, 0
2, 233216, Note_on_c, 0, 60, 96
2, 233472, Note_off_c, 0, 60, 0
2, 233472, Note_on_c, 0, 62, 96
2, 233728, Note_off_c, 0, 62, 0
2, 233728, Note_on_c, 0, 60, 96
2, 233984, Note_off_c, 0, 60, 0
2, 233984, Note_on_c, 0, 59, 96
2, 234240, Note_off_c, 0, 59, 0
2, 234240, Note_on_c, 0, 57, 96
2, 234496, Note_off_c, 0, 57, 0
2, 234496, Note_on_c, 0, 55, 96
2, 235008, Note_off_c, 0, 55, 0
2, 235008, Note_on_c, 0, 57, 96
2, 235264, Note_off_c, 0, 57, 0
2, 235264, Note_on_c, 0, 59, 96
2, 235520, Note_off_c, 0, 59, 0
2, 235520, Note_on_c, 0, 60, 96
2, 235776, Note_off_c, 0, 60, 0
2, 235776, Note_on_c, 0, 62, 96
2, 236032, Note_off_c, 0, 62, 0
2, 236032, Note_on_c, 0, 63, 96
2, 236288, Note_off_c, 0, 63, 0
2, 236288, Note_on_c, 0, 62, 96
2, 236544, Note_off_c, 0, 62, 0
2, 236544, Note_on_c, 0, 65, 96
2, 236800, Note_off_c, 0, 65, 0
2, 236800, Note_on_c, 0, 63, 96
2, 237056, Note_off_c, 0, 63, 0
2, 237056, Note_on_c, 0, 62, 96
2, 237312, Note_off_c, 0, 62, 0
2, 237312, Note_on_c, 0, 60, 96
2, 237568, Note_off_c, 0, 60, 0
2, 237568, Note_on_c, 0, 63, 96
2, 238080, Note_off_c, 0, 63, 0
2, 238080, Note_on_c, 0, 62, 96
2, 238592, Note_off_c, 0, 62, 0
2, 239104, Note_on_c, 0, 55, 96
2, 239616, Note_off_c, 0, 55, 0
2, 239616, Note_on_c, 0, 63, 96
2, 240128, Note_off_c, 0, 63, 0
2, 240128, Note_on_c, 0, 66, 96
2, 241152, Note_off_c, 0, 66, 0
2, 241152, Note_on_c, 0, 67, 96
2, 241664, Note_off_c, 0, 67, 0
2, 241664, Note_on_c, 0, 60, 96
2, 241920, Note_off_c, 0, 60, 0
2, 241920, Note_on_c, 0, 58, 96
2, 242176, Note_off_c, 0, 58, 0
2, 242176, Note_on_c, 0, 60, 96
2, 242688, Note_off_c, 0, 60, 0
2, 243200, Note_on_c, 0, 57, 96
2, 243712, Note_off_c, 0, 57, 0
2, 243712, Note_on_c, 0, 66, 96
2, 244224, Note_off_c, 0, 66, 0
2, 244224, Note_on_c, 0, 67, 96
2, 245248, Note_off_c, 0, 67, 0
2, 245248, Note_on_c, 0, 69, 96
2, 245760, Note_off_c, 0, 69, 0
2, 245760, Note_on_c, 0, 60, 96
2, 246016, Note_off_c, 0, 60, 0
2, 246016, Note_on_c, 0, 58, 96
2, 246272, Note_off_c, 0, 58, 0
2, 246272, Note_on_c, 0, 60, 96
2, 246784, Note_off_c, 0, 60, 0
2, 247296, Note_on_c, 0, 72, 96
2, 247808, Note_off_c, 0, 72, 0
2, 247808, Note_on_c, 0, 70, 96
2, 248064, Note_off_c, 0, 70, 0
2, 248064, Note_on_c, 0, 69, 96
2, 248320, Note_off_c, 0, 69, 0
2, 248320, Note_on_c, 0, 67, 96
2, 249088, Note_off_c, 0, 67, 0
2, 249088, Note_on_c, 0, 66, 96
2, 249344, Note_off_c, 0, 66, 0
2, 249344, Note_on_c, 0, 67, 96
2, 250112, Note_off_c, 0, 67, 0
2, 250112, Note_on_c, 0, 65, 96
2, 250368, Note_off_c, 0, 65, 0
2, 250368, Note_on_c, 0, 63, 96
2, 250624, Note_off_c, 0, 63, 0
2, 250624, Note_on_c, 0, 62, 96
2, 250880, Note_off_c, 0, 62, 0
2, 250880, Note_on_c, 0, 60, 96
2, 251136, Note_off_c, 0, 60, 0
2, 251136, Note_on_c, 0, 58, 96
2, 251392, Note_off_c, 0, 58, 0
2, 251392, Note_on_c, 0, 57, 96
2, 251648, Note_off_c, 0, 57, 0
2, 251648, Note_on_c, 0, 55, 96
2, 251904, Note_off_c, 0, 55, 0
2, 251904, Note_on_c, 0, 57, 96
2, 252160, Note_off_c, 0, 57, 0
2, 252160, Note_on_c, 0, 58, 96
2, 252416, Note_off_c, 0, 58, 0
2, 252416, Note_on_c, 0, 60, 96
2, 253184, Note_off_c, 0, 60, 0
2, 253184, Note_on_c, 0, 58, 96
2, 253440, Note_off_c, 0, 58, 0
2, 253440, Note_on_c, 0, 60, 96
2, 254208, Note_off_c, 0, 60, 0
2, 254208, Note_on_c, 0, 66, 96
2, 254464, Note_off_c, 0, 66, 0
2, 254464, Note_on_c, 0, 67, 96
2, 254720, Note_off_c, 0, 67, 0
2, 254720, Note_on_c, 0, 69, 96
2, 254976, Note_off_c, 0, 69, 0
2, 254976, Note_on_c, 0, 67, 96
2, 255232, Note_off_c, 0, 67, 0
2, 255232, Note_on_c, 0, 66, 96
2, 255488, Note_off_c, 0, 66, 0
2, 255488, Note_on_c, 0, 64, 96
2, 255744, Note_off_c, 0, 64, 0
2, 255744, Note_on_c, 0, 62, 96
2, 256000, Note_off_c, 0, 62, 0
2, 256000, Note_on_c, 0, 67, 96
2, 256512, Note_off_c, 0, 67, 0
2, 256512, Note_on_c, 0, 62, 96
2, 257024, Note_off_c, 0, 62, 0
2, 257024, Note_on_c, 0, 58, 96
2, 257536, Note_off_c, 0, 58, 0
2, 257536, Note_on_c, 0, 57, 96
2, 257792, Note_off_c, 0, 57, 0
2, 257792, Note_on_c, 0, 55, 96
2, 258048, Note_off_c, 0, 55, 0
2, 258048, Note_on_c, 0, 55, 96
2, 259072, Note_off_c, 0, 55, 0
2, 261632, Note_on_c, 0, 58, 96
2, 262144, Note_off_c, 0, 58, 0
2, 262144, Note_on_c, 0, 63, 96
2, 262400, Note_off_c, 0, 63, 0
2, 262400, Note_on_c, 0, 65, 96
2, 262656, Note_off_c, 0, 65, 0
2, 262656, Note_on_c, 0, 67, 96
2, 263168, Note_off_c, 0, 67, 0
2, 263168, Note_on_c, 0, 67, 96
2, 263680, Note_off_c, 0, 67, 0
2, 263680, Note_on_c, 0, 65, 96
2, 264192, Note_off_c, 0, 65, 0
2, 264192, Note_on_c, 0, 68, 96
2, 264704, Note_off_c, 0, 68, 0
2, 264704, Note_on_c, 0, 67, 96
2, 265216, Note_off_c, 0, 67, 0
2, 265216, Note_on_c, 0, 58, 96
2, 265728, Note_off_c, 0, 58, 0
2, 265728, Note_on_c, 0, 56, 96
2, 266240, Note_off_c, 0, 56, 0
2, 266240, Note_on_c, 0, 67, 96
2, 266496, Note_off_c, 0, 67, 0
2, 266496, Note_on_c, 0, 63, 96
2, 266752, Note_off_c, 0, 63, 0
2, 266752, Note_on_c, 0, 65, 96
2, 267264, Note_off_c, 0, 65, 0
2, 267264, Note_on_c, 0, 56, 96
2, 267776, Note_off_c, 0, 56, 0
2, 267776, Note_on_c, 0, 55, 96
2, 268288, Note_off_c, 0, 55, 0
2, 268288, Note_on_c, 0, 62, 96
2, 268800, Note_off_c, 0, 62, 0
2, 268800, Note_on_c, 0, 63, 96
2, 269312, Note_off_c, 0, 63, 0
2, 271872, Note_on_c, 0, 70, 96
2, 272384, Note_off_c, 0, 70, 0
2, 272384, Note_on_c, 0, 70, 96
2, 273408, Note_off_c, 0, 70, 0
2, 273408, Note_on_c, 0, 68, 96
2, 273664, Note_off_c, 0, 68, 0
2, 273664, Note_on_c, 0, 67, 96
2, 273920, Note_off_c, 0, 67, 0
2, 273920, Note_on_c, 0, 65, 96
2, 274176, Note_off_c, 0, 65, 0
2, 274176, Note_on_c, 0, 63, 96
2, 274432, Note_off_c, 0, 63, 0
2, 274432, Note_on_c, 0, 65, 96
2, 274688, Note_off_c, 0, 65, 0
2, 274688, Note_on_c, 0, 63, 96
2, 274944, Note_off_c, 0, 63, 0
2, 274944, Note_on_c, 0, 62, 96
2, 275200, Note_off_c, 0, 62, 0
2, 275200, Note_on_c, 0, 60, 96
2, 275456, Note_off_c, 0, 60, 0
2, 275456, Note_on_c, 0, 58, 96
2, 275968, Note_off_c, 0, 58, 0
2, 275968, Note_on_c, 0, 60, 96
2, 276224, Note_off_c, 0, 60, 0
2, 276224, Note_on_c, 0, 62, 96
2, 276480, Note_off_c, 0, 62, 0
2, 276480, Note_on_c, 0, 63, 96
2, 276736, Note_off_c, 0, 63, 0
2, 276736, Note_on_c, 0, 65, 96
2, 276992, Note_off_c, 0, 65, 0
2, 276992, Note_on_c, 0, 67, 96
2, 277248, Note_off_c, 0, 67, 0
2, 277248, Note_on_c, 0, 65, 96
2, 277504, Note_off_c, 0, 65, 0
2, 277504, Note_on_c, 0, 68, 96
2, 277760, Note_off_c, 0, 68, 0
2, 277760, Note_on_c, 0, 67, 96
2, 278016, Note_off_c, 0, 67, 0
2, 278016, Note_on_c, 0, 65, 96
2, 278272, Note_off_c, 0, 65, 0
2, 278272, Note_on_c, 0, 63, 96
2, 278528, Note_off_c, 0, 63, 0
2, 278528, Note_on_c, 0, 67, 96
2, 279040, Note_off_c, 0, 67, 0
2, 279040, Note_on_c, 0, 65, 96
2, 279552, Note_off_c, 0, 65, 0
2, 280064, Note_on_c, 0, 63, 96
2, 280576, Note_off_c, 0, 63, 0
2, 280576, Note_on_c, 0, 72, 96
2, 281088, Note_off_c, 0, 72, 0
2, 281088, Note_on_c, 0, 74, 96
2, 282112, Note_off_c, 0, 74, 0
2, 282112, Note_on_c, 0, 75, 96
2, 282624, Note_off_c, 0, 75, 0
2, 282624, Note_on_c, 0, 68, 96
2, 282880, Note_off_c, 0, 68, 0
2, 282880, Note_on_c, 0, 67, 96
2, 283136, Note_off_c, 0, 67, 0
2, 283136, Note_on_c, 0, 68, 96
2, 283648, Note_off_c, 0, 68, 0
2, 284160, Note_on_c, 0, 72, 96
2, 284672, Note_off_c, 0, 72, 0
2, 284672, Note_on_c, 0, 74, 96
2, 285184, Note_off_c, 0, 74, 0
2, 285184, Note_on_c, 0, 75, 96
2, 286208, Note_off_c, 0, 75, 0
2, 286208, Note_on_c, 0, 77, 96
2, 286720, Note_off_c, 0, 77, 0
2, 286720, Note_on_c, 0, 68, 96
2, 286976, Note_off_c, 0, 68, 0
2, 286976, Note_on_c, 0, 67, 96
2, 287232, Note_off_c, 0, 67, 0
2, 287232, Note_on_c, 0, 68, 96
2, 287744, Note_off_c, 0, 68, 0
2, 288256, Note_on_c, 0, 65, 96
2, 288768, Note_off_c, 0, 65, 0
2, 288768, Note_on_c, 0, 67, 96
2, 289024, Note_off_c, 0, 67, 0
2, 289024, Note_on_c, 0, 65, 96
2, 289280, Note_off_c, 0, 65, 0
2, 289280, Note_on_c, 0, 63, 96
2, 290048, Note_off_c, 0, 63, 0
2, 290048, Note_on_c, 0, 62, 96
2, 290304, Note_off_c, 0, 62, 0
2, 290304, Note_on_c, 0, 63, 96
2, 291072, Note_off_c, 0, 63, 0
2, 291072, Note_on_c, 0, 73, 96
2, 291328, Note_off_c, 0, 73, 0
2, 291328, Note_on_c, 0, 72, 96
2, 291584, Note_off_c, 0, 72, 0
2, 291584, Note_on_c, 0, 70, 96
2, 291840, Note_off_c, 0, 70, 0
2, 291840, Note_on_c, 0, 68, 96
2, 292096, Note_off_c, 0, 68, 0
2, 292096, Note_on_c, 0, 67, 96
2, 292352, Note_off_c, 0, 67, 0
2, 292352, Note_on_c, 0, 65, 96
2, 292608, Note_off_c, 0, 65, 0
2, 292608, Note_on_c, 0, 63, 96
2, 292864, Note_off_c, 0, 63, 0
2, 292864, Note_on_c, 0, 65, 96
2, 293120, Note_off_c, 0, 65, 0
2, 293120, Note_on_c, 0, 67, 96
2, 293376, Note_off_c, 0, 67, 0
2, 293376, Note_on_c, 0, 68, 96
2, 294144, Note_off_c, 0, 68, 0
2, 294144, Note_on_c, 0, 67, 96
2, 294400, Note_off_c, 0, 67, 0
2, 294400, Note_on_c, 0, 68, 96
2, 295168, Note_off_c, 0, 68, 0
2, 295168, Note_on_c, 0, 62, 96
2, 295424, Note_off_c, 0, 62, 0
2, 295424, Note_on_c, 0, 63, 96
2, 295680, Note_off_c, 0, 63, 0
2, 295680, Note_on_c, 0, 65, 96
2, 295936, Note_off_c, 0, 65, 0
2, 295936, Note_on_c, 0, 63, 96
2, 296192, Note_off_c, 0, 63, 0
2, 296192, Note_on_c, 0, 62, 96
2, 296448, Note_off_c, 0, 62, 0
2, 296448, Note_on_c, 0, 60, 96
2, 296704, Note_off_c, 0, 60, 0
2, 296704, Note_on_c, 0, 58, 96
2, 296960, Note_off_c, 0, 58, 0
2, 296960, Note_on_c, 0, 70, 96
2, 297472, Note_off_c, 0, 70, 0
2, 297472, Note_on_c, 0, 63, 96
2, 297984, Note_off_c, 0, 63, 0
2, 297984, Note_on_c, 0, 67, 96
2, 298240, Note_off_c, 0, 67, 0
2, 298240, Note_on_c, 0, 65, 96
2, 298496, Note_off_c, 0, 65, 0
2, 298496, Note_on_c, 0, 63, 96
2, 298752, Note_off_c, 0, 63, 0
2, 298752, Note_on_c, 0, 62, 96
2, 299008, Note_off_c, 0, 62, 0
2, 299008, Note_on_c, 0, 63, 96
2, 299264, Note_off_c, 0, 63, 0
2, 299264, Note_on_c, 0, 68, 96
2, 299520, Note_off_c, 0, 68, 0
2, 299520, Note_on_c, 0, 67, 96
2, 299776, Note_off_c, 0, 67, 0
2, 299776, Note_on_c, 0, 65, 96
2, 300032, Note_off_c, 0, 65, 0
2, 300032, Note_on_c, 0, 67, 96
2, 300544, Note_off_c, 0, 67, 0
2, 300544, Note_on_c, 0, 63, 96
2, 301056, Note_off_c, 0, 63, 0
2, 301056, Note_on_c, 0, 60, 96
2, 301824, Note_off_c, 0, 60, 0
2, 301824, Note_on_c, 0, 62, 96
2, 302080, Note_off_c, 0, 62, 0
2, 302080, Note_on_c, 0, 62, 96
2, 302848, Note_off_c, 0, 62, 0
2, 302848, Note_on_c, 0, 63, 96
2, 303104, Note_off_c, 0, 63, 0
2, 303104, Note_on_c, 0, 63, 96
2, 307200, Note_off_c, 0, 63, 0
2, 307201, End_track
3, 0, Start_track
3, 0, Title_t, "Instrument 2"
3, 55296, Note_on_c, 1, 51, 96
3, 56320, Note_off_c, 1, 51, 0
3, 56320, Note_on_c, 1, 55, 96
3, 57344, Note_off_c, 1, 55, 0
3, 57344, Note_on_c, 1, 58, 96
3, 58368, Note_off_c, 1, 58, 0
3, 58368, Note_on_c, 1, 58, 96
3, 59392, Note_off_c, 1, 58, 0
3, 59392, Note_on_c, 1, 58, 96
3, 60416, Note_off_c, 1, 58, 0
3, 60416, Note_on_c, 1, 58, 96
3, 61440, Note_off_c, 1, 58, 0
3, 61440, Note_on_c, 1, 60, 96
3, 63488, Note_off_c, 1, 60, 0
3, 63488, Note_on_c, 1, 58, 96
3, 65536, Note_off_c, 1, 58, 0
3, 68608, Note_on_c, 1, 58, 96
3, 69632, Note_off_c, 1, 58, 0
3, 69632, Note_on_c, 1, 63, 96
3, 70656, Note_off_c, 1, 63, 0
3, 70656, Note_on_c, 1, 58, 96
3, 71680, Note_off_c, 1, 58, 0
3, 71680, Note_on_c, 1, 63, 96
3, 72192, Note_off_c, 1, 63, 0
3, 72192, Note_on_c, 1, 65, 96
3, 72704, Note_off_c, 1, 65, 0
3, 72704, Note_on_c, 1, 67, 96
3, 73728, Note_off_c, 1, 67, 0
3, 73728, Note_on_c, 1, 65, 96
3, 75264, Note_off_c, 1, 65, 0
3, 75264, Note_on_c, 1, 63, 96
3, 75776, Note_off_c, 1, 63, 0
3, 75776, Note_on_c, 1, 62, 96
3, 76800, Note_off_c, 1, 62, 0
3, 76800, Note_on_c, 1, 60, 96
3, 77056, Note_off_c, 1, 60, 0
3, 77056, Note_on_c, 1, 58, 96
3, 77312, Note_off_c, 1, 58, 0
3, 77312, Note_on_c, 1, 60, 96
3, 77824, Note_off_c, 1, 60, 0
3, 77824, Note_on_c, 1, 58, 96
3, 79872, Note_off_c, 1, 58, 0
3, 82944, Note_on_c, 1, 58, 96
3, 83968, Note_off_c, 1, 58, 0
3, 83968, Note_on_c, 1, 63, 96
3, 84992, Note_off_c, 1, 63, 0
3, 84992, Note_on_c, 1, 58, 96
3, 86016, Note_off_c, 1, 58, 0
3, 86016, Note_on_c, 1, 60, 96
3, 87040, Note_off_c, 1, 60, 0
3, 87040, Note_on_c, 1, 55, 96
3, 87552, Note_off_c, 1, 55, 0
3, 87552, Note_on_c, 1, 56, 96
3, 87808, Note_off_c, 1, 56, 0
3, 87808, Note_on_c, 1, 58, 96
3, 88064, Note_off_c, 1, 58, 0
3, 88064, Note_on_c, 1, 56, 96
3, 88576, Note_off_c, 1, 56, 0
3, 88576, Note_on_c, 1, 55, 96
3, 89088, Note_off_c, 1, 55, 0
3, 89088, Note_on_c, 1, 53, 96
3, 90112, Note_off_c, 1, 53, 0
3, 90112, Note_on_c, 1, 51, 96
3, 92160, Note_off_c, 1, 51, 0
3, 141312, Note_on_c, 1, 51, 96
3, 142336, Note_off_c, 1, 51, 0
3, 142336, Note_on_c, 1, 55, 96
3, 143360, Note_off_c, 1, 55, 0
3, 143360, Note_on_c, 1, 58, 96
3, 144384, Note_off_c, 1, 58, 0
3, 144384, Note_on_c, 1, 58, 96
3, 145408, Note_off_c, 1, 58, 0
3, 145408, Note_on_c, 1, 58, 96
3, 146432, Note_off_c, 1, 58, 0
3, 146432, Note_on_c, 1, 58, 96
3, 147456, Note_off_c, 1, 58, 0
3, 147456, Note_on_c, 1, 60, 96
3, 149504, Note_off_c, 1, 60, 0
3, 149504, Note_on_c, 1, 58, 96
3, 151552, Note_off_c, 1, 58, 0
3, 154624, Note_on_c, 1, 58, 96
3, 155648, Note_off_c, 1, 58, 0
3, 155648, Note_on_c, 1, 63, 96
3, 156672, Note_off_c, 1, 63, 0
3, 156672, Note_on_c, 1, 58, 96
3, 157696, Note_off_c, 1, 58, 0
3, 157696, Note_on_c, 1, 63, 96
3, 158208, Note_off_c, 1, 63, 0
3, 158208, Note_on_c, 1, 65, 96
3, 158720, Note_off_c, 1, 65, 0
3, 158720, Note_on_c, 1, 67, 96
3, 159744, Note_off_c, 1, 67, 0
3, 159744, Note_on_c, 1, 65, 96
3, 161280, Note_off_c, 1, 65, 0
3, 161280, Note_on_c, 1, 63, 96
3, 161792, Note_off_c, 1, 63, 0
3, 161792, Note_on_c, 1, 62, 96
3, 162816, Note_off_c, 1, 62, 0
3, 162816, Note_on_c, 1, 60, 96
3, 163072, Note_off_c, 1, 60, 0
3, 163072, Note_on_c, 1, 58, 96
3, 163328, Note_off_c, 1, 58, 0
3, 163328, Note_on_c, 1, 60, 96
3, 163840, Note_off_c, 1, 60, 0
3, 163840, Note_on_c, 1, 58, 96
3, 165888, Note_off_c, 1, 58, 0
3, 168960, Note_on_c, 1, 58, 96
3, 169984, Note_off_c, 1, 58, 0
3, 169984, Note_on_c, 1, 63, 96
3, 171008, Note_off_c, 1, 63, 0
3, 171008, Note_on_c, 1, 58, 96
3, 172032, Note_off_c, 1, 58, 0
3, 172032, Note_on_c, 1, 60, 96
3, 173056, Note_off_c, 1, 60, 0
3, 173056, Note_on_c, 1, 55, 96
3, 173568, Note_off_c, 1, 55, 0
3, 173568, Note_on_c, 1, 56, 96
3, 173824, Note_off_c, 1, 56, 0
3, 173824, Note_on_c, 1, 58, 96
3, 174080, Note_off_c, 1, 58, 0
3, 174080, Note_on_c, 1, 56, 96
3, 174592, Note_off_c, 1, 56, 0
3, 174592, Note_on_c, 1, 55, 96
3, 175104, Note_off_c, 1, 55, 0
3, 175104, Note_on_c, 1, 53, 96
3, 176128, Note_off_c, 1, 53, 0
3, 176128, Note_on_c, 1, 51, 96
3, 178176, Note_off_c, 1, 51, 0
3, 207872, Note_on_c, 1, 58, 96
3, 208896, Note_off_c, 1, 58, 0
3, 208896, Note_on_c, 1, 58, 96
3, 209920, Note_off_c, 1, 58, 0
3, 209920, Note_on_c, 1, 56, 96
3, 210944, Note_off_c, 1, 56, 0
3, 210944, Note_on_c, 1, 55, 96
3, 211968, Note_off_c, 1, 55, 0
3, 211968, Note_on_c, 1, 53, 96
3, 212992, Note_off_c, 1, 53, 0
3, 212992, Note_on_c, 1, 51, 96
3, 215040, Note_off_c, 1, 51, 0
3, 218112, Note_on_c, 1, 58, 96
3, 219136, Note_off_c, 1, 58, 0
3, 219136, Note_on_c, 1, 58, 96
3, 220160, Note_off_c, 1, 58, 0
3, 220160, Note_on_c, 1, 56, 96
3, 221184, Note_off_c, 1, 56, 0
3, 221184, Note_on_c, 1, 55, 96
3, 222208, Note_off_c, 1, 55, 0
3, 222208, Note_on_c, 1, 53, 96
3, 223232, Note_off_c, 1, 53, 0
3, 223232, Note_on_c, 1, 51, 96
3, 225280, Note_off_c, 1, 51, 0
3, 229376, Note_on_c, 1, 53, 96
3, 230400, Note_off_c, 1, 53, 0
3, 230400, Note_on_c, 1, 55, 96
3, 231424, Note_off_c, 1, 55, 0
3, 231424, Note_on_c, 1, 56, 96
3, 233472, Note_off_c, 1, 56, 0
3, 233472, Note_on_c, 1, 55, 96
3, 235520, Note_off_c, 1, 55, 0
3, 259072, Note_on_c, 1, 58, 96
3, 260096, Note_off_c, 1, 58, 0
3, 260096, Note_on_c, 1, 60, 96
3, 261120, Note_off_c, 1, 60, 0
3, 261120, Note_on_c, 1, 62, 96
3, 262144, Note_off_c, 1, 62, 0
3, 262144, Note_on_c, 1, 63, 96
3, 264192, Note_off_c, 1, 63, 0
3, 269312, Note_on_c, 1, 63, 96
3, 270336, Note_off_c, 1, 63, 0
3, 270336, Note_on_c, 1, 67, 96
3, 271360, Note_off_c, 1, 67, 0
3, 271360, Note_on_c, 1, 65, 96
3, 272384, Note_off_c, 1, 65, 0
3, 272384, Note_on_c, 1, 63, 96
3, 274432, Note_off_c, 1, 63, 0
3, 279552, Note_on_c, 1, 58, 96
3, 280576, Note_off_c, 1, 58, 0
3, 280576, Note_on_c, 1, 63, 96
3, 281600, Note_off_c, 1, 63, 0
3, 281600, Note_on_c, 1, 58, 96
3, 282624, Note_off_c, 1, 58, 0
3, 282624, Note_on_c, 1, 60, 96
3, 283648, Note_off_c, 1, 60, 0
3, 283648, Note_on_c, 1, 55, 96
3, 284672, Note_off_c, 1, 55, 0
3, 284672, Note_on_c, 1, 56, 96
3, 285184, Note_off_c, 1, 56, 0
3, 285184, Note_on_c, 1, 55, 96
3, 285696, Note_off_c, 1, 55, 0
3, 285696, Note_on_c, 1, 53, 96
3, 286720, Note_off_c, 1, 53, 0
3, 286720, Note_on_c, 1, 51, 96
3, 290816, Note_off_c, 1, 51, 0
3, 307201, End_track
4, 0, Start_track
4, 0, Title_t, "Instrument 3"
4, 55296, Note_on_c, 2, 51, 96
4, 56320, Note_off_c, 2, 51, 0
4, 56320, Note_on_c, 2, 55, 96
4, 57344, Note_off_c, 2, 55, 0
4, 57344, Note_on_c, 2, 58, 96
4, 58368, Note_off_c, 2, 58, 0
4, 58368, Note_on_c, 2, 58, 96
4, 59392, Note_off_c, 2, 58, 0
4, 59392, Note_on_c, 2, 58, 96
4, 60416, Note_off_c, 2, 58, 0
4, 60416, Note_on_c, 2, 58, 96
4, 61440, Note_off_c, 2, 58, 0
4, 61440, Note_on_c, 2, 60, 96
4, 63488, Note_off_c, 2, 60, 0
4, 63488, Note_on_c, 2, 58, 96
4, 65536, Note_off_c, 2, 58, 0
4, 68608, Note_on_c, 2, 58, 96
4, 69632, Note_off_c, 2, 58, 0
4, 69632, Note_on_c, 2, 63, 96
4, 70656, Note_off_c, 2, 63, 0
4, 70656, Note_on_c, 2, 58, 96
4, 71680, Note_off_c, 2, 58, 0
4, 71680, Note_on_c, 2, 63, 96
4, 72192, Note_off_c, 2, 63, 0
4, 72192, Note_on_c, 2, 65, 96
4, 72704, Note_off_c, 2, 65, 0
4, 72704, Note_on_c, 2, 67, 96
4, 73728, Note_off_c, 2, 67, 0
4, 73728, Note_on_c, 2, 65, 96
4, 75264, Note_off_c, 2, 65, 0
4, 75264, Note_on_c, 2, 63, 96
4, 75776, Note_off_c, 2, 63, 0
4, 75776, Note_on_c, 2, 62, 96
4, 76800, Note_off_c, 2, 62, 0
4, 76800, Note_on_c, 2, 60, 96
4, 77056, Note_off_c, 2, 60, 0
4, 77056, Note_on_c, 2, 58, 96
4, 77312, Note_off_c, 2, 58, 0
4, 77312, Note_on_c, 2, 60, 96
4, 77824, Note_off_c, 2, 60, 0
4, 77824, Note_on_c, 2, 58, 96
4, 79872, Note_off_c, 2, 58, 0
4, 82944, Note_on_c, 2, 58, 96
4, 83968, Note_off_c, 2, 58, 0
4, 83968, Note_on_c, 2, 63, 96
4, 84992, Note_off_c, 2, 63, 0
4, 84992, Note_on_c, 2, 58, 96
4, 86016, Note_off_c, 2, 58, 0
4, 86016, Note_on_c, 2, 60, 96
4, 87040, Note_off_c, 2, 60, 0
4, 87040, Note_on_c, 2, 55, 96
4, 87552, Note_off_c, 2, 55, 0
4, 87552, Note_on_c, 2, 56, 96
4, 87808, Note_off_c, 2, 56, 0
4, 87808, Note_on_c, 2, 58, 96
4, 88064, Note_off_c, 2, 58, 0
4, 88064, Note_on_c, 2, 56, 96
4, 88576, Note_off_c, 2, 56, 0
4, 88576, Note_on_c, 2, 55, 96
4, 89088, Note_off_c, 2, 55, 0
4, 89088, Note_on_c, 2, 53, 96
4, 90112, Note_off_c, 2, 53, 0
4, 90112, Note_on_c, 2, 51, 96
4, 92160, Note_off_c, 2, 51, 0
4, 141312, Note_on_c, 2, 51, 96
4, 142336, Note_off_c, 2, 51, 0
4, 142336, Note_on_c, 2, 55, 96
4, 143360, Note_off_c, 2, 55, 0
4, 143360, Note_on_c, 2, 58, 96
4, 144384, Note_off_c, 2, 58, 0
4, 144384, Note_on_c, 2, 58, 96
4, 145408, Note_off_c, 2, 58, 0
4, 145408, Note_on_c, 2, 58, 96
4, 146432, Note_off_c, 2, 58, 0
4, 146432, Note_on_c, 2, 58, 96
4, 147456, Note_off_c, 2, 58, 0
4, 147456, Note_on_c, 2, 60, 96
4, 149504, Note_off_c, 2, 60, 0
4, 149504, Note_on_c, 2, 58, 96
4, 151552, Note_off_c, 2, 58, 0
4, 154624, Note_on_c, 2, 58, 96
4, 155648, Note_off_c, 2, 58, 0
4, 155648, Note_on_c, 2, 63, 96
4, 156672, Note_off_c, 2, 63, 0
4, 156672, Note_on_c, 2, 58, 96
4, 157696, Note_off_c, 2, 58, 0
4, 157696, Note_on_c, 2, 63, 96
4, 158208, Note_off_c, 2, 63, 0
4, 158208, Note_on_c, 2, 65, 96
4, 158720, Note_off_c, 2, 65, 0
4, 158720, Note_on_c, 2, 67, 96
4, 159744, Note_off_c, 2, 67, 0
4, 159744, Note_on_c, 2, 65, 96
4, 161280, Note_off_c, 2, 65, 0
4, 161280, Note_on_c, 2, 63, 96
4, 161792, Note_off_c, 2, 63, 0
4, 161792, Note_on_c, 2, 62, 96
4, 162816, Note_off_c, 2, 62, 0
4, 162816, Note_on_c, 2, 60, 96
4, 163072, Note_off_c, 2, 60, 0
4, 163072, Note_on_c, 2, 58, 96
4, 163328, Note_off_c, 2, 58, 0
4, 163328, Note_on_c, 2, 60, 96
4, 163840, Note_off_c, 2, 60, 0
4, 163840, Note_on_c, 2, 58, 96
4, 165888, Note_off_c, 2, 58, 0
4, 168960, Note_on_c, 2, 58, 96
4, 169984, Note_off_c, 2, 58, 0
4, 169984, Note_on_c, 2, 63, 96
4, 171008, Note_off_c, 2, 63, 0
4, 171008, Note_on_c, 2, 58, 96
4, 172032, Note_off_c, 2, 58, 0
4, 172032, Note_on_c, 2, 60, 96
4, 173056, Note_off_c, 2, 60, 0
4, 173056, Note_on_c, 2, 55, 96
4, 173568, Note_off_c, 2, 55, 0
4, 173568, Note_on_c, 2, 56, 96
4, 173824, Note_off_c, 2, 56, 0
4, 173824, Note_on_c, 2, 58, 96
4, 174080, Note_off_c, 2, 58, 0
4, 174080, Note_on_c, 2, 56, 96
4, 174592, Note_off_c, 2, 56, 0
4, 174592, Note_on_c, 2, 55, 96
4, 175104, Note_off_c, 2, 55, 0
4, 175104, Note_on_c, 2, 53, 96
4, 176128, Note_off_c, 2, 53, 0
4, 176128, Note_on_c, 2, 51, 96
4, 178176, Note_off_c, 2, 51, 0
4, 207872, Note_on_c, 2, 58, 96
4, 208896, Note_off_c, 2, 58, 0
4, 208896, Note_on_c, 2, 58, 96
4, 209920, Note_off_c, 2, 58, 0
4, 209920, Note_on_c, 2, 56, 96
4, 210944, Note_off_c, 2, 56, 0
4, 210944, Note_on_c, 2, 55, 96
4, 211968, Note_off_c, 2, 55, 0
4, 211968, Note_on_c, 2, 53, 96
4, 212992, Note_off_c, 2, 53, 0
4, 212992, Note_on_c, 2, 51, 96
4, 215040, Note_off_c, 2, 51, 0
4, 218112, Note_on_c, 2, 58, 96
4, 219136, Note_off_c, 2, 58, 0
4, 219136, Note_on_c, 2, 58, 96
4, 220160, Note_off_c, 2, 58, 0
4, 220160, Note_on_c, 2, 56, 96
4, 221184, Note_off_c, 2, 56, 0
4, 221184, Note_on_c, 2, 55, 96
4, 222208, Note_off_c, 2, 55, 0
4, 222208, Note_on_c, 2, 53, 96
4, 223232, Note_off_c, 2, 53, 0
4, 223232, Note_on_c, 2, 51, 96
4, 225280, Note_off_c, 2, 51, 0
4, 229376, Note_on_c, 2, 53, 96
4, 230400, Note_off_c, 2, 53, 0
4, 230400, Note_on_c, 2, 55, 96
4, 231424, Note_off_c, 2, 55, 0
4, 231424, Note_on_c, 2, 56, 96
4, 233472, Note_off_c, 2, 56, 0
4, 233472, Note_on_c, 2, 55, 96
4, 235520, Note_off_c, 2, 55, 0
4, 259072, Note_on_c, 2, 58, 96
4, 260096, Note_off_c, 2, 58, 0
4, 260096, Note_on_c, 2, 60, 96
4, 261120, Note_off_c, 2, 60, 0
4, 261120, Note_on_c, 2, 62, 96
4, 262144, Note_off_c, 2, 62, 0
4, 262144, Note_on_c, 2, 63, 96
4, 264192, Note_off_c, 2, 63, 0
4, 269312, Note_on_c, 2, 63, 96
4, 270336, Note_off_c, 2, 63, 0
4, 270336, Note_on_c, 2, 67, 96
4, 271360, Note_off_c, 2, 67, 0
4, 271360, Note_on_c, 2, 65, 96
4, 272384, Note_off_c, 2, 65, 0
4, 272384, Note_on_c, 2, 63, 96
4, 274432, Note_off_c, 2, 63, 0
4, 279552, Note_on_c, 2, 58, 96
4, 280576, Note_off_c, 2, 58, 0
4, 280576, Note_on_c, 2, 63, 96
4, 281600, Note_off_c, 2, 63, 0
4, 281600, Note_on_c, 2, 58, 96
4, 282624, Note_off_c, 2, 58, 0
4, 282624, Note_on_c, 2, 60, 96
4, 283648, Note_off_c, 2, 60, 0
4, 283648, Note_on_c, 2, 55, 96
4, 284672, Note_off_c, 2, 55, 0
4, 284672, Note_on_c, 2, 56, 96
4, 285184, Note_off_c, 2, 56, 0
4, 285184, Note_on_c, 2, 55, 96
4, 285696, Note_off_c, 2, 55, 0
4, 285696, Note_on_c, 2, 53, 96
4, 286720, Note_off_c, 2, 53, 0
4, 286720, Note_on_c, 2, 51, 96
4, 290816, Note_off_c, 2, 51, 0
4, 307201, End_track
5, 0, Start_track
5, 0, Title_t, "Instrument 4"
5, 4096, Note_on_c, 3, 39, 96
5, 5120, Note_off_c, 3, 39, 0
5, 5120, Note_on_c, 3, 39, 96
5, 6144, Note_off_c, 3, 39, 0
5, 6144, Note_on_c, 3, 39, 96
5, 7168, Note_off_c, 3, 39, 0
5, 7168, Note_on_c, 3, 43, 96
5, 8192, Note_off_c, 3, 43, 0
5, 8192, Note_on_c, 3, 44, 96
5, 9216, Note_off_c, 3, 44, 0
5, 9216, Note_on_c, 3, 46, 96
5, 10240, Note_off_c, 3, 46, 0
5, 10240, Note_on_c, 3, 39, 96
5, 11264, Note_off_c, 3, 39, 0
5, 12288, Note_on_c, 3, 39, 96
5, 13312, Note_off_c, 3, 39, 0
5, 13312, Note_on_c, 3, 39, 96
5, 14336, Note_off_c, 3, 39, 0
5, 14336, Note_on_c, 3, 39, 96
5, 15360, Note_off_c, 3, 39, 0
5, 15360, Note_on_c, 3, 43, 96
5, 16384, Note_off_c, 3, 43, 0
5, 16384, Note_on_c, 3, 44, 96
5, 17408, Note_off_c, 3, 44, 0
5, 17408, Note_on_c, 3, 46, 96
5, 18432, Note_off_c, 3, 46, 0
5, 18432, Note_on_c, 3, 39, 96
5, 19456, Note_off_c, 3, 39, 0
5, 20480, Note_on_c, 3, 43, 96
5, 21504, Note_off_c, 3, 43, 0
5, 21504, Note_on_c, 3, 48, 96
5, 22528, Note_off_c, 3, 48, 0
5, 22528, Note_on_c, 3, 46, 96
5, 23552, Note_off_c, 3, 46, 0
5, 23552, Note_on_c, 3, 44, 96
5, 24576, Note_off_c, 3, 44, 0
5, 24576, Note_on_c, 3, 43, 96
5, 25600, Note_off_c, 3, 43, 0
5, 25600, Note_on_c, 3, 39, 96
5, 26624, Note_off_c, 3, 39, 0
5, 26624, Note_on_c, 3, 46, 96
5, 27648, Note_off_c, 3, 46, 0
5, 27648, Note_on_c, 3, 50, 96
5, 28672, Note_off_c, 3, 50, 0
5, 28672, Note_on_c, 3, 51, 96
5, 29696, Note_off_c, 3, 51, 0
5, 29696, Note_on_c, 3, 50, 96
5, 30720, Note_off_c, 3, 50, 0
5, 30720, Note_on_c, 3, 48, 96
5, 31744, Note_off_c, 3, 48, 0
5, 31744, Note_on_c, 3, 51, 96
5, 32768, Note_off_c, 3, 51, 0
5, 32768, Note_on_c, 3, 53, 96
5, 33792, Note_off_c, 3, 53, 0
5, 33792, Note_on_c, 3, 55, 96
5, 34816, Note_off_c, 3, 55, 0
5, 34816, Note_on_c, 3, 57, 96
5, 35840, Note_off_c, 3, 57, 0
5, 35840, Note_on_c, 3, 53, 96
5, 36864, Note_off_c, 3, 53, 0
5, 36864, Note_on_c, 3, 58, 96
5, 37888, Note_off_c, 3, 58, 0
5, 37888, Note_on_c, 3, 57, 96
5, 38912, Note_off_c, 3, 57, 0
5, 38912, Note_on_c, 3, 55, 96
5, 39936, Note_off_c, 3, 55, 0
5, 39936, Note_on_c, 3, 53, 96
5, 40960, Note_off_c, 3, 53, 0
5, 40960, Note_on_c, 3, 51, 96
5, 41984, Note_off_c, 3, 51, 0
5, 41984, Note_on_c, 3, 50, 96
5, 43008, Note_off_c, 3, 50, 0
5, 43008, Note_on_c, 3, 48, 96
5, 44032, Note_off_c, 3, 48, 0
5, 44032, Note_on_c, 3, 51, 96
5, 45056, Note_off_c, 3, 51, 0
5, 45056, Note_on_c, 3, 50, 96
5, 45568, Note_off_c, 3, 50, 0
5, 45568, Note_on_c, 3, 46, 96
5, 46080, Note_off_c, 3, 46, 0
5, 46080, Note_on_c, 3, 53, 96
5, 46592, Note_off_c, 3, 53, 0
5, 46592, Note_on_c, 3, 41, 96
5, 47104, Note_off_c, 3, 41, 0
5, 47104, Note_on_c, 3, 43, 96
5, 47616, Note_off_c, 3, 43, 0
5, 47616, Note_on_c, 3, 45, 96
5, 48128, Note_off_c, 3, 45, 0
5, 48128, Note_on_c, 3, 46, 96
5, 48640, Note_off_c, 3, 46, 0
5, 48640, Note_on_c, 3, 38, 96
5, 49152, Note_off_c, 3, 38, 0
5, 49152, Note_on_c, 3, 39, 96
5, 49664, Note_off_c, 3, 39, 0
5, 49664, Note_on_c, 3, 36, 96
5, 50176, Note_off_c, 3, 36, 0
5, 50176, Note_on_c, 3, 41, 96
5, 51200, Note_off_c, 3, 41, 0
5, 51200, Note_on_c, 3, 46, 96
5, 51712, Note_off_c, 3, 46, 0
5, 51712, Note_on_c, 3, 48, 96
5, 52224, Note_off_c, 3, 48, 0
5, 52224, Note_on_c, 3, 46, 96
5, 52736, Note_off_c, 3, 46, 0
5, 52736, Note_on_c, 3, 44, 96
5, 53248, Note_off_c, 3, 44, 0
5, 53248, Note_on_c, 3, 43, 96
5, 53760, Note_off_c, 3, 43, 0
5, 53760, Note_on_c, 3, 41, 96
5, 54272, Note_off_c, 3, 41, 0
5, 54272, Note_on_c, 3, 39, 96
5, 54784, Note_off_c, 3, 39, 0
5, 54784, Note_on_c, 3, 38, 96
5, 55296, Note_off_c, 3, 38, 0
5, 55296, Note_on_c, 3, 36, 96
5, 56320, Note_off_c, 3, 36, 0
5, 56320, Note_on_c, 3, 48, 96
5, 57344, Note_off_c, 3, 48, 0
5, 57344, Note_on_c, 3, 43, 96
5, 58368, Note_off_c, 3, 43, 0
5, 58368, Note_on_c, 3, 46, 96
5, 59392, Note_off_c, 3, 46, 0
5, 59392, Note_on_c, 3, 39, 96
5, 60416, Note_off_c, 3, 39, 0
5, 60416, Note_on_c, 3, 43, 96
5, 61440, Note_off_c, 3, 43, 0
5, 61440, Note_on_c, 3, 44, 96
5, 62464, Note_off_c, 3, 44, 0
5, 62464, Note_on_c, 3, 56, 96
5, 63488, Note_off_c, 3, 56, 0
5, 63488, Note_on_c, 3, 50, 96
5, 64512, Note_off_c, 3, 50, 0
5, 64512, Note_on_c, 3, 51, 96
5, 65536, Note_off_c, 3, 51, 0
5, 65536, Note_on_c, 3, 48, 96
5, 66560, Note_off_c, 3, 48, 0
5, 66560, Note_on_c, 3, 50, 96
5, 67584, Note_off_c, 3, 50, 0
5, 67584, Note_on_c, 3, 51, 96
5, 68608, Note_off_c, 3, 51, 0
5, 68608, Note_on_c, 3, 50, 96
5, 69632, Note_off_c, 3, 50, 0
5, 69632, Note_on_c, 3, 48, 96
5, 70656, Note_off_c, 3, 48, 0
5, 70656, Note_on_c, 3, 43, 96
5, 71680, Note_off_c, 3, 43, 0
5, 71680, Note_on_c, 3, 48, 96
5, 72192, Note_off_c, 3, 48, 0
5, 72192, Note_on_c, 3, 50, 96
5, 72704, Note_off_c, 3, 50, 0
5, 72704, Note_on_c, 3, 51, 96
5, 74240, Note_off_c, 3, 51, 0
5, 74240, Note_on_c, 3, 50, 96
5, 74752, Note_off_c, 3, 50, 0
5, 74752, Note_on_c, 3, 43, 96
5, 75264, Note_off_c, 3, 43, 0
5, 75264, Note_on_c, 3, 45, 96
5, 75776, Note_off_c, 3, 45, 0
5, 75776, Note_on_c, 3, 46, 96
5, 76288, Note_off_c, 3, 46, 0
5, 76288, Note_on_c, 3, 38, 96
5, 76800, Note_off_c, 3, 38, 0
5, 76800, Note_on_c, 3, 39, 96
5, 77312, Note_off_c, 3, 39, 0
5, 77312, Note_on_c, 3, 41, 96
5, 77824, Note_off_c, 3, 41, 0
5, 77824, Note_on_c, 3, 46, 96
5, 78336, Note_off_c, 3, 46, 0
5, 78336, Note_on_c, 3, 45, 96
5, 78848, Note_off_c, 3, 45, 0
5, 78848, Note_on_c, 3, 46, 96
5, 79360, Note_off_c, 3, 46, 0
5, 79360, Note_on_c, 3, 48, 96
5, 79872, Note_off_c, 3, 48, 0
5, 79872, Note_on_c, 3, 50, 96
5, 80384, Note_off_c, 3, 50, 0
5, 80384, Note_on_c, 3, 46, 96
5, 80896, Note_off_c, 3, 46, 0
5, 80896, Note_on_c, 3, 51, 96
5, 81920, Note_off_c, 3, 51, 0
5, 81920, Note_on_c, 3, 46, 96
5, 82944, Note_off_c, 3, 46, 0
5, 82944, Note_on_c, 3, 44, 96
5, 83968, Note_off_c, 3, 44, 0
5, 83968, Note_on_c, 3, 43, 96
5, 84992, Note_off_c, 3, 43, 0
5, 84992, Note_on_c, 3, 39, 96
5, 86016, Note_off_c, 3, 39, 0
5, 86016, Note_on_c, 3, 44, 96
5, 86528, Note_off_c, 3, 44, 0
5, 86528, Note_on_c, 3, 46, 96
5, 87040, Note_off_c, 3, 46, 0
5, 87040, Note_on_c, 3, 48, 96
5, 88064, Note_off_c, 3, 48, 0
5, 88064, Note_on_c, 3, 41, 96
5, 89088, Note_off_c, 3, 41, 0
5, 89088, Note_on_c, 3, 46, 96
5, 89600, Note_off_c, 3, 46, 0
5, 89600, Note_on_c, 3, 44, 96
5, 90112, Note_off_c, 3, 44, 0
5, 90112, Note_on_c, 3, 43, 96
5, 91136, Note_off_c, 3, 43, 0
5, 91136, Note_on_c, 3, 51, 96
5, 92160, Note_off_c, 3, 51, 0
5, 92160, Note_on_c, 3, 50, 96
5, 93184, Note_off_c, 3, 50, 0
5, 93184, Note_on_c, 3, 51, 96
5, 94208, Note_off_c, 3, 51, 0
5, 94208, Note_on_c, 3, 44, 96
5, 95232, Note_off_c, 3, 44, 0
5, 95232, Note_on_c, 3, 46, 96
5, 96256, Note_off_c, 3, 46, 0
5, 96256, Note_on_c, 3, 39, 96
5, 97280, Note_off_c, 3, 39, 0
5, 98304, Note_on_c, 3, 39, 96
5, 99328, Note_off_c, 3, 39, 0
5, 99328, Note_on_c, 3, 39, 96
5, 100352, Note_off_c, 3, 39, 0
5, 100352, Note_on_c, 3, 39, 96
5, 101376, Note_off_c, 3, 39, 0
5, 101376, Note_on_c, 3, 43, 96
5, 102400, Note_off_c, 3, 43, 0
5, 102400, Note_on_c, 3, 44, 96
5, 103424, Note_off_c, 3, 44, 0
5, 103424, Note_on_c, 3, 46, 96
5, 104448, Note_off_c, 3, 46, 0
5, 104448, Note_on_c, 3, 39, 96
5, 105472, Note_off_c, 3, 39, 0
5, 106496, Note_on_c, 3, 43, 96
5, 107520, Note_off_c, 3, 43, 0
5, 107520, Note_on_c, 3, 48, 96
5, 108544, Note_off_c, 3, 48, 0
5, 108544, Note_on_c, 3, 46, 96
5, 109568, Note_off_c, 3, 46, 0
5, 109568, Note_on_c, 3, 44, 96
5, 110592, Note_off_c, 3, 44, 0
5, 110592, Note_on_c, 3, 43, 96
5, 111616, Note_off_c, 3, 43, 0
5, 111616, Note_on_c, 3, 39, 96
5, 112640, Note_off_c, 3, 39, 0
5, 112640, Note_on_c, 3, 46, 96
5, 113664, Note_off_c, 3, 46, 0
5, 113664, Note_on_c, 3, 50, 96
5, 114688, Note_off_c, 3, 50, 0
5, 114688, Note_on_c, 3, 51, 96
5, 115712, Note_off_c, 3, 51, 0
5, 115712, Note_on_c, 3, 50, 96
5, 116736, Note_off_c, 3, 50, 0
5, 116736, Note_on_c, 3, 48, 96
5, 117760, Note_off_c, 3, 48, 0
5, 117760, Note_on_c, 3, 51, 96
5, 118784, Note_off_c, 3, 51, 0
5, 118784, Note_on_c, 3, 53, 96
5, 119808, Note_off_c, 3, 53, 0
5, 119808, Note_on_c, 3, 55, 96
5, 120832, Note_off_c, 3, 55, 0
5, 120832, Note_on_c, 3, 57, 96
5, 121856, Note_off_c, 3, 57, 0
5, 121856, Note_on_c, 3, 53, 96
5, 122880, Note_off_c, 3, 53, 0
5, 122880, Note_on_c, 3, 58, 96
5, 123904, Note_off_c, 3, 58, 0
5, 123904, Note_on_c, 3, 57, 96
5, 124928, Note_off_c, 3, 57, 0
5, 124928, Note_on_c, 3, 55, 96
5, 125952, Note_off_c, 3, 55, 0
5, 125952, Note_on_c, 3, 53, 96
5, 126976, Note_off_c, 3, 53, 0
5, 126976, Note_on_c, 3, 51, 96
5, 128000, Note_off_c, 3, 51, 0
5, 128000, Note_on_c, 3, 50, 96
5, 129024, Note_off_c, 3, 50, 0
5, 129024, Note_on_c, 3, 48, 96
5, 130048, Note_off_c, 3, 48, 0
5, 130048, Note_on_c, 3, 51, 96
5, 131072, Note_off_c, 3, 51, 0
5, 131072, Note_on_c, 3, 50, 96
5, 131584, Note_off_c, 3, 50, 0
5, 131584, Note_on_c, 3, 46, 96
5, 132096, Note_off_c, 3, 46, 0
5, 132096, Note_on_c, 3, 53, 96
5, 132608, Note_off_c, 3, 53, 0
5, 132608, Note_on_c, 3, 41, 96
5, 133120, Note_off_c, 3, 41, 0
5, 133120, Note_on_c, 3, 43, 96
5, 133632, Note_off_c, 3, 43, 0
5, 133632, Note_on_c, 3, 45, 96
5, 134144, Note_off_c, 3, 45, 0
5, 134144, Note_on_c, 3, 46, 96
5, 134656, Note_off_c, 3, 46, 0
5, 134656, Note_on_c, 3, 38, 96
5, 135168, Note_off_c, 3, 38, 0
5, 135168, Note_on_c, 3, 39, 96
5, 135680, Note_off_c, 3, 39, 0
5, 135680, Note_on_c, 3, 36, 96
5, 136192, Note_off_c, 3, 36, 0
5, 136192, Note_on_c, 3, 41, 96
5, 137216, Note_off_c, 3, 41, 0
5, 137216, Note_on_c, 3, 46, 96
5, 137728, Note_off_c, 3, 46, 0
5, 137728, Note_on_c, 3, 48, 96
5, 138240, Note_off_c, 3, 48, 0
5, 138240, Note_on_c, 3, 46, 96
5, 138752, Note_off_c, 3, 46, 0
5, 138752, Note_on_c, 3, 44, 96
5, 139264, Note_off_c, 3, 44, 0
5, 139264, Note_on_c, 3, 43, 96
5, 139776, Note_off_c, 3, 43, 0
5, 139776, Note_on_c, 3, 41, 96
5, 140288, Note_off_c, 3, 41, 0
5, 140288, Note_on_c, 3, 39, 96
5, 140800, Note_off_c, 3, 39, 0
5, 140800, Note_on_c, 3, 38, 96
5, 141312, Note_off_c, 3, 38, 0
5, 141312, Note_on_c, 3, 36, 96
5, 142336, Note_off_c, 3, 36, 0
5, 142336, Note_on_c, 3, 48, 96
5, 143360, Note_off_c, 3, 48, 0
5, 143360, Note_on_c, 3, 43, 96
5, 144384, Note_off_c, 3, 43, 0
5, 144384, Note_on_c, 3, 46, 96
5, 145408, Note_off_c, 3, 46, 0
5, 145408, Note_on_c, 3, 39, 96
5, 146432, Note_off_c, 3, 39, 0
5, 146432, Note_on_c, 3, 43, 96
5, 147456, Note_off_c, 3, 43, 0
5, 147456, Note_on_c, 3, 44, 96
5, 148480, Note_off_c, 3, 44, 0
5, 148480, Note_on_c, 3, 56, 96
5, 149504, Note_off_c, 3, 56, 0
5, 149504, Note_on_c, 3, 50, 96
5, 150528, Note_off_c, 3, 50, 0
5, 150528, Note_on_c, 3, 51, 96
5, 151552, Note_off_c, 3, 51, 0
5, 151552, Note_on_c, 3, 48, 96
5, 152576, Note_off_c, 3, 48, 0
5, 152576, Note_on_c, 3, 50, 96
5, 153600, Note_off_c, 3, 50, 0
5, 153600, Note_on_c, 3, 51, 96
5, 154624, Note_off_c, 3, 51, 0
5, 154624, Note_on_c, 3, 50, 96
5, 155648, Note_off_c, 3, 50, 0
5, 155648, Note_on_c, 3, 48, 96
5, 156672, Note_off_c, 3, 48, 0
5, 156672, Note_on_c, 3, 43, 96
5, 157696, Note_off_c, 3, 43, 0
5, 157696, Note_on_c, 3, 48, 96
5, 158208, Note_off_c, 3, 48, 0
5, 158208, Note_on_c, 3, 50, 96
5, 158720, Note_off_c, 3, 50, 0
5, 158720, Note_on_c, 3, 51, 96
5, 160256, Note_off_c, 3, 51, 0
5, 160256, Note_on_c, 3, 50, 96
5, 160768, Note_off_c, 3, 50, 0
5, 160768, Note_on_c, 3, 43, 96
5, 161280, Note_off_c, 3, 43, 0
5, 161280, Note_on_c, 3, 45, 96
5, 161792, Note_off_c, 3, 45, 0
5, 161792, Note_on_c, 3, 46, 96
5, 162304, Note_off_c, 3, 46, 0
5, 162304, Note_on_c, 3, 38, 96
5, 162816, Note_off_c, 3, 38, 0
5, 162816, Note_on_c, 3, 39, 96
5, 163328, Note_off_c, 3, 39, 0
5, 163328, Note_on_c, 3, 41, 96
5, 163840, Note_off_c, 3, 41, 0
5, 163840, Note_on_c, 3, 46, 96
5, 164352, Note_off_c, 3, 46, 0
5, 164352, Note_on_c, 3, 45, 96
5, 164864, Note_off_c, 3, 45, 0
5, 164864, Note_on_c, 3, 46, 96
5, 165376, Note_off_c, 3, 46, 0
5, 165376, Note_on_c, 3, 48, 96
5, 165888, Note_off_c, 3, 48, 0
5, 165888, Note_on_c, 3, 50, 96
5, 166400, Note_off_c, 3, 50, 0
5, 166400, Note_on_c, 3, 46, 96
5, 166912, Note_off_c, 3, 46, 0
5, 166912, Note_on_c, 3, 51, 96
5, 167936, Note_off_c, 3, 51, 0
5, 167936, Note_on_c, 3, 46, 96
5, 168960, Note_off_c, 3, 46, 0
5, 168960, Note_on_c, 3, 44, 96
5, 169984, Note_off_c, 3, 44, 0
5, 169984, Note_on_c, 3, 43, 96
5, 171008, Note_off_c, 3, 43, 0
5, 171008, Note_on_c, 3, 39, 96
5, 172032, Note_off_c, 3, 39, 0
5, 172032, Note_on_c, 3, 44, 96
5, 172544, Note_off_c, 3, 44, 0
5, 172544, Note_on_c, 3, 46, 96
5, 173056, Note_off_c, 3, 46, 0
5, 173056, Note_on_c, 3, 48, 96
5, 174080, Note_off_c, 3, 48, 0
5, 174080, Note_on_c, 3, 41, 96
5, 175104, Note_off_c, 3, 41, 0
5, 175104, Note_on_c, 3, 46, 96
5, 175616, Note_off_c, 3, 46, 0
5, 175616, Note_on_c, 3, 44, 96
5, 176128, Note_off_c, 3, 44, 0
5, 176128, Note_on_c, 3, 43, 96
5, 177152, Note_off_c, 3, 43, 0
5, 177152, Note_on_c, 3, 48, 96
5, 178176, Note_off_c, 3, 48, 0
5, 178176, Note_on_c, 3, 46, 96
5, 179200, Note_off_c, 3, 46, 0
5, 179200, Note_on_c, 3, 44, 96
5, 180224, Note_off_c, 3, 44, 0
5, 180224, Note_on_c, 3, 43, 96
5, 181248, Note_off_c, 3, 43, 0
5, 181248, Note_on_c, 3, 39, 96
5, 182272, Note_off_c, 3, 39, 0
5, 182272, Note_on_c, 3, 46, 96
5, 183296, Note_off_c, 3, 46, 0
5, 183296, Note_on_c, 3, 50, 96
5, 184320, Note_off_c, 3, 50, 0
5, 184320, Note_on_c, 3, 51, 96
5, 185344, Note_off_c, 3, 51, 0
5, 185344, Note_on_c, 3, 50, 96
5, 186368, Note_off_c, 3, 50, 0
5, 186368, Note_on_c, 3, 48, 96
5, 187392, Note_off_c, 3, 48, 0
5, 187392, Note_on_c, 3, 51, 96
5, 188416, Note_off_c, 3, 51, 0
5, 188416, Note_on_c, 3, 53, 96
5, 189440, Note_off_c, 3, 53, 0
5, 189440, Note_on_c, 3, 55, 96
5, 190464, Note_off_c, 3, 55, 0
5, 190464, Note_on_c, 3, 57, 96
5, 191488, Note_off_c, 3, 57, 0
5, 191488, Note_on_c, 3, 53, 96
5, 192512, Note_off_c, 3, 53, 0
5, 192512, Note_on_c, 3, 58, 96
5, 193536, Note_off_c, 3, 58, 0
5, 193536, Note_on_c, 3, 57, 96
5, 194560, Note_off_c, 3, 57, 0
5, 194560, Note_on_c, 3, 55, 96
5, 195584, Note_off_c, 3, 55, 0
5, 195584, Note_on_c, 3, 53, 96
5, 196608, Note_off_c, 3, 53, 0
5, 196608, Note_on_c, 3, 51, 96
5, 197632, Note_off_c, 3, 51, 0
5, 197632, Note_on_c, 3, 50, 96
5, 198656, Note_off_c, 3, 50, 0
5, 198656, Note_on_c, 3, 48, 96
5, 199680, Note_off_c, 3, 48, 0
5, 199680, Note_on_c, 3, 51, 96
5, 200704, Note_off_c, 3, 51, 0
5, 200704, Note_on_c, 3, 50, 96
5, 201216, Note_off_c, 3, 50, 0
5, 201216, Note_on_c, 3, 46, 96
5, 201728, Note_off_c, 3, 46, 0
5, 201728, Note_on_c, 3, 53, 96
5, 202240, Note_off_c, 3, 53, 0
5, 202240, Note_on_c, 3, 41, 96
5, 202752, Note_off_c, 3, 41, 0
5, 202752, Note_on_c, 3, 43, 96
5, 203264, Note_off_c, 3, 43, 0
5, 203264, Note_on_c, 3, 45, 96
5, 203776, Note_off_c, 3, 45, 0
5, 203776, Note_on_c, 3, 46, 96
5, 204288, Note_off_c, 3, 46, 0
5, 204288, Note_on_c, 3, 38, 96
5, 204800, Note_off_c, 3, 38, 0
5, 204800, Note_on_c, 3, 39, 96
5, 205312, Note_off_c, 3, 39, 0
5, 205312, Note_on_c, 3, 36, 96
5, 205824, Note_off_c, 3, 36, 0
5, 205824, Note_on_c, 3, 41, 96
5, 206848, Note_off_c, 3, 41, 0
5, 206848, Note_on_c, 3, 46, 96
5, 207360, Note_off_c, 3, 46, 0
5, 207360, Note_on_c, 3, 48, 96
5, 207872, Note_off_c, 3, 48, 0
5, 207872, Note_on_c, 3, 46, 96
5, 208384, Note_off_c, 3, 46, 0
5, 208384, Note_on_c, 3, 44, 96
5, 208896, Note_off_c, 3, 44, 0
5, 208896, Note_on_c, 3, 43, 96
5, 209408, Note_off_c, 3, 43, 0
5, 209408, Note_on_c, 3, 41, 96
5, 209920, Note_off_c, 3, 41, 0
5, 209920, Note_on_c, 3, 39, 96
5, 210432, Note_off_c, 3, 39, 0
5, 210432, Note_on_c, 3, 38, 96
5, 210944, Note_off_c, 3, 38, 0
5, 210944, Note_on_c, 3, 39, 96
5, 211456, Note_off_c, 3, 39, 0
5, 211456, Note_on_c, 3, 43, 96
5, 211968, Note_off_c, 3, 43, 0
5, 211968, Note_on_c, 3, 44, 96
5, 212480, Note_off_c, 3, 44, 0
5, 212480, Note_on_c, 3, 46, 96
5, 212992, Note_off_c, 3, 46, 0
5, 212992, Note_on_c, 3, 48, 96
5, 213504, Note_off_c, 3, 48, 0
5, 213504, Note_on_c, 3, 50, 96
5, 214016, Note_off_c, 3, 50, 0
5, 214016, Note_on_c, 3, 51, 96
5, 215040, Note_off_c, 3, 51, 0
5, 215040, Note_on_c, 3, 46, 96
5, 216064, Note_off_c, 3, 46, 0
5, 216064, Note_on_c, 3, 44, 96
5, 217088, Note_off_c, 3, 44, 0
5, 217088, Note_on_c, 3, 43, 96
5, 218112, Note_off_c, 3, 43, 0
5, 218112, Note_on_c, 3, 39, 96
5, 219136, Note_off_c, 3, 39, 0
5, 219136, Note_on_c, 3, 46, 96
5, 219648, Note_off_c, 3, 46, 0
5, 219648, Note_on_c, 3, 48, 96
5, 220160, Note_off_c, 3, 48, 0
5, 220160, Note_on_c, 3, 50, 96
5, 220672, Note_off_c, 3, 50, 0
5, 220672, Note_on_c, 3, 46, 96
5, 221184, Note_off_c, 3, 46, 0
5, 221184, Note_on_c, 3, 51, 96
5, 221696, Note_off_c, 3, 51, 0
5, 221696, Note_on_c, 3, 50, 96
5, 222208, Note_off_c, 3, 50, 0
5, 222208, Note_on_c, 3, 48, 96
5, 222720, Note_off_c, 3, 48, 0
5, 222720, Note_on_c, 3, 47, 96
5, 223232, Note_off_c, 3, 47, 0
5, 223232, Note_on_c, 3, 48, 96
5, 223744, Note_off_c, 3, 48, 0
5, 223744, Note_on_c, 3, 55, 96
5, 224256, Note_off_c, 3, 55, 0
5, 224256, Note_on_c, 3, 60, 96
5, 224768, Note_off_c, 3, 60, 0
5, 224768, Note_on_c, 3, 58, 96
5, 225280, Note_off_c, 3, 58, 0
5, 225280, Note_on_c, 3, 56, 96
5, 226304, Note_off_c, 3, 56, 0
5, 226304, Note_on_c, 3, 51, 96
5, 227328, Note_off_c, 3, 51, 0
5, 227328, Note_on_c, 3, 53, 96
5, 228352, Note_off_c, 3, 53, 0
5, 228352, Note_on_c, 3, 55, 96
5, 229376, Note_off_c, 3, 55, 0
5, 229376, Note_on_c, 3, 56, 96
5, 229888, Note_off_c, 3, 56, 0
5, 229888, Note_on_c, 3, 55, 96
5, 230400, Note_off_c, 3, 55, 0
5, 230400, Note_on_c, 3, 53, 96
5, 230912, Note_off_c, 3, 53, 0
5, 230912, Note_on_c, 3, 51, 96
5, 231424, Note_off_c, 3, 51, 0
5, 231424, Note_on_c, 3, 53, 96
5, 231936, Note_off_c, 3, 53, 0
5, 231936, Note_on_c, 3, 51, 96
5, 232448, Note_off_c, 3, 51, 0
5, 232448, Note_on_c, 3, 50, 96
5, 232960, Note_off_c, 3, 50, 0
5, 232960, Note_on_c, 3, 48, 96
5, 233472, Note_off_c, 3, 48, 0
5, 233472, Note_on_c, 3, 47, 96
5, 233984, Note_off_c, 3, 47, 0
5, 233984, Note_on_c, 3, 43, 96
5, 234496, Note_off_c, 3, 43, 0
5, 234496, Note_on_c, 3, 55, 96
5, 235008, Note_off_c, 3, 55, 0
5, 235008, Note_on_c, 3, 53, 96
5, 235520, Note_off_c, 3, 53, 0
5, 235520, Note_on_c, 3, 51, 96
5, 236544, Note_off_c, 3, 51, 0
5, 236544, Note_on_c, 3, 48, 96
5, 237568, Note_off_c, 3, 48, 0
5, 237568, Note_on_c, 3, 55, 96
5, 238592, Note_off_c, 3, 55, 0
5, 238592, Note_on_c, 3, 59, 96
5, 239616, Note_off_c, 3, 59, 0
5, 239616, Note_on_c, 3, 60, 96
5, 240640, Note_off_c, 3, 60, 0
5, 240640, Note_on_c, 3, 58, 96
5, 241664, Note_off_c, 3, 58, 0
5, 241664, Note_on_c, 3, 57, 96
5, 242688, Note_off_c, 3, 57, 0
5, 242688, Note_on_c, 3, 48, 96
5, 243712, Note_off_c, 3, 48, 0
5, 243712, Note_on_c, 3, 50, 96
5, 244736, Note_off_c, 3, 50, 0
5, 244736, Note_on_c, 3, 51, 96
5, 245760, Note_off_c, 3, 51, 0
5, 245760, Note_on_c, 3, 42, 96
5, 246784, Note_off_c, 3, 42, 0
5, 246784, Note_on_c, 3, 38, 96
5, 247808, Note_off_c, 3, 38, 0
5, 247808, Note_on_c, 3, 43, 96
5, 248832, Note_off_c, 3, 43, 0
5, 248832, Note_on_c, 3, 41, 96
5, 249856, Note_off_c, 3, 41, 0
5, 249856, Note_on_c, 3, 51, 96
5, 250880, Note_off_c, 3, 51, 0
5, 250880, Note_on_c, 3, 50, 96
5, 251904, Note_off_c, 3, 50, 0
5, 251904, Note_on_c, 3, 48, 96
5, 252928, Note_off_c, 3, 48, 0
5, 252928, Note_on_c, 3, 46, 96
5, 253952, Note_off_c, 3, 46, 0
5, 253952, Note_on_c, 3, 45, 96
5, 254976, Note_off_c, 3, 45, 0
5, 254976, Note_on_c, 3, 48, 96
5, 256000, Note_off_c, 3, 48, 0
5, 256000, Note_on_c, 3, 46, 96
5, 256512, Note_off_c, 3, 46, 0
5, 256512, Note_on_c, 3, 43, 96
5, 257024, Note_off_c, 3, 43, 0
5, 257024, Note_on_c, 3, 50, 96
5, 257536, Note_off_c, 3, 50, 0
5, 257536, Note_on_c, 3, 38, 96
5, 258048, Note_off_c, 3, 38, 0
5, 258048, Note_on_c, 3, 43, 96
5, 258560, Note_off_c, 3, 43, 0
5, 258560, Note_on_c, 3, 39, 96
5, 259072, Note_off_c, 3, 39, 0
5, 259072, Note_on_c, 3, 41, 96
5, 259584, Note_off_c, 3, 41, 0
5, 259584, Note_on_c, 3, 43, 96
5, 260096, Note_off_c, 3, 43, 0
5, 260096, Note_on_c, 3, 44, 96
5, 260608, Note_off_c, 3, 44, 0
5, 260608, Note_on_c, 3, 43, 96
5, 261120, Note_off_c, 3, 43, 0
5, 261120, Note_on_c, 3, 44, 96
5, 261632, Note_off_c, 3, 44, 0
5, 261632, Note_on_c, 3, 46, 96
5, 262144, Note_off_c, 3, 46, 0
5, 262144, Note_on_c, 3, 48, 96
5, 262656, Note_off_c, 3, 48, 0
5, 262656, Note_on_c, 3, 46, 96
5, 263168, Note_off_c, 3, 46, 0
5, 263168, Note_on_c, 3, 48, 96
5, 263680, Note_off_c, 3, 48, 0
5, 263680, Note_on_c, 3, 50, 96
5, 264192, Note_off_c, 3, 50, 0
5, 264192, Note_on_c, 3, 51, 96
5, 265216, Note_off_c, 3, 51, 0
5, 265216, Note_on_c, 3, 48, 96
5, 266240, Note_off_c, 3, 48, 0
5, 266240, Note_on_c, 3, 44, 96
5, 267264, Note_off_c, 3, 44, 0
5, 267264, Note_on_c, 3, 46, 96
5, 268288, Note_off_c, 3, 46, 0
5, 268288, Note_on_c, 3, 48, 96
5, 268800, Note_off_c, 3, 48, 0
5, 268800, Note_on_c, 3, 46, 96
5, 269312, Note_off_c, 3, 46, 0
5, 269312, Note_on_c, 3, 48, 96
5, 269824, Note_off_c, 3, 48, 0
5, 269824, Note_on_c, 3, 50, 96
5, 270336, Note_off_c, 3, 50, 0
5, 270336, Note_on_c, 3, 51, 96
5, 270848, Note_off_c, 3, 51, 0
5, 270848, Note_on_c, 3, 50, 96
5, 271360, Note_off_c, 3, 50, 0
5, 271360, Note_on_c, 3, 51, 96
5, 271872, Note_off_c, 3, 51, 0
5, 271872, Note_on_c, 3, 53, 96
5, 272384, Note_off_c, 3, 53, 0
5, 272384, Note_on_c, 3, 55, 96
5, 272896, Note_off_c, 3, 55, 0
5, 272896, Note_on_c, 3, 53, 96
5, 273408, Note_off_c, 3, 53, 0
5, 273408, Note_on_c, 3, 55, 96
5, 273920, Note_off_c, 3, 55, 0
5, 273920, Note_on_c, 3, 56, 96
5, 274432, Note_off_c, 3, 56, 0
5, 274432, Note_on_c, 3, 50, 96
5, 274944, Note_off_c, 3, 50, 0
5, 274944, Note_on_c, 3, 46, 96
5, 275456, Note_off_c, 3, 46, 0
5, 275456, Note_on_c, 3, 58, 96
5, 275968, Note_off_c, 3, 58, 0
5, 275968, Note_on_c, 3, 56, 96
5, 276480, Note_off_c, 3, 56, 0
5, 276480, Note_on_c, 3, 55, 96
5, 277504, Note_off_c, 3, 55, 0
5, 277504, Note_on_c, 3, 51, 96
5, 278528, Note_off_c, 3, 51, 0
5, 278528, Note_on_c, 3, 58, 96
5, 279040, Note_off_c, 3, 58, 0
5, 279040, Note_on_c, 3, 56, 96
5, 279552, Note_off_c, 3, 56, 0
5, 279552, Note_on_c, 3, 55, 96
5, 280576, Note_off_c, 3, 55, 0
5, 280576, Note_on_c, 3, 56, 96
5, 281600, Note_off_c, 3, 56, 0
5, 281600, Note_on_c, 3, 55, 96
5, 282624, Note_off_c, 3, 55, 0
5, 282624, Note_on_c, 3, 53, 96
5, 283648, Note_off_c, 3, 53, 0
5, 283648, Note_on_c, 3, 51, 96
5, 284672, Note_off_c, 3, 51, 0
5, 284672, Note_on_c, 3, 53, 96
5, 285696, Note_off_c, 3, 53, 0
5, 285696, Note_on_c, 3, 46, 96
5, 286720, Note_off_c, 3, 46, 0
5, 286720, Note_on_c, 3, 48, 96
5, 287744, Note_off_c, 3, 48, 0
5, 287744, Note_on_c, 3, 44, 96
5, 288768, Note_off_c, 3, 44, 0
5, 288768, Note_on_c, 3, 46, 96
5, 289792, Note_off_c, 3, 46, 0
5, 289792, Note_on_c, 3, 43, 96
5, 290816, Note_off_c, 3, 43, 0
5, 290816, Note_on_c, 3, 44, 96
5, 291328, Note_off_c, 3, 44, 0
5, 291328, Note_on_c, 3, 43, 96
5, 291840, Note_off_c, 3, 43, 0
5, 291840, Note_on_c, 3, 41, 96
5, 292352, Note_off_c, 3, 41, 0
5, 292352, Note_on_c, 3, 39, 96
5, 292864, Note_off_c, 3, 39, 0
5, 292864, Note_on_c, 3, 38, 96
5, 293888, Note_off_c, 3, 38, 0
5, 293888, Note_on_c, 3, 41, 96
5, 294912, Note_off_c, 3, 41, 0
5, 294912, Note_on_c, 3, 46, 96
5, 295424, Note_off_c, 3, 46, 0
5, 295424, Note_on_c, 3, 48, 96
5, 295936, Note_off_c, 3, 48, 0
5, 295936, Note_on_c, 3, 46, 96
5, 296448, Note_off_c, 3, 46, 0
5, 296448, Note_on_c, 3, 44, 96
5, 296960, Note_off_c, 3, 44, 0
5, 296960, Note_on_c, 3, 43, 96
5, 297472, Note_off_c, 3, 43, 0
5, 297472, Note_on_c, 3, 48, 96
5, 297984, Note_off_c, 3, 48, 0
5, 297984, Note_on_c, 3, 44, 96
5, 298496, Note_off_c, 3, 44, 0
5, 298496, Note_on_c, 3, 46, 96
5, 299008, Note_off_c, 3, 46, 0
5, 299008, Note_on_c, 3, 48, 96
5, 299520, Note_off_c, 3, 48, 0
5, 299520, Note_on_c, 3, 50, 96
5, 300032, Note_off_c, 3, 50, 0
5, 300032, Note_on_c, 3, 51, 96
5, 300544, Note_off_c, 3, 51, 0
5, 300544, Note_on_c, 3, 55, 96
5, 301056, Note_off_c, 3, 55, 0
5, 301056, Note_on_c, 3, 56, 96
5, 301568, Note_off_c, 3, 56, 0
5, 301568, Note_on_c, 3, 53, 96
5, 302080, Note_off_c, 3, 53, 0
5, 302080, Note_on_c, 3, 58, 96
5, 302592, Note_off_c, 3, 58, 0
5, 302592, Note_on_c, 3, 46, 96
5, 303104, Note_off_c, 3, 46, 0
5, 303104, Note_on_c, 3, 39, 96
5, 303104, Note_on_c, 3, 51, 96
5, 307200, Note_off_c, 3, 39, 0
5, 307200, Note_off_c, 3, 51, 0
5, 307201, End_track
6, 0, Start_track
6, 0, Title_t, "Instrument 5"
6, 4096, Note_on_c, 4, 27, 96
6, 5120, Note_off_c, 4, 27, 0
6, 5120, Note_on_c, 4, 27, 96
6, 6144, Note_off_c, 4, 27, 0
6, 6144, Note_on_c, 4, 27, 96
6, 7168, Note_off_c, 4, 27, 0
6, 7168, Note_on_c, 4, 31, 96
6, 8192, Note_off_c, 4, 31, 0
6, 8192, Note_on_c, 4, 32, 96
6, 9216, Note_off_c, 4, 32, 0
6, 9216, Note_on_c, 4, 34, 96
6, 10240, Note_off_c, 4, 34, 0
6, 10240, Note_on_c, 4, 27, 96
6, 11264, Note_off_c, 4, 27, 0
6, 12288, Note_on_c, 4, 27, 96
6, 13312, Note_off_c, 4, 27, 0
6, 13312, Note_on_c, 4, 27, 96
6, 14336, Note_off_c, 4, 27, 0
6, 14336, Note_on_c, 4, 27, 96
6, 15360, Note_off_c, 4, 27, 0
6, 15360, Note_on_c, 4, 31, 96
6, 16384, Note_off_c, 4, 31, 0
6, 16384, Note_on_c, 4, 32, 96
6, 17408, Note_off_c, 4, 32, 0
6, 17408, Note_on_c, 4, 34, 96
6, 18432, Note_off_c, 4, 34, 0
6, 18432, Note_on_c, 4, 27, 96
6, 19456, Note_off_c, 4, 27, 0
6, 20480, Note_on_c, 4, 31, 96
6, 21504, Note_off_c, 4, 31, 0
6, 21504, Note_on_c, 4, 36, 96
6, 22528, Note_off_c, 4, 36, 0
6, 22528, Note_on_c, 4, 34, 96
6, 23552, Note_off_c, 4, 34, 0
6, 23552, Note_on_c, 4, 32, 96
6, 24576, Note_off_c, 4, 32, 0
6, 24576, Note_on_c, 4, 31, 96
6, 25600, Note_off_c, 4, 31, 0
6, 25600, Note_on_c, 4, 27, 96
6, 26624, Note_off_c, 4, 27, 0
6, 26624, Note_on_c, 4, 34, 96
6, 27648, Note_off_c, 4, 34, 0
6, 27648, Note_on_c, 4, 38, 96
6, 28672, Note_off_c, 4, 38, 0
6, 28672, Note_on_c, 4, 39, 96
6, 29696, Note_off_c, 4, 39, 0
6, 29696, Note_on_c, 4, 38, 96
6, 30720, Note_off_c, 4, 38, 0
6, 30720, Note_on_c, 4, 36, 96
6, 31744, Note_off_c, 4, 36, 0
6, 31744, Note_on_c, 4, 39, 96
6, 32768, Note_off_c, 4, 39, 0
6, 32768, Note_on_c, 4, 41, 96
6, 33792, Note_off_c, 4, 41, 0
6, 33792, Note_on_c, 4, 43, 96
6, 34816, Note_off_c, 4, 43, 0
6, 34816, Note_on_c, 4, 45, 96
6, 35840, Note_off_c, 4, 45, 0
6, 35840, Note_on_c, 4, 41, 96
6, 36864, Note_off_c, 4, 41, 0
6, 36864, Note_on_c, 4, 46, 96
6, 37888, Note_off_c, 4, 46, 0
6, 37888, Note_on_c, 4, 45, 96
6, 38912, Note_off_c, 4, 45, 0
6, 38912, Note_on_c, 4, 43, 96
6, 39936, Note_off_c, 4, 43, 0
6, 39936, Note_on_c, 4, 41, 96
6, 40960, Note_off_c, 4, 41, 0
6, 40960, Note_on_c, 4, 39, 96
6, 41984, Note_off_c, 4, 39, 0
6, 41984, Note_on_c, 4, 38, 96
6, 43008, Note_off_c, 4, 38, 0
6, 43008, Note_on_c, 4, 36, 96
6, 44032, Note_off_c, 4, 36, 0
6, 44032, Note_on_c, 4, 39, 96
6, 45056, Note_off_c, 4, 39, 0
6, 45056, Note_on_c, 4, 38, 96
6, 45568, Note_off_c, 4, 38, 0
6, 45568, Note_on_c, 4, 34, 96
6, 46080, Note_off_c, 4, 34, 0
6, 46080, Note_on_c, 4, 41, 96
6, 46592, Note_off_c, 4, 41, 0
6, 46592, Note_on_c, 4, 29, 96
6, 47104, Note_off_c, 4, 29, 0
6, 47104, Note_on_c, 4, 31, 96
6, 47616, Note_off_c, 4, 31, 0
6, 47616, Note_on_c, 4, 33, 96
6, 48128, Note_off_c, 4, 33, 0
6, 48128, Note_on_c, 4, 34, 96
6, 48640, Note_off_c, 4, 34, 0
6, 48640, Note_on_c, 4, 26, 96
6, 49152, Note_off_c, 4, 26, 0
6, 49152, Note_on_c, 4, 27, 96
6, 49664, Note_off_c, 4, 27, 0
6, 49664, Note_on_c, 4, 24, 96
6, 50176, Note_off_c, 4, 24, 0
6, 50176, Note_on_c, 4, 29, 96
6, 51200, Note_off_c, 4, 29, 0
6, 51200, Note_on_c, 4, 34, 96
6, 51712, Note_off_c, 4, 34, 0
6, 51712, Note_on_c, 4, 36, 96
6, 52224, Note_off_c, 4, 36, 0
6, 52224, Note_on_c, 4, 34, 96
6, 52736, Note_off_c, 4, 34, 0
6, 52736, Note_on_c, 4, 32, 96
6, 53248, Note_off_c, 4, 32, 0
6, 53248, Note_on_c, 4, 31, 96
6, 53760, Note_off_c, 4, 31, 0
6, 53760, Note_on_c, 4, 29, 96
6, 54272, Note_off_c, 4, 29, 0
6, 54272, Note_on_c, 4, 27, 96
6, 54784, Note_off_c, 4, 27, 0
6, 54784, Note_on_c, 4, 26, 96
6, 55296, Note_off_c, 4, 26, 0
6, 55296, Note_on_c, 4, 24, 96
6, 56320, Note_off_c, 4, 24, 0
6, 56320, Note_on_c, 4, 36, 96
6, 57344, Note_off_c, 4, 36, 0
6, 57344, Note_on_c, 4, 31, 96
6, 58368, Note_off_c, 4, 31, 0
6, 58368, Note_on_c, 4, 34, 96
6, 59392, Note_off_c, 4, 34, 0
6, 59392, Note_on_c, 4, 27, 96
6, 60416, Note_off_c, 4, 27, 0
6, 60416, Note_on_c, 4, 31, 96
6, 61440, Note_off_c, 4, 31, 0
6, 61440, Note_on_c, 4, 32, 96
6, 62464, Note_off_c, 4, 32, 0
6, 62464, Note_on_c, 4, 44, 96
6, 63488, Note_off_c, 4, 44, 0
6, 63488, Note_on_c, 4, 38, 96
6, 64512, Note_off_c, 4, 38, 0
6, 64512, Note_on_c, 4, 39, 96
6, 65536, Note_off_c, 4, 39, 0
6, 65536, Note_on_c, 4, 36, 96
6, 66560, Note_off_c, 4, 36, 0
6, 66560, Note_on_c, 4, 38, 96
6, 67584, Note_off_c, 4, 38, 0
6, 67584, Note_on_c, 4, 39, 96
6, 68608, Note_off_c, 4, 39, 0
6, 68608, Note_on_c, 4, 38, 96
6, 69632, Note_off_c, 4, 38, 0
6, 69632, Note_on_c, 4, 36, 96
6, 70656, Note_off_c, 4, 36, 0
6, 70656, Note_on_c, 4, 31, 96
6, 71680, Note_off_c, 4, 31, 0
6, 71680, Note_on_c, 4, 36, 96
6, 72192, Note_off_c, 4, 36, 0
6, 72192, Note_on_c, 4, 38, 96
6, 72704, Note_off_c, 4, 38, 0
6, 72704, Note_on_c, 4, 39, 96
6, 74240, Note_off_c, 4, 39, 0
6, 74240, Note_on_c, 4, 38, 96
6, 74752, Note_off_c, 4, 38, 0
6, 74752, Note_on_c, 4, 31, 96
6, 75264, Note_off_c, 4, 31, 0
6, 75264, Note_on_c, 4, 33, 96
6, 75776, Note_off_c, 4, 33, 0
6, 75776, Note_on_c, 4, 34, 96
6, 76288, Note_off_c, 4, 34, 0
6, 76288, Note_on_c, 4, 26, 96
6, 76800, Note_off_c, 4, 26, 0
6, 76800, Note_on_c, 4, 27, 96
6, 77312, Note_off_c, 4, 27, 0
6, 77312, Note_on_c, 4, 29, 96
6, 77824, Note_off_c, 4, 29, 0
6, 77824, Note_on_c, 4, 34, 96
6, 78336, Note_off_c, 4, 34, 0
6, 78336, Note_on_c, 4, 33, 96
6, 78848, Note_off_c, 4, 33, 0
6, 78848, Note_on_c, 4, 34, 96
6, 79360, Note_off_c, 4, 34, 0
6, 79360, Note_on_c, 4, 36, 96
6, 79872, Note_off_c, 4, 36, 0
6, 79872, Note_on_c, 4, 38, 96
6, 80384, Note_off_c, 4, 38, 0
6, 80384, Note_on_c, 4, 34, 96
6, 80896, Note_off_c, 4, 34, 0
6, 80896, Note_on_c, 4, 39, 96
6, 81920, Note_off_c, 4, 39, 0
6, 81920, Note_on_c, 4, 34, 96
6, 82944, Note_off_c, 4, 34, 0
6, 82944, Note_on_c, 4, 32, 96
6, 83968, Note_off_c, 4, 32, 0
6, 83968, Note_on_c, 4, 31, 96
6, 84992, Note_off_c, 4, 31, 0
6, 84992, Note_on_c, 4, 27, 96
6, 86016, Note_off_c, 4, 27, 0
6, 86016, Note_on_c, 4, 32, 96
6, 86528, Note_off_c, 4, 32, 0
6, 86528, Note_on_c, 4, 34, 96
6, 87040, Note_off_c, 4, 34, 0
6, 87040, Note_on_c, 4, 36, 96
6, 88064, Note_off_c, 4, 36, 0
6, 88064, Note_on_c, 4, 29, 96
6, 89088, Note_off_c, 4, 29, 0
6, 89088, Note_on_c, 4, 34, 96
6, 89600, Note_off_c, 4, 34, 0
6, 89600, Note_on_c, 4, 32, 96
6, 90112, Note_off_c, 4, 32, 0
6, 90112, Note_on_c, 4, 31, 96
6, 91136, Note_off_c, 4, 31, 0
6, 91136, Note_on_c, 4, 39, 96
6, 92160, Note_off_c, 4, 39, 0
6, 92160, Note_on_c, 4, 38, 96
6, 93184, Note_off_c, 4, 38, 0
6, 93184, Note_on_c, 4, 39, 96
6, 94208, Note_off_c, 4, 39, 0
6, 94208, Note_on_c, 4, 32, 96
6, 95232, Note_off_c, 4, 32, 0
6, 95232, Note_on_c, 4, 34, 96
6, 96256, Note_off_c, 4, 34, 0
6, 96256, Note_on_c, 4, 27, 96
6, 97280, Note_off_c, 4, 27, 0
6, 98304, Note_on_c, 4, 27, 96
6, 99328, Note_off_c, 4, 27, 0
6, 99328, Note_on_c, 4, 27, 96
6, 100352, Note_off_c, 4, 27, 0
6, 100352, Note_on_c, 4, 27, 96
6, 101376, Note_off_c, 4, 27, 0
6, 101376, Note_on_c, 4, 31, 96
6, 102400, Note_off_c, 4, 31, 0
6, 102400, Note_on_c, 4, 32, 96
6, 103424, Note_off_c, 4, 32, 0
6, 103424, Note_on_c, 4, 34, 96
6, 104448, Note_off_c, 4, 34, 0
6, 104448, Note_on_c, 4, 27, 96
6, 105472, Note_off_c, 4, 27, 0
6, 106496, Note_on_c, 4, 31, 96
6, 107520, Note_off_c, 4, 31, 0
6, 107520, Note_on_c, 4, 36, 96
6, 108544, Note_off_c, 4, 36, 0
6, 108544, Note_on_c, 4, 34, 96
6, 109568, Note_off_c, 4, 34, 0
6, 109568, Note_on_c, 4, 32, 96
6, 110592, Note_off_c, 4, 32, 0
6, 110592, Note_on_c, 4, 31, 96
6, 111616, Note_off_c, 4, 31, 0
6, 111616, Note_on_c, 4, 27, 96
6, 112640, Note_off_c, 4, 27, 0
6, 112640, Note_on_c, 4, 34, 96
6, 113664, Note_off_c, 4, 34, 0
6, 113664, Note_on_c, 4, 38, 96
6, 114688, Note_off_c, 4, 38, 0
6, 114688, Note_on_c, 4, 39, 96
6, 115712, Note_off_c, 4, 39, 0
6, 115712, Note_on_c, 4, 38, 96
6, 116736, Note_off_c, 4, 38, 0
6, 116736, Note_on_c, 4, 36, 96
6, 117760, Note_off_c, 4, 36, 0
6, 117760, Note_on_c, 4, 39, 96
6, 118784, Note_off_c, 4, 39, 0
6, 118784, Note_on_c, 4, 41, 96
6, 119808, Note_off_c, 4, 41, 0
6, 119808, Note_on_c, 4, 43, 96
6, 120832, Note_off_c, 4, 43, 0
6, 120832, Note_on_c, 4, 45, 96
6, 121856, Note_off_c, 4, 45, 0
6, 121856, Note_on_c, 4, 41, 96
6, 122880, Note_off_c, 4, 41, 0
6, 122880, Note_on_c, 4, 46, 96
6, 123904, Note_off_c, 4, 46, 0
6, 123904, Note_on_c, 4, 45, 96
6, 124928, Note_off_c, 4, 45, 0
6, 124928, Note_on_c, 4, 43, 96
6, 125952, Note_off_c, 4, 43, 0
6, 125952, Note_on_c, 4, 41, 96
6, 126976, Note_off_c, 4, 41, 0
6, 126976, Note_on_c, 4, 39, 96
6, 128000, Note_off_c, 4, 39, 0
6, 128000, Note_on_c, 4, 38, 96
6, 129024, Note_off_c, 4, 38, 0
6, 129024, Note_on_c, 4, 36, 96
6, 130048, Note_off_c, 4, 36, 0
6, 130048, Note_on_c, 4, 39, 96
6, 131072, Note_off_c, 4, 39, 0
6, 131072, Note_on_c, 4, 38, 96
6, 131584, Note_off_c, 4, 38, 0
6, 131584, Note_on_c, 4, 34, 96
6, 132096, Note_off_c, 4, 34, 0
6, 132096, Note_on_c, 4, 41, 96
6, 132608, Note_off_c, 4, 41, 0
6, 132608, Note_on_c, 4, 29, 96
6, 133120, Note_off_c, 4, 29, 0
6, 133120, Note_on_c, 4, 31, 96
6, 133632, Note_off_c, 4, 31, 0
6, 133632, Note_on_c, 4, 33, 96
6, 134144, Note_off_c, 4, 33, 0
6, 134144, Note_on_c, 4, 34, 96
6, 134656, Note_off_c, 4, 34, 0
6, 134656, Note_on_c, 4, 26, 96
6, 135168, Note_off_c, 4, 26, 0
6, 135168, Note_on_c, 4, 27, 96
6, 135680, Note_off_c, 4, 27, 0
6, 135680, Note_on_c, 4, 24, 96
6, 136192, Note_off_c, 4, 24, 0
6, 136192, Note_on_c, 4, 29, 96
6, 137216, Note_off_c, 4, 29, 0
6, 137216, Note_on_c, 4, 34, 96
6, 137728, Note_off_c, 4, 34, 0
6, 137728, Note_on_c, 4, 36, 96
6, 138240, Note_off_c, 4, 36, 0
6, 138240, Note_on_c, 4, 34, 96
6, 138752, Note_off_c, 4, 34, 0
6, 138752, Note_on_c, 4, 32, 96
6, 139264, Note_off_c, 4, 32, 0
6, 139264, Note_on_c, 4, 31, 96
6, 139776, Note_off_c, 4, 31, 0
6, 139776, Note_on_c, 4, 29, 96
6, 140288, Note_off_c, 4, 29, 0
6, 140288, Note_on_c, 4, 27, 96
6, 140800, Note_off_c, 4, 27, 0
6, 140800, Note_on_c, 4, 26, 96
6, 141312, Note_off_c, 4, 26, 0
6, 141312, Note_on_c, 4, 24, 96
6, 142336, Note_off_c, 4, 24, 0
6, 142336, Note_on_c, 4, 36, 96
6, 143360, Note_off_c, 4, 36, 0
6, 143360, Note_on_c, 4, 31, 96
6, 144384, Note_off_c, 4, 31, 0
6, 144384, Note_on_c, 4, 34, 96
6, 145408, Note_off_c, 4, 34, 0
6, 145408, Note_on_c, 4, 27, 96
6, 146432, Note_off_c, 4, 27, 0
6, 146432, Note_on_c, 4, 31, 96
6, 147456, Note_off_c, 4, 31, 0
6, 147456, Note_on_c, 4, 32, 96
6, 148480, Note_off_c, 4, 32, 0
6, 148480, Note_on_c, 4, 44, 96
6, 149504, Note_off_c, 4, 44, 0
6, 149504, Note_on_c, 4, 38, 96
6, 150528, Note_off_c, 4, 38, 0
6, 150528, Note_on_c, 4, 39, 96
6, 151552, Note_off_c, 4, 39, 0
6, 151552, Note_on_c, 4, 36, 96
6, 152576, Note_off_c, 4, 36, 0
6, 152576, Note_on_c, 4, 38, 96
6, 153600, Note_off_c, 4, 38, 0
6, 153600, Note_on_c, 4, 39, 96
6, 154624, Note_off_c, 4, 39, 0
6, 154624, Note_on_c, 4, 38, 96
6, 155648, Note_off_c, 4, 38, 0
6, 155648, Note_on_c, 4, 36, 96
6, 156672, Note_off_c, 4, 36, 0
6, 156672, Note_on_c, 4, 31, 96
6, 157696, Note_off_c, 4, 31, 0
6, 157696, Note_on_c, 4, 36, 96
6, 158208, Note_off_c, 4, 36, 0
6, 158208, Note_on_c, 4, 38, 96
6, 158720, Note_off_c, 4, 38, 0
6, 158720, Note_on_c, 4, 39, 96
6, 160256, Note_off_c, 4, 39, 0
6, 160256, Note_on_c, 4, 38, 96
6, 160768, Note_off_c, 4, 38, 0
6, 160768, Note_on_c, 4, 31, 96
6, 161280, Note_off_c, 4, 31, 0
6, 161280, Note_on_c, 4, 33, 96
6, 161792, Note_off_c, 4, 33, 0
6, 161792, Note_on_c, 4, 34, 96
6, 162304, Note_off_c, 4, 34, 0
6, 162304, Note_on_c, 4, 26, 96
6, 162816, Note_off_c, 4, 26, 0
6, 162816, Note_on_c, 4, 27, 96
6, 163328, Note_off_c, 4, 27, 0
6, 163328, Note_on_c, 4, 29, 96
6, 163840, Note_off_c, 4, 29, 0
6, 163840, Note_on_c, 4, 34, 96
6, 164352, Note_off_c, 4, 34, 0
6, 164352, Note_on_c, 4, 33, 96
6, 164864, Note_off_c, 4, 33, 0
6, 164864, Note_on_c, 4, 34, 96
6, 165376, Note_off_c, 4, 34, 0
6, 165376, Note_on_c, 4, 36, 96
6, 165888, Note_off_c, 4, 36, 0
6, 165888, Note_on_c, 4, 38, 96
6, 166400, Note_off_c, 4, 38, 0
6, 166400, Note_on_c, 4, 34, 96
6, 166912, Note_off_c, 4, 34, 0
6, 166912, Note_on_c, 4, 39, 96
6, 167936, Note_off_c, 4, 39, 0
6, 167936, Note_on_c, 4, 34, 96
6, 168960, Note_off_c, 4, 34, 0
6, 168960, Note_on_c, 4, 32, 96
6, 169984, Note_off_c, 4, 32, 0
6, 169984, Note_on_c, 4, 31, 96
6, 171008, Note_off_c, 4, 31, 0
6, 171008, Note_on_c, 4, 27, 96
6, 172032, Note_off_c, 4, 27, 0
6, 172032, Note_on_c, 4, 32, 96
6, 172544, Note_off_c, 4, 32, 0
6, 172544, Note_on_c, 4, 34, 96
6, 173056, Note_off_c, 4, 34, 0
6, 173056, Note_on_c, 4, 36, 96
6, 174080, Note_off_c, 4, 36, 0
6, 174080, Note_on_c, 4, 29, 96
6, 175104, Note_off_c, 4, 29, 0
6, 175104, Note_on_c, 4, 34, 96
6, 175616, Note_off_c, 4, 34, 0
6, 175616, Note_on_c, 4, 32, 96
6, 176128, Note_off_c, 4, 32, 0
6, 176128, Note_on_c, 4, 31, 96
6, 177152, Note_off_c, 4, 31, 0
6, 177152, Note_on_c, 4, 36, 96
6, 178176, Note_off_c, 4, 36, 0
6, 178176, Note_on_c, 4, 34, 96
6, 179200, Note_off_c, 4, 34, 0
6, 179200, Note_on_c, 4, 32, 96
6, 180224, Note_off_c, 4, 32, 0
6, 180224, Note_on_c, 4, 31, 96
6, 181248, Note_off_c, 4, 31, 0
6, 181248, Note_on_c, 4, 27, 96
6, 182272, Note_off_c, 4, 27, 0
6, 182272, Note_on_c, 4, 34, 96
6, 183296, Note_off_c, 4, 34, 0
6, 183296, Note_on_c, 4, 38, 96
6, 184320, Note_off_c, 4, 38, 0
6, 184320, Note_on_c, 4, 39, 96
6, 185344, Note_off_c, 4, 39, 0
6, 185344, Note_on_c, 4, 38, 96
6, 186368, Note_off_c, 4, 38, 0
6, 186368, Note_on_c, 4, 36, 96
6, 187392, Note_off_c, 4, 36, 0
6, 187392, Note_on_c, 4, 39, 96
6, 188416, Note_off_c, 4, 39, 0
6, 188416, Note_on_c, 4, 41, 96
6, 189440, Note_off_c, 4, 41, 0
6, 189440, Note_on_c, 4, 43, 96
6, 190464, Note_off_c, 4, 43, 0
6, 190464, Note_on_c, 4, 45, 96
6, 191488, Note_off_c, 4, 45, 0
6, 191488, Note_on_c, 4, 41, 96
6, 192512, Note_off_c, 4, 41, 0
6, 192512, Note_on_c, 4, 46, 96
6, 193536, Note_off_c, 4, 46, 0
6, 193536, Note_on_c, 4, 45, 96
6, 194560, Note_off_c, 4, 45, 0
6, 194560, Note_on_c, 4, 43, 96
6, 195584, Note_off_c, 4, 43, 0
6, 195584, Note_on_c, 4, 41, 96
6, 196608, Note_off_c, 4, 41, 0
6, 196608, Note_on_c, 4, 39, 96
6, 197632, Note_off_c, 4, 39, 0
6, 197632, Note_on_c, 4, 38, 96
6, 198656, Note_off_c, 4, 38, 0
6, 198656, Note_on_c, 4, 36, 96
6, 199680, Note_off_c, 4, 36, 0
6, 199680, Note_on_c, 4, 39, 96
6, 200704, Note_off_c, 4, 39, 0
6, 200704, Note_on_c, 4, 38, 96
6, 201216, Note_off_c, 4, 38, 0
6, 201216, Note_on_c, 4, 34, 96
6, 201728, Note_off_c, 4, 34, 0
6, 201728, Note_on_c, 4, 41, 96
6, 202240, Note_off_c, 4, 41, 0
6, 202240, Note_on_c, 4, 29, 96
6, 202752, Note_off_c, 4, 29, 0
6, 202752, Note_on_c, 4, 31, 96
6, 203264, Note_off_c, 4, 31, 0
6, 203264, Note_on_c, 4, 33, 96
6, 203776, Note_off_c, 4, 33, 0
6, 203776, Note_on_c, 4, 34, 96
6, 204288, Note_off_c, 4, 34, 0
6, 204288, Note_on_c, 4, 26, 96
6, 204800, Note_off_c, 4, 26, 0
6, 204800, Note_on_c, 4, 27, 96
6, 205312, Note_off_c, 4, 27, 0
6, 205312, Note_on_c, 4, 24, 96
6, 205824, Note_off_c, 4, 24, 0
6, 205824, Note_on_c, 4, 29, 96
6, 206848, Note_off_c, 4, 29, 0
6, 206848, Note_on_c, 4, 34, 96
6, 207360, Note_off_c, 4, 34, 0
6, 207360, Note_on_c, 4, 36, 96
6, 207872, Note_off_c, 4, 36, 0
6, 207872, Note_on_c, 4, 34, 96
6, 208384, Note_off_c, 4, 34, 0
6, 208384, Note_on_c, 4, 32, 96
6, 208896, Note_off_c, 4, 32, 0
6, 208896, Note_on_c, 4, 31, 96
6, 209408, Note_off_c, 4, 31, 0
6, 209408, Note_on_c, 4, 29, 96
6, 209920, Note_off_c, 4, 29, 0
6, 209920, Note_on_c, 4, 27, 96
6, 210432, Note_off_c, 4, 27, 0
6, 210432, Note_on_c, 4, 26, 96
6, 210944, Note_off_c, 4, 26, 0
6, 210944, Note_on_c, 4, 27, 96
6, 211456, Note_off_c, 4, 27, 0
6, 211456, Note_on_c, 4, 31, 96
6, 211968, Note_off_c, 4, 31, 0
6, 211968, Note_on_c, 4, 32, 96
6, 212480, Note_off_c, 4, 32, 0
6, 212480, Note_on_c, 4, 34, 96
6, 212992, Note_off_c, 4, 34, 0
6, 212992, Note_on_c, 4, 36, 96
6, 213504, Note_off_c, 4, 36, 0
6, 213504, Note_on_c, 4, 38, 96
6, 214016, Note_off_c, 4, 38, 0
6, 214016, Note_on_c, 4, 39, 96
6, 215040, Note_off_c, 4, 39, 0
6, 215040, Note_on_c, 4, 34, 96
6, 216064, Note_off_c, 4, 34, 0
6, 216064, Note_on_c, 4, 32, 96
6, 217088, Note_off_c, 4, 32, 0
6, 217088, Note_on_c, 4, 31, 96
6, 218112, Note_off_c, 4, 31, 0
6, 218112, Note_on_c, 4, 27, 96
6, 219136, Note_off_c, 4, 27, 0
6, 219136, Note_on_c, 4, 34, 96
6, 219648, Note_off_c, 4, 34, 0
6, 219648, Note_on_c, 4, 36, 96
6, 220160, Note_off_c, 4, 36, 0
6, 220160, Note_on_c, 4, 38, 96
6, 220672, Note_off_c, 4, 38, 0
6, 220672, Note_on_c, 4, 34, 96
6, 221184, Note_off_c, 4, 34, 0
6, 221184, Note_on_c, 4, 39, 96
6, 221696, Note_off_c, 4, 39, 0
6, 221696, Note_on_c, 4, 38, 96
6, 222208, Note_off_c, 4, 38, 0
6, 222208, Note_on_c, 4, 36, 96
6, 222720, Note_off_c, 4, 36, 0
6, 222720, Note_on_c, 4, 35, 96
6, 223232, Note_off_c, 4, 35, 0
6, 223232, Note_on_c, 4, 36, 96
6, 223744, Note_off_c, 4, 36, 0
6, 223744, Note_on_c, 4, 43, 96
6, 224256, Note_off_c, 4, 43, 0
6, 224256, Note_on_c, 4, 48, 96
6, 224768, Note_off_c, 4, 48, 0
6, 224768, Note_on_c, 4, 46, 96
6, 225280, Note_off_c, 4, 46, 0
6, 225280, Note_on_c, 4, 44, 96
6, 226304, Note_off_c, 4, 44, 0
6, 226304, Note_on_c, 4, 39, 96
6, 227328, Note_off_c, 4, 39, 0
6, 227328, Note_on_c, 4, 41, 96
6, 228352, Note_off_c, 4, 41, 0
6, 228352, Note_on_c, 4, 43, 96
6, 229376, Note_off_c, 4, 43, 0
6, 229376, Note_on_c, 4, 44, 96
6, 229888, Note_off_c, 4, 44, 0
6, 229888, Note_on_c, 4, 43, 96
6, 230400, Note_off_c, 4, 43, 0
6, 230400, Note_on_c, 4, 41, 96
6, 230912, Note_off_c, 4, 41, 0
6, 230912, Note_on_c, 4, 39, 96
6, 231424, Note_off_c, 4, 39, 0
6, 231424, Note_on_c, 4, 41, 96
6, 231936, Note_off_c, 4, 41, 0
6, 231936, Note_on_c, 4, 39, 96
6, 232448, Note_off_c, 4, 39, 0
6, 232448, Note_on_c, 4, 38, 96
6, 232960, Note_off_c, 4, 38, 0
6, 232960, Note_on_c, 4, 36, 96
6, 233472, Note_off_c, 4, 36, 0
6, 233472, Note_on_c, 4, 35, 96
6, 233984, Note_off_c, 4, 35, 0
6, 233984, Note_on_c, 4, 31, 96
6, 234496, Note_off_c, 4, 31, 0
6, 234496, Note_on_c, 4, 43, 96
6, 235008, Note_off_c, 4, 43, 0
6, 235008, Note_on_c, 4, 41, 96
6, 235520, Note_off_c, 4, 41, 0
6, 235520, Note_on_c, 4, 39, 96
6, 236544, Note_off_c, 4, 39, 0
6, 236544, Note_on_c, 4, 36, 96
6, 237568, Note_off_c, 4, 36, 0
6, 237568, Note_on_c, 4, 43, 96
6, 238592, Note_off_c, 4, 43, 0
6, 238592, Note_on_c, 4, 47, 96
6, 239616, Note_off_c, 4, 47, 0
6, 239616, Note_on_c, 4, 48, 96
6, 240640, Note_off_c, 4, 48, 0
6, 240640, Note_on_c, 4, 46, 96
6, 241664, Note_off_c, 4, 46, 0
6, 241664, Note_on_c, 4, 45, 96
6, 242688, Note_off_c, 4, 45, 0
6, 242688, Note_on_c, 4, 36, 96
6, 243712, Note_off_c, 4, 36, 0
6, 243712, Note_on_c, 4, 38, 96
6, 244736, Note_off_c, 4, 38, 0
6, 244736, Note_on_c, 4, 39, 96
6, 245760, Note_off_c, 4, 39, 0
6, 245760, Note_on_c, 4, 30, 96
6, 246784, Note_off_c, 4, 30, 0
6, 246784, Note_on_c, 4, 26, 96
6, 247808, Note_off_c, 4, 26, 0
6, 247808, Note_on_c, 4, 31, 96
6, 248832, Note_off_c, 4, 31, 0
6, 248832, Note_on_c, 4, 29, 96
6, 249856, Note_off_c, 4, 29, 0
6, 249856, Note_on_c, 4, 39, 96
6, 250880, Note_off_c, 4, 39, 0
6, 250880, Note_on_c, 4, 38, 96
6, 251904, Note_off_c, 4, 38, 0
6, 251904, Note_on_c, 4, 36, 96
6, 252928, Note_off_c, 4, 36, 0
6, 252928, Note_on_c, 4, 34, 96
6, 253952, Note_off_c, 4, 34, 0
6, 253952, Note_on_c, 4, 33, 96
6, 254976, Note_off_c, 4, 33, 0
6, 254976, Note_on_c, 4, 36, 96
6, 256000, Note_off_c, 4, 36, 0
6, 256000, Note_on_c, 4, 34, 96
6, 256512, Note_off_c, 4, 34, 0
6, 256512, Note_on_c, 4, 31, 96
6, 257024, Note_off_c, 4, 31, 0
6, 257024, Note_on_c, 4, 38, 96
6, 257536, Note_off_c, 4, 38, 0
6, 257536, Note_on_c, 4, 26, 96
6, 258048, Note_off_c, 4, 26, 0
6, 258048, Note_on_c, 4, 31, 96
6, 258560, Note_off_c, 4, 31, 0
6, 258560, Note_on_c, 4, 27, 96
6, 259072, Note_off_c, 4, 27, 0
6, 259072, Note_on_c, 4, 29, 96
6, 259584, Note_off_c, 4, 29, 0
6, 259584, Note_on_c, 4, 31, 96
6, 260096, Note_off_c, 4, 31, 0
6, 260096, Note_on_c, 4, 32, 96
6, 260608, Note_off_c, 4, 32, 0
6, 260608, Note_on_c, 4, 31, 96
6, 261120, Note_off_c, 4, 31, 0
6, 261120, Note_on_c, 4, 32, 96
6, 261632, Note_off_c, 4, 32, 0
6, 261632, Note_on_c, 4, 34, 96
6, 262144, Note_off_c, 4, 34, 0
6, 262144, Note_on_c, 4, 36, 96
6, 262656, Note_off_c, 4, 36, 0
6, 262656, Note_on_c, 4, 34, 96
6, 263168, Note_off_c, 4, 34, 0
6, 263168, Note_on_c, 4, 36, 96
6, 263680, Note_off_c, 4, 36, 0
6, 263680, Note_on_c, 4, 38, 96
6, 264192, Note_off_c, 4, 38, 0
6, 264192, Note_on_c, 4, 39, 96
6, 265216, Note_off_c, 4, 39, 0
6, 265216, Note_on_c, 4, 36, 96
6, 266240, Note_off_c, 4, 36, 0
6, 266240, Note_on_c, 4, 32, 96
6, 267264, Note_off_c, 4, 32, 0
6, 267264, Note_on_c, 4, 34, 96
6, 268288, Note_off_c, 4, 34, 0
6, 268288, Note_on_c, 4, 36, 96
6, 268800, Note_off_c, 4, 36, 0
6, 268800, Note_on_c, 4, 34, 96
6, 269312, Note_off_c, 4, 34, 0
6, 269312, Note_on_c, 4, 36, 96
6, 269824, Note_off_c, 4, 36, 0
6, 269824, Note_on_c, 4, 38, 96
6, 270336, Note_off_c, 4, 38, 0
6, 270336, Note_on_c, 4, 39, 96
6, 270848, Note_off_c, 4, 39, 0
6, 270848, Note_on_c, 4, 38, 96
6, 271360, Note_off_c, 4, 38, 0
6, 271360, Note_on_c, 4, 39, 96
6, 271872, Note_off_c, 4, 39, 0
6, 271872, Note_on_c, 4, 41, 96
6, 272384, Note_off_c, 4, 41, 0
6, 272384, Note_on_c, 4, 43, 96
6, 272896, Note_off_c, 4, 43, 0
6, 272896, Note_on_c, 4, 41, 96
6, 273408, Note_off_c, 4, 41, 0
6, 273408, Note_on_c, 4, 43, 96
6, 273920, Note_off_c, 4, 43, 0
6, 273920, Note_on_c, 4, 44, 96
6, 274432, Note_off_c, 4, 44, 0
6, 274432, Note_on_c, 4, 38, 96
6, 274944, Note_off_c, 4, 38, 0
6, 274944, Note_on_c, 4, 34, 96
6, 275456, Note_off_c, 4, 34, 0
6, 275456, Note_on_c, 4, 46, 96
6, 275968, Note_off_c, 4, 46, 0
6, 275968, Note_on_c, 4, 44, 96
6, 276480, Note_off_c, 4, 44, 0
6, 276480, Note_on_c, 4, 43, 96
6, 277504, Note_off_c, 4, 43, 0
6, 277504, Note_on_c, 4, 39, 96
6, 278528, Note_off_c, 4, 39, 0
6, 278528, Note_on_c, 4, 46, 96
6, 279040, Note_off_c, 4, 46, 0
6, 279040, Note_on_c, 4, 44, 96
6, 279552, Note_off_c, 4, 44, 0
6, 279552, Note_on_c, 4, 43, 96
6, 280576, Note_off_c, 4, 43, 0
6, 280576, Note_on_c, 4, 44, 96
6, 281600, Note_off_c, 4, 44, 0
6, 281600, Note_on_c, 4, 43, 96
6, 282624, Note_off_c, 4, 43, 0
6, 282624, Note_on_c, 4, 41, 96
6, 283648, Note_off_c, 4, 41, 0
6, 283648, Note_on_c, 4, 39, 96
6, 284672, Note_off_c, 4, 39, 0
6, 284672, Note_on_c, 4, 41, 96
6, 285696, Note_off_c, 4, 41, 0
6, 285696, Note_on_c, 4, 34, 96
6, 286720, Note_off_c, 4, 34, 0
6, 286720, Note_on_c, 4, 36, 96
6, 287744, Note_off_c, 4, 36, 0
6, 287744, Note_on_c, 4, 32, 96
6, 288768, Note_off_c, 4, 32, 0
6, 288768, Note_on_c, 4, 34, 96
6, 289792, Note_off_c, 4, 34, 0
6, 289792, Note_on_c, 4, 31, 96
6, 290816, Note_off_c, 4, 31, 0
6, 290816, Note_on_c, 4, 32, 96
6, 291328, Note_off_c, 4, 32, 0
6, 291328, Note_on_c, 4, 31, 96
6, 291840, Note_off_c, 4, 31, 0
6, 291840, Note_on_c, 4, 29, 96
6, 292352, Note_off_c, 4, 29, 0
6, 292352, Note_on_c, 4, 27, 96
6, 292864, Note_off_c, 4, 27, 0
6, 292864, Note_on_c, 4, 26, 96
6, 293888, Note_off_c, 4, 26, 0
6, 293888, Note_on_c, 4, 29, 96
6, 294912, Note_off_c, 4, 29, 0
6, 294912, Note_on_c, 4, 34, 96
6, 295424, Note_off_c, 4, 34, 0
6, 295424, Note_on_c, 4, 36, 96
6, 295936, Note_off_c, 4, 36, 0
6, 295936, Note_on_c, 4, 34, 96
6, 296448, Note_off_c, 4, 34, 0
6, 296448, Note_on_c, 4, 32, 96
6, 296960, Note_off_c, 4, 32, 0
6, 296960, Note_on_c, 4, 31, 96
6, 297472, Note_off_c, 4, 31, 0
6, 297472, Note_on_c, 4, 36, 96
6, 297984, Note_off_c, 4, 36, 0
6, 297984, Note_on_c, 4, 32, 96
6, 298496, Note_off_c, 4, 32, 0
6, 298496, Note_on_c, 4, 34, 96
6, 299008, Note_off_c, 4, 34, 0
6, 299008, Note_on_c, 4, 36, 96
6, 299520, Note_off_c, 4, 36, 0
6, 299520, Note_on_c, 4, 38, 96
6, 300032, Note_off_c, 4, 38, 0
6, 300032, Note_on_c, 4, 39, 96
6, 300544, Note_off_c, 4, 39, 0
6, 300544, Note_on_c, 4, 43, 96
6, 301056, Note_off_c, 4, 43, 0
6, 301056, Note_on_c, 4, 44, 96
6, 301568, Note_off_c, 4, 44, 0
6, 301568, Note_on_c, 4, 41, 96
6, 302080, Note_off_c, 4, 41, 0
6, 302080, Note_on_c, 4, 46, 96
6, 302592, Note_off_c, 4, 46, 0
6, 302592, Note_on_c, 4, 34, 96
6, 303104, Note_off_c, 4, 34, 0
6, 303104, Note_on_c, 4, 27, 96
6, 303104, Note_on_c, 4, 39, 96
6, 307200, Note_off_c, 4, 27, 0
6, 307200, Note_off_c, 4, 39, 0
6, 307201, End_track
0, 0, End_of_file
