0, 0, Header, 1, 14, 240
1, 0, Start_track
1, 0, Sequencer_specific, 10, 0, 0, 91, 35, 1, 0, 5, 6, 42, 0
1, 0, Title_t, "J. S. Bach - Orchestral Suite No.1 in C Major"
1, 0, Instrument_name_t, "Conductor Track"
1, 0, SMPTE_offset, 96, 0, 3, 0, 0
1, 0, MIDI_port, 0
1, 0, Marker_t, "Originally Sequenced 14 Aug 1999"
1, 0, Tempo, 357142
1, 0, Key_signature, 0, "major"
1, 0, Time_signature, 2, 3, 12, 8
1, 240, Time_signature, 3, 1, 48, 8
1, 78000, Tempo, 357142
1, 78120, Tempo, 361445
1, 78240, Tempo, 365853
1, 78360, Tempo, 370370
1, 78480, Tempo, 375000
1, 78600, Tempo, 379746
1, 78720, Tempo, 384615
1, 78840, Tempo, 389610
1, 78960, Tempo, 394736
1, 79080, Tempo, 400000
1, 79200, Tempo, 405405
1, 79320, Tempo, 410958
1, 79440, Tempo, 416666
1, 80640, Tempo, 1000000
1, 81840, Tempo, 1000000
1, 81840, End_track
2, 0, Start_track
2, 0, Title_t, "2nd Movement - Courante"
2, 0, MIDI_port, 0
2, 0, End_track
3, 0, Start_track
3, 0, Title_t, "Sequenced by D. L. Viens 30 Dec 1999"
3, 0, MIDI_port, 0
3, 0, End_track
4, 0, Start_track
4, 0, Title_t, "dlviens@empire.net"
4, 0, MIDI_port, 0
4, 0, End_track
5, 0, Start_track
5, 0, MIDI_port, 0
5, 0, End_track
6, 0, Start_track
6, 0, Title_t, "Oboe I"
6, 0, MIDI_port, 0
6, 0, Program_c, 0, 68
6, 0, Control_c, 0, 10, 55
6, 0, Control_c, 0, 11, 127
6, 0, Control_c, 0, 7, 80
6, 120, Note_on_c, 0, 72, 76
6, 224, Note_on_c, 0, 72, 0
6, 240, Note_on_c, 0, 72, 76
6, 344, Note_on_c, 0, 72, 0
6, 360, Note_on_c, 0, 71, 76
6, 464, Note_on_c, 0, 71, 0
6, 480, Note_on_c, 0, 72, 76
6, 584, Note_on_c, 0, 72, 0
6, 600, Note_on_c, 0, 74, 76
6, 704, Note_on_c, 0, 74, 0
6, 720, Note_on_c, 0, 76, 76
6, 1064, Note_on_c, 0, 76, 0
6, 1080, Note_on_c, 0, 77, 76
6, 1184, Note_on_c, 0, 77, 0
6, 1200, Note_on_c, 0, 74, 76
6, 1544, Note_on_c, 0, 74, 0
6, 1560, Note_on_c, 0, 72, 76
6, 1664, Note_on_c, 0, 72, 0
6, 1680, Note_on_c, 0, 79, 76
6, 2384, Note_on_c, 0, 79, 0
6, 2400, Note_on_c, 0, 77, 76
6, 2504, Note_on_c, 0, 77, 0
6, 2520, Note_on_c, 0, 76, 76
6, 2624, Note_on_c, 0, 76, 0
6, 2640, Note_on_c, 0, 77, 76
6, 2984, Note_on_c, 0, 77, 0
6, 3000, Note_on_c, 0, 79, 76
6, 3104, Note_on_c, 0, 79, 0
6, 3120, Note_on_c, 0, 81, 76
6, 3464, Note_on_c, 0, 81, 0
6, 3480, Note_on_c, 0, 79, 76
6, 3584, Note_on_c, 0, 79, 0
6, 3600, Note_on_c, 0, 77, 76
6, 3824, Note_on_c, 0, 77, 0
6, 3840, Note_on_c, 0, 76, 76
6, 3944, Note_on_c, 0, 76, 0
6, 3960, Note_on_c, 0, 74, 76
6, 4064, Note_on_c, 0, 74, 0
6, 4080, Note_on_c, 0, 76, 76
6, 4424, Note_on_c, 0, 76, 0
6, 4440, Note_on_c, 0, 77, 76
6, 4544, Note_on_c, 0, 77, 0
6, 4560, Note_on_c, 0, 72, 76
6, 4679, Note_on_c, 0, 72, 0
6, 4680, Note_on_c, 0, 71, 76
6, 4799, Note_on_c, 0, 71, 0
6, 4800, Note_on_c, 0, 69, 76
6, 4919, Note_on_c, 0, 69, 0
6, 4920, Note_on_c, 0, 67, 76
6, 5039, Note_on_c, 0, 67, 0
6, 5040, Note_on_c, 0, 69, 76
6, 5159, Note_on_c, 0, 69, 0
6, 5160, Note_on_c, 0, 71, 76
6, 5279, Note_on_c, 0, 71, 0
6, 5280, Note_on_c, 0, 72, 76
6, 5399, Note_on_c, 0, 72, 0
6, 5400, Note_on_c, 0, 74, 76
6, 5504, Note_on_c, 0, 74, 0
6, 5520, Note_on_c, 0, 74, 76
6, 5549, Note_on_c, 0, 74, 0
6, 5550, Note_on_c, 0, 76, 76
6, 5579, Note_on_c, 0, 76, 0
6, 5580, Note_on_c, 0, 74, 76
6, 5609, Note_on_c, 0, 74, 0
6, 5610, Note_on_c, 0, 76, 76
6, 5639, Note_on_c, 0, 76, 0
6, 5640, Note_on_c, 0, 74, 76
6, 5669, Note_on_c, 0, 74, 0
6, 5670, Note_on_c, 0, 76, 76
6, 5699, Note_on_c, 0, 76, 0
6, 5700, Note_on_c, 0, 74, 76
6, 5729, Note_on_c, 0, 74, 0
6, 5730, Note_on_c, 0, 76, 76
6, 5759, Note_on_c, 0, 76, 0
6, 5760, Note_on_c, 0, 74, 76
6, 5789, Note_on_c, 0, 74, 0
6, 5790, Note_on_c, 0, 76, 76
6, 5819, Note_on_c, 0, 76, 0
6, 5820, Note_on_c, 0, 74, 76
6, 5849, Note_on_c, 0, 74, 0
6, 5850, Note_on_c, 0, 76, 76
6, 5879, Note_on_c, 0, 76, 0
6, 5880, Note_on_c, 0, 72, 76
6, 5939, Note_on_c, 0, 72, 0
6, 5940, Note_on_c, 0, 74, 76
6, 5999, Note_on_c, 0, 74, 0
6, 6000, Note_on_c, 0, 76, 76
6, 6344, Note_on_c, 0, 76, 0
6, 6360, Note_on_c, 0, 74, 76
6, 6464, Note_on_c, 0, 74, 0
6, 6480, Note_on_c, 0, 72, 76
6, 6704, Note_on_c, 0, 72, 0
6, 6720, Note_on_c, 0, 71, 76
6, 6824, Note_on_c, 0, 71, 0
6, 6840, Note_on_c, 0, 69, 76
6, 6944, Note_on_c, 0, 69, 0
6, 6960, Note_on_c, 0, 71, 76
6, 7304, Note_on_c, 0, 71, 0
6, 7320, Note_on_c, 0, 72, 76
6, 7424, Note_on_c, 0, 72, 0
6, 7440, Note_on_c, 0, 74, 76
6, 7784, Note_on_c, 0, 74, 0
6, 7800, Note_on_c, 0, 76, 76
6, 7904, Note_on_c, 0, 76, 0
6, 7920, Note_on_c, 0, 78, 76
6, 8144, Note_on_c, 0, 78, 0
6, 8160, Note_on_c, 0, 79, 76
6, 8384, Note_on_c, 0, 79, 0
6, 8400, Note_on_c, 0, 69, 76
6, 8744, Note_on_c, 0, 69, 0
6, 8760, Note_on_c, 0, 71, 76
6, 8864, Note_on_c, 0, 71, 0
6, 8880, Note_on_c, 0, 72, 76
6, 9224, Note_on_c, 0, 72, 0
6, 9240, Note_on_c, 0, 74, 76
6, 9344, Note_on_c, 0, 74, 0
6, 9360, Note_on_c, 0, 72, 76
6, 9479, Note_on_c, 0, 72, 0
6, 9480, Note_on_c, 0, 71, 76
6, 9599, Note_on_c, 0, 71, 0
6, 9600, Note_on_c, 0, 69, 76
6, 9719, Note_on_c, 0, 69, 0
6, 9720, Note_on_c, 0, 67, 76
6, 9824, Note_on_c, 0, 67, 0
6, 9840, Note_on_c, 0, 66, 76
6, 10184, Note_on_c, 0, 66, 0
6, 10200, Note_on_c, 0, 67, 76
6, 10304, Note_on_c, 0, 67, 0
6, 10320, Note_on_c, 0, 67, 76
6, 11519, Note_on_c, 0, 67, 0
6, 11640, Note_on_c, 0, 72, 76
6, 11744, Note_on_c, 0, 72, 0
6, 11760, Note_on_c, 0, 72, 76
6, 11864, Note_on_c, 0, 72, 0
6, 11880, Note_on_c, 0, 71, 76
6, 11984, Note_on_c, 0, 71, 0
6, 12000, Note_on_c, 0, 72, 76
6, 12104, Note_on_c, 0, 72, 0
6, 12120, Note_on_c, 0, 74, 76
6, 12224, Note_on_c, 0, 74, 0
6, 12240, Note_on_c, 0, 76, 76
6, 12584, Note_on_c, 0, 76, 0
6, 12600, Note_on_c, 0, 77, 76
6, 12704, Note_on_c, 0, 77, 0
6, 12720, Note_on_c, 0, 74, 76
6, 13064, Note_on_c, 0, 74, 0
6, 13080, Note_on_c, 0, 72, 76
6, 13184, Note_on_c, 0, 72, 0
6, 13200, Note_on_c, 0, 79, 76
6, 13904, Note_on_c, 0, 79, 0
6, 13920, Note_on_c, 0, 77, 76
6, 14024, Note_on_c, 0, 77, 0
6, 14040, Note_on_c, 0, 76, 76
6, 14144, Note_on_c, 0, 76, 0
6, 14160, Note_on_c, 0, 77, 76
6, 14504, Note_on_c, 0, 77, 0
6, 14520, Note_on_c, 0, 79, 76
6, 14624, Note_on_c, 0, 79, 0
6, 14640, Note_on_c, 0, 81, 76
6, 14984, Note_on_c, 0, 81, 0
6, 15000, Note_on_c, 0, 79, 76
6, 15104, Note_on_c, 0, 79, 0
6, 15120, Note_on_c, 0, 77, 76
6, 15344, Note_on_c, 0, 77, 0
6, 15360, Note_on_c, 0, 76, 76
6, 15464, Note_on_c, 0, 76, 0
6, 15480, Note_on_c, 0, 74, 76
6, 15584, Note_on_c, 0, 74, 0
6, 15600, Note_on_c, 0, 76, 76
6, 15944, Note_on_c, 0, 76, 0
6, 15960, Note_on_c, 0, 77, 76
6, 16064, Note_on_c, 0, 77, 0
6, 16080, Note_on_c, 0, 72, 76
6, 16199, Note_on_c, 0, 72, 0
6, 16200, Note_on_c, 0, 71, 76
6, 16319, Note_on_c, 0, 71, 0
6, 16320, Note_on_c, 0, 69, 76
6, 16439, Note_on_c, 0, 69, 0
6, 16440, Note_on_c, 0, 67, 76
6, 16559, Note_on_c, 0, 67, 0
6, 16560, Note_on_c, 0, 69, 76
6, 16679, Note_on_c, 0, 69, 0
6, 16680, Note_on_c, 0, 71, 76
6, 16799, Note_on_c, 0, 71, 0
6, 16800, Note_on_c, 0, 72, 76
6, 16919, Note_on_c, 0, 72, 0
6, 16920, Note_on_c, 0, 74, 76
6, 17024, Note_on_c, 0, 74, 0
6, 17040, Note_on_c, 0, 74, 76
6, 17069, Note_on_c, 0, 74, 0
6, 17070, Note_on_c, 0, 76, 76
6, 17099, Note_on_c, 0, 76, 0
6, 17100, Note_on_c, 0, 74, 76
6, 17129, Note_on_c, 0, 74, 0
6, 17130, Note_on_c, 0, 76, 76
6, 17159, Note_on_c, 0, 76, 0
6, 17160, Note_on_c, 0, 74, 76
6, 17189, Note_on_c, 0, 74, 0
6, 17190, Note_on_c, 0, 76, 76
6, 17219, Note_on_c, 0, 76, 0
6, 17220, Note_on_c, 0, 74, 76
6, 17249, Note_on_c, 0, 74, 0
6, 17250, Note_on_c, 0, 76, 76
6, 17279, Note_on_c, 0, 76, 0
6, 17280, Note_on_c, 0, 74, 76
6, 17309, Note_on_c, 0, 74, 0
6, 17310, Note_on_c, 0, 76, 76
6, 17339, Note_on_c, 0, 76, 0
6, 17340, Note_on_c, 0, 74, 76
6, 17369, Note_on_c, 0, 74, 0
6, 17370, Note_on_c, 0, 76, 76
6, 17399, Note_on_c, 0, 76, 0
6, 17400, Note_on_c, 0, 72, 76
6, 17459, Note_on_c, 0, 72, 0
6, 17460, Note_on_c, 0, 74, 76
6, 17519, Note_on_c, 0, 74, 0
6, 17520, Note_on_c, 0, 76, 76
6, 17864, Note_on_c, 0, 76, 0
6, 17880, Note_on_c, 0, 74, 76
6, 17984, Note_on_c, 0, 74, 0
6, 18000, Note_on_c, 0, 72, 76
6, 18224, Note_on_c, 0, 72, 0
6, 18240, Note_on_c, 0, 71, 76
6, 18344, Note_on_c, 0, 71, 0
6, 18360, Note_on_c, 0, 69, 76
6, 18464, Note_on_c, 0, 69, 0
6, 18480, Note_on_c, 0, 71, 76
6, 18824, Note_on_c, 0, 71, 0
6, 18840, Note_on_c, 0, 72, 76
6, 18944, Note_on_c, 0, 72, 0
6, 18960, Note_on_c, 0, 74, 76
6, 19304, Note_on_c, 0, 74, 0
6, 19320, Note_on_c, 0, 76, 76
6, 19424, Note_on_c, 0, 76, 0
6, 19440, Note_on_c, 0, 78, 76
6, 19664, Note_on_c, 0, 78, 0
6, 19680, Note_on_c, 0, 79, 76
6, 19904, Note_on_c, 0, 79, 0
6, 19920, Note_on_c, 0, 69, 76
6, 20264, Note_on_c, 0, 69, 0
6, 20280, Note_on_c, 0, 71, 76
6, 20384, Note_on_c, 0, 71, 0
6, 20400, Note_on_c, 0, 72, 76
6, 20744, Note_on_c, 0, 72, 0
6, 20760, Note_on_c, 0, 74, 76
6, 20864, Note_on_c, 0, 74, 0
6, 20880, Note_on_c, 0, 72, 76
6, 20999, Note_on_c, 0, 72, 0
6, 21000, Note_on_c, 0, 71, 76
6, 21119, Note_on_c, 0, 71, 0
6, 21120, Note_on_c, 0, 69, 76
6, 21239, Note_on_c, 0, 69, 0
6, 21240, Note_on_c, 0, 67, 76
6, 21344, Note_on_c, 0, 67, 0
6, 21360, Note_on_c, 0, 66, 76
6, 21704, Note_on_c, 0, 66, 0
6, 21720, Note_on_c, 0, 67, 76
6, 21824, Note_on_c, 0, 67, 0
6, 21840, Note_on_c, 0, 67, 76
6, 23039, Note_on_c, 0, 67, 0
6, 23160, Note_on_c, 0, 74, 76
6, 23264, Note_on_c, 0, 74, 0
6, 23280, Note_on_c, 0, 74, 76
6, 23384, Note_on_c, 0, 74, 0
6, 23400, Note_on_c, 0, 72, 76
6, 23504, Note_on_c, 0, 72, 0
6, 23520, Note_on_c, 0, 74, 76
6, 23624, Note_on_c, 0, 74, 0
6, 23640, Note_on_c, 0, 76, 76
6, 23744, Note_on_c, 0, 76, 0
6, 23760, Note_on_c, 0, 77, 76
6, 24104, Note_on_c, 0, 77, 0
6, 24120, Note_on_c, 0, 79, 76
6, 24224, Note_on_c, 0, 79, 0
6, 24240, Note_on_c, 0, 76, 76
6, 24269, Note_on_c, 0, 76, 0
6, 24270, Note_on_c, 0, 77, 76
6, 24299, Note_on_c, 0, 77, 0
6, 24300, Note_on_c, 0, 76, 76
6, 24329, Note_on_c, 0, 76, 0
6, 24330, Note_on_c, 0, 77, 76
6, 24359, Note_on_c, 0, 77, 0
6, 24360, Note_on_c, 0, 76, 76
6, 24389, Note_on_c, 0, 76, 0
6, 24390, Note_on_c, 0, 77, 76
6, 24419, Note_on_c, 0, 77, 0
6, 24420, Note_on_c, 0, 76, 76
6, 24449, Note_on_c, 0, 76, 0
6, 24450, Note_on_c, 0, 77, 76
6, 24479, Note_on_c, 0, 77, 0
6, 24480, Note_on_c, 0, 76, 76
6, 24509, Note_on_c, 0, 76, 0
6, 24510, Note_on_c, 0, 77, 76
6, 24539, Note_on_c, 0, 77, 0
6, 24540, Note_on_c, 0, 74, 76
6, 24569, Note_on_c, 0, 74, 0
6, 24570, Note_on_c, 0, 76, 76
6, 24599, Note_on_c, 0, 76, 0
6, 24600, Note_on_c, 0, 74, 76
6, 24704, Note_on_c, 0, 74, 0
6, 24720, Note_on_c, 0, 81, 76
6, 25424, Note_on_c, 0, 81, 0
6, 25440, Note_on_c, 0, 79, 76
6, 25544, Note_on_c, 0, 79, 0
6, 25560, Note_on_c, 0, 77, 76
6, 25664, Note_on_c, 0, 77, 0
6, 25680, Note_on_c, 0, 79, 76
6, 26024, Note_on_c, 0, 79, 0
6, 26040, Note_on_c, 0, 81, 76
6, 26144, Note_on_c, 0, 81, 0
6, 26160, Note_on_c, 0, 82, 76
6, 26504, Note_on_c, 0, 82, 0
6, 26520, Note_on_c, 0, 81, 76
6, 26624, Note_on_c, 0, 81, 0
6, 26640, Note_on_c, 0, 79, 76
6, 26864, Note_on_c, 0, 79, 0
6, 26880, Note_on_c, 0, 77, 76
6, 26984, Note_on_c, 0, 77, 0
6, 27000, Note_on_c, 0, 76, 76
6, 27104, Note_on_c, 0, 76, 0
6, 27120, Note_on_c, 0, 77, 76
6, 27464, Note_on_c, 0, 77, 0
6, 27480, Note_on_c, 0, 79, 76
6, 27584, Note_on_c, 0, 79, 0
6, 27600, Note_on_c, 0, 74, 76
6, 27719, Note_on_c, 0, 74, 0
6, 27720, Note_on_c, 0, 73, 76
6, 27839, Note_on_c, 0, 73, 0
6, 27840, Note_on_c, 0, 71, 76
6, 27959, Note_on_c, 0, 71, 0
6, 27960, Note_on_c, 0, 69, 76
6, 28064, Note_on_c, 0, 69, 0
6, 28080, Note_on_c, 0, 71, 76
6, 28199, Note_on_c, 0, 71, 0
6, 28200, Note_on_c, 0, 73, 76
6, 28319, Note_on_c, 0, 73, 0
6, 28320, Note_on_c, 0, 74, 76
6, 28439, Note_on_c, 0, 74, 0
6, 28440, Note_on_c, 0, 76, 76
6, 28544, Note_on_c, 0, 76, 0
6, 28560, Note_on_c, 0, 76, 76
6, 28589, Note_on_c, 0, 76, 0
6, 28590, Note_on_c, 0, 77, 76
6, 28619, Note_on_c, 0, 77, 0
6, 28620, Note_on_c, 0, 76, 76
6, 28649, Note_on_c, 0, 76, 0
6, 28650, Note_on_c, 0, 77, 76
6, 28679, Note_on_c, 0, 77, 0
6, 28680, Note_on_c, 0, 76, 76
6, 28709, Note_on_c, 0, 76, 0
6, 28710, Note_on_c, 0, 77, 76
6, 28739, Note_on_c, 0, 77, 0
6, 28740, Note_on_c, 0, 76, 76
6, 28769, Note_on_c, 0, 76, 0
6, 28770, Note_on_c, 0, 77, 76
6, 28799, Note_on_c, 0, 77, 0
6, 28800, Note_on_c, 0, 76, 76
6, 28829, Note_on_c, 0, 76, 0
6, 28830, Note_on_c, 0, 77, 76
6, 28859, Note_on_c, 0, 77, 0
6, 28860, Note_on_c, 0, 76, 76
6, 28889, Note_on_c, 0, 76, 0
6, 28890, Note_on_c, 0, 77, 76
6, 28919, Note_on_c, 0, 77, 0
6, 28920, Note_on_c, 0, 74, 76
6, 28964, Note_on_c, 0, 74, 0
6, 28980, Note_on_c, 0, 76, 76
6, 29024, Note_on_c, 0, 76, 0
6, 29040, Note_on_c, 0, 77, 76
6, 29384, Note_on_c, 0, 77, 0
6, 29400, Note_on_c, 0, 76, 76
6, 29504, Note_on_c, 0, 76, 0
6, 29520, Note_on_c, 0, 74, 76
6, 29744, Note_on_c, 0, 74, 0
6, 29760, Note_on_c, 0, 72, 76
6, 29864, Note_on_c, 0, 72, 0
6, 29880, Note_on_c, 0, 71, 76
6, 29984, Note_on_c, 0, 71, 0
6, 30000, Note_on_c, 0, 72, 76
6, 30344, Note_on_c, 0, 72, 0
6, 30360, Note_on_c, 0, 74, 76
6, 30464, Note_on_c, 0, 74, 0
6, 30480, Note_on_c, 0, 76, 76
6, 30824, Note_on_c, 0, 76, 0
6, 30840, Note_on_c, 0, 78, 76
6, 30944, Note_on_c, 0, 78, 0
6, 30960, Note_on_c, 0, 80, 76
6, 31184, Note_on_c, 0, 80, 0
6, 31200, Note_on_c, 0, 81, 76
6, 31424, Note_on_c, 0, 81, 0
6, 31440, Note_on_c, 0, 71, 76
6, 31784, Note_on_c, 0, 71, 0
6, 31800, Note_on_c, 0, 72, 76
6, 31904, Note_on_c, 0, 72, 0
6, 31920, Note_on_c, 0, 74, 76
6, 32264, Note_on_c, 0, 74, 0
6, 32280, Note_on_c, 0, 76, 76
6, 32384, Note_on_c, 0, 76, 0
6, 32400, Note_on_c, 0, 72, 76
6, 32744, Note_on_c, 0, 72, 0
6, 32760, Note_on_c, 0, 71, 76
6, 32864, Note_on_c, 0, 71, 0
6, 32880, Note_on_c, 0, 71, 76
6, 32909, Note_on_c, 0, 71, 0
6, 32910, Note_on_c, 0, 72, 76
6, 32939, Note_on_c, 0, 72, 0
6, 32940, Note_on_c, 0, 71, 76
6, 32969, Note_on_c, 0, 71, 0
6, 32970, Note_on_c, 0, 72, 76
6, 32999, Note_on_c, 0, 72, 0
6, 33000, Note_on_c, 0, 71, 76
6, 33029, Note_on_c, 0, 71, 0
6, 33030, Note_on_c, 0, 72, 76
6, 33059, Note_on_c, 0, 72, 0
6, 33060, Note_on_c, 0, 71, 76
6, 33089, Note_on_c, 0, 71, 0
6, 33090, Note_on_c, 0, 72, 76
6, 33119, Note_on_c, 0, 72, 0
6, 33120, Note_on_c, 0, 71, 76
6, 33149, Note_on_c, 0, 71, 0
6, 33150, Note_on_c, 0, 72, 76
6, 33179, Note_on_c, 0, 72, 0
6, 33180, Note_on_c, 0, 69, 76
6, 33209, Note_on_c, 0, 69, 0
6, 33210, Note_on_c, 0, 71, 76
6, 33239, Note_on_c, 0, 71, 0
6, 33240, Note_on_c, 0, 69, 76
6, 33344, Note_on_c, 0, 69, 0
6, 33360, Note_on_c, 0, 69, 76
6, 33944, Note_on_c, 0, 69, 0
6, 33960, Note_on_c, 0, 71, 76
6, 34064, Note_on_c, 0, 71, 0
6, 34080, Note_on_c, 0, 72, 76
6, 34184, Note_on_c, 0, 72, 0
6, 34200, Note_on_c, 0, 74, 76
6, 34304, Note_on_c, 0, 74, 0
6, 34320, Note_on_c, 0, 76, 76
6, 34424, Note_on_c, 0, 76, 0
6, 34440, Note_on_c, 0, 77, 76
6, 34544, Note_on_c, 0, 77, 0
6, 34560, Note_on_c, 0, 77, 76
6, 34589, Note_on_c, 0, 77, 0
6, 34590, Note_on_c, 0, 79, 76
6, 34619, Note_on_c, 0, 79, 0
6, 34620, Note_on_c, 0, 77, 76
6, 34649, Note_on_c, 0, 77, 0
6, 34650, Note_on_c, 0, 79, 76
6, 34679, Note_on_c, 0, 79, 0
6, 34680, Note_on_c, 0, 77, 76
6, 34709, Note_on_c, 0, 77, 0
6, 34710, Note_on_c, 0, 79, 76
6, 34739, Note_on_c, 0, 79, 0
6, 34740, Note_on_c, 0, 76, 76
6, 34769, Note_on_c, 0, 76, 0
6, 34770, Note_on_c, 0, 77, 76
6, 34799, Note_on_c, 0, 77, 0
6, 34800, Note_on_c, 0, 79, 76
6, 35144, Note_on_c, 0, 79, 0
6, 35160, Note_on_c, 0, 77, 76
6, 35264, Note_on_c, 0, 77, 0
6, 35280, Note_on_c, 0, 76, 76
6, 35504, Note_on_c, 0, 76, 0
6, 35520, Note_on_c, 0, 74, 76
6, 35624, Note_on_c, 0, 74, 0
6, 35640, Note_on_c, 0, 72, 76
6, 35744, Note_on_c, 0, 72, 0
6, 35760, Note_on_c, 0, 70, 76
6, 35864, Note_on_c, 0, 70, 0
6, 35880, Note_on_c, 0, 69, 76
6, 35984, Note_on_c, 0, 69, 0
6, 36000, Note_on_c, 0, 70, 76
6, 36104, Note_on_c, 0, 70, 0
6, 36120, Note_on_c, 0, 67, 76
6, 36224, Note_on_c, 0, 67, 0
6, 36240, Note_on_c, 0, 69, 76
6, 36584, Note_on_c, 0, 69, 0
6, 36600, Note_on_c, 0, 67, 76
6, 36704, Note_on_c, 0, 67, 0
6, 36720, Note_on_c, 0, 65, 76
6, 36944, Note_on_c, 0, 65, 0
6, 36960, Note_on_c, 0, 69, 76
6, 37184, Note_on_c, 0, 69, 0
6, 37200, Note_on_c, 0, 74, 76
6, 37544, Note_on_c, 0, 74, 0
6, 37560, Note_on_c, 0, 76, 76
6, 37664, Note_on_c, 0, 76, 0
6, 37680, Note_on_c, 0, 77, 76
6, 38024, Note_on_c, 0, 77, 0
6, 38040, Note_on_c, 0, 79, 76
6, 38159, Note_on_c, 0, 79, 0
6, 38160, Note_on_c, 0, 81, 76
6, 38279, Note_on_c, 0, 81, 0
6, 38280, Note_on_c, 0, 79, 76
6, 38399, Note_on_c, 0, 79, 0
6, 38400, Note_on_c, 0, 77, 76
6, 38519, Note_on_c, 0, 77, 0
6, 38520, Note_on_c, 0, 76, 76
6, 38639, Note_on_c, 0, 76, 0
6, 38640, Note_on_c, 0, 74, 76
6, 38759, Note_on_c, 0, 74, 0
6, 38760, Note_on_c, 0, 72, 76
6, 38879, Note_on_c, 0, 72, 0
6, 38880, Note_on_c, 0, 71, 76
6, 38999, Note_on_c, 0, 71, 0
6, 39000, Note_on_c, 0, 72, 76
6, 39104, Note_on_c, 0, 72, 0
6, 39120, Note_on_c, 0, 71, 76
6, 39149, Note_on_c, 0, 71, 0
6, 39150, Note_on_c, 0, 72, 76
6, 39179, Note_on_c, 0, 72, 0
6, 39180, Note_on_c, 0, 71, 76
6, 39209, Note_on_c, 0, 71, 0
6, 39210, Note_on_c, 0, 72, 76
6, 39239, Note_on_c, 0, 72, 0
6, 39240, Note_on_c, 0, 71, 76
6, 39269, Note_on_c, 0, 71, 0
6, 39270, Note_on_c, 0, 72, 76
6, 39299, Note_on_c, 0, 72, 0
6, 39300, Note_on_c, 0, 71, 76
6, 39329, Note_on_c, 0, 71, 0
6, 39330, Note_on_c, 0, 72, 76
6, 39359, Note_on_c, 0, 72, 0
6, 39360, Note_on_c, 0, 71, 76
6, 39389, Note_on_c, 0, 71, 0
6, 39390, Note_on_c, 0, 72, 76
6, 39419, Note_on_c, 0, 72, 0
6, 39420, Note_on_c, 0, 69, 76
6, 39449, Note_on_c, 0, 69, 0
6, 39450, Note_on_c, 0, 71, 76
6, 39479, Note_on_c, 0, 71, 0
6, 39480, Note_on_c, 0, 72, 76
6, 39584, Note_on_c, 0, 72, 0
6, 39600, Note_on_c, 0, 74, 76
6, 39824, Note_on_c, 0, 74, 0
6, 39840, Note_on_c, 0, 72, 76
6, 39944, Note_on_c, 0, 72, 0
6, 39960, Note_on_c, 0, 71, 76
6, 40064, Note_on_c, 0, 71, 0
6, 40080, Note_on_c, 0, 69, 76
6, 40184, Note_on_c, 0, 69, 0
6, 40200, Note_on_c, 0, 67, 76
6, 40304, Note_on_c, 0, 67, 0
6, 40320, Note_on_c, 0, 69, 76
6, 40424, Note_on_c, 0, 69, 0
6, 40440, Note_on_c, 0, 71, 76
6, 40544, Note_on_c, 0, 71, 0
6, 40560, Note_on_c, 0, 72, 76
6, 40664, Note_on_c, 0, 72, 0
6, 40680, Note_on_c, 0, 71, 76
6, 40784, Note_on_c, 0, 71, 0
6, 40800, Note_on_c, 0, 72, 76
6, 40904, Note_on_c, 0, 72, 0
6, 40920, Note_on_c, 0, 74, 76
6, 41024, Note_on_c, 0, 74, 0
6, 41040, Note_on_c, 0, 76, 76
6, 41384, Note_on_c, 0, 76, 0
6, 41400, Note_on_c, 0, 77, 76
6, 41504, Note_on_c, 0, 77, 0
6, 41520, Note_on_c, 0, 74, 76
6, 41549, Note_on_c, 0, 74, 0
6, 41550, Note_on_c, 0, 76, 76
6, 41579, Note_on_c, 0, 76, 0
6, 41580, Note_on_c, 0, 74, 76
6, 41609, Note_on_c, 0, 74, 0
6, 41610, Note_on_c, 0, 76, 76
6, 41639, Note_on_c, 0, 76, 0
6, 41640, Note_on_c, 0, 74, 76
6, 41669, Note_on_c, 0, 74, 0
6, 41670, Note_on_c, 0, 76, 76
6, 41699, Note_on_c, 0, 76, 0
6, 41700, Note_on_c, 0, 74, 76
6, 41729, Note_on_c, 0, 74, 0
6, 41730, Note_on_c, 0, 76, 76
6, 41759, Note_on_c, 0, 76, 0
6, 41760, Note_on_c, 0, 74, 76
6, 41789, Note_on_c, 0, 74, 0
6, 41790, Note_on_c, 0, 76, 76
6, 41819, Note_on_c, 0, 76, 0
6, 41820, Note_on_c, 0, 72, 76
6, 41849, Note_on_c, 0, 72, 0
6, 41850, Note_on_c, 0, 74, 76
6, 41879, Note_on_c, 0, 74, 0
6, 41880, Note_on_c, 0, 72, 76
6, 41984, Note_on_c, 0, 72, 0
6, 42000, Note_on_c, 0, 79, 76
6, 42704, Note_on_c, 0, 79, 0
6, 42720, Note_on_c, 0, 77, 76
6, 42824, Note_on_c, 0, 77, 0
6, 42840, Note_on_c, 0, 76, 76
6, 42944, Note_on_c, 0, 76, 0
6, 42960, Note_on_c, 0, 77, 76
6, 43304, Note_on_c, 0, 77, 0
6, 43320, Note_on_c, 0, 79, 76
6, 43424, Note_on_c, 0, 79, 0
6, 43440, Note_on_c, 0, 81, 76
6, 43784, Note_on_c, 0, 81, 0
6, 43800, Note_on_c, 0, 79, 76
6, 43904, Note_on_c, 0, 79, 0
6, 43920, Note_on_c, 0, 77, 76
6, 44144, Note_on_c, 0, 77, 0
6, 44160, Note_on_c, 0, 76, 76
6, 44264, Note_on_c, 0, 76, 0
6, 44280, Note_on_c, 0, 74, 76
6, 44384, Note_on_c, 0, 74, 0
6, 44400, Note_on_c, 0, 76, 76
6, 44744, Note_on_c, 0, 76, 0
6, 44760, Note_on_c, 0, 77, 76
6, 44864, Note_on_c, 0, 77, 0
6, 44880, Note_on_c, 0, 79, 76
6, 45224, Note_on_c, 0, 79, 0
6, 45240, Note_on_c, 0, 77, 76
6, 45344, Note_on_c, 0, 77, 0
6, 45360, Note_on_c, 0, 76, 76
6, 45464, Note_on_c, 0, 76, 0
6, 45480, Note_on_c, 0, 74, 76
6, 45584, Note_on_c, 0, 74, 0
6, 45600, Note_on_c, 0, 76, 76
6, 45704, Note_on_c, 0, 76, 0
6, 45720, Note_on_c, 0, 72, 76
6, 45824, Note_on_c, 0, 72, 0
6, 45840, Note_on_c, 0, 74, 76
6, 46184, Note_on_c, 0, 74, 0
6, 46200, Note_on_c, 0, 76, 76
6, 46304, Note_on_c, 0, 76, 0
6, 46320, Note_on_c, 0, 77, 76
6, 46664, Note_on_c, 0, 77, 0
6, 46680, Note_on_c, 0, 76, 76
6, 46784, Note_on_c, 0, 76, 0
6, 46800, Note_on_c, 0, 74, 76
6, 46919, Note_on_c, 0, 74, 0
6, 46920, Note_on_c, 0, 72, 76
6, 47039, Note_on_c, 0, 72, 0
6, 47040, Note_on_c, 0, 71, 76
6, 47159, Note_on_c, 0, 71, 0
6, 47160, Note_on_c, 0, 72, 76
6, 47279, Note_on_c, 0, 72, 0
6, 47280, Note_on_c, 0, 74, 76
6, 47399, Note_on_c, 0, 74, 0
6, 47400, Note_on_c, 0, 71, 76
6, 47519, Note_on_c, 0, 71, 0
6, 47520, Note_on_c, 0, 72, 76
6, 47639, Note_on_c, 0, 72, 0
6, 47640, Note_on_c, 0, 74, 76
6, 47744, Note_on_c, 0, 74, 0
6, 47760, Note_on_c, 0, 67, 76
6, 48104, Note_on_c, 0, 67, 0
6, 48120, Note_on_c, 0, 69, 76
6, 48224, Note_on_c, 0, 69, 0
6, 48240, Note_on_c, 0, 71, 76
6, 48344, Note_on_c, 0, 71, 0
6, 48360, Note_on_c, 0, 72, 76
6, 48464, Note_on_c, 0, 72, 0
6, 48480, Note_on_c, 0, 74, 76
6, 48584, Note_on_c, 0, 74, 0
6, 48600, Note_on_c, 0, 76, 76
6, 48704, Note_on_c, 0, 76, 0
6, 48720, Note_on_c, 0, 77, 76
6, 48824, Note_on_c, 0, 77, 0
6, 48840, Note_on_c, 0, 74, 76
6, 48944, Note_on_c, 0, 74, 0
6, 48960, Note_on_c, 0, 79, 76
6, 49184, Note_on_c, 0, 79, 0
6, 49200, Note_on_c, 0, 76, 76
6, 49544, Note_on_c, 0, 76, 0
6, 49560, Note_on_c, 0, 74, 76
6, 49664, Note_on_c, 0, 74, 0
6, 49680, Note_on_c, 0, 72, 76
6, 49784, Note_on_c, 0, 72, 0
6, 49800, Note_on_c, 0, 71, 76
6, 49904, Note_on_c, 0, 71, 0
6, 49920, Note_on_c, 0, 72, 76
6, 50024, Note_on_c, 0, 72, 0
6, 50040, Note_on_c, 0, 69, 76
6, 50144, Note_on_c, 0, 69, 0
6, 50160, Note_on_c, 0, 71, 76
6, 50189, Note_on_c, 0, 71, 0
6, 50190, Note_on_c, 0, 72, 76
6, 50219, Note_on_c, 0, 72, 0
6, 50220, Note_on_c, 0, 71, 76
6, 50249, Note_on_c, 0, 71, 0
6, 50250, Note_on_c, 0, 72, 76
6, 50279, Note_on_c, 0, 72, 0
6, 50280, Note_on_c, 0, 71, 76
6, 50309, Note_on_c, 0, 71, 0
6, 50310, Note_on_c, 0, 72, 76
6, 50339, Note_on_c, 0, 72, 0
6, 50340, Note_on_c, 0, 71, 76
6, 50369, Note_on_c, 0, 71, 0
6, 50370, Note_on_c, 0, 72, 76
6, 50399, Note_on_c, 0, 72, 0
6, 50400, Note_on_c, 0, 71, 76
6, 50429, Note_on_c, 0, 71, 0
6, 50430, Note_on_c, 0, 72, 76
6, 50459, Note_on_c, 0, 72, 0
6, 50460, Note_on_c, 0, 69, 76
6, 50489, Note_on_c, 0, 69, 0
6, 50490, Note_on_c, 0, 71, 76
6, 50519, Note_on_c, 0, 71, 0
6, 50520, Note_on_c, 0, 72, 76
6, 50624, Note_on_c, 0, 72, 0
6, 50640, Note_on_c, 0, 72, 76
6, 51839, Note_on_c, 0, 72, 0
6, 51960, Note_on_c, 0, 74, 76
6, 52064, Note_on_c, 0, 74, 0
6, 52080, Note_on_c, 0, 74, 76
6, 52184, Note_on_c, 0, 74, 0
6, 52200, Note_on_c, 0, 72, 76
6, 52304, Note_on_c, 0, 72, 0
6, 52320, Note_on_c, 0, 74, 76
6, 52424, Note_on_c, 0, 74, 0
6, 52440, Note_on_c, 0, 76, 76
6, 52544, Note_on_c, 0, 76, 0
6, 52560, Note_on_c, 0, 77, 76
6, 52904, Note_on_c, 0, 77, 0
6, 52920, Note_on_c, 0, 79, 76
6, 53024, Note_on_c, 0, 79, 0
6, 53040, Note_on_c, 0, 76, 76
6, 53069, Note_on_c, 0, 76, 0
6, 53070, Note_on_c, 0, 77, 76
6, 53099, Note_on_c, 0, 77, 0
6, 53100, Note_on_c, 0, 76, 76
6, 53129, Note_on_c, 0, 76, 0
6, 53130, Note_on_c, 0, 77, 76
6, 53159, Note_on_c, 0, 77, 0
6, 53160, Note_on_c, 0, 76, 76
6, 53189, Note_on_c, 0, 76, 0
6, 53190, Note_on_c, 0, 77, 76
6, 53219, Note_on_c, 0, 77, 0
6, 53220, Note_on_c, 0, 76, 76
6, 53249, Note_on_c, 0, 76, 0
6, 53250, Note_on_c, 0, 77, 76
6, 53279, Note_on_c, 0, 77, 0
6, 53280, Note_on_c, 0, 76, 76
6, 53309, Note_on_c, 0, 76, 0
6, 53310, Note_on_c, 0, 77, 76
6, 53339, Note_on_c, 0, 77, 0
6, 53340, Note_on_c, 0, 74, 76
6, 53369, Note_on_c, 0, 74, 0
6, 53370, Note_on_c, 0, 76, 76
6, 53399, Note_on_c, 0, 76, 0
6, 53400, Note_on_c, 0, 74, 76
6, 53504, Note_on_c, 0, 74, 0
6, 53520, Note_on_c, 0, 81, 76
6, 54224, Note_on_c, 0, 81, 0
6, 54240, Note_on_c, 0, 79, 76
6, 54344, Note_on_c, 0, 79, 0
6, 54360, Note_on_c, 0, 77, 76
6, 54464, Note_on_c, 0, 77, 0
6, 54480, Note_on_c, 0, 79, 76
6, 54824, Note_on_c, 0, 79, 0
6, 54840, Note_on_c, 0, 81, 76
6, 54944, Note_on_c, 0, 81, 0
6, 54960, Note_on_c, 0, 82, 76
6, 55304, Note_on_c, 0, 82, 0
6, 55320, Note_on_c, 0, 81, 76
6, 55424, Note_on_c, 0, 81, 0
6, 55440, Note_on_c, 0, 79, 76
6, 55664, Note_on_c, 0, 79, 0
6, 55680, Note_on_c, 0, 77, 76
6, 55784, Note_on_c, 0, 77, 0
6, 55800, Note_on_c, 0, 76, 76
6, 55904, Note_on_c, 0, 76, 0
6, 55920, Note_on_c, 0, 77, 76
6, 56264, Note_on_c, 0, 77, 0
6, 56280, Note_on_c, 0, 79, 76
6, 56384, Note_on_c, 0, 79, 0
6, 56400, Note_on_c, 0, 74, 76
6, 56519, Note_on_c, 0, 74, 0
6, 56520, Note_on_c, 0, 73, 76
6, 56639, Note_on_c, 0, 73, 0
6, 56640, Note_on_c, 0, 71, 76
6, 56759, Note_on_c, 0, 71, 0
6, 56760, Note_on_c, 0, 69, 76
6, 56864, Note_on_c, 0, 69, 0
6, 56880, Note_on_c, 0, 71, 76
6, 56999, Note_on_c, 0, 71, 0
6, 57000, Note_on_c, 0, 73, 76
6, 57119, Note_on_c, 0, 73, 0
6, 57120, Note_on_c, 0, 74, 76
6, 57239, Note_on_c, 0, 74, 0
6, 57240, Note_on_c, 0, 76, 76
6, 57344, Note_on_c, 0, 76, 0
6, 57360, Note_on_c, 0, 76, 76
6, 57389, Note_on_c, 0, 76, 0
6, 57390, Note_on_c, 0, 77, 76
6, 57419, Note_on_c, 0, 77, 0
6, 57420, Note_on_c, 0, 76, 76
6, 57449, Note_on_c, 0, 76, 0
6, 57450, Note_on_c, 0, 77, 76
6, 57479, Note_on_c, 0, 77, 0
6, 57480, Note_on_c, 0, 76, 76
6, 57509, Note_on_c, 0, 76, 0
6, 57510, Note_on_c, 0, 77, 76
6, 57539, Note_on_c, 0, 77, 0
6, 57540, Note_on_c, 0, 76, 76
6, 57569, Note_on_c, 0, 76, 0
6, 57570, Note_on_c, 0, 77, 76
6, 57599, Note_on_c, 0, 77, 0
6, 57600, Note_on_c, 0, 76, 76
6, 57629, Note_on_c, 0, 76, 0
6, 57630, Note_on_c, 0, 77, 76
6, 57659, Note_on_c, 0, 77, 0
6, 57660, Note_on_c, 0, 76, 76
6, 57689, Note_on_c, 0, 76, 0
6, 57690, Note_on_c, 0, 77, 76
6, 57719, Note_on_c, 0, 77, 0
6, 57720, Note_on_c, 0, 74, 76
6, 57764, Note_on_c, 0, 74, 0
6, 57780, Note_on_c, 0, 76, 76
6, 57824, Note_on_c, 0, 76, 0
6, 57840, Note_on_c, 0, 77, 76
6, 58184, Note_on_c, 0, 77, 0
6, 58200, Note_on_c, 0, 76, 76
6, 58304, Note_on_c, 0, 76, 0
6, 58320, Note_on_c, 0, 74, 76
6, 58544, Note_on_c, 0, 74, 0
6, 58560, Note_on_c, 0, 72, 76
6, 58664, Note_on_c, 0, 72, 0
6, 58680, Note_on_c, 0, 71, 76
6, 58784, Note_on_c, 0, 71, 0
6, 58800, Note_on_c, 0, 72, 76
6, 59144, Note_on_c, 0, 72, 0
6, 59160, Note_on_c, 0, 74, 76
6, 59264, Note_on_c, 0, 74, 0
6, 59280, Note_on_c, 0, 76, 76
6, 59624, Note_on_c, 0, 76, 0
6, 59640, Note_on_c, 0, 78, 76
6, 59744, Note_on_c, 0, 78, 0
6, 59760, Note_on_c, 0, 80, 76
6, 59984, Note_on_c, 0, 80, 0
6, 60000, Note_on_c, 0, 81, 76
6, 60224, Note_on_c, 0, 81, 0
6, 60240, Note_on_c, 0, 71, 76
6, 60584, Note_on_c, 0, 71, 0
6, 60600, Note_on_c, 0, 72, 76
6, 60704, Note_on_c, 0, 72, 0
6, 60720, Note_on_c, 0, 74, 76
6, 61064, Note_on_c, 0, 74, 0
6, 61080, Note_on_c, 0, 76, 76
6, 61184, Note_on_c, 0, 76, 0
6, 61200, Note_on_c, 0, 72, 76
6, 61544, Note_on_c, 0, 72, 0
6, 61560, Note_on_c, 0, 71, 76
6, 61664, Note_on_c, 0, 71, 0
6, 61680, Note_on_c, 0, 71, 76
6, 61709, Note_on_c, 0, 71, 0
6, 61710, Note_on_c, 0, 72, 76
6, 61739, Note_on_c, 0, 72, 0
6, 61740, Note_on_c, 0, 71, 76
6, 61769, Note_on_c, 0, 71, 0
6, 61770, Note_on_c, 0, 72, 76
6, 61799, Note_on_c, 0, 72, 0
6, 61800, Note_on_c, 0, 71, 76
6, 61829, Note_on_c, 0, 71, 0
6, 61830, Note_on_c, 0, 72, 76
6, 61859, Note_on_c, 0, 72, 0
6, 61860, Note_on_c, 0, 71, 76
6, 61889, Note_on_c, 0, 71, 0
6, 61890, Note_on_c, 0, 72, 76
6, 61919, Note_on_c, 0, 72, 0
6, 61920, Note_on_c, 0, 71, 76
6, 61949, Note_on_c, 0, 71, 0
6, 61950, Note_on_c, 0, 72, 76
6, 61979, Note_on_c, 0, 72, 0
6, 61980, Note_on_c, 0, 69, 76
6, 62009, Note_on_c, 0, 69, 0
6, 62010, Note_on_c, 0, 71, 76
6, 62039, Note_on_c, 0, 71, 0
6, 62040, Note_on_c, 0, 69, 76
6, 62144, Note_on_c, 0, 69, 0
6, 62160, Note_on_c, 0, 69, 76
6, 62744, Note_on_c, 0, 69, 0
6, 62760, Note_on_c, 0, 71, 76
6, 62864, Note_on_c, 0, 71, 0
6, 62880, Note_on_c, 0, 72, 76
6, 62984, Note_on_c, 0, 72, 0
6, 63000, Note_on_c, 0, 74, 76
6, 63104, Note_on_c, 0, 74, 0
6, 63120, Note_on_c, 0, 76, 76
6, 63224, Note_on_c, 0, 76, 0
6, 63240, Note_on_c, 0, 77, 76
6, 63344, Note_on_c, 0, 77, 0
6, 63360, Note_on_c, 0, 77, 76
6, 63389, Note_on_c, 0, 77, 0
6, 63390, Note_on_c, 0, 79, 76
6, 63419, Note_on_c, 0, 79, 0
6, 63420, Note_on_c, 0, 77, 76
6, 63449, Note_on_c, 0, 77, 0
6, 63450, Note_on_c, 0, 79, 76
6, 63479, Note_on_c, 0, 79, 0
6, 63480, Note_on_c, 0, 77, 76
6, 63509, Note_on_c, 0, 77, 0
6, 63510, Note_on_c, 0, 79, 76
6, 63539, Note_on_c, 0, 79, 0
6, 63540, Note_on_c, 0, 76, 76
6, 63569, Note_on_c, 0, 76, 0
6, 63570, Note_on_c, 0, 77, 76
6, 63599, Note_on_c, 0, 77, 0
6, 63600, Note_on_c, 0, 79, 76
6, 63944, Note_on_c, 0, 79, 0
6, 63960, Note_on_c, 0, 77, 76
6, 64064, Note_on_c, 0, 77, 0
6, 64080, Note_on_c, 0, 76, 76
6, 64304, Note_on_c, 0, 76, 0
6, 64320, Note_on_c, 0, 74, 76
6, 64424, Note_on_c, 0, 74, 0
6, 64440, Note_on_c, 0, 72, 76
6, 64544, Note_on_c, 0, 72, 0
6, 64560, Note_on_c, 0, 70, 76
6, 64664, Note_on_c, 0, 70, 0
6, 64680, Note_on_c, 0, 69, 76
6, 64784, Note_on_c, 0, 69, 0
6, 64800, Note_on_c, 0, 70, 76
6, 64904, Note_on_c, 0, 70, 0
6, 64920, Note_on_c, 0, 67, 76
6, 65024, Note_on_c, 0, 67, 0
6, 65040, Note_on_c, 0, 69, 76
6, 65384, Note_on_c, 0, 69, 0
6, 65400, Note_on_c, 0, 67, 76
6, 65504, Note_on_c, 0, 67, 0
6, 65520, Note_on_c, 0, 65, 76
6, 65744, Note_on_c, 0, 65, 0
6, 65760, Note_on_c, 0, 69, 76
6, 65984, Note_on_c, 0, 69, 0
6, 66000, Note_on_c, 0, 74, 76
6, 66344, Note_on_c, 0, 74, 0
6, 66360, Note_on_c, 0, 76, 76
6, 66464, Note_on_c, 0, 76, 0
6, 66480, Note_on_c, 0, 77, 76
6, 66824, Note_on_c, 0, 77, 0
6, 66840, Note_on_c, 0, 79, 76
6, 66959, Note_on_c, 0, 79, 0
6, 66960, Note_on_c, 0, 81, 76
6, 67079, Note_on_c, 0, 81, 0
6, 67080, Note_on_c, 0, 79, 76
6, 67199, Note_on_c, 0, 79, 0
6, 67200, Note_on_c, 0, 77, 76
6, 67319, Note_on_c, 0, 77, 0
6, 67320, Note_on_c, 0, 76, 76
6, 67439, Note_on_c, 0, 76, 0
6, 67440, Note_on_c, 0, 74, 76
6, 67559, Note_on_c, 0, 74, 0
6, 67560, Note_on_c, 0, 72, 76
6, 67679, Note_on_c, 0, 72, 0
6, 67680, Note_on_c, 0, 71, 76
6, 67799, Note_on_c, 0, 71, 0
6, 67800, Note_on_c, 0, 72, 76
6, 67904, Note_on_c, 0, 72, 0
6, 67920, Note_on_c, 0, 71, 76
6, 67949, Note_on_c, 0, 71, 0
6, 67950, Note_on_c, 0, 72, 76
6, 67979, Note_on_c, 0, 72, 0
6, 67980, Note_on_c, 0, 71, 76
6, 68009, Note_on_c, 0, 71, 0
6, 68010, Note_on_c, 0, 72, 76
6, 68039, Note_on_c, 0, 72, 0
6, 68040, Note_on_c, 0, 71, 76
6, 68069, Note_on_c, 0, 71, 0
6, 68070, Note_on_c, 0, 72, 76
6, 68099, Note_on_c, 0, 72, 0
6, 68100, Note_on_c, 0, 71, 76
6, 68129, Note_on_c, 0, 71, 0
6, 68130, Note_on_c, 0, 72, 76
6, 68159, Note_on_c, 0, 72, 0
6, 68160, Note_on_c, 0, 71, 76
6, 68189, Note_on_c, 0, 71, 0
6, 68190, Note_on_c, 0, 72, 76
6, 68219, Note_on_c, 0, 72, 0
6, 68220, Note_on_c, 0, 69, 76
6, 68249, Note_on_c, 0, 69, 0
6, 68250, Note_on_c, 0, 71, 76
6, 68279, Note_on_c, 0, 71, 0
6, 68280, Note_on_c, 0, 72, 76
6, 68384, Note_on_c, 0, 72, 0
6, 68400, Note_on_c, 0, 74, 76
6, 68624, Note_on_c, 0, 74, 0
6, 68640, Note_on_c, 0, 72, 76
6, 68744, Note_on_c, 0, 72, 0
6, 68760, Note_on_c, 0, 71, 76
6, 68864, Note_on_c, 0, 71, 0
6, 68880, Note_on_c, 0, 69, 76
6, 68984, Note_on_c, 0, 69, 0
6, 69000, Note_on_c, 0, 67, 76
6, 69104, Note_on_c, 0, 67, 0
6, 69120, Note_on_c, 0, 69, 76
6, 69224, Note_on_c, 0, 69, 0
6, 69240, Note_on_c, 0, 71, 76
6, 69344, Note_on_c, 0, 71, 0
6, 69360, Note_on_c, 0, 72, 76
6, 69464, Note_on_c, 0, 72, 0
6, 69480, Note_on_c, 0, 71, 76
6, 69584, Note_on_c, 0, 71, 0
6, 69600, Note_on_c, 0, 72, 76
6, 69704, Note_on_c, 0, 72, 0
6, 69720, Note_on_c, 0, 74, 76
6, 69824, Note_on_c, 0, 74, 0
6, 69840, Note_on_c, 0, 76, 76
6, 70184, Note_on_c, 0, 76, 0
6, 70200, Note_on_c, 0, 77, 76
6, 70304, Note_on_c, 0, 77, 0
6, 70320, Note_on_c, 0, 74, 76
6, 70349, Note_on_c, 0, 74, 0
6, 70350, Note_on_c, 0, 76, 76
6, 70379, Note_on_c, 0, 76, 0
6, 70380, Note_on_c, 0, 74, 76
6, 70409, Note_on_c, 0, 74, 0
6, 70410, Note_on_c, 0, 76, 76
6, 70439, Note_on_c, 0, 76, 0
6, 70440, Note_on_c, 0, 74, 76
6, 70469, Note_on_c, 0, 74, 0
6, 70470, Note_on_c, 0, 76, 76
6, 70499, Note_on_c, 0, 76, 0
6, 70500, Note_on_c, 0, 74, 76
6, 70529, Note_on_c, 0, 74, 0
6, 70530, Note_on_c, 0, 76, 76
6, 70559, Note_on_c, 0, 76, 0
6, 70560, Note_on_c, 0, 74, 76
6, 70589, Note_on_c, 0, 74, 0
6, 70590, Note_on_c, 0, 76, 76
6, 70619, Note_on_c, 0, 76, 0
6, 70620, Note_on_c, 0, 72, 76
6, 70649, Note_on_c, 0, 72, 0
6, 70650, Note_on_c, 0, 74, 76
6, 70679, Note_on_c, 0, 74, 0
6, 70680, Note_on_c, 0, 72, 76
6, 70784, Note_on_c, 0, 72, 0
6, 70800, Note_on_c, 0, 79, 76
6, 71504, Note_on_c, 0, 79, 0
6, 71520, Note_on_c, 0, 77, 76
6, 71624, Note_on_c, 0, 77, 0
6, 71640, Note_on_c, 0, 76, 76
6, 71744, Note_on_c, 0, 76, 0
6, 71760, Note_on_c, 0, 77, 76
6, 72104, Note_on_c, 0, 77, 0
6, 72120, Note_on_c, 0, 79, 76
6, 72224, Note_on_c, 0, 79, 0
6, 72240, Note_on_c, 0, 81, 76
6, 72584, Note_on_c, 0, 81, 0
6, 72600, Note_on_c, 0, 79, 76
6, 72704, Note_on_c, 0, 79, 0
6, 72720, Note_on_c, 0, 77, 76
6, 72944, Note_on_c, 0, 77, 0
6, 72960, Note_on_c, 0, 76, 76
6, 73064, Note_on_c, 0, 76, 0
6, 73080, Note_on_c, 0, 74, 76
6, 73184, Note_on_c, 0, 74, 0
6, 73200, Note_on_c, 0, 76, 76
6, 73544, Note_on_c, 0, 76, 0
6, 73560, Note_on_c, 0, 77, 76
6, 73664, Note_on_c, 0, 77, 0
6, 73680, Note_on_c, 0, 79, 76
6, 74024, Note_on_c, 0, 79, 0
6, 74040, Note_on_c, 0, 77, 76
6, 74144, Note_on_c, 0, 77, 0
6, 74160, Note_on_c, 0, 76, 76
6, 74264, Note_on_c, 0, 76, 0
6, 74280, Note_on_c, 0, 74, 76
6, 74384, Note_on_c, 0, 74, 0
6, 74400, Note_on_c, 0, 76, 76
6, 74504, Note_on_c, 0, 76, 0
6, 74520, Note_on_c, 0, 72, 76
6, 74624, Note_on_c, 0, 72, 0
6, 74640, Note_on_c, 0, 74, 76
6, 74984, Note_on_c, 0, 74, 0
6, 75000, Note_on_c, 0, 76, 76
6, 75104, Note_on_c, 0, 76, 0
6, 75120, Note_on_c, 0, 77, 76
6, 75464, Note_on_c, 0, 77, 0
6, 75480, Note_on_c, 0, 76, 76
6, 75584, Note_on_c, 0, 76, 0
6, 75600, Note_on_c, 0, 74, 76
6, 75719, Note_on_c, 0, 74, 0
6, 75720, Note_on_c, 0, 72, 76
6, 75839, Note_on_c, 0, 72, 0
6, 75840, Note_on_c, 0, 71, 76
6, 75959, Note_on_c, 0, 71, 0
6, 75960, Note_on_c, 0, 72, 76
6, 76079, Note_on_c, 0, 72, 0
6, 76080, Note_on_c, 0, 74, 76
6, 76199, Note_on_c, 0, 74, 0
6, 76200, Note_on_c, 0, 71, 76
6, 76319, Note_on_c, 0, 71, 0
6, 76320, Note_on_c, 0, 72, 76
6, 76439, Note_on_c, 0, 72, 0
6, 76440, Note_on_c, 0, 74, 76
6, 76544, Note_on_c, 0, 74, 0
6, 76560, Note_on_c, 0, 67, 76
6, 76904, Note_on_c, 0, 67, 0
6, 76920, Note_on_c, 0, 69, 76
6, 77024, Note_on_c, 0, 69, 0
6, 77040, Note_on_c, 0, 71, 76
6, 77144, Note_on_c, 0, 71, 0
6, 77160, Note_on_c, 0, 72, 76
6, 77264, Note_on_c, 0, 72, 0
6, 77280, Note_on_c, 0, 74, 76
6, 77384, Note_on_c, 0, 74, 0
6, 77400, Note_on_c, 0, 76, 76
6, 77504, Note_on_c, 0, 76, 0
6, 77520, Note_on_c, 0, 77, 76
6, 77624, Note_on_c, 0, 77, 0
6, 77640, Note_on_c, 0, 74, 76
6, 77744, Note_on_c, 0, 74, 0
6, 77760, Note_on_c, 0, 79, 76
6, 77984, Note_on_c, 0, 79, 0
6, 78000, Note_on_c, 0, 76, 76
6, 78344, Note_on_c, 0, 76, 0
6, 78360, Note_on_c, 0, 74, 76
6, 78464, Note_on_c, 0, 74, 0
6, 78480, Note_on_c, 0, 72, 76
6, 78584, Note_on_c, 0, 72, 0
6, 78600, Note_on_c, 0, 71, 76
6, 78704, Note_on_c, 0, 71, 0
6, 78720, Note_on_c, 0, 72, 76
6, 78824, Note_on_c, 0, 72, 0
6, 78840, Note_on_c, 0, 69, 76
6, 78944, Note_on_c, 0, 69, 0
6, 78960, Note_on_c, 0, 71, 76
6, 78989, Note_on_c, 0, 71, 0
6, 78990, Note_on_c, 0, 72, 76
6, 79019, Note_on_c, 0, 72, 0
6, 79020, Note_on_c, 0, 71, 76
6, 79049, Note_on_c, 0, 71, 0
6, 79050, Note_on_c, 0, 72, 76
6, 79079, Note_on_c, 0, 72, 0
6, 79080, Note_on_c, 0, 71, 76
6, 79109, Note_on_c, 0, 71, 0
6, 79110, Note_on_c, 0, 72, 76
6, 79139, Note_on_c, 0, 72, 0
6, 79140, Note_on_c, 0, 71, 76
6, 79169, Note_on_c, 0, 71, 0
6, 79170, Note_on_c, 0, 72, 76
6, 79199, Note_on_c, 0, 72, 0
6, 79200, Note_on_c, 0, 71, 76
6, 79229, Note_on_c, 0, 71, 0
6, 79230, Note_on_c, 0, 72, 76
6, 79259, Note_on_c, 0, 72, 0
6, 79260, Note_on_c, 0, 69, 76
6, 79289, Note_on_c, 0, 69, 0
6, 79290, Note_on_c, 0, 71, 76
6, 79319, Note_on_c, 0, 71, 0
6, 79320, Note_on_c, 0, 72, 76
6, 79424, Note_on_c, 0, 72, 0
6, 79440, Note_on_c, 0, 72, 76
6, 80639, Note_on_c, 0, 72, 0
6, 80639, End_track
7, 0, Start_track
7, 0, Title_t, "Oboe II"
7, 0, MIDI_port, 0
7, 0, Program_c, 1, 68
7, 0, Control_c, 1, 10, 65
7, 0, Control_c, 1, 11, 127
7, 0, Control_c, 1, 7, 80
7, 120, Note_on_c, 1, 72, 76
7, 224, Note_on_c, 1, 72, 0
7, 240, Note_on_c, 1, 72, 76
7, 344, Note_on_c, 1, 72, 0
7, 360, Note_on_c, 1, 71, 76
7, 464, Note_on_c, 1, 71, 0
7, 480, Note_on_c, 1, 72, 76
7, 584, Note_on_c, 1, 72, 0
7, 600, Note_on_c, 1, 74, 76
7, 704, Note_on_c, 1, 74, 0
7, 720, Note_on_c, 1, 76, 76
7, 1064, Note_on_c, 1, 76, 0
7, 1080, Note_on_c, 1, 77, 76
7, 1184, Note_on_c, 1, 77, 0
7, 1200, Note_on_c, 1, 74, 76
7, 1544, Note_on_c, 1, 74, 0
7, 1560, Note_on_c, 1, 72, 76
7, 1664, Note_on_c, 1, 72, 0
7, 1680, Note_on_c, 1, 79, 76
7, 2384, Note_on_c, 1, 79, 0
7, 2400, Note_on_c, 1, 77, 76
7, 2504, Note_on_c, 1, 77, 0
7, 2520, Note_on_c, 1, 76, 76
7, 2624, Note_on_c, 1, 76, 0
7, 2640, Note_on_c, 1, 77, 76
7, 2984, Note_on_c, 1, 77, 0
7, 3000, Note_on_c, 1, 79, 76
7, 3104, Note_on_c, 1, 79, 0
7, 3120, Note_on_c, 1, 81, 76
7, 3464, Note_on_c, 1, 81, 0
7, 3480, Note_on_c, 1, 79, 76
7, 3584, Note_on_c, 1, 79, 0
7, 3600, Note_on_c, 1, 77, 76
7, 3824, Note_on_c, 1, 77, 0
7, 3840, Note_on_c, 1, 76, 76
7, 3944, Note_on_c, 1, 76, 0
7, 3960, Note_on_c, 1, 74, 76
7, 4064, Note_on_c, 1, 74, 0
7, 4080, Note_on_c, 1, 76, 76
7, 4424, Note_on_c, 1, 76, 0
7, 4440, Note_on_c, 1, 77, 76
7, 4544, Note_on_c, 1, 77, 0
7, 4560, Note_on_c, 1, 72, 76
7, 4679, Note_on_c, 1, 72, 0
7, 4680, Note_on_c, 1, 71, 76
7, 4799, Note_on_c, 1, 71, 0
7, 4800, Note_on_c, 1, 69, 76
7, 4919, Note_on_c, 1, 69, 0
7, 4920, Note_on_c, 1, 67, 76
7, 5039, Note_on_c, 1, 67, 0
7, 5040, Note_on_c, 1, 69, 76
7, 5159, Note_on_c, 1, 69, 0
7, 5160, Note_on_c, 1, 71, 76
7, 5279, Note_on_c, 1, 71, 0
7, 5280, Note_on_c, 1, 72, 76
7, 5399, Note_on_c, 1, 72, 0
7, 5400, Note_on_c, 1, 74, 76
7, 5504, Note_on_c, 1, 74, 0
7, 5520, Note_on_c, 1, 74, 76
7, 5549, Note_on_c, 1, 74, 0
7, 5550, Note_on_c, 1, 76, 76
7, 5579, Note_on_c, 1, 76, 0
7, 5580, Note_on_c, 1, 74, 76
7, 5609, Note_on_c, 1, 74, 0
7, 5610, Note_on_c, 1, 76, 76
7, 5639, Note_on_c, 1, 76, 0
7, 5640, Note_on_c, 1, 74, 76
7, 5669, Note_on_c, 1, 74, 0
7, 5670, Note_on_c, 1, 76, 76
7, 5699, Note_on_c, 1, 76, 0
7, 5700, Note_on_c, 1, 74, 76
7, 5729, Note_on_c, 1, 74, 0
7, 5730, Note_on_c, 1, 76, 76
7, 5759, Note_on_c, 1, 76, 0
7, 5760, Note_on_c, 1, 74, 76
7, 5789, Note_on_c, 1, 74, 0
7, 5790, Note_on_c, 1, 76, 76
7, 5819, Note_on_c, 1, 76, 0
7, 5820, Note_on_c, 1, 74, 76
7, 5849, Note_on_c, 1, 74, 0
7, 5850, Note_on_c, 1, 76, 76
7, 5879, Note_on_c, 1, 76, 0
7, 5880, Note_on_c, 1, 72, 76
7, 5939, Note_on_c, 1, 72, 0
7, 5940, Note_on_c, 1, 74, 76
7, 5999, Note_on_c, 1, 74, 0
7, 6000, Note_on_c, 1, 76, 76
7, 6344, Note_on_c, 1, 76, 0
7, 6360, Note_on_c, 1, 74, 76
7, 6464, Note_on_c, 1, 74, 0
7, 6480, Note_on_c, 1, 72, 76
7, 6704, Note_on_c, 1, 72, 0
7, 6720, Note_on_c, 1, 71, 76
7, 6824, Note_on_c, 1, 71, 0
7, 6840, Note_on_c, 1, 69, 76
7, 6944, Note_on_c, 1, 69, 0
7, 6960, Note_on_c, 1, 71, 76
7, 7304, Note_on_c, 1, 71, 0
7, 7320, Note_on_c, 1, 72, 76
7, 7424, Note_on_c, 1, 72, 0
7, 7440, Note_on_c, 1, 74, 76
7, 7784, Note_on_c, 1, 74, 0
7, 7800, Note_on_c, 1, 76, 76
7, 7904, Note_on_c, 1, 76, 0
7, 7920, Note_on_c, 1, 78, 76
7, 8144, Note_on_c, 1, 78, 0
7, 8160, Note_on_c, 1, 79, 76
7, 8384, Note_on_c, 1, 79, 0
7, 8400, Note_on_c, 1, 69, 76
7, 8744, Note_on_c, 1, 69, 0
7, 8760, Note_on_c, 1, 71, 76
7, 8864, Note_on_c, 1, 71, 0
7, 8880, Note_on_c, 1, 72, 76
7, 9224, Note_on_c, 1, 72, 0
7, 9240, Note_on_c, 1, 74, 76
7, 9344, Note_on_c, 1, 74, 0
7, 9360, Note_on_c, 1, 72, 76
7, 9479, Note_on_c, 1, 72, 0
7, 9480, Note_on_c, 1, 71, 76
7, 9599, Note_on_c, 1, 71, 0
7, 9600, Note_on_c, 1, 69, 76
7, 9719, Note_on_c, 1, 69, 0
7, 9720, Note_on_c, 1, 67, 76
7, 9824, Note_on_c, 1, 67, 0
7, 9840, Note_on_c, 1, 66, 76
7, 10184, Note_on_c, 1, 66, 0
7, 10200, Note_on_c, 1, 67, 76
7, 10304, Note_on_c, 1, 67, 0
7, 10320, Note_on_c, 1, 67, 76
7, 11519, Note_on_c, 1, 67, 0
7, 11640, Note_on_c, 1, 72, 76
7, 11744, Note_on_c, 1, 72, 0
7, 11760, Note_on_c, 1, 72, 76
7, 11864, Note_on_c, 1, 72, 0
7, 11880, Note_on_c, 1, 71, 76
7, 11984, Note_on_c, 1, 71, 0
7, 12000, Note_on_c, 1, 72, 76
7, 12104, Note_on_c, 1, 72, 0
7, 12120, Note_on_c, 1, 74, 76
7, 12224, Note_on_c, 1, 74, 0
7, 12240, Note_on_c, 1, 76, 76
7, 12584, Note_on_c, 1, 76, 0
7, 12600, Note_on_c, 1, 77, 76
7, 12704, Note_on_c, 1, 77, 0
7, 12720, Note_on_c, 1, 74, 76
7, 13064, Note_on_c, 1, 74, 0
7, 13080, Note_on_c, 1, 72, 76
7, 13184, Note_on_c, 1, 72, 0
7, 13200, Note_on_c, 1, 79, 76
7, 13904, Note_on_c, 1, 79, 0
7, 13920, Note_on_c, 1, 77, 76
7, 14024, Note_on_c, 1, 77, 0
7, 14040, Note_on_c, 1, 76, 76
7, 14144, Note_on_c, 1, 76, 0
7, 14160, Note_on_c, 1, 77, 76
7, 14504, Note_on_c, 1, 77, 0
7, 14520, Note_on_c, 1, 79, 76
7, 14624, Note_on_c, 1, 79, 0
7, 14640, Note_on_c, 1, 81, 76
7, 14984, Note_on_c, 1, 81, 0
7, 15000, Note_on_c, 1, 79, 76
7, 15104, Note_on_c, 1, 79, 0
7, 15120, Note_on_c, 1, 77, 76
7, 15344, Note_on_c, 1, 77, 0
7, 15360, Note_on_c, 1, 76, 76
7, 15464, Note_on_c, 1, 76, 0
7, 15480, Note_on_c, 1, 74, 76
7, 15584, Note_on_c, 1, 74, 0
7, 15600, Note_on_c, 1, 76, 76
7, 15944, Note_on_c, 1, 76, 0
7, 15960, Note_on_c, 1, 77, 76
7, 16064, Note_on_c, 1, 77, 0
7, 16080, Note_on_c, 1, 72, 76
7, 16199, Note_on_c, 1, 72, 0
7, 16200, Note_on_c, 1, 71, 76
7, 16319, Note_on_c, 1, 71, 0
7, 16320, Note_on_c, 1, 69, 76
7, 16439, Note_on_c, 1, 69, 0
7, 16440, Note_on_c, 1, 67, 76
7, 16559, Note_on_c, 1, 67, 0
7, 16560, Note_on_c, 1, 69, 76
7, 16679, Note_on_c, 1, 69, 0
7, 16680, Note_on_c, 1, 71, 76
7, 16799, Note_on_c, 1, 71, 0
7, 16800, Note_on_c, 1, 72, 76
7, 16919, Note_on_c, 1, 72, 0
7, 16920, Note_on_c, 1, 74, 76
7, 17024, Note_on_c, 1, 74, 0
7, 17040, Note_on_c, 1, 74, 76
7, 17069, Note_on_c, 1, 74, 0
7, 17070, Note_on_c, 1, 76, 76
7, 17099, Note_on_c, 1, 76, 0
7, 17100, Note_on_c, 1, 74, 76
7, 17129, Note_on_c, 1, 74, 0
7, 17130, Note_on_c, 1, 76, 76
7, 17159, Note_on_c, 1, 76, 0
7, 17160, Note_on_c, 1, 74, 76
7, 17189, Note_on_c, 1, 74, 0
7, 17190, Note_on_c, 1, 76, 76
7, 17219, Note_on_c, 1, 76, 0
7, 17220, Note_on_c, 1, 74, 76
7, 17249, Note_on_c, 1, 74, 0
7, 17250, Note_on_c, 1, 76, 76
7, 17279, Note_on_c, 1, 76, 0
7, 17280, Note_on_c, 1, 74, 76
7, 17309, Note_on_c, 1, 74, 0
7, 17310, Note_on_c, 1, 76, 76
7, 17339, Note_on_c, 1, 76, 0
7, 17340, Note_on_c, 1, 74, 76
7, 17369, Note_on_c, 1, 74, 0
7, 17370, Note_on_c, 1, 76, 76
7, 17399, Note_on_c, 1, 76, 0
7, 17400, Note_on_c, 1, 72, 76
7, 17459, Note_on_c, 1, 72, 0
7, 17460, Note_on_c, 1, 74, 76
7, 17519, Note_on_c, 1, 74, 0
7, 17520, Note_on_c, 1, 76, 76
7, 17864, Note_on_c, 1, 76, 0
7, 17880, Note_on_c, 1, 74, 76
7, 17984, Note_on_c, 1, 74, 0
7, 18000, Note_on_c, 1, 72, 76
7, 18224, Note_on_c, 1, 72, 0
7, 18240, Note_on_c, 1, 71, 76
7, 18344, Note_on_c, 1, 71, 0
7, 18360, Note_on_c, 1, 69, 76
7, 18464, Note_on_c, 1, 69, 0
7, 18480, Note_on_c, 1, 71, 76
7, 18824, Note_on_c, 1, 71, 0
7, 18840, Note_on_c, 1, 72, 76
7, 18944, Note_on_c, 1, 72, 0
7, 18960, Note_on_c, 1, 74, 76
7, 19304, Note_on_c, 1, 74, 0
7, 19320, Note_on_c, 1, 76, 76
7, 19424, Note_on_c, 1, 76, 0
7, 19440, Note_on_c, 1, 78, 76
7, 19664, Note_on_c, 1, 78, 0
7, 19680, Note_on_c, 1, 79, 76
7, 19904, Note_on_c, 1, 79, 0
7, 19920, Note_on_c, 1, 69, 76
7, 20264, Note_on_c, 1, 69, 0
7, 20280, Note_on_c, 1, 71, 76
7, 20384, Note_on_c, 1, 71, 0
7, 20400, Note_on_c, 1, 72, 76
7, 20744, Note_on_c, 1, 72, 0
7, 20760, Note_on_c, 1, 74, 76
7, 20864, Note_on_c, 1, 74, 0
7, 20880, Note_on_c, 1, 72, 76
7, 20999, Note_on_c, 1, 72, 0
7, 21000, Note_on_c, 1, 71, 76
7, 21119, Note_on_c, 1, 71, 0
7, 21120, Note_on_c, 1, 69, 76
7, 21239, Note_on_c, 1, 69, 0
7, 21240, Note_on_c, 1, 67, 76
7, 21344, Note_on_c, 1, 67, 0
7, 21360, Note_on_c, 1, 66, 76
7, 21704, Note_on_c, 1, 66, 0
7, 21720, Note_on_c, 1, 67, 76
7, 21824, Note_on_c, 1, 67, 0
7, 21840, Note_on_c, 1, 67, 76
7, 23039, Note_on_c, 1, 67, 0
7, 23160, Note_on_c, 1, 74, 76
7, 23264, Note_on_c, 1, 74, 0
7, 23280, Note_on_c, 1, 74, 76
7, 23384, Note_on_c, 1, 74, 0
7, 23400, Note_on_c, 1, 72, 76
7, 23504, Note_on_c, 1, 72, 0
7, 23520, Note_on_c, 1, 74, 76
7, 23624, Note_on_c, 1, 74, 0
7, 23640, Note_on_c, 1, 76, 76
7, 23744, Note_on_c, 1, 76, 0
7, 23760, Note_on_c, 1, 77, 76
7, 24104, Note_on_c, 1, 77, 0
7, 24120, Note_on_c, 1, 79, 76
7, 24224, Note_on_c, 1, 79, 0
7, 24240, Note_on_c, 1, 76, 76
7, 24269, Note_on_c, 1, 76, 0
7, 24270, Note_on_c, 1, 77, 76
7, 24299, Note_on_c, 1, 77, 0
7, 24300, Note_on_c, 1, 76, 76
7, 24329, Note_on_c, 1, 76, 0
7, 24330, Note_on_c, 1, 77, 76
7, 24359, Note_on_c, 1, 77, 0
7, 24360, Note_on_c, 1, 76, 76
7, 24389, Note_on_c, 1, 76, 0
7, 24390, Note_on_c, 1, 77, 76
7, 24419, Note_on_c, 1, 77, 0
7, 24420, Note_on_c, 1, 76, 76
7, 24449, Note_on_c, 1, 76, 0
7, 24450, Note_on_c, 1, 77, 76
7, 24479, Note_on_c, 1, 77, 0
7, 24480, Note_on_c, 1, 76, 76
7, 24509, Note_on_c, 1, 76, 0
7, 24510, Note_on_c, 1, 77, 76
7, 24539, Note_on_c, 1, 77, 0
7, 24540, Note_on_c, 1, 74, 76
7, 24569, Note_on_c, 1, 74, 0
7, 24570, Note_on_c, 1, 76, 76
7, 24599, Note_on_c, 1, 76, 0
7, 24600, Note_on_c, 1, 74, 76
7, 24704, Note_on_c, 1, 74, 0
7, 24720, Note_on_c, 1, 81, 76
7, 25424, Note_on_c, 1, 81, 0
7, 25440, Note_on_c, 1, 79, 76
7, 25544, Note_on_c, 1, 79, 0
7, 25560, Note_on_c, 1, 77, 76
7, 25664, Note_on_c, 1, 77, 0
7, 25680, Note_on_c, 1, 79, 76
7, 26024, Note_on_c, 1, 79, 0
7, 26040, Note_on_c, 1, 81, 76
7, 26144, Note_on_c, 1, 81, 0
7, 26160, Note_on_c, 1, 82, 76
7, 26504, Note_on_c, 1, 82, 0
7, 26520, Note_on_c, 1, 81, 76
7, 26624, Note_on_c, 1, 81, 0
7, 26640, Note_on_c, 1, 79, 76
7, 26864, Note_on_c, 1, 79, 0
7, 26880, Note_on_c, 1, 77, 76
7, 26984, Note_on_c, 1, 77, 0
7, 27000, Note_on_c, 1, 76, 76
7, 27104, Note_on_c, 1, 76, 0
7, 27120, Note_on_c, 1, 77, 76
7, 27464, Note_on_c, 1, 77, 0
7, 27480, Note_on_c, 1, 79, 76
7, 27584, Note_on_c, 1, 79, 0
7, 27600, Note_on_c, 1, 74, 76
7, 27719, Note_on_c, 1, 74, 0
7, 27720, Note_on_c, 1, 73, 76
7, 27839, Note_on_c, 1, 73, 0
7, 27840, Note_on_c, 1, 71, 76
7, 27959, Note_on_c, 1, 71, 0
7, 27960, Note_on_c, 1, 69, 76
7, 28064, Note_on_c, 1, 69, 0
7, 28080, Note_on_c, 1, 71, 76
7, 28199, Note_on_c, 1, 71, 0
7, 28200, Note_on_c, 1, 73, 76
7, 28319, Note_on_c, 1, 73, 0
7, 28320, Note_on_c, 1, 74, 76
7, 28439, Note_on_c, 1, 74, 0
7, 28440, Note_on_c, 1, 76, 76
7, 28544, Note_on_c, 1, 76, 0
7, 28560, Note_on_c, 1, 76, 76
7, 28589, Note_on_c, 1, 76, 0
7, 28590, Note_on_c, 1, 77, 76
7, 28619, Note_on_c, 1, 77, 0
7, 28620, Note_on_c, 1, 76, 76
7, 28649, Note_on_c, 1, 76, 0
7, 28650, Note_on_c, 1, 77, 76
7, 28679, Note_on_c, 1, 77, 0
7, 28680, Note_on_c, 1, 76, 76
7, 28709, Note_on_c, 1, 76, 0
7, 28710, Note_on_c, 1, 77, 76
7, 28739, Note_on_c, 1, 77, 0
7, 28740, Note_on_c, 1, 76, 76
7, 28769, Note_on_c, 1, 76, 0
7, 28770, Note_on_c, 1, 77, 76
7, 28799, Note_on_c, 1, 77, 0
7, 28800, Note_on_c, 1, 76, 76
7, 28829, Note_on_c, 1, 76, 0
7, 28830, Note_on_c, 1, 77, 76
7, 28859, Note_on_c, 1, 77, 0
7, 28860, Note_on_c, 1, 76, 76
7, 28889, Note_on_c, 1, 76, 0
7, 28890, Note_on_c, 1, 77, 76
7, 28919, Note_on_c, 1, 77, 0
7, 28920, Note_on_c, 1, 74, 76
7, 28964, Note_on_c, 1, 74, 0
7, 28980, Note_on_c, 1, 76, 76
7, 29024, Note_on_c, 1, 76, 0
7, 29040, Note_on_c, 1, 77, 76
7, 29384, Note_on_c, 1, 77, 0
7, 29400, Note_on_c, 1, 76, 76
7, 29504, Note_on_c, 1, 76, 0
7, 29520, Note_on_c, 1, 74, 76
7, 29744, Note_on_c, 1, 74, 0
7, 29760, Note_on_c, 1, 72, 76
7, 29864, Note_on_c, 1, 72, 0
7, 29880, Note_on_c, 1, 71, 76
7, 29984, Note_on_c, 1, 71, 0
7, 30000, Note_on_c, 1, 72, 76
7, 30344, Note_on_c, 1, 72, 0
7, 30360, Note_on_c, 1, 74, 76
7, 30464, Note_on_c, 1, 74, 0
7, 30480, Note_on_c, 1, 76, 76
7, 30824, Note_on_c, 1, 76, 0
7, 30840, Note_on_c, 1, 78, 76
7, 30944, Note_on_c, 1, 78, 0
7, 30960, Note_on_c, 1, 80, 76
7, 31184, Note_on_c, 1, 80, 0
7, 31200, Note_on_c, 1, 81, 76
7, 31424, Note_on_c, 1, 81, 0
7, 31440, Note_on_c, 1, 71, 76
7, 31784, Note_on_c, 1, 71, 0
7, 31800, Note_on_c, 1, 72, 76
7, 31904, Note_on_c, 1, 72, 0
7, 31920, Note_on_c, 1, 74, 76
7, 32264, Note_on_c, 1, 74, 0
7, 32280, Note_on_c, 1, 76, 76
7, 32384, Note_on_c, 1, 76, 0
7, 32400, Note_on_c, 1, 72, 76
7, 32744, Note_on_c, 1, 72, 0
7, 32760, Note_on_c, 1, 71, 76
7, 32864, Note_on_c, 1, 71, 0
7, 32880, Note_on_c, 1, 71, 76
7, 32909, Note_on_c, 1, 71, 0
7, 32910, Note_on_c, 1, 72, 76
7, 32939, Note_on_c, 1, 72, 0
7, 32940, Note_on_c, 1, 71, 76
7, 32969, Note_on_c, 1, 71, 0
7, 32970, Note_on_c, 1, 72, 76
7, 32999, Note_on_c, 1, 72, 0
7, 33000, Note_on_c, 1, 71, 76
7, 33029, Note_on_c, 1, 71, 0
7, 33030, Note_on_c, 1, 72, 76
7, 33059, Note_on_c, 1, 72, 0
7, 33060, Note_on_c, 1, 71, 76
7, 33089, Note_on_c, 1, 71, 0
7, 33090, Note_on_c, 1, 72, 76
7, 33119, Note_on_c, 1, 72, 0
7, 33120, Note_on_c, 1, 71, 76
7, 33149, Note_on_c, 1, 71, 0
7, 33150, Note_on_c, 1, 72, 76
7, 33179, Note_on_c, 1, 72, 0
7, 33180, Note_on_c, 1, 69, 76
7, 33209, Note_on_c, 1, 69, 0
7, 33210, Note_on_c, 1, 71, 76
7, 33239, Note_on_c, 1, 71, 0
7, 33240, Note_on_c, 1, 69, 76
7, 33344, Note_on_c, 1, 69, 0
7, 33360, Note_on_c, 1, 69, 76
7, 33944, Note_on_c, 1, 69, 0
7, 33960, Note_on_c, 1, 71, 76
7, 34064, Note_on_c, 1, 71, 0
7, 34080, Note_on_c, 1, 72, 76
7, 34184, Note_on_c, 1, 72, 0
7, 34200, Note_on_c, 1, 74, 76
7, 34304, Note_on_c, 1, 74, 0
7, 34320, Note_on_c, 1, 76, 76
7, 34424, Note_on_c, 1, 76, 0
7, 34440, Note_on_c, 1, 77, 76
7, 34544, Note_on_c, 1, 77, 0
7, 34560, Note_on_c, 1, 77, 76
7, 34589, Note_on_c, 1, 77, 0
7, 34590, Note_on_c, 1, 79, 76
7, 34619, Note_on_c, 1, 79, 0
7, 34620, Note_on_c, 1, 77, 76
7, 34649, Note_on_c, 1, 77, 0
7, 34650, Note_on_c, 1, 79, 76
7, 34679, Note_on_c, 1, 79, 0
7, 34680, Note_on_c, 1, 77, 76
7, 34709, Note_on_c, 1, 77, 0
7, 34710, Note_on_c, 1, 79, 76
7, 34739, Note_on_c, 1, 79, 0
7, 34740, Note_on_c, 1, 76, 76
7, 34769, Note_on_c, 1, 76, 0
7, 34770, Note_on_c, 1, 77, 76
7, 34799, Note_on_c, 1, 77, 0
7, 34800, Note_on_c, 1, 79, 76
7, 35144, Note_on_c, 1, 79, 0
7, 35160, Note_on_c, 1, 77, 76
7, 35264, Note_on_c, 1, 77, 0
7, 35280, Note_on_c, 1, 76, 76
7, 35504, Note_on_c, 1, 76, 0
7, 35520, Note_on_c, 1, 74, 76
7, 35624, Note_on_c, 1, 74, 0
7, 35640, Note_on_c, 1, 72, 76
7, 35744, Note_on_c, 1, 72, 0
7, 35760, Note_on_c, 1, 70, 76
7, 35864, Note_on_c, 1, 70, 0
7, 35880, Note_on_c, 1, 69, 76
7, 35984, Note_on_c, 1, 69, 0
7, 36000, Note_on_c, 1, 70, 76
7, 36104, Note_on_c, 1, 70, 0
7, 36120, Note_on_c, 1, 67, 76
7, 36224, Note_on_c, 1, 67, 0
7, 36240, Note_on_c, 1, 69, 76
7, 36584, Note_on_c, 1, 69, 0
7, 36600, Note_on_c, 1, 67, 76
7, 36704, Note_on_c, 1, 67, 0
7, 36720, Note_on_c, 1, 65, 76
7, 36944, Note_on_c, 1, 65, 0
7, 36960, Note_on_c, 1, 69, 76
7, 37184, Note_on_c, 1, 69, 0
7, 37200, Note_on_c, 1, 74, 76
7, 37544, Note_on_c, 1, 74, 0
7, 37560, Note_on_c, 1, 76, 76
7, 37664, Note_on_c, 1, 76, 0
7, 37680, Note_on_c, 1, 77, 76
7, 38024, Note_on_c, 1, 77, 0
7, 38040, Note_on_c, 1, 79, 76
7, 38159, Note_on_c, 1, 79, 0
7, 38160, Note_on_c, 1, 81, 76
7, 38279, Note_on_c, 1, 81, 0
7, 38280, Note_on_c, 1, 79, 76
7, 38399, Note_on_c, 1, 79, 0
7, 38400, Note_on_c, 1, 77, 76
7, 38519, Note_on_c, 1, 77, 0
7, 38520, Note_on_c, 1, 76, 76
7, 38639, Note_on_c, 1, 76, 0
7, 38640, Note_on_c, 1, 74, 76
7, 38759, Note_on_c, 1, 74, 0
7, 38760, Note_on_c, 1, 72, 76
7, 38879, Note_on_c, 1, 72, 0
7, 38880, Note_on_c, 1, 71, 76
7, 38999, Note_on_c, 1, 71, 0
7, 39000, Note_on_c, 1, 72, 76
7, 39104, Note_on_c, 1, 72, 0
7, 39120, Note_on_c, 1, 71, 76
7, 39149, Note_on_c, 1, 71, 0
7, 39150, Note_on_c, 1, 72, 76
7, 39179, Note_on_c, 1, 72, 0
7, 39180, Note_on_c, 1, 71, 76
7, 39209, Note_on_c, 1, 71, 0
7, 39210, Note_on_c, 1, 72, 76
7, 39239, Note_on_c, 1, 72, 0
7, 39240, Note_on_c, 1, 71, 76
7, 39269, Note_on_c, 1, 71, 0
7, 39270, Note_on_c, 1, 72, 76
7, 39299, Note_on_c, 1, 72, 0
7, 39300, Note_on_c, 1, 71, 76
7, 39329, Note_on_c, 1, 71, 0
7, 39330, Note_on_c, 1, 72, 76
7, 39359, Note_on_c, 1, 72, 0
7, 39360, Note_on_c, 1, 71, 76
7, 39389, Note_on_c, 1, 71, 0
7, 39390, Note_on_c, 1, 72, 76
7, 39419, Note_on_c, 1, 72, 0
7, 39420, Note_on_c, 1, 69, 76
7, 39449, Note_on_c, 1, 69, 0
7, 39450, Note_on_c, 1, 71, 76
7, 39479, Note_on_c, 1, 71, 0
7, 39480, Note_on_c, 1, 72, 76
7, 39584, Note_on_c, 1, 72, 0
7, 39600, Note_on_c, 1, 74, 76
7, 39824, Note_on_c, 1, 74, 0
7, 39840, Note_on_c, 1, 72, 76
7, 39944, Note_on_c, 1, 72, 0
7, 39960, Note_on_c, 1, 71, 76
7, 40064, Note_on_c, 1, 71, 0
7, 40080, Note_on_c, 1, 69, 76
7, 40184, Note_on_c, 1, 69, 0
7, 40200, Note_on_c, 1, 67, 76
7, 40304, Note_on_c, 1, 67, 0
7, 40320, Note_on_c, 1, 69, 76
7, 40424, Note_on_c, 1, 69, 0
7, 40440, Note_on_c, 1, 71, 76
7, 40544, Note_on_c, 1, 71, 0
7, 40560, Note_on_c, 1, 72, 76
7, 40664, Note_on_c, 1, 72, 0
7, 40680, Note_on_c, 1, 71, 76
7, 40784, Note_on_c, 1, 71, 0
7, 40800, Note_on_c, 1, 72, 76
7, 40904, Note_on_c, 1, 72, 0
7, 40920, Note_on_c, 1, 74, 76
7, 41024, Note_on_c, 1, 74, 0
7, 41040, Note_on_c, 1, 76, 76
7, 41384, Note_on_c, 1, 76, 0
7, 41400, Note_on_c, 1, 77, 76
7, 41504, Note_on_c, 1, 77, 0
7, 41520, Note_on_c, 1, 74, 76
7, 41549, Note_on_c, 1, 74, 0
7, 41550, Note_on_c, 1, 76, 76
7, 41579, Note_on_c, 1, 76, 0
7, 41580, Note_on_c, 1, 74, 76
7, 41609, Note_on_c, 1, 74, 0
7, 41610, Note_on_c, 1, 76, 76
7, 41639, Note_on_c, 1, 76, 0
7, 41640, Note_on_c, 1, 74, 76
7, 41669, Note_on_c, 1, 74, 0
7, 41670, Note_on_c, 1, 76, 76
7, 41699, Note_on_c, 1, 76, 0
7, 41700, Note_on_c, 1, 74, 76
7, 41729, Note_on_c, 1, 74, 0
7, 41730, Note_on_c, 1, 76, 76
7, 41759, Note_on_c, 1, 76, 0
7, 41760, Note_on_c, 1, 74, 76
7, 41789, Note_on_c, 1, 74, 0
7, 41790, Note_on_c, 1, 76, 76
7, 41819, Note_on_c, 1, 76, 0
7, 41820, Note_on_c, 1, 72, 76
7, 41849, Note_on_c, 1, 72, 0
7, 41850, Note_on_c, 1, 74, 76
7, 41879, Note_on_c, 1, 74, 0
7, 41880, Note_on_c, 1, 72, 76
7, 41984, Note_on_c, 1, 72, 0
7, 42000, Note_on_c, 1, 79, 76
7, 42704, Note_on_c, 1, 79, 0
7, 42720, Note_on_c, 1, 77, 76
7, 42824, Note_on_c, 1, 77, 0
7, 42840, Note_on_c, 1, 76, 76
7, 42944, Note_on_c, 1, 76, 0
7, 42960, Note_on_c, 1, 77, 76
7, 43304, Note_on_c, 1, 77, 0
7, 43320, Note_on_c, 1, 79, 76
7, 43424, Note_on_c, 1, 79, 0
7, 43440, Note_on_c, 1, 81, 76
7, 43784, Note_on_c, 1, 81, 0
7, 43800, Note_on_c, 1, 79, 76
7, 43904, Note_on_c, 1, 79, 0
7, 43920, Note_on_c, 1, 77, 76
7, 44144, Note_on_c, 1, 77, 0
7, 44160, Note_on_c, 1, 76, 76
7, 44264, Note_on_c, 1, 76, 0
7, 44280, Note_on_c, 1, 74, 76
7, 44384, Note_on_c, 1, 74, 0
7, 44400, Note_on_c, 1, 76, 76
7, 44744, Note_on_c, 1, 76, 0
7, 44760, Note_on_c, 1, 77, 76
7, 44864, Note_on_c, 1, 77, 0
7, 44880, Note_on_c, 1, 79, 76
7, 45224, Note_on_c, 1, 79, 0
7, 45240, Note_on_c, 1, 77, 76
7, 45344, Note_on_c, 1, 77, 0
7, 45360, Note_on_c, 1, 76, 76
7, 45464, Note_on_c, 1, 76, 0
7, 45480, Note_on_c, 1, 74, 76
7, 45584, Note_on_c, 1, 74, 0
7, 45600, Note_on_c, 1, 76, 76
7, 45704, Note_on_c, 1, 76, 0
7, 45720, Note_on_c, 1, 72, 76
7, 45824, Note_on_c, 1, 72, 0
7, 45840, Note_on_c, 1, 74, 76
7, 46184, Note_on_c, 1, 74, 0
7, 46200, Note_on_c, 1, 76, 76
7, 46304, Note_on_c, 1, 76, 0
7, 46320, Note_on_c, 1, 77, 76
7, 46664, Note_on_c, 1, 77, 0
7, 46680, Note_on_c, 1, 76, 76
7, 46784, Note_on_c, 1, 76, 0
7, 46800, Note_on_c, 1, 74, 76
7, 46919, Note_on_c, 1, 74, 0
7, 46920, Note_on_c, 1, 72, 76
7, 47039, Note_on_c, 1, 72, 0
7, 47040, Note_on_c, 1, 71, 76
7, 47159, Note_on_c, 1, 71, 0
7, 47160, Note_on_c, 1, 72, 76
7, 47279, Note_on_c, 1, 72, 0
7, 47280, Note_on_c, 1, 74, 76
7, 47399, Note_on_c, 1, 74, 0
7, 47400, Note_on_c, 1, 71, 76
7, 47519, Note_on_c, 1, 71, 0
7, 47520, Note_on_c, 1, 72, 76
7, 47639, Note_on_c, 1, 72, 0
7, 47640, Note_on_c, 1, 74, 76
7, 47744, Note_on_c, 1, 74, 0
7, 47760, Note_on_c, 1, 67, 76
7, 48104, Note_on_c, 1, 67, 0
7, 48120, Note_on_c, 1, 69, 76
7, 48224, Note_on_c, 1, 69, 0
7, 48240, Note_on_c, 1, 71, 76
7, 48344, Note_on_c, 1, 71, 0
7, 48360, Note_on_c, 1, 72, 76
7, 48464, Note_on_c, 1, 72, 0
7, 48480, Note_on_c, 1, 74, 76
7, 48584, Note_on_c, 1, 74, 0
7, 48600, Note_on_c, 1, 76, 76
7, 48704, Note_on_c, 1, 76, 0
7, 48720, Note_on_c, 1, 77, 76
7, 48824, Note_on_c, 1, 77, 0
7, 48840, Note_on_c, 1, 74, 76
7, 48944, Note_on_c, 1, 74, 0
7, 48960, Note_on_c, 1, 79, 76
7, 49184, Note_on_c, 1, 79, 0
7, 49200, Note_on_c, 1, 76, 76
7, 49544, Note_on_c, 1, 76, 0
7, 49560, Note_on_c, 1, 74, 76
7, 49664, Note_on_c, 1, 74, 0
7, 49680, Note_on_c, 1, 72, 76
7, 49784, Note_on_c, 1, 72, 0
7, 49800, Note_on_c, 1, 71, 76
7, 49904, Note_on_c, 1, 71, 0
7, 49920, Note_on_c, 1, 72, 76
7, 50024, Note_on_c, 1, 72, 0
7, 50040, Note_on_c, 1, 69, 76
7, 50144, Note_on_c, 1, 69, 0
7, 50160, Note_on_c, 1, 71, 76
7, 50189, Note_on_c, 1, 71, 0
7, 50190, Note_on_c, 1, 72, 76
7, 50219, Note_on_c, 1, 72, 0
7, 50220, Note_on_c, 1, 71, 76
7, 50249, Note_on_c, 1, 71, 0
7, 50250, Note_on_c, 1, 72, 76
7, 50279, Note_on_c, 1, 72, 0
7, 50280, Note_on_c, 1, 71, 76
7, 50309, Note_on_c, 1, 71, 0
7, 50310, Note_on_c, 1, 72, 76
7, 50339, Note_on_c, 1, 72, 0
7, 50340, Note_on_c, 1, 71, 76
7, 50369, Note_on_c, 1, 71, 0
7, 50370, Note_on_c, 1, 72, 76
7, 50399, Note_on_c, 1, 72, 0
7, 50400, Note_on_c, 1, 71, 76
7, 50429, Note_on_c, 1, 71, 0
7, 50430, Note_on_c, 1, 72, 76
7, 50459, Note_on_c, 1, 72, 0
7, 50460, Note_on_c, 1, 69, 76
7, 50489, Note_on_c, 1, 69, 0
7, 50490, Note_on_c, 1, 71, 76
7, 50519, Note_on_c, 1, 71, 0
7, 50520, Note_on_c, 1, 72, 76
7, 50624, Note_on_c, 1, 72, 0
7, 50640, Note_on_c, 1, 72, 76
7, 51839, Note_on_c, 1, 72, 0
7, 51960, Note_on_c, 1, 74, 76
7, 52064, Note_on_c, 1, 74, 0
7, 52080, Note_on_c, 1, 74, 76
7, 52184, Note_on_c, 1, 74, 0
7, 52200, Note_on_c, 1, 72, 76
7, 52304, Note_on_c, 1, 72, 0
7, 52320, Note_on_c, 1, 74, 76
7, 52424, Note_on_c, 1, 74, 0
7, 52440, Note_on_c, 1, 76, 76
7, 52544, Note_on_c, 1, 76, 0
7, 52560, Note_on_c, 1, 77, 76
7, 52904, Note_on_c, 1, 77, 0
7, 52920, Note_on_c, 1, 79, 76
7, 53024, Note_on_c, 1, 79, 0
7, 53040, Note_on_c, 1, 76, 76
7, 53069, Note_on_c, 1, 76, 0
7, 53070, Note_on_c, 1, 77, 76
7, 53099, Note_on_c, 1, 77, 0
7, 53100, Note_on_c, 1, 76, 76
7, 53129, Note_on_c, 1, 76, 0
7, 53130, Note_on_c, 1, 77, 76
7, 53159, Note_on_c, 1, 77, 0
7, 53160, Note_on_c, 1, 76, 76
7, 53189, Note_on_c, 1, 76, 0
7, 53190, Note_on_c, 1, 77, 76
7, 53219, Note_on_c, 1, 77, 0
7, 53220, Note_on_c, 1, 76, 76
7, 53249, Note_on_c, 1, 76, 0
7, 53250, Note_on_c, 1, 77, 76
7, 53279, Note_on_c, 1, 77, 0
7, 53280, Note_on_c, 1, 76, 76
7, 53309, Note_on_c, 1, 76, 0
7, 53310, Note_on_c, 1, 77, 76
7, 53339, Note_on_c, 1, 77, 0
7, 53340, Note_on_c, 1, 74, 76
7, 53369, Note_on_c, 1, 74, 0
7, 53370, Note_on_c, 1, 76, 76
7, 53399, Note_on_c, 1, 76, 0
7, 53400, Note_on_c, 1, 74, 76
7, 53504, Note_on_c, 1, 74, 0
7, 53520, Note_on_c, 1, 81, 76
7, 54224, Note_on_c, 1, 81, 0
7, 54240, Note_on_c, 1, 79, 76
7, 54344, Note_on_c, 1, 79, 0
7, 54360, Note_on_c, 1, 77, 76
7, 54464, Note_on_c, 1, 77, 0
7, 54480, Note_on_c, 1, 79, 76
7, 54824, Note_on_c, 1, 79, 0
7, 54840, Note_on_c, 1, 81, 76
7, 54944, Note_on_c, 1, 81, 0
7, 54960, Note_on_c, 1, 82, 76
7, 55304, Note_on_c, 1, 82, 0
7, 55320, Note_on_c, 1, 81, 76
7, 55424, Note_on_c, 1, 81, 0
7, 55440, Note_on_c, 1, 79, 76
7, 55664, Note_on_c, 1, 79, 0
7, 55680, Note_on_c, 1, 77, 76
7, 55784, Note_on_c, 1, 77, 0
7, 55800, Note_on_c, 1, 76, 76
7, 55904, Note_on_c, 1, 76, 0
7, 55920, Note_on_c, 1, 77, 76
7, 56264, Note_on_c, 1, 77, 0
7, 56280, Note_on_c, 1, 79, 76
7, 56384, Note_on_c, 1, 79, 0
7, 56400, Note_on_c, 1, 74, 76
7, 56519, Note_on_c, 1, 74, 0
7, 56520, Note_on_c, 1, 73, 76
7, 56639, Note_on_c, 1, 73, 0
7, 56640, Note_on_c, 1, 71, 76
7, 56759, Note_on_c, 1, 71, 0
7, 56760, Note_on_c, 1, 69, 76
7, 56864, Note_on_c, 1, 69, 0
7, 56880, Note_on_c, 1, 71, 76
7, 56999, Note_on_c, 1, 71, 0
7, 57000, Note_on_c, 1, 73, 76
7, 57119, Note_on_c, 1, 73, 0
7, 57120, Note_on_c, 1, 74, 76
7, 57239, Note_on_c, 1, 74, 0
7, 57240, Note_on_c, 1, 76, 76
7, 57344, Note_on_c, 1, 76, 0
7, 57360, Note_on_c, 1, 76, 76
7, 57389, Note_on_c, 1, 76, 0
7, 57390, Note_on_c, 1, 77, 76
7, 57419, Note_on_c, 1, 77, 0
7, 57420, Note_on_c, 1, 76, 76
7, 57449, Note_on_c, 1, 76, 0
7, 57450, Note_on_c, 1, 77, 76
7, 57479, Note_on_c, 1, 77, 0
7, 57480, Note_on_c, 1, 76, 76
7, 57509, Note_on_c, 1, 76, 0
7, 57510, Note_on_c, 1, 77, 76
7, 57539, Note_on_c, 1, 77, 0
7, 57540, Note_on_c, 1, 76, 76
7, 57569, Note_on_c, 1, 76, 0
7, 57570, Note_on_c, 1, 77, 76
7, 57599, Note_on_c, 1, 77, 0
7, 57600, Note_on_c, 1, 76, 76
7, 57629, Note_on_c, 1, 76, 0
7, 57630, Note_on_c, 1, 77, 76
7, 57659, Note_on_c, 1, 77, 0
7, 57660, Note_on_c, 1, 76, 76
7, 57689, Note_on_c, 1, 76, 0
7, 57690, Note_on_c, 1, 77, 76
7, 57719, Note_on_c, 1, 77, 0
7, 57720, Note_on_c, 1, 74, 76
7, 57764, Note_on_c, 1, 74, 0
7, 57780, Note_on_c, 1, 76, 76
7, 57824, Note_on_c, 1, 76, 0
7, 57840, Note_on_c, 1, 77, 76
7, 58184, Note_on_c, 1, 77, 0
7, 58200, Note_on_c, 1, 76, 76
7, 58304, Note_on_c, 1, 76, 0
7, 58320, Note_on_c, 1, 74, 76
7, 58544, Note_on_c, 1, 74, 0
7, 58560, Note_on_c, 1, 72, 76
7, 58664, Note_on_c, 1, 72, 0
7, 58680, Note_on_c, 1, 71, 76
7, 58784, Note_on_c, 1, 71, 0
7, 58800, Note_on_c, 1, 72, 76
7, 59144, Note_on_c, 1, 72, 0
7, 59160, Note_on_c, 1, 74, 76
7, 59264, Note_on_c, 1, 74, 0
7, 59280, Note_on_c, 1, 76, 76
7, 59624, Note_on_c, 1, 76, 0
7, 59640, Note_on_c, 1, 78, 76
7, 59744, Note_on_c, 1, 78, 0
7, 59760, Note_on_c, 1, 80, 76
7, 59984, Note_on_c, 1, 80, 0
7, 60000, Note_on_c, 1, 81, 76
7, 60224, Note_on_c, 1, 81, 0
7, 60240, Note_on_c, 1, 71, 76
7, 60584, Note_on_c, 1, 71, 0
7, 60600, Note_on_c, 1, 72, 76
7, 60704, Note_on_c, 1, 72, 0
7, 60720, Note_on_c, 1, 74, 76
7, 61064, Note_on_c, 1, 74, 0
7, 61080, Note_on_c, 1, 76, 76
7, 61184, Note_on_c, 1, 76, 0
7, 61200, Note_on_c, 1, 72, 76
7, 61544, Note_on_c, 1, 72, 0
7, 61560, Note_on_c, 1, 71, 76
7, 61664, Note_on_c, 1, 71, 0
7, 61680, Note_on_c, 1, 71, 76
7, 61709, Note_on_c, 1, 71, 0
7, 61710, Note_on_c, 1, 72, 76
7, 61739, Note_on_c, 1, 72, 0
7, 61740, Note_on_c, 1, 71, 76
7, 61769, Note_on_c, 1, 71, 0
7, 61770, Note_on_c, 1, 72, 76
7, 61799, Note_on_c, 1, 72, 0
7, 61800, Note_on_c, 1, 71, 76
7, 61829, Note_on_c, 1, 71, 0
7, 61830, Note_on_c, 1, 72, 76
7, 61859, Note_on_c, 1, 72, 0
7, 61860, Note_on_c, 1, 71, 76
7, 61889, Note_on_c, 1, 71, 0
7, 61890, Note_on_c, 1, 72, 76
7, 61919, Note_on_c, 1, 72, 0
7, 61920, Note_on_c, 1, 71, 76
7, 61949, Note_on_c, 1, 71, 0
7, 61950, Note_on_c, 1, 72, 76
7, 61979, Note_on_c, 1, 72, 0
7, 61980, Note_on_c, 1, 69, 76
7, 62009, Note_on_c, 1, 69, 0
7, 62010, Note_on_c, 1, 71, 76
7, 62039, Note_on_c, 1, 71, 0
7, 62040, Note_on_c, 1, 69, 76
7, 62144, Note_on_c, 1, 69, 0
7, 62160, Note_on_c, 1, 69, 76
7, 62744, Note_on_c, 1, 69, 0
7, 62760, Note_on_c, 1, 71, 76
7, 62864, Note_on_c, 1, 71, 0
7, 62880, Note_on_c, 1, 72, 76
7, 62984, Note_on_c, 1, 72, 0
7, 63000, Note_on_c, 1, 74, 76
7, 63104, Note_on_c, 1, 74, 0
7, 63120, Note_on_c, 1, 76, 76
7, 63224, Note_on_c, 1, 76, 0
7, 63240, Note_on_c, 1, 77, 76
7, 63344, Note_on_c, 1, 77, 0
7, 63360, Note_on_c, 1, 77, 76
7, 63389, Note_on_c, 1, 77, 0
7, 63390, Note_on_c, 1, 79, 76
7, 63419, Note_on_c, 1, 79, 0
7, 63420, Note_on_c, 1, 77, 76
7, 63449, Note_on_c, 1, 77, 0
7, 63450, Note_on_c, 1, 79, 76
7, 63479, Note_on_c, 1, 79, 0
7, 63480, Note_on_c, 1, 77, 76
7, 63509, Note_on_c, 1, 77, 0
7, 63510, Note_on_c, 1, 79, 76
7, 63539, Note_on_c, 1, 79, 0
7, 63540, Note_on_c, 1, 76, 76
7, 63569, Note_on_c, 1, 76, 0
7, 63570, Note_on_c, 1, 77, 76
7, 63599, Note_on_c, 1, 77, 0
7, 63600, Note_on_c, 1, 79, 76
7, 63944, Note_on_c, 1, 79, 0
7, 63960, Note_on_c, 1, 77, 76
7, 64064, Note_on_c, 1, 77, 0
7, 64080, Note_on_c, 1, 76, 76
7, 64304, Note_on_c, 1, 76, 0
7, 64320, Note_on_c, 1, 74, 76
7, 64424, Note_on_c, 1, 74, 0
7, 64440, Note_on_c, 1, 72, 76
7, 64544, Note_on_c, 1, 72, 0
7, 64560, Note_on_c, 1, 70, 76
7, 64664, Note_on_c, 1, 70, 0
7, 64680, Note_on_c, 1, 69, 76
7, 64784, Note_on_c, 1, 69, 0
7, 64800, Note_on_c, 1, 70, 76
7, 64904, Note_on_c, 1, 70, 0
7, 64920, Note_on_c, 1, 67, 76
7, 65024, Note_on_c, 1, 67, 0
7, 65040, Note_on_c, 1, 69, 76
7, 65384, Note_on_c, 1, 69, 0
7, 65400, Note_on_c, 1, 67, 76
7, 65504, Note_on_c, 1, 67, 0
7, 65520, Note_on_c, 1, 65, 76
7, 65744, Note_on_c, 1, 65, 0
7, 65760, Note_on_c, 1, 69, 76
7, 65984, Note_on_c, 1, 69, 0
7, 66000, Note_on_c, 1, 74, 76
7, 66344, Note_on_c, 1, 74, 0
7, 66360, Note_on_c, 1, 76, 76
7, 66464, Note_on_c, 1, 76, 0
7, 66480, Note_on_c, 1, 77, 76
7, 66824, Note_on_c, 1, 77, 0
7, 66840, Note_on_c, 1, 79, 76
7, 66959, Note_on_c, 1, 79, 0
7, 66960, Note_on_c, 1, 81, 76
7, 67079, Note_on_c, 1, 81, 0
7, 67080, Note_on_c, 1, 79, 76
7, 67199, Note_on_c, 1, 79, 0
7, 67200, Note_on_c, 1, 77, 76
7, 67319, Note_on_c, 1, 77, 0
7, 67320, Note_on_c, 1, 76, 76
7, 67439, Note_on_c, 1, 76, 0
7, 67440, Note_on_c, 1, 74, 76
7, 67559, Note_on_c, 1, 74, 0
7, 67560, Note_on_c, 1, 72, 76
7, 67679, Note_on_c, 1, 72, 0
7, 67680, Note_on_c, 1, 71, 76
7, 67799, Note_on_c, 1, 71, 0
7, 67800, Note_on_c, 1, 72, 76
7, 67904, Note_on_c, 1, 72, 0
7, 67920, Note_on_c, 1, 71, 76
7, 67949, Note_on_c, 1, 71, 0
7, 67950, Note_on_c, 1, 72, 76
7, 67979, Note_on_c, 1, 72, 0
7, 67980, Note_on_c, 1, 71, 76
7, 68009, Note_on_c, 1, 71, 0
7, 68010, Note_on_c, 1, 72, 76
7, 68039, Note_on_c, 1, 72, 0
7, 68040, Note_on_c, 1, 71, 76
7, 68069, Note_on_c, 1, 71, 0
7, 68070, Note_on_c, 1, 72, 76
7, 68099, Note_on_c, 1, 72, 0
7, 68100, Note_on_c, 1, 71, 76
7, 68129, Note_on_c, 1, 71, 0
7, 68130, Note_on_c, 1, 72, 76
7, 68159, Note_on_c, 1, 72, 0
7, 68160, Note_on_c, 1, 71, 76
7, 68189, Note_on_c, 1, 71, 0
7, 68190, Note_on_c, 1, 72, 76
7, 68219, Note_on_c, 1, 72, 0
7, 68220, Note_on_c, 1, 69, 76
7, 68249, Note_on_c, 1, 69, 0
7, 68250, Note_on_c, 1, 71, 76
7, 68279, Note_on_c, 1, 71, 0
7, 68280, Note_on_c, 1, 72, 76
7, 68384, Note_on_c, 1, 72, 0
7, 68400, Note_on_c, 1, 74, 76
7, 68624, Note_on_c, 1, 74, 0
7, 68640, Note_on_c, 1, 72, 76
7, 68744, Note_on_c, 1, 72, 0
7, 68760, Note_on_c, 1, 71, 76
7, 68864, Note_on_c, 1, 71, 0
7, 68880, Note_on_c, 1, 69, 76
7, 68984, Note_on_c, 1, 69, 0
7, 69000, Note_on_c, 1, 67, 76
7, 69104, Note_on_c, 1, 67, 0
7, 69120, Note_on_c, 1, 69, 76
7, 69224, Note_on_c, 1, 69, 0
7, 69240, Note_on_c, 1, 71, 76
7, 69344, Note_on_c, 1, 71, 0
7, 69360, Note_on_c, 1, 72, 76
7, 69464, Note_on_c, 1, 72, 0
7, 69480, Note_on_c, 1, 71, 76
7, 69584, Note_on_c, 1, 71, 0
7, 69600, Note_on_c, 1, 72, 76
7, 69704, Note_on_c, 1, 72, 0
7, 69720, Note_on_c, 1, 74, 76
7, 69824, Note_on_c, 1, 74, 0
7, 69840, Note_on_c, 1, 76, 76
7, 70184, Note_on_c, 1, 76, 0
7, 70200, Note_on_c, 1, 77, 76
7, 70304, Note_on_c, 1, 77, 0
7, 70320, Note_on_c, 1, 74, 76
7, 70349, Note_on_c, 1, 74, 0
7, 70350, Note_on_c, 1, 76, 76
7, 70379, Note_on_c, 1, 76, 0
7, 70380, Note_on_c, 1, 74, 76
7, 70409, Note_on_c, 1, 74, 0
7, 70410, Note_on_c, 1, 76, 76
7, 70439, Note_on_c, 1, 76, 0
7, 70440, Note_on_c, 1, 74, 76
7, 70469, Note_on_c, 1, 74, 0
7, 70470, Note_on_c, 1, 76, 76
7, 70499, Note_on_c, 1, 76, 0
7, 70500, Note_on_c, 1, 74, 76
7, 70529, Note_on_c, 1, 74, 0
7, 70530, Note_on_c, 1, 76, 76
7, 70559, Note_on_c, 1, 76, 0
7, 70560, Note_on_c, 1, 74, 76
7, 70589, Note_on_c, 1, 74, 0
7, 70590, Note_on_c, 1, 76, 76
7, 70619, Note_on_c, 1, 76, 0
7, 70620, Note_on_c, 1, 72, 76
7, 70649, Note_on_c, 1, 72, 0
7, 70650, Note_on_c, 1, 74, 76
7, 70679, Note_on_c, 1, 74, 0
7, 70680, Note_on_c, 1, 72, 76
7, 70784, Note_on_c, 1, 72, 0
7, 70800, Note_on_c, 1, 79, 76
7, 71504, Note_on_c, 1, 79, 0
7, 71520, Note_on_c, 1, 77, 76
7, 71624, Note_on_c, 1, 77, 0
7, 71640, Note_on_c, 1, 76, 76
7, 71744, Note_on_c, 1, 76, 0
7, 71760, Note_on_c, 1, 77, 76
7, 72104, Note_on_c, 1, 77, 0
7, 72120, Note_on_c, 1, 79, 76
7, 72224, Note_on_c, 1, 79, 0
7, 72240, Note_on_c, 1, 81, 76
7, 72584, Note_on_c, 1, 81, 0
7, 72600, Note_on_c, 1, 79, 76
7, 72704, Note_on_c, 1, 79, 0
7, 72720, Note_on_c, 1, 77, 76
7, 72944, Note_on_c, 1, 77, 0
7, 72960, Note_on_c, 1, 76, 76
7, 73064, Note_on_c, 1, 76, 0
7, 73080, Note_on_c, 1, 74, 76
7, 73184, Note_on_c, 1, 74, 0
7, 73200, Note_on_c, 1, 76, 76
7, 73544, Note_on_c, 1, 76, 0
7, 73560, Note_on_c, 1, 77, 76
7, 73664, Note_on_c, 1, 77, 0
7, 73680, Note_on_c, 1, 79, 76
7, 74024, Note_on_c, 1, 79, 0
7, 74040, Note_on_c, 1, 77, 76
7, 74144, Note_on_c, 1, 77, 0
7, 74160, Note_on_c, 1, 76, 76
7, 74264, Note_on_c, 1, 76, 0
7, 74280, Note_on_c, 1, 74, 76
7, 74384, Note_on_c, 1, 74, 0
7, 74400, Note_on_c, 1, 76, 76
7, 74504, Note_on_c, 1, 76, 0
7, 74520, Note_on_c, 1, 72, 76
7, 74624, Note_on_c, 1, 72, 0
7, 74640, Note_on_c, 1, 74, 76
7, 74984, Note_on_c, 1, 74, 0
7, 75000, Note_on_c, 1, 76, 76
7, 75104, Note_on_c, 1, 76, 0
7, 75120, Note_on_c, 1, 77, 76
7, 75464, Note_on_c, 1, 77, 0
7, 75480, Note_on_c, 1, 76, 76
7, 75584, Note_on_c, 1, 76, 0
7, 75600, Note_on_c, 1, 74, 76
7, 75719, Note_on_c, 1, 74, 0
7, 75720, Note_on_c, 1, 72, 76
7, 75839, Note_on_c, 1, 72, 0
7, 75840, Note_on_c, 1, 71, 76
7, 75959, Note_on_c, 1, 71, 0
7, 75960, Note_on_c, 1, 72, 76
7, 76079, Note_on_c, 1, 72, 0
7, 76080, Note_on_c, 1, 74, 76
7, 76199, Note_on_c, 1, 74, 0
7, 76200, Note_on_c, 1, 71, 76
7, 76319, Note_on_c, 1, 71, 0
7, 76320, Note_on_c, 1, 72, 76
7, 76439, Note_on_c, 1, 72, 0
7, 76440, Note_on_c, 1, 74, 76
7, 76544, Note_on_c, 1, 74, 0
7, 76560, Note_on_c, 1, 67, 76
7, 76904, Note_on_c, 1, 67, 0
7, 76920, Note_on_c, 1, 69, 76
7, 77024, Note_on_c, 1, 69, 0
7, 77040, Note_on_c, 1, 71, 76
7, 77144, Note_on_c, 1, 71, 0
7, 77160, Note_on_c, 1, 72, 76
7, 77264, Note_on_c, 1, 72, 0
7, 77280, Note_on_c, 1, 74, 76
7, 77384, Note_on_c, 1, 74, 0
7, 77400, Note_on_c, 1, 76, 76
7, 77504, Note_on_c, 1, 76, 0
7, 77520, Note_on_c, 1, 77, 76
7, 77624, Note_on_c, 1, 77, 0
7, 77640, Note_on_c, 1, 74, 76
7, 77744, Note_on_c, 1, 74, 0
7, 77760, Note_on_c, 1, 79, 76
7, 77984, Note_on_c, 1, 79, 0
7, 78000, Note_on_c, 1, 76, 76
7, 78344, Note_on_c, 1, 76, 0
7, 78360, Note_on_c, 1, 74, 76
7, 78464, Note_on_c, 1, 74, 0
7, 78480, Note_on_c, 1, 72, 76
7, 78584, Note_on_c, 1, 72, 0
7, 78600, Note_on_c, 1, 71, 76
7, 78704, Note_on_c, 1, 71, 0
7, 78720, Note_on_c, 1, 72, 76
7, 78824, Note_on_c, 1, 72, 0
7, 78840, Note_on_c, 1, 69, 76
7, 78944, Note_on_c, 1, 69, 0
7, 78960, Note_on_c, 1, 71, 76
7, 78989, Note_on_c, 1, 71, 0
7, 78990, Note_on_c, 1, 72, 76
7, 79019, Note_on_c, 1, 72, 0
7, 79020, Note_on_c, 1, 71, 76
7, 79049, Note_on_c, 1, 71, 0
7, 79050, Note_on_c, 1, 72, 76
7, 79079, Note_on_c, 1, 72, 0
7, 79080, Note_on_c, 1, 71, 76
7, 79109, Note_on_c, 1, 71, 0
7, 79110, Note_on_c, 1, 72, 76
7, 79139, Note_on_c, 1, 72, 0
7, 79140, Note_on_c, 1, 71, 76
7, 79169, Note_on_c, 1, 71, 0
7, 79170, Note_on_c, 1, 72, 76
7, 79199, Note_on_c, 1, 72, 0
7, 79200, Note_on_c, 1, 71, 76
7, 79229, Note_on_c, 1, 71, 0
7, 79230, Note_on_c, 1, 72, 76
7, 79259, Note_on_c, 1, 72, 0
7, 79260, Note_on_c, 1, 69, 76
7, 79289, Note_on_c, 1, 69, 0
7, 79290, Note_on_c, 1, 71, 76
7, 79319, Note_on_c, 1, 71, 0
7, 79320, Note_on_c, 1, 72, 76
7, 79424, Note_on_c, 1, 72, 0
7, 79440, Note_on_c, 1, 72, 76
7, 80639, Note_on_c, 1, 72, 0
7, 80639, End_track
8, 0, Start_track
8, 0, Title_t, "Bassoon"
8, 0, MIDI_port, 0
8, 0, Program_c, 2, 70
8, 0, Control_c, 2, 10, 75
8, 0, Control_c, 2, 11, 127
8, 0, Control_c, 2, 7, 96
8, 120, Note_on_c, 2, 48, 76
8, 224, Note_on_c, 2, 48, 0
8, 240, Note_on_c, 2, 48, 76
8, 944, Note_on_c, 2, 48, 0
8, 960, Note_on_c, 2, 60, 76
8, 1184, Note_on_c, 2, 60, 0
8, 1200, Note_on_c, 2, 55, 76
8, 1424, Note_on_c, 2, 55, 0
8, 1440, Note_on_c, 2, 57, 76
8, 1664, Note_on_c, 2, 57, 0
8, 1680, Note_on_c, 2, 52, 76
8, 1784, Note_on_c, 2, 52, 0
8, 1800, Note_on_c, 2, 53, 76
8, 1904, Note_on_c, 2, 53, 0
8, 1920, Note_on_c, 2, 52, 76
8, 2024, Note_on_c, 2, 52, 0
8, 2040, Note_on_c, 2, 50, 76
8, 2144, Note_on_c, 2, 50, 0
8, 2160, Note_on_c, 2, 48, 76
8, 2384, Note_on_c, 2, 48, 0
8, 2400, Note_on_c, 2, 58, 76
8, 2624, Note_on_c, 2, 58, 0
8, 2640, Note_on_c, 2, 57, 76
8, 2864, Note_on_c, 2, 57, 0
8, 2880, Note_on_c, 2, 55, 76
8, 3104, Note_on_c, 2, 55, 0
8, 3120, Note_on_c, 2, 53, 76
8, 3344, Note_on_c, 2, 53, 0
8, 3360, Note_on_c, 2, 52, 76
8, 3584, Note_on_c, 2, 52, 0
8, 3600, Note_on_c, 2, 50, 76
8, 3824, Note_on_c, 2, 50, 0
8, 3840, Note_on_c, 2, 47, 76
8, 4064, Note_on_c, 2, 47, 0
8, 4080, Note_on_c, 2, 48, 76
8, 4304, Note_on_c, 2, 48, 0
8, 4320, Note_on_c, 2, 41, 76
8, 4544, Note_on_c, 2, 41, 0
8, 4560, Note_on_c, 2, 43, 76
8, 4784, Note_on_c, 2, 43, 0
8, 4800, Note_on_c, 2, 55, 76
8, 5024, Note_on_c, 2, 55, 0
8, 5040, Note_on_c, 2, 53, 76
8, 5264, Note_on_c, 2, 53, 0
8, 5280, Note_on_c, 2, 52, 76
8, 5504, Note_on_c, 2, 52, 0
8, 5520, Note_on_c, 2, 53, 76
8, 5744, Note_on_c, 2, 53, 0
8, 5760, Note_on_c, 2, 55, 76
8, 5984, Note_on_c, 2, 55, 0
8, 6000, Note_on_c, 2, 48, 76
8, 6224, Note_on_c, 2, 48, 0
8, 6240, Note_on_c, 2, 52, 76
8, 6464, Note_on_c, 2, 52, 0
8, 6480, Note_on_c, 2, 45, 76
8, 6704, Note_on_c, 2, 45, 0
8, 6720, Note_on_c, 2, 50, 76
8, 6824, Note_on_c, 2, 50, 0
8, 6840, Note_on_c, 2, 52, 76
8, 6944, Note_on_c, 2, 52, 0
8, 6960, Note_on_c, 2, 50, 76
8, 7064, Note_on_c, 2, 50, 0
8, 7080, Note_on_c, 2, 48, 76
8, 7184, Note_on_c, 2, 48, 0
8, 7200, Note_on_c, 2, 47, 76
8, 7304, Note_on_c, 2, 47, 0
8, 7320, Note_on_c, 2, 45, 76
8, 7424, Note_on_c, 2, 45, 0
8, 7440, Note_on_c, 2, 47, 76
8, 7664, Note_on_c, 2, 47, 0
8, 7680, Note_on_c, 2, 48, 76
8, 7904, Note_on_c, 2, 48, 0
8, 7920, Note_on_c, 2, 45, 76
8, 8144, Note_on_c, 2, 45, 0
8, 8160, Note_on_c, 2, 43, 76
8, 8384, Note_on_c, 2, 43, 0
8, 8400, Note_on_c, 2, 42, 76
8, 8624, Note_on_c, 2, 42, 0
8, 8640, Note_on_c, 2, 43, 76
8, 8864, Note_on_c, 2, 43, 0
8, 8880, Note_on_c, 2, 40, 76
8, 9104, Note_on_c, 2, 40, 0
8, 9120, Note_on_c, 2, 42, 76
8, 9344, Note_on_c, 2, 42, 0
8, 9360, Note_on_c, 2, 43, 76
8, 9584, Note_on_c, 2, 43, 0
8, 9600, Note_on_c, 2, 48, 76
8, 9824, Note_on_c, 2, 48, 0
8, 9840, Note_on_c, 2, 50, 76
8, 10064, Note_on_c, 2, 50, 0
8, 10080, Note_on_c, 2, 38, 76
8, 10304, Note_on_c, 2, 38, 0
8, 10320, Note_on_c, 2, 43, 76
8, 11519, Note_on_c, 2, 43, 0
8, 11640, Note_on_c, 2, 48, 76
8, 11744, Note_on_c, 2, 48, 0
8, 11760, Note_on_c, 2, 48, 76
8, 12464, Note_on_c, 2, 48, 0
8, 12480, Note_on_c, 2, 60, 76
8, 12704, Note_on_c, 2, 60, 0
8, 12720, Note_on_c, 2, 55, 76
8, 12944, Note_on_c, 2, 55, 0
8, 12960, Note_on_c, 2, 57, 76
8, 13184, Note_on_c, 2, 57, 0
8, 13200, Note_on_c, 2, 52, 76
8, 13304, Note_on_c, 2, 52, 0
8, 13320, Note_on_c, 2, 53, 76
8, 13424, Note_on_c, 2, 53, 0
8, 13440, Note_on_c, 2, 52, 76
8, 13544, Note_on_c, 2, 52, 0
8, 13560, Note_on_c, 2, 50, 76
8, 13664, Note_on_c, 2, 50, 0
8, 13680, Note_on_c, 2, 48, 76
8, 13904, Note_on_c, 2, 48, 0
8, 13920, Note_on_c, 2, 58, 76
8, 14144, Note_on_c, 2, 58, 0
8, 14160, Note_on_c, 2, 57, 76
8, 14384, Note_on_c, 2, 57, 0
8, 14400, Note_on_c, 2, 55, 76
8, 14624, Note_on_c, 2, 55, 0
8, 14640, Note_on_c, 2, 53, 76
8, 14864, Note_on_c, 2, 53, 0
8, 14880, Note_on_c, 2, 52, 76
8, 15104, Note_on_c, 2, 52, 0
8, 15120, Note_on_c, 2, 50, 76
8, 15344, Note_on_c, 2, 50, 0
8, 15360, Note_on_c, 2, 47, 76
8, 15584, Note_on_c, 2, 47, 0
8, 15600, Note_on_c, 2, 48, 76
8, 15824, Note_on_c, 2, 48, 0
8, 15840, Note_on_c, 2, 41, 76
8, 16064, Note_on_c, 2, 41, 0
8, 16080, Note_on_c, 2, 43, 76
8, 16304, Note_on_c, 2, 43, 0
8, 16320, Note_on_c, 2, 55, 76
8, 16544, Note_on_c, 2, 55, 0
8, 16560, Note_on_c, 2, 53, 76
8, 16784, Note_on_c, 2, 53, 0
8, 16800, Note_on_c, 2, 52, 76
8, 17024, Note_on_c, 2, 52, 0
8, 17040, Note_on_c, 2, 53, 76
8, 17264, Note_on_c, 2, 53, 0
8, 17280, Note_on_c, 2, 55, 76
8, 17504, Note_on_c, 2, 55, 0
8, 17520, Note_on_c, 2, 48, 76
8, 17744, Note_on_c, 2, 48, 0
8, 17760, Note_on_c, 2, 52, 76
8, 17984, Note_on_c, 2, 52, 0
8, 18000, Note_on_c, 2, 45, 76
8, 18224, Note_on_c, 2, 45, 0
8, 18240, Note_on_c, 2, 50, 76
8, 18344, Note_on_c, 2, 50, 0
8, 18360, Note_on_c, 2, 52, 76
8, 18464, Note_on_c, 2, 52, 0
8, 18480, Note_on_c, 2, 50, 76
8, 18584, Note_on_c, 2, 50, 0
8, 18600, Note_on_c, 2, 48, 76
8, 18704, Note_on_c, 2, 48, 0
8, 18720, Note_on_c, 2, 47, 76
8, 18824, Note_on_c, 2, 47, 0
8, 18840, Note_on_c, 2, 45, 76
8, 18944, Note_on_c, 2, 45, 0
8, 18960, Note_on_c, 2, 47, 76
8, 19184, Note_on_c, 2, 47, 0
8, 19200, Note_on_c, 2, 48, 76
8, 19424, Note_on_c, 2, 48, 0
8, 19440, Note_on_c, 2, 45, 76
8, 19664, Note_on_c, 2, 45, 0
8, 19680, Note_on_c, 2, 43, 76
8, 19904, Note_on_c, 2, 43, 0
8, 19920, Note_on_c, 2, 42, 76
8, 20144, Note_on_c, 2, 42, 0
8, 20160, Note_on_c, 2, 43, 76
8, 20384, Note_on_c, 2, 43, 0
8, 20400, Note_on_c, 2, 40, 76
8, 20624, Note_on_c, 2, 40, 0
8, 20640, Note_on_c, 2, 42, 76
8, 20864, Note_on_c, 2, 42, 0
8, 20880, Note_on_c, 2, 43, 76
8, 21104, Note_on_c, 2, 43, 0
8, 21120, Note_on_c, 2, 48, 76
8, 21344, Note_on_c, 2, 48, 0
8, 21360, Note_on_c, 2, 50, 76
8, 21584, Note_on_c, 2, 50, 0
8, 21600, Note_on_c, 2, 38, 76
8, 21824, Note_on_c, 2, 38, 0
8, 21840, Note_on_c, 2, 43, 76
8, 23039, Note_on_c, 2, 43, 0
8, 23160, Note_on_c, 2, 55, 76
8, 23264, Note_on_c, 2, 55, 0
8, 23280, Note_on_c, 2, 55, 76
8, 23504, Note_on_c, 2, 55, 0
8, 23520, Note_on_c, 2, 53, 76
8, 23624, Note_on_c, 2, 53, 0
8, 23640, Note_on_c, 2, 52, 76
8, 23744, Note_on_c, 2, 52, 0
8, 23760, Note_on_c, 2, 50, 76
8, 24344, Note_on_c, 2, 50, 0
8, 24360, Note_on_c, 2, 49, 76
8, 24464, Note_on_c, 2, 49, 0
8, 24480, Note_on_c, 2, 50, 76
8, 24584, Note_on_c, 2, 50, 0
8, 24600, Note_on_c, 2, 52, 76
8, 24704, Note_on_c, 2, 52, 0
8, 24720, Note_on_c, 2, 53, 76
8, 24824, Note_on_c, 2, 53, 0
8, 24840, Note_on_c, 2, 55, 76
8, 24944, Note_on_c, 2, 55, 0
8, 24960, Note_on_c, 2, 53, 76
8, 25064, Note_on_c, 2, 53, 0
8, 25080, Note_on_c, 2, 52, 76
8, 25184, Note_on_c, 2, 52, 0
8, 25200, Note_on_c, 2, 50, 76
8, 25424, Note_on_c, 2, 50, 0
8, 25440, Note_on_c, 2, 60, 76
8, 25664, Note_on_c, 2, 60, 0
8, 25680, Note_on_c, 2, 58, 76
8, 25904, Note_on_c, 2, 58, 0
8, 25920, Note_on_c, 2, 57, 76
8, 26144, Note_on_c, 2, 57, 0
8, 26160, Note_on_c, 2, 55, 76
8, 26264, Note_on_c, 2, 55, 0
8, 26280, Note_on_c, 2, 53, 76
8, 26384, Note_on_c, 2, 53, 0
8, 26400, Note_on_c, 2, 55, 76
8, 26504, Note_on_c, 2, 55, 0
8, 26520, Note_on_c, 2, 57, 76
8, 26624, Note_on_c, 2, 57, 0
8, 26640, Note_on_c, 2, 58, 76
8, 26864, Note_on_c, 2, 58, 0
8, 26880, Note_on_c, 2, 49, 76
8, 27104, Note_on_c, 2, 49, 0
8, 27120, Note_on_c, 2, 50, 76
8, 27344, Note_on_c, 2, 50, 0
8, 27360, Note_on_c, 2, 43, 76
8, 27584, Note_on_c, 2, 43, 0
8, 27600, Note_on_c, 2, 45, 76
8, 27824, Note_on_c, 2, 45, 0
8, 27840, Note_on_c, 2, 57, 76
8, 28064, Note_on_c, 2, 57, 0
8, 28080, Note_on_c, 2, 55, 76
8, 28304, Note_on_c, 2, 55, 0
8, 28320, Note_on_c, 2, 53, 76
8, 28544, Note_on_c, 2, 53, 0
8, 28560, Note_on_c, 2, 55, 76
8, 28784, Note_on_c, 2, 55, 0
8, 28800, Note_on_c, 2, 57, 76
8, 29024, Note_on_c, 2, 57, 0
8, 29040, Note_on_c, 2, 50, 76
8, 29264, Note_on_c, 2, 50, 0
8, 29280, Note_on_c, 2, 53, 76
8, 29504, Note_on_c, 2, 53, 0
8, 29520, Note_on_c, 2, 47, 76
8, 29744, Note_on_c, 2, 47, 0
8, 29760, Note_on_c, 2, 52, 76
8, 29864, Note_on_c, 2, 52, 0
8, 29880, Note_on_c, 2, 53, 76
8, 29984, Note_on_c, 2, 53, 0
8, 30000, Note_on_c, 2, 52, 76
8, 30104, Note_on_c, 2, 52, 0
8, 30120, Note_on_c, 2, 50, 76
8, 30224, Note_on_c, 2, 50, 0
8, 30240, Note_on_c, 2, 48, 76
8, 30344, Note_on_c, 2, 48, 0
8, 30360, Note_on_c, 2, 47, 76
8, 30464, Note_on_c, 2, 47, 0
8, 30480, Note_on_c, 2, 48, 76
8, 30704, Note_on_c, 2, 48, 0
8, 30720, Note_on_c, 2, 50, 76
8, 30944, Note_on_c, 2, 50, 0
8, 30960, Note_on_c, 2, 47, 76
8, 31184, Note_on_c, 2, 47, 0
8, 31200, Note_on_c, 2, 45, 76
8, 31424, Note_on_c, 2, 45, 0
8, 31440, Note_on_c, 2, 44, 76
8, 31664, Note_on_c, 2, 44, 0
8, 31680, Note_on_c, 2, 45, 76
8, 31904, Note_on_c, 2, 45, 0
8, 31920, Note_on_c, 2, 42, 76
8, 32144, Note_on_c, 2, 42, 0
8, 32160, Note_on_c, 2, 44, 76
8, 32384, Note_on_c, 2, 44, 0
8, 32400, Note_on_c, 2, 45, 76
8, 32624, Note_on_c, 2, 45, 0
8, 32640, Note_on_c, 2, 50, 76
8, 32864, Note_on_c, 2, 50, 0
8, 32880, Note_on_c, 2, 52, 76
8, 33104, Note_on_c, 2, 52, 0
8, 33120, Note_on_c, 2, 40, 76
8, 33344, Note_on_c, 2, 40, 0
8, 33360, Note_on_c, 2, 45, 76
8, 33464, Note_on_c, 2, 45, 0
8, 33480, Note_on_c, 2, 44, 76
8, 33584, Note_on_c, 2, 44, 0
8, 33600, Note_on_c, 2, 45, 76
8, 33704, Note_on_c, 2, 45, 0
8, 33720, Note_on_c, 2, 47, 76
8, 33824, Note_on_c, 2, 47, 0
8, 33840, Note_on_c, 2, 48, 76
8, 34064, Note_on_c, 2, 48, 0
8, 34080, Note_on_c, 2, 52, 76
8, 34304, Note_on_c, 2, 52, 0
8, 34320, Note_on_c, 2, 57, 76
8, 34544, Note_on_c, 2, 57, 0
8, 34560, Note_on_c, 2, 55, 76
8, 34664, Note_on_c, 2, 55, 0
8, 34680, Note_on_c, 2, 53, 76
8, 34784, Note_on_c, 2, 53, 0
8, 34800, Note_on_c, 2, 52, 76
8, 34904, Note_on_c, 2, 52, 0
8, 34920, Note_on_c, 2, 50, 76
8, 35024, Note_on_c, 2, 50, 0
8, 35040, Note_on_c, 2, 52, 76
8, 35144, Note_on_c, 2, 52, 0
8, 35160, Note_on_c, 2, 53, 76
8, 35264, Note_on_c, 2, 53, 0
8, 35280, Note_on_c, 2, 55, 76
8, 35504, Note_on_c, 2, 55, 0
8, 35520, Note_on_c, 2, 48, 76
8, 35744, Note_on_c, 2, 48, 0
8, 35760, Note_on_c, 2, 50, 76
8, 35984, Note_on_c, 2, 50, 0
8, 36000, Note_on_c, 2, 52, 76
8, 36224, Note_on_c, 2, 52, 0
8, 36240, Note_on_c, 2, 53, 76
8, 36344, Note_on_c, 2, 53, 0
8, 36360, Note_on_c, 2, 52, 76
8, 36464, Note_on_c, 2, 52, 0
8, 36480, Note_on_c, 2, 53, 76
8, 36584, Note_on_c, 2, 53, 0
8, 36600, Note_on_c, 2, 55, 76
8, 36704, Note_on_c, 2, 55, 0
8, 36720, Note_on_c, 2, 57, 76
8, 36824, Note_on_c, 2, 57, 0
8, 36840, Note_on_c, 2, 58, 76
8, 36944, Note_on_c, 2, 58, 0
8, 36960, Note_on_c, 2, 57, 76
8, 37064, Note_on_c, 2, 57, 0
8, 37080, Note_on_c, 2, 55, 76
8, 37184, Note_on_c, 2, 55, 0
8, 37200, Note_on_c, 2, 53, 76
8, 37304, Note_on_c, 2, 53, 0
8, 37320, Note_on_c, 2, 52, 76
8, 37424, Note_on_c, 2, 52, 0
8, 37440, Note_on_c, 2, 50, 76
8, 37544, Note_on_c, 2, 50, 0
8, 37560, Note_on_c, 2, 49, 76
8, 37664, Note_on_c, 2, 49, 0
8, 37680, Note_on_c, 2, 50, 76
8, 37904, Note_on_c, 2, 50, 0
8, 37920, Note_on_c, 2, 52, 76
8, 38144, Note_on_c, 2, 52, 0
8, 38160, Note_on_c, 2, 53, 76
8, 38384, Note_on_c, 2, 53, 0
8, 38400, Note_on_c, 2, 50, 76
8, 38624, Note_on_c, 2, 50, 0
8, 38640, Note_on_c, 2, 52, 76
8, 38864, Note_on_c, 2, 52, 0
8, 38880, Note_on_c, 2, 53, 76
8, 39104, Note_on_c, 2, 53, 0
8, 39120, Note_on_c, 2, 55, 76
8, 39344, Note_on_c, 2, 55, 0
8, 39360, Note_on_c, 2, 43, 76
8, 39584, Note_on_c, 2, 43, 0
8, 39600, Note_on_c, 2, 55, 76
8, 39824, Note_on_c, 2, 55, 0
8, 39840, Note_on_c, 2, 57, 76
8, 40064, Note_on_c, 2, 57, 0
8, 40080, Note_on_c, 2, 55, 76
8, 40304, Note_on_c, 2, 55, 0
8, 40320, Note_on_c, 2, 53, 76
8, 40544, Note_on_c, 2, 53, 0
8, 40560, Note_on_c, 2, 52, 76
8, 40784, Note_on_c, 2, 52, 0
8, 40800, Note_on_c, 2, 50, 76
8, 41024, Note_on_c, 2, 50, 0
8, 41040, Note_on_c, 2, 48, 76
8, 41264, Note_on_c, 2, 48, 0
8, 41280, Note_on_c, 2, 60, 76
8, 41504, Note_on_c, 2, 60, 0
8, 41520, Note_on_c, 2, 55, 76
8, 41744, Note_on_c, 2, 55, 0
8, 41760, Note_on_c, 2, 57, 76
8, 41984, Note_on_c, 2, 57, 0
8, 42000, Note_on_c, 2, 52, 76
8, 42104, Note_on_c, 2, 52, 0
8, 42120, Note_on_c, 2, 50, 76
8, 42224, Note_on_c, 2, 50, 0
8, 42240, Note_on_c, 2, 52, 76
8, 42344, Note_on_c, 2, 52, 0
8, 42360, Note_on_c, 2, 53, 76
8, 42464, Note_on_c, 2, 53, 0
8, 42480, Note_on_c, 2, 55, 76
8, 42584, Note_on_c, 2, 55, 0
8, 42600, Note_on_c, 2, 57, 76
8, 42704, Note_on_c, 2, 57, 0
8, 42720, Note_on_c, 2, 58, 76
8, 42944, Note_on_c, 2, 58, 0
8, 42960, Note_on_c, 2, 57, 76
8, 43184, Note_on_c, 2, 57, 0
8, 43200, Note_on_c, 2, 55, 76
8, 43424, Note_on_c, 2, 55, 0
8, 43440, Note_on_c, 2, 53, 76
8, 43664, Note_on_c, 2, 53, 0
8, 43680, Note_on_c, 2, 52, 76
8, 43904, Note_on_c, 2, 52, 0
8, 43920, Note_on_c, 2, 50, 76
8, 44144, Note_on_c, 2, 50, 0
8, 44160, Note_on_c, 2, 55, 76
8, 44264, Note_on_c, 2, 55, 0
8, 44280, Note_on_c, 2, 57, 76
8, 44384, Note_on_c, 2, 57, 0
8, 44400, Note_on_c, 2, 55, 76
8, 44504, Note_on_c, 2, 55, 0
8, 44520, Note_on_c, 2, 53, 76
8, 44624, Note_on_c, 2, 53, 0
8, 44640, Note_on_c, 2, 52, 76
8, 44744, Note_on_c, 2, 52, 0
8, 44760, Note_on_c, 2, 50, 76
8, 44864, Note_on_c, 2, 50, 0
8, 44880, Note_on_c, 2, 52, 76
8, 45104, Note_on_c, 2, 52, 0
8, 45120, Note_on_c, 2, 55, 76
8, 45344, Note_on_c, 2, 55, 0
8, 45360, Note_on_c, 2, 60, 76
8, 45464, Note_on_c, 2, 60, 0
8, 45480, Note_on_c, 2, 59, 76
8, 45584, Note_on_c, 2, 59, 0
8, 45600, Note_on_c, 2, 57, 76
8, 45704, Note_on_c, 2, 57, 0
8, 45720, Note_on_c, 2, 55, 76
8, 45824, Note_on_c, 2, 55, 0
8, 45840, Note_on_c, 2, 53, 76
8, 45944, Note_on_c, 2, 53, 0
8, 45960, Note_on_c, 2, 52, 76
8, 46064, Note_on_c, 2, 52, 0
8, 46080, Note_on_c, 2, 50, 76
8, 46184, Note_on_c, 2, 50, 0
8, 46200, Note_on_c, 2, 48, 76
8, 46304, Note_on_c, 2, 48, 0
8, 46320, Note_on_c, 2, 50, 76
8, 46544, Note_on_c, 2, 50, 0
8, 46560, Note_on_c, 2, 57, 76
8, 46664, Note_on_c, 2, 57, 0
8, 46680, Note_on_c, 2, 55, 76
8, 46784, Note_on_c, 2, 55, 0
8, 46800, Note_on_c, 2, 53, 76
8, 46904, Note_on_c, 2, 53, 0
8, 46920, Note_on_c, 2, 52, 76
8, 47024, Note_on_c, 2, 52, 0
8, 47040, Note_on_c, 2, 50, 76
8, 47144, Note_on_c, 2, 50, 0
8, 47160, Note_on_c, 2, 48, 76
8, 47264, Note_on_c, 2, 48, 0
8, 47280, Note_on_c, 2, 47, 76
8, 47384, Note_on_c, 2, 47, 0
8, 47400, Note_on_c, 2, 45, 76
8, 47504, Note_on_c, 2, 45, 0
8, 47520, Note_on_c, 2, 43, 76
8, 47624, Note_on_c, 2, 43, 0
8, 47640, Note_on_c, 2, 41, 76
8, 47744, Note_on_c, 2, 41, 0
8, 47760, Note_on_c, 2, 53, 76
8, 48464, Note_on_c, 2, 53, 0
8, 48480, Note_on_c, 2, 47, 76
8, 48704, Note_on_c, 2, 47, 0
8, 48720, Note_on_c, 2, 43, 76
8, 48944, Note_on_c, 2, 43, 0
8, 48960, Note_on_c, 2, 47, 76
8, 49184, Note_on_c, 2, 47, 0
8, 49200, Note_on_c, 2, 48, 76
8, 49424, Note_on_c, 2, 48, 0
8, 49440, Note_on_c, 2, 43, 76
8, 49664, Note_on_c, 2, 43, 0
8, 49680, Note_on_c, 2, 45, 76
8, 49904, Note_on_c, 2, 45, 0
8, 49920, Note_on_c, 2, 41, 76
8, 50144, Note_on_c, 2, 41, 0
8, 50160, Note_on_c, 2, 43, 76
8, 50624, Note_on_c, 2, 43, 0
8, 50640, Note_on_c, 2, 36, 76
8, 51839, Note_on_c, 2, 36, 0
8, 51960, Note_on_c, 2, 55, 76
8, 52064, Note_on_c, 2, 55, 0
8, 52080, Note_on_c, 2, 55, 76
8, 52304, Note_on_c, 2, 55, 0
8, 52320, Note_on_c, 2, 53, 76
8, 52424, Note_on_c, 2, 53, 0
8, 52440, Note_on_c, 2, 52, 76
8, 52544, Note_on_c, 2, 52, 0
8, 52560, Note_on_c, 2, 50, 76
8, 53144, Note_on_c, 2, 50, 0
8, 53160, Note_on_c, 2, 49, 76
8, 53264, Note_on_c, 2, 49, 0
8, 53280, Note_on_c, 2, 50, 76
8, 53384, Note_on_c, 2, 50, 0
8, 53400, Note_on_c, 2, 52, 76
8, 53504, Note_on_c, 2, 52, 0
8, 53520, Note_on_c, 2, 53, 76
8, 53624, Note_on_c, 2, 53, 0
8, 53640, Note_on_c, 2, 55, 76
8, 53744, Note_on_c, 2, 55, 0
8, 53760, Note_on_c, 2, 53, 76
8, 53864, Note_on_c, 2, 53, 0
8, 53880, Note_on_c, 2, 52, 76
8, 53984, Note_on_c, 2, 52, 0
8, 54000, Note_on_c, 2, 50, 76
8, 54224, Note_on_c, 2, 50, 0
8, 54240, Note_on_c, 2, 60, 76
8, 54464, Note_on_c, 2, 60, 0
8, 54480, Note_on_c, 2, 58, 76
8, 54704, Note_on_c, 2, 58, 0
8, 54720, Note_on_c, 2, 57, 76
8, 54944, Note_on_c, 2, 57, 0
8, 54960, Note_on_c, 2, 55, 76
8, 55064, Note_on_c, 2, 55, 0
8, 55080, Note_on_c, 2, 53, 76
8, 55184, Note_on_c, 2, 53, 0
8, 55200, Note_on_c, 2, 55, 76
8, 55304, Note_on_c, 2, 55, 0
8, 55320, Note_on_c, 2, 57, 76
8, 55424, Note_on_c, 2, 57, 0
8, 55440, Note_on_c, 2, 58, 76
8, 55664, Note_on_c, 2, 58, 0
8, 55680, Note_on_c, 2, 49, 76
8, 55904, Note_on_c, 2, 49, 0
8, 55920, Note_on_c, 2, 50, 76
8, 56144, Note_on_c, 2, 50, 0
8, 56160, Note_on_c, 2, 43, 76
8, 56384, Note_on_c, 2, 43, 0
8, 56400, Note_on_c, 2, 45, 76
8, 56624, Note_on_c, 2, 45, 0
8, 56640, Note_on_c, 2, 57, 76
8, 56864, Note_on_c, 2, 57, 0
8, 56880, Note_on_c, 2, 55, 76
8, 57104, Note_on_c, 2, 55, 0
8, 57120, Note_on_c, 2, 53, 76
8, 57344, Note_on_c, 2, 53, 0
8, 57360, Note_on_c, 2, 55, 76
8, 57584, Note_on_c, 2, 55, 0
8, 57600, Note_on_c, 2, 57, 76
8, 57824, Note_on_c, 2, 57, 0
8, 57840, Note_on_c, 2, 50, 76
8, 58064, Note_on_c, 2, 50, 0
8, 58080, Note_on_c, 2, 53, 76
8, 58304, Note_on_c, 2, 53, 0
8, 58320, Note_on_c, 2, 47, 76
8, 58544, Note_on_c, 2, 47, 0
8, 58560, Note_on_c, 2, 52, 76
8, 58664, Note_on_c, 2, 52, 0
8, 58680, Note_on_c, 2, 53, 76
8, 58784, Note_on_c, 2, 53, 0
8, 58800, Note_on_c, 2, 52, 76
8, 58904, Note_on_c, 2, 52, 0
8, 58920, Note_on_c, 2, 50, 76
8, 59024, Note_on_c, 2, 50, 0
8, 59040, Note_on_c, 2, 48, 76
8, 59144, Note_on_c, 2, 48, 0
8, 59160, Note_on_c, 2, 47, 76
8, 59264, Note_on_c, 2, 47, 0
8, 59280, Note_on_c, 2, 48, 76
8, 59504, Note_on_c, 2, 48, 0
8, 59520, Note_on_c, 2, 50, 76
8, 59744, Note_on_c, 2, 50, 0
8, 59760, Note_on_c, 2, 47, 76
8, 59984, Note_on_c, 2, 47, 0
8, 60000, Note_on_c, 2, 45, 76
8, 60224, Note_on_c, 2, 45, 0
8, 60240, Note_on_c, 2, 44, 76
8, 60464, Note_on_c, 2, 44, 0
8, 60480, Note_on_c, 2, 45, 76
8, 60704, Note_on_c, 2, 45, 0
8, 60720, Note_on_c, 2, 42, 76
8, 60944, Note_on_c, 2, 42, 0
8, 60960, Note_on_c, 2, 44, 76
8, 61184, Note_on_c, 2, 44, 0
8, 61200, Note_on_c, 2, 45, 76
8, 61424, Note_on_c, 2, 45, 0
8, 61440, Note_on_c, 2, 50, 76
8, 61664, Note_on_c, 2, 50, 0
8, 61680, Note_on_c, 2, 52, 76
8, 61904, Note_on_c, 2, 52, 0
8, 61920, Note_on_c, 2, 40, 76
8, 62144, Note_on_c, 2, 40, 0
8, 62160, Note_on_c, 2, 45, 76
8, 62264, Note_on_c, 2, 45, 0
8, 62280, Note_on_c, 2, 44, 76
8, 62384, Note_on_c, 2, 44, 0
8, 62400, Note_on_c, 2, 45, 76
8, 62504, Note_on_c, 2, 45, 0
8, 62520, Note_on_c, 2, 47, 76
8, 62624, Note_on_c, 2, 47, 0
8, 62640, Note_on_c, 2, 48, 76
8, 62864, Note_on_c, 2, 48, 0
8, 62880, Note_on_c, 2, 52, 76
8, 63104, Note_on_c, 2, 52, 0
8, 63120, Note_on_c, 2, 57, 76
8, 63344, Note_on_c, 2, 57, 0
8, 63360, Note_on_c, 2, 55, 76
8, 63464, Note_on_c, 2, 55, 0
8, 63480, Note_on_c, 2, 53, 76
8, 63584, Note_on_c, 2, 53, 0
8, 63600, Note_on_c, 2, 52, 76
8, 63704, Note_on_c, 2, 52, 0
8, 63720, Note_on_c, 2, 50, 76
8, 63824, Note_on_c, 2, 50, 0
8, 63840, Note_on_c, 2, 52, 76
8, 63944, Note_on_c, 2, 52, 0
8, 63960, Note_on_c, 2, 53, 76
8, 64064, Note_on_c, 2, 53, 0
8, 64080, Note_on_c, 2, 55, 76
8, 64304, Note_on_c, 2, 55, 0
8, 64320, Note_on_c, 2, 48, 76
8, 64544, Note_on_c, 2, 48, 0
8, 64560, Note_on_c, 2, 50, 76
8, 64784, Note_on_c, 2, 50, 0
8, 64800, Note_on_c, 2, 52, 76
8, 65024, Note_on_c, 2, 52, 0
8, 65040, Note_on_c, 2, 53, 76
8, 65144, Note_on_c, 2, 53, 0
8, 65160, Note_on_c, 2, 52, 76
8, 65264, Note_on_c, 2, 52, 0
8, 65280, Note_on_c, 2, 53, 76
8, 65384, Note_on_c, 2, 53, 0
8, 65400, Note_on_c, 2, 55, 76
8, 65504, Note_on_c, 2, 55, 0
8, 65520, Note_on_c, 2, 57, 76
8, 65624, Note_on_c, 2, 57, 0
8, 65640, Note_on_c, 2, 58, 76
8, 65744, Note_on_c, 2, 58, 0
8, 65760, Note_on_c, 2, 57, 76
8, 65864, Note_on_c, 2, 57, 0
8, 65880, Note_on_c, 2, 55, 76
8, 65984, Note_on_c, 2, 55, 0
8, 66000, Note_on_c, 2, 53, 76
8, 66104, Note_on_c, 2, 53, 0
8, 66120, Note_on_c, 2, 52, 76
8, 66224, Note_on_c, 2, 52, 0
8, 66240, Note_on_c, 2, 50, 76
8, 66344, Note_on_c, 2, 50, 0
8, 66360, Note_on_c, 2, 49, 76
8, 66464, Note_on_c, 2, 49, 0
8, 66480, Note_on_c, 2, 50, 76
8, 66704, Note_on_c, 2, 50, 0
8, 66720, Note_on_c, 2, 52, 76
8, 66944, Note_on_c, 2, 52, 0
8, 66960, Note_on_c, 2, 53, 76
8, 67184, Note_on_c, 2, 53, 0
8, 67200, Note_on_c, 2, 50, 76
8, 67424, Note_on_c, 2, 50, 0
8, 67440, Note_on_c, 2, 52, 76
8, 67664, Note_on_c, 2, 52, 0
8, 67680, Note_on_c, 2, 53, 76
8, 67904, Note_on_c, 2, 53, 0
8, 67920, Note_on_c, 2, 55, 76
8, 68144, Note_on_c, 2, 55, 0
8, 68160, Note_on_c, 2, 43, 76
8, 68384, Note_on_c, 2, 43, 0
8, 68400, Note_on_c, 2, 55, 76
8, 68624, Note_on_c, 2, 55, 0
8, 68640, Note_on_c, 2, 57, 76
8, 68864, Note_on_c, 2, 57, 0
8, 68880, Note_on_c, 2, 55, 76
8, 69104, Note_on_c, 2, 55, 0
8, 69120, Note_on_c, 2, 53, 76
8, 69344, Note_on_c, 2, 53, 0
8, 69360, Note_on_c, 2, 52, 76
8, 69584, Note_on_c, 2, 52, 0
8, 69600, Note_on_c, 2, 50, 76
8, 69824, Note_on_c, 2, 50, 0
8, 69840, Note_on_c, 2, 48, 76
8, 70064, Note_on_c, 2, 48, 0
8, 70080, Note_on_c, 2, 60, 76
8, 70304, Note_on_c, 2, 60, 0
8, 70320, Note_on_c, 2, 55, 76
8, 70544, Note_on_c, 2, 55, 0
8, 70560, Note_on_c, 2, 57, 76
8, 70784, Note_on_c, 2, 57, 0
8, 70800, Note_on_c, 2, 52, 76
8, 70904, Note_on_c, 2, 52, 0
8, 70920, Note_on_c, 2, 50, 76
8, 71024, Note_on_c, 2, 50, 0
8, 71040, Note_on_c, 2, 52, 76
8, 71144, Note_on_c, 2, 52, 0
8, 71160, Note_on_c, 2, 53, 76
8, 71264, Note_on_c, 2, 53, 0
8, 71280, Note_on_c, 2, 55, 76
8, 71384, Note_on_c, 2, 55, 0
8, 71400, Note_on_c, 2, 57, 76
8, 71504, Note_on_c, 2, 57, 0
8, 71520, Note_on_c, 2, 58, 76
8, 71744, Note_on_c, 2, 58, 0
8, 71760, Note_on_c, 2, 57, 76
8, 71984, Note_on_c, 2, 57, 0
8, 72000, Note_on_c, 2, 55, 76
8, 72224, Note_on_c, 2, 55, 0
8, 72240, Note_on_c, 2, 53, 76
8, 72464, Note_on_c, 2, 53, 0
8, 72480, Note_on_c, 2, 52, 76
8, 72704, Note_on_c, 2, 52, 0
8, 72720, Note_on_c, 2, 50, 76
8, 72944, Note_on_c, 2, 50, 0
8, 72960, Note_on_c, 2, 55, 76
8, 73064, Note_on_c, 2, 55, 0
8, 73080, Note_on_c, 2, 57, 76
8, 73184, Note_on_c, 2, 57, 0
8, 73200, Note_on_c, 2, 55, 76
8, 73304, Note_on_c, 2, 55, 0
8, 73320, Note_on_c, 2, 53, 76
8, 73424, Note_on_c, 2, 53, 0
8, 73440, Note_on_c, 2, 52, 76
8, 73544, Note_on_c, 2, 52, 0
8, 73560, Note_on_c, 2, 50, 76
8, 73664, Note_on_c, 2, 50, 0
8, 73680, Note_on_c, 2, 52, 76
8, 73904, Note_on_c, 2, 52, 0
8, 73920, Note_on_c, 2, 55, 76
8, 74144, Note_on_c, 2, 55, 0
8, 74160, Note_on_c, 2, 60, 76
8, 74264, Note_on_c, 2, 60, 0
8, 74280, Note_on_c, 2, 59, 76
8, 74384, Note_on_c, 2, 59, 0
8, 74400, Note_on_c, 2, 57, 76
8, 74504, Note_on_c, 2, 57, 0
8, 74520, Note_on_c, 2, 55, 76
8, 74624, Note_on_c, 2, 55, 0
8, 74640, Note_on_c, 2, 53, 76
8, 74744, Note_on_c, 2, 53, 0
8, 74760, Note_on_c, 2, 52, 76
8, 74864, Note_on_c, 2, 52, 0
8, 74880, Note_on_c, 2, 50, 76
8, 74984, Note_on_c, 2, 50, 0
8, 75000, Note_on_c, 2, 48, 76
8, 75104, Note_on_c, 2, 48, 0
8, 75120, Note_on_c, 2, 50, 76
8, 75344, Note_on_c, 2, 50, 0
8, 75360, Note_on_c, 2, 57, 76
8, 75464, Note_on_c, 2, 57, 0
8, 75480, Note_on_c, 2, 55, 76
8, 75584, Note_on_c, 2, 55, 0
8, 75600, Note_on_c, 2, 53, 76
8, 75704, Note_on_c, 2, 53, 0
8, 75720, Note_on_c, 2, 52, 76
8, 75824, Note_on_c, 2, 52, 0
8, 75840, Note_on_c, 2, 50, 76
8, 75944, Note_on_c, 2, 50, 0
8, 75960, Note_on_c, 2, 48, 76
8, 76064, Note_on_c, 2, 48, 0
8, 76080, Note_on_c, 2, 47, 76
8, 76184, Note_on_c, 2, 47, 0
8, 76200, Note_on_c, 2, 45, 76
8, 76304, Note_on_c, 2, 45, 0
8, 76320, Note_on_c, 2, 43, 76
8, 76424, Note_on_c, 2, 43, 0
8, 76440, Note_on_c, 2, 41, 76
8, 76544, Note_on_c, 2, 41, 0
8, 76560, Note_on_c, 2, 53, 76
8, 77264, Note_on_c, 2, 53, 0
8, 77280, Note_on_c, 2, 47, 76
8, 77504, Note_on_c, 2, 47, 0
8, 77520, Note_on_c, 2, 43, 76
8, 77744, Note_on_c, 2, 43, 0
8, 77760, Note_on_c, 2, 47, 76
8, 77984, Note_on_c, 2, 47, 0
8, 78000, Note_on_c, 2, 48, 76
8, 78224, Note_on_c, 2, 48, 0
8, 78240, Note_on_c, 2, 43, 76
8, 78464, Note_on_c, 2, 43, 0
8, 78480, Note_on_c, 2, 45, 76
8, 78704, Note_on_c, 2, 45, 0
8, 78720, Note_on_c, 2, 41, 76
8, 78944, Note_on_c, 2, 41, 0
8, 78960, Note_on_c, 2, 43, 76
8, 79424, Note_on_c, 2, 43, 0
8, 79440, Note_on_c, 2, 36, 76
8, 80639, Note_on_c, 2, 36, 0
8, 80639, End_track
9, 0, Start_track
9, 0, Title_t, "Violin I"
9, 0, MIDI_port, 0
9, 0, Program_c, 11, 48
9, 0, Control_c, 11, 10, 48
9, 0, Control_c, 11, 11, 127
9, 0, Control_c, 11, 7, 96
9, 120, Note_on_c, 11, 72, 76
9, 224, Note_on_c, 11, 72, 0
9, 240, Note_on_c, 11, 72, 76
9, 344, Note_on_c, 11, 72, 0
9, 360, Note_on_c, 11, 71, 76
9, 464, Note_on_c, 11, 71, 0
9, 480, Note_on_c, 11, 72, 76
9, 584, Note_on_c, 11, 72, 0
9, 600, Note_on_c, 11, 74, 76
9, 704, Note_on_c, 11, 74, 0
9, 720, Note_on_c, 11, 76, 76
9, 1064, Note_on_c, 11, 76, 0
9, 1080, Note_on_c, 11, 77, 76
9, 1184, Note_on_c, 11, 77, 0
9, 1200, Note_on_c, 11, 74, 76
9, 1544, Note_on_c, 11, 74, 0
9, 1560, Note_on_c, 11, 72, 76
9, 1664, Note_on_c, 11, 72, 0
9, 1680, Note_on_c, 11, 79, 76
9, 2384, Note_on_c, 11, 79, 0
9, 2400, Note_on_c, 11, 77, 76
9, 2504, Note_on_c, 11, 77, 0
9, 2520, Note_on_c, 11, 76, 76
9, 2624, Note_on_c, 11, 76, 0
9, 2640, Note_on_c, 11, 77, 76
9, 2984, Note_on_c, 11, 77, 0
9, 3000, Note_on_c, 11, 79, 76
9, 3104, Note_on_c, 11, 79, 0
9, 3120, Note_on_c, 11, 81, 76
9, 3464, Note_on_c, 11, 81, 0
9, 3480, Note_on_c, 11, 79, 76
9, 3584, Note_on_c, 11, 79, 0
9, 3600, Note_on_c, 11, 77, 76
9, 3824, Note_on_c, 11, 77, 0
9, 3840, Note_on_c, 11, 76, 76
9, 3944, Note_on_c, 11, 76, 0
9, 3960, Note_on_c, 11, 74, 76
9, 4064, Note_on_c, 11, 74, 0
9, 4080, Note_on_c, 11, 76, 76
9, 4424, Note_on_c, 11, 76, 0
9, 4440, Note_on_c, 11, 77, 76
9, 4544, Note_on_c, 11, 77, 0
9, 4560, Note_on_c, 11, 72, 76
9, 4679, Note_on_c, 11, 72, 0
9, 4680, Note_on_c, 11, 71, 76
9, 4799, Note_on_c, 11, 71, 0
9, 4800, Note_on_c, 11, 69, 76
9, 4919, Note_on_c, 11, 69, 0
9, 4920, Note_on_c, 11, 67, 76
9, 5039, Note_on_c, 11, 67, 0
9, 5040, Note_on_c, 11, 69, 76
9, 5159, Note_on_c, 11, 69, 0
9, 5160, Note_on_c, 11, 71, 76
9, 5279, Note_on_c, 11, 71, 0
9, 5280, Note_on_c, 11, 72, 76
9, 5399, Note_on_c, 11, 72, 0
9, 5400, Note_on_c, 11, 74, 76
9, 5504, Note_on_c, 11, 74, 0
9, 5520, Note_on_c, 11, 74, 76
9, 5549, Note_on_c, 11, 74, 0
9, 5550, Note_on_c, 11, 76, 76
9, 5579, Note_on_c, 11, 76, 0
9, 5580, Note_on_c, 11, 74, 76
9, 5609, Note_on_c, 11, 74, 0
9, 5610, Note_on_c, 11, 76, 76
9, 5639, Note_on_c, 11, 76, 0
9, 5640, Note_on_c, 11, 74, 76
9, 5669, Note_on_c, 11, 74, 0
9, 5670, Note_on_c, 11, 76, 76
9, 5699, Note_on_c, 11, 76, 0
9, 5700, Note_on_c, 11, 74, 76
9, 5729, Note_on_c, 11, 74, 0
9, 5730, Note_on_c, 11, 76, 76
9, 5759, Note_on_c, 11, 76, 0
9, 5760, Note_on_c, 11, 74, 76
9, 5789, Note_on_c, 11, 74, 0
9, 5790, Note_on_c, 11, 76, 76
9, 5819, Note_on_c, 11, 76, 0
9, 5820, Note_on_c, 11, 74, 76
9, 5849, Note_on_c, 11, 74, 0
9, 5850, Note_on_c, 11, 76, 76
9, 5879, Note_on_c, 11, 76, 0
9, 5880, Note_on_c, 11, 72, 76
9, 5939, Note_on_c, 11, 72, 0
9, 5940, Note_on_c, 11, 74, 76
9, 5999, Note_on_c, 11, 74, 0
9, 6000, Note_on_c, 11, 76, 76
9, 6344, Note_on_c, 11, 76, 0
9, 6360, Note_on_c, 11, 74, 76
9, 6464, Note_on_c, 11, 74, 0
9, 6480, Note_on_c, 11, 72, 76
9, 6704, Note_on_c, 11, 72, 0
9, 6720, Note_on_c, 11, 71, 76
9, 6824, Note_on_c, 11, 71, 0
9, 6840, Note_on_c, 11, 69, 76
9, 6944, Note_on_c, 11, 69, 0
9, 6960, Note_on_c, 11, 71, 76
9, 7304, Note_on_c, 11, 71, 0
9, 7320, Note_on_c, 11, 72, 76
9, 7424, Note_on_c, 11, 72, 0
9, 7440, Note_on_c, 11, 74, 76
9, 7784, Note_on_c, 11, 74, 0
9, 7800, Note_on_c, 11, 76, 76
9, 7904, Note_on_c, 11, 76, 0
9, 7920, Note_on_c, 11, 78, 76
9, 8144, Note_on_c, 11, 78, 0
9, 8160, Note_on_c, 11, 79, 76
9, 8384, Note_on_c, 11, 79, 0
9, 8400, Note_on_c, 11, 69, 76
9, 8744, Note_on_c, 11, 69, 0
9, 8760, Note_on_c, 11, 71, 76
9, 8864, Note_on_c, 11, 71, 0
9, 8880, Note_on_c, 11, 72, 76
9, 9224, Note_on_c, 11, 72, 0
9, 9240, Note_on_c, 11, 74, 76
9, 9344, Note_on_c, 11, 74, 0
9, 9360, Note_on_c, 11, 72, 76
9, 9479, Note_on_c, 11, 72, 0
9, 9480, Note_on_c, 11, 71, 76
9, 9599, Note_on_c, 11, 71, 0
9, 9600, Note_on_c, 11, 69, 76
9, 9719, Note_on_c, 11, 69, 0
9, 9720, Note_on_c, 11, 67, 76
9, 9824, Note_on_c, 11, 67, 0
9, 9840, Note_on_c, 11, 66, 76
9, 10184, Note_on_c, 11, 66, 0
9, 10200, Note_on_c, 11, 67, 76
9, 10304, Note_on_c, 11, 67, 0
9, 10320, Note_on_c, 11, 67, 76
9, 11519, Note_on_c, 11, 67, 0
9, 11640, Note_on_c, 11, 72, 76
9, 11744, Note_on_c, 11, 72, 0
9, 11760, Note_on_c, 11, 72, 76
9, 11864, Note_on_c, 11, 72, 0
9, 11880, Note_on_c, 11, 71, 76
9, 11984, Note_on_c, 11, 71, 0
9, 12000, Note_on_c, 11, 72, 76
9, 12104, Note_on_c, 11, 72, 0
9, 12120, Note_on_c, 11, 74, 76
9, 12224, Note_on_c, 11, 74, 0
9, 12240, Note_on_c, 11, 76, 76
9, 12584, Note_on_c, 11, 76, 0
9, 12600, Note_on_c, 11, 77, 76
9, 12704, Note_on_c, 11, 77, 0
9, 12720, Note_on_c, 11, 74, 76
9, 13064, Note_on_c, 11, 74, 0
9, 13080, Note_on_c, 11, 72, 76
9, 13184, Note_on_c, 11, 72, 0
9, 13200, Note_on_c, 11, 79, 76
9, 13904, Note_on_c, 11, 79, 0
9, 13920, Note_on_c, 11, 77, 76
9, 14024, Note_on_c, 11, 77, 0
9, 14040, Note_on_c, 11, 76, 76
9, 14144, Note_on_c, 11, 76, 0
9, 14160, Note_on_c, 11, 77, 76
9, 14504, Note_on_c, 11, 77, 0
9, 14520, Note_on_c, 11, 79, 76
9, 14624, Note_on_c, 11, 79, 0
9, 14640, Note_on_c, 11, 81, 76
9, 14984, Note_on_c, 11, 81, 0
9, 15000, Note_on_c, 11, 79, 76
9, 15104, Note_on_c, 11, 79, 0
9, 15120, Note_on_c, 11, 77, 76
9, 15344, Note_on_c, 11, 77, 0
9, 15360, Note_on_c, 11, 76, 76
9, 15464, Note_on_c, 11, 76, 0
9, 15480, Note_on_c, 11, 74, 76
9, 15584, Note_on_c, 11, 74, 0
9, 15600, Note_on_c, 11, 76, 76
9, 15944, Note_on_c, 11, 76, 0
9, 15960, Note_on_c, 11, 77, 76
9, 16064, Note_on_c, 11, 77, 0
9, 16080, Note_on_c, 11, 72, 76
9, 16199, Note_on_c, 11, 72, 0
9, 16200, Note_on_c, 11, 71, 76
9, 16319, Note_on_c, 11, 71, 0
9, 16320, Note_on_c, 11, 69, 76
9, 16439, Note_on_c, 11, 69, 0
9, 16440, Note_on_c, 11, 67, 76
9, 16559, Note_on_c, 11, 67, 0
9, 16560, Note_on_c, 11, 69, 76
9, 16679, Note_on_c, 11, 69, 0
9, 16680, Note_on_c, 11, 71, 76
9, 16799, Note_on_c, 11, 71, 0
9, 16800, Note_on_c, 11, 72, 76
9, 16919, Note_on_c, 11, 72, 0
9, 16920, Note_on_c, 11, 74, 76
9, 17024, Note_on_c, 11, 74, 0
9, 17040, Note_on_c, 11, 74, 76
9, 17069, Note_on_c, 11, 74, 0
9, 17070, Note_on_c, 11, 76, 76
9, 17099, Note_on_c, 11, 76, 0
9, 17100, Note_on_c, 11, 74, 76
9, 17129, Note_on_c, 11, 74, 0
9, 17130, Note_on_c, 11, 76, 76
9, 17159, Note_on_c, 11, 76, 0
9, 17160, Note_on_c, 11, 74, 76
9, 17189, Note_on_c, 11, 74, 0
9, 17190, Note_on_c, 11, 76, 76
9, 17219, Note_on_c, 11, 76, 0
9, 17220, Note_on_c, 11, 74, 76
9, 17249, Note_on_c, 11, 74, 0
9, 17250, Note_on_c, 11, 76, 76
9, 17279, Note_on_c, 11, 76, 0
9, 17280, Note_on_c, 11, 74, 76
9, 17309, Note_on_c, 11, 74, 0
9, 17310, Note_on_c, 11, 76, 76
9, 17339, Note_on_c, 11, 76, 0
9, 17340, Note_on_c, 11, 74, 76
9, 17369, Note_on_c, 11, 74, 0
9, 17370, Note_on_c, 11, 76, 76
9, 17399, Note_on_c, 11, 76, 0
9, 17400, Note_on_c, 11, 72, 76
9, 17459, Note_on_c, 11, 72, 0
9, 17460, Note_on_c, 11, 74, 76
9, 17519, Note_on_c, 11, 74, 0
9, 17520, Note_on_c, 11, 76, 76
9, 17864, Note_on_c, 11, 76, 0
9, 17880, Note_on_c, 11, 74, 76
9, 17984, Note_on_c, 11, 74, 0
9, 18000, Note_on_c, 11, 72, 76
9, 18224, Note_on_c, 11, 72, 0
9, 18240, Note_on_c, 11, 71, 76
9, 18344, Note_on_c, 11, 71, 0
9, 18360, Note_on_c, 11, 69, 76
9, 18464, Note_on_c, 11, 69, 0
9, 18480, Note_on_c, 11, 71, 76
9, 18824, Note_on_c, 11, 71, 0
9, 18840, Note_on_c, 11, 72, 76
9, 18944, Note_on_c, 11, 72, 0
9, 18960, Note_on_c, 11, 74, 76
9, 19304, Note_on_c, 11, 74, 0
9, 19320, Note_on_c, 11, 76, 76
9, 19424, Note_on_c, 11, 76, 0
9, 19440, Note_on_c, 11, 78, 76
9, 19664, Note_on_c, 11, 78, 0
9, 19680, Note_on_c, 11, 79, 76
9, 19904, Note_on_c, 11, 79, 0
9, 19920, Note_on_c, 11, 69, 76
9, 20264, Note_on_c, 11, 69, 0
9, 20280, Note_on_c, 11, 71, 76
9, 20384, Note_on_c, 11, 71, 0
9, 20400, Note_on_c, 11, 72, 76
9, 20744, Note_on_c, 11, 72, 0
9, 20760, Note_on_c, 11, 74, 76
9, 20864, Note_on_c, 11, 74, 0
9, 20880, Note_on_c, 11, 72, 76
9, 20999, Note_on_c, 11, 72, 0
9, 21000, Note_on_c, 11, 71, 76
9, 21119, Note_on_c, 11, 71, 0
9, 21120, Note_on_c, 11, 69, 76
9, 21239, Note_on_c, 11, 69, 0
9, 21240, Note_on_c, 11, 67, 76
9, 21344, Note_on_c, 11, 67, 0
9, 21360, Note_on_c, 11, 66, 76
9, 21704, Note_on_c, 11, 66, 0
9, 21720, Note_on_c, 11, 67, 76
9, 21824, Note_on_c, 11, 67, 0
9, 21840, Note_on_c, 11, 67, 76
9, 23039, Note_on_c, 11, 67, 0
9, 23160, Note_on_c, 11, 74, 76
9, 23264, Note_on_c, 11, 74, 0
9, 23280, Note_on_c, 11, 74, 76
9, 23384, Note_on_c, 11, 74, 0
9, 23400, Note_on_c, 11, 72, 76
9, 23504, Note_on_c, 11, 72, 0
9, 23520, Note_on_c, 11, 74, 76
9, 23624, Note_on_c, 11, 74, 0
9, 23640, Note_on_c, 11, 76, 76
9, 23744, Note_on_c, 11, 76, 0
9, 23760, Note_on_c, 11, 77, 76
9, 24104, Note_on_c, 11, 77, 0
9, 24120, Note_on_c, 11, 79, 76
9, 24224, Note_on_c, 11, 79, 0
9, 24240, Note_on_c, 11, 76, 76
9, 24269, Note_on_c, 11, 76, 0
9, 24270, Note_on_c, 11, 77, 76
9, 24299, Note_on_c, 11, 77, 0
9, 24300, Note_on_c, 11, 76, 76
9, 24329, Note_on_c, 11, 76, 0
9, 24330, Note_on_c, 11, 77, 76
9, 24359, Note_on_c, 11, 77, 0
9, 24360, Note_on_c, 11, 76, 76
9, 24389, Note_on_c, 11, 76, 0
9, 24390, Note_on_c, 11, 77, 76
9, 24419, Note_on_c, 11, 77, 0
9, 24420, Note_on_c, 11, 76, 76
9, 24449, Note_on_c, 11, 76, 0
9, 24450, Note_on_c, 11, 77, 76
9, 24479, Note_on_c, 11, 77, 0
9, 24480, Note_on_c, 11, 76, 76
9, 24509, Note_on_c, 11, 76, 0
9, 24510, Note_on_c, 11, 77, 76
9, 24539, Note_on_c, 11, 77, 0
9, 24540, Note_on_c, 11, 74, 76
9, 24569, Note_on_c, 11, 74, 0
9, 24570, Note_on_c, 11, 76, 76
9, 24599, Note_on_c, 11, 76, 0
9, 24600, Note_on_c, 11, 74, 76
9, 24704, Note_on_c, 11, 74, 0
9, 24720, Note_on_c, 11, 81, 76
9, 25424, Note_on_c, 11, 81, 0
9, 25440, Note_on_c, 11, 79, 76
9, 25544, Note_on_c, 11, 79, 0
9, 25560, Note_on_c, 11, 77, 76
9, 25664, Note_on_c, 11, 77, 0
9, 25680, Note_on_c, 11, 79, 76
9, 26024, Note_on_c, 11, 79, 0
9, 26040, Note_on_c, 11, 81, 76
9, 26144, Note_on_c, 11, 81, 0
9, 26160, Note_on_c, 11, 82, 76
9, 26504, Note_on_c, 11, 82, 0
9, 26520, Note_on_c, 11, 81, 76
9, 26624, Note_on_c, 11, 81, 0
9, 26640, Note_on_c, 11, 79, 76
9, 26864, Note_on_c, 11, 79, 0
9, 26880, Note_on_c, 11, 77, 76
9, 26984, Note_on_c, 11, 77, 0
9, 27000, Note_on_c, 11, 76, 76
9, 27104, Note_on_c, 11, 76, 0
9, 27120, Note_on_c, 11, 77, 76
9, 27464, Note_on_c, 11, 77, 0
9, 27480, Note_on_c, 11, 79, 76
9, 27584, Note_on_c, 11, 79, 0
9, 27600, Note_on_c, 11, 74, 76
9, 27719, Note_on_c, 11, 74, 0
9, 27720, Note_on_c, 11, 73, 76
9, 27839, Note_on_c, 11, 73, 0
9, 27840, Note_on_c, 11, 71, 76
9, 27959, Note_on_c, 11, 71, 0
9, 27960, Note_on_c, 11, 69, 76
9, 28079, Note_on_c, 11, 69, 0
9, 28080, Note_on_c, 11, 71, 76
9, 28199, Note_on_c, 11, 71, 0
9, 28200, Note_on_c, 11, 73, 76
9, 28319, Note_on_c, 11, 73, 0
9, 28320, Note_on_c, 11, 74, 76
9, 28439, Note_on_c, 11, 74, 0
9, 28440, Note_on_c, 11, 76, 76
9, 28544, Note_on_c, 11, 76, 0
9, 28560, Note_on_c, 11, 76, 76
9, 28589, Note_on_c, 11, 76, 0
9, 28590, Note_on_c, 11, 77, 76
9, 28619, Note_on_c, 11, 77, 0
9, 28620, Note_on_c, 11, 76, 76
9, 28649, Note_on_c, 11, 76, 0
9, 28650, Note_on_c, 11, 77, 76
9, 28679, Note_on_c, 11, 77, 0
9, 28680, Note_on_c, 11, 76, 76
9, 28709, Note_on_c, 11, 76, 0
9, 28710, Note_on_c, 11, 77, 76
9, 28739, Note_on_c, 11, 77, 0
9, 28740, Note_on_c, 11, 76, 76
9, 28769, Note_on_c, 11, 76, 0
9, 28770, Note_on_c, 11, 77, 76
9, 28799, Note_on_c, 11, 77, 0
9, 28800, Note_on_c, 11, 76, 76
9, 28829, Note_on_c, 11, 76, 0
9, 28830, Note_on_c, 11, 77, 76
9, 28859, Note_on_c, 11, 77, 0
9, 28860, Note_on_c, 11, 76, 76
9, 28889, Note_on_c, 11, 76, 0
9, 28890, Note_on_c, 11, 77, 76
9, 28919, Note_on_c, 11, 77, 0
9, 28920, Note_on_c, 11, 74, 76
9, 28964, Note_on_c, 11, 74, 0
9, 28980, Note_on_c, 11, 76, 76
9, 29024, Note_on_c, 11, 76, 0
9, 29040, Note_on_c, 11, 77, 76
9, 29384, Note_on_c, 11, 77, 0
9, 29400, Note_on_c, 11, 76, 76
9, 29504, Note_on_c, 11, 76, 0
9, 29520, Note_on_c, 11, 74, 76
9, 29744, Note_on_c, 11, 74, 0
9, 29760, Note_on_c, 11, 72, 76
9, 29864, Note_on_c, 11, 72, 0
9, 29880, Note_on_c, 11, 71, 76
9, 29984, Note_on_c, 11, 71, 0
9, 30000, Note_on_c, 11, 72, 76
9, 30344, Note_on_c, 11, 72, 0
9, 30360, Note_on_c, 11, 74, 76
9, 30464, Note_on_c, 11, 74, 0
9, 30480, Note_on_c, 11, 76, 76
9, 30824, Note_on_c, 11, 76, 0
9, 30840, Note_on_c, 11, 78, 76
9, 30944, Note_on_c, 11, 78, 0
9, 30960, Note_on_c, 11, 80, 76
9, 31184, Note_on_c, 11, 80, 0
9, 31200, Note_on_c, 11, 81, 76
9, 31424, Note_on_c, 11, 81, 0
9, 31440, Note_on_c, 11, 71, 76
9, 31784, Note_on_c, 11, 71, 0
9, 31800, Note_on_c, 11, 72, 76
9, 31904, Note_on_c, 11, 72, 0
9, 31920, Note_on_c, 11, 74, 76
9, 32264, Note_on_c, 11, 74, 0
9, 32280, Note_on_c, 11, 76, 76
9, 32384, Note_on_c, 11, 76, 0
9, 32400, Note_on_c, 11, 72, 76
9, 32744, Note_on_c, 11, 72, 0
9, 32760, Note_on_c, 11, 71, 76
9, 32864, Note_on_c, 11, 71, 0
9, 32880, Note_on_c, 11, 71, 76
9, 32909, Note_on_c, 11, 71, 0
9, 32910, Note_on_c, 11, 72, 76
9, 32939, Note_on_c, 11, 72, 0
9, 32940, Note_on_c, 11, 71, 76
9, 32969, Note_on_c, 11, 71, 0
9, 32970, Note_on_c, 11, 72, 76
9, 32999, Note_on_c, 11, 72, 0
9, 33000, Note_on_c, 11, 71, 76
9, 33029, Note_on_c, 11, 71, 0
9, 33030, Note_on_c, 11, 72, 76
9, 33059, Note_on_c, 11, 72, 0
9, 33060, Note_on_c, 11, 71, 76
9, 33089, Note_on_c, 11, 71, 0
9, 33090, Note_on_c, 11, 72, 76
9, 33119, Note_on_c, 11, 72, 0
9, 33120, Note_on_c, 11, 71, 76
9, 33149, Note_on_c, 11, 71, 0
9, 33150, Note_on_c, 11, 72, 76
9, 33179, Note_on_c, 11, 72, 0
9, 33180, Note_on_c, 11, 69, 76
9, 33209, Note_on_c, 11, 69, 0
9, 33210, Note_on_c, 11, 71, 76
9, 33239, Note_on_c, 11, 71, 0
9, 33240, Note_on_c, 11, 69, 76
9, 33344, Note_on_c, 11, 69, 0
9, 33360, Note_on_c, 11, 69, 76
9, 33944, Note_on_c, 11, 69, 0
9, 33960, Note_on_c, 11, 71, 76
9, 34064, Note_on_c, 11, 71, 0
9, 34080, Note_on_c, 11, 72, 76
9, 34184, Note_on_c, 11, 72, 0
9, 34200, Note_on_c, 11, 74, 76
9, 34304, Note_on_c, 11, 74, 0
9, 34320, Note_on_c, 11, 76, 76
9, 34424, Note_on_c, 11, 76, 0
9, 34440, Note_on_c, 11, 77, 76
9, 34544, Note_on_c, 11, 77, 0
9, 34560, Note_on_c, 11, 77, 76
9, 34589, Note_on_c, 11, 77, 0
9, 34590, Note_on_c, 11, 79, 76
9, 34619, Note_on_c, 11, 79, 0
9, 34620, Note_on_c, 11, 77, 76
9, 34649, Note_on_c, 11, 77, 0
9, 34650, Note_on_c, 11, 79, 76
9, 34679, Note_on_c, 11, 79, 0
9, 34680, Note_on_c, 11, 77, 76
9, 34709, Note_on_c, 11, 77, 0
9, 34710, Note_on_c, 11, 79, 76
9, 34739, Note_on_c, 11, 79, 0
9, 34740, Note_on_c, 11, 76, 76
9, 34769, Note_on_c, 11, 76, 0
9, 34770, Note_on_c, 11, 77, 76
9, 34799, Note_on_c, 11, 77, 0
9, 34800, Note_on_c, 11, 79, 76
9, 35144, Note_on_c, 11, 79, 0
9, 35160, Note_on_c, 11, 77, 76
9, 35264, Note_on_c, 11, 77, 0
9, 35280, Note_on_c, 11, 76, 76
9, 35504, Note_on_c, 11, 76, 0
9, 35520, Note_on_c, 11, 74, 76
9, 35624, Note_on_c, 11, 74, 0
9, 35640, Note_on_c, 11, 72, 76
9, 35744, Note_on_c, 11, 72, 0
9, 35760, Note_on_c, 11, 70, 76
9, 35864, Note_on_c, 11, 70, 0
9, 35880, Note_on_c, 11, 69, 76
9, 35984, Note_on_c, 11, 69, 0
9, 36000, Note_on_c, 11, 70, 76
9, 36104, Note_on_c, 11, 70, 0
9, 36120, Note_on_c, 11, 67, 76
9, 36224, Note_on_c, 11, 67, 0
9, 36240, Note_on_c, 11, 69, 76
9, 36584, Note_on_c, 11, 69, 0
9, 36600, Note_on_c, 11, 67, 76
9, 36704, Note_on_c, 11, 67, 0
9, 36720, Note_on_c, 11, 65, 76
9, 36944, Note_on_c, 11, 65, 0
9, 36960, Note_on_c, 11, 69, 76
9, 37184, Note_on_c, 11, 69, 0
9, 37200, Note_on_c, 11, 74, 76
9, 37544, Note_on_c, 11, 74, 0
9, 37560, Note_on_c, 11, 76, 76
9, 37664, Note_on_c, 11, 76, 0
9, 37680, Note_on_c, 11, 77, 76
9, 38024, Note_on_c, 11, 77, 0
9, 38040, Note_on_c, 11, 79, 76
9, 38159, Note_on_c, 11, 79, 0
9, 38160, Note_on_c, 11, 81, 76
9, 38279, Note_on_c, 11, 81, 0
9, 38280, Note_on_c, 11, 79, 76
9, 38399, Note_on_c, 11, 79, 0
9, 38400, Note_on_c, 11, 77, 76
9, 38519, Note_on_c, 11, 77, 0
9, 38520, Note_on_c, 11, 76, 76
9, 38639, Note_on_c, 11, 76, 0
9, 38640, Note_on_c, 11, 74, 76
9, 38759, Note_on_c, 11, 74, 0
9, 38760, Note_on_c, 11, 72, 76
9, 38879, Note_on_c, 11, 72, 0
9, 38880, Note_on_c, 11, 71, 76
9, 38999, Note_on_c, 11, 71, 0
9, 39000, Note_on_c, 11, 72, 76
9, 39104, Note_on_c, 11, 72, 0
9, 39120, Note_on_c, 11, 71, 76
9, 39149, Note_on_c, 11, 71, 0
9, 39150, Note_on_c, 11, 72, 76
9, 39179, Note_on_c, 11, 72, 0
9, 39180, Note_on_c, 11, 71, 76
9, 39209, Note_on_c, 11, 71, 0
9, 39210, Note_on_c, 11, 72, 76
9, 39239, Note_on_c, 11, 72, 0
9, 39240, Note_on_c, 11, 71, 76
9, 39269, Note_on_c, 11, 71, 0
9, 39270, Note_on_c, 11, 72, 76
9, 39299, Note_on_c, 11, 72, 0
9, 39300, Note_on_c, 11, 71, 76
9, 39329, Note_on_c, 11, 71, 0
9, 39330, Note_on_c, 11, 72, 76
9, 39359, Note_on_c, 11, 72, 0
9, 39360, Note_on_c, 11, 71, 76
9, 39389, Note_on_c, 11, 71, 0
9, 39390, Note_on_c, 11, 72, 76
9, 39419, Note_on_c, 11, 72, 0
9, 39420, Note_on_c, 11, 69, 76
9, 39449, Note_on_c, 11, 69, 0
9, 39450, Note_on_c, 11, 71, 76
9, 39479, Note_on_c, 11, 71, 0
9, 39480, Note_on_c, 11, 72, 76
9, 39584, Note_on_c, 11, 72, 0
9, 39600, Note_on_c, 11, 74, 76
9, 39824, Note_on_c, 11, 74, 0
9, 39840, Note_on_c, 11, 72, 76
9, 39944, Note_on_c, 11, 72, 0
9, 39960, Note_on_c, 11, 71, 76
9, 40064, Note_on_c, 11, 71, 0
9, 40080, Note_on_c, 11, 69, 76
9, 40184, Note_on_c, 11, 69, 0
9, 40200, Note_on_c, 11, 67, 76
9, 40304, Note_on_c, 11, 67, 0
9, 40320, Note_on_c, 11, 69, 76
9, 40424, Note_on_c, 11, 69, 0
9, 40440, Note_on_c, 11, 71, 76
9, 40544, Note_on_c, 11, 71, 0
9, 40560, Note_on_c, 11, 72, 76
9, 40664, Note_on_c, 11, 72, 0
9, 40680, Note_on_c, 11, 71, 76
9, 40784, Note_on_c, 11, 71, 0
9, 40800, Note_on_c, 11, 72, 76
9, 40904, Note_on_c, 11, 72, 0
9, 40920, Note_on_c, 11, 74, 76
9, 41024, Note_on_c, 11, 74, 0
9, 41040, Note_on_c, 11, 76, 76
9, 41384, Note_on_c, 11, 76, 0
9, 41400, Note_on_c, 11, 77, 76
9, 41504, Note_on_c, 11, 77, 0
9, 41520, Note_on_c, 11, 74, 76
9, 41549, Note_on_c, 11, 74, 0
9, 41550, Note_on_c, 11, 76, 76
9, 41579, Note_on_c, 11, 76, 0
9, 41580, Note_on_c, 11, 74, 76
9, 41609, Note_on_c, 11, 74, 0
9, 41610, Note_on_c, 11, 76, 76
9, 41639, Note_on_c, 11, 76, 0
9, 41640, Note_on_c, 11, 74, 76
9, 41669, Note_on_c, 11, 74, 0
9, 41670, Note_on_c, 11, 76, 76
9, 41699, Note_on_c, 11, 76, 0
9, 41700, Note_on_c, 11, 74, 76
9, 41729, Note_on_c, 11, 74, 0
9, 41730, Note_on_c, 11, 76, 76
9, 41759, Note_on_c, 11, 76, 0
9, 41760, Note_on_c, 11, 74, 76
9, 41789, Note_on_c, 11, 74, 0
9, 41790, Note_on_c, 11, 76, 76
9, 41819, Note_on_c, 11, 76, 0
9, 41820, Note_on_c, 11, 72, 76
9, 41849, Note_on_c, 11, 72, 0
9, 41850, Note_on_c, 11, 74, 76
9, 41879, Note_on_c, 11, 74, 0
9, 41880, Note_on_c, 11, 72, 76
9, 41984, Note_on_c, 11, 72, 0
9, 42000, Note_on_c, 11, 79, 76
9, 42704, Note_on_c, 11, 79, 0
9, 42720, Note_on_c, 11, 77, 76
9, 42824, Note_on_c, 11, 77, 0
9, 42840, Note_on_c, 11, 76, 76
9, 42944, Note_on_c, 11, 76, 0
9, 42960, Note_on_c, 11, 77, 76
9, 43304, Note_on_c, 11, 77, 0
9, 43320, Note_on_c, 11, 79, 76
9, 43424, Note_on_c, 11, 79, 0
9, 43440, Note_on_c, 11, 81, 76
9, 43784, Note_on_c, 11, 81, 0
9, 43800, Note_on_c, 11, 79, 76
9, 43904, Note_on_c, 11, 79, 0
9, 43920, Note_on_c, 11, 77, 76
9, 44144, Note_on_c, 11, 77, 0
9, 44160, Note_on_c, 11, 76, 76
9, 44264, Note_on_c, 11, 76, 0
9, 44280, Note_on_c, 11, 74, 76
9, 44384, Note_on_c, 11, 74, 0
9, 44400, Note_on_c, 11, 76, 76
9, 44744, Note_on_c, 11, 76, 0
9, 44760, Note_on_c, 11, 77, 76
9, 44864, Note_on_c, 11, 77, 0
9, 44880, Note_on_c, 11, 79, 76
9, 45224, Note_on_c, 11, 79, 0
9, 45240, Note_on_c, 11, 77, 76
9, 45344, Note_on_c, 11, 77, 0
9, 45360, Note_on_c, 11, 76, 76
9, 45464, Note_on_c, 11, 76, 0
9, 45480, Note_on_c, 11, 74, 76
9, 45584, Note_on_c, 11, 74, 0
9, 45600, Note_on_c, 11, 76, 76
9, 45704, Note_on_c, 11, 76, 0
9, 45720, Note_on_c, 11, 72, 76
9, 45824, Note_on_c, 11, 72, 0
9, 45840, Note_on_c, 11, 74, 76
9, 46184, Note_on_c, 11, 74, 0
9, 46200, Note_on_c, 11, 76, 76
9, 46304, Note_on_c, 11, 76, 0
9, 46320, Note_on_c, 11, 77, 76
9, 46664, Note_on_c, 11, 77, 0
9, 46680, Note_on_c, 11, 76, 76
9, 46784, Note_on_c, 11, 76, 0
9, 46800, Note_on_c, 11, 74, 76
9, 46919, Note_on_c, 11, 74, 0
9, 46920, Note_on_c, 11, 72, 76
9, 47039, Note_on_c, 11, 72, 0
9, 47040, Note_on_c, 11, 71, 76
9, 47159, Note_on_c, 11, 71, 0
9, 47160, Note_on_c, 11, 72, 76
9, 47279, Note_on_c, 11, 72, 0
9, 47280, Note_on_c, 11, 74, 76
9, 47399, Note_on_c, 11, 74, 0
9, 47400, Note_on_c, 11, 71, 76
9, 47519, Note_on_c, 11, 71, 0
9, 47520, Note_on_c, 11, 72, 76
9, 47639, Note_on_c, 11, 72, 0
9, 47640, Note_on_c, 11, 74, 76
9, 47744, Note_on_c, 11, 74, 0
9, 47760, Note_on_c, 11, 67, 76
9, 48104, Note_on_c, 11, 67, 0
9, 48120, Note_on_c, 11, 69, 76
9, 48224, Note_on_c, 11, 69, 0
9, 48240, Note_on_c, 11, 71, 76
9, 48344, Note_on_c, 11, 71, 0
9, 48360, Note_on_c, 11, 72, 76
9, 48464, Note_on_c, 11, 72, 0
9, 48480, Note_on_c, 11, 74, 76
9, 48584, Note_on_c, 11, 74, 0
9, 48600, Note_on_c, 11, 76, 76
9, 48704, Note_on_c, 11, 76, 0
9, 48720, Note_on_c, 11, 77, 76
9, 48824, Note_on_c, 11, 77, 0
9, 48840, Note_on_c, 11, 74, 76
9, 48944, Note_on_c, 11, 74, 0
9, 48960, Note_on_c, 11, 79, 76
9, 49184, Note_on_c, 11, 79, 0
9, 49200, Note_on_c, 11, 76, 76
9, 49544, Note_on_c, 11, 76, 0
9, 49560, Note_on_c, 11, 74, 76
9, 49664, Note_on_c, 11, 74, 0
9, 49680, Note_on_c, 11, 72, 76
9, 49784, Note_on_c, 11, 72, 0
9, 49800, Note_on_c, 11, 71, 76
9, 49904, Note_on_c, 11, 71, 0
9, 49920, Note_on_c, 11, 72, 76
9, 50024, Note_on_c, 11, 72, 0
9, 50040, Note_on_c, 11, 69, 76
9, 50144, Note_on_c, 11, 69, 0
9, 50160, Note_on_c, 11, 71, 76
9, 50189, Note_on_c, 11, 71, 0
9, 50190, Note_on_c, 11, 72, 76
9, 50219, Note_on_c, 11, 72, 0
9, 50220, Note_on_c, 11, 71, 76
9, 50249, Note_on_c, 11, 71, 0
9, 50250, Note_on_c, 11, 72, 76
9, 50279, Note_on_c, 11, 72, 0
9, 50280, Note_on_c, 11, 71, 76
9, 50309, Note_on_c, 11, 71, 0
9, 50310, Note_on_c, 11, 72, 76
9, 50339, Note_on_c, 11, 72, 0
9, 50340, Note_on_c, 11, 71, 76
9, 50369, Note_on_c, 11, 71, 0
9, 50370, Note_on_c, 11, 72, 76
9, 50399, Note_on_c, 11, 72, 0
9, 50400, Note_on_c, 11, 71, 76
9, 50429, Note_on_c, 11, 71, 0
9, 50430, Note_on_c, 11, 72, 76
9, 50459, Note_on_c, 11, 72, 0
9, 50460, Note_on_c, 11, 69, 76
9, 50489, Note_on_c, 11, 69, 0
9, 50490, Note_on_c, 11, 71, 76
9, 50519, Note_on_c, 11, 71, 0
9, 50520, Note_on_c, 11, 72, 76
9, 50624, Note_on_c, 11, 72, 0
9, 50640, Note_on_c, 11, 72, 76
9, 51839, Note_on_c, 11, 72, 0
9, 51960, Note_on_c, 11, 74, 76
9, 52064, Note_on_c, 11, 74, 0
9, 52080, Note_on_c, 11, 74, 76
9, 52184, Note_on_c, 11, 74, 0
9, 52200, Note_on_c, 11, 72, 76
9, 52304, Note_on_c, 11, 72, 0
9, 52320, Note_on_c, 11, 74, 76
9, 52424, Note_on_c, 11, 74, 0
9, 52440, Note_on_c, 11, 76, 76
9, 52544, Note_on_c, 11, 76, 0
9, 52560, Note_on_c, 11, 77, 76
9, 52904, Note_on_c, 11, 77, 0
9, 52920, Note_on_c, 11, 79, 76
9, 53024, Note_on_c, 11, 79, 0
9, 53040, Note_on_c, 11, 76, 76
9, 53069, Note_on_c, 11, 76, 0
9, 53070, Note_on_c, 11, 77, 76
9, 53099, Note_on_c, 11, 77, 0
9, 53100, Note_on_c, 11, 76, 76
9, 53129, Note_on_c, 11, 76, 0
9, 53130, Note_on_c, 11, 77, 76
9, 53159, Note_on_c, 11, 77, 0
9, 53160, Note_on_c, 11, 76, 76
9, 53189, Note_on_c, 11, 76, 0
9, 53190, Note_on_c, 11, 77, 76
9, 53219, Note_on_c, 11, 77, 0
9, 53220, Note_on_c, 11, 76, 76
9, 53249, Note_on_c, 11, 76, 0
9, 53250, Note_on_c, 11, 77, 76
9, 53279, Note_on_c, 11, 77, 0
9, 53280, Note_on_c, 11, 76, 76
9, 53309, Note_on_c, 11, 76, 0
9, 53310, Note_on_c, 11, 77, 76
9, 53339, Note_on_c, 11, 77, 0
9, 53340, Note_on_c, 11, 74, 76
9, 53369, Note_on_c, 11, 74, 0
9, 53370, Note_on_c, 11, 76, 76
9, 53399, Note_on_c, 11, 76, 0
9, 53400, Note_on_c, 11, 74, 76
9, 53504, Note_on_c, 11, 74, 0
9, 53520, Note_on_c, 11, 81, 76
9, 54224, Note_on_c, 11, 81, 0
9, 54240, Note_on_c, 11, 79, 76
9, 54344, Note_on_c, 11, 79, 0
9, 54360, Note_on_c, 11, 77, 76
9, 54464, Note_on_c, 11, 77, 0
9, 54480, Note_on_c, 11, 79, 76
9, 54824, Note_on_c, 11, 79, 0
9, 54840, Note_on_c, 11, 81, 76
9, 54944, Note_on_c, 11, 81, 0
9, 54960, Note_on_c, 11, 82, 76
9, 55304, Note_on_c, 11, 82, 0
9, 55320, Note_on_c, 11, 81, 76
9, 55424, Note_on_c, 11, 81, 0
9, 55440, Note_on_c, 11, 79, 76
9, 55664, Note_on_c, 11, 79, 0
9, 55680, Note_on_c, 11, 77, 76
9, 55784, Note_on_c, 11, 77, 0
9, 55800, Note_on_c, 11, 76, 76
9, 55904, Note_on_c, 11, 76, 0
9, 55920, Note_on_c, 11, 77, 76
9, 56264, Note_on_c, 11, 77, 0
9, 56280, Note_on_c, 11, 79, 76
9, 56384, Note_on_c, 11, 79, 0
9, 56400, Note_on_c, 11, 74, 76
9, 56519, Note_on_c, 11, 74, 0
9, 56520, Note_on_c, 11, 73, 76
9, 56639, Note_on_c, 11, 73, 0
9, 56640, Note_on_c, 11, 71, 76
9, 56759, Note_on_c, 11, 71, 0
9, 56760, Note_on_c, 11, 69, 76
9, 56879, Note_on_c, 11, 69, 0
9, 56880, Note_on_c, 11, 71, 76
9, 56999, Note_on_c, 11, 71, 0
9, 57000, Note_on_c, 11, 73, 76
9, 57119, Note_on_c, 11, 73, 0
9, 57120, Note_on_c, 11, 74, 76
9, 57239, Note_on_c, 11, 74, 0
9, 57240, Note_on_c, 11, 76, 76
9, 57344, Note_on_c, 11, 76, 0
9, 57360, Note_on_c, 11, 76, 76
9, 57389, Note_on_c, 11, 76, 0
9, 57390, Note_on_c, 11, 77, 76
9, 57419, Note_on_c, 11, 77, 0
9, 57420, Note_on_c, 11, 76, 76
9, 57449, Note_on_c, 11, 76, 0
9, 57450, Note_on_c, 11, 77, 76
9, 57479, Note_on_c, 11, 77, 0
9, 57480, Note_on_c, 11, 76, 76
9, 57509, Note_on_c, 11, 76, 0
9, 57510, Note_on_c, 11, 77, 76
9, 57539, Note_on_c, 11, 77, 0
9, 57540, Note_on_c, 11, 76, 76
9, 57569, Note_on_c, 11, 76, 0
9, 57570, Note_on_c, 11, 77, 76
9, 57599, Note_on_c, 11, 77, 0
9, 57600, Note_on_c, 11, 76, 76
9, 57629, Note_on_c, 11, 76, 0
9, 57630, Note_on_c, 11, 77, 76
9, 57659, Note_on_c, 11, 77, 0
9, 57660, Note_on_c, 11, 76, 76
9, 57689, Note_on_c, 11, 76, 0
9, 57690, Note_on_c, 11, 77, 76
9, 57719, Note_on_c, 11, 77, 0
9, 57720, Note_on_c, 11, 74, 76
9, 57764, Note_on_c, 11, 74, 0
9, 57780, Note_on_c, 11, 76, 76
9, 57824, Note_on_c, 11, 76, 0
9, 57840, Note_on_c, 11, 77, 76
9, 58184, Note_on_c, 11, 77, 0
9, 58200, Note_on_c, 11, 76, 76
9, 58304, Note_on_c, 11, 76, 0
9, 58320, Note_on_c, 11, 74, 76
9, 58544, Note_on_c, 11, 74, 0
9, 58560, Note_on_c, 11, 72, 76
9, 58664, Note_on_c, 11, 72, 0
9, 58680, Note_on_c, 11, 71, 76
9, 58784, Note_on_c, 11, 71, 0
9, 58800, Note_on_c, 11, 72, 76
9, 59144, Note_on_c, 11, 72, 0
9, 59160, Note_on_c, 11, 74, 76
9, 59264, Note_on_c, 11, 74, 0
9, 59280, Note_on_c, 11, 76, 76
9, 59624, Note_on_c, 11, 76, 0
9, 59640, Note_on_c, 11, 78, 76
9, 59744, Note_on_c, 11, 78, 0
9, 59760, Note_on_c, 11, 80, 76
9, 59984, Note_on_c, 11, 80, 0
9, 60000, Note_on_c, 11, 81, 76
9, 60224, Note_on_c, 11, 81, 0
9, 60240, Note_on_c, 11, 71, 76
9, 60584, Note_on_c, 11, 71, 0
9, 60600, Note_on_c, 11, 72, 76
9, 60704, Note_on_c, 11, 72, 0
9, 60720, Note_on_c, 11, 74, 76
9, 61064, Note_on_c, 11, 74, 0
9, 61080, Note_on_c, 11, 76, 76
9, 61184, Note_on_c, 11, 76, 0
9, 61200, Note_on_c, 11, 72, 76
9, 61544, Note_on_c, 11, 72, 0
9, 61560, Note_on_c, 11, 71, 76
9, 61664, Note_on_c, 11, 71, 0
9, 61680, Note_on_c, 11, 71, 76
9, 61709, Note_on_c, 11, 71, 0
9, 61710, Note_on_c, 11, 72, 76
9, 61739, Note_on_c, 11, 72, 0
9, 61740, Note_on_c, 11, 71, 76
9, 61769, Note_on_c, 11, 71, 0
9, 61770, Note_on_c, 11, 72, 76
9, 61799, Note_on_c, 11, 72, 0
9, 61800, Note_on_c, 11, 71, 76
9, 61829, Note_on_c, 11, 71, 0
9, 61830, Note_on_c, 11, 72, 76
9, 61859, Note_on_c, 11, 72, 0
9, 61860, Note_on_c, 11, 71, 76
9, 61889, Note_on_c, 11, 71, 0
9, 61890, Note_on_c, 11, 72, 76
9, 61919, Note_on_c, 11, 72, 0
9, 61920, Note_on_c, 11, 71, 76
9, 61949, Note_on_c, 11, 71, 0
9, 61950, Note_on_c, 11, 72, 76
9, 61979, Note_on_c, 11, 72, 0
9, 61980, Note_on_c, 11, 69, 76
9, 62009, Note_on_c, 11, 69, 0
9, 62010, Note_on_c, 11, 71, 76
9, 62039, Note_on_c, 11, 71, 0
9, 62040, Note_on_c, 11, 69, 76
9, 62144, Note_on_c, 11, 69, 0
9, 62160, Note_on_c, 11, 69, 76
9, 62744, Note_on_c, 11, 69, 0
9, 62760, Note_on_c, 11, 71, 76
9, 62864, Note_on_c, 11, 71, 0
9, 62880, Note_on_c, 11, 72, 76
9, 62984, Note_on_c, 11, 72, 0
9, 63000, Note_on_c, 11, 74, 76
9, 63104, Note_on_c, 11, 74, 0
9, 63120, Note_on_c, 11, 76, 76
9, 63224, Note_on_c, 11, 76, 0
9, 63240, Note_on_c, 11, 77, 76
9, 63344, Note_on_c, 11, 77, 0
9, 63360, Note_on_c, 11, 77, 76
9, 63389, Note_on_c, 11, 77, 0
9, 63390, Note_on_c, 11, 79, 76
9, 63419, Note_on_c, 11, 79, 0
9, 63420, Note_on_c, 11, 77, 76
9, 63449, Note_on_c, 11, 77, 0
9, 63450, Note_on_c, 11, 79, 76
9, 63479, Note_on_c, 11, 79, 0
9, 63480, Note_on_c, 11, 77, 76
9, 63509, Note_on_c, 11, 77, 0
9, 63510, Note_on_c, 11, 79, 76
9, 63539, Note_on_c, 11, 79, 0
9, 63540, Note_on_c, 11, 76, 76
9, 63569, Note_on_c, 11, 76, 0
9, 63570, Note_on_c, 11, 77, 76
9, 63599, Note_on_c, 11, 77, 0
9, 63600, Note_on_c, 11, 79, 76
9, 63944, Note_on_c, 11, 79, 0
9, 63960, Note_on_c, 11, 77, 76
9, 64064, Note_on_c, 11, 77, 0
9, 64080, Note_on_c, 11, 76, 76
9, 64304, Note_on_c, 11, 76, 0
9, 64320, Note_on_c, 11, 74, 76
9, 64424, Note_on_c, 11, 74, 0
9, 64440, Note_on_c, 11, 72, 76
9, 64544, Note_on_c, 11, 72, 0
9, 64560, Note_on_c, 11, 70, 76
9, 64664, Note_on_c, 11, 70, 0
9, 64680, Note_on_c, 11, 69, 76
9, 64784, Note_on_c, 11, 69, 0
9, 64800, Note_on_c, 11, 70, 76
9, 64904, Note_on_c, 11, 70, 0
9, 64920, Note_on_c, 11, 67, 76
9, 65024, Note_on_c, 11, 67, 0
9, 65040, Note_on_c, 11, 69, 76
9, 65384, Note_on_c, 11, 69, 0
9, 65400, Note_on_c, 11, 67, 76
9, 65504, Note_on_c, 11, 67, 0
9, 65520, Note_on_c, 11, 65, 76
9, 65744, Note_on_c, 11, 65, 0
9, 65760, Note_on_c, 11, 69, 76
9, 65984, Note_on_c, 11, 69, 0
9, 66000, Note_on_c, 11, 74, 76
9, 66344, Note_on_c, 11, 74, 0
9, 66360, Note_on_c, 11, 76, 76
9, 66464, Note_on_c, 11, 76, 0
9, 66480, Note_on_c, 11, 77, 76
9, 66824, Note_on_c, 11, 77, 0
9, 66840, Note_on_c, 11, 79, 76
9, 66959, Note_on_c, 11, 79, 0
9, 66960, Note_on_c, 11, 81, 76
9, 67079, Note_on_c, 11, 81, 0
9, 67080, Note_on_c, 11, 79, 76
9, 67199, Note_on_c, 11, 79, 0
9, 67200, Note_on_c, 11, 77, 76
9, 67319, Note_on_c, 11, 77, 0
9, 67320, Note_on_c, 11, 76, 76
9, 67439, Note_on_c, 11, 76, 0
9, 67440, Note_on_c, 11, 74, 76
9, 67559, Note_on_c, 11, 74, 0
9, 67560, Note_on_c, 11, 72, 76
9, 67679, Note_on_c, 11, 72, 0
9, 67680, Note_on_c, 11, 71, 76
9, 67799, Note_on_c, 11, 71, 0
9, 67800, Note_on_c, 11, 72, 76
9, 67904, Note_on_c, 11, 72, 0
9, 67920, Note_on_c, 11, 71, 76
9, 67949, Note_on_c, 11, 71, 0
9, 67950, Note_on_c, 11, 72, 76
9, 67979, Note_on_c, 11, 72, 0
9, 67980, Note_on_c, 11, 71, 76
9, 68009, Note_on_c, 11, 71, 0
9, 68010, Note_on_c, 11, 72, 76
9, 68039, Note_on_c, 11, 72, 0
9, 68040, Note_on_c, 11, 71, 76
9, 68069, Note_on_c, 11, 71, 0
9, 68070, Note_on_c, 11, 72, 76
9, 68099, Note_on_c, 11, 72, 0
9, 68100, Note_on_c, 11, 71, 76
9, 68129, Note_on_c, 11, 71, 0
9, 68130, Note_on_c, 11, 72, 76
9, 68159, Note_on_c, 11, 72, 0
9, 68160, Note_on_c, 11, 71, 76
9, 68189, Note_on_c, 11, 71, 0
9, 68190, Note_on_c, 11, 72, 76
9, 68219, Note_on_c, 11, 72, 0
9, 68220, Note_on_c, 11, 69, 76
9, 68249, Note_on_c, 11, 69, 0
9, 68250, Note_on_c, 11, 71, 76
9, 68279, Note_on_c, 11, 71, 0
9, 68280, Note_on_c, 11, 72, 76
9, 68384, Note_on_c, 11, 72, 0
9, 68400, Note_on_c, 11, 74, 76
9, 68624, Note_on_c, 11, 74, 0
9, 68640, Note_on_c, 11, 72, 76
9, 68744, Note_on_c, 11, 72, 0
9, 68760, Note_on_c, 11, 71, 76
9, 68864, Note_on_c, 11, 71, 0
9, 68880, Note_on_c, 11, 69, 76
9, 68984, Note_on_c, 11, 69, 0
9, 69000, Note_on_c, 11, 67, 76
9, 69104, Note_on_c, 11, 67, 0
9, 69120, Note_on_c, 11, 69, 76
9, 69224, Note_on_c, 11, 69, 0
9, 69240, Note_on_c, 11, 71, 76
9, 69344, Note_on_c, 11, 71, 0
9, 69360, Note_on_c, 11, 72, 76
9, 69464, Note_on_c, 11, 72, 0
9, 69480, Note_on_c, 11, 71, 76
9, 69584, Note_on_c, 11, 71, 0
9, 69600, Note_on_c, 11, 72, 76
9, 69704, Note_on_c, 11, 72, 0
9, 69720, Note_on_c, 11, 74, 76
9, 69824, Note_on_c, 11, 74, 0
9, 69840, Note_on_c, 11, 76, 76
9, 70184, Note_on_c, 11, 76, 0
9, 70200, Note_on_c, 11, 77, 76
9, 70304, Note_on_c, 11, 77, 0
9, 70320, Note_on_c, 11, 74, 76
9, 70349, Note_on_c, 11, 74, 0
9, 70350, Note_on_c, 11, 76, 76
9, 70379, Note_on_c, 11, 76, 0
9, 70380, Note_on_c, 11, 74, 76
9, 70409, Note_on_c, 11, 74, 0
9, 70410, Note_on_c, 11, 76, 76
9, 70439, Note_on_c, 11, 76, 0
9, 70440, Note_on_c, 11, 74, 76
9, 70469, Note_on_c, 11, 74, 0
9, 70470, Note_on_c, 11, 76, 76
9, 70499, Note_on_c, 11, 76, 0
9, 70500, Note_on_c, 11, 74, 76
9, 70529, Note_on_c, 11, 74, 0
9, 70530, Note_on_c, 11, 76, 76
9, 70559, Note_on_c, 11, 76, 0
9, 70560, Note_on_c, 11, 74, 76
9, 70589, Note_on_c, 11, 74, 0
9, 70590, Note_on_c, 11, 76, 76
9, 70619, Note_on_c, 11, 76, 0
9, 70620, Note_on_c, 11, 72, 76
9, 70649, Note_on_c, 11, 72, 0
9, 70650, Note_on_c, 11, 74, 76
9, 70679, Note_on_c, 11, 74, 0
9, 70680, Note_on_c, 11, 72, 76
9, 70784, Note_on_c, 11, 72, 0
9, 70800, Note_on_c, 11, 79, 76
9, 71504, Note_on_c, 11, 79, 0
9, 71520, Note_on_c, 11, 77, 76
9, 71624, Note_on_c, 11, 77, 0
9, 71640, Note_on_c, 11, 76, 76
9, 71744, Note_on_c, 11, 76, 0
9, 71760, Note_on_c, 11, 77, 76
9, 72104, Note_on_c, 11, 77, 0
9, 72120, Note_on_c, 11, 79, 76
9, 72224, Note_on_c, 11, 79, 0
9, 72240, Note_on_c, 11, 81, 76
9, 72584, Note_on_c, 11, 81, 0
9, 72600, Note_on_c, 11, 79, 76
9, 72704, Note_on_c, 11, 79, 0
9, 72720, Note_on_c, 11, 77, 76
9, 72944, Note_on_c, 11, 77, 0
9, 72960, Note_on_c, 11, 76, 76
9, 73064, Note_on_c, 11, 76, 0
9, 73080, Note_on_c, 11, 74, 76
9, 73184, Note_on_c, 11, 74, 0
9, 73200, Note_on_c, 11, 76, 76
9, 73544, Note_on_c, 11, 76, 0
9, 73560, Note_on_c, 11, 77, 76
9, 73664, Note_on_c, 11, 77, 0
9, 73680, Note_on_c, 11, 79, 76
9, 74024, Note_on_c, 11, 79, 0
9, 74040, Note_on_c, 11, 77, 76
9, 74144, Note_on_c, 11, 77, 0
9, 74160, Note_on_c, 11, 76, 76
9, 74264, Note_on_c, 11, 76, 0
9, 74280, Note_on_c, 11, 74, 76
9, 74384, Note_on_c, 11, 74, 0
9, 74400, Note_on_c, 11, 76, 76
9, 74504, Note_on_c, 11, 76, 0
9, 74520, Note_on_c, 11, 72, 76
9, 74624, Note_on_c, 11, 72, 0
9, 74640, Note_on_c, 11, 74, 76
9, 74984, Note_on_c, 11, 74, 0
9, 75000, Note_on_c, 11, 76, 76
9, 75104, Note_on_c, 11, 76, 0
9, 75120, Note_on_c, 11, 77, 76
9, 75464, Note_on_c, 11, 77, 0
9, 75480, Note_on_c, 11, 76, 76
9, 75584, Note_on_c, 11, 76, 0
9, 75600, Note_on_c, 11, 74, 76
9, 75719, Note_on_c, 11, 74, 0
9, 75720, Note_on_c, 11, 72, 76
9, 75839, Note_on_c, 11, 72, 0
9, 75840, Note_on_c, 11, 71, 76
9, 75959, Note_on_c, 11, 71, 0
9, 75960, Note_on_c, 11, 72, 76
9, 76079, Note_on_c, 11, 72, 0
9, 76080, Note_on_c, 11, 74, 76
9, 76199, Note_on_c, 11, 74, 0
9, 76200, Note_on_c, 11, 71, 76
9, 76319, Note_on_c, 11, 71, 0
9, 76320, Note_on_c, 11, 72, 76
9, 76439, Note_on_c, 11, 72, 0
9, 76440, Note_on_c, 11, 74, 76
9, 76544, Note_on_c, 11, 74, 0
9, 76560, Note_on_c, 11, 67, 76
9, 76904, Note_on_c, 11, 67, 0
9, 76920, Note_on_c, 11, 69, 76
9, 77024, Note_on_c, 11, 69, 0
9, 77040, Note_on_c, 11, 71, 76
9, 77144, Note_on_c, 11, 71, 0
9, 77160, Note_on_c, 11, 72, 76
9, 77264, Note_on_c, 11, 72, 0
9, 77280, Note_on_c, 11, 74, 76
9, 77384, Note_on_c, 11, 74, 0
9, 77400, Note_on_c, 11, 76, 76
9, 77504, Note_on_c, 11, 76, 0
9, 77520, Note_on_c, 11, 77, 76
9, 77624, Note_on_c, 11, 77, 0
9, 77640, Note_on_c, 11, 74, 76
9, 77744, Note_on_c, 11, 74, 0
9, 77760, Note_on_c, 11, 79, 76
9, 77984, Note_on_c, 11, 79, 0
9, 78000, Note_on_c, 11, 76, 76
9, 78344, Note_on_c, 11, 76, 0
9, 78360, Note_on_c, 11, 74, 76
9, 78464, Note_on_c, 11, 74, 0
9, 78480, Note_on_c, 11, 72, 76
9, 78584, Note_on_c, 11, 72, 0
9, 78600, Note_on_c, 11, 71, 76
9, 78704, Note_on_c, 11, 71, 0
9, 78720, Note_on_c, 11, 72, 76
9, 78824, Note_on_c, 11, 72, 0
9, 78840, Note_on_c, 11, 69, 76
9, 78944, Note_on_c, 11, 69, 0
9, 78960, Note_on_c, 11, 71, 76
9, 78989, Note_on_c, 11, 71, 0
9, 78990, Note_on_c, 11, 72, 76
9, 79019, Note_on_c, 11, 72, 0
9, 79020, Note_on_c, 11, 71, 76
9, 79049, Note_on_c, 11, 71, 0
9, 79050, Note_on_c, 11, 72, 76
9, 79079, Note_on_c, 11, 72, 0
9, 79080, Note_on_c, 11, 71, 76
9, 79109, Note_on_c, 11, 71, 0
9, 79110, Note_on_c, 11, 72, 76
9, 79139, Note_on_c, 11, 72, 0
9, 79140, Note_on_c, 11, 71, 76
9, 79169, Note_on_c, 11, 71, 0
9, 79170, Note_on_c, 11, 72, 76
9, 79199, Note_on_c, 11, 72, 0
9, 79200, Note_on_c, 11, 71, 76
9, 79229, Note_on_c, 11, 71, 0
9, 79230, Note_on_c, 11, 72, 76
9, 79259, Note_on_c, 11, 72, 0
9, 79260, Note_on_c, 11, 69, 76
9, 79289, Note_on_c, 11, 69, 0
9, 79290, Note_on_c, 11, 71, 76
9, 79319, Note_on_c, 11, 71, 0
9, 79320, Note_on_c, 11, 72, 76
9, 79424, Note_on_c, 11, 72, 0
9, 79440, Note_on_c, 11, 72, 76
9, 80639, Note_on_c, 11, 72, 0
9, 80639, End_track
10, 0, Start_track
10, 0, Title_t, "Violin II"
10, 0, MIDI_port, 0
10, 0, Program_c, 12, 48
10, 0, Control_c, 12, 10, 24
10, 0, Control_c, 12, 11, 127
10, 0, Control_c, 12, 7, 96
10, 120, Note_on_c, 12, 67, 76
10, 224, Note_on_c, 12, 67, 0
10, 240, Note_on_c, 12, 67, 76
10, 704, Note_on_c, 12, 67, 0
10, 720, Note_on_c, 12, 72, 76
10, 1184, Note_on_c, 12, 72, 0
10, 1200, Note_on_c, 12, 71, 76
10, 1229, Note_on_c, 12, 71, 0
10, 1230, Note_on_c, 12, 72, 76
10, 1259, Note_on_c, 12, 72, 0
10, 1260, Note_on_c, 12, 71, 76
10, 1289, Note_on_c, 12, 71, 0
10, 1290, Note_on_c, 12, 72, 76
10, 1319, Note_on_c, 12, 72, 0
10, 1320, Note_on_c, 12, 71, 76
10, 1349, Note_on_c, 12, 71, 0
10, 1350, Note_on_c, 12, 72, 76
10, 1379, Note_on_c, 12, 72, 0
10, 1380, Note_on_c, 12, 71, 76
10, 1409, Note_on_c, 12, 71, 0
10, 1410, Note_on_c, 12, 72, 76
10, 1439, Note_on_c, 12, 72, 0
10, 1440, Note_on_c, 12, 71, 76
10, 1469, Note_on_c, 12, 71, 0
10, 1470, Note_on_c, 12, 72, 76
10, 1499, Note_on_c, 12, 72, 0
10, 1500, Note_on_c, 12, 69, 76
10, 1529, Note_on_c, 12, 69, 0
10, 1530, Note_on_c, 12, 71, 76
10, 1559, Note_on_c, 12, 71, 0
10, 1560, Note_on_c, 12, 72, 76
10, 1664, Note_on_c, 12, 72, 0
10, 1680, Note_on_c, 12, 72, 76
10, 1784, Note_on_c, 12, 72, 0
10, 1800, Note_on_c, 12, 71, 76
10, 1904, Note_on_c, 12, 71, 0
10, 1920, Note_on_c, 12, 72, 76
10, 2024, Note_on_c, 12, 72, 0
10, 2040, Note_on_c, 12, 74, 76
10, 2144, Note_on_c, 12, 74, 0
10, 2160, Note_on_c, 12, 76, 76
10, 2384, Note_on_c, 12, 76, 0
10, 2400, Note_on_c, 12, 74, 76
10, 2504, Note_on_c, 12, 74, 0
10, 2520, Note_on_c, 12, 72, 76
10, 2624, Note_on_c, 12, 72, 0
10, 2640, Note_on_c, 12, 74, 76
10, 2984, Note_on_c, 12, 74, 0
10, 3000, Note_on_c, 12, 76, 76
10, 3104, Note_on_c, 12, 76, 0
10, 3120, Note_on_c, 12, 77, 76
10, 3344, Note_on_c, 12, 77, 0
10, 3360, Note_on_c, 12, 69, 76
10, 3584, Note_on_c, 12, 69, 0
10, 3600, Note_on_c, 12, 71, 76
10, 3824, Note_on_c, 12, 71, 0
10, 3840, Note_on_c, 12, 74, 76
10, 4064, Note_on_c, 12, 74, 0
10, 4080, Note_on_c, 12, 67, 76
10, 4304, Note_on_c, 12, 67, 0
10, 4320, Note_on_c, 12, 69, 76
10, 4544, Note_on_c, 12, 69, 0
10, 4560, Note_on_c, 12, 62, 76
10, 5264, Note_on_c, 12, 62, 0
10, 5280, Note_on_c, 12, 67, 76
10, 5504, Note_on_c, 12, 67, 0
10, 5520, Note_on_c, 12, 69, 76
10, 5744, Note_on_c, 12, 69, 0
10, 5760, Note_on_c, 12, 67, 76
10, 5984, Note_on_c, 12, 67, 0
10, 6000, Note_on_c, 12, 67, 76
10, 6224, Note_on_c, 12, 67, 0
10, 6240, Note_on_c, 12, 68, 76
10, 6464, Note_on_c, 12, 68, 0
10, 6480, Note_on_c, 12, 69, 76
10, 6704, Note_on_c, 12, 69, 0
10, 6720, Note_on_c, 12, 66, 76
10, 6944, Note_on_c, 12, 66, 0
10, 6960, Note_on_c, 12, 67, 76
10, 7304, Note_on_c, 12, 67, 0
10, 7320, Note_on_c, 12, 69, 76
10, 7424, Note_on_c, 12, 69, 0
10, 7440, Note_on_c, 12, 62, 76
10, 7664, Note_on_c, 12, 62, 0
10, 7680, Note_on_c, 12, 67, 76
10, 7904, Note_on_c, 12, 67, 0
10, 7920, Note_on_c, 12, 69, 76
10, 8144, Note_on_c, 12, 69, 0
10, 8160, Note_on_c, 12, 71, 76
10, 8384, Note_on_c, 12, 71, 0
10, 8400, Note_on_c, 12, 69, 76
10, 8624, Note_on_c, 12, 69, 0
10, 8640, Note_on_c, 12, 67, 76
10, 8864, Note_on_c, 12, 67, 0
10, 8880, Note_on_c, 12, 67, 76
10, 9104, Note_on_c, 12, 67, 0
10, 9120, Note_on_c, 12, 69, 76
10, 9344, Note_on_c, 12, 69, 0
10, 9360, Note_on_c, 12, 67, 76
10, 9584, Note_on_c, 12, 67, 0
10, 9600, Note_on_c, 12, 64, 76
10, 9824, Note_on_c, 12, 64, 0
10, 9840, Note_on_c, 12, 62, 76
10, 10304, Note_on_c, 12, 62, 0
10, 10320, Note_on_c, 12, 62, 76
10, 11519, Note_on_c, 12, 62, 0
10, 11640, Note_on_c, 12, 67, 76
10, 11744, Note_on_c, 12, 67, 0
10, 11760, Note_on_c, 12, 67, 76
10, 12224, Note_on_c, 12, 67, 0
10, 12240, Note_on_c, 12, 72, 76
10, 12704, Note_on_c, 12, 72, 0
10, 12720, Note_on_c, 12, 71, 76
10, 12749, Note_on_c, 12, 71, 0
10, 12750, Note_on_c, 12, 72, 76
10, 12779, Note_on_c, 12, 72, 0
10, 12780, Note_on_c, 12, 71, 76
10, 12809, Note_on_c, 12, 71, 0
10, 12810, Note_on_c, 12, 72, 76
10, 12839, Note_on_c, 12, 72, 0
10, 12840, Note_on_c, 12, 71, 76
10, 12869, Note_on_c, 12, 71, 0
10, 12870, Note_on_c, 12, 72, 76
10, 12899, Note_on_c, 12, 72, 0
10, 12900, Note_on_c, 12, 71, 76
10, 12929, Note_on_c, 12, 71, 0
10, 12930, Note_on_c, 12, 72, 76
10, 12959, Note_on_c, 12, 72, 0
10, 12960, Note_on_c, 12, 71, 76
10, 12989, Note_on_c, 12, 71, 0
10, 12990, Note_on_c, 12, 72, 76
10, 13019, Note_on_c, 12, 72, 0
10, 13020, Note_on_c, 12, 69, 76
10, 13049, Note_on_c, 12, 69, 0
10, 13050, Note_on_c, 12, 71, 76
10, 13079, Note_on_c, 12, 71, 0
10, 13080, Note_on_c, 12, 72, 76
10, 13184, Note_on_c, 12, 72, 0
10, 13200, Note_on_c, 12, 72, 76
10, 13304, Note_on_c, 12, 72, 0
10, 13320, Note_on_c, 12, 71, 76
10, 13424, Note_on_c, 12, 71, 0
10, 13440, Note_on_c, 12, 72, 76
10, 13544, Note_on_c, 12, 72, 0
10, 13560, Note_on_c, 12, 74, 76
10, 13664, Note_on_c, 12, 74, 0
10, 13680, Note_on_c, 12, 76, 76
10, 13904, Note_on_c, 12, 76, 0
10, 13920, Note_on_c, 12, 74, 76
10, 14024, Note_on_c, 12, 74, 0
10, 14040, Note_on_c, 12, 72, 76
10, 14144, Note_on_c, 12, 72, 0
10, 14160, Note_on_c, 12, 74, 76
10, 14504, Note_on_c, 12, 74, 0
10, 14520, Note_on_c, 12, 76, 76
10, 14624, Note_on_c, 12, 76, 0
10, 14640, Note_on_c, 12, 77, 76
10, 14864, Note_on_c, 12, 77, 0
10, 14880, Note_on_c, 12, 69, 76
10, 15104, Note_on_c, 12, 69, 0
10, 15120, Note_on_c, 12, 71, 76
10, 15344, Note_on_c, 12, 71, 0
10, 15360, Note_on_c, 12, 74, 76
10, 15584, Note_on_c, 12, 74, 0
10, 15600, Note_on_c, 12, 67, 76
10, 15824, Note_on_c, 12, 67, 0
10, 15840, Note_on_c, 12, 69, 76
10, 16064, Note_on_c, 12, 69, 0
10, 16080, Note_on_c, 12, 62, 76
10, 16784, Note_on_c, 12, 62, 0
10, 16800, Note_on_c, 12, 67, 76
10, 17024, Note_on_c, 12, 67, 0
10, 17040, Note_on_c, 12, 69, 76
10, 17264, Note_on_c, 12, 69, 0
10, 17280, Note_on_c, 12, 67, 76
10, 17504, Note_on_c, 12, 67, 0
10, 17520, Note_on_c, 12, 67, 76
10, 17744, Note_on_c, 12, 67, 0
10, 17760, Note_on_c, 12, 68, 76
10, 17984, Note_on_c, 12, 68, 0
10, 18000, Note_on_c, 12, 69, 76
10, 18224, Note_on_c, 12, 69, 0
10, 18240, Note_on_c, 12, 66, 76
10, 18464, Note_on_c, 12, 66, 0
10, 18480, Note_on_c, 12, 67, 76
10, 18824, Note_on_c, 12, 67, 0
10, 18840, Note_on_c, 12, 69, 76
10, 18944, Note_on_c, 12, 69, 0
10, 18960, Note_on_c, 12, 62, 76
10, 19184, Note_on_c, 12, 62, 0
10, 19200, Note_on_c, 12, 67, 76
10, 19424, Note_on_c, 12, 67, 0
10, 19440, Note_on_c, 12, 69, 76
10, 19664, Note_on_c, 12, 69, 0
10, 19680, Note_on_c, 12, 71, 76
10, 19904, Note_on_c, 12, 71, 0
10, 19920, Note_on_c, 12, 69, 76
10, 20144, Note_on_c, 12, 69, 0
10, 20160, Note_on_c, 12, 67, 76
10, 20384, Note_on_c, 12, 67, 0
10, 20400, Note_on_c, 12, 67, 76
10, 20624, Note_on_c, 12, 67, 0
10, 20640, Note_on_c, 12, 69, 76
10, 20864, Note_on_c, 12, 69, 0
10, 20880, Note_on_c, 12, 67, 76
10, 21104, Note_on_c, 12, 67, 0
10, 21120, Note_on_c, 12, 64, 76
10, 21344, Note_on_c, 12, 64, 0
10, 21360, Note_on_c, 12, 62, 76
10, 21824, Note_on_c, 12, 62, 0
10, 21840, Note_on_c, 12, 62, 76
10, 23039, Note_on_c, 12, 62, 0
10, 23160, Note_on_c, 12, 71, 76
10, 23264, Note_on_c, 12, 71, 0
10, 23280, Note_on_c, 12, 71, 76
10, 23384, Note_on_c, 12, 71, 0
10, 23400, Note_on_c, 12, 69, 76
10, 23504, Note_on_c, 12, 69, 0
10, 23520, Note_on_c, 12, 71, 76
10, 23624, Note_on_c, 12, 71, 0
10, 23640, Note_on_c, 12, 73, 76
10, 23744, Note_on_c, 12, 73, 0
10, 23760, Note_on_c, 12, 74, 76
10, 24224, Note_on_c, 12, 74, 0
10, 24240, Note_on_c, 12, 70, 76
10, 24704, Note_on_c, 12, 70, 0
10, 24720, Note_on_c, 12, 69, 76
10, 24944, Note_on_c, 12, 69, 0
10, 24960, Note_on_c, 12, 74, 76
10, 25064, Note_on_c, 12, 74, 0
10, 25080, Note_on_c, 12, 73, 76
10, 25184, Note_on_c, 12, 73, 0
10, 25200, Note_on_c, 12, 74, 76
10, 26864, Note_on_c, 12, 74, 0
10, 26880, Note_on_c, 12, 69, 76
10, 27104, Note_on_c, 12, 69, 0
10, 27120, Note_on_c, 12, 69, 76
10, 27344, Note_on_c, 12, 69, 0
10, 27360, Note_on_c, 12, 67, 76
10, 27584, Note_on_c, 12, 67, 0
10, 27600, Note_on_c, 12, 64, 76
10, 28304, Note_on_c, 12, 64, 0
10, 28320, Note_on_c, 12, 74, 76
10, 28544, Note_on_c, 12, 74, 0
10, 28560, Note_on_c, 12, 74, 76
10, 28784, Note_on_c, 12, 74, 0
10, 28800, Note_on_c, 12, 73, 76
10, 29024, Note_on_c, 12, 73, 0
10, 29040, Note_on_c, 12, 74, 76
10, 29264, Note_on_c, 12, 74, 0
10, 29280, Note_on_c, 12, 69, 76
10, 29744, Note_on_c, 12, 69, 0
10, 29760, Note_on_c, 12, 68, 76
10, 29984, Note_on_c, 12, 68, 0
10, 30000, Note_on_c, 12, 69, 76
10, 30344, Note_on_c, 12, 69, 0
10, 30360, Note_on_c, 12, 71, 76
10, 30464, Note_on_c, 12, 71, 0
10, 30480, Note_on_c, 12, 64, 76
10, 30704, Note_on_c, 12, 64, 0
10, 30720, Note_on_c, 12, 69, 76
10, 30944, Note_on_c, 12, 69, 0
10, 30960, Note_on_c, 12, 71, 76
10, 31184, Note_on_c, 12, 71, 0
10, 31200, Note_on_c, 12, 72, 76
10, 31424, Note_on_c, 12, 72, 0
10, 31440, Note_on_c, 12, 71, 76
10, 31664, Note_on_c, 12, 71, 0
10, 31680, Note_on_c, 12, 69, 76
10, 31904, Note_on_c, 12, 69, 0
10, 31920, Note_on_c, 12, 69, 76
10, 32144, Note_on_c, 12, 69, 0
10, 32160, Note_on_c, 12, 71, 76
10, 32624, Note_on_c, 12, 71, 0
10, 32640, Note_on_c, 12, 69, 76
10, 32744, Note_on_c, 12, 69, 0
10, 32760, Note_on_c, 12, 71, 76
10, 32864, Note_on_c, 12, 71, 0
10, 32880, Note_on_c, 12, 68, 76
10, 33224, Note_on_c, 12, 68, 0
10, 33240, Note_on_c, 12, 64, 76
10, 33344, Note_on_c, 12, 64, 0
10, 33360, Note_on_c, 12, 64, 76
10, 34064, Note_on_c, 12, 64, 0
10, 34080, Note_on_c, 12, 69, 76
10, 34184, Note_on_c, 12, 69, 0
10, 34200, Note_on_c, 12, 71, 76
10, 34304, Note_on_c, 12, 71, 0
10, 34320, Note_on_c, 12, 72, 76
10, 34424, Note_on_c, 12, 72, 0
10, 34440, Note_on_c, 12, 71, 76
10, 34544, Note_on_c, 12, 71, 0
10, 34560, Note_on_c, 12, 72, 76
10, 34664, Note_on_c, 12, 72, 0
10, 34680, Note_on_c, 12, 74, 76
10, 34784, Note_on_c, 12, 74, 0
10, 34800, Note_on_c, 12, 76, 76
10, 35024, Note_on_c, 12, 76, 0
10, 35040, Note_on_c, 12, 72, 76
10, 35264, Note_on_c, 12, 72, 0
10, 35280, Note_on_c, 12, 67, 76
10, 35504, Note_on_c, 12, 67, 0
10, 35520, Note_on_c, 12, 64, 76
10, 35744, Note_on_c, 12, 64, 0
10, 35760, Note_on_c, 12, 65, 76
10, 35984, Note_on_c, 12, 65, 0
10, 36000, Note_on_c, 12, 67, 76
10, 36224, Note_on_c, 12, 67, 0
10, 36240, Note_on_c, 12, 65, 76
10, 36944, Note_on_c, 12, 65, 0
10, 36960, Note_on_c, 12, 64, 76
10, 37184, Note_on_c, 12, 64, 0
10, 37200, Note_on_c, 12, 69, 76
10, 37424, Note_on_c, 12, 69, 0
10, 37440, Note_on_c, 12, 69, 76
10, 37664, Note_on_c, 12, 69, 0
10, 37680, Note_on_c, 12, 69, 76
10, 38384, Note_on_c, 12, 69, 0
10, 38400, Note_on_c, 12, 69, 76
10, 38624, Note_on_c, 12, 69, 0
10, 38640, Note_on_c, 12, 64, 76
10, 38864, Note_on_c, 12, 64, 0
10, 38880, Note_on_c, 12, 62, 76
10, 39104, Note_on_c, 12, 62, 0
10, 39120, Note_on_c, 12, 62, 76
10, 39584, Note_on_c, 12, 62, 0
10, 39600, Note_on_c, 12, 67, 76
10, 40064, Note_on_c, 12, 67, 0
10, 40080, Note_on_c, 12, 59, 76
10, 40544, Note_on_c, 12, 59, 0
10, 40560, Note_on_c, 12, 67, 76
10, 41024, Note_on_c, 12, 67, 0
10, 41040, Note_on_c, 12, 72, 76
10, 41504, Note_on_c, 12, 72, 0
10, 41520, Note_on_c, 12, 71, 76
10, 41549, Note_on_c, 12, 71, 0
10, 41550, Note_on_c, 12, 72, 76
10, 41579, Note_on_c, 12, 72, 0
10, 41580, Note_on_c, 12, 71, 76
10, 41609, Note_on_c, 12, 71, 0
10, 41610, Note_on_c, 12, 72, 76
10, 41639, Note_on_c, 12, 72, 0
10, 41640, Note_on_c, 12, 71, 76
10, 41669, Note_on_c, 12, 71, 0
10, 41670, Note_on_c, 12, 72, 76
10, 41699, Note_on_c, 12, 72, 0
10, 41700, Note_on_c, 12, 71, 76
10, 41729, Note_on_c, 12, 71, 0
10, 41730, Note_on_c, 12, 72, 76
10, 41759, Note_on_c, 12, 72, 0
10, 41760, Note_on_c, 12, 71, 76
10, 41789, Note_on_c, 12, 71, 0
10, 41790, Note_on_c, 12, 72, 76
10, 41819, Note_on_c, 12, 72, 0
10, 41820, Note_on_c, 12, 69, 76
10, 41849, Note_on_c, 12, 69, 0
10, 41850, Note_on_c, 12, 71, 76
10, 41879, Note_on_c, 12, 71, 0
10, 41880, Note_on_c, 12, 72, 76
10, 41984, Note_on_c, 12, 72, 0
10, 42000, Note_on_c, 12, 72, 76
10, 42104, Note_on_c, 12, 72, 0
10, 42120, Note_on_c, 12, 71, 76
10, 42224, Note_on_c, 12, 71, 0
10, 42240, Note_on_c, 12, 72, 76
10, 42344, Note_on_c, 12, 72, 0
10, 42360, Note_on_c, 12, 74, 76
10, 42464, Note_on_c, 12, 74, 0
10, 42480, Note_on_c, 12, 76, 76
10, 42704, Note_on_c, 12, 76, 0
10, 42720, Note_on_c, 12, 74, 76
10, 42824, Note_on_c, 12, 74, 0
10, 42840, Note_on_c, 12, 72, 76
10, 42944, Note_on_c, 12, 72, 0
10, 42960, Note_on_c, 12, 74, 76
10, 43304, Note_on_c, 12, 74, 0
10, 43320, Note_on_c, 12, 76, 76
10, 43424, Note_on_c, 12, 76, 0
10, 43440, Note_on_c, 12, 77, 76
10, 43664, Note_on_c, 12, 77, 0
10, 43680, Note_on_c, 12, 69, 76
10, 44144, Note_on_c, 12, 69, 0
10, 44160, Note_on_c, 12, 71, 76
10, 44384, Note_on_c, 12, 71, 0
10, 44400, Note_on_c, 12, 72, 76
10, 44744, Note_on_c, 12, 72, 0
10, 44760, Note_on_c, 12, 74, 76
10, 44864, Note_on_c, 12, 74, 0
10, 44880, Note_on_c, 12, 71, 76
10, 44909, Note_on_c, 12, 71, 0
10, 44910, Note_on_c, 12, 72, 76
10, 44939, Note_on_c, 12, 72, 0
10, 44940, Note_on_c, 12, 71, 76
10, 44969, Note_on_c, 12, 71, 0
10, 44970, Note_on_c, 12, 72, 76
10, 44999, Note_on_c, 12, 72, 0
10, 45000, Note_on_c, 12, 71, 76
10, 45029, Note_on_c, 12, 71, 0
10, 45030, Note_on_c, 12, 72, 76
10, 45059, Note_on_c, 12, 72, 0
10, 45060, Note_on_c, 12, 71, 76
10, 45089, Note_on_c, 12, 71, 0
10, 45090, Note_on_c, 12, 72, 76
10, 45119, Note_on_c, 12, 72, 0
10, 45120, Note_on_c, 12, 71, 76
10, 45149, Note_on_c, 12, 71, 0
10, 45150, Note_on_c, 12, 72, 76
10, 45179, Note_on_c, 12, 72, 0
10, 45180, Note_on_c, 12, 69, 76
10, 45209, Note_on_c, 12, 69, 0
10, 45210, Note_on_c, 12, 71, 76
10, 45239, Note_on_c, 12, 71, 0
10, 45240, Note_on_c, 12, 72, 76
10, 45344, Note_on_c, 12, 72, 0
10, 45360, Note_on_c, 12, 72, 76
10, 45584, Note_on_c, 12, 72, 0
10, 45600, Note_on_c, 12, 72, 76
10, 45824, Note_on_c, 12, 72, 0
10, 45840, Note_on_c, 12, 69, 76
10, 46184, Note_on_c, 12, 69, 0
10, 46200, Note_on_c, 12, 69, 76
10, 46304, Note_on_c, 12, 69, 0
10, 46320, Note_on_c, 12, 69, 76
10, 46424, Note_on_c, 12, 69, 0
10, 46440, Note_on_c, 12, 67, 76
10, 46544, Note_on_c, 12, 67, 0
10, 46560, Note_on_c, 12, 65, 76
10, 46664, Note_on_c, 12, 65, 0
10, 46680, Note_on_c, 12, 67, 76
10, 46784, Note_on_c, 12, 67, 0
10, 46800, Note_on_c, 12, 69, 76
10, 47024, Note_on_c, 12, 69, 0
10, 47040, Note_on_c, 12, 65, 76
10, 47144, Note_on_c, 12, 65, 0
10, 47160, Note_on_c, 12, 64, 76
10, 47264, Note_on_c, 12, 64, 0
10, 47280, Note_on_c, 12, 65, 76
10, 47504, Note_on_c, 12, 65, 0
10, 47520, Note_on_c, 12, 69, 76
10, 47744, Note_on_c, 12, 69, 0
10, 47760, Note_on_c, 12, 62, 76
10, 48464, Note_on_c, 12, 62, 0
10, 48480, Note_on_c, 12, 74, 76
10, 48704, Note_on_c, 12, 74, 0
10, 48720, Note_on_c, 12, 71, 76
10, 48944, Note_on_c, 12, 71, 0
10, 48960, Note_on_c, 12, 74, 76
10, 49184, Note_on_c, 12, 74, 0
10, 49200, Note_on_c, 12, 72, 76
10, 49544, Note_on_c, 12, 72, 0
10, 49560, Note_on_c, 12, 71, 76
10, 49664, Note_on_c, 12, 71, 0
10, 49680, Note_on_c, 12, 72, 76
10, 49904, Note_on_c, 12, 72, 0
10, 49920, Note_on_c, 12, 69, 76
10, 50144, Note_on_c, 12, 69, 0
10, 50160, Note_on_c, 12, 67, 76
10, 50624, Note_on_c, 12, 67, 0
10, 50640, Note_on_c, 12, 67, 76
10, 51839, Note_on_c, 12, 67, 0
10, 51960, Note_on_c, 12, 71, 76
10, 52064, Note_on_c, 12, 71, 0
10, 52080, Note_on_c, 12, 71, 76
10, 52184, Note_on_c, 12, 71, 0
10, 52200, Note_on_c, 12, 69, 76
10, 52304, Note_on_c, 12, 69, 0
10, 52320, Note_on_c, 12, 71, 76
10, 52424, Note_on_c, 12, 71, 0
10, 52440, Note_on_c, 12, 73, 76
10, 52544, Note_on_c, 12, 73, 0
10, 52560, Note_on_c, 12, 74, 76
10, 53024, Note_on_c, 12, 74, 0
10, 53040, Note_on_c, 12, 70, 76
10, 53504, Note_on_c, 12, 70, 0
10, 53520, Note_on_c, 12, 69, 76
10, 53744, Note_on_c, 12, 69, 0
10, 53760, Note_on_c, 12, 74, 76
10, 53864, Note_on_c, 12, 74, 0
10, 53880, Note_on_c, 12, 73, 76
10, 53984, Note_on_c, 12, 73, 0
10, 54000, Note_on_c, 12, 74, 76
10, 55664, Note_on_c, 12, 74, 0
10, 55680, Note_on_c, 12, 69, 76
10, 55904, Note_on_c, 12, 69, 0
10, 55920, Note_on_c, 12, 69, 76
10, 56144, Note_on_c, 12, 69, 0
10, 56160, Note_on_c, 12, 67, 76
10, 56384, Note_on_c, 12, 67, 0
10, 56400, Note_on_c, 12, 64, 76
10, 57104, Note_on_c, 12, 64, 0
10, 57120, Note_on_c, 12, 74, 76
10, 57344, Note_on_c, 12, 74, 0
10, 57360, Note_on_c, 12, 74, 76
10, 57584, Note_on_c, 12, 74, 0
10, 57600, Note_on_c, 12, 73, 76
10, 57824, Note_on_c, 12, 73, 0
10, 57840, Note_on_c, 12, 74, 76
10, 58064, Note_on_c, 12, 74, 0
10, 58080, Note_on_c, 12, 69, 76
10, 58544, Note_on_c, 12, 69, 0
10, 58560, Note_on_c, 12, 68, 76
10, 58784, Note_on_c, 12, 68, 0
10, 58800, Note_on_c, 12, 69, 76
10, 59144, Note_on_c, 12, 69, 0
10, 59160, Note_on_c, 12, 71, 76
10, 59264, Note_on_c, 12, 71, 0
10, 59280, Note_on_c, 12, 64, 76
10, 59504, Note_on_c, 12, 64, 0
10, 59520, Note_on_c, 12, 69, 76
10, 59744, Note_on_c, 12, 69, 0
10, 59760, Note_on_c, 12, 71, 76
10, 59984, Note_on_c, 12, 71, 0
10, 60000, Note_on_c, 12, 72, 76
10, 60224, Note_on_c, 12, 72, 0
10, 60240, Note_on_c, 12, 71, 76
10, 60464, Note_on_c, 12, 71, 0
10, 60480, Note_on_c, 12, 69, 76
10, 60704, Note_on_c, 12, 69, 0
10, 60720, Note_on_c, 12, 69, 76
10, 60944, Note_on_c, 12, 69, 0
10, 60960, Note_on_c, 12, 71, 76
10, 61424, Note_on_c, 12, 71, 0
10, 61440, Note_on_c, 12, 69, 76
10, 61544, Note_on_c, 12, 69, 0
10, 61560, Note_on_c, 12, 71, 76
10, 61664, Note_on_c, 12, 71, 0
10, 61680, Note_on_c, 12, 68, 76
10, 62024, Note_on_c, 12, 68, 0
10, 62040, Note_on_c, 12, 64, 76
10, 62144, Note_on_c, 12, 64, 0
10, 62160, Note_on_c, 12, 64, 76
10, 62864, Note_on_c, 12, 64, 0
10, 62880, Note_on_c, 12, 69, 76
10, 62984, Note_on_c, 12, 69, 0
10, 63000, Note_on_c, 12, 71, 76
10, 63104, Note_on_c, 12, 71, 0
10, 63120, Note_on_c, 12, 72, 76
10, 63224, Note_on_c, 12, 72, 0
10, 63240, Note_on_c, 12, 71, 76
10, 63344, Note_on_c, 12, 71, 0
10, 63360, Note_on_c, 12, 72, 76
10, 63464, Note_on_c, 12, 72, 0
10, 63480, Note_on_c, 12, 74, 76
10, 63584, Note_on_c, 12, 74, 0
10, 63600, Note_on_c, 12, 76, 76
10, 63824, Note_on_c, 12, 76, 0
10, 63840, Note_on_c, 12, 72, 76
10, 64064, Note_on_c, 12, 72, 0
10, 64080, Note_on_c, 12, 67, 76
10, 64304, Note_on_c, 12, 67, 0
10, 64320, Note_on_c, 12, 64, 76
10, 64544, Note_on_c, 12, 64, 0
10, 64560, Note_on_c, 12, 65, 76
10, 64784, Note_on_c, 12, 65, 0
10, 64800, Note_on_c, 12, 67, 76
10, 65024, Note_on_c, 12, 67, 0
10, 65040, Note_on_c, 12, 65, 76
10, 65744, Note_on_c, 12, 65, 0
10, 65760, Note_on_c, 12, 64, 76
10, 65984, Note_on_c, 12, 64, 0
10, 66000, Note_on_c, 12, 69, 76
10, 66224, Note_on_c, 12, 69, 0
10, 66240, Note_on_c, 12, 69, 76
10, 66464, Note_on_c, 12, 69, 0
10, 66480, Note_on_c, 12, 69, 76
10, 67184, Note_on_c, 12, 69, 0
10, 67200, Note_on_c, 12, 69, 76
10, 67424, Note_on_c, 12, 69, 0
10, 67440, Note_on_c, 12, 64, 76
10, 67664, Note_on_c, 12, 64, 0
10, 67680, Note_on_c, 12, 62, 76
10, 67904, Note_on_c, 12, 62, 0
10, 67920, Note_on_c, 12, 62, 76
10, 68384, Note_on_c, 12, 62, 0
10, 68400, Note_on_c, 12, 67, 76
10, 68864, Note_on_c, 12, 67, 0
10, 68880, Note_on_c, 12, 59, 76
10, 69344, Note_on_c, 12, 59, 0
10, 69360, Note_on_c, 12, 67, 76
10, 69824, Note_on_c, 12, 67, 0
10, 69840, Note_on_c, 12, 72, 76
10, 70304, Note_on_c, 12, 72, 0
10, 70320, Note_on_c, 12, 71, 76
10, 70349, Note_on_c, 12, 71, 0
10, 70350, Note_on_c, 12, 72, 76
10, 70379, Note_on_c, 12, 72, 0
10, 70380, Note_on_c, 12, 71, 76
10, 70409, Note_on_c, 12, 71, 0
10, 70410, Note_on_c, 12, 72, 76
10, 70439, Note_on_c, 12, 72, 0
10, 70440, Note_on_c, 12, 71, 76
10, 70469, Note_on_c, 12, 71, 0
10, 70470, Note_on_c, 12, 72, 76
10, 70499, Note_on_c, 12, 72, 0
10, 70500, Note_on_c, 12, 71, 76
10, 70529, Note_on_c, 12, 71, 0
10, 70530, Note_on_c, 12, 72, 76
10, 70559, Note_on_c, 12, 72, 0
10, 70560, Note_on_c, 12, 71, 76
10, 70589, Note_on_c, 12, 71, 0
10, 70590, Note_on_c, 12, 72, 76
10, 70619, Note_on_c, 12, 72, 0
10, 70620, Note_on_c, 12, 69, 76
10, 70649, Note_on_c, 12, 69, 0
10, 70650, Note_on_c, 12, 71, 76
10, 70679, Note_on_c, 12, 71, 0
10, 70680, Note_on_c, 12, 72, 76
10, 70784, Note_on_c, 12, 72, 0
10, 70800, Note_on_c, 12, 72, 76
10, 70904, Note_on_c, 12, 72, 0
10, 70920, Note_on_c, 12, 71, 76
10, 71024, Note_on_c, 12, 71, 0
10, 71040, Note_on_c, 12, 72, 76
10, 71144, Note_on_c, 12, 72, 0
10, 71160, Note_on_c, 12, 74, 76
10, 71264, Note_on_c, 12, 74, 0
10, 71280, Note_on_c, 12, 76, 76
10, 71504, Note_on_c, 12, 76, 0
10, 71520, Note_on_c, 12, 74, 76
10, 71624, Note_on_c, 12, 74, 0
10, 71640, Note_on_c, 12, 72, 76
10, 71744, Note_on_c, 12, 72, 0
10, 71760, Note_on_c, 12, 74, 76
10, 72104, Note_on_c, 12, 74, 0
10, 72120, Note_on_c, 12, 76, 76
10, 72224, Note_on_c, 12, 76, 0
10, 72240, Note_on_c, 12, 77, 76
10, 72464, Note_on_c, 12, 77, 0
10, 72480, Note_on_c, 12, 69, 76
10, 72944, Note_on_c, 12, 69, 0
10, 72960, Note_on_c, 12, 71, 76
10, 73184, Note_on_c, 12, 71, 0
10, 73200, Note_on_c, 12, 72, 76
10, 73544, Note_on_c, 12, 72, 0
10, 73560, Note_on_c, 12, 74, 76
10, 73664, Note_on_c, 12, 74, 0
10, 73680, Note_on_c, 12, 71, 76
10, 73709, Note_on_c, 12, 71, 0
10, 73710, Note_on_c, 12, 72, 76
10, 73739, Note_on_c, 12, 72, 0
10, 73740, Note_on_c, 12, 71, 76
10, 73769, Note_on_c, 12, 71, 0
10, 73770, Note_on_c, 12, 72, 76
10, 73799, Note_on_c, 12, 72, 0
10, 73800, Note_on_c, 12, 71, 76
10, 73829, Note_on_c, 12, 71, 0
10, 73830, Note_on_c, 12, 72, 76
10, 73859, Note_on_c, 12, 72, 0
10, 73860, Note_on_c, 12, 71, 76
10, 73889, Note_on_c, 12, 71, 0
10, 73890, Note_on_c, 12, 72, 76
10, 73919, Note_on_c, 12, 72, 0
10, 73920, Note_on_c, 12, 71, 76
10, 73949, Note_on_c, 12, 71, 0
10, 73950, Note_on_c, 12, 72, 76
10, 73979, Note_on_c, 12, 72, 0
10, 73980, Note_on_c, 12, 69, 76
10, 74009, Note_on_c, 12, 69, 0
10, 74010, Note_on_c, 12, 71, 76
10, 74039, Note_on_c, 12, 71, 0
10, 74040, Note_on_c, 12, 72, 76
10, 74144, Note_on_c, 12, 72, 0
10, 74160, Note_on_c, 12, 72, 76
10, 74384, Note_on_c, 12, 72, 0
10, 74400, Note_on_c, 12, 72, 76
10, 74624, Note_on_c, 12, 72, 0
10, 74640, Note_on_c, 12, 69, 76
10, 74984, Note_on_c, 12, 69, 0
10, 75000, Note_on_c, 12, 69, 76
10, 75104, Note_on_c, 12, 69, 0
10, 75120, Note_on_c, 12, 69, 76
10, 75224, Note_on_c, 12, 69, 0
10, 75240, Note_on_c, 12, 67, 76
10, 75344, Note_on_c, 12, 67, 0
10, 75360, Note_on_c, 12, 65, 76
10, 75464, Note_on_c, 12, 65, 0
10, 75480, Note_on_c, 12, 67, 76
10, 75584, Note_on_c, 12, 67, 0
10, 75600, Note_on_c, 12, 69, 76
10, 75824, Note_on_c, 12, 69, 0
10, 75840, Note_on_c, 12, 65, 76
10, 75944, Note_on_c, 12, 65, 0
10, 75960, Note_on_c, 12, 64, 76
10, 76064, Note_on_c, 12, 64, 0
10, 76080, Note_on_c, 12, 65, 76
10, 76304, Note_on_c, 12, 65, 0
10, 76320, Note_on_c, 12, 69, 76
10, 76544, Note_on_c, 12, 69, 0
10, 76560, Note_on_c, 12, 62, 76
10, 77264, Note_on_c, 12, 62, 0
10, 77280, Note_on_c, 12, 74, 76
10, 77504, Note_on_c, 12, 74, 0
10, 77520, Note_on_c, 12, 71, 76
10, 77744, Note_on_c, 12, 71, 0
10, 77760, Note_on_c, 12, 74, 76
10, 77984, Note_on_c, 12, 74, 0
10, 78000, Note_on_c, 12, 72, 76
10, 78344, Note_on_c, 12, 72, 0
10, 78360, Note_on_c, 12, 71, 76
10, 78464, Note_on_c, 12, 71, 0
10, 78480, Note_on_c, 12, 72, 76
10, 78704, Note_on_c, 12, 72, 0
10, 78720, Note_on_c, 12, 69, 76
10, 78944, Note_on_c, 12, 69, 0
10, 78960, Note_on_c, 12, 67, 76
10, 79424, Note_on_c, 12, 67, 0
10, 79440, Note_on_c, 12, 67, 76
10, 80639, Note_on_c, 12, 67, 0
10, 80639, End_track
11, 0, Start_track
11, 0, Title_t, "Viola"
11, 0, MIDI_port, 0
11, 0, Program_c, 13, 48
11, 0, Control_c, 13, 10, 70
11, 0, Control_c, 13, 11, 127
11, 0, Control_c, 13, 7, 96
11, 120, Note_on_c, 13, 64, 76
11, 224, Note_on_c, 13, 64, 0
11, 240, Note_on_c, 13, 64, 76
11, 344, Note_on_c, 13, 64, 0
11, 360, Note_on_c, 13, 62, 76
11, 464, Note_on_c, 13, 62, 0
11, 480, Note_on_c, 13, 64, 76
11, 584, Note_on_c, 13, 64, 0
11, 600, Note_on_c, 13, 65, 76
11, 704, Note_on_c, 13, 65, 0
11, 720, Note_on_c, 13, 67, 76
11, 1064, Note_on_c, 13, 67, 0
11, 1080, Note_on_c, 13, 69, 76
11, 1184, Note_on_c, 13, 69, 0
11, 1200, Note_on_c, 13, 65, 76
11, 1229, Note_on_c, 13, 65, 0
11, 1230, Note_on_c, 13, 67, 76
11, 1259, Note_on_c, 13, 67, 0
11, 1260, Note_on_c, 13, 65, 76
11, 1289, Note_on_c, 13, 65, 0
11, 1290, Note_on_c, 13, 67, 76
11, 1319, Note_on_c, 13, 67, 0
11, 1320, Note_on_c, 13, 65, 76
11, 1349, Note_on_c, 13, 65, 0
11, 1350, Note_on_c, 13, 67, 76
11, 1379, Note_on_c, 13, 67, 0
11, 1380, Note_on_c, 13, 65, 76
11, 1409, Note_on_c, 13, 65, 0
11, 1410, Note_on_c, 13, 67, 76
11, 1439, Note_on_c, 13, 67, 0
11, 1440, Note_on_c, 13, 65, 76
11, 1469, Note_on_c, 13, 65, 0
11, 1470, Note_on_c, 13, 67, 76
11, 1499, Note_on_c, 13, 67, 0
11, 1500, Note_on_c, 13, 64, 76
11, 1529, Note_on_c, 13, 64, 0
11, 1530, Note_on_c, 13, 65, 76
11, 1559, Note_on_c, 13, 65, 0
11, 1560, Note_on_c, 13, 64, 76
11, 1664, Note_on_c, 13, 64, 0
11, 1680, Note_on_c, 13, 64, 76
11, 1784, Note_on_c, 13, 64, 0
11, 1800, Note_on_c, 13, 62, 76
11, 1904, Note_on_c, 13, 62, 0
11, 1920, Note_on_c, 13, 64, 76
11, 2024, Note_on_c, 13, 64, 0
11, 2040, Note_on_c, 13, 65, 76
11, 2144, Note_on_c, 13, 65, 0
11, 2160, Note_on_c, 13, 67, 76
11, 2384, Note_on_c, 13, 67, 0
11, 2400, Note_on_c, 13, 67, 76
11, 2624, Note_on_c, 13, 67, 0
11, 2640, Note_on_c, 13, 69, 76
11, 2864, Note_on_c, 13, 69, 0
11, 2880, Note_on_c, 13, 70, 76
11, 3104, Note_on_c, 13, 70, 0
11, 3120, Note_on_c, 13, 72, 76
11, 3344, Note_on_c, 13, 72, 0
11, 3360, Note_on_c, 13, 60, 76
11, 3584, Note_on_c, 13, 60, 0
11, 3600, Note_on_c, 13, 62, 76
11, 3824, Note_on_c, 13, 62, 0
11, 3840, Note_on_c, 13, 55, 76
11, 4064, Note_on_c, 13, 55, 0
11, 4080, Note_on_c, 13, 60, 76
11, 4304, Note_on_c, 13, 60, 0
11, 4320, Note_on_c, 13, 60, 76
11, 4544, Note_on_c, 13, 60, 0
11, 4560, Note_on_c, 13, 67, 76
11, 5264, Note_on_c, 13, 67, 0
11, 5280, Note_on_c, 13, 60, 76
11, 5504, Note_on_c, 13, 60, 0
11, 5520, Note_on_c, 13, 60, 76
11, 5744, Note_on_c, 13, 60, 0
11, 5760, Note_on_c, 13, 59, 76
11, 5984, Note_on_c, 13, 59, 0
11, 6000, Note_on_c, 13, 60, 76
11, 6224, Note_on_c, 13, 60, 0
11, 6240, Note_on_c, 13, 59, 76
11, 6464, Note_on_c, 13, 59, 0
11, 6480, Note_on_c, 13, 57, 76
11, 6704, Note_on_c, 13, 57, 0
11, 6720, Note_on_c, 13, 57, 76
11, 6944, Note_on_c, 13, 57, 0
11, 6960, Note_on_c, 13, 62, 76
11, 7304, Note_on_c, 13, 62, 0
11, 7320, Note_on_c, 13, 60, 76
11, 7424, Note_on_c, 13, 60, 0
11, 7440, Note_on_c, 13, 67, 76
11, 7664, Note_on_c, 13, 67, 0
11, 7680, Note_on_c, 13, 60, 76
11, 8144, Note_on_c, 13, 60, 0
11, 8160, Note_on_c, 13, 62, 76
11, 8384, Note_on_c, 13, 62, 0
11, 8400, Note_on_c, 13, 62, 76
11, 8624, Note_on_c, 13, 62, 0
11, 8640, Note_on_c, 13, 62, 76
11, 8864, Note_on_c, 13, 62, 0
11, 8880, Note_on_c, 13, 64, 76
11, 9104, Note_on_c, 13, 64, 0
11, 9120, Note_on_c, 13, 62, 76
11, 9344, Note_on_c, 13, 62, 0
11, 9360, Note_on_c, 13, 62, 76
11, 9584, Note_on_c, 13, 62, 0
11, 9600, Note_on_c, 13, 60, 76
11, 9704, Note_on_c, 13, 60, 0
11, 9720, Note_on_c, 13, 59, 76
11, 9824, Note_on_c, 13, 59, 0
11, 9840, Note_on_c, 13, 57, 76
11, 10304, Note_on_c, 13, 57, 0
11, 10320, Note_on_c, 13, 59, 76
11, 11519, Note_on_c, 13, 59, 0
11, 11640, Note_on_c, 13, 64, 76
11, 11744, Note_on_c, 13, 64, 0
11, 11760, Note_on_c, 13, 64, 76
11, 11864, Note_on_c, 13, 64, 0
11, 11880, Note_on_c, 13, 62, 76
11, 11984, Note_on_c, 13, 62, 0
11, 12000, Note_on_c, 13, 64, 76
11, 12104, Note_on_c, 13, 64, 0
11, 12120, Note_on_c, 13, 65, 76
11, 12224, Note_on_c, 13, 65, 0
11, 12240, Note_on_c, 13, 67, 76
11, 12584, Note_on_c, 13, 67, 0
11, 12600, Note_on_c, 13, 69, 76
11, 12704, Note_on_c, 13, 69, 0
11, 12720, Note_on_c, 13, 65, 76
11, 12749, Note_on_c, 13, 65, 0
11, 12750, Note_on_c, 13, 67, 76
11, 12779, Note_on_c, 13, 67, 0
11, 12780, Note_on_c, 13, 65, 76
11, 12809, Note_on_c, 13, 65, 0
11, 12810, Note_on_c, 13, 67, 76
11, 12839, Note_on_c, 13, 67, 0
11, 12840, Note_on_c, 13, 65, 76
11, 12869, Note_on_c, 13, 65, 0
11, 12870, Note_on_c, 13, 67, 76
11, 12899, Note_on_c, 13, 67, 0
11, 12900, Note_on_c, 13, 65, 76
11, 12929, Note_on_c, 13, 65, 0
11, 12930, Note_on_c, 13, 67, 76
11, 12959, Note_on_c, 13, 67, 0
11, 12960, Note_on_c, 13, 65, 76
11, 12989, Note_on_c, 13, 65, 0
11, 12990, Note_on_c, 13, 67, 76
11, 13019, Note_on_c, 13, 67, 0
11, 13020, Note_on_c, 13, 64, 76
11, 13049, Note_on_c, 13, 64, 0
11, 13050, Note_on_c, 13, 65, 76
11, 13079, Note_on_c, 13, 65, 0
11, 13080, Note_on_c, 13, 64, 76
11, 13184, Note_on_c, 13, 64, 0
11, 13200, Note_on_c, 13, 64, 76
11, 13304, Note_on_c, 13, 64, 0
11, 13320, Note_on_c, 13, 62, 76
11, 13424, Note_on_c, 13, 62, 0
11, 13440, Note_on_c, 13, 64, 76
11, 13544, Note_on_c, 13, 64, 0
11, 13560, Note_on_c, 13, 65, 76
11, 13664, Note_on_c, 13, 65, 0
11, 13680, Note_on_c, 13, 67, 76
11, 13904, Note_on_c, 13, 67, 0
11, 13920, Note_on_c, 13, 67, 76
11, 14144, Note_on_c, 13, 67, 0
11, 14160, Note_on_c, 13, 69, 76
11, 14384, Note_on_c, 13, 69, 0
11, 14400, Note_on_c, 13, 70, 76
11, 14624, Note_on_c, 13, 70, 0
11, 14640, Note_on_c, 13, 72, 76
11, 14864, Note_on_c, 13, 72, 0
11, 14880, Note_on_c, 13, 60, 76
11, 15104, Note_on_c, 13, 60, 0
11, 15120, Note_on_c, 13, 62, 76
11, 15344, Note_on_c, 13, 62, 0
11, 15360, Note_on_c, 13, 55, 76
11, 15584, Note_on_c, 13, 55, 0
11, 15600, Note_on_c, 13, 60, 76
11, 15824, Note_on_c, 13, 60, 0
11, 15840, Note_on_c, 13, 60, 76
11, 16064, Note_on_c, 13, 60, 0
11, 16080, Note_on_c, 13, 67, 76
11, 16784, Note_on_c, 13, 67, 0
11, 16800, Note_on_c, 13, 60, 76
11, 17024, Note_on_c, 13, 60, 0
11, 17040, Note_on_c, 13, 60, 76
11, 17264, Note_on_c, 13, 60, 0
11, 17280, Note_on_c, 13, 59, 76
11, 17504, Note_on_c, 13, 59, 0
11, 17520, Note_on_c, 13, 60, 76
11, 17744, Note_on_c, 13, 60, 0
11, 17760, Note_on_c, 13, 59, 76
11, 17984, Note_on_c, 13, 59, 0
11, 18000, Note_on_c, 13, 57, 76
11, 18224, Note_on_c, 13, 57, 0
11, 18240, Note_on_c, 13, 57, 76
11, 18464, Note_on_c, 13, 57, 0
11, 18480, Note_on_c, 13, 62, 76
11, 18824, Note_on_c, 13, 62, 0
11, 18840, Note_on_c, 13, 60, 76
11, 18944, Note_on_c, 13, 60, 0
11, 18960, Note_on_c, 13, 67, 76
11, 19184, Note_on_c, 13, 67, 0
11, 19200, Note_on_c, 13, 60, 76
11, 19664, Note_on_c, 13, 60, 0
11, 19680, Note_on_c, 13, 62, 76
11, 19904, Note_on_c, 13, 62, 0
11, 19920, Note_on_c, 13, 62, 76
11, 20144, Note_on_c, 13, 62, 0
11, 20160, Note_on_c, 13, 62, 76
11, 20384, Note_on_c, 13, 62, 0
11, 20400, Note_on_c, 13, 64, 76
11, 20624, Note_on_c, 13, 64, 0
11, 20640, Note_on_c, 13, 62, 76
11, 20864, Note_on_c, 13, 62, 0
11, 20880, Note_on_c, 13, 62, 76
11, 21104, Note_on_c, 13, 62, 0
11, 21120, Note_on_c, 13, 60, 76
11, 21224, Note_on_c, 13, 60, 0
11, 21240, Note_on_c, 13, 59, 76
11, 21344, Note_on_c, 13, 59, 0
11, 21360, Note_on_c, 13, 57, 76
11, 21824, Note_on_c, 13, 57, 0
11, 21840, Note_on_c, 13, 59, 76
11, 23039, Note_on_c, 13, 59, 0
11, 23160, Note_on_c, 13, 67, 76
11, 23264, Note_on_c, 13, 67, 0
11, 23280, Note_on_c, 13, 67, 76
11, 23744, Note_on_c, 13, 67, 0
11, 23760, Note_on_c, 13, 69, 76
11, 24104, Note_on_c, 13, 69, 0
11, 24120, Note_on_c, 13, 70, 76
11, 24224, Note_on_c, 13, 70, 0
11, 24240, Note_on_c, 13, 67, 76
11, 24269, Note_on_c, 13, 67, 0
11, 24270, Note_on_c, 13, 69, 76
11, 24299, Note_on_c, 13, 69, 0
11, 24300, Note_on_c, 13, 67, 76
11, 24329, Note_on_c, 13, 67, 0
11, 24330, Note_on_c, 13, 69, 76
11, 24359, Note_on_c, 13, 69, 0
11, 24360, Note_on_c, 13, 67, 76
11, 24389, Note_on_c, 13, 67, 0
11, 24390, Note_on_c, 13, 69, 76
11, 24419, Note_on_c, 13, 69, 0
11, 24420, Note_on_c, 13, 67, 76
11, 24449, Note_on_c, 13, 67, 0
11, 24450, Note_on_c, 13, 69, 76
11, 24479, Note_on_c, 13, 69, 0
11, 24480, Note_on_c, 13, 67, 76
11, 24509, Note_on_c, 13, 67, 0
11, 24510, Note_on_c, 13, 69, 76
11, 24539, Note_on_c, 13, 69, 0
11, 24540, Note_on_c, 13, 67, 76
11, 24569, Note_on_c, 13, 67, 0
11, 24570, Note_on_c, 13, 69, 76
11, 24599, Note_on_c, 13, 69, 0
11, 24600, Note_on_c, 13, 67, 76
11, 24629, Note_on_c, 13, 67, 0
11, 24630, Note_on_c, 13, 69, 76
11, 24659, Note_on_c, 13, 69, 0
11, 24660, Note_on_c, 13, 65, 76
11, 24689, Note_on_c, 13, 65, 0
11, 24690, Note_on_c, 13, 67, 76
11, 24719, Note_on_c, 13, 67, 0
11, 24720, Note_on_c, 13, 74, 76
11, 24944, Note_on_c, 13, 74, 0
11, 24960, Note_on_c, 13, 69, 76
11, 25064, Note_on_c, 13, 69, 0
11, 25080, Note_on_c, 13, 67, 76
11, 25184, Note_on_c, 13, 67, 0
11, 25200, Note_on_c, 13, 65, 76
11, 25424, Note_on_c, 13, 65, 0
11, 25440, Note_on_c, 13, 69, 76
11, 25664, Note_on_c, 13, 69, 0
11, 25680, Note_on_c, 13, 62, 76
11, 25904, Note_on_c, 13, 62, 0
11, 25920, Note_on_c, 13, 66, 76
11, 26144, Note_on_c, 13, 66, 0
11, 26160, Note_on_c, 13, 67, 76
11, 26864, Note_on_c, 13, 67, 0
11, 26880, Note_on_c, 13, 69, 76
11, 27104, Note_on_c, 13, 69, 0
11, 27120, Note_on_c, 13, 62, 76
11, 27344, Note_on_c, 13, 62, 0
11, 27360, Note_on_c, 13, 58, 76
11, 27584, Note_on_c, 13, 58, 0
11, 27600, Note_on_c, 13, 57, 76
11, 28304, Note_on_c, 13, 57, 0
11, 28320, Note_on_c, 13, 69, 76
11, 28544, Note_on_c, 13, 69, 0
11, 28560, Note_on_c, 13, 70, 76
11, 28784, Note_on_c, 13, 70, 0
11, 28800, Note_on_c, 13, 69, 76
11, 29024, Note_on_c, 13, 69, 0
11, 29040, Note_on_c, 13, 69, 76
11, 29264, Note_on_c, 13, 69, 0
11, 29280, Note_on_c, 13, 62, 76
11, 29744, Note_on_c, 13, 62, 0
11, 29760, Note_on_c, 13, 64, 76
11, 29984, Note_on_c, 13, 64, 0
11, 30000, Note_on_c, 13, 64, 76
11, 30029, Note_on_c, 13, 64, 0
11, 30030, Note_on_c, 13, 65, 76
11, 30059, Note_on_c, 13, 65, 0
11, 30060, Note_on_c, 13, 64, 76
11, 30089, Note_on_c, 13, 64, 0
11, 30090, Note_on_c, 13, 65, 76
11, 30119, Note_on_c, 13, 65, 0
11, 30120, Note_on_c, 13, 64, 76
11, 30149, Note_on_c, 13, 64, 0
11, 30150, Note_on_c, 13, 65, 76
11, 30179, Note_on_c, 13, 65, 0
11, 30180, Note_on_c, 13, 64, 76
11, 30209, Note_on_c, 13, 64, 0
11, 30210, Note_on_c, 13, 65, 76
11, 30239, Note_on_c, 13, 65, 0
11, 30240, Note_on_c, 13, 64, 76
11, 30269, Note_on_c, 13, 64, 0
11, 30270, Note_on_c, 13, 65, 76
11, 30299, Note_on_c, 13, 65, 0
11, 30300, Note_on_c, 13, 62, 76
11, 30329, Note_on_c, 13, 62, 0
11, 30330, Note_on_c, 13, 64, 76
11, 30359, Note_on_c, 13, 64, 0
11, 30360, Note_on_c, 13, 62, 76
11, 30464, Note_on_c, 13, 62, 0
11, 30480, Note_on_c, 13, 69, 76
11, 30704, Note_on_c, 13, 69, 0
11, 30720, Note_on_c, 13, 62, 76
11, 31184, Note_on_c, 13, 62, 0
11, 31200, Note_on_c, 13, 64, 76
11, 31424, Note_on_c, 13, 64, 0
11, 31440, Note_on_c, 13, 64, 76
11, 31664, Note_on_c, 13, 64, 0
11, 31680, Note_on_c, 13, 64, 76
11, 31904, Note_on_c, 13, 64, 0
11, 31920, Note_on_c, 13, 57, 76
11, 32144, Note_on_c, 13, 57, 0
11, 32160, Note_on_c, 13, 64, 76
11, 32384, Note_on_c, 13, 64, 0
11, 32400, Note_on_c, 13, 64, 76
11, 32624, Note_on_c, 13, 64, 0
11, 32640, Note_on_c, 13, 65, 76
11, 32864, Note_on_c, 13, 65, 0
11, 32880, Note_on_c, 13, 64, 76
11, 33104, Note_on_c, 13, 64, 0
11, 33120, Note_on_c, 13, 62, 76
11, 33344, Note_on_c, 13, 62, 0
11, 33360, Note_on_c, 13, 60, 76
11, 33944, Note_on_c, 13, 60, 0
11, 33960, Note_on_c, 13, 62, 76
11, 34064, Note_on_c, 13, 62, 0
11, 34080, Note_on_c, 13, 60, 76
11, 34184, Note_on_c, 13, 60, 0
11, 34200, Note_on_c, 13, 59, 76
11, 34304, Note_on_c, 13, 59, 0
11, 34320, Note_on_c, 13, 57, 76
11, 34544, Note_on_c, 13, 57, 0
11, 34560, Note_on_c, 13, 69, 76
11, 34784, Note_on_c, 13, 69, 0
11, 34800, Note_on_c, 13, 67, 76
11, 35024, Note_on_c, 13, 67, 0
11, 35040, Note_on_c, 13, 55, 76
11, 35144, Note_on_c, 13, 55, 0
11, 35160, Note_on_c, 13, 57, 76
11, 35264, Note_on_c, 13, 57, 0
11, 35280, Note_on_c, 13, 58, 76
11, 35504, Note_on_c, 13, 58, 0
11, 35520, Note_on_c, 13, 55, 76
11, 35744, Note_on_c, 13, 55, 0
11, 35760, Note_on_c, 13, 62, 76
11, 35984, Note_on_c, 13, 62, 0
11, 36000, Note_on_c, 13, 60, 76
11, 36224, Note_on_c, 13, 60, 0
11, 36240, Note_on_c, 13, 60, 76
11, 36944, Note_on_c, 13, 60, 0
11, 36960, Note_on_c, 13, 61, 76
11, 37184, Note_on_c, 13, 61, 0
11, 37200, Note_on_c, 13, 62, 76
11, 37424, Note_on_c, 13, 62, 0
11, 37440, Note_on_c, 13, 57, 76
11, 37664, Note_on_c, 13, 57, 0
11, 37680, Note_on_c, 13, 62, 76
11, 38384, Note_on_c, 13, 62, 0
11, 38400, Note_on_c, 13, 62, 76
11, 38624, Note_on_c, 13, 62, 0
11, 38640, Note_on_c, 13, 55, 76
11, 38864, Note_on_c, 13, 55, 0
11, 38880, Note_on_c, 13, 57, 76
11, 39104, Note_on_c, 13, 57, 0
11, 39120, Note_on_c, 13, 55, 76
11, 39224, Note_on_c, 13, 55, 0
11, 39240, Note_on_c, 13, 54, 76
11, 39344, Note_on_c, 13, 54, 0
11, 39360, Note_on_c, 13, 55, 76
11, 39464, Note_on_c, 13, 55, 0
11, 39480, Note_on_c, 13, 57, 76
11, 39584, Note_on_c, 13, 57, 0
11, 39600, Note_on_c, 13, 59, 76
11, 39824, Note_on_c, 13, 59, 0
11, 39840, Note_on_c, 13, 60, 76
11, 40064, Note_on_c, 13, 60, 0
11, 40080, Note_on_c, 13, 62, 76
11, 40544, Note_on_c, 13, 62, 0
11, 40560, Note_on_c, 13, 64, 76
11, 40664, Note_on_c, 13, 64, 0
11, 40680, Note_on_c, 13, 62, 76
11, 40784, Note_on_c, 13, 62, 0
11, 40800, Note_on_c, 13, 64, 76
11, 40904, Note_on_c, 13, 64, 0
11, 40920, Note_on_c, 13, 65, 76
11, 41024, Note_on_c, 13, 65, 0
11, 41040, Note_on_c, 13, 67, 76
11, 41384, Note_on_c, 13, 67, 0
11, 41400, Note_on_c, 13, 69, 76
11, 41504, Note_on_c, 13, 69, 0
11, 41520, Note_on_c, 13, 65, 76
11, 41864, Note_on_c, 13, 65, 0
11, 41880, Note_on_c, 13, 64, 76
11, 41984, Note_on_c, 13, 64, 0
11, 42000, Note_on_c, 13, 64, 76
11, 42104, Note_on_c, 13, 64, 0
11, 42120, Note_on_c, 13, 65, 76
11, 42224, Note_on_c, 13, 65, 0
11, 42240, Note_on_c, 13, 64, 76
11, 42344, Note_on_c, 13, 64, 0
11, 42360, Note_on_c, 13, 62, 76
11, 42464, Note_on_c, 13, 62, 0
11, 42480, Note_on_c, 13, 60, 76
11, 42704, Note_on_c, 13, 60, 0
11, 42720, Note_on_c, 13, 67, 76
11, 42944, Note_on_c, 13, 67, 0
11, 42960, Note_on_c, 13, 69, 76
11, 43184, Note_on_c, 13, 69, 0
11, 43200, Note_on_c, 13, 70, 76
11, 43424, Note_on_c, 13, 70, 0
11, 43440, Note_on_c, 13, 72, 76
11, 43664, Note_on_c, 13, 72, 0
11, 43680, Note_on_c, 13, 60, 76
11, 43904, Note_on_c, 13, 60, 0
11, 43920, Note_on_c, 13, 62, 76
11, 44384, Note_on_c, 13, 62, 0
11, 44400, Note_on_c, 13, 67, 76
11, 44624, Note_on_c, 13, 67, 0
11, 44640, Note_on_c, 13, 65, 76
11, 44864, Note_on_c, 13, 65, 0
11, 44880, Note_on_c, 13, 64, 76
11, 45104, Note_on_c, 13, 64, 0
11, 45120, Note_on_c, 13, 62, 76
11, 45344, Note_on_c, 13, 62, 0
11, 45360, Note_on_c, 13, 60, 76
11, 45584, Note_on_c, 13, 60, 0
11, 45600, Note_on_c, 13, 64, 76
11, 45824, Note_on_c, 13, 64, 0
11, 45840, Note_on_c, 13, 65, 76
11, 46184, Note_on_c, 13, 65, 0
11, 46200, Note_on_c, 13, 64, 76
11, 46304, Note_on_c, 13, 64, 0
11, 46320, Note_on_c, 13, 62, 76
11, 46544, Note_on_c, 13, 62, 0
11, 46560, Note_on_c, 13, 60, 76
11, 46664, Note_on_c, 13, 60, 0
11, 46680, Note_on_c, 13, 59, 76
11, 46784, Note_on_c, 13, 59, 0
11, 46800, Note_on_c, 13, 57, 76
11, 47024, Note_on_c, 13, 57, 0
11, 47040, Note_on_c, 13, 62, 76
11, 47264, Note_on_c, 13, 62, 0
11, 47280, Note_on_c, 13, 55, 76
11, 47504, Note_on_c, 13, 55, 0
11, 47520, Note_on_c, 13, 60, 76
11, 47744, Note_on_c, 13, 60, 0
11, 47760, Note_on_c, 13, 59, 76
11, 48464, Note_on_c, 13, 59, 0
11, 48480, Note_on_c, 13, 55, 76
11, 48704, Note_on_c, 13, 55, 0
11, 48720, Note_on_c, 13, 62, 76
11, 48944, Note_on_c, 13, 62, 0
11, 48960, Note_on_c, 13, 59, 76
11, 49184, Note_on_c, 13, 59, 0
11, 49200, Note_on_c, 13, 55, 76
11, 49424, Note_on_c, 13, 55, 0
11, 49440, Note_on_c, 13, 67, 76
11, 49544, Note_on_c, 13, 67, 0
11, 49560, Note_on_c, 13, 65, 76
11, 49664, Note_on_c, 13, 65, 0
11, 49680, Note_on_c, 13, 64, 76
11, 49904, Note_on_c, 13, 64, 0
11, 49920, Note_on_c, 13, 62, 76
11, 50144, Note_on_c, 13, 62, 0
11, 50160, Note_on_c, 13, 62, 76
11, 50624, Note_on_c, 13, 62, 0
11, 50640, Note_on_c, 13, 64, 76
11, 51839, Note_on_c, 13, 64, 0
11, 51960, Note_on_c, 13, 67, 76
11, 52064, Note_on_c, 13, 67, 0
11, 52080, Note_on_c, 13, 67, 76
11, 52544, Note_on_c, 13, 67, 0
11, 52560, Note_on_c, 13, 69, 76
11, 52904, Note_on_c, 13, 69, 0
11, 52920, Note_on_c, 13, 70, 76
11, 53024, Note_on_c, 13, 70, 0
11, 53040, Note_on_c, 13, 67, 76
11, 53069, Note_on_c, 13, 67, 0
11, 53070, Note_on_c, 13, 69, 76
11, 53099, Note_on_c, 13, 69, 0
11, 53100, Note_on_c, 13, 67, 76
11, 53129, Note_on_c, 13, 67, 0
11, 53130, Note_on_c, 13, 69, 76
11, 53159, Note_on_c, 13, 69, 0
11, 53160, Note_on_c, 13, 67, 76
11, 53189, Note_on_c, 13, 67, 0
11, 53190, Note_on_c, 13, 69, 76
11, 53219, Note_on_c, 13, 69, 0
11, 53220, Note_on_c, 13, 67, 76
11, 53249, Note_on_c, 13, 67, 0
11, 53250, Note_on_c, 13, 69, 76
11, 53279, Note_on_c, 13, 69, 0
11, 53280, Note_on_c, 13, 67, 76
11, 53309, Note_on_c, 13, 67, 0
11, 53310, Note_on_c, 13, 69, 76
11, 53339, Note_on_c, 13, 69, 0
11, 53340, Note_on_c, 13, 67, 76
11, 53369, Note_on_c, 13, 67, 0
11, 53370, Note_on_c, 13, 69, 76
11, 53399, Note_on_c, 13, 69, 0
11, 53400, Note_on_c, 13, 67, 76
11, 53429, Note_on_c, 13, 67, 0
11, 53430, Note_on_c, 13, 69, 76
11, 53459, Note_on_c, 13, 69, 0
11, 53460, Note_on_c, 13, 65, 76
11, 53489, Note_on_c, 13, 65, 0
11, 53490, Note_on_c, 13, 67, 76
11, 53519, Note_on_c, 13, 67, 0
11, 53520, Note_on_c, 13, 74, 76
11, 53744, Note_on_c, 13, 74, 0
11, 53760, Note_on_c, 13, 69, 76
11, 53864, Note_on_c, 13, 69, 0
11, 53880, Note_on_c, 13, 67, 76
11, 53984, Note_on_c, 13, 67, 0
11, 54000, Note_on_c, 13, 65, 76
11, 54224, Note_on_c, 13, 65, 0
11, 54240, Note_on_c, 13, 69, 76
11, 54464, Note_on_c, 13, 69, 0
11, 54480, Note_on_c, 13, 62, 76
11, 54704, Note_on_c, 13, 62, 0
11, 54720, Note_on_c, 13, 66, 76
11, 54944, Note_on_c, 13, 66, 0
11, 54960, Note_on_c, 13, 67, 76
11, 55664, Note_on_c, 13, 67, 0
11, 55680, Note_on_c, 13, 69, 76
11, 55904, Note_on_c, 13, 69, 0
11, 55920, Note_on_c, 13, 62, 76
11, 56144, Note_on_c, 13, 62, 0
11, 56160, Note_on_c, 13, 58, 76
11, 56384, Note_on_c, 13, 58, 0
11, 56400, Note_on_c, 13, 57, 76
11, 57104, Note_on_c, 13, 57, 0
11, 57120, Note_on_c, 13, 69, 76
11, 57344, Note_on_c, 13, 69, 0
11, 57360, Note_on_c, 13, 70, 76
11, 57584, Note_on_c, 13, 70, 0
11, 57600, Note_on_c, 13, 69, 76
11, 57824, Note_on_c, 13, 69, 0
11, 57840, Note_on_c, 13, 69, 76
11, 58064, Note_on_c, 13, 69, 0
11, 58080, Note_on_c, 13, 62, 76
11, 58544, Note_on_c, 13, 62, 0
11, 58560, Note_on_c, 13, 64, 76
11, 58784, Note_on_c, 13, 64, 0
11, 58800, Note_on_c, 13, 64, 76
11, 58829, Note_on_c, 13, 64, 0
11, 58830, Note_on_c, 13, 65, 76
11, 58859, Note_on_c, 13, 65, 0
11, 58860, Note_on_c, 13, 64, 76
11, 58889, Note_on_c, 13, 64, 0
11, 58890, Note_on_c, 13, 65, 76
11, 58919, Note_on_c, 13, 65, 0
11, 58920, Note_on_c, 13, 64, 76
11, 58949, Note_on_c, 13, 64, 0
11, 58950, Note_on_c, 13, 65, 76
11, 58979, Note_on_c, 13, 65, 0
11, 58980, Note_on_c, 13, 64, 76
11, 59009, Note_on_c, 13, 64, 0
11, 59010, Note_on_c, 13, 65, 76
11, 59039, Note_on_c, 13, 65, 0
11, 59040, Note_on_c, 13, 64, 76
11, 59069, Note_on_c, 13, 64, 0
11, 59070, Note_on_c, 13, 65, 76
11, 59099, Note_on_c, 13, 65, 0
11, 59100, Note_on_c, 13, 62, 76
11, 59129, Note_on_c, 13, 62, 0
11, 59130, Note_on_c, 13, 64, 76
11, 59159, Note_on_c, 13, 64, 0
11, 59160, Note_on_c, 13, 62, 76
11, 59264, Note_on_c, 13, 62, 0
11, 59280, Note_on_c, 13, 69, 76
11, 59504, Note_on_c, 13, 69, 0
11, 59520, Note_on_c, 13, 62, 76
11, 59984, Note_on_c, 13, 62, 0
11, 60000, Note_on_c, 13, 64, 76
11, 60224, Note_on_c, 13, 64, 0
11, 60240, Note_on_c, 13, 64, 76
11, 60464, Note_on_c, 13, 64, 0
11, 60480, Note_on_c, 13, 64, 76
11, 60704, Note_on_c, 13, 64, 0
11, 60720, Note_on_c, 13, 57, 76
11, 60944, Note_on_c, 13, 57, 0
11, 60960, Note_on_c, 13, 64, 76
11, 61184, Note_on_c, 13, 64, 0
11, 61200, Note_on_c, 13, 64, 76
11, 61424, Note_on_c, 13, 64, 0
11, 61440, Note_on_c, 13, 65, 76
11, 61664, Note_on_c, 13, 65, 0
11, 61680, Note_on_c, 13, 64, 76
11, 61904, Note_on_c, 13, 64, 0
11, 61920, Note_on_c, 13, 62, 76
11, 62144, Note_on_c, 13, 62, 0
11, 62160, Note_on_c, 13, 60, 76
11, 62744, Note_on_c, 13, 60, 0
11, 62760, Note_on_c, 13, 62, 76
11, 62864, Note_on_c, 13, 62, 0
11, 62880, Note_on_c, 13, 60, 76
11, 62984, Note_on_c, 13, 60, 0
11, 63000, Note_on_c, 13, 59, 76
11, 63104, Note_on_c, 13, 59, 0
11, 63120, Note_on_c, 13, 57, 76
11, 63344, Note_on_c, 13, 57, 0
11, 63360, Note_on_c, 13, 69, 76
11, 63584, Note_on_c, 13, 69, 0
11, 63600, Note_on_c, 13, 67, 76
11, 63824, Note_on_c, 13, 67, 0
11, 63840, Note_on_c, 13, 55, 76
11, 63944, Note_on_c, 13, 55, 0
11, 63960, Note_on_c, 13, 57, 76
11, 64064, Note_on_c, 13, 57, 0
11, 64080, Note_on_c, 13, 58, 76
11, 64304, Note_on_c, 13, 58, 0
11, 64320, Note_on_c, 13, 55, 76
11, 64544, Note_on_c, 13, 55, 0
11, 64560, Note_on_c, 13, 62, 76
11, 64784, Note_on_c, 13, 62, 0
11, 64800, Note_on_c, 13, 60, 76
11, 65024, Note_on_c, 13, 60, 0
11, 65040, Note_on_c, 13, 60, 76
11, 65744, Note_on_c, 13, 60, 0
11, 65760, Note_on_c, 13, 61, 76
11, 65984, Note_on_c, 13, 61, 0
11, 66000, Note_on_c, 13, 62, 76
11, 66224, Note_on_c, 13, 62, 0
11, 66240, Note_on_c, 13, 57, 76
11, 66464, Note_on_c, 13, 57, 0
11, 66480, Note_on_c, 13, 62, 76
11, 67184, Note_on_c, 13, 62, 0
11, 67200, Note_on_c, 13, 62, 76
11, 67424, Note_on_c, 13, 62, 0
11, 67440, Note_on_c, 13, 55, 76
11, 67664, Note_on_c, 13, 55, 0
11, 67680, Note_on_c, 13, 57, 76
11, 67904, Note_on_c, 13, 57, 0
11, 67920, Note_on_c, 13, 55, 76
11, 68024, Note_on_c, 13, 55, 0
11, 68040, Note_on_c, 13, 54, 76
11, 68144, Note_on_c, 13, 54, 0
11, 68160, Note_on_c, 13, 55, 76
11, 68264, Note_on_c, 13, 55, 0
11, 68280, Note_on_c, 13, 57, 76
11, 68384, Note_on_c, 13, 57, 0
11, 68400, Note_on_c, 13, 59, 76
11, 68624, Note_on_c, 13, 59, 0
11, 68640, Note_on_c, 13, 60, 76
11, 68864, Note_on_c, 13, 60, 0
11, 68880, Note_on_c, 13, 62, 76
11, 69344, Note_on_c, 13, 62, 0
11, 69360, Note_on_c, 13, 64, 76
11, 69464, Note_on_c, 13, 64, 0
11, 69480, Note_on_c, 13, 62, 76
11, 69584, Note_on_c, 13, 62, 0
11, 69600, Note_on_c, 13, 64, 76
11, 69704, Note_on_c, 13, 64, 0
11, 69720, Note_on_c, 13, 65, 76
11, 69824, Note_on_c, 13, 65, 0
11, 69840, Note_on_c, 13, 67, 76
11, 70184, Note_on_c, 13, 67, 0
11, 70200, Note_on_c, 13, 69, 76
11, 70304, Note_on_c, 13, 69, 0
11, 70320, Note_on_c, 13, 65, 76
11, 70664, Note_on_c, 13, 65, 0
11, 70680, Note_on_c, 13, 64, 76
11, 70784, Note_on_c, 13, 64, 0
11, 70800, Note_on_c, 13, 64, 76
11, 70904, Note_on_c, 13, 64, 0
11, 70920, Note_on_c, 13, 65, 76
11, 71024, Note_on_c, 13, 65, 0
11, 71040, Note_on_c, 13, 64, 76
11, 71144, Note_on_c, 13, 64, 0
11, 71160, Note_on_c, 13, 62, 76
11, 71264, Note_on_c, 13, 62, 0
11, 71280, Note_on_c, 13, 60, 76
11, 71504, Note_on_c, 13, 60, 0
11, 71520, Note_on_c, 13, 67, 76
11, 71744, Note_on_c, 13, 67, 0
11, 71760, Note_on_c, 13, 69, 76
11, 71984, Note_on_c, 13, 69, 0
11, 72000, Note_on_c, 13, 70, 76
11, 72224, Note_on_c, 13, 70, 0
11, 72240, Note_on_c, 13, 72, 76
11, 72464, Note_on_c, 13, 72, 0
11, 72480, Note_on_c, 13, 60, 76
11, 72704, Note_on_c, 13, 60, 0
11, 72720, Note_on_c, 13, 62, 76
11, 73184, Note_on_c, 13, 62, 0
11, 73200, Note_on_c, 13, 67, 76
11, 73424, Note_on_c, 13, 67, 0
11, 73440, Note_on_c, 13, 65, 76
11, 73664, Note_on_c, 13, 65, 0
11, 73680, Note_on_c, 13, 64, 76
11, 73904, Note_on_c, 13, 64, 0
11, 73920, Note_on_c, 13, 62, 76
11, 74144, Note_on_c, 13, 62, 0
11, 74160, Note_on_c, 13, 60, 76
11, 74384, Note_on_c, 13, 60, 0
11, 74400, Note_on_c, 13, 64, 76
11, 74624, Note_on_c, 13, 64, 0
11, 74640, Note_on_c, 13, 65, 76
11, 74984, Note_on_c, 13, 65, 0
11, 75000, Note_on_c, 13, 64, 76
11, 75104, Note_on_c, 13, 64, 0
11, 75120, Note_on_c, 13, 62, 76
11, 75344, Note_on_c, 13, 62, 0
11, 75360, Note_on_c, 13, 60, 76
11, 75464, Note_on_c, 13, 60, 0
11, 75480, Note_on_c, 13, 59, 76
11, 75584, Note_on_c, 13, 59, 0
11, 75600, Note_on_c, 13, 57, 76
11, 75824, Note_on_c, 13, 57, 0
11, 75840, Note_on_c, 13, 62, 76
11, 76064, Note_on_c, 13, 62, 0
11, 76080, Note_on_c, 13, 55, 76
11, 76304, Note_on_c, 13, 55, 0
11, 76320, Note_on_c, 13, 60, 76
11, 76544, Note_on_c, 13, 60, 0
11, 76560, Note_on_c, 13, 59, 76
11, 77264, Note_on_c, 13, 59, 0
11, 77280, Note_on_c, 13, 55, 76
11, 77504, Note_on_c, 13, 55, 0
11, 77520, Note_on_c, 13, 62, 76
11, 77744, Note_on_c, 13, 62, 0
11, 77760, Note_on_c, 13, 59, 76
11, 77984, Note_on_c, 13, 59, 0
11, 78000, Note_on_c, 13, 55, 76
11, 78224, Note_on_c, 13, 55, 0
11, 78240, Note_on_c, 13, 67, 76
11, 78344, Note_on_c, 13, 67, 0
11, 78360, Note_on_c, 13, 65, 76
11, 78464, Note_on_c, 13, 65, 0
11, 78480, Note_on_c, 13, 64, 76
11, 78704, Note_on_c, 13, 64, 0
11, 78720, Note_on_c, 13, 62, 76
11, 78944, Note_on_c, 13, 62, 0
11, 78960, Note_on_c, 13, 62, 76
11, 79424, Note_on_c, 13, 62, 0
11, 79440, Note_on_c, 13, 64, 76
11, 80639, Note_on_c, 13, 64, 0
11, 80639, End_track
12, 0, Start_track
12, 0, Title_t, "Cello"
12, 0, MIDI_port, 0
12, 0, Program_c, 14, 48
12, 0, Control_c, 14, 10, 90
12, 0, Control_c, 14, 11, 127
12, 0, Control_c, 14, 7, 96
12, 120, Note_on_c, 14, 48, 76
12, 224, Note_on_c, 14, 48, 0
12, 240, Note_on_c, 14, 48, 76
12, 944, Note_on_c, 14, 48, 0
12, 960, Note_on_c, 14, 60, 76
12, 1184, Note_on_c, 14, 60, 0
12, 1200, Note_on_c, 14, 55, 76
12, 1424, Note_on_c, 14, 55, 0
12, 1440, Note_on_c, 14, 57, 76
12, 1664, Note_on_c, 14, 57, 0
12, 1680, Note_on_c, 14, 52, 76
12, 1784, Note_on_c, 14, 52, 0
12, 1800, Note_on_c, 14, 53, 76
12, 1904, Note_on_c, 14, 53, 0
12, 1920, Note_on_c, 14, 52, 76
12, 2024, Note_on_c, 14, 52, 0
12, 2040, Note_on_c, 14, 50, 76
12, 2144, Note_on_c, 14, 50, 0
12, 2160, Note_on_c, 14, 48, 76
12, 2384, Note_on_c, 14, 48, 0
12, 2400, Note_on_c, 14, 58, 76
12, 2624, Note_on_c, 14, 58, 0
12, 2640, Note_on_c, 14, 57, 76
12, 2864, Note_on_c, 14, 57, 0
12, 2880, Note_on_c, 14, 55, 76
12, 3104, Note_on_c, 14, 55, 0
12, 3120, Note_on_c, 14, 53, 76
12, 3344, Note_on_c, 14, 53, 0
12, 3360, Note_on_c, 14, 52, 76
12, 3584, Note_on_c, 14, 52, 0
12, 3600, Note_on_c, 14, 50, 76
12, 3824, Note_on_c, 14, 50, 0
12, 3840, Note_on_c, 14, 47, 76
12, 4064, Note_on_c, 14, 47, 0
12, 4080, Note_on_c, 14, 48, 76
12, 4304, Note_on_c, 14, 48, 0
12, 4320, Note_on_c, 14, 41, 76
12, 4544, Note_on_c, 14, 41, 0
12, 4560, Note_on_c, 14, 43, 76
12, 4784, Note_on_c, 14, 43, 0
12, 4800, Note_on_c, 14, 55, 76
12, 5024, Note_on_c, 14, 55, 0
12, 5040, Note_on_c, 14, 53, 76
12, 5264, Note_on_c, 14, 53, 0
12, 5280, Note_on_c, 14, 52, 76
12, 5504, Note_on_c, 14, 52, 0
12, 5520, Note_on_c, 14, 53, 76
12, 5744, Note_on_c, 14, 53, 0
12, 5760, Note_on_c, 14, 55, 76
12, 5984, Note_on_c, 14, 55, 0
12, 6000, Note_on_c, 14, 48, 76
12, 6224, Note_on_c, 14, 48, 0
12, 6240, Note_on_c, 14, 52, 76
12, 6464, Note_on_c, 14, 52, 0
12, 6480, Note_on_c, 14, 45, 76
12, 6704, Note_on_c, 14, 45, 0
12, 6720, Note_on_c, 14, 50, 76
12, 6824, Note_on_c, 14, 50, 0
12, 6840, Note_on_c, 14, 52, 76
12, 6944, Note_on_c, 14, 52, 0
12, 6960, Note_on_c, 14, 50, 76
12, 7064, Note_on_c, 14, 50, 0
12, 7080, Note_on_c, 14, 48, 76
12, 7184, Note_on_c, 14, 48, 0
12, 7200, Note_on_c, 14, 47, 76
12, 7304, Note_on_c, 14, 47, 0
12, 7320, Note_on_c, 14, 45, 76
12, 7424, Note_on_c, 14, 45, 0
12, 7440, Note_on_c, 14, 47, 76
12, 7664, Note_on_c, 14, 47, 0
12, 7680, Note_on_c, 14, 48, 76
12, 7904, Note_on_c, 14, 48, 0
12, 7920, Note_on_c, 14, 45, 76
12, 8144, Note_on_c, 14, 45, 0
12, 8160, Note_on_c, 14, 43, 76
12, 8384, Note_on_c, 14, 43, 0
12, 8400, Note_on_c, 14, 42, 76
12, 8624, Note_on_c, 14, 42, 0
12, 8640, Note_on_c, 14, 43, 76
12, 8864, Note_on_c, 14, 43, 0
12, 8880, Note_on_c, 14, 40, 76
12, 9104, Note_on_c, 14, 40, 0
12, 9120, Note_on_c, 14, 42, 76
12, 9344, Note_on_c, 14, 42, 0
12, 9360, Note_on_c, 14, 43, 76
12, 9584, Note_on_c, 14, 43, 0
12, 9600, Note_on_c, 14, 48, 76
12, 9824, Note_on_c, 14, 48, 0
12, 9840, Note_on_c, 14, 50, 76
12, 10064, Note_on_c, 14, 50, 0
12, 10080, Note_on_c, 14, 38, 76
12, 10304, Note_on_c, 14, 38, 0
12, 10320, Note_on_c, 14, 43, 76
12, 11519, Note_on_c, 14, 43, 0
12, 11640, Note_on_c, 14, 48, 76
12, 11744, Note_on_c, 14, 48, 0
12, 11760, Note_on_c, 14, 48, 76
12, 12464, Note_on_c, 14, 48, 0
12, 12480, Note_on_c, 14, 60, 76
12, 12704, Note_on_c, 14, 60, 0
12, 12720, Note_on_c, 14, 55, 76
12, 12944, Note_on_c, 14, 55, 0
12, 12960, Note_on_c, 14, 57, 76
12, 13184, Note_on_c, 14, 57, 0
12, 13200, Note_on_c, 14, 52, 76
12, 13304, Note_on_c, 14, 52, 0
12, 13320, Note_on_c, 14, 53, 76
12, 13424, Note_on_c, 14, 53, 0
12, 13440, Note_on_c, 14, 52, 76
12, 13544, Note_on_c, 14, 52, 0
12, 13560, Note_on_c, 14, 50, 76
12, 13664, Note_on_c, 14, 50, 0
12, 13680, Note_on_c, 14, 48, 76
12, 13904, Note_on_c, 14, 48, 0
12, 13920, Note_on_c, 14, 58, 76
12, 14144, Note_on_c, 14, 58, 0
12, 14160, Note_on_c, 14, 57, 76
12, 14384, Note_on_c, 14, 57, 0
12, 14400, Note_on_c, 14, 55, 76
12, 14624, Note_on_c, 14, 55, 0
12, 14640, Note_on_c, 14, 53, 76
12, 14864, Note_on_c, 14, 53, 0
12, 14880, Note_on_c, 14, 52, 76
12, 15104, Note_on_c, 14, 52, 0
12, 15120, Note_on_c, 14, 50, 76
12, 15344, Note_on_c, 14, 50, 0
12, 15360, Note_on_c, 14, 47, 76
12, 15584, Note_on_c, 14, 47, 0
12, 15600, Note_on_c, 14, 48, 76
12, 15824, Note_on_c, 14, 48, 0
12, 15840, Note_on_c, 14, 41, 76
12, 16064, Note_on_c, 14, 41, 0
12, 16080, Note_on_c, 14, 43, 76
12, 16304, Note_on_c, 14, 43, 0
12, 16320, Note_on_c, 14, 55, 76
12, 16544, Note_on_c, 14, 55, 0
12, 16560, Note_on_c, 14, 53, 76
12, 16784, Note_on_c, 14, 53, 0
12, 16800, Note_on_c, 14, 52, 76
12, 17024, Note_on_c, 14, 52, 0
12, 17040, Note_on_c, 14, 53, 76
12, 17264, Note_on_c, 14, 53, 0
12, 17280, Note_on_c, 14, 55, 76
12, 17504, Note_on_c, 14, 55, 0
12, 17520, Note_on_c, 14, 48, 76
12, 17744, Note_on_c, 14, 48, 0
12, 17760, Note_on_c, 14, 52, 76
12, 17984, Note_on_c, 14, 52, 0
12, 18000, Note_on_c, 14, 45, 76
12, 18224, Note_on_c, 14, 45, 0
12, 18240, Note_on_c, 14, 50, 76
12, 18344, Note_on_c, 14, 50, 0
12, 18360, Note_on_c, 14, 52, 76
12, 18464, Note_on_c, 14, 52, 0
12, 18480, Note_on_c, 14, 50, 76
12, 18584, Note_on_c, 14, 50, 0
12, 18600, Note_on_c, 14, 48, 76
12, 18704, Note_on_c, 14, 48, 0
12, 18720, Note_on_c, 14, 47, 76
12, 18824, Note_on_c, 14, 47, 0
12, 18840, Note_on_c, 14, 45, 76
12, 18944, Note_on_c, 14, 45, 0
12, 18960, Note_on_c, 14, 47, 76
12, 19184, Note_on_c, 14, 47, 0
12, 19200, Note_on_c, 14, 48, 76
12, 19424, Note_on_c, 14, 48, 0
12, 19440, Note_on_c, 14, 45, 76
12, 19664, Note_on_c, 14, 45, 0
12, 19680, Note_on_c, 14, 43, 76
12, 19904, Note_on_c, 14, 43, 0
12, 19920, Note_on_c, 14, 42, 76
12, 20144, Note_on_c, 14, 42, 0
12, 20160, Note_on_c, 14, 43, 76
12, 20384, Note_on_c, 14, 43, 0
12, 20400, Note_on_c, 14, 40, 76
12, 20624, Note_on_c, 14, 40, 0
12, 20640, Note_on_c, 14, 42, 76
12, 20864, Note_on_c, 14, 42, 0
12, 20880, Note_on_c, 14, 43, 76
12, 21104, Note_on_c, 14, 43, 0
12, 21120, Note_on_c, 14, 48, 76
12, 21344, Note_on_c, 14, 48, 0
12, 21360, Note_on_c, 14, 50, 76
12, 21584, Note_on_c, 14, 50, 0
12, 21600, Note_on_c, 14, 38, 76
12, 21824, Note_on_c, 14, 38, 0
12, 21840, Note_on_c, 14, 43, 76
12, 23039, Note_on_c, 14, 43, 0
12, 23160, Note_on_c, 14, 55, 76
12, 23264, Note_on_c, 14, 55, 0
12, 23280, Note_on_c, 14, 55, 76
12, 23504, Note_on_c, 14, 55, 0
12, 23520, Note_on_c, 14, 53, 76
12, 23624, Note_on_c, 14, 53, 0
12, 23640, Note_on_c, 14, 52, 76
12, 23744, Note_on_c, 14, 52, 0
12, 23760, Note_on_c, 14, 50, 76
12, 24344, Note_on_c, 14, 50, 0
12, 24360, Note_on_c, 14, 49, 76
12, 24464, Note_on_c, 14, 49, 0
12, 24480, Note_on_c, 14, 50, 76
12, 24584, Note_on_c, 14, 50, 0
12, 24600, Note_on_c, 14, 52, 76
12, 24704, Note_on_c, 14, 52, 0
12, 24720, Note_on_c, 14, 53, 76
12, 24824, Note_on_c, 14, 53, 0
12, 24840, Note_on_c, 14, 55, 76
12, 24944, Note_on_c, 14, 55, 0
12, 24960, Note_on_c, 14, 53, 76
12, 25064, Note_on_c, 14, 53, 0
12, 25080, Note_on_c, 14, 52, 76
12, 25184, Note_on_c, 14, 52, 0
12, 25200, Note_on_c, 14, 50, 76
12, 25424, Note_on_c, 14, 50, 0
12, 25440, Note_on_c, 14, 60, 76
12, 25664, Note_on_c, 14, 60, 0
12, 25680, Note_on_c, 14, 58, 76
12, 25904, Note_on_c, 14, 58, 0
12, 25920, Note_on_c, 14, 57, 76
12, 26144, Note_on_c, 14, 57, 0
12, 26160, Note_on_c, 14, 55, 76
12, 26264, Note_on_c, 14, 55, 0
12, 26280, Note_on_c, 14, 53, 76
12, 26384, Note_on_c, 14, 53, 0
12, 26400, Note_on_c, 14, 55, 76
12, 26504, Note_on_c, 14, 55, 0
12, 26520, Note_on_c, 14, 57, 76
12, 26624, Note_on_c, 14, 57, 0
12, 26640, Note_on_c, 14, 58, 76
12, 26864, Note_on_c, 14, 58, 0
12, 26880, Note_on_c, 14, 49, 76
12, 27104, Note_on_c, 14, 49, 0
12, 27120, Note_on_c, 14, 50, 76
12, 27344, Note_on_c, 14, 50, 0
12, 27360, Note_on_c, 14, 43, 76
12, 27584, Note_on_c, 14, 43, 0
12, 27600, Note_on_c, 14, 45, 76
12, 27824, Note_on_c, 14, 45, 0
12, 27840, Note_on_c, 14, 57, 76
12, 28064, Note_on_c, 14, 57, 0
12, 28080, Note_on_c, 14, 55, 76
12, 28304, Note_on_c, 14, 55, 0
12, 28320, Note_on_c, 14, 53, 76
12, 28544, Note_on_c, 14, 53, 0
12, 28560, Note_on_c, 14, 55, 76
12, 28784, Note_on_c, 14, 55, 0
12, 28800, Note_on_c, 14, 57, 76
12, 29024, Note_on_c, 14, 57, 0
12, 29040, Note_on_c, 14, 50, 76
12, 29264, Note_on_c, 14, 50, 0
12, 29280, Note_on_c, 14, 53, 76
12, 29504, Note_on_c, 14, 53, 0
12, 29520, Note_on_c, 14, 47, 76
12, 29744, Note_on_c, 14, 47, 0
12, 29760, Note_on_c, 14, 52, 76
12, 29864, Note_on_c, 14, 52, 0
12, 29880, Note_on_c, 14, 53, 76
12, 29984, Note_on_c, 14, 53, 0
12, 30000, Note_on_c, 14, 52, 76
12, 30104, Note_on_c, 14, 52, 0
12, 30120, Note_on_c, 14, 50, 76
12, 30224, Note_on_c, 14, 50, 0
12, 30240, Note_on_c, 14, 48, 76
12, 30344, Note_on_c, 14, 48, 0
12, 30360, Note_on_c, 14, 47, 76
12, 30464, Note_on_c, 14, 47, 0
12, 30480, Note_on_c, 14, 48, 76
12, 30704, Note_on_c, 14, 48, 0
12, 30720, Note_on_c, 14, 50, 76
12, 30944, Note_on_c, 14, 50, 0
12, 30960, Note_on_c, 14, 47, 76
12, 31184, Note_on_c, 14, 47, 0
12, 31200, Note_on_c, 14, 45, 76
12, 31424, Note_on_c, 14, 45, 0
12, 31440, Note_on_c, 14, 44, 76
12, 31664, Note_on_c, 14, 44, 0
12, 31680, Note_on_c, 14, 45, 76
12, 31904, Note_on_c, 14, 45, 0
12, 31920, Note_on_c, 14, 42, 76
12, 32144, Note_on_c, 14, 42, 0
12, 32160, Note_on_c, 14, 44, 76
12, 32384, Note_on_c, 14, 44, 0
12, 32400, Note_on_c, 14, 45, 76
12, 32624, Note_on_c, 14, 45, 0
12, 32640, Note_on_c, 14, 50, 76
12, 32864, Note_on_c, 14, 50, 0
12, 32880, Note_on_c, 14, 52, 76
12, 33104, Note_on_c, 14, 52, 0
12, 33120, Note_on_c, 14, 40, 76
12, 33344, Note_on_c, 14, 40, 0
12, 33360, Note_on_c, 14, 45, 76
12, 33464, Note_on_c, 14, 45, 0
12, 33480, Note_on_c, 14, 44, 76
12, 33584, Note_on_c, 14, 44, 0
12, 33600, Note_on_c, 14, 45, 76
12, 33704, Note_on_c, 14, 45, 0
12, 33720, Note_on_c, 14, 47, 76
12, 33824, Note_on_c, 14, 47, 0
12, 33840, Note_on_c, 14, 48, 76
12, 34064, Note_on_c, 14, 48, 0
12, 34080, Note_on_c, 14, 52, 76
12, 34304, Note_on_c, 14, 52, 0
12, 34320, Note_on_c, 14, 57, 76
12, 34544, Note_on_c, 14, 57, 0
12, 34560, Note_on_c, 14, 55, 76
12, 34664, Note_on_c, 14, 55, 0
12, 34680, Note_on_c, 14, 53, 76
12, 34784, Note_on_c, 14, 53, 0
12, 34800, Note_on_c, 14, 52, 76
12, 34904, Note_on_c, 14, 52, 0
12, 34920, Note_on_c, 14, 50, 76
12, 35024, Note_on_c, 14, 50, 0
12, 35040, Note_on_c, 14, 52, 76
12, 35144, Note_on_c, 14, 52, 0
12, 35160, Note_on_c, 14, 53, 76
12, 35264, Note_on_c, 14, 53, 0
12, 35280, Note_on_c, 14, 55, 76
12, 35504, Note_on_c, 14, 55, 0
12, 35520, Note_on_c, 14, 48, 76
12, 35744, Note_on_c, 14, 48, 0
12, 35760, Note_on_c, 14, 50, 76
12, 35984, Note_on_c, 14, 50, 0
12, 36000, Note_on_c, 14, 52, 76
12, 36224, Note_on_c, 14, 52, 0
12, 36240, Note_on_c, 14, 53, 76
12, 36344, Note_on_c, 14, 53, 0
12, 36360, Note_on_c, 14, 52, 76
12, 36464, Note_on_c, 14, 52, 0
12, 36480, Note_on_c, 14, 53, 76
12, 36584, Note_on_c, 14, 53, 0
12, 36600, Note_on_c, 14, 55, 76
12, 36704, Note_on_c, 14, 55, 0
12, 36720, Note_on_c, 14, 57, 76
12, 36824, Note_on_c, 14, 57, 0
12, 36840, Note_on_c, 14, 58, 76
12, 36944, Note_on_c, 14, 58, 0
12, 36960, Note_on_c, 14, 57, 76
12, 37064, Note_on_c, 14, 57, 0
12, 37080, Note_on_c, 14, 55, 76
12, 37184, Note_on_c, 14, 55, 0
12, 37200, Note_on_c, 14, 53, 76
12, 37304, Note_on_c, 14, 53, 0
12, 37320, Note_on_c, 14, 52, 76
12, 37424, Note_on_c, 14, 52, 0
12, 37440, Note_on_c, 14, 50, 76
12, 37544, Note_on_c, 14, 50, 0
12, 37560, Note_on_c, 14, 49, 76
12, 37664, Note_on_c, 14, 49, 0
12, 37680, Note_on_c, 14, 50, 76
12, 37904, Note_on_c, 14, 50, 0
12, 37920, Note_on_c, 14, 52, 76
12, 38144, Note_on_c, 14, 52, 0
12, 38160, Note_on_c, 14, 53, 76
12, 38384, Note_on_c, 14, 53, 0
12, 38400, Note_on_c, 14, 50, 76
12, 38624, Note_on_c, 14, 50, 0
12, 38640, Note_on_c, 14, 52, 76
12, 38864, Note_on_c, 14, 52, 0
12, 38880, Note_on_c, 14, 53, 76
12, 39104, Note_on_c, 14, 53, 0
12, 39120, Note_on_c, 14, 55, 76
12, 39344, Note_on_c, 14, 55, 0
12, 39360, Note_on_c, 14, 43, 76
12, 39584, Note_on_c, 14, 43, 0
12, 39600, Note_on_c, 14, 55, 76
12, 39824, Note_on_c, 14, 55, 0
12, 39840, Note_on_c, 14, 57, 76
12, 40064, Note_on_c, 14, 57, 0
12, 40080, Note_on_c, 14, 55, 76
12, 40304, Note_on_c, 14, 55, 0
12, 40320, Note_on_c, 14, 53, 76
12, 40544, Note_on_c, 14, 53, 0
12, 40560, Note_on_c, 14, 52, 76
12, 40784, Note_on_c, 14, 52, 0
12, 40800, Note_on_c, 14, 50, 76
12, 41024, Note_on_c, 14, 50, 0
12, 41040, Note_on_c, 14, 48, 76
12, 41264, Note_on_c, 14, 48, 0
12, 41280, Note_on_c, 14, 60, 76
12, 41504, Note_on_c, 14, 60, 0
12, 41520, Note_on_c, 14, 55, 76
12, 41744, Note_on_c, 14, 55, 0
12, 41760, Note_on_c, 14, 57, 76
12, 41984, Note_on_c, 14, 57, 0
12, 42000, Note_on_c, 14, 52, 76
12, 42104, Note_on_c, 14, 52, 0
12, 42120, Note_on_c, 14, 50, 76
12, 42224, Note_on_c, 14, 50, 0
12, 42240, Note_on_c, 14, 52, 76
12, 42344, Note_on_c, 14, 52, 0
12, 42360, Note_on_c, 14, 53, 76
12, 42464, Note_on_c, 14, 53, 0
12, 42480, Note_on_c, 14, 55, 76
12, 42584, Note_on_c, 14, 55, 0
12, 42600, Note_on_c, 14, 57, 76
12, 42704, Note_on_c, 14, 57, 0
12, 42720, Note_on_c, 14, 58, 76
12, 42944, Note_on_c, 14, 58, 0
12, 42960, Note_on_c, 14, 57, 76
12, 43184, Note_on_c, 14, 57, 0
12, 43200, Note_on_c, 14, 55, 76
12, 43424, Note_on_c, 14, 55, 0
12, 43440, Note_on_c, 14, 53, 76
12, 43664, Note_on_c, 14, 53, 0
12, 43680, Note_on_c, 14, 52, 76
12, 43904, Note_on_c, 14, 52, 0
12, 43920, Note_on_c, 14, 50, 76
12, 44144, Note_on_c, 14, 50, 0
12, 44160, Note_on_c, 14, 55, 76
12, 44264, Note_on_c, 14, 55, 0
12, 44280, Note_on_c, 14, 57, 76
12, 44384, Note_on_c, 14, 57, 0
12, 44400, Note_on_c, 14, 55, 76
12, 44504, Note_on_c, 14, 55, 0
12, 44520, Note_on_c, 14, 53, 76
12, 44624, Note_on_c, 14, 53, 0
12, 44640, Note_on_c, 14, 52, 76
12, 44744, Note_on_c, 14, 52, 0
12, 44760, Note_on_c, 14, 50, 76
12, 44864, Note_on_c, 14, 50, 0
12, 44880, Note_on_c, 14, 52, 76
12, 45104, Note_on_c, 14, 52, 0
12, 45120, Note_on_c, 14, 55, 76
12, 45344, Note_on_c, 14, 55, 0
12, 45360, Note_on_c, 14, 60, 76
12, 45464, Note_on_c, 14, 60, 0
12, 45480, Note_on_c, 14, 59, 76
12, 45584, Note_on_c, 14, 59, 0
12, 45600, Note_on_c, 14, 57, 76
12, 45704, Note_on_c, 14, 57, 0
12, 45720, Note_on_c, 14, 55, 76
12, 45824, Note_on_c, 14, 55, 0
12, 45840, Note_on_c, 14, 53, 76
12, 45944, Note_on_c, 14, 53, 0
12, 45960, Note_on_c, 14, 52, 76
12, 46064, Note_on_c, 14, 52, 0
12, 46080, Note_on_c, 14, 50, 76
12, 46184, Note_on_c, 14, 50, 0
12, 46200, Note_on_c, 14, 48, 76
12, 46304, Note_on_c, 14, 48, 0
12, 46320, Note_on_c, 14, 50, 76
12, 46544, Note_on_c, 14, 50, 0
12, 46560, Note_on_c, 14, 57, 76
12, 46664, Note_on_c, 14, 57, 0
12, 46680, Note_on_c, 14, 55, 76
12, 46784, Note_on_c, 14, 55, 0
12, 46800, Note_on_c, 14, 53, 76
12, 46904, Note_on_c, 14, 53, 0
12, 46920, Note_on_c, 14, 52, 76
12, 47024, Note_on_c, 14, 52, 0
12, 47040, Note_on_c, 14, 50, 76
12, 47144, Note_on_c, 14, 50, 0
12, 47160, Note_on_c, 14, 48, 76
12, 47264, Note_on_c, 14, 48, 0
12, 47280, Note_on_c, 14, 47, 76
12, 47384, Note_on_c, 14, 47, 0
12, 47400, Note_on_c, 14, 45, 76
12, 47504, Note_on_c, 14, 45, 0
12, 47520, Note_on_c, 14, 43, 76
12, 47624, Note_on_c, 14, 43, 0
12, 47640, Note_on_c, 14, 41, 76
12, 47744, Note_on_c, 14, 41, 0
12, 47760, Note_on_c, 14, 53, 76
12, 48464, Note_on_c, 14, 53, 0
12, 48480, Note_on_c, 14, 47, 76
12, 48704, Note_on_c, 14, 47, 0
12, 48720, Note_on_c, 14, 43, 76
12, 48944, Note_on_c, 14, 43, 0
12, 48960, Note_on_c, 14, 47, 76
12, 49184, Note_on_c, 14, 47, 0
12, 49200, Note_on_c, 14, 48, 76
12, 49424, Note_on_c, 14, 48, 0
12, 49440, Note_on_c, 14, 43, 76
12, 49664, Note_on_c, 14, 43, 0
12, 49680, Note_on_c, 14, 45, 76
12, 49904, Note_on_c, 14, 45, 0
12, 49920, Note_on_c, 14, 41, 76
12, 50144, Note_on_c, 14, 41, 0
12, 50160, Note_on_c, 14, 43, 76
12, 50624, Note_on_c, 14, 43, 0
12, 50640, Note_on_c, 14, 36, 76
12, 51839, Note_on_c, 14, 36, 0
12, 51960, Note_on_c, 14, 55, 76
12, 52064, Note_on_c, 14, 55, 0
12, 52080, Note_on_c, 14, 55, 76
12, 52304, Note_on_c, 14, 55, 0
12, 52320, Note_on_c, 14, 53, 76
12, 52424, Note_on_c, 14, 53, 0
12, 52440, Note_on_c, 14, 52, 76
12, 52544, Note_on_c, 14, 52, 0
12, 52560, Note_on_c, 14, 50, 76
12, 53144, Note_on_c, 14, 50, 0
12, 53160, Note_on_c, 14, 49, 76
12, 53264, Note_on_c, 14, 49, 0
12, 53280, Note_on_c, 14, 50, 76
12, 53384, Note_on_c, 14, 50, 0
12, 53400, Note_on_c, 14, 52, 76
12, 53504, Note_on_c, 14, 52, 0
12, 53520, Note_on_c, 14, 53, 76
12, 53624, Note_on_c, 14, 53, 0
12, 53640, Note_on_c, 14, 55, 76
12, 53744, Note_on_c, 14, 55, 0
12, 53760, Note_on_c, 14, 53, 76
12, 53864, Note_on_c, 14, 53, 0
12, 53880, Note_on_c, 14, 52, 76
12, 53984, Note_on_c, 14, 52, 0
12, 54000, Note_on_c, 14, 50, 76
12, 54224, Note_on_c, 14, 50, 0
12, 54240, Note_on_c, 14, 60, 76
12, 54464, Note_on_c, 14, 60, 0
12, 54480, Note_on_c, 14, 58, 76
12, 54704, Note_on_c, 14, 58, 0
12, 54720, Note_on_c, 14, 57, 76
12, 54944, Note_on_c, 14, 57, 0
12, 54960, Note_on_c, 14, 55, 76
12, 55064, Note_on_c, 14, 55, 0
12, 55080, Note_on_c, 14, 53, 76
12, 55184, Note_on_c, 14, 53, 0
12, 55200, Note_on_c, 14, 55, 76
12, 55304, Note_on_c, 14, 55, 0
12, 55320, Note_on_c, 14, 57, 76
12, 55424, Note_on_c, 14, 57, 0
12, 55440, Note_on_c, 14, 58, 76
12, 55664, Note_on_c, 14, 58, 0
12, 55680, Note_on_c, 14, 49, 76
12, 55904, Note_on_c, 14, 49, 0
12, 55920, Note_on_c, 14, 50, 76
12, 56144, Note_on_c, 14, 50, 0
12, 56160, Note_on_c, 14, 43, 76
12, 56384, Note_on_c, 14, 43, 0
12, 56400, Note_on_c, 14, 45, 76
12, 56624, Note_on_c, 14, 45, 0
12, 56640, Note_on_c, 14, 57, 76
12, 56864, Note_on_c, 14, 57, 0
12, 56880, Note_on_c, 14, 55, 76
12, 57104, Note_on_c, 14, 55, 0
12, 57120, Note_on_c, 14, 53, 76
12, 57344, Note_on_c, 14, 53, 0
12, 57360, Note_on_c, 14, 55, 76
12, 57584, Note_on_c, 14, 55, 0
12, 57600, Note_on_c, 14, 57, 76
12, 57824, Note_on_c, 14, 57, 0
12, 57840, Note_on_c, 14, 50, 76
12, 58064, Note_on_c, 14, 50, 0
12, 58080, Note_on_c, 14, 53, 76
12, 58304, Note_on_c, 14, 53, 0
12, 58320, Note_on_c, 14, 47, 76
12, 58544, Note_on_c, 14, 47, 0
12, 58560, Note_on_c, 14, 52, 76
12, 58664, Note_on_c, 14, 52, 0
12, 58680, Note_on_c, 14, 53, 76
12, 58784, Note_on_c, 14, 53, 0
12, 58800, Note_on_c, 14, 52, 76
12, 58904, Note_on_c, 14, 52, 0
12, 58920, Note_on_c, 14, 50, 76
12, 59024, Note_on_c, 14, 50, 0
12, 59040, Note_on_c, 14, 48, 76
12, 59144, Note_on_c, 14, 48, 0
12, 59160, Note_on_c, 14, 47, 76
12, 59264, Note_on_c, 14, 47, 0
12, 59280, Note_on_c, 14, 48, 76
12, 59504, Note_on_c, 14, 48, 0
12, 59520, Note_on_c, 14, 50, 76
12, 59744, Note_on_c, 14, 50, 0
12, 59760, Note_on_c, 14, 47, 76
12, 59984, Note_on_c, 14, 47, 0
12, 60000, Note_on_c, 14, 45, 76
12, 60224, Note_on_c, 14, 45, 0
12, 60240, Note_on_c, 14, 44, 76
12, 60464, Note_on_c, 14, 44, 0
12, 60480, Note_on_c, 14, 45, 76
12, 60704, Note_on_c, 14, 45, 0
12, 60720, Note_on_c, 14, 42, 76
12, 60944, Note_on_c, 14, 42, 0
12, 60960, Note_on_c, 14, 44, 76
12, 61184, Note_on_c, 14, 44, 0
12, 61200, Note_on_c, 14, 45, 76
12, 61424, Note_on_c, 14, 45, 0
12, 61440, Note_on_c, 14, 50, 76
12, 61664, Note_on_c, 14, 50, 0
12, 61680, Note_on_c, 14, 52, 76
12, 61904, Note_on_c, 14, 52, 0
12, 61920, Note_on_c, 14, 40, 76
12, 62144, Note_on_c, 14, 40, 0
12, 62160, Note_on_c, 14, 45, 76
12, 62264, Note_on_c, 14, 45, 0
12, 62280, Note_on_c, 14, 44, 76
12, 62384, Note_on_c, 14, 44, 0
12, 62400, Note_on_c, 14, 45, 76
12, 62504, Note_on_c, 14, 45, 0
12, 62520, Note_on_c, 14, 47, 76
12, 62624, Note_on_c, 14, 47, 0
12, 62640, Note_on_c, 14, 48, 76
12, 62864, Note_on_c, 14, 48, 0
12, 62880, Note_on_c, 14, 52, 76
12, 63104, Note_on_c, 14, 52, 0
12, 63120, Note_on_c, 14, 57, 76
12, 63344, Note_on_c, 14, 57, 0
12, 63360, Note_on_c, 14, 55, 76
12, 63464, Note_on_c, 14, 55, 0
12, 63480, Note_on_c, 14, 53, 76
12, 63584, Note_on_c, 14, 53, 0
12, 63600, Note_on_c, 14, 52, 76
12, 63704, Note_on_c, 14, 52, 0
12, 63720, Note_on_c, 14, 50, 76
12, 63824, Note_on_c, 14, 50, 0
12, 63840, Note_on_c, 14, 52, 76
12, 63944, Note_on_c, 14, 52, 0
12, 63960, Note_on_c, 14, 53, 76
12, 64064, Note_on_c, 14, 53, 0
12, 64080, Note_on_c, 14, 55, 76
12, 64304, Note_on_c, 14, 55, 0
12, 64320, Note_on_c, 14, 48, 76
12, 64544, Note_on_c, 14, 48, 0
12, 64560, Note_on_c, 14, 50, 76
12, 64784, Note_on_c, 14, 50, 0
12, 64800, Note_on_c, 14, 52, 76
12, 65024, Note_on_c, 14, 52, 0
12, 65040, Note_on_c, 14, 53, 76
12, 65144, Note_on_c, 14, 53, 0
12, 65160, Note_on_c, 14, 52, 76
12, 65264, Note_on_c, 14, 52, 0
12, 65280, Note_on_c, 14, 53, 76
12, 65384, Note_on_c, 14, 53, 0
12, 65400, Note_on_c, 14, 55, 76
12, 65504, Note_on_c, 14, 55, 0
12, 65520, Note_on_c, 14, 57, 76
12, 65624, Note_on_c, 14, 57, 0
12, 65640, Note_on_c, 14, 58, 76
12, 65744, Note_on_c, 14, 58, 0
12, 65760, Note_on_c, 14, 57, 76
12, 65864, Note_on_c, 14, 57, 0
12, 65880, Note_on_c, 14, 55, 76
12, 65984, Note_on_c, 14, 55, 0
12, 66000, Note_on_c, 14, 53, 76
12, 66104, Note_on_c, 14, 53, 0
12, 66120, Note_on_c, 14, 52, 76
12, 66224, Note_on_c, 14, 52, 0
12, 66240, Note_on_c, 14, 50, 76
12, 66344, Note_on_c, 14, 50, 0
12, 66360, Note_on_c, 14, 49, 76
12, 66464, Note_on_c, 14, 49, 0
12, 66480, Note_on_c, 14, 50, 76
12, 66704, Note_on_c, 14, 50, 0
12, 66720, Note_on_c, 14, 52, 76
12, 66944, Note_on_c, 14, 52, 0
12, 66960, Note_on_c, 14, 53, 76
12, 67184, Note_on_c, 14, 53, 0
12, 67200, Note_on_c, 14, 50, 76
12, 67424, Note_on_c, 14, 50, 0
12, 67440, Note_on_c, 14, 52, 76
12, 67664, Note_on_c, 14, 52, 0
12, 67680, Note_on_c, 14, 53, 76
12, 67904, Note_on_c, 14, 53, 0
12, 67920, Note_on_c, 14, 55, 76
12, 68144, Note_on_c, 14, 55, 0
12, 68160, Note_on_c, 14, 43, 76
12, 68384, Note_on_c, 14, 43, 0
12, 68400, Note_on_c, 14, 55, 76
12, 68624, Note_on_c, 14, 55, 0
12, 68640, Note_on_c, 14, 57, 76
12, 68864, Note_on_c, 14, 57, 0
12, 68880, Note_on_c, 14, 55, 76
12, 69104, Note_on_c, 14, 55, 0
12, 69120, Note_on_c, 14, 53, 76
12, 69344, Note_on_c, 14, 53, 0
12, 69360, Note_on_c, 14, 52, 76
12, 69584, Note_on_c, 14, 52, 0
12, 69600, Note_on_c, 14, 50, 76
12, 69824, Note_on_c, 14, 50, 0
12, 69840, Note_on_c, 14, 48, 76
12, 70064, Note_on_c, 14, 48, 0
12, 70080, Note_on_c, 14, 60, 76
12, 70304, Note_on_c, 14, 60, 0
12, 70320, Note_on_c, 14, 55, 76
12, 70544, Note_on_c, 14, 55, 0
12, 70560, Note_on_c, 14, 57, 76
12, 70784, Note_on_c, 14, 57, 0
12, 70800, Note_on_c, 14, 52, 76
12, 70904, Note_on_c, 14, 52, 0
12, 70920, Note_on_c, 14, 50, 76
12, 71024, Note_on_c, 14, 50, 0
12, 71040, Note_on_c, 14, 52, 76
12, 71144, Note_on_c, 14, 52, 0
12, 71160, Note_on_c, 14, 53, 76
12, 71264, Note_on_c, 14, 53, 0
12, 71280, Note_on_c, 14, 55, 76
12, 71384, Note_on_c, 14, 55, 0
12, 71400, Note_on_c, 14, 57, 76
12, 71504, Note_on_c, 14, 57, 0
12, 71520, Note_on_c, 14, 58, 76
12, 71744, Note_on_c, 14, 58, 0
12, 71760, Note_on_c, 14, 57, 76
12, 71984, Note_on_c, 14, 57, 0
12, 72000, Note_on_c, 14, 55, 76
12, 72224, Note_on_c, 14, 55, 0
12, 72240, Note_on_c, 14, 53, 76
12, 72464, Note_on_c, 14, 53, 0
12, 72480, Note_on_c, 14, 52, 76
12, 72704, Note_on_c, 14, 52, 0
12, 72720, Note_on_c, 14, 50, 76
12, 72944, Note_on_c, 14, 50, 0
12, 72960, Note_on_c, 14, 55, 76
12, 73064, Note_on_c, 14, 55, 0
12, 73080, Note_on_c, 14, 57, 76
12, 73184, Note_on_c, 14, 57, 0
12, 73200, Note_on_c, 14, 55, 76
12, 73304, Note_on_c, 14, 55, 0
12, 73320, Note_on_c, 14, 53, 76
12, 73424, Note_on_c, 14, 53, 0
12, 73440, Note_on_c, 14, 52, 76
12, 73544, Note_on_c, 14, 52, 0
12, 73560, Note_on_c, 14, 50, 76
12, 73664, Note_on_c, 14, 50, 0
12, 73680, Note_on_c, 14, 52, 76
12, 73904, Note_on_c, 14, 52, 0
12, 73920, Note_on_c, 14, 55, 76
12, 74144, Note_on_c, 14, 55, 0
12, 74160, Note_on_c, 14, 60, 76
12, 74264, Note_on_c, 14, 60, 0
12, 74280, Note_on_c, 14, 59, 76
12, 74384, Note_on_c, 14, 59, 0
12, 74400, Note_on_c, 14, 57, 76
12, 74504, Note_on_c, 14, 57, 0
12, 74520, Note_on_c, 14, 55, 76
12, 74624, Note_on_c, 14, 55, 0
12, 74640, Note_on_c, 14, 53, 76
12, 74744, Note_on_c, 14, 53, 0
12, 74760, Note_on_c, 14, 52, 76
12, 74864, Note_on_c, 14, 52, 0
12, 74880, Note_on_c, 14, 50, 76
12, 74984, Note_on_c, 14, 50, 0
12, 75000, Note_on_c, 14, 48, 76
12, 75104, Note_on_c, 14, 48, 0
12, 75120, Note_on_c, 14, 50, 76
12, 75344, Note_on_c, 14, 50, 0
12, 75360, Note_on_c, 14, 57, 76
12, 75464, Note_on_c, 14, 57, 0
12, 75480, Note_on_c, 14, 55, 76
12, 75584, Note_on_c, 14, 55, 0
12, 75600, Note_on_c, 14, 53, 76
12, 75704, Note_on_c, 14, 53, 0
12, 75720, Note_on_c, 14, 52, 76
12, 75824, Note_on_c, 14, 52, 0
12, 75840, Note_on_c, 14, 50, 76
12, 75944, Note_on_c, 14, 50, 0
12, 75960, Note_on_c, 14, 48, 76
12, 76064, Note_on_c, 14, 48, 0
12, 76080, Note_on_c, 14, 47, 76
12, 76184, Note_on_c, 14, 47, 0
12, 76200, Note_on_c, 14, 45, 76
12, 76304, Note_on_c, 14, 45, 0
12, 76320, Note_on_c, 14, 43, 76
12, 76424, Note_on_c, 14, 43, 0
12, 76440, Note_on_c, 14, 41, 76
12, 76544, Note_on_c, 14, 41, 0
12, 76560, Note_on_c, 14, 53, 76
12, 77264, Note_on_c, 14, 53, 0
12, 77280, Note_on_c, 14, 47, 76
12, 77504, Note_on_c, 14, 47, 0
12, 77520, Note_on_c, 14, 43, 76
12, 77744, Note_on_c, 14, 43, 0
12, 77760, Note_on_c, 14, 47, 76
12, 77984, Note_on_c, 14, 47, 0
12, 78000, Note_on_c, 14, 48, 76
12, 78224, Note_on_c, 14, 48, 0
12, 78240, Note_on_c, 14, 43, 76
12, 78464, Note_on_c, 14, 43, 0
12, 78480, Note_on_c, 14, 45, 76
12, 78704, Note_on_c, 14, 45, 0
12, 78720, Note_on_c, 14, 41, 76
12, 78944, Note_on_c, 14, 41, 0
12, 78960, Note_on_c, 14, 43, 76
12, 79424, Note_on_c, 14, 43, 0
12, 79440, Note_on_c, 14, 36, 76
12, 80639, Note_on_c, 14, 36, 0
12, 80639, End_track
13, 0, Start_track
13, 0, Title_t, "Harpsichord "
13, 0, MIDI_port, 0
13, 0, Control_c, 15, 10, 64
13, 0, Control_c, 15, 11, 127
13, 0, Control_c, 15, 7, 72
13, 0, Program_c, 15, 6
13, 120, Note_on_c, 15, 67, 76
13, 120, Note_on_c, 15, 60, 76
13, 120, Note_on_c, 15, 64, 76
13, 120, Note_on_c, 15, 48, 76
13, 239, Note_on_c, 15, 67, 0
13, 239, Note_on_c, 15, 60, 0
13, 239, Note_on_c, 15, 64, 0
13, 239, Note_on_c, 15, 48, 0
13, 240, Note_on_c, 15, 48, 76
13, 240, Note_on_c, 15, 67, 76
13, 240, Note_on_c, 15, 60, 76
13, 240, Note_on_c, 15, 64, 76
13, 959, Note_on_c, 15, 48, 0
13, 959, Note_on_c, 15, 67, 0
13, 959, Note_on_c, 15, 60, 0
13, 959, Note_on_c, 15, 64, 0
13, 960, Note_on_c, 15, 72, 76
13, 960, Note_on_c, 15, 79, 76
13, 960, Note_on_c, 15, 60, 76
13, 960, Note_on_c, 15, 76, 76
13, 1199, Note_on_c, 15, 72, 0
13, 1199, Note_on_c, 15, 79, 0
13, 1199, Note_on_c, 15, 60, 0
13, 1199, Note_on_c, 15, 76, 0
13, 1200, Note_on_c, 15, 74, 76
13, 1200, Note_on_c, 15, 55, 76
13, 1200, Note_on_c, 15, 71, 76
13, 1200, Note_on_c, 15, 77, 76
13, 1200, Note_on_c, 15, 67, 76
13, 1439, Note_on_c, 15, 74, 0
13, 1439, Note_on_c, 15, 55, 0
13, 1439, Note_on_c, 15, 71, 0
13, 1439, Note_on_c, 15, 77, 0
13, 1439, Note_on_c, 15, 67, 0
13, 1440, Note_on_c, 15, 69, 76
13, 1440, Note_on_c, 15, 57, 76
13, 1440, Note_on_c, 15, 76, 76
13, 1440, Note_on_c, 15, 72, 76
13, 1679, Note_on_c, 15, 69, 0
13, 1679, Note_on_c, 15, 57, 0
13, 1679, Note_on_c, 15, 76, 0
13, 1679, Note_on_c, 15, 72, 0
13, 1680, Note_on_c, 15, 52, 76
13, 1680, Note_on_c, 15, 72, 76
13, 1680, Note_on_c, 15, 64, 76
13, 1680, Note_on_c, 15, 67, 76
13, 1799, Note_on_c, 15, 52, 0
13, 1799, Note_on_c, 15, 72, 0
13, 1799, Note_on_c, 15, 64, 0
13, 1799, Note_on_c, 15, 67, 0
13, 1800, Note_on_c, 15, 69, 76
13, 1800, Note_on_c, 15, 65, 76
13, 1800, Note_on_c, 15, 72, 76
13, 1800, Note_on_c, 15, 53, 76
13, 1919, Note_on_c, 15, 69, 0
13, 1919, Note_on_c, 15, 65, 0
13, 1919, Note_on_c, 15, 72, 0
13, 1919, Note_on_c, 15, 53, 0
13, 1920, Note_on_c, 15, 64, 76
13, 1920, Note_on_c, 15, 72, 76
13, 1920, Note_on_c, 15, 52, 76
13, 1920, Note_on_c, 15, 67, 76
13, 2039, Note_on_c, 15, 64, 0
13, 2039, Note_on_c, 15, 72, 0
13, 2039, Note_on_c, 15, 52, 0
13, 2039, Note_on_c, 15, 67, 0
13, 2040, Note_on_c, 15, 62, 76
13, 2040, Note_on_c, 15, 50, 76
13, 2040, Note_on_c, 15, 69, 76
13, 2040, Note_on_c, 15, 65, 76
13, 2159, Note_on_c, 15, 62, 0
13, 2159, Note_on_c, 15, 50, 0
13, 2159, Note_on_c, 15, 69, 0
13, 2159, Note_on_c, 15, 65, 0
13, 2160, Note_on_c, 15, 48, 76
13, 2160, Note_on_c, 15, 67, 76
13, 2160, Note_on_c, 15, 64, 76
13, 2160, Note_on_c, 15, 60, 76
13, 2399, Note_on_c, 15, 48, 0
13, 2399, Note_on_c, 15, 67, 0
13, 2399, Note_on_c, 15, 64, 0
13, 2399, Note_on_c, 15, 60, 0
13, 2400, Note_on_c, 15, 58, 76
13, 2400, Note_on_c, 15, 72, 76
13, 2400, Note_on_c, 15, 79, 76
13, 2400, Note_on_c, 15, 76, 76
13, 2400, Note_on_c, 15, 70, 76
13, 2639, Note_on_c, 15, 58, 0
13, 2639, Note_on_c, 15, 72, 0
13, 2639, Note_on_c, 15, 79, 0
13, 2639, Note_on_c, 15, 76, 0
13, 2639, Note_on_c, 15, 70, 0
13, 2640, Note_on_c, 15, 77, 76
13, 2640, Note_on_c, 15, 72, 76
13, 2640, Note_on_c, 15, 69, 76
13, 2640, Note_on_c, 15, 57, 76
13, 2879, Note_on_c, 15, 77, 0
13, 2879, Note_on_c, 15, 72, 0
13, 2879, Note_on_c, 15, 69, 0
13, 2879, Note_on_c, 15, 57, 0
13, 2880, Note_on_c, 15, 70, 76
13, 2880, Note_on_c, 15, 76, 76
13, 2880, Note_on_c, 15, 67, 76
13, 2880, Note_on_c, 15, 55, 76
13, 3119, Note_on_c, 15, 70, 0
13, 3119, Note_on_c, 15, 76, 0
13, 3119, Note_on_c, 15, 67, 0
13, 3119, Note_on_c, 15, 55, 0
13, 3120, Note_on_c, 15, 53, 76
13, 3120, Note_on_c, 15, 69, 76
13, 3120, Note_on_c, 15, 72, 76
13, 3120, Note_on_c, 15, 65, 76
13, 3359, Note_on_c, 15, 53, 0
13, 3359, Note_on_c, 15, 69, 0
13, 3359, Note_on_c, 15, 72, 0
13, 3359, Note_on_c, 15, 65, 0
13, 3360, Note_on_c, 15, 72, 76
13, 3360, Note_on_c, 15, 64, 76
13, 3360, Note_on_c, 15, 69, 76
13, 3360, Note_on_c, 15, 52, 76
13, 3599, Note_on_c, 15, 72, 0
13, 3599, Note_on_c, 15, 64, 0
13, 3599, Note_on_c, 15, 69, 0
13, 3599, Note_on_c, 15, 52, 0
13, 3600, Note_on_c, 15, 65, 76
13, 3600, Note_on_c, 15, 71, 76
13, 3600, Note_on_c, 15, 50, 76
13, 3600, Note_on_c, 15, 62, 76
13, 3839, Note_on_c, 15, 65, 0
13, 3839, Note_on_c, 15, 71, 0
13, 3839, Note_on_c, 15, 50, 0
13, 3839, Note_on_c, 15, 62, 0
13, 3840, Note_on_c, 15, 65, 76
13, 3840, Note_on_c, 15, 59, 76
13, 3840, Note_on_c, 15, 47, 76
13, 3840, Note_on_c, 15, 62, 76
13, 4079, Note_on_c, 15, 65, 0
13, 4079, Note_on_c, 15, 59, 0
13, 4079, Note_on_c, 15, 47, 0
13, 4079, Note_on_c, 15, 62, 0
13, 4080, Note_on_c, 15, 64, 76
13, 4080, Note_on_c, 15, 60, 76
13, 4080, Note_on_c, 15, 48, 76
13, 4319, Note_on_c, 15, 64, 0
13, 4319, Note_on_c, 15, 60, 0
13, 4319, Note_on_c, 15, 48, 0
13, 4320, Note_on_c, 15, 64, 76
13, 4320, Note_on_c, 15, 53, 76
13, 4320, Note_on_c, 15, 41, 76
13, 4559, Note_on_c, 15, 64, 0
13, 4559, Note_on_c, 15, 53, 0
13, 4559, Note_on_c, 15, 41, 0
13, 4560, Note_on_c, 15, 55, 76
13, 4560, Note_on_c, 15, 59, 76
13, 4560, Note_on_c, 15, 43, 76
13, 4560, Note_on_c, 15, 62, 76
13, 4799, Note_on_c, 15, 55, 0
13, 4799, Note_on_c, 15, 59, 0
13, 4799, Note_on_c, 15, 43, 0
13, 4799, Note_on_c, 15, 62, 0
13, 4800, Note_on_c, 15, 74, 76
13, 4800, Note_on_c, 15, 71, 76
13, 4800, Note_on_c, 15, 67, 76
13, 4800, Note_on_c, 15, 55, 76
13, 5039, Note_on_c, 15, 74, 0
13, 5039, Note_on_c, 15, 71, 0
13, 5039, Note_on_c, 15, 67, 0
13, 5039, Note_on_c, 15, 55, 0
13, 5040, Note_on_c, 15, 71, 76
13, 5040, Note_on_c, 15, 65, 76
13, 5040, Note_on_c, 15, 53, 76
13, 5040, Note_on_c, 15, 74, 76
13, 5040, Note_on_c, 15, 67, 76
13, 5279, Note_on_c, 15, 71, 0
13, 5279, Note_on_c, 15, 65, 0
13, 5279, Note_on_c, 15, 53, 0
13, 5279, Note_on_c, 15, 74, 0
13, 5279, Note_on_c, 15, 67, 0
13, 5280, Note_on_c, 15, 72, 76
13, 5280, Note_on_c, 15, 64, 76
13, 5280, Note_on_c, 15, 52, 76
13, 5280, Note_on_c, 15, 67, 76
13, 5519, Note_on_c, 15, 72, 0
13, 5519, Note_on_c, 15, 64, 0
13, 5519, Note_on_c, 15, 52, 0
13, 5519, Note_on_c, 15, 67, 0
13, 5520, Note_on_c, 15, 72, 76
13, 5520, Note_on_c, 15, 69, 76
13, 5520, Note_on_c, 15, 65, 76
13, 5520, Note_on_c, 15, 53, 76
13, 5520, Note_on_c, 15, 74, 76
13, 5759, Note_on_c, 15, 72, 0
13, 5759, Note_on_c, 15, 69, 0
13, 5759, Note_on_c, 15, 65, 0
13, 5759, Note_on_c, 15, 53, 0
13, 5759, Note_on_c, 15, 74, 0
13, 5760, Note_on_c, 15, 71, 76
13, 5760, Note_on_c, 15, 67, 76
13, 5760, Note_on_c, 15, 74, 76
13, 5760, Note_on_c, 15, 55, 76
13, 5999, Note_on_c, 15, 71, 0
13, 5999, Note_on_c, 15, 67, 0
13, 5999, Note_on_c, 15, 74, 0
13, 5999, Note_on_c, 15, 55, 0
13, 6000, Note_on_c, 15, 67, 76
13, 6000, Note_on_c, 15, 48, 76
13, 6000, Note_on_c, 15, 64, 76
13, 6000, Note_on_c, 15, 60, 76
13, 6239, Note_on_c, 15, 67, 0
13, 6239, Note_on_c, 15, 48, 0
13, 6239, Note_on_c, 15, 64, 0
13, 6239, Note_on_c, 15, 60, 0
13, 6240, Note_on_c, 15, 68, 76
13, 6240, Note_on_c, 15, 71, 76
13, 6240, Note_on_c, 15, 52, 76
13, 6240, Note_on_c, 15, 64, 76
13, 6479, Note_on_c, 15, 68, 0
13, 6479, Note_on_c, 15, 71, 0
13, 6479, Note_on_c, 15, 52, 0
13, 6479, Note_on_c, 15, 64, 0
13, 6480, Note_on_c, 15, 57, 76
13, 6480, Note_on_c, 15, 45, 76
13, 6480, Note_on_c, 15, 64, 76
13, 6480, Note_on_c, 15, 60, 76
13, 6719, Note_on_c, 15, 57, 0
13, 6719, Note_on_c, 15, 45, 0
13, 6719, Note_on_c, 15, 64, 0
13, 6719, Note_on_c, 15, 60, 0
13, 6720, Note_on_c, 15, 62, 76
13, 6720, Note_on_c, 15, 66, 76
13, 6720, Note_on_c, 15, 69, 76
13, 6720, Note_on_c, 15, 50, 76
13, 6839, Note_on_c, 15, 62, 0
13, 6839, Note_on_c, 15, 66, 0
13, 6839, Note_on_c, 15, 69, 0
13, 6839, Note_on_c, 15, 50, 0
13, 6840, Note_on_c, 15, 67, 76
13, 6840, Note_on_c, 15, 52, 76
13, 6840, Note_on_c, 15, 71, 76
13, 6840, Note_on_c, 15, 64, 76
13, 6959, Note_on_c, 15, 67, 0
13, 6959, Note_on_c, 15, 52, 0
13, 6959, Note_on_c, 15, 71, 0
13, 6959, Note_on_c, 15, 64, 0
13, 6960, Note_on_c, 15, 67, 76
13, 6960, Note_on_c, 15, 62, 76
13, 6960, Note_on_c, 15, 50, 76
13, 6960, Note_on_c, 15, 71, 76
13, 7079, Note_on_c, 15, 67, 0
13, 7079, Note_on_c, 15, 62, 0
13, 7079, Note_on_c, 15, 50, 0
13, 7079, Note_on_c, 15, 71, 0
13, 7080, Note_on_c, 15, 60, 76
13, 7080, Note_on_c, 15, 71, 76
13, 7080, Note_on_c, 15, 67, 76
13, 7080, Note_on_c, 15, 48, 76
13, 7199, Note_on_c, 15, 60, 0
13, 7199, Note_on_c, 15, 71, 0
13, 7199, Note_on_c, 15, 67, 0
13, 7199, Note_on_c, 15, 48, 0
13, 7200, Note_on_c, 15, 67, 76
13, 7200, Note_on_c, 15, 59, 76
13, 7200, Note_on_c, 15, 71, 76
13, 7200, Note_on_c, 15, 47, 76
13, 7319, Note_on_c, 15, 67, 0
13, 7319, Note_on_c, 15, 59, 0
13, 7319, Note_on_c, 15, 71, 0
13, 7319, Note_on_c, 15, 47, 0
13, 7320, Note_on_c, 15, 45, 76
13, 7320, Note_on_c, 15, 67, 76
13, 7320, Note_on_c, 15, 57, 76
13, 7320, Note_on_c, 15, 71, 76
13, 7439, Note_on_c, 15, 45, 0
13, 7439, Note_on_c, 15, 67, 0
13, 7439, Note_on_c, 15, 57, 0
13, 7439, Note_on_c, 15, 71, 0
13, 7440, Note_on_c, 15, 67, 76
13, 7440, Note_on_c, 15, 62, 76
13, 7440, Note_on_c, 15, 59, 76
13, 7440, Note_on_c, 15, 47, 76
13, 7679, Note_on_c, 15, 67, 0
13, 7679, Note_on_c, 15, 62, 0
13, 7679, Note_on_c, 15, 59, 0
13, 7679, Note_on_c, 15, 47, 0
13, 7680, Note_on_c, 15, 60, 76
13, 7680, Note_on_c, 15, 48, 76
13, 7680, Note_on_c, 15, 64, 76
13, 7680, Note_on_c, 15, 67, 76
13, 7919, Note_on_c, 15, 60, 0
13, 7919, Note_on_c, 15, 48, 0
13, 7919, Note_on_c, 15, 64, 0
13, 7919, Note_on_c, 15, 67, 0
13, 7920, Note_on_c, 15, 57, 76
13, 7920, Note_on_c, 15, 45, 76
13, 7920, Note_on_c, 15, 66, 76
13, 7920, Note_on_c, 15, 60, 76
13, 8159, Note_on_c, 15, 57, 0
13, 8159, Note_on_c, 15, 45, 0
13, 8159, Note_on_c, 15, 66, 0
13, 8159, Note_on_c, 15, 60, 0
13, 8160, Note_on_c, 15, 62, 76
13, 8160, Note_on_c, 15, 59, 76
13, 8160, Note_on_c, 15, 43, 76
13, 8160, Note_on_c, 15, 55, 76
13, 8399, Note_on_c, 15, 62, 0
13, 8399, Note_on_c, 15, 59, 0
13, 8399, Note_on_c, 15, 43, 0
13, 8399, Note_on_c, 15, 55, 0
13, 8400, Note_on_c, 15, 62, 76
13, 8400, Note_on_c, 15, 54, 76
13, 8400, Note_on_c, 15, 42, 76
13, 8400, Note_on_c, 15, 57, 76
13, 8639, Note_on_c, 15, 62, 0
13, 8639, Note_on_c, 15, 54, 0
13, 8639, Note_on_c, 15, 42, 0
13, 8639, Note_on_c, 15, 57, 0
13, 8640, Note_on_c, 15, 55, 76
13, 8640, Note_on_c, 15, 62, 76
13, 8640, Note_on_c, 15, 59, 76
13, 8640, Note_on_c, 15, 43, 76
13, 8879, Note_on_c, 15, 55, 0
13, 8879, Note_on_c, 15, 62, 0
13, 8879, Note_on_c, 15, 59, 0
13, 8879, Note_on_c, 15, 43, 0
13, 8880, Note_on_c, 15, 40, 76
13, 8880, Note_on_c, 15, 52, 76
13, 8880, Note_on_c, 15, 55, 76
13, 8880, Note_on_c, 15, 60, 76
13, 9119, Note_on_c, 15, 40, 0
13, 9119, Note_on_c, 15, 52, 0
13, 9119, Note_on_c, 15, 55, 0
13, 9119, Note_on_c, 15, 60, 0
13, 9120, Note_on_c, 15, 60, 76
13, 9120, Note_on_c, 15, 57, 76
13, 9120, Note_on_c, 15, 54, 76
13, 9120, Note_on_c, 15, 42, 76
13, 9359, Note_on_c, 15, 60, 0
13, 9359, Note_on_c, 15, 57, 0
13, 9359, Note_on_c, 15, 54, 0
13, 9359, Note_on_c, 15, 42, 0
13, 9360, Note_on_c, 15, 62, 76
13, 9360, Note_on_c, 15, 59, 76
13, 9360, Note_on_c, 15, 55, 76
13, 9360, Note_on_c, 15, 43, 76
13, 9599, Note_on_c, 15, 62, 0
13, 9599, Note_on_c, 15, 59, 0
13, 9599, Note_on_c, 15, 55, 0
13, 9599, Note_on_c, 15, 43, 0
13, 9600, Note_on_c, 15, 69, 76
13, 9600, Note_on_c, 15, 48, 76
13, 9600, Note_on_c, 15, 67, 76
13, 9600, Note_on_c, 15, 60, 76
13, 9600, Note_on_c, 15, 64, 76
13, 9839, Note_on_c, 15, 69, 0
13, 9839, Note_on_c, 15, 48, 0
13, 9839, Note_on_c, 15, 67, 0
13, 9839, Note_on_c, 15, 60, 0
13, 9839, Note_on_c, 15, 64, 0
13, 9840, Note_on_c, 15, 66, 76
13, 9840, Note_on_c, 15, 50, 76
13, 9840, Note_on_c, 15, 69, 76
13, 9840, Note_on_c, 15, 62, 76
13, 10079, Note_on_c, 15, 66, 0
13, 10079, Note_on_c, 15, 50, 0
13, 10079, Note_on_c, 15, 69, 0
13, 10079, Note_on_c, 15, 62, 0
13, 10080, Note_on_c, 15, 50, 76
13, 10080, Note_on_c, 15, 38, 76
13, 10080, Note_on_c, 15, 54, 76
13, 10080, Note_on_c, 15, 57, 76
13, 10319, Note_on_c, 15, 50, 0
13, 10319, Note_on_c, 15, 38, 0
13, 10319, Note_on_c, 15, 54, 0
13, 10319, Note_on_c, 15, 57, 0
13, 10320, Note_on_c, 15, 59, 76
13, 10320, Note_on_c, 15, 55, 76
13, 10320, Note_on_c, 15, 62, 76
13, 10320, Note_on_c, 15, 43, 76
13, 11519, Note_on_c, 15, 59, 0
13, 11519, Note_on_c, 15, 55, 0
13, 11519, Note_on_c, 15, 62, 0
13, 11519, Note_on_c, 15, 43, 0
13, 11640, Note_on_c, 15, 60, 76
13, 11640, Note_on_c, 15, 67, 76
13, 11640, Note_on_c, 15, 48, 76
13, 11640, Note_on_c, 15, 64, 76
13, 11759, Note_on_c, 15, 60, 0
13, 11759, Note_on_c, 15, 67, 0
13, 11759, Note_on_c, 15, 48, 0
13, 11759, Note_on_c, 15, 64, 0
13, 11760, Note_on_c, 15, 67, 76
13, 11760, Note_on_c, 15, 64, 76
13, 11760, Note_on_c, 15, 60, 76
13, 11760, Note_on_c, 15, 48, 76
13, 12479, Note_on_c, 15, 67, 0
13, 12479, Note_on_c, 15, 64, 0
13, 12479, Note_on_c, 15, 60, 0
13, 12479, Note_on_c, 15, 48, 0
13, 12480, Note_on_c, 15, 60, 76
13, 12480, Note_on_c, 15, 72, 76
13, 12480, Note_on_c, 15, 76, 76
13, 12480, Note_on_c, 15, 79, 76
13, 12719, Note_on_c, 15, 60, 0
13, 12719, Note_on_c, 15, 72, 0
13, 12719, Note_on_c, 15, 76, 0
13, 12719, Note_on_c, 15, 79, 0
13, 12720, Note_on_c, 15, 67, 76
13, 12720, Note_on_c, 15, 74, 76
13, 12720, Note_on_c, 15, 55, 76
13, 12720, Note_on_c, 15, 71, 76
13, 12720, Note_on_c, 15, 77, 76
13, 12959, Note_on_c, 15, 67, 0
13, 12959, Note_on_c, 15, 74, 0
13, 12959, Note_on_c, 15, 55, 0
13, 12959, Note_on_c, 15, 71, 0
13, 12959, Note_on_c, 15, 77, 0
13, 12960, Note_on_c, 15, 76, 76
13, 12960, Note_on_c, 15, 69, 76
13, 12960, Note_on_c, 15, 57, 76
13, 12960, Note_on_c, 15, 72, 76
13, 13199, Note_on_c, 15, 76, 0
13, 13199, Note_on_c, 15, 69, 0
13, 13199, Note_on_c, 15, 57, 0
13, 13199, Note_on_c, 15, 72, 0
13, 13200, Note_on_c, 15, 67, 76
13, 13200, Note_on_c, 15, 72, 76
13, 13200, Note_on_c, 15, 64, 76
13, 13200, Note_on_c, 15, 52, 76
13, 13319, Note_on_c, 15, 67, 0
13, 13319, Note_on_c, 15, 72, 0
13, 13319, Note_on_c, 15, 64, 0
13, 13319, Note_on_c, 15, 52, 0
13, 13320, Note_on_c, 15, 69, 76
13, 13320, Note_on_c, 15, 72, 76
13, 13320, Note_on_c, 15, 65, 76
13, 13320, Note_on_c, 15, 53, 76
13, 13439, Note_on_c, 15, 69, 0
13, 13439, Note_on_c, 15, 72, 0
13, 13439, Note_on_c, 15, 65, 0
13, 13439, Note_on_c, 15, 53, 0
13, 13440, Note_on_c, 15, 67, 76
13, 13440, Note_on_c, 15, 72, 76
13, 13440, Note_on_c, 15, 64, 76
13, 13440, Note_on_c, 15, 52, 76
13, 13559, Note_on_c, 15, 67, 0
13, 13559, Note_on_c, 15, 72, 0
13, 13559, Note_on_c, 15, 64, 0
13, 13559, Note_on_c, 15, 52, 0
13, 13560, Note_on_c, 15, 65, 76
13, 13560, Note_on_c, 15, 69, 76
13, 13560, Note_on_c, 15, 50, 76
13, 13560, Note_on_c, 15, 62, 76
13, 13679, Note_on_c, 15, 65, 0
13, 13679, Note_on_c, 15, 69, 0
13, 13679, Note_on_c, 15, 50, 0
13, 13679, Note_on_c, 15, 62, 0
13, 13680, Note_on_c, 15, 48, 76
13, 13680, Note_on_c, 15, 64, 76
13, 13680, Note_on_c, 15, 67, 76
13, 13680, Note_on_c, 15, 60, 76
13, 13919, Note_on_c, 15, 48, 0
13, 13919, Note_on_c, 15, 64, 0
13, 13919, Note_on_c, 15, 67, 0
13, 13919, Note_on_c, 15, 60, 0
13, 13920, Note_on_c, 15, 79, 76
13, 13920, Note_on_c, 15, 76, 76
13, 13920, Note_on_c, 15, 58, 76
13, 13920, Note_on_c, 15, 72, 76
13, 13920, Note_on_c, 15, 70, 76
13, 14159, Note_on_c, 15, 79, 0
13, 14159, Note_on_c, 15, 76, 0
13, 14159, Note_on_c, 15, 58, 0
13, 14159, Note_on_c, 15, 72, 0
13, 14159, Note_on_c, 15, 70, 0
13, 14160, Note_on_c, 15, 57, 76
13, 14160, Note_on_c, 15, 77, 76
13, 14160, Note_on_c, 15, 72, 76
13, 14160, Note_on_c, 15, 69, 76
13, 14399, Note_on_c, 15, 57, 0
13, 14399, Note_on_c, 15, 77, 0
13, 14399, Note_on_c, 15, 72, 0
13, 14399, Note_on_c, 15, 69, 0
13, 14400, Note_on_c, 15, 67, 76
13, 14400, Note_on_c, 15, 70, 76
13, 14400, Note_on_c, 15, 76, 76
13, 14400, Note_on_c, 15, 55, 76
13, 14639, Note_on_c, 15, 67, 0
13, 14639, Note_on_c, 15, 70, 0
13, 14639, Note_on_c, 15, 76, 0
13, 14639, Note_on_c, 15, 55, 0
13, 14640, Note_on_c, 15, 69, 76
13, 14640, Note_on_c, 15, 53, 76
13, 14640, Note_on_c, 15, 72, 76
13, 14640, Note_on_c, 15, 65, 76
13, 14879, Note_on_c, 15, 69, 0
13, 14879, Note_on_c, 15, 53, 0
13, 14879, Note_on_c, 15, 72, 0
13, 14879, Note_on_c, 15, 65, 0
13, 14880, Note_on_c, 15, 64, 76
13, 14880, Note_on_c, 15, 52, 76
13, 14880, Note_on_c, 15, 72, 76
13, 14880, Note_on_c, 15, 69, 76
13, 15119, Note_on_c, 15, 64, 0
13, 15119, Note_on_c, 15, 52, 0
13, 15119, Note_on_c, 15, 72, 0
13, 15119, Note_on_c, 15, 69, 0
13, 15120, Note_on_c, 15, 71, 76
13, 15120, Note_on_c, 15, 65, 76
13, 15120, Note_on_c, 15, 62, 76
13, 15120, Note_on_c, 15, 50, 76
13, 15359, Note_on_c, 15, 71, 0
13, 15359, Note_on_c, 15, 65, 0
13, 15359, Note_on_c, 15, 62, 0
13, 15359, Note_on_c, 15, 50, 0
13, 15360, Note_on_c, 15, 65, 76
13, 15360, Note_on_c, 15, 62, 76
13, 15360, Note_on_c, 15, 47, 76
13, 15360, Note_on_c, 15, 59, 76
13, 15599, Note_on_c, 15, 65, 0
13, 15599, Note_on_c, 15, 62, 0
13, 15599, Note_on_c, 15, 47, 0
13, 15599, Note_on_c, 15, 59, 0
13, 15600, Note_on_c, 15, 60, 76
13, 15600, Note_on_c, 15, 64, 76
13, 15600, Note_on_c, 15, 48, 76
13, 15839, Note_on_c, 15, 60, 0
13, 15839, Note_on_c, 15, 64, 0
13, 15839, Note_on_c, 15, 48, 0
13, 15840, Note_on_c, 15, 64, 76
13, 15840, Note_on_c, 15, 53, 76
13, 15840, Note_on_c, 15, 41, 76
13, 16079, Note_on_c, 15, 64, 0
13, 16079, Note_on_c, 15, 53, 0
13, 16079, Note_on_c, 15, 41, 0
13, 16080, Note_on_c, 15, 62, 76
13, 16080, Note_on_c, 15, 59, 76
13, 16080, Note_on_c, 15, 43, 76
13, 16080, Note_on_c, 15, 55, 76
13, 16319, Note_on_c, 15, 62, 0
13, 16319, Note_on_c, 15, 59, 0
13, 16319, Note_on_c, 15, 43, 0
13, 16319, Note_on_c, 15, 55, 0
13, 16320, Note_on_c, 15, 55, 76
13, 16320, Note_on_c, 15, 67, 76
13, 16320, Note_on_c, 15, 71, 76
13, 16320, Note_on_c, 15, 74, 76
13, 16559, Note_on_c, 15, 55, 0
13, 16559, Note_on_c, 15, 67, 0
13, 16559, Note_on_c, 15, 71, 0
13, 16559, Note_on_c, 15, 74, 0
13, 16560, Note_on_c, 15, 74, 76
13, 16560, Note_on_c, 15, 71, 76
13, 16560, Note_on_c, 15, 67, 76
13, 16560, Note_on_c, 15, 53, 76
13, 16560, Note_on_c, 15, 65, 76
13, 16799, Note_on_c, 15, 74, 0
13, 16799, Note_on_c, 15, 71, 0
13, 16799, Note_on_c, 15, 67, 0
13, 16799, Note_on_c, 15, 53, 0
13, 16799, Note_on_c, 15, 65, 0
13, 16800, Note_on_c, 15, 52, 76
13, 16800, Note_on_c, 15, 64, 76
13, 16800, Note_on_c, 15, 72, 76
13, 16800, Note_on_c, 15, 67, 76
13, 17039, Note_on_c, 15, 52, 0
13, 17039, Note_on_c, 15, 64, 0
13, 17039, Note_on_c, 15, 72, 0
13, 17039, Note_on_c, 15, 67, 0
13, 17040, Note_on_c, 15, 65, 76
13, 17040, Note_on_c, 15, 69, 76
13, 17040, Note_on_c, 15, 72, 76
13, 17040, Note_on_c, 15, 74, 76
13, 17040, Note_on_c, 15, 53, 76
13, 17279, Note_on_c, 15, 65, 0
13, 17279, Note_on_c, 15, 69, 0
13, 17279, Note_on_c, 15, 72, 0
13, 17279, Note_on_c, 15, 74, 0
13, 17279, Note_on_c, 15, 53, 0
13, 17280, Note_on_c, 15, 74, 76
13, 17280, Note_on_c, 15, 55, 76
13, 17280, Note_on_c, 15, 67, 76
13, 17280, Note_on_c, 15, 71, 76
13, 17519, Note_on_c, 15, 74, 0
13, 17519, Note_on_c, 15, 55, 0
13, 17519, Note_on_c, 15, 67, 0
13, 17519, Note_on_c, 15, 71, 0
13, 17520, Note_on_c, 15, 67, 76
13, 17520, Note_on_c, 15, 48, 76
13, 17520, Note_on_c, 15, 64, 76
13, 17520, Note_on_c, 15, 60, 76
13, 17759, Note_on_c, 15, 67, 0
13, 17759, Note_on_c, 15, 48, 0
13, 17759, Note_on_c, 15, 64, 0
13, 17759, Note_on_c, 15, 60, 0
13, 17760, Note_on_c, 15, 68, 76
13, 17760, Note_on_c, 15, 52, 76
13, 17760, Note_on_c, 15, 64, 76
13, 17760, Note_on_c, 15, 71, 76
13, 17999, Note_on_c, 15, 68, 0
13, 17999, Note_on_c, 15, 52, 0
13, 17999, Note_on_c, 15, 64, 0
13, 17999, Note_on_c, 15, 71, 0
13, 18000, Note_on_c, 15, 45, 76
13, 18000, Note_on_c, 15, 64, 76
13, 18000, Note_on_c, 15, 60, 76
13, 18000, Note_on_c, 15, 57, 76
13, 18239, Note_on_c, 15, 45, 0
13, 18239, Note_on_c, 15, 64, 0
13, 18239, Note_on_c, 15, 60, 0
13, 18239, Note_on_c, 15, 57, 0
13, 18240, Note_on_c, 15, 50, 76
13, 18240, Note_on_c, 15, 66, 76
13, 18240, Note_on_c, 15, 69, 76
13, 18240, Note_on_c, 15, 62, 76
13, 18359, Note_on_c, 15, 50, 0
13, 18359, Note_on_c, 15, 66, 0
13, 18359, Note_on_c, 15, 69, 0
13, 18359, Note_on_c, 15, 62, 0
13, 18360, Note_on_c, 15, 64, 76
13, 18360, Note_on_c, 15, 71, 76
13, 18360, Note_on_c, 15, 67, 76
13, 18360, Note_on_c, 15, 52, 76
13, 18479, Note_on_c, 15, 64, 0
13, 18479, Note_on_c, 15, 71, 0
13, 18479, Note_on_c, 15, 67, 0
13, 18479, Note_on_c, 15, 52, 0
13, 18480, Note_on_c, 15, 67, 76
13, 18480, Note_on_c, 15, 71, 76
13, 18480, Note_on_c, 15, 62, 76
13, 18480, Note_on_c, 15, 50, 76
13, 18599, Note_on_c, 15, 67, 0
13, 18599, Note_on_c, 15, 71, 0
13, 18599, Note_on_c, 15, 62, 0
13, 18599, Note_on_c, 15, 50, 0
13, 18600, Note_on_c, 15, 71, 76
13, 18600, Note_on_c, 15, 60, 76
13, 18600, Note_on_c, 15, 67, 76
13, 18600, Note_on_c, 15, 48, 76
13, 18719, Note_on_c, 15, 71, 0
13, 18719, Note_on_c, 15, 60, 0
13, 18719, Note_on_c, 15, 67, 0
13, 18719, Note_on_c, 15, 48, 0
13, 18720, Note_on_c, 15, 59, 76
13, 18720, Note_on_c, 15, 47, 76
13, 18720, Note_on_c, 15, 67, 76
13, 18720, Note_on_c, 15, 71, 76
13, 18839, Note_on_c, 15, 59, 0
13, 18839, Note_on_c, 15, 47, 0
13, 18839, Note_on_c, 15, 67, 0
13, 18839, Note_on_c, 15, 71, 0
13, 18840, Note_on_c, 15, 67, 76
13, 18840, Note_on_c, 15, 57, 76
13, 18840, Note_on_c, 15, 45, 76
13, 18840, Note_on_c, 15, 71, 76
13, 18959, Note_on_c, 15, 67, 0
13, 18959, Note_on_c, 15, 57, 0
13, 18959, Note_on_c, 15, 45, 0
13, 18959, Note_on_c, 15, 71, 0
13, 18960, Note_on_c, 15, 47, 76
13, 18960, Note_on_c, 15, 62, 76
13, 18960, Note_on_c, 15, 59, 76
13, 18960, Note_on_c, 15, 67, 76
13, 19199, Note_on_c, 15, 47, 0
13, 19199, Note_on_c, 15, 62, 0
13, 19199, Note_on_c, 15, 59, 0
13, 19199, Note_on_c, 15, 67, 0
13, 19200, Note_on_c, 15, 67, 76
13, 19200, Note_on_c, 15, 64, 76
13, 19200, Note_on_c, 15, 60, 76
13, 19200, Note_on_c, 15, 48, 76
13, 19439, Note_on_c, 15, 67, 0
13, 19439, Note_on_c, 15, 64, 0
13, 19439, Note_on_c, 15, 60, 0
13, 19439, Note_on_c, 15, 48, 0
13, 19440, Note_on_c, 15, 57, 76
13, 19440, Note_on_c, 15, 66, 76
13, 19440, Note_on_c, 15, 60, 76
13, 19440, Note_on_c, 15, 45, 76
13, 19679, Note_on_c, 15, 57, 0
13, 19679, Note_on_c, 15, 66, 0
13, 19679, Note_on_c, 15, 60, 0
13, 19679, Note_on_c, 15, 45, 0
13, 19680, Note_on_c, 15, 59, 76
13, 19680, Note_on_c, 15, 43, 76
13, 19680, Note_on_c, 15, 55, 76
13, 19680, Note_on_c, 15, 62, 76
13, 19919, Note_on_c, 15, 59, 0
13, 19919, Note_on_c, 15, 43, 0
13, 19919, Note_on_c, 15, 55, 0
13, 19919, Note_on_c, 15, 62, 0
13, 19920, Note_on_c, 15, 62, 76
13, 19920, Note_on_c, 15, 42, 76
13, 19920, Note_on_c, 15, 57, 76
13, 19920, Note_on_c, 15, 54, 76
13, 20159, Note_on_c, 15, 62, 0
13, 20159, Note_on_c, 15, 42, 0
13, 20159, Note_on_c, 15, 57, 0
13, 20159, Note_on_c, 15, 54, 0
13, 20160, Note_on_c, 15, 55, 76
13, 20160, Note_on_c, 15, 43, 76
13, 20160, Note_on_c, 15, 59, 76
13, 20160, Note_on_c, 15, 62, 76
13, 20399, Note_on_c, 15, 55, 0
13, 20399, Note_on_c, 15, 43, 0
13, 20399, Note_on_c, 15, 59, 0
13, 20399, Note_on_c, 15, 62, 0
13, 20400, Note_on_c, 15, 55, 76
13, 20400, Note_on_c, 15, 40, 76
13, 20400, Note_on_c, 15, 60, 76
13, 20400, Note_on_c, 15, 52, 76
13, 20639, Note_on_c, 15, 55, 0
13, 20639, Note_on_c, 15, 40, 0
13, 20639, Note_on_c, 15, 60, 0
13, 20639, Note_on_c, 15, 52, 0
13, 20640, Note_on_c, 15, 57, 76
13, 20640, Note_on_c, 15, 42, 76
13, 20640, Note_on_c, 15, 54, 76
13, 20640, Note_on_c, 15, 60, 76
13, 20879, Note_on_c, 15, 57, 0
13, 20879, Note_on_c, 15, 42, 0
13, 20879, Note_on_c, 15, 54, 0
13, 20879, Note_on_c, 15, 60, 0
13, 20880, Note_on_c, 15, 62, 76
13, 20880, Note_on_c, 15, 55, 76
13, 20880, Note_on_c, 15, 43, 76
13, 20880, Note_on_c, 15, 59, 76
13, 21119, Note_on_c, 15, 62, 0
13, 21119, Note_on_c, 15, 55, 0
13, 21119, Note_on_c, 15, 43, 0
13, 21119, Note_on_c, 15, 59, 0
13, 21120, Note_on_c, 15, 48, 76
13, 21120, Note_on_c, 15, 60, 76
13, 21120, Note_on_c, 15, 69, 76
13, 21120, Note_on_c, 15, 67, 76
13, 21120, Note_on_c, 15, 64, 76
13, 21359, Note_on_c, 15, 48, 0
13, 21359, Note_on_c, 15, 60, 0
13, 21359, Note_on_c, 15, 69, 0
13, 21359, Note_on_c, 15, 67, 0
13, 21359, Note_on_c, 15, 64, 0
13, 21360, Note_on_c, 15, 69, 76
13, 21360, Note_on_c, 15, 62, 76
13, 21360, Note_on_c, 15, 66, 76
13, 21360, Note_on_c, 15, 50, 76
13, 21599, Note_on_c, 15, 69, 0
13, 21599, Note_on_c, 15, 62, 0
13, 21599, Note_on_c, 15, 66, 0
13, 21599, Note_on_c, 15, 50, 0
13, 21600, Note_on_c, 15, 38, 76
13, 21600, Note_on_c, 15, 57, 76
13, 21600, Note_on_c, 15, 54, 76
13, 21600, Note_on_c, 15, 50, 76
13, 21839, Note_on_c, 15, 38, 0
13, 21839, Note_on_c, 15, 57, 0
13, 21839, Note_on_c, 15, 54, 0
13, 21839, Note_on_c, 15, 50, 0
13, 21840, Note_on_c, 15, 55, 76
13, 21840, Note_on_c, 15, 62, 76
13, 21840, Note_on_c, 15, 59, 76
13, 21840, Note_on_c, 15, 43, 76
13, 23039, Note_on_c, 15, 55, 0
13, 23039, Note_on_c, 15, 62, 0
13, 23039, Note_on_c, 15, 59, 0
13, 23039, Note_on_c, 15, 43, 0
13, 23160, Note_on_c, 15, 55, 76
13, 23160, Note_on_c, 15, 71, 76
13, 23160, Note_on_c, 15, 67, 76
13, 23160, Note_on_c, 15, 74, 76
13, 23279, Note_on_c, 15, 55, 0
13, 23279, Note_on_c, 15, 71, 0
13, 23279, Note_on_c, 15, 67, 0
13, 23279, Note_on_c, 15, 74, 0
13, 23280, Note_on_c, 15, 71, 76
13, 23280, Note_on_c, 15, 74, 76
13, 23280, Note_on_c, 15, 55, 76
13, 23280, Note_on_c, 15, 67, 76
13, 23519, Note_on_c, 15, 71, 0
13, 23519, Note_on_c, 15, 74, 0
13, 23519, Note_on_c, 15, 55, 0
13, 23519, Note_on_c, 15, 67, 0
13, 23520, Note_on_c, 15, 65, 76
13, 23520, Note_on_c, 15, 53, 76
13, 23520, Note_on_c, 15, 74, 76
13, 23520, Note_on_c, 15, 71, 76
13, 23520, Note_on_c, 15, 67, 76
13, 23639, Note_on_c, 15, 65, 0
13, 23639, Note_on_c, 15, 53, 0
13, 23639, Note_on_c, 15, 74, 0
13, 23639, Note_on_c, 15, 71, 0
13, 23639, Note_on_c, 15, 67, 0
13, 23640, Note_on_c, 15, 73, 76
13, 23640, Note_on_c, 15, 67, 76
13, 23640, Note_on_c, 15, 52, 76
13, 23640, Note_on_c, 15, 64, 76
13, 23759, Note_on_c, 15, 73, 0
13, 23759, Note_on_c, 15, 67, 0
13, 23759, Note_on_c, 15, 52, 0
13, 23759, Note_on_c, 15, 64, 0
13, 23760, Note_on_c, 15, 62, 76
13, 23760, Note_on_c, 15, 69, 76
13, 23760, Note_on_c, 15, 50, 76
13, 23760, Note_on_c, 15, 65, 76
13, 24239, Note_on_c, 15, 69, 0
13, 24239, Note_on_c, 15, 65, 0
13, 24240, Note_on_c, 15, 70, 76
13, 24240, Note_on_c, 15, 64, 76
13, 24240, Note_on_c, 15, 67, 76
13, 24359, Note_on_c, 15, 62, 0
13, 24359, Note_on_c, 15, 50, 0
13, 24359, Note_on_c, 15, 70, 0
13, 24359, Note_on_c, 15, 64, 0
13, 24359, Note_on_c, 15, 67, 0
13, 24360, Note_on_c, 15, 64, 76
13, 24360, Note_on_c, 15, 49, 76
13, 24360, Note_on_c, 15, 67, 76
13, 24360, Note_on_c, 15, 61, 76
13, 24479, Note_on_c, 15, 64, 0
13, 24479, Note_on_c, 15, 49, 0
13, 24479, Note_on_c, 15, 67, 0
13, 24479, Note_on_c, 15, 61, 0
13, 24480, Note_on_c, 15, 67, 76
13, 24480, Note_on_c, 15, 70, 76
13, 24480, Note_on_c, 15, 62, 76
13, 24480, Note_on_c, 15, 50, 76
13, 24480, Note_on_c, 15, 64, 76
13, 24599, Note_on_c, 15, 67, 0
13, 24599, Note_on_c, 15, 70, 0
13, 24599, Note_on_c, 15, 62, 0
13, 24599, Note_on_c, 15, 50, 0
13, 24599, Note_on_c, 15, 64, 0
13, 24600, Note_on_c, 15, 67, 76
13, 24600, Note_on_c, 15, 70, 76
13, 24600, Note_on_c, 15, 64, 76
13, 24600, Note_on_c, 15, 52, 76
13, 24719, Note_on_c, 15, 67, 0
13, 24719, Note_on_c, 15, 70, 0
13, 24719, Note_on_c, 15, 64, 0
13, 24719, Note_on_c, 15, 52, 0
13, 24720, Note_on_c, 15, 69, 76
13, 24720, Note_on_c, 15, 65, 76
13, 24720, Note_on_c, 15, 53, 76
13, 24720, Note_on_c, 15, 74, 76
13, 24839, Note_on_c, 15, 69, 0
13, 24839, Note_on_c, 15, 65, 0
13, 24839, Note_on_c, 15, 53, 0
13, 24839, Note_on_c, 15, 74, 0
13, 24840, Note_on_c, 15, 74, 76
13, 24840, Note_on_c, 15, 67, 76
13, 24840, Note_on_c, 15, 55, 76
13, 24840, Note_on_c, 15, 71, 76
13, 24959, Note_on_c, 15, 74, 0
13, 24959, Note_on_c, 15, 67, 0
13, 24959, Note_on_c, 15, 55, 0
13, 24959, Note_on_c, 15, 71, 0
13, 24960, Note_on_c, 15, 65, 76
13, 24960, Note_on_c, 15, 74, 76
13, 24960, Note_on_c, 15, 69, 76
13, 24960, Note_on_c, 15, 53, 76
13, 25079, Note_on_c, 15, 65, 0
13, 25079, Note_on_c, 15, 74, 0
13, 25079, Note_on_c, 15, 69, 0
13, 25079, Note_on_c, 15, 53, 0
13, 25080, Note_on_c, 15, 52, 76
13, 25080, Note_on_c, 15, 67, 76
13, 25080, Note_on_c, 15, 64, 76
13, 25080, Note_on_c, 15, 71, 76
13, 25199, Note_on_c, 15, 52, 0
13, 25199, Note_on_c, 15, 67, 0
13, 25199, Note_on_c, 15, 64, 0
13, 25199, Note_on_c, 15, 71, 0
13, 25200, Note_on_c, 15, 69, 76
13, 25200, Note_on_c, 15, 50, 76
13, 25200, Note_on_c, 15, 62, 76
13, 25200, Note_on_c, 15, 65, 76
13, 25439, Note_on_c, 15, 69, 0
13, 25439, Note_on_c, 15, 50, 0
13, 25439, Note_on_c, 15, 62, 0
13, 25439, Note_on_c, 15, 65, 0
13, 25440, Note_on_c, 15, 77, 76
13, 25440, Note_on_c, 15, 72, 76
13, 25440, Note_on_c, 15, 74, 76
13, 25440, Note_on_c, 15, 81, 76
13, 25440, Note_on_c, 15, 60, 76
13, 25679, Note_on_c, 15, 77, 0
13, 25679, Note_on_c, 15, 72, 0
13, 25679, Note_on_c, 15, 74, 0
13, 25679, Note_on_c, 15, 81, 0
13, 25679, Note_on_c, 15, 60, 0
13, 25680, Note_on_c, 15, 58, 76
13, 25680, Note_on_c, 15, 74, 76
13, 25680, Note_on_c, 15, 79, 76
13, 25680, Note_on_c, 15, 70, 76
13, 25919, Note_on_c, 15, 58, 0
13, 25919, Note_on_c, 15, 74, 0
13, 25919, Note_on_c, 15, 79, 0
13, 25919, Note_on_c, 15, 70, 0
13, 25920, Note_on_c, 15, 69, 76
13, 25920, Note_on_c, 15, 72, 76
13, 25920, Note_on_c, 15, 78, 76
13, 25920, Note_on_c, 15, 57, 76
13, 26159, Note_on_c, 15, 69, 0
13, 26159, Note_on_c, 15, 72, 0
13, 26159, Note_on_c, 15, 78, 0
13, 26159, Note_on_c, 15, 57, 0
13, 26160, Note_on_c, 15, 74, 76
13, 26160, Note_on_c, 15, 55, 76
13, 26160, Note_on_c, 15, 67, 76
13, 26160, Note_on_c, 15, 70, 76
13, 26279, Note_on_c, 15, 74, 0
13, 26279, Note_on_c, 15, 55, 0
13, 26279, Note_on_c, 15, 67, 0
13, 26279, Note_on_c, 15, 70, 0
13, 26280, Note_on_c, 15, 53, 76
13, 26280, Note_on_c, 15, 69, 76
13, 26280, Note_on_c, 15, 65, 76
13, 26280, Note_on_c, 15, 72, 76
13, 26399, Note_on_c, 15, 53, 0
13, 26399, Note_on_c, 15, 69, 0
13, 26399, Note_on_c, 15, 65, 0
13, 26399, Note_on_c, 15, 72, 0
13, 26400, Note_on_c, 15, 55, 76
13, 26400, Note_on_c, 15, 67, 76
13, 26400, Note_on_c, 15, 70, 76
13, 26400, Note_on_c, 15, 74, 76
13, 26519, Note_on_c, 15, 55, 0
13, 26519, Note_on_c, 15, 67, 0
13, 26519, Note_on_c, 15, 70, 0
13, 26519, Note_on_c, 15, 74, 0
13, 26520, Note_on_c, 15, 72, 76
13, 26520, Note_on_c, 15, 76, 76
13, 26520, Note_on_c, 15, 57, 76
13, 26520, Note_on_c, 15, 69, 76
13, 26639, Note_on_c, 15, 72, 0
13, 26639, Note_on_c, 15, 76, 0
13, 26639, Note_on_c, 15, 57, 0
13, 26639, Note_on_c, 15, 69, 0
13, 26640, Note_on_c, 15, 79, 76
13, 26640, Note_on_c, 15, 58, 76
13, 26640, Note_on_c, 15, 74, 76
13, 26640, Note_on_c, 15, 70, 76
13, 26879, Note_on_c, 15, 79, 0
13, 26879, Note_on_c, 15, 58, 0
13, 26879, Note_on_c, 15, 74, 0
13, 26879, Note_on_c, 15, 70, 0
13, 26880, Note_on_c, 15, 67, 76
13, 26880, Note_on_c, 15, 49, 76
13, 26880, Note_on_c, 15, 64, 76
13, 26880, Note_on_c, 15, 69, 76
13, 26880, Note_on_c, 15, 61, 76
13, 27119, Note_on_c, 15, 67, 0
13, 27119, Note_on_c, 15, 49, 0
13, 27119, Note_on_c, 15, 64, 0
13, 27119, Note_on_c, 15, 69, 0
13, 27119, Note_on_c, 15, 61, 0
13, 27120, Note_on_c, 15, 62, 76
13, 27120, Note_on_c, 15, 65, 76
13, 27120, Note_on_c, 15, 50, 76
13, 27120, Note_on_c, 15, 69, 76
13, 27359, Note_on_c, 15, 62, 0
13, 27359, Note_on_c, 15, 65, 0
13, 27359, Note_on_c, 15, 50, 0
13, 27359, Note_on_c, 15, 69, 0
13, 27360, Note_on_c, 15, 58, 76
13, 27360, Note_on_c, 15, 62, 76
13, 27360, Note_on_c, 15, 55, 76
13, 27360, Note_on_c, 15, 43, 76
13, 27599, Note_on_c, 15, 58, 0
13, 27599, Note_on_c, 15, 62, 0
13, 27599, Note_on_c, 15, 55, 0
13, 27599, Note_on_c, 15, 43, 0
13, 27600, Note_on_c, 15, 57, 76
13, 27600, Note_on_c, 15, 64, 76
13, 27600, Note_on_c, 15, 61, 76
13, 27600, Note_on_c, 15, 45, 76
13, 27839, Note_on_c, 15, 57, 0
13, 27839, Note_on_c, 15, 64, 0
13, 27839, Note_on_c, 15, 61, 0
13, 27839, Note_on_c, 15, 45, 0
13, 27840, Note_on_c, 15, 73, 76
13, 27840, Note_on_c, 15, 69, 76
13, 27840, Note_on_c, 15, 76, 76
13, 27840, Note_on_c, 15, 57, 76
13, 28079, Note_on_c, 15, 73, 0
13, 28079, Note_on_c, 15, 69, 0
13, 28079, Note_on_c, 15, 76, 0
13, 28079, Note_on_c, 15, 57, 0
13, 28080, Note_on_c, 15, 74, 76
13, 28080, Note_on_c, 15, 55, 76
13, 28080, Note_on_c, 15, 67, 76
13, 28080, Note_on_c, 15, 71, 76
13, 28319, Note_on_c, 15, 74, 0
13, 28319, Note_on_c, 15, 55, 0
13, 28319, Note_on_c, 15, 67, 0
13, 28319, Note_on_c, 15, 71, 0
13, 28320, Note_on_c, 15, 69, 76
13, 28320, Note_on_c, 15, 74, 76
13, 28320, Note_on_c, 15, 53, 76
13, 28320, Note_on_c, 15, 65, 76
13, 28559, Note_on_c, 15, 69, 0
13, 28559, Note_on_c, 15, 74, 0
13, 28559, Note_on_c, 15, 53, 0
13, 28559, Note_on_c, 15, 65, 0
13, 28560, Note_on_c, 15, 76, 76
13, 28560, Note_on_c, 15, 67, 76
13, 28560, Note_on_c, 15, 74, 76
13, 28560, Note_on_c, 15, 55, 76
13, 28560, Note_on_c, 15, 70, 76
13, 28799, Note_on_c, 15, 76, 0
13, 28799, Note_on_c, 15, 67, 0
13, 28799, Note_on_c, 15, 74, 0
13, 28799, Note_on_c, 15, 55, 0
13, 28799, Note_on_c, 15, 70, 0
13, 28800, Note_on_c, 15, 76, 76
13, 28800, Note_on_c, 15, 73, 76
13, 28800, Note_on_c, 15, 69, 76
13, 28800, Note_on_c, 15, 57, 76
13, 29039, Note_on_c, 15, 76, 0
13, 29039, Note_on_c, 15, 73, 0
13, 29039, Note_on_c, 15, 69, 0
13, 29039, Note_on_c, 15, 57, 0
13, 29040, Note_on_c, 15, 50, 76
13, 29040, Note_on_c, 15, 69, 76
13, 29040, Note_on_c, 15, 65, 76
13, 29040, Note_on_c, 15, 62, 76
13, 29279, Note_on_c, 15, 50, 0
13, 29279, Note_on_c, 15, 69, 0
13, 29279, Note_on_c, 15, 65, 0
13, 29279, Note_on_c, 15, 62, 0
13, 29280, Note_on_c, 15, 69, 76
13, 29280, Note_on_c, 15, 65, 76
13, 29280, Note_on_c, 15, 72, 76
13, 29280, Note_on_c, 15, 53, 76
13, 29519, Note_on_c, 15, 69, 0
13, 29519, Note_on_c, 15, 65, 0
13, 29519, Note_on_c, 15, 72, 0
13, 29519, Note_on_c, 15, 53, 0
13, 29520, Note_on_c, 15, 62, 76
13, 29520, Note_on_c, 15, 65, 76
13, 29520, Note_on_c, 15, 59, 76
13, 29520, Note_on_c, 15, 47, 76
13, 29520, Note_on_c, 15, 69, 76
13, 29759, Note_on_c, 15, 62, 0
13, 29759, Note_on_c, 15, 65, 0
13, 29759, Note_on_c, 15, 59, 0
13, 29759, Note_on_c, 15, 47, 0
13, 29759, Note_on_c, 15, 69, 0
13, 29760, Note_on_c, 15, 64, 76
13, 29760, Note_on_c, 15, 71, 76
13, 29760, Note_on_c, 15, 68, 76
13, 29760, Note_on_c, 15, 52, 76
13, 29879, Note_on_c, 15, 64, 0
13, 29879, Note_on_c, 15, 71, 0
13, 29879, Note_on_c, 15, 68, 0
13, 29879, Note_on_c, 15, 52, 0
13, 29880, Note_on_c, 15, 65, 76
13, 29880, Note_on_c, 15, 53, 76
13, 29880, Note_on_c, 15, 72, 76
13, 29880, Note_on_c, 15, 69, 76
13, 29999, Note_on_c, 15, 65, 0
13, 29999, Note_on_c, 15, 53, 0
13, 29999, Note_on_c, 15, 72, 0
13, 29999, Note_on_c, 15, 69, 0
13, 30000, Note_on_c, 15, 52, 76
13, 30000, Note_on_c, 15, 64, 76
13, 30000, Note_on_c, 15, 72, 76
13, 30000, Note_on_c, 15, 69, 76
13, 30119, Note_on_c, 15, 52, 0
13, 30119, Note_on_c, 15, 64, 0
13, 30119, Note_on_c, 15, 72, 0
13, 30119, Note_on_c, 15, 69, 0
13, 30120, Note_on_c, 15, 72, 76
13, 30120, Note_on_c, 15, 69, 76
13, 30120, Note_on_c, 15, 50, 76
13, 30120, Note_on_c, 15, 62, 76
13, 30239, Note_on_c, 15, 72, 0
13, 30239, Note_on_c, 15, 69, 0
13, 30239, Note_on_c, 15, 50, 0
13, 30239, Note_on_c, 15, 62, 0
13, 30240, Note_on_c, 15, 48, 76
13, 30240, Note_on_c, 15, 72, 76
13, 30240, Note_on_c, 15, 60, 76
13, 30240, Note_on_c, 15, 69, 76
13, 30359, Note_on_c, 15, 48, 0
13, 30359, Note_on_c, 15, 72, 0
13, 30359, Note_on_c, 15, 60, 0
13, 30359, Note_on_c, 15, 69, 0
13, 30360, Note_on_c, 15, 47, 76
13, 30360, Note_on_c, 15, 68, 76
13, 30360, Note_on_c, 15, 59, 76
13, 30360, Note_on_c, 15, 62, 76
13, 30479, Note_on_c, 15, 47, 0
13, 30479, Note_on_c, 15, 68, 0
13, 30479, Note_on_c, 15, 59, 0
13, 30479, Note_on_c, 15, 62, 0
13, 30480, Note_on_c, 15, 60, 76
13, 30480, Note_on_c, 15, 48, 76
13, 30480, Note_on_c, 15, 64, 76
13, 30480, Note_on_c, 15, 69, 76
13, 30719, Note_on_c, 15, 60, 0
13, 30719, Note_on_c, 15, 48, 0
13, 30719, Note_on_c, 15, 64, 0
13, 30719, Note_on_c, 15, 69, 0
13, 30720, Note_on_c, 15, 62, 76
13, 30720, Note_on_c, 15, 66, 76
13, 30720, Note_on_c, 15, 69, 76
13, 30720, Note_on_c, 15, 50, 76
13, 30959, Note_on_c, 15, 62, 0
13, 30959, Note_on_c, 15, 66, 0
13, 30959, Note_on_c, 15, 69, 0
13, 30959, Note_on_c, 15, 50, 0
13, 30960, Note_on_c, 15, 68, 76
13, 30960, Note_on_c, 15, 62, 76
13, 30960, Note_on_c, 15, 47, 76
13, 30960, Note_on_c, 15, 59, 76
13, 31199, Note_on_c, 15, 68, 0
13, 31199, Note_on_c, 15, 62, 0
13, 31199, Note_on_c, 15, 47, 0
13, 31199, Note_on_c, 15, 59, 0
13, 31200, Note_on_c, 15, 45, 76
13, 31200, Note_on_c, 15, 64, 76
13, 31200, Note_on_c, 15, 57, 76
13, 31200, Note_on_c, 15, 60, 76
13, 31439, Note_on_c, 15, 45, 0
13, 31439, Note_on_c, 15, 64, 0
13, 31439, Note_on_c, 15, 57, 0
13, 31439, Note_on_c, 15, 60, 0
13, 31440, Note_on_c, 15, 44, 76
13, 31440, Note_on_c, 15, 59, 76
13, 31440, Note_on_c, 15, 56, 76
13, 31440, Note_on_c, 15, 64, 76
13, 31679, Note_on_c, 15, 44, 0
13, 31679, Note_on_c, 15, 59, 0
13, 31679, Note_on_c, 15, 56, 0
13, 31679, Note_on_c, 15, 64, 0
13, 31680, Note_on_c, 15, 45, 76
13, 31680, Note_on_c, 15, 64, 76
13, 31680, Note_on_c, 15, 60, 76
13, 31680, Note_on_c, 15, 57, 76
13, 31919, Note_on_c, 15, 45, 0
13, 31919, Note_on_c, 15, 64, 0
13, 31919, Note_on_c, 15, 60, 0
13, 31919, Note_on_c, 15, 57, 0
13, 31920, Note_on_c, 15, 54, 76
13, 31920, Note_on_c, 15, 57, 76
13, 31920, Note_on_c, 15, 62, 76
13, 31920, Note_on_c, 15, 42, 76
13, 32159, Note_on_c, 15, 54, 0
13, 32159, Note_on_c, 15, 57, 0
13, 32159, Note_on_c, 15, 62, 0
13, 32159, Note_on_c, 15, 42, 0
13, 32160, Note_on_c, 15, 56, 76
13, 32160, Note_on_c, 15, 59, 76
13, 32160, Note_on_c, 15, 62, 76
13, 32160, Note_on_c, 15, 44, 76
13, 32399, Note_on_c, 15, 56, 0
13, 32399, Note_on_c, 15, 59, 0
13, 32399, Note_on_c, 15, 62, 0
13, 32399, Note_on_c, 15, 44, 0
13, 32400, Note_on_c, 15, 60, 76
13, 32400, Note_on_c, 15, 64, 76
13, 32400, Note_on_c, 15, 45, 76
13, 32400, Note_on_c, 15, 57, 76
13, 32639, Note_on_c, 15, 60, 0
13, 32639, Note_on_c, 15, 64, 0
13, 32639, Note_on_c, 15, 45, 0
13, 32639, Note_on_c, 15, 57, 0
13, 32640, Note_on_c, 15, 50, 76
13, 32640, Note_on_c, 15, 71, 76
13, 32640, Note_on_c, 15, 62, 76
13, 32640, Note_on_c, 15, 66, 76
13, 32879, Note_on_c, 15, 50, 0
13, 32879, Note_on_c, 15, 71, 0
13, 32879, Note_on_c, 15, 62, 0
13, 32879, Note_on_c, 15, 66, 0
13, 32880, Note_on_c, 15, 64, 76
13, 32880, Note_on_c, 15, 68, 76
13, 32880, Note_on_c, 15, 52, 76
13, 32880, Note_on_c, 15, 71, 76
13, 33119, Note_on_c, 15, 64, 0
13, 33119, Note_on_c, 15, 68, 0
13, 33119, Note_on_c, 15, 52, 0
13, 33119, Note_on_c, 15, 71, 0
13, 33120, Note_on_c, 15, 52, 76
13, 33120, Note_on_c, 15, 59, 76
13, 33120, Note_on_c, 15, 56, 76
13, 33120, Note_on_c, 15, 40, 76
13, 33359, Note_on_c, 15, 52, 0
13, 33359, Note_on_c, 15, 59, 0
13, 33359, Note_on_c, 15, 56, 0
13, 33359, Note_on_c, 15, 40, 0
13, 33360, Note_on_c, 15, 57, 76
13, 33360, Note_on_c, 15, 64, 76
13, 33360, Note_on_c, 15, 60, 76
13, 33360, Note_on_c, 15, 45, 76
13, 33479, Note_on_c, 15, 57, 0
13, 33479, Note_on_c, 15, 64, 0
13, 33479, Note_on_c, 15, 60, 0
13, 33479, Note_on_c, 15, 45, 0
13, 33480, Note_on_c, 15, 44, 76
13, 33480, Note_on_c, 15, 62, 76
13, 33480, Note_on_c, 15, 56, 76
13, 33480, Note_on_c, 15, 59, 76
13, 33599, Note_on_c, 15, 44, 0
13, 33599, Note_on_c, 15, 62, 0
13, 33599, Note_on_c, 15, 56, 0
13, 33599, Note_on_c, 15, 59, 0
13, 33600, Note_on_c, 15, 64, 76
13, 33600, Note_on_c, 15, 60, 76
13, 33600, Note_on_c, 15, 57, 76
13, 33600, Note_on_c, 15, 45, 76
13, 33719, Note_on_c, 15, 64, 0
13, 33719, Note_on_c, 15, 60, 0
13, 33719, Note_on_c, 15, 57, 0
13, 33719, Note_on_c, 15, 45, 0
13, 33720, Note_on_c, 15, 59, 76
13, 33720, Note_on_c, 15, 65, 76
13, 33720, Note_on_c, 15, 47, 76
13, 33720, Note_on_c, 15, 62, 76
13, 33839, Note_on_c, 15, 59, 0
13, 33839, Note_on_c, 15, 65, 0
13, 33839, Note_on_c, 15, 47, 0
13, 33839, Note_on_c, 15, 62, 0
13, 33840, Note_on_c, 15, 60, 76
13, 33840, Note_on_c, 15, 64, 76
13, 33840, Note_on_c, 15, 48, 76
13, 33840, Note_on_c, 15, 69, 76
13, 34079, Note_on_c, 15, 60, 0
13, 34079, Note_on_c, 15, 64, 0
13, 34079, Note_on_c, 15, 48, 0
13, 34079, Note_on_c, 15, 69, 0
13, 34080, Note_on_c, 15, 67, 76
13, 34080, Note_on_c, 15, 64, 76
13, 34080, Note_on_c, 15, 71, 76
13, 34080, Note_on_c, 15, 52, 76
13, 34319, Note_on_c, 15, 67, 0
13, 34319, Note_on_c, 15, 64, 0
13, 34319, Note_on_c, 15, 71, 0
13, 34319, Note_on_c, 15, 52, 0
13, 34320, Note_on_c, 15, 76, 76
13, 34320, Note_on_c, 15, 57, 76
13, 34320, Note_on_c, 15, 69, 76
13, 34320, Note_on_c, 15, 72, 76
13, 34559, Note_on_c, 15, 76, 0
13, 34559, Note_on_c, 15, 57, 0
13, 34559, Note_on_c, 15, 69, 0
13, 34559, Note_on_c, 15, 72, 0
13, 34560, Note_on_c, 15, 67, 76
13, 34560, Note_on_c, 15, 55, 76
13, 34560, Note_on_c, 15, 72, 76
13, 34560, Note_on_c, 15, 76, 76
13, 34679, Note_on_c, 15, 67, 0
13, 34679, Note_on_c, 15, 55, 0
13, 34679, Note_on_c, 15, 72, 0
13, 34679, Note_on_c, 15, 76, 0
13, 34680, Note_on_c, 15, 76, 76
13, 34680, Note_on_c, 15, 53, 76
13, 34680, Note_on_c, 15, 72, 76
13, 34680, Note_on_c, 15, 65, 76
13, 34799, Note_on_c, 15, 76, 0
13, 34799, Note_on_c, 15, 53, 0
13, 34799, Note_on_c, 15, 72, 0
13, 34799, Note_on_c, 15, 65, 0
13, 34800, Note_on_c, 15, 64, 76
13, 34800, Note_on_c, 15, 72, 76
13, 34800, Note_on_c, 15, 52, 76
13, 34800, Note_on_c, 15, 67, 76
13, 34919, Note_on_c, 15, 64, 0
13, 34919, Note_on_c, 15, 72, 0
13, 34919, Note_on_c, 15, 52, 0
13, 34919, Note_on_c, 15, 67, 0
13, 34920, Note_on_c, 15, 62, 76
13, 34920, Note_on_c, 15, 65, 76
13, 34920, Note_on_c, 15, 69, 76
13, 34920, Note_on_c, 15, 50, 76
13, 35039, Note_on_c, 15, 62, 0
13, 35039, Note_on_c, 15, 65, 0
13, 35039, Note_on_c, 15, 69, 0
13, 35039, Note_on_c, 15, 50, 0
13, 35040, Note_on_c, 15, 64, 76
13, 35040, Note_on_c, 15, 67, 76
13, 35040, Note_on_c, 15, 52, 76
13, 35040, Note_on_c, 15, 72, 76
13, 35159, Note_on_c, 15, 64, 0
13, 35159, Note_on_c, 15, 67, 0
13, 35159, Note_on_c, 15, 52, 0
13, 35159, Note_on_c, 15, 72, 0
13, 35160, Note_on_c, 15, 65, 76
13, 35160, Note_on_c, 15, 72, 76
13, 35160, Note_on_c, 15, 53, 76
13, 35160, Note_on_c, 15, 69, 76
13, 35279, Note_on_c, 15, 65, 0
13, 35279, Note_on_c, 15, 72, 0
13, 35279, Note_on_c, 15, 53, 0
13, 35279, Note_on_c, 15, 69, 0
13, 35280, Note_on_c, 15, 67, 76
13, 35280, Note_on_c, 15, 70, 76
13, 35280, Note_on_c, 15, 55, 76
13, 35280, Note_on_c, 15, 76, 76
13, 35519, Note_on_c, 15, 67, 0
13, 35519, Note_on_c, 15, 70, 0
13, 35519, Note_on_c, 15, 55, 0
13, 35519, Note_on_c, 15, 76, 0
13, 35520, Note_on_c, 15, 64, 76
13, 35520, Note_on_c, 15, 70, 76
13, 35520, Note_on_c, 15, 60, 76
13, 35520, Note_on_c, 15, 48, 76
13, 35520, Note_on_c, 15, 67, 76
13, 35759, Note_on_c, 15, 64, 0
13, 35759, Note_on_c, 15, 70, 0
13, 35759, Note_on_c, 15, 60, 0
13, 35759, Note_on_c, 15, 48, 0
13, 35759, Note_on_c, 15, 67, 0
13, 35760, Note_on_c, 15, 70, 76
13, 35760, Note_on_c, 15, 62, 76
13, 35760, Note_on_c, 15, 65, 76
13, 35760, Note_on_c, 15, 50, 76
13, 35999, Note_on_c, 15, 70, 0
13, 35999, Note_on_c, 15, 62, 0
13, 35999, Note_on_c, 15, 65, 0
13, 35999, Note_on_c, 15, 50, 0
13, 36000, Note_on_c, 15, 72, 76
13, 36000, Note_on_c, 15, 67, 76
13, 36000, Note_on_c, 15, 52, 76
13, 36000, Note_on_c, 15, 64, 76
13, 36000, Note_on_c, 15, 70, 76
13, 36239, Note_on_c, 15, 72, 0
13, 36239, Note_on_c, 15, 67, 0
13, 36239, Note_on_c, 15, 52, 0
13, 36239, Note_on_c, 15, 64, 0
13, 36239, Note_on_c, 15, 70, 0
13, 36240, Note_on_c, 15, 72, 76
13, 36240, Note_on_c, 15, 53, 76
13, 36240, Note_on_c, 15, 69, 76
13, 36240, Note_on_c, 15, 65, 76
13, 36359, Note_on_c, 15, 72, 0
13, 36359, Note_on_c, 15, 53, 0
13, 36359, Note_on_c, 15, 69, 0
13, 36359, Note_on_c, 15, 65, 0
13, 36360, Note_on_c, 15, 71, 76
13, 36360, Note_on_c, 15, 67, 76
13, 36360, Note_on_c, 15, 64, 76
13, 36360, Note_on_c, 15, 52, 76
13, 36479, Note_on_c, 15, 71, 0
13, 36479, Note_on_c, 15, 67, 0
13, 36479, Note_on_c, 15, 64, 0
13, 36479, Note_on_c, 15, 52, 0
13, 36480, Note_on_c, 15, 65, 76
13, 36480, Note_on_c, 15, 69, 76
13, 36480, Note_on_c, 15, 53, 76
13, 36480, Note_on_c, 15, 72, 76
13, 36599, Note_on_c, 15, 65, 0
13, 36599, Note_on_c, 15, 69, 0
13, 36599, Note_on_c, 15, 53, 0
13, 36599, Note_on_c, 15, 72, 0
13, 36600, Note_on_c, 15, 71, 76
13, 36600, Note_on_c, 15, 74, 76
13, 36600, Note_on_c, 15, 67, 76
13, 36600, Note_on_c, 15, 55, 76
13, 36719, Note_on_c, 15, 71, 0
13, 36719, Note_on_c, 15, 74, 0
13, 36719, Note_on_c, 15, 67, 0
13, 36719, Note_on_c, 15, 55, 0
13, 36720, Note_on_c, 15, 69, 76
13, 36720, Note_on_c, 15, 57, 76
13, 36720, Note_on_c, 15, 77, 76
13, 36720, Note_on_c, 15, 72, 76
13, 36839, Note_on_c, 15, 69, 0
13, 36839, Note_on_c, 15, 57, 0
13, 36839, Note_on_c, 15, 77, 0
13, 36839, Note_on_c, 15, 72, 0
13, 36840, Note_on_c, 15, 77, 76
13, 36840, Note_on_c, 15, 70, 76
13, 36840, Note_on_c, 15, 74, 76
13, 36840, Note_on_c, 15, 58, 76
13, 36959, Note_on_c, 15, 77, 0
13, 36959, Note_on_c, 15, 70, 0
13, 36959, Note_on_c, 15, 74, 0
13, 36959, Note_on_c, 15, 58, 0
13, 36960, Note_on_c, 15, 73, 76
13, 36960, Note_on_c, 15, 76, 76
13, 36960, Note_on_c, 15, 69, 76
13, 36960, Note_on_c, 15, 57, 76
13, 37079, Note_on_c, 15, 73, 0
13, 37079, Note_on_c, 15, 76, 0
13, 37079, Note_on_c, 15, 69, 0
13, 37079, Note_on_c, 15, 57, 0
13, 37080, Note_on_c, 15, 70, 76
13, 37080, Note_on_c, 15, 67, 76
13, 37080, Note_on_c, 15, 74, 76
13, 37080, Note_on_c, 15, 55, 76
13, 37199, Note_on_c, 15, 70, 0
13, 37199, Note_on_c, 15, 67, 0
13, 37199, Note_on_c, 15, 74, 0
13, 37199, Note_on_c, 15, 55, 0
13, 37200, Note_on_c, 15, 65, 76
13, 37200, Note_on_c, 15, 69, 76
13, 37200, Note_on_c, 15, 53, 76
13, 37200, Note_on_c, 15, 74, 76
13, 37319, Note_on_c, 15, 65, 0
13, 37319, Note_on_c, 15, 69, 0
13, 37319, Note_on_c, 15, 53, 0
13, 37319, Note_on_c, 15, 74, 0
13, 37320, Note_on_c, 15, 52, 76
13, 37320, Note_on_c, 15, 70, 76
13, 37320, Note_on_c, 15, 67, 76
13, 37320, Note_on_c, 15, 64, 76
13, 37439, Note_on_c, 15, 52, 0
13, 37439, Note_on_c, 15, 70, 0
13, 37439, Note_on_c, 15, 67, 0
13, 37439, Note_on_c, 15, 64, 0
13, 37440, Note_on_c, 15, 62, 76
13, 37440, Note_on_c, 15, 65, 76
13, 37440, Note_on_c, 15, 69, 76
13, 37440, Note_on_c, 15, 50, 76
13, 37559, Note_on_c, 15, 62, 0
13, 37559, Note_on_c, 15, 65, 0
13, 37559, Note_on_c, 15, 69, 0
13, 37559, Note_on_c, 15, 50, 0
13, 37560, Note_on_c, 15, 49, 76
13, 37560, Note_on_c, 15, 64, 76
13, 37560, Note_on_c, 15, 61, 76
13, 37560, Note_on_c, 15, 69, 76
13, 37679, Note_on_c, 15, 49, 0
13, 37679, Note_on_c, 15, 64, 0
13, 37679, Note_on_c, 15, 61, 0
13, 37679, Note_on_c, 15, 69, 0
13, 37680, Note_on_c, 15, 50, 76
13, 37680, Note_on_c, 15, 69, 76
13, 37680, Note_on_c, 15, 65, 76
13, 37680, Note_on_c, 15, 62, 76
13, 37919, Note_on_c, 15, 50, 0
13, 37919, Note_on_c, 15, 69, 0
13, 37919, Note_on_c, 15, 65, 0
13, 37919, Note_on_c, 15, 62, 0
13, 37920, Note_on_c, 15, 64, 76
13, 37920, Note_on_c, 15, 52, 76
13, 37920, Note_on_c, 15, 67, 76
13, 37920, Note_on_c, 15, 71, 76
13, 38159, Note_on_c, 15, 64, 0
13, 38159, Note_on_c, 15, 52, 0
13, 38159, Note_on_c, 15, 67, 0
13, 38159, Note_on_c, 15, 71, 0
13, 38160, Note_on_c, 15, 53, 76
13, 38160, Note_on_c, 15, 65, 76
13, 38160, Note_on_c, 15, 74, 76
13, 38160, Note_on_c, 15, 69, 76
13, 38399, Note_on_c, 15, 53, 0
13, 38399, Note_on_c, 15, 65, 0
13, 38399, Note_on_c, 15, 74, 0
13, 38399, Note_on_c, 15, 69, 0
13, 38400, Note_on_c, 15, 50, 76
13, 38400, Note_on_c, 15, 65, 76
13, 38400, Note_on_c, 15, 69, 76
13, 38400, Note_on_c, 15, 62, 76
13, 38639, Note_on_c, 15, 50, 0
13, 38639, Note_on_c, 15, 65, 0
13, 38639, Note_on_c, 15, 69, 0
13, 38639, Note_on_c, 15, 62, 0
13, 38640, Note_on_c, 15, 67, 76
13, 38640, Note_on_c, 15, 72, 76
13, 38640, Note_on_c, 15, 52, 76
13, 38640, Note_on_c, 15, 64, 76
13, 38879, Note_on_c, 15, 67, 0
13, 38879, Note_on_c, 15, 72, 0
13, 38879, Note_on_c, 15, 52, 0
13, 38879, Note_on_c, 15, 64, 0
13, 38880, Note_on_c, 15, 53, 76
13, 38880, Note_on_c, 15, 69, 76
13, 38880, Note_on_c, 15, 65, 76
13, 39119, Note_on_c, 15, 53, 0
13, 39119, Note_on_c, 15, 69, 0
13, 39119, Note_on_c, 15, 65, 0
13, 39120, Note_on_c, 15, 67, 76
13, 39120, Note_on_c, 15, 71, 76
13, 39120, Note_on_c, 15, 55, 76
13, 39120, Note_on_c, 15, 74, 76
13, 39359, Note_on_c, 15, 67, 0
13, 39359, Note_on_c, 15, 71, 0
13, 39359, Note_on_c, 15, 55, 0
13, 39359, Note_on_c, 15, 74, 0
13, 39360, Note_on_c, 15, 55, 76
13, 39360, Note_on_c, 15, 62, 76
13, 39360, Note_on_c, 15, 59, 76
13, 39360, Note_on_c, 15, 43, 76
13, 39599, Note_on_c, 15, 55, 0
13, 39599, Note_on_c, 15, 62, 0
13, 39599, Note_on_c, 15, 59, 0
13, 39599, Note_on_c, 15, 43, 0
13, 39600, Note_on_c, 15, 55, 76
13, 39600, Note_on_c, 15, 74, 76
13, 39600, Note_on_c, 15, 71, 76
13, 39600, Note_on_c, 15, 67, 76
13, 39839, Note_on_c, 15, 55, 0
13, 39839, Note_on_c, 15, 74, 0
13, 39839, Note_on_c, 15, 71, 0
13, 39839, Note_on_c, 15, 67, 0
13, 39840, Note_on_c, 15, 76, 76
13, 39840, Note_on_c, 15, 72, 76
13, 39840, Note_on_c, 15, 69, 76
13, 39840, Note_on_c, 15, 57, 76
13, 40079, Note_on_c, 15, 76, 0
13, 40079, Note_on_c, 15, 72, 0
13, 40079, Note_on_c, 15, 69, 0
13, 40079, Note_on_c, 15, 57, 0
13, 40080, Note_on_c, 15, 71, 76
13, 40080, Note_on_c, 15, 67, 76
13, 40080, Note_on_c, 15, 55, 76
13, 40319, Note_on_c, 15, 71, 0
13, 40319, Note_on_c, 15, 67, 0
13, 40319, Note_on_c, 15, 55, 0
13, 40320, Note_on_c, 15, 71, 76
13, 40320, Note_on_c, 15, 65, 76
13, 40320, Note_on_c, 15, 53, 76
13, 40559, Note_on_c, 15, 71, 0
13, 40559, Note_on_c, 15, 65, 0
13, 40559, Note_on_c, 15, 53, 0
13, 40560, Note_on_c, 15, 72, 76
13, 40560, Note_on_c, 15, 67, 76
13, 40560, Note_on_c, 15, 64, 76
13, 40560, Note_on_c, 15, 52, 76
13, 40799, Note_on_c, 15, 72, 0
13, 40799, Note_on_c, 15, 67, 0
13, 40799, Note_on_c, 15, 64, 0
13, 40799, Note_on_c, 15, 52, 0
13, 40800, Note_on_c, 15, 65, 76
13, 40800, Note_on_c, 15, 50, 76
13, 40800, Note_on_c, 15, 69, 76
13, 40800, Note_on_c, 15, 62, 76
13, 41039, Note_on_c, 15, 65, 0
13, 41039, Note_on_c, 15, 50, 0
13, 41039, Note_on_c, 15, 69, 0
13, 41039, Note_on_c, 15, 62, 0
13, 41040, Note_on_c, 15, 67, 76
13, 41040, Note_on_c, 15, 60, 76
13, 41040, Note_on_c, 15, 64, 76
13, 41040, Note_on_c, 15, 48, 76
13, 41279, Note_on_c, 15, 67, 0
13, 41279, Note_on_c, 15, 60, 0
13, 41279, Note_on_c, 15, 64, 0
13, 41279, Note_on_c, 15, 48, 0
13, 41280, Note_on_c, 15, 72, 76
13, 41280, Note_on_c, 15, 76, 76
13, 41280, Note_on_c, 15, 79, 76
13, 41280, Note_on_c, 15, 60, 76
13, 41519, Note_on_c, 15, 72, 0
13, 41519, Note_on_c, 15, 76, 0
13, 41519, Note_on_c, 15, 79, 0
13, 41519, Note_on_c, 15, 60, 0
13, 41520, Note_on_c, 15, 71, 76
13, 41520, Note_on_c, 15, 74, 76
13, 41520, Note_on_c, 15, 55, 76
13, 41520, Note_on_c, 15, 67, 76
13, 41520, Note_on_c, 15, 77, 76
13, 41759, Note_on_c, 15, 71, 0
13, 41759, Note_on_c, 15, 74, 0
13, 41759, Note_on_c, 15, 55, 0
13, 41759, Note_on_c, 15, 67, 0
13, 41759, Note_on_c, 15, 77, 0
13, 41760, Note_on_c, 15, 69, 76
13, 41760, Note_on_c, 15, 57, 76
13, 41760, Note_on_c, 15, 76, 76
13, 41760, Note_on_c, 15, 72, 76
13, 41999, Note_on_c, 15, 69, 0
13, 41999, Note_on_c, 15, 57, 0
13, 41999, Note_on_c, 15, 76, 0
13, 41999, Note_on_c, 15, 72, 0
13, 42000, Note_on_c, 15, 64, 76
13, 42000, Note_on_c, 15, 52, 76
13, 42000, Note_on_c, 15, 67, 76
13, 42000, Note_on_c, 15, 72, 76
13, 42119, Note_on_c, 15, 64, 0
13, 42119, Note_on_c, 15, 52, 0
13, 42119, Note_on_c, 15, 67, 0
13, 42119, Note_on_c, 15, 72, 0
13, 42120, Note_on_c, 15, 72, 76
13, 42120, Note_on_c, 15, 62, 76
13, 42120, Note_on_c, 15, 67, 76
13, 42120, Note_on_c, 15, 50, 76
13, 42239, Note_on_c, 15, 72, 0
13, 42239, Note_on_c, 15, 62, 0
13, 42239, Note_on_c, 15, 67, 0
13, 42239, Note_on_c, 15, 50, 0
13, 42240, Note_on_c, 15, 72, 76
13, 42240, Note_on_c, 15, 64, 76
13, 42240, Note_on_c, 15, 52, 76
13, 42240, Note_on_c, 15, 67, 76
13, 42359, Note_on_c, 15, 72, 0
13, 42359, Note_on_c, 15, 64, 0
13, 42359, Note_on_c, 15, 52, 0
13, 42359, Note_on_c, 15, 67, 0
13, 42360, Note_on_c, 15, 53, 76
13, 42360, Note_on_c, 15, 72, 76
13, 42360, Note_on_c, 15, 67, 76
13, 42360, Note_on_c, 15, 65, 76
13, 42479, Note_on_c, 15, 53, 0
13, 42479, Note_on_c, 15, 72, 0
13, 42479, Note_on_c, 15, 67, 0
13, 42479, Note_on_c, 15, 65, 0
13, 42480, Note_on_c, 15, 55, 76
13, 42480, Note_on_c, 15, 72, 76
13, 42480, Note_on_c, 15, 67, 76
13, 42599, Note_on_c, 15, 55, 0
13, 42599, Note_on_c, 15, 72, 0
13, 42599, Note_on_c, 15, 67, 0
13, 42600, Note_on_c, 15, 76, 76
13, 42600, Note_on_c, 15, 72, 76
13, 42600, Note_on_c, 15, 69, 76
13, 42600, Note_on_c, 15, 57, 76
13, 42719, Note_on_c, 15, 76, 0
13, 42719, Note_on_c, 15, 72, 0
13, 42719, Note_on_c, 15, 69, 0
13, 42719, Note_on_c, 15, 57, 0
13, 42720, Note_on_c, 15, 58, 76
13, 42720, Note_on_c, 15, 70, 76
13, 42720, Note_on_c, 15, 74, 76
13, 42720, Note_on_c, 15, 77, 76
13, 42959, Note_on_c, 15, 58, 0
13, 42959, Note_on_c, 15, 70, 0
13, 42959, Note_on_c, 15, 74, 0
13, 42959, Note_on_c, 15, 77, 0
13, 42960, Note_on_c, 15, 77, 76
13, 42960, Note_on_c, 15, 69, 76
13, 42960, Note_on_c, 15, 72, 76
13, 42960, Note_on_c, 15, 57, 76
13, 43199, Note_on_c, 15, 77, 0
13, 43199, Note_on_c, 15, 69, 0
13, 43199, Note_on_c, 15, 72, 0
13, 43199, Note_on_c, 15, 57, 0
13, 43200, Note_on_c, 15, 67, 76
13, 43200, Note_on_c, 15, 74, 76
13, 43200, Note_on_c, 15, 55, 76
13, 43200, Note_on_c, 15, 71, 76
13, 43439, Note_on_c, 15, 67, 0
13, 43439, Note_on_c, 15, 74, 0
13, 43439, Note_on_c, 15, 55, 0
13, 43439, Note_on_c, 15, 71, 0
13, 43440, Note_on_c, 15, 65, 76
13, 43440, Note_on_c, 15, 53, 76
13, 43440, Note_on_c, 15, 69, 76
13, 43440, Note_on_c, 15, 72, 76
13, 43679, Note_on_c, 15, 65, 0
13, 43679, Note_on_c, 15, 53, 0
13, 43679, Note_on_c, 15, 69, 0
13, 43679, Note_on_c, 15, 72, 0
13, 43680, Note_on_c, 15, 64, 76
13, 43680, Note_on_c, 15, 67, 76
13, 43680, Note_on_c, 15, 52, 76
13, 43680, Note_on_c, 15, 71, 76
13, 43919, Note_on_c, 15, 64, 0
13, 43919, Note_on_c, 15, 67, 0
13, 43919, Note_on_c, 15, 52, 0
13, 43919, Note_on_c, 15, 71, 0
13, 43920, Note_on_c, 15, 65, 76
13, 43920, Note_on_c, 15, 62, 76
13, 43920, Note_on_c, 15, 50, 76
13, 44159, Note_on_c, 15, 65, 0
13, 44159, Note_on_c, 15, 62, 0
13, 44159, Note_on_c, 15, 50, 0
13, 44160, Note_on_c, 15, 55, 76
13, 44160, Note_on_c, 15, 67, 76
13, 44160, Note_on_c, 15, 71, 76
13, 44279, Note_on_c, 15, 55, 0
13, 44279, Note_on_c, 15, 67, 0
13, 44279, Note_on_c, 15, 71, 0
13, 44280, Note_on_c, 15, 76, 76
13, 44280, Note_on_c, 15, 57, 76
13, 44280, Note_on_c, 15, 72, 76
13, 44280, Note_on_c, 15, 69, 76
13, 44399, Note_on_c, 15, 76, 0
13, 44399, Note_on_c, 15, 57, 0
13, 44399, Note_on_c, 15, 72, 0
13, 44399, Note_on_c, 15, 69, 0
13, 44400, Note_on_c, 15, 67, 76
13, 44400, Note_on_c, 15, 76, 76
13, 44400, Note_on_c, 15, 72, 76
13, 44400, Note_on_c, 15, 55, 76
13, 44519, Note_on_c, 15, 67, 0
13, 44519, Note_on_c, 15, 76, 0
13, 44519, Note_on_c, 15, 72, 0
13, 44519, Note_on_c, 15, 55, 0
13, 44520, Note_on_c, 15, 72, 76
13, 44520, Note_on_c, 15, 53, 76
13, 44520, Note_on_c, 15, 65, 76
13, 44520, Note_on_c, 15, 69, 76
13, 44639, Note_on_c, 15, 72, 0
13, 44639, Note_on_c, 15, 53, 0
13, 44639, Note_on_c, 15, 65, 0
13, 44639, Note_on_c, 15, 69, 0
13, 44640, Note_on_c, 15, 52, 76
13, 44640, Note_on_c, 15, 67, 76
13, 44640, Note_on_c, 15, 64, 76
13, 44640, Note_on_c, 15, 71, 76
13, 44759, Note_on_c, 15, 52, 0
13, 44759, Note_on_c, 15, 67, 0
13, 44759, Note_on_c, 15, 64, 0
13, 44759, Note_on_c, 15, 71, 0
13, 44760, Note_on_c, 15, 62, 76
13, 44760, Note_on_c, 15, 50, 76
13, 44760, Note_on_c, 15, 69, 76
13, 44760, Note_on_c, 15, 65, 76
13, 44879, Note_on_c, 15, 62, 0
13, 44879, Note_on_c, 15, 50, 0
13, 44879, Note_on_c, 15, 69, 0
13, 44879, Note_on_c, 15, 65, 0
13, 44880, Note_on_c, 15, 64, 76
13, 44880, Note_on_c, 15, 72, 76
13, 44880, Note_on_c, 15, 52, 76
13, 44880, Note_on_c, 15, 67, 76
13, 45119, Note_on_c, 15, 64, 0
13, 45119, Note_on_c, 15, 72, 0
13, 45119, Note_on_c, 15, 52, 0
13, 45119, Note_on_c, 15, 67, 0
13, 45120, Note_on_c, 15, 71, 76
13, 45120, Note_on_c, 15, 67, 76
13, 45120, Note_on_c, 15, 74, 76
13, 45120, Note_on_c, 15, 55, 76
13, 45359, Note_on_c, 15, 71, 0
13, 45359, Note_on_c, 15, 67, 0
13, 45359, Note_on_c, 15, 74, 0
13, 45359, Note_on_c, 15, 55, 0
13, 45360, Note_on_c, 15, 76, 76
13, 45360, Note_on_c, 15, 60, 76
13, 45360, Note_on_c, 15, 79, 76
13, 45360, Note_on_c, 15, 72, 76
13, 45479, Note_on_c, 15, 76, 0
13, 45479, Note_on_c, 15, 60, 0
13, 45479, Note_on_c, 15, 79, 0
13, 45479, Note_on_c, 15, 72, 0
13, 45480, Note_on_c, 15, 59, 76
13, 45480, Note_on_c, 15, 71, 76
13, 45480, Note_on_c, 15, 74, 76
13, 45480, Note_on_c, 15, 77, 76
13, 45599, Note_on_c, 15, 59, 0
13, 45599, Note_on_c, 15, 71, 0
13, 45599, Note_on_c, 15, 74, 0
13, 45599, Note_on_c, 15, 77, 0
13, 45600, Note_on_c, 15, 72, 76
13, 45600, Note_on_c, 15, 69, 76
13, 45600, Note_on_c, 15, 57, 76
13, 45600, Note_on_c, 15, 76, 76
13, 45719, Note_on_c, 15, 72, 0
13, 45719, Note_on_c, 15, 69, 0
13, 45719, Note_on_c, 15, 57, 0
13, 45719, Note_on_c, 15, 76, 0
13, 45720, Note_on_c, 15, 74, 76
13, 45720, Note_on_c, 15, 55, 76
13, 45720, Note_on_c, 15, 67, 76
13, 45720, Note_on_c, 15, 71, 76
13, 45839, Note_on_c, 15, 74, 0
13, 45839, Note_on_c, 15, 55, 0
13, 45839, Note_on_c, 15, 67, 0
13, 45839, Note_on_c, 15, 71, 0
13, 45840, Note_on_c, 15, 53, 76
13, 45840, Note_on_c, 15, 69, 76
13, 45840, Note_on_c, 15, 74, 76
13, 45840, Note_on_c, 15, 65, 76
13, 45959, Note_on_c, 15, 53, 0
13, 45959, Note_on_c, 15, 69, 0
13, 45959, Note_on_c, 15, 74, 0
13, 45959, Note_on_c, 15, 65, 0
13, 45960, Note_on_c, 15, 64, 76
13, 45960, Note_on_c, 15, 52, 76
13, 45960, Note_on_c, 15, 67, 76
13, 45960, Note_on_c, 15, 71, 76
13, 46079, Note_on_c, 15, 64, 0
13, 46079, Note_on_c, 15, 52, 0
13, 46079, Note_on_c, 15, 67, 0
13, 46079, Note_on_c, 15, 71, 0
13, 46080, Note_on_c, 15, 65, 76
13, 46080, Note_on_c, 15, 50, 76
13, 46080, Note_on_c, 15, 62, 76
13, 46080, Note_on_c, 15, 69, 76
13, 46199, Note_on_c, 15, 65, 0
13, 46199, Note_on_c, 15, 50, 0
13, 46199, Note_on_c, 15, 62, 0
13, 46199, Note_on_c, 15, 69, 0
13, 46200, Note_on_c, 15, 69, 76
13, 46200, Note_on_c, 15, 60, 76
13, 46200, Note_on_c, 15, 64, 76
13, 46200, Note_on_c, 15, 48, 76
13, 46319, Note_on_c, 15, 69, 0
13, 46319, Note_on_c, 15, 60, 0
13, 46319, Note_on_c, 15, 64, 0
13, 46319, Note_on_c, 15, 48, 0
13, 46320, Note_on_c, 15, 50, 76
13, 46320, Note_on_c, 15, 65, 76
13, 46320, Note_on_c, 15, 62, 76
13, 46320, Note_on_c, 15, 69, 76
13, 46559, Note_on_c, 15, 50, 0
13, 46559, Note_on_c, 15, 65, 0
13, 46559, Note_on_c, 15, 62, 0
13, 46559, Note_on_c, 15, 69, 0
13, 46560, Note_on_c, 15, 69, 76
13, 46560, Note_on_c, 15, 57, 76
13, 46560, Note_on_c, 15, 65, 76
13, 46679, Note_on_c, 15, 69, 0
13, 46679, Note_on_c, 15, 57, 0
13, 46679, Note_on_c, 15, 65, 0
13, 46680, Note_on_c, 15, 55, 76
13, 46680, Note_on_c, 15, 65, 76
13, 46680, Note_on_c, 15, 69, 76
13, 46799, Note_on_c, 15, 55, 0
13, 46799, Note_on_c, 15, 65, 0
13, 46799, Note_on_c, 15, 69, 0
13, 46800, Note_on_c, 15, 74, 76
13, 46800, Note_on_c, 15, 69, 76
13, 46800, Note_on_c, 15, 65, 76
13, 46800, Note_on_c, 15, 53, 76
13, 46919, Note_on_c, 15, 74, 0
13, 46919, Note_on_c, 15, 69, 0
13, 46919, Note_on_c, 15, 65, 0
13, 46919, Note_on_c, 15, 53, 0
13, 46920, Note_on_c, 15, 71, 76
13, 46920, Note_on_c, 15, 67, 76
13, 46920, Note_on_c, 15, 64, 76
13, 46920, Note_on_c, 15, 52, 76
13, 47039, Note_on_c, 15, 71, 0
13, 47039, Note_on_c, 15, 67, 0
13, 47039, Note_on_c, 15, 64, 0
13, 47039, Note_on_c, 15, 52, 0
13, 47040, Note_on_c, 15, 65, 76
13, 47040, Note_on_c, 15, 62, 76
13, 47040, Note_on_c, 15, 50, 76
13, 47040, Note_on_c, 15, 69, 76
13, 47159, Note_on_c, 15, 65, 0
13, 47159, Note_on_c, 15, 62, 0
13, 47159, Note_on_c, 15, 50, 0
13, 47159, Note_on_c, 15, 69, 0
13, 47160, Note_on_c, 15, 64, 76
13, 47160, Note_on_c, 15, 48, 76
13, 47160, Note_on_c, 15, 60, 76
13, 47160, Note_on_c, 15, 67, 76
13, 47279, Note_on_c, 15, 64, 0
13, 47279, Note_on_c, 15, 48, 0
13, 47279, Note_on_c, 15, 60, 0
13, 47279, Note_on_c, 15, 67, 0
13, 47280, Note_on_c, 15, 47, 76
13, 47280, Note_on_c, 15, 67, 76
13, 47280, Note_on_c, 15, 59, 76
13, 47280, Note_on_c, 15, 64, 76
13, 47399, Note_on_c, 15, 47, 0
13, 47399, Note_on_c, 15, 67, 0
13, 47399, Note_on_c, 15, 59, 0
13, 47399, Note_on_c, 15, 64, 0
13, 47400, Note_on_c, 15, 64, 76
13, 47400, Note_on_c, 15, 45, 76
13, 47400, Note_on_c, 15, 67, 76
13, 47400, Note_on_c, 15, 57, 76
13, 47519, Note_on_c, 15, 64, 0
13, 47519, Note_on_c, 15, 45, 0
13, 47519, Note_on_c, 15, 67, 0
13, 47519, Note_on_c, 15, 57, 0
13, 47520, Note_on_c, 15, 67, 76
13, 47520, Note_on_c, 15, 64, 76
13, 47520, Note_on_c, 15, 43, 76
13, 47520, Note_on_c, 15, 55, 76
13, 47639, Note_on_c, 15, 67, 0
13, 47639, Note_on_c, 15, 64, 0
13, 47639, Note_on_c, 15, 43, 0
13, 47639, Note_on_c, 15, 55, 0
13, 47640, Note_on_c, 15, 64, 76
13, 47640, Note_on_c, 15, 41, 76
13, 47640, Note_on_c, 15, 53, 76
13, 47640, Note_on_c, 15, 67, 76
13, 47759, Note_on_c, 15, 64, 0
13, 47759, Note_on_c, 15, 41, 0
13, 47759, Note_on_c, 15, 53, 0
13, 47759, Note_on_c, 15, 67, 0
13, 47760, Note_on_c, 15, 65, 76
13, 47760, Note_on_c, 15, 53, 76
13, 47760, Note_on_c, 15, 74, 76
13, 47760, Note_on_c, 15, 67, 76
13, 47760, Note_on_c, 15, 71, 76
13, 48479, Note_on_c, 15, 65, 0
13, 48479, Note_on_c, 15, 53, 0
13, 48479, Note_on_c, 15, 74, 0
13, 48479, Note_on_c, 15, 67, 0
13, 48479, Note_on_c, 15, 71, 0
13, 48480, Note_on_c, 15, 62, 76
13, 48480, Note_on_c, 15, 67, 76
13, 48480, Note_on_c, 15, 59, 76
13, 48480, Note_on_c, 15, 47, 76
13, 48719, Note_on_c, 15, 62, 0
13, 48719, Note_on_c, 15, 67, 0
13, 48719, Note_on_c, 15, 59, 0
13, 48719, Note_on_c, 15, 47, 0
13, 48720, Note_on_c, 15, 43, 76
13, 48720, Note_on_c, 15, 55, 76
13, 48720, Note_on_c, 15, 59, 76
13, 48720, Note_on_c, 15, 62, 76
13, 48959, Note_on_c, 15, 43, 0
13, 48959, Note_on_c, 15, 55, 0
13, 48959, Note_on_c, 15, 59, 0
13, 48959, Note_on_c, 15, 62, 0
13, 48960, Note_on_c, 15, 59, 76
13, 48960, Note_on_c, 15, 67, 76
13, 48960, Note_on_c, 15, 47, 76
13, 48960, Note_on_c, 15, 62, 76
13, 49199, Note_on_c, 15, 59, 0
13, 49199, Note_on_c, 15, 67, 0
13, 49199, Note_on_c, 15, 47, 0
13, 49199, Note_on_c, 15, 62, 0
13, 49200, Note_on_c, 15, 60, 76
13, 49200, Note_on_c, 15, 64, 76
13, 49200, Note_on_c, 15, 48, 76
13, 49200, Note_on_c, 15, 67, 76
13, 49439, Note_on_c, 15, 60, 0
13, 49439, Note_on_c, 15, 64, 0
13, 49439, Note_on_c, 15, 48, 0
13, 49439, Note_on_c, 15, 67, 0
13, 49440, Note_on_c, 15, 55, 76
13, 49440, Note_on_c, 15, 62, 76
13, 49440, Note_on_c, 15, 59, 76
13, 49440, Note_on_c, 15, 43, 76
13, 49679, Note_on_c, 15, 55, 0
13, 49679, Note_on_c, 15, 62, 0
13, 49679, Note_on_c, 15, 59, 0
13, 49679, Note_on_c, 15, 43, 0
13, 49680, Note_on_c, 15, 60, 76
13, 49680, Note_on_c, 15, 64, 76
13, 49680, Note_on_c, 15, 57, 76
13, 49680, Note_on_c, 15, 45, 76
13, 49919, Note_on_c, 15, 60, 0
13, 49919, Note_on_c, 15, 64, 0
13, 49919, Note_on_c, 15, 57, 0
13, 49919, Note_on_c, 15, 45, 0
13, 49920, Note_on_c, 15, 53, 76
13, 49920, Note_on_c, 15, 57, 76
13, 49920, Note_on_c, 15, 60, 76
13, 49920, Note_on_c, 15, 41, 76
13, 50159, Note_on_c, 15, 53, 0
13, 50159, Note_on_c, 15, 57, 0
13, 50159, Note_on_c, 15, 60, 0
13, 50159, Note_on_c, 15, 41, 0
13, 50160, Note_on_c, 15, 62, 76
13, 50160, Note_on_c, 15, 43, 76
13, 50160, Note_on_c, 15, 55, 76
13, 50160, Note_on_c, 15, 59, 76
13, 50639, Note_on_c, 15, 62, 0
13, 50639, Note_on_c, 15, 43, 0
13, 50639, Note_on_c, 15, 55, 0
13, 50639, Note_on_c, 15, 59, 0
13, 50640, Note_on_c, 15, 36, 76
13, 50640, Note_on_c, 15, 48, 76
13, 50640, Note_on_c, 15, 52, 76
13, 50640, Note_on_c, 15, 55, 76
13, 51839, Note_on_c, 15, 36, 0
13, 51839, Note_on_c, 15, 48, 0
13, 51839, Note_on_c, 15, 52, 0
13, 51839, Note_on_c, 15, 55, 0
13, 51960, Note_on_c, 15, 71, 76
13, 51960, Note_on_c, 15, 55, 76
13, 51960, Note_on_c, 15, 74, 76
13, 51960, Note_on_c, 15, 67, 76
13, 52079, Note_on_c, 15, 71, 0
13, 52079, Note_on_c, 15, 55, 0
13, 52079, Note_on_c, 15, 74, 0
13, 52079, Note_on_c, 15, 67, 0
13, 52080, Note_on_c, 15, 71, 76
13, 52080, Note_on_c, 15, 74, 76
13, 52080, Note_on_c, 15, 55, 76
13, 52080, Note_on_c, 15, 67, 76
13, 52319, Note_on_c, 15, 71, 0
13, 52319, Note_on_c, 15, 74, 0
13, 52319, Note_on_c, 15, 55, 0
13, 52319, Note_on_c, 15, 67, 0
13, 52320, Note_on_c, 15, 74, 76
13, 52320, Note_on_c, 15, 65, 76
13, 52320, Note_on_c, 15, 67, 76
13, 52320, Note_on_c, 15, 71, 76
13, 52320, Note_on_c, 15, 53, 76
13, 52439, Note_on_c, 15, 74, 0
13, 52439, Note_on_c, 15, 65, 0
13, 52439, Note_on_c, 15, 67, 0
13, 52439, Note_on_c, 15, 71, 0
13, 52439, Note_on_c, 15, 53, 0
13, 52440, Note_on_c, 15, 73, 76
13, 52440, Note_on_c, 15, 52, 76
13, 52440, Note_on_c, 15, 67, 76
13, 52440, Note_on_c, 15, 64, 76
13, 52559, Note_on_c, 15, 73, 0
13, 52559, Note_on_c, 15, 52, 0
13, 52559, Note_on_c, 15, 67, 0
13, 52559, Note_on_c, 15, 64, 0
13, 52560, Note_on_c, 15, 62, 76
13, 52560, Note_on_c, 15, 65, 76
13, 52560, Note_on_c, 15, 50, 76
13, 52560, Note_on_c, 15, 69, 76
13, 53039, Note_on_c, 15, 65, 0
13, 53039, Note_on_c, 15, 69, 0
13, 53040, Note_on_c, 15, 67, 76
13, 53040, Note_on_c, 15, 70, 76
13, 53040, Note_on_c, 15, 64, 76
13, 53159, Note_on_c, 15, 62, 0
13, 53159, Note_on_c, 15, 50, 0
13, 53159, Note_on_c, 15, 67, 0
13, 53159, Note_on_c, 15, 70, 0
13, 53159, Note_on_c, 15, 64, 0
13, 53160, Note_on_c, 15, 64, 76
13, 53160, Note_on_c, 15, 61, 76
13, 53160, Note_on_c, 15, 67, 76
13, 53160, Note_on_c, 15, 49, 76
13, 53279, Note_on_c, 15, 64, 0
13, 53279, Note_on_c, 15, 61, 0
13, 53279, Note_on_c, 15, 67, 0
13, 53279, Note_on_c, 15, 49, 0
13, 53280, Note_on_c, 15, 67, 76
13, 53280, Note_on_c, 15, 50, 76
13, 53280, Note_on_c, 15, 64, 76
13, 53280, Note_on_c, 15, 62, 76
13, 53280, Note_on_c, 15, 70, 76
13, 53399, Note_on_c, 15, 67, 0
13, 53399, Note_on_c, 15, 50, 0
13, 53399, Note_on_c, 15, 64, 0
13, 53399, Note_on_c, 15, 62, 0
13, 53399, Note_on_c, 15, 70, 0
13, 53400, Note_on_c, 15, 67, 76
13, 53400, Note_on_c, 15, 64, 76
13, 53400, Note_on_c, 15, 52, 76
13, 53400, Note_on_c, 15, 70, 76
13, 53519, Note_on_c, 15, 67, 0
13, 53519, Note_on_c, 15, 64, 0
13, 53519, Note_on_c, 15, 52, 0
13, 53519, Note_on_c, 15, 70, 0
13, 53520, Note_on_c, 15, 69, 76
13, 53520, Note_on_c, 15, 53, 76
13, 53520, Note_on_c, 15, 65, 76
13, 53520, Note_on_c, 15, 74, 76
13, 53639, Note_on_c, 15, 69, 0
13, 53639, Note_on_c, 15, 53, 0
13, 53639, Note_on_c, 15, 65, 0
13, 53639, Note_on_c, 15, 74, 0
13, 53640, Note_on_c, 15, 67, 76
13, 53640, Note_on_c, 15, 71, 76
13, 53640, Note_on_c, 15, 74, 76
13, 53640, Note_on_c, 15, 55, 76
13, 53759, Note_on_c, 15, 67, 0
13, 53759, Note_on_c, 15, 71, 0
13, 53759, Note_on_c, 15, 74, 0
13, 53759, Note_on_c, 15, 55, 0
13, 53760, Note_on_c, 15, 69, 76
13, 53760, Note_on_c, 15, 65, 76
13, 53760, Note_on_c, 15, 53, 76
13, 53760, Note_on_c, 15, 74, 76
13, 53879, Note_on_c, 15, 69, 0
13, 53879, Note_on_c, 15, 65, 0
13, 53879, Note_on_c, 15, 53, 0
13, 53879, Note_on_c, 15, 74, 0
13, 53880, Note_on_c, 15, 67, 76
13, 53880, Note_on_c, 15, 52, 76
13, 53880, Note_on_c, 15, 71, 76
13, 53880, Note_on_c, 15, 64, 76
13, 53999, Note_on_c, 15, 67, 0
13, 53999, Note_on_c, 15, 52, 0
13, 53999, Note_on_c, 15, 71, 0
13, 53999, Note_on_c, 15, 64, 0
13, 54000, Note_on_c, 15, 65, 76
13, 54000, Note_on_c, 15, 50, 76
13, 54000, Note_on_c, 15, 62, 76
13, 54000, Note_on_c, 15, 69, 76
13, 54239, Note_on_c, 15, 65, 0
13, 54239, Note_on_c, 15, 50, 0
13, 54239, Note_on_c, 15, 62, 0
13, 54239, Note_on_c, 15, 69, 0
13, 54240, Note_on_c, 15, 72, 76
13, 54240, Note_on_c, 15, 60, 76
13, 54240, Note_on_c, 15, 77, 76
13, 54240, Note_on_c, 15, 74, 76
13, 54240, Note_on_c, 15, 81, 76
13, 54479, Note_on_c, 15, 72, 0
13, 54479, Note_on_c, 15, 60, 0
13, 54479, Note_on_c, 15, 77, 0
13, 54479, Note_on_c, 15, 74, 0
13, 54479, Note_on_c, 15, 81, 0
13, 54480, Note_on_c, 15, 74, 76
13, 54480, Note_on_c, 15, 79, 76
13, 54480, Note_on_c, 15, 70, 76
13, 54480, Note_on_c, 15, 58, 76
13, 54719, Note_on_c, 15, 74, 0
13, 54719, Note_on_c, 15, 79, 0
13, 54719, Note_on_c, 15, 70, 0
13, 54719, Note_on_c, 15, 58, 0
13, 54720, Note_on_c, 15, 78, 76
13, 54720, Note_on_c, 15, 57, 76
13, 54720, Note_on_c, 15, 69, 76
13, 54720, Note_on_c, 15, 72, 76
13, 54959, Note_on_c, 15, 78, 0
13, 54959, Note_on_c, 15, 57, 0
13, 54959, Note_on_c, 15, 69, 0
13, 54959, Note_on_c, 15, 72, 0
13, 54960, Note_on_c, 15, 55, 76
13, 54960, Note_on_c, 15, 74, 76
13, 54960, Note_on_c, 15, 70, 76
13, 54960, Note_on_c, 15, 67, 76
13, 55079, Note_on_c, 15, 55, 0
13, 55079, Note_on_c, 15, 74, 0
13, 55079, Note_on_c, 15, 70, 0
13, 55079, Note_on_c, 15, 67, 0
13, 55080, Note_on_c, 15, 65, 76
13, 55080, Note_on_c, 15, 69, 76
13, 55080, Note_on_c, 15, 53, 76
13, 55080, Note_on_c, 15, 72, 76
13, 55199, Note_on_c, 15, 65, 0
13, 55199, Note_on_c, 15, 69, 0
13, 55199, Note_on_c, 15, 53, 0
13, 55199, Note_on_c, 15, 72, 0
13, 55200, Note_on_c, 15, 55, 76
13, 55200, Note_on_c, 15, 67, 76
13, 55200, Note_on_c, 15, 74, 76
13, 55200, Note_on_c, 15, 70, 76
13, 55319, Note_on_c, 15, 55, 0
13, 55319, Note_on_c, 15, 67, 0
13, 55319, Note_on_c, 15, 74, 0
13, 55319, Note_on_c, 15, 70, 0
13, 55320, Note_on_c, 15, 57, 76
13, 55320, Note_on_c, 15, 76, 76
13, 55320, Note_on_c, 15, 69, 76
13, 55320, Note_on_c, 15, 72, 76
13, 55439, Note_on_c, 15, 57, 0
13, 55439, Note_on_c, 15, 76, 0
13, 55439, Note_on_c, 15, 69, 0
13, 55439, Note_on_c, 15, 72, 0
13, 55440, Note_on_c, 15, 58, 76
13, 55440, Note_on_c, 15, 70, 76
13, 55440, Note_on_c, 15, 74, 76
13, 55440, Note_on_c, 15, 79, 76
13, 55679, Note_on_c, 15, 58, 0
13, 55679, Note_on_c, 15, 70, 0
13, 55679, Note_on_c, 15, 74, 0
13, 55679, Note_on_c, 15, 79, 0
13, 55680, Note_on_c, 15, 61, 76
13, 55680, Note_on_c, 15, 64, 76
13, 55680, Note_on_c, 15, 49, 76
13, 55680, Note_on_c, 15, 67, 76
13, 55680, Note_on_c, 15, 69, 76
13, 55919, Note_on_c, 15, 61, 0
13, 55919, Note_on_c, 15, 64, 0
13, 55919, Note_on_c, 15, 49, 0
13, 55919, Note_on_c, 15, 67, 0
13, 55919, Note_on_c, 15, 69, 0
13, 55920, Note_on_c, 15, 62, 76
13, 55920, Note_on_c, 15, 50, 76
13, 55920, Note_on_c, 15, 69, 76
13, 55920, Note_on_c, 15, 65, 76
13, 56159, Note_on_c, 15, 62, 0
13, 56159, Note_on_c, 15, 50, 0
13, 56159, Note_on_c, 15, 69, 0
13, 56159, Note_on_c, 15, 65, 0
13, 56160, Note_on_c, 15, 43, 76
13, 56160, Note_on_c, 15, 58, 76
13, 56160, Note_on_c, 15, 62, 76
13, 56160, Note_on_c, 15, 55, 76
13, 56399, Note_on_c, 15, 43, 0
13, 56399, Note_on_c, 15, 58, 0
13, 56399, Note_on_c, 15, 62, 0
13, 56399, Note_on_c, 15, 55, 0
13, 56400, Note_on_c, 15, 64, 76
13, 56400, Note_on_c, 15, 61, 76
13, 56400, Note_on_c, 15, 45, 76
13, 56400, Note_on_c, 15, 57, 76
13, 56639, Note_on_c, 15, 64, 0
13, 56639, Note_on_c, 15, 61, 0
13, 56639, Note_on_c, 15, 45, 0
13, 56639, Note_on_c, 15, 57, 0
13, 56640, Note_on_c, 15, 69, 76
13, 56640, Note_on_c, 15, 76, 76
13, 56640, Note_on_c, 15, 73, 76
13, 56640, Note_on_c, 15, 57, 76
13, 56879, Note_on_c, 15, 69, 0
13, 56879, Note_on_c, 15, 76, 0
13, 56879, Note_on_c, 15, 73, 0
13, 56879, Note_on_c, 15, 57, 0
13, 56880, Note_on_c, 15, 74, 76
13, 56880, Note_on_c, 15, 55, 76
13, 56880, Note_on_c, 15, 67, 76
13, 56880, Note_on_c, 15, 71, 76
13, 57119, Note_on_c, 15, 74, 0
13, 57119, Note_on_c, 15, 55, 0
13, 57119, Note_on_c, 15, 67, 0
13, 57119, Note_on_c, 15, 71, 0
13, 57120, Note_on_c, 15, 69, 76
13, 57120, Note_on_c, 15, 53, 76
13, 57120, Note_on_c, 15, 74, 76
13, 57120, Note_on_c, 15, 65, 76
13, 57359, Note_on_c, 15, 69, 0
13, 57359, Note_on_c, 15, 53, 0
13, 57359, Note_on_c, 15, 74, 0
13, 57359, Note_on_c, 15, 65, 0
13, 57360, Note_on_c, 15, 74, 76
13, 57360, Note_on_c, 15, 76, 76
13, 57360, Note_on_c, 15, 55, 76
13, 57360, Note_on_c, 15, 67, 76
13, 57360, Note_on_c, 15, 70, 76
13, 57599, Note_on_c, 15, 74, 0
13, 57599, Note_on_c, 15, 76, 0
13, 57599, Note_on_c, 15, 55, 0
13, 57599, Note_on_c, 15, 67, 0
13, 57599, Note_on_c, 15, 70, 0
13, 57600, Note_on_c, 15, 73, 76
13, 57600, Note_on_c, 15, 76, 76
13, 57600, Note_on_c, 15, 69, 76
13, 57600, Note_on_c, 15, 57, 76
13, 57839, Note_on_c, 15, 73, 0
13, 57839, Note_on_c, 15, 76, 0
13, 57839, Note_on_c, 15, 69, 0
13, 57839, Note_on_c, 15, 57, 0
13, 57840, Note_on_c, 15, 69, 76
13, 57840, Note_on_c, 15, 65, 76
13, 57840, Note_on_c, 15, 50, 76
13, 57840, Note_on_c, 15, 62, 76
13, 58079, Note_on_c, 15, 69, 0
13, 58079, Note_on_c, 15, 65, 0
13, 58079, Note_on_c, 15, 50, 0
13, 58079, Note_on_c, 15, 62, 0
13, 58080, Note_on_c, 15, 69, 76
13, 58080, Note_on_c, 15, 72, 76
13, 58080, Note_on_c, 15, 65, 76
13, 58080, Note_on_c, 15, 53, 76
13, 58319, Note_on_c, 15, 69, 0
13, 58319, Note_on_c, 15, 72, 0
13, 58319, Note_on_c, 15, 65, 0
13, 58319, Note_on_c, 15, 53, 0
13, 58320, Note_on_c, 15, 69, 76
13, 58320, Note_on_c, 15, 59, 76
13, 58320, Note_on_c, 15, 47, 76
13, 58320, Note_on_c, 15, 62, 76
13, 58320, Note_on_c, 15, 65, 76
13, 58559, Note_on_c, 15, 69, 0
13, 58559, Note_on_c, 15, 59, 0
13, 58559, Note_on_c, 15, 47, 0
13, 58559, Note_on_c, 15, 62, 0
13, 58559, Note_on_c, 15, 65, 0
13, 58560, Note_on_c, 15, 68, 76
13, 58560, Note_on_c, 15, 71, 76
13, 58560, Note_on_c, 15, 52, 76
13, 58560, Note_on_c, 15, 64, 76
13, 58679, Note_on_c, 15, 68, 0
13, 58679, Note_on_c, 15, 71, 0
13, 58679, Note_on_c, 15, 52, 0
13, 58679, Note_on_c, 15, 64, 0
13, 58680, Note_on_c, 15, 72, 76
13, 58680, Note_on_c, 15, 53, 76
13, 58680, Note_on_c, 15, 69, 76
13, 58680, Note_on_c, 15, 65, 76
13, 58799, Note_on_c, 15, 72, 0
13, 58799, Note_on_c, 15, 53, 0
13, 58799, Note_on_c, 15, 69, 0
13, 58799, Note_on_c, 15, 65, 0
13, 58800, Note_on_c, 15, 69, 76
13, 58800, Note_on_c, 15, 64, 76
13, 58800, Note_on_c, 15, 52, 76
13, 58800, Note_on_c, 15, 72, 76
13, 58919, Note_on_c, 15, 69, 0
13, 58919, Note_on_c, 15, 64, 0
13, 58919, Note_on_c, 15, 52, 0
13, 58919, Note_on_c, 15, 72, 0
13, 58920, Note_on_c, 15, 62, 76
13, 58920, Note_on_c, 15, 72, 76
13, 58920, Note_on_c, 15, 69, 76
13, 58920, Note_on_c, 15, 50, 76
13, 59039, Note_on_c, 15, 62, 0
13, 59039, Note_on_c, 15, 72, 0
13, 59039, Note_on_c, 15, 69, 0
13, 59039, Note_on_c, 15, 50, 0
13, 59040, Note_on_c, 15, 48, 76
13, 59040, Note_on_c, 15, 69, 76
13, 59040, Note_on_c, 15, 72, 76
13, 59040, Note_on_c, 15, 60, 76
13, 59159, Note_on_c, 15, 48, 0
13, 59159, Note_on_c, 15, 69, 0
13, 59159, Note_on_c, 15, 72, 0
13, 59159, Note_on_c, 15, 60, 0
13, 59160, Note_on_c, 15, 68, 76
13, 59160, Note_on_c, 15, 62, 76
13, 59160, Note_on_c, 15, 59, 76
13, 59160, Note_on_c, 15, 47, 76
13, 59279, Note_on_c, 15, 68, 0
13, 59279, Note_on_c, 15, 62, 0
13, 59279, Note_on_c, 15, 59, 0
13, 59279, Note_on_c, 15, 47, 0
13, 59280, Note_on_c, 15, 69, 76
13, 59280, Note_on_c, 15, 60, 76
13, 59280, Note_on_c, 15, 48, 76
13, 59280, Note_on_c, 15, 64, 76
13, 59519, Note_on_c, 15, 69, 0
13, 59519, Note_on_c, 15, 60, 0
13, 59519, Note_on_c, 15, 48, 0
13, 59519, Note_on_c, 15, 64, 0
13, 59520, Note_on_c, 15, 66, 76
13, 59520, Note_on_c, 15, 50, 76
13, 59520, Note_on_c, 15, 62, 76
13, 59520, Note_on_c, 15, 69, 76
13, 59759, Note_on_c, 15, 66, 0
13, 59759, Note_on_c, 15, 50, 0
13, 59759, Note_on_c, 15, 62, 0
13, 59759, Note_on_c, 15, 69, 0
13, 59760, Note_on_c, 15, 47, 76
13, 59760, Note_on_c, 15, 62, 76
13, 59760, Note_on_c, 15, 59, 76
13, 59760, Note_on_c, 15, 68, 76
13, 59999, Note_on_c, 15, 47, 0
13, 59999, Note_on_c, 15, 62, 0
13, 59999, Note_on_c, 15, 59, 0
13, 59999, Note_on_c, 15, 68, 0
13, 60000, Note_on_c, 15, 45, 76
13, 60000, Note_on_c, 15, 57, 76
13, 60000, Note_on_c, 15, 64, 76
13, 60000, Note_on_c, 15, 60, 76
13, 60239, Note_on_c, 15, 45, 0
13, 60239, Note_on_c, 15, 57, 0
13, 60239, Note_on_c, 15, 64, 0
13, 60239, Note_on_c, 15, 60, 0
13, 60240, Note_on_c, 15, 44, 76
13, 60240, Note_on_c, 15, 59, 76
13, 60240, Note_on_c, 15, 56, 76
13, 60240, Note_on_c, 15, 64, 76
13, 60479, Note_on_c, 15, 44, 0
13, 60479, Note_on_c, 15, 59, 0
13, 60479, Note_on_c, 15, 56, 0
13, 60479, Note_on_c, 15, 64, 0
13, 60480, Note_on_c, 15, 64, 76
13, 60480, Note_on_c, 15, 60, 76
13, 60480, Note_on_c, 15, 45, 76
13, 60480, Note_on_c, 15, 57, 76
13, 60719, Note_on_c, 15, 64, 0
13, 60719, Note_on_c, 15, 60, 0
13, 60719, Note_on_c, 15, 45, 0
13, 60719, Note_on_c, 15, 57, 0
13, 60720, Note_on_c, 15, 54, 76
13, 60720, Note_on_c, 15, 42, 76
13, 60720, Note_on_c, 15, 62, 76
13, 60720, Note_on_c, 15, 57, 76
13, 60959, Note_on_c, 15, 54, 0
13, 60959, Note_on_c, 15, 42, 0
13, 60959, Note_on_c, 15, 62, 0
13, 60959, Note_on_c, 15, 57, 0
13, 60960, Note_on_c, 15, 44, 76
13, 60960, Note_on_c, 15, 59, 76
13, 60960, Note_on_c, 15, 62, 76
13, 60960, Note_on_c, 15, 56, 76
13, 61199, Note_on_c, 15, 44, 0
13, 61199, Note_on_c, 15, 59, 0
13, 61199, Note_on_c, 15, 62, 0
13, 61199, Note_on_c, 15, 56, 0
13, 61200, Note_on_c, 15, 57, 76
13, 61200, Note_on_c, 15, 64, 76
13, 61200, Note_on_c, 15, 60, 76
13, 61200, Note_on_c, 15, 45, 76
13, 61439, Note_on_c, 15, 57, 0
13, 61439, Note_on_c, 15, 64, 0
13, 61439, Note_on_c, 15, 60, 0
13, 61439, Note_on_c, 15, 45, 0
13, 61440, Note_on_c, 15, 66, 76
13, 61440, Note_on_c, 15, 50, 76
13, 61440, Note_on_c, 15, 62, 76
13, 61440, Note_on_c, 15, 71, 76
13, 61679, Note_on_c, 15, 66, 0
13, 61679, Note_on_c, 15, 50, 0
13, 61679, Note_on_c, 15, 62, 0
13, 61679, Note_on_c, 15, 71, 0
13, 61680, Note_on_c, 15, 71, 76
13, 61680, Note_on_c, 15, 52, 76
13, 61680, Note_on_c, 15, 64, 76
13, 61680, Note_on_c, 15, 68, 76
13, 61919, Note_on_c, 15, 71, 0
13, 61919, Note_on_c, 15, 52, 0
13, 61919, Note_on_c, 15, 64, 0
13, 61919, Note_on_c, 15, 68, 0
13, 61920, Note_on_c, 15, 56, 76
13, 61920, Note_on_c, 15, 40, 76
13, 61920, Note_on_c, 15, 59, 76
13, 61920, Note_on_c, 15, 52, 76
13, 62159, Note_on_c, 15, 56, 0
13, 62159, Note_on_c, 15, 40, 0
13, 62159, Note_on_c, 15, 59, 0
13, 62159, Note_on_c, 15, 52, 0
13, 62160, Note_on_c, 15, 57, 76
13, 62160, Note_on_c, 15, 60, 76
13, 62160, Note_on_c, 15, 45, 76
13, 62160, Note_on_c, 15, 64, 76
13, 62279, Note_on_c, 15, 57, 0
13, 62279, Note_on_c, 15, 60, 0
13, 62279, Note_on_c, 15, 45, 0
13, 62279, Note_on_c, 15, 64, 0
13, 62280, Note_on_c, 15, 59, 76
13, 62280, Note_on_c, 15, 62, 76
13, 62280, Note_on_c, 15, 44, 76
13, 62280, Note_on_c, 15, 56, 76
13, 62399, Note_on_c, 15, 59, 0
13, 62399, Note_on_c, 15, 62, 0
13, 62399, Note_on_c, 15, 44, 0
13, 62399, Note_on_c, 15, 56, 0
13, 62400, Note_on_c, 15, 64, 76
13, 62400, Note_on_c, 15, 57, 76
13, 62400, Note_on_c, 15, 45, 76
13, 62400, Note_on_c, 15, 60, 76
13, 62519, Note_on_c, 15, 64, 0
13, 62519, Note_on_c, 15, 57, 0
13, 62519, Note_on_c, 15, 45, 0
13, 62519, Note_on_c, 15, 60, 0
13, 62520, Note_on_c, 15, 47, 76
13, 62520, Note_on_c, 15, 65, 76
13, 62520, Note_on_c, 15, 62, 76
13, 62520, Note_on_c, 15, 59, 76
13, 62639, Note_on_c, 15, 47, 0
13, 62639, Note_on_c, 15, 65, 0
13, 62639, Note_on_c, 15, 62, 0
13, 62639, Note_on_c, 15, 59, 0
13, 62640, Note_on_c, 15, 64, 76
13, 62640, Note_on_c, 15, 69, 76
13, 62640, Note_on_c, 15, 60, 76
13, 62640, Note_on_c, 15, 48, 76
13, 62879, Note_on_c, 15, 64, 0
13, 62879, Note_on_c, 15, 69, 0
13, 62879, Note_on_c, 15, 60, 0
13, 62879, Note_on_c, 15, 48, 0
13, 62880, Note_on_c, 15, 67, 76
13, 62880, Note_on_c, 15, 71, 76
13, 62880, Note_on_c, 15, 52, 76
13, 62880, Note_on_c, 15, 64, 76
13, 63119, Note_on_c, 15, 67, 0
13, 63119, Note_on_c, 15, 71, 0
13, 63119, Note_on_c, 15, 52, 0
13, 63119, Note_on_c, 15, 64, 0
13, 63120, Note_on_c, 15, 76, 76
13, 63120, Note_on_c, 15, 72, 76
13, 63120, Note_on_c, 15, 57, 76
13, 63120, Note_on_c, 15, 69, 76
13, 63359, Note_on_c, 15, 76, 0
13, 63359, Note_on_c, 15, 72, 0
13, 63359, Note_on_c, 15, 57, 0
13, 63359, Note_on_c, 15, 69, 0
13, 63360, Note_on_c, 15, 67, 76
13, 63360, Note_on_c, 15, 55, 76
13, 63360, Note_on_c, 15, 72, 76
13, 63360, Note_on_c, 15, 76, 76
13, 63479, Note_on_c, 15, 67, 0
13, 63479, Note_on_c, 15, 55, 0
13, 63479, Note_on_c, 15, 72, 0
13, 63479, Note_on_c, 15, 76, 0
13, 63480, Note_on_c, 15, 65, 76
13, 63480, Note_on_c, 15, 53, 76
13, 63480, Note_on_c, 15, 76, 76
13, 63480, Note_on_c, 15, 72, 76
13, 63599, Note_on_c, 15, 65, 0
13, 63599, Note_on_c, 15, 53, 0
13, 63599, Note_on_c, 15, 76, 0
13, 63599, Note_on_c, 15, 72, 0
13, 63600, Note_on_c, 15, 67, 76
13, 63600, Note_on_c, 15, 72, 76
13, 63600, Note_on_c, 15, 52, 76
13, 63600, Note_on_c, 15, 64, 76
13, 63719, Note_on_c, 15, 67, 0
13, 63719, Note_on_c, 15, 72, 0
13, 63719, Note_on_c, 15, 52, 0
13, 63719, Note_on_c, 15, 64, 0
13, 63720, Note_on_c, 15, 50, 76
13, 63720, Note_on_c, 15, 65, 76
13, 63720, Note_on_c, 15, 62, 76
13, 63720, Note_on_c, 15, 69, 76
13, 63839, Note_on_c, 15, 50, 0
13, 63839, Note_on_c, 15, 65, 0
13, 63839, Note_on_c, 15, 62, 0
13, 63839, Note_on_c, 15, 69, 0
13, 63840, Note_on_c, 15, 67, 76
13, 63840, Note_on_c, 15, 64, 76
13, 63840, Note_on_c, 15, 72, 76
13, 63840, Note_on_c, 15, 52, 76
13, 63959, Note_on_c, 15, 67, 0
13, 63959, Note_on_c, 15, 64, 0
13, 63959, Note_on_c, 15, 72, 0
13, 63959, Note_on_c, 15, 52, 0
13, 63960, Note_on_c, 15, 69, 76
13, 63960, Note_on_c, 15, 72, 76
13, 63960, Note_on_c, 15, 65, 76
13, 63960, Note_on_c, 15, 53, 76
13, 64079, Note_on_c, 15, 69, 0
13, 64079, Note_on_c, 15, 72, 0
13, 64079, Note_on_c, 15, 65, 0
13, 64079, Note_on_c, 15, 53, 0
13, 64080, Note_on_c, 15, 70, 76
13, 64080, Note_on_c, 15, 55, 76
13, 64080, Note_on_c, 15, 76, 76
13, 64080, Note_on_c, 15, 67, 76
13, 64319, Note_on_c, 15, 70, 0
13, 64319, Note_on_c, 15, 55, 0
13, 64319, Note_on_c, 15, 76, 0
13, 64319, Note_on_c, 15, 67, 0
13, 64320, Note_on_c, 15, 60, 76
13, 64320, Note_on_c, 15, 64, 76
13, 64320, Note_on_c, 15, 48, 76
13, 64320, Note_on_c, 15, 67, 76
13, 64320, Note_on_c, 15, 70, 76
13, 64559, Note_on_c, 15, 60, 0
13, 64559, Note_on_c, 15, 64, 0
13, 64559, Note_on_c, 15, 48, 0
13, 64559, Note_on_c, 15, 67, 0
13, 64559, Note_on_c, 15, 70, 0
13, 64560, Note_on_c, 15, 50, 76
13, 64560, Note_on_c, 15, 70, 76
13, 64560, Note_on_c, 15, 65, 76
13, 64560, Note_on_c, 15, 62, 76
13, 64799, Note_on_c, 15, 50, 0
13, 64799, Note_on_c, 15, 70, 0
13, 64799, Note_on_c, 15, 65, 0
13, 64799, Note_on_c, 15, 62, 0
13, 64800, Note_on_c, 15, 64, 76
13, 64800, Note_on_c, 15, 72, 76
13, 64800, Note_on_c, 15, 52, 76
13, 64800, Note_on_c, 15, 70, 76
13, 64800, Note_on_c, 15, 67, 76
13, 65039, Note_on_c, 15, 64, 0
13, 65039, Note_on_c, 15, 72, 0
13, 65039, Note_on_c, 15, 52, 0
13, 65039, Note_on_c, 15, 70, 0
13, 65039, Note_on_c, 15, 67, 0
13, 65040, Note_on_c, 15, 72, 76
13, 65040, Note_on_c, 15, 65, 76
13, 65040, Note_on_c, 15, 53, 76
13, 65040, Note_on_c, 15, 69, 76
13, 65159, Note_on_c, 15, 72, 0
13, 65159, Note_on_c, 15, 65, 0
13, 65159, Note_on_c, 15, 53, 0
13, 65159, Note_on_c, 15, 69, 0
13, 65160, Note_on_c, 15, 52, 76
13, 65160, Note_on_c, 15, 71, 76
13, 65160, Note_on_c, 15, 67, 76
13, 65160, Note_on_c, 15, 64, 76
13, 65279, Note_on_c, 15, 52, 0
13, 65279, Note_on_c, 15, 71, 0
13, 65279, Note_on_c, 15, 67, 0
13, 65279, Note_on_c, 15, 64, 0
13, 65280, Note_on_c, 15, 72, 76
13, 65280, Note_on_c, 15, 53, 76
13, 65280, Note_on_c, 15, 69, 76
13, 65280, Note_on_c, 15, 65, 76
13, 65399, Note_on_c, 15, 72, 0
13, 65399, Note_on_c, 15, 53, 0
13, 65399, Note_on_c, 15, 69, 0
13, 65399, Note_on_c, 15, 65, 0
13, 65400, Note_on_c, 15, 55, 76
13, 65400, Note_on_c, 15, 67, 76
13, 65400, Note_on_c, 15, 71, 76
13, 65400, Note_on_c, 15, 74, 76
13, 65519, Note_on_c, 15, 55, 0
13, 65519, Note_on_c, 15, 67, 0
13, 65519, Note_on_c, 15, 71, 0
13, 65519, Note_on_c, 15, 74, 0
13, 65520, Note_on_c, 15, 77, 76
13, 65520, Note_on_c, 15, 72, 76
13, 65520, Note_on_c, 15, 69, 76
13, 65520, Note_on_c, 15, 57, 76
13, 65639, Note_on_c, 15, 77, 0
13, 65639, Note_on_c, 15, 72, 0
13, 65639, Note_on_c, 15, 69, 0
13, 65639, Note_on_c, 15, 57, 0
13, 65640, Note_on_c, 15, 58, 76
13, 65640, Note_on_c, 15, 70, 76
13, 65640, Note_on_c, 15, 74, 76
13, 65640, Note_on_c, 15, 77, 76
13, 65759, Note_on_c, 15, 58, 0
13, 65759, Note_on_c, 15, 70, 0
13, 65759, Note_on_c, 15, 74, 0
13, 65759, Note_on_c, 15, 77, 0
13, 65760, Note_on_c, 15, 69, 76
13, 65760, Note_on_c, 15, 76, 76
13, 65760, Note_on_c, 15, 73, 76
13, 65760, Note_on_c, 15, 57, 76
13, 65879, Note_on_c, 15, 69, 0
13, 65879, Note_on_c, 15, 76, 0
13, 65879, Note_on_c, 15, 73, 0
13, 65879, Note_on_c, 15, 57, 0
13, 65880, Note_on_c, 15, 55, 76
13, 65880, Note_on_c, 15, 70, 76
13, 65880, Note_on_c, 15, 67, 76
13, 65880, Note_on_c, 15, 74, 76
13, 65999, Note_on_c, 15, 55, 0
13, 65999, Note_on_c, 15, 70, 0
13, 65999, Note_on_c, 15, 67, 0
13, 65999, Note_on_c, 15, 74, 0
13, 66000, Note_on_c, 15, 65, 76
13, 66000, Note_on_c, 15, 74, 76
13, 66000, Note_on_c, 15, 53, 76
13, 66000, Note_on_c, 15, 69, 76
13, 66119, Note_on_c, 15, 65, 0
13, 66119, Note_on_c, 15, 74, 0
13, 66119, Note_on_c, 15, 53, 0
13, 66119, Note_on_c, 15, 69, 0
13, 66120, Note_on_c, 15, 64, 76
13, 66120, Note_on_c, 15, 52, 76
13, 66120, Note_on_c, 15, 67, 76
13, 66120, Note_on_c, 15, 70, 76
13, 66239, Note_on_c, 15, 64, 0
13, 66239, Note_on_c, 15, 52, 0
13, 66239, Note_on_c, 15, 67, 0
13, 66239, Note_on_c, 15, 70, 0
13, 66240, Note_on_c, 15, 65, 76
13, 66240, Note_on_c, 15, 50, 76
13, 66240, Note_on_c, 15, 62, 76
13, 66240, Note_on_c, 15, 69, 76
13, 66359, Note_on_c, 15, 65, 0
13, 66359, Note_on_c, 15, 50, 0
13, 66359, Note_on_c, 15, 62, 0
13, 66359, Note_on_c, 15, 69, 0
13, 66360, Note_on_c, 15, 64, 76
13, 66360, Note_on_c, 15, 69, 76
13, 66360, Note_on_c, 15, 49, 76
13, 66360, Note_on_c, 15, 61, 76
13, 66479, Note_on_c, 15, 64, 0
13, 66479, Note_on_c, 15, 69, 0
13, 66479, Note_on_c, 15, 49, 0
13, 66479, Note_on_c, 15, 61, 0
13, 66480, Note_on_c, 15, 50, 76
13, 66480, Note_on_c, 15, 65, 76
13, 66480, Note_on_c, 15, 69, 76
13, 66480, Note_on_c, 15, 62, 76
13, 66719, Note_on_c, 15, 50, 0
13, 66719, Note_on_c, 15, 65, 0
13, 66719, Note_on_c, 15, 69, 0
13, 66719, Note_on_c, 15, 62, 0
13, 66720, Note_on_c, 15, 67, 76
13, 66720, Note_on_c, 15, 64, 76
13, 66720, Note_on_c, 15, 71, 76
13, 66720, Note_on_c, 15, 52, 76
13, 66959, Note_on_c, 15, 67, 0
13, 66959, Note_on_c, 15, 64, 0
13, 66959, Note_on_c, 15, 71, 0
13, 66959, Note_on_c, 15, 52, 0
13, 66960, Note_on_c, 15, 69, 76
13, 66960, Note_on_c, 15, 53, 76
13, 66960, Note_on_c, 15, 65, 76
13, 66960, Note_on_c, 15, 74, 76
13, 67199, Note_on_c, 15, 69, 0
13, 67199, Note_on_c, 15, 53, 0
13, 67199, Note_on_c, 15, 65, 0
13, 67199, Note_on_c, 15, 74, 0
13, 67200, Note_on_c, 15, 62, 76
13, 67200, Note_on_c, 15, 69, 76
13, 67200, Note_on_c, 15, 65, 76
13, 67200, Note_on_c, 15, 50, 76
13, 67439, Note_on_c, 15, 62, 0
13, 67439, Note_on_c, 15, 69, 0
13, 67439, Note_on_c, 15, 65, 0
13, 67439, Note_on_c, 15, 50, 0
13, 67440, Note_on_c, 15, 67, 76
13, 67440, Note_on_c, 15, 64, 76
13, 67440, Note_on_c, 15, 52, 76
13, 67440, Note_on_c, 15, 72, 76
13, 67679, Note_on_c, 15, 67, 0
13, 67679, Note_on_c, 15, 64, 0
13, 67679, Note_on_c, 15, 52, 0
13, 67679, Note_on_c, 15, 72, 0
13, 67680, Note_on_c, 15, 53, 76
13, 67680, Note_on_c, 15, 65, 76
13, 67680, Note_on_c, 15, 69, 76
13, 67919, Note_on_c, 15, 53, 0
13, 67919, Note_on_c, 15, 65, 0
13, 67919, Note_on_c, 15, 69, 0
13, 67920, Note_on_c, 15, 71, 76
13, 67920, Note_on_c, 15, 74, 76
13, 67920, Note_on_c, 15, 67, 76
13, 67920, Note_on_c, 15, 55, 76
13, 68159, Note_on_c, 15, 71, 0
13, 68159, Note_on_c, 15, 74, 0
13, 68159, Note_on_c, 15, 67, 0
13, 68159, Note_on_c, 15, 55, 0
13, 68160, Note_on_c, 15, 59, 76
13, 68160, Note_on_c, 15, 55, 76
13, 68160, Note_on_c, 15, 43, 76
13, 68160, Note_on_c, 15, 62, 76
13, 68399, Note_on_c, 15, 59, 0
13, 68399, Note_on_c, 15, 55, 0
13, 68399, Note_on_c, 15, 43, 0
13, 68399, Note_on_c, 15, 62, 0
13, 68400, Note_on_c, 15, 55, 76
13, 68400, Note_on_c, 15, 71, 76
13, 68400, Note_on_c, 15, 74, 76
13, 68400, Note_on_c, 15, 67, 76
13, 68639, Note_on_c, 15, 55, 0
13, 68639, Note_on_c, 15, 71, 0
13, 68639, Note_on_c, 15, 74, 0
13, 68639, Note_on_c, 15, 67, 0
13, 68640, Note_on_c, 15, 76, 76
13, 68640, Note_on_c, 15, 57, 76
13, 68640, Note_on_c, 15, 72, 76
13, 68640, Note_on_c, 15, 69, 76
13, 68879, Note_on_c, 15, 76, 0
13, 68879, Note_on_c, 15, 57, 0
13, 68879, Note_on_c, 15, 72, 0
13, 68879, Note_on_c, 15, 69, 0
13, 68880, Note_on_c, 15, 71, 76
13, 68880, Note_on_c, 15, 55, 76
13, 68880, Note_on_c, 15, 67, 76
13, 69119, Note_on_c, 15, 71, 0
13, 69119, Note_on_c, 15, 55, 0
13, 69119, Note_on_c, 15, 67, 0
13, 69120, Note_on_c, 15, 71, 76
13, 69120, Note_on_c, 15, 65, 76
13, 69120, Note_on_c, 15, 53, 76
13, 69359, Note_on_c, 15, 71, 0
13, 69359, Note_on_c, 15, 65, 0
13, 69359, Note_on_c, 15, 53, 0
13, 69360, Note_on_c, 15, 72, 76
13, 69360, Note_on_c, 15, 67, 76
13, 69360, Note_on_c, 15, 64, 76
13, 69360, Note_on_c, 15, 52, 76
13, 69599, Note_on_c, 15, 72, 0
13, 69599, Note_on_c, 15, 67, 0
13, 69599, Note_on_c, 15, 64, 0
13, 69599, Note_on_c, 15, 52, 0
13, 69600, Note_on_c, 15, 65, 76
13, 69600, Note_on_c, 15, 50, 76
13, 69600, Note_on_c, 15, 62, 76
13, 69600, Note_on_c, 15, 69, 76
13, 69839, Note_on_c, 15, 65, 0
13, 69839, Note_on_c, 15, 50, 0
13, 69839, Note_on_c, 15, 62, 0
13, 69839, Note_on_c, 15, 69, 0
13, 69840, Note_on_c, 15, 64, 76
13, 69840, Note_on_c, 15, 60, 76
13, 69840, Note_on_c, 15, 67, 76
13, 69840, Note_on_c, 15, 48, 76
13, 70079, Note_on_c, 15, 64, 0
13, 70079, Note_on_c, 15, 60, 0
13, 70079, Note_on_c, 15, 67, 0
13, 70079, Note_on_c, 15, 48, 0
13, 70080, Note_on_c, 15, 60, 76
13, 70080, Note_on_c, 15, 79, 76
13, 70080, Note_on_c, 15, 76, 76
13, 70080, Note_on_c, 15, 72, 76
13, 70319, Note_on_c, 15, 60, 0
13, 70319, Note_on_c, 15, 79, 0
13, 70319, Note_on_c, 15, 76, 0
13, 70319, Note_on_c, 15, 72, 0
13, 70320, Note_on_c, 15, 74, 76
13, 70320, Note_on_c, 15, 71, 76
13, 70320, Note_on_c, 15, 55, 76
13, 70320, Note_on_c, 15, 77, 76
13, 70320, Note_on_c, 15, 67, 76
13, 70559, Note_on_c, 15, 74, 0
13, 70559, Note_on_c, 15, 71, 0
13, 70559, Note_on_c, 15, 55, 0
13, 70559, Note_on_c, 15, 77, 0
13, 70559, Note_on_c, 15, 67, 0
13, 70560, Note_on_c, 15, 76, 76
13, 70560, Note_on_c, 15, 69, 76
13, 70560, Note_on_c, 15, 72, 76
13, 70560, Note_on_c, 15, 57, 76
13, 70799, Note_on_c, 15, 76, 0
13, 70799, Note_on_c, 15, 69, 0
13, 70799, Note_on_c, 15, 72, 0
13, 70799, Note_on_c, 15, 57, 0
13, 70800, Note_on_c, 15, 64, 76
13, 70800, Note_on_c, 15, 52, 76
13, 70800, Note_on_c, 15, 72, 76
13, 70800, Note_on_c, 15, 67, 76
13, 70919, Note_on_c, 15, 64, 0
13, 70919, Note_on_c, 15, 52, 0
13, 70919, Note_on_c, 15, 72, 0
13, 70919, Note_on_c, 15, 67, 0
13, 70920, Note_on_c, 15, 67, 76
13, 70920, Note_on_c, 15, 62, 76
13, 70920, Note_on_c, 15, 50, 76
13, 70920, Note_on_c, 15, 72, 76
13, 71039, Note_on_c, 15, 67, 0
13, 71039, Note_on_c, 15, 62, 0
13, 71039, Note_on_c, 15, 50, 0
13, 71039, Note_on_c, 15, 72, 0
13, 71040, Note_on_c, 15, 67, 76
13, 71040, Note_on_c, 15, 72, 76
13, 71040, Note_on_c, 15, 52, 76
13, 71040, Note_on_c, 15, 64, 76
13, 71159, Note_on_c, 15, 67, 0
13, 71159, Note_on_c, 15, 72, 0
13, 71159, Note_on_c, 15, 52, 0
13, 71159, Note_on_c, 15, 64, 0
13, 71160, Note_on_c, 15, 65, 76
13, 71160, Note_on_c, 15, 53, 76
13, 71160, Note_on_c, 15, 72, 76
13, 71160, Note_on_c, 15, 67, 76
13, 71279, Note_on_c, 15, 65, 0
13, 71279, Note_on_c, 15, 53, 0
13, 71279, Note_on_c, 15, 72, 0
13, 71279, Note_on_c, 15, 67, 0
13, 71280, Note_on_c, 15, 55, 76
13, 71280, Note_on_c, 15, 72, 76
13, 71280, Note_on_c, 15, 67, 76
13, 71399, Note_on_c, 15, 55, 0
13, 71399, Note_on_c, 15, 72, 0
13, 71399, Note_on_c, 15, 67, 0
13, 71400, Note_on_c, 15, 76, 76
13, 71400, Note_on_c, 15, 57, 76
13, 71400, Note_on_c, 15, 72, 76
13, 71400, Note_on_c, 15, 69, 76
13, 71519, Note_on_c, 15, 76, 0
13, 71519, Note_on_c, 15, 57, 0
13, 71519, Note_on_c, 15, 72, 0
13, 71519, Note_on_c, 15, 69, 0
13, 71520, Note_on_c, 15, 58, 76
13, 71520, Note_on_c, 15, 74, 76
13, 71520, Note_on_c, 15, 77, 76
13, 71520, Note_on_c, 15, 70, 76
13, 71759, Note_on_c, 15, 58, 0
13, 71759, Note_on_c, 15, 74, 0
13, 71759, Note_on_c, 15, 77, 0
13, 71759, Note_on_c, 15, 70, 0
13, 71760, Note_on_c, 15, 69, 76
13, 71760, Note_on_c, 15, 57, 76
13, 71760, Note_on_c, 15, 77, 76
13, 71760, Note_on_c, 15, 72, 76
13, 71999, Note_on_c, 15, 69, 0
13, 71999, Note_on_c, 15, 57, 0
13, 71999, Note_on_c, 15, 77, 0
13, 71999, Note_on_c, 15, 72, 0
13, 72000, Note_on_c, 15, 67, 76
13, 72000, Note_on_c, 15, 71, 76
13, 72000, Note_on_c, 15, 74, 76
13, 72000, Note_on_c, 15, 55, 76
13, 72239, Note_on_c, 15, 67, 0
13, 72239, Note_on_c, 15, 71, 0
13, 72239, Note_on_c, 15, 74, 0
13, 72239, Note_on_c, 15, 55, 0
13, 72240, Note_on_c, 15, 72, 76
13, 72240, Note_on_c, 15, 53, 76
13, 72240, Note_on_c, 15, 69, 76
13, 72240, Note_on_c, 15, 65, 76
13, 72479, Note_on_c, 15, 72, 0
13, 72479, Note_on_c, 15, 53, 0
13, 72479, Note_on_c, 15, 69, 0
13, 72479, Note_on_c, 15, 65, 0
13, 72480, Note_on_c, 15, 64, 76
13, 72480, Note_on_c, 15, 67, 76
13, 72480, Note_on_c, 15, 71, 76
13, 72480, Note_on_c, 15, 52, 76
13, 72719, Note_on_c, 15, 64, 0
13, 72719, Note_on_c, 15, 67, 0
13, 72719, Note_on_c, 15, 71, 0
13, 72719, Note_on_c, 15, 52, 0
13, 72720, Note_on_c, 15, 65, 76
13, 72720, Note_on_c, 15, 62, 76
13, 72720, Note_on_c, 15, 50, 76
13, 72959, Note_on_c, 15, 65, 0
13, 72959, Note_on_c, 15, 62, 0
13, 72959, Note_on_c, 15, 50, 0
13, 72960, Note_on_c, 15, 55, 76
13, 72960, Note_on_c, 15, 67, 76
13, 72960, Note_on_c, 15, 71, 76
13, 73079, Note_on_c, 15, 55, 0
13, 73079, Note_on_c, 15, 67, 0
13, 73079, Note_on_c, 15, 71, 0
13, 73080, Note_on_c, 15, 72, 76
13, 73080, Note_on_c, 15, 69, 76
13, 73080, Note_on_c, 15, 76, 76
13, 73080, Note_on_c, 15, 57, 76
13, 73199, Note_on_c, 15, 72, 0
13, 73199, Note_on_c, 15, 69, 0
13, 73199, Note_on_c, 15, 76, 0
13, 73199, Note_on_c, 15, 57, 0
13, 73200, Note_on_c, 15, 67, 76
13, 73200, Note_on_c, 15, 76, 76
13, 73200, Note_on_c, 15, 72, 76
13, 73200, Note_on_c, 15, 55, 76
13, 73319, Note_on_c, 15, 67, 0
13, 73319, Note_on_c, 15, 76, 0
13, 73319, Note_on_c, 15, 72, 0
13, 73319, Note_on_c, 15, 55, 0
13, 73320, Note_on_c, 15, 53, 76
13, 73320, Note_on_c, 15, 65, 76
13, 73320, Note_on_c, 15, 72, 76
13, 73320, Note_on_c, 15, 69, 76
13, 73439, Note_on_c, 15, 53, 0
13, 73439, Note_on_c, 15, 65, 0
13, 73439, Note_on_c, 15, 72, 0
13, 73439, Note_on_c, 15, 69, 0
13, 73440, Note_on_c, 15, 52, 76
13, 73440, Note_on_c, 15, 67, 76
13, 73440, Note_on_c, 15, 71, 76
13, 73440, Note_on_c, 15, 64, 76
13, 73559, Note_on_c, 15, 52, 0
13, 73559, Note_on_c, 15, 67, 0
13, 73559, Note_on_c, 15, 71, 0
13, 73559, Note_on_c, 15, 64, 0
13, 73560, Note_on_c, 15, 65, 76
13, 73560, Note_on_c, 15, 62, 76
13, 73560, Note_on_c, 15, 50, 76
13, 73560, Note_on_c, 15, 69, 76
13, 73679, Note_on_c, 15, 65, 0
13, 73679, Note_on_c, 15, 62, 0
13, 73679, Note_on_c, 15, 50, 0
13, 73679, Note_on_c, 15, 69, 0
13, 73680, Note_on_c, 15, 64, 76
13, 73680, Note_on_c, 15, 72, 76
13, 73680, Note_on_c, 15, 52, 76
13, 73680, Note_on_c, 15, 67, 76
13, 73919, Note_on_c, 15, 64, 0
13, 73919, Note_on_c, 15, 72, 0
13, 73919, Note_on_c, 15, 52, 0
13, 73919, Note_on_c, 15, 67, 0
13, 73920, Note_on_c, 15, 74, 76
13, 73920, Note_on_c, 15, 71, 76
13, 73920, Note_on_c, 15, 55, 76
13, 73920, Note_on_c, 15, 67, 76
13, 74159, Note_on_c, 15, 74, 0
13, 74159, Note_on_c, 15, 71, 0
13, 74159, Note_on_c, 15, 55, 0
13, 74159, Note_on_c, 15, 67, 0
13, 74160, Note_on_c, 15, 60, 76
13, 74160, Note_on_c, 15, 76, 76
13, 74160, Note_on_c, 15, 79, 76
13, 74160, Note_on_c, 15, 72, 76
13, 74279, Note_on_c, 15, 60, 0
13, 74279, Note_on_c, 15, 76, 0
13, 74279, Note_on_c, 15, 79, 0
13, 74279, Note_on_c, 15, 72, 0
13, 74280, Note_on_c, 15, 74, 76
13, 74280, Note_on_c, 15, 77, 76
13, 74280, Note_on_c, 15, 59, 76
13, 74280, Note_on_c, 15, 71, 76
13, 74399, Note_on_c, 15, 74, 0
13, 74399, Note_on_c, 15, 77, 0
13, 74399, Note_on_c, 15, 59, 0
13, 74399, Note_on_c, 15, 71, 0
13, 74400, Note_on_c, 15, 72, 76
13, 74400, Note_on_c, 15, 57, 76
13, 74400, Note_on_c, 15, 69, 76
13, 74400, Note_on_c, 15, 76, 76
13, 74519, Note_on_c, 15, 72, 0
13, 74519, Note_on_c, 15, 57, 0
13, 74519, Note_on_c, 15, 69, 0
13, 74519, Note_on_c, 15, 76, 0
13, 74520, Note_on_c, 15, 74, 76
13, 74520, Note_on_c, 15, 67, 76
13, 74520, Note_on_c, 15, 55, 76
13, 74520, Note_on_c, 15, 71, 76
13, 74639, Note_on_c, 15, 74, 0
13, 74639, Note_on_c, 15, 67, 0
13, 74639, Note_on_c, 15, 55, 0
13, 74639, Note_on_c, 15, 71, 0
13, 74640, Note_on_c, 15, 53, 76
13, 74640, Note_on_c, 15, 65, 76
13, 74640, Note_on_c, 15, 69, 76
13, 74640, Note_on_c, 15, 74, 76
13, 74759, Note_on_c, 15, 53, 0
13, 74759, Note_on_c, 15, 65, 0
13, 74759, Note_on_c, 15, 69, 0
13, 74759, Note_on_c, 15, 74, 0
13, 74760, Note_on_c, 15, 67, 76
13, 74760, Note_on_c, 15, 52, 76
13, 74760, Note_on_c, 15, 64, 76
13, 74760, Note_on_c, 15, 71, 76
13, 74879, Note_on_c, 15, 67, 0
13, 74879, Note_on_c, 15, 52, 0
13, 74879, Note_on_c, 15, 64, 0
13, 74879, Note_on_c, 15, 71, 0
13, 74880, Note_on_c, 15, 50, 76
13, 74880, Note_on_c, 15, 69, 76
13, 74880, Note_on_c, 15, 62, 76
13, 74880, Note_on_c, 15, 65, 76
13, 74999, Note_on_c, 15, 50, 0
13, 74999, Note_on_c, 15, 69, 0
13, 74999, Note_on_c, 15, 62, 0
13, 74999, Note_on_c, 15, 65, 0
13, 75000, Note_on_c, 15, 69, 76
13, 75000, Note_on_c, 15, 64, 76
13, 75000, Note_on_c, 15, 60, 76
13, 75000, Note_on_c, 15, 48, 76
13, 75119, Note_on_c, 15, 69, 0
13, 75119, Note_on_c, 15, 64, 0
13, 75119, Note_on_c, 15, 60, 0
13, 75119, Note_on_c, 15, 48, 0
13, 75120, Note_on_c, 15, 69, 76
13, 75120, Note_on_c, 15, 62, 76
13, 75120, Note_on_c, 15, 65, 76
13, 75120, Note_on_c, 15, 50, 76
13, 75359, Note_on_c, 15, 69, 0
13, 75359, Note_on_c, 15, 62, 0
13, 75359, Note_on_c, 15, 65, 0
13, 75359, Note_on_c, 15, 50, 0
13, 75360, Note_on_c, 15, 65, 76
13, 75360, Note_on_c, 15, 57, 76
13, 75360, Note_on_c, 15, 69, 76
13, 75479, Note_on_c, 15, 65, 0
13, 75479, Note_on_c, 15, 57, 0
13, 75479, Note_on_c, 15, 69, 0
13, 75480, Note_on_c, 15, 55, 76
13, 75480, Note_on_c, 15, 69, 76
13, 75480, Note_on_c, 15, 65, 76
13, 75599, Note_on_c, 15, 55, 0
13, 75599, Note_on_c, 15, 69, 0
13, 75599, Note_on_c, 15, 65, 0
13, 75600, Note_on_c, 15, 74, 76
13, 75600, Note_on_c, 15, 53, 76
13, 75600, Note_on_c, 15, 69, 76
13, 75600, Note_on_c, 15, 65, 76
13, 75719, Note_on_c, 15, 74, 0
13, 75719, Note_on_c, 15, 53, 0
13, 75719, Note_on_c, 15, 69, 0
13, 75719, Note_on_c, 15, 65, 0
13, 75720, Note_on_c, 15, 64, 76
13, 75720, Note_on_c, 15, 67, 76
13, 75720, Note_on_c, 15, 71, 76
13, 75720, Note_on_c, 15, 52, 76
13, 75839, Note_on_c, 15, 64, 0
13, 75839, Note_on_c, 15, 67, 0
13, 75839, Note_on_c, 15, 71, 0
13, 75839, Note_on_c, 15, 52, 0
13, 75840, Note_on_c, 15, 65, 76
13, 75840, Note_on_c, 15, 62, 76
13, 75840, Note_on_c, 15, 69, 76
13, 75840, Note_on_c, 15, 50, 76
13, 75959, Note_on_c, 15, 65, 0
13, 75959, Note_on_c, 15, 62, 0
13, 75959, Note_on_c, 15, 69, 0
13, 75959, Note_on_c, 15, 50, 0
13, 75960, Note_on_c, 15, 60, 76
13, 75960, Note_on_c, 15, 48, 76
13, 75960, Note_on_c, 15, 67, 76
13, 75960, Note_on_c, 15, 64, 76
13, 76079, Note_on_c, 15, 60, 0
13, 76079, Note_on_c, 15, 48, 0
13, 76079, Note_on_c, 15, 67, 0
13, 76079, Note_on_c, 15, 64, 0
13, 76080, Note_on_c, 15, 59, 76
13, 76080, Note_on_c, 15, 67, 76
13, 76080, Note_on_c, 15, 47, 76
13, 76080, Note_on_c, 15, 64, 76
13, 76199, Note_on_c, 15, 59, 0
13, 76199, Note_on_c, 15, 67, 0
13, 76199, Note_on_c, 15, 47, 0
13, 76199, Note_on_c, 15, 64, 0
13, 76200, Note_on_c, 15, 45, 76
13, 76200, Note_on_c, 15, 67, 76
13, 76200, Note_on_c, 15, 64, 76
13, 76200, Note_on_c, 15, 57, 76
13, 76319, Note_on_c, 15, 45, 0
13, 76319, Note_on_c, 15, 67, 0
13, 76319, Note_on_c, 15, 64, 0
13, 76319, Note_on_c, 15, 57, 0
13, 76320, Note_on_c, 15, 55, 76
13, 76320, Note_on_c, 15, 67, 76
13, 76320, Note_on_c, 15, 64, 76
13, 76320, Note_on_c, 15, 43, 76
13, 76439, Note_on_c, 15, 55, 0
13, 76439, Note_on_c, 15, 67, 0
13, 76439, Note_on_c, 15, 64, 0
13, 76439, Note_on_c, 15, 43, 0
13, 76440, Note_on_c, 15, 53, 76
13, 76440, Note_on_c, 15, 67, 76
13, 76440, Note_on_c, 15, 41, 76
13, 76440, Note_on_c, 15, 64, 76
13, 76559, Note_on_c, 15, 53, 0
13, 76559, Note_on_c, 15, 67, 0
13, 76559, Note_on_c, 15, 41, 0
13, 76559, Note_on_c, 15, 64, 0
13, 76560, Note_on_c, 15, 65, 76
13, 76560, Note_on_c, 15, 74, 76
13, 76560, Note_on_c, 15, 71, 76
13, 76560, Note_on_c, 15, 67, 76
13, 76560, Note_on_c, 15, 53, 76
13, 77279, Note_on_c, 15, 65, 0
13, 77279, Note_on_c, 15, 74, 0
13, 77279, Note_on_c, 15, 71, 0
13, 77279, Note_on_c, 15, 67, 0
13, 77279, Note_on_c, 15, 53, 0
13, 77280, Note_on_c, 15, 59, 76
13, 77280, Note_on_c, 15, 62, 76
13, 77280, Note_on_c, 15, 47, 76
13, 77280, Note_on_c, 15, 67, 76
13, 77519, Note_on_c, 15, 59, 0
13, 77519, Note_on_c, 15, 62, 0
13, 77519, Note_on_c, 15, 47, 0
13, 77519, Note_on_c, 15, 67, 0
13, 77520, Note_on_c, 15, 59, 76
13, 77520, Note_on_c, 15, 62, 76
13, 77520, Note_on_c, 15, 43, 76
13, 77520, Note_on_c, 15, 55, 76
13, 77759, Note_on_c, 15, 59, 0
13, 77759, Note_on_c, 15, 62, 0
13, 77759, Note_on_c, 15, 43, 0
13, 77759, Note_on_c, 15, 55, 0
13, 77760, Note_on_c, 15, 47, 76
13, 77760, Note_on_c, 15, 59, 76
13, 77760, Note_on_c, 15, 67, 76
13, 77760, Note_on_c, 15, 62, 76
13, 77999, Note_on_c, 15, 47, 0
13, 77999, Note_on_c, 15, 59, 0
13, 77999, Note_on_c, 15, 67, 0
13, 77999, Note_on_c, 15, 62, 0
13, 78000, Note_on_c, 15, 48, 76
13, 78000, Note_on_c, 15, 64, 76
13, 78000, Note_on_c, 15, 67, 76
13, 78000, Note_on_c, 15, 60, 76
13, 78239, Note_on_c, 15, 48, 0
13, 78239, Note_on_c, 15, 64, 0
13, 78239, Note_on_c, 15, 67, 0
13, 78239, Note_on_c, 15, 60, 0
13, 78240, Note_on_c, 15, 59, 76
13, 78240, Note_on_c, 15, 62, 76
13, 78240, Note_on_c, 15, 55, 76
13, 78240, Note_on_c, 15, 43, 76
13, 78479, Note_on_c, 15, 59, 0
13, 78479, Note_on_c, 15, 62, 0
13, 78479, Note_on_c, 15, 55, 0
13, 78479, Note_on_c, 15, 43, 0
13, 78480, Note_on_c, 15, 57, 76
13, 78480, Note_on_c, 15, 45, 76
13, 78480, Note_on_c, 15, 64, 76
13, 78480, Note_on_c, 15, 60, 76
13, 78719, Note_on_c, 15, 57, 0
13, 78719, Note_on_c, 15, 45, 0
13, 78719, Note_on_c, 15, 64, 0
13, 78719, Note_on_c, 15, 60, 0
13, 78720, Note_on_c, 15, 41, 76
13, 78720, Note_on_c, 15, 53, 76
13, 78720, Note_on_c, 15, 60, 76
13, 78720, Note_on_c, 15, 57, 76
13, 78959, Note_on_c, 15, 41, 0
13, 78959, Note_on_c, 15, 53, 0
13, 78959, Note_on_c, 15, 60, 0
13, 78959, Note_on_c, 15, 57, 0
13, 78960, Note_on_c, 15, 43, 76
13, 78960, Note_on_c, 15, 59, 76
13, 78960, Note_on_c, 15, 55, 76
13, 78960, Note_on_c, 15, 62, 76
13, 79439, Note_on_c, 15, 43, 0
13, 79439, Note_on_c, 15, 59, 0
13, 79439, Note_on_c, 15, 55, 0
13, 79439, Note_on_c, 15, 62, 0
13, 79440, Note_on_c, 15, 52, 76
13, 79440, Note_on_c, 15, 55, 76
13, 79440, Note_on_c, 15, 36, 76
13, 79440, Note_on_c, 15, 48, 76
13, 80639, Note_on_c, 15, 52, 0
13, 80639, Note_on_c, 15, 55, 0
13, 80639, Note_on_c, 15, 36, 0
13, 80639, Note_on_c, 15, 48, 0
13, 80639, End_track
14, 0, Start_track
14, 0, Title_t, "Johann Sebastian Bach - Orchestral Suite No. 1 in C Major, BWV1066 - No. 2 Courante"
14, 0, MIDI_port, 0
14, 0, End_track
0, 0, End_of_file
