0, 0, Header, 1, 13, 240
1, 0, Start_track
1, 0, Sequencer_specific, 10, 0, 0, 91, 35, 1, 0, 5, 6, 42, 0
1, 0, Title_t, "J. S. Bach - Orchestral Suite No.2 in B Minor BWV1067"
1, 0, Instrument_name_t, "Conductor Track"
1, 0, SMPTE_offset, 96, 0, 3, 0, 0
1, 0, MIDI_port, 0
1, 0, Marker_t, "Originally Sequenced 14 Aug 1999"
1, 0, Tempo, 416666
1, 0, Key_signature, 2, "minor"
1, 0, Time_signature, 2, 2, 24, 8
1, 480, Time_signature, 4, 2, 24, 8
1, 56160, Tempo, 416666
1, 56240, Tempo, 425531
1, 56320, Tempo, 431654
1, 56400, Tempo, 441176
1, 56480, Tempo, 451127
1, 56560, Tempo, 458015
1, 56640, Tempo, 468750
1, 56720, Tempo, 480000
1, 56800, Tempo, 487804
1, 56880, Tempo, 500000
1, 56960, Tempo, 512820
1, 57040, Tempo, 521739
1, 57120, Tempo, 535714
1, 57600, Tempo, 1250000
1, 58560, Tempo, 1250000
1, 58560, End_track
2, 0, Start_track
2, 0, Title_t, "2nd Movement - Rondeau"
2, 0, MIDI_port, 0
2, 0, End_track
3, 0, Start_track
3, 0, Title_t, "Sequenced by D. L. Viens 31 Dec 1999"
3, 0, MIDI_port, 0
3, 0, End_track
4, 0, Start_track
4, 0, Title_t, "dlviens@empire.net"
4, 0, MIDI_port, 0
4, 0, End_track
5, 0, Start_track
5, 0, MIDI_port, 0
5, 0, End_track
6, 0, Start_track
6, 0, Title_t, "Flauto traverso"
6, 0, MIDI_port, 0
6, 0, Program_c, 0, 73
6, 0, Control_c, 0, 10, 64
6, 0, Control_c, 0, 11, 127
6, 0, Control_c, 0, 7, 80
6, 0, Note_on_c, 0, 74, 76
6, 239, Note_on_c, 0, 74, 0
6, 240, Note_on_c, 0, 73, 76
6, 419, Note_on_c, 0, 73, 0
6, 480, Note_on_c, 0, 66, 76
6, 944, Note_on_c, 0, 66, 0
6, 960, Note_on_c, 0, 76, 76
6, 1199, Note_on_c, 0, 76, 0
6, 1200, Note_on_c, 0, 74, 76
6, 1379, Note_on_c, 0, 74, 0
6, 1440, Note_on_c, 0, 66, 76
6, 1904, Note_on_c, 0, 66, 0
6, 1920, Note_on_c, 0, 78, 76
6, 2024, Note_on_c, 0, 78, 0
6, 2040, Note_on_c, 0, 76, 76
6, 2144, Note_on_c, 0, 76, 0
6, 2160, Note_on_c, 0, 78, 76
6, 2264, Note_on_c, 0, 78, 0
6, 2280, Note_on_c, 0, 79, 76
6, 2384, Note_on_c, 0, 79, 0
6, 2400, Note_on_c, 0, 78, 76
6, 2504, Note_on_c, 0, 78, 0
6, 2520, Note_on_c, 0, 76, 76
6, 2624, Note_on_c, 0, 76, 0
6, 2640, Note_on_c, 0, 74, 76
6, 2744, Note_on_c, 0, 74, 0
6, 2760, Note_on_c, 0, 78, 76
6, 2864, Note_on_c, 0, 78, 0
6, 2880, Note_on_c, 0, 76, 76
6, 2984, Note_on_c, 0, 76, 0
6, 3000, Note_on_c, 0, 74, 76
6, 3104, Note_on_c, 0, 74, 0
6, 3120, Note_on_c, 0, 76, 76
6, 3224, Note_on_c, 0, 76, 0
6, 3240, Note_on_c, 0, 78, 76
6, 3344, Note_on_c, 0, 78, 0
6, 3360, Note_on_c, 0, 76, 76
6, 3464, Note_on_c, 0, 76, 0
6, 3480, Note_on_c, 0, 74, 76
6, 3584, Note_on_c, 0, 74, 0
6, 3600, Note_on_c, 0, 73, 76
6, 3704, Note_on_c, 0, 73, 0
6, 3720, Note_on_c, 0, 76, 76
6, 3824, Note_on_c, 0, 76, 0
6, 3840, Note_on_c, 0, 74, 76
6, 4079, Note_on_c, 0, 74, 0
6, 4080, Note_on_c, 0, 73, 76
6, 4259, Note_on_c, 0, 73, 0
6, 4320, Note_on_c, 0, 66, 76
6, 4784, Note_on_c, 0, 66, 0
6, 4800, Note_on_c, 0, 76, 76
6, 5039, Note_on_c, 0, 76, 0
6, 5040, Note_on_c, 0, 74, 76
6, 5219, Note_on_c, 0, 74, 0
6, 5280, Note_on_c, 0, 66, 76
6, 5744, Note_on_c, 0, 66, 0
6, 5760, Note_on_c, 0, 78, 76
6, 5864, Note_on_c, 0, 78, 0
6, 5880, Note_on_c, 0, 76, 76
6, 5984, Note_on_c, 0, 76, 0
6, 6000, Note_on_c, 0, 78, 76
6, 6104, Note_on_c, 0, 78, 0
6, 6120, Note_on_c, 0, 79, 76
6, 6224, Note_on_c, 0, 79, 0
6, 6240, Note_on_c, 0, 78, 76
6, 6464, Note_on_c, 0, 78, 0
6, 6480, Note_on_c, 0, 71, 76
6, 6704, Note_on_c, 0, 71, 0
6, 6720, Note_on_c, 0, 73, 76
6, 6944, Note_on_c, 0, 73, 0
6, 6960, Note_on_c, 0, 70, 76
6, 7184, Note_on_c, 0, 70, 0
6, 7200, Note_on_c, 0, 71, 76
6, 7664, Note_on_c, 0, 71, 0
6, 7680, Note_on_c, 0, 74, 76
6, 7919, Note_on_c, 0, 74, 0
6, 7920, Note_on_c, 0, 73, 76
6, 8099, Note_on_c, 0, 73, 0
6, 8160, Note_on_c, 0, 66, 76
6, 8624, Note_on_c, 0, 66, 0
6, 8640, Note_on_c, 0, 76, 76
6, 8879, Note_on_c, 0, 76, 0
6, 8880, Note_on_c, 0, 74, 76
6, 9059, Note_on_c, 0, 74, 0
6, 9120, Note_on_c, 0, 66, 76
6, 9584, Note_on_c, 0, 66, 0
6, 9600, Note_on_c, 0, 78, 76
6, 9704, Note_on_c, 0, 78, 0
6, 9720, Note_on_c, 0, 76, 76
6, 9824, Note_on_c, 0, 76, 0
6, 9840, Note_on_c, 0, 78, 76
6, 9944, Note_on_c, 0, 78, 0
6, 9960, Note_on_c, 0, 79, 76
6, 10064, Note_on_c, 0, 79, 0
6, 10080, Note_on_c, 0, 78, 76
6, 10184, Note_on_c, 0, 78, 0
6, 10200, Note_on_c, 0, 76, 76
6, 10304, Note_on_c, 0, 76, 0
6, 10320, Note_on_c, 0, 74, 76
6, 10424, Note_on_c, 0, 74, 0
6, 10440, Note_on_c, 0, 78, 76
6, 10544, Note_on_c, 0, 78, 0
6, 10560, Note_on_c, 0, 76, 76
6, 10664, Note_on_c, 0, 76, 0
6, 10680, Note_on_c, 0, 74, 76
6, 10784, Note_on_c, 0, 74, 0
6, 10800, Note_on_c, 0, 76, 76
6, 10904, Note_on_c, 0, 76, 0
6, 10920, Note_on_c, 0, 78, 76
6, 11024, Note_on_c, 0, 78, 0
6, 11040, Note_on_c, 0, 76, 76
6, 11144, Note_on_c, 0, 76, 0
6, 11160, Note_on_c, 0, 74, 76
6, 11264, Note_on_c, 0, 74, 0
6, 11280, Note_on_c, 0, 73, 76
6, 11384, Note_on_c, 0, 73, 0
6, 11400, Note_on_c, 0, 76, 76
6, 11504, Note_on_c, 0, 76, 0
6, 11520, Note_on_c, 0, 74, 76
6, 11759, Note_on_c, 0, 74, 0
6, 11760, Note_on_c, 0, 73, 76
6, 11939, Note_on_c, 0, 73, 0
6, 12000, Note_on_c, 0, 66, 76
6, 12464, Note_on_c, 0, 66, 0
6, 12480, Note_on_c, 0, 76, 76
6, 12719, Note_on_c, 0, 76, 0
6, 12720, Note_on_c, 0, 74, 76
6, 12899, Note_on_c, 0, 74, 0
6, 12960, Note_on_c, 0, 66, 76
6, 13424, Note_on_c, 0, 66, 0
6, 13440, Note_on_c, 0, 78, 76
6, 13544, Note_on_c, 0, 78, 0
6, 13560, Note_on_c, 0, 76, 76
6, 13664, Note_on_c, 0, 76, 0
6, 13680, Note_on_c, 0, 78, 76
6, 13784, Note_on_c, 0, 78, 0
6, 13800, Note_on_c, 0, 79, 76
6, 13904, Note_on_c, 0, 79, 0
6, 13920, Note_on_c, 0, 78, 76
6, 14144, Note_on_c, 0, 78, 0
6, 14160, Note_on_c, 0, 71, 76
6, 14384, Note_on_c, 0, 71, 0
6, 14400, Note_on_c, 0, 73, 76
6, 14624, Note_on_c, 0, 73, 0
6, 14640, Note_on_c, 0, 70, 76
6, 14864, Note_on_c, 0, 70, 0
6, 14880, Note_on_c, 0, 71, 76
6, 15344, Note_on_c, 0, 71, 0
6, 15360, Note_on_c, 0, 78, 76
6, 15479, Note_on_c, 0, 78, 0
6, 15480, Note_on_c, 0, 79, 76
6, 15599, Note_on_c, 0, 79, 0
6, 15600, Note_on_c, 0, 78, 76
6, 15719, Note_on_c, 0, 78, 0
6, 15720, Note_on_c, 0, 76, 76
6, 15824, Note_on_c, 0, 76, 0
6, 15840, Note_on_c, 0, 78, 76
6, 16019, Note_on_c, 0, 78, 0
6, 16080, Note_on_c, 0, 79, 76
6, 16259, Note_on_c, 0, 79, 0
6, 16320, Note_on_c, 0, 81, 76
6, 16499, Note_on_c, 0, 81, 0
6, 16560, Note_on_c, 0, 79, 76
6, 16739, Note_on_c, 0, 79, 0
6, 16800, Note_on_c, 0, 78, 76
6, 17024, Note_on_c, 0, 78, 0
6, 17040, Note_on_c, 0, 83, 76
6, 17264, Note_on_c, 0, 83, 0
6, 17280, Note_on_c, 0, 78, 76
6, 17399, Note_on_c, 0, 78, 0
6, 17400, Note_on_c, 0, 79, 76
6, 17519, Note_on_c, 0, 79, 0
6, 17520, Note_on_c, 0, 78, 76
6, 17639, Note_on_c, 0, 78, 0
6, 17640, Note_on_c, 0, 76, 76
6, 17744, Note_on_c, 0, 76, 0
6, 17760, Note_on_c, 0, 78, 76
6, 17939, Note_on_c, 0, 78, 0
6, 18000, Note_on_c, 0, 79, 76
6, 18179, Note_on_c, 0, 79, 0
6, 18240, Note_on_c, 0, 81, 76
6, 18419, Note_on_c, 0, 81, 0
6, 18480, Note_on_c, 0, 79, 76
6, 18659, Note_on_c, 0, 79, 0
6, 18720, Note_on_c, 0, 78, 76
6, 19184, Note_on_c, 0, 78, 0
6, 19200, Note_on_c, 0, 83, 76
6, 19439, Note_on_c, 0, 83, 0
6, 19440, Note_on_c, 0, 81, 76
6, 19619, Note_on_c, 0, 81, 0
6, 19680, Note_on_c, 0, 72, 76
6, 20144, Note_on_c, 0, 72, 0
6, 20160, Note_on_c, 0, 81, 76
6, 20399, Note_on_c, 0, 81, 0
6, 20400, Note_on_c, 0, 79, 76
6, 20579, Note_on_c, 0, 79, 0
6, 20640, Note_on_c, 0, 71, 76
6, 21104, Note_on_c, 0, 71, 0
6, 21120, Note_on_c, 0, 79, 76
6, 21224, Note_on_c, 0, 79, 0
6, 21240, Note_on_c, 0, 78, 76
6, 21344, Note_on_c, 0, 78, 0
6, 21360, Note_on_c, 0, 79, 76
6, 21464, Note_on_c, 0, 79, 0
6, 21480, Note_on_c, 0, 81, 76
6, 21584, Note_on_c, 0, 81, 0
6, 21600, Note_on_c, 0, 79, 76
6, 21704, Note_on_c, 0, 79, 0
6, 21720, Note_on_c, 0, 78, 76
6, 21824, Note_on_c, 0, 78, 0
6, 21840, Note_on_c, 0, 76, 76
6, 21944, Note_on_c, 0, 76, 0
6, 21960, Note_on_c, 0, 79, 76
6, 22064, Note_on_c, 0, 79, 0
6, 22080, Note_on_c, 0, 78, 76
6, 22184, Note_on_c, 0, 78, 0
6, 22200, Note_on_c, 0, 76, 76
6, 22304, Note_on_c, 0, 76, 0
6, 22320, Note_on_c, 0, 75, 76
6, 22424, Note_on_c, 0, 75, 0
6, 22440, Note_on_c, 0, 78, 76
6, 22544, Note_on_c, 0, 78, 0
6, 22560, Note_on_c, 0, 76, 76
6, 23024, Note_on_c, 0, 76, 0
6, 23040, Note_on_c, 0, 79, 76
6, 23984, Note_on_c, 0, 79, 0
6, 24000, Note_on_c, 0, 78, 76
6, 24944, Note_on_c, 0, 78, 0
6, 24960, Note_on_c, 0, 76, 76
6, 25544, Note_on_c, 0, 76, 0
6, 25560, Note_on_c, 0, 74, 76
6, 25664, Note_on_c, 0, 74, 0
6, 25680, Note_on_c, 0, 76, 76
6, 25784, Note_on_c, 0, 76, 0
6, 25800, Note_on_c, 0, 78, 76
6, 25904, Note_on_c, 0, 78, 0
6, 25920, Note_on_c, 0, 76, 76
6, 26024, Note_on_c, 0, 76, 0
6, 26040, Note_on_c, 0, 74, 76
6, 26144, Note_on_c, 0, 74, 0
6, 26160, Note_on_c, 0, 73, 76
6, 26264, Note_on_c, 0, 73, 0
6, 26280, Note_on_c, 0, 71, 76
6, 26384, Note_on_c, 0, 71, 0
6, 26400, Note_on_c, 0, 73, 76
6, 26624, Note_on_c, 0, 73, 0
6, 26640, Note_on_c, 0, 66, 76
6, 26864, Note_on_c, 0, 66, 0
6, 26880, Note_on_c, 0, 74, 76
6, 27119, Note_on_c, 0, 74, 0
6, 27120, Note_on_c, 0, 73, 76
6, 27299, Note_on_c, 0, 73, 0
6, 27360, Note_on_c, 0, 66, 76
6, 27824, Note_on_c, 0, 66, 0
6, 27840, Note_on_c, 0, 76, 76
6, 28079, Note_on_c, 0, 76, 0
6, 28080, Note_on_c, 0, 74, 76
6, 28259, Note_on_c, 0, 74, 0
6, 28320, Note_on_c, 0, 66, 76
6, 28784, Note_on_c, 0, 66, 0
6, 28800, Note_on_c, 0, 78, 76
6, 28904, Note_on_c, 0, 78, 0
6, 28920, Note_on_c, 0, 76, 76
6, 29024, Note_on_c, 0, 76, 0
6, 29040, Note_on_c, 0, 78, 76
6, 29144, Note_on_c, 0, 78, 0
6, 29160, Note_on_c, 0, 79, 76
6, 29264, Note_on_c, 0, 79, 0
6, 29280, Note_on_c, 0, 78, 76
6, 29384, Note_on_c, 0, 78, 0
6, 29400, Note_on_c, 0, 76, 76
6, 29504, Note_on_c, 0, 76, 0
6, 29520, Note_on_c, 0, 74, 76
6, 29624, Note_on_c, 0, 74, 0
6, 29640, Note_on_c, 0, 78, 76
6, 29744, Note_on_c, 0, 78, 0
6, 29760, Note_on_c, 0, 76, 76
6, 29864, Note_on_c, 0, 76, 0
6, 29880, Note_on_c, 0, 74, 76
6, 29984, Note_on_c, 0, 74, 0
6, 30000, Note_on_c, 0, 76, 76
6, 30104, Note_on_c, 0, 76, 0
6, 30120, Note_on_c, 0, 78, 76
6, 30224, Note_on_c, 0, 78, 0
6, 30240, Note_on_c, 0, 76, 76
6, 30344, Note_on_c, 0, 76, 0
6, 30360, Note_on_c, 0, 74, 76
6, 30464, Note_on_c, 0, 74, 0
6, 30480, Note_on_c, 0, 73, 76
6, 30584, Note_on_c, 0, 73, 0
6, 30600, Note_on_c, 0, 76, 76
6, 30704, Note_on_c, 0, 76, 0
6, 30720, Note_on_c, 0, 74, 76
6, 30959, Note_on_c, 0, 74, 0
6, 30960, Note_on_c, 0, 73, 76
6, 31139, Note_on_c, 0, 73, 0
6, 31200, Note_on_c, 0, 66, 76
6, 31664, Note_on_c, 0, 66, 0
6, 31680, Note_on_c, 0, 76, 76
6, 31919, Note_on_c, 0, 76, 0
6, 31920, Note_on_c, 0, 74, 76
6, 32099, Note_on_c, 0, 74, 0
6, 32160, Note_on_c, 0, 66, 76
6, 32624, Note_on_c, 0, 66, 0
6, 32640, Note_on_c, 0, 78, 76
6, 32744, Note_on_c, 0, 78, 0
6, 32760, Note_on_c, 0, 76, 76
6, 32864, Note_on_c, 0, 76, 0
6, 32880, Note_on_c, 0, 78, 76
6, 32984, Note_on_c, 0, 78, 0
6, 33000, Note_on_c, 0, 79, 76
6, 33104, Note_on_c, 0, 79, 0
6, 33120, Note_on_c, 0, 78, 76
6, 33344, Note_on_c, 0, 78, 0
6, 33360, Note_on_c, 0, 71, 76
6, 33584, Note_on_c, 0, 71, 0
6, 33600, Note_on_c, 0, 73, 76
6, 33824, Note_on_c, 0, 73, 0
6, 33840, Note_on_c, 0, 70, 76
6, 34064, Note_on_c, 0, 70, 0
6, 34080, Note_on_c, 0, 71, 76
6, 34544, Note_on_c, 0, 71, 0
6, 34560, Note_on_c, 0, 74, 76
6, 34679, Note_on_c, 0, 74, 0
6, 34680, Note_on_c, 0, 73, 76
6, 34784, Note_on_c, 0, 73, 0
6, 34800, Note_on_c, 0, 74, 76
6, 34919, Note_on_c, 0, 74, 0
6, 34920, Note_on_c, 0, 76, 76
6, 35024, Note_on_c, 0, 76, 0
6, 35040, Note_on_c, 0, 74, 76
6, 35144, Note_on_c, 0, 74, 0
6, 35160, Note_on_c, 0, 76, 76
6, 35264, Note_on_c, 0, 76, 0
6, 35280, Note_on_c, 0, 74, 76
6, 35384, Note_on_c, 0, 74, 0
6, 35400, Note_on_c, 0, 73, 76
6, 35504, Note_on_c, 0, 73, 0
6, 35520, Note_on_c, 0, 71, 76
6, 35624, Note_on_c, 0, 71, 0
6, 35640, Note_on_c, 0, 73, 76
6, 35744, Note_on_c, 0, 73, 0
6, 35760, Note_on_c, 0, 74, 76
6, 35864, Note_on_c, 0, 74, 0
6, 35880, Note_on_c, 0, 71, 76
6, 35984, Note_on_c, 0, 71, 0
6, 36000, Note_on_c, 0, 73, 76
6, 36104, Note_on_c, 0, 73, 0
6, 36120, Note_on_c, 0, 71, 76
6, 36224, Note_on_c, 0, 71, 0
6, 36240, Note_on_c, 0, 69, 76
6, 36344, Note_on_c, 0, 69, 0
6, 36360, Note_on_c, 0, 71, 76
6, 36464, Note_on_c, 0, 71, 0
6, 36480, Note_on_c, 0, 73, 76
6, 36584, Note_on_c, 0, 73, 0
6, 36600, Note_on_c, 0, 74, 76
6, 36704, Note_on_c, 0, 74, 0
6, 36720, Note_on_c, 0, 76, 76
6, 36824, Note_on_c, 0, 76, 0
6, 36840, Note_on_c, 0, 78, 76
6, 36944, Note_on_c, 0, 78, 0
6, 36960, Note_on_c, 0, 79, 76
6, 37064, Note_on_c, 0, 79, 0
6, 37080, Note_on_c, 0, 81, 76
6, 37184, Note_on_c, 0, 81, 0
6, 37200, Note_on_c, 0, 79, 76
6, 37304, Note_on_c, 0, 79, 0
6, 37320, Note_on_c, 0, 78, 76
6, 37424, Note_on_c, 0, 78, 0
6, 37440, Note_on_c, 0, 79, 76
6, 37544, Note_on_c, 0, 79, 0
6, 37560, Note_on_c, 0, 78, 76
6, 37664, Note_on_c, 0, 78, 0
6, 37680, Note_on_c, 0, 76, 76
6, 37784, Note_on_c, 0, 76, 0
6, 37800, Note_on_c, 0, 79, 76
6, 37904, Note_on_c, 0, 79, 0
6, 37920, Note_on_c, 0, 78, 76
6, 38024, Note_on_c, 0, 78, 0
6, 38040, Note_on_c, 0, 79, 76
6, 38144, Note_on_c, 0, 79, 0
6, 38160, Note_on_c, 0, 81, 76
6, 38264, Note_on_c, 0, 81, 0
6, 38280, Note_on_c, 0, 78, 76
6, 38384, Note_on_c, 0, 78, 0
6, 38400, Note_on_c, 0, 83, 76
6, 38504, Note_on_c, 0, 83, 0
6, 38520, Note_on_c, 0, 81, 76
6, 38624, Note_on_c, 0, 81, 0
6, 38640, Note_on_c, 0, 80, 76
6, 38744, Note_on_c, 0, 80, 0
6, 38760, Note_on_c, 0, 78, 76
6, 38864, Note_on_c, 0, 78, 0
6, 38880, Note_on_c, 0, 76, 76
6, 38984, Note_on_c, 0, 76, 0
6, 39000, Note_on_c, 0, 74, 76
6, 39104, Note_on_c, 0, 74, 0
6, 39120, Note_on_c, 0, 73, 76
6, 39224, Note_on_c, 0, 73, 0
6, 39240, Note_on_c, 0, 71, 76
6, 39344, Note_on_c, 0, 71, 0
6, 39360, Note_on_c, 0, 81, 76
6, 39464, Note_on_c, 0, 81, 0
6, 39480, Note_on_c, 0, 80, 76
6, 39584, Note_on_c, 0, 80, 0
6, 39600, Note_on_c, 0, 78, 76
6, 39704, Note_on_c, 0, 78, 0
6, 39720, Note_on_c, 0, 76, 76
6, 39824, Note_on_c, 0, 76, 0
6, 39840, Note_on_c, 0, 74, 76
6, 39944, Note_on_c, 0, 74, 0
6, 39960, Note_on_c, 0, 73, 76
6, 40064, Note_on_c, 0, 73, 0
6, 40080, Note_on_c, 0, 71, 76
6, 40184, Note_on_c, 0, 71, 0
6, 40200, Note_on_c, 0, 69, 76
6, 40304, Note_on_c, 0, 69, 0
6, 40320, Note_on_c, 0, 80, 76
6, 40424, Note_on_c, 0, 80, 0
6, 40440, Note_on_c, 0, 78, 76
6, 40544, Note_on_c, 0, 78, 0
6, 40560, Note_on_c, 0, 77, 76
6, 40664, Note_on_c, 0, 77, 0
6, 40680, Note_on_c, 0, 78, 76
6, 40784, Note_on_c, 0, 78, 0
6, 40800, Note_on_c, 0, 80, 76
6, 41024, Note_on_c, 0, 80, 0
6, 41040, Note_on_c, 0, 73, 76
6, 41264, Note_on_c, 0, 73, 0
6, 41280, Note_on_c, 0, 85, 76
6, 41504, Note_on_c, 0, 85, 0
6, 41520, Note_on_c, 0, 83, 76
6, 41624, Note_on_c, 0, 83, 0
6, 41640, Note_on_c, 0, 81, 76
6, 41707, Note_on_c, 0, 81, 0
6, 41720, Note_on_c, 0, 81, 76
6, 41759, Note_on_c, 0, 81, 0
6, 41760, Note_on_c, 0, 80, 76
6, 42224, Note_on_c, 0, 80, 0
6, 42240, Note_on_c, 0, 73, 76
6, 42479, Note_on_c, 0, 73, 0
6, 42480, Note_on_c, 0, 71, 76
6, 42659, Note_on_c, 0, 71, 0
6, 42720, Note_on_c, 0, 81, 76
6, 43184, Note_on_c, 0, 81, 0
6, 43200, Note_on_c, 0, 74, 76
6, 43439, Note_on_c, 0, 74, 0
6, 43440, Note_on_c, 0, 73, 76
6, 43619, Note_on_c, 0, 73, 0
6, 43680, Note_on_c, 0, 83, 76
6, 44144, Note_on_c, 0, 83, 0
6, 44160, Note_on_c, 0, 81, 76
6, 44264, Note_on_c, 0, 81, 0
6, 44280, Note_on_c, 0, 80, 76
6, 44384, Note_on_c, 0, 80, 0
6, 44400, Note_on_c, 0, 81, 76
6, 44504, Note_on_c, 0, 81, 0
6, 44520, Note_on_c, 0, 83, 76
6, 44624, Note_on_c, 0, 83, 0
6, 44640, Note_on_c, 0, 81, 76
6, 44744, Note_on_c, 0, 81, 0
6, 44760, Note_on_c, 0, 80, 76
6, 44864, Note_on_c, 0, 80, 0
6, 44880, Note_on_c, 0, 78, 76
6, 44984, Note_on_c, 0, 78, 0
6, 45000, Note_on_c, 0, 81, 76
6, 45104, Note_on_c, 0, 81, 0
6, 45120, Note_on_c, 0, 80, 76
6, 45224, Note_on_c, 0, 80, 0
6, 45240, Note_on_c, 0, 78, 76
6, 45344, Note_on_c, 0, 78, 0
6, 45360, Note_on_c, 0, 77, 76
6, 45464, Note_on_c, 0, 77, 0
6, 45480, Note_on_c, 0, 80, 76
6, 45584, Note_on_c, 0, 80, 0
6, 45600, Note_on_c, 0, 78, 76
6, 46064, Note_on_c, 0, 78, 0
6, 46080, Note_on_c, 0, 73, 76
6, 46199, Note_on_c, 0, 73, 0
6, 46200, Note_on_c, 0, 74, 76
6, 46319, Note_on_c, 0, 74, 0
6, 46320, Note_on_c, 0, 73, 76
6, 46439, Note_on_c, 0, 73, 0
6, 46440, Note_on_c, 0, 71, 76
6, 46544, Note_on_c, 0, 71, 0
6, 46560, Note_on_c, 0, 73, 76
6, 46739, Note_on_c, 0, 73, 0
6, 46800, Note_on_c, 0, 74, 76
6, 46979, Note_on_c, 0, 74, 0
6, 47040, Note_on_c, 0, 76, 76
6, 47219, Note_on_c, 0, 76, 0
6, 47280, Note_on_c, 0, 74, 76
6, 47459, Note_on_c, 0, 74, 0
6, 47520, Note_on_c, 0, 73, 76
6, 47699, Note_on_c, 0, 73, 0
6, 47760, Note_on_c, 0, 78, 76
6, 47939, Note_on_c, 0, 78, 0
6, 48000, Note_on_c, 0, 73, 76
6, 48119, Note_on_c, 0, 73, 0
6, 48120, Note_on_c, 0, 74, 76
6, 48239, Note_on_c, 0, 74, 0
6, 48240, Note_on_c, 0, 73, 76
6, 48359, Note_on_c, 0, 73, 0
6, 48360, Note_on_c, 0, 71, 76
6, 48464, Note_on_c, 0, 71, 0
6, 48480, Note_on_c, 0, 73, 76
6, 48659, Note_on_c, 0, 73, 0
6, 48720, Note_on_c, 0, 74, 76
6, 48899, Note_on_c, 0, 74, 0
6, 48960, Note_on_c, 0, 76, 76
6, 49139, Note_on_c, 0, 76, 0
6, 49200, Note_on_c, 0, 74, 76
6, 49379, Note_on_c, 0, 74, 0
6, 49400, Note_on_c, 0, 74, 76
6, 49439, Note_on_c, 0, 74, 0
6, 49440, Note_on_c, 0, 73, 76
6, 49904, Note_on_c, 0, 73, 0
6, 49920, Note_on_c, 0, 74, 76
6, 50159, Note_on_c, 0, 74, 0
6, 50160, Note_on_c, 0, 73, 76
6, 50339, Note_on_c, 0, 73, 0
6, 50400, Note_on_c, 0, 66, 76
6, 50864, Note_on_c, 0, 66, 0
6, 50880, Note_on_c, 0, 76, 76
6, 51119, Note_on_c, 0, 76, 0
6, 51120, Note_on_c, 0, 74, 76
6, 51299, Note_on_c, 0, 74, 0
6, 51360, Note_on_c, 0, 66, 76
6, 51824, Note_on_c, 0, 66, 0
6, 51840, Note_on_c, 0, 78, 76
6, 51944, Note_on_c, 0, 78, 0
6, 51960, Note_on_c, 0, 76, 76
6, 52064, Note_on_c, 0, 76, 0
6, 52080, Note_on_c, 0, 78, 76
6, 52184, Note_on_c, 0, 78, 0
6, 52200, Note_on_c, 0, 79, 76
6, 52304, Note_on_c, 0, 79, 0
6, 52320, Note_on_c, 0, 78, 76
6, 52424, Note_on_c, 0, 78, 0
6, 52440, Note_on_c, 0, 76, 76
6, 52544, Note_on_c, 0, 76, 0
6, 52560, Note_on_c, 0, 74, 76
6, 52664, Note_on_c, 0, 74, 0
6, 52680, Note_on_c, 0, 78, 76
6, 52784, Note_on_c, 0, 78, 0
6, 52800, Note_on_c, 0, 76, 76
6, 52904, Note_on_c, 0, 76, 0
6, 52920, Note_on_c, 0, 74, 76
6, 53024, Note_on_c, 0, 74, 0
6, 53040, Note_on_c, 0, 76, 76
6, 53144, Note_on_c, 0, 76, 0
6, 53160, Note_on_c, 0, 78, 76
6, 53264, Note_on_c, 0, 78, 0
6, 53280, Note_on_c, 0, 76, 76
6, 53384, Note_on_c, 0, 76, 0
6, 53400, Note_on_c, 0, 74, 76
6, 53504, Note_on_c, 0, 74, 0
6, 53520, Note_on_c, 0, 73, 76
6, 53624, Note_on_c, 0, 73, 0
6, 53640, Note_on_c, 0, 76, 76
6, 53744, Note_on_c, 0, 76, 0
6, 53760, Note_on_c, 0, 74, 76
6, 53999, Note_on_c, 0, 74, 0
6, 54000, Note_on_c, 0, 73, 76
6, 54179, Note_on_c, 0, 73, 0
6, 54240, Note_on_c, 0, 66, 76
6, 54704, Note_on_c, 0, 66, 0
6, 54720, Note_on_c, 0, 76, 76
6, 54959, Note_on_c, 0, 76, 0
6, 54960, Note_on_c, 0, 74, 76
6, 55139, Note_on_c, 0, 74, 0
6, 55200, Note_on_c, 0, 66, 76
6, 55664, Note_on_c, 0, 66, 0
6, 55680, Note_on_c, 0, 78, 76
6, 55784, Note_on_c, 0, 78, 0
6, 55800, Note_on_c, 0, 76, 76
6, 55904, Note_on_c, 0, 76, 0
6, 55920, Note_on_c, 0, 78, 76
6, 56024, Note_on_c, 0, 78, 0
6, 56040, Note_on_c, 0, 79, 76
6, 56144, Note_on_c, 0, 79, 0
6, 56160, Note_on_c, 0, 78, 76
6, 56384, Note_on_c, 0, 78, 0
6, 56400, Note_on_c, 0, 71, 76
6, 56624, Note_on_c, 0, 71, 0
6, 56640, Note_on_c, 0, 73, 76
6, 56864, Note_on_c, 0, 73, 0
6, 56880, Note_on_c, 0, 70, 76
6, 57104, Note_on_c, 0, 70, 0
6, 57120, Note_on_c, 0, 71, 76
6, 57599, Note_on_c, 0, 71, 0
6, 57599, End_track
7, 0, Start_track
7, 0, Title_t, "Violin I"
7, 0, MIDI_port, 0
7, 0, Program_c, 1, 48
7, 0, Control_c, 1, 10, 48
7, 0, Control_c, 1, 11, 127
7, 0, Control_c, 1, 7, 96
7, 0, Note_on_c, 1, 74, 76
7, 239, Note_on_c, 1, 74, 0
7, 240, Note_on_c, 1, 73, 76
7, 419, Note_on_c, 1, 73, 0
7, 480, Note_on_c, 1, 66, 76
7, 944, Note_on_c, 1, 66, 0
7, 960, Note_on_c, 1, 76, 76
7, 1199, Note_on_c, 1, 76, 0
7, 1200, Note_on_c, 1, 74, 76
7, 1379, Note_on_c, 1, 74, 0
7, 1440, Note_on_c, 1, 66, 76
7, 1904, Note_on_c, 1, 66, 0
7, 1920, Note_on_c, 1, 78, 76
7, 2024, Note_on_c, 1, 78, 0
7, 2040, Note_on_c, 1, 76, 76
7, 2144, Note_on_c, 1, 76, 0
7, 2160, Note_on_c, 1, 78, 76
7, 2264, Note_on_c, 1, 78, 0
7, 2280, Note_on_c, 1, 79, 76
7, 2384, Note_on_c, 1, 79, 0
7, 2400, Note_on_c, 1, 78, 76
7, 2504, Note_on_c, 1, 78, 0
7, 2520, Note_on_c, 1, 76, 76
7, 2624, Note_on_c, 1, 76, 0
7, 2640, Note_on_c, 1, 74, 76
7, 2744, Note_on_c, 1, 74, 0
7, 2760, Note_on_c, 1, 78, 76
7, 2864, Note_on_c, 1, 78, 0
7, 2880, Note_on_c, 1, 76, 76
7, 2984, Note_on_c, 1, 76, 0
7, 3000, Note_on_c, 1, 74, 76
7, 3104, Note_on_c, 1, 74, 0
7, 3120, Note_on_c, 1, 76, 76
7, 3224, Note_on_c, 1, 76, 0
7, 3240, Note_on_c, 1, 78, 76
7, 3344, Note_on_c, 1, 78, 0
7, 3360, Note_on_c, 1, 76, 76
7, 3464, Note_on_c, 1, 76, 0
7, 3480, Note_on_c, 1, 74, 76
7, 3584, Note_on_c, 1, 74, 0
7, 3600, Note_on_c, 1, 73, 76
7, 3704, Note_on_c, 1, 73, 0
7, 3720, Note_on_c, 1, 76, 76
7, 3824, Note_on_c, 1, 76, 0
7, 3840, Note_on_c, 1, 74, 76
7, 4079, Note_on_c, 1, 74, 0
7, 4080, Note_on_c, 1, 73, 76
7, 4259, Note_on_c, 1, 73, 0
7, 4320, Note_on_c, 1, 66, 76
7, 4784, Note_on_c, 1, 66, 0
7, 4800, Note_on_c, 1, 76, 76
7, 5039, Note_on_c, 1, 76, 0
7, 5040, Note_on_c, 1, 74, 76
7, 5219, Note_on_c, 1, 74, 0
7, 5280, Note_on_c, 1, 66, 76
7, 5744, Note_on_c, 1, 66, 0
7, 5760, Note_on_c, 1, 78, 76
7, 5864, Note_on_c, 1, 78, 0
7, 5880, Note_on_c, 1, 76, 76
7, 5984, Note_on_c, 1, 76, 0
7, 6000, Note_on_c, 1, 78, 76
7, 6104, Note_on_c, 1, 78, 0
7, 6120, Note_on_c, 1, 79, 76
7, 6224, Note_on_c, 1, 79, 0
7, 6240, Note_on_c, 1, 78, 76
7, 6464, Note_on_c, 1, 78, 0
7, 6480, Note_on_c, 1, 71, 76
7, 6704, Note_on_c, 1, 71, 0
7, 6720, Note_on_c, 1, 73, 76
7, 6944, Note_on_c, 1, 73, 0
7, 6960, Note_on_c, 1, 70, 76
7, 7184, Note_on_c, 1, 70, 0
7, 7200, Note_on_c, 1, 71, 76
7, 7664, Note_on_c, 1, 71, 0
7, 7680, Note_on_c, 1, 74, 76
7, 7919, Note_on_c, 1, 74, 0
7, 7920, Note_on_c, 1, 73, 76
7, 8099, Note_on_c, 1, 73, 0
7, 8160, Note_on_c, 1, 66, 76
7, 8624, Note_on_c, 1, 66, 0
7, 8640, Note_on_c, 1, 76, 76
7, 8879, Note_on_c, 1, 76, 0
7, 8880, Note_on_c, 1, 74, 76
7, 9059, Note_on_c, 1, 74, 0
7, 9120, Note_on_c, 1, 66, 76
7, 9584, Note_on_c, 1, 66, 0
7, 9600, Note_on_c, 1, 78, 76
7, 9704, Note_on_c, 1, 78, 0
7, 9720, Note_on_c, 1, 76, 76
7, 9824, Note_on_c, 1, 76, 0
7, 9840, Note_on_c, 1, 78, 76
7, 9944, Note_on_c, 1, 78, 0
7, 9960, Note_on_c, 1, 79, 76
7, 10064, Note_on_c, 1, 79, 0
7, 10080, Note_on_c, 1, 78, 76
7, 10184, Note_on_c, 1, 78, 0
7, 10200, Note_on_c, 1, 76, 76
7, 10304, Note_on_c, 1, 76, 0
7, 10320, Note_on_c, 1, 74, 76
7, 10424, Note_on_c, 1, 74, 0
7, 10440, Note_on_c, 1, 78, 76
7, 10544, Note_on_c, 1, 78, 0
7, 10560, Note_on_c, 1, 76, 76
7, 10664, Note_on_c, 1, 76, 0
7, 10680, Note_on_c, 1, 74, 76
7, 10784, Note_on_c, 1, 74, 0
7, 10800, Note_on_c, 1, 76, 76
7, 10904, Note_on_c, 1, 76, 0
7, 10920, Note_on_c, 1, 78, 76
7, 11024, Note_on_c, 1, 78, 0
7, 11040, Note_on_c, 1, 76, 76
7, 11144, Note_on_c, 1, 76, 0
7, 11160, Note_on_c, 1, 74, 76
7, 11264, Note_on_c, 1, 74, 0
7, 11280, Note_on_c, 1, 73, 76
7, 11384, Note_on_c, 1, 73, 0
7, 11400, Note_on_c, 1, 76, 76
7, 11504, Note_on_c, 1, 76, 0
7, 11520, Note_on_c, 1, 74, 76
7, 11759, Note_on_c, 1, 74, 0
7, 11760, Note_on_c, 1, 73, 76
7, 11939, Note_on_c, 1, 73, 0
7, 12000, Note_on_c, 1, 66, 76
7, 12464, Note_on_c, 1, 66, 0
7, 12480, Note_on_c, 1, 76, 76
7, 12719, Note_on_c, 1, 76, 0
7, 12720, Note_on_c, 1, 74, 76
7, 12899, Note_on_c, 1, 74, 0
7, 12960, Note_on_c, 1, 66, 76
7, 13424, Note_on_c, 1, 66, 0
7, 13440, Note_on_c, 1, 78, 76
7, 13544, Note_on_c, 1, 78, 0
7, 13560, Note_on_c, 1, 76, 76
7, 13664, Note_on_c, 1, 76, 0
7, 13680, Note_on_c, 1, 78, 76
7, 13784, Note_on_c, 1, 78, 0
7, 13800, Note_on_c, 1, 79, 76
7, 13904, Note_on_c, 1, 79, 0
7, 13920, Note_on_c, 1, 78, 76
7, 14144, Note_on_c, 1, 78, 0
7, 14160, Note_on_c, 1, 71, 76
7, 14384, Note_on_c, 1, 71, 0
7, 14400, Note_on_c, 1, 73, 76
7, 14624, Note_on_c, 1, 73, 0
7, 14640, Note_on_c, 1, 70, 76
7, 14864, Note_on_c, 1, 70, 0
7, 14880, Note_on_c, 1, 71, 76
7, 15344, Note_on_c, 1, 71, 0
7, 15360, Note_on_c, 1, 78, 76
7, 15464, Note_on_c, 1, 78, 0
7, 15480, Note_on_c, 1, 79, 76
7, 15584, Note_on_c, 1, 79, 0
7, 15600, Note_on_c, 1, 78, 76
7, 15704, Note_on_c, 1, 78, 0
7, 15720, Note_on_c, 1, 76, 76
7, 15824, Note_on_c, 1, 76, 0
7, 15840, Note_on_c, 1, 78, 76
7, 16064, Note_on_c, 1, 78, 0
7, 16080, Note_on_c, 1, 79, 76
7, 16304, Note_on_c, 1, 79, 0
7, 16320, Note_on_c, 1, 81, 76
7, 16544, Note_on_c, 1, 81, 0
7, 16560, Note_on_c, 1, 79, 76
7, 16784, Note_on_c, 1, 79, 0
7, 16800, Note_on_c, 1, 78, 76
7, 17024, Note_on_c, 1, 78, 0
7, 17040, Note_on_c, 1, 83, 76
7, 17264, Note_on_c, 1, 83, 0
7, 17280, Note_on_c, 1, 78, 76
7, 17384, Note_on_c, 1, 78, 0
7, 17400, Note_on_c, 1, 79, 76
7, 17504, Note_on_c, 1, 79, 0
7, 17520, Note_on_c, 1, 78, 76
7, 17624, Note_on_c, 1, 78, 0
7, 17640, Note_on_c, 1, 76, 76
7, 17744, Note_on_c, 1, 76, 0
7, 17760, Note_on_c, 1, 78, 76
7, 17984, Note_on_c, 1, 78, 0
7, 18000, Note_on_c, 1, 79, 76
7, 18224, Note_on_c, 1, 79, 0
7, 18240, Note_on_c, 1, 81, 76
7, 18464, Note_on_c, 1, 81, 0
7, 18480, Note_on_c, 1, 79, 76
7, 18704, Note_on_c, 1, 79, 0
7, 18720, Note_on_c, 1, 78, 76
7, 19184, Note_on_c, 1, 78, 0
7, 19200, Note_on_c, 1, 83, 76
7, 19439, Note_on_c, 1, 83, 0
7, 19440, Note_on_c, 1, 81, 76
7, 19619, Note_on_c, 1, 81, 0
7, 19680, Note_on_c, 1, 72, 76
7, 20144, Note_on_c, 1, 72, 0
7, 20160, Note_on_c, 1, 81, 76
7, 20399, Note_on_c, 1, 81, 0
7, 20400, Note_on_c, 1, 79, 76
7, 20579, Note_on_c, 1, 79, 0
7, 20640, Note_on_c, 1, 71, 76
7, 21104, Note_on_c, 1, 71, 0
7, 21120, Note_on_c, 1, 79, 76
7, 21224, Note_on_c, 1, 79, 0
7, 21240, Note_on_c, 1, 78, 76
7, 21344, Note_on_c, 1, 78, 0
7, 21360, Note_on_c, 1, 79, 76
7, 21464, Note_on_c, 1, 79, 0
7, 21480, Note_on_c, 1, 81, 76
7, 21584, Note_on_c, 1, 81, 0
7, 21600, Note_on_c, 1, 79, 76
7, 21704, Note_on_c, 1, 79, 0
7, 21720, Note_on_c, 1, 78, 76
7, 21824, Note_on_c, 1, 78, 0
7, 21840, Note_on_c, 1, 76, 76
7, 21944, Note_on_c, 1, 76, 0
7, 21960, Note_on_c, 1, 79, 76
7, 22064, Note_on_c, 1, 79, 0
7, 22080, Note_on_c, 1, 78, 76
7, 22184, Note_on_c, 1, 78, 0
7, 22200, Note_on_c, 1, 76, 76
7, 22304, Note_on_c, 1, 76, 0
7, 22320, Note_on_c, 1, 75, 76
7, 22424, Note_on_c, 1, 75, 0
7, 22440, Note_on_c, 1, 78, 76
7, 22544, Note_on_c, 1, 78, 0
7, 22560, Note_on_c, 1, 76, 76
7, 23024, Note_on_c, 1, 76, 0
7, 23040, Note_on_c, 1, 79, 76
7, 23984, Note_on_c, 1, 79, 0
7, 24000, Note_on_c, 1, 78, 76
7, 24944, Note_on_c, 1, 78, 0
7, 24960, Note_on_c, 1, 76, 76
7, 25544, Note_on_c, 1, 76, 0
7, 25560, Note_on_c, 1, 74, 76
7, 25664, Note_on_c, 1, 74, 0
7, 25680, Note_on_c, 1, 76, 76
7, 25784, Note_on_c, 1, 76, 0
7, 25800, Note_on_c, 1, 78, 76
7, 25904, Note_on_c, 1, 78, 0
7, 25920, Note_on_c, 1, 76, 76
7, 26024, Note_on_c, 1, 76, 0
7, 26040, Note_on_c, 1, 74, 76
7, 26144, Note_on_c, 1, 74, 0
7, 26160, Note_on_c, 1, 73, 76
7, 26264, Note_on_c, 1, 73, 0
7, 26280, Note_on_c, 1, 71, 76
7, 26384, Note_on_c, 1, 71, 0
7, 26400, Note_on_c, 1, 73, 76
7, 26624, Note_on_c, 1, 73, 0
7, 26640, Note_on_c, 1, 66, 76
7, 26864, Note_on_c, 1, 66, 0
7, 26880, Note_on_c, 1, 74, 76
7, 27119, Note_on_c, 1, 74, 0
7, 27120, Note_on_c, 1, 73, 76
7, 27299, Note_on_c, 1, 73, 0
7, 27360, Note_on_c, 1, 66, 76
7, 27824, Note_on_c, 1, 66, 0
7, 27840, Note_on_c, 1, 76, 76
7, 28079, Note_on_c, 1, 76, 0
7, 28080, Note_on_c, 1, 74, 76
7, 28259, Note_on_c, 1, 74, 0
7, 28320, Note_on_c, 1, 66, 76
7, 28784, Note_on_c, 1, 66, 0
7, 28800, Note_on_c, 1, 78, 76
7, 28904, Note_on_c, 1, 78, 0
7, 28920, Note_on_c, 1, 76, 76
7, 29024, Note_on_c, 1, 76, 0
7, 29040, Note_on_c, 1, 78, 76
7, 29144, Note_on_c, 1, 78, 0
7, 29160, Note_on_c, 1, 79, 76
7, 29264, Note_on_c, 1, 79, 0
7, 29280, Note_on_c, 1, 78, 76
7, 29384, Note_on_c, 1, 78, 0
7, 29400, Note_on_c, 1, 76, 76
7, 29504, Note_on_c, 1, 76, 0
7, 29520, Note_on_c, 1, 74, 76
7, 29624, Note_on_c, 1, 74, 0
7, 29640, Note_on_c, 1, 78, 76
7, 29744, Note_on_c, 1, 78, 0
7, 29760, Note_on_c, 1, 76, 76
7, 29864, Note_on_c, 1, 76, 0
7, 29880, Note_on_c, 1, 74, 76
7, 29984, Note_on_c, 1, 74, 0
7, 30000, Note_on_c, 1, 76, 76
7, 30104, Note_on_c, 1, 76, 0
7, 30120, Note_on_c, 1, 78, 76
7, 30224, Note_on_c, 1, 78, 0
7, 30240, Note_on_c, 1, 76, 76
7, 30344, Note_on_c, 1, 76, 0
7, 30360, Note_on_c, 1, 74, 76
7, 30464, Note_on_c, 1, 74, 0
7, 30480, Note_on_c, 1, 73, 76
7, 30584, Note_on_c, 1, 73, 0
7, 30600, Note_on_c, 1, 76, 76
7, 30704, Note_on_c, 1, 76, 0
7, 30720, Note_on_c, 1, 74, 76
7, 30959, Note_on_c, 1, 74, 0
7, 30960, Note_on_c, 1, 73, 76
7, 31139, Note_on_c, 1, 73, 0
7, 31200, Note_on_c, 1, 66, 76
7, 31664, Note_on_c, 1, 66, 0
7, 31680, Note_on_c, 1, 76, 76
7, 31919, Note_on_c, 1, 76, 0
7, 31920, Note_on_c, 1, 74, 76
7, 32099, Note_on_c, 1, 74, 0
7, 32160, Note_on_c, 1, 66, 76
7, 32624, Note_on_c, 1, 66, 0
7, 32640, Note_on_c, 1, 78, 76
7, 32744, Note_on_c, 1, 78, 0
7, 32760, Note_on_c, 1, 76, 76
7, 32864, Note_on_c, 1, 76, 0
7, 32880, Note_on_c, 1, 78, 76
7, 32984, Note_on_c, 1, 78, 0
7, 33000, Note_on_c, 1, 79, 76
7, 33104, Note_on_c, 1, 79, 0
7, 33120, Note_on_c, 1, 78, 76
7, 33344, Note_on_c, 1, 78, 0
7, 33360, Note_on_c, 1, 71, 76
7, 33584, Note_on_c, 1, 71, 0
7, 33600, Note_on_c, 1, 73, 76
7, 33824, Note_on_c, 1, 73, 0
7, 33840, Note_on_c, 1, 70, 76
7, 34064, Note_on_c, 1, 70, 0
7, 34080, Note_on_c, 1, 71, 76
7, 34544, Note_on_c, 1, 71, 0
7, 34560, Note_on_c, 1, 74, 52
7, 34664, Note_on_c, 1, 74, 0
7, 34680, Note_on_c, 1, 73, 52
7, 34784, Note_on_c, 1, 73, 0
7, 34800, Note_on_c, 1, 74, 52
7, 34904, Note_on_c, 1, 74, 0
7, 34920, Note_on_c, 1, 76, 52
7, 35024, Note_on_c, 1, 76, 0
7, 35040, Note_on_c, 1, 74, 52
7, 35144, Note_on_c, 1, 74, 0
7, 35160, Note_on_c, 1, 76, 52
7, 35264, Note_on_c, 1, 76, 0
7, 35280, Note_on_c, 1, 74, 52
7, 35384, Note_on_c, 1, 74, 0
7, 35400, Note_on_c, 1, 73, 52
7, 35504, Note_on_c, 1, 73, 0
7, 35520, Note_on_c, 1, 71, 52
7, 35624, Note_on_c, 1, 71, 0
7, 35640, Note_on_c, 1, 73, 52
7, 35744, Note_on_c, 1, 73, 0
7, 35760, Note_on_c, 1, 74, 52
7, 35864, Note_on_c, 1, 74, 0
7, 35880, Note_on_c, 1, 71, 52
7, 35984, Note_on_c, 1, 71, 0
7, 36000, Note_on_c, 1, 73, 52
7, 36104, Note_on_c, 1, 73, 0
7, 36120, Note_on_c, 1, 71, 52
7, 36224, Note_on_c, 1, 71, 0
7, 36240, Note_on_c, 1, 69, 52
7, 36344, Note_on_c, 1, 69, 0
7, 36360, Note_on_c, 1, 71, 52
7, 36464, Note_on_c, 1, 71, 0
7, 36480, Note_on_c, 1, 73, 52
7, 36584, Note_on_c, 1, 73, 0
7, 36600, Note_on_c, 1, 74, 52
7, 36704, Note_on_c, 1, 74, 0
7, 36720, Note_on_c, 1, 76, 52
7, 36824, Note_on_c, 1, 76, 0
7, 36840, Note_on_c, 1, 78, 52
7, 36944, Note_on_c, 1, 78, 0
7, 36960, Note_on_c, 1, 79, 52
7, 37064, Note_on_c, 1, 79, 0
7, 37080, Note_on_c, 1, 81, 52
7, 37184, Note_on_c, 1, 81, 0
7, 37200, Note_on_c, 1, 79, 52
7, 37304, Note_on_c, 1, 79, 0
7, 37320, Note_on_c, 1, 78, 52
7, 37424, Note_on_c, 1, 78, 0
7, 37440, Note_on_c, 1, 79, 52
7, 37544, Note_on_c, 1, 79, 0
7, 37560, Note_on_c, 1, 78, 52
7, 37664, Note_on_c, 1, 78, 0
7, 37680, Note_on_c, 1, 76, 52
7, 37784, Note_on_c, 1, 76, 0
7, 37800, Note_on_c, 1, 79, 52
7, 37904, Note_on_c, 1, 79, 0
7, 37920, Note_on_c, 1, 78, 52
7, 38144, Note_on_c, 1, 78, 0
7, 38160, Note_on_c, 1, 69, 52
7, 38384, Note_on_c, 1, 69, 0
7, 38400, Note_on_c, 1, 74, 52
7, 39344, Note_on_c, 1, 74, 0
7, 39360, Note_on_c, 1, 73, 52
7, 40304, Note_on_c, 1, 73, 0
7, 40320, Note_on_c, 1, 71, 52
7, 40904, Note_on_c, 1, 71, 0
7, 40920, Note_on_c, 1, 69, 52
7, 41024, Note_on_c, 1, 69, 0
7, 41040, Note_on_c, 1, 71, 52
7, 41144, Note_on_c, 1, 71, 0
7, 41160, Note_on_c, 1, 73, 52
7, 41264, Note_on_c, 1, 73, 0
7, 41280, Note_on_c, 1, 71, 52
7, 41384, Note_on_c, 1, 71, 0
7, 41400, Note_on_c, 1, 69, 52
7, 41504, Note_on_c, 1, 69, 0
7, 41520, Note_on_c, 1, 68, 52
7, 41624, Note_on_c, 1, 68, 0
7, 41640, Note_on_c, 1, 66, 52
7, 41744, Note_on_c, 1, 66, 0
7, 41760, Note_on_c, 1, 65, 52
7, 41984, Note_on_c, 1, 65, 0
7, 42000, Note_on_c, 1, 61, 52
7, 42224, Note_on_c, 1, 61, 0
7, 42240, Note_on_c, 1, 73, 76
7, 42479, Note_on_c, 1, 73, 0
7, 42480, Note_on_c, 1, 71, 76
7, 42659, Note_on_c, 1, 71, 0
7, 42720, Note_on_c, 1, 81, 76
7, 43184, Note_on_c, 1, 81, 0
7, 43200, Note_on_c, 1, 74, 76
7, 43439, Note_on_c, 1, 74, 0
7, 43440, Note_on_c, 1, 73, 76
7, 43619, Note_on_c, 1, 73, 0
7, 43680, Note_on_c, 1, 83, 76
7, 44144, Note_on_c, 1, 83, 0
7, 44160, Note_on_c, 1, 81, 76
7, 44264, Note_on_c, 1, 81, 0
7, 44280, Note_on_c, 1, 80, 76
7, 44384, Note_on_c, 1, 80, 0
7, 44400, Note_on_c, 1, 81, 76
7, 44504, Note_on_c, 1, 81, 0
7, 44520, Note_on_c, 1, 83, 76
7, 44624, Note_on_c, 1, 83, 0
7, 44640, Note_on_c, 1, 81, 76
7, 44744, Note_on_c, 1, 81, 0
7, 44760, Note_on_c, 1, 80, 76
7, 44864, Note_on_c, 1, 80, 0
7, 44880, Note_on_c, 1, 78, 76
7, 44984, Note_on_c, 1, 78, 0
7, 45000, Note_on_c, 1, 81, 76
7, 45104, Note_on_c, 1, 81, 0
7, 45120, Note_on_c, 1, 80, 76
7, 45224, Note_on_c, 1, 80, 0
7, 45240, Note_on_c, 1, 78, 76
7, 45344, Note_on_c, 1, 78, 0
7, 45360, Note_on_c, 1, 77, 76
7, 45464, Note_on_c, 1, 77, 0
7, 45480, Note_on_c, 1, 80, 76
7, 45584, Note_on_c, 1, 80, 0
7, 45600, Note_on_c, 1, 78, 76
7, 46064, Note_on_c, 1, 78, 0
7, 46080, Note_on_c, 1, 73, 76
7, 46184, Note_on_c, 1, 73, 0
7, 46200, Note_on_c, 1, 74, 76
7, 46304, Note_on_c, 1, 74, 0
7, 46320, Note_on_c, 1, 73, 76
7, 46424, Note_on_c, 1, 73, 0
7, 46440, Note_on_c, 1, 71, 76
7, 46544, Note_on_c, 1, 71, 0
7, 46560, Note_on_c, 1, 73, 76
7, 46739, Note_on_c, 1, 73, 0
7, 46800, Note_on_c, 1, 74, 76
7, 46979, Note_on_c, 1, 74, 0
7, 47040, Note_on_c, 1, 76, 76
7, 47219, Note_on_c, 1, 76, 0
7, 47280, Note_on_c, 1, 74, 76
7, 47459, Note_on_c, 1, 74, 0
7, 47520, Note_on_c, 1, 73, 76
7, 47699, Note_on_c, 1, 73, 0
7, 47760, Note_on_c, 1, 78, 76
7, 47939, Note_on_c, 1, 78, 0
7, 48000, Note_on_c, 1, 73, 76
7, 48104, Note_on_c, 1, 73, 0
7, 48120, Note_on_c, 1, 74, 76
7, 48224, Note_on_c, 1, 74, 0
7, 48240, Note_on_c, 1, 73, 76
7, 48344, Note_on_c, 1, 73, 0
7, 48360, Note_on_c, 1, 71, 76
7, 48464, Note_on_c, 1, 71, 0
7, 48480, Note_on_c, 1, 73, 76
7, 48659, Note_on_c, 1, 73, 0
7, 48720, Note_on_c, 1, 74, 76
7, 48899, Note_on_c, 1, 74, 0
7, 48960, Note_on_c, 1, 76, 76
7, 49139, Note_on_c, 1, 76, 0
7, 49200, Note_on_c, 1, 74, 76
7, 49379, Note_on_c, 1, 74, 0
7, 49440, Note_on_c, 1, 73, 76
7, 49904, Note_on_c, 1, 73, 0
7, 49920, Note_on_c, 1, 74, 76
7, 50159, Note_on_c, 1, 74, 0
7, 50160, Note_on_c, 1, 73, 76
7, 50339, Note_on_c, 1, 73, 0
7, 50400, Note_on_c, 1, 66, 76
7, 50864, Note_on_c, 1, 66, 0
7, 50880, Note_on_c, 1, 76, 76
7, 51119, Note_on_c, 1, 76, 0
7, 51120, Note_on_c, 1, 74, 76
7, 51299, Note_on_c, 1, 74, 0
7, 51360, Note_on_c, 1, 66, 76
7, 51824, Note_on_c, 1, 66, 0
7, 51840, Note_on_c, 1, 78, 76
7, 51944, Note_on_c, 1, 78, 0
7, 51960, Note_on_c, 1, 76, 76
7, 52064, Note_on_c, 1, 76, 0
7, 52080, Note_on_c, 1, 78, 76
7, 52184, Note_on_c, 1, 78, 0
7, 52200, Note_on_c, 1, 79, 76
7, 52304, Note_on_c, 1, 79, 0
7, 52320, Note_on_c, 1, 78, 76
7, 52424, Note_on_c, 1, 78, 0
7, 52440, Note_on_c, 1, 76, 76
7, 52544, Note_on_c, 1, 76, 0
7, 52560, Note_on_c, 1, 74, 76
7, 52664, Note_on_c, 1, 74, 0
7, 52680, Note_on_c, 1, 78, 76
7, 52784, Note_on_c, 1, 78, 0
7, 52800, Note_on_c, 1, 76, 76
7, 52904, Note_on_c, 1, 76, 0
7, 52920, Note_on_c, 1, 74, 76
7, 53024, Note_on_c, 1, 74, 0
7, 53040, Note_on_c, 1, 76, 76
7, 53144, Note_on_c, 1, 76, 0
7, 53160, Note_on_c, 1, 78, 76
7, 53264, Note_on_c, 1, 78, 0
7, 53280, Note_on_c, 1, 76, 76
7, 53384, Note_on_c, 1, 76, 0
7, 53400, Note_on_c, 1, 74, 76
7, 53504, Note_on_c, 1, 74, 0
7, 53520, Note_on_c, 1, 73, 76
7, 53624, Note_on_c, 1, 73, 0
7, 53640, Note_on_c, 1, 76, 76
7, 53744, Note_on_c, 1, 76, 0
7, 53760, Note_on_c, 1, 74, 76
7, 53999, Note_on_c, 1, 74, 0
7, 54000, Note_on_c, 1, 73, 76
7, 54179, Note_on_c, 1, 73, 0
7, 54240, Note_on_c, 1, 66, 76
7, 54704, Note_on_c, 1, 66, 0
7, 54720, Note_on_c, 1, 76, 76
7, 54959, Note_on_c, 1, 76, 0
7, 54960, Note_on_c, 1, 74, 76
7, 55139, Note_on_c, 1, 74, 0
7, 55200, Note_on_c, 1, 66, 76
7, 55664, Note_on_c, 1, 66, 0
7, 55680, Note_on_c, 1, 78, 76
7, 55784, Note_on_c, 1, 78, 0
7, 55800, Note_on_c, 1, 76, 76
7, 55904, Note_on_c, 1, 76, 0
7, 55920, Note_on_c, 1, 78, 76
7, 56024, Note_on_c, 1, 78, 0
7, 56040, Note_on_c, 1, 79, 76
7, 56144, Note_on_c, 1, 79, 0
7, 56160, Note_on_c, 1, 78, 76
7, 56384, Note_on_c, 1, 78, 0
7, 56400, Note_on_c, 1, 71, 76
7, 56624, Note_on_c, 1, 71, 0
7, 56640, Note_on_c, 1, 73, 76
7, 56864, Note_on_c, 1, 73, 0
7, 56880, Note_on_c, 1, 70, 76
7, 57104, Note_on_c, 1, 70, 0
7, 57120, Note_on_c, 1, 71, 76
7, 57599, Note_on_c, 1, 71, 0
7, 57599, End_track
8, 0, Start_track
8, 0, Title_t, "Violin II"
8, 0, MIDI_port, 0
8, 0, Program_c, 2, 48
8, 0, Control_c, 2, 10, 32
8, 0, Control_c, 2, 11, 127
8, 0, Control_c, 2, 7, 96
8, 0, Note_on_c, 2, 71, 76
8, 224, Note_on_c, 2, 71, 0
8, 240, Note_on_c, 2, 70, 76
8, 344, Note_on_c, 2, 70, 0
8, 360, Note_on_c, 2, 71, 76
8, 464, Note_on_c, 2, 71, 0
8, 480, Note_on_c, 2, 73, 76
8, 944, Note_on_c, 2, 73, 0
8, 960, Note_on_c, 2, 70, 76
8, 1184, Note_on_c, 2, 70, 0
8, 1200, Note_on_c, 2, 71, 76
8, 1304, Note_on_c, 2, 71, 0
8, 1320, Note_on_c, 2, 73, 76
8, 1424, Note_on_c, 2, 73, 0
8, 1440, Note_on_c, 2, 74, 76
8, 1904, Note_on_c, 2, 74, 0
8, 1920, Note_on_c, 2, 74, 76
8, 2024, Note_on_c, 2, 74, 0
8, 2040, Note_on_c, 2, 73, 76
8, 2144, Note_on_c, 2, 73, 0
8, 2160, Note_on_c, 2, 74, 76
8, 2264, Note_on_c, 2, 74, 0
8, 2280, Note_on_c, 2, 76, 76
8, 2384, Note_on_c, 2, 76, 0
8, 2400, Note_on_c, 2, 74, 76
8, 2504, Note_on_c, 2, 74, 0
8, 2520, Note_on_c, 2, 73, 76
8, 2624, Note_on_c, 2, 73, 0
8, 2640, Note_on_c, 2, 71, 76
8, 2744, Note_on_c, 2, 71, 0
8, 2760, Note_on_c, 2, 74, 76
8, 2864, Note_on_c, 2, 74, 0
8, 2880, Note_on_c, 2, 73, 76
8, 2984, Note_on_c, 2, 73, 0
8, 3000, Note_on_c, 2, 71, 76
8, 3104, Note_on_c, 2, 71, 0
8, 3120, Note_on_c, 2, 73, 76
8, 3224, Note_on_c, 2, 73, 0
8, 3240, Note_on_c, 2, 74, 76
8, 3344, Note_on_c, 2, 74, 0
8, 3360, Note_on_c, 2, 73, 76
8, 3464, Note_on_c, 2, 73, 0
8, 3480, Note_on_c, 2, 71, 76
8, 3584, Note_on_c, 2, 71, 0
8, 3600, Note_on_c, 2, 70, 76
8, 3704, Note_on_c, 2, 70, 0
8, 3720, Note_on_c, 2, 73, 76
8, 3824, Note_on_c, 2, 73, 0
8, 3840, Note_on_c, 2, 71, 76
8, 4064, Note_on_c, 2, 71, 0
8, 4080, Note_on_c, 2, 70, 76
8, 4184, Note_on_c, 2, 70, 0
8, 4200, Note_on_c, 2, 71, 76
8, 4304, Note_on_c, 2, 71, 0
8, 4320, Note_on_c, 2, 73, 76
8, 4784, Note_on_c, 2, 73, 0
8, 4800, Note_on_c, 2, 70, 76
8, 5024, Note_on_c, 2, 70, 0
8, 5040, Note_on_c, 2, 71, 76
8, 5144, Note_on_c, 2, 71, 0
8, 5160, Note_on_c, 2, 73, 76
8, 5264, Note_on_c, 2, 73, 0
8, 5280, Note_on_c, 2, 74, 76
8, 5744, Note_on_c, 2, 74, 0
8, 5760, Note_on_c, 2, 71, 76
8, 5939, Note_on_c, 2, 71, 0
8, 6000, Note_on_c, 2, 73, 76
8, 6179, Note_on_c, 2, 73, 0
8, 6240, Note_on_c, 2, 74, 76
8, 6419, Note_on_c, 2, 74, 0
8, 6480, Note_on_c, 2, 62, 76
8, 6659, Note_on_c, 2, 62, 0
8, 6720, Note_on_c, 2, 67, 76
8, 6899, Note_on_c, 2, 67, 0
8, 6960, Note_on_c, 2, 66, 76
8, 7139, Note_on_c, 2, 66, 0
8, 7200, Note_on_c, 2, 66, 76
8, 7664, Note_on_c, 2, 66, 0
8, 7680, Note_on_c, 2, 71, 76
8, 7904, Note_on_c, 2, 71, 0
8, 7920, Note_on_c, 2, 70, 76
8, 8024, Note_on_c, 2, 70, 0
8, 8040, Note_on_c, 2, 71, 76
8, 8144, Note_on_c, 2, 71, 0
8, 8160, Note_on_c, 2, 73, 76
8, 8624, Note_on_c, 2, 73, 0
8, 8640, Note_on_c, 2, 70, 76
8, 8864, Note_on_c, 2, 70, 0
8, 8880, Note_on_c, 2, 71, 76
8, 8984, Note_on_c, 2, 71, 0
8, 9000, Note_on_c, 2, 73, 76
8, 9104, Note_on_c, 2, 73, 0
8, 9120, Note_on_c, 2, 74, 76
8, 9584, Note_on_c, 2, 74, 0
8, 9600, Note_on_c, 2, 74, 76
8, 9704, Note_on_c, 2, 74, 0
8, 9720, Note_on_c, 2, 73, 76
8, 9824, Note_on_c, 2, 73, 0
8, 9840, Note_on_c, 2, 74, 76
8, 9944, Note_on_c, 2, 74, 0
8, 9960, Note_on_c, 2, 76, 76
8, 10064, Note_on_c, 2, 76, 0
8, 10080, Note_on_c, 2, 74, 76
8, 10184, Note_on_c, 2, 74, 0
8, 10200, Note_on_c, 2, 73, 76
8, 10304, Note_on_c, 2, 73, 0
8, 10320, Note_on_c, 2, 71, 76
8, 10424, Note_on_c, 2, 71, 0
8, 10440, Note_on_c, 2, 74, 76
8, 10544, Note_on_c, 2, 74, 0
8, 10560, Note_on_c, 2, 73, 76
8, 10664, Note_on_c, 2, 73, 0
8, 10680, Note_on_c, 2, 71, 76
8, 10784, Note_on_c, 2, 71, 0
8, 10800, Note_on_c, 2, 73, 76
8, 10904, Note_on_c, 2, 73, 0
8, 10920, Note_on_c, 2, 74, 76
8, 11024, Note_on_c, 2, 74, 0
8, 11040, Note_on_c, 2, 73, 76
8, 11144, Note_on_c, 2, 73, 0
8, 11160, Note_on_c, 2, 71, 76
8, 11264, Note_on_c, 2, 71, 0
8, 11280, Note_on_c, 2, 70, 76
8, 11384, Note_on_c, 2, 70, 0
8, 11400, Note_on_c, 2, 73, 76
8, 11504, Note_on_c, 2, 73, 0
8, 11520, Note_on_c, 2, 71, 76
8, 11744, Note_on_c, 2, 71, 0
8, 11760, Note_on_c, 2, 70, 76
8, 11864, Note_on_c, 2, 70, 0
8, 11880, Note_on_c, 2, 71, 76
8, 11984, Note_on_c, 2, 71, 0
8, 12000, Note_on_c, 2, 73, 76
8, 12464, Note_on_c, 2, 73, 0
8, 12480, Note_on_c, 2, 70, 76
8, 12704, Note_on_c, 2, 70, 0
8, 12720, Note_on_c, 2, 71, 76
8, 12824, Note_on_c, 2, 71, 0
8, 12840, Note_on_c, 2, 73, 76
8, 12944, Note_on_c, 2, 73, 0
8, 12960, Note_on_c, 2, 74, 76
8, 13424, Note_on_c, 2, 74, 0
8, 13440, Note_on_c, 2, 71, 76
8, 13619, Note_on_c, 2, 71, 0
8, 13680, Note_on_c, 2, 73, 76
8, 13859, Note_on_c, 2, 73, 0
8, 13920, Note_on_c, 2, 74, 76
8, 14099, Note_on_c, 2, 74, 0
8, 14160, Note_on_c, 2, 62, 76
8, 14339, Note_on_c, 2, 62, 0
8, 14400, Note_on_c, 2, 67, 76
8, 14579, Note_on_c, 2, 67, 0
8, 14640, Note_on_c, 2, 66, 76
8, 14819, Note_on_c, 2, 66, 0
8, 14880, Note_on_c, 2, 66, 76
8, 15344, Note_on_c, 2, 66, 0
8, 15360, Note_on_c, 2, 75, 76
8, 15464, Note_on_c, 2, 75, 0
8, 15480, Note_on_c, 2, 76, 76
8, 15584, Note_on_c, 2, 76, 0
8, 15600, Note_on_c, 2, 75, 76
8, 15704, Note_on_c, 2, 75, 0
8, 15720, Note_on_c, 2, 73, 76
8, 15824, Note_on_c, 2, 73, 0
8, 15840, Note_on_c, 2, 75, 76
8, 16019, Note_on_c, 2, 75, 0
8, 16080, Note_on_c, 2, 76, 76
8, 16259, Note_on_c, 2, 76, 0
8, 16320, Note_on_c, 2, 78, 76
8, 16499, Note_on_c, 2, 78, 0
8, 16560, Note_on_c, 2, 76, 76
8, 16739, Note_on_c, 2, 76, 0
8, 16800, Note_on_c, 2, 75, 76
8, 16979, Note_on_c, 2, 75, 0
8, 17040, Note_on_c, 2, 76, 76
8, 17219, Note_on_c, 2, 76, 0
8, 17280, Note_on_c, 2, 75, 76
8, 17384, Note_on_c, 2, 75, 0
8, 17400, Note_on_c, 2, 76, 76
8, 17504, Note_on_c, 2, 76, 0
8, 17520, Note_on_c, 2, 75, 76
8, 17624, Note_on_c, 2, 75, 0
8, 17640, Note_on_c, 2, 73, 76
8, 17744, Note_on_c, 2, 73, 0
8, 17760, Note_on_c, 2, 75, 76
8, 17939, Note_on_c, 2, 75, 0
8, 18000, Note_on_c, 2, 76, 76
8, 18179, Note_on_c, 2, 76, 0
8, 18240, Note_on_c, 2, 78, 76
8, 18419, Note_on_c, 2, 78, 0
8, 18480, Note_on_c, 2, 76, 76
8, 18659, Note_on_c, 2, 76, 0
8, 18720, Note_on_c, 2, 75, 76
8, 19184, Note_on_c, 2, 75, 0
8, 19200, Note_on_c, 2, 79, 76
8, 19424, Note_on_c, 2, 79, 0
8, 19440, Note_on_c, 2, 78, 76
8, 19544, Note_on_c, 2, 78, 0
8, 19560, Note_on_c, 2, 79, 76
8, 19664, Note_on_c, 2, 79, 0
8, 19680, Note_on_c, 2, 81, 76
8, 20144, Note_on_c, 2, 81, 0
8, 20160, Note_on_c, 2, 72, 76
8, 20384, Note_on_c, 2, 72, 0
8, 20400, Note_on_c, 2, 71, 76
8, 20504, Note_on_c, 2, 71, 0
8, 20520, Note_on_c, 2, 69, 76
8, 20624, Note_on_c, 2, 69, 0
8, 20640, Note_on_c, 2, 67, 76
8, 21104, Note_on_c, 2, 67, 0
8, 21120, Note_on_c, 2, 71, 76
8, 21224, Note_on_c, 2, 71, 0
8, 21240, Note_on_c, 2, 69, 76
8, 21344, Note_on_c, 2, 69, 0
8, 21360, Note_on_c, 2, 71, 76
8, 21464, Note_on_c, 2, 71, 0
8, 21480, Note_on_c, 2, 72, 76
8, 21584, Note_on_c, 2, 72, 0
8, 21600, Note_on_c, 2, 71, 76
8, 21704, Note_on_c, 2, 71, 0
8, 21720, Note_on_c, 2, 69, 76
8, 21824, Note_on_c, 2, 69, 0
8, 21840, Note_on_c, 2, 67, 76
8, 21944, Note_on_c, 2, 67, 0
8, 21960, Note_on_c, 2, 71, 76
8, 22064, Note_on_c, 2, 71, 0
8, 22080, Note_on_c, 2, 69, 76
8, 22184, Note_on_c, 2, 69, 0
8, 22200, Note_on_c, 2, 67, 76
8, 22304, Note_on_c, 2, 67, 0
8, 22320, Note_on_c, 2, 66, 76
8, 22424, Note_on_c, 2, 66, 0
8, 22440, Note_on_c, 2, 69, 76
8, 22544, Note_on_c, 2, 69, 0
8, 22560, Note_on_c, 2, 67, 76
8, 23024, Note_on_c, 2, 67, 0
8, 23040, Note_on_c, 2, 71, 76
8, 23279, Note_on_c, 2, 71, 0
8, 23280, Note_on_c, 2, 69, 76
8, 23459, Note_on_c, 2, 69, 0
8, 23520, Note_on_c, 2, 61, 76
8, 23984, Note_on_c, 2, 61, 0
8, 24000, Note_on_c, 2, 69, 76
8, 24239, Note_on_c, 2, 69, 0
8, 24240, Note_on_c, 2, 67, 76
8, 24419, Note_on_c, 2, 67, 0
8, 24480, Note_on_c, 2, 59, 76
8, 24944, Note_on_c, 2, 59, 0
8, 24960, Note_on_c, 2, 64, 76
8, 25064, Note_on_c, 2, 64, 0
8, 25080, Note_on_c, 2, 66, 76
8, 25184, Note_on_c, 2, 66, 0
8, 25200, Note_on_c, 2, 67, 76
8, 25304, Note_on_c, 2, 67, 0
8, 25320, Note_on_c, 2, 64, 76
8, 25424, Note_on_c, 2, 64, 0
8, 25440, Note_on_c, 2, 70, 76
8, 25664, Note_on_c, 2, 70, 0
8, 25680, Note_on_c, 2, 73, 76
8, 25904, Note_on_c, 2, 73, 0
8, 25920, Note_on_c, 2, 66, 76
8, 26144, Note_on_c, 2, 66, 0
8, 26160, Note_on_c, 2, 68, 76
8, 26384, Note_on_c, 2, 68, 0
8, 26400, Note_on_c, 2, 70, 76
8, 26504, Note_on_c, 2, 70, 0
8, 26520, Note_on_c, 2, 71, 76
8, 26624, Note_on_c, 2, 71, 0
8, 26640, Note_on_c, 2, 73, 76
8, 26744, Note_on_c, 2, 73, 0
8, 26760, Note_on_c, 2, 70, 76
8, 26864, Note_on_c, 2, 70, 0
8, 26880, Note_on_c, 2, 71, 76
8, 27104, Note_on_c, 2, 71, 0
8, 27120, Note_on_c, 2, 70, 76
8, 27224, Note_on_c, 2, 70, 0
8, 27240, Note_on_c, 2, 71, 76
8, 27344, Note_on_c, 2, 71, 0
8, 27360, Note_on_c, 2, 73, 76
8, 27824, Note_on_c, 2, 73, 0
8, 27840, Note_on_c, 2, 70, 76
8, 28064, Note_on_c, 2, 70, 0
8, 28080, Note_on_c, 2, 71, 76
8, 28184, Note_on_c, 2, 71, 0
8, 28200, Note_on_c, 2, 73, 76
8, 28304, Note_on_c, 2, 73, 0
8, 28320, Note_on_c, 2, 74, 76
8, 28784, Note_on_c, 2, 74, 0
8, 28800, Note_on_c, 2, 74, 76
8, 28904, Note_on_c, 2, 74, 0
8, 28920, Note_on_c, 2, 73, 76
8, 29024, Note_on_c, 2, 73, 0
8, 29040, Note_on_c, 2, 74, 76
8, 29144, Note_on_c, 2, 74, 0
8, 29160, Note_on_c, 2, 76, 76
8, 29264, Note_on_c, 2, 76, 0
8, 29280, Note_on_c, 2, 74, 76
8, 29384, Note_on_c, 2, 74, 0
8, 29400, Note_on_c, 2, 73, 76
8, 29504, Note_on_c, 2, 73, 0
8, 29520, Note_on_c, 2, 71, 76
8, 29624, Note_on_c, 2, 71, 0
8, 29640, Note_on_c, 2, 74, 76
8, 29744, Note_on_c, 2, 74, 0
8, 29760, Note_on_c, 2, 73, 76
8, 29864, Note_on_c, 2, 73, 0
8, 29880, Note_on_c, 2, 71, 76
8, 29984, Note_on_c, 2, 71, 0
8, 30000, Note_on_c, 2, 73, 76
8, 30104, Note_on_c, 2, 73, 0
8, 30120, Note_on_c, 2, 74, 76
8, 30224, Note_on_c, 2, 74, 0
8, 30240, Note_on_c, 2, 73, 76
8, 30344, Note_on_c, 2, 73, 0
8, 30360, Note_on_c, 2, 71, 76
8, 30464, Note_on_c, 2, 71, 0
8, 30480, Note_on_c, 2, 70, 76
8, 30584, Note_on_c, 2, 70, 0
8, 30600, Note_on_c, 2, 73, 76
8, 30704, Note_on_c, 2, 73, 0
8, 30720, Note_on_c, 2, 71, 76
8, 30944, Note_on_c, 2, 71, 0
8, 30960, Note_on_c, 2, 70, 76
8, 31064, Note_on_c, 2, 70, 0
8, 31080, Note_on_c, 2, 71, 76
8, 31184, Note_on_c, 2, 71, 0
8, 31200, Note_on_c, 2, 73, 76
8, 31664, Note_on_c, 2, 73, 0
8, 31680, Note_on_c, 2, 70, 76
8, 31904, Note_on_c, 2, 70, 0
8, 31920, Note_on_c, 2, 71, 76
8, 32024, Note_on_c, 2, 71, 0
8, 32040, Note_on_c, 2, 73, 76
8, 32144, Note_on_c, 2, 73, 0
8, 32160, Note_on_c, 2, 74, 76
8, 32624, Note_on_c, 2, 74, 0
8, 32640, Note_on_c, 2, 71, 76
8, 32864, Note_on_c, 2, 71, 0
8, 32880, Note_on_c, 2, 73, 76
8, 33104, Note_on_c, 2, 73, 0
8, 33120, Note_on_c, 2, 74, 76
8, 33344, Note_on_c, 2, 74, 0
8, 33360, Note_on_c, 2, 62, 76
8, 33584, Note_on_c, 2, 62, 0
8, 33600, Note_on_c, 2, 67, 76
8, 33824, Note_on_c, 2, 67, 0
8, 33840, Note_on_c, 2, 66, 76
8, 34064, Note_on_c, 2, 66, 0
8, 34080, Note_on_c, 2, 66, 76
8, 34544, Note_on_c, 2, 66, 0
8, 34560, Note_on_c, 2, 66, 52
8, 34784, Note_on_c, 2, 66, 0
8, 34800, Note_on_c, 2, 71, 52
8, 35024, Note_on_c, 2, 71, 0
8, 35040, Note_on_c, 2, 71, 52
8, 35264, Note_on_c, 2, 71, 0
8, 35280, Note_on_c, 2, 69, 52
8, 35504, Note_on_c, 2, 69, 0
8, 35520, Note_on_c, 2, 69, 52
8, 35744, Note_on_c, 2, 69, 0
8, 35760, Note_on_c, 2, 68, 52
8, 35984, Note_on_c, 2, 68, 0
8, 36000, Note_on_c, 2, 69, 52
8, 36224, Note_on_c, 2, 69, 0
8, 36240, Note_on_c, 2, 64, 52
8, 36464, Note_on_c, 2, 64, 0
8, 36480, Note_on_c, 2, 69, 52
8, 36584, Note_on_c, 2, 69, 0
8, 36600, Note_on_c, 2, 71, 52
8, 36704, Note_on_c, 2, 71, 0
8, 36720, Note_on_c, 2, 73, 52
8, 36824, Note_on_c, 2, 73, 0
8, 36840, Note_on_c, 2, 74, 52
8, 36944, Note_on_c, 2, 74, 0
8, 36960, Note_on_c, 2, 76, 52
8, 37064, Note_on_c, 2, 76, 0
8, 37080, Note_on_c, 2, 78, 52
8, 37184, Note_on_c, 2, 78, 0
8, 37200, Note_on_c, 2, 76, 52
8, 37304, Note_on_c, 2, 76, 0
8, 37320, Note_on_c, 2, 74, 52
8, 37424, Note_on_c, 2, 74, 0
8, 37440, Note_on_c, 2, 76, 52
8, 37544, Note_on_c, 2, 76, 0
8, 37560, Note_on_c, 2, 74, 52
8, 37664, Note_on_c, 2, 74, 0
8, 37680, Note_on_c, 2, 73, 52
8, 37784, Note_on_c, 2, 73, 0
8, 37800, Note_on_c, 2, 76, 52
8, 37904, Note_on_c, 2, 76, 0
8, 37920, Note_on_c, 2, 74, 52
8, 38384, Note_on_c, 2, 74, 0
8, 38400, Note_on_c, 2, 78, 52
8, 38639, Note_on_c, 2, 78, 0
8, 38640, Note_on_c, 2, 76, 52
8, 38819, Note_on_c, 2, 76, 0
8, 38880, Note_on_c, 2, 68, 52
8, 39344, Note_on_c, 2, 68, 0
8, 39360, Note_on_c, 2, 76, 52
8, 39599, Note_on_c, 2, 76, 0
8, 39600, Note_on_c, 2, 74, 52
8, 39779, Note_on_c, 2, 74, 0
8, 39840, Note_on_c, 2, 66, 52
8, 40304, Note_on_c, 2, 66, 0
8, 40320, Note_on_c, 2, 74, 52
8, 40559, Note_on_c, 2, 74, 0
8, 40560, Note_on_c, 2, 73, 52
8, 40739, Note_on_c, 2, 73, 0
8, 40800, Note_on_c, 2, 65, 52
8, 41264, Note_on_c, 2, 65, 0
8, 41280, Note_on_c, 2, 66, 52
8, 41504, Note_on_c, 2, 66, 0
8, 41520, Note_on_c, 2, 59, 52
8, 41744, Note_on_c, 2, 59, 0
8, 41760, Note_on_c, 2, 61, 52
8, 41864, Note_on_c, 2, 61, 0
8, 41880, Note_on_c, 2, 63, 52
8, 41984, Note_on_c, 2, 63, 0
8, 42000, Note_on_c, 2, 65, 52
8, 42104, Note_on_c, 2, 65, 0
8, 42120, Note_on_c, 2, 61, 52
8, 42224, Note_on_c, 2, 61, 0
8, 42240, Note_on_c, 2, 66, 76
8, 42464, Note_on_c, 2, 66, 0
8, 42480, Note_on_c, 2, 77, 76
8, 42704, Note_on_c, 2, 77, 0
8, 42720, Note_on_c, 2, 78, 76
8, 43184, Note_on_c, 2, 78, 0
8, 43200, Note_on_c, 2, 77, 76
8, 43424, Note_on_c, 2, 77, 0
8, 43440, Note_on_c, 2, 78, 76
8, 43664, Note_on_c, 2, 78, 0
8, 43680, Note_on_c, 2, 73, 76
8, 44144, Note_on_c, 2, 73, 0
8, 44160, Note_on_c, 2, 73, 76
8, 44264, Note_on_c, 2, 73, 0
8, 44280, Note_on_c, 2, 71, 76
8, 44384, Note_on_c, 2, 71, 0
8, 44400, Note_on_c, 2, 73, 76
8, 44504, Note_on_c, 2, 73, 0
8, 44520, Note_on_c, 2, 74, 76
8, 44624, Note_on_c, 2, 74, 0
8, 44640, Note_on_c, 2, 73, 76
8, 44744, Note_on_c, 2, 73, 0
8, 44760, Note_on_c, 2, 71, 76
8, 44864, Note_on_c, 2, 71, 0
8, 44880, Note_on_c, 2, 69, 76
8, 44984, Note_on_c, 2, 69, 0
8, 45000, Note_on_c, 2, 73, 76
8, 45104, Note_on_c, 2, 73, 0
8, 45120, Note_on_c, 2, 71, 76
8, 45224, Note_on_c, 2, 71, 0
8, 45240, Note_on_c, 2, 69, 76
8, 45344, Note_on_c, 2, 69, 0
8, 45360, Note_on_c, 2, 68, 76
8, 45464, Note_on_c, 2, 68, 0
8, 45480, Note_on_c, 2, 71, 76
8, 45584, Note_on_c, 2, 71, 0
8, 45600, Note_on_c, 2, 70, 76
8, 46064, Note_on_c, 2, 70, 0
8, 46080, Note_on_c, 2, 70, 76
8, 46184, Note_on_c, 2, 70, 0
8, 46200, Note_on_c, 2, 71, 76
8, 46304, Note_on_c, 2, 71, 0
8, 46320, Note_on_c, 2, 70, 76
8, 46424, Note_on_c, 2, 70, 0
8, 46440, Note_on_c, 2, 68, 76
8, 46544, Note_on_c, 2, 68, 0
8, 46560, Note_on_c, 2, 70, 76
8, 46739, Note_on_c, 2, 70, 0
8, 46800, Note_on_c, 2, 71, 76
8, 46979, Note_on_c, 2, 71, 0
8, 47040, Note_on_c, 2, 73, 76
8, 47219, Note_on_c, 2, 73, 0
8, 47280, Note_on_c, 2, 71, 76
8, 47459, Note_on_c, 2, 71, 0
8, 47520, Note_on_c, 2, 70, 76
8, 47699, Note_on_c, 2, 70, 0
8, 47760, Note_on_c, 2, 71, 76
8, 47939, Note_on_c, 2, 71, 0
8, 48000, Note_on_c, 2, 70, 76
8, 48104, Note_on_c, 2, 70, 0
8, 48120, Note_on_c, 2, 71, 76
8, 48224, Note_on_c, 2, 71, 0
8, 48240, Note_on_c, 2, 70, 76
8, 48344, Note_on_c, 2, 70, 0
8, 48360, Note_on_c, 2, 68, 76
8, 48464, Note_on_c, 2, 68, 0
8, 48480, Note_on_c, 2, 70, 76
8, 48659, Note_on_c, 2, 70, 0
8, 48720, Note_on_c, 2, 71, 76
8, 48899, Note_on_c, 2, 71, 0
8, 48960, Note_on_c, 2, 73, 76
8, 49139, Note_on_c, 2, 73, 0
8, 49200, Note_on_c, 2, 71, 76
8, 49379, Note_on_c, 2, 71, 0
8, 49440, Note_on_c, 2, 70, 76
8, 49904, Note_on_c, 2, 70, 0
8, 49920, Note_on_c, 2, 71, 76
8, 50144, Note_on_c, 2, 71, 0
8, 50160, Note_on_c, 2, 70, 76
8, 50264, Note_on_c, 2, 70, 0
8, 50280, Note_on_c, 2, 71, 76
8, 50384, Note_on_c, 2, 71, 0
8, 50400, Note_on_c, 2, 73, 76
8, 50864, Note_on_c, 2, 73, 0
8, 50880, Note_on_c, 2, 70, 76
8, 51104, Note_on_c, 2, 70, 0
8, 51120, Note_on_c, 2, 71, 76
8, 51224, Note_on_c, 2, 71, 0
8, 51240, Note_on_c, 2, 73, 76
8, 51344, Note_on_c, 2, 73, 0
8, 51360, Note_on_c, 2, 74, 76
8, 51824, Note_on_c, 2, 74, 0
8, 51840, Note_on_c, 2, 74, 76
8, 51944, Note_on_c, 2, 74, 0
8, 51960, Note_on_c, 2, 73, 76
8, 52064, Note_on_c, 2, 73, 0
8, 52080, Note_on_c, 2, 74, 76
8, 52184, Note_on_c, 2, 74, 0
8, 52200, Note_on_c, 2, 76, 76
8, 52304, Note_on_c, 2, 76, 0
8, 52320, Note_on_c, 2, 74, 76
8, 52424, Note_on_c, 2, 74, 0
8, 52440, Note_on_c, 2, 73, 76
8, 52544, Note_on_c, 2, 73, 0
8, 52560, Note_on_c, 2, 71, 76
8, 52664, Note_on_c, 2, 71, 0
8, 52680, Note_on_c, 2, 74, 76
8, 52784, Note_on_c, 2, 74, 0
8, 52800, Note_on_c, 2, 73, 76
8, 52904, Note_on_c, 2, 73, 0
8, 52920, Note_on_c, 2, 71, 76
8, 53024, Note_on_c, 2, 71, 0
8, 53040, Note_on_c, 2, 73, 76
8, 53144, Note_on_c, 2, 73, 0
8, 53160, Note_on_c, 2, 74, 76
8, 53264, Note_on_c, 2, 74, 0
8, 53280, Note_on_c, 2, 73, 76
8, 53384, Note_on_c, 2, 73, 0
8, 53400, Note_on_c, 2, 71, 76
8, 53504, Note_on_c, 2, 71, 0
8, 53520, Note_on_c, 2, 70, 76
8, 53624, Note_on_c, 2, 70, 0
8, 53640, Note_on_c, 2, 73, 76
8, 53744, Note_on_c, 2, 73, 0
8, 53760, Note_on_c, 2, 71, 76
8, 53984, Note_on_c, 2, 71, 0
8, 54000, Note_on_c, 2, 70, 76
8, 54104, Note_on_c, 2, 70, 0
8, 54120, Note_on_c, 2, 71, 76
8, 54224, Note_on_c, 2, 71, 0
8, 54240, Note_on_c, 2, 73, 76
8, 54704, Note_on_c, 2, 73, 0
8, 54720, Note_on_c, 2, 70, 76
8, 54944, Note_on_c, 2, 70, 0
8, 54960, Note_on_c, 2, 71, 76
8, 55064, Note_on_c, 2, 71, 0
8, 55080, Note_on_c, 2, 73, 76
8, 55184, Note_on_c, 2, 73, 0
8, 55200, Note_on_c, 2, 74, 76
8, 55664, Note_on_c, 2, 74, 0
8, 55680, Note_on_c, 2, 71, 76
8, 55859, Note_on_c, 2, 71, 0
8, 55920, Note_on_c, 2, 73, 76
8, 56099, Note_on_c, 2, 73, 0
8, 56160, Note_on_c, 2, 74, 76
8, 56339, Note_on_c, 2, 74, 0
8, 56400, Note_on_c, 2, 62, 76
8, 56579, Note_on_c, 2, 62, 0
8, 56640, Note_on_c, 2, 67, 76
8, 56819, Note_on_c, 2, 67, 0
8, 56880, Note_on_c, 2, 66, 76
8, 57059, Note_on_c, 2, 66, 0
8, 57120, Note_on_c, 2, 66, 76
8, 57599, Note_on_c, 2, 66, 0
8, 57599, End_track
9, 0, Start_track
9, 0, Title_t, "Viola"
9, 0, MIDI_port, 0
9, 0, Program_c, 3, 48
9, 0, Control_c, 3, 10, 70
9, 0, Control_c, 3, 11, 127
9, 0, Control_c, 3, 7, 96
9, 0, Note_on_c, 3, 66, 76
9, 224, Note_on_c, 3, 66, 0
9, 240, Note_on_c, 3, 64, 76
9, 344, Note_on_c, 3, 64, 0
9, 360, Note_on_c, 3, 62, 76
9, 464, Note_on_c, 3, 62, 0
9, 480, Note_on_c, 3, 61, 76
9, 944, Note_on_c, 3, 61, 0
9, 960, Note_on_c, 3, 61, 76
9, 1184, Note_on_c, 3, 61, 0
9, 1200, Note_on_c, 3, 62, 76
9, 1304, Note_on_c, 3, 62, 0
9, 1320, Note_on_c, 3, 64, 76
9, 1424, Note_on_c, 3, 64, 0
9, 1440, Note_on_c, 3, 66, 76
9, 1904, Note_on_c, 3, 66, 0
9, 1920, Note_on_c, 3, 71, 76
9, 2099, Note_on_c, 3, 71, 0
9, 2160, Note_on_c, 3, 66, 76
9, 2339, Note_on_c, 3, 66, 0
9, 2400, Note_on_c, 3, 59, 76
9, 2864, Note_on_c, 3, 59, 0
9, 2880, Note_on_c, 3, 70, 76
9, 3059, Note_on_c, 3, 70, 0
9, 3120, Note_on_c, 3, 66, 76
9, 3299, Note_on_c, 3, 66, 0
9, 3360, Note_on_c, 3, 58, 76
9, 3824, Note_on_c, 3, 58, 0
9, 3840, Note_on_c, 3, 66, 76
9, 4064, Note_on_c, 3, 66, 0
9, 4080, Note_on_c, 3, 64, 76
9, 4184, Note_on_c, 3, 64, 0
9, 4200, Note_on_c, 3, 62, 76
9, 4304, Note_on_c, 3, 62, 0
9, 4320, Note_on_c, 3, 61, 76
9, 4784, Note_on_c, 3, 61, 0
9, 4800, Note_on_c, 3, 61, 76
9, 5024, Note_on_c, 3, 61, 0
9, 5040, Note_on_c, 3, 62, 76
9, 5144, Note_on_c, 3, 62, 0
9, 5160, Note_on_c, 3, 64, 76
9, 5264, Note_on_c, 3, 64, 0
9, 5280, Note_on_c, 3, 66, 76
9, 5744, Note_on_c, 3, 66, 0
9, 5760, Note_on_c, 3, 66, 76
9, 5984, Note_on_c, 3, 66, 0
9, 6000, Note_on_c, 3, 64, 76
9, 6224, Note_on_c, 3, 64, 0
9, 6240, Note_on_c, 3, 62, 76
9, 6344, Note_on_c, 3, 62, 0
9, 6360, Note_on_c, 3, 61, 76
9, 6464, Note_on_c, 3, 61, 0
9, 6480, Note_on_c, 3, 62, 76
9, 6584, Note_on_c, 3, 62, 0
9, 6600, Note_on_c, 3, 59, 76
9, 6704, Note_on_c, 3, 59, 0
9, 6720, Note_on_c, 3, 64, 76
9, 6944, Note_on_c, 3, 64, 0
9, 6960, Note_on_c, 3, 61, 76
9, 7184, Note_on_c, 3, 61, 0
9, 7200, Note_on_c, 3, 62, 76
9, 7664, Note_on_c, 3, 62, 0
9, 7680, Note_on_c, 3, 66, 76
9, 7904, Note_on_c, 3, 66, 0
9, 7920, Note_on_c, 3, 64, 76
9, 8024, Note_on_c, 3, 64, 0
9, 8040, Note_on_c, 3, 62, 76
9, 8144, Note_on_c, 3, 62, 0
9, 8160, Note_on_c, 3, 61, 76
9, 8624, Note_on_c, 3, 61, 0
9, 8640, Note_on_c, 3, 61, 76
9, 8864, Note_on_c, 3, 61, 0
9, 8880, Note_on_c, 3, 62, 76
9, 8984, Note_on_c, 3, 62, 0
9, 9000, Note_on_c, 3, 64, 76
9, 9104, Note_on_c, 3, 64, 0
9, 9120, Note_on_c, 3, 66, 76
9, 9584, Note_on_c, 3, 66, 0
9, 9600, Note_on_c, 3, 71, 76
9, 9779, Note_on_c, 3, 71, 0
9, 9840, Note_on_c, 3, 66, 76
9, 10019, Note_on_c, 3, 66, 0
9, 10080, Note_on_c, 3, 59, 76
9, 10544, Note_on_c, 3, 59, 0
9, 10560, Note_on_c, 3, 70, 76
9, 10739, Note_on_c, 3, 70, 0
9, 10800, Note_on_c, 3, 66, 76
9, 10979, Note_on_c, 3, 66, 0
9, 11040, Note_on_c, 3, 58, 76
9, 11504, Note_on_c, 3, 58, 0
9, 11520, Note_on_c, 3, 66, 76
9, 11744, Note_on_c, 3, 66, 0
9, 11760, Note_on_c, 3, 64, 76
9, 11864, Note_on_c, 3, 64, 0
9, 11880, Note_on_c, 3, 62, 76
9, 11984, Note_on_c, 3, 62, 0
9, 12000, Note_on_c, 3, 61, 76
9, 12464, Note_on_c, 3, 61, 0
9, 12480, Note_on_c, 3, 61, 76
9, 12704, Note_on_c, 3, 61, 0
9, 12720, Note_on_c, 3, 62, 76
9, 12824, Note_on_c, 3, 62, 0
9, 12840, Note_on_c, 3, 64, 76
9, 12944, Note_on_c, 3, 64, 0
9, 12960, Note_on_c, 3, 66, 76
9, 13424, Note_on_c, 3, 66, 0
9, 13440, Note_on_c, 3, 66, 76
9, 13664, Note_on_c, 3, 66, 0
9, 13680, Note_on_c, 3, 64, 76
9, 13904, Note_on_c, 3, 64, 0
9, 13920, Note_on_c, 3, 62, 76
9, 14024, Note_on_c, 3, 62, 0
9, 14040, Note_on_c, 3, 61, 76
9, 14144, Note_on_c, 3, 61, 0
9, 14160, Note_on_c, 3, 62, 76
9, 14264, Note_on_c, 3, 62, 0
9, 14280, Note_on_c, 3, 59, 76
9, 14384, Note_on_c, 3, 59, 0
9, 14400, Note_on_c, 3, 64, 76
9, 14624, Note_on_c, 3, 64, 0
9, 14640, Note_on_c, 3, 61, 76
9, 14864, Note_on_c, 3, 61, 0
9, 14880, Note_on_c, 3, 62, 76
9, 15344, Note_on_c, 3, 62, 0
9, 15360, Note_on_c, 3, 71, 76
9, 15584, Note_on_c, 3, 71, 0
9, 15600, Note_on_c, 3, 71, 76
9, 15824, Note_on_c, 3, 71, 0
9, 15840, Note_on_c, 3, 71, 76
9, 16064, Note_on_c, 3, 71, 0
9, 16080, Note_on_c, 3, 71, 76
9, 16304, Note_on_c, 3, 71, 0
9, 16320, Note_on_c, 3, 71, 76
9, 16544, Note_on_c, 3, 71, 0
9, 16560, Note_on_c, 3, 71, 76
9, 16784, Note_on_c, 3, 71, 0
9, 16800, Note_on_c, 3, 71, 76
9, 16904, Note_on_c, 3, 71, 0
9, 16920, Note_on_c, 3, 69, 76
9, 17024, Note_on_c, 3, 69, 0
9, 17040, Note_on_c, 3, 67, 76
9, 17144, Note_on_c, 3, 67, 0
9, 17160, Note_on_c, 3, 69, 76
9, 17264, Note_on_c, 3, 69, 0
9, 17280, Note_on_c, 3, 71, 76
9, 17504, Note_on_c, 3, 71, 0
9, 17520, Note_on_c, 3, 71, 76
9, 17744, Note_on_c, 3, 71, 0
9, 17760, Note_on_c, 3, 71, 76
9, 17984, Note_on_c, 3, 71, 0
9, 18000, Note_on_c, 3, 71, 76
9, 18224, Note_on_c, 3, 71, 0
9, 18240, Note_on_c, 3, 71, 76
9, 18464, Note_on_c, 3, 71, 0
9, 18480, Note_on_c, 3, 71, 76
9, 18704, Note_on_c, 3, 71, 0
9, 18720, Note_on_c, 3, 71, 76
9, 18824, Note_on_c, 3, 71, 0
9, 18840, Note_on_c, 3, 69, 76
9, 18944, Note_on_c, 3, 69, 0
9, 18960, Note_on_c, 3, 67, 76
9, 19064, Note_on_c, 3, 67, 0
9, 19080, Note_on_c, 3, 66, 76
9, 19184, Note_on_c, 3, 66, 0
9, 19200, Note_on_c, 3, 64, 76
9, 19424, Note_on_c, 3, 64, 0
9, 19440, Note_on_c, 3, 63, 76
9, 19544, Note_on_c, 3, 63, 0
9, 19560, Note_on_c, 3, 64, 76
9, 19664, Note_on_c, 3, 64, 0
9, 19680, Note_on_c, 3, 66, 76
9, 20144, Note_on_c, 3, 66, 0
9, 20160, Note_on_c, 3, 63, 76
9, 20384, Note_on_c, 3, 63, 0
9, 20400, Note_on_c, 3, 64, 76
9, 20504, Note_on_c, 3, 64, 0
9, 20520, Note_on_c, 3, 66, 76
9, 20624, Note_on_c, 3, 66, 0
9, 20640, Note_on_c, 3, 67, 76
9, 21104, Note_on_c, 3, 67, 0
9, 21120, Note_on_c, 3, 64, 76
9, 21344, Note_on_c, 3, 64, 0
9, 21360, Note_on_c, 3, 63, 76
9, 21584, Note_on_c, 3, 63, 0
9, 21600, Note_on_c, 3, 64, 76
9, 21824, Note_on_c, 3, 64, 0
9, 21840, Note_on_c, 3, 67, 76
9, 22064, Note_on_c, 3, 67, 0
9, 22080, Note_on_c, 3, 72, 76
9, 22304, Note_on_c, 3, 72, 0
9, 22320, Note_on_c, 3, 71, 76
9, 22544, Note_on_c, 3, 71, 0
9, 22560, Note_on_c, 3, 71, 76
9, 22664, Note_on_c, 3, 71, 0
9, 22680, Note_on_c, 3, 69, 76
9, 22784, Note_on_c, 3, 69, 0
9, 22800, Note_on_c, 3, 67, 76
9, 22904, Note_on_c, 3, 67, 0
9, 22920, Note_on_c, 3, 66, 76
9, 23024, Note_on_c, 3, 66, 0
9, 23040, Note_on_c, 3, 64, 76
9, 23144, Note_on_c, 3, 64, 0
9, 23160, Note_on_c, 3, 62, 76
9, 23264, Note_on_c, 3, 62, 0
9, 23280, Note_on_c, 3, 64, 76
9, 23384, Note_on_c, 3, 64, 0
9, 23400, Note_on_c, 3, 66, 76
9, 23504, Note_on_c, 3, 66, 0
9, 23520, Note_on_c, 3, 64, 76
9, 23624, Note_on_c, 3, 64, 0
9, 23640, Note_on_c, 3, 62, 76
9, 23744, Note_on_c, 3, 62, 0
9, 23760, Note_on_c, 3, 61, 76
9, 23864, Note_on_c, 3, 61, 0
9, 23880, Note_on_c, 3, 64, 76
9, 23984, Note_on_c, 3, 64, 0
9, 24000, Note_on_c, 3, 62, 76
9, 24104, Note_on_c, 3, 62, 0
9, 24120, Note_on_c, 3, 61, 76
9, 24224, Note_on_c, 3, 61, 0
9, 24240, Note_on_c, 3, 62, 76
9, 24344, Note_on_c, 3, 62, 0
9, 24360, Note_on_c, 3, 64, 76
9, 24464, Note_on_c, 3, 64, 0
9, 24480, Note_on_c, 3, 62, 76
9, 24584, Note_on_c, 3, 62, 0
9, 24600, Note_on_c, 3, 61, 76
9, 24704, Note_on_c, 3, 61, 0
9, 24720, Note_on_c, 3, 59, 76
9, 24824, Note_on_c, 3, 59, 0
9, 24840, Note_on_c, 3, 58, 76
9, 24944, Note_on_c, 3, 58, 0
9, 24960, Note_on_c, 3, 59, 76
9, 25184, Note_on_c, 3, 59, 0
9, 25200, Note_on_c, 3, 64, 76
9, 25424, Note_on_c, 3, 64, 0
9, 25440, Note_on_c, 3, 67, 76
9, 25664, Note_on_c, 3, 67, 0
9, 25680, Note_on_c, 3, 66, 76
9, 25904, Note_on_c, 3, 66, 0
9, 25920, Note_on_c, 3, 71, 76
9, 26144, Note_on_c, 3, 71, 0
9, 26160, Note_on_c, 3, 62, 76
9, 26384, Note_on_c, 3, 62, 0
9, 26400, Note_on_c, 3, 61, 76
9, 26624, Note_on_c, 3, 61, 0
9, 26640, Note_on_c, 3, 66, 76
9, 26864, Note_on_c, 3, 66, 0
9, 26880, Note_on_c, 3, 66, 76
9, 27104, Note_on_c, 3, 66, 0
9, 27120, Note_on_c, 3, 64, 76
9, 27224, Note_on_c, 3, 64, 0
9, 27240, Note_on_c, 3, 62, 76
9, 27344, Note_on_c, 3, 62, 0
9, 27360, Note_on_c, 3, 61, 76
9, 27824, Note_on_c, 3, 61, 0
9, 27840, Note_on_c, 3, 61, 76
9, 28064, Note_on_c, 3, 61, 0
9, 28080, Note_on_c, 3, 62, 76
9, 28184, Note_on_c, 3, 62, 0
9, 28200, Note_on_c, 3, 64, 76
9, 28304, Note_on_c, 3, 64, 0
9, 28320, Note_on_c, 3, 66, 76
9, 28784, Note_on_c, 3, 66, 0
9, 28800, Note_on_c, 3, 71, 76
9, 28979, Note_on_c, 3, 71, 0
9, 29040, Note_on_c, 3, 66, 76
9, 29219, Note_on_c, 3, 66, 0
9, 29280, Note_on_c, 3, 59, 76
9, 29744, Note_on_c, 3, 59, 0
9, 29760, Note_on_c, 3, 70, 76
9, 29939, Note_on_c, 3, 70, 0
9, 30000, Note_on_c, 3, 66, 76
9, 30179, Note_on_c, 3, 66, 0
9, 30240, Note_on_c, 3, 58, 76
9, 30704, Note_on_c, 3, 58, 0
9, 30720, Note_on_c, 3, 66, 76
9, 30944, Note_on_c, 3, 66, 0
9, 30960, Note_on_c, 3, 64, 76
9, 31064, Note_on_c, 3, 64, 0
9, 31080, Note_on_c, 3, 62, 76
9, 31184, Note_on_c, 3, 62, 0
9, 31200, Note_on_c, 3, 61, 76
9, 31664, Note_on_c, 3, 61, 0
9, 31680, Note_on_c, 3, 61, 76
9, 31904, Note_on_c, 3, 61, 0
9, 31920, Note_on_c, 3, 62, 76
9, 32024, Note_on_c, 3, 62, 0
9, 32040, Note_on_c, 3, 64, 76
9, 32144, Note_on_c, 3, 64, 0
9, 32160, Note_on_c, 3, 66, 76
9, 32624, Note_on_c, 3, 66, 0
9, 32640, Note_on_c, 3, 66, 76
9, 32864, Note_on_c, 3, 66, 0
9, 32880, Note_on_c, 3, 64, 76
9, 33104, Note_on_c, 3, 64, 0
9, 33120, Note_on_c, 3, 62, 76
9, 33224, Note_on_c, 3, 62, 0
9, 33240, Note_on_c, 3, 61, 76
9, 33344, Note_on_c, 3, 61, 0
9, 33360, Note_on_c, 3, 62, 76
9, 33464, Note_on_c, 3, 62, 0
9, 33480, Note_on_c, 3, 59, 76
9, 33584, Note_on_c, 3, 59, 0
9, 33600, Note_on_c, 3, 64, 76
9, 33824, Note_on_c, 3, 64, 0
9, 33840, Note_on_c, 3, 61, 76
9, 34064, Note_on_c, 3, 61, 0
9, 34080, Note_on_c, 3, 62, 76
9, 34544, Note_on_c, 3, 62, 0
9, 34560, Note_on_c, 3, 59, 52
9, 34784, Note_on_c, 3, 59, 0
9, 34800, Note_on_c, 3, 66, 52
9, 35024, Note_on_c, 3, 66, 0
9, 35040, Note_on_c, 3, 64, 52
9, 35264, Note_on_c, 3, 64, 0
9, 35280, Note_on_c, 3, 64, 52
9, 35504, Note_on_c, 3, 64, 0
9, 35520, Note_on_c, 3, 66, 52
9, 35744, Note_on_c, 3, 66, 0
9, 35760, Note_on_c, 3, 64, 52
9, 35984, Note_on_c, 3, 64, 0
9, 36000, Note_on_c, 3, 64, 52
9, 36104, Note_on_c, 3, 64, 0
9, 36120, Note_on_c, 3, 62, 52
9, 36224, Note_on_c, 3, 62, 0
9, 36240, Note_on_c, 3, 61, 52
9, 36344, Note_on_c, 3, 61, 0
9, 36360, Note_on_c, 3, 62, 52
9, 36464, Note_on_c, 3, 62, 0
9, 36480, Note_on_c, 3, 64, 52
9, 36704, Note_on_c, 3, 64, 0
9, 36720, Note_on_c, 3, 69, 52
9, 36944, Note_on_c, 3, 69, 0
9, 36960, Note_on_c, 3, 61, 52
9, 37184, Note_on_c, 3, 61, 0
9, 37200, Note_on_c, 3, 57, 52
9, 37424, Note_on_c, 3, 57, 0
9, 37440, Note_on_c, 3, 61, 52
9, 37664, Note_on_c, 3, 61, 0
9, 37680, Note_on_c, 3, 69, 52
9, 37904, Note_on_c, 3, 69, 0
9, 37920, Note_on_c, 3, 69, 52
9, 38399, Note_on_c, 3, 69, 0
9, 42240, Note_on_c, 3, 66, 76
9, 42479, Note_on_c, 3, 66, 0
9, 42480, Note_on_c, 3, 68, 76
9, 42659, Note_on_c, 3, 68, 0
9, 42720, Note_on_c, 3, 61, 76
9, 43184, Note_on_c, 3, 61, 0
9, 43200, Note_on_c, 3, 71, 76
9, 43439, Note_on_c, 3, 71, 0
9, 43440, Note_on_c, 3, 69, 76
9, 43619, Note_on_c, 3, 69, 0
9, 43680, Note_on_c, 3, 68, 76
9, 44144, Note_on_c, 3, 68, 0
9, 44160, Note_on_c, 3, 66, 76
9, 44384, Note_on_c, 3, 66, 0
9, 44400, Note_on_c, 3, 65, 76
9, 44624, Note_on_c, 3, 65, 0
9, 44640, Note_on_c, 3, 66, 76
9, 44864, Note_on_c, 3, 66, 0
9, 44880, Note_on_c, 3, 69, 76
9, 45104, Note_on_c, 3, 69, 0
9, 45120, Note_on_c, 3, 74, 76
9, 45344, Note_on_c, 3, 74, 0
9, 45360, Note_on_c, 3, 73, 76
9, 45584, Note_on_c, 3, 73, 0
9, 45600, Note_on_c, 3, 73, 76
9, 45704, Note_on_c, 3, 73, 0
9, 45720, Note_on_c, 3, 71, 76
9, 45824, Note_on_c, 3, 71, 0
9, 45840, Note_on_c, 3, 70, 76
9, 45944, Note_on_c, 3, 70, 0
9, 45960, Note_on_c, 3, 68, 76
9, 46064, Note_on_c, 3, 68, 0
9, 46080, Note_on_c, 3, 66, 76
9, 46304, Note_on_c, 3, 66, 0
9, 46320, Note_on_c, 3, 66, 76
9, 46544, Note_on_c, 3, 66, 0
9, 46560, Note_on_c, 3, 66, 76
9, 46784, Note_on_c, 3, 66, 0
9, 46800, Note_on_c, 3, 66, 76
9, 47024, Note_on_c, 3, 66, 0
9, 47040, Note_on_c, 3, 66, 76
9, 47264, Note_on_c, 3, 66, 0
9, 47280, Note_on_c, 3, 66, 76
9, 47504, Note_on_c, 3, 66, 0
9, 47520, Note_on_c, 3, 66, 76
9, 47624, Note_on_c, 3, 66, 0
9, 47640, Note_on_c, 3, 64, 76
9, 47744, Note_on_c, 3, 64, 0
9, 47760, Note_on_c, 3, 62, 76
9, 47864, Note_on_c, 3, 62, 0
9, 47880, Note_on_c, 3, 64, 76
9, 47984, Note_on_c, 3, 64, 0
9, 48000, Note_on_c, 3, 66, 76
9, 48224, Note_on_c, 3, 66, 0
9, 48240, Note_on_c, 3, 66, 76
9, 48464, Note_on_c, 3, 66, 0
9, 48480, Note_on_c, 3, 66, 76
9, 48704, Note_on_c, 3, 66, 0
9, 48720, Note_on_c, 3, 66, 76
9, 48944, Note_on_c, 3, 66, 0
9, 48960, Note_on_c, 3, 66, 76
9, 49184, Note_on_c, 3, 66, 0
9, 49200, Note_on_c, 3, 66, 76
9, 49424, Note_on_c, 3, 66, 0
9, 49440, Note_on_c, 3, 66, 76
9, 49904, Note_on_c, 3, 66, 0
9, 49920, Note_on_c, 3, 66, 76
9, 50144, Note_on_c, 3, 66, 0
9, 50160, Note_on_c, 3, 64, 76
9, 50264, Note_on_c, 3, 64, 0
9, 50280, Note_on_c, 3, 62, 76
9, 50384, Note_on_c, 3, 62, 0
9, 50400, Note_on_c, 3, 61, 76
9, 50864, Note_on_c, 3, 61, 0
9, 50880, Note_on_c, 3, 61, 76
9, 51104, Note_on_c, 3, 61, 0
9, 51120, Note_on_c, 3, 62, 76
9, 51224, Note_on_c, 3, 62, 0
9, 51240, Note_on_c, 3, 64, 76
9, 51344, Note_on_c, 3, 64, 0
9, 51360, Note_on_c, 3, 66, 76
9, 51824, Note_on_c, 3, 66, 0
9, 51840, Note_on_c, 3, 71, 76
9, 52019, Note_on_c, 3, 71, 0
9, 52080, Note_on_c, 3, 66, 76
9, 52259, Note_on_c, 3, 66, 0
9, 52320, Note_on_c, 3, 59, 76
9, 52784, Note_on_c, 3, 59, 0
9, 52800, Note_on_c, 3, 70, 76
9, 52979, Note_on_c, 3, 70, 0
9, 53040, Note_on_c, 3, 66, 76
9, 53219, Note_on_c, 3, 66, 0
9, 53280, Note_on_c, 3, 58, 76
9, 53744, Note_on_c, 3, 58, 0
9, 53760, Note_on_c, 3, 66, 76
9, 53984, Note_on_c, 3, 66, 0
9, 54000, Note_on_c, 3, 64, 76
9, 54104, Note_on_c, 3, 64, 0
9, 54120, Note_on_c, 3, 62, 76
9, 54224, Note_on_c, 3, 62, 0
9, 54240, Note_on_c, 3, 61, 76
9, 54704, Note_on_c, 3, 61, 0
9, 54720, Note_on_c, 3, 61, 76
9, 54944, Note_on_c, 3, 61, 0
9, 54960, Note_on_c, 3, 62, 76
9, 55064, Note_on_c, 3, 62, 0
9, 55080, Note_on_c, 3, 64, 76
9, 55184, Note_on_c, 3, 64, 0
9, 55200, Note_on_c, 3, 66, 76
9, 55664, Note_on_c, 3, 66, 0
9, 55680, Note_on_c, 3, 66, 76
9, 55904, Note_on_c, 3, 66, 0
9, 55920, Note_on_c, 3, 64, 76
9, 56144, Note_on_c, 3, 64, 0
9, 56160, Note_on_c, 3, 62, 76
9, 56264, Note_on_c, 3, 62, 0
9, 56280, Note_on_c, 3, 61, 76
9, 56384, Note_on_c, 3, 61, 0
9, 56400, Note_on_c, 3, 62, 76
9, 56504, Note_on_c, 3, 62, 0
9, 56520, Note_on_c, 3, 59, 76
9, 56624, Note_on_c, 3, 59, 0
9, 56640, Note_on_c, 3, 64, 76
9, 56864, Note_on_c, 3, 64, 0
9, 56880, Note_on_c, 3, 61, 76
9, 57104, Note_on_c, 3, 61, 0
9, 57120, Note_on_c, 3, 62, 76
9, 57599, Note_on_c, 3, 62, 0
9, 57599, End_track
10, 0, Start_track
10, 0, Title_t, "Cello"
10, 0, MIDI_port, 0
10, 0, Program_c, 4, 48
10, 0, Control_c, 4, 10, 90
10, 0, Control_c, 4, 11, 127
10, 0, Control_c, 4, 7, 96
10, 0, Note_on_c, 4, 59, 76
10, 704, Note_on_c, 4, 59, 0
10, 720, Note_on_c, 4, 58, 76
10, 824, Note_on_c, 4, 58, 0
10, 840, Note_on_c, 4, 59, 76
10, 944, Note_on_c, 4, 59, 0
10, 960, Note_on_c, 4, 61, 76
10, 1664, Note_on_c, 4, 61, 0
10, 1680, Note_on_c, 4, 59, 76
10, 1784, Note_on_c, 4, 59, 0
10, 1800, Note_on_c, 4, 61, 76
10, 1904, Note_on_c, 4, 61, 0
10, 1920, Note_on_c, 4, 62, 76
10, 2144, Note_on_c, 4, 62, 0
10, 2160, Note_on_c, 4, 59, 76
10, 2384, Note_on_c, 4, 59, 0
10, 2400, Note_on_c, 4, 54, 76
10, 2864, Note_on_c, 4, 54, 0
10, 2880, Note_on_c, 4, 61, 76
10, 3104, Note_on_c, 4, 61, 0
10, 3120, Note_on_c, 4, 58, 76
10, 3344, Note_on_c, 4, 58, 0
10, 3360, Note_on_c, 4, 54, 76
10, 3824, Note_on_c, 4, 54, 0
10, 3840, Note_on_c, 4, 59, 76
10, 4544, Note_on_c, 4, 59, 0
10, 4560, Note_on_c, 4, 58, 76
10, 4664, Note_on_c, 4, 58, 0
10, 4680, Note_on_c, 4, 59, 76
10, 4784, Note_on_c, 4, 59, 0
10, 4800, Note_on_c, 4, 61, 76
10, 5504, Note_on_c, 4, 61, 0
10, 5520, Note_on_c, 4, 59, 76
10, 5624, Note_on_c, 4, 59, 0
10, 5640, Note_on_c, 4, 61, 76
10, 5744, Note_on_c, 4, 61, 0
10, 5760, Note_on_c, 4, 62, 76
10, 5984, Note_on_c, 4, 62, 0
10, 6000, Note_on_c, 4, 58, 76
10, 6224, Note_on_c, 4, 58, 0
10, 6240, Note_on_c, 4, 59, 76
10, 6464, Note_on_c, 4, 59, 0
10, 6480, Note_on_c, 4, 55, 76
10, 6704, Note_on_c, 4, 55, 0
10, 6720, Note_on_c, 4, 52, 76
10, 6944, Note_on_c, 4, 52, 0
10, 6960, Note_on_c, 4, 54, 76
10, 7184, Note_on_c, 4, 54, 0
10, 7200, Note_on_c, 4, 47, 76
10, 7664, Note_on_c, 4, 47, 0
10, 7680, Note_on_c, 4, 59, 76
10, 8384, Note_on_c, 4, 59, 0
10, 8400, Note_on_c, 4, 58, 76
10, 8504, Note_on_c, 4, 58, 0
10, 8520, Note_on_c, 4, 59, 76
10, 8624, Note_on_c, 4, 59, 0
10, 8640, Note_on_c, 4, 61, 76
10, 9344, Note_on_c, 4, 61, 0
10, 9360, Note_on_c, 4, 59, 76
10, 9464, Note_on_c, 4, 59, 0
10, 9480, Note_on_c, 4, 61, 76
10, 9584, Note_on_c, 4, 61, 0
10, 9600, Note_on_c, 4, 62, 76
10, 9824, Note_on_c, 4, 62, 0
10, 9840, Note_on_c, 4, 59, 76
10, 10064, Note_on_c, 4, 59, 0
10, 10080, Note_on_c, 4, 54, 76
10, 10544, Note_on_c, 4, 54, 0
10, 10560, Note_on_c, 4, 61, 76
10, 10784, Note_on_c, 4, 61, 0
10, 10800, Note_on_c, 4, 58, 76
10, 11024, Note_on_c, 4, 58, 0
10, 11040, Note_on_c, 4, 54, 76
10, 11504, Note_on_c, 4, 54, 0
10, 11520, Note_on_c, 4, 59, 76
10, 12224, Note_on_c, 4, 59, 0
10, 12240, Note_on_c, 4, 58, 76
10, 12344, Note_on_c, 4, 58, 0
10, 12360, Note_on_c, 4, 59, 76
10, 12464, Note_on_c, 4, 59, 0
10, 12480, Note_on_c, 4, 61, 76
10, 13184, Note_on_c, 4, 61, 0
10, 13200, Note_on_c, 4, 59, 76
10, 13304, Note_on_c, 4, 59, 0
10, 13320, Note_on_c, 4, 61, 76
10, 13424, Note_on_c, 4, 61, 0
10, 13440, Note_on_c, 4, 62, 76
10, 13664, Note_on_c, 4, 62, 0
10, 13680, Note_on_c, 4, 58, 76
10, 13904, Note_on_c, 4, 58, 0
10, 13920, Note_on_c, 4, 59, 76
10, 14144, Note_on_c, 4, 59, 0
10, 14160, Note_on_c, 4, 55, 76
10, 14384, Note_on_c, 4, 55, 0
10, 14400, Note_on_c, 4, 52, 76
10, 14624, Note_on_c, 4, 52, 0
10, 14640, Note_on_c, 4, 54, 76
10, 14864, Note_on_c, 4, 54, 0
10, 14880, Note_on_c, 4, 47, 76
10, 15344, Note_on_c, 4, 47, 0
10, 19200, Note_on_c, 4, 52, 76
10, 19904, Note_on_c, 4, 52, 0
10, 19920, Note_on_c, 4, 51, 76
10, 20024, Note_on_c, 4, 51, 0
10, 20040, Note_on_c, 4, 52, 76
10, 20144, Note_on_c, 4, 52, 0
10, 20160, Note_on_c, 4, 54, 76
10, 20864, Note_on_c, 4, 54, 0
10, 20880, Note_on_c, 4, 52, 76
10, 20984, Note_on_c, 4, 52, 0
10, 21000, Note_on_c, 4, 51, 76
10, 21104, Note_on_c, 4, 51, 0
10, 21120, Note_on_c, 4, 52, 76
10, 21344, Note_on_c, 4, 52, 0
10, 21360, Note_on_c, 4, 47, 76
10, 21584, Note_on_c, 4, 47, 0
10, 21600, Note_on_c, 4, 48, 76
10, 21824, Note_on_c, 4, 48, 0
10, 21840, Note_on_c, 4, 60, 76
10, 22064, Note_on_c, 4, 60, 0
10, 22080, Note_on_c, 4, 57, 76
10, 22304, Note_on_c, 4, 57, 0
10, 22320, Note_on_c, 4, 59, 76
10, 22544, Note_on_c, 4, 59, 0
10, 22560, Note_on_c, 4, 52, 76
10, 22784, Note_on_c, 4, 52, 0
10, 22800, Note_on_c, 4, 40, 76
10, 23024, Note_on_c, 4, 40, 0
10, 23040, Note_on_c, 4, 52, 76
10, 23264, Note_on_c, 4, 52, 0
10, 23280, Note_on_c, 4, 49, 76
10, 23504, Note_on_c, 4, 49, 0
10, 23520, Note_on_c, 4, 45, 76
10, 23984, Note_on_c, 4, 45, 0
10, 24000, Note_on_c, 4, 50, 76
10, 24224, Note_on_c, 4, 50, 0
10, 24240, Note_on_c, 4, 47, 76
10, 24464, Note_on_c, 4, 47, 0
10, 24480, Note_on_c, 4, 43, 76
10, 24944, Note_on_c, 4, 43, 0
10, 24960, Note_on_c, 4, 55, 76
10, 25184, Note_on_c, 4, 55, 0
10, 25200, Note_on_c, 4, 52, 76
10, 25424, Note_on_c, 4, 52, 0
10, 25440, Note_on_c, 4, 49, 76
10, 25664, Note_on_c, 4, 49, 0
10, 25680, Note_on_c, 4, 58, 76
10, 25904, Note_on_c, 4, 58, 0
10, 25920, Note_on_c, 4, 59, 76
10, 26144, Note_on_c, 4, 59, 0
10, 26160, Note_on_c, 4, 47, 76
10, 26384, Note_on_c, 4, 47, 0
10, 26400, Note_on_c, 4, 54, 76
10, 26504, Note_on_c, 4, 54, 0
10, 26520, Note_on_c, 4, 56, 76
10, 26624, Note_on_c, 4, 56, 0
10, 26640, Note_on_c, 4, 58, 76
10, 26744, Note_on_c, 4, 58, 0
10, 26760, Note_on_c, 4, 54, 76
10, 26864, Note_on_c, 4, 54, 0
10, 26880, Note_on_c, 4, 59, 76
10, 27584, Note_on_c, 4, 59, 0
10, 27600, Note_on_c, 4, 58, 76
10, 27704, Note_on_c, 4, 58, 0
10, 27720, Note_on_c, 4, 59, 76
10, 27824, Note_on_c, 4, 59, 0
10, 27840, Note_on_c, 4, 61, 76
10, 28544, Note_on_c, 4, 61, 0
10, 28560, Note_on_c, 4, 59, 76
10, 28664, Note_on_c, 4, 59, 0
10, 28680, Note_on_c, 4, 61, 76
10, 28784, Note_on_c, 4, 61, 0
10, 28800, Note_on_c, 4, 62, 76
10, 29024, Note_on_c, 4, 62, 0
10, 29040, Note_on_c, 4, 59, 76
10, 29264, Note_on_c, 4, 59, 0
10, 29280, Note_on_c, 4, 54, 76
10, 29744, Note_on_c, 4, 54, 0
10, 29760, Note_on_c, 4, 61, 76
10, 29984, Note_on_c, 4, 61, 0
10, 30000, Note_on_c, 4, 58, 76
10, 30224, Note_on_c, 4, 58, 0
10, 30240, Note_on_c, 4, 54, 76
10, 30704, Note_on_c, 4, 54, 0
10, 30720, Note_on_c, 4, 59, 76
10, 31424, Note_on_c, 4, 59, 0
10, 31440, Note_on_c, 4, 58, 76
10, 31544, Note_on_c, 4, 58, 0
10, 31560, Note_on_c, 4, 59, 76
10, 31664, Note_on_c, 4, 59, 0
10, 31680, Note_on_c, 4, 61, 76
10, 32384, Note_on_c, 4, 61, 0
10, 32400, Note_on_c, 4, 59, 76
10, 32504, Note_on_c, 4, 59, 0
10, 32520, Note_on_c, 4, 61, 76
10, 32624, Note_on_c, 4, 61, 0
10, 32640, Note_on_c, 4, 62, 76
10, 32864, Note_on_c, 4, 62, 0
10, 32880, Note_on_c, 4, 58, 76
10, 33104, Note_on_c, 4, 58, 0
10, 33120, Note_on_c, 4, 59, 76
10, 33344, Note_on_c, 4, 59, 0
10, 33360, Note_on_c, 4, 55, 76
10, 33584, Note_on_c, 4, 55, 0
10, 33600, Note_on_c, 4, 52, 76
10, 33824, Note_on_c, 4, 52, 0
10, 33840, Note_on_c, 4, 54, 76
10, 34064, Note_on_c, 4, 54, 0
10, 34080, Note_on_c, 4, 47, 76
10, 34304, Note_on_c, 4, 47, 0
10, 34320, Note_on_c, 4, 50, 76
10, 34424, Note_on_c, 4, 50, 0
10, 34440, Note_on_c, 4, 54, 76
10, 34544, Note_on_c, 4, 54, 0
10, 34560, Note_on_c, 4, 59, 52
10, 34784, Note_on_c, 4, 59, 0
10, 34800, Note_on_c, 4, 57, 52
10, 35024, Note_on_c, 4, 57, 0
10, 35040, Note_on_c, 4, 56, 52
10, 35264, Note_on_c, 4, 56, 0
10, 35280, Note_on_c, 4, 57, 52
10, 35504, Note_on_c, 4, 57, 0
10, 35520, Note_on_c, 4, 50, 52
10, 35744, Note_on_c, 4, 50, 0
10, 35760, Note_on_c, 4, 52, 52
10, 35984, Note_on_c, 4, 52, 0
10, 36000, Note_on_c, 4, 45, 52
10, 36224, Note_on_c, 4, 45, 0
10, 36240, Note_on_c, 4, 57, 52
10, 36464, Note_on_c, 4, 57, 0
10, 36480, Note_on_c, 4, 55, 52
10, 36704, Note_on_c, 4, 55, 0
10, 36720, Note_on_c, 4, 54, 52
10, 36944, Note_on_c, 4, 54, 0
10, 36960, Note_on_c, 4, 52, 52
10, 37184, Note_on_c, 4, 52, 0
10, 37200, Note_on_c, 4, 49, 52
10, 37424, Note_on_c, 4, 49, 0
10, 37440, Note_on_c, 4, 45, 52
10, 37664, Note_on_c, 4, 45, 0
10, 37680, Note_on_c, 4, 57, 52
10, 37904, Note_on_c, 4, 57, 0
10, 37920, Note_on_c, 4, 50, 52
10, 38399, Note_on_c, 4, 50, 0
10, 42240, Note_on_c, 4, 57, 76
10, 42344, Note_on_c, 4, 57, 0
10, 42360, Note_on_c, 4, 59, 76
10, 42464, Note_on_c, 4, 59, 0
10, 42480, Note_on_c, 4, 57, 76
10, 42584, Note_on_c, 4, 57, 0
10, 42600, Note_on_c, 4, 56, 76
10, 42704, Note_on_c, 4, 56, 0
10, 42720, Note_on_c, 4, 54, 76
10, 42824, Note_on_c, 4, 54, 0
10, 42840, Note_on_c, 4, 56, 76
10, 42944, Note_on_c, 4, 56, 0
10, 42960, Note_on_c, 4, 57, 76
10, 43064, Note_on_c, 4, 57, 0
10, 43080, Note_on_c, 4, 54, 76
10, 43184, Note_on_c, 4, 54, 0
10, 43200, Note_on_c, 4, 56, 76
10, 43304, Note_on_c, 4, 56, 0
10, 43320, Note_on_c, 4, 57, 76
10, 43424, Note_on_c, 4, 57, 0
10, 43440, Note_on_c, 4, 56, 76
10, 43544, Note_on_c, 4, 56, 0
10, 43560, Note_on_c, 4, 54, 76
10, 43664, Note_on_c, 4, 54, 0
10, 43680, Note_on_c, 4, 53, 76
10, 43784, Note_on_c, 4, 53, 0
10, 43800, Note_on_c, 4, 54, 76
10, 43904, Note_on_c, 4, 54, 0
10, 43920, Note_on_c, 4, 56, 76
10, 44024, Note_on_c, 4, 56, 0
10, 44040, Note_on_c, 4, 53, 76
10, 44144, Note_on_c, 4, 53, 0
10, 44160, Note_on_c, 4, 54, 76
10, 44384, Note_on_c, 4, 54, 0
10, 44400, Note_on_c, 4, 49, 76
10, 44624, Note_on_c, 4, 49, 0
10, 44640, Note_on_c, 4, 50, 76
10, 44864, Note_on_c, 4, 50, 0
10, 44880, Note_on_c, 4, 62, 76
10, 45104, Note_on_c, 4, 62, 0
10, 45120, Note_on_c, 4, 59, 76
10, 45344, Note_on_c, 4, 59, 0
10, 45360, Note_on_c, 4, 61, 76
10, 45584, Note_on_c, 4, 61, 0
10, 45600, Note_on_c, 4, 54, 76
10, 46079, Note_on_c, 4, 54, 0
10, 49560, Note_on_c, 4, 64, 76
10, 49664, Note_on_c, 4, 64, 0
10, 49680, Note_on_c, 4, 62, 76
10, 49784, Note_on_c, 4, 62, 0
10, 49800, Note_on_c, 4, 61, 76
10, 49904, Note_on_c, 4, 61, 0
10, 49920, Note_on_c, 4, 59, 76
10, 50624, Note_on_c, 4, 59, 0
10, 50640, Note_on_c, 4, 58, 76
10, 50744, Note_on_c, 4, 58, 0
10, 50760, Note_on_c, 4, 59, 76
10, 50864, Note_on_c, 4, 59, 0
10, 50880, Note_on_c, 4, 61, 76
10, 51584, Note_on_c, 4, 61, 0
10, 51600, Note_on_c, 4, 59, 76
10, 51704, Note_on_c, 4, 59, 0
10, 51720, Note_on_c, 4, 61, 76
10, 51824, Note_on_c, 4, 61, 0
10, 51840, Note_on_c, 4, 62, 76
10, 52064, Note_on_c, 4, 62, 0
10, 52080, Note_on_c, 4, 59, 76
10, 52304, Note_on_c, 4, 59, 0
10, 52320, Note_on_c, 4, 54, 76
10, 52784, Note_on_c, 4, 54, 0
10, 52800, Note_on_c, 4, 61, 76
10, 53024, Note_on_c, 4, 61, 0
10, 53040, Note_on_c, 4, 58, 76
10, 53264, Note_on_c, 4, 58, 0
10, 53280, Note_on_c, 4, 54, 76
10, 53744, Note_on_c, 4, 54, 0
10, 53760, Note_on_c, 4, 59, 76
10, 54464, Note_on_c, 4, 59, 0
10, 54480, Note_on_c, 4, 58, 76
10, 54584, Note_on_c, 4, 58, 0
10, 54600, Note_on_c, 4, 59, 76
10, 54704, Note_on_c, 4, 59, 0
10, 54720, Note_on_c, 4, 61, 76
10, 55424, Note_on_c, 4, 61, 0
10, 55440, Note_on_c, 4, 59, 76
10, 55544, Note_on_c, 4, 59, 0
10, 55560, Note_on_c, 4, 61, 76
10, 55664, Note_on_c, 4, 61, 0
10, 55680, Note_on_c, 4, 62, 76
10, 55904, Note_on_c, 4, 62, 0
10, 55920, Note_on_c, 4, 58, 76
10, 56144, Note_on_c, 4, 58, 0
10, 56160, Note_on_c, 4, 59, 76
10, 56384, Note_on_c, 4, 59, 0
10, 56400, Note_on_c, 4, 55, 76
10, 56624, Note_on_c, 4, 55, 0
10, 56640, Note_on_c, 4, 52, 76
10, 56864, Note_on_c, 4, 52, 0
10, 56880, Note_on_c, 4, 54, 76
10, 57104, Note_on_c, 4, 54, 0
10, 57120, Note_on_c, 4, 47, 76
10, 57599, Note_on_c, 4, 47, 0
10, 57599, End_track
11, 0, Start_track
11, 0, Title_t, "Harpsichord "
11, 0, MIDI_port, 0
11, 0, Control_c, 5, 10, 64
11, 0, Control_c, 5, 11, 127
11, 0, Control_c, 5, 7, 72
11, 0, Program_c, 5, 6
11, 0, Note_on_c, 5, 59, 76
11, 0, Note_on_c, 5, 71, 76
11, 0, Note_on_c, 5, 74, 76
11, 0, Note_on_c, 5, 78, 76
11, 479, Note_on_c, 5, 71, 0
11, 479, Note_on_c, 5, 74, 0
11, 479, Note_on_c, 5, 78, 0
11, 480, Note_on_c, 5, 71, 76
11, 480, Note_on_c, 5, 73, 76
11, 480, Note_on_c, 5, 78, 76
11, 719, Note_on_c, 5, 59, 0
11, 719, Note_on_c, 5, 71, 0
11, 719, Note_on_c, 5, 73, 0
11, 719, Note_on_c, 5, 78, 0
11, 720, Note_on_c, 5, 58, 76
11, 720, Note_on_c, 5, 78, 76
11, 720, Note_on_c, 5, 70, 76
11, 720, Note_on_c, 5, 73, 76
11, 839, Note_on_c, 5, 58, 0
11, 839, Note_on_c, 5, 78, 0
11, 839, Note_on_c, 5, 70, 0
11, 839, Note_on_c, 5, 73, 0
11, 840, Note_on_c, 5, 73, 76
11, 840, Note_on_c, 5, 59, 76
11, 840, Note_on_c, 5, 78, 76
11, 840, Note_on_c, 5, 71, 76
11, 959, Note_on_c, 5, 73, 0
11, 959, Note_on_c, 5, 59, 0
11, 959, Note_on_c, 5, 78, 0
11, 959, Note_on_c, 5, 71, 0
11, 960, Note_on_c, 5, 61, 76
11, 960, Note_on_c, 5, 76, 76
11, 960, Note_on_c, 5, 73, 76
11, 960, Note_on_c, 5, 82, 76
11, 1439, Note_on_c, 5, 76, 0
11, 1439, Note_on_c, 5, 73, 0
11, 1439, Note_on_c, 5, 82, 0
11, 1440, Note_on_c, 5, 78, 76
11, 1440, Note_on_c, 5, 74, 76
11, 1440, Note_on_c, 5, 82, 76
11, 1440, Note_on_c, 5, 73, 76
11, 1679, Note_on_c, 5, 61, 0
11, 1679, Note_on_c, 5, 78, 0
11, 1679, Note_on_c, 5, 74, 0
11, 1679, Note_on_c, 5, 82, 0
11, 1679, Note_on_c, 5, 73, 0
11, 1680, Note_on_c, 5, 82, 76
11, 1680, Note_on_c, 5, 59, 76
11, 1680, Note_on_c, 5, 71, 76
11, 1680, Note_on_c, 5, 74, 76
11, 1680, Note_on_c, 5, 78, 76
11, 1799, Note_on_c, 5, 82, 0
11, 1799, Note_on_c, 5, 59, 0
11, 1799, Note_on_c, 5, 71, 0
11, 1799, Note_on_c, 5, 74, 0
11, 1799, Note_on_c, 5, 78, 0
11, 1800, Note_on_c, 5, 82, 76
11, 1800, Note_on_c, 5, 74, 76
11, 1800, Note_on_c, 5, 73, 76
11, 1800, Note_on_c, 5, 61, 76
11, 1800, Note_on_c, 5, 78, 76
11, 1919, Note_on_c, 5, 82, 0
11, 1919, Note_on_c, 5, 74, 0
11, 1919, Note_on_c, 5, 73, 0
11, 1919, Note_on_c, 5, 61, 0
11, 1919, Note_on_c, 5, 78, 0
11, 1920, Note_on_c, 5, 74, 76
11, 1920, Note_on_c, 5, 62, 76
11, 1920, Note_on_c, 5, 83, 76
11, 1920, Note_on_c, 5, 78, 76
11, 2159, Note_on_c, 5, 74, 0
11, 2159, Note_on_c, 5, 62, 0
11, 2159, Note_on_c, 5, 83, 0
11, 2159, Note_on_c, 5, 78, 0
11, 2160, Note_on_c, 5, 71, 76
11, 2160, Note_on_c, 5, 59, 76
11, 2160, Note_on_c, 5, 74, 76
11, 2160, Note_on_c, 5, 78, 76
11, 2399, Note_on_c, 5, 71, 0
11, 2399, Note_on_c, 5, 59, 0
11, 2399, Note_on_c, 5, 74, 0
11, 2399, Note_on_c, 5, 78, 0
11, 2400, Note_on_c, 5, 74, 76
11, 2400, Note_on_c, 5, 71, 76
11, 2400, Note_on_c, 5, 66, 76
11, 2400, Note_on_c, 5, 54, 76
11, 2879, Note_on_c, 5, 74, 0
11, 2879, Note_on_c, 5, 71, 0
11, 2879, Note_on_c, 5, 66, 0
11, 2879, Note_on_c, 5, 54, 0
11, 2880, Note_on_c, 5, 82, 76
11, 2880, Note_on_c, 5, 78, 76
11, 2880, Note_on_c, 5, 76, 76
11, 2880, Note_on_c, 5, 73, 76
11, 2880, Note_on_c, 5, 61, 76
11, 3119, Note_on_c, 5, 82, 0
11, 3119, Note_on_c, 5, 78, 0
11, 3119, Note_on_c, 5, 76, 0
11, 3119, Note_on_c, 5, 73, 0
11, 3119, Note_on_c, 5, 61, 0
11, 3120, Note_on_c, 5, 58, 76
11, 3120, Note_on_c, 5, 76, 76
11, 3120, Note_on_c, 5, 78, 76
11, 3120, Note_on_c, 5, 70, 76
11, 3120, Note_on_c, 5, 82, 76
11, 3359, Note_on_c, 5, 58, 0
11, 3359, Note_on_c, 5, 76, 0
11, 3359, Note_on_c, 5, 78, 0
11, 3359, Note_on_c, 5, 70, 0
11, 3359, Note_on_c, 5, 82, 0
11, 3360, Note_on_c, 5, 54, 76
11, 3360, Note_on_c, 5, 66, 76
11, 3360, Note_on_c, 5, 76, 76
11, 3360, Note_on_c, 5, 70, 76
11, 3360, Note_on_c, 5, 73, 76
11, 3839, Note_on_c, 5, 54, 0
11, 3839, Note_on_c, 5, 66, 0
11, 3839, Note_on_c, 5, 76, 0
11, 3839, Note_on_c, 5, 70, 0
11, 3839, Note_on_c, 5, 73, 0
11, 3840, Note_on_c, 5, 74, 76
11, 3840, Note_on_c, 5, 71, 76
11, 3840, Note_on_c, 5, 59, 76
11, 3840, Note_on_c, 5, 78, 76
11, 4319, Note_on_c, 5, 74, 0
11, 4319, Note_on_c, 5, 71, 0
11, 4319, Note_on_c, 5, 78, 0
11, 4320, Note_on_c, 5, 71, 76
11, 4320, Note_on_c, 5, 73, 76
11, 4320, Note_on_c, 5, 78, 76
11, 4559, Note_on_c, 5, 59, 0
11, 4559, Note_on_c, 5, 71, 0
11, 4559, Note_on_c, 5, 73, 0
11, 4559, Note_on_c, 5, 78, 0
11, 4560, Note_on_c, 5, 76, 76
11, 4560, Note_on_c, 5, 73, 76
11, 4560, Note_on_c, 5, 58, 76
11, 4560, Note_on_c, 5, 70, 76
11, 4679, Note_on_c, 5, 76, 0
11, 4679, Note_on_c, 5, 73, 0
11, 4679, Note_on_c, 5, 58, 0
11, 4679, Note_on_c, 5, 70, 0
11, 4680, Note_on_c, 5, 59, 76
11, 4680, Note_on_c, 5, 71, 76
11, 4680, Note_on_c, 5, 73, 76
11, 4680, Note_on_c, 5, 78, 76
11, 4799, Note_on_c, 5, 59, 0
11, 4799, Note_on_c, 5, 71, 0
11, 4799, Note_on_c, 5, 73, 0
11, 4799, Note_on_c, 5, 78, 0
11, 4800, Note_on_c, 5, 73, 76
11, 4800, Note_on_c, 5, 76, 76
11, 4800, Note_on_c, 5, 82, 76
11, 4800, Note_on_c, 5, 61, 76
11, 5279, Note_on_c, 5, 73, 0
11, 5279, Note_on_c, 5, 76, 0
11, 5279, Note_on_c, 5, 82, 0
11, 5280, Note_on_c, 5, 82, 76
11, 5280, Note_on_c, 5, 73, 76
11, 5280, Note_on_c, 5, 78, 76
11, 5280, Note_on_c, 5, 74, 76
11, 5519, Note_on_c, 5, 61, 0
11, 5519, Note_on_c, 5, 82, 0
11, 5519, Note_on_c, 5, 73, 0
11, 5519, Note_on_c, 5, 78, 0
11, 5519, Note_on_c, 5, 74, 0
11, 5520, Note_on_c, 5, 78, 76
11, 5520, Note_on_c, 5, 74, 76
11, 5520, Note_on_c, 5, 71, 76
11, 5520, Note_on_c, 5, 59, 76
11, 5639, Note_on_c, 5, 78, 0
11, 5639, Note_on_c, 5, 74, 0
11, 5639, Note_on_c, 5, 71, 0
11, 5639, Note_on_c, 5, 59, 0
11, 5640, Note_on_c, 5, 73, 76
11, 5640, Note_on_c, 5, 74, 76
11, 5640, Note_on_c, 5, 61, 76
11, 5640, Note_on_c, 5, 78, 76
11, 5759, Note_on_c, 5, 73, 0
11, 5759, Note_on_c, 5, 74, 0
11, 5759, Note_on_c, 5, 61, 0
11, 5759, Note_on_c, 5, 78, 0
11, 5760, Note_on_c, 5, 74, 76
11, 5760, Note_on_c, 5, 78, 76
11, 5760, Note_on_c, 5, 83, 76
11, 5760, Note_on_c, 5, 62, 76
11, 5999, Note_on_c, 5, 74, 0
11, 5999, Note_on_c, 5, 78, 0
11, 5999, Note_on_c, 5, 83, 0
11, 5999, Note_on_c, 5, 62, 0
11, 6000, Note_on_c, 5, 73, 76
11, 6000, Note_on_c, 5, 58, 76
11, 6000, Note_on_c, 5, 70, 76
11, 6000, Note_on_c, 5, 78, 76
11, 6239, Note_on_c, 5, 73, 0
11, 6239, Note_on_c, 5, 58, 0
11, 6239, Note_on_c, 5, 70, 0
11, 6239, Note_on_c, 5, 78, 0
11, 6240, Note_on_c, 5, 74, 76
11, 6240, Note_on_c, 5, 59, 76
11, 6240, Note_on_c, 5, 78, 76
11, 6240, Note_on_c, 5, 71, 76
11, 6479, Note_on_c, 5, 74, 0
11, 6479, Note_on_c, 5, 59, 0
11, 6479, Note_on_c, 5, 78, 0
11, 6479, Note_on_c, 5, 71, 0
11, 6480, Note_on_c, 5, 74, 76
11, 6480, Note_on_c, 5, 71, 76
11, 6480, Note_on_c, 5, 55, 76
11, 6480, Note_on_c, 5, 67, 76
11, 6719, Note_on_c, 5, 74, 0
11, 6719, Note_on_c, 5, 71, 0
11, 6719, Note_on_c, 5, 55, 0
11, 6719, Note_on_c, 5, 67, 0
11, 6720, Note_on_c, 5, 52, 76
11, 6720, Note_on_c, 5, 67, 76
11, 6720, Note_on_c, 5, 73, 76
11, 6720, Note_on_c, 5, 64, 76
11, 6959, Note_on_c, 5, 52, 0
11, 6959, Note_on_c, 5, 67, 0
11, 6959, Note_on_c, 5, 73, 0
11, 6959, Note_on_c, 5, 64, 0
11, 6960, Note_on_c, 5, 73, 76
11, 6960, Note_on_c, 5, 66, 76
11, 6960, Note_on_c, 5, 54, 76
11, 6960, Note_on_c, 5, 70, 76
11, 7199, Note_on_c, 5, 73, 0
11, 7199, Note_on_c, 5, 66, 0
11, 7199, Note_on_c, 5, 54, 0
11, 7199, Note_on_c, 5, 70, 0
11, 7200, Note_on_c, 5, 59, 76
11, 7200, Note_on_c, 5, 62, 76
11, 7200, Note_on_c, 5, 47, 76
11, 7200, Note_on_c, 5, 66, 76
11, 7679, Note_on_c, 5, 59, 0
11, 7679, Note_on_c, 5, 62, 0
11, 7679, Note_on_c, 5, 47, 0
11, 7679, Note_on_c, 5, 66, 0
11, 7680, Note_on_c, 5, 59, 76
11, 7680, Note_on_c, 5, 78, 76
11, 7680, Note_on_c, 5, 71, 76
11, 7680, Note_on_c, 5, 74, 76
11, 8159, Note_on_c, 5, 78, 0
11, 8159, Note_on_c, 5, 71, 0
11, 8159, Note_on_c, 5, 74, 0
11, 8160, Note_on_c, 5, 78, 76
11, 8160, Note_on_c, 5, 71, 76
11, 8160, Note_on_c, 5, 73, 76
11, 8399, Note_on_c, 5, 59, 0
11, 8399, Note_on_c, 5, 78, 0
11, 8399, Note_on_c, 5, 71, 0
11, 8399, Note_on_c, 5, 73, 0
11, 8400, Note_on_c, 5, 73, 76
11, 8400, Note_on_c, 5, 58, 76
11, 8400, Note_on_c, 5, 78, 76
11, 8400, Note_on_c, 5, 70, 76
11, 8519, Note_on_c, 5, 73, 0
11, 8519, Note_on_c, 5, 58, 0
11, 8519, Note_on_c, 5, 78, 0
11, 8519, Note_on_c, 5, 70, 0
11, 8520, Note_on_c, 5, 73, 76
11, 8520, Note_on_c, 5, 78, 76
11, 8520, Note_on_c, 5, 71, 76
11, 8520, Note_on_c, 5, 59, 76
11, 8639, Note_on_c, 5, 73, 0
11, 8639, Note_on_c, 5, 78, 0
11, 8639, Note_on_c, 5, 71, 0
11, 8639, Note_on_c, 5, 59, 0
11, 8640, Note_on_c, 5, 76, 76
11, 8640, Note_on_c, 5, 61, 76
11, 8640, Note_on_c, 5, 82, 76
11, 8640, Note_on_c, 5, 73, 76
11, 9119, Note_on_c, 5, 76, 0
11, 9119, Note_on_c, 5, 82, 0
11, 9119, Note_on_c, 5, 73, 0
11, 9120, Note_on_c, 5, 82, 76
11, 9120, Note_on_c, 5, 74, 76
11, 9120, Note_on_c, 5, 73, 76
11, 9120, Note_on_c, 5, 78, 76
11, 9359, Note_on_c, 5, 61, 0
11, 9359, Note_on_c, 5, 82, 0
11, 9359, Note_on_c, 5, 74, 0
11, 9359, Note_on_c, 5, 73, 0
11, 9359, Note_on_c, 5, 78, 0
11, 9360, Note_on_c, 5, 71, 76
11, 9360, Note_on_c, 5, 59, 76
11, 9360, Note_on_c, 5, 82, 76
11, 9360, Note_on_c, 5, 78, 76
11, 9360, Note_on_c, 5, 74, 76
11, 9479, Note_on_c, 5, 71, 0
11, 9479, Note_on_c, 5, 59, 0
11, 9479, Note_on_c, 5, 82, 0
11, 9479, Note_on_c, 5, 78, 0
11, 9479, Note_on_c, 5, 74, 0
11, 9480, Note_on_c, 5, 74, 76
11, 9480, Note_on_c, 5, 61, 76
11, 9480, Note_on_c, 5, 82, 76
11, 9480, Note_on_c, 5, 73, 76
11, 9480, Note_on_c, 5, 78, 76
11, 9599, Note_on_c, 5, 74, 0
11, 9599, Note_on_c, 5, 61, 0
11, 9599, Note_on_c, 5, 82, 0
11, 9599, Note_on_c, 5, 73, 0
11, 9599, Note_on_c, 5, 78, 0
11, 9600, Note_on_c, 5, 62, 76
11, 9600, Note_on_c, 5, 83, 76
11, 9600, Note_on_c, 5, 74, 76
11, 9600, Note_on_c, 5, 78, 76
11, 9839, Note_on_c, 5, 62, 0
11, 9839, Note_on_c, 5, 83, 0
11, 9839, Note_on_c, 5, 74, 0
11, 9839, Note_on_c, 5, 78, 0
11, 9840, Note_on_c, 5, 74, 76
11, 9840, Note_on_c, 5, 71, 76
11, 9840, Note_on_c, 5, 59, 76
11, 9840, Note_on_c, 5, 78, 76
11, 10079, Note_on_c, 5, 74, 0
11, 10079, Note_on_c, 5, 71, 0
11, 10079, Note_on_c, 5, 59, 0
11, 10079, Note_on_c, 5, 78, 0
11, 10080, Note_on_c, 5, 54, 76
11, 10080, Note_on_c, 5, 71, 76
11, 10080, Note_on_c, 5, 74, 76
11, 10080, Note_on_c, 5, 66, 76
11, 10559, Note_on_c, 5, 54, 0
11, 10559, Note_on_c, 5, 71, 0
11, 10559, Note_on_c, 5, 74, 0
11, 10559, Note_on_c, 5, 66, 0
11, 10560, Note_on_c, 5, 82, 76
11, 10560, Note_on_c, 5, 73, 76
11, 10560, Note_on_c, 5, 78, 76
11, 10560, Note_on_c, 5, 76, 76
11, 10560, Note_on_c, 5, 61, 76
11, 10799, Note_on_c, 5, 82, 0
11, 10799, Note_on_c, 5, 73, 0
11, 10799, Note_on_c, 5, 78, 0
11, 10799, Note_on_c, 5, 76, 0
11, 10799, Note_on_c, 5, 61, 0
11, 10800, Note_on_c, 5, 82, 76
11, 10800, Note_on_c, 5, 58, 76
11, 10800, Note_on_c, 5, 78, 76
11, 10800, Note_on_c, 5, 70, 76
11, 10800, Note_on_c, 5, 76, 76
11, 11039, Note_on_c, 5, 82, 0
11, 11039, Note_on_c, 5, 58, 0
11, 11039, Note_on_c, 5, 78, 0
11, 11039, Note_on_c, 5, 70, 0
11, 11039, Note_on_c, 5, 76, 0
11, 11040, Note_on_c, 5, 73, 76
11, 11040, Note_on_c, 5, 70, 76
11, 11040, Note_on_c, 5, 76, 76
11, 11040, Note_on_c, 5, 54, 76
11, 11040, Note_on_c, 5, 66, 76
11, 11519, Note_on_c, 5, 73, 0
11, 11519, Note_on_c, 5, 70, 0
11, 11519, Note_on_c, 5, 76, 0
11, 11519, Note_on_c, 5, 54, 0
11, 11519, Note_on_c, 5, 66, 0
11, 11520, Note_on_c, 5, 71, 76
11, 11520, Note_on_c, 5, 74, 76
11, 11520, Note_on_c, 5, 59, 76
11, 11520, Note_on_c, 5, 78, 76
11, 11999, Note_on_c, 5, 71, 0
11, 11999, Note_on_c, 5, 74, 0
11, 11999, Note_on_c, 5, 78, 0
11, 12000, Note_on_c, 5, 71, 76
11, 12000, Note_on_c, 5, 73, 76
11, 12000, Note_on_c, 5, 78, 76
11, 12239, Note_on_c, 5, 59, 0
11, 12239, Note_on_c, 5, 71, 0
11, 12239, Note_on_c, 5, 73, 0
11, 12239, Note_on_c, 5, 78, 0
11, 12240, Note_on_c, 5, 58, 76
11, 12240, Note_on_c, 5, 70, 76
11, 12240, Note_on_c, 5, 73, 76
11, 12240, Note_on_c, 5, 76, 76
11, 12359, Note_on_c, 5, 58, 0
11, 12359, Note_on_c, 5, 70, 0
11, 12359, Note_on_c, 5, 73, 0
11, 12359, Note_on_c, 5, 76, 0
11, 12360, Note_on_c, 5, 73, 76
11, 12360, Note_on_c, 5, 59, 76
11, 12360, Note_on_c, 5, 78, 76
11, 12360, Note_on_c, 5, 71, 76
11, 12479, Note_on_c, 5, 73, 0
11, 12479, Note_on_c, 5, 59, 0
11, 12479, Note_on_c, 5, 78, 0
11, 12479, Note_on_c, 5, 71, 0
11, 12480, Note_on_c, 5, 76, 76
11, 12480, Note_on_c, 5, 73, 76
11, 12480, Note_on_c, 5, 82, 76
11, 12480, Note_on_c, 5, 61, 76
11, 12959, Note_on_c, 5, 76, 0
11, 12959, Note_on_c, 5, 73, 0
11, 12959, Note_on_c, 5, 82, 0
11, 12960, Note_on_c, 5, 74, 76
11, 12960, Note_on_c, 5, 73, 76
11, 12960, Note_on_c, 5, 82, 76
11, 12960, Note_on_c, 5, 78, 76
11, 13199, Note_on_c, 5, 61, 0
11, 13199, Note_on_c, 5, 74, 0
11, 13199, Note_on_c, 5, 73, 0
11, 13199, Note_on_c, 5, 82, 0
11, 13199, Note_on_c, 5, 78, 0
11, 13200, Note_on_c, 5, 71, 76
11, 13200, Note_on_c, 5, 59, 76
11, 13200, Note_on_c, 5, 78, 76
11, 13200, Note_on_c, 5, 74, 76
11, 13319, Note_on_c, 5, 71, 0
11, 13319, Note_on_c, 5, 59, 0
11, 13319, Note_on_c, 5, 78, 0
11, 13319, Note_on_c, 5, 74, 0
11, 13320, Note_on_c, 5, 74, 76
11, 13320, Note_on_c, 5, 73, 76
11, 13320, Note_on_c, 5, 78, 76
11, 13320, Note_on_c, 5, 61, 76
11, 13439, Note_on_c, 5, 74, 0
11, 13439, Note_on_c, 5, 73, 0
11, 13439, Note_on_c, 5, 78, 0
11, 13439, Note_on_c, 5, 61, 0
11, 13440, Note_on_c, 5, 62, 76
11, 13440, Note_on_c, 5, 74, 76
11, 13440, Note_on_c, 5, 78, 76
11, 13440, Note_on_c, 5, 83, 76
11, 13679, Note_on_c, 5, 62, 0
11, 13679, Note_on_c, 5, 74, 0
11, 13679, Note_on_c, 5, 78, 0
11, 13679, Note_on_c, 5, 83, 0
11, 13680, Note_on_c, 5, 58, 76
11, 13680, Note_on_c, 5, 73, 76
11, 13680, Note_on_c, 5, 78, 76
11, 13680, Note_on_c, 5, 70, 76
11, 13919, Note_on_c, 5, 58, 0
11, 13919, Note_on_c, 5, 73, 0
11, 13919, Note_on_c, 5, 78, 0
11, 13919, Note_on_c, 5, 70, 0
11, 13920, Note_on_c, 5, 59, 76
11, 13920, Note_on_c, 5, 71, 76
11, 13920, Note_on_c, 5, 74, 76
11, 13920, Note_on_c, 5, 78, 76
11, 14159, Note_on_c, 5, 59, 0
11, 14159, Note_on_c, 5, 71, 0
11, 14159, Note_on_c, 5, 74, 0
11, 14159, Note_on_c, 5, 78, 0
11, 14160, Note_on_c, 5, 67, 76
11, 14160, Note_on_c, 5, 74, 76
11, 14160, Note_on_c, 5, 55, 76
11, 14160, Note_on_c, 5, 71, 76
11, 14399, Note_on_c, 5, 67, 0
11, 14399, Note_on_c, 5, 74, 0
11, 14399, Note_on_c, 5, 55, 0
11, 14399, Note_on_c, 5, 71, 0
11, 14400, Note_on_c, 5, 73, 76
11, 14400, Note_on_c, 5, 64, 76
11, 14400, Note_on_c, 5, 67, 76
11, 14400, Note_on_c, 5, 52, 76
11, 14639, Note_on_c, 5, 73, 0
11, 14639, Note_on_c, 5, 64, 0
11, 14639, Note_on_c, 5, 67, 0
11, 14639, Note_on_c, 5, 52, 0
11, 14640, Note_on_c, 5, 70, 76
11, 14640, Note_on_c, 5, 73, 76
11, 14640, Note_on_c, 5, 66, 76
11, 14640, Note_on_c, 5, 54, 76
11, 14879, Note_on_c, 5, 70, 0
11, 14879, Note_on_c, 5, 73, 0
11, 14879, Note_on_c, 5, 66, 0
11, 14879, Note_on_c, 5, 54, 0
11, 14880, Note_on_c, 5, 62, 76
11, 14880, Note_on_c, 5, 66, 76
11, 14880, Note_on_c, 5, 59, 76
11, 14880, Note_on_c, 5, 47, 76
11, 15359, Note_on_c, 5, 62, 0
11, 15359, Note_on_c, 5, 66, 0
11, 15359, Note_on_c, 5, 59, 0
11, 15359, Note_on_c, 5, 47, 0
11, 19200, Note_on_c, 5, 52, 76
11, 19200, Note_on_c, 5, 64, 76
11, 19200, Note_on_c, 5, 67, 76
11, 19200, Note_on_c, 5, 71, 76
11, 19679, Note_on_c, 5, 64, 0
11, 19679, Note_on_c, 5, 67, 0
11, 19679, Note_on_c, 5, 71, 0
11, 19680, Note_on_c, 5, 64, 76
11, 19680, Note_on_c, 5, 66, 76
11, 19680, Note_on_c, 5, 69, 76
11, 19680, Note_on_c, 5, 72, 76
11, 19919, Note_on_c, 5, 52, 0
11, 19919, Note_on_c, 5, 64, 0
11, 19919, Note_on_c, 5, 66, 0
11, 19919, Note_on_c, 5, 69, 0
11, 19919, Note_on_c, 5, 72, 0
11, 19920, Note_on_c, 5, 51, 76
11, 19920, Note_on_c, 5, 63, 76
11, 19920, Note_on_c, 5, 66, 76
11, 19920, Note_on_c, 5, 69, 76
11, 20039, Note_on_c, 5, 51, 0
11, 20039, Note_on_c, 5, 63, 0
11, 20039, Note_on_c, 5, 66, 0
11, 20039, Note_on_c, 5, 69, 0
11, 20040, Note_on_c, 5, 52, 76
11, 20040, Note_on_c, 5, 64, 76
11, 20040, Note_on_c, 5, 66, 76
11, 20040, Note_on_c, 5, 69, 76
11, 20040, Note_on_c, 5, 72, 76
11, 20159, Note_on_c, 5, 52, 0
11, 20159, Note_on_c, 5, 64, 0
11, 20159, Note_on_c, 5, 66, 0
11, 20159, Note_on_c, 5, 69, 0
11, 20159, Note_on_c, 5, 72, 0
11, 20160, Note_on_c, 5, 54, 76
11, 20160, Note_on_c, 5, 66, 76
11, 20160, Note_on_c, 5, 69, 76
11, 20160, Note_on_c, 5, 72, 76
11, 20160, Note_on_c, 5, 75, 76
11, 20639, Note_on_c, 5, 66, 0
11, 20639, Note_on_c, 5, 69, 0
11, 20639, Note_on_c, 5, 72, 0
11, 20639, Note_on_c, 5, 75, 0
11, 20640, Note_on_c, 5, 66, 76
11, 20640, Note_on_c, 5, 67, 76
11, 20640, Note_on_c, 5, 71, 76
11, 20640, Note_on_c, 5, 75, 76
11, 20879, Note_on_c, 5, 54, 0
11, 20879, Note_on_c, 5, 66, 0
11, 20879, Note_on_c, 5, 67, 0
11, 20879, Note_on_c, 5, 71, 0
11, 20879, Note_on_c, 5, 75, 0
11, 20880, Note_on_c, 5, 52, 76
11, 20880, Note_on_c, 5, 64, 76
11, 20880, Note_on_c, 5, 67, 76
11, 20880, Note_on_c, 5, 71, 76
11, 20999, Note_on_c, 5, 52, 0
11, 20999, Note_on_c, 5, 64, 0
11, 20999, Note_on_c, 5, 67, 0
11, 20999, Note_on_c, 5, 71, 0
11, 21000, Note_on_c, 5, 51, 76
11, 21000, Note_on_c, 5, 63, 76
11, 21000, Note_on_c, 5, 66, 76
11, 21000, Note_on_c, 5, 69, 76
11, 21119, Note_on_c, 5, 51, 0
11, 21119, Note_on_c, 5, 63, 0
11, 21119, Note_on_c, 5, 66, 0
11, 21119, Note_on_c, 5, 69, 0
11, 21120, Note_on_c, 5, 52, 76
11, 21120, Note_on_c, 5, 64, 76
11, 21120, Note_on_c, 5, 67, 76
11, 21120, Note_on_c, 5, 71, 76
11, 21359, Note_on_c, 5, 52, 0
11, 21359, Note_on_c, 5, 64, 0
11, 21359, Note_on_c, 5, 67, 0
11, 21359, Note_on_c, 5, 71, 0
11, 21360, Note_on_c, 5, 47, 76
11, 21360, Note_on_c, 5, 59, 76
11, 21360, Note_on_c, 5, 63, 76
11, 21360, Note_on_c, 5, 67, 76
11, 21479, Note_on_c, 5, 59, 0
11, 21479, Note_on_c, 5, 63, 0
11, 21479, Note_on_c, 5, 67, 0
11, 21480, Note_on_c, 5, 59, 76
11, 21480, Note_on_c, 5, 63, 76
11, 21480, Note_on_c, 5, 66, 76
11, 21480, Note_on_c, 5, 69, 76
11, 21599, Note_on_c, 5, 47, 0
11, 21599, Note_on_c, 5, 59, 0
11, 21599, Note_on_c, 5, 63, 0
11, 21599, Note_on_c, 5, 66, 0
11, 21599, Note_on_c, 5, 69, 0
11, 21600, Note_on_c, 5, 48, 76
11, 21600, Note_on_c, 5, 60, 76
11, 21600, Note_on_c, 5, 64, 76
11, 21600, Note_on_c, 5, 67, 76
11, 21839, Note_on_c, 5, 48, 0
11, 21839, Note_on_c, 5, 60, 0
11, 21839, Note_on_c, 5, 64, 0
11, 21839, Note_on_c, 5, 67, 0
11, 21840, Note_on_c, 5, 60, 76
11, 21840, Note_on_c, 5, 72, 76
11, 21840, Note_on_c, 5, 76, 76
11, 21840, Note_on_c, 5, 79, 76
11, 22079, Note_on_c, 5, 60, 0
11, 22079, Note_on_c, 5, 72, 0
11, 22079, Note_on_c, 5, 76, 0
11, 22079, Note_on_c, 5, 79, 0
11, 22080, Note_on_c, 5, 57, 76
11, 22080, Note_on_c, 5, 69, 76
11, 22080, Note_on_c, 5, 72, 76
11, 22080, Note_on_c, 5, 78, 76
11, 22319, Note_on_c, 5, 57, 0
11, 22319, Note_on_c, 5, 69, 0
11, 22319, Note_on_c, 5, 72, 0
11, 22319, Note_on_c, 5, 78, 0
11, 22320, Note_on_c, 5, 59, 76
11, 22320, Note_on_c, 5, 71, 76
11, 22320, Note_on_c, 5, 75, 76
11, 22320, Note_on_c, 5, 78, 76
11, 22559, Note_on_c, 5, 59, 0
11, 22559, Note_on_c, 5, 71, 0
11, 22559, Note_on_c, 5, 75, 0
11, 22559, Note_on_c, 5, 78, 0
11, 22560, Note_on_c, 5, 52, 76
11, 22560, Note_on_c, 5, 64, 76
11, 22560, Note_on_c, 5, 67, 76
11, 22560, Note_on_c, 5, 71, 76
11, 22799, Note_on_c, 5, 52, 0
11, 22799, Note_on_c, 5, 64, 0
11, 22799, Note_on_c, 5, 67, 0
11, 22799, Note_on_c, 5, 71, 0
11, 22800, Note_on_c, 5, 40, 76
11, 22800, Note_on_c, 5, 52, 76
11, 22800, Note_on_c, 5, 55, 76
11, 22800, Note_on_c, 5, 59, 76
11, 23039, Note_on_c, 5, 40, 0
11, 23039, Note_on_c, 5, 52, 0
11, 23039, Note_on_c, 5, 55, 0
11, 23039, Note_on_c, 5, 59, 0
11, 23040, Note_on_c, 5, 52, 76
11, 23040, Note_on_c, 5, 64, 76
11, 23040, Note_on_c, 5, 67, 76
11, 23040, Note_on_c, 5, 71, 76
11, 23279, Note_on_c, 5, 52, 0
11, 23279, Note_on_c, 5, 64, 0
11, 23279, Note_on_c, 5, 67, 0
11, 23279, Note_on_c, 5, 71, 0
11, 23280, Note_on_c, 5, 49, 76
11, 23280, Note_on_c, 5, 61, 76
11, 23280, Note_on_c, 5, 64, 76
11, 23280, Note_on_c, 5, 67, 76
11, 23280, Note_on_c, 5, 69, 76
11, 23519, Note_on_c, 5, 49, 0
11, 23519, Note_on_c, 5, 61, 0
11, 23519, Note_on_c, 5, 64, 0
11, 23519, Note_on_c, 5, 67, 0
11, 23519, Note_on_c, 5, 69, 0
11, 23520, Note_on_c, 5, 45, 76
11, 23520, Note_on_c, 5, 57, 76
11, 23520, Note_on_c, 5, 61, 76
11, 23520, Note_on_c, 5, 64, 76
11, 23520, Note_on_c, 5, 67, 76
11, 23999, Note_on_c, 5, 45, 0
11, 23999, Note_on_c, 5, 57, 0
11, 23999, Note_on_c, 5, 61, 0
11, 23999, Note_on_c, 5, 64, 0
11, 23999, Note_on_c, 5, 67, 0
11, 24000, Note_on_c, 5, 50, 76
11, 24000, Note_on_c, 5, 62, 76
11, 24000, Note_on_c, 5, 66, 76
11, 24000, Note_on_c, 5, 69, 76
11, 24239, Note_on_c, 5, 50, 0
11, 24239, Note_on_c, 5, 62, 0
11, 24239, Note_on_c, 5, 66, 0
11, 24239, Note_on_c, 5, 69, 0
11, 24240, Note_on_c, 5, 47, 76
11, 24240, Note_on_c, 5, 59, 76
11, 24240, Note_on_c, 5, 62, 76
11, 24240, Note_on_c, 5, 66, 76
11, 24240, Note_on_c, 5, 67, 76
11, 24479, Note_on_c, 5, 47, 0
11, 24479, Note_on_c, 5, 59, 0
11, 24479, Note_on_c, 5, 62, 0
11, 24479, Note_on_c, 5, 66, 0
11, 24479, Note_on_c, 5, 67, 0
11, 24480, Note_on_c, 5, 43, 76
11, 24480, Note_on_c, 5, 55, 76
11, 24480, Note_on_c, 5, 59, 76
11, 24480, Note_on_c, 5, 62, 76
11, 24480, Note_on_c, 5, 66, 76
11, 24959, Note_on_c, 5, 43, 0
11, 24959, Note_on_c, 5, 55, 0
11, 24959, Note_on_c, 5, 59, 0
11, 24959, Note_on_c, 5, 62, 0
11, 24959, Note_on_c, 5, 66, 0
11, 24960, Note_on_c, 5, 55, 76
11, 24960, Note_on_c, 5, 67, 76
11, 24960, Note_on_c, 5, 71, 76
11, 24960, Note_on_c, 5, 76, 76
11, 25199, Note_on_c, 5, 55, 0
11, 25199, Note_on_c, 5, 67, 0
11, 25199, Note_on_c, 5, 71, 0
11, 25199, Note_on_c, 5, 76, 0
11, 25200, Note_on_c, 5, 52, 76
11, 25200, Note_on_c, 5, 64, 76
11, 25200, Note_on_c, 5, 67, 76
11, 25200, Note_on_c, 5, 71, 76
11, 25439, Note_on_c, 5, 52, 0
11, 25439, Note_on_c, 5, 64, 0
11, 25439, Note_on_c, 5, 67, 0
11, 25439, Note_on_c, 5, 71, 0
11, 25440, Note_on_c, 5, 49, 76
11, 25440, Note_on_c, 5, 61, 76
11, 25440, Note_on_c, 5, 64, 76
11, 25440, Note_on_c, 5, 70, 76
11, 25679, Note_on_c, 5, 49, 0
11, 25679, Note_on_c, 5, 61, 0
11, 25679, Note_on_c, 5, 64, 0
11, 25679, Note_on_c, 5, 70, 0
11, 25680, Note_on_c, 5, 58, 76
11, 25680, Note_on_c, 5, 70, 76
11, 25680, Note_on_c, 5, 73, 76
11, 25680, Note_on_c, 5, 76, 76
11, 25680, Note_on_c, 5, 78, 76
11, 25919, Note_on_c, 5, 58, 0
11, 25919, Note_on_c, 5, 70, 0
11, 25919, Note_on_c, 5, 73, 0
11, 25919, Note_on_c, 5, 76, 0
11, 25919, Note_on_c, 5, 78, 0
11, 25920, Note_on_c, 5, 59, 76
11, 25920, Note_on_c, 5, 71, 76
11, 25920, Note_on_c, 5, 74, 76
11, 25920, Note_on_c, 5, 78, 76
11, 26159, Note_on_c, 5, 59, 0
11, 26159, Note_on_c, 5, 71, 0
11, 26159, Note_on_c, 5, 74, 0
11, 26159, Note_on_c, 5, 78, 0
11, 26160, Note_on_c, 5, 47, 76
11, 26160, Note_on_c, 5, 59, 76
11, 26160, Note_on_c, 5, 62, 76
11, 26160, Note_on_c, 5, 66, 76
11, 26399, Note_on_c, 5, 47, 0
11, 26399, Note_on_c, 5, 59, 0
11, 26399, Note_on_c, 5, 62, 0
11, 26399, Note_on_c, 5, 66, 0
11, 26400, Note_on_c, 5, 54, 76
11, 26400, Note_on_c, 5, 66, 76
11, 26400, Note_on_c, 5, 70, 76
11, 26400, Note_on_c, 5, 73, 76
11, 26519, Note_on_c, 5, 54, 0
11, 26519, Note_on_c, 5, 66, 0
11, 26519, Note_on_c, 5, 70, 0
11, 26519, Note_on_c, 5, 73, 0
11, 26520, Note_on_c, 5, 56, 76
11, 26520, Note_on_c, 5, 68, 76
11, 26520, Note_on_c, 5, 71, 76
11, 26520, Note_on_c, 5, 74, 76
11, 26639, Note_on_c, 5, 56, 0
11, 26639, Note_on_c, 5, 68, 0
11, 26639, Note_on_c, 5, 71, 0
11, 26639, Note_on_c, 5, 74, 0
11, 26640, Note_on_c, 5, 58, 76
11, 26640, Note_on_c, 5, 70, 76
11, 26640, Note_on_c, 5, 73, 76
11, 26640, Note_on_c, 5, 78, 76
11, 26759, Note_on_c, 5, 58, 0
11, 26759, Note_on_c, 5, 70, 0
11, 26759, Note_on_c, 5, 73, 0
11, 26759, Note_on_c, 5, 78, 0
11, 26760, Note_on_c, 5, 54, 76
11, 26760, Note_on_c, 5, 66, 76
11, 26760, Note_on_c, 5, 70, 76
11, 26760, Note_on_c, 5, 73, 76
11, 26879, Note_on_c, 5, 54, 0
11, 26879, Note_on_c, 5, 66, 0
11, 26879, Note_on_c, 5, 70, 0
11, 26879, Note_on_c, 5, 73, 0
11, 26880, Note_on_c, 5, 59, 76
11, 26880, Note_on_c, 5, 71, 76
11, 26880, Note_on_c, 5, 74, 76
11, 26880, Note_on_c, 5, 78, 76
11, 27359, Note_on_c, 5, 71, 0
11, 27359, Note_on_c, 5, 74, 0
11, 27359, Note_on_c, 5, 78, 0
11, 27360, Note_on_c, 5, 71, 76
11, 27360, Note_on_c, 5, 73, 76
11, 27360, Note_on_c, 5, 78, 76
11, 27599, Note_on_c, 5, 59, 0
11, 27599, Note_on_c, 5, 71, 0
11, 27599, Note_on_c, 5, 73, 0
11, 27599, Note_on_c, 5, 78, 0
11, 27600, Note_on_c, 5, 58, 76
11, 27600, Note_on_c, 5, 70, 76
11, 27600, Note_on_c, 5, 73, 76
11, 27600, Note_on_c, 5, 76, 76
11, 27719, Note_on_c, 5, 58, 0
11, 27719, Note_on_c, 5, 70, 0
11, 27719, Note_on_c, 5, 73, 0
11, 27719, Note_on_c, 5, 76, 0
11, 27720, Note_on_c, 5, 59, 76
11, 27720, Note_on_c, 5, 71, 76
11, 27720, Note_on_c, 5, 73, 76
11, 27720, Note_on_c, 5, 78, 76
11, 27839, Note_on_c, 5, 59, 0
11, 27839, Note_on_c, 5, 71, 0
11, 27839, Note_on_c, 5, 73, 0
11, 27839, Note_on_c, 5, 78, 0
11, 27840, Note_on_c, 5, 61, 76
11, 27840, Note_on_c, 5, 73, 76
11, 27840, Note_on_c, 5, 76, 76
11, 27840, Note_on_c, 5, 82, 76
11, 28319, Note_on_c, 5, 73, 0
11, 28319, Note_on_c, 5, 76, 0
11, 28319, Note_on_c, 5, 82, 0
11, 28320, Note_on_c, 5, 74, 76
11, 28320, Note_on_c, 5, 73, 76
11, 28320, Note_on_c, 5, 78, 76
11, 28320, Note_on_c, 5, 82, 76
11, 28559, Note_on_c, 5, 61, 0
11, 28559, Note_on_c, 5, 74, 0
11, 28559, Note_on_c, 5, 73, 0
11, 28559, Note_on_c, 5, 78, 0
11, 28559, Note_on_c, 5, 82, 0
11, 28560, Note_on_c, 5, 59, 76
11, 28560, Note_on_c, 5, 71, 76
11, 28560, Note_on_c, 5, 74, 76
11, 28560, Note_on_c, 5, 78, 76
11, 28679, Note_on_c, 5, 59, 0
11, 28679, Note_on_c, 5, 71, 0
11, 28679, Note_on_c, 5, 74, 0
11, 28679, Note_on_c, 5, 78, 0
11, 28680, Note_on_c, 5, 61, 76
11, 28680, Note_on_c, 5, 73, 76
11, 28680, Note_on_c, 5, 74, 76
11, 28680, Note_on_c, 5, 78, 76
11, 28680, Note_on_c, 5, 82, 76
11, 28799, Note_on_c, 5, 61, 0
11, 28799, Note_on_c, 5, 73, 0
11, 28799, Note_on_c, 5, 74, 0
11, 28799, Note_on_c, 5, 78, 0
11, 28799, Note_on_c, 5, 82, 0
11, 28800, Note_on_c, 5, 62, 76
11, 28800, Note_on_c, 5, 74, 76
11, 28800, Note_on_c, 5, 78, 76
11, 28800, Note_on_c, 5, 83, 76
11, 29039, Note_on_c, 5, 62, 0
11, 29039, Note_on_c, 5, 74, 0
11, 29039, Note_on_c, 5, 78, 0
11, 29039, Note_on_c, 5, 83, 0
11, 29040, Note_on_c, 5, 59, 76
11, 29040, Note_on_c, 5, 71, 76
11, 29040, Note_on_c, 5, 74, 76
11, 29040, Note_on_c, 5, 78, 76
11, 29279, Note_on_c, 5, 59, 0
11, 29279, Note_on_c, 5, 71, 0
11, 29279, Note_on_c, 5, 74, 0
11, 29279, Note_on_c, 5, 78, 0
11, 29280, Note_on_c, 5, 54, 76
11, 29280, Note_on_c, 5, 66, 76
11, 29280, Note_on_c, 5, 71, 76
11, 29280, Note_on_c, 5, 74, 76
11, 29759, Note_on_c, 5, 54, 0
11, 29759, Note_on_c, 5, 66, 0
11, 29759, Note_on_c, 5, 71, 0
11, 29759, Note_on_c, 5, 74, 0
11, 29760, Note_on_c, 5, 78, 76
11, 29760, Note_on_c, 5, 61, 76
11, 29760, Note_on_c, 5, 73, 76
11, 29760, Note_on_c, 5, 76, 76
11, 29760, Note_on_c, 5, 82, 76
11, 29999, Note_on_c, 5, 78, 0
11, 29999, Note_on_c, 5, 61, 0
11, 29999, Note_on_c, 5, 73, 0
11, 29999, Note_on_c, 5, 76, 0
11, 29999, Note_on_c, 5, 82, 0
11, 30000, Note_on_c, 5, 58, 76
11, 30000, Note_on_c, 5, 70, 76
11, 30000, Note_on_c, 5, 76, 76
11, 30000, Note_on_c, 5, 78, 76
11, 30000, Note_on_c, 5, 82, 76
11, 30239, Note_on_c, 5, 58, 0
11, 30239, Note_on_c, 5, 70, 0
11, 30239, Note_on_c, 5, 76, 0
11, 30239, Note_on_c, 5, 78, 0
11, 30239, Note_on_c, 5, 82, 0
11, 30240, Note_on_c, 5, 54, 76
11, 30240, Note_on_c, 5, 66, 76
11, 30240, Note_on_c, 5, 70, 76
11, 30240, Note_on_c, 5, 73, 76
11, 30240, Note_on_c, 5, 76, 76
11, 30719, Note_on_c, 5, 54, 0
11, 30719, Note_on_c, 5, 66, 0
11, 30719, Note_on_c, 5, 70, 0
11, 30719, Note_on_c, 5, 73, 0
11, 30719, Note_on_c, 5, 76, 0
11, 30720, Note_on_c, 5, 59, 76
11, 30720, Note_on_c, 5, 71, 76
11, 30720, Note_on_c, 5, 74, 76
11, 30720, Note_on_c, 5, 78, 76
11, 31199, Note_on_c, 5, 71, 0
11, 31199, Note_on_c, 5, 74, 0
11, 31199, Note_on_c, 5, 78, 0
11, 31200, Note_on_c, 5, 71, 76
11, 31200, Note_on_c, 5, 73, 76
11, 31200, Note_on_c, 5, 78, 76
11, 31439, Note_on_c, 5, 59, 0
11, 31439, Note_on_c, 5, 71, 0
11, 31439, Note_on_c, 5, 73, 0
11, 31439, Note_on_c, 5, 78, 0
11, 31440, Note_on_c, 5, 58, 76
11, 31440, Note_on_c, 5, 70, 76
11, 31440, Note_on_c, 5, 73, 76
11, 31440, Note_on_c, 5, 76, 76
11, 31559, Note_on_c, 5, 58, 0
11, 31559, Note_on_c, 5, 70, 0
11, 31559, Note_on_c, 5, 73, 0
11, 31559, Note_on_c, 5, 76, 0
11, 31560, Note_on_c, 5, 59, 76
11, 31560, Note_on_c, 5, 71, 76
11, 31560, Note_on_c, 5, 73, 76
11, 31560, Note_on_c, 5, 78, 76
11, 31679, Note_on_c, 5, 59, 0
11, 31679, Note_on_c, 5, 71, 0
11, 31679, Note_on_c, 5, 73, 0
11, 31679, Note_on_c, 5, 78, 0
11, 31680, Note_on_c, 5, 73, 76
11, 31680, Note_on_c, 5, 61, 76
11, 31680, Note_on_c, 5, 76, 76
11, 31680, Note_on_c, 5, 82, 76
11, 32159, Note_on_c, 5, 73, 0
11, 32159, Note_on_c, 5, 76, 0
11, 32159, Note_on_c, 5, 82, 0
11, 32160, Note_on_c, 5, 73, 76
11, 32160, Note_on_c, 5, 74, 76
11, 32160, Note_on_c, 5, 78, 76
11, 32399, Note_on_c, 5, 61, 0
11, 32399, Note_on_c, 5, 73, 0
11, 32399, Note_on_c, 5, 74, 0
11, 32399, Note_on_c, 5, 78, 0
11, 32400, Note_on_c, 5, 59, 76
11, 32400, Note_on_c, 5, 71, 76
11, 32400, Note_on_c, 5, 74, 76
11, 32400, Note_on_c, 5, 78, 76
11, 32519, Note_on_c, 5, 59, 0
11, 32519, Note_on_c, 5, 71, 0
11, 32519, Note_on_c, 5, 74, 0
11, 32519, Note_on_c, 5, 78, 0
11, 32520, Note_on_c, 5, 61, 76
11, 32520, Note_on_c, 5, 73, 76
11, 32520, Note_on_c, 5, 74, 76
11, 32520, Note_on_c, 5, 78, 76
11, 32639, Note_on_c, 5, 61, 0
11, 32639, Note_on_c, 5, 73, 0
11, 32639, Note_on_c, 5, 74, 0
11, 32639, Note_on_c, 5, 78, 0
11, 32640, Note_on_c, 5, 62, 76
11, 32640, Note_on_c, 5, 74, 76
11, 32640, Note_on_c, 5, 78, 76
11, 32640, Note_on_c, 5, 83, 76
11, 32879, Note_on_c, 5, 62, 0
11, 32879, Note_on_c, 5, 74, 0
11, 32879, Note_on_c, 5, 78, 0
11, 32879, Note_on_c, 5, 83, 0
11, 32880, Note_on_c, 5, 58, 76
11, 32880, Note_on_c, 5, 70, 76
11, 32880, Note_on_c, 5, 73, 76
11, 32880, Note_on_c, 5, 76, 76
11, 32880, Note_on_c, 5, 78, 76
11, 33119, Note_on_c, 5, 58, 0
11, 33119, Note_on_c, 5, 70, 0
11, 33119, Note_on_c, 5, 73, 0
11, 33119, Note_on_c, 5, 76, 0
11, 33119, Note_on_c, 5, 78, 0
11, 33120, Note_on_c, 5, 59, 76
11, 33120, Note_on_c, 5, 71, 76
11, 33120, Note_on_c, 5, 74, 76
11, 33120, Note_on_c, 5, 78, 76
11, 33359, Note_on_c, 5, 59, 0
11, 33359, Note_on_c, 5, 71, 0
11, 33359, Note_on_c, 5, 74, 0
11, 33359, Note_on_c, 5, 78, 0
11, 33360, Note_on_c, 5, 55, 76
11, 33360, Note_on_c, 5, 67, 76
11, 33360, Note_on_c, 5, 71, 76
11, 33360, Note_on_c, 5, 74, 76
11, 33599, Note_on_c, 5, 55, 0
11, 33599, Note_on_c, 5, 67, 0
11, 33599, Note_on_c, 5, 71, 0
11, 33599, Note_on_c, 5, 74, 0
11, 33600, Note_on_c, 5, 52, 76
11, 33600, Note_on_c, 5, 64, 76
11, 33600, Note_on_c, 5, 67, 76
11, 33600, Note_on_c, 5, 73, 76
11, 33839, Note_on_c, 5, 52, 0
11, 33839, Note_on_c, 5, 64, 0
11, 33839, Note_on_c, 5, 67, 0
11, 33839, Note_on_c, 5, 73, 0
11, 33840, Note_on_c, 5, 54, 76
11, 33840, Note_on_c, 5, 66, 76
11, 33840, Note_on_c, 5, 70, 76
11, 33840, Note_on_c, 5, 73, 76
11, 34079, Note_on_c, 5, 54, 0
11, 34079, Note_on_c, 5, 66, 0
11, 34079, Note_on_c, 5, 70, 0
11, 34079, Note_on_c, 5, 73, 0
11, 34080, Note_on_c, 5, 47, 76
11, 34080, Note_on_c, 5, 59, 76
11, 34080, Note_on_c, 5, 62, 76
11, 34080, Note_on_c, 5, 66, 76
11, 34319, Note_on_c, 5, 47, 0
11, 34319, Note_on_c, 5, 59, 0
11, 34319, Note_on_c, 5, 62, 0
11, 34319, Note_on_c, 5, 66, 0
11, 34320, Note_on_c, 5, 50, 76
11, 34320, Note_on_c, 5, 62, 76
11, 34320, Note_on_c, 5, 66, 76
11, 34320, Note_on_c, 5, 69, 76
11, 34439, Note_on_c, 5, 50, 0
11, 34439, Note_on_c, 5, 62, 0
11, 34439, Note_on_c, 5, 66, 0
11, 34439, Note_on_c, 5, 69, 0
11, 34440, Note_on_c, 5, 54, 76
11, 34440, Note_on_c, 5, 66, 76
11, 34440, Note_on_c, 5, 69, 76
11, 34440, Note_on_c, 5, 73, 76
11, 34559, Note_on_c, 5, 54, 0
11, 34559, Note_on_c, 5, 66, 0
11, 34559, Note_on_c, 5, 69, 0
11, 34559, Note_on_c, 5, 73, 0
11, 34560, Note_on_c, 5, 59, 76
11, 34560, Note_on_c, 5, 71, 76
11, 34560, Note_on_c, 5, 74, 76
11, 34560, Note_on_c, 5, 78, 76
11, 34799, Note_on_c, 5, 59, 0
11, 34799, Note_on_c, 5, 71, 0
11, 34799, Note_on_c, 5, 74, 0
11, 34799, Note_on_c, 5, 78, 0
11, 34800, Note_on_c, 5, 57, 76
11, 34800, Note_on_c, 5, 69, 76
11, 34800, Note_on_c, 5, 71, 76
11, 34800, Note_on_c, 5, 74, 76
11, 34800, Note_on_c, 5, 78, 76
11, 35039, Note_on_c, 5, 57, 0
11, 35039, Note_on_c, 5, 69, 0
11, 35039, Note_on_c, 5, 71, 0
11, 35039, Note_on_c, 5, 74, 0
11, 35039, Note_on_c, 5, 78, 0
11, 35040, Note_on_c, 5, 68, 76
11, 35040, Note_on_c, 5, 56, 76
11, 35040, Note_on_c, 5, 71, 76
11, 35040, Note_on_c, 5, 74, 76
11, 35040, Note_on_c, 5, 76, 76
11, 35279, Note_on_c, 5, 68, 0
11, 35279, Note_on_c, 5, 56, 0
11, 35279, Note_on_c, 5, 71, 0
11, 35279, Note_on_c, 5, 74, 0
11, 35279, Note_on_c, 5, 76, 0
11, 35280, Note_on_c, 5, 57, 76
11, 35280, Note_on_c, 5, 69, 76
11, 35280, Note_on_c, 5, 73, 76
11, 35280, Note_on_c, 5, 76, 76
11, 35519, Note_on_c, 5, 57, 0
11, 35519, Note_on_c, 5, 69, 0
11, 35519, Note_on_c, 5, 73, 0
11, 35519, Note_on_c, 5, 76, 0
11, 35520, Note_on_c, 5, 50, 76
11, 35520, Note_on_c, 5, 62, 76
11, 35520, Note_on_c, 5, 66, 76
11, 35520, Note_on_c, 5, 69, 76
11, 35520, Note_on_c, 5, 71, 76
11, 35759, Note_on_c, 5, 50, 0
11, 35759, Note_on_c, 5, 62, 0
11, 35759, Note_on_c, 5, 66, 0
11, 35759, Note_on_c, 5, 69, 0
11, 35759, Note_on_c, 5, 71, 0
11, 35760, Note_on_c, 5, 52, 76
11, 35760, Note_on_c, 5, 64, 76
11, 35760, Note_on_c, 5, 68, 76
11, 35760, Note_on_c, 5, 71, 76
11, 35999, Note_on_c, 5, 52, 0
11, 35999, Note_on_c, 5, 64, 0
11, 35999, Note_on_c, 5, 68, 0
11, 35999, Note_on_c, 5, 71, 0
11, 36000, Note_on_c, 5, 45, 76
11, 36000, Note_on_c, 5, 57, 76
11, 36000, Note_on_c, 5, 61, 76
11, 36000, Note_on_c, 5, 64, 76
11, 36239, Note_on_c, 5, 45, 0
11, 36239, Note_on_c, 5, 57, 0
11, 36239, Note_on_c, 5, 61, 0
11, 36239, Note_on_c, 5, 64, 0
11, 36240, Note_on_c, 5, 57, 76
11, 36240, Note_on_c, 5, 69, 76
11, 36240, Note_on_c, 5, 73, 76
11, 36240, Note_on_c, 5, 76, 76
11, 36479, Note_on_c, 5, 57, 0
11, 36479, Note_on_c, 5, 69, 0
11, 36479, Note_on_c, 5, 73, 0
11, 36479, Note_on_c, 5, 76, 0
11, 36480, Note_on_c, 5, 55, 76
11, 36480, Note_on_c, 5, 67, 76
11, 36480, Note_on_c, 5, 69, 76
11, 36480, Note_on_c, 5, 73, 76
11, 36480, Note_on_c, 5, 76, 76
11, 36719, Note_on_c, 5, 55, 0
11, 36719, Note_on_c, 5, 67, 0
11, 36719, Note_on_c, 5, 69, 0
11, 36719, Note_on_c, 5, 73, 0
11, 36719, Note_on_c, 5, 76, 0
11, 36720, Note_on_c, 5, 54, 76
11, 36720, Note_on_c, 5, 66, 76
11, 36720, Note_on_c, 5, 69, 76
11, 36720, Note_on_c, 5, 74, 76
11, 36959, Note_on_c, 5, 54, 0
11, 36959, Note_on_c, 5, 66, 0
11, 36959, Note_on_c, 5, 69, 0
11, 36959, Note_on_c, 5, 74, 0
11, 36960, Note_on_c, 5, 52, 76
11, 36960, Note_on_c, 5, 64, 76
11, 36960, Note_on_c, 5, 67, 76
11, 36960, Note_on_c, 5, 73, 76
11, 37199, Note_on_c, 5, 52, 0
11, 37199, Note_on_c, 5, 64, 0
11, 37199, Note_on_c, 5, 67, 0
11, 37199, Note_on_c, 5, 73, 0
11, 37200, Note_on_c, 5, 49, 76
11, 37200, Note_on_c, 5, 61, 76
11, 37200, Note_on_c, 5, 64, 76
11, 37200, Note_on_c, 5, 67, 76
11, 37200, Note_on_c, 5, 69, 76
11, 37439, Note_on_c, 5, 49, 0
11, 37439, Note_on_c, 5, 61, 0
11, 37439, Note_on_c, 5, 64, 0
11, 37439, Note_on_c, 5, 67, 0
11, 37439, Note_on_c, 5, 69, 0
11, 37440, Note_on_c, 5, 45, 76
11, 37440, Note_on_c, 5, 57, 76
11, 37440, Note_on_c, 5, 61, 76
11, 37440, Note_on_c, 5, 64, 76
11, 37440, Note_on_c, 5, 67, 76
11, 37679, Note_on_c, 5, 45, 0
11, 37679, Note_on_c, 5, 57, 0
11, 37679, Note_on_c, 5, 61, 0
11, 37679, Note_on_c, 5, 64, 0
11, 37679, Note_on_c, 5, 67, 0
11, 37680, Note_on_c, 5, 57, 76
11, 37680, Note_on_c, 5, 69, 76
11, 37680, Note_on_c, 5, 73, 76
11, 37680, Note_on_c, 5, 76, 76
11, 37919, Note_on_c, 5, 57, 0
11, 37919, Note_on_c, 5, 69, 0
11, 37919, Note_on_c, 5, 73, 0
11, 37919, Note_on_c, 5, 76, 0
11, 37920, Note_on_c, 5, 50, 76
11, 37920, Note_on_c, 5, 62, 76
11, 37920, Note_on_c, 5, 66, 76
11, 37920, Note_on_c, 5, 69, 76
11, 38399, Note_on_c, 5, 50, 0
11, 38399, Note_on_c, 5, 62, 0
11, 38399, Note_on_c, 5, 66, 0
11, 38399, Note_on_c, 5, 69, 0
11, 42240, Note_on_c, 5, 57, 76
11, 42240, Note_on_c, 5, 69, 76
11, 42240, Note_on_c, 5, 73, 76
11, 42240, Note_on_c, 5, 78, 76
11, 42359, Note_on_c, 5, 57, 0
11, 42359, Note_on_c, 5, 69, 0
11, 42359, Note_on_c, 5, 73, 0
11, 42359, Note_on_c, 5, 78, 0
11, 42360, Note_on_c, 5, 71, 76
11, 42360, Note_on_c, 5, 59, 76
11, 42360, Note_on_c, 5, 74, 76
11, 42360, Note_on_c, 5, 78, 76
11, 42479, Note_on_c, 5, 71, 0
11, 42479, Note_on_c, 5, 59, 0
11, 42479, Note_on_c, 5, 74, 0
11, 42479, Note_on_c, 5, 78, 0
11, 42480, Note_on_c, 5, 57, 76
11, 42480, Note_on_c, 5, 69, 76
11, 42480, Note_on_c, 5, 73, 76
11, 42480, Note_on_c, 5, 78, 76
11, 42599, Note_on_c, 5, 57, 0
11, 42599, Note_on_c, 5, 69, 0
11, 42599, Note_on_c, 5, 73, 0
11, 42599, Note_on_c, 5, 78, 0
11, 42600, Note_on_c, 5, 56, 76
11, 42600, Note_on_c, 5, 68, 76
11, 42600, Note_on_c, 5, 71, 76
11, 42600, Note_on_c, 5, 77, 76
11, 42719, Note_on_c, 5, 56, 0
11, 42719, Note_on_c, 5, 68, 0
11, 42719, Note_on_c, 5, 71, 0
11, 42719, Note_on_c, 5, 77, 0
11, 42720, Note_on_c, 5, 54, 76
11, 42720, Note_on_c, 5, 66, 76
11, 42720, Note_on_c, 5, 69, 76
11, 42720, Note_on_c, 5, 73, 76
11, 42839, Note_on_c, 5, 54, 0
11, 42839, Note_on_c, 5, 66, 0
11, 42839, Note_on_c, 5, 69, 0
11, 42839, Note_on_c, 5, 73, 0
11, 42840, Note_on_c, 5, 56, 76
11, 42840, Note_on_c, 5, 68, 76
11, 42840, Note_on_c, 5, 71, 76
11, 42840, Note_on_c, 5, 74, 76
11, 42959, Note_on_c, 5, 56, 0
11, 42959, Note_on_c, 5, 68, 0
11, 42959, Note_on_c, 5, 71, 0
11, 42959, Note_on_c, 5, 74, 0
11, 42960, Note_on_c, 5, 57, 76
11, 42960, Note_on_c, 5, 69, 76
11, 42960, Note_on_c, 5, 73, 76
11, 42960, Note_on_c, 5, 76, 76
11, 43079, Note_on_c, 5, 57, 0
11, 43079, Note_on_c, 5, 69, 0
11, 43079, Note_on_c, 5, 73, 0
11, 43079, Note_on_c, 5, 76, 0
11, 43080, Note_on_c, 5, 54, 76
11, 43080, Note_on_c, 5, 66, 76
11, 43080, Note_on_c, 5, 69, 76
11, 43080, Note_on_c, 5, 73, 76
11, 43199, Note_on_c, 5, 54, 0
11, 43199, Note_on_c, 5, 66, 0
11, 43199, Note_on_c, 5, 69, 0
11, 43199, Note_on_c, 5, 73, 0
11, 43200, Note_on_c, 5, 56, 76
11, 43200, Note_on_c, 5, 68, 76
11, 43200, Note_on_c, 5, 71, 76
11, 43200, Note_on_c, 5, 77, 76
11, 43319, Note_on_c, 5, 56, 0
11, 43319, Note_on_c, 5, 68, 0
11, 43319, Note_on_c, 5, 71, 0
11, 43319, Note_on_c, 5, 77, 0
11, 43320, Note_on_c, 5, 77, 76
11, 43320, Note_on_c, 5, 57, 76
11, 43320, Note_on_c, 5, 69, 76
11, 43320, Note_on_c, 5, 73, 76
11, 43439, Note_on_c, 5, 77, 0
11, 43439, Note_on_c, 5, 57, 0
11, 43439, Note_on_c, 5, 69, 0
11, 43439, Note_on_c, 5, 73, 0
11, 43440, Note_on_c, 5, 56, 76
11, 43440, Note_on_c, 5, 68, 76
11, 43440, Note_on_c, 5, 69, 76
11, 43440, Note_on_c, 5, 73, 76
11, 43440, Note_on_c, 5, 78, 76
11, 43559, Note_on_c, 5, 56, 0
11, 43559, Note_on_c, 5, 68, 0
11, 43559, Note_on_c, 5, 69, 0
11, 43559, Note_on_c, 5, 73, 0
11, 43559, Note_on_c, 5, 78, 0
11, 43560, Note_on_c, 5, 54, 76
11, 43560, Note_on_c, 5, 66, 76
11, 43560, Note_on_c, 5, 69, 76
11, 43560, Note_on_c, 5, 73, 76
11, 43679, Note_on_c, 5, 54, 0
11, 43679, Note_on_c, 5, 66, 0
11, 43679, Note_on_c, 5, 69, 0
11, 43679, Note_on_c, 5, 73, 0
11, 43680, Note_on_c, 5, 53, 76
11, 43680, Note_on_c, 5, 65, 76
11, 43680, Note_on_c, 5, 67, 76
11, 43680, Note_on_c, 5, 71, 76
11, 43680, Note_on_c, 5, 73, 76
11, 43799, Note_on_c, 5, 53, 0
11, 43799, Note_on_c, 5, 65, 0
11, 43799, Note_on_c, 5, 67, 0
11, 43799, Note_on_c, 5, 71, 0
11, 43799, Note_on_c, 5, 73, 0
11, 43800, Note_on_c, 5, 54, 76
11, 43800, Note_on_c, 5, 66, 76
11, 43800, Note_on_c, 5, 69, 76
11, 43800, Note_on_c, 5, 73, 76
11, 43919, Note_on_c, 5, 54, 0
11, 43919, Note_on_c, 5, 66, 0
11, 43919, Note_on_c, 5, 69, 0
11, 43919, Note_on_c, 5, 73, 0
11, 43920, Note_on_c, 5, 56, 76
11, 43920, Note_on_c, 5, 68, 76
11, 43920, Note_on_c, 5, 71, 76
11, 43920, Note_on_c, 5, 74, 76
11, 44039, Note_on_c, 5, 56, 0
11, 44039, Note_on_c, 5, 68, 0
11, 44039, Note_on_c, 5, 71, 0
11, 44039, Note_on_c, 5, 74, 0
11, 44040, Note_on_c, 5, 53, 76
11, 44040, Note_on_c, 5, 65, 76
11, 44040, Note_on_c, 5, 67, 76
11, 44040, Note_on_c, 5, 71, 76
11, 44040, Note_on_c, 5, 73, 76
11, 44159, Note_on_c, 5, 53, 0
11, 44159, Note_on_c, 5, 65, 0
11, 44159, Note_on_c, 5, 67, 0
11, 44159, Note_on_c, 5, 71, 0
11, 44159, Note_on_c, 5, 73, 0
11, 44160, Note_on_c, 5, 54, 76
11, 44160, Note_on_c, 5, 66, 76
11, 44160, Note_on_c, 5, 69, 76
11, 44160, Note_on_c, 5, 73, 76
11, 44399, Note_on_c, 5, 54, 0
11, 44399, Note_on_c, 5, 66, 0
11, 44399, Note_on_c, 5, 69, 0
11, 44399, Note_on_c, 5, 73, 0
11, 44400, Note_on_c, 5, 49, 76
11, 44400, Note_on_c, 5, 61, 76
11, 44400, Note_on_c, 5, 65, 76
11, 44400, Note_on_c, 5, 69, 76
11, 44639, Note_on_c, 5, 49, 0
11, 44639, Note_on_c, 5, 61, 0
11, 44639, Note_on_c, 5, 65, 0
11, 44639, Note_on_c, 5, 69, 0
11, 44640, Note_on_c, 5, 50, 76
11, 44640, Note_on_c, 5, 62, 76
11, 44640, Note_on_c, 5, 66, 76
11, 44640, Note_on_c, 5, 69, 76
11, 44879, Note_on_c, 5, 50, 0
11, 44879, Note_on_c, 5, 62, 0
11, 44879, Note_on_c, 5, 66, 0
11, 44879, Note_on_c, 5, 69, 0
11, 44880, Note_on_c, 5, 62, 76
11, 44880, Note_on_c, 5, 74, 76
11, 44880, Note_on_c, 5, 78, 76
11, 44880, Note_on_c, 5, 81, 76
11, 45119, Note_on_c, 5, 62, 0
11, 45119, Note_on_c, 5, 74, 0
11, 45119, Note_on_c, 5, 78, 0
11, 45119, Note_on_c, 5, 81, 0
11, 45120, Note_on_c, 5, 59, 76
11, 45120, Note_on_c, 5, 71, 76
11, 45120, Note_on_c, 5, 74, 76
11, 45120, Note_on_c, 5, 80, 76
11, 45359, Note_on_c, 5, 59, 0
11, 45359, Note_on_c, 5, 71, 0
11, 45359, Note_on_c, 5, 74, 0
11, 45359, Note_on_c, 5, 80, 0
11, 45360, Note_on_c, 5, 61, 76
11, 45360, Note_on_c, 5, 73, 76
11, 45360, Note_on_c, 5, 77, 76
11, 45360, Note_on_c, 5, 80, 76
11, 45599, Note_on_c, 5, 61, 0
11, 45599, Note_on_c, 5, 73, 0
11, 45599, Note_on_c, 5, 77, 0
11, 45599, Note_on_c, 5, 80, 0
11, 45600, Note_on_c, 5, 54, 76
11, 45600, Note_on_c, 5, 66, 76
11, 45600, Note_on_c, 5, 70, 76
11, 45600, Note_on_c, 5, 73, 76
11, 46079, Note_on_c, 5, 54, 0
11, 46079, Note_on_c, 5, 66, 0
11, 46079, Note_on_c, 5, 70, 0
11, 46079, Note_on_c, 5, 73, 0
11, 49560, Note_on_c, 5, 64, 76
11, 49560, Note_on_c, 5, 76, 76
11, 49560, Note_on_c, 5, 82, 76
11, 49560, Note_on_c, 5, 85, 76
11, 49679, Note_on_c, 5, 64, 0
11, 49679, Note_on_c, 5, 76, 0
11, 49679, Note_on_c, 5, 82, 0
11, 49679, Note_on_c, 5, 85, 0
11, 49680, Note_on_c, 5, 62, 76
11, 49680, Note_on_c, 5, 74, 76
11, 49680, Note_on_c, 5, 78, 76
11, 49680, Note_on_c, 5, 82, 76
11, 49799, Note_on_c, 5, 62, 0
11, 49799, Note_on_c, 5, 74, 0
11, 49799, Note_on_c, 5, 78, 0
11, 49799, Note_on_c, 5, 82, 0
11, 49800, Note_on_c, 5, 61, 76
11, 49800, Note_on_c, 5, 73, 76
11, 49800, Note_on_c, 5, 76, 76
11, 49800, Note_on_c, 5, 79, 76
11, 49919, Note_on_c, 5, 61, 0
11, 49919, Note_on_c, 5, 73, 0
11, 49919, Note_on_c, 5, 76, 0
11, 49919, Note_on_c, 5, 79, 0
11, 49920, Note_on_c, 5, 59, 76
11, 49920, Note_on_c, 5, 71, 76
11, 49920, Note_on_c, 5, 74, 76
11, 49920, Note_on_c, 5, 78, 76
11, 50399, Note_on_c, 5, 71, 0
11, 50399, Note_on_c, 5, 74, 0
11, 50399, Note_on_c, 5, 78, 0
11, 50400, Note_on_c, 5, 71, 76
11, 50400, Note_on_c, 5, 73, 76
11, 50400, Note_on_c, 5, 78, 76
11, 50639, Note_on_c, 5, 59, 0
11, 50639, Note_on_c, 5, 71, 0
11, 50639, Note_on_c, 5, 73, 0
11, 50639, Note_on_c, 5, 78, 0
11, 50640, Note_on_c, 5, 58, 76
11, 50640, Note_on_c, 5, 70, 76
11, 50640, Note_on_c, 5, 73, 76
11, 50640, Note_on_c, 5, 78, 76
11, 50759, Note_on_c, 5, 58, 0
11, 50759, Note_on_c, 5, 70, 0
11, 50759, Note_on_c, 5, 73, 0
11, 50759, Note_on_c, 5, 78, 0
11, 50760, Note_on_c, 5, 59, 76
11, 50760, Note_on_c, 5, 71, 76
11, 50760, Note_on_c, 5, 73, 76
11, 50760, Note_on_c, 5, 78, 76
11, 50879, Note_on_c, 5, 59, 0
11, 50879, Note_on_c, 5, 71, 0
11, 50879, Note_on_c, 5, 73, 0
11, 50879, Note_on_c, 5, 78, 0
11, 50880, Note_on_c, 5, 61, 76
11, 50880, Note_on_c, 5, 73, 76
11, 50880, Note_on_c, 5, 76, 76
11, 50880, Note_on_c, 5, 82, 76
11, 51359, Note_on_c, 5, 73, 0
11, 51359, Note_on_c, 5, 76, 0
11, 51359, Note_on_c, 5, 82, 0
11, 51360, Note_on_c, 5, 73, 76
11, 51360, Note_on_c, 5, 74, 76
11, 51360, Note_on_c, 5, 78, 76
11, 51360, Note_on_c, 5, 82, 76
11, 51599, Note_on_c, 5, 61, 0
11, 51599, Note_on_c, 5, 73, 0
11, 51599, Note_on_c, 5, 74, 0
11, 51599, Note_on_c, 5, 78, 0
11, 51599, Note_on_c, 5, 82, 0
11, 51600, Note_on_c, 5, 59, 76
11, 51600, Note_on_c, 5, 71, 76
11, 51600, Note_on_c, 5, 74, 76
11, 51600, Note_on_c, 5, 78, 76
11, 51600, Note_on_c, 5, 82, 76
11, 51719, Note_on_c, 5, 59, 0
11, 51719, Note_on_c, 5, 71, 0
11, 51719, Note_on_c, 5, 74, 0
11, 51719, Note_on_c, 5, 78, 0
11, 51719, Note_on_c, 5, 82, 0
11, 51720, Note_on_c, 5, 61, 76
11, 51720, Note_on_c, 5, 73, 76
11, 51720, Note_on_c, 5, 74, 76
11, 51720, Note_on_c, 5, 78, 76
11, 51720, Note_on_c, 5, 82, 76
11, 51839, Note_on_c, 5, 61, 0
11, 51839, Note_on_c, 5, 73, 0
11, 51839, Note_on_c, 5, 74, 0
11, 51839, Note_on_c, 5, 78, 0
11, 51839, Note_on_c, 5, 82, 0
11, 51840, Note_on_c, 5, 62, 76
11, 51840, Note_on_c, 5, 83, 76
11, 51840, Note_on_c, 5, 74, 76
11, 51840, Note_on_c, 5, 78, 76
11, 52079, Note_on_c, 5, 62, 0
11, 52079, Note_on_c, 5, 83, 0
11, 52079, Note_on_c, 5, 74, 0
11, 52079, Note_on_c, 5, 78, 0
11, 52080, Note_on_c, 5, 59, 76
11, 52080, Note_on_c, 5, 71, 76
11, 52080, Note_on_c, 5, 74, 76
11, 52080, Note_on_c, 5, 78, 76
11, 52319, Note_on_c, 5, 59, 0
11, 52319, Note_on_c, 5, 71, 0
11, 52319, Note_on_c, 5, 74, 0
11, 52319, Note_on_c, 5, 78, 0
11, 52320, Note_on_c, 5, 54, 76
11, 52320, Note_on_c, 5, 66, 76
11, 52320, Note_on_c, 5, 71, 76
11, 52320, Note_on_c, 5, 74, 76
11, 52799, Note_on_c, 5, 54, 0
11, 52799, Note_on_c, 5, 66, 0
11, 52799, Note_on_c, 5, 71, 0
11, 52799, Note_on_c, 5, 74, 0
11, 52800, Note_on_c, 5, 61, 76
11, 52800, Note_on_c, 5, 73, 76
11, 52800, Note_on_c, 5, 76, 76
11, 52800, Note_on_c, 5, 78, 76
11, 52800, Note_on_c, 5, 82, 76
11, 53039, Note_on_c, 5, 61, 0
11, 53039, Note_on_c, 5, 73, 0
11, 53039, Note_on_c, 5, 76, 0
11, 53039, Note_on_c, 5, 78, 0
11, 53039, Note_on_c, 5, 82, 0
11, 53040, Note_on_c, 5, 58, 76
11, 53040, Note_on_c, 5, 70, 76
11, 53040, Note_on_c, 5, 76, 76
11, 53040, Note_on_c, 5, 78, 76
11, 53040, Note_on_c, 5, 82, 76
11, 53279, Note_on_c, 5, 58, 0
11, 53279, Note_on_c, 5, 70, 0
11, 53279, Note_on_c, 5, 76, 0
11, 53279, Note_on_c, 5, 78, 0
11, 53279, Note_on_c, 5, 82, 0
11, 53280, Note_on_c, 5, 54, 76
11, 53280, Note_on_c, 5, 66, 76
11, 53280, Note_on_c, 5, 70, 76
11, 53280, Note_on_c, 5, 73, 76
11, 53280, Note_on_c, 5, 76, 76
11, 53759, Note_on_c, 5, 54, 0
11, 53759, Note_on_c, 5, 66, 0
11, 53759, Note_on_c, 5, 70, 0
11, 53759, Note_on_c, 5, 73, 0
11, 53759, Note_on_c, 5, 76, 0
11, 53760, Note_on_c, 5, 59, 76
11, 53760, Note_on_c, 5, 71, 76
11, 53760, Note_on_c, 5, 74, 76
11, 53760, Note_on_c, 5, 78, 76
11, 54239, Note_on_c, 5, 71, 0
11, 54239, Note_on_c, 5, 74, 0
11, 54239, Note_on_c, 5, 78, 0
11, 54240, Note_on_c, 5, 71, 76
11, 54240, Note_on_c, 5, 73, 76
11, 54240, Note_on_c, 5, 78, 76
11, 54479, Note_on_c, 5, 59, 0
11, 54479, Note_on_c, 5, 71, 0
11, 54479, Note_on_c, 5, 73, 0
11, 54479, Note_on_c, 5, 78, 0
11, 54480, Note_on_c, 5, 58, 76
11, 54480, Note_on_c, 5, 70, 76
11, 54480, Note_on_c, 5, 73, 76
11, 54480, Note_on_c, 5, 76, 76
11, 54599, Note_on_c, 5, 58, 0
11, 54599, Note_on_c, 5, 70, 0
11, 54599, Note_on_c, 5, 73, 0
11, 54599, Note_on_c, 5, 76, 0
11, 54600, Note_on_c, 5, 59, 76
11, 54600, Note_on_c, 5, 71, 76
11, 54600, Note_on_c, 5, 73, 76
11, 54600, Note_on_c, 5, 78, 76
11, 54719, Note_on_c, 5, 59, 0
11, 54719, Note_on_c, 5, 71, 0
11, 54719, Note_on_c, 5, 73, 0
11, 54719, Note_on_c, 5, 78, 0
11, 54720, Note_on_c, 5, 61, 76
11, 54720, Note_on_c, 5, 73, 76
11, 54720, Note_on_c, 5, 76, 76
11, 54720, Note_on_c, 5, 82, 76
11, 55199, Note_on_c, 5, 73, 0
11, 55199, Note_on_c, 5, 76, 0
11, 55199, Note_on_c, 5, 82, 0
11, 55200, Note_on_c, 5, 73, 76
11, 55200, Note_on_c, 5, 74, 76
11, 55200, Note_on_c, 5, 78, 76
11, 55200, Note_on_c, 5, 82, 76
11, 55439, Note_on_c, 5, 61, 0
11, 55439, Note_on_c, 5, 73, 0
11, 55439, Note_on_c, 5, 74, 0
11, 55439, Note_on_c, 5, 78, 0
11, 55439, Note_on_c, 5, 82, 0
11, 55440, Note_on_c, 5, 59, 76
11, 55440, Note_on_c, 5, 71, 76
11, 55440, Note_on_c, 5, 74, 76
11, 55440, Note_on_c, 5, 78, 76
11, 55559, Note_on_c, 5, 59, 0
11, 55559, Note_on_c, 5, 71, 0
11, 55559, Note_on_c, 5, 74, 0
11, 55559, Note_on_c, 5, 78, 0
11, 55560, Note_on_c, 5, 61, 76
11, 55560, Note_on_c, 5, 73, 76
11, 55560, Note_on_c, 5, 74, 76
11, 55560, Note_on_c, 5, 78, 76
11, 55560, Note_on_c, 5, 82, 76
11, 55679, Note_on_c, 5, 61, 0
11, 55679, Note_on_c, 5, 73, 0
11, 55679, Note_on_c, 5, 74, 0
11, 55679, Note_on_c, 5, 78, 0
11, 55679, Note_on_c, 5, 82, 0
11, 55680, Note_on_c, 5, 62, 76
11, 55680, Note_on_c, 5, 78, 76
11, 55680, Note_on_c, 5, 74, 76
11, 55680, Note_on_c, 5, 83, 76
11, 55919, Note_on_c, 5, 62, 0
11, 55919, Note_on_c, 5, 78, 0
11, 55919, Note_on_c, 5, 74, 0
11, 55919, Note_on_c, 5, 83, 0
11, 55920, Note_on_c, 5, 70, 76
11, 55920, Note_on_c, 5, 58, 76
11, 55920, Note_on_c, 5, 73, 76
11, 55920, Note_on_c, 5, 78, 76
11, 56159, Note_on_c, 5, 70, 0
11, 56159, Note_on_c, 5, 58, 0
11, 56159, Note_on_c, 5, 73, 0
11, 56159, Note_on_c, 5, 78, 0
11, 56160, Note_on_c, 5, 59, 76
11, 56160, Note_on_c, 5, 71, 76
11, 56160, Note_on_c, 5, 74, 76
11, 56160, Note_on_c, 5, 78, 76
11, 56399, Note_on_c, 5, 59, 0
11, 56399, Note_on_c, 5, 71, 0
11, 56399, Note_on_c, 5, 74, 0
11, 56399, Note_on_c, 5, 78, 0
11, 56400, Note_on_c, 5, 55, 76
11, 56400, Note_on_c, 5, 67, 76
11, 56400, Note_on_c, 5, 71, 76
11, 56400, Note_on_c, 5, 74, 76
11, 56639, Note_on_c, 5, 55, 0
11, 56639, Note_on_c, 5, 67, 0
11, 56639, Note_on_c, 5, 71, 0
11, 56639, Note_on_c, 5, 74, 0
11, 56640, Note_on_c, 5, 52, 76
11, 56640, Note_on_c, 5, 64, 76
11, 56640, Note_on_c, 5, 67, 76
11, 56640, Note_on_c, 5, 73, 76
11, 56879, Note_on_c, 5, 52, 0
11, 56879, Note_on_c, 5, 64, 0
11, 56879, Note_on_c, 5, 67, 0
11, 56879, Note_on_c, 5, 73, 0
11, 56880, Note_on_c, 5, 54, 76
11, 56880, Note_on_c, 5, 66, 76
11, 56880, Note_on_c, 5, 70, 76
11, 56880, Note_on_c, 5, 73, 76
11, 57119, Note_on_c, 5, 54, 0
11, 57119, Note_on_c, 5, 66, 0
11, 57119, Note_on_c, 5, 70, 0
11, 57119, Note_on_c, 5, 73, 0
11, 57120, Note_on_c, 5, 47, 76
11, 57120, Note_on_c, 5, 59, 76
11, 57120, Note_on_c, 5, 62, 76
11, 57120, Note_on_c, 5, 66, 76
11, 57599, Note_on_c, 5, 47, 0
11, 57599, Note_on_c, 5, 59, 0
11, 57599, Note_on_c, 5, 62, 0
11, 57599, Note_on_c, 5, 66, 0
11, 57599, End_track
12, 0, Start_track
12, 0, MIDI_port, 0
12, 0, End_track
13, 0, Start_track
13, 0, Title_t, "Johann Sebastian Bach - Orchestral Suite No. 2 in B minor, BWV1067 - No. 2 Rondeau"
13, 0, MIDI_port, 0
13, 0, End_track
0, 0, End_of_file
